<?xml version="1.0" encoding="utf-8" standalone="no"?>
<!DOCTYPE svg PUBLIC "-//W3C//DTD SVG 1.1//EN"
  "http://www.w3.org/Graphics/SVG/1.1/DTD/svg11.dtd">
<svg xmlns:xlink="http://www.w3.org/1999/xlink" width="460.8pt" height="345.6pt" viewBox="0 0 460.8 345.6" xmlns="http://www.w3.org/2000/svg" version="1.1">
 <metadata>
  <rdf:RDF xmlns:dc="http://purl.org/dc/elements/1.1/" xmlns:cc="http://creativecommons.org/ns#" xmlns:rdf="http://www.w3.org/1999/02/22-rdf-syntax-ns#">
   <cc:Work>
    <dc:type rdf:resource="http://purl.org/dc/dcmitype/StillImage"/>
    <dc:date>2024-01-30T20:58:57.827991</dc:date>
    <dc:format>image/svg+xml</dc:format>
    <dc:creator>
     <cc:Agent>
      <dc:title>Matplotlib v3.7.1, https://matplotlib.org/</dc:title>
     </cc:Agent>
    </dc:creator>
   </cc:Work>
  </rdf:RDF>
 </metadata>
 <defs>
  <style type="text/css">*{stroke-linejoin: round; stroke-linecap: butt}</style>
 </defs>
 <g id="figure_1">
  <g id="patch_1">
   <path d="M 0 345.6 
L 460.8 345.6 
L 460.8 0 
L 0 0 
z
" style="fill: #ffffff"/>
  </g>
  <g id="axes_1">
   <g id="patch_2">
    <path d="M 57.6 307.584 
L 414.72 307.584 
L 414.72 41.472 
L 57.6 41.472 
z
" style="fill: #ffffff"/>
   </g>
   <g id="matplotlib.axis_1">
    <g id="xtick_1">
     <g id="line2d_1">
      <path d="M 73.832727 307.584 
L 73.832727 41.472 
" clip-path="url(#pa4a1ff0d0c)" style="fill: none; stroke: #b0b0b0; stroke-width: 0.8; stroke-linecap: square"/>
     </g>
     <g id="line2d_2">
      <defs>
       <path id="m3c8ba6e5b5" d="M 0 0 
L 0 3.5 
" style="stroke: #000000; stroke-width: 0.8"/>
      </defs>
      <g>
       <use xlink:href="#m3c8ba6e5b5" x="73.832727" y="307.584" style="stroke: #000000; stroke-width: 0.8"/>
      </g>
     </g>
     <g id="text_1">
      <!-- 0 -->
      <g transform="translate(70.651477 322.182437) scale(0.1 -0.1)">
       <defs>
        <path id="DejaVuSans-30" d="M 2034 4250 
Q 1547 4250 1301 3770 
Q 1056 3291 1056 2328 
Q 1056 1369 1301 889 
Q 1547 409 2034 409 
Q 2525 409 2770 889 
Q 3016 1369 3016 2328 
Q 3016 3291 2770 3770 
Q 2525 4250 2034 4250 
z
M 2034 4750 
Q 2819 4750 3233 4129 
Q 3647 3509 3647 2328 
Q 3647 1150 3233 529 
Q 2819 -91 2034 -91 
Q 1250 -91 836 529 
Q 422 1150 422 2328 
Q 422 3509 836 4129 
Q 1250 4750 2034 4750 
z
" transform="scale(0.015625)"/>
       </defs>
       <use xlink:href="#DejaVuSans-30"/>
      </g>
     </g>
    </g>
    <g id="xtick_2">
     <g id="line2d_3">
      <path d="M 118.015436 307.584 
L 118.015436 41.472 
" clip-path="url(#pa4a1ff0d0c)" style="fill: none; stroke: #b0b0b0; stroke-width: 0.8; stroke-linecap: square"/>
     </g>
     <g id="line2d_4">
      <g>
       <use xlink:href="#m3c8ba6e5b5" x="118.015436" y="307.584" style="stroke: #000000; stroke-width: 0.8"/>
      </g>
     </g>
     <g id="text_2">
      <!-- 5 -->
      <g transform="translate(114.834186 322.182437) scale(0.1 -0.1)">
       <defs>
        <path id="DejaVuSans-35" d="M 691 4666 
L 3169 4666 
L 3169 4134 
L 1269 4134 
L 1269 2991 
Q 1406 3038 1543 3061 
Q 1681 3084 1819 3084 
Q 2600 3084 3056 2656 
Q 3513 2228 3513 1497 
Q 3513 744 3044 326 
Q 2575 -91 1722 -91 
Q 1428 -91 1123 -41 
Q 819 9 494 109 
L 494 744 
Q 775 591 1075 516 
Q 1375 441 1709 441 
Q 2250 441 2565 725 
Q 2881 1009 2881 1497 
Q 2881 1984 2565 2268 
Q 2250 2553 1709 2553 
Q 1456 2553 1204 2497 
Q 953 2441 691 2322 
L 691 4666 
z
" transform="scale(0.015625)"/>
       </defs>
       <use xlink:href="#DejaVuSans-35"/>
      </g>
     </g>
    </g>
    <g id="xtick_3">
     <g id="line2d_5">
      <path d="M 162.198145 307.584 
L 162.198145 41.472 
" clip-path="url(#pa4a1ff0d0c)" style="fill: none; stroke: #b0b0b0; stroke-width: 0.8; stroke-linecap: square"/>
     </g>
     <g id="line2d_6">
      <g>
       <use xlink:href="#m3c8ba6e5b5" x="162.198145" y="307.584" style="stroke: #000000; stroke-width: 0.8"/>
      </g>
     </g>
     <g id="text_3">
      <!-- 10 -->
      <g transform="translate(155.835645 322.182437) scale(0.1 -0.1)">
       <defs>
        <path id="DejaVuSans-31" d="M 794 531 
L 1825 531 
L 1825 4091 
L 703 3866 
L 703 4441 
L 1819 4666 
L 2450 4666 
L 2450 531 
L 3481 531 
L 3481 0 
L 794 0 
L 794 531 
z
" transform="scale(0.015625)"/>
       </defs>
       <use xlink:href="#DejaVuSans-31"/>
       <use xlink:href="#DejaVuSans-30" x="63.623047"/>
      </g>
     </g>
    </g>
    <g id="xtick_4">
     <g id="line2d_7">
      <path d="M 206.380854 307.584 
L 206.380854 41.472 
" clip-path="url(#pa4a1ff0d0c)" style="fill: none; stroke: #b0b0b0; stroke-width: 0.8; stroke-linecap: square"/>
     </g>
     <g id="line2d_8">
      <g>
       <use xlink:href="#m3c8ba6e5b5" x="206.380854" y="307.584" style="stroke: #000000; stroke-width: 0.8"/>
      </g>
     </g>
     <g id="text_4">
      <!-- 15 -->
      <g transform="translate(200.018354 322.182437) scale(0.1 -0.1)">
       <use xlink:href="#DejaVuSans-31"/>
       <use xlink:href="#DejaVuSans-35" x="63.623047"/>
      </g>
     </g>
    </g>
    <g id="xtick_5">
     <g id="line2d_9">
      <path d="M 250.563563 307.584 
L 250.563563 41.472 
" clip-path="url(#pa4a1ff0d0c)" style="fill: none; stroke: #b0b0b0; stroke-width: 0.8; stroke-linecap: square"/>
     </g>
     <g id="line2d_10">
      <g>
       <use xlink:href="#m3c8ba6e5b5" x="250.563563" y="307.584" style="stroke: #000000; stroke-width: 0.8"/>
      </g>
     </g>
     <g id="text_5">
      <!-- 20 -->
      <g transform="translate(244.201063 322.182437) scale(0.1 -0.1)">
       <defs>
        <path id="DejaVuSans-32" d="M 1228 531 
L 3431 531 
L 3431 0 
L 469 0 
L 469 531 
Q 828 903 1448 1529 
Q 2069 2156 2228 2338 
Q 2531 2678 2651 2914 
Q 2772 3150 2772 3378 
Q 2772 3750 2511 3984 
Q 2250 4219 1831 4219 
Q 1534 4219 1204 4116 
Q 875 4013 500 3803 
L 500 4441 
Q 881 4594 1212 4672 
Q 1544 4750 1819 4750 
Q 2544 4750 2975 4387 
Q 3406 4025 3406 3419 
Q 3406 3131 3298 2873 
Q 3191 2616 2906 2266 
Q 2828 2175 2409 1742 
Q 1991 1309 1228 531 
z
" transform="scale(0.015625)"/>
       </defs>
       <use xlink:href="#DejaVuSans-32"/>
       <use xlink:href="#DejaVuSans-30" x="63.623047"/>
      </g>
     </g>
    </g>
    <g id="xtick_6">
     <g id="line2d_11">
      <path d="M 294.746272 307.584 
L 294.746272 41.472 
" clip-path="url(#pa4a1ff0d0c)" style="fill: none; stroke: #b0b0b0; stroke-width: 0.8; stroke-linecap: square"/>
     </g>
     <g id="line2d_12">
      <g>
       <use xlink:href="#m3c8ba6e5b5" x="294.746272" y="307.584" style="stroke: #000000; stroke-width: 0.8"/>
      </g>
     </g>
     <g id="text_6">
      <!-- 25 -->
      <g transform="translate(288.383772 322.182437) scale(0.1 -0.1)">
       <use xlink:href="#DejaVuSans-32"/>
       <use xlink:href="#DejaVuSans-35" x="63.623047"/>
      </g>
     </g>
    </g>
    <g id="xtick_7">
     <g id="line2d_13">
      <path d="M 338.928981 307.584 
L 338.928981 41.472 
" clip-path="url(#pa4a1ff0d0c)" style="fill: none; stroke: #b0b0b0; stroke-width: 0.8; stroke-linecap: square"/>
     </g>
     <g id="line2d_14">
      <g>
       <use xlink:href="#m3c8ba6e5b5" x="338.928981" y="307.584" style="stroke: #000000; stroke-width: 0.8"/>
      </g>
     </g>
     <g id="text_7">
      <!-- 30 -->
      <g transform="translate(332.566481 322.182437) scale(0.1 -0.1)">
       <defs>
        <path id="DejaVuSans-33" d="M 2597 2516 
Q 3050 2419 3304 2112 
Q 3559 1806 3559 1356 
Q 3559 666 3084 287 
Q 2609 -91 1734 -91 
Q 1441 -91 1130 -33 
Q 819 25 488 141 
L 488 750 
Q 750 597 1062 519 
Q 1375 441 1716 441 
Q 2309 441 2620 675 
Q 2931 909 2931 1356 
Q 2931 1769 2642 2001 
Q 2353 2234 1838 2234 
L 1294 2234 
L 1294 2753 
L 1863 2753 
Q 2328 2753 2575 2939 
Q 2822 3125 2822 3475 
Q 2822 3834 2567 4026 
Q 2313 4219 1838 4219 
Q 1578 4219 1281 4162 
Q 984 4106 628 3988 
L 628 4550 
Q 988 4650 1302 4700 
Q 1616 4750 1894 4750 
Q 2613 4750 3031 4423 
Q 3450 4097 3450 3541 
Q 3450 3153 3228 2886 
Q 3006 2619 2597 2516 
z
" transform="scale(0.015625)"/>
       </defs>
       <use xlink:href="#DejaVuSans-33"/>
       <use xlink:href="#DejaVuSans-30" x="63.623047"/>
      </g>
     </g>
    </g>
    <g id="xtick_8">
     <g id="line2d_15">
      <path d="M 383.11169 307.584 
L 383.11169 41.472 
" clip-path="url(#pa4a1ff0d0c)" style="fill: none; stroke: #b0b0b0; stroke-width: 0.8; stroke-linecap: square"/>
     </g>
     <g id="line2d_16">
      <g>
       <use xlink:href="#m3c8ba6e5b5" x="383.11169" y="307.584" style="stroke: #000000; stroke-width: 0.8"/>
      </g>
     </g>
     <g id="text_8">
      <!-- 35 -->
      <g transform="translate(376.74919 322.182437) scale(0.1 -0.1)">
       <use xlink:href="#DejaVuSans-33"/>
       <use xlink:href="#DejaVuSans-35" x="63.623047"/>
      </g>
     </g>
    </g>
    <g id="text_9">
     <!-- Time(s) -->
     <g transform="translate(217.420156 335.860562) scale(0.1 -0.1)">
      <defs>
       <path id="DejaVuSans-54" d="M -19 4666 
L 3928 4666 
L 3928 4134 
L 2272 4134 
L 2272 0 
L 1638 0 
L 1638 4134 
L -19 4134 
L -19 4666 
z
" transform="scale(0.015625)"/>
       <path id="DejaVuSans-69" d="M 603 3500 
L 1178 3500 
L 1178 0 
L 603 0 
L 603 3500 
z
M 603 4863 
L 1178 4863 
L 1178 4134 
L 603 4134 
L 603 4863 
z
" transform="scale(0.015625)"/>
       <path id="DejaVuSans-6d" d="M 3328 2828 
Q 3544 3216 3844 3400 
Q 4144 3584 4550 3584 
Q 5097 3584 5394 3201 
Q 5691 2819 5691 2113 
L 5691 0 
L 5113 0 
L 5113 2094 
Q 5113 2597 4934 2840 
Q 4756 3084 4391 3084 
Q 3944 3084 3684 2787 
Q 3425 2491 3425 1978 
L 3425 0 
L 2847 0 
L 2847 2094 
Q 2847 2600 2669 2842 
Q 2491 3084 2119 3084 
Q 1678 3084 1418 2786 
Q 1159 2488 1159 1978 
L 1159 0 
L 581 0 
L 581 3500 
L 1159 3500 
L 1159 2956 
Q 1356 3278 1631 3431 
Q 1906 3584 2284 3584 
Q 2666 3584 2933 3390 
Q 3200 3197 3328 2828 
z
" transform="scale(0.015625)"/>
       <path id="DejaVuSans-65" d="M 3597 1894 
L 3597 1613 
L 953 1613 
Q 991 1019 1311 708 
Q 1631 397 2203 397 
Q 2534 397 2845 478 
Q 3156 559 3463 722 
L 3463 178 
Q 3153 47 2828 -22 
Q 2503 -91 2169 -91 
Q 1331 -91 842 396 
Q 353 884 353 1716 
Q 353 2575 817 3079 
Q 1281 3584 2069 3584 
Q 2775 3584 3186 3129 
Q 3597 2675 3597 1894 
z
M 3022 2063 
Q 3016 2534 2758 2815 
Q 2500 3097 2075 3097 
Q 1594 3097 1305 2825 
Q 1016 2553 972 2059 
L 3022 2063 
z
" transform="scale(0.015625)"/>
       <path id="DejaVuSans-28" d="M 1984 4856 
Q 1566 4138 1362 3434 
Q 1159 2731 1159 2009 
Q 1159 1288 1364 580 
Q 1569 -128 1984 -844 
L 1484 -844 
Q 1016 -109 783 600 
Q 550 1309 550 2009 
Q 550 2706 781 3412 
Q 1013 4119 1484 4856 
L 1984 4856 
z
" transform="scale(0.015625)"/>
       <path id="DejaVuSans-73" d="M 2834 3397 
L 2834 2853 
Q 2591 2978 2328 3040 
Q 2066 3103 1784 3103 
Q 1356 3103 1142 2972 
Q 928 2841 928 2578 
Q 928 2378 1081 2264 
Q 1234 2150 1697 2047 
L 1894 2003 
Q 2506 1872 2764 1633 
Q 3022 1394 3022 966 
Q 3022 478 2636 193 
Q 2250 -91 1575 -91 
Q 1294 -91 989 -36 
Q 684 19 347 128 
L 347 722 
Q 666 556 975 473 
Q 1284 391 1588 391 
Q 1994 391 2212 530 
Q 2431 669 2431 922 
Q 2431 1156 2273 1281 
Q 2116 1406 1581 1522 
L 1381 1569 
Q 847 1681 609 1914 
Q 372 2147 372 2553 
Q 372 3047 722 3315 
Q 1072 3584 1716 3584 
Q 2034 3584 2315 3537 
Q 2597 3491 2834 3397 
z
" transform="scale(0.015625)"/>
       <path id="DejaVuSans-29" d="M 513 4856 
L 1013 4856 
Q 1481 4119 1714 3412 
Q 1947 2706 1947 2009 
Q 1947 1309 1714 600 
Q 1481 -109 1013 -844 
L 513 -844 
Q 928 -128 1133 580 
Q 1338 1288 1338 2009 
Q 1338 2731 1133 3434 
Q 928 4138 513 4856 
z
" transform="scale(0.015625)"/>
      </defs>
      <use xlink:href="#DejaVuSans-54"/>
      <use xlink:href="#DejaVuSans-69" x="57.958984"/>
      <use xlink:href="#DejaVuSans-6d" x="85.742188"/>
      <use xlink:href="#DejaVuSans-65" x="183.154297"/>
      <use xlink:href="#DejaVuSans-28" x="244.677734"/>
      <use xlink:href="#DejaVuSans-73" x="283.691406"/>
      <use xlink:href="#DejaVuSans-29" x="335.791016"/>
     </g>
    </g>
   </g>
   <g id="matplotlib.axis_2">
    <g id="ytick_1">
     <g id="line2d_17">
      <path d="M 57.6 295.488 
L 414.72 295.488 
" clip-path="url(#pa4a1ff0d0c)" style="fill: none; stroke: #b0b0b0; stroke-width: 0.8; stroke-linecap: square"/>
     </g>
     <g id="line2d_18">
      <defs>
       <path id="m29ede08fee" d="M 0 0 
L -3.5 0 
" style="stroke: #000000; stroke-width: 0.8"/>
      </defs>
      <g>
       <use xlink:href="#m29ede08fee" x="57.6" y="295.488" style="stroke: #000000; stroke-width: 0.8"/>
      </g>
     </g>
     <g id="text_10">
      <!-- 0.000 -->
      <g transform="translate(21.971875 299.287219) scale(0.1 -0.1)">
       <defs>
        <path id="DejaVuSans-2e" d="M 684 794 
L 1344 794 
L 1344 0 
L 684 0 
L 684 794 
z
" transform="scale(0.015625)"/>
       </defs>
       <use xlink:href="#DejaVuSans-30"/>
       <use xlink:href="#DejaVuSans-2e" x="63.623047"/>
       <use xlink:href="#DejaVuSans-30" x="95.410156"/>
       <use xlink:href="#DejaVuSans-30" x="159.033203"/>
       <use xlink:href="#DejaVuSans-30" x="222.65625"/>
      </g>
     </g>
    </g>
    <g id="ytick_2">
     <g id="line2d_19">
      <path d="M 57.6 263.35812 
L 414.72 263.35812 
" clip-path="url(#pa4a1ff0d0c)" style="fill: none; stroke: #b0b0b0; stroke-width: 0.8; stroke-linecap: square"/>
     </g>
     <g id="line2d_20">
      <g>
       <use xlink:href="#m29ede08fee" x="57.6" y="263.35812" style="stroke: #000000; stroke-width: 0.8"/>
      </g>
     </g>
     <g id="text_11">
      <!-- 0.025 -->
      <g transform="translate(21.971875 267.157339) scale(0.1 -0.1)">
       <use xlink:href="#DejaVuSans-30"/>
       <use xlink:href="#DejaVuSans-2e" x="63.623047"/>
       <use xlink:href="#DejaVuSans-30" x="95.410156"/>
       <use xlink:href="#DejaVuSans-32" x="159.033203"/>
       <use xlink:href="#DejaVuSans-35" x="222.65625"/>
      </g>
     </g>
    </g>
    <g id="ytick_3">
     <g id="line2d_21">
      <path d="M 57.6 231.228241 
L 414.72 231.228241 
" clip-path="url(#pa4a1ff0d0c)" style="fill: none; stroke: #b0b0b0; stroke-width: 0.8; stroke-linecap: square"/>
     </g>
     <g id="line2d_22">
      <g>
       <use xlink:href="#m29ede08fee" x="57.6" y="231.228241" style="stroke: #000000; stroke-width: 0.8"/>
      </g>
     </g>
     <g id="text_12">
      <!-- 0.050 -->
      <g transform="translate(21.971875 235.02746) scale(0.1 -0.1)">
       <use xlink:href="#DejaVuSans-30"/>
       <use xlink:href="#DejaVuSans-2e" x="63.623047"/>
       <use xlink:href="#DejaVuSans-30" x="95.410156"/>
       <use xlink:href="#DejaVuSans-35" x="159.033203"/>
       <use xlink:href="#DejaVuSans-30" x="222.65625"/>
      </g>
     </g>
    </g>
    <g id="ytick_4">
     <g id="line2d_23">
      <path d="M 57.6 199.098361 
L 414.72 199.098361 
" clip-path="url(#pa4a1ff0d0c)" style="fill: none; stroke: #b0b0b0; stroke-width: 0.8; stroke-linecap: square"/>
     </g>
     <g id="line2d_24">
      <g>
       <use xlink:href="#m29ede08fee" x="57.6" y="199.098361" style="stroke: #000000; stroke-width: 0.8"/>
      </g>
     </g>
     <g id="text_13">
      <!-- 0.075 -->
      <g transform="translate(21.971875 202.89758) scale(0.1 -0.1)">
       <defs>
        <path id="DejaVuSans-37" d="M 525 4666 
L 3525 4666 
L 3525 4397 
L 1831 0 
L 1172 0 
L 2766 4134 
L 525 4134 
L 525 4666 
z
" transform="scale(0.015625)"/>
       </defs>
       <use xlink:href="#DejaVuSans-30"/>
       <use xlink:href="#DejaVuSans-2e" x="63.623047"/>
       <use xlink:href="#DejaVuSans-30" x="95.410156"/>
       <use xlink:href="#DejaVuSans-37" x="159.033203"/>
       <use xlink:href="#DejaVuSans-35" x="222.65625"/>
      </g>
     </g>
    </g>
    <g id="ytick_5">
     <g id="line2d_25">
      <path d="M 57.6 166.968482 
L 414.72 166.968482 
" clip-path="url(#pa4a1ff0d0c)" style="fill: none; stroke: #b0b0b0; stroke-width: 0.8; stroke-linecap: square"/>
     </g>
     <g id="line2d_26">
      <g>
       <use xlink:href="#m29ede08fee" x="57.6" y="166.968482" style="stroke: #000000; stroke-width: 0.8"/>
      </g>
     </g>
     <g id="text_14">
      <!-- 0.100 -->
      <g transform="translate(21.971875 170.767701) scale(0.1 -0.1)">
       <use xlink:href="#DejaVuSans-30"/>
       <use xlink:href="#DejaVuSans-2e" x="63.623047"/>
       <use xlink:href="#DejaVuSans-31" x="95.410156"/>
       <use xlink:href="#DejaVuSans-30" x="159.033203"/>
       <use xlink:href="#DejaVuSans-30" x="222.65625"/>
      </g>
     </g>
    </g>
    <g id="ytick_6">
     <g id="line2d_27">
      <path d="M 57.6 134.838602 
L 414.72 134.838602 
" clip-path="url(#pa4a1ff0d0c)" style="fill: none; stroke: #b0b0b0; stroke-width: 0.8; stroke-linecap: square"/>
     </g>
     <g id="line2d_28">
      <g>
       <use xlink:href="#m29ede08fee" x="57.6" y="134.838602" style="stroke: #000000; stroke-width: 0.8"/>
      </g>
     </g>
     <g id="text_15">
      <!-- 0.125 -->
      <g transform="translate(21.971875 138.637821) scale(0.1 -0.1)">
       <use xlink:href="#DejaVuSans-30"/>
       <use xlink:href="#DejaVuSans-2e" x="63.623047"/>
       <use xlink:href="#DejaVuSans-31" x="95.410156"/>
       <use xlink:href="#DejaVuSans-32" x="159.033203"/>
       <use xlink:href="#DejaVuSans-35" x="222.65625"/>
      </g>
     </g>
    </g>
    <g id="ytick_7">
     <g id="line2d_29">
      <path d="M 57.6 102.708723 
L 414.72 102.708723 
" clip-path="url(#pa4a1ff0d0c)" style="fill: none; stroke: #b0b0b0; stroke-width: 0.8; stroke-linecap: square"/>
     </g>
     <g id="line2d_30">
      <g>
       <use xlink:href="#m29ede08fee" x="57.6" y="102.708723" style="stroke: #000000; stroke-width: 0.8"/>
      </g>
     </g>
     <g id="text_16">
      <!-- 0.150 -->
      <g transform="translate(21.971875 106.507942) scale(0.1 -0.1)">
       <use xlink:href="#DejaVuSans-30"/>
       <use xlink:href="#DejaVuSans-2e" x="63.623047"/>
       <use xlink:href="#DejaVuSans-31" x="95.410156"/>
       <use xlink:href="#DejaVuSans-35" x="159.033203"/>
       <use xlink:href="#DejaVuSans-30" x="222.65625"/>
      </g>
     </g>
    </g>
    <g id="ytick_8">
     <g id="line2d_31">
      <path d="M 57.6 70.578843 
L 414.72 70.578843 
" clip-path="url(#pa4a1ff0d0c)" style="fill: none; stroke: #b0b0b0; stroke-width: 0.8; stroke-linecap: square"/>
     </g>
     <g id="line2d_32">
      <g>
       <use xlink:href="#m29ede08fee" x="57.6" y="70.578843" style="stroke: #000000; stroke-width: 0.8"/>
      </g>
     </g>
     <g id="text_17">
      <!-- 0.175 -->
      <g transform="translate(21.971875 74.378062) scale(0.1 -0.1)">
       <use xlink:href="#DejaVuSans-30"/>
       <use xlink:href="#DejaVuSans-2e" x="63.623047"/>
       <use xlink:href="#DejaVuSans-31" x="95.410156"/>
       <use xlink:href="#DejaVuSans-37" x="159.033203"/>
       <use xlink:href="#DejaVuSans-35" x="222.65625"/>
      </g>
     </g>
    </g>
    <g id="text_18">
     <!-- Tracking error(m) -->
     <g transform="translate(15.892187 217.803781) rotate(-90) scale(0.1 -0.1)">
      <defs>
       <path id="DejaVuSans-72" d="M 2631 2963 
Q 2534 3019 2420 3045 
Q 2306 3072 2169 3072 
Q 1681 3072 1420 2755 
Q 1159 2438 1159 1844 
L 1159 0 
L 581 0 
L 581 3500 
L 1159 3500 
L 1159 2956 
Q 1341 3275 1631 3429 
Q 1922 3584 2338 3584 
Q 2397 3584 2469 3576 
Q 2541 3569 2628 3553 
L 2631 2963 
z
" transform="scale(0.015625)"/>
       <path id="DejaVuSans-61" d="M 2194 1759 
Q 1497 1759 1228 1600 
Q 959 1441 959 1056 
Q 959 750 1161 570 
Q 1363 391 1709 391 
Q 2188 391 2477 730 
Q 2766 1069 2766 1631 
L 2766 1759 
L 2194 1759 
z
M 3341 1997 
L 3341 0 
L 2766 0 
L 2766 531 
Q 2569 213 2275 61 
Q 1981 -91 1556 -91 
Q 1019 -91 701 211 
Q 384 513 384 1019 
Q 384 1609 779 1909 
Q 1175 2209 1959 2209 
L 2766 2209 
L 2766 2266 
Q 2766 2663 2505 2880 
Q 2244 3097 1772 3097 
Q 1472 3097 1187 3025 
Q 903 2953 641 2809 
L 641 3341 
Q 956 3463 1253 3523 
Q 1550 3584 1831 3584 
Q 2591 3584 2966 3190 
Q 3341 2797 3341 1997 
z
" transform="scale(0.015625)"/>
       <path id="DejaVuSans-63" d="M 3122 3366 
L 3122 2828 
Q 2878 2963 2633 3030 
Q 2388 3097 2138 3097 
Q 1578 3097 1268 2742 
Q 959 2388 959 1747 
Q 959 1106 1268 751 
Q 1578 397 2138 397 
Q 2388 397 2633 464 
Q 2878 531 3122 666 
L 3122 134 
Q 2881 22 2623 -34 
Q 2366 -91 2075 -91 
Q 1284 -91 818 406 
Q 353 903 353 1747 
Q 353 2603 823 3093 
Q 1294 3584 2113 3584 
Q 2378 3584 2631 3529 
Q 2884 3475 3122 3366 
z
" transform="scale(0.015625)"/>
       <path id="DejaVuSans-6b" d="M 581 4863 
L 1159 4863 
L 1159 1991 
L 2875 3500 
L 3609 3500 
L 1753 1863 
L 3688 0 
L 2938 0 
L 1159 1709 
L 1159 0 
L 581 0 
L 581 4863 
z
" transform="scale(0.015625)"/>
       <path id="DejaVuSans-6e" d="M 3513 2113 
L 3513 0 
L 2938 0 
L 2938 2094 
Q 2938 2591 2744 2837 
Q 2550 3084 2163 3084 
Q 1697 3084 1428 2787 
Q 1159 2491 1159 1978 
L 1159 0 
L 581 0 
L 581 3500 
L 1159 3500 
L 1159 2956 
Q 1366 3272 1645 3428 
Q 1925 3584 2291 3584 
Q 2894 3584 3203 3211 
Q 3513 2838 3513 2113 
z
" transform="scale(0.015625)"/>
       <path id="DejaVuSans-67" d="M 2906 1791 
Q 2906 2416 2648 2759 
Q 2391 3103 1925 3103 
Q 1463 3103 1205 2759 
Q 947 2416 947 1791 
Q 947 1169 1205 825 
Q 1463 481 1925 481 
Q 2391 481 2648 825 
Q 2906 1169 2906 1791 
z
M 3481 434 
Q 3481 -459 3084 -895 
Q 2688 -1331 1869 -1331 
Q 1566 -1331 1297 -1286 
Q 1028 -1241 775 -1147 
L 775 -588 
Q 1028 -725 1275 -790 
Q 1522 -856 1778 -856 
Q 2344 -856 2625 -561 
Q 2906 -266 2906 331 
L 2906 616 
Q 2728 306 2450 153 
Q 2172 0 1784 0 
Q 1141 0 747 490 
Q 353 981 353 1791 
Q 353 2603 747 3093 
Q 1141 3584 1784 3584 
Q 2172 3584 2450 3431 
Q 2728 3278 2906 2969 
L 2906 3500 
L 3481 3500 
L 3481 434 
z
" transform="scale(0.015625)"/>
       <path id="DejaVuSans-20" transform="scale(0.015625)"/>
       <path id="DejaVuSans-6f" d="M 1959 3097 
Q 1497 3097 1228 2736 
Q 959 2375 959 1747 
Q 959 1119 1226 758 
Q 1494 397 1959 397 
Q 2419 397 2687 759 
Q 2956 1122 2956 1747 
Q 2956 2369 2687 2733 
Q 2419 3097 1959 3097 
z
M 1959 3584 
Q 2709 3584 3137 3096 
Q 3566 2609 3566 1747 
Q 3566 888 3137 398 
Q 2709 -91 1959 -91 
Q 1206 -91 779 398 
Q 353 888 353 1747 
Q 353 2609 779 3096 
Q 1206 3584 1959 3584 
z
" transform="scale(0.015625)"/>
      </defs>
      <use xlink:href="#DejaVuSans-54"/>
      <use xlink:href="#DejaVuSans-72" x="46.333984"/>
      <use xlink:href="#DejaVuSans-61" x="87.447266"/>
      <use xlink:href="#DejaVuSans-63" x="148.726562"/>
      <use xlink:href="#DejaVuSans-6b" x="203.707031"/>
      <use xlink:href="#DejaVuSans-69" x="261.617188"/>
      <use xlink:href="#DejaVuSans-6e" x="289.400391"/>
      <use xlink:href="#DejaVuSans-67" x="352.779297"/>
      <use xlink:href="#DejaVuSans-20" x="416.255859"/>
      <use xlink:href="#DejaVuSans-65" x="448.042969"/>
      <use xlink:href="#DejaVuSans-72" x="509.566406"/>
      <use xlink:href="#DejaVuSans-72" x="548.929688"/>
      <use xlink:href="#DejaVuSans-6f" x="587.792969"/>
      <use xlink:href="#DejaVuSans-72" x="648.974609"/>
      <use xlink:href="#DejaVuSans-28" x="690.087891"/>
      <use xlink:href="#DejaVuSans-6d" x="729.101562"/>
      <use xlink:href="#DejaVuSans-29" x="826.513672"/>
     </g>
    </g>
   </g>
   <g id="line2d_33">
    <path d="M 73.832727 251.108925 
L 74.009458 251.778512 
L 74.009458 251.778512 
L 74.186189 260.94838 
L 74.186189 260.94838 
L 74.539651 268.085068 
L 74.539651 268.085068 
L 75.246574 282.307038 
L 75.246574 282.307038 
L 75.600036 286.981293 
L 75.600036 286.981293 
L 75.776766 295.488 
L 75.776766 295.488 
L 75.953497 290.626107 
L 75.953497 290.626107 
L 76.48369 295.003481 
L 76.48369 295.003481 
L 76.660421 295.488 
L 76.660421 295.488 
L 77.013882 292.543618 
L 77.013882 292.543618 
L 77.367344 291.33682 
L 77.367344 291.33682 
L 77.544075 295.488 
L 77.544075 295.488 
L 77.720806 290.912705 
L 77.720806 290.912705 
L 77.897536 291.056647 
L 77.897536 291.056647 
L 78.250998 292.16063 
L 78.250998 292.16063 
L 78.427729 295.488 
L 78.60446 293.584626 
L 78.60446 293.584626 
L 78.957922 294.718168 
L 78.957922 294.718168 
L 79.134652 294.927655 
L 79.311383 295.488 
L 79.311383 295.488 
L 79.664845 294.351887 
L 79.664845 294.351887 
L 80.018307 293.597478 
L 80.018307 293.597478 
L 80.195037 295.488 
L 80.195037 295.488 
L 80.371768 293.157941 
L 80.371768 293.157941 
L 80.548499 293.322446 
L 80.548499 293.322446 
L 80.901961 294.117982 
L 80.901961 294.117982 
L 81.078692 295.488 
L 81.078692 295.488 
L 81.255422 295.194975 
L 81.255422 295.194975 
L 81.432153 295.259235 
L 81.432153 295.259235 
L 81.785615 294.750298 
L 81.785615 294.750298 
L 81.962346 295.488 
L 81.962346 295.488 
L 82.139077 295.318354 
L 82.139077 295.318354 
L 82.492538 292.988295 
L 82.492538 292.988295 
L 82.669269 291.483332 
L 82.669269 291.483332 
L 82.846 295.488 
L 82.846 295.488 
L 83.022731 288.042864 
L 83.022731 288.042864 
L 83.552923 283.287642 
L 83.552923 283.287642 
L 83.906385 281.623314 
L 83.906385 281.623314 
L 84.083116 281.404831 
L 84.083116 281.404831 
L 84.259847 281.692715 
L 84.259847 281.692715 
L 84.436577 282.445839 
L 84.436577 282.445839 
L 84.613308 295.488 
L 84.613308 295.488 
L 84.790039 284.635812 
L 84.790039 284.635812 
L 85.320232 288.27934 
L 85.320232 288.27934 
L 85.496962 295.488 
L 85.496962 295.488 
L 85.673693 289.798441 
L 85.673693 289.798441 
L 86.027155 290.627392 
L 86.027155 290.627392 
L 86.203886 290.869009 
L 86.380617 295.488 
L 86.380617 295.488 
L 86.557347 291.246856 
L 86.557347 291.246856 
L 86.910809 291.885598 
L 86.910809 291.885598 
L 87.08754 292.417669 
L 87.08754 292.417669 
L 87.264271 295.488 
L 87.264271 295.488 
L 87.441002 293.533218 
L 87.441002 293.533218 
L 87.794463 294.660334 
L 87.794463 294.660334 
L 88.147925 295.488 
L 88.147925 295.488 
L 88.501387 293.681016 
L 88.501387 293.681016 
L 88.854848 293.420121 
L 88.854848 293.420121 
L 89.031579 295.488 
L 89.031579 295.488 
L 89.20831 293.205493 
L 89.20831 293.205493 
L 89.385041 293.361002 
L 89.385041 293.361002 
L 89.738502 294.093563 
L 89.738502 294.093563 
L 89.915233 295.488 
L 89.915233 295.488 
L 90.091964 294.408436 
L 90.091964 294.408436 
L 90.268695 294.570371 
L 90.268695 294.570371 
L 90.622157 295.430166 
L 90.622157 295.430166 
L 90.798888 295.488 
L 90.798888 295.488 
L 91.505811 290.318945 
L 91.505811 290.318945 
L 91.682542 295.488 
L 91.682542 295.488 
L 91.859273 285.882451 
L 91.859273 285.882451 
L 93.096388 269.392112 
L 93.096388 269.392112 
L 93.626581 265.639342 
L 93.626581 265.639342 
L 93.803312 265.62906 
L 93.803312 265.62906 
L 93.980043 265.49797 
L 93.980043 265.49797 
L 94.333504 265.652194 
L 94.333504 265.652194 
L 94.686966 267.834455 
L 94.686966 267.834455 
L 94.863697 268.379378 
L 94.863697 268.379378 
L 95.040428 269.957598 
L 95.040428 269.957598 
L 95.217158 270.470391 
L 95.217158 270.470391 
L 95.393889 270.516658 
L 95.393889 270.516658 
L 95.57062 271.079573 
L 95.57062 271.079573 
L 95.747351 270.321308 
L 95.747351 270.321308 
L 96.100813 267.234269 
L 96.100813 267.234269 
L 96.454274 260.697766 
L 96.454274 260.697766 
L 96.984467 245.221446 
L 96.984467 245.221446 
L 97.69139 222.72796 
L 97.69139 222.72796 
L 97.868121 221.578996 
L 97.868121 221.578996 
L 98.044852 218.069128 
L 98.044852 218.069128 
L 98.221583 218.914786 
L 98.398313 218.001012 
L 98.398313 218.001012 
L 98.575044 216.015386 
L 98.575044 216.015386 
L 98.751775 221.31039 
L 98.751775 221.31039 
L 98.928506 221.121466 
L 98.928506 221.121466 
L 99.105237 226.97553 
L 99.105237 226.97553 
L 99.281968 227.726084 
L 99.281968 227.726084 
L 99.458698 233.147037 
L 99.458698 233.147037 
L 99.635429 234.517055 
L 99.635429 234.517055 
L 99.81216 239.161751 
L 99.81216 239.161751 
L 99.988891 240.363408 
L 99.988891 240.363408 
L 100.165622 239.02295 
L 100.165622 239.02295 
L 100.342353 245.319121 
L 100.342353 245.319121 
L 100.519083 244.084048 
L 100.519083 244.084048 
L 100.695814 249.664366 
L 100.695814 249.664366 
L 100.872545 249.175992 
L 100.872545 249.175992 
L 101.049276 254.338621 
L 101.049276 254.338621 
L 101.226007 254.851414 
L 101.226007 254.851414 
L 101.402738 259.528239 
L 101.402738 259.528239 
L 101.579469 260.52041 
L 101.579469 260.52041 
L 101.756199 264.154941 
L 101.756199 264.154941 
L 101.93293 264.960759 
L 102.109661 263.948025 
L 102.109661 263.948025 
L 102.286392 265.855255 
L 102.286392 265.855255 
L 102.463123 261.38149 
L 102.463123 261.38149 
L 102.639854 260.835282 
L 102.639854 260.835282 
L 102.816584 253.316891 
L 102.816584 253.316891 
L 102.993315 252.683289 
L 102.993315 252.683289 
L 103.170046 245.472059 
L 103.170046 245.472059 
L 103.346777 246.088953 
L 103.346777 246.088953 
L 103.523508 241.586914 
L 103.523508 241.586914 
L 103.700239 243.729334 
L 103.700239 243.729334 
L 103.876969 242.496832 
L 103.876969 242.496832 
L 104.0537 238.99339 
L 104.0537 238.99339 
L 104.230431 247.244343 
L 104.230431 247.244343 
L 104.407162 246.415392 
L 104.407162 246.415392 
L 104.583893 255.176568 
L 104.583893 255.176568 
L 104.760624 256.813907 
L 104.760624 256.813907 
L 105.467547 295.488 
L 105.467547 295.488 
L 105.644278 289.743178 
L 105.644278 289.743178 
L 105.821009 288.468264 
L 105.821009 288.468264 
L 105.997739 281.079677 
L 105.997739 281.079677 
L 107.234855 198.600991 
L 107.234855 198.600991 
L 107.941779 159.013124 
L 107.941779 159.013124 
L 108.29524 144.941522 
L 108.29524 144.941522 
L 108.471971 148.405123 
L 108.471971 148.405123 
L 108.648702 148.056835 
L 108.648702 148.056835 
L 109.178894 169.428346 
L 109.178894 169.428346 
L 110.062549 241.982754 
L 110.062549 241.982754 
L 110.769472 277.892393 
L 110.769472 277.892393 
L 111.122934 290.793182 
L 111.122934 290.793182 
L 111.299664 294.07557 
L 111.299664 294.07557 
L 112.006588 283.402025 
L 112.006588 283.402025 
L 112.183319 283.587093 
L 112.183319 283.587093 
L 112.360049 279.023365 
L 112.360049 279.023365 
L 112.53678 278.559409 
L 112.53678 278.559409 
L 112.713511 279.380649 
L 112.713511 279.380649 
L 112.890242 274.536748 
L 112.890242 274.536748 
L 113.066973 274.053515 
L 113.066973 274.053515 
L 113.243704 274.198742 
L 113.243704 274.198742 
L 113.420435 267.879437 
L 113.420435 267.879437 
L 113.597165 266.51713 
L 113.597165 266.51713 
L 113.950627 258.183925 
L 113.950627 258.183925 
L 114.127358 255.375773 
L 114.127358 255.375773 
L 114.48082 243.210116 
L 114.48082 243.210116 
L 114.65755 238.299385 
L 114.65755 238.299385 
L 116.424859 152.461199 
L 116.424859 152.461199 
L 116.955051 133.998085 
L 116.955051 133.998085 
L 117.308513 126.952645 
L 117.308513 126.952645 
L 117.485244 126.668617 
L 117.485244 126.668617 
L 117.838705 124.183049 
L 117.838705 124.183049 
L 118.015436 127.830433 
L 118.015436 127.830433 
L 118.192167 128.811037 
L 118.192167 128.811037 
L 118.368898 128.501305 
L 118.368898 128.501305 
L 118.545629 135.139338 
L 118.545629 135.139338 
L 118.72236 136.439956 
L 118.72236 136.439956 
L 119.075821 146.305114 
L 119.075821 146.305114 
L 119.252552 149.24564 
L 119.252552 149.24564 
L 120.666399 246.573471 
L 120.666399 246.573471 
L 121.196591 290.207133 
L 121.196591 290.207133 
L 121.373322 289.86013 
L 121.373322 289.86013 
L 121.726784 266.742039 
L 121.726784 266.742039 
L 121.903515 261.444465 
L 121.903515 261.444465 
L 122.080245 250.18487 
L 122.080245 250.18487 
L 122.256976 247.110683 
L 122.256976 247.110683 
L 122.433707 239.921301 
L 122.433707 239.921301 
L 122.610438 239.120625 
L 122.610438 239.120625 
L 122.787169 235.412836 
L 122.787169 235.412836 
L 122.9639 235.925629 
L 122.9639 235.925629 
L 123.14063 238.656669 
L 123.14063 238.656669 
L 123.317361 235.123668 
L 123.494092 237.703054 
L 123.494092 237.703054 
L 123.670823 235.606901 
L 123.670823 235.606901 
L 123.847554 237.737755 
L 123.847554 237.737755 
L 124.024285 241.557355 
L 124.024285 241.557355 
L 124.201015 237.746751 
L 124.201015 237.746751 
L 124.377746 240.484217 
L 124.377746 240.484217 
L 124.554477 237.593813 
L 124.554477 237.593813 
L 124.731208 239.52032 
L 124.731208 239.52032 
L 124.907939 237.787877 
L 124.907939 237.787877 
L 125.08467 239.583295 
L 125.08467 239.583295 
L 125.261401 243.449162 
L 125.261401 243.449162 
L 125.438131 241.966047 
L 125.438131 241.966047 
L 125.614862 246.194339 
L 125.614862 246.194339 
L 125.791593 246.992445 
L 125.791593 246.992445 
L 126.498516 266.305073 
L 126.498516 266.305073 
L 126.675247 267.794614 
L 126.675247 267.794614 
L 127.028709 280.096503 
L 127.028709 280.096503 
L 127.20544 279.527161 
L 127.20544 279.527161 
L 127.382171 284.811884 
L 127.382171 284.811884 
L 127.558901 284.538137 
L 127.558901 284.538137 
L 127.912363 292.711978 
L 127.912363 292.711978 
L 128.089094 290.171148 
L 128.089094 290.171148 
L 128.265825 293.31345 
L 128.265825 293.31345 
L 128.442556 291.935721 
L 128.442556 291.935721 
L 128.619286 294.445707 
L 128.619286 294.445707 
L 128.796017 292.913754 
L 128.796017 292.913754 
L 128.972748 295.19112 
L 128.972748 295.19112 
L 129.149479 293.890502 
L 129.149479 293.890502 
L 129.502941 295.215539 
L 129.502941 295.215539 
L 129.856402 292.809653 
L 129.856402 292.809653 
L 130.033133 293.190071 
L 130.033133 293.190071 
L 130.209864 289.82543 
L 130.209864 289.82543 
L 130.386595 295.488 
L 130.386595 295.488 
L 130.740056 285.849036 
L 130.740056 285.849036 
L 130.916787 285.90687 
L 130.916787 285.90687 
L 131.093518 282.558936 
L 131.093518 282.558936 
L 131.270249 281.681148 
L 131.270249 281.681148 
L 131.44698 282.343024 
L 131.44698 282.343024 
L 131.623711 278.749618 
L 131.623711 278.749618 
L 131.800441 278.933401 
L 131.800441 278.933401 
L 131.977172 280.393383 
L 131.977172 280.393383 
L 132.153903 276.722865 
L 132.153903 276.722865 
L 132.330634 277.862833 
L 132.330634 277.862833 
L 132.507365 275.9299 
L 132.507365 275.9299 
L 132.684096 276.643183 
L 132.684096 276.643183 
L 132.860826 278.245821 
L 132.860826 278.245821 
L 133.037557 275.611171 
L 133.037557 275.611171 
L 133.214288 276.244773 
L 133.214288 276.244773 
L 133.391019 277.681621 
L 133.391019 277.681621 
L 133.56775 274.300272 
L 133.744481 274.78222 
L 133.744481 274.78222 
L 133.921211 275.90034 
L 133.921211 275.90034 
L 134.097942 271.790286 
L 134.097942 271.790286 
L 134.274673 271.773579 
L 134.274673 271.773579 
L 134.628135 267.145591 
L 134.628135 267.145591 
L 134.804866 266.442589 
L 134.804866 266.442589 
L 135.158327 260.208107 
L 135.158327 260.208107 
L 135.335058 258.847085 
L 135.335058 258.847085 
L 135.68852 252.093385 
L 135.68852 252.093385 
L 135.865251 250.815901 
L 135.865251 250.815901 
L 136.218712 244.374502 
L 136.218712 244.374502 
L 136.395443 242.908095 
L 136.395443 242.908095 
L 136.748905 236.092705 
L 136.748905 236.092705 
L 136.925636 234.193186 
L 136.925636 234.193186 
L 137.279097 226.48073 
L 137.279097 226.48073 
L 137.455828 223.938614 
L 137.455828 223.938614 
L 137.986021 212.335872 
L 137.986021 212.335872 
L 138.162752 209.26297 
L 138.162752 209.26297 
L 138.516213 198.868312 
L 138.516213 198.868312 
L 138.692944 194.957463 
L 138.692944 194.957463 
L 139.223137 179.00305 
L 139.223137 179.00305 
L 139.93006 160.237915 
L 139.93006 160.237915 
L 140.460252 147.398815 
L 140.460252 147.398815 
L 141.343907 133.963385 
L 141.343907 133.963385 
L 141.520637 133.169134 
L 141.520637 133.169134 
L 141.697368 131.584488 
L 141.697368 131.584488 
L 141.874099 131.679593 
L 141.874099 131.679593 
L 142.05083 132.314479 
L 142.05083 132.314479 
L 142.581022 135.859047 
L 142.581022 135.859047 
L 143.287946 145.516004 
L 143.287946 145.516004 
L 144.348331 165.518782 
L 144.348331 165.518782 
L 145.408716 191.51314 
L 145.408716 191.51314 
L 146.822562 236.605498 
L 146.822562 236.605498 
L 147.882947 271.053869 
L 147.882947 271.053869 
L 148.41314 282.583355 
L 148.41314 282.583355 
L 148.943333 289.879408 
L 148.943333 289.879408 
L 149.120063 291.452487 
L 149.120063 291.452487 
L 149.473525 292.663141 
L 149.473525 292.663141 
L 150.003718 294.078141 
L 150.003718 294.078141 
L 150.357179 293.165652 
L 150.357179 293.165652 
L 150.710641 292.357265 
L 150.710641 292.357265 
L 150.887372 291.780212 
L 150.887372 291.780212 
L 151.240833 289.425734 
L 151.240833 289.425734 
L 151.417564 295.488 
L 151.417564 295.488 
L 151.594295 287.229336 
L 151.594295 287.229336 
L 152.477949 282.845535 
L 152.477949 282.845535 
L 152.65468 282.445839 
L 152.65468 282.445839 
L 152.831411 282.84425 
L 152.831411 282.84425 
L 153.184873 285.020085 
L 153.184873 285.020085 
L 153.361603 295.488 
L 153.361603 295.488 
L 153.538334 289.795871 
L 153.538334 289.795871 
L 153.891796 295.488 
L 153.891796 295.488 
L 154.598719 269.225036 
L 154.598719 269.225036 
L 155.482373 242.331042 
L 155.482373 242.331042 
L 155.659104 241.673022 
L 155.659104 241.673022 
L 155.835835 238.593695 
L 155.835835 238.593695 
L 156.012566 239.457346 
L 156.012566 239.457346 
L 156.189297 237.836715 
L 156.189297 237.836715 
L 156.366028 239.583295 
L 156.366028 239.583295 
L 156.542758 239.128336 
L 156.542758 239.128336 
L 156.719489 241.368431 
L 156.719489 241.368431 
L 156.89622 241.509802 
L 156.89622 241.509802 
L 157.072951 243.445306 
L 157.072951 243.445306 
L 157.249682 243.400325 
L 157.249682 243.400325 
L 157.426413 241.509802 
L 157.426413 241.509802 
L 157.603143 245.188031 
L 157.603143 245.188031 
L 157.779874 242.989062 
L 157.779874 242.989062 
L 157.956605 245.127627 
L 157.956605 245.127627 
L 158.133336 241.228345 
L 158.133336 241.228345 
L 158.310067 242.090711 
L 158.310067 242.090711 
L 158.486798 236.939648 
L 158.486798 236.939648 
L 158.663528 236.532241 
L 158.840259 229.855653 
L 158.840259 229.855653 
L 159.01699 228.098791 
L 159.01699 228.098791 
L 159.193721 219.527824 
L 159.193721 219.527824 
L 159.370452 216.758228 
L 159.370452 216.758228 
L 159.723913 202.968084 
L 159.723913 202.968084 
L 160.077375 186.455896 
L 160.077375 186.455896 
L 160.607568 160.27133 
L 160.607568 160.27133 
L 161.13776 129.48705 
L 161.13776 129.48705 
L 161.314491 124.071237 
L 161.491222 111.802764 
L 161.491222 111.802764 
L 161.667953 108.309604 
L 161.667953 108.309604 
L 161.844684 96.742847 
L 161.844684 96.742847 
L 162.021414 94.689105 
L 162.021414 94.689105 
L 162.198145 83.658275 
L 162.198145 83.658275 
L 162.374876 82.783057 
L 162.374876 82.783057 
L 162.551607 72.483503 
L 162.551607 72.483503 
L 162.728338 73.344583 
L 162.728338 73.344583 
L 162.905069 64.724779 
L 162.905069 64.724779 
L 163.081799 67.648598 
L 163.081799 67.648598 
L 163.25853 60.227881 
L 163.25853 60.227881 
L 163.435261 64.177286 
L 163.435261 64.177286 
L 163.611992 57.217954 
L 163.611992 57.217954 
L 163.788723 62.049003 
L 163.788723 62.049003 
L 163.965454 55.394262 
L 164.142184 60.871764 
L 164.142184 60.871764 
L 164.318915 54.262005 
L 164.318915 54.262005 
L 164.495646 60.144344 
L 164.495646 60.144344 
L 164.672377 53.568 
L 164.672377 53.568 
L 165.025839 64.469026 
L 165.025839 64.469026 
L 165.202569 64.319943 
L 165.202569 64.319943 
L 165.3793 70.166296 
L 165.3793 70.166296 
L 165.556031 71.761223 
L 165.556031 71.761223 
L 166.086224 91.810268 
L 166.086224 91.810268 
L 166.262954 96.259614 
L 166.262954 96.259614 
L 166.793147 122.27839 
L 166.793147 122.27839 
L 166.969878 126.091564 
L 166.969878 126.091564 
L 167.146609 136.087812 
L 167.146609 136.087812 
L 167.323339 139.016772 
L 167.323339 139.016772 
L 167.50007 148.22134 
L 167.50007 148.22134 
L 167.676801 149.975631 
L 167.676801 149.975631 
L 167.853532 158.49519 
L 167.853532 158.49519 
L 168.030263 159.11851 
L 168.030263 159.11851 
L 168.206994 166.679313 
L 168.206994 166.679313 
L 168.383724 165.777106 
L 168.383724 165.777106 
L 168.560455 172.379154 
L 168.560455 172.379154 
L 168.737186 170.034958 
L 168.737186 170.034958 
L 169.090648 178.118835 
L 169.090648 178.118835 
L 169.267379 176.66785 
L 169.267379 176.66785 
L 169.444109 178.302618 
L 169.444109 178.302618 
L 169.62084 176.383822 
L 169.62084 176.383822 
L 169.797571 178.111124 
L 169.797571 178.111124 
L 169.974302 176.156342 
L 169.974302 176.156342 
L 170.151033 178.240929 
L 170.151033 178.240929 
L 170.327764 176.694839 
L 170.327764 176.694839 
L 170.504494 179.463149 
L 170.504494 179.463149 
L 170.681225 178.693318 
L 170.681225 178.693318 
L 170.857956 182.368976 
L 170.857956 182.368976 
L 171.034687 182.654289 
L 171.034687 182.654289 
L 171.211418 187.320833 
L 171.211418 187.320833 
L 171.388149 188.803948 
L 171.388149 188.803948 
L 171.918341 203.605541 
L 171.918341 203.605541 
L 172.095072 207.285055 
L 172.095072 207.285055 
L 172.448534 218.418701 
L 172.448534 218.418701 
L 172.625265 220.856716 
L 172.625265 220.856716 
L 172.801995 230.16924 
L 172.801995 230.16924 
L 172.978726 233.19973 
L 172.978726 233.19973 
L 173.332188 245.364103 
L 173.332188 245.364103 
L 173.68565 257.087653 
L 173.68565 257.087653 
L 174.039111 267.675091 
L 174.039111 267.675091 
L 174.392573 276.920785 
L 174.392573 276.920785 
L 174.569304 281.916339 
L 174.569304 281.916339 
L 174.746035 295.488 
L 174.922765 286.323273 
L 174.922765 286.323273 
L 175.099496 291.53988 
L 175.099496 291.53988 
L 175.452958 294.205375 
L 175.452958 294.205375 
L 175.629689 293.089826 
L 175.629689 293.089826 
L 175.80642 289.901257 
L 175.80642 289.901257 
L 175.98315 295.488 
L 175.98315 295.488 
L 176.336612 284.19499 
L 176.336612 284.19499 
L 176.513343 283.926384 
L 176.513343 283.926384 
L 176.690074 280.515476 
L 176.866805 279.863882 
L 176.866805 279.863882 
L 177.043535 280.438364 
L 177.043535 280.438364 
L 177.220266 275.748687 
L 177.220266 275.748687 
L 177.396997 275.220472 
L 177.396997 275.220472 
L 177.573728 270.789119 
L 177.573728 270.789119 
L 177.92719 268.443638 
L 177.92719 268.443638 
L 178.10392 262.210441 
L 178.10392 262.210441 
L 178.280651 260.015328 
L 178.280651 260.015328 
L 178.634113 250.483035 
L 178.634113 250.483035 
L 178.810844 247.455115 
L 178.810844 247.455115 
L 179.164305 235.648027 
L 179.164305 235.648027 
L 179.341036 231.860557 
L 179.341036 231.860557 
L 179.694498 218.948201 
L 179.694498 218.948201 
L 179.871229 214.845858 
L 179.871229 214.845858 
L 180.22469 201.609633 
L 180.22469 201.609633 
L 180.401421 196.873689 
L 180.401421 196.873689 
L 181.108345 170.401238 
L 181.108345 170.401238 
L 182.16873 137.303607 
L 182.16873 137.303607 
L 182.522191 132.78229 
L 182.522191 132.78229 
L 182.698922 131.886509 
L 182.875653 132.432717 
L 182.875653 132.432717 
L 183.405845 147.03639 
L 183.405845 147.03639 
L 184.2895 196.657776 
L 184.2895 196.657776 
L 185.349885 254.922099 
L 185.349885 254.922099 
L 185.880077 271.457421 
L 185.880077 271.457421 
L 186.233539 277.25108 
L 186.233539 277.25108 
L 186.587001 280.151766 
L 186.587001 280.151766 
L 186.763731 280.789223 
L 186.763731 280.789223 
L 187.117193 279.678814 
L 187.117193 279.678814 
L 187.470655 275.678001 
L 187.470655 275.678001 
L 187.824116 267.824174 
L 187.824116 267.824174 
L 188.354309 249.664366 
L 188.354309 249.664366 
L 190.475079 137.438552 
L 190.475079 137.438552 
L 190.65181 136.474656 
L 190.65181 136.474656 
L 190.828541 128.299529 
L 190.828541 128.299529 
L 191.005271 130.836505 
L 191.005271 130.836505 
L 191.182002 123.931151 
L 191.182002 123.931151 
L 191.535464 136.731695 
L 191.535464 136.731695 
L 191.712195 138.3806 
L 191.888926 148.653165 
L 191.888926 148.653165 
L 192.065656 151.037202 
L 192.065656 151.037202 
L 192.242387 164.702683 
L 192.242387 164.702683 
L 192.419118 167.444004 
L 192.419118 167.444004 
L 192.77258 198.49432 
L 192.77258 198.49432 
L 192.949311 204.613134 
L 192.949311 204.613134 
L 193.126041 217.92133 
L 193.302772 218.919927 
L 193.302772 218.919927 
L 193.479503 230.188518 
L 193.479503 230.188518 
L 193.656234 223.968173 
L 193.656234 223.968173 
L 193.832965 231.793727 
L 193.832965 231.793727 
L 194.009696 233.000525 
L 194.009696 233.000525 
L 194.186426 222.846198 
L 194.186426 222.846198 
L 194.363157 221.665104 
L 194.363157 221.665104 
L 194.539888 206.611612 
L 194.539888 206.611612 
L 194.716619 205.832784 
L 194.716619 205.832784 
L 194.89335 201.369301 
L 194.89335 201.369301 
L 195.070081 190.923235 
L 195.070081 190.923235 
L 195.246812 189.715151 
L 195.246812 189.715151 
L 195.423542 179.533835 
L 195.423542 179.533835 
L 195.600273 182.85478 
L 195.600273 182.85478 
L 195.777004 175.987982 
L 195.777004 175.987982 
L 196.130466 192.480891 
L 196.130466 192.480891 
L 196.307197 194.903484 
L 196.307197 194.903484 
L 196.483927 205.442085 
L 196.483927 205.442085 
L 196.660658 207.464982 
L 196.660658 207.464982 
L 197.01412 224.549082 
L 197.01412 224.549082 
L 197.190851 225.469281 
L 197.190851 225.469281 
L 197.367582 230.295189 
L 197.367582 230.295189 
L 197.544312 226.494867 
L 197.544312 226.494867 
L 197.721043 230.575362 
L 197.721043 230.575362 
L 197.897774 221.485176 
L 197.897774 221.485176 
L 198.074505 225.441007 
L 198.074505 225.441007 
L 198.251236 225.907533 
L 198.251236 225.907533 
L 198.427967 218.892938 
L 198.427967 218.892938 
L 198.604697 220.987806 
L 198.604697 220.987806 
L 198.781428 212.135381 
L 198.781428 212.135381 
L 198.958159 216.382951 
L 198.958159 216.382951 
L 199.13489 217.079527 
L 199.13489 217.079527 
L 199.311621 212.005577 
L 199.311621 212.005577 
L 199.488352 213.892243 
L 199.488352 213.892243 
L 199.665082 206.812103 
L 199.665082 206.812103 
L 199.841813 210.075213 
L 200.018544 201.580073 
L 200.018544 201.580073 
L 200.195275 205.984437 
L 200.195275 205.984437 
L 200.372006 206.534501 
L 200.372006 206.534501 
L 200.548737 201.62377 
L 200.548737 201.62377 
L 200.725467 204.050218 
L 200.725467 204.050218 
L 200.902198 199.401668 
L 200.902198 199.401668 
L 201.078929 204.857321 
L 201.078929 204.857321 
L 201.25566 201.735582 
L 201.25566 201.735582 
L 201.432391 209.39406 
L 201.432391 209.39406 
L 201.609122 207.68218 
L 201.609122 207.68218 
L 201.962583 222.932306 
L 201.962583 222.932306 
L 202.139314 225.687765 
L 202.139314 225.687765 
L 202.669507 244.248553 
L 202.669507 244.248553 
L 202.846237 248.610506 
L 202.846237 248.610506 
L 203.37643 266.794732 
L 203.37643 266.794732 
L 204.083353 283.476566 
L 204.083353 283.476566 
L 204.790277 293.289031 
L 204.790277 293.289031 
L 204.967007 294.590934 
L 204.967007 294.590934 
L 205.143738 294.569085 
L 205.143738 294.569085 
L 205.320469 293.940625 
L 205.320469 293.940625 
L 205.4972 292.440802 
L 205.4972 292.440802 
L 205.673931 292.092514 
L 205.673931 292.092514 
L 205.850662 291.075925 
L 205.850662 291.075925 
L 206.027392 291.059217 
L 206.027392 291.059217 
L 206.204123 290.502728 
L 206.204123 290.502728 
L 206.380854 295.488 
L 206.380854 295.488 
L 206.557585 290.901138 
L 206.557585 290.901138 
L 206.734316 289.86013 
L 206.734316 289.86013 
L 206.911047 289.799726 
L 206.911047 289.799726 
L 207.087778 288.788278 
L 207.087778 288.788278 
L 207.264508 295.488 
L 207.264508 295.488 
L 207.441239 288.072424 
L 207.441239 288.072424 
L 207.794701 285.230857 
L 207.794701 285.230857 
L 207.971432 284.040767 
L 207.971432 284.040767 
L 209.208548 266.069882 
L 209.208548 266.069882 
L 210.092202 257.173761 
L 210.092202 257.173761 
L 211.152587 249.143862 
L 211.152587 249.143862 
L 211.85951 242.234653 
L 211.85951 242.234653 
L 212.212972 237.940815 
L 212.212972 237.940815 
L 213.273357 226.872715 
L 213.273357 226.872715 
L 213.803549 223.6186 
L 213.803549 223.6186 
L 214.157011 222.735671 
L 214.157011 222.735671 
L 214.333742 222.599441 
L 214.510473 222.612292 
L 214.510473 222.612292 
L 214.687203 221.558432 
L 214.687203 221.558432 
L 214.863934 221.423487 
L 214.863934 221.423487 
L 215.040665 221.449191 
L 215.040665 221.449191 
L 215.217396 221.64197 
L 215.217396 221.64197 
L 215.394127 222.013392 
L 215.394127 222.013392 
L 215.570858 221.175444 
L 215.570858 221.175444 
L 215.747588 221.778201 
L 215.747588 221.778201 
L 216.277781 224.723868 
L 216.277781 224.723868 
L 216.631243 229.074254 
L 216.631243 229.074254 
L 217.338166 242.534103 
L 217.338166 242.534103 
L 218.575282 276.541653 
L 218.575282 276.541653 
L 219.458936 293.957333 
L 219.458936 293.957333 
L 219.635667 293.882791 
L 219.635667 293.882791 
L 219.812398 292.78652 
L 219.812398 292.78652 
L 219.989129 295.488 
L 219.989129 295.488 
L 220.165859 288.089131 
L 220.165859 288.089131 
L 220.34259 287.366852 
L 220.34259 287.366852 
L 221.579706 266.107153 
L 221.579706 266.107153 
L 222.286629 251.021532 
L 222.286629 251.021532 
L 222.46336 251.296564 
L 222.46336 251.296564 
L 222.640091 248.140124 
L 222.640091 248.140124 
L 222.816822 249.244107 
L 222.816822 249.244107 
L 222.993553 247.019434 
L 222.993553 247.019434 
L 223.170284 248.314911 
L 223.170284 248.314911 
L 223.347014 246.856214 
L 223.347014 246.856214 
L 223.523745 243.147141 
L 223.523745 243.147141 
L 223.700476 247.162091 
L 223.700476 247.162091 
L 223.877207 243.505711 
L 224.053938 246.351133 
L 224.053938 246.351133 
L 224.230669 241.95191 
L 224.230669 241.95191 
L 224.407399 243.807731 
L 224.407399 243.807731 
L 224.58413 239.181029 
L 224.58413 239.181029 
L 224.760861 240.004839 
L 224.937592 235.390988 
L 224.937592 235.390988 
L 225.114323 235.713572 
L 225.114323 235.713572 
L 225.291054 231.543114 
L 225.291054 231.543114 
L 225.467784 231.770593 
L 225.467784 231.770593 
L 225.644515 228.940594 
L 225.644515 228.940594 
L 225.821246 223.803668 
L 225.997977 228.342978 
L 225.997977 228.342978 
L 226.174708 224.302324 
L 226.174708 224.302324 
L 226.351439 228.94702 
L 226.351439 228.94702 
L 226.528169 225.948659 
L 226.528169 225.948659 
L 226.7049 230.164099 
L 226.7049 230.164099 
L 226.881631 227.548727 
L 226.881631 227.548727 
L 227.058362 230.92622 
L 227.058362 230.92622 
L 227.235093 228.211888 
L 227.235093 228.211888 
L 227.411824 230.881238 
L 227.411824 230.881238 
L 227.588554 228.186184 
L 227.588554 228.186184 
L 227.765285 230.676892 
L 227.765285 230.676892 
L 227.942016 228.976579 
L 227.942016 228.976579 
L 228.118747 224.951348 
L 228.118747 224.951348 
L 228.295478 232.307805 
L 228.295478 232.307805 
L 228.472209 230.378727 
L 228.472209 230.378727 
L 228.648939 237.307214 
L 228.648939 237.307214 
L 228.82567 236.363881 
L 228.82567 236.363881 
L 229.002401 242.61507 
L 229.002401 242.61507 
L 229.179132 242.453136 
L 229.179132 242.453136 
L 229.355863 248.359893 
L 229.355863 248.359893 
L 229.532594 249.037191 
L 229.532594 249.037191 
L 229.709324 254.680483 
L 229.709324 254.680483 
L 229.886055 256.258702 
L 229.886055 256.258702 
L 230.239517 264.404269 
L 230.239517 264.404269 
L 230.416248 265.478693 
L 230.416248 265.478693 
L 230.592979 273.5947 
L 230.592979 273.5947 
L 230.76971 275.904196 
L 230.76971 275.904196 
L 231.123171 287.945189 
L 231.123171 287.945189 
L 231.299902 294.823554 
L 231.299902 294.823554 
L 231.653364 280.997424 
L 231.653364 280.997424 
L 232.183556 256.486182 
L 232.183556 256.486182 
L 233.597403 190.553099 
L 233.597403 190.553099 
L 233.950865 181.126192 
L 233.950865 181.126192 
L 234.481057 191.063321 
L 234.481057 191.063321 
L 235.18798 240.371119 
L 235.18798 240.371119 
L 235.894904 293.387991 
L 235.894904 293.387991 
L 236.425096 261.11674 
L 236.425096 261.11674 
L 236.955289 241.156374 
L 236.955289 241.156374 
L 237.662212 226.863718 
L 237.662212 226.863718 
L 238.899328 209.09975 
L 238.899328 209.09975 
L 239.25279 202.48228 
L 239.25279 202.48228 
L 239.959713 193.060515 
L 239.959713 193.060515 
L 240.136444 191.860142 
L 240.136444 191.860142 
L 240.313175 191.428317 
L 240.489905 192.105614 
L 240.489905 192.105614 
L 241.020098 197.915982 
L 241.020098 197.915982 
L 242.257214 221.300108 
L 242.257214 221.300108 
L 242.433945 222.900176 
L 242.433945 222.900176 
L 244.024522 252.171782 
L 244.024522 252.171782 
L 244.377984 260.057739 
L 244.377984 260.057739 
L 244.554715 261.022921 
L 244.554715 261.022921 
L 245.084907 268.559305 
L 245.084907 268.559305 
L 245.261638 267.756058 
L 245.261638 267.756058 
L 245.6151 271.465132 
L 245.6151 271.465132 
L 245.791831 270.753134 
L 245.791831 270.753134 
L 246.145292 273.69366 
L 246.145292 273.69366 
L 246.322023 273.286253 
L 247.028946 280.611866 
L 247.028946 280.611866 
L 247.382408 286.492919 
L 247.382408 286.492919 
L 247.559139 295.488 
L 247.559139 295.488 
L 247.73587 294.620493 
L 247.73587 294.620493 
L 247.912601 291.413931 
L 247.912601 291.413931 
L 249.679909 232.199849 
L 249.679909 232.199849 
L 249.85664 233.46191 
L 250.210101 228.204177 
L 250.210101 228.204177 
L 250.386832 233.473477 
L 250.386832 233.473477 
L 250.740294 234.365402 
L 250.740294 234.365402 
L 250.917025 242.503258 
L 250.917025 242.503258 
L 251.093756 245.184175 
L 251.093756 245.184175 
L 251.447217 256.902585 
L 251.447217 256.902585 
L 251.623948 260.438157 
L 251.623948 260.438157 
L 251.97741 273.470036 
L 251.97741 273.470036 
L 252.154141 277.217665 
L 252.154141 277.217665 
L 252.507602 290.237978 
L 252.507602 290.237978 
L 252.684333 293.718286 
L 252.684333 293.718286 
L 255.335296 225.190394 
L 255.335296 225.190394 
L 257.809527 192.579852 
L 257.809527 192.579852 
L 257.986258 190.887249 
L 257.986258 190.887249 
L 258.33972 185.267091 
L 258.33972 185.267091 
L 259.576836 173.382891 
L 259.576836 173.382891 
L 259.930297 171.680007 
L 259.930297 171.680007 
L 260.107028 171.1685 
L 260.107028 171.1685 
L 260.283759 170.1789 
L 260.46049 169.902583 
L 260.46049 169.902583 
L 260.637221 169.876879 
L 260.637221 169.876879 
L 260.813952 170.101788 
L 260.813952 170.101788 
L 261.167413 170.925598 
L 261.167413 170.925598 
L 261.520875 173.537115 
L 261.520875 173.537115 
L 261.874337 178.139398 
L 261.874337 178.139398 
L 262.404529 189.591773 
L 262.404529 189.591773 
L 263.111452 214.058033 
L 263.111452 214.058033 
L 264.171837 252.449384 
L 264.171837 252.449384 
L 264.878761 270.314882 
L 264.878761 270.314882 
L 265.939146 290.362642 
L 265.939146 290.362642 
L 266.292608 295.15642 
L 266.292608 295.15642 
L 266.469338 292.637437 
L 266.469338 292.637437 
L 266.646069 295.488 
L 266.646069 295.488 
L 266.8228 288.833259 
L 266.999531 287.758836 
L 266.999531 287.758836 
L 267.352993 287.623891 
L 267.352993 287.623891 
L 267.529723 295.488 
L 267.529723 295.488 
L 267.706454 288.8037 
L 268.059916 291.649122 
L 268.059916 291.649122 
L 268.413378 295.488 
L 268.413378 295.488 
L 268.766839 293.34558 
L 268.766839 293.34558 
L 269.120301 291.032228 
L 269.120301 291.032228 
L 269.297032 295.488 
L 269.297032 295.488 
L 269.473763 290.393486 
L 269.473763 290.393486 
L 270.003955 290.353645 
L 270.003955 290.353645 
L 270.180686 295.488 
L 270.180686 295.488 
L 270.357417 290.369068 
L 270.357417 290.369068 
L 270.534148 290.079899 
L 270.534148 290.079899 
L 270.710878 289.511842 
L 270.710878 289.511842 
L 271.06434 287.165076 
L 271.06434 287.165076 
L 272.478187 274.535463 
L 272.478187 274.535463 
L 272.831648 272.928969 
L 272.831648 272.928969 
L 273.18511 272.102588 
L 273.18511 272.102588 
L 273.361841 272.580681 
L 273.361841 272.580681 
L 273.892033 273.16416 
L 273.892033 273.16416 
L 274.068764 273.557429 
L 274.068764 273.557429 
L 274.422226 275.588038 
L 274.422226 275.588038 
L 274.775688 277.261362 
L 274.775688 277.261362 
L 274.952418 278.555553 
L 274.952418 278.555553 
L 276.366265 295.488 
L 276.366265 295.488 
L 277.073188 287.422115 
L 277.073188 287.422115 
L 277.249919 295.488 
L 277.249919 295.488 
L 277.42665 283.760594 
L 277.42665 283.760594 
L 277.780112 281.676007 
L 277.780112 281.676007 
L 278.133574 280.831634 
L 278.133574 280.831634 
L 278.310304 280.728819 
L 278.310304 280.728819 
L 278.487035 280.883042 
L 278.487035 280.883042 
L 278.840497 282.28776 
L 278.840497 282.28776 
L 279.017228 295.488 
L 279.017228 295.488 
L 279.193959 283.984218 
L 279.193959 283.984218 
L 280.077613 287.906634 
L 280.077613 287.906634 
L 280.431074 289.775307 
L 280.431074 289.775307 
L 280.784536 292.304572 
L 280.784536 292.304572 
L 281.137998 295.052319 
L 281.137998 295.052319 
L 281.314729 294.73102 
L 281.314729 294.73102 
L 281.491459 295.488 
L 281.491459 295.488 
L 281.844921 290.329227 
L 281.844921 290.329227 
L 282.375114 284.643523 
L 282.375114 284.643523 
L 282.905306 275.846362 
L 282.905306 275.846362 
L 283.258768 265.094419 
L 283.258768 265.094419 
L 283.78896 242.237223 
L 283.78896 242.237223 
L 284.319153 213.727738 
L 284.319153 213.727738 
L 284.672614 193.790505 
L 284.672614 193.790505 
L 284.849345 188.314289 
L 284.849345 188.314289 
L 285.026076 179.190688 
L 285.026076 179.190688 
L 285.202807 179.53512 
L 285.202807 179.53512 
L 285.379538 169.564576 
L 285.379538 169.564576 
L 285.732999 178.422141 
L 285.732999 178.422141 
L 285.90973 174.168145 
L 285.90973 174.168145 
L 286.086461 180.71493 
L 286.263192 173.358472 
L 286.263192 173.358472 
L 286.439923 182.339416 
L 286.439923 182.339416 
L 286.616654 185.515134 
L 286.616654 185.515134 
L 286.793384 179.161129 
L 286.793384 179.161129 
L 286.970115 181.853613 
L 286.970115 181.853613 
L 287.146846 169.61984 
L 287.146846 169.61984 
L 287.323577 172.538518 
L 287.323577 172.538518 
L 287.500308 170.405094 
L 287.500308 170.405094 
L 287.677039 159.313859 
L 287.677039 159.313859 
L 287.853769 159.48479 
L 287.853769 159.48479 
L 288.0305 145.204987 
L 288.0305 145.204987 
L 288.207231 148.660877 
L 288.207231 148.660877 
L 288.383962 149.226362 
L 288.383962 149.226362 
L 288.560693 142.211767 
L 288.560693 142.211767 
L 288.737424 147.23688 
L 288.737424 147.23688 
L 288.914155 140.195296 
L 288.914155 140.195296 
L 289.267616 151.823742 
L 289.267616 151.823742 
L 289.444347 148.564487 
L 289.621078 153.626871 
L 289.621078 153.626871 
L 289.797809 146.566008 
L 289.797809 146.566008 
L 289.97454 152.531884 
L 289.97454 152.531884 
L 290.15127 154.647316 
L 290.15127 154.647316 
L 290.328001 145.25768 
L 290.328001 145.25768 
L 290.504732 148.270177 
L 290.504732 148.270177 
L 290.681463 147.047957 
L 290.681463 147.047957 
L 290.858194 138.396023 
L 290.858194 138.396023 
L 291.034925 139.155573 
L 291.034925 139.155573 
L 291.211655 126.254784 
L 291.388386 129.400942 
L 291.388386 129.400942 
L 291.565117 128.701795 
L 291.565117 128.701795 
L 291.741848 120.444416 
L 291.741848 120.444416 
L 291.918579 123.686964 
L 291.918579 123.686964 
L 292.09531 114.717587 
L 292.09531 114.717587 
L 292.27204 123.868176 
L 292.27204 123.868176 
L 292.448771 114.541515 
L 292.448771 114.541515 
L 292.802233 140.206863 
L 292.802233 140.206863 
L 292.978964 138.921668 
L 292.978964 138.921668 
L 293.155695 153.610163 
L 293.155695 153.610163 
L 293.332425 153.533052 
L 293.332425 153.533052 
L 293.685887 182.255879 
L 293.685887 182.255879 
L 293.862618 187.160183 
L 293.862618 187.160183 
L 294.21608 204.38694 
L 294.21608 204.38694 
L 294.569541 223.213764 
L 294.569541 223.213764 
L 296.160119 263.908184 
L 296.160119 263.908184 
L 296.690311 271.772293 
L 296.690311 271.772293 
L 296.867042 272.353202 
L 296.867042 272.353202 
L 297.043773 274.31698 
L 297.043773 274.31698 
L 297.220504 273.39421 
L 297.220504 273.39421 
L 297.397235 274.338828 
L 297.397235 274.338828 
L 297.573965 272.164278 
L 297.573965 272.164278 
L 297.750696 272.315931 
L 297.750696 272.315931 
L 297.927427 268.965427 
L 298.104158 268.867752 
L 298.104158 268.867752 
L 298.280889 265.202376 
L 298.280889 265.202376 
L 298.45762 265.282058 
L 298.45762 265.282058 
L 298.63435 264.34001 
L 298.63435 264.34001 
L 298.811081 262.33125 
L 298.811081 262.33125 
L 298.987812 262.065214 
L 298.987812 262.065214 
L 299.164543 260.848134 
L 299.164543 260.848134 
L 299.341274 258.690292 
L 299.341274 258.690292 
L 299.518005 261.44575 
L 299.518005 261.44575 
L 299.694735 260.249233 
L 299.694735 260.249233 
L 299.871466 263.764242 
L 300.048197 262.675682 
L 300.048197 262.675682 
L 300.224928 266.130286 
L 300.224928 266.130286 
L 300.401659 264.959474 
L 300.401659 264.959474 
L 300.57839 268.090209 
L 300.57839 268.090209 
L 300.755121 266.765173 
L 300.755121 266.765173 
L 300.931851 269.556617 
L 300.931851 269.556617 
L 301.108582 268.646699 
L 301.108582 268.646699 
L 301.285313 271.19267 
L 301.285313 271.19267 
L 301.462044 270.972902 
L 301.462044 270.972902 
L 301.638775 268.683969 
L 301.638775 268.683969 
L 301.815506 274.850336 
L 301.815506 274.850336 
L 301.992236 274.64599 
L 301.992236 274.64599 
L 302.345698 284.973818 
L 302.345698 284.973818 
L 302.69916 289.632651 
L 302.69916 289.632651 
L 302.875891 282.128396 
L 302.875891 282.128396 
L 304.113006 193.239157 
L 304.113006 193.239157 
L 304.643199 166.72815 
L 304.643199 166.72815 
L 304.996661 159.047824 
L 304.996661 159.047824 
L 305.173391 158.918019 
L 305.173391 158.918019 
L 305.350122 157.456752 
L 305.350122 157.456752 
L 305.526853 159.683996 
L 305.526853 159.683996 
L 305.703584 160.106825 
L 305.703584 160.106825 
L 305.880315 163.26969 
L 305.880315 163.26969 
L 306.057046 164.137197 
L 306.057046 164.137197 
L 306.233776 162.345635 
L 306.233776 162.345635 
L 306.410507 168.70221 
L 306.410507 168.70221 
L 306.587238 166.98776 
L 306.587238 166.98776 
L 306.763969 173.483136 
L 306.763969 173.483136 
L 306.9407 171.352283 
L 306.9407 171.352283 
L 307.117431 177.878504 
L 307.294161 174.82745 
L 307.294161 174.82745 
L 307.470892 180.874294 
L 307.470892 180.874294 
L 307.647623 176.852918 
L 307.647623 176.852918 
L 307.824354 182.046392 
L 307.824354 182.046392 
L 308.001085 183.610474 
L 308.001085 183.610474 
L 308.177816 180.97968 
L 308.177816 180.97968 
L 308.354546 182.814939 
L 308.354546 182.814939 
L 308.531277 179.853849 
L 308.531277 179.853849 
L 308.708008 182.253308 
L 308.708008 182.253308 
L 308.884739 179.243381 
L 308.884739 179.243381 
L 309.06147 182.078522 
L 309.06147 182.078522 
L 309.238201 179.395034 
L 309.238201 179.395034 
L 309.414931 183.318735 
L 309.414931 183.318735 
L 309.591662 181.290697 
L 309.591662 181.290697 
L 309.768393 185.474007 
L 309.768393 185.474007 
L 309.945124 182.187763 
L 310.121855 185.22725 
L 310.121855 185.22725 
L 310.298586 185.723335 
L 310.298586 185.723335 
L 310.475316 182.926751 
L 310.475316 182.926751 
L 310.652047 183.834098 
L 310.652047 183.834098 
L 310.828778 180.281819 
L 310.828778 180.281819 
L 311.005509 182.733971 
L 311.005509 182.733971 
L 311.18224 178.04815 
L 311.18224 178.04815 
L 311.358971 183.478099 
L 311.358971 183.478099 
L 311.535701 179.343626 
L 311.535701 179.343626 
L 311.889163 191.495147 
L 311.889163 191.495147 
L 312.065894 189.851382 
L 312.242625 193.748094 
L 312.242625 193.748094 
L 312.419356 189.325737 
L 312.419356 189.325737 
L 312.596087 193.493625 
L 312.596087 193.493625 
L 312.772817 186.637109 
L 312.772817 186.637109 
L 312.949548 190.40016 
L 312.949548 190.40016 
L 313.126279 180.357645 
L 313.126279 180.357645 
L 313.30301 184.317332 
L 313.30301 184.317332 
L 313.479741 184.345606 
L 313.479741 184.345606 
L 313.656472 178.820552 
L 313.656472 178.820552 
L 313.833202 182.230175 
L 313.833202 182.230175 
L 314.009933 179.281937 
L 314.009933 179.281937 
L 314.186664 188.765392 
L 314.186664 188.765392 
L 314.363395 189.289752 
L 314.363395 189.289752 
L 314.540126 204.356095 
L 314.540126 204.356095 
L 314.716857 206.751699 
L 314.716857 206.751699 
L 315.070318 239.31983 
L 315.070318 239.31983 
L 315.247049 245.47977 
L 315.247049 245.47977 
L 315.42378 258.930623 
L 315.42378 258.930623 
L 315.600511 260.75303 
L 315.600511 260.75303 
L 315.777242 271.959932 
L 315.777242 271.959932 
L 315.953972 268.578583 
L 315.953972 268.578583 
L 316.130703 276.321884 
L 316.130703 276.321884 
L 316.307434 277.664913 
L 316.307434 277.664913 
L 316.484165 271.014028 
L 316.484165 271.014028 
L 316.660896 269.813656 
L 316.660896 269.813656 
L 316.837627 259.56551 
L 316.837627 259.56551 
L 317.014357 257.585024 
L 317.014357 257.585024 
L 317.191088 245.367958 
L 317.191088 245.367958 
L 317.367819 244.25755 
L 317.367819 244.25755 
L 317.54455 232.86558 
L 317.54455 232.86558 
L 317.721281 234.316565 
L 317.721281 234.316565 
L 317.898012 234.28315 
L 317.898012 234.28315 
L 318.074742 230.455839 
L 318.074742 230.455839 
L 318.251473 233.249853 
L 318.251473 233.249853 
L 318.428204 230.793845 
L 318.428204 230.793845 
L 318.604935 235.825384 
L 318.604935 235.825384 
L 318.781666 235.070975 
L 318.781666 235.070975 
L 318.958397 240.64101 
L 318.958397 240.64101 
L 319.135127 239.824912 
L 319.135127 239.824912 
L 319.488589 246.692995 
L 319.488589 246.692995 
L 319.66532 246.047827 
L 319.66532 246.047827 
L 319.842051 246.880633 
L 319.842051 246.880633 
L 320.018782 244.533867 
L 320.018782 244.533867 
L 320.195512 244.202286 
L 320.195512 244.202286 
L 320.372243 240.764389 
L 320.372243 240.764389 
L 320.548974 239.7131 
L 320.548974 239.7131 
L 320.725705 235.329299 
L 320.725705 235.329299 
L 320.902436 234.371828 
L 320.902436 234.371828 
L 321.079167 229.87493 
L 321.079167 229.87493 
L 321.255897 230.133255 
L 321.432628 226.440889 
L 321.432628 226.440889 
L 321.609359 228.309563 
L 321.609359 228.309563 
L 321.78609 225.866407 
L 321.78609 225.866407 
L 321.962821 229.432823 
L 321.962821 229.432823 
L 322.139552 227.947138 
L 322.139552 227.947138 
L 322.316282 232.361783 
L 322.316282 232.361783 
L 322.493013 231.591951 
L 322.493013 231.591951 
L 322.669744 236.451274 
L 322.669744 236.451274 
L 322.846475 236.169816 
L 322.846475 236.169816 
L 323.023206 241.148663 
L 323.023206 241.148663 
L 323.199937 241.644748 
L 323.199937 241.644748 
L 323.376667 246.939752 
L 323.376667 246.939752 
L 323.553398 248.323907 
L 323.553398 248.323907 
L 324.083591 262.939147 
L 324.083591 262.939147 
L 324.437053 270.10411 
L 324.437053 270.10411 
L 324.967245 293.443254 
L 324.967245 293.443254 
L 325.143976 291.519317 
L 325.143976 291.519317 
L 325.850899 259.776282 
L 325.850899 259.776282 
L 326.734553 229.318441 
L 326.734553 229.318441 
L 327.264746 220.347779 
L 327.264746 220.347779 
L 327.618208 217.989445 
L 327.618208 217.989445 
L 327.794938 217.745258 
L 327.794938 217.745258 
L 327.971669 218.08712 
L 327.971669 218.08712 
L 328.1484 218.791407 
L 328.1484 218.791407 
L 328.501862 222.114922 
L 328.501862 222.114922 
L 328.855323 227.989549 
L 328.855323 227.989549 
L 329.208785 237.827718 
L 329.208785 237.827718 
L 329.738978 262.480332 
L 329.738978 262.480332 
L 330.26917 292.732542 
L 330.26917 292.732542 
L 331.506286 222.568596 
L 331.506286 222.568596 
L 331.683017 221.945276 
L 331.683017 221.945276 
L 331.859748 214.324069 
L 331.859748 214.324069 
L 332.036478 215.012933 
L 332.036478 215.012933 
L 332.213209 209.045772 
L 332.213209 209.045772 
L 332.38994 210.761508 
L 332.38994 210.761508 
L 332.566671 206.546068 
L 332.566671 206.546068 
L 332.743402 208.751462 
L 332.743402 208.751462 
L 332.920133 206.043556 
L 332.920133 206.043556 
L 333.096863 208.725759 
L 333.096863 208.725759 
L 333.273594 207.808129 
L 333.273594 207.808129 
L 333.450325 211.171485 
L 333.450325 211.171485 
L 333.627056 211.817938 
L 333.627056 211.817938 
L 333.803787 210.796208 
L 333.803787 210.796208 
L 333.980518 217.556335 
L 333.980518 217.556335 
L 334.157248 217.947034 
L 334.157248 217.947034 
L 334.333979 223.378269 
L 334.333979 223.378269 
L 334.51071 222.995281 
L 334.51071 222.995281 
L 334.687441 226.9434 
L 334.687441 226.9434 
L 334.864172 224.60306 
L 334.864172 224.60306 
L 335.040903 227.020512 
L 335.040903 227.020512 
L 335.217633 223.256175 
L 335.217633 223.256175 
L 335.394364 224.339595 
L 335.394364 224.339595 
L 335.571095 219.548387 
L 335.571095 219.548387 
L 335.747826 220.034191 
L 335.747826 220.034191 
L 335.924557 215.194146 
L 335.924557 215.194146 
L 336.101288 215.565567 
L 336.101288 215.565567 
L 336.278019 211.374546 
L 336.278019 211.374546 
L 336.454749 212.086544 
L 336.454749 212.086544 
L 336.63148 208.805441 
L 336.63148 208.805441 
L 336.808211 202.542685 
L 336.808211 202.542685 
L 336.984942 208.251522 
L 336.984942 208.251522 
L 337.161673 203.942262 
L 337.161673 203.942262 
L 337.338404 210.375949 
L 337.338404 210.375949 
L 337.515134 207.878815 
L 337.515134 207.878815 
L 337.691865 215.074623 
L 337.691865 215.074623 
L 337.868596 214.731476 
L 337.868596 214.731476 
L 338.045327 222.563455 
L 338.045327 222.563455 
L 338.222058 224.441125 
L 338.222058 224.441125 
L 338.75225 247.671028 
L 338.75225 247.671028 
L 339.105712 260.175977 
L 339.105712 260.175977 
L 339.635904 295.105012 
L 339.635904 295.105012 
L 340.166097 259.269915 
L 340.166097 259.269915 
L 340.87302 214.528415 
L 340.87302 214.528415 
L 341.226482 198.66268 
L 341.226482 198.66268 
L 341.579944 189.213925 
L 341.579944 189.213925 
L 341.933405 183.77755 
L 341.933405 183.77755 
L 342.110136 187.843907 
L 342.110136 187.843907 
L 342.286867 188.121509 
L 342.286867 188.121509 
L 342.817059 203.943547 
L 342.817059 203.943547 
L 343.170521 210.130477 
L 343.170521 210.130477 
L 343.347252 220.048328 
L 343.347252 220.048328 
L 343.523983 222.049377 
L 343.523983 222.049377 
L 343.700714 230.843968 
L 343.700714 230.843968 
L 343.877444 232.662519 
L 343.877444 232.662519 
L 344.054175 239.781215 
L 344.230906 241.594625 
L 344.230906 241.594625 
L 344.407637 238.852019 
L 344.407637 238.852019 
L 344.584368 251.066514 
L 344.584368 251.066514 
L 344.761099 251.007395 
L 344.761099 251.007395 
L 345.291291 286.600875 
L 345.291291 286.600875 
L 345.468022 295.488 
L 345.468022 295.488 
L 345.644753 282.543514 
L 345.644753 282.543514 
L 346.528407 182.996151 
L 346.528407 182.996151 
L 347.23533 113.321865 
L 347.23533 113.321865 
L 347.765523 91.853964 
L 347.765523 91.853964 
L 348.295715 119.166932 
L 348.295715 119.166932 
L 348.649177 145.194705 
L 348.649177 145.194705 
L 349.17937 201.968202 
L 349.17937 201.968202 
L 350.063024 272.488147 
L 350.063024 272.488147 
L 350.593216 294.390443 
L 350.593216 294.390443 
L 350.946678 282.102692 
L 350.946678 282.102692 
L 351.123409 280.613151 
L 351.123409 280.613151 
L 351.30014 273.107611 
L 351.30014 273.107611 
L 351.47687 272.255527 
L 351.47687 272.255527 
L 351.653601 266.919396 
L 351.653601 266.919396 
L 351.830332 266.698343 
L 351.830332 266.698343 
L 352.007063 263.022685 
L 352.007063 263.022685 
L 352.183794 263.09337 
L 352.183794 263.09337 
L 352.360525 265.154823 
L 352.360525 265.154823 
L 352.537255 260.807008 
L 352.537255 260.807008 
L 352.713986 262.958425 
L 352.713986 262.958425 
L 352.890717 259.73644 
L 352.890717 259.73644 
L 353.067448 261.80946 
L 353.067448 261.80946 
L 353.244179 259.683747 
L 353.244179 259.683747 
L 353.42091 261.632103 
L 353.59764 260.130995 
L 353.59764 260.130995 
L 353.774371 261.751627 
L 353.951102 265.319328 
L 353.951102 265.319328 
L 354.127833 261.990673 
L 354.127833 261.990673 
L 354.304564 264.728139 
L 354.304564 264.728139 
L 354.481295 262.191163 
L 354.481295 262.191163 
L 354.658025 264.314306 
L 354.658025 264.314306 
L 354.834756 262.220723 
L 354.834756 262.220723 
L 355.011487 263.311853 
L 355.011487 263.311853 
L 355.188218 266.082734 
L 355.188218 266.082734 
L 355.364949 261.614111 
L 355.364949 261.614111 
L 355.54168 263.178193 
L 355.54168 263.178193 
L 355.71841 259.062998 
L 355.71841 259.062998 
L 355.895141 259.411286 
L 355.895141 259.411286 
L 356.071872 256.019656 
L 356.248603 255.503008 
L 356.248603 255.503008 
L 356.425334 256.439915 
L 356.425334 256.439915 
L 356.602065 251.202744 
L 356.602065 251.202744 
L 356.778795 251.214311 
L 356.778795 251.214311 
L 356.955526 246.872922 
L 356.955526 246.872922 
L 357.132257 246.123653 
L 357.132257 246.123653 
L 357.308988 246.73155 
L 357.308988 246.73155 
L 357.485719 241.664026 
L 357.485719 241.664026 
L 357.66245 241.828531 
L 357.83918 238.334085 
L 357.83918 238.334085 
L 358.015911 238.514012 
L 358.015911 238.514012 
L 358.192642 236.739158 
L 358.192642 236.739158 
L 358.369373 236.978204 
L 358.369373 236.978204 
L 358.546104 238.278822 
L 358.722835 237.197973 
L 358.722835 237.197973 
L 358.899565 238.855874 
L 358.899565 238.855874 
L 359.076296 241.822105 
L 359.076296 241.822105 
L 359.253027 242.138263 
L 359.253027 242.138263 
L 360.313412 266.080164 
L 360.313412 266.080164 
L 360.490143 272.367339 
L 360.490143 272.367339 
L 360.666874 273.652534 
L 360.666874 273.652534 
L 361.020336 281.258319 
L 361.020336 281.258319 
L 361.373797 289.550398 
L 361.373797 289.550398 
L 361.550528 289.168695 
L 361.727259 295.488 
L 361.727259 295.488 
L 362.080721 291.034799 
L 362.080721 291.034799 
L 362.257451 295.488 
L 362.257451 295.488 
L 362.787644 286.648428 
L 362.787644 286.648428 
L 362.964375 286.179331 
L 362.964375 286.179331 
L 363.317836 278.166139 
L 363.317836 278.166139 
L 363.494567 276.609768 
L 363.494567 276.609768 
L 363.848029 267.351222 
L 363.848029 267.351222 
L 364.02476 265.359169 
L 364.02476 265.359169 
L 364.378221 255.806314 
L 364.378221 255.806314 
L 364.554952 253.293757 
L 364.554952 253.293757 
L 364.908414 242.536673 
L 364.908414 242.536673 
L 365.085145 239.029376 
L 365.085145 239.029376 
L 365.438606 226.71078 
L 365.438606 226.71078 
L 365.615337 221.940135 
L 365.615337 221.940135 
L 366.322261 194.093811 
L 366.322261 194.093811 
L 367.559376 150.321349 
L 367.559376 150.321349 
L 368.089569 139.745478 
L 368.089569 139.745478 
L 368.443031 136.450237 
L 368.443031 136.450237 
L 368.619761 136.303725 
L 368.619761 136.303725 
L 368.796492 137.082553 
L 368.796492 137.082553 
L 369.149954 141.304419 
L 369.149954 141.304419 
L 369.503416 149.036154 
L 369.503416 149.036154 
L 370.033608 166.462115 
L 370.033608 166.462115 
L 372.154378 246.560619 
L 372.154378 246.560619 
L 373.391494 274.05737 
L 373.391494 274.05737 
L 374.451879 295.310643 
L 374.451879 295.310643 
L 374.982072 289.10315 
L 374.982072 289.10315 
L 375.335533 287.022419 
L 375.335533 287.022419 
L 375.688995 285.932574 
L 375.688995 285.932574 
L 376.042457 285.164027 
L 376.042457 285.164027 
L 376.572649 283.349332 
L 376.572649 283.349332 
L 377.633034 277.14955 
L 377.633034 277.14955 
L 377.809765 276.71901 
L 377.809765 276.71901 
L 377.986496 276.699732 
L 377.986496 276.699732 
L 378.163227 276.891226 
L 378.163227 276.891226 
L 378.516688 278.739336 
L 378.516688 278.739336 
L 379.223612 284.612678 
L 379.223612 284.612678 
L 379.753804 288.492683 
L 379.753804 288.492683 
L 380.107266 289.95652 
L 380.107266 289.95652 
L 380.283997 290.135162 
L 380.283997 290.135162 
L 380.637458 289.257374 
L 380.637458 289.257374 
L 381.344382 286.854059 
L 381.344382 286.854059 
L 381.521112 286.630435 
L 381.521112 286.630435 
L 381.697843 286.778232 
L 381.697843 286.778232 
L 381.874574 287.136802 
L 381.874574 287.136802 
L 382.404767 289.324204 
L 382.404767 289.324204 
L 383.641883 295.171842 
L 383.641883 295.171842 
L 383.818613 295.187264 
L 383.818613 295.187264 
L 384.172075 294.570371 
L 384.172075 294.570371 
L 384.525537 294.489403 
L 384.525537 294.489403 
L 384.702268 294.657764 
L 384.702268 294.657764 
L 385.055729 295.441733 
L 385.055729 295.441733 
L 385.409191 294.678327 
L 385.409191 294.678327 
L 385.585922 294.489403 
L 385.585922 294.489403 
L 385.762653 294.513822 
L 385.762653 294.513822 
L 386.116114 295.371047 
L 386.116114 295.371047 
L 386.292845 295.015048 
L 386.292845 295.015048 
L 386.823038 291.966565 
L 386.823038 291.966565 
L 387.35323 289.281792 
L 387.35323 289.281792 
L 387.529961 288.915512 
L 387.529961 288.915512 
L 387.706692 288.986198 
L 387.706692 288.986198 
L 388.060153 289.996361 
L 388.060153 289.996361 
L 388.767077 293.931629 
L 388.767077 293.931629 
L 389.120538 295.286224 
L 389.120538 295.286224 
L 389.650731 293.055126 
L 389.650731 293.055126 
L 390.711116 289.316493 
L 390.711116 289.316493 
L 391.241308 288.758718 
L 391.241308 288.758718 
L 391.59477 288.70731 
L 391.59477 288.70731 
L 391.771501 288.749722 
L 391.771501 288.749722 
L 391.948232 289.089013 
L 391.948232 289.089013 
L 392.831886 291.786638 
L 392.831886 291.786638 
L 393.008617 291.906161 
L 393.185348 291.7031 
L 393.185348 291.7031 
L 393.538809 290.703218 
L 393.538809 290.703218 
L 394.422464 287.571198 
L 394.422464 287.571198 
L 394.599194 287.371992 
L 394.599194 287.371992 
L 394.775925 287.634172 
L 394.775925 287.634172 
L 395.129387 288.894949 
L 395.129387 288.894949 
L 395.482849 290.834308 
L 395.482849 290.834308 
L 396.013041 294.701461 
L 396.013041 294.701461 
L 396.189772 295.278513 
L 396.189772 295.278513 
L 396.719964 293.258186 
L 396.719964 293.258186 
L 397.250157 292.214608 
L 397.250157 292.214608 
L 397.426888 292.412528 
L 397.426888 292.412528 
L 397.603619 292.966447 
L 397.603619 292.966447 
L 397.95708 289.396175 
L 397.95708 289.396175 
L 398.133811 292.807083 
L 398.133811 292.807083 
L 398.310542 293.795398 
L 398.310542 293.795398 
L 398.487273 247.926782 
L 398.487273 247.926782 
" clip-path="url(#pa4a1ff0d0c)" style="fill: none; stroke: #1f77b4; stroke-width: 1.5; stroke-linecap: square"/>
   </g>
   <g id="patch_3">
    <path d="M 57.6 307.584 
L 57.6 41.472 
" style="fill: none; stroke: #000000; stroke-width: 0.8; stroke-linejoin: miter; stroke-linecap: square"/>
   </g>
   <g id="patch_4">
    <path d="M 414.72 307.584 
L 414.72 41.472 
" style="fill: none; stroke: #000000; stroke-width: 0.8; stroke-linejoin: miter; stroke-linecap: square"/>
   </g>
   <g id="patch_5">
    <path d="M 57.6 307.584 
L 414.72 307.584 
" style="fill: none; stroke: #000000; stroke-width: 0.8; stroke-linejoin: miter; stroke-linecap: square"/>
   </g>
   <g id="patch_6">
    <path d="M 57.6 41.472 
L 414.72 41.472 
" style="fill: none; stroke: #000000; stroke-width: 0.8; stroke-linejoin: miter; stroke-linecap: square"/>
   </g>
   <g id="text_19">
    <!-- Tracking error vs Time -->
    <g transform="translate(169.584375 35.472) scale(0.12 -0.12)">
     <defs>
      <path id="DejaVuSans-76" d="M 191 3500 
L 800 3500 
L 1894 563 
L 2988 3500 
L 3597 3500 
L 2284 0 
L 1503 0 
L 191 3500 
z
" transform="scale(0.015625)"/>
     </defs>
     <use xlink:href="#DejaVuSans-54"/>
     <use xlink:href="#DejaVuSans-72" x="46.333984"/>
     <use xlink:href="#DejaVuSans-61" x="87.447266"/>
     <use xlink:href="#DejaVuSans-63" x="148.726562"/>
     <use xlink:href="#DejaVuSans-6b" x="203.707031"/>
     <use xlink:href="#DejaVuSans-69" x="261.617188"/>
     <use xlink:href="#DejaVuSans-6e" x="289.400391"/>
     <use xlink:href="#DejaVuSans-67" x="352.779297"/>
     <use xlink:href="#DejaVuSans-20" x="416.255859"/>
     <use xlink:href="#DejaVuSans-65" x="448.042969"/>
     <use xlink:href="#DejaVuSans-72" x="509.566406"/>
     <use xlink:href="#DejaVuSans-72" x="548.929688"/>
     <use xlink:href="#DejaVuSans-6f" x="587.792969"/>
     <use xlink:href="#DejaVuSans-72" x="648.974609"/>
     <use xlink:href="#DejaVuSans-20" x="690.087891"/>
     <use xlink:href="#DejaVuSans-76" x="721.875"/>
     <use xlink:href="#DejaVuSans-73" x="781.054688"/>
     <use xlink:href="#DejaVuSans-20" x="833.154297"/>
     <use xlink:href="#DejaVuSans-54" x="864.941406"/>
     <use xlink:href="#DejaVuSans-69" x="922.900391"/>
     <use xlink:href="#DejaVuSans-6d" x="950.683594"/>
     <use xlink:href="#DejaVuSans-65" x="1048.095703"/>
    </g>
   </g>
   <g id="legend_1">
    <g id="patch_7">
     <path d="M 311.00125 64.150125 
L 407.72 64.150125 
Q 409.72 64.150125 409.72 62.150125 
L 409.72 48.472 
Q 409.72 46.472 407.72 46.472 
L 311.00125 46.472 
Q 309.00125 46.472 309.00125 48.472 
L 309.00125 62.150125 
Q 309.00125 64.150125 311.00125 64.150125 
z
" style="fill: #ffffff; opacity: 0.8; stroke: #cccccc; stroke-linejoin: miter"/>
    </g>
    <g id="line2d_34">
     <path d="M 313.00125 54.570438 
L 323.00125 54.570438 
L 333.00125 54.570438 
" style="fill: none; stroke: #1f77b4; stroke-width: 1.5; stroke-linecap: square"/>
    </g>
    <g id="text_20">
     <!-- Actual speed -->
     <g transform="translate(341.00125 58.070438) scale(0.1 -0.1)">
      <defs>
       <path id="DejaVuSans-41" d="M 2188 4044 
L 1331 1722 
L 3047 1722 
L 2188 4044 
z
M 1831 4666 
L 2547 4666 
L 4325 0 
L 3669 0 
L 3244 1197 
L 1141 1197 
L 716 0 
L 50 0 
L 1831 4666 
z
" transform="scale(0.015625)"/>
       <path id="DejaVuSans-74" d="M 1172 4494 
L 1172 3500 
L 2356 3500 
L 2356 3053 
L 1172 3053 
L 1172 1153 
Q 1172 725 1289 603 
Q 1406 481 1766 481 
L 2356 481 
L 2356 0 
L 1766 0 
Q 1100 0 847 248 
Q 594 497 594 1153 
L 594 3053 
L 172 3053 
L 172 3500 
L 594 3500 
L 594 4494 
L 1172 4494 
z
" transform="scale(0.015625)"/>
       <path id="DejaVuSans-75" d="M 544 1381 
L 544 3500 
L 1119 3500 
L 1119 1403 
Q 1119 906 1312 657 
Q 1506 409 1894 409 
Q 2359 409 2629 706 
Q 2900 1003 2900 1516 
L 2900 3500 
L 3475 3500 
L 3475 0 
L 2900 0 
L 2900 538 
Q 2691 219 2414 64 
Q 2138 -91 1772 -91 
Q 1169 -91 856 284 
Q 544 659 544 1381 
z
M 1991 3584 
L 1991 3584 
z
" transform="scale(0.015625)"/>
       <path id="DejaVuSans-6c" d="M 603 4863 
L 1178 4863 
L 1178 0 
L 603 0 
L 603 4863 
z
" transform="scale(0.015625)"/>
       <path id="DejaVuSans-70" d="M 1159 525 
L 1159 -1331 
L 581 -1331 
L 581 3500 
L 1159 3500 
L 1159 2969 
Q 1341 3281 1617 3432 
Q 1894 3584 2278 3584 
Q 2916 3584 3314 3078 
Q 3713 2572 3713 1747 
Q 3713 922 3314 415 
Q 2916 -91 2278 -91 
Q 1894 -91 1617 61 
Q 1341 213 1159 525 
z
M 3116 1747 
Q 3116 2381 2855 2742 
Q 2594 3103 2138 3103 
Q 1681 3103 1420 2742 
Q 1159 2381 1159 1747 
Q 1159 1113 1420 752 
Q 1681 391 2138 391 
Q 2594 391 2855 752 
Q 3116 1113 3116 1747 
z
" transform="scale(0.015625)"/>
       <path id="DejaVuSans-64" d="M 2906 2969 
L 2906 4863 
L 3481 4863 
L 3481 0 
L 2906 0 
L 2906 525 
Q 2725 213 2448 61 
Q 2172 -91 1784 -91 
Q 1150 -91 751 415 
Q 353 922 353 1747 
Q 353 2572 751 3078 
Q 1150 3584 1784 3584 
Q 2172 3584 2448 3432 
Q 2725 3281 2906 2969 
z
M 947 1747 
Q 947 1113 1208 752 
Q 1469 391 1925 391 
Q 2381 391 2643 752 
Q 2906 1113 2906 1747 
Q 2906 2381 2643 2742 
Q 2381 3103 1925 3103 
Q 1469 3103 1208 2742 
Q 947 2381 947 1747 
z
" transform="scale(0.015625)"/>
      </defs>
      <use xlink:href="#DejaVuSans-41"/>
      <use xlink:href="#DejaVuSans-63" x="66.658203"/>
      <use xlink:href="#DejaVuSans-74" x="121.638672"/>
      <use xlink:href="#DejaVuSans-75" x="160.847656"/>
      <use xlink:href="#DejaVuSans-61" x="224.226562"/>
      <use xlink:href="#DejaVuSans-6c" x="285.505859"/>
      <use xlink:href="#DejaVuSans-20" x="313.289062"/>
      <use xlink:href="#DejaVuSans-73" x="345.076172"/>
      <use xlink:href="#DejaVuSans-70" x="397.175781"/>
      <use xlink:href="#DejaVuSans-65" x="460.652344"/>
      <use xlink:href="#DejaVuSans-65" x="522.175781"/>
      <use xlink:href="#DejaVuSans-64" x="583.699219"/>
     </g>
    </g>
   </g>
  </g>
 </g>
 <defs>
  <clipPath id="pa4a1ff0d0c">
   <rect x="57.6" y="41.472" width="357.12" height="266.112"/>
  </clipPath>
 </defs>
</svg>
