<?xml version="1.0" encoding="utf-8" standalone="no"?>
<!DOCTYPE svg PUBLIC "-//W3C//DTD SVG 1.1//EN"
  "http://www.w3.org/Graphics/SVG/1.1/DTD/svg11.dtd">
<svg xmlns:xlink="http://www.w3.org/1999/xlink" width="460.8pt" height="345.6pt" viewBox="0 0 460.8 345.6" xmlns="http://www.w3.org/2000/svg" version="1.1">
 <metadata>
  <rdf:RDF xmlns:dc="http://purl.org/dc/elements/1.1/" xmlns:cc="http://creativecommons.org/ns#" xmlns:rdf="http://www.w3.org/1999/02/22-rdf-syntax-ns#">
   <cc:Work>
    <dc:type rdf:resource="http://purl.org/dc/dcmitype/StillImage"/>
    <dc:date>2024-01-30T20:59:00.525812</dc:date>
    <dc:format>image/svg+xml</dc:format>
    <dc:creator>
     <cc:Agent>
      <dc:title>Matplotlib v3.7.1, https://matplotlib.org/</dc:title>
     </cc:Agent>
    </dc:creator>
   </cc:Work>
  </rdf:RDF>
 </metadata>
 <defs>
  <style type="text/css">*{stroke-linejoin: round; stroke-linecap: butt}</style>
 </defs>
 <g id="figure_1">
  <g id="patch_1">
   <path d="M 0 345.6 
L 460.8 345.6 
L 460.8 0 
L 0 0 
z
" style="fill: #ffffff"/>
  </g>
  <g id="axes_1">
   <g id="patch_2">
    <path d="M 57.6 307.584 
L 414.72 307.584 
L 414.72 41.472 
L 57.6 41.472 
z
" style="fill: #ffffff"/>
   </g>
   <g id="matplotlib.axis_1">
    <g id="xtick_1">
     <g id="line2d_1">
      <path d="M 73.832727 307.584 
L 73.832727 41.472 
" clip-path="url(#p544538eb6e)" style="fill: none; stroke: #b0b0b0; stroke-width: 0.8; stroke-linecap: square"/>
     </g>
     <g id="line2d_2">
      <defs>
       <path id="mb0d9f13347" d="M 0 0 
L 0 3.5 
" style="stroke: #000000; stroke-width: 0.8"/>
      </defs>
      <g>
       <use xlink:href="#mb0d9f13347" x="73.832727" y="307.584" style="stroke: #000000; stroke-width: 0.8"/>
      </g>
     </g>
     <g id="text_1">
      <!-- 0 -->
      <g transform="translate(70.651477 322.182437) scale(0.1 -0.1)">
       <defs>
        <path id="DejaVuSans-30" d="M 2034 4250 
Q 1547 4250 1301 3770 
Q 1056 3291 1056 2328 
Q 1056 1369 1301 889 
Q 1547 409 2034 409 
Q 2525 409 2770 889 
Q 3016 1369 3016 2328 
Q 3016 3291 2770 3770 
Q 2525 4250 2034 4250 
z
M 2034 4750 
Q 2819 4750 3233 4129 
Q 3647 3509 3647 2328 
Q 3647 1150 3233 529 
Q 2819 -91 2034 -91 
Q 1250 -91 836 529 
Q 422 1150 422 2328 
Q 422 3509 836 4129 
Q 1250 4750 2034 4750 
z
" transform="scale(0.015625)"/>
       </defs>
       <use xlink:href="#DejaVuSans-30"/>
      </g>
     </g>
    </g>
    <g id="xtick_2">
     <g id="line2d_3">
      <path d="M 118.015436 307.584 
L 118.015436 41.472 
" clip-path="url(#p544538eb6e)" style="fill: none; stroke: #b0b0b0; stroke-width: 0.8; stroke-linecap: square"/>
     </g>
     <g id="line2d_4">
      <g>
       <use xlink:href="#mb0d9f13347" x="118.015436" y="307.584" style="stroke: #000000; stroke-width: 0.8"/>
      </g>
     </g>
     <g id="text_2">
      <!-- 5 -->
      <g transform="translate(114.834186 322.182437) scale(0.1 -0.1)">
       <defs>
        <path id="DejaVuSans-35" d="M 691 4666 
L 3169 4666 
L 3169 4134 
L 1269 4134 
L 1269 2991 
Q 1406 3038 1543 3061 
Q 1681 3084 1819 3084 
Q 2600 3084 3056 2656 
Q 3513 2228 3513 1497 
Q 3513 744 3044 326 
Q 2575 -91 1722 -91 
Q 1428 -91 1123 -41 
Q 819 9 494 109 
L 494 744 
Q 775 591 1075 516 
Q 1375 441 1709 441 
Q 2250 441 2565 725 
Q 2881 1009 2881 1497 
Q 2881 1984 2565 2268 
Q 2250 2553 1709 2553 
Q 1456 2553 1204 2497 
Q 953 2441 691 2322 
L 691 4666 
z
" transform="scale(0.015625)"/>
       </defs>
       <use xlink:href="#DejaVuSans-35"/>
      </g>
     </g>
    </g>
    <g id="xtick_3">
     <g id="line2d_5">
      <path d="M 162.198145 307.584 
L 162.198145 41.472 
" clip-path="url(#p544538eb6e)" style="fill: none; stroke: #b0b0b0; stroke-width: 0.8; stroke-linecap: square"/>
     </g>
     <g id="line2d_6">
      <g>
       <use xlink:href="#mb0d9f13347" x="162.198145" y="307.584" style="stroke: #000000; stroke-width: 0.8"/>
      </g>
     </g>
     <g id="text_3">
      <!-- 10 -->
      <g transform="translate(155.835645 322.182437) scale(0.1 -0.1)">
       <defs>
        <path id="DejaVuSans-31" d="M 794 531 
L 1825 531 
L 1825 4091 
L 703 3866 
L 703 4441 
L 1819 4666 
L 2450 4666 
L 2450 531 
L 3481 531 
L 3481 0 
L 794 0 
L 794 531 
z
" transform="scale(0.015625)"/>
       </defs>
       <use xlink:href="#DejaVuSans-31"/>
       <use xlink:href="#DejaVuSans-30" x="63.623047"/>
      </g>
     </g>
    </g>
    <g id="xtick_4">
     <g id="line2d_7">
      <path d="M 206.380854 307.584 
L 206.380854 41.472 
" clip-path="url(#p544538eb6e)" style="fill: none; stroke: #b0b0b0; stroke-width: 0.8; stroke-linecap: square"/>
     </g>
     <g id="line2d_8">
      <g>
       <use xlink:href="#mb0d9f13347" x="206.380854" y="307.584" style="stroke: #000000; stroke-width: 0.8"/>
      </g>
     </g>
     <g id="text_4">
      <!-- 15 -->
      <g transform="translate(200.018354 322.182437) scale(0.1 -0.1)">
       <use xlink:href="#DejaVuSans-31"/>
       <use xlink:href="#DejaVuSans-35" x="63.623047"/>
      </g>
     </g>
    </g>
    <g id="xtick_5">
     <g id="line2d_9">
      <path d="M 250.563563 307.584 
L 250.563563 41.472 
" clip-path="url(#p544538eb6e)" style="fill: none; stroke: #b0b0b0; stroke-width: 0.8; stroke-linecap: square"/>
     </g>
     <g id="line2d_10">
      <g>
       <use xlink:href="#mb0d9f13347" x="250.563563" y="307.584" style="stroke: #000000; stroke-width: 0.8"/>
      </g>
     </g>
     <g id="text_5">
      <!-- 20 -->
      <g transform="translate(244.201063 322.182437) scale(0.1 -0.1)">
       <defs>
        <path id="DejaVuSans-32" d="M 1228 531 
L 3431 531 
L 3431 0 
L 469 0 
L 469 531 
Q 828 903 1448 1529 
Q 2069 2156 2228 2338 
Q 2531 2678 2651 2914 
Q 2772 3150 2772 3378 
Q 2772 3750 2511 3984 
Q 2250 4219 1831 4219 
Q 1534 4219 1204 4116 
Q 875 4013 500 3803 
L 500 4441 
Q 881 4594 1212 4672 
Q 1544 4750 1819 4750 
Q 2544 4750 2975 4387 
Q 3406 4025 3406 3419 
Q 3406 3131 3298 2873 
Q 3191 2616 2906 2266 
Q 2828 2175 2409 1742 
Q 1991 1309 1228 531 
z
" transform="scale(0.015625)"/>
       </defs>
       <use xlink:href="#DejaVuSans-32"/>
       <use xlink:href="#DejaVuSans-30" x="63.623047"/>
      </g>
     </g>
    </g>
    <g id="xtick_6">
     <g id="line2d_11">
      <path d="M 294.746272 307.584 
L 294.746272 41.472 
" clip-path="url(#p544538eb6e)" style="fill: none; stroke: #b0b0b0; stroke-width: 0.8; stroke-linecap: square"/>
     </g>
     <g id="line2d_12">
      <g>
       <use xlink:href="#mb0d9f13347" x="294.746272" y="307.584" style="stroke: #000000; stroke-width: 0.8"/>
      </g>
     </g>
     <g id="text_6">
      <!-- 25 -->
      <g transform="translate(288.383772 322.182437) scale(0.1 -0.1)">
       <use xlink:href="#DejaVuSans-32"/>
       <use xlink:href="#DejaVuSans-35" x="63.623047"/>
      </g>
     </g>
    </g>
    <g id="xtick_7">
     <g id="line2d_13">
      <path d="M 338.928981 307.584 
L 338.928981 41.472 
" clip-path="url(#p544538eb6e)" style="fill: none; stroke: #b0b0b0; stroke-width: 0.8; stroke-linecap: square"/>
     </g>
     <g id="line2d_14">
      <g>
       <use xlink:href="#mb0d9f13347" x="338.928981" y="307.584" style="stroke: #000000; stroke-width: 0.8"/>
      </g>
     </g>
     <g id="text_7">
      <!-- 30 -->
      <g transform="translate(332.566481 322.182437) scale(0.1 -0.1)">
       <defs>
        <path id="DejaVuSans-33" d="M 2597 2516 
Q 3050 2419 3304 2112 
Q 3559 1806 3559 1356 
Q 3559 666 3084 287 
Q 2609 -91 1734 -91 
Q 1441 -91 1130 -33 
Q 819 25 488 141 
L 488 750 
Q 750 597 1062 519 
Q 1375 441 1716 441 
Q 2309 441 2620 675 
Q 2931 909 2931 1356 
Q 2931 1769 2642 2001 
Q 2353 2234 1838 2234 
L 1294 2234 
L 1294 2753 
L 1863 2753 
Q 2328 2753 2575 2939 
Q 2822 3125 2822 3475 
Q 2822 3834 2567 4026 
Q 2313 4219 1838 4219 
Q 1578 4219 1281 4162 
Q 984 4106 628 3988 
L 628 4550 
Q 988 4650 1302 4700 
Q 1616 4750 1894 4750 
Q 2613 4750 3031 4423 
Q 3450 4097 3450 3541 
Q 3450 3153 3228 2886 
Q 3006 2619 2597 2516 
z
" transform="scale(0.015625)"/>
       </defs>
       <use xlink:href="#DejaVuSans-33"/>
       <use xlink:href="#DejaVuSans-30" x="63.623047"/>
      </g>
     </g>
    </g>
    <g id="xtick_8">
     <g id="line2d_15">
      <path d="M 383.11169 307.584 
L 383.11169 41.472 
" clip-path="url(#p544538eb6e)" style="fill: none; stroke: #b0b0b0; stroke-width: 0.8; stroke-linecap: square"/>
     </g>
     <g id="line2d_16">
      <g>
       <use xlink:href="#mb0d9f13347" x="383.11169" y="307.584" style="stroke: #000000; stroke-width: 0.8"/>
      </g>
     </g>
     <g id="text_8">
      <!-- 35 -->
      <g transform="translate(376.74919 322.182437) scale(0.1 -0.1)">
       <use xlink:href="#DejaVuSans-33"/>
       <use xlink:href="#DejaVuSans-35" x="63.623047"/>
      </g>
     </g>
    </g>
    <g id="text_9">
     <!-- Time(s) -->
     <g transform="translate(217.420156 335.860562) scale(0.1 -0.1)">
      <defs>
       <path id="DejaVuSans-54" d="M -19 4666 
L 3928 4666 
L 3928 4134 
L 2272 4134 
L 2272 0 
L 1638 0 
L 1638 4134 
L -19 4134 
L -19 4666 
z
" transform="scale(0.015625)"/>
       <path id="DejaVuSans-69" d="M 603 3500 
L 1178 3500 
L 1178 0 
L 603 0 
L 603 3500 
z
M 603 4863 
L 1178 4863 
L 1178 4134 
L 603 4134 
L 603 4863 
z
" transform="scale(0.015625)"/>
       <path id="DejaVuSans-6d" d="M 3328 2828 
Q 3544 3216 3844 3400 
Q 4144 3584 4550 3584 
Q 5097 3584 5394 3201 
Q 5691 2819 5691 2113 
L 5691 0 
L 5113 0 
L 5113 2094 
Q 5113 2597 4934 2840 
Q 4756 3084 4391 3084 
Q 3944 3084 3684 2787 
Q 3425 2491 3425 1978 
L 3425 0 
L 2847 0 
L 2847 2094 
Q 2847 2600 2669 2842 
Q 2491 3084 2119 3084 
Q 1678 3084 1418 2786 
Q 1159 2488 1159 1978 
L 1159 0 
L 581 0 
L 581 3500 
L 1159 3500 
L 1159 2956 
Q 1356 3278 1631 3431 
Q 1906 3584 2284 3584 
Q 2666 3584 2933 3390 
Q 3200 3197 3328 2828 
z
" transform="scale(0.015625)"/>
       <path id="DejaVuSans-65" d="M 3597 1894 
L 3597 1613 
L 953 1613 
Q 991 1019 1311 708 
Q 1631 397 2203 397 
Q 2534 397 2845 478 
Q 3156 559 3463 722 
L 3463 178 
Q 3153 47 2828 -22 
Q 2503 -91 2169 -91 
Q 1331 -91 842 396 
Q 353 884 353 1716 
Q 353 2575 817 3079 
Q 1281 3584 2069 3584 
Q 2775 3584 3186 3129 
Q 3597 2675 3597 1894 
z
M 3022 2063 
Q 3016 2534 2758 2815 
Q 2500 3097 2075 3097 
Q 1594 3097 1305 2825 
Q 1016 2553 972 2059 
L 3022 2063 
z
" transform="scale(0.015625)"/>
       <path id="DejaVuSans-28" d="M 1984 4856 
Q 1566 4138 1362 3434 
Q 1159 2731 1159 2009 
Q 1159 1288 1364 580 
Q 1569 -128 1984 -844 
L 1484 -844 
Q 1016 -109 783 600 
Q 550 1309 550 2009 
Q 550 2706 781 3412 
Q 1013 4119 1484 4856 
L 1984 4856 
z
" transform="scale(0.015625)"/>
       <path id="DejaVuSans-73" d="M 2834 3397 
L 2834 2853 
Q 2591 2978 2328 3040 
Q 2066 3103 1784 3103 
Q 1356 3103 1142 2972 
Q 928 2841 928 2578 
Q 928 2378 1081 2264 
Q 1234 2150 1697 2047 
L 1894 2003 
Q 2506 1872 2764 1633 
Q 3022 1394 3022 966 
Q 3022 478 2636 193 
Q 2250 -91 1575 -91 
Q 1294 -91 989 -36 
Q 684 19 347 128 
L 347 722 
Q 666 556 975 473 
Q 1284 391 1588 391 
Q 1994 391 2212 530 
Q 2431 669 2431 922 
Q 2431 1156 2273 1281 
Q 2116 1406 1581 1522 
L 1381 1569 
Q 847 1681 609 1914 
Q 372 2147 372 2553 
Q 372 3047 722 3315 
Q 1072 3584 1716 3584 
Q 2034 3584 2315 3537 
Q 2597 3491 2834 3397 
z
" transform="scale(0.015625)"/>
       <path id="DejaVuSans-29" d="M 513 4856 
L 1013 4856 
Q 1481 4119 1714 3412 
Q 1947 2706 1947 2009 
Q 1947 1309 1714 600 
Q 1481 -109 1013 -844 
L 513 -844 
Q 928 -128 1133 580 
Q 1338 1288 1338 2009 
Q 1338 2731 1133 3434 
Q 928 4138 513 4856 
z
" transform="scale(0.015625)"/>
      </defs>
      <use xlink:href="#DejaVuSans-54"/>
      <use xlink:href="#DejaVuSans-69" x="57.958984"/>
      <use xlink:href="#DejaVuSans-6d" x="85.742188"/>
      <use xlink:href="#DejaVuSans-65" x="183.154297"/>
      <use xlink:href="#DejaVuSans-28" x="244.677734"/>
      <use xlink:href="#DejaVuSans-73" x="283.691406"/>
      <use xlink:href="#DejaVuSans-29" x="335.791016"/>
     </g>
    </g>
   </g>
   <g id="matplotlib.axis_2">
    <g id="ytick_1">
     <g id="line2d_17">
      <path d="M 57.6 295.488 
L 414.72 295.488 
" clip-path="url(#p544538eb6e)" style="fill: none; stroke: #b0b0b0; stroke-width: 0.8; stroke-linecap: square"/>
     </g>
     <g id="line2d_18">
      <defs>
       <path id="m4d14cb31b9" d="M 0 0 
L -3.5 0 
" style="stroke: #000000; stroke-width: 0.8"/>
      </defs>
      <g>
       <use xlink:href="#m4d14cb31b9" x="57.6" y="295.488" style="stroke: #000000; stroke-width: 0.8"/>
      </g>
     </g>
     <g id="text_10">
      <!-- 0.000 -->
      <g transform="translate(21.971875 299.287219) scale(0.1 -0.1)">
       <defs>
        <path id="DejaVuSans-2e" d="M 684 794 
L 1344 794 
L 1344 0 
L 684 0 
L 684 794 
z
" transform="scale(0.015625)"/>
       </defs>
       <use xlink:href="#DejaVuSans-30"/>
       <use xlink:href="#DejaVuSans-2e" x="63.623047"/>
       <use xlink:href="#DejaVuSans-30" x="95.410156"/>
       <use xlink:href="#DejaVuSans-30" x="159.033203"/>
       <use xlink:href="#DejaVuSans-30" x="222.65625"/>
      </g>
     </g>
    </g>
    <g id="ytick_2">
     <g id="line2d_19">
      <path d="M 57.6 261.568402 
L 414.72 261.568402 
" clip-path="url(#p544538eb6e)" style="fill: none; stroke: #b0b0b0; stroke-width: 0.8; stroke-linecap: square"/>
     </g>
     <g id="line2d_20">
      <g>
       <use xlink:href="#m4d14cb31b9" x="57.6" y="261.568402" style="stroke: #000000; stroke-width: 0.8"/>
      </g>
     </g>
     <g id="text_11">
      <!-- 0.025 -->
      <g transform="translate(21.971875 265.367621) scale(0.1 -0.1)">
       <use xlink:href="#DejaVuSans-30"/>
       <use xlink:href="#DejaVuSans-2e" x="63.623047"/>
       <use xlink:href="#DejaVuSans-30" x="95.410156"/>
       <use xlink:href="#DejaVuSans-32" x="159.033203"/>
       <use xlink:href="#DejaVuSans-35" x="222.65625"/>
      </g>
     </g>
    </g>
    <g id="ytick_3">
     <g id="line2d_21">
      <path d="M 57.6 227.648804 
L 414.72 227.648804 
" clip-path="url(#p544538eb6e)" style="fill: none; stroke: #b0b0b0; stroke-width: 0.8; stroke-linecap: square"/>
     </g>
     <g id="line2d_22">
      <g>
       <use xlink:href="#m4d14cb31b9" x="57.6" y="227.648804" style="stroke: #000000; stroke-width: 0.8"/>
      </g>
     </g>
     <g id="text_12">
      <!-- 0.050 -->
      <g transform="translate(21.971875 231.448023) scale(0.1 -0.1)">
       <use xlink:href="#DejaVuSans-30"/>
       <use xlink:href="#DejaVuSans-2e" x="63.623047"/>
       <use xlink:href="#DejaVuSans-30" x="95.410156"/>
       <use xlink:href="#DejaVuSans-35" x="159.033203"/>
       <use xlink:href="#DejaVuSans-30" x="222.65625"/>
      </g>
     </g>
    </g>
    <g id="ytick_4">
     <g id="line2d_23">
      <path d="M 57.6 193.729206 
L 414.72 193.729206 
" clip-path="url(#p544538eb6e)" style="fill: none; stroke: #b0b0b0; stroke-width: 0.8; stroke-linecap: square"/>
     </g>
     <g id="line2d_24">
      <g>
       <use xlink:href="#m4d14cb31b9" x="57.6" y="193.729206" style="stroke: #000000; stroke-width: 0.8"/>
      </g>
     </g>
     <g id="text_13">
      <!-- 0.075 -->
      <g transform="translate(21.971875 197.528425) scale(0.1 -0.1)">
       <defs>
        <path id="DejaVuSans-37" d="M 525 4666 
L 3525 4666 
L 3525 4397 
L 1831 0 
L 1172 0 
L 2766 4134 
L 525 4134 
L 525 4666 
z
" transform="scale(0.015625)"/>
       </defs>
       <use xlink:href="#DejaVuSans-30"/>
       <use xlink:href="#DejaVuSans-2e" x="63.623047"/>
       <use xlink:href="#DejaVuSans-30" x="95.410156"/>
       <use xlink:href="#DejaVuSans-37" x="159.033203"/>
       <use xlink:href="#DejaVuSans-35" x="222.65625"/>
      </g>
     </g>
    </g>
    <g id="ytick_5">
     <g id="line2d_25">
      <path d="M 57.6 159.809608 
L 414.72 159.809608 
" clip-path="url(#p544538eb6e)" style="fill: none; stroke: #b0b0b0; stroke-width: 0.8; stroke-linecap: square"/>
     </g>
     <g id="line2d_26">
      <g>
       <use xlink:href="#m4d14cb31b9" x="57.6" y="159.809608" style="stroke: #000000; stroke-width: 0.8"/>
      </g>
     </g>
     <g id="text_14">
      <!-- 0.100 -->
      <g transform="translate(21.971875 163.608827) scale(0.1 -0.1)">
       <use xlink:href="#DejaVuSans-30"/>
       <use xlink:href="#DejaVuSans-2e" x="63.623047"/>
       <use xlink:href="#DejaVuSans-31" x="95.410156"/>
       <use xlink:href="#DejaVuSans-30" x="159.033203"/>
       <use xlink:href="#DejaVuSans-30" x="222.65625"/>
      </g>
     </g>
    </g>
    <g id="ytick_6">
     <g id="line2d_27">
      <path d="M 57.6 125.89001 
L 414.72 125.89001 
" clip-path="url(#p544538eb6e)" style="fill: none; stroke: #b0b0b0; stroke-width: 0.8; stroke-linecap: square"/>
     </g>
     <g id="line2d_28">
      <g>
       <use xlink:href="#m4d14cb31b9" x="57.6" y="125.89001" style="stroke: #000000; stroke-width: 0.8"/>
      </g>
     </g>
     <g id="text_15">
      <!-- 0.125 -->
      <g transform="translate(21.971875 129.689229) scale(0.1 -0.1)">
       <use xlink:href="#DejaVuSans-30"/>
       <use xlink:href="#DejaVuSans-2e" x="63.623047"/>
       <use xlink:href="#DejaVuSans-31" x="95.410156"/>
       <use xlink:href="#DejaVuSans-32" x="159.033203"/>
       <use xlink:href="#DejaVuSans-35" x="222.65625"/>
      </g>
     </g>
    </g>
    <g id="ytick_7">
     <g id="line2d_29">
      <path d="M 57.6 91.970412 
L 414.72 91.970412 
" clip-path="url(#p544538eb6e)" style="fill: none; stroke: #b0b0b0; stroke-width: 0.8; stroke-linecap: square"/>
     </g>
     <g id="line2d_30">
      <g>
       <use xlink:href="#m4d14cb31b9" x="57.6" y="91.970412" style="stroke: #000000; stroke-width: 0.8"/>
      </g>
     </g>
     <g id="text_16">
      <!-- 0.150 -->
      <g transform="translate(21.971875 95.769631) scale(0.1 -0.1)">
       <use xlink:href="#DejaVuSans-30"/>
       <use xlink:href="#DejaVuSans-2e" x="63.623047"/>
       <use xlink:href="#DejaVuSans-31" x="95.410156"/>
       <use xlink:href="#DejaVuSans-35" x="159.033203"/>
       <use xlink:href="#DejaVuSans-30" x="222.65625"/>
      </g>
     </g>
    </g>
    <g id="ytick_8">
     <g id="line2d_31">
      <path d="M 57.6 58.050814 
L 414.72 58.050814 
" clip-path="url(#p544538eb6e)" style="fill: none; stroke: #b0b0b0; stroke-width: 0.8; stroke-linecap: square"/>
     </g>
     <g id="line2d_32">
      <g>
       <use xlink:href="#m4d14cb31b9" x="57.6" y="58.050814" style="stroke: #000000; stroke-width: 0.8"/>
      </g>
     </g>
     <g id="text_17">
      <!-- 0.175 -->
      <g transform="translate(21.971875 61.850033) scale(0.1 -0.1)">
       <use xlink:href="#DejaVuSans-30"/>
       <use xlink:href="#DejaVuSans-2e" x="63.623047"/>
       <use xlink:href="#DejaVuSans-31" x="95.410156"/>
       <use xlink:href="#DejaVuSans-37" x="159.033203"/>
       <use xlink:href="#DejaVuSans-35" x="222.65625"/>
      </g>
     </g>
    </g>
    <g id="text_18">
     <!-- Tracking error(m) -->
     <g transform="translate(15.892187 217.803781) rotate(-90) scale(0.1 -0.1)">
      <defs>
       <path id="DejaVuSans-72" d="M 2631 2963 
Q 2534 3019 2420 3045 
Q 2306 3072 2169 3072 
Q 1681 3072 1420 2755 
Q 1159 2438 1159 1844 
L 1159 0 
L 581 0 
L 581 3500 
L 1159 3500 
L 1159 2956 
Q 1341 3275 1631 3429 
Q 1922 3584 2338 3584 
Q 2397 3584 2469 3576 
Q 2541 3569 2628 3553 
L 2631 2963 
z
" transform="scale(0.015625)"/>
       <path id="DejaVuSans-61" d="M 2194 1759 
Q 1497 1759 1228 1600 
Q 959 1441 959 1056 
Q 959 750 1161 570 
Q 1363 391 1709 391 
Q 2188 391 2477 730 
Q 2766 1069 2766 1631 
L 2766 1759 
L 2194 1759 
z
M 3341 1997 
L 3341 0 
L 2766 0 
L 2766 531 
Q 2569 213 2275 61 
Q 1981 -91 1556 -91 
Q 1019 -91 701 211 
Q 384 513 384 1019 
Q 384 1609 779 1909 
Q 1175 2209 1959 2209 
L 2766 2209 
L 2766 2266 
Q 2766 2663 2505 2880 
Q 2244 3097 1772 3097 
Q 1472 3097 1187 3025 
Q 903 2953 641 2809 
L 641 3341 
Q 956 3463 1253 3523 
Q 1550 3584 1831 3584 
Q 2591 3584 2966 3190 
Q 3341 2797 3341 1997 
z
" transform="scale(0.015625)"/>
       <path id="DejaVuSans-63" d="M 3122 3366 
L 3122 2828 
Q 2878 2963 2633 3030 
Q 2388 3097 2138 3097 
Q 1578 3097 1268 2742 
Q 959 2388 959 1747 
Q 959 1106 1268 751 
Q 1578 397 2138 397 
Q 2388 397 2633 464 
Q 2878 531 3122 666 
L 3122 134 
Q 2881 22 2623 -34 
Q 2366 -91 2075 -91 
Q 1284 -91 818 406 
Q 353 903 353 1747 
Q 353 2603 823 3093 
Q 1294 3584 2113 3584 
Q 2378 3584 2631 3529 
Q 2884 3475 3122 3366 
z
" transform="scale(0.015625)"/>
       <path id="DejaVuSans-6b" d="M 581 4863 
L 1159 4863 
L 1159 1991 
L 2875 3500 
L 3609 3500 
L 1753 1863 
L 3688 0 
L 2938 0 
L 1159 1709 
L 1159 0 
L 581 0 
L 581 4863 
z
" transform="scale(0.015625)"/>
       <path id="DejaVuSans-6e" d="M 3513 2113 
L 3513 0 
L 2938 0 
L 2938 2094 
Q 2938 2591 2744 2837 
Q 2550 3084 2163 3084 
Q 1697 3084 1428 2787 
Q 1159 2491 1159 1978 
L 1159 0 
L 581 0 
L 581 3500 
L 1159 3500 
L 1159 2956 
Q 1366 3272 1645 3428 
Q 1925 3584 2291 3584 
Q 2894 3584 3203 3211 
Q 3513 2838 3513 2113 
z
" transform="scale(0.015625)"/>
       <path id="DejaVuSans-67" d="M 2906 1791 
Q 2906 2416 2648 2759 
Q 2391 3103 1925 3103 
Q 1463 3103 1205 2759 
Q 947 2416 947 1791 
Q 947 1169 1205 825 
Q 1463 481 1925 481 
Q 2391 481 2648 825 
Q 2906 1169 2906 1791 
z
M 3481 434 
Q 3481 -459 3084 -895 
Q 2688 -1331 1869 -1331 
Q 1566 -1331 1297 -1286 
Q 1028 -1241 775 -1147 
L 775 -588 
Q 1028 -725 1275 -790 
Q 1522 -856 1778 -856 
Q 2344 -856 2625 -561 
Q 2906 -266 2906 331 
L 2906 616 
Q 2728 306 2450 153 
Q 2172 0 1784 0 
Q 1141 0 747 490 
Q 353 981 353 1791 
Q 353 2603 747 3093 
Q 1141 3584 1784 3584 
Q 2172 3584 2450 3431 
Q 2728 3278 2906 2969 
L 2906 3500 
L 3481 3500 
L 3481 434 
z
" transform="scale(0.015625)"/>
       <path id="DejaVuSans-20" transform="scale(0.015625)"/>
       <path id="DejaVuSans-6f" d="M 1959 3097 
Q 1497 3097 1228 2736 
Q 959 2375 959 1747 
Q 959 1119 1226 758 
Q 1494 397 1959 397 
Q 2419 397 2687 759 
Q 2956 1122 2956 1747 
Q 2956 2369 2687 2733 
Q 2419 3097 1959 3097 
z
M 1959 3584 
Q 2709 3584 3137 3096 
Q 3566 2609 3566 1747 
Q 3566 888 3137 398 
Q 2709 -91 1959 -91 
Q 1206 -91 779 398 
Q 353 888 353 1747 
Q 353 2609 779 3096 
Q 1206 3584 1959 3584 
z
" transform="scale(0.015625)"/>
      </defs>
      <use xlink:href="#DejaVuSans-54"/>
      <use xlink:href="#DejaVuSans-72" x="46.333984"/>
      <use xlink:href="#DejaVuSans-61" x="87.447266"/>
      <use xlink:href="#DejaVuSans-63" x="148.726562"/>
      <use xlink:href="#DejaVuSans-6b" x="203.707031"/>
      <use xlink:href="#DejaVuSans-69" x="261.617188"/>
      <use xlink:href="#DejaVuSans-6e" x="289.400391"/>
      <use xlink:href="#DejaVuSans-67" x="352.779297"/>
      <use xlink:href="#DejaVuSans-20" x="416.255859"/>
      <use xlink:href="#DejaVuSans-65" x="448.042969"/>
      <use xlink:href="#DejaVuSans-72" x="509.566406"/>
      <use xlink:href="#DejaVuSans-72" x="548.929688"/>
      <use xlink:href="#DejaVuSans-6f" x="587.792969"/>
      <use xlink:href="#DejaVuSans-72" x="648.974609"/>
      <use xlink:href="#DejaVuSans-28" x="690.087891"/>
      <use xlink:href="#DejaVuSans-6d" x="729.101562"/>
      <use xlink:href="#DejaVuSans-29" x="826.513672"/>
     </g>
    </g>
   </g>
   <g id="line2d_33">
    <path d="M 73.832727 229.925487 
L 74.009458 230.171065 
L 74.009458 230.171065 
L 74.36292 246.917849 
L 74.36292 246.917849 
L 75.069843 274.879809 
L 75.069843 274.879809 
L 75.600036 295.471719 
L 75.600036 295.471719 
L 76.130228 280.67599 
L 76.130228 280.67599 
L 76.48369 275.323477 
L 76.48369 275.323477 
L 76.837151 272.984382 
L 76.837151 272.984382 
L 77.013882 273.026442 
L 77.013882 273.026442 
L 77.190613 273.528452 
L 77.190613 273.528452 
L 77.720806 276.642271 
L 77.720806 276.642271 
L 78.250998 279.324633 
L 78.250998 279.324633 
L 79.841576 285.83991 
L 79.841576 285.83991 
L 80.371768 288.173578 
L 80.371768 288.173578 
L 80.72523 288.686442 
L 80.72523 288.686442 
L 81.432153 289.516794 
L 81.432153 289.516794 
L 82.139077 290.508603 
L 82.139077 290.508603 
L 82.492538 290.889859 
L 82.492538 290.889859 
L 83.199462 292.450161 
L 83.199462 292.450161 
L 83.376192 292.606191 
L 83.376192 292.606191 
L 83.552923 292.516643 
L 83.552923 292.516643 
L 83.729654 292.120462 
L 83.729654 292.120462 
L 84.083116 290.225035 
L 84.083116 290.225035 
L 84.790039 284.799256 
L 84.790039 284.799256 
L 85.496962 279.48202 
L 85.496962 279.48202 
L 85.850424 278.336894 
L 85.850424 278.336894 
L 86.027155 278.43594 
L 86.027155 278.43594 
L 86.380617 280.031518 
L 86.380617 280.031518 
L 86.734078 282.557849 
L 86.734078 282.557849 
L 88.147925 295.409307 
L 88.147925 295.409307 
L 88.324656 295.095889 
L 88.324656 295.095889 
L 88.501387 295.082322 
L 88.501387 295.082322 
L 88.678117 295.360462 
L 88.678117 295.360462 
L 88.854848 294.937146 
L 88.854848 294.937146 
L 89.20831 293.082422 
L 89.20831 293.082422 
L 89.915233 288.457146 
L 89.915233 288.457146 
L 90.445426 286.632271 
L 90.445426 286.632271 
L 90.622157 286.450462 
L 90.622157 286.450462 
L 90.975618 286.400261 
L 90.975618 286.400261 
L 91.505811 285.309407 
L 91.505811 285.309407 
L 91.859273 284.734131 
L 91.859273 284.734131 
L 92.212734 283.878 
L 92.212734 283.878 
L 92.566196 283.215889 
L 92.566196 283.215889 
L 93.44985 280.517246 
L 93.44985 280.517246 
L 94.333504 275.410312 
L 94.333504 275.410312 
L 95.393889 266.568151 
L 95.393889 266.568151 
L 95.57062 266.32393 
L 95.57062 266.32393 
L 96.454274 258.928101 
L 96.454274 258.928101 
L 96.984467 251.609608 
L 96.984467 251.609608 
L 97.69139 237.117799 
L 97.69139 237.117799 
L 97.868121 237.482774 
L 97.868121 237.482774 
L 98.044852 234.154583 
L 98.044852 234.154583 
L 98.221583 235.61991 
L 98.221583 235.61991 
L 98.398313 233.777397 
L 98.398313 233.777397 
L 98.575044 235.195236 
L 98.575044 235.195236 
L 98.751775 233.911719 
L 98.751775 233.911719 
L 98.928506 230.960714 
L 98.928506 230.960714 
L 99.105237 235.569709 
L 99.105237 235.569709 
L 99.281968 233.724482 
L 99.281968 233.724482 
L 99.458698 237.731065 
L 99.458698 237.731065 
L 99.635429 236.292874 
L 99.635429 236.292874 
L 99.81216 239.866643 
L 99.81216 239.866643 
L 99.988891 239.102774 
L 99.988891 239.102774 
L 100.165622 242.132472 
L 100.165622 242.132472 
L 100.342353 242.284432 
L 100.342353 242.284432 
L 100.519083 240.303528 
L 100.519083 240.303528 
L 100.695814 247.031819 
L 100.695814 247.031819 
L 100.872545 246.369709 
L 100.872545 246.369709 
L 101.049276 252.98403 
L 101.049276 252.98403 
L 101.226007 253.686844 
L 101.226007 253.686844 
L 101.402738 260.093578 
L 101.402738 260.093578 
L 101.579469 261.738 
L 101.579469 261.738 
L 101.756199 266.854432 
L 101.756199 266.854432 
L 101.93293 268.186794 
L 101.93293 268.186794 
L 102.109661 270.694131 
L 102.109661 270.694131 
L 102.286392 270.008955 
L 102.286392 270.008955 
L 102.463123 264.925085 
L 102.463123 264.925085 
L 102.639854 264.661869 
L 102.639854 264.661869 
L 102.816584 255.460161 
L 102.816584 255.460161 
L 102.993315 254.742422 
L 102.993315 254.742422 
L 103.170046 245.177095 
L 103.170046 245.177095 
L 103.346777 245.498653 
L 103.346777 245.498653 
L 103.523508 238.492221 
L 103.523508 238.492221 
L 103.700239 240.230261 
L 103.700239 240.230261 
L 103.876969 236.560161 
L 103.876969 236.560161 
L 104.0537 239.436543 
L 104.0537 239.436543 
L 104.230431 238.961668 
L 104.230431 238.961668 
L 104.407162 236.579156 
L 104.407162 236.579156 
L 104.583893 246.376492 
L 104.583893 246.376492 
L 104.760624 247.684432 
L 104.760624 247.684432 
L 104.937354 258.428804 
L 104.937354 258.428804 
L 105.114085 262.363477 
L 105.114085 262.363477 
L 105.644278 292.840915 
L 105.644278 292.840915 
L 105.821009 295.488 
L 105.821009 295.488 
L 106.527932 238.256141 
L 106.527932 238.256141 
L 107.765048 156.599457 
L 107.765048 156.599457 
L 108.118509 143.096744 
L 108.118509 143.096744 
L 108.29524 143.001769 
L 108.29524 143.001769 
L 108.648702 141.262372 
L 108.648702 141.262372 
L 109.355625 178.838503 
L 109.355625 178.838503 
L 110.769472 268.340111 
L 110.769472 268.340111 
L 111.299664 281.903879 
L 111.299664 281.903879 
L 111.476395 295.488 
L 111.476395 295.488 
L 111.653126 284.709709 
L 111.653126 284.709709 
L 111.829857 290.295588 
L 111.829857 290.295588 
L 112.006588 291.570965 
L 112.183319 291.500412 
L 112.183319 291.500412 
L 112.360049 293.585789 
L 112.360049 293.585789 
L 112.53678 292.583126 
L 112.53678 292.583126 
L 112.890242 285.594332 
L 112.890242 285.594332 
L 113.066973 284.195487 
L 113.066973 284.195487 
L 113.420435 275.308553 
L 113.420435 275.308553 
L 113.597165 273.023729 
L 113.597165 273.023729 
L 113.950627 262.104332 
L 113.950627 262.104332 
L 114.127358 259.107196 
L 114.127358 259.107196 
L 114.48082 247.098302 
L 114.48082 247.098302 
L 114.65755 243.342724 
L 114.65755 243.342724 
L 115.011012 229.717899 
L 115.011012 229.717899 
L 115.187743 224.226995 
L 115.187743 224.226995 
L 116.424859 163.875889 
L 116.424859 163.875889 
L 117.131782 137.026492 
L 117.131782 137.026492 
L 117.485244 129.50991 
L 117.485244 129.50991 
L 117.838705 122.245688 
L 117.838705 122.245688 
L 118.015436 124.289005 
L 118.015436 124.289005 
L 118.192167 122.894231 
L 118.192167 122.894231 
L 118.368898 125.827598 
L 118.368898 125.827598 
L 118.72236 127.131467 
L 118.72236 127.131467 
L 119.606014 161.057849 
L 119.606014 161.057849 
L 121.196591 289.017497 
L 121.196591 289.017497 
L 121.373322 292.218151 
L 121.373322 292.218151 
L 121.726784 269.657548 
L 121.726784 269.657548 
L 122.080245 253.164482 
L 122.080245 253.164482 
L 122.256976 250.970563 
L 122.256976 250.970563 
L 122.433707 243.102573 
L 122.433707 243.102573 
L 122.610438 242.718603 
L 122.610438 242.718603 
L 122.787169 238.155739 
L 122.787169 238.155739 
L 122.9639 239.013226 
L 122.9639 239.013226 
L 123.14063 242.121618 
L 123.14063 242.121618 
L 123.317361 237.657799 
L 123.317361 237.657799 
L 123.494092 240.703779 
L 123.494092 240.703779 
L 123.670823 237.869457 
L 123.670823 237.869457 
L 123.847554 240.10408 
L 123.847554 240.10408 
L 124.024285 237.953578 
L 124.024285 237.953578 
L 124.201015 239.367347 
L 124.201015 239.367347 
L 124.377746 242.825789 
L 124.554477 239.869357 
L 124.554477 239.869357 
L 124.731208 243.152774 
L 124.731208 243.152774 
L 124.907939 241.516492 
L 124.907939 241.516492 
L 125.08467 244.475638 
L 125.08467 244.475638 
L 125.261401 249.559508 
L 125.261401 249.559508 
L 125.438131 247.878452 
L 125.438131 247.878452 
L 125.614862 252.612271 
L 125.614862 252.612271 
L 125.791593 252.415538 
L 125.791593 252.415538 
L 125.968324 256.724683 
L 125.968324 256.724683 
L 126.145055 257.744985 
L 126.145055 257.744985 
L 126.498516 267.241116 
L 126.498516 267.241116 
L 126.675247 266.961618 
L 126.675247 266.961618 
L 126.851978 271.315538 
L 126.851978 271.315538 
L 127.028709 271.405085 
L 127.028709 271.405085 
L 127.382171 278.791417 
L 127.382171 278.791417 
L 127.558901 276.520161 
L 127.558901 276.520161 
L 127.735632 278.948804 
L 127.735632 278.948804 
L 127.912363 276.969256 
L 127.912363 276.969256 
L 128.089094 278.266342 
L 128.089094 278.266342 
L 128.265825 281.224131 
L 128.265825 281.224131 
L 128.442556 278.560764 
L 128.619286 280.591869 
L 128.619286 280.591869 
L 128.796017 278.962372 
L 128.796017 278.962372 
L 128.972748 280.514533 
L 128.972748 280.514533 
L 129.149479 283.244382 
L 129.149479 283.244382 
L 129.32621 280.391065 
L 129.32621 280.391065 
L 129.502941 282.419457 
L 129.502941 282.419457 
L 129.679671 281.228201 
L 129.679671 281.228201 
L 129.856402 282.774935 
L 129.856402 282.774935 
L 130.033133 285.390814 
L 130.033133 285.390814 
L 130.209864 283.068 
L 130.209864 283.068 
L 130.386595 284.647296 
L 130.386595 284.647296 
L 130.563326 287.485688 
L 130.563326 287.485688 
L 130.740056 283.922774 
L 130.740056 283.922774 
L 130.916787 285.521065 
L 130.916787 285.521065 
L 131.093518 282.628402 
L 131.093518 282.628402 
L 131.270249 282.84006 
L 131.270249 282.84006 
L 131.44698 284.287749 
L 131.44698 284.287749 
L 131.623711 280.29609 
L 131.623711 280.29609 
L 131.800441 280.918854 
L 131.800441 280.918854 
L 131.977172 278.106241 
L 131.977172 278.106241 
L 132.153903 277.97192 
L 132.153903 277.97192 
L 132.330634 279.05599 
L 132.330634 279.05599 
L 132.507365 275.905538 
L 132.507365 275.905538 
L 132.684096 276.160613 
L 132.684096 276.160613 
L 132.860826 277.632724 
L 132.860826 277.632724 
L 133.037557 274.149859 
L 133.037557 274.149859 
L 133.214288 275.163377 
L 133.214288 275.163377 
L 133.391019 273.411769 
L 133.391019 273.411769 
L 133.56775 274.058955 
L 133.56775 274.058955 
L 133.744481 275.894683 
L 133.744481 275.894683 
L 133.921211 274.136291 
L 133.921211 274.136291 
L 134.097942 275.00192 
L 134.274673 276.600211 
L 134.451404 274.07795 
L 134.451404 274.07795 
L 134.628135 274.358804 
L 134.628135 274.358804 
L 134.804866 275.053477 
L 134.804866 275.053477 
L 134.981596 271.18393 
L 134.981596 271.18393 
L 135.335058 269.192171 
L 135.335058 269.192171 
L 135.68852 261.021618 
L 135.68852 261.021618 
L 135.865251 258.948452 
L 135.865251 258.948452 
L 136.218712 249.761668 
L 136.218712 249.761668 
L 136.395443 247.533829 
L 136.395443 247.533829 
L 136.748905 239.01594 
L 136.748905 239.01594 
L 136.925636 236.89393 
L 136.925636 236.89393 
L 137.279097 228.72609 
L 137.279097 228.72609 
L 137.455828 226.518603 
L 137.455828 226.518603 
L 137.80929 218.314131 
L 137.80929 218.314131 
L 137.986021 215.592422 
L 137.986021 215.592422 
L 138.516213 203.009608 
L 138.516213 203.009608 
L 138.692944 199.532171 
L 138.692944 199.532171 
L 139.046406 188.26408 
L 139.046406 188.26408 
L 139.576598 172.175337 
L 139.576598 172.175337 
L 140.636983 139.839106 
L 140.636983 139.839106 
L 141.167176 123.759859 
L 141.167176 123.759859 
L 141.874099 109.714432 
L 141.874099 109.714432 
L 142.227561 107.603276 
L 142.227561 107.603276 
L 142.404292 106.509709 
L 142.404292 106.509709 
L 142.581022 107.098553 
L 142.581022 107.098553 
L 142.934484 110.422673 
L 142.934484 110.422673 
L 143.111215 112.168854 
L 143.111215 112.168854 
L 143.641407 122.325739 
L 143.641407 122.325739 
L 144.525062 145.534884 
L 144.525062 145.534884 
L 148.589871 271.865035 
L 148.589871 271.865035 
L 149.296794 288.632171 
L 149.296794 288.632171 
L 149.650256 293.781166 
L 149.650256 293.781166 
L 149.826987 295.426945 
L 150.003718 294.132573 
L 150.357179 294.547749 
L 150.357179 294.547749 
L 150.53391 295.245136 
L 150.53391 295.245136 
L 150.710641 294.52197 
L 150.710641 294.52197 
L 150.887372 292.85991 
L 150.887372 292.85991 
L 151.771026 279.165889 
L 151.771026 279.165889 
L 152.124488 275.491719 
L 152.124488 275.491719 
L 152.477949 273.523025 
L 152.477949 273.523025 
L 152.65468 273.649206 
L 152.65468 273.649206 
L 152.831411 274.455136 
L 152.831411 274.455136 
L 153.184873 277.959709 
L 153.184873 277.959709 
L 153.715065 289.758302 
L 153.715065 289.758302 
L 153.891796 294.937146 
L 153.891796 294.937146 
L 154.421988 278.452221 
L 154.421988 278.452221 
L 155.128912 257.901015 
L 155.128912 257.901015 
L 155.305643 254.038251 
L 155.305643 254.038251 
L 155.659104 251.016693 
L 155.659104 251.016693 
L 155.835835 248.654533 
L 155.835835 248.654533 
L 156.012566 250.484834 
L 156.012566 250.484834 
L 156.189297 248.775286 
L 156.189297 248.775286 
L 156.366028 250.604231 
L 156.366028 250.604231 
L 156.542758 248.898754 
L 156.542758 248.898754 
L 156.719489 249.932623 
L 156.719489 249.932623 
L 156.89622 247.771266 
L 156.89622 247.771266 
L 157.072951 247.923226 
L 157.072951 247.923226 
L 157.249682 245.029206 
L 157.249682 245.029206 
L 157.426413 244.093025 
L 157.426413 244.093025 
L 157.603143 240.75805 
L 157.779874 234.972724 
L 157.779874 234.972724 
L 157.956605 235.511367 
L 157.956605 235.511367 
L 158.133336 229.500814 
L 158.133336 229.500814 
L 158.310067 229.951266 
L 158.310067 229.951266 
L 158.486798 224.32197 
L 158.486798 224.32197 
L 158.663528 224.833477 
L 158.663528 224.833477 
L 158.840259 218.373829 
L 158.840259 218.373829 
L 159.01699 217.979005 
L 159.01699 217.979005 
L 159.193721 214.474432 
L 159.193721 214.474432 
L 160.607568 156.595387 
L 160.607568 156.595387 
L 160.961029 138.860864 
L 160.961029 138.860864 
L 161.13776 127.389256 
L 161.13776 127.389256 
L 161.314491 125.132925 
L 161.314491 125.132925 
L 161.491222 114.334281 
L 161.491222 114.334281 
L 161.667953 114.132121 
L 161.667953 114.132121 
L 161.844684 104.311719 
L 161.844684 104.311719 
L 162.021414 106.186794 
L 162.021414 106.186794 
L 162.198145 96.674382 
L 162.198145 96.674382 
L 162.374876 98.803176 
L 162.374876 98.803176 
L 162.551607 88.529608 
L 162.551607 88.529608 
L 162.728338 90.825286 
L 162.728338 90.825286 
L 162.905069 80.189457 
L 162.905069 80.189457 
L 163.081799 82.390161 
L 163.081799 82.390161 
L 163.25853 70.907698 
L 163.25853 70.907698 
L 163.435261 72.769206 
L 163.435261 72.769206 
L 163.611992 70.036643 
L 163.611992 70.036643 
L 163.788723 62.55805 
L 163.965454 61.202623 
L 163.965454 61.202623 
L 164.142184 55.593678 
L 164.142184 55.593678 
L 164.318915 56.992523 
L 164.318915 56.992523 
L 164.495646 53.568 
L 164.495646 53.568 
L 164.672377 57.39006 
L 164.672377 57.39006 
L 164.849108 55.650663 
L 164.849108 55.650663 
L 165.025839 62.487497 
L 165.025839 62.487497 
L 165.202569 63.434533 
L 165.202569 63.434533 
L 165.3793 73.606342 
L 165.3793 73.606342 
L 165.556031 77.05393 
L 165.556031 77.05393 
L 165.732762 88.879658 
L 165.732762 88.879658 
L 165.909493 92.681367 
L 165.909493 92.681367 
L 166.086224 105.21398 
L 166.086224 105.21398 
L 166.262954 109.065889 
L 166.262954 109.065889 
L 166.439685 120.981166 
L 166.439685 120.981166 
L 166.616416 123.791065 
L 166.616416 123.791065 
L 166.793147 134.407899 
L 166.793147 134.407899 
L 166.969878 135.327799 
L 166.969878 135.327799 
L 167.146609 144.540362 
L 167.146609 144.540362 
L 167.323339 144.289357 
L 167.323339 144.289357 
L 167.50007 152.739407 
L 167.50007 152.739407 
L 167.676801 151.420613 
L 167.676801 151.420613 
L 168.030263 164.126894 
L 168.030263 164.126894 
L 168.206994 164.809357 
L 168.206994 164.809357 
L 168.383724 169.267749 
L 168.383724 169.267749 
L 168.560455 169.121216 
L 168.560455 169.121216 
L 168.737186 173.743779 
L 168.737186 173.743779 
L 168.913917 173.272975 
L 168.913917 173.272975 
L 169.090648 177.835839 
L 169.090648 177.835839 
L 169.267379 176.903729 
L 169.267379 176.903729 
L 169.444109 181.799005 
L 169.444109 181.799005 
L 169.62084 180.801769 
L 169.62084 180.801769 
L 169.797571 185.692975 
L 169.797571 185.692975 
L 169.974302 184.390462 
L 169.974302 184.390462 
L 170.151033 189.217899 
L 170.151033 189.217899 
L 170.327764 187.448653 
L 170.327764 187.448653 
L 170.504494 191.698101 
L 170.504494 191.698101 
L 170.681225 189.390211 
L 170.681225 189.390211 
L 170.857956 193.246191 
L 170.857956 193.246191 
L 171.034687 190.862322 
L 171.034687 190.862322 
L 171.211418 194.487648 
L 171.211418 194.487648 
L 171.388149 192.140412 
L 171.388149 192.140412 
L 171.564879 195.858 
L 171.564879 195.858 
L 171.74161 194.022271 
L 171.74161 194.022271 
L 171.918341 198.112975 
L 171.918341 198.112975 
L 172.095072 197.586543 
L 172.095072 197.586543 
L 172.271803 202.774884 
L 172.271803 202.774884 
L 172.448534 204.03805 
L 172.448534 204.03805 
L 172.978726 221.391317 
L 172.978726 221.391317 
L 173.155457 226.13192 
L 173.155457 226.13192 
L 173.508919 240.368653 
L 173.508919 240.368653 
L 173.68565 245.114683 
L 173.68565 245.114683 
L 174.215842 269.904482 
L 174.215842 269.904482 
L 174.392573 274.700714 
L 174.392573 274.700714 
L 174.746035 286.773377 
L 174.746035 286.773377 
L 174.922765 293.036291 
L 174.922765 293.036291 
L 175.099496 294.709206 
L 175.452958 286.88192 
L 175.452958 286.88192 
L 175.629689 285.256492 
L 175.629689 285.256492 
L 175.80642 280.320513 
L 175.80642 280.320513 
L 175.98315 279.172673 
L 175.98315 279.172673 
L 176.159881 275.759005 
L 176.159881 275.759005 
L 176.336612 275.482221 
L 176.336612 275.482221 
L 176.513343 276.837648 
L 176.513343 276.837648 
L 176.690074 273.493176 
L 176.690074 273.493176 
L 176.866805 274.980211 
L 176.866805 274.980211 
L 177.043535 273.208251 
L 177.043535 273.208251 
L 177.220266 274.916442 
L 177.220266 274.916442 
L 177.396997 278.12795 
L 177.396997 278.12795 
L 177.573728 275.757648 
L 177.573728 275.757648 
L 177.750459 278.425085 
L 177.750459 278.425085 
L 177.92719 276.886492 
L 177.92719 276.886492 
L 178.280651 280.41006 
L 178.280651 280.41006 
L 178.457382 276.588 
L 178.457382 276.588 
L 178.634113 276.551367 
L 178.634113 276.551367 
L 178.810844 276.843075 
L 178.810844 276.843075 
L 178.987575 270.152774 
L 179.164305 267.747196 
L 179.164305 267.747196 
L 181.991999 160.140663 
L 181.991999 160.140663 
L 182.522191 149.837246 
L 182.522191 149.837246 
L 182.698922 148.30408 
L 182.698922 148.30408 
L 183.052384 151.309357 
L 183.052384 151.309357 
L 183.229115 154.081266 
L 183.229115 154.081266 
L 183.759307 172.75197 
L 183.759307 172.75197 
L 184.2895 200.884884 
L 184.2895 200.884884 
L 185.880077 284.302673 
L 185.880077 284.302673 
L 186.233539 293.24795 
L 186.233539 293.24795 
L 186.41027 295.055186 
L 186.41027 295.055186 
L 186.587001 293.375487 
L 186.587001 293.375487 
L 186.763731 293.273729 
L 186.940462 295.488 
L 186.940462 295.488 
L 187.117193 295.167799 
L 187.117193 295.167799 
L 187.470655 287.477548 
L 187.470655 287.477548 
L 188.000847 268.466291 
L 188.000847 268.466291 
L 190.475079 141.860714 
L 190.475079 141.860714 
L 190.65181 141.441467 
L 190.65181 141.441467 
L 190.828541 130.21001 
L 190.828541 130.21001 
L 191.005271 132.059307 
L 191.005271 132.059307 
L 191.182002 131.682121 
L 191.182002 131.682121 
L 191.358733 126.716291 
L 191.358733 126.716291 
L 191.535464 131.447397 
L 191.535464 131.447397 
L 191.712195 130.110965 
L 191.712195 130.110965 
L 191.888926 141.952975 
L 191.888926 141.952975 
L 192.065656 143.395236 
L 192.065656 143.395236 
L 192.77258 201.994734 
L 192.77258 201.994734 
L 192.949311 207.805839 
L 192.949311 207.805839 
L 193.126041 224.566191 
L 193.126041 224.566191 
L 193.302772 224.319256 
L 193.302772 224.319256 
L 193.656234 246.368352 
L 193.656234 246.368352 
L 193.832965 241.573477 
L 193.832965 241.573477 
L 194.009696 245.056342 
L 194.009696 245.056342 
L 194.186426 231.860261 
L 194.186426 231.860261 
L 194.363157 232.006794 
L 194.363157 232.006794 
L 194.539888 226.123779 
L 194.539888 226.123779 
L 194.716619 212.052573 
L 194.716619 212.052573 
L 194.89335 207.35403 
L 194.89335 207.35403 
L 195.070081 192.528452 
L 195.070081 192.528452 
L 195.246812 192.322221 
L 195.246812 192.322221 
L 195.423542 178.50609 
L 195.423542 178.50609 
L 195.777004 187.394382 
L 195.777004 187.394382 
L 195.953735 184.897899 
L 195.953735 184.897899 
L 196.130466 193.924583 
L 196.130466 193.924583 
L 196.307197 194.27192 
L 196.307197 194.27192 
L 196.660658 217.158151 
L 196.660658 217.158151 
L 196.837389 221.497146 
L 196.837389 221.497146 
L 197.01412 230.399005 
L 197.01412 230.399005 
L 197.190851 230.146643 
L 197.190851 230.146643 
L 197.367582 237.136794 
L 197.367582 237.136794 
L 197.544312 230.799256 
L 197.544312 230.799256 
L 197.721043 236.477397 
L 197.721043 236.477397 
L 197.897774 237.371518 
L 197.897774 237.371518 
L 198.074505 228.582271 
L 198.074505 228.582271 
L 198.251236 228.472372 
L 198.251236 228.472372 
L 198.427967 215.915337 
L 198.427967 215.915337 
L 198.604697 217.293829 
L 198.604697 217.293829 
L 198.781428 215.350915 
L 198.781428 215.350915 
L 198.958159 206.873729 
L 198.958159 206.873729 
L 199.13489 207.841116 
L 199.13489 207.841116 
L 199.311621 199.320513 
L 199.311621 199.320513 
L 199.488352 203.96207 
L 199.488352 203.96207 
L 199.665082 196.338302 
L 199.665082 196.338302 
L 200.018544 210.736492 
L 200.018544 210.736492 
L 200.195275 209.170764 
L 200.195275 209.170764 
L 200.372006 216.932925 
L 200.372006 216.932925 
L 200.548737 213.929005 
L 200.548737 213.929005 
L 200.725467 222.180965 
L 200.725467 222.180965 
L 200.902198 216.938352 
L 200.902198 216.938352 
L 201.25566 228.351618 
L 201.25566 228.351618 
L 201.432391 225.381618 
L 201.432391 225.381618 
L 201.609122 228.864482 
L 201.609122 228.864482 
L 201.785852 225.112975 
L 201.785852 225.112975 
L 201.962583 229.483176 
L 201.962583 229.483176 
L 202.139314 226.770965 
L 202.139314 226.770965 
L 202.316045 232.263226 
L 202.316045 232.263226 
L 202.492776 231.88197 
L 202.492776 231.88197 
L 202.846237 243.823025 
L 202.846237 243.823025 
L 203.199699 253.370714 
L 203.199699 253.370714 
L 204.260084 277.237899 
L 204.260084 277.237899 
L 204.967007 285.84805 
L 204.967007 285.84805 
L 205.673931 289.478804 
L 205.673931 289.478804 
L 205.850662 295.488 
L 205.850662 295.488 
L 206.027392 289.869558 
L 206.027392 289.869558 
L 206.204123 291.326744 
L 206.204123 291.326744 
L 206.380854 291.439357 
L 206.380854 291.439357 
L 206.557585 292.722874 
L 206.557585 292.722874 
L 206.734316 293.154332 
L 206.734316 293.154332 
L 207.087778 295.488 
L 207.087778 295.488 
L 207.264508 294.25197 
L 207.264508 294.25197 
L 208.855086 270.34001 
L 208.855086 270.34001 
L 209.208548 264.005186 
L 209.208548 264.005186 
L 210.445663 248.286844 
L 210.445663 248.286844 
L 211.329318 239.931769 
L 211.329318 239.931769 
L 212.919895 223.898653 
L 212.919895 223.898653 
L 213.096626 223.259608 
L 213.096626 223.259608 
L 213.273357 223.148352 
L 213.273357 223.148352 
L 213.450088 222.590714 
L 213.450088 222.590714 
L 213.626818 223.227045 
L 213.626818 223.227045 
L 213.98028 226.134633 
L 213.98028 226.134633 
L 214.863934 237.527548 
L 214.863934 237.527548 
L 215.217396 241.99408 
L 215.217396 241.99408 
L 215.924319 250.632724 
L 215.924319 250.632724 
L 216.454512 256.869859 
L 216.454512 256.869859 
L 216.631243 259.489809 
L 216.631243 259.489809 
L 216.807973 260.351367 
L 216.807973 260.351367 
L 217.161435 266.250663 
L 217.161435 266.250663 
L 217.514897 271.717146 
L 217.514897 271.717146 
L 218.398551 287.896794 
L 218.398551 287.896794 
L 218.928744 294.977849 
L 218.928744 294.977849 
L 219.105474 293.977899 
L 219.635667 288.465286 
L 219.635667 288.465286 
L 219.812398 295.488 
L 219.812398 295.488 
L 219.989129 282.795286 
L 219.989129 282.795286 
L 220.165859 281.319106 
L 220.165859 281.319106 
L 220.696052 270.352221 
L 220.696052 270.352221 
L 221.756437 238.78393 
L 221.756437 238.78393 
L 221.933168 236.762322 
L 221.933168 236.762322 
L 222.109899 232.77202 
L 222.109899 232.77202 
L 222.286629 232.774734 
L 222.286629 232.774734 
L 222.46336 230.930864 
L 222.46336 230.930864 
L 222.640091 232.42197 
L 222.640091 232.42197 
L 222.816822 232.295789 
L 222.816822 232.295789 
L 222.993553 230.454633 
L 222.993553 230.454633 
L 223.170284 235.294281 
L 223.170284 235.294281 
L 223.347014 233.975487 
L 223.347014 233.975487 
L 223.523745 238.083829 
L 223.523745 238.083829 
L 223.700476 236.191116 
L 223.700476 236.191116 
L 223.877207 238.671317 
L 223.877207 238.671317 
L 224.053938 235.550714 
L 224.053938 235.550714 
L 224.230669 236.328151 
L 224.230669 236.328151 
L 224.407399 232.508804 
L 224.407399 232.508804 
L 224.58413 232.013578 
L 224.760861 228.294633 
L 224.760861 228.294633 
L 224.937592 221.925889 
L 224.937592 221.925889 
L 225.114323 225.077698 
L 225.114323 225.077698 
L 225.291054 219.611216 
L 225.291054 219.611216 
L 225.467784 222.737246 
L 225.467784 222.737246 
L 225.644515 218.447095 
L 225.644515 218.447095 
L 225.821246 221.955739 
L 225.821246 221.955739 
L 225.997977 219.141769 
L 225.997977 219.141769 
L 226.174708 222.910915 
L 226.174708 222.910915 
L 226.351439 221.096894 
L 226.351439 221.096894 
L 226.528169 224.821266 
L 226.7049 223.828101 
L 226.7049 223.828101 
L 226.881631 227.178 
L 226.881631 227.178 
L 227.058362 226.894432 
L 227.058362 226.894432 
L 227.235093 223.919005 
L 227.235093 223.919005 
L 227.411824 230.875236 
L 227.411824 230.875236 
L 227.588554 228.199658 
L 227.588554 228.199658 
L 227.765285 235.313276 
L 227.942016 233.453126 
L 227.942016 233.453126 
L 228.118747 241.007698 
L 228.118747 241.007698 
L 228.295478 240.805538 
L 228.295478 240.805538 
L 228.472209 248.31805 
L 228.472209 248.31805 
L 228.648939 249.358704 
L 228.648939 249.358704 
L 228.82567 256.367849 
L 228.82567 256.367849 
L 229.002401 258.355538 
L 229.002401 258.355538 
L 229.355863 267.378151 
L 229.355863 267.378151 
L 229.532594 267.566744 
L 229.532594 267.566744 
L 229.709324 276.624633 
L 229.709324 276.624633 
L 229.886055 277.678854 
L 229.886055 277.678854 
L 230.062786 286.575286 
L 230.062786 286.575286 
L 230.239517 288.758352 
L 230.239517 288.758352 
L 230.416248 293.355136 
L 230.416248 293.355136 
L 230.592979 290.060864 
L 230.592979 290.060864 
L 231.123171 269.68604 
L 231.123171 269.68604 
L 231.476633 260.853377 
L 231.476633 260.853377 
L 232.006825 238.230362 
L 232.006825 238.230362 
L 232.537018 215.785085 
L 232.537018 215.785085 
L 233.243941 188.436392 
L 233.243941 188.436392 
L 233.597403 179.04609 
L 233.597403 179.04609 
L 233.950865 179.013528 
L 233.950865 179.013528 
L 234.127595 180.417799 
L 234.127595 180.417799 
L 234.657788 205.69197 
L 234.657788 205.69197 
L 235.01125 235.88991 
L 235.01125 235.88991 
L 235.541442 288.450362 
L 235.541442 288.450362 
L 235.718173 285.021769 
L 235.718173 285.021769 
L 236.425096 225.811719 
L 236.425096 225.811719 
L 236.955289 198.000362 
L 236.955289 198.000362 
L 237.30875 184.516643 
L 237.30875 184.516643 
L 238.015674 167.947598 
L 238.015674 167.947598 
L 238.722597 158.926342 
L 238.722597 158.926342 
L 239.076059 157.174734 
L 239.076059 157.174734 
L 239.25279 156.682221 
L 239.25279 156.682221 
L 239.606251 154.055487 
L 239.606251 154.055487 
L 240.313175 151.522372 
L 240.313175 151.522372 
L 240.489905 151.877849 
L 240.489905 151.877849 
L 240.666636 153.028402 
L 240.666636 153.028402 
L 241.196829 159.832673 
L 241.196829 159.832673 
L 241.727021 172.354432 
L 241.727021 172.354432 
L 243.671061 232.044784 
L 243.671061 232.044784 
L 244.554715 264.596744 
L 244.554715 264.596744 
L 244.908176 273.573226 
L 244.908176 273.573226 
L 245.261638 282.86991 
L 245.261638 282.86991 
L 245.438369 284.61202 
L 245.438369 284.61202 
L 245.791831 290.596794 
L 245.791831 290.596794 
L 245.968561 291.32403 
L 245.968561 291.32403 
L 246.322023 294.766191 
L 246.322023 294.766191 
L 246.498754 294.346945 
L 246.498754 294.346945 
L 246.675485 295.182724 
L 247.028946 291.566894 
L 247.028946 291.566894 
L 247.205677 291.653729 
L 247.205677 291.653729 
L 247.73587 283.655487 
L 247.73587 283.655487 
L 248.619524 256.416693 
L 248.619524 256.416693 
L 249.503178 219.114633 
L 249.503178 219.114633 
L 249.679909 218.107899 
L 249.679909 218.107899 
L 250.033371 206.150563 
L 250.033371 206.150563 
L 250.210101 209.561518 
L 250.210101 209.561518 
L 250.386832 207.040613 
L 250.386832 207.040613 
L 250.563563 210.44207 
L 250.563563 210.44207 
L 250.917025 211.866693 
L 250.917025 211.866693 
L 251.270486 222.076492 
L 251.270486 222.076492 
L 251.447217 225.388402 
L 251.447217 225.388402 
L 251.800679 241.680663 
L 251.800679 241.680663 
L 251.97741 247.495839 
L 251.97741 247.495839 
L 252.507602 276.685688 
L 252.507602 276.685688 
L 252.861064 291.119156 
L 252.861064 291.119156 
L 253.037795 290.044583 
L 253.037795 290.044583 
L 253.744718 264.520764 
L 253.744718 264.520764 
L 253.921449 261.054181 
L 253.921449 261.054181 
L 254.274911 251.385739 
L 254.274911 251.385739 
L 254.451642 249.844432 
L 254.451642 249.844432 
L 254.628372 244.706291 
L 254.628372 244.706291 
L 254.805103 243.319658 
L 254.805103 243.319658 
L 254.981834 242.852925 
L 254.981834 242.852925 
L 255.158565 238.652322 
L 255.158565 238.652322 
L 255.335296 237.964432 
L 255.335296 237.964432 
L 255.688757 234.006693 
L 255.688757 234.006693 
L 255.865488 233.291668 
L 255.865488 233.291668 
L 256.21895 228.963528 
L 256.21895 228.963528 
L 256.572412 226.823879 
L 256.572412 226.823879 
L 256.925873 220.745487 
L 256.925873 220.745487 
L 257.102604 219.064432 
L 257.102604 219.064432 
L 257.456066 212.173327 
L 257.456066 212.173327 
L 257.632797 209.82202 
L 257.632797 209.82202 
L 257.986258 202.548302 
L 257.986258 202.548302 
L 259.046643 184.428452 
L 259.046643 184.428452 
L 259.400105 178.354131 
L 259.400105 178.354131 
L 259.930297 173.644734 
L 259.930297 173.644734 
L 260.107028 173.069457 
L 260.107028 173.069457 
L 260.283759 173.066744 
L 260.283759 173.066744 
L 260.46049 173.627095 
L 260.46049 173.627095 
L 260.990682 177.503427 
L 260.990682 177.503427 
L 261.874337 189.291166 
L 261.874337 189.291166 
L 262.58126 201.631116 
L 262.58126 201.631116 
L 263.818376 229.120915 
L 263.818376 229.120915 
L 266.646069 294.948 
L 266.646069 294.948 
L 266.999531 288.88996 
L 266.999531 288.88996 
L 267.529723 279.749307 
L 267.529723 279.749307 
L 268.236647 273.400915 
L 268.236647 273.400915 
L 268.413378 273.061719 
L 268.413378 273.061719 
L 268.766839 274.761769 
L 268.766839 274.761769 
L 269.120301 277.632724 
L 269.120301 277.632724 
L 269.827224 286.119407 
L 269.827224 286.119407 
L 270.534148 294.667146 
L 270.534148 294.667146 
L 271.241071 282.743729 
L 271.241071 282.743729 
L 272.124725 267.612874 
L 272.124725 267.612874 
L 272.654918 262.020211 
L 272.654918 262.020211 
L 272.831648 260.873729 
L 272.831648 260.873729 
L 273.008379 260.866945 
L 273.008379 260.866945 
L 273.18511 260.721769 
L 273.18511 260.721769 
L 273.361841 261.108452 
L 273.361841 261.108452 
L 273.715303 263.144985 
L 273.715303 263.144985 
L 275.836073 291.481417 
L 275.836073 291.481417 
L 276.012803 295.488 
L 276.012803 295.488 
L 276.189534 293.805588 
L 276.189534 293.805588 
L 276.366265 294.777045 
L 276.366265 294.777045 
L 276.542996 294.888302 
L 276.542996 294.888302 
L 276.896458 293.794734 
L 276.896458 293.794734 
L 277.249919 293.266945 
L 277.249919 293.266945 
L 277.42665 293.036291 
L 277.42665 293.036291 
L 277.603381 295.488 
L 277.603381 295.488 
L 277.780112 292.524784 
L 277.780112 292.524784 
L 278.663766 291.334884 
L 278.663766 291.334884 
L 279.54742 290.461116 
L 279.54742 290.461116 
L 279.724151 290.621216 
L 279.724151 290.621216 
L 280.431074 292.547849 
L 280.431074 292.547849 
L 280.607805 295.488 
L 280.607805 295.488 
L 280.784536 294.36594 
L 280.784536 294.36594 
L 281.137998 295.192221 
L 281.137998 295.192221 
L 281.491459 292.925035 
L 281.491459 292.925035 
L 281.844921 289.744734 
L 281.844921 289.744734 
L 282.198383 285.378603 
L 282.198383 285.378603 
L 282.551844 279.463025 
L 282.551844 279.463025 
L 283.082037 265.48001 
L 283.082037 265.48001 
L 283.612229 243.553025 
L 283.612229 243.553025 
L 284.495884 193.829608 
L 284.495884 193.829608 
L 285.026076 157.973879 
L 285.026076 157.973879 
L 285.202807 159.063377 
L 285.202807 159.063377 
L 285.379538 158.835437 
L 285.379538 158.835437 
L 285.556269 151.092271 
L 285.556269 151.092271 
L 285.732999 156.952221 
L 285.732999 156.952221 
L 285.90973 147.848201 
L 285.90973 147.848201 
L 286.263192 165.745538 
L 286.263192 165.745538 
L 286.439923 160.836693 
L 286.439923 160.836693 
L 286.616654 168.053427 
L 286.616654 168.053427 
L 286.793384 157.136744 
L 286.793384 157.136744 
L 286.970115 163.919307 
L 286.970115 163.919307 
L 287.146846 164.65604 
L 287.146846 164.65604 
L 287.323577 153.466643 
L 287.323577 153.466643 
L 287.500308 153.750211 
L 287.500308 153.750211 
L 287.677039 137.014281 
L 287.677039 137.014281 
L 287.853769 139.064382 
L 287.853769 139.064382 
L 288.0305 136.709005 
L 288.0305 136.709005 
L 288.207231 124.276794 
L 288.207231 124.276794 
L 288.383962 126.773276 
L 288.383962 126.773276 
L 288.560693 115.649005 
L 288.560693 115.649005 
L 288.914155 131.049859 
L 288.914155 131.049859 
L 289.090885 129.448854 
L 289.090885 129.448854 
L 289.267616 139.376442 
L 289.267616 139.376442 
L 289.444347 136.924734 
L 289.444347 136.924734 
L 289.797809 154.058201 
L 289.797809 154.058201 
L 289.97454 149.541467 
L 289.97454 149.541467 
L 290.15127 154.39604 
L 290.15127 154.39604 
L 290.328001 154.428603 
L 290.328001 154.428603 
L 290.504732 145.681417 
L 290.504732 145.681417 
L 290.681463 145.503678 
L 290.681463 145.503678 
L 290.858194 129.682221 
L 290.858194 129.682221 
L 291.034925 130.509859 
L 291.034925 130.509859 
L 291.211655 126.694583 
L 291.211655 126.694583 
L 291.388386 113.209508 
L 291.388386 113.209508 
L 291.565117 111.915136 
L 291.565117 111.915136 
L 291.741848 95.285035 
L 291.741848 95.285035 
L 291.918579 97.88599 
L 291.918579 97.88599 
L 292.09531 96.833126 
L 292.09531 96.833126 
L 292.27204 87.598854 
L 292.27204 87.598854 
L 292.448771 92.385588 
L 292.448771 92.385588 
L 292.625502 84.596291 
L 292.625502 84.596291 
L 292.802233 97.359558 
L 292.978964 92.373377 
L 292.978964 92.373377 
L 293.332425 127.786794 
L 293.332425 127.786794 
L 293.509156 133.702372 
L 293.509156 133.702372 
L 293.685887 151.926693 
L 293.685887 151.926693 
L 293.862618 158.40398 
L 293.862618 158.40398 
L 294.21608 188.410613 
L 294.21608 188.410613 
L 295.453195 233.249608 
L 295.453195 233.249608 
L 295.629926 235.195236 
L 295.629926 235.195236 
L 296.690311 262.845136 
L 296.690311 262.845136 
L 296.867042 265.189658 
L 296.867042 265.189658 
L 297.220504 272.919256 
L 297.220504 272.919256 
L 297.397235 273.680412 
L 297.397235 273.680412 
L 297.573965 275.191869 
L 297.573965 275.191869 
L 297.750696 274.145789 
L 297.750696 274.145789 
L 297.927427 274.16207 
L 297.927427 274.16207 
L 298.104158 271.348101 
L 298.104158 271.348101 
L 298.280889 270.350864 
L 298.45762 266.498955 
L 298.45762 266.498955 
L 298.63435 265.224935 
L 298.63435 265.224935 
L 298.811081 261.056894 
L 298.811081 261.056894 
L 298.987812 259.656693 
L 298.987812 259.656693 
L 299.164543 255.397749 
L 299.164543 255.397749 
L 299.341274 254.289256 
L 299.341274 254.289256 
L 299.518005 250.225688 
L 299.518005 250.225688 
L 299.694735 249.358704 
L 299.694735 249.358704 
L 299.871466 245.65604 
L 299.871466 245.65604 
L 300.048197 245.23408 
L 300.048197 245.23408 
L 300.224928 242.223377 
L 300.224928 242.223377 
L 300.401659 242.481166 
L 300.401659 242.481166 
L 300.57839 241.147447 
L 300.57839 241.147447 
L 300.755121 238.443377 
L 300.755121 238.443377 
L 300.931851 243.322372 
L 300.931851 243.322372 
L 301.108582 242.407899 
L 301.108582 242.407899 
L 301.285313 248.678955 
L 301.285313 248.678955 
L 301.462044 249.446894 
L 301.462044 249.446894 
L 301.638775 256.438402 
L 301.638775 256.438402 
L 301.815506 258.867045 
L 301.815506 258.867045 
L 302.168967 271.075387 
L 302.168967 271.075387 
L 302.345698 274.430714 
L 302.345698 274.430714 
L 302.69916 294.79197 
L 302.69916 294.79197 
L 304.643199 161.954683 
L 304.643199 161.954683 
L 304.996661 149.540111 
L 304.996661 149.540111 
L 305.173391 148.925487 
L 305.173391 148.925487 
L 305.350122 145.509106 
L 305.350122 145.509106 
L 305.526853 147.736945 
L 305.526853 147.736945 
L 305.703584 146.015186 
L 305.703584 146.015186 
L 305.880315 150.175085 
L 305.880315 150.175085 
L 306.057046 149.355588 
L 306.057046 149.355588 
L 306.233776 153.51006 
L 306.233776 153.51006 
L 306.410507 152.244181 
L 306.410507 152.244181 
L 306.587238 155.813879 
L 306.587238 155.813879 
L 306.763969 153.800412 
L 306.763969 153.800412 
L 306.9407 156.838251 
L 306.9407 156.838251 
L 307.117431 153.908955 
L 307.117431 153.908955 
L 307.294161 156.258905 
L 307.294161 156.258905 
L 307.470892 152.628151 
L 307.470892 152.628151 
L 307.647623 155.530312 
L 307.647623 155.530312 
L 307.824354 152.174985 
L 307.824354 152.174985 
L 308.001085 154.941467 
L 308.001085 154.941467 
L 308.177816 150.538704 
L 308.177816 150.538704 
L 308.354546 153.777347 
L 308.531277 149.678503 
L 308.531277 149.678503 
L 308.708008 153.393377 
L 308.708008 153.393377 
L 308.884739 149.017749 
L 308.884739 149.017749 
L 309.06147 153.527698 
L 309.06147 153.527698 
L 309.238201 149.706995 
L 309.238201 149.706995 
L 309.591662 156.052673 
L 309.591662 156.052673 
L 309.768393 154.155889 
L 309.768393 154.155889 
L 309.945124 155.102925 
L 309.945124 155.102925 
L 310.121855 152.036593 
L 310.121855 152.036593 
L 310.298586 153.066392 
L 310.298586 153.066392 
L 310.475316 149.249759 
L 310.475316 149.249759 
L 310.652047 151.478955 
L 310.652047 151.478955 
L 310.828778 147.479156 
L 310.828778 147.479156 
L 311.005509 152.473477 
L 311.005509 152.473477 
L 311.18224 147.614834 
L 311.18224 147.614834 
L 311.535701 161.938402 
L 311.535701 161.938402 
L 311.712432 163.936945 
L 311.712432 163.936945 
L 311.889163 174.051769 
L 312.065894 177.241568 
L 312.065894 177.241568 
L 312.242625 190.684583 
L 312.242625 190.684583 
L 312.419356 193.327598 
L 312.419356 193.327598 
L 312.596087 207.930663 
L 312.596087 207.930663 
L 312.772817 206.976844 
L 313.126279 225.148251 
L 313.126279 225.148251 
L 313.30301 221.208151 
L 313.30301 221.208151 
L 313.479741 224.115739 
L 313.479741 224.115739 
L 313.656472 214.938452 
L 313.656472 214.938452 
L 313.833202 217.200211 
L 313.833202 217.200211 
L 314.009933 205.706894 
L 314.009933 205.706894 
L 314.186664 209.192472 
L 314.186664 209.192472 
L 314.363395 208.604985 
L 314.363395 208.604985 
L 314.540126 202.404482 
L 314.540126 202.404482 
L 314.716857 205.147899 
L 314.716857 205.147899 
L 314.893587 200.71393 
L 314.893587 200.71393 
L 315.070318 208.501869 
L 315.070318 208.501869 
L 315.247049 205.876492 
L 315.247049 205.876492 
L 315.42378 217.421367 
L 315.42378 217.421367 
L 315.600511 215.318352 
L 315.600511 215.318352 
L 315.953972 237.872171 
L 315.953972 237.872171 
L 316.130703 239.695688 
L 316.130703 239.695688 
L 316.307434 249.12805 
L 316.307434 249.12805 
L 316.484165 248.174231 
L 316.660896 256.654131 
L 316.660896 256.654131 
L 316.837627 252.513226 
L 316.837627 252.513226 
L 317.014357 259.023075 
L 317.014357 259.023075 
L 317.191088 260.438201 
L 317.191088 260.438201 
L 317.367819 255.660965 
L 317.367819 255.660965 
L 317.54455 255.975739 
L 317.54455 255.975739 
L 317.721281 248.992372 
L 317.721281 248.992372 
L 317.898012 249.399407 
L 317.898012 249.399407 
L 318.074742 241.893678 
L 318.074742 241.893678 
L 318.251473 242.901769 
L 318.251473 242.901769 
L 318.428204 235.470663 
L 318.428204 235.470663 
L 318.604935 237.699859 
L 318.604935 237.699859 
L 318.781666 238.158452 
L 318.781666 238.158452 
L 318.958397 235.792221 
L 318.958397 235.792221 
L 319.135127 237.273829 
L 319.135127 237.273829 
L 319.311858 235.366191 
L 319.311858 235.366191 
L 319.488589 237.302322 
L 319.66532 235.735236 
L 319.66532 235.735236 
L 319.842051 237.466492 
L 319.842051 237.466492 
L 320.018782 235.109759 
L 320.018782 235.109759 
L 320.195512 235.797648 
L 320.195512 235.797648 
L 320.372243 231.712372 
L 320.372243 231.712372 
L 320.548974 231.244281 
L 320.548974 231.244281 
L 320.725705 225.867347 
L 320.725705 225.867347 
L 320.902436 224.834834 
L 320.902436 224.834834 
L 321.079167 218.086191 
L 321.079167 218.086191 
L 321.255897 217.171719 
L 321.255897 217.171719 
L 321.432628 210.336241 
L 321.432628 210.336241 
L 321.609359 211.029558 
L 321.609359 211.029558 
L 321.78609 205.571216 
L 321.78609 205.571216 
L 321.962821 208.604985 
L 321.962821 208.604985 
L 322.139552 205.617347 
L 322.139552 205.617347 
L 322.316282 211.360613 
L 322.316282 211.360613 
L 322.493013 210.58996 
L 322.493013 210.58996 
L 322.669744 218.068553 
L 322.669744 218.068553 
L 322.846475 219.26795 
L 322.846475 219.26795 
L 323.023206 228.152171 
L 323.023206 228.152171 
L 323.199937 230.740915 
L 323.376667 240.156995 
L 323.376667 240.156995 
L 323.553398 243.650714 
L 323.553398 243.650714 
L 324.083591 266.102774 
L 324.083591 266.102774 
L 324.260322 271.045538 
L 324.260322 271.045538 
L 324.613783 285.508854 
L 324.613783 285.508854 
L 324.790514 290.177548 
L 324.790514 290.177548 
L 324.967245 290.229106 
L 324.967245 290.229106 
L 325.143976 284.381367 
L 325.143976 284.381367 
L 325.850899 249.261015 
L 325.850899 249.261015 
L 326.734553 213.614231 
L 326.734553 213.614231 
L 327.088015 207.04604 
L 327.088015 207.04604 
L 327.264746 205.666191 
L 327.264746 205.666191 
L 327.441477 205.449106 
L 327.441477 205.449106 
L 327.618208 206.077296 
L 327.618208 206.077296 
L 327.971669 210.545186 
L 327.971669 210.545186 
L 328.325131 218.092975 
L 328.325131 218.092975 
L 328.855323 234.782774 
L 328.855323 234.782774 
L 329.385516 258.157447 
L 329.385516 258.157447 
L 329.915708 289.940111 
L 329.915708 289.940111 
L 330.092439 288.473427 
L 330.092439 288.473427 
L 330.976093 231.048905 
L 330.976093 231.048905 
L 331.152824 225.906693 
L 331.152824 225.906693 
L 331.329555 217.204281 
L 331.329555 217.204281 
L 331.506286 214.589759 
L 331.506286 214.589759 
L 331.683017 208.755588 
L 331.683017 208.755588 
L 331.859748 207.869608 
L 332.036478 204.50207 
L 332.036478 204.50207 
L 332.213209 198.813075 
L 332.213209 198.813075 
L 332.38994 203.350161 
L 332.38994 203.350161 
L 332.566671 199.522673 
L 332.743402 204.603829 
L 332.743402 204.603829 
L 332.920133 202.160261 
L 332.920133 202.160261 
L 333.096863 207.253628 
L 333.096863 207.253628 
L 333.273594 205.839859 
L 333.273594 205.839859 
L 333.450325 210.608955 
L 333.450325 210.608955 
L 333.627056 209.835588 
L 333.627056 209.835588 
L 333.803787 214.148804 
L 333.803787 214.148804 
L 333.980518 213.919508 
L 333.980518 213.919508 
L 334.157248 217.257196 
L 334.157248 217.257196 
L 334.333979 217.126945 
L 334.333979 217.126945 
L 334.51071 214.540915 
L 334.51071 214.540915 
L 334.687441 218.284281 
L 334.687441 218.284281 
L 334.864172 214.245136 
L 334.864172 214.245136 
L 335.040903 217.524482 
L 335.040903 217.524482 
L 335.217633 212.702472 
L 335.217633 212.702472 
L 335.394364 215.193528 
L 335.394364 215.193528 
L 335.571095 209.820663 
L 335.571095 209.820663 
L 335.747826 212.271015 
L 335.747826 212.271015 
L 335.924557 206.762472 
L 335.924557 206.762472 
L 336.101288 208.88991 
L 336.101288 208.88991 
L 336.278019 203.496693 
L 336.278019 203.496693 
L 336.454749 205.508804 
L 336.454749 205.508804 
L 336.63148 200.902523 
L 336.63148 200.902523 
L 336.808211 203.244332 
L 336.808211 203.244332 
L 336.984942 200.363879 
L 336.984942 200.363879 
L 337.161673 203.426141 
L 337.161673 203.426141 
L 337.338404 202.477749 
L 337.338404 202.477749 
L 337.515134 198.617698 
L 337.515134 198.617698 
L 337.691865 207.491065 
L 337.691865 207.491065 
L 337.868596 206.373075 
L 337.868596 206.373075 
L 338.045327 216.387497 
L 338.045327 216.387497 
L 338.222058 217.903025 
L 338.222058 217.903025 
L 338.75225 245.071266 
L 338.75225 245.071266 
L 338.928981 251.585186 
L 338.928981 251.585186 
L 339.635904 295.488 
L 339.635904 295.488 
L 339.989366 272.380613 
L 339.989366 272.380613 
L 341.226482 199.427698 
L 341.226482 199.427698 
L 341.403213 191.893477 
L 341.403213 191.893477 
L 341.756674 185.577648 
L 341.756674 185.577648 
L 341.933405 186.501618 
L 341.933405 186.501618 
L 342.110136 185.956191 
L 342.110136 185.956191 
L 342.286867 184.113678 
L 342.286867 184.113678 
L 342.463598 190.196141 
L 342.463598 190.196141 
L 342.640329 190.215136 
L 342.640329 190.215136 
L 342.817059 196.790111 
L 342.817059 196.790111 
L 342.99379 198.087196 
L 342.99379 198.087196 
L 343.170521 204.013628 
L 343.170521 204.013628 
L 343.347252 205.367698 
L 343.347252 205.367698 
L 343.523983 203.479055 
L 343.523983 203.479055 
L 343.700714 212.424332 
L 343.700714 212.424332 
L 343.877444 211.67403 
L 343.877444 211.67403 
L 344.054175 219.920563 
L 344.054175 219.920563 
L 344.230906 220.217698 
L 344.230906 220.217698 
L 344.407637 228.650111 
L 344.407637 228.650111 
L 344.584368 231.45594 
L 344.584368 231.45594 
L 344.761099 230.370513 
L 344.761099 230.370513 
L 344.937829 248.915035 
L 344.937829 248.915035 
L 345.11456 254.416794 
L 345.11456 254.416794 
L 345.468022 287.364935 
L 345.468022 287.364935 
L 345.644753 281.404583 
L 345.644753 281.404583 
L 346.174945 220.840462 
L 346.174945 220.840462 
L 347.412061 84.597648 
L 347.412061 84.597648 
L 347.588792 72.343176 
L 347.588792 72.343176 
L 347.942254 67.419407 
L 347.942254 67.419407 
L 348.118985 66.997447 
L 348.118985 66.997447 
L 349.002639 129.215487 
L 349.002639 129.215487 
L 349.709562 198.539005 
L 349.709562 198.539005 
L 349.886293 210.731065 
L 349.886293 210.731065 
L 350.416485 259.804583 
L 350.416485 259.804583 
L 350.946678 295.488 
L 350.946678 295.488 
L 351.123409 289.204734 
L 351.123409 289.204734 
L 351.30014 275.677598 
L 351.30014 275.677598 
L 351.47687 271.117447 
L 351.47687 271.117447 
L 351.653601 261.343176 
L 351.653601 261.343176 
L 351.830332 258.865688 
L 351.830332 258.865688 
L 352.007063 252.686894 
L 352.007063 252.686894 
L 352.183794 252.178101 
L 352.183794 252.178101 
L 352.360525 248.864834 
L 352.537255 249.673477 
L 352.537255 249.673477 
L 352.713986 253.381568 
L 352.713986 253.381568 
L 352.890717 250.925789 
L 352.890717 250.925789 
L 353.067448 255.542925 
L 353.067448 255.542925 
L 353.244179 254.476492 
L 353.244179 254.476492 
L 353.42091 258.88197 
L 353.42091 258.88197 
L 353.59764 258.967447 
L 353.59764 258.967447 
L 353.774371 263.192472 
L 353.774371 263.192472 
L 353.951102 263.652422 
L 353.951102 263.652422 
L 354.304564 271.295186 
L 354.304564 271.295186 
L 354.481295 268.555839 
L 354.481295 268.555839 
L 354.658025 271.413226 
L 354.658025 271.413226 
L 354.834756 268.359106 
L 354.834756 268.359106 
L 355.011487 269.440462 
L 355.011487 269.440462 
L 355.188218 266.109558 
L 355.364949 265.359256 
L 355.364949 265.359256 
L 355.54168 266.357849 
L 355.71841 260.424633 
L 355.71841 260.424633 
L 355.895141 260.218402 
L 355.895141 260.218402 
L 356.071872 254.997497 
L 356.071872 254.997497 
L 356.248603 253.940563 
L 356.248603 253.940563 
L 356.425334 254.491417 
L 356.425334 254.491417 
L 356.602065 247.608452 
L 356.602065 247.608452 
L 356.778795 247.392724 
L 356.778795 247.392724 
L 356.955526 242.029357 
L 356.955526 242.029357 
L 357.132257 241.551769 
L 357.132257 241.551769 
L 357.308988 237.375588 
L 357.308988 237.375588 
L 357.485719 236.295588 
L 357.485719 236.295588 
L 357.66245 236.450261 
L 357.66245 236.450261 
L 357.83918 231.742221 
L 357.83918 231.742221 
L 358.015911 231.645889 
L 358.015911 231.645889 
L 358.192642 228.823779 
L 358.192642 228.823779 
L 358.369373 228.917397 
L 358.369373 228.917397 
L 358.546104 230.188704 
L 358.546104 230.188704 
L 358.722835 228.511719 
L 358.899565 230.549608 
L 358.899565 230.549608 
L 359.076296 231.228 
L 359.076296 231.228 
L 359.78322 244.992573 
L 359.78322 244.992573 
L 359.959951 250.735839 
L 359.959951 250.735839 
L 360.136681 251.388452 
L 360.136681 251.388452 
L 360.313412 256.194181 
L 360.313412 256.194181 
L 360.490143 257.571317 
L 360.490143 257.571317 
L 360.843605 265.958955 
L 360.843605 265.958955 
L 361.020336 266.140764 
L 361.020336 266.140764 
L 361.373797 274.000613 
L 361.373797 274.000613 
L 361.550528 272.755085 
L 361.550528 272.755085 
L 361.90399 278.863327 
L 361.90399 278.863327 
L 362.080721 276.24609 
L 362.080721 276.24609 
L 362.257451 278.030261 
L 362.434182 276.077849 
L 362.434182 276.077849 
L 362.610913 275.953025 
L 362.610913 275.953025 
L 362.787644 276.077849 
L 363.141106 270.368503 
L 363.141106 270.368503 
L 363.317836 269.094482 
L 363.317836 269.094482 
L 363.671298 260.97006 
L 363.671298 260.97006 
L 363.848029 258.704231 
L 363.848029 258.704231 
L 364.201491 249.396693 
L 364.201491 249.396693 
L 364.378221 246.639709 
L 364.378221 246.639709 
L 364.731683 236.128704 
L 364.731683 236.128704 
L 364.908414 232.362271 
L 364.908414 232.362271 
L 365.438606 215.224734 
L 365.438606 215.224734 
L 365.615337 210.317246 
L 365.615337 210.317246 
L 365.968799 194.909608 
L 365.968799 194.909608 
L 366.675722 167.324834 
L 366.675722 167.324834 
L 367.205915 149.062523 
L 367.205915 149.062523 
L 367.912838 133.911317 
L 367.912838 133.911317 
L 368.2663 130.603477 
L 368.2663 130.603477 
L 368.443031 130.363327 
L 368.443031 130.363327 
L 368.619761 130.97795 
L 368.619761 130.97795 
L 368.973223 134.619558 
L 368.973223 134.619558 
L 369.326685 140.665387 
L 369.326685 140.665387 
L 369.856877 154.524935 
L 369.856877 154.524935 
L 370.563801 179.762472 
L 370.563801 179.762472 
L 372.331109 248.848553 
L 372.331109 248.848553 
L 372.861302 261.643025 
L 372.861302 261.643025 
L 373.391494 269.048352 
L 373.391494 269.048352 
L 373.921687 272.102472 
L 373.921687 272.102472 
L 374.451879 274.048101 
L 374.451879 274.048101 
L 374.805341 276.35599 
L 374.805341 276.35599 
L 375.158802 280.350362 
L 375.158802 280.350362 
L 375.688995 289.424533 
L 375.688995 289.424533 
L 376.042457 294.517899 
L 376.042457 294.517899 
L 376.74938 282.236291 
L 376.74938 282.236291 
L 377.102842 278.423729 
L 377.102842 278.423729 
L 377.279572 277.457698 
L 377.279572 277.457698 
L 377.456303 277.233829 
L 377.456303 277.233829 
L 377.809765 278.517347 
L 377.809765 278.517347 
L 379.046881 286.362271 
L 379.046881 286.362271 
L 379.400342 287.018955 
L 379.400342 287.018955 
L 380.107266 286.318854 
L 380.107266 286.318854 
L 380.460727 286.447749 
L 380.460727 286.447749 
L 380.814189 287.58202 
L 380.814189 287.58202 
L 381.344382 290.343075 
L 381.344382 290.343075 
L 381.874574 292.614332 
L 381.874574 292.614332 
L 382.404767 294.143427 
L 382.404767 294.143427 
L 383.11169 295.296693 
L 383.11169 295.296693 
L 383.465152 293.844935 
L 383.465152 293.844935 
L 385.23246 283.373276 
L 385.23246 283.373276 
L 385.939383 279.036995 
L 385.939383 279.036995 
L 386.292845 278.175437 
L 386.292845 278.175437 
L 386.469576 278.328754 
L 386.469576 278.328754 
L 386.646307 278.756141 
L 386.646307 278.756141 
L 386.999768 280.692271 
L 386.999768 280.692271 
L 387.883423 288.027045 
L 387.883423 288.027045 
L 388.413615 291.754131 
L 388.413615 291.754131 
L 388.943808 294.384935 
L 388.943808 294.384935 
L 389.297269 295.393025 
L 389.297269 295.393025 
L 389.650731 294.699709 
L 389.650731 294.699709 
L 391.064578 293.058 
L 391.064578 293.058 
L 391.948232 291.299608 
L 391.948232 291.299608 
L 392.124963 291.23991 
L 392.124963 291.23991 
L 393.008617 292.218151 
L 393.008617 292.218151 
L 393.362078 292.01192 
L 393.362078 292.01192 
L 394.069002 291.211417 
L 394.069002 291.211417 
L 394.422464 290.873578 
L 394.422464 290.873578 
L 394.775925 291.318603 
L 394.775925 291.318603 
L 395.129387 292.408101 
L 395.129387 292.408101 
L 395.83631 294.295387 
L 395.83631 294.295387 
L 396.719964 295.192221 
L 396.719964 295.192221 
L 397.073426 293.047146 
L 397.073426 293.047146 
L 397.426888 290.42991 
L 397.426888 290.42991 
L 397.603619 290.381065 
L 397.603619 290.381065 
L 397.780349 288.397447 
L 397.780349 288.397447 
L 398.133811 294.707849 
L 398.133811 294.707849 
L 398.310542 287.183126 
L 398.310542 287.183126 
L 398.487273 256.38006 
L 398.487273 256.38006 
" clip-path="url(#p544538eb6e)" style="fill: none; stroke: #1f77b4; stroke-width: 1.5; stroke-linecap: square"/>
   </g>
   <g id="patch_3">
    <path d="M 57.6 307.584 
L 57.6 41.472 
" style="fill: none; stroke: #000000; stroke-width: 0.8; stroke-linejoin: miter; stroke-linecap: square"/>
   </g>
   <g id="patch_4">
    <path d="M 414.72 307.584 
L 414.72 41.472 
" style="fill: none; stroke: #000000; stroke-width: 0.8; stroke-linejoin: miter; stroke-linecap: square"/>
   </g>
   <g id="patch_5">
    <path d="M 57.6 307.584 
L 414.72 307.584 
" style="fill: none; stroke: #000000; stroke-width: 0.8; stroke-linejoin: miter; stroke-linecap: square"/>
   </g>
   <g id="patch_6">
    <path d="M 57.6 41.472 
L 414.72 41.472 
" style="fill: none; stroke: #000000; stroke-width: 0.8; stroke-linejoin: miter; stroke-linecap: square"/>
   </g>
   <g id="text_19">
    <!-- Tracking error vs Time -->
    <g transform="translate(169.584375 35.472) scale(0.12 -0.12)">
     <defs>
      <path id="DejaVuSans-76" d="M 191 3500 
L 800 3500 
L 1894 563 
L 2988 3500 
L 3597 3500 
L 2284 0 
L 1503 0 
L 191 3500 
z
" transform="scale(0.015625)"/>
     </defs>
     <use xlink:href="#DejaVuSans-54"/>
     <use xlink:href="#DejaVuSans-72" x="46.333984"/>
     <use xlink:href="#DejaVuSans-61" x="87.447266"/>
     <use xlink:href="#DejaVuSans-63" x="148.726562"/>
     <use xlink:href="#DejaVuSans-6b" x="203.707031"/>
     <use xlink:href="#DejaVuSans-69" x="261.617188"/>
     <use xlink:href="#DejaVuSans-6e" x="289.400391"/>
     <use xlink:href="#DejaVuSans-67" x="352.779297"/>
     <use xlink:href="#DejaVuSans-20" x="416.255859"/>
     <use xlink:href="#DejaVuSans-65" x="448.042969"/>
     <use xlink:href="#DejaVuSans-72" x="509.566406"/>
     <use xlink:href="#DejaVuSans-72" x="548.929688"/>
     <use xlink:href="#DejaVuSans-6f" x="587.792969"/>
     <use xlink:href="#DejaVuSans-72" x="648.974609"/>
     <use xlink:href="#DejaVuSans-20" x="690.087891"/>
     <use xlink:href="#DejaVuSans-76" x="721.875"/>
     <use xlink:href="#DejaVuSans-73" x="781.054688"/>
     <use xlink:href="#DejaVuSans-20" x="833.154297"/>
     <use xlink:href="#DejaVuSans-54" x="864.941406"/>
     <use xlink:href="#DejaVuSans-69" x="922.900391"/>
     <use xlink:href="#DejaVuSans-6d" x="950.683594"/>
     <use xlink:href="#DejaVuSans-65" x="1048.095703"/>
    </g>
   </g>
   <g id="legend_1">
    <g id="patch_7">
     <path d="M 311.00125 64.150125 
L 407.72 64.150125 
Q 409.72 64.150125 409.72 62.150125 
L 409.72 48.472 
Q 409.72 46.472 407.72 46.472 
L 311.00125 46.472 
Q 309.00125 46.472 309.00125 48.472 
L 309.00125 62.150125 
Q 309.00125 64.150125 311.00125 64.150125 
z
" style="fill: #ffffff; opacity: 0.8; stroke: #cccccc; stroke-linejoin: miter"/>
    </g>
    <g id="line2d_34">
     <path d="M 313.00125 54.570438 
L 323.00125 54.570438 
L 333.00125 54.570438 
" style="fill: none; stroke: #1f77b4; stroke-width: 1.5; stroke-linecap: square"/>
    </g>
    <g id="text_20">
     <!-- Actual speed -->
     <g transform="translate(341.00125 58.070438) scale(0.1 -0.1)">
      <defs>
       <path id="DejaVuSans-41" d="M 2188 4044 
L 1331 1722 
L 3047 1722 
L 2188 4044 
z
M 1831 4666 
L 2547 4666 
L 4325 0 
L 3669 0 
L 3244 1197 
L 1141 1197 
L 716 0 
L 50 0 
L 1831 4666 
z
" transform="scale(0.015625)"/>
       <path id="DejaVuSans-74" d="M 1172 4494 
L 1172 3500 
L 2356 3500 
L 2356 3053 
L 1172 3053 
L 1172 1153 
Q 1172 725 1289 603 
Q 1406 481 1766 481 
L 2356 481 
L 2356 0 
L 1766 0 
Q 1100 0 847 248 
Q 594 497 594 1153 
L 594 3053 
L 172 3053 
L 172 3500 
L 594 3500 
L 594 4494 
L 1172 4494 
z
" transform="scale(0.015625)"/>
       <path id="DejaVuSans-75" d="M 544 1381 
L 544 3500 
L 1119 3500 
L 1119 1403 
Q 1119 906 1312 657 
Q 1506 409 1894 409 
Q 2359 409 2629 706 
Q 2900 1003 2900 1516 
L 2900 3500 
L 3475 3500 
L 3475 0 
L 2900 0 
L 2900 538 
Q 2691 219 2414 64 
Q 2138 -91 1772 -91 
Q 1169 -91 856 284 
Q 544 659 544 1381 
z
M 1991 3584 
L 1991 3584 
z
" transform="scale(0.015625)"/>
       <path id="DejaVuSans-6c" d="M 603 4863 
L 1178 4863 
L 1178 0 
L 603 0 
L 603 4863 
z
" transform="scale(0.015625)"/>
       <path id="DejaVuSans-70" d="M 1159 525 
L 1159 -1331 
L 581 -1331 
L 581 3500 
L 1159 3500 
L 1159 2969 
Q 1341 3281 1617 3432 
Q 1894 3584 2278 3584 
Q 2916 3584 3314 3078 
Q 3713 2572 3713 1747 
Q 3713 922 3314 415 
Q 2916 -91 2278 -91 
Q 1894 -91 1617 61 
Q 1341 213 1159 525 
z
M 3116 1747 
Q 3116 2381 2855 2742 
Q 2594 3103 2138 3103 
Q 1681 3103 1420 2742 
Q 1159 2381 1159 1747 
Q 1159 1113 1420 752 
Q 1681 391 2138 391 
Q 2594 391 2855 752 
Q 3116 1113 3116 1747 
z
" transform="scale(0.015625)"/>
       <path id="DejaVuSans-64" d="M 2906 2969 
L 2906 4863 
L 3481 4863 
L 3481 0 
L 2906 0 
L 2906 525 
Q 2725 213 2448 61 
Q 2172 -91 1784 -91 
Q 1150 -91 751 415 
Q 353 922 353 1747 
Q 353 2572 751 3078 
Q 1150 3584 1784 3584 
Q 2172 3584 2448 3432 
Q 2725 3281 2906 2969 
z
M 947 1747 
Q 947 1113 1208 752 
Q 1469 391 1925 391 
Q 2381 391 2643 752 
Q 2906 1113 2906 1747 
Q 2906 2381 2643 2742 
Q 2381 3103 1925 3103 
Q 1469 3103 1208 2742 
Q 947 2381 947 1747 
z
" transform="scale(0.015625)"/>
      </defs>
      <use xlink:href="#DejaVuSans-41"/>
      <use xlink:href="#DejaVuSans-63" x="66.658203"/>
      <use xlink:href="#DejaVuSans-74" x="121.638672"/>
      <use xlink:href="#DejaVuSans-75" x="160.847656"/>
      <use xlink:href="#DejaVuSans-61" x="224.226562"/>
      <use xlink:href="#DejaVuSans-6c" x="285.505859"/>
      <use xlink:href="#DejaVuSans-20" x="313.289062"/>
      <use xlink:href="#DejaVuSans-73" x="345.076172"/>
      <use xlink:href="#DejaVuSans-70" x="397.175781"/>
      <use xlink:href="#DejaVuSans-65" x="460.652344"/>
      <use xlink:href="#DejaVuSans-65" x="522.175781"/>
      <use xlink:href="#DejaVuSans-64" x="583.699219"/>
     </g>
    </g>
   </g>
  </g>
 </g>
 <defs>
  <clipPath id="p544538eb6e">
   <rect x="57.6" y="41.472" width="357.12" height="266.112"/>
  </clipPath>
 </defs>
</svg>
