<?xml version="1.0" encoding="utf-8" standalone="no"?>
<!DOCTYPE svg PUBLIC "-//W3C//DTD SVG 1.1//EN"
  "http://www.w3.org/Graphics/SVG/1.1/DTD/svg11.dtd">
<svg xmlns:xlink="http://www.w3.org/1999/xlink" width="460.8pt" height="345.6pt" viewBox="0 0 460.8 345.6" xmlns="http://www.w3.org/2000/svg" version="1.1">
 <metadata>
  <rdf:RDF xmlns:dc="http://purl.org/dc/elements/1.1/" xmlns:cc="http://creativecommons.org/ns#" xmlns:rdf="http://www.w3.org/1999/02/22-rdf-syntax-ns#">
   <cc:Work>
    <dc:type rdf:resource="http://purl.org/dc/dcmitype/StillImage"/>
    <dc:date>2024-01-30T20:59:01.017138</dc:date>
    <dc:format>image/svg+xml</dc:format>
    <dc:creator>
     <cc:Agent>
      <dc:title>Matplotlib v3.7.1, https://matplotlib.org/</dc:title>
     </cc:Agent>
    </dc:creator>
   </cc:Work>
  </rdf:RDF>
 </metadata>
 <defs>
  <style type="text/css">*{stroke-linejoin: round; stroke-linecap: butt}</style>
 </defs>
 <g id="figure_1">
  <g id="patch_1">
   <path d="M 0 345.6 
L 460.8 345.6 
L 460.8 0 
L 0 0 
z
" style="fill: #ffffff"/>
  </g>
  <g id="axes_1">
   <g id="patch_2">
    <path d="M 57.6 307.584 
L 414.72 307.584 
L 414.72 41.472 
L 57.6 41.472 
z
" style="fill: #ffffff"/>
   </g>
   <g id="matplotlib.axis_1">
    <g id="xtick_1">
     <g id="line2d_1">
      <path d="M 73.832727 307.584 
L 73.832727 41.472 
" clip-path="url(#p2565b137cd)" style="fill: none; stroke: #b0b0b0; stroke-width: 0.8; stroke-linecap: square"/>
     </g>
     <g id="line2d_2">
      <defs>
       <path id="mbcda58f4c6" d="M 0 0 
L 0 3.5 
" style="stroke: #000000; stroke-width: 0.8"/>
      </defs>
      <g>
       <use xlink:href="#mbcda58f4c6" x="73.832727" y="307.584" style="stroke: #000000; stroke-width: 0.8"/>
      </g>
     </g>
     <g id="text_1">
      <!-- 0 -->
      <g transform="translate(70.651477 322.182437) scale(0.1 -0.1)">
       <defs>
        <path id="DejaVuSans-30" d="M 2034 4250 
Q 1547 4250 1301 3770 
Q 1056 3291 1056 2328 
Q 1056 1369 1301 889 
Q 1547 409 2034 409 
Q 2525 409 2770 889 
Q 3016 1369 3016 2328 
Q 3016 3291 2770 3770 
Q 2525 4250 2034 4250 
z
M 2034 4750 
Q 2819 4750 3233 4129 
Q 3647 3509 3647 2328 
Q 3647 1150 3233 529 
Q 2819 -91 2034 -91 
Q 1250 -91 836 529 
Q 422 1150 422 2328 
Q 422 3509 836 4129 
Q 1250 4750 2034 4750 
z
" transform="scale(0.015625)"/>
       </defs>
       <use xlink:href="#DejaVuSans-30"/>
      </g>
     </g>
    </g>
    <g id="xtick_2">
     <g id="line2d_3">
      <path d="M 117.991398 307.584 
L 117.991398 41.472 
" clip-path="url(#p2565b137cd)" style="fill: none; stroke: #b0b0b0; stroke-width: 0.8; stroke-linecap: square"/>
     </g>
     <g id="line2d_4">
      <g>
       <use xlink:href="#mbcda58f4c6" x="117.991398" y="307.584" style="stroke: #000000; stroke-width: 0.8"/>
      </g>
     </g>
     <g id="text_2">
      <!-- 5 -->
      <g transform="translate(114.810148 322.182437) scale(0.1 -0.1)">
       <defs>
        <path id="DejaVuSans-35" d="M 691 4666 
L 3169 4666 
L 3169 4134 
L 1269 4134 
L 1269 2991 
Q 1406 3038 1543 3061 
Q 1681 3084 1819 3084 
Q 2600 3084 3056 2656 
Q 3513 2228 3513 1497 
Q 3513 744 3044 326 
Q 2575 -91 1722 -91 
Q 1428 -91 1123 -41 
Q 819 9 494 109 
L 494 744 
Q 775 591 1075 516 
Q 1375 441 1709 441 
Q 2250 441 2565 725 
Q 2881 1009 2881 1497 
Q 2881 1984 2565 2268 
Q 2250 2553 1709 2553 
Q 1456 2553 1204 2497 
Q 953 2441 691 2322 
L 691 4666 
z
" transform="scale(0.015625)"/>
       </defs>
       <use xlink:href="#DejaVuSans-35"/>
      </g>
     </g>
    </g>
    <g id="xtick_3">
     <g id="line2d_5">
      <path d="M 162.150068 307.584 
L 162.150068 41.472 
" clip-path="url(#p2565b137cd)" style="fill: none; stroke: #b0b0b0; stroke-width: 0.8; stroke-linecap: square"/>
     </g>
     <g id="line2d_6">
      <g>
       <use xlink:href="#mbcda58f4c6" x="162.150068" y="307.584" style="stroke: #000000; stroke-width: 0.8"/>
      </g>
     </g>
     <g id="text_3">
      <!-- 10 -->
      <g transform="translate(155.787568 322.182437) scale(0.1 -0.1)">
       <defs>
        <path id="DejaVuSans-31" d="M 794 531 
L 1825 531 
L 1825 4091 
L 703 3866 
L 703 4441 
L 1819 4666 
L 2450 4666 
L 2450 531 
L 3481 531 
L 3481 0 
L 794 0 
L 794 531 
z
" transform="scale(0.015625)"/>
       </defs>
       <use xlink:href="#DejaVuSans-31"/>
       <use xlink:href="#DejaVuSans-30" x="63.623047"/>
      </g>
     </g>
    </g>
    <g id="xtick_4">
     <g id="line2d_7">
      <path d="M 206.308739 307.584 
L 206.308739 41.472 
" clip-path="url(#p2565b137cd)" style="fill: none; stroke: #b0b0b0; stroke-width: 0.8; stroke-linecap: square"/>
     </g>
     <g id="line2d_8">
      <g>
       <use xlink:href="#mbcda58f4c6" x="206.308739" y="307.584" style="stroke: #000000; stroke-width: 0.8"/>
      </g>
     </g>
     <g id="text_4">
      <!-- 15 -->
      <g transform="translate(199.946239 322.182437) scale(0.1 -0.1)">
       <use xlink:href="#DejaVuSans-31"/>
       <use xlink:href="#DejaVuSans-35" x="63.623047"/>
      </g>
     </g>
    </g>
    <g id="xtick_5">
     <g id="line2d_9">
      <path d="M 250.467409 307.584 
L 250.467409 41.472 
" clip-path="url(#p2565b137cd)" style="fill: none; stroke: #b0b0b0; stroke-width: 0.8; stroke-linecap: square"/>
     </g>
     <g id="line2d_10">
      <g>
       <use xlink:href="#mbcda58f4c6" x="250.467409" y="307.584" style="stroke: #000000; stroke-width: 0.8"/>
      </g>
     </g>
     <g id="text_5">
      <!-- 20 -->
      <g transform="translate(244.104909 322.182437) scale(0.1 -0.1)">
       <defs>
        <path id="DejaVuSans-32" d="M 1228 531 
L 3431 531 
L 3431 0 
L 469 0 
L 469 531 
Q 828 903 1448 1529 
Q 2069 2156 2228 2338 
Q 2531 2678 2651 2914 
Q 2772 3150 2772 3378 
Q 2772 3750 2511 3984 
Q 2250 4219 1831 4219 
Q 1534 4219 1204 4116 
Q 875 4013 500 3803 
L 500 4441 
Q 881 4594 1212 4672 
Q 1544 4750 1819 4750 
Q 2544 4750 2975 4387 
Q 3406 4025 3406 3419 
Q 3406 3131 3298 2873 
Q 3191 2616 2906 2266 
Q 2828 2175 2409 1742 
Q 1991 1309 1228 531 
z
" transform="scale(0.015625)"/>
       </defs>
       <use xlink:href="#DejaVuSans-32"/>
       <use xlink:href="#DejaVuSans-30" x="63.623047"/>
      </g>
     </g>
    </g>
    <g id="xtick_6">
     <g id="line2d_11">
      <path d="M 294.62608 307.584 
L 294.62608 41.472 
" clip-path="url(#p2565b137cd)" style="fill: none; stroke: #b0b0b0; stroke-width: 0.8; stroke-linecap: square"/>
     </g>
     <g id="line2d_12">
      <g>
       <use xlink:href="#mbcda58f4c6" x="294.62608" y="307.584" style="stroke: #000000; stroke-width: 0.8"/>
      </g>
     </g>
     <g id="text_6">
      <!-- 25 -->
      <g transform="translate(288.26358 322.182437) scale(0.1 -0.1)">
       <use xlink:href="#DejaVuSans-32"/>
       <use xlink:href="#DejaVuSans-35" x="63.623047"/>
      </g>
     </g>
    </g>
    <g id="xtick_7">
     <g id="line2d_13">
      <path d="M 338.78475 307.584 
L 338.78475 41.472 
" clip-path="url(#p2565b137cd)" style="fill: none; stroke: #b0b0b0; stroke-width: 0.8; stroke-linecap: square"/>
     </g>
     <g id="line2d_14">
      <g>
       <use xlink:href="#mbcda58f4c6" x="338.78475" y="307.584" style="stroke: #000000; stroke-width: 0.8"/>
      </g>
     </g>
     <g id="text_7">
      <!-- 30 -->
      <g transform="translate(332.42225 322.182437) scale(0.1 -0.1)">
       <defs>
        <path id="DejaVuSans-33" d="M 2597 2516 
Q 3050 2419 3304 2112 
Q 3559 1806 3559 1356 
Q 3559 666 3084 287 
Q 2609 -91 1734 -91 
Q 1441 -91 1130 -33 
Q 819 25 488 141 
L 488 750 
Q 750 597 1062 519 
Q 1375 441 1716 441 
Q 2309 441 2620 675 
Q 2931 909 2931 1356 
Q 2931 1769 2642 2001 
Q 2353 2234 1838 2234 
L 1294 2234 
L 1294 2753 
L 1863 2753 
Q 2328 2753 2575 2939 
Q 2822 3125 2822 3475 
Q 2822 3834 2567 4026 
Q 2313 4219 1838 4219 
Q 1578 4219 1281 4162 
Q 984 4106 628 3988 
L 628 4550 
Q 988 4650 1302 4700 
Q 1616 4750 1894 4750 
Q 2613 4750 3031 4423 
Q 3450 4097 3450 3541 
Q 3450 3153 3228 2886 
Q 3006 2619 2597 2516 
z
" transform="scale(0.015625)"/>
       </defs>
       <use xlink:href="#DejaVuSans-33"/>
       <use xlink:href="#DejaVuSans-30" x="63.623047"/>
      </g>
     </g>
    </g>
    <g id="xtick_8">
     <g id="line2d_15">
      <path d="M 382.943421 307.584 
L 382.943421 41.472 
" clip-path="url(#p2565b137cd)" style="fill: none; stroke: #b0b0b0; stroke-width: 0.8; stroke-linecap: square"/>
     </g>
     <g id="line2d_16">
      <g>
       <use xlink:href="#mbcda58f4c6" x="382.943421" y="307.584" style="stroke: #000000; stroke-width: 0.8"/>
      </g>
     </g>
     <g id="text_8">
      <!-- 35 -->
      <g transform="translate(376.580921 322.182437) scale(0.1 -0.1)">
       <use xlink:href="#DejaVuSans-33"/>
       <use xlink:href="#DejaVuSans-35" x="63.623047"/>
      </g>
     </g>
    </g>
    <g id="text_9">
     <!-- Time(s) -->
     <g transform="translate(217.420156 335.860562) scale(0.1 -0.1)">
      <defs>
       <path id="DejaVuSans-54" d="M -19 4666 
L 3928 4666 
L 3928 4134 
L 2272 4134 
L 2272 0 
L 1638 0 
L 1638 4134 
L -19 4134 
L -19 4666 
z
" transform="scale(0.015625)"/>
       <path id="DejaVuSans-69" d="M 603 3500 
L 1178 3500 
L 1178 0 
L 603 0 
L 603 3500 
z
M 603 4863 
L 1178 4863 
L 1178 4134 
L 603 4134 
L 603 4863 
z
" transform="scale(0.015625)"/>
       <path id="DejaVuSans-6d" d="M 3328 2828 
Q 3544 3216 3844 3400 
Q 4144 3584 4550 3584 
Q 5097 3584 5394 3201 
Q 5691 2819 5691 2113 
L 5691 0 
L 5113 0 
L 5113 2094 
Q 5113 2597 4934 2840 
Q 4756 3084 4391 3084 
Q 3944 3084 3684 2787 
Q 3425 2491 3425 1978 
L 3425 0 
L 2847 0 
L 2847 2094 
Q 2847 2600 2669 2842 
Q 2491 3084 2119 3084 
Q 1678 3084 1418 2786 
Q 1159 2488 1159 1978 
L 1159 0 
L 581 0 
L 581 3500 
L 1159 3500 
L 1159 2956 
Q 1356 3278 1631 3431 
Q 1906 3584 2284 3584 
Q 2666 3584 2933 3390 
Q 3200 3197 3328 2828 
z
" transform="scale(0.015625)"/>
       <path id="DejaVuSans-65" d="M 3597 1894 
L 3597 1613 
L 953 1613 
Q 991 1019 1311 708 
Q 1631 397 2203 397 
Q 2534 397 2845 478 
Q 3156 559 3463 722 
L 3463 178 
Q 3153 47 2828 -22 
Q 2503 -91 2169 -91 
Q 1331 -91 842 396 
Q 353 884 353 1716 
Q 353 2575 817 3079 
Q 1281 3584 2069 3584 
Q 2775 3584 3186 3129 
Q 3597 2675 3597 1894 
z
M 3022 2063 
Q 3016 2534 2758 2815 
Q 2500 3097 2075 3097 
Q 1594 3097 1305 2825 
Q 1016 2553 972 2059 
L 3022 2063 
z
" transform="scale(0.015625)"/>
       <path id="DejaVuSans-28" d="M 1984 4856 
Q 1566 4138 1362 3434 
Q 1159 2731 1159 2009 
Q 1159 1288 1364 580 
Q 1569 -128 1984 -844 
L 1484 -844 
Q 1016 -109 783 600 
Q 550 1309 550 2009 
Q 550 2706 781 3412 
Q 1013 4119 1484 4856 
L 1984 4856 
z
" transform="scale(0.015625)"/>
       <path id="DejaVuSans-73" d="M 2834 3397 
L 2834 2853 
Q 2591 2978 2328 3040 
Q 2066 3103 1784 3103 
Q 1356 3103 1142 2972 
Q 928 2841 928 2578 
Q 928 2378 1081 2264 
Q 1234 2150 1697 2047 
L 1894 2003 
Q 2506 1872 2764 1633 
Q 3022 1394 3022 966 
Q 3022 478 2636 193 
Q 2250 -91 1575 -91 
Q 1294 -91 989 -36 
Q 684 19 347 128 
L 347 722 
Q 666 556 975 473 
Q 1284 391 1588 391 
Q 1994 391 2212 530 
Q 2431 669 2431 922 
Q 2431 1156 2273 1281 
Q 2116 1406 1581 1522 
L 1381 1569 
Q 847 1681 609 1914 
Q 372 2147 372 2553 
Q 372 3047 722 3315 
Q 1072 3584 1716 3584 
Q 2034 3584 2315 3537 
Q 2597 3491 2834 3397 
z
" transform="scale(0.015625)"/>
       <path id="DejaVuSans-29" d="M 513 4856 
L 1013 4856 
Q 1481 4119 1714 3412 
Q 1947 2706 1947 2009 
Q 1947 1309 1714 600 
Q 1481 -109 1013 -844 
L 513 -844 
Q 928 -128 1133 580 
Q 1338 1288 1338 2009 
Q 1338 2731 1133 3434 
Q 928 4138 513 4856 
z
" transform="scale(0.015625)"/>
      </defs>
      <use xlink:href="#DejaVuSans-54"/>
      <use xlink:href="#DejaVuSans-69" x="57.958984"/>
      <use xlink:href="#DejaVuSans-6d" x="85.742188"/>
      <use xlink:href="#DejaVuSans-65" x="183.154297"/>
      <use xlink:href="#DejaVuSans-28" x="244.677734"/>
      <use xlink:href="#DejaVuSans-73" x="283.691406"/>
      <use xlink:href="#DejaVuSans-29" x="335.791016"/>
     </g>
    </g>
   </g>
   <g id="matplotlib.axis_2">
    <g id="ytick_1">
     <g id="line2d_17">
      <path d="M 57.6 295.488 
L 414.72 295.488 
" clip-path="url(#p2565b137cd)" style="fill: none; stroke: #b0b0b0; stroke-width: 0.8; stroke-linecap: square"/>
     </g>
     <g id="line2d_18">
      <defs>
       <path id="m6603cdcc15" d="M 0 0 
L -3.5 0 
" style="stroke: #000000; stroke-width: 0.8"/>
      </defs>
      <g>
       <use xlink:href="#m6603cdcc15" x="57.6" y="295.488" style="stroke: #000000; stroke-width: 0.8"/>
      </g>
     </g>
     <g id="text_10">
      <!-- 0.000 -->
      <g transform="translate(21.971875 299.287219) scale(0.1 -0.1)">
       <defs>
        <path id="DejaVuSans-2e" d="M 684 794 
L 1344 794 
L 1344 0 
L 684 0 
L 684 794 
z
" transform="scale(0.015625)"/>
       </defs>
       <use xlink:href="#DejaVuSans-30"/>
       <use xlink:href="#DejaVuSans-2e" x="63.623047"/>
       <use xlink:href="#DejaVuSans-30" x="95.410156"/>
       <use xlink:href="#DejaVuSans-30" x="159.033203"/>
       <use xlink:href="#DejaVuSans-30" x="222.65625"/>
      </g>
     </g>
    </g>
    <g id="ytick_2">
     <g id="line2d_19">
      <path d="M 57.6 260.673556 
L 414.72 260.673556 
" clip-path="url(#p2565b137cd)" style="fill: none; stroke: #b0b0b0; stroke-width: 0.8; stroke-linecap: square"/>
     </g>
     <g id="line2d_20">
      <g>
       <use xlink:href="#m6603cdcc15" x="57.6" y="260.673556" style="stroke: #000000; stroke-width: 0.8"/>
      </g>
     </g>
     <g id="text_11">
      <!-- 0.025 -->
      <g transform="translate(21.971875 264.472775) scale(0.1 -0.1)">
       <use xlink:href="#DejaVuSans-30"/>
       <use xlink:href="#DejaVuSans-2e" x="63.623047"/>
       <use xlink:href="#DejaVuSans-30" x="95.410156"/>
       <use xlink:href="#DejaVuSans-32" x="159.033203"/>
       <use xlink:href="#DejaVuSans-35" x="222.65625"/>
      </g>
     </g>
    </g>
    <g id="ytick_3">
     <g id="line2d_21">
      <path d="M 57.6 225.859112 
L 414.72 225.859112 
" clip-path="url(#p2565b137cd)" style="fill: none; stroke: #b0b0b0; stroke-width: 0.8; stroke-linecap: square"/>
     </g>
     <g id="line2d_22">
      <g>
       <use xlink:href="#m6603cdcc15" x="57.6" y="225.859112" style="stroke: #000000; stroke-width: 0.8"/>
      </g>
     </g>
     <g id="text_12">
      <!-- 0.050 -->
      <g transform="translate(21.971875 229.658331) scale(0.1 -0.1)">
       <use xlink:href="#DejaVuSans-30"/>
       <use xlink:href="#DejaVuSans-2e" x="63.623047"/>
       <use xlink:href="#DejaVuSans-30" x="95.410156"/>
       <use xlink:href="#DejaVuSans-35" x="159.033203"/>
       <use xlink:href="#DejaVuSans-30" x="222.65625"/>
      </g>
     </g>
    </g>
    <g id="ytick_4">
     <g id="line2d_23">
      <path d="M 57.6 191.044668 
L 414.72 191.044668 
" clip-path="url(#p2565b137cd)" style="fill: none; stroke: #b0b0b0; stroke-width: 0.8; stroke-linecap: square"/>
     </g>
     <g id="line2d_24">
      <g>
       <use xlink:href="#m6603cdcc15" x="57.6" y="191.044668" style="stroke: #000000; stroke-width: 0.8"/>
      </g>
     </g>
     <g id="text_13">
      <!-- 0.075 -->
      <g transform="translate(21.971875 194.843887) scale(0.1 -0.1)">
       <defs>
        <path id="DejaVuSans-37" d="M 525 4666 
L 3525 4666 
L 3525 4397 
L 1831 0 
L 1172 0 
L 2766 4134 
L 525 4134 
L 525 4666 
z
" transform="scale(0.015625)"/>
       </defs>
       <use xlink:href="#DejaVuSans-30"/>
       <use xlink:href="#DejaVuSans-2e" x="63.623047"/>
       <use xlink:href="#DejaVuSans-30" x="95.410156"/>
       <use xlink:href="#DejaVuSans-37" x="159.033203"/>
       <use xlink:href="#DejaVuSans-35" x="222.65625"/>
      </g>
     </g>
    </g>
    <g id="ytick_5">
     <g id="line2d_25">
      <path d="M 57.6 156.230225 
L 414.72 156.230225 
" clip-path="url(#p2565b137cd)" style="fill: none; stroke: #b0b0b0; stroke-width: 0.8; stroke-linecap: square"/>
     </g>
     <g id="line2d_26">
      <g>
       <use xlink:href="#m6603cdcc15" x="57.6" y="156.230225" style="stroke: #000000; stroke-width: 0.8"/>
      </g>
     </g>
     <g id="text_14">
      <!-- 0.100 -->
      <g transform="translate(21.971875 160.029443) scale(0.1 -0.1)">
       <use xlink:href="#DejaVuSans-30"/>
       <use xlink:href="#DejaVuSans-2e" x="63.623047"/>
       <use xlink:href="#DejaVuSans-31" x="95.410156"/>
       <use xlink:href="#DejaVuSans-30" x="159.033203"/>
       <use xlink:href="#DejaVuSans-30" x="222.65625"/>
      </g>
     </g>
    </g>
    <g id="ytick_6">
     <g id="line2d_27">
      <path d="M 57.6 121.415781 
L 414.72 121.415781 
" clip-path="url(#p2565b137cd)" style="fill: none; stroke: #b0b0b0; stroke-width: 0.8; stroke-linecap: square"/>
     </g>
     <g id="line2d_28">
      <g>
       <use xlink:href="#m6603cdcc15" x="57.6" y="121.415781" style="stroke: #000000; stroke-width: 0.8"/>
      </g>
     </g>
     <g id="text_15">
      <!-- 0.125 -->
      <g transform="translate(21.971875 125.215) scale(0.1 -0.1)">
       <use xlink:href="#DejaVuSans-30"/>
       <use xlink:href="#DejaVuSans-2e" x="63.623047"/>
       <use xlink:href="#DejaVuSans-31" x="95.410156"/>
       <use xlink:href="#DejaVuSans-32" x="159.033203"/>
       <use xlink:href="#DejaVuSans-35" x="222.65625"/>
      </g>
     </g>
    </g>
    <g id="ytick_7">
     <g id="line2d_29">
      <path d="M 57.6 86.601337 
L 414.72 86.601337 
" clip-path="url(#p2565b137cd)" style="fill: none; stroke: #b0b0b0; stroke-width: 0.8; stroke-linecap: square"/>
     </g>
     <g id="line2d_30">
      <g>
       <use xlink:href="#m6603cdcc15" x="57.6" y="86.601337" style="stroke: #000000; stroke-width: 0.8"/>
      </g>
     </g>
     <g id="text_16">
      <!-- 0.150 -->
      <g transform="translate(21.971875 90.400556) scale(0.1 -0.1)">
       <use xlink:href="#DejaVuSans-30"/>
       <use xlink:href="#DejaVuSans-2e" x="63.623047"/>
       <use xlink:href="#DejaVuSans-31" x="95.410156"/>
       <use xlink:href="#DejaVuSans-35" x="159.033203"/>
       <use xlink:href="#DejaVuSans-30" x="222.65625"/>
      </g>
     </g>
    </g>
    <g id="ytick_8">
     <g id="line2d_31">
      <path d="M 57.6 51.786893 
L 414.72 51.786893 
" clip-path="url(#p2565b137cd)" style="fill: none; stroke: #b0b0b0; stroke-width: 0.8; stroke-linecap: square"/>
     </g>
     <g id="line2d_32">
      <g>
       <use xlink:href="#m6603cdcc15" x="57.6" y="51.786893" style="stroke: #000000; stroke-width: 0.8"/>
      </g>
     </g>
     <g id="text_17">
      <!-- 0.175 -->
      <g transform="translate(21.971875 55.586112) scale(0.1 -0.1)">
       <use xlink:href="#DejaVuSans-30"/>
       <use xlink:href="#DejaVuSans-2e" x="63.623047"/>
       <use xlink:href="#DejaVuSans-31" x="95.410156"/>
       <use xlink:href="#DejaVuSans-37" x="159.033203"/>
       <use xlink:href="#DejaVuSans-35" x="222.65625"/>
      </g>
     </g>
    </g>
    <g id="text_18">
     <!-- Tracking error(m) -->
     <g transform="translate(15.892187 217.803781) rotate(-90) scale(0.1 -0.1)">
      <defs>
       <path id="DejaVuSans-72" d="M 2631 2963 
Q 2534 3019 2420 3045 
Q 2306 3072 2169 3072 
Q 1681 3072 1420 2755 
Q 1159 2438 1159 1844 
L 1159 0 
L 581 0 
L 581 3500 
L 1159 3500 
L 1159 2956 
Q 1341 3275 1631 3429 
Q 1922 3584 2338 3584 
Q 2397 3584 2469 3576 
Q 2541 3569 2628 3553 
L 2631 2963 
z
" transform="scale(0.015625)"/>
       <path id="DejaVuSans-61" d="M 2194 1759 
Q 1497 1759 1228 1600 
Q 959 1441 959 1056 
Q 959 750 1161 570 
Q 1363 391 1709 391 
Q 2188 391 2477 730 
Q 2766 1069 2766 1631 
L 2766 1759 
L 2194 1759 
z
M 3341 1997 
L 3341 0 
L 2766 0 
L 2766 531 
Q 2569 213 2275 61 
Q 1981 -91 1556 -91 
Q 1019 -91 701 211 
Q 384 513 384 1019 
Q 384 1609 779 1909 
Q 1175 2209 1959 2209 
L 2766 2209 
L 2766 2266 
Q 2766 2663 2505 2880 
Q 2244 3097 1772 3097 
Q 1472 3097 1187 3025 
Q 903 2953 641 2809 
L 641 3341 
Q 956 3463 1253 3523 
Q 1550 3584 1831 3584 
Q 2591 3584 2966 3190 
Q 3341 2797 3341 1997 
z
" transform="scale(0.015625)"/>
       <path id="DejaVuSans-63" d="M 3122 3366 
L 3122 2828 
Q 2878 2963 2633 3030 
Q 2388 3097 2138 3097 
Q 1578 3097 1268 2742 
Q 959 2388 959 1747 
Q 959 1106 1268 751 
Q 1578 397 2138 397 
Q 2388 397 2633 464 
Q 2878 531 3122 666 
L 3122 134 
Q 2881 22 2623 -34 
Q 2366 -91 2075 -91 
Q 1284 -91 818 406 
Q 353 903 353 1747 
Q 353 2603 823 3093 
Q 1294 3584 2113 3584 
Q 2378 3584 2631 3529 
Q 2884 3475 3122 3366 
z
" transform="scale(0.015625)"/>
       <path id="DejaVuSans-6b" d="M 581 4863 
L 1159 4863 
L 1159 1991 
L 2875 3500 
L 3609 3500 
L 1753 1863 
L 3688 0 
L 2938 0 
L 1159 1709 
L 1159 0 
L 581 0 
L 581 4863 
z
" transform="scale(0.015625)"/>
       <path id="DejaVuSans-6e" d="M 3513 2113 
L 3513 0 
L 2938 0 
L 2938 2094 
Q 2938 2591 2744 2837 
Q 2550 3084 2163 3084 
Q 1697 3084 1428 2787 
Q 1159 2491 1159 1978 
L 1159 0 
L 581 0 
L 581 3500 
L 1159 3500 
L 1159 2956 
Q 1366 3272 1645 3428 
Q 1925 3584 2291 3584 
Q 2894 3584 3203 3211 
Q 3513 2838 3513 2113 
z
" transform="scale(0.015625)"/>
       <path id="DejaVuSans-67" d="M 2906 1791 
Q 2906 2416 2648 2759 
Q 2391 3103 1925 3103 
Q 1463 3103 1205 2759 
Q 947 2416 947 1791 
Q 947 1169 1205 825 
Q 1463 481 1925 481 
Q 2391 481 2648 825 
Q 2906 1169 2906 1791 
z
M 3481 434 
Q 3481 -459 3084 -895 
Q 2688 -1331 1869 -1331 
Q 1566 -1331 1297 -1286 
Q 1028 -1241 775 -1147 
L 775 -588 
Q 1028 -725 1275 -790 
Q 1522 -856 1778 -856 
Q 2344 -856 2625 -561 
Q 2906 -266 2906 331 
L 2906 616 
Q 2728 306 2450 153 
Q 2172 0 1784 0 
Q 1141 0 747 490 
Q 353 981 353 1791 
Q 353 2603 747 3093 
Q 1141 3584 1784 3584 
Q 2172 3584 2450 3431 
Q 2728 3278 2906 2969 
L 2906 3500 
L 3481 3500 
L 3481 434 
z
" transform="scale(0.015625)"/>
       <path id="DejaVuSans-20" transform="scale(0.015625)"/>
       <path id="DejaVuSans-6f" d="M 1959 3097 
Q 1497 3097 1228 2736 
Q 959 2375 959 1747 
Q 959 1119 1226 758 
Q 1494 397 1959 397 
Q 2419 397 2687 759 
Q 2956 1122 2956 1747 
Q 2956 2369 2687 2733 
Q 2419 3097 1959 3097 
z
M 1959 3584 
Q 2709 3584 3137 3096 
Q 3566 2609 3566 1747 
Q 3566 888 3137 398 
Q 2709 -91 1959 -91 
Q 1206 -91 779 398 
Q 353 888 353 1747 
Q 353 2609 779 3096 
Q 1206 3584 1959 3584 
z
" transform="scale(0.015625)"/>
      </defs>
      <use xlink:href="#DejaVuSans-54"/>
      <use xlink:href="#DejaVuSans-72" x="46.333984"/>
      <use xlink:href="#DejaVuSans-61" x="87.447266"/>
      <use xlink:href="#DejaVuSans-63" x="148.726562"/>
      <use xlink:href="#DejaVuSans-6b" x="203.707031"/>
      <use xlink:href="#DejaVuSans-69" x="261.617188"/>
      <use xlink:href="#DejaVuSans-6e" x="289.400391"/>
      <use xlink:href="#DejaVuSans-67" x="352.779297"/>
      <use xlink:href="#DejaVuSans-20" x="416.255859"/>
      <use xlink:href="#DejaVuSans-65" x="448.042969"/>
      <use xlink:href="#DejaVuSans-72" x="509.566406"/>
      <use xlink:href="#DejaVuSans-72" x="548.929688"/>
      <use xlink:href="#DejaVuSans-6f" x="587.792969"/>
      <use xlink:href="#DejaVuSans-72" x="648.974609"/>
      <use xlink:href="#DejaVuSans-28" x="690.087891"/>
      <use xlink:href="#DejaVuSans-6d" x="729.101562"/>
      <use xlink:href="#DejaVuSans-29" x="826.513672"/>
     </g>
    </g>
   </g>
   <g id="line2d_33">
    <path d="M 73.832727 259.248949 
L 74.009362 253.560269 
L 74.009362 253.560269 
L 74.362631 265.363758 
L 74.362631 265.363758 
L 74.715901 269.269939 
L 74.715901 269.269939 
L 75.599074 284.592472 
L 75.599074 284.592472 
L 76.128978 291.060995 
L 76.128978 291.060995 
L 76.658882 294.421285 
L 76.658882 294.421285 
L 77.012152 295.425334 
L 77.012152 295.425334 
L 77.188786 295.290254 
L 77.188786 295.290254 
L 78.248594 295.419764 
L 78.248594 295.419764 
L 79.308402 294.830703 
L 79.308402 294.830703 
L 79.485037 294.783356 
L 79.485037 294.783356 
L 80.014941 295.34735 
L 80.014941 295.34735 
L 80.191576 295.357098 
L 80.191576 295.357098 
L 80.368211 295.208092 
L 80.368211 295.208092 
L 80.544845 294.795889 
L 80.544845 294.795889 
L 80.898115 293.069092 
L 80.898115 293.069092 
L 81.428019 288.493082 
L 81.428019 288.493082 
L 82.311192 280.484367 
L 82.311192 280.484367 
L 82.487827 279.733768 
L 82.487827 279.733768 
L 82.664461 279.522096 
L 82.664461 279.522096 
L 82.841096 279.71845 
L 82.841096 279.71845 
L 83.194365 280.79352 
L 83.194365 280.79352 
L 83.547635 282.726417 
L 83.547635 282.726417 
L 84.077539 288.015428 
L 84.077539 288.015428 
L 84.607443 295.336209 
L 84.607443 295.336209 
L 85.313982 286.21204 
L 85.313982 286.21204 
L 85.667251 283.632986 
L 85.667251 283.632986 
L 86.02052 282.649826 
L 86.02052 282.649826 
L 86.197155 282.658181 
L 86.197155 282.658181 
L 86.37379 282.907453 
L 86.37379 282.907453 
L 87.080328 284.997712 
L 87.080328 284.997712 
L 87.433598 285.150895 
L 87.433598 285.150895 
L 87.786867 284.284712 
L 87.786867 284.284712 
L 89.02331 279.389801 
L 89.02331 279.389801 
L 89.376579 279.471963 
L 89.376579 279.471963 
L 89.553214 279.8215 
L 89.553214 279.8215 
L 89.906483 281.304596 
L 89.906483 281.304596 
L 91.142926 291.384073 
L 91.142926 291.384073 
L 91.319561 295.488 
L 91.319561 295.488 
L 91.496195 295.066049 
L 91.496195 295.066049 
L 93.439177 270.498192 
L 93.439177 270.498192 
L 95.028889 253.61458 
L 95.028889 253.61458 
L 95.205524 251.779162 
L 95.205524 251.779162 
L 95.382158 251.410129 
L 95.382158 251.410129 
L 95.735428 248.832468 
L 95.735428 248.832468 
L 95.912063 248.760053 
L 95.912063 248.760053 
L 96.441967 246.399634 
L 96.441967 246.399634 
L 96.971871 241.779061 
L 96.971871 241.779061 
L 97.148505 237.851992 
L 97.148505 237.851992 
L 97.32514 237.109748 
L 97.32514 237.109748 
L 97.501775 233.462587 
L 97.501775 233.462587 
L 97.678409 232.340169 
L 97.678409 232.340169 
L 98.031679 224.43172 
L 98.031679 224.43172 
L 98.208313 227.396518 
L 98.208313 227.396518 
L 98.384948 225.194853 
L 98.384948 225.194853 
L 98.561583 228.928354 
L 98.561583 228.928354 
L 98.738217 228.129014 
L 98.914852 232.489175 
L 98.914852 232.489175 
L 99.091487 233.20496 
L 99.091487 233.20496 
L 99.268121 231.602103 
L 99.268121 231.602103 
L 99.444756 238.861611 
L 99.444756 238.861611 
L 99.621391 237.605506 
L 99.798026 244.068459 
L 99.798026 244.068459 
L 99.97466 243.039344 
L 99.97466 243.039344 
L 100.151295 248.318606 
L 100.151295 248.318606 
L 100.32793 247.360513 
L 100.32793 247.360513 
L 100.504564 251.708141 
L 100.504564 251.708141 
L 100.681199 251.265301 
L 100.681199 251.265301 
L 100.857834 255.167304 
L 100.857834 255.167304 
L 101.034468 255.649136 
L 101.034468 255.649136 
L 101.211103 254.023997 
L 101.211103 254.023997 
L 101.387738 261.101078 
L 101.387738 261.101078 
L 101.564372 261.298824 
L 101.564372 261.298824 
L 101.741007 267.764562 
L 101.741007 267.764562 
L 101.917642 268.559724 
L 101.917642 268.559724 
L 102.094276 272.708213 
L 102.094276 272.708213 
L 102.270911 272.19853 
L 102.270911 272.19853 
L 102.447546 273.077246 
L 102.447546 273.077246 
L 102.97745 260.833703 
L 102.97745 260.833703 
L 103.154084 249.379751 
L 103.154084 249.379751 
L 103.330719 252.467095 
L 103.330719 252.467095 
L 103.507354 243.716137 
L 103.507354 243.716137 
L 103.683989 247.927292 
L 103.683989 247.927292 
L 103.860623 242.274819 
L 103.860623 242.274819 
L 104.037258 247.520659 
L 104.037258 247.520659 
L 104.213893 244.894258 
L 104.213893 244.894258 
L 104.390527 251.493684 
L 104.390527 251.493684 
L 104.567162 252.028433 
L 104.567162 252.028433 
L 104.920431 262.708112 
L 104.920431 262.708112 
L 105.097066 264.292866 
L 105.097066 264.292866 
L 105.273701 277.153321 
L 105.273701 277.153321 
L 105.450335 281.805924 
L 105.450335 281.805924 
L 105.62697 295.008953 
L 105.62697 295.008953 
L 105.803605 288.749316 
L 105.803605 288.749316 
L 106.333509 254.551784 
L 106.333509 254.551784 
L 108.099856 164.364271 
L 108.099856 164.364271 
L 108.453125 155.453166 
L 108.453125 155.453166 
L 108.62976 158.139449 
L 108.62976 158.139449 
L 108.983029 160.150331 
L 108.983029 160.150331 
L 110.396106 246.171251 
L 110.396106 246.171251 
L 110.572741 251.057807 
L 110.572741 251.057807 
L 110.749376 259.865861 
L 110.749376 259.865861 
L 110.92601 263.027013 
L 110.92601 263.027013 
L 111.27928 271.649854 
L 111.27928 271.649854 
L 111.455915 272.712391 
L 111.455915 272.712391 
L 111.632549 278.129518 
L 111.632549 278.129518 
L 111.809184 279.971899 
L 111.809184 279.971899 
L 111.985819 280.542856 
L 111.985819 280.542856 
L 112.162453 286.592213 
L 112.162453 286.592213 
L 112.339088 288.129619 
L 112.339088 288.129619 
L 112.515723 288.486119 
L 112.515723 288.486119 
L 112.692357 295.184418 
L 112.692357 295.184418 
L 112.868992 293.993764 
L 112.868992 293.993764 
L 113.222261 285.487899 
L 113.222261 285.487899 
L 113.398896 283.141406 
L 113.398896 283.141406 
L 113.752165 271.486922 
L 113.752165 271.486922 
L 113.9288 267.274375 
L 113.9288 267.274375 
L 114.282069 251.287582 
L 114.282069 251.287582 
L 114.458704 244.810703 
L 115.165243 203.641927 
L 115.165243 203.641927 
L 116.754955 118.679365 
L 116.754955 118.679365 
L 117.108224 108.999557 
L 117.108224 108.999557 
L 117.638128 106.35366 
L 117.638128 106.35366 
L 117.991398 112.137035 
L 117.991398 112.137035 
L 118.168032 112.845857 
L 118.168032 112.845857 
L 118.344667 119.989781 
L 118.344667 119.989781 
L 118.521302 121.921286 
L 118.521302 121.921286 
L 118.874571 131.88518 
L 118.874571 131.88518 
L 119.051206 133.417016 
L 119.051206 133.417016 
L 119.58111 155.865369 
L 119.58111 155.865369 
L 119.934379 168.441739 
L 119.934379 168.441739 
L 121.524091 295.488 
L 121.524091 295.488 
L 121.700726 293.706893 
L 121.700726 293.706893 
L 122.23063 263.054864 
L 122.23063 263.054864 
L 122.760534 245.61422 
L 122.760534 245.61422 
L 122.937169 244.466736 
L 122.937169 244.466736 
L 123.113804 238.204314 
L 123.113804 238.204314 
L 123.290438 238.253054 
L 123.290438 238.253054 
L 123.467073 235.045948 
L 123.467073 235.045948 
L 123.643708 235.903776 
L 123.643708 235.903776 
L 123.820342 239.443708 
L 123.820342 239.443708 
L 123.996977 236.65716 
L 123.996977 236.65716 
L 124.173612 240.074546 
L 124.173612 240.074546 
L 124.350246 238.654117 
L 124.350246 238.654117 
L 124.703516 246.601558 
L 124.703516 246.601558 
L 124.88015 243.911098 
L 124.88015 243.911098 
L 125.056785 247.619532 
L 125.056785 247.619532 
L 125.23342 245.739552 
L 125.23342 245.739552 
L 125.410054 248.780942 
L 125.410054 248.780942 
L 125.586689 248.388235 
L 125.586689 248.388235 
L 125.939958 254.647872 
L 125.939958 254.647872 
L 126.116593 252.59939 
L 126.116593 252.59939 
L 126.293228 255.348339 
L 126.293228 255.348339 
L 126.469862 253.943228 
L 126.469862 253.943228 
L 126.646497 255.936007 
L 126.646497 255.936007 
L 126.823132 259.945238 
L 126.823132 259.945238 
L 126.999767 257.389858 
L 127.176401 260.705585 
L 127.176401 260.705585 
L 127.353036 259.424414 
L 127.529671 261.947765 
L 127.529671 261.947765 
L 127.706305 266.087898 
L 127.706305 266.087898 
L 127.88294 263.671776 
L 127.88294 263.671776 
L 128.059575 266.831535 
L 128.059575 266.831535 
L 128.236209 265.608852 
L 128.236209 265.608852 
L 128.412844 268.22829 
L 128.412844 268.22829 
L 128.589479 272.635799 
L 128.589479 272.635799 
L 128.766113 271.211192 
L 128.766113 271.211192 
L 128.942748 275.0185 
L 128.942748 275.0185 
L 129.119383 274.783154 
L 129.119383 274.783154 
L 129.472652 282.378273 
L 129.472652 282.378273 
L 129.649287 281.226611 
L 129.649287 281.226611 
L 129.825921 284.799966 
L 130.002556 284.52702 
L 130.002556 284.52702 
L 130.179191 295.488 
L 130.179191 295.488 
L 130.53246 287.586514 
L 130.53246 287.586514 
L 130.709095 289.259 
L 130.709095 289.259 
L 130.88573 287.385983 
L 130.88573 287.385983 
L 131.062364 287.699313 
L 131.062364 287.699313 
L 131.238999 289.236718 
L 131.238999 289.236718 
L 131.415634 286.45017 
L 131.415634 286.45017 
L 131.592268 287.530811 
L 131.592268 287.530811 
L 131.768903 289.867556 
L 131.768903 289.867556 
L 131.945538 286.351297 
L 131.945538 286.351297 
L 132.122172 287.511315 
L 132.122172 287.511315 
L 132.298807 285.297116 
L 132.298807 285.297116 
L 132.475442 285.538032 
L 132.475442 285.538032 
L 132.652076 286.916684 
L 132.652076 286.916684 
L 132.828711 283.584245 
L 132.828711 283.584245 
L 133.005346 283.411566 
L 133.005346 283.411566 
L 133.18198 284.142669 
L 133.18198 284.142669 
L 133.358615 279.363342 
L 133.358615 279.363342 
L 133.53525 278.658698 
L 133.53525 278.658698 
L 133.711884 278.786815 
L 133.711884 278.786815 
L 133.888519 273.213719 
L 133.888519 273.213719 
L 134.065154 272.004961 
L 134.065154 272.004961 
L 134.418423 265.458453 
L 134.418423 265.458453 
L 134.595058 264.409842 
L 134.595058 264.409842 
L 134.948327 257.69344 
L 134.948327 257.69344 
L 135.124962 256.860678 
L 135.124962 256.860678 
L 135.478231 250.307207 
L 135.478231 250.307207 
L 135.654866 249.090094 
L 135.654866 249.090094 
L 136.008135 241.522827 
L 136.008135 241.522827 
L 136.18477 239.872622 
L 136.18477 239.872622 
L 136.538039 231.755287 
L 136.538039 231.755287 
L 136.714674 229.928224 
L 136.714674 229.928224 
L 137.067943 222.519711 
L 137.067943 222.519711 
L 137.244578 220.982305 
L 137.244578 220.982305 
L 137.597847 214.467826 
L 137.597847 214.467826 
L 137.774482 212.93042 
L 137.774482 212.93042 
L 138.127752 206.846248 
L 138.127752 206.846248 
L 138.481021 203.60572 
L 138.481021 203.60572 
L 138.83429 196.454833 
L 138.83429 196.454833 
L 139.010925 194.24342 
L 139.010925 194.24342 
L 139.364194 186.28066 
L 139.364194 186.28066 
L 139.717464 180.136607 
L 139.717464 180.136607 
L 140.070733 170.369067 
L 140.070733 170.369067 
L 140.600637 156.366697 
L 140.600637 156.366697 
L 141.83708 127.139275 
L 141.83708 127.139275 
L 142.190349 122.365519 
L 142.190349 122.365519 
L 142.366984 121.71797 
L 142.366984 121.71797 
L 142.543619 122.029908 
L 142.543619 122.029908 
L 142.896888 124.355512 
L 142.896888 124.355512 
L 143.250157 130.530202 
L 143.250157 130.530202 
L 143.956696 150.097312 
L 143.956696 150.097312 
L 147.666024 272.202707 
L 147.666024 272.202707 
L 148.195928 282.421443 
L 148.195928 282.421443 
L 148.372563 295.488 
L 148.549198 287.987576 
L 148.549198 287.987576 
L 148.725832 290.187849 
L 148.725832 290.187849 
L 149.079102 291.654233 
L 149.079102 291.654233 
L 149.255736 295.488 
L 149.255736 295.488 
L 149.432371 292.21405 
L 149.432371 292.21405 
L 149.609006 291.977311 
L 149.609006 291.977311 
L 149.962275 289.735261 
L 149.962275 289.735261 
L 150.13891 295.488 
L 150.13891 295.488 
L 150.315545 287.473715 
L 150.315545 287.473715 
L 150.492179 286.09367 
L 150.492179 286.09367 
L 152.258526 262.93928 
L 152.258526 262.93928 
L 152.435161 262.25831 
L 152.435161 262.25831 
L 152.611795 262.613417 
L 152.611795 262.613417 
L 152.965065 265.412498 
L 152.965065 265.412498 
L 153.318334 271.637321 
L 153.318334 271.637321 
L 153.848238 287.036446 
L 153.848238 287.036446 
L 154.024873 293.403311 
L 154.024873 293.403311 
L 154.201508 290.792228 
L 154.201508 290.792228 
L 155.261316 249.86019 
L 155.261316 249.86019 
L 156.144489 236.370289 
L 156.144489 236.370289 
L 156.321124 235.032022 
L 156.321124 235.032022 
L 156.497758 232.688314 
L 156.497758 232.688314 
L 156.674393 235.211664 
L 156.674393 235.211664 
L 156.851028 233.138116 
L 156.851028 233.138116 
L 157.027662 235.215842 
L 157.027662 235.215842 
L 157.204297 232.731484 
L 157.204297 232.731484 
L 157.380932 233.988981 
L 157.380932 233.988981 
L 157.557567 230.845933 
L 157.557567 230.845933 
L 157.734201 230.937843 
L 157.734201 230.937843 
L 157.910836 226.608319 
L 157.910836 226.608319 
L 158.087471 225.289548 
L 158.087471 225.289548 
L 158.617375 211.090825 
L 158.617375 211.090825 
L 158.794009 208.34884 
L 159.323913 190.228618 
L 159.323913 190.228618 
L 159.500548 186.769455 
L 160.030452 164.83357 
L 160.030452 164.83357 
L 160.207087 160.374536 
L 160.207087 160.374536 
L 160.736991 129.208646 
L 160.736991 129.208646 
L 160.913625 124.739864 
L 160.913625 124.739864 
L 161.09026 110.520252 
L 161.09026 110.520252 
L 161.266895 107.528995 
L 161.266895 107.528995 
L 161.44353 92.717538 
L 161.44353 92.717538 
L 161.620164 91.226088 
L 161.620164 91.226088 
L 161.796799 77.26271 
L 161.796799 77.26271 
L 161.973434 78.680355 
L 161.973434 78.680355 
L 162.150068 76.347787 
L 162.150068 76.347787 
L 162.326703 69.396039 
L 162.326703 69.396039 
L 162.503338 68.21374 
L 162.503338 68.21374 
L 162.679972 62.2549 
L 162.679972 62.2549 
L 162.856607 62.972078 
L 162.856607 62.972078 
L 163.033242 57.935124 
L 163.033242 57.935124 
L 163.209876 59.817889 
L 163.209876 59.817889 
L 163.386511 55.297582 
L 163.386511 55.297582 
L 163.563146 57.837643 
L 163.563146 57.837643 
L 163.73978 53.568 
L 163.73978 53.568 
L 163.916415 57.407337 
L 163.916415 57.407337 
L 164.09305 53.804738 
L 164.09305 53.804738 
L 164.269684 58.94335 
L 164.269684 58.94335 
L 164.446319 55.839294 
L 164.446319 55.839294 
L 164.622954 61.611529 
L 164.622954 61.611529 
L 164.799588 58.526969 
L 164.799588 58.526969 
L 164.976223 65.521887 
L 164.976223 65.521887 
L 165.152858 63.153113 
L 165.152858 63.153113 
L 165.329493 71.52529 
L 165.329493 71.52529 
L 165.506127 69.972566 
L 165.506127 69.972566 
L 165.682762 79.054958 
L 165.682762 79.054958 
L 165.859397 77.720869 
L 165.859397 77.720869 
L 166.036031 87.390928 
L 166.036031 87.390928 
L 166.212666 86.524745 
L 166.389301 96.336848 
L 166.389301 96.336848 
L 166.565935 95.357866 
L 166.565935 95.357866 
L 166.74257 104.243904 
L 166.74257 104.243904 
L 166.919205 101.887663 
L 166.919205 101.887663 
L 167.272474 112.493535 
L 167.272474 112.493535 
L 167.449109 111.281992 
L 167.449109 111.281992 
L 167.625743 114.074111 
L 167.625743 114.074111 
L 167.802378 112.437832 
L 167.802378 112.437832 
L 167.979013 116.129556 
L 167.979013 116.129556 
L 168.155647 115.36503 
L 168.155647 115.36503 
L 168.332282 120.226519 
L 168.332282 120.226519 
L 168.508917 120.120683 
L 168.508917 120.120683 
L 168.685551 126.252203 
L 168.685551 126.252203 
L 168.862186 126.809234 
L 168.862186 126.809234 
L 169.038821 133.79719 
L 169.215456 134.78592 
L 169.215456 134.78592 
L 169.39209 142.518904 
L 169.39209 142.518904 
L 169.568725 144.123154 
L 169.568725 144.123154 
L 169.74536 152.649907 
L 169.74536 152.649907 
L 169.921994 154.382274 
L 170.098629 163.149943 
L 170.098629 163.149943 
L 170.275264 164.701275 
L 170.275264 164.701275 
L 170.451898 173.092949 
L 170.451898 173.092949 
L 170.628533 174.090034 
L 170.628533 174.090034 
L 170.805168 181.778456 
L 170.805168 181.778456 
L 170.981802 182.215725 
L 170.981802 182.215725 
L 171.158437 189.231532 
L 171.158437 189.231532 
L 171.335072 189.134052 
L 171.335072 189.134052 
L 171.511706 195.258609 
L 171.511706 195.258609 
L 171.688341 194.917427 
L 171.688341 194.917427 
L 171.864976 200.369369 
L 171.864976 200.369369 
L 172.04161 199.880574 
L 172.04161 199.880574 
L 172.218245 205.208577 
L 172.218245 205.208577 
L 172.39488 205.428604 
L 172.39488 205.428604 
L 172.571514 210.966886 
L 172.571514 210.966886 
L 172.748149 212.392885 
L 172.748149 212.392885 
L 173.807957 248.058194 
L 173.807957 248.058194 
L 173.984592 252.752574 
L 173.984592 252.752574 
L 174.514496 276.072681 
L 174.514496 276.072681 
L 175.397669 295.488 
L 175.397669 295.488 
L 175.750939 282.202808 
L 175.750939 282.202808 
L 175.927573 280.987088 
L 175.927573 280.987088 
L 176.104208 277.245231 
L 176.104208 277.245231 
L 176.280843 276.852524 
L 176.280843 276.852524 
L 176.457477 274.567304 
L 176.457477 274.567304 
L 176.634112 274.462861 
L 176.634112 274.462861 
L 176.810747 276.003052 
L 176.810747 276.003052 
L 176.987382 273.266637 
L 176.987382 273.266637 
L 177.164016 274.217767 
L 177.164016 274.217767 
L 177.340651 272.672006 
L 177.340651 272.672006 
L 177.517286 273.27917 
L 177.517286 273.27917 
L 177.69392 275.113195 
L 177.69392 275.113195 
L 177.870555 272.060664 
L 177.870555 272.060664 
L 178.04719 272.360069 
L 178.04719 272.360069 
L 178.223824 273.412857 
L 178.223824 273.412857 
L 178.400459 267.988767 
L 178.400459 267.988767 
L 178.577094 267.114228 
L 178.577094 267.114228 
L 178.930363 259.335289 
L 178.930363 259.335289 
L 179.106998 257.144764 
L 179.106998 257.144764 
L 179.460267 246.41913 
L 179.460267 246.41913 
L 179.636902 242.661955 
L 179.636902 242.661955 
L 179.990171 228.60249 
L 179.990171 228.60249 
L 180.166806 223.051676 
L 180.166806 223.051676 
L 180.873345 189.826163 
L 180.873345 189.826163 
L 181.933153 146.159102 
L 181.933153 146.159102 
L 182.463057 134.045068 
L 182.463057 134.045068 
L 182.639691 133.436512 
L 182.639691 133.436512 
L 182.816326 133.596658 
L 182.816326 133.596658 
L 182.992961 134.726039 
L 182.992961 134.726039 
L 183.169595 137.128236 
L 183.169595 137.128236 
L 183.876134 162.663934 
L 183.876134 162.663934 
L 185.112577 231.986454 
L 185.112577 231.986454 
L 185.819116 260.390863 
L 185.819116 260.390863 
L 186.34902 273.236 
L 186.34902 273.236 
L 186.702289 276.575402 
L 186.702289 276.575402 
L 186.878924 276.851132 
L 186.878924 276.851132 
L 187.055558 276.72023 
L 187.055558 276.72023 
L 187.408828 272.365639 
L 187.408828 272.365639 
L 187.762097 262.506188 
L 187.762097 262.506188 
L 188.292001 241.57296 
L 188.292001 241.57296 
L 188.99854 205.328338 
L 188.99854 205.328338 
L 190.411617 141.342176 
L 190.411617 141.342176 
L 190.588252 142.75425 
L 190.588252 142.75425 
L 190.764887 141.351924 
L 190.764887 141.351924 
L 190.941521 136.100513 
L 190.941521 136.100513 
L 191.118156 137.632349 
L 191.118156 137.632349 
L 191.294791 132.956073 
L 191.294791 132.956073 
L 191.471425 138.332815 
L 191.471425 138.332815 
L 191.64806 135.556015 
L 191.824695 146.3471 
L 191.824695 146.3471 
L 192.00133 144.205316 
L 192.00133 144.205316 
L 192.354599 169.53352 
L 192.354599 169.53352 
L 192.531234 173.276769 
L 192.531234 173.276769 
L 192.707868 186.117728 
L 192.884503 185.91859 
L 192.884503 185.91859 
L 193.061138 198.840319 
L 193.061138 198.840319 
L 193.237772 195.067826 
L 193.237772 195.067826 
L 193.591042 216.097142 
L 193.591042 216.097142 
L 193.767676 211.954223 
L 193.767676 211.954223 
L 193.944311 217.837864 
L 193.944311 217.837864 
L 194.120946 207.873971 
L 194.120946 207.873971 
L 194.29758 212.952702 
L 194.474215 212.002964 
L 194.474215 212.002964 
L 194.65085 202.632308 
L 194.65085 202.632308 
L 194.827484 202.543183 
L 194.827484 202.543183 
L 195.004119 191.766024 
L 195.004119 191.766024 
L 195.180754 195.176447 
L 195.357388 183.874286 
L 195.357388 183.874286 
L 195.710658 195.356089 
L 195.710658 195.356089 
L 195.887293 192.388506 
L 195.887293 192.388506 
L 196.063927 200.349873 
L 196.063927 200.349873 
L 196.240562 198.805504 
L 196.240562 198.805504 
L 196.593831 217.010673 
L 196.593831 217.010673 
L 196.770466 218.779247 
L 196.770466 218.779247 
L 196.947101 225.686433 
L 196.947101 225.686433 
L 197.123735 223.282843 
L 197.123735 223.282843 
L 197.30037 228.835051 
L 197.30037 228.835051 
L 197.477005 221.657705 
L 197.477005 221.657705 
L 197.653639 227.704278 
L 197.653639 227.704278 
L 197.830274 229.915691 
L 197.830274 229.915691 
L 198.006909 223.481982 
L 198.006909 223.481982 
L 198.183543 226.810243 
L 198.183543 226.810243 
L 198.360178 217.479972 
L 198.360178 217.479972 
L 198.713447 224.860634 
L 198.713447 224.860634 
L 198.890082 220.514399 
L 198.890082 220.514399 
L 199.066717 225.263089 
L 199.066717 225.263089 
L 199.243351 219.543772 
L 199.243351 219.543772 
L 199.419986 226.613889 
L 199.419986 226.613889 
L 199.596621 219.901665 
L 199.596621 219.901665 
L 199.94989 234.108743 
L 199.94989 234.108743 
L 200.126525 230.162178 
L 200.126525 230.162178 
L 200.30316 235.644756 
L 200.30316 235.644756 
L 200.479794 228.999375 
L 200.479794 228.999375 
L 200.656429 234.473598 
L 200.656429 234.473598 
L 200.833064 225.790876 
L 200.833064 225.790876 
L 201.009698 231.426638 
L 201.009698 231.426638 
L 201.186333 232.944548 
L 201.186333 232.944548 
L 201.362968 227.641612 
L 201.362968 227.641612 
L 201.539602 230.064697 
L 201.539602 230.064697 
L 201.716237 224.962292 
L 201.716237 224.962292 
L 201.892872 228.804414 
L 201.892872 228.804414 
L 202.069506 225.260304 
L 202.069506 225.260304 
L 202.246141 230.575773 
L 202.246141 230.575773 
L 202.422776 229.400438 
L 202.422776 229.400438 
L 202.95268 244.70626 
L 202.95268 244.70626 
L 203.659219 266.186771 
L 203.659219 266.186771 
L 204.189123 277.121292 
L 204.189123 277.121292 
L 204.719027 282.484109 
L 204.719027 282.484109 
L 204.895661 283.853013 
L 204.895661 283.853013 
L 205.072296 284.291675 
L 205.072296 284.291675 
L 205.248931 285.235843 
L 205.248931 285.235843 
L 205.425565 285.384848 
L 205.425565 285.384848 
L 205.6022 286.159122 
L 205.6022 286.159122 
L 205.778835 286.342942 
L 205.778835 286.342942 
L 205.955469 286.181403 
L 205.955469 286.181403 
L 206.132104 287.663106 
L 206.132104 287.663106 
L 206.308739 287.95694 
L 206.308739 287.95694 
L 207.015277 295.488 
L 207.015277 295.488 
L 207.368547 293.673471 
L 207.368547 293.673471 
L 207.721816 290.212915 
L 207.721816 290.212915 
L 208.25172 281.487023 
L 208.25172 281.487023 
L 210.194702 254.865114 
L 210.194702 254.865114 
L 211.25451 237.538662 
L 211.25451 237.538662 
L 211.784414 232.533737 
L 211.784414 232.533737 
L 212.137683 231.441957 
L 212.137683 231.441957 
L 212.314318 231.54083 
L 212.314318 231.54083 
L 212.490953 231.131412 
L 212.490953 231.131412 
L 212.844222 232.331814 
L 212.844222 232.331814 
L 214.080665 239.149874 
L 214.080665 239.149874 
L 214.257299 239.251533 
L 214.257299 239.251533 
L 214.963838 243.472436 
L 214.963838 243.472436 
L 215.140473 243.10201 
L 215.140473 243.10201 
L 215.670377 245.046049 
L 215.670377 245.046049 
L 215.847012 244.158977 
L 215.847012 244.158977 
L 216.376916 244.030859 
L 216.376916 244.030859 
L 216.55355 244.185436 
L 216.55355 244.185436 
L 216.730185 242.256715 
L 216.730185 242.256715 
L 216.90682 242.063147 
L 216.90682 242.063147 
L 217.083454 242.285959 
L 217.083454 242.285959 
L 217.260089 241.602204 
L 217.260089 241.602204 
L 217.436724 242.273426 
L 217.436724 242.273426 
L 217.613358 243.652078 
L 217.613358 243.652078 
L 218.319897 255.335806 
L 218.319897 255.335806 
L 218.673166 263.795715 
L 218.673166 263.795715 
L 219.55634 291.23646 
L 219.55634 291.23646 
L 219.732975 295.488 
L 219.732975 295.488 
L 220.086244 283.431062 
L 220.086244 283.431062 
L 220.792783 264.173104 
L 220.792783 264.173104 
L 221.322687 252.845877 
L 221.322687 252.845877 
L 222.029225 237.64032 
L 222.029225 237.64032 
L 222.20586 236.992771 
L 222.20586 236.992771 
L 222.382495 234.007085 
L 222.382495 234.007085 
L 222.559129 234.596145 
L 222.735764 233.072665 
L 222.735764 233.072665 
L 222.912399 229.75276 
L 222.912399 229.75276 
L 223.089034 233.493224 
L 223.089034 233.493224 
L 223.265668 230.429552 
L 223.265668 230.429552 
L 223.442303 233.764776 
L 223.442303 233.764776 
L 223.618938 230.627299 
L 223.618938 230.627299 
L 223.795572 233.008606 
L 223.795572 233.008606 
L 223.972207 229.762508 
L 224.148842 231.14116 
L 224.148842 231.14116 
L 224.325476 227.573376 
L 224.502111 227.854676 
L 224.502111 227.854676 
L 224.678746 224.157382 
L 224.678746 224.157382 
L 224.85538 217.686073 
L 224.85538 217.686073 
L 225.032015 221.370834 
L 225.032015 221.370834 
L 225.20865 215.774064 
L 225.385284 219.256901 
L 225.385284 219.256901 
L 225.561919 214.616832 
L 225.561919 214.616832 
L 225.738554 218.220823 
L 225.738554 218.220823 
L 225.915188 214.836859 
L 225.915188 214.836859 
L 226.091823 218.687337 
L 226.091823 218.687337 
L 226.268458 216.559478 
L 226.268458 216.559478 
L 226.445092 220.631375 
L 226.445092 220.631375 
L 226.621727 219.383626 
L 226.621727 219.383626 
L 226.798362 223.160297 
L 226.798362 223.160297 
L 226.974997 222.572629 
L 227.151631 218.865587 
L 227.151631 218.865587 
L 227.328266 225.446909 
L 227.328266 225.446909 
L 227.504901 221.344375 
L 227.504901 221.344375 
L 227.681535 227.643004 
L 227.681535 227.643004 
L 227.85817 223.786957 
L 227.85817 223.786957 
L 228.034805 230.038238 
L 228.034805 230.038238 
L 228.211439 227.666678 
L 228.211439 227.666678 
L 228.388074 233.867827 
L 228.388074 233.867827 
L 228.564709 233.303833 
L 228.564709 233.303833 
L 228.741343 239.413072 
L 228.741343 239.413072 
L 228.917978 240.10936 
L 228.917978 240.10936 
L 229.094613 246.1058 
L 229.094613 246.1058 
L 229.271247 248.129216 
L 229.271247 248.129216 
L 229.624517 258.081969 
L 229.624517 258.081969 
L 229.801151 259.797625 
L 229.801151 259.797625 
L 229.977786 269.984331 
L 229.977786 269.984331 
L 230.154421 272.993692 
L 230.154421 272.993692 
L 230.50769 286.696657 
L 230.50769 286.696657 
L 230.684325 294.925399 
L 230.684325 294.925399 
L 230.86096 289.816031 
L 230.86096 289.816031 
L 231.214229 274.675925 
L 231.214229 274.675925 
L 231.390864 269.382737 
L 231.390864 269.382737 
L 231.920768 242.333307 
L 231.920768 242.333307 
L 232.627306 206.591406 
L 232.627306 206.591406 
L 233.333845 175.871141 
L 233.333845 175.871141 
L 233.51048 170.069662 
L 233.51048 170.069662 
L 233.863749 168.277415 
L 233.863749 168.277415 
L 234.040384 169.100428 
L 234.040384 169.100428 
L 234.570288 193.072262 
L 234.570288 193.072262 
L 234.923557 222.27601 
L 234.923557 222.27601 
L 235.630096 289.224185 
L 235.630096 289.224185 
L 235.806731 286.128485 
L 235.806731 286.128485 
L 236.336635 247.732331 
L 236.336635 247.732331 
L 236.866539 224.8857 
L 236.866539 224.8857 
L 237.219808 214.537455 
L 237.219808 214.537455 
L 237.749712 205.548366 
L 237.749712 205.548366 
L 238.102982 203.066792 
L 238.102982 203.066792 
L 238.456251 202.066921 
L 238.456251 202.066921 
L 238.632886 199.98641 
L 238.632886 199.98641 
L 238.80952 199.918174 
L 238.80952 199.918174 
L 239.16279 200.827527 
L 239.16279 200.827527 
L 239.339424 199.895893 
L 239.339424 199.895893 
L 239.692694 201.264797 
L 239.692694 201.264797 
L 240.399232 205.599891 
L 240.399232 205.599891 
L 241.282406 217.326788 
L 241.282406 217.326788 
L 241.81231 224.083576 
L 241.81231 224.083576 
L 241.988945 223.796705 
L 241.988945 223.796705 
L 242.342214 226.676555 
L 242.342214 226.676555 
L 242.518849 228.713897 
L 242.518849 228.713897 
L 242.695483 229.351697 
L 242.695483 229.351697 
L 243.048753 235.402448 
L 243.048753 235.402448 
L 244.108561 258.393906 
L 244.108561 258.393906 
L 244.638465 269.314501 
L 244.638465 269.314501 
L 244.815099 269.223984 
L 244.815099 269.223984 
L 245.168369 271.488315 
L 245.168369 271.488315 
L 245.521638 268.614035 
L 245.521638 268.614035 
L 245.874908 267.305011 
L 245.874908 267.305011 
L 246.051542 263.854204 
L 246.051542 263.854204 
L 246.228177 263.188552 
L 246.228177 263.188552 
L 246.404812 263.404401 
L 246.404812 263.404401 
L 246.581446 261.688745 
L 246.581446 261.688745 
L 246.758081 263.124493 
L 246.758081 263.124493 
L 247.287985 273.035469 
L 247.287985 273.035469 
L 247.817889 294.181762 
L 247.817889 294.181762 
L 247.994524 289.036187 
L 249.407601 216.558085 
L 249.407601 216.558085 
L 249.584236 216.088787 
L 249.584236 216.088787 
L 249.937505 205.992598 
L 249.937505 205.992598 
L 250.11414 210.68837 
L 250.11414 210.68837 
L 250.290775 209.667611 
L 250.290775 209.667611 
L 250.644044 216.301851 
L 250.644044 216.301851 
L 250.820679 217.383884 
L 250.820679 217.383884 
L 251.173948 227.42994 
L 251.173948 227.42994 
L 251.350583 230.008994 
L 251.350583 230.008994 
L 251.703852 243.764877 
L 251.703852 243.764877 
L 251.880487 248.247585 
L 251.880487 248.247585 
L 252.233756 265.171582 
L 252.233756 265.171582 
L 252.410391 270.53997 
L 252.410391 270.53997 
L 252.76366 288.547392 
L 252.76366 288.547392 
L 252.940295 292.896413 
L 252.940295 292.896413 
L 254.000103 257.419102 
L 254.000103 257.419102 
L 255.41318 230.669076 
L 255.41318 230.669076 
L 255.76645 221.551869 
L 255.76645 221.551869 
L 255.943084 218.770892 
L 255.943084 218.770892 
L 256.296354 208.361373 
L 256.296354 208.361373 
L 256.472988 204.881321 
L 256.826258 194.666763 
L 256.826258 194.666763 
L 257.002892 191.179748 
L 257.002892 191.179748 
L 257.356162 181.920499 
L 257.356162 181.920499 
L 258.769239 159.569626 
L 258.769239 159.569626 
L 258.945874 158.211863 
L 259.122509 155.714971 
L 259.122509 155.714971 
L 259.475778 154.142751 
L 259.475778 154.142751 
L 259.652413 153.719407 
L 259.652413 153.719407 
L 259.829047 152.577493 
L 259.829047 152.577493 
L 260.005682 152.450769 
L 260.005682 152.450769 
L 260.182317 152.670796 
L 260.712221 154.529887 
L 260.712221 154.529887 
L 261.06549 158.463919 
L 261.06549 158.463919 
L 261.595394 167.834575 
L 261.595394 167.834575 
L 262.478568 190.312173 
L 262.478568 190.312173 
L 264.598184 247.797782 
L 264.598184 247.797782 
L 265.657992 267.67683 
L 265.657992 267.67683 
L 267.247704 292.396477 
L 267.247704 292.396477 
L 267.424339 294.678912 
L 267.424339 294.678912 
L 267.600973 294.549403 
L 267.600973 294.549403 
L 268.484147 284.366874 
L 268.484147 284.366874 
L 268.837416 281.860234 
L 268.837416 281.860234 
L 269.190686 280.559566 
L 269.190686 280.559566 
L 269.543955 280.863148 
L 269.543955 280.863148 
L 269.897224 282.115076 
L 269.897224 282.115076 
L 270.427128 285.801229 
L 270.427128 285.801229 
L 271.133667 292.087325 
L 271.133667 292.087325 
L 271.486936 295.488 
L 271.486936 295.488 
L 271.840206 290.69614 
L 271.840206 290.69614 
L 272.723379 283.080132 
L 272.723379 283.080132 
L 273.076649 283.600956 
L 273.076649 283.600956 
L 273.253283 284.217868 
L 273.253283 284.217868 
L 273.606553 286.750967 
L 273.606553 286.750967 
L 274.136457 295.488 
L 274.136457 295.488 
L 274.489726 289.618285 
L 274.489726 289.618285 
L 275.196265 274.804043 
L 275.196265 274.804043 
L 275.902803 262.769386 
L 275.902803 262.769386 
L 276.432707 258.059688 
L 276.432707 258.059688 
L 276.609342 257.419102 
L 276.609342 257.419102 
L 276.785977 257.240852 
L 276.785977 257.240852 
L 276.962612 257.297948 
L 276.962612 257.297948 
L 277.139246 257.487338 
L 277.139246 257.487338 
L 277.492516 258.73648 
L 277.492516 258.73648 
L 277.845785 260.889406 
L 277.845785 260.889406 
L 278.728958 270.856085 
L 278.728958 270.856085 
L 279.612132 279.774153 
L 279.612132 279.774153 
L 280.31867 285.55335 
L 280.31867 285.55335 
L 280.495305 295.488 
L 280.495305 295.488 
L 280.67194 289.428894 
L 280.67194 289.428894 
L 281.201844 294.868303 
L 281.201844 294.868303 
L 282.614921 273.811135 
L 282.614921 273.811135 
L 282.968191 265.383254 
L 282.968191 265.383254 
L 283.498095 247.086175 
L 283.498095 247.086175 
L 284.027999 222.340068 
L 284.027999 222.340068 
L 284.911172 160.763065 
L 284.911172 160.763065 
L 285.087807 160.58203 
L 285.087807 160.58203 
L 285.264442 159.440116 
L 285.264442 159.440116 
L 285.441076 151.18213 
L 285.441076 151.18213 
L 285.617711 157.415308 
L 285.617711 157.415308 
L 285.794346 148.831459 
L 285.794346 148.831459 
L 286.147615 171.868873 
L 286.147615 171.868873 
L 286.32425 170.250697 
L 286.32425 170.250697 
L 286.500884 181.772886 
L 286.500884 181.772886 
L 286.677519 174.24461 
L 286.677519 174.24461 
L 286.854154 185.062154 
L 286.854154 185.062154 
L 287.030788 188.866677 
L 287.030788 188.866677 
L 287.207423 178.812265 
L 287.207423 178.812265 
L 287.384058 180.768837 
L 287.384058 180.768837 
L 287.560692 162.920168 
L 287.560692 162.920168 
L 287.737327 164.727734 
L 287.737327 164.727734 
L 287.913962 161.105639 
L 287.913962 161.105639 
L 288.090596 144.337611 
L 288.090596 144.337611 
L 288.267231 143.475605 
L 288.267231 143.475605 
L 288.443866 125.427797 
L 288.443866 125.427797 
L 288.620501 128.946841 
L 288.620501 128.946841 
L 288.797135 129.51362 
L 288.797135 129.51362 
L 288.97377 119.925723 
L 288.97377 119.925723 
L 289.327039 126.970773 
L 289.327039 126.970773 
L 289.503674 124.004583 
L 289.503674 124.004583 
L 289.680309 129.083314 
L 289.680309 129.083314 
L 289.856943 123.996227 
L 289.856943 123.996227 
L 290.210213 135.337381 
L 290.210213 135.337381 
L 290.386847 130.069259 
L 290.386847 130.069259 
L 290.563482 135.146597 
L 290.563482 135.146597 
L 290.740117 122.623146 
L 290.740117 122.623146 
L 290.916751 128.465009 
L 290.916751 128.465009 
L 291.093386 129.161298 
L 291.093386 129.161298 
L 291.270021 117.781153 
L 291.270021 117.781153 
L 291.446655 119.982818 
L 291.446655 119.982818 
L 291.62329 104.352526 
L 291.62329 104.352526 
L 291.799925 109.84346 
L 291.799925 109.84346 
L 291.97656 111.364155 
L 291.97656 111.364155 
L 292.153194 101.879307 
L 292.153194 101.879307 
L 292.329829 107.946769 
L 292.329829 107.946769 
L 292.506464 97.577635 
L 292.506464 97.577635 
L 292.859733 118.85483 
L 292.859733 118.85483 
L 293.036368 119.194619 
L 293.036368 119.194619 
L 293.213002 133.751234 
L 293.213002 133.751234 
L 293.389637 135.46132 
L 293.389637 135.46132 
L 293.742906 165.021568 
L 293.742906 165.021568 
L 293.919541 171.942679 
L 294.449445 204.293653 
L 294.449445 204.293653 
L 294.979349 226.928612 
L 294.979349 226.928612 
L 296.745696 262.919784 
L 296.745696 262.919784 
L 296.922331 264.114616 
L 296.922331 264.114616 
L 297.098965 266.351096 
L 297.098965 266.351096 
L 297.2756 266.197912 
L 297.452235 267.859257 
L 297.452235 267.859257 
L 297.628869 266.874705 
L 297.628869 266.874705 
L 297.805504 267.836976 
L 297.805504 267.836976 
L 297.982139 265.426424 
L 297.982139 265.426424 
L 298.158773 265.721651 
L 298.158773 265.721651 
L 298.335408 262.616202 
L 298.335408 262.616202 
L 298.512043 262.316798 
L 298.512043 262.316798 
L 298.688677 258.402262 
L 298.688677 258.402262 
L 298.865312 258.176664 
L 299.041947 254.398601 
L 299.041947 254.398601 
L 299.218581 254.210603 
L 299.218581 254.210603 
L 299.395216 250.298852 
L 299.395216 250.298852 
L 299.571851 250.233401 
L 299.571851 250.233401 
L 299.748486 246.160111 
L 299.748486 246.160111 
L 299.92512 246.076556 
L 299.92512 246.076556 
L 300.101755 242.423825 
L 300.101755 242.423825 
L 300.27839 242.769184 
L 300.27839 242.769184 
L 300.455024 239.404716 
L 300.455024 239.404716 
L 300.631659 239.727794 
L 300.631659 239.727794 
L 300.808294 237.470426 
L 300.808294 237.470426 
L 300.984928 238.725138 
L 300.984928 238.725138 
L 301.161563 237.939724 
L 301.338198 235.451188 
L 301.338198 235.451188 
L 301.514832 241.25963 
L 301.514832 241.25963 
L 301.691467 241.117587 
L 301.691467 241.117587 
L 302.044736 251.478365 
L 302.044736 251.478365 
L 302.221371 253.561662 
L 302.221371 253.561662 
L 302.751275 290.380025 
L 302.751275 290.380025 
L 302.92791 289.064039 
L 302.92791 289.064039 
L 303.281179 258.959293 
L 303.281179 258.959293 
L 304.517622 164.917125 
L 304.517622 164.917125 
L 304.870891 150.827023 
L 304.870891 150.827023 
L 305.224161 138.846676 
L 305.224161 138.846676 
L 305.400795 139.555499 
L 305.400795 139.555499 
L 305.57743 135.200908 
L 305.57743 135.200908 
L 305.754065 137.734007 
L 305.754065 137.734007 
L 305.930699 134.582603 
L 305.930699 134.582603 
L 306.107334 138.409407 
L 306.107334 138.409407 
L 306.283969 135.611718 
L 306.283969 135.611718 
L 306.460603 138.914913 
L 306.637238 134.921 
L 306.637238 134.921 
L 306.813873 137.622601 
L 306.813873 137.622601 
L 306.990507 133.279151 
L 306.990507 133.279151 
L 307.167142 135.975181 
L 307.167142 135.975181 
L 307.343777 131.25295 
L 307.343777 131.25295 
L 307.520412 134.063172 
L 307.520412 134.063172 
L 307.697046 129.23232 
L 307.697046 129.23232 
L 307.873681 132.596788 
L 307.873681 132.596788 
L 308.050316 127.513879 
L 308.050316 127.513879 
L 308.22695 131.581598 
L 308.22695 131.581598 
L 308.403585 127.029262 
L 308.403585 127.029262 
L 308.58022 133.05216 
L 308.58022 133.05216 
L 308.756854 130.825429 
L 308.756854 130.825429 
L 309.110124 145.732973 
L 309.110124 145.732973 
L 309.286758 147.929069 
L 309.286758 147.929069 
L 309.463393 154.208202 
L 309.463393 154.208202 
L 309.640028 155.404426 
L 309.640028 155.404426 
L 309.816662 159.9498 
L 309.816662 159.9498 
L 309.993297 158.207685 
L 309.993297 158.207685 
L 310.169932 160.260345 
L 310.169932 160.260345 
L 310.346566 154.690034 
L 310.346566 154.690034 
L 310.523201 154.547991 
L 310.523201 154.547991 
L 310.699836 145.270638 
L 310.699836 145.270638 
L 310.87647 145.462813 
L 310.87647 145.462813 
L 311.053105 142.564859 
L 311.053105 142.564859 
L 311.22974 135.305351 
L 311.22974 135.305351 
L 311.406375 135.102035 
L 311.406375 135.102035 
L 311.583009 130.21548 
L 311.583009 130.21548 
L 311.759644 136.968089 
L 311.759644 136.968089 
L 311.936279 137.059999 
L 311.936279 137.059999 
L 312.112913 151.002488 
L 312.112913 151.002488 
L 312.289548 154.426836 
L 312.289548 154.426836 
L 312.642817 189.593602 
L 312.642817 189.593602 
L 312.819452 199.702324 
L 312.819452 199.702324 
L 313.172721 223.121304 
L 313.172721 223.121304 
L 313.349356 238.350535 
L 313.525991 238.62905 
L 313.525991 238.62905 
L 313.702625 251.144147 
L 313.702625 251.144147 
L 313.87926 245.64625 
L 313.87926 245.64625 
L 314.055895 255.526589 
L 314.055895 255.526589 
L 314.232529 258.666852 
L 314.232529 258.666852 
L 314.409164 251.018815 
L 314.409164 251.018815 
L 314.585799 252.801314 
L 314.585799 252.801314 
L 314.762433 241.894645 
L 314.762433 241.894645 
L 314.939068 243.943127 
L 314.939068 243.943127 
L 315.115703 229.627428 
L 315.292338 231.575644 
L 315.292338 231.575644 
L 315.468972 229.202691 
L 315.468972 229.202691 
L 315.645607 219.417048 
L 315.645607 219.417048 
L 315.822242 219.178917 
L 315.822242 219.178917 
L 315.998876 210.524046 
L 315.998876 210.524046 
L 316.175511 214.751912 
L 316.175511 214.751912 
L 316.352146 207.91157 
L 316.352146 207.91157 
L 316.52878 215.33958 
L 316.52878 215.33958 
L 316.705415 209.954482 
L 316.705415 209.954482 
L 317.058684 227.495391 
L 317.058684 227.495391 
L 317.235319 228.138762 
L 317.235319 228.138762 
L 317.411954 236.69476 
L 317.411954 236.69476 
L 317.588588 236.643234 
L 317.588588 236.643234 
L 317.765223 245.864884 
L 317.765223 245.864884 
L 317.941858 244.855265 
L 317.941858 244.855265 
L 318.295127 257.590389 
L 318.295127 257.590389 
L 318.471762 256.887137 
L 318.471762 256.887137 
L 318.648396 259.974482 
L 318.648396 259.974482 
L 318.825031 257.682299 
L 318.825031 257.682299 
L 319.001666 259.661152 
L 319.001666 259.661152 
L 319.178301 256.189456 
L 319.178301 256.189456 
L 319.354935 257.228319 
L 319.354935 257.228319 
L 319.53157 253.471144 
L 319.53157 253.471144 
L 319.708205 253.861066 
L 319.708205 253.861066 
L 319.884839 249.301766 
L 319.884839 249.301766 
L 320.061474 248.970333 
L 320.061474 248.970333 
L 320.238109 243.640938 
L 320.238109 243.640938 
L 320.414743 242.854131 
L 320.414743 242.854131 
L 320.591378 240.447757 
L 320.591378 240.447757 
L 321.121282 228.098377 
L 321.121282 228.098377 
L 321.297917 226.203079 
L 321.297917 226.203079 
L 321.474551 221.199547 
L 321.474551 221.199547 
L 321.651186 220.428059 
L 321.651186 220.428059 
L 321.827821 216.386798 
L 321.827821 216.386798 
L 322.004455 217.136005 
L 322.004455 217.136005 
L 322.18109 214.973332 
L 322.18109 214.973332 
L 322.357725 217.442372 
L 322.357725 217.442372 
L 322.534359 216.867238 
L 322.534359 216.867238 
L 322.710994 221.173088 
L 322.710994 221.173088 
L 322.887629 222.766197 
L 322.887629 222.766197 
L 323.240898 231.900115 
L 323.240898 231.900115 
L 323.417533 233.597667 
L 323.417533 233.597667 
L 323.594168 243.423696 
L 323.594168 243.423696 
L 323.770802 246.4623 
L 323.770802 246.4623 
L 324.300706 270.09156 
L 324.300706 270.09156 
L 324.477341 275.29423 
L 324.477341 275.29423 
L 324.83061 291.27963 
L 324.83061 291.27963 
L 325.007245 290.43712 
L 325.713784 259.420236 
L 325.713784 259.420236 
L 326.243688 236.21432 
L 326.243688 236.21432 
L 326.773592 218.687337 
L 326.773592 218.687337 
L 327.126861 213.356549 
L 327.126861 213.356549 
L 327.303496 212.149184 
L 327.303496 212.149184 
L 327.480131 212.021067 
L 327.480131 212.021067 
L 327.656765 212.862184 
L 327.656765 212.862184 
L 327.8334 214.359205 
L 327.8334 214.359205 
L 328.186669 220.100803 
L 328.186669 220.100803 
L 328.716573 233.139509 
L 328.716573 233.139509 
L 329.246477 251.772199 
L 329.246477 251.772199 
L 329.776381 278.725542 
L 329.776381 278.725542 
L 329.953016 289.906548 
L 329.953016 289.906548 
L 330.129651 290.620941 
L 330.129651 290.620941 
L 330.83619 245.161633 
L 330.83619 245.161633 
L 331.012824 240.809827 
L 331.012824 240.809827 
L 331.189459 230.38499 
L 331.189459 230.38499 
L 331.366094 227.886706 
L 331.366094 227.886706 
L 331.542728 219.765192 
L 331.542728 219.765192 
L 331.719363 219.053585 
L 331.719363 219.053585 
L 331.895998 213.299454 
L 331.895998 213.299454 
L 332.072632 213.910795 
L 332.072632 213.910795 
L 332.249267 210.227427 
L 332.249267 210.227427 
L 332.425902 211.707737 
L 332.425902 211.707737 
L 332.602536 209.70521 
L 332.602536 209.70521 
L 332.779171 205.006653 
L 332.779171 205.006653 
L 332.955806 211.284394 
L 332.955806 211.284394 
L 333.13244 208.358588 
L 333.13244 208.358588 
L 333.309075 214.967762 
L 333.309075 214.967762 
L 333.48571 213.341231 
L 333.48571 213.341231 
L 333.662344 219.428188 
L 333.662344 219.428188 
L 333.838979 218.833558 
L 333.838979 218.833558 
L 334.015614 223.963814 
L 334.015614 223.963814 
L 334.192248 223.369183 
L 334.192248 223.369183 
L 334.368883 226.267138 
L 334.368883 226.267138 
L 334.545518 224.337025 
L 334.545518 224.337025 
L 334.722153 225.423235 
L 334.722153 225.423235 
L 334.898787 221.900014 
L 335.075422 221.549084 
L 335.075422 221.549084 
L 335.252057 216.950792 
L 335.252057 216.950792 
L 335.428691 215.835338 
L 335.428691 215.835338 
L 335.605326 211.270468 
L 335.605326 211.270468 
L 335.781961 203.374552 
L 335.781961 203.374552 
L 335.958595 206.92841 
L 335.958595 206.92841 
L 336.13523 200.218971 
L 336.13523 200.218971 
L 336.311865 204.455192 
L 336.311865 204.455192 
L 336.488499 199.019961 
L 336.488499 199.019961 
L 336.665134 203.997034 
L 336.665134 203.997034 
L 336.841769 200.270496 
L 336.841769 200.270496 
L 337.018403 205.753075 
L 337.018403 205.753075 
L 337.195038 203.520773 
L 337.195038 203.520773 
L 337.371673 209.687107 
L 337.371673 209.687107 
L 337.548307 209.15375 
L 337.548307 209.15375 
L 337.724942 215.861797 
L 337.724942 215.861797 
L 337.901577 217.22513 
L 337.901577 217.22513 
L 338.254846 228.057993 
L 338.254846 228.057993 
L 338.431481 229.784789 
L 338.431481 229.784789 
L 338.608116 242.34027 
L 338.608116 242.34027 
L 338.78475 246.712964 
L 338.78475 246.712964 
L 339.314654 280.573492 
L 339.314654 280.573492 
L 339.491289 290.102902 
L 339.491289 290.102902 
L 339.667924 286.968209 
L 339.667924 286.968209 
L 341.43427 176.706688 
L 341.43427 176.706688 
L 341.610905 169.696451 
L 341.78754 169.043333 
L 341.78754 169.043333 
L 341.964174 165.627339 
L 341.964174 165.627339 
L 342.140809 167.912559 
L 342.140809 167.912559 
L 342.317444 167.73988 
L 342.317444 167.73988 
L 342.494079 165.949025 
L 342.670713 173.498189 
L 342.670713 173.498189 
L 342.847348 173.580351 
L 342.847348 173.580351 
L 343.023983 181.480444 
L 343.023983 181.480444 
L 343.200617 183.009495 
L 343.200617 183.009495 
L 343.377252 190.71602 
L 343.377252 190.71602 
L 343.553887 193.529027 
L 343.553887 193.529027 
L 343.730521 192.828561 
L 343.730521 192.828561 
L 343.907156 205.652809 
L 343.907156 205.652809 
L 344.083791 206.630399 
L 344.083791 206.630399 
L 344.260425 219.582764 
L 344.260425 219.582764 
L 344.43706 222.5406 
L 344.43706 222.5406 
L 344.790329 243.535102 
L 344.790329 243.535102 
L 344.966964 248.038698 
L 344.966964 248.038698 
L 345.320233 283.179005 
L 345.320233 283.179005 
L 345.496868 282.9548 
L 345.850138 242.350018 
L 345.850138 242.350018 
L 347.43985 79.620345 
L 347.43985 79.620345 
L 347.616484 80.078503 
L 347.616484 80.078503 
L 347.793119 78.445009 
L 347.793119 78.445009 
L 347.969754 78.919878 
L 347.969754 78.919878 
L 350.266005 295.488 
L 350.266005 295.488 
L 350.795909 282.899097 
L 350.795909 282.899097 
L 350.972543 273.577182 
L 350.972543 273.577182 
L 351.149178 271.056616 
L 351.325813 264.80812 
L 351.325813 264.80812 
L 351.502447 263.564548 
L 351.502447 263.564548 
L 351.679082 265.033717 
L 351.679082 265.033717 
L 351.855717 259.343644 
L 351.855717 259.343644 
L 352.032351 261.516066 
L 352.032351 261.516066 
L 352.208986 257.900934 
L 352.208986 257.900934 
L 352.385621 260.283634 
L 352.385621 260.283634 
L 352.562255 258.047155 
L 352.562255 258.047155 
L 352.73889 260.587216 
L 352.73889 260.587216 
L 352.915525 259.482902 
L 352.915525 259.482902 
L 353.092159 261.814077 
L 353.092159 261.814077 
L 353.268794 266.282859 
L 353.268794 266.282859 
L 353.445429 263.145382 
L 353.445429 263.145382 
L 353.622064 266.768869 
L 353.622064 266.768869 
L 353.798698 263.923833 
L 353.798698 263.923833 
L 353.975333 266.473642 
L 353.975333 266.473642 
L 354.151968 264.202348 
L 354.151968 264.202348 
L 354.328602 266.222979 
L 354.328602 266.222979 
L 354.505237 270.527436 
L 354.505237 270.527436 
L 354.681872 266.660248 
L 354.681872 266.660248 
L 354.858506 270.350579 
L 354.858506 270.350579 
L 355.035141 267.598845 
L 355.035141 267.598845 
L 355.211776 270.833803 
L 355.211776 270.833803 
L 355.38841 269.029023 
L 355.38841 269.029023 
L 355.565045 271.48553 
L 355.565045 271.48553 
L 355.74168 275.593634 
L 355.74168 275.593634 
L 355.918314 271.379694 
L 355.918314 271.379694 
L 356.094949 273.81392 
L 356.094949 273.81392 
L 356.271584 270.049782 
L 356.271584 270.049782 
L 356.448218 271.149919 
L 356.448218 271.149919 
L 356.624853 267.608593 
L 356.624853 267.608593 
L 356.801488 266.919267 
L 356.801488 266.919267 
L 356.978122 267.419203 
L 356.978122 267.419203 
L 357.154757 262.064741 
L 357.154757 262.064741 
L 357.331392 261.811292 
L 357.331392 261.811292 
L 357.508027 257.462272 
L 357.508027 257.462272 
L 357.684661 256.597481 
L 357.684661 256.597481 
L 357.861296 256.806368 
L 357.861296 256.806368 
L 358.037931 252.152373 
L 358.037931 252.152373 
L 358.214565 252.050715 
L 358.214565 252.050715 
L 358.3912 249.244671 
L 358.3912 249.244671 
L 358.567835 249.241885 
L 358.567835 249.241885 
L 358.744469 250.268215 
L 358.744469 250.268215 
L 358.921104 248.592944 
L 359.097739 250.495205 
L 359.097739 250.495205 
L 359.274373 250.672063 
L 359.274373 250.672063 
L 359.451008 253.175918 
L 359.451008 253.175918 
L 359.627643 257.345295 
L 359.627643 257.345295 
L 359.804277 258.066651 
L 359.804277 258.066651 
L 360.157547 266.810646 
L 360.157547 266.810646 
L 360.334181 266.46668 
L 360.334181 266.46668 
L 360.510816 270.406282 
L 360.510816 270.406282 
L 360.687451 271.094215 
L 360.687451 271.094215 
L 361.04072 278.115593 
L 361.04072 278.115593 
L 361.217355 277.734026 
L 361.217355 277.734026 
L 361.570624 284.127351 
L 361.570624 284.127351 
L 361.747259 282.67907 
L 361.747259 282.67907 
L 362.100528 288.243811 
L 362.100528 288.243811 
L 362.277163 285.950235 
L 362.277163 285.950235 
L 362.630432 289.898193 
L 362.630432 289.898193 
L 362.807067 285.881999 
L 362.807067 285.881999 
L 363.160336 285.10494 
L 363.160336 285.10494 
L 363.513606 275.685544 
L 363.513606 275.685544 
L 363.69024 273.191438 
L 363.69024 273.191438 
L 364.04351 260.07614 
L 364.04351 260.07614 
L 364.220144 255.933221 
L 364.220144 255.933221 
L 364.573414 241.031247 
L 364.573414 241.031247 
L 364.750048 236.143299 
L 364.750048 236.143299 
L 365.103318 220.912676 
L 365.103318 220.912676 
L 365.279953 215.629236 
L 365.279953 215.629236 
L 365.633222 200.376332 
L 365.633222 200.376332 
L 366.163126 178.450195 
L 366.163126 178.450195 
L 367.576203 128.073695 
L 367.576203 128.073695 
L 368.106107 120.466043 
L 368.106107 120.466043 
L 368.282742 120.062195 
L 368.282742 120.062195 
L 368.459377 120.72367 
L 368.459377 120.72367 
L 368.636011 122.378052 
L 368.636011 122.378052 
L 368.989281 128.818724 
L 368.989281 128.818724 
L 369.519185 142.869834 
L 369.519185 142.869834 
L 370.225724 166.538085 
L 370.225724 166.538085 
L 371.285532 211.012841 
L 371.285532 211.012841 
L 372.521974 262.66912 
L 372.521974 262.66912 
L 373.228513 284.712233 
L 373.228513 284.712233 
L 373.581783 292.978575 
L 373.581783 292.978575 
L 373.935052 295.488 
L 373.935052 295.488 
L 374.111687 289.849453 
L 374.111687 289.849453 
L 374.641591 285.709319 
L 374.641591 285.709319 
L 374.99486 284.432325 
L 374.99486 284.432325 
L 375.524764 282.54399 
L 375.524764 282.54399 
L 375.878033 280.013676 
L 375.878033 280.013676 
L 377.291111 266.73684 
L 377.291111 266.73684 
L 377.64438 265.589356 
L 377.64438 265.589356 
L 377.821015 265.62417 
L 377.821015 265.62417 
L 378.174284 267.23399 
L 378.174284 267.23399 
L 378.527554 270.28095 
L 378.527554 270.28095 
L 379.763996 282.466005 
L 379.763996 282.466005 
L 380.117266 283.671978 
L 380.117266 283.671978 
L 380.823805 284.982393 
L 380.823805 284.982393 
L 381.000439 295.488 
L 381.000439 295.488 
L 381.177074 285.844399 
L 381.177074 285.844399 
L 381.706978 288.040494 
L 381.706978 288.040494 
L 381.883613 295.488 
L 381.883613 295.488 
L 382.060247 289.958074 
L 382.060247 289.958074 
L 382.590151 293.401919 
L 382.590151 293.401919 
L 382.766786 295.488 
L 382.766786 295.488 
L 382.943421 294.880836 
L 382.943421 294.880836 
L 383.473325 289.772861 
L 383.473325 289.772861 
L 383.649959 295.488 
L 383.649959 295.488 
L 383.826594 285.684253 
L 383.826594 285.684253 
L 385.769576 262.465804 
L 385.769576 262.465804 
L 386.122845 260.099814 
L 386.122845 260.099814 
L 386.476114 259.152861 
L 386.476114 259.152861 
L 386.652749 259.250342 
L 386.652749 259.250342 
L 387.006018 260.058037 
L 387.006018 260.058037 
L 387.359288 262.148296 
L 387.359288 262.148296 
L 389.125635 278.423352 
L 389.125635 278.423352 
L 390.008808 289.206082 
L 390.008808 289.206082 
L 390.362077 294.27785 
L 390.362077 294.27785 
L 390.538712 294.114918 
L 390.538712 294.114918 
L 390.715347 295.488 
L 390.715347 295.488 
L 390.891981 289.022261 
L 390.891981 289.022261 
L 391.421885 283.153939 
L 391.421885 283.153939 
L 391.775155 280.66401 
L 391.775155 280.66401 
L 391.951789 280.083305 
L 391.951789 280.083305 
L 392.128424 279.964936 
L 392.128424 279.964936 
L 392.305059 280.473227 
L 392.305059 280.473227 
L 392.658328 282.729203 
L 392.658328 282.729203 
L 393.188232 288.376105 
L 393.188232 288.376105 
L 393.364867 295.488 
L 393.364867 295.488 
L 393.541502 292.314315 
L 393.894771 295.176063 
L 393.894771 295.176063 
L 394.071406 294.836274 
L 394.071406 294.836274 
L 394.24804 295.488 
L 394.24804 295.488 
L 394.424675 294.091245 
L 394.424675 294.091245 
L 394.60131 294.146948 
L 394.60131 294.146948 
L 395.131214 295.488 
L 395.131214 295.488 
L 395.484483 292.84071 
L 395.484483 292.84071 
L 395.837752 292.450788 
L 395.837752 292.450788 
L 396.014387 295.488 
L 396.014387 295.488 
L 396.191022 292.525987 
L 396.191022 292.525987 
L 396.367657 293.000856 
L 396.367657 293.000856 
L 396.720926 295.081367 
L 396.720926 295.081367 
L 396.897561 295.488 
L 396.897561 295.488 
L 397.25083 289.318881 
L 397.25083 289.318881 
L 397.604099 285.497647 
L 397.604099 285.497647 
L 397.957369 281.292062 
L 397.957369 281.292062 
L 398.134003 293.284942 
L 398.134003 293.284942 
L 398.310638 276.3317 
L 398.310638 276.3317 
L 398.487273 233.2913 
L 398.487273 233.2913 
" clip-path="url(#p2565b137cd)" style="fill: none; stroke: #1f77b4; stroke-width: 1.5; stroke-linecap: square"/>
   </g>
   <g id="patch_3">
    <path d="M 57.6 307.584 
L 57.6 41.472 
" style="fill: none; stroke: #000000; stroke-width: 0.8; stroke-linejoin: miter; stroke-linecap: square"/>
   </g>
   <g id="patch_4">
    <path d="M 414.72 307.584 
L 414.72 41.472 
" style="fill: none; stroke: #000000; stroke-width: 0.8; stroke-linejoin: miter; stroke-linecap: square"/>
   </g>
   <g id="patch_5">
    <path d="M 57.6 307.584 
L 414.72 307.584 
" style="fill: none; stroke: #000000; stroke-width: 0.8; stroke-linejoin: miter; stroke-linecap: square"/>
   </g>
   <g id="patch_6">
    <path d="M 57.6 41.472 
L 414.72 41.472 
" style="fill: none; stroke: #000000; stroke-width: 0.8; stroke-linejoin: miter; stroke-linecap: square"/>
   </g>
   <g id="text_19">
    <!-- Tracking error vs Time -->
    <g transform="translate(169.584375 35.472) scale(0.12 -0.12)">
     <defs>
      <path id="DejaVuSans-76" d="M 191 3500 
L 800 3500 
L 1894 563 
L 2988 3500 
L 3597 3500 
L 2284 0 
L 1503 0 
L 191 3500 
z
" transform="scale(0.015625)"/>
     </defs>
     <use xlink:href="#DejaVuSans-54"/>
     <use xlink:href="#DejaVuSans-72" x="46.333984"/>
     <use xlink:href="#DejaVuSans-61" x="87.447266"/>
     <use xlink:href="#DejaVuSans-63" x="148.726562"/>
     <use xlink:href="#DejaVuSans-6b" x="203.707031"/>
     <use xlink:href="#DejaVuSans-69" x="261.617188"/>
     <use xlink:href="#DejaVuSans-6e" x="289.400391"/>
     <use xlink:href="#DejaVuSans-67" x="352.779297"/>
     <use xlink:href="#DejaVuSans-20" x="416.255859"/>
     <use xlink:href="#DejaVuSans-65" x="448.042969"/>
     <use xlink:href="#DejaVuSans-72" x="509.566406"/>
     <use xlink:href="#DejaVuSans-72" x="548.929688"/>
     <use xlink:href="#DejaVuSans-6f" x="587.792969"/>
     <use xlink:href="#DejaVuSans-72" x="648.974609"/>
     <use xlink:href="#DejaVuSans-20" x="690.087891"/>
     <use xlink:href="#DejaVuSans-76" x="721.875"/>
     <use xlink:href="#DejaVuSans-73" x="781.054688"/>
     <use xlink:href="#DejaVuSans-20" x="833.154297"/>
     <use xlink:href="#DejaVuSans-54" x="864.941406"/>
     <use xlink:href="#DejaVuSans-69" x="922.900391"/>
     <use xlink:href="#DejaVuSans-6d" x="950.683594"/>
     <use xlink:href="#DejaVuSans-65" x="1048.095703"/>
    </g>
   </g>
   <g id="legend_1">
    <g id="patch_7">
     <path d="M 311.00125 64.150125 
L 407.72 64.150125 
Q 409.72 64.150125 409.72 62.150125 
L 409.72 48.472 
Q 409.72 46.472 407.72 46.472 
L 311.00125 46.472 
Q 309.00125 46.472 309.00125 48.472 
L 309.00125 62.150125 
Q 309.00125 64.150125 311.00125 64.150125 
z
" style="fill: #ffffff; opacity: 0.8; stroke: #cccccc; stroke-linejoin: miter"/>
    </g>
    <g id="line2d_34">
     <path d="M 313.00125 54.570438 
L 323.00125 54.570438 
L 333.00125 54.570438 
" style="fill: none; stroke: #1f77b4; stroke-width: 1.5; stroke-linecap: square"/>
    </g>
    <g id="text_20">
     <!-- Actual speed -->
     <g transform="translate(341.00125 58.070438) scale(0.1 -0.1)">
      <defs>
       <path id="DejaVuSans-41" d="M 2188 4044 
L 1331 1722 
L 3047 1722 
L 2188 4044 
z
M 1831 4666 
L 2547 4666 
L 4325 0 
L 3669 0 
L 3244 1197 
L 1141 1197 
L 716 0 
L 50 0 
L 1831 4666 
z
" transform="scale(0.015625)"/>
       <path id="DejaVuSans-74" d="M 1172 4494 
L 1172 3500 
L 2356 3500 
L 2356 3053 
L 1172 3053 
L 1172 1153 
Q 1172 725 1289 603 
Q 1406 481 1766 481 
L 2356 481 
L 2356 0 
L 1766 0 
Q 1100 0 847 248 
Q 594 497 594 1153 
L 594 3053 
L 172 3053 
L 172 3500 
L 594 3500 
L 594 4494 
L 1172 4494 
z
" transform="scale(0.015625)"/>
       <path id="DejaVuSans-75" d="M 544 1381 
L 544 3500 
L 1119 3500 
L 1119 1403 
Q 1119 906 1312 657 
Q 1506 409 1894 409 
Q 2359 409 2629 706 
Q 2900 1003 2900 1516 
L 2900 3500 
L 3475 3500 
L 3475 0 
L 2900 0 
L 2900 538 
Q 2691 219 2414 64 
Q 2138 -91 1772 -91 
Q 1169 -91 856 284 
Q 544 659 544 1381 
z
M 1991 3584 
L 1991 3584 
z
" transform="scale(0.015625)"/>
       <path id="DejaVuSans-6c" d="M 603 4863 
L 1178 4863 
L 1178 0 
L 603 0 
L 603 4863 
z
" transform="scale(0.015625)"/>
       <path id="DejaVuSans-70" d="M 1159 525 
L 1159 -1331 
L 581 -1331 
L 581 3500 
L 1159 3500 
L 1159 2969 
Q 1341 3281 1617 3432 
Q 1894 3584 2278 3584 
Q 2916 3584 3314 3078 
Q 3713 2572 3713 1747 
Q 3713 922 3314 415 
Q 2916 -91 2278 -91 
Q 1894 -91 1617 61 
Q 1341 213 1159 525 
z
M 3116 1747 
Q 3116 2381 2855 2742 
Q 2594 3103 2138 3103 
Q 1681 3103 1420 2742 
Q 1159 2381 1159 1747 
Q 1159 1113 1420 752 
Q 1681 391 2138 391 
Q 2594 391 2855 752 
Q 3116 1113 3116 1747 
z
" transform="scale(0.015625)"/>
       <path id="DejaVuSans-64" d="M 2906 2969 
L 2906 4863 
L 3481 4863 
L 3481 0 
L 2906 0 
L 2906 525 
Q 2725 213 2448 61 
Q 2172 -91 1784 -91 
Q 1150 -91 751 415 
Q 353 922 353 1747 
Q 353 2572 751 3078 
Q 1150 3584 1784 3584 
Q 2172 3584 2448 3432 
Q 2725 3281 2906 2969 
z
M 947 1747 
Q 947 1113 1208 752 
Q 1469 391 1925 391 
Q 2381 391 2643 752 
Q 2906 1113 2906 1747 
Q 2906 2381 2643 2742 
Q 2381 3103 1925 3103 
Q 1469 3103 1208 2742 
Q 947 2381 947 1747 
z
" transform="scale(0.015625)"/>
      </defs>
      <use xlink:href="#DejaVuSans-41"/>
      <use xlink:href="#DejaVuSans-63" x="66.658203"/>
      <use xlink:href="#DejaVuSans-74" x="121.638672"/>
      <use xlink:href="#DejaVuSans-75" x="160.847656"/>
      <use xlink:href="#DejaVuSans-61" x="224.226562"/>
      <use xlink:href="#DejaVuSans-6c" x="285.505859"/>
      <use xlink:href="#DejaVuSans-20" x="313.289062"/>
      <use xlink:href="#DejaVuSans-73" x="345.076172"/>
      <use xlink:href="#DejaVuSans-70" x="397.175781"/>
      <use xlink:href="#DejaVuSans-65" x="460.652344"/>
      <use xlink:href="#DejaVuSans-65" x="522.175781"/>
      <use xlink:href="#DejaVuSans-64" x="583.699219"/>
     </g>
    </g>
   </g>
  </g>
 </g>
 <defs>
  <clipPath id="p2565b137cd">
   <rect x="57.6" y="41.472" width="357.12" height="266.112"/>
  </clipPath>
 </defs>
</svg>
