<?xml version="1.0" encoding="utf-8" standalone="no"?>
<!DOCTYPE svg PUBLIC "-//W3C//DTD SVG 1.1//EN"
  "http://www.w3.org/Graphics/SVG/1.1/DTD/svg11.dtd">
<svg xmlns:xlink="http://www.w3.org/1999/xlink" width="460.8pt" height="345.6pt" viewBox="0 0 460.8 345.6" xmlns="http://www.w3.org/2000/svg" version="1.1">
 <metadata>
  <rdf:RDF xmlns:dc="http://purl.org/dc/elements/1.1/" xmlns:cc="http://creativecommons.org/ns#" xmlns:rdf="http://www.w3.org/1999/02/22-rdf-syntax-ns#">
   <cc:Work>
    <dc:type rdf:resource="http://purl.org/dc/dcmitype/StillImage"/>
    <dc:date>2024-01-30T20:59:01.782820</dc:date>
    <dc:format>image/svg+xml</dc:format>
    <dc:creator>
     <cc:Agent>
      <dc:title>Matplotlib v3.7.1, https://matplotlib.org/</dc:title>
     </cc:Agent>
    </dc:creator>
   </cc:Work>
  </rdf:RDF>
 </metadata>
 <defs>
  <style type="text/css">*{stroke-linejoin: round; stroke-linecap: butt}</style>
 </defs>
 <g id="figure_1">
  <g id="patch_1">
   <path d="M 0 345.6 
L 460.8 345.6 
L 460.8 0 
L 0 0 
z
" style="fill: #ffffff"/>
  </g>
  <g id="axes_1">
   <g id="patch_2">
    <path d="M 57.6 307.584 
L 414.72 307.584 
L 414.72 41.472 
L 57.6 41.472 
z
" style="fill: #ffffff"/>
   </g>
   <g id="matplotlib.axis_1">
    <g id="xtick_1">
     <g id="line2d_1">
      <path d="M 73.832727 307.584 
L 73.832727 41.472 
" clip-path="url(#pe6cf341a67)" style="fill: none; stroke: #b0b0b0; stroke-width: 0.8; stroke-linecap: square"/>
     </g>
     <g id="line2d_2">
      <defs>
       <path id="m5c743d3e25" d="M 0 0 
L 0 3.5 
" style="stroke: #000000; stroke-width: 0.8"/>
      </defs>
      <g>
       <use xlink:href="#m5c743d3e25" x="73.832727" y="307.584" style="stroke: #000000; stroke-width: 0.8"/>
      </g>
     </g>
     <g id="text_1">
      <!-- 0 -->
      <g transform="translate(70.651477 322.182437) scale(0.1 -0.1)">
       <defs>
        <path id="DejaVuSans-30" d="M 2034 4250 
Q 1547 4250 1301 3770 
Q 1056 3291 1056 2328 
Q 1056 1369 1301 889 
Q 1547 409 2034 409 
Q 2525 409 2770 889 
Q 3016 1369 3016 2328 
Q 3016 3291 2770 3770 
Q 2525 4250 2034 4250 
z
M 2034 4750 
Q 2819 4750 3233 4129 
Q 3647 3509 3647 2328 
Q 3647 1150 3233 529 
Q 2819 -91 2034 -91 
Q 1250 -91 836 529 
Q 422 1150 422 2328 
Q 422 3509 836 4129 
Q 1250 4750 2034 4750 
z
" transform="scale(0.015625)"/>
       </defs>
       <use xlink:href="#DejaVuSans-30"/>
      </g>
     </g>
    </g>
    <g id="xtick_2">
     <g id="line2d_3">
      <path d="M 118.015436 307.584 
L 118.015436 41.472 
" clip-path="url(#pe6cf341a67)" style="fill: none; stroke: #b0b0b0; stroke-width: 0.8; stroke-linecap: square"/>
     </g>
     <g id="line2d_4">
      <g>
       <use xlink:href="#m5c743d3e25" x="118.015436" y="307.584" style="stroke: #000000; stroke-width: 0.8"/>
      </g>
     </g>
     <g id="text_2">
      <!-- 5 -->
      <g transform="translate(114.834186 322.182437) scale(0.1 -0.1)">
       <defs>
        <path id="DejaVuSans-35" d="M 691 4666 
L 3169 4666 
L 3169 4134 
L 1269 4134 
L 1269 2991 
Q 1406 3038 1543 3061 
Q 1681 3084 1819 3084 
Q 2600 3084 3056 2656 
Q 3513 2228 3513 1497 
Q 3513 744 3044 326 
Q 2575 -91 1722 -91 
Q 1428 -91 1123 -41 
Q 819 9 494 109 
L 494 744 
Q 775 591 1075 516 
Q 1375 441 1709 441 
Q 2250 441 2565 725 
Q 2881 1009 2881 1497 
Q 2881 1984 2565 2268 
Q 2250 2553 1709 2553 
Q 1456 2553 1204 2497 
Q 953 2441 691 2322 
L 691 4666 
z
" transform="scale(0.015625)"/>
       </defs>
       <use xlink:href="#DejaVuSans-35"/>
      </g>
     </g>
    </g>
    <g id="xtick_3">
     <g id="line2d_5">
      <path d="M 162.198145 307.584 
L 162.198145 41.472 
" clip-path="url(#pe6cf341a67)" style="fill: none; stroke: #b0b0b0; stroke-width: 0.8; stroke-linecap: square"/>
     </g>
     <g id="line2d_6">
      <g>
       <use xlink:href="#m5c743d3e25" x="162.198145" y="307.584" style="stroke: #000000; stroke-width: 0.8"/>
      </g>
     </g>
     <g id="text_3">
      <!-- 10 -->
      <g transform="translate(155.835645 322.182437) scale(0.1 -0.1)">
       <defs>
        <path id="DejaVuSans-31" d="M 794 531 
L 1825 531 
L 1825 4091 
L 703 3866 
L 703 4441 
L 1819 4666 
L 2450 4666 
L 2450 531 
L 3481 531 
L 3481 0 
L 794 0 
L 794 531 
z
" transform="scale(0.015625)"/>
       </defs>
       <use xlink:href="#DejaVuSans-31"/>
       <use xlink:href="#DejaVuSans-30" x="63.623047"/>
      </g>
     </g>
    </g>
    <g id="xtick_4">
     <g id="line2d_7">
      <path d="M 206.380854 307.584 
L 206.380854 41.472 
" clip-path="url(#pe6cf341a67)" style="fill: none; stroke: #b0b0b0; stroke-width: 0.8; stroke-linecap: square"/>
     </g>
     <g id="line2d_8">
      <g>
       <use xlink:href="#m5c743d3e25" x="206.380854" y="307.584" style="stroke: #000000; stroke-width: 0.8"/>
      </g>
     </g>
     <g id="text_4">
      <!-- 15 -->
      <g transform="translate(200.018354 322.182437) scale(0.1 -0.1)">
       <use xlink:href="#DejaVuSans-31"/>
       <use xlink:href="#DejaVuSans-35" x="63.623047"/>
      </g>
     </g>
    </g>
    <g id="xtick_5">
     <g id="line2d_9">
      <path d="M 250.563563 307.584 
L 250.563563 41.472 
" clip-path="url(#pe6cf341a67)" style="fill: none; stroke: #b0b0b0; stroke-width: 0.8; stroke-linecap: square"/>
     </g>
     <g id="line2d_10">
      <g>
       <use xlink:href="#m5c743d3e25" x="250.563563" y="307.584" style="stroke: #000000; stroke-width: 0.8"/>
      </g>
     </g>
     <g id="text_5">
      <!-- 20 -->
      <g transform="translate(244.201063 322.182437) scale(0.1 -0.1)">
       <defs>
        <path id="DejaVuSans-32" d="M 1228 531 
L 3431 531 
L 3431 0 
L 469 0 
L 469 531 
Q 828 903 1448 1529 
Q 2069 2156 2228 2338 
Q 2531 2678 2651 2914 
Q 2772 3150 2772 3378 
Q 2772 3750 2511 3984 
Q 2250 4219 1831 4219 
Q 1534 4219 1204 4116 
Q 875 4013 500 3803 
L 500 4441 
Q 881 4594 1212 4672 
Q 1544 4750 1819 4750 
Q 2544 4750 2975 4387 
Q 3406 4025 3406 3419 
Q 3406 3131 3298 2873 
Q 3191 2616 2906 2266 
Q 2828 2175 2409 1742 
Q 1991 1309 1228 531 
z
" transform="scale(0.015625)"/>
       </defs>
       <use xlink:href="#DejaVuSans-32"/>
       <use xlink:href="#DejaVuSans-30" x="63.623047"/>
      </g>
     </g>
    </g>
    <g id="xtick_6">
     <g id="line2d_11">
      <path d="M 294.746272 307.584 
L 294.746272 41.472 
" clip-path="url(#pe6cf341a67)" style="fill: none; stroke: #b0b0b0; stroke-width: 0.8; stroke-linecap: square"/>
     </g>
     <g id="line2d_12">
      <g>
       <use xlink:href="#m5c743d3e25" x="294.746272" y="307.584" style="stroke: #000000; stroke-width: 0.8"/>
      </g>
     </g>
     <g id="text_6">
      <!-- 25 -->
      <g transform="translate(288.383772 322.182437) scale(0.1 -0.1)">
       <use xlink:href="#DejaVuSans-32"/>
       <use xlink:href="#DejaVuSans-35" x="63.623047"/>
      </g>
     </g>
    </g>
    <g id="xtick_7">
     <g id="line2d_13">
      <path d="M 338.928981 307.584 
L 338.928981 41.472 
" clip-path="url(#pe6cf341a67)" style="fill: none; stroke: #b0b0b0; stroke-width: 0.8; stroke-linecap: square"/>
     </g>
     <g id="line2d_14">
      <g>
       <use xlink:href="#m5c743d3e25" x="338.928981" y="307.584" style="stroke: #000000; stroke-width: 0.8"/>
      </g>
     </g>
     <g id="text_7">
      <!-- 30 -->
      <g transform="translate(332.566481 322.182437) scale(0.1 -0.1)">
       <defs>
        <path id="DejaVuSans-33" d="M 2597 2516 
Q 3050 2419 3304 2112 
Q 3559 1806 3559 1356 
Q 3559 666 3084 287 
Q 2609 -91 1734 -91 
Q 1441 -91 1130 -33 
Q 819 25 488 141 
L 488 750 
Q 750 597 1062 519 
Q 1375 441 1716 441 
Q 2309 441 2620 675 
Q 2931 909 2931 1356 
Q 2931 1769 2642 2001 
Q 2353 2234 1838 2234 
L 1294 2234 
L 1294 2753 
L 1863 2753 
Q 2328 2753 2575 2939 
Q 2822 3125 2822 3475 
Q 2822 3834 2567 4026 
Q 2313 4219 1838 4219 
Q 1578 4219 1281 4162 
Q 984 4106 628 3988 
L 628 4550 
Q 988 4650 1302 4700 
Q 1616 4750 1894 4750 
Q 2613 4750 3031 4423 
Q 3450 4097 3450 3541 
Q 3450 3153 3228 2886 
Q 3006 2619 2597 2516 
z
" transform="scale(0.015625)"/>
       </defs>
       <use xlink:href="#DejaVuSans-33"/>
       <use xlink:href="#DejaVuSans-30" x="63.623047"/>
      </g>
     </g>
    </g>
    <g id="xtick_8">
     <g id="line2d_15">
      <path d="M 383.11169 307.584 
L 383.11169 41.472 
" clip-path="url(#pe6cf341a67)" style="fill: none; stroke: #b0b0b0; stroke-width: 0.8; stroke-linecap: square"/>
     </g>
     <g id="line2d_16">
      <g>
       <use xlink:href="#m5c743d3e25" x="383.11169" y="307.584" style="stroke: #000000; stroke-width: 0.8"/>
      </g>
     </g>
     <g id="text_8">
      <!-- 35 -->
      <g transform="translate(376.74919 322.182437) scale(0.1 -0.1)">
       <use xlink:href="#DejaVuSans-33"/>
       <use xlink:href="#DejaVuSans-35" x="63.623047"/>
      </g>
     </g>
    </g>
    <g id="text_9">
     <!-- Time(s) -->
     <g transform="translate(217.420156 335.860562) scale(0.1 -0.1)">
      <defs>
       <path id="DejaVuSans-54" d="M -19 4666 
L 3928 4666 
L 3928 4134 
L 2272 4134 
L 2272 0 
L 1638 0 
L 1638 4134 
L -19 4134 
L -19 4666 
z
" transform="scale(0.015625)"/>
       <path id="DejaVuSans-69" d="M 603 3500 
L 1178 3500 
L 1178 0 
L 603 0 
L 603 3500 
z
M 603 4863 
L 1178 4863 
L 1178 4134 
L 603 4134 
L 603 4863 
z
" transform="scale(0.015625)"/>
       <path id="DejaVuSans-6d" d="M 3328 2828 
Q 3544 3216 3844 3400 
Q 4144 3584 4550 3584 
Q 5097 3584 5394 3201 
Q 5691 2819 5691 2113 
L 5691 0 
L 5113 0 
L 5113 2094 
Q 5113 2597 4934 2840 
Q 4756 3084 4391 3084 
Q 3944 3084 3684 2787 
Q 3425 2491 3425 1978 
L 3425 0 
L 2847 0 
L 2847 2094 
Q 2847 2600 2669 2842 
Q 2491 3084 2119 3084 
Q 1678 3084 1418 2786 
Q 1159 2488 1159 1978 
L 1159 0 
L 581 0 
L 581 3500 
L 1159 3500 
L 1159 2956 
Q 1356 3278 1631 3431 
Q 1906 3584 2284 3584 
Q 2666 3584 2933 3390 
Q 3200 3197 3328 2828 
z
" transform="scale(0.015625)"/>
       <path id="DejaVuSans-65" d="M 3597 1894 
L 3597 1613 
L 953 1613 
Q 991 1019 1311 708 
Q 1631 397 2203 397 
Q 2534 397 2845 478 
Q 3156 559 3463 722 
L 3463 178 
Q 3153 47 2828 -22 
Q 2503 -91 2169 -91 
Q 1331 -91 842 396 
Q 353 884 353 1716 
Q 353 2575 817 3079 
Q 1281 3584 2069 3584 
Q 2775 3584 3186 3129 
Q 3597 2675 3597 1894 
z
M 3022 2063 
Q 3016 2534 2758 2815 
Q 2500 3097 2075 3097 
Q 1594 3097 1305 2825 
Q 1016 2553 972 2059 
L 3022 2063 
z
" transform="scale(0.015625)"/>
       <path id="DejaVuSans-28" d="M 1984 4856 
Q 1566 4138 1362 3434 
Q 1159 2731 1159 2009 
Q 1159 1288 1364 580 
Q 1569 -128 1984 -844 
L 1484 -844 
Q 1016 -109 783 600 
Q 550 1309 550 2009 
Q 550 2706 781 3412 
Q 1013 4119 1484 4856 
L 1984 4856 
z
" transform="scale(0.015625)"/>
       <path id="DejaVuSans-73" d="M 2834 3397 
L 2834 2853 
Q 2591 2978 2328 3040 
Q 2066 3103 1784 3103 
Q 1356 3103 1142 2972 
Q 928 2841 928 2578 
Q 928 2378 1081 2264 
Q 1234 2150 1697 2047 
L 1894 2003 
Q 2506 1872 2764 1633 
Q 3022 1394 3022 966 
Q 3022 478 2636 193 
Q 2250 -91 1575 -91 
Q 1294 -91 989 -36 
Q 684 19 347 128 
L 347 722 
Q 666 556 975 473 
Q 1284 391 1588 391 
Q 1994 391 2212 530 
Q 2431 669 2431 922 
Q 2431 1156 2273 1281 
Q 2116 1406 1581 1522 
L 1381 1569 
Q 847 1681 609 1914 
Q 372 2147 372 2553 
Q 372 3047 722 3315 
Q 1072 3584 1716 3584 
Q 2034 3584 2315 3537 
Q 2597 3491 2834 3397 
z
" transform="scale(0.015625)"/>
       <path id="DejaVuSans-29" d="M 513 4856 
L 1013 4856 
Q 1481 4119 1714 3412 
Q 1947 2706 1947 2009 
Q 1947 1309 1714 600 
Q 1481 -109 1013 -844 
L 513 -844 
Q 928 -128 1133 580 
Q 1338 1288 1338 2009 
Q 1338 2731 1133 3434 
Q 928 4138 513 4856 
z
" transform="scale(0.015625)"/>
      </defs>
      <use xlink:href="#DejaVuSans-54"/>
      <use xlink:href="#DejaVuSans-69" x="57.958984"/>
      <use xlink:href="#DejaVuSans-6d" x="85.742188"/>
      <use xlink:href="#DejaVuSans-65" x="183.154297"/>
      <use xlink:href="#DejaVuSans-28" x="244.677734"/>
      <use xlink:href="#DejaVuSans-73" x="283.691406"/>
      <use xlink:href="#DejaVuSans-29" x="335.791016"/>
     </g>
    </g>
   </g>
   <g id="matplotlib.axis_2">
    <g id="ytick_1">
     <g id="line2d_17">
      <path d="M 57.6 295.488 
L 414.72 295.488 
" clip-path="url(#pe6cf341a67)" style="fill: none; stroke: #b0b0b0; stroke-width: 0.8; stroke-linecap: square"/>
     </g>
     <g id="line2d_18">
      <defs>
       <path id="m355ec2ca5f" d="M 0 0 
L -3.5 0 
" style="stroke: #000000; stroke-width: 0.8"/>
      </defs>
      <g>
       <use xlink:href="#m355ec2ca5f" x="57.6" y="295.488" style="stroke: #000000; stroke-width: 0.8"/>
      </g>
     </g>
     <g id="text_10">
      <!-- 0.000 -->
      <g transform="translate(21.971875 299.287219) scale(0.1 -0.1)">
       <defs>
        <path id="DejaVuSans-2e" d="M 684 794 
L 1344 794 
L 1344 0 
L 684 0 
L 684 794 
z
" transform="scale(0.015625)"/>
       </defs>
       <use xlink:href="#DejaVuSans-30"/>
       <use xlink:href="#DejaVuSans-2e" x="63.623047"/>
       <use xlink:href="#DejaVuSans-30" x="95.410156"/>
       <use xlink:href="#DejaVuSans-30" x="159.033203"/>
       <use xlink:href="#DejaVuSans-30" x="222.65625"/>
      </g>
     </g>
    </g>
    <g id="ytick_2">
     <g id="line2d_19">
      <path d="M 57.6 260.034781 
L 414.72 260.034781 
" clip-path="url(#pe6cf341a67)" style="fill: none; stroke: #b0b0b0; stroke-width: 0.8; stroke-linecap: square"/>
     </g>
     <g id="line2d_20">
      <g>
       <use xlink:href="#m355ec2ca5f" x="57.6" y="260.034781" style="stroke: #000000; stroke-width: 0.8"/>
      </g>
     </g>
     <g id="text_11">
      <!-- 0.025 -->
      <g transform="translate(21.971875 263.834) scale(0.1 -0.1)">
       <use xlink:href="#DejaVuSans-30"/>
       <use xlink:href="#DejaVuSans-2e" x="63.623047"/>
       <use xlink:href="#DejaVuSans-30" x="95.410156"/>
       <use xlink:href="#DejaVuSans-32" x="159.033203"/>
       <use xlink:href="#DejaVuSans-35" x="222.65625"/>
      </g>
     </g>
    </g>
    <g id="ytick_3">
     <g id="line2d_21">
      <path d="M 57.6 224.581563 
L 414.72 224.581563 
" clip-path="url(#pe6cf341a67)" style="fill: none; stroke: #b0b0b0; stroke-width: 0.8; stroke-linecap: square"/>
     </g>
     <g id="line2d_22">
      <g>
       <use xlink:href="#m355ec2ca5f" x="57.6" y="224.581563" style="stroke: #000000; stroke-width: 0.8"/>
      </g>
     </g>
     <g id="text_12">
      <!-- 0.050 -->
      <g transform="translate(21.971875 228.380782) scale(0.1 -0.1)">
       <use xlink:href="#DejaVuSans-30"/>
       <use xlink:href="#DejaVuSans-2e" x="63.623047"/>
       <use xlink:href="#DejaVuSans-30" x="95.410156"/>
       <use xlink:href="#DejaVuSans-35" x="159.033203"/>
       <use xlink:href="#DejaVuSans-30" x="222.65625"/>
      </g>
     </g>
    </g>
    <g id="ytick_4">
     <g id="line2d_23">
      <path d="M 57.6 189.128344 
L 414.72 189.128344 
" clip-path="url(#pe6cf341a67)" style="fill: none; stroke: #b0b0b0; stroke-width: 0.8; stroke-linecap: square"/>
     </g>
     <g id="line2d_24">
      <g>
       <use xlink:href="#m355ec2ca5f" x="57.6" y="189.128344" style="stroke: #000000; stroke-width: 0.8"/>
      </g>
     </g>
     <g id="text_13">
      <!-- 0.075 -->
      <g transform="translate(21.971875 192.927563) scale(0.1 -0.1)">
       <defs>
        <path id="DejaVuSans-37" d="M 525 4666 
L 3525 4666 
L 3525 4397 
L 1831 0 
L 1172 0 
L 2766 4134 
L 525 4134 
L 525 4666 
z
" transform="scale(0.015625)"/>
       </defs>
       <use xlink:href="#DejaVuSans-30"/>
       <use xlink:href="#DejaVuSans-2e" x="63.623047"/>
       <use xlink:href="#DejaVuSans-30" x="95.410156"/>
       <use xlink:href="#DejaVuSans-37" x="159.033203"/>
       <use xlink:href="#DejaVuSans-35" x="222.65625"/>
      </g>
     </g>
    </g>
    <g id="ytick_5">
     <g id="line2d_25">
      <path d="M 57.6 153.675126 
L 414.72 153.675126 
" clip-path="url(#pe6cf341a67)" style="fill: none; stroke: #b0b0b0; stroke-width: 0.8; stroke-linecap: square"/>
     </g>
     <g id="line2d_26">
      <g>
       <use xlink:href="#m355ec2ca5f" x="57.6" y="153.675126" style="stroke: #000000; stroke-width: 0.8"/>
      </g>
     </g>
     <g id="text_14">
      <!-- 0.100 -->
      <g transform="translate(21.971875 157.474345) scale(0.1 -0.1)">
       <use xlink:href="#DejaVuSans-30"/>
       <use xlink:href="#DejaVuSans-2e" x="63.623047"/>
       <use xlink:href="#DejaVuSans-31" x="95.410156"/>
       <use xlink:href="#DejaVuSans-30" x="159.033203"/>
       <use xlink:href="#DejaVuSans-30" x="222.65625"/>
      </g>
     </g>
    </g>
    <g id="ytick_6">
     <g id="line2d_27">
      <path d="M 57.6 118.221907 
L 414.72 118.221907 
" clip-path="url(#pe6cf341a67)" style="fill: none; stroke: #b0b0b0; stroke-width: 0.8; stroke-linecap: square"/>
     </g>
     <g id="line2d_28">
      <g>
       <use xlink:href="#m355ec2ca5f" x="57.6" y="118.221907" style="stroke: #000000; stroke-width: 0.8"/>
      </g>
     </g>
     <g id="text_15">
      <!-- 0.125 -->
      <g transform="translate(21.971875 122.021126) scale(0.1 -0.1)">
       <use xlink:href="#DejaVuSans-30"/>
       <use xlink:href="#DejaVuSans-2e" x="63.623047"/>
       <use xlink:href="#DejaVuSans-31" x="95.410156"/>
       <use xlink:href="#DejaVuSans-32" x="159.033203"/>
       <use xlink:href="#DejaVuSans-35" x="222.65625"/>
      </g>
     </g>
    </g>
    <g id="ytick_7">
     <g id="line2d_29">
      <path d="M 57.6 82.768689 
L 414.72 82.768689 
" clip-path="url(#pe6cf341a67)" style="fill: none; stroke: #b0b0b0; stroke-width: 0.8; stroke-linecap: square"/>
     </g>
     <g id="line2d_30">
      <g>
       <use xlink:href="#m355ec2ca5f" x="57.6" y="82.768689" style="stroke: #000000; stroke-width: 0.8"/>
      </g>
     </g>
     <g id="text_16">
      <!-- 0.150 -->
      <g transform="translate(21.971875 86.567908) scale(0.1 -0.1)">
       <use xlink:href="#DejaVuSans-30"/>
       <use xlink:href="#DejaVuSans-2e" x="63.623047"/>
       <use xlink:href="#DejaVuSans-31" x="95.410156"/>
       <use xlink:href="#DejaVuSans-35" x="159.033203"/>
       <use xlink:href="#DejaVuSans-30" x="222.65625"/>
      </g>
     </g>
    </g>
    <g id="ytick_8">
     <g id="line2d_31">
      <path d="M 57.6 47.31547 
L 414.72 47.31547 
" clip-path="url(#pe6cf341a67)" style="fill: none; stroke: #b0b0b0; stroke-width: 0.8; stroke-linecap: square"/>
     </g>
     <g id="line2d_32">
      <g>
       <use xlink:href="#m355ec2ca5f" x="57.6" y="47.31547" style="stroke: #000000; stroke-width: 0.8"/>
      </g>
     </g>
     <g id="text_17">
      <!-- 0.175 -->
      <g transform="translate(21.971875 51.114689) scale(0.1 -0.1)">
       <use xlink:href="#DejaVuSans-30"/>
       <use xlink:href="#DejaVuSans-2e" x="63.623047"/>
       <use xlink:href="#DejaVuSans-31" x="95.410156"/>
       <use xlink:href="#DejaVuSans-37" x="159.033203"/>
       <use xlink:href="#DejaVuSans-35" x="222.65625"/>
      </g>
     </g>
    </g>
    <g id="text_18">
     <!-- Tracking error(m) -->
     <g transform="translate(15.892187 217.803781) rotate(-90) scale(0.1 -0.1)">
      <defs>
       <path id="DejaVuSans-72" d="M 2631 2963 
Q 2534 3019 2420 3045 
Q 2306 3072 2169 3072 
Q 1681 3072 1420 2755 
Q 1159 2438 1159 1844 
L 1159 0 
L 581 0 
L 581 3500 
L 1159 3500 
L 1159 2956 
Q 1341 3275 1631 3429 
Q 1922 3584 2338 3584 
Q 2397 3584 2469 3576 
Q 2541 3569 2628 3553 
L 2631 2963 
z
" transform="scale(0.015625)"/>
       <path id="DejaVuSans-61" d="M 2194 1759 
Q 1497 1759 1228 1600 
Q 959 1441 959 1056 
Q 959 750 1161 570 
Q 1363 391 1709 391 
Q 2188 391 2477 730 
Q 2766 1069 2766 1631 
L 2766 1759 
L 2194 1759 
z
M 3341 1997 
L 3341 0 
L 2766 0 
L 2766 531 
Q 2569 213 2275 61 
Q 1981 -91 1556 -91 
Q 1019 -91 701 211 
Q 384 513 384 1019 
Q 384 1609 779 1909 
Q 1175 2209 1959 2209 
L 2766 2209 
L 2766 2266 
Q 2766 2663 2505 2880 
Q 2244 3097 1772 3097 
Q 1472 3097 1187 3025 
Q 903 2953 641 2809 
L 641 3341 
Q 956 3463 1253 3523 
Q 1550 3584 1831 3584 
Q 2591 3584 2966 3190 
Q 3341 2797 3341 1997 
z
" transform="scale(0.015625)"/>
       <path id="DejaVuSans-63" d="M 3122 3366 
L 3122 2828 
Q 2878 2963 2633 3030 
Q 2388 3097 2138 3097 
Q 1578 3097 1268 2742 
Q 959 2388 959 1747 
Q 959 1106 1268 751 
Q 1578 397 2138 397 
Q 2388 397 2633 464 
Q 2878 531 3122 666 
L 3122 134 
Q 2881 22 2623 -34 
Q 2366 -91 2075 -91 
Q 1284 -91 818 406 
Q 353 903 353 1747 
Q 353 2603 823 3093 
Q 1294 3584 2113 3584 
Q 2378 3584 2631 3529 
Q 2884 3475 3122 3366 
z
" transform="scale(0.015625)"/>
       <path id="DejaVuSans-6b" d="M 581 4863 
L 1159 4863 
L 1159 1991 
L 2875 3500 
L 3609 3500 
L 1753 1863 
L 3688 0 
L 2938 0 
L 1159 1709 
L 1159 0 
L 581 0 
L 581 4863 
z
" transform="scale(0.015625)"/>
       <path id="DejaVuSans-6e" d="M 3513 2113 
L 3513 0 
L 2938 0 
L 2938 2094 
Q 2938 2591 2744 2837 
Q 2550 3084 2163 3084 
Q 1697 3084 1428 2787 
Q 1159 2491 1159 1978 
L 1159 0 
L 581 0 
L 581 3500 
L 1159 3500 
L 1159 2956 
Q 1366 3272 1645 3428 
Q 1925 3584 2291 3584 
Q 2894 3584 3203 3211 
Q 3513 2838 3513 2113 
z
" transform="scale(0.015625)"/>
       <path id="DejaVuSans-67" d="M 2906 1791 
Q 2906 2416 2648 2759 
Q 2391 3103 1925 3103 
Q 1463 3103 1205 2759 
Q 947 2416 947 1791 
Q 947 1169 1205 825 
Q 1463 481 1925 481 
Q 2391 481 2648 825 
Q 2906 1169 2906 1791 
z
M 3481 434 
Q 3481 -459 3084 -895 
Q 2688 -1331 1869 -1331 
Q 1566 -1331 1297 -1286 
Q 1028 -1241 775 -1147 
L 775 -588 
Q 1028 -725 1275 -790 
Q 1522 -856 1778 -856 
Q 2344 -856 2625 -561 
Q 2906 -266 2906 331 
L 2906 616 
Q 2728 306 2450 153 
Q 2172 0 1784 0 
Q 1141 0 747 490 
Q 353 981 353 1791 
Q 353 2603 747 3093 
Q 1141 3584 1784 3584 
Q 2172 3584 2450 3431 
Q 2728 3278 2906 2969 
L 2906 3500 
L 3481 3500 
L 3481 434 
z
" transform="scale(0.015625)"/>
       <path id="DejaVuSans-20" transform="scale(0.015625)"/>
       <path id="DejaVuSans-6f" d="M 1959 3097 
Q 1497 3097 1228 2736 
Q 959 2375 959 1747 
Q 959 1119 1226 758 
Q 1494 397 1959 397 
Q 2419 397 2687 759 
Q 2956 1122 2956 1747 
Q 2956 2369 2687 2733 
Q 2419 3097 1959 3097 
z
M 1959 3584 
Q 2709 3584 3137 3096 
Q 3566 2609 3566 1747 
Q 3566 888 3137 398 
Q 2709 -91 1959 -91 
Q 1206 -91 779 398 
Q 353 888 353 1747 
Q 353 2609 779 3096 
Q 1206 3584 1959 3584 
z
" transform="scale(0.015625)"/>
      </defs>
      <use xlink:href="#DejaVuSans-54"/>
      <use xlink:href="#DejaVuSans-72" x="46.333984"/>
      <use xlink:href="#DejaVuSans-61" x="87.447266"/>
      <use xlink:href="#DejaVuSans-63" x="148.726562"/>
      <use xlink:href="#DejaVuSans-6b" x="203.707031"/>
      <use xlink:href="#DejaVuSans-69" x="261.617188"/>
      <use xlink:href="#DejaVuSans-6e" x="289.400391"/>
      <use xlink:href="#DejaVuSans-67" x="352.779297"/>
      <use xlink:href="#DejaVuSans-20" x="416.255859"/>
      <use xlink:href="#DejaVuSans-65" x="448.042969"/>
      <use xlink:href="#DejaVuSans-72" x="509.566406"/>
      <use xlink:href="#DejaVuSans-72" x="548.929688"/>
      <use xlink:href="#DejaVuSans-6f" x="587.792969"/>
      <use xlink:href="#DejaVuSans-72" x="648.974609"/>
      <use xlink:href="#DejaVuSans-28" x="690.087891"/>
      <use xlink:href="#DejaVuSans-6d" x="729.101562"/>
      <use xlink:href="#DejaVuSans-29" x="826.513672"/>
     </g>
    </g>
   </g>
   <g id="line2d_33">
    <path d="M 73.832727 252.582515 
L 74.009458 251.645132 
L 74.009458 251.645132 
L 74.186189 252.056389 
L 74.186189 252.056389 
L 74.36292 259.507238 
L 74.36292 259.507238 
L 74.716381 264.008378 
L 74.716381 264.008378 
L 75.953497 285.979447 
L 75.953497 285.979447 
L 76.48369 292.576582 
L 76.48369 292.576582 
L 76.837151 294.87395 
L 76.837151 294.87395 
L 77.013882 295.322079 
L 77.013882 295.322079 
L 77.367344 294.523672 
L 77.367344 294.523672 
L 77.897536 294.698102 
L 77.897536 294.698102 
L 78.60446 294.153541 
L 78.60446 294.153541 
L 78.781191 294.183322 
L 78.781191 294.183322 
L 78.957922 294.38186 
L 78.957922 294.38186 
L 79.311383 295.273863 
L 79.311383 295.273863 
L 80.018307 290.307576 
L 80.018307 290.307576 
L 80.548499 286.757999 
L 80.548499 286.757999 
L 80.901961 285.847561 
L 80.901961 285.847561 
L 81.078692 285.877342 
L 81.078692 285.877342 
L 81.432153 286.891304 
L 81.432153 286.891304 
L 81.785615 288.634184 
L 81.785615 288.634184 
L 82.315807 292.833263 
L 82.315807 292.833263 
L 82.492538 294.553453 
L 82.492538 294.553453 
L 82.669269 294.832825 
L 82.669269 294.832825 
L 83.199462 290.789739 
L 83.199462 290.789739 
L 83.552923 289.439681 
L 83.552923 289.439681 
L 83.729654 289.360266 
L 83.729654 289.360266 
L 84.083116 290.063658 
L 84.083116 290.063658 
L 84.790039 292.02493 
L 84.790039 292.02493 
L 84.96677 292.040529 
L 84.96677 292.040529 
L 85.320232 291.497386 
L 85.320232 291.497386 
L 86.380617 287.986099 
L 86.380617 287.986099 
L 86.557347 288.034315 
L 86.557347 288.034315 
L 87.08754 289.01566 
L 87.08754 289.01566 
L 87.264271 289.367356 
L 87.264271 289.367356 
L 87.794463 291.437824 
L 87.794463 291.437824 
L 88.501387 294.868278 
L 88.501387 294.868278 
L 88.678117 294.936348 
L 88.678117 294.936348 
L 89.385041 288.804359 
L 89.385041 288.804359 
L 89.915233 283.94585 
L 89.915233 283.94585 
L 90.268695 282.085265 
L 90.268695 282.085265 
L 90.445426 281.953379 
L 90.622157 282.319257 
L 90.622157 282.319257 
L 90.975618 285.729856 
L 90.975618 285.729856 
L 91.505811 295.289462 
L 91.505811 295.289462 
L 93.096388 261.947837 
L 93.096388 261.947837 
L 93.44985 258.934314 
L 93.44985 258.934314 
L 93.626581 258.369898 
L 93.626581 258.369898 
L 93.803312 258.19405 
L 93.803312 258.19405 
L 93.980043 258.367062 
L 93.980043 258.367062 
L 94.686966 265.934197 
L 94.686966 265.934197 
L 95.747351 279.562414 
L 95.747351 279.562414 
L 95.924082 280.210499 
L 95.924082 280.210499 
L 96.100813 279.841786 
L 96.100813 279.841786 
L 96.277543 278.833496 
L 96.277543 278.833496 
L 96.631005 271.914446 
L 96.631005 271.914446 
L 96.984467 262.452691 
L 96.984467 262.452691 
L 97.337928 250.149006 
L 97.337928 250.149006 
L 97.69139 239.524386 
L 97.69139 239.524386 
L 97.868121 233.834853 
L 97.868121 233.834853 
L 98.044852 232.782601 
L 98.044852 232.782601 
L 98.398313 226.755554 
L 98.398313 226.755554 
L 98.575044 231.873581 
L 98.575044 231.873581 
L 98.751775 231.348873 
L 98.751775 231.348873 
L 98.928506 237.879356 
L 98.928506 237.879356 
L 99.105237 238.967061 
L 99.105237 238.967061 
L 99.281968 245.487617 
L 99.281968 245.487617 
L 99.458698 247.472997 
L 99.458698 247.472997 
L 99.635429 253.16962 
L 99.635429 253.16962 
L 99.81216 254.765015 
L 99.81216 254.765015 
L 99.988891 253.128495 
L 99.988891 253.128495 
L 100.165622 259.522837 
L 100.165622 259.522837 
L 100.342353 257.167325 
L 100.342353 257.167325 
L 100.519083 261.518144 
L 100.519083 261.518144 
L 100.695814 258.158597 
L 100.695814 258.158597 
L 100.872545 261.009036 
L 100.872545 261.009036 
L 101.049276 257.96715 
L 101.049276 257.96715 
L 101.226007 260.21772 
L 101.226007 260.21772 
L 101.402738 258.561346 
L 101.402738 258.561346 
L 101.579469 261.030308 
L 101.579469 261.030308 
L 101.756199 260.421931 
L 101.756199 260.421931 
L 101.93293 258.795337 
L 101.93293 258.795337 
L 102.109661 262.334986 
L 102.109661 262.334986 
L 102.286392 260.46022 
L 102.286392 260.46022 
L 102.463123 261.350805 
L 102.463123 261.350805 
L 102.639854 256.147691 
L 102.639854 256.147691 
L 102.816584 254.88272 
L 102.816584 254.88272 
L 102.993315 247.143991 
L 102.993315 247.143991 
L 103.170046 246.103085 
L 103.170046 246.103085 
L 103.346777 239.20247 
L 103.346777 239.20247 
L 103.523508 239.708742 
L 103.523508 239.708742 
L 103.876969 229.404619 
L 103.876969 229.404619 
L 104.0537 236.984517 
L 104.0537 236.984517 
L 104.230431 233.786637 
L 104.230431 233.786637 
L 104.407162 242.228757 
L 104.407162 242.228757 
L 104.583893 242.155014 
L 104.583893 242.155014 
L 104.760624 251.450848 
L 104.760624 251.450848 
L 104.937354 254.392047 
L 104.937354 254.392047 
L 105.290816 269.695074 
L 105.290816 269.695074 
L 105.467547 274.018949 
L 105.467547 274.018949 
L 105.644278 289.161728 
L 105.644278 289.161728 
L 105.821009 294.257064 
L 106.704663 224.340481 
L 106.704663 224.340481 
L 107.941779 134.343195 
L 107.941779 134.343195 
L 108.471971 114.17315 
L 108.471971 114.17315 
L 108.648702 117.249071 
L 108.648702 117.249071 
L 108.825433 116.961191 
L 108.825433 116.961191 
L 109.002164 117.460372 
L 109.002164 117.460372 
L 110.946203 255.309577 
L 110.946203 255.309577 
L 111.299664 271.477662 
L 111.299664 271.477662 
L 111.476395 275.327882 
L 111.829857 288.662546 
L 111.829857 288.662546 
L 112.006588 291.069111 
L 112.006588 291.069111 
L 112.183319 290.891845 
L 112.183319 290.891845 
L 112.360049 288.421464 
L 112.360049 288.421464 
L 112.713511 278.45911 
L 112.713511 278.45911 
L 112.890242 276.628306 
L 112.890242 276.628306 
L 113.066973 269.920557 
L 113.066973 269.920557 
L 113.420435 266.278802 
L 113.420435 266.278802 
L 113.597165 259.3087 
L 113.597165 259.3087 
L 113.950627 255.335103 
L 113.950627 255.335103 
L 114.304089 243.834079 
L 114.304089 243.834079 
L 114.48082 240.743976 
L 114.48082 240.743976 
L 115.011012 217.696548 
L 115.011012 217.696548 
L 115.541205 193.412511 
L 115.541205 193.412511 
L 116.60159 133.29378 
L 116.60159 133.29378 
L 117.308513 99.672783 
L 117.308513 99.672783 
L 117.661975 90.517344 
L 117.661975 90.517344 
L 118.015436 84.057768 
L 118.015436 84.057768 
L 118.192167 85.817666 
L 118.192167 85.817666 
L 118.368898 85.806321 
L 118.368898 85.806321 
L 118.545629 85.273104 
L 118.545629 85.273104 
L 118.72236 91.86173 
L 118.72236 91.86173 
L 118.89909 94.130736 
L 118.89909 94.130736 
L 119.252552 105.560854 
L 119.252552 105.560854 
L 119.429283 110.137155 
L 119.429283 110.137155 
L 120.84313 216.013229 
L 120.84313 216.013229 
L 121.373322 263.852384 
L 121.373322 263.852384 
L 121.903515 294.327971 
L 121.903515 294.327971 
L 122.080245 291.626435 
L 122.433707 277.002692 
L 122.433707 277.002692 
L 122.787169 265.460542 
L 122.787169 265.460542 
L 122.9639 264.211171 
L 122.9639 264.211171 
L 123.14063 256.029986 
L 123.14063 256.029986 
L 123.317361 254.522515 
L 123.317361 254.522515 
L 123.494092 248.133845 
L 123.494092 248.133845 
L 123.670823 246.427836 
L 123.670823 246.427836 
L 123.847554 247.115629 
L 123.847554 247.115629 
L 124.024285 240.1044 
L 124.024285 240.1044 
L 124.201015 240.614927 
L 124.201015 240.614927 
L 124.377746 235.362178 
L 124.554477 235.794707 
L 124.554477 235.794707 
L 124.731208 232.494721 
L 124.731208 232.494721 
L 124.907939 233.354107 
L 125.08467 236.367631 
L 125.08467 236.367631 
L 125.261401 232.879034 
L 125.261401 232.879034 
L 125.438131 235.572061 
L 125.438131 235.572061 
L 125.614862 234.342543 
L 125.614862 234.342543 
L 125.968324 243.540526 
L 125.968324 243.540526 
L 126.145055 242.381915 
L 126.145055 242.381915 
L 126.321786 247.74386 
L 126.321786 247.74386 
L 126.498516 248.176389 
L 126.498516 248.176389 
L 126.851978 260.403495 
L 126.851978 260.403495 
L 127.028709 259.643378 
L 127.028709 259.643378 
L 127.20544 265.877472 
L 127.20544 265.877472 
L 127.382171 265.799475 
L 127.382171 265.799475 
L 127.558901 270.375776 
L 127.558901 270.375776 
L 127.735632 270.904738 
L 127.735632 270.904738 
L 128.089094 278.098905 
L 128.089094 278.098905 
L 128.265825 276.453876 
L 128.265825 276.453876 
L 128.442556 279.456055 
L 128.442556 279.456055 
L 128.619286 279.161084 
L 128.619286 279.161084 
L 128.972748 285.521391 
L 128.972748 285.521391 
L 129.149479 284.123116 
L 129.149479 284.123116 
L 129.32621 286.532517 
L 129.32621 286.532517 
L 129.502941 285.583789 
L 129.502941 285.583789 
L 129.679671 286.843087 
L 129.856402 289.194345 
L 129.856402 289.194345 
L 130.033133 286.383613 
L 130.033133 286.383613 
L 130.209864 287.172093 
L 130.209864 287.172093 
L 130.386595 289.069549 
L 130.386595 289.069549 
L 130.563326 284.474812 
L 130.563326 284.474812 
L 130.740056 285.527064 
L 130.740056 285.527064 
L 130.916787 282.598628 
L 130.916787 282.598628 
L 131.093518 295.488 
L 131.093518 295.488 
L 131.270249 285.030719 
L 131.270249 285.030719 
L 131.44698 281.614447 
L 131.44698 281.614447 
L 131.623711 283.148862 
L 131.623711 283.148862 
L 131.800441 281.376201 
L 131.800441 281.376201 
L 131.977172 282.015777 
L 131.977172 282.015777 
L 132.153903 283.672151 
L 132.153903 283.672151 
L 132.330634 280.803277 
L 132.330634 280.803277 
L 132.507365 281.576157 
L 132.507365 281.576157 
L 132.684096 283.470777 
L 132.684096 283.470777 
L 132.860826 280.011961 
L 132.860826 280.011961 
L 133.037557 281.042941 
L 133.037557 281.042941 
L 133.214288 279.03487 
L 133.214288 279.03487 
L 133.391019 279.366712 
L 133.391019 279.366712 
L 133.56775 280.892619 
L 133.56775 280.892619 
L 133.744481 278.674666 
L 133.744481 278.674666 
L 133.921211 279.188028 
L 133.921211 279.188028 
L 134.097942 280.46718 
L 134.274673 277.294826 
L 134.274673 277.294826 
L 134.451404 277.177122 
L 134.451404 277.177122 
L 134.628135 277.530236 
L 134.628135 277.530236 
L 134.804866 272.897209 
L 134.804866 272.897209 
L 135.158327 270.934519 
L 135.158327 270.934519 
L 135.511789 263.154665 
L 135.511789 263.154665 
L 135.68852 261.49829 
L 135.68852 261.49829 
L 136.041981 252.300307 
L 136.041981 252.300307 
L 136.218712 250.093699 
L 136.218712 250.093699 
L 136.572174 240.881535 
L 136.572174 240.881535 
L 136.748905 238.561476 
L 136.748905 238.561476 
L 137.102367 229.508142 
L 137.102367 229.508142 
L 137.279097 227.172484 
L 137.279097 227.172484 
L 137.632559 218.022718 
L 137.632559 218.022718 
L 137.80929 215.211986 
L 137.80929 215.211986 
L 138.162752 206.072147 
L 138.162752 206.072147 
L 138.339482 203.190509 
L 138.339482 203.190509 
L 138.692944 195.271678 
L 138.692944 195.271678 
L 139.046406 190.613125 
L 139.046406 190.613125 
L 139.399867 183.315435 
L 139.399867 183.315435 
L 139.576598 181.236458 
L 139.576598 181.236458 
L 139.93006 174.674776 
L 139.93006 174.674776 
L 140.283522 170.167963 
L 140.283522 170.167963 
L 140.636983 163.482904 
L 140.636983 163.482904 
L 141.520637 152.245652 
L 141.520637 152.245652 
L 142.227561 148.186968 
L 142.227561 148.186968 
L 142.404292 148.411032 
L 142.404292 148.411032 
L 142.581022 148.989629 
L 142.581022 148.989629 
L 142.757753 149.131441 
L 142.757753 149.131441 
L 143.111215 152.323649 
L 143.111215 152.323649 
L 143.818138 162.267568 
L 143.818138 162.267568 
L 145.762177 198.594354 
L 145.762177 198.594354 
L 148.059678 244.214137 
L 148.059678 244.214137 
L 148.766602 252.924284 
L 148.766602 252.924284 
L 148.943333 253.60924 
L 148.943333 253.60924 
L 149.650256 258.768393 
L 149.650256 258.768393 
L 149.826987 259.168305 
L 149.826987 259.168305 
L 150.357179 263.479416 
L 150.357179 263.479416 
L 150.710641 265.922852 
L 150.710641 265.922852 
L 151.947757 274.787575 
L 151.947757 274.787575 
L 152.831411 285.162605 
L 152.831411 285.162605 
L 153.361603 294.726465 
L 153.361603 294.726465 
L 153.538334 292.802064 
L 153.538334 292.802064 
L 154.77545 270.233963 
L 154.77545 270.233963 
L 155.128912 266.230586 
L 155.128912 266.230586 
L 155.305643 263.102194 
L 155.305643 263.102194 
L 155.482373 263.286551 
L 155.482373 263.286551 
L 155.659104 260.533963 
L 155.659104 260.533963 
L 155.835835 260.216302 
L 155.835835 260.216302 
L 156.012566 257.119109 
L 156.012566 257.119109 
L 156.189297 256.160454 
L 156.189297 256.160454 
L 156.89622 242.250029 
L 156.89622 242.250029 
L 157.072951 241.835935 
L 157.249682 236.662602 
L 157.249682 236.662602 
L 157.426413 236.468318 
L 157.426413 236.468318 
L 157.603143 231.717587 
L 157.603143 231.717587 
L 157.779874 231.517631 
L 157.779874 231.517631 
L 157.956605 226.88744 
L 157.956605 226.88744 
L 158.133336 226.803771 
L 158.133336 226.803771 
L 158.310067 222.009077 
L 158.310067 222.009077 
L 158.486798 221.288668 
L 158.486798 221.288668 
L 158.663528 215.759384 
L 158.663528 215.759384 
L 158.840259 214.213624 
L 158.840259 214.213624 
L 159.900644 173.402715 
L 159.900644 173.402715 
L 160.430837 139.336426 
L 160.430837 139.336426 
L 160.607568 133.303707 
L 160.607568 133.303707 
L 160.784299 117.37103 
L 160.784299 117.37103 
L 160.961029 112.401907 
L 160.961029 112.401907 
L 161.13776 96.663514 
L 161.13776 96.663514 
L 161.314491 94.286731 
L 161.314491 94.286731 
L 161.491222 88.007256 
L 161.491222 88.007256 
L 161.844684 73.126832 
L 161.844684 73.126832 
L 162.021414 65.00379 
L 162.021414 65.00379 
L 162.198145 64.581188 
L 162.198145 64.581188 
L 162.374876 58.249243 
L 162.374876 58.249243 
L 162.551607 59.422035 
L 162.551607 59.422035 
L 162.728338 54.112561 
L 162.728338 54.112561 
L 162.905069 57.405456 
L 162.905069 57.405456 
L 163.081799 53.568 
L 163.081799 53.568 
L 163.25853 58.100339 
L 163.25853 58.100339 
L 163.435261 54.338044 
L 163.435261 54.338044 
L 163.611992 58.817913 
L 163.611992 58.817913 
L 163.788723 54.437313 
L 163.788723 54.437313 
L 163.965454 59.227752 
L 163.965454 59.227752 
L 164.142184 54.322444 
L 164.142184 54.322444 
L 164.318915 59.362474 
L 164.318915 59.362474 
L 164.495646 54.549345 
L 164.495646 54.549345 
L 164.672377 60.340983 
L 164.672377 60.340983 
L 164.849108 55.37895 
L 164.849108 55.37895 
L 165.025839 62.453995 
L 165.025839 62.453995 
L 165.202569 58.788132 
L 165.202569 58.788132 
L 165.3793 68.079711 
L 165.3793 68.079711 
L 165.556031 66.872884 
L 165.556031 66.872884 
L 165.732762 79.202095 
L 165.732762 79.202095 
L 165.909493 79.644551 
L 165.909493 79.644551 
L 166.086224 92.887037 
L 166.086224 92.887037 
L 166.262954 94.595883 
L 166.262954 94.595883 
L 166.616416 118.352375 
L 166.616416 118.352375 
L 166.793147 122.557127 
L 166.793147 122.557127 
L 166.969878 130.841835 
L 166.969878 130.841835 
L 167.146609 133.34625 
L 167.146609 133.34625 
L 167.323339 140.531909 
L 167.323339 140.531909 
L 167.50007 141.123268 
L 167.50007 141.123268 
L 167.676801 146.744731 
L 167.676801 146.744731 
L 167.853532 145.19897 
L 167.853532 145.19897 
L 168.030263 149.474629 
L 168.030263 149.474629 
L 168.206994 147.197114 
L 168.206994 147.197114 
L 168.383724 151.627348 
L 168.383724 151.627348 
L 168.560455 148.842143 
L 168.560455 148.842143 
L 168.737186 153.670872 
L 168.737186 153.670872 
L 168.913917 151.400447 
L 168.913917 151.400447 
L 169.090648 157.326807 
L 169.090648 157.326807 
L 169.267379 155.193942 
L 169.267379 155.193942 
L 169.444109 161.836457 
L 169.444109 161.836457 
L 169.62084 160.256661 
L 169.62084 160.256661 
L 169.797571 167.214001 
L 169.797571 167.214001 
L 169.974302 165.405887 
L 169.974302 165.405887 
L 170.151033 172.225668 
L 170.151033 172.225668 
L 170.327764 169.975098 
L 170.327764 169.975098 
L 170.504494 176.25599 
L 170.504494 176.25599 
L 170.681225 173.302028 
L 170.681225 173.302028 
L 170.857956 179.252496 
L 170.857956 179.252496 
L 171.034687 176.436092 
L 171.034687 176.436092 
L 171.211418 182.488666 
L 171.211418 182.488666 
L 171.388149 180.162935 
L 171.388149 180.162935 
L 171.564879 186.425391 
L 171.564879 186.425391 
L 171.74161 184.664075 
L 171.74161 184.664075 
L 171.918341 190.909514 
L 171.918341 190.909514 
L 172.095072 190.281283 
L 172.095072 190.281283 
L 172.271803 197.242877 
L 172.271803 197.242877 
L 172.448534 197.673988 
L 172.448534 197.673988 
L 172.625265 205.019895 
L 172.625265 205.019895 
L 172.801995 206.56991 
L 172.801995 206.56991 
L 172.978726 214.210787 
L 172.978726 214.210787 
L 173.155457 216.820144 
L 173.155457 216.820144 
L 173.68565 236.194619 
L 173.68565 236.194619 
L 173.86238 240.580891 
L 173.86238 240.580891 
L 174.215842 252.701638 
L 174.215842 252.701638 
L 174.392573 256.115074 
L 174.392573 256.115074 
L 174.746035 268.0387 
L 174.746035 268.0387 
L 175.099496 279.132721 
L 175.099496 279.132721 
L 175.629689 294.400295 
L 175.629689 294.400295 
L 175.80642 295.488 
L 175.80642 295.488 
L 176.513343 280.942254 
L 176.513343 280.942254 
L 176.690074 279.736844 
L 176.690074 279.736844 
L 176.866805 280.11123 
L 177.043535 275.169051 
L 177.043535 275.169051 
L 177.220266 275.339227 
L 177.220266 275.339227 
L 177.396997 271.71449 
L 177.396997 271.71449 
L 177.573728 271.413846 
L 177.573728 271.413846 
L 177.750459 272.44908 
L 177.750459 272.44908 
L 177.92719 267.606171 
L 177.92719 267.606171 
L 178.10392 267.635952 
L 178.10392 267.635952 
L 178.280651 263.656682 
L 178.280651 263.656682 
L 178.457382 262.435673 
L 178.634113 262.169065 
L 178.634113 262.169065 
L 178.810844 256.702179 
L 178.810844 256.702179 
L 179.164305 254.041769 
L 179.164305 254.041769 
L 179.341036 247.443216 
L 179.341036 247.443216 
L 179.694498 243.197339 
L 179.694498 243.197339 
L 180.22469 224.809882 
L 180.22469 224.809882 
L 180.931614 199.002775 
L 180.931614 199.002775 
L 182.522191 138.963458 
L 182.522191 138.963458 
L 182.875653 136.300213 
L 182.875653 136.300213 
L 183.052384 136.264759 
L 183.052384 136.264759 
L 183.229115 137.958005 
L 183.229115 137.958005 
L 183.759307 155.606617 
L 183.759307 155.606617 
L 185.880077 268.959066 
L 185.880077 268.959066 
L 186.233539 277.167195 
L 186.233539 277.167195 
L 186.587001 281.630046 
L 186.587001 281.630046 
L 186.940462 282.845382 
L 186.940462 282.845382 
L 187.293924 281.288277 
L 187.293924 281.288277 
L 187.647386 276.62547 
L 187.647386 276.62547 
L 188.177578 264.459343 
L 188.177578 264.459343 
L 188.884501 240.698596 
L 188.884501 240.698596 
L 190.298348 169.631911 
L 190.298348 169.631911 
L 190.475079 155.500258 
L 190.475079 155.500258 
L 190.65181 154.011222 
L 190.65181 154.011222 
L 190.828541 149.711456 
L 190.828541 149.711456 
L 191.005271 139.927786 
L 191.005271 139.927786 
L 191.182002 137.74245 
L 191.182002 137.74245 
L 191.358733 128.113355 
L 191.358733 128.113355 
L 191.535464 130.422069 
L 191.535464 130.422069 
L 191.712195 123.456221 
L 191.712195 123.456221 
L 191.888926 132.140841 
L 191.888926 132.140841 
L 192.065656 126.818604 
L 192.065656 126.818604 
L 192.419118 150.868649 
L 192.419118 150.868649 
L 192.595849 153.530477 
L 192.595849 153.530477 
L 192.77258 167.466428 
L 192.77258 167.466428 
L 192.949311 167.630931 
L 192.949311 167.630931 
L 193.126041 182.521283 
L 193.126041 182.521283 
L 193.302772 179.225551 
L 193.302772 179.225551 
L 193.656234 203.604603 
L 193.656234 203.604603 
L 193.832965 199.401269 
L 193.832965 199.401269 
L 194.009696 206.28203 
L 194.009696 206.28203 
L 194.186426 195.75526 
L 194.186426 195.75526 
L 194.363157 201.250509 
L 194.363157 201.250509 
L 194.539888 201.185275 
L 194.539888 201.185275 
L 194.716619 191.930567 
L 194.716619 191.930567 
L 194.89335 193.331678 
L 194.89335 193.331678 
L 195.070081 183.216166 
L 195.070081 183.216166 
L 195.246812 188.044894 
L 195.246812 188.044894 
L 195.423542 176.879967 
L 195.423542 176.879967 
L 195.777004 190.394733 
L 195.777004 190.394733 
L 195.953735 187.914426 
L 195.953735 187.914426 
L 196.130466 197.379017 
L 196.130466 197.379017 
L 196.307197 196.974851 
L 196.307197 196.974851 
L 196.660658 220.269033 
L 196.660658 220.269033 
L 196.837389 224.058273 
L 196.837389 224.058273 
L 197.01412 233.372543 
L 197.01412 233.372543 
L 197.190851 232.355745 
L 197.190851 232.355745 
L 197.367582 239.68038 
L 197.367582 239.68038 
L 197.544312 232.280584 
L 197.544312 232.280584 
L 197.721043 237.801359 
L 197.721043 237.801359 
L 197.897774 237.978625 
L 197.897774 237.978625 
L 198.074505 226.86475 
L 198.074505 226.86475 
L 198.251236 225.123288 
L 198.251236 225.123288 
L 198.427967 208.785027 
L 198.427967 208.785027 
L 198.604697 206.422424 
L 198.604697 206.422424 
L 198.781428 199.136079 
L 198.781428 199.136079 
L 199.311621 159.289498 
L 199.311621 159.289498 
L 199.488352 155.162743 
L 199.488352 155.162743 
L 199.665082 137.70416 
L 199.665082 137.70416 
L 199.841813 138.370681 
L 199.841813 138.370681 
L 200.018544 137.494277 
L 200.018544 137.494277 
L 200.195275 131.065899 
L 200.195275 131.065899 
L 200.372006 136.459043 
L 200.372006 136.459043 
L 200.548737 133.611441 
L 200.548737 133.611441 
L 200.725467 144.284277 
L 200.725467 144.284277 
L 200.902198 143.907055 
L 200.902198 143.907055 
L 201.25566 167.741545 
L 201.25566 167.741545 
L 201.432391 172.812773 
L 201.432391 172.812773 
L 201.962583 199.65795 
L 201.962583 199.65795 
L 202.139314 203.742161 
L 202.139314 203.742161 
L 202.492776 218.819706 
L 202.492776 218.819706 
L 203.022968 242.790336 
L 203.022968 242.790336 
L 203.553161 261.828714 
L 203.553161 261.828714 
L 204.436815 284.29471 
L 204.436815 284.29471 
L 204.967007 294.937766 
L 204.967007 294.937766 
L 205.143738 293.329608 
L 205.143738 293.329608 
L 205.320469 290.504696 
L 205.320469 290.504696 
L 205.4972 295.488 
L 205.4972 295.488 
L 205.673931 287.503935 
L 205.673931 287.503935 
L 205.850662 285.243438 
L 205.850662 285.243438 
L 206.027392 284.830763 
L 206.027392 284.830763 
L 206.204123 283.605499 
L 206.204123 283.605499 
L 206.380854 283.870689 
L 206.557585 283.199914 
L 206.557585 283.199914 
L 206.734316 283.507648 
L 206.734316 283.507648 
L 206.911047 284.169915 
L 206.911047 284.169915 
L 207.087778 283.144607 
L 207.087778 283.144607 
L 207.264508 283.328964 
L 207.264508 283.328964 
L 207.441239 282.185952 
L 207.441239 282.185952 
L 207.61797 295.488 
L 207.61797 295.488 
L 207.794701 280.913891 
L 207.794701 280.913891 
L 209.562009 256.635527 
L 209.562009 256.635527 
L 210.799125 231.026958 
L 210.799125 231.026958 
L 211.506048 219.677674 
L 211.506048 219.677674 
L 212.036241 214.885817 
L 212.036241 214.885817 
L 212.389703 213.910144 
L 212.389703 213.910144 
L 212.566433 213.931416 
L 212.566433 213.931416 
L 212.743164 213.188317 
L 212.743164 213.188317 
L 212.919895 213.345729 
L 212.919895 213.345729 
L 213.096626 213.895963 
L 213.096626 213.895963 
L 213.450088 215.919633 
L 213.450088 215.919633 
L 213.626818 215.950831 
L 213.626818 215.950831 
L 213.98028 218.88494 
L 213.98028 218.88494 
L 215.747588 236.323669 
L 215.747588 236.323669 
L 215.924319 237.546096 
L 215.924319 237.546096 
L 216.10105 236.988771 
L 216.10105 236.988771 
L 216.454512 238.633801 
L 216.454512 238.633801 
L 216.631243 239.798084 
L 216.631243 239.798084 
L 216.807973 239.402426 
L 217.161435 242.296827 
L 217.161435 242.296827 
L 217.338166 244.718991 
L 217.338166 244.718991 
L 217.514897 245.530161 
L 217.514897 245.530161 
L 218.045089 255.143655 
L 218.045089 255.143655 
L 218.752013 273.72256 
L 218.752013 273.72256 
L 219.282205 290.274959 
L 219.282205 290.274959 
L 219.458936 294.302444 
L 219.458936 294.302444 
L 221.049514 252.572588 
L 221.049514 252.572588 
L 221.579706 242.262792 
L 221.579706 242.262792 
L 221.756437 238.181418 
L 221.756437 238.181418 
L 221.933168 237.659546 
L 221.933168 237.659546 
L 222.109899 234.681476 
L 222.109899 234.681476 
L 222.286629 235.040262 
L 222.286629 235.040262 
L 222.46336 233.425014 
L 222.46336 233.425014 
L 222.640091 230.142046 
L 222.640091 230.142046 
L 222.816822 234.2844 
L 222.816822 234.2844 
L 222.993553 232.072119 
L 222.993553 232.072119 
L 223.170284 235.667075 
L 223.170284 235.667075 
L 223.347014 233.052046 
L 223.523745 236.047134 
L 223.523745 236.047134 
L 223.700476 233.399487 
L 223.700476 233.399487 
L 223.877207 235.41323 
L 223.877207 235.41323 
L 224.053938 232.667733 
L 224.053938 232.667733 
L 224.230669 233.978084 
L 224.230669 233.978084 
L 224.407399 231.770058 
L 224.407399 231.770058 
L 224.58413 226.617996 
L 224.58413 226.617996 
L 224.760861 231.40418 
L 224.760861 231.40418 
L 224.937592 226.905876 
L 224.937592 226.905876 
L 225.114323 231.33611 
L 225.114323 231.33611 
L 225.291054 227.21361 
L 225.291054 227.21361 
L 225.467784 231.26804 
L 225.467784 231.26804 
L 225.644515 227.674502 
L 225.644515 227.674502 
L 225.821246 231.439634 
L 225.821246 231.439634 
L 225.997977 228.733844 
L 225.997977 228.733844 
L 226.174708 232.318873 
L 226.174708 232.318873 
L 226.351439 230.412908 
L 226.351439 230.412908 
L 226.528169 233.741257 
L 226.528169 233.741257 
L 226.7049 232.500394 
L 226.7049 232.500394 
L 226.881631 235.323888 
L 226.881631 235.323888 
L 227.058362 234.475847 
L 227.058362 234.475847 
L 227.235093 230.590174 
L 227.235093 230.590174 
L 227.411824 236.712236 
L 227.411824 236.712236 
L 227.588554 233.03361 
L 227.588554 233.03361 
L 227.765285 238.768523 
L 227.765285 238.768523 
L 227.942016 235.009064 
L 227.942016 235.009064 
L 228.118747 240.535511 
L 228.118747 240.535511 
L 228.295478 238.133201 
L 228.295478 238.133201 
L 228.472209 243.563216 
L 228.472209 243.563216 
L 228.648939 242.61307 
L 228.648939 242.61307 
L 228.82567 247.643173 
L 228.82567 247.643173 
L 229.002401 247.719751 
L 229.002401 247.719751 
L 229.179132 252.210965 
L 229.179132 252.210965 
L 229.355863 252.951228 
L 229.355863 252.951228 
L 229.532594 251.350161 
L 229.709324 258.518802 
L 229.709324 258.518802 
L 229.886055 257.355936 
L 229.886055 257.355936 
L 230.062786 263.782896 
L 230.062786 263.782896 
L 230.239517 263.563086 
L 230.239517 263.563086 
L 230.416248 270.140367 
L 230.592979 271.832194 
L 230.592979 271.832194 
L 231.123171 290.389827 
L 231.123171 290.389827 
L 231.299902 295.488 
L 231.299902 295.488 
L 231.476633 289.236889 
L 231.476633 289.236889 
L 232.183556 251.412559 
L 232.183556 251.412559 
L 233.243941 194.606576 
L 233.243941 194.606576 
L 233.774134 179.415581 
L 233.774134 179.415581 
L 233.950865 177.160756 
L 233.950865 177.160756 
L 234.127595 176.468709 
L 234.127595 176.468709 
L 234.304326 177.984689 
L 234.304326 177.984689 
L 235.01125 226.218084 
L 235.01125 226.218084 
L 235.718173 294.913658 
L 235.718173 294.913658 
L 236.425096 239.972514 
L 236.425096 239.972514 
L 236.955289 215.516884 
L 236.955289 215.516884 
L 237.30875 204.259778 
L 237.30875 204.259778 
L 238.015674 191.788754 
L 238.015674 191.788754 
L 239.42952 175.744045 
L 239.42952 175.744045 
L 239.782982 169.136984 
L 239.782982 169.136984 
L 240.489905 160.964308 
L 240.489905 160.964308 
L 240.666636 160.917509 
L 240.666636 160.917509 
L 240.843367 162.105901 
L 240.843367 162.105901 
L 241.55029 171.937788 
L 241.55029 171.937788 
L 242.080483 180.535902 
L 242.080483 180.535902 
L 242.610676 191.272555 
L 242.610676 191.272555 
L 243.317599 210.658375 
L 243.317599 210.658375 
L 244.201253 245.131667 
L 244.201253 245.131667 
L 244.554715 256.312194 
L 244.554715 256.312194 
L 244.908176 267.389197 
L 244.908176 267.389197 
L 245.438369 283.716113 
L 245.438369 283.716113 
L 245.6151 284.945631 
L 245.6151 284.945631 
L 245.968561 292.8205 
L 245.968561 292.8205 
L 246.145292 293.864243 
L 246.145292 293.864243 
L 246.322023 293.712503 
L 246.498754 290.036713 
L 246.498754 290.036713 
L 246.675485 288.899374 
L 246.675485 288.899374 
L 247.382408 273.409154 
L 247.382408 273.409154 
L 248.442793 239.433625 
L 248.442793 239.433625 
L 248.796255 230.005905 
L 248.796255 230.005905 
L 248.972986 223.95475 
L 248.972986 223.95475 
L 249.149716 222.987586 
L 249.149716 222.987586 
L 249.503178 213.86051 
L 249.503178 213.86051 
L 249.679909 216.454267 
L 249.679909 216.454267 
L 250.033371 212.330349 
L 250.033371 212.330349 
L 250.210101 218.835305 
L 250.210101 218.835305 
L 250.386832 219.670583 
L 250.386832 219.670583 
L 250.563563 219.707454 
L 250.563563 219.707454 
L 250.740294 228.508361 
L 250.740294 228.508361 
L 250.917025 230.855365 
L 250.917025 230.855365 
L 251.270486 242.57478 
L 251.270486 242.57478 
L 251.447217 245.793933 
L 251.800679 259.044928 
L 251.800679 259.044928 
L 251.97741 262.641302 
L 251.97741 262.641302 
L 252.330871 276.070981 
L 252.330871 276.070981 
L 252.507602 279.237663 
L 252.507602 279.237663 
L 252.861064 292.02493 
L 252.861064 292.02493 
L 253.037795 292.287283 
L 253.037795 292.287283 
L 254.451642 258.001185 
L 254.451642 258.001185 
L 254.805103 246.756842 
L 254.805103 246.756842 
L 254.981834 243.387368 
L 254.981834 243.387368 
L 255.335296 231.788493 
L 255.335296 231.788493 
L 255.512027 227.915584 
L 255.512027 227.915584 
L 255.865488 216.693931 
L 255.865488 216.693931 
L 256.042219 213.608083 
L 256.042219 213.608083 
L 256.395681 204.666781 
L 256.395681 204.666781 
L 256.572412 202.733872 
L 256.572412 202.733872 
L 256.749142 198.295129 
L 256.749142 198.295129 
L 257.456066 193.369968 
L 257.456066 193.369968 
L 257.632797 193.677701 
L 257.632797 193.677701 
L 257.809527 194.551269 
L 257.809527 194.551269 
L 257.986258 193.067906 
L 257.986258 193.067906 
L 258.33972 194.443491 
L 258.33972 194.443491 
L 258.516451 193.15583 
L 258.516451 193.15583 
L 258.693182 192.747409 
L 258.693182 192.747409 
L 259.046643 190.857043 
L 259.046643 190.857043 
L 260.813952 163.507012 
L 260.813952 163.507012 
L 261.167413 161.005433 
L 261.167413 161.005433 
L 261.344144 160.585667 
L 261.344144 160.585667 
L 261.520875 160.76577 
L 261.520875 160.76577 
L 261.697606 161.301822 
L 261.697606 161.301822 
L 262.051067 164.8202 
L 262.051067 164.8202 
L 262.404529 171.183343 
L 262.404529 171.183343 
L 262.934722 185.570259 
L 262.934722 185.570259 
L 264.70203 248.803202 
L 264.70203 248.803202 
L 265.408953 270.663656 
L 265.408953 270.663656 
L 266.292608 295.488 
L 266.292608 295.488 
L 266.469338 290.655017 
L 266.469338 290.655017 
L 266.8228 293.516801 
L 266.8228 293.516801 
L 266.999531 294.258482 
L 266.999531 294.258482 
L 267.176262 295.488 
L 267.176262 295.488 
L 267.352993 295.08667 
L 267.352993 295.08667 
L 267.529723 295.282371 
L 267.529723 295.282371 
L 267.883185 294.491055 
L 267.883185 294.491055 
L 268.059916 295.488 
L 268.236647 293.399096 
L 268.236647 293.399096 
L 268.590108 291.775339 
L 268.590108 291.775339 
L 268.766839 290.782649 
L 268.766839 290.782649 
L 268.94357 295.488 
L 268.94357 295.488 
L 269.120301 288.271143 
L 269.120301 288.271143 
L 271.06434 270.277925 
L 271.06434 270.277925 
L 272.478187 251.876287 
L 272.478187 251.876287 
L 272.654918 251.121842 
L 272.654918 251.121842 
L 272.831648 251.178567 
L 272.831648 251.178567 
L 273.18511 254.084313 
L 273.18511 254.084313 
L 273.538572 259.226448 
L 273.538572 259.226448 
L 273.892033 267.502647 
L 273.892033 267.502647 
L 274.598957 287.969081 
L 274.598957 287.969081 
L 274.775688 294.244301 
L 274.775688 294.244301 
L 274.952418 290.991114 
L 274.952418 290.991114 
L 275.129149 295.488 
L 275.129149 295.488 
L 275.30588 279.870148 
L 275.30588 279.870148 
L 276.189534 256.194489 
L 276.189534 256.194489 
L 276.719727 247.536813 
L 276.719727 247.536813 
L 277.073188 245.023889 
L 277.073188 245.023889 
L 277.249919 244.589941 
L 277.249919 244.589941 
L 277.42665 245.06076 
L 277.42665 245.06076 
L 277.780112 248.901053 
L 277.780112 248.901053 
L 278.133574 255.835702 
L 278.133574 255.835702 
L 278.663766 271.470572 
L 278.663766 271.470572 
L 279.370689 293.776319 
L 279.370689 293.776319 
L 279.900882 276.730411 
L 279.900882 276.730411 
L 280.431074 267.183568 
L 280.431074 267.183568 
L 280.784536 265.110264 
L 280.784536 265.110264 
L 281.137998 265.802311 
L 281.137998 265.802311 
L 281.491459 267.133934 
L 281.491459 267.133934 
L 281.66819 267.713949 
L 281.66819 267.713949 
L 282.021652 267.278583 
L 282.021652 267.278583 
L 282.375114 265.029431 
L 282.375114 265.029431 
L 282.728575 258.791083 
L 282.728575 258.791083 
L 283.258768 240.372426 
L 283.258768 240.372426 
L 283.965691 206.21396 
L 283.965691 206.21396 
L 284.672614 161.623738 
L 284.672614 161.623738 
L 284.849345 156.447568 
L 284.849345 156.447568 
L 285.026076 143.212172 
L 285.026076 143.212172 
L 285.379538 149.558298 
L 285.379538 149.558298 
L 285.556269 145.990286 
L 285.556269 145.990286 
L 285.732999 156.094454 
L 285.90973 151.36074 
L 285.90973 151.36074 
L 286.263192 177.162174 
L 286.263192 177.162174 
L 286.439923 175.83906 
L 286.439923 175.83906 
L 286.616654 186.387102 
L 286.616654 186.387102 
L 286.793384 177.906692 
L 286.793384 177.906692 
L 286.970115 186.571458 
L 286.970115 186.571458 
L 287.146846 187.602438 
L 287.146846 187.602438 
L 287.323577 175.155522 
L 287.323577 175.155522 
L 287.500308 174.206794 
L 287.500308 174.206794 
L 287.677039 154.09631 
L 287.677039 154.09631 
L 287.853769 153.4071 
L 287.853769 153.4071 
L 288.0305 147.572918 
L 288.0305 147.572918 
L 288.207231 130.329891 
L 288.207231 130.329891 
L 288.383962 129.642098 
L 288.383962 129.642098 
L 288.560693 113.86967 
L 288.560693 113.86967 
L 288.914155 124.478691 
L 288.914155 124.478691 
L 289.090885 119.81872 
L 289.090885 119.81872 
L 289.267616 128.51185 
L 289.267616 128.51185 
L 289.444347 124.142595 
L 289.444347 124.142595 
L 289.797809 141.457947 
L 289.797809 141.457947 
L 289.97454 136.510096 
L 289.97454 136.510096 
L 290.15127 142.379731 
L 290.15127 142.379731 
L 290.328001 143.241953 
L 290.328001 143.241953 
L 290.504732 133.988663 
L 290.504732 133.988663 
L 290.681463 134.235417 
L 290.858194 117.65182 
L 290.858194 117.65182 
L 291.034925 119.676908 
L 291.034925 119.676908 
L 291.211655 117.251907 
L 291.211655 117.251907 
L 291.388386 104.390898 
L 291.388386 104.390898 
L 291.565117 105.733866 
L 291.565117 105.733866 
L 291.741848 91.30866 
L 291.741848 91.30866 
L 292.09531 101.516351 
L 292.09531 101.516351 
L 292.27204 94.804348 
L 292.27204 94.804348 
L 292.448771 102.825284 
L 292.448771 102.825284 
L 292.625502 95.275166 
L 292.625502 95.275166 
L 292.978964 119.892463 
L 292.978964 119.892463 
L 293.155695 122.247975 
L 293.155695 122.247975 
L 293.332425 137.56802 
L 293.332425 137.56802 
L 293.509156 140.0384 
L 293.509156 140.0384 
L 293.862618 169.034878 
L 293.862618 169.034878 
L 294.039349 175.800771 
L 294.039349 175.800771 
L 294.569541 208.117088 
L 294.569541 208.117088 
L 295.099734 233.931286 
L 295.099734 233.931286 
L 296.33685 268.81158 
L 296.33685 268.81158 
L 296.51358 269.689402 
L 296.51358 269.689402 
L 296.690311 272.83623 
L 296.690311 272.83623 
L 296.867042 272.217925 
L 296.867042 272.217925 
L 297.043773 274.516712 
L 297.043773 274.516712 
L 297.220504 275.091054 
L 297.220504 275.091054 
L 297.397235 273.187926 
L 297.397235 273.187926 
L 297.573965 272.847575 
L 297.573965 272.847575 
L 297.750696 269.892194 
L 297.750696 269.892194 
L 297.927427 269.032808 
L 297.927427 269.032808 
L 298.104158 265.226551 
L 298.104158 265.226551 
L 298.280889 264.24946 
L 298.280889 264.24946 
L 298.45762 260.314153 
L 298.45762 260.314153 
L 298.63435 259.71003 
L 298.63435 259.71003 
L 298.811081 256.05693 
L 298.811081 256.05693 
L 298.987812 256.214343 
L 298.987812 256.214343 
L 299.164543 253.268889 
L 299.164543 253.268889 
L 299.341274 254.007734 
L 299.341274 254.007734 
L 299.518005 251.440921 
L 299.518005 251.440921 
L 299.694735 252.721492 
L 299.694735 252.721492 
L 299.871466 250.356053 
L 299.871466 250.356053 
L 300.048197 251.849342 
L 300.048197 251.849342 
L 300.224928 249.576082 
L 300.224928 249.576082 
L 300.401659 250.85098 
L 300.401659 250.85098 
L 300.57839 248.821638 
L 300.57839 248.821638 
L 300.755121 250.244021 
L 300.755121 250.244021 
L 300.931851 248.78193 
L 300.931851 248.78193 
L 301.108582 245.230936 
L 301.108582 245.230936 
L 301.285313 250.339035 
L 301.285313 250.339035 
L 301.462044 248.625936 
L 301.462044 248.625936 
L 301.638775 254.299869 
L 301.638775 254.299869 
L 301.815506 254.289942 
L 301.815506 254.289942 
L 302.168967 264.260805 
L 302.168967 264.260805 
L 302.345698 266.145498 
L 302.345698 266.145498 
L 302.69916 286.953701 
L 302.69916 286.953701 
L 302.875891 288.75047 
L 302.875891 288.75047 
L 303.229352 265.355601 
L 303.229352 265.355601 
L 303.936276 200.419485 
L 303.936276 200.419485 
L 304.466468 161.389746 
L 304.466468 161.389746 
L 304.996661 139.747684 
L 304.996661 139.747684 
L 305.350122 129.237931 
L 305.350122 129.237931 
L 305.526853 130.453268 
L 305.526853 130.453268 
L 305.703584 126.629993 
L 305.703584 126.629993 
L 305.880315 129.206733 
L 306.057046 125.821659 
L 306.057046 125.821659 
L 306.233776 128.768531 
L 306.233776 128.768531 
L 306.410507 125.2147 
L 306.410507 125.2147 
L 306.587238 127.730461 
L 306.587238 127.730461 
L 306.763969 123.271864 
L 306.763969 123.271864 
L 306.9407 124.85875 
L 307.117431 119.352156 
L 307.117431 119.352156 
L 307.294161 120.339174 
L 307.294161 120.339174 
L 307.470892 114.329144 
L 307.470892 114.329144 
L 307.647623 115.270782 
L 307.647623 115.270782 
L 307.824354 109.066468 
L 307.824354 109.066468 
L 308.001085 110.467579 
L 308.001085 110.467579 
L 308.177816 104.410752 
L 308.177816 104.410752 
L 308.354546 107.481 
L 308.354546 107.481 
L 308.531277 102.891936 
L 308.531277 102.891936 
L 308.708008 108.343223 
L 308.884739 106.485474 
L 308.884739 106.485474 
L 309.06147 115.232492 
L 309.06147 115.232492 
L 309.238201 115.195621 
L 309.238201 115.195621 
L 309.591662 133.412902 
L 309.591662 133.412902 
L 309.768393 138.237376 
L 309.768393 138.237376 
L 309.945124 146.22995 
L 309.945124 146.22995 
L 310.121855 148.971193 
L 310.121855 148.971193 
L 310.298586 155.332918 
L 310.298586 155.332918 
L 310.475316 155.113108 
L 310.475316 155.113108 
L 310.652047 160.099249 
L 310.652047 160.099249 
L 310.828778 157.017655 
L 310.828778 157.017655 
L 311.005509 162.702933 
L 311.005509 162.702933 
L 311.18224 156.239103 
L 311.18224 156.239103 
L 311.535701 165.230039 
L 311.535701 165.230039 
L 311.712432 161.783986 
L 311.712432 161.783986 
L 311.889163 166.337597 
L 311.889163 166.337597 
L 312.065894 162.06903 
L 312.065894 162.06903 
L 312.242625 169.220653 
L 312.242625 169.220653 
L 312.419356 165.7746 
L 312.419356 165.7746 
L 312.596087 177.05156 
L 312.596087 177.05156 
L 312.772817 173.72463 
L 312.772817 173.72463 
L 313.126279 194.257716 
L 313.126279 194.257716 
L 313.30301 192.833915 
L 313.30301 192.833915 
L 313.479741 199.971357 
L 313.656472 195.166737 
L 313.656472 195.166737 
L 313.833202 202.882775 
L 313.833202 202.882775 
L 314.009933 196.660026 
L 314.009933 196.660026 
L 314.363395 210.10105 
L 314.363395 210.10105 
L 314.540126 207.317264 
L 314.540126 207.317264 
L 314.716857 212.561504 
L 314.716857 212.561504 
L 314.893587 209.023273 
L 314.893587 209.023273 
L 315.070318 217.186022 
L 315.070318 217.186022 
L 315.247049 213.412381 
L 315.247049 213.412381 
L 315.42378 223.681051 
L 315.600511 218.589969 
L 315.600511 218.589969 
L 315.953972 236.160584 
L 315.953972 236.160584 
L 316.130703 234.790672 
L 316.130703 234.790672 
L 316.307434 241.699795 
L 316.307434 241.699795 
L 316.484165 237.919064 
L 316.484165 237.919064 
L 316.660896 244.53038 
L 316.837627 238.426754 
L 316.837627 238.426754 
L 317.014357 244.093596 
L 317.014357 244.093596 
L 317.191088 244.884912 
L 317.191088 244.884912 
L 317.367819 239.754122 
L 317.367819 239.754122 
L 317.54455 240.426315 
L 317.54455 240.426315 
L 317.721281 234.090116 
L 317.721281 234.090116 
L 317.898012 235.89114 
L 317.898012 235.89114 
L 318.074742 230.018669 
L 318.074742 230.018669 
L 318.251473 233.229312 
L 318.251473 233.229312 
L 318.428204 227.802133 
L 318.428204 227.802133 
L 318.781666 234.416286 
L 318.781666 234.416286 
L 318.958397 233.698713 
L 318.958397 233.698713 
L 319.135127 236.856885 
L 319.135127 236.856885 
L 319.311858 236.468318 
L 319.311858 236.468318 
L 319.488589 239.727178 
L 319.488589 239.727178 
L 319.66532 239.423698 
L 319.66532 239.423698 
L 319.842051 242.423041 
L 319.842051 242.423041 
L 320.018782 241.153815 
L 320.018782 241.153815 
L 320.195512 243.122178 
L 320.195512 243.122178 
L 320.372243 240.291593 
L 320.372243 240.291593 
L 320.548974 241.031856 
L 320.548974 241.031856 
L 320.725705 236.312324 
L 320.725705 236.312324 
L 320.902436 235.737982 
L 320.902436 235.737982 
L 321.079167 229.315277 
L 321.255897 228.682791 
L 321.255897 228.682791 
L 321.432628 221.370919 
L 321.432628 221.370919 
L 321.609359 221.359574 
L 321.609359 221.359574 
L 321.78609 214.324238 
L 321.78609 214.324238 
L 321.962821 215.494194 
L 321.962821 215.494194 
L 322.139552 209.633068 
L 322.139552 209.633068 
L 322.316282 212.319004 
L 322.316282 212.319004 
L 322.493013 207.796591 
L 322.493013 207.796591 
L 322.669744 211.856694 
L 322.669744 211.856694 
L 322.846475 209.404749 
L 322.846475 209.404749 
L 323.023206 215.146752 
L 323.023206 215.146752 
L 323.199937 214.643317 
L 323.199937 214.643317 
L 323.376667 221.689998 
L 323.376667 221.689998 
L 323.553398 223.174779 
L 323.553398 223.174779 
L 324.083591 244.011345 
L 324.083591 244.011345 
L 324.260322 249.44136 
L 324.260322 249.44136 
L 325.143976 294.637123 
L 325.143976 294.637123 
L 325.850899 250.659532 
L 325.850899 250.659532 
L 326.734553 209.079998 
L 326.734553 209.079998 
L 327.264746 196.329602 
L 327.264746 196.329602 
L 327.618208 192.622614 
L 327.618208 192.622614 
L 327.794938 192.303535 
L 327.794938 192.303535 
L 327.971669 192.984236 
L 327.971669 192.984236 
L 328.1484 194.617921 
L 328.1484 194.617921 
L 328.501862 201.230655 
L 328.501862 201.230655 
L 328.855323 212.351621 
L 328.855323 212.351621 
L 329.385516 239.369809 
L 329.385516 239.369809 
L 330.092439 293.672795 
L 330.092439 293.672795 
L 330.445901 268.130878 
L 330.445901 268.130878 
L 330.976093 230.256914 
L 330.976093 230.256914 
L 331.683017 209.155159 
L 331.683017 209.155159 
L 331.859748 209.573507 
L 331.859748 209.573507 
L 332.036478 207.812191 
L 332.036478 207.812191 
L 332.213209 203.501079 
L 332.213209 203.501079 
L 332.38994 209.535217 
L 332.38994 209.535217 
L 332.566671 206.144471 
L 332.743402 211.485144 
L 332.743402 211.485144 
L 332.920133 208.321299 
L 332.920133 208.321299 
L 333.096863 212.781314 
L 333.096863 212.781314 
L 333.273594 210.007454 
L 333.273594 210.007454 
L 333.450325 213.633609 
L 333.450325 213.633609 
L 333.627056 211.41991 
L 333.627056 211.41991 
L 333.803787 214.324238 
L 333.803787 214.324238 
L 333.980518 212.652264 
L 333.980518 212.652264 
L 334.157248 214.524194 
L 334.157248 214.524194 
L 334.333979 212.933053 
L 334.333979 212.933053 
L 334.51071 208.69143 
L 334.51071 208.69143 
L 334.687441 211.331986 
L 334.687441 211.331986 
L 334.864172 205.93317 
L 334.864172 205.93317 
L 335.040903 208.332644 
L 335.040903 208.332644 
L 335.217633 202.705509 
L 335.217633 202.705509 
L 335.394364 204.690889 
L 335.394364 204.690889 
L 335.571095 198.520611 
L 335.571095 198.520611 
L 335.747826 200.510246 
L 335.747826 200.510246 
L 335.924557 194.651956 
L 335.924557 194.651956 
L 336.101288 196.892599 
L 336.101288 196.892599 
L 336.278019 191.808608 
L 336.278019 191.808608 
L 336.454749 194.748389 
L 336.454749 194.748389 
L 336.63148 191.021546 
L 336.63148 191.021546 
L 336.808211 194.877438 
L 336.808211 194.877438 
L 336.984942 193.430947 
L 336.984942 193.430947 
L 337.161673 198.480903 
L 337.161673 198.480903 
L 337.338404 199.467921 
L 337.338404 199.467921 
L 337.515134 197.539266 
L 337.515134 197.539266 
L 337.691865 208.943857 
L 337.691865 208.943857 
L 337.868596 209.651504 
L 337.868596 209.651504 
L 338.045327 221.583639 
L 338.045327 221.583639 
L 338.222058 224.205759 
L 338.222058 224.205759 
L 338.75225 254.401974 
L 338.75225 254.401974 
L 338.928981 261.477018 
L 338.928981 261.477018 
L 339.459174 293.705412 
L 339.459174 293.705412 
L 339.635904 295.488 
L 339.635904 295.488 
L 339.989366 258.42946 
L 339.989366 258.42946 
L 341.049751 192.641049 
L 341.049751 192.641049 
L 341.579944 182.095844 
L 341.579944 182.095844 
L 341.756674 179.399981 
L 341.756674 179.399981 
L 341.933405 180.747204 
L 341.933405 180.747204 
L 342.110136 180.294821 
L 342.110136 180.294821 
L 342.286867 178.303768 
L 342.286867 178.303768 
L 342.463598 184.059952 
L 342.463598 184.059952 
L 342.640329 183.028973 
L 342.640329 183.028973 
L 342.817059 188.317175 
L 342.817059 188.317175 
L 342.99379 187.735742 
L 342.99379 187.735742 
L 343.170521 192.146122 
L 343.170521 192.146122 
L 343.347252 191.797263 
L 343.347252 191.797263 
L 343.523983 187.749923 
L 343.523983 187.749923 
L 343.700714 194.660465 
L 343.877444 191.618579 
L 343.877444 191.618579 
L 344.054175 198.353272 
L 344.054175 198.353272 
L 344.230906 196.963506 
L 344.230906 196.963506 
L 344.407637 204.448389 
L 344.407637 204.448389 
L 344.584368 206.884734 
L 344.584368 206.884734 
L 344.761099 206.090582 
L 344.761099 206.090582 
L 345.291291 256.214343 
L 345.291291 256.214343 
L 345.644753 294.91933 
L 345.644753 294.91933 
L 346.351676 203.693945 
L 346.351676 203.693945 
L 347.058599 116.097551 
L 347.058599 116.097551 
L 347.412061 86.949332 
L 347.412061 86.949332 
L 347.765523 65.76958 
L 347.765523 65.76958 
L 347.942254 72.772299 
L 347.942254 72.772299 
L 348.118985 73.516817 
L 348.118985 73.516817 
L 351.123409 289.443935 
L 351.123409 289.443935 
L 351.30014 287.980426 
L 351.30014 287.980426 
L 351.47687 282.8624 
L 351.47687 282.8624 
L 351.653601 272.413627 
L 351.653601 272.413627 
L 351.830332 269.100879 
L 352.007063 261.996054 
L 352.007063 261.996054 
L 352.183794 260.559489 
L 352.183794 260.559489 
L 352.360525 256.522077 
L 352.360525 256.522077 
L 352.537255 256.317866 
L 352.537255 256.317866 
L 352.713986 259.093144 
L 352.713986 259.093144 
L 352.890717 255.675454 
L 353.067448 258.999548 
L 353.067448 258.999548 
L 353.244179 256.843992 
L 353.244179 256.843992 
L 353.42091 260.430439 
L 353.42091 260.430439 
L 353.59764 259.59658 
L 353.59764 259.59658 
L 353.774371 262.388875 
L 353.774371 262.388875 
L 353.951102 267.217604 
L 353.951102 267.217604 
L 354.127833 263.083758 
L 354.127833 263.083758 
L 354.304564 266.451814 
L 354.304564 266.451814 
L 354.481295 262.715045 
L 354.481295 262.715045 
L 354.658025 264.904636 
L 354.658025 264.904636 
L 354.834756 261.743627 
L 354.834756 261.743627 
L 355.011487 263.198627 
L 355.011487 263.198627 
L 355.188218 260.87715 
L 355.188218 260.87715 
L 355.364949 261.305425 
L 355.364949 261.305425 
L 355.54168 263.83253 
L 355.54168 263.83253 
L 355.71841 259.661814 
L 355.71841 259.661814 
L 355.895141 261.448656 
L 355.895141 261.448656 
L 356.071872 258.174197 
L 356.071872 258.174197 
L 356.248603 258.713085 
L 356.248603 258.713085 
L 356.425334 260.925366 
L 356.425334 260.925366 
L 356.602065 255.604547 
L 356.602065 255.604547 
L 356.778795 256.758904 
L 356.778795 256.758904 
L 356.955526 252.334342 
L 356.955526 252.334342 
L 357.132257 252.469065 
L 357.132257 252.469065 
L 357.308988 249.040029 
L 357.485719 248.479869 
L 357.485719 248.479869 
L 357.66245 248.91807 
L 357.66245 248.91807 
L 357.83918 244.595614 
L 357.83918 244.595614 
L 358.015911 244.372968 
L 358.015911 244.372968 
L 358.192642 241.444532 
L 358.192642 241.444532 
L 358.369373 241.02902 
L 358.369373 241.02902 
L 358.546104 241.531038 
L 358.546104 241.531038 
L 358.722835 238.859283 
L 358.722835 238.859283 
L 358.899565 239.817938 
L 358.899565 239.817938 
L 359.076296 239.578274 
L 359.076296 239.578274 
L 359.253027 241.787719 
L 359.253027 241.787719 
L 360.136681 262.496653 
L 360.136681 262.496653 
L 360.490143 272.250542 
L 360.490143 272.250542 
L 360.843605 283.462268 
L 360.843605 283.462268 
L 361.020336 284.679023 
L 361.020336 284.679023 
L 361.197066 295.488 
L 361.197066 295.488 
L 361.550528 292.248994 
L 361.550528 292.248994 
L 361.727259 294.66974 
L 361.727259 294.66974 
L 361.90399 293.372152 
L 361.90399 293.372152 
L 362.257451 295.463892 
L 362.257451 295.463892 
L 362.610913 292.500003 
L 362.610913 292.500003 
L 362.787644 292.558146 
L 362.787644 292.558146 
L 362.964375 293.376406 
L 362.964375 293.376406 
L 363.141106 287.99319 
L 363.141106 287.99319 
L 363.317836 287.170675 
L 363.317836 287.170675 
L 363.494567 287.09835 
L 363.494567 287.09835 
L 363.671298 280.631683 
L 363.671298 280.631683 
L 364.02476 277.561435 
L 364.02476 277.561435 
L 364.378221 266.456068 
L 364.378221 266.456068 
L 364.554952 263.028451 
L 364.554952 263.028451 
L 364.908414 248.055848 
L 364.908414 248.055848 
L 365.085145 242.614488 
L 365.085145 242.614488 
L 365.438606 225.828098 
L 365.438606 225.828098 
L 366.14553 197.454178 
L 366.14553 197.454178 
L 366.675722 176.699864 
L 366.675722 176.699864 
L 368.443031 123.7597 
L 368.443031 123.7597 
L 368.796492 118.390665 
L 368.796492 118.390665 
L 369.149954 116.449246 
L 369.149954 116.449246 
L 369.326685 116.764071 
L 369.326685 116.764071 
L 369.503416 118.003516 
L 369.503416 118.003516 
L 369.856877 123.58527 
L 369.856877 123.58527 
L 370.38707 139.004584 
L 370.38707 139.004584 
L 371.093993 170.114074 
L 371.093993 170.114074 
L 373.568225 285.675967 
L 373.568225 285.675967 
L 373.921687 295.263936 
L 373.921687 295.263936 
L 374.275148 288.34914 
L 374.275148 288.34914 
L 374.451879 295.488 
L 374.451879 295.488 
L 374.62861 284.717312 
L 374.62861 284.717312 
L 374.805341 283.998321 
L 374.805341 283.998321 
L 374.982072 283.757239 
L 374.982072 283.757239 
L 375.158802 283.916069 
L 375.158802 283.916069 
L 375.335533 295.488 
L 375.335533 295.488 
L 375.512264 285.019374 
L 375.512264 285.019374 
L 376.042457 286.599169 
L 376.042457 286.599169 
L 376.219187 295.488 
L 376.219187 295.488 
L 376.395918 286.002137 
L 376.395918 286.002137 
L 376.926111 282.790075 
L 376.926111 282.790075 
L 377.809765 276.675104 
L 377.809765 276.675104 
L 378.339957 274.901025 
L 378.339957 274.901025 
L 378.693419 274.910952 
L 378.693419 274.910952 
L 379.046881 274.735104 
L 379.046881 274.735104 
L 379.577073 273.770776 
L 379.577073 273.770776 
L 379.930535 271.718744 
L 379.930535 271.718744 
L 380.814189 265.113101 
L 380.814189 265.113101 
L 380.99092 264.611083 
L 380.99092 264.611083 
L 381.167651 264.545849 
L 381.167651 264.545849 
L 381.344382 264.606829 
L 381.344382 264.606829 
L 381.521112 264.93158 
L 381.521112 264.93158 
L 381.874574 266.222077 
L 381.874574 266.222077 
L 382.404767 269.333452 
L 382.404767 269.333452 
L 383.995344 283.080792 
L 383.995344 283.080792 
L 384.172075 295.488 
L 384.172075 295.488 
L 384.348806 288.334959 
L 384.348806 288.334959 
L 384.702268 293.75221 
L 384.702268 293.75221 
L 385.055729 295.488 
L 385.055729 295.488 
L 385.409191 286.410558 
L 385.409191 286.410558 
L 386.292845 273.694198 
L 386.292845 273.694198 
L 386.646307 270.496317 
L 386.646307 270.496317 
L 386.999768 269.235601 
L 386.999768 269.235601 
L 387.176499 269.326361 
L 387.176499 269.326361 
L 387.529961 270.374358 
L 387.529961 270.374358 
L 387.883423 272.385265 
L 387.883423 272.385265 
L 388.943808 281.710879 
L 388.943808 281.710879 
L 389.297269 282.910616 
L 389.297269 282.910616 
L 389.474 282.933306 
L 389.474 282.933306 
L 389.650731 282.787239 
L 389.650731 282.787239 
L 390.357654 281.591756 
L 390.357654 281.591756 
L 390.534385 281.662663 
L 390.534385 281.662663 
L 390.887847 282.31642 
L 390.887847 282.31642 
L 391.241308 283.974213 
L 391.241308 283.974213 
L 391.59477 286.346742 
L 391.59477 286.346742 
L 391.948232 289.625456 
L 391.948232 289.625456 
L 392.124963 295.488 
L 392.124963 295.488 
L 392.301693 293.360807 
L 392.301693 293.360807 
L 392.478424 295.364623 
L 392.478424 295.364623 
L 392.831886 291.952605 
L 392.831886 291.952605 
L 393.008617 295.488 
L 393.008617 295.488 
L 393.185348 288.620003 
L 393.185348 288.620003 
L 393.538809 286.275836 
L 393.538809 286.275836 
L 393.71554 285.70433 
L 393.71554 285.70433 
L 393.892271 285.61357 
L 393.892271 285.61357 
L 394.245733 286.237546 
L 394.245733 286.237546 
L 394.599194 287.261435 
L 394.599194 287.261435 
L 394.775925 295.488 
L 394.775925 295.488 
L 394.952656 288.146348 
L 394.952656 288.146348 
L 395.129387 288.207327 
L 395.129387 288.207327 
L 395.482849 287.756362 
L 395.482849 287.756362 
L 395.83631 286.299944 
L 395.83631 286.299944 
L 396.543234 282.663862 
L 396.543234 282.663862 
L 396.719964 282.590119 
L 396.719964 282.590119 
L 396.896695 282.712078 
L 396.896695 282.712078 
L 397.250157 283.640953 
L 397.250157 283.640953 
L 397.426888 284.229476 
L 397.426888 284.229476 
L 397.603619 284.409578 
L 397.603619 284.409578 
L 397.780349 286.972137 
L 397.780349 286.972137 
L 397.95708 285.94683 
L 397.95708 285.94683 
L 398.133811 283.55161 
L 398.133811 283.55161 
L 398.310542 279.62623 
L 398.310542 279.62623 
L 398.487273 261.123904 
L 398.487273 261.123904 
" clip-path="url(#pe6cf341a67)" style="fill: none; stroke: #1f77b4; stroke-width: 1.5; stroke-linecap: square"/>
   </g>
   <g id="patch_3">
    <path d="M 57.6 307.584 
L 57.6 41.472 
" style="fill: none; stroke: #000000; stroke-width: 0.8; stroke-linejoin: miter; stroke-linecap: square"/>
   </g>
   <g id="patch_4">
    <path d="M 414.72 307.584 
L 414.72 41.472 
" style="fill: none; stroke: #000000; stroke-width: 0.8; stroke-linejoin: miter; stroke-linecap: square"/>
   </g>
   <g id="patch_5">
    <path d="M 57.6 307.584 
L 414.72 307.584 
" style="fill: none; stroke: #000000; stroke-width: 0.8; stroke-linejoin: miter; stroke-linecap: square"/>
   </g>
   <g id="patch_6">
    <path d="M 57.6 41.472 
L 414.72 41.472 
" style="fill: none; stroke: #000000; stroke-width: 0.8; stroke-linejoin: miter; stroke-linecap: square"/>
   </g>
   <g id="text_19">
    <!-- Tracking error vs Time -->
    <g transform="translate(169.584375 35.472) scale(0.12 -0.12)">
     <defs>
      <path id="DejaVuSans-76" d="M 191 3500 
L 800 3500 
L 1894 563 
L 2988 3500 
L 3597 3500 
L 2284 0 
L 1503 0 
L 191 3500 
z
" transform="scale(0.015625)"/>
     </defs>
     <use xlink:href="#DejaVuSans-54"/>
     <use xlink:href="#DejaVuSans-72" x="46.333984"/>
     <use xlink:href="#DejaVuSans-61" x="87.447266"/>
     <use xlink:href="#DejaVuSans-63" x="148.726562"/>
     <use xlink:href="#DejaVuSans-6b" x="203.707031"/>
     <use xlink:href="#DejaVuSans-69" x="261.617188"/>
     <use xlink:href="#DejaVuSans-6e" x="289.400391"/>
     <use xlink:href="#DejaVuSans-67" x="352.779297"/>
     <use xlink:href="#DejaVuSans-20" x="416.255859"/>
     <use xlink:href="#DejaVuSans-65" x="448.042969"/>
     <use xlink:href="#DejaVuSans-72" x="509.566406"/>
     <use xlink:href="#DejaVuSans-72" x="548.929688"/>
     <use xlink:href="#DejaVuSans-6f" x="587.792969"/>
     <use xlink:href="#DejaVuSans-72" x="648.974609"/>
     <use xlink:href="#DejaVuSans-20" x="690.087891"/>
     <use xlink:href="#DejaVuSans-76" x="721.875"/>
     <use xlink:href="#DejaVuSans-73" x="781.054688"/>
     <use xlink:href="#DejaVuSans-20" x="833.154297"/>
     <use xlink:href="#DejaVuSans-54" x="864.941406"/>
     <use xlink:href="#DejaVuSans-69" x="922.900391"/>
     <use xlink:href="#DejaVuSans-6d" x="950.683594"/>
     <use xlink:href="#DejaVuSans-65" x="1048.095703"/>
    </g>
   </g>
   <g id="legend_1">
    <g id="patch_7">
     <path d="M 311.00125 64.150125 
L 407.72 64.150125 
Q 409.72 64.150125 409.72 62.150125 
L 409.72 48.472 
Q 409.72 46.472 407.72 46.472 
L 311.00125 46.472 
Q 309.00125 46.472 309.00125 48.472 
L 309.00125 62.150125 
Q 309.00125 64.150125 311.00125 64.150125 
z
" style="fill: #ffffff; opacity: 0.8; stroke: #cccccc; stroke-linejoin: miter"/>
    </g>
    <g id="line2d_34">
     <path d="M 313.00125 54.570438 
L 323.00125 54.570438 
L 333.00125 54.570438 
" style="fill: none; stroke: #1f77b4; stroke-width: 1.5; stroke-linecap: square"/>
    </g>
    <g id="text_20">
     <!-- Actual speed -->
     <g transform="translate(341.00125 58.070438) scale(0.1 -0.1)">
      <defs>
       <path id="DejaVuSans-41" d="M 2188 4044 
L 1331 1722 
L 3047 1722 
L 2188 4044 
z
M 1831 4666 
L 2547 4666 
L 4325 0 
L 3669 0 
L 3244 1197 
L 1141 1197 
L 716 0 
L 50 0 
L 1831 4666 
z
" transform="scale(0.015625)"/>
       <path id="DejaVuSans-74" d="M 1172 4494 
L 1172 3500 
L 2356 3500 
L 2356 3053 
L 1172 3053 
L 1172 1153 
Q 1172 725 1289 603 
Q 1406 481 1766 481 
L 2356 481 
L 2356 0 
L 1766 0 
Q 1100 0 847 248 
Q 594 497 594 1153 
L 594 3053 
L 172 3053 
L 172 3500 
L 594 3500 
L 594 4494 
L 1172 4494 
z
" transform="scale(0.015625)"/>
       <path id="DejaVuSans-75" d="M 544 1381 
L 544 3500 
L 1119 3500 
L 1119 1403 
Q 1119 906 1312 657 
Q 1506 409 1894 409 
Q 2359 409 2629 706 
Q 2900 1003 2900 1516 
L 2900 3500 
L 3475 3500 
L 3475 0 
L 2900 0 
L 2900 538 
Q 2691 219 2414 64 
Q 2138 -91 1772 -91 
Q 1169 -91 856 284 
Q 544 659 544 1381 
z
M 1991 3584 
L 1991 3584 
z
" transform="scale(0.015625)"/>
       <path id="DejaVuSans-6c" d="M 603 4863 
L 1178 4863 
L 1178 0 
L 603 0 
L 603 4863 
z
" transform="scale(0.015625)"/>
       <path id="DejaVuSans-70" d="M 1159 525 
L 1159 -1331 
L 581 -1331 
L 581 3500 
L 1159 3500 
L 1159 2969 
Q 1341 3281 1617 3432 
Q 1894 3584 2278 3584 
Q 2916 3584 3314 3078 
Q 3713 2572 3713 1747 
Q 3713 922 3314 415 
Q 2916 -91 2278 -91 
Q 1894 -91 1617 61 
Q 1341 213 1159 525 
z
M 3116 1747 
Q 3116 2381 2855 2742 
Q 2594 3103 2138 3103 
Q 1681 3103 1420 2742 
Q 1159 2381 1159 1747 
Q 1159 1113 1420 752 
Q 1681 391 2138 391 
Q 2594 391 2855 752 
Q 3116 1113 3116 1747 
z
" transform="scale(0.015625)"/>
       <path id="DejaVuSans-64" d="M 2906 2969 
L 2906 4863 
L 3481 4863 
L 3481 0 
L 2906 0 
L 2906 525 
Q 2725 213 2448 61 
Q 2172 -91 1784 -91 
Q 1150 -91 751 415 
Q 353 922 353 1747 
Q 353 2572 751 3078 
Q 1150 3584 1784 3584 
Q 2172 3584 2448 3432 
Q 2725 3281 2906 2969 
z
M 947 1747 
Q 947 1113 1208 752 
Q 1469 391 1925 391 
Q 2381 391 2643 752 
Q 2906 1113 2906 1747 
Q 2906 2381 2643 2742 
Q 2381 3103 1925 3103 
Q 1469 3103 1208 2742 
Q 947 2381 947 1747 
z
" transform="scale(0.015625)"/>
      </defs>
      <use xlink:href="#DejaVuSans-41"/>
      <use xlink:href="#DejaVuSans-63" x="66.658203"/>
      <use xlink:href="#DejaVuSans-74" x="121.638672"/>
      <use xlink:href="#DejaVuSans-75" x="160.847656"/>
      <use xlink:href="#DejaVuSans-61" x="224.226562"/>
      <use xlink:href="#DejaVuSans-6c" x="285.505859"/>
      <use xlink:href="#DejaVuSans-20" x="313.289062"/>
      <use xlink:href="#DejaVuSans-73" x="345.076172"/>
      <use xlink:href="#DejaVuSans-70" x="397.175781"/>
      <use xlink:href="#DejaVuSans-65" x="460.652344"/>
      <use xlink:href="#DejaVuSans-65" x="522.175781"/>
      <use xlink:href="#DejaVuSans-64" x="583.699219"/>
     </g>
    </g>
   </g>
  </g>
 </g>
 <defs>
  <clipPath id="pe6cf341a67">
   <rect x="57.6" y="41.472" width="357.12" height="266.112"/>
  </clipPath>
 </defs>
</svg>
