<?xml version="1.0" encoding="utf-8" standalone="no"?>
<!DOCTYPE svg PUBLIC "-//W3C//DTD SVG 1.1//EN"
  "http://www.w3.org/Graphics/SVG/1.1/DTD/svg11.dtd">
<svg xmlns:xlink="http://www.w3.org/1999/xlink" width="460.8pt" height="345.6pt" viewBox="0 0 460.8 345.6" xmlns="http://www.w3.org/2000/svg" version="1.1">
 <metadata>
  <rdf:RDF xmlns:dc="http://purl.org/dc/elements/1.1/" xmlns:cc="http://creativecommons.org/ns#" xmlns:rdf="http://www.w3.org/1999/02/22-rdf-syntax-ns#">
   <cc:Work>
    <dc:type rdf:resource="http://purl.org/dc/dcmitype/StillImage"/>
    <dc:date>2024-01-30T20:58:14.142820</dc:date>
    <dc:format>image/svg+xml</dc:format>
    <dc:creator>
     <cc:Agent>
      <dc:title>Matplotlib v3.7.1, https://matplotlib.org/</dc:title>
     </cc:Agent>
    </dc:creator>
   </cc:Work>
  </rdf:RDF>
 </metadata>
 <defs>
  <style type="text/css">*{stroke-linejoin: round; stroke-linecap: butt}</style>
 </defs>
 <g id="figure_1">
  <g id="patch_1">
   <path d="M 0 345.6 
L 460.8 345.6 
L 460.8 0 
L 0 0 
z
" style="fill: #ffffff"/>
  </g>
  <g id="axes_1">
   <g id="patch_2">
    <path d="M 57.6 307.584 
L 414.72 307.584 
L 414.72 41.472 
L 57.6 41.472 
z
" style="fill: #ffffff"/>
   </g>
   <g id="matplotlib.axis_1">
    <g id="xtick_1">
     <g id="line2d_1">
      <path d="M 73.832727 307.584 
L 73.832727 41.472 
" clip-path="url(#pbf9104629e)" style="fill: none; stroke: #b0b0b0; stroke-width: 0.8; stroke-linecap: square"/>
     </g>
     <g id="line2d_2">
      <defs>
       <path id="mc4824c7699" d="M 0 0 
L 0 3.5 
" style="stroke: #000000; stroke-width: 0.8"/>
      </defs>
      <g>
       <use xlink:href="#mc4824c7699" x="73.832727" y="307.584" style="stroke: #000000; stroke-width: 0.8"/>
      </g>
     </g>
     <g id="text_1">
      <!-- 0 -->
      <g transform="translate(70.651477 322.182437) scale(0.1 -0.1)">
       <defs>
        <path id="DejaVuSans-30" d="M 2034 4250 
Q 1547 4250 1301 3770 
Q 1056 3291 1056 2328 
Q 1056 1369 1301 889 
Q 1547 409 2034 409 
Q 2525 409 2770 889 
Q 3016 1369 3016 2328 
Q 3016 3291 2770 3770 
Q 2525 4250 2034 4250 
z
M 2034 4750 
Q 2819 4750 3233 4129 
Q 3647 3509 3647 2328 
Q 3647 1150 3233 529 
Q 2819 -91 2034 -91 
Q 1250 -91 836 529 
Q 422 1150 422 2328 
Q 422 3509 836 4129 
Q 1250 4750 2034 4750 
z
" transform="scale(0.015625)"/>
       </defs>
       <use xlink:href="#DejaVuSans-30"/>
      </g>
     </g>
    </g>
    <g id="xtick_2">
     <g id="line2d_3">
      <path d="M 115.669653 307.584 
L 115.669653 41.472 
" clip-path="url(#pbf9104629e)" style="fill: none; stroke: #b0b0b0; stroke-width: 0.8; stroke-linecap: square"/>
     </g>
     <g id="line2d_4">
      <g>
       <use xlink:href="#mc4824c7699" x="115.669653" y="307.584" style="stroke: #000000; stroke-width: 0.8"/>
      </g>
     </g>
     <g id="text_2">
      <!-- 2 -->
      <g transform="translate(112.488403 322.182437) scale(0.1 -0.1)">
       <defs>
        <path id="DejaVuSans-32" d="M 1228 531 
L 3431 531 
L 3431 0 
L 469 0 
L 469 531 
Q 828 903 1448 1529 
Q 2069 2156 2228 2338 
Q 2531 2678 2651 2914 
Q 2772 3150 2772 3378 
Q 2772 3750 2511 3984 
Q 2250 4219 1831 4219 
Q 1534 4219 1204 4116 
Q 875 4013 500 3803 
L 500 4441 
Q 881 4594 1212 4672 
Q 1544 4750 1819 4750 
Q 2544 4750 2975 4387 
Q 3406 4025 3406 3419 
Q 3406 3131 3298 2873 
Q 3191 2616 2906 2266 
Q 2828 2175 2409 1742 
Q 1991 1309 1228 531 
z
" transform="scale(0.015625)"/>
       </defs>
       <use xlink:href="#DejaVuSans-32"/>
      </g>
     </g>
    </g>
    <g id="xtick_3">
     <g id="line2d_5">
      <path d="M 157.506579 307.584 
L 157.506579 41.472 
" clip-path="url(#pbf9104629e)" style="fill: none; stroke: #b0b0b0; stroke-width: 0.8; stroke-linecap: square"/>
     </g>
     <g id="line2d_6">
      <g>
       <use xlink:href="#mc4824c7699" x="157.506579" y="307.584" style="stroke: #000000; stroke-width: 0.8"/>
      </g>
     </g>
     <g id="text_3">
      <!-- 4 -->
      <g transform="translate(154.325329 322.182437) scale(0.1 -0.1)">
       <defs>
        <path id="DejaVuSans-34" d="M 2419 4116 
L 825 1625 
L 2419 1625 
L 2419 4116 
z
M 2253 4666 
L 3047 4666 
L 3047 1625 
L 3713 1625 
L 3713 1100 
L 3047 1100 
L 3047 0 
L 2419 0 
L 2419 1100 
L 313 1100 
L 313 1709 
L 2253 4666 
z
" transform="scale(0.015625)"/>
       </defs>
       <use xlink:href="#DejaVuSans-34"/>
      </g>
     </g>
    </g>
    <g id="xtick_4">
     <g id="line2d_7">
      <path d="M 199.343505 307.584 
L 199.343505 41.472 
" clip-path="url(#pbf9104629e)" style="fill: none; stroke: #b0b0b0; stroke-width: 0.8; stroke-linecap: square"/>
     </g>
     <g id="line2d_8">
      <g>
       <use xlink:href="#mc4824c7699" x="199.343505" y="307.584" style="stroke: #000000; stroke-width: 0.8"/>
      </g>
     </g>
     <g id="text_4">
      <!-- 6 -->
      <g transform="translate(196.162255 322.182437) scale(0.1 -0.1)">
       <defs>
        <path id="DejaVuSans-36" d="M 2113 2584 
Q 1688 2584 1439 2293 
Q 1191 2003 1191 1497 
Q 1191 994 1439 701 
Q 1688 409 2113 409 
Q 2538 409 2786 701 
Q 3034 994 3034 1497 
Q 3034 2003 2786 2293 
Q 2538 2584 2113 2584 
z
M 3366 4563 
L 3366 3988 
Q 3128 4100 2886 4159 
Q 2644 4219 2406 4219 
Q 1781 4219 1451 3797 
Q 1122 3375 1075 2522 
Q 1259 2794 1537 2939 
Q 1816 3084 2150 3084 
Q 2853 3084 3261 2657 
Q 3669 2231 3669 1497 
Q 3669 778 3244 343 
Q 2819 -91 2113 -91 
Q 1303 -91 875 529 
Q 447 1150 447 2328 
Q 447 3434 972 4092 
Q 1497 4750 2381 4750 
Q 2619 4750 2861 4703 
Q 3103 4656 3366 4563 
z
" transform="scale(0.015625)"/>
       </defs>
       <use xlink:href="#DejaVuSans-36"/>
      </g>
     </g>
    </g>
    <g id="xtick_5">
     <g id="line2d_9">
      <path d="M 241.180431 307.584 
L 241.180431 41.472 
" clip-path="url(#pbf9104629e)" style="fill: none; stroke: #b0b0b0; stroke-width: 0.8; stroke-linecap: square"/>
     </g>
     <g id="line2d_10">
      <g>
       <use xlink:href="#mc4824c7699" x="241.180431" y="307.584" style="stroke: #000000; stroke-width: 0.8"/>
      </g>
     </g>
     <g id="text_5">
      <!-- 8 -->
      <g transform="translate(237.999181 322.182437) scale(0.1 -0.1)">
       <defs>
        <path id="DejaVuSans-38" d="M 2034 2216 
Q 1584 2216 1326 1975 
Q 1069 1734 1069 1313 
Q 1069 891 1326 650 
Q 1584 409 2034 409 
Q 2484 409 2743 651 
Q 3003 894 3003 1313 
Q 3003 1734 2745 1975 
Q 2488 2216 2034 2216 
z
M 1403 2484 
Q 997 2584 770 2862 
Q 544 3141 544 3541 
Q 544 4100 942 4425 
Q 1341 4750 2034 4750 
Q 2731 4750 3128 4425 
Q 3525 4100 3525 3541 
Q 3525 3141 3298 2862 
Q 3072 2584 2669 2484 
Q 3125 2378 3379 2068 
Q 3634 1759 3634 1313 
Q 3634 634 3220 271 
Q 2806 -91 2034 -91 
Q 1263 -91 848 271 
Q 434 634 434 1313 
Q 434 1759 690 2068 
Q 947 2378 1403 2484 
z
M 1172 3481 
Q 1172 3119 1398 2916 
Q 1625 2713 2034 2713 
Q 2441 2713 2670 2916 
Q 2900 3119 2900 3481 
Q 2900 3844 2670 4047 
Q 2441 4250 2034 4250 
Q 1625 4250 1398 4047 
Q 1172 3844 1172 3481 
z
" transform="scale(0.015625)"/>
       </defs>
       <use xlink:href="#DejaVuSans-38"/>
      </g>
     </g>
    </g>
    <g id="xtick_6">
     <g id="line2d_11">
      <path d="M 283.017357 307.584 
L 283.017357 41.472 
" clip-path="url(#pbf9104629e)" style="fill: none; stroke: #b0b0b0; stroke-width: 0.8; stroke-linecap: square"/>
     </g>
     <g id="line2d_12">
      <g>
       <use xlink:href="#mc4824c7699" x="283.017357" y="307.584" style="stroke: #000000; stroke-width: 0.8"/>
      </g>
     </g>
     <g id="text_6">
      <!-- 10 -->
      <g transform="translate(276.654857 322.182437) scale(0.1 -0.1)">
       <defs>
        <path id="DejaVuSans-31" d="M 794 531 
L 1825 531 
L 1825 4091 
L 703 3866 
L 703 4441 
L 1819 4666 
L 2450 4666 
L 2450 531 
L 3481 531 
L 3481 0 
L 794 0 
L 794 531 
z
" transform="scale(0.015625)"/>
       </defs>
       <use xlink:href="#DejaVuSans-31"/>
       <use xlink:href="#DejaVuSans-30" x="63.623047"/>
      </g>
     </g>
    </g>
    <g id="xtick_7">
     <g id="line2d_13">
      <path d="M 324.854283 307.584 
L 324.854283 41.472 
" clip-path="url(#pbf9104629e)" style="fill: none; stroke: #b0b0b0; stroke-width: 0.8; stroke-linecap: square"/>
     </g>
     <g id="line2d_14">
      <g>
       <use xlink:href="#mc4824c7699" x="324.854283" y="307.584" style="stroke: #000000; stroke-width: 0.8"/>
      </g>
     </g>
     <g id="text_7">
      <!-- 12 -->
      <g transform="translate(318.491783 322.182437) scale(0.1 -0.1)">
       <use xlink:href="#DejaVuSans-31"/>
       <use xlink:href="#DejaVuSans-32" x="63.623047"/>
      </g>
     </g>
    </g>
    <g id="xtick_8">
     <g id="line2d_15">
      <path d="M 366.691209 307.584 
L 366.691209 41.472 
" clip-path="url(#pbf9104629e)" style="fill: none; stroke: #b0b0b0; stroke-width: 0.8; stroke-linecap: square"/>
     </g>
     <g id="line2d_16">
      <g>
       <use xlink:href="#mc4824c7699" x="366.691209" y="307.584" style="stroke: #000000; stroke-width: 0.8"/>
      </g>
     </g>
     <g id="text_8">
      <!-- 14 -->
      <g transform="translate(360.328709 322.182437) scale(0.1 -0.1)">
       <use xlink:href="#DejaVuSans-31"/>
       <use xlink:href="#DejaVuSans-34" x="63.623047"/>
      </g>
     </g>
    </g>
    <g id="xtick_9">
     <g id="line2d_17">
      <path d="M 408.528135 307.584 
L 408.528135 41.472 
" clip-path="url(#pbf9104629e)" style="fill: none; stroke: #b0b0b0; stroke-width: 0.8; stroke-linecap: square"/>
     </g>
     <g id="line2d_18">
      <g>
       <use xlink:href="#mc4824c7699" x="408.528135" y="307.584" style="stroke: #000000; stroke-width: 0.8"/>
      </g>
     </g>
     <g id="text_9">
      <!-- 16 -->
      <g transform="translate(402.165635 322.182437) scale(0.1 -0.1)">
       <use xlink:href="#DejaVuSans-31"/>
       <use xlink:href="#DejaVuSans-36" x="63.623047"/>
      </g>
     </g>
    </g>
    <g id="text_10">
     <!-- Time(s) -->
     <g transform="translate(217.420156 335.860562) scale(0.1 -0.1)">
      <defs>
       <path id="DejaVuSans-54" d="M -19 4666 
L 3928 4666 
L 3928 4134 
L 2272 4134 
L 2272 0 
L 1638 0 
L 1638 4134 
L -19 4134 
L -19 4666 
z
" transform="scale(0.015625)"/>
       <path id="DejaVuSans-69" d="M 603 3500 
L 1178 3500 
L 1178 0 
L 603 0 
L 603 3500 
z
M 603 4863 
L 1178 4863 
L 1178 4134 
L 603 4134 
L 603 4863 
z
" transform="scale(0.015625)"/>
       <path id="DejaVuSans-6d" d="M 3328 2828 
Q 3544 3216 3844 3400 
Q 4144 3584 4550 3584 
Q 5097 3584 5394 3201 
Q 5691 2819 5691 2113 
L 5691 0 
L 5113 0 
L 5113 2094 
Q 5113 2597 4934 2840 
Q 4756 3084 4391 3084 
Q 3944 3084 3684 2787 
Q 3425 2491 3425 1978 
L 3425 0 
L 2847 0 
L 2847 2094 
Q 2847 2600 2669 2842 
Q 2491 3084 2119 3084 
Q 1678 3084 1418 2786 
Q 1159 2488 1159 1978 
L 1159 0 
L 581 0 
L 581 3500 
L 1159 3500 
L 1159 2956 
Q 1356 3278 1631 3431 
Q 1906 3584 2284 3584 
Q 2666 3584 2933 3390 
Q 3200 3197 3328 2828 
z
" transform="scale(0.015625)"/>
       <path id="DejaVuSans-65" d="M 3597 1894 
L 3597 1613 
L 953 1613 
Q 991 1019 1311 708 
Q 1631 397 2203 397 
Q 2534 397 2845 478 
Q 3156 559 3463 722 
L 3463 178 
Q 3153 47 2828 -22 
Q 2503 -91 2169 -91 
Q 1331 -91 842 396 
Q 353 884 353 1716 
Q 353 2575 817 3079 
Q 1281 3584 2069 3584 
Q 2775 3584 3186 3129 
Q 3597 2675 3597 1894 
z
M 3022 2063 
Q 3016 2534 2758 2815 
Q 2500 3097 2075 3097 
Q 1594 3097 1305 2825 
Q 1016 2553 972 2059 
L 3022 2063 
z
" transform="scale(0.015625)"/>
       <path id="DejaVuSans-28" d="M 1984 4856 
Q 1566 4138 1362 3434 
Q 1159 2731 1159 2009 
Q 1159 1288 1364 580 
Q 1569 -128 1984 -844 
L 1484 -844 
Q 1016 -109 783 600 
Q 550 1309 550 2009 
Q 550 2706 781 3412 
Q 1013 4119 1484 4856 
L 1984 4856 
z
" transform="scale(0.015625)"/>
       <path id="DejaVuSans-73" d="M 2834 3397 
L 2834 2853 
Q 2591 2978 2328 3040 
Q 2066 3103 1784 3103 
Q 1356 3103 1142 2972 
Q 928 2841 928 2578 
Q 928 2378 1081 2264 
Q 1234 2150 1697 2047 
L 1894 2003 
Q 2506 1872 2764 1633 
Q 3022 1394 3022 966 
Q 3022 478 2636 193 
Q 2250 -91 1575 -91 
Q 1294 -91 989 -36 
Q 684 19 347 128 
L 347 722 
Q 666 556 975 473 
Q 1284 391 1588 391 
Q 1994 391 2212 530 
Q 2431 669 2431 922 
Q 2431 1156 2273 1281 
Q 2116 1406 1581 1522 
L 1381 1569 
Q 847 1681 609 1914 
Q 372 2147 372 2553 
Q 372 3047 722 3315 
Q 1072 3584 1716 3584 
Q 2034 3584 2315 3537 
Q 2597 3491 2834 3397 
z
" transform="scale(0.015625)"/>
       <path id="DejaVuSans-29" d="M 513 4856 
L 1013 4856 
Q 1481 4119 1714 3412 
Q 1947 2706 1947 2009 
Q 1947 1309 1714 600 
Q 1481 -109 1013 -844 
L 513 -844 
Q 928 -128 1133 580 
Q 1338 1288 1338 2009 
Q 1338 2731 1133 3434 
Q 928 4138 513 4856 
z
" transform="scale(0.015625)"/>
      </defs>
      <use xlink:href="#DejaVuSans-54"/>
      <use xlink:href="#DejaVuSans-69" x="57.958984"/>
      <use xlink:href="#DejaVuSans-6d" x="85.742188"/>
      <use xlink:href="#DejaVuSans-65" x="183.154297"/>
      <use xlink:href="#DejaVuSans-28" x="244.677734"/>
      <use xlink:href="#DejaVuSans-73" x="283.691406"/>
      <use xlink:href="#DejaVuSans-29" x="335.791016"/>
     </g>
    </g>
   </g>
   <g id="matplotlib.axis_2">
    <g id="ytick_1">
     <g id="line2d_19">
      <path d="M 57.6 295.488 
L 414.72 295.488 
" clip-path="url(#pbf9104629e)" style="fill: none; stroke: #b0b0b0; stroke-width: 0.8; stroke-linecap: square"/>
     </g>
     <g id="line2d_20">
      <defs>
       <path id="m6afcdd6ccf" d="M 0 0 
L -3.5 0 
" style="stroke: #000000; stroke-width: 0.8"/>
      </defs>
      <g>
       <use xlink:href="#m6afcdd6ccf" x="57.6" y="295.488" style="stroke: #000000; stroke-width: 0.8"/>
      </g>
     </g>
     <g id="text_11">
      <!-- 0.0 -->
      <g transform="translate(34.696875 299.287219) scale(0.1 -0.1)">
       <defs>
        <path id="DejaVuSans-2e" d="M 684 794 
L 1344 794 
L 1344 0 
L 684 0 
L 684 794 
z
" transform="scale(0.015625)"/>
       </defs>
       <use xlink:href="#DejaVuSans-30"/>
       <use xlink:href="#DejaVuSans-2e" x="63.623047"/>
       <use xlink:href="#DejaVuSans-30" x="95.410156"/>
      </g>
     </g>
    </g>
    <g id="ytick_2">
     <g id="line2d_21">
      <path d="M 57.6 247.316149 
L 414.72 247.316149 
" clip-path="url(#pbf9104629e)" style="fill: none; stroke: #b0b0b0; stroke-width: 0.8; stroke-linecap: square"/>
     </g>
     <g id="line2d_22">
      <g>
       <use xlink:href="#m6afcdd6ccf" x="57.6" y="247.316149" style="stroke: #000000; stroke-width: 0.8"/>
      </g>
     </g>
     <g id="text_12">
      <!-- 0.2 -->
      <g transform="translate(34.696875 251.115368) scale(0.1 -0.1)">
       <use xlink:href="#DejaVuSans-30"/>
       <use xlink:href="#DejaVuSans-2e" x="63.623047"/>
       <use xlink:href="#DejaVuSans-32" x="95.410156"/>
      </g>
     </g>
    </g>
    <g id="ytick_3">
     <g id="line2d_23">
      <path d="M 57.6 199.144298 
L 414.72 199.144298 
" clip-path="url(#pbf9104629e)" style="fill: none; stroke: #b0b0b0; stroke-width: 0.8; stroke-linecap: square"/>
     </g>
     <g id="line2d_24">
      <g>
       <use xlink:href="#m6afcdd6ccf" x="57.6" y="199.144298" style="stroke: #000000; stroke-width: 0.8"/>
      </g>
     </g>
     <g id="text_13">
      <!-- 0.4 -->
      <g transform="translate(34.696875 202.943516) scale(0.1 -0.1)">
       <use xlink:href="#DejaVuSans-30"/>
       <use xlink:href="#DejaVuSans-2e" x="63.623047"/>
       <use xlink:href="#DejaVuSans-34" x="95.410156"/>
      </g>
     </g>
    </g>
    <g id="ytick_4">
     <g id="line2d_25">
      <path d="M 57.6 150.972446 
L 414.72 150.972446 
" clip-path="url(#pbf9104629e)" style="fill: none; stroke: #b0b0b0; stroke-width: 0.8; stroke-linecap: square"/>
     </g>
     <g id="line2d_26">
      <g>
       <use xlink:href="#m6afcdd6ccf" x="57.6" y="150.972446" style="stroke: #000000; stroke-width: 0.8"/>
      </g>
     </g>
     <g id="text_14">
      <!-- 0.6 -->
      <g transform="translate(34.696875 154.771665) scale(0.1 -0.1)">
       <use xlink:href="#DejaVuSans-30"/>
       <use xlink:href="#DejaVuSans-2e" x="63.623047"/>
       <use xlink:href="#DejaVuSans-36" x="95.410156"/>
      </g>
     </g>
    </g>
    <g id="ytick_5">
     <g id="line2d_27">
      <path d="M 57.6 102.800595 
L 414.72 102.800595 
" clip-path="url(#pbf9104629e)" style="fill: none; stroke: #b0b0b0; stroke-width: 0.8; stroke-linecap: square"/>
     </g>
     <g id="line2d_28">
      <g>
       <use xlink:href="#m6afcdd6ccf" x="57.6" y="102.800595" style="stroke: #000000; stroke-width: 0.8"/>
      </g>
     </g>
     <g id="text_15">
      <!-- 0.8 -->
      <g transform="translate(34.696875 106.599814) scale(0.1 -0.1)">
       <use xlink:href="#DejaVuSans-30"/>
       <use xlink:href="#DejaVuSans-2e" x="63.623047"/>
       <use xlink:href="#DejaVuSans-38" x="95.410156"/>
      </g>
     </g>
    </g>
    <g id="ytick_6">
     <g id="line2d_29">
      <path d="M 57.6 54.628744 
L 414.72 54.628744 
" clip-path="url(#pbf9104629e)" style="fill: none; stroke: #b0b0b0; stroke-width: 0.8; stroke-linecap: square"/>
     </g>
     <g id="line2d_30">
      <g>
       <use xlink:href="#m6afcdd6ccf" x="57.6" y="54.628744" style="stroke: #000000; stroke-width: 0.8"/>
      </g>
     </g>
     <g id="text_16">
      <!-- 1.0 -->
      <g transform="translate(34.696875 58.427963) scale(0.1 -0.1)">
       <use xlink:href="#DejaVuSans-31"/>
       <use xlink:href="#DejaVuSans-2e" x="63.623047"/>
       <use xlink:href="#DejaVuSans-30" x="95.410156"/>
      </g>
     </g>
    </g>
    <g id="text_17">
     <!-- Tracking error(m) -->
     <g transform="translate(28.617187 217.803781) rotate(-90) scale(0.1 -0.1)">
      <defs>
       <path id="DejaVuSans-72" d="M 2631 2963 
Q 2534 3019 2420 3045 
Q 2306 3072 2169 3072 
Q 1681 3072 1420 2755 
Q 1159 2438 1159 1844 
L 1159 0 
L 581 0 
L 581 3500 
L 1159 3500 
L 1159 2956 
Q 1341 3275 1631 3429 
Q 1922 3584 2338 3584 
Q 2397 3584 2469 3576 
Q 2541 3569 2628 3553 
L 2631 2963 
z
" transform="scale(0.015625)"/>
       <path id="DejaVuSans-61" d="M 2194 1759 
Q 1497 1759 1228 1600 
Q 959 1441 959 1056 
Q 959 750 1161 570 
Q 1363 391 1709 391 
Q 2188 391 2477 730 
Q 2766 1069 2766 1631 
L 2766 1759 
L 2194 1759 
z
M 3341 1997 
L 3341 0 
L 2766 0 
L 2766 531 
Q 2569 213 2275 61 
Q 1981 -91 1556 -91 
Q 1019 -91 701 211 
Q 384 513 384 1019 
Q 384 1609 779 1909 
Q 1175 2209 1959 2209 
L 2766 2209 
L 2766 2266 
Q 2766 2663 2505 2880 
Q 2244 3097 1772 3097 
Q 1472 3097 1187 3025 
Q 903 2953 641 2809 
L 641 3341 
Q 956 3463 1253 3523 
Q 1550 3584 1831 3584 
Q 2591 3584 2966 3190 
Q 3341 2797 3341 1997 
z
" transform="scale(0.015625)"/>
       <path id="DejaVuSans-63" d="M 3122 3366 
L 3122 2828 
Q 2878 2963 2633 3030 
Q 2388 3097 2138 3097 
Q 1578 3097 1268 2742 
Q 959 2388 959 1747 
Q 959 1106 1268 751 
Q 1578 397 2138 397 
Q 2388 397 2633 464 
Q 2878 531 3122 666 
L 3122 134 
Q 2881 22 2623 -34 
Q 2366 -91 2075 -91 
Q 1284 -91 818 406 
Q 353 903 353 1747 
Q 353 2603 823 3093 
Q 1294 3584 2113 3584 
Q 2378 3584 2631 3529 
Q 2884 3475 3122 3366 
z
" transform="scale(0.015625)"/>
       <path id="DejaVuSans-6b" d="M 581 4863 
L 1159 4863 
L 1159 1991 
L 2875 3500 
L 3609 3500 
L 1753 1863 
L 3688 0 
L 2938 0 
L 1159 1709 
L 1159 0 
L 581 0 
L 581 4863 
z
" transform="scale(0.015625)"/>
       <path id="DejaVuSans-6e" d="M 3513 2113 
L 3513 0 
L 2938 0 
L 2938 2094 
Q 2938 2591 2744 2837 
Q 2550 3084 2163 3084 
Q 1697 3084 1428 2787 
Q 1159 2491 1159 1978 
L 1159 0 
L 581 0 
L 581 3500 
L 1159 3500 
L 1159 2956 
Q 1366 3272 1645 3428 
Q 1925 3584 2291 3584 
Q 2894 3584 3203 3211 
Q 3513 2838 3513 2113 
z
" transform="scale(0.015625)"/>
       <path id="DejaVuSans-67" d="M 2906 1791 
Q 2906 2416 2648 2759 
Q 2391 3103 1925 3103 
Q 1463 3103 1205 2759 
Q 947 2416 947 1791 
Q 947 1169 1205 825 
Q 1463 481 1925 481 
Q 2391 481 2648 825 
Q 2906 1169 2906 1791 
z
M 3481 434 
Q 3481 -459 3084 -895 
Q 2688 -1331 1869 -1331 
Q 1566 -1331 1297 -1286 
Q 1028 -1241 775 -1147 
L 775 -588 
Q 1028 -725 1275 -790 
Q 1522 -856 1778 -856 
Q 2344 -856 2625 -561 
Q 2906 -266 2906 331 
L 2906 616 
Q 2728 306 2450 153 
Q 2172 0 1784 0 
Q 1141 0 747 490 
Q 353 981 353 1791 
Q 353 2603 747 3093 
Q 1141 3584 1784 3584 
Q 2172 3584 2450 3431 
Q 2728 3278 2906 2969 
L 2906 3500 
L 3481 3500 
L 3481 434 
z
" transform="scale(0.015625)"/>
       <path id="DejaVuSans-20" transform="scale(0.015625)"/>
       <path id="DejaVuSans-6f" d="M 1959 3097 
Q 1497 3097 1228 2736 
Q 959 2375 959 1747 
Q 959 1119 1226 758 
Q 1494 397 1959 397 
Q 2419 397 2687 759 
Q 2956 1122 2956 1747 
Q 2956 2369 2687 2733 
Q 2419 3097 1959 3097 
z
M 1959 3584 
Q 2709 3584 3137 3096 
Q 3566 2609 3566 1747 
Q 3566 888 3137 398 
Q 2709 -91 1959 -91 
Q 1206 -91 779 398 
Q 353 888 353 1747 
Q 353 2609 779 3096 
Q 1206 3584 1959 3584 
z
" transform="scale(0.015625)"/>
      </defs>
      <use xlink:href="#DejaVuSans-54"/>
      <use xlink:href="#DejaVuSans-72" x="46.333984"/>
      <use xlink:href="#DejaVuSans-61" x="87.447266"/>
      <use xlink:href="#DejaVuSans-63" x="148.726562"/>
      <use xlink:href="#DejaVuSans-6b" x="203.707031"/>
      <use xlink:href="#DejaVuSans-69" x="261.617188"/>
      <use xlink:href="#DejaVuSans-6e" x="289.400391"/>
      <use xlink:href="#DejaVuSans-67" x="352.779297"/>
      <use xlink:href="#DejaVuSans-20" x="416.255859"/>
      <use xlink:href="#DejaVuSans-65" x="448.042969"/>
      <use xlink:href="#DejaVuSans-72" x="509.566406"/>
      <use xlink:href="#DejaVuSans-72" x="548.929688"/>
      <use xlink:href="#DejaVuSans-6f" x="587.792969"/>
      <use xlink:href="#DejaVuSans-72" x="648.974609"/>
      <use xlink:href="#DejaVuSans-28" x="690.087891"/>
      <use xlink:href="#DejaVuSans-6d" x="729.101562"/>
      <use xlink:href="#DejaVuSans-29" x="826.513672"/>
     </g>
    </g>
   </g>
   <g id="line2d_31">
    <path d="M 73.832727 295.488 
L 74.251097 295.488 
L 74.251097 293.771155 
L 74.669466 293.545952 
L 74.669466 295.488 
L 75.506204 295.488 
L 75.506204 294.467961 
L 75.924574 293.743456 
L 75.924574 295.287123 
L 76.342943 295.365403 
L 76.342943 294.076083 
L 76.761312 293.308946 
L 76.761312 294.116066 
L 77.179681 294.49301 
L 77.179681 294.85743 
L 77.598051 295.463914 
L 77.598051 294.056814 
L 78.01642 295.180664 
L 78.01642 294.121846 
L 78.434789 295.184276 
L 78.434789 294.971839 
L 78.853158 294.265398 
L 78.853158 294.873086 
L 79.271528 293.959748 
L 79.271528 294.802274 
L 79.689897 292.385492 
L 79.689897 292.921163 
L 80.108266 290.955029 
L 80.108266 294.200607 
L 80.526635 289.647404 
L 80.945005 288.975407 
L 80.945005 289.244446 
L 81.363374 289.951368 
L 81.363374 287.387422 
L 81.781743 289.246132 
L 81.781743 289.935953 
L 82.200112 289.160868 
L 82.200112 289.639696 
L 82.618482 289.736281 
L 82.618482 289.067415 
L 83.036851 289.310442 
L 83.036851 290.058069 
L 83.45522 290.161638 
L 84.291959 291.855361 
L 84.710328 292.90912 
L 84.710328 294.094629 
L 85.128697 294.519746 
L 85.128697 295.263037 
L 85.547067 295.303743 
L 85.547067 294.212169 
L 85.965436 295.488 
L 85.965436 292.144151 
L 86.383805 292.656699 
L 86.383805 294.354516 
L 86.802174 292.493156 
L 86.802174 291.463001 
L 87.220544 291.226477 
L 87.220544 290.046989 
L 87.638913 291.439878 
L 87.638913 288.626161 
L 88.057282 290.137071 
L 88.475651 288.67361 
L 88.475651 289.505297 
L 88.894021 290.091308 
L 88.894021 290.791967 
L 89.31239 290.853145 
L 90.149128 294.69461 
L 90.149128 294.659444 
L 90.567498 295.413093 
L 90.567498 294.092943 
L 90.985867 293.182495 
L 90.985867 293.319785 
L 91.404236 290.086972 
L 91.404236 290.497637 
L 91.822605 288.601593 
L 91.822605 289.734836 
L 92.240975 288.566428 
L 92.240975 288.210197 
L 92.659344 285.816056 
L 93.077713 282.353704 
L 93.496082 283.314491 
L 93.496082 281.924252 
L 93.914452 282.532903 
L 93.914452 281.086784 
L 94.332821 282.502796 
L 94.332821 281.465415 
L 94.75119 281.319454 
L 95.16956 283.000652 
L 95.16956 282.313721 
L 95.587929 286.5237 
L 95.587929 284.949926 
L 96.006298 287.141986 
L 96.006298 285.914808 
L 96.424667 289.836478 
L 96.424667 289.267328 
L 96.843037 291.970251 
L 96.843037 291.676643 
L 97.261406 293.861959 
L 97.261406 294.601879 
L 97.679775 292.06828 
L 98.098144 289.060189 
L 98.098144 290.861335 
L 98.516514 284.159907 
L 98.516514 285.690809 
L 98.934883 282.123442 
L 98.934883 283.685174 
L 99.353252 280.182599 
L 99.353252 281.086062 
L 100.189991 274.33285 
L 100.189991 275.55497 
L 100.60836 276.068241 
L 100.60836 275.059763 
L 101.026729 275.13178 
L 101.026729 273.438058 
L 101.445098 276.282365 
L 101.445098 275.292192 
L 101.863468 275.41214 
L 101.863468 276.665331 
L 102.281837 277.762686 
L 102.281837 278.277402 
L 103.118575 286.095212 
L 103.536945 290.466566 
L 103.536945 288.997566 
L 103.955314 295.012303 
L 103.955314 294.979064 
L 104.373683 290.73392 
L 104.373683 292.78026 
L 104.792052 286.420131 
L 105.628791 274.588402 
L 105.628791 276.051381 
L 106.04716 271.865006 
L 106.04716 270.00774 
L 106.46553 266.454103 
L 106.46553 266.792028 
L 106.883899 264.161363 
L 106.883899 263.074125 
L 107.302268 262.779795 
L 107.302268 261.584892 
L 107.720637 260.378428 
L 107.720637 259.241091 
L 108.139007 261.391241 
L 108.139007 260.218979 
L 108.557376 261.512634 
L 108.557376 262.056494 
L 108.975745 264.274567 
L 108.975745 262.893962 
L 109.394114 266.218783 
L 109.394114 265.750553 
L 110.230853 276.913657 
L 110.230853 275.500054 
L 110.649222 283.115783 
L 110.649222 281.94063 
L 111.485961 294.978101 
L 113.159438 269.900799 
L 113.577807 266.470963 
L 113.577807 266.660519 
L 113.996176 261.30116 
L 113.996176 261.543223 
L 114.414545 260.253663 
L 114.414545 259.862989 
L 114.832915 257.655514 
L 114.832915 256.424482 
L 115.251284 257.157899 
L 115.251284 259.352127 
L 115.669653 261.17495 
L 115.669653 258.869204 
L 116.088022 261.046331 
L 116.088022 262.725601 
L 116.506392 266.568752 
L 116.924761 271.711579 
L 116.924761 270.031344 
L 118.598238 295.488 
L 119.016607 290.524132 
L 119.434977 282.573127 
L 120.690084 268.784898 
L 120.690084 271.133035 
L 121.108454 269.008656 
L 121.108454 270.572314 
L 121.526823 270.553286 
L 121.526823 269.264208 
L 122.363561 271.090884 
L 122.363561 273.407469 
L 122.781931 274.776272 
L 122.781931 273.918813 
L 123.618669 280.293394 
L 123.618669 279.221811 
L 124.037038 283.012695 
L 124.037038 280.888557 
L 124.873777 291.753236 
L 124.873777 288.629292 
L 125.292146 290.25461 
L 125.292146 290.217759 
L 125.710515 294.770721 
L 125.710515 293.18105 
L 126.128885 294.026948 
L 126.128885 292.6738 
L 126.547254 294.251669 
L 126.965623 294.103782 
L 126.965623 293.870389 
L 127.383993 291.296567 
L 127.383993 294.103059 
L 127.802362 295.488 
L 127.802362 292.99872 
L 128.220731 293.282934 
L 128.220731 294.727126 
L 128.6391 291.116405 
L 128.6391 291.132783 
L 129.05747 293.285342 
L 129.05747 291.914853 
L 129.475839 292.560597 
L 129.475839 293.860273 
L 129.894208 293.883877 
L 129.894208 292.543496 
L 130.312577 292.862634 
L 130.312577 293.294976 
L 130.730947 291.98398 
L 130.730947 295.018324 
L 131.149316 293.170452 
L 131.149316 294.298396 
L 131.567685 294.808054 
L 131.567685 294.519023 
L 131.986054 294.1929 
L 131.986054 291.141936 
L 132.404424 295.141885 
L 132.404424 293.437324 
L 132.822793 293.40529 
L 132.822793 291.824531 
L 133.241162 292.694755 
L 133.241162 292.225321 
L 133.659531 291.093523 
L 133.659531 291.346184 
L 134.077901 288.892551 
L 134.077901 289.062598 
L 134.49627 290.074207 
L 134.49627 287.517245 
L 134.914639 286.260682 
L 134.914639 287.48497 
L 135.333008 286.166988 
L 135.333008 284.548413 
L 135.751378 284.153404 
L 135.751378 281.389063 
L 136.169747 282.535312 
L 136.169747 285.989474 
L 136.588116 282.392964 
L 136.588116 285.726456 
L 137.006485 279.982445 
L 137.006485 282.97488 
L 137.424855 279.559255 
L 137.424855 282.291562 
L 137.843224 279.756037 
L 137.843224 281.367385 
L 138.261593 282.336362 
L 138.261593 284.26709 
L 138.679963 280.950458 
L 138.679963 282.951517 
L 139.098332 283.040394 
L 139.098332 281.824536 
L 139.516701 283.491523 
L 139.516701 281.29031 
L 139.93507 282.143675 
L 139.93507 284.005276 
L 140.35344 283.287274 
L 140.35344 283.529338 
L 140.771809 280.064818 
L 140.771809 283.752374 
L 141.190178 282.848188 
L 141.190178 281.663401 
L 141.608547 278.922905 
L 141.608547 283.138423 
L 142.026917 282.301919 
L 142.026917 280.949254 
L 142.445286 281.60969 
L 142.445286 282.942123 
L 142.863655 282.676214 
L 142.863655 280.013034 
L 143.282024 284.432319 
L 143.282024 282.503518 
L 143.700394 279.734119 
L 143.700394 282.122961 
L 144.118763 282.404525 
L 144.118763 281.595238 
L 144.537132 283.765862 
L 144.537132 285.21752 
L 144.955501 282.527363 
L 144.955501 285.205718 
L 145.373871 285.047956 
L 145.373871 283.282939 
L 145.79224 285.974782 
L 145.79224 287.414157 
L 146.210609 286.999879 
L 146.210609 284.341515 
L 146.628978 287.723661 
L 146.628978 286.858735 
L 147.047348 288.782478 
L 147.047348 285.560986 
L 147.465717 289.664505 
L 147.884086 291.234907 
L 147.884086 288.907243 
L 148.302455 291.634493 
L 148.302455 290.71152 
L 148.720825 292.152581 
L 148.720825 292.842402 
L 149.139194 291.947851 
L 149.139194 293.566425 
L 149.557563 292.947657 
L 149.557563 292.597448 
L 149.975933 292.694514 
L 149.975933 294.563582 
L 150.394302 294.70039 
L 150.394302 291.216843 
L 150.812671 293.213325 
L 150.812671 292.749912 
L 151.23104 294.633431 
L 151.23104 295.174401 
L 151.64941 293.169971 
L 151.64941 294.503849 
L 152.067779 294.969912 
L 152.067779 294.714601 
L 152.486148 295.232448 
L 152.486148 294.024057 
L 152.904517 294.073915 
L 152.904517 295.410202 
L 153.322887 295.343725 
L 153.322887 294.941009 
L 153.741256 292.629482 
L 153.741256 295.115872 
L 154.159625 295.162358 
L 154.159625 294.461217 
L 154.577994 295.298203 
L 154.577994 295.079744 
L 154.996364 293.233317 
L 154.996364 295.292181 
L 155.414733 291.963507 
L 155.414733 294.209519 
L 155.833102 292.427883 
L 155.833102 293.115536 
L 156.251471 292.576012 
L 157.08821 288.702031 
L 157.08821 289.893803 
L 157.506579 287.886241 
L 157.506579 289.015148 
L 157.924948 286.272484 
L 158.343318 286.349318 
L 158.343318 286.879208 
L 158.761687 284.58117 
L 159.180056 285.780409 
L 159.180056 285.71634 
L 159.598425 282.476301 
L 159.598425 282.779302 
L 160.016795 283.666869 
L 160.016795 284.220604 
L 160.435164 282.685608 
L 160.435164 283.40096 
L 160.853533 283.305821 
L 160.853533 283.713354 
L 161.271903 283.195025 
L 161.271903 282.920446 
L 161.690272 284.30081 
L 161.690272 284.070067 
L 162.108641 283.893276 
L 162.108641 284.019968 
L 162.52701 285.198252 
L 162.52701 285.14454 
L 162.94538 285.841587 
L 163.363749 287.32239 
L 163.363749 287.154029 
L 163.782118 288.117466 
L 164.200487 289.659929 
L 164.200487 289.650053 
L 164.618857 290.632759 
L 164.618857 290.614454 
L 165.037226 291.328602 
L 165.037226 291.308851 
L 165.455595 293.29883 
L 165.455595 295.488 
L 165.873964 294.289725 
L 166.292334 295.022178 
L 166.292334 295.00869 
L 166.710703 294.242276 
L 167.129072 292.597207 
L 167.129072 292.987158 
L 167.547441 291.985666 
L 167.965811 290.654196 
L 167.965811 290.944431 
L 168.38418 290.472829 
L 168.38418 290.215109 
L 168.802549 288.923863 
L 168.802549 289.34344 
L 169.220918 288.314971 
L 169.220918 287.988606 
L 169.639288 287.153788 
L 169.639288 287.209427 
L 170.057657 286.942554 
L 170.057657 287.130425 
L 170.476026 286.037405 
L 170.476026 286.054747 
L 170.894396 285.721398 
L 170.894396 285.806903 
L 171.312765 285.210054 
L 171.312765 285.21728 
L 171.731134 285.681175 
L 171.731134 285.480298 
L 172.149503 285.503661 
L 172.149503 285.367576 
L 172.567873 285.144781 
L 172.567873 285.203791 
L 172.986242 286.345464 
L 172.986242 286.229611 
L 173.82298 287.498698 
L 173.82298 287.374656 
L 174.24135 289.971841 
L 174.24135 289.802999 
L 174.659719 291.441565 
L 175.078088 293.805839 
L 175.078088 292.63454 
L 175.496457 295.086006 
L 175.496457 294.506499 
L 175.914827 292.433182 
L 176.751565 286.121224 
L 176.751565 286.203357 
L 177.169934 283.700589 
L 177.169934 282.575294 
L 177.588304 279.897662 
L 178.006673 278.175278 
L 178.006673 278.943137 
L 178.425042 275.889282 
L 178.425042 276.120026 
L 178.843411 274.808065 
L 178.843411 275.125036 
L 179.261781 274.359585 
L 179.261781 273.626891 
L 179.68015 274.850697 
L 179.68015 274.637055 
L 180.098519 274.018047 
L 180.098519 274.627902 
L 180.516888 274.751222 
L 180.516888 274.135586 
L 180.935258 274.883213 
L 180.935258 274.10572 
L 181.353627 275.519563 
L 181.353627 274.748332 
L 181.771996 274.717984 
L 181.771996 275.571348 
L 182.190366 275.459589 
L 182.190366 275.321095 
L 182.608735 275.02797 
L 182.608735 275.945884 
L 183.027104 276.478906 
L 183.027104 273.624001 
L 183.445473 275.005088 
L 183.445473 277.112366 
L 183.863843 277.394653 
L 183.863843 275.882779 
L 184.282212 276.241659 
L 184.282212 275.881093 
L 184.700581 278.21815 
L 184.700581 277.667305 
L 185.11895 278.88244 
L 185.11895 278.04979 
L 185.53732 280.498847 
L 185.53732 278.790914 
L 185.955689 280.07373 
L 185.955689 280.613014 
L 186.374058 281.39123 
L 186.374058 282.528086 
L 186.792427 283.66157 
L 186.792427 282.835182 
L 187.210797 285.813888 
L 187.210797 285.027964 
L 187.629166 285.226914 
L 187.629166 286.896309 
L 188.465904 288.531262 
L 188.465904 289.547447 
L 189.302643 291.415793 
L 189.302643 292.149209 
L 189.721012 293.746828 
L 189.721012 293.34363 
L 190.139381 294.239386 
L 190.139381 295.23293 
L 190.557751 295.184517 
L 190.557751 292.99029 
L 190.97612 291.10942 
L 190.97612 291.478175 
L 191.394489 288.240545 
L 191.394489 289.453994 
L 193.067966 275.393353 
L 193.067966 275.53546 
L 194.323074 266.220951 
L 194.323074 266.563212 
L 195.159813 262.39153 
L 195.996551 259.806387 
L 196.41492 259.206648 
L 196.83329 259.189788 
L 196.83329 259.22399 
L 197.251659 259.568177 
L 197.251659 259.533975 
L 197.670028 260.242583 
L 197.670028 260.242102 
L 198.088397 261.194941 
L 198.925136 264.057794 
L 198.925136 264.051532 
L 199.761874 267.806527 
L 201.016982 274.718225 
L 201.853721 280.068431 
L 201.853721 279.968234 
L 203.108828 287.870103 
L 203.108828 287.822654 
L 203.945567 292.206052 
L 203.945567 292.193768 
L 204.782306 295.488 
L 204.782306 295.488 
L 206.037413 293.341221 
L 206.874152 292.439204 
L 206.874152 292.495083 
L 207.292521 292.116211 
L 207.292521 292.321664 
L 207.71089 291.835851 
L 208.12926 291.006091 
L 208.547629 290.93287 
L 208.547629 290.625292 
L 208.965998 290.333853 
L 209.384367 289.877424 
L 209.384367 289.657761 
L 209.802737 289.117032 
L 209.802737 289.204945 
L 210.221106 288.137698 
L 210.639475 287.867213 
L 210.639475 288.102292 
L 211.057844 287.171612 
L 211.057844 287.261452 
L 211.476214 286.528517 
L 211.476214 286.601016 
L 211.894583 286.090154 
L 211.894583 285.798955 
L 212.312952 284.342238 
L 212.312952 285.201142 
L 212.731321 284.468207 
L 212.731321 284.021895 
L 213.149691 283.97854 
L 213.56806 283.040394 
L 213.56806 283.867263 
L 213.986429 282.252061 
L 213.986429 282.572163 
L 214.404799 282.037456 
L 214.404799 282.468594 
L 214.823168 281.960622 
L 214.823168 281.314637 
L 215.241537 281.446628 
L 215.241537 281.202156 
L 215.659906 280.899877 
L 215.659906 280.38468 
L 216.078276 280.800884 
L 216.078276 280.323501 
L 216.496645 280.587001 
L 216.496645 280.961537 
L 216.915014 280.20259 
L 216.915014 280.540034 
L 217.333383 280.403467 
L 217.333383 280.254616 
L 217.751753 280.882054 
L 217.751753 280.39335 
L 218.170122 280.683345 
L 218.170122 281.433622 
L 218.588491 279.970883 
L 218.588491 280.504627 
L 219.00686 279.969438 
L 219.00686 281.21179 
L 219.42523 280.778725 
L 219.42523 281.134956 
L 219.843599 282.383089 
L 219.843599 281.876803 
L 220.261968 282.857822 
L 220.261968 282.323115 
L 220.680337 284.23361 
L 220.680337 283.763453 
L 221.098707 284.312853 
L 221.098707 284.928489 
L 221.517076 285.945638 
L 221.517076 285.327352 
L 221.935445 287.612384 
L 221.935445 286.706031 
L 222.353814 288.018232 
L 222.353814 287.332024 
L 223.190553 290.847124 
L 223.190553 289.451826 
L 223.608922 291.696875 
L 223.608922 291.695671 
L 224.027291 292.508812 
L 224.027291 293.771878 
L 224.445661 293.342667 
L 224.445661 294.353553 
L 224.86403 295.382504 
L 225.282399 294.77891 
L 225.282399 295.391175 
L 225.700769 294.811426 
L 225.700769 294.52938 
L 226.119138 293.951318 
L 226.119138 293.696007 
L 226.537507 293.029068 
L 226.537507 292.667056 
L 226.955876 292.077192 
L 226.955876 292.430773 
L 227.374246 291.65063 
L 227.374246 292.055033 
L 227.792615 291.103398 
L 228.210984 290.853386 
L 228.210984 290.513534 
L 228.629353 290.244253 
L 228.629353 290.110817 
L 229.047723 289.910422 
L 229.047723 289.383663 
L 229.466092 289.261547 
L 229.466092 289.280334 
L 229.884461 288.560647 
L 229.884461 288.18298 
L 230.30283 287.25254 
L 230.30283 287.955127 
L 230.7212 286.95532 
L 230.7212 287.041066 
L 231.139569 286.919191 
L 231.139569 286.691338 
L 231.557938 286.285009 
L 231.557938 286.782142 
L 231.976307 285.88181 
L 231.976307 286.603184 
L 232.394677 285.856761 
L 232.813046 285.986825 
L 232.813046 286.224794 
L 233.231415 286.470229 
L 233.231415 286.012115 
L 233.649784 286.013801 
L 233.649784 286.204321 
L 234.486523 286.857049 
L 234.904892 286.923045 
L 235.741631 287.393202 
L 235.741631 287.522062 
L 236.16 287.92526 
L 236.16 287.37297 
L 236.578369 287.690182 
L 236.578369 287.536754 
L 236.996739 287.72631 
L 237.415108 287.408376 
L 237.415108 287.940916 
L 237.833477 287.442097 
L 238.251846 287.590466 
L 238.670216 287.296136 
L 238.670216 287.355146 
L 239.088585 287.233994 
L 239.088585 287.360927 
L 239.506954 287.765811 
L 239.506954 287.677175 
L 239.925323 287.538681 
L 239.925323 287.551928 
L 240.343693 287.907437 
L 240.343693 287.685846 
L 240.762062 288.423357 
L 240.762062 288.391805 
L 241.180431 288.347246 
L 241.180431 288.403848 
L 242.01717 289.522639 
L 242.01717 289.397874 
L 242.435539 288.434678 
L 242.435539 288.884362 
L 242.853908 288.981428 
L 242.853908 288.888456 
L 243.272277 289.391611 
L 243.272277 289.246855 
L 243.690647 288.739124 
L 243.690647 288.786091 
L 244.109016 288.871837 
L 244.109016 288.558961 
L 244.527385 288.18587 
L 244.527385 287.703429 
L 244.945754 287.460884 
L 244.945754 287.8188 
L 245.364124 288.306059 
L 245.364124 288.158412 
L 245.782493 287.602027 
L 246.200862 288.083746 
L 246.200862 286.694469 
L 246.619231 286.324991 
L 246.619231 287.160291 
L 247.037601 286.923527 
L 247.037601 287.617442 
L 247.45597 288.290162 
L 247.45597 287.477262 
L 247.874339 287.214966 
L 247.874339 286.667734 
L 248.292709 287.688977 
L 248.292709 288.12421 
L 248.711078 286.863312 
L 248.711078 287.310106 
L 249.129447 286.608964 
L 249.129447 286.234669 
L 249.547816 287.666577 
L 249.547816 287.363817 
L 249.966186 286.543451 
L 249.966186 286.960619 
L 250.384555 285.566766 
L 250.384555 286.190351 
L 250.802924 285.938894 
L 250.802924 286.390505 
L 251.221293 286.346428 
L 251.221293 286.818994 
L 251.639663 285.848813 
L 251.639663 284.188811 
L 252.058032 286.228407 
L 252.058032 285.851703 
L 252.476401 283.9559 
L 252.476401 285.737295 
L 252.89477 286.01067 
L 252.89477 286.699768 
L 253.31314 285.963702 
L 253.31314 284.932343 
L 253.731509 286.304037 
L 253.731509 284.590082 
L 254.149878 286.50395 
L 254.149878 285.032781 
L 254.568247 285.231731 
L 254.568247 284.119443 
L 254.986617 283.480444 
L 254.986617 285.390457 
L 255.404986 283.819332 
L 255.404986 285.330243 
L 255.823355 286.234428 
L 256.241724 285.299894 
L 256.241724 284.842503 
L 256.660094 286.34715 
L 256.660094 284.959801 
L 257.078463 286.911243 
L 257.078463 286.843561 
L 257.496832 285.422251 
L 257.496832 286.140493 
L 257.915201 285.760417 
L 257.915201 286.060528 
L 258.333571 285.40804 
L 258.333571 284.114144 
L 258.75194 285.461029 
L 258.75194 286.568741 
L 259.170309 285.611325 
L 259.170309 284.231924 
L 259.588679 285.257262 
L 259.588679 286.712052 
L 260.007048 284.175082 
L 260.425417 287.003974 
L 260.425417 286.924731 
L 260.843786 286.094248 
L 260.843786 286.857531 
L 261.262156 284.866348 
L 261.262156 285.003156 
L 261.680525 284.968954 
L 261.680525 285.883015 
L 262.098894 285.007491 
L 262.098894 285.807626 
L 262.517263 285.495713 
L 262.517263 287.491232 
L 262.935633 282.806038 
L 262.935633 284.672697 
L 263.354002 284.140639 
L 263.354002 285.160678 
L 263.772371 285.172239 
L 263.772371 286.406161 
L 264.19074 285.026519 
L 264.19074 285.613011 
L 264.60911 285.117564 
L 264.60911 286.814176 
L 265.027479 285.704538 
L 265.027479 284.523846 
L 265.445848 288.544509 
L 265.864217 284.838167 
L 266.282587 287.093814 
L 266.282587 283.891349 
L 266.700956 286.230575 
L 266.700956 285.488005 
L 267.119325 283.176238 
L 267.119325 283.73166 
L 267.537694 284.730503 
L 267.537694 282.643939 
L 267.956064 284.03442 
L 267.956064 284.980033 
L 268.374433 282.712343 
L 268.374433 283.744907 
L 268.792802 287.50183 
L 268.792802 283.668555 
L 269.211172 282.651888 
L 269.211172 286.693506 
L 269.629541 284.754107 
L 269.629541 282.972953 
L 270.04791 284.657523 
L 270.04791 283.988175 
L 270.466279 283.830412 
L 270.466279 283.285588 
L 270.884649 283.393252 
L 270.884649 284.794331 
L 271.721387 286.178067 
L 271.721387 288.642298 
L 272.139756 287.902619 
L 272.139756 289.716049 
L 272.558126 286.963027 
L 272.558126 288.350618 
L 272.976495 291.635215 
L 273.394864 290.835081 
L 273.394864 292.507126 
L 273.813233 295.488 
L 273.813233 292.853 
L 274.231603 294.558283 
L 274.649972 295.125748 
L 274.649972 295.036389 
L 275.068341 294.666188 
L 275.068341 295.346134 
L 275.48671 294.705689 
L 275.48671 293.755499 
L 275.90508 294.879108 
L 275.90508 294.318628 
L 276.323449 291.607998 
L 276.323449 292.79712 
L 276.741818 289.824917 
L 276.741818 294.130999 
L 277.160187 291.476007 
L 277.160187 292.882144 
L 277.578557 290.418154 
L 277.578557 292.423066 
L 277.996926 289.865622 
L 277.996926 291.407603 
L 278.415295 290.391418 
L 278.415295 289.137264 
L 278.833664 290.118765 
L 278.833664 288.093621 
L 279.252034 288.947467 
L 279.252034 291.325952 
L 279.670403 290.619271 
L 279.670403 289.241315 
L 280.088772 290.836044 
L 280.088772 291.864513 
L 280.507142 291.273204 
L 280.507142 288.692397 
L 280.925511 291.38978 
L 280.925511 286.844284 
L 281.34388 291.079553 
L 281.34388 291.023433 
L 281.762249 292.869137 
L 281.762249 291.599086 
L 282.180619 291.36184 
L 282.180619 291.995059 
L 282.598988 294.471815 
L 282.598988 293.554382 
L 283.017357 294.863452 
L 283.017357 295.454039 
L 283.435726 293.725633 
L 283.435726 294.87959 
L 283.854096 295.270504 
L 283.854096 293.616764 
L 284.272465 295.329755 
L 284.272465 295.097085 
L 284.690834 292.768458 
L 284.690834 295.303743 
L 285.109203 294.500236 
L 285.109203 291.851748 
L 285.527573 292.946212 
L 285.527573 294.408951 
L 285.945942 292.577938 
L 285.945942 294.252633 
L 286.364311 293.997322 
L 286.364311 291.70651 
L 286.78268 291.829107 
L 286.78268 293.98841 
L 287.20105 292.399221 
L 287.20105 292.594076 
L 287.619419 294.598266 
L 287.619419 292.226284 
L 288.037788 293.917116 
L 288.037788 292.926703 
L 288.456157 292.327927 
L 288.456157 291.605108 
L 288.874527 291.963988 
L 288.874527 293.553418 
L 289.292896 294.22951 
L 289.292896 295.066737 
L 290.129634 289.879111 
L 290.548004 293.296662 
L 290.548004 292.195695 
L 290.966373 292.765809 
L 290.966373 290.721154 
L 291.384742 291.795146 
L 291.803112 291.253935 
L 291.803112 295.488 
L 292.221481 290.009656 
L 292.221481 292.392477 
L 292.63985 291.9953 
L 292.63985 292.262172 
L 293.058219 287.65622 
L 293.058219 292.970298 
L 293.476589 290.357457 
L 293.476589 288.301482 
L 293.894958 288.541137 
L 293.894958 289.333805 
L 294.313327 291.038607 
L 294.313327 288.962882 
L 294.731696 289.036585 
L 294.731696 289.165926 
L 295.150066 289.890431 
L 295.150066 288.215255 
L 295.568435 291.262847 
L 295.568435 289.019725 
L 295.986804 289.731464 
L 295.986804 287.444023 
L 296.405173 289.286115 
L 296.405173 289.214821 
L 296.823543 289.004551 
L 296.823543 290.470179 
L 297.241912 289.216266 
L 297.241912 288.83354 
L 297.660281 287.442819 
L 297.660281 288.64013 
L 298.07865 286.657136 
L 298.07865 289.001179 
L 298.49702 287.027337 
L 298.49702 288.136735 
L 298.915389 287.869381 
L 298.915389 288.563296 
L 299.333758 284.866829 
L 299.333758 283.772606 
L 299.752127 288.156003 
L 299.752127 286.105087 
L 300.170497 284.297438 
L 300.170497 288.184907 
L 300.588866 286.775398 
L 300.588866 288.020881 
L 301.007235 287.784117 
L 301.007235 285.711523 
L 301.425604 285.656125 
L 301.425604 286.252011 
L 301.843974 285.797028 
L 301.843974 287.288669 
L 302.262343 283.876657 
L 302.262343 284.46628 
L 302.680712 285.400092 
L 302.680712 283.682043 
L 303.099082 284.070067 
L 303.099082 286.223349 
L 303.517451 282.740524 
L 303.517451 283.604004 
L 303.93582 282.702709 
L 303.93582 284.28949 
L 304.354189 281.995787 
L 304.354189 282.643698 
L 304.772559 281.562963 
L 304.772559 284.469171 
L 305.190928 282.82916 
L 305.190928 280.785469 
L 305.609297 283.973001 
L 305.609297 281.331256 
L 306.027666 280.925168 
L 306.027666 282.221231 
L 306.446036 279.562627 
L 306.446036 282.278556 
L 306.864405 278.628093 
L 306.864405 280.139003 
L 307.282774 279.171231 
L 307.282774 279.733637 
L 307.701143 278.253075 
L 307.701143 280.852669 
L 308.119513 281.874635 
L 308.119513 279.888991 
L 308.537882 279.140401 
L 308.537882 278.407466 
L 308.956251 279.243488 
L 308.956251 279.653672 
L 309.37462 280.089627 
L 309.37462 279.716054 
L 309.79299 279.093433 
L 309.79299 279.511083 
L 310.211359 282.79544 
L 310.211359 279.7122 
L 310.629728 281.172048 
L 310.629728 281.750592 
L 311.048097 279.601164 
L 311.048097 279.930178 
L 311.466467 278.971558 
L 311.466467 283.351584 
L 311.884836 282.536275 
L 311.884836 282.269885 
L 312.303205 281.266465 
L 312.303205 280.378176 
L 312.721575 281.12195 
L 312.721575 280.444172 
L 313.139944 281.656416 
L 313.139944 283.609303 
L 313.558313 284.483863 
L 313.558313 283.48213 
L 313.976682 283.870876 
L 313.976682 281.474808 
L 314.395052 283.925792 
L 314.395052 283.764417 
L 314.813421 282.921409 
L 314.813421 283.52982 
L 315.23179 285.487283 
L 315.650159 285.277254 
L 315.650159 284.122815 
L 316.068529 286.019341 
L 316.068529 287.470518 
L 316.486898 286.469025 
L 316.486898 286.508285 
L 316.905267 286.437232 
L 316.905267 289.311164 
L 317.323636 288.711184 
L 317.323636 285.844959 
L 317.742006 288.069053 
L 318.160375 287.535791 
L 318.160375 288.090249 
L 318.578744 287.287465 
L 318.578744 288.021845 
L 318.997113 287.531455 
L 318.997113 289.775059 
L 319.415483 287.96452 
L 319.415483 286.597644 
L 319.833852 287.826026 
L 319.833852 288.175995 
L 320.252221 289.608626 
L 320.252221 288.63146 
L 320.67059 290.653714 
L 320.67059 290.088658 
L 321.08896 290.851218 
L 321.08896 288.865575 
L 321.507329 288.736233 
L 321.507329 289.970155 
L 321.925698 292.83638 
L 321.925698 292.093811 
L 322.344067 291.177824 
L 322.344067 290.06385 
L 322.762437 290.390696 
L 322.762437 291.895343 
L 323.180806 291.194925 
L 323.180806 294.136539 
L 323.599175 292.212314 
L 323.599175 292.251574 
L 324.017545 291.382554 
L 324.017545 293.841968 
L 324.435914 292.001321 
L 324.435914 293.40529 
L 324.854283 294.289725 
L 324.854283 293.116741 
L 325.272652 294.729052 
L 325.272652 292.538919 
L 325.691022 294.593449 
L 326.109391 294.743263 
L 326.109391 292.436554 
L 326.52776 293.722502 
L 326.52776 294.796011 
L 326.946129 294.235773 
L 327.364499 294.836717 
L 327.364499 294.407987 
L 327.782868 295.31145 
L 327.782868 295.020733 
L 328.201237 293.692635 
L 328.201237 294.116547 
L 328.619606 294.315979 
L 328.619606 293.663973 
L 329.037976 290.134421 
L 329.037976 291.825976 
L 329.456345 290.463435 
L 329.456345 292.790858 
L 329.874714 288.76899 
L 329.874714 289.119922 
L 330.293083 289.814079 
L 330.293083 287.241461 
L 330.711453 289.920057 
L 330.711453 287.235921 
L 331.129822 288.495133 
L 331.548191 286.758538 
L 331.548191 286.997952 
L 331.96656 287.098631 
L 331.96656 283.845827 
L 332.38493 286.696637 
L 332.38493 285.973337 
L 332.803299 286.303555 
L 332.803299 286.18722 
L 333.221668 286.370514 
L 333.221668 288.014378 
L 333.640037 284.347778 
L 334.058407 285.316754 
L 334.476776 283.534396 
L 334.476776 284.814081 
L 334.895145 284.181103 
L 334.895145 284.240836 
L 335.313515 282.914183 
L 335.313515 283.783926 
L 335.731884 283.320031 
L 335.731884 284.078979 
L 336.150253 283.439497 
L 336.568622 281.339686 
L 336.986992 282.271089 
L 337.405361 282.300474 
L 337.405361 282.424757 
L 337.82373 280.844962 
L 338.242099 282.195219 
L 338.242099 282.090926 
L 338.660469 281.54803 
L 338.660469 281.255627 
L 339.497207 285.3406 
L 339.915576 286.380871 
L 340.333946 289.255767 
L 340.752315 290.369018 
L 341.170684 293.820531 
L 341.170684 293.804394 
L 341.589053 294.289243 
L 341.589053 294.212409 
L 342.007423 293.30991 
L 342.425792 290.458618 
L 342.844161 289.153161 
L 342.844161 289.184232 
L 343.26253 289.669081 
L 343.26253 289.511318 
L 343.6809 289.061393 
L 343.6809 289.310201 
L 344.099269 289.960521 
L 344.099269 289.620428 
L 344.936007 294.498791 
L 344.936007 294.237459 
L 345.354377 292.077192 
L 345.354377 291.476248 
L 345.772746 289.839369 
L 345.772746 288.821738 
L 346.191115 286.432896 
L 346.609485 279.972328 
L 347.027854 278.106633 
L 347.864592 268.509355 
L 348.282962 268.687831 
L 348.282962 268.031008 
L 348.701331 267.726321 
L 349.1197 266.083661 
L 349.1197 266.597896 
L 349.538069 267.4568 
L 349.538069 269.346822 
L 349.956439 268.967951 
L 349.956439 267.896609 
L 350.374808 275.44851 
L 350.793177 284.212656 
L 350.793177 283.323403 
L 351.211546 285.693458 
L 351.211546 288.019918 
L 351.629916 291.528996 
L 351.629916 292.958978 
L 352.048285 282.519415 
L 352.466654 268.829938 
L 352.466654 270.686482 
L 352.885023 262.748001 
L 352.885023 259.535902 
L 353.303393 249.529645 
L 354.5585 212.262697 
L 354.97687 207.99443 
L 354.97687 204.935999 
L 355.813608 176.258333 
L 355.813608 178.440759 
L 356.650347 154.165518 
L 356.650347 154.69878 
L 357.068716 149.679032 
L 357.068716 147.90679 
L 357.487085 137.388466 
L 357.487085 139.808138 
L 358.742193 111.331348 
L 358.742193 112.513486 
L 359.160562 109.864997 
L 359.160562 108.590852 
L 359.997301 93.402026 
L 359.997301 93.84882 
L 360.41567 90.2552 
L 360.41567 88.482476 
L 360.834039 85.67767 
L 360.834039 83.039539 
L 361.252409 82.851909 
L 361.252409 81.986743 
L 361.670778 79.160741 
L 361.670778 80.521114 
L 362.089147 77.584558 
L 362.089147 78.750799 
L 362.507516 76.211901 
L 362.507516 73.694681 
L 362.925886 79.872721 
L 362.925886 81.806821 
L 363.344255 78.266912 
L 363.344255 79.763371 
L 363.762624 80.137907 
L 363.762624 81.016321 
L 364.180993 80.276401 
L 364.180993 86.074124 
L 364.599363 86.33353 
L 364.599363 84.220231 
L 365.017732 92.418116 
L 365.017732 91.106638 
L 365.436101 97.785665 
L 365.436101 96.617257 
L 365.85447 101.821743 
L 365.85447 103.714897 
L 366.27284 107.093189 
L 366.27284 108.138036 
L 366.691209 114.656892 
L 366.691209 121.200316 
L 367.109578 126.675046 
L 367.109578 125.152093 
L 368.364686 153.151018 
L 368.783055 168.520248 
L 369.201425 178.085009 
L 369.201425 177.370621 
L 371.71164 259.170519 
L 371.71164 260.934572 
L 372.548379 287.685605 
L 372.548379 285.783058 
L 372.966748 286.496483 
L 372.966748 289.832384 
L 374.640225 239.822054 
L 374.640225 240.068694 
L 375.058594 229.301322 
L 375.058594 231.055981 
L 375.476963 224.704764 
L 375.476963 222.761752 
L 375.895333 215.596671 
L 376.732071 206.042025 
L 376.732071 207.839317 
L 377.15044 206.62659 
L 377.15044 205.609201 
L 377.56881 205.010425 
L 377.56881 206.596242 
L 377.987179 208.248055 
L 377.987179 207.836426 
L 378.405548 213.71821 
L 378.405548 212.209467 
L 378.823918 217.76031 
L 378.823918 216.78483 
L 380.079025 245.175392 
L 380.497395 256.072105 
L 381.752502 295.350229 
L 381.752502 295.096122 
L 382.589241 267.888901 
L 382.589241 268.27259 
L 383.844349 224.959352 
L 384.681087 198.849727 
L 384.681087 200.060045 
L 385.517826 180.797807 
L 385.936195 173.631763 
L 385.936195 174.002927 
L 386.354564 169.191763 
L 386.354564 169.724785 
L 386.772933 170.017188 
L 386.772933 168.553727 
L 387.191303 169.797765 
L 387.191303 169.146241 
L 388.028041 181.075759 
L 388.44641 190.716151 
L 390.119888 244.487257 
L 390.119888 247.513413 
L 390.538257 263.166615 
L 390.956626 281.927142 
L 390.956626 281.55381 
L 391.374995 291.493349 
L 391.374995 290.135144 
L 394.30358 167.265612 
L 395.140319 136.458749 
L 395.140319 137.103771 
L 395.977057 108.827376 
L 397.650534 66.205163 
L 397.650534 68.805238 
L 398.068903 62.284937 
L 398.068903 60.270391 
L 398.487273 53.568 
L 398.487273 54.607789 
" clip-path="url(#pbf9104629e)" style="fill: none; stroke: #1f77b4; stroke-width: 1.5; stroke-linecap: square"/>
   </g>
   <g id="patch_3">
    <path d="M 57.6 307.584 
L 57.6 41.472 
" style="fill: none; stroke: #000000; stroke-width: 0.8; stroke-linejoin: miter; stroke-linecap: square"/>
   </g>
   <g id="patch_4">
    <path d="M 414.72 307.584 
L 414.72 41.472 
" style="fill: none; stroke: #000000; stroke-width: 0.8; stroke-linejoin: miter; stroke-linecap: square"/>
   </g>
   <g id="patch_5">
    <path d="M 57.6 307.584 
L 414.72 307.584 
" style="fill: none; stroke: #000000; stroke-width: 0.8; stroke-linejoin: miter; stroke-linecap: square"/>
   </g>
   <g id="patch_6">
    <path d="M 57.6 41.472 
L 414.72 41.472 
" style="fill: none; stroke: #000000; stroke-width: 0.8; stroke-linejoin: miter; stroke-linecap: square"/>
   </g>
   <g id="text_18">
    <!-- Tracking error vs Time -->
    <g transform="translate(169.584375 35.472) scale(0.12 -0.12)">
     <defs>
      <path id="DejaVuSans-76" d="M 191 3500 
L 800 3500 
L 1894 563 
L 2988 3500 
L 3597 3500 
L 2284 0 
L 1503 0 
L 191 3500 
z
" transform="scale(0.015625)"/>
     </defs>
     <use xlink:href="#DejaVuSans-54"/>
     <use xlink:href="#DejaVuSans-72" x="46.333984"/>
     <use xlink:href="#DejaVuSans-61" x="87.447266"/>
     <use xlink:href="#DejaVuSans-63" x="148.726562"/>
     <use xlink:href="#DejaVuSans-6b" x="203.707031"/>
     <use xlink:href="#DejaVuSans-69" x="261.617188"/>
     <use xlink:href="#DejaVuSans-6e" x="289.400391"/>
     <use xlink:href="#DejaVuSans-67" x="352.779297"/>
     <use xlink:href="#DejaVuSans-20" x="416.255859"/>
     <use xlink:href="#DejaVuSans-65" x="448.042969"/>
     <use xlink:href="#DejaVuSans-72" x="509.566406"/>
     <use xlink:href="#DejaVuSans-72" x="548.929688"/>
     <use xlink:href="#DejaVuSans-6f" x="587.792969"/>
     <use xlink:href="#DejaVuSans-72" x="648.974609"/>
     <use xlink:href="#DejaVuSans-20" x="690.087891"/>
     <use xlink:href="#DejaVuSans-76" x="721.875"/>
     <use xlink:href="#DejaVuSans-73" x="781.054688"/>
     <use xlink:href="#DejaVuSans-20" x="833.154297"/>
     <use xlink:href="#DejaVuSans-54" x="864.941406"/>
     <use xlink:href="#DejaVuSans-69" x="922.900391"/>
     <use xlink:href="#DejaVuSans-6d" x="950.683594"/>
     <use xlink:href="#DejaVuSans-65" x="1048.095703"/>
    </g>
   </g>
   <g id="legend_1">
    <g id="patch_7">
     <path d="M 64.6 64.150125 
L 161.31875 64.150125 
Q 163.31875 64.150125 163.31875 62.150125 
L 163.31875 48.472 
Q 163.31875 46.472 161.31875 46.472 
L 64.6 46.472 
Q 62.6 46.472 62.6 48.472 
L 62.6 62.150125 
Q 62.6 64.150125 64.6 64.150125 
z
" style="fill: #ffffff; opacity: 0.8; stroke: #cccccc; stroke-linejoin: miter"/>
    </g>
    <g id="line2d_32">
     <path d="M 66.6 54.570438 
L 76.6 54.570438 
L 86.6 54.570438 
" style="fill: none; stroke: #1f77b4; stroke-width: 1.5; stroke-linecap: square"/>
    </g>
    <g id="text_19">
     <!-- Actual speed -->
     <g transform="translate(94.6 58.070438) scale(0.1 -0.1)">
      <defs>
       <path id="DejaVuSans-41" d="M 2188 4044 
L 1331 1722 
L 3047 1722 
L 2188 4044 
z
M 1831 4666 
L 2547 4666 
L 4325 0 
L 3669 0 
L 3244 1197 
L 1141 1197 
L 716 0 
L 50 0 
L 1831 4666 
z
" transform="scale(0.015625)"/>
       <path id="DejaVuSans-74" d="M 1172 4494 
L 1172 3500 
L 2356 3500 
L 2356 3053 
L 1172 3053 
L 1172 1153 
Q 1172 725 1289 603 
Q 1406 481 1766 481 
L 2356 481 
L 2356 0 
L 1766 0 
Q 1100 0 847 248 
Q 594 497 594 1153 
L 594 3053 
L 172 3053 
L 172 3500 
L 594 3500 
L 594 4494 
L 1172 4494 
z
" transform="scale(0.015625)"/>
       <path id="DejaVuSans-75" d="M 544 1381 
L 544 3500 
L 1119 3500 
L 1119 1403 
Q 1119 906 1312 657 
Q 1506 409 1894 409 
Q 2359 409 2629 706 
Q 2900 1003 2900 1516 
L 2900 3500 
L 3475 3500 
L 3475 0 
L 2900 0 
L 2900 538 
Q 2691 219 2414 64 
Q 2138 -91 1772 -91 
Q 1169 -91 856 284 
Q 544 659 544 1381 
z
M 1991 3584 
L 1991 3584 
z
" transform="scale(0.015625)"/>
       <path id="DejaVuSans-6c" d="M 603 4863 
L 1178 4863 
L 1178 0 
L 603 0 
L 603 4863 
z
" transform="scale(0.015625)"/>
       <path id="DejaVuSans-70" d="M 1159 525 
L 1159 -1331 
L 581 -1331 
L 581 3500 
L 1159 3500 
L 1159 2969 
Q 1341 3281 1617 3432 
Q 1894 3584 2278 3584 
Q 2916 3584 3314 3078 
Q 3713 2572 3713 1747 
Q 3713 922 3314 415 
Q 2916 -91 2278 -91 
Q 1894 -91 1617 61 
Q 1341 213 1159 525 
z
M 3116 1747 
Q 3116 2381 2855 2742 
Q 2594 3103 2138 3103 
Q 1681 3103 1420 2742 
Q 1159 2381 1159 1747 
Q 1159 1113 1420 752 
Q 1681 391 2138 391 
Q 2594 391 2855 752 
Q 3116 1113 3116 1747 
z
" transform="scale(0.015625)"/>
       <path id="DejaVuSans-64" d="M 2906 2969 
L 2906 4863 
L 3481 4863 
L 3481 0 
L 2906 0 
L 2906 525 
Q 2725 213 2448 61 
Q 2172 -91 1784 -91 
Q 1150 -91 751 415 
Q 353 922 353 1747 
Q 353 2572 751 3078 
Q 1150 3584 1784 3584 
Q 2172 3584 2448 3432 
Q 2725 3281 2906 2969 
z
M 947 1747 
Q 947 1113 1208 752 
Q 1469 391 1925 391 
Q 2381 391 2643 752 
Q 2906 1113 2906 1747 
Q 2906 2381 2643 2742 
Q 2381 3103 1925 3103 
Q 1469 3103 1208 2742 
Q 947 2381 947 1747 
z
" transform="scale(0.015625)"/>
      </defs>
      <use xlink:href="#DejaVuSans-41"/>
      <use xlink:href="#DejaVuSans-63" x="66.658203"/>
      <use xlink:href="#DejaVuSans-74" x="121.638672"/>
      <use xlink:href="#DejaVuSans-75" x="160.847656"/>
      <use xlink:href="#DejaVuSans-61" x="224.226562"/>
      <use xlink:href="#DejaVuSans-6c" x="285.505859"/>
      <use xlink:href="#DejaVuSans-20" x="313.289062"/>
      <use xlink:href="#DejaVuSans-73" x="345.076172"/>
      <use xlink:href="#DejaVuSans-70" x="397.175781"/>
      <use xlink:href="#DejaVuSans-65" x="460.652344"/>
      <use xlink:href="#DejaVuSans-65" x="522.175781"/>
      <use xlink:href="#DejaVuSans-64" x="583.699219"/>
     </g>
    </g>
   </g>
  </g>
 </g>
 <defs>
  <clipPath id="pbf9104629e">
   <rect x="57.6" y="41.472" width="357.12" height="266.112"/>
  </clipPath>
 </defs>
</svg>
