<?xml version="1.0" encoding="utf-8" standalone="no"?>
<!DOCTYPE svg PUBLIC "-//W3C//DTD SVG 1.1//EN"
  "http://www.w3.org/Graphics/SVG/1.1/DTD/svg11.dtd">
<svg xmlns:xlink="http://www.w3.org/1999/xlink" width="460.8pt" height="345.6pt" viewBox="0 0 460.8 345.6" xmlns="http://www.w3.org/2000/svg" version="1.1">
 <metadata>
  <rdf:RDF xmlns:dc="http://purl.org/dc/elements/1.1/" xmlns:cc="http://creativecommons.org/ns#" xmlns:rdf="http://www.w3.org/1999/02/22-rdf-syntax-ns#">
   <cc:Work>
    <dc:type rdf:resource="http://purl.org/dc/dcmitype/StillImage"/>
    <dc:date>2024-01-30T20:58:49.911576</dc:date>
    <dc:format>image/svg+xml</dc:format>
    <dc:creator>
     <cc:Agent>
      <dc:title>Matplotlib v3.7.1, https://matplotlib.org/</dc:title>
     </cc:Agent>
    </dc:creator>
   </cc:Work>
  </rdf:RDF>
 </metadata>
 <defs>
  <style type="text/css">*{stroke-linejoin: round; stroke-linecap: butt}</style>
 </defs>
 <g id="figure_1">
  <g id="patch_1">
   <path d="M 0 345.6 
L 460.8 345.6 
L 460.8 0 
L 0 0 
z
" style="fill: #ffffff"/>
  </g>
  <g id="axes_1">
   <g id="patch_2">
    <path d="M 57.6 307.584 
L 414.72 307.584 
L 414.72 41.472 
L 57.6 41.472 
z
" style="fill: #ffffff"/>
   </g>
   <g id="matplotlib.axis_1">
    <g id="xtick_1">
     <g id="line2d_1">
      <path d="M 73.832727 307.584 
L 73.832727 41.472 
" clip-path="url(#p68b505d96d)" style="fill: none; stroke: #b0b0b0; stroke-width: 0.8; stroke-linecap: square"/>
     </g>
     <g id="line2d_2">
      <defs>
       <path id="me1fbb069e8" d="M 0 0 
L 0 3.5 
" style="stroke: #000000; stroke-width: 0.8"/>
      </defs>
      <g>
       <use xlink:href="#me1fbb069e8" x="73.832727" y="307.584" style="stroke: #000000; stroke-width: 0.8"/>
      </g>
     </g>
     <g id="text_1">
      <!-- 0 -->
      <g transform="translate(70.651477 322.182437) scale(0.1 -0.1)">
       <defs>
        <path id="DejaVuSans-30" d="M 2034 4250 
Q 1547 4250 1301 3770 
Q 1056 3291 1056 2328 
Q 1056 1369 1301 889 
Q 1547 409 2034 409 
Q 2525 409 2770 889 
Q 3016 1369 3016 2328 
Q 3016 3291 2770 3770 
Q 2525 4250 2034 4250 
z
M 2034 4750 
Q 2819 4750 3233 4129 
Q 3647 3509 3647 2328 
Q 3647 1150 3233 529 
Q 2819 -91 2034 -91 
Q 1250 -91 836 529 
Q 422 1150 422 2328 
Q 422 3509 836 4129 
Q 1250 4750 2034 4750 
z
" transform="scale(0.015625)"/>
       </defs>
       <use xlink:href="#DejaVuSans-30"/>
      </g>
     </g>
    </g>
    <g id="xtick_2">
     <g id="line2d_3">
      <path d="M 118.015436 307.584 
L 118.015436 41.472 
" clip-path="url(#p68b505d96d)" style="fill: none; stroke: #b0b0b0; stroke-width: 0.8; stroke-linecap: square"/>
     </g>
     <g id="line2d_4">
      <g>
       <use xlink:href="#me1fbb069e8" x="118.015436" y="307.584" style="stroke: #000000; stroke-width: 0.8"/>
      </g>
     </g>
     <g id="text_2">
      <!-- 5 -->
      <g transform="translate(114.834186 322.182437) scale(0.1 -0.1)">
       <defs>
        <path id="DejaVuSans-35" d="M 691 4666 
L 3169 4666 
L 3169 4134 
L 1269 4134 
L 1269 2991 
Q 1406 3038 1543 3061 
Q 1681 3084 1819 3084 
Q 2600 3084 3056 2656 
Q 3513 2228 3513 1497 
Q 3513 744 3044 326 
Q 2575 -91 1722 -91 
Q 1428 -91 1123 -41 
Q 819 9 494 109 
L 494 744 
Q 775 591 1075 516 
Q 1375 441 1709 441 
Q 2250 441 2565 725 
Q 2881 1009 2881 1497 
Q 2881 1984 2565 2268 
Q 2250 2553 1709 2553 
Q 1456 2553 1204 2497 
Q 953 2441 691 2322 
L 691 4666 
z
" transform="scale(0.015625)"/>
       </defs>
       <use xlink:href="#DejaVuSans-35"/>
      </g>
     </g>
    </g>
    <g id="xtick_3">
     <g id="line2d_5">
      <path d="M 162.198145 307.584 
L 162.198145 41.472 
" clip-path="url(#p68b505d96d)" style="fill: none; stroke: #b0b0b0; stroke-width: 0.8; stroke-linecap: square"/>
     </g>
     <g id="line2d_6">
      <g>
       <use xlink:href="#me1fbb069e8" x="162.198145" y="307.584" style="stroke: #000000; stroke-width: 0.8"/>
      </g>
     </g>
     <g id="text_3">
      <!-- 10 -->
      <g transform="translate(155.835645 322.182437) scale(0.1 -0.1)">
       <defs>
        <path id="DejaVuSans-31" d="M 794 531 
L 1825 531 
L 1825 4091 
L 703 3866 
L 703 4441 
L 1819 4666 
L 2450 4666 
L 2450 531 
L 3481 531 
L 3481 0 
L 794 0 
L 794 531 
z
" transform="scale(0.015625)"/>
       </defs>
       <use xlink:href="#DejaVuSans-31"/>
       <use xlink:href="#DejaVuSans-30" x="63.623047"/>
      </g>
     </g>
    </g>
    <g id="xtick_4">
     <g id="line2d_7">
      <path d="M 206.380854 307.584 
L 206.380854 41.472 
" clip-path="url(#p68b505d96d)" style="fill: none; stroke: #b0b0b0; stroke-width: 0.8; stroke-linecap: square"/>
     </g>
     <g id="line2d_8">
      <g>
       <use xlink:href="#me1fbb069e8" x="206.380854" y="307.584" style="stroke: #000000; stroke-width: 0.8"/>
      </g>
     </g>
     <g id="text_4">
      <!-- 15 -->
      <g transform="translate(200.018354 322.182437) scale(0.1 -0.1)">
       <use xlink:href="#DejaVuSans-31"/>
       <use xlink:href="#DejaVuSans-35" x="63.623047"/>
      </g>
     </g>
    </g>
    <g id="xtick_5">
     <g id="line2d_9">
      <path d="M 250.563563 307.584 
L 250.563563 41.472 
" clip-path="url(#p68b505d96d)" style="fill: none; stroke: #b0b0b0; stroke-width: 0.8; stroke-linecap: square"/>
     </g>
     <g id="line2d_10">
      <g>
       <use xlink:href="#me1fbb069e8" x="250.563563" y="307.584" style="stroke: #000000; stroke-width: 0.8"/>
      </g>
     </g>
     <g id="text_5">
      <!-- 20 -->
      <g transform="translate(244.201063 322.182437) scale(0.1 -0.1)">
       <defs>
        <path id="DejaVuSans-32" d="M 1228 531 
L 3431 531 
L 3431 0 
L 469 0 
L 469 531 
Q 828 903 1448 1529 
Q 2069 2156 2228 2338 
Q 2531 2678 2651 2914 
Q 2772 3150 2772 3378 
Q 2772 3750 2511 3984 
Q 2250 4219 1831 4219 
Q 1534 4219 1204 4116 
Q 875 4013 500 3803 
L 500 4441 
Q 881 4594 1212 4672 
Q 1544 4750 1819 4750 
Q 2544 4750 2975 4387 
Q 3406 4025 3406 3419 
Q 3406 3131 3298 2873 
Q 3191 2616 2906 2266 
Q 2828 2175 2409 1742 
Q 1991 1309 1228 531 
z
" transform="scale(0.015625)"/>
       </defs>
       <use xlink:href="#DejaVuSans-32"/>
       <use xlink:href="#DejaVuSans-30" x="63.623047"/>
      </g>
     </g>
    </g>
    <g id="xtick_6">
     <g id="line2d_11">
      <path d="M 294.746272 307.584 
L 294.746272 41.472 
" clip-path="url(#p68b505d96d)" style="fill: none; stroke: #b0b0b0; stroke-width: 0.8; stroke-linecap: square"/>
     </g>
     <g id="line2d_12">
      <g>
       <use xlink:href="#me1fbb069e8" x="294.746272" y="307.584" style="stroke: #000000; stroke-width: 0.8"/>
      </g>
     </g>
     <g id="text_6">
      <!-- 25 -->
      <g transform="translate(288.383772 322.182437) scale(0.1 -0.1)">
       <use xlink:href="#DejaVuSans-32"/>
       <use xlink:href="#DejaVuSans-35" x="63.623047"/>
      </g>
     </g>
    </g>
    <g id="xtick_7">
     <g id="line2d_13">
      <path d="M 338.928981 307.584 
L 338.928981 41.472 
" clip-path="url(#p68b505d96d)" style="fill: none; stroke: #b0b0b0; stroke-width: 0.8; stroke-linecap: square"/>
     </g>
     <g id="line2d_14">
      <g>
       <use xlink:href="#me1fbb069e8" x="338.928981" y="307.584" style="stroke: #000000; stroke-width: 0.8"/>
      </g>
     </g>
     <g id="text_7">
      <!-- 30 -->
      <g transform="translate(332.566481 322.182437) scale(0.1 -0.1)">
       <defs>
        <path id="DejaVuSans-33" d="M 2597 2516 
Q 3050 2419 3304 2112 
Q 3559 1806 3559 1356 
Q 3559 666 3084 287 
Q 2609 -91 1734 -91 
Q 1441 -91 1130 -33 
Q 819 25 488 141 
L 488 750 
Q 750 597 1062 519 
Q 1375 441 1716 441 
Q 2309 441 2620 675 
Q 2931 909 2931 1356 
Q 2931 1769 2642 2001 
Q 2353 2234 1838 2234 
L 1294 2234 
L 1294 2753 
L 1863 2753 
Q 2328 2753 2575 2939 
Q 2822 3125 2822 3475 
Q 2822 3834 2567 4026 
Q 2313 4219 1838 4219 
Q 1578 4219 1281 4162 
Q 984 4106 628 3988 
L 628 4550 
Q 988 4650 1302 4700 
Q 1616 4750 1894 4750 
Q 2613 4750 3031 4423 
Q 3450 4097 3450 3541 
Q 3450 3153 3228 2886 
Q 3006 2619 2597 2516 
z
" transform="scale(0.015625)"/>
       </defs>
       <use xlink:href="#DejaVuSans-33"/>
       <use xlink:href="#DejaVuSans-30" x="63.623047"/>
      </g>
     </g>
    </g>
    <g id="xtick_8">
     <g id="line2d_15">
      <path d="M 383.11169 307.584 
L 383.11169 41.472 
" clip-path="url(#p68b505d96d)" style="fill: none; stroke: #b0b0b0; stroke-width: 0.8; stroke-linecap: square"/>
     </g>
     <g id="line2d_16">
      <g>
       <use xlink:href="#me1fbb069e8" x="383.11169" y="307.584" style="stroke: #000000; stroke-width: 0.8"/>
      </g>
     </g>
     <g id="text_8">
      <!-- 35 -->
      <g transform="translate(376.74919 322.182437) scale(0.1 -0.1)">
       <use xlink:href="#DejaVuSans-33"/>
       <use xlink:href="#DejaVuSans-35" x="63.623047"/>
      </g>
     </g>
    </g>
    <g id="text_9">
     <!-- Time(s) -->
     <g transform="translate(217.420156 335.860562) scale(0.1 -0.1)">
      <defs>
       <path id="DejaVuSans-54" d="M -19 4666 
L 3928 4666 
L 3928 4134 
L 2272 4134 
L 2272 0 
L 1638 0 
L 1638 4134 
L -19 4134 
L -19 4666 
z
" transform="scale(0.015625)"/>
       <path id="DejaVuSans-69" d="M 603 3500 
L 1178 3500 
L 1178 0 
L 603 0 
L 603 3500 
z
M 603 4863 
L 1178 4863 
L 1178 4134 
L 603 4134 
L 603 4863 
z
" transform="scale(0.015625)"/>
       <path id="DejaVuSans-6d" d="M 3328 2828 
Q 3544 3216 3844 3400 
Q 4144 3584 4550 3584 
Q 5097 3584 5394 3201 
Q 5691 2819 5691 2113 
L 5691 0 
L 5113 0 
L 5113 2094 
Q 5113 2597 4934 2840 
Q 4756 3084 4391 3084 
Q 3944 3084 3684 2787 
Q 3425 2491 3425 1978 
L 3425 0 
L 2847 0 
L 2847 2094 
Q 2847 2600 2669 2842 
Q 2491 3084 2119 3084 
Q 1678 3084 1418 2786 
Q 1159 2488 1159 1978 
L 1159 0 
L 581 0 
L 581 3500 
L 1159 3500 
L 1159 2956 
Q 1356 3278 1631 3431 
Q 1906 3584 2284 3584 
Q 2666 3584 2933 3390 
Q 3200 3197 3328 2828 
z
" transform="scale(0.015625)"/>
       <path id="DejaVuSans-65" d="M 3597 1894 
L 3597 1613 
L 953 1613 
Q 991 1019 1311 708 
Q 1631 397 2203 397 
Q 2534 397 2845 478 
Q 3156 559 3463 722 
L 3463 178 
Q 3153 47 2828 -22 
Q 2503 -91 2169 -91 
Q 1331 -91 842 396 
Q 353 884 353 1716 
Q 353 2575 817 3079 
Q 1281 3584 2069 3584 
Q 2775 3584 3186 3129 
Q 3597 2675 3597 1894 
z
M 3022 2063 
Q 3016 2534 2758 2815 
Q 2500 3097 2075 3097 
Q 1594 3097 1305 2825 
Q 1016 2553 972 2059 
L 3022 2063 
z
" transform="scale(0.015625)"/>
       <path id="DejaVuSans-28" d="M 1984 4856 
Q 1566 4138 1362 3434 
Q 1159 2731 1159 2009 
Q 1159 1288 1364 580 
Q 1569 -128 1984 -844 
L 1484 -844 
Q 1016 -109 783 600 
Q 550 1309 550 2009 
Q 550 2706 781 3412 
Q 1013 4119 1484 4856 
L 1984 4856 
z
" transform="scale(0.015625)"/>
       <path id="DejaVuSans-73" d="M 2834 3397 
L 2834 2853 
Q 2591 2978 2328 3040 
Q 2066 3103 1784 3103 
Q 1356 3103 1142 2972 
Q 928 2841 928 2578 
Q 928 2378 1081 2264 
Q 1234 2150 1697 2047 
L 1894 2003 
Q 2506 1872 2764 1633 
Q 3022 1394 3022 966 
Q 3022 478 2636 193 
Q 2250 -91 1575 -91 
Q 1294 -91 989 -36 
Q 684 19 347 128 
L 347 722 
Q 666 556 975 473 
Q 1284 391 1588 391 
Q 1994 391 2212 530 
Q 2431 669 2431 922 
Q 2431 1156 2273 1281 
Q 2116 1406 1581 1522 
L 1381 1569 
Q 847 1681 609 1914 
Q 372 2147 372 2553 
Q 372 3047 722 3315 
Q 1072 3584 1716 3584 
Q 2034 3584 2315 3537 
Q 2597 3491 2834 3397 
z
" transform="scale(0.015625)"/>
       <path id="DejaVuSans-29" d="M 513 4856 
L 1013 4856 
Q 1481 4119 1714 3412 
Q 1947 2706 1947 2009 
Q 1947 1309 1714 600 
Q 1481 -109 1013 -844 
L 513 -844 
Q 928 -128 1133 580 
Q 1338 1288 1338 2009 
Q 1338 2731 1133 3434 
Q 928 4138 513 4856 
z
" transform="scale(0.015625)"/>
      </defs>
      <use xlink:href="#DejaVuSans-54"/>
      <use xlink:href="#DejaVuSans-69" x="57.958984"/>
      <use xlink:href="#DejaVuSans-6d" x="85.742188"/>
      <use xlink:href="#DejaVuSans-65" x="183.154297"/>
      <use xlink:href="#DejaVuSans-28" x="244.677734"/>
      <use xlink:href="#DejaVuSans-73" x="283.691406"/>
      <use xlink:href="#DejaVuSans-29" x="335.791016"/>
     </g>
    </g>
   </g>
   <g id="matplotlib.axis_2">
    <g id="ytick_1">
     <g id="line2d_17">
      <path d="M 57.6 295.488 
L 414.72 295.488 
" clip-path="url(#p68b505d96d)" style="fill: none; stroke: #b0b0b0; stroke-width: 0.8; stroke-linecap: square"/>
     </g>
     <g id="line2d_18">
      <defs>
       <path id="m0bb0a69759" d="M 0 0 
L -3.5 0 
" style="stroke: #000000; stroke-width: 0.8"/>
      </defs>
      <g>
       <use xlink:href="#m0bb0a69759" x="57.6" y="295.488" style="stroke: #000000; stroke-width: 0.8"/>
      </g>
     </g>
     <g id="text_10">
      <!-- 0.00 -->
      <g transform="translate(28.334375 299.287219) scale(0.1 -0.1)">
       <defs>
        <path id="DejaVuSans-2e" d="M 684 794 
L 1344 794 
L 1344 0 
L 684 0 
L 684 794 
z
" transform="scale(0.015625)"/>
       </defs>
       <use xlink:href="#DejaVuSans-30"/>
       <use xlink:href="#DejaVuSans-2e" x="63.623047"/>
       <use xlink:href="#DejaVuSans-30" x="95.410156"/>
       <use xlink:href="#DejaVuSans-30" x="159.033203"/>
      </g>
     </g>
    </g>
    <g id="ytick_2">
     <g id="line2d_19">
      <path d="M 57.6 265.838216 
L 414.72 265.838216 
" clip-path="url(#p68b505d96d)" style="fill: none; stroke: #b0b0b0; stroke-width: 0.8; stroke-linecap: square"/>
     </g>
     <g id="line2d_20">
      <g>
       <use xlink:href="#m0bb0a69759" x="57.6" y="265.838216" style="stroke: #000000; stroke-width: 0.8"/>
      </g>
     </g>
     <g id="text_11">
      <!-- 0.02 -->
      <g transform="translate(28.334375 269.637435) scale(0.1 -0.1)">
       <use xlink:href="#DejaVuSans-30"/>
       <use xlink:href="#DejaVuSans-2e" x="63.623047"/>
       <use xlink:href="#DejaVuSans-30" x="95.410156"/>
       <use xlink:href="#DejaVuSans-32" x="159.033203"/>
      </g>
     </g>
    </g>
    <g id="ytick_3">
     <g id="line2d_21">
      <path d="M 57.6 236.188432 
L 414.72 236.188432 
" clip-path="url(#p68b505d96d)" style="fill: none; stroke: #b0b0b0; stroke-width: 0.8; stroke-linecap: square"/>
     </g>
     <g id="line2d_22">
      <g>
       <use xlink:href="#m0bb0a69759" x="57.6" y="236.188432" style="stroke: #000000; stroke-width: 0.8"/>
      </g>
     </g>
     <g id="text_12">
      <!-- 0.04 -->
      <g transform="translate(28.334375 239.987651) scale(0.1 -0.1)">
       <defs>
        <path id="DejaVuSans-34" d="M 2419 4116 
L 825 1625 
L 2419 1625 
L 2419 4116 
z
M 2253 4666 
L 3047 4666 
L 3047 1625 
L 3713 1625 
L 3713 1100 
L 3047 1100 
L 3047 0 
L 2419 0 
L 2419 1100 
L 313 1100 
L 313 1709 
L 2253 4666 
z
" transform="scale(0.015625)"/>
       </defs>
       <use xlink:href="#DejaVuSans-30"/>
       <use xlink:href="#DejaVuSans-2e" x="63.623047"/>
       <use xlink:href="#DejaVuSans-30" x="95.410156"/>
       <use xlink:href="#DejaVuSans-34" x="159.033203"/>
      </g>
     </g>
    </g>
    <g id="ytick_4">
     <g id="line2d_23">
      <path d="M 57.6 206.538648 
L 414.72 206.538648 
" clip-path="url(#p68b505d96d)" style="fill: none; stroke: #b0b0b0; stroke-width: 0.8; stroke-linecap: square"/>
     </g>
     <g id="line2d_24">
      <g>
       <use xlink:href="#m0bb0a69759" x="57.6" y="206.538648" style="stroke: #000000; stroke-width: 0.8"/>
      </g>
     </g>
     <g id="text_13">
      <!-- 0.06 -->
      <g transform="translate(28.334375 210.337867) scale(0.1 -0.1)">
       <defs>
        <path id="DejaVuSans-36" d="M 2113 2584 
Q 1688 2584 1439 2293 
Q 1191 2003 1191 1497 
Q 1191 994 1439 701 
Q 1688 409 2113 409 
Q 2538 409 2786 701 
Q 3034 994 3034 1497 
Q 3034 2003 2786 2293 
Q 2538 2584 2113 2584 
z
M 3366 4563 
L 3366 3988 
Q 3128 4100 2886 4159 
Q 2644 4219 2406 4219 
Q 1781 4219 1451 3797 
Q 1122 3375 1075 2522 
Q 1259 2794 1537 2939 
Q 1816 3084 2150 3084 
Q 2853 3084 3261 2657 
Q 3669 2231 3669 1497 
Q 3669 778 3244 343 
Q 2819 -91 2113 -91 
Q 1303 -91 875 529 
Q 447 1150 447 2328 
Q 447 3434 972 4092 
Q 1497 4750 2381 4750 
Q 2619 4750 2861 4703 
Q 3103 4656 3366 4563 
z
" transform="scale(0.015625)"/>
       </defs>
       <use xlink:href="#DejaVuSans-30"/>
       <use xlink:href="#DejaVuSans-2e" x="63.623047"/>
       <use xlink:href="#DejaVuSans-30" x="95.410156"/>
       <use xlink:href="#DejaVuSans-36" x="159.033203"/>
      </g>
     </g>
    </g>
    <g id="ytick_5">
     <g id="line2d_25">
      <path d="M 57.6 176.888864 
L 414.72 176.888864 
" clip-path="url(#p68b505d96d)" style="fill: none; stroke: #b0b0b0; stroke-width: 0.8; stroke-linecap: square"/>
     </g>
     <g id="line2d_26">
      <g>
       <use xlink:href="#m0bb0a69759" x="57.6" y="176.888864" style="stroke: #000000; stroke-width: 0.8"/>
      </g>
     </g>
     <g id="text_14">
      <!-- 0.08 -->
      <g transform="translate(28.334375 180.688083) scale(0.1 -0.1)">
       <defs>
        <path id="DejaVuSans-38" d="M 2034 2216 
Q 1584 2216 1326 1975 
Q 1069 1734 1069 1313 
Q 1069 891 1326 650 
Q 1584 409 2034 409 
Q 2484 409 2743 651 
Q 3003 894 3003 1313 
Q 3003 1734 2745 1975 
Q 2488 2216 2034 2216 
z
M 1403 2484 
Q 997 2584 770 2862 
Q 544 3141 544 3541 
Q 544 4100 942 4425 
Q 1341 4750 2034 4750 
Q 2731 4750 3128 4425 
Q 3525 4100 3525 3541 
Q 3525 3141 3298 2862 
Q 3072 2584 2669 2484 
Q 3125 2378 3379 2068 
Q 3634 1759 3634 1313 
Q 3634 634 3220 271 
Q 2806 -91 2034 -91 
Q 1263 -91 848 271 
Q 434 634 434 1313 
Q 434 1759 690 2068 
Q 947 2378 1403 2484 
z
M 1172 3481 
Q 1172 3119 1398 2916 
Q 1625 2713 2034 2713 
Q 2441 2713 2670 2916 
Q 2900 3119 2900 3481 
Q 2900 3844 2670 4047 
Q 2441 4250 2034 4250 
Q 1625 4250 1398 4047 
Q 1172 3844 1172 3481 
z
" transform="scale(0.015625)"/>
       </defs>
       <use xlink:href="#DejaVuSans-30"/>
       <use xlink:href="#DejaVuSans-2e" x="63.623047"/>
       <use xlink:href="#DejaVuSans-30" x="95.410156"/>
       <use xlink:href="#DejaVuSans-38" x="159.033203"/>
      </g>
     </g>
    </g>
    <g id="ytick_6">
     <g id="line2d_27">
      <path d="M 57.6 147.23908 
L 414.72 147.23908 
" clip-path="url(#p68b505d96d)" style="fill: none; stroke: #b0b0b0; stroke-width: 0.8; stroke-linecap: square"/>
     </g>
     <g id="line2d_28">
      <g>
       <use xlink:href="#m0bb0a69759" x="57.6" y="147.23908" style="stroke: #000000; stroke-width: 0.8"/>
      </g>
     </g>
     <g id="text_15">
      <!-- 0.10 -->
      <g transform="translate(28.334375 151.038299) scale(0.1 -0.1)">
       <use xlink:href="#DejaVuSans-30"/>
       <use xlink:href="#DejaVuSans-2e" x="63.623047"/>
       <use xlink:href="#DejaVuSans-31" x="95.410156"/>
       <use xlink:href="#DejaVuSans-30" x="159.033203"/>
      </g>
     </g>
    </g>
    <g id="ytick_7">
     <g id="line2d_29">
      <path d="M 57.6 117.589296 
L 414.72 117.589296 
" clip-path="url(#p68b505d96d)" style="fill: none; stroke: #b0b0b0; stroke-width: 0.8; stroke-linecap: square"/>
     </g>
     <g id="line2d_30">
      <g>
       <use xlink:href="#m0bb0a69759" x="57.6" y="117.589296" style="stroke: #000000; stroke-width: 0.8"/>
      </g>
     </g>
     <g id="text_16">
      <!-- 0.12 -->
      <g transform="translate(28.334375 121.388515) scale(0.1 -0.1)">
       <use xlink:href="#DejaVuSans-30"/>
       <use xlink:href="#DejaVuSans-2e" x="63.623047"/>
       <use xlink:href="#DejaVuSans-31" x="95.410156"/>
       <use xlink:href="#DejaVuSans-32" x="159.033203"/>
      </g>
     </g>
    </g>
    <g id="ytick_8">
     <g id="line2d_31">
      <path d="M 57.6 87.939512 
L 414.72 87.939512 
" clip-path="url(#p68b505d96d)" style="fill: none; stroke: #b0b0b0; stroke-width: 0.8; stroke-linecap: square"/>
     </g>
     <g id="line2d_32">
      <g>
       <use xlink:href="#m0bb0a69759" x="57.6" y="87.939512" style="stroke: #000000; stroke-width: 0.8"/>
      </g>
     </g>
     <g id="text_17">
      <!-- 0.14 -->
      <g transform="translate(28.334375 91.738731) scale(0.1 -0.1)">
       <use xlink:href="#DejaVuSans-30"/>
       <use xlink:href="#DejaVuSans-2e" x="63.623047"/>
       <use xlink:href="#DejaVuSans-31" x="95.410156"/>
       <use xlink:href="#DejaVuSans-34" x="159.033203"/>
      </g>
     </g>
    </g>
    <g id="ytick_9">
     <g id="line2d_33">
      <path d="M 57.6 58.289728 
L 414.72 58.289728 
" clip-path="url(#p68b505d96d)" style="fill: none; stroke: #b0b0b0; stroke-width: 0.8; stroke-linecap: square"/>
     </g>
     <g id="line2d_34">
      <g>
       <use xlink:href="#m0bb0a69759" x="57.6" y="58.289728" style="stroke: #000000; stroke-width: 0.8"/>
      </g>
     </g>
     <g id="text_18">
      <!-- 0.16 -->
      <g transform="translate(28.334375 62.088947) scale(0.1 -0.1)">
       <use xlink:href="#DejaVuSans-30"/>
       <use xlink:href="#DejaVuSans-2e" x="63.623047"/>
       <use xlink:href="#DejaVuSans-31" x="95.410156"/>
       <use xlink:href="#DejaVuSans-36" x="159.033203"/>
      </g>
     </g>
    </g>
    <g id="text_19">
     <!-- Tracking error(m) -->
     <g transform="translate(22.254687 217.803781) rotate(-90) scale(0.1 -0.1)">
      <defs>
       <path id="DejaVuSans-72" d="M 2631 2963 
Q 2534 3019 2420 3045 
Q 2306 3072 2169 3072 
Q 1681 3072 1420 2755 
Q 1159 2438 1159 1844 
L 1159 0 
L 581 0 
L 581 3500 
L 1159 3500 
L 1159 2956 
Q 1341 3275 1631 3429 
Q 1922 3584 2338 3584 
Q 2397 3584 2469 3576 
Q 2541 3569 2628 3553 
L 2631 2963 
z
" transform="scale(0.015625)"/>
       <path id="DejaVuSans-61" d="M 2194 1759 
Q 1497 1759 1228 1600 
Q 959 1441 959 1056 
Q 959 750 1161 570 
Q 1363 391 1709 391 
Q 2188 391 2477 730 
Q 2766 1069 2766 1631 
L 2766 1759 
L 2194 1759 
z
M 3341 1997 
L 3341 0 
L 2766 0 
L 2766 531 
Q 2569 213 2275 61 
Q 1981 -91 1556 -91 
Q 1019 -91 701 211 
Q 384 513 384 1019 
Q 384 1609 779 1909 
Q 1175 2209 1959 2209 
L 2766 2209 
L 2766 2266 
Q 2766 2663 2505 2880 
Q 2244 3097 1772 3097 
Q 1472 3097 1187 3025 
Q 903 2953 641 2809 
L 641 3341 
Q 956 3463 1253 3523 
Q 1550 3584 1831 3584 
Q 2591 3584 2966 3190 
Q 3341 2797 3341 1997 
z
" transform="scale(0.015625)"/>
       <path id="DejaVuSans-63" d="M 3122 3366 
L 3122 2828 
Q 2878 2963 2633 3030 
Q 2388 3097 2138 3097 
Q 1578 3097 1268 2742 
Q 959 2388 959 1747 
Q 959 1106 1268 751 
Q 1578 397 2138 397 
Q 2388 397 2633 464 
Q 2878 531 3122 666 
L 3122 134 
Q 2881 22 2623 -34 
Q 2366 -91 2075 -91 
Q 1284 -91 818 406 
Q 353 903 353 1747 
Q 353 2603 823 3093 
Q 1294 3584 2113 3584 
Q 2378 3584 2631 3529 
Q 2884 3475 3122 3366 
z
" transform="scale(0.015625)"/>
       <path id="DejaVuSans-6b" d="M 581 4863 
L 1159 4863 
L 1159 1991 
L 2875 3500 
L 3609 3500 
L 1753 1863 
L 3688 0 
L 2938 0 
L 1159 1709 
L 1159 0 
L 581 0 
L 581 4863 
z
" transform="scale(0.015625)"/>
       <path id="DejaVuSans-6e" d="M 3513 2113 
L 3513 0 
L 2938 0 
L 2938 2094 
Q 2938 2591 2744 2837 
Q 2550 3084 2163 3084 
Q 1697 3084 1428 2787 
Q 1159 2491 1159 1978 
L 1159 0 
L 581 0 
L 581 3500 
L 1159 3500 
L 1159 2956 
Q 1366 3272 1645 3428 
Q 1925 3584 2291 3584 
Q 2894 3584 3203 3211 
Q 3513 2838 3513 2113 
z
" transform="scale(0.015625)"/>
       <path id="DejaVuSans-67" d="M 2906 1791 
Q 2906 2416 2648 2759 
Q 2391 3103 1925 3103 
Q 1463 3103 1205 2759 
Q 947 2416 947 1791 
Q 947 1169 1205 825 
Q 1463 481 1925 481 
Q 2391 481 2648 825 
Q 2906 1169 2906 1791 
z
M 3481 434 
Q 3481 -459 3084 -895 
Q 2688 -1331 1869 -1331 
Q 1566 -1331 1297 -1286 
Q 1028 -1241 775 -1147 
L 775 -588 
Q 1028 -725 1275 -790 
Q 1522 -856 1778 -856 
Q 2344 -856 2625 -561 
Q 2906 -266 2906 331 
L 2906 616 
Q 2728 306 2450 153 
Q 2172 0 1784 0 
Q 1141 0 747 490 
Q 353 981 353 1791 
Q 353 2603 747 3093 
Q 1141 3584 1784 3584 
Q 2172 3584 2450 3431 
Q 2728 3278 2906 2969 
L 2906 3500 
L 3481 3500 
L 3481 434 
z
" transform="scale(0.015625)"/>
       <path id="DejaVuSans-20" transform="scale(0.015625)"/>
       <path id="DejaVuSans-6f" d="M 1959 3097 
Q 1497 3097 1228 2736 
Q 959 2375 959 1747 
Q 959 1119 1226 758 
Q 1494 397 1959 397 
Q 2419 397 2687 759 
Q 2956 1122 2956 1747 
Q 2956 2369 2687 2733 
Q 2419 3097 1959 3097 
z
M 1959 3584 
Q 2709 3584 3137 3096 
Q 3566 2609 3566 1747 
Q 3566 888 3137 398 
Q 2709 -91 1959 -91 
Q 1206 -91 779 398 
Q 353 888 353 1747 
Q 353 2609 779 3096 
Q 1206 3584 1959 3584 
z
" transform="scale(0.015625)"/>
      </defs>
      <use xlink:href="#DejaVuSans-54"/>
      <use xlink:href="#DejaVuSans-72" x="46.333984"/>
      <use xlink:href="#DejaVuSans-61" x="87.447266"/>
      <use xlink:href="#DejaVuSans-63" x="148.726562"/>
      <use xlink:href="#DejaVuSans-6b" x="203.707031"/>
      <use xlink:href="#DejaVuSans-69" x="261.617188"/>
      <use xlink:href="#DejaVuSans-6e" x="289.400391"/>
      <use xlink:href="#DejaVuSans-67" x="352.779297"/>
      <use xlink:href="#DejaVuSans-20" x="416.255859"/>
      <use xlink:href="#DejaVuSans-65" x="448.042969"/>
      <use xlink:href="#DejaVuSans-72" x="509.566406"/>
      <use xlink:href="#DejaVuSans-72" x="548.929688"/>
      <use xlink:href="#DejaVuSans-6f" x="587.792969"/>
      <use xlink:href="#DejaVuSans-72" x="648.974609"/>
      <use xlink:href="#DejaVuSans-28" x="690.087891"/>
      <use xlink:href="#DejaVuSans-6d" x="729.101562"/>
      <use xlink:href="#DejaVuSans-29" x="826.513672"/>
     </g>
    </g>
   </g>
   <g id="line2d_35">
    <path d="M 73.832727 253.721832 
L 74.009458 253.114011 
L 74.009458 253.114011 
L 74.36292 271.124772 
L 74.36292 271.124772 
L 75.069843 294.146347 
L 75.069843 294.146347 
L 75.246574 291.698758 
L 75.246574 291.698758 
L 75.776766 280.144237 
L 75.776766 280.144237 
L 76.130228 276.438014 
L 76.130228 276.438014 
L 76.48369 274.942182 
L 76.48369 274.942182 
L 76.660421 274.810241 
L 77.367344 275.140836 
L 77.367344 275.140836 
L 78.427729 273.584222 
L 78.427729 273.584222 
L 78.60446 273.787323 
L 78.60446 273.787323 
L 78.957922 275.376552 
L 78.957922 275.376552 
L 79.488114 279.105012 
L 79.488114 279.105012 
L 80.018307 282.874982 
L 80.018307 282.874982 
L 80.371768 284.026876 
L 80.371768 284.026876 
L 80.72523 284.594669 
L 80.72523 284.594669 
L 81.078692 284.889685 
L 81.078692 284.889685 
L 81.255422 285.177288 
L 81.255422 285.177288 
L 81.432153 285.715431 
L 81.432153 285.715431 
L 81.785615 287.805741 
L 81.785615 287.805741 
L 82.492538 293.42141 
L 82.492538 293.42141 
L 82.669269 295.488 
L 82.669269 295.488 
L 82.846 295.250802 
L 82.846 295.250802 
L 83.199462 294.417643 
L 83.199462 294.417643 
L 83.376192 294.319799 
L 83.376192 294.319799 
L 83.552923 295.488 
L 83.552923 295.488 
L 83.729654 294.645946 
L 83.729654 294.645946 
L 84.259847 295.313066 
L 84.259847 295.313066 
L 84.436577 295.488 
L 84.436577 295.488 
L 85.850424 287.758301 
L 85.850424 287.758301 
L 86.203886 287.349134 
L 86.203886 287.349134 
L 86.380617 287.389162 
L 86.380617 287.389162 
L 86.557347 287.575955 
L 86.557347 287.575955 
L 86.910809 288.376499 
L 86.910809 288.376499 
L 87.08754 288.581083 
L 87.08754 288.581083 
L 87.264271 288.56181 
L 87.264271 288.56181 
L 87.617732 287.709379 
L 87.617732 287.709379 
L 88.678117 282.48657 
L 88.678117 282.48657 
L 88.854848 282.470262 
L 88.854848 282.470262 
L 89.031579 282.84385 
L 89.20831 283.500592 
L 89.20831 283.500592 
L 89.915233 289.858989 
L 89.915233 289.858989 
L 90.445426 294.937997 
L 90.445426 294.937997 
L 91.152349 289.000627 
L 91.152349 289.000627 
L 91.682542 284.594669 
L 91.682542 284.594669 
L 92.036003 280.194641 
L 92.036003 280.194641 
L 93.626581 255.838826 
L 93.626581 255.838826 
L 93.980043 253.735174 
L 93.980043 253.735174 
L 94.156773 253.22668 
L 94.156773 253.22668 
L 94.863697 258.324961 
L 94.863697 258.324961 
L 95.924082 267.664643 
L 95.924082 267.664643 
L 96.100813 267.489709 
L 96.100813 267.489709 
L 96.454274 263.746424 
L 96.454274 263.746424 
L 96.807736 255.153916 
L 96.807736 255.153916 
L 98.044852 215.120778 
L 98.044852 215.120778 
L 98.221583 217.113243 
L 98.221583 217.113243 
L 98.398313 215.337221 
L 98.398313 215.337221 
L 98.575044 218.804764 
L 98.575044 218.804764 
L 98.751775 219.165009 
L 98.751775 219.165009 
L 98.928506 217.802601 
L 98.928506 217.802601 
L 99.105237 226.073408 
L 99.105237 226.073408 
L 99.281968 226.120848 
L 99.281968 226.120848 
L 99.458698 233.614831 
L 99.458698 233.614831 
L 99.635429 233.758632 
L 99.635429 233.758632 
L 99.81216 239.955437 
L 99.81216 239.955437 
L 99.988891 240.056246 
L 99.988891 240.056246 
L 100.165622 245.0552 
L 100.165622 245.0552 
L 100.342353 245.144149 
L 100.342353 245.144149 
L 100.519083 242.254778 
L 100.519083 242.254778 
L 100.695814 249.615337 
L 100.695814 249.615337 
L 100.872545 247.350093 
L 100.872545 247.350093 
L 101.049276 253.779649 
L 101.049276 253.779649 
L 101.226007 252.328292 
L 101.226007 252.328292 
L 101.402738 257.889109 
L 101.402738 257.889109 
L 101.579469 257.104872 
L 101.579469 257.104872 
L 101.756199 261.215815 
L 101.756199 261.215815 
L 101.93293 260.410823 
L 101.93293 260.410823 
L 102.109661 261.917032 
L 102.109661 261.917032 
L 102.463123 257.276841 
L 102.463123 257.276841 
L 102.639854 251.839071 
L 102.639854 251.839071 
L 102.816584 240.94574 
L 102.816584 240.94574 
L 102.993315 241.495743 
L 102.993315 241.495743 
L 103.170046 231.244331 
L 103.170046 231.244331 
L 103.346777 233.835722 
L 103.346777 233.835722 
L 103.523508 227.081501 
L 103.523508 227.081501 
L 103.700239 231.703902 
L 103.700239 231.703902 
L 103.876969 228.985017 
L 103.876969 228.985017 
L 104.0537 234.968343 
L 104.0537 234.968343 
L 104.230431 235.493145 
L 104.230431 235.493145 
L 104.407162 233.604453 
L 104.407162 233.604453 
L 104.583893 246.300491 
L 104.583893 246.300491 
L 104.760624 247.763708 
L 104.760624 247.763708 
L 104.937354 260.640609 
L 104.937354 260.640609 
L 105.114085 264.764894 
L 105.114085 264.764894 
L 105.467547 285.464891 
L 105.467547 285.464891 
L 105.644278 291.507516 
L 105.644278 291.507516 
L 105.997739 267.898876 
L 105.997739 267.898876 
L 106.704663 216.429816 
L 106.704663 216.429816 
L 107.588317 145.113191 
L 107.588317 145.113191 
L 108.118509 112.108534 
L 108.118509 112.108534 
L 108.29524 109.17024 
L 108.29524 109.17024 
L 108.648702 99.295379 
L 108.648702 99.295379 
L 109.002164 110.23022 
L 109.002164 110.23022 
L 109.178894 115.122434 
L 109.178894 115.122434 
L 109.885818 176.896276 
L 109.885818 176.896276 
L 110.592741 222.688885 
L 110.592741 222.688885 
L 110.946203 238.429956 
L 110.946203 238.429956 
L 111.122934 241.826338 
L 111.122934 241.826338 
L 111.299664 249.701321 
L 111.299664 249.701321 
L 111.653126 253.720349 
L 111.653126 253.720349 
L 111.829857 260.996406 
L 111.829857 260.996406 
L 112.006588 262.870273 
L 112.006588 262.870273 
L 112.183319 263.26758 
L 112.183319 263.26758 
L 112.360049 270.854959 
L 112.360049 270.854959 
L 112.53678 272.488663 
L 112.53678 272.488663 
L 112.890242 281.896539 
L 112.890242 281.896539 
L 113.066973 284.043183 
L 113.066973 284.043183 
L 113.420435 295.488 
L 113.420435 295.488 
L 113.597165 292.091617 
L 113.597165 292.091617 
L 113.950627 278.139911 
L 113.950627 278.139911 
L 114.127358 273.434491 
L 114.127358 273.434491 
L 114.48082 255.524539 
L 114.48082 255.524539 
L 114.65755 248.484197 
L 116.424859 128.736132 
L 116.424859 128.736132 
L 116.955051 102.573163 
L 116.955051 102.573163 
L 117.308513 91.536031 
L 117.308513 91.536031 
L 117.485244 91.003817 
L 117.485244 91.003817 
L 117.661975 88.975772 
L 117.661975 88.975772 
L 118.015436 90.61244 
L 118.015436 90.61244 
L 118.192167 90.897078 
L 118.192167 90.897078 
L 118.545629 99.210877 
L 118.545629 99.210877 
L 118.72236 100.746736 
L 118.72236 100.746736 
L 119.252552 123.709011 
L 119.252552 123.709011 
L 119.606014 137.469476 
L 119.606014 137.469476 
L 121.550053 295.127755 
L 121.550053 295.127755 
L 122.433707 250.398091 
L 122.433707 250.398091 
L 122.610438 248.429345 
L 122.610438 248.429345 
L 122.787169 242.28591 
L 122.787169 242.28591 
L 122.9639 242.213268 
L 122.9639 242.213268 
L 123.14063 244.926223 
L 123.14063 244.926223 
L 123.317361 239.541823 
L 123.317361 239.541823 
L 123.494092 242.374859 
L 123.494092 242.374859 
L 123.670823 238.82578 
L 123.670823 238.82578 
L 123.847554 241.089541 
L 123.847554 241.089541 
L 124.024285 238.512975 
L 124.024285 238.512975 
L 124.201015 239.408399 
L 124.201015 239.408399 
L 124.377746 242.081327 
L 124.377746 242.081327 
L 124.554477 237.239517 
L 124.554477 237.239517 
L 124.731208 238.736831 
L 124.731208 238.736831 
L 124.907939 234.940176 
L 124.907939 234.940176 
L 125.08467 235.568752 
L 125.08467 235.568752 
L 125.261401 238.372139 
L 125.261401 238.372139 
L 125.438131 233.967663 
L 125.438131 233.967663 
L 125.614862 236.77105 
L 125.614862 236.77105 
L 125.791593 234.588826 
L 125.791593 234.588826 
L 125.968324 237.841407 
L 125.968324 237.841407 
L 126.145055 238.166073 
L 126.145055 238.166073 
L 126.851978 253.512801 
L 126.851978 253.512801 
L 127.028709 254.141376 
L 127.028709 254.141376 
L 127.382171 263.95842 
L 127.382171 263.95842 
L 127.558901 262.180915 
L 127.558901 262.180915 
L 127.735632 265.770022 
L 127.735632 265.770022 
L 127.912363 264.425404 
L 127.912363 264.425404 
L 128.089094 266.478651 
L 128.089094 266.478651 
L 128.265825 269.875034 
L 128.265825 269.875034 
L 128.442556 267.090919 
L 128.442556 267.090919 
L 128.619286 269.802392 
L 128.619286 269.802392 
L 128.796017 268.291736 
L 128.796017 268.291736 
L 128.972748 270.131505 
L 128.972748 270.131505 
L 129.149479 273.431526 
L 129.149479 273.431526 
L 129.32621 270.626656 
L 129.32621 270.626656 
L 129.502941 272.315211 
L 129.502941 272.315211 
L 129.679671 269.852797 
L 129.679671 269.852797 
L 129.856402 270.184874 
L 129.856402 270.184874 
L 130.033133 271.562107 
L 130.033133 271.562107 
L 130.209864 266.859651 
L 130.209864 266.859651 
L 130.386595 266.446037 
L 130.386595 266.446037 
L 130.740056 261.14762 
L 130.740056 261.14762 
L 130.916787 260.947484 
L 130.916787 260.947484 
L 131.093518 256.006348 
L 131.093518 256.006348 
L 131.270249 255.284375 
L 131.270249 255.284375 
L 131.44698 256.372522 
L 131.44698 256.372522 
L 131.623711 251.404701 
L 131.623711 251.404701 
L 131.800441 252.223035 
L 131.800441 252.223035 
L 131.977172 249.354419 
L 131.977172 249.354419 
L 132.153903 250.12976 
L 132.153903 250.12976 
L 132.330634 252.574385 
L 132.330634 252.574385 
L 132.507365 250.312107 
L 132.507365 250.312107 
L 132.860826 256.584518 
L 132.860826 256.584518 
L 133.037557 254.348925 
L 133.037557 254.348925 
L 133.214288 257.150829 
L 133.214288 257.150829 
L 133.391019 256.077507 
L 133.391019 256.077507 
L 133.744481 259.487232 
L 133.744481 259.487232 
L 133.921211 256.652713 
L 133.921211 256.652713 
L 134.097942 256.823199 
L 134.097942 256.823199 
L 134.274673 257.70528 
L 134.274673 257.70528 
L 134.451404 253.6314 
L 134.451404 253.6314 
L 134.628135 253.234093 
L 134.804866 253.640295 
L 134.804866 253.640295 
L 134.981596 249.142423 
L 134.981596 249.142423 
L 135.158327 248.890399 
L 135.158327 248.890399 
L 135.335058 249.478948 
L 135.335058 249.478948 
L 135.511789 244.997383 
L 135.511789 244.997383 
L 135.68852 244.601558 
L 135.68852 244.601558 
L 135.865251 244.831344 
L 136.041981 240.057729 
L 136.041981 240.057729 
L 136.395443 238.524835 
L 136.395443 238.524835 
L 136.748905 230.918183 
L 136.748905 230.918183 
L 136.925636 228.953885 
L 136.925636 228.953885 
L 137.279097 218.950048 
L 137.279097 218.950048 
L 137.455828 215.784933 
L 137.455828 215.784933 
L 137.80929 204.53877 
L 137.80929 204.53877 
L 137.986021 200.982279 
L 137.986021 200.982279 
L 138.339482 191.048118 
L 138.339482 191.048118 
L 138.692944 182.686879 
L 138.692944 182.686879 
L 139.753329 163.749562 
L 139.753329 163.749562 
L 139.93006 161.435397 
L 139.93006 161.435397 
L 140.283522 153.37362 
L 140.283522 153.37362 
L 140.636983 147.861726 
L 140.636983 147.861726 
L 140.990445 140.241731 
L 140.990445 140.241731 
L 141.697368 131.950169 
L 141.697368 131.950169 
L 141.874099 131.385341 
L 141.874099 131.385341 
L 142.05083 131.331971 
L 142.05083 131.331971 
L 142.227561 131.787095 
L 142.227561 131.787095 
L 142.404292 131.14666 
L 142.404292 131.14666 
L 142.757753 133.514195 
L 142.757753 133.514195 
L 143.641407 142.604819 
L 143.641407 142.604819 
L 144.878523 161.61033 
L 144.878523 161.61033 
L 145.762177 181.835931 
L 145.762177 181.835931 
L 146.645832 209.558479 
L 146.645832 209.558479 
L 148.236409 265.562473 
L 148.236409 265.562473 
L 148.943333 280.879551 
L 148.943333 280.879551 
L 150.180448 293.40955 
L 150.180448 293.40955 
L 150.357179 295.096623 
L 150.357179 295.096623 
L 150.887372 292.288788 
L 150.887372 292.288788 
L 151.064103 291.965606 
L 151.064103 291.965606 
L 151.240833 292.213181 
L 151.594295 293.740145 
L 151.594295 293.740145 
L 151.771026 295.369401 
L 151.771026 295.369401 
L 152.477949 289.998342 
L 152.477949 289.998342 
L 152.65468 289.59214 
L 152.65468 289.59214 
L 152.831411 289.688502 
L 152.831411 289.688502 
L 153.008142 290.152521 
L 153.008142 290.152521 
L 153.184873 290.953066 
L 153.184873 290.953066 
L 153.538334 295.390156 
L 153.538334 295.390156 
L 153.891796 288.471379 
L 153.891796 288.471379 
L 155.305643 253.530591 
L 155.305643 253.530591 
L 155.482373 252.349047 
L 155.482373 252.349047 
L 155.835835 247.194432 
L 155.835835 247.194432 
L 156.012566 249.081641 
L 156.012566 249.081641 
L 156.189297 246.887557 
L 156.189297 246.887557 
L 156.366028 248.853337 
L 156.366028 248.853337 
L 156.542758 246.933514 
L 156.542758 246.933514 
L 156.719489 248.47975 
L 156.719489 248.47975 
L 156.89622 246.250086 
L 156.89622 246.250086 
L 157.072951 246.835669 
L 157.072951 246.835669 
L 157.249682 244.053037 
L 157.249682 244.053037 
L 157.426413 243.766917 
L 157.426413 243.766917 
L 157.603143 240.349779 
L 157.603143 240.349779 
L 157.779874 239.154893 
L 157.779874 239.154893 
L 158.310067 229.744051 
L 158.310067 229.744051 
L 158.486798 228.221535 
L 158.486798 228.221535 
L 158.663528 224.662078 
L 158.663528 224.662078 
L 158.840259 223.557624 
L 158.840259 223.557624 
L 159.900644 200.710983 
L 159.900644 200.710983 
L 160.961029 149.504324 
L 160.961029 149.504324 
L 161.13776 134.443716 
L 161.13776 134.443716 
L 161.314491 128.882899 
L 161.314491 128.882899 
L 161.491222 113.027677 
L 161.491222 113.027677 
L 161.667953 109.059053 
L 161.667953 109.059053 
L 161.844684 93.922838 
L 162.021414 92.570808 
L 162.021414 92.570808 
L 162.198145 78.381904 
L 162.198145 78.381904 
L 162.374876 78.553873 
L 162.374876 78.553873 
L 162.551607 65.164031 
L 162.551607 65.164031 
L 162.728338 67.28399 
L 162.728338 67.28399 
L 162.905069 55.867341 
L 162.905069 55.867341 
L 163.081799 60.617236 
L 163.081799 60.617236 
L 163.25853 61.195407 
L 163.25853 61.195407 
L 163.435261 56.568558 
L 163.435261 56.568558 
L 163.611992 57.871666 
L 163.611992 57.871666 
L 163.788723 53.793338 
L 163.788723 53.793338 
L 163.965454 56.792414 
L 163.965454 56.792414 
L 164.142184 53.568 
L 164.142184 53.568 
L 164.318915 58.126654 
L 164.318915 58.126654 
L 164.495646 55.478929 
L 164.495646 55.478929 
L 164.672377 60.769933 
L 164.672377 60.769933 
L 164.849108 57.721935 
L 164.849108 57.721935 
L 165.025839 63.951354 
L 165.025839 63.951354 
L 165.202569 61.806192 
L 165.202569 61.806192 
L 165.3793 70.265276 
L 165.3793 70.265276 
L 165.556031 69.470662 
L 165.556031 69.470662 
L 165.732762 79.163176 
L 165.732762 79.163176 
L 165.909493 79.01641 
L 165.909493 79.01641 
L 166.086224 89.628067 
L 166.086224 89.628067 
L 166.262954 90.145456 
L 166.262954 90.145456 
L 166.439685 101.228545 
L 166.439685 101.228545 
L 166.616416 101.769654 
L 166.616416 101.769654 
L 166.793147 112.114463 
L 166.793147 112.114463 
L 166.969878 111.300577 
L 166.969878 111.300577 
L 167.146609 120.781095 
L 167.146609 120.781095 
L 167.323339 119.400898 
L 167.323339 119.400898 
L 167.676801 134.384416 
L 167.676801 134.384416 
L 167.853532 135.540758 
L 167.853532 135.540758 
L 168.030263 141.270579 
L 168.030263 141.270579 
L 168.206994 141.847267 
L 168.206994 141.847267 
L 168.383724 147.335442 
L 168.383724 147.335442 
L 168.560455 147.142718 
L 168.560455 147.142718 
L 168.737186 152.891811 
L 168.737186 152.891811 
L 168.913917 152.196524 
L 168.913917 152.196524 
L 169.090648 157.490493 
L 169.090648 157.490493 
L 169.267379 156.091023 
L 169.267379 156.091023 
L 169.444109 161.703727 
L 169.444109 161.703727 
L 169.62084 160.526631 
L 169.62084 160.526631 
L 169.797571 166.41063 
L 169.797571 166.41063 
L 169.974302 164.901456 
L 169.974302 164.901456 
L 170.151033 170.742464 
L 170.151033 170.742464 
L 170.327764 169.025741 
L 170.327764 169.025741 
L 170.504494 174.755562 
L 170.504494 174.755562 
L 170.681225 172.812019 
L 170.681225 172.812019 
L 170.857956 178.307606 
L 170.857956 178.307606 
L 171.034687 176.524172 
L 171.034687 176.524172 
L 171.211418 181.991592 
L 171.211418 181.991592 
L 171.388149 180.464628 
L 171.388149 180.464628 
L 171.564879 186.204826 
L 171.564879 186.204826 
L 171.74161 185.398352 
L 171.74161 185.398352 
L 171.918341 191.452838 
L 171.918341 191.452838 
L 172.095072 191.53734 
L 172.095072 191.53734 
L 172.271803 197.950588 
L 172.271803 197.950588 
L 172.448534 199.01798 
L 172.448534 199.01798 
L 172.625265 205.988645 
L 172.801995 208.501464 
L 172.801995 208.501464 
L 173.332188 228.523963 
L 173.332188 228.523963 
L 173.68565 242.540898 
L 173.68565 242.540898 
L 175.099496 293.102675 
L 175.099496 293.102675 
L 175.276227 291.66466 
L 175.276227 291.66466 
L 175.452958 295.488 
L 175.452958 295.488 
L 175.80642 279.798817 
L 175.80642 279.798817 
L 175.98315 278.334117 
L 175.98315 278.334117 
L 176.159881 274.098646 
L 176.159881 274.098646 
L 176.336612 273.413736 
L 176.336612 273.413736 
L 176.513343 270.650376 
L 176.513343 270.650376 
L 176.690074 270.213042 
L 176.690074 270.213042 
L 176.866805 271.51022 
L 176.866805 271.51022 
L 177.043535 268.208716 
L 177.043535 268.208716 
L 177.220266 268.825432 
L 177.220266 268.825432 
L 177.396997 266.37636 
L 177.396997 266.37636 
L 177.573728 266.185118 
L 177.573728 266.185118 
L 177.750459 267.216931 
L 177.750459 267.216931 
L 177.92719 263.103023 
L 177.92719 263.103023 
L 178.10392 262.724989 
L 178.10392 262.724989 
L 178.280651 263.329844 
L 178.280651 263.329844 
L 178.457382 257.205681 
L 178.457382 257.205681 
L 178.634113 256.096779 
L 178.634113 256.096779 
L 178.987575 247.855622 
L 178.987575 247.855622 
L 179.164305 245.834989 
L 179.164305 245.834989 
L 179.517767 235.3953 
L 179.517767 235.3953 
L 179.694498 232.102692 
L 179.694498 232.102692 
L 180.04796 218.711367 
L 180.04796 218.711367 
L 180.22469 213.712413 
L 180.22469 213.712413 
L 180.931614 182.114638 
L 180.931614 182.114638 
L 182.34546 125.940158 
L 182.34546 125.940158 
L 182.522191 122.368841 
L 182.522191 122.368841 
L 182.698922 121.295519 
L 182.698922 121.295519 
L 182.875653 121.052391 
L 182.875653 121.052391 
L 183.052384 122.235417 
L 183.052384 122.235417 
L 183.229115 124.854976 
L 183.229115 124.854976 
L 183.759307 145.089471 
L 183.759307 145.089471 
L 184.112769 165.887312 
L 184.112769 165.887312 
L 186.056808 282.759348 
L 186.056808 282.759348 
L 186.41027 291.7121 
L 186.41027 291.7121 
L 186.587001 294.087048 
L 186.587001 294.087048 
L 186.940462 295.488 
L 186.940462 295.488 
L 187.117193 293.118982 
L 187.117193 293.118982 
L 187.293924 295.488 
L 187.293924 295.488 
L 187.647386 280.833594 
L 187.647386 280.833594 
L 188.354309 252.400934 
L 188.354309 252.400934 
L 189.061232 212.720628 
L 189.061232 212.720628 
L 189.944886 164.502667 
L 189.944886 164.502667 
L 190.121617 151.124684 
L 190.121617 151.124684 
L 190.298348 147.169403 
L 190.298348 147.169403 
L 190.475079 134.546008 
L 190.475079 134.546008 
L 190.65181 134.339942 
L 190.65181 134.339942 
L 190.828541 131.082913 
L 190.828541 131.082913 
L 191.005271 123.385829 
L 191.005271 123.385829 
L 191.182002 123.169385 
L 191.182002 123.169385 
L 191.358733 116.01934 
L 191.358733 116.01934 
L 191.535464 119.851575 
L 191.535464 119.851575 
L 191.712195 114.726609 
L 191.712195 114.726609 
L 191.888926 124.296077 
L 191.888926 124.296077 
L 192.065656 119.956831 
L 192.065656 119.956831 
L 192.419118 144.601732 
L 192.419118 144.601732 
L 192.595849 147.628975 
L 192.595849 147.628975 
L 192.77258 161.119626 
L 192.77258 161.119626 
L 192.949311 161.62219 
L 192.949311 161.62219 
L 193.126041 176.155032 
L 193.126041 176.155032 
L 193.302772 173.471726 
L 193.302772 173.471726 
L 193.656234 198.679973 
L 193.656234 198.679973 
L 193.832965 196.401387 
L 193.832965 196.401387 
L 194.009696 204.512085 
L 194.009696 204.512085 
L 194.186426 195.731302 
L 194.186426 195.731302 
L 194.363157 201.975546 
L 194.363157 201.975546 
L 194.539888 201.791718 
L 194.539888 201.791718 
L 194.716619 193.086541 
L 194.716619 193.086541 
L 194.89335 193.58614 
L 194.89335 193.58614 
L 195.070081 182.909253 
L 195.070081 182.909253 
L 195.246812 186.437577 
L 195.246812 186.437577 
L 195.423542 174.745185 
L 195.423542 174.745185 
L 195.777004 186.817094 
L 195.777004 186.817094 
L 195.953735 184.886893 
L 195.953735 184.886893 
L 196.130466 194.656497 
L 196.130466 194.656497 
L 196.307197 195.046392 
L 196.307197 195.046392 
L 196.660658 218.159881 
L 196.660658 218.159881 
L 196.837389 221.915026 
L 196.837389 221.915026 
L 197.01412 230.194728 
L 197.01412 230.194728 
L 197.190851 228.667764 
L 197.190851 228.667764 
L 197.367582 234.682223 
L 197.367582 234.682223 
L 197.544312 226.423276 
L 197.544312 226.423276 
L 197.721043 230.913735 
L 197.721043 230.913735 
L 197.897774 230.150254 
L 197.897774 230.150254 
L 198.074505 219.166491 
L 198.074505 219.166491 
L 198.251236 217.274835 
L 198.251236 217.274835 
L 198.427967 202.239429 
L 198.427967 202.239429 
L 198.604697 202.632289 
L 198.604697 202.632289 
L 198.781428 200.258824 
L 198.781428 200.258824 
L 198.958159 192.112546 
L 198.958159 192.112546 
L 199.13489 194.222128 
L 199.13489 194.222128 
L 199.311621 186.763725 
L 199.311621 186.763725 
L 199.488352 193.464576 
L 199.488352 193.464576 
L 199.665082 187.012783 
L 199.665082 187.012783 
L 200.018544 204.958315 
L 200.018544 204.958315 
L 200.195275 204.068821 
L 200.195275 204.068821 
L 200.372006 212.785858 
L 200.372006 212.785858 
L 200.548737 210.031393 
L 200.548737 210.031393 
L 200.725467 218.948565 
L 200.725467 218.948565 
L 200.902198 213.645701 
L 200.902198 213.645701 
L 201.25566 226.57449 
L 201.25566 226.57449 
L 201.432391 223.677706 
L 201.432391 223.677706 
L 201.609122 227.667084 
L 201.609122 227.667084 
L 201.785852 223.870429 
L 201.785852 223.870429 
L 201.962583 228.500243 
L 201.962583 228.500243 
L 202.139314 225.615319 
L 202.139314 225.615319 
L 202.316045 231.284358 
L 202.316045 231.284358 
L 202.492776 230.621685 
L 202.492776 230.621685 
L 203.022968 246.906829 
L 203.022968 246.906829 
L 203.906622 276.021434 
L 203.906622 276.021434 
L 204.436815 287.399539 
L 204.436815 287.399539 
L 204.790277 291.562369 
L 204.790277 291.562369 
L 205.143738 294.101873 
L 205.143738 294.101873 
L 205.320469 295.261179 
L 205.320469 295.261179 
L 205.4972 295.394603 
L 205.4972 295.394603 
L 205.673931 294.543654 
L 205.673931 294.543654 
L 205.850662 295.488 
L 205.850662 295.488 
L 206.734316 289.768557 
L 206.734316 289.768557 
L 207.61797 279.236953 
L 207.61797 279.236953 
L 207.794701 277.861203 
L 207.794701 277.861203 
L 208.148163 273.784358 
L 208.148163 273.784358 
L 208.324893 272.51683 
L 208.678355 268.02044 
L 208.678355 268.02044 
L 208.855086 266.26369 
L 210.092202 241.700327 
L 210.092202 241.700327 
L 210.622394 230.780311 
L 210.622394 230.780311 
L 211.329318 221.551816 
L 211.329318 221.551816 
L 211.85951 218.245865 
L 211.85951 218.245865 
L 212.212972 217.592088 
L 212.212972 217.592088 
L 212.389703 217.583193 
L 212.389703 217.583193 
L 212.566433 216.86122 
L 212.566433 216.86122 
L 212.919895 216.757446 
L 212.919895 216.757446 
L 213.273357 216.899765 
L 213.273357 216.899765 
L 213.450088 215.934665 
L 213.450088 215.934665 
L 213.98028 214.833175 
L 213.98028 214.833175 
L 214.157011 214.329129 
L 214.157011 214.329129 
L 214.510473 211.644341 
L 214.510473 211.644341 
L 214.687203 211.195147 
L 214.687203 211.195147 
L 214.863934 211.165497 
L 214.863934 211.165497 
L 215.040665 211.688816 
L 215.040665 211.688816 
L 215.217396 211.201077 
L 215.217396 211.201077 
L 215.570858 213.593814 
L 215.570858 213.593814 
L 216.277781 221.658555 
L 216.277781 221.658555 
L 216.984704 236.400428 
L 216.984704 236.400428 
L 218.398551 278.430479 
L 218.398551 278.430479 
L 218.752013 286.145353 
L 218.752013 286.145353 
L 219.105474 292.37329 
L 219.105474 292.37329 
L 219.282205 295.339751 
L 219.282205 295.339751 
L 219.458936 292.566014 
L 219.458936 292.566014 
L 219.635667 291.873691 
L 219.635667 291.873691 
L 219.812398 295.488 
L 219.989129 287.123796 
L 219.989129 287.123796 
L 220.165859 286.902905 
L 220.165859 286.902905 
L 220.696052 280.285073 
L 220.696052 280.285073 
L 222.640091 234.474675 
L 222.640091 234.474675 
L 222.993553 225.942949 
L 222.993553 225.942949 
L 223.170284 228.048084 
L 223.170284 228.048084 
L 223.347014 223.643608 
L 223.347014 223.643608 
L 223.523745 225.867342 
L 223.523745 225.867342 
L 223.700476 222.03659 
L 223.700476 222.03659 
L 223.877207 223.929729 
L 223.877207 223.929729 
L 224.053938 220.414747 
L 224.053938 220.414747 
L 224.230669 221.682275 
L 224.230669 221.682275 
L 224.407399 218.354087 
L 224.407399 218.354087 
L 224.58413 219.30881 
L 224.58413 219.30881 
L 224.760861 216.686287 
L 224.760861 216.686287 
L 224.937592 211.110645 
L 224.937592 211.110645 
L 225.114323 215.899085 
L 225.114323 215.899085 
L 225.291054 211.410108 
L 225.291054 211.410108 
L 225.467784 216.238575 
L 225.467784 216.238575 
L 225.644515 212.908904 
L 225.821246 217.90934 
L 225.821246 217.90934 
L 225.997977 215.522533 
L 225.997977 215.522533 
L 226.174708 220.330245 
L 226.174708 220.330245 
L 226.351439 218.724709 
L 226.528169 223.169212 
L 226.528169 223.169212 
L 226.7049 222.156672 
L 226.7049 222.156672 
L 226.881631 225.923677 
L 226.881631 225.923677 
L 227.058362 225.215047 
L 227.058362 225.215047 
L 227.235093 221.003295 
L 227.235093 221.003295 
L 227.411824 227.477325 
L 227.411824 227.477325 
L 227.588554 222.79859 
L 227.588554 222.79859 
L 227.765285 228.55213 
L 227.765285 228.55213 
L 227.942016 224.037951 
L 227.942016 224.037951 
L 228.118747 230.087989 
L 228.118747 230.087989 
L 228.295478 227.286084 
L 228.295478 227.286084 
L 228.472209 233.309438 
L 228.472209 233.309438 
L 228.648939 232.477762 
L 228.648939 232.477762 
L 228.82567 238.514458 
L 228.82567 238.514458 
L 229.002401 239.108936 
L 229.002401 239.108936 
L 229.179132 244.906951 
L 229.179132 244.906951 
L 229.355863 246.534724 
L 229.355863 246.534724 
L 229.532594 245.858709 
L 229.532594 245.858709 
L 229.709324 255.063485 
L 229.709324 255.063485 
L 229.886055 255.723192 
L 229.886055 255.723192 
L 230.062786 265.049532 
L 230.062786 265.049532 
L 230.239517 267.224343 
L 230.239517 267.224343 
L 230.76971 289.980553 
L 230.76971 289.980553 
L 230.94644 295.144063 
L 230.94644 295.144063 
L 233.597403 171.207965 
L 233.597403 171.207965 
L 233.950865 169.587605 
L 233.950865 169.587605 
L 234.127595 170.506748 
L 234.127595 170.506748 
L 234.657788 196.580768 
L 234.657788 196.580768 
L 235.01125 228.738924 
L 235.01125 228.738924 
L 235.541442 285.063136 
L 235.541442 285.063136 
L 235.718173 287.150481 
L 235.718173 287.150481 
L 236.425096 224.015713 
L 236.425096 224.015713 
L 236.955289 194.809193 
L 236.955289 194.809193 
L 237.30875 180.903445 
L 237.30875 180.903445 
L 237.838943 168.142178 
L 237.838943 168.142178 
L 238.192405 164.140939 
L 238.192405 164.140939 
L 238.369135 163.484197 
L 238.369135 163.484197 
L 238.545866 163.679885 
L 238.545866 163.679885 
L 238.722597 162.022462 
L 238.722597 162.022462 
L 238.899328 162.326373 
L 238.899328 162.326373 
L 239.25279 163.779212 
L 239.25279 163.779212 
L 239.42952 163.018695 
L 239.42952 163.018695 
L 239.959713 163.755492 
L 239.959713 163.755492 
L 240.136444 163.805897 
L 240.136444 163.805897 
L 240.313175 162.667345 
L 240.313175 162.667345 
L 240.489905 162.882306 
L 240.489905 162.882306 
L 240.666636 163.74808 
L 240.666636 163.74808 
L 241.196829 169.486795 
L 241.196829 169.486795 
L 241.727021 181.22811 
L 241.727021 181.22811 
L 244.554715 262.960704 
L 244.554715 262.960704 
L 244.731446 267.015312 
L 244.731446 267.015312 
L 244.908176 267.396312 
L 244.908176 267.396312 
L 245.261638 271.851192 
L 245.261638 271.851192 
L 245.438369 271.15887 
L 245.438369 271.15887 
L 245.791831 272.549445 
L 245.791831 272.549445 
L 245.968561 273.80363 
L 245.968561 273.80363 
L 246.145292 271.645126 
L 246.145292 271.645126 
L 246.498754 273.950397 
L 246.498754 273.950397 
L 246.675485 273.102413 
L 247.205677 281.094512 
L 247.205677 281.094512 
L 247.559139 293.918044 
L 247.559139 293.918044 
L 247.73587 291.796602 
L 247.73587 291.796602 
L 248.796255 232.040427 
L 248.796255 232.040427 
L 249.149716 213.952577 
L 249.149716 213.952577 
L 249.503178 194.445984 
L 249.503178 194.445984 
L 249.679909 193.494226 
L 249.679909 193.494226 
L 250.033371 182.563833 
L 250.033371 182.563833 
L 250.210101 187.771817 
L 250.210101 187.771817 
L 250.386832 187.211436 
L 250.386832 187.211436 
L 250.740294 196.697885 
L 250.740294 196.697885 
L 250.917025 199.957878 
L 250.917025 199.957878 
L 251.270486 215.59814 
L 251.270486 215.59814 
L 251.447217 220.881731 
L 251.447217 220.881731 
L 251.800679 239.332792 
L 251.800679 239.332792 
L 251.97741 245.169352 
L 251.97741 245.169352 
L 252.330871 263.641167 
L 252.330871 263.641167 
L 252.507602 269.055218 
L 252.507602 269.055218 
L 252.861064 286.295084 
L 252.861064 286.295084 
L 253.037795 295.378296 
L 253.037795 295.378296 
L 255.335296 222.619208 
L 255.335296 222.619208 
L 255.512027 219.771347 
L 255.512027 219.771347 
L 255.865488 209.973576 
L 255.865488 209.973576 
L 256.042219 207.567496 
L 256.042219 207.567496 
L 256.395681 198.862319 
L 256.395681 198.862319 
L 256.572412 196.597075 
L 256.572412 196.597075 
L 256.925873 188.212117 
L 256.925873 188.212117 
L 257.102604 185.634068 
L 257.102604 185.634068 
L 257.456066 177.043043 
L 257.456066 177.043043 
L 257.809527 168.950134 
L 257.809527 168.950134 
L 259.223374 140.496719 
L 259.223374 140.496719 
L 259.930297 133.394113 
L 259.930297 133.394113 
L 260.107028 132.648421 
L 260.107028 132.648421 
L 260.283759 132.397881 
L 260.283759 132.397881 
L 260.46049 132.608394 
L 260.46049 132.608394 
L 260.990682 134.802478 
L 260.990682 134.802478 
L 261.520875 141.147532 
L 261.520875 141.147532 
L 261.874337 148.324262 
L 261.874337 148.324262 
L 262.404529 164.640538 
L 262.404529 164.640538 
L 263.464914 209.122627 
L 263.464914 209.122627 
L 264.70203 255.380737 
L 264.70203 255.380737 
L 265.762415 288.806421 
L 265.762415 288.806421 
L 266.115877 295.105518 
L 266.115877 295.105518 
L 266.292608 295.488 
L 266.292608 295.488 
L 266.469338 290.091739 
L 266.469338 290.091739 
L 266.646069 288.376499 
L 266.646069 288.376499 
L 266.999531 287.226088 
L 266.999531 287.226088 
L 267.176262 295.488 
L 267.176262 295.488 
L 267.352993 287.017057 
L 267.352993 287.017057 
L 267.529723 287.150481 
L 267.529723 287.150481 
L 267.706454 287.860593 
L 267.706454 287.860593 
L 267.883185 288.053317 
L 267.883185 288.053317 
L 268.059916 295.488 
L 268.059916 295.488 
L 268.236647 287.933235 
L 268.236647 287.933235 
L 268.413378 287.931753 
L 268.413378 287.931753 
L 268.766839 288.892406 
L 268.766839 288.892406 
L 268.94357 295.488 
L 268.94357 295.488 
L 269.120301 290.612093 
L 269.120301 290.612093 
L 269.473763 294.488802 
L 269.473763 294.488802 
L 269.650493 294.180445 
L 269.650493 294.180445 
L 269.827224 295.488 
L 269.827224 295.488 
L 270.180686 285.997104 
L 270.180686 285.997104 
L 270.710878 278.31781 
L 270.710878 278.31781 
L 271.241071 273.308479 
L 271.241071 273.308479 
L 271.771263 270.328676 
L 271.771263 270.328676 
L 271.947994 269.529614 
L 271.947994 269.529614 
L 272.124725 269.252389 
L 272.124725 269.252389 
L 272.654918 266.981215 
L 272.654918 266.981215 
L 272.831648 266.020562 
L 272.831648 266.020562 
L 273.008379 265.789294 
L 273.008379 265.789294 
L 273.538572 263.506261 
L 273.538572 263.506261 
L 273.715303 263.398039 
L 273.715303 263.398039 
L 274.598957 269.359128 
L 274.598957 269.359128 
L 275.836073 287.750889 
L 275.836073 287.750889 
L 276.012803 295.488 
L 276.012803 295.488 
L 276.189534 292.383668 
L 276.189534 292.383668 
L 276.366265 294.847565 
L 276.366265 294.847565 
L 276.542996 293.092297 
L 276.542996 293.092297 
L 277.42665 279.517144 
L 277.42665 279.517144 
L 277.780112 276.243808 
L 277.780112 276.243808 
L 277.956843 275.678979 
L 277.956843 275.678979 
L 278.133574 275.655259 
L 278.133574 275.655259 
L 278.310304 276.082216 
L 278.310304 276.082216 
L 278.663766 278.366732 
L 278.663766 278.366732 
L 279.370689 286.16759 
L 279.370689 286.16759 
L 279.900882 291.133929 
L 279.900882 291.133929 
L 280.607805 295.488 
L 280.607805 295.488 
L 280.784536 295.237459 
L 280.784536 295.237459 
L 280.961267 294.681526 
L 280.961267 294.681526 
L 281.491459 291.252528 
L 281.491459 291.252528 
L 281.844921 287.418811 
L 281.844921 287.418811 
L 282.198383 281.69492 
L 282.198383 281.69492 
L 282.551844 273.739883 
L 282.551844 273.739883 
L 283.082037 255.526021 
L 283.082037 255.526021 
L 284.142422 205.57503 
L 284.142422 205.57503 
L 284.672614 174.502056 
L 284.672614 174.502056 
L 284.849345 170.419281 
L 284.849345 170.419281 
L 285.026076 155.764875 
L 285.026076 155.764875 
L 285.202807 158.381469 
L 285.202807 158.381469 
L 285.379538 158.654247 
L 285.379538 158.654247 
L 285.556269 149.200413 
L 285.556269 149.200413 
L 285.732999 153.932519 
L 285.732999 153.932519 
L 285.90973 141.005213 
L 285.90973 141.005213 
L 286.263192 155.203012 
L 286.263192 155.203012 
L 286.439923 146.92924 
L 286.439923 146.92924 
L 286.616654 153.088982 
L 286.616654 153.088982 
L 286.793384 138.840779 
L 286.793384 138.840779 
L 286.970115 144.55281 
L 286.970115 144.55281 
L 287.146846 143.801188 
L 287.146846 143.801188 
L 287.323577 130.304606 
L 287.323577 130.304606 
L 287.500308 130.83089 
L 287.500308 130.83089 
L 287.677039 113.177408 
L 287.677039 113.177408 
L 287.853769 117.269078 
L 287.853769 117.269078 
L 288.0305 117.630806 
L 288.0305 117.630806 
L 288.207231 107.148125 
L 288.207231 107.148125 
L 288.383962 112.99358 
L 288.383962 112.99358 
L 288.560693 103.132061 
L 288.560693 103.132061 
L 288.914155 123.415479 
L 288.914155 123.415479 
L 289.090885 121.847005 
L 289.090885 121.847005 
L 289.267616 132.331169 
L 289.267616 132.331169 
L 289.444347 128.494487 
L 289.444347 128.494487 
L 289.797809 144.677339 
L 289.797809 144.677339 
L 289.97454 137.67406 
L 289.97454 137.67406 
L 290.15127 141.648613 
L 290.15127 141.648613 
L 290.328001 140.994836 
L 290.328001 140.994836 
L 290.504732 131.014718 
L 290.504732 131.014718 
L 290.681463 131.696663 
L 290.681463 131.696663 
L 290.858194 115.68578 
L 290.858194 115.68578 
L 291.034925 118.815315 
L 291.034925 118.815315 
L 291.211655 117.171234 
L 291.211655 117.171234 
L 291.388386 104.7035 
L 291.388386 104.7035 
L 291.565117 106.399468 
L 291.565117 106.399468 
L 291.741848 90.262573 
L 291.741848 90.262573 
L 291.918579 95.853039 
L 291.918579 95.853039 
L 292.09531 97.571244 
L 292.09531 97.571244 
L 292.27204 89.072134 
L 292.27204 89.072134 
L 292.448771 96.125817 
L 292.625502 87.093011 
L 292.625502 87.093011 
L 292.978964 111.583732 
L 292.978964 111.583732 
L 293.155695 113.856388 
L 293.155695 113.856388 
L 293.332425 130.003661 
L 293.332425 130.003661 
L 293.509156 133.232522 
L 293.509156 133.232522 
L 293.862618 165.162374 
L 293.862618 165.162374 
L 294.039349 173.141131 
L 294.039349 173.141131 
L 294.569541 207.813589 
L 294.569541 207.813589 
L 295.099734 231.62533 
L 295.099734 231.62533 
L 296.33685 259.275236 
L 296.33685 259.275236 
L 296.51358 259.961629 
L 296.51358 259.961629 
L 296.690311 263.380249 
L 296.690311 263.380249 
L 296.867042 262.901405 
L 296.867042 262.901405 
L 297.220504 266.658033 
L 297.220504 266.658033 
L 297.397235 265.390504 
L 297.573965 265.863418 
L 297.573965 265.863418 
L 297.750696 263.475128 
L 297.750696 263.475128 
L 297.927427 263.134156 
L 297.927427 263.134156 
L 298.104158 259.739255 
L 298.104158 259.739255 
L 298.280889 259.109198 
L 298.280889 259.109198 
L 298.45762 255.497854 
L 298.45762 255.497854 
L 298.63435 255.168741 
L 298.63435 255.168741 
L 298.811081 251.754569 
L 298.811081 251.754569 
L 298.987812 252.129638 
L 298.987812 252.129638 
L 299.164543 249.409271 
L 299.164543 249.409271 
L 299.341274 250.88583 
L 299.341274 250.88583 
L 299.518005 248.794038 
L 299.518005 248.794038 
L 299.694735 250.713861 
L 299.694735 250.713861 
L 299.871466 248.549427 
L 299.871466 248.549427 
L 300.048197 250.404021 
L 300.048197 250.404021 
L 300.224928 248.484197 
L 300.224928 248.484197 
L 300.401659 250.083803 
L 300.401659 250.083803 
L 300.57839 248.138777 
L 300.57839 248.138777 
L 300.755121 249.389998 
L 300.755121 249.389998 
L 300.931851 247.695513 
L 300.931851 247.695513 
L 301.108582 243.522306 
L 301.108582 243.522306 
L 301.285313 247.85414 
L 301.285313 247.85414 
L 301.462044 244.736465 
L 301.462044 244.736465 
L 301.638775 249.46264 
L 301.638775 249.46264 
L 301.815506 248.091338 
L 301.815506 248.091338 
L 301.992236 253.787061 
L 301.992236 253.787061 
L 302.345698 256.548939 
L 302.345698 256.548939 
L 302.875891 291.491209 
L 302.875891 291.491209 
L 303.052621 288.065177 
L 303.052621 288.065177 
L 303.406083 256.947728 
L 303.406083 256.947728 
L 304.81993 147.022637 
L 304.81993 147.022637 
L 305.350122 132.251114 
L 305.350122 132.251114 
L 305.526853 134.817303 
L 305.703584 132.998289 
L 305.703584 132.998289 
L 305.880315 137.979453 
L 305.880315 137.979453 
L 306.057046 136.763811 
L 306.057046 136.763811 
L 306.233776 141.829477 
L 306.410507 139.737685 
L 306.410507 139.737685 
L 306.587238 143.651456 
L 306.587238 143.651456 
L 306.763969 139.970436 
L 306.763969 139.970436 
L 306.9407 142.216407 
L 306.9407 142.216407 
L 307.117431 136.630387 
L 307.117431 136.630387 
L 307.294161 137.763009 
L 307.294161 137.763009 
L 307.470892 130.882777 
L 307.470892 130.882777 
L 307.647623 131.256364 
L 307.824354 123.707529 
L 307.824354 123.707529 
L 308.001085 124.482871 
L 308.001085 124.482871 
L 308.177816 117.02002 
L 308.177816 117.02002 
L 308.354546 119.096988 
L 308.354546 119.096988 
L 308.531277 112.986167 
L 308.531277 112.986167 
L 308.708008 118.11558 
L 308.708008 118.11558 
L 308.884739 114.996422 
L 308.884739 114.996422 
L 309.06147 123.021137 
L 309.06147 123.021137 
L 309.238201 121.697274 
L 309.238201 121.697274 
L 309.591662 138.138079 
L 309.591662 138.138079 
L 309.768393 140.800629 
L 309.768393 140.800629 
L 309.945124 146.85215 
L 309.945124 146.85215 
L 310.121855 146.705384 
L 310.121855 146.705384 
L 310.298586 150.731825 
L 310.298586 150.731825 
L 310.475316 148.367254 
L 310.475316 148.367254 
L 310.652047 152.303263 
L 310.652047 152.303263 
L 310.828778 147.795014 
L 310.828778 147.795014 
L 311.18224 155.641829 
L 311.18224 155.641829 
L 311.358971 153.511492 
L 311.358971 153.511492 
L 311.535701 157.951547 
L 311.535701 157.951547 
L 311.712432 156.064338 
L 311.712432 156.064338 
L 311.889163 163.915601 
L 311.889163 163.915601 
L 312.065894 162.399015 
L 312.065894 162.399015 
L 312.242625 172.521451 
L 312.242625 172.521451 
L 312.419356 168.400131 
L 312.419356 168.400131 
L 312.772817 182.866261 
L 312.772817 182.866261 
L 312.949548 179.383893 
L 312.949548 179.383893 
L 313.126279 181.781078 
L 313.126279 181.781078 
L 313.30301 173.637765 
L 313.30301 173.637765 
L 313.479741 174.969041 
L 313.479741 174.969041 
L 313.656472 163.734737 
L 313.656472 163.734737 
L 313.833202 167.042171 
L 313.833202 167.042171 
L 314.009933 156.55356 
L 314.009933 156.55356 
L 314.363395 167.947972 
L 314.363395 167.947972 
L 314.540126 166.462518 
L 314.540126 166.462518 
L 314.716857 175.229959 
L 314.716857 175.229959 
L 314.893587 176.04088 
L 314.893587 176.04088 
L 315.070318 189.666438 
L 315.070318 189.666438 
L 315.247049 191.442461 
L 315.247049 191.442461 
L 315.42378 207.715744 
L 315.42378 207.715744 
L 315.600511 208.150114 
L 315.600511 208.150114 
L 315.953972 234.307153 
L 315.953972 234.307153 
L 316.130703 234.996511 
L 316.130703 234.996511 
L 316.307434 242.431194 
L 316.307434 242.431194 
L 316.484165 237.633859 
L 316.484165 237.633859 
L 316.660896 242.526073 
L 316.660896 242.526073 
L 316.837627 233.887609 
L 316.837627 233.887609 
L 317.014357 236.965256 
L 317.014357 236.965256 
L 317.191088 224.854802 
L 317.191088 224.854802 
L 317.367819 227.125976 
L 317.367819 227.125976 
L 317.54455 225.324751 
L 317.54455 225.324751 
L 317.721281 216.846395 
L 317.721281 216.846395 
L 317.898012 217.126586 
L 317.898012 217.126586 
L 318.074742 210.329373 
L 318.074742 210.329373 
L 318.251473 213.41888 
L 318.251473 213.41888 
L 318.428204 208.580036 
L 318.428204 208.580036 
L 318.604935 214.406218 
L 318.604935 214.406218 
L 318.781666 212.186932 
L 318.781666 212.186932 
L 319.135127 223.8052 
L 319.135127 223.8052 
L 319.311858 224.469355 
L 319.311858 224.469355 
L 319.488589 228.267492 
L 319.488589 228.267492 
L 319.66532 227.751586 
L 319.66532 227.751586 
L 319.842051 230.147289 
L 319.842051 230.147289 
L 320.018782 227.991749 
L 320.018782 227.991749 
L 320.195512 228.827873 
L 320.372243 224.985261 
L 320.372243 224.985261 
L 320.548974 224.83553 
L 320.548974 224.83553 
L 320.725705 220.127144 
L 320.725705 220.127144 
L 320.902436 220.155311 
L 320.902436 220.155311 
L 321.079167 215.054066 
L 321.079167 215.054066 
L 321.255897 216.406096 
L 321.255897 216.406096 
L 321.432628 211.494609 
L 321.432628 211.494609 
L 321.609359 214.432903 
L 321.609359 214.432903 
L 321.78609 210.73854 
L 321.78609 210.73854 
L 321.962821 215.141533 
L 321.962821 215.141533 
L 322.139552 212.520492 
L 322.139552 212.520492 
L 322.316282 218.102064 
L 322.316282 218.102064 
L 322.493013 216.185205 
L 322.493013 216.185205 
L 322.669744 222.247104 
L 322.669744 222.247104 
L 322.846475 221.268661 
L 322.846475 221.268661 
L 323.023206 227.711559 
L 323.199937 227.584065 
L 323.199937 227.584065 
L 323.376667 234.505807 
L 323.376667 234.505807 
L 323.553398 235.561339 
L 323.553398 235.561339 
L 323.730129 242.901143 
L 323.90686 245.36504 
L 323.90686 245.36504 
L 324.613783 272.745133 
L 324.613783 272.745133 
L 324.790514 278.166596 
L 324.790514 278.166596 
L 325.143976 294.257534 
L 325.143976 294.257534 
L 325.850899 256.293951 
L 325.850899 256.293951 
L 326.734553 219.931455 
L 326.734553 219.931455 
L 327.088015 212.685048 
L 327.088015 212.685048 
L 327.441477 209.763062 
L 327.441477 209.763062 
L 327.618208 209.497696 
L 327.618208 209.497696 
L 327.794938 210.198914 
L 327.794938 210.198914 
L 328.1484 213.616051 
L 328.1484 213.616051 
L 328.501862 219.833611 
L 328.501862 219.833611 
L 329.032054 234.932764 
L 329.032054 234.932764 
L 329.562247 258.464315 
L 329.562247 258.464315 
L 330.092439 292.520057 
L 330.092439 292.520057 
L 330.445901 273.437456 
L 330.445901 273.437456 
L 330.976093 237.484128 
L 330.976093 237.484128 
L 331.859748 202.783503 
L 331.859748 202.783503 
L 332.036478 206.445251 
L 332.036478 206.445251 
L 332.213209 200.656131 
L 332.213209 200.656131 
L 332.38994 205.566135 
L 332.38994 205.566135 
L 332.566671 201.640504 
L 332.566671 201.640504 
L 332.743402 207.032317 
L 332.743402 207.032317 
L 332.920133 204.408311 
L 332.920133 204.408311 
L 333.096863 209.580716 
L 333.096863 209.580716 
L 333.273594 208.108604 
L 333.273594 208.108604 
L 333.450325 213.295834 
L 333.450325 213.295834 
L 333.627056 212.791787 
L 333.627056 212.791787 
L 333.803787 217.59357 
L 333.803787 217.59357 
L 333.980518 217.893033 
L 333.980518 217.893033 
L 334.157248 221.617046 
L 334.157248 221.617046 
L 334.333979 221.671898 
L 334.333979 221.671898 
L 334.51071 219.068647 
L 334.51071 219.068647 
L 334.687441 223.151422 
L 334.687441 223.151422 
L 334.864172 218.95746 
L 334.864172 218.95746 
L 335.040903 222.470959 
L 335.040903 222.470959 
L 335.217633 217.356372 
L 335.217633 217.356372 
L 335.394364 219.938868 
L 335.571095 213.933304 
L 335.571095 213.933304 
L 335.747826 216.185205 
L 335.747826 216.185205 
L 335.924557 210.164817 
L 335.924557 210.164817 
L 336.101288 212.395963 
L 336.101288 212.395963 
L 336.278019 206.864796 
L 336.278019 206.864796 
L 336.454749 209.207129 
L 336.454749 209.207129 
L 336.63148 204.623272 
L 336.63148 204.623272 
L 336.808211 207.472616 
L 336.808211 207.472616 
L 336.984942 204.51505 
L 336.984942 204.51505 
L 337.161673 207.908468 
L 337.161673 207.908468 
L 337.338404 207.054554 
L 337.338404 207.054554 
L 337.515134 202.943612 
L 337.515134 202.943612 
L 337.691865 212.584239 
L 337.691865 212.584239 
L 337.868596 210.917921 
L 337.868596 210.917921 
L 338.045327 221.236046 
L 338.045327 221.236046 
L 338.222058 221.77419 
L 338.222058 221.77419 
L 338.398789 232.591913 
L 338.398789 232.591913 
L 338.575519 235.711071 
L 338.575519 235.711071 
L 339.105712 265.191851 
L 339.105712 265.191851 
L 339.459174 286.627162 
L 339.459174 286.627162 
L 339.635904 295.488 
L 339.635904 295.488 
L 341.403213 174.674025 
L 341.403213 174.674025 
L 341.933405 166.83314 
L 341.933405 166.83314 
L 342.110136 164.982993 
L 342.110136 164.982993 
L 342.286867 161.551031 
L 342.286867 161.551031 
L 342.463598 166.536642 
L 342.463598 166.536642 
L 342.640329 164.639056 
L 342.640329 164.639056 
L 342.817059 169.655799 
L 342.817059 169.655799 
L 342.99379 169.331134 
L 342.99379 169.331134 
L 343.170521 174.113644 
L 343.170521 174.113644 
L 343.347252 174.574698 
L 343.347252 174.574698 
L 343.523983 171.916595 
L 343.700714 181.128783 
L 343.700714 181.128783 
L 343.877444 180.396433 
L 343.877444 180.396433 
L 344.054175 189.515225 
L 344.054175 189.515225 
L 344.230906 190.776823 
L 344.230906 190.776823 
L 344.584368 205.542415 
L 344.584368 205.542415 
L 344.761099 206.562368 
L 344.761099 206.562368 
L 345.291291 261.322554 
L 345.291291 261.322554 
L 345.644753 288.158573 
L 345.644753 288.158573 
L 346.351676 192.665514 
L 346.351676 192.665514 
L 346.881869 122.174635 
L 346.881869 122.174635 
L 347.412061 77.138096 
L 347.412061 77.138096 
L 347.765523 62.10862 
L 347.765523 62.10862 
L 348.649177 123.61858 
L 348.649177 123.61858 
L 349.17937 185.556978 
L 349.17937 185.556978 
L 350.063024 253.017649 
L 350.063024 253.017649 
L 350.239755 259.058793 
L 350.239755 259.058793 
L 350.593216 276.598123 
L 350.593216 276.598123 
L 350.946678 290.403062 
L 350.946678 290.403062 
L 351.123409 292.914399 
L 351.123409 292.914399 
L 351.30014 289.184456 
L 351.30014 289.184456 
L 351.47687 288.053317 
L 351.47687 288.053317 
L 351.653601 280.227256 
L 351.653601 280.227256 
L 351.830332 279.441537 
L 351.830332 279.441537 
L 352.007063 273.347024 
L 352.007063 273.347024 
L 352.183794 272.739203 
L 352.183794 272.739203 
L 352.360525 268.416265 
L 352.360525 268.416265 
L 352.537255 268.155347 
L 352.537255 268.155347 
L 352.713986 270.433933 
L 352.713986 270.433933 
L 352.890717 265.455734 
L 352.890717 265.455734 
L 353.067448 267.857366 
L 353.067448 267.857366 
L 353.244179 263.967315 
L 353.244179 263.967315 
L 353.42091 266.078379 
L 353.42091 266.078379 
L 353.59764 263.352082 
L 353.59764 263.352082 
L 353.774371 265.126621 
L 353.774371 265.126621 
L 353.951102 263.033346 
L 353.951102 263.033346 
L 354.127833 263.912463 
L 354.127833 263.912463 
L 354.304564 266.898196 
L 354.304564 266.898196 
L 354.481295 262.490755 
L 354.481295 262.490755 
L 354.658025 264.707077 
L 354.658025 264.707077 
L 354.834756 261.1239 
L 354.834756 261.1239 
L 355.011487 262.495203 
L 355.011487 262.495203 
L 355.188218 259.447205 
L 355.188218 259.447205 
L 355.364949 259.644376 
L 355.364949 259.644376 
L 355.54168 261.739133 
L 355.54168 261.739133 
L 355.71841 256.132359 
L 355.71841 256.132359 
L 355.895141 256.972931 
L 355.895141 256.972931 
L 356.071872 252.353494 
L 356.071872 252.353494 
L 356.248603 252.298642 
L 356.248603 252.298642 
L 356.425334 248.418968 
L 356.425334 248.418968 
L 356.602065 247.329338 
L 356.602065 247.329338 
L 356.778795 247.923817 
L 356.778795 247.923817 
L 356.955526 242.422299 
L 356.955526 242.422299 
L 357.132257 242.149521 
L 357.132257 242.149521 
L 357.308988 237.893295 
L 357.308988 237.893295 
L 357.485719 237.119435 
L 357.485719 237.119435 
L 357.66245 237.820653 
L 357.66245 237.820653 
L 357.83918 233.38208 
L 357.83918 233.38208 
L 358.015911 234.050683 
L 358.015911 234.050683 
L 358.192642 231.61347 
L 358.192642 231.61347 
L 358.369373 232.274661 
L 358.369373 232.274661 
L 358.546104 234.068472 
L 358.722835 232.430322 
L 358.722835 232.430322 
L 358.899565 234.780067 
L 358.899565 234.780067 
L 359.076296 235.521312 
L 359.076296 235.521312 
L 359.606489 245.486604 
L 359.606489 245.486604 
L 360.313412 266.238488 
L 360.313412 266.238488 
L 360.490143 268.733517 
L 360.490143 268.733517 
L 361.373797 291.353338 
L 361.373797 291.353338 
L 361.550528 290.843361 
L 361.550528 290.843361 
L 361.727259 294.417643 
L 361.727259 294.417643 
L 361.90399 292.423695 
L 361.90399 292.423695 
L 362.080721 295.098105 
L 362.434182 290.323008 
L 362.434182 290.323008 
L 362.610913 294.585164 
L 362.610913 294.585164 
L 362.787644 293.732733 
L 362.787644 293.732733 
L 362.964375 293.912114 
L 362.964375 293.912114 
L 363.317836 291.900376 
L 363.317836 291.900376 
L 363.671298 283.5169 
L 363.671298 283.5169 
L 363.848029 280.417015 
L 363.848029 280.417015 
L 364.201491 267.981895 
L 364.201491 267.981895 
L 364.378221 263.263132 
L 364.378221 263.263132 
L 364.908414 243.04198 
L 364.908414 243.04198 
L 365.085145 237.593832 
L 365.085145 237.593832 
L 365.438606 220.079704 
L 365.438606 220.079704 
L 365.615337 213.515242 
L 365.615337 213.515242 
L 366.322261 177.293584 
L 366.322261 177.293584 
L 367.559376 122.92774 
L 367.559376 122.92774 
L 368.089569 108.946384 
L 368.089569 108.946384 
L 368.443031 103.490824 
L 368.443031 103.490824 
L 368.619761 102.438256 
L 368.619761 102.438256 
L 368.796492 102.389334 
L 368.796492 102.389334 
L 368.973223 103.28624 
L 368.973223 103.28624 
L 369.326685 108.07468 
L 369.326685 108.07468 
L 369.680146 116.65088 
L 369.680146 116.65088 
L 370.38707 143.980569 
L 370.38707 143.980569 
L 372.684571 245.099675 
L 372.684571 245.099675 
L 373.568225 275.92359 
L 373.568225 275.92359 
L 374.098417 287.59671 
L 374.098417 287.59671 
L 374.275148 290.451984 
L 374.275148 290.451984 
L 374.451879 295.488 
L 374.451879 295.488 
L 374.62861 295.141098 
L 374.62861 295.141098 
L 374.982072 291.761022 
L 374.982072 291.761022 
L 376.219187 277.416457 
L 376.219187 277.416457 
L 376.572649 275.380999 
L 376.572649 275.380999 
L 376.926111 275.017789 
L 376.926111 275.017789 
L 377.102842 275.18531 
L 377.102842 275.18531 
L 377.456303 276.052567 
L 377.456303 276.052567 
L 377.809765 277.106616 
L 377.809765 277.106616 
L 378.163227 277.327507 
L 378.163227 277.327507 
L 378.339957 277.391254 
L 378.339957 277.391254 
L 378.87015 278.169561 
L 378.87015 278.169561 
L 379.223612 279.850704 
L 379.223612 279.850704 
L 379.930535 286.699804 
L 379.930535 286.699804 
L 380.637458 294.472495 
L 380.637458 294.472495 
L 380.814189 295.228564 
L 380.814189 295.228564 
L 381.167651 293.827612 
L 381.167651 293.827612 
L 381.521112 293.371005 
L 381.521112 293.371005 
L 381.874574 293.237581 
L 381.874574 293.237581 
L 382.228036 292.287306 
L 382.228036 292.287306 
L 382.758228 289.685537 
L 382.758228 289.685537 
L 383.288421 286.557485 
L 383.288421 286.557485 
L 383.641883 285.5064 
L 383.641883 285.5064 
L 383.818613 285.564217 
L 383.818613 285.564217 
L 384.172075 286.665707 
L 384.172075 286.665707 
L 385.23246 291.248081 
L 385.23246 291.248081 
L 385.409191 291.276248 
L 385.409191 291.276248 
L 385.762653 290.964925 
L 385.762653 290.964925 
L 386.292845 290.260743 
L 386.292845 290.260743 
L 386.469576 290.40751 
L 386.469576 290.40751 
L 386.999768 291.43784 
L 386.999768 291.43784 
L 387.529961 292.469652 
L 387.529961 292.469652 
L 387.706692 292.416282 
L 387.706692 292.416282 
L 388.060153 291.637976 
L 388.060153 291.637976 
L 388.767077 289.767074 
L 388.767077 289.767074 
L 388.943808 289.66923 
L 389.297269 290.637295 
L 389.297269 290.637295 
L 389.827462 293.332461 
L 389.827462 293.332461 
L 390.180923 295.480588 
L 390.180923 295.480588 
L 390.534385 294.167102 
L 390.534385 294.167102 
L 390.711116 294.107803 
L 390.711116 294.107803 
L 390.887847 294.264946 
L 390.887847 294.264946 
L 391.418039 295.20781 
L 391.418039 295.20781 
L 391.771501 294.300526 
L 391.771501 294.300526 
L 391.948232 294.199717 
L 391.948232 294.199717 
L 392.301693 294.459152 
L 392.301693 294.459152 
L 392.831886 295.461315 
L 392.831886 295.461315 
L 393.008617 295.219669 
L 393.008617 295.219669 
L 393.185348 295.203362 
L 393.185348 295.203362 
L 393.362078 295.447973 
L 393.362078 295.447973 
L 393.71554 294.417643 
L 393.71554 294.417643 
L 394.422464 292.180567 
L 394.422464 292.180567 
L 394.599194 292.142022 
L 394.599194 292.142022 
L 394.952656 292.963321 
L 394.952656 292.963321 
L 395.306118 294.548102 
L 395.306118 294.548102 
L 395.482849 295.47021 
L 395.482849 295.47021 
L 396.013041 293.378418 
L 396.013041 293.378418 
L 396.189772 293.216827 
L 396.189772 293.216827 
L 396.366503 293.615616 
L 396.366503 293.615616 
L 396.543234 294.675596 
L 396.543234 294.675596 
L 396.719964 294.149312 
L 396.719964 294.149312 
L 397.073426 288.093344 
L 397.073426 288.093344 
L 397.780349 272.269254 
L 397.780349 272.269254 
L 397.95708 273.870342 
L 397.95708 273.870342 
L 398.133811 278.750697 
L 398.133811 278.750697 
L 398.310542 290.96196 
L 398.310542 290.96196 
L 398.487273 243.495621 
L 398.487273 243.495621 
" clip-path="url(#p68b505d96d)" style="fill: none; stroke: #1f77b4; stroke-width: 1.5; stroke-linecap: square"/>
   </g>
   <g id="patch_3">
    <path d="M 57.6 307.584 
L 57.6 41.472 
" style="fill: none; stroke: #000000; stroke-width: 0.8; stroke-linejoin: miter; stroke-linecap: square"/>
   </g>
   <g id="patch_4">
    <path d="M 414.72 307.584 
L 414.72 41.472 
" style="fill: none; stroke: #000000; stroke-width: 0.8; stroke-linejoin: miter; stroke-linecap: square"/>
   </g>
   <g id="patch_5">
    <path d="M 57.6 307.584 
L 414.72 307.584 
" style="fill: none; stroke: #000000; stroke-width: 0.8; stroke-linejoin: miter; stroke-linecap: square"/>
   </g>
   <g id="patch_6">
    <path d="M 57.6 41.472 
L 414.72 41.472 
" style="fill: none; stroke: #000000; stroke-width: 0.8; stroke-linejoin: miter; stroke-linecap: square"/>
   </g>
   <g id="text_20">
    <!-- Tracking error vs Time -->
    <g transform="translate(169.584375 35.472) scale(0.12 -0.12)">
     <defs>
      <path id="DejaVuSans-76" d="M 191 3500 
L 800 3500 
L 1894 563 
L 2988 3500 
L 3597 3500 
L 2284 0 
L 1503 0 
L 191 3500 
z
" transform="scale(0.015625)"/>
     </defs>
     <use xlink:href="#DejaVuSans-54"/>
     <use xlink:href="#DejaVuSans-72" x="46.333984"/>
     <use xlink:href="#DejaVuSans-61" x="87.447266"/>
     <use xlink:href="#DejaVuSans-63" x="148.726562"/>
     <use xlink:href="#DejaVuSans-6b" x="203.707031"/>
     <use xlink:href="#DejaVuSans-69" x="261.617188"/>
     <use xlink:href="#DejaVuSans-6e" x="289.400391"/>
     <use xlink:href="#DejaVuSans-67" x="352.779297"/>
     <use xlink:href="#DejaVuSans-20" x="416.255859"/>
     <use xlink:href="#DejaVuSans-65" x="448.042969"/>
     <use xlink:href="#DejaVuSans-72" x="509.566406"/>
     <use xlink:href="#DejaVuSans-72" x="548.929688"/>
     <use xlink:href="#DejaVuSans-6f" x="587.792969"/>
     <use xlink:href="#DejaVuSans-72" x="648.974609"/>
     <use xlink:href="#DejaVuSans-20" x="690.087891"/>
     <use xlink:href="#DejaVuSans-76" x="721.875"/>
     <use xlink:href="#DejaVuSans-73" x="781.054688"/>
     <use xlink:href="#DejaVuSans-20" x="833.154297"/>
     <use xlink:href="#DejaVuSans-54" x="864.941406"/>
     <use xlink:href="#DejaVuSans-69" x="922.900391"/>
     <use xlink:href="#DejaVuSans-6d" x="950.683594"/>
     <use xlink:href="#DejaVuSans-65" x="1048.095703"/>
    </g>
   </g>
   <g id="legend_1">
    <g id="patch_7">
     <path d="M 187.800625 64.150125 
L 284.519375 64.150125 
Q 286.519375 64.150125 286.519375 62.150125 
L 286.519375 48.472 
Q 286.519375 46.472 284.519375 46.472 
L 187.800625 46.472 
Q 185.800625 46.472 185.800625 48.472 
L 185.800625 62.150125 
Q 185.800625 64.150125 187.800625 64.150125 
z
" style="fill: #ffffff; opacity: 0.8; stroke: #cccccc; stroke-linejoin: miter"/>
    </g>
    <g id="line2d_36">
     <path d="M 189.800625 54.570438 
L 199.800625 54.570438 
L 209.800625 54.570438 
" style="fill: none; stroke: #1f77b4; stroke-width: 1.5; stroke-linecap: square"/>
    </g>
    <g id="text_21">
     <!-- Actual speed -->
     <g transform="translate(217.800625 58.070438) scale(0.1 -0.1)">
      <defs>
       <path id="DejaVuSans-41" d="M 2188 4044 
L 1331 1722 
L 3047 1722 
L 2188 4044 
z
M 1831 4666 
L 2547 4666 
L 4325 0 
L 3669 0 
L 3244 1197 
L 1141 1197 
L 716 0 
L 50 0 
L 1831 4666 
z
" transform="scale(0.015625)"/>
       <path id="DejaVuSans-74" d="M 1172 4494 
L 1172 3500 
L 2356 3500 
L 2356 3053 
L 1172 3053 
L 1172 1153 
Q 1172 725 1289 603 
Q 1406 481 1766 481 
L 2356 481 
L 2356 0 
L 1766 0 
Q 1100 0 847 248 
Q 594 497 594 1153 
L 594 3053 
L 172 3053 
L 172 3500 
L 594 3500 
L 594 4494 
L 1172 4494 
z
" transform="scale(0.015625)"/>
       <path id="DejaVuSans-75" d="M 544 1381 
L 544 3500 
L 1119 3500 
L 1119 1403 
Q 1119 906 1312 657 
Q 1506 409 1894 409 
Q 2359 409 2629 706 
Q 2900 1003 2900 1516 
L 2900 3500 
L 3475 3500 
L 3475 0 
L 2900 0 
L 2900 538 
Q 2691 219 2414 64 
Q 2138 -91 1772 -91 
Q 1169 -91 856 284 
Q 544 659 544 1381 
z
M 1991 3584 
L 1991 3584 
z
" transform="scale(0.015625)"/>
       <path id="DejaVuSans-6c" d="M 603 4863 
L 1178 4863 
L 1178 0 
L 603 0 
L 603 4863 
z
" transform="scale(0.015625)"/>
       <path id="DejaVuSans-70" d="M 1159 525 
L 1159 -1331 
L 581 -1331 
L 581 3500 
L 1159 3500 
L 1159 2969 
Q 1341 3281 1617 3432 
Q 1894 3584 2278 3584 
Q 2916 3584 3314 3078 
Q 3713 2572 3713 1747 
Q 3713 922 3314 415 
Q 2916 -91 2278 -91 
Q 1894 -91 1617 61 
Q 1341 213 1159 525 
z
M 3116 1747 
Q 3116 2381 2855 2742 
Q 2594 3103 2138 3103 
Q 1681 3103 1420 2742 
Q 1159 2381 1159 1747 
Q 1159 1113 1420 752 
Q 1681 391 2138 391 
Q 2594 391 2855 752 
Q 3116 1113 3116 1747 
z
" transform="scale(0.015625)"/>
       <path id="DejaVuSans-64" d="M 2906 2969 
L 2906 4863 
L 3481 4863 
L 3481 0 
L 2906 0 
L 2906 525 
Q 2725 213 2448 61 
Q 2172 -91 1784 -91 
Q 1150 -91 751 415 
Q 353 922 353 1747 
Q 353 2572 751 3078 
Q 1150 3584 1784 3584 
Q 2172 3584 2448 3432 
Q 2725 3281 2906 2969 
z
M 947 1747 
Q 947 1113 1208 752 
Q 1469 391 1925 391 
Q 2381 391 2643 752 
Q 2906 1113 2906 1747 
Q 2906 2381 2643 2742 
Q 2381 3103 1925 3103 
Q 1469 3103 1208 2742 
Q 947 2381 947 1747 
z
" transform="scale(0.015625)"/>
      </defs>
      <use xlink:href="#DejaVuSans-41"/>
      <use xlink:href="#DejaVuSans-63" x="66.658203"/>
      <use xlink:href="#DejaVuSans-74" x="121.638672"/>
      <use xlink:href="#DejaVuSans-75" x="160.847656"/>
      <use xlink:href="#DejaVuSans-61" x="224.226562"/>
      <use xlink:href="#DejaVuSans-6c" x="285.505859"/>
      <use xlink:href="#DejaVuSans-20" x="313.289062"/>
      <use xlink:href="#DejaVuSans-73" x="345.076172"/>
      <use xlink:href="#DejaVuSans-70" x="397.175781"/>
      <use xlink:href="#DejaVuSans-65" x="460.652344"/>
      <use xlink:href="#DejaVuSans-65" x="522.175781"/>
      <use xlink:href="#DejaVuSans-64" x="583.699219"/>
     </g>
    </g>
   </g>
  </g>
 </g>
 <defs>
  <clipPath id="p68b505d96d">
   <rect x="57.6" y="41.472" width="357.12" height="266.112"/>
  </clipPath>
 </defs>
</svg>
