<?xml version="1.0" encoding="utf-8" standalone="no"?>
<!DOCTYPE svg PUBLIC "-//W3C//DTD SVG 1.1//EN"
  "http://www.w3.org/Graphics/SVG/1.1/DTD/svg11.dtd">
<svg xmlns:xlink="http://www.w3.org/1999/xlink" width="460.8pt" height="345.6pt" viewBox="0 0 460.8 345.6" xmlns="http://www.w3.org/2000/svg" version="1.1">
 <metadata>
  <rdf:RDF xmlns:dc="http://purl.org/dc/elements/1.1/" xmlns:cc="http://creativecommons.org/ns#" xmlns:rdf="http://www.w3.org/1999/02/22-rdf-syntax-ns#">
   <cc:Work>
    <dc:type rdf:resource="http://purl.org/dc/dcmitype/StillImage"/>
    <dc:date>2024-01-30T20:58:51.140544</dc:date>
    <dc:format>image/svg+xml</dc:format>
    <dc:creator>
     <cc:Agent>
      <dc:title>Matplotlib v3.7.1, https://matplotlib.org/</dc:title>
     </cc:Agent>
    </dc:creator>
   </cc:Work>
  </rdf:RDF>
 </metadata>
 <defs>
  <style type="text/css">*{stroke-linejoin: round; stroke-linecap: butt}</style>
 </defs>
 <g id="figure_1">
  <g id="patch_1">
   <path d="M 0 345.6 
L 460.8 345.6 
L 460.8 0 
L 0 0 
z
" style="fill: #ffffff"/>
  </g>
  <g id="axes_1">
   <g id="patch_2">
    <path d="M 57.6 307.584 
L 414.72 307.584 
L 414.72 41.472 
L 57.6 41.472 
z
" style="fill: #ffffff"/>
   </g>
   <g id="matplotlib.axis_1">
    <g id="xtick_1">
     <g id="line2d_1">
      <path d="M 73.832727 307.584 
L 73.832727 41.472 
" clip-path="url(#p2b53dd9b01)" style="fill: none; stroke: #b0b0b0; stroke-width: 0.8; stroke-linecap: square"/>
     </g>
     <g id="line2d_2">
      <defs>
       <path id="me8238dc28b" d="M 0 0 
L 0 3.5 
" style="stroke: #000000; stroke-width: 0.8"/>
      </defs>
      <g>
       <use xlink:href="#me8238dc28b" x="73.832727" y="307.584" style="stroke: #000000; stroke-width: 0.8"/>
      </g>
     </g>
     <g id="text_1">
      <!-- 0 -->
      <g transform="translate(70.651477 322.182437) scale(0.1 -0.1)">
       <defs>
        <path id="DejaVuSans-30" d="M 2034 4250 
Q 1547 4250 1301 3770 
Q 1056 3291 1056 2328 
Q 1056 1369 1301 889 
Q 1547 409 2034 409 
Q 2525 409 2770 889 
Q 3016 1369 3016 2328 
Q 3016 3291 2770 3770 
Q 2525 4250 2034 4250 
z
M 2034 4750 
Q 2819 4750 3233 4129 
Q 3647 3509 3647 2328 
Q 3647 1150 3233 529 
Q 2819 -91 2034 -91 
Q 1250 -91 836 529 
Q 422 1150 422 2328 
Q 422 3509 836 4129 
Q 1250 4750 2034 4750 
z
" transform="scale(0.015625)"/>
       </defs>
       <use xlink:href="#DejaVuSans-30"/>
      </g>
     </g>
    </g>
    <g id="xtick_2">
     <g id="line2d_3">
      <path d="M 117.991398 307.584 
L 117.991398 41.472 
" clip-path="url(#p2b53dd9b01)" style="fill: none; stroke: #b0b0b0; stroke-width: 0.8; stroke-linecap: square"/>
     </g>
     <g id="line2d_4">
      <g>
       <use xlink:href="#me8238dc28b" x="117.991398" y="307.584" style="stroke: #000000; stroke-width: 0.8"/>
      </g>
     </g>
     <g id="text_2">
      <!-- 5 -->
      <g transform="translate(114.810148 322.182437) scale(0.1 -0.1)">
       <defs>
        <path id="DejaVuSans-35" d="M 691 4666 
L 3169 4666 
L 3169 4134 
L 1269 4134 
L 1269 2991 
Q 1406 3038 1543 3061 
Q 1681 3084 1819 3084 
Q 2600 3084 3056 2656 
Q 3513 2228 3513 1497 
Q 3513 744 3044 326 
Q 2575 -91 1722 -91 
Q 1428 -91 1123 -41 
Q 819 9 494 109 
L 494 744 
Q 775 591 1075 516 
Q 1375 441 1709 441 
Q 2250 441 2565 725 
Q 2881 1009 2881 1497 
Q 2881 1984 2565 2268 
Q 2250 2553 1709 2553 
Q 1456 2553 1204 2497 
Q 953 2441 691 2322 
L 691 4666 
z
" transform="scale(0.015625)"/>
       </defs>
       <use xlink:href="#DejaVuSans-35"/>
      </g>
     </g>
    </g>
    <g id="xtick_3">
     <g id="line2d_5">
      <path d="M 162.150068 307.584 
L 162.150068 41.472 
" clip-path="url(#p2b53dd9b01)" style="fill: none; stroke: #b0b0b0; stroke-width: 0.8; stroke-linecap: square"/>
     </g>
     <g id="line2d_6">
      <g>
       <use xlink:href="#me8238dc28b" x="162.150068" y="307.584" style="stroke: #000000; stroke-width: 0.8"/>
      </g>
     </g>
     <g id="text_3">
      <!-- 10 -->
      <g transform="translate(155.787568 322.182437) scale(0.1 -0.1)">
       <defs>
        <path id="DejaVuSans-31" d="M 794 531 
L 1825 531 
L 1825 4091 
L 703 3866 
L 703 4441 
L 1819 4666 
L 2450 4666 
L 2450 531 
L 3481 531 
L 3481 0 
L 794 0 
L 794 531 
z
" transform="scale(0.015625)"/>
       </defs>
       <use xlink:href="#DejaVuSans-31"/>
       <use xlink:href="#DejaVuSans-30" x="63.623047"/>
      </g>
     </g>
    </g>
    <g id="xtick_4">
     <g id="line2d_7">
      <path d="M 206.308739 307.584 
L 206.308739 41.472 
" clip-path="url(#p2b53dd9b01)" style="fill: none; stroke: #b0b0b0; stroke-width: 0.8; stroke-linecap: square"/>
     </g>
     <g id="line2d_8">
      <g>
       <use xlink:href="#me8238dc28b" x="206.308739" y="307.584" style="stroke: #000000; stroke-width: 0.8"/>
      </g>
     </g>
     <g id="text_4">
      <!-- 15 -->
      <g transform="translate(199.946239 322.182437) scale(0.1 -0.1)">
       <use xlink:href="#DejaVuSans-31"/>
       <use xlink:href="#DejaVuSans-35" x="63.623047"/>
      </g>
     </g>
    </g>
    <g id="xtick_5">
     <g id="line2d_9">
      <path d="M 250.467409 307.584 
L 250.467409 41.472 
" clip-path="url(#p2b53dd9b01)" style="fill: none; stroke: #b0b0b0; stroke-width: 0.8; stroke-linecap: square"/>
     </g>
     <g id="line2d_10">
      <g>
       <use xlink:href="#me8238dc28b" x="250.467409" y="307.584" style="stroke: #000000; stroke-width: 0.8"/>
      </g>
     </g>
     <g id="text_5">
      <!-- 20 -->
      <g transform="translate(244.104909 322.182437) scale(0.1 -0.1)">
       <defs>
        <path id="DejaVuSans-32" d="M 1228 531 
L 3431 531 
L 3431 0 
L 469 0 
L 469 531 
Q 828 903 1448 1529 
Q 2069 2156 2228 2338 
Q 2531 2678 2651 2914 
Q 2772 3150 2772 3378 
Q 2772 3750 2511 3984 
Q 2250 4219 1831 4219 
Q 1534 4219 1204 4116 
Q 875 4013 500 3803 
L 500 4441 
Q 881 4594 1212 4672 
Q 1544 4750 1819 4750 
Q 2544 4750 2975 4387 
Q 3406 4025 3406 3419 
Q 3406 3131 3298 2873 
Q 3191 2616 2906 2266 
Q 2828 2175 2409 1742 
Q 1991 1309 1228 531 
z
" transform="scale(0.015625)"/>
       </defs>
       <use xlink:href="#DejaVuSans-32"/>
       <use xlink:href="#DejaVuSans-30" x="63.623047"/>
      </g>
     </g>
    </g>
    <g id="xtick_6">
     <g id="line2d_11">
      <path d="M 294.62608 307.584 
L 294.62608 41.472 
" clip-path="url(#p2b53dd9b01)" style="fill: none; stroke: #b0b0b0; stroke-width: 0.8; stroke-linecap: square"/>
     </g>
     <g id="line2d_12">
      <g>
       <use xlink:href="#me8238dc28b" x="294.62608" y="307.584" style="stroke: #000000; stroke-width: 0.8"/>
      </g>
     </g>
     <g id="text_6">
      <!-- 25 -->
      <g transform="translate(288.26358 322.182437) scale(0.1 -0.1)">
       <use xlink:href="#DejaVuSans-32"/>
       <use xlink:href="#DejaVuSans-35" x="63.623047"/>
      </g>
     </g>
    </g>
    <g id="xtick_7">
     <g id="line2d_13">
      <path d="M 338.78475 307.584 
L 338.78475 41.472 
" clip-path="url(#p2b53dd9b01)" style="fill: none; stroke: #b0b0b0; stroke-width: 0.8; stroke-linecap: square"/>
     </g>
     <g id="line2d_14">
      <g>
       <use xlink:href="#me8238dc28b" x="338.78475" y="307.584" style="stroke: #000000; stroke-width: 0.8"/>
      </g>
     </g>
     <g id="text_7">
      <!-- 30 -->
      <g transform="translate(332.42225 322.182437) scale(0.1 -0.1)">
       <defs>
        <path id="DejaVuSans-33" d="M 2597 2516 
Q 3050 2419 3304 2112 
Q 3559 1806 3559 1356 
Q 3559 666 3084 287 
Q 2609 -91 1734 -91 
Q 1441 -91 1130 -33 
Q 819 25 488 141 
L 488 750 
Q 750 597 1062 519 
Q 1375 441 1716 441 
Q 2309 441 2620 675 
Q 2931 909 2931 1356 
Q 2931 1769 2642 2001 
Q 2353 2234 1838 2234 
L 1294 2234 
L 1294 2753 
L 1863 2753 
Q 2328 2753 2575 2939 
Q 2822 3125 2822 3475 
Q 2822 3834 2567 4026 
Q 2313 4219 1838 4219 
Q 1578 4219 1281 4162 
Q 984 4106 628 3988 
L 628 4550 
Q 988 4650 1302 4700 
Q 1616 4750 1894 4750 
Q 2613 4750 3031 4423 
Q 3450 4097 3450 3541 
Q 3450 3153 3228 2886 
Q 3006 2619 2597 2516 
z
" transform="scale(0.015625)"/>
       </defs>
       <use xlink:href="#DejaVuSans-33"/>
       <use xlink:href="#DejaVuSans-30" x="63.623047"/>
      </g>
     </g>
    </g>
    <g id="xtick_8">
     <g id="line2d_15">
      <path d="M 382.943421 307.584 
L 382.943421 41.472 
" clip-path="url(#p2b53dd9b01)" style="fill: none; stroke: #b0b0b0; stroke-width: 0.8; stroke-linecap: square"/>
     </g>
     <g id="line2d_16">
      <g>
       <use xlink:href="#me8238dc28b" x="382.943421" y="307.584" style="stroke: #000000; stroke-width: 0.8"/>
      </g>
     </g>
     <g id="text_8">
      <!-- 35 -->
      <g transform="translate(376.580921 322.182437) scale(0.1 -0.1)">
       <use xlink:href="#DejaVuSans-33"/>
       <use xlink:href="#DejaVuSans-35" x="63.623047"/>
      </g>
     </g>
    </g>
    <g id="text_9">
     <!-- Time(s) -->
     <g transform="translate(217.420156 335.860562) scale(0.1 -0.1)">
      <defs>
       <path id="DejaVuSans-54" d="M -19 4666 
L 3928 4666 
L 3928 4134 
L 2272 4134 
L 2272 0 
L 1638 0 
L 1638 4134 
L -19 4134 
L -19 4666 
z
" transform="scale(0.015625)"/>
       <path id="DejaVuSans-69" d="M 603 3500 
L 1178 3500 
L 1178 0 
L 603 0 
L 603 3500 
z
M 603 4863 
L 1178 4863 
L 1178 4134 
L 603 4134 
L 603 4863 
z
" transform="scale(0.015625)"/>
       <path id="DejaVuSans-6d" d="M 3328 2828 
Q 3544 3216 3844 3400 
Q 4144 3584 4550 3584 
Q 5097 3584 5394 3201 
Q 5691 2819 5691 2113 
L 5691 0 
L 5113 0 
L 5113 2094 
Q 5113 2597 4934 2840 
Q 4756 3084 4391 3084 
Q 3944 3084 3684 2787 
Q 3425 2491 3425 1978 
L 3425 0 
L 2847 0 
L 2847 2094 
Q 2847 2600 2669 2842 
Q 2491 3084 2119 3084 
Q 1678 3084 1418 2786 
Q 1159 2488 1159 1978 
L 1159 0 
L 581 0 
L 581 3500 
L 1159 3500 
L 1159 2956 
Q 1356 3278 1631 3431 
Q 1906 3584 2284 3584 
Q 2666 3584 2933 3390 
Q 3200 3197 3328 2828 
z
" transform="scale(0.015625)"/>
       <path id="DejaVuSans-65" d="M 3597 1894 
L 3597 1613 
L 953 1613 
Q 991 1019 1311 708 
Q 1631 397 2203 397 
Q 2534 397 2845 478 
Q 3156 559 3463 722 
L 3463 178 
Q 3153 47 2828 -22 
Q 2503 -91 2169 -91 
Q 1331 -91 842 396 
Q 353 884 353 1716 
Q 353 2575 817 3079 
Q 1281 3584 2069 3584 
Q 2775 3584 3186 3129 
Q 3597 2675 3597 1894 
z
M 3022 2063 
Q 3016 2534 2758 2815 
Q 2500 3097 2075 3097 
Q 1594 3097 1305 2825 
Q 1016 2553 972 2059 
L 3022 2063 
z
" transform="scale(0.015625)"/>
       <path id="DejaVuSans-28" d="M 1984 4856 
Q 1566 4138 1362 3434 
Q 1159 2731 1159 2009 
Q 1159 1288 1364 580 
Q 1569 -128 1984 -844 
L 1484 -844 
Q 1016 -109 783 600 
Q 550 1309 550 2009 
Q 550 2706 781 3412 
Q 1013 4119 1484 4856 
L 1984 4856 
z
" transform="scale(0.015625)"/>
       <path id="DejaVuSans-73" d="M 2834 3397 
L 2834 2853 
Q 2591 2978 2328 3040 
Q 2066 3103 1784 3103 
Q 1356 3103 1142 2972 
Q 928 2841 928 2578 
Q 928 2378 1081 2264 
Q 1234 2150 1697 2047 
L 1894 2003 
Q 2506 1872 2764 1633 
Q 3022 1394 3022 966 
Q 3022 478 2636 193 
Q 2250 -91 1575 -91 
Q 1294 -91 989 -36 
Q 684 19 347 128 
L 347 722 
Q 666 556 975 473 
Q 1284 391 1588 391 
Q 1994 391 2212 530 
Q 2431 669 2431 922 
Q 2431 1156 2273 1281 
Q 2116 1406 1581 1522 
L 1381 1569 
Q 847 1681 609 1914 
Q 372 2147 372 2553 
Q 372 3047 722 3315 
Q 1072 3584 1716 3584 
Q 2034 3584 2315 3537 
Q 2597 3491 2834 3397 
z
" transform="scale(0.015625)"/>
       <path id="DejaVuSans-29" d="M 513 4856 
L 1013 4856 
Q 1481 4119 1714 3412 
Q 1947 2706 1947 2009 
Q 1947 1309 1714 600 
Q 1481 -109 1013 -844 
L 513 -844 
Q 928 -128 1133 580 
Q 1338 1288 1338 2009 
Q 1338 2731 1133 3434 
Q 928 4138 513 4856 
z
" transform="scale(0.015625)"/>
      </defs>
      <use xlink:href="#DejaVuSans-54"/>
      <use xlink:href="#DejaVuSans-69" x="57.958984"/>
      <use xlink:href="#DejaVuSans-6d" x="85.742188"/>
      <use xlink:href="#DejaVuSans-65" x="183.154297"/>
      <use xlink:href="#DejaVuSans-28" x="244.677734"/>
      <use xlink:href="#DejaVuSans-73" x="283.691406"/>
      <use xlink:href="#DejaVuSans-29" x="335.791016"/>
     </g>
    </g>
   </g>
   <g id="matplotlib.axis_2">
    <g id="ytick_1">
     <g id="line2d_17">
      <path d="M 57.6 295.488 
L 414.72 295.488 
" clip-path="url(#p2b53dd9b01)" style="fill: none; stroke: #b0b0b0; stroke-width: 0.8; stroke-linecap: square"/>
     </g>
     <g id="line2d_18">
      <defs>
       <path id="maa5bca8726" d="M 0 0 
L -3.5 0 
" style="stroke: #000000; stroke-width: 0.8"/>
      </defs>
      <g>
       <use xlink:href="#maa5bca8726" x="57.6" y="295.488" style="stroke: #000000; stroke-width: 0.8"/>
      </g>
     </g>
     <g id="text_10">
      <!-- 0.000 -->
      <g transform="translate(21.971875 299.287219) scale(0.1 -0.1)">
       <defs>
        <path id="DejaVuSans-2e" d="M 684 794 
L 1344 794 
L 1344 0 
L 684 0 
L 684 794 
z
" transform="scale(0.015625)"/>
       </defs>
       <use xlink:href="#DejaVuSans-30"/>
       <use xlink:href="#DejaVuSans-2e" x="63.623047"/>
       <use xlink:href="#DejaVuSans-30" x="95.410156"/>
       <use xlink:href="#DejaVuSans-30" x="159.033203"/>
       <use xlink:href="#DejaVuSans-30" x="222.65625"/>
      </g>
     </g>
    </g>
    <g id="ytick_2">
     <g id="line2d_19">
      <path d="M 57.6 261.315033 
L 414.72 261.315033 
" clip-path="url(#p2b53dd9b01)" style="fill: none; stroke: #b0b0b0; stroke-width: 0.8; stroke-linecap: square"/>
     </g>
     <g id="line2d_20">
      <g>
       <use xlink:href="#maa5bca8726" x="57.6" y="261.315033" style="stroke: #000000; stroke-width: 0.8"/>
      </g>
     </g>
     <g id="text_11">
      <!-- 0.025 -->
      <g transform="translate(21.971875 265.114252) scale(0.1 -0.1)">
       <use xlink:href="#DejaVuSans-30"/>
       <use xlink:href="#DejaVuSans-2e" x="63.623047"/>
       <use xlink:href="#DejaVuSans-30" x="95.410156"/>
       <use xlink:href="#DejaVuSans-32" x="159.033203"/>
       <use xlink:href="#DejaVuSans-35" x="222.65625"/>
      </g>
     </g>
    </g>
    <g id="ytick_3">
     <g id="line2d_21">
      <path d="M 57.6 227.142067 
L 414.72 227.142067 
" clip-path="url(#p2b53dd9b01)" style="fill: none; stroke: #b0b0b0; stroke-width: 0.8; stroke-linecap: square"/>
     </g>
     <g id="line2d_22">
      <g>
       <use xlink:href="#maa5bca8726" x="57.6" y="227.142067" style="stroke: #000000; stroke-width: 0.8"/>
      </g>
     </g>
     <g id="text_12">
      <!-- 0.050 -->
      <g transform="translate(21.971875 230.941285) scale(0.1 -0.1)">
       <use xlink:href="#DejaVuSans-30"/>
       <use xlink:href="#DejaVuSans-2e" x="63.623047"/>
       <use xlink:href="#DejaVuSans-30" x="95.410156"/>
       <use xlink:href="#DejaVuSans-35" x="159.033203"/>
       <use xlink:href="#DejaVuSans-30" x="222.65625"/>
      </g>
     </g>
    </g>
    <g id="ytick_4">
     <g id="line2d_23">
      <path d="M 57.6 192.9691 
L 414.72 192.9691 
" clip-path="url(#p2b53dd9b01)" style="fill: none; stroke: #b0b0b0; stroke-width: 0.8; stroke-linecap: square"/>
     </g>
     <g id="line2d_24">
      <g>
       <use xlink:href="#maa5bca8726" x="57.6" y="192.9691" style="stroke: #000000; stroke-width: 0.8"/>
      </g>
     </g>
     <g id="text_13">
      <!-- 0.075 -->
      <g transform="translate(21.971875 196.768319) scale(0.1 -0.1)">
       <defs>
        <path id="DejaVuSans-37" d="M 525 4666 
L 3525 4666 
L 3525 4397 
L 1831 0 
L 1172 0 
L 2766 4134 
L 525 4134 
L 525 4666 
z
" transform="scale(0.015625)"/>
       </defs>
       <use xlink:href="#DejaVuSans-30"/>
       <use xlink:href="#DejaVuSans-2e" x="63.623047"/>
       <use xlink:href="#DejaVuSans-30" x="95.410156"/>
       <use xlink:href="#DejaVuSans-37" x="159.033203"/>
       <use xlink:href="#DejaVuSans-35" x="222.65625"/>
      </g>
     </g>
    </g>
    <g id="ytick_5">
     <g id="line2d_25">
      <path d="M 57.6 158.796133 
L 414.72 158.796133 
" clip-path="url(#p2b53dd9b01)" style="fill: none; stroke: #b0b0b0; stroke-width: 0.8; stroke-linecap: square"/>
     </g>
     <g id="line2d_26">
      <g>
       <use xlink:href="#maa5bca8726" x="57.6" y="158.796133" style="stroke: #000000; stroke-width: 0.8"/>
      </g>
     </g>
     <g id="text_14">
      <!-- 0.100 -->
      <g transform="translate(21.971875 162.595352) scale(0.1 -0.1)">
       <use xlink:href="#DejaVuSans-30"/>
       <use xlink:href="#DejaVuSans-2e" x="63.623047"/>
       <use xlink:href="#DejaVuSans-31" x="95.410156"/>
       <use xlink:href="#DejaVuSans-30" x="159.033203"/>
       <use xlink:href="#DejaVuSans-30" x="222.65625"/>
      </g>
     </g>
    </g>
    <g id="ytick_6">
     <g id="line2d_27">
      <path d="M 57.6 124.623166 
L 414.72 124.623166 
" clip-path="url(#p2b53dd9b01)" style="fill: none; stroke: #b0b0b0; stroke-width: 0.8; stroke-linecap: square"/>
     </g>
     <g id="line2d_28">
      <g>
       <use xlink:href="#maa5bca8726" x="57.6" y="124.623166" style="stroke: #000000; stroke-width: 0.8"/>
      </g>
     </g>
     <g id="text_15">
      <!-- 0.125 -->
      <g transform="translate(21.971875 128.422385) scale(0.1 -0.1)">
       <use xlink:href="#DejaVuSans-30"/>
       <use xlink:href="#DejaVuSans-2e" x="63.623047"/>
       <use xlink:href="#DejaVuSans-31" x="95.410156"/>
       <use xlink:href="#DejaVuSans-32" x="159.033203"/>
       <use xlink:href="#DejaVuSans-35" x="222.65625"/>
      </g>
     </g>
    </g>
    <g id="ytick_7">
     <g id="line2d_29">
      <path d="M 57.6 90.4502 
L 414.72 90.4502 
" clip-path="url(#p2b53dd9b01)" style="fill: none; stroke: #b0b0b0; stroke-width: 0.8; stroke-linecap: square"/>
     </g>
     <g id="line2d_30">
      <g>
       <use xlink:href="#maa5bca8726" x="57.6" y="90.4502" style="stroke: #000000; stroke-width: 0.8"/>
      </g>
     </g>
     <g id="text_16">
      <!-- 0.150 -->
      <g transform="translate(21.971875 94.249418) scale(0.1 -0.1)">
       <use xlink:href="#DejaVuSans-30"/>
       <use xlink:href="#DejaVuSans-2e" x="63.623047"/>
       <use xlink:href="#DejaVuSans-31" x="95.410156"/>
       <use xlink:href="#DejaVuSans-35" x="159.033203"/>
       <use xlink:href="#DejaVuSans-30" x="222.65625"/>
      </g>
     </g>
    </g>
    <g id="ytick_8">
     <g id="line2d_31">
      <path d="M 57.6 56.277233 
L 414.72 56.277233 
" clip-path="url(#p2b53dd9b01)" style="fill: none; stroke: #b0b0b0; stroke-width: 0.8; stroke-linecap: square"/>
     </g>
     <g id="line2d_32">
      <g>
       <use xlink:href="#maa5bca8726" x="57.6" y="56.277233" style="stroke: #000000; stroke-width: 0.8"/>
      </g>
     </g>
     <g id="text_17">
      <!-- 0.175 -->
      <g transform="translate(21.971875 60.076452) scale(0.1 -0.1)">
       <use xlink:href="#DejaVuSans-30"/>
       <use xlink:href="#DejaVuSans-2e" x="63.623047"/>
       <use xlink:href="#DejaVuSans-31" x="95.410156"/>
       <use xlink:href="#DejaVuSans-37" x="159.033203"/>
       <use xlink:href="#DejaVuSans-35" x="222.65625"/>
      </g>
     </g>
    </g>
    <g id="text_18">
     <!-- Tracking error(m) -->
     <g transform="translate(15.892187 217.803781) rotate(-90) scale(0.1 -0.1)">
      <defs>
       <path id="DejaVuSans-72" d="M 2631 2963 
Q 2534 3019 2420 3045 
Q 2306 3072 2169 3072 
Q 1681 3072 1420 2755 
Q 1159 2438 1159 1844 
L 1159 0 
L 581 0 
L 581 3500 
L 1159 3500 
L 1159 2956 
Q 1341 3275 1631 3429 
Q 1922 3584 2338 3584 
Q 2397 3584 2469 3576 
Q 2541 3569 2628 3553 
L 2631 2963 
z
" transform="scale(0.015625)"/>
       <path id="DejaVuSans-61" d="M 2194 1759 
Q 1497 1759 1228 1600 
Q 959 1441 959 1056 
Q 959 750 1161 570 
Q 1363 391 1709 391 
Q 2188 391 2477 730 
Q 2766 1069 2766 1631 
L 2766 1759 
L 2194 1759 
z
M 3341 1997 
L 3341 0 
L 2766 0 
L 2766 531 
Q 2569 213 2275 61 
Q 1981 -91 1556 -91 
Q 1019 -91 701 211 
Q 384 513 384 1019 
Q 384 1609 779 1909 
Q 1175 2209 1959 2209 
L 2766 2209 
L 2766 2266 
Q 2766 2663 2505 2880 
Q 2244 3097 1772 3097 
Q 1472 3097 1187 3025 
Q 903 2953 641 2809 
L 641 3341 
Q 956 3463 1253 3523 
Q 1550 3584 1831 3584 
Q 2591 3584 2966 3190 
Q 3341 2797 3341 1997 
z
" transform="scale(0.015625)"/>
       <path id="DejaVuSans-63" d="M 3122 3366 
L 3122 2828 
Q 2878 2963 2633 3030 
Q 2388 3097 2138 3097 
Q 1578 3097 1268 2742 
Q 959 2388 959 1747 
Q 959 1106 1268 751 
Q 1578 397 2138 397 
Q 2388 397 2633 464 
Q 2878 531 3122 666 
L 3122 134 
Q 2881 22 2623 -34 
Q 2366 -91 2075 -91 
Q 1284 -91 818 406 
Q 353 903 353 1747 
Q 353 2603 823 3093 
Q 1294 3584 2113 3584 
Q 2378 3584 2631 3529 
Q 2884 3475 3122 3366 
z
" transform="scale(0.015625)"/>
       <path id="DejaVuSans-6b" d="M 581 4863 
L 1159 4863 
L 1159 1991 
L 2875 3500 
L 3609 3500 
L 1753 1863 
L 3688 0 
L 2938 0 
L 1159 1709 
L 1159 0 
L 581 0 
L 581 4863 
z
" transform="scale(0.015625)"/>
       <path id="DejaVuSans-6e" d="M 3513 2113 
L 3513 0 
L 2938 0 
L 2938 2094 
Q 2938 2591 2744 2837 
Q 2550 3084 2163 3084 
Q 1697 3084 1428 2787 
Q 1159 2491 1159 1978 
L 1159 0 
L 581 0 
L 581 3500 
L 1159 3500 
L 1159 2956 
Q 1366 3272 1645 3428 
Q 1925 3584 2291 3584 
Q 2894 3584 3203 3211 
Q 3513 2838 3513 2113 
z
" transform="scale(0.015625)"/>
       <path id="DejaVuSans-67" d="M 2906 1791 
Q 2906 2416 2648 2759 
Q 2391 3103 1925 3103 
Q 1463 3103 1205 2759 
Q 947 2416 947 1791 
Q 947 1169 1205 825 
Q 1463 481 1925 481 
Q 2391 481 2648 825 
Q 2906 1169 2906 1791 
z
M 3481 434 
Q 3481 -459 3084 -895 
Q 2688 -1331 1869 -1331 
Q 1566 -1331 1297 -1286 
Q 1028 -1241 775 -1147 
L 775 -588 
Q 1028 -725 1275 -790 
Q 1522 -856 1778 -856 
Q 2344 -856 2625 -561 
Q 2906 -266 2906 331 
L 2906 616 
Q 2728 306 2450 153 
Q 2172 0 1784 0 
Q 1141 0 747 490 
Q 353 981 353 1791 
Q 353 2603 747 3093 
Q 1141 3584 1784 3584 
Q 2172 3584 2450 3431 
Q 2728 3278 2906 2969 
L 2906 3500 
L 3481 3500 
L 3481 434 
z
" transform="scale(0.015625)"/>
       <path id="DejaVuSans-20" transform="scale(0.015625)"/>
       <path id="DejaVuSans-6f" d="M 1959 3097 
Q 1497 3097 1228 2736 
Q 959 2375 959 1747 
Q 959 1119 1226 758 
Q 1494 397 1959 397 
Q 2419 397 2687 759 
Q 2956 1122 2956 1747 
Q 2956 2369 2687 2733 
Q 2419 3097 1959 3097 
z
M 1959 3584 
Q 2709 3584 3137 3096 
Q 3566 2609 3566 1747 
Q 3566 888 3137 398 
Q 2709 -91 1959 -91 
Q 1206 -91 779 398 
Q 353 888 353 1747 
Q 353 2609 779 3096 
Q 1206 3584 1959 3584 
z
" transform="scale(0.015625)"/>
      </defs>
      <use xlink:href="#DejaVuSans-54"/>
      <use xlink:href="#DejaVuSans-72" x="46.333984"/>
      <use xlink:href="#DejaVuSans-61" x="87.447266"/>
      <use xlink:href="#DejaVuSans-63" x="148.726562"/>
      <use xlink:href="#DejaVuSans-6b" x="203.707031"/>
      <use xlink:href="#DejaVuSans-69" x="261.617188"/>
      <use xlink:href="#DejaVuSans-6e" x="289.400391"/>
      <use xlink:href="#DejaVuSans-67" x="352.779297"/>
      <use xlink:href="#DejaVuSans-20" x="416.255859"/>
      <use xlink:href="#DejaVuSans-65" x="448.042969"/>
      <use xlink:href="#DejaVuSans-72" x="509.566406"/>
      <use xlink:href="#DejaVuSans-72" x="548.929688"/>
      <use xlink:href="#DejaVuSans-6f" x="587.792969"/>
      <use xlink:href="#DejaVuSans-72" x="648.974609"/>
      <use xlink:href="#DejaVuSans-28" x="690.087891"/>
      <use xlink:href="#DejaVuSans-6d" x="729.101562"/>
      <use xlink:href="#DejaVuSans-29" x="826.513672"/>
     </g>
    </g>
   </g>
   <g id="line2d_33">
    <path d="M 73.832727 261.915111 
L 74.009362 262.183027 
L 74.009362 262.183027 
L 74.185997 263.552679 
L 74.185997 263.552679 
L 74.362631 272.236713 
L 74.362631 272.236713 
L 74.715901 279.402101 
L 74.715901 279.402101 
L 75.422439 293.928346 
L 75.422439 293.928346 
L 75.599074 294.74713 
L 75.599074 294.74713 
L 76.128978 290.468675 
L 76.128978 290.468675 
L 77.012152 286.861376 
L 77.012152 286.861376 
L 77.71869 284.502075 
L 77.71869 284.502075 
L 77.895325 284.284735 
L 77.895325 284.284735 
L 78.07196 284.395455 
L 78.07196 284.395455 
L 78.425229 285.497191 
L 78.425229 285.497191 
L 79.661672 290.471408 
L 79.661672 290.471408 
L 80.191576 290.981269 
L 80.191576 290.981269 
L 80.544845 291.499331 
L 80.544845 291.499331 
L 81.074749 293.679567 
L 81.074749 293.679567 
L 81.428019 295.39505 
L 81.428019 295.39505 
L 81.957923 293.854532 
L 81.957923 293.854532 
L 82.311192 293.627624 
L 82.311192 293.627624 
L 83.017731 293.551076 
L 83.017731 293.551076 
L 83.371 292.57783 
L 83.371 292.57783 
L 84.430808 288.795566 
L 84.430808 288.795566 
L 84.784078 288.585061 
L 84.784078 288.585061 
L 85.137347 288.638371 
L 85.137347 288.638371 
L 85.313982 288.773695 
L 85.313982 288.773695 
L 85.490616 288.757292 
L 85.490616 288.757292 
L 85.667251 288.546787 
L 85.667251 288.546787 
L 86.197155 286.801232 
L 86.197155 286.801232 
L 86.727059 285.061144 
L 86.727059 285.061144 
L 86.903694 284.85884 
L 86.903694 284.85884 
L 87.433598 285.368701 
L 87.433598 285.368701 
L 87.786867 286.108204 
L 87.786867 286.108204 
L 88.140137 287.013104 
L 88.140137 287.013104 
L 88.316771 287.151163 
L 88.316771 287.151163 
L 88.493406 287.002169 
L 88.493406 287.002169 
L 88.670041 286.701447 
L 88.670041 286.701447 
L 89.199945 286.481373 
L 89.199945 286.481373 
L 89.553214 287.025407 
L 89.553214 287.025407 
L 90.436387 290.86098 
L 90.436387 290.86098 
L 90.789657 292.892221 
L 90.789657 292.892221 
L 91.496195 295.169508 
L 91.496195 295.169508 
L 91.849465 293.068554 
L 91.849465 293.068554 
L 92.202734 289.79205 
L 92.202734 289.79205 
L 92.732638 281.541329 
L 92.732638 281.541329 
L 93.969081 260.66438 
L 93.969081 260.66438 
L 94.498985 254.179718 
L 94.498985 254.179718 
L 94.67562 253.378703 
L 94.67562 253.378703 
L 95.028889 250.607959 
L 95.028889 250.607959 
L 95.205524 250.782925 
L 95.205524 250.782925 
L 95.912063 248.997729 
L 95.912063 248.997729 
L 96.441967 244.71654 
L 96.441967 244.71654 
L 97.148505 230.255907 
L 97.148505 230.255907 
L 97.855044 211.853081 
L 97.855044 211.853081 
L 98.031679 211.542791 
L 98.031679 211.542791 
L 98.208313 209.236799 
L 98.208313 209.236799 
L 98.561583 211.698619 
L 98.561583 211.698619 
L 98.738217 211.776534 
L 98.738217 211.776534 
L 98.914852 218.788827 
L 98.914852 218.788827 
L 99.091487 220.442798 
L 99.091487 220.442798 
L 99.444756 230.294181 
L 99.444756 230.294181 
L 99.798026 239.374622 
L 99.798026 239.374622 
L 99.97466 238.927639 
L 99.97466 238.927639 
L 100.151295 246.334972 
L 100.151295 246.334972 
L 100.32793 245.375395 
L 100.32793 245.375395 
L 100.504564 251.311922 
L 100.504564 251.311922 
L 100.681199 249.913565 
L 100.681199 249.913565 
L 100.857834 254.606196 
L 100.857834 254.606196 
L 101.034468 253.542734 
L 101.034468 253.542734 
L 101.211103 257.431617 
L 101.387738 257.074852 
L 101.387738 257.074852 
L 101.564372 260.416968 
L 101.564372 260.416968 
L 101.741007 260.687618 
L 101.741007 260.687618 
L 101.917642 259.775883 
L 101.917642 259.775883 
L 102.094276 263.595054 
L 102.094276 263.595054 
L 102.270911 261.995759 
L 102.447546 262.840514 
L 102.447546 262.840514 
L 102.62418 257.668094 
L 102.62418 257.668094 
L 102.800815 256.111174 
L 102.800815 256.111174 
L 102.97745 248.244557 
L 103.154084 246.679435 
L 103.154084 246.679435 
L 103.330719 239.675344 
L 103.330719 239.675344 
L 103.507354 239.877648 
L 103.507354 239.877648 
L 103.860623 230.270943 
L 103.860623 230.270943 
L 104.037258 238.24418 
L 104.037258 238.24418 
L 104.213893 236.135024 
L 104.213893 236.135024 
L 104.390527 245.342589 
L 104.390527 245.342589 
L 104.567162 246.32677 
L 104.567162 246.32677 
L 105.097066 270.683894 
L 105.097066 270.683894 
L 105.450335 280.51614 
L 105.450335 280.51614 
L 105.62697 294.563963 
L 105.62697 294.563963 
L 105.803605 289.957447 
L 105.803605 289.957447 
L 106.333509 252.965894 
L 106.333509 252.965894 
L 107.040047 205.103237 
L 107.040047 205.103237 
L 107.923221 150.441526 
L 107.923221 150.441526 
L 108.453125 130.360124 
L 108.453125 130.360124 
L 108.62976 132.358559 
L 108.983029 129.688967 
L 108.983029 129.688967 
L 109.336298 146.70437 
L 109.336298 146.70437 
L 109.512933 154.467102 
L 109.512933 154.467102 
L 110.042837 197.36511 
L 110.042837 197.36511 
L 110.572741 227.647826 
L 110.572741 227.647826 
L 111.27928 250.413857 
L 111.27928 250.413857 
L 111.455915 252.358982 
L 111.455915 252.358982 
L 111.632549 259.730775 
L 111.632549 259.730775 
L 111.985819 263.731745 
L 111.985819 263.731745 
L 112.162453 271.677644 
L 112.162453 271.677644 
L 112.339088 274.131263 
L 112.339088 274.131263 
L 112.692357 284.604594 
L 112.692357 284.604594 
L 112.868992 287.499727 
L 112.868992 287.499727 
L 113.045627 295.117565 
L 113.045627 295.117565 
L 113.222261 295.488 
L 113.222261 295.488 
L 113.752165 275.532354 
L 113.752165 275.532354 
L 113.9288 272.023474 
L 113.9288 272.023474 
L 114.282069 257.802052 
L 114.282069 257.802052 
L 114.458704 253.080715 
L 114.458704 253.080715 
L 114.811973 236.165097 
L 114.811973 236.165097 
L 114.988608 229.592952 
L 115.695147 189.687128 
L 115.695147 189.687128 
L 116.93159 131.137901 
L 116.93159 131.137901 
L 117.284859 122.462068 
L 117.284859 122.462068 
L 117.461494 119.41794 
L 117.461494 119.41794 
L 117.638128 118.969591 
L 117.638128 118.969591 
L 117.991398 117.029933 
L 117.991398 117.029933 
L 118.344667 121.394504 
L 118.344667 121.394504 
L 118.521302 121.760839 
L 118.521302 121.760839 
L 118.697936 128.199026 
L 118.697936 128.199026 
L 119.051206 131.691503 
L 119.051206 131.691503 
L 119.58111 155.858625 
L 119.58111 155.858625 
L 119.934379 167.251892 
L 119.934379 167.251892 
L 120.640918 214.070223 
L 120.640918 214.070223 
L 120.817553 223.023541 
L 120.817553 223.023541 
L 121.347457 264.278513 
L 121.347457 264.278513 
L 121.877361 294.950801 
L 121.877361 294.950801 
L 122.053995 289.506364 
L 122.053995 289.506364 
L 122.407265 272.227145 
L 122.407265 272.227145 
L 122.760534 258.65501 
L 122.760534 258.65501 
L 122.937169 256.759093 
L 122.937169 256.759093 
L 123.113804 248.962189 
L 123.113804 248.962189 
L 123.290438 247.874122 
L 123.290438 247.874122 
L 123.467073 242.666162 
L 123.467073 242.666162 
L 123.643708 242.328533 
L 123.643708 242.328533 
L 123.820342 244.722008 
L 123.820342 244.722008 
L 123.996977 239.863979 
L 123.996977 239.863979 
L 124.173612 242.443354 
L 124.173612 242.443354 
L 124.350246 239.806568 
L 124.350246 239.806568 
L 124.526881 242.683932 
L 124.526881 242.683932 
L 124.703516 242.142632 
L 124.703516 242.142632 
L 124.88015 244.981722 
L 124.88015 244.981722 
L 125.056785 249.641548 
L 125.056785 249.641548 
L 125.23342 248.047721 
L 125.410054 252.07603 
L 125.410054 252.07603 
L 125.586689 252.212722 
L 125.586689 252.212722 
L 125.939958 261.969787 
L 125.939958 261.969787 
L 126.116593 261.067621 
L 126.116593 261.067621 
L 126.293228 265.989895 
L 126.293228 265.989895 
L 126.469862 266.112918 
L 126.823132 276.217181 
L 126.823132 276.217181 
L 126.999767 274.410114 
L 126.999767 274.410114 
L 127.176401 278.729577 
L 127.176401 278.729577 
L 127.353036 277.276543 
L 127.353036 277.276543 
L 127.706305 284.015452 
L 127.706305 284.015452 
L 127.88294 280.410887 
L 127.88294 280.410887 
L 128.059575 283.024436 
L 128.059575 283.024436 
L 128.236209 280.69794 
L 128.236209 280.69794 
L 128.412844 282.681339 
L 128.412844 282.681339 
L 128.589479 286.119139 
L 128.589479 286.119139 
L 128.766113 282.805729 
L 128.766113 282.805729 
L 128.942748 285.379636 
L 128.942748 285.379636 
L 129.119383 283.139257 
L 129.119383 283.139257 
L 129.296017 284.251929 
L 129.296017 284.251929 
L 129.472652 286.497776 
L 129.472652 286.497776 
L 129.649287 282.41479 
L 129.649287 282.41479 
L 129.825921 283.691492 
L 129.825921 283.691492 
L 130.002556 280.819596 
L 130.002556 280.819596 
L 130.179191 281.422407 
L 130.179191 281.422407 
L 130.355826 283.282783 
L 130.355826 283.282783 
L 130.53246 279.407569 
L 130.53246 279.407569 
L 130.709095 280.585853 
L 130.709095 280.585853 
L 130.88573 277.886188 
L 130.88573 277.886188 
L 131.062364 278.108996 
L 131.062364 278.108996 
L 131.238999 279.675485 
L 131.238999 279.675485 
L 131.415634 276.273224 
L 131.415634 276.273224 
L 131.592268 277.187693 
L 131.592268 277.187693 
L 131.768903 279.382964 
L 131.768903 279.382964 
L 131.945538 275.340986 
L 131.945538 275.340986 
L 132.122172 276.54114 
L 132.122172 276.54114 
L 132.298807 273.814138 
L 132.298807 273.814138 
L 132.475442 274.37184 
L 132.475442 274.37184 
L 132.652076 276.121496 
L 132.652076 276.121496 
L 132.828711 272.902403 
L 132.828711 272.902403 
L 133.005346 273.681546 
L 133.005346 273.681546 
L 133.18198 275.597966 
L 133.18198 275.597966 
L 133.358615 272.087719 
L 133.358615 272.087719 
L 133.53525 273.457372 
L 133.53525 273.457372 
L 133.711884 271.434332 
L 133.711884 271.434332 
L 133.888519 271.769227 
L 133.888519 271.769227 
L 134.065154 272.806719 
L 134.065154 272.806719 
L 134.241789 269.746188 
L 134.241789 269.746188 
L 134.418423 269.367551 
L 134.418423 269.367551 
L 134.595058 269.420861 
L 134.595058 269.420861 
L 134.771693 265.068592 
L 134.771693 265.068592 
L 135.124962 263.431023 
L 135.124962 263.431023 
L 135.301597 258.445871 
L 135.301597 258.445871 
L 135.654866 255.665558 
L 135.654866 255.665558 
L 136.008135 247.708725 
L 136.008135 247.708725 
L 136.18477 245.715757 
L 136.18477 245.715757 
L 136.538039 236.260781 
L 136.538039 236.260781 
L 136.714674 233.567951 
L 136.714674 233.567951 
L 137.067943 223.633186 
L 137.067943 223.633186 
L 137.244578 220.747621 
L 137.244578 220.747621 
L 137.597847 210.845662 
L 137.597847 210.845662 
L 137.774482 207.876715 
L 137.774482 207.876715 
L 138.127752 198.480516 
L 138.127752 198.480516 
L 138.304386 195.250487 
L 138.304386 195.250487 
L 138.83429 182.270227 
L 138.83429 182.270227 
L 139.010925 178.84883 
L 139.010925 178.84883 
L 139.364194 168.338592 
L 139.364194 168.338592 
L 139.717464 160.128879 
L 139.717464 160.128879 
L 140.247368 143.170886 
L 140.247368 143.170886 
L 140.777272 125.463821 
L 140.777272 125.463821 
L 141.660445 101.135403 
L 141.660445 101.135403 
L 142.190349 93.27562 
L 142.190349 93.27562 
L 142.366984 92.928423 
L 142.366984 92.928423 
L 142.720253 93.803251 
L 142.720253 93.803251 
L 143.073523 98.370126 
L 143.073523 98.370126 
L 143.603427 109.794833 
L 143.603427 109.794833 
L 144.309965 132.472013 
L 144.309965 132.472013 
L 144.839869 152.147441 
L 144.839869 152.147441 
L 147.48939 259.974086 
L 147.48939 259.974086 
L 148.195928 275.699118 
L 148.195928 275.699118 
L 148.902467 287.758075 
L 148.902467 287.758075 
L 149.432371 294.759432 
L 149.432371 294.759432 
L 149.785641 290.617669 
L 149.785641 290.617669 
L 150.13891 287.477857 
L 150.13891 287.477857 
L 150.492179 285.985181 
L 150.492179 285.985181 
L 151.198718 290.848678 
L 151.198718 290.848678 
L 151.551987 294.797706 
L 151.551987 294.797706 
L 151.728622 295.488 
L 151.728622 295.488 
L 151.905257 289.878166 
L 151.905257 289.878166 
L 152.435161 284.612795 
L 152.435161 284.612795 
L 152.611795 284.312073 
L 152.611795 284.312073 
L 152.78843 284.299771 
L 152.78843 284.299771 
L 152.965065 285.230642 
L 152.965065 285.230642 
L 153.318334 289.358737 
L 153.318334 289.358737 
L 153.671604 294.730727 
L 153.671604 294.730727 
L 154.554777 270.234178 
L 154.554777 270.234178 
L 155.084681 256.605998 
L 155.084681 256.605998 
L 155.261316 252.078764 
L 155.261316 252.078764 
L 155.43795 251.454082 
L 155.43795 251.454082 
L 155.614585 248.78449 
L 155.614585 248.78449 
L 155.79122 249.406438 
L 155.79122 249.406438 
L 155.967854 247.976641 
L 155.967854 247.976641 
L 156.144489 249.368164 
L 156.144489 249.368164 
L 156.321124 248.843267 
L 156.321124 248.843267 
L 156.497758 246.898142 
L 156.497758 246.898142 
L 156.674393 250.039321 
L 156.674393 250.039321 
L 156.851028 247.708725 
L 156.851028 247.708725 
L 157.027662 249.31212 
L 157.027662 249.31212 
L 157.204297 245.635109 
L 157.204297 245.635109 
L 157.380932 246.071156 
L 157.380932 246.071156 
L 157.557567 241.378524 
L 157.557567 241.378524 
L 157.734201 240.444919 
L 157.734201 240.444919 
L 158.264105 225.262553 
L 158.264105 225.262553 
L 158.44074 222.058496 
L 158.44074 222.058496 
L 158.970644 201.61076 
L 158.970644 201.61076 
L 159.147279 197.160072 
L 159.147279 197.160072 
L 159.677183 171.945891 
L 159.677183 171.945891 
L 159.853817 167.037286 
L 159.853817 167.037286 
L 160.030452 156.323377 
L 160.030452 156.323377 
L 160.207087 152.660035 
L 160.207087 152.660035 
L 160.383721 141.134177 
L 160.383721 141.134177 
L 160.560356 137.992998 
L 160.560356 137.992998 
L 160.736991 125.523966 
L 160.736991 125.523966 
L 160.913625 123.209772 
L 160.913625 123.209772 
L 161.09026 109.900085 
L 161.266895 108.813385 
L 161.266895 108.813385 
L 161.44353 103.761254 
L 161.44353 103.761254 
L 161.796799 90.513078 
L 161.796799 90.513078 
L 161.973434 82.1366 
L 161.973434 82.1366 
L 162.150068 80.254353 
L 162.150068 80.254353 
L 162.326703 72.535363 
L 162.326703 72.535363 
L 162.503338 72.055575 
L 162.503338 72.055575 
L 162.679972 65.163571 
L 162.679972 65.163571 
L 162.856607 66.311783 
L 162.856607 66.311783 
L 163.033242 60.410795 
L 163.033242 60.410795 
L 163.209876 62.685348 
L 163.209876 62.685348 
L 163.386511 57.137025 
L 163.386511 57.137025 
L 163.563146 60.063598 
L 163.563146 60.063598 
L 163.73978 54.769522 
L 163.73978 54.769522 
L 163.916415 58.607829 
L 163.916415 58.607829 
L 164.09305 53.568 
L 164.09305 53.568 
L 164.269684 58.238761 
L 164.269684 58.238761 
L 164.446319 53.782606 
L 164.446319 53.782606 
L 164.622954 59.634385 
L 164.622954 59.634385 
L 164.799588 55.493988 
L 164.799588 55.493988 
L 164.976223 62.939594 
L 164.976223 62.939594 
L 165.152858 60.349284 
L 165.152858 60.349284 
L 165.329493 69.550013 
L 165.329493 69.550013 
L 165.506127 68.129785 
L 165.506127 68.129785 
L 165.682762 78.709735 
L 165.682762 78.709735 
L 165.859397 77.709151 
L 165.859397 77.709151 
L 166.036031 88.464067 
L 166.036031 88.464067 
L 166.212666 88.055358 
L 166.212666 88.055358 
L 166.389301 99.087759 
L 166.389301 99.087759 
L 166.565935 98.710489 
L 166.565935 98.710489 
L 166.919205 116.451726 
L 166.919205 116.451726 
L 167.095839 118.500738 
L 167.095839 118.500738 
L 167.272474 124.919788 
L 167.272474 124.919788 
L 167.449109 126.296275 
L 167.449109 126.296275 
L 167.625743 132.616907 
L 167.625743 132.616907 
L 167.802378 133.460295 
L 167.802378 133.460295 
L 167.979013 140.33863 
L 167.979013 140.33863 
L 168.155647 141.876414 
L 168.155647 141.876414 
L 168.332282 149.604972 
L 168.332282 149.604972 
L 168.508917 150.937718 
L 168.508917 150.937718 
L 168.685551 158.994336 
L 168.685551 158.994336 
L 168.862186 160.179455 
L 168.862186 160.179455 
L 169.038821 168.221037 
L 169.038821 168.221037 
L 169.215456 168.527227 
L 169.215456 168.527227 
L 169.39209 176.317297 
L 169.39209 176.317297 
L 169.568725 176.130029 
L 169.568725 176.130029 
L 169.74536 183.328222 
L 169.74536 183.328222 
L 169.921994 182.141737 
L 169.921994 182.141737 
L 170.098629 188.489707 
L 170.098629 188.489707 
L 170.275264 186.246594 
L 170.275264 186.246594 
L 170.451898 191.911105 
L 170.451898 191.911105 
L 170.628533 188.912085 
L 170.628533 188.912085 
L 170.805168 194.022994 
L 170.805168 194.022994 
L 170.981802 190.995269 
L 170.981802 190.995269 
L 171.158437 196.14992 
L 171.158437 196.14992 
L 171.335072 193.558242 
L 171.335072 193.558242 
L 171.511706 198.930232 
L 171.511706 198.930232 
L 171.688341 197.084892 
L 171.688341 197.084892 
L 171.864976 202.840986 
L 171.864976 202.840986 
L 172.04161 201.971626 
L 172.04161 201.971626 
L 172.218245 208.167868 
L 172.218245 208.167868 
L 172.39488 208.352402 
L 172.39488 208.352402 
L 172.571514 214.950519 
L 172.571514 214.950519 
L 172.748149 216.194415 
L 172.748149 216.194415 
L 172.924784 223.05908 
L 172.924784 223.05908 
L 173.101419 225.278956 
L 173.101419 225.278956 
L 173.631323 242.552708 
L 173.631323 242.552708 
L 173.984592 253.538633 
L 173.984592 253.538633 
L 175.574304 292.156819 
L 175.574304 292.156819 
L 175.750939 293.959785 
L 175.750939 293.959785 
L 175.927573 294.108779 
L 175.927573 294.108779 
L 176.104208 293.15467 
L 176.104208 293.15467 
L 176.280843 293.050784 
L 176.280843 293.050784 
L 176.457477 290.200759 
L 176.457477 290.200759 
L 176.634112 295.488 
L 176.634112 295.488 
L 176.987382 287.673326 
L 176.987382 287.673326 
L 177.164016 288.053329 
L 177.164016 288.053329 
L 177.340651 284.640133 
L 177.340651 284.640133 
L 177.517286 295.488 
L 177.517286 295.488 
L 177.870555 279.079508 
L 177.870555 279.079508 
L 178.04719 277.980506 
L 178.04719 277.980506 
L 178.400459 270.365402 
L 178.400459 270.365402 
L 178.577094 268.429845 
L 178.577094 268.429845 
L 178.930363 258.112343 
L 178.930363 258.112343 
L 179.106998 255.250015 
L 179.106998 255.250015 
L 179.460267 242.983287 
L 179.460267 242.983287 
L 179.636902 239.41973 
L 179.636902 239.41973 
L 180.166806 217.766371 
L 180.166806 217.766371 
L 181.226614 176.868165 
L 181.226614 176.868165 
L 181.933153 147.93323 
L 181.933153 147.93323 
L 182.463057 132.750865 
L 182.463057 132.750865 
L 182.816326 130.271274 
L 182.816326 130.271274 
L 182.992961 130.730559 
L 182.992961 130.730559 
L 183.169595 132.548561 
L 183.699499 150.686205 
L 183.699499 150.686205 
L 185.819116 267.747753 
L 185.819116 267.747753 
L 186.172385 276.896539 
L 186.172385 276.896539 
L 186.525654 281.205067 
L 186.525654 281.205067 
L 186.702289 281.508523 
L 186.702289 281.508523 
L 186.878924 281.229671 
L 186.878924 281.229671 
L 187.232193 277.808274 
L 187.232193 277.808274 
L 187.585462 270.812384 
L 187.585462 270.812384 
L 188.468636 243.591566 
L 188.468636 243.591566 
L 189.528444 189.42468 
L 189.528444 189.42468 
L 190.058348 153.511625 
L 190.058348 153.511625 
L 190.234983 148.232586 
L 190.234983 148.232586 
L 190.411617 134.581169 
L 190.411617 134.581169 
L 190.588252 133.166408 
L 190.588252 133.166408 
L 190.764887 129.277524 
L 190.764887 129.277524 
L 190.941521 120.612627 
L 190.941521 120.612627 
L 191.118156 119.170528 
L 191.118156 119.170528 
L 191.294791 111.160384 
L 191.294791 111.160384 
L 191.471425 114.341204 
L 191.471425 114.341204 
L 191.64806 109.306843 
L 191.64806 109.306843 
L 191.824695 118.817863 
L 191.824695 118.817863 
L 192.00133 115.668482 
L 192.00133 115.668482 
L 192.354599 141.376122 
L 192.354599 141.376122 
L 192.531234 146.171272 
L 192.531234 146.171272 
L 192.707868 160.942195 
L 192.707868 160.942195 
L 192.884503 163.255022 
L 192.884503 163.255022 
L 193.061138 178.557676 
L 193.061138 178.557676 
L 193.237772 177.416299 
L 193.237772 177.416299 
L 193.591042 202.657819 
L 193.591042 202.657819 
L 193.767676 200.530894 
L 193.767676 200.530894 
L 193.944311 207.92319 
L 193.944311 207.92319 
L 194.120946 199.631461 
L 194.120946 199.631461 
L 194.29758 205.379354 
L 194.29758 205.379354 
L 194.474215 205.216691 
L 194.474215 205.216691 
L 194.65085 197.246188 
L 194.65085 197.246188 
L 194.827484 198.343824 
L 194.827484 198.343824 
L 195.004119 189.364535 
L 195.004119 189.364535 
L 195.180754 194.173355 
L 195.180754 194.173355 
L 195.357388 185.073778 
L 195.357388 185.073778 
L 195.710658 199.420956 
L 195.710658 199.420956 
L 195.887293 198.707424 
L 195.887293 198.707424 
L 196.063927 208.117292 
L 196.063927 208.117292 
L 196.240562 208.074918 
L 196.240562 208.074918 
L 196.593831 227.314298 
L 196.593831 227.314298 
L 196.770466 229.165106 
L 196.770466 229.165106 
L 196.947101 235.410558 
L 196.947101 235.410558 
L 197.123735 232.568734 
L 197.123735 232.568734 
L 197.30037 237.016687 
L 197.30037 237.016687 
L 197.477005 228.446107 
L 197.477005 228.446107 
L 197.653639 232.17096 
L 197.653639 232.17096 
L 197.830274 231.520307 
L 197.830274 231.520307 
L 198.006909 221.845257 
L 198.006909 221.845257 
L 198.183543 221.252014 
L 198.183543 221.252014 
L 198.360178 208.453554 
L 198.360178 208.453554 
L 198.536813 209.877884 
L 198.536813 209.877884 
L 198.713447 208.586146 
L 198.713447 208.586146 
L 198.890082 201.573853 
L 198.890082 201.573853 
L 199.066717 203.823801 
L 199.066717 203.823801 
L 199.243351 196.654313 
L 199.243351 196.654313 
L 199.419986 202.204002 
L 199.419986 202.204002 
L 199.596621 195.089191 
L 199.596621 195.089191 
L 199.94989 208.825356 
L 199.94989 208.825356 
L 200.126525 206.556271 
L 200.126525 206.556271 
L 200.30316 212.968487 
L 200.479794 208.773413 
L 200.479794 208.773413 
L 200.656429 215.711893 
L 200.656429 215.711893 
L 200.833064 209.51155 
L 200.833064 209.51155 
L 201.186333 218.790193 
L 201.186333 218.790193 
L 201.362968 215.394767 
L 201.362968 215.394767 
L 201.539602 218.740984 
L 201.539602 218.740984 
L 201.716237 215.469948 
L 201.716237 215.469948 
L 201.892872 219.886462 
L 201.892872 219.886462 
L 202.069506 217.657018 
L 202.069506 217.657018 
L 202.246141 223.336565 
L 202.246141 223.336565 
L 202.422776 223.270953 
L 202.422776 223.270953 
L 203.129314 246.77922 
L 203.129314 246.77922 
L 204.189123 279.229869 
L 204.189123 279.229869 
L 204.719027 287.428648 
L 204.719027 287.428648 
L 205.248931 292.79517 
L 205.248931 292.79517 
L 205.778835 295.488 
L 205.778835 295.488 
L 207.015277 285.081648 
L 207.015277 285.081648 
L 207.191912 284.38452 
L 207.191912 284.38452 
L 207.545182 281.29665 
L 207.545182 281.29665 
L 207.721816 280.271461 
L 207.721816 280.271461 
L 210.547971 238.349433 
L 210.547971 238.349433 
L 211.784414 216.361179 
L 211.784414 216.361179 
L 212.137683 213.14892 
L 212.137683 213.14892 
L 212.667587 210.497098 
L 212.667587 210.497098 
L 212.844222 210.368608 
L 213.020857 210.517602 
L 213.020857 210.517602 
L 213.197491 210.897605 
L 213.197491 210.897605 
L 213.374126 210.514868 
L 213.374126 210.514868 
L 213.90403 211.612504 
L 213.90403 211.612504 
L 214.080665 212.019845 
L 214.080665 212.019845 
L 214.257299 211.207896 
L 214.257299 211.207896 
L 214.433934 211.242069 
L 214.433934 211.242069 
L 214.610569 211.578331 
L 214.610569 211.578331 
L 214.787203 212.263157 
L 214.787203 212.263157 
L 214.963838 213.396332 
L 214.963838 213.396332 
L 215.140473 213.4018 
L 215.140473 213.4018 
L 215.493742 216.020816 
L 215.493742 216.020816 
L 216.376916 225.268021 
L 216.376916 225.268021 
L 217.436724 245.529856 
L 217.436724 245.529856 
L 218.673166 280.08556 
L 218.673166 280.08556 
L 219.026436 287.350733 
L 219.026436 287.350733 
L 219.379705 294.082808 
L 219.379705 294.082808 
L 219.55634 295.209149 
L 219.55634 295.209149 
L 219.732975 295.488 
L 219.732975 295.488 
L 219.909609 290.404429 
L 219.909609 290.404429 
L 220.086244 289.604782 
L 220.086244 289.604782 
L 220.969417 274.381409 
L 220.969417 274.381409 
L 221.675956 256.020957 
L 221.675956 256.020957 
L 221.852591 254.35605 
L 221.852591 254.35605 
L 222.029225 249.876658 
L 222.029225 249.876658 
L 222.20586 248.928016 
L 222.20586 248.928016 
L 222.382495 245.764966 
L 222.382495 245.764966 
L 222.559129 245.614605 
L 222.559129 245.614605 
L 222.735764 243.992073 
L 222.735764 243.992073 
L 222.912399 240.50643 
L 222.912399 240.50643 
L 223.089034 243.566961 
L 223.089034 243.566961 
L 223.265668 240.276788 
L 223.265668 240.276788 
L 223.442303 242.830192 
L 223.442303 242.830192 
L 223.618938 239.329513 
L 223.618938 239.329513 
L 223.795572 240.980751 
L 223.795572 240.980751 
L 223.972207 237.272301 
L 223.972207 237.272301 
L 224.148842 237.831371 
L 224.148842 237.831371 
L 224.325476 233.946588 
L 224.325476 233.946588 
L 224.502111 233.844069 
L 224.502111 233.844069 
L 224.678746 230.642745 
L 224.678746 230.642745 
L 224.85538 224.687081 
L 224.85538 224.687081 
L 225.032015 228.648411 
L 225.032015 228.648411 
L 225.20865 223.912038 
L 225.20865 223.912038 
L 225.385284 227.84603 
L 225.385284 227.84603 
L 225.561919 223.972182 
L 225.561919 223.972182 
L 225.738554 227.882936 
L 225.738554 227.882936 
L 225.915188 224.956364 
L 225.915188 224.956364 
L 226.091823 228.705821 
L 226.091823 228.705821 
L 226.268458 226.446305 
L 226.268458 226.446305 
L 226.445092 229.774752 
L 226.445092 229.774752 
L 226.621727 227.947182 
L 226.798362 230.551162 
L 226.798362 230.551162 
L 226.974997 228.906759 
L 226.974997 228.906759 
L 227.151631 224.208659 
L 227.151631 224.208659 
L 227.328266 229.618923 
L 227.328266 229.618923 
L 227.504901 224.907154 
L 227.504901 224.907154 
L 227.681535 230.167058 
L 227.681535 230.167058 
L 227.85817 226.018459 
L 227.85817 226.018459 
L 228.034805 231.852468 
L 228.034805 231.852468 
L 228.211439 229.632592 
L 228.211439 229.632592 
L 228.388074 235.953224 
L 228.388074 235.953224 
L 228.564709 235.868475 
L 228.564709 235.868475 
L 228.741343 242.122128 
L 228.741343 242.122128 
L 228.917978 243.409766 
L 228.917978 243.409766 
L 229.094613 249.601907 
L 229.094613 249.601907 
L 229.271247 251.71243 
L 229.271247 251.71243 
L 229.447882 251.49919 
L 229.447882 251.49919 
L 229.624517 260.395097 
L 229.624517 260.395097 
L 229.801151 261.269925 
L 229.801151 261.269925 
L 229.977786 270.08655 
L 229.977786 270.08655 
L 230.154421 272.147864 
L 230.154421 272.147864 
L 230.50769 284.302505 
L 230.50769 284.302505 
L 230.684325 292.925027 
L 230.684325 292.925027 
L 230.86096 293.511436 
L 230.86096 293.511436 
L 231.214229 279.942034 
L 231.214229 279.942034 
L 231.390864 275.323216 
L 231.390864 275.323216 
L 231.920768 250.54098 
L 231.920768 250.54098 
L 232.627306 217.706227 
L 232.627306 217.706227 
L 233.333845 189.896267 
L 233.333845 189.896267 
L 233.51048 184.717012 
L 233.51048 184.717012 
L 233.863749 183.046637 
L 233.863749 183.046637 
L 234.040384 183.645348 
L 234.040384 183.645348 
L 234.570288 206.467422 
L 234.570288 206.467422 
L 234.923557 235.018252 
L 234.923557 235.018252 
L 235.630096 289.253484 
L 235.630096 289.253484 
L 236.336635 233.692341 
L 236.336635 233.692341 
L 236.866539 208.767946 
L 236.866539 208.767946 
L 237.219808 197.27216 
L 237.219808 197.27216 
L 237.749712 187.489123 
L 237.749712 187.489123 
L 238.102982 184.907013 
L 238.102982 184.907013 
L 238.456251 184.002113 
L 238.456251 184.002113 
L 238.632886 181.728928 
L 238.632886 181.728928 
L 239.16279 178.966385 
L 239.16279 178.966385 
L 239.516059 174.586778 
L 239.516059 174.586778 
L 239.869328 171.88848 
L 239.869328 171.88848 
L 240.222598 170.017168 
L 240.222598 170.017168 
L 240.399232 170.710196 
L 240.399232 170.710196 
L 240.752502 175.230596 
L 240.752502 175.230596 
L 242.518849 211.832577 
L 242.518849 211.832577 
L 242.695483 213.790005 
L 242.695483 213.790005 
L 243.225387 226.572061 
L 243.225387 226.572061 
L 243.578657 234.378534 
L 243.578657 234.378534 
L 244.638465 263.328504 
L 244.638465 263.328504 
L 244.815099 264.885425 
L 244.815099 264.885425 
L 245.168369 271.558722 
L 245.168369 271.558722 
L 245.345003 272.131461 
L 245.345003 272.131461 
L 245.874908 277.176758 
L 245.874908 277.176758 
L 246.051542 275.695018 
L 246.051542 275.695018 
L 246.404812 278.095327 
L 246.404812 278.095327 
L 246.581446 277.24237 
L 246.581446 277.24237 
L 247.11135 283.352496 
L 247.11135 283.352496 
L 247.46462 293.66043 
L 247.46462 293.66043 
L 247.641254 293.362441 
L 247.641254 293.362441 
L 249.407601 214.90131 
L 249.407601 214.90131 
L 249.584236 214.801525 
L 249.584236 214.801525 
L 249.937505 205.40806 
L 249.937505 205.40806 
L 250.11414 210.408248 
L 250.11414 210.408248 
L 250.290775 209.761696 
L 250.290775 209.761696 
L 250.644044 217.827883 
L 250.644044 217.827883 
L 250.820679 220.168047 
L 250.820679 220.168047 
L 251.173948 233.05399 
L 251.173948 233.05399 
L 251.350583 236.910067 
L 251.350583 236.910067 
L 251.703852 252.281068 
L 251.703852 252.281068 
L 251.880487 256.897152 
L 251.880487 256.897152 
L 252.233756 272.757509 
L 252.233756 272.757509 
L 252.410391 277.022296 
L 252.410391 277.022296 
L 252.76366 292.234734 
L 252.76366 292.234734 
L 252.940295 290.694216 
L 252.940295 290.694216 
L 254.176738 260.097109 
L 254.176738 260.097109 
L 254.353372 257.951046 
L 254.353372 257.951046 
L 254.706642 249.016866 
L 254.706642 249.016866 
L 254.883276 246.731378 
L 254.883276 246.731378 
L 255.41318 231.558581 
L 255.41318 231.558581 
L 256.826258 198.706057 
L 256.826258 198.706057 
L 257.002892 196.454742 
L 257.002892 196.454742 
L 257.356162 189.618782 
L 257.356162 189.618782 
L 257.532797 187.806248 
L 257.532797 187.806248 
L 257.886066 182.356343 
L 257.886066 182.356343 
L 258.239335 179.50085 
L 258.239335 179.50085 
L 258.592605 175.186855 
L 258.592605 175.186855 
L 258.945874 173.464537 
L 258.945874 173.464537 
L 259.299143 170.055442 
L 259.299143 170.055442 
L 259.652413 168.069309 
L 259.652413 168.069309 
L 260.005682 165.059354 
L 260.005682 165.059354 
L 260.888855 160.586796 
L 260.888855 160.586796 
L 261.06549 160.299744 
L 261.06549 160.299744 
L 261.41876 160.376291 
L 261.41876 160.376291 
L 261.595394 161.175938 
L 261.595394 161.175938 
L 261.948664 164.530357 
L 261.948664 164.530357 
L 262.301933 170.80178 
L 262.301933 170.80178 
L 262.831837 186.91365 
L 262.831837 186.91365 
L 264.774818 257.288091 
L 264.774818 257.288091 
L 266.187896 291.066018 
L 266.187896 291.066018 
L 266.364531 294.033599 
L 266.364531 294.033599 
L 266.541165 294.570798 
L 266.541165 294.570798 
L 267.071069 291.174005 
L 267.071069 291.174005 
L 267.247704 290.751627 
L 267.247704 290.751627 
L 267.424339 290.683281 
L 267.424339 290.683281 
L 267.954243 292.487614 
L 267.954243 292.487614 
L 268.837416 295.169508 
L 268.837416 295.169508 
L 269.014051 295.062888 
L 269.014051 295.062888 
L 269.36732 292.469844 
L 269.36732 292.469844 
L 269.897224 286.190219 
L 269.897224 286.190219 
L 270.957032 271.810235 
L 270.957032 271.810235 
L 271.486936 268.674523 
L 271.486936 268.674523 
L 271.840206 268.049842 
L 271.840206 268.049842 
L 272.723379 270.853392 
L 272.723379 270.853392 
L 273.076649 272.999454 
L 273.076649 272.999454 
L 273.959822 276.03128 
L 273.959822 276.03128 
L 274.136457 276.347038 
L 274.136457 276.347038 
L 274.489726 277.731726 
L 274.489726 277.731726 
L 275.549534 290.463207 
L 275.549534 290.463207 
L 275.902803 295.218717 
L 275.902803 295.218717 
L 276.609342 286.045326 
L 276.609342 286.045326 
L 277.315881 279.653614 
L 277.315881 279.653614 
L 277.845785 276.243152 
L 277.845785 276.243152 
L 278.02242 275.731924 
L 278.02242 275.731924 
L 278.199054 275.584297 
L 278.199054 275.584297 
L 278.375689 275.812573 
L 278.552324 276.416751 
L 278.552324 276.416751 
L 278.905593 278.968788 
L 278.905593 278.968788 
L 279.612132 286.676842 
L 279.612132 286.676842 
L 280.31867 294.923463 
L 280.31867 294.923463 
L 280.495305 295.488 
L 280.495305 295.488 
L 280.848575 291.80142 
L 280.848575 291.80142 
L 282.085017 281.31442 
L 282.085017 281.31442 
L 282.438287 276.222648 
L 282.438287 276.222648 
L 282.791556 268.730567 
L 282.791556 268.730567 
L 283.32146 250.547815 
L 283.32146 250.547815 
L 283.851364 226.044431 
L 283.851364 226.044431 
L 284.381268 194.214363 
L 284.381268 194.214363 
L 284.911172 157.522165 
L 284.911172 157.522165 
L 285.087807 158.440734 
L 285.087807 158.440734 
L 285.264442 157.989651 
L 285.441076 149.648713 
L 285.441076 149.648713 
L 285.617711 155.274951 
L 285.617711 155.274951 
L 285.794346 145.474144 
L 285.794346 145.474144 
L 286.147615 162.857248 
L 286.147615 162.857248 
L 286.32425 157.213241 
L 286.32425 157.213241 
L 286.500884 164.102511 
L 286.500884 164.102511 
L 286.677519 152.419457 
L 286.677519 152.419457 
L 286.854154 158.874047 
L 286.854154 158.874047 
L 287.030788 159.244482 
L 287.030788 159.244482 
L 287.207423 147.365959 
L 287.207423 147.365959 
L 287.384058 147.300347 
L 287.384058 147.300347 
L 287.560692 129.932278 
L 287.560692 129.932278 
L 287.737327 131.669632 
L 287.737327 131.669632 
L 287.913962 128.975435 
L 287.913962 128.975435 
L 288.090596 116.051219 
L 288.267231 118.253325 
L 288.267231 118.253325 
L 288.443866 106.735669 
L 288.443866 106.735669 
L 288.797135 121.621413 
L 288.797135 121.621413 
L 288.97377 119.767871 
L 288.97377 119.767871 
L 289.150405 129.459325 
L 289.150405 129.459325 
L 289.327039 126.797934 
L 289.327039 126.797934 
L 289.680309 143.4265 
L 289.680309 143.4265 
L 289.856943 138.736602 
L 289.856943 138.736602 
L 290.033578 143.306211 
L 290.033578 143.306211 
L 290.210213 143.019158 
L 290.210213 143.019158 
L 290.386847 134.202532 
L 290.386847 134.202532 
L 290.563482 133.709075 
L 290.563482 133.709075 
L 290.740117 117.938934 
L 290.740117 117.938934 
L 290.916751 118.463831 
L 290.916751 118.463831 
L 291.093386 114.350772 
L 291.093386 114.350772 
L 291.270021 101.719077 
L 291.270021 101.719077 
L 291.446655 101.473032 
L 291.446655 101.473032 
L 291.62329 86.848369 
L 291.62329 86.848369 
L 291.97656 93.391809 
L 291.97656 93.391809 
L 292.153194 88.647234 
L 292.153194 88.647234 
L 292.329829 97.428319 
L 292.329829 97.428319 
L 292.506464 94.564625 
L 292.506464 94.564625 
L 292.683098 111.69485 
L 292.683098 111.69485 
L 292.859733 110.769446 
L 292.859733 110.769446 
L 293.213002 151.559666 
L 293.213002 151.559666 
L 293.389637 158.731888 
L 293.389637 158.731888 
L 293.566272 177.464141 
L 293.566272 177.464141 
L 293.742906 183.119084 
L 293.742906 183.119084 
L 294.096176 210.454723 
L 294.096176 210.454723 
L 295.332618 242.150834 
L 295.332618 242.150834 
L 295.509253 243.721423 
L 295.509253 243.721423 
L 296.215792 260.520854 
L 296.215792 260.520854 
L 296.392427 262.405834 
L 296.392427 262.405834 
L 296.569061 266.468317 
L 296.569061 266.468317 
L 296.745696 267.158611 
L 296.745696 267.158611 
L 297.098965 272.30916 
L 297.098965 272.30916 
L 297.2756 272.266786 
L 297.2756 272.266786 
L 297.452235 273.274205 
L 297.452235 273.274205 
L 297.628869 271.747357 
L 297.628869 271.747357 
L 297.805504 271.707716 
L 297.805504 271.707716 
L 297.982139 269.11057 
L 297.982139 269.11057 
L 298.158773 268.633516 
L 298.158773 268.633516 
L 298.335408 265.689173 
L 298.335408 265.689173 
L 298.512043 265.318738 
L 298.512043 265.318738 
L 298.688677 262.109213 
L 298.688677 262.109213 
L 298.865312 261.89324 
L 298.865312 261.89324 
L 299.041947 258.620837 
L 299.041947 258.620837 
L 299.218581 258.466375 
L 299.218581 258.466375 
L 299.395216 255.245914 
L 299.395216 255.245914 
L 299.571851 255.291023 
L 299.571851 255.291023 
L 299.748486 252.324809 
L 299.748486 252.324809 
L 299.92512 252.704813 
L 299.92512 252.704813 
L 300.101755 250.311338 
L 300.101755 250.311338 
L 300.27839 251.244943 
L 300.27839 251.244943 
L 300.455024 249.894428 
L 300.455024 249.894428 
L 300.631659 251.515593 
L 300.631659 251.515593 
L 300.808294 251.417175 
L 300.808294 251.417175 
L 300.984928 249.480251 
L 300.984928 249.480251 
L 301.161563 255.035409 
L 301.161563 255.035409 
L 301.338198 254.736054 
L 301.338198 254.736054 
L 301.514832 261.055319 
L 301.514832 261.055319 
L 301.691467 262.809075 
L 301.691467 262.809075 
L 302.044736 275.082638 
L 302.044736 275.082638 
L 302.221371 278.672167 
L 302.221371 278.672167 
L 302.398006 292.494448 
L 302.398006 292.494448 
L 302.57464 290.558891 
L 302.57464 290.558891 
L 304.164353 166.077709 
L 304.164353 166.077709 
L 304.517622 149.287847 
L 304.517622 149.287847 
L 304.870891 141.490943 
L 304.870891 141.490943 
L 305.224161 137.771557 
L 305.224161 137.771557 
L 305.400795 141.645404 
L 305.400795 141.645404 
L 305.57743 141.295473 
L 305.57743 141.295473 
L 305.754065 146.600485 
L 305.754065 146.600485 
L 305.930699 146.42962 
L 305.930699 146.42962 
L 306.107334 151.377865 
L 306.107334 151.377865 
L 306.283969 150.150372 
L 306.283969 150.150372 
L 306.460603 153.515726 
L 306.637238 150.255625 
L 306.637238 150.255625 
L 306.813873 151.597939 
L 306.813873 151.597939 
L 306.990507 146.444656 
L 306.990507 146.444656 
L 307.167142 146.869768 
L 307.167142 146.869768 
L 307.343777 140.799282 
L 307.343777 140.799282 
L 307.520412 141.264034 
L 307.520412 141.264034 
L 307.697046 135.017216 
L 307.697046 135.017216 
L 307.873681 135.667869 
L 307.873681 135.667869 
L 308.050316 129.647959 
L 308.050316 129.647959 
L 308.22695 131.811792 
L 308.22695 131.811792 
L 308.403585 127.258585 
L 308.403585 127.258585 
L 308.58022 131.832295 
L 308.58022 131.832295 
L 308.756854 129.386878 
L 308.756854 129.386878 
L 308.933489 136.45248 
L 308.933489 136.45248 
L 309.110124 135.505206 
L 309.110124 135.505206 
L 309.463393 149.48605 
L 309.463393 149.48605 
L 309.640028 151.843985 
L 309.640028 151.843985 
L 309.816662 156.998635 
L 309.816662 156.998635 
L 309.993297 157.539935 
L 309.993297 157.539935 
L 310.169932 161.540906 
L 310.169932 161.540906 
L 310.346566 159.75571 
L 310.346566 159.75571 
L 310.523201 163.121064 
L 310.523201 163.121064 
L 310.699836 159.53837 
L 310.699836 159.53837 
L 310.87647 164.628775 
L 310.87647 164.628775 
L 311.053105 158.871314 
L 311.053105 158.871314 
L 311.406375 169.339177 
L 311.406375 169.339177 
L 311.583009 168.491687 
L 311.583009 168.491687 
L 311.759644 175.598297 
L 311.759644 175.598297 
L 311.936279 175.454771 
L 311.936279 175.454771 
L 312.112913 186.558251 
L 312.112913 186.558251 
L 312.289548 188.042725 
L 312.289548 188.042725 
L 312.466183 203.289336 
L 312.466183 203.289336 
L 312.642817 204.570139 
L 312.642817 204.570139 
L 312.996087 232.288515 
L 312.996087 232.288515 
L 313.172721 233.604858 
L 313.172721 233.604858 
L 313.349356 242.212345 
L 313.349356 242.212345 
L 313.525991 237.59216 
L 313.525991 237.59216 
L 313.702625 243.882719 
L 313.702625 243.882719 
L 313.87926 234.226806 
L 313.87926 234.226806 
L 314.055895 238.614615 
L 314.055895 238.614615 
L 314.232529 237.076831 
L 314.232529 237.076831 
L 314.409164 227.355306 
L 314.409164 227.355306 
L 314.585799 225.892703 
L 314.585799 225.892703 
L 314.762433 214.838432 
L 314.762433 214.838432 
L 314.939068 216.794492 
L 314.939068 216.794492 
L 315.115703 206.896634 
L 315.115703 206.896634 
L 315.292338 212.17294 
L 315.292338 212.17294 
L 315.468972 202.946239 
L 315.468972 202.946239 
L 315.822242 217.337159 
L 315.822242 217.337159 
L 315.998876 216.745283 
L 315.998876 216.745283 
L 316.175511 226.450406 
L 316.175511 226.450406 
L 316.352146 226.697818 
L 316.352146 226.697818 
L 316.52878 238.082884 
L 316.52878 238.082884 
L 316.705415 237.008485 
L 316.705415 237.008485 
L 317.058684 253.155896 
L 317.058684 253.155896 
L 317.235319 251.816315 
L 317.235319 251.816315 
L 317.411954 255.833689 
L 317.411954 255.833689 
L 317.588588 251.541565 
L 317.588588 251.541565 
L 317.765223 254.722385 
L 317.765223 254.722385 
L 317.941858 249.398236 
L 318.118492 252.845605 
L 318.118492 252.845605 
L 318.295127 246.904977 
L 318.295127 246.904977 
L 318.648396 252.378119 
L 318.648396 252.378119 
L 318.825031 250.297669 
L 318.825031 250.297669 
L 319.001666 252.278334 
L 319.001666 252.278334 
L 319.178301 250.297669 
L 319.178301 250.297669 
L 319.354935 252.173081 
L 319.354935 252.173081 
L 319.53157 250.203351 
L 319.53157 250.203351 
L 319.708205 251.732933 
L 319.708205 251.732933 
L 319.884839 248.794058 
L 319.884839 248.794058 
L 320.061474 249.485719 
L 320.061474 249.485719 
L 320.238109 245.420503 
L 320.238109 245.420503 
L 320.414743 245.170357 
L 320.414743 245.170357 
L 320.591378 239.900885 
L 320.591378 239.900885 
L 320.768013 239.276204 
L 320.768013 239.276204 
L 320.944647 236.921003 
L 320.944647 236.921003 
L 321.297917 230.413103 
L 321.297917 230.413103 
L 321.474551 226.339685 
L 321.474551 226.339685 
L 321.651186 225.660327 
L 321.651186 225.660327 
L 321.827821 222.580659 
L 321.827821 222.580659 
L 322.004455 223.399443 
L 322.004455 223.399443 
L 322.18109 221.904034 
L 322.18109 221.904034 
L 322.357725 224.118442 
L 322.357725 224.118442 
L 322.534359 224.15945 
L 322.534359 224.15945 
L 322.887629 229.98389 
L 322.887629 229.98389 
L 323.064264 229.931948 
L 323.064264 229.931948 
L 323.240898 237.545685 
L 323.240898 237.545685 
L 323.417533 238.432815 
L 323.417533 238.432815 
L 323.594168 246.292597 
L 323.594168 246.292597 
L 323.770802 248.269161 
L 323.770802 248.269161 
L 324.300706 266.879759 
L 324.300706 266.879759 
L 324.477341 271.2621 
L 324.477341 271.2621 
L 324.653976 279.194329 
L 324.653976 279.194329 
L 324.83061 295.488 
L 324.83061 295.488 
L 325.007245 290.182989 
L 325.007245 290.182989 
L 325.18388 290.430401 
L 325.18388 290.430401 
L 325.537149 273.343918 
L 325.537149 273.343918 
L 326.773592 219.652719 
L 326.773592 219.652719 
L 327.126861 212.033514 
L 327.126861 212.033514 
L 327.480131 208.387942 
L 327.480131 208.387942 
L 327.656765 207.980601 
L 327.656765 207.980601 
L 327.8334 208.207509 
L 327.8334 208.207509 
L 328.010035 209.310612 
L 328.010035 209.310612 
L 328.363304 213.563096 
L 328.363304 213.563096 
L 328.716573 220.818701 
L 328.716573 220.818701 
L 329.246477 238.066481 
L 329.246477 238.066481 
L 329.776381 264.357794 
L 329.776381 264.357794 
L 330.306285 294.203096 
L 330.306285 294.203096 
L 330.83619 261.328702 
L 330.83619 261.328702 
L 331.012824 255.824121 
L 331.012824 255.824121 
L 331.366094 240.953413 
L 331.366094 240.953413 
L 331.542728 232.035635 
L 331.542728 232.035635 
L 331.719363 229.163739 
L 331.719363 229.163739 
L 331.895998 222.34965 
L 331.895998 222.34965 
L 332.072632 220.777693 
L 332.072632 220.777693 
L 332.425902 209.00579 
L 332.425902 209.00579 
L 332.602536 213.014962 
L 332.602536 213.014962 
L 332.779171 207.7988 
L 332.779171 207.7988 
L 332.955806 212.265891 
L 332.955806 212.265891 
L 333.13244 208.841759 
L 333.13244 208.841759 
L 333.309075 213.919862 
L 333.309075 213.919862 
L 333.48571 212.153803 
L 333.48571 212.153803 
L 333.662344 217.337159 
L 333.662344 217.337159 
L 333.838979 216.864205 
L 333.838979 216.864205 
L 334.015614 221.361367 
L 334.015614 221.361367 
L 334.192248 221.135826 
L 334.192248 221.135826 
L 334.368883 223.927074 
L 334.368883 223.927074 
L 334.545518 222.541018 
L 334.545518 222.541018 
L 334.722153 223.415846 
L 334.898787 220.604095 
L 334.898787 220.604095 
L 335.075422 220.411359 
L 335.075422 220.411359 
L 335.252057 217.302986 
L 335.252057 217.302986 
L 335.428691 210.924943 
L 335.428691 210.924943 
L 335.605326 215.01203 
L 335.605326 215.01203 
L 335.781961 209.93256 
L 335.781961 209.93256 
L 335.958595 214.753683 
L 335.958595 214.753683 
L 336.13523 210.200477 
L 336.13523 210.200477 
L 336.311865 215.226636 
L 336.311865 215.226636 
L 336.488499 211.44984 
L 336.665134 216.690606 
L 336.665134 216.690606 
L 336.841769 213.837847 
L 336.841769 213.837847 
L 337.018403 218.760121 
L 337.018403 218.760121 
L 337.195038 216.763053 
L 337.195038 216.763053 
L 337.371673 221.988783 
L 337.371673 221.988783 
L 337.548307 221.461153 
L 337.548307 221.461153 
L 337.724942 227.177606 
L 337.724942 227.177606 
L 337.901577 228.759131 
L 338.078211 228.078406 
L 338.078211 228.078406 
L 338.254846 239.467572 
L 338.254846 239.467572 
L 338.431481 241.722988 
L 338.431481 241.722988 
L 338.961385 272.527867 
L 338.961385 272.527867 
L 339.13802 280.293332 
L 339.13802 280.293332 
L 339.314654 293.883237 
L 339.314654 293.883237 
L 339.491289 287.446417 
L 339.491289 287.446417 
L 340.197828 240.979384 
L 340.197828 240.979384 
L 340.904366 202.609977 
L 340.904366 202.609977 
L 341.257636 186.629331 
L 341.257636 186.629331 
L 341.43427 184.297368 
L 341.43427 184.297368 
L 341.610905 178.970486 
L 341.610905 178.970486 
L 341.78754 179.279409 
L 341.78754 179.279409 
L 341.964174 177.037663 
L 341.964174 177.037663 
L 342.140809 179.51862 
L 342.140809 179.51862 
L 342.317444 179.60747 
L 342.317444 179.60747 
L 342.494079 177.898821 
L 342.494079 177.898821 
L 342.670713 184.619961 
L 342.670713 184.619961 
L 342.847348 184.283699 
L 342.847348 184.283699 
L 343.023983 190.899585 
L 343.200617 191.622685 
L 343.200617 191.622685 
L 343.377252 197.712308 
L 343.377252 197.712308 
L 343.553887 199.461963 
L 343.553887 199.461963 
L 343.730521 197.725977 
L 343.730521 197.725977 
L 343.907156 208.520533 
L 343.907156 208.520533 
L 344.083791 208.381108 
L 344.260425 219.167463 
L 344.260425 219.167463 
L 344.43706 221.04971 
L 344.43706 221.04971 
L 344.790329 240.126427 
L 344.790329 240.126427 
L 344.966964 244.754814 
L 344.966964 244.754814 
L 345.320233 279.998078 
L 345.320233 279.998078 
L 345.496868 286.216191 
L 345.496868 286.216191 
L 345.850138 245.579066 
L 345.850138 245.579066 
L 347.263215 100.009062 
L 347.263215 100.009062 
L 347.43985 87.805212 
L 347.43985 87.805212 
L 347.616484 87.801111 
L 347.616484 87.801111 
L 347.969754 84.296332 
L 347.969754 84.296332 
L 350.442639 270.395474 
L 350.442639 270.395474 
L 350.795909 289.209743 
L 350.795909 289.209743 
L 350.972543 292.07207 
L 350.972543 292.07207 
L 351.149178 288.277504 
L 351.149178 288.277504 
L 351.325813 281.910397 
L 351.325813 281.910397 
L 351.502447 279.922897 
L 351.502447 279.922897 
L 351.679082 280.82643 
L 351.679082 280.82643 
L 351.855717 275.79617 
L 351.855717 275.79617 
L 352.032351 277.567696 
L 352.032351 277.567696 
L 352.208986 274.714937 
L 352.208986 274.714937 
L 352.385621 277.06467 
L 352.385621 277.06467 
L 352.562255 275.819407 
L 352.562255 275.819407 
L 352.73889 278.18691 
L 352.73889 278.18691 
L 352.915525 282.757886 
L 352.915525 282.757886 
L 353.092159 279.514188 
L 353.268794 283.341561 
L 353.268794 283.341561 
L 353.445429 280.755351 
L 353.445429 280.755351 
L 353.622064 283.636815 
L 353.622064 283.636815 
L 353.798698 281.128519 
L 353.798698 281.128519 
L 353.975333 282.723713 
L 353.975333 282.723713 
L 354.151968 280.466931 
L 354.151968 280.466931 
L 354.328602 281.031468 
L 354.328602 281.031468 
L 354.505237 283.534296 
L 354.505237 283.534296 
L 354.681872 278.889507 
L 354.681872 278.889507 
L 354.858506 280.259159 
L 354.858506 280.259159 
L 355.035141 275.954732 
L 355.035141 275.954732 
L 355.211776 276.293728 
L 355.211776 276.293728 
L 355.38841 272.825855 
L 355.38841 272.825855 
L 355.565045 272.158799 
L 355.565045 272.158799 
L 355.74168 273.162117 
L 355.74168 273.162117 
L 355.918314 267.105301 
L 355.918314 267.105301 
L 356.094949 266.594073 
L 356.094949 266.594073 
L 356.271584 261.115463 
L 356.271584 261.115463 
L 356.448218 259.410916 
L 356.448218 259.410916 
L 356.624853 259.052783 
L 356.624853 259.052783 
L 356.801488 251.656386 
L 356.801488 251.656386 
L 356.978122 250.151408 
L 356.978122 250.151408 
L 357.154757 243.63394 
L 357.154757 243.63394 
L 357.331392 241.364855 
L 357.331392 241.364855 
L 357.684661 233.313704 
L 357.684661 233.313704 
L 357.861296 231.980959 
L 357.861296 231.980959 
L 358.037931 226.963 
L 358.037931 226.963 
L 358.214565 226.074503 
L 358.214565 226.074503 
L 358.3912 223.458221 
L 358.3912 223.458221 
L 358.567835 223.685129 
L 358.744469 225.653492 
L 358.744469 225.653492 
L 358.921104 225.944646 
L 358.921104 225.944646 
L 359.451008 238.091085 
L 359.451008 238.091085 
L 360.157547 263.127567 
L 360.157547 263.127567 
L 360.334181 265.802627 
L 360.334181 265.802627 
L 360.687451 278.104895 
L 360.687451 278.104895 
L 360.864085 278.778786 
L 360.864085 278.778786 
L 361.04072 283.649117 
L 361.04072 283.649117 
L 361.217355 284.592291 
L 361.217355 284.592291 
L 361.570624 291.208178 
L 361.570624 291.208178 
L 361.747259 290.314213 
L 361.747259 290.314213 
L 361.923894 295.488 
L 361.923894 295.488 
L 362.100528 294.054102 
L 362.100528 294.054102 
L 362.277163 291.409115 
L 362.277163 291.409115 
L 362.453798 295.488 
L 362.453798 295.488 
L 362.630432 293.205246 
L 362.630432 293.205246 
L 362.807067 289.46809 
L 362.807067 289.46809 
L 362.983702 295.488 
L 362.983702 295.488 
L 363.336971 283.873292 
L 363.336971 283.873292 
L 363.69024 280.074625 
L 363.69024 280.074625 
L 364.04351 268.768841 
L 364.04351 268.768841 
L 364.220144 264.908662 
L 364.220144 264.908662 
L 364.573414 250.8294 
L 364.573414 250.8294 
L 364.750048 245.754031 
L 364.750048 245.754031 
L 365.103318 230.819078 
L 365.103318 230.819078 
L 365.456587 216.510173 
L 365.456587 216.510173 
L 367.399569 149.007628 
L 367.399569 149.007628 
L 368.106107 132.800074 
L 368.106107 132.800074 
L 368.459377 128.834643 
L 368.459377 128.834643 
L 368.636011 128.058233 
L 368.636011 128.058233 
L 368.812646 128.263271 
L 368.812646 128.263271 
L 368.989281 129.36364 
L 368.989281 129.36364 
L 369.34255 134.229871 
L 369.34255 134.229871 
L 369.69582 142.897502 
L 369.69582 142.897502 
L 370.225724 162.058968 
L 370.225724 162.058968 
L 372.168705 239.973332 
L 372.168705 239.973332 
L 373.581783 282.353279 
L 373.581783 282.353279 
L 374.111687 295.488 
L 374.111687 295.488 
L 374.288321 295.307567 
L 374.288321 295.307567 
L 374.818225 290.658676 
L 374.818225 290.658676 
L 374.99486 295.488 
L 374.99486 295.488 
L 375.171495 288.859811 
L 375.701399 285.884029 
L 375.701399 285.884029 
L 376.937842 277.119347 
L 376.937842 277.119347 
L 377.114476 276.791286 
L 377.114476 276.791286 
L 377.291111 276.934813 
L 377.291111 276.934813 
L 377.467746 277.2246 
L 377.467746 277.2246 
L 377.821015 278.486266 
L 377.821015 278.486266 
L 378.527554 281.735431 
L 378.527554 281.735431 
L 378.704188 282.004714 
L 378.704188 282.004714 
L 379.587362 282.299969 
L 379.587362 282.299969 
L 379.763996 282.608892 
L 379.763996 282.608892 
L 380.2939 285.473954 
L 380.2939 285.473954 
L 381.000439 291.169904 
L 381.000439 291.169904 
L 381.177074 295.488 
L 381.177074 295.488 
L 381.353709 293.515536 
L 381.353709 293.515536 
L 381.883613 295.131234 
L 381.883613 295.131234 
L 382.060247 295.488 
L 382.060247 295.488 
L 382.236882 295.370445 
L 382.236882 295.370445 
L 382.413517 295.103896 
L 382.413517 295.103896 
L 382.766786 293.834028 
L 382.766786 293.834028 
L 382.943421 295.488 
L 382.943421 295.488 
L 383.120055 291.912141 
L 383.120055 291.912141 
L 384.003229 286.689145 
L 384.003229 286.689145 
L 384.179863 286.255831 
L 384.179863 286.255831 
L 384.356498 286.238061 
L 384.356498 286.238061 
L 384.709768 287.138861 
L 384.709768 287.138861 
L 385.769576 291.499331 
L 385.769576 291.499331 
L 386.122845 291.63739 
L 386.122845 291.63739 
L 386.829384 291.357172 
L 386.829384 291.357172 
L 387.182653 292.158186 
L 387.182653 292.158186 
L 388.242461 295.180443 
L 388.242461 295.180443 
L 388.419096 295.057421 
L 388.949 293.813525 
L 388.949 293.813525 
L 389.478904 292.443872 
L 389.478904 292.443872 
L 389.655539 292.483513 
L 389.655539 292.483513 
L 390.008808 292.930495 
L 390.008808 292.930495 
L 390.891981 294.72936 
L 390.891981 294.72936 
L 391.068616 294.558495 
L 391.068616 294.558495 
L 392.128424 292.244302 
L 392.128424 292.244302 
L 392.481694 292.751429 
L 392.481694 292.751429 
L 392.834963 293.709639 
L 392.834963 293.709639 
L 393.364867 295.392316 
L 393.364867 295.392316 
L 393.541502 295.043751 
L 393.541502 295.043751 
L 393.718136 295.005478 
L 393.718136 295.005478 
L 394.24804 295.404618 
L 394.24804 295.404618 
L 394.60131 294.904326 
L 394.60131 294.904326 
L 394.777944 294.87152 
L 394.777944 294.87152 
L 394.954579 295.215983 
L 394.954579 295.215983 
L 395.131214 295.269293 
L 395.131214 295.269293 
L 395.661118 293.299563 
L 395.661118 293.299563 
L 396.014387 291.895738 
L 396.014387 291.895738 
L 396.191022 291.496597 
L 396.191022 291.496597 
L 396.367657 291.477461 
L 396.367657 291.477461 
L 396.720926 293.361075 
L 396.720926 293.361075 
L 396.897561 294.816843 
L 396.897561 294.816843 
L 397.074195 294.282378 
L 397.074195 294.282378 
L 397.957369 285.01877 
L 397.957369 285.01877 
L 398.134003 294.733461 
L 398.134003 294.733461 
L 398.310638 239.471673 
L 398.310638 239.471673 
L 398.487273 239.319945 
L 398.487273 239.319945 
" clip-path="url(#p2b53dd9b01)" style="fill: none; stroke: #1f77b4; stroke-width: 1.5; stroke-linecap: square"/>
   </g>
   <g id="patch_3">
    <path d="M 57.6 307.584 
L 57.6 41.472 
" style="fill: none; stroke: #000000; stroke-width: 0.8; stroke-linejoin: miter; stroke-linecap: square"/>
   </g>
   <g id="patch_4">
    <path d="M 414.72 307.584 
L 414.72 41.472 
" style="fill: none; stroke: #000000; stroke-width: 0.8; stroke-linejoin: miter; stroke-linecap: square"/>
   </g>
   <g id="patch_5">
    <path d="M 57.6 307.584 
L 414.72 307.584 
" style="fill: none; stroke: #000000; stroke-width: 0.8; stroke-linejoin: miter; stroke-linecap: square"/>
   </g>
   <g id="patch_6">
    <path d="M 57.6 41.472 
L 414.72 41.472 
" style="fill: none; stroke: #000000; stroke-width: 0.8; stroke-linejoin: miter; stroke-linecap: square"/>
   </g>
   <g id="text_19">
    <!-- Tracking error vs Time -->
    <g transform="translate(169.584375 35.472) scale(0.12 -0.12)">
     <defs>
      <path id="DejaVuSans-76" d="M 191 3500 
L 800 3500 
L 1894 563 
L 2988 3500 
L 3597 3500 
L 2284 0 
L 1503 0 
L 191 3500 
z
" transform="scale(0.015625)"/>
     </defs>
     <use xlink:href="#DejaVuSans-54"/>
     <use xlink:href="#DejaVuSans-72" x="46.333984"/>
     <use xlink:href="#DejaVuSans-61" x="87.447266"/>
     <use xlink:href="#DejaVuSans-63" x="148.726562"/>
     <use xlink:href="#DejaVuSans-6b" x="203.707031"/>
     <use xlink:href="#DejaVuSans-69" x="261.617188"/>
     <use xlink:href="#DejaVuSans-6e" x="289.400391"/>
     <use xlink:href="#DejaVuSans-67" x="352.779297"/>
     <use xlink:href="#DejaVuSans-20" x="416.255859"/>
     <use xlink:href="#DejaVuSans-65" x="448.042969"/>
     <use xlink:href="#DejaVuSans-72" x="509.566406"/>
     <use xlink:href="#DejaVuSans-72" x="548.929688"/>
     <use xlink:href="#DejaVuSans-6f" x="587.792969"/>
     <use xlink:href="#DejaVuSans-72" x="648.974609"/>
     <use xlink:href="#DejaVuSans-20" x="690.087891"/>
     <use xlink:href="#DejaVuSans-76" x="721.875"/>
     <use xlink:href="#DejaVuSans-73" x="781.054688"/>
     <use xlink:href="#DejaVuSans-20" x="833.154297"/>
     <use xlink:href="#DejaVuSans-54" x="864.941406"/>
     <use xlink:href="#DejaVuSans-69" x="922.900391"/>
     <use xlink:href="#DejaVuSans-6d" x="950.683594"/>
     <use xlink:href="#DejaVuSans-65" x="1048.095703"/>
    </g>
   </g>
   <g id="legend_1">
    <g id="patch_7">
     <path d="M 311.00125 64.150125 
L 407.72 64.150125 
Q 409.72 64.150125 409.72 62.150125 
L 409.72 48.472 
Q 409.72 46.472 407.72 46.472 
L 311.00125 46.472 
Q 309.00125 46.472 309.00125 48.472 
L 309.00125 62.150125 
Q 309.00125 64.150125 311.00125 64.150125 
z
" style="fill: #ffffff; opacity: 0.8; stroke: #cccccc; stroke-linejoin: miter"/>
    </g>
    <g id="line2d_34">
     <path d="M 313.00125 54.570438 
L 323.00125 54.570438 
L 333.00125 54.570438 
" style="fill: none; stroke: #1f77b4; stroke-width: 1.5; stroke-linecap: square"/>
    </g>
    <g id="text_20">
     <!-- Actual speed -->
     <g transform="translate(341.00125 58.070438) scale(0.1 -0.1)">
      <defs>
       <path id="DejaVuSans-41" d="M 2188 4044 
L 1331 1722 
L 3047 1722 
L 2188 4044 
z
M 1831 4666 
L 2547 4666 
L 4325 0 
L 3669 0 
L 3244 1197 
L 1141 1197 
L 716 0 
L 50 0 
L 1831 4666 
z
" transform="scale(0.015625)"/>
       <path id="DejaVuSans-74" d="M 1172 4494 
L 1172 3500 
L 2356 3500 
L 2356 3053 
L 1172 3053 
L 1172 1153 
Q 1172 725 1289 603 
Q 1406 481 1766 481 
L 2356 481 
L 2356 0 
L 1766 0 
Q 1100 0 847 248 
Q 594 497 594 1153 
L 594 3053 
L 172 3053 
L 172 3500 
L 594 3500 
L 594 4494 
L 1172 4494 
z
" transform="scale(0.015625)"/>
       <path id="DejaVuSans-75" d="M 544 1381 
L 544 3500 
L 1119 3500 
L 1119 1403 
Q 1119 906 1312 657 
Q 1506 409 1894 409 
Q 2359 409 2629 706 
Q 2900 1003 2900 1516 
L 2900 3500 
L 3475 3500 
L 3475 0 
L 2900 0 
L 2900 538 
Q 2691 219 2414 64 
Q 2138 -91 1772 -91 
Q 1169 -91 856 284 
Q 544 659 544 1381 
z
M 1991 3584 
L 1991 3584 
z
" transform="scale(0.015625)"/>
       <path id="DejaVuSans-6c" d="M 603 4863 
L 1178 4863 
L 1178 0 
L 603 0 
L 603 4863 
z
" transform="scale(0.015625)"/>
       <path id="DejaVuSans-70" d="M 1159 525 
L 1159 -1331 
L 581 -1331 
L 581 3500 
L 1159 3500 
L 1159 2969 
Q 1341 3281 1617 3432 
Q 1894 3584 2278 3584 
Q 2916 3584 3314 3078 
Q 3713 2572 3713 1747 
Q 3713 922 3314 415 
Q 2916 -91 2278 -91 
Q 1894 -91 1617 61 
Q 1341 213 1159 525 
z
M 3116 1747 
Q 3116 2381 2855 2742 
Q 2594 3103 2138 3103 
Q 1681 3103 1420 2742 
Q 1159 2381 1159 1747 
Q 1159 1113 1420 752 
Q 1681 391 2138 391 
Q 2594 391 2855 752 
Q 3116 1113 3116 1747 
z
" transform="scale(0.015625)"/>
       <path id="DejaVuSans-64" d="M 2906 2969 
L 2906 4863 
L 3481 4863 
L 3481 0 
L 2906 0 
L 2906 525 
Q 2725 213 2448 61 
Q 2172 -91 1784 -91 
Q 1150 -91 751 415 
Q 353 922 353 1747 
Q 353 2572 751 3078 
Q 1150 3584 1784 3584 
Q 2172 3584 2448 3432 
Q 2725 3281 2906 2969 
z
M 947 1747 
Q 947 1113 1208 752 
Q 1469 391 1925 391 
Q 2381 391 2643 752 
Q 2906 1113 2906 1747 
Q 2906 2381 2643 2742 
Q 2381 3103 1925 3103 
Q 1469 3103 1208 2742 
Q 947 2381 947 1747 
z
" transform="scale(0.015625)"/>
      </defs>
      <use xlink:href="#DejaVuSans-41"/>
      <use xlink:href="#DejaVuSans-63" x="66.658203"/>
      <use xlink:href="#DejaVuSans-74" x="121.638672"/>
      <use xlink:href="#DejaVuSans-75" x="160.847656"/>
      <use xlink:href="#DejaVuSans-61" x="224.226562"/>
      <use xlink:href="#DejaVuSans-6c" x="285.505859"/>
      <use xlink:href="#DejaVuSans-20" x="313.289062"/>
      <use xlink:href="#DejaVuSans-73" x="345.076172"/>
      <use xlink:href="#DejaVuSans-70" x="397.175781"/>
      <use xlink:href="#DejaVuSans-65" x="460.652344"/>
      <use xlink:href="#DejaVuSans-65" x="522.175781"/>
      <use xlink:href="#DejaVuSans-64" x="583.699219"/>
     </g>
    </g>
   </g>
  </g>
 </g>
 <defs>
  <clipPath id="p2b53dd9b01">
   <rect x="57.6" y="41.472" width="357.12" height="266.112"/>
  </clipPath>
 </defs>
</svg>
