<?xml version="1.0" encoding="utf-8" standalone="no"?>
<!DOCTYPE svg PUBLIC "-//W3C//DTD SVG 1.1//EN"
  "http://www.w3.org/Graphics/SVG/1.1/DTD/svg11.dtd">
<svg xmlns:xlink="http://www.w3.org/1999/xlink" width="460.8pt" height="345.6pt" viewBox="0 0 460.8 345.6" xmlns="http://www.w3.org/2000/svg" version="1.1">
 <metadata>
  <rdf:RDF xmlns:dc="http://purl.org/dc/elements/1.1/" xmlns:cc="http://creativecommons.org/ns#" xmlns:rdf="http://www.w3.org/1999/02/22-rdf-syntax-ns#">
   <cc:Work>
    <dc:type rdf:resource="http://purl.org/dc/dcmitype/StillImage"/>
    <dc:date>2024-01-30T20:58:52.096109</dc:date>
    <dc:format>image/svg+xml</dc:format>
    <dc:creator>
     <cc:Agent>
      <dc:title>Matplotlib v3.7.1, https://matplotlib.org/</dc:title>
     </cc:Agent>
    </dc:creator>
   </cc:Work>
  </rdf:RDF>
 </metadata>
 <defs>
  <style type="text/css">*{stroke-linejoin: round; stroke-linecap: butt}</style>
 </defs>
 <g id="figure_1">
  <g id="patch_1">
   <path d="M 0 345.6 
L 460.8 345.6 
L 460.8 0 
L 0 0 
z
" style="fill: #ffffff"/>
  </g>
  <g id="axes_1">
   <g id="patch_2">
    <path d="M 57.6 307.584 
L 414.72 307.584 
L 414.72 41.472 
L 57.6 41.472 
z
" style="fill: #ffffff"/>
   </g>
   <g id="matplotlib.axis_1">
    <g id="xtick_1">
     <g id="line2d_1">
      <path d="M 73.832727 307.584 
L 73.832727 41.472 
" clip-path="url(#p8f64f36507)" style="fill: none; stroke: #b0b0b0; stroke-width: 0.8; stroke-linecap: square"/>
     </g>
     <g id="line2d_2">
      <defs>
       <path id="me28d2c5dbc" d="M 0 0 
L 0 3.5 
" style="stroke: #000000; stroke-width: 0.8"/>
      </defs>
      <g>
       <use xlink:href="#me28d2c5dbc" x="73.832727" y="307.584" style="stroke: #000000; stroke-width: 0.8"/>
      </g>
     </g>
     <g id="text_1">
      <!-- 0 -->
      <g transform="translate(70.651477 322.182437) scale(0.1 -0.1)">
       <defs>
        <path id="DejaVuSans-30" d="M 2034 4250 
Q 1547 4250 1301 3770 
Q 1056 3291 1056 2328 
Q 1056 1369 1301 889 
Q 1547 409 2034 409 
Q 2525 409 2770 889 
Q 3016 1369 3016 2328 
Q 3016 3291 2770 3770 
Q 2525 4250 2034 4250 
z
M 2034 4750 
Q 2819 4750 3233 4129 
Q 3647 3509 3647 2328 
Q 3647 1150 3233 529 
Q 2819 -91 2034 -91 
Q 1250 -91 836 529 
Q 422 1150 422 2328 
Q 422 3509 836 4129 
Q 1250 4750 2034 4750 
z
" transform="scale(0.015625)"/>
       </defs>
       <use xlink:href="#DejaVuSans-30"/>
      </g>
     </g>
    </g>
    <g id="xtick_2">
     <g id="line2d_3">
      <path d="M 117.991398 307.584 
L 117.991398 41.472 
" clip-path="url(#p8f64f36507)" style="fill: none; stroke: #b0b0b0; stroke-width: 0.8; stroke-linecap: square"/>
     </g>
     <g id="line2d_4">
      <g>
       <use xlink:href="#me28d2c5dbc" x="117.991398" y="307.584" style="stroke: #000000; stroke-width: 0.8"/>
      </g>
     </g>
     <g id="text_2">
      <!-- 5 -->
      <g transform="translate(114.810148 322.182437) scale(0.1 -0.1)">
       <defs>
        <path id="DejaVuSans-35" d="M 691 4666 
L 3169 4666 
L 3169 4134 
L 1269 4134 
L 1269 2991 
Q 1406 3038 1543 3061 
Q 1681 3084 1819 3084 
Q 2600 3084 3056 2656 
Q 3513 2228 3513 1497 
Q 3513 744 3044 326 
Q 2575 -91 1722 -91 
Q 1428 -91 1123 -41 
Q 819 9 494 109 
L 494 744 
Q 775 591 1075 516 
Q 1375 441 1709 441 
Q 2250 441 2565 725 
Q 2881 1009 2881 1497 
Q 2881 1984 2565 2268 
Q 2250 2553 1709 2553 
Q 1456 2553 1204 2497 
Q 953 2441 691 2322 
L 691 4666 
z
" transform="scale(0.015625)"/>
       </defs>
       <use xlink:href="#DejaVuSans-35"/>
      </g>
     </g>
    </g>
    <g id="xtick_3">
     <g id="line2d_5">
      <path d="M 162.150068 307.584 
L 162.150068 41.472 
" clip-path="url(#p8f64f36507)" style="fill: none; stroke: #b0b0b0; stroke-width: 0.8; stroke-linecap: square"/>
     </g>
     <g id="line2d_6">
      <g>
       <use xlink:href="#me28d2c5dbc" x="162.150068" y="307.584" style="stroke: #000000; stroke-width: 0.8"/>
      </g>
     </g>
     <g id="text_3">
      <!-- 10 -->
      <g transform="translate(155.787568 322.182437) scale(0.1 -0.1)">
       <defs>
        <path id="DejaVuSans-31" d="M 794 531 
L 1825 531 
L 1825 4091 
L 703 3866 
L 703 4441 
L 1819 4666 
L 2450 4666 
L 2450 531 
L 3481 531 
L 3481 0 
L 794 0 
L 794 531 
z
" transform="scale(0.015625)"/>
       </defs>
       <use xlink:href="#DejaVuSans-31"/>
       <use xlink:href="#DejaVuSans-30" x="63.623047"/>
      </g>
     </g>
    </g>
    <g id="xtick_4">
     <g id="line2d_7">
      <path d="M 206.308739 307.584 
L 206.308739 41.472 
" clip-path="url(#p8f64f36507)" style="fill: none; stroke: #b0b0b0; stroke-width: 0.8; stroke-linecap: square"/>
     </g>
     <g id="line2d_8">
      <g>
       <use xlink:href="#me28d2c5dbc" x="206.308739" y="307.584" style="stroke: #000000; stroke-width: 0.8"/>
      </g>
     </g>
     <g id="text_4">
      <!-- 15 -->
      <g transform="translate(199.946239 322.182437) scale(0.1 -0.1)">
       <use xlink:href="#DejaVuSans-31"/>
       <use xlink:href="#DejaVuSans-35" x="63.623047"/>
      </g>
     </g>
    </g>
    <g id="xtick_5">
     <g id="line2d_9">
      <path d="M 250.467409 307.584 
L 250.467409 41.472 
" clip-path="url(#p8f64f36507)" style="fill: none; stroke: #b0b0b0; stroke-width: 0.8; stroke-linecap: square"/>
     </g>
     <g id="line2d_10">
      <g>
       <use xlink:href="#me28d2c5dbc" x="250.467409" y="307.584" style="stroke: #000000; stroke-width: 0.8"/>
      </g>
     </g>
     <g id="text_5">
      <!-- 20 -->
      <g transform="translate(244.104909 322.182437) scale(0.1 -0.1)">
       <defs>
        <path id="DejaVuSans-32" d="M 1228 531 
L 3431 531 
L 3431 0 
L 469 0 
L 469 531 
Q 828 903 1448 1529 
Q 2069 2156 2228 2338 
Q 2531 2678 2651 2914 
Q 2772 3150 2772 3378 
Q 2772 3750 2511 3984 
Q 2250 4219 1831 4219 
Q 1534 4219 1204 4116 
Q 875 4013 500 3803 
L 500 4441 
Q 881 4594 1212 4672 
Q 1544 4750 1819 4750 
Q 2544 4750 2975 4387 
Q 3406 4025 3406 3419 
Q 3406 3131 3298 2873 
Q 3191 2616 2906 2266 
Q 2828 2175 2409 1742 
Q 1991 1309 1228 531 
z
" transform="scale(0.015625)"/>
       </defs>
       <use xlink:href="#DejaVuSans-32"/>
       <use xlink:href="#DejaVuSans-30" x="63.623047"/>
      </g>
     </g>
    </g>
    <g id="xtick_6">
     <g id="line2d_11">
      <path d="M 294.62608 307.584 
L 294.62608 41.472 
" clip-path="url(#p8f64f36507)" style="fill: none; stroke: #b0b0b0; stroke-width: 0.8; stroke-linecap: square"/>
     </g>
     <g id="line2d_12">
      <g>
       <use xlink:href="#me28d2c5dbc" x="294.62608" y="307.584" style="stroke: #000000; stroke-width: 0.8"/>
      </g>
     </g>
     <g id="text_6">
      <!-- 25 -->
      <g transform="translate(288.26358 322.182437) scale(0.1 -0.1)">
       <use xlink:href="#DejaVuSans-32"/>
       <use xlink:href="#DejaVuSans-35" x="63.623047"/>
      </g>
     </g>
    </g>
    <g id="xtick_7">
     <g id="line2d_13">
      <path d="M 338.78475 307.584 
L 338.78475 41.472 
" clip-path="url(#p8f64f36507)" style="fill: none; stroke: #b0b0b0; stroke-width: 0.8; stroke-linecap: square"/>
     </g>
     <g id="line2d_14">
      <g>
       <use xlink:href="#me28d2c5dbc" x="338.78475" y="307.584" style="stroke: #000000; stroke-width: 0.8"/>
      </g>
     </g>
     <g id="text_7">
      <!-- 30 -->
      <g transform="translate(332.42225 322.182437) scale(0.1 -0.1)">
       <defs>
        <path id="DejaVuSans-33" d="M 2597 2516 
Q 3050 2419 3304 2112 
Q 3559 1806 3559 1356 
Q 3559 666 3084 287 
Q 2609 -91 1734 -91 
Q 1441 -91 1130 -33 
Q 819 25 488 141 
L 488 750 
Q 750 597 1062 519 
Q 1375 441 1716 441 
Q 2309 441 2620 675 
Q 2931 909 2931 1356 
Q 2931 1769 2642 2001 
Q 2353 2234 1838 2234 
L 1294 2234 
L 1294 2753 
L 1863 2753 
Q 2328 2753 2575 2939 
Q 2822 3125 2822 3475 
Q 2822 3834 2567 4026 
Q 2313 4219 1838 4219 
Q 1578 4219 1281 4162 
Q 984 4106 628 3988 
L 628 4550 
Q 988 4650 1302 4700 
Q 1616 4750 1894 4750 
Q 2613 4750 3031 4423 
Q 3450 4097 3450 3541 
Q 3450 3153 3228 2886 
Q 3006 2619 2597 2516 
z
" transform="scale(0.015625)"/>
       </defs>
       <use xlink:href="#DejaVuSans-33"/>
       <use xlink:href="#DejaVuSans-30" x="63.623047"/>
      </g>
     </g>
    </g>
    <g id="xtick_8">
     <g id="line2d_15">
      <path d="M 382.943421 307.584 
L 382.943421 41.472 
" clip-path="url(#p8f64f36507)" style="fill: none; stroke: #b0b0b0; stroke-width: 0.8; stroke-linecap: square"/>
     </g>
     <g id="line2d_16">
      <g>
       <use xlink:href="#me28d2c5dbc" x="382.943421" y="307.584" style="stroke: #000000; stroke-width: 0.8"/>
      </g>
     </g>
     <g id="text_8">
      <!-- 35 -->
      <g transform="translate(376.580921 322.182437) scale(0.1 -0.1)">
       <use xlink:href="#DejaVuSans-33"/>
       <use xlink:href="#DejaVuSans-35" x="63.623047"/>
      </g>
     </g>
    </g>
    <g id="text_9">
     <!-- Time(s) -->
     <g transform="translate(217.420156 335.860562) scale(0.1 -0.1)">
      <defs>
       <path id="DejaVuSans-54" d="M -19 4666 
L 3928 4666 
L 3928 4134 
L 2272 4134 
L 2272 0 
L 1638 0 
L 1638 4134 
L -19 4134 
L -19 4666 
z
" transform="scale(0.015625)"/>
       <path id="DejaVuSans-69" d="M 603 3500 
L 1178 3500 
L 1178 0 
L 603 0 
L 603 3500 
z
M 603 4863 
L 1178 4863 
L 1178 4134 
L 603 4134 
L 603 4863 
z
" transform="scale(0.015625)"/>
       <path id="DejaVuSans-6d" d="M 3328 2828 
Q 3544 3216 3844 3400 
Q 4144 3584 4550 3584 
Q 5097 3584 5394 3201 
Q 5691 2819 5691 2113 
L 5691 0 
L 5113 0 
L 5113 2094 
Q 5113 2597 4934 2840 
Q 4756 3084 4391 3084 
Q 3944 3084 3684 2787 
Q 3425 2491 3425 1978 
L 3425 0 
L 2847 0 
L 2847 2094 
Q 2847 2600 2669 2842 
Q 2491 3084 2119 3084 
Q 1678 3084 1418 2786 
Q 1159 2488 1159 1978 
L 1159 0 
L 581 0 
L 581 3500 
L 1159 3500 
L 1159 2956 
Q 1356 3278 1631 3431 
Q 1906 3584 2284 3584 
Q 2666 3584 2933 3390 
Q 3200 3197 3328 2828 
z
" transform="scale(0.015625)"/>
       <path id="DejaVuSans-65" d="M 3597 1894 
L 3597 1613 
L 953 1613 
Q 991 1019 1311 708 
Q 1631 397 2203 397 
Q 2534 397 2845 478 
Q 3156 559 3463 722 
L 3463 178 
Q 3153 47 2828 -22 
Q 2503 -91 2169 -91 
Q 1331 -91 842 396 
Q 353 884 353 1716 
Q 353 2575 817 3079 
Q 1281 3584 2069 3584 
Q 2775 3584 3186 3129 
Q 3597 2675 3597 1894 
z
M 3022 2063 
Q 3016 2534 2758 2815 
Q 2500 3097 2075 3097 
Q 1594 3097 1305 2825 
Q 1016 2553 972 2059 
L 3022 2063 
z
" transform="scale(0.015625)"/>
       <path id="DejaVuSans-28" d="M 1984 4856 
Q 1566 4138 1362 3434 
Q 1159 2731 1159 2009 
Q 1159 1288 1364 580 
Q 1569 -128 1984 -844 
L 1484 -844 
Q 1016 -109 783 600 
Q 550 1309 550 2009 
Q 550 2706 781 3412 
Q 1013 4119 1484 4856 
L 1984 4856 
z
" transform="scale(0.015625)"/>
       <path id="DejaVuSans-73" d="M 2834 3397 
L 2834 2853 
Q 2591 2978 2328 3040 
Q 2066 3103 1784 3103 
Q 1356 3103 1142 2972 
Q 928 2841 928 2578 
Q 928 2378 1081 2264 
Q 1234 2150 1697 2047 
L 1894 2003 
Q 2506 1872 2764 1633 
Q 3022 1394 3022 966 
Q 3022 478 2636 193 
Q 2250 -91 1575 -91 
Q 1294 -91 989 -36 
Q 684 19 347 128 
L 347 722 
Q 666 556 975 473 
Q 1284 391 1588 391 
Q 1994 391 2212 530 
Q 2431 669 2431 922 
Q 2431 1156 2273 1281 
Q 2116 1406 1581 1522 
L 1381 1569 
Q 847 1681 609 1914 
Q 372 2147 372 2553 
Q 372 3047 722 3315 
Q 1072 3584 1716 3584 
Q 2034 3584 2315 3537 
Q 2597 3491 2834 3397 
z
" transform="scale(0.015625)"/>
       <path id="DejaVuSans-29" d="M 513 4856 
L 1013 4856 
Q 1481 4119 1714 3412 
Q 1947 2706 1947 2009 
Q 1947 1309 1714 600 
Q 1481 -109 1013 -844 
L 513 -844 
Q 928 -128 1133 580 
Q 1338 1288 1338 2009 
Q 1338 2731 1133 3434 
Q 928 4138 513 4856 
z
" transform="scale(0.015625)"/>
      </defs>
      <use xlink:href="#DejaVuSans-54"/>
      <use xlink:href="#DejaVuSans-69" x="57.958984"/>
      <use xlink:href="#DejaVuSans-6d" x="85.742188"/>
      <use xlink:href="#DejaVuSans-65" x="183.154297"/>
      <use xlink:href="#DejaVuSans-28" x="244.677734"/>
      <use xlink:href="#DejaVuSans-73" x="283.691406"/>
      <use xlink:href="#DejaVuSans-29" x="335.791016"/>
     </g>
    </g>
   </g>
   <g id="matplotlib.axis_2">
    <g id="ytick_1">
     <g id="line2d_17">
      <path d="M 57.6 295.488 
L 414.72 295.488 
" clip-path="url(#p8f64f36507)" style="fill: none; stroke: #b0b0b0; stroke-width: 0.8; stroke-linecap: square"/>
     </g>
     <g id="line2d_18">
      <defs>
       <path id="m14ece8281f" d="M 0 0 
L -3.5 0 
" style="stroke: #000000; stroke-width: 0.8"/>
      </defs>
      <g>
       <use xlink:href="#m14ece8281f" x="57.6" y="295.488" style="stroke: #000000; stroke-width: 0.8"/>
      </g>
     </g>
     <g id="text_10">
      <!-- 0.000 -->
      <g transform="translate(21.971875 299.287219) scale(0.1 -0.1)">
       <defs>
        <path id="DejaVuSans-2e" d="M 684 794 
L 1344 794 
L 1344 0 
L 684 0 
L 684 794 
z
" transform="scale(0.015625)"/>
       </defs>
       <use xlink:href="#DejaVuSans-30"/>
       <use xlink:href="#DejaVuSans-2e" x="63.623047"/>
       <use xlink:href="#DejaVuSans-30" x="95.410156"/>
       <use xlink:href="#DejaVuSans-30" x="159.033203"/>
       <use xlink:href="#DejaVuSans-30" x="222.65625"/>
      </g>
     </g>
    </g>
    <g id="ytick_2">
     <g id="line2d_19">
      <path d="M 57.6 260.917135 
L 414.72 260.917135 
" clip-path="url(#p8f64f36507)" style="fill: none; stroke: #b0b0b0; stroke-width: 0.8; stroke-linecap: square"/>
     </g>
     <g id="line2d_20">
      <g>
       <use xlink:href="#m14ece8281f" x="57.6" y="260.917135" style="stroke: #000000; stroke-width: 0.8"/>
      </g>
     </g>
     <g id="text_11">
      <!-- 0.025 -->
      <g transform="translate(21.971875 264.716354) scale(0.1 -0.1)">
       <use xlink:href="#DejaVuSans-30"/>
       <use xlink:href="#DejaVuSans-2e" x="63.623047"/>
       <use xlink:href="#DejaVuSans-30" x="95.410156"/>
       <use xlink:href="#DejaVuSans-32" x="159.033203"/>
       <use xlink:href="#DejaVuSans-35" x="222.65625"/>
      </g>
     </g>
    </g>
    <g id="ytick_3">
     <g id="line2d_21">
      <path d="M 57.6 226.34627 
L 414.72 226.34627 
" clip-path="url(#p8f64f36507)" style="fill: none; stroke: #b0b0b0; stroke-width: 0.8; stroke-linecap: square"/>
     </g>
     <g id="line2d_22">
      <g>
       <use xlink:href="#m14ece8281f" x="57.6" y="226.34627" style="stroke: #000000; stroke-width: 0.8"/>
      </g>
     </g>
     <g id="text_12">
      <!-- 0.050 -->
      <g transform="translate(21.971875 230.145488) scale(0.1 -0.1)">
       <use xlink:href="#DejaVuSans-30"/>
       <use xlink:href="#DejaVuSans-2e" x="63.623047"/>
       <use xlink:href="#DejaVuSans-30" x="95.410156"/>
       <use xlink:href="#DejaVuSans-35" x="159.033203"/>
       <use xlink:href="#DejaVuSans-30" x="222.65625"/>
      </g>
     </g>
    </g>
    <g id="ytick_4">
     <g id="line2d_23">
      <path d="M 57.6 191.775405 
L 414.72 191.775405 
" clip-path="url(#p8f64f36507)" style="fill: none; stroke: #b0b0b0; stroke-width: 0.8; stroke-linecap: square"/>
     </g>
     <g id="line2d_24">
      <g>
       <use xlink:href="#m14ece8281f" x="57.6" y="191.775405" style="stroke: #000000; stroke-width: 0.8"/>
      </g>
     </g>
     <g id="text_13">
      <!-- 0.075 -->
      <g transform="translate(21.971875 195.574623) scale(0.1 -0.1)">
       <defs>
        <path id="DejaVuSans-37" d="M 525 4666 
L 3525 4666 
L 3525 4397 
L 1831 0 
L 1172 0 
L 2766 4134 
L 525 4134 
L 525 4666 
z
" transform="scale(0.015625)"/>
       </defs>
       <use xlink:href="#DejaVuSans-30"/>
       <use xlink:href="#DejaVuSans-2e" x="63.623047"/>
       <use xlink:href="#DejaVuSans-30" x="95.410156"/>
       <use xlink:href="#DejaVuSans-37" x="159.033203"/>
       <use xlink:href="#DejaVuSans-35" x="222.65625"/>
      </g>
     </g>
    </g>
    <g id="ytick_5">
     <g id="line2d_25">
      <path d="M 57.6 157.204539 
L 414.72 157.204539 
" clip-path="url(#p8f64f36507)" style="fill: none; stroke: #b0b0b0; stroke-width: 0.8; stroke-linecap: square"/>
     </g>
     <g id="line2d_26">
      <g>
       <use xlink:href="#m14ece8281f" x="57.6" y="157.204539" style="stroke: #000000; stroke-width: 0.8"/>
      </g>
     </g>
     <g id="text_14">
      <!-- 0.100 -->
      <g transform="translate(21.971875 161.003758) scale(0.1 -0.1)">
       <use xlink:href="#DejaVuSans-30"/>
       <use xlink:href="#DejaVuSans-2e" x="63.623047"/>
       <use xlink:href="#DejaVuSans-31" x="95.410156"/>
       <use xlink:href="#DejaVuSans-30" x="159.033203"/>
       <use xlink:href="#DejaVuSans-30" x="222.65625"/>
      </g>
     </g>
    </g>
    <g id="ytick_6">
     <g id="line2d_27">
      <path d="M 57.6 122.633674 
L 414.72 122.633674 
" clip-path="url(#p8f64f36507)" style="fill: none; stroke: #b0b0b0; stroke-width: 0.8; stroke-linecap: square"/>
     </g>
     <g id="line2d_28">
      <g>
       <use xlink:href="#m14ece8281f" x="57.6" y="122.633674" style="stroke: #000000; stroke-width: 0.8"/>
      </g>
     </g>
     <g id="text_15">
      <!-- 0.125 -->
      <g transform="translate(21.971875 126.432893) scale(0.1 -0.1)">
       <use xlink:href="#DejaVuSans-30"/>
       <use xlink:href="#DejaVuSans-2e" x="63.623047"/>
       <use xlink:href="#DejaVuSans-31" x="95.410156"/>
       <use xlink:href="#DejaVuSans-32" x="159.033203"/>
       <use xlink:href="#DejaVuSans-35" x="222.65625"/>
      </g>
     </g>
    </g>
    <g id="ytick_7">
     <g id="line2d_29">
      <path d="M 57.6 88.062809 
L 414.72 88.062809 
" clip-path="url(#p8f64f36507)" style="fill: none; stroke: #b0b0b0; stroke-width: 0.8; stroke-linecap: square"/>
     </g>
     <g id="line2d_30">
      <g>
       <use xlink:href="#m14ece8281f" x="57.6" y="88.062809" style="stroke: #000000; stroke-width: 0.8"/>
      </g>
     </g>
     <g id="text_16">
      <!-- 0.150 -->
      <g transform="translate(21.971875 91.862028) scale(0.1 -0.1)">
       <use xlink:href="#DejaVuSans-30"/>
       <use xlink:href="#DejaVuSans-2e" x="63.623047"/>
       <use xlink:href="#DejaVuSans-31" x="95.410156"/>
       <use xlink:href="#DejaVuSans-35" x="159.033203"/>
       <use xlink:href="#DejaVuSans-30" x="222.65625"/>
      </g>
     </g>
    </g>
    <g id="ytick_8">
     <g id="line2d_31">
      <path d="M 57.6 53.491944 
L 414.72 53.491944 
" clip-path="url(#p8f64f36507)" style="fill: none; stroke: #b0b0b0; stroke-width: 0.8; stroke-linecap: square"/>
     </g>
     <g id="line2d_32">
      <g>
       <use xlink:href="#m14ece8281f" x="57.6" y="53.491944" style="stroke: #000000; stroke-width: 0.8"/>
      </g>
     </g>
     <g id="text_17">
      <!-- 0.175 -->
      <g transform="translate(21.971875 57.291163) scale(0.1 -0.1)">
       <use xlink:href="#DejaVuSans-30"/>
       <use xlink:href="#DejaVuSans-2e" x="63.623047"/>
       <use xlink:href="#DejaVuSans-31" x="95.410156"/>
       <use xlink:href="#DejaVuSans-37" x="159.033203"/>
       <use xlink:href="#DejaVuSans-35" x="222.65625"/>
      </g>
     </g>
    </g>
    <g id="text_18">
     <!-- Tracking error(m) -->
     <g transform="translate(15.892187 217.803781) rotate(-90) scale(0.1 -0.1)">
      <defs>
       <path id="DejaVuSans-72" d="M 2631 2963 
Q 2534 3019 2420 3045 
Q 2306 3072 2169 3072 
Q 1681 3072 1420 2755 
Q 1159 2438 1159 1844 
L 1159 0 
L 581 0 
L 581 3500 
L 1159 3500 
L 1159 2956 
Q 1341 3275 1631 3429 
Q 1922 3584 2338 3584 
Q 2397 3584 2469 3576 
Q 2541 3569 2628 3553 
L 2631 2963 
z
" transform="scale(0.015625)"/>
       <path id="DejaVuSans-61" d="M 2194 1759 
Q 1497 1759 1228 1600 
Q 959 1441 959 1056 
Q 959 750 1161 570 
Q 1363 391 1709 391 
Q 2188 391 2477 730 
Q 2766 1069 2766 1631 
L 2766 1759 
L 2194 1759 
z
M 3341 1997 
L 3341 0 
L 2766 0 
L 2766 531 
Q 2569 213 2275 61 
Q 1981 -91 1556 -91 
Q 1019 -91 701 211 
Q 384 513 384 1019 
Q 384 1609 779 1909 
Q 1175 2209 1959 2209 
L 2766 2209 
L 2766 2266 
Q 2766 2663 2505 2880 
Q 2244 3097 1772 3097 
Q 1472 3097 1187 3025 
Q 903 2953 641 2809 
L 641 3341 
Q 956 3463 1253 3523 
Q 1550 3584 1831 3584 
Q 2591 3584 2966 3190 
Q 3341 2797 3341 1997 
z
" transform="scale(0.015625)"/>
       <path id="DejaVuSans-63" d="M 3122 3366 
L 3122 2828 
Q 2878 2963 2633 3030 
Q 2388 3097 2138 3097 
Q 1578 3097 1268 2742 
Q 959 2388 959 1747 
Q 959 1106 1268 751 
Q 1578 397 2138 397 
Q 2388 397 2633 464 
Q 2878 531 3122 666 
L 3122 134 
Q 2881 22 2623 -34 
Q 2366 -91 2075 -91 
Q 1284 -91 818 406 
Q 353 903 353 1747 
Q 353 2603 823 3093 
Q 1294 3584 2113 3584 
Q 2378 3584 2631 3529 
Q 2884 3475 3122 3366 
z
" transform="scale(0.015625)"/>
       <path id="DejaVuSans-6b" d="M 581 4863 
L 1159 4863 
L 1159 1991 
L 2875 3500 
L 3609 3500 
L 1753 1863 
L 3688 0 
L 2938 0 
L 1159 1709 
L 1159 0 
L 581 0 
L 581 4863 
z
" transform="scale(0.015625)"/>
       <path id="DejaVuSans-6e" d="M 3513 2113 
L 3513 0 
L 2938 0 
L 2938 2094 
Q 2938 2591 2744 2837 
Q 2550 3084 2163 3084 
Q 1697 3084 1428 2787 
Q 1159 2491 1159 1978 
L 1159 0 
L 581 0 
L 581 3500 
L 1159 3500 
L 1159 2956 
Q 1366 3272 1645 3428 
Q 1925 3584 2291 3584 
Q 2894 3584 3203 3211 
Q 3513 2838 3513 2113 
z
" transform="scale(0.015625)"/>
       <path id="DejaVuSans-67" d="M 2906 1791 
Q 2906 2416 2648 2759 
Q 2391 3103 1925 3103 
Q 1463 3103 1205 2759 
Q 947 2416 947 1791 
Q 947 1169 1205 825 
Q 1463 481 1925 481 
Q 2391 481 2648 825 
Q 2906 1169 2906 1791 
z
M 3481 434 
Q 3481 -459 3084 -895 
Q 2688 -1331 1869 -1331 
Q 1566 -1331 1297 -1286 
Q 1028 -1241 775 -1147 
L 775 -588 
Q 1028 -725 1275 -790 
Q 1522 -856 1778 -856 
Q 2344 -856 2625 -561 
Q 2906 -266 2906 331 
L 2906 616 
Q 2728 306 2450 153 
Q 2172 0 1784 0 
Q 1141 0 747 490 
Q 353 981 353 1791 
Q 353 2603 747 3093 
Q 1141 3584 1784 3584 
Q 2172 3584 2450 3431 
Q 2728 3278 2906 2969 
L 2906 3500 
L 3481 3500 
L 3481 434 
z
" transform="scale(0.015625)"/>
       <path id="DejaVuSans-20" transform="scale(0.015625)"/>
       <path id="DejaVuSans-6f" d="M 1959 3097 
Q 1497 3097 1228 2736 
Q 959 2375 959 1747 
Q 959 1119 1226 758 
Q 1494 397 1959 397 
Q 2419 397 2687 759 
Q 2956 1122 2956 1747 
Q 2956 2369 2687 2733 
Q 2419 3097 1959 3097 
z
M 1959 3584 
Q 2709 3584 3137 3096 
Q 3566 2609 3566 1747 
Q 3566 888 3137 398 
Q 2709 -91 1959 -91 
Q 1206 -91 779 398 
Q 353 888 353 1747 
Q 353 2609 779 3096 
Q 1206 3584 1959 3584 
z
" transform="scale(0.015625)"/>
      </defs>
      <use xlink:href="#DejaVuSans-54"/>
      <use xlink:href="#DejaVuSans-72" x="46.333984"/>
      <use xlink:href="#DejaVuSans-61" x="87.447266"/>
      <use xlink:href="#DejaVuSans-63" x="148.726562"/>
      <use xlink:href="#DejaVuSans-6b" x="203.707031"/>
      <use xlink:href="#DejaVuSans-69" x="261.617188"/>
      <use xlink:href="#DejaVuSans-6e" x="289.400391"/>
      <use xlink:href="#DejaVuSans-67" x="352.779297"/>
      <use xlink:href="#DejaVuSans-20" x="416.255859"/>
      <use xlink:href="#DejaVuSans-65" x="448.042969"/>
      <use xlink:href="#DejaVuSans-72" x="509.566406"/>
      <use xlink:href="#DejaVuSans-72" x="548.929688"/>
      <use xlink:href="#DejaVuSans-6f" x="587.792969"/>
      <use xlink:href="#DejaVuSans-72" x="648.974609"/>
      <use xlink:href="#DejaVuSans-28" x="690.087891"/>
      <use xlink:href="#DejaVuSans-6d" x="729.101562"/>
      <use xlink:href="#DejaVuSans-29" x="826.513672"/>
     </g>
    </g>
   </g>
   <g id="line2d_33">
    <path d="M 73.832727 253.861913 
L 74.009362 255.510252 
L 74.009362 255.510252 
L 74.185997 258.385165 
L 74.185997 258.385165 
L 74.362631 267.542295 
L 74.362631 267.542295 
L 75.599074 289.125578 
L 75.599074 289.125578 
L 76.128978 295.475554 
L 76.128978 295.475554 
L 77.188786 283.093653 
L 77.188786 283.093653 
L 77.542056 280.749749 
L 77.542056 280.749749 
L 77.71869 280.33075 
L 77.895325 280.327984 
L 77.895325 280.327984 
L 78.07196 280.596254 
L 78.07196 280.596254 
L 78.425229 281.89197 
L 78.425229 281.89197 
L 78.955133 284.181944 
L 78.955133 284.181944 
L 79.308402 284.740609 
L 79.308402 284.740609 
L 79.661672 284.871979 
L 79.661672 284.871979 
L 80.014941 284.874744 
L 80.014941 284.874744 
L 80.191576 285.060044 
L 80.191576 285.060044 
L 80.368211 285.491489 
L 80.368211 285.491489 
L 80.72148 287.367995 
L 80.72148 287.367995 
L 81.957923 295.158885 
L 81.957923 295.158885 
L 82.311192 294.420452 
L 82.311192 294.420452 
L 82.664461 294.208878 
L 82.664461 294.208878 
L 83.017731 294.096868 
L 83.017731 294.096868 
L 83.194365 293.785731 
L 83.194365 293.785731 
L 83.547635 292.325457 
L 83.547635 292.325457 
L 84.607443 287.651476 
L 84.607443 287.651476 
L 84.960712 287.460645 
L 84.960712 287.460645 
L 85.313982 287.727532 
L 85.313982 287.727532 
L 85.667251 288.269603 
L 85.667251 288.269603 
L 85.843886 288.301409 
L 85.843886 288.301409 
L 86.02052 288.066327 
L 86.02052 288.066327 
L 86.550424 285.949207 
L 86.550424 285.949207 
L 87.080328 283.299696 
L 87.080328 283.299696 
L 87.433598 282.8724 
L 87.433598 282.8724 
L 87.610232 283.079825 
L 87.610232 283.079825 
L 87.963502 284.119717 
L 87.963502 284.119717 
L 89.199945 291.360239 
L 89.199945 291.360239 
L 89.376579 291.57043 
L 89.376579 291.57043 
L 89.729849 291.480545 
L 89.729849 291.480545 
L 90.436387 293.027937 
L 90.436387 293.027937 
L 90.789657 295.22941 
L 90.789657 295.22941 
L 91.319561 289.663501 
L 91.319561 289.663501 
L 93.085908 269.514218 
L 93.085908 269.514218 
L 93.615812 263.031489 
L 93.615812 263.031489 
L 94.32235 253.276974 
L 94.32235 253.276974 
L 94.498985 251.02157 
L 94.498985 251.02157 
L 94.67562 250.207081 
L 94.67562 250.207081 
L 95.028889 247.706916 
L 95.028889 247.706916 
L 95.382158 248.349934 
L 95.382158 248.349934 
L 95.558793 248.597461 
L 95.558793 248.597461 
L 95.912063 250.602572 
L 95.912063 250.602572 
L 96.265332 251.034016 
L 96.265332 251.034016 
L 96.441967 249.911154 
L 96.441967 249.911154 
L 96.971871 240.788594 
L 96.971871 240.788594 
L 97.32514 231.245653 
L 97.32514 231.245653 
L 97.501775 224.645383 
L 97.501775 224.645383 
L 97.678409 222.410722 
L 97.678409 222.410722 
L 97.855044 217.200202 
L 97.855044 217.200202 
L 98.031679 216.452088 
L 98.031679 216.452088 
L 98.384948 210.996806 
L 98.384948 210.996806 
L 98.561583 216.590372 
L 98.561583 216.590372 
L 98.738217 216.977565 
L 98.738217 216.977565 
L 98.914852 224.249892 
L 98.914852 224.249892 
L 99.091487 226.508061 
L 99.091487 226.508061 
L 99.444756 237.563824 
L 99.444756 237.563824 
L 99.798026 247.644688 
L 99.798026 247.644688 
L 99.97466 247.80648 
L 99.97466 247.80648 
L 100.151295 255.658215 
L 100.151295 255.658215 
L 100.32793 254.908719 
L 100.32793 254.908719 
L 100.504564 260.662693 
L 100.504564 260.662693 
L 100.681199 259.064137 
L 100.681199 259.064137 
L 100.857834 263.102014 
L 100.857834 263.102014 
L 101.034468 261.471652 
L 101.034468 261.471652 
L 101.211103 264.722696 
L 101.211103 264.722696 
L 101.387738 263.877784 
L 101.387738 263.877784 
L 101.564372 266.781736 
L 101.564372 266.781736 
L 101.741007 266.855027 
L 101.741007 266.855027 
L 101.917642 265.614624 
L 101.917642 265.614624 
L 102.094276 269.355192 
L 102.094276 269.355192 
L 102.270911 267.596226 
L 102.270911 267.596226 
L 102.447546 267.987568 
L 102.447546 267.987568 
L 102.62418 262.580685 
L 102.62418 262.580685 
L 102.800815 260.618443 
L 102.800815 260.618443 
L 102.97745 252.495672 
L 102.97745 252.495672 
L 103.154084 250.46014 
L 103.154084 250.46014 
L 103.330719 242.930605 
L 103.330719 242.930605 
L 103.507354 242.54756 
L 103.507354 242.54756 
L 103.860623 231.733793 
L 103.860623 231.733793 
L 104.037258 239.0642 
L 104.037258 239.0642 
L 104.213893 236.17131 
L 104.213893 236.17131 
L 104.390527 244.672977 
L 104.390527 244.672977 
L 104.567162 244.858277 
L 104.567162 244.858277 
L 104.743797 254.188262 
L 104.743797 254.188262 
L 104.920431 257.191778 
L 104.920431 257.191778 
L 105.273701 272.649104 
L 105.273701 272.649104 
L 105.450335 276.916531 
L 105.450335 276.916531 
L 105.62697 291.412786 
L 105.62697 291.412786 
L 105.803605 292.673932 
L 105.803605 292.673932 
L 106.686778 226.826113 
L 106.686778 226.826113 
L 107.923221 141.932514 
L 107.923221 141.932514 
L 108.453125 124.407851 
L 108.453125 124.407851 
L 108.62976 127.741865 
L 108.62976 127.741865 
L 108.806394 127.650598 
L 108.806394 127.650598 
L 108.983029 128.404243 
L 108.983029 128.404243 
L 110.749376 258.679708 
L 110.749376 258.679708 
L 111.809184 294.266957 
L 111.809184 294.266957 
L 112.162453 284.024301 
L 112.162453 284.024301 
L 112.339088 281.844954 
L 112.339088 281.844954 
L 112.692357 273.088845 
L 112.692357 273.088845 
L 112.868992 271.93003 
L 112.868992 271.93003 
L 113.045627 265.909168 
L 113.045627 265.909168 
L 113.222261 264.179242 
L 113.222261 264.179242 
L 113.398896 263.753329 
L 113.398896 263.753329 
L 113.575531 257.753209 
L 113.575531 257.753209 
L 113.9288 255.3291 
L 113.9288 255.3291 
L 114.282069 245.288338 
L 114.282069 245.288338 
L 115.518512 195.196537 
L 115.518512 195.196537 
L 116.93159 127.909188 
L 116.93159 127.909188 
L 117.108224 122.174573 
L 117.108224 122.174573 
L 117.638128 117.282104 
L 117.638128 117.282104 
L 117.814763 116.716525 
L 117.814763 116.716525 
L 117.991398 115.744392 
L 117.991398 115.744392 
L 118.168032 119.106063 
L 118.168032 119.106063 
L 118.344667 120.340935 
L 118.344667 120.340935 
L 118.521302 120.50964 
L 118.521302 120.50964 
L 118.697936 127.226068 
L 118.697936 127.226068 
L 118.874571 129.008542 
L 118.874571 129.008542 
L 119.227841 139.31066 
L 119.227841 139.31066 
L 119.404475 143.291841 
L 119.404475 143.291841 
L 120.464283 223.349667 
L 120.464283 223.349667 
L 121.170822 286.567334 
L 121.170822 286.567334 
L 121.347457 285.768056 
L 121.347457 285.768056 
L 122.23063 234.059721 
L 122.23063 234.059721 
L 122.407265 231.093541 
L 122.407265 231.093541 
L 122.583899 224.143414 
L 122.583899 224.143414 
L 122.760534 222.889183 
L 122.937169 218.992355 
L 122.937169 218.992355 
L 123.113804 218.981293 
L 123.113804 218.981293 
L 123.290438 221.535388 
L 123.290438 221.535388 
L 123.467073 217.859814 
L 123.467073 217.859814 
L 123.643708 220.454011 
L 123.643708 220.454011 
L 123.820342 218.81397 
L 123.820342 218.81397 
L 123.996977 221.229782 
L 123.996977 221.229782 
L 124.173612 225.636876 
L 124.173612 225.636876 
L 124.350246 222.583577 
L 124.350246 222.583577 
L 124.526881 226.397435 
L 124.526881 226.397435 
L 124.703516 224.742182 
L 124.703516 224.742182 
L 124.88015 228.084493 
L 124.88015 228.084493 
L 125.056785 227.984929 
L 125.056785 227.984929 
L 125.23342 230.91239 
L 125.23342 230.91239 
L 125.410054 235.95697 
L 125.410054 235.95697 
L 125.586689 235.484041 
L 125.586689 235.484041 
L 125.763324 240.166319 
L 125.763324 240.166319 
L 125.939958 241.036122 
L 125.939958 241.036122 
L 126.646497 257.717256 
L 126.646497 257.717256 
L 126.823132 258.617481 
L 126.823132 258.617481 
L 127.176401 269.678775 
L 127.176401 269.678775 
L 127.353036 268.488154 
L 127.353036 268.488154 
L 127.529671 272.963007 
L 127.529671 272.963007 
L 127.706305 271.988109 
L 127.706305 271.988109 
L 128.059575 279.086199 
L 128.059575 279.086199 
L 128.236209 276.259685 
L 128.236209 276.259685 
L 128.412844 279.451267 
L 128.412844 279.451267 
L 128.589479 278.080878 
L 128.589479 278.080878 
L 128.942748 284.811134 
L 128.942748 284.811134 
L 129.119383 282.800492 
L 129.119383 282.800492 
L 129.296017 286.210563 
L 129.296017 286.210563 
L 129.472652 285.448621 
L 129.472652 285.448621 
L 129.649287 295.488 
L 129.649287 295.488 
L 130.002556 291.104414 
L 130.002556 291.104414 
L 130.179191 293.886678 
L 130.179191 293.886678 
L 130.355826 292.667017 
L 130.355826 292.667017 
L 130.53246 295.488 
L 130.53246 295.488 
L 130.88573 293.451085 
L 130.88573 293.451085 
L 131.062364 294.222706 
L 131.062364 294.222706 
L 131.238999 291.445974 
L 131.238999 291.445974 
L 131.415634 290.849973 
L 131.415634 290.849973 
L 131.592268 291.238549 
L 131.592268 291.238549 
L 131.768903 287.022287 
L 131.768903 287.022287 
L 131.945538 295.488 
L 131.945538 295.488 
L 132.298807 281.609872 
L 132.298807 281.609872 
L 132.475442 281.214381 
L 132.475442 281.214381 
L 132.652076 277.648051 
L 132.652076 277.648051 
L 132.828711 276.703575 
L 132.828711 276.703575 
L 133.005346 277.039604 
L 133.005346 277.039604 
L 133.18198 273.527204 
L 133.358615 273.55486 
L 133.358615 273.55486 
L 133.53525 274.863022 
L 133.53525 274.863022 
L 133.711884 271.414232 
L 133.888519 271.769621 
L 133.888519 271.769621 
L 134.065154 272.896631 
L 134.065154 272.896631 
L 134.241789 268.640266 
L 134.241789 268.640266 
L 134.418423 268.41763 
L 134.418423 268.41763 
L 134.771693 263.707695 
L 134.771693 263.707695 
L 134.948327 262.918097 
L 135.301597 256.521104 
L 135.301597 256.521104 
L 135.478231 255.25581 
L 135.478231 255.25581 
L 135.831501 249.019226 
L 135.831501 249.019226 
L 136.008135 248.171548 
L 136.008135 248.171548 
L 136.361405 242.530966 
L 136.361405 242.530966 
L 136.538039 241.59617 
L 136.538039 241.59617 
L 136.891309 235.878149 
L 136.891309 235.878149 
L 137.067943 234.554776 
L 137.067943 234.554776 
L 137.421213 227.918553 
L 137.421213 227.918553 
L 137.597847 225.69772 
L 137.597847 225.69772 
L 138.127752 214.022448 
L 138.127752 214.022448 
L 138.304386 210.682902 
L 138.304386 210.682902 
L 138.657656 199.277282 
L 138.657656 199.277282 
L 140.424002 158.558335 
L 140.424002 158.558335 
L 141.130541 149.449603 
L 141.130541 149.449603 
L 141.48381 147.469384 
L 141.48381 147.469384 
L 141.660445 146.92593 
L 141.660445 146.92593 
L 141.83708 145.119948 
L 141.83708 145.119948 
L 142.190349 144.31099 
L 142.190349 144.31099 
L 142.543619 144.147815 
L 142.543619 144.147815 
L 142.720253 142.807848 
L 142.720253 142.807848 
L 143.250157 142.130259 
L 143.250157 142.130259 
L 143.426792 141.249394 
L 143.426792 141.249394 
L 143.603427 141.260456 
L 143.603427 141.260456 
L 143.780061 141.415334 
L 143.780061 141.415334 
L 144.309965 142.426186 
L 144.309965 142.426186 
L 144.663235 144.627659 
L 144.663235 144.627659 
L 145.193139 149.680536 
L 145.193139 149.680536 
L 145.723043 158.031475 
L 145.723043 158.031475 
L 146.429582 173.123731 
L 146.429582 173.123731 
L 147.312755 199.544169 
L 147.312755 199.544169 
L 149.432371 272.389131 
L 149.432371 272.389131 
L 150.13891 280.307242 
L 150.13891 280.307242 
L 150.315545 281.367876 
L 150.315545 281.367876 
L 150.492179 280.944728 
L 150.492179 280.944728 
L 150.668814 281.00419 
L 150.668814 281.00419 
L 150.845449 280.807828 
L 150.845449 280.807828 
L 151.022083 280.410954 
L 151.022083 280.410954 
L 151.375353 278.28692 
L 151.375353 278.28692 
L 151.728622 277.162676 
L 151.728622 277.162676 
L 151.905257 277.135019 
L 151.905257 277.135019 
L 152.081891 276.927594 
L 152.081891 276.927594 
L 152.258526 277.558167 
L 152.258526 277.558167 
L 152.611795 280.305859 
L 152.611795 280.305859 
L 152.78843 282.034402 
L 152.78843 282.034402 
L 152.965065 295.488 
L 153.141699 287.803588 
L 153.141699 287.803588 
L 153.494969 295.488 
L 153.494969 295.488 
L 154.201508 276.30117 
L 154.201508 276.30117 
L 155.614585 236.486596 
L 155.614585 236.486596 
L 155.79122 236.552972 
L 155.79122 236.552972 
L 155.967854 233.808045 
L 155.967854 233.808045 
L 156.144489 234.758053 
L 156.144489 234.758053 
L 156.321124 233.202364 
L 156.321124 233.202364 
L 156.497758 234.917079 
L 156.497758 234.917079 
L 156.674393 234.46904 
L 156.674393 234.46904 
L 156.851028 236.288851 
L 156.851028 236.288851 
L 157.027662 236.189286 
L 157.027662 236.189286 
L 157.204297 233.982282 
L 157.204297 233.982282 
L 157.380932 237.078449 
L 157.380932 237.078449 
L 157.557567 234.350116 
L 157.734201 236.476916 
L 157.734201 236.476916 
L 157.910836 232.661675 
L 157.910836 232.661675 
L 158.087471 233.476165 
L 158.087471 233.476165 
L 158.264105 228.316809 
L 158.264105 228.316809 
L 158.44074 227.694533 
L 158.617375 221.070756 
L 158.617375 221.070756 
L 158.794009 219.076708 
L 158.794009 219.076708 
L 159.323913 198.135061 
L 159.323913 198.135061 
L 159.500548 194.270038 
L 159.500548 194.270038 
L 160.030452 167.281255 
L 160.030452 167.281255 
L 160.207087 163.472929 
L 160.207087 163.472929 
L 160.736991 138.428411 
L 160.736991 138.428411 
L 161.266895 110.542169 
L 161.266895 110.542169 
L 161.44353 106.191771 
L 161.44353 106.191771 
L 161.620164 95.520436 
L 161.620164 95.520436 
L 161.796799 93.324495 
L 161.796799 93.324495 
L 161.973434 83.25331 
L 161.973434 83.25331 
L 162.150068 82.514877 
L 162.150068 82.514877 
L 162.326703 73.065968 
L 162.326703 73.065968 
L 162.503338 73.567937 
L 162.503338 73.567937 
L 162.679972 64.795234 
L 162.679972 64.795234 
L 162.856607 67.097654 
L 162.856607 67.097654 
L 163.033242 59.95393 
L 163.033242 59.95393 
L 163.209876 63.814804 
L 163.209876 63.814804 
L 163.386511 57.009875 
L 163.386511 57.009875 
L 163.563146 61.390695 
L 163.563146 61.390695 
L 163.73978 54.524922 
L 163.916415 59.770013 
L 163.916415 59.770013 
L 164.09305 53.568 
L 164.09305 53.568 
L 164.269684 60.042432 
L 164.446319 54.469608 
L 164.446319 54.469608 
L 164.622954 62.008822 
L 164.622954 62.008822 
L 164.799588 56.365474 
L 164.799588 56.365474 
L 164.976223 64.792468 
L 164.976223 64.792468 
L 165.152858 59.887554 
L 165.152858 59.887554 
L 165.506127 75.733456 
L 165.506127 75.733456 
L 165.682762 76.831427 
L 165.682762 76.831427 
L 165.859397 83.83825 
L 165.859397 83.83825 
L 166.036031 85.319265 
L 166.036031 85.319265 
L 166.212666 93.191743 
L 166.212666 93.191743 
L 166.389301 94.913372 
L 166.389301 94.913372 
L 166.565935 103.085924 
L 166.565935 103.085924 
L 166.74257 104.551729 
L 166.74257 104.551729 
L 166.919205 112.53345 
L 166.919205 112.53345 
L 167.095839 113.285712 
L 167.095839 113.285712 
L 167.272474 120.928639 
L 167.272474 120.928639 
L 167.449109 121.372529 
L 167.625743 129.003011 
L 167.625743 129.003011 
L 167.802378 129.044496 
L 167.802378 129.044496 
L 167.979013 136.726142 
L 167.979013 136.726142 
L 168.155647 136.397027 
L 168.155647 136.397027 
L 168.332282 143.728816 
L 168.332282 143.728816 
L 168.508917 142.362576 
L 168.508917 142.362576 
L 168.685551 149.186864 
L 168.685551 149.186864 
L 168.862186 146.755841 
L 168.862186 146.755841 
L 169.038821 152.946792 
L 169.038821 152.946792 
L 169.215456 149.387375 
L 169.215456 149.387375 
L 169.39209 154.766602 
L 169.39209 154.766602 
L 169.568725 156.752353 
L 169.568725 156.752353 
L 169.74536 155.015512 
L 169.921994 156.988817 
L 169.921994 156.988817 
L 170.098629 155.238149 
L 170.098629 155.238149 
L 170.275264 157.562694 
L 170.275264 157.562694 
L 170.451898 156.567053 
L 170.451898 156.567053 
L 170.628533 159.953615 
L 170.628533 159.953615 
L 170.805168 160.209439 
L 170.805168 160.209439 
L 170.981802 165.016172 
L 170.981802 165.016172 
L 171.158437 166.617495 
L 171.158437 166.617495 
L 171.688341 182.604446 
L 171.688341 182.604446 
L 171.864976 186.589775 
L 171.864976 186.589775 
L 172.218245 198.86658 
L 172.218245 198.86658 
L 172.39488 201.484286 
L 172.39488 201.484286 
L 172.571514 211.793318 
L 172.571514 211.793318 
L 172.748149 214.69174 
L 172.748149 214.69174 
L 172.924784 224.37573 
L 172.924784 224.37573 
L 173.101419 227.689002 
L 173.101419 227.689002 
L 173.454688 240.610209 
L 173.454688 240.610209 
L 173.807957 252.846912 
L 173.807957 252.846912 
L 174.337861 270.797488 
L 174.337861 270.797488 
L 175.397669 293.657127 
L 175.397669 293.657127 
L 175.574304 293.263019 
L 175.750939 292.196854 
L 175.750939 292.196854 
L 175.927573 289.324706 
L 175.927573 289.324706 
L 176.104208 295.488 
L 176.104208 295.488 
L 176.457477 286.542443 
L 176.457477 286.542443 
L 176.634112 287.510427 
L 176.634112 287.510427 
L 176.810747 285.369799 
L 176.810747 285.369799 
L 176.987382 295.488 
L 176.987382 295.488 
L 177.340651 283.873572 
L 177.340651 283.873572 
L 177.517286 284.179179 
L 177.517286 284.179179 
L 177.69392 280.50637 
L 177.69392 280.50637 
L 177.870555 279.365531 
L 177.870555 279.365531 
L 178.04719 279.065456 
L 178.04719 279.065456 
L 178.223824 273.094376 
L 178.223824 273.094376 
L 178.577094 269.55432 
L 178.577094 269.55432 
L 178.930363 258.144551 
L 178.930363 258.144551 
L 179.283632 245.752971 
L 179.283632 245.752971 
L 179.460267 241.578193 
L 179.460267 241.578193 
L 179.813536 227.823137 
L 179.813536 227.823137 
L 179.990171 222.934817 
L 179.990171 222.934817 
L 180.34344 207.908936 
L 180.34344 207.908936 
L 180.69671 193.223232 
L 180.69671 193.223232 
L 182.463057 127.844195 
L 182.463057 127.844195 
L 182.816326 123.377639 
L 182.816326 123.377639 
L 182.992961 122.850779 
L 182.992961 122.850779 
L 183.522865 134.524669 
L 183.522865 134.524669 
L 184.229404 172.679842 
L 184.229404 172.679842 
L 185.289212 244.345245 
L 185.289212 244.345245 
L 185.819116 268.825566 
L 185.819116 268.825566 
L 186.172385 278.582847 
L 186.172385 278.582847 
L 186.525654 283.895698 
L 186.525654 283.895698 
L 186.702289 284.386604 
L 186.702289 284.386604 
L 186.878924 284.34097 
L 186.878924 284.34097 
L 187.232193 280.83825 
L 187.232193 280.83825 
L 187.762097 269.424333 
L 187.762097 269.424333 
L 188.292001 250.803083 
L 188.292001 250.803083 
L 188.821905 227.011413 
L 188.821905 227.011413 
L 189.351809 196.649897 
L 189.351809 196.649897 
L 189.528444 190.078667 
L 189.528444 190.078667 
L 189.881713 170.08841 
L 189.881713 170.08841 
L 190.588252 136.546373 
L 190.588252 136.546373 
L 190.764887 135.535521 
L 190.764887 135.535521 
L 190.941521 127.555183 
L 190.941521 127.555183 
L 191.118156 129.76357 
L 191.118156 129.76357 
L 191.294791 122.494008 
L 191.294791 122.494008 
L 191.471425 129.842391 
L 191.471425 129.842391 
L 191.64806 125.684207 
L 191.64806 125.684207 
L 192.00133 151.768617 
L 192.00133 151.768617 
L 192.177964 156.250384 
L 192.177964 156.250384 
L 192.354599 171.554214 
L 192.354599 171.554214 
L 192.531234 175.279571 
L 192.531234 175.279571 
L 192.707868 193.4514 
L 192.707868 193.4514 
L 192.884503 193.851039 
L 192.884503 193.851039 
L 193.237772 222.748134 
L 193.237772 222.748134 
L 193.414407 220.260415 
L 193.414407 220.260415 
L 193.591042 227.706979 
L 193.591042 227.706979 
L 193.767676 217.041176 
L 193.944311 221.054162 
L 193.944311 221.054162 
L 194.120946 218.381142 
L 194.120946 218.381142 
L 194.29758 204.926162 
L 194.29758 204.926162 
L 194.474215 201.055608 
L 194.474215 201.055608 
L 194.65085 184.142158 
L 194.65085 184.142158 
L 194.827484 182.721986 
L 194.827484 182.721986 
L 195.004119 166.437726 
L 195.004119 166.437726 
L 195.357388 172.187552 
L 195.357388 172.187552 
L 195.534023 166.75163 
L 195.534023 166.75163 
L 195.710658 175.355627 
L 195.710658 175.355627 
L 195.887293 174.617193 
L 195.887293 174.617193 
L 196.593831 229.880795 
L 196.593831 229.880795 
L 196.770466 236.716146 
L 196.770466 236.716146 
L 196.947101 250.731175 
L 196.947101 250.731175 
L 197.123735 251.139111 
L 197.123735 251.139111 
L 197.477005 265.105741 
L 197.477005 265.105741 
L 197.653639 257.29964 
L 197.653639 257.29964 
L 197.830274 256.467173 
L 197.830274 256.467173 
L 198.006909 240.427675 
L 198.006909 240.427675 
L 198.183543 237.704873 
L 198.183543 237.704873 
L 198.360178 230.400741 
L 198.360178 230.400741 
L 198.890082 189.710833 
L 198.890082 189.710833 
L 199.066717 187.64626 
L 199.066717 187.64626 
L 199.243351 183.264058 
L 199.243351 183.264058 
L 199.419986 174.296375 
L 199.419986 174.296375 
L 199.596621 175.03066 
L 199.596621 175.03066 
L 199.773256 168.456665 
L 199.773256 168.456665 
L 199.94989 175.196601 
L 199.94989 175.196601 
L 200.126525 171.384126 
L 200.126525 171.384126 
L 200.479794 190.797741 
L 200.479794 190.797741 
L 200.656429 192.77796 
L 200.656429 192.77796 
L 200.833064 201.651609 
L 200.833064 201.651609 
L 201.009698 202.006998 
L 201.009698 202.006998 
L 201.186333 211.585893 
L 201.186333 211.585893 
L 201.362968 210.427078 
L 201.362968 210.427078 
L 201.539602 219.614631 
L 201.539602 219.614631 
L 201.716237 217.58463 
L 201.716237 217.58463 
L 202.069506 231.216613 
L 202.069506 231.216613 
L 202.246141 231.942601 
L 202.246141 231.942601 
L 202.422776 237.480854 
L 202.422776 237.480854 
L 202.59941 238.978464 
L 202.59941 238.978464 
L 203.129314 254.135714 
L 203.129314 254.135714 
L 204.542392 287.009841 
L 204.542392 287.009841 
L 205.425565 294.994328 
L 205.425565 294.994328 
L 205.778835 293.487038 
L 205.778835 293.487038 
L 206.132104 290.926029 
L 206.132104 290.926029 
L 206.308739 289.373105 
L 206.308739 289.373105 
L 206.485373 295.488 
L 206.485373 295.488 
L 206.662008 287.457879 
L 206.662008 287.457879 
L 207.015277 283.905377 
L 207.015277 283.905377 
L 207.368547 280.592106 
L 207.368547 280.592106 
L 207.545182 279.419462 
L 207.545182 279.419462 
L 207.898451 275.251598 
L 207.898451 275.251598 
L 208.075086 273.85217 
L 208.075086 273.85217 
L 209.311528 255.128589 
L 209.311528 255.128589 
L 210.547971 237.518191 
L 210.547971 237.518191 
L 211.607779 218.393588 
L 211.607779 218.393588 
L 212.137683 212.058823 
L 212.137683 212.058823 
L 212.490953 208.757996 
L 212.490953 208.757996 
L 212.667587 208.171675 
L 212.667587 208.171675 
L 212.844222 208.079025 
L 212.844222 208.079025 
L 213.020857 207.635135 
L 213.020857 207.635135 
L 213.197491 208.052751 
L 213.197491 208.052751 
L 213.550761 209.862881 
L 213.550761 209.862881 
L 213.727395 211.139238 
L 213.727395 211.139238 
L 213.90403 211.572065 
L 213.90403 211.572065 
L 214.610569 216.106379 
L 214.610569 216.106379 
L 214.787203 215.81875 
L 214.787203 215.81875 
L 215.140473 217.096489 
L 215.140473 217.096489 
L 215.493742 219.270305 
L 215.493742 219.270305 
L 215.670377 218.870666 
L 215.670377 218.870666 
L 216.023646 220.579849 
L 216.023646 220.579849 
L 216.200281 221.842377 
L 216.200281 221.842377 
L 216.376916 221.923965 
L 216.376916 221.923965 
L 216.730185 224.948224 
L 216.730185 224.948224 
L 217.436724 234.292037 
L 217.436724 234.292037 
L 218.496532 260.817571 
L 218.496532 260.817571 
L 219.203071 281.395533 
L 219.203071 281.395533 
L 219.55634 288.544787 
L 219.55634 288.544787 
L 219.909609 294.598837 
L 219.909609 294.598837 
L 220.086244 295.488 
L 220.086244 295.488 
L 220.262879 289.565319 
L 220.262879 289.565319 
L 220.439513 288.273752 
L 220.439513 288.273752 
L 221.675956 261.677694 
L 221.675956 261.677694 
L 222.382495 243.7769 
L 222.382495 243.7769 
L 222.559129 243.503099 
L 222.559129 243.503099 
L 222.735764 239.37672 
L 222.735764 239.37672 
L 222.912399 239.862095 
L 222.912399 239.862095 
L 223.089034 236.793585 
L 223.089034 236.793585 
L 223.265668 237.754655 
L 223.442303 235.604347 
L 223.442303 235.604347 
L 223.618938 231.054822 
L 223.618938 231.054822 
L 223.795572 234.977923 
L 223.795572 234.977923 
L 223.972207 230.606783 
L 223.972207 230.606783 
L 224.148842 233.391812 
L 224.325476 228.355528 
L 224.325476 228.355528 
L 224.502111 230.191933 
L 224.502111 230.191933 
L 224.678746 225.26351 
L 224.678746 225.26351 
L 224.85538 226.519124 
L 224.85538 226.519124 
L 225.032015 221.977895 
L 225.032015 221.977895 
L 225.20865 222.891949 
L 225.20865 222.891949 
L 225.385284 219.086388 
L 225.385284 219.086388 
L 225.561919 220.090326 
L 225.561919 220.090326 
L 225.738554 217.552824 
L 225.738554 217.552824 
L 225.915188 212.569089 
L 225.915188 212.569089 
L 226.091823 217.974589 
L 226.091823 217.974589 
L 226.268458 214.141372 
L 226.268458 214.141372 
L 226.445092 219.563466 
L 226.445092 219.563466 
L 226.621727 216.734186 
L 226.621727 216.734186 
L 226.798362 221.576873 
L 226.798362 221.576873 
L 226.974997 219.0532 
L 227.151631 222.901629 
L 227.151631 222.901629 
L 227.328266 220.202336 
L 227.328266 220.202336 
L 227.504901 223.230743 
L 227.504901 223.230743 
L 227.681535 220.517622 
L 227.681535 220.517622 
L 227.85817 223.323393 
L 227.85817 223.323393 
L 228.034805 221.666757 
L 228.034805 221.666757 
L 228.211439 217.508574 
L 228.211439 217.508574 
L 228.388074 225.741971 
L 228.388074 225.741971 
L 228.564709 224.252658 
L 228.564709 224.252658 
L 228.741343 232.282779 
L 228.741343 232.282779 
L 228.917978 231.981321 
L 228.917978 231.981321 
L 229.094613 239.462456 
L 229.094613 239.462456 
L 229.271247 240.185678 
L 229.271247 240.185678 
L 229.447882 247.480131 
L 229.447882 247.480131 
L 229.624517 249.261222 
L 229.624517 249.261222 
L 230.154421 266.441559 
L 230.154421 266.441559 
L 230.50769 272.848232 
L 230.50769 272.848232 
L 230.86096 286.565951 
L 230.86096 286.565951 
L 231.037594 294.818708 
L 231.037594 294.818708 
L 231.214229 290.071437 
L 231.214229 290.071437 
L 231.920768 258.191568 
L 231.920768 258.191568 
L 232.450672 231.357662 
L 232.450672 231.357662 
L 233.333845 186.632643 
L 233.333845 186.632643 
L 233.863749 170.186591 
L 233.863749 170.186591 
L 234.040384 170.528151 
L 234.040384 170.528151 
L 234.217018 171.397954 
L 234.217018 171.397954 
L 234.393653 174.398705 
L 234.393653 174.398705 
L 234.570288 180.147148 
L 234.570288 180.147148 
L 235.453461 250.675862 
L 235.453461 250.675862 
L 235.983365 294.659682 
L 235.983365 294.659682 
L 236.513269 260.69035 
L 236.513269 260.69035 
L 237.043173 240.153873 
L 237.043173 240.153873 
L 237.749712 226.054492 
L 237.749712 226.054492 
L 238.279616 217.151802 
L 238.279616 217.151802 
L 239.692694 195.690209 
L 239.692694 195.690209 
L 239.869328 194.093035 
L 239.869328 194.093035 
L 240.222598 190.348319 
L 240.222598 190.348319 
L 240.399232 189.807631 
L 240.399232 189.807631 
L 240.575867 189.868476 
L 240.575867 189.868476 
L 240.752502 190.622121 
L 240.752502 190.622121 
L 240.929136 190.486603 
L 240.929136 190.486603 
L 241.282406 193.869016 
L 241.282406 193.869016 
L 242.695483 213.339327 
L 242.695483 213.339327 
L 243.578657 235.377563 
L 243.578657 235.377563 
L 244.108561 249.500452 
L 244.108561 249.500452 
L 244.46183 259.072434 
L 244.46183 259.072434 
L 244.638465 260.646099 
L 244.638465 260.646099 
L 245.168369 269.82259 
L 245.168369 269.82259 
L 245.345003 268.767487 
L 245.345003 268.767487 
L 245.698273 271.896842 
L 245.698273 271.896842 
L 245.874908 270.392318 
L 245.874908 270.392318 
L 246.228177 272.45689 
L 246.228177 272.45689 
L 246.404812 271.524859 
L 246.404812 271.524859 
L 246.581446 273.088845 
L 246.581446 273.088845 
L 247.287985 285.304806 
L 247.287985 285.304806 
L 247.46462 288.796463 
L 247.46462 288.796463 
L 247.641254 295.069001 
L 247.641254 295.069001 
L 249.760871 213.066909 
L 249.760871 213.066909 
L 249.937505 215.148075 
L 249.937505 215.148075 
L 250.290775 210.851608 
L 250.290775 210.851608 
L 250.467409 217.259664 
L 250.467409 217.259664 
L 250.820679 219.271688 
L 250.820679 219.271688 
L 250.997313 228.488281 
L 250.997313 228.488281 
L 251.173948 231.69784 
L 251.173948 231.69784 
L 251.527217 245.239939 
L 251.527217 245.239939 
L 251.703852 249.670541 
L 251.703852 249.670541 
L 252.057121 265.136163 
L 252.057121 265.136163 
L 252.233756 270.024484 
L 252.233756 270.024484 
L 252.587025 285.59935 
L 252.587025 285.59935 
L 252.940295 291.667228 
L 252.940295 291.667228 
L 253.646834 273.084697 
L 253.646834 273.084697 
L 254.000103 263.580474 
L 254.000103 263.580474 
L 254.176738 261.185405 
L 254.176738 261.185405 
L 254.530007 252.546837 
L 254.530007 252.546837 
L 254.706642 250.294199 
L 254.706642 250.294199 
L 255.059911 241.409487 
L 255.059911 241.409487 
L 255.236546 238.771039 
L 255.236546 238.771039 
L 255.589815 228.843669 
L 255.589815 228.843669 
L 255.76645 225.470935 
L 255.76645 225.470935 
L 256.119719 214.564519 
L 256.119719 214.564519 
L 256.296354 211.1503 
L 256.296354 211.1503 
L 256.649623 201.780213 
L 256.649623 201.780213 
L 256.826258 199.032521 
L 256.826258 199.032521 
L 257.179527 191.321835 
L 257.179527 191.321835 
L 257.356162 189.165996 
L 257.356162 189.165996 
L 257.709431 183.273737 
L 257.709431 183.273737 
L 258.769239 173.472206 
L 258.769239 173.472206 
L 259.122509 168.568674 
L 259.122509 168.568674 
L 259.475778 164.695355 
L 259.475778 164.695355 
L 260.005682 156.084443 
L 260.005682 156.084443 
L 260.712221 147.614581 
L 260.712221 147.614581 
L 261.06549 146.000814 
L 261.06549 146.000814 
L 261.242125 145.526501 
L 261.242125 145.526501 
L 261.41876 146.100378 
L 261.41876 146.100378 
L 261.772029 149.421946 
L 261.772029 149.421946 
L 262.125298 155.878401 
L 262.125298 155.878401 
L 262.655202 171.71324 
L 262.655202 171.71324 
L 264.774818 244.262275 
L 264.774818 244.262275 
L 266.187896 284.772415 
L 266.187896 284.772415 
L 266.7178 295.488 
L 266.7178 295.488 
L 266.894435 294.123142 
L 266.894435 294.123142 
L 267.071069 295.176862 
L 267.071069 295.176862 
L 267.600973 295.488 
L 267.600973 295.488 
L 268.130877 293.19526 
L 268.130877 293.19526 
L 268.307512 292.794238 
L 268.307512 292.794238 
L 268.484147 295.488 
L 268.660781 292.870294 
L 268.660781 292.870294 
L 268.837416 293.109524 
L 268.837416 293.109524 
L 269.014051 293.063891 
L 269.014051 293.063891 
L 269.190686 293.246425 
L 269.190686 293.246425 
L 269.36732 295.488 
L 269.36732 295.488 
L 269.543955 293.249191 
L 269.543955 293.249191 
L 269.72059 292.837106 
L 270.073859 290.448951 
L 270.073859 290.448951 
L 270.250494 295.488 
L 270.250494 295.488 
L 270.427128 286.234071 
L 270.427128 286.234071 
L 271.663571 269.977467 
L 271.663571 269.977467 
L 272.01684 268.518577 
L 272.01684 268.518577 
L 272.193475 268.492303 
L 272.193475 268.492303 
L 272.37011 268.932044 
L 272.37011 268.932044 
L 272.900014 273.683464 
L 272.900014 273.683464 
L 273.429918 281.04291 
L 273.429918 281.04291 
L 274.313091 294.789669 
L 274.313091 294.789669 
L 274.489726 293.644681 
L 274.489726 293.644681 
L 274.666361 295.488 
L 274.666361 295.488 
L 274.842995 289.179509 
L 274.842995 289.179509 
L 275.549534 282.505949 
L 275.549534 282.505949 
L 276.079438 278.580081 
L 276.079438 278.580081 
L 276.609342 273.011406 
L 276.609342 273.011406 
L 277.66915 260.003081 
L 277.66915 260.003081 
L 277.845785 258.960424 
L 277.845785 258.960424 
L 278.02242 258.616098 
L 278.02242 258.616098 
L 278.199054 259.134661 
L 278.199054 259.134661 
L 278.552324 262.597279 
L 278.552324 262.597279 
L 279.082228 272.191385 
L 279.082228 272.191385 
L 279.965401 295.421624 
L 279.965401 295.421624 
L 280.67194 278.035244 
L 280.67194 278.035244 
L 281.201844 269.887583 
L 281.201844 269.887583 
L 281.555113 267.485599 
L 281.555113 267.485599 
L 281.908383 266.487193 
L 281.908383 266.487193 
L 282.085017 266.395926 
L 282.085017 266.395926 
L 282.438287 265.130632 
L 282.438287 265.130632 
L 282.791556 262.933308 
L 282.791556 262.933308 
L 283.144825 257.039667 
L 283.144825 257.039667 
L 283.674729 239.682327 
L 283.674729 239.682327 
L 284.381268 204.361965 
L 284.381268 204.361965 
L 284.557903 189.89475 
L 284.557903 189.89475 
L 284.911172 179.683899 
L 284.911172 179.683899 
L 285.087807 169.485494 
L 285.087807 169.485494 
L 285.264442 169.207544 
L 285.264442 169.207544 
L 285.441076 157.677469 
L 285.441076 157.677469 
L 285.617711 163.027656 
L 285.617711 163.027656 
L 285.794346 164.949796 
L 285.794346 164.949796 
L 285.97098 159.010521 
L 285.97098 159.010521 
L 286.147615 164.442296 
L 286.147615 164.442296 
L 286.32425 154.997535 
L 286.32425 154.997535 
L 286.500884 163.060844 
L 286.500884 163.060844 
L 286.677519 149.803609 
L 286.677519 149.803609 
L 286.854154 158.967654 
L 286.854154 158.967654 
L 287.030788 162.226995 
L 287.030788 162.226995 
L 287.207423 149.680536 
L 287.207423 149.680536 
L 287.384058 153.13624 
L 287.560692 151.324727 
L 287.560692 151.324727 
L 287.737327 140.049093 
L 287.737327 140.049093 
L 287.913962 139.696471 
L 287.913962 139.696471 
L 288.090596 124.381577 
L 288.090596 124.381577 
L 288.267231 127.43211 
L 288.267231 127.43211 
L 288.443866 127.286913 
L 288.443866 127.286913 
L 288.620501 119.685471 
L 288.620501 119.685471 
L 288.797135 124.129901 
L 288.797135 124.129901 
L 288.97377 116.290612 
L 288.97377 116.290612 
L 289.327039 126.513908 
L 289.327039 126.513908 
L 289.503674 122.770575 
L 289.503674 122.770575 
L 289.680309 127.39754 
L 289.680309 127.39754 
L 289.856943 120.152869 
L 289.856943 120.152869 
L 290.210213 129.026519 
L 290.210213 129.026519 
L 290.386847 120.965976 
L 290.386847 120.965976 
L 290.563482 125.50029 
L 290.563482 125.50029 
L 290.740117 112.696625 
L 290.740117 112.696625 
L 291.093386 123.845037 
L 291.093386 123.845037 
L 291.270021 113.830549 
L 291.270021 113.830549 
L 291.446655 119.231901 
L 291.446655 119.231901 
L 291.62329 105.691185 
L 291.62329 105.691185 
L 291.97656 118.631751 
L 291.97656 118.631751 
L 292.153194 109.565887 
L 292.153194 109.565887 
L 292.329829 116.918419 
L 292.329829 116.918419 
L 292.506464 105.139434 
L 292.506464 105.139434 
L 292.859733 124.161707 
L 292.859733 124.161707 
L 293.036368 119.92885 
L 293.036368 119.92885 
L 293.213002 131.142256 
L 293.213002 131.142256 
L 293.389637 128.332336 
L 293.389637 128.332336 
L 293.742906 153.606404 
L 293.742906 153.606404 
L 293.919541 158.695235 
L 293.919541 158.695235 
L 294.449445 189.478516 
L 294.449445 189.478516 
L 294.979349 213.899375 
L 294.979349 213.899375 
L 295.332618 225.652087 
L 295.332618 225.652087 
L 295.862523 241.39151 
L 295.862523 241.39151 
L 296.392427 252.911905 
L 296.392427 252.911905 
L 296.745696 261.955644 
L 296.745696 261.955644 
L 296.922331 263.457402 
L 296.922331 263.457402 
L 297.098965 266.076491 
L 297.098965 266.076491 
L 297.2756 266.152547 
L 297.2756 266.152547 
L 297.452235 268.174251 
L 297.452235 268.174251 
L 297.628869 267.106703 
L 297.628869 267.106703 
L 297.805504 268.11064 
L 297.805504 268.11064 
L 297.982139 265.642281 
L 297.982139 265.642281 
L 298.158773 266.079256 
L 298.158773 266.079256 
L 298.335408 262.818532 
L 298.335408 262.818532 
L 298.512043 262.835126 
L 298.512043 262.835126 
L 298.688677 259.373891 
L 298.688677 259.373891 
L 298.865312 259.761085 
L 298.865312 259.761085 
L 299.041947 256.619285 
L 299.041947 256.619285 
L 299.218581 257.798843 
L 299.218581 257.798843 
L 299.395216 255.519931 
L 299.395216 255.519931 
L 299.571851 257.708959 
L 299.571851 257.708959 
L 299.748486 255.539291 
L 299.748486 255.539291 
L 299.92512 257.832031 
L 299.92512 257.832031 
L 300.101755 256.063385 
L 300.101755 256.063385 
L 300.27839 258.376868 
L 300.27839 258.376868 
L 300.455024 256.752037 
L 300.455024 256.752037 
L 300.631659 258.965955 
L 300.631659 258.965955 
L 300.808294 257.671622 
L 300.808294 257.671622 
L 300.984928 259.826078 
L 300.984928 259.826078 
L 301.161563 259.324109 
L 301.161563 259.324109 
L 301.338198 256.640027 
L 301.338198 256.640027 
L 301.514832 262.727265 
L 301.514832 262.727265 
L 301.691467 261.93905 
L 301.691467 261.93905 
L 301.868102 269.068945 
L 301.868102 269.068945 
L 302.044736 271.085118 
L 302.044736 271.085118 
L 302.398006 285.512231 
L 302.398006 285.512231 
L 302.57464 291.015913 
L 302.57464 291.015913 
L 302.751275 285.223219 
L 302.751275 285.223219 
L 303.104544 259.78321 
L 303.104544 259.78321 
L 304.517622 159.689493 
L 304.517622 159.689493 
L 304.870891 150.370571 
L 304.870891 150.370571 
L 305.047526 147.715528 
L 305.047526 147.715528 
L 305.400795 149.961252 
L 305.400795 149.961252 
L 305.57743 149.915618 
L 305.57743 149.915618 
L 305.754065 157.315166 
L 305.930699 157.992755 
L 305.930699 157.992755 
L 306.107334 165.677167 
L 306.107334 165.677167 
L 306.283969 165.494633 
L 306.283969 165.494633 
L 306.460603 172.143302 
L 306.460603 172.143302 
L 306.637238 170.080112 
L 306.637238 170.080112 
L 306.813873 174.683569 
L 306.813873 174.683569 
L 306.990507 170.338703 
L 306.990507 170.338703 
L 307.167142 173.062887 
L 307.167142 173.062887 
L 307.343777 166.246895 
L 307.343777 166.246895 
L 307.520412 167.042025 
L 307.697046 157.934676 
L 307.697046 157.934676 
L 307.873681 157.818518 
L 307.873681 157.818518 
L 308.050316 147.499806 
L 308.050316 147.499806 
L 308.22695 147.302061 
L 308.22695 147.302061 
L 308.403585 137.075999 
L 308.403585 137.075999 
L 308.58022 138.216838 
L 308.58022 138.216838 
L 308.756854 136.983349 
L 308.756854 136.983349 
L 308.933489 132.22225 
L 308.933489 132.22225 
L 309.110124 133.343728 
L 309.110124 133.343728 
L 309.286758 130.589122 
L 309.286758 130.589122 
L 309.463393 134.571686 
L 309.463393 134.571686 
L 309.640028 134.752837 
L 309.640028 134.752837 
L 309.816662 141.163658 
L 309.993297 141.669776 
L 309.993297 141.669776 
L 310.169932 147.834452 
L 310.169932 147.834452 
L 310.346566 146.840194 
L 310.346566 146.840194 
L 310.699836 156.655554 
L 310.699836 156.655554 
L 310.87647 156.641726 
L 310.87647 156.641726 
L 311.053105 160.739065 
L 311.053105 160.739065 
L 311.22974 158.272088 
L 311.22974 158.272088 
L 311.406375 163.10786 
L 311.406375 163.10786 
L 311.583009 160.006162 
L 311.583009 160.006162 
L 311.759644 167.149886 
L 311.759644 167.149886 
L 311.936279 162.520156 
L 311.936279 162.520156 
L 312.112913 171.457416 
L 312.112913 171.457416 
L 312.289548 166.705996 
L 312.289548 166.705996 
L 312.642817 188.456602 
L 312.642817 188.456602 
L 312.819452 191.02176 
L 312.819452 191.02176 
L 312.996087 203.779792 
L 312.996087 203.779792 
L 313.172721 205.829153 
L 313.172721 205.829153 
L 313.349356 220.412526 
L 313.349356 220.412526 
L 313.525991 219.946511 
L 313.525991 219.946511 
L 313.87926 244.973052 
L 313.87926 244.973052 
L 314.055895 246.893809 
L 314.055895 246.893809 
L 314.232529 256.330272 
L 314.232529 256.330272 
L 314.409164 253.054337 
L 314.409164 253.054337 
L 314.585799 260.619825 
L 314.585799 260.619825 
L 314.762433 252.837232 
L 314.762433 252.837232 
L 314.939068 259.171998 
L 314.939068 259.171998 
L 315.115703 259.224545 
L 315.115703 259.224545 
L 315.292338 250.915092 
L 315.292338 250.915092 
L 315.468972 249.58204 
L 315.468972 249.58204 
L 315.645607 238.237265 
L 315.645607 238.237265 
L 315.822242 238.349274 
L 315.822242 238.349274 
L 315.998876 227.365419 
L 315.998876 227.365419 
L 316.175511 230.579126 
L 316.175511 230.579126 
L 316.352146 219.982465 
L 316.352146 219.982465 
L 316.705415 228.240753 
L 316.705415 228.240753 
L 316.88205 224.883231 
L 316.88205 224.883231 
L 317.058684 230.88335 
L 317.058684 230.88335 
L 317.235319 228.521469 
L 317.235319 228.521469 
L 317.411954 236.16163 
L 317.411954 236.16163 
L 317.588588 233.283951 
L 317.588588 233.283951 
L 317.941858 245.775096 
L 317.941858 245.775096 
L 318.118492 245.332589 
L 318.118492 245.332589 
L 318.295127 249.241862 
L 318.295127 249.241862 
L 318.471762 247.12336 
L 318.471762 247.12336 
L 318.648396 250.746386 
L 318.648396 250.746386 
L 318.825031 248.073367 
L 318.825031 248.073367 
L 319.001666 250.749152 
L 319.001666 250.749152 
L 319.178301 247.160696 
L 319.178301 247.160696 
L 319.354935 248.839457 
L 319.354935 248.839457 
L 319.53157 244.653617 
L 319.53157 244.653617 
L 319.708205 245.227493 
L 319.884839 243.648296 
L 319.884839 243.648296 
L 320.414743 232.779216 
L 320.414743 232.779216 
L 320.591378 230.456054 
L 320.591378 230.456054 
L 321.121282 218.154358 
L 321.121282 218.154358 
L 321.297917 217.097872 
L 321.297917 217.097872 
L 321.474551 212.209552 
L 321.474551 212.209552 
L 321.651186 212.573237 
L 321.651186 212.573237 
L 321.827821 208.622479 
L 321.827821 208.622479 
L 322.004455 209.955531 
L 322.004455 209.955531 
L 322.18109 206.893935 
L 322.18109 206.893935 
L 322.357725 209.463242 
L 322.357725 209.463242 
L 322.534359 207.622689 
L 322.534359 207.622689 
L 322.710994 210.926281 
L 322.710994 210.926281 
L 322.887629 210.091049 
L 323.064264 214.452509 
L 323.064264 214.452509 
L 323.240898 215.388688 
L 323.240898 215.388688 
L 323.947437 235.150778 
L 323.947437 235.150778 
L 324.124072 238.86922 
L 324.653976 267.062452 
L 324.653976 267.062452 
L 325.007245 286.205031 
L 325.007245 286.205031 
L 325.18388 295.02475 
L 325.18388 295.02475 
L 325.360514 287.832628 
L 325.360514 287.832628 
L 325.890418 256.713318 
L 325.890418 256.713318 
L 326.596957 227.182885 
L 326.596957 227.182885 
L 326.950227 218.161272 
L 326.950227 218.161272 
L 327.303496 213.219021 
L 327.303496 213.219021 
L 327.480131 212.118284 
L 327.480131 212.118284 
L 327.656765 211.819592 
L 327.656765 211.819592 
L 327.8334 211.957876 
L 328.186669 214.383368 
L 328.186669 214.383368 
L 328.539939 219.376783 
L 328.539939 219.376783 
L 328.893208 227.012796 
L 328.893208 227.012796 
L 329.246477 238.461284 
L 329.246477 238.461284 
L 329.776381 263.984262 
L 329.776381 263.984262 
L 330.306285 291.992194 
L 330.306285 291.992194 
L 331.542728 221.932262 
L 331.542728 221.932262 
L 331.719363 220.625483 
L 331.719363 220.625483 
L 331.895998 213.310288 
L 331.895998 213.310288 
L 332.072632 213.740349 
L 332.072632 213.740349 
L 332.249267 208.864475 
L 332.249267 208.864475 
L 332.425902 210.580572 
L 332.602536 207.738847 
L 332.602536 207.738847 
L 332.779171 210.261138 
L 332.955806 209.160401 
L 332.955806 209.160401 
L 333.13244 205.672892 
L 333.13244 205.672892 
L 333.309075 213.097331 
L 333.309075 213.097331 
L 333.48571 211.307943 
L 333.48571 211.307943 
L 333.662344 218.327212 
L 333.662344 218.327212 
L 333.838979 217.603989 
L 333.838979 217.603989 
L 334.015614 223.313713 
L 334.015614 223.313713 
L 334.192248 222.578045 
L 334.192248 222.578045 
L 334.368883 225.99503 
L 334.368883 225.99503 
L 334.545518 223.615171 
L 334.545518 223.615171 
L 334.722153 224.649532 
L 334.722153 224.649532 
L 334.898787 220.131811 
L 334.898787 220.131811 
L 335.075422 219.686538 
L 335.075422 219.686538 
L 335.252057 214.112332 
L 335.252057 214.112332 
L 335.428691 212.86225 
L 335.428691 212.86225 
L 335.605326 207.01839 
L 335.605326 207.01839 
L 335.781961 205.858192 
L 335.781961 205.858192 
L 335.958595 201.029334 
L 335.958595 201.029334 
L 336.13523 192.927306 
L 336.13523 192.927306 
L 336.311865 198.148889 
L 336.311865 198.148889 
L 336.488499 193.001979 
L 336.488499 193.001979 
L 336.665134 200.108366 
L 336.665134 200.108366 
L 336.841769 197.089638 
L 336.841769 197.089638 
L 337.018403 205.068594 
L 337.018403 205.068594 
L 337.195038 203.850316 
L 337.195038 203.850316 
L 337.371673 212.364429 
L 337.371673 212.364429 
L 337.548307 212.458462 
L 337.548307 212.458462 
L 337.724942 221.085967 
L 337.724942 221.085967 
L 337.901577 222.820041 
L 337.901577 222.820041 
L 338.431481 244.276103 
L 338.431481 244.276103 
L 338.78475 253.368241 
L 338.78475 253.368241 
L 339.314654 287.184078 
L 339.314654 287.184078 
L 339.491289 294.739886 
L 339.491289 294.739886 
L 340.374462 231.92739 
L 340.374462 231.92739 
L 341.081001 191.272053 
L 341.081001 191.272053 
L 341.610905 172.874821 
L 341.610905 172.874821 
L 341.78754 173.769515 
L 341.78754 173.769515 
L 341.964174 170.714834 
L 341.964174 170.714834 
L 342.140809 173.938221 
L 342.140809 173.938221 
L 342.317444 173.683779 
L 342.317444 173.683779 
L 342.494079 178.331487 
L 342.494079 178.331487 
L 342.670713 179.836011 
L 342.670713 179.836011 
L 342.847348 179.375527 
L 342.847348 179.375527 
L 343.023983 188.687535 
L 343.023983 188.687535 
L 343.200617 189.966657 
L 343.200617 189.966657 
L 343.377252 198.931574 
L 343.377252 198.931574 
L 343.553887 201.011357 
L 343.553887 201.011357 
L 343.730521 209.110619 
L 343.730521 209.110619 
L 343.907156 212.065737 
L 343.907156 212.065737 
L 344.083791 210.546002 
L 344.083791 210.546002 
L 344.260425 223.158836 
L 344.260425 223.158836 
L 344.43706 222.925137 
L 344.613695 236.517018 
L 344.613695 236.517018 
L 344.790329 240.185678 
L 344.790329 240.185678 
L 345.143599 266.589522 
L 345.143599 266.589522 
L 345.496868 289.381402 
L 345.496868 289.381402 
L 345.673503 274.273934 
L 345.673503 274.273934 
L 346.556676 161.022546 
L 346.556676 161.022546 
L 347.08658 110.385908 
L 347.08658 110.385908 
L 347.43985 87.47787 
L 347.43985 87.47787 
L 347.616484 92.480966 
L 347.616484 92.480966 
L 347.793119 93.791893 
L 347.793119 93.791893 
L 348.676292 172.256694 
L 348.676292 172.256694 
L 349.206196 230.895796 
L 349.206196 230.895796 
L 349.736101 270.172447 
L 349.736101 270.172447 
L 349.912735 277.112894 
L 349.912735 277.112894 
L 350.266005 292.765199 
L 350.266005 292.765199 
L 350.442639 290.234611 
L 350.442639 290.234611 
L 350.619274 295.488 
L 350.619274 295.488 
L 350.972543 279.221717 
L 350.972543 279.221717 
L 351.149178 279.401485 
L 351.149178 279.401485 
L 351.325813 273.675167 
L 351.325813 273.675167 
L 351.502447 274.188199 
L 351.502447 274.188199 
L 351.679082 270.238823 
L 351.679082 270.238823 
L 351.855717 271.018742 
L 351.855717 271.018742 
L 352.032351 268.558679 
L 352.032351 268.558679 
L 352.208986 269.454756 
L 352.208986 269.454756 
L 352.385621 272.434764 
L 352.385621 272.434764 
L 352.562255 269.071711 
L 352.73889 272.065547 
L 352.73889 272.065547 
L 352.915525 269.880669 
L 352.915525 269.880669 
L 353.092159 272.697503 
L 353.092159 272.697503 
L 353.268794 271.29116 
L 353.268794 271.29116 
L 353.445429 273.517524 
L 353.445429 273.517524 
L 353.622064 277.725489 
L 353.622064 277.725489 
L 353.798698 273.881209 
L 353.798698 273.881209 
L 353.975333 277.070026 
L 353.975333 277.070026 
L 354.151968 273.783028 
L 354.328602 276.079916 
L 354.328602 276.079916 
L 354.505237 273.401366 
L 354.505237 273.401366 
L 354.681872 274.825685 
L 354.681872 274.825685 
L 354.858506 278.076729 
L 354.858506 278.076729 
L 355.035141 272.748668 
L 355.035141 272.748668 
L 355.211776 274.796646 
L 355.211776 274.796646 
L 355.38841 270.280308 
L 355.38841 270.280308 
L 355.565045 271.423912 
L 355.565045 271.423912 
L 355.74168 267.428903 
L 355.74168 267.428903 
L 355.918314 267.413692 
L 355.918314 267.413692 
L 356.094949 268.981826 
L 356.094949 268.981826 
L 356.271584 262.887674 
L 356.271584 262.887674 
L 356.448218 263.327416 
L 356.448218 263.327416 
L 356.624853 257.986908 
L 356.624853 257.986908 
L 356.801488 257.383992 
L 356.801488 257.383992 
L 356.978122 252.91882 
L 356.978122 252.91882 
L 357.154757 251.426741 
L 357.154757 251.426741 
L 357.331392 251.390787 
L 357.331392 251.390787 
L 357.508027 246.024006 
L 357.508027 246.024006 
L 357.684661 245.506826 
L 357.684661 245.506826 
L 357.861296 241.787001 
L 357.861296 241.787001 
L 358.037931 241.314072 
L 358.037931 241.314072 
L 358.214565 242.214297 
L 358.214565 242.214297 
L 358.3912 239.385017 
L 358.3912 239.385017 
L 358.567835 240.481605 
L 358.567835 240.481605 
L 358.744469 239.609036 
L 358.921104 241.229719 
L 358.921104 241.229719 
L 359.097739 244.114312 
L 359.097739 244.114312 
L 359.274373 244.462786 
L 359.274373 244.462786 
L 360.334181 266.514849 
L 360.334181 266.514849 
L 360.510816 272.292332 
L 360.510816 272.292332 
L 360.687451 273.590814 
L 361.04072 284.88719 
L 361.04072 284.88719 
L 361.217355 285.325548 
L 361.39399 290.444802 
L 361.39399 290.444802 
L 361.570624 291.822105 
L 361.570624 291.822105 
L 361.747259 295.10772 
L 361.747259 295.10772 
L 361.923894 292.183025 
L 361.923894 292.183025 
L 362.100528 293.149627 
L 362.100528 293.149627 
L 362.453798 290.208337 
L 362.453798 290.208337 
L 362.630432 293.607345 
L 362.630432 293.607345 
L 362.983702 294.820091 
L 362.983702 294.820091 
L 363.160336 290.634251 
L 363.160336 290.634251 
L 363.336971 295.488 
L 363.336971 295.488 
L 363.69024 278.31596 
L 363.69024 278.31596 
L 364.04351 270.859716 
L 364.04351 270.859716 
L 364.396779 258.817992 
L 364.396779 258.817992 
L 364.573414 255.009665 
L 364.573414 255.009665 
L 364.926683 242.221211 
L 364.926683 242.221211 
L 365.103318 237.592864 
L 365.103318 237.592864 
L 365.809857 210.046798 
L 365.809857 210.046798 
L 367.752838 139.747635 
L 367.752838 139.747635 
L 368.106107 133.759962 
L 368.106107 133.759962 
L 368.459377 131.131193 
L 368.459377 131.131193 
L 368.636011 131.392549 
L 368.636011 131.392549 
L 368.812646 132.635717 
L 368.812646 132.635717 
L 369.165916 137.940271 
L 369.165916 137.940271 
L 369.69582 152.63842 
L 369.69582 152.63842 
L 370.578993 186.99218 
L 370.578993 186.99218 
L 371.638801 225.338183 
L 371.638801 225.338183 
L 373.758417 295.488 
L 373.758417 295.488 
L 373.935052 291.206744 
L 373.935052 291.206744 
L 374.288321 294.992945 
L 374.288321 294.992945 
L 374.464956 293.094313 
L 374.464956 293.094313 
L 374.641591 295.488 
L 374.641591 295.488 
L 374.818225 289.90688 
L 374.818225 289.90688 
L 375.348129 284.975691 
L 375.348129 284.975691 
L 375.524764 295.488 
L 375.524764 295.488 
L 375.701399 281.64306 
L 375.701399 281.64306 
L 376.231303 277.484876 
L 376.231303 277.484876 
L 376.584572 276.326061 
L 376.584572 276.326061 
L 376.761207 276.346803 
L 376.761207 276.346803 
L 377.114476 277.235966 
L 377.114476 277.235966 
L 378.174284 281.309797 
L 378.174284 281.309797 
L 378.704188 281.236507 
L 378.704188 281.236507 
L 379.057458 281.124497 
L 379.057458 281.124497 
L 379.234092 281.331922 
L 379.234092 281.331922 
L 379.410727 281.880907 
L 379.410727 281.880907 
L 379.763996 283.82379 
L 379.763996 283.82379 
L 379.940631 295.488 
L 379.940631 295.488 
L 380.117266 286.271407 
L 380.117266 286.271407 
L 380.64717 290.306519 
L 380.64717 290.306519 
L 380.823805 295.488 
L 381.000439 291.887099 
L 381.000439 291.887099 
L 381.530343 292.907631 
L 381.530343 292.907631 
L 381.706978 295.488 
L 381.706978 295.488 
L 381.883613 293.381943 
L 381.883613 293.381943 
L 382.060247 293.839661 
L 382.060247 293.839661 
L 382.413517 295.243238 
L 382.413517 295.243238 
L 382.590151 295.488 
L 382.590151 295.488 
L 382.943421 291.613297 
L 382.943421 291.613297 
L 383.29669 289.023248 
L 383.29669 289.023248 
L 383.473325 295.488 
L 383.473325 295.488 
L 383.649959 287.356933 
L 383.649959 287.356933 
L 383.826594 287.125999 
L 384.003229 287.168867 
L 384.003229 287.168867 
L 384.179863 287.430223 
L 384.179863 287.430223 
L 384.356498 295.488 
L 384.356498 295.488 
L 384.533133 288.438309 
L 384.533133 288.438309 
L 384.886402 289.49756 
L 384.886402 289.49756 
L 385.063037 289.772745 
L 385.063037 289.772745 
L 385.239672 295.488 
L 385.239672 295.488 
L 385.416306 289.407676 
L 385.416306 289.407676 
L 385.769576 288.467349 
L 385.769576 288.467349 
L 385.94621 287.87273 
L 385.94621 287.87273 
L 386.122845 295.488 
L 386.122845 295.488 
L 386.29948 286.850815 
L 386.29948 286.850815 
L 386.476114 286.654453 
L 386.476114 286.654453 
L 386.652749 286.849432 
L 386.652749 286.849432 
L 386.829384 287.301619 
L 386.829384 287.301619 
L 387.006018 295.488 
L 387.006018 295.488 
L 387.182653 288.640203 
L 387.182653 288.640203 
L 387.712557 291.221955 
L 387.712557 291.221955 
L 387.889192 295.488 
L 387.889192 295.488 
L 388.065826 292.137392 
L 388.065826 292.137392 
L 388.419096 292.313012 
L 388.419096 292.313012 
L 388.595731 292.279824 
L 388.595731 292.279824 
L 388.772365 295.488 
L 388.949 292.227276 
L 388.949 292.227276 
L 389.125635 292.407044 
L 389.125635 292.407044 
L 389.478904 293.646064 
L 389.478904 293.646064 
L 389.655539 295.488 
L 389.655539 295.488 
L 389.832173 295.299934 
L 389.832173 295.299934 
L 390.008808 294.731589 
L 390.008808 294.731589 
L 390.362077 292.870294 
L 390.362077 292.870294 
L 390.538712 295.488 
L 390.538712 295.488 
L 390.715347 291.909224 
L 390.715347 291.909224 
L 390.891981 292.014319 
L 390.891981 292.014319 
L 391.245251 292.881357 
L 391.245251 292.881357 
L 391.421885 295.488 
L 391.421885 295.488 
L 391.59852 294.336099 
L 391.59852 294.336099 
L 391.951789 295.362162 
L 391.951789 295.362162 
L 392.128424 295.052407 
L 392.128424 295.052407 
L 392.305059 295.488 
L 392.305059 295.488 
L 392.481694 295.440984 
L 392.481694 295.440984 
L 392.834963 294.022195 
L 392.834963 294.022195 
L 393.011598 293.080485 
L 393.011598 293.080485 
L 393.188232 295.488 
L 393.188232 295.488 
L 393.364867 291.109946 
L 393.364867 291.109946 
L 393.718136 289.69254 
L 393.718136 289.69254 
L 393.894771 289.523834 
L 394.071406 295.488 
L 394.071406 295.488 
L 394.24804 289.870926 
L 394.24804 289.870926 
L 394.777944 291.018679 
L 394.777944 291.018679 
L 394.954579 295.488 
L 394.954579 295.488 
L 395.131214 291.270354 
L 395.131214 291.270354 
L 395.484483 290.783597 
L 395.484483 290.783597 
L 395.661118 290.442037 
L 395.661118 290.442037 
L 395.837752 295.488 
L 395.837752 295.488 
L 396.014387 289.698072 
L 396.014387 289.698072 
L 396.191022 289.460224 
L 396.191022 289.460224 
L 396.367657 289.449161 
L 396.367657 289.449161 
L 396.544291 290.184829 
L 396.544291 290.184829 
L 396.720926 295.488 
L 396.720926 295.488 
L 396.897561 292.440233 
L 396.897561 292.440233 
L 397.25083 295.262598 
L 397.25083 295.262598 
L 397.427465 293.592134 
L 397.427465 293.592134 
L 397.604099 295.488 
L 397.604099 295.488 
L 397.780734 291.245463 
L 397.780734 291.245463 
L 397.957369 292.191322 
L 397.957369 292.191322 
L 398.134003 292.134626 
L 398.134003 292.134626 
L 398.310638 289.707751 
L 398.310638 289.707751 
L 398.487273 258.775124 
L 398.487273 258.775124 
" clip-path="url(#p8f64f36507)" style="fill: none; stroke: #1f77b4; stroke-width: 1.5; stroke-linecap: square"/>
   </g>
   <g id="patch_3">
    <path d="M 57.6 307.584 
L 57.6 41.472 
" style="fill: none; stroke: #000000; stroke-width: 0.8; stroke-linejoin: miter; stroke-linecap: square"/>
   </g>
   <g id="patch_4">
    <path d="M 414.72 307.584 
L 414.72 41.472 
" style="fill: none; stroke: #000000; stroke-width: 0.8; stroke-linejoin: miter; stroke-linecap: square"/>
   </g>
   <g id="patch_5">
    <path d="M 57.6 307.584 
L 414.72 307.584 
" style="fill: none; stroke: #000000; stroke-width: 0.8; stroke-linejoin: miter; stroke-linecap: square"/>
   </g>
   <g id="patch_6">
    <path d="M 57.6 41.472 
L 414.72 41.472 
" style="fill: none; stroke: #000000; stroke-width: 0.8; stroke-linejoin: miter; stroke-linecap: square"/>
   </g>
   <g id="text_19">
    <!-- Tracking error vs Time -->
    <g transform="translate(169.584375 35.472) scale(0.12 -0.12)">
     <defs>
      <path id="DejaVuSans-76" d="M 191 3500 
L 800 3500 
L 1894 563 
L 2988 3500 
L 3597 3500 
L 2284 0 
L 1503 0 
L 191 3500 
z
" transform="scale(0.015625)"/>
     </defs>
     <use xlink:href="#DejaVuSans-54"/>
     <use xlink:href="#DejaVuSans-72" x="46.333984"/>
     <use xlink:href="#DejaVuSans-61" x="87.447266"/>
     <use xlink:href="#DejaVuSans-63" x="148.726562"/>
     <use xlink:href="#DejaVuSans-6b" x="203.707031"/>
     <use xlink:href="#DejaVuSans-69" x="261.617188"/>
     <use xlink:href="#DejaVuSans-6e" x="289.400391"/>
     <use xlink:href="#DejaVuSans-67" x="352.779297"/>
     <use xlink:href="#DejaVuSans-20" x="416.255859"/>
     <use xlink:href="#DejaVuSans-65" x="448.042969"/>
     <use xlink:href="#DejaVuSans-72" x="509.566406"/>
     <use xlink:href="#DejaVuSans-72" x="548.929688"/>
     <use xlink:href="#DejaVuSans-6f" x="587.792969"/>
     <use xlink:href="#DejaVuSans-72" x="648.974609"/>
     <use xlink:href="#DejaVuSans-20" x="690.087891"/>
     <use xlink:href="#DejaVuSans-76" x="721.875"/>
     <use xlink:href="#DejaVuSans-73" x="781.054688"/>
     <use xlink:href="#DejaVuSans-20" x="833.154297"/>
     <use xlink:href="#DejaVuSans-54" x="864.941406"/>
     <use xlink:href="#DejaVuSans-69" x="922.900391"/>
     <use xlink:href="#DejaVuSans-6d" x="950.683594"/>
     <use xlink:href="#DejaVuSans-65" x="1048.095703"/>
    </g>
   </g>
   <g id="legend_1">
    <g id="patch_7">
     <path d="M 311.00125 64.150125 
L 407.72 64.150125 
Q 409.72 64.150125 409.72 62.150125 
L 409.72 48.472 
Q 409.72 46.472 407.72 46.472 
L 311.00125 46.472 
Q 309.00125 46.472 309.00125 48.472 
L 309.00125 62.150125 
Q 309.00125 64.150125 311.00125 64.150125 
z
" style="fill: #ffffff; opacity: 0.8; stroke: #cccccc; stroke-linejoin: miter"/>
    </g>
    <g id="line2d_34">
     <path d="M 313.00125 54.570438 
L 323.00125 54.570438 
L 333.00125 54.570438 
" style="fill: none; stroke: #1f77b4; stroke-width: 1.5; stroke-linecap: square"/>
    </g>
    <g id="text_20">
     <!-- Actual speed -->
     <g transform="translate(341.00125 58.070438) scale(0.1 -0.1)">
      <defs>
       <path id="DejaVuSans-41" d="M 2188 4044 
L 1331 1722 
L 3047 1722 
L 2188 4044 
z
M 1831 4666 
L 2547 4666 
L 4325 0 
L 3669 0 
L 3244 1197 
L 1141 1197 
L 716 0 
L 50 0 
L 1831 4666 
z
" transform="scale(0.015625)"/>
       <path id="DejaVuSans-74" d="M 1172 4494 
L 1172 3500 
L 2356 3500 
L 2356 3053 
L 1172 3053 
L 1172 1153 
Q 1172 725 1289 603 
Q 1406 481 1766 481 
L 2356 481 
L 2356 0 
L 1766 0 
Q 1100 0 847 248 
Q 594 497 594 1153 
L 594 3053 
L 172 3053 
L 172 3500 
L 594 3500 
L 594 4494 
L 1172 4494 
z
" transform="scale(0.015625)"/>
       <path id="DejaVuSans-75" d="M 544 1381 
L 544 3500 
L 1119 3500 
L 1119 1403 
Q 1119 906 1312 657 
Q 1506 409 1894 409 
Q 2359 409 2629 706 
Q 2900 1003 2900 1516 
L 2900 3500 
L 3475 3500 
L 3475 0 
L 2900 0 
L 2900 538 
Q 2691 219 2414 64 
Q 2138 -91 1772 -91 
Q 1169 -91 856 284 
Q 544 659 544 1381 
z
M 1991 3584 
L 1991 3584 
z
" transform="scale(0.015625)"/>
       <path id="DejaVuSans-6c" d="M 603 4863 
L 1178 4863 
L 1178 0 
L 603 0 
L 603 4863 
z
" transform="scale(0.015625)"/>
       <path id="DejaVuSans-70" d="M 1159 525 
L 1159 -1331 
L 581 -1331 
L 581 3500 
L 1159 3500 
L 1159 2969 
Q 1341 3281 1617 3432 
Q 1894 3584 2278 3584 
Q 2916 3584 3314 3078 
Q 3713 2572 3713 1747 
Q 3713 922 3314 415 
Q 2916 -91 2278 -91 
Q 1894 -91 1617 61 
Q 1341 213 1159 525 
z
M 3116 1747 
Q 3116 2381 2855 2742 
Q 2594 3103 2138 3103 
Q 1681 3103 1420 2742 
Q 1159 2381 1159 1747 
Q 1159 1113 1420 752 
Q 1681 391 2138 391 
Q 2594 391 2855 752 
Q 3116 1113 3116 1747 
z
" transform="scale(0.015625)"/>
       <path id="DejaVuSans-64" d="M 2906 2969 
L 2906 4863 
L 3481 4863 
L 3481 0 
L 2906 0 
L 2906 525 
Q 2725 213 2448 61 
Q 2172 -91 1784 -91 
Q 1150 -91 751 415 
Q 353 922 353 1747 
Q 353 2572 751 3078 
Q 1150 3584 1784 3584 
Q 2172 3584 2448 3432 
Q 2725 3281 2906 2969 
z
M 947 1747 
Q 947 1113 1208 752 
Q 1469 391 1925 391 
Q 2381 391 2643 752 
Q 2906 1113 2906 1747 
Q 2906 2381 2643 2742 
Q 2381 3103 1925 3103 
Q 1469 3103 1208 2742 
Q 947 2381 947 1747 
z
" transform="scale(0.015625)"/>
      </defs>
      <use xlink:href="#DejaVuSans-41"/>
      <use xlink:href="#DejaVuSans-63" x="66.658203"/>
      <use xlink:href="#DejaVuSans-74" x="121.638672"/>
      <use xlink:href="#DejaVuSans-75" x="160.847656"/>
      <use xlink:href="#DejaVuSans-61" x="224.226562"/>
      <use xlink:href="#DejaVuSans-6c" x="285.505859"/>
      <use xlink:href="#DejaVuSans-20" x="313.289062"/>
      <use xlink:href="#DejaVuSans-73" x="345.076172"/>
      <use xlink:href="#DejaVuSans-70" x="397.175781"/>
      <use xlink:href="#DejaVuSans-65" x="460.652344"/>
      <use xlink:href="#DejaVuSans-65" x="522.175781"/>
      <use xlink:href="#DejaVuSans-64" x="583.699219"/>
     </g>
    </g>
   </g>
  </g>
 </g>
 <defs>
  <clipPath id="p8f64f36507">
   <rect x="57.6" y="41.472" width="357.12" height="266.112"/>
  </clipPath>
 </defs>
</svg>
