<?xml version="1.0" encoding="utf-8" standalone="no"?>
<!DOCTYPE svg PUBLIC "-//W3C//DTD SVG 1.1//EN"
  "http://www.w3.org/Graphics/SVG/1.1/DTD/svg11.dtd">
<svg xmlns:xlink="http://www.w3.org/1999/xlink" width="460.8pt" height="345.6pt" viewBox="0 0 460.8 345.6" xmlns="http://www.w3.org/2000/svg" version="1.1">
 <metadata>
  <rdf:RDF xmlns:dc="http://purl.org/dc/elements/1.1/" xmlns:cc="http://creativecommons.org/ns#" xmlns:rdf="http://www.w3.org/1999/02/22-rdf-syntax-ns#">
   <cc:Work>
    <dc:type rdf:resource="http://purl.org/dc/dcmitype/StillImage"/>
    <dc:date>2024-01-30T20:58:53.800090</dc:date>
    <dc:format>image/svg+xml</dc:format>
    <dc:creator>
     <cc:Agent>
      <dc:title>Matplotlib v3.7.1, https://matplotlib.org/</dc:title>
     </cc:Agent>
    </dc:creator>
   </cc:Work>
  </rdf:RDF>
 </metadata>
 <defs>
  <style type="text/css">*{stroke-linejoin: round; stroke-linecap: butt}</style>
 </defs>
 <g id="figure_1">
  <g id="patch_1">
   <path d="M 0 345.6 
L 460.8 345.6 
L 460.8 0 
L 0 0 
z
" style="fill: #ffffff"/>
  </g>
  <g id="axes_1">
   <g id="patch_2">
    <path d="M 57.6 307.584 
L 414.72 307.584 
L 414.72 41.472 
L 57.6 41.472 
z
" style="fill: #ffffff"/>
   </g>
   <g id="matplotlib.axis_1">
    <g id="xtick_1">
     <g id="line2d_1">
      <path d="M 73.832727 307.584 
L 73.832727 41.472 
" clip-path="url(#pa08f287179)" style="fill: none; stroke: #b0b0b0; stroke-width: 0.8; stroke-linecap: square"/>
     </g>
     <g id="line2d_2">
      <defs>
       <path id="m8e6d722f9a" d="M 0 0 
L 0 3.5 
" style="stroke: #000000; stroke-width: 0.8"/>
      </defs>
      <g>
       <use xlink:href="#m8e6d722f9a" x="73.832727" y="307.584" style="stroke: #000000; stroke-width: 0.8"/>
      </g>
     </g>
     <g id="text_1">
      <!-- 0 -->
      <g transform="translate(70.651477 322.182437) scale(0.1 -0.1)">
       <defs>
        <path id="DejaVuSans-30" d="M 2034 4250 
Q 1547 4250 1301 3770 
Q 1056 3291 1056 2328 
Q 1056 1369 1301 889 
Q 1547 409 2034 409 
Q 2525 409 2770 889 
Q 3016 1369 3016 2328 
Q 3016 3291 2770 3770 
Q 2525 4250 2034 4250 
z
M 2034 4750 
Q 2819 4750 3233 4129 
Q 3647 3509 3647 2328 
Q 3647 1150 3233 529 
Q 2819 -91 2034 -91 
Q 1250 -91 836 529 
Q 422 1150 422 2328 
Q 422 3509 836 4129 
Q 1250 4750 2034 4750 
z
" transform="scale(0.015625)"/>
       </defs>
       <use xlink:href="#DejaVuSans-30"/>
      </g>
     </g>
    </g>
    <g id="xtick_2">
     <g id="line2d_3">
      <path d="M 118.015436 307.584 
L 118.015436 41.472 
" clip-path="url(#pa08f287179)" style="fill: none; stroke: #b0b0b0; stroke-width: 0.8; stroke-linecap: square"/>
     </g>
     <g id="line2d_4">
      <g>
       <use xlink:href="#m8e6d722f9a" x="118.015436" y="307.584" style="stroke: #000000; stroke-width: 0.8"/>
      </g>
     </g>
     <g id="text_2">
      <!-- 5 -->
      <g transform="translate(114.834186 322.182437) scale(0.1 -0.1)">
       <defs>
        <path id="DejaVuSans-35" d="M 691 4666 
L 3169 4666 
L 3169 4134 
L 1269 4134 
L 1269 2991 
Q 1406 3038 1543 3061 
Q 1681 3084 1819 3084 
Q 2600 3084 3056 2656 
Q 3513 2228 3513 1497 
Q 3513 744 3044 326 
Q 2575 -91 1722 -91 
Q 1428 -91 1123 -41 
Q 819 9 494 109 
L 494 744 
Q 775 591 1075 516 
Q 1375 441 1709 441 
Q 2250 441 2565 725 
Q 2881 1009 2881 1497 
Q 2881 1984 2565 2268 
Q 2250 2553 1709 2553 
Q 1456 2553 1204 2497 
Q 953 2441 691 2322 
L 691 4666 
z
" transform="scale(0.015625)"/>
       </defs>
       <use xlink:href="#DejaVuSans-35"/>
      </g>
     </g>
    </g>
    <g id="xtick_3">
     <g id="line2d_5">
      <path d="M 162.198145 307.584 
L 162.198145 41.472 
" clip-path="url(#pa08f287179)" style="fill: none; stroke: #b0b0b0; stroke-width: 0.8; stroke-linecap: square"/>
     </g>
     <g id="line2d_6">
      <g>
       <use xlink:href="#m8e6d722f9a" x="162.198145" y="307.584" style="stroke: #000000; stroke-width: 0.8"/>
      </g>
     </g>
     <g id="text_3">
      <!-- 10 -->
      <g transform="translate(155.835645 322.182437) scale(0.1 -0.1)">
       <defs>
        <path id="DejaVuSans-31" d="M 794 531 
L 1825 531 
L 1825 4091 
L 703 3866 
L 703 4441 
L 1819 4666 
L 2450 4666 
L 2450 531 
L 3481 531 
L 3481 0 
L 794 0 
L 794 531 
z
" transform="scale(0.015625)"/>
       </defs>
       <use xlink:href="#DejaVuSans-31"/>
       <use xlink:href="#DejaVuSans-30" x="63.623047"/>
      </g>
     </g>
    </g>
    <g id="xtick_4">
     <g id="line2d_7">
      <path d="M 206.380854 307.584 
L 206.380854 41.472 
" clip-path="url(#pa08f287179)" style="fill: none; stroke: #b0b0b0; stroke-width: 0.8; stroke-linecap: square"/>
     </g>
     <g id="line2d_8">
      <g>
       <use xlink:href="#m8e6d722f9a" x="206.380854" y="307.584" style="stroke: #000000; stroke-width: 0.8"/>
      </g>
     </g>
     <g id="text_4">
      <!-- 15 -->
      <g transform="translate(200.018354 322.182437) scale(0.1 -0.1)">
       <use xlink:href="#DejaVuSans-31"/>
       <use xlink:href="#DejaVuSans-35" x="63.623047"/>
      </g>
     </g>
    </g>
    <g id="xtick_5">
     <g id="line2d_9">
      <path d="M 250.563563 307.584 
L 250.563563 41.472 
" clip-path="url(#pa08f287179)" style="fill: none; stroke: #b0b0b0; stroke-width: 0.8; stroke-linecap: square"/>
     </g>
     <g id="line2d_10">
      <g>
       <use xlink:href="#m8e6d722f9a" x="250.563563" y="307.584" style="stroke: #000000; stroke-width: 0.8"/>
      </g>
     </g>
     <g id="text_5">
      <!-- 20 -->
      <g transform="translate(244.201063 322.182437) scale(0.1 -0.1)">
       <defs>
        <path id="DejaVuSans-32" d="M 1228 531 
L 3431 531 
L 3431 0 
L 469 0 
L 469 531 
Q 828 903 1448 1529 
Q 2069 2156 2228 2338 
Q 2531 2678 2651 2914 
Q 2772 3150 2772 3378 
Q 2772 3750 2511 3984 
Q 2250 4219 1831 4219 
Q 1534 4219 1204 4116 
Q 875 4013 500 3803 
L 500 4441 
Q 881 4594 1212 4672 
Q 1544 4750 1819 4750 
Q 2544 4750 2975 4387 
Q 3406 4025 3406 3419 
Q 3406 3131 3298 2873 
Q 3191 2616 2906 2266 
Q 2828 2175 2409 1742 
Q 1991 1309 1228 531 
z
" transform="scale(0.015625)"/>
       </defs>
       <use xlink:href="#DejaVuSans-32"/>
       <use xlink:href="#DejaVuSans-30" x="63.623047"/>
      </g>
     </g>
    </g>
    <g id="xtick_6">
     <g id="line2d_11">
      <path d="M 294.746272 307.584 
L 294.746272 41.472 
" clip-path="url(#pa08f287179)" style="fill: none; stroke: #b0b0b0; stroke-width: 0.8; stroke-linecap: square"/>
     </g>
     <g id="line2d_12">
      <g>
       <use xlink:href="#m8e6d722f9a" x="294.746272" y="307.584" style="stroke: #000000; stroke-width: 0.8"/>
      </g>
     </g>
     <g id="text_6">
      <!-- 25 -->
      <g transform="translate(288.383772 322.182437) scale(0.1 -0.1)">
       <use xlink:href="#DejaVuSans-32"/>
       <use xlink:href="#DejaVuSans-35" x="63.623047"/>
      </g>
     </g>
    </g>
    <g id="xtick_7">
     <g id="line2d_13">
      <path d="M 338.928981 307.584 
L 338.928981 41.472 
" clip-path="url(#pa08f287179)" style="fill: none; stroke: #b0b0b0; stroke-width: 0.8; stroke-linecap: square"/>
     </g>
     <g id="line2d_14">
      <g>
       <use xlink:href="#m8e6d722f9a" x="338.928981" y="307.584" style="stroke: #000000; stroke-width: 0.8"/>
      </g>
     </g>
     <g id="text_7">
      <!-- 30 -->
      <g transform="translate(332.566481 322.182437) scale(0.1 -0.1)">
       <defs>
        <path id="DejaVuSans-33" d="M 2597 2516 
Q 3050 2419 3304 2112 
Q 3559 1806 3559 1356 
Q 3559 666 3084 287 
Q 2609 -91 1734 -91 
Q 1441 -91 1130 -33 
Q 819 25 488 141 
L 488 750 
Q 750 597 1062 519 
Q 1375 441 1716 441 
Q 2309 441 2620 675 
Q 2931 909 2931 1356 
Q 2931 1769 2642 2001 
Q 2353 2234 1838 2234 
L 1294 2234 
L 1294 2753 
L 1863 2753 
Q 2328 2753 2575 2939 
Q 2822 3125 2822 3475 
Q 2822 3834 2567 4026 
Q 2313 4219 1838 4219 
Q 1578 4219 1281 4162 
Q 984 4106 628 3988 
L 628 4550 
Q 988 4650 1302 4700 
Q 1616 4750 1894 4750 
Q 2613 4750 3031 4423 
Q 3450 4097 3450 3541 
Q 3450 3153 3228 2886 
Q 3006 2619 2597 2516 
z
" transform="scale(0.015625)"/>
       </defs>
       <use xlink:href="#DejaVuSans-33"/>
       <use xlink:href="#DejaVuSans-30" x="63.623047"/>
      </g>
     </g>
    </g>
    <g id="xtick_8">
     <g id="line2d_15">
      <path d="M 383.11169 307.584 
L 383.11169 41.472 
" clip-path="url(#pa08f287179)" style="fill: none; stroke: #b0b0b0; stroke-width: 0.8; stroke-linecap: square"/>
     </g>
     <g id="line2d_16">
      <g>
       <use xlink:href="#m8e6d722f9a" x="383.11169" y="307.584" style="stroke: #000000; stroke-width: 0.8"/>
      </g>
     </g>
     <g id="text_8">
      <!-- 35 -->
      <g transform="translate(376.74919 322.182437) scale(0.1 -0.1)">
       <use xlink:href="#DejaVuSans-33"/>
       <use xlink:href="#DejaVuSans-35" x="63.623047"/>
      </g>
     </g>
    </g>
    <g id="text_9">
     <!-- Time(s) -->
     <g transform="translate(217.420156 335.860562) scale(0.1 -0.1)">
      <defs>
       <path id="DejaVuSans-54" d="M -19 4666 
L 3928 4666 
L 3928 4134 
L 2272 4134 
L 2272 0 
L 1638 0 
L 1638 4134 
L -19 4134 
L -19 4666 
z
" transform="scale(0.015625)"/>
       <path id="DejaVuSans-69" d="M 603 3500 
L 1178 3500 
L 1178 0 
L 603 0 
L 603 3500 
z
M 603 4863 
L 1178 4863 
L 1178 4134 
L 603 4134 
L 603 4863 
z
" transform="scale(0.015625)"/>
       <path id="DejaVuSans-6d" d="M 3328 2828 
Q 3544 3216 3844 3400 
Q 4144 3584 4550 3584 
Q 5097 3584 5394 3201 
Q 5691 2819 5691 2113 
L 5691 0 
L 5113 0 
L 5113 2094 
Q 5113 2597 4934 2840 
Q 4756 3084 4391 3084 
Q 3944 3084 3684 2787 
Q 3425 2491 3425 1978 
L 3425 0 
L 2847 0 
L 2847 2094 
Q 2847 2600 2669 2842 
Q 2491 3084 2119 3084 
Q 1678 3084 1418 2786 
Q 1159 2488 1159 1978 
L 1159 0 
L 581 0 
L 581 3500 
L 1159 3500 
L 1159 2956 
Q 1356 3278 1631 3431 
Q 1906 3584 2284 3584 
Q 2666 3584 2933 3390 
Q 3200 3197 3328 2828 
z
" transform="scale(0.015625)"/>
       <path id="DejaVuSans-65" d="M 3597 1894 
L 3597 1613 
L 953 1613 
Q 991 1019 1311 708 
Q 1631 397 2203 397 
Q 2534 397 2845 478 
Q 3156 559 3463 722 
L 3463 178 
Q 3153 47 2828 -22 
Q 2503 -91 2169 -91 
Q 1331 -91 842 396 
Q 353 884 353 1716 
Q 353 2575 817 3079 
Q 1281 3584 2069 3584 
Q 2775 3584 3186 3129 
Q 3597 2675 3597 1894 
z
M 3022 2063 
Q 3016 2534 2758 2815 
Q 2500 3097 2075 3097 
Q 1594 3097 1305 2825 
Q 1016 2553 972 2059 
L 3022 2063 
z
" transform="scale(0.015625)"/>
       <path id="DejaVuSans-28" d="M 1984 4856 
Q 1566 4138 1362 3434 
Q 1159 2731 1159 2009 
Q 1159 1288 1364 580 
Q 1569 -128 1984 -844 
L 1484 -844 
Q 1016 -109 783 600 
Q 550 1309 550 2009 
Q 550 2706 781 3412 
Q 1013 4119 1484 4856 
L 1984 4856 
z
" transform="scale(0.015625)"/>
       <path id="DejaVuSans-73" d="M 2834 3397 
L 2834 2853 
Q 2591 2978 2328 3040 
Q 2066 3103 1784 3103 
Q 1356 3103 1142 2972 
Q 928 2841 928 2578 
Q 928 2378 1081 2264 
Q 1234 2150 1697 2047 
L 1894 2003 
Q 2506 1872 2764 1633 
Q 3022 1394 3022 966 
Q 3022 478 2636 193 
Q 2250 -91 1575 -91 
Q 1294 -91 989 -36 
Q 684 19 347 128 
L 347 722 
Q 666 556 975 473 
Q 1284 391 1588 391 
Q 1994 391 2212 530 
Q 2431 669 2431 922 
Q 2431 1156 2273 1281 
Q 2116 1406 1581 1522 
L 1381 1569 
Q 847 1681 609 1914 
Q 372 2147 372 2553 
Q 372 3047 722 3315 
Q 1072 3584 1716 3584 
Q 2034 3584 2315 3537 
Q 2597 3491 2834 3397 
z
" transform="scale(0.015625)"/>
       <path id="DejaVuSans-29" d="M 513 4856 
L 1013 4856 
Q 1481 4119 1714 3412 
Q 1947 2706 1947 2009 
Q 1947 1309 1714 600 
Q 1481 -109 1013 -844 
L 513 -844 
Q 928 -128 1133 580 
Q 1338 1288 1338 2009 
Q 1338 2731 1133 3434 
Q 928 4138 513 4856 
z
" transform="scale(0.015625)"/>
      </defs>
      <use xlink:href="#DejaVuSans-54"/>
      <use xlink:href="#DejaVuSans-69" x="57.958984"/>
      <use xlink:href="#DejaVuSans-6d" x="85.742188"/>
      <use xlink:href="#DejaVuSans-65" x="183.154297"/>
      <use xlink:href="#DejaVuSans-28" x="244.677734"/>
      <use xlink:href="#DejaVuSans-73" x="283.691406"/>
      <use xlink:href="#DejaVuSans-29" x="335.791016"/>
     </g>
    </g>
   </g>
   <g id="matplotlib.axis_2">
    <g id="ytick_1">
     <g id="line2d_17">
      <path d="M 57.6 295.488 
L 414.72 295.488 
" clip-path="url(#pa08f287179)" style="fill: none; stroke: #b0b0b0; stroke-width: 0.8; stroke-linecap: square"/>
     </g>
     <g id="line2d_18">
      <defs>
       <path id="m0e53a481f3" d="M 0 0 
L -3.5 0 
" style="stroke: #000000; stroke-width: 0.8"/>
      </defs>
      <g>
       <use xlink:href="#m0e53a481f3" x="57.6" y="295.488" style="stroke: #000000; stroke-width: 0.8"/>
      </g>
     </g>
     <g id="text_10">
      <!-- 0.000 -->
      <g transform="translate(21.971875 299.287219) scale(0.1 -0.1)">
       <defs>
        <path id="DejaVuSans-2e" d="M 684 794 
L 1344 794 
L 1344 0 
L 684 0 
L 684 794 
z
" transform="scale(0.015625)"/>
       </defs>
       <use xlink:href="#DejaVuSans-30"/>
       <use xlink:href="#DejaVuSans-2e" x="63.623047"/>
       <use xlink:href="#DejaVuSans-30" x="95.410156"/>
       <use xlink:href="#DejaVuSans-30" x="159.033203"/>
       <use xlink:href="#DejaVuSans-30" x="222.65625"/>
      </g>
     </g>
    </g>
    <g id="ytick_2">
     <g id="line2d_19">
      <path d="M 57.6 263.517602 
L 414.72 263.517602 
" clip-path="url(#pa08f287179)" style="fill: none; stroke: #b0b0b0; stroke-width: 0.8; stroke-linecap: square"/>
     </g>
     <g id="line2d_20">
      <g>
       <use xlink:href="#m0e53a481f3" x="57.6" y="263.517602" style="stroke: #000000; stroke-width: 0.8"/>
      </g>
     </g>
     <g id="text_11">
      <!-- 0.025 -->
      <g transform="translate(21.971875 267.316821) scale(0.1 -0.1)">
       <use xlink:href="#DejaVuSans-30"/>
       <use xlink:href="#DejaVuSans-2e" x="63.623047"/>
       <use xlink:href="#DejaVuSans-30" x="95.410156"/>
       <use xlink:href="#DejaVuSans-32" x="159.033203"/>
       <use xlink:href="#DejaVuSans-35" x="222.65625"/>
      </g>
     </g>
    </g>
    <g id="ytick_3">
     <g id="line2d_21">
      <path d="M 57.6 231.547204 
L 414.72 231.547204 
" clip-path="url(#pa08f287179)" style="fill: none; stroke: #b0b0b0; stroke-width: 0.8; stroke-linecap: square"/>
     </g>
     <g id="line2d_22">
      <g>
       <use xlink:href="#m0e53a481f3" x="57.6" y="231.547204" style="stroke: #000000; stroke-width: 0.8"/>
      </g>
     </g>
     <g id="text_12">
      <!-- 0.050 -->
      <g transform="translate(21.971875 235.346423) scale(0.1 -0.1)">
       <use xlink:href="#DejaVuSans-30"/>
       <use xlink:href="#DejaVuSans-2e" x="63.623047"/>
       <use xlink:href="#DejaVuSans-30" x="95.410156"/>
       <use xlink:href="#DejaVuSans-35" x="159.033203"/>
       <use xlink:href="#DejaVuSans-30" x="222.65625"/>
      </g>
     </g>
    </g>
    <g id="ytick_4">
     <g id="line2d_23">
      <path d="M 57.6 199.576807 
L 414.72 199.576807 
" clip-path="url(#pa08f287179)" style="fill: none; stroke: #b0b0b0; stroke-width: 0.8; stroke-linecap: square"/>
     </g>
     <g id="line2d_24">
      <g>
       <use xlink:href="#m0e53a481f3" x="57.6" y="199.576807" style="stroke: #000000; stroke-width: 0.8"/>
      </g>
     </g>
     <g id="text_13">
      <!-- 0.075 -->
      <g transform="translate(21.971875 203.376025) scale(0.1 -0.1)">
       <defs>
        <path id="DejaVuSans-37" d="M 525 4666 
L 3525 4666 
L 3525 4397 
L 1831 0 
L 1172 0 
L 2766 4134 
L 525 4134 
L 525 4666 
z
" transform="scale(0.015625)"/>
       </defs>
       <use xlink:href="#DejaVuSans-30"/>
       <use xlink:href="#DejaVuSans-2e" x="63.623047"/>
       <use xlink:href="#DejaVuSans-30" x="95.410156"/>
       <use xlink:href="#DejaVuSans-37" x="159.033203"/>
       <use xlink:href="#DejaVuSans-35" x="222.65625"/>
      </g>
     </g>
    </g>
    <g id="ytick_5">
     <g id="line2d_25">
      <path d="M 57.6 167.606409 
L 414.72 167.606409 
" clip-path="url(#pa08f287179)" style="fill: none; stroke: #b0b0b0; stroke-width: 0.8; stroke-linecap: square"/>
     </g>
     <g id="line2d_26">
      <g>
       <use xlink:href="#m0e53a481f3" x="57.6" y="167.606409" style="stroke: #000000; stroke-width: 0.8"/>
      </g>
     </g>
     <g id="text_14">
      <!-- 0.100 -->
      <g transform="translate(21.971875 171.405628) scale(0.1 -0.1)">
       <use xlink:href="#DejaVuSans-30"/>
       <use xlink:href="#DejaVuSans-2e" x="63.623047"/>
       <use xlink:href="#DejaVuSans-31" x="95.410156"/>
       <use xlink:href="#DejaVuSans-30" x="159.033203"/>
       <use xlink:href="#DejaVuSans-30" x="222.65625"/>
      </g>
     </g>
    </g>
    <g id="ytick_6">
     <g id="line2d_27">
      <path d="M 57.6 135.636011 
L 414.72 135.636011 
" clip-path="url(#pa08f287179)" style="fill: none; stroke: #b0b0b0; stroke-width: 0.8; stroke-linecap: square"/>
     </g>
     <g id="line2d_28">
      <g>
       <use xlink:href="#m0e53a481f3" x="57.6" y="135.636011" style="stroke: #000000; stroke-width: 0.8"/>
      </g>
     </g>
     <g id="text_15">
      <!-- 0.125 -->
      <g transform="translate(21.971875 139.43523) scale(0.1 -0.1)">
       <use xlink:href="#DejaVuSans-30"/>
       <use xlink:href="#DejaVuSans-2e" x="63.623047"/>
       <use xlink:href="#DejaVuSans-31" x="95.410156"/>
       <use xlink:href="#DejaVuSans-32" x="159.033203"/>
       <use xlink:href="#DejaVuSans-35" x="222.65625"/>
      </g>
     </g>
    </g>
    <g id="ytick_7">
     <g id="line2d_29">
      <path d="M 57.6 103.665613 
L 414.72 103.665613 
" clip-path="url(#pa08f287179)" style="fill: none; stroke: #b0b0b0; stroke-width: 0.8; stroke-linecap: square"/>
     </g>
     <g id="line2d_30">
      <g>
       <use xlink:href="#m0e53a481f3" x="57.6" y="103.665613" style="stroke: #000000; stroke-width: 0.8"/>
      </g>
     </g>
     <g id="text_16">
      <!-- 0.150 -->
      <g transform="translate(21.971875 107.464832) scale(0.1 -0.1)">
       <use xlink:href="#DejaVuSans-30"/>
       <use xlink:href="#DejaVuSans-2e" x="63.623047"/>
       <use xlink:href="#DejaVuSans-31" x="95.410156"/>
       <use xlink:href="#DejaVuSans-35" x="159.033203"/>
       <use xlink:href="#DejaVuSans-30" x="222.65625"/>
      </g>
     </g>
    </g>
    <g id="ytick_8">
     <g id="line2d_31">
      <path d="M 57.6 71.695216 
L 414.72 71.695216 
" clip-path="url(#pa08f287179)" style="fill: none; stroke: #b0b0b0; stroke-width: 0.8; stroke-linecap: square"/>
     </g>
     <g id="line2d_32">
      <g>
       <use xlink:href="#m0e53a481f3" x="57.6" y="71.695216" style="stroke: #000000; stroke-width: 0.8"/>
      </g>
     </g>
     <g id="text_17">
      <!-- 0.175 -->
      <g transform="translate(21.971875 75.494434) scale(0.1 -0.1)">
       <use xlink:href="#DejaVuSans-30"/>
       <use xlink:href="#DejaVuSans-2e" x="63.623047"/>
       <use xlink:href="#DejaVuSans-31" x="95.410156"/>
       <use xlink:href="#DejaVuSans-37" x="159.033203"/>
       <use xlink:href="#DejaVuSans-35" x="222.65625"/>
      </g>
     </g>
    </g>
    <g id="text_18">
     <!-- Tracking error(m) -->
     <g transform="translate(15.892187 217.803781) rotate(-90) scale(0.1 -0.1)">
      <defs>
       <path id="DejaVuSans-72" d="M 2631 2963 
Q 2534 3019 2420 3045 
Q 2306 3072 2169 3072 
Q 1681 3072 1420 2755 
Q 1159 2438 1159 1844 
L 1159 0 
L 581 0 
L 581 3500 
L 1159 3500 
L 1159 2956 
Q 1341 3275 1631 3429 
Q 1922 3584 2338 3584 
Q 2397 3584 2469 3576 
Q 2541 3569 2628 3553 
L 2631 2963 
z
" transform="scale(0.015625)"/>
       <path id="DejaVuSans-61" d="M 2194 1759 
Q 1497 1759 1228 1600 
Q 959 1441 959 1056 
Q 959 750 1161 570 
Q 1363 391 1709 391 
Q 2188 391 2477 730 
Q 2766 1069 2766 1631 
L 2766 1759 
L 2194 1759 
z
M 3341 1997 
L 3341 0 
L 2766 0 
L 2766 531 
Q 2569 213 2275 61 
Q 1981 -91 1556 -91 
Q 1019 -91 701 211 
Q 384 513 384 1019 
Q 384 1609 779 1909 
Q 1175 2209 1959 2209 
L 2766 2209 
L 2766 2266 
Q 2766 2663 2505 2880 
Q 2244 3097 1772 3097 
Q 1472 3097 1187 3025 
Q 903 2953 641 2809 
L 641 3341 
Q 956 3463 1253 3523 
Q 1550 3584 1831 3584 
Q 2591 3584 2966 3190 
Q 3341 2797 3341 1997 
z
" transform="scale(0.015625)"/>
       <path id="DejaVuSans-63" d="M 3122 3366 
L 3122 2828 
Q 2878 2963 2633 3030 
Q 2388 3097 2138 3097 
Q 1578 3097 1268 2742 
Q 959 2388 959 1747 
Q 959 1106 1268 751 
Q 1578 397 2138 397 
Q 2388 397 2633 464 
Q 2878 531 3122 666 
L 3122 134 
Q 2881 22 2623 -34 
Q 2366 -91 2075 -91 
Q 1284 -91 818 406 
Q 353 903 353 1747 
Q 353 2603 823 3093 
Q 1294 3584 2113 3584 
Q 2378 3584 2631 3529 
Q 2884 3475 3122 3366 
z
" transform="scale(0.015625)"/>
       <path id="DejaVuSans-6b" d="M 581 4863 
L 1159 4863 
L 1159 1991 
L 2875 3500 
L 3609 3500 
L 1753 1863 
L 3688 0 
L 2938 0 
L 1159 1709 
L 1159 0 
L 581 0 
L 581 4863 
z
" transform="scale(0.015625)"/>
       <path id="DejaVuSans-6e" d="M 3513 2113 
L 3513 0 
L 2938 0 
L 2938 2094 
Q 2938 2591 2744 2837 
Q 2550 3084 2163 3084 
Q 1697 3084 1428 2787 
Q 1159 2491 1159 1978 
L 1159 0 
L 581 0 
L 581 3500 
L 1159 3500 
L 1159 2956 
Q 1366 3272 1645 3428 
Q 1925 3584 2291 3584 
Q 2894 3584 3203 3211 
Q 3513 2838 3513 2113 
z
" transform="scale(0.015625)"/>
       <path id="DejaVuSans-67" d="M 2906 1791 
Q 2906 2416 2648 2759 
Q 2391 3103 1925 3103 
Q 1463 3103 1205 2759 
Q 947 2416 947 1791 
Q 947 1169 1205 825 
Q 1463 481 1925 481 
Q 2391 481 2648 825 
Q 2906 1169 2906 1791 
z
M 3481 434 
Q 3481 -459 3084 -895 
Q 2688 -1331 1869 -1331 
Q 1566 -1331 1297 -1286 
Q 1028 -1241 775 -1147 
L 775 -588 
Q 1028 -725 1275 -790 
Q 1522 -856 1778 -856 
Q 2344 -856 2625 -561 
Q 2906 -266 2906 331 
L 2906 616 
Q 2728 306 2450 153 
Q 2172 0 1784 0 
Q 1141 0 747 490 
Q 353 981 353 1791 
Q 353 2603 747 3093 
Q 1141 3584 1784 3584 
Q 2172 3584 2450 3431 
Q 2728 3278 2906 2969 
L 2906 3500 
L 3481 3500 
L 3481 434 
z
" transform="scale(0.015625)"/>
       <path id="DejaVuSans-20" transform="scale(0.015625)"/>
       <path id="DejaVuSans-6f" d="M 1959 3097 
Q 1497 3097 1228 2736 
Q 959 2375 959 1747 
Q 959 1119 1226 758 
Q 1494 397 1959 397 
Q 2419 397 2687 759 
Q 2956 1122 2956 1747 
Q 2956 2369 2687 2733 
Q 2419 3097 1959 3097 
z
M 1959 3584 
Q 2709 3584 3137 3096 
Q 3566 2609 3566 1747 
Q 3566 888 3137 398 
Q 2709 -91 1959 -91 
Q 1206 -91 779 398 
Q 353 888 353 1747 
Q 353 2609 779 3096 
Q 1206 3584 1959 3584 
z
" transform="scale(0.015625)"/>
      </defs>
      <use xlink:href="#DejaVuSans-54"/>
      <use xlink:href="#DejaVuSans-72" x="46.333984"/>
      <use xlink:href="#DejaVuSans-61" x="87.447266"/>
      <use xlink:href="#DejaVuSans-63" x="148.726562"/>
      <use xlink:href="#DejaVuSans-6b" x="203.707031"/>
      <use xlink:href="#DejaVuSans-69" x="261.617188"/>
      <use xlink:href="#DejaVuSans-6e" x="289.400391"/>
      <use xlink:href="#DejaVuSans-67" x="352.779297"/>
      <use xlink:href="#DejaVuSans-20" x="416.255859"/>
      <use xlink:href="#DejaVuSans-65" x="448.042969"/>
      <use xlink:href="#DejaVuSans-72" x="509.566406"/>
      <use xlink:href="#DejaVuSans-72" x="548.929688"/>
      <use xlink:href="#DejaVuSans-6f" x="587.792969"/>
      <use xlink:href="#DejaVuSans-72" x="648.974609"/>
      <use xlink:href="#DejaVuSans-28" x="690.087891"/>
      <use xlink:href="#DejaVuSans-6d" x="729.101562"/>
      <use xlink:href="#DejaVuSans-29" x="826.513672"/>
     </g>
    </g>
   </g>
   <g id="line2d_33">
    <path d="M 73.832727 238.541049 
L 74.009458 236.718736 
L 74.009458 236.718736 
L 74.186189 245.936441 
L 74.186189 245.936441 
L 74.716381 255.177165 
L 74.716381 255.177165 
L 75.423305 269.950046 
L 75.423305 269.950046 
L 75.953497 277.658749 
L 75.953497 277.658749 
L 76.306959 281.311047 
L 76.306959 281.311047 
L 76.48369 295.488 
L 76.48369 295.488 
L 76.660421 284.346956 
L 76.660421 284.346956 
L 77.190613 289.239705 
L 77.190613 289.239705 
L 77.367344 295.488 
L 77.367344 295.488 
L 77.544075 292.608107 
L 77.544075 292.608107 
L 77.897536 295.245025 
L 77.897536 295.245025 
L 78.074267 293.938075 
L 78.074267 293.938075 
L 78.250998 295.488 
L 78.250998 295.488 
L 78.427729 292.317815 
L 78.427729 292.317815 
L 78.781191 291.865115 
L 78.781191 291.865115 
L 78.957922 291.88046 
L 78.957922 291.88046 
L 79.134652 295.488 
L 79.134652 295.488 
L 79.311383 292.17203 
L 79.311383 292.17203 
L 79.488114 292.257711 
L 79.488114 292.257711 
L 79.841576 291.975093 
L 79.841576 291.975093 
L 80.018307 295.488 
L 80.018307 295.488 
L 80.195037 291.585054 
L 80.195037 291.585054 
L 80.72523 291.182227 
L 80.72523 291.182227 
L 80.901961 295.488 
L 80.901961 295.488 
L 81.078692 289.939218 
L 81.078692 289.939218 
L 81.432153 289.189832 
L 81.432153 289.189832 
L 81.608884 289.069623 
L 81.608884 289.069623 
L 81.785615 295.488 
L 81.785615 295.488 
L 81.962346 289.61312 
L 81.962346 289.61312 
L 82.492538 291.564593 
L 82.492538 291.564593 
L 82.669269 295.488 
L 82.669269 295.488 
L 82.846 292.86387 
L 82.846 292.86387 
L 83.022731 293.279485 
L 83.022731 293.279485 
L 83.199462 293.352377 
L 83.199462 293.352377 
L 83.376192 293.244957 
L 83.376192 293.244957 
L 83.552923 295.488 
L 83.552923 295.488 
L 83.729654 292.733431 
L 83.729654 292.733431 
L 84.259847 291.553083 
L 84.259847 291.553083 
L 84.436577 295.488 
L 84.436577 295.488 
L 84.613308 291.531344 
L 84.613308 291.531344 
L 84.96677 292.707854 
L 84.96677 292.707854 
L 85.143501 293.559546 
L 85.143501 293.559546 
L 85.320232 295.488 
L 85.320232 295.488 
L 85.496962 295.445799 
L 85.496962 295.445799 
L 85.850424 293.842164 
L 85.850424 293.842164 
L 86.027155 293.408645 
L 86.027155 293.408645 
L 86.203886 295.488 
L 86.203886 295.488 
L 86.380617 293.108124 
L 86.380617 293.108124 
L 86.557347 293.173343 
L 86.557347 293.173343 
L 86.910809 293.880528 
L 86.910809 293.880528 
L 87.08754 295.488 
L 87.08754 295.488 
L 87.264271 294.449601 
L 87.264271 294.449601 
L 87.617732 294.493081 
L 87.617732 294.493081 
L 87.794463 293.991785 
L 87.794463 293.991785 
L 87.971194 295.488 
L 87.971194 295.488 
L 88.147925 292.477667 
L 88.147925 292.477667 
L 88.501387 291.110613 
L 88.501387 291.110613 
L 88.678117 290.553049 
L 88.678117 290.553049 
L 88.854848 295.488 
L 88.854848 295.488 
L 89.031579 290.20649 
L 89.20831 290.266595 
L 89.20831 290.266595 
L 89.561772 291.359982 
L 89.561772 291.359982 
L 89.738502 295.488 
L 89.738502 295.488 
L 89.915233 292.756449 
L 89.915233 292.756449 
L 90.622157 295.488 
L 90.622157 295.488 
L 90.975618 294.728383 
L 90.975618 294.728383 
L 91.32908 293.278206 
L 91.32908 293.278206 
L 91.505811 295.488 
L 91.505811 295.488 
L 91.859273 289.650205 
L 91.859273 289.650205 
L 92.389465 281.790603 
L 92.389465 281.790603 
L 93.44985 263.570034 
L 93.44985 263.570034 
L 93.980043 259.741259 
L 93.980043 259.741259 
L 94.156773 259.205435 
L 94.156773 259.205435 
L 94.686966 262.250296 
L 94.686966 262.250296 
L 95.57062 273.525616 
L 95.57062 273.525616 
L 95.924082 276.268676 
L 95.924082 276.268676 
L 96.100813 276.304483 
L 96.100813 276.304483 
L 96.454274 272.994907 
L 96.454274 272.994907 
L 96.807736 263.484353 
L 96.807736 263.484353 
L 96.984467 258.871664 
L 96.984467 258.871664 
L 98.044852 215.079892 
L 98.044852 215.079892 
L 98.221583 213.670637 
L 98.221583 213.670637 
L 98.398313 209.637251 
L 98.398313 209.637251 
L 98.575044 210.501731 
L 98.575044 210.501731 
L 98.751775 209.341845 
L 98.751775 209.341845 
L 98.928506 207.432573 
L 99.105237 214.161702 
L 99.105237 214.161702 
L 99.281968 214.593942 
L 99.281968 214.593942 
L 99.458698 221.824367 
L 99.458698 221.824367 
L 99.635429 223.344879 
L 99.635429 223.344879 
L 99.81216 230.121325 
L 99.81216 230.121325 
L 99.988891 231.950031 
L 99.988891 231.950031 
L 100.165622 237.65355 
L 100.165622 237.65355 
L 100.342353 239.5219 
L 100.342353 239.5219 
L 100.519083 238.859474 
L 100.519083 238.859474 
L 100.695814 246.696058 
L 100.695814 246.696058 
L 100.872545 246.458198 
L 100.872545 246.458198 
L 101.049276 253.343343 
L 101.049276 253.343343 
L 101.226007 253.632355 
L 101.402738 259.605704 
L 101.402738 259.605704 
L 101.579469 260.278362 
L 101.579469 260.278362 
L 101.756199 264.874426 
L 101.756199 264.874426 
L 101.93293 265.3348 
L 101.93293 265.3348 
L 102.109661 267.244072 
L 102.286392 265.75553 
L 102.286392 265.75553 
L 102.463123 260.216978 
L 102.463123 260.216978 
L 102.639854 260.255343 
L 102.639854 260.255343 
L 102.816584 251.214114 
L 102.816584 251.214114 
L 102.993315 251.101579 
L 102.993315 251.101579 
L 103.170046 241.891546 
L 103.170046 241.891546 
L 103.346777 243.149901 
L 103.346777 243.149901 
L 103.523508 236.7149 
L 103.523508 236.7149 
L 103.700239 239.656176 
L 103.700239 239.656176 
L 103.876969 236.690602 
L 103.876969 236.690602 
L 104.0537 240.95929 
L 104.0537 240.95929 
L 104.230431 241.209937 
L 104.230431 241.209937 
L 104.407162 239.459238 
L 104.407162 239.459238 
L 104.583893 250.043998 
L 104.583893 250.043998 
L 104.760624 251.455811 
L 104.760624 251.455811 
L 104.937354 262.485598 
L 104.937354 262.485598 
L 105.114085 266.105926 
L 105.114085 266.105926 
L 105.644278 294.714316 
L 105.644278 294.714316 
L 105.997739 281.336623 
L 105.997739 281.336623 
L 106.881394 221.911327 
L 106.881394 221.911327 
L 107.941779 154.112343 
L 107.941779 154.112343 
L 108.118509 145.016126 
L 108.118509 145.016126 
L 108.29524 142.66822 
L 108.29524 142.66822 
L 108.648702 135.720413 
L 108.648702 135.720413 
L 109.002164 146.04813 
L 109.002164 146.04813 
L 109.178894 150.943438 
L 109.178894 150.943438 
L 109.885818 205.202318 
L 109.885818 205.202318 
L 110.592741 244.767603 
L 110.592741 244.767603 
L 110.946203 258.76808 
L 110.946203 258.76808 
L 111.122934 262.068704 
L 111.122934 262.068704 
L 111.476395 272.226339 
L 111.476395 272.226339 
L 111.653126 273.805676 
L 111.653126 273.805676 
L 111.829857 280.460634 
L 111.829857 280.460634 
L 112.006588 282.450472 
L 112.006588 282.450472 
L 112.183319 283.148705 
L 112.183319 283.148705 
L 112.360049 289.706473 
L 112.360049 289.706473 
L 112.53678 290.936694 
L 112.53678 290.936694 
L 112.713511 295.090288 
L 112.713511 295.090288 
L 113.066973 291.514719 
L 113.066973 291.514719 
L 113.420435 282.669149 
L 113.420435 282.669149 
L 113.597165 280.415876 
L 113.597165 280.415876 
L 113.950627 269.189151 
L 113.950627 269.189151 
L 114.127358 265.70182 
L 114.127358 265.70182 
L 114.48082 251.18598 
L 114.48082 251.18598 
L 114.65755 245.557912 
L 114.65755 245.557912 
L 116.248128 156.378405 
L 116.248128 156.378405 
L 116.77832 130.037355 
L 116.77832 130.037355 
L 117.308513 114.868041 
L 117.308513 114.868041 
L 117.485244 114.301525 
L 117.485244 114.301525 
L 117.661975 112.311688 
L 117.661975 112.311688 
L 117.838705 113.03294 
L 117.838705 113.03294 
L 118.015436 113.071304 
L 118.015436 113.071304 
L 118.192167 112.856463 
L 118.192167 112.856463 
L 118.545629 119.007568 
L 118.545629 119.007568 
L 118.72236 119.928315 
L 118.72236 119.928315 
L 119.782745 170.531061 
L 119.782745 170.531061 
L 120.136206 199.686785 
L 120.136206 199.686785 
L 121.196591 295.488 
L 121.196591 295.488 
L 121.726784 252.458402 
L 121.726784 252.458402 
L 122.080245 234.925836 
L 122.080245 234.925836 
L 122.256976 232.866942 
L 122.256976 232.866942 
L 122.433707 225.605826 
L 122.433707 225.605826 
L 122.610438 226.454959 
L 122.610438 226.454959 
L 122.787169 223.069934 
L 122.787169 223.069934 
L 122.9639 225.443416 
L 122.9639 225.443416 
L 123.14063 224.637762 
L 123.14063 224.637762 
L 123.317361 227.071349 
L 123.317361 227.071349 
L 123.494092 231.548483 
L 123.494092 231.548483 
L 123.670823 229.625144 
L 123.670823 229.625144 
L 123.847554 233.178974 
L 123.847554 233.178974 
L 124.024285 231.764603 
L 124.024285 231.764603 
L 124.201015 234.077981 
L 124.201015 234.077981 
L 124.377746 238.099857 
L 124.377746 238.099857 
L 124.554477 234.795397 
L 124.554477 234.795397 
L 124.731208 237.745625 
L 124.731208 237.745625 
L 124.907939 235.390046 
L 124.907939 235.390046 
L 125.08467 237.711097 
L 125.08467 237.711097 
L 125.261401 236.815926 
L 125.261401 236.815926 
L 125.438131 239.350539 
L 125.438131 239.350539 
L 125.614862 243.784194 
L 125.614862 243.784194 
L 125.791593 243.225351 
L 125.791593 243.225351 
L 125.968324 248.155187 
L 125.968324 248.155187 
L 126.145055 249.515847 
L 126.145055 249.515847 
L 126.851978 269.045923 
L 126.851978 269.045923 
L 127.028709 270.382286 
L 127.028709 270.382286 
L 127.382171 281.759911 
L 127.382171 281.759911 
L 127.558901 280.756041 
L 127.558901 280.756041 
L 127.735632 284.522154 
L 127.735632 284.522154 
L 127.912363 282.793194 
L 127.912363 282.793194 
L 128.265825 286.614296 
L 128.265825 286.614296 
L 128.442556 282.288062 
L 128.442556 282.288062 
L 128.619286 282.950489 
L 128.619286 282.950489 
L 128.796017 279.293075 
L 128.796017 279.293075 
L 128.972748 278.998948 
L 128.972748 278.998948 
L 129.149479 279.878773 
L 129.32621 274.983466 
L 129.32621 274.983466 
L 129.502941 275.226441 
L 129.679671 271.94372 
L 129.679671 271.94372 
L 129.856402 272.135543 
L 129.856402 272.135543 
L 130.033133 273.831253 
L 130.033133 273.831253 
L 130.209864 270.232665 
L 130.386595 271.405339 
L 130.386595 271.405339 
L 130.563326 269.260764 
L 130.563326 269.260764 
L 130.740056 270.161051 
L 130.740056 270.161051 
L 130.916787 272.443737 
L 130.916787 272.443737 
L 131.093518 269.84902 
L 131.270249 271.315822 
L 131.270249 271.315822 
L 131.44698 269.942373 
L 131.623711 270.833708 
L 131.623711 270.833708 
L 131.800441 272.91562 
L 131.800441 272.91562 
L 131.977172 270.882303 
L 131.977172 270.882303 
L 132.153903 271.988479 
L 132.153903 271.988479 
L 132.330634 274.204667 
L 132.330634 274.204667 
L 132.507365 271.59844 
L 132.684096 273.181614 
L 132.684096 273.181614 
L 132.860826 271.786426 
L 132.860826 271.786426 
L 133.037557 272.447574 
L 133.037557 272.447574 
L 133.214288 273.987268 
L 133.214288 273.987268 
L 133.391019 271.881058 
L 133.391019 271.881058 
L 133.56775 272.653463 
L 133.56775 272.653463 
L 133.744481 274.211061 
L 133.744481 274.211061 
L 133.921211 271.413012 
L 133.921211 271.413012 
L 134.097942 271.819675 
L 134.097942 271.819675 
L 134.274673 272.911784 
L 134.274673 272.911784 
L 134.451404 269.251813 
L 134.451404 269.251813 
L 134.628135 269.084288 
L 134.628135 269.084288 
L 134.804866 269.467933 
L 134.981596 265.068806 
L 134.981596 265.068806 
L 135.158327 264.522752 
L 135.158327 264.522752 
L 135.511789 259.592916 
L 135.511789 259.592916 
L 135.68852 258.307706 
L 135.68852 258.307706 
L 136.041981 251.63996 
L 136.041981 251.63996 
L 136.218712 249.380292 
L 136.218712 249.380292 
L 136.572174 240.810947 
L 136.572174 240.810947 
L 136.748905 237.864555 
L 136.748905 237.864555 
L 137.102367 229.279864 
L 137.102367 229.279864 
L 137.455828 223.931856 
L 137.455828 223.931856 
L 137.80929 215.026182 
L 137.80929 215.026182 
L 137.986021 212.399494 
L 137.986021 212.399494 
L 138.339482 203.59101 
L 138.339482 203.59101 
L 138.516213 200.557658 
L 138.516213 200.557658 
L 139.046406 187.614763 
L 139.046406 187.614763 
L 139.223137 184.007223 
L 139.223137 184.007223 
L 139.93006 162.272468 
L 139.93006 162.272468 
L 141.697368 110.11724 
L 141.697368 110.11724 
L 142.227561 102.679646 
L 142.227561 102.679646 
L 142.404292 102.224388 
L 142.404292 102.224388 
L 142.581022 102.608033 
L 142.581022 102.608033 
L 142.757753 103.835696 
L 142.757753 103.835696 
L 143.287946 110.888366 
L 143.287946 110.888366 
L 143.994869 128.84422 
L 143.994869 128.84422 
L 144.878523 159.713557 
L 144.878523 159.713557 
L 147.529486 262.848781 
L 147.529486 262.848781 
L 148.41314 284.236978 
L 148.41314 284.236978 
L 148.589871 295.488 
L 148.589871 295.488 
L 148.766602 292.136223 
L 148.766602 292.136223 
L 148.943333 294.916369 
L 148.943333 294.916369 
L 149.650256 284.28813 
L 149.650256 284.28813 
L 149.826987 282.744599 
L 149.826987 282.744599 
L 150.180448 282.307244 
L 150.180448 282.307244 
L 150.357179 282.586026 
L 150.357179 282.586026 
L 150.53391 283.462015 
L 150.53391 283.462015 
L 150.710641 284.931375 
L 150.710641 284.931375 
L 151.240833 293.806357 
L 151.240833 293.806357 
L 151.417564 293.810194 
L 151.417564 293.810194 
L 152.301218 277.848013 
L 152.301218 277.848013 
L 152.65468 275.148433 
L 152.65468 275.148433 
L 152.831411 275.117741 
L 152.831411 275.117741 
L 153.008142 275.64845 
L 153.008142 275.64845 
L 153.361603 279.568021 
L 153.361603 279.568021 
L 153.715065 286.551634 
L 153.715065 286.551634 
L 154.068527 295.021232 
L 154.068527 295.021232 
L 154.245258 295.488 
L 154.245258 295.488 
L 154.598719 278.411971 
L 154.598719 278.411971 
L 155.305643 257.354988 
L 155.305643 257.354988 
L 156.189297 242.731728 
L 156.189297 242.731728 
L 156.366028 244.119244 
L 156.366028 244.119244 
L 156.542758 241.764944 
L 156.542758 241.764944 
L 156.719489 243.27011 
L 156.719489 243.27011 
L 156.89622 241.231677 
L 156.89622 241.231677 
L 157.072951 242.566761 
L 157.072951 242.566761 
L 157.249682 240.454157 
L 157.249682 240.454157 
L 157.426413 241.211216 
L 157.426413 241.211216 
L 157.603143 238.616499 
L 157.603143 238.616499 
L 157.779874 238.505242 
L 157.779874 238.505242 
L 157.956605 235.095919 
L 157.956605 235.095919 
L 158.133336 233.957772 
L 158.133336 233.957772 
L 158.663528 222.453544 
L 158.663528 222.453544 
L 158.840259 219.716878 
L 158.840259 219.716878 
L 159.370452 203.475916 
L 159.370452 203.475916 
L 159.547183 199.833849 
L 159.547183 199.833849 
L 160.077375 180.998169 
L 160.077375 180.998169 
L 160.254106 177.443061 
L 160.254106 177.443061 
L 160.784299 153.691613 
L 160.784299 153.691613 
L 160.961029 150.609667 
L 160.961029 150.609667 
L 161.13776 139.613129 
L 161.13776 139.613129 
L 161.314491 137.812556 
L 161.314491 137.812556 
L 161.491222 126.113948 
L 161.491222 126.113948 
L 161.667953 124.986032 
L 161.667953 124.986032 
L 161.844684 112.678708 
L 161.844684 112.678708 
L 162.021414 112.490722 
L 162.021414 112.490722 
L 162.198145 100.177004 
L 162.198145 100.177004 
L 162.374876 100.689809 
L 162.374876 100.689809 
L 162.551607 88.367139 
L 162.551607 88.367139 
L 162.728338 89.21883 
L 162.728338 89.21883 
L 162.905069 85.860659 
L 162.905069 85.860659 
L 163.25853 74.365383 
L 163.25853 74.365383 
L 163.435261 66.39836 
L 163.435261 66.39836 
L 163.611992 64.431541 
L 163.611992 64.431541 
L 163.788723 57.820063 
L 163.788723 57.820063 
L 163.965454 58.366117 
L 163.965454 58.366117 
L 164.142184 53.568 
L 164.142184 53.568 
L 164.318915 56.510555 
L 164.318915 56.510555 
L 164.495646 53.698439 
L 164.495646 53.698439 
L 164.672377 58.586074 
L 164.672377 58.586074 
L 164.849108 57.325161 
L 164.849108 57.325161 
L 165.025839 64.639988 
L 165.025839 64.639988 
L 165.202569 65.418787 
L 165.202569 65.418787 
L 165.3793 75.575143 
L 165.3793 75.575143 
L 165.556031 78.443527 
L 165.556031 78.443527 
L 165.732762 90.035993 
L 165.732762 90.035993 
L 165.909493 93.395443 
L 166.086224 105.316565 
L 166.086224 105.316565 
L 166.262954 108.702869 
L 166.262954 108.702869 
L 166.439685 120.29022 
L 166.439685 120.29022 
L 166.616416 122.771123 
L 166.616416 122.771123 
L 166.793147 133.155108 
L 166.793147 133.155108 
L 166.969878 133.96332 
L 166.969878 133.96332 
L 167.146609 143.074883 
L 167.146609 143.074883 
L 167.323339 142.877946 
L 167.323339 142.877946 
L 167.676801 156.645678 
L 167.676801 156.645678 
L 167.853532 158.120152 
L 167.853532 158.120152 
L 168.030263 163.170196 
L 168.030263 163.170196 
L 168.206994 163.98736 
L 168.206994 163.98736 
L 168.383724 169.045077 
L 168.383724 169.045077 
L 168.560455 169.45174 
L 168.560455 169.45174 
L 168.737186 174.760105 
L 168.737186 174.760105 
L 168.913917 174.797191 
L 168.913917 174.797191 
L 169.090648 179.811428 
L 169.090648 179.811428 
L 169.267379 179.30118 
L 169.267379 179.30118 
L 169.444109 184.338436 
L 169.444109 184.338436 
L 169.62084 183.728441 
L 169.62084 183.728441 
L 169.797571 188.975423 
L 169.797571 188.975423 
L 169.974302 188.002244 
L 169.974302 188.002244 
L 170.151033 193.123902 
L 170.151033 193.123902 
L 170.327764 191.869383 
L 170.327764 191.869383 
L 170.504494 196.812007 
L 170.504494 196.812007 
L 170.681225 195.277428 
L 170.681225 195.277428 
L 170.857956 199.957894 
L 170.857956 199.957894 
L 171.034687 198.496207 
L 171.034687 198.496207 
L 171.211418 203.11529 
L 171.211418 203.11529 
L 171.388149 201.839032 
L 171.388149 201.839032 
L 171.564879 206.675514 
L 171.564879 206.675514 
L 171.74161 205.996463 
L 171.74161 205.996463 
L 171.918341 211.091265 
L 171.918341 211.091265 
L 172.095072 211.153927 
L 172.095072 211.153927 
L 172.271803 216.547973 
L 172.448534 217.439307 
L 172.448534 217.439307 
L 172.625265 223.119808 
L 172.625265 223.119808 
L 172.801995 224.864112 
L 173.332188 240.268729 
L 173.332188 240.268729 
L 173.68565 250.735837 
L 173.68565 250.735837 
L 174.392573 270.054909 
L 174.392573 270.054909 
L 174.746035 280.363444 
L 174.746035 280.363444 
L 175.276227 294.555743 
L 175.276227 294.555743 
L 175.452958 295.488 
L 175.452958 295.488 
L 176.159881 282.423617 
L 176.159881 282.423617 
L 176.336612 281.993935 
L 176.336612 281.993935 
L 176.513343 283.147426 
L 176.513343 283.147426 
L 176.690074 279.603828 
L 176.866805 280.846837 
L 176.866805 280.846837 
L 177.043535 278.192015 
L 177.043535 278.192015 
L 177.220266 278.810962 
L 177.220266 278.810962 
L 177.396997 276.86844 
L 177.396997 276.86844 
L 177.573728 276.758462 
L 177.573728 276.758462 
L 177.750459 277.685604 
L 177.92719 274.282675 
L 178.10392 273.97448 
L 178.10392 273.97448 
L 178.280651 274.505189 
L 178.280651 274.505189 
L 178.457382 269.365627 
L 178.634113 268.418025 
L 178.634113 268.418025 
L 178.987575 261.484285 
L 178.987575 261.484285 
L 179.164305 259.77195 
L 179.164305 259.77195 
L 179.517767 250.710261 
L 179.517767 250.710261 
L 179.694498 247.711438 
L 179.694498 247.711438 
L 180.04796 235.856814 
L 180.04796 235.856814 
L 180.22469 231.27098 
L 180.22469 231.27098 
L 180.931614 202.778962 
L 180.931614 202.778962 
L 182.34546 151.125029 
L 182.34546 151.125029 
L 182.698922 146.379344 
L 182.698922 146.379344 
L 182.875653 145.83201 
L 182.875653 145.83201 
L 183.052384 146.527686 
L 183.052384 146.527686 
L 183.229115 148.474044 
L 183.229115 148.474044 
L 183.759307 165.028316 
L 183.759307 165.028316 
L 184.112769 182.431722 
L 184.112769 182.431722 
L 186.056808 281.108994 
L 186.056808 281.108994 
L 186.41027 288.463464 
L 186.41027 288.463464 
L 186.587001 290.535146 
L 186.587001 290.535146 
L 186.763731 291.261513 
L 186.763731 291.261513 
L 186.940462 295.488 
L 186.940462 295.488 
L 187.293924 287.853469 
L 187.293924 287.853469 
L 187.647386 280.319964 
L 187.647386 280.319964 
L 188.354309 256.484115 
L 188.354309 256.484115 
L 189.061232 222.604445 
L 189.061232 222.604445 
L 189.944886 181.109426 
L 189.944886 181.109426 
L 190.121617 169.738195 
L 190.121617 169.738195 
L 190.298348 166.258537 
L 190.298348 166.258537 
L 190.475079 155.566357 
L 190.475079 155.566357 
L 190.65181 155.308036 
L 190.65181 155.308036 
L 190.828541 152.406403 
L 190.828541 152.406403 
L 191.005271 145.920249 
L 191.182002 145.614612 
L 191.182002 145.614612 
L 191.358733 139.584995 
L 191.358733 139.584995 
L 191.535464 142.762852 
L 191.535464 142.762852 
L 191.712195 138.527414 
L 191.712195 138.527414 
L 191.888926 146.691375 
L 191.888926 146.691375 
L 192.065656 143.215553 
L 192.065656 143.215553 
L 192.419118 164.931126 
L 192.419118 164.931126 
L 192.595849 169.112854 
L 192.595849 169.112854 
L 192.77258 182.200256 
L 192.77258 182.200256 
L 192.949311 184.461203 
L 192.949311 184.461203 
L 193.126041 198.213589 
L 193.126041 198.213589 
L 193.302772 196.763412 
L 193.302772 196.763412 
L 193.656234 218.447014 
L 193.656234 218.447014 
L 193.832965 216.339526 
L 193.832965 216.339526 
L 194.009696 222.913918 
L 194.186426 214.758909 
L 194.186426 214.758909 
L 194.363157 219.363925 
L 194.363157 219.363925 
L 194.539888 218.287162 
L 194.539888 218.287162 
L 194.716619 209.7792 
L 194.716619 209.7792 
L 194.89335 209.134677 
L 194.89335 209.134677 
L 195.070081 199.017964 
L 195.070081 199.017964 
L 195.246812 201.282747 
L 195.246812 201.282747 
L 195.423542 190.428158 
L 195.423542 190.428158 
L 195.777004 199.29291 
L 195.777004 199.29291 
L 195.953735 196.955234 
L 195.953735 196.955234 
L 196.130466 204.721483 
L 196.130466 204.721483 
L 196.307197 205.053975 
L 196.307197 205.053975 
L 196.660658 227.131453 
L 196.660658 227.131453 
L 196.837389 232.571536 
L 196.837389 232.571536 
L 197.01412 242.091042 
L 197.01412 242.091042 
L 197.190851 242.97854 
L 197.190851 242.97854 
L 197.367582 250.423806 
L 197.367582 250.423806 
L 197.544312 245.211352 
L 197.544312 245.211352 
L 197.721043 250.434037 
L 197.721043 250.434037 
L 197.897774 250.455777 
L 197.897774 250.455777 
L 198.074505 241.270042 
L 198.074505 241.270042 
L 198.251236 239.80324 
L 198.251236 239.80324 
L 198.427967 225.998422 
L 198.427967 225.998422 
L 198.604697 224.697866 
L 198.604697 224.697866 
L 198.781428 219.986709 
L 198.781428 219.986709 
L 198.958159 208.978661 
L 198.958159 208.978661 
L 199.13489 206.487528 
L 199.13489 206.487528 
L 199.311621 195.013991 
L 199.311621 195.013991 
L 199.488352 195.613756 
L 199.488352 195.613756 
L 199.665082 185.007257 
L 199.665082 185.007257 
L 200.018544 193.105998 
L 200.018544 193.105998 
L 200.195275 190.424321 
L 200.195275 190.424321 
L 200.372006 196.476957 
L 200.372006 196.476957 
L 200.548737 193.278638 
L 200.548737 193.278638 
L 200.725467 200.72902 
L 200.725467 200.72902 
L 200.902198 196.768527 
L 200.902198 196.768527 
L 201.25566 209.635973 
L 201.25566 209.635973 
L 201.432391 208.956921 
L 201.432391 208.956921 
L 201.609122 213.987783 
L 201.609122 213.987783 
L 201.785852 212.982634 
L 201.785852 212.982634 
L 201.962583 218.709172 
L 201.962583 218.709172 
L 202.139314 218.322969 
L 202.139314 218.322969 
L 202.316045 224.889689 
L 202.316045 224.889689 
L 202.492776 226.038065 
L 202.492776 226.038065 
L 203.199699 250.701309 
L 203.199699 250.701309 
L 204.083353 274.578081 
L 204.083353 274.578081 
L 204.613546 283.642328 
L 204.613546 283.642328 
L 205.320469 291.907315 
L 205.320469 291.907315 
L 205.4972 295.488 
L 205.4972 295.488 
L 205.673931 295.380579 
L 205.673931 295.380579 
L 205.850662 295.488 
L 205.850662 295.488 
L 206.204123 290.914954 
L 206.204123 290.914954 
L 206.380854 290.362506 
L 206.380854 290.362506 
L 206.734316 288.419984 
L 206.734316 288.419984 
L 207.087778 286.402013 
L 207.087778 286.402013 
L 207.264508 285.795854 
L 207.264508 285.795854 
L 208.324893 274.735375 
L 208.324893 274.735375 
L 208.678355 269.607324 
L 208.678355 269.607324 
L 209.208548 263.21708 
L 209.208548 263.21708 
L 209.73874 256.601766 
L 209.73874 256.601766 
L 210.268933 248.992811 
L 210.268933 248.992811 
L 211.85951 224.021373 
L 211.85951 224.021373 
L 212.212972 221.898538 
L 212.212972 221.898538 
L 212.389703 221.555816 
L 212.389703 221.555816 
L 212.566433 221.6594 
L 212.566433 221.6594 
L 212.743164 221.150431 
L 212.743164 221.150431 
L 213.096626 222.499582 
L 213.096626 222.499582 
L 213.450088 223.949759 
L 213.450088 223.949759 
L 214.157011 228.384693 
L 214.157011 228.384693 
L 214.333742 228.417942 
L 214.333742 228.417942 
L 214.687203 229.487032 
L 214.687203 229.487032 
L 215.040665 230.079124 
L 215.040665 230.079124 
L 215.217396 229.217202 
L 215.217396 229.217202 
L 215.394127 229.421812 
L 215.394127 229.421812 
L 215.747588 230.737714 
L 215.747588 230.737714 
L 215.924319 231.745421 
L 215.924319 231.745421 
L 216.10105 231.311902 
L 216.454512 234.23016 
L 216.454512 234.23016 
L 217.161435 244.658904 
L 217.161435 244.658904 
L 218.22182 269.753109 
L 218.22182 269.753109 
L 218.575282 276.906805 
L 218.575282 276.906805 
L 218.928744 283.16533 
L 218.928744 283.16533 
L 219.105474 284.318822 
L 219.105474 284.318822 
L 219.635667 289.458383 
L 219.635667 289.458383 
L 219.812398 295.488 
L 219.812398 295.488 
L 219.989129 294.568531 
L 219.989129 294.568531 
L 220.165859 295.376743 
L 220.165859 295.376743 
L 220.696052 284.864876 
L 220.696052 284.864876 
L 222.109899 242.808457 
L 222.109899 242.808457 
L 222.286629 240.749564 
L 222.286629 240.749564 
L 222.46336 236.787792 
L 222.46336 236.787792 
L 222.640091 235.764739 
L 222.640091 235.764739 
L 222.816822 233.537042 
L 222.816822 233.537042 
L 222.993553 229.713382 
L 222.993553 229.713382 
L 223.170284 232.267178 
L 223.170284 232.267178 
L 223.347014 229.274749 
L 223.347014 229.274749 
L 223.523745 231.979444 
L 223.523745 231.979444 
L 223.700476 229.504935 
L 223.700476 229.504935 
L 223.877207 231.902715 
L 223.877207 231.902715 
L 224.053938 229.681412 
L 224.053938 229.681412 
L 224.230669 231.503725 
L 224.230669 231.503725 
L 224.407399 229.382169 
L 224.407399 229.382169 
L 224.58413 224.449776 
L 224.58413 224.449776 
L 224.760861 228.792635 
L 224.760861 228.792635 
L 224.937592 224.199128 
L 224.937592 224.199128 
L 225.114323 227.521492 
L 225.114323 227.521492 
L 225.291054 222.543062 
L 225.291054 222.543062 
L 225.467784 225.265661 
L 225.467784 225.265661 
L 225.644515 220.738652 
L 225.644515 220.738652 
L 225.821246 223.003435 
L 225.821246 223.003435 
L 225.997977 219.0455 
L 225.997977 219.0455 
L 226.174708 220.962445 
L 226.174708 220.962445 
L 226.351439 217.75006 
L 226.351439 217.75006 
L 226.528169 219.647822 
L 226.528169 219.647822 
L 226.7049 217.352348 
L 226.7049 217.352348 
L 226.881631 219.140132 
L 226.881631 219.140132 
L 227.058362 217.785866 
L 227.058362 217.785866 
L 227.235093 213.884199 
L 227.235093 213.884199 
L 227.411824 219.20791 
L 227.411824 219.20791 
L 227.588554 215.906007 
L 227.588554 215.906007 
L 227.765285 221.581392 
L 227.765285 221.581392 
L 227.942016 219.339628 
L 227.942016 219.339628 
L 228.118747 225.920414 
L 228.118747 225.920414 
L 228.295478 225.801485 
L 228.295478 225.801485 
L 228.472209 232.887404 
L 228.472209 232.887404 
L 228.648939 234.517894 
L 228.648939 234.517894 
L 229.002401 244.119244 
L 229.002401 244.119244 
L 229.355863 253.005735 
L 229.355863 253.005735 
L 229.532594 253.122108 
L 229.532594 253.122108 
L 229.709324 260.792446 
L 229.709324 260.792446 
L 229.886055 261.250262 
L 229.886055 261.250262 
L 230.062786 268.310604 
L 230.062786 268.310604 
L 230.239517 269.325984 
L 230.239517 269.325984 
L 230.416248 275.876079 
L 230.416248 275.876079 
L 230.592979 278.039836 
L 230.592979 278.039836 
L 231.123171 295.190036 
L 231.123171 295.190036 
L 231.299902 295.488 
L 231.299902 295.488 
L 232.006825 258.465001 
L 232.006825 258.465001 
L 233.06721 204.322493 
L 233.06721 204.322493 
L 233.420672 189.547053 
L 233.420672 189.547053 
L 233.774134 180.925277 
L 233.774134 180.925277 
L 233.950865 179.143886 
L 233.950865 179.143886 
L 234.127595 178.957179 
L 234.127595 178.957179 
L 234.304326 180.767982 
L 234.304326 180.767982 
L 235.01125 225.71964 
L 235.01125 225.71964 
L 235.718173 289.237148 
L 235.718173 289.237148 
L 235.894904 286.573374 
L 235.894904 286.573374 
L 236.601827 238.818552 
L 236.601827 238.818552 
L 237.13202 217.542891 
L 237.13202 217.542891 
L 237.662212 205.963213 
L 237.662212 205.963213 
L 238.369135 198.745576 
L 238.369135 198.745576 
L 238.545866 198.318452 
L 238.545866 198.318452 
L 238.899328 195.648284 
L 238.899328 195.648284 
L 239.42952 193.031827 
L 239.42952 193.031827 
L 239.782982 188.770812 
L 239.782982 188.770812 
L 240.136444 186.646699 
L 240.136444 186.646699 
L 240.313175 186.329553 
L 240.313175 186.329553 
L 240.489905 185.768152 
L 240.489905 185.768152 
L 240.666636 187.118582 
L 240.666636 187.118582 
L 241.020098 192.788852 
L 241.020098 192.788852 
L 241.903752 211.801008 
L 241.903752 211.801008 
L 242.257214 216.805015 
L 242.257214 216.805015 
L 243.847791 246.092457 
L 243.847791 246.092457 
L 244.554715 262.402475 
L 244.554715 262.402475 
L 244.908176 269.166132 
L 244.908176 269.166132 
L 245.438369 280.566776 
L 245.438369 280.566776 
L 245.6151 281.321277 
L 245.6151 281.321277 
L 245.968561 287.632234 
L 245.968561 287.632234 
L 246.145292 288.30617 
L 246.145292 288.30617 
L 246.675485 294.693855 
L 246.675485 294.693855 
L 246.852216 295.488 
L 246.852216 295.488 
L 247.028946 289.952006 
L 247.028946 289.952006 
L 247.205677 288.253738 
L 247.205677 288.253738 
L 247.912601 271.178988 
L 247.912601 271.178988 
L 248.442793 254.147718 
L 248.442793 254.147718 
L 248.796255 243.084682 
L 248.796255 243.084682 
L 249.149716 232.760801 
L 249.149716 232.760801 
L 249.503178 220.48161 
L 249.503178 220.48161 
L 249.679909 220.453476 
L 249.679909 220.453476 
L 250.033371 213.46219 
L 250.033371 213.46219 
L 250.210101 217.784588 
L 250.210101 217.784588 
L 250.386832 217.604275 
L 250.386832 217.604275 
L 250.563563 217.170756 
L 250.563563 217.170756 
L 250.740294 224.76948 
L 250.740294 224.76948 
L 250.917025 227.077743 
L 250.917025 227.077743 
L 251.270486 238.839013 
L 251.270486 238.839013 
L 251.447217 242.874956 
L 251.447217 242.874956 
L 251.800679 257.216876 
L 251.800679 257.216876 
L 251.97741 261.797595 
L 251.97741 261.797595 
L 252.330871 276.579428 
L 252.330871 276.579428 
L 252.507602 280.816145 
L 252.507602 280.816145 
L 252.861064 294.151637 
L 252.861064 294.151637 
L 254.981834 244.941522 
L 254.981834 244.941522 
L 255.335296 234.725062 
L 255.335296 234.725062 
L 255.512027 231.760767 
L 255.512027 231.760767 
L 255.865488 222.94461 
L 255.865488 222.94461 
L 256.042219 220.679827 
L 256.042219 220.679827 
L 256.395681 213.228167 
L 256.395681 213.228167 
L 256.572412 211.396902 
L 256.572412 211.396902 
L 256.925873 205.115358 
L 256.925873 205.115358 
L 257.102604 203.487426 
L 257.102604 203.487426 
L 257.456066 197.840175 
L 257.456066 197.840175 
L 257.809527 194.62651 
L 257.809527 194.62651 
L 258.162989 188.919155 
L 258.162989 188.919155 
L 258.33972 187.249021 
L 258.33972 187.249021 
L 258.693182 182.29361 
L 258.693182 182.29361 
L 259.400105 176.863757 
L 259.400105 176.863757 
L 259.576836 176.500574 
L 259.576836 176.500574 
L 259.753567 176.487785 
L 259.753567 176.487785 
L 259.930297 176.843296 
L 259.930297 176.843296 
L 260.107028 176.588812 
L 260.107028 176.588812 
L 260.46049 178.904747 
L 260.46049 178.904747 
L 260.990682 184.490615 
L 260.990682 184.490615 
L 261.520875 194.002448 
L 261.520875 194.002448 
L 262.227798 210.24341 
L 262.227798 210.24341 
L 263.818376 252.081152 
L 263.818376 252.081152 
L 264.878761 281.533561 
L 264.878761 281.533561 
L 265.232222 288.512059 
L 265.232222 288.512059 
L 265.408953 295.488 
L 265.408953 295.488 
L 265.585684 294.334508 
L 265.585684 294.334508 
L 265.762415 294.259058 
L 265.762415 294.259058 
L 266.115877 290.958434 
L 266.115877 290.958434 
L 266.292608 295.488 
L 266.292608 295.488 
L 266.469338 288.013321 
L 266.469338 288.013321 
L 267.176262 283.07837 
L 267.176262 283.07837 
L 267.529723 281.53484 
L 267.529723 281.53484 
L 267.706454 281.722826 
L 267.706454 281.722826 
L 267.883185 282.103913 
L 267.883185 282.103913 
L 268.236647 283.965869 
L 268.236647 283.965869 
L 268.590108 287.428902 
L 268.590108 287.428902 
L 268.766839 289.45071 
L 268.766839 289.45071 
L 268.94357 295.488 
L 268.94357 295.488 
L 269.120301 293.744974 
L 269.120301 293.744974 
L 269.297032 295.175969 
L 269.297032 295.175969 
L 269.650493 291.434154 
L 269.650493 291.434154 
L 269.827224 295.488 
L 269.827224 295.488 
L 270.003955 288.416148 
L 270.003955 288.416148 
L 270.887609 280.643505 
L 270.887609 280.643505 
L 271.594533 273.658612 
L 271.594533 273.658612 
L 271.947994 271.466722 
L 271.947994 271.466722 
L 272.301456 271.346513 
L 272.301456 271.346513 
L 272.478187 271.732716 
L 272.831648 273.73662 
L 272.831648 273.73662 
L 273.715303 285.711452 
L 273.715303 285.711452 
L 274.245495 295.488 
L 274.245495 295.488 
L 275.482611 276.683012 
L 275.482611 276.683012 
L 275.836073 273.035829 
L 275.836073 273.035829 
L 277.42665 263.036767 
L 277.42665 263.036767 
L 277.603381 262.792514 
L 277.780112 263.027816 
L 277.780112 263.027816 
L 277.956843 263.879507 
L 278.310304 267.126421 
L 278.310304 267.126421 
L 278.840497 274.964283 
L 278.840497 274.964283 
L 279.900882 293.42527 
L 279.900882 293.42527 
L 280.077613 295.461145 
L 280.077613 295.461145 
L 280.431074 292.659259 
L 280.431074 292.659259 
L 280.607805 295.488 
L 280.607805 295.488 
L 280.784536 290.697556 
L 280.784536 290.697556 
L 281.844921 288.419984 
L 281.844921 288.419984 
L 282.198383 285.866189 
L 282.198383 285.866189 
L 282.551844 281.745844 
L 282.551844 281.745844 
L 282.905306 274.979629 
L 282.905306 274.979629 
L 283.435499 257.681086 
L 283.435499 257.681086 
L 283.965691 233.989743 
L 283.965691 233.989743 
L 284.849345 182.944527 
L 284.849345 182.944527 
L 285.026076 168.249653 
L 285.026076 168.249653 
L 285.202807 168.69596 
L 285.202807 168.69596 
L 285.379538 167.855778 
L 285.556269 160.011521 
L 285.556269 160.011521 
L 285.732999 164.8301 
L 285.732999 164.8301 
L 285.90973 155.676335 
L 285.90973 155.676335 
L 286.263192 171.10397 
L 286.263192 171.10397 
L 286.439923 165.936275 
L 286.439923 165.936275 
L 286.616654 172.010651 
L 286.616654 172.010651 
L 286.793384 161.225117 
L 286.793384 161.225117 
L 286.970115 166.873647 
L 286.970115 166.873647 
L 287.146846 166.816101 
L 287.146846 166.816101 
L 287.323577 155.758179 
L 287.323577 155.758179 
L 287.500308 155.251768 
L 287.500308 155.251768 
L 287.677039 139.084978 
L 287.677039 139.084978 
L 287.853769 140.842071 
L 287.853769 140.842071 
L 288.0305 139.156591 
L 288.0305 139.156591 
L 288.207231 128.602524 
L 288.207231 128.602524 
L 288.383962 131.820024 
L 288.383962 131.820024 
L 288.560693 122.783911 
L 288.560693 122.783911 
L 288.914155 139.14764 
L 288.914155 139.14764 
L 289.090885 138.109241 
L 289.090885 138.109241 
L 289.267616 147.246381 
L 289.267616 147.246381 
L 289.444347 144.803842 
L 289.444347 144.803842 
L 289.797809 159.242953 
L 289.797809 159.242953 
L 289.97454 154.209533 
L 289.97454 154.209533 
L 290.15127 158.053654 
L 290.15127 158.053654 
L 290.328001 157.416804 
L 290.328001 157.416804 
L 290.504732 148.89989 
L 290.504732 148.89989 
L 290.681463 147.968912 
L 290.681463 147.968912 
L 290.858194 132.903181 
L 290.858194 132.903181 
L 291.034925 132.93771 
L 291.034925 132.93771 
L 291.211655 128.647282 
L 291.211655 128.647282 
L 291.388386 116.512598 
L 291.388386 116.512598 
L 291.565117 115.857844 
L 291.565117 115.857844 
L 291.741848 101.831791 
L 291.918579 105.756477 
L 291.918579 105.756477 
L 292.09531 107.118416 
L 292.09531 107.118416 
L 292.27204 102.321578 
L 292.27204 102.321578 
L 292.448771 110.122355 
L 292.448771 110.122355 
L 292.625502 107.083888 
L 292.625502 107.083888 
L 292.802233 122.694394 
L 292.802233 122.694394 
L 292.978964 121.484634 
L 292.978964 121.484634 
L 293.332425 158.831174 
L 293.332425 158.831174 
L 293.509156 165.230369 
L 293.685887 182.389521 
L 293.685887 182.389521 
L 293.862618 187.893544 
L 293.862618 187.893544 
L 294.21608 214.173211 
L 294.21608 214.173211 
L 295.453195 247.925 
L 295.453195 247.925 
L 295.629926 249.852175 
L 295.629926 249.852175 
L 296.33685 267.059922 
L 296.33685 267.059922 
L 296.51358 269.140556 
L 296.51358 269.140556 
L 296.690311 273.225094 
L 296.690311 273.225094 
L 296.867042 274.129217 
L 296.867042 274.129217 
L 297.220504 278.762367 
L 297.220504 278.762367 
L 297.397235 278.574381 
L 297.397235 278.574381 
L 297.573965 279.291796 
L 297.573965 279.291796 
L 297.750696 277.599923 
L 297.750696 277.599923 
L 297.927427 277.226509 
L 298.104158 274.43869 
L 298.104158 274.43869 
L 298.280889 273.548634 
L 298.280889 273.548634 
L 298.45762 270.077928 
L 298.45762 270.077928 
L 298.63435 269.218564 
L 298.63435 269.218564 
L 298.811081 265.706935 
L 298.811081 265.706935 
L 298.987812 264.944761 
L 298.987812 264.944761 
L 299.164543 261.341058 
L 299.164543 261.341058 
L 299.341274 260.626199 
L 299.341274 260.626199 
L 299.518005 257.076206 
L 299.518005 257.076206 
L 299.694735 256.55445 
L 299.694735 256.55445 
L 299.871466 253.256383 
L 299.871466 253.256383 
L 300.048197 253.05433 
L 300.048197 253.05433 
L 300.224928 250.30104 
L 300.224928 250.30104 
L 300.401659 250.61435 
L 300.401659 250.61435 
L 300.57839 248.834238 
L 300.57839 248.834238 
L 300.755121 249.781841 
L 300.755121 249.781841 
L 300.931851 249.169288 
L 300.931851 249.169288 
L 301.108582 246.843122 
L 301.108582 246.843122 
L 301.285313 251.449416 
L 301.285313 251.449416 
L 301.462044 250.748625 
L 301.462044 250.748625 
L 301.638775 256.246255 
L 301.638775 256.246255 
L 301.815506 257.6018 
L 301.815506 257.6018 
L 302.168967 268.525445 
L 302.168967 268.525445 
L 302.345698 271.737831 
L 302.345698 271.737831 
L 302.69916 291.730839 
L 302.69916 291.730839 
L 302.875891 285.559273 
L 302.875891 285.559273 
L 303.406083 247.068193 
L 303.406083 247.068193 
L 304.643199 163.143341 
L 304.643199 163.143341 
L 304.996661 151.38335 
L 304.996661 151.38335 
L 305.173391 151.127587 
L 305.173391 151.127587 
L 305.350122 148.389642 
L 305.350122 148.389642 
L 305.526853 151.341149 
L 305.526853 151.341149 
L 305.703584 150.658262 
L 305.703584 150.658262 
L 305.880315 155.306757 
L 305.880315 155.306757 
L 306.057046 155.074013 
L 306.057046 155.074013 
L 306.233776 159.561378 
L 306.233776 159.561378 
L 306.410507 158.337551 
L 306.410507 158.337551 
L 306.587238 161.538427 
L 306.763969 158.714802 
L 306.763969 158.714802 
L 306.9407 160.241708 
L 306.9407 160.241708 
L 307.117431 155.817005 
L 307.117431 155.817005 
L 307.294161 156.614986 
L 307.294161 156.614986 
L 307.470892 151.431945 
L 307.470892 151.431945 
L 307.647623 152.350135 
L 307.824354 147.096759 
L 307.824354 147.096759 
L 308.001085 148.269433 
L 308.001085 148.269433 
L 308.177816 143.29484 
L 308.177816 143.29484 
L 308.354546 145.889557 
L 308.354546 145.889557 
L 308.531277 141.705271 
L 308.531277 141.705271 
L 308.708008 145.783415 
L 308.708008 145.783415 
L 308.884739 143.224505 
L 308.884739 143.224505 
L 309.06147 149.421647 
L 309.06147 149.421647 
L 309.238201 147.994488 
L 309.238201 147.994488 
L 309.591662 159.632992 
L 309.591662 159.632992 
L 309.768393 160.971912 
L 309.768393 160.971912 
L 309.945124 164.822427 
L 309.945124 164.822427 
L 310.121855 164.28916 
L 310.121855 164.28916 
L 310.298586 166.941425 
L 310.298586 166.941425 
L 310.475316 164.42983 
L 310.475316 164.42983 
L 310.652047 167.076979 
L 310.828778 163.644637 
L 310.828778 163.644637 
L 311.005509 168.768853 
L 311.005509 168.768853 
L 311.18224 164.50528 
L 311.18224 164.50528 
L 311.535701 178.636196 
L 311.535701 178.636196 
L 311.712432 181.056995 
L 311.712432 181.056995 
L 312.242625 210.118086 
L 312.242625 210.118086 
L 312.419356 213.567053 
L 312.419356 213.567053 
L 312.596087 228.488277 
L 312.596087 228.488277 
L 312.772817 227.97675 
L 312.772817 227.97675 
L 313.126279 246.015728 
L 313.126279 246.015728 
L 313.30301 241.688215 
L 313.30301 241.688215 
L 313.479741 243.922306 
L 313.479741 243.922306 
L 313.656472 233.421949 
L 313.656472 233.421949 
L 313.833202 233.859304 
L 313.833202 233.859304 
L 314.009933 219.774425 
L 314.009933 219.774425 
L 314.186664 220.012285 
L 314.186664 220.012285 
L 314.363395 215.925189 
L 314.363395 215.925189 
L 314.540126 205.564223 
L 314.540126 205.564223 
L 314.716857 204.678003 
L 314.716857 204.678003 
L 314.893587 196.534504 
L 314.893587 196.534504 
L 315.070318 201.671507 
L 315.070318 201.671507 
L 315.247049 197.248083 
L 315.247049 197.248083 
L 315.42378 207.789362 
L 315.42378 207.789362 
L 315.600511 205.478542 
L 315.600511 205.478542 
L 315.953972 230.077845 
L 315.953972 230.077845 
L 316.130703 234.13297 
L 316.130703 234.13297 
L 316.307434 246.345662 
L 316.307434 246.345662 
L 316.484165 248.24854 
L 316.484165 248.24854 
L 316.660896 259.343547 
L 316.660896 259.343547 
L 316.837627 257.317903 
L 316.837627 257.317903 
L 317.014357 265.470354 
L 317.014357 265.470354 
L 317.191088 268.37966 
L 317.191088 268.37966 
L 317.367819 264.26571 
L 317.367819 264.26571 
L 317.54455 264.887214 
L 317.54455 264.887214 
L 317.721281 257.597963 
L 317.898012 257.502052 
L 317.898012 257.502052 
L 318.074742 249.554211 
L 318.074742 249.554211 
L 318.251473 250.266512 
L 318.251473 250.266512 
L 318.428204 242.570598 
L 318.428204 242.570598 
L 318.604935 244.701105 
L 318.604935 244.701105 
L 318.781666 245.208795 
L 318.781666 245.208795 
L 318.958397 242.735565 
L 318.958397 242.735565 
L 319.135127 244.40442 
L 319.311858 242.666509 
L 319.311858 242.666509 
L 319.488589 244.79318 
L 319.488589 244.79318 
L 319.66532 243.249649 
L 319.66532 243.249649 
L 319.842051 245.124393 
L 319.842051 245.124393 
L 320.018782 242.896696 
L 320.018782 242.896696 
L 320.195512 243.796982 
L 320.195512 243.796982 
L 320.372243 240.239316 
L 320.548974 240.349294 
L 320.548974 240.349294 
L 320.725705 235.589542 
L 320.725705 235.589542 
L 320.902436 235.231473 
L 320.902436 235.231473 
L 321.079167 229.210808 
L 321.079167 229.210808 
L 321.255897 229.021543 
L 321.255897 229.021543 
L 321.432628 227.0803 
L 321.432628 227.0803 
L 321.609359 223.058424 
L 321.609359 223.058424 
L 321.78609 222.168369 
L 321.78609 222.168369 
L 321.962821 219.353695 
L 321.962821 219.353695 
L 322.139552 219.959853 
L 322.139552 219.959853 
L 322.316282 218.458524 
L 322.316282 218.458524 
L 322.493013 220.333268 
L 322.493013 220.333268 
L 322.669744 220.441967 
L 322.669744 220.441967 
L 322.846475 219.173382 
L 322.846475 219.173382 
L 323.023206 225.843685 
L 323.023206 225.843685 
L 323.199937 225.997143 
L 323.199937 225.997143 
L 323.376667 233.227569 
L 323.376667 233.227569 
L 323.553398 234.69437 
L 323.553398 234.69437 
L 323.730129 242.432485 
L 323.730129 242.432485 
L 323.90686 245.075798 
L 323.90686 245.075798 
L 324.437053 264.609711 
L 324.437053 264.609711 
L 324.613783 269.618833 
L 324.613783 269.618833 
L 325.143976 289.891902 
L 325.143976 289.891902 
L 325.320707 290.803697 
L 325.320707 290.803697 
L 325.850899 265.538131 
L 325.850899 265.538131 
L 326.911284 220.615886 
L 326.911284 220.615886 
L 327.264746 213.54787 
L 327.264746 213.54787 
L 327.618208 210.858521 
L 327.618208 210.858521 
L 327.794938 211.045228 
L 327.794938 211.045228 
L 327.971669 211.997946 
L 327.971669 211.997946 
L 328.325131 216.670739 
L 328.325131 216.670739 
L 328.678593 224.385835 
L 328.678593 224.385835 
L 329.208785 242.312277 
L 329.208785 242.312277 
L 329.738978 269.148229 
L 329.738978 269.148229 
L 330.092439 292.072283 
L 330.092439 292.072283 
L 330.26917 287.354731 
L 330.26917 287.354731 
L 330.976093 241.914565 
L 330.976093 241.914565 
L 331.152824 237.001354 
L 331.152824 237.001354 
L 331.329555 228.327146 
L 331.329555 228.327146 
L 331.506286 225.768235 
L 331.506286 225.768235 
L 331.683017 219.916374 
L 331.683017 219.916374 
L 331.859748 219.542959 
L 331.859748 219.542959 
L 332.036478 216.196298 
L 332.213209 210.508125 
L 332.213209 210.508125 
L 332.38994 215.143833 
L 332.38994 215.143833 
L 332.566671 210.757494 
L 332.566671 210.757494 
L 332.743402 215.591418 
L 332.743402 215.591418 
L 332.920133 212.387984 
L 332.920133 212.387984 
L 333.096863 217.049268 
L 333.096863 217.049268 
L 333.273594 214.6387 
L 333.273594 214.6387 
L 333.450325 219.238601 
L 333.450325 219.238601 
L 333.627056 217.87922 
L 333.627056 217.87922 
L 333.803787 222.303923 
L 333.803787 222.303923 
L 333.980518 222.018747 
L 333.980518 222.018747 
L 334.157248 225.678718 
L 334.333979 225.477944 
L 334.333979 225.477944 
L 334.51071 227.690296 
L 334.51071 227.690296 
L 334.687441 226.683868 
L 334.687441 226.683868 
L 334.864172 222.159417 
L 334.864172 222.159417 
L 335.040903 225.087905 
L 335.040903 225.087905 
L 335.217633 220.034025 
L 335.217633 220.034025 
L 335.394364 222.660713 
L 335.571095 216.755141 
L 335.571095 216.755141 
L 335.747826 219.060846 
L 335.747826 219.060846 
L 335.924557 213.092612 
L 335.924557 213.092612 
L 336.101288 215.485277 
L 336.101288 215.485277 
L 336.278019 209.986368 
L 336.278019 209.986368 
L 336.454749 212.59771 
L 336.454749 212.59771 
L 336.63148 208.004204 
L 336.63148 208.004204 
L 336.808211 211.156485 
L 336.808211 211.156485 
L 336.984942 208.071981 
L 336.984942 208.071981 
L 337.161673 211.784383 
L 337.161673 211.784383 
L 337.338404 210.61043 
L 337.338404 210.61043 
L 337.515134 215.361231 
L 337.515134 215.361231 
L 337.691865 216.278142 
L 337.691865 216.278142 
L 337.868596 214.964799 
L 337.868596 214.964799 
L 338.045327 225.231133 
L 338.045327 225.231133 
L 338.222058 226.034229 
L 338.222058 226.034229 
L 338.398789 236.915674 
L 338.398789 236.915674 
L 338.575519 240.212461 
L 339.105712 269.933422 
L 339.105712 269.933422 
L 339.635904 291.682244 
L 339.635904 291.682244 
L 340.696289 224.658223 
L 340.696289 224.658223 
L 341.226482 200.680425 
L 341.226482 200.680425 
L 341.403213 193.770982 
L 341.403213 193.770982 
L 341.579944 192.114916 
L 341.756674 188.292535 
L 341.933405 189.044479 
L 341.933405 189.044479 
L 342.110136 187.93063 
L 342.110136 187.93063 
L 342.286867 185.390902 
L 342.286867 185.390902 
L 342.463598 191.013855 
L 342.463598 191.013855 
L 342.640329 189.843739 
L 342.640329 189.843739 
L 342.817059 195.626544 
L 342.817059 195.626544 
L 342.99379 195.2851 
L 342.99379 195.2851 
L 343.170521 199.865819 
L 343.170521 199.865819 
L 343.347252 199.27117 
L 343.347252 199.27117 
L 343.523983 195.456462 
L 343.523983 195.456462 
L 343.700714 202.864642 
L 343.700714 202.864642 
L 343.877444 199.874771 
L 343.877444 199.874771 
L 344.054175 206.497758 
L 344.230906 204.313541 
L 344.230906 204.313541 
L 344.407637 211.074641 
L 344.407637 211.074641 
L 344.584368 211.52862 
L 344.584368 211.52862 
L 344.761099 208.913442 
L 344.761099 208.913442 
L 344.937829 226.452402 
L 344.937829 226.452402 
L 345.11456 231.171233 
L 345.11456 231.171233 
L 345.644753 285.981283 
L 345.644753 285.981283 
L 345.821484 288.045291 
L 345.821484 288.045291 
L 346.174945 244.554041 
L 346.174945 244.554041 
L 347.412061 110.971489 
L 347.412061 110.971489 
L 347.588792 98.82018 
L 347.588792 98.82018 
L 348.118985 92.353208 
L 348.118985 92.353208 
L 349.17937 163.244368 
L 349.17937 163.244368 
L 349.886293 214.281911 
L 349.886293 214.281911 
L 350.416485 256.980295 
L 350.416485 256.980295 
L 351.123409 294.53784 
L 351.123409 294.53784 
L 351.653601 276.154861 
L 351.653601 276.154861 
L 351.830332 274.122823 
L 351.830332 274.122823 
L 352.007063 267.869413 
L 352.007063 267.869413 
L 352.183794 266.906464 
L 352.183794 266.906464 
L 352.360525 262.985615 
L 352.360525 262.985615 
L 352.537255 263.025258 
L 352.537255 263.025258 
L 352.713986 265.533016 
L 352.713986 265.533016 
L 352.890717 261.843632 
L 352.890717 261.843632 
L 353.067448 264.861638 
L 353.067448 264.861638 
L 353.244179 262.417821 
L 353.244179 262.417821 
L 353.42091 265.438384 
L 353.42091 265.438384 
L 353.59764 264.183865 
L 353.59764 264.183865 
L 353.774371 267.065038 
L 353.774371 267.065038 
L 353.951102 266.465273 
L 353.951102 266.465273 
L 354.127833 268.669952 
L 354.127833 268.669952 
L 354.304564 272.726356 
L 354.304564 272.726356 
L 354.481295 270.222434 
L 354.481295 270.222434 
L 354.658025 273.621527 
L 354.658025 273.621527 
L 354.834756 271.499971 
L 354.834756 271.499971 
L 355.011487 273.806955 
L 355.011487 273.806955 
L 355.188218 271.84653 
L 355.188218 271.84653 
L 355.364949 272.590801 
L 355.364949 272.590801 
L 355.54168 274.819777 
L 355.54168 274.819777 
L 355.71841 270.054909 
L 355.71841 270.054909 
L 355.895141 270.838823 
L 355.895141 270.838823 
L 356.071872 266.579088 
L 356.071872 266.579088 
L 356.248603 266.256826 
L 356.248603 266.256826 
L 356.602065 260.889636 
L 356.602065 260.889636 
L 356.778795 260.780936 
L 356.955526 255.210414 
L 356.955526 255.210414 
L 357.132257 254.218053 
L 357.308988 249.621989 
L 357.308988 249.621989 
L 357.485719 248.110428 
L 357.485719 248.110428 
L 357.66245 247.835483 
L 357.66245 247.835483 
L 357.83918 242.999001 
L 357.83918 242.999001 
L 358.015911 242.647327 
L 358.015911 242.647327 
L 358.192642 239.503997 
L 358.192642 239.503997 
L 358.369373 239.304502 
L 358.369373 239.304502 
L 358.546104 240.259777 
L 358.546104 240.259777 
L 358.722835 238.222623 
L 358.722835 238.222623 
L 358.899565 239.784058 
L 358.899565 239.784058 
L 359.076296 239.977159 
L 359.076296 239.977159 
L 359.253027 242.584665 
L 359.253027 242.584665 
L 360.843605 279.707412 
L 360.843605 279.707412 
L 361.020336 280.417154 
L 361.020336 280.417154 
L 361.373797 288.584952 
L 361.373797 288.584952 
L 361.550528 287.417393 
L 361.550528 287.417393 
L 361.90399 292.871543 
L 361.90399 292.871543 
L 362.080721 289.963515 
L 362.080721 289.963515 
L 362.257451 291.356146 
L 362.257451 291.356146 
L 362.434182 289.275512 
L 362.434182 289.275512 
L 362.610913 289.155304 
L 362.610913 289.155304 
L 362.787644 289.600332 
L 362.787644 289.600332 
L 362.964375 286.412243 
L 362.964375 286.412243 
L 363.317836 285.095063 
L 363.317836 285.095063 
L 363.671298 278.489979 
L 363.671298 278.489979 
L 363.848029 276.41574 
L 363.848029 276.41574 
L 364.201491 266.962732 
L 364.201491 266.962732 
L 364.378221 263.578985 
L 364.378221 263.578985 
L 364.731683 251.920021 
L 364.731683 251.920021 
L 364.908414 247.473578 
L 364.908414 247.473578 
L 365.438606 228.356559 
L 365.438606 228.356559 
L 365.615337 222.815449 
L 365.615337 222.815449 
L 366.322261 190.961424 
L 366.322261 190.961424 
L 367.559376 144.761641 
L 367.559376 144.761641 
L 368.089569 134.348243 
L 368.089569 134.348243 
L 368.443031 130.979842 
L 368.443031 130.979842 
L 368.619761 130.796972 
L 368.619761 130.796972 
L 368.796492 131.501599 
L 368.796492 131.501599 
L 369.149954 135.456977 
L 369.149954 135.456977 
L 369.503416 142.766689 
L 369.503416 142.766689 
L 370.033608 159.388738 
L 370.033608 159.388738 
L 373.038032 266.478061 
L 373.038032 266.478061 
L 373.568225 279.495128 
L 373.568225 279.495128 
L 374.098417 287.761394 
L 374.098417 287.761394 
L 374.805341 295.04553 
L 374.805341 295.04553 
L 374.982072 294.118388 
L 374.982072 294.118388 
L 376.042457 283.821362 
L 376.042457 283.821362 
L 376.395918 282.061712 
L 376.395918 282.061712 
L 376.572649 281.718989 
L 376.572649 281.718989 
L 376.74938 281.678067 
L 376.74938 281.678067 
L 376.926111 281.791882 
L 376.926111 281.791882 
L 377.456303 282.826444 
L 377.456303 282.826444 
L 377.633034 283.215204 
L 377.633034 283.215204 
L 377.986496 283.268914 
L 377.986496 283.268914 
L 378.339957 283.225434 
L 378.339957 283.225434 
L 378.693419 283.623146 
L 378.693419 283.623146 
L 379.046881 284.683284 
L 379.046881 284.683284 
L 379.577073 287.040142 
L 379.577073 287.040142 
L 380.107266 289.11566 
L 380.107266 289.11566 
L 380.460727 289.712867 
L 380.460727 289.712867 
L 380.99092 290.09907 
L 380.99092 290.09907 
L 381.344382 291.019817 
L 381.344382 291.019817 
L 382.581498 295.323033 
L 382.581498 295.323033 
L 382.758228 295.175969 
L 382.758228 295.175969 
L 383.11169 295.479048 
L 383.11169 295.479048 
L 383.818613 294.597944 
L 383.818613 294.597944 
L 383.995344 294.761633 
L 383.995344 294.761633 
L 384.348806 295.473933 
L 384.348806 295.473933 
L 385.055729 293.778223 
L 385.055729 293.778223 
L 385.23246 293.713004 
L 385.23246 293.713004 
L 385.585922 293.890759 
L 385.585922 293.890759 
L 386.116114 294.317883 
L 386.116114 294.317883 
L 386.292845 294.27824 
L 386.292845 294.27824 
L 386.646307 293.546757 
L 386.646307 293.546757 
L 387.529961 291.487864 
L 387.529961 291.487864 
L 387.706692 291.558199 
L 387.706692 291.558199 
L 388.060153 292.189934 
L 388.060153 292.189934 
L 388.943808 294.233482 
L 388.943808 294.233482 
L 389.120538 294.119667 
L 389.120538 294.119667 
L 389.474 293.412482 
L 389.474 293.412482 
L 390.180923 291.830586 
L 390.180923 291.830586 
L 390.357654 291.856163 
L 390.357654 291.856163 
L 390.711116 292.421399 
L 390.711116 292.421399 
L 391.59477 294.444486 
L 391.59477 294.444486 
L 391.771501 294.374151 
L 391.771501 294.374151 
L 392.301693 293.418876 
L 392.301693 293.418876 
L 392.655155 292.797371 
L 392.655155 292.797371 
L 393.008617 292.655423 
L 393.008617 292.655423 
L 393.71554 292.536493 
L 393.71554 292.536493 
L 394.069002 291.908594 
L 394.069002 291.908594 
L 394.775925 290.711623 
L 394.775925 290.711623 
L 394.952656 290.705228 
L 394.952656 290.705228 
L 395.306118 291.532622 
L 395.306118 291.532622 
L 395.659579 293.347262 
L 395.659579 293.347262 
L 396.013041 295.127374 
L 396.013041 295.127374 
L 396.543234 291.524949 
L 396.543234 291.524949 
L 396.896695 290.862523 
L 396.896695 290.862523 
L 397.073426 290.849735 
L 397.073426 290.849735 
L 397.426888 291.393231 
L 397.426888 291.393231 
L 397.603619 291.018538 
L 397.603619 291.018538 
L 397.780349 292.147733 
L 397.780349 292.147733 
L 397.95708 292.417563 
L 397.95708 292.417563 
L 398.133811 290.724411 
L 398.133811 290.724411 
L 398.310542 282.866087 
L 398.310542 282.866087 
L 398.487273 259.817988 
L 398.487273 259.817988 
" clip-path="url(#pa08f287179)" style="fill: none; stroke: #1f77b4; stroke-width: 1.5; stroke-linecap: square"/>
   </g>
   <g id="patch_3">
    <path d="M 57.6 307.584 
L 57.6 41.472 
" style="fill: none; stroke: #000000; stroke-width: 0.8; stroke-linejoin: miter; stroke-linecap: square"/>
   </g>
   <g id="patch_4">
    <path d="M 414.72 307.584 
L 414.72 41.472 
" style="fill: none; stroke: #000000; stroke-width: 0.8; stroke-linejoin: miter; stroke-linecap: square"/>
   </g>
   <g id="patch_5">
    <path d="M 57.6 307.584 
L 414.72 307.584 
" style="fill: none; stroke: #000000; stroke-width: 0.8; stroke-linejoin: miter; stroke-linecap: square"/>
   </g>
   <g id="patch_6">
    <path d="M 57.6 41.472 
L 414.72 41.472 
" style="fill: none; stroke: #000000; stroke-width: 0.8; stroke-linejoin: miter; stroke-linecap: square"/>
   </g>
   <g id="text_19">
    <!-- Tracking error vs Time -->
    <g transform="translate(169.584375 35.472) scale(0.12 -0.12)">
     <defs>
      <path id="DejaVuSans-76" d="M 191 3500 
L 800 3500 
L 1894 563 
L 2988 3500 
L 3597 3500 
L 2284 0 
L 1503 0 
L 191 3500 
z
" transform="scale(0.015625)"/>
     </defs>
     <use xlink:href="#DejaVuSans-54"/>
     <use xlink:href="#DejaVuSans-72" x="46.333984"/>
     <use xlink:href="#DejaVuSans-61" x="87.447266"/>
     <use xlink:href="#DejaVuSans-63" x="148.726562"/>
     <use xlink:href="#DejaVuSans-6b" x="203.707031"/>
     <use xlink:href="#DejaVuSans-69" x="261.617188"/>
     <use xlink:href="#DejaVuSans-6e" x="289.400391"/>
     <use xlink:href="#DejaVuSans-67" x="352.779297"/>
     <use xlink:href="#DejaVuSans-20" x="416.255859"/>
     <use xlink:href="#DejaVuSans-65" x="448.042969"/>
     <use xlink:href="#DejaVuSans-72" x="509.566406"/>
     <use xlink:href="#DejaVuSans-72" x="548.929688"/>
     <use xlink:href="#DejaVuSans-6f" x="587.792969"/>
     <use xlink:href="#DejaVuSans-72" x="648.974609"/>
     <use xlink:href="#DejaVuSans-20" x="690.087891"/>
     <use xlink:href="#DejaVuSans-76" x="721.875"/>
     <use xlink:href="#DejaVuSans-73" x="781.054688"/>
     <use xlink:href="#DejaVuSans-20" x="833.154297"/>
     <use xlink:href="#DejaVuSans-54" x="864.941406"/>
     <use xlink:href="#DejaVuSans-69" x="922.900391"/>
     <use xlink:href="#DejaVuSans-6d" x="950.683594"/>
     <use xlink:href="#DejaVuSans-65" x="1048.095703"/>
    </g>
   </g>
   <g id="legend_1">
    <g id="patch_7">
     <path d="M 311.00125 64.150125 
L 407.72 64.150125 
Q 409.72 64.150125 409.72 62.150125 
L 409.72 48.472 
Q 409.72 46.472 407.72 46.472 
L 311.00125 46.472 
Q 309.00125 46.472 309.00125 48.472 
L 309.00125 62.150125 
Q 309.00125 64.150125 311.00125 64.150125 
z
" style="fill: #ffffff; opacity: 0.8; stroke: #cccccc; stroke-linejoin: miter"/>
    </g>
    <g id="line2d_34">
     <path d="M 313.00125 54.570438 
L 323.00125 54.570438 
L 333.00125 54.570438 
" style="fill: none; stroke: #1f77b4; stroke-width: 1.5; stroke-linecap: square"/>
    </g>
    <g id="text_20">
     <!-- Actual speed -->
     <g transform="translate(341.00125 58.070438) scale(0.1 -0.1)">
      <defs>
       <path id="DejaVuSans-41" d="M 2188 4044 
L 1331 1722 
L 3047 1722 
L 2188 4044 
z
M 1831 4666 
L 2547 4666 
L 4325 0 
L 3669 0 
L 3244 1197 
L 1141 1197 
L 716 0 
L 50 0 
L 1831 4666 
z
" transform="scale(0.015625)"/>
       <path id="DejaVuSans-74" d="M 1172 4494 
L 1172 3500 
L 2356 3500 
L 2356 3053 
L 1172 3053 
L 1172 1153 
Q 1172 725 1289 603 
Q 1406 481 1766 481 
L 2356 481 
L 2356 0 
L 1766 0 
Q 1100 0 847 248 
Q 594 497 594 1153 
L 594 3053 
L 172 3053 
L 172 3500 
L 594 3500 
L 594 4494 
L 1172 4494 
z
" transform="scale(0.015625)"/>
       <path id="DejaVuSans-75" d="M 544 1381 
L 544 3500 
L 1119 3500 
L 1119 1403 
Q 1119 906 1312 657 
Q 1506 409 1894 409 
Q 2359 409 2629 706 
Q 2900 1003 2900 1516 
L 2900 3500 
L 3475 3500 
L 3475 0 
L 2900 0 
L 2900 538 
Q 2691 219 2414 64 
Q 2138 -91 1772 -91 
Q 1169 -91 856 284 
Q 544 659 544 1381 
z
M 1991 3584 
L 1991 3584 
z
" transform="scale(0.015625)"/>
       <path id="DejaVuSans-6c" d="M 603 4863 
L 1178 4863 
L 1178 0 
L 603 0 
L 603 4863 
z
" transform="scale(0.015625)"/>
       <path id="DejaVuSans-70" d="M 1159 525 
L 1159 -1331 
L 581 -1331 
L 581 3500 
L 1159 3500 
L 1159 2969 
Q 1341 3281 1617 3432 
Q 1894 3584 2278 3584 
Q 2916 3584 3314 3078 
Q 3713 2572 3713 1747 
Q 3713 922 3314 415 
Q 2916 -91 2278 -91 
Q 1894 -91 1617 61 
Q 1341 213 1159 525 
z
M 3116 1747 
Q 3116 2381 2855 2742 
Q 2594 3103 2138 3103 
Q 1681 3103 1420 2742 
Q 1159 2381 1159 1747 
Q 1159 1113 1420 752 
Q 1681 391 2138 391 
Q 2594 391 2855 752 
Q 3116 1113 3116 1747 
z
" transform="scale(0.015625)"/>
       <path id="DejaVuSans-64" d="M 2906 2969 
L 2906 4863 
L 3481 4863 
L 3481 0 
L 2906 0 
L 2906 525 
Q 2725 213 2448 61 
Q 2172 -91 1784 -91 
Q 1150 -91 751 415 
Q 353 922 353 1747 
Q 353 2572 751 3078 
Q 1150 3584 1784 3584 
Q 2172 3584 2448 3432 
Q 2725 3281 2906 2969 
z
M 947 1747 
Q 947 1113 1208 752 
Q 1469 391 1925 391 
Q 2381 391 2643 752 
Q 2906 1113 2906 1747 
Q 2906 2381 2643 2742 
Q 2381 3103 1925 3103 
Q 1469 3103 1208 2742 
Q 947 2381 947 1747 
z
" transform="scale(0.015625)"/>
      </defs>
      <use xlink:href="#DejaVuSans-41"/>
      <use xlink:href="#DejaVuSans-63" x="66.658203"/>
      <use xlink:href="#DejaVuSans-74" x="121.638672"/>
      <use xlink:href="#DejaVuSans-75" x="160.847656"/>
      <use xlink:href="#DejaVuSans-61" x="224.226562"/>
      <use xlink:href="#DejaVuSans-6c" x="285.505859"/>
      <use xlink:href="#DejaVuSans-20" x="313.289062"/>
      <use xlink:href="#DejaVuSans-73" x="345.076172"/>
      <use xlink:href="#DejaVuSans-70" x="397.175781"/>
      <use xlink:href="#DejaVuSans-65" x="460.652344"/>
      <use xlink:href="#DejaVuSans-65" x="522.175781"/>
      <use xlink:href="#DejaVuSans-64" x="583.699219"/>
     </g>
    </g>
   </g>
  </g>
 </g>
 <defs>
  <clipPath id="pa08f287179">
   <rect x="57.6" y="41.472" width="357.12" height="266.112"/>
  </clipPath>
 </defs>
</svg>
