<?xml version="1.0" encoding="utf-8" standalone="no"?>
<!DOCTYPE svg PUBLIC "-//W3C//DTD SVG 1.1//EN"
  "http://www.w3.org/Graphics/SVG/1.1/DTD/svg11.dtd">
<svg xmlns:xlink="http://www.w3.org/1999/xlink" width="460.8pt" height="345.6pt" viewBox="0 0 460.8 345.6" xmlns="http://www.w3.org/2000/svg" version="1.1">
 <metadata>
  <rdf:RDF xmlns:dc="http://purl.org/dc/elements/1.1/" xmlns:cc="http://creativecommons.org/ns#" xmlns:rdf="http://www.w3.org/1999/02/22-rdf-syntax-ns#">
   <cc:Work>
    <dc:type rdf:resource="http://purl.org/dc/dcmitype/StillImage"/>
    <dc:date>2024-01-30T20:58:54.289258</dc:date>
    <dc:format>image/svg+xml</dc:format>
    <dc:creator>
     <cc:Agent>
      <dc:title>Matplotlib v3.7.1, https://matplotlib.org/</dc:title>
     </cc:Agent>
    </dc:creator>
   </cc:Work>
  </rdf:RDF>
 </metadata>
 <defs>
  <style type="text/css">*{stroke-linejoin: round; stroke-linecap: butt}</style>
 </defs>
 <g id="figure_1">
  <g id="patch_1">
   <path d="M 0 345.6 
L 460.8 345.6 
L 460.8 0 
L 0 0 
z
" style="fill: #ffffff"/>
  </g>
  <g id="axes_1">
   <g id="patch_2">
    <path d="M 57.6 307.584 
L 414.72 307.584 
L 414.72 41.472 
L 57.6 41.472 
z
" style="fill: #ffffff"/>
   </g>
   <g id="matplotlib.axis_1">
    <g id="xtick_1">
     <g id="line2d_1">
      <path d="M 73.832727 307.584 
L 73.832727 41.472 
" clip-path="url(#pd6b68e4554)" style="fill: none; stroke: #b0b0b0; stroke-width: 0.8; stroke-linecap: square"/>
     </g>
     <g id="line2d_2">
      <defs>
       <path id="m1529776172" d="M 0 0 
L 0 3.5 
" style="stroke: #000000; stroke-width: 0.8"/>
      </defs>
      <g>
       <use xlink:href="#m1529776172" x="73.832727" y="307.584" style="stroke: #000000; stroke-width: 0.8"/>
      </g>
     </g>
     <g id="text_1">
      <!-- 0 -->
      <g transform="translate(70.651477 322.182437) scale(0.1 -0.1)">
       <defs>
        <path id="DejaVuSans-30" d="M 2034 4250 
Q 1547 4250 1301 3770 
Q 1056 3291 1056 2328 
Q 1056 1369 1301 889 
Q 1547 409 2034 409 
Q 2525 409 2770 889 
Q 3016 1369 3016 2328 
Q 3016 3291 2770 3770 
Q 2525 4250 2034 4250 
z
M 2034 4750 
Q 2819 4750 3233 4129 
Q 3647 3509 3647 2328 
Q 3647 1150 3233 529 
Q 2819 -91 2034 -91 
Q 1250 -91 836 529 
Q 422 1150 422 2328 
Q 422 3509 836 4129 
Q 1250 4750 2034 4750 
z
" transform="scale(0.015625)"/>
       </defs>
       <use xlink:href="#DejaVuSans-30"/>
      </g>
     </g>
    </g>
    <g id="xtick_2">
     <g id="line2d_3">
      <path d="M 118.015436 307.584 
L 118.015436 41.472 
" clip-path="url(#pd6b68e4554)" style="fill: none; stroke: #b0b0b0; stroke-width: 0.8; stroke-linecap: square"/>
     </g>
     <g id="line2d_4">
      <g>
       <use xlink:href="#m1529776172" x="118.015436" y="307.584" style="stroke: #000000; stroke-width: 0.8"/>
      </g>
     </g>
     <g id="text_2">
      <!-- 5 -->
      <g transform="translate(114.834186 322.182437) scale(0.1 -0.1)">
       <defs>
        <path id="DejaVuSans-35" d="M 691 4666 
L 3169 4666 
L 3169 4134 
L 1269 4134 
L 1269 2991 
Q 1406 3038 1543 3061 
Q 1681 3084 1819 3084 
Q 2600 3084 3056 2656 
Q 3513 2228 3513 1497 
Q 3513 744 3044 326 
Q 2575 -91 1722 -91 
Q 1428 -91 1123 -41 
Q 819 9 494 109 
L 494 744 
Q 775 591 1075 516 
Q 1375 441 1709 441 
Q 2250 441 2565 725 
Q 2881 1009 2881 1497 
Q 2881 1984 2565 2268 
Q 2250 2553 1709 2553 
Q 1456 2553 1204 2497 
Q 953 2441 691 2322 
L 691 4666 
z
" transform="scale(0.015625)"/>
       </defs>
       <use xlink:href="#DejaVuSans-35"/>
      </g>
     </g>
    </g>
    <g id="xtick_3">
     <g id="line2d_5">
      <path d="M 162.198145 307.584 
L 162.198145 41.472 
" clip-path="url(#pd6b68e4554)" style="fill: none; stroke: #b0b0b0; stroke-width: 0.8; stroke-linecap: square"/>
     </g>
     <g id="line2d_6">
      <g>
       <use xlink:href="#m1529776172" x="162.198145" y="307.584" style="stroke: #000000; stroke-width: 0.8"/>
      </g>
     </g>
     <g id="text_3">
      <!-- 10 -->
      <g transform="translate(155.835645 322.182437) scale(0.1 -0.1)">
       <defs>
        <path id="DejaVuSans-31" d="M 794 531 
L 1825 531 
L 1825 4091 
L 703 3866 
L 703 4441 
L 1819 4666 
L 2450 4666 
L 2450 531 
L 3481 531 
L 3481 0 
L 794 0 
L 794 531 
z
" transform="scale(0.015625)"/>
       </defs>
       <use xlink:href="#DejaVuSans-31"/>
       <use xlink:href="#DejaVuSans-30" x="63.623047"/>
      </g>
     </g>
    </g>
    <g id="xtick_4">
     <g id="line2d_7">
      <path d="M 206.380854 307.584 
L 206.380854 41.472 
" clip-path="url(#pd6b68e4554)" style="fill: none; stroke: #b0b0b0; stroke-width: 0.8; stroke-linecap: square"/>
     </g>
     <g id="line2d_8">
      <g>
       <use xlink:href="#m1529776172" x="206.380854" y="307.584" style="stroke: #000000; stroke-width: 0.8"/>
      </g>
     </g>
     <g id="text_4">
      <!-- 15 -->
      <g transform="translate(200.018354 322.182437) scale(0.1 -0.1)">
       <use xlink:href="#DejaVuSans-31"/>
       <use xlink:href="#DejaVuSans-35" x="63.623047"/>
      </g>
     </g>
    </g>
    <g id="xtick_5">
     <g id="line2d_9">
      <path d="M 250.563563 307.584 
L 250.563563 41.472 
" clip-path="url(#pd6b68e4554)" style="fill: none; stroke: #b0b0b0; stroke-width: 0.8; stroke-linecap: square"/>
     </g>
     <g id="line2d_10">
      <g>
       <use xlink:href="#m1529776172" x="250.563563" y="307.584" style="stroke: #000000; stroke-width: 0.8"/>
      </g>
     </g>
     <g id="text_5">
      <!-- 20 -->
      <g transform="translate(244.201063 322.182437) scale(0.1 -0.1)">
       <defs>
        <path id="DejaVuSans-32" d="M 1228 531 
L 3431 531 
L 3431 0 
L 469 0 
L 469 531 
Q 828 903 1448 1529 
Q 2069 2156 2228 2338 
Q 2531 2678 2651 2914 
Q 2772 3150 2772 3378 
Q 2772 3750 2511 3984 
Q 2250 4219 1831 4219 
Q 1534 4219 1204 4116 
Q 875 4013 500 3803 
L 500 4441 
Q 881 4594 1212 4672 
Q 1544 4750 1819 4750 
Q 2544 4750 2975 4387 
Q 3406 4025 3406 3419 
Q 3406 3131 3298 2873 
Q 3191 2616 2906 2266 
Q 2828 2175 2409 1742 
Q 1991 1309 1228 531 
z
" transform="scale(0.015625)"/>
       </defs>
       <use xlink:href="#DejaVuSans-32"/>
       <use xlink:href="#DejaVuSans-30" x="63.623047"/>
      </g>
     </g>
    </g>
    <g id="xtick_6">
     <g id="line2d_11">
      <path d="M 294.746272 307.584 
L 294.746272 41.472 
" clip-path="url(#pd6b68e4554)" style="fill: none; stroke: #b0b0b0; stroke-width: 0.8; stroke-linecap: square"/>
     </g>
     <g id="line2d_12">
      <g>
       <use xlink:href="#m1529776172" x="294.746272" y="307.584" style="stroke: #000000; stroke-width: 0.8"/>
      </g>
     </g>
     <g id="text_6">
      <!-- 25 -->
      <g transform="translate(288.383772 322.182437) scale(0.1 -0.1)">
       <use xlink:href="#DejaVuSans-32"/>
       <use xlink:href="#DejaVuSans-35" x="63.623047"/>
      </g>
     </g>
    </g>
    <g id="xtick_7">
     <g id="line2d_13">
      <path d="M 338.928981 307.584 
L 338.928981 41.472 
" clip-path="url(#pd6b68e4554)" style="fill: none; stroke: #b0b0b0; stroke-width: 0.8; stroke-linecap: square"/>
     </g>
     <g id="line2d_14">
      <g>
       <use xlink:href="#m1529776172" x="338.928981" y="307.584" style="stroke: #000000; stroke-width: 0.8"/>
      </g>
     </g>
     <g id="text_7">
      <!-- 30 -->
      <g transform="translate(332.566481 322.182437) scale(0.1 -0.1)">
       <defs>
        <path id="DejaVuSans-33" d="M 2597 2516 
Q 3050 2419 3304 2112 
Q 3559 1806 3559 1356 
Q 3559 666 3084 287 
Q 2609 -91 1734 -91 
Q 1441 -91 1130 -33 
Q 819 25 488 141 
L 488 750 
Q 750 597 1062 519 
Q 1375 441 1716 441 
Q 2309 441 2620 675 
Q 2931 909 2931 1356 
Q 2931 1769 2642 2001 
Q 2353 2234 1838 2234 
L 1294 2234 
L 1294 2753 
L 1863 2753 
Q 2328 2753 2575 2939 
Q 2822 3125 2822 3475 
Q 2822 3834 2567 4026 
Q 2313 4219 1838 4219 
Q 1578 4219 1281 4162 
Q 984 4106 628 3988 
L 628 4550 
Q 988 4650 1302 4700 
Q 1616 4750 1894 4750 
Q 2613 4750 3031 4423 
Q 3450 4097 3450 3541 
Q 3450 3153 3228 2886 
Q 3006 2619 2597 2516 
z
" transform="scale(0.015625)"/>
       </defs>
       <use xlink:href="#DejaVuSans-33"/>
       <use xlink:href="#DejaVuSans-30" x="63.623047"/>
      </g>
     </g>
    </g>
    <g id="xtick_8">
     <g id="line2d_15">
      <path d="M 383.11169 307.584 
L 383.11169 41.472 
" clip-path="url(#pd6b68e4554)" style="fill: none; stroke: #b0b0b0; stroke-width: 0.8; stroke-linecap: square"/>
     </g>
     <g id="line2d_16">
      <g>
       <use xlink:href="#m1529776172" x="383.11169" y="307.584" style="stroke: #000000; stroke-width: 0.8"/>
      </g>
     </g>
     <g id="text_8">
      <!-- 35 -->
      <g transform="translate(376.74919 322.182437) scale(0.1 -0.1)">
       <use xlink:href="#DejaVuSans-33"/>
       <use xlink:href="#DejaVuSans-35" x="63.623047"/>
      </g>
     </g>
    </g>
    <g id="text_9">
     <!-- Time(s) -->
     <g transform="translate(217.420156 335.860562) scale(0.1 -0.1)">
      <defs>
       <path id="DejaVuSans-54" d="M -19 4666 
L 3928 4666 
L 3928 4134 
L 2272 4134 
L 2272 0 
L 1638 0 
L 1638 4134 
L -19 4134 
L -19 4666 
z
" transform="scale(0.015625)"/>
       <path id="DejaVuSans-69" d="M 603 3500 
L 1178 3500 
L 1178 0 
L 603 0 
L 603 3500 
z
M 603 4863 
L 1178 4863 
L 1178 4134 
L 603 4134 
L 603 4863 
z
" transform="scale(0.015625)"/>
       <path id="DejaVuSans-6d" d="M 3328 2828 
Q 3544 3216 3844 3400 
Q 4144 3584 4550 3584 
Q 5097 3584 5394 3201 
Q 5691 2819 5691 2113 
L 5691 0 
L 5113 0 
L 5113 2094 
Q 5113 2597 4934 2840 
Q 4756 3084 4391 3084 
Q 3944 3084 3684 2787 
Q 3425 2491 3425 1978 
L 3425 0 
L 2847 0 
L 2847 2094 
Q 2847 2600 2669 2842 
Q 2491 3084 2119 3084 
Q 1678 3084 1418 2786 
Q 1159 2488 1159 1978 
L 1159 0 
L 581 0 
L 581 3500 
L 1159 3500 
L 1159 2956 
Q 1356 3278 1631 3431 
Q 1906 3584 2284 3584 
Q 2666 3584 2933 3390 
Q 3200 3197 3328 2828 
z
" transform="scale(0.015625)"/>
       <path id="DejaVuSans-65" d="M 3597 1894 
L 3597 1613 
L 953 1613 
Q 991 1019 1311 708 
Q 1631 397 2203 397 
Q 2534 397 2845 478 
Q 3156 559 3463 722 
L 3463 178 
Q 3153 47 2828 -22 
Q 2503 -91 2169 -91 
Q 1331 -91 842 396 
Q 353 884 353 1716 
Q 353 2575 817 3079 
Q 1281 3584 2069 3584 
Q 2775 3584 3186 3129 
Q 3597 2675 3597 1894 
z
M 3022 2063 
Q 3016 2534 2758 2815 
Q 2500 3097 2075 3097 
Q 1594 3097 1305 2825 
Q 1016 2553 972 2059 
L 3022 2063 
z
" transform="scale(0.015625)"/>
       <path id="DejaVuSans-28" d="M 1984 4856 
Q 1566 4138 1362 3434 
Q 1159 2731 1159 2009 
Q 1159 1288 1364 580 
Q 1569 -128 1984 -844 
L 1484 -844 
Q 1016 -109 783 600 
Q 550 1309 550 2009 
Q 550 2706 781 3412 
Q 1013 4119 1484 4856 
L 1984 4856 
z
" transform="scale(0.015625)"/>
       <path id="DejaVuSans-73" d="M 2834 3397 
L 2834 2853 
Q 2591 2978 2328 3040 
Q 2066 3103 1784 3103 
Q 1356 3103 1142 2972 
Q 928 2841 928 2578 
Q 928 2378 1081 2264 
Q 1234 2150 1697 2047 
L 1894 2003 
Q 2506 1872 2764 1633 
Q 3022 1394 3022 966 
Q 3022 478 2636 193 
Q 2250 -91 1575 -91 
Q 1294 -91 989 -36 
Q 684 19 347 128 
L 347 722 
Q 666 556 975 473 
Q 1284 391 1588 391 
Q 1994 391 2212 530 
Q 2431 669 2431 922 
Q 2431 1156 2273 1281 
Q 2116 1406 1581 1522 
L 1381 1569 
Q 847 1681 609 1914 
Q 372 2147 372 2553 
Q 372 3047 722 3315 
Q 1072 3584 1716 3584 
Q 2034 3584 2315 3537 
Q 2597 3491 2834 3397 
z
" transform="scale(0.015625)"/>
       <path id="DejaVuSans-29" d="M 513 4856 
L 1013 4856 
Q 1481 4119 1714 3412 
Q 1947 2706 1947 2009 
Q 1947 1309 1714 600 
Q 1481 -109 1013 -844 
L 513 -844 
Q 928 -128 1133 580 
Q 1338 1288 1338 2009 
Q 1338 2731 1133 3434 
Q 928 4138 513 4856 
z
" transform="scale(0.015625)"/>
      </defs>
      <use xlink:href="#DejaVuSans-54"/>
      <use xlink:href="#DejaVuSans-69" x="57.958984"/>
      <use xlink:href="#DejaVuSans-6d" x="85.742188"/>
      <use xlink:href="#DejaVuSans-65" x="183.154297"/>
      <use xlink:href="#DejaVuSans-28" x="244.677734"/>
      <use xlink:href="#DejaVuSans-73" x="283.691406"/>
      <use xlink:href="#DejaVuSans-29" x="335.791016"/>
     </g>
    </g>
   </g>
   <g id="matplotlib.axis_2">
    <g id="ytick_1">
     <g id="line2d_17">
      <path d="M 57.6 295.488 
L 414.72 295.488 
" clip-path="url(#pd6b68e4554)" style="fill: none; stroke: #b0b0b0; stroke-width: 0.8; stroke-linecap: square"/>
     </g>
     <g id="line2d_18">
      <defs>
       <path id="md39b7822fd" d="M 0 0 
L -3.5 0 
" style="stroke: #000000; stroke-width: 0.8"/>
      </defs>
      <g>
       <use xlink:href="#md39b7822fd" x="57.6" y="295.488" style="stroke: #000000; stroke-width: 0.8"/>
      </g>
     </g>
     <g id="text_10">
      <!-- 0.000 -->
      <g transform="translate(21.971875 299.287219) scale(0.1 -0.1)">
       <defs>
        <path id="DejaVuSans-2e" d="M 684 794 
L 1344 794 
L 1344 0 
L 684 0 
L 684 794 
z
" transform="scale(0.015625)"/>
       </defs>
       <use xlink:href="#DejaVuSans-30"/>
       <use xlink:href="#DejaVuSans-2e" x="63.623047"/>
       <use xlink:href="#DejaVuSans-30" x="95.410156"/>
       <use xlink:href="#DejaVuSans-30" x="159.033203"/>
       <use xlink:href="#DejaVuSans-30" x="222.65625"/>
      </g>
     </g>
    </g>
    <g id="ytick_2">
     <g id="line2d_19">
      <path d="M 57.6 263.663958 
L 414.72 263.663958 
" clip-path="url(#pd6b68e4554)" style="fill: none; stroke: #b0b0b0; stroke-width: 0.8; stroke-linecap: square"/>
     </g>
     <g id="line2d_20">
      <g>
       <use xlink:href="#md39b7822fd" x="57.6" y="263.663958" style="stroke: #000000; stroke-width: 0.8"/>
      </g>
     </g>
     <g id="text_11">
      <!-- 0.025 -->
      <g transform="translate(21.971875 267.463177) scale(0.1 -0.1)">
       <use xlink:href="#DejaVuSans-30"/>
       <use xlink:href="#DejaVuSans-2e" x="63.623047"/>
       <use xlink:href="#DejaVuSans-30" x="95.410156"/>
       <use xlink:href="#DejaVuSans-32" x="159.033203"/>
       <use xlink:href="#DejaVuSans-35" x="222.65625"/>
      </g>
     </g>
    </g>
    <g id="ytick_3">
     <g id="line2d_21">
      <path d="M 57.6 231.839917 
L 414.72 231.839917 
" clip-path="url(#pd6b68e4554)" style="fill: none; stroke: #b0b0b0; stroke-width: 0.8; stroke-linecap: square"/>
     </g>
     <g id="line2d_22">
      <g>
       <use xlink:href="#md39b7822fd" x="57.6" y="231.839917" style="stroke: #000000; stroke-width: 0.8"/>
      </g>
     </g>
     <g id="text_12">
      <!-- 0.050 -->
      <g transform="translate(21.971875 235.639135) scale(0.1 -0.1)">
       <use xlink:href="#DejaVuSans-30"/>
       <use xlink:href="#DejaVuSans-2e" x="63.623047"/>
       <use xlink:href="#DejaVuSans-30" x="95.410156"/>
       <use xlink:href="#DejaVuSans-35" x="159.033203"/>
       <use xlink:href="#DejaVuSans-30" x="222.65625"/>
      </g>
     </g>
    </g>
    <g id="ytick_4">
     <g id="line2d_23">
      <path d="M 57.6 200.015875 
L 414.72 200.015875 
" clip-path="url(#pd6b68e4554)" style="fill: none; stroke: #b0b0b0; stroke-width: 0.8; stroke-linecap: square"/>
     </g>
     <g id="line2d_24">
      <g>
       <use xlink:href="#md39b7822fd" x="57.6" y="200.015875" style="stroke: #000000; stroke-width: 0.8"/>
      </g>
     </g>
     <g id="text_13">
      <!-- 0.075 -->
      <g transform="translate(21.971875 203.815094) scale(0.1 -0.1)">
       <defs>
        <path id="DejaVuSans-37" d="M 525 4666 
L 3525 4666 
L 3525 4397 
L 1831 0 
L 1172 0 
L 2766 4134 
L 525 4134 
L 525 4666 
z
" transform="scale(0.015625)"/>
       </defs>
       <use xlink:href="#DejaVuSans-30"/>
       <use xlink:href="#DejaVuSans-2e" x="63.623047"/>
       <use xlink:href="#DejaVuSans-30" x="95.410156"/>
       <use xlink:href="#DejaVuSans-37" x="159.033203"/>
       <use xlink:href="#DejaVuSans-35" x="222.65625"/>
      </g>
     </g>
    </g>
    <g id="ytick_5">
     <g id="line2d_25">
      <path d="M 57.6 168.191833 
L 414.72 168.191833 
" clip-path="url(#pd6b68e4554)" style="fill: none; stroke: #b0b0b0; stroke-width: 0.8; stroke-linecap: square"/>
     </g>
     <g id="line2d_26">
      <g>
       <use xlink:href="#md39b7822fd" x="57.6" y="168.191833" style="stroke: #000000; stroke-width: 0.8"/>
      </g>
     </g>
     <g id="text_14">
      <!-- 0.100 -->
      <g transform="translate(21.971875 171.991052) scale(0.1 -0.1)">
       <use xlink:href="#DejaVuSans-30"/>
       <use xlink:href="#DejaVuSans-2e" x="63.623047"/>
       <use xlink:href="#DejaVuSans-31" x="95.410156"/>
       <use xlink:href="#DejaVuSans-30" x="159.033203"/>
       <use xlink:href="#DejaVuSans-30" x="222.65625"/>
      </g>
     </g>
    </g>
    <g id="ytick_6">
     <g id="line2d_27">
      <path d="M 57.6 136.367792 
L 414.72 136.367792 
" clip-path="url(#pd6b68e4554)" style="fill: none; stroke: #b0b0b0; stroke-width: 0.8; stroke-linecap: square"/>
     </g>
     <g id="line2d_28">
      <g>
       <use xlink:href="#md39b7822fd" x="57.6" y="136.367792" style="stroke: #000000; stroke-width: 0.8"/>
      </g>
     </g>
     <g id="text_15">
      <!-- 0.125 -->
      <g transform="translate(21.971875 140.16701) scale(0.1 -0.1)">
       <use xlink:href="#DejaVuSans-30"/>
       <use xlink:href="#DejaVuSans-2e" x="63.623047"/>
       <use xlink:href="#DejaVuSans-31" x="95.410156"/>
       <use xlink:href="#DejaVuSans-32" x="159.033203"/>
       <use xlink:href="#DejaVuSans-35" x="222.65625"/>
      </g>
     </g>
    </g>
    <g id="ytick_7">
     <g id="line2d_29">
      <path d="M 57.6 104.54375 
L 414.72 104.54375 
" clip-path="url(#pd6b68e4554)" style="fill: none; stroke: #b0b0b0; stroke-width: 0.8; stroke-linecap: square"/>
     </g>
     <g id="line2d_30">
      <g>
       <use xlink:href="#md39b7822fd" x="57.6" y="104.54375" style="stroke: #000000; stroke-width: 0.8"/>
      </g>
     </g>
     <g id="text_16">
      <!-- 0.150 -->
      <g transform="translate(21.971875 108.342969) scale(0.1 -0.1)">
       <use xlink:href="#DejaVuSans-30"/>
       <use xlink:href="#DejaVuSans-2e" x="63.623047"/>
       <use xlink:href="#DejaVuSans-31" x="95.410156"/>
       <use xlink:href="#DejaVuSans-35" x="159.033203"/>
       <use xlink:href="#DejaVuSans-30" x="222.65625"/>
      </g>
     </g>
    </g>
    <g id="ytick_8">
     <g id="line2d_31">
      <path d="M 57.6 72.719708 
L 414.72 72.719708 
" clip-path="url(#pd6b68e4554)" style="fill: none; stroke: #b0b0b0; stroke-width: 0.8; stroke-linecap: square"/>
     </g>
     <g id="line2d_32">
      <g>
       <use xlink:href="#md39b7822fd" x="57.6" y="72.719708" style="stroke: #000000; stroke-width: 0.8"/>
      </g>
     </g>
     <g id="text_17">
      <!-- 0.175 -->
      <g transform="translate(21.971875 76.518927) scale(0.1 -0.1)">
       <use xlink:href="#DejaVuSans-30"/>
       <use xlink:href="#DejaVuSans-2e" x="63.623047"/>
       <use xlink:href="#DejaVuSans-31" x="95.410156"/>
       <use xlink:href="#DejaVuSans-37" x="159.033203"/>
       <use xlink:href="#DejaVuSans-35" x="222.65625"/>
      </g>
     </g>
    </g>
    <g id="text_18">
     <!-- Tracking error(m) -->
     <g transform="translate(15.892187 217.803781) rotate(-90) scale(0.1 -0.1)">
      <defs>
       <path id="DejaVuSans-72" d="M 2631 2963 
Q 2534 3019 2420 3045 
Q 2306 3072 2169 3072 
Q 1681 3072 1420 2755 
Q 1159 2438 1159 1844 
L 1159 0 
L 581 0 
L 581 3500 
L 1159 3500 
L 1159 2956 
Q 1341 3275 1631 3429 
Q 1922 3584 2338 3584 
Q 2397 3584 2469 3576 
Q 2541 3569 2628 3553 
L 2631 2963 
z
" transform="scale(0.015625)"/>
       <path id="DejaVuSans-61" d="M 2194 1759 
Q 1497 1759 1228 1600 
Q 959 1441 959 1056 
Q 959 750 1161 570 
Q 1363 391 1709 391 
Q 2188 391 2477 730 
Q 2766 1069 2766 1631 
L 2766 1759 
L 2194 1759 
z
M 3341 1997 
L 3341 0 
L 2766 0 
L 2766 531 
Q 2569 213 2275 61 
Q 1981 -91 1556 -91 
Q 1019 -91 701 211 
Q 384 513 384 1019 
Q 384 1609 779 1909 
Q 1175 2209 1959 2209 
L 2766 2209 
L 2766 2266 
Q 2766 2663 2505 2880 
Q 2244 3097 1772 3097 
Q 1472 3097 1187 3025 
Q 903 2953 641 2809 
L 641 3341 
Q 956 3463 1253 3523 
Q 1550 3584 1831 3584 
Q 2591 3584 2966 3190 
Q 3341 2797 3341 1997 
z
" transform="scale(0.015625)"/>
       <path id="DejaVuSans-63" d="M 3122 3366 
L 3122 2828 
Q 2878 2963 2633 3030 
Q 2388 3097 2138 3097 
Q 1578 3097 1268 2742 
Q 959 2388 959 1747 
Q 959 1106 1268 751 
Q 1578 397 2138 397 
Q 2388 397 2633 464 
Q 2878 531 3122 666 
L 3122 134 
Q 2881 22 2623 -34 
Q 2366 -91 2075 -91 
Q 1284 -91 818 406 
Q 353 903 353 1747 
Q 353 2603 823 3093 
Q 1294 3584 2113 3584 
Q 2378 3584 2631 3529 
Q 2884 3475 3122 3366 
z
" transform="scale(0.015625)"/>
       <path id="DejaVuSans-6b" d="M 581 4863 
L 1159 4863 
L 1159 1991 
L 2875 3500 
L 3609 3500 
L 1753 1863 
L 3688 0 
L 2938 0 
L 1159 1709 
L 1159 0 
L 581 0 
L 581 4863 
z
" transform="scale(0.015625)"/>
       <path id="DejaVuSans-6e" d="M 3513 2113 
L 3513 0 
L 2938 0 
L 2938 2094 
Q 2938 2591 2744 2837 
Q 2550 3084 2163 3084 
Q 1697 3084 1428 2787 
Q 1159 2491 1159 1978 
L 1159 0 
L 581 0 
L 581 3500 
L 1159 3500 
L 1159 2956 
Q 1366 3272 1645 3428 
Q 1925 3584 2291 3584 
Q 2894 3584 3203 3211 
Q 3513 2838 3513 2113 
z
" transform="scale(0.015625)"/>
       <path id="DejaVuSans-67" d="M 2906 1791 
Q 2906 2416 2648 2759 
Q 2391 3103 1925 3103 
Q 1463 3103 1205 2759 
Q 947 2416 947 1791 
Q 947 1169 1205 825 
Q 1463 481 1925 481 
Q 2391 481 2648 825 
Q 2906 1169 2906 1791 
z
M 3481 434 
Q 3481 -459 3084 -895 
Q 2688 -1331 1869 -1331 
Q 1566 -1331 1297 -1286 
Q 1028 -1241 775 -1147 
L 775 -588 
Q 1028 -725 1275 -790 
Q 1522 -856 1778 -856 
Q 2344 -856 2625 -561 
Q 2906 -266 2906 331 
L 2906 616 
Q 2728 306 2450 153 
Q 2172 0 1784 0 
Q 1141 0 747 490 
Q 353 981 353 1791 
Q 353 2603 747 3093 
Q 1141 3584 1784 3584 
Q 2172 3584 2450 3431 
Q 2728 3278 2906 2969 
L 2906 3500 
L 3481 3500 
L 3481 434 
z
" transform="scale(0.015625)"/>
       <path id="DejaVuSans-20" transform="scale(0.015625)"/>
       <path id="DejaVuSans-6f" d="M 1959 3097 
Q 1497 3097 1228 2736 
Q 959 2375 959 1747 
Q 959 1119 1226 758 
Q 1494 397 1959 397 
Q 2419 397 2687 759 
Q 2956 1122 2956 1747 
Q 2956 2369 2687 2733 
Q 2419 3097 1959 3097 
z
M 1959 3584 
Q 2709 3584 3137 3096 
Q 3566 2609 3566 1747 
Q 3566 888 3137 398 
Q 2709 -91 1959 -91 
Q 1206 -91 779 398 
Q 353 888 353 1747 
Q 353 2609 779 3096 
Q 1206 3584 1959 3584 
z
" transform="scale(0.015625)"/>
      </defs>
      <use xlink:href="#DejaVuSans-54"/>
      <use xlink:href="#DejaVuSans-72" x="46.333984"/>
      <use xlink:href="#DejaVuSans-61" x="87.447266"/>
      <use xlink:href="#DejaVuSans-63" x="148.726562"/>
      <use xlink:href="#DejaVuSans-6b" x="203.707031"/>
      <use xlink:href="#DejaVuSans-69" x="261.617188"/>
      <use xlink:href="#DejaVuSans-6e" x="289.400391"/>
      <use xlink:href="#DejaVuSans-67" x="352.779297"/>
      <use xlink:href="#DejaVuSans-20" x="416.255859"/>
      <use xlink:href="#DejaVuSans-65" x="448.042969"/>
      <use xlink:href="#DejaVuSans-72" x="509.566406"/>
      <use xlink:href="#DejaVuSans-72" x="548.929688"/>
      <use xlink:href="#DejaVuSans-6f" x="587.792969"/>
      <use xlink:href="#DejaVuSans-72" x="648.974609"/>
      <use xlink:href="#DejaVuSans-28" x="690.087891"/>
      <use xlink:href="#DejaVuSans-6d" x="729.101562"/>
      <use xlink:href="#DejaVuSans-29" x="826.513672"/>
     </g>
    </g>
   </g>
   <g id="line2d_33">
    <path d="M 73.832727 262.210236 
L 74.009458 259.796701 
L 74.009458 259.796701 
L 74.36292 274.952582 
L 74.36292 274.952582 
L 75.246574 288.598731 
L 75.246574 288.598731 
L 75.423305 295.488 
L 75.423305 295.488 
L 75.600036 292.103195 
L 75.600036 292.103195 
L 75.953497 295.351793 
L 75.953497 295.351793 
L 76.130228 293.962992 
L 76.130228 293.962992 
L 76.306959 295.488 
L 76.306959 295.488 
L 76.48369 290.888789 
L 76.48369 290.888789 
L 77.013882 287.160285 
L 77.013882 287.160285 
L 77.367344 286.107545 
L 77.367344 286.107545 
L 77.544075 286.088451 
L 77.544075 286.088451 
L 77.897536 286.604001 
L 77.897536 286.604001 
L 78.60446 288.229573 
L 78.60446 288.229573 
L 78.781191 288.176108 
L 78.781191 288.176108 
L 79.134652 287.585454 
L 79.134652 287.585454 
L 79.841576 285.922966 
L 79.841576 285.922966 
L 80.018307 285.836405 
L 80.018307 285.836405 
L 80.195037 286.09227 
L 80.195037 286.09227 
L 80.548499 287.227752 
L 80.548499 287.227752 
L 81.432153 290.901519 
L 81.432153 290.901519 
L 81.608884 291.089917 
L 81.608884 291.089917 
L 81.962346 290.882425 
L 81.962346 290.882425 
L 82.846 289.370146 
L 82.846 289.370146 
L 83.022731 289.512718 
L 83.022731 289.512718 
L 83.376192 290.930797 
L 83.376192 290.930797 
L 84.083116 295.476543 
L 84.083116 295.476543 
L 84.436577 293.573466 
L 84.436577 293.573466 
L 84.613308 293.097378 
L 84.613308 293.097378 
L 84.96677 293.014635 
L 84.96677 293.014635 
L 85.320232 293.582376 
L 85.320232 293.582376 
L 86.027155 295.148119 
L 86.027155 295.148119 
L 86.203886 295.013185 
L 86.557347 293.857336 
L 86.557347 293.857336 
L 87.441002 289.652744 
L 87.441002 289.652744 
L 87.794463 289.034084 
L 87.794463 289.034084 
L 87.971194 288.943704 
L 87.971194 288.943704 
L 88.147925 289.004806 
L 88.147925 289.004806 
L 88.678117 290.128831 
L 88.678117 290.128831 
L 89.031579 290.417794 
L 89.031579 290.417794 
L 89.20831 290.551455 
L 89.20831 290.551455 
L 89.561772 289.544542 
L 89.561772 289.544542 
L 89.915233 288.323772 
L 89.915233 288.323772 
L 90.268695 288.058996 
L 90.268695 288.058996 
L 90.445426 288.261397 
L 90.445426 288.261397 
L 90.798888 289.778767 
L 90.798888 289.778767 
L 91.32908 294.817149 
L 91.32908 294.817149 
L 91.505811 294.169212 
L 91.505811 294.169212 
L 93.626581 268.376462 
L 93.626581 268.376462 
L 94.510235 255.74741 
L 94.510235 255.74741 
L 94.686966 253.596105 
L 94.686966 253.596105 
L 94.863697 253.204032 
L 94.863697 253.204032 
L 95.217158 251.054 
L 95.217158 251.054 
L 95.393889 251.348054 
L 95.393889 251.348054 
L 95.747351 250.374239 
L 95.747351 250.374239 
L 95.924082 250.756127 
L 95.924082 250.756127 
L 96.454274 248.701567 
L 96.454274 248.701567 
L 96.984467 241.100713 
L 96.984467 241.100713 
L 97.514659 228.542946 
L 97.514659 228.542946 
L 97.69139 226.067035 
L 97.69139 226.067035 
L 97.868121 221.350713 
L 97.868121 221.350713 
L 98.221583 217.3307 
L 98.221583 217.3307 
L 98.398313 214.191576 
L 98.398313 214.191576 
L 98.575044 217.403258 
L 98.575044 217.403258 
L 98.751775 216.616568 
L 98.751775 216.616568 
L 98.928506 221.135582 
L 98.928506 221.135582 
L 99.105237 222.57021 
L 99.105237 222.57021 
L 99.458698 230.695524 
L 99.458698 230.695524 
L 99.635429 231.469485 
L 99.635429 231.469485 
L 99.81216 239.599891 
L 99.81216 239.599891 
L 99.988891 240.587709 
L 99.988891 240.587709 
L 100.165622 247.27585 
L 100.165622 247.27585 
L 100.342353 247.77867 
L 100.342353 247.77867 
L 100.519083 252.773771 
L 100.519083 252.773771 
L 100.695814 252.683391 
L 100.695814 252.683391 
L 100.872545 256.47809 
L 100.872545 256.47809 
L 101.049276 256.685582 
L 101.049276 256.685582 
L 101.226007 254.904709 
L 101.226007 254.904709 
L 101.402738 260.853259 
L 101.402738 260.853259 
L 101.579469 260.013104 
L 101.756199 264.749795 
L 101.756199 264.749795 
L 101.93293 264.250794 
L 101.93293 264.250794 
L 102.109661 266.594316 
L 102.109661 266.594316 
L 102.286392 264.691238 
L 102.286392 264.691238 
L 102.463123 264.072579 
L 102.463123 264.072579 
L 102.993315 250.687387 
L 102.993315 250.687387 
L 103.170046 240.456594 
L 103.346777 243.822305 
L 103.346777 243.822305 
L 103.523508 236.576607 
L 103.523508 236.576607 
L 103.700239 241.618808 
L 103.700239 241.618808 
L 103.876969 237.876301 
L 104.0537 244.103629 
L 104.0537 244.103629 
L 104.230431 243.259656 
L 104.230431 243.259656 
L 104.407162 250.490078 
L 104.583893 252.155112 
L 104.583893 252.155112 
L 104.937354 263.705966 
L 104.937354 263.705966 
L 105.114085 265.442286 
L 105.114085 265.442286 
L 105.290816 277.122982 
L 105.290816 277.122982 
L 105.467547 281.256289 
L 105.467547 281.256289 
L 105.644278 292.934439 
L 105.644278 292.934439 
L 105.821009 291.751858 
L 105.821009 291.751858 
L 107.588317 181.023287 
L 107.588317 181.023287 
L 108.118509 154.2389 
L 108.118509 154.2389 
L 108.29524 153.491672 
L 108.29524 153.491672 
L 108.471971 149.08086 
L 108.471971 149.08086 
L 109.002164 155.440576 
L 109.002164 155.440576 
L 110.769472 261.012379 
L 110.769472 261.012379 
L 111.829857 281.866037 
L 111.829857 281.866037 
L 112.006588 282.526704 
L 112.006588 282.526704 
L 112.183319 287.960978 
L 112.183319 287.960978 
L 112.360049 289.38033 
L 112.360049 289.38033 
L 112.53678 289.713846 
L 112.53678 289.713846 
L 112.713511 295.302148 
L 112.713511 295.302148 
L 112.890242 293.980813 
L 112.890242 293.980813 
L 113.243704 286.969341 
L 113.243704 286.969341 
L 113.420435 285.124819 
L 113.420435 285.124819 
L 113.773896 275.379025 
L 113.773896 275.379025 
L 113.950627 271.966214 
L 113.950627 271.966214 
L 115.364474 202.453597 
L 115.364474 202.453597 
L 116.955051 112.672883 
L 116.955051 112.672883 
L 117.308513 105.172593 
L 117.308513 105.172593 
L 117.661975 102.60121 
L 117.661975 102.60121 
L 118.015436 107.822899 
L 118.015436 107.822899 
L 118.192167 108.980021 
L 118.192167 108.980021 
L 118.72236 126.213376 
L 118.72236 126.213376 
L 119.075821 133.54309 
L 119.075821 133.54309 
L 119.606014 157.717905 
L 119.606014 157.717905 
L 120.136206 182.934002 
L 120.136206 182.934002 
L 120.489668 204.522159 
L 120.489668 204.522159 
L 121.903515 294.008819 
L 121.903515 294.008819 
L 122.787169 257.001277 
L 122.787169 257.001277 
L 122.9639 254.965811 
L 122.9639 254.965811 
L 123.14063 248.441883 
L 123.317361 246.948699 
L 123.317361 246.948699 
L 123.494092 243.010155 
L 123.494092 243.010155 
L 123.670823 242.684277 
L 123.670823 242.684277 
L 123.847554 244.592447 
L 123.847554 244.592447 
L 124.024285 240.739192 
L 124.024285 240.739192 
L 124.201015 242.316391 
L 124.201015 242.316391 
L 124.377746 240.180361 
L 124.377746 240.180361 
L 124.554477 242.069437 
L 124.554477 242.069437 
L 124.731208 245.800487 
L 124.731208 245.800487 
L 124.907939 243.41623 
L 124.907939 243.41623 
L 125.08467 247.126913 
L 125.08467 247.126913 
L 125.261401 246.685196 
L 125.261401 246.685196 
L 125.968324 262.611219 
L 125.968324 262.611219 
L 126.145055 263.736517 
L 126.145055 263.736517 
L 126.321786 268.824545 
L 126.321786 268.824545 
L 126.498516 270.439933 
L 126.498516 270.439933 
L 126.851978 280.369034 
L 126.851978 280.369034 
L 127.028709 279.866214 
L 127.028709 279.866214 
L 127.20544 283.174642 
L 127.382171 281.892769 
L 127.382171 281.892769 
L 127.558901 283.086807 
L 127.558901 283.086807 
L 127.735632 285.118454 
L 127.735632 285.118454 
L 127.912363 281.298296 
L 128.089094 281.913137 
L 128.089094 281.913137 
L 128.265825 278.91022 
L 128.265825 278.91022 
L 128.442556 279.074432 
L 128.442556 279.074432 
L 128.619286 280.971145 
L 128.619286 280.971145 
L 128.796017 278.249553 
L 128.796017 278.249553 
L 128.972748 280.397039 
L 128.972748 280.397039 
L 129.149479 279.448683 
L 129.149479 279.448683 
L 129.32621 281.53634 
L 129.32621 281.53634 
L 129.502941 285.37432 
L 129.502941 285.37432 
L 129.679671 284.634729 
L 129.679671 284.634729 
L 129.856402 288.024626 
L 129.856402 288.024626 
L 130.033133 288.267761 
L 130.033133 288.267761 
L 130.386595 293.474175 
L 130.386595 293.474175 
L 130.563326 291.597829 
L 130.563326 291.597829 
L 130.916787 295.407803 
L 130.916787 295.407803 
L 131.093518 291.723852 
L 131.093518 291.723852 
L 131.270249 292.611107 
L 131.270249 292.611107 
L 131.44698 289.832231 
L 131.44698 289.832231 
L 131.623711 295.488 
L 131.623711 295.488 
L 131.977172 287.109366 
L 131.977172 287.109366 
L 132.153903 287.152647 
L 132.153903 287.152647 
L 132.330634 288.122644 
L 132.330634 288.122644 
L 132.507365 283.420323 
L 132.507365 283.420323 
L 132.684096 283.578171 
L 132.684096 283.578171 
L 132.860826 280.220098 
L 133.037557 279.732553 
L 133.037557 279.732553 
L 133.214288 280.288838 
L 133.214288 280.288838 
L 133.391019 276.769099 
L 133.391019 276.769099 
L 133.56775 276.881119 
L 133.56775 276.881119 
L 133.744481 277.90458 
L 133.744481 277.90458 
L 133.921211 274.099698 
L 133.921211 274.099698 
L 134.097942 274.275367 
L 134.097942 274.275367 
L 134.274673 271.798183 
L 134.274673 271.798183 
L 134.451404 271.01022 
L 134.451404 271.01022 
L 134.628135 270.764539 
L 134.628135 270.764539 
L 134.981596 265.579766 
L 134.981596 265.579766 
L 135.158327 264.211332 
L 135.158327 264.211332 
L 135.511789 256.355885 
L 135.511789 256.355885 
L 135.68852 253.971628 
L 135.68852 253.971628 
L 136.041981 245.11818 
L 136.041981 245.11818 
L 136.218712 242.579894 
L 136.218712 242.579894 
L 136.572174 234.514409 
L 136.572174 234.514409 
L 136.748905 232.579507 
L 136.748905 232.579507 
L 137.102367 225.691512 
L 137.102367 225.691512 
L 137.279097 224.003565 
L 137.279097 224.003565 
L 137.632559 217.781328 
L 137.632559 217.781328 
L 137.986021 214.486903 
L 137.986021 214.486903 
L 138.339482 207.124093 
L 138.339482 207.124093 
L 138.516213 204.864586 
L 138.516213 204.864586 
L 138.869675 196.431215 
L 138.869675 196.431215 
L 139.046406 193.202984 
L 139.046406 193.202984 
L 139.576598 179.381166 
L 139.576598 179.381166 
L 139.93006 168.760847 
L 139.93006 168.760847 
L 141.874099 115.442848 
L 141.874099 115.442848 
L 142.404292 110.587772 
L 142.404292 110.587772 
L 142.581022 111.021852 
L 142.581022 111.021852 
L 142.934484 113.379377 
L 142.934484 113.379377 
L 143.287946 119.194266 
L 143.287946 119.194266 
L 143.994869 136.924076 
L 143.994869 136.924076 
L 144.878523 167.415327 
L 144.878523 167.415327 
L 147.176024 255.161847 
L 147.176024 255.161847 
L 147.882947 271.371741 
L 147.882947 271.371741 
L 149.473525 294.845154 
L 149.473525 294.845154 
L 149.826987 290.626559 
L 149.826987 290.626559 
L 150.180448 287.496347 
L 150.180448 287.496347 
L 150.53391 285.912782 
L 150.53391 285.912782 
L 151.064103 288.300858 
L 151.064103 288.300858 
L 151.417564 291.59401 
L 151.417564 291.59401 
L 151.594295 294.300327 
L 151.594295 294.300327 
L 151.771026 294.475995 
L 151.771026 294.475995 
L 152.301218 289.053179 
L 152.301218 289.053179 
L 152.477949 288.384874 
L 152.477949 288.384874 
L 152.65468 288.359415 
L 152.65468 288.359415 
L 152.831411 288.874964 
L 152.831411 288.874964 
L 153.008142 289.777494 
L 153.184873 295.488 
L 153.184873 295.488 
L 153.538334 293.610382 
L 153.538334 293.610382 
L 153.715065 295.488 
L 153.715065 295.488 
L 154.068527 280.488693 
L 154.068527 280.488693 
L 155.482373 240.91486 
L 155.482373 240.91486 
L 155.659104 237.568244 
L 155.659104 237.568244 
L 155.835835 236.822289 
L 155.835835 236.822289 
L 156.189297 232.795911 
L 156.189297 232.795911 
L 156.366028 235.326559 
L 156.366028 235.326559 
L 156.542758 233.876655 
L 156.542758 233.876655 
L 156.719489 236.439127 
L 156.719489 236.439127 
L 156.89622 234.891206 
L 156.89622 234.891206 
L 157.072951 236.781554 
L 157.072951 236.781554 
L 157.249682 234.529685 
L 157.249682 234.529685 
L 157.426413 235.339288 
L 157.426413 235.339288 
L 157.603143 232.40002 
L 157.603143 232.40002 
L 157.779874 232.271451 
L 157.779874 232.271451 
L 157.956605 228.448747 
L 157.956605 228.448747 
L 158.133336 227.339997 
L 158.133336 227.339997 
L 158.663528 215.493816 
L 158.663528 215.493816 
L 158.840259 213.075189 
L 158.840259 213.075189 
L 159.370452 196.874206 
L 159.370452 196.874206 
L 159.547183 193.456304 
L 159.547183 193.456304 
L 160.077375 174.338965 
L 160.077375 174.338965 
L 160.254106 170.96689 
L 160.784299 145.967196 
L 160.784299 145.967196 
L 160.961029 142.554385 
L 160.961029 142.554385 
L 161.13776 130.598729 
L 161.13776 130.598729 
L 161.314491 128.311217 
L 161.314491 128.311217 
L 161.491222 115.446667 
L 161.667953 113.625058 
L 161.667953 113.625058 
L 161.844684 99.968726 
L 162.021414 98.92617 
L 162.021414 98.92617 
L 162.198145 85.170546 
L 162.198145 85.170546 
L 162.374876 84.709734 
L 162.374876 84.709734 
L 162.551607 80.172899 
L 162.551607 80.172899 
L 162.728338 71.397101 
L 162.728338 71.397101 
L 162.905069 68.434919 
L 162.905069 68.434919 
L 163.081799 61.259234 
L 163.081799 61.259234 
L 163.25853 60.498003 
L 163.25853 60.498003 
L 163.435261 55.315776 
L 163.435261 55.315776 
L 163.611992 56.899341 
L 163.611992 56.899341 
L 163.788723 53.568 
L 163.788723 53.568 
L 163.965454 57.402161 
L 163.965454 57.402161 
L 164.142184 55.799502 
L 164.142184 55.799502 
L 164.318915 61.801516 
L 164.318915 61.801516 
L 164.495646 61.111571 
L 164.495646 61.111571 
L 164.672377 67.705512 
L 164.672377 67.705512 
L 164.849108 67.09831 
L 164.849108 67.09831 
L 165.025839 74.77936 
L 165.025839 74.77936 
L 165.202569 75.149792 
L 165.202569 75.149792 
L 165.3793 84.432229 
L 165.3793 84.432229 
L 165.556031 85.64918 
L 165.556031 85.64918 
L 165.732762 95.495538 
L 165.732762 95.495538 
L 165.909493 96.480811 
L 165.909493 96.480811 
L 166.086224 106.521932 
L 166.086224 106.521932 
L 166.262954 107.783437 
L 166.262954 107.783437 
L 166.439685 117.866567 
L 166.439685 117.866567 
L 166.616416 118.831472 
L 166.616416 118.831472 
L 166.793147 127.967518 
L 166.793147 127.967518 
L 166.969878 127.725655 
L 166.969878 127.725655 
L 167.146609 136.28123 
L 167.146609 136.28123 
L 167.323339 135.609106 
L 167.323339 135.609106 
L 167.676801 149.200518 
L 167.676801 149.200518 
L 167.853532 150.736983 
L 167.853532 150.736983 
L 168.030263 156.069419 
L 168.030263 156.069419 
L 168.206994 157.162893 
L 168.206994 157.162893 
L 168.383724 162.331118 
L 168.383724 162.331118 
L 168.560455 162.807205 
L 168.560455 162.807205 
L 168.737186 168.232568 
L 168.737186 168.232568 
L 168.913917 168.310219 
L 168.913917 168.310219 
L 169.090648 173.367695 
L 169.090648 173.367695 
L 169.267379 172.830506 
L 169.267379 172.830506 
L 169.444109 177.831972 
L 169.444109 177.831972 
L 169.62084 177.148392 
L 169.62084 177.148392 
L 169.797571 182.307705 
L 169.797571 182.307705 
L 169.974302 181.242236 
L 169.974302 181.242236 
L 170.151033 186.244976 
L 170.151033 186.244976 
L 170.327764 184.887999 
L 170.327764 184.887999 
L 170.504494 189.70234 
L 170.504494 189.70234 
L 170.681225 188.153145 
L 170.681225 188.153145 
L 170.857956 192.933116 
L 170.857956 192.933116 
L 171.034687 191.51631 
L 171.034687 191.51631 
L 171.211418 196.282278 
L 171.211418 196.282278 
L 171.388149 195.277912 
L 171.388149 195.277912 
L 171.564879 200.354483 
L 171.564879 200.354483 
L 171.74161 200.027332 
L 171.74161 200.027332 
L 171.918341 205.441238 
L 171.918341 205.441238 
L 172.095072 205.935147 
L 172.095072 205.935147 
L 172.271803 211.720758 
L 172.271803 211.720758 
L 172.448534 213.112105 
L 172.448534 213.112105 
L 172.978726 227.909011 
L 172.978726 227.909011 
L 173.155457 231.363829 
L 173.155457 231.363829 
L 173.86238 254.671757 
L 173.86238 254.671757 
L 174.039111 258.447361 
L 174.039111 258.447361 
L 174.569304 278.36412 
L 174.569304 278.36412 
L 175.276227 293.166118 
L 175.276227 293.166118 
L 175.452958 295.488 
L 175.452958 295.488 
L 175.80642 282.025157 
L 175.80642 282.025157 
L 175.98315 280.498876 
L 175.98315 280.498876 
L 176.159881 276.553968 
L 176.159881 276.553968 
L 176.336612 275.17917 
L 176.336612 275.17917 
L 176.513343 275.314104 
L 176.690074 270.765811 
L 176.690074 270.765811 
L 176.866805 271.002582 
L 176.866805 271.002582 
L 177.043535 267.711976 
L 177.043535 267.711976 
L 177.220266 267.965296 
L 177.220266 267.965296 
L 177.396997 269.73344 
L 177.396997 269.73344 
L 177.573728 265.950197 
L 177.573728 265.950197 
L 177.750459 267.168422 
L 177.750459 267.168422 
L 177.92719 264.348812 
L 177.92719 264.348812 
L 178.10392 264.785438 
L 178.10392 264.785438 
L 178.280651 266.255708 
L 178.280651 266.255708 
L 178.457382 262.282795 
L 178.457382 262.282795 
L 178.634113 262.588306 
L 178.634113 262.588306 
L 178.987575 258.115118 
L 178.987575 258.115118 
L 179.164305 257.134938 
L 179.164305 257.134938 
L 179.517767 248.6341 
L 179.517767 248.6341 
L 179.694498 245.503887 
L 179.694498 245.503887 
L 182.34546 135.919709 
L 182.34546 135.919709 
L 182.522191 132.761491 
L 182.522191 132.761491 
L 182.698922 132.057543 
L 182.698922 132.057543 
L 182.875653 132.315955 
L 182.875653 132.315955 
L 183.052384 133.98608 
L 183.052384 133.98608 
L 183.229115 137.067921 
L 183.229115 137.067921 
L 183.759307 157.813377 
L 183.759307 157.813377 
L 184.2895 188.673787 
L 184.2895 188.673787 
L 185.526616 256.754322 
L 185.526616 256.754322 
L 186.056808 272.304822 
L 186.056808 272.304822 
L 186.41027 278.156627 
L 186.41027 278.156627 
L 186.763731 280.8744 
L 186.763731 280.8744 
L 187.117193 281.507062 
L 187.117193 281.507062 
L 187.470655 279.327752 
L 187.470655 279.327752 
L 187.824116 273.710172 
L 187.824116 273.710172 
L 188.177578 265.055305 
L 188.177578 265.055305 
L 188.354309 260.778154 
L 188.354309 260.778154 
L 189.944886 184.331714 
L 189.944886 184.331714 
L 190.121617 171.632649 
L 190.121617 171.632649 
L 190.298348 166.95706 
L 190.298348 166.95706 
L 190.475079 155.374382 
L 190.475079 155.374382 
L 190.65181 154.525317 
L 190.65181 154.525317 
L 190.828541 151.499487 
L 190.828541 151.499487 
L 191.005271 145.4962 
L 191.005271 145.4962 
L 191.182002 146.202693 
L 191.182002 146.202693 
L 191.358733 141.968823 
L 191.358733 141.968823 
L 191.535464 147.504933 
L 191.535464 147.504933 
L 191.712195 146.450921 
L 191.712195 146.450921 
L 191.888926 158.377299 
L 191.888926 158.377299 
L 192.065656 159.372755 
L 192.065656 159.372755 
L 192.419118 188.54649 
L 192.419118 188.54649 
L 192.595849 193.99222 
L 192.595849 193.99222 
L 192.77258 207.348134 
L 192.77258 207.348134 
L 192.949311 208.271031 
L 192.949311 208.271031 
L 193.126041 220.271241 
L 193.126041 220.271241 
L 193.302772 215.42253 
L 193.302772 215.42253 
L 193.479503 225.164506 
L 193.479503 225.164506 
L 193.656234 228.502211 
L 193.656234 228.502211 
L 193.832965 219.937725 
L 193.832965 219.937725 
L 194.009696 220.029378 
L 194.009696 220.029378 
L 194.186426 205.173916 
L 194.186426 205.173916 
L 194.363157 204.328669 
L 194.363157 204.328669 
L 194.539888 199.161718 
L 194.539888 199.161718 
L 194.716619 187.804354 
L 194.716619 187.804354 
L 194.89335 186.840722 
L 194.89335 186.840722 
L 195.070081 178.156577 
L 195.070081 178.156577 
L 195.246812 184.000744 
L 195.246812 184.000744 
L 195.423542 178.29533 
L 195.423542 178.29533 
L 195.777004 199.073883 
L 195.777004 199.073883 
L 195.953735 202.162088 
L 195.953735 202.162088 
L 196.130466 214.564554 
L 196.130466 214.564554 
L 196.307197 217.147393 
L 196.307197 217.147393 
L 196.660658 237.103613 
L 196.660658 237.103613 
L 196.837389 238.458044 
L 196.837389 238.458044 
L 197.01412 243.361493 
L 197.01412 243.361493 
L 197.190851 239.164538 
L 197.190851 239.164538 
L 197.367582 241.901406 
L 197.367582 241.901406 
L 197.544312 232.636791 
L 197.544312 232.636791 
L 197.721043 235.386388 
L 197.721043 235.386388 
L 197.897774 234.639159 
L 197.897774 234.639159 
L 198.074505 226.067035 
L 198.074505 226.067035 
L 198.251236 227.037032 
L 198.251236 227.037032 
L 198.427967 217.757142 
L 198.427967 217.757142 
L 198.781428 225.206513 
L 198.781428 225.206513 
L 198.958159 222.612218 
L 198.958159 222.612218 
L 199.13489 228.634599 
L 199.13489 228.634599 
L 199.311621 225.095766 
L 199.311621 225.095766 
L 199.488352 232.943574 
L 199.488352 232.943574 
L 199.665082 227.518212 
L 199.665082 227.518212 
L 200.018544 240.648811 
L 200.018544 240.648811 
L 200.195275 236.273642 
L 200.195275 236.273642 
L 200.372006 239.972869 
L 200.548737 232.344009 
L 200.548737 232.344009 
L 200.725467 235.39148 
L 200.725467 235.39148 
L 200.902198 225.332537 
L 200.902198 225.332537 
L 201.078929 228.508576 
L 201.078929 228.508576 
L 201.25566 228.096136 
L 201.25566 228.096136 
L 201.432391 221.761879 
L 201.432391 221.761879 
L 201.609122 223.146861 
L 201.609122 223.146861 
L 201.785852 218.188676 
L 201.785852 218.188676 
L 201.962583 221.731328 
L 201.962583 221.731328 
L 202.139314 218.858254 
L 202.139314 218.858254 
L 202.316045 224.296346 
L 202.316045 224.296346 
L 202.492776 224.101583 
L 202.492776 224.101583 
L 203.199699 247.222385 
L 203.199699 247.222385 
L 204.260084 275.886936 
L 204.260084 275.886936 
L 205.143738 290.012992 
L 205.143738 290.012992 
L 205.4972 294.181941 
L 205.4972 294.181941 
L 205.850662 295.488 
L 205.850662 295.488 
L 206.204123 290.701664 
L 206.204123 290.701664 
L 206.380854 290.173385 
L 206.380854 290.173385 
L 206.911047 286.005709 
L 206.911047 286.005709 
L 207.087778 295.488 
L 207.087778 295.488 
L 207.264508 283.654548 
L 207.264508 283.654548 
L 207.61797 279.252647 
L 207.61797 279.252647 
L 207.794701 277.688177 
L 207.794701 277.688177 
L 208.148163 273.150069 
L 208.148163 273.150069 
L 208.678355 267.767987 
L 208.678355 267.767987 
L 208.855086 266.370275 
L 208.855086 266.370275 
L 211.329318 230.364554 
L 211.329318 230.364554 
L 211.85951 227.089224 
L 211.85951 227.089224 
L 212.036241 226.740432 
L 212.036241 226.740432 
L 212.212972 226.685695 
L 212.212972 226.685695 
L 212.389703 226.881731 
L 212.389703 226.881731 
L 212.566433 226.476929 
L 212.566433 226.476929 
L 212.919895 227.12614 
L 212.919895 227.12614 
L 213.273357 228.186517 
L 213.273357 228.186517 
L 213.450088 227.812266 
L 214.157011 228.754258 
L 214.157011 228.754258 
L 214.333742 227.614957 
L 214.333742 227.614957 
L 214.510473 227.361638 
L 214.510473 227.361638 
L 214.687203 227.368002 
L 214.687203 227.368002 
L 214.863934 227.683697 
L 214.863934 227.683697 
L 215.040665 228.405466 
L 215.040665 228.405466 
L 215.217396 227.911557 
L 215.217396 227.911557 
L 215.570858 229.67079 
L 215.570858 229.67079 
L 215.747588 230.992124 
L 215.747588 230.992124 
L 215.924319 231.259446 
L 215.924319 231.259446 
L 216.277781 234.332376 
L 216.277781 234.332376 
L 217.338166 248.149102 
L 217.338166 248.149102 
L 218.22182 268.619598 
L 218.22182 268.619598 
L 218.752013 280.953324 
L 218.752013 280.953324 
L 219.282205 295.488 
L 219.282205 295.488 
L 219.458936 294.673305 
L 219.458936 294.673305 
L 219.635667 292.472354 
L 219.635667 292.472354 
L 219.812398 295.488 
L 219.812398 295.488 
L 219.989129 284.842222 
L 219.989129 284.842222 
L 220.165859 283.006611 
L 220.165859 283.006611 
L 222.109899 239.864667 
L 222.109899 239.864667 
L 222.286629 238.652807 
L 222.286629 238.652807 
L 222.46336 235.018502 
L 222.46336 235.018502 
L 222.640091 234.700262 
L 222.640091 234.700262 
L 222.816822 232.608785 
L 222.816822 232.608785 
L 222.993553 228.707158 
L 222.993553 228.707158 
L 223.170284 231.444026 
L 223.170284 231.444026 
L 223.347014 228.122869 
L 223.523745 230.876285 
L 223.523745 230.876285 
L 223.700476 227.967567 
L 223.700476 227.967567 
L 223.877207 230.382376 
L 223.877207 230.382376 
L 224.053938 227.698972 
L 224.053938 227.698972 
L 224.230669 229.539675 
L 224.407399 227.155418 
L 224.407399 227.155418 
L 224.58413 228.74662 
L 224.760861 226.998843 
L 224.760861 226.998843 
L 224.937592 222.736968 
L 224.937592 222.736968 
L 225.114323 227.679878 
L 225.114323 227.679878 
L 225.291054 224.186871 
L 225.291054 224.186871 
L 225.467784 228.94011 
L 225.467784 228.94011 
L 225.644515 226.026301 
L 225.644515 226.026301 
L 225.821246 230.502034 
L 225.821246 230.502034 
L 225.997977 228.219614 
L 225.997977 228.219614 
L 226.174708 232.312185 
L 226.174708 232.312185 
L 226.351439 230.461299 
L 226.351439 230.461299 
L 226.528169 234.003951 
L 226.528169 234.003951 
L 226.7049 232.438209 
L 226.7049 232.438209 
L 226.881631 235.201808 
L 226.881631 235.201808 
L 227.058362 233.730265 
L 227.058362 233.730265 
L 227.235093 229.384374 
L 227.235093 229.384374 
L 227.411824 234.679894 
L 227.411824 234.679894 
L 227.588554 230.271628 
L 227.588554 230.271628 
L 227.765285 235.395299 
L 227.765285 235.395299 
L 227.942016 231.464393 
L 227.942016 231.464393 
L 228.118747 237.101067 
L 228.118747 237.101067 
L 228.295478 234.965038 
L 228.295478 234.965038 
L 228.472209 241.045975 
L 228.472209 241.045975 
L 228.648939 240.921225 
L 228.648939 240.921225 
L 228.82567 246.935969 
L 228.82567 246.935969 
L 229.002401 247.91615 
L 229.002401 247.91615 
L 229.179132 253.484084 
L 229.179132 253.484084 
L 229.355863 255.010365 
L 229.355863 255.010365 
L 229.709324 262.180958 
L 229.709324 262.180958 
L 229.886055 262.299343 
L 229.886055 262.299343 
L 230.062786 269.902743 
L 230.062786 269.902743 
L 230.239517 270.95421 
L 230.239517 270.95421 
L 230.416248 278.353936 
L 230.416248 278.353936 
L 230.592979 280.50906 
L 230.592979 280.50906 
L 230.94644 291.223578 
L 230.94644 291.223578 
L 231.123171 292.261042 
L 231.123171 292.261042 
L 231.476633 282.583988 
L 231.476633 282.583988 
L 232.89048 211.618921 
L 232.89048 211.618921 
L 233.597403 182.786339 
L 233.597403 182.786339 
L 233.950865 179.089658 
L 233.950865 179.089658 
L 234.127595 178.688675 
L 234.127595 178.688675 
L 234.657788 197.794557 
L 234.657788 197.794557 
L 235.01125 223.406546 
L 235.01125 223.406546 
L 235.894904 295.488 
L 235.894904 295.488 
L 236.425096 256.456449 
L 236.425096 256.456449 
L 236.955289 234.281457 
L 236.955289 234.281457 
L 237.30875 224.310348 
L 237.30875 224.310348 
L 237.838943 216.171031 
L 237.838943 216.171031 
L 238.369135 211.839143 
L 238.369135 211.839143 
L 238.545866 210.610735 
L 238.545866 210.610735 
L 238.899328 205.173916 
L 238.899328 205.173916 
L 239.25279 201.160268 
L 239.25279 201.160268 
L 239.606251 195.605063 
L 239.606251 195.605063 
L 239.959713 192.529587 
L 239.959713 192.529587 
L 240.313175 190.677428 
L 240.313175 190.677428 
L 240.489905 191.042768 
L 240.489905 191.042768 
L 240.666636 192.260993 
L 240.666636 192.260993 
L 241.37356 201.864215 
L 241.37356 201.864215 
L 242.964137 232.784454 
L 242.964137 232.784454 
L 244.731446 281.934777 
L 244.731446 281.934777 
L 244.908176 282.767294 
L 244.908176 282.767294 
L 245.261638 286.772031 
L 245.261638 286.772031 
L 245.438369 285.832586 
L 245.438369 285.832586 
L 245.6151 285.847861 
L 245.6151 285.847861 
L 245.791831 285.991706 
L 245.791831 285.991706 
L 245.968561 286.374867 
L 245.968561 286.374867 
L 246.145292 284.080991 
L 246.145292 284.080991 
L 246.322023 284.349585 
L 246.498754 285.455789 
L 246.498754 285.455789 
L 246.675485 284.848586 
L 246.675485 284.848586 
L 247.205677 291.600375 
L 247.205677 291.600375 
L 247.382408 294.968632 
L 247.382408 294.968632 
L 248.796255 246.771757 
L 248.796255 246.771757 
L 249.149716 235.489498 
L 249.149716 235.489498 
L 249.503178 222.106852 
L 249.503178 222.106852 
L 249.679909 222.258334 
L 249.679909 222.258334 
L 250.033371 214.284502 
L 250.033371 214.284502 
L 250.210101 218.82643 
L 250.210101 218.82643 
L 250.386832 218.179765 
L 250.386832 218.179765 
L 250.740294 225.192511 
L 250.740294 225.192511 
L 250.917025 227.150326 
L 250.917025 227.150326 
L 251.270486 238.461863 
L 251.270486 238.461863 
L 251.447217 241.767745 
L 251.447217 241.767745 
L 251.800679 255.093107 
L 251.800679 255.093107 
L 251.97741 258.817793 
L 251.97741 258.817793 
L 252.330871 272.157159 
L 252.330871 272.157159 
L 252.507602 275.562331 
L 252.507602 275.562331 
L 252.861064 288.006804 
L 252.861064 288.006804 
L 253.037795 294.683488 
L 253.037795 294.683488 
L 253.391256 288.89915 
L 253.391256 288.89915 
L 253.744718 278.482505 
L 253.744718 278.482505 
L 253.921449 275.35993 
L 253.921449 275.35993 
L 254.274911 264.737065 
L 254.274911 264.737065 
L 254.451642 261.333166 
L 254.451642 261.333166 
L 254.805103 250.049633 
L 254.805103 250.049633 
L 254.981834 246.65719 
L 254.981834 246.65719 
L 255.335296 236.516778 
L 255.335296 236.516778 
L 255.512027 234.002679 
L 255.512027 234.002679 
L 255.865488 225.873545 
L 255.865488 225.873545 
L 256.042219 224.046845 
L 256.042219 224.046845 
L 256.395681 217.391802 
L 256.395681 217.391802 
L 256.572412 216.005546 
L 256.572412 216.005546 
L 256.925873 210.222482 
L 256.925873 210.222482 
L 257.102604 208.813313 
L 257.102604 208.813313 
L 257.456066 203.231376 
L 257.456066 203.231376 
L 257.632797 201.528153 
L 257.632797 201.528153 
L 257.986258 196.017502 
L 257.986258 196.017502 
L 259.576836 178.871982 
L 259.576836 178.871982 
L 260.813952 170.870145 
L 260.813952 170.870145 
L 261.167413 170.312587 
L 261.167413 170.312587 
L 261.520875 170.722481 
L 261.520875 170.722481 
L 261.874337 173.114376 
L 261.874337 173.114376 
L 262.227798 177.923625 
L 262.227798 177.923625 
L 262.58126 185.868179 
L 262.58126 185.868179 
L 263.288183 208.883326 
L 263.288183 208.883326 
L 264.348568 243.740835 
L 264.348568 243.740835 
L 265.408953 270.847281 
L 265.408953 270.847281 
L 266.115877 285.958609 
L 266.115877 285.958609 
L 266.292608 295.488 
L 266.292608 295.488 
L 266.469338 291.264313 
L 266.469338 291.264313 
L 266.8228 294.195944 
L 266.8228 294.195944 
L 266.999531 295.158303 
L 266.999531 295.158303 
L 267.176262 295.488 
L 267.176262 295.488 
L 267.352993 295.000456 
L 267.352993 295.000456 
L 267.529723 295.010639 
L 267.529723 295.010639 
L 267.706454 295.311058 
L 267.706454 295.311058 
L 267.883185 294.943172 
L 267.883185 294.943172 
L 268.059916 295.488 
L 268.059916 295.488 
L 268.236647 294.42635 
L 268.236647 294.42635 
L 268.413378 294.455628 
L 268.413378 294.455628 
L 268.590108 294.194671 
L 268.590108 294.194671 
L 268.766839 294.189579 
L 268.766839 294.189579 
L 268.94357 295.488 
L 269.120301 294.008819 
L 269.120301 294.008819 
L 269.297032 293.677849 
L 269.297032 293.677849 
L 269.650493 291.748039 
L 269.650493 291.748039 
L 269.827224 295.488 
L 269.827224 295.488 
L 270.003955 288.914426 
L 270.003955 288.914426 
L 271.06434 279.497056 
L 271.06434 279.497056 
L 271.594533 277.180265 
L 271.594533 277.180265 
L 271.947994 276.35284 
L 271.947994 276.35284 
L 272.124725 276.499231 
L 272.124725 276.499231 
L 272.654918 276.116069 
L 272.654918 276.116069 
L 272.831648 275.82838 
L 272.831648 275.82838 
L 273.008379 276.107159 
L 273.008379 276.107159 
L 273.361841 275.321741 
L 273.361841 275.321741 
L 273.715303 274.028412 
L 273.715303 274.028412 
L 274.245495 275.101519 
L 274.245495 275.101519 
L 274.598957 277.145895 
L 274.598957 277.145895 
L 275.482611 289.287404 
L 275.482611 289.287404 
L 275.836073 295.118841 
L 275.836073 295.118841 
L 276.012803 295.488 
L 276.012803 295.488 
L 276.366265 286.969341 
L 276.366265 286.969341 
L 276.896458 281.014426 
L 276.896458 281.014426 
L 277.42665 277.002051 
L 277.42665 277.002051 
L 277.956843 274.384841 
L 277.956843 274.384841 
L 278.310304 273.565054 
L 278.310304 273.565054 
L 278.487035 273.610881 
L 278.487035 273.610881 
L 278.663766 273.908754 
L 278.663766 273.908754 
L 279.017228 275.342109 
L 279.017228 275.342109 
L 279.370689 278.08916 
L 279.370689 278.08916 
L 280.077613 286.122821 
L 280.077613 286.122821 
L 280.431074 290.537452 
L 280.431074 290.537452 
L 280.607805 295.488 
L 280.607805 295.488 
L 280.784536 294.700037 
L 280.784536 294.700037 
L 280.961267 294.861703 
L 280.961267 294.861703 
L 281.844921 287.78149 
L 281.844921 287.78149 
L 282.375114 283.03207 
L 282.375114 283.03207 
L 282.905306 274.984406 
L 282.905306 274.984406 
L 283.258768 266.074948 
L 283.258768 266.074948 
L 283.965691 239.803565 
L 283.965691 239.803565 
L 284.495884 210.655289 
L 284.495884 210.655289 
L 285.026076 175.106561 
L 285.026076 175.106561 
L 285.202807 174.510815 
L 285.202807 174.510815 
L 285.379538 172.676477 
L 285.379538 172.676477 
L 285.556269 163.727557 
L 285.556269 163.727557 
L 285.732999 167.94106 
L 285.732999 167.94106 
L 285.90973 158.073061 
L 285.90973 158.073061 
L 286.263192 173.867969 
L 286.263192 173.867969 
L 286.439923 168.947973 
L 286.439923 168.947973 
L 286.616654 175.989996 
L 286.616654 175.989996 
L 286.793384 165.729925 
L 286.793384 165.729925 
L 286.970115 172.141833 
L 286.970115 172.141833 
L 287.146846 172.689207 
L 287.146846 172.689207 
L 287.323577 162.044701 
L 287.323577 162.044701 
L 287.500308 162.812297 
L 287.500308 162.812297 
L 287.677039 147.476928 
L 287.677039 147.476928 
L 287.853769 150.249439 
L 287.853769 150.249439 
L 288.0305 149.251437 
L 288.0305 149.251437 
L 288.207231 138.323061 
L 288.207231 138.323061 
L 288.383962 141.449455 
L 288.383962 141.449455 
L 288.560693 131.092638 
L 288.560693 131.092638 
L 288.914155 145.493654 
L 288.914155 145.493654 
L 289.090885 142.932455 
L 289.090885 142.932455 
L 289.267616 151.192703 
L 289.267616 151.192703 
L 289.444347 147.502387 
L 289.444347 147.502387 
L 289.797809 161.632262 
L 289.797809 161.632262 
L 289.97454 156.302371 
L 289.97454 156.302371 
L 290.15127 160.464956 
L 290.15127 160.464956 
L 290.328001 160.459864 
L 290.328001 160.459864 
L 290.504732 152.104144 
L 290.504732 152.104144 
L 290.681463 152.760992 
L 290.681463 152.760992 
L 290.858194 138.651485 
L 291.034925 141.272513 
L 291.034925 141.272513 
L 291.211655 140.091205 
L 291.211655 140.091205 
L 291.388386 129.777669 
L 291.388386 129.777669 
L 291.565117 132.336322 
L 291.565117 132.336322 
L 291.741848 120.809654 
L 291.741848 120.809654 
L 292.09531 132.69657 
L 292.09531 132.69657 
L 292.27204 127.75366 
L 292.27204 127.75366 
L 292.448771 135.786048 
L 292.448771 135.786048 
L 292.625502 128.624366 
L 292.625502 128.624366 
L 292.978964 148.581859 
L 292.978964 148.581859 
L 293.155695 147.714972 
L 293.155695 147.714972 
L 293.332425 158.666261 
L 293.332425 158.666261 
L 293.509156 157.762458 
L 293.509156 157.762458 
L 293.862618 178.567744 
L 293.862618 178.567744 
L 294.039349 182.449004 
L 294.039349 182.449004 
L 294.746272 219.106481 
L 294.746272 219.106481 
L 295.983388 265.391367 
L 295.983388 265.391367 
L 296.867042 279.144445 
L 296.867042 279.144445 
L 297.043773 278.942044 
L 297.043773 278.942044 
L 297.220504 279.326479 
L 297.220504 279.326479 
L 297.397235 277.321564 
L 297.397235 277.321564 
L 297.573965 276.700359 
L 297.573965 276.700359 
L 298.104158 268.554677 
L 298.104158 268.554677 
L 298.280889 267.519759 
L 298.280889 267.519759 
L 298.45762 263.756885 
L 298.45762 263.756885 
L 298.63435 263.117858 
L 298.63435 263.117858 
L 298.811081 259.699956 
L 298.811081 259.699956 
L 298.987812 259.851438 
L 298.987812 259.851438 
L 299.164543 257.160397 
L 299.341274 257.893623 
L 299.341274 257.893623 
L 299.518005 255.284052 
L 299.518005 255.284052 
L 299.694735 256.032553 
L 299.694735 256.032553 
L 299.871466 253.16457 
L 299.871466 253.16457 
L 300.048197 253.778138 
L 300.224928 250.925431 
L 300.224928 250.925431 
L 300.401659 251.442253 
L 300.401659 251.442253 
L 300.57839 248.769034 
L 300.57839 248.769034 
L 300.755121 249.301132 
L 300.755121 249.301132 
L 300.931851 247.258028 
L 300.931851 247.258028 
L 301.108582 243.521886 
L 301.108582 243.521886 
L 301.285313 247.786307 
L 301.285313 247.786307 
L 301.462044 245.879411 
L 301.462044 245.879411 
L 301.638775 251.180023 
L 301.638775 251.180023 
L 301.815506 251.358238 
L 301.815506 251.358238 
L 302.168967 261.326801 
L 302.168967 261.326801 
L 302.345698 263.674142 
L 302.345698 263.674142 
L 302.69916 283.680008 
L 302.69916 283.680008 
L 302.875891 292.852969 
L 302.875891 292.852969 
L 303.406083 253.468808 
L 303.406083 253.468808 
L 304.643199 163.32912 
L 304.643199 163.32912 
L 304.996661 152.461846 
L 304.996661 152.461846 
L 305.350122 145.549664 
L 305.350122 145.549664 
L 305.526853 148.576767 
L 305.526853 148.576767 
L 305.703584 147.42601 
L 305.703584 147.42601 
L 305.880315 152.228894 
L 305.880315 152.228894 
L 306.057046 151.592413 
L 306.057046 151.592413 
L 306.233776 156.53405 
L 306.233776 156.53405 
L 306.410507 155.42912 
L 306.410507 155.42912 
L 306.587238 159.433857 
L 306.587238 159.433857 
L 306.763969 156.661347 
L 306.763969 156.661347 
L 306.9407 159.358752 
L 306.9407 159.358752 
L 307.117431 155.466036 
L 307.117431 155.466036 
L 307.294161 157.389481 
L 307.294161 157.389481 
L 307.470892 152.44657 
L 307.470892 152.44657 
L 307.647623 153.862104 
L 307.647623 153.862104 
L 307.824354 148.296715 
L 307.824354 148.296715 
L 308.001085 149.782262 
L 308.001085 149.782262 
L 308.177816 143.659316 
L 308.177816 143.659316 
L 308.354546 146.084308 
L 308.354546 146.084308 
L 308.531277 141.001372 
L 308.531277 141.001372 
L 308.708008 145.334534 
L 308.708008 145.334534 
L 308.884739 142.433454 
L 308.884739 142.433454 
L 309.06147 149.541672 
L 309.06147 149.541672 
L 309.238201 148.659509 
L 309.238201 148.659509 
L 309.591662 164.738288 
L 309.591662 164.738288 
L 309.768393 168.492252 
L 309.768393 168.492252 
L 309.945124 175.712491 
L 309.945124 175.712491 
L 310.121855 177.63339 
L 310.121855 177.63339 
L 310.298586 183.015472 
L 310.298586 183.015472 
L 310.475316 181.855804 
L 310.475316 181.855804 
L 310.652047 185.875817 
L 310.652047 185.875817 
L 310.828778 181.915633 
L 310.828778 181.915633 
L 311.005509 186.406642 
L 311.005509 186.406642 
L 311.18224 187.241705 
L 311.18224 187.241705 
L 311.358971 183.242059 
L 311.358971 183.242059 
L 311.535701 184.745427 
L 311.535701 184.745427 
L 311.712432 180.262056 
L 311.712432 180.262056 
L 311.889163 184.611766 
L 311.889163 184.611766 
L 312.065894 180.488643 
L 312.065894 180.488643 
L 312.242625 187.067309 
L 312.242625 187.067309 
L 312.419356 181.234599 
L 312.419356 181.234599 
L 312.772817 191.303725 
L 312.772817 191.303725 
L 312.949548 187.49757 
L 312.949548 187.49757 
L 313.126279 189.561041 
L 313.126279 189.561041 
L 313.30301 182.643767 
L 313.30301 182.643767 
L 313.479741 184.898182 
L 313.479741 184.898182 
L 313.656472 176.672304 
L 313.656472 176.672304 
L 313.833202 181.942365 
L 313.833202 181.942365 
L 314.009933 175.715037 
L 314.009933 175.715037 
L 314.363395 193.232262 
L 314.363395 193.232262 
L 314.540126 195.433213 
L 314.540126 195.433213 
L 314.716857 206.79185 
L 314.716857 206.79185 
L 314.893587 210.28613 
L 314.893587 210.28613 
L 315.070318 224.391818 
L 315.070318 224.391818 
L 315.247049 226.31399 
L 315.247049 226.31399 
L 315.42378 239.855756 
L 315.42378 239.855756 
L 315.600511 237.561879 
L 315.600511 237.561879 
L 315.953972 255.333697 
L 315.953972 255.333697 
L 316.130703 252.123288 
L 316.130703 252.123288 
L 316.307434 255.697764 
L 316.307434 255.697764 
L 316.484165 247.977252 
L 316.660896 249.694477 
L 316.660896 249.694477 
L 316.837627 239.219275 
L 316.837627 239.219275 
L 317.014357 240.144719 
L 317.014357 240.144719 
L 317.191088 237.225817 
L 317.191088 237.225817 
L 317.367819 229.110687 
L 317.367819 229.110687 
L 317.54455 227.625141 
L 317.54455 227.625141 
L 317.721281 220.341254 
L 317.721281 220.341254 
L 317.898012 222.215053 
L 317.898012 222.215053 
L 318.074742 218.252324 
L 318.074742 218.252324 
L 318.251473 223.995927 
L 318.251473 223.995927 
L 318.428204 222.22651 
L 318.428204 222.22651 
L 318.781666 235.602791 
L 318.781666 235.602791 
L 318.958397 238.111799 
L 318.958397 238.111799 
L 319.135127 243.902501 
L 319.135127 243.902501 
L 319.311858 245.604451 
L 319.311858 245.604451 
L 319.488589 249.932521 
L 319.488589 249.932521 
L 319.66532 249.862508 
L 319.66532 249.862508 
L 319.842051 252.296411 
L 319.842051 252.296411 
L 320.018782 250.183294 
L 320.018782 250.183294 
L 320.195512 250.798135 
L 320.195512 250.798135 
L 320.372243 246.659736 
L 320.372243 246.659736 
L 320.548974 246.034712 
L 320.548974 246.034712 
L 320.725705 240.769743 
L 320.725705 240.769743 
L 320.902436 239.518421 
L 320.902436 239.518421 
L 321.079167 232.881199 
L 321.079167 232.881199 
L 321.255897 231.79409 
L 321.255897 231.79409 
L 321.432628 229.134873 
L 321.432628 229.134873 
L 321.609359 224.501293 
L 321.609359 224.501293 
L 321.78609 222.826075 
L 321.78609 222.826075 
L 321.962821 219.461637 
L 321.962821 219.461637 
L 322.139552 219.504918 
L 322.139552 219.504918 
L 322.316282 218.004096 
L 322.316282 218.004096 
L 322.493013 214.858608 
L 322.493013 214.858608 
L 322.669744 219.860074 
L 322.669744 219.860074 
L 322.846475 218.862072 
L 322.846475 218.862072 
L 323.023206 225.685147 
L 323.023206 225.685147 
L 323.199937 226.499842 
L 323.376667 234.17962 
L 323.376667 234.17962 
L 323.553398 236.167986 
L 323.553398 236.167986 
L 324.083591 255.886163 
L 324.083591 255.886163 
L 324.260322 260.233327 
L 324.260322 260.233327 
L 324.790514 282.153727 
L 324.790514 282.153727 
L 325.143976 293.521274 
L 325.143976 293.521274 
L 325.497438 281.802389 
L 325.497438 281.802389 
L 326.204361 251.698119 
L 326.204361 251.698119 
L 326.911284 231.151244 
L 326.911284 231.151244 
L 327.264746 225.67369 
L 327.264746 225.67369 
L 327.618208 223.275431 
L 327.618208 223.275431 
L 327.794938 223.126494 
L 327.794938 223.126494 
L 327.971669 223.437097 
L 327.971669 223.437097 
L 328.325131 225.96138 
L 328.325131 225.96138 
L 328.678593 230.652243 
L 328.678593 230.652243 
L 329.032054 238.003597 
L 329.032054 238.003597 
L 329.385516 249.111461 
L 329.385516 249.111461 
L 329.915708 274.131522 
L 329.915708 274.131522 
L 330.26917 295.336518 
L 330.26917 295.336518 
L 330.445901 295.488 
L 330.445901 295.488 
L 330.622632 270.811638 
L 330.622632 270.811638 
L 331.683017 230.569501 
L 331.683017 230.569501 
L 331.859748 229.999214 
L 331.859748 229.999214 
L 332.036478 226.774802 
L 332.036478 226.774802 
L 332.213209 221.411815 
L 332.213209 221.411815 
L 332.38994 225.934647 
L 332.38994 225.934647 
L 332.566671 221.726236 
L 332.566671 221.726236 
L 332.743402 226.102678 
L 332.743402 226.102678 
L 332.920133 222.347442 
L 333.096863 226.26689 
L 333.096863 226.26689 
L 333.273594 223.246152 
L 333.273594 223.246152 
L 333.450325 226.791351 
L 333.450325 226.791351 
L 333.627056 224.652775 
L 333.627056 224.652775 
L 333.803787 227.835179 
L 333.803787 227.835179 
L 333.980518 226.480748 
L 333.980518 226.480748 
L 334.157248 228.91847 
L 334.157248 228.91847 
L 334.333979 227.864457 
L 334.333979 227.864457 
L 334.51071 229.150149 
L 334.51071 229.150149 
L 334.687441 227.383278 
L 334.687441 227.383278 
L 334.864172 222.542205 
L 334.864172 222.542205 
L 335.040903 225.195057 
L 335.040903 225.195057 
L 335.217633 219.979733 
L 335.217633 219.979733 
L 335.394364 222.448005 
L 335.394364 222.448005 
L 335.571095 216.798602 
L 335.571095 216.798602 
L 335.747826 219.198134 
L 335.747826 219.198134 
L 335.924557 213.667116 
L 335.924557 213.667116 
L 336.101288 216.321241 
L 336.101288 216.321241 
L 336.278019 211.392333 
L 336.278019 211.392333 
L 336.454749 214.392704 
L 336.454749 214.392704 
L 336.63148 210.2734 
L 336.63148 210.2734 
L 336.808211 213.520725 
L 336.984942 210.577638 
L 336.984942 210.577638 
L 337.161673 214.273046 
L 337.161673 214.273046 
L 337.338404 212.749311 
L 337.338404 212.749311 
L 337.515134 217.116842 
L 337.515134 217.116842 
L 337.691865 217.440174 
L 337.691865 217.440174 
L 337.868596 215.38816 
L 337.868596 215.38816 
L 338.045327 224.696056 
L 338.045327 224.696056 
L 338.222058 224.507657 
L 338.222058 224.507657 
L 338.398789 234.354016 
L 338.398789 234.354016 
L 338.575519 236.652985 
L 338.575519 236.652985 
L 339.105712 262.975286 
L 339.105712 262.975286 
L 339.282443 270.000762 
L 339.282443 270.000762 
L 339.635904 291.096282 
L 339.635904 291.096282 
L 339.812635 287.666924 
L 339.812635 287.666924 
L 341.403213 194.483584 
L 341.403213 194.483584 
L 341.579944 191.423384 
L 341.579944 191.423384 
L 341.756674 186.429555 
L 341.756674 186.429555 
L 341.933405 186.237338 
L 341.933405 186.237338 
L 342.286867 182.158769 
L 342.286867 182.158769 
L 342.463598 188.004209 
L 342.463598 188.004209 
L 342.640329 187.655417 
L 342.640329 187.655417 
L 342.817059 194.305369 
L 342.817059 194.305369 
L 342.99379 195.542688 
L 342.99379 195.542688 
L 343.170521 202.289385 
L 343.170521 202.289385 
L 343.347252 204.741109 
L 343.347252 204.741109 
L 343.523983 204.192462 
L 343.523983 204.192462 
L 343.700714 214.71349 
L 343.700714 214.71349 
L 343.877444 214.95408 
L 344.054175 224.539481 
L 344.054175 224.539481 
L 344.230906 225.095766 
L 344.230906 225.095766 
L 344.407637 234.131248 
L 344.407637 234.131248 
L 344.584368 236.192173 
L 344.584368 236.192173 
L 344.761099 234.278911 
L 344.761099 234.278911 
L 344.937829 252.202211 
L 344.937829 252.202211 
L 345.11456 256.275689 
L 345.11456 256.275689 
L 345.468022 286.192834 
L 345.468022 286.192834 
L 345.644753 284.030072 
L 345.644753 284.030072 
L 345.998214 248.421515 
L 345.998214 248.421515 
L 347.412061 110.498665 
L 347.412061 110.498665 
L 347.588792 99.412441 
L 347.588792 99.412441 
L 347.765523 97.975268 
L 347.765523 97.975268 
L 348.118985 94.234033 
L 348.118985 94.234033 
L 351.30014 295.488 
L 351.30014 295.488 
L 351.47687 293.904436 
L 351.47687 293.904436 
L 351.653601 288.487984 
L 351.653601 288.487984 
L 351.830332 286.839498 
L 351.830332 286.839498 
L 352.007063 280.458142 
L 352.007063 280.458142 
L 352.183794 279.574706 
L 352.183794 279.574706 
L 352.360525 275.23518 
L 352.360525 275.23518 
L 352.537255 275.056965 
L 352.537255 275.056965 
L 352.713986 272.498312 
L 352.713986 272.498312 
L 352.890717 272.764361 
L 352.890717 272.764361 
L 353.067448 275.22245 
L 353.067448 275.22245 
L 353.244179 271.519405 
L 353.244179 271.519405 
L 353.42091 273.656707 
L 353.42091 273.656707 
L 353.59764 270.963121 
L 353.59764 270.963121 
L 353.774371 272.598876 
L 353.774371 272.598876 
L 353.951102 270.317729 
L 353.951102 270.317729 
L 354.127833 271.058593 
L 354.127833 271.058593 
L 354.304564 273.70508 
L 354.304564 273.70508 
L 354.481295 269.262444 
L 354.481295 269.262444 
L 354.658025 271.154065 
L 354.834756 267.347909 
L 354.834756 267.347909 
L 355.011487 268.301358 
L 355.011487 268.301358 
L 355.188218 264.88091 
L 355.188218 264.88091 
L 355.364949 264.76507 
L 355.54168 266.241706 
L 355.54168 266.241706 
L 355.71841 260.526108 
L 355.71841 260.526108 
L 355.895141 261.011106 
L 356.071872 256.12166 
L 356.071872 256.12166 
L 356.248603 255.645573 
L 356.248603 255.645573 
L 356.425334 251.353146 
L 356.425334 251.353146 
L 356.602065 249.960526 
L 356.602065 249.960526 
L 356.778795 249.987258 
L 356.778795 249.987258 
L 356.955526 244.267841 
L 356.955526 244.267841 
L 357.132257 243.514248 
L 357.132257 243.514248 
L 357.308988 238.83866 
L 357.308988 238.83866 
L 357.485719 237.610252 
L 357.485719 237.610252 
L 357.66245 237.607706 
L 357.66245 237.607706 
L 357.83918 232.739901 
L 357.83918 232.739901 
L 358.015911 232.64952 
L 358.015911 232.64952 
L 358.192642 229.664425 
L 358.192642 229.664425 
L 358.369373 230.087048 
L 358.369373 230.087048 
L 358.546104 231.846281 
L 358.546104 231.846281 
L 358.722835 230.508399 
L 358.722835 230.508399 
L 359.253027 237.820291 
L 359.253027 237.820291 
L 359.78322 252.157658 
L 359.78322 252.157658 
L 360.136681 262.169501 
L 360.136681 262.169501 
L 360.490143 271.421387 
L 360.490143 271.421387 
L 360.843605 282.221194 
L 360.843605 282.221194 
L 361.020336 283.209012 
L 361.020336 283.209012 
L 361.373797 292.350149 
L 361.373797 292.350149 
L 361.550528 291.453984 
L 361.550528 291.453984 
L 361.727259 294.285051 
L 361.727259 294.285051 
L 361.90399 293.643479 
L 361.90399 293.643479 
L 362.080721 294.814603 
L 362.080721 294.814603 
L 362.257451 294.43908 
L 362.257451 294.43908 
L 362.434182 294.487452 
L 362.434182 294.487452 
L 362.610913 294.679669 
L 362.610913 294.679669 
L 362.787644 295.484181 
L 362.787644 295.484181 
L 362.964375 292.133746 
L 362.964375 292.133746 
L 363.317836 290.374513 
L 363.317836 290.374513 
L 363.671298 283.233198 
L 363.671298 283.233198 
L 363.848029 281.39886 
L 363.848029 281.39886 
L 364.201491 271.967487 
L 364.201491 271.967487 
L 364.378221 269.001487 
L 364.378221 269.001487 
L 364.731683 257.600842 
L 364.731683 257.600842 
L 364.908414 253.132746 
L 364.908414 253.132746 
L 365.438606 233.354741 
L 365.438606 233.354741 
L 365.615337 227.396007 
L 365.615337 227.396007 
L 366.322261 192.698891 
L 366.322261 192.698891 
L 367.559376 143.057205 
L 367.559376 143.057205 
L 368.089569 131.484711 
L 368.089569 131.484711 
L 368.443031 127.184646 
L 368.443031 127.184646 
L 368.619761 126.466696 
L 368.619761 126.466696 
L 368.796492 126.579989 
L 368.796492 126.579989 
L 368.973223 127.465971 
L 368.973223 127.465971 
L 369.326685 131.713844 
L 369.326685 131.713844 
L 369.680146 139.16067 
L 369.680146 139.16067 
L 370.210339 156.570966 
L 370.210339 156.570966 
L 371.093993 196.07224 
L 371.093993 196.07224 
L 372.154378 240.825753 
L 372.154378 240.825753 
L 373.038032 265.363362 
L 373.038032 265.363362 
L 374.275148 295.289418 
L 374.275148 295.289418 
L 374.982072 280.753469 
L 374.982072 280.753469 
L 375.335533 276.254822 
L 375.335533 276.254822 
L 375.688995 274.479041 
L 375.688995 274.479041 
L 375.865726 274.40139 
L 375.865726 274.40139 
L 376.042457 274.751454 
L 376.042457 274.751454 
L 376.395918 276.46868 
L 376.395918 276.46868 
L 377.102842 280.926591 
L 377.102842 280.926591 
L 377.456303 281.766746 
L 377.456303 281.766746 
L 377.633034 281.836759 
L 377.633034 281.836759 
L 377.986496 281.591077 
L 377.986496 281.591077 
L 378.163227 281.397587 
L 378.163227 281.397587 
L 378.339957 281.41159 
L 378.339957 281.41159 
L 378.516688 281.571983 
L 378.693419 282.074803 
L 378.693419 282.074803 
L 379.046881 284.14082 
L 379.046881 284.14082 
L 379.753804 290.891335 
L 379.753804 290.891335 
L 380.107266 294.525641 
L 380.107266 294.525641 
L 380.283997 294.962267 
L 380.283997 294.962267 
L 380.637458 293.105016 
L 380.637458 293.105016 
L 380.99092 292.740949 
L 380.99092 292.740949 
L 381.167651 292.88352 
L 381.167651 292.88352 
L 381.874574 293.887887 
L 381.874574 293.887887 
L 382.051305 293.68294 
L 382.051305 293.68294 
L 382.404767 292.332328 
L 382.404767 292.332328 
L 382.934959 288.970436 
L 382.934959 288.970436 
L 383.465152 285.634004 
L 383.465152 285.634004 
L 383.641883 284.955515 
L 383.641883 284.955515 
L 383.818613 284.735293 
L 383.818613 284.735293 
L 383.995344 285.001342 
L 383.995344 285.001342 
L 384.348806 286.227204 
L 384.348806 286.227204 
L 385.409191 291.12556 
L 385.409191 291.12556 
L 385.585922 291.049183 
L 385.585922 291.049183 
L 385.939383 290.357964 
L 385.939383 290.357964 
L 386.823038 287.688564 
L 386.823038 287.688564 
L 386.999768 287.809495 
L 386.999768 287.809495 
L 387.35323 289.188113 
L 387.35323 289.188113 
L 387.883423 292.723127 
L 387.883423 292.723127 
L 388.236884 295.39762 
L 388.236884 295.39762 
L 388.590346 293.710946 
L 388.590346 293.710946 
L 388.767077 293.341787 
L 388.767077 293.341787 
L 388.943808 293.393978 
L 388.943808 293.393978 
L 389.297269 294.197217 
L 389.297269 294.197217 
L 389.650731 295.346701 
L 389.650731 295.346701 
L 390.004193 294.120839 
L 390.004193 294.120839 
L 390.180923 293.843334 
L 390.180923 293.843334 
L 390.357654 293.928622 
L 390.357654 293.928622 
L 390.534385 294.152663 
L 390.534385 294.152663 
L 390.887847 295.163395 
L 390.887847 295.163395 
L 391.064578 295.160849 
L 391.064578 295.160849 
L 391.59477 293.560736 
L 391.59477 293.560736 
L 391.771501 293.507272 
L 391.771501 293.507272 
L 391.948232 295.488 
L 391.948232 295.488 
L 392.124963 294.278686 
L 392.124963 294.278686 
L 392.478424 295.456176 
L 392.478424 295.456176 
L 392.655155 294.855338 
L 392.655155 294.855338 
L 392.831886 295.488 
L 392.831886 295.488 
L 393.008617 293.895525 
L 393.008617 293.895525 
L 393.185348 293.834423 
L 393.185348 293.834423 
L 393.538809 294.766231 
L 393.538809 294.766231 
L 393.71554 295.488 
L 393.71554 295.488 
L 394.422464 291.695847 
L 394.422464 291.695847 
L 394.599194 295.488 
L 394.599194 295.488 
L 394.775925 290.596008 
L 394.775925 290.596008 
L 394.952656 290.596008 
L 394.952656 290.596008 
L 395.129387 290.75131 
L 395.306118 291.100101 
L 395.306118 291.100101 
L 395.482849 295.488 
L 395.482849 295.488 
L 395.659579 292.135019 
L 395.659579 292.135019 
L 396.013041 292.97772 
L 396.013041 292.97772 
L 396.189772 293.077011 
L 396.189772 293.077011 
L 396.366503 295.488 
L 396.366503 295.488 
L 396.543234 292.910253 
L 396.543234 292.910253 
L 397.073426 293.479266 
L 397.073426 293.479266 
L 397.250157 295.488 
L 397.250157 295.488 
L 397.603619 293.505999 
L 397.603619 293.505999 
L 397.780349 294.394526 
L 397.95708 294.560011 
L 397.95708 294.560011 
L 398.133811 295.488 
L 398.133811 295.488 
L 398.310542 283.585808 
L 398.310542 283.585808 
L 398.487273 258.923449 
L 398.487273 258.923449 
" clip-path="url(#pd6b68e4554)" style="fill: none; stroke: #1f77b4; stroke-width: 1.5; stroke-linecap: square"/>
   </g>
   <g id="patch_3">
    <path d="M 57.6 307.584 
L 57.6 41.472 
" style="fill: none; stroke: #000000; stroke-width: 0.8; stroke-linejoin: miter; stroke-linecap: square"/>
   </g>
   <g id="patch_4">
    <path d="M 414.72 307.584 
L 414.72 41.472 
" style="fill: none; stroke: #000000; stroke-width: 0.8; stroke-linejoin: miter; stroke-linecap: square"/>
   </g>
   <g id="patch_5">
    <path d="M 57.6 307.584 
L 414.72 307.584 
" style="fill: none; stroke: #000000; stroke-width: 0.8; stroke-linejoin: miter; stroke-linecap: square"/>
   </g>
   <g id="patch_6">
    <path d="M 57.6 41.472 
L 414.72 41.472 
" style="fill: none; stroke: #000000; stroke-width: 0.8; stroke-linejoin: miter; stroke-linecap: square"/>
   </g>
   <g id="text_19">
    <!-- Tracking error vs Time -->
    <g transform="translate(169.584375 35.472) scale(0.12 -0.12)">
     <defs>
      <path id="DejaVuSans-76" d="M 191 3500 
L 800 3500 
L 1894 563 
L 2988 3500 
L 3597 3500 
L 2284 0 
L 1503 0 
L 191 3500 
z
" transform="scale(0.015625)"/>
     </defs>
     <use xlink:href="#DejaVuSans-54"/>
     <use xlink:href="#DejaVuSans-72" x="46.333984"/>
     <use xlink:href="#DejaVuSans-61" x="87.447266"/>
     <use xlink:href="#DejaVuSans-63" x="148.726562"/>
     <use xlink:href="#DejaVuSans-6b" x="203.707031"/>
     <use xlink:href="#DejaVuSans-69" x="261.617188"/>
     <use xlink:href="#DejaVuSans-6e" x="289.400391"/>
     <use xlink:href="#DejaVuSans-67" x="352.779297"/>
     <use xlink:href="#DejaVuSans-20" x="416.255859"/>
     <use xlink:href="#DejaVuSans-65" x="448.042969"/>
     <use xlink:href="#DejaVuSans-72" x="509.566406"/>
     <use xlink:href="#DejaVuSans-72" x="548.929688"/>
     <use xlink:href="#DejaVuSans-6f" x="587.792969"/>
     <use xlink:href="#DejaVuSans-72" x="648.974609"/>
     <use xlink:href="#DejaVuSans-20" x="690.087891"/>
     <use xlink:href="#DejaVuSans-76" x="721.875"/>
     <use xlink:href="#DejaVuSans-73" x="781.054688"/>
     <use xlink:href="#DejaVuSans-20" x="833.154297"/>
     <use xlink:href="#DejaVuSans-54" x="864.941406"/>
     <use xlink:href="#DejaVuSans-69" x="922.900391"/>
     <use xlink:href="#DejaVuSans-6d" x="950.683594"/>
     <use xlink:href="#DejaVuSans-65" x="1048.095703"/>
    </g>
   </g>
   <g id="legend_1">
    <g id="patch_7">
     <path d="M 311.00125 64.150125 
L 407.72 64.150125 
Q 409.72 64.150125 409.72 62.150125 
L 409.72 48.472 
Q 409.72 46.472 407.72 46.472 
L 311.00125 46.472 
Q 309.00125 46.472 309.00125 48.472 
L 309.00125 62.150125 
Q 309.00125 64.150125 311.00125 64.150125 
z
" style="fill: #ffffff; opacity: 0.8; stroke: #cccccc; stroke-linejoin: miter"/>
    </g>
    <g id="line2d_34">
     <path d="M 313.00125 54.570438 
L 323.00125 54.570438 
L 333.00125 54.570438 
" style="fill: none; stroke: #1f77b4; stroke-width: 1.5; stroke-linecap: square"/>
    </g>
    <g id="text_20">
     <!-- Actual speed -->
     <g transform="translate(341.00125 58.070438) scale(0.1 -0.1)">
      <defs>
       <path id="DejaVuSans-41" d="M 2188 4044 
L 1331 1722 
L 3047 1722 
L 2188 4044 
z
M 1831 4666 
L 2547 4666 
L 4325 0 
L 3669 0 
L 3244 1197 
L 1141 1197 
L 716 0 
L 50 0 
L 1831 4666 
z
" transform="scale(0.015625)"/>
       <path id="DejaVuSans-74" d="M 1172 4494 
L 1172 3500 
L 2356 3500 
L 2356 3053 
L 1172 3053 
L 1172 1153 
Q 1172 725 1289 603 
Q 1406 481 1766 481 
L 2356 481 
L 2356 0 
L 1766 0 
Q 1100 0 847 248 
Q 594 497 594 1153 
L 594 3053 
L 172 3053 
L 172 3500 
L 594 3500 
L 594 4494 
L 1172 4494 
z
" transform="scale(0.015625)"/>
       <path id="DejaVuSans-75" d="M 544 1381 
L 544 3500 
L 1119 3500 
L 1119 1403 
Q 1119 906 1312 657 
Q 1506 409 1894 409 
Q 2359 409 2629 706 
Q 2900 1003 2900 1516 
L 2900 3500 
L 3475 3500 
L 3475 0 
L 2900 0 
L 2900 538 
Q 2691 219 2414 64 
Q 2138 -91 1772 -91 
Q 1169 -91 856 284 
Q 544 659 544 1381 
z
M 1991 3584 
L 1991 3584 
z
" transform="scale(0.015625)"/>
       <path id="DejaVuSans-6c" d="M 603 4863 
L 1178 4863 
L 1178 0 
L 603 0 
L 603 4863 
z
" transform="scale(0.015625)"/>
       <path id="DejaVuSans-70" d="M 1159 525 
L 1159 -1331 
L 581 -1331 
L 581 3500 
L 1159 3500 
L 1159 2969 
Q 1341 3281 1617 3432 
Q 1894 3584 2278 3584 
Q 2916 3584 3314 3078 
Q 3713 2572 3713 1747 
Q 3713 922 3314 415 
Q 2916 -91 2278 -91 
Q 1894 -91 1617 61 
Q 1341 213 1159 525 
z
M 3116 1747 
Q 3116 2381 2855 2742 
Q 2594 3103 2138 3103 
Q 1681 3103 1420 2742 
Q 1159 2381 1159 1747 
Q 1159 1113 1420 752 
Q 1681 391 2138 391 
Q 2594 391 2855 752 
Q 3116 1113 3116 1747 
z
" transform="scale(0.015625)"/>
       <path id="DejaVuSans-64" d="M 2906 2969 
L 2906 4863 
L 3481 4863 
L 3481 0 
L 2906 0 
L 2906 525 
Q 2725 213 2448 61 
Q 2172 -91 1784 -91 
Q 1150 -91 751 415 
Q 353 922 353 1747 
Q 353 2572 751 3078 
Q 1150 3584 1784 3584 
Q 2172 3584 2448 3432 
Q 2725 3281 2906 2969 
z
M 947 1747 
Q 947 1113 1208 752 
Q 1469 391 1925 391 
Q 2381 391 2643 752 
Q 2906 1113 2906 1747 
Q 2906 2381 2643 2742 
Q 2381 3103 1925 3103 
Q 1469 3103 1208 2742 
Q 947 2381 947 1747 
z
" transform="scale(0.015625)"/>
      </defs>
      <use xlink:href="#DejaVuSans-41"/>
      <use xlink:href="#DejaVuSans-63" x="66.658203"/>
      <use xlink:href="#DejaVuSans-74" x="121.638672"/>
      <use xlink:href="#DejaVuSans-75" x="160.847656"/>
      <use xlink:href="#DejaVuSans-61" x="224.226562"/>
      <use xlink:href="#DejaVuSans-6c" x="285.505859"/>
      <use xlink:href="#DejaVuSans-20" x="313.289062"/>
      <use xlink:href="#DejaVuSans-73" x="345.076172"/>
      <use xlink:href="#DejaVuSans-70" x="397.175781"/>
      <use xlink:href="#DejaVuSans-65" x="460.652344"/>
      <use xlink:href="#DejaVuSans-65" x="522.175781"/>
      <use xlink:href="#DejaVuSans-64" x="583.699219"/>
     </g>
    </g>
   </g>
  </g>
 </g>
 <defs>
  <clipPath id="pd6b68e4554">
   <rect x="57.6" y="41.472" width="357.12" height="266.112"/>
  </clipPath>
 </defs>
</svg>
