<?xml version="1.0" encoding="utf-8" standalone="no"?>
<!DOCTYPE svg PUBLIC "-//W3C//DTD SVG 1.1//EN"
  "http://www.w3.org/Graphics/SVG/1.1/DTD/svg11.dtd">
<svg xmlns:xlink="http://www.w3.org/1999/xlink" width="460.8pt" height="345.6pt" viewBox="0 0 460.8 345.6" xmlns="http://www.w3.org/2000/svg" version="1.1">
 <metadata>
  <rdf:RDF xmlns:dc="http://purl.org/dc/elements/1.1/" xmlns:cc="http://creativecommons.org/ns#" xmlns:rdf="http://www.w3.org/1999/02/22-rdf-syntax-ns#">
   <cc:Work>
    <dc:type rdf:resource="http://purl.org/dc/dcmitype/StillImage"/>
    <dc:date>2024-01-30T20:58:49.176332</dc:date>
    <dc:format>image/svg+xml</dc:format>
    <dc:creator>
     <cc:Agent>
      <dc:title>Matplotlib v3.7.1, https://matplotlib.org/</dc:title>
     </cc:Agent>
    </dc:creator>
   </cc:Work>
  </rdf:RDF>
 </metadata>
 <defs>
  <style type="text/css">*{stroke-linejoin: round; stroke-linecap: butt}</style>
 </defs>
 <g id="figure_1">
  <g id="patch_1">
   <path d="M 0 345.6 
L 460.8 345.6 
L 460.8 0 
L 0 0 
z
" style="fill: #ffffff"/>
  </g>
  <g id="axes_1">
   <g id="patch_2">
    <path d="M 57.6 307.584 
L 414.72 307.584 
L 414.72 41.472 
L 57.6 41.472 
z
" style="fill: #ffffff"/>
   </g>
   <g id="matplotlib.axis_1">
    <g id="xtick_1">
     <g id="line2d_1">
      <path d="M 73.832727 307.584 
L 73.832727 41.472 
" clip-path="url(#pcc346239be)" style="fill: none; stroke: #b0b0b0; stroke-width: 0.8; stroke-linecap: square"/>
     </g>
     <g id="line2d_2">
      <defs>
       <path id="m8694f1cacd" d="M 0 0 
L 0 3.5 
" style="stroke: #000000; stroke-width: 0.8"/>
      </defs>
      <g>
       <use xlink:href="#m8694f1cacd" x="73.832727" y="307.584" style="stroke: #000000; stroke-width: 0.8"/>
      </g>
     </g>
     <g id="text_1">
      <!-- 0 -->
      <g transform="translate(70.651477 322.182437) scale(0.1 -0.1)">
       <defs>
        <path id="DejaVuSans-30" d="M 2034 4250 
Q 1547 4250 1301 3770 
Q 1056 3291 1056 2328 
Q 1056 1369 1301 889 
Q 1547 409 2034 409 
Q 2525 409 2770 889 
Q 3016 1369 3016 2328 
Q 3016 3291 2770 3770 
Q 2525 4250 2034 4250 
z
M 2034 4750 
Q 2819 4750 3233 4129 
Q 3647 3509 3647 2328 
Q 3647 1150 3233 529 
Q 2819 -91 2034 -91 
Q 1250 -91 836 529 
Q 422 1150 422 2328 
Q 422 3509 836 4129 
Q 1250 4750 2034 4750 
z
" transform="scale(0.015625)"/>
       </defs>
       <use xlink:href="#DejaVuSans-30"/>
      </g>
     </g>
    </g>
    <g id="xtick_2">
     <g id="line2d_3">
      <path d="M 117.991398 307.584 
L 117.991398 41.472 
" clip-path="url(#pcc346239be)" style="fill: none; stroke: #b0b0b0; stroke-width: 0.8; stroke-linecap: square"/>
     </g>
     <g id="line2d_4">
      <g>
       <use xlink:href="#m8694f1cacd" x="117.991398" y="307.584" style="stroke: #000000; stroke-width: 0.8"/>
      </g>
     </g>
     <g id="text_2">
      <!-- 5 -->
      <g transform="translate(114.810148 322.182437) scale(0.1 -0.1)">
       <defs>
        <path id="DejaVuSans-35" d="M 691 4666 
L 3169 4666 
L 3169 4134 
L 1269 4134 
L 1269 2991 
Q 1406 3038 1543 3061 
Q 1681 3084 1819 3084 
Q 2600 3084 3056 2656 
Q 3513 2228 3513 1497 
Q 3513 744 3044 326 
Q 2575 -91 1722 -91 
Q 1428 -91 1123 -41 
Q 819 9 494 109 
L 494 744 
Q 775 591 1075 516 
Q 1375 441 1709 441 
Q 2250 441 2565 725 
Q 2881 1009 2881 1497 
Q 2881 1984 2565 2268 
Q 2250 2553 1709 2553 
Q 1456 2553 1204 2497 
Q 953 2441 691 2322 
L 691 4666 
z
" transform="scale(0.015625)"/>
       </defs>
       <use xlink:href="#DejaVuSans-35"/>
      </g>
     </g>
    </g>
    <g id="xtick_3">
     <g id="line2d_5">
      <path d="M 162.150068 307.584 
L 162.150068 41.472 
" clip-path="url(#pcc346239be)" style="fill: none; stroke: #b0b0b0; stroke-width: 0.8; stroke-linecap: square"/>
     </g>
     <g id="line2d_6">
      <g>
       <use xlink:href="#m8694f1cacd" x="162.150068" y="307.584" style="stroke: #000000; stroke-width: 0.8"/>
      </g>
     </g>
     <g id="text_3">
      <!-- 10 -->
      <g transform="translate(155.787568 322.182437) scale(0.1 -0.1)">
       <defs>
        <path id="DejaVuSans-31" d="M 794 531 
L 1825 531 
L 1825 4091 
L 703 3866 
L 703 4441 
L 1819 4666 
L 2450 4666 
L 2450 531 
L 3481 531 
L 3481 0 
L 794 0 
L 794 531 
z
" transform="scale(0.015625)"/>
       </defs>
       <use xlink:href="#DejaVuSans-31"/>
       <use xlink:href="#DejaVuSans-30" x="63.623047"/>
      </g>
     </g>
    </g>
    <g id="xtick_4">
     <g id="line2d_7">
      <path d="M 206.308739 307.584 
L 206.308739 41.472 
" clip-path="url(#pcc346239be)" style="fill: none; stroke: #b0b0b0; stroke-width: 0.8; stroke-linecap: square"/>
     </g>
     <g id="line2d_8">
      <g>
       <use xlink:href="#m8694f1cacd" x="206.308739" y="307.584" style="stroke: #000000; stroke-width: 0.8"/>
      </g>
     </g>
     <g id="text_4">
      <!-- 15 -->
      <g transform="translate(199.946239 322.182437) scale(0.1 -0.1)">
       <use xlink:href="#DejaVuSans-31"/>
       <use xlink:href="#DejaVuSans-35" x="63.623047"/>
      </g>
     </g>
    </g>
    <g id="xtick_5">
     <g id="line2d_9">
      <path d="M 250.467409 307.584 
L 250.467409 41.472 
" clip-path="url(#pcc346239be)" style="fill: none; stroke: #b0b0b0; stroke-width: 0.8; stroke-linecap: square"/>
     </g>
     <g id="line2d_10">
      <g>
       <use xlink:href="#m8694f1cacd" x="250.467409" y="307.584" style="stroke: #000000; stroke-width: 0.8"/>
      </g>
     </g>
     <g id="text_5">
      <!-- 20 -->
      <g transform="translate(244.104909 322.182437) scale(0.1 -0.1)">
       <defs>
        <path id="DejaVuSans-32" d="M 1228 531 
L 3431 531 
L 3431 0 
L 469 0 
L 469 531 
Q 828 903 1448 1529 
Q 2069 2156 2228 2338 
Q 2531 2678 2651 2914 
Q 2772 3150 2772 3378 
Q 2772 3750 2511 3984 
Q 2250 4219 1831 4219 
Q 1534 4219 1204 4116 
Q 875 4013 500 3803 
L 500 4441 
Q 881 4594 1212 4672 
Q 1544 4750 1819 4750 
Q 2544 4750 2975 4387 
Q 3406 4025 3406 3419 
Q 3406 3131 3298 2873 
Q 3191 2616 2906 2266 
Q 2828 2175 2409 1742 
Q 1991 1309 1228 531 
z
" transform="scale(0.015625)"/>
       </defs>
       <use xlink:href="#DejaVuSans-32"/>
       <use xlink:href="#DejaVuSans-30" x="63.623047"/>
      </g>
     </g>
    </g>
    <g id="xtick_6">
     <g id="line2d_11">
      <path d="M 294.62608 307.584 
L 294.62608 41.472 
" clip-path="url(#pcc346239be)" style="fill: none; stroke: #b0b0b0; stroke-width: 0.8; stroke-linecap: square"/>
     </g>
     <g id="line2d_12">
      <g>
       <use xlink:href="#m8694f1cacd" x="294.62608" y="307.584" style="stroke: #000000; stroke-width: 0.8"/>
      </g>
     </g>
     <g id="text_6">
      <!-- 25 -->
      <g transform="translate(288.26358 322.182437) scale(0.1 -0.1)">
       <use xlink:href="#DejaVuSans-32"/>
       <use xlink:href="#DejaVuSans-35" x="63.623047"/>
      </g>
     </g>
    </g>
    <g id="xtick_7">
     <g id="line2d_13">
      <path d="M 338.78475 307.584 
L 338.78475 41.472 
" clip-path="url(#pcc346239be)" style="fill: none; stroke: #b0b0b0; stroke-width: 0.8; stroke-linecap: square"/>
     </g>
     <g id="line2d_14">
      <g>
       <use xlink:href="#m8694f1cacd" x="338.78475" y="307.584" style="stroke: #000000; stroke-width: 0.8"/>
      </g>
     </g>
     <g id="text_7">
      <!-- 30 -->
      <g transform="translate(332.42225 322.182437) scale(0.1 -0.1)">
       <defs>
        <path id="DejaVuSans-33" d="M 2597 2516 
Q 3050 2419 3304 2112 
Q 3559 1806 3559 1356 
Q 3559 666 3084 287 
Q 2609 -91 1734 -91 
Q 1441 -91 1130 -33 
Q 819 25 488 141 
L 488 750 
Q 750 597 1062 519 
Q 1375 441 1716 441 
Q 2309 441 2620 675 
Q 2931 909 2931 1356 
Q 2931 1769 2642 2001 
Q 2353 2234 1838 2234 
L 1294 2234 
L 1294 2753 
L 1863 2753 
Q 2328 2753 2575 2939 
Q 2822 3125 2822 3475 
Q 2822 3834 2567 4026 
Q 2313 4219 1838 4219 
Q 1578 4219 1281 4162 
Q 984 4106 628 3988 
L 628 4550 
Q 988 4650 1302 4700 
Q 1616 4750 1894 4750 
Q 2613 4750 3031 4423 
Q 3450 4097 3450 3541 
Q 3450 3153 3228 2886 
Q 3006 2619 2597 2516 
z
" transform="scale(0.015625)"/>
       </defs>
       <use xlink:href="#DejaVuSans-33"/>
       <use xlink:href="#DejaVuSans-30" x="63.623047"/>
      </g>
     </g>
    </g>
    <g id="xtick_8">
     <g id="line2d_15">
      <path d="M 382.943421 307.584 
L 382.943421 41.472 
" clip-path="url(#pcc346239be)" style="fill: none; stroke: #b0b0b0; stroke-width: 0.8; stroke-linecap: square"/>
     </g>
     <g id="line2d_16">
      <g>
       <use xlink:href="#m8694f1cacd" x="382.943421" y="307.584" style="stroke: #000000; stroke-width: 0.8"/>
      </g>
     </g>
     <g id="text_8">
      <!-- 35 -->
      <g transform="translate(376.580921 322.182437) scale(0.1 -0.1)">
       <use xlink:href="#DejaVuSans-33"/>
       <use xlink:href="#DejaVuSans-35" x="63.623047"/>
      </g>
     </g>
    </g>
    <g id="text_9">
     <!-- Time(s) -->
     <g transform="translate(217.420156 335.860562) scale(0.1 -0.1)">
      <defs>
       <path id="DejaVuSans-54" d="M -19 4666 
L 3928 4666 
L 3928 4134 
L 2272 4134 
L 2272 0 
L 1638 0 
L 1638 4134 
L -19 4134 
L -19 4666 
z
" transform="scale(0.015625)"/>
       <path id="DejaVuSans-69" d="M 603 3500 
L 1178 3500 
L 1178 0 
L 603 0 
L 603 3500 
z
M 603 4863 
L 1178 4863 
L 1178 4134 
L 603 4134 
L 603 4863 
z
" transform="scale(0.015625)"/>
       <path id="DejaVuSans-6d" d="M 3328 2828 
Q 3544 3216 3844 3400 
Q 4144 3584 4550 3584 
Q 5097 3584 5394 3201 
Q 5691 2819 5691 2113 
L 5691 0 
L 5113 0 
L 5113 2094 
Q 5113 2597 4934 2840 
Q 4756 3084 4391 3084 
Q 3944 3084 3684 2787 
Q 3425 2491 3425 1978 
L 3425 0 
L 2847 0 
L 2847 2094 
Q 2847 2600 2669 2842 
Q 2491 3084 2119 3084 
Q 1678 3084 1418 2786 
Q 1159 2488 1159 1978 
L 1159 0 
L 581 0 
L 581 3500 
L 1159 3500 
L 1159 2956 
Q 1356 3278 1631 3431 
Q 1906 3584 2284 3584 
Q 2666 3584 2933 3390 
Q 3200 3197 3328 2828 
z
" transform="scale(0.015625)"/>
       <path id="DejaVuSans-65" d="M 3597 1894 
L 3597 1613 
L 953 1613 
Q 991 1019 1311 708 
Q 1631 397 2203 397 
Q 2534 397 2845 478 
Q 3156 559 3463 722 
L 3463 178 
Q 3153 47 2828 -22 
Q 2503 -91 2169 -91 
Q 1331 -91 842 396 
Q 353 884 353 1716 
Q 353 2575 817 3079 
Q 1281 3584 2069 3584 
Q 2775 3584 3186 3129 
Q 3597 2675 3597 1894 
z
M 3022 2063 
Q 3016 2534 2758 2815 
Q 2500 3097 2075 3097 
Q 1594 3097 1305 2825 
Q 1016 2553 972 2059 
L 3022 2063 
z
" transform="scale(0.015625)"/>
       <path id="DejaVuSans-28" d="M 1984 4856 
Q 1566 4138 1362 3434 
Q 1159 2731 1159 2009 
Q 1159 1288 1364 580 
Q 1569 -128 1984 -844 
L 1484 -844 
Q 1016 -109 783 600 
Q 550 1309 550 2009 
Q 550 2706 781 3412 
Q 1013 4119 1484 4856 
L 1984 4856 
z
" transform="scale(0.015625)"/>
       <path id="DejaVuSans-73" d="M 2834 3397 
L 2834 2853 
Q 2591 2978 2328 3040 
Q 2066 3103 1784 3103 
Q 1356 3103 1142 2972 
Q 928 2841 928 2578 
Q 928 2378 1081 2264 
Q 1234 2150 1697 2047 
L 1894 2003 
Q 2506 1872 2764 1633 
Q 3022 1394 3022 966 
Q 3022 478 2636 193 
Q 2250 -91 1575 -91 
Q 1294 -91 989 -36 
Q 684 19 347 128 
L 347 722 
Q 666 556 975 473 
Q 1284 391 1588 391 
Q 1994 391 2212 530 
Q 2431 669 2431 922 
Q 2431 1156 2273 1281 
Q 2116 1406 1581 1522 
L 1381 1569 
Q 847 1681 609 1914 
Q 372 2147 372 2553 
Q 372 3047 722 3315 
Q 1072 3584 1716 3584 
Q 2034 3584 2315 3537 
Q 2597 3491 2834 3397 
z
" transform="scale(0.015625)"/>
       <path id="DejaVuSans-29" d="M 513 4856 
L 1013 4856 
Q 1481 4119 1714 3412 
Q 1947 2706 1947 2009 
Q 1947 1309 1714 600 
Q 1481 -109 1013 -844 
L 513 -844 
Q 928 -128 1133 580 
Q 1338 1288 1338 2009 
Q 1338 2731 1133 3434 
Q 928 4138 513 4856 
z
" transform="scale(0.015625)"/>
      </defs>
      <use xlink:href="#DejaVuSans-54"/>
      <use xlink:href="#DejaVuSans-69" x="57.958984"/>
      <use xlink:href="#DejaVuSans-6d" x="85.742188"/>
      <use xlink:href="#DejaVuSans-65" x="183.154297"/>
      <use xlink:href="#DejaVuSans-28" x="244.677734"/>
      <use xlink:href="#DejaVuSans-73" x="283.691406"/>
      <use xlink:href="#DejaVuSans-29" x="335.791016"/>
     </g>
    </g>
   </g>
   <g id="matplotlib.axis_2">
    <g id="ytick_1">
     <g id="line2d_17">
      <path d="M 57.6 295.488 
L 414.72 295.488 
" clip-path="url(#pcc346239be)" style="fill: none; stroke: #b0b0b0; stroke-width: 0.8; stroke-linecap: square"/>
     </g>
     <g id="line2d_18">
      <defs>
       <path id="m4ac5e3dedb" d="M 0 0 
L -3.5 0 
" style="stroke: #000000; stroke-width: 0.8"/>
      </defs>
      <g>
       <use xlink:href="#m4ac5e3dedb" x="57.6" y="295.488" style="stroke: #000000; stroke-width: 0.8"/>
      </g>
     </g>
     <g id="text_10">
      <!-- 0.000 -->
      <g transform="translate(21.971875 299.287219) scale(0.1 -0.1)">
       <defs>
        <path id="DejaVuSans-2e" d="M 684 794 
L 1344 794 
L 1344 0 
L 684 0 
L 684 794 
z
" transform="scale(0.015625)"/>
       </defs>
       <use xlink:href="#DejaVuSans-30"/>
       <use xlink:href="#DejaVuSans-2e" x="63.623047"/>
       <use xlink:href="#DejaVuSans-30" x="95.410156"/>
       <use xlink:href="#DejaVuSans-30" x="159.033203"/>
       <use xlink:href="#DejaVuSans-30" x="222.65625"/>
      </g>
     </g>
    </g>
    <g id="ytick_2">
     <g id="line2d_19">
      <path d="M 57.6 261.551844 
L 414.72 261.551844 
" clip-path="url(#pcc346239be)" style="fill: none; stroke: #b0b0b0; stroke-width: 0.8; stroke-linecap: square"/>
     </g>
     <g id="line2d_20">
      <g>
       <use xlink:href="#m4ac5e3dedb" x="57.6" y="261.551844" style="stroke: #000000; stroke-width: 0.8"/>
      </g>
     </g>
     <g id="text_11">
      <!-- 0.025 -->
      <g transform="translate(21.971875 265.351062) scale(0.1 -0.1)">
       <use xlink:href="#DejaVuSans-30"/>
       <use xlink:href="#DejaVuSans-2e" x="63.623047"/>
       <use xlink:href="#DejaVuSans-30" x="95.410156"/>
       <use xlink:href="#DejaVuSans-32" x="159.033203"/>
       <use xlink:href="#DejaVuSans-35" x="222.65625"/>
      </g>
     </g>
    </g>
    <g id="ytick_3">
     <g id="line2d_21">
      <path d="M 57.6 227.615687 
L 414.72 227.615687 
" clip-path="url(#pcc346239be)" style="fill: none; stroke: #b0b0b0; stroke-width: 0.8; stroke-linecap: square"/>
     </g>
     <g id="line2d_22">
      <g>
       <use xlink:href="#m4ac5e3dedb" x="57.6" y="227.615687" style="stroke: #000000; stroke-width: 0.8"/>
      </g>
     </g>
     <g id="text_12">
      <!-- 0.050 -->
      <g transform="translate(21.971875 231.414906) scale(0.1 -0.1)">
       <use xlink:href="#DejaVuSans-30"/>
       <use xlink:href="#DejaVuSans-2e" x="63.623047"/>
       <use xlink:href="#DejaVuSans-30" x="95.410156"/>
       <use xlink:href="#DejaVuSans-35" x="159.033203"/>
       <use xlink:href="#DejaVuSans-30" x="222.65625"/>
      </g>
     </g>
    </g>
    <g id="ytick_4">
     <g id="line2d_23">
      <path d="M 57.6 193.679531 
L 414.72 193.679531 
" clip-path="url(#pcc346239be)" style="fill: none; stroke: #b0b0b0; stroke-width: 0.8; stroke-linecap: square"/>
     </g>
     <g id="line2d_24">
      <g>
       <use xlink:href="#m4ac5e3dedb" x="57.6" y="193.679531" style="stroke: #000000; stroke-width: 0.8"/>
      </g>
     </g>
     <g id="text_13">
      <!-- 0.075 -->
      <g transform="translate(21.971875 197.478749) scale(0.1 -0.1)">
       <defs>
        <path id="DejaVuSans-37" d="M 525 4666 
L 3525 4666 
L 3525 4397 
L 1831 0 
L 1172 0 
L 2766 4134 
L 525 4134 
L 525 4666 
z
" transform="scale(0.015625)"/>
       </defs>
       <use xlink:href="#DejaVuSans-30"/>
       <use xlink:href="#DejaVuSans-2e" x="63.623047"/>
       <use xlink:href="#DejaVuSans-30" x="95.410156"/>
       <use xlink:href="#DejaVuSans-37" x="159.033203"/>
       <use xlink:href="#DejaVuSans-35" x="222.65625"/>
      </g>
     </g>
    </g>
    <g id="ytick_5">
     <g id="line2d_25">
      <path d="M 57.6 159.743374 
L 414.72 159.743374 
" clip-path="url(#pcc346239be)" style="fill: none; stroke: #b0b0b0; stroke-width: 0.8; stroke-linecap: square"/>
     </g>
     <g id="line2d_26">
      <g>
       <use xlink:href="#m4ac5e3dedb" x="57.6" y="159.743374" style="stroke: #000000; stroke-width: 0.8"/>
      </g>
     </g>
     <g id="text_14">
      <!-- 0.100 -->
      <g transform="translate(21.971875 163.542593) scale(0.1 -0.1)">
       <use xlink:href="#DejaVuSans-30"/>
       <use xlink:href="#DejaVuSans-2e" x="63.623047"/>
       <use xlink:href="#DejaVuSans-31" x="95.410156"/>
       <use xlink:href="#DejaVuSans-30" x="159.033203"/>
       <use xlink:href="#DejaVuSans-30" x="222.65625"/>
      </g>
     </g>
    </g>
    <g id="ytick_6">
     <g id="line2d_27">
      <path d="M 57.6 125.807218 
L 414.72 125.807218 
" clip-path="url(#pcc346239be)" style="fill: none; stroke: #b0b0b0; stroke-width: 0.8; stroke-linecap: square"/>
     </g>
     <g id="line2d_28">
      <g>
       <use xlink:href="#m4ac5e3dedb" x="57.6" y="125.807218" style="stroke: #000000; stroke-width: 0.8"/>
      </g>
     </g>
     <g id="text_15">
      <!-- 0.125 -->
      <g transform="translate(21.971875 129.606436) scale(0.1 -0.1)">
       <use xlink:href="#DejaVuSans-30"/>
       <use xlink:href="#DejaVuSans-2e" x="63.623047"/>
       <use xlink:href="#DejaVuSans-31" x="95.410156"/>
       <use xlink:href="#DejaVuSans-32" x="159.033203"/>
       <use xlink:href="#DejaVuSans-35" x="222.65625"/>
      </g>
     </g>
    </g>
    <g id="ytick_7">
     <g id="line2d_29">
      <path d="M 57.6 91.871061 
L 414.72 91.871061 
" clip-path="url(#pcc346239be)" style="fill: none; stroke: #b0b0b0; stroke-width: 0.8; stroke-linecap: square"/>
     </g>
     <g id="line2d_30">
      <g>
       <use xlink:href="#m4ac5e3dedb" x="57.6" y="91.871061" style="stroke: #000000; stroke-width: 0.8"/>
      </g>
     </g>
     <g id="text_16">
      <!-- 0.150 -->
      <g transform="translate(21.971875 95.67028) scale(0.1 -0.1)">
       <use xlink:href="#DejaVuSans-30"/>
       <use xlink:href="#DejaVuSans-2e" x="63.623047"/>
       <use xlink:href="#DejaVuSans-31" x="95.410156"/>
       <use xlink:href="#DejaVuSans-35" x="159.033203"/>
       <use xlink:href="#DejaVuSans-30" x="222.65625"/>
      </g>
     </g>
    </g>
    <g id="ytick_8">
     <g id="line2d_31">
      <path d="M 57.6 57.934905 
L 414.72 57.934905 
" clip-path="url(#pcc346239be)" style="fill: none; stroke: #b0b0b0; stroke-width: 0.8; stroke-linecap: square"/>
     </g>
     <g id="line2d_32">
      <g>
       <use xlink:href="#m4ac5e3dedb" x="57.6" y="57.934905" style="stroke: #000000; stroke-width: 0.8"/>
      </g>
     </g>
     <g id="text_17">
      <!-- 0.175 -->
      <g transform="translate(21.971875 61.734123) scale(0.1 -0.1)">
       <use xlink:href="#DejaVuSans-30"/>
       <use xlink:href="#DejaVuSans-2e" x="63.623047"/>
       <use xlink:href="#DejaVuSans-31" x="95.410156"/>
       <use xlink:href="#DejaVuSans-37" x="159.033203"/>
       <use xlink:href="#DejaVuSans-35" x="222.65625"/>
      </g>
     </g>
    </g>
    <g id="text_18">
     <!-- Tracking error(m) -->
     <g transform="translate(15.892187 217.803781) rotate(-90) scale(0.1 -0.1)">
      <defs>
       <path id="DejaVuSans-72" d="M 2631 2963 
Q 2534 3019 2420 3045 
Q 2306 3072 2169 3072 
Q 1681 3072 1420 2755 
Q 1159 2438 1159 1844 
L 1159 0 
L 581 0 
L 581 3500 
L 1159 3500 
L 1159 2956 
Q 1341 3275 1631 3429 
Q 1922 3584 2338 3584 
Q 2397 3584 2469 3576 
Q 2541 3569 2628 3553 
L 2631 2963 
z
" transform="scale(0.015625)"/>
       <path id="DejaVuSans-61" d="M 2194 1759 
Q 1497 1759 1228 1600 
Q 959 1441 959 1056 
Q 959 750 1161 570 
Q 1363 391 1709 391 
Q 2188 391 2477 730 
Q 2766 1069 2766 1631 
L 2766 1759 
L 2194 1759 
z
M 3341 1997 
L 3341 0 
L 2766 0 
L 2766 531 
Q 2569 213 2275 61 
Q 1981 -91 1556 -91 
Q 1019 -91 701 211 
Q 384 513 384 1019 
Q 384 1609 779 1909 
Q 1175 2209 1959 2209 
L 2766 2209 
L 2766 2266 
Q 2766 2663 2505 2880 
Q 2244 3097 1772 3097 
Q 1472 3097 1187 3025 
Q 903 2953 641 2809 
L 641 3341 
Q 956 3463 1253 3523 
Q 1550 3584 1831 3584 
Q 2591 3584 2966 3190 
Q 3341 2797 3341 1997 
z
" transform="scale(0.015625)"/>
       <path id="DejaVuSans-63" d="M 3122 3366 
L 3122 2828 
Q 2878 2963 2633 3030 
Q 2388 3097 2138 3097 
Q 1578 3097 1268 2742 
Q 959 2388 959 1747 
Q 959 1106 1268 751 
Q 1578 397 2138 397 
Q 2388 397 2633 464 
Q 2878 531 3122 666 
L 3122 134 
Q 2881 22 2623 -34 
Q 2366 -91 2075 -91 
Q 1284 -91 818 406 
Q 353 903 353 1747 
Q 353 2603 823 3093 
Q 1294 3584 2113 3584 
Q 2378 3584 2631 3529 
Q 2884 3475 3122 3366 
z
" transform="scale(0.015625)"/>
       <path id="DejaVuSans-6b" d="M 581 4863 
L 1159 4863 
L 1159 1991 
L 2875 3500 
L 3609 3500 
L 1753 1863 
L 3688 0 
L 2938 0 
L 1159 1709 
L 1159 0 
L 581 0 
L 581 4863 
z
" transform="scale(0.015625)"/>
       <path id="DejaVuSans-6e" d="M 3513 2113 
L 3513 0 
L 2938 0 
L 2938 2094 
Q 2938 2591 2744 2837 
Q 2550 3084 2163 3084 
Q 1697 3084 1428 2787 
Q 1159 2491 1159 1978 
L 1159 0 
L 581 0 
L 581 3500 
L 1159 3500 
L 1159 2956 
Q 1366 3272 1645 3428 
Q 1925 3584 2291 3584 
Q 2894 3584 3203 3211 
Q 3513 2838 3513 2113 
z
" transform="scale(0.015625)"/>
       <path id="DejaVuSans-67" d="M 2906 1791 
Q 2906 2416 2648 2759 
Q 2391 3103 1925 3103 
Q 1463 3103 1205 2759 
Q 947 2416 947 1791 
Q 947 1169 1205 825 
Q 1463 481 1925 481 
Q 2391 481 2648 825 
Q 2906 1169 2906 1791 
z
M 3481 434 
Q 3481 -459 3084 -895 
Q 2688 -1331 1869 -1331 
Q 1566 -1331 1297 -1286 
Q 1028 -1241 775 -1147 
L 775 -588 
Q 1028 -725 1275 -790 
Q 1522 -856 1778 -856 
Q 2344 -856 2625 -561 
Q 2906 -266 2906 331 
L 2906 616 
Q 2728 306 2450 153 
Q 2172 0 1784 0 
Q 1141 0 747 490 
Q 353 981 353 1791 
Q 353 2603 747 3093 
Q 1141 3584 1784 3584 
Q 2172 3584 2450 3431 
Q 2728 3278 2906 2969 
L 2906 3500 
L 3481 3500 
L 3481 434 
z
" transform="scale(0.015625)"/>
       <path id="DejaVuSans-20" transform="scale(0.015625)"/>
       <path id="DejaVuSans-6f" d="M 1959 3097 
Q 1497 3097 1228 2736 
Q 959 2375 959 1747 
Q 959 1119 1226 758 
Q 1494 397 1959 397 
Q 2419 397 2687 759 
Q 2956 1122 2956 1747 
Q 2956 2369 2687 2733 
Q 2419 3097 1959 3097 
z
M 1959 3584 
Q 2709 3584 3137 3096 
Q 3566 2609 3566 1747 
Q 3566 888 3137 398 
Q 2709 -91 1959 -91 
Q 1206 -91 779 398 
Q 353 888 353 1747 
Q 353 2609 779 3096 
Q 1206 3584 1959 3584 
z
" transform="scale(0.015625)"/>
      </defs>
      <use xlink:href="#DejaVuSans-54"/>
      <use xlink:href="#DejaVuSans-72" x="46.333984"/>
      <use xlink:href="#DejaVuSans-61" x="87.447266"/>
      <use xlink:href="#DejaVuSans-63" x="148.726562"/>
      <use xlink:href="#DejaVuSans-6b" x="203.707031"/>
      <use xlink:href="#DejaVuSans-69" x="261.617188"/>
      <use xlink:href="#DejaVuSans-6e" x="289.400391"/>
      <use xlink:href="#DejaVuSans-67" x="352.779297"/>
      <use xlink:href="#DejaVuSans-20" x="416.255859"/>
      <use xlink:href="#DejaVuSans-65" x="448.042969"/>
      <use xlink:href="#DejaVuSans-72" x="509.566406"/>
      <use xlink:href="#DejaVuSans-72" x="548.929688"/>
      <use xlink:href="#DejaVuSans-6f" x="587.792969"/>
      <use xlink:href="#DejaVuSans-72" x="648.974609"/>
      <use xlink:href="#DejaVuSans-28" x="690.087891"/>
      <use xlink:href="#DejaVuSans-6d" x="729.101562"/>
      <use xlink:href="#DejaVuSans-29" x="826.513672"/>
     </g>
    </g>
   </g>
   <g id="line2d_33">
    <path d="M 73.832727 251.495882 
L 74.009362 247.012237 
L 74.009362 247.012237 
L 74.362631 259.969061 
L 74.362631 259.969061 
L 74.715901 265.994765 
L 74.715901 265.994765 
L 75.245805 278.420828 
L 75.245805 278.420828 
L 75.422439 295.488 
L 75.422439 295.488 
L 75.599074 285.912574 
L 75.599074 285.912574 
L 76.128978 293.846847 
L 76.128978 293.846847 
L 76.305613 295.488 
L 76.305613 295.488 
L 76.658882 293.426039 
L 76.658882 293.426039 
L 77.012152 292.317006 
L 77.012152 292.317006 
L 77.188786 295.488 
L 77.188786 295.488 
L 77.365421 291.258197 
L 77.365421 291.258197 
L 77.895325 288.427922 
L 77.895325 288.427922 
L 78.07196 295.488 
L 78.07196 295.488 
L 78.248594 286.222072 
L 78.248594 286.222072 
L 78.778498 283.67143 
L 78.778498 283.67143 
L 78.955133 295.488 
L 78.955133 295.488 
L 79.131768 283.683647 
L 79.131768 283.683647 
L 79.485037 285.195842 
L 79.485037 285.195842 
L 79.661672 286.296731 
L 79.661672 286.296731 
L 79.838306 295.488 
L 79.838306 295.488 
L 80.014941 288.908458 
L 80.014941 288.908458 
L 80.544845 292.156827 
L 80.544845 292.156827 
L 80.72148 295.488 
L 80.898115 292.972652 
L 80.898115 292.972652 
L 81.251384 293.172197 
L 81.251384 293.172197 
L 81.428019 293.147763 
L 81.428019 293.147763 
L 81.604653 295.488 
L 81.604653 295.488 
L 81.781288 293.321516 
L 81.781288 293.321516 
L 82.134557 294.320596 
L 82.134557 294.320596 
L 82.487827 295.488 
L 82.487827 295.488 
L 82.841096 294.08983 
L 82.841096 294.08983 
L 83.017731 293.708388 
L 83.194365 293.60115 
L 83.194365 293.60115 
L 83.371 295.488 
L 83.371 295.488 
L 83.547635 293.85635 
L 83.547635 293.85635 
L 83.900904 294.511996 
L 83.900904 294.511996 
L 84.077539 294.856787 
L 84.077539 294.856787 
L 84.254174 295.488 
L 84.254174 295.488 
L 84.960712 294.017886 
L 84.960712 294.017886 
L 85.137347 295.488 
L 85.137347 295.488 
L 85.313982 292.96858 
L 85.313982 292.96858 
L 85.490616 292.551844 
L 85.490616 292.551844 
L 85.843886 292.471754 
L 85.843886 292.471754 
L 86.02052 295.488 
L 86.02052 295.488 
L 86.197155 292.566776 
L 86.197155 292.566776 
L 86.37379 292.693018 
L 86.37379 292.693018 
L 86.727059 293.073103 
L 86.727059 293.073103 
L 86.903694 295.488 
L 86.903694 295.488 
L 87.080328 292.663154 
L 87.080328 292.663154 
L 87.433598 291.954567 
L 87.433598 291.954567 
L 87.610232 291.613848 
L 87.610232 291.613848 
L 87.786867 295.488 
L 87.786867 295.488 
L 87.963502 291.335572 
L 87.963502 291.335572 
L 88.140137 291.407517 
L 88.140137 291.407517 
L 88.493406 291.991218 
L 88.493406 291.991218 
L 88.670041 295.488 
L 88.846675 292.606142 
L 88.846675 292.606142 
L 89.376579 293.408392 
L 89.376579 293.408392 
L 89.553214 295.488 
L 89.553214 295.488 
L 89.729849 292.690303 
L 89.729849 292.690303 
L 90.083118 291.642355 
L 90.083118 291.642355 
L 90.259753 291.107521 
L 90.259753 291.107521 
L 90.436387 295.488 
L 90.436387 295.488 
L 90.613022 290.561828 
L 90.613022 290.561828 
L 90.789657 290.819742 
L 90.789657 290.819742 
L 91.142926 293.321516 
L 91.142926 293.321516 
L 91.319561 295.488 
L 91.319561 295.488 
L 91.67283 291.688508 
L 91.67283 291.688508 
L 92.0261 286.46234 
L 92.0261 286.46234 
L 92.202734 295.488 
L 92.202734 295.488 
L 92.379369 281.625759 
L 92.379369 281.625759 
L 93.439177 268.478892 
L 93.439177 268.478892 
L 93.792446 265.249527 
L 93.792446 265.249527 
L 94.32235 260.410231 
L 94.32235 260.410231 
L 94.67562 256.650105 
L 94.67562 256.650105 
L 94.852254 256.033824 
L 94.852254 256.033824 
L 95.205524 253.143821 
L 95.205524 253.143821 
L 95.382158 253.069162 
L 95.382158 253.069162 
L 96.265332 248.364253 
L 96.265332 248.364253 
L 96.441967 247.17513 
L 96.441967 247.17513 
L 96.971871 239.236784 
L 96.971871 239.236784 
L 97.501775 227.732427 
L 97.501775 227.732427 
L 97.678409 225.728837 
L 97.678409 225.728837 
L 98.031679 216.823989 
L 98.031679 216.823989 
L 98.208313 218.929388 
L 98.208313 218.929388 
L 98.384948 216.086896 
L 98.384948 216.086896 
L 98.561583 218.404057 
L 98.561583 218.404057 
L 98.738217 216.720823 
L 98.738217 216.720823 
L 98.914852 219.810371 
L 98.914852 219.810371 
L 99.091487 220.128013 
L 99.091487 220.128013 
L 99.268121 218.539801 
L 99.444756 225.126131 
L 99.444756 225.126131 
L 99.621391 224.428403 
L 99.621391 224.428403 
L 99.798026 230.682158 
L 99.798026 230.682158 
L 99.97466 230.611571 
L 99.97466 230.611571 
L 100.151295 236.147237 
L 100.151295 236.147237 
L 100.32793 236.445875 
L 100.32793 236.445875 
L 100.504564 241.420915 
L 100.504564 241.420915 
L 100.681199 242.201447 
L 100.681199 242.201447 
L 100.857834 240.594231 
L 100.857834 240.594231 
L 101.034468 247.995028 
L 101.034468 247.995028 
L 101.211103 247.240288 
L 101.211103 247.240288 
L 101.387738 253.8144 
L 101.387738 253.8144 
L 101.564372 253.737025 
L 101.564372 253.737025 
L 101.741007 258.907538 
L 101.741007 258.907538 
L 101.917642 258.893964 
L 101.917642 258.893964 
L 102.094276 261.224699 
L 102.094276 261.224699 
L 102.447546 258.112075 
L 102.447546 258.112075 
L 102.97745 243.534459 
L 102.97745 243.534459 
L 103.154084 233.390263 
L 103.154084 233.390263 
L 103.330719 236.840892 
L 103.330719 236.840892 
L 103.507354 230.375375 
L 103.507354 230.375375 
L 103.683989 235.814662 
L 103.860623 233.314246 
L 103.860623 233.314246 
L 104.037258 240.294235 
L 104.037258 240.294235 
L 104.213893 240.901014 
L 104.213893 240.901014 
L 104.567162 251.935694 
L 104.567162 251.935694 
L 104.743797 253.081379 
L 104.743797 253.081379 
L 104.920431 265.731421 
L 104.920431 265.731421 
L 105.097066 268.72459 
L 105.097066 268.72459 
L 105.450335 286.000808 
L 105.450335 286.000808 
L 105.62697 292.889848 
L 105.62697 292.889848 
L 105.803605 285.865063 
L 105.803605 285.865063 
L 107.569952 170.792987 
L 107.569952 170.792987 
L 108.099856 144.404231 
L 108.099856 144.404231 
L 108.27649 143.652206 
L 108.27649 143.652206 
L 108.62976 136.312494 
L 108.62976 136.312494 
L 109.512933 180.829944 
L 109.512933 180.829944 
L 110.042837 223.932935 
L 110.042837 223.932935 
L 110.396106 248.5733 
L 110.396106 248.5733 
L 111.455915 288.733347 
L 111.455915 288.733347 
L 111.632549 295.414698 
L 111.632549 295.414698 
L 112.868992 271.010529 
L 112.868992 271.010529 
L 113.045627 270.424112 
L 113.045627 270.424112 
L 113.222261 263.85 
L 113.222261 263.85 
L 113.398896 262.162694 
L 113.398896 262.162694 
L 113.752165 253.764174 
L 113.752165 253.764174 
L 113.9288 251.090005 
L 113.9288 251.090005 
L 115.165243 199.659081 
L 115.165243 199.659081 
L 116.93159 110.064913 
L 116.93159 110.064913 
L 117.108224 105.706153 
L 117.108224 105.706153 
L 117.461494 103.641478 
L 117.461494 103.641478 
L 117.638128 103.473154 
L 117.638128 103.473154 
L 117.991398 110.120569 
L 117.991398 110.120569 
L 118.168032 111.961266 
L 118.168032 111.961266 
L 118.697936 130.586786 
L 118.697936 130.586786 
L 119.051206 139.005668 
L 119.051206 139.005668 
L 119.404475 154.412683 
L 119.404475 154.412683 
L 119.58111 158.790447 
L 119.58111 158.790447 
L 120.111014 191.661008 
L 120.111014 191.661008 
L 120.464283 210.784711 
L 120.464283 210.784711 
L 121.170822 270.041312 
L 121.170822 270.041312 
L 121.524091 292.941431 
L 121.524091 292.941431 
L 122.407265 244.77245 
L 122.407265 244.77245 
L 122.583899 242.592392 
L 122.583899 242.592392 
L 122.760534 234.93368 
L 122.760534 234.93368 
L 122.937169 234.783003 
L 122.937169 234.783003 
L 123.113804 230.327865 
L 123.113804 230.327865 
L 123.290438 231.173554 
L 123.290438 231.173554 
L 123.467073 234.723276 
L 123.467073 234.723276 
L 123.643708 230.802971 
L 123.643708 230.802971 
L 123.820342 234.324186 
L 123.820342 234.324186 
L 123.996977 231.761328 
L 123.996977 231.761328 
L 124.173612 234.530518 
L 124.173612 234.530518 
L 124.350246 233.277595 
L 124.350246 233.277595 
L 124.526881 235.824165 
L 124.526881 235.824165 
L 124.703516 240.082473 
L 124.703516 240.082473 
L 124.88015 237.806036 
L 124.88015 237.806036 
L 125.056785 241.627247 
L 125.056785 241.627247 
L 125.23342 241.066622 
L 125.23342 241.066622 
L 125.939958 256.013463 
L 125.939958 256.013463 
L 126.116593 256.686756 
L 126.116593 256.686756 
L 126.293228 261.363158 
L 126.293228 261.363158 
L 126.469862 262.497984 
L 126.469862 262.497984 
L 126.823132 271.512784 
L 126.823132 271.512784 
L 126.999767 270.388819 
L 126.999767 270.388819 
L 127.176401 273.725422 
L 127.176401 273.725422 
L 127.353036 272.608243 
L 127.353036 272.608243 
L 127.529671 274.123153 
L 127.529671 274.123153 
L 127.706305 276.715876 
L 127.706305 276.715876 
L 127.88294 272.859371 
L 127.88294 272.859371 
L 128.059575 273.561171 
L 128.059575 273.561171 
L 128.236209 270.580219 
L 128.236209 270.580219 
L 128.412844 270.854423 
L 128.412844 270.854423 
L 128.589479 272.915026 
L 128.589479 272.915026 
L 128.766113 270.049457 
L 128.766113 270.049457 
L 128.942748 272.192865 
L 128.942748 272.192865 
L 129.119383 271.018674 
L 129.119383 271.018674 
L 129.296017 272.919098 
L 129.296017 272.919098 
L 129.472652 276.608637 
L 129.472652 276.608637 
L 129.649287 275.414085 
L 129.649287 275.414085 
L 129.825921 278.50499 
L 129.825921 278.50499 
L 130.002556 278.253862 
L 130.002556 278.253862 
L 130.355826 283.212613 
L 130.355826 283.212613 
L 130.53246 281.481869 
L 130.88573 286.473199 
L 130.88573 286.473199 
L 131.062364 283.139311 
L 131.062364 283.139311 
L 131.238999 284.631145 
L 131.238999 284.631145 
L 131.415634 282.023491 
L 131.415634 282.023491 
L 131.592268 295.488 
L 131.592268 295.488 
L 131.768903 283.86826 
L 131.768903 283.86826 
L 131.945538 280.02533 
L 131.945538 280.02533 
L 132.122172 280.180079 
L 132.122172 280.180079 
L 132.298807 281.411282 
L 132.298807 281.411282 
L 132.475442 276.688727 
L 132.475442 276.688727 
L 132.652076 277.109535 
L 132.652076 277.109535 
L 132.828711 273.781077 
L 132.828711 273.781077 
L 133.005346 273.554383 
L 133.005346 273.554383 
L 133.18198 274.489664 
L 133.18198 274.489664 
L 133.358615 271.128627 
L 133.358615 271.128627 
L 133.53525 271.701469 
L 133.53525 271.701469 
L 133.711884 273.297826 
L 133.711884 273.297826 
L 133.888519 269.784755 
L 133.888519 269.784755 
L 134.065154 270.357597 
L 134.065154 270.357597 
L 134.241789 267.912837 
L 134.241789 267.912837 
L 134.418423 267.240901 
L 134.418423 267.240901 
L 134.595058 267.069863 
L 134.595058 267.069863 
L 134.948327 261.618358 
L 134.948327 261.618358 
L 135.124962 260.577197 
L 135.124962 260.577197 
L 135.478231 253.503545 
L 135.478231 253.503545 
L 135.654866 251.818954 
L 135.654866 251.818954 
L 136.008135 244.029927 
L 136.008135 244.029927 
L 136.18477 242.046698 
L 136.18477 242.046698 
L 136.538039 233.713336 
L 136.538039 233.713336 
L 136.714674 231.159979 
L 136.714674 231.159979 
L 137.067943 221.84654 
L 137.067943 221.84654 
L 137.244578 218.485503 
L 137.244578 218.485503 
L 137.597847 207.864844 
L 137.597847 207.864844 
L 139.18756 174.296555 
L 139.18756 174.296555 
L 140.953906 152.010003 
L 140.953906 152.010003 
L 141.130541 150.690565 
L 141.130541 150.690565 
L 141.307176 148.2268 
L 141.307176 148.2268 
L 141.660445 146.793337 
L 141.660445 146.793337 
L 141.83708 146.566643 
L 141.83708 146.566643 
L 142.013715 146.664379 
L 142.013715 146.664379 
L 142.190349 145.562133 
L 142.190349 145.562133 
L 142.366984 145.840409 
L 142.366984 145.840409 
L 142.720253 147.066183 
L 142.720253 147.066183 
L 142.896888 146.907362 
L 142.896888 146.907362 
L 143.426792 149.215021 
L 143.426792 149.215021 
L 143.603427 150.19374 
L 143.603427 150.19374 
L 143.780061 150.360706 
L 143.780061 150.360706 
L 144.309965 153.571066 
L 144.309965 153.571066 
L 145.193139 161.065527 
L 145.193139 161.065527 
L 145.899678 170.851357 
L 145.899678 170.851357 
L 146.606216 185.232142 
L 146.606216 185.232142 
L 147.48939 210.230873 
L 147.48939 210.230873 
L 149.255736 268.424594 
L 149.255736 268.424594 
L 149.785641 278.37196 
L 149.785641 278.37196 
L 150.315545 284.967791 
L 150.315545 284.967791 
L 150.492179 286.626591 
L 150.492179 286.626591 
L 150.845449 288.149646 
L 150.845449 288.149646 
L 151.375353 290.512959 
L 151.375353 290.512959 
L 151.551987 290.6935 
L 151.551987 290.6935 
L 151.728622 291.471317 
L 151.728622 291.471317 
L 151.905257 295.488 
L 151.905257 295.488 
L 152.081891 293.172197 
L 152.081891 293.172197 
L 152.258526 293.701601 
L 152.258526 293.701601 
L 152.435161 294.734617 
L 152.435161 294.734617 
L 152.611795 295.040043 
L 152.611795 295.040043 
L 152.965065 292.672656 
L 152.965065 292.672656 
L 153.141699 295.488 
L 153.141699 295.488 
L 153.318334 289.372705 
L 153.318334 289.372705 
L 153.671604 284.977294 
L 153.671604 284.977294 
L 154.201508 274.77337 
L 154.201508 274.77337 
L 155.261316 247.275581 
L 155.261316 247.275581 
L 155.43795 245.353437 
L 155.43795 245.353437 
L 155.614585 241.87566 
L 155.614585 241.87566 
L 155.79122 240.740835 
L 155.79122 240.740835 
L 156.144489 235.381637 
L 156.144489 235.381637 
L 156.321124 237.573913 
L 156.321124 237.573913 
L 156.497758 235.587969 
L 156.497758 235.587969 
L 156.674393 237.937708 
L 156.674393 237.937708 
L 156.851028 236.299271 
L 156.851028 236.299271 
L 157.027662 238.258066 
L 157.027662 238.258066 
L 157.204297 236.098369 
L 157.204297 236.098369 
L 157.380932 237.200615 
L 157.380932 237.200615 
L 157.557567 234.401561 
L 157.557567 234.401561 
L 157.734201 234.390701 
L 157.734201 234.390701 
L 157.910836 230.706592 
L 157.910836 230.706592 
L 158.087471 229.801176 
L 158.087471 229.801176 
L 158.617375 218.345687 
L 158.617375 218.345687 
L 158.794009 216.033956 
L 158.794009 216.033956 
L 159.323913 199.868128 
L 159.323913 199.868128 
L 159.500548 196.45958 
L 160.030452 175.246768 
L 160.030452 175.246768 
L 160.207087 170.430548 
L 160.207087 170.430548 
L 160.736991 139.932803 
L 160.736991 139.932803 
L 160.913625 135.287622 
L 160.913625 135.287622 
L 161.09026 121.801394 
L 161.09026 121.801394 
L 161.266895 118.66705 
L 161.266895 118.66705 
L 161.44353 104.732864 
L 161.44353 104.732864 
L 161.620164 103.159584 
L 161.620164 103.159584 
L 161.796799 90.155249 
L 161.796799 90.155249 
L 161.973434 91.286002 
L 161.973434 91.286002 
L 162.150068 79.435496 
L 162.150068 79.435496 
L 162.326703 82.047223 
L 162.326703 82.047223 
L 162.503338 80.183449 
L 162.503338 80.183449 
L 162.679972 73.46952 
L 162.679972 73.46952 
L 162.856607 72.322478 
L 162.856607 72.322478 
L 163.033242 66.169174 
L 163.033242 66.169174 
L 163.209876 66.237046 
L 163.209876 66.237046 
L 163.386511 60.556133 
L 163.386511 60.556133 
L 163.563146 61.377388 
L 163.563146 61.377388 
L 163.73978 56.091493 
L 163.916415 58.11816 
L 163.916415 58.11816 
L 164.09305 53.568 
L 164.09305 53.568 
L 164.269684 57.524956 
L 164.269684 57.524956 
L 164.446319 54.383825 
L 164.446319 54.383825 
L 164.622954 59.37244 
L 164.622954 59.37244 
L 164.799588 56.80008 
L 164.799588 56.80008 
L 164.976223 63.727128 
L 164.976223 63.727128 
L 165.152858 62.691396 
L 165.152858 62.691396 
L 165.329493 72.128363 
L 165.329493 72.128363 
L 165.506127 72.874958 
L 165.506127 72.874958 
L 165.682762 83.484758 
L 165.682762 83.484758 
L 165.859397 84.50963 
L 165.859397 84.50963 
L 166.036031 95.23617 
L 166.212666 96.213532 
L 166.212666 96.213532 
L 166.389301 107.018804 
L 166.565935 107.772187 
L 166.565935 107.772187 
L 166.74257 117.522723 
L 166.74257 117.522723 
L 166.919205 116.910515 
L 167.272474 131.611658 
L 167.272474 131.611658 
L 167.449109 133.372266 
L 167.625743 138.819697 
L 167.625743 138.819697 
L 167.802378 139.909727 
L 167.802378 139.909727 
L 167.979013 145.300146 
L 167.979013 145.300146 
L 168.155647 145.915069 
L 168.155647 145.915069 
L 168.332282 151.468382 
L 168.332282 151.468382 
L 168.508917 151.792811 
L 168.508917 151.792811 
L 168.685551 157.701775 
L 168.685551 157.701775 
L 168.862186 157.720779 
L 168.862186 157.720779 
L 169.038821 163.369113 
L 169.038821 163.369113 
L 169.215456 162.87093 
L 169.215456 162.87093 
L 169.39209 168.578992 
L 169.39209 168.578992 
L 169.568725 168.026511 
L 169.568725 168.026511 
L 169.74536 173.982985 
L 169.74536 173.982985 
L 169.921994 173.088428 
L 169.921994 173.088428 
L 170.098629 178.928162 
L 170.098629 178.928162 
L 170.275264 177.767545 
L 170.275264 177.767545 
L 170.451898 183.424024 
L 170.451898 183.424024 
L 170.628533 181.987846 
L 170.628533 181.987846 
L 170.805168 187.372835 
L 170.805168 187.372835 
L 170.981802 186.04118 
L 170.981802 186.04118 
L 171.158437 191.363727 
L 171.158437 191.363727 
L 171.335072 190.247906 
L 171.335072 190.247906 
L 171.511706 195.803934 
L 171.511706 195.803934 
L 171.688341 195.336972 
L 171.688341 195.336972 
L 171.864976 201.171276 
L 171.864976 201.171276 
L 172.04161 201.510638 
L 172.04161 201.510638 
L 172.218245 207.668014 
L 172.218245 207.668014 
L 172.39488 208.901933 
L 172.39488 208.901933 
L 172.571514 215.366092 
L 172.571514 215.366092 
L 172.748149 217.521717 
L 172.748149 217.521717 
L 173.278053 235.102003 
L 173.278053 235.102003 
L 173.631323 247.036671 
L 173.631323 247.036671 
L 174.337861 269.214628 
L 174.337861 269.214628 
L 174.867765 287.865939 
L 174.867765 287.865939 
L 175.221035 293.458618 
L 175.221035 293.458618 
L 175.397669 295.488 
L 175.397669 295.488 
L 175.750939 282.031635 
L 175.750939 282.031635 
L 175.927573 280.452925 
L 175.927573 280.452925 
L 176.104208 276.308642 
L 176.104208 276.308642 
L 176.280843 275.4168 
L 176.280843 275.4168 
L 176.457477 272.598741 
L 176.457477 272.598741 
L 176.634112 271.920018 
L 176.634112 271.920018 
L 176.810747 272.856656 
L 176.810747 272.856656 
L 176.987382 270.091538 
L 176.987382 270.091538 
L 177.164016 271.203286 
L 177.164016 271.203286 
L 177.340651 269.623219 
L 177.340651 269.623219 
L 177.517286 270.316874 
L 177.517286 270.316874 
L 177.69392 272.335397 
L 177.69392 272.335397 
L 177.870555 269.625934 
L 177.870555 269.625934 
L 178.04719 270.326376 
L 178.04719 270.326376 
L 178.223824 272.019112 
L 178.223824 272.019112 
L 178.400459 267.58162 
L 178.400459 267.58162 
L 178.577094 267.740441 
L 178.577094 267.740441 
L 178.930363 262.46812 
L 178.930363 262.46812 
L 179.106998 261.497546 
L 179.106998 261.497546 
L 179.460267 252.520754 
L 179.460267 252.520754 
L 179.636902 249.439351 
L 179.636902 249.439351 
L 179.990171 236.372573 
L 179.990171 236.372573 
L 180.166806 231.029664 
L 180.166806 231.029664 
L 181.049979 189.361494 
L 181.049979 189.361494 
L 181.933153 152.185113 
L 181.933153 152.185113 
L 182.286422 143.160811 
L 182.286422 143.160811 
L 182.463057 140.376688 
L 182.463057 140.376688 
L 182.639691 140.002033 
L 182.639691 140.002033 
L 182.816326 140.492071 
L 182.816326 140.492071 
L 182.992961 142.366705 
L 182.992961 142.366705 
L 183.169595 145.612359 
L 183.169595 145.612359 
L 183.876134 174.80967 
L 183.876134 174.80967 
L 185.289212 260.372223 
L 185.289212 260.372223 
L 185.819116 282.688639 
L 185.819116 282.688639 
L 186.172385 292.927856 
L 186.172385 292.927856 
L 186.34902 294.592085 
L 186.525654 292.164972 
L 186.525654 292.164972 
L 186.702289 291.374938 
L 186.702289 291.374938 
L 186.878924 295.488 
L 186.878924 295.488 
L 187.055558 293.196631 
L 187.055558 293.196631 
L 187.232193 295.488 
L 187.232193 295.488 
L 187.585462 286.887221 
L 187.585462 286.887221 
L 188.292001 259.480381 
L 188.292001 259.480381 
L 188.99854 222.347438 
L 188.99854 222.347438 
L 190.411617 153.679662 
L 190.411617 153.679662 
L 190.588252 154.109972 
L 190.588252 154.109972 
L 190.764887 151.738513 
L 190.764887 151.738513 
L 190.941521 144.769384 
L 190.941521 144.769384 
L 191.118156 143.827317 
L 191.118156 143.827317 
L 191.294791 136.28263 
L 191.294791 136.28263 
L 191.471425 138.624225 
L 191.471425 138.624225 
L 191.64806 132.527934 
L 191.64806 132.527934 
L 191.824695 139.672174 
L 191.824695 139.672174 
L 192.00133 134.08764 
L 192.00133 134.08764 
L 192.354599 153.981015 
L 192.354599 153.981015 
L 192.531234 156.389124 
L 192.531234 156.389124 
L 192.707868 168.566775 
L 192.707868 168.566775 
L 192.884503 169.054098 
L 193.061138 182.518607 
L 193.061138 182.518607 
L 193.237772 180.517732 
L 193.237772 180.517732 
L 193.591042 204.896109 
L 193.591042 204.896109 
L 193.767676 203.780288 
L 193.767676 203.780288 
L 193.944311 212.201885 
L 193.944311 212.201885 
L 194.120946 205.318275 
L 194.120946 205.318275 
L 194.29758 211.969761 
L 194.29758 211.969761 
L 194.474215 212.592829 
L 194.65085 205.474381 
L 194.65085 205.474381 
L 194.827484 206.731376 
L 194.827484 206.731376 
L 195.004119 197.716576 
L 195.004119 197.716576 
L 195.180754 201.680319 
L 195.180754 201.680319 
L 195.357388 191.597208 
L 195.357388 191.597208 
L 195.710658 202.973965 
L 195.710658 202.973965 
L 195.887293 200.628298 
L 195.887293 200.628298 
L 196.063927 208.64809 
L 196.063927 208.64809 
L 196.240562 208.034525 
L 196.240562 208.034525 
L 196.593831 228.116585 
L 196.593831 228.116585 
L 196.770466 231.337805 
L 196.770466 231.337805 
L 196.947101 239.121402 
L 196.947101 239.121402 
L 197.123735 237.734091 
L 197.123735 237.734091 
L 197.30037 243.64034 
L 197.30037 243.64034 
L 197.477005 236.863968 
L 197.477005 236.863968 
L 197.653639 242.413209 
L 197.653639 242.413209 
L 197.830274 243.69871 
L 197.830274 243.69871 
L 198.006909 236.023709 
L 198.006909 236.023709 
L 198.183543 237.233194 
L 198.183543 237.233194 
L 198.360178 225.975892 
L 198.360178 225.975892 
L 198.536813 228.404363 
L 198.536813 228.404363 
L 198.713447 227.299402 
L 198.713447 227.299402 
L 198.890082 219.400422 
L 198.890082 219.400422 
L 199.066717 220.525745 
L 199.066717 220.525745 
L 199.243351 211.645332 
L 199.243351 211.645332 
L 199.419986 215.648441 
L 199.419986 215.648441 
L 199.596621 206.852189 
L 199.596621 206.852189 
L 199.94989 217.919448 
L 199.94989 217.919448 
L 200.126525 213.887833 
L 200.126525 213.887833 
L 200.30316 218.959252 
L 200.30316 218.959252 
L 200.479794 213.059791 
L 200.479794 213.059791 
L 200.656429 218.773282 
L 200.656429 218.773282 
L 200.833064 211.381987 
L 200.833064 211.381987 
L 201.186333 220.536605 
L 201.186333 220.536605 
L 201.362968 217.00453 
L 201.362968 217.00453 
L 201.539602 220.770086 
L 201.539602 220.770086 
L 201.716237 217.763342 
L 201.716237 217.763342 
L 201.892872 222.884987 
L 201.892872 222.884987 
L 202.069506 220.897685 
L 202.069506 220.897685 
L 202.246141 227.140581 
L 202.246141 227.140581 
L 202.422776 227.276325 
L 202.422776 227.276325 
L 202.776045 239.91415 
L 202.776045 239.91415 
L 203.129314 250.006763 
L 203.129314 250.006763 
L 204.542392 286.812561 
L 204.542392 286.812561 
L 205.072296 292.497546 
L 205.072296 292.497546 
L 205.425565 294.395256 
L 205.425565 294.395256 
L 205.6022 295.2966 
L 205.6022 295.2966 
L 205.778835 295.488 
L 205.778835 295.488 
L 205.955469 295.245017 
L 205.955469 295.245017 
L 206.132104 294.571724 
L 206.132104 294.571724 
L 206.308739 294.608375 
L 206.308739 294.608375 
L 206.838643 291.142815 
L 206.838643 291.142815 
L 207.015277 295.488 
L 207.015277 295.488 
L 207.191912 289.234245 
L 207.191912 289.234245 
L 207.545182 285.874566 
L 207.545182 285.874566 
L 207.721816 284.856481 
L 207.721816 284.856481 
L 208.075086 280.659257 
L 208.075086 280.659257 
L 208.25172 279.011317 
L 208.25172 279.011317 
L 209.841432 251.271903 
L 209.841432 251.271903 
L 211.431145 230.858626 
L 211.431145 230.858626 
L 211.784414 226.160505 
L 211.784414 226.160505 
L 213.020857 211.174298 
L 213.020857 211.174298 
L 213.197491 210.234945 
L 213.197491 210.234945 
L 213.374126 208.631801 
L 213.374126 208.631801 
L 213.550761 208.049457 
L 213.550761 208.049457 
L 213.727395 207.878418 
L 213.727395 207.878418 
L 213.90403 208.102397 
L 213.90403 208.102397 
L 214.080665 208.686099 
L 214.080665 208.686099 
L 214.257299 208.326376 
L 214.257299 208.326376 
L 214.787203 210.636749 
L 214.787203 210.636749 
L 214.963838 211.500085 
L 214.963838 211.500085 
L 215.140473 210.738558 
L 215.140473 210.738558 
L 215.317108 211.064345 
L 215.317108 211.064345 
L 215.847012 212.573825 
L 215.847012 212.573825 
L 216.200281 215.974228 
L 216.200281 215.974228 
L 216.730185 224.344242 
L 216.730185 224.344242 
L 217.260089 240.326814 
L 217.260089 240.326814 
L 218.143262 278.468339 
L 218.143262 278.468339 
L 218.496532 293.678524 
L 218.496532 293.678524 
L 218.673166 289.817947 
L 218.673166 289.817947 
L 219.026436 277.822194 
L 219.026436 277.822194 
L 219.55634 265.360838 
L 219.55634 265.360838 
L 219.909609 259.394861 
L 219.909609 259.394861 
L 220.086244 259.377215 
L 220.086244 259.377215 
L 220.262879 257.871807 
L 220.262879 257.871807 
L 220.439513 257.708913 
L 220.439513 257.708913 
L 220.616148 256.464135 
L 220.616148 256.464135 
L 220.792783 254.419821 
L 220.792783 254.419821 
L 220.969417 254.077744 
L 220.969417 254.077744 
L 221.322687 250.89589 
L 221.322687 250.89589 
L 221.499321 248.941168 
L 221.499321 248.941168 
L 221.675956 245.588276 
L 221.675956 245.588276 
L 221.852591 245.574701 
L 221.852591 245.574701 
L 222.029225 242.481081 
L 222.029225 242.481081 
L 222.20586 242.6304 
L 222.20586 242.6304 
L 222.382495 240.162563 
L 222.382495 240.162563 
L 222.559129 240.400116 
L 222.559129 240.400116 
L 222.735764 238.779325 
L 222.735764 238.779325 
L 222.912399 235.011054 
L 222.912399 235.011054 
L 223.089034 237.780245 
L 223.089034 237.780245 
L 223.265668 234.172152 
L 223.265668 234.172152 
L 223.442303 236.511032 
L 223.442303 236.511032 
L 223.618938 232.930089 
L 223.618938 232.930089 
L 223.795572 234.535948 
L 223.795572 234.535948 
L 223.972207 231.086677 
L 223.972207 231.086677 
L 224.148842 232.240506 
L 224.148842 232.240506 
L 224.325476 229.134669 
L 224.325476 229.134669 
L 224.502111 229.965427 
L 224.678746 227.554602 
L 224.678746 227.554602 
L 224.85538 222.507617 
L 224.85538 222.507617 
L 225.032015 227.052347 
L 225.032015 227.052347 
L 225.20865 222.963719 
L 225.20865 222.963719 
L 225.385284 227.435147 
L 225.385284 227.435147 
L 225.561919 224.075467 
L 225.561919 224.075467 
L 225.738554 228.336491 
L 225.738554 228.336491 
L 225.915188 225.712547 
L 225.915188 225.712547 
L 226.091823 229.616563 
L 226.091823 229.616563 
L 226.268458 227.479942 
L 226.268458 227.479942 
L 226.445092 230.821975 
L 226.445092 230.821975 
L 226.621727 229.005712 
L 226.621727 229.005712 
L 226.798362 231.747753 
L 226.798362 231.747753 
L 226.974997 230.466324 
L 226.974997 230.466324 
L 227.151631 226.172722 
L 227.151631 226.172722 
L 227.328266 231.963587 
L 227.328266 231.963587 
L 227.504901 227.79487 
L 227.504901 227.79487 
L 227.681535 233.588451 
L 227.681535 233.588451 
L 227.85817 230.124248 
L 227.85817 230.124248 
L 228.034805 236.6237 
L 228.034805 236.6237 
L 228.211439 235.18345 
L 228.211439 235.18345 
L 228.388074 242.060273 
L 228.388074 242.060273 
L 228.564709 242.392847 
L 228.564709 242.392847 
L 228.741343 249.01447 
L 228.741343 249.01447 
L 228.917978 250.411282 
L 228.917978 250.411282 
L 229.094613 256.422054 
L 229.094613 256.422054 
L 229.271247 258.216598 
L 229.271247 258.216598 
L 229.447882 257.539232 
L 229.447882 257.539232 
L 229.624517 265.795221 
L 229.624517 265.795221 
L 229.801151 265.886169 
L 229.801151 265.886169 
L 229.977786 273.783792 
L 229.977786 273.783792 
L 230.154421 274.814093 
L 230.154421 274.814093 
L 230.331055 282.463303 
L 230.331055 282.463303 
L 230.50769 284.640647 
L 230.50769 284.640647 
L 230.86096 295.440489 
L 230.86096 295.440489 
L 231.214229 282.748367 
L 231.214229 282.748367 
L 231.390864 278.181918 
L 231.390864 278.181918 
L 232.274037 234.983905 
L 232.274037 234.983905 
L 233.15721 193.784054 
L 233.15721 193.784054 
L 233.51048 182.655709 
L 233.51048 182.655709 
L 233.863749 181.575182 
L 233.863749 181.575182 
L 234.040384 182.65028 
L 234.040384 182.65028 
L 234.570288 207.465755 
L 234.570288 207.465755 
L 234.923557 237.645857 
L 234.923557 237.645857 
L 235.453461 290.351423 
L 235.453461 290.351423 
L 235.630096 283.063294 
L 235.630096 283.063294 
L 236.336635 223.687238 
L 236.336635 223.687238 
L 236.866539 195.805291 
L 236.866539 195.805291 
L 237.219808 182.300059 
L 237.219808 182.300059 
L 237.749712 169.468119 
L 237.749712 169.468119 
L 238.102982 165.065921 
L 238.102982 165.065921 
L 238.279616 164.093989 
L 238.279616 164.093989 
L 238.456251 163.936526 
L 238.456251 163.936526 
L 238.632886 162.37682 
L 238.632886 162.37682 
L 238.80952 162.746045 
L 238.80952 162.746045 
L 239.16279 164.596244 
L 239.16279 164.596244 
L 239.339424 164.32747 
L 239.339424 164.32747 
L 240.575867 171.061761 
L 240.575867 171.061761 
L 241.282406 181.789659 
L 241.282406 181.789659 
L 242.342214 207.249921 
L 242.342214 207.249921 
L 243.931926 251.565111 
L 243.931926 251.565111 
L 244.285195 258.463653 
L 244.285195 258.463653 
L 244.638465 266.81602 
L 244.638465 266.81602 
L 244.815099 267.730939 
L 244.815099 267.730939 
L 245.168369 273.498728 
L 245.168369 273.498728 
L 245.345003 273.850307 
L 245.345003 273.850307 
L 245.874908 279.622168 
L 245.874908 279.622168 
L 246.051542 278.526709 
L 246.051542 278.526709 
L 246.404812 281.507661 
L 246.404812 281.507661 
L 246.581446 280.471929 
L 246.581446 280.471929 
L 247.11135 285.08046 
L 247.11135 285.08046 
L 247.641254 295.481213 
L 247.641254 295.481213 
L 248.524428 263.229647 
L 248.524428 263.229647 
L 249.407601 224.094471 
L 249.407601 224.094471 
L 249.584236 223.322085 
L 249.584236 223.322085 
L 249.937505 211.922251 
L 249.937505 211.922251 
L 250.11414 215.793688 
L 250.11414 215.793688 
L 250.290775 213.794169 
L 250.290775 213.794169 
L 250.467409 217.808138 
L 250.467409 217.808138 
L 250.820679 220.077788 
L 250.820679 220.077788 
L 251.173948 230.881703 
L 251.173948 230.881703 
L 251.350583 233.832791 
L 251.350583 233.832791 
L 251.703852 248.076475 
L 251.703852 248.076475 
L 251.880487 252.227545 
L 251.880487 252.227545 
L 252.233756 267.657637 
L 252.233756 267.657637 
L 252.587025 282.508099 
L 252.587025 282.508099 
L 253.116929 295.488 
L 253.116929 295.488 
L 253.470199 278.87693 
L 253.470199 278.87693 
L 254.353372 257.84873 
L 254.353372 257.84873 
L 254.706642 247.141194 
L 254.706642 247.141194 
L 254.883276 243.921332 
L 254.883276 243.921332 
L 255.236546 233.160855 
L 255.236546 233.160855 
L 255.589815 223.983161 
L 255.589815 223.983161 
L 255.76645 220.98049 
L 255.76645 220.98049 
L 256.119719 212.782872 
L 256.119719 212.782872 
L 256.472988 207.977512 
L 256.472988 207.977512 
L 256.826258 200.235996 
L 256.826258 200.235996 
L 257.002892 198.042363 
L 257.002892 198.042363 
L 257.356162 190.482745 
L 257.356162 190.482745 
L 257.532797 187.957895 
L 257.532797 187.957895 
L 257.886066 180.439 
L 257.886066 180.439 
L 259.475778 156.644324 
L 259.475778 156.644324 
L 260.005682 153.488262 
L 260.005682 153.488262 
L 260.182317 153.436679 
L 260.182317 153.436679 
L 260.358951 153.796402 
L 260.358951 153.796402 
L 260.888855 156.197724 
L 260.888855 156.197724 
L 261.41876 162.342884 
L 261.41876 162.342884 
L 261.948664 173.472586 
L 261.948664 173.472586 
L 262.655202 195.398058 
L 262.655202 195.398058 
L 264.598184 260.201184 
L 264.598184 260.201184 
L 265.481357 285.779544 
L 265.481357 285.779544 
L 266.011261 295.407911 
L 266.011261 295.407911 
L 266.541165 289.108003 
L 266.541165 289.108003 
L 267.071069 286.197638 
L 267.071069 286.197638 
L 267.600973 283.617132 
L 267.600973 283.617132 
L 267.954243 282.351993 
L 267.954243 282.351993 
L 268.130877 282.066929 
L 268.130877 282.066929 
L 268.307512 282.134801 
L 268.307512 282.134801 
L 268.837416 285.354664 
L 268.837416 285.354664 
L 269.36732 290.711147 
L 269.36732 290.711147 
L 269.72059 294.460413 
L 269.72059 294.460413 
L 269.897224 294.915158 
L 269.897224 294.915158 
L 271.663571 279.322172 
L 271.663571 279.322172 
L 272.193475 272.893307 
L 272.193475 272.893307 
L 272.546744 269.655798 
L 272.546744 269.655798 
L 272.723379 268.827755 
L 272.723379 268.827755 
L 273.076649 269.847198 
L 273.076649 269.847198 
L 273.429918 272.613673 
L 273.429918 272.613673 
L 273.606553 274.865676 
L 273.606553 274.865676 
L 274.489726 294.347745 
L 274.489726 294.347745 
L 274.842995 286.613016 
L 274.842995 286.613016 
L 275.902803 260.920631 
L 275.902803 260.920631 
L 276.432707 252.974141 
L 276.432707 252.974141 
L 276.962612 249.227589 
L 276.962612 249.227589 
L 277.315881 248.061543 
L 277.315881 248.061543 
L 277.66915 247.8715 
L 277.66915 247.8715 
L 277.845785 248.32353 
L 277.845785 248.32353 
L 278.199054 250.675984 
L 278.199054 250.675984 
L 278.552324 254.961442 
L 278.552324 254.961442 
L 279.435497 270.319589 
L 279.435497 270.319589 
L 280.31867 285.042451 
L 280.31867 285.042451 
L 280.67194 288.733347 
L 280.67194 288.733347 
L 280.848575 295.488 
L 280.848575 295.488 
L 281.025209 291.362721 
L 281.025209 291.362721 
L 281.731748 295.333251 
L 281.731748 295.333251 
L 281.908383 294.237792 
L 281.908383 294.237792 
L 282.085017 292.311576 
L 282.085017 292.311576 
L 282.261652 295.488 
L 282.261652 295.488 
L 282.614921 284.343366 
L 282.614921 284.343366 
L 282.968191 275.391008 
L 282.968191 275.391008 
L 283.498095 255.02117 
L 283.498095 255.02117 
L 284.204633 215.554777 
L 284.204633 215.554777 
L 284.734538 184.093245 
L 284.734538 184.093245 
L 284.911172 168.056375 
L 284.911172 168.056375 
L 285.087807 168.732383 
L 285.087807 168.732383 
L 285.264442 168.040086 
L 285.264442 168.040086 
L 285.441076 159.010353 
L 285.441076 159.010353 
L 285.617711 164.123853 
L 285.617711 164.123853 
L 285.794346 153.038947 
L 285.794346 153.038947 
L 286.147615 168.931928 
L 286.147615 168.931928 
L 286.32425 161.828412 
L 286.32425 161.828412 
L 286.500884 167.908413 
L 286.500884 167.908413 
L 286.677519 154.739827 
L 286.677519 154.739827 
L 286.854154 160.308072 
L 286.854154 160.308072 
L 287.030788 159.83568 
L 287.030788 159.83568 
L 287.207423 147.02546 
L 287.207423 147.02546 
L 287.384058 147.438124 
L 287.384058 147.438124 
L 287.560692 130.543348 
L 287.560692 130.543348 
L 287.737327 134.019767 
L 287.737327 134.019767 
L 287.913962 134.010265 
L 287.913962 134.010265 
L 288.090596 123.504989 
L 288.090596 123.504989 
L 288.267231 128.448808 
L 288.267231 128.448808 
L 288.443866 118.497369 
L 288.443866 118.497369 
L 288.797135 136.118379 
L 288.797135 136.118379 
L 288.97377 133.797146 
L 288.97377 133.797146 
L 289.150405 142.875747 
L 289.150405 142.875747 
L 289.327039 138.537349 
L 289.327039 138.537349 
L 289.680309 152.26113 
L 289.680309 152.26113 
L 289.856943 145.023227 
L 289.856943 145.023227 
L 290.033578 148.10463 
L 290.033578 148.10463 
L 290.210213 146.950801 
L 290.210213 146.950801 
L 290.386847 136.980358 
L 290.386847 136.980358 
L 290.563482 137.052302 
L 290.563482 137.052302 
L 290.740117 121.669721 
L 290.740117 121.669721 
L 290.916751 124.596376 
L 290.916751 124.596376 
L 291.093386 123.92444 
L 291.093386 123.92444 
L 291.270021 114.027299 
L 291.270021 114.027299 
L 291.446655 117.772493 
L 291.446655 117.772493 
L 291.62329 106.391664 
L 291.62329 106.391664 
L 291.97656 120.528109 
L 291.97656 120.528109 
L 292.153194 115.760758 
L 292.153194 115.760758 
L 292.329829 124.871937 
L 292.329829 124.871937 
L 292.506464 118.243527 
L 292.506464 118.243527 
L 292.859733 141.682552 
L 292.859733 141.682552 
L 293.036368 141.447713 
L 293.036368 141.447713 
L 293.213002 153.624006 
L 293.213002 153.624006 
L 293.389637 152.992794 
L 293.389637 152.992794 
L 293.742906 175.842687 
L 293.742906 175.842687 
L 293.919541 179.727698 
L 293.919541 179.727698 
L 294.449445 205.542253 
L 294.449445 205.542253 
L 294.979349 227.409355 
L 294.979349 227.409355 
L 296.569061 270.471623 
L 296.569061 270.471623 
L 296.745696 273.186515 
L 296.745696 273.186515 
L 296.922331 273.6942 
L 296.922331 273.6942 
L 297.098965 274.876536 
L 297.098965 274.876536 
L 297.2756 273.70506 
L 297.2756 273.70506 
L 297.452235 274.034919 
L 297.452235 274.034919 
L 297.628869 271.715044 
L 297.628869 271.715044 
L 297.805504 271.42998 
L 297.805504 271.42998 
L 297.982139 268.20333 
L 297.982139 268.20333 
L 298.158773 267.597909 
L 298.158773 267.597909 
L 298.335408 264.173072 
L 298.335408 264.173072 
L 298.512043 263.889366 
L 298.512043 263.889366 
L 298.688677 260.691223 
L 298.688677 260.691223 
L 298.865312 261.109316 
L 298.865312 261.109316 
L 299.041947 258.588538 
L 299.041947 258.588538 
L 299.218581 260.091231 
L 299.218581 260.091231 
L 299.395216 258.703921 
L 299.395216 258.703921 
L 299.571851 261.405239 
L 299.571851 261.405239 
L 299.748486 260.286704 
L 299.748486 260.286704 
L 299.92512 262.859064 
L 299.92512 262.859064 
L 300.101755 261.881703 
L 300.101755 261.881703 
L 300.27839 264.384834 
L 300.27839 264.384834 
L 300.455024 263.142771 
L 300.455024 263.142771 
L 300.631659 265.035051 
L 300.631659 265.035051 
L 300.808294 263.905655 
L 300.808294 263.905655 
L 300.984928 265.462646 
L 300.984928 265.462646 
L 301.161563 264.892519 
L 301.338198 262.127401 
L 301.338198 262.127401 
L 301.514832 267.185245 
L 301.691467 266.168518 
L 301.691467 266.168518 
L 301.868102 272.096486 
L 301.868102 272.096486 
L 302.044736 273.772932 
L 302.044736 273.772932 
L 302.221371 274.248038 
L 302.221371 274.248038 
L 302.57464 291.829682 
L 302.57464 291.829682 
L 302.92791 275.587838 
L 302.92791 275.587838 
L 303.104544 264.950889 
L 303.104544 264.950889 
L 303.811083 203.546807 
L 303.811083 203.546807 
L 304.517622 155.054755 
L 304.517622 155.054755 
L 304.870891 142.203811 
L 304.870891 142.203811 
L 305.047526 137.342796 
L 305.047526 137.342796 
L 305.400795 134.193521 
L 305.400795 134.193521 
L 305.57743 131.399896 
L 305.57743 131.399896 
L 305.754065 135.834673 
L 305.754065 135.834673 
L 305.930699 134.526095 
L 305.930699 134.526095 
L 306.107334 139.835067 
L 306.107334 139.835067 
L 306.283969 138.392102 
L 306.283969 138.392102 
L 306.460603 143.122802 
L 306.460603 143.122802 
L 306.637238 141.009258 
L 306.637238 141.009258 
L 306.813873 145.092457 
L 306.813873 145.092457 
L 306.990507 141.743637 
L 306.990507 141.743637 
L 307.167142 144.746308 
L 307.167142 144.746308 
L 307.343777 139.896152 
L 307.343777 139.896152 
L 307.520412 141.770786 
L 307.520412 141.770786 
L 307.697046 135.45866 
L 307.697046 135.45866 
L 307.873681 136.784885 
L 307.873681 136.784885 
L 308.050316 129.631144 
L 308.050316 129.631144 
L 308.22695 131.454194 
L 308.22695 131.454194 
L 308.403585 124.91266 
L 308.403585 124.91266 
L 308.58022 128.892693 
L 308.58022 128.892693 
L 308.756854 125.139354 
L 308.756854 125.139354 
L 309.110124 137.903421 
L 309.110124 137.903421 
L 309.286758 140.090267 
L 309.286758 140.090267 
L 309.640028 149.588319 
L 309.640028 149.588319 
L 309.816662 155.881439 
L 309.816662 155.881439 
L 309.993297 156.334827 
L 309.993297 156.334827 
L 310.169932 161.022088 
L 310.169932 161.022088 
L 310.346566 159.074153 
L 310.346566 159.074153 
L 310.523201 163.066403 
L 310.523201 163.066403 
L 310.699836 158.901757 
L 310.699836 158.901757 
L 311.053105 167.220188 
L 311.053105 167.220188 
L 311.22974 165.706635 
L 311.22974 165.706635 
L 311.406375 170.687106 
L 311.406375 170.687106 
L 311.583009 169.075817 
L 311.759644 175.880695 
L 311.759644 175.880695 
L 311.936279 172.99205 
L 311.936279 172.99205 
L 312.112913 181.823595 
L 312.112913 181.823595 
L 312.289548 177.572073 
L 312.289548 177.572073 
L 312.642817 191.73974 
L 312.642817 191.73974 
L 312.819452 189.495881 
L 312.819452 189.495881 
L 312.996087 193.915726 
L 312.996087 193.915726 
L 313.172721 188.310831 
L 313.172721 188.310831 
L 313.349356 192.354663 
L 313.349356 192.354663 
L 313.525991 184.528985 
L 313.525991 184.528985 
L 313.702625 191.040655 
L 313.87926 184.343015 
L 313.87926 184.343015 
L 314.232529 204.133224 
L 314.232529 204.133224 
L 314.409164 207.496976 
L 314.409164 207.496976 
L 314.585799 221.026643 
L 314.585799 221.026643 
L 314.762433 225.029752 
L 314.762433 225.029752 
L 314.939068 240.887439 
L 314.939068 240.887439 
L 315.115703 242.482438 
L 315.115703 242.482438 
L 315.468972 265.032336 
L 315.468972 265.032336 
L 315.645607 264.754059 
L 315.645607 264.754059 
L 315.822242 270.126832 
L 315.822242 270.126832 
L 315.998876 265.0622 
L 315.998876 265.0622 
L 316.175511 269.053092 
L 316.175511 269.053092 
L 316.352146 260.095304 
L 316.352146 260.095304 
L 316.52878 262.815626 
L 316.52878 262.815626 
L 316.705415 251.875967 
L 316.705415 251.875967 
L 316.88205 254.719816 
L 316.88205 254.719816 
L 317.058684 253.196762 
L 317.058684 253.196762 
L 317.235319 244.632633 
L 317.235319 244.632633 
L 317.411954 244.180604 
L 317.411954 244.180604 
L 317.588588 235.988416 
L 317.588588 235.988416 
L 317.765223 237.807394 
L 317.765223 237.807394 
L 317.941858 231.473549 
L 317.941858 231.473549 
L 318.295127 238.28793 
L 318.295127 238.28793 
L 318.471762 237.25627 
L 318.471762 237.25627 
L 318.648396 241.148069 
L 318.648396 241.148069 
L 318.825031 240.784273 
L 318.825031 240.784273 
L 319.001666 245.016791 
L 319.001666 245.016791 
L 319.178301 244.449378 
L 319.178301 244.449378 
L 319.354935 247.837564 
L 319.354935 247.837564 
L 319.53157 246.408173 
L 319.53157 246.408173 
L 319.708205 248.322172 
L 319.708205 248.322172 
L 319.884839 245.054799 
L 319.884839 245.054799 
L 320.061474 245.487824 
L 320.061474 245.487824 
L 320.238109 240.484278 
L 320.238109 240.484278 
L 320.414743 239.561214 
L 320.414743 239.561214 
L 320.591378 236.547683 
L 320.591378 236.547683 
L 321.121282 222.699017 
L 321.121282 222.699017 
L 321.297917 220.623481 
L 321.297917 220.623481 
L 321.474551 216.077394 
L 321.474551 216.077394 
L 321.651186 215.679662 
L 321.651186 215.679662 
L 321.827821 212.822238 
L 321.827821 212.822238 
L 322.004455 214.520403 
L 322.004455 214.520403 
L 322.18109 213.467025 
L 322.18109 213.467025 
L 322.357725 216.574219 
L 322.357725 216.574219 
L 322.534359 216.980096 
L 322.534359 216.980096 
L 323.064264 229.239193 
L 323.064264 229.239193 
L 323.417533 233.965821 
L 323.417533 233.965821 
L 323.594168 243.00777 
L 323.594168 243.00777 
L 323.770802 245.505471 
L 323.770802 245.505471 
L 324.300706 266.484803 
L 324.300706 266.484803 
L 324.477341 270.976593 
L 324.477341 270.976593 
L 324.83061 285.417106 
L 324.83061 285.417106 
L 325.007245 290.4383 
L 325.007245 290.4383 
L 325.18388 290.054143 
L 325.18388 290.054143 
L 325.537149 273.44443 
L 325.537149 273.44443 
L 326.773592 223.024804 
L 326.773592 223.024804 
L 327.126861 216.970593 
L 327.126861 216.970593 
L 327.303496 215.379666 
L 327.303496 215.379666 
L 327.480131 214.855692 
L 327.480131 214.855692 
L 327.656765 215.284645 
L 327.656765 215.284645 
L 327.8334 216.363815 
L 327.8334 216.363815 
L 328.186669 221.159673 
L 328.186669 221.159673 
L 328.539939 228.715219 
L 328.539939 228.715219 
L 329.069843 246.131254 
L 329.069843 246.131254 
L 329.599747 272.487431 
L 329.599747 272.487431 
L 329.953016 294.621949 
L 329.953016 294.621949 
L 330.659555 252.686362 
L 330.659555 252.686362 
L 330.83619 240.67975 
L 330.83619 240.67975 
L 331.012824 236.923696 
L 331.012824 236.923696 
L 331.189459 228.160023 
L 331.189459 228.160023 
L 331.366094 226.860947 
L 331.366094 226.860947 
L 331.542728 220.889541 
L 331.542728 220.889541 
L 331.719363 221.84654 
L 331.719363 221.84654 
L 331.895998 218.132567 
L 331.895998 218.132567 
L 332.072632 220.001771 
L 332.072632 220.001771 
L 332.249267 217.996823 
L 332.249267 217.996823 
L 332.425902 213.154812 
L 332.425902 213.154812 
L 332.602536 219.426214 
L 332.602536 219.426214 
L 332.779171 215.405458 
L 332.779171 215.405458 
L 332.955806 221.067366 
L 332.955806 221.067366 
L 333.13244 217.757912 
L 333.13244 217.757912 
L 333.309075 223.05874 
L 333.309075 223.05874 
L 333.48571 220.490452 
L 333.48571 220.490452 
L 333.662344 225.245586 
L 333.662344 225.245586 
L 333.838979 223.702169 
L 333.838979 223.702169 
L 334.015614 227.584466 
L 334.015614 227.584466 
L 334.192248 226.478147 
L 334.192248 226.478147 
L 334.368883 228.844176 
L 334.368883 228.844176 
L 334.545518 226.828368 
L 334.545518 226.828368 
L 334.722153 227.431074 
L 334.722153 227.431074 
L 334.898787 224.128408 
L 334.898787 224.128408 
L 335.075422 223.918003 
L 335.075422 223.918003 
L 335.252057 220.305839 
L 335.252057 220.305839 
L 335.428691 213.100514 
L 335.428691 213.100514 
L 335.605326 216.578291 
L 335.605326 216.578291 
L 335.781961 210.055762 
L 335.781961 210.055762 
L 335.958595 214.125386 
L 335.958595 214.125386 
L 336.13523 208.193346 
L 336.13523 208.193346 
L 336.311865 212.562965 
L 336.311865 212.562965 
L 336.488499 207.346299 
L 336.488499 207.346299 
L 336.665134 211.990123 
L 336.665134 211.990123 
L 336.841769 208.058959 
L 336.841769 208.058959 
L 337.018403 212.788302 
L 337.018403 212.788302 
L 337.195038 210.072052 
L 337.371673 215.178764 
L 337.371673 215.178764 
L 337.548307 214.197331 
L 337.548307 214.197331 
L 337.724942 220.041137 
L 337.724942 220.041137 
L 337.901577 221.250622 
L 337.901577 221.250622 
L 338.254846 231.993451 
L 338.254846 231.993451 
L 338.431481 234.087991 
L 338.431481 234.087991 
L 338.961385 265.235953 
L 338.961385 265.235953 
L 339.13802 272.872945 
L 339.13802 272.872945 
L 339.491289 294.54729 
L 339.491289 294.54729 
L 340.374462 232.794345 
L 340.374462 232.794345 
L 341.257636 182.948918 
L 341.257636 182.948918 
L 341.43427 179.666613 
L 341.43427 179.666613 
L 341.610905 172.97576 
L 341.78754 171.813786 
L 341.78754 171.813786 
L 341.964174 167.410231 
L 341.964174 167.410231 
L 342.140809 167.799818 
L 342.140809 167.799818 
L 342.317444 165.706635 
L 342.317444 165.706635 
L 342.494079 162.04696 
L 342.494079 162.04696 
L 342.670713 167.379009 
L 342.670713 167.379009 
L 342.847348 165.729712 
L 342.847348 165.729712 
L 343.023983 171.812429 
L 343.023983 171.812429 
L 343.200617 172.33776 
L 343.200617 172.33776 
L 343.377252 179.210511 
L 343.377252 179.210511 
L 343.553887 181.753008 
L 343.553887 181.753008 
L 343.730521 181.489663 
L 343.730521 181.489663 
L 343.907156 194.236084 
L 343.907156 194.236084 
L 344.083791 195.936964 
L 344.083791 195.936964 
L 344.260425 209.242652 
L 344.260425 209.242652 
L 344.43706 213.525395 
L 344.43706 213.525395 
L 344.790329 236.980709 
L 344.790329 236.980709 
L 344.966964 243.431293 
L 344.966964 243.431293 
L 345.320233 280.828938 
L 345.320233 280.828938 
L 345.496868 285.163264 
L 345.496868 285.163264 
L 346.026772 226.100777 
L 346.026772 226.100777 
L 347.263215 107.010659 
L 347.263215 107.010659 
L 347.43985 96.235251 
L 347.43985 96.235251 
L 347.616484 97.386365 
L 347.616484 97.386365 
L 347.793119 95.711277 
L 347.793119 95.711277 
L 347.969754 95.160153 
L 347.969754 95.160153 
L 348.499658 131.547858 
L 348.499658 131.547858 
L 349.206196 177.394248 
L 349.206196 177.394248 
L 349.736101 217.641172 
L 349.736101 217.641172 
L 351.149178 293.743682 
L 351.149178 293.743682 
L 351.325813 289.004837 
L 351.325813 289.004837 
L 351.502447 295.488 
L 351.502447 295.488 
L 351.855717 276.471535 
L 351.855717 276.471535 
L 352.032351 276.190544 
L 352.032351 276.190544 
L 352.208986 271.359393 
L 352.208986 271.359393 
L 352.385621 272.108703 
L 352.385621 272.108703 
L 352.562255 269.809189 
L 352.562255 269.809189 
L 352.73889 271.671605 
L 352.73889 271.671605 
L 352.915525 275.878331 
L 352.915525 275.878331 
L 353.092159 272.807788 
L 353.092159 272.807788 
L 353.268794 276.988722 
L 353.268794 276.988722 
L 353.445429 275.256621 
L 353.445429 275.256621 
L 353.622064 279.311313 
L 353.622064 279.311313 
L 353.798698 278.035313 
L 353.798698 278.035313 
L 353.975333 280.894095 
L 353.975333 280.894095 
L 354.151968 279.824428 
L 354.151968 279.824428 
L 354.328602 281.462865 
L 354.328602 281.462865 
L 354.505237 284.792681 
L 354.505237 284.792681 
L 354.681872 280.693193 
L 354.681872 280.693193 
L 354.858506 282.438869 
L 354.858506 282.438869 
L 355.035141 278.30273 
L 355.035141 278.30273 
L 355.211776 278.424901 
L 355.211776 278.424901 
L 355.38841 274.694638 
L 355.38841 274.694638 
L 355.565045 273.942613 
L 355.565045 273.942613 
L 355.74168 274.766583 
L 355.74168 274.766583 
L 355.918314 268.83047 
L 355.918314 268.83047 
L 356.094949 268.474819 
L 356.094949 268.474819 
L 356.271584 263.255439 
L 356.271584 263.255439 
L 356.448218 261.940073 
L 356.448218 261.940073 
L 356.624853 262.102967 
L 356.624853 262.102967 
L 356.801488 255.408042 
L 356.978122 254.703527 
L 356.978122 254.703527 
L 357.154757 249.124423 
L 357.154757 249.124423 
L 357.331392 247.861998 
L 357.331392 247.861998 
L 357.508027 243.599617 
L 357.508027 243.599617 
L 357.684661 242.058915 
L 357.684661 242.058915 
L 357.861296 241.900094 
L 357.861296 241.900094 
L 358.037931 237.930921 
L 358.037931 237.930921 
L 358.214565 237.864406 
L 358.214565 237.864406 
L 358.3912 235.863531 
L 358.3912 235.863531 
L 358.567835 236.170313 
L 358.567835 236.170313 
L 358.744469 237.839972 
L 358.744469 237.839972 
L 358.921104 237.451743 
L 358.921104 237.451743 
L 359.097739 240.230435 
L 359.097739 240.230435 
L 359.274373 244.874259 
L 359.274373 244.874259 
L 359.451008 246.493692 
L 359.451008 246.493692 
L 360.157547 268.459888 
L 360.157547 268.459888 
L 360.334181 270.752614 
L 360.334181 270.752614 
L 360.687451 282.833886 
L 360.687451 282.833886 
L 360.864085 283.500392 
L 360.864085 283.500392 
L 361.04072 288.389914 
L 361.04072 288.389914 
L 361.217355 289.532883 
L 361.217355 289.532883 
L 361.570624 295.151353 
L 361.570624 295.151353 
L 361.747259 294.54186 
L 361.747259 294.54186 
L 361.923894 295.359043 
L 361.923894 295.359043 
L 362.100528 293.791192 
L 362.100528 293.791192 
L 362.277163 293.895716 
L 362.277163 293.895716 
L 362.453798 295.488 
L 362.453798 295.488 
L 362.630432 293.77626 
L 362.630432 293.77626 
L 362.807067 288.871807 
L 362.807067 288.871807 
L 362.983702 295.488 
L 362.983702 295.488 
L 363.336971 279.741623 
L 363.336971 279.741623 
L 363.69024 274.485591 
L 363.69024 274.485591 
L 364.04351 263.358604 
L 364.04351 263.358604 
L 364.220144 259.872682 
L 364.220144 259.872682 
L 364.573414 246.366092 
L 364.573414 246.366092 
L 364.750048 241.214584 
L 364.750048 241.214584 
L 365.103318 225.663679 
L 365.103318 225.663679 
L 365.456587 210.805073 
L 365.456587 210.805073 
L 367.399569 139.57308 
L 367.399569 139.57308 
L 367.929473 130.434752 
L 367.929473 130.434752 
L 368.106107 129.240199 
L 368.106107 129.240199 
L 368.282742 128.998574 
L 368.282742 128.998574 
L 368.459377 129.754671 
L 368.459377 129.754671 
L 368.636011 131.460981 
L 368.636011 131.460981 
L 368.989281 138.05274 
L 368.989281 138.05274 
L 369.519185 154.963806 
L 369.519185 154.963806 
L 370.578993 201.220145 
L 370.578993 201.220145 
L 371.462166 235.600186 
L 371.462166 235.600186 
L 372.698609 273.01955 
L 372.698609 273.01955 
L 373.051879 282.240682 
L 373.051879 282.240682 
L 373.228513 295.488 
L 373.405148 290.199389 
L 373.405148 290.199389 
L 373.758417 294.769911 
L 373.758417 294.769911 
L 373.935052 292.70795 
L 373.935052 292.70795 
L 374.111687 295.488 
L 374.111687 295.488 
L 374.288321 289.963194 
L 374.288321 289.963194 
L 374.641591 288.484935 
L 374.641591 288.484935 
L 375.171495 286.881791 
L 375.171495 286.881791 
L 375.878033 284.499473 
L 375.878033 284.499473 
L 376.231303 283.99586 
L 376.231303 283.99586 
L 376.584572 284.818472 
L 376.584572 284.818472 
L 377.114476 287.155995 
L 377.114476 287.155995 
L 377.64438 289.92247 
L 377.64438 289.92247 
L 377.821015 290.428798 
L 377.821015 290.428798 
L 378.174284 290.61341 
L 378.174284 290.61341 
L 378.527554 290.229253 
L 378.527554 290.229253 
L 378.880823 289.796228 
L 378.880823 289.796228 
L 379.057458 289.98627 
L 379.057458 289.98627 
L 379.234092 290.397577 
L 379.410727 295.488 
L 379.410727 295.488 
L 379.587362 291.845972 
L 380.2939 295.488 
L 380.2939 295.488 
L 380.64717 292.77718 
L 380.64717 292.77718 
L 381.000439 291.954567 
L 381.000439 291.954567 
L 381.177074 295.488 
L 381.177074 295.488 
L 381.353709 291.736019 
L 381.353709 291.736019 
L 381.530343 291.695295 
L 381.530343 291.695295 
L 381.883613 291.115666 
L 381.883613 291.115666 
L 382.060247 295.488 
L 382.060247 295.488 
L 382.236882 289.949619 
L 382.236882 289.949619 
L 383.29669 286.251936 
L 383.29669 286.251936 
L 383.473325 286.360531 
L 383.473325 286.360531 
L 383.826594 287.375901 
L 383.826594 287.375901 
L 384.533133 290.326989 
L 384.533133 290.326989 
L 384.709768 295.488 
L 384.709768 295.488 
L 384.886402 290.842819 
L 384.886402 290.842819 
L 385.239672 290.362283 
L 385.239672 290.362283 
L 385.416306 289.934687 
L 385.416306 289.934687 
L 385.592941 295.488 
L 385.592941 295.488 
L 385.769576 288.922032 
L 386.122845 288.395343 
L 386.122845 288.395343 
L 386.29948 288.607105 
L 386.29948 288.607105 
L 386.476114 295.488 
L 386.476114 295.488 
L 386.652749 289.6727 
L 386.652749 289.6727 
L 387.182653 292.159542 
L 387.182653 292.159542 
L 387.359288 295.488 
L 387.535922 293.53192 
L 387.535922 293.53192 
L 387.712557 293.806124 
L 387.712557 293.806124 
L 387.889192 293.814269 
L 387.889192 293.814269 
L 388.065826 293.603865 
L 388.065826 293.603865 
L 388.242461 295.488 
L 388.419096 292.84098 
L 388.419096 292.84098 
L 388.772365 292.088955 
L 388.772365 292.088955 
L 388.949 291.951852 
L 388.949 291.951852 
L 389.125635 295.488 
L 389.125635 295.488 
L 389.302269 292.562703 
L 389.302269 292.562703 
L 389.655539 293.84006 
L 389.655539 293.84006 
L 390.008808 295.488 
L 390.008808 295.488 
L 390.362077 294.264941 
L 390.362077 294.264941 
L 390.538712 293.940511 
L 390.538712 293.940511 
L 390.715347 294.073541 
L 390.891981 295.488 
L 390.891981 295.488 
L 391.068616 295.05226 
L 391.068616 295.05226 
L 391.245251 295.223298 
L 391.245251 295.223298 
L 391.59852 293.807482 
L 391.59852 293.807482 
L 391.775155 295.488 
L 391.775155 295.488 
L 391.951789 292.912924 
L 391.951789 292.912924 
L 392.128424 292.994371 
L 392.128424 292.994371 
L 392.481694 294.045035 
L 392.481694 294.045035 
L 392.658328 295.488 
L 392.658328 295.488 
L 392.834963 295.231443 
L 392.834963 295.231443 
L 393.364867 292.387593 
L 393.364867 292.387593 
L 393.541502 295.488 
L 393.541502 295.488 
L 393.718136 291.669504 
L 393.718136 291.669504 
L 394.071406 291.916559 
L 394.071406 291.916559 
L 394.24804 292.251848 
L 394.24804 292.251848 
L 394.424675 295.488 
L 394.424675 295.488 
L 394.60131 293.040524 
L 394.60131 293.040524 
L 394.777944 293.280792 
L 394.777944 293.280792 
L 395.131214 292.96858 
L 395.131214 292.96858 
L 395.307848 295.488 
L 395.307848 295.488 
L 395.484483 292.342797 
L 395.484483 292.342797 
L 396.014387 291.232406 
L 396.014387 291.232406 
L 396.191022 295.488 
L 396.191022 295.488 
L 396.367657 291.529687 
L 396.367657 291.529687 
L 397.074195 295.488 
L 397.074195 295.488 
L 397.25083 290.453232 
L 397.25083 290.453232 
L 397.427465 289.554602 
L 397.427465 289.554602 
L 397.604099 287.754629 
L 397.604099 287.754629 
L 397.780734 287.40848 
L 397.780734 287.40848 
L 397.957369 295.488 
L 397.957369 295.488 
L 398.134003 289.330624 
L 398.134003 289.330624 
L 398.310638 250.71535 
L 398.310638 250.71535 
L 398.487273 254.527059 
L 398.487273 254.527059 
" clip-path="url(#pcc346239be)" style="fill: none; stroke: #1f77b4; stroke-width: 1.5; stroke-linecap: square"/>
   </g>
   <g id="patch_3">
    <path d="M 57.6 307.584 
L 57.6 41.472 
" style="fill: none; stroke: #000000; stroke-width: 0.8; stroke-linejoin: miter; stroke-linecap: square"/>
   </g>
   <g id="patch_4">
    <path d="M 414.72 307.584 
L 414.72 41.472 
" style="fill: none; stroke: #000000; stroke-width: 0.8; stroke-linejoin: miter; stroke-linecap: square"/>
   </g>
   <g id="patch_5">
    <path d="M 57.6 307.584 
L 414.72 307.584 
" style="fill: none; stroke: #000000; stroke-width: 0.8; stroke-linejoin: miter; stroke-linecap: square"/>
   </g>
   <g id="patch_6">
    <path d="M 57.6 41.472 
L 414.72 41.472 
" style="fill: none; stroke: #000000; stroke-width: 0.8; stroke-linejoin: miter; stroke-linecap: square"/>
   </g>
   <g id="text_19">
    <!-- Tracking error vs Time -->
    <g transform="translate(169.584375 35.472) scale(0.12 -0.12)">
     <defs>
      <path id="DejaVuSans-76" d="M 191 3500 
L 800 3500 
L 1894 563 
L 2988 3500 
L 3597 3500 
L 2284 0 
L 1503 0 
L 191 3500 
z
" transform="scale(0.015625)"/>
     </defs>
     <use xlink:href="#DejaVuSans-54"/>
     <use xlink:href="#DejaVuSans-72" x="46.333984"/>
     <use xlink:href="#DejaVuSans-61" x="87.447266"/>
     <use xlink:href="#DejaVuSans-63" x="148.726562"/>
     <use xlink:href="#DejaVuSans-6b" x="203.707031"/>
     <use xlink:href="#DejaVuSans-69" x="261.617188"/>
     <use xlink:href="#DejaVuSans-6e" x="289.400391"/>
     <use xlink:href="#DejaVuSans-67" x="352.779297"/>
     <use xlink:href="#DejaVuSans-20" x="416.255859"/>
     <use xlink:href="#DejaVuSans-65" x="448.042969"/>
     <use xlink:href="#DejaVuSans-72" x="509.566406"/>
     <use xlink:href="#DejaVuSans-72" x="548.929688"/>
     <use xlink:href="#DejaVuSans-6f" x="587.792969"/>
     <use xlink:href="#DejaVuSans-72" x="648.974609"/>
     <use xlink:href="#DejaVuSans-20" x="690.087891"/>
     <use xlink:href="#DejaVuSans-76" x="721.875"/>
     <use xlink:href="#DejaVuSans-73" x="781.054688"/>
     <use xlink:href="#DejaVuSans-20" x="833.154297"/>
     <use xlink:href="#DejaVuSans-54" x="864.941406"/>
     <use xlink:href="#DejaVuSans-69" x="922.900391"/>
     <use xlink:href="#DejaVuSans-6d" x="950.683594"/>
     <use xlink:href="#DejaVuSans-65" x="1048.095703"/>
    </g>
   </g>
   <g id="legend_1">
    <g id="patch_7">
     <path d="M 311.00125 64.150125 
L 407.72 64.150125 
Q 409.72 64.150125 409.72 62.150125 
L 409.72 48.472 
Q 409.72 46.472 407.72 46.472 
L 311.00125 46.472 
Q 309.00125 46.472 309.00125 48.472 
L 309.00125 62.150125 
Q 309.00125 64.150125 311.00125 64.150125 
z
" style="fill: #ffffff; opacity: 0.8; stroke: #cccccc; stroke-linejoin: miter"/>
    </g>
    <g id="line2d_34">
     <path d="M 313.00125 54.570438 
L 323.00125 54.570438 
L 333.00125 54.570438 
" style="fill: none; stroke: #1f77b4; stroke-width: 1.5; stroke-linecap: square"/>
    </g>
    <g id="text_20">
     <!-- Actual speed -->
     <g transform="translate(341.00125 58.070438) scale(0.1 -0.1)">
      <defs>
       <path id="DejaVuSans-41" d="M 2188 4044 
L 1331 1722 
L 3047 1722 
L 2188 4044 
z
M 1831 4666 
L 2547 4666 
L 4325 0 
L 3669 0 
L 3244 1197 
L 1141 1197 
L 716 0 
L 50 0 
L 1831 4666 
z
" transform="scale(0.015625)"/>
       <path id="DejaVuSans-74" d="M 1172 4494 
L 1172 3500 
L 2356 3500 
L 2356 3053 
L 1172 3053 
L 1172 1153 
Q 1172 725 1289 603 
Q 1406 481 1766 481 
L 2356 481 
L 2356 0 
L 1766 0 
Q 1100 0 847 248 
Q 594 497 594 1153 
L 594 3053 
L 172 3053 
L 172 3500 
L 594 3500 
L 594 4494 
L 1172 4494 
z
" transform="scale(0.015625)"/>
       <path id="DejaVuSans-75" d="M 544 1381 
L 544 3500 
L 1119 3500 
L 1119 1403 
Q 1119 906 1312 657 
Q 1506 409 1894 409 
Q 2359 409 2629 706 
Q 2900 1003 2900 1516 
L 2900 3500 
L 3475 3500 
L 3475 0 
L 2900 0 
L 2900 538 
Q 2691 219 2414 64 
Q 2138 -91 1772 -91 
Q 1169 -91 856 284 
Q 544 659 544 1381 
z
M 1991 3584 
L 1991 3584 
z
" transform="scale(0.015625)"/>
       <path id="DejaVuSans-6c" d="M 603 4863 
L 1178 4863 
L 1178 0 
L 603 0 
L 603 4863 
z
" transform="scale(0.015625)"/>
       <path id="DejaVuSans-70" d="M 1159 525 
L 1159 -1331 
L 581 -1331 
L 581 3500 
L 1159 3500 
L 1159 2969 
Q 1341 3281 1617 3432 
Q 1894 3584 2278 3584 
Q 2916 3584 3314 3078 
Q 3713 2572 3713 1747 
Q 3713 922 3314 415 
Q 2916 -91 2278 -91 
Q 1894 -91 1617 61 
Q 1341 213 1159 525 
z
M 3116 1747 
Q 3116 2381 2855 2742 
Q 2594 3103 2138 3103 
Q 1681 3103 1420 2742 
Q 1159 2381 1159 1747 
Q 1159 1113 1420 752 
Q 1681 391 2138 391 
Q 2594 391 2855 752 
Q 3116 1113 3116 1747 
z
" transform="scale(0.015625)"/>
       <path id="DejaVuSans-64" d="M 2906 2969 
L 2906 4863 
L 3481 4863 
L 3481 0 
L 2906 0 
L 2906 525 
Q 2725 213 2448 61 
Q 2172 -91 1784 -91 
Q 1150 -91 751 415 
Q 353 922 353 1747 
Q 353 2572 751 3078 
Q 1150 3584 1784 3584 
Q 2172 3584 2448 3432 
Q 2725 3281 2906 2969 
z
M 947 1747 
Q 947 1113 1208 752 
Q 1469 391 1925 391 
Q 2381 391 2643 752 
Q 2906 1113 2906 1747 
Q 2906 2381 2643 2742 
Q 2381 3103 1925 3103 
Q 1469 3103 1208 2742 
Q 947 2381 947 1747 
z
" transform="scale(0.015625)"/>
      </defs>
      <use xlink:href="#DejaVuSans-41"/>
      <use xlink:href="#DejaVuSans-63" x="66.658203"/>
      <use xlink:href="#DejaVuSans-74" x="121.638672"/>
      <use xlink:href="#DejaVuSans-75" x="160.847656"/>
      <use xlink:href="#DejaVuSans-61" x="224.226562"/>
      <use xlink:href="#DejaVuSans-6c" x="285.505859"/>
      <use xlink:href="#DejaVuSans-20" x="313.289062"/>
      <use xlink:href="#DejaVuSans-73" x="345.076172"/>
      <use xlink:href="#DejaVuSans-70" x="397.175781"/>
      <use xlink:href="#DejaVuSans-65" x="460.652344"/>
      <use xlink:href="#DejaVuSans-65" x="522.175781"/>
      <use xlink:href="#DejaVuSans-64" x="583.699219"/>
     </g>
    </g>
   </g>
  </g>
 </g>
 <defs>
  <clipPath id="pcc346239be">
   <rect x="57.6" y="41.472" width="357.12" height="266.112"/>
  </clipPath>
 </defs>
</svg>
