<?xml version="1.0" encoding="utf-8" standalone="no"?>
<!DOCTYPE svg PUBLIC "-//W3C//DTD SVG 1.1//EN"
  "http://www.w3.org/Graphics/SVG/1.1/DTD/svg11.dtd">
<svg xmlns:xlink="http://www.w3.org/1999/xlink" width="460.8pt" height="345.6pt" viewBox="0 0 460.8 345.6" xmlns="http://www.w3.org/2000/svg" version="1.1">
 <metadata>
  <rdf:RDF xmlns:dc="http://purl.org/dc/elements/1.1/" xmlns:cc="http://creativecommons.org/ns#" xmlns:rdf="http://www.w3.org/1999/02/22-rdf-syntax-ns#">
   <cc:Work>
    <dc:type rdf:resource="http://purl.org/dc/dcmitype/StillImage"/>
    <dc:date>2024-01-30T20:59:07.213536</dc:date>
    <dc:format>image/svg+xml</dc:format>
    <dc:creator>
     <cc:Agent>
      <dc:title>Matplotlib v3.7.1, https://matplotlib.org/</dc:title>
     </cc:Agent>
    </dc:creator>
   </cc:Work>
  </rdf:RDF>
 </metadata>
 <defs>
  <style type="text/css">*{stroke-linejoin: round; stroke-linecap: butt}</style>
 </defs>
 <g id="figure_1">
  <g id="patch_1">
   <path d="M 0 345.6 
L 460.8 345.6 
L 460.8 0 
L 0 0 
z
" style="fill: #ffffff"/>
  </g>
  <g id="axes_1">
   <g id="patch_2">
    <path d="M 57.6 307.584 
L 414.72 307.584 
L 414.72 41.472 
L 57.6 41.472 
z
" style="fill: #ffffff"/>
   </g>
   <g id="matplotlib.axis_1">
    <g id="xtick_1">
     <g id="line2d_1">
      <path d="M 73.832727 307.584 
L 73.832727 41.472 
" clip-path="url(#p560abfa759)" style="fill: none; stroke: #b0b0b0; stroke-width: 0.8; stroke-linecap: square"/>
     </g>
     <g id="line2d_2">
      <defs>
       <path id="m191d43d2f8" d="M 0 0 
L 0 3.5 
" style="stroke: #000000; stroke-width: 0.8"/>
      </defs>
      <g>
       <use xlink:href="#m191d43d2f8" x="73.832727" y="307.584" style="stroke: #000000; stroke-width: 0.8"/>
      </g>
     </g>
     <g id="text_1">
      <!-- 0 -->
      <g transform="translate(70.651477 322.182437) scale(0.1 -0.1)">
       <defs>
        <path id="DejaVuSans-30" d="M 2034 4250 
Q 1547 4250 1301 3770 
Q 1056 3291 1056 2328 
Q 1056 1369 1301 889 
Q 1547 409 2034 409 
Q 2525 409 2770 889 
Q 3016 1369 3016 2328 
Q 3016 3291 2770 3770 
Q 2525 4250 2034 4250 
z
M 2034 4750 
Q 2819 4750 3233 4129 
Q 3647 3509 3647 2328 
Q 3647 1150 3233 529 
Q 2819 -91 2034 -91 
Q 1250 -91 836 529 
Q 422 1150 422 2328 
Q 422 3509 836 4129 
Q 1250 4750 2034 4750 
z
" transform="scale(0.015625)"/>
       </defs>
       <use xlink:href="#DejaVuSans-30"/>
      </g>
     </g>
    </g>
    <g id="xtick_2">
     <g id="line2d_3">
      <path d="M 117.943399 307.584 
L 117.943399 41.472 
" clip-path="url(#p560abfa759)" style="fill: none; stroke: #b0b0b0; stroke-width: 0.8; stroke-linecap: square"/>
     </g>
     <g id="line2d_4">
      <g>
       <use xlink:href="#m191d43d2f8" x="117.943399" y="307.584" style="stroke: #000000; stroke-width: 0.8"/>
      </g>
     </g>
     <g id="text_2">
      <!-- 5 -->
      <g transform="translate(114.762149 322.182437) scale(0.1 -0.1)">
       <defs>
        <path id="DejaVuSans-35" d="M 691 4666 
L 3169 4666 
L 3169 4134 
L 1269 4134 
L 1269 2991 
Q 1406 3038 1543 3061 
Q 1681 3084 1819 3084 
Q 2600 3084 3056 2656 
Q 3513 2228 3513 1497 
Q 3513 744 3044 326 
Q 2575 -91 1722 -91 
Q 1428 -91 1123 -41 
Q 819 9 494 109 
L 494 744 
Q 775 591 1075 516 
Q 1375 441 1709 441 
Q 2250 441 2565 725 
Q 2881 1009 2881 1497 
Q 2881 1984 2565 2268 
Q 2250 2553 1709 2553 
Q 1456 2553 1204 2497 
Q 953 2441 691 2322 
L 691 4666 
z
" transform="scale(0.015625)"/>
       </defs>
       <use xlink:href="#DejaVuSans-35"/>
      </g>
     </g>
    </g>
    <g id="xtick_3">
     <g id="line2d_5">
      <path d="M 162.054071 307.584 
L 162.054071 41.472 
" clip-path="url(#p560abfa759)" style="fill: none; stroke: #b0b0b0; stroke-width: 0.8; stroke-linecap: square"/>
     </g>
     <g id="line2d_6">
      <g>
       <use xlink:href="#m191d43d2f8" x="162.054071" y="307.584" style="stroke: #000000; stroke-width: 0.8"/>
      </g>
     </g>
     <g id="text_3">
      <!-- 10 -->
      <g transform="translate(155.691571 322.182437) scale(0.1 -0.1)">
       <defs>
        <path id="DejaVuSans-31" d="M 794 531 
L 1825 531 
L 1825 4091 
L 703 3866 
L 703 4441 
L 1819 4666 
L 2450 4666 
L 2450 531 
L 3481 531 
L 3481 0 
L 794 0 
L 794 531 
z
" transform="scale(0.015625)"/>
       </defs>
       <use xlink:href="#DejaVuSans-31"/>
       <use xlink:href="#DejaVuSans-30" x="63.623047"/>
      </g>
     </g>
    </g>
    <g id="xtick_4">
     <g id="line2d_7">
      <path d="M 206.164743 307.584 
L 206.164743 41.472 
" clip-path="url(#p560abfa759)" style="fill: none; stroke: #b0b0b0; stroke-width: 0.8; stroke-linecap: square"/>
     </g>
     <g id="line2d_8">
      <g>
       <use xlink:href="#m191d43d2f8" x="206.164743" y="307.584" style="stroke: #000000; stroke-width: 0.8"/>
      </g>
     </g>
     <g id="text_4">
      <!-- 15 -->
      <g transform="translate(199.802243 322.182437) scale(0.1 -0.1)">
       <use xlink:href="#DejaVuSans-31"/>
       <use xlink:href="#DejaVuSans-35" x="63.623047"/>
      </g>
     </g>
    </g>
    <g id="xtick_5">
     <g id="line2d_9">
      <path d="M 250.275415 307.584 
L 250.275415 41.472 
" clip-path="url(#p560abfa759)" style="fill: none; stroke: #b0b0b0; stroke-width: 0.8; stroke-linecap: square"/>
     </g>
     <g id="line2d_10">
      <g>
       <use xlink:href="#m191d43d2f8" x="250.275415" y="307.584" style="stroke: #000000; stroke-width: 0.8"/>
      </g>
     </g>
     <g id="text_5">
      <!-- 20 -->
      <g transform="translate(243.912915 322.182437) scale(0.1 -0.1)">
       <defs>
        <path id="DejaVuSans-32" d="M 1228 531 
L 3431 531 
L 3431 0 
L 469 0 
L 469 531 
Q 828 903 1448 1529 
Q 2069 2156 2228 2338 
Q 2531 2678 2651 2914 
Q 2772 3150 2772 3378 
Q 2772 3750 2511 3984 
Q 2250 4219 1831 4219 
Q 1534 4219 1204 4116 
Q 875 4013 500 3803 
L 500 4441 
Q 881 4594 1212 4672 
Q 1544 4750 1819 4750 
Q 2544 4750 2975 4387 
Q 3406 4025 3406 3419 
Q 3406 3131 3298 2873 
Q 3191 2616 2906 2266 
Q 2828 2175 2409 1742 
Q 1991 1309 1228 531 
z
" transform="scale(0.015625)"/>
       </defs>
       <use xlink:href="#DejaVuSans-32"/>
       <use xlink:href="#DejaVuSans-30" x="63.623047"/>
      </g>
     </g>
    </g>
    <g id="xtick_6">
     <g id="line2d_11">
      <path d="M 294.386087 307.584 
L 294.386087 41.472 
" clip-path="url(#p560abfa759)" style="fill: none; stroke: #b0b0b0; stroke-width: 0.8; stroke-linecap: square"/>
     </g>
     <g id="line2d_12">
      <g>
       <use xlink:href="#m191d43d2f8" x="294.386087" y="307.584" style="stroke: #000000; stroke-width: 0.8"/>
      </g>
     </g>
     <g id="text_6">
      <!-- 25 -->
      <g transform="translate(288.023587 322.182437) scale(0.1 -0.1)">
       <use xlink:href="#DejaVuSans-32"/>
       <use xlink:href="#DejaVuSans-35" x="63.623047"/>
      </g>
     </g>
    </g>
    <g id="xtick_7">
     <g id="line2d_13">
      <path d="M 338.496759 307.584 
L 338.496759 41.472 
" clip-path="url(#p560abfa759)" style="fill: none; stroke: #b0b0b0; stroke-width: 0.8; stroke-linecap: square"/>
     </g>
     <g id="line2d_14">
      <g>
       <use xlink:href="#m191d43d2f8" x="338.496759" y="307.584" style="stroke: #000000; stroke-width: 0.8"/>
      </g>
     </g>
     <g id="text_7">
      <!-- 30 -->
      <g transform="translate(332.134259 322.182437) scale(0.1 -0.1)">
       <defs>
        <path id="DejaVuSans-33" d="M 2597 2516 
Q 3050 2419 3304 2112 
Q 3559 1806 3559 1356 
Q 3559 666 3084 287 
Q 2609 -91 1734 -91 
Q 1441 -91 1130 -33 
Q 819 25 488 141 
L 488 750 
Q 750 597 1062 519 
Q 1375 441 1716 441 
Q 2309 441 2620 675 
Q 2931 909 2931 1356 
Q 2931 1769 2642 2001 
Q 2353 2234 1838 2234 
L 1294 2234 
L 1294 2753 
L 1863 2753 
Q 2328 2753 2575 2939 
Q 2822 3125 2822 3475 
Q 2822 3834 2567 4026 
Q 2313 4219 1838 4219 
Q 1578 4219 1281 4162 
Q 984 4106 628 3988 
L 628 4550 
Q 988 4650 1302 4700 
Q 1616 4750 1894 4750 
Q 2613 4750 3031 4423 
Q 3450 4097 3450 3541 
Q 3450 3153 3228 2886 
Q 3006 2619 2597 2516 
z
" transform="scale(0.015625)"/>
       </defs>
       <use xlink:href="#DejaVuSans-33"/>
       <use xlink:href="#DejaVuSans-30" x="63.623047"/>
      </g>
     </g>
    </g>
    <g id="xtick_8">
     <g id="line2d_15">
      <path d="M 382.607431 307.584 
L 382.607431 41.472 
" clip-path="url(#p560abfa759)" style="fill: none; stroke: #b0b0b0; stroke-width: 0.8; stroke-linecap: square"/>
     </g>
     <g id="line2d_16">
      <g>
       <use xlink:href="#m191d43d2f8" x="382.607431" y="307.584" style="stroke: #000000; stroke-width: 0.8"/>
      </g>
     </g>
     <g id="text_8">
      <!-- 35 -->
      <g transform="translate(376.244931 322.182437) scale(0.1 -0.1)">
       <use xlink:href="#DejaVuSans-33"/>
       <use xlink:href="#DejaVuSans-35" x="63.623047"/>
      </g>
     </g>
    </g>
    <g id="text_9">
     <!-- Time(s) -->
     <g transform="translate(217.420156 335.860562) scale(0.1 -0.1)">
      <defs>
       <path id="DejaVuSans-54" d="M -19 4666 
L 3928 4666 
L 3928 4134 
L 2272 4134 
L 2272 0 
L 1638 0 
L 1638 4134 
L -19 4134 
L -19 4666 
z
" transform="scale(0.015625)"/>
       <path id="DejaVuSans-69" d="M 603 3500 
L 1178 3500 
L 1178 0 
L 603 0 
L 603 3500 
z
M 603 4863 
L 1178 4863 
L 1178 4134 
L 603 4134 
L 603 4863 
z
" transform="scale(0.015625)"/>
       <path id="DejaVuSans-6d" d="M 3328 2828 
Q 3544 3216 3844 3400 
Q 4144 3584 4550 3584 
Q 5097 3584 5394 3201 
Q 5691 2819 5691 2113 
L 5691 0 
L 5113 0 
L 5113 2094 
Q 5113 2597 4934 2840 
Q 4756 3084 4391 3084 
Q 3944 3084 3684 2787 
Q 3425 2491 3425 1978 
L 3425 0 
L 2847 0 
L 2847 2094 
Q 2847 2600 2669 2842 
Q 2491 3084 2119 3084 
Q 1678 3084 1418 2786 
Q 1159 2488 1159 1978 
L 1159 0 
L 581 0 
L 581 3500 
L 1159 3500 
L 1159 2956 
Q 1356 3278 1631 3431 
Q 1906 3584 2284 3584 
Q 2666 3584 2933 3390 
Q 3200 3197 3328 2828 
z
" transform="scale(0.015625)"/>
       <path id="DejaVuSans-65" d="M 3597 1894 
L 3597 1613 
L 953 1613 
Q 991 1019 1311 708 
Q 1631 397 2203 397 
Q 2534 397 2845 478 
Q 3156 559 3463 722 
L 3463 178 
Q 3153 47 2828 -22 
Q 2503 -91 2169 -91 
Q 1331 -91 842 396 
Q 353 884 353 1716 
Q 353 2575 817 3079 
Q 1281 3584 2069 3584 
Q 2775 3584 3186 3129 
Q 3597 2675 3597 1894 
z
M 3022 2063 
Q 3016 2534 2758 2815 
Q 2500 3097 2075 3097 
Q 1594 3097 1305 2825 
Q 1016 2553 972 2059 
L 3022 2063 
z
" transform="scale(0.015625)"/>
       <path id="DejaVuSans-28" d="M 1984 4856 
Q 1566 4138 1362 3434 
Q 1159 2731 1159 2009 
Q 1159 1288 1364 580 
Q 1569 -128 1984 -844 
L 1484 -844 
Q 1016 -109 783 600 
Q 550 1309 550 2009 
Q 550 2706 781 3412 
Q 1013 4119 1484 4856 
L 1984 4856 
z
" transform="scale(0.015625)"/>
       <path id="DejaVuSans-73" d="M 2834 3397 
L 2834 2853 
Q 2591 2978 2328 3040 
Q 2066 3103 1784 3103 
Q 1356 3103 1142 2972 
Q 928 2841 928 2578 
Q 928 2378 1081 2264 
Q 1234 2150 1697 2047 
L 1894 2003 
Q 2506 1872 2764 1633 
Q 3022 1394 3022 966 
Q 3022 478 2636 193 
Q 2250 -91 1575 -91 
Q 1294 -91 989 -36 
Q 684 19 347 128 
L 347 722 
Q 666 556 975 473 
Q 1284 391 1588 391 
Q 1994 391 2212 530 
Q 2431 669 2431 922 
Q 2431 1156 2273 1281 
Q 2116 1406 1581 1522 
L 1381 1569 
Q 847 1681 609 1914 
Q 372 2147 372 2553 
Q 372 3047 722 3315 
Q 1072 3584 1716 3584 
Q 2034 3584 2315 3537 
Q 2597 3491 2834 3397 
z
" transform="scale(0.015625)"/>
       <path id="DejaVuSans-29" d="M 513 4856 
L 1013 4856 
Q 1481 4119 1714 3412 
Q 1947 2706 1947 2009 
Q 1947 1309 1714 600 
Q 1481 -109 1013 -844 
L 513 -844 
Q 928 -128 1133 580 
Q 1338 1288 1338 2009 
Q 1338 2731 1133 3434 
Q 928 4138 513 4856 
z
" transform="scale(0.015625)"/>
      </defs>
      <use xlink:href="#DejaVuSans-54"/>
      <use xlink:href="#DejaVuSans-69" x="57.958984"/>
      <use xlink:href="#DejaVuSans-6d" x="85.742188"/>
      <use xlink:href="#DejaVuSans-65" x="183.154297"/>
      <use xlink:href="#DejaVuSans-28" x="244.677734"/>
      <use xlink:href="#DejaVuSans-73" x="283.691406"/>
      <use xlink:href="#DejaVuSans-29" x="335.791016"/>
     </g>
    </g>
   </g>
   <g id="matplotlib.axis_2">
    <g id="ytick_1">
     <g id="line2d_17">
      <path d="M 57.6 295.488 
L 414.72 295.488 
" clip-path="url(#p560abfa759)" style="fill: none; stroke: #b0b0b0; stroke-width: 0.8; stroke-linecap: square"/>
     </g>
     <g id="line2d_18">
      <defs>
       <path id="me9b6bd0704" d="M 0 0 
L -3.5 0 
" style="stroke: #000000; stroke-width: 0.8"/>
      </defs>
      <g>
       <use xlink:href="#me9b6bd0704" x="57.6" y="295.488" style="stroke: #000000; stroke-width: 0.8"/>
      </g>
     </g>
     <g id="text_10">
      <!-- 0 -->
      <g transform="translate(44.2375 299.287219) scale(0.1 -0.1)">
       <use xlink:href="#DejaVuSans-30"/>
      </g>
     </g>
    </g>
    <g id="ytick_2">
     <g id="line2d_19">
      <path d="M 57.6 265.248 
L 414.72 265.248 
" clip-path="url(#p560abfa759)" style="fill: none; stroke: #b0b0b0; stroke-width: 0.8; stroke-linecap: square"/>
     </g>
     <g id="line2d_20">
      <g>
       <use xlink:href="#me9b6bd0704" x="57.6" y="265.248" style="stroke: #000000; stroke-width: 0.8"/>
      </g>
     </g>
     <g id="text_11">
      <!-- 1 -->
      <g transform="translate(44.2375 269.047219) scale(0.1 -0.1)">
       <use xlink:href="#DejaVuSans-31"/>
      </g>
     </g>
    </g>
    <g id="ytick_3">
     <g id="line2d_21">
      <path d="M 57.6 235.008 
L 414.72 235.008 
" clip-path="url(#p560abfa759)" style="fill: none; stroke: #b0b0b0; stroke-width: 0.8; stroke-linecap: square"/>
     </g>
     <g id="line2d_22">
      <g>
       <use xlink:href="#me9b6bd0704" x="57.6" y="235.008" style="stroke: #000000; stroke-width: 0.8"/>
      </g>
     </g>
     <g id="text_12">
      <!-- 2 -->
      <g transform="translate(44.2375 238.807219) scale(0.1 -0.1)">
       <use xlink:href="#DejaVuSans-32"/>
      </g>
     </g>
    </g>
    <g id="ytick_4">
     <g id="line2d_23">
      <path d="M 57.6 204.768 
L 414.72 204.768 
" clip-path="url(#p560abfa759)" style="fill: none; stroke: #b0b0b0; stroke-width: 0.8; stroke-linecap: square"/>
     </g>
     <g id="line2d_24">
      <g>
       <use xlink:href="#me9b6bd0704" x="57.6" y="204.768" style="stroke: #000000; stroke-width: 0.8"/>
      </g>
     </g>
     <g id="text_13">
      <!-- 3 -->
      <g transform="translate(44.2375 208.567219) scale(0.1 -0.1)">
       <use xlink:href="#DejaVuSans-33"/>
      </g>
     </g>
    </g>
    <g id="ytick_5">
     <g id="line2d_25">
      <path d="M 57.6 174.528 
L 414.72 174.528 
" clip-path="url(#p560abfa759)" style="fill: none; stroke: #b0b0b0; stroke-width: 0.8; stroke-linecap: square"/>
     </g>
     <g id="line2d_26">
      <g>
       <use xlink:href="#me9b6bd0704" x="57.6" y="174.528" style="stroke: #000000; stroke-width: 0.8"/>
      </g>
     </g>
     <g id="text_14">
      <!-- 4 -->
      <g transform="translate(44.2375 178.327219) scale(0.1 -0.1)">
       <defs>
        <path id="DejaVuSans-34" d="M 2419 4116 
L 825 1625 
L 2419 1625 
L 2419 4116 
z
M 2253 4666 
L 3047 4666 
L 3047 1625 
L 3713 1625 
L 3713 1100 
L 3047 1100 
L 3047 0 
L 2419 0 
L 2419 1100 
L 313 1100 
L 313 1709 
L 2253 4666 
z
" transform="scale(0.015625)"/>
       </defs>
       <use xlink:href="#DejaVuSans-34"/>
      </g>
     </g>
    </g>
    <g id="ytick_6">
     <g id="line2d_27">
      <path d="M 57.6 144.288 
L 414.72 144.288 
" clip-path="url(#p560abfa759)" style="fill: none; stroke: #b0b0b0; stroke-width: 0.8; stroke-linecap: square"/>
     </g>
     <g id="line2d_28">
      <g>
       <use xlink:href="#me9b6bd0704" x="57.6" y="144.288" style="stroke: #000000; stroke-width: 0.8"/>
      </g>
     </g>
     <g id="text_15">
      <!-- 5 -->
      <g transform="translate(44.2375 148.087219) scale(0.1 -0.1)">
       <use xlink:href="#DejaVuSans-35"/>
      </g>
     </g>
    </g>
    <g id="ytick_7">
     <g id="line2d_29">
      <path d="M 57.6 114.048 
L 414.72 114.048 
" clip-path="url(#p560abfa759)" style="fill: none; stroke: #b0b0b0; stroke-width: 0.8; stroke-linecap: square"/>
     </g>
     <g id="line2d_30">
      <g>
       <use xlink:href="#me9b6bd0704" x="57.6" y="114.048" style="stroke: #000000; stroke-width: 0.8"/>
      </g>
     </g>
     <g id="text_16">
      <!-- 6 -->
      <g transform="translate(44.2375 117.847219) scale(0.1 -0.1)">
       <defs>
        <path id="DejaVuSans-36" d="M 2113 2584 
Q 1688 2584 1439 2293 
Q 1191 2003 1191 1497 
Q 1191 994 1439 701 
Q 1688 409 2113 409 
Q 2538 409 2786 701 
Q 3034 994 3034 1497 
Q 3034 2003 2786 2293 
Q 2538 2584 2113 2584 
z
M 3366 4563 
L 3366 3988 
Q 3128 4100 2886 4159 
Q 2644 4219 2406 4219 
Q 1781 4219 1451 3797 
Q 1122 3375 1075 2522 
Q 1259 2794 1537 2939 
Q 1816 3084 2150 3084 
Q 2853 3084 3261 2657 
Q 3669 2231 3669 1497 
Q 3669 778 3244 343 
Q 2819 -91 2113 -91 
Q 1303 -91 875 529 
Q 447 1150 447 2328 
Q 447 3434 972 4092 
Q 1497 4750 2381 4750 
Q 2619 4750 2861 4703 
Q 3103 4656 3366 4563 
z
" transform="scale(0.015625)"/>
       </defs>
       <use xlink:href="#DejaVuSans-36"/>
      </g>
     </g>
    </g>
    <g id="ytick_8">
     <g id="line2d_31">
      <path d="M 57.6 83.808 
L 414.72 83.808 
" clip-path="url(#p560abfa759)" style="fill: none; stroke: #b0b0b0; stroke-width: 0.8; stroke-linecap: square"/>
     </g>
     <g id="line2d_32">
      <g>
       <use xlink:href="#me9b6bd0704" x="57.6" y="83.808" style="stroke: #000000; stroke-width: 0.8"/>
      </g>
     </g>
     <g id="text_17">
      <!-- 7 -->
      <g transform="translate(44.2375 87.607219) scale(0.1 -0.1)">
       <defs>
        <path id="DejaVuSans-37" d="M 525 4666 
L 3525 4666 
L 3525 4397 
L 1831 0 
L 1172 0 
L 2766 4134 
L 525 4134 
L 525 4666 
z
" transform="scale(0.015625)"/>
       </defs>
       <use xlink:href="#DejaVuSans-37"/>
      </g>
     </g>
    </g>
    <g id="ytick_9">
     <g id="line2d_33">
      <path d="M 57.6 53.568 
L 414.72 53.568 
" clip-path="url(#p560abfa759)" style="fill: none; stroke: #b0b0b0; stroke-width: 0.8; stroke-linecap: square"/>
     </g>
     <g id="line2d_34">
      <g>
       <use xlink:href="#me9b6bd0704" x="57.6" y="53.568" style="stroke: #000000; stroke-width: 0.8"/>
      </g>
     </g>
     <g id="text_18">
      <!-- 8 -->
      <g transform="translate(44.2375 57.367219) scale(0.1 -0.1)">
       <defs>
        <path id="DejaVuSans-38" d="M 2034 2216 
Q 1584 2216 1326 1975 
Q 1069 1734 1069 1313 
Q 1069 891 1326 650 
Q 1584 409 2034 409 
Q 2484 409 2743 651 
Q 3003 894 3003 1313 
Q 3003 1734 2745 1975 
Q 2488 2216 2034 2216 
z
M 1403 2484 
Q 997 2584 770 2862 
Q 544 3141 544 3541 
Q 544 4100 942 4425 
Q 1341 4750 2034 4750 
Q 2731 4750 3128 4425 
Q 3525 4100 3525 3541 
Q 3525 3141 3298 2862 
Q 3072 2584 2669 2484 
Q 3125 2378 3379 2068 
Q 3634 1759 3634 1313 
Q 3634 634 3220 271 
Q 2806 -91 2034 -91 
Q 1263 -91 848 271 
Q 434 634 434 1313 
Q 434 1759 690 2068 
Q 947 2378 1403 2484 
z
M 1172 3481 
Q 1172 3119 1398 2916 
Q 1625 2713 2034 2713 
Q 2441 2713 2670 2916 
Q 2900 3119 2900 3481 
Q 2900 3844 2670 4047 
Q 2441 4250 2034 4250 
Q 1625 4250 1398 4047 
Q 1172 3844 1172 3481 
z
" transform="scale(0.015625)"/>
       </defs>
       <use xlink:href="#DejaVuSans-38"/>
      </g>
     </g>
    </g>
    <g id="text_19">
     <!-- Velocity(m/s) -->
     <g transform="translate(38.157812 207.204563) rotate(-90) scale(0.1 -0.1)">
      <defs>
       <path id="DejaVuSans-56" d="M 1831 0 
L 50 4666 
L 709 4666 
L 2188 738 
L 3669 4666 
L 4325 4666 
L 2547 0 
L 1831 0 
z
" transform="scale(0.015625)"/>
       <path id="DejaVuSans-6c" d="M 603 4863 
L 1178 4863 
L 1178 0 
L 603 0 
L 603 4863 
z
" transform="scale(0.015625)"/>
       <path id="DejaVuSans-6f" d="M 1959 3097 
Q 1497 3097 1228 2736 
Q 959 2375 959 1747 
Q 959 1119 1226 758 
Q 1494 397 1959 397 
Q 2419 397 2687 759 
Q 2956 1122 2956 1747 
Q 2956 2369 2687 2733 
Q 2419 3097 1959 3097 
z
M 1959 3584 
Q 2709 3584 3137 3096 
Q 3566 2609 3566 1747 
Q 3566 888 3137 398 
Q 2709 -91 1959 -91 
Q 1206 -91 779 398 
Q 353 888 353 1747 
Q 353 2609 779 3096 
Q 1206 3584 1959 3584 
z
" transform="scale(0.015625)"/>
       <path id="DejaVuSans-63" d="M 3122 3366 
L 3122 2828 
Q 2878 2963 2633 3030 
Q 2388 3097 2138 3097 
Q 1578 3097 1268 2742 
Q 959 2388 959 1747 
Q 959 1106 1268 751 
Q 1578 397 2138 397 
Q 2388 397 2633 464 
Q 2878 531 3122 666 
L 3122 134 
Q 2881 22 2623 -34 
Q 2366 -91 2075 -91 
Q 1284 -91 818 406 
Q 353 903 353 1747 
Q 353 2603 823 3093 
Q 1294 3584 2113 3584 
Q 2378 3584 2631 3529 
Q 2884 3475 3122 3366 
z
" transform="scale(0.015625)"/>
       <path id="DejaVuSans-74" d="M 1172 4494 
L 1172 3500 
L 2356 3500 
L 2356 3053 
L 1172 3053 
L 1172 1153 
Q 1172 725 1289 603 
Q 1406 481 1766 481 
L 2356 481 
L 2356 0 
L 1766 0 
Q 1100 0 847 248 
Q 594 497 594 1153 
L 594 3053 
L 172 3053 
L 172 3500 
L 594 3500 
L 594 4494 
L 1172 4494 
z
" transform="scale(0.015625)"/>
       <path id="DejaVuSans-79" d="M 2059 -325 
Q 1816 -950 1584 -1140 
Q 1353 -1331 966 -1331 
L 506 -1331 
L 506 -850 
L 844 -850 
Q 1081 -850 1212 -737 
Q 1344 -625 1503 -206 
L 1606 56 
L 191 3500 
L 800 3500 
L 1894 763 
L 2988 3500 
L 3597 3500 
L 2059 -325 
z
" transform="scale(0.015625)"/>
       <path id="DejaVuSans-2f" d="M 1625 4666 
L 2156 4666 
L 531 -594 
L 0 -594 
L 1625 4666 
z
" transform="scale(0.015625)"/>
      </defs>
      <use xlink:href="#DejaVuSans-56"/>
      <use xlink:href="#DejaVuSans-65" x="60.658203"/>
      <use xlink:href="#DejaVuSans-6c" x="122.181641"/>
      <use xlink:href="#DejaVuSans-6f" x="149.964844"/>
      <use xlink:href="#DejaVuSans-63" x="211.146484"/>
      <use xlink:href="#DejaVuSans-69" x="266.126953"/>
      <use xlink:href="#DejaVuSans-74" x="293.910156"/>
      <use xlink:href="#DejaVuSans-79" x="333.119141"/>
      <use xlink:href="#DejaVuSans-28" x="392.298828"/>
      <use xlink:href="#DejaVuSans-6d" x="431.3125"/>
      <use xlink:href="#DejaVuSans-2f" x="528.724609"/>
      <use xlink:href="#DejaVuSans-73" x="562.416016"/>
      <use xlink:href="#DejaVuSans-29" x="614.515625"/>
     </g>
    </g>
   </g>
   <g id="line2d_35">
    <path d="M 73.832727 295.488 
L 74.00917 295.488 
L 74.185613 59.416265 
L 74.362055 65.167913 
L 75.067826 61.423838 
L 75.773597 58.888214 
L 76.479368 57.171036 
L 77.185138 56.008066 
L 77.890909 55.220495 
L 78.773123 54.583217 
L 79.831779 54.133821 
L 81.24332 53.827489 
L 83.360632 53.64859 
L 87.595257 53.575772 
L 92.712095 53.568454 
L 93.06498 55.079153 
L 93.417866 58.9848 
L 95.182292 88.819766 
L 96.064506 99.803297 
L 96.417391 103.968494 
L 97.299605 112.597055 
L 98.711146 123.28381 
L 99.240474 126.200549 
L 100.475573 130.832107 
L 101.004901 131.766251 
L 101.534229 132.302225 
L 102.416443 132.53725 
L 102.945771 132.584122 
L 103.475099 132.434374 
L 104.357312 131.690076 
L 104.710198 131.139134 
L 105.063083 130.343278 
L 105.945296 126.455865 
L 106.474625 123.117823 
L 107.003953 118.109323 
L 107.886166 108.196439 
L 108.415494 105.184928 
L 108.944822 103.868279 
L 109.297708 103.431946 
L 109.827036 103.128396 
L 110.709249 102.915688 
L 111.767905 102.724118 
L 112.297233 102.486734 
L 113.179447 101.463654 
L 113.708775 100.486418 
L 114.414545 98.164017 
L 114.767431 96.674213 
L 116.00253 88.965039 
L 116.178972 88.551235 
L 116.355415 88.511892 
L 118.119842 106.622508 
L 119.178498 113.082165 
L 119.707826 115.044831 
L 120.237154 116.244694 
L 120.766482 116.904712 
L 121.825138 117.34162 
L 122.178024 117.347577 
L 124.118893 117.231758 
L 124.824664 116.956181 
L 125.177549 116.791705 
L 126.236206 116.157966 
L 128.000632 114.455877 
L 130.294387 110.960677 
L 131.000158 109.508311 
L 131.529486 108.32502 
L 132.941028 104.826614 
L 134.881897 98.928937 
L 136.469881 92.816708 
L 138.410751 82.910416 
L 139.292964 77.226869 
L 141.233834 63.336306 
L 141.939605 60.183423 
L 142.645375 58.048177 
L 143.351146 56.6021 
L 144.056917 55.622808 
L 144.93913 54.830369 
L 145.821344 54.343565 
L 146.88 54.00022 
L 148.467984 53.747837 
L 150.938182 53.613965 
L 151.114625 53.609701 
L 151.291067 54.137752 
L 151.643953 58.732841 
L 151.996838 64.325245 
L 152.349723 69.920068 
L 152.702609 75.850586 
L 153.055494 81.678046 
L 153.408379 87.64476 
L 156.05502 123.362313 
L 157.819447 139.726659 
L 158.878103 146.662566 
L 160.113202 152.566986 
L 161.171858 155.856826 
L 162.054071 157.455101 
L 162.759842 158.219417 
L 165.053597 158.513954 
L 165.759368 158.3685 
L 166.465138 157.989895 
L 167.523794 156.815374 
L 169.464664 152.708449 
L 170.876206 147.755923 
L 172.993518 137.985319 
L 175.640158 123.094992 
L 180.051225 97.126724 
L 180.756996 91.815189 
L 181.815652 80.892441 
L 182.34498 74.489846 
L 182.697866 72.306156 
L 183.050751 71.484384 
L 183.227194 72.119121 
L 184.28585 87.421196 
L 184.991621 99.160001 
L 185.697391 111.869057 
L 186.050277 116.976895 
L 186.403162 123.016277 
L 186.93249 130.406298 
L 187.285375 134.607329 
L 187.638261 139.51761 
L 187.991146 143.740323 
L 188.520474 149.610966 
L 188.696917 150.803268 
L 189.226245 155.858187 
L 189.755573 158.850042 
L 191.167115 166.951035 
L 192.225771 170.212843 
L 192.755099 171.386427 
L 193.46087 172.271249 
L 194.16664 172.707854 
L 194.695968 173.006565 
L 195.048854 173.089241 
L 195.754625 173.220997 
L 197.695494 173.085371 
L 198.048379 172.885333 
L 198.577708 172.524993 
L 198.75415 172.393419 
L 199.459921 171.390086 
L 199.812806 170.71897 
L 200.342134 169.616691 
L 201.047905 167.607213 
L 201.753676 164.96708 
L 203.34166 156.292433 
L 204.753202 144.82101 
L 205.458972 138.282608 
L 208.105613 102.736395 
L 210.399368 70.350656 
L 211.105138 64.933734 
L 211.810909 61.265259 
L 212.51668 58.780832 
L 213.222451 57.098278 
L 213.928221 55.958835 
L 214.633992 55.18714 
L 215.516206 54.562745 
L 215.869091 55.315086 
L 216.221976 57.756633 
L 220.280158 104.766467 
L 222.221028 122.156796 
L 222.926798 126.954402 
L 224.33834 132.774755 
L 224.691225 133.785043 
L 225.044111 134.515914 
L 225.573439 135.212008 
L 226.102767 135.58018 
L 226.98498 135.704951 
L 228.396522 135.528047 
L 229.102292 135.072965 
L 229.455178 134.539078 
L 229.808063 133.845221 
L 230.160949 132.972283 
L 230.513834 131.87442 
L 231.043162 129.765845 
L 231.57249 126.52575 
L 232.807589 115.602306 
L 234.748458 87.255723 
L 235.630672 74.852817 
L 236.336443 67.982743 
L 237.042213 63.330137 
L 237.747984 60.17922 
L 238.453755 58.045334 
L 239.159526 56.600195 
L 239.865296 55.621508 
L 240.74751 54.829583 
L 241.629723 54.343051 
L 241.806166 54.27111 
L 241.982609 54.393219 
L 242.159051 55.035456 
L 243.217708 62.739732 
L 243.570593 65.678545 
L 244.629249 74.395679 
L 245.158577 78.641496 
L 245.687905 83.043503 
L 246.746561 91.360259 
L 247.98166 98.311255 
L 248.334545 99.758965 
L 249.216759 102.282614 
L 249.92253 103.275151 
L 250.981186 103.614837 
L 252.392727 103.446914 
L 252.922055 103.07844 
L 253.627826 101.902285 
L 254.157154 100.737138 
L 254.686482 99.10191 
L 255.21581 97.00392 
L 255.921581 93.519032 
L 257.509565 83.040025 
L 259.979763 63.096443 
L 260.685534 60.020974 
L 261.391304 57.938164 
L 262.097075 56.527619 
L 262.802846 55.572337 
L 263.685059 54.799373 
L 264.567273 54.324514 
L 265.802372 53.950476 
L 267.390356 53.727123 
L 270.213439 53.601476 
L 276.741818 53.568907 
L 277.271146 57.241071 
L 277.976917 69.68465 
L 278.329802 77.335279 
L 278.682688 85.308418 
L 279.388458 99.157582 
L 279.741344 106.614554 
L 281.858656 143.166731 
L 282.387984 150.074484 
L 284.152411 166.683532 
L 285.034625 173.191604 
L 285.740395 176.620759 
L 286.093281 178.401532 
L 287.328379 182.517015 
L 287.857708 183.53447 
L 288.739921 184.304743 
L 289.269249 184.462415 
L 291.033676 184.326607 
L 291.563004 184.071048 
L 292.445217 183.061335 
L 293.503874 180.580355 
L 294.033202 178.765803 
L 294.56253 176.7758 
L 295.2683 173.389585 
L 295.797628 170.5854 
L 296.326957 167.593031 
L 298.797154 148.646521 
L 300.914466 130.967492 
L 303.031779 114.531356 
L 303.561107 110.777242 
L 303.913992 110.368125 
L 304.266877 113.058638 
L 304.796206 120.900626 
L 305.854862 135.245393 
L 307.619289 149.793101 
L 308.677945 155.859094 
L 310.089486 161.447718 
L 311.501028 164.530747 
L 312.559684 165.781987 
L 313.441897 166.092854 
L 315.206324 166.099961 
L 315.912095 165.953781 
L 316.617866 165.515815 
L 316.970751 165.147794 
L 317.500079 164.431922 
L 318.029407 163.57229 
L 318.911621 161.126086 
L 319.617391 158.894948 
L 320.676047 154.27984 
L 321.558261 149.859357 
L 322.79336 142.630576 
L 324.028458 134.343001 
L 324.910672 127.403617 
L 326.498656 113.017753 
L 327.733755 101.196847 
L 328.08664 99.883765 
L 328.263083 99.607614 
L 328.439526 99.60456 
L 329.145296 106.365377 
L 329.498182 109.842463 
L 329.851067 114.062485 
L 330.733281 122.475888 
L 331.262609 126.560405 
L 332.321265 132.921661 
L 332.850593 135.060899 
L 333.556364 137.064874 
L 333.909249 137.667315 
L 334.438577 138.148826 
L 334.967905 138.359902 
L 336.379447 138.350346 
L 336.908775 138.124453 
L 337.614545 137.423853 
L 338.320316 136.054374 
L 339.026087 133.70149 
L 339.378972 131.697213 
L 339.731858 129.339824 
L 340.261186 125.075016 
L 340.790514 121.172846 
L 341.143399 120.460815 
L 341.496285 120.604637 
L 342.554941 125.009486 
L 343.084269 126.061838 
L 343.437154 126.290997 
L 343.966482 126.466691 
L 344.49581 126.370225 
L 345.201581 125.572434 
L 345.730909 124.246621 
L 346.789565 117.845781 
L 347.142451 115.967242 
L 347.318893 115.328755 
L 347.671779 115.14798 
L 348.024664 116.580116 
L 349.259763 123.791903 
L 349.789091 124.940599 
L 350.141976 125.168941 
L 350.671304 125.456826 
L 351.553518 125.452048 
L 352.965059 124.970416 
L 353.494387 124.576147 
L 354.200158 123.755524 
L 354.729486 123.069197 
L 355.788142 121.30935 
L 356.493913 119.792179 
L 358.611225 113.027007 
L 360.199209 106.411311 
L 362.316522 98.363691 
L 363.198735 95.771519 
L 364.433834 92.419838 
L 365.668933 87.847822 
L 366.198261 85.206449 
L 366.727589 81.982956 
L 367.256917 78.072016 
L 368.315573 68.172287 
L 369.021344 63.458476 
L 369.727115 60.26616 
L 370.432885 58.104212 
L 371.138656 56.640051 
L 371.844427 55.648512 
L 372.72664 54.846184 
L 373.608854 54.353242 
L 374.66751 54.005633 
L 376.255494 53.750075 
L 378.725692 53.614539 
L 385.077628 53.569391 
L 397.781502 53.650827 
L 398.134387 53.697457 
L 398.487273 53.674536 
L 398.487273 53.674536 
" clip-path="url(#p560abfa759)" style="fill: none; stroke: #1f77b4; stroke-width: 1.5; stroke-linecap: square"/>
   </g>
   <g id="line2d_36">
    <path d="M 73.832727 268.244784 
L 74.00917 268.244784 
L 74.185613 53.568 
L 92.359209 53.568 
L 92.535652 56.009215 
L 92.712095 56.356551 
L 93.241423 68.102826 
L 93.417866 73.162945 
L 93.594308 72.894747 
L 93.947194 79.872778 
L 94.123636 84.418546 
L 94.300079 84.416792 
L 94.652964 91.07694 
L 94.829407 95.318402 
L 95.00585 94.610151 
L 95.358735 101.503934 
L 95.535178 101.113082 
L 95.888063 107.530705 
L 96.064506 106.836093 
L 96.417391 112.880615 
L 96.593834 112.109707 
L 96.770277 114.529632 
L 96.946719 115.06482 
L 97.65249 121.346545 
L 97.828933 121.937253 
L 98.005375 123.005148 
L 98.181818 125.127482 
L 98.358261 125.118773 
L 98.534704 126.681395 
L 98.711146 126.948959 
L 99.064032 128.307188 
L 99.769802 131.177841 
L 99.946245 131.293932 
L 100.29913 131.980774 
L 100.828458 132.424032 
L 101.534229 132.618021 
L 101.710672 132.521344 
L 101.887115 132.640157 
L 102.063557 132.543389 
L 102.24 132.662686 
L 102.416443 132.51838 
L 102.592885 132.602145 
L 102.769328 132.385143 
L 102.945771 131.565034 
L 103.122213 132.059398 
L 103.298656 131.114912 
L 103.475099 131.457228 
L 103.651542 130.430218 
L 103.827984 130.542317 
L 104.004427 129.406019 
L 104.18087 129.252612 
L 104.533755 127.119361 
L 104.710198 126.21328 
L 104.88664 122.699392 
L 105.063083 123.60263 
L 105.239526 119.741013 
L 105.415968 120.207979 
L 105.592411 116.598895 
L 105.768854 116.242305 
L 106.121739 111.353767 
L 106.298182 108.177388 
L 106.474625 100.147972 
L 106.651067 102.301968 
L 106.82751 94.963173 
L 107.003953 94.961994 
L 107.180395 90.259553 
L 107.356838 90.703234 
L 107.533281 92.070384 
L 107.709723 95.485448 
L 107.886166 95.808411 
L 108.239051 99.489345 
L 108.415494 99.597574 
L 108.591937 100.758609 
L 108.768379 101.031676 
L 109.121265 102.023699 
L 109.47415 102.376025 
L 109.827036 102.599529 
L 110.003478 102.772865 
L 110.179921 102.451746 
L 110.532806 102.75206 
L 110.709249 102.37663 
L 110.885692 102.54416 
L 111.062134 102.356339 
L 111.41502 102.469346 
L 111.591462 102.017349 
L 111.767905 101.877972 
L 111.944348 101.516302 
L 112.120791 100.617146 
L 112.297233 100.797044 
L 112.473676 100.365277 
L 112.650119 98.752578 
L 112.826561 99.127735 
L 113.179447 97.722422 
L 113.355889 96.997781 
L 113.532332 94.945241 
L 113.708775 94.768186 
L 113.885217 93.465295 
L 114.06166 90.682792 
L 114.238103 90.6863 
L 114.414545 88.900416 
L 114.590988 84.76307 
L 114.767431 85.021834 
L 114.943874 82.297482 
L 115.120316 76.842851 
L 115.296759 77.33292 
L 115.473202 78.189559 
L 115.649644 84.65971 
L 115.826087 84.507784 
L 116.355415 94.074268 
L 116.531858 96.445508 
L 116.7083 100.755464 
L 116.884743 100.957648 
L 117.414071 106.171327 
L 118.296285 113.211834 
L 118.472727 113.022017 
L 118.64917 114.200228 
L 118.825613 114.498999 
L 119.178498 115.885836 
L 119.354941 115.99594 
L 119.884269 116.971482 
L 120.060711 116.923189 
L 120.237154 117.055308 
L 120.413597 117.338777 
L 120.59004 117.165563 
L 120.766482 117.460433 
L 120.942925 117.150049 
L 121.472253 117.455352 
L 121.648696 117.478607 
L 121.825138 116.945083 
L 122.178024 117.40836 
L 122.354466 117.317367 
L 122.530909 117.427622 
L 122.707352 117.202274 
L 122.883794 117.401797 
L 123.060237 117.039704 
L 123.23668 116.965858 
L 123.413123 117.1753 
L 123.589565 116.748281 
L 123.766008 117.074843 
L 123.942451 116.165677 
L 124.118893 116.31975 
L 124.295336 116.663518 
L 124.471779 116.325253 
L 124.648221 116.521874 
L 124.824664 115.578416 
L 125.001107 115.808422 
L 125.177549 115.384427 
L 125.353992 115.437558 
L 125.530435 115.739081 
L 125.706877 114.753318 
L 125.88332 115.249103 
L 126.059763 114.482277 
L 126.412648 114.664442 
L 126.589091 113.295689 
L 126.765534 113.752676 
L 126.941976 113.301284 
L 127.118419 113.450579 
L 127.471304 112.831324 
L 127.647747 112.636971 
L 127.82419 111.609023 
L 128.000632 111.780393 
L 128.353518 111.036973 
L 128.52996 111.016833 
L 128.706403 110.331292 
L 128.882846 110.495042 
L 129.059289 109.577772 
L 129.412174 109.128496 
L 129.588617 108.350028 
L 129.765059 108.480756 
L 129.941502 108.012398 
L 130.117945 106.396857 
L 130.294387 107.035465 
L 130.47083 106.295371 
L 130.647273 106.186144 
L 130.823715 105.91347 
L 131.000158 104.208358 
L 131.176601 104.528871 
L 131.529486 103.60637 
L 131.705929 103.444223 
L 131.882372 102.093977 
L 132.058814 102.283158 
L 132.4117 99.967984 
L 132.588142 100.634111 
L 132.764585 99.338417 
L 132.941028 99.314407 
L 133.11747 98.636124 
L 133.293913 97.281372 
L 133.470356 97.464293 
L 133.646798 96.833003 
L 133.823241 95.07113 
L 133.999684 95.462859 
L 134.176126 94.333909 
L 134.352569 94.111675 
L 134.529012 93.28576 
L 134.705455 91.901071 
L 134.881897 91.810351 
L 135.05834 91.158286 
L 135.234783 89.293082 
L 135.411225 89.310984 
L 135.587668 88.58716 
L 135.764111 86.509158 
L 135.940553 86.60514 
L 136.116996 85.799576 
L 136.293439 83.557976 
L 136.469881 83.686344 
L 136.646324 82.623771 
L 136.822767 80.443377 
L 136.999209 80.542564 
L 137.175652 79.342731 
L 137.352095 77.168385 
L 137.528538 76.951655 
L 138.410751 69.722541 
L 138.587194 66.822404 
L 138.763636 67.861299 
L 139.116522 63.109627 
L 139.292964 63.147336 
L 139.469407 61.796364 
L 139.822292 55.871653 
L 139.998735 56.406296 
L 140.351621 53.568 
L 150.761739 53.568 
L 150.938182 55.143746 
L 151.46751 69.37602 
L 151.643953 67.999677 
L 152.173281 80.565486 
L 152.349723 80.167679 
L 152.702609 87.79717 
L 152.879051 92.653775 
L 153.055494 91.814191 
L 153.231937 94.754668 
L 153.408379 99.974969 
L 153.584822 99.79743 
L 153.761265 102.070783 
L 153.937708 107.338258 
L 154.11415 107.000659 
L 154.290593 109.499571 
L 154.467036 114.636561 
L 154.643478 114.262462 
L 154.819921 117.426292 
L 154.996364 118.315529 
L 155.172806 120.687857 
L 155.349249 124.622142 
L 155.525692 124.710533 
L 155.878577 128.421465 
L 156.05502 130.085905 
L 156.231462 133.974467 
L 156.407905 133.483429 
L 156.584348 136.590015 
L 156.760791 136.569875 
L 156.937233 138.954118 
L 157.113676 139.43067 
L 157.466561 142.111204 
L 158.172332 146.763446 
L 158.878103 150.277607 
L 159.407431 152.764574 
L 160.113202 154.977356 
L 160.289644 155.361525 
L 160.466087 156.157926 
L 160.64253 156.212932 
L 160.818972 156.739199 
L 160.995415 156.910327 
L 161.171858 157.501791 
L 161.3483 157.461875 
L 161.524743 157.796208 
L 161.701186 157.879187 
L 162.406957 158.540535 
L 162.583399 158.309351 
L 162.759842 158.518763 
L 162.936285 158.317092 
L 163.112727 158.446308 
L 163.28917 158.307355 
L 163.465613 158.590008 
L 163.642055 158.499802 
L 163.818498 158.628292 
L 164.171383 158.436903 
L 164.347826 158.424867 
L 164.524269 158.538388 
L 164.877154 158.39496 
L 165.053597 158.303242 
L 165.23004 157.879973 
L 165.406482 157.784566 
L 165.582925 157.488546 
L 165.759368 157.51425 
L 165.93581 156.902193 
L 166.112253 156.980635 
L 166.288696 156.014467 
L 166.465138 156.334527 
L 166.641581 155.3546 
L 166.818024 155.782345 
L 166.994466 154.348152 
L 167.170909 154.760928 
L 167.347352 153.001051 
L 167.523794 153.93713 
L 168.053123 152.00679 
L 168.406008 150.773784 
L 168.582451 149.646679 
L 168.758893 149.444283 
L 168.935336 148.333537 
L 169.111779 148.229572 
L 169.288221 146.514874 
L 169.464664 146.508281 
L 169.641107 144.82104 
L 169.817549 144.90919 
L 169.993992 143.057686 
L 170.170435 143.230477 
L 170.346877 141.245493 
L 170.52332 141.480791 
L 170.699763 139.380713 
L 170.876206 139.658498 
L 171.052648 137.481188 
L 171.229091 137.775786 
L 171.405534 135.558922 
L 171.581976 135.835406 
L 171.758419 133.619479 
L 171.934862 133.842046 
L 172.111304 131.669755 
L 172.287747 131.80009 
L 172.46419 129.712622 
L 172.640632 129.715495 
L 172.817075 127.702086 
L 172.993518 127.592647 
L 173.16996 125.824152 
L 173.346403 125.445819 
L 173.699289 123.171892 
L 173.875731 122.027973 
L 174.052174 119.070501 
L 174.228617 119.756496 
L 174.405059 117.154767 
L 174.581502 117.793133 
L 174.757945 115.544064 
L 174.934387 115.666808 
L 175.287273 113.180021 
L 175.463715 112.111279 
L 175.640158 109.238056 
L 175.816601 110.470638 
L 175.993043 108.054976 
L 176.169486 108.305031 
L 176.345929 106.661789 
L 176.698814 105.608621 
L 176.875257 102.841691 
L 177.0517 103.4715 
L 177.228142 101.835727 
L 177.404585 101.514276 
L 177.581028 100.937841 
L 177.75747 98.51855 
L 177.933913 98.923162 
L 178.110356 97.31778 
L 178.463241 95.853741 
L 178.639684 93.463692 
L 178.816126 93.383647 
L 178.992569 91.871194 
L 179.169012 88.795241 
L 179.345455 89.555868 
L 179.521897 87.256056 
L 179.69834 83.231474 
L 179.874783 84.134108 
L 180.051225 81.123716 
L 180.227668 80.388491 
L 180.404111 77.967658 
L 180.580553 73.661996 
L 180.756996 72.999982 
L 181.462767 60.758256 
L 181.639209 55.695263 
L 181.815652 55.682986 
L 181.992095 55.532723 
L 183.227194 79.715802 
L 183.580079 86.695648 
L 183.756522 92.164582 
L 183.932964 91.997657 
L 184.109407 95.170952 
L 184.28585 100.672455 
L 184.462292 101.633543 
L 184.638735 104.319248 
L 184.815178 109.441178 
L 184.991621 110.521411 
L 185.168063 113.47223 
L 185.344506 118.909957 
L 185.520949 118.925954 
L 185.697391 122.080046 
L 185.873834 128.426485 
L 186.050277 127.01346 
L 186.226719 131.547132 
L 186.403162 131.566304 
L 186.579605 135.209347 
L 186.756047 136.391973 
L 186.93249 138.685405 
L 187.108933 144.242731 
L 187.285375 142.553434 
L 187.461818 147.767293 
L 187.638261 146.375014 
L 187.814704 150.748232 
L 187.991146 149.711453 
L 188.167589 153.865613 
L 188.344032 153.074746 
L 188.520474 156.922242 
L 188.696917 155.984257 
L 188.87336 159.459257 
L 189.049802 158.374367 
L 190.108458 165.436374 
L 190.284901 165.546297 
L 190.461344 167.334297 
L 190.637787 167.18854 
L 190.814229 169.000279 
L 190.990672 168.660986 
L 191.872885 171.049977 
L 192.225771 171.666842 
L 192.402213 172.112036 
L 192.578656 172.153525 
L 193.107984 172.647405 
L 193.284427 172.526959 
L 193.46087 172.881916 
L 193.813755 172.85219 
L 193.990198 173.120812 
L 194.16664 173.025919 
L 194.519526 173.282052 
L 194.695968 172.970549 
L 194.872411 173.268413 
L 195.048854 172.985911 
L 195.401739 173.318158 
L 195.578182 173.184648 
L 195.931067 173.344769 
L 196.10751 173.218306 
L 196.283953 173.29693 
L 196.460395 173.037712 
L 196.636838 173.184951 
L 196.989723 172.917811 
L 197.166166 172.94034 
L 197.342609 172.186759 
L 197.519051 172.55983 
L 197.695494 171.407323 
L 197.871937 171.952187 
L 198.048379 171.81523 
L 198.224822 170.742648 
L 198.401265 171.107765 
L 198.577708 169.09744 
L 198.75415 170.188197 
L 199.107036 168.513808 
L 199.283478 168.760204 
L 199.459921 166.547029 
L 199.636364 167.466597 
L 199.812806 166.745978 
L 199.989249 165.126656 
L 200.165692 164.952655 
L 200.342134 162.703918 
L 200.518577 163.627327 
L 201.047905 160.483425 
L 201.224348 158.210042 
L 201.400791 158.23115 
L 201.577233 155.004481 
L 201.753676 155.771368 
L 201.930119 151.722927 
L 202.106561 153.381017 
L 202.988775 145.808558 
L 203.165217 141.954591 
L 203.34166 142.475293 
L 203.518103 137.70451 
L 203.694545 138.852844 
L 203.870988 133.164972 
L 204.047431 135.120079 
L 204.223874 128.534018 
L 204.400316 130.780246 
L 205.106087 121.209165 
L 205.28253 113.646564 
L 205.458972 115.836 
L 205.635415 108.515985 
L 205.811858 110.259019 
L 205.9883 103.541021 
L 206.164743 104.422094 
L 206.341186 98.784179 
L 206.517628 98.794037 
L 206.694071 94.053766 
L 206.870514 92.74392 
L 207.046957 89.735463 
L 207.223399 82.881325 
L 207.399842 83.885293 
L 207.576285 78.841806 
L 207.752727 77.698462 
L 207.92917 75.091501 
L 208.105613 69.046163 
L 208.282055 69.081422 
L 209.164269 53.568 
L 215.16332 53.568 
L 215.339763 55.840173 
L 215.516206 55.910632 
L 216.045534 63.833543 
L 216.221976 67.342774 
L 216.398419 66.55224 
L 216.927747 75.127215 
L 217.10419 74.952549 
L 217.457075 80.478939 
L 217.633518 84.207289 
L 217.80996 83.747066 
L 217.986403 85.709915 
L 218.162846 89.563065 
L 218.339289 89.794855 
L 218.692174 95.232249 
L 218.868617 98.889051 
L 219.045059 98.30802 
L 219.397945 104.983046 
L 219.574387 104.007745 
L 219.75083 106.953545 
L 219.927273 107.694001 
L 220.809486 117.764859 
L 220.985929 117.564519 
L 221.162372 119.903946 
L 221.338814 120.459243 
L 221.515257 121.81218 
L 221.6917 124.366886 
L 221.868142 124.272628 
L 222.044585 126.109164 
L 222.221028 126.473283 
L 222.39747 127.594492 
L 222.573913 129.557431 
L 222.750356 129.253005 
L 222.926798 130.746649 
L 223.103241 130.864887 
L 223.279684 132.034752 
L 223.456126 132.237027 
L 223.809012 133.354819 
L 223.985455 133.757253 
L 224.161897 134.634061 
L 224.33834 134.490421 
L 224.514783 135.071453 
L 224.691225 135.064709 
L 225.044111 135.453807 
L 225.749881 135.787506 
L 225.926324 135.697663 
L 226.102767 135.819137 
L 226.455652 135.614019 
L 226.632095 135.732318 
L 226.808538 135.595542 
L 226.98498 135.722701 
L 227.161423 135.508753 
L 227.337866 135.644259 
L 227.514308 135.324955 
L 227.690751 135.446126 
L 227.867194 135.016597 
L 228.043636 135.085605 
L 228.220079 134.557736 
L 228.396522 134.519452 
L 228.572964 133.854263 
L 228.749407 133.69895 
L 228.92585 133.024719 
L 229.102292 131.180351 
L 229.278735 131.691498 
L 229.455178 129.648695 
L 229.631621 130.1042 
L 229.808063 127.836261 
L 229.984506 128.049876 
L 230.160949 125.612169 
L 230.337391 125.388484 
L 230.513834 123.122208 
L 230.690277 122.439419 
L 230.866719 120.125756 
L 231.043162 114.719721 
L 231.219605 116.44824 
L 231.396047 110.693174 
L 231.57249 112.142971 
L 231.748933 106.843078 
L 231.925375 106.773103 
L 232.101818 102.319416 
L 232.278261 100.838412 
L 232.454704 97.824633 
L 232.631146 89.298435 
L 232.807589 90.474287 
L 232.984032 84.172936 
L 233.160474 83.241937 
L 233.336917 79.670714 
L 233.51336 72.317435 
L 233.689802 73.085168 
L 234.042688 63.630632 
L 234.21913 64.430843 
L 234.572016 56.975957 
L 234.748458 57.464605 
L 235.101344 53.568 
L 241.453281 53.568 
L 241.806166 56.258906 
L 242.159051 60.640017 
L 242.335494 60.607086 
L 242.688379 63.552673 
L 243.041265 68.261767 
L 243.217708 67.65603 
L 243.747036 73.61839 
L 243.923478 73.634599 
L 245.158577 84.218327 
L 245.511462 87.483823 
L 245.687905 89.702623 
L 245.864348 89.694518 
L 246.040791 91.034483 
L 246.217233 93.360151 
L 246.393676 93.356794 
L 247.275889 98.806344 
L 247.452332 98.983823 
L 247.805217 100.773275 
L 247.98166 100.90246 
L 248.158103 101.355304 
L 248.334545 102.179012 
L 248.510988 102.258059 
L 248.863874 103.024673 
L 249.216759 103.263176 
L 249.569644 103.727693 
L 249.746087 103.493272 
L 249.92253 103.651367 
L 250.275415 103.494966 
L 250.6283 103.741543 
L 250.804743 103.452509 
L 251.157628 103.705527 
L 251.334071 103.165743 
L 251.510514 103.605432 
L 252.56917 101.723839 
L 252.745613 100.264306 
L 252.922055 100.489654 
L 253.098498 99.565338 
L 253.274941 97.827748 
L 253.451383 98.314249 
L 253.804269 96.633903 
L 253.980711 95.825316 
L 254.157154 93.659073 
L 254.333597 93.586558 
L 254.51004 92.628706 
L 254.686482 89.97439 
L 254.862925 90.110832 
L 255.039368 88.683111 
L 255.21581 85.939799 
L 255.392253 86.24867 
L 255.568696 84.540897 
L 255.745138 81.632141 
L 255.921581 82.034878 
L 256.274466 76.898009 
L 256.450909 77.494704 
L 256.803794 72.273254 
L 256.980237 72.516717 
L 257.15668 70.655717 
L 257.333123 67.413021 
L 257.509565 66.897822 
L 257.686008 65.123067 
L 258.038893 58.375948 
L 258.215336 59.373808 
L 258.568221 53.568 
L 276.388933 53.568 
L 276.565375 57.334211 
L 276.741818 56.662731 
L 277.094704 65.067667 
L 277.271146 71.073634 
L 277.447589 71.861053 
L 277.976917 85.504676 
L 278.15336 92.58259 
L 278.329802 90.536491 
L 278.506245 94.580788 
L 278.682688 102.056328 
L 278.85913 101.666262 
L 279.035573 104.997138 
L 279.212016 112.385828 
L 279.388458 112.145934 
L 279.564901 115.86748 
L 279.741344 123.729396 
L 279.917787 122.386287 
L 280.094229 127.309147 
L 280.270672 128.489233 
L 280.447115 131.547011 
L 280.623557 138.688459 
L 280.8 137.216557 
L 280.976443 142.830432 
L 281.152885 142.287231 
L 281.329328 146.709891 
L 281.505771 146.878691 
L 281.682213 150.734019 
L 281.858656 151.174464 
L 282.035099 154.728814 
L 282.211542 155.129796 
L 282.387984 158.672593 
L 282.564427 158.831565 
L 282.74087 161.968844 
L 282.917312 161.740865 
L 283.093755 165.586516 
L 283.270198 164.92302 
L 283.44664 168.554058 
L 283.623083 167.739664 
L 283.799526 168.512568 
L 283.975968 170.692419 
L 284.152411 171.127361 
L 284.328854 173.80977 
L 284.505296 173.477009 
L 284.681739 176.075834 
L 284.858182 175.523652 
L 285.034625 176.156757 
L 285.211067 177.992022 
L 285.38751 178.072763 
L 285.563953 180.045681 
L 285.740395 179.548112 
L 286.446166 182.669304 
L 286.622609 182.448189 
L 287.328379 184.0624 
L 287.504822 184.000589 
L 287.681265 184.064244 
L 288.03415 184.430481 
L 288.387036 184.477746 
L 288.563478 184.578052 
L 288.739921 184.466588 
L 288.916364 184.539164 
L 289.092806 184.431086 
L 289.445692 184.572851 
L 289.622134 184.4228 
L 289.798577 184.495618 
L 289.97502 183.958798 
L 290.151462 184.304985 
L 290.327905 184.323371 
L 290.504348 183.797437 
L 290.680791 183.932217 
L 291.210119 183.142771 
L 291.386561 181.984126 
L 291.563004 182.242436 
L 291.739447 181.875292 
L 291.915889 180.870689 
L 292.092332 180.683654 
L 292.268775 178.938383 
L 292.445217 179.271598 
L 292.974545 176.942452 
L 293.150988 175.006246 
L 293.327431 175.234376 
L 293.503874 172.230849 
L 293.680316 173.009075 
L 293.856759 172.508966 
L 294.033202 170.042289 
L 294.209644 170.393224 
L 294.386087 166.405596 
L 294.56253 167.916961 
L 294.738972 166.998452 
L 294.915415 164.203641 
L 295.091858 164.82468 
L 295.2683 160.508313 
L 295.444743 161.918404 
L 295.621186 160.959584 
L 295.797628 157.716647 
L 295.974071 157.949222 
L 296.150514 153.610569 
L 296.326957 155.119666 
L 296.856285 149.842634 
L 297.032727 146.394821 
L 297.20917 146.798434 
L 297.385613 141.892871 
L 297.562055 142.932038 
L 297.738498 137.752108 
L 297.914941 139.608783 
L 298.973597 128.73959 
L 299.15004 127.946092 
L 299.326482 125.458157 
L 299.502925 125.123763 
L 299.679368 123.089367 
L 299.85581 122.566608 
L 300.208696 120.177073 
L 300.914466 114.020482 
L 301.090909 114.572966 
L 301.267352 112.052614 
L 301.443794 112.281107 
L 301.620237 109.946942 
L 301.79668 109.566372 
L 301.973123 107.713597 
L 302.149565 103.339744 
L 302.326008 104.759754 
L 302.502451 100.413721 
L 302.678893 100.645874 
L 302.855336 98.029902 
L 303.031779 99.171281 
L 303.208221 101.608322 
L 303.384664 108.62249 
L 303.561107 108.325171 
L 303.913992 115.904857 
L 304.090435 119.33498 
L 304.266877 125.359877 
L 304.44332 125.07432 
L 304.619763 128.634022 
L 304.796206 129.790521 
L 304.972648 132.038865 
L 305.149091 137.109629 
L 305.325534 136.161696 
L 305.501976 139.871962 
L 305.678419 139.722123 
L 305.854862 142.457996 
L 306.031304 142.980725 
L 306.207747 145.128914 
L 306.38419 145.804627 
L 306.737075 148.387607 
L 307.08996 150.868768 
L 307.619289 153.966675 
L 307.795731 154.737281 
L 307.972174 156.121305 
L 308.148617 156.38899 
L 308.325059 157.812417 
L 308.501502 157.953486 
L 308.677945 159.182047 
L 308.854387 159.505615 
L 309.03083 160.67436 
L 309.207273 160.791329 
L 309.383715 161.539164 
L 309.560158 161.636265 
L 309.736601 162.766152 
L 309.913043 162.663155 
L 310.265929 163.726393 
L 310.618814 164.203762 
L 310.795257 164.379063 
L 310.9717 165.014496 
L 311.324585 165.17628 
L 311.501028 165.279096 
L 311.67747 165.860551 
L 312.030356 165.851328 
L 312.206798 166.119435 
L 312.559684 166.014351 
L 312.736126 165.985684 
L 313.089012 166.286239 
L 313.265455 166.118982 
L 313.61834 166.264134 
L 314.147668 166.05575 
L 314.324111 166.23347 
L 314.500553 165.541247 
L 314.676996 166.149161 
L 314.853439 165.735085 
L 315.029881 165.887646 
L 315.206324 165.771373 
L 315.382767 165.34889 
L 315.559209 165.635716 
L 315.735652 164.430078 
L 315.912095 165.148066 
L 316.26498 164.185043 
L 316.441423 164.200889 
L 316.617866 162.744833 
L 316.794308 163.081827 
L 316.970751 161.612133 
L 317.147194 162.344485 
L 317.676522 160.63145 
L 317.852964 158.888688 
L 318.029407 158.904988 
L 318.20585 157.145957 
L 318.382292 157.580536 
L 318.558735 154.60356 
L 318.735178 155.888548 
L 319.440949 151.135425 
L 319.617391 150.982652 
L 319.793834 148.523142 
L 319.970277 148.931382 
L 320.146719 145.963961 
L 320.323162 146.982626 
L 320.499605 143.361537 
L 320.676047 144.729232 
L 322.969802 128.109872 
L 323.49913 123.381334 
L 323.852016 120.62771 
L 324.028458 116.641624 
L 324.204901 117.759809 
L 324.381344 113.801272 
L 324.557787 114.381396 
L 324.734229 111.017498 
L 324.910672 111.165674 
L 325.087115 108.055279 
L 325.263557 107.431821 
L 325.44 104.941345 
L 325.616443 99.390732 
L 325.792885 101.209306 
L 325.969328 96.624408 
L 326.145771 96.829586 
L 326.322213 93.113695 
L 326.498656 91.854985 
L 326.851542 85.892111 
L 327.027984 86.054409 
L 327.204427 86.61648 
L 327.38087 92.22727 
L 327.557312 91.76363 
L 327.733755 95.610763 
L 327.910198 96.909208 
L 328.792411 110.902647 
L 328.968854 111.061377 
L 329.145296 113.387075 
L 329.321739 117.601351 
L 329.498182 117.013909 
L 329.674625 119.656976 
L 329.851067 120.322256 
L 330.02751 122.013609 
L 330.203953 125.240913 
L 330.380395 124.954358 
L 330.556838 127.22883 
L 330.733281 127.529143 
L 331.086166 129.84462 
L 331.262609 130.803833 
L 331.439051 132.995386 
L 331.615494 132.728155 
L 331.791937 134.246052 
L 331.968379 134.350138 
L 332.321265 135.701896 
L 333.027036 137.850267 
L 333.203478 137.715124 
L 333.379921 138.098991 
L 333.732806 138.273808 
L 334.262134 138.459845 
L 334.438577 138.369185 
L 334.61502 138.483765 
L 334.791462 138.381705 
L 334.967905 138.496526 
L 335.144348 138.383942 
L 335.320791 138.493472 
L 335.497233 138.339308 
L 335.673676 138.418628 
L 335.850119 138.198087 
L 336.026561 137.799343 
L 336.203004 137.904548 
L 336.379447 137.119033 
L 336.555889 137.401112 
L 336.732332 136.369777 
L 336.908775 136.642239 
L 337.085217 135.398408 
L 337.26166 135.580664 
L 337.438103 134.132743 
L 337.614545 134.160019 
L 337.790988 132.453516 
L 337.967431 132.32433 
L 338.143874 130.569443 
L 338.320316 129.988532 
L 338.849644 125.030382 
L 339.026087 119.97885 
L 339.20253 121.29807 
L 339.378972 115.738688 
L 339.555415 116.525503 
L 339.731858 110.80975 
L 339.9083 110.757223 
L 340.084743 107.991261 
L 340.261186 108.624214 
L 340.966957 120.732129 
L 341.143399 120.700709 
L 341.319842 122.888755 
L 341.496285 123.276915 
L 341.84917 125.586888 
L 342.025613 125.739419 
L 342.378498 126.186638 
L 342.731383 126.605553 
L 343.084269 126.429587 
L 343.260711 126.549881 
L 343.437154 126.459433 
L 343.613597 126.579577 
L 344.142925 125.886446 
L 344.319368 124.501817 
L 344.49581 125.048193 
L 344.672253 123.04437 
L 344.848696 123.276764 
L 345.025138 121.32949 
L 345.201581 120.786833 
L 345.378024 119.124752 
L 345.554466 113.790295 
L 345.730909 115.534689 
L 345.907352 110.096297 
L 346.083794 110.923573 
L 346.260237 106.00038 
L 346.43668 105.705026 
L 346.613123 103.762801 
L 346.789565 110.386994 
L 346.966008 109.089971 
L 347.142451 114.261676 
L 347.318893 114.349553 
L 347.671779 118.13666 
L 348.201107 122.376005 
L 348.553992 124.530696 
L 348.730435 124.471032 
L 348.906877 125.037397 
L 349.612648 125.505271 
L 349.789091 125.233685 
L 349.965534 125.586042 
L 350.141976 125.489485 
L 350.318419 125.615707 
L 350.671304 125.411164 
L 350.847747 125.521116 
L 351.02419 125.049161 
L 351.200632 125.460606 
L 351.377075 124.909422 
L 351.553518 125.295798 
L 351.72996 124.925177 
L 351.906403 125.010272 
L 352.082846 124.647332 
L 352.259289 124.628825 
L 352.435731 124.300509 
L 352.612174 123.571423 
L 352.788617 123.826497 
L 352.965059 123.167477 
L 353.141502 123.300472 
L 353.494387 122.502983 
L 353.67083 122.275125 
L 353.847273 120.904527 
L 354.023715 121.681816 
L 354.200158 120.54074 
L 354.376601 120.98557 
L 354.553043 120.195732 
L 354.729486 120.20937 
L 355.082372 119.215441 
L 355.258814 118.781921 
L 355.435257 117.494362 
L 355.6117 117.799272 
L 355.788142 116.712023 
L 355.964585 116.44077 
L 356.141028 115.787707 
L 356.31747 114.013768 
L 356.493913 114.709016 
L 356.670356 112.759504 
L 356.846798 113.035988 
L 357.023241 112.005288 
L 357.199684 111.743712 
L 357.376126 110.982329 
L 357.552569 108.886818 
L 357.729012 109.401715 
L 357.905455 107.77444 
L 358.081897 107.639267 
L 358.25834 106.735756 
L 358.434783 104.572477 
L 358.611225 105.162702 
L 358.787668 103.480692 
L 358.964111 103.323807 
L 359.140553 102.502761 
L 359.316996 100.443387 
L 359.493439 100.893842 
L 359.669881 99.772119 
L 360.022767 98.85869 
L 360.199209 97.120344 
L 360.375652 97.561333 
L 360.728538 95.14044 
L 360.90498 95.522371 
L 361.081423 94.626451 
L 361.257866 94.585596 
L 361.434308 94.291724 
L 361.610751 93.223647 
L 361.787194 93.320597 
L 361.963636 92.873347 
L 362.140079 92.10126 
L 362.316522 92.268003 
L 362.492964 91.819513 
L 362.669407 91.044341 
L 362.84585 91.25959 
L 363.022292 90.968106 
L 363.198735 89.805257 
L 363.375178 90.078113 
L 363.551621 89.366293 
L 363.728063 88.168699 
L 363.904506 88.513556 
L 364.257391 85.968799 
L 364.433834 86.385658 
L 364.610277 85.128309 
L 364.786719 82.889702 
L 364.963162 83.477477 
L 365.316047 79.405056 
L 365.49249 79.8654 
L 365.668933 78.078185 
L 365.845375 74.828595 
L 366.021818 75.112548 
L 366.198261 73.148279 
L 366.374704 69.730584 
L 366.551146 69.298455 
L 366.727589 67.318733 
L 367.080474 58.810134 
L 367.256917 60.12001 
L 367.609802 53.568 
L 397.252174 53.579884 
L 397.605059 53.824798 
L 397.781502 53.568 
L 398.31083 53.606405 
L 398.487273 53.736104 
L 398.487273 53.736104 
" clip-path="url(#p560abfa759)" style="fill: none; stroke: #ff7f0e; stroke-width: 1.5; stroke-linecap: square"/>
   </g>
   <g id="patch_3">
    <path d="M 57.6 307.584 
L 57.6 41.472 
" style="fill: none; stroke: #000000; stroke-width: 0.8; stroke-linejoin: miter; stroke-linecap: square"/>
   </g>
   <g id="patch_4">
    <path d="M 414.72 307.584 
L 414.72 41.472 
" style="fill: none; stroke: #000000; stroke-width: 0.8; stroke-linejoin: miter; stroke-linecap: square"/>
   </g>
   <g id="patch_5">
    <path d="M 57.6 307.584 
L 414.72 307.584 
" style="fill: none; stroke: #000000; stroke-width: 0.8; stroke-linejoin: miter; stroke-linecap: square"/>
   </g>
   <g id="patch_6">
    <path d="M 57.6 41.472 
L 414.72 41.472 
" style="fill: none; stroke: #000000; stroke-width: 0.8; stroke-linejoin: miter; stroke-linecap: square"/>
   </g>
   <g id="text_20">
    <!-- Actual speed vs Expected speed -->
    <g transform="translate(138.808125 35.472) scale(0.12 -0.12)">
     <defs>
      <path id="DejaVuSans-41" d="M 2188 4044 
L 1331 1722 
L 3047 1722 
L 2188 4044 
z
M 1831 4666 
L 2547 4666 
L 4325 0 
L 3669 0 
L 3244 1197 
L 1141 1197 
L 716 0 
L 50 0 
L 1831 4666 
z
" transform="scale(0.015625)"/>
      <path id="DejaVuSans-75" d="M 544 1381 
L 544 3500 
L 1119 3500 
L 1119 1403 
Q 1119 906 1312 657 
Q 1506 409 1894 409 
Q 2359 409 2629 706 
Q 2900 1003 2900 1516 
L 2900 3500 
L 3475 3500 
L 3475 0 
L 2900 0 
L 2900 538 
Q 2691 219 2414 64 
Q 2138 -91 1772 -91 
Q 1169 -91 856 284 
Q 544 659 544 1381 
z
M 1991 3584 
L 1991 3584 
z
" transform="scale(0.015625)"/>
      <path id="DejaVuSans-61" d="M 2194 1759 
Q 1497 1759 1228 1600 
Q 959 1441 959 1056 
Q 959 750 1161 570 
Q 1363 391 1709 391 
Q 2188 391 2477 730 
Q 2766 1069 2766 1631 
L 2766 1759 
L 2194 1759 
z
M 3341 1997 
L 3341 0 
L 2766 0 
L 2766 531 
Q 2569 213 2275 61 
Q 1981 -91 1556 -91 
Q 1019 -91 701 211 
Q 384 513 384 1019 
Q 384 1609 779 1909 
Q 1175 2209 1959 2209 
L 2766 2209 
L 2766 2266 
Q 2766 2663 2505 2880 
Q 2244 3097 1772 3097 
Q 1472 3097 1187 3025 
Q 903 2953 641 2809 
L 641 3341 
Q 956 3463 1253 3523 
Q 1550 3584 1831 3584 
Q 2591 3584 2966 3190 
Q 3341 2797 3341 1997 
z
" transform="scale(0.015625)"/>
      <path id="DejaVuSans-20" transform="scale(0.015625)"/>
      <path id="DejaVuSans-70" d="M 1159 525 
L 1159 -1331 
L 581 -1331 
L 581 3500 
L 1159 3500 
L 1159 2969 
Q 1341 3281 1617 3432 
Q 1894 3584 2278 3584 
Q 2916 3584 3314 3078 
Q 3713 2572 3713 1747 
Q 3713 922 3314 415 
Q 2916 -91 2278 -91 
Q 1894 -91 1617 61 
Q 1341 213 1159 525 
z
M 3116 1747 
Q 3116 2381 2855 2742 
Q 2594 3103 2138 3103 
Q 1681 3103 1420 2742 
Q 1159 2381 1159 1747 
Q 1159 1113 1420 752 
Q 1681 391 2138 391 
Q 2594 391 2855 752 
Q 3116 1113 3116 1747 
z
" transform="scale(0.015625)"/>
      <path id="DejaVuSans-64" d="M 2906 2969 
L 2906 4863 
L 3481 4863 
L 3481 0 
L 2906 0 
L 2906 525 
Q 2725 213 2448 61 
Q 2172 -91 1784 -91 
Q 1150 -91 751 415 
Q 353 922 353 1747 
Q 353 2572 751 3078 
Q 1150 3584 1784 3584 
Q 2172 3584 2448 3432 
Q 2725 3281 2906 2969 
z
M 947 1747 
Q 947 1113 1208 752 
Q 1469 391 1925 391 
Q 2381 391 2643 752 
Q 2906 1113 2906 1747 
Q 2906 2381 2643 2742 
Q 2381 3103 1925 3103 
Q 1469 3103 1208 2742 
Q 947 2381 947 1747 
z
" transform="scale(0.015625)"/>
      <path id="DejaVuSans-76" d="M 191 3500 
L 800 3500 
L 1894 563 
L 2988 3500 
L 3597 3500 
L 2284 0 
L 1503 0 
L 191 3500 
z
" transform="scale(0.015625)"/>
      <path id="DejaVuSans-45" d="M 628 4666 
L 3578 4666 
L 3578 4134 
L 1259 4134 
L 1259 2753 
L 3481 2753 
L 3481 2222 
L 1259 2222 
L 1259 531 
L 3634 531 
L 3634 0 
L 628 0 
L 628 4666 
z
" transform="scale(0.015625)"/>
      <path id="DejaVuSans-78" d="M 3513 3500 
L 2247 1797 
L 3578 0 
L 2900 0 
L 1881 1375 
L 863 0 
L 184 0 
L 1544 1831 
L 300 3500 
L 978 3500 
L 1906 2253 
L 2834 3500 
L 3513 3500 
z
" transform="scale(0.015625)"/>
     </defs>
     <use xlink:href="#DejaVuSans-41"/>
     <use xlink:href="#DejaVuSans-63" x="66.658203"/>
     <use xlink:href="#DejaVuSans-74" x="121.638672"/>
     <use xlink:href="#DejaVuSans-75" x="160.847656"/>
     <use xlink:href="#DejaVuSans-61" x="224.226562"/>
     <use xlink:href="#DejaVuSans-6c" x="285.505859"/>
     <use xlink:href="#DejaVuSans-20" x="313.289062"/>
     <use xlink:href="#DejaVuSans-73" x="345.076172"/>
     <use xlink:href="#DejaVuSans-70" x="397.175781"/>
     <use xlink:href="#DejaVuSans-65" x="460.652344"/>
     <use xlink:href="#DejaVuSans-65" x="522.175781"/>
     <use xlink:href="#DejaVuSans-64" x="583.699219"/>
     <use xlink:href="#DejaVuSans-20" x="647.175781"/>
     <use xlink:href="#DejaVuSans-76" x="678.962891"/>
     <use xlink:href="#DejaVuSans-73" x="738.142578"/>
     <use xlink:href="#DejaVuSans-20" x="790.242188"/>
     <use xlink:href="#DejaVuSans-45" x="822.029297"/>
     <use xlink:href="#DejaVuSans-78" x="885.212891"/>
     <use xlink:href="#DejaVuSans-70" x="944.392578"/>
     <use xlink:href="#DejaVuSans-65" x="1007.869141"/>
     <use xlink:href="#DejaVuSans-63" x="1069.392578"/>
     <use xlink:href="#DejaVuSans-74" x="1124.373047"/>
     <use xlink:href="#DejaVuSans-65" x="1163.582031"/>
     <use xlink:href="#DejaVuSans-64" x="1225.105469"/>
     <use xlink:href="#DejaVuSans-20" x="1288.582031"/>
     <use xlink:href="#DejaVuSans-73" x="1320.369141"/>
     <use xlink:href="#DejaVuSans-70" x="1372.46875"/>
     <use xlink:href="#DejaVuSans-65" x="1435.945312"/>
     <use xlink:href="#DejaVuSans-65" x="1497.46875"/>
     <use xlink:href="#DejaVuSans-64" x="1558.992188"/>
    </g>
   </g>
   <g id="legend_1">
    <g id="patch_7">
     <path d="M 295.67 302.584 
L 407.72 302.584 
Q 409.72 302.584 409.72 300.584 
L 409.72 272.22775 
Q 409.72 270.22775 407.72 270.22775 
L 295.67 270.22775 
Q 293.67 270.22775 293.67 272.22775 
L 293.67 300.584 
Q 293.67 302.584 295.67 302.584 
z
" style="fill: #ffffff; opacity: 0.8; stroke: #cccccc; stroke-linejoin: miter"/>
    </g>
    <g id="line2d_37">
     <path d="M 297.67 278.326187 
L 307.67 278.326187 
L 317.67 278.326187 
" style="fill: none; stroke: #1f77b4; stroke-width: 1.5; stroke-linecap: square"/>
    </g>
    <g id="text_21">
     <!-- Actual speed -->
     <g transform="translate(325.67 281.826187) scale(0.1 -0.1)">
      <use xlink:href="#DejaVuSans-41"/>
      <use xlink:href="#DejaVuSans-63" x="66.658203"/>
      <use xlink:href="#DejaVuSans-74" x="121.638672"/>
      <use xlink:href="#DejaVuSans-75" x="160.847656"/>
      <use xlink:href="#DejaVuSans-61" x="224.226562"/>
      <use xlink:href="#DejaVuSans-6c" x="285.505859"/>
      <use xlink:href="#DejaVuSans-20" x="313.289062"/>
      <use xlink:href="#DejaVuSans-73" x="345.076172"/>
      <use xlink:href="#DejaVuSans-70" x="397.175781"/>
      <use xlink:href="#DejaVuSans-65" x="460.652344"/>
      <use xlink:href="#DejaVuSans-65" x="522.175781"/>
      <use xlink:href="#DejaVuSans-64" x="583.699219"/>
     </g>
    </g>
    <g id="line2d_38">
     <path d="M 297.67 293.004312 
L 307.67 293.004312 
L 317.67 293.004312 
" style="fill: none; stroke: #ff7f0e; stroke-width: 1.5; stroke-linecap: square"/>
    </g>
    <g id="text_22">
     <!-- Expected speed -->
     <g transform="translate(325.67 296.504312) scale(0.1 -0.1)">
      <use xlink:href="#DejaVuSans-45"/>
      <use xlink:href="#DejaVuSans-78" x="63.183594"/>
      <use xlink:href="#DejaVuSans-70" x="122.363281"/>
      <use xlink:href="#DejaVuSans-65" x="185.839844"/>
      <use xlink:href="#DejaVuSans-63" x="247.363281"/>
      <use xlink:href="#DejaVuSans-74" x="302.34375"/>
      <use xlink:href="#DejaVuSans-65" x="341.552734"/>
      <use xlink:href="#DejaVuSans-64" x="403.076172"/>
      <use xlink:href="#DejaVuSans-20" x="466.552734"/>
      <use xlink:href="#DejaVuSans-73" x="498.339844"/>
      <use xlink:href="#DejaVuSans-70" x="550.439453"/>
      <use xlink:href="#DejaVuSans-65" x="613.916016"/>
      <use xlink:href="#DejaVuSans-65" x="675.439453"/>
      <use xlink:href="#DejaVuSans-64" x="736.962891"/>
     </g>
    </g>
   </g>
  </g>
 </g>
 <defs>
  <clipPath id="p560abfa759">
   <rect x="57.6" y="41.472" width="357.12" height="266.112"/>
  </clipPath>
 </defs>
</svg>
