<?xml version="1.0" encoding="utf-8" standalone="no"?>
<!DOCTYPE svg PUBLIC "-//W3C//DTD SVG 1.1//EN"
  "http://www.w3.org/Graphics/SVG/1.1/DTD/svg11.dtd">
<svg xmlns:xlink="http://www.w3.org/1999/xlink" width="460.8pt" height="345.6pt" viewBox="0 0 460.8 345.6" xmlns="http://www.w3.org/2000/svg" version="1.1">
 <metadata>
  <rdf:RDF xmlns:dc="http://purl.org/dc/elements/1.1/" xmlns:cc="http://creativecommons.org/ns#" xmlns:rdf="http://www.w3.org/1999/02/22-rdf-syntax-ns#">
   <cc:Work>
    <dc:type rdf:resource="http://purl.org/dc/dcmitype/StillImage"/>
    <dc:date>2024-01-30T20:59:09.819679</dc:date>
    <dc:format>image/svg+xml</dc:format>
    <dc:creator>
     <cc:Agent>
      <dc:title>Matplotlib v3.7.1, https://matplotlib.org/</dc:title>
     </cc:Agent>
    </dc:creator>
   </cc:Work>
  </rdf:RDF>
 </metadata>
 <defs>
  <style type="text/css">*{stroke-linejoin: round; stroke-linecap: butt}</style>
 </defs>
 <g id="figure_1">
  <g id="patch_1">
   <path d="M 0 345.6 
L 460.8 345.6 
L 460.8 0 
L 0 0 
z
" style="fill: #ffffff"/>
  </g>
  <g id="axes_1">
   <g id="patch_2">
    <path d="M 57.6 307.584 
L 414.72 307.584 
L 414.72 41.472 
L 57.6 41.472 
z
" style="fill: #ffffff"/>
   </g>
   <g id="matplotlib.axis_1">
    <g id="xtick_1">
     <g id="line2d_1">
      <path d="M 73.832727 307.584 
L 73.832727 41.472 
" clip-path="url(#p5c71f54338)" style="fill: none; stroke: #b0b0b0; stroke-width: 0.8; stroke-linecap: square"/>
     </g>
     <g id="line2d_2">
      <defs>
       <path id="m4fbb64cc15" d="M 0 0 
L 0 3.5 
" style="stroke: #000000; stroke-width: 0.8"/>
      </defs>
      <g>
       <use xlink:href="#m4fbb64cc15" x="73.832727" y="307.584" style="stroke: #000000; stroke-width: 0.8"/>
      </g>
     </g>
     <g id="text_1">
      <!-- 0 -->
      <g transform="translate(70.651477 322.182437) scale(0.1 -0.1)">
       <defs>
        <path id="DejaVuSans-30" d="M 2034 4250 
Q 1547 4250 1301 3770 
Q 1056 3291 1056 2328 
Q 1056 1369 1301 889 
Q 1547 409 2034 409 
Q 2525 409 2770 889 
Q 3016 1369 3016 2328 
Q 3016 3291 2770 3770 
Q 2525 4250 2034 4250 
z
M 2034 4750 
Q 2819 4750 3233 4129 
Q 3647 3509 3647 2328 
Q 3647 1150 3233 529 
Q 2819 -91 2034 -91 
Q 1250 -91 836 529 
Q 422 1150 422 2328 
Q 422 3509 836 4129 
Q 1250 4750 2034 4750 
z
" transform="scale(0.015625)"/>
       </defs>
       <use xlink:href="#DejaVuSans-30"/>
      </g>
     </g>
    </g>
    <g id="xtick_2">
     <g id="line2d_3">
      <path d="M 131.972868 307.584 
L 131.972868 41.472 
" clip-path="url(#p5c71f54338)" style="fill: none; stroke: #b0b0b0; stroke-width: 0.8; stroke-linecap: square"/>
     </g>
     <g id="line2d_4">
      <g>
       <use xlink:href="#m4fbb64cc15" x="131.972868" y="307.584" style="stroke: #000000; stroke-width: 0.8"/>
      </g>
     </g>
     <g id="text_2">
      <!-- 5 -->
      <g transform="translate(128.791618 322.182437) scale(0.1 -0.1)">
       <defs>
        <path id="DejaVuSans-35" d="M 691 4666 
L 3169 4666 
L 3169 4134 
L 1269 4134 
L 1269 2991 
Q 1406 3038 1543 3061 
Q 1681 3084 1819 3084 
Q 2600 3084 3056 2656 
Q 3513 2228 3513 1497 
Q 3513 744 3044 326 
Q 2575 -91 1722 -91 
Q 1428 -91 1123 -41 
Q 819 9 494 109 
L 494 744 
Q 775 591 1075 516 
Q 1375 441 1709 441 
Q 2250 441 2565 725 
Q 2881 1009 2881 1497 
Q 2881 1984 2565 2268 
Q 2250 2553 1709 2553 
Q 1456 2553 1204 2497 
Q 953 2441 691 2322 
L 691 4666 
z
" transform="scale(0.015625)"/>
       </defs>
       <use xlink:href="#DejaVuSans-35"/>
      </g>
     </g>
    </g>
    <g id="xtick_3">
     <g id="line2d_5">
      <path d="M 190.113009 307.584 
L 190.113009 41.472 
" clip-path="url(#p5c71f54338)" style="fill: none; stroke: #b0b0b0; stroke-width: 0.8; stroke-linecap: square"/>
     </g>
     <g id="line2d_6">
      <g>
       <use xlink:href="#m4fbb64cc15" x="190.113009" y="307.584" style="stroke: #000000; stroke-width: 0.8"/>
      </g>
     </g>
     <g id="text_3">
      <!-- 10 -->
      <g transform="translate(183.750509 322.182437) scale(0.1 -0.1)">
       <defs>
        <path id="DejaVuSans-31" d="M 794 531 
L 1825 531 
L 1825 4091 
L 703 3866 
L 703 4441 
L 1819 4666 
L 2450 4666 
L 2450 531 
L 3481 531 
L 3481 0 
L 794 0 
L 794 531 
z
" transform="scale(0.015625)"/>
       </defs>
       <use xlink:href="#DejaVuSans-31"/>
       <use xlink:href="#DejaVuSans-30" x="63.623047"/>
      </g>
     </g>
    </g>
    <g id="xtick_4">
     <g id="line2d_7">
      <path d="M 248.253149 307.584 
L 248.253149 41.472 
" clip-path="url(#p5c71f54338)" style="fill: none; stroke: #b0b0b0; stroke-width: 0.8; stroke-linecap: square"/>
     </g>
     <g id="line2d_8">
      <g>
       <use xlink:href="#m4fbb64cc15" x="248.253149" y="307.584" style="stroke: #000000; stroke-width: 0.8"/>
      </g>
     </g>
     <g id="text_4">
      <!-- 15 -->
      <g transform="translate(241.890649 322.182437) scale(0.1 -0.1)">
       <use xlink:href="#DejaVuSans-31"/>
       <use xlink:href="#DejaVuSans-35" x="63.623047"/>
      </g>
     </g>
    </g>
    <g id="xtick_5">
     <g id="line2d_9">
      <path d="M 306.39329 307.584 
L 306.39329 41.472 
" clip-path="url(#p5c71f54338)" style="fill: none; stroke: #b0b0b0; stroke-width: 0.8; stroke-linecap: square"/>
     </g>
     <g id="line2d_10">
      <g>
       <use xlink:href="#m4fbb64cc15" x="306.39329" y="307.584" style="stroke: #000000; stroke-width: 0.8"/>
      </g>
     </g>
     <g id="text_5">
      <!-- 20 -->
      <g transform="translate(300.03079 322.182437) scale(0.1 -0.1)">
       <defs>
        <path id="DejaVuSans-32" d="M 1228 531 
L 3431 531 
L 3431 0 
L 469 0 
L 469 531 
Q 828 903 1448 1529 
Q 2069 2156 2228 2338 
Q 2531 2678 2651 2914 
Q 2772 3150 2772 3378 
Q 2772 3750 2511 3984 
Q 2250 4219 1831 4219 
Q 1534 4219 1204 4116 
Q 875 4013 500 3803 
L 500 4441 
Q 881 4594 1212 4672 
Q 1544 4750 1819 4750 
Q 2544 4750 2975 4387 
Q 3406 4025 3406 3419 
Q 3406 3131 3298 2873 
Q 3191 2616 2906 2266 
Q 2828 2175 2409 1742 
Q 1991 1309 1228 531 
z
" transform="scale(0.015625)"/>
       </defs>
       <use xlink:href="#DejaVuSans-32"/>
       <use xlink:href="#DejaVuSans-30" x="63.623047"/>
      </g>
     </g>
    </g>
    <g id="xtick_6">
     <g id="line2d_11">
      <path d="M 364.533431 307.584 
L 364.533431 41.472 
" clip-path="url(#p5c71f54338)" style="fill: none; stroke: #b0b0b0; stroke-width: 0.8; stroke-linecap: square"/>
     </g>
     <g id="line2d_12">
      <g>
       <use xlink:href="#m4fbb64cc15" x="364.533431" y="307.584" style="stroke: #000000; stroke-width: 0.8"/>
      </g>
     </g>
     <g id="text_6">
      <!-- 25 -->
      <g transform="translate(358.170931 322.182437) scale(0.1 -0.1)">
       <use xlink:href="#DejaVuSans-32"/>
       <use xlink:href="#DejaVuSans-35" x="63.623047"/>
      </g>
     </g>
    </g>
    <g id="text_7">
     <!-- Time(s) -->
     <g transform="translate(217.420156 335.860562) scale(0.1 -0.1)">
      <defs>
       <path id="DejaVuSans-54" d="M -19 4666 
L 3928 4666 
L 3928 4134 
L 2272 4134 
L 2272 0 
L 1638 0 
L 1638 4134 
L -19 4134 
L -19 4666 
z
" transform="scale(0.015625)"/>
       <path id="DejaVuSans-69" d="M 603 3500 
L 1178 3500 
L 1178 0 
L 603 0 
L 603 3500 
z
M 603 4863 
L 1178 4863 
L 1178 4134 
L 603 4134 
L 603 4863 
z
" transform="scale(0.015625)"/>
       <path id="DejaVuSans-6d" d="M 3328 2828 
Q 3544 3216 3844 3400 
Q 4144 3584 4550 3584 
Q 5097 3584 5394 3201 
Q 5691 2819 5691 2113 
L 5691 0 
L 5113 0 
L 5113 2094 
Q 5113 2597 4934 2840 
Q 4756 3084 4391 3084 
Q 3944 3084 3684 2787 
Q 3425 2491 3425 1978 
L 3425 0 
L 2847 0 
L 2847 2094 
Q 2847 2600 2669 2842 
Q 2491 3084 2119 3084 
Q 1678 3084 1418 2786 
Q 1159 2488 1159 1978 
L 1159 0 
L 581 0 
L 581 3500 
L 1159 3500 
L 1159 2956 
Q 1356 3278 1631 3431 
Q 1906 3584 2284 3584 
Q 2666 3584 2933 3390 
Q 3200 3197 3328 2828 
z
" transform="scale(0.015625)"/>
       <path id="DejaVuSans-65" d="M 3597 1894 
L 3597 1613 
L 953 1613 
Q 991 1019 1311 708 
Q 1631 397 2203 397 
Q 2534 397 2845 478 
Q 3156 559 3463 722 
L 3463 178 
Q 3153 47 2828 -22 
Q 2503 -91 2169 -91 
Q 1331 -91 842 396 
Q 353 884 353 1716 
Q 353 2575 817 3079 
Q 1281 3584 2069 3584 
Q 2775 3584 3186 3129 
Q 3597 2675 3597 1894 
z
M 3022 2063 
Q 3016 2534 2758 2815 
Q 2500 3097 2075 3097 
Q 1594 3097 1305 2825 
Q 1016 2553 972 2059 
L 3022 2063 
z
" transform="scale(0.015625)"/>
       <path id="DejaVuSans-28" d="M 1984 4856 
Q 1566 4138 1362 3434 
Q 1159 2731 1159 2009 
Q 1159 1288 1364 580 
Q 1569 -128 1984 -844 
L 1484 -844 
Q 1016 -109 783 600 
Q 550 1309 550 2009 
Q 550 2706 781 3412 
Q 1013 4119 1484 4856 
L 1984 4856 
z
" transform="scale(0.015625)"/>
       <path id="DejaVuSans-73" d="M 2834 3397 
L 2834 2853 
Q 2591 2978 2328 3040 
Q 2066 3103 1784 3103 
Q 1356 3103 1142 2972 
Q 928 2841 928 2578 
Q 928 2378 1081 2264 
Q 1234 2150 1697 2047 
L 1894 2003 
Q 2506 1872 2764 1633 
Q 3022 1394 3022 966 
Q 3022 478 2636 193 
Q 2250 -91 1575 -91 
Q 1294 -91 989 -36 
Q 684 19 347 128 
L 347 722 
Q 666 556 975 473 
Q 1284 391 1588 391 
Q 1994 391 2212 530 
Q 2431 669 2431 922 
Q 2431 1156 2273 1281 
Q 2116 1406 1581 1522 
L 1381 1569 
Q 847 1681 609 1914 
Q 372 2147 372 2553 
Q 372 3047 722 3315 
Q 1072 3584 1716 3584 
Q 2034 3584 2315 3537 
Q 2597 3491 2834 3397 
z
" transform="scale(0.015625)"/>
       <path id="DejaVuSans-29" d="M 513 4856 
L 1013 4856 
Q 1481 4119 1714 3412 
Q 1947 2706 1947 2009 
Q 1947 1309 1714 600 
Q 1481 -109 1013 -844 
L 513 -844 
Q 928 -128 1133 580 
Q 1338 1288 1338 2009 
Q 1338 2731 1133 3434 
Q 928 4138 513 4856 
z
" transform="scale(0.015625)"/>
      </defs>
      <use xlink:href="#DejaVuSans-54"/>
      <use xlink:href="#DejaVuSans-69" x="57.958984"/>
      <use xlink:href="#DejaVuSans-6d" x="85.742188"/>
      <use xlink:href="#DejaVuSans-65" x="183.154297"/>
      <use xlink:href="#DejaVuSans-28" x="244.677734"/>
      <use xlink:href="#DejaVuSans-73" x="283.691406"/>
      <use xlink:href="#DejaVuSans-29" x="335.791016"/>
     </g>
    </g>
   </g>
   <g id="matplotlib.axis_2">
    <g id="ytick_1">
     <g id="line2d_13">
      <path d="M 57.6 295.488 
L 414.72 295.488 
" clip-path="url(#p5c71f54338)" style="fill: none; stroke: #b0b0b0; stroke-width: 0.8; stroke-linecap: square"/>
     </g>
     <g id="line2d_14">
      <defs>
       <path id="mbcb270606b" d="M 0 0 
L -3.5 0 
" style="stroke: #000000; stroke-width: 0.8"/>
      </defs>
      <g>
       <use xlink:href="#mbcb270606b" x="57.6" y="295.488" style="stroke: #000000; stroke-width: 0.8"/>
      </g>
     </g>
     <g id="text_8">
      <!-- 0.00 -->
      <g transform="translate(28.334375 299.287219) scale(0.1 -0.1)">
       <defs>
        <path id="DejaVuSans-2e" d="M 684 794 
L 1344 794 
L 1344 0 
L 684 0 
L 684 794 
z
" transform="scale(0.015625)"/>
       </defs>
       <use xlink:href="#DejaVuSans-30"/>
       <use xlink:href="#DejaVuSans-2e" x="63.623047"/>
       <use xlink:href="#DejaVuSans-30" x="95.410156"/>
       <use xlink:href="#DejaVuSans-30" x="159.033203"/>
      </g>
     </g>
    </g>
    <g id="ytick_2">
     <g id="line2d_15">
      <path d="M 57.6 252.272566 
L 414.72 252.272566 
" clip-path="url(#p5c71f54338)" style="fill: none; stroke: #b0b0b0; stroke-width: 0.8; stroke-linecap: square"/>
     </g>
     <g id="line2d_16">
      <g>
       <use xlink:href="#mbcb270606b" x="57.6" y="252.272566" style="stroke: #000000; stroke-width: 0.8"/>
      </g>
     </g>
     <g id="text_9">
      <!-- 0.05 -->
      <g transform="translate(28.334375 256.071785) scale(0.1 -0.1)">
       <use xlink:href="#DejaVuSans-30"/>
       <use xlink:href="#DejaVuSans-2e" x="63.623047"/>
       <use xlink:href="#DejaVuSans-30" x="95.410156"/>
       <use xlink:href="#DejaVuSans-35" x="159.033203"/>
      </g>
     </g>
    </g>
    <g id="ytick_3">
     <g id="line2d_17">
      <path d="M 57.6 209.057132 
L 414.72 209.057132 
" clip-path="url(#p5c71f54338)" style="fill: none; stroke: #b0b0b0; stroke-width: 0.8; stroke-linecap: square"/>
     </g>
     <g id="line2d_18">
      <g>
       <use xlink:href="#mbcb270606b" x="57.6" y="209.057132" style="stroke: #000000; stroke-width: 0.8"/>
      </g>
     </g>
     <g id="text_10">
      <!-- 0.10 -->
      <g transform="translate(28.334375 212.856351) scale(0.1 -0.1)">
       <use xlink:href="#DejaVuSans-30"/>
       <use xlink:href="#DejaVuSans-2e" x="63.623047"/>
       <use xlink:href="#DejaVuSans-31" x="95.410156"/>
       <use xlink:href="#DejaVuSans-30" x="159.033203"/>
      </g>
     </g>
    </g>
    <g id="ytick_4">
     <g id="line2d_19">
      <path d="M 57.6 165.841698 
L 414.72 165.841698 
" clip-path="url(#p5c71f54338)" style="fill: none; stroke: #b0b0b0; stroke-width: 0.8; stroke-linecap: square"/>
     </g>
     <g id="line2d_20">
      <g>
       <use xlink:href="#mbcb270606b" x="57.6" y="165.841698" style="stroke: #000000; stroke-width: 0.8"/>
      </g>
     </g>
     <g id="text_11">
      <!-- 0.15 -->
      <g transform="translate(28.334375 169.640916) scale(0.1 -0.1)">
       <use xlink:href="#DejaVuSans-30"/>
       <use xlink:href="#DejaVuSans-2e" x="63.623047"/>
       <use xlink:href="#DejaVuSans-31" x="95.410156"/>
       <use xlink:href="#DejaVuSans-35" x="159.033203"/>
      </g>
     </g>
    </g>
    <g id="ytick_5">
     <g id="line2d_21">
      <path d="M 57.6 122.626264 
L 414.72 122.626264 
" clip-path="url(#p5c71f54338)" style="fill: none; stroke: #b0b0b0; stroke-width: 0.8; stroke-linecap: square"/>
     </g>
     <g id="line2d_22">
      <g>
       <use xlink:href="#mbcb270606b" x="57.6" y="122.626264" style="stroke: #000000; stroke-width: 0.8"/>
      </g>
     </g>
     <g id="text_12">
      <!-- 0.20 -->
      <g transform="translate(28.334375 126.425482) scale(0.1 -0.1)">
       <use xlink:href="#DejaVuSans-30"/>
       <use xlink:href="#DejaVuSans-2e" x="63.623047"/>
       <use xlink:href="#DejaVuSans-32" x="95.410156"/>
       <use xlink:href="#DejaVuSans-30" x="159.033203"/>
      </g>
     </g>
    </g>
    <g id="ytick_6">
     <g id="line2d_23">
      <path d="M 57.6 79.41083 
L 414.72 79.41083 
" clip-path="url(#p5c71f54338)" style="fill: none; stroke: #b0b0b0; stroke-width: 0.8; stroke-linecap: square"/>
     </g>
     <g id="line2d_24">
      <g>
       <use xlink:href="#mbcb270606b" x="57.6" y="79.41083" style="stroke: #000000; stroke-width: 0.8"/>
      </g>
     </g>
     <g id="text_13">
      <!-- 0.25 -->
      <g transform="translate(28.334375 83.210048) scale(0.1 -0.1)">
       <use xlink:href="#DejaVuSans-30"/>
       <use xlink:href="#DejaVuSans-2e" x="63.623047"/>
       <use xlink:href="#DejaVuSans-32" x="95.410156"/>
       <use xlink:href="#DejaVuSans-35" x="159.033203"/>
      </g>
     </g>
    </g>
    <g id="text_14">
     <!-- Tracking error(m) -->
     <g transform="translate(22.254687 217.803781) rotate(-90) scale(0.1 -0.1)">
      <defs>
       <path id="DejaVuSans-72" d="M 2631 2963 
Q 2534 3019 2420 3045 
Q 2306 3072 2169 3072 
Q 1681 3072 1420 2755 
Q 1159 2438 1159 1844 
L 1159 0 
L 581 0 
L 581 3500 
L 1159 3500 
L 1159 2956 
Q 1341 3275 1631 3429 
Q 1922 3584 2338 3584 
Q 2397 3584 2469 3576 
Q 2541 3569 2628 3553 
L 2631 2963 
z
" transform="scale(0.015625)"/>
       <path id="DejaVuSans-61" d="M 2194 1759 
Q 1497 1759 1228 1600 
Q 959 1441 959 1056 
Q 959 750 1161 570 
Q 1363 391 1709 391 
Q 2188 391 2477 730 
Q 2766 1069 2766 1631 
L 2766 1759 
L 2194 1759 
z
M 3341 1997 
L 3341 0 
L 2766 0 
L 2766 531 
Q 2569 213 2275 61 
Q 1981 -91 1556 -91 
Q 1019 -91 701 211 
Q 384 513 384 1019 
Q 384 1609 779 1909 
Q 1175 2209 1959 2209 
L 2766 2209 
L 2766 2266 
Q 2766 2663 2505 2880 
Q 2244 3097 1772 3097 
Q 1472 3097 1187 3025 
Q 903 2953 641 2809 
L 641 3341 
Q 956 3463 1253 3523 
Q 1550 3584 1831 3584 
Q 2591 3584 2966 3190 
Q 3341 2797 3341 1997 
z
" transform="scale(0.015625)"/>
       <path id="DejaVuSans-63" d="M 3122 3366 
L 3122 2828 
Q 2878 2963 2633 3030 
Q 2388 3097 2138 3097 
Q 1578 3097 1268 2742 
Q 959 2388 959 1747 
Q 959 1106 1268 751 
Q 1578 397 2138 397 
Q 2388 397 2633 464 
Q 2878 531 3122 666 
L 3122 134 
Q 2881 22 2623 -34 
Q 2366 -91 2075 -91 
Q 1284 -91 818 406 
Q 353 903 353 1747 
Q 353 2603 823 3093 
Q 1294 3584 2113 3584 
Q 2378 3584 2631 3529 
Q 2884 3475 3122 3366 
z
" transform="scale(0.015625)"/>
       <path id="DejaVuSans-6b" d="M 581 4863 
L 1159 4863 
L 1159 1991 
L 2875 3500 
L 3609 3500 
L 1753 1863 
L 3688 0 
L 2938 0 
L 1159 1709 
L 1159 0 
L 581 0 
L 581 4863 
z
" transform="scale(0.015625)"/>
       <path id="DejaVuSans-6e" d="M 3513 2113 
L 3513 0 
L 2938 0 
L 2938 2094 
Q 2938 2591 2744 2837 
Q 2550 3084 2163 3084 
Q 1697 3084 1428 2787 
Q 1159 2491 1159 1978 
L 1159 0 
L 581 0 
L 581 3500 
L 1159 3500 
L 1159 2956 
Q 1366 3272 1645 3428 
Q 1925 3584 2291 3584 
Q 2894 3584 3203 3211 
Q 3513 2838 3513 2113 
z
" transform="scale(0.015625)"/>
       <path id="DejaVuSans-67" d="M 2906 1791 
Q 2906 2416 2648 2759 
Q 2391 3103 1925 3103 
Q 1463 3103 1205 2759 
Q 947 2416 947 1791 
Q 947 1169 1205 825 
Q 1463 481 1925 481 
Q 2391 481 2648 825 
Q 2906 1169 2906 1791 
z
M 3481 434 
Q 3481 -459 3084 -895 
Q 2688 -1331 1869 -1331 
Q 1566 -1331 1297 -1286 
Q 1028 -1241 775 -1147 
L 775 -588 
Q 1028 -725 1275 -790 
Q 1522 -856 1778 -856 
Q 2344 -856 2625 -561 
Q 2906 -266 2906 331 
L 2906 616 
Q 2728 306 2450 153 
Q 2172 0 1784 0 
Q 1141 0 747 490 
Q 353 981 353 1791 
Q 353 2603 747 3093 
Q 1141 3584 1784 3584 
Q 2172 3584 2450 3431 
Q 2728 3278 2906 2969 
L 2906 3500 
L 3481 3500 
L 3481 434 
z
" transform="scale(0.015625)"/>
       <path id="DejaVuSans-20" transform="scale(0.015625)"/>
       <path id="DejaVuSans-6f" d="M 1959 3097 
Q 1497 3097 1228 2736 
Q 959 2375 959 1747 
Q 959 1119 1226 758 
Q 1494 397 1959 397 
Q 2419 397 2687 759 
Q 2956 1122 2956 1747 
Q 2956 2369 2687 2733 
Q 2419 3097 1959 3097 
z
M 1959 3584 
Q 2709 3584 3137 3096 
Q 3566 2609 3566 1747 
Q 3566 888 3137 398 
Q 2709 -91 1959 -91 
Q 1206 -91 779 398 
Q 353 888 353 1747 
Q 353 2609 779 3096 
Q 1206 3584 1959 3584 
z
" transform="scale(0.015625)"/>
      </defs>
      <use xlink:href="#DejaVuSans-54"/>
      <use xlink:href="#DejaVuSans-72" x="46.333984"/>
      <use xlink:href="#DejaVuSans-61" x="87.447266"/>
      <use xlink:href="#DejaVuSans-63" x="148.726562"/>
      <use xlink:href="#DejaVuSans-6b" x="203.707031"/>
      <use xlink:href="#DejaVuSans-69" x="261.617188"/>
      <use xlink:href="#DejaVuSans-6e" x="289.400391"/>
      <use xlink:href="#DejaVuSans-67" x="352.779297"/>
      <use xlink:href="#DejaVuSans-20" x="416.255859"/>
      <use xlink:href="#DejaVuSans-65" x="448.042969"/>
      <use xlink:href="#DejaVuSans-72" x="509.566406"/>
      <use xlink:href="#DejaVuSans-72" x="548.929688"/>
      <use xlink:href="#DejaVuSans-6f" x="587.792969"/>
      <use xlink:href="#DejaVuSans-72" x="648.974609"/>
      <use xlink:href="#DejaVuSans-28" x="690.087891"/>
      <use xlink:href="#DejaVuSans-6d" x="729.101562"/>
      <use xlink:href="#DejaVuSans-29" x="826.513672"/>
     </g>
    </g>
   </g>
   <g id="line2d_25">
    <path d="M 73.832727 251.699529 
L 74.065288 291.878647 
L 74.065288 291.878647 
L 74.76297 190.86257 
L 74.76297 190.86257 
L 75.228091 147.34117 
L 75.228091 147.34117 
L 75.693212 123.188064 
L 75.693212 123.188064 
L 75.925772 117.276193 
L 75.925772 117.276193 
L 76.158333 115.266675 
L 76.158333 115.266675 
L 76.390893 116.895033 
L 76.856015 128.761127 
L 76.856015 128.761127 
L 77.553696 158.690408 
L 77.553696 158.690408 
L 78.716499 210.179869 
L 78.716499 210.179869 
L 79.646741 239.103095 
L 79.646741 239.103095 
L 80.576984 261.545734 
L 80.576984 261.545734 
L 81.507226 281.461999 
L 81.507226 281.461999 
L 82.204908 293.214004 
L 82.204908 293.214004 
L 82.437468 295.078318 
L 82.437468 295.078318 
L 83.13515 291.695414 
L 83.13515 291.695414 
L 83.36771 291.607254 
L 83.36771 291.607254 
L 83.832831 294.304761 
L 83.832831 294.304761 
L 84.065392 295.259823 
L 84.065392 295.259823 
L 84.530513 291.994464 
L 84.530513 291.994464 
L 84.995634 287.230395 
L 84.995634 287.230395 
L 86.856119 274.73422 
L 86.856119 274.73422 
L 87.32124 269.537132 
L 87.32124 269.537132 
L 88.018922 262.986536 
L 88.018922 262.986536 
L 88.484043 257.461011 
L 88.484043 257.461011 
L 89.181724 252.344304 
L 89.181724 252.344304 
L 89.414285 251.743609 
L 89.414285 251.743609 
L 89.646846 251.928571 
L 89.879406 252.768679 
L 89.879406 252.768679 
L 90.111967 252.764358 
L 90.111967 252.764358 
L 90.577088 255.934642 
L 90.577088 255.934642 
L 90.809648 258.168015 
L 90.809648 258.168015 
L 91.042209 259.13777 
L 91.042209 259.13777 
L 91.739891 264.927774 
L 91.739891 264.927774 
L 91.972451 265.05137 
L 91.972451 265.05137 
L 92.437572 267.168926 
L 92.437572 267.168926 
L 92.670133 266.511187 
L 92.670133 266.511187 
L 92.902693 266.648612 
L 92.902693 266.648612 
L 93.135254 266.946799 
L 93.367815 267.486127 
L 93.367815 267.486127 
L 93.600375 266.045325 
L 93.600375 266.045325 
L 93.832936 266.394505 
L 93.832936 266.394505 
L 94.065496 267.306351 
L 94.065496 267.306351 
L 94.298057 266.523287 
L 94.298057 266.523287 
L 94.530617 267.750606 
L 94.530617 267.750606 
L 94.763178 269.779138 
L 94.763178 269.779138 
L 94.995738 269.849147 
L 94.995738 269.849147 
L 95.925981 277.792144 
L 95.925981 277.792144 
L 96.158541 281.131833 
L 96.391102 281.455949 
L 96.391102 281.455949 
L 96.623662 284.233837 
L 96.623662 284.233837 
L 96.856223 285.021222 
L 96.856223 285.021222 
L 97.321344 289.37388 
L 97.321344 289.37388 
L 97.553905 289.05495 
L 97.553905 289.05495 
L 98.019026 292.078302 
L 98.019026 292.078302 
L 98.251586 290.220903 
L 98.251586 290.220903 
L 98.484147 295.488 
L 98.484147 295.488 
L 98.949268 287.551053 
L 98.949268 287.551053 
L 99.414389 285.941711 
L 99.414389 285.941711 
L 99.64695 280.428286 
L 99.64695 280.428286 
L 100.112071 276.763617 
L 100.112071 276.763617 
L 100.344631 270.544051 
L 100.344631 270.544051 
L 100.577192 268.171524 
L 100.577192 268.171524 
L 101.042313 260.434233 
L 101.042313 260.434233 
L 101.274874 258.473981 
L 101.274874 258.473981 
L 101.507434 254.011555 
L 101.507434 254.011555 
L 101.972555 250.870657 
L 101.972555 250.870657 
L 102.205116 247.036584 
L 102.205116 247.036584 
L 102.670237 244.906927 
L 102.670237 244.906927 
L 102.902798 241.50328 
L 102.902798 241.50328 
L 103.367919 239.895666 
L 103.367919 239.895666 
L 103.600479 236.758225 
L 103.600479 236.758225 
L 104.0656 235.162711 
L 104.0656 235.162711 
L 104.298161 232.26987 
L 104.298161 232.26987 
L 104.763282 230.630277 
L 104.763282 230.630277 
L 104.995843 228.203298 
L 104.995843 228.203298 
L 105.460964 226.992401 
L 105.460964 226.992401 
L 105.693524 225.466896 
L 105.693524 225.466896 
L 105.926085 225.312185 
L 105.926085 225.312185 
L 106.158645 225.382194 
L 106.158645 225.382194 
L 106.391206 225.061536 
L 106.623767 225.624201 
L 106.623767 225.624201 
L 107.088888 227.351954 
L 107.088888 227.351954 
L 107.786569 232.462611 
L 107.786569 232.462611 
L 108.484251 240.648478 
L 108.484251 240.648478 
L 109.181933 252.376283 
L 109.181933 252.376283 
L 111.274978 289.959017 
L 111.274978 289.959017 
L 111.740099 295.468121 
L 111.740099 295.468121 
L 112.902902 285.381639 
L 112.902902 285.381639 
L 113.833144 278.876851 
L 113.833144 278.876851 
L 114.298265 276.633106 
L 114.298265 276.633106 
L 114.530826 276.03414 
L 114.530826 276.03414 
L 114.763386 275.775712 
L 114.763386 275.775712 
L 114.995947 275.836214 
L 114.995947 275.836214 
L 115.228507 276.129214 
L 115.228507 276.129214 
L 115.461068 276.662493 
L 115.461068 276.662493 
L 116.39131 280.614112 
L 116.39131 280.614112 
L 117.554113 285.15519 
L 117.554113 285.15519 
L 118.251795 288.204471 
L 118.251795 288.204471 
L 118.484355 295.488 
L 118.484355 295.488 
L 118.716916 290.976309 
L 118.716916 290.976309 
L 119.414598 295.476764 
L 119.414598 295.476764 
L 119.647158 295.488 
L 119.647158 295.488 
L 119.879719 292.802593 
L 119.879719 292.802593 
L 120.34484 291.206215 
L 120.34484 291.206215 
L 120.5774 290.694544 
L 120.5774 290.694544 
L 120.809961 295.488 
L 120.809961 295.488 
L 121.042521 290.347092 
L 121.042521 290.347092 
L 121.275082 290.515632 
L 121.740203 291.707514 
L 121.740203 291.707514 
L 121.972764 295.488 
L 121.972764 295.488 
L 122.205324 292.76197 
L 122.205324 292.76197 
L 122.903006 293.793955 
L 122.903006 293.793955 
L 123.135567 295.488 
L 123.135567 295.488 
L 123.368127 294.304761 
L 123.368127 294.304761 
L 123.600688 294.63752 
L 123.600688 294.63752 
L 123.833248 295.236486 
L 123.833248 295.236486 
L 124.065809 295.146598 
L 124.065809 295.146598 
L 124.298369 295.488 
L 124.298369 295.488 
L 124.53093 293.889893 
L 125.228612 291.711835 
L 125.228612 291.711835 
L 125.461172 295.488 
L 125.461172 295.488 
L 125.693733 290.659972 
L 125.693733 290.659972 
L 126.158854 290.160401 
L 126.158854 290.160401 
L 126.391414 290.198431 
L 126.391414 290.198431 
L 126.623975 295.488 
L 126.623975 295.488 
L 126.856536 290.370428 
L 126.856536 290.370428 
L 127.089096 290.446487 
L 127.089096 290.446487 
L 127.554217 290.154351 
L 127.554217 290.154351 
L 127.786778 295.488 
L 127.786778 295.488 
L 128.019338 289.14916 
L 128.019338 289.14916 
L 129.182141 285.359167 
L 129.182141 285.359167 
L 129.414702 285.099874 
L 129.414702 285.099874 
L 129.879823 286.311635 
L 129.879823 286.311635 
L 130.344944 288.457713 
L 130.344944 288.457713 
L 131.042626 292.544165 
L 131.042626 292.544165 
L 131.275186 295.488 
L 131.275186 295.488 
L 131.507747 294.615048 
L 131.507747 294.615048 
L 131.740307 295.329832 
L 131.740307 295.329832 
L 131.972868 295.114619 
L 131.972868 295.114619 
L 132.437989 294.380821 
L 132.437989 294.380821 
L 133.135671 293.761976 
L 133.135671 293.761976 
L 133.368231 295.488 
L 133.368231 295.488 
L 133.600792 292.785307 
L 133.600792 292.785307 
L 133.833352 292.022986 
L 133.833352 292.022986 
L 134.298474 289.47414 
L 134.298474 289.47414 
L 136.391519 275.206132 
L 136.391519 275.206132 
L 136.624079 274.705698 
L 136.624079 274.705698 
L 137.0892 271.153389 
L 137.0892 271.153389 
L 137.321761 271.467133 
L 137.321761 271.467133 
L 137.554321 269.624427 
L 137.554321 269.624427 
L 137.786882 269.568247 
L 137.786882 269.568247 
L 138.019443 268.147323 
L 138.019443 268.147323 
L 138.252003 265.643421 
L 138.252003 265.643421 
L 138.484564 266.484394 
L 138.484564 266.484394 
L 138.717124 263.933819 
L 138.717124 263.933819 
L 138.949685 264.092851 
L 138.949685 264.092851 
L 139.182245 261.225075 
L 139.182245 261.225075 
L 139.414806 260.496463 
L 139.414806 260.496463 
L 139.879927 252.976977 
L 139.879927 252.976977 
L 140.112488 253.200833 
L 140.112488 253.200833 
L 140.345048 248.601847 
L 140.345048 248.601847 
L 140.577609 248.289832 
L 140.577609 248.289832 
L 140.810169 243.907786 
L 140.810169 243.907786 
L 141.04273 243.362408 
L 141.04273 243.362408 
L 141.27529 239.423753 
L 141.27529 239.423753 
L 141.507851 238.872324 
L 141.507851 238.872324 
L 141.740412 235.778963 
L 141.740412 235.778963 
L 141.972972 235.734884 
L 141.972972 235.734884 
L 142.205533 233.886127 
L 142.205533 233.886127 
L 142.438093 230.885248 
L 142.438093 230.885248 
L 142.670654 234.366683 
L 142.670654 234.366683 
L 142.903214 233.252589 
L 142.903214 233.252589 
L 143.135775 238.259529 
L 143.135775 238.259529 
L 143.368336 239.301886 
L 143.368336 239.301886 
L 143.600896 245.974349 
L 143.600896 245.974349 
L 143.833457 248.748779 
L 143.833457 248.748779 
L 144.066017 256.257029 
L 144.066017 256.257029 
L 144.298578 259.712535 
L 144.298578 259.712535 
L 144.531138 266.930377 
L 144.531138 266.930377 
L 144.763699 269.943357 
L 144.763699 269.943357 
L 144.996259 276.156008 
L 144.996259 276.156008 
L 145.22882 278.44124 
L 145.22882 278.44124 
L 145.461381 283.436944 
L 145.461381 283.436944 
L 145.693941 284.678956 
L 145.693941 284.678956 
L 145.926502 288.273615 
L 145.926502 288.273615 
L 146.159062 288.352268 
L 146.159062 288.352268 
L 146.391623 290.483653 
L 146.391623 290.483653 
L 146.624183 289.923581 
L 146.624183 289.923581 
L 146.856744 291.402413 
L 146.856744 291.402413 
L 147.089305 290.625399 
L 147.089305 290.625399 
L 147.321865 291.792216 
L 147.321865 291.792216 
L 147.554426 295.488 
L 147.554426 295.488 
L 147.786986 292.483663 
L 147.786986 292.483663 
L 148.019547 295.488 
L 148.019547 295.488 
L 148.252107 295.373911 
L 148.252107 295.373911 
L 148.484668 295.488 
L 148.484668 295.488 
L 148.717228 294.570104 
L 148.717228 294.570104 
L 148.949789 295.488 
L 148.949789 295.488 
L 149.18235 291.027303 
L 149.18235 291.027303 
L 149.41491 284.002202 
L 149.647471 286.358307 
L 149.647471 286.358307 
L 149.880031 280.667699 
L 149.880031 280.667699 
L 150.112592 284.264087 
L 150.345152 280.312468 
L 150.345152 280.312468 
L 150.577713 285.222606 
L 150.577713 285.222606 
L 150.810274 282.837978 
L 150.810274 282.837978 
L 151.042834 288.524265 
L 151.042834 288.524265 
L 151.275395 286.812069 
L 151.275395 286.812069 
L 151.507955 292.033358 
L 151.507955 292.033358 
L 151.740516 289.883823 
L 151.740516 289.883823 
L 151.973076 293.752468 
L 151.973076 293.752468 
L 152.205637 290.3808 
L 152.205637 290.3808 
L 152.438197 292.070523 
L 152.438197 292.070523 
L 152.670758 286.990117 
L 152.670758 286.990117 
L 152.903319 286.940851 
L 152.903319 286.940851 
L 153.135879 281.331488 
L 153.135879 281.331488 
L 153.36844 280.325433 
L 153.36844 280.325433 
L 153.601 275.007341 
L 153.601 275.007341 
L 153.833561 273.943377 
L 153.833561 273.943377 
L 154.066121 269.51466 
L 154.066121 269.51466 
L 154.298682 268.724682 
L 154.298682 268.724682 
L 154.531243 265.356471 
L 154.531243 265.356471 
L 154.763803 264.628723 
L 154.763803 264.628723 
L 154.996364 262.003817 
L 154.996364 262.003817 
L 155.228924 260.965783 
L 155.228924 260.965783 
L 156.624288 246.326986 
L 156.624288 246.326986 
L 157.55453 233.187766 
L 157.55453 233.187766 
L 157.78709 232.278513 
L 157.78709 232.278513 
L 158.019651 229.583599 
L 158.019651 229.583599 
L 158.252212 229.223182 
L 158.484772 227.737435 
L 158.484772 227.737435 
L 158.717333 225.379601 
L 158.717333 225.379601 
L 158.949893 227.673477 
L 158.949893 227.673477 
L 159.182454 226.808304 
L 159.182454 226.808304 
L 159.415014 229.455681 
L 159.415014 229.455681 
L 159.647575 230.054647 
L 159.647575 230.054647 
L 159.880135 229.428887 
L 159.880135 229.428887 
L 160.112696 234.562881 
L 160.112696 234.562881 
L 160.345257 234.937127 
L 160.345257 234.937127 
L 160.577817 239.446225 
L 160.577817 239.446225 
L 160.810378 240.940615 
L 160.810378 240.940615 
L 161.042938 240.944936 
L 161.275499 247.473924 
L 161.275499 247.473924 
L 161.508059 248.581968 
L 161.508059 248.581968 
L 161.74062 254.714238 
L 161.74062 254.714238 
L 161.973181 257.022806 
L 161.973181 257.022806 
L 162.438302 267.179298 
L 162.438302 267.179298 
L 162.670862 270.707406 
L 162.670862 270.707406 
L 163.135983 283.347056 
L 163.135983 283.347056 
L 163.368544 289.454261 
L 163.368544 289.454261 
L 163.601104 292.606395 
L 163.601104 292.606395 
L 163.833665 293.787905 
L 163.833665 293.787905 
L 164.066226 293.693695 
L 164.066226 293.693695 
L 164.298786 294.324641 
L 164.298786 294.324641 
L 164.531347 292.954711 
L 164.531347 292.954711 
L 164.763907 294.961636 
L 164.763907 294.961636 
L 165.229028 295.488 
L 165.229028 295.488 
L 165.461589 289.838878 
L 165.461589 289.838878 
L 165.69415 290.513039 
L 165.69415 290.513039 
L 165.92671 287.916656 
L 165.92671 287.916656 
L 166.159271 288.975434 
L 166.159271 288.975434 
L 166.391831 287.834547 
L 166.391831 287.834547 
L 166.624392 289.46204 
L 166.624392 289.46204 
L 166.856952 289.915802 
L 166.856952 289.915802 
L 167.089513 289.916666 
L 167.089513 289.916666 
L 167.322073 294.10597 
L 167.322073 294.10597 
L 167.554634 295.239079 
L 167.554634 295.239079 
L 168.019755 287.79911 
L 168.019755 287.79911 
L 168.252316 285.238163 
L 168.252316 285.238163 
L 168.717437 276.044512 
L 168.717437 276.044512 
L 169.182558 266.662441 
L 169.182558 266.662441 
L 170.810482 241.651077 
L 170.810482 241.651077 
L 171.275603 239.863686 
L 171.275603 239.863686 
L 171.508164 240.045191 
L 171.508164 240.045191 
L 171.973285 243.494647 
L 171.973285 243.494647 
L 172.438406 249.492085 
L 172.438406 249.492085 
L 174.531451 281.411869 
L 174.531451 281.411869 
L 175.229133 287.553646 
L 175.229133 287.553646 
L 175.926814 291.778387 
L 175.926814 291.778387 
L 176.391935 294.666042 
L 176.391935 294.666042 
L 176.624496 294.767167 
L 176.624496 294.767167 
L 177.554738 285.644388 
L 177.554738 285.644388 
L 178.717541 271.460219 
L 178.717541 271.460219 
L 179.182662 267.260543 
L 179.182662 267.260543 
L 179.880344 256.442855 
L 179.880344 256.442855 
L 180.112904 254.906114 
L 180.112904 254.906114 
L 180.345465 248.652841 
L 180.345465 248.652841 
L 180.578026 247.736674 
L 180.578026 247.736674 
L 180.810586 239.72799 
L 180.810586 239.72799 
L 181.043147 239.563771 
L 181.043147 239.563771 
L 181.275707 237.30274 
L 181.275707 237.30274 
L 181.508268 229.865363 
L 181.508268 229.865363 
L 181.740828 228.01315 
L 181.973389 219.209302 
L 181.973389 219.209302 
L 182.205949 218.77369 
L 182.205949 218.77369 
L 182.43851 216.519573 
L 182.43851 216.519573 
L 182.671071 210.013057 
L 182.671071 210.013057 
L 182.903631 209.567074 
L 182.903631 209.567074 
L 183.136192 202.58346 
L 183.136192 202.58346 
L 183.368752 204.109829 
L 183.368752 204.109829 
L 183.601313 203.62063 
L 183.601313 203.62063 
L 183.833873 198.88249 
L 183.833873 198.88249 
L 184.066434 199.808165 
L 184.066434 199.808165 
L 184.298995 193.421788 
L 184.531555 194.877284 
L 184.531555 194.877284 
L 184.764116 193.756275 
L 184.764116 193.756275 
L 184.996676 187.611905 
L 184.996676 187.611905 
L 185.229237 186.877242 
L 185.229237 186.877242 
L 185.461797 178.279964 
L 185.461797 178.279964 
L 185.694358 178.984376 
L 185.694358 178.984376 
L 185.926918 177.034495 
L 185.926918 177.034495 
L 186.159479 169.699107 
L 186.159479 169.699107 
L 186.39204 169.288561 
L 186.39204 169.288561 
L 186.6246 159.555581 
L 186.6246 159.555581 
L 186.857161 162.182215 
L 186.857161 162.182215 
L 187.089721 151.017075 
L 187.089721 151.017075 
L 187.322282 156.544329 
L 187.322282 156.544329 
L 187.554842 158.383578 
L 187.554842 158.383578 
L 187.787403 151.953122 
L 188.019964 154.895228 
L 188.019964 154.895228 
L 188.252524 147.694673 
L 188.252524 147.694673 
L 188.485085 152.148455 
L 188.485085 152.148455 
L 188.717645 153.519249 
L 188.950206 149.826058 
L 188.950206 149.826058 
L 189.182766 152.247851 
L 189.182766 152.247851 
L 189.415327 147.882228 
L 189.415327 147.882228 
L 189.647887 152.837309 
L 189.647887 152.837309 
L 189.880448 148.581453 
L 189.880448 148.581453 
L 190.345569 160.112195 
L 190.345569 160.112195 
L 190.57813 159.257394 
L 190.57813 159.257394 
L 190.81069 165.413001 
L 190.81069 165.413001 
L 191.043251 163.480406 
L 191.043251 163.480406 
L 191.508372 174.981762 
L 191.508372 174.981762 
L 191.740933 174.364646 
L 191.740933 174.364646 
L 191.973493 179.347385 
L 191.973493 179.347385 
L 192.206054 177.539251 
L 192.206054 177.539251 
L 192.671175 187.977507 
L 192.671175 187.977507 
L 192.903735 188.877253 
L 192.903735 188.877253 
L 193.136296 194.459823 
L 193.136296 194.459823 
L 193.368856 195.503043 
L 193.368856 195.503043 
L 193.601417 202.830652 
L 193.601417 202.830652 
L 193.833978 204.942158 
L 193.833978 204.942158 
L 194.299099 221.152268 
L 194.299099 221.152268 
L 194.531659 226.329477 
L 194.531659 226.329477 
L 195.694462 265.144715 
L 195.694462 265.144715 
L 196.624704 294.997937 
L 196.624704 294.997937 
L 196.857265 289.879501 
L 196.857265 289.879501 
L 197.322386 276.593348 
L 197.322386 276.593348 
L 198.020068 258.409158 
L 198.020068 258.409158 
L 198.252628 249.016715 
L 198.252628 249.016715 
L 198.485189 245.747035 
L 198.485189 245.747035 
L 198.717749 240.899992 
L 198.717749 240.899992 
L 198.95031 231.156641 
L 198.95031 231.156641 
L 199.415431 221.083987 
L 199.415431 221.083987 
L 199.647992 211.630179 
L 199.647992 211.630179 
L 199.880552 207.499648 
L 199.880552 207.499648 
L 200.113113 196.872108 
L 200.113113 196.872108 
L 200.345673 196.34488 
L 200.345673 196.34488 
L 200.578234 194.605026 
L 200.578234 194.605026 
L 200.810794 186.666351 
L 200.810794 186.666351 
L 201.043355 187.987015 
L 201.043355 187.987015 
L 201.275916 187.872926 
L 201.275916 187.872926 
L 201.508476 182.050078 
L 201.508476 182.050078 
L 201.741037 183.539282 
L 201.741037 183.539282 
L 201.973597 182.330979 
L 201.973597 182.330979 
L 202.206158 176.179694 
L 202.206158 176.179694 
L 202.438718 175.948059 
L 202.438718 175.948059 
L 202.671279 168.584149 
L 202.671279 168.584149 
L 202.90384 166.129513 
L 202.90384 166.129513 
L 203.1364 160.419889 
L 203.1364 160.419889 
L 203.368961 145.223614 
L 203.368961 145.223614 
L 203.834082 126.19413 
L 203.834082 126.19413 
L 204.066642 102.781736 
L 204.066642 102.781736 
L 204.531763 84.734107 
L 204.531763 84.734107 
L 204.764324 68.784154 
L 204.764324 68.784154 
L 204.996885 64.439275 
L 204.996885 64.439275 
L 205.229445 53.799635 
L 205.229445 53.799635 
L 205.462006 57.353672 
L 205.462006 57.353672 
L 205.694566 53.568 
L 205.694566 53.568 
L 205.927127 63.208499 
L 205.927127 63.208499 
L 206.159687 62.618176 
L 206.159687 62.618176 
L 206.392248 76.447115 
L 206.392248 76.447115 
L 206.624809 76.694307 
L 206.624809 76.694307 
L 207.08993 108.377271 
L 207.08993 108.377271 
L 207.32249 115.237289 
L 207.555051 132.898572 
L 207.555051 132.898572 
L 207.787611 138.424962 
L 207.787611 138.424962 
L 208.252732 173.680113 
L 208.252732 173.680113 
L 208.485293 181.429505 
L 208.485293 181.429505 
L 208.950414 206.007851 
L 208.950414 206.007851 
L 209.182975 210.093438 
L 209.182975 210.093438 
L 209.415535 217.332887 
L 209.415535 217.332887 
L 209.648096 215.785775 
L 209.648096 215.785775 
L 209.880656 220.071017 
L 209.880656 220.071017 
L 210.113217 221.363159 
L 210.113217 221.363159 
L 210.345778 216.013952 
L 210.345778 216.013952 
L 210.578338 216.287938 
L 210.578338 216.287938 
L 210.810899 215.102971 
L 210.810899 215.102971 
L 211.043459 210.112453 
L 211.043459 210.112453 
L 211.50858 211.60425 
L 211.50858 211.60425 
L 211.741141 211.149623 
L 211.741141 211.149623 
L 212.438823 225.376144 
L 212.438823 225.376144 
L 214.066747 280.814632 
L 214.066747 280.814632 
L 214.299307 295.488 
L 214.299307 295.488 
L 214.531868 293.984967 
L 214.531868 293.984967 
L 214.996989 284.009116 
L 214.996989 284.009116 
L 215.46211 271.04535 
L 215.46211 271.04535 
L 216.159792 250.326143 
L 216.159792 250.326143 
L 216.392352 239.607851 
L 216.392352 239.607851 
L 216.624913 235.734884 
L 216.624913 235.734884 
L 216.857473 222.592206 
L 216.857473 222.592206 
L 217.090034 220.955205 
L 217.090034 220.955205 
L 217.322594 216.871347 
L 217.322594 216.871347 
L 217.555155 205.679414 
L 217.555155 205.679414 
L 217.787716 202.761507 
L 217.787716 202.761507 
L 218.020276 189.157289 
L 218.020276 189.157289 
L 218.252837 187.422621 
L 218.485397 182.807213 
L 218.485397 182.807213 
L 218.717958 170.217693 
L 218.717958 170.217693 
L 218.950518 166.964435 
L 218.950518 166.964435 
L 219.183079 152.520108 
L 219.183079 152.520108 
L 219.415639 151.760381 
L 219.415639 151.760381 
L 219.6482 148.624669 
L 219.6482 148.624669 
L 219.880761 138.03343 
L 219.880761 138.03343 
L 220.113321 137.856247 
L 220.113321 137.856247 
L 220.345882 126.718765 
L 220.345882 126.718765 
L 220.578442 130.163035 
L 220.811003 131.033394 
L 220.811003 131.033394 
L 221.043563 124.902853 
L 221.043563 124.902853 
L 221.276124 128.180311 
L 221.276124 128.180311 
L 221.508685 120.759357 
L 221.508685 120.759357 
L 221.741245 126.249446 
L 221.741245 126.249446 
L 221.973806 128.18809 
L 221.973806 128.18809 
L 222.206366 123.697142 
L 222.206366 123.697142 
L 222.438927 126.562325 
L 222.438927 126.562325 
L 222.671487 120.262379 
L 222.671487 120.262379 
L 222.904048 124.662575 
L 222.904048 124.662575 
L 223.136608 117.462019 
L 223.136608 117.462019 
L 223.60173 129.590863 
L 223.60173 129.590863 
L 223.83429 128.201919 
L 223.83429 128.201919 
L 224.066851 135.94526 
L 224.066851 135.94526 
L 224.299411 134.104283 
L 224.299411 134.104283 
L 224.764532 149.580594 
L 224.764532 149.580594 
L 224.997093 149.181284 
L 224.997093 149.181284 
L 225.229654 154.915107 
L 225.229654 154.915107 
L 225.462214 152.896082 
L 225.462214 152.896082 
L 225.694775 157.258248 
L 225.694775 157.258248 
L 225.927335 158.968715 
L 225.927335 158.968715 
L 226.159896 153.973875 
L 226.159896 153.973875 
L 226.392456 154.623835 
L 226.625017 153.125124 
L 226.625017 153.125124 
L 226.857577 146.991125 
L 226.857577 146.991125 
L 227.090138 147.762089 
L 227.090138 147.762089 
L 227.322699 141.729214 
L 227.322699 141.729214 
L 227.78782 151.826932 
L 227.78782 151.826932 
L 228.02038 152.482078 
L 228.02038 152.482078 
L 228.252941 160.860687 
L 228.252941 160.860687 
L 228.485501 161.351614 
L 228.485501 161.351614 
L 228.950623 179.292934 
L 228.950623 179.292934 
L 229.183183 180.357762 
L 229.183183 180.357762 
L 229.415744 187.478801 
L 229.415744 187.478801 
L 229.648304 185.139982 
L 229.648304 185.139982 
L 229.880865 191.240273 
L 229.880865 191.240273 
L 230.113425 194.195344 
L 230.113425 194.195344 
L 230.345986 190.963694 
L 230.345986 190.963694 
L 230.578546 193.564399 
L 230.578546 193.564399 
L 230.811107 188.557459 
L 230.811107 188.557459 
L 231.276228 194.627498 
L 231.276228 194.627498 
L 231.508789 193.564399 
L 231.508789 193.564399 
L 231.741349 198.403663 
L 231.741349 198.403663 
L 231.97391 199.153019 
L 231.97391 199.153019 
L 232.904152 225.444424 
L 232.904152 225.444424 
L 233.601834 243.982117 
L 233.601834 243.982117 
L 234.066955 256.7929 
L 234.066955 256.7929 
L 234.997197 271.622709 
L 234.997197 271.622709 
L 235.229758 273.257981 
L 235.229758 273.257981 
L 235.462318 276.576062 
L 235.462318 276.576062 
L 235.694879 277.866475 
L 235.694879 277.866475 
L 235.927439 281.040216 
L 235.927439 281.040216 
L 236.16 282.26667 
L 236.16 282.26667 
L 236.392561 285.444733 
L 236.392561 285.444733 
L 236.625121 286.616736 
L 236.625121 286.616736 
L 236.857682 295.488 
L 236.857682 295.488 
L 237.090242 290.736031 
L 237.090242 290.736031 
L 237.322803 295.488 
L 237.322803 295.488 
L 237.555363 294.221788 
L 237.555363 294.221788 
L 237.787924 295.488 
L 237.787924 295.488 
L 238.253045 292.314259 
L 238.253045 292.314259 
L 238.485606 292.130161 
L 238.718166 291.191522 
L 238.718166 291.191522 
L 238.950727 291.326354 
L 238.950727 291.326354 
L 239.183287 290.653922 
L 239.183287 290.653922 
L 239.415848 290.797397 
L 239.415848 290.797397 
L 239.648408 290.22436 
L 239.648408 290.22436 
L 239.880969 295.488 
L 239.880969 295.488 
L 240.11353 290.194109 
L 240.11353 290.194109 
L 240.34609 288.928761 
L 240.34609 288.928761 
L 240.578651 288.427462 
L 240.578651 288.427462 
L 241.043772 286.283113 
L 241.043772 286.283113 
L 241.276332 285.715262 
L 241.276332 285.715262 
L 241.508893 284.090361 
L 241.974014 282.980589 
L 241.974014 282.980589 
L 242.206575 281.476692 
L 242.206575 281.476692 
L 242.439135 281.111089 
L 242.439135 281.111089 
L 242.671696 280.226037 
L 242.671696 280.226037 
L 242.904256 279.976252 
L 242.904256 279.976252 
L 243.369377 280.217394 
L 243.369377 280.217394 
L 243.601938 279.177631 
L 243.601938 279.177631 
L 244.067059 278.479269 
L 244.067059 278.479269 
L 244.53218 275.776576 
L 244.53218 275.776576 
L 244.997301 273.348733 
L 244.997301 273.348733 
L 245.462423 269.20783 
L 245.462423 269.20783 
L 247.090346 258.078992 
L 247.090346 258.078992 
L 248.020589 254.34345 
L 248.020589 254.34345 
L 248.48571 251.097106 
L 248.48571 251.097106 
L 249.648513 245.633811 
L 249.648513 245.633811 
L 249.881073 245.295002 
L 249.881073 245.295002 
L 250.113634 245.365875 
L 250.346194 244.720237 
L 250.346194 244.720237 
L 250.578755 244.906927 
L 250.578755 244.906927 
L 251.043876 245.955334 
L 251.043876 245.955334 
L 251.276437 246.71074 
L 251.276437 246.71074 
L 251.508997 246.478241 
L 251.508997 246.478241 
L 251.974118 247.226732 
L 251.974118 247.226732 
L 252.206679 247.412558 
L 252.439239 247.39095 
L 252.439239 247.39095 
L 252.904361 245.279444 
L 252.904361 245.279444 
L 253.602042 242.980383 
L 253.602042 242.980383 
L 253.834603 241.199043 
L 253.834603 241.199043 
L 254.299724 240.005433 
L 254.299724 240.005433 
L 254.532284 239.989875 
L 254.532284 239.989875 
L 254.764845 240.247439 
L 254.764845 240.247439 
L 254.997406 239.67181 
L 254.997406 239.67181 
L 255.229966 240.186073 
L 255.229966 240.186073 
L 255.695087 242.027915 
L 255.695087 242.027915 
L 255.927648 243.249183 
L 255.927648 243.249183 
L 256.160208 243.472175 
L 256.160208 243.472175 
L 257.090451 247.49121 
L 257.090451 247.49121 
L 257.323011 247.158451 
L 257.323011 247.158451 
L 257.555572 247.418608 
L 257.555572 247.418608 
L 257.788132 247.480839 
L 257.788132 247.480839 
L 258.253253 247.218953 
L 258.253253 247.218953 
L 258.485814 246.041765 
L 258.485814 246.041765 
L 258.718375 245.737528 
L 258.718375 245.737528 
L 258.950935 245.624304 
L 258.950935 245.624304 
L 259.183496 245.799758 
L 259.183496 245.799758 
L 259.416056 246.340815 
L 259.416056 246.340815 
L 259.648617 246.001142 
L 259.648617 246.001142 
L 260.113738 247.719388 
L 260.113738 247.719388 
L 261.741662 257.020214 
L 261.741662 257.020214 
L 261.974222 257.187025 
L 261.974222 257.187025 
L 262.439344 258.687465 
L 262.439344 258.687465 
L 262.671904 259.10579 
L 262.671904 259.10579 
L 262.904465 259.281245 
L 262.904465 259.281245 
L 263.137025 258.155915 
L 263.137025 258.155915 
L 263.834707 257.532749 
L 263.834707 257.532749 
L 264.067268 256.647696 
L 264.067268 256.647696 
L 264.299828 256.589788 
L 264.299828 256.589788 
L 264.532389 256.868959 
L 264.532389 256.868959 
L 264.99751 258.020219 
L 264.99751 258.020219 
L 265.23007 257.897487 
L 265.23007 257.897487 
L 266.160313 260.779956 
L 266.160313 260.779956 
L 266.392873 260.294215 
L 266.392873 260.294215 
L 266.625434 260.260507 
L 266.625434 260.260507 
L 266.857994 259.955406 
L 266.857994 259.955406 
L 267.090555 259.319275 
L 267.090555 259.319275 
L 267.323115 258.339149 
L 267.323115 258.339149 
L 267.788237 254.593235 
L 267.788237 254.593235 
L 268.951039 247.076342 
L 268.951039 247.076342 
L 269.41616 245.893968 
L 269.41616 245.893968 
L 269.648721 245.794572 
L 269.648721 245.794572 
L 269.881282 245.12819 
L 269.881282 245.12819 
L 270.113842 245.348589 
L 270.113842 245.348589 
L 270.578963 246.542199 
L 270.578963 246.542199 
L 270.811524 247.420337 
L 270.811524 247.420337 
L 271.044084 247.619992 
L 271.044084 247.619992 
L 272.672008 253.059087 
L 272.672008 253.059087 
L 273.137129 254.607928 
L 273.137129 254.607928 
L 273.36969 254.77474 
L 273.36969 254.77474 
L 274.067372 256.82488 
L 274.067372 256.82488 
L 274.299932 257.642516 
L 274.299932 257.642516 
L 274.532493 258.015033 
L 274.532493 258.015033 
L 274.997614 259.867246 
L 274.997614 259.867246 
L 275.695296 262.841332 
L 275.695296 262.841332 
L 276.392977 265.064334 
L 276.392977 265.064334 
L 277.090659 266.370305 
L 277.090659 266.370305 
L 278.253462 267.805057 
L 278.253462 267.805057 
L 278.486022 267.688376 
L 278.486022 267.688376 
L 278.951144 266.966678 
L 278.951144 266.966678 
L 279.416265 269.25796 
L 279.416265 269.25796 
L 279.881386 272.300327 
L 279.881386 272.300327 
L 280.113946 274.686683 
L 280.113946 274.686683 
L 281.044189 294.524296 
L 281.044189 294.524296 
L 281.50931 278.196641 
L 281.50931 278.196641 
L 283.369794 214.79787 
L 283.369794 214.79787 
L 283.602355 210.285314 
L 283.602355 210.285314 
L 284.532597 182.365551 
L 284.532597 182.365551 
L 284.997718 170.693927 
L 284.997718 170.693927 
L 285.230279 167.839979 
L 285.230279 167.839979 
L 285.462839 166.73885 
L 285.462839 166.73885 
L 286.160521 184.481379 
L 286.160521 184.481379 
L 287.090763 237.745266 
L 287.090763 237.745266 
L 287.555884 279.933037 
L 287.555884 279.933037 
L 287.788445 290.652193 
L 287.788445 290.652193 
L 288.253566 250.148959 
L 288.253566 250.148959 
L 288.718687 226.620749 
L 288.718687 226.620749 
L 288.951248 220.862724 
L 288.951248 220.862724 
L 289.183808 218.3303 
L 289.183808 218.3303 
L 289.416369 217.902467 
L 289.416369 217.902467 
L 289.648929 214.432268 
L 289.648929 214.432268 
L 290.114051 212.673399 
L 290.114051 212.673399 
L 290.579172 205.794367 
L 290.579172 205.794367 
L 290.811732 203.438261 
L 290.811732 203.438261 
L 291.276853 195.71307 
L 291.276853 195.71307 
L 291.509414 193.49439 
L 291.509414 193.49439 
L 291.741974 190.178902 
L 291.974535 188.613639 
L 291.974535 188.613639 
L 292.207096 187.91182 
L 292.207096 187.91182 
L 292.439656 188.06826 
L 292.439656 188.06826 
L 292.672217 188.504736 
L 292.672217 188.504736 
L 293.137338 193.586871 
L 293.137338 193.586871 
L 294.532701 216.7296 
L 294.532701 216.7296 
L 294.997822 220.440077 
L 294.997822 220.440077 
L 295.462943 223.270688 
L 295.462943 223.270688 
L 296.160625 228.80745 
L 296.160625 228.80745 
L 296.393186 231.411612 
L 296.393186 231.411612 
L 297.323428 250.657173 
L 297.323428 250.657173 
L 298.718791 292.736041 
L 298.718791 292.736041 
L 298.951352 291.853582 
L 298.951352 291.853582 
L 299.881594 271.569986 
L 299.881594 271.569986 
L 300.579276 263.684033 
L 300.579276 263.684033 
L 300.811836 262.824911 
L 300.811836 262.824911 
L 301.044397 262.792931 
L 301.044397 262.792931 
L 301.276958 262.146428 
L 301.276958 262.146428 
L 301.509518 263.032345 
L 301.509518 263.032345 
L 301.742079 264.691817 
L 301.742079 264.691817 
L 301.974639 265.204352 
L 301.974639 265.204352 
L 302.43976 268.934709 
L 302.43976 268.934709 
L 302.672321 269.244131 
L 302.672321 269.244131 
L 303.137442 272.238961 
L 303.137442 272.238961 
L 303.370003 271.787792 
L 303.370003 271.787792 
L 303.602563 272.617528 
L 303.602563 272.617528 
L 303.835124 273.917448 
L 303.835124 273.917448 
L 304.067684 273.224273 
L 304.067684 273.224273 
L 304.300245 274.498264 
L 304.300245 274.498264 
L 304.532805 274.719527 
L 304.532805 274.719527 
L 304.765366 276.30294 
L 304.765366 276.30294 
L 304.997927 278.812028 
L 304.997927 278.812028 
L 305.230487 279.906243 
L 305.230487 279.906243 
L 306.39329 294.913235 
L 306.39329 294.913235 
L 307.788653 267.715169 
L 307.788653 267.715169 
L 308.021214 264.747997 
L 308.021214 264.747997 
L 308.486335 255.935506 
L 308.486335 255.935506 
L 308.951456 247.273405 
L 308.951456 247.273405 
L 309.416577 236.493747 
L 309.416577 236.493747 
L 309.649138 236.220625 
L 309.649138 236.220625 
L 309.881698 231.28283 
L 309.881698 231.28283 
L 310.114259 231.955262 
L 310.114259 231.955262 
L 310.346819 228.934503 
L 310.346819 228.934503 
L 310.57938 231.077124 
L 310.57938 231.077124 
L 310.811941 230.829932 
L 310.811941 230.829932 
L 311.044501 229.749546 
L 311.044501 229.749546 
L 311.277062 236.267298 
L 311.277062 236.267298 
L 311.509622 237.294961 
L 311.509622 237.294961 
L 311.742183 244.382292 
L 311.742183 244.382292 
L 311.974743 246.577636 
L 311.974743 246.577636 
L 312.207304 253.470498 
L 312.207304 253.470498 
L 312.439865 256.461006 
L 312.439865 256.461006 
L 312.672425 262.671928 
L 312.672425 262.671928 
L 312.904986 265.76356 
L 312.904986 265.76356 
L 313.137546 266.924327 
L 313.137546 266.924327 
L 313.370107 273.749772 
L 313.602667 274.460234 
L 313.602667 274.460234 
L 313.835228 279.658186 
L 313.835228 279.658186 
L 314.067788 279.963287 
L 314.067788 279.963287 
L 314.300349 283.797361 
L 314.300349 283.797361 
L 314.53291 283.684136 
L 314.53291 283.684136 
L 314.76547 286.495732 
L 314.76547 286.495732 
L 314.998031 286.59945 
L 314.998031 286.59945 
L 315.230591 288.941726 
L 315.230591 288.941726 
L 315.463152 289.458583 
L 315.463152 289.458583 
L 315.695712 288.907154 
L 315.695712 288.907154 
L 315.928273 292.443041 
L 315.928273 292.443041 
L 316.160834 292.437855 
L 316.160834 292.437855 
L 316.393394 295.392062 
L 316.393394 295.392062 
L 316.625955 294.763709 
L 316.625955 294.763709 
L 316.858515 291.939149 
L 316.858515 291.939149 
L 317.091076 295.488 
L 317.556197 286.314228 
L 317.556197 286.314228 
L 317.788757 285.076538 
L 317.788757 285.076538 
L 318.021318 281.77315 
L 318.021318 281.77315 
L 318.253879 280.165536 
L 318.253879 280.165536 
L 318.719 275.611493 
L 318.719 275.611493 
L 318.95156 274.294287 
L 318.95156 274.294287 
L 319.184121 271.837922 
L 319.184121 271.837922 
L 319.416681 270.767043 
L 319.416681 270.767043 
L 319.881803 268.185353 
L 319.881803 268.185353 
L 320.114363 267.5328 
L 320.114363 267.5328 
L 320.346924 266.392777 
L 320.346924 266.392777 
L 321.044605 264.984818 
L 321.044605 264.984818 
L 321.277166 264.841343 
L 321.509726 264.843071 
L 321.509726 264.843071 
L 321.742287 264.442896 
L 321.742287 264.442896 
L 322.207408 264.606251 
L 322.207408 264.606251 
L 322.439969 264.286457 
L 322.439969 264.286457 
L 322.90509 264.36943 
L 322.90509 264.36943 
L 323.13765 264.041857 
L 323.13765 264.041857 
L 323.602772 263.964934 
L 323.602772 263.964934 
L 323.835332 264.024571 
L 323.835332 264.024571 
L 324.067893 263.899246 
L 324.067893 263.899246 
L 324.300453 264.104087 
L 324.300453 264.104087 
L 324.998135 265.384993 
L 324.998135 265.384993 
L 325.463256 266.998657 
L 325.463256 266.998657 
L 325.928377 268.603678 
L 325.928377 268.603678 
L 326.858619 271.940774 
L 326.858619 271.940774 
L 327.09118 271.582086 
L 327.323741 271.639995 
L 327.323741 271.639995 
L 327.556301 271.505163 
L 327.556301 271.505163 
L 327.788862 271.19574 
L 327.788862 271.19574 
L 328.486543 268.123123 
L 328.486543 268.123123 
L 328.951664 264.820599 
L 328.951664 264.820599 
L 330.114467 255.79981 
L 330.114467 255.79981 
L 330.347028 255.72375 
L 330.347028 255.72375 
L 330.579588 255.265667 
L 330.579588 255.265667 
L 330.812149 255.218994 
L 330.812149 255.218994 
L 331.04471 255.613983 
L 331.04471 255.613983 
L 331.27727 256.469649 
L 331.27727 256.469649 
L 332.440073 275.517284 
L 332.440073 275.517284 
L 332.905194 291.746408 
L 332.905194 291.746408 
L 333.137755 291.484522 
L 333.137755 291.484522 
L 334.300557 255.579411 
L 334.300557 255.579411 
L 334.765679 248.116105 
L 334.765679 248.116105 
L 334.998239 245.636404 
L 334.998239 245.636404 
L 335.46336 244.116949 
L 335.46336 244.116949 
L 335.695921 242.991619 
L 335.695921 242.991619 
L 335.928481 244.04694 
L 335.928481 244.04694 
L 336.161042 243.431552 
L 336.161042 243.431552 
L 336.393603 244.124728 
L 336.393603 244.124728 
L 336.626163 243.477361 
L 336.626163 243.477361 
L 336.858724 241.645026 
L 336.858724 241.645026 
L 337.091284 241.997664 
L 337.323845 240.144586 
L 337.323845 240.144586 
L 337.556405 237.229273 
L 337.556405 237.229273 
L 337.788966 238.524872 
L 337.788966 238.524872 
L 338.021526 237.20248 
L 338.021526 237.20248 
L 338.254087 235.196419 
L 338.254087 235.196419 
L 338.486648 240.000247 
L 338.486648 240.000247 
L 338.719208 240.415115 
L 338.719208 240.415115 
L 339.184329 249.328731 
L 339.184329 249.328731 
L 339.41689 252.421227 
L 339.41689 252.421227 
L 339.882011 265.504268 
L 339.882011 265.504268 
L 340.347132 278.143053 
L 340.347132 278.143053 
L 340.579693 281.928725 
L 340.579693 281.928725 
L 340.812253 288.797386 
L 340.812253 288.797386 
L 341.277374 294.430086 
L 341.277374 294.430086 
L 341.509935 292.027308 
L 341.509935 292.027308 
L 341.742495 290.914943 
L 341.742495 290.914943 
L 341.975056 286.902822 
L 341.975056 286.902822 
L 342.207617 285.84923 
L 342.207617 285.84923 
L 342.440177 286.005669 
L 342.440177 286.005669 
L 342.672738 282.041086 
L 342.672738 282.041086 
L 342.905298 281.698819 
L 343.137859 278.583851 
L 343.137859 278.583851 
L 343.370419 277.681513 
L 343.370419 277.681513 
L 343.60298 277.619282 
L 343.60298 277.619282 
L 343.835541 273.776566 
L 343.835541 273.776566 
L 344.068101 273.322804 
L 344.068101 273.322804 
L 344.300662 270.488736 
L 344.300662 270.488736 
L 344.533222 269.738516 
L 344.533222 269.738516 
L 344.765783 269.879398 
L 344.998343 266.874197 
L 344.998343 266.874197 
L 345.230904 266.87074 
L 345.230904 266.87074 
L 345.463464 265.044455 
L 345.463464 265.044455 
L 345.696025 265.030626 
L 345.696025 265.030626 
L 345.928586 265.96408 
L 345.928586 265.96408 
L 346.161146 264.332265 
L 346.161146 264.332265 
L 346.393707 264.967532 
L 346.393707 264.967532 
L 346.626267 266.311532 
L 346.626267 266.311532 
L 346.858828 264.699596 
L 346.858828 264.699596 
L 347.091388 265.926914 
L 347.091388 265.926914 
L 347.323949 265.409194 
L 347.323949 265.409194 
L 347.55651 266.665898 
L 347.55651 266.665898 
L 347.78907 268.590714 
L 347.78907 268.590714 
L 348.021631 268.162017 
L 348.021631 268.162017 
L 348.254191 270.148198 
L 348.254191 270.148198 
L 348.486752 270.65814 
L 348.486752 270.65814 
L 349.882115 284.392869 
L 349.882115 284.392869 
L 350.114676 285.2857 
L 350.114676 285.2857 
L 350.347236 287.608098 
L 350.347236 287.608098 
L 350.579797 287.841461 
L 350.579797 287.841461 
L 350.812357 289.202747 
L 350.812357 289.202747 
L 351.510039 286.865657 
L 351.510039 286.865657 
L 352.207721 279.807712 
L 352.207721 279.807712 
L 352.440281 276.720401 
L 352.440281 276.720401 
L 352.905402 265.417837 
L 352.905402 265.417837 
L 353.370524 249.444548 
L 353.370524 249.444548 
L 353.835645 229.338135 
L 353.835645 229.338135 
L 354.068205 220.383033 
L 354.068205 220.383033 
L 354.300766 206.697569 
L 354.300766 206.697569 
L 354.533326 201.275761 
L 354.533326 201.275761 
L 354.765887 187.194444 
L 354.765887 187.194444 
L 354.998448 185.660296 
L 354.998448 185.660296 
L 355.231008 171.925567 
L 355.231008 171.925567 
L 355.463569 173.34044 
L 355.463569 173.34044 
L 355.696129 171.738012 
L 355.696129 171.738012 
L 355.92869 161.839949 
L 355.92869 161.839949 
L 356.16125 161.603992 
L 356.16125 161.603992 
L 356.393811 150.348965 
L 356.393811 150.348965 
L 356.626371 151.738773 
L 356.626371 151.738773 
L 356.858932 150.461325 
L 356.858932 150.461325 
L 357.091493 141.533016 
L 357.091493 141.533016 
L 357.324053 141.961713 
L 357.324053 141.961713 
L 357.556614 131.83893 
L 357.556614 131.83893 
L 357.789174 134.781901 
L 357.789174 134.781901 
L 358.021735 135.372224 
L 358.021735 135.372224 
L 358.254295 127.967691 
L 358.254295 127.967691 
L 358.486856 130.831146 
L 358.486856 130.831146 
L 358.719417 131.13884 
L 358.719417 131.13884 
L 358.951977 126.216602 
L 358.951977 126.216602 
L 359.184538 128.0377 
L 359.417098 120.972841 
L 359.417098 120.972841 
L 359.649659 125.50009 
L 359.649659 125.50009 
L 359.882219 127.384283 
L 359.882219 127.384283 
L 360.11478 123.514773 
L 360.11478 123.514773 
L 360.34734 126.829397 
L 360.579901 121.121502 
L 360.579901 121.121502 
L 360.812462 125.955581 
L 360.812462 125.955581 
L 361.045022 127.602953 
L 361.277583 122.982359 
L 361.277583 122.982359 
L 361.510143 125.182889 
L 361.510143 125.182889 
L 361.742704 117.872566 
L 361.742704 117.872566 
L 361.975264 121.505255 
L 361.975264 121.505255 
L 362.207825 122.188923 
L 362.207825 122.188923 
L 362.440386 116.879475 
L 362.672946 119.128406 
L 362.672946 119.128406 
L 362.905507 112.357412 
L 362.905507 112.357412 
L 363.138067 117.047151 
L 363.138067 117.047151 
L 363.370628 119.026418 
L 363.370628 119.026418 
L 363.603188 115.352242 
L 363.603188 115.352242 
L 363.835749 119.434372 
L 363.835749 119.434372 
L 364.068309 114.539792 
L 364.068309 114.539792 
L 364.533431 124.994469 
L 364.533431 124.994469 
L 364.765991 125.035956 
L 364.765991 125.035956 
L 364.998552 133.27714 
L 364.998552 133.27714 
L 365.231112 134.555452 
L 365.231112 134.555452 
L 365.463673 146.766405 
L 365.463673 146.766405 
L 365.696233 150.208947 
L 365.696233 150.208947 
L 366.161355 175.873729 
L 366.161355 175.873729 
L 366.393915 182.575578 
L 366.393915 182.575578 
L 366.859036 202.535923 
L 366.859036 202.535923 
L 368.021839 233.796239 
L 368.021839 233.796239 
L 370.114884 277.101561 
L 370.114884 277.101561 
L 370.580005 282.510405 
L 370.580005 282.510405 
L 371.045126 285.210505 
L 371.045126 285.210505 
L 371.277687 285.697111 
L 371.277687 285.697111 
L 371.510247 285.264093 
L 371.510247 285.264093 
L 371.742808 285.11716 
L 371.742808 285.11716 
L 371.975369 283.743774 
L 371.975369 283.743774 
L 372.207929 283.526832 
L 372.207929 283.526832 
L 372.44049 281.509536 
L 372.44049 281.509536 
L 372.67305 281.820687 
L 372.67305 281.820687 
L 372.905611 279.968473 
L 373.138171 281.140476 
L 373.138171 281.140476 
L 373.370732 279.63485 
L 373.370732 279.63485 
L 373.603293 281.998734 
L 373.603293 281.998734 
L 373.835853 281.345317 
L 373.835853 281.345317 
L 374.068414 285.16729 
L 374.068414 285.16729 
L 374.300974 285.365217 
L 374.533535 289.806899 
L 374.533535 289.806899 
L 374.766095 289.412774 
L 374.766095 289.412774 
L 374.998656 292.817286 
L 374.998656 292.817286 
L 375.231216 290.935686 
L 375.463777 292.518235 
L 375.463777 292.518235 
L 375.696338 288.741206 
L 375.696338 288.741206 
L 375.928898 288.472406 
L 375.928898 288.472406 
L 376.161459 282.953795 
L 376.161459 282.953795 
L 376.394019 281.150848 
L 376.62658 274.7783 
L 376.85914 272.034984 
L 376.85914 272.034984 
L 377.091701 265.142122 
L 377.324262 262.240638 
L 377.324262 262.240638 
L 377.556822 256.317531 
L 377.556822 256.317531 
L 377.789383 254.511125 
L 378.021943 250.486904 
L 378.021943 250.486904 
L 378.254504 250.959681 
L 378.487064 250.20514 
L 378.487064 250.20514 
L 378.719625 248.836075 
L 378.719625 248.836075 
L 378.952185 257.311486 
L 378.952185 257.311486 
L 379.184746 259.313224 
L 379.184746 259.313224 
L 379.417307 270.80853 
L 379.417307 270.80853 
L 379.649867 275.175017 
L 379.649867 275.175017 
L 379.882428 289.033343 
L 379.882428 289.033343 
L 380.114988 294.898541 
L 380.114988 294.898541 
L 380.347549 282.152581 
L 380.347549 282.152581 
L 380.580109 275.882886 
L 380.580109 275.882886 
L 380.81267 264.084208 
L 380.81267 264.084208 
L 381.045231 259.156785 
L 381.045231 259.156785 
L 381.277791 250.60445 
L 381.277791 250.60445 
L 381.510352 247.781618 
L 381.510352 247.781618 
L 381.742912 242.862837 
L 381.742912 242.862837 
L 381.975473 241.901726 
L 381.975473 241.901726 
L 382.208033 239.390045 
L 382.208033 239.390045 
L 382.440594 239.016664 
L 382.440594 239.016664 
L 382.673154 237.727979 
L 382.673154 237.727979 
L 382.905715 237.168772 
L 382.905715 237.168772 
L 383.138276 235.829093 
L 383.138276 235.829093 
L 383.370836 235.992448 
L 383.370836 235.992448 
L 383.603397 234.724507 
L 383.835957 236.261248 
L 383.835957 236.261248 
L 384.068518 236.699452 
L 384.068518 236.699452 
L 384.7662 244.282032 
L 384.7662 244.282032 
L 385.929002 269.626156 
L 385.929002 269.626156 
L 386.859245 293.941752 
L 386.859245 293.941752 
L 387.091805 295.488 
L 387.091805 295.488 
L 387.324366 285.615866 
L 387.324366 285.615866 
L 388.022047 272.204388 
L 388.022047 272.204388 
L 388.719729 265.33832 
L 388.719729 265.33832 
L 388.95229 264.274356 
L 388.95229 264.274356 
L 389.417411 266.071254 
L 389.417411 266.071254 
L 389.882532 270.063496 
L 389.882532 270.063496 
L 391.277895 293.122387 
L 391.277895 293.122387 
L 392.905819 258.276918 
L 392.905819 258.276918 
L 393.603501 248.049554 
L 393.603501 248.049554 
L 394.068622 243.461803 
L 394.068622 243.461803 
L 394.301183 241.994207 
L 394.301183 241.994207 
L 394.533743 241.494637 
L 394.533743 241.494637 
L 394.766304 241.294981 
L 394.766304 241.294981 
L 394.998864 241.654534 
L 394.998864 241.654534 
L 395.231425 242.575887 
L 395.231425 242.575887 
L 395.463985 244.063362 
L 395.463985 244.063362 
L 396.161667 254.771282 
L 396.161667 254.771282 
L 396.626788 265.864684 
L 396.626788 265.864684 
L 397.55703 292.552808 
L 397.55703 292.552808 
L 397.789591 286.715267 
L 397.789591 286.715267 
L 398.254712 254.076378 
L 398.254712 254.076378 
L 398.487273 214.567964 
L 398.487273 214.567964 
" clip-path="url(#p5c71f54338)" style="fill: none; stroke: #1f77b4; stroke-width: 1.5; stroke-linecap: square"/>
   </g>
   <g id="patch_3">
    <path d="M 57.6 307.584 
L 57.6 41.472 
" style="fill: none; stroke: #000000; stroke-width: 0.8; stroke-linejoin: miter; stroke-linecap: square"/>
   </g>
   <g id="patch_4">
    <path d="M 414.72 307.584 
L 414.72 41.472 
" style="fill: none; stroke: #000000; stroke-width: 0.8; stroke-linejoin: miter; stroke-linecap: square"/>
   </g>
   <g id="patch_5">
    <path d="M 57.6 307.584 
L 414.72 307.584 
" style="fill: none; stroke: #000000; stroke-width: 0.8; stroke-linejoin: miter; stroke-linecap: square"/>
   </g>
   <g id="patch_6">
    <path d="M 57.6 41.472 
L 414.72 41.472 
" style="fill: none; stroke: #000000; stroke-width: 0.8; stroke-linejoin: miter; stroke-linecap: square"/>
   </g>
   <g id="text_15">
    <!-- Tracking error vs Time -->
    <g transform="translate(169.584375 35.472) scale(0.12 -0.12)">
     <defs>
      <path id="DejaVuSans-76" d="M 191 3500 
L 800 3500 
L 1894 563 
L 2988 3500 
L 3597 3500 
L 2284 0 
L 1503 0 
L 191 3500 
z
" transform="scale(0.015625)"/>
     </defs>
     <use xlink:href="#DejaVuSans-54"/>
     <use xlink:href="#DejaVuSans-72" x="46.333984"/>
     <use xlink:href="#DejaVuSans-61" x="87.447266"/>
     <use xlink:href="#DejaVuSans-63" x="148.726562"/>
     <use xlink:href="#DejaVuSans-6b" x="203.707031"/>
     <use xlink:href="#DejaVuSans-69" x="261.617188"/>
     <use xlink:href="#DejaVuSans-6e" x="289.400391"/>
     <use xlink:href="#DejaVuSans-67" x="352.779297"/>
     <use xlink:href="#DejaVuSans-20" x="416.255859"/>
     <use xlink:href="#DejaVuSans-65" x="448.042969"/>
     <use xlink:href="#DejaVuSans-72" x="509.566406"/>
     <use xlink:href="#DejaVuSans-72" x="548.929688"/>
     <use xlink:href="#DejaVuSans-6f" x="587.792969"/>
     <use xlink:href="#DejaVuSans-72" x="648.974609"/>
     <use xlink:href="#DejaVuSans-20" x="690.087891"/>
     <use xlink:href="#DejaVuSans-76" x="721.875"/>
     <use xlink:href="#DejaVuSans-73" x="781.054688"/>
     <use xlink:href="#DejaVuSans-20" x="833.154297"/>
     <use xlink:href="#DejaVuSans-54" x="864.941406"/>
     <use xlink:href="#DejaVuSans-69" x="922.900391"/>
     <use xlink:href="#DejaVuSans-6d" x="950.683594"/>
     <use xlink:href="#DejaVuSans-65" x="1048.095703"/>
    </g>
   </g>
   <g id="legend_1">
    <g id="patch_7">
     <path d="M 311.00125 64.150125 
L 407.72 64.150125 
Q 409.72 64.150125 409.72 62.150125 
L 409.72 48.472 
Q 409.72 46.472 407.72 46.472 
L 311.00125 46.472 
Q 309.00125 46.472 309.00125 48.472 
L 309.00125 62.150125 
Q 309.00125 64.150125 311.00125 64.150125 
z
" style="fill: #ffffff; opacity: 0.8; stroke: #cccccc; stroke-linejoin: miter"/>
    </g>
    <g id="line2d_26">
     <path d="M 313.00125 54.570438 
L 323.00125 54.570438 
L 333.00125 54.570438 
" style="fill: none; stroke: #1f77b4; stroke-width: 1.5; stroke-linecap: square"/>
    </g>
    <g id="text_16">
     <!-- Actual speed -->
     <g transform="translate(341.00125 58.070438) scale(0.1 -0.1)">
      <defs>
       <path id="DejaVuSans-41" d="M 2188 4044 
L 1331 1722 
L 3047 1722 
L 2188 4044 
z
M 1831 4666 
L 2547 4666 
L 4325 0 
L 3669 0 
L 3244 1197 
L 1141 1197 
L 716 0 
L 50 0 
L 1831 4666 
z
" transform="scale(0.015625)"/>
       <path id="DejaVuSans-74" d="M 1172 4494 
L 1172 3500 
L 2356 3500 
L 2356 3053 
L 1172 3053 
L 1172 1153 
Q 1172 725 1289 603 
Q 1406 481 1766 481 
L 2356 481 
L 2356 0 
L 1766 0 
Q 1100 0 847 248 
Q 594 497 594 1153 
L 594 3053 
L 172 3053 
L 172 3500 
L 594 3500 
L 594 4494 
L 1172 4494 
z
" transform="scale(0.015625)"/>
       <path id="DejaVuSans-75" d="M 544 1381 
L 544 3500 
L 1119 3500 
L 1119 1403 
Q 1119 906 1312 657 
Q 1506 409 1894 409 
Q 2359 409 2629 706 
Q 2900 1003 2900 1516 
L 2900 3500 
L 3475 3500 
L 3475 0 
L 2900 0 
L 2900 538 
Q 2691 219 2414 64 
Q 2138 -91 1772 -91 
Q 1169 -91 856 284 
Q 544 659 544 1381 
z
M 1991 3584 
L 1991 3584 
z
" transform="scale(0.015625)"/>
       <path id="DejaVuSans-6c" d="M 603 4863 
L 1178 4863 
L 1178 0 
L 603 0 
L 603 4863 
z
" transform="scale(0.015625)"/>
       <path id="DejaVuSans-70" d="M 1159 525 
L 1159 -1331 
L 581 -1331 
L 581 3500 
L 1159 3500 
L 1159 2969 
Q 1341 3281 1617 3432 
Q 1894 3584 2278 3584 
Q 2916 3584 3314 3078 
Q 3713 2572 3713 1747 
Q 3713 922 3314 415 
Q 2916 -91 2278 -91 
Q 1894 -91 1617 61 
Q 1341 213 1159 525 
z
M 3116 1747 
Q 3116 2381 2855 2742 
Q 2594 3103 2138 3103 
Q 1681 3103 1420 2742 
Q 1159 2381 1159 1747 
Q 1159 1113 1420 752 
Q 1681 391 2138 391 
Q 2594 391 2855 752 
Q 3116 1113 3116 1747 
z
" transform="scale(0.015625)"/>
       <path id="DejaVuSans-64" d="M 2906 2969 
L 2906 4863 
L 3481 4863 
L 3481 0 
L 2906 0 
L 2906 525 
Q 2725 213 2448 61 
Q 2172 -91 1784 -91 
Q 1150 -91 751 415 
Q 353 922 353 1747 
Q 353 2572 751 3078 
Q 1150 3584 1784 3584 
Q 2172 3584 2448 3432 
Q 2725 3281 2906 2969 
z
M 947 1747 
Q 947 1113 1208 752 
Q 1469 391 1925 391 
Q 2381 391 2643 752 
Q 2906 1113 2906 1747 
Q 2906 2381 2643 2742 
Q 2381 3103 1925 3103 
Q 1469 3103 1208 2742 
Q 947 2381 947 1747 
z
" transform="scale(0.015625)"/>
      </defs>
      <use xlink:href="#DejaVuSans-41"/>
      <use xlink:href="#DejaVuSans-63" x="66.658203"/>
      <use xlink:href="#DejaVuSans-74" x="121.638672"/>
      <use xlink:href="#DejaVuSans-75" x="160.847656"/>
      <use xlink:href="#DejaVuSans-61" x="224.226562"/>
      <use xlink:href="#DejaVuSans-6c" x="285.505859"/>
      <use xlink:href="#DejaVuSans-20" x="313.289062"/>
      <use xlink:href="#DejaVuSans-73" x="345.076172"/>
      <use xlink:href="#DejaVuSans-70" x="397.175781"/>
      <use xlink:href="#DejaVuSans-65" x="460.652344"/>
      <use xlink:href="#DejaVuSans-65" x="522.175781"/>
      <use xlink:href="#DejaVuSans-64" x="583.699219"/>
     </g>
    </g>
   </g>
  </g>
 </g>
 <defs>
  <clipPath id="p5c71f54338">
   <rect x="57.6" y="41.472" width="357.12" height="266.112"/>
  </clipPath>
 </defs>
</svg>
