<?xml version="1.0" encoding="utf-8" standalone="no"?>
<!DOCTYPE svg PUBLIC "-//W3C//DTD SVG 1.1//EN"
  "http://www.w3.org/Graphics/SVG/1.1/DTD/svg11.dtd">
<svg xmlns:xlink="http://www.w3.org/1999/xlink" width="460.8pt" height="345.6pt" viewBox="0 0 460.8 345.6" xmlns="http://www.w3.org/2000/svg" version="1.1">
 <metadata>
  <rdf:RDF xmlns:dc="http://purl.org/dc/elements/1.1/" xmlns:cc="http://creativecommons.org/ns#" xmlns:rdf="http://www.w3.org/1999/02/22-rdf-syntax-ns#">
   <cc:Work>
    <dc:type rdf:resource="http://purl.org/dc/dcmitype/StillImage"/>
    <dc:date>2024-01-30T20:59:03.280383</dc:date>
    <dc:format>image/svg+xml</dc:format>
    <dc:creator>
     <cc:Agent>
      <dc:title>Matplotlib v3.7.1, https://matplotlib.org/</dc:title>
     </cc:Agent>
    </dc:creator>
   </cc:Work>
  </rdf:RDF>
 </metadata>
 <defs>
  <style type="text/css">*{stroke-linejoin: round; stroke-linecap: butt}</style>
 </defs>
 <g id="figure_1">
  <g id="patch_1">
   <path d="M 0 345.6 
L 460.8 345.6 
L 460.8 0 
L 0 0 
z
" style="fill: #ffffff"/>
  </g>
  <g id="axes_1">
   <g id="patch_2">
    <path d="M 57.6 307.584 
L 414.72 307.584 
L 414.72 41.472 
L 57.6 41.472 
z
" style="fill: #ffffff"/>
   </g>
   <g id="matplotlib.axis_1">
    <g id="xtick_1">
     <g id="line2d_1">
      <path d="M 73.832727 307.584 
L 73.832727 41.472 
" clip-path="url(#pacce4612eb)" style="fill: none; stroke: #b0b0b0; stroke-width: 0.8; stroke-linecap: square"/>
     </g>
     <g id="line2d_2">
      <defs>
       <path id="m00de88ca9b" d="M 0 0 
L 0 3.5 
" style="stroke: #000000; stroke-width: 0.8"/>
      </defs>
      <g>
       <use xlink:href="#m00de88ca9b" x="73.832727" y="307.584" style="stroke: #000000; stroke-width: 0.8"/>
      </g>
     </g>
     <g id="text_1">
      <!-- 0 -->
      <g transform="translate(70.651477 322.182437) scale(0.1 -0.1)">
       <defs>
        <path id="DejaVuSans-30" d="M 2034 4250 
Q 1547 4250 1301 3770 
Q 1056 3291 1056 2328 
Q 1056 1369 1301 889 
Q 1547 409 2034 409 
Q 2525 409 2770 889 
Q 3016 1369 3016 2328 
Q 3016 3291 2770 3770 
Q 2525 4250 2034 4250 
z
M 2034 4750 
Q 2819 4750 3233 4129 
Q 3647 3509 3647 2328 
Q 3647 1150 3233 529 
Q 2819 -91 2034 -91 
Q 1250 -91 836 529 
Q 422 1150 422 2328 
Q 422 3509 836 4129 
Q 1250 4750 2034 4750 
z
" transform="scale(0.015625)"/>
       </defs>
       <use xlink:href="#DejaVuSans-30"/>
      </g>
     </g>
    </g>
    <g id="xtick_2">
     <g id="line2d_3">
      <path d="M 117.991398 307.584 
L 117.991398 41.472 
" clip-path="url(#pacce4612eb)" style="fill: none; stroke: #b0b0b0; stroke-width: 0.8; stroke-linecap: square"/>
     </g>
     <g id="line2d_4">
      <g>
       <use xlink:href="#m00de88ca9b" x="117.991398" y="307.584" style="stroke: #000000; stroke-width: 0.8"/>
      </g>
     </g>
     <g id="text_2">
      <!-- 5 -->
      <g transform="translate(114.810148 322.182437) scale(0.1 -0.1)">
       <defs>
        <path id="DejaVuSans-35" d="M 691 4666 
L 3169 4666 
L 3169 4134 
L 1269 4134 
L 1269 2991 
Q 1406 3038 1543 3061 
Q 1681 3084 1819 3084 
Q 2600 3084 3056 2656 
Q 3513 2228 3513 1497 
Q 3513 744 3044 326 
Q 2575 -91 1722 -91 
Q 1428 -91 1123 -41 
Q 819 9 494 109 
L 494 744 
Q 775 591 1075 516 
Q 1375 441 1709 441 
Q 2250 441 2565 725 
Q 2881 1009 2881 1497 
Q 2881 1984 2565 2268 
Q 2250 2553 1709 2553 
Q 1456 2553 1204 2497 
Q 953 2441 691 2322 
L 691 4666 
z
" transform="scale(0.015625)"/>
       </defs>
       <use xlink:href="#DejaVuSans-35"/>
      </g>
     </g>
    </g>
    <g id="xtick_3">
     <g id="line2d_5">
      <path d="M 162.150068 307.584 
L 162.150068 41.472 
" clip-path="url(#pacce4612eb)" style="fill: none; stroke: #b0b0b0; stroke-width: 0.8; stroke-linecap: square"/>
     </g>
     <g id="line2d_6">
      <g>
       <use xlink:href="#m00de88ca9b" x="162.150068" y="307.584" style="stroke: #000000; stroke-width: 0.8"/>
      </g>
     </g>
     <g id="text_3">
      <!-- 10 -->
      <g transform="translate(155.787568 322.182437) scale(0.1 -0.1)">
       <defs>
        <path id="DejaVuSans-31" d="M 794 531 
L 1825 531 
L 1825 4091 
L 703 3866 
L 703 4441 
L 1819 4666 
L 2450 4666 
L 2450 531 
L 3481 531 
L 3481 0 
L 794 0 
L 794 531 
z
" transform="scale(0.015625)"/>
       </defs>
       <use xlink:href="#DejaVuSans-31"/>
       <use xlink:href="#DejaVuSans-30" x="63.623047"/>
      </g>
     </g>
    </g>
    <g id="xtick_4">
     <g id="line2d_7">
      <path d="M 206.308739 307.584 
L 206.308739 41.472 
" clip-path="url(#pacce4612eb)" style="fill: none; stroke: #b0b0b0; stroke-width: 0.8; stroke-linecap: square"/>
     </g>
     <g id="line2d_8">
      <g>
       <use xlink:href="#m00de88ca9b" x="206.308739" y="307.584" style="stroke: #000000; stroke-width: 0.8"/>
      </g>
     </g>
     <g id="text_4">
      <!-- 15 -->
      <g transform="translate(199.946239 322.182437) scale(0.1 -0.1)">
       <use xlink:href="#DejaVuSans-31"/>
       <use xlink:href="#DejaVuSans-35" x="63.623047"/>
      </g>
     </g>
    </g>
    <g id="xtick_5">
     <g id="line2d_9">
      <path d="M 250.467409 307.584 
L 250.467409 41.472 
" clip-path="url(#pacce4612eb)" style="fill: none; stroke: #b0b0b0; stroke-width: 0.8; stroke-linecap: square"/>
     </g>
     <g id="line2d_10">
      <g>
       <use xlink:href="#m00de88ca9b" x="250.467409" y="307.584" style="stroke: #000000; stroke-width: 0.8"/>
      </g>
     </g>
     <g id="text_5">
      <!-- 20 -->
      <g transform="translate(244.104909 322.182437) scale(0.1 -0.1)">
       <defs>
        <path id="DejaVuSans-32" d="M 1228 531 
L 3431 531 
L 3431 0 
L 469 0 
L 469 531 
Q 828 903 1448 1529 
Q 2069 2156 2228 2338 
Q 2531 2678 2651 2914 
Q 2772 3150 2772 3378 
Q 2772 3750 2511 3984 
Q 2250 4219 1831 4219 
Q 1534 4219 1204 4116 
Q 875 4013 500 3803 
L 500 4441 
Q 881 4594 1212 4672 
Q 1544 4750 1819 4750 
Q 2544 4750 2975 4387 
Q 3406 4025 3406 3419 
Q 3406 3131 3298 2873 
Q 3191 2616 2906 2266 
Q 2828 2175 2409 1742 
Q 1991 1309 1228 531 
z
" transform="scale(0.015625)"/>
       </defs>
       <use xlink:href="#DejaVuSans-32"/>
       <use xlink:href="#DejaVuSans-30" x="63.623047"/>
      </g>
     </g>
    </g>
    <g id="xtick_6">
     <g id="line2d_11">
      <path d="M 294.62608 307.584 
L 294.62608 41.472 
" clip-path="url(#pacce4612eb)" style="fill: none; stroke: #b0b0b0; stroke-width: 0.8; stroke-linecap: square"/>
     </g>
     <g id="line2d_12">
      <g>
       <use xlink:href="#m00de88ca9b" x="294.62608" y="307.584" style="stroke: #000000; stroke-width: 0.8"/>
      </g>
     </g>
     <g id="text_6">
      <!-- 25 -->
      <g transform="translate(288.26358 322.182437) scale(0.1 -0.1)">
       <use xlink:href="#DejaVuSans-32"/>
       <use xlink:href="#DejaVuSans-35" x="63.623047"/>
      </g>
     </g>
    </g>
    <g id="xtick_7">
     <g id="line2d_13">
      <path d="M 338.78475 307.584 
L 338.78475 41.472 
" clip-path="url(#pacce4612eb)" style="fill: none; stroke: #b0b0b0; stroke-width: 0.8; stroke-linecap: square"/>
     </g>
     <g id="line2d_14">
      <g>
       <use xlink:href="#m00de88ca9b" x="338.78475" y="307.584" style="stroke: #000000; stroke-width: 0.8"/>
      </g>
     </g>
     <g id="text_7">
      <!-- 30 -->
      <g transform="translate(332.42225 322.182437) scale(0.1 -0.1)">
       <defs>
        <path id="DejaVuSans-33" d="M 2597 2516 
Q 3050 2419 3304 2112 
Q 3559 1806 3559 1356 
Q 3559 666 3084 287 
Q 2609 -91 1734 -91 
Q 1441 -91 1130 -33 
Q 819 25 488 141 
L 488 750 
Q 750 597 1062 519 
Q 1375 441 1716 441 
Q 2309 441 2620 675 
Q 2931 909 2931 1356 
Q 2931 1769 2642 2001 
Q 2353 2234 1838 2234 
L 1294 2234 
L 1294 2753 
L 1863 2753 
Q 2328 2753 2575 2939 
Q 2822 3125 2822 3475 
Q 2822 3834 2567 4026 
Q 2313 4219 1838 4219 
Q 1578 4219 1281 4162 
Q 984 4106 628 3988 
L 628 4550 
Q 988 4650 1302 4700 
Q 1616 4750 1894 4750 
Q 2613 4750 3031 4423 
Q 3450 4097 3450 3541 
Q 3450 3153 3228 2886 
Q 3006 2619 2597 2516 
z
" transform="scale(0.015625)"/>
       </defs>
       <use xlink:href="#DejaVuSans-33"/>
       <use xlink:href="#DejaVuSans-30" x="63.623047"/>
      </g>
     </g>
    </g>
    <g id="xtick_8">
     <g id="line2d_15">
      <path d="M 382.943421 307.584 
L 382.943421 41.472 
" clip-path="url(#pacce4612eb)" style="fill: none; stroke: #b0b0b0; stroke-width: 0.8; stroke-linecap: square"/>
     </g>
     <g id="line2d_16">
      <g>
       <use xlink:href="#m00de88ca9b" x="382.943421" y="307.584" style="stroke: #000000; stroke-width: 0.8"/>
      </g>
     </g>
     <g id="text_8">
      <!-- 35 -->
      <g transform="translate(376.580921 322.182437) scale(0.1 -0.1)">
       <use xlink:href="#DejaVuSans-33"/>
       <use xlink:href="#DejaVuSans-35" x="63.623047"/>
      </g>
     </g>
    </g>
    <g id="text_9">
     <!-- Time(s) -->
     <g transform="translate(217.420156 335.860562) scale(0.1 -0.1)">
      <defs>
       <path id="DejaVuSans-54" d="M -19 4666 
L 3928 4666 
L 3928 4134 
L 2272 4134 
L 2272 0 
L 1638 0 
L 1638 4134 
L -19 4134 
L -19 4666 
z
" transform="scale(0.015625)"/>
       <path id="DejaVuSans-69" d="M 603 3500 
L 1178 3500 
L 1178 0 
L 603 0 
L 603 3500 
z
M 603 4863 
L 1178 4863 
L 1178 4134 
L 603 4134 
L 603 4863 
z
" transform="scale(0.015625)"/>
       <path id="DejaVuSans-6d" d="M 3328 2828 
Q 3544 3216 3844 3400 
Q 4144 3584 4550 3584 
Q 5097 3584 5394 3201 
Q 5691 2819 5691 2113 
L 5691 0 
L 5113 0 
L 5113 2094 
Q 5113 2597 4934 2840 
Q 4756 3084 4391 3084 
Q 3944 3084 3684 2787 
Q 3425 2491 3425 1978 
L 3425 0 
L 2847 0 
L 2847 2094 
Q 2847 2600 2669 2842 
Q 2491 3084 2119 3084 
Q 1678 3084 1418 2786 
Q 1159 2488 1159 1978 
L 1159 0 
L 581 0 
L 581 3500 
L 1159 3500 
L 1159 2956 
Q 1356 3278 1631 3431 
Q 1906 3584 2284 3584 
Q 2666 3584 2933 3390 
Q 3200 3197 3328 2828 
z
" transform="scale(0.015625)"/>
       <path id="DejaVuSans-65" d="M 3597 1894 
L 3597 1613 
L 953 1613 
Q 991 1019 1311 708 
Q 1631 397 2203 397 
Q 2534 397 2845 478 
Q 3156 559 3463 722 
L 3463 178 
Q 3153 47 2828 -22 
Q 2503 -91 2169 -91 
Q 1331 -91 842 396 
Q 353 884 353 1716 
Q 353 2575 817 3079 
Q 1281 3584 2069 3584 
Q 2775 3584 3186 3129 
Q 3597 2675 3597 1894 
z
M 3022 2063 
Q 3016 2534 2758 2815 
Q 2500 3097 2075 3097 
Q 1594 3097 1305 2825 
Q 1016 2553 972 2059 
L 3022 2063 
z
" transform="scale(0.015625)"/>
       <path id="DejaVuSans-28" d="M 1984 4856 
Q 1566 4138 1362 3434 
Q 1159 2731 1159 2009 
Q 1159 1288 1364 580 
Q 1569 -128 1984 -844 
L 1484 -844 
Q 1016 -109 783 600 
Q 550 1309 550 2009 
Q 550 2706 781 3412 
Q 1013 4119 1484 4856 
L 1984 4856 
z
" transform="scale(0.015625)"/>
       <path id="DejaVuSans-73" d="M 2834 3397 
L 2834 2853 
Q 2591 2978 2328 3040 
Q 2066 3103 1784 3103 
Q 1356 3103 1142 2972 
Q 928 2841 928 2578 
Q 928 2378 1081 2264 
Q 1234 2150 1697 2047 
L 1894 2003 
Q 2506 1872 2764 1633 
Q 3022 1394 3022 966 
Q 3022 478 2636 193 
Q 2250 -91 1575 -91 
Q 1294 -91 989 -36 
Q 684 19 347 128 
L 347 722 
Q 666 556 975 473 
Q 1284 391 1588 391 
Q 1994 391 2212 530 
Q 2431 669 2431 922 
Q 2431 1156 2273 1281 
Q 2116 1406 1581 1522 
L 1381 1569 
Q 847 1681 609 1914 
Q 372 2147 372 2553 
Q 372 3047 722 3315 
Q 1072 3584 1716 3584 
Q 2034 3584 2315 3537 
Q 2597 3491 2834 3397 
z
" transform="scale(0.015625)"/>
       <path id="DejaVuSans-29" d="M 513 4856 
L 1013 4856 
Q 1481 4119 1714 3412 
Q 1947 2706 1947 2009 
Q 1947 1309 1714 600 
Q 1481 -109 1013 -844 
L 513 -844 
Q 928 -128 1133 580 
Q 1338 1288 1338 2009 
Q 1338 2731 1133 3434 
Q 928 4138 513 4856 
z
" transform="scale(0.015625)"/>
      </defs>
      <use xlink:href="#DejaVuSans-54"/>
      <use xlink:href="#DejaVuSans-69" x="57.958984"/>
      <use xlink:href="#DejaVuSans-6d" x="85.742188"/>
      <use xlink:href="#DejaVuSans-65" x="183.154297"/>
      <use xlink:href="#DejaVuSans-28" x="244.677734"/>
      <use xlink:href="#DejaVuSans-73" x="283.691406"/>
      <use xlink:href="#DejaVuSans-29" x="335.791016"/>
     </g>
    </g>
   </g>
   <g id="matplotlib.axis_2">
    <g id="ytick_1">
     <g id="line2d_17">
      <path d="M 57.6 295.488 
L 414.72 295.488 
" clip-path="url(#pacce4612eb)" style="fill: none; stroke: #b0b0b0; stroke-width: 0.8; stroke-linecap: square"/>
     </g>
     <g id="line2d_18">
      <defs>
       <path id="ma9a8882706" d="M 0 0 
L -3.5 0 
" style="stroke: #000000; stroke-width: 0.8"/>
      </defs>
      <g>
       <use xlink:href="#ma9a8882706" x="57.6" y="295.488" style="stroke: #000000; stroke-width: 0.8"/>
      </g>
     </g>
     <g id="text_10">
      <!-- 0.000 -->
      <g transform="translate(21.971875 299.287219) scale(0.1 -0.1)">
       <defs>
        <path id="DejaVuSans-2e" d="M 684 794 
L 1344 794 
L 1344 0 
L 684 0 
L 684 794 
z
" transform="scale(0.015625)"/>
       </defs>
       <use xlink:href="#DejaVuSans-30"/>
       <use xlink:href="#DejaVuSans-2e" x="63.623047"/>
       <use xlink:href="#DejaVuSans-30" x="95.410156"/>
       <use xlink:href="#DejaVuSans-30" x="159.033203"/>
       <use xlink:href="#DejaVuSans-30" x="222.65625"/>
      </g>
     </g>
    </g>
    <g id="ytick_2">
     <g id="line2d_19">
      <path d="M 57.6 264.99091 
L 414.72 264.99091 
" clip-path="url(#pacce4612eb)" style="fill: none; stroke: #b0b0b0; stroke-width: 0.8; stroke-linecap: square"/>
     </g>
     <g id="line2d_20">
      <g>
       <use xlink:href="#ma9a8882706" x="57.6" y="264.99091" style="stroke: #000000; stroke-width: 0.8"/>
      </g>
     </g>
     <g id="text_11">
      <!-- 0.025 -->
      <g transform="translate(21.971875 268.790128) scale(0.1 -0.1)">
       <use xlink:href="#DejaVuSans-30"/>
       <use xlink:href="#DejaVuSans-2e" x="63.623047"/>
       <use xlink:href="#DejaVuSans-30" x="95.410156"/>
       <use xlink:href="#DejaVuSans-32" x="159.033203"/>
       <use xlink:href="#DejaVuSans-35" x="222.65625"/>
      </g>
     </g>
    </g>
    <g id="ytick_3">
     <g id="line2d_21">
      <path d="M 57.6 234.493819 
L 414.72 234.493819 
" clip-path="url(#pacce4612eb)" style="fill: none; stroke: #b0b0b0; stroke-width: 0.8; stroke-linecap: square"/>
     </g>
     <g id="line2d_22">
      <g>
       <use xlink:href="#ma9a8882706" x="57.6" y="234.493819" style="stroke: #000000; stroke-width: 0.8"/>
      </g>
     </g>
     <g id="text_12">
      <!-- 0.050 -->
      <g transform="translate(21.971875 238.293038) scale(0.1 -0.1)">
       <use xlink:href="#DejaVuSans-30"/>
       <use xlink:href="#DejaVuSans-2e" x="63.623047"/>
       <use xlink:href="#DejaVuSans-30" x="95.410156"/>
       <use xlink:href="#DejaVuSans-35" x="159.033203"/>
       <use xlink:href="#DejaVuSans-30" x="222.65625"/>
      </g>
     </g>
    </g>
    <g id="ytick_4">
     <g id="line2d_23">
      <path d="M 57.6 203.996729 
L 414.72 203.996729 
" clip-path="url(#pacce4612eb)" style="fill: none; stroke: #b0b0b0; stroke-width: 0.8; stroke-linecap: square"/>
     </g>
     <g id="line2d_24">
      <g>
       <use xlink:href="#ma9a8882706" x="57.6" y="203.996729" style="stroke: #000000; stroke-width: 0.8"/>
      </g>
     </g>
     <g id="text_13">
      <!-- 0.075 -->
      <g transform="translate(21.971875 207.795947) scale(0.1 -0.1)">
       <defs>
        <path id="DejaVuSans-37" d="M 525 4666 
L 3525 4666 
L 3525 4397 
L 1831 0 
L 1172 0 
L 2766 4134 
L 525 4134 
L 525 4666 
z
" transform="scale(0.015625)"/>
       </defs>
       <use xlink:href="#DejaVuSans-30"/>
       <use xlink:href="#DejaVuSans-2e" x="63.623047"/>
       <use xlink:href="#DejaVuSans-30" x="95.410156"/>
       <use xlink:href="#DejaVuSans-37" x="159.033203"/>
       <use xlink:href="#DejaVuSans-35" x="222.65625"/>
      </g>
     </g>
    </g>
    <g id="ytick_5">
     <g id="line2d_25">
      <path d="M 57.6 173.499638 
L 414.72 173.499638 
" clip-path="url(#pacce4612eb)" style="fill: none; stroke: #b0b0b0; stroke-width: 0.8; stroke-linecap: square"/>
     </g>
     <g id="line2d_26">
      <g>
       <use xlink:href="#ma9a8882706" x="57.6" y="173.499638" style="stroke: #000000; stroke-width: 0.8"/>
      </g>
     </g>
     <g id="text_14">
      <!-- 0.100 -->
      <g transform="translate(21.971875 177.298857) scale(0.1 -0.1)">
       <use xlink:href="#DejaVuSans-30"/>
       <use xlink:href="#DejaVuSans-2e" x="63.623047"/>
       <use xlink:href="#DejaVuSans-31" x="95.410156"/>
       <use xlink:href="#DejaVuSans-30" x="159.033203"/>
       <use xlink:href="#DejaVuSans-30" x="222.65625"/>
      </g>
     </g>
    </g>
    <g id="ytick_6">
     <g id="line2d_27">
      <path d="M 57.6 143.002548 
L 414.72 143.002548 
" clip-path="url(#pacce4612eb)" style="fill: none; stroke: #b0b0b0; stroke-width: 0.8; stroke-linecap: square"/>
     </g>
     <g id="line2d_28">
      <g>
       <use xlink:href="#ma9a8882706" x="57.6" y="143.002548" style="stroke: #000000; stroke-width: 0.8"/>
      </g>
     </g>
     <g id="text_15">
      <!-- 0.125 -->
      <g transform="translate(21.971875 146.801766) scale(0.1 -0.1)">
       <use xlink:href="#DejaVuSans-30"/>
       <use xlink:href="#DejaVuSans-2e" x="63.623047"/>
       <use xlink:href="#DejaVuSans-31" x="95.410156"/>
       <use xlink:href="#DejaVuSans-32" x="159.033203"/>
       <use xlink:href="#DejaVuSans-35" x="222.65625"/>
      </g>
     </g>
    </g>
    <g id="ytick_7">
     <g id="line2d_29">
      <path d="M 57.6 112.505457 
L 414.72 112.505457 
" clip-path="url(#pacce4612eb)" style="fill: none; stroke: #b0b0b0; stroke-width: 0.8; stroke-linecap: square"/>
     </g>
     <g id="line2d_30">
      <g>
       <use xlink:href="#ma9a8882706" x="57.6" y="112.505457" style="stroke: #000000; stroke-width: 0.8"/>
      </g>
     </g>
     <g id="text_16">
      <!-- 0.150 -->
      <g transform="translate(21.971875 116.304676) scale(0.1 -0.1)">
       <use xlink:href="#DejaVuSans-30"/>
       <use xlink:href="#DejaVuSans-2e" x="63.623047"/>
       <use xlink:href="#DejaVuSans-31" x="95.410156"/>
       <use xlink:href="#DejaVuSans-35" x="159.033203"/>
       <use xlink:href="#DejaVuSans-30" x="222.65625"/>
      </g>
     </g>
    </g>
    <g id="ytick_8">
     <g id="line2d_31">
      <path d="M 57.6 82.008367 
L 414.72 82.008367 
" clip-path="url(#pacce4612eb)" style="fill: none; stroke: #b0b0b0; stroke-width: 0.8; stroke-linecap: square"/>
     </g>
     <g id="line2d_32">
      <g>
       <use xlink:href="#ma9a8882706" x="57.6" y="82.008367" style="stroke: #000000; stroke-width: 0.8"/>
      </g>
     </g>
     <g id="text_17">
      <!-- 0.175 -->
      <g transform="translate(21.971875 85.807585) scale(0.1 -0.1)">
       <use xlink:href="#DejaVuSans-30"/>
       <use xlink:href="#DejaVuSans-2e" x="63.623047"/>
       <use xlink:href="#DejaVuSans-31" x="95.410156"/>
       <use xlink:href="#DejaVuSans-37" x="159.033203"/>
       <use xlink:href="#DejaVuSans-35" x="222.65625"/>
      </g>
     </g>
    </g>
    <g id="ytick_9">
     <g id="line2d_33">
      <path d="M 57.6 51.511276 
L 414.72 51.511276 
" clip-path="url(#pacce4612eb)" style="fill: none; stroke: #b0b0b0; stroke-width: 0.8; stroke-linecap: square"/>
     </g>
     <g id="line2d_34">
      <g>
       <use xlink:href="#ma9a8882706" x="57.6" y="51.511276" style="stroke: #000000; stroke-width: 0.8"/>
      </g>
     </g>
     <g id="text_18">
      <!-- 0.200 -->
      <g transform="translate(21.971875 55.310495) scale(0.1 -0.1)">
       <use xlink:href="#DejaVuSans-30"/>
       <use xlink:href="#DejaVuSans-2e" x="63.623047"/>
       <use xlink:href="#DejaVuSans-32" x="95.410156"/>
       <use xlink:href="#DejaVuSans-30" x="159.033203"/>
       <use xlink:href="#DejaVuSans-30" x="222.65625"/>
      </g>
     </g>
    </g>
    <g id="text_19">
     <!-- Tracking error(m) -->
     <g transform="translate(15.892187 217.803781) rotate(-90) scale(0.1 -0.1)">
      <defs>
       <path id="DejaVuSans-72" d="M 2631 2963 
Q 2534 3019 2420 3045 
Q 2306 3072 2169 3072 
Q 1681 3072 1420 2755 
Q 1159 2438 1159 1844 
L 1159 0 
L 581 0 
L 581 3500 
L 1159 3500 
L 1159 2956 
Q 1341 3275 1631 3429 
Q 1922 3584 2338 3584 
Q 2397 3584 2469 3576 
Q 2541 3569 2628 3553 
L 2631 2963 
z
" transform="scale(0.015625)"/>
       <path id="DejaVuSans-61" d="M 2194 1759 
Q 1497 1759 1228 1600 
Q 959 1441 959 1056 
Q 959 750 1161 570 
Q 1363 391 1709 391 
Q 2188 391 2477 730 
Q 2766 1069 2766 1631 
L 2766 1759 
L 2194 1759 
z
M 3341 1997 
L 3341 0 
L 2766 0 
L 2766 531 
Q 2569 213 2275 61 
Q 1981 -91 1556 -91 
Q 1019 -91 701 211 
Q 384 513 384 1019 
Q 384 1609 779 1909 
Q 1175 2209 1959 2209 
L 2766 2209 
L 2766 2266 
Q 2766 2663 2505 2880 
Q 2244 3097 1772 3097 
Q 1472 3097 1187 3025 
Q 903 2953 641 2809 
L 641 3341 
Q 956 3463 1253 3523 
Q 1550 3584 1831 3584 
Q 2591 3584 2966 3190 
Q 3341 2797 3341 1997 
z
" transform="scale(0.015625)"/>
       <path id="DejaVuSans-63" d="M 3122 3366 
L 3122 2828 
Q 2878 2963 2633 3030 
Q 2388 3097 2138 3097 
Q 1578 3097 1268 2742 
Q 959 2388 959 1747 
Q 959 1106 1268 751 
Q 1578 397 2138 397 
Q 2388 397 2633 464 
Q 2878 531 3122 666 
L 3122 134 
Q 2881 22 2623 -34 
Q 2366 -91 2075 -91 
Q 1284 -91 818 406 
Q 353 903 353 1747 
Q 353 2603 823 3093 
Q 1294 3584 2113 3584 
Q 2378 3584 2631 3529 
Q 2884 3475 3122 3366 
z
" transform="scale(0.015625)"/>
       <path id="DejaVuSans-6b" d="M 581 4863 
L 1159 4863 
L 1159 1991 
L 2875 3500 
L 3609 3500 
L 1753 1863 
L 3688 0 
L 2938 0 
L 1159 1709 
L 1159 0 
L 581 0 
L 581 4863 
z
" transform="scale(0.015625)"/>
       <path id="DejaVuSans-6e" d="M 3513 2113 
L 3513 0 
L 2938 0 
L 2938 2094 
Q 2938 2591 2744 2837 
Q 2550 3084 2163 3084 
Q 1697 3084 1428 2787 
Q 1159 2491 1159 1978 
L 1159 0 
L 581 0 
L 581 3500 
L 1159 3500 
L 1159 2956 
Q 1366 3272 1645 3428 
Q 1925 3584 2291 3584 
Q 2894 3584 3203 3211 
Q 3513 2838 3513 2113 
z
" transform="scale(0.015625)"/>
       <path id="DejaVuSans-67" d="M 2906 1791 
Q 2906 2416 2648 2759 
Q 2391 3103 1925 3103 
Q 1463 3103 1205 2759 
Q 947 2416 947 1791 
Q 947 1169 1205 825 
Q 1463 481 1925 481 
Q 2391 481 2648 825 
Q 2906 1169 2906 1791 
z
M 3481 434 
Q 3481 -459 3084 -895 
Q 2688 -1331 1869 -1331 
Q 1566 -1331 1297 -1286 
Q 1028 -1241 775 -1147 
L 775 -588 
Q 1028 -725 1275 -790 
Q 1522 -856 1778 -856 
Q 2344 -856 2625 -561 
Q 2906 -266 2906 331 
L 2906 616 
Q 2728 306 2450 153 
Q 2172 0 1784 0 
Q 1141 0 747 490 
Q 353 981 353 1791 
Q 353 2603 747 3093 
Q 1141 3584 1784 3584 
Q 2172 3584 2450 3431 
Q 2728 3278 2906 2969 
L 2906 3500 
L 3481 3500 
L 3481 434 
z
" transform="scale(0.015625)"/>
       <path id="DejaVuSans-20" transform="scale(0.015625)"/>
       <path id="DejaVuSans-6f" d="M 1959 3097 
Q 1497 3097 1228 2736 
Q 959 2375 959 1747 
Q 959 1119 1226 758 
Q 1494 397 1959 397 
Q 2419 397 2687 759 
Q 2956 1122 2956 1747 
Q 2956 2369 2687 2733 
Q 2419 3097 1959 3097 
z
M 1959 3584 
Q 2709 3584 3137 3096 
Q 3566 2609 3566 1747 
Q 3566 888 3137 398 
Q 2709 -91 1959 -91 
Q 1206 -91 779 398 
Q 353 888 353 1747 
Q 353 2609 779 3096 
Q 1206 3584 1959 3584 
z
" transform="scale(0.015625)"/>
      </defs>
      <use xlink:href="#DejaVuSans-54"/>
      <use xlink:href="#DejaVuSans-72" x="46.333984"/>
      <use xlink:href="#DejaVuSans-61" x="87.447266"/>
      <use xlink:href="#DejaVuSans-63" x="148.726562"/>
      <use xlink:href="#DejaVuSans-6b" x="203.707031"/>
      <use xlink:href="#DejaVuSans-69" x="261.617188"/>
      <use xlink:href="#DejaVuSans-6e" x="289.400391"/>
      <use xlink:href="#DejaVuSans-67" x="352.779297"/>
      <use xlink:href="#DejaVuSans-20" x="416.255859"/>
      <use xlink:href="#DejaVuSans-65" x="448.042969"/>
      <use xlink:href="#DejaVuSans-72" x="509.566406"/>
      <use xlink:href="#DejaVuSans-72" x="548.929688"/>
      <use xlink:href="#DejaVuSans-6f" x="587.792969"/>
      <use xlink:href="#DejaVuSans-72" x="648.974609"/>
      <use xlink:href="#DejaVuSans-28" x="690.087891"/>
      <use xlink:href="#DejaVuSans-6d" x="729.101562"/>
      <use xlink:href="#DejaVuSans-29" x="826.513672"/>
     </g>
    </g>
   </g>
   <g id="line2d_35">
    <path d="M 73.832727 267.259893 
L 74.185997 268.289475 
L 74.185997 268.289475 
L 74.362631 275.688069 
L 74.362631 275.688069 
L 74.715901 279.76736 
L 74.715901 279.76736 
L 74.892535 282.165651 
L 74.892535 282.165651 
L 75.06917 295.488 
L 75.06917 295.488 
L 75.245805 287.20499 
L 75.245805 287.20499 
L 75.952343 295.488 
L 75.952343 295.488 
L 76.305613 291.617309 
L 76.305613 291.617309 
L 76.658882 289.611821 
L 76.658882 289.611821 
L 76.835517 295.488 
L 76.835517 295.488 
L 77.012152 288.833535 
L 77.012152 288.833535 
L 77.188786 288.720086 
L 77.188786 288.720086 
L 77.542056 288.831095 
L 77.542056 288.831095 
L 77.71869 295.488 
L 77.71869 295.488 
L 77.895325 288.688369 
L 77.895325 288.688369 
L 78.425229 288.04793 
L 78.425229 288.04793 
L 78.601864 295.488 
L 78.601864 295.488 
L 78.778498 287.788095 
L 78.778498 287.788095 
L 78.955133 287.890565 
L 78.955133 287.890565 
L 79.308402 288.856713 
L 79.308402 288.856713 
L 79.485037 295.488 
L 79.485037 295.488 
L 79.661672 290.187606 
L 79.661672 290.187606 
L 80.191576 292.219932 
L 80.191576 292.219932 
L 80.368211 295.488 
L 80.368211 295.488 
L 80.544845 292.776199 
L 80.544845 292.776199 
L 81.074749 293.245854 
L 81.074749 293.245854 
L 81.251384 295.488 
L 81.251384 295.488 
L 81.428019 293.791142 
L 81.428019 293.791142 
L 81.781288 295.115935 
L 81.781288 295.115935 
L 81.957923 295.092758 
L 81.957923 295.092758 
L 82.134557 295.488 
L 82.134557 295.488 
L 82.311192 293.472752 
L 82.311192 293.472752 
L 82.664461 292.183335 
L 82.664461 292.183335 
L 82.841096 291.888123 
L 82.841096 291.888123 
L 83.017731 295.488 
L 83.194365 291.71734 
L 83.194365 291.71734 
L 83.547635 291.879584 
L 83.547635 291.879584 
L 83.724269 291.971076 
L 83.724269 291.971076 
L 83.900904 295.488 
L 83.900904 295.488 
L 84.077539 291.760036 
L 84.077539 291.760036 
L 84.430808 290.6658 
L 84.430808 290.6658 
L 84.607443 289.963147 
L 84.607443 289.963147 
L 84.784078 295.488 
L 84.784078 295.488 
L 84.960712 288.438293 
L 84.960712 288.438293 
L 85.313982 287.344057 
L 85.313982 287.344057 
L 85.490616 287.179373 
L 85.490616 287.179373 
L 85.667251 295.488 
L 85.667251 295.488 
L 85.843886 287.397732 
L 85.843886 287.397732 
L 86.02052 287.707582 
L 86.02052 287.707582 
L 86.37379 288.790839 
L 86.37379 288.790839 
L 86.550424 295.488 
L 86.550424 295.488 
L 86.727059 289.700872 
L 86.727059 289.700872 
L 87.080328 289.969247 
L 87.080328 289.969247 
L 87.256963 289.578884 
L 87.256963 289.578884 
L 87.433598 295.488 
L 87.433598 295.488 
L 87.610232 288.223593 
L 87.610232 288.223593 
L 88.140137 286.214445 
L 88.140137 286.214445 
L 88.316771 285.836281 
L 88.316771 285.836281 
L 88.493406 285.820422 
L 88.493406 285.820422 
L 88.670041 286.097336 
L 88.670041 286.097336 
L 89.02331 287.656347 
L 89.02331 287.656347 
L 89.199945 295.488 
L 89.199945 295.488 
L 89.376579 289.963147 
L 89.376579 289.963147 
L 90.083118 295.488 
L 90.083118 295.488 
L 90.436387 293.338565 
L 90.436387 293.338565 
L 90.789657 292.102823 
L 90.789657 292.102823 
L 90.966291 295.488 
L 90.966291 295.488 
L 91.142926 291.345275 
L 91.142926 291.345275 
L 91.319561 290.901238 
L 91.319561 290.901238 
L 91.849465 287.810053 
L 91.849465 287.810053 
L 92.379369 281.603285 
L 92.379369 281.603285 
L 93.439177 268.484656 
L 93.439177 268.484656 
L 93.969081 264.920156 
L 93.969081 264.920156 
L 94.145716 265.206829 
L 94.145716 265.206829 
L 94.32235 265.227567 
L 94.32235 265.227567 
L 94.67562 265.756996 
L 94.67562 265.756996 
L 95.028889 268.296794 
L 95.028889 268.296794 
L 95.205524 268.923814 
L 95.205524 268.923814 
L 95.382158 270.364497 
L 95.382158 270.364497 
L 95.558793 270.654829 
L 95.558793 270.654829 
L 95.912063 270.204692 
L 95.912063 270.204692 
L 96.088697 268.666419 
L 96.088697 268.666419 
L 96.441967 263.41604 
L 96.441967 263.41604 
L 96.971871 248.940901 
L 96.971871 248.940901 
L 97.678409 223.945485 
L 97.678409 223.945485 
L 97.855044 221.532556 
L 97.855044 221.532556 
L 98.031679 215.857657 
L 98.031679 215.857657 
L 98.208313 214.757322 
L 98.208313 214.757322 
L 98.561583 207.320911 
L 98.561583 207.320911 
L 98.738217 210.913469 
L 98.738217 210.913469 
L 98.914852 208.950676 
L 98.914852 208.950676 
L 99.091487 213.233687 
L 99.091487 213.233687 
L 99.268121 212.823806 
L 99.268121 212.823806 
L 99.444756 217.312978 
L 99.444756 217.312978 
L 99.621391 218.068086 
L 99.621391 218.068086 
L 99.798026 222.569457 
L 99.798026 222.569457 
L 99.97466 224.036977 
L 99.97466 224.036977 
L 100.151295 223.397758 
L 100.151295 223.397758 
L 100.32793 230.072961 
L 100.32793 230.072961 
L 100.504564 229.954632 
L 100.504564 229.954632 
L 100.681199 235.675886 
L 100.681199 235.675886 
L 100.857834 235.811293 
L 100.857834 235.811293 
L 101.034468 240.928705 
L 101.034468 240.928705 
L 101.211103 241.868016 
L 101.211103 241.868016 
L 101.387738 246.382805 
L 101.387738 246.382805 
L 101.564372 247.755174 
L 101.564372 247.755174 
L 101.741007 248.00769 
L 101.741007 248.00769 
L 101.917642 252.528578 
L 101.917642 252.528578 
L 102.094276 251.921076 
L 102.094276 251.921076 
L 102.270911 253.532543 
L 102.270911 253.532543 
L 102.447546 249.730165 
L 102.447546 249.730165 
L 102.62418 249.454472 
L 102.62418 249.454472 
L 102.800815 243.39043 
L 102.800815 243.39043 
L 102.97745 243.148893 
L 102.97745 243.148893 
L 103.154084 237.720411 
L 103.154084 237.720411 
L 103.330719 238.825626 
L 103.330719 238.825626 
L 103.507354 236.021113 
L 103.507354 236.021113 
L 103.683989 231.401414 
L 103.683989 231.401414 
L 103.860623 239.024467 
L 103.860623 239.024467 
L 104.037258 237.184882 
L 104.037258 237.184882 
L 104.213893 245.609399 
L 104.213893 245.609399 
L 104.390527 246.148587 
L 104.390527 246.148587 
L 104.567162 254.956147 
L 104.567162 254.956147 
L 104.743797 257.581336 
L 104.743797 257.581336 
L 105.450335 295.488 
L 105.450335 295.488 
L 105.803605 287.223288 
L 105.803605 287.223288 
L 105.980239 280.371202 
L 105.980239 280.371202 
L 106.686778 239.688084 
L 106.686778 239.688084 
L 107.569952 191.522199 
L 107.569952 191.522199 
L 108.099856 170.114461 
L 108.099856 170.114461 
L 108.27649 169.044623 
L 108.27649 169.044623 
L 108.62976 163.466095 
L 108.62976 163.466095 
L 108.983029 172.781127 
L 108.983029 172.781127 
L 109.159664 176.490793 
L 109.159664 176.490793 
L 109.866202 223.618557 
L 109.866202 223.618557 
L 110.572741 258.285209 
L 110.572741 258.285209 
L 110.92601 270.797556 
L 110.92601 270.797556 
L 111.102645 273.625246 
L 111.102645 273.625246 
L 111.455915 283.212311 
L 111.455915 283.212311 
L 111.632549 284.602978 
L 111.632549 284.602978 
L 111.809184 291.172052 
L 111.985819 292.996998 
L 111.985819 292.996998 
L 112.162453 293.194619 
L 112.162453 293.194619 
L 113.045627 282.252263 
L 113.045627 282.252263 
L 113.222261 276.898194 
L 113.222261 276.898194 
L 113.575531 274.060744 
L 113.575531 274.060744 
L 113.9288 265.001888 
L 113.9288 265.001888 
L 114.105435 262.654832 
L 114.105435 262.654832 
L 114.635339 242.630443 
L 114.635339 242.630443 
L 115.165243 220.928713 
L 115.165243 220.928713 
L 117.284859 130.5024 
L 117.284859 130.5024 
L 117.461494 128.779925 
L 117.461494 128.779925 
L 117.638128 125.620426 
L 117.638128 125.620426 
L 118.168032 125.47038 
L 118.168032 125.47038 
L 118.521302 133.86196 
L 118.521302 133.86196 
L 118.697936 136.837256 
L 118.697936 136.837256 
L 119.051206 152.226088 
L 119.051206 152.226088 
L 119.227841 158.046152 
L 119.227841 158.046152 
L 119.757745 195.147693 
L 119.757745 195.147693 
L 120.464283 241.410559 
L 120.464283 241.410559 
L 120.817553 266.928085 
L 120.817553 266.928085 
L 120.994187 275.04397 
L 120.994187 275.04397 
L 121.170822 289.644757 
L 121.170822 289.644757 
L 121.347457 293.886293 
L 121.347457 293.886293 
L 121.700726 275.36236 
L 121.700726 275.36236 
L 122.053995 260.844525 
L 122.053995 260.844525 
L 122.23063 258.246173 
L 122.23063 258.246173 
L 122.407265 250.776826 
L 122.407265 250.776826 
L 122.583899 249.317845 
L 122.583899 249.317845 
L 122.760534 244.594455 
L 122.760534 244.594455 
L 122.937169 244.179695 
L 122.937169 244.179695 
L 123.113804 245.849716 
L 123.113804 245.849716 
L 123.290438 241.103149 
L 123.290438 241.103149 
L 123.467073 242.591407 
L 123.467073 242.591407 
L 123.643708 239.634409 
L 123.643708 239.634409 
L 123.820342 241.228797 
L 123.996977 239.474604 
L 124.173612 240.517604 
L 124.173612 240.517604 
L 124.350246 243.251364 
L 124.350246 243.251364 
L 124.526881 240.415134 
L 124.526881 240.415134 
L 124.703516 242.720714 
L 124.703516 242.720714 
L 124.88015 241.256854 
L 124.88015 241.256854 
L 125.056785 243.352614 
L 125.056785 243.352614 
L 125.23342 247.458742 
L 125.23342 247.458742 
L 125.410054 246.103451 
L 125.410054 246.103451 
L 125.586689 250.51821 
L 125.586689 250.51821 
L 125.763324 250.917112 
L 125.763324 250.917112 
L 126.469862 267.927169 
L 126.469862 267.927169 
L 126.646497 268.366328 
L 126.646497 268.366328 
L 126.823132 272.901855 
L 126.823132 272.901855 
L 126.999767 273.781391 
L 126.999767 273.781391 
L 127.353036 281.243419 
L 127.353036 281.243419 
L 127.529671 279.456289 
L 127.529671 279.456289 
L 127.706305 281.725273 
L 127.706305 281.725273 
L 127.88294 280.097948 
L 127.88294 280.097948 
L 128.059575 281.0275 
L 128.059575 281.0275 
L 128.236209 283.363577 
L 128.236209 283.363577 
L 128.412844 280.864035 
L 128.412844 280.864035 
L 128.589479 282.768274 
L 128.589479 282.768274 
L 128.766113 281.480076 
L 128.766113 281.480076 
L 128.942748 282.897581 
L 128.942748 282.897581 
L 129.119383 285.63744 
L 129.119383 285.63744 
L 129.296017 283.596574 
L 129.296017 283.596574 
L 129.472652 285.221459 
L 129.472652 285.221459 
L 129.649287 283.441649 
L 129.649287 283.441649 
L 129.825921 283.74784 
L 129.825921 283.74784 
L 130.002556 284.937227 
L 130.002556 284.937227 
L 130.179191 281.162907 
L 130.179191 281.162907 
L 130.355826 280.807921 
L 130.355826 280.807921 
L 130.709095 276.31021 
L 130.709095 276.31021 
L 130.88573 276.000359 
L 130.88573 276.000359 
L 131.062364 271.740526 
L 131.062364 271.740526 
L 131.238999 270.946381 
L 131.238999 270.946381 
L 131.415634 271.640495 
L 131.415634 271.640495 
L 131.592268 267.272092 
L 131.592268 267.272092 
L 131.768903 267.746627 
L 131.768903 267.746627 
L 131.945538 264.890879 
L 131.945538 264.890879 
L 132.122172 264.973831 
L 132.122172 264.973831 
L 132.298807 266.397435 
L 132.298807 266.397435 
L 132.475442 263.692953 
L 132.475442 263.692953 
L 132.652076 264.973831 
L 132.652076 264.973831 
L 132.828711 267.308688 
L 132.828711 267.308688 
L 133.005346 264.521254 
L 133.005346 264.521254 
L 133.18198 266.45477 
L 133.18198 266.45477 
L 133.358615 265.286121 
L 133.358615 265.286121 
L 133.711884 269.554494 
L 133.711884 269.554494 
L 133.888519 268.138209 
L 133.888519 268.138209 
L 134.241789 272.040617 
L 134.241789 272.040617 
L 134.418423 269.735037 
L 134.418423 269.735037 
L 134.595058 270.715823 
L 134.595058 270.715823 
L 134.771693 268.903076 
L 134.771693 268.903076 
L 135.124962 268.072336 
L 135.124962 268.072336 
L 135.478231 262.746324 
L 135.478231 262.746324 
L 135.654866 261.382494 
L 135.654866 261.382494 
L 136.008135 254.4011 
L 136.008135 254.4011 
L 136.18477 252.491982 
L 136.18477 252.491982 
L 136.538039 245.659414 
L 136.538039 245.659414 
L 136.714674 243.967435 
L 136.714674 243.967435 
L 137.067943 237.481314 
L 137.067943 237.481314 
L 137.244578 235.806414 
L 137.244578 235.806414 
L 137.597847 229.502055 
L 137.597847 229.502055 
L 137.774482 227.613675 
L 137.774482 227.613675 
L 138.127752 220.939692 
L 138.127752 220.939692 
L 138.481021 216.306574 
L 138.481021 216.306574 
L 138.83429 208.012585 
L 138.83429 208.012585 
L 139.010925 205.083645 
L 139.010925 205.083645 
L 139.540829 192.391976 
L 139.540829 192.391976 
L 139.717464 188.881151 
L 139.717464 188.881151 
L 140.070733 178.51214 
L 140.070733 178.51214 
L 140.953906 155.645421 
L 140.953906 155.645421 
L 141.48381 142.908617 
L 141.48381 142.908617 
L 142.013715 134.436525 
L 142.013715 134.436525 
L 142.190349 133.198343 
L 142.190349 133.198343 
L 142.366984 132.836038 
L 142.366984 132.836038 
L 142.543619 133.119051 
L 142.543619 133.119051 
L 142.720253 132.987303 
L 142.720253 132.987303 
L 143.073523 136.211456 
L 143.073523 136.211456 
L 143.603427 144.23341 
L 143.603427 144.23341 
L 144.309965 160.082138 
L 144.309965 160.082138 
L 145.193139 185.264196 
L 145.193139 185.264196 
L 146.252947 222.720722 
L 146.252947 222.720722 
L 147.13612 252.9287 
L 147.13612 252.9287 
L 147.842659 271.994261 
L 147.842659 271.994261 
L 148.725832 290.224202 
L 148.725832 290.224202 
L 149.079102 295.488 
L 149.079102 295.488 
L 149.432371 288.471229 
L 149.432371 288.471229 
L 150.13891 282.48648 
L 150.13891 282.48648 
L 150.315545 281.580107 
L 150.315545 281.580107 
L 150.845449 282.608469 
L 150.845449 282.608469 
L 151.198718 284.594439 
L 151.198718 284.594439 
L 151.551987 288.489528 
L 151.551987 288.489528 
L 151.728622 295.488 
L 151.728622 295.488 
L 151.905257 291.810051 
L 151.905257 291.810051 
L 152.258526 295.374551 
L 152.258526 295.374551 
L 152.435161 295.488 
L 152.435161 295.488 
L 152.611795 293.996082 
L 152.611795 293.996082 
L 152.965065 293.484951 
L 152.965065 293.484951 
L 153.141699 295.488 
L 153.141699 295.488 
L 153.494969 294.604804 
L 153.494969 294.604804 
L 153.671604 295.488 
L 153.671604 295.488 
L 154.024873 287.907643 
L 154.024873 287.907643 
L 154.731412 273.849704 
L 154.731412 273.849704 
L 155.261316 262.04611 
L 155.261316 262.04611 
L 155.614585 255.546571 
L 155.614585 255.546571 
L 155.79122 251.125712 
L 155.79122 251.125712 
L 155.967854 250.254715 
L 155.967854 250.254715 
L 156.144489 246.780487 
L 156.144489 246.780487 
L 156.321124 246.408422 
L 156.321124 246.408422 
L 156.497758 244.12236 
L 156.497758 244.12236 
L 156.674393 244.079665 
L 156.674393 244.079665 
L 156.851028 242.407204 
L 156.851028 242.407204 
L 157.027662 239.20013 
L 157.027662 239.20013 
L 157.204297 240.775 
L 157.204297 240.775 
L 157.380932 237.699673 
L 157.380932 237.699673 
L 157.557567 238.984211 
L 157.557567 238.984211 
L 157.734201 235.663687 
L 157.734201 235.663687 
L 157.910836 236.180918 
L 157.910836 236.180918 
L 158.087471 232.185799 
L 158.087471 232.185799 
L 158.264105 231.689307 
L 158.264105 231.689307 
L 158.44074 226.732919 
L 158.44074 226.732919 
L 158.617375 225.123893 
L 158.617375 225.123893 
L 159.147279 209.110481 
L 159.147279 209.110481 
L 159.323913 205.55086 
L 159.853817 182.337695 
L 159.853817 182.337695 
L 160.030452 177.371549 
L 160.030452 177.371549 
L 160.560356 148.501783 
L 160.560356 148.501783 
L 160.736991 143.728378 
L 160.736991 143.728378 
L 160.913625 129.924175 
L 160.913625 129.924175 
L 161.09026 125.772911 
L 161.09026 125.772911 
L 161.266895 111.368526 
L 161.266895 111.368526 
L 161.44353 108.260262 
L 161.44353 108.260262 
L 161.620164 93.837578 
L 161.620164 93.837578 
L 161.796799 92.152919 
L 161.796799 92.152919 
L 161.973434 78.586593 
L 161.973434 78.586593 
L 162.150068 78.377993 
L 162.150068 78.377993 
L 162.326703 74.762258 
L 162.326703 74.762258 
L 162.503338 67.180681 
L 162.503338 67.180681 
L 162.679972 65.036126 
L 162.679972 65.036126 
L 162.856607 59.084314 
L 162.856607 59.084314 
L 163.033242 59.081874 
L 163.033242 59.081874 
L 163.209876 54.811061 
L 163.209876 54.811061 
L 163.386511 56.429847 
L 163.386511 56.429847 
L 163.563146 53.568 
L 163.563146 53.568 
L 163.73978 57.244729 
L 163.73978 57.244729 
L 163.916415 55.804047 
L 163.916415 55.804047 
L 164.09305 61.260586 
L 164.09305 61.260586 
L 164.269684 60.978793 
L 164.269684 60.978793 
L 164.446319 67.292911 
L 164.446319 67.292911 
L 164.622954 67.342926 
L 164.622954 67.342926 
L 164.799588 74.719562 
L 164.976223 75.874792 
L 164.976223 75.874792 
L 165.152858 85.250817 
L 165.152858 85.250817 
L 165.329493 87.7345 
L 165.329493 87.7345 
L 165.506127 98.176704 
L 165.506127 98.176704 
L 165.682762 100.934861 
L 165.682762 100.934861 
L 165.859397 111.793045 
L 165.859397 111.793045 
L 166.036031 114.67563 
L 166.036031 114.67563 
L 166.212666 125.449642 
L 166.389301 127.795478 
L 166.389301 127.795478 
L 166.565935 137.907094 
L 166.565935 137.907094 
L 166.74257 139.455126 
L 166.74257 139.455126 
L 166.919205 148.773817 
L 166.919205 148.773817 
L 167.095839 149.153201 
L 167.095839 149.153201 
L 167.449109 163.194061 
L 167.449109 163.194061 
L 167.625743 164.620105 
L 167.625743 164.620105 
L 167.802378 169.087319 
L 167.802378 169.087319 
L 167.979013 169.486221 
L 167.979013 169.486221 
L 168.155647 173.678961 
L 168.155647 173.678961 
L 168.332282 173.312996 
L 168.332282 173.312996 
L 168.508917 177.911957 
L 168.508917 177.911957 
L 168.685551 177.531353 
L 168.685551 177.531353 
L 168.862186 182.185209 
L 168.862186 182.185209 
L 169.038821 181.34471 
L 169.038821 181.34471 
L 169.215456 186.275479 
L 169.215456 186.275479 
L 169.39209 185.42766 
L 169.39209 185.42766 
L 169.568725 190.275478 
L 169.568725 190.275478 
L 169.74536 188.78356 
L 169.74536 188.78356 
L 169.921994 193.237355 
L 169.921994 193.237355 
L 170.098629 191.030586 
L 170.098629 191.030586 
L 170.275264 195.162331 
L 170.275264 195.162331 
L 170.451898 192.395635 
L 170.451898 192.395635 
L 170.628533 196.213871 
L 170.628533 196.213871 
L 170.805168 193.432536 
L 170.805168 193.432536 
L 170.981802 197.386179 
L 170.981802 197.386179 
L 171.158437 194.931773 
L 171.158437 194.931773 
L 171.335072 199.118414 
L 171.335072 199.118414 
L 171.511706 197.222715 
L 171.511706 197.222715 
L 171.688341 201.758242 
L 171.688341 201.758242 
L 171.864976 200.604232 
L 171.864976 200.604232 
L 172.04161 205.539881 
L 172.04161 205.539881 
L 172.218245 205.277606 
L 172.218245 205.277606 
L 172.39488 210.632895 
L 172.39488 210.632895 
L 172.571514 211.201361 
L 172.571514 211.201361 
L 172.748149 216.806726 
L 172.748149 216.806726 
L 172.924784 218.154698 
L 172.924784 218.154698 
L 173.454688 232.778663 
L 173.454688 232.778663 
L 173.631323 236.239473 
L 173.631323 236.239473 
L 174.161227 252.912842 
L 174.161227 252.912842 
L 175.750939 289.765526 
L 175.750939 289.765526 
L 175.927573 291.547776 
L 175.927573 291.547776 
L 176.104208 291.943018 
L 176.104208 291.943018 
L 176.280843 295.257442 
L 176.280843 295.257442 
L 176.457477 295.058601 
L 176.457477 295.058601 
L 176.634112 292.196754 
L 176.634112 292.196754 
L 176.810747 295.488 
L 177.517286 285.550828 
L 177.517286 285.550828 
L 177.69392 284.971383 
L 177.69392 284.971383 
L 177.870555 285.377605 
L 177.870555 285.377605 
L 178.04719 280.551745 
L 178.04719 280.551745 
L 178.223824 279.807616 
L 178.223824 279.807616 
L 178.577094 273.598408 
L 178.577094 273.598408 
L 178.753728 272.438299 
L 178.753728 272.438299 
L 179.106998 264.595667 
L 179.106998 264.595667 
L 179.283632 262.813417 
L 179.283632 262.813417 
L 179.813536 246.64508 
L 179.813536 246.64508 
L 180.34344 230.346215 
L 180.34344 230.346215 
L 181.226614 200.10164 
L 181.226614 200.10164 
L 181.933153 175.395337 
L 181.933153 175.395337 
L 182.463057 162.743924 
L 182.463057 162.743924 
L 182.816326 159.995526 
L 182.816326 159.995526 
L 182.992961 159.902815 
L 182.992961 159.902815 
L 183.169595 160.895801 
L 183.699499 174.068104 
L 183.699499 174.068104 
L 184.052769 188.871392 
L 184.052769 188.871392 
L 185.99575 272.965289 
L 185.99575 272.965289 
L 186.34902 278.82073 
L 186.34902 278.82073 
L 186.525654 279.666109 
L 186.525654 279.666109 
L 186.702289 279.961321 
L 186.702289 279.961321 
L 187.055558 277.256839 
L 187.055558 277.256839 
L 187.408828 270.674347 
L 187.408828 270.674347 
L 188.115367 250.353526 
L 188.115367 250.353526 
L 188.645271 228.465154 
L 188.645271 228.465154 
L 188.99854 218.070526 
L 188.99854 218.070526 
L 190.234983 159.610043 
L 190.234983 159.610043 
L 190.411617 157.54356 
L 190.411617 157.54356 
L 190.588252 147.098917 
L 190.588252 147.098917 
L 190.764887 147.472201 
L 190.764887 147.472201 
L 190.941521 137.84366 
L 190.941521 137.84366 
L 191.294791 147.328255 
L 191.294791 147.328255 
L 191.471425 148.128499 
L 191.64806 158.626817 
L 191.64806 158.626817 
L 191.824695 162.47067 
L 191.824695 162.47067 
L 192.00133 178.19619 
L 192.00133 178.19619 
L 192.177964 183.279445 
L 192.177964 183.279445 
L 192.531234 219.062291 
L 192.531234 219.062291 
L 192.707868 227.560001 
L 192.707868 227.560001 
L 192.884503 242.714615 
L 192.884503 242.714615 
L 193.061138 244.878688 
L 193.061138 244.878688 
L 193.237772 256.80671 
L 193.237772 256.80671 
L 193.414407 250.718271 
L 193.414407 250.718271 
L 193.591042 258.061971 
L 193.591042 258.061971 
L 193.767676 258.532846 
L 193.767676 258.532846 
L 193.944311 246.667038 
L 193.944311 246.667038 
L 194.120946 243.475822 
L 194.29758 225.298336 
L 194.29758 225.298336 
L 194.474215 221.012885 
L 194.474215 221.012885 
L 194.65085 212.544453 
L 194.65085 212.544453 
L 194.827484 197.031193 
L 194.827484 197.031193 
L 195.004119 191.447786 
L 195.004119 191.447786 
L 195.180754 176.266334 
L 195.180754 176.266334 
L 195.357388 175.179418 
L 195.357388 175.179418 
L 195.534023 163.740569 
L 195.534023 163.740569 
L 195.887293 173.643584 
L 195.887293 173.643584 
L 196.063927 174.163255 
L 196.063927 174.163255 
L 196.240562 184.38344 
L 196.240562 184.38344 
L 196.417197 187.479504 
L 196.417197 187.479504 
L 196.770466 210.06077 
L 196.770466 210.06077 
L 196.947101 214.941524 
L 196.947101 214.941524 
L 197.123735 224.268755 
L 197.123735 224.268755 
L 197.30037 225.094616 
L 197.477005 233.966829 
L 197.477005 233.966829 
L 197.653639 229.129991 
L 197.653639 229.129991 
L 198.006909 239.290401 
L 198.006909 239.290401 
L 198.183543 233.033618 
L 198.183543 233.033618 
L 198.360178 235.00739 
L 198.360178 235.00739 
L 198.536813 224.789645 
L 198.536813 224.789645 
L 198.713447 227.222093 
L 198.713447 227.222093 
L 198.890082 226.525539 
L 198.890082 226.525539 
L 199.066717 219.752745 
L 199.066717 219.752745 
L 199.243351 221.328835 
L 199.243351 221.328835 
L 199.419986 213.83753 
L 199.419986 213.83753 
L 199.596621 217.836308 
L 199.596621 217.836308 
L 199.773256 210.388919 
L 199.773256 210.388919 
L 200.126525 221.581351 
L 200.126525 221.581351 
L 200.30316 218.285225 
L 200.30316 218.285225 
L 200.479794 223.16232 
L 200.479794 223.16232 
L 200.656429 218.875649 
L 200.656429 218.875649 
L 200.833064 224.722551 
L 200.833064 224.722551 
L 201.009698 219.514868 
L 201.009698 219.514868 
L 201.362968 229.275157 
L 201.362968 229.275157 
L 201.539602 227.758842 
L 201.539602 227.758842 
L 201.716237 232.029654 
L 201.716237 232.029654 
L 201.892872 231.047648 
L 201.892872 231.047648 
L 202.069506 236.349262 
L 202.069506 236.349262 
L 202.246141 236.762803 
L 202.246141 236.762803 
L 202.95268 257.194633 
L 202.95268 257.194633 
L 204.012488 282.052202 
L 204.012488 282.052202 
L 204.719027 291.08788 
L 204.719027 291.08788 
L 205.248931 294.64872 
L 205.248931 294.64872 
L 205.425565 294.893917 
L 205.425565 294.893917 
L 205.6022 294.214442 
L 205.6022 294.214442 
L 205.955469 292.197974 
L 205.955469 292.197974 
L 206.132104 291.043964 
L 206.132104 291.043964 
L 206.308739 295.488 
L 206.308739 295.488 
L 206.485373 289.861897 
L 206.485373 289.861897 
L 206.838643 287.236707 
L 206.838643 287.236707 
L 207.191912 284.506608 
L 207.191912 284.506608 
L 207.368547 283.794196 
L 207.368547 283.794196 
L 207.545182 281.75577 
L 207.545182 281.75577 
L 207.721816 281.031159 
L 207.721816 281.031159 
L 208.075086 278.575534 
L 208.075086 278.575534 
L 208.25172 277.77407 
L 208.25172 277.77407 
L 209.311528 266.743882 
L 209.311528 266.743882 
L 210.371336 249.25807 
L 210.371336 249.25807 
L 211.25451 240.008913 
L 211.25451 240.008913 
L 212.844222 231.284305 
L 212.844222 231.284305 
L 213.020857 230.468203 
L 213.020857 230.468203 
L 213.550761 226.456006 
L 213.550761 226.456006 
L 214.080665 223.218435 
L 214.080665 223.218435 
L 214.257299 222.909804 
L 214.257299 222.909804 
L 214.433934 222.990317 
L 214.433934 222.990317 
L 214.610569 223.379459 
L 214.610569 223.379459 
L 214.787203 224.126028 
L 214.787203 224.126028 
L 214.963838 224.00648 
L 214.963838 224.00648 
L 215.493742 227.402636 
L 215.493742 227.402636 
L 215.670377 228.764026 
L 215.670377 228.764026 
L 215.847012 228.566405 
L 215.847012 228.566405 
L 216.376916 230.312058 
L 216.376916 230.312058 
L 216.55355 229.611845 
L 216.55355 229.611845 
L 216.730185 229.825324 
L 217.083454 231.045208 
L 217.083454 231.045208 
L 217.260089 232.169941 
L 217.260089 232.169941 
L 217.436724 231.519743 
L 217.436724 231.519743 
L 217.966628 235.819833 
L 217.966628 235.819833 
L 218.319897 242.046119 
L 218.319897 242.046119 
L 219.203071 266.082705 
L 219.203071 266.082705 
L 219.909609 292.438291 
L 219.909609 292.438291 
L 220.086244 292.900627 
L 220.086244 292.900627 
L 221.146052 258.726807 
L 221.146052 258.726807 
L 221.852591 240.833554 
L 221.852591 240.833554 
L 222.029225 240.483448 
L 222.029225 240.483448 
L 222.20586 236.461491 
L 222.20586 236.461491 
L 222.382495 236.78964 
L 222.382495 236.78964 
L 222.559129 233.952191 
L 222.559129 233.952191 
L 222.735764 234.912239 
L 222.735764 234.912239 
L 222.912399 233.078754 
L 222.912399 233.078754 
L 223.089034 234.218125 
L 223.089034 234.218125 
L 223.265668 232.886012 
L 223.265668 232.886012 
L 223.442303 229.56183 
L 223.442303 229.56183 
L 223.618938 233.038498 
L 223.618938 233.038498 
L 223.795572 230.279121 
L 223.795572 230.279121 
L 223.972207 233.244658 
L 223.972207 233.244658 
L 224.148842 230.658505 
L 224.148842 230.658505 
L 224.325476 233.042158 
L 224.325476 233.042158 
L 224.502111 230.674363 
L 224.502111 230.674363 
L 224.678746 232.424896 
L 224.678746 232.424896 
L 224.85538 230.364513 
L 224.85538 230.364513 
L 225.032015 225.727735 
L 225.032015 225.727735 
L 225.20865 230.543836 
L 225.20865 230.543836 
L 225.385284 226.764636 
L 225.385284 226.764636 
L 225.561919 231.345299 
L 225.561919 231.345299 
L 225.738554 228.040635 
L 225.738554 228.040635 
L 225.915188 232.206537 
L 225.915188 232.206537 
L 226.091823 229.353229 
L 226.091823 229.353229 
L 226.268458 233.042158 
L 226.268458 233.042158 
L 226.445092 230.562134 
L 226.445092 230.562134 
L 226.621727 233.566708 
L 226.621727 233.566708 
L 226.798362 231.262347 
L 226.798362 231.262347 
L 226.974997 233.454478 
L 226.974997 233.454478 
L 227.151631 231.506324 
L 227.151631 231.506324 
L 227.328266 233.33005 
L 227.328266 233.33005 
L 227.504901 231.962561 
L 227.504901 231.962561 
L 227.681535 227.506326 
L 227.681535 227.506326 
L 227.85817 234.054661 
L 228.034805 231.828373 
L 228.034805 231.828373 
L 228.211439 238.843924 
L 228.211439 238.843924 
L 228.388074 238.541393 
L 228.388074 238.541393 
L 228.564709 245.334925 
L 228.564709 245.334925 
L 228.741343 245.90705 
L 228.741343 245.90705 
L 228.917978 251.924736 
L 228.917978 251.924736 
L 229.094613 252.909182 
L 229.094613 252.909182 
L 229.271247 258.48405 
L 229.271247 258.48405 
L 229.447882 260.011345 
L 229.447882 260.011345 
L 229.801151 267.223297 
L 229.801151 267.223297 
L 229.977786 267.375782 
L 229.977786 267.375782 
L 230.154421 274.763397 
L 230.154421 274.763397 
L 230.331055 275.771021 
L 230.331055 275.771021 
L 230.50769 282.712159 
L 230.684325 284.650554 
L 230.684325 284.650554 
L 231.037594 294.708494 
L 231.037594 294.708494 
L 232.274037 254.751206 
L 232.274037 254.751206 
L 233.15721 222.824412 
L 233.15721 222.824412 
L 233.687114 209.065345 
L 233.687114 209.065345 
L 233.863749 209.791176 
L 233.863749 209.791176 
L 234.040384 209.387394 
L 234.040384 209.387394 
L 234.217018 210.186418 
L 234.217018 210.186418 
L 234.923557 244.661549 
L 234.923557 244.661549 
L 235.630096 294.787787 
L 235.630096 294.787787 
L 236.513269 246.987867 
L 236.513269 246.987867 
L 237.043173 231.724683 
L 237.043173 231.724683 
L 237.396443 226.526759 
L 237.396443 226.526759 
L 237.573077 225.172688 
L 237.573077 225.172688 
L 237.926347 221.858265 
L 237.926347 221.858265 
L 238.279616 220.577387 
L 238.279616 220.577387 
L 238.632886 217.149514 
L 238.632886 217.149514 
L 239.16279 211.764947 
L 239.16279 211.764947 
L 239.516059 205.537442 
L 239.516059 205.537442 
L 240.222598 197.294688 
L 240.222598 197.294688 
L 240.399232 197.122684 
L 240.399232 197.122684 
L 240.575867 198.147387 
L 240.575867 198.147387 
L 241.105771 205.681388 
L 241.105771 205.681388 
L 242.165579 227.323343 
L 242.165579 227.323343 
L 242.518849 233.337369 
L 242.518849 233.337369 
L 242.695483 234.346213 
L 242.695483 234.346213 
L 243.225387 242.588967 
L 243.225387 242.588967 
L 243.402022 245.964385 
L 243.402022 245.964385 
L 243.578657 246.75243 
L 243.578657 246.75243 
L 244.638465 263.944249 
L 244.638465 263.944249 
L 244.815099 264.860382 
L 244.815099 264.860382 
L 245.345003 272.368766 
L 245.345003 272.368766 
L 245.521638 272.247997 
L 245.521638 272.247997 
L 245.874908 276.222378 
L 245.874908 276.222378 
L 246.051542 276.212619 
L 246.051542 276.212619 
L 247.287985 288.099165 
L 247.287985 288.099165 
L 247.641254 294.329111 
L 247.641254 294.329111 
L 247.817889 292.088184 
L 247.817889 292.088184 
L 249.584236 232.760364 
L 249.584236 232.760364 
L 249.760871 234.264481 
L 249.760871 234.264481 
L 249.937505 230.348655 
L 249.937505 230.348655 
L 250.11414 231.96988 
L 250.11414 231.96988 
L 250.467409 230.103458 
L 250.467409 230.103458 
L 250.644044 234.749995 
L 250.644044 234.749995 
L 250.997313 236.942125 
L 250.997313 236.942125 
L 251.350583 246.464537 
L 251.350583 246.464537 
L 251.527217 248.505402 
L 251.527217 248.505402 
L 251.880487 259.930832 
L 251.880487 259.930832 
L 252.233756 270.954921 
L 252.233756 270.954921 
L 252.410391 274.708502 
L 252.410391 274.708502 
L 252.76366 286.464521 
L 252.76366 286.464521 
L 253.116929 293.70453 
L 253.116929 293.70453 
L 254.000103 274.330339 
L 254.000103 274.330339 
L 254.353372 264.979931 
L 254.353372 264.979931 
L 254.706642 256.362673 
L 254.706642 256.362673 
L 254.883276 253.487407 
L 254.883276 253.487407 
L 255.236546 244.632272 
L 255.236546 244.632272 
L 255.41318 241.532548 
L 255.41318 241.532548 
L 255.76645 232.060151 
L 255.76645 232.060151 
L 255.943084 228.560305 
L 255.943084 228.560305 
L 256.296354 219.096448 
L 256.296354 219.096448 
L 256.649623 211.292853 
L 256.649623 211.292853 
L 257.532797 197.521586 
L 257.532797 197.521586 
L 257.709431 196.126039 
L 257.709431 196.126039 
L 258.062701 191.369713 
L 258.062701 191.369713 
L 258.239335 190.413324 
L 258.239335 190.413324 
L 258.592605 187.267245 
L 258.592605 187.267245 
L 258.945874 185.766788 
L 258.945874 185.766788 
L 259.299143 182.291339 
L 259.299143 182.291339 
L 259.652413 179.388016 
L 259.652413 179.388016 
L 260.358951 170.33648 
L 260.358951 170.33648 
L 260.712221 166.207174 
L 260.712221 166.207174 
L 261.06549 163.721051 
L 261.06549 163.721051 
L 261.41876 162.619496 
L 261.41876 162.619496 
L 261.595394 163.065974 
L 261.595394 163.065974 
L 261.772029 164.193146 
L 261.772029 164.193146 
L 262.125298 168.681098 
L 262.125298 168.681098 
L 262.655202 181.294694 
L 262.655202 181.294694 
L 263.71501 216.413924 
L 263.71501 216.413924 
L 265.481357 275.351381 
L 265.481357 275.351381 
L 265.834627 282.828048 
L 265.834627 282.828048 
L 266.011261 295.488 
L 266.011261 295.488 
L 266.187896 289.009198 
L 266.187896 289.009198 
L 266.7178 295.373331 
L 266.7178 295.373331 
L 266.894435 295.488 
L 266.894435 295.488 
L 267.247704 290.130271 
L 267.247704 290.130271 
L 267.600973 287.973517 
L 267.600973 287.973517 
L 267.777608 295.488 
L 267.777608 295.488 
L 267.954243 286.748754 
L 267.954243 286.748754 
L 268.130877 286.810968 
L 268.130877 286.810968 
L 268.484147 288.476109 
L 268.484147 288.476109 
L 268.660781 295.488 
L 268.660781 295.488 
L 268.837416 290.992729 
L 268.837416 290.992729 
L 269.36732 294.798766 
L 269.36732 294.798766 
L 269.543955 295.488 
L 269.543955 295.488 
L 269.72059 291.938139 
L 269.72059 291.938139 
L 270.250494 288.589558 
L 270.250494 288.589558 
L 270.427128 295.488 
L 270.427128 295.488 
L 270.603763 286.699958 
L 270.603763 286.699958 
L 271.133667 283.273305 
L 271.133667 283.273305 
L 271.663571 277.610606 
L 271.663571 277.610606 
L 272.37011 270.723143 
L 272.37011 270.723143 
L 272.546744 269.780173 
L 272.546744 269.780173 
L 272.900014 269.999752 
L 272.900014 269.999752 
L 273.076649 270.638971 
L 273.076649 270.638971 
L 273.429918 273.410546 
L 273.429918 273.410546 
L 274.313091 288.555401 
L 274.313091 288.555401 
L 274.666361 294.413283 
L 274.666361 294.413283 
L 274.842995 295.488 
L 274.842995 295.488 
L 275.196265 283.478246 
L 275.196265 283.478246 
L 275.726169 273.459342 
L 275.726169 273.459342 
L 276.256073 266.796337 
L 276.256073 266.796337 
L 276.785977 263.205 
L 276.785977 263.205 
L 277.66915 259.144007 
L 277.66915 259.144007 
L 277.845785 258.924428 
L 277.845785 258.924428 
L 278.02242 259.161086 
L 278.199054 259.672217 
L 278.199054 259.672217 
L 278.552324 261.988776 
L 278.552324 261.988776 
L 279.082228 268.662759 
L 279.082228 268.662759 
L 279.965401 284.252872 
L 279.965401 284.252872 
L 280.67194 295.407488 
L 280.67194 295.407488 
L 280.848575 293.248294 
L 280.848575 293.248294 
L 281.025209 295.488 
L 281.025209 295.488 
L 281.201844 288.848173 
L 281.201844 288.848173 
L 282.085017 278.748757 
L 282.085017 278.748757 
L 282.614921 269.410548 
L 282.614921 269.410548 
L 283.144825 254.323027 
L 283.144825 254.323027 
L 283.674729 234.408427 
L 283.674729 234.408427 
L 284.381268 195.318477 
L 284.381268 195.318477 
L 284.557903 188.938485 
L 284.734538 178.014427 
L 284.734538 178.014427 
L 284.911172 177.918057 
L 284.911172 177.918057 
L 285.087807 167.130626 
L 285.087807 167.130626 
L 285.441076 176.922632 
L 285.441076 176.922632 
L 285.617711 172.860419 
L 285.617711 172.860419 
L 285.794346 180.040654 
L 285.794346 180.040654 
L 285.97098 173.713118 
L 285.97098 173.713118 
L 286.32425 187.694204 
L 286.32425 187.694204 
L 286.500884 182.965935 
L 286.500884 182.965935 
L 286.677519 186.720737 
L 286.677519 186.720737 
L 286.854154 176.531049 
L 286.854154 176.531049 
L 287.030788 180.317568 
L 287.030788 180.317568 
L 287.207423 179.124521 
L 287.207423 179.124521 
L 287.384058 169.330076 
L 287.384058 169.330076 
L 287.560692 168.895797 
L 287.560692 168.895797 
L 287.737327 155.012302 
L 287.737327 155.012302 
L 287.913962 157.153198 
L 287.913962 157.153198 
L 288.090596 156.29318 
L 288.090596 156.29318 
L 288.267231 148.703064 
L 288.267231 148.703064 
L 288.443866 152.190711 
L 288.443866 152.190711 
L 288.620501 145.167841 
L 288.620501 145.167841 
L 288.97377 155.267258 
L 288.97377 155.267258 
L 289.150405 152.571315 
L 289.150405 152.571315 
L 289.327039 157.505744 
L 289.327039 157.505744 
L 289.503674 151.901599 
L 289.503674 151.901599 
L 289.856943 161.463046 
L 289.856943 161.463046 
L 290.033578 154.690253 
L 290.033578 154.690253 
L 290.210213 159.22334 
L 290.210213 159.22334 
L 290.386847 147.341674 
L 290.386847 147.341674 
L 290.563482 153.648472 
L 290.563482 153.648472 
L 290.740117 155.511234 
L 290.916751 144.740882 
L 290.916751 144.740882 
L 291.093386 148.198032 
L 291.093386 148.198032 
L 291.270021 133.769249 
L 291.270021 133.769249 
L 291.446655 139.788154 
L 291.446655 139.788154 
L 291.62329 141.727769 
L 291.62329 141.727769 
L 291.799925 130.780534 
L 291.799925 130.780534 
L 291.97656 135.586875 
L 291.97656 135.586875 
L 292.153194 122.147417 
L 292.153194 122.147417 
L 292.506464 137.066594 
L 292.506464 137.066594 
L 292.683098 132.032134 
L 292.683098 132.032134 
L 292.859733 142.780529 
L 292.859733 142.780529 
L 293.036368 140.592058 
L 293.036368 140.592058 
L 293.389637 166.099824 
L 293.389637 166.099824 
L 293.566272 170.96716 
L 293.566272 170.96716 
L 294.096176 201.630154 
L 294.096176 201.630154 
L 294.62608 226.242526 
L 294.62608 226.242526 
L 294.979349 237.809463 
L 294.979349 237.809463 
L 295.509253 250.823181 
L 295.509253 250.823181 
L 295.685888 252.72132 
L 295.685888 252.72132 
L 296.039157 260.238243 
L 296.039157 260.238243 
L 296.215792 261.483744 
L 296.215792 261.483744 
L 296.392427 264.269958 
L 296.392427 264.269958 
L 296.569061 264.516375 
L 296.569061 264.516375 
L 296.745696 266.620674 
L 296.745696 266.620674 
L 296.922331 265.423968 
L 296.922331 265.423968 
L 297.098965 266.819515 
L 297.098965 266.819515 
L 297.2756 266.918326 
L 297.452235 265.231227 
L 297.452235 265.231227 
L 297.628869 264.820126 
L 297.628869 264.820126 
L 297.805504 262.376699 
L 297.805504 262.376699 
L 297.982139 261.724061 
L 297.982139 261.724061 
L 298.158773 259.050076 
L 298.158773 259.050076 
L 298.335408 258.889052 
L 298.335408 258.889052 
L 298.512043 256.401709 
L 298.512043 256.401709 
L 298.688677 256.860385 
L 298.688677 256.860385 
L 298.865312 254.858556 
L 298.865312 254.858556 
L 299.041947 255.807626 
L 299.041947 255.807626 
L 299.218581 254.000978 
L 299.218581 254.000978 
L 299.395216 255.23794 
L 299.395216 255.23794 
L 299.571851 253.112903 
L 299.571851 253.112903 
L 299.748486 254.325467 
L 299.748486 254.325467 
L 299.92512 252.024767 
L 299.92512 252.024767 
L 300.101755 252.940899 
L 300.101755 252.940899 
L 300.27839 250.382803 
L 300.27839 250.382803 
L 300.455024 250.993965 
L 300.455024 250.993965 
L 300.631659 248.592014 
L 300.631659 248.592014 
L 300.808294 249.383719 
L 300.808294 249.383719 
L 300.984928 247.667342 
L 300.984928 247.667342 
L 301.161563 244.095523 
L 301.161563 244.095523 
L 301.338198 248.820132 
L 301.338198 248.820132 
L 301.514832 247.384329 
L 301.514832 247.384329 
L 301.691467 253.449591 
L 301.691467 253.449591 
L 301.868102 254.560905 
L 301.868102 254.560905 
L 302.221371 266.826834 
L 302.221371 266.826834 
L 302.398006 271.294048 
L 302.398006 271.294048 
L 302.751275 293.345884 
L 302.751275 293.345884 
L 303.281179 261.20805 
L 303.281179 261.20805 
L 303.987718 207.12207 
L 303.987718 207.12207 
L 304.517622 177.293476 
L 304.517622 177.293476 
L 304.870891 166.24621 
L 304.870891 166.24621 
L 305.400795 160.733556 
L 305.400795 160.733556 
L 305.57743 165.503301 
L 305.57743 165.503301 
L 305.754065 165.367894 
L 305.754065 165.367894 
L 305.930699 171.38558 
L 305.930699 171.38558 
L 306.107334 171.952826 
L 306.107334 171.952826 
L 306.283969 177.56429 
L 306.283969 177.56429 
L 306.460603 177.14831 
L 306.460603 177.14831 
L 306.637238 181.083655 
L 306.637238 181.083655 
L 306.813873 178.791493 
L 306.813873 178.791493 
L 306.990507 180.954347 
L 306.990507 180.954347 
L 307.167142 176.890915 
L 307.167142 176.890915 
L 307.343777 177.475239 
L 307.520412 172.061395 
L 307.520412 172.061395 
L 307.697046 171.705189 
L 307.697046 171.705189 
L 307.873681 165.482563 
L 307.873681 165.482563 
L 308.050316 165.793633 
L 308.050316 165.793633 
L 308.22695 160.137033 
L 308.22695 160.137033 
L 308.403585 161.707023 
L 308.403585 161.707023 
L 308.58022 157.868049 
L 308.58022 157.868049 
L 308.756854 162.027853 
L 308.756854 162.027853 
L 308.933489 160.320015 
L 308.933489 160.320015 
L 309.110124 166.198635 
L 309.110124 166.198635 
L 309.286758 166.031511 
L 309.286758 166.031511 
L 309.463393 173.05804 
L 309.463393 173.05804 
L 309.640028 172.398083 
L 309.640028 172.398083 
L 309.993297 179.66371 
L 309.993297 179.66371 
L 310.169932 176.537148 
L 310.169932 176.537148 
L 310.346566 175.796679 
L 310.346566 175.796679 
L 310.523201 168.86896 
L 310.523201 168.86896 
L 310.699836 167.201379 
L 310.699836 167.201379 
L 310.87647 157.192234 
L 310.87647 157.192234 
L 311.053105 156.28586 
L 311.053105 156.28586 
L 311.22974 146.037618 
L 311.22974 146.037618 
L 311.406375 148.185833 
L 311.406375 148.185833 
L 311.583009 148.183393 
L 311.583009 148.183393 
L 311.759644 145.575282 
L 311.759644 145.575282 
L 311.936279 151.56857 
L 311.936279 151.56857 
L 312.112913 153.432553 
L 312.112913 153.432553 
L 313.87926 276.946989 
L 313.87926 276.946989 
L 314.055895 273.345892 
L 314.055895 273.345892 
L 314.232529 280.588341 
L 314.232529 280.588341 
L 314.409164 281.121431 
L 314.409164 281.121431 
L 315.115703 249.1556 
L 315.115703 249.1556 
L 315.292338 232.129685 
L 315.292338 232.129685 
L 315.468972 228.346825 
L 315.468972 228.346825 
L 315.645607 212.660342 
L 315.645607 212.660342 
L 315.822242 213.106819 
L 315.822242 213.106819 
L 315.998876 212.191907 
L 315.998876 212.191907 
L 316.175511 207.029359 
L 316.175511 207.029359 
L 316.352146 212.173608 
L 316.52878 210.987882 
L 316.52878 210.987882 
L 316.705415 220.626182 
L 316.705415 220.626182 
L 316.88205 220.970189 
L 316.88205 220.970189 
L 317.235319 240.03819 
L 317.235319 240.03819 
L 317.411954 242.862221 
L 317.411954 242.862221 
L 317.588588 250.026597 
L 317.588588 250.026597 
L 317.765223 250.514551 
L 317.765223 250.514551 
L 317.941858 256.205308 
L 317.941858 256.205308 
L 318.118492 254.331566 
L 318.118492 254.331566 
L 318.295127 258.675572 
L 318.295127 258.675572 
L 318.471762 255.435561 
L 318.471762 255.435561 
L 318.648396 258.192498 
L 318.648396 258.192498 
L 318.825031 258.365722 
L 318.825031 258.365722 
L 319.001666 255.581947 
L 319.001666 255.581947 
L 319.178301 255.483137 
L 319.178301 255.483137 
L 319.354935 252.283382 
L 319.354935 252.283382 
L 319.53157 251.696618 
L 319.53157 251.696618 
L 319.708205 247.705159 
L 319.708205 247.705159 
L 319.884839 246.631661 
L 319.884839 246.631661 
L 320.061474 242.144929 
L 320.061474 242.144929 
L 320.238109 241.09217 
L 320.238109 241.09217 
L 320.414743 236.155301 
L 320.414743 236.155301 
L 320.591378 235.503883 
L 320.591378 235.503883 
L 320.768013 230.026605 
L 320.768013 230.026605 
L 320.944647 230.069301 
L 320.944647 230.069301 
L 321.121282 228.699372 
L 321.121282 228.699372 
L 321.297917 225.687479 
L 321.297917 225.687479 
L 321.474551 225.481319 
L 321.474551 225.481319 
L 321.651186 223.407517 
L 321.651186 223.407517 
L 321.827821 224.618861 
L 321.827821 224.618861 
L 322.004455 223.68809 
L 322.004455 223.68809 
L 322.18109 226.075402 
L 322.18109 226.075402 
L 322.357725 226.436488 
L 322.357725 226.436488 
L 322.887629 236.722546 
L 322.887629 236.722546 
L 323.064264 239.477044 
L 323.064264 239.477044 
L 323.240898 240.405375 
L 323.240898 240.405375 
L 323.417533 248.507842 
L 323.417533 248.507842 
L 323.594168 250.976887 
L 323.594168 250.976887 
L 323.770802 259.403843 
L 323.770802 259.403843 
L 323.947437 262.460871 
L 323.947437 262.460871 
L 324.477341 283.142778 
L 324.477341 283.142778 
L 324.83061 295.223285 
L 324.83061 295.223285 
L 325.537149 270.890267 
L 325.537149 270.890267 
L 326.067053 251.755172 
L 326.067053 251.755172 
L 326.596957 239.007388 
L 326.596957 239.007388 
L 326.950227 233.898516 
L 326.950227 233.898516 
L 327.303496 231.539261 
L 327.303496 231.539261 
L 327.480131 231.068386 
L 327.480131 231.068386 
L 327.656765 231.184275 
L 327.656765 231.184275 
L 328.010035 232.5969 
L 328.010035 232.5969 
L 328.363304 235.791775 
L 328.363304 235.791775 
L 328.716573 240.720105 
L 328.716573 240.720105 
L 329.069843 248.481005 
L 329.069843 248.481005 
L 329.423112 260.907959 
L 329.423112 260.907959 
L 330.129651 290.011942 
L 330.129651 290.011942 
L 331.366094 221.134874 
L 331.366094 221.134874 
L 331.542728 220.052837 
L 331.542728 220.052837 
L 331.719363 214.891509 
L 331.719363 214.891509 
L 331.895998 216.03454 
L 331.895998 216.03454 
L 332.072632 213.683824 
L 332.072632 213.683824 
L 332.249267 216.304134 
L 332.249267 216.304134 
L 332.425902 216.129691 
L 332.425902 216.129691 
L 332.602536 213.777755 
L 332.602536 213.777755 
L 332.779171 220.693276 
L 332.955806 219.422157 
L 332.955806 219.422157 
L 333.13244 225.833865 
L 333.13244 225.833865 
L 333.309075 225.220264 
L 333.309075 225.220264 
L 333.48571 230.60605 
L 333.48571 230.60605 
L 333.662344 230.043684 
L 333.662344 230.043684 
L 333.838979 234.022944 
L 333.838979 234.022944 
L 334.015614 233.267836 
L 334.015614 233.267836 
L 334.192248 235.392873 
L 334.192248 235.392873 
L 334.368883 233.558168 
L 334.368883 233.558168 
L 334.545518 234.027824 
L 334.545518 234.027824 
L 334.722153 230.956157 
L 334.722153 230.956157 
L 334.898787 230.454784 
L 334.898787 230.454784 
L 335.075422 227.003734 
L 335.252057 220.346829 
L 335.428691 223.146462 
L 335.428691 223.146462 
L 335.605326 217.165372 
L 335.605326 217.165372 
L 335.781961 220.722553 
L 335.781961 220.722553 
L 335.958595 215.684434 
L 335.958595 215.684434 
L 336.13523 219.753965 
L 336.13523 219.753965 
L 336.311865 215.467294 
L 336.311865 215.467294 
L 336.488499 219.925969 
L 336.488499 219.925969 
L 336.665134 216.914076 
L 336.665134 216.914076 
L 336.841769 221.571592 
L 336.841769 221.571592 
L 337.018403 219.70273 
L 337.018403 219.70273 
L 337.195038 224.727431 
L 337.195038 224.727431 
L 337.371673 224.040636 
L 337.371673 224.040636 
L 337.548307 229.364208 
L 337.548307 229.364208 
L 337.724942 230.388911 
L 337.724942 230.388911 
L 338.078211 238.806108 
L 338.078211 238.806108 
L 338.254846 239.651487 
L 338.254846 239.651487 
L 338.431481 249.914368 
L 338.431481 249.914368 
L 338.608116 252.788414 
L 338.608116 252.788414 
L 339.13802 279.925945 
L 339.13802 279.925945 
L 339.491289 292.24189 
L 339.491289 292.24189 
L 340.197828 251.799088 
L 340.197828 251.799088 
L 340.904366 215.396541 
L 340.904366 215.396541 
L 341.43427 197.815578 
L 341.43427 197.815578 
L 341.610905 198.135188 
L 341.610905 198.135188 
L 341.78754 195.022045 
L 341.78754 195.022045 
L 341.964174 197.463032 
L 341.964174 197.463032 
L 342.140809 196.998256 
L 342.140809 196.998256 
L 342.317444 200.72744 
L 342.317444 200.72744 
L 342.494079 201.872911 
L 342.494079 201.872911 
L 342.670713 201.287367 
L 342.670713 201.287367 
L 342.847348 209.021429 
L 342.847348 209.021429 
L 343.023983 209.865589 
L 343.023983 209.865589 
L 343.200617 217.29468 
L 343.200617 217.29468 
L 343.377252 219.050092 
L 343.377252 219.050092 
L 343.553887 225.737494 
L 343.730521 228.19068 
L 343.730521 228.19068 
L 343.907156 226.693883 
L 343.907156 226.693883 
L 344.083791 237.298331 
L 344.083791 237.298331 
L 344.260425 236.887231 
L 344.260425 236.887231 
L 344.43706 248.284603 
L 344.43706 248.284603 
L 344.613695 251.15377 
L 344.613695 251.15377 
L 344.966964 273.011644 
L 344.966964 273.011644 
L 345.320233 289.208039 
L 345.320233 289.208039 
L 345.496868 277.371508 
L 345.496868 277.371508 
L 346.203407 204.177271 
L 346.203407 204.177271 
L 346.909946 143.733258 
L 346.909946 143.733258 
L 347.263215 126.30966 
L 347.263215 126.30966 
L 347.616484 119.910151 
L 347.616484 119.910151 
L 348.323023 162.742704 
L 348.323023 162.742704 
L 348.852927 207.328231 
L 348.852927 207.328231 
L 349.206196 236.37 
L 349.206196 236.37 
L 349.736101 268.046718 
L 349.736101 268.046718 
L 350.08937 285.067754 
L 350.08937 285.067754 
L 350.266005 293.736247 
L 350.266005 293.736247 
L 350.442639 295.488 
L 350.442639 295.488 
L 351.502447 264.527354 
L 351.502447 264.527354 
L 351.679082 262.923207 
L 351.679082 262.923207 
L 351.855717 263.602682 
L 351.855717 263.602682 
L 352.032351 258.090028 
L 352.032351 258.090028 
L 352.208986 259.192803 
L 352.208986 259.192803 
L 352.385621 255.614884 
L 352.385621 255.614884 
L 352.562255 257.575237 
L 352.562255 257.575237 
L 352.73889 255.492896 
L 352.73889 255.492896 
L 352.915525 257.85337 
L 352.915525 257.85337 
L 353.092159 257.004331 
L 353.092159 257.004331 
L 353.268794 259.403843 
L 353.268794 259.403843 
L 353.445429 263.812502 
L 353.445429 263.812502 
L 353.622064 261.491063 
L 353.622064 261.491063 
L 353.798698 265.419089 
L 353.798698 265.419089 
L 353.975333 263.902773 
L 353.975333 263.902773 
L 354.151968 267.364803 
L 354.151968 267.364803 
L 354.328602 266.602376 
L 354.328602 266.602376 
L 354.681872 273.964373 
L 354.681872 273.964373 
L 354.858506 270.686546 
L 354.858506 270.686546 
L 355.035141 273.974132 
L 355.211776 271.369681 
L 355.211776 271.369681 
L 355.38841 273.816768 
L 355.38841 273.816768 
L 355.565045 271.369681 
L 355.565045 271.369681 
L 355.74168 272.348028 
L 355.74168 272.348028 
L 355.918314 274.662147 
L 355.918314 274.662147 
L 356.094949 269.922899 
L 356.094949 269.922899 
L 356.271584 271.06837 
L 356.271584 271.06837 
L 356.448218 266.780479 
L 356.448218 266.780479 
L 356.624853 266.86831 
L 356.624853 266.86831 
L 356.801488 263.196461 
L 356.801488 263.196461 
L 356.978122 262.423055 
L 356.978122 262.423055 
L 357.154757 262.912228 
L 357.331392 258.330345 
L 357.331392 258.330345 
L 357.508027 258.37792 
L 357.508027 258.37792 
L 357.684661 255.037879 
L 357.684661 255.037879 
L 357.861296 254.584082 
L 357.861296 254.584082 
L 358.037931 255.008602 
L 358.037931 255.008602 
L 358.214565 251.535593 
L 358.214565 251.535593 
L 358.3912 251.896679 
L 358.3912 251.896679 
L 358.567835 250.286432 
L 358.567835 250.286432 
L 358.744469 251.478259 
L 358.744469 251.478259 
L 358.921104 254.118087 
L 358.921104 254.118087 
L 359.097739 254.359624 
L 359.097739 254.359624 
L 360.510816 285.781386 
L 360.510816 285.781386 
L 360.687451 290.907337 
L 360.687451 290.907337 
L 360.864085 292.304104 
L 360.864085 292.304104 
L 361.04072 295.488 
L 361.217355 290.420603 
L 361.217355 290.420603 
L 361.39399 290.77071 
L 361.39399 290.77071 
L 361.747259 285.097031 
L 361.747259 285.097031 
L 361.923894 287.218409 
L 361.923894 287.218409 
L 362.277163 283.64659 
L 362.277163 283.64659 
L 362.453798 287.091541 
L 362.453798 287.091541 
L 362.630432 286.440123 
L 362.630432 286.440123 
L 362.807067 285.348327 
L 362.807067 285.348327 
L 362.983702 290.188826 
L 362.983702 290.188826 
L 363.160336 290.8805 
L 363.160336 290.8805 
L 363.336971 294.954911 
L 363.336971 294.954911 
L 363.69024 291.053723 
L 363.69024 291.053723 
L 364.04351 281.145828 
L 364.04351 281.145828 
L 364.220144 277.499596 
L 364.220144 277.499596 
L 364.573414 266.077826 
L 364.573414 266.077826 
L 364.926683 254.739008 
L 364.926683 254.739008 
L 365.986491 220.894556 
L 365.986491 220.894556 
L 366.339761 207.802765 
L 366.339761 207.802765 
L 367.576203 174.265725 
L 367.576203 174.265725 
L 368.282742 162.828096 
L 368.282742 162.828096 
L 368.636011 160.0614 
L 368.636011 160.0614 
L 368.812646 159.54295 
L 368.812646 159.54295 
L 368.989281 159.588085 
L 368.989281 159.588085 
L 369.165916 160.205346 
L 369.165916 160.205346 
L 369.519185 163.370944 
L 369.519185 163.370944 
L 369.872454 169.28494 
L 369.872454 169.28494 
L 370.402358 183.33556 
L 370.402358 183.33556 
L 373.228513 268.224821 
L 373.228513 268.224821 
L 373.935052 282.212007 
L 373.935052 282.212007 
L 374.464956 288.546862 
L 374.464956 288.546862 
L 374.641591 290.218103 
L 374.641591 290.218103 
L 374.818225 295.488 
L 374.818225 295.488 
L 374.99486 293.416638 
L 374.99486 293.416638 
L 375.171495 295.17693 
L 375.171495 295.17693 
L 375.524764 292.208953 
L 375.524764 292.208953 
L 375.701399 295.488 
L 375.701399 295.488 
L 375.878033 288.724965 
L 375.878033 288.724965 
L 376.407937 284.766443 
L 376.407937 284.766443 
L 376.761207 283.841771 
L 376.761207 283.841771 
L 376.937842 283.74662 
L 376.937842 283.74662 
L 377.291111 284.290688 
L 377.291111 284.290688 
L 377.467746 295.488 
L 377.467746 295.488 
L 377.64438 285.156806 
L 377.64438 285.156806 
L 377.99765 285.747229 
L 377.99765 285.747229 
L 378.174284 285.63256 
L 378.174284 285.63256 
L 378.350919 295.488 
L 378.350919 295.488 
L 378.527554 284.956745 
L 378.527554 284.956745 
L 379.057458 283.905205 
L 379.057458 283.905205 
L 379.234092 283.789316 
L 379.410727 283.977178 
L 379.410727 283.977178 
L 379.587362 284.58224 
L 379.587362 284.58224 
L 379.940631 286.852444 
L 379.940631 286.852444 
L 380.117266 295.488 
L 380.117266 295.488 
L 380.2939 289.921671 
L 380.2939 289.921671 
L 380.823805 295.309897 
L 380.823805 295.309897 
L 381.000439 295.488 
L 381.000439 295.488 
L 381.177074 292.853051 
L 381.177074 292.853051 
L 381.706978 290.749972 
L 381.706978 290.749972 
L 381.883613 295.488 
L 381.883613 295.488 
L 382.060247 290.097334 
L 382.413517 289.277572 
L 382.413517 289.277572 
L 382.590151 288.588338 
L 382.590151 288.588338 
L 382.766786 295.488 
L 382.766786 295.488 
L 382.943421 286.850004 
L 382.943421 286.850004 
L 383.826594 282.203467 
L 383.826594 282.203467 
L 384.003229 281.817984 
L 384.003229 281.817984 
L 384.179863 281.797246 
L 384.179863 281.797246 
L 384.533133 282.577972 
L 384.533133 282.577972 
L 385.239672 285.494713 
L 385.239672 285.494713 
L 385.416306 295.488 
L 385.416306 295.488 
L 385.592941 286.288858 
L 385.592941 286.288858 
L 385.94621 286.308376 
L 385.94621 286.308376 
L 386.122845 286.180288 
L 386.122845 286.180288 
L 386.29948 295.488 
L 386.29948 295.488 
L 386.476114 285.84116 
L 386.476114 285.84116 
L 386.652749 285.805784 
L 386.652749 285.805784 
L 386.829384 286.019263 
L 387.006018 286.557232 
L 387.006018 286.557232 
L 387.182653 295.488 
L 387.182653 295.488 
L 387.359288 288.25043 
L 387.359288 288.25043 
L 387.889192 291.696602 
L 387.889192 291.696602 
L 388.065826 295.488 
L 388.065826 295.488 
L 388.242461 293.794802 
L 388.242461 293.794802 
L 388.595731 294.86098 
L 388.595731 294.86098 
L 388.772365 294.940272 
L 388.772365 294.940272 
L 388.949 295.488 
L 388.949 295.488 
L 389.125635 294.688976 
L 389.125635 294.688976 
L 389.478904 294.208342 
L 389.478904 294.208342 
L 389.655539 294.082694 
L 389.655539 294.082694 
L 389.832173 295.488 
L 389.832173 295.488 
L 390.008808 294.44256 
L 390.008808 294.44256 
L 390.715347 295.488 
L 390.715347 295.488 
L 390.891981 294.552349 
L 390.891981 294.552349 
L 391.068616 294.402304 
L 391.068616 294.402304 
L 391.245251 294.469397 
L 391.245251 294.469397 
L 391.421885 294.759729 
L 391.421885 294.759729 
L 391.59852 295.488 
L 391.59852 295.488 
L 391.775155 295.453843 
L 391.775155 295.453843 
L 392.128424 294.742651 
L 392.128424 294.742651 
L 392.305059 294.580407 
L 392.481694 295.488 
L 392.658328 294.995167 
L 392.658328 294.995167 
L 392.834963 295.38065 
L 392.834963 295.38065 
L 393.188232 294.455978 
L 393.188232 294.455978 
L 393.364867 295.488 
L 393.364867 295.488 
L 393.541502 293.371502 
L 393.541502 293.371502 
L 393.894771 292.943323 
L 393.894771 292.943323 
L 394.071406 293.056772 
L 394.071406 293.056772 
L 394.24804 295.488 
L 394.24804 295.488 
L 394.424675 293.460553 
L 394.424675 293.460553 
L 394.777944 293.836278 
L 394.777944 293.836278 
L 394.954579 293.839937 
L 394.954579 293.839937 
L 395.131214 295.488 
L 395.131214 295.488 
L 395.307848 293.138504 
L 395.307848 293.138504 
L 395.661118 292.365098 
L 395.661118 292.365098 
L 395.837752 292.126001 
L 395.837752 292.126001 
L 396.014387 295.488 
L 396.191022 292.105263 
L 396.191022 292.105263 
L 396.367657 292.604195 
L 396.367657 292.604195 
L 396.897561 295.488 
L 396.897561 295.488 
L 397.25083 288.489528 
L 397.25083 288.489528 
L 397.604099 285.237318 
L 397.604099 285.237318 
L 397.780734 284.030853 
L 397.780734 284.030853 
L 397.957369 284.879892 
L 397.957369 284.879892 
L 398.134003 292.882329 
L 398.134003 292.882329 
L 398.310638 286.36815 
L 398.310638 286.36815 
L 398.487273 252.218728 
L 398.487273 252.218728 
" clip-path="url(#pacce4612eb)" style="fill: none; stroke: #1f77b4; stroke-width: 1.5; stroke-linecap: square"/>
   </g>
   <g id="patch_3">
    <path d="M 57.6 307.584 
L 57.6 41.472 
" style="fill: none; stroke: #000000; stroke-width: 0.8; stroke-linejoin: miter; stroke-linecap: square"/>
   </g>
   <g id="patch_4">
    <path d="M 414.72 307.584 
L 414.72 41.472 
" style="fill: none; stroke: #000000; stroke-width: 0.8; stroke-linejoin: miter; stroke-linecap: square"/>
   </g>
   <g id="patch_5">
    <path d="M 57.6 307.584 
L 414.72 307.584 
" style="fill: none; stroke: #000000; stroke-width: 0.8; stroke-linejoin: miter; stroke-linecap: square"/>
   </g>
   <g id="patch_6">
    <path d="M 57.6 41.472 
L 414.72 41.472 
" style="fill: none; stroke: #000000; stroke-width: 0.8; stroke-linejoin: miter; stroke-linecap: square"/>
   </g>
   <g id="text_20">
    <!-- Tracking error vs Time -->
    <g transform="translate(169.584375 35.472) scale(0.12 -0.12)">
     <defs>
      <path id="DejaVuSans-76" d="M 191 3500 
L 800 3500 
L 1894 563 
L 2988 3500 
L 3597 3500 
L 2284 0 
L 1503 0 
L 191 3500 
z
" transform="scale(0.015625)"/>
     </defs>
     <use xlink:href="#DejaVuSans-54"/>
     <use xlink:href="#DejaVuSans-72" x="46.333984"/>
     <use xlink:href="#DejaVuSans-61" x="87.447266"/>
     <use xlink:href="#DejaVuSans-63" x="148.726562"/>
     <use xlink:href="#DejaVuSans-6b" x="203.707031"/>
     <use xlink:href="#DejaVuSans-69" x="261.617188"/>
     <use xlink:href="#DejaVuSans-6e" x="289.400391"/>
     <use xlink:href="#DejaVuSans-67" x="352.779297"/>
     <use xlink:href="#DejaVuSans-20" x="416.255859"/>
     <use xlink:href="#DejaVuSans-65" x="448.042969"/>
     <use xlink:href="#DejaVuSans-72" x="509.566406"/>
     <use xlink:href="#DejaVuSans-72" x="548.929688"/>
     <use xlink:href="#DejaVuSans-6f" x="587.792969"/>
     <use xlink:href="#DejaVuSans-72" x="648.974609"/>
     <use xlink:href="#DejaVuSans-20" x="690.087891"/>
     <use xlink:href="#DejaVuSans-76" x="721.875"/>
     <use xlink:href="#DejaVuSans-73" x="781.054688"/>
     <use xlink:href="#DejaVuSans-20" x="833.154297"/>
     <use xlink:href="#DejaVuSans-54" x="864.941406"/>
     <use xlink:href="#DejaVuSans-69" x="922.900391"/>
     <use xlink:href="#DejaVuSans-6d" x="950.683594"/>
     <use xlink:href="#DejaVuSans-65" x="1048.095703"/>
    </g>
   </g>
   <g id="legend_1">
    <g id="patch_7">
     <path d="M 311.00125 64.150125 
L 407.72 64.150125 
Q 409.72 64.150125 409.72 62.150125 
L 409.72 48.472 
Q 409.72 46.472 407.72 46.472 
L 311.00125 46.472 
Q 309.00125 46.472 309.00125 48.472 
L 309.00125 62.150125 
Q 309.00125 64.150125 311.00125 64.150125 
z
" style="fill: #ffffff; opacity: 0.8; stroke: #cccccc; stroke-linejoin: miter"/>
    </g>
    <g id="line2d_36">
     <path d="M 313.00125 54.570438 
L 323.00125 54.570438 
L 333.00125 54.570438 
" style="fill: none; stroke: #1f77b4; stroke-width: 1.5; stroke-linecap: square"/>
    </g>
    <g id="text_21">
     <!-- Actual speed -->
     <g transform="translate(341.00125 58.070438) scale(0.1 -0.1)">
      <defs>
       <path id="DejaVuSans-41" d="M 2188 4044 
L 1331 1722 
L 3047 1722 
L 2188 4044 
z
M 1831 4666 
L 2547 4666 
L 4325 0 
L 3669 0 
L 3244 1197 
L 1141 1197 
L 716 0 
L 50 0 
L 1831 4666 
z
" transform="scale(0.015625)"/>
       <path id="DejaVuSans-74" d="M 1172 4494 
L 1172 3500 
L 2356 3500 
L 2356 3053 
L 1172 3053 
L 1172 1153 
Q 1172 725 1289 603 
Q 1406 481 1766 481 
L 2356 481 
L 2356 0 
L 1766 0 
Q 1100 0 847 248 
Q 594 497 594 1153 
L 594 3053 
L 172 3053 
L 172 3500 
L 594 3500 
L 594 4494 
L 1172 4494 
z
" transform="scale(0.015625)"/>
       <path id="DejaVuSans-75" d="M 544 1381 
L 544 3500 
L 1119 3500 
L 1119 1403 
Q 1119 906 1312 657 
Q 1506 409 1894 409 
Q 2359 409 2629 706 
Q 2900 1003 2900 1516 
L 2900 3500 
L 3475 3500 
L 3475 0 
L 2900 0 
L 2900 538 
Q 2691 219 2414 64 
Q 2138 -91 1772 -91 
Q 1169 -91 856 284 
Q 544 659 544 1381 
z
M 1991 3584 
L 1991 3584 
z
" transform="scale(0.015625)"/>
       <path id="DejaVuSans-6c" d="M 603 4863 
L 1178 4863 
L 1178 0 
L 603 0 
L 603 4863 
z
" transform="scale(0.015625)"/>
       <path id="DejaVuSans-70" d="M 1159 525 
L 1159 -1331 
L 581 -1331 
L 581 3500 
L 1159 3500 
L 1159 2969 
Q 1341 3281 1617 3432 
Q 1894 3584 2278 3584 
Q 2916 3584 3314 3078 
Q 3713 2572 3713 1747 
Q 3713 922 3314 415 
Q 2916 -91 2278 -91 
Q 1894 -91 1617 61 
Q 1341 213 1159 525 
z
M 3116 1747 
Q 3116 2381 2855 2742 
Q 2594 3103 2138 3103 
Q 1681 3103 1420 2742 
Q 1159 2381 1159 1747 
Q 1159 1113 1420 752 
Q 1681 391 2138 391 
Q 2594 391 2855 752 
Q 3116 1113 3116 1747 
z
" transform="scale(0.015625)"/>
       <path id="DejaVuSans-64" d="M 2906 2969 
L 2906 4863 
L 3481 4863 
L 3481 0 
L 2906 0 
L 2906 525 
Q 2725 213 2448 61 
Q 2172 -91 1784 -91 
Q 1150 -91 751 415 
Q 353 922 353 1747 
Q 353 2572 751 3078 
Q 1150 3584 1784 3584 
Q 2172 3584 2448 3432 
Q 2725 3281 2906 2969 
z
M 947 1747 
Q 947 1113 1208 752 
Q 1469 391 1925 391 
Q 2381 391 2643 752 
Q 2906 1113 2906 1747 
Q 2906 2381 2643 2742 
Q 2381 3103 1925 3103 
Q 1469 3103 1208 2742 
Q 947 2381 947 1747 
z
" transform="scale(0.015625)"/>
      </defs>
      <use xlink:href="#DejaVuSans-41"/>
      <use xlink:href="#DejaVuSans-63" x="66.658203"/>
      <use xlink:href="#DejaVuSans-74" x="121.638672"/>
      <use xlink:href="#DejaVuSans-75" x="160.847656"/>
      <use xlink:href="#DejaVuSans-61" x="224.226562"/>
      <use xlink:href="#DejaVuSans-6c" x="285.505859"/>
      <use xlink:href="#DejaVuSans-20" x="313.289062"/>
      <use xlink:href="#DejaVuSans-73" x="345.076172"/>
      <use xlink:href="#DejaVuSans-70" x="397.175781"/>
      <use xlink:href="#DejaVuSans-65" x="460.652344"/>
      <use xlink:href="#DejaVuSans-65" x="522.175781"/>
      <use xlink:href="#DejaVuSans-64" x="583.699219"/>
     </g>
    </g>
   </g>
  </g>
 </g>
 <defs>
  <clipPath id="pacce4612eb">
   <rect x="57.6" y="41.472" width="357.12" height="266.112"/>
  </clipPath>
 </defs>
</svg>
