<?xml version="1.0" encoding="utf-8" standalone="no"?>
<!DOCTYPE svg PUBLIC "-//W3C//DTD SVG 1.1//EN"
  "http://www.w3.org/Graphics/SVG/1.1/DTD/svg11.dtd">
<svg xmlns:xlink="http://www.w3.org/1999/xlink" width="460.8pt" height="345.6pt" viewBox="0 0 460.8 345.6" xmlns="http://www.w3.org/2000/svg" version="1.1">
 <metadata>
  <rdf:RDF xmlns:dc="http://purl.org/dc/elements/1.1/" xmlns:cc="http://creativecommons.org/ns#" xmlns:rdf="http://www.w3.org/1999/02/22-rdf-syntax-ns#">
   <cc:Work>
    <dc:type rdf:resource="http://purl.org/dc/dcmitype/StillImage"/>
    <dc:date>2024-01-30T20:59:03.539962</dc:date>
    <dc:format>image/svg+xml</dc:format>
    <dc:creator>
     <cc:Agent>
      <dc:title>Matplotlib v3.7.1, https://matplotlib.org/</dc:title>
     </cc:Agent>
    </dc:creator>
   </cc:Work>
  </rdf:RDF>
 </metadata>
 <defs>
  <style type="text/css">*{stroke-linejoin: round; stroke-linecap: butt}</style>
 </defs>
 <g id="figure_1">
  <g id="patch_1">
   <path d="M 0 345.6 
L 460.8 345.6 
L 460.8 0 
L 0 0 
z
" style="fill: #ffffff"/>
  </g>
  <g id="axes_1">
   <g id="patch_2">
    <path d="M 57.6 307.584 
L 414.72 307.584 
L 414.72 41.472 
L 57.6 41.472 
z
" style="fill: #ffffff"/>
   </g>
   <g id="matplotlib.axis_1">
    <g id="xtick_1">
     <g id="line2d_1">
      <path d="M 73.832727 307.584 
L 73.832727 41.472 
" clip-path="url(#p4ec2f000ad)" style="fill: none; stroke: #b0b0b0; stroke-width: 0.8; stroke-linecap: square"/>
     </g>
     <g id="line2d_2">
      <defs>
       <path id="mf4401e2781" d="M 0 0 
L 0 3.5 
" style="stroke: #000000; stroke-width: 0.8"/>
      </defs>
      <g>
       <use xlink:href="#mf4401e2781" x="73.832727" y="307.584" style="stroke: #000000; stroke-width: 0.8"/>
      </g>
     </g>
     <g id="text_1">
      <!-- 0 -->
      <g transform="translate(70.651477 322.182437) scale(0.1 -0.1)">
       <defs>
        <path id="DejaVuSans-30" d="M 2034 4250 
Q 1547 4250 1301 3770 
Q 1056 3291 1056 2328 
Q 1056 1369 1301 889 
Q 1547 409 2034 409 
Q 2525 409 2770 889 
Q 3016 1369 3016 2328 
Q 3016 3291 2770 3770 
Q 2525 4250 2034 4250 
z
M 2034 4750 
Q 2819 4750 3233 4129 
Q 3647 3509 3647 2328 
Q 3647 1150 3233 529 
Q 2819 -91 2034 -91 
Q 1250 -91 836 529 
Q 422 1150 422 2328 
Q 422 3509 836 4129 
Q 1250 4750 2034 4750 
z
" transform="scale(0.015625)"/>
       </defs>
       <use xlink:href="#DejaVuSans-30"/>
      </g>
     </g>
    </g>
    <g id="xtick_2">
     <g id="line2d_3">
      <path d="M 118.015436 307.584 
L 118.015436 41.472 
" clip-path="url(#p4ec2f000ad)" style="fill: none; stroke: #b0b0b0; stroke-width: 0.8; stroke-linecap: square"/>
     </g>
     <g id="line2d_4">
      <g>
       <use xlink:href="#mf4401e2781" x="118.015436" y="307.584" style="stroke: #000000; stroke-width: 0.8"/>
      </g>
     </g>
     <g id="text_2">
      <!-- 5 -->
      <g transform="translate(114.834186 322.182437) scale(0.1 -0.1)">
       <defs>
        <path id="DejaVuSans-35" d="M 691 4666 
L 3169 4666 
L 3169 4134 
L 1269 4134 
L 1269 2991 
Q 1406 3038 1543 3061 
Q 1681 3084 1819 3084 
Q 2600 3084 3056 2656 
Q 3513 2228 3513 1497 
Q 3513 744 3044 326 
Q 2575 -91 1722 -91 
Q 1428 -91 1123 -41 
Q 819 9 494 109 
L 494 744 
Q 775 591 1075 516 
Q 1375 441 1709 441 
Q 2250 441 2565 725 
Q 2881 1009 2881 1497 
Q 2881 1984 2565 2268 
Q 2250 2553 1709 2553 
Q 1456 2553 1204 2497 
Q 953 2441 691 2322 
L 691 4666 
z
" transform="scale(0.015625)"/>
       </defs>
       <use xlink:href="#DejaVuSans-35"/>
      </g>
     </g>
    </g>
    <g id="xtick_3">
     <g id="line2d_5">
      <path d="M 162.198145 307.584 
L 162.198145 41.472 
" clip-path="url(#p4ec2f000ad)" style="fill: none; stroke: #b0b0b0; stroke-width: 0.8; stroke-linecap: square"/>
     </g>
     <g id="line2d_6">
      <g>
       <use xlink:href="#mf4401e2781" x="162.198145" y="307.584" style="stroke: #000000; stroke-width: 0.8"/>
      </g>
     </g>
     <g id="text_3">
      <!-- 10 -->
      <g transform="translate(155.835645 322.182437) scale(0.1 -0.1)">
       <defs>
        <path id="DejaVuSans-31" d="M 794 531 
L 1825 531 
L 1825 4091 
L 703 3866 
L 703 4441 
L 1819 4666 
L 2450 4666 
L 2450 531 
L 3481 531 
L 3481 0 
L 794 0 
L 794 531 
z
" transform="scale(0.015625)"/>
       </defs>
       <use xlink:href="#DejaVuSans-31"/>
       <use xlink:href="#DejaVuSans-30" x="63.623047"/>
      </g>
     </g>
    </g>
    <g id="xtick_4">
     <g id="line2d_7">
      <path d="M 206.380854 307.584 
L 206.380854 41.472 
" clip-path="url(#p4ec2f000ad)" style="fill: none; stroke: #b0b0b0; stroke-width: 0.8; stroke-linecap: square"/>
     </g>
     <g id="line2d_8">
      <g>
       <use xlink:href="#mf4401e2781" x="206.380854" y="307.584" style="stroke: #000000; stroke-width: 0.8"/>
      </g>
     </g>
     <g id="text_4">
      <!-- 15 -->
      <g transform="translate(200.018354 322.182437) scale(0.1 -0.1)">
       <use xlink:href="#DejaVuSans-31"/>
       <use xlink:href="#DejaVuSans-35" x="63.623047"/>
      </g>
     </g>
    </g>
    <g id="xtick_5">
     <g id="line2d_9">
      <path d="M 250.563563 307.584 
L 250.563563 41.472 
" clip-path="url(#p4ec2f000ad)" style="fill: none; stroke: #b0b0b0; stroke-width: 0.8; stroke-linecap: square"/>
     </g>
     <g id="line2d_10">
      <g>
       <use xlink:href="#mf4401e2781" x="250.563563" y="307.584" style="stroke: #000000; stroke-width: 0.8"/>
      </g>
     </g>
     <g id="text_5">
      <!-- 20 -->
      <g transform="translate(244.201063 322.182437) scale(0.1 -0.1)">
       <defs>
        <path id="DejaVuSans-32" d="M 1228 531 
L 3431 531 
L 3431 0 
L 469 0 
L 469 531 
Q 828 903 1448 1529 
Q 2069 2156 2228 2338 
Q 2531 2678 2651 2914 
Q 2772 3150 2772 3378 
Q 2772 3750 2511 3984 
Q 2250 4219 1831 4219 
Q 1534 4219 1204 4116 
Q 875 4013 500 3803 
L 500 4441 
Q 881 4594 1212 4672 
Q 1544 4750 1819 4750 
Q 2544 4750 2975 4387 
Q 3406 4025 3406 3419 
Q 3406 3131 3298 2873 
Q 3191 2616 2906 2266 
Q 2828 2175 2409 1742 
Q 1991 1309 1228 531 
z
" transform="scale(0.015625)"/>
       </defs>
       <use xlink:href="#DejaVuSans-32"/>
       <use xlink:href="#DejaVuSans-30" x="63.623047"/>
      </g>
     </g>
    </g>
    <g id="xtick_6">
     <g id="line2d_11">
      <path d="M 294.746272 307.584 
L 294.746272 41.472 
" clip-path="url(#p4ec2f000ad)" style="fill: none; stroke: #b0b0b0; stroke-width: 0.8; stroke-linecap: square"/>
     </g>
     <g id="line2d_12">
      <g>
       <use xlink:href="#mf4401e2781" x="294.746272" y="307.584" style="stroke: #000000; stroke-width: 0.8"/>
      </g>
     </g>
     <g id="text_6">
      <!-- 25 -->
      <g transform="translate(288.383772 322.182437) scale(0.1 -0.1)">
       <use xlink:href="#DejaVuSans-32"/>
       <use xlink:href="#DejaVuSans-35" x="63.623047"/>
      </g>
     </g>
    </g>
    <g id="xtick_7">
     <g id="line2d_13">
      <path d="M 338.928981 307.584 
L 338.928981 41.472 
" clip-path="url(#p4ec2f000ad)" style="fill: none; stroke: #b0b0b0; stroke-width: 0.8; stroke-linecap: square"/>
     </g>
     <g id="line2d_14">
      <g>
       <use xlink:href="#mf4401e2781" x="338.928981" y="307.584" style="stroke: #000000; stroke-width: 0.8"/>
      </g>
     </g>
     <g id="text_7">
      <!-- 30 -->
      <g transform="translate(332.566481 322.182437) scale(0.1 -0.1)">
       <defs>
        <path id="DejaVuSans-33" d="M 2597 2516 
Q 3050 2419 3304 2112 
Q 3559 1806 3559 1356 
Q 3559 666 3084 287 
Q 2609 -91 1734 -91 
Q 1441 -91 1130 -33 
Q 819 25 488 141 
L 488 750 
Q 750 597 1062 519 
Q 1375 441 1716 441 
Q 2309 441 2620 675 
Q 2931 909 2931 1356 
Q 2931 1769 2642 2001 
Q 2353 2234 1838 2234 
L 1294 2234 
L 1294 2753 
L 1863 2753 
Q 2328 2753 2575 2939 
Q 2822 3125 2822 3475 
Q 2822 3834 2567 4026 
Q 2313 4219 1838 4219 
Q 1578 4219 1281 4162 
Q 984 4106 628 3988 
L 628 4550 
Q 988 4650 1302 4700 
Q 1616 4750 1894 4750 
Q 2613 4750 3031 4423 
Q 3450 4097 3450 3541 
Q 3450 3153 3228 2886 
Q 3006 2619 2597 2516 
z
" transform="scale(0.015625)"/>
       </defs>
       <use xlink:href="#DejaVuSans-33"/>
       <use xlink:href="#DejaVuSans-30" x="63.623047"/>
      </g>
     </g>
    </g>
    <g id="xtick_8">
     <g id="line2d_15">
      <path d="M 383.11169 307.584 
L 383.11169 41.472 
" clip-path="url(#p4ec2f000ad)" style="fill: none; stroke: #b0b0b0; stroke-width: 0.8; stroke-linecap: square"/>
     </g>
     <g id="line2d_16">
      <g>
       <use xlink:href="#mf4401e2781" x="383.11169" y="307.584" style="stroke: #000000; stroke-width: 0.8"/>
      </g>
     </g>
     <g id="text_8">
      <!-- 35 -->
      <g transform="translate(376.74919 322.182437) scale(0.1 -0.1)">
       <use xlink:href="#DejaVuSans-33"/>
       <use xlink:href="#DejaVuSans-35" x="63.623047"/>
      </g>
     </g>
    </g>
    <g id="text_9">
     <!-- Time(s) -->
     <g transform="translate(217.420156 335.860562) scale(0.1 -0.1)">
      <defs>
       <path id="DejaVuSans-54" d="M -19 4666 
L 3928 4666 
L 3928 4134 
L 2272 4134 
L 2272 0 
L 1638 0 
L 1638 4134 
L -19 4134 
L -19 4666 
z
" transform="scale(0.015625)"/>
       <path id="DejaVuSans-69" d="M 603 3500 
L 1178 3500 
L 1178 0 
L 603 0 
L 603 3500 
z
M 603 4863 
L 1178 4863 
L 1178 4134 
L 603 4134 
L 603 4863 
z
" transform="scale(0.015625)"/>
       <path id="DejaVuSans-6d" d="M 3328 2828 
Q 3544 3216 3844 3400 
Q 4144 3584 4550 3584 
Q 5097 3584 5394 3201 
Q 5691 2819 5691 2113 
L 5691 0 
L 5113 0 
L 5113 2094 
Q 5113 2597 4934 2840 
Q 4756 3084 4391 3084 
Q 3944 3084 3684 2787 
Q 3425 2491 3425 1978 
L 3425 0 
L 2847 0 
L 2847 2094 
Q 2847 2600 2669 2842 
Q 2491 3084 2119 3084 
Q 1678 3084 1418 2786 
Q 1159 2488 1159 1978 
L 1159 0 
L 581 0 
L 581 3500 
L 1159 3500 
L 1159 2956 
Q 1356 3278 1631 3431 
Q 1906 3584 2284 3584 
Q 2666 3584 2933 3390 
Q 3200 3197 3328 2828 
z
" transform="scale(0.015625)"/>
       <path id="DejaVuSans-65" d="M 3597 1894 
L 3597 1613 
L 953 1613 
Q 991 1019 1311 708 
Q 1631 397 2203 397 
Q 2534 397 2845 478 
Q 3156 559 3463 722 
L 3463 178 
Q 3153 47 2828 -22 
Q 2503 -91 2169 -91 
Q 1331 -91 842 396 
Q 353 884 353 1716 
Q 353 2575 817 3079 
Q 1281 3584 2069 3584 
Q 2775 3584 3186 3129 
Q 3597 2675 3597 1894 
z
M 3022 2063 
Q 3016 2534 2758 2815 
Q 2500 3097 2075 3097 
Q 1594 3097 1305 2825 
Q 1016 2553 972 2059 
L 3022 2063 
z
" transform="scale(0.015625)"/>
       <path id="DejaVuSans-28" d="M 1984 4856 
Q 1566 4138 1362 3434 
Q 1159 2731 1159 2009 
Q 1159 1288 1364 580 
Q 1569 -128 1984 -844 
L 1484 -844 
Q 1016 -109 783 600 
Q 550 1309 550 2009 
Q 550 2706 781 3412 
Q 1013 4119 1484 4856 
L 1984 4856 
z
" transform="scale(0.015625)"/>
       <path id="DejaVuSans-73" d="M 2834 3397 
L 2834 2853 
Q 2591 2978 2328 3040 
Q 2066 3103 1784 3103 
Q 1356 3103 1142 2972 
Q 928 2841 928 2578 
Q 928 2378 1081 2264 
Q 1234 2150 1697 2047 
L 1894 2003 
Q 2506 1872 2764 1633 
Q 3022 1394 3022 966 
Q 3022 478 2636 193 
Q 2250 -91 1575 -91 
Q 1294 -91 989 -36 
Q 684 19 347 128 
L 347 722 
Q 666 556 975 473 
Q 1284 391 1588 391 
Q 1994 391 2212 530 
Q 2431 669 2431 922 
Q 2431 1156 2273 1281 
Q 2116 1406 1581 1522 
L 1381 1569 
Q 847 1681 609 1914 
Q 372 2147 372 2553 
Q 372 3047 722 3315 
Q 1072 3584 1716 3584 
Q 2034 3584 2315 3537 
Q 2597 3491 2834 3397 
z
" transform="scale(0.015625)"/>
       <path id="DejaVuSans-29" d="M 513 4856 
L 1013 4856 
Q 1481 4119 1714 3412 
Q 1947 2706 1947 2009 
Q 1947 1309 1714 600 
Q 1481 -109 1013 -844 
L 513 -844 
Q 928 -128 1133 580 
Q 1338 1288 1338 2009 
Q 1338 2731 1133 3434 
Q 928 4138 513 4856 
z
" transform="scale(0.015625)"/>
      </defs>
      <use xlink:href="#DejaVuSans-54"/>
      <use xlink:href="#DejaVuSans-69" x="57.958984"/>
      <use xlink:href="#DejaVuSans-6d" x="85.742188"/>
      <use xlink:href="#DejaVuSans-65" x="183.154297"/>
      <use xlink:href="#DejaVuSans-28" x="244.677734"/>
      <use xlink:href="#DejaVuSans-73" x="283.691406"/>
      <use xlink:href="#DejaVuSans-29" x="335.791016"/>
     </g>
    </g>
   </g>
   <g id="matplotlib.axis_2">
    <g id="ytick_1">
     <g id="line2d_17">
      <path d="M 57.6 295.488 
L 414.72 295.488 
" clip-path="url(#p4ec2f000ad)" style="fill: none; stroke: #b0b0b0; stroke-width: 0.8; stroke-linecap: square"/>
     </g>
     <g id="line2d_18">
      <defs>
       <path id="mc7842c3cd1" d="M 0 0 
L -3.5 0 
" style="stroke: #000000; stroke-width: 0.8"/>
      </defs>
      <g>
       <use xlink:href="#mc7842c3cd1" x="57.6" y="295.488" style="stroke: #000000; stroke-width: 0.8"/>
      </g>
     </g>
     <g id="text_10">
      <!-- 0.000 -->
      <g transform="translate(21.971875 299.287219) scale(0.1 -0.1)">
       <defs>
        <path id="DejaVuSans-2e" d="M 684 794 
L 1344 794 
L 1344 0 
L 684 0 
L 684 794 
z
" transform="scale(0.015625)"/>
       </defs>
       <use xlink:href="#DejaVuSans-30"/>
       <use xlink:href="#DejaVuSans-2e" x="63.623047"/>
       <use xlink:href="#DejaVuSans-30" x="95.410156"/>
       <use xlink:href="#DejaVuSans-30" x="159.033203"/>
       <use xlink:href="#DejaVuSans-30" x="222.65625"/>
      </g>
     </g>
    </g>
    <g id="ytick_2">
     <g id="line2d_19">
      <path d="M 57.6 263.091182 
L 414.72 263.091182 
" clip-path="url(#p4ec2f000ad)" style="fill: none; stroke: #b0b0b0; stroke-width: 0.8; stroke-linecap: square"/>
     </g>
     <g id="line2d_20">
      <g>
       <use xlink:href="#mc7842c3cd1" x="57.6" y="263.091182" style="stroke: #000000; stroke-width: 0.8"/>
      </g>
     </g>
     <g id="text_11">
      <!-- 0.025 -->
      <g transform="translate(21.971875 266.890401) scale(0.1 -0.1)">
       <use xlink:href="#DejaVuSans-30"/>
       <use xlink:href="#DejaVuSans-2e" x="63.623047"/>
       <use xlink:href="#DejaVuSans-30" x="95.410156"/>
       <use xlink:href="#DejaVuSans-32" x="159.033203"/>
       <use xlink:href="#DejaVuSans-35" x="222.65625"/>
      </g>
     </g>
    </g>
    <g id="ytick_3">
     <g id="line2d_21">
      <path d="M 57.6 230.694364 
L 414.72 230.694364 
" clip-path="url(#p4ec2f000ad)" style="fill: none; stroke: #b0b0b0; stroke-width: 0.8; stroke-linecap: square"/>
     </g>
     <g id="line2d_22">
      <g>
       <use xlink:href="#mc7842c3cd1" x="57.6" y="230.694364" style="stroke: #000000; stroke-width: 0.8"/>
      </g>
     </g>
     <g id="text_12">
      <!-- 0.050 -->
      <g transform="translate(21.971875 234.493582) scale(0.1 -0.1)">
       <use xlink:href="#DejaVuSans-30"/>
       <use xlink:href="#DejaVuSans-2e" x="63.623047"/>
       <use xlink:href="#DejaVuSans-30" x="95.410156"/>
       <use xlink:href="#DejaVuSans-35" x="159.033203"/>
       <use xlink:href="#DejaVuSans-30" x="222.65625"/>
      </g>
     </g>
    </g>
    <g id="ytick_4">
     <g id="line2d_23">
      <path d="M 57.6 198.297545 
L 414.72 198.297545 
" clip-path="url(#p4ec2f000ad)" style="fill: none; stroke: #b0b0b0; stroke-width: 0.8; stroke-linecap: square"/>
     </g>
     <g id="line2d_24">
      <g>
       <use xlink:href="#mc7842c3cd1" x="57.6" y="198.297545" style="stroke: #000000; stroke-width: 0.8"/>
      </g>
     </g>
     <g id="text_13">
      <!-- 0.075 -->
      <g transform="translate(21.971875 202.096764) scale(0.1 -0.1)">
       <defs>
        <path id="DejaVuSans-37" d="M 525 4666 
L 3525 4666 
L 3525 4397 
L 1831 0 
L 1172 0 
L 2766 4134 
L 525 4134 
L 525 4666 
z
" transform="scale(0.015625)"/>
       </defs>
       <use xlink:href="#DejaVuSans-30"/>
       <use xlink:href="#DejaVuSans-2e" x="63.623047"/>
       <use xlink:href="#DejaVuSans-30" x="95.410156"/>
       <use xlink:href="#DejaVuSans-37" x="159.033203"/>
       <use xlink:href="#DejaVuSans-35" x="222.65625"/>
      </g>
     </g>
    </g>
    <g id="ytick_5">
     <g id="line2d_25">
      <path d="M 57.6 165.900727 
L 414.72 165.900727 
" clip-path="url(#p4ec2f000ad)" style="fill: none; stroke: #b0b0b0; stroke-width: 0.8; stroke-linecap: square"/>
     </g>
     <g id="line2d_26">
      <g>
       <use xlink:href="#mc7842c3cd1" x="57.6" y="165.900727" style="stroke: #000000; stroke-width: 0.8"/>
      </g>
     </g>
     <g id="text_14">
      <!-- 0.100 -->
      <g transform="translate(21.971875 169.699946) scale(0.1 -0.1)">
       <use xlink:href="#DejaVuSans-30"/>
       <use xlink:href="#DejaVuSans-2e" x="63.623047"/>
       <use xlink:href="#DejaVuSans-31" x="95.410156"/>
       <use xlink:href="#DejaVuSans-30" x="159.033203"/>
       <use xlink:href="#DejaVuSans-30" x="222.65625"/>
      </g>
     </g>
    </g>
    <g id="ytick_6">
     <g id="line2d_27">
      <path d="M 57.6 133.503909 
L 414.72 133.503909 
" clip-path="url(#p4ec2f000ad)" style="fill: none; stroke: #b0b0b0; stroke-width: 0.8; stroke-linecap: square"/>
     </g>
     <g id="line2d_28">
      <g>
       <use xlink:href="#mc7842c3cd1" x="57.6" y="133.503909" style="stroke: #000000; stroke-width: 0.8"/>
      </g>
     </g>
     <g id="text_15">
      <!-- 0.125 -->
      <g transform="translate(21.971875 137.303128) scale(0.1 -0.1)">
       <use xlink:href="#DejaVuSans-30"/>
       <use xlink:href="#DejaVuSans-2e" x="63.623047"/>
       <use xlink:href="#DejaVuSans-31" x="95.410156"/>
       <use xlink:href="#DejaVuSans-32" x="159.033203"/>
       <use xlink:href="#DejaVuSans-35" x="222.65625"/>
      </g>
     </g>
    </g>
    <g id="ytick_7">
     <g id="line2d_29">
      <path d="M 57.6 101.107091 
L 414.72 101.107091 
" clip-path="url(#p4ec2f000ad)" style="fill: none; stroke: #b0b0b0; stroke-width: 0.8; stroke-linecap: square"/>
     </g>
     <g id="line2d_30">
      <g>
       <use xlink:href="#mc7842c3cd1" x="57.6" y="101.107091" style="stroke: #000000; stroke-width: 0.8"/>
      </g>
     </g>
     <g id="text_16">
      <!-- 0.150 -->
      <g transform="translate(21.971875 104.90631) scale(0.1 -0.1)">
       <use xlink:href="#DejaVuSans-30"/>
       <use xlink:href="#DejaVuSans-2e" x="63.623047"/>
       <use xlink:href="#DejaVuSans-31" x="95.410156"/>
       <use xlink:href="#DejaVuSans-35" x="159.033203"/>
       <use xlink:href="#DejaVuSans-30" x="222.65625"/>
      </g>
     </g>
    </g>
    <g id="ytick_8">
     <g id="line2d_31">
      <path d="M 57.6 68.710273 
L 414.72 68.710273 
" clip-path="url(#p4ec2f000ad)" style="fill: none; stroke: #b0b0b0; stroke-width: 0.8; stroke-linecap: square"/>
     </g>
     <g id="line2d_32">
      <g>
       <use xlink:href="#mc7842c3cd1" x="57.6" y="68.710273" style="stroke: #000000; stroke-width: 0.8"/>
      </g>
     </g>
     <g id="text_17">
      <!-- 0.175 -->
      <g transform="translate(21.971875 72.509492) scale(0.1 -0.1)">
       <use xlink:href="#DejaVuSans-30"/>
       <use xlink:href="#DejaVuSans-2e" x="63.623047"/>
       <use xlink:href="#DejaVuSans-31" x="95.410156"/>
       <use xlink:href="#DejaVuSans-37" x="159.033203"/>
       <use xlink:href="#DejaVuSans-35" x="222.65625"/>
      </g>
     </g>
    </g>
    <g id="text_18">
     <!-- Tracking error(m) -->
     <g transform="translate(15.892187 217.803781) rotate(-90) scale(0.1 -0.1)">
      <defs>
       <path id="DejaVuSans-72" d="M 2631 2963 
Q 2534 3019 2420 3045 
Q 2306 3072 2169 3072 
Q 1681 3072 1420 2755 
Q 1159 2438 1159 1844 
L 1159 0 
L 581 0 
L 581 3500 
L 1159 3500 
L 1159 2956 
Q 1341 3275 1631 3429 
Q 1922 3584 2338 3584 
Q 2397 3584 2469 3576 
Q 2541 3569 2628 3553 
L 2631 2963 
z
" transform="scale(0.015625)"/>
       <path id="DejaVuSans-61" d="M 2194 1759 
Q 1497 1759 1228 1600 
Q 959 1441 959 1056 
Q 959 750 1161 570 
Q 1363 391 1709 391 
Q 2188 391 2477 730 
Q 2766 1069 2766 1631 
L 2766 1759 
L 2194 1759 
z
M 3341 1997 
L 3341 0 
L 2766 0 
L 2766 531 
Q 2569 213 2275 61 
Q 1981 -91 1556 -91 
Q 1019 -91 701 211 
Q 384 513 384 1019 
Q 384 1609 779 1909 
Q 1175 2209 1959 2209 
L 2766 2209 
L 2766 2266 
Q 2766 2663 2505 2880 
Q 2244 3097 1772 3097 
Q 1472 3097 1187 3025 
Q 903 2953 641 2809 
L 641 3341 
Q 956 3463 1253 3523 
Q 1550 3584 1831 3584 
Q 2591 3584 2966 3190 
Q 3341 2797 3341 1997 
z
" transform="scale(0.015625)"/>
       <path id="DejaVuSans-63" d="M 3122 3366 
L 3122 2828 
Q 2878 2963 2633 3030 
Q 2388 3097 2138 3097 
Q 1578 3097 1268 2742 
Q 959 2388 959 1747 
Q 959 1106 1268 751 
Q 1578 397 2138 397 
Q 2388 397 2633 464 
Q 2878 531 3122 666 
L 3122 134 
Q 2881 22 2623 -34 
Q 2366 -91 2075 -91 
Q 1284 -91 818 406 
Q 353 903 353 1747 
Q 353 2603 823 3093 
Q 1294 3584 2113 3584 
Q 2378 3584 2631 3529 
Q 2884 3475 3122 3366 
z
" transform="scale(0.015625)"/>
       <path id="DejaVuSans-6b" d="M 581 4863 
L 1159 4863 
L 1159 1991 
L 2875 3500 
L 3609 3500 
L 1753 1863 
L 3688 0 
L 2938 0 
L 1159 1709 
L 1159 0 
L 581 0 
L 581 4863 
z
" transform="scale(0.015625)"/>
       <path id="DejaVuSans-6e" d="M 3513 2113 
L 3513 0 
L 2938 0 
L 2938 2094 
Q 2938 2591 2744 2837 
Q 2550 3084 2163 3084 
Q 1697 3084 1428 2787 
Q 1159 2491 1159 1978 
L 1159 0 
L 581 0 
L 581 3500 
L 1159 3500 
L 1159 2956 
Q 1366 3272 1645 3428 
Q 1925 3584 2291 3584 
Q 2894 3584 3203 3211 
Q 3513 2838 3513 2113 
z
" transform="scale(0.015625)"/>
       <path id="DejaVuSans-67" d="M 2906 1791 
Q 2906 2416 2648 2759 
Q 2391 3103 1925 3103 
Q 1463 3103 1205 2759 
Q 947 2416 947 1791 
Q 947 1169 1205 825 
Q 1463 481 1925 481 
Q 2391 481 2648 825 
Q 2906 1169 2906 1791 
z
M 3481 434 
Q 3481 -459 3084 -895 
Q 2688 -1331 1869 -1331 
Q 1566 -1331 1297 -1286 
Q 1028 -1241 775 -1147 
L 775 -588 
Q 1028 -725 1275 -790 
Q 1522 -856 1778 -856 
Q 2344 -856 2625 -561 
Q 2906 -266 2906 331 
L 2906 616 
Q 2728 306 2450 153 
Q 2172 0 1784 0 
Q 1141 0 747 490 
Q 353 981 353 1791 
Q 353 2603 747 3093 
Q 1141 3584 1784 3584 
Q 2172 3584 2450 3431 
Q 2728 3278 2906 2969 
L 2906 3500 
L 3481 3500 
L 3481 434 
z
" transform="scale(0.015625)"/>
       <path id="DejaVuSans-20" transform="scale(0.015625)"/>
       <path id="DejaVuSans-6f" d="M 1959 3097 
Q 1497 3097 1228 2736 
Q 959 2375 959 1747 
Q 959 1119 1226 758 
Q 1494 397 1959 397 
Q 2419 397 2687 759 
Q 2956 1122 2956 1747 
Q 2956 2369 2687 2733 
Q 2419 3097 1959 3097 
z
M 1959 3584 
Q 2709 3584 3137 3096 
Q 3566 2609 3566 1747 
Q 3566 888 3137 398 
Q 2709 -91 1959 -91 
Q 1206 -91 779 398 
Q 353 888 353 1747 
Q 353 2609 779 3096 
Q 1206 3584 1959 3584 
z
" transform="scale(0.015625)"/>
      </defs>
      <use xlink:href="#DejaVuSans-54"/>
      <use xlink:href="#DejaVuSans-72" x="46.333984"/>
      <use xlink:href="#DejaVuSans-61" x="87.447266"/>
      <use xlink:href="#DejaVuSans-63" x="148.726562"/>
      <use xlink:href="#DejaVuSans-6b" x="203.707031"/>
      <use xlink:href="#DejaVuSans-69" x="261.617188"/>
      <use xlink:href="#DejaVuSans-6e" x="289.400391"/>
      <use xlink:href="#DejaVuSans-67" x="352.779297"/>
      <use xlink:href="#DejaVuSans-20" x="416.255859"/>
      <use xlink:href="#DejaVuSans-65" x="448.042969"/>
      <use xlink:href="#DejaVuSans-72" x="509.566406"/>
      <use xlink:href="#DejaVuSans-72" x="548.929688"/>
      <use xlink:href="#DejaVuSans-6f" x="587.792969"/>
      <use xlink:href="#DejaVuSans-72" x="648.974609"/>
      <use xlink:href="#DejaVuSans-28" x="690.087891"/>
      <use xlink:href="#DejaVuSans-6d" x="729.101562"/>
      <use xlink:href="#DejaVuSans-29" x="826.513672"/>
     </g>
    </g>
   </g>
   <g id="line2d_33">
    <path d="M 73.832727 252.769556 
L 74.009458 254.2313 
L 74.009458 254.2313 
L 74.36292 270.209411 
L 74.36292 270.209411 
L 74.893112 281.005326 
L 74.893112 281.005326 
L 75.246574 283.725363 
L 75.246574 283.725363 
L 75.423305 283.794045 
L 75.423305 283.794045 
L 75.600036 283.173321 
L 75.953497 280.450693 
L 75.953497 280.450693 
L 76.660421 274.314736 
L 76.660421 274.314736 
L 76.837151 273.569609 
L 76.837151 273.569609 
L 77.013882 273.364861 
L 77.013882 273.364861 
L 77.190613 273.626627 
L 77.190613 273.626627 
L 77.544075 275.072821 
L 77.544075 275.072821 
L 78.60446 281.037723 
L 78.60446 281.037723 
L 79.134652 282.328412 
L 79.134652 282.328412 
L 79.488114 283.179801 
L 79.488114 283.179801 
L 79.841576 284.865731 
L 79.841576 284.865731 
L 80.548499 290.364119 
L 80.548499 290.364119 
L 81.078692 294.346336 
L 81.078692 294.346336 
L 81.432153 295.469858 
L 81.432153 295.469858 
L 81.785615 295.373963 
L 81.785615 295.373963 
L 82.139077 294.531646 
L 82.139077 294.531646 
L 82.492538 293.598618 
L 82.492538 293.598618 
L 82.669269 293.37184 
L 82.669269 293.37184 
L 82.846 293.471622 
L 82.846 293.471622 
L 83.199462 294.308756 
L 83.199462 294.308756 
L 83.552923 295.310465 
L 83.552923 295.310465 
L 84.083116 293.250028 
L 84.083116 293.250028 
L 84.259847 292.959752 
L 84.259847 292.959752 
L 84.436577 293.040096 
L 84.436577 293.040096 
L 84.790039 293.833171 
L 84.790039 293.833171 
L 85.320232 295.416727 
L 85.320232 295.416727 
L 85.673693 295.13941 
L 85.673693 295.13941 
L 85.850424 295.411544 
L 85.850424 295.411544 
L 86.027155 295.249559 
L 86.557347 293.548079 
L 86.557347 293.548079 
L 86.910809 292.182229 
L 86.910809 292.182229 
L 87.08754 291.801242 
L 87.08754 291.801242 
L 87.264271 291.713123 
L 87.264271 291.713123 
L 87.617732 292.440107 
L 87.617732 292.440107 
L 88.324656 295.2055 
L 88.324656 295.2055 
L 89.031579 293.636198 
L 89.031579 293.636198 
L 89.20831 293.421083 
L 89.20831 293.421083 
L 89.385041 293.55067 
L 89.385041 293.55067 
L 89.738502 293.424971 
L 89.738502 293.424971 
L 89.915233 293.196897 
L 89.915233 293.196897 
L 90.268695 292.603387 
L 90.268695 292.603387 
L 90.622157 292.193892 
L 90.622157 292.193892 
L 90.798888 292.244431 
L 90.798888 292.244431 
L 90.975618 292.591724 
L 90.975618 292.591724 
L 91.32908 294.985201 
L 91.32908 294.985201 
L 91.505811 294.242666 
L 91.505811 294.242666 
L 92.036003 287.327889 
L 92.036003 287.327889 
L 92.919658 275.583395 
L 92.919658 275.583395 
L 93.626581 269.062563 
L 93.626581 269.062563 
L 93.980043 267.710968 
L 93.980043 267.710968 
L 94.333504 266.135187 
L 94.333504 266.135187 
L 94.510235 266.32568 
L 94.510235 266.32568 
L 94.863697 264.787479 
L 94.863697 264.787479 
L 95.393889 260.692521 
L 95.393889 260.692521 
L 95.924082 252.042571 
L 95.924082 252.042571 
L 96.807736 227.054257 
L 96.807736 227.054257 
L 97.161198 217.293744 
L 97.161198 217.293744 
L 97.514659 209.404471 
L 97.514659 209.404471 
L 97.69139 211.673544 
L 97.69139 211.673544 
L 97.868121 210.373783 
L 97.868121 210.373783 
L 98.044852 214.170691 
L 98.044852 214.170691 
L 98.221583 215.199613 
L 98.221583 215.199613 
L 98.575044 222.614597 
L 98.575044 222.614597 
L 98.751775 223.336398 
L 98.751775 223.336398 
L 98.928506 230.581623 
L 98.928506 230.581623 
L 99.105237 231.863241 
L 99.105237 231.863241 
L 99.281968 238.060104 
L 99.281968 238.060104 
L 99.458698 239.234165 
L 99.458698 239.234165 
L 99.635429 244.184399 
L 99.635429 244.184399 
L 99.81216 245.262565 
L 99.81216 245.262565 
L 99.988891 243.585706 
L 99.988891 243.585706 
L 100.165622 249.95492 
L 100.165622 249.95492 
L 100.342353 248.511318 
L 100.342353 248.511318 
L 100.519083 253.561334 
L 100.519083 253.561334 
L 100.695814 252.062009 
L 100.695814 252.062009 
L 100.872545 256.299513 
L 100.872545 256.299513 
L 101.049276 255.573824 
L 101.049276 255.573824 
L 101.226007 259.132291 
L 101.226007 259.132291 
L 101.402738 258.902921 
L 101.402738 258.902921 
L 101.579469 261.420802 
L 101.579469 261.420802 
L 101.756199 261.139598 
L 101.756199 261.139598 
L 101.93293 259.193197 
L 101.93293 259.193197 
L 102.109661 260.451489 
L 102.109661 260.451489 
L 102.286392 255.880946 
L 102.286392 255.880946 
L 102.463123 255.661943 
L 102.463123 255.661943 
L 102.639854 248.647384 
L 102.639854 248.647384 
L 102.816584 248.887121 
L 102.816584 248.887121 
L 102.993315 242.78356 
L 102.993315 242.78356 
L 103.170046 244.86214 
L 103.170046 244.86214 
L 103.346777 241.792218 
L 103.346777 241.792218 
L 103.523508 245.243127 
L 103.523508 245.243127 
L 103.700239 244.92823 
L 103.700239 244.92823 
L 103.876969 241.855715 
L 103.876969 241.855715 
L 104.0537 250.387741 
L 104.0537 250.387741 
L 104.230431 249.294025 
L 104.230431 249.294025 
L 104.407162 257.727565 
L 104.407162 257.727565 
L 104.583893 258.667072 
L 104.583893 258.667072 
L 104.760624 267.228903 
L 104.760624 267.228903 
L 104.937354 269.942461 
L 104.937354 269.942461 
L 105.467547 293.702287 
L 105.467547 293.702287 
L 105.644278 295.488 
L 105.644278 295.488 
L 107.058124 198.559312 
L 107.058124 198.559312 
L 107.941779 152.335532 
L 107.941779 152.335532 
L 108.118509 152.094499 
L 108.118509 152.094499 
L 108.471971 147.036708 
L 108.471971 147.036708 
L 109.355625 193.93175 
L 109.355625 193.93175 
L 109.885818 235.971157 
L 109.885818 235.971157 
L 110.239279 259.200972 
L 110.239279 259.200972 
L 111.122934 288.814255 
L 111.122934 288.814255 
L 111.299664 290.261745 
L 111.299664 290.261745 
L 111.476395 295.091463 
L 111.476395 295.091463 
L 111.829857 293.391278 
L 111.829857 293.391278 
L 112.006588 288.402168 
L 112.006588 288.402168 
L 112.183319 295.488 
L 112.53678 282.007036 
L 112.53678 282.007036 
L 112.713511 281.265797 
L 112.713511 281.265797 
L 112.890242 281.677884 
L 112.890242 281.677884 
L 113.066973 275.944943 
L 113.066973 275.944943 
L 113.243704 275.233509 
L 113.243704 275.233509 
L 113.597165 268.654363 
L 113.597165 268.654363 
L 113.773896 267.108387 
L 113.773896 267.108387 
L 114.127358 257.63167 
L 114.127358 257.63167 
L 114.304089 254.433456 
L 114.304089 254.433456 
L 114.65755 241.3581 
L 114.65755 241.3581 
L 114.834281 236.155171 
L 114.834281 236.155171 
L 115.717935 194.886808 
L 115.717935 194.886808 
L 117.131782 132.069378 
L 117.131782 132.069378 
L 117.485244 122.220745 
L 117.485244 122.220745 
L 117.661975 121.438038 
L 117.661975 121.438038 
L 118.015436 116.315453 
L 118.015436 116.315453 
L 118.192167 119.367234 
L 118.192167 119.367234 
L 118.368898 119.246717 
L 118.368898 119.246717 
L 118.545629 118.536579 
L 118.545629 118.536579 
L 118.72236 125.809017 
L 118.72236 125.809017 
L 118.89909 127.925177 
L 118.89909 127.925177 
L 119.252552 140.435532 
L 119.252552 140.435532 
L 119.429283 144.780594 
L 119.429283 144.780594 
L 120.84313 242.596955 
L 120.84313 242.596955 
L 121.550053 293.910923 
L 121.550053 293.910923 
L 121.903515 274.801984 
L 121.903515 274.801984 
L 122.080245 269.593871 
L 122.080245 269.593871 
L 122.256976 259.121924 
L 122.256976 259.121924 
L 122.433707 256.015717 
L 122.433707 256.015717 
L 122.610438 249.353635 
L 122.787169 248.301386 
L 122.787169 248.301386 
L 122.9639 244.807714 
L 122.9639 244.807714 
L 123.14063 244.555018 
L 123.14063 244.555018 
L 123.317361 246.677658 
L 123.317361 246.677658 
L 123.494092 243.301909 
L 123.494092 243.301909 
L 123.670823 245.269044 
L 123.670823 245.269044 
L 123.847554 243.029776 
L 123.847554 243.029776 
L 124.024285 244.054811 
L 124.024285 244.054811 
L 124.201015 246.73986 
L 124.201015 246.73986 
L 124.377746 242.806886 
L 124.377746 242.806886 
L 124.554477 244.622404 
L 124.554477 244.622404 
L 124.731208 241.722241 
L 124.731208 241.722241 
L 124.907939 242.889822 
L 124.907939 242.889822 
L 125.08467 246.007692 
L 125.08467 246.007692 
L 125.261401 242.703216 
L 125.261401 242.703216 
L 125.438131 245.905318 
L 125.438131 245.905318 
L 125.614862 244.604262 
L 125.614862 244.604262 
L 125.791593 248.270285 
L 125.791593 248.270285 
L 125.968324 249.208497 
L 125.968324 249.208497 
L 126.675247 266.135187 
L 126.675247 266.135187 
L 126.851978 267.428468 
L 126.851978 267.428468 
L 127.20544 278.119418 
L 127.20544 278.119418 
L 127.382171 277.330231 
L 127.382171 277.330231 
L 127.558901 280.998847 
L 127.735632 279.609671 
L 127.735632 279.609671 
L 128.089094 283.652794 
L 128.089094 283.652794 
L 128.265825 279.60708 
L 128.265825 279.60708 
L 128.442556 280.163009 
L 128.442556 280.163009 
L 128.619286 276.617501 
L 128.619286 276.617501 
L 128.796017 276.176905 
L 128.796017 276.176905 
L 128.972748 276.883155 
L 128.972748 276.883155 
L 129.149479 271.662084 
L 129.149479 271.662084 
L 129.32621 271.208529 
L 129.32621 271.208529 
L 129.502941 267.213353 
L 129.502941 267.213353 
L 129.679671 266.495439 
L 129.679671 266.495439 
L 129.856402 267.193915 
L 129.856402 267.193915 
L 130.033133 262.637626 
L 130.033133 262.637626 
L 130.209864 262.993991 
L 130.209864 262.993991 
L 130.386595 259.929252 
L 130.386595 259.929252 
L 130.563326 260.026443 
L 130.563326 260.026443 
L 130.740056 261.609999 
L 130.740056 261.609999 
L 130.916787 258.178528 
L 131.093518 259.102486 
L 131.093518 259.102486 
L 131.270249 257.01613 
L 131.270249 257.01613 
L 131.44698 257.547438 
L 131.44698 257.547438 
L 131.623711 259.396649 
L 131.623711 259.396649 
L 131.800441 256.804903 
L 131.800441 256.804903 
L 131.977172 257.820867 
L 131.977172 257.820867 
L 132.153903 260.05236 
L 132.153903 260.05236 
L 132.330634 256.991509 
L 132.330634 256.991509 
L 132.507365 258.713724 
L 132.684096 257.123688 
L 132.684096 257.123688 
L 132.860826 258.431224 
L 132.860826 258.431224 
L 133.037557 260.956879 
L 133.037557 260.956879 
L 133.214288 259.473105 
L 133.214288 259.473105 
L 133.56775 265.164578 
L 133.56775 265.164578 
L 133.744481 263.613419 
L 133.744481 263.613419 
L 133.921211 266.12482 
L 133.921211 266.12482 
L 134.097942 265.629797 
L 134.451404 269.049605 
L 134.451404 269.049605 
L 134.628135 267.36497 
L 134.628135 267.36497 
L 134.981596 268.536439 
L 134.981596 268.536439 
L 135.158327 265.180129 
L 135.158327 265.180129 
L 135.511789 263.748189 
L 135.511789 263.748189 
L 135.865251 256.963 
L 135.865251 256.963 
L 136.041981 255.483113 
L 136.041981 255.483113 
L 136.395443 247.780446 
L 136.395443 247.780446 
L 136.572174 245.926052 
L 136.572174 245.926052 
L 136.925636 237.745207 
L 136.925636 237.745207 
L 137.102367 235.452808 
L 137.102367 235.452808 
L 137.455828 226.73936 
L 137.455828 226.73936 
L 137.632559 223.936387 
L 137.632559 223.936387 
L 137.986021 215.014304 
L 137.986021 215.014304 
L 138.162752 211.97289 
L 138.162752 211.97289 
L 138.516213 202.724247 
L 138.516213 202.724247 
L 138.869675 196.046615 
L 138.869675 196.046615 
L 139.223137 185.893452 
L 139.223137 185.893452 
L 139.399867 182.242978 
L 139.399867 182.242978 
L 139.93006 167.822507 
L 139.93006 167.822507 
L 140.283522 157.513839 
L 140.283522 157.513839 
L 141.343907 132.182119 
L 141.343907 132.182119 
L 142.05083 122.548601 
L 142.05083 122.548601 
L 142.227561 122.327007 
L 142.227561 122.327007 
L 142.404292 121.567625 
L 142.404292 121.567625 
L 142.581022 122.284243 
L 142.581022 122.284243 
L 142.934484 125.697572 
L 142.934484 125.697572 
L 143.641407 137.198442 
L 143.641407 137.198442 
L 144.525062 158.658095 
L 144.525062 158.658095 
L 145.762177 197.669047 
L 145.762177 197.669047 
L 147.352755 254.912929 
L 147.352755 254.912929 
L 148.41314 279.776839 
L 148.41314 279.776839 
L 149.296794 295.004639 
L 149.296794 295.004639 
L 149.650256 290.323947 
L 149.650256 290.323947 
L 150.003718 285.658805 
L 150.003718 285.658805 
L 150.710641 282.289536 
L 150.710641 282.289536 
L 150.887372 282.290832 
L 150.887372 282.290832 
L 152.477949 293.970533 
L 152.477949 293.970533 
L 152.65468 294.138996 
L 152.65468 294.138996 
L 152.831411 293.470326 
L 152.831411 293.470326 
L 153.184873 290.207319 
L 153.184873 290.207319 
L 153.538334 284.103758 
L 153.538334 284.103758 
L 154.068527 270.36362 
L 154.068527 270.36362 
L 154.952181 245.946786 
L 154.952181 245.946786 
L 155.305643 238.679531 
L 155.305643 238.679531 
L 155.659104 230.882265 
L 155.659104 230.882265 
L 155.835835 230.739719 
L 155.835835 230.739719 
L 156.012566 227.568719 
L 156.012566 227.568719 
L 156.189297 227.879728 
L 156.189297 227.879728 
L 156.366028 225.718212 
L 156.366028 225.718212 
L 156.542758 226.29358 
L 156.542758 226.29358 
L 156.719489 224.586915 
L 156.719489 224.586915 
L 156.89622 221.32002 
L 156.89622 221.32002 
L 157.072951 223.557993 
L 157.072951 223.557993 
L 157.249682 220.236671 
L 157.249682 220.236671 
L 157.426413 221.721741 
L 157.426413 221.721741 
L 157.603143 217.917059 
L 157.603143 217.917059 
L 157.779874 218.437999 
L 157.779874 218.437999 
L 157.956605 213.814326 
L 157.956605 213.814326 
L 158.133336 213.104187 
L 158.133336 213.104187 
L 158.310067 207.345329 
L 158.310067 207.345329 
L 158.486798 205.295258 
L 158.486798 205.295258 
L 159.01699 186.479186 
L 159.01699 186.479186 
L 159.193721 182.290926 
L 159.193721 182.290926 
L 159.723913 157.053804 
L 159.723913 157.053804 
L 159.900644 151.712217 
L 159.900644 151.712217 
L 160.430837 122.122259 
L 160.430837 122.122259 
L 160.607568 118.257967 
L 160.607568 118.257967 
L 160.784299 105.514354 
L 160.961029 103.382643 
L 160.961029 103.382643 
L 161.13776 90.77121 
L 161.13776 90.77121 
L 161.314491 90.324134 
L 161.314491 90.324134 
L 161.491222 78.930821 
L 161.491222 78.930821 
L 161.667953 81.085857 
L 161.667953 81.085857 
L 161.844684 70.963795 
L 161.844684 70.963795 
L 162.021414 74.44451 
L 162.021414 74.44451 
L 162.198145 64.633457 
L 162.198145 64.633457 
L 162.374876 68.362979 
L 162.374876 68.362979 
L 162.551607 68.018277 
L 162.551607 68.018277 
L 162.728338 62.784247 
L 162.728338 62.784247 
L 162.905069 62.81146 
L 162.905069 62.81146 
L 163.081799 57.887144 
L 163.081799 57.887144 
L 163.25853 58.614128 
L 163.25853 58.614128 
L 163.435261 54.241854 
L 163.435261 54.241854 
L 163.611992 56.588679 
L 163.611992 56.588679 
L 163.788723 53.568 
L 163.788723 53.568 
L 163.965454 57.954529 
L 163.965454 57.954529 
L 164.142184 56.504448 
L 164.142184 56.504448 
L 164.318915 62.444728 
L 164.318915 62.444728 
L 164.495646 61.962664 
L 164.495646 61.962664 
L 164.672377 69.662739 
L 164.672377 69.662739 
L 164.849108 70.709804 
L 164.849108 70.709804 
L 165.025839 80.641373 
L 165.025839 80.641373 
L 165.202569 83.112602 
L 165.202569 83.112602 
L 165.3793 94.139183 
L 165.3793 94.139183 
L 165.556031 96.70242 
L 165.556031 96.70242 
L 165.732762 107.710858 
L 165.732762 107.710858 
L 165.909493 109.950126 
L 165.909493 109.950126 
L 166.086224 120.337842 
L 166.086224 120.337842 
L 166.262954 121.377132 
L 166.262954 121.377132 
L 166.439685 130.329021 
L 166.439685 130.329021 
L 166.616416 129.659055 
L 166.616416 129.659055 
L 166.793147 137.558695 
L 166.793147 137.558695 
L 166.969878 135.933671 
L 166.969878 135.933671 
L 167.323339 147.189621 
L 167.323339 147.189621 
L 167.50007 147.246639 
L 167.50007 147.246639 
L 167.676801 151.103157 
L 167.676801 151.103157 
L 167.853532 150.845278 
L 167.853532 150.845278 
L 168.030263 155.097036 
L 168.030263 155.097036 
L 168.206994 154.473722 
L 168.206994 154.473722 
L 168.383724 159.080549 
L 168.383724 159.080549 
L 168.560455 158.322464 
L 168.560455 158.322464 
L 168.737186 163.102938 
L 168.737186 163.102938 
L 168.913917 162.042914 
L 168.913917 162.042914 
L 169.090648 167.34433 
L 169.090648 167.34433 
L 169.267379 166.6316 
L 169.267379 166.6316 
L 169.444109 172.385274 
L 169.444109 172.385274 
L 169.62084 171.448358 
L 169.62084 171.448358 
L 169.797571 177.299224 
L 169.797571 177.299224 
L 169.974302 176.164039 
L 169.974302 176.164039 
L 170.151033 181.986395 
L 170.151033 181.986395 
L 170.327764 180.570007 
L 170.327764 180.570007 
L 170.504494 186.186319 
L 170.504494 186.186319 
L 170.681225 184.445962 
L 170.681225 184.445962 
L 170.857956 189.678696 
L 170.857956 189.678696 
L 171.034687 187.938339 
L 171.034687 187.938339 
L 171.211418 193.281222 
L 171.211418 193.281222 
L 171.388149 191.89723 
L 171.388149 191.89723 
L 171.564879 197.364517 
L 171.564879 197.364517 
L 171.74161 196.501466 
L 171.74161 196.501466 
L 171.918341 202.159246 
L 171.918341 202.159246 
L 172.095072 201.942835 
L 172.095072 201.942835 
L 172.271803 207.811843 
L 172.271803 207.811843 
L 172.448534 208.313346 
L 172.448534 208.313346 
L 172.625265 214.322308 
L 172.625265 214.322308 
L 172.801995 215.527469 
L 172.801995 215.527469 
L 173.332188 230.647712 
L 173.332188 230.647712 
L 173.508919 233.981993 
L 173.508919 233.981993 
L 174.039111 251.004577 
L 174.039111 251.004577 
L 175.80642 295.488 
L 175.80642 295.488 
L 175.98315 291.627595 
L 175.98315 291.627595 
L 176.159881 295.072025 
L 176.159881 295.072025 
L 176.336612 295.004639 
L 176.336612 295.004639 
L 176.513343 291.986552 
L 176.513343 291.986552 
L 176.690074 292.132986 
L 176.690074 292.132986 
L 176.866805 293.741164 
L 176.866805 293.741164 
L 177.043535 289.699337 
L 177.043535 289.699337 
L 177.220266 290.523512 
L 177.396997 287.373245 
L 177.396997 287.373245 
L 177.573728 287.741273 
L 177.573728 287.741273 
L 177.750459 289.240598 
L 177.750459 289.240598 
L 177.92719 284.642841 
L 177.92719 284.642841 
L 178.10392 285.027715 
L 178.10392 285.027715 
L 178.280651 281.088262 
L 178.280651 281.088262 
L 178.457382 280.2602 
L 178.457382 280.2602 
L 178.634113 280.082665 
L 178.634113 280.082665 
L 179.164305 266.202572 
L 179.164305 266.202572 
L 179.517767 257.599273 
L 179.517767 257.599273 
L 181.461806 172.091111 
L 181.461806 172.091111 
L 181.991999 155.341956 
L 181.991999 155.341956 
L 182.34546 148.475127 
L 182.34546 148.475127 
L 182.522191 148.030642 
L 182.522191 148.030642 
L 182.698922 148.112282 
L 182.698922 148.112282 
L 182.875653 149.331699 
L 182.875653 149.331699 
L 183.052384 151.771827 
L 183.052384 151.771827 
L 183.582576 170.98962 
L 183.582576 170.98962 
L 184.819692 245.919572 
L 184.819692 245.919572 
L 185.349885 275.372168 
L 185.349885 275.372168 
L 185.703346 289.1771 
L 185.703346 289.1771 
L 185.880077 293.853904 
L 185.880077 293.853904 
L 186.056808 295.488 
L 186.056808 295.488 
L 186.233539 291.911391 
L 186.233539 291.911391 
L 186.41027 291.854373 
L 186.41027 291.854373 
L 186.587001 292.39216 
L 186.587001 292.39216 
L 186.763731 294.764903 
L 186.763731 294.764903 
L 186.940462 293.55715 
L 186.940462 293.55715 
L 187.470655 278.208833 
L 187.470655 278.208833 
L 188.354309 243.33301 
L 188.354309 243.33301 
L 188.707771 228.379935 
L 188.707771 228.379935 
L 189.237963 206.017059 
L 189.237963 206.017059 
L 189.768156 177.203329 
L 189.768156 177.203329 
L 189.944886 172.503199 
L 189.944886 172.503199 
L 190.121617 162.212674 
L 190.121617 162.212674 
L 190.298348 160.320699 
L 190.298348 160.320699 
L 190.475079 149.783958 
L 190.475079 149.783958 
L 190.65181 150.105335 
L 190.65181 150.105335 
L 190.828541 140.049362 
L 190.828541 140.049362 
L 191.182002 147.710562 
L 191.182002 147.710562 
L 191.358733 146.610366 
L 191.358733 146.610366 
L 191.535464 155.192931 
L 191.535464 155.192931 
L 191.712195 156.812772 
L 191.712195 156.812772 
L 191.888926 170.516626 
L 191.888926 170.516626 
L 192.065656 173.935138 
L 192.419118 208.540124 
L 192.419118 208.540124 
L 192.595849 217.713607 
L 192.595849 217.713607 
L 192.77258 234.123243 
L 192.77258 234.123243 
L 192.949311 238.056217 
L 192.949311 238.056217 
L 193.126041 251.924647 
L 193.126041 251.924647 
L 193.302772 247.932063 
L 193.302772 247.932063 
L 193.479503 257.739227 
L 193.479503 257.739227 
L 193.656234 260.372441 
L 193.656234 260.372441 
L 193.832965 250.8089 
L 193.832965 250.8089 
L 194.009696 249.825333 
L 194.009696 249.825333 
L 194.186426 233.78502 
L 194.186426 233.78502 
L 194.363157 231.816589 
L 194.363157 231.816589 
L 194.539888 225.39554 
L 194.539888 225.39554 
L 194.716619 211.611342 
L 194.716619 211.611342 
L 194.89335 206.972118 
L 194.89335 206.972118 
L 195.070081 191.787081 
L 195.070081 191.787081 
L 195.246812 190.206116 
L 195.423542 176.90787 
L 195.423542 176.90787 
L 195.777004 183.115101 
L 195.777004 183.115101 
L 195.953735 181.011899 
L 195.953735 181.011899 
L 196.130466 188.689945 
L 196.130466 188.689945 
L 196.307197 188.610897 
L 196.307197 188.610897 
L 196.660658 206.229582 
L 196.660658 206.229582 
L 196.837389 209.185468 
L 196.837389 209.185468 
L 197.01412 217.466095 
L 197.01412 217.466095 
L 197.190851 217.760258 
L 197.190851 217.760258 
L 197.367582 227.400255 
L 197.367582 227.400255 
L 197.544312 223.535963 
L 197.544312 223.535963 
L 197.897774 237.781492 
L 197.897774 237.781492 
L 198.074505 233.705972 
L 198.074505 233.705972 
L 198.251236 238.327054 
L 198.251236 238.327054 
L 198.427967 229.688766 
L 198.427967 229.688766 
L 198.604697 233.827784 
L 198.604697 233.827784 
L 198.781428 233.971626 
L 198.781428 233.971626 
L 198.958159 226.867651 
L 198.958159 226.867651 
L 199.13489 227.650359 
L 199.13489 227.650359 
L 199.311621 217.891141 
L 199.311621 217.891141 
L 199.488352 219.974904 
L 199.488352 219.974904 
L 199.665082 209.304688 
L 199.665082 209.304688 
L 199.841813 214.208271 
L 199.841813 214.208271 
L 200.018544 215.877355 
L 200.018544 215.877355 
L 200.195275 210.191065 
L 200.195275 210.191065 
L 200.372006 213.761195 
L 200.372006 213.761195 
L 200.548737 207.823506 
L 200.548737 207.823506 
L 200.725467 213.246733 
L 200.725467 213.246733 
L 200.902198 207.355696 
L 200.902198 207.355696 
L 201.25566 217.812093 
L 201.25566 217.812093 
L 201.432391 216.645807 
L 201.432391 216.645807 
L 201.609122 222.002945 
L 201.609122 222.002945 
L 201.785852 221.632326 
L 201.785852 221.632326 
L 201.962583 227.88232 
L 201.962583 227.88232 
L 202.139314 228.849041 
L 202.139314 228.849041 
L 202.669507 245.437508 
L 202.669507 245.437508 
L 203.37643 266.404728 
L 203.37643 266.404728 
L 204.083353 283.336601 
L 204.083353 283.336601 
L 204.436815 289.019003 
L 204.436815 289.019003 
L 204.790277 292.416782 
L 204.790277 292.416782 
L 204.967007 293.615464 
L 204.967007 293.615464 
L 205.143738 293.492356 
L 205.143738 293.492356 
L 205.320469 293.923882 
L 205.320469 293.923882 
L 205.4972 293.216335 
L 205.4972 293.216335 
L 205.673931 293.151541 
L 205.673931 293.151541 
L 205.850662 292.132986 
L 205.850662 292.132986 
L 206.027392 291.831047 
L 206.027392 291.831047 
L 206.204123 290.851367 
L 206.204123 290.851367 
L 206.380854 290.559796 
L 206.380854 290.559796 
L 206.734316 289.094164 
L 206.734316 289.094164 
L 206.911047 289.721366 
L 206.911047 289.721366 
L 207.087778 289.560678 
L 207.087778 289.560678 
L 207.264508 290.524807 
L 207.264508 290.524807 
L 207.441239 295.488 
L 207.441239 295.488 
L 207.61797 291.771437 
L 207.61797 291.771437 
L 207.971432 295.403768 
L 207.971432 295.403768 
L 208.148163 293.914811 
L 208.148163 293.914811 
L 208.501624 288.728728 
L 208.501624 288.728728 
L 209.208548 280.120245 
L 209.208548 280.120245 
L 211.152587 246.712646 
L 211.152587 246.712646 
L 211.682779 237.379771 
L 211.682779 237.379771 
L 212.389703 229.881851 
L 212.389703 229.881851 
L 212.919895 227.585565 
L 212.919895 227.585565 
L 213.273357 227.214945 
L 213.273357 227.214945 
L 213.626818 227.395072 
L 213.626818 227.395072 
L 213.803549 226.570897 
L 214.157011 226.09272 
L 214.157011 226.09272 
L 214.510473 225.271136 
L 214.510473 225.271136 
L 214.863934 222.903577 
L 214.863934 222.903577 
L 215.040665 222.478531 
L 215.040665 222.478531 
L 215.217396 222.390411 
L 215.217396 222.390411 
L 215.394127 222.549804 
L 215.394127 222.549804 
L 215.570858 221.465158 
L 215.570858 221.465158 
L 215.924319 222.34376 
L 215.924319 222.34376 
L 216.277781 224.264243 
L 216.277781 224.264243 
L 216.454512 223.646112 
L 216.454512 223.646112 
L 216.807973 226.160105 
L 216.807973 226.160105 
L 216.984704 228.009315 
L 216.984704 228.009315 
L 217.161435 228.217951 
L 217.161435 228.217951 
L 217.514897 232.964733 
L 217.514897 232.964733 
L 218.398551 249.914748 
L 218.398551 249.914748 
L 219.812398 295.211979 
L 219.812398 295.211979 
L 219.989129 292.170566 
L 219.989129 292.170566 
L 220.165859 295.488 
L 220.165859 295.488 
L 220.34259 282.483917 
L 220.34259 282.483917 
L 220.872783 271.300536 
L 220.872783 271.300536 
L 222.46336 230.713802 
L 222.46336 230.713802 
L 222.640091 230.493503 
L 222.816822 226.963546 
L 222.816822 226.963546 
L 222.993553 227.257709 
L 223.170284 225.027512 
L 223.170284 225.027512 
L 223.347014 220.971431 
L 223.347014 220.971431 
L 223.523745 224.925138 
L 223.523745 224.925138 
L 223.700476 222.080698 
L 223.700476 222.080698 
L 223.877207 226.078465 
L 223.877207 226.078465 
L 224.053938 223.964897 
L 224.053938 223.964897 
L 224.230669 227.812343 
L 224.230669 227.812343 
L 224.407399 226.336344 
L 224.407399 226.336344 
L 224.58413 229.836496 
L 224.58413 229.836496 
L 224.760861 228.908651 
L 224.760861 228.908651 
L 224.937592 231.999307 
L 224.937592 231.999307 
L 225.114323 231.545752 
L 225.114323 231.545752 
L 225.291054 228.177779 
L 225.291054 228.177779 
L 225.467784 234.395376 
L 225.467784 234.395376 
L 225.644515 231.652014 
L 225.644515 231.652014 
L 225.821246 237.234633 
L 225.821246 237.234633 
L 225.997977 234.553473 
L 225.997977 234.553473 
L 226.174708 239.073477 
L 226.174708 239.073477 
L 226.351439 236.402683 
L 226.351439 236.402683 
L 226.528169 239.9767 
L 226.528169 239.9767 
L 226.7049 237.230746 
L 226.7049 237.230746 
L 226.881631 239.705863 
L 226.881631 239.705863 
L 227.058362 237.085608 
L 227.058362 237.085608 
L 227.235093 238.982766 
L 227.411824 236.749977 
L 227.411824 236.749977 
L 227.588554 231.089605 
L 227.588554 231.089605 
L 227.765285 237.825551 
L 227.765285 237.825551 
L 227.942016 234.448507 
L 227.942016 234.448507 
L 228.118747 241.608204 
L 228.118747 241.608204 
L 228.295478 240.266975 
L 228.472209 247.144172 
L 228.472209 247.144172 
L 228.648939 246.730789 
L 228.648939 246.730789 
L 228.82567 252.748822 
L 228.82567 252.748822 
L 229.002401 252.765668 
L 229.002401 252.765668 
L 229.179132 258.28479 
L 229.179132 258.28479 
L 229.355863 258.861453 
L 229.355863 258.861453 
L 229.532594 264.096779 
L 229.532594 264.096779 
L 229.709324 265.631092 
L 229.709324 265.631092 
L 230.062786 273.075881 
L 230.062786 273.075881 
L 230.239517 273.6979 
L 230.239517 273.6979 
L 230.416248 281.260613 
L 230.416248 281.260613 
L 230.592979 283.016521 
L 230.592979 283.016521 
L 230.94644 293.750235 
L 230.94644 293.750235 
L 231.299902 285.210433 
L 231.299902 285.210433 
L 233.06721 214.266585 
L 233.06721 214.266585 
L 233.597403 200.744153 
L 233.597403 200.744153 
L 233.950865 196.717877 
L 233.950865 196.717877 
L 234.481057 209.558679 
L 234.481057 209.558679 
L 235.364711 267.344236 
L 235.364711 267.344236 
L 235.718173 292.069488 
L 235.718173 292.069488 
L 235.894904 287.676479 
L 235.894904 287.676479 
L 236.425096 261.52188 
L 236.425096 261.52188 
L 236.955289 246.824091 
L 236.955289 246.824091 
L 237.485481 239.73178 
L 237.485481 239.73178 
L 238.015674 235.491684 
L 238.015674 235.491684 
L 238.722597 224.875895 
L 238.722597 224.875895 
L 238.899328 222.212877 
L 238.899328 222.212877 
L 239.25279 214.534831 
L 239.25279 214.534831 
L 239.959713 204.22098 
L 239.959713 204.22098 
L 240.313175 202.383432 
L 240.313175 202.383432 
L 240.666636 202.808478 
L 240.666636 202.808478 
L 241.020098 205.843412 
L 241.020098 205.843412 
L 241.727021 212.476985 
L 241.727021 212.476985 
L 242.257214 217.853561 
L 242.257214 217.853561 
L 242.433945 217.883366 
L 242.433945 217.883366 
L 242.787406 221.918714 
L 242.787406 221.918714 
L 243.671061 236.22774 
L 243.671061 236.22774 
L 244.024522 242.585292 
L 244.024522 242.585292 
L 244.554715 255.53106 
L 244.554715 255.53106 
L 244.731446 256.427804 
L 244.731446 256.427804 
L 245.084907 262.970666 
L 245.084907 262.970666 
L 245.261638 263.617306 
L 245.261638 263.617306 
L 245.791831 269.974858 
L 245.791831 269.974858 
L 245.968561 269.089777 
L 245.968561 269.089777 
L 246.322023 272.29447 
L 246.322023 272.29447 
L 246.498754 271.817589 
L 246.498754 271.817589 
L 247.028946 277.979464 
L 247.028946 277.979464 
L 247.73587 293.251324 
L 247.73587 293.251324 
L 248.796255 247.968347 
L 248.796255 247.968347 
L 249.149716 235.724942 
L 249.149716 235.724942 
L 249.326447 227.725519 
L 249.326447 227.725519 
L 249.503178 225.886676 
L 249.503178 225.886676 
L 249.85664 216.33091 
L 249.85664 216.33091 
L 250.033371 218.711429 
L 250.033371 218.711429 
L 250.386832 215.436758 
L 250.386832 215.436758 
L 250.563563 221.207279 
L 250.563563 221.207279 
L 250.917025 223.445252 
L 250.917025 223.445252 
L 251.270486 235.67829 
L 251.270486 235.67829 
L 251.623948 249.576525 
L 251.623948 249.576525 
L 251.800679 254.638204 
L 251.800679 254.638204 
L 252.154141 270.485432 
L 252.154141 270.485432 
L 252.330871 275.817948 
L 252.330871 275.817948 
L 252.684333 291.246609 
L 252.684333 291.246609 
L 252.861064 295.311761 
L 252.861064 295.311761 
L 253.214526 282.704216 
L 253.214526 282.704216 
L 253.567987 272.939815 
L 253.567987 272.939815 
L 253.744718 270.497094 
L 253.744718 270.497094 
L 254.09818 263.209106 
L 254.09818 263.209106 
L 254.274911 261.895091 
L 254.274911 261.895091 
L 254.451642 257.673138 
L 254.451642 257.673138 
L 254.805103 255.391106 
L 254.805103 255.391106 
L 254.981834 251.429623 
L 254.981834 251.429623 
L 255.335296 249.395103 
L 255.335296 249.395103 
L 255.512027 245.341613 
L 255.512027 245.341613 
L 255.865488 242.839283 
L 255.865488 242.839283 
L 256.21895 236.752569 
L 256.21895 236.752569 
L 256.395681 235.257132 
L 256.395681 235.257132 
L 256.749142 228.584683 
L 256.749142 228.584683 
L 256.925873 226.648649 
L 256.925873 226.648649 
L 257.279335 219.639273 
L 257.279335 219.639273 
L 257.456066 217.37668 
L 257.456066 217.37668 
L 257.809527 210.508554 
L 257.809527 210.508554 
L 259.223374 192.622919 
L 259.223374 192.622919 
L 259.400105 191.24411 
L 259.400105 191.24411 
L 259.753567 187.273556 
L 259.753567 187.273556 
L 261.344144 174.222822 
L 261.344144 174.222822 
L 261.520875 173.766675 
L 261.520875 173.766675 
L 261.697606 173.743349 
L 261.697606 173.743349 
L 261.874337 174.218934 
L 261.874337 174.218934 
L 262.051067 175.23749 
L 262.051067 175.23749 
L 262.404529 179.722506 
L 262.404529 179.722506 
L 262.757991 187.688235 
L 262.757991 187.688235 
L 263.641645 216.435876 
L 263.641645 216.435876 
L 264.878761 254.730211 
L 264.878761 254.730211 
L 266.115877 287.347328 
L 266.115877 287.347328 
L 266.646069 295.488 
L 266.646069 295.488 
L 266.999531 291.911391 
L 266.999531 291.911391 
L 267.352993 291.067778 
L 267.352993 291.067778 
L 267.529723 295.488 
L 267.529723 295.488 
L 267.706454 291.207732 
L 267.706454 291.207732 
L 267.883185 291.525221 
L 267.883185 291.525221 
L 268.236647 292.666885 
L 268.236647 292.666885 
L 268.413378 295.488 
L 268.413378 295.488 
L 268.590108 292.980486 
L 268.590108 292.980486 
L 268.766839 293.165796 
L 268.766839 293.165796 
L 269.120301 294.157139 
L 269.120301 294.157139 
L 269.297032 295.488 
L 269.297032 295.488 
L 269.473763 295.281956 
L 269.473763 295.281956 
L 269.827224 292.219809 
L 269.827224 292.219809 
L 270.003955 290.45483 
L 270.003955 290.45483 
L 270.180686 295.488 
L 270.180686 295.488 
L 270.357417 286.562029 
L 270.357417 286.562029 
L 271.241071 277.777307 
L 271.241071 277.777307 
L 271.947994 272.368335 
L 271.947994 272.368335 
L 273.18511 263.4307 
L 273.18511 263.4307 
L 273.715303 264.282089 
L 273.715303 264.282089 
L 274.068764 266.339935 
L 274.068764 266.339935 
L 274.952418 278.781609 
L 274.952418 278.781609 
L 275.30588 285.250605 
L 275.30588 285.250605 
L 275.482611 295.488 
L 275.482611 295.488 
L 275.659342 290.777503 
L 275.659342 290.777503 
L 276.012803 295.081096 
L 276.012803 295.081096 
L 276.189534 292.701874 
L 276.189534 292.701874 
L 276.366265 295.488 
L 276.366265 295.488 
L 276.542996 287.878635 
L 276.542996 287.878635 
L 277.603381 273.677166 
L 277.603381 273.677166 
L 277.956843 271.791671 
L 277.956843 271.791671 
L 278.133574 271.835731 
L 278.133574 271.835731 
L 278.310304 272.421465 
L 278.310304 272.421465 
L 278.663766 274.821422 
L 278.663766 274.821422 
L 279.193959 281.085671 
L 279.193959 281.085671 
L 280.077613 292.980486 
L 280.077613 292.980486 
L 280.254344 294.768791 
L 280.254344 294.768791 
L 280.431074 294.843951 
L 280.431074 294.843951 
L 280.784536 292.152424 
L 280.784536 292.152424 
L 280.961267 295.488 
L 280.961267 295.488 
L 281.137998 289.631951 
L 281.137998 289.631951 
L 281.491459 287.270871 
L 281.491459 287.270871 
L 281.844921 284.224274 
L 281.844921 284.224274 
L 282.198383 279.916793 
L 282.198383 279.916793 
L 282.551844 273.059035 
L 282.551844 273.059035 
L 283.082037 256.785465 
L 283.082037 256.785465 
L 283.612229 234.759516 
L 283.612229 234.759516 
L 284.672614 170.747291 
L 284.672614 170.747291 
L 284.849345 167.924881 
L 284.849345 167.924881 
L 285.026076 153.175257 
L 285.202807 155.99378 
L 285.202807 155.99378 
L 285.379538 156.294423 
L 285.379538 156.294423 
L 285.556269 149.592169 
L 285.556269 149.592169 
L 285.732999 155.282346 
L 285.732999 155.282346 
L 285.90973 148.455689 
L 285.90973 148.455689 
L 286.086461 158.523324 
L 286.086461 158.523324 
L 286.263192 149.891516 
L 286.263192 149.891516 
L 286.616654 167.884708 
L 286.616654 167.884708 
L 286.793384 160.090034 
L 286.793384 160.090034 
L 286.970115 165.311105 
L 287.146846 151.415462 
L 287.146846 151.415462 
L 287.323577 156.740203 
L 287.323577 156.740203 
L 287.500308 156.944951 
L 287.500308 156.944951 
L 287.677039 144.444963 
L 287.677039 144.444963 
L 287.853769 147.124827 
L 287.853769 147.124827 
L 288.0305 133.590733 
L 288.0305 133.590733 
L 288.383962 143.940868 
L 288.383962 143.940868 
L 288.560693 137.812686 
L 288.560693 137.812686 
L 288.914155 148.315734 
L 288.914155 148.315734 
L 289.090885 146.418577 
L 289.090885 146.418577 
L 289.267616 151.469889 
L 289.267616 151.469889 
L 289.444347 146.463932 
L 289.444347 146.463932 
L 289.797809 156.173907 
L 289.797809 156.173907 
L 289.97454 150.176608 
L 289.97454 150.176608 
L 290.15127 154.748447 
L 290.15127 154.748447 
L 290.328001 143.452324 
L 290.328001 143.452324 
L 290.504732 149.901883 
L 290.504732 149.901883 
L 290.681463 151.627985 
L 290.858194 141.480006 
L 290.858194 141.480006 
L 291.034925 144.890743 
L 291.034925 144.890743 
L 291.211655 130.764434 
L 291.388386 136.887433 
L 291.388386 136.887433 
L 291.565117 138.674441 
L 291.565117 138.674441 
L 291.741848 128.164914 
L 291.741848 128.164914 
L 291.918579 132.977785 
L 291.918579 132.977785 
L 292.09531 119.689906 
L 292.09531 119.689906 
L 292.448771 134.919002 
L 292.448771 134.919002 
L 292.625502 130.303104 
L 292.625502 130.303104 
L 292.802233 141.385407 
L 292.802233 141.385407 
L 292.978964 139.416976 
L 292.978964 139.416976 
L 293.332425 165.806129 
L 293.332425 165.806129 
L 293.509156 171.009058 
L 293.509156 171.009058 
L 294.039349 202.640015 
L 294.039349 202.640015 
L 294.569541 227.737182 
L 294.569541 227.737182 
L 294.923003 239.320988 
L 294.923003 239.320988 
L 295.276465 247.554964 
L 295.276465 247.554964 
L 295.453195 252.041275 
L 295.453195 252.041275 
L 295.629926 253.6974 
L 295.629926 253.6974 
L 295.983388 260.914116 
L 295.983388 260.914116 
L 296.160119 261.851032 
L 296.160119 261.851032 
L 296.33685 264.419451 
L 296.33685 264.419451 
L 296.51358 264.270426 
L 296.51358 264.270426 
L 296.690311 266.298467 
L 296.690311 266.298467 
L 296.867042 264.95983 
L 296.867042 264.95983 
L 297.043773 266.443605 
L 297.043773 266.443605 
L 297.220504 266.605589 
L 297.397235 264.85616 
L 297.397235 264.85616 
L 297.573965 264.585323 
L 297.750696 262.101135 
L 297.750696 262.101135 
L 297.927427 261.659242 
L 297.927427 261.659242 
L 298.104158 258.957348 
L 298.104158 258.957348 
L 298.280889 258.848495 
L 298.280889 258.848495 
L 298.45762 256.236015 
L 298.45762 256.236015 
L 298.63435 256.771211 
L 298.63435 256.771211 
L 298.811081 254.623949 
L 298.811081 254.623949 
L 298.987812 256.144008 
L 298.987812 256.144008 
L 299.164543 254.86239 
L 299.164543 254.86239 
L 299.341274 257.684801 
L 299.341274 257.684801 
L 299.518005 257.122392 
L 299.518005 257.122392 
L 299.694735 260.346523 
L 299.694735 260.346523 
L 299.871466 259.475697 
L 299.871466 259.475697 
L 300.048197 262.362901 
L 300.048197 262.362901 
L 300.224928 261.048886 
L 300.224928 261.048886 
L 300.401659 263.477352 
L 300.401659 263.477352 
L 300.57839 262.036341 
L 300.57839 262.036341 
L 300.755121 264.203041 
L 300.755121 264.203041 
L 300.931851 262.983624 
L 300.931851 262.983624 
L 301.108582 265.108856 
L 301.108582 265.108856 
L 301.285313 264.486837 
L 301.285313 264.486837 
L 301.462044 261.648875 
L 301.462044 261.648875 
L 301.638775 267.548984 
L 301.638775 267.548984 
L 301.815506 266.601701 
L 301.815506 266.601701 
L 301.992236 273.605893 
L 301.992236 273.605893 
L 302.168967 275.55359 
L 302.168967 275.55359 
L 302.522429 295.488 
L 302.522429 295.488 
L 302.69916 294.821921 
L 302.69916 294.821921 
L 304.113006 194.070409 
L 304.113006 194.070409 
L 304.643199 167.687736 
L 304.643199 167.687736 
L 304.81993 162.255437 
L 304.81993 162.255437 
L 305.173391 160.664106 
L 305.173391 160.664106 
L 305.350122 159.251604 
L 305.350122 159.251604 
L 305.526853 165.681725 
L 305.526853 165.681725 
L 305.703584 166.508492 
L 305.703584 166.508492 
L 305.880315 174.051767 
L 305.880315 174.051767 
L 306.057046 174.887605 
L 306.057046 174.887605 
L 306.233776 181.723333 
L 306.233776 181.723333 
L 306.410507 181.295695 
L 306.410507 181.295695 
L 306.587238 186.108567 
L 306.587238 186.108567 
L 306.763969 183.310777 
L 306.763969 183.310777 
L 306.9407 185.50469 
L 306.9407 185.50469 
L 307.117431 180.0698 
L 307.117431 180.0698 
L 307.294161 180.227896 
L 307.294161 180.227896 
L 307.470892 173.110963 
L 307.470892 173.110963 
L 307.647623 172.247912 
L 307.647623 172.247912 
L 307.824354 164.131861 
L 307.824354 164.131861 
L 308.001085 163.792342 
L 308.001085 163.792342 
L 308.177816 156.990306 
L 308.177816 156.990306 
L 308.354546 158.906902 
L 308.354546 158.906902 
L 308.531277 154.134203 
L 308.531277 154.134203 
L 308.708008 158.266741 
L 308.708008 158.266741 
L 308.884739 155.577805 
L 308.884739 155.577805 
L 309.06147 161.936653 
L 309.238201 161.204485 
L 309.238201 161.204485 
L 309.591662 172.488944 
L 309.591662 172.488944 
L 309.768393 172.60946 
L 309.768393 172.60946 
L 309.945124 175.431871 
L 309.945124 175.431871 
L 310.121855 173.533418 
L 310.121855 173.533418 
L 310.298586 175.86858 
L 310.298586 175.86858 
L 310.475316 172.533004 
L 310.475316 172.533004 
L 310.652047 176.430989 
L 310.652047 176.430989 
L 310.828778 171.21251 
L 310.828778 171.21251 
L 311.005509 176.311769 
L 311.005509 176.311769 
L 311.18224 170.489413 
L 311.18224 170.489413 
L 311.535701 182.06674 
L 311.535701 182.06674 
L 311.712432 179.158801 
L 311.712432 179.158801 
L 311.889163 183.191557 
L 311.889163 183.191557 
L 312.065894 177.934201 
L 312.065894 177.934201 
L 312.242625 182.259825 
L 312.242625 182.259825 
L 312.419356 174.750242 
L 312.419356 174.750242 
L 312.596087 178.605464 
L 312.596087 178.605464 
L 312.772817 167.90933 
L 312.772817 167.90933 
L 312.949548 172.017247 
L 312.949548 172.017247 
L 313.126279 171.987442 
L 313.126279 171.987442 
L 313.30301 165.430326 
L 313.30301 165.430326 
L 313.479741 168.168505 
L 313.656472 163.635542 
L 313.656472 163.635542 
L 313.833202 171.901914 
L 313.833202 171.901914 
L 314.009933 170.170628 
L 314.009933 170.170628 
L 314.186664 183.534963 
L 314.186664 183.534963 
L 314.363395 184.037762 
L 314.363395 184.037762 
L 314.716857 214.184945 
L 314.716857 214.184945 
L 314.893587 219.503207 
L 314.893587 219.503207 
L 315.070318 232.639469 
L 315.247049 234.724528 
L 315.247049 234.724528 
L 315.42378 246.68025 
L 315.42378 246.68025 
L 315.600511 244.806418 
L 315.600511 244.806418 
L 315.777242 253.977309 
L 315.777242 253.977309 
L 315.953972 257.166452 
L 315.953972 257.166452 
L 316.130703 253.267171 
L 316.130703 253.267171 
L 316.307434 255.108606 
L 316.307434 255.108606 
L 316.484165 248.477625 
L 316.484165 248.477625 
L 316.660896 250.203728 
L 316.837627 241.777963 
L 316.837627 241.777963 
L 317.014357 243.874685 
L 317.014357 243.874685 
L 317.191088 235.345251 
L 317.191088 235.345251 
L 317.54455 241.071712 
L 317.54455 241.071712 
L 317.721281 238.540873 
L 317.721281 238.540873 
L 317.898012 242.555487 
L 317.898012 242.555487 
L 318.074742 240.637595 
L 318.074742 240.637595 
L 318.251473 245.791281 
L 318.251473 245.791281 
L 318.428204 244.737736 
L 318.428204 244.737736 
L 318.604935 250.224462 
L 318.604935 250.224462 
L 318.781666 248.881937 
L 319.135127 255.087872 
L 319.135127 255.087872 
L 319.311858 253.417492 
L 319.488589 253.605393 
L 319.488589 253.605393 
L 319.66532 250.247787 
L 319.66532 250.247787 
L 319.842051 249.415837 
L 319.842051 249.415837 
L 320.018782 244.898425 
L 320.018782 244.898425 
L 320.195512 243.387437 
L 320.195512 243.387437 
L 320.372243 238.130081 
L 320.372243 238.130081 
L 320.548974 236.931399 
L 320.548974 236.931399 
L 320.725705 231.366922 
L 320.725705 231.366922 
L 320.902436 231.44597 
L 320.902436 231.44597 
L 321.079167 225.959245 
L 321.079167 225.959245 
L 321.255897 227.472824 
L 321.255897 227.472824 
L 321.432628 222.864701 
L 321.432628 222.864701 
L 321.78609 226.6953 
L 321.78609 226.6953 
L 321.962821 225.504393 
L 321.962821 225.504393 
L 322.139552 227.055553 
L 322.139552 227.055553 
L 322.316282 226.643466 
L 322.316282 226.643466 
L 322.493013 229.402379 
L 322.493013 229.402379 
L 322.669744 230.076232 
L 322.669744 230.076232 
L 322.846475 228.91513 
L 322.846475 228.91513 
L 323.023206 235.305079 
L 323.199937 235.285641 
L 323.199937 235.285641 
L 323.376667 242.368881 
L 323.376667 242.368881 
L 323.553398 243.651795 
L 323.553398 243.651795 
L 323.730129 251.323362 
L 323.730129 251.323362 
L 323.90686 253.938433 
L 323.90686 253.938433 
L 324.437053 274.129426 
L 324.437053 274.129426 
L 324.613783 279.064109 
L 324.613783 279.064109 
L 324.967245 295.488 
L 324.967245 295.488 
L 325.143976 292.081151 
L 325.143976 292.081151 
L 325.674168 267.403846 
L 325.674168 267.403846 
L 326.557823 238.389256 
L 326.557823 238.389256 
L 326.911284 232.96862 
L 326.911284 232.96862 
L 327.088015 231.632576 
L 327.088015 231.632576 
L 327.264746 231.158286 
L 327.264746 231.158286 
L 327.441477 231.252885 
L 327.441477 231.252885 
L 327.618208 232.106865 
L 327.618208 232.106865 
L 327.971669 235.359505 
L 327.971669 235.359505 
L 328.501862 244.082025 
L 328.501862 244.082025 
L 329.032054 258.326258 
L 329.032054 258.326258 
L 329.562247 281.892999 
L 329.562247 281.892999 
L 329.738978 292.835349 
L 329.915708 288.047099 
L 329.915708 288.047099 
L 330.622632 244.46042 
L 330.622632 244.46042 
L 330.976093 224.612833 
L 330.976093 224.612833 
L 331.152824 222.758439 
L 331.152824 222.758439 
L 331.329555 216.231128 
L 331.329555 216.231128 
L 331.506286 217.187482 
L 331.506286 217.187482 
L 331.683017 214.413019 
L 331.683017 214.413019 
L 331.859748 217.661772 
L 331.859748 217.661772 
L 332.036478 217.586611 
L 332.036478 217.586611 
L 332.213209 215.246265 
L 332.213209 215.246265 
L 332.38994 223.45821 
L 332.38994 223.45821 
L 332.566671 222.172705 
L 332.566671 222.172705 
L 332.743402 229.646003 
L 332.743402 229.646003 
L 332.920133 228.754442 
L 332.920133 228.754442 
L 333.096863 235.044608 
L 333.096863 235.044608 
L 333.273594 234.127131 
L 333.273594 234.127131 
L 333.450325 239.239348 
L 333.627056 238.465712 
L 333.627056 238.465712 
L 333.803787 241.899775 
L 333.803787 241.899775 
L 333.980518 240.635003 
L 333.980518 240.635003 
L 334.157248 242.0488 
L 334.157248 242.0488 
L 334.333979 239.646252 
L 334.333979 239.646252 
L 334.51071 239.368936 
L 334.51071 239.368936 
L 334.687441 235.783256 
L 334.687441 235.783256 
L 334.864172 228.864591 
L 334.864172 228.864591 
L 335.040903 230.703435 
L 335.040903 230.703435 
L 335.217633 223.813279 
L 335.394364 226.228786 
L 335.394364 226.228786 
L 335.571095 219.658712 
L 335.571095 219.658712 
L 335.747826 222.351535 
L 335.747826 222.351535 
L 335.924557 216.223353 
L 335.924557 216.223353 
L 336.101288 219.337335 
L 336.101288 219.337335 
L 336.278019 214.149957 
L 336.278019 214.149957 
L 336.454749 217.585315 
L 336.454749 217.585315 
L 336.63148 213.72491 
L 336.63148 213.72491 
L 336.808211 217.606049 
L 336.808211 217.606049 
L 336.984942 215.079097 
L 337.161673 219.409904 
L 337.161673 219.409904 
L 337.338404 218.581841 
L 337.338404 218.581841 
L 337.515134 223.719977 
L 337.515134 223.719977 
L 337.691865 224.910884 
L 337.691865 224.910884 
L 337.868596 223.651295 
L 337.868596 223.651295 
L 338.045327 233.899057 
L 338.045327 233.899057 
L 338.222058 235.175492 
L 338.222058 235.175492 
L 338.398789 246.113953 
L 338.398789 246.113953 
L 338.575519 249.656869 
L 338.575519 249.656869 
L 339.105712 279.490451 
L 339.105712 279.490451 
L 339.282443 287.806066 
L 339.282443 287.806066 
L 339.459174 290.681608 
L 339.459174 290.681608 
L 341.226482 194.857003 
L 341.226482 194.857003 
L 341.403213 188.555174 
L 341.403213 188.555174 
L 341.579944 189.181081 
L 341.579944 189.181081 
L 341.756674 186.41828 
L 341.756674 186.41828 
L 341.933405 189.511528 
L 341.933405 189.511528 
L 342.110136 189.831609 
L 342.110136 189.831609 
L 342.463598 196.519608 
L 342.463598 196.519608 
L 342.640329 196.598656 
L 342.640329 196.598656 
L 342.817059 205.227873 
L 342.817059 205.227873 
L 342.99379 206.797175 
L 342.99379 206.797175 
L 343.170521 214.751242 
L 343.170521 214.751242 
L 343.347252 216.724856 
L 343.347252 216.724856 
L 343.523983 223.437476 
L 343.523983 223.437476 
L 343.700714 225.862054 
L 343.700714 225.862054 
L 343.877444 223.959713 
L 343.877444 223.959713 
L 344.054175 234.295594 
L 344.054175 234.295594 
L 344.230906 233.286109 
L 344.230906 233.286109 
L 344.407637 244.164961 
L 344.407637 244.164961 
L 344.584368 246.453472 
L 344.584368 246.453472 
L 344.937829 267.463456 
L 344.937829 267.463456 
L 345.11456 274.327694 
L 345.291291 294.915224 
L 345.291291 294.915224 
L 345.468022 283.129262 
L 345.468022 283.129262 
L 346.174945 207.744458 
L 346.174945 207.744458 
L 346.881869 143.269606 
L 346.881869 143.269606 
L 347.23533 123.856137 
L 347.23533 123.856137 
L 347.588792 115.865785 
L 347.588792 115.865785 
L 348.118985 138.829946 
L 348.118985 138.829946 
L 348.649177 190.519717 
L 348.649177 190.519717 
L 349.709562 264.974085 
L 349.709562 264.974085 
L 350.063024 280.450693 
L 350.063024 280.450693 
L 350.416485 291.951563 
L 350.416485 291.951563 
L 350.593216 293.273354 
L 350.593216 293.273354 
L 350.769947 290.063477 
L 350.769947 290.063477 
L 350.946678 289.048808 
L 350.946678 289.048808 
L 351.123409 283.251074 
L 351.123409 283.251074 
L 351.30014 282.474846 
L 351.30014 282.474846 
L 351.47687 277.950954 
L 351.47687 277.950954 
L 351.653601 277.382066 
L 351.653601 277.382066 
L 351.830332 278.852882 
L 351.830332 278.852882 
L 352.007063 273.976513 
L 352.007063 273.976513 
L 352.183794 275.677994 
L 352.183794 275.677994 
L 352.360525 272.652131 
L 352.360525 272.652131 
L 352.537255 275.024874 
L 352.537255 275.024874 
L 352.713986 273.392074 
L 352.713986 273.392074 
L 352.890717 275.979932 
L 352.890717 275.979932 
L 353.067448 275.307374 
L 353.067448 275.307374 
L 353.244179 277.370403 
L 353.244179 277.370403 
L 353.42091 281.436852 
L 353.42091 281.436852 
L 353.59764 278.728478 
L 353.59764 278.728478 
L 353.774371 282.008332 
L 353.774371 282.008332 
L 353.951102 279.915497 
L 353.951102 279.915497 
L 354.127833 282.452816 
L 354.127833 282.452816 
L 354.304564 280.969042 
L 354.304564 280.969042 
L 354.481295 295.488 
L 354.481295 295.488 
L 354.834756 281.733607 
L 354.834756 281.733607 
L 355.011487 283.73573 
L 355.011487 283.73573 
L 355.188218 280.045085 
L 355.188218 280.045085 
L 355.364949 281.105109 
L 355.364949 281.105109 
L 355.54168 277.54405 
L 355.54168 277.54405 
L 355.71841 277.029589 
L 355.71841 277.029589 
L 355.895141 277.944475 
L 355.895141 277.944475 
L 356.071872 271.926442 
L 356.071872 271.926442 
L 356.248603 271.618024 
L 356.248603 271.618024 
L 356.425334 266.075577 
L 356.425334 266.075577 
L 356.602065 264.713614 
L 356.602065 264.713614 
L 356.955526 258.341808 
L 356.955526 258.341808 
L 357.132257 257.954342 
L 357.132257 257.954342 
L 357.308988 252.700874 
L 357.308988 252.700874 
L 357.485719 252.09311 
L 357.485719 252.09311 
L 357.66245 248.358405 
L 357.66245 248.358405 
L 357.83918 247.456477 
L 357.83918 247.456477 
L 358.015911 247.60939 
L 358.192642 243.967988 
L 358.192642 243.967988 
L 358.369373 244.219387 
L 358.369373 244.219387 
L 358.546104 242.651381 
L 358.546104 242.651381 
L 358.722835 243.900603 
L 358.722835 243.900603 
L 358.899565 246.732085 
L 358.899565 246.732085 
L 359.076296 247.214149 
L 359.076296 247.214149 
L 360.136681 273.710859 
L 360.136681 273.710859 
L 360.313412 280.396266 
L 360.313412 280.396266 
L 360.490143 281.834685 
L 360.490143 281.834685 
L 361.020336 295.488 
L 361.020336 295.488 
L 361.197066 291.391746 
L 361.197066 291.391746 
L 361.373797 291.23365 
L 361.373797 291.23365 
L 361.727259 284.548242 
L 361.727259 284.548242 
L 361.90399 286.665698 
L 361.90399 286.665698 
L 362.257451 283.195351 
L 362.257451 283.195351 
L 362.434182 287.125733 
L 362.434182 287.125733 
L 362.610913 286.968933 
L 362.610913 286.968933 
L 362.787644 286.286008 
L 362.787644 286.286008 
L 362.964375 291.535588 
L 362.964375 291.535588 
L 363.141106 292.306632 
L 363.141106 292.306632 
L 363.317836 294.455189 
L 363.317836 294.455189 
L 363.671298 289.718775 
L 363.671298 289.718775 
L 365.438606 229.533262 
L 365.438606 229.533262 
L 365.792068 214.335266 
L 365.792068 214.335266 
L 367.205915 173.112259 
L 367.205915 173.112259 
L 367.912838 161.37554 
L 367.912838 161.37554 
L 368.2663 157.796339 
L 368.2663 157.796339 
L 368.619761 155.996372 
L 368.619761 155.996372 
L 368.796492 155.949721 
L 368.796492 155.949721 
L 368.973223 156.46159 
L 368.973223 156.46159 
L 369.326685 159.299552 
L 369.326685 159.299552 
L 369.680146 164.836816 
L 369.680146 164.836816 
L 370.210339 178.880189 
L 370.210339 178.880189 
L 371.270724 217.103251 
L 371.270724 217.103251 
L 371.977647 239.495931 
L 371.977647 239.495931 
L 373.214763 269.958011 
L 373.214763 269.958011 
L 373.744956 281.593653 
L 373.744956 281.593653 
L 373.921687 295.488 
L 373.921687 295.488 
L 374.098417 288.172798 
L 374.098417 288.172798 
L 374.62861 294.744169 
L 374.62861 294.744169 
L 374.805341 295.488 
L 374.805341 295.488 
L 375.158802 292.416782 
L 375.158802 292.416782 
L 375.512264 290.428913 
L 375.512264 290.428913 
L 375.688995 295.488 
L 375.688995 295.488 
L 375.865726 288.032844 
L 375.865726 288.032844 
L 376.572649 283.892531 
L 376.572649 283.892531 
L 376.926111 282.997083 
L 376.926111 282.997083 
L 377.279572 283.260145 
L 377.279572 283.260145 
L 377.633034 284.042852 
L 377.633034 284.042852 
L 378.163227 285.524035 
L 378.163227 285.524035 
L 378.516688 285.661397 
L 378.516688 285.661397 
L 378.693419 285.663989 
L 378.693419 285.663989 
L 379.223612 286.139574 
L 379.223612 286.139574 
L 379.400342 286.615159 
L 379.400342 286.615159 
L 379.753804 288.70281 
L 379.753804 288.70281 
L 379.930535 290.003867 
L 379.930535 290.003867 
L 380.107266 295.488 
L 380.107266 295.488 
L 380.283997 293.095819 
L 380.283997 293.095819 
L 380.460727 294.779158 
L 380.460727 294.779158 
L 380.637458 294.391692 
L 380.637458 294.391692 
L 380.814189 292.818502 
L 380.814189 292.818502 
L 380.99092 295.488 
L 380.99092 295.488 
L 381.167651 290.471677 
L 381.167651 290.471677 
L 381.521112 289.493293 
L 381.521112 289.493293 
L 381.697843 289.353339 
L 381.697843 289.353339 
L 381.874574 295.488 
L 381.874574 295.488 
L 382.051305 289.475151 
L 382.051305 289.475151 
L 382.228036 289.569749 
L 382.228036 289.569749 
L 382.404767 289.436274 
L 382.404767 289.436274 
L 382.581498 289.129153 
L 382.581498 289.129153 
L 382.758228 295.488 
L 382.758228 295.488 
L 382.934959 288.13781 
L 382.934959 288.13781 
L 383.818613 285.336133 
L 383.818613 285.336133 
L 383.995344 285.351684 
L 383.995344 285.351684 
L 384.348806 285.867441 
L 384.348806 285.867441 
L 384.525537 295.488 
L 384.525537 295.488 
L 384.702268 286.777144 
L 384.702268 286.777144 
L 385.055729 287.545596 
L 385.055729 287.545596 
L 385.23246 287.638899 
L 385.23246 287.638899 
L 385.409191 295.488 
L 385.409191 295.488 
L 385.585922 287.52875 
L 385.585922 287.52875 
L 386.116114 287.301972 
L 386.116114 287.301972 
L 386.292845 295.488 
L 386.292845 295.488 
L 386.469576 287.879931 
L 386.469576 287.879931 
L 386.999768 289.928706 
L 386.999768 289.928706 
L 387.176499 295.488 
L 387.176499 295.488 
L 387.35323 291.487641 
L 387.35323 291.487641 
L 387.706692 292.57747 
L 387.706692 292.57747 
L 387.883423 292.675956 
L 387.883423 292.675956 
L 388.060153 295.488 
L 388.060153 295.488 
L 388.236884 292.341621 
L 388.236884 292.341621 
L 388.767077 291.459132 
L 388.767077 291.459132 
L 388.943808 295.488 
L 388.943808 295.488 
L 389.120538 291.473386 
L 389.120538 291.473386 
L 389.474 292.248318 
L 389.474 292.248318 
L 389.650731 292.751117 
L 389.650731 292.751117 
L 389.827462 295.488 
L 389.827462 295.488 
L 390.004193 293.862976 
L 390.004193 293.862976 
L 390.357654 294.635316 
L 390.357654 294.635316 
L 390.534385 294.606807 
L 390.534385 294.606807 
L 390.711116 295.488 
L 390.711116 295.488 
L 390.887847 294.098824 
L 390.887847 294.098824 
L 391.418039 293.182642 
L 391.418039 293.182642 
L 391.59477 295.488 
L 391.59477 295.488 
L 391.771501 293.285016 
L 391.771501 293.285016 
L 392.124963 294.245258 
L 392.124963 294.245258 
L 392.478424 295.488 
L 392.478424 295.488 
L 393.008617 293.620647 
L 393.008617 293.620647 
L 393.185348 293.472918 
L 393.185348 293.472918 
L 393.362078 295.488 
L 393.362078 295.488 
L 393.538809 293.606393 
L 393.538809 293.606393 
L 394.069002 293.940728 
L 394.069002 293.940728 
L 394.245733 295.488 
L 394.245733 295.488 
L 394.422464 293.456072 
L 394.422464 293.456072 
L 394.952656 291.356758 
L 394.952656 291.356758 
L 395.129387 295.488 
L 395.129387 295.488 
L 395.306118 289.668236 
L 395.306118 289.668236 
L 395.482849 288.963281 
L 395.482849 288.963281 
L 395.659579 288.74687 
L 395.659579 288.74687 
L 395.83631 288.961985 
L 395.83631 288.961985 
L 396.013041 295.488 
L 396.013041 295.488 
L 396.189772 290.224165 
L 396.189772 290.224165 
L 396.366503 291.460428 
L 396.366503 291.460428 
L 396.719964 294.728619 
L 396.719964 294.728619 
L 396.896695 295.488 
L 396.896695 295.488 
L 397.250157 284.981064 
L 397.250157 284.981064 
L 397.603619 280.668399 
L 397.603619 280.668399 
L 397.780349 278.937114 
L 397.780349 278.937114 
L 397.95708 279.436025 
L 397.95708 279.436025 
L 398.133811 294.757128 
L 398.133811 294.757128 
L 398.310542 282.308974 
L 398.310542 282.308974 
L 398.487273 245.097989 
L 398.487273 245.097989 
" clip-path="url(#p4ec2f000ad)" style="fill: none; stroke: #1f77b4; stroke-width: 1.5; stroke-linecap: square"/>
   </g>
   <g id="patch_3">
    <path d="M 57.6 307.584 
L 57.6 41.472 
" style="fill: none; stroke: #000000; stroke-width: 0.8; stroke-linejoin: miter; stroke-linecap: square"/>
   </g>
   <g id="patch_4">
    <path d="M 414.72 307.584 
L 414.72 41.472 
" style="fill: none; stroke: #000000; stroke-width: 0.8; stroke-linejoin: miter; stroke-linecap: square"/>
   </g>
   <g id="patch_5">
    <path d="M 57.6 307.584 
L 414.72 307.584 
" style="fill: none; stroke: #000000; stroke-width: 0.8; stroke-linejoin: miter; stroke-linecap: square"/>
   </g>
   <g id="patch_6">
    <path d="M 57.6 41.472 
L 414.72 41.472 
" style="fill: none; stroke: #000000; stroke-width: 0.8; stroke-linejoin: miter; stroke-linecap: square"/>
   </g>
   <g id="text_19">
    <!-- Tracking error vs Time -->
    <g transform="translate(169.584375 35.472) scale(0.12 -0.12)">
     <defs>
      <path id="DejaVuSans-76" d="M 191 3500 
L 800 3500 
L 1894 563 
L 2988 3500 
L 3597 3500 
L 2284 0 
L 1503 0 
L 191 3500 
z
" transform="scale(0.015625)"/>
     </defs>
     <use xlink:href="#DejaVuSans-54"/>
     <use xlink:href="#DejaVuSans-72" x="46.333984"/>
     <use xlink:href="#DejaVuSans-61" x="87.447266"/>
     <use xlink:href="#DejaVuSans-63" x="148.726562"/>
     <use xlink:href="#DejaVuSans-6b" x="203.707031"/>
     <use xlink:href="#DejaVuSans-69" x="261.617188"/>
     <use xlink:href="#DejaVuSans-6e" x="289.400391"/>
     <use xlink:href="#DejaVuSans-67" x="352.779297"/>
     <use xlink:href="#DejaVuSans-20" x="416.255859"/>
     <use xlink:href="#DejaVuSans-65" x="448.042969"/>
     <use xlink:href="#DejaVuSans-72" x="509.566406"/>
     <use xlink:href="#DejaVuSans-72" x="548.929688"/>
     <use xlink:href="#DejaVuSans-6f" x="587.792969"/>
     <use xlink:href="#DejaVuSans-72" x="648.974609"/>
     <use xlink:href="#DejaVuSans-20" x="690.087891"/>
     <use xlink:href="#DejaVuSans-76" x="721.875"/>
     <use xlink:href="#DejaVuSans-73" x="781.054688"/>
     <use xlink:href="#DejaVuSans-20" x="833.154297"/>
     <use xlink:href="#DejaVuSans-54" x="864.941406"/>
     <use xlink:href="#DejaVuSans-69" x="922.900391"/>
     <use xlink:href="#DejaVuSans-6d" x="950.683594"/>
     <use xlink:href="#DejaVuSans-65" x="1048.095703"/>
    </g>
   </g>
   <g id="legend_1">
    <g id="patch_7">
     <path d="M 311.00125 64.150125 
L 407.72 64.150125 
Q 409.72 64.150125 409.72 62.150125 
L 409.72 48.472 
Q 409.72 46.472 407.72 46.472 
L 311.00125 46.472 
Q 309.00125 46.472 309.00125 48.472 
L 309.00125 62.150125 
Q 309.00125 64.150125 311.00125 64.150125 
z
" style="fill: #ffffff; opacity: 0.8; stroke: #cccccc; stroke-linejoin: miter"/>
    </g>
    <g id="line2d_34">
     <path d="M 313.00125 54.570438 
L 323.00125 54.570438 
L 333.00125 54.570438 
" style="fill: none; stroke: #1f77b4; stroke-width: 1.5; stroke-linecap: square"/>
    </g>
    <g id="text_20">
     <!-- Actual speed -->
     <g transform="translate(341.00125 58.070438) scale(0.1 -0.1)">
      <defs>
       <path id="DejaVuSans-41" d="M 2188 4044 
L 1331 1722 
L 3047 1722 
L 2188 4044 
z
M 1831 4666 
L 2547 4666 
L 4325 0 
L 3669 0 
L 3244 1197 
L 1141 1197 
L 716 0 
L 50 0 
L 1831 4666 
z
" transform="scale(0.015625)"/>
       <path id="DejaVuSans-74" d="M 1172 4494 
L 1172 3500 
L 2356 3500 
L 2356 3053 
L 1172 3053 
L 1172 1153 
Q 1172 725 1289 603 
Q 1406 481 1766 481 
L 2356 481 
L 2356 0 
L 1766 0 
Q 1100 0 847 248 
Q 594 497 594 1153 
L 594 3053 
L 172 3053 
L 172 3500 
L 594 3500 
L 594 4494 
L 1172 4494 
z
" transform="scale(0.015625)"/>
       <path id="DejaVuSans-75" d="M 544 1381 
L 544 3500 
L 1119 3500 
L 1119 1403 
Q 1119 906 1312 657 
Q 1506 409 1894 409 
Q 2359 409 2629 706 
Q 2900 1003 2900 1516 
L 2900 3500 
L 3475 3500 
L 3475 0 
L 2900 0 
L 2900 538 
Q 2691 219 2414 64 
Q 2138 -91 1772 -91 
Q 1169 -91 856 284 
Q 544 659 544 1381 
z
M 1991 3584 
L 1991 3584 
z
" transform="scale(0.015625)"/>
       <path id="DejaVuSans-6c" d="M 603 4863 
L 1178 4863 
L 1178 0 
L 603 0 
L 603 4863 
z
" transform="scale(0.015625)"/>
       <path id="DejaVuSans-70" d="M 1159 525 
L 1159 -1331 
L 581 -1331 
L 581 3500 
L 1159 3500 
L 1159 2969 
Q 1341 3281 1617 3432 
Q 1894 3584 2278 3584 
Q 2916 3584 3314 3078 
Q 3713 2572 3713 1747 
Q 3713 922 3314 415 
Q 2916 -91 2278 -91 
Q 1894 -91 1617 61 
Q 1341 213 1159 525 
z
M 3116 1747 
Q 3116 2381 2855 2742 
Q 2594 3103 2138 3103 
Q 1681 3103 1420 2742 
Q 1159 2381 1159 1747 
Q 1159 1113 1420 752 
Q 1681 391 2138 391 
Q 2594 391 2855 752 
Q 3116 1113 3116 1747 
z
" transform="scale(0.015625)"/>
       <path id="DejaVuSans-64" d="M 2906 2969 
L 2906 4863 
L 3481 4863 
L 3481 0 
L 2906 0 
L 2906 525 
Q 2725 213 2448 61 
Q 2172 -91 1784 -91 
Q 1150 -91 751 415 
Q 353 922 353 1747 
Q 353 2572 751 3078 
Q 1150 3584 1784 3584 
Q 2172 3584 2448 3432 
Q 2725 3281 2906 2969 
z
M 947 1747 
Q 947 1113 1208 752 
Q 1469 391 1925 391 
Q 2381 391 2643 752 
Q 2906 1113 2906 1747 
Q 2906 2381 2643 2742 
Q 2381 3103 1925 3103 
Q 1469 3103 1208 2742 
Q 947 2381 947 1747 
z
" transform="scale(0.015625)"/>
      </defs>
      <use xlink:href="#DejaVuSans-41"/>
      <use xlink:href="#DejaVuSans-63" x="66.658203"/>
      <use xlink:href="#DejaVuSans-74" x="121.638672"/>
      <use xlink:href="#DejaVuSans-75" x="160.847656"/>
      <use xlink:href="#DejaVuSans-61" x="224.226562"/>
      <use xlink:href="#DejaVuSans-6c" x="285.505859"/>
      <use xlink:href="#DejaVuSans-20" x="313.289062"/>
      <use xlink:href="#DejaVuSans-73" x="345.076172"/>
      <use xlink:href="#DejaVuSans-70" x="397.175781"/>
      <use xlink:href="#DejaVuSans-65" x="460.652344"/>
      <use xlink:href="#DejaVuSans-65" x="522.175781"/>
      <use xlink:href="#DejaVuSans-64" x="583.699219"/>
     </g>
    </g>
   </g>
  </g>
 </g>
 <defs>
  <clipPath id="p4ec2f000ad">
   <rect x="57.6" y="41.472" width="357.12" height="266.112"/>
  </clipPath>
 </defs>
</svg>
