<?xml version="1.0" encoding="utf-8" standalone="no"?>
<!DOCTYPE svg PUBLIC "-//W3C//DTD SVG 1.1//EN"
  "http://www.w3.org/Graphics/SVG/1.1/DTD/svg11.dtd">
<svg xmlns:xlink="http://www.w3.org/1999/xlink" width="460.8pt" height="345.6pt" viewBox="0 0 460.8 345.6" xmlns="http://www.w3.org/2000/svg" version="1.1">
 <metadata>
  <rdf:RDF xmlns:dc="http://purl.org/dc/elements/1.1/" xmlns:cc="http://creativecommons.org/ns#" xmlns:rdf="http://www.w3.org/1999/02/22-rdf-syntax-ns#">
   <cc:Work>
    <dc:type rdf:resource="http://purl.org/dc/dcmitype/StillImage"/>
    <dc:date>2024-01-30T20:58:12.342561</dc:date>
    <dc:format>image/svg+xml</dc:format>
    <dc:creator>
     <cc:Agent>
      <dc:title>Matplotlib v3.7.1, https://matplotlib.org/</dc:title>
     </cc:Agent>
    </dc:creator>
   </cc:Work>
  </rdf:RDF>
 </metadata>
 <defs>
  <style type="text/css">*{stroke-linejoin: round; stroke-linecap: butt}</style>
 </defs>
 <g id="figure_1">
  <g id="patch_1">
   <path d="M 0 345.6 
L 460.8 345.6 
L 460.8 0 
L 0 0 
z
" style="fill: #ffffff"/>
  </g>
  <g id="axes_1">
   <g id="patch_2">
    <path d="M 57.6 307.584 
L 414.72 307.584 
L 414.72 41.472 
L 57.6 41.472 
z
" style="fill: #ffffff"/>
   </g>
   <g id="matplotlib.axis_1">
    <g id="xtick_1">
     <g id="line2d_1">
      <path d="M 73.832727 307.584 
L 73.832727 41.472 
" clip-path="url(#pc63d193b2b)" style="fill: none; stroke: #b0b0b0; stroke-width: 0.8; stroke-linecap: square"/>
     </g>
     <g id="line2d_2">
      <defs>
       <path id="m525085f3ff" d="M 0 0 
L 0 3.5 
" style="stroke: #000000; stroke-width: 0.8"/>
      </defs>
      <g>
       <use xlink:href="#m525085f3ff" x="73.832727" y="307.584" style="stroke: #000000; stroke-width: 0.8"/>
      </g>
     </g>
     <g id="text_1">
      <!-- 0 -->
      <g transform="translate(70.651477 322.182437) scale(0.1 -0.1)">
       <defs>
        <path id="DejaVuSans-30" d="M 2034 4250 
Q 1547 4250 1301 3770 
Q 1056 3291 1056 2328 
Q 1056 1369 1301 889 
Q 1547 409 2034 409 
Q 2525 409 2770 889 
Q 3016 1369 3016 2328 
Q 3016 3291 2770 3770 
Q 2525 4250 2034 4250 
z
M 2034 4750 
Q 2819 4750 3233 4129 
Q 3647 3509 3647 2328 
Q 3647 1150 3233 529 
Q 2819 -91 2034 -91 
Q 1250 -91 836 529 
Q 422 1150 422 2328 
Q 422 3509 836 4129 
Q 1250 4750 2034 4750 
z
" transform="scale(0.015625)"/>
       </defs>
       <use xlink:href="#DejaVuSans-30"/>
      </g>
     </g>
    </g>
    <g id="xtick_2">
     <g id="line2d_3">
      <path d="M 149.12367 307.584 
L 149.12367 41.472 
" clip-path="url(#pc63d193b2b)" style="fill: none; stroke: #b0b0b0; stroke-width: 0.8; stroke-linecap: square"/>
     </g>
     <g id="line2d_4">
      <g>
       <use xlink:href="#m525085f3ff" x="149.12367" y="307.584" style="stroke: #000000; stroke-width: 0.8"/>
      </g>
     </g>
     <g id="text_2">
      <!-- 5 -->
      <g transform="translate(145.94242 322.182437) scale(0.1 -0.1)">
       <defs>
        <path id="DejaVuSans-35" d="M 691 4666 
L 3169 4666 
L 3169 4134 
L 1269 4134 
L 1269 2991 
Q 1406 3038 1543 3061 
Q 1681 3084 1819 3084 
Q 2600 3084 3056 2656 
Q 3513 2228 3513 1497 
Q 3513 744 3044 326 
Q 2575 -91 1722 -91 
Q 1428 -91 1123 -41 
Q 819 9 494 109 
L 494 744 
Q 775 591 1075 516 
Q 1375 441 1709 441 
Q 2250 441 2565 725 
Q 2881 1009 2881 1497 
Q 2881 1984 2565 2268 
Q 2250 2553 1709 2553 
Q 1456 2553 1204 2497 
Q 953 2441 691 2322 
L 691 4666 
z
" transform="scale(0.015625)"/>
       </defs>
       <use xlink:href="#DejaVuSans-35"/>
      </g>
     </g>
    </g>
    <g id="xtick_3">
     <g id="line2d_5">
      <path d="M 224.414613 307.584 
L 224.414613 41.472 
" clip-path="url(#pc63d193b2b)" style="fill: none; stroke: #b0b0b0; stroke-width: 0.8; stroke-linecap: square"/>
     </g>
     <g id="line2d_6">
      <g>
       <use xlink:href="#m525085f3ff" x="224.414613" y="307.584" style="stroke: #000000; stroke-width: 0.8"/>
      </g>
     </g>
     <g id="text_3">
      <!-- 10 -->
      <g transform="translate(218.052113 322.182437) scale(0.1 -0.1)">
       <defs>
        <path id="DejaVuSans-31" d="M 794 531 
L 1825 531 
L 1825 4091 
L 703 3866 
L 703 4441 
L 1819 4666 
L 2450 4666 
L 2450 531 
L 3481 531 
L 3481 0 
L 794 0 
L 794 531 
z
" transform="scale(0.015625)"/>
       </defs>
       <use xlink:href="#DejaVuSans-31"/>
       <use xlink:href="#DejaVuSans-30" x="63.623047"/>
      </g>
     </g>
    </g>
    <g id="xtick_4">
     <g id="line2d_7">
      <path d="M 299.705556 307.584 
L 299.705556 41.472 
" clip-path="url(#pc63d193b2b)" style="fill: none; stroke: #b0b0b0; stroke-width: 0.8; stroke-linecap: square"/>
     </g>
     <g id="line2d_8">
      <g>
       <use xlink:href="#m525085f3ff" x="299.705556" y="307.584" style="stroke: #000000; stroke-width: 0.8"/>
      </g>
     </g>
     <g id="text_4">
      <!-- 15 -->
      <g transform="translate(293.343056 322.182437) scale(0.1 -0.1)">
       <use xlink:href="#DejaVuSans-31"/>
       <use xlink:href="#DejaVuSans-35" x="63.623047"/>
      </g>
     </g>
    </g>
    <g id="xtick_5">
     <g id="line2d_9">
      <path d="M 374.996499 307.584 
L 374.996499 41.472 
" clip-path="url(#pc63d193b2b)" style="fill: none; stroke: #b0b0b0; stroke-width: 0.8; stroke-linecap: square"/>
     </g>
     <g id="line2d_10">
      <g>
       <use xlink:href="#m525085f3ff" x="374.996499" y="307.584" style="stroke: #000000; stroke-width: 0.8"/>
      </g>
     </g>
     <g id="text_5">
      <!-- 20 -->
      <g transform="translate(368.633999 322.182437) scale(0.1 -0.1)">
       <defs>
        <path id="DejaVuSans-32" d="M 1228 531 
L 3431 531 
L 3431 0 
L 469 0 
L 469 531 
Q 828 903 1448 1529 
Q 2069 2156 2228 2338 
Q 2531 2678 2651 2914 
Q 2772 3150 2772 3378 
Q 2772 3750 2511 3984 
Q 2250 4219 1831 4219 
Q 1534 4219 1204 4116 
Q 875 4013 500 3803 
L 500 4441 
Q 881 4594 1212 4672 
Q 1544 4750 1819 4750 
Q 2544 4750 2975 4387 
Q 3406 4025 3406 3419 
Q 3406 3131 3298 2873 
Q 3191 2616 2906 2266 
Q 2828 2175 2409 1742 
Q 1991 1309 1228 531 
z
" transform="scale(0.015625)"/>
       </defs>
       <use xlink:href="#DejaVuSans-32"/>
       <use xlink:href="#DejaVuSans-30" x="63.623047"/>
      </g>
     </g>
    </g>
    <g id="text_6">
     <!-- Time(s) -->
     <g transform="translate(217.420156 335.860562) scale(0.1 -0.1)">
      <defs>
       <path id="DejaVuSans-54" d="M -19 4666 
L 3928 4666 
L 3928 4134 
L 2272 4134 
L 2272 0 
L 1638 0 
L 1638 4134 
L -19 4134 
L -19 4666 
z
" transform="scale(0.015625)"/>
       <path id="DejaVuSans-69" d="M 603 3500 
L 1178 3500 
L 1178 0 
L 603 0 
L 603 3500 
z
M 603 4863 
L 1178 4863 
L 1178 4134 
L 603 4134 
L 603 4863 
z
" transform="scale(0.015625)"/>
       <path id="DejaVuSans-6d" d="M 3328 2828 
Q 3544 3216 3844 3400 
Q 4144 3584 4550 3584 
Q 5097 3584 5394 3201 
Q 5691 2819 5691 2113 
L 5691 0 
L 5113 0 
L 5113 2094 
Q 5113 2597 4934 2840 
Q 4756 3084 4391 3084 
Q 3944 3084 3684 2787 
Q 3425 2491 3425 1978 
L 3425 0 
L 2847 0 
L 2847 2094 
Q 2847 2600 2669 2842 
Q 2491 3084 2119 3084 
Q 1678 3084 1418 2786 
Q 1159 2488 1159 1978 
L 1159 0 
L 581 0 
L 581 3500 
L 1159 3500 
L 1159 2956 
Q 1356 3278 1631 3431 
Q 1906 3584 2284 3584 
Q 2666 3584 2933 3390 
Q 3200 3197 3328 2828 
z
" transform="scale(0.015625)"/>
       <path id="DejaVuSans-65" d="M 3597 1894 
L 3597 1613 
L 953 1613 
Q 991 1019 1311 708 
Q 1631 397 2203 397 
Q 2534 397 2845 478 
Q 3156 559 3463 722 
L 3463 178 
Q 3153 47 2828 -22 
Q 2503 -91 2169 -91 
Q 1331 -91 842 396 
Q 353 884 353 1716 
Q 353 2575 817 3079 
Q 1281 3584 2069 3584 
Q 2775 3584 3186 3129 
Q 3597 2675 3597 1894 
z
M 3022 2063 
Q 3016 2534 2758 2815 
Q 2500 3097 2075 3097 
Q 1594 3097 1305 2825 
Q 1016 2553 972 2059 
L 3022 2063 
z
" transform="scale(0.015625)"/>
       <path id="DejaVuSans-28" d="M 1984 4856 
Q 1566 4138 1362 3434 
Q 1159 2731 1159 2009 
Q 1159 1288 1364 580 
Q 1569 -128 1984 -844 
L 1484 -844 
Q 1016 -109 783 600 
Q 550 1309 550 2009 
Q 550 2706 781 3412 
Q 1013 4119 1484 4856 
L 1984 4856 
z
" transform="scale(0.015625)"/>
       <path id="DejaVuSans-73" d="M 2834 3397 
L 2834 2853 
Q 2591 2978 2328 3040 
Q 2066 3103 1784 3103 
Q 1356 3103 1142 2972 
Q 928 2841 928 2578 
Q 928 2378 1081 2264 
Q 1234 2150 1697 2047 
L 1894 2003 
Q 2506 1872 2764 1633 
Q 3022 1394 3022 966 
Q 3022 478 2636 193 
Q 2250 -91 1575 -91 
Q 1294 -91 989 -36 
Q 684 19 347 128 
L 347 722 
Q 666 556 975 473 
Q 1284 391 1588 391 
Q 1994 391 2212 530 
Q 2431 669 2431 922 
Q 2431 1156 2273 1281 
Q 2116 1406 1581 1522 
L 1381 1569 
Q 847 1681 609 1914 
Q 372 2147 372 2553 
Q 372 3047 722 3315 
Q 1072 3584 1716 3584 
Q 2034 3584 2315 3537 
Q 2597 3491 2834 3397 
z
" transform="scale(0.015625)"/>
       <path id="DejaVuSans-29" d="M 513 4856 
L 1013 4856 
Q 1481 4119 1714 3412 
Q 1947 2706 1947 2009 
Q 1947 1309 1714 600 
Q 1481 -109 1013 -844 
L 513 -844 
Q 928 -128 1133 580 
Q 1338 1288 1338 2009 
Q 1338 2731 1133 3434 
Q 928 4138 513 4856 
z
" transform="scale(0.015625)"/>
      </defs>
      <use xlink:href="#DejaVuSans-54"/>
      <use xlink:href="#DejaVuSans-69" x="57.958984"/>
      <use xlink:href="#DejaVuSans-6d" x="85.742188"/>
      <use xlink:href="#DejaVuSans-65" x="183.154297"/>
      <use xlink:href="#DejaVuSans-28" x="244.677734"/>
      <use xlink:href="#DejaVuSans-73" x="283.691406"/>
      <use xlink:href="#DejaVuSans-29" x="335.791016"/>
     </g>
    </g>
   </g>
   <g id="matplotlib.axis_2">
    <g id="ytick_1">
     <g id="line2d_11">
      <path d="M 57.6 295.230283 
L 414.72 295.230283 
" clip-path="url(#pc63d193b2b)" style="fill: none; stroke: #b0b0b0; stroke-width: 0.8; stroke-linecap: square"/>
     </g>
     <g id="line2d_12">
      <defs>
       <path id="mc4a0e84c2e" d="M 0 0 
L -3.5 0 
" style="stroke: #000000; stroke-width: 0.8"/>
      </defs>
      <g>
       <use xlink:href="#mc4a0e84c2e" x="57.6" y="295.230283" style="stroke: #000000; stroke-width: 0.8"/>
      </g>
     </g>
     <g id="text_7">
      <!-- 0 -->
      <g transform="translate(44.2375 299.029502) scale(0.1 -0.1)">
       <use xlink:href="#DejaVuSans-30"/>
      </g>
     </g>
    </g>
    <g id="ytick_2">
     <g id="line2d_13">
      <path d="M 57.6 265.042086 
L 414.72 265.042086 
" clip-path="url(#pc63d193b2b)" style="fill: none; stroke: #b0b0b0; stroke-width: 0.8; stroke-linecap: square"/>
     </g>
     <g id="line2d_14">
      <g>
       <use xlink:href="#mc4a0e84c2e" x="57.6" y="265.042086" style="stroke: #000000; stroke-width: 0.8"/>
      </g>
     </g>
     <g id="text_8">
      <!-- 1 -->
      <g transform="translate(44.2375 268.841305) scale(0.1 -0.1)">
       <use xlink:href="#DejaVuSans-31"/>
      </g>
     </g>
    </g>
    <g id="ytick_3">
     <g id="line2d_15">
      <path d="M 57.6 234.853889 
L 414.72 234.853889 
" clip-path="url(#pc63d193b2b)" style="fill: none; stroke: #b0b0b0; stroke-width: 0.8; stroke-linecap: square"/>
     </g>
     <g id="line2d_16">
      <g>
       <use xlink:href="#mc4a0e84c2e" x="57.6" y="234.853889" style="stroke: #000000; stroke-width: 0.8"/>
      </g>
     </g>
     <g id="text_9">
      <!-- 2 -->
      <g transform="translate(44.2375 238.653108) scale(0.1 -0.1)">
       <use xlink:href="#DejaVuSans-32"/>
      </g>
     </g>
    </g>
    <g id="ytick_4">
     <g id="line2d_17">
      <path d="M 57.6 204.665692 
L 414.72 204.665692 
" clip-path="url(#pc63d193b2b)" style="fill: none; stroke: #b0b0b0; stroke-width: 0.8; stroke-linecap: square"/>
     </g>
     <g id="line2d_18">
      <g>
       <use xlink:href="#mc4a0e84c2e" x="57.6" y="204.665692" style="stroke: #000000; stroke-width: 0.8"/>
      </g>
     </g>
     <g id="text_10">
      <!-- 3 -->
      <g transform="translate(44.2375 208.464911) scale(0.1 -0.1)">
       <defs>
        <path id="DejaVuSans-33" d="M 2597 2516 
Q 3050 2419 3304 2112 
Q 3559 1806 3559 1356 
Q 3559 666 3084 287 
Q 2609 -91 1734 -91 
Q 1441 -91 1130 -33 
Q 819 25 488 141 
L 488 750 
Q 750 597 1062 519 
Q 1375 441 1716 441 
Q 2309 441 2620 675 
Q 2931 909 2931 1356 
Q 2931 1769 2642 2001 
Q 2353 2234 1838 2234 
L 1294 2234 
L 1294 2753 
L 1863 2753 
Q 2328 2753 2575 2939 
Q 2822 3125 2822 3475 
Q 2822 3834 2567 4026 
Q 2313 4219 1838 4219 
Q 1578 4219 1281 4162 
Q 984 4106 628 3988 
L 628 4550 
Q 988 4650 1302 4700 
Q 1616 4750 1894 4750 
Q 2613 4750 3031 4423 
Q 3450 4097 3450 3541 
Q 3450 3153 3228 2886 
Q 3006 2619 2597 2516 
z
" transform="scale(0.015625)"/>
       </defs>
       <use xlink:href="#DejaVuSans-33"/>
      </g>
     </g>
    </g>
    <g id="ytick_5">
     <g id="line2d_19">
      <path d="M 57.6 174.477495 
L 414.72 174.477495 
" clip-path="url(#pc63d193b2b)" style="fill: none; stroke: #b0b0b0; stroke-width: 0.8; stroke-linecap: square"/>
     </g>
     <g id="line2d_20">
      <g>
       <use xlink:href="#mc4a0e84c2e" x="57.6" y="174.477495" style="stroke: #000000; stroke-width: 0.8"/>
      </g>
     </g>
     <g id="text_11">
      <!-- 4 -->
      <g transform="translate(44.2375 178.276714) scale(0.1 -0.1)">
       <defs>
        <path id="DejaVuSans-34" d="M 2419 4116 
L 825 1625 
L 2419 1625 
L 2419 4116 
z
M 2253 4666 
L 3047 4666 
L 3047 1625 
L 3713 1625 
L 3713 1100 
L 3047 1100 
L 3047 0 
L 2419 0 
L 2419 1100 
L 313 1100 
L 313 1709 
L 2253 4666 
z
" transform="scale(0.015625)"/>
       </defs>
       <use xlink:href="#DejaVuSans-34"/>
      </g>
     </g>
    </g>
    <g id="ytick_6">
     <g id="line2d_21">
      <path d="M 57.6 144.289298 
L 414.72 144.289298 
" clip-path="url(#pc63d193b2b)" style="fill: none; stroke: #b0b0b0; stroke-width: 0.8; stroke-linecap: square"/>
     </g>
     <g id="line2d_22">
      <g>
       <use xlink:href="#mc4a0e84c2e" x="57.6" y="144.289298" style="stroke: #000000; stroke-width: 0.8"/>
      </g>
     </g>
     <g id="text_12">
      <!-- 5 -->
      <g transform="translate(44.2375 148.088517) scale(0.1 -0.1)">
       <use xlink:href="#DejaVuSans-35"/>
      </g>
     </g>
    </g>
    <g id="ytick_7">
     <g id="line2d_23">
      <path d="M 57.6 114.101101 
L 414.72 114.101101 
" clip-path="url(#pc63d193b2b)" style="fill: none; stroke: #b0b0b0; stroke-width: 0.8; stroke-linecap: square"/>
     </g>
     <g id="line2d_24">
      <g>
       <use xlink:href="#mc4a0e84c2e" x="57.6" y="114.101101" style="stroke: #000000; stroke-width: 0.8"/>
      </g>
     </g>
     <g id="text_13">
      <!-- 6 -->
      <g transform="translate(44.2375 117.90032) scale(0.1 -0.1)">
       <defs>
        <path id="DejaVuSans-36" d="M 2113 2584 
Q 1688 2584 1439 2293 
Q 1191 2003 1191 1497 
Q 1191 994 1439 701 
Q 1688 409 2113 409 
Q 2538 409 2786 701 
Q 3034 994 3034 1497 
Q 3034 2003 2786 2293 
Q 2538 2584 2113 2584 
z
M 3366 4563 
L 3366 3988 
Q 3128 4100 2886 4159 
Q 2644 4219 2406 4219 
Q 1781 4219 1451 3797 
Q 1122 3375 1075 2522 
Q 1259 2794 1537 2939 
Q 1816 3084 2150 3084 
Q 2853 3084 3261 2657 
Q 3669 2231 3669 1497 
Q 3669 778 3244 343 
Q 2819 -91 2113 -91 
Q 1303 -91 875 529 
Q 447 1150 447 2328 
Q 447 3434 972 4092 
Q 1497 4750 2381 4750 
Q 2619 4750 2861 4703 
Q 3103 4656 3366 4563 
z
" transform="scale(0.015625)"/>
       </defs>
       <use xlink:href="#DejaVuSans-36"/>
      </g>
     </g>
    </g>
    <g id="ytick_8">
     <g id="line2d_25">
      <path d="M 57.6 83.912904 
L 414.72 83.912904 
" clip-path="url(#pc63d193b2b)" style="fill: none; stroke: #b0b0b0; stroke-width: 0.8; stroke-linecap: square"/>
     </g>
     <g id="line2d_26">
      <g>
       <use xlink:href="#mc4a0e84c2e" x="57.6" y="83.912904" style="stroke: #000000; stroke-width: 0.8"/>
      </g>
     </g>
     <g id="text_14">
      <!-- 7 -->
      <g transform="translate(44.2375 87.712123) scale(0.1 -0.1)">
       <defs>
        <path id="DejaVuSans-37" d="M 525 4666 
L 3525 4666 
L 3525 4397 
L 1831 0 
L 1172 0 
L 2766 4134 
L 525 4134 
L 525 4666 
z
" transform="scale(0.015625)"/>
       </defs>
       <use xlink:href="#DejaVuSans-37"/>
      </g>
     </g>
    </g>
    <g id="ytick_9">
     <g id="line2d_27">
      <path d="M 57.6 53.724707 
L 414.72 53.724707 
" clip-path="url(#pc63d193b2b)" style="fill: none; stroke: #b0b0b0; stroke-width: 0.8; stroke-linecap: square"/>
     </g>
     <g id="line2d_28">
      <g>
       <use xlink:href="#mc4a0e84c2e" x="57.6" y="53.724707" style="stroke: #000000; stroke-width: 0.8"/>
      </g>
     </g>
     <g id="text_15">
      <!-- 8 -->
      <g transform="translate(44.2375 57.523926) scale(0.1 -0.1)">
       <defs>
        <path id="DejaVuSans-38" d="M 2034 2216 
Q 1584 2216 1326 1975 
Q 1069 1734 1069 1313 
Q 1069 891 1326 650 
Q 1584 409 2034 409 
Q 2484 409 2743 651 
Q 3003 894 3003 1313 
Q 3003 1734 2745 1975 
Q 2488 2216 2034 2216 
z
M 1403 2484 
Q 997 2584 770 2862 
Q 544 3141 544 3541 
Q 544 4100 942 4425 
Q 1341 4750 2034 4750 
Q 2731 4750 3128 4425 
Q 3525 4100 3525 3541 
Q 3525 3141 3298 2862 
Q 3072 2584 2669 2484 
Q 3125 2378 3379 2068 
Q 3634 1759 3634 1313 
Q 3634 634 3220 271 
Q 2806 -91 2034 -91 
Q 1263 -91 848 271 
Q 434 634 434 1313 
Q 434 1759 690 2068 
Q 947 2378 1403 2484 
z
M 1172 3481 
Q 1172 3119 1398 2916 
Q 1625 2713 2034 2713 
Q 2441 2713 2670 2916 
Q 2900 3119 2900 3481 
Q 2900 3844 2670 4047 
Q 2441 4250 2034 4250 
Q 1625 4250 1398 4047 
Q 1172 3844 1172 3481 
z
" transform="scale(0.015625)"/>
       </defs>
       <use xlink:href="#DejaVuSans-38"/>
      </g>
     </g>
    </g>
    <g id="text_16">
     <!-- Velocity(m/s) -->
     <g transform="translate(38.157812 207.204563) rotate(-90) scale(0.1 -0.1)">
      <defs>
       <path id="DejaVuSans-56" d="M 1831 0 
L 50 4666 
L 709 4666 
L 2188 738 
L 3669 4666 
L 4325 4666 
L 2547 0 
L 1831 0 
z
" transform="scale(0.015625)"/>
       <path id="DejaVuSans-6c" d="M 603 4863 
L 1178 4863 
L 1178 0 
L 603 0 
L 603 4863 
z
" transform="scale(0.015625)"/>
       <path id="DejaVuSans-6f" d="M 1959 3097 
Q 1497 3097 1228 2736 
Q 959 2375 959 1747 
Q 959 1119 1226 758 
Q 1494 397 1959 397 
Q 2419 397 2687 759 
Q 2956 1122 2956 1747 
Q 2956 2369 2687 2733 
Q 2419 3097 1959 3097 
z
M 1959 3584 
Q 2709 3584 3137 3096 
Q 3566 2609 3566 1747 
Q 3566 888 3137 398 
Q 2709 -91 1959 -91 
Q 1206 -91 779 398 
Q 353 888 353 1747 
Q 353 2609 779 3096 
Q 1206 3584 1959 3584 
z
" transform="scale(0.015625)"/>
       <path id="DejaVuSans-63" d="M 3122 3366 
L 3122 2828 
Q 2878 2963 2633 3030 
Q 2388 3097 2138 3097 
Q 1578 3097 1268 2742 
Q 959 2388 959 1747 
Q 959 1106 1268 751 
Q 1578 397 2138 397 
Q 2388 397 2633 464 
Q 2878 531 3122 666 
L 3122 134 
Q 2881 22 2623 -34 
Q 2366 -91 2075 -91 
Q 1284 -91 818 406 
Q 353 903 353 1747 
Q 353 2603 823 3093 
Q 1294 3584 2113 3584 
Q 2378 3584 2631 3529 
Q 2884 3475 3122 3366 
z
" transform="scale(0.015625)"/>
       <path id="DejaVuSans-74" d="M 1172 4494 
L 1172 3500 
L 2356 3500 
L 2356 3053 
L 1172 3053 
L 1172 1153 
Q 1172 725 1289 603 
Q 1406 481 1766 481 
L 2356 481 
L 2356 0 
L 1766 0 
Q 1100 0 847 248 
Q 594 497 594 1153 
L 594 3053 
L 172 3053 
L 172 3500 
L 594 3500 
L 594 4494 
L 1172 4494 
z
" transform="scale(0.015625)"/>
       <path id="DejaVuSans-79" d="M 2059 -325 
Q 1816 -950 1584 -1140 
Q 1353 -1331 966 -1331 
L 506 -1331 
L 506 -850 
L 844 -850 
Q 1081 -850 1212 -737 
Q 1344 -625 1503 -206 
L 1606 56 
L 191 3500 
L 800 3500 
L 1894 763 
L 2988 3500 
L 3597 3500 
L 2059 -325 
z
" transform="scale(0.015625)"/>
       <path id="DejaVuSans-2f" d="M 1625 4666 
L 2156 4666 
L 531 -594 
L 0 -594 
L 1625 4666 
z
" transform="scale(0.015625)"/>
      </defs>
      <use xlink:href="#DejaVuSans-56"/>
      <use xlink:href="#DejaVuSans-65" x="60.658203"/>
      <use xlink:href="#DejaVuSans-6c" x="122.181641"/>
      <use xlink:href="#DejaVuSans-6f" x="149.964844"/>
      <use xlink:href="#DejaVuSans-63" x="211.146484"/>
      <use xlink:href="#DejaVuSans-69" x="266.126953"/>
      <use xlink:href="#DejaVuSans-74" x="293.910156"/>
      <use xlink:href="#DejaVuSans-79" x="333.119141"/>
      <use xlink:href="#DejaVuSans-28" x="392.298828"/>
      <use xlink:href="#DejaVuSans-6d" x="431.3125"/>
      <use xlink:href="#DejaVuSans-2f" x="528.724609"/>
      <use xlink:href="#DejaVuSans-73" x="562.416016"/>
      <use xlink:href="#DejaVuSans-29" x="614.515625"/>
     </g>
    </g>
   </g>
   <g id="line2d_29">
    <path d="M 73.832727 295.152519 
L 73.832727 295.488 
L 75.037382 289.90584 
L 75.037382 289.85772 
L 75.338546 288.857253 
L 75.338546 288.337956 
L 75.63971 287.07135 
L 77.747856 276.772737 
L 77.747856 276.464877 
L 79.554839 267.770345 
L 79.554839 267.776714 
L 81.060658 259.907104 
L 81.060658 259.919451 
L 84.373459 243.075373 
L 84.373459 243.328894 
L 84.975787 240.054289 
L 84.975787 240.087617 
L 92.504881 199.568928 
L 102.142122 145.102206 
L 103.949104 134.312673 
L 103.949104 134.548593 
L 105.756087 123.734879 
L 106.960742 116.390785 
L 108.165397 109.20213 
L 110.273544 96.247499 
L 110.273544 96.382471 
L 110.875871 92.340332 
L 112.682854 81.148873 
L 112.682854 81.394152 
L 113.586345 75.267155 
L 113.586345 75.425704 
L 114.489836 70.051057 
L 114.489836 70.192097 
L 115.393328 65.711112 
L 116.597983 61.834011 
L 117.20031 60.656702 
L 117.20031 60.69483 
L 117.501474 60.388208 
L 117.802638 60.137042 
L 117.802638 60.438653 
L 118.103802 59.79347 
L 118.103802 60.118235 
L 118.404965 59.921831 
L 118.706129 60.791522 
L 118.706129 60.665124 
L 119.308457 63.052165 
L 119.609621 64.220056 
L 119.910784 66.074849 
L 120.513112 70.372441 
L 120.513112 70.228051 
L 121.115439 75.226643 
L 121.115439 75.55989 
L 123.52475 103.400321 
L 123.52475 103.286753 
L 126.536387 125.16912 
L 126.536387 124.990225 
L 128.042206 131.70085 
L 128.042206 131.354833 
L 128.644534 133.771549 
L 128.644534 133.645725 
L 130.150353 137.448622 
L 130.150353 137.186347 
L 130.451516 137.910834 
L 130.451516 137.863982 
L 130.75268 138.269983 
L 131.053844 138.647637 
L 131.053844 138.395626 
L 131.656171 139.12123 
L 131.656171 139.036974 
L 131.957335 139.181214 
L 132.559663 139.114769 
L 132.559663 139.117456 
L 132.860826 139.309423 
L 132.860826 139.754638 
L 133.16199 139.607501 
L 133.16199 139.45173 
L 133.463154 139.651878 
L 133.764318 139.488831 
L 133.764318 139.544046 
L 134.065482 139.542234 
L 134.065482 139.294027 
L 134.366645 139.48542 
L 134.366645 139.349694 
L 134.667809 139.347158 
L 134.667809 139.736133 
L 134.968973 139.450009 
L 134.968973 139.638837 
L 135.270137 139.380154 
L 135.270137 139.418191 
L 135.5713 139.322796 
L 135.5713 139.511774 
L 135.872464 139.213032 
L 135.872464 139.453813 
L 136.173628 139.152807 
L 136.173628 139.17095 
L 136.474792 139.018922 
L 136.474792 139.180308 
L 136.775955 138.76679 
L 136.775955 139.217651 
L 137.378283 138.498055 
L 137.378283 138.545994 
L 137.679447 138.172898 
L 137.679447 138.557344 
L 138.281774 137.611578 
L 138.281774 137.843967 
L 138.582938 137.039059 
L 138.884102 136.737721 
L 138.884102 136.771531 
L 139.787593 134.909342 
L 139.787593 135.015273 
L 140.389921 133.26318 
L 140.389921 133.334967 
L 140.992248 131.059019 
L 143.100395 119.197805 
L 145.810869 102.901763 
L 147.316687 96.923474 
L 147.316687 97.173945 
L 147.919015 95.513353 
L 147.919015 95.659162 
L 148.521343 94.110205 
L 148.521343 94.213721 
L 149.424834 92.25991 
L 149.725998 92.078268 
L 149.725998 91.801865 
L 150.930653 89.247792 
L 150.930653 89.412439 
L 152.436472 84.050109 
L 153.339963 78.501489 
L 154.544618 71.020159 
L 154.544618 71.367384 
L 155.448109 67.814263 
L 155.448109 67.837508 
L 155.749273 67.405847 
L 155.749273 67.033415 
L 156.351601 65.91461 
L 156.351601 66.034699 
L 157.255092 64.651989 
L 157.255092 64.91683 
L 157.556256 64.484807 
L 157.556256 64.274818 
L 157.857419 63.909571 
L 157.857419 64.155031 
L 158.158583 63.754947 
L 158.158583 63.81804 
L 158.459747 63.596247 
L 158.459747 63.438454 
L 158.760911 63.165522 
L 158.760911 63.352991 
L 159.062075 63.066143 
L 159.062075 63.184178 
L 159.664402 62.691235 
L 159.664402 62.930326 
L 159.965566 62.434153 
L 159.965566 62.163908 
L 160.26673 62.211515 
L 161.471385 60.303832 
L 161.471385 60.163487 
L 161.772548 59.918238 
L 161.772548 59.713774 
L 162.374876 58.482276 
L 162.374876 58.609036 
L 162.67604 58.199081 
L 162.67604 58.21976 
L 162.977204 57.983145 
L 162.977204 57.818649 
L 163.278367 57.425931 
L 163.278367 57.219685 
L 163.880695 56.618668 
L 163.880695 56.825367 
L 164.181859 56.539334 
L 164.483022 56.139642 
L 164.483022 56.409404 
L 164.784186 56.0479 
L 164.784186 55.817957 
L 165.08535 55.752388 
L 165.08535 55.847813 
L 165.687678 55.375337 
L 165.687678 55.442355 
L 165.988841 55.14156 
L 165.988841 55.413706 
L 166.290005 55.370266 
L 166.290005 55.169152 
L 166.591169 54.891451 
L 166.892333 55.022347 
L 166.892333 54.775317 
L 167.193496 54.629598 
L 167.193496 54.500966 
L 167.49466 54.640043 
L 167.49466 54.632979 
L 167.795824 54.427669 
L 168.398151 54.529283 
L 168.699315 54.324003 
L 168.699315 54.127508 
L 169.301643 54.248472 
L 169.301643 54.341693 
L 169.90397 54.14224 
L 169.90397 54.105682 
L 170.205134 53.971224 
L 170.205134 54.010257 
L 170.506298 54.101124 
L 170.506298 54.076007 
L 170.807462 53.935873 
L 170.807462 54.3765 
L 171.108625 53.948764 
L 171.108625 53.967269 
L 171.409789 53.911361 
L 171.710953 53.979375 
L 171.710953 53.910938 
L 172.012117 53.846214 
L 172.012117 53.997518 
L 172.31328 53.835256 
L 172.614444 54.006393 
L 172.614444 53.808449 
L 172.915608 53.983993 
L 172.915608 53.8342 
L 173.216772 53.939043 
L 173.517936 53.658565 
L 173.819099 53.819528 
L 173.819099 53.986137 
L 174.120263 53.841113 
L 174.421427 53.865173 
L 174.421427 53.845128 
L 174.722591 54.015299 
L 174.722591 53.713084 
L 175.324918 53.929081 
L 175.324918 53.632754 
L 175.626082 53.589524 
L 175.626082 53.772827 
L 175.927246 54.064928 
L 175.927246 54.393557 
L 176.22841 54.093456 
L 176.22841 54.144051 
L 176.529573 54.289347 
L 176.529573 54.066498 
L 176.830737 53.929715 
L 176.830737 54.306584 
L 177.131901 53.850471 
L 177.131901 53.936326 
L 177.433065 54.173575 
L 177.433065 53.956281 
L 177.734228 54.01711 
L 178.035392 53.82623 
L 178.035392 54.112957 
L 178.336556 53.898138 
L 178.336556 54.070332 
L 178.938883 53.630641 
L 178.938883 53.658836 
L 179.240047 54.35401 
L 179.240047 54.205907 
L 179.541211 53.977986 
L 179.541211 54.06683 
L 179.842375 54.512015 
L 179.842375 53.856509 
L 180.143539 54.22725 
L 180.143539 54.092127 
L 180.745866 54.011012 
L 180.745866 54.080052 
L 181.04703 54.211129 
L 181.04703 53.901157 
L 181.348194 54.078694 
L 181.950521 54.000476 
L 181.950521 53.771408 
L 182.552849 54.045819 
L 182.552849 54.004642 
L 183.155176 53.900583 
L 183.155176 54.047117 
L 183.757504 53.729507 
L 183.757504 53.83743 
L 184.058668 54.071509 
L 184.660995 56.463682 
L 184.660995 56.427456 
L 185.263323 59.654273 
L 186.166814 65.846898 
L 186.769142 69.868359 
L 186.769142 69.531941 
L 187.371469 73.790137 
L 187.371469 73.445962 
L 187.973797 77.126748 
L 187.973797 77.084092 
L 188.27496 79.563781 
L 188.27496 79.501291 
L 188.877288 82.359993 
L 188.877288 82.426377 
L 189.479615 85.527188 
L 189.479615 85.453166 
L 190.684271 91.790091 
L 190.684271 91.392634 
L 191.587762 95.396555 
L 191.587762 95.320178 
L 192.190089 97.63504 
L 192.190089 97.813059 
L 192.792417 99.521228 
L 193.394744 101.285155 
L 193.394744 101.01657 
L 193.695908 102.228204 
L 193.695908 101.980117 
L 194.900563 104.405256 
L 195.201727 104.644709 
L 195.804055 105.7774 
L 195.804055 105.673945 
L 196.406382 106.444952 
L 196.406382 106.068746 
L 196.707546 106.270947 
L 196.707546 106.577931 
L 197.309874 106.914801 
L 197.309874 106.821066 
L 197.611037 107.309451 
L 197.611037 107.061938 
L 198.213365 107.280802 
L 198.213365 107.13119 
L 198.514529 107.14408 
L 198.514529 107.39262 
L 199.116856 107.174268 
L 199.116856 107.249799 
L 199.719184 107.343503 
L 199.719184 107.220668 
L 200.020347 107.13768 
L 200.020347 107.40231 
L 200.321511 107.331971 
L 200.321511 107.42803 
L 200.923839 107.317904 
L 200.923839 107.425676 
L 201.225003 107.105711 
L 201.225003 107.405902 
L 201.526166 107.05258 
L 201.526166 107.163461 
L 201.82733 107.43757 
L 201.82733 107.256441 
L 202.128494 107.222298 
L 202.128494 107.436755 
L 202.429658 107.257407 
L 202.429658 107.070179 
L 202.730821 106.968807 
L 202.730821 107.347609 
L 203.031985 107.218011 
L 203.031985 107.064021 
L 203.634313 106.805912 
L 203.634313 107.018225 
L 203.935476 106.759181 
L 204.23664 106.774758 
L 204.23664 106.665627 
L 204.537804 106.543667 
L 204.537804 106.653643 
L 204.838968 106.203869 
L 204.838968 106.379172 
L 205.742459 105.734925 
L 206.043623 105.689069 
L 206.043623 105.436122 
L 206.344787 105.128625 
L 206.344787 104.940161 
L 206.64595 104.771499 
L 206.64595 104.931285 
L 207.850605 103.299523 
L 208.151769 102.803651 
L 208.151769 103.096899 
L 209.055261 101.201262 
L 209.055261 101.225352 
L 209.356424 100.397863 
L 209.356424 100.719458 
L 209.958752 99.359208 
L 209.958752 98.841903 
L 210.259916 98.558225 
L 210.259916 98.594722 
L 211.464571 94.75901 
L 211.464571 95.160272 
L 212.066898 92.516993 
L 212.669226 90.44406 
L 212.669226 90.04298 
L 213.271553 87.745869 
L 213.271553 87.24393 
L 213.873881 84.301547 
L 215.680864 73.133514 
L 215.680864 73.059794 
L 216.584355 68.197713 
L 217.78901 63.42825 
L 217.78901 63.575538 
L 218.391337 61.679267 
L 219.294829 59.714287 
L 219.595993 59.347349 
L 219.595993 59.087097 
L 219.897156 58.494804 
L 219.897156 58.616553 
L 220.19832 58.241103 
L 221.402975 56.970029 
L 221.402975 56.60131 
L 221.704139 56.431924 
L 221.704139 56.662924 
L 222.306467 55.806696 
L 222.306467 55.937834 
L 222.60763 55.804523 
L 222.60763 55.53292 
L 222.908794 55.706562 
L 222.908794 55.630971 
L 223.209958 55.53452 
L 223.209958 55.602715 
L 223.812285 54.892779 
L 223.812285 55.017849 
L 224.113449 54.855527 
L 224.113449 54.941291 
L 224.715777 54.824886 
L 224.715777 54.6379 
L 225.01694 54.767196 
L 225.01694 54.709869 
L 225.318104 54.59778 
L 225.318104 54.435156 
L 225.619268 54.620421 
L 225.619268 54.448378 
L 225.920432 54.474461 
L 225.920432 54.397632 
L 226.221596 54.237725 
L 226.221596 54.398357 
L 226.823923 54.084369 
L 226.823923 54.390417 
L 227.125087 54.16476 
L 227.727414 54.064535 
L 227.727414 53.934696 
L 228.028578 54.104625 
L 228.028578 53.876765 
L 228.932069 54.057743 
L 228.932069 53.995676 
L 229.534397 53.733099 
L 229.534397 54.135598 
L 230.136725 53.832086 
L 230.136725 54.031208 
L 230.437888 53.907255 
L 230.437888 53.646731 
L 230.739052 53.757189 
L 231.040216 54.197997 
L 231.34138 53.995646 
L 231.34138 54.171553 
L 231.642543 54.284487 
L 231.642543 54.160413 
L 231.943707 53.876372 
L 231.943707 54.187492 
L 232.244871 54.026891 
L 232.244871 54.179583 
L 232.847199 53.817264 
L 232.847199 53.842109 
L 233.148362 54.067071 
L 233.148362 54.011072 
L 233.449526 53.994559 
L 233.449526 53.869218 
L 234.051854 53.807936 
L 234.051854 54.016053 
L 234.353017 54.041713 
L 234.353017 53.709552 
L 234.654181 53.88407 
L 234.654181 53.649689 
L 234.955345 53.726579 
L 234.955345 53.852554 
L 235.256509 54.032053 
L 235.256509 53.76694 
L 235.557672 53.827135 
L 235.557672 53.999238 
L 235.858836 53.803015 
L 235.858836 54.0284 
L 236.461164 53.635229 
L 236.762328 53.663425 
L 237.063491 53.876674 
L 237.063491 54.187311 
L 237.364655 53.921232 
L 237.364655 54.080626 
L 237.665819 53.974635 
L 237.966983 54.121289 
L 237.966983 53.931949 
L 238.268146 53.97862 
L 238.268146 54.101516 
L 238.870474 53.820524 
L 238.870474 54.228548 
L 239.171638 53.797098 
L 239.472801 54.070935 
L 239.472801 54.282253 
L 240.376293 55.65974 
L 240.376293 55.764705 
L 240.97862 57.56528 
L 241.882112 60.381899 
L 242.183275 61.499979 
L 244.592586 71.274374 
L 244.893749 73.260938 
L 244.893749 73.00138 
L 245.797241 77.069149 
L 245.797241 77.269055 
L 246.098404 79.632308 
L 246.098404 79.549834 
L 246.700732 82.431992 
L 247.30306 85.881718 
L 247.30306 85.787802 
L 248.507715 92.733261 
L 248.507715 92.694288 
L 249.411206 99.252342 
L 249.411206 99.028013 
L 250.615861 107.218434 
L 250.917025 108.829064 
L 250.917025 108.723436 
L 252.422844 119.680997 
L 252.422844 119.611081 
L 252.724007 121.698866 
L 253.025171 124.668932 
L 253.025171 124.567168 
L 253.326335 126.124939 
L 253.326335 126.037786 
L 253.627499 128.698815 
L 253.627499 128.649095 
L 253.928663 130.063352 
L 253.928663 129.914494 
L 254.229826 132.282667 
L 254.229826 132.214683 
L 254.53099 133.979334 
L 259.650774 161.096909 
L 259.650774 160.661565 
L 259.951938 162.238294 
L 260.253102 164.051639 
L 260.253102 163.917271 
L 260.855429 166.845979 
L 260.855429 167.001932 
L 261.457757 168.678675 
L 261.758921 170.073701 
L 262.060084 170.760634 
L 262.060084 171.07767 
L 262.361248 172.63843 
L 263.565903 176.093771 
L 263.565903 175.912733 
L 263.867067 177.584706 
L 264.469395 178.857893 
L 264.770558 179.814014 
L 264.770558 179.754573 
L 265.071722 180.40371 
L 265.372886 181.634422 
L 265.67405 181.961632 
L 265.67405 181.83448 
L 266.577541 183.780652 
L 266.577541 183.504702 
L 267.179868 184.96566 
L 267.481032 185.340174 
L 267.481032 185.160857 
L 267.782196 185.831548 
L 267.782196 186.243768 
L 268.08336 186.444851 
L 268.08336 186.662387 
L 268.384524 186.847984 
L 268.685687 187.232944 
L 268.986851 187.840119 
L 268.986851 187.378482 
L 269.589179 188.092493 
L 269.589179 188.046667 
L 269.890342 188.376473 
L 269.890342 188.257683 
L 270.49267 188.453483 
L 270.49267 188.728769 
L 270.793834 188.917597 
L 271.094997 189.200641 
L 271.396161 189.069202 
L 271.396161 189.246195 
L 271.697325 189.302104 
L 271.697325 189.624876 
L 272.299653 189.42663 
L 272.299653 189.456305 
L 272.600816 189.866019 
L 272.600816 189.78602 
L 272.90198 189.910275 
L 272.90198 189.766066 
L 273.203144 189.978561 
L 273.203144 189.743093 
L 273.805471 190.059827 
L 273.805471 190.095208 
L 274.106635 190.244307 
L 274.407799 189.977414 
L 275.010126 190.308246 
L 275.010126 190.243643 
L 275.31129 190.149879 
L 275.31129 190.357362 
L 275.913618 190.193108 
L 276.214782 190.378917 
L 276.214782 190.307733 
L 276.515945 190.393407 
L 276.515945 190.046182 
L 276.817109 190.213334 
L 276.817109 190.167901 
L 277.419437 190.383384 
L 277.419437 190.142181 
L 277.7206 190.071903 
L 277.7206 190.244458 
L 278.624092 190.369407 
L 278.624092 190.2319 
L 279.226419 190.072084 
L 279.226419 190.391988 
L 279.527583 190.116883 
L 279.527583 190.282345 
L 279.828747 190.108974 
L 279.828747 190.372849 
L 280.129911 190.245485 
L 280.129911 189.884796 
L 280.431074 190.02819 
L 280.732238 189.715199 
L 281.033402 189.702127 
L 281.635729 189.434298 
L 281.635729 189.666807 
L 281.936893 189.453588 
L 281.936893 189.225426 
L 282.238057 189.271885 
L 282.238057 189.1572 
L 282.539221 188.937913 
L 282.840385 188.67591 
L 282.840385 188.879831 
L 283.141548 188.691396 
L 283.141548 188.763335 
L 283.442712 188.103542 
L 283.442712 188.509724 
L 284.04504 187.730959 
L 284.04504 187.8451 
L 284.346203 187.764709 
L 284.647367 187.074728 
L 284.647367 187.223314 
L 284.948531 186.716545 
L 284.948531 186.800317 
L 285.249695 186.361441 
L 285.550858 185.95864 
L 285.550858 186.18958 
L 286.153186 184.85182 
L 286.153186 185.089099 
L 286.755514 183.779445 
L 286.755514 183.652896 
L 287.357841 182.538136 
L 287.357841 182.231847 
L 287.659005 181.729606 
L 288.86366 179.060305 
L 288.86366 179.223231 
L 289.164824 177.763239 
L 289.767151 176.309647 
L 290.369479 173.852932 
L 290.369479 173.951738 
L 291.27297 170.456608 
L 291.27297 170.547807 
L 292.477625 164.992273 
L 292.477625 164.729123 
L 292.778789 163.423332 
L 293.68228 158.383714 
L 293.68228 158.484966 
L 294.284608 155.693795 
L 294.284608 155.769205 
L 295.188099 153.773162 
L 295.188099 154.066712 
L 295.489263 153.68151 
L 295.790427 153.526735 
L 295.790427 153.401485 
L 296.09159 154.661027 
L 296.392754 154.57499 
L 296.392754 154.633556 
L 296.693918 155.030017 
L 296.693918 155.023829 
L 297.296246 156.79328 
L 297.296246 156.651304 
L 297.597409 158.0847 
L 297.597409 158.011494 
L 298.802064 160.71536 
L 299.103228 160.849275 
L 299.404392 161.683888 
L 299.404392 161.601957 
L 300.00672 162.525022 
L 300.00672 162.254022 
L 300.307883 163.025059 
L 300.307883 162.720521 
L 300.609047 163.347379 
L 300.609047 163.138356 
L 300.910211 163.307409 
L 300.910211 163.207336 
L 301.211375 163.818526 
L 301.512538 163.758361 
L 301.512538 163.951686 
L 301.813702 163.827492 
L 301.813702 163.948094 
L 302.114866 164.106551 
L 302.114866 164.260843 
L 302.41603 164.321189 
L 302.41603 164.465912 
L 302.717193 164.356962 
L 302.717193 164.421203 
L 303.319521 164.431135 
L 303.319521 164.391166 
L 303.921849 164.54582 
L 303.921849 164.455708 
L 304.223012 164.608641 
L 304.223012 164.752669 
L 304.524176 164.652475 
L 304.524176 164.804835 
L 304.82534 164.490123 
L 304.82534 164.532386 
L 305.427667 164.438048 
L 305.427667 164.902463 
L 305.728831 164.501353 
L 305.728831 164.506364 
L 306.029995 164.296254 
L 306.029995 164.720489 
L 306.331159 164.450727 
L 306.331159 164.671373 
L 306.632322 164.591012 
L 306.933486 164.330487 
L 306.933486 164.44481 
L 307.23465 164.159743 
L 307.535814 164.321763 
L 307.535814 164.145585 
L 307.836978 164.464885 
L 308.138141 164.403845 
L 308.138141 164.078416 
L 308.439305 164.009043 
L 308.439305 164.312073 
L 308.740469 163.946946 
L 308.740469 163.990176 
L 309.342796 163.741335 
L 310.547452 162.954841 
L 310.547452 162.82793 
L 310.848615 162.683631 
L 310.848615 162.699057 
L 311.149779 162.300331 
L 311.149779 162.316723 
L 311.752107 161.873379 
L 311.752107 161.697292 
L 312.354434 161.304332 
L 312.354434 161.113512 
L 312.655598 160.557657 
L 312.956762 160.576676 
L 312.956762 160.73299 
L 313.860253 158.965381 
L 313.860253 159.198705 
L 314.763744 157.772766 
L 314.763744 157.516649 
L 315.064908 157.372953 
L 315.064908 157.026876 
L 315.366072 156.827815 
L 315.366072 156.688677 
L 316.269563 154.621993 
L 316.269563 154.81879 
L 317.173054 152.396761 
L 317.474218 151.721662 
L 319.281201 145.275969 
L 319.281201 145.655163 
L 319.883528 142.354778 
L 319.883528 142.850649 
L 320.485856 139.763876 
L 320.485856 139.810275 
L 322.895166 126.659482 
L 322.895166 126.474277 
L 325.003313 114.111456 
L 325.003313 113.709047 
L 325.60564 110.147926 
L 328.918442 89.978709 
L 328.918442 89.66922 
L 330.123097 82.369714 
L 331.628916 72.627228 
L 331.930079 71.21285 
L 332.532407 67.894956 
L 332.532407 67.987604 
L 333.134734 65.493545 
L 333.134734 65.593287 
L 333.737062 63.212193 
L 333.737062 63.554467 
L 334.640553 60.895068 
L 334.941717 60.310202 
L 335.544045 59.011566 
L 335.544045 58.84864 
L 335.845208 58.663707 
L 335.845208 58.708144 
L 336.447536 57.669761 
L 336.447536 57.710545 
L 336.7487 57.210236 
L 336.7487 57.467772 
L 337.351027 56.442822 
L 337.351027 56.808763 
L 337.652191 56.496406 
L 337.652191 56.335322 
L 337.953355 56.27253 
L 337.953355 56.144714 
L 338.254518 55.868944 
L 338.555682 55.571168 
L 338.555682 55.850711 
L 338.856846 55.457811 
L 338.856846 55.593175 
L 339.15801 55.617809 
L 339.15801 55.267445 
L 339.459174 55.249362 
L 339.459174 55.074934 
L 339.760337 55.02778 
L 339.760337 55.173167 
L 340.061501 55.185695 
L 340.061501 54.898726 
L 340.362665 54.82395 
L 340.362665 55.118587 
L 340.663829 54.636692 
L 340.663829 54.753792 
L 340.964992 54.522581 
L 340.964992 54.595576 
L 341.266156 54.417737 
L 341.56732 54.563818 
L 341.868484 54.422809 
L 341.868484 54.299098 
L 342.169647 54.204639 
L 342.169647 54.332214 
L 342.470811 54.212941 
L 342.470811 54.229846 
L 342.771975 54.278147 
L 342.771975 54.172368 
L 343.073139 53.996129 
L 343.073139 54.177379 
L 343.374303 54.18556 
L 343.374303 54.000536 
L 343.675466 53.836826 
L 343.97663 54.234646 
L 343.97663 54.208443 
L 344.578958 54.127719 
L 344.578958 53.930621 
L 344.880121 54.013034 
L 344.880121 53.933398 
L 346.988268 53.81666 
L 346.988268 53.955103 
L 347.289432 53.985291 
L 347.289432 53.832117 
L 348.79525 53.625026 
L 349.096414 54.087871 
L 349.096414 53.668889 
L 349.397578 53.568 
L 349.397578 53.784661 
L 349.999906 54.245272 
L 349.999906 54.112625 
L 350.301069 54.085909 
L 350.301069 54.274796 
L 350.602233 54.25128 
L 350.602233 54.265378 
L 350.903397 53.940311 
L 350.903397 54.26097 
L 351.204561 53.956673 
L 351.204561 53.790789 
L 351.505724 54.064173 
L 351.505724 54.000114 
L 351.806888 54.002227 
L 351.806888 54.117486 
L 352.108052 54.07332 
L 352.108052 53.830939 
L 352.409216 54.144776 
L 352.409216 54.059645 
L 352.710379 54.115161 
L 352.710379 54.238118 
L 353.011543 55.279882 
L 353.312707 57.128668 
L 353.915035 61.995035 
L 353.915035 61.940696 
L 354.517362 66.905115 
L 355.11969 72.211476 
L 355.11969 71.959887 
L 356.926672 85.897657 
L 357.529 89.388228 
L 357.529 89.304576 
L 358.432491 95.268798 
L 358.432491 94.924653 
L 359.034819 98.414197 
L 359.034819 98.680245 
L 359.335982 99.682343 
L 361.444129 108.730892 
L 362.046456 110.518879 
L 362.046456 110.78532 
L 363.552275 115.951728 
L 363.853439 117.828528 
L 363.853439 117.547989 
L 364.154603 118.10306 
L 364.154603 118.338316 
L 364.75693 120.605691 
L 364.75693 120.426857 
L 365.660422 123.433903 
L 365.961585 125.207429 
L 365.961585 125.147143 
L 366.262749 126.048654 
L 366.262749 125.898709 
L 366.865077 128.253298 
L 366.865077 128.01623 
L 367.768568 131.910024 
L 367.768568 131.751717 
L 368.973223 136.520366 
L 368.973223 136.474751 
L 369.274387 138.89032 
L 369.274387 138.796495 
L 370.177878 143.008715 
L 370.479042 145.176227 
L 370.780206 146.317341 
L 370.780206 145.998101 
L 371.08137 148.430334 
L 371.08137 148.399029 
L 371.382533 149.425729 
L 371.382533 149.301837 
L 371.683697 151.604713 
L 371.683697 151.519915 
L 371.984861 152.711201 
L 372.286025 154.830835 
L 372.286025 154.706158 
L 372.587188 155.95924 
L 372.587188 155.697327 
L 372.888352 158.121651 
L 372.888352 157.890047 
L 374.695335 165.453639 
L 374.695335 165.418198 
L 374.996499 167.365971 
L 374.996499 167.337202 
L 376.201154 171.474162 
L 376.201154 171.431446 
L 376.502317 172.943844 
L 376.502317 172.788888 
L 376.803481 173.77245 
L 376.803481 173.614022 
L 377.104645 175.288652 
L 377.706973 176.763164 
L 378.008136 177.941893 
L 378.008136 177.775586 
L 378.610464 179.12853 
L 378.610464 179.083701 
L 378.911628 180.229735 
L 378.911628 180.043474 
L 379.212791 180.875793 
L 379.212791 180.762859 
L 379.513955 182.172436 
L 379.513955 181.670014 
L 380.71861 184.536655 
L 380.71861 184.365096 
L 381.019774 185.566012 
L 381.622102 186.398935 
L 381.923265 187.20019 
L 382.525593 187.753781 
L 382.525593 187.631519 
L 382.826757 188.302421 
L 382.826757 188.242166 
L 383.12792 188.516063 
L 383.12792 188.743803 
L 383.429084 188.973475 
L 383.429084 188.779486 
L 384.031412 189.923799 
L 384.031412 189.649026 
L 384.332575 190.079842 
L 384.633739 190.131826 
L 384.633739 189.908011 
L 385.236067 190.844328 
L 385.236067 190.47736 
L 385.537231 190.761612 
L 385.537231 190.61846 
L 385.838394 190.651818 
L 385.838394 190.460395 
L 386.139558 190.622415 
L 386.139558 190.763967 
L 386.440722 190.679017 
L 386.440722 191.008824 
L 386.741886 191.245922 
L 387.043049 190.831136 
L 387.043049 191.024159 
L 387.344213 191.114905 
L 387.344213 191.07569 
L 387.645377 191.084536 
L 387.645377 190.949866 
L 387.946541 191.141501 
L 388.247705 190.937549 
L 388.247705 191.060294 
L 388.548868 190.972688 
L 388.548868 191.095916 
L 388.850032 191.140655 
L 388.850032 191.024612 
L 389.151196 191.274691 
L 389.753523 190.976583 
L 389.753523 191.20067 
L 390.355851 190.858728 
L 390.355851 191.218873 
L 390.657015 190.888976 
L 390.657015 191.059238 
L 390.958178 190.945609 
L 390.958178 191.085049 
L 391.259342 191.11572 
L 391.259342 191.000099 
L 391.560506 191.179628 
L 391.560506 191.121878 
L 391.86167 190.868901 
L 392.162834 191.026786 
L 392.463997 190.821445 
L 392.463997 190.992643 
L 392.765161 190.53819 
L 392.765161 190.689644 
L 393.367489 190.497315 
L 393.367489 190.333544 
L 393.668652 190.235825 
L 393.668652 190.424229 
L 393.969816 189.881083 
L 393.969816 190.016839 
L 394.27098 189.760843 
L 394.27098 189.77956 
L 394.572144 189.275568 
L 394.572144 189.2807 
L 394.873307 189.013776 
L 395.475635 188.069882 
L 395.475635 188.113534 
L 396.077963 187.114456 
L 396.077963 187.200613 
L 396.379126 186.073325 
L 396.379126 186.122894 
L 396.981454 184.744531 
L 396.981454 184.518814 
L 397.282618 183.041494 
L 397.282618 183.235725 
L 398.186109 180.629306 
L 398.186109 180.363228 
L 398.487273 178.942028 
L 398.487273 178.963914 
" clip-path="url(#pc63d193b2b)" style="fill: none; stroke: #1f77b4; stroke-width: 1.5; stroke-linecap: square"/>
   </g>
   <g id="line2d_30">
    <path d="M 73.832727 279.452935 
L 73.832727 279.836295 
L 75.338546 273.018563 
L 75.338546 272.487764 
L 75.63971 271.193173 
L 77.747856 260.666971 
L 77.747856 260.35229 
L 79.554839 251.465639 
L 79.554839 251.472099 
L 80.759494 245.138948 
L 80.759494 245.139129 
L 81.662985 240.491203 
L 81.662985 240.619231 
L 84.373459 226.224895 
L 84.373459 226.484 
L 84.975787 223.137035 
L 84.975787 223.171117 
L 92.504881 181.756956 
L 102.142122 126.08651 
L 103.949104 115.05852 
L 103.949104 115.299663 
L 105.756087 104.246979 
L 106.960742 96.740563 
L 108.165397 89.393028 
L 110.273544 76.152122 
L 110.273544 76.290052 
L 110.875871 72.158616 
L 112.682854 60.719795 
L 112.682854 60.970508 
L 113.586345 54.708118 
L 113.586345 54.870168 
L 113.887509 53.724707 
L 113.887509 53.724707 
L 116.296819 53.724707 
L 116.296819 54.107554 
L 116.597983 53.894274 
L 116.597983 53.97536 
L 116.899147 55.175461 
L 116.899147 55.160669 
L 117.501474 58.691662 
L 117.501474 58.674001 
L 117.802638 58.534109 
L 118.404965 61.876728 
L 118.404965 61.857739 
L 118.706129 64.420959 
L 118.706129 64.394786 
L 119.007293 64.683566 
L 119.609621 69.12591 
L 119.910784 73.111537 
L 120.211948 73.854438 
L 120.211948 73.848974 
L 120.814276 80.317037 
L 121.115439 86.637177 
L 121.416603 87.029684 
L 121.717767 90.928309 
L 121.717767 90.890332 
L 122.320094 102.605858 
L 122.621258 100.90584 
L 123.223586 110.863055 
L 123.223586 110.838753 
L 123.52475 109.400376 
L 123.52475 109.442791 
L 123.825913 113.704096 
L 123.825913 113.676836 
L 124.127077 114.366576 
L 124.127077 114.354954 
L 124.428241 116.601318 
L 124.729405 121.121185 
L 124.729405 121.094167 
L 125.030568 120.776919 
L 125.030568 120.791711 
L 125.331732 123.570474 
L 125.632896 124.369435 
L 125.93406 126.068306 
L 126.235223 129.532251 
L 126.235223 129.521896 
L 126.536387 128.911461 
L 126.536387 128.965558 
L 126.837551 131.419858 
L 126.837551 131.413941 
L 127.138715 131.45382 
L 127.439879 133.16528 
L 127.439879 133.156585 
L 127.741042 133.605061 
L 128.042206 134.829072 
L 128.042206 134.771503 
L 128.644534 136.043392 
L 128.945697 137.622386 
L 128.945697 137.611458 
L 129.246861 137.296746 
L 129.246861 137.300247 
L 129.548025 138.350616 
L 129.548025 138.335371 
L 129.849189 138.204414 
L 129.849189 138.208852 
L 130.150353 138.876283 
L 130.150353 138.863815 
L 130.451516 138.955768 
L 131.053844 139.341513 
L 131.053844 139.244035 
L 131.656171 139.542627 
L 131.656171 139.432229 
L 134.366645 139.52391 
L 134.968973 139.343687 
L 135.270137 138.649962 
L 135.5713 139.032597 
L 135.872464 138.030168 
L 136.173628 138.447278 
L 136.474792 137.197487 
L 136.775955 137.546764 
L 137.077119 136.057309 
L 137.378283 136.303977 
L 137.679447 134.463131 
L 137.980611 134.754024 
L 137.980611 134.703127 
L 138.281774 132.565802 
L 138.582938 132.541954 
L 138.884102 130.379452 
L 139.185266 129.843431 
L 139.486429 127.294762 
L 139.787593 126.732205 
L 139.787593 126.814528 
L 140.088757 123.815331 
L 140.389921 122.737008 
L 140.389921 122.803483 
L 140.691084 120.015935 
L 140.992248 112.631691 
L 140.992248 112.685939 
L 141.293412 115.099364 
L 141.293412 115.084451 
L 141.594576 108.56522 
L 141.594576 108.786409 
L 141.89574 108.348076 
L 142.196903 104.977292 
L 144.606214 90.20189 
L 144.606214 90.340816 
L 144.907377 88.270117 
L 144.907377 88.382116 
L 145.208541 87.390282 
L 145.509705 87.506145 
L 146.413196 87.969171 
L 146.413196 87.96102 
L 148.220179 87.905353 
L 149.12367 87.100838 
L 149.12367 87.118377 
L 149.424834 86.097865 
L 149.424834 86.158302 
L 149.725998 85.716679 
L 150.027161 84.871591 
L 150.027161 84.909326 
L 150.328325 82.944406 
L 150.629489 82.342514 
L 150.930653 80.688533 
L 150.930653 80.73626 
L 151.231816 77.667691 
L 151.53298 76.497505 
L 151.53298 72.71577 
L 151.834144 74.184274 
L 151.834144 73.999643 
L 152.135308 70.16855 
L 152.135308 70.331778 
L 152.436472 63.685182 
L 152.737635 64.602088 
L 153.038799 60.23766 
L 153.038799 60.347635 
L 153.94229 54.29949 
L 153.94229 54.388153 
L 154.243454 55.554172 
L 154.243454 55.507743 
L 154.544618 57.818709 
L 154.845782 57.781669 
L 154.845782 57.800325 
L 155.448109 59.788852 
L 155.749273 60.557413 
L 155.749273 60.510651 
L 156.050437 60.599405 
L 156.652764 61.06391 
L 156.953928 60.937482 
L 156.953928 60.945331 
L 157.255092 61.029617 
L 157.857419 61.271394 
L 157.857419 61.257024 
L 158.158583 61.01896 
L 158.459747 60.942101 
L 158.459747 60.944546 
L 158.760911 61.133947 
L 159.062075 60.755659 
L 159.363238 60.185615 
L 159.363238 60.191079 
L 159.664402 59.95543 
L 159.664402 60.114311 
L 160.26673 58.703978 
L 160.567893 56.793639 
L 160.567893 56.813231 
L 160.869057 56.32696 
L 160.869057 56.330311 
L 161.170221 54.702382 
L 161.170221 54.892628 
L 161.471385 53.724707 
L 161.471385 53.724707 
L 173.517936 53.724707 
L 173.517936 54.957804 
L 173.819099 53.724707 
L 173.819099 53.724707 
L 174.722591 53.724707 
L 174.722591 55.495788 
L 175.023754 53.724707 
L 175.023754 53.724707 
L 175.324918 53.724707 
L 175.324918 54.876779 
L 175.626082 54.820599 
L 175.626082 53.724707 
L 178.63772 53.724707 
L 178.63772 53.724707 
L 178.938883 54.9812 
L 179.240047 53.724707 
L 179.240047 53.724707 
L 183.45634 53.724707 
L 183.45634 53.724707 
L 183.757504 54.479472 
L 184.058668 57.921742 
L 184.359831 58.307517 
L 184.359831 61.03976 
L 184.660995 60.57136 
L 184.660995 60.595541 
L 185.263323 65.767503 
L 185.564486 68.918547 
L 185.564486 68.680091 
L 185.86565 68.858654 
L 185.86565 69.117367 
L 186.467978 73.475939 
L 186.467978 73.318809 
L 186.769142 76.493551 
L 186.769142 76.385779 
L 187.070305 76.685246 
L 187.070305 76.585595 
L 187.672633 80.836425 
L 187.973797 83.660953 
L 187.973797 83.64118 
L 188.27496 83.588411 
L 188.27496 83.624727 
L 188.576124 85.310648 
L 188.576124 85.181955 
L 188.877288 87.735424 
L 189.178452 88.182662 
L 189.780779 91.750545 
L 189.780779 91.648358 
L 190.081943 93.990539 
L 190.081943 92.308725 
L 190.684271 95.328752 
L 190.684271 95.181403 
L 190.985434 97.365549 
L 190.985434 97.347406 
L 191.286598 96.943428 
L 191.888926 100.307178 
L 192.190089 99.913222 
L 192.792417 102.542584 
L 192.792417 101.610433 
L 193.093581 102.342406 
L 193.394744 103.475369 
L 193.394744 103.421996 
L 193.695908 103.671713 
L 193.997072 104.204957 
L 194.298236 105.178859 
L 194.5994 105.256352 
L 194.900563 105.664858 
L 195.201727 106.319067 
L 195.502891 106.280517 
L 195.804055 106.640632 
L 195.804055 106.635077 
L 197.00871 107.202223 
L 197.00871 107.202162 
L 198.815692 107.353133 
L 199.116856 107.306794 
L 199.41802 107.381208 
L 199.41802 107.379397 
L 200.622675 107.219671 
L 200.622675 107.22106 
L 200.923839 107.291187 
L 200.923839 107.290372 
L 201.225003 107.164578 
L 201.526166 106.900612 
L 201.82733 107.006633 
L 201.82733 107.004128 
L 202.128494 106.727 
L 202.429658 106.746441 
L 202.429658 106.618353 
L 202.730821 106.503154 
L 202.730821 106.517373 
L 203.031985 106.018513 
L 203.031985 106.029894 
L 203.333149 106.1047 
L 203.634313 105.725748 
L 203.935476 105.015722 
L 203.935476 105.019797 
L 204.23664 105.243431 
L 204.23664 105.236458 
L 204.537804 104.593962 
L 204.838968 104.552031 
L 204.838968 104.566793 
L 205.140132 104.107329 
L 205.140132 104.112189 
L 205.441295 103.118756 
L 205.742459 103.243856 
L 205.742459 103.235856 
L 206.043623 102.491354 
L 206.043623 102.520546 
L 206.344787 101.177021 
L 206.344787 101.202439 
L 206.64595 101.561618 
L 206.947114 100.398799 
L 206.947114 100.406105 
L 207.248278 100.258967 
L 207.549442 99.479297 
L 207.549442 99.480112 
L 207.850605 97.768592 
L 207.850605 97.77952 
L 208.151769 97.899337 
L 208.452933 96.730299 
L 208.754097 94.399831 
L 209.055261 94.961754 
L 209.356424 93.287607 
L 209.657588 92.73151 
L 209.657588 90.658638 
L 209.958752 91.454701 
L 209.958752 91.365585 
L 210.259916 89.172443 
L 210.561079 88.736736 
L 210.862243 87.226994 
L 210.862243 87.229228 
L 211.163407 84.317094 
L 211.464571 83.858686 
L 211.464571 83.938232 
L 211.765735 82.157249 
L 211.765735 82.190788 
L 212.066898 78.698165 
L 212.066898 78.744654 
L 212.368062 78.314714 
L 212.669226 76.170145 
L 212.97039 72.266388 
L 212.97039 72.268018 
L 213.271553 71.550928 
L 213.572717 69.22381 
L 213.572717 69.235855 
L 214.175045 62.149538 
L 214.175045 62.195455 
L 214.476208 61.060711 
L 214.476208 61.119517 
L 214.777372 58.249797 
L 214.777372 58.540177 
L 215.3797 54.473163 
L 215.680864 53.724707 
L 215.680864 53.724707 
L 230.437888 53.724707 
L 230.437888 54.922212 
L 230.739052 54.92508 
L 230.739052 53.724707 
L 234.353017 53.724707 
L 234.353017 55.253286 
L 234.654181 53.724707 
L 234.654181 54.926408 
L 234.955345 53.724707 
L 234.955345 53.724707 
L 236.461164 53.724707 
L 236.461164 54.803422 
L 236.762328 54.901413 
L 237.063491 53.724707 
L 237.063491 53.724707 
L 238.870474 53.724707 
L 238.870474 53.724707 
L 239.171638 54.525932 
L 239.472801 55.756795 
L 239.472801 55.74318 
L 239.773965 55.865895 
L 239.773965 55.864265 
L 240.677457 59.38113 
L 240.677457 59.378232 
L 240.97862 60.879762 
L 240.97862 60.875898 
L 241.279784 60.906358 
L 241.279784 60.906207 
L 241.580948 61.952802 
L 241.580948 61.931278 
L 242.183275 65.466889 
L 242.183275 65.441954 
L 242.484439 65.621483 
L 242.785603 66.737148 
L 242.785603 66.721722 
L 243.387931 70.431006 
L 243.387931 70.411867 
L 243.689094 70.704723 
L 244.291422 73.977666 
L 244.291422 73.92846 
L 244.592586 76.559482 
L 244.592586 76.526214 
L 244.893749 76.803282 
L 244.893749 76.750845 
L 245.194913 78.325129 
L 245.496077 80.542392 
L 245.496077 80.520988 
L 245.797241 83.614071 
L 245.797241 83.559008 
L 246.098404 83.325291 
L 246.399568 85.028599 
L 246.700732 88.171553 
L 246.700732 88.153229 
L 247.001896 88.70682 
L 247.30306 90.432468 
L 247.30306 90.40388 
L 247.604223 93.328663 
L 247.604223 93.251955 
L 247.905387 94.054961 
L 247.905387 94.054357 
L 248.206551 96.060695 
L 248.808878 103.025957 
L 248.808878 103.072326 
L 249.110042 101.820331 
L 249.411206 105.282465 
L 249.71237 106.217574 
L 250.013533 108.173075 
L 250.013533 108.12423 
L 250.314697 112.149645 
L 250.615861 112.390668 
L 250.917025 114.856832 
L 251.218189 119.679759 
L 251.519352 118.676394 
L 251.519352 118.72862 
L 251.820516 122.404002 
L 251.820516 122.383565 
L 252.12168 122.977548 
L 252.422844 125.304364 
L 252.724007 130.284722 
L 252.724007 130.208798 
L 253.025171 128.923385 
L 253.326335 133.259195 
L 253.627499 132.863156 
L 253.928663 136.335584 
L 254.229826 136.591308 
L 254.229826 136.553784 
L 254.53099 139.544166 
L 254.53099 139.280654 
L 254.832154 140.183673 
L 255.133318 142.508889 
L 255.434481 143.630561 
L 255.735645 145.541565 
L 255.735645 145.319802 
L 256.036809 146.746919 
L 256.337973 148.819007 
L 256.337973 148.565426 
L 257.241464 153.012721 
L 257.542628 155.0337 
L 257.843792 155.939648 
L 257.843792 155.936418 
L 258.144955 158.130979 
L 258.144955 157.991057 
L 258.446119 158.647288 
L 258.446119 158.637899 
L 258.747283 161.362142 
L 259.048447 161.526396 
L 259.34961 164.396509 
L 259.34961 164.391377 
L 259.650774 164.199048 
L 259.650774 163.956003 
L 259.951938 167.66263 
L 259.951938 167.494965 
L 260.253102 166.760547 
L 260.554265 170.519883 
L 260.855429 169.534872 
L 261.156593 170.315116 
L 261.156593 170.268868 
L 261.457757 172.534734 
L 261.457757 172.446826 
L 261.758921 172.544515 
L 262.060084 175.479049 
L 262.060084 175.344349 
L 262.361248 174.882983 
L 262.361248 174.902122 
L 262.662412 175.763844 
L 262.662412 175.725505 
L 262.963576 177.256138 
L 262.963576 177.241708 
L 263.264739 177.604177 
L 263.565903 179.95451 
L 263.867067 179.440042 
L 263.867067 179.531211 
L 264.168231 180.220619 
L 264.168231 182.017752 
L 264.469395 181.514666 
L 264.770558 181.764654 
L 264.770558 181.739779 
L 265.071722 183.519102 
L 265.071722 183.500657 
L 265.372886 183.10815 
L 265.372886 183.134685 
L 265.67405 183.562995 
L 265.67405 183.516928 
L 265.975213 184.885842 
L 265.975213 184.86139 
L 266.276377 184.727294 
L 266.276377 184.828183 
L 266.577541 185.296583 
L 266.577541 185.211452 
L 266.878705 186.133128 
L 266.878705 186.074351 
L 267.179868 186.187497 
L 267.481032 187.283026 
L 267.481032 186.450527 
L 267.782196 187.22745 
L 267.782196 187.132991 
L 268.08336 187.26603 
L 268.08336 187.209186 
L 268.384524 188.218196 
L 268.384524 188.206846 
L 268.685687 188.098561 
L 268.986851 188.177714 
L 268.986851 188.088448 
L 269.288015 188.853386 
L 269.288015 188.849884 
L 269.890342 188.773388 
L 270.191506 188.902442 
L 270.49267 189.379868 
L 270.49267 189.359582 
L 270.793834 189.300081 
L 270.793834 189.312851 
L 271.396161 189.778956 
L 271.396161 189.770323 
L 271.697325 189.691622 
L 271.697325 189.714837 
L 272.600816 190.009685 
L 273.504308 190.209319 
L 273.504308 190.208836 
L 273.805471 190.253575 
L 274.106635 190.058409 
L 274.106635 190.059858 
L 274.407799 190.283522 
L 274.407799 190.282737 
L 274.708963 190.316759 
L 275.010126 190.176324 
L 275.010126 190.176324 
L 275.612454 190.329951 
L 275.612454 190.329197 
L 276.817109 190.265318 
L 277.419437 190.322948 
L 277.419437 190.322344 
L 277.7206 190.189456 
L 277.7206 190.189486 
L 278.021764 190.215659 
L 278.021764 190.215538 
L 278.322928 189.752632 
L 278.624092 189.923196 
L 278.925256 189.945263 
L 278.925256 189.94478 
L 279.226419 189.763259 
L 279.226419 189.769236 
L 279.527583 189.245561 
L 279.828747 189.525768 
L 279.828747 189.520425 
L 280.129911 189.434962 
L 280.431074 189.160279 
L 280.431074 189.165593 
L 280.732238 188.408352 
L 280.732238 188.413333 
L 281.033402 188.68711 
L 281.334566 188.686234 
L 281.635729 188.397846 
L 281.635729 188.421061 
L 281.936893 186.696741 
L 281.936893 186.733541 
L 282.539221 187.582644 
L 282.539221 187.571444 
L 282.840385 187.125323 
L 282.840385 187.1601 
L 283.141548 184.518089 
L 283.743876 185.954897 
L 283.743876 185.95227 
L 284.04504 185.226335 
L 284.04504 185.256402 
L 284.346203 182.036257 
L 284.346203 182.037254 
L 284.948531 183.795324 
L 285.249695 182.878538 
L 285.550858 179.171277 
L 285.852022 180.59936 
L 286.153186 180.872321 
L 286.45435 174.83592 
L 286.45435 174.896145 
L 287.056677 177.787661 
L 287.357841 176.627257 
L 287.659005 171.512833 
L 287.659005 171.611337 
L 287.960169 173.101638 
L 287.960169 173.062212 
L 288.261332 173.816676 
L 288.562496 172.03847 
L 288.562496 165.934477 
L 289.164824 169.585286 
L 289.465988 167.98498 
L 289.767151 161.411198 
L 289.767151 161.441386 
L 290.068315 163.857257 
L 290.369479 163.407906 
L 290.369479 163.531164 
L 290.670643 161.375908 
L 290.971806 156.251764 
L 291.27297 158.315278 
L 291.574134 155.799816 
L 291.574134 155.966908 
L 291.875298 149.550799 
L 292.176461 150.917117 
L 292.176461 150.796756 
L 292.477625 148.850433 
L 292.778789 144.81255 
L 293.079953 143.519197 
L 293.381117 142.838574 
L 293.381117 142.98064 
L 293.68228 143.513733 
L 293.983444 142.618653 
L 294.284608 149.366923 
L 294.585772 147.434576 
L 294.886935 148.590029 
L 295.188099 152.554826 
L 295.489263 151.726402 
L 295.489263 151.728243 
L 295.790427 156.292759 
L 295.790427 156.173154 
L 296.09159 154.925355 
L 296.09159 155.089458 
L 296.392754 155.798367 
L 296.392754 155.764285 
L 296.693918 158.151145 
L 296.693918 158.14885 
L 296.995082 157.701039 
L 297.296246 160.767918 
L 297.296246 160.727315 
L 297.597409 159.964399 
L 297.898573 160.166599 
L 297.898573 160.120804 
L 298.199737 161.835765 
L 298.500901 161.387561 
L 298.802064 161.770136 
L 298.802064 161.735148 
L 299.103228 162.959551 
L 299.103228 162.914057 
L 299.404392 162.726377 
L 299.404392 162.841485 
L 299.705556 163.036863 
L 299.705556 163.015852 
L 300.00672 163.674105 
L 300.00672 163.661849 
L 300.307883 163.566726 
L 300.307883 163.587284 
L 300.609047 163.768081 
L 300.910211 164.080288 
L 300.910211 164.07905 
L 301.211375 164.121827 
L 301.211375 164.117661 
L 301.512538 164.442093 
L 301.512538 164.440735 
L 301.813702 164.486802 
L 301.813702 164.485474 
L 302.114866 164.391951 
L 302.114866 164.494983 
L 303.921849 164.571027 
L 303.921849 164.570816 
L 304.223012 164.391286 
L 304.524176 164.697938 
L 304.524176 164.697666 
L 304.82534 164.471768 
L 304.82534 164.471829 
L 305.126504 164.426697 
L 305.427667 164.534801 
L 305.427667 164.534499 
L 305.728831 164.47533 
L 305.728831 164.47533 
L 306.029995 164.129977 
L 306.029995 164.136679 
L 306.331159 164.470259 
L 306.632322 164.181267 
L 306.632322 164.181297 
L 306.933486 163.5497 
L 306.933486 163.553594 
L 307.23465 163.844125 
L 307.23465 163.840835 
L 307.535814 163.695267 
L 307.535814 163.696535 
L 307.836978 163.015339 
L 307.836978 163.022372 
L 308.138141 163.529836 
L 308.138141 163.400721 
L 308.439305 163.14711 
L 308.740469 162.186793 
L 308.740469 162.190778 
L 309.041633 162.60656 
L 309.342796 162.099459 
L 309.342796 162.101693 
L 309.64396 161.255518 
L 309.64396 161.259955 
L 309.945124 161.509914 
L 310.246288 159.713927 
L 310.547452 160.356121 
L 310.547452 160.334415 
L 310.848615 160.312137 
L 311.149779 158.31238 
L 311.149779 158.31567 
L 311.450943 159.164834 
L 311.450943 159.149257 
L 311.752107 158.76798 
L 311.752107 158.791406 
L 312.05327 157.010514 
L 312.354434 157.904175 
L 312.354434 157.891617 
L 312.655598 157.308713 
L 312.655598 157.324169 
L 312.956762 155.416094 
L 312.956762 155.462191 
L 313.257925 156.145411 
L 313.559089 155.420803 
L 313.860253 153.370029 
L 313.860253 153.449574 
L 314.161417 154.06641 
L 314.161417 154.04238 
L 314.462581 153.233367 
L 314.763744 151.68124 
L 315.064908 151.858566 
L 315.366072 148.906855 
L 315.667236 149.760879 
L 315.667236 149.679069 
L 315.968399 148.61424 
L 316.570727 146.198641 
L 316.570727 146.235169 
L 316.871891 144.372557 
L 316.871891 144.470729 
L 317.173054 143.427818 
L 317.173054 143.472707 
L 317.474218 141.538942 
L 317.775382 140.362448 
L 318.076546 138.172928 
L 318.076546 138.29999 
L 318.37771 137.241531 
L 318.37771 137.298678 
L 318.678873 134.474179 
L 318.980037 134.254409 
L 318.980037 134.29296 
L 319.281201 130.306125 
L 319.281201 130.611056 
L 319.582365 130.837558 
L 319.883528 125.598427 
L 319.883528 126.026797 
L 320.184692 127.193903 
L 320.184692 127.087188 
L 320.485856 121.184671 
L 320.485856 121.227417 
L 320.78702 123.101591 
L 320.78702 123.044143 
L 321.088184 117.579657 
L 321.389347 118.740091 
L 321.690511 116.577952 
L 321.690511 114.263574 
L 321.991675 113.803445 
L 321.991675 113.981797 
L 322.292839 110.576176 
L 322.292839 110.64419 
L 323.19633 105.263748 
L 327.412623 79.148874 
L 327.412623 79.037359 
L 328.918442 69.744798 
L 328.918442 69.428456 
L 330.123097 61.967624 
L 331.327752 53.986288 
L 331.628916 53.724707 
L 331.628916 53.724707 
L 348.192923 53.724707 
L 348.192923 55.093953 
L 348.494087 53.724707 
L 348.494087 54.601523 
L 348.79525 53.724707 
L 348.79525 54.46622 
L 349.096414 53.724707 
L 349.096414 54.526113 
L 349.397578 55.116081 
L 349.397578 53.724707 
L 352.108052 53.724707 
L 352.108052 53.724707 
L 352.409216 54.60747 
L 352.409216 54.56566 
L 352.710379 56.878891 
L 353.312707 65.558873 
L 353.312707 65.460821 
L 353.613871 65.645784 
L 354.216198 71.575078 
L 354.216198 71.470627 
L 354.517362 75.688673 
L 354.517362 75.569128 
L 354.818526 76.248121 
L 354.818526 76.21585 
L 355.420853 81.410302 
L 355.722017 85.091361 
L 356.023181 85.153609 
L 356.023181 85.053535 
L 356.926672 90.960067 
L 356.926672 93.539165 
L 357.227836 92.793698 
L 357.227836 92.843297 
L 357.830164 98.142563 
L 357.830164 98.056014 
L 358.131327 97.57575 
L 358.432491 99.648894 
L 358.733655 102.337908 
L 358.733655 102.328489 
L 359.034819 101.855863 
L 359.034819 101.979846 
L 359.335982 103.797809 
L 359.335982 103.780149 
L 359.637146 104.349257 
L 359.637146 106.195054 
L 359.93831 105.64741 
L 360.239474 107.706124 
L 360.540638 108.13691 
L 360.540638 108.059084 
L 360.841801 109.180214 
L 360.841801 109.099943 
L 361.142965 111.417461 
L 361.444129 111.377311 
L 361.444129 111.415378 
L 361.745293 112.759326 
L 361.745293 112.693818 
L 362.046456 113.485956 
L 362.046456 115.111289 
L 362.34762 114.478454 
L 362.648784 116.547794 
L 362.949948 116.655777 
L 363.251111 118.00685 
L 363.552275 120.576711 
L 363.552275 120.550175 
L 363.853439 119.781946 
L 364.154603 122.09717 
L 364.154603 121.995133 
L 364.455767 121.909852 
L 364.75693 123.594474 
L 365.058094 124.165997 
L 365.359258 125.407426 
L 365.660422 128.292361 
L 365.660422 128.180816 
L 365.961585 127.545747 
L 366.262749 130.053359 
L 366.563913 129.899158 
L 366.865077 132.111893 
L 367.166241 132.340357 
L 367.467404 134.223315 
L 367.768568 135.070366 
L 367.768568 134.977236 
L 368.370896 137.748452 
L 368.370896 140.383972 
L 368.672059 139.034076 
L 368.672059 139.083374 
L 368.973223 143.181603 
L 369.274387 142.051296 
L 369.575551 145.790678 
L 369.575551 145.790225 
L 369.876714 145.07727 
L 370.177878 149.139002 
L 370.177878 149.031834 
L 370.479042 148.27248 
L 370.479042 148.341248 
L 370.780206 152.416383 
L 371.08137 151.427207 
L 371.382533 155.689237 
L 371.683697 154.531218 
L 371.984861 159.107054 
L 371.984861 158.878499 
L 372.286025 157.610353 
L 372.587188 162.324874 
L 372.587188 159.048851 
L 373.189516 162.119987 
L 373.189516 162.070056 
L 373.49068 164.551042 
L 373.49068 164.530907 
L 373.791843 164.807068 
L 373.791843 165.032695 
L 374.093007 167.799172 
L 374.093007 167.681921 
L 374.394171 167.392386 
L 374.695335 170.879092 
L 374.996499 170.080947 
L 375.297662 171.089262 
L 375.297662 173.754941 
L 375.598826 172.873143 
L 375.89999 173.340215 
L 376.201154 175.743588 
L 376.502317 175.339942 
L 376.803481 178.309555 
L 376.803481 176.168276 
L 377.104645 177.672795 
L 377.104645 177.653626 
L 377.405809 177.997318 
L 377.706973 180.099896 
L 377.706973 180.011354 
L 378.008136 179.756354 
L 378.3093 180.413642 
L 378.610464 181.906267 
L 378.911628 182.145901 
L 378.911628 182.082385 
L 379.212791 183.998943 
L 379.513955 183.527856 
L 379.815119 184.057418 
L 379.815119 184.056572 
L 380.116283 185.511855 
L 380.417446 185.421743 
L 380.71861 187.229895 
L 381.019774 186.780604 
L 381.320938 187.190288 
L 381.320938 187.160493 
L 381.622102 188.334149 
L 381.622102 188.331463 
L 381.923265 188.148099 
L 381.923265 188.153352 
L 382.224429 188.47866 
L 382.224429 188.466555 
L 382.525593 189.3914 
L 382.826757 189.249093 
L 383.12792 189.506749 
L 383.429084 190.349332 
L 383.730248 190.166029 
L 383.730248 190.169984 
L 384.031412 190.319808 
L 384.031412 190.312472 
L 384.332575 190.691364 
L 384.332575 190.691304 
L 385.236067 190.784163 
L 385.838394 191.033427 
L 386.139558 191.08523 
L 386.139558 191.08369 
L 386.440722 190.967375 
L 388.247705 191.154482 
L 388.247705 191.152097 
L 388.548868 190.957926 
L 389.151196 191.143735 
L 389.151196 191.142497 
L 389.45236 191.164746 
L 389.45236 191.1639 
L 389.753523 190.863226 
L 390.054687 191.087917 
L 390.054687 191.084113 
L 390.355851 190.978756 
L 390.355851 190.984009 
L 390.657015 190.325936 
L 390.958178 190.783137 
L 390.958178 190.768465 
L 391.259342 190.844841 
L 391.259342 190.842215 
L 391.560506 190.602128 
L 391.86167 189.883075 
L 391.86167 189.903905 
L 392.162834 190.272473 
L 392.162834 190.264322 
L 392.463997 189.951573 
L 392.463997 189.982546 
L 392.765161 188.567504 
L 393.066325 189.135163 
L 393.066325 189.116054 
L 393.367489 188.910533 
L 393.367489 188.761161 
L 393.668652 186.709209 
L 393.969816 187.529241 
L 393.969816 187.491265 
L 394.27098 186.905795 
L 394.27098 186.914851 
L 394.572144 184.796274 
L 394.873307 184.921887 
L 394.873307 184.87908 
L 395.174471 183.807671 
L 395.174471 183.818478 
L 395.776799 180.971973 
L 396.077963 176.689113 
L 396.379126 178.147021 
L 396.68029 176.482082 
L 396.981454 171.266799 
L 396.981454 171.566357 
L 397.282618 173.219915 
L 397.282618 173.107011 
L 397.583781 172.844887 
L 397.583781 173.000507 
L 397.884945 171.1305 
L 398.186109 164.468478 
L 398.186109 164.875777 
L 398.487273 166.165869 
L 398.487273 166.13233 
" clip-path="url(#pc63d193b2b)" style="fill: none; stroke: #ff7f0e; stroke-width: 1.5; stroke-linecap: square"/>
   </g>
   <g id="patch_3">
    <path d="M 57.6 307.584 
L 57.6 41.472 
" style="fill: none; stroke: #000000; stroke-width: 0.8; stroke-linejoin: miter; stroke-linecap: square"/>
   </g>
   <g id="patch_4">
    <path d="M 414.72 307.584 
L 414.72 41.472 
" style="fill: none; stroke: #000000; stroke-width: 0.8; stroke-linejoin: miter; stroke-linecap: square"/>
   </g>
   <g id="patch_5">
    <path d="M 57.6 307.584 
L 414.72 307.584 
" style="fill: none; stroke: #000000; stroke-width: 0.8; stroke-linejoin: miter; stroke-linecap: square"/>
   </g>
   <g id="patch_6">
    <path d="M 57.6 41.472 
L 414.72 41.472 
" style="fill: none; stroke: #000000; stroke-width: 0.8; stroke-linejoin: miter; stroke-linecap: square"/>
   </g>
   <g id="text_17">
    <!-- Actual speed vs Expected speed -->
    <g transform="translate(138.808125 35.472) scale(0.12 -0.12)">
     <defs>
      <path id="DejaVuSans-41" d="M 2188 4044 
L 1331 1722 
L 3047 1722 
L 2188 4044 
z
M 1831 4666 
L 2547 4666 
L 4325 0 
L 3669 0 
L 3244 1197 
L 1141 1197 
L 716 0 
L 50 0 
L 1831 4666 
z
" transform="scale(0.015625)"/>
      <path id="DejaVuSans-75" d="M 544 1381 
L 544 3500 
L 1119 3500 
L 1119 1403 
Q 1119 906 1312 657 
Q 1506 409 1894 409 
Q 2359 409 2629 706 
Q 2900 1003 2900 1516 
L 2900 3500 
L 3475 3500 
L 3475 0 
L 2900 0 
L 2900 538 
Q 2691 219 2414 64 
Q 2138 -91 1772 -91 
Q 1169 -91 856 284 
Q 544 659 544 1381 
z
M 1991 3584 
L 1991 3584 
z
" transform="scale(0.015625)"/>
      <path id="DejaVuSans-61" d="M 2194 1759 
Q 1497 1759 1228 1600 
Q 959 1441 959 1056 
Q 959 750 1161 570 
Q 1363 391 1709 391 
Q 2188 391 2477 730 
Q 2766 1069 2766 1631 
L 2766 1759 
L 2194 1759 
z
M 3341 1997 
L 3341 0 
L 2766 0 
L 2766 531 
Q 2569 213 2275 61 
Q 1981 -91 1556 -91 
Q 1019 -91 701 211 
Q 384 513 384 1019 
Q 384 1609 779 1909 
Q 1175 2209 1959 2209 
L 2766 2209 
L 2766 2266 
Q 2766 2663 2505 2880 
Q 2244 3097 1772 3097 
Q 1472 3097 1187 3025 
Q 903 2953 641 2809 
L 641 3341 
Q 956 3463 1253 3523 
Q 1550 3584 1831 3584 
Q 2591 3584 2966 3190 
Q 3341 2797 3341 1997 
z
" transform="scale(0.015625)"/>
      <path id="DejaVuSans-20" transform="scale(0.015625)"/>
      <path id="DejaVuSans-70" d="M 1159 525 
L 1159 -1331 
L 581 -1331 
L 581 3500 
L 1159 3500 
L 1159 2969 
Q 1341 3281 1617 3432 
Q 1894 3584 2278 3584 
Q 2916 3584 3314 3078 
Q 3713 2572 3713 1747 
Q 3713 922 3314 415 
Q 2916 -91 2278 -91 
Q 1894 -91 1617 61 
Q 1341 213 1159 525 
z
M 3116 1747 
Q 3116 2381 2855 2742 
Q 2594 3103 2138 3103 
Q 1681 3103 1420 2742 
Q 1159 2381 1159 1747 
Q 1159 1113 1420 752 
Q 1681 391 2138 391 
Q 2594 391 2855 752 
Q 3116 1113 3116 1747 
z
" transform="scale(0.015625)"/>
      <path id="DejaVuSans-64" d="M 2906 2969 
L 2906 4863 
L 3481 4863 
L 3481 0 
L 2906 0 
L 2906 525 
Q 2725 213 2448 61 
Q 2172 -91 1784 -91 
Q 1150 -91 751 415 
Q 353 922 353 1747 
Q 353 2572 751 3078 
Q 1150 3584 1784 3584 
Q 2172 3584 2448 3432 
Q 2725 3281 2906 2969 
z
M 947 1747 
Q 947 1113 1208 752 
Q 1469 391 1925 391 
Q 2381 391 2643 752 
Q 2906 1113 2906 1747 
Q 2906 2381 2643 2742 
Q 2381 3103 1925 3103 
Q 1469 3103 1208 2742 
Q 947 2381 947 1747 
z
" transform="scale(0.015625)"/>
      <path id="DejaVuSans-76" d="M 191 3500 
L 800 3500 
L 1894 563 
L 2988 3500 
L 3597 3500 
L 2284 0 
L 1503 0 
L 191 3500 
z
" transform="scale(0.015625)"/>
      <path id="DejaVuSans-45" d="M 628 4666 
L 3578 4666 
L 3578 4134 
L 1259 4134 
L 1259 2753 
L 3481 2753 
L 3481 2222 
L 1259 2222 
L 1259 531 
L 3634 531 
L 3634 0 
L 628 0 
L 628 4666 
z
" transform="scale(0.015625)"/>
      <path id="DejaVuSans-78" d="M 3513 3500 
L 2247 1797 
L 3578 0 
L 2900 0 
L 1881 1375 
L 863 0 
L 184 0 
L 1544 1831 
L 300 3500 
L 978 3500 
L 1906 2253 
L 2834 3500 
L 3513 3500 
z
" transform="scale(0.015625)"/>
     </defs>
     <use xlink:href="#DejaVuSans-41"/>
     <use xlink:href="#DejaVuSans-63" x="66.658203"/>
     <use xlink:href="#DejaVuSans-74" x="121.638672"/>
     <use xlink:href="#DejaVuSans-75" x="160.847656"/>
     <use xlink:href="#DejaVuSans-61" x="224.226562"/>
     <use xlink:href="#DejaVuSans-6c" x="285.505859"/>
     <use xlink:href="#DejaVuSans-20" x="313.289062"/>
     <use xlink:href="#DejaVuSans-73" x="345.076172"/>
     <use xlink:href="#DejaVuSans-70" x="397.175781"/>
     <use xlink:href="#DejaVuSans-65" x="460.652344"/>
     <use xlink:href="#DejaVuSans-65" x="522.175781"/>
     <use xlink:href="#DejaVuSans-64" x="583.699219"/>
     <use xlink:href="#DejaVuSans-20" x="647.175781"/>
     <use xlink:href="#DejaVuSans-76" x="678.962891"/>
     <use xlink:href="#DejaVuSans-73" x="738.142578"/>
     <use xlink:href="#DejaVuSans-20" x="790.242188"/>
     <use xlink:href="#DejaVuSans-45" x="822.029297"/>
     <use xlink:href="#DejaVuSans-78" x="885.212891"/>
     <use xlink:href="#DejaVuSans-70" x="944.392578"/>
     <use xlink:href="#DejaVuSans-65" x="1007.869141"/>
     <use xlink:href="#DejaVuSans-63" x="1069.392578"/>
     <use xlink:href="#DejaVuSans-74" x="1124.373047"/>
     <use xlink:href="#DejaVuSans-65" x="1163.582031"/>
     <use xlink:href="#DejaVuSans-64" x="1225.105469"/>
     <use xlink:href="#DejaVuSans-20" x="1288.582031"/>
     <use xlink:href="#DejaVuSans-73" x="1320.369141"/>
     <use xlink:href="#DejaVuSans-70" x="1372.46875"/>
     <use xlink:href="#DejaVuSans-65" x="1435.945312"/>
     <use xlink:href="#DejaVuSans-65" x="1497.46875"/>
     <use xlink:href="#DejaVuSans-64" x="1558.992188"/>
    </g>
   </g>
   <g id="legend_1">
    <g id="patch_7">
     <path d="M 295.67 302.584 
L 407.72 302.584 
Q 409.72 302.584 409.72 300.584 
L 409.72 272.22775 
Q 409.72 270.22775 407.72 270.22775 
L 295.67 270.22775 
Q 293.67 270.22775 293.67 272.22775 
L 293.67 300.584 
Q 293.67 302.584 295.67 302.584 
z
" style="fill: #ffffff; opacity: 0.8; stroke: #cccccc; stroke-linejoin: miter"/>
    </g>
    <g id="line2d_31">
     <path d="M 297.67 278.326187 
L 307.67 278.326187 
L 317.67 278.326187 
" style="fill: none; stroke: #1f77b4; stroke-width: 1.5; stroke-linecap: square"/>
    </g>
    <g id="text_18">
     <!-- Actual speed -->
     <g transform="translate(325.67 281.826187) scale(0.1 -0.1)">
      <use xlink:href="#DejaVuSans-41"/>
      <use xlink:href="#DejaVuSans-63" x="66.658203"/>
      <use xlink:href="#DejaVuSans-74" x="121.638672"/>
      <use xlink:href="#DejaVuSans-75" x="160.847656"/>
      <use xlink:href="#DejaVuSans-61" x="224.226562"/>
      <use xlink:href="#DejaVuSans-6c" x="285.505859"/>
      <use xlink:href="#DejaVuSans-20" x="313.289062"/>
      <use xlink:href="#DejaVuSans-73" x="345.076172"/>
      <use xlink:href="#DejaVuSans-70" x="397.175781"/>
      <use xlink:href="#DejaVuSans-65" x="460.652344"/>
      <use xlink:href="#DejaVuSans-65" x="522.175781"/>
      <use xlink:href="#DejaVuSans-64" x="583.699219"/>
     </g>
    </g>
    <g id="line2d_32">
     <path d="M 297.67 293.004312 
L 307.67 293.004312 
L 317.67 293.004312 
" style="fill: none; stroke: #ff7f0e; stroke-width: 1.5; stroke-linecap: square"/>
    </g>
    <g id="text_19">
     <!-- Expected speed -->
     <g transform="translate(325.67 296.504312) scale(0.1 -0.1)">
      <use xlink:href="#DejaVuSans-45"/>
      <use xlink:href="#DejaVuSans-78" x="63.183594"/>
      <use xlink:href="#DejaVuSans-70" x="122.363281"/>
      <use xlink:href="#DejaVuSans-65" x="185.839844"/>
      <use xlink:href="#DejaVuSans-63" x="247.363281"/>
      <use xlink:href="#DejaVuSans-74" x="302.34375"/>
      <use xlink:href="#DejaVuSans-65" x="341.552734"/>
      <use xlink:href="#DejaVuSans-64" x="403.076172"/>
      <use xlink:href="#DejaVuSans-20" x="466.552734"/>
      <use xlink:href="#DejaVuSans-73" x="498.339844"/>
      <use xlink:href="#DejaVuSans-70" x="550.439453"/>
      <use xlink:href="#DejaVuSans-65" x="613.916016"/>
      <use xlink:href="#DejaVuSans-65" x="675.439453"/>
      <use xlink:href="#DejaVuSans-64" x="736.962891"/>
     </g>
    </g>
   </g>
  </g>
 </g>
 <defs>
  <clipPath id="pc63d193b2b">
   <rect x="57.6" y="41.472" width="357.12" height="266.112"/>
  </clipPath>
 </defs>
</svg>
