<?xml version="1.0" encoding="utf-8" standalone="no"?>
<!DOCTYPE svg PUBLIC "-//W3C//DTD SVG 1.1//EN"
  "http://www.w3.org/Graphics/SVG/1.1/DTD/svg11.dtd">
<svg xmlns:xlink="http://www.w3.org/1999/xlink" width="460.8pt" height="345.6pt" viewBox="0 0 460.8 345.6" xmlns="http://www.w3.org/2000/svg" version="1.1">
 <metadata>
  <rdf:RDF xmlns:dc="http://purl.org/dc/elements/1.1/" xmlns:cc="http://creativecommons.org/ns#" xmlns:rdf="http://www.w3.org/1999/02/22-rdf-syntax-ns#">
   <cc:Work>
    <dc:type rdf:resource="http://purl.org/dc/dcmitype/StillImage"/>
    <dc:date>2024-01-30T20:58:13.057808</dc:date>
    <dc:format>image/svg+xml</dc:format>
    <dc:creator>
     <cc:Agent>
      <dc:title>Matplotlib v3.7.1, https://matplotlib.org/</dc:title>
     </cc:Agent>
    </dc:creator>
   </cc:Work>
  </rdf:RDF>
 </metadata>
 <defs>
  <style type="text/css">*{stroke-linejoin: round; stroke-linecap: butt}</style>
 </defs>
 <g id="figure_1">
  <g id="patch_1">
   <path d="M 0 345.6 
L 460.8 345.6 
L 460.8 0 
L 0 0 
z
" style="fill: #ffffff"/>
  </g>
  <g id="axes_1">
   <g id="patch_2">
    <path d="M 57.6 307.584 
L 414.72 307.584 
L 414.72 41.472 
L 57.6 41.472 
z
" style="fill: #ffffff"/>
   </g>
   <g id="matplotlib.axis_1">
    <g id="xtick_1">
     <g id="line2d_1">
      <path d="M 73.832727 307.584 
L 73.832727 41.472 
" clip-path="url(#pab522b56bf)" style="fill: none; stroke: #b0b0b0; stroke-width: 0.8; stroke-linecap: square"/>
     </g>
     <g id="line2d_2">
      <defs>
       <path id="m8caba5ccd8" d="M 0 0 
L 0 3.5 
" style="stroke: #000000; stroke-width: 0.8"/>
      </defs>
      <g>
       <use xlink:href="#m8caba5ccd8" x="73.832727" y="307.584" style="stroke: #000000; stroke-width: 0.8"/>
      </g>
     </g>
     <g id="text_1">
      <!-- 0 -->
      <g transform="translate(70.651477 322.182437) scale(0.1 -0.1)">
       <defs>
        <path id="DejaVuSans-30" d="M 2034 4250 
Q 1547 4250 1301 3770 
Q 1056 3291 1056 2328 
Q 1056 1369 1301 889 
Q 1547 409 2034 409 
Q 2525 409 2770 889 
Q 3016 1369 3016 2328 
Q 3016 3291 2770 3770 
Q 2525 4250 2034 4250 
z
M 2034 4750 
Q 2819 4750 3233 4129 
Q 3647 3509 3647 2328 
Q 3647 1150 3233 529 
Q 2819 -91 2034 -91 
Q 1250 -91 836 529 
Q 422 1150 422 2328 
Q 422 3509 836 4129 
Q 1250 4750 2034 4750 
z
" transform="scale(0.015625)"/>
       </defs>
       <use xlink:href="#DejaVuSans-30"/>
      </g>
     </g>
    </g>
    <g id="xtick_2">
     <g id="line2d_3">
      <path d="M 115.295632 307.584 
L 115.295632 41.472 
" clip-path="url(#pab522b56bf)" style="fill: none; stroke: #b0b0b0; stroke-width: 0.8; stroke-linecap: square"/>
     </g>
     <g id="line2d_4">
      <g>
       <use xlink:href="#m8caba5ccd8" x="115.295632" y="307.584" style="stroke: #000000; stroke-width: 0.8"/>
      </g>
     </g>
     <g id="text_2">
      <!-- 2 -->
      <g transform="translate(112.114382 322.182437) scale(0.1 -0.1)">
       <defs>
        <path id="DejaVuSans-32" d="M 1228 531 
L 3431 531 
L 3431 0 
L 469 0 
L 469 531 
Q 828 903 1448 1529 
Q 2069 2156 2228 2338 
Q 2531 2678 2651 2914 
Q 2772 3150 2772 3378 
Q 2772 3750 2511 3984 
Q 2250 4219 1831 4219 
Q 1534 4219 1204 4116 
Q 875 4013 500 3803 
L 500 4441 
Q 881 4594 1212 4672 
Q 1544 4750 1819 4750 
Q 2544 4750 2975 4387 
Q 3406 4025 3406 3419 
Q 3406 3131 3298 2873 
Q 3191 2616 2906 2266 
Q 2828 2175 2409 1742 
Q 1991 1309 1228 531 
z
" transform="scale(0.015625)"/>
       </defs>
       <use xlink:href="#DejaVuSans-32"/>
      </g>
     </g>
    </g>
    <g id="xtick_3">
     <g id="line2d_5">
      <path d="M 156.758537 307.584 
L 156.758537 41.472 
" clip-path="url(#pab522b56bf)" style="fill: none; stroke: #b0b0b0; stroke-width: 0.8; stroke-linecap: square"/>
     </g>
     <g id="line2d_6">
      <g>
       <use xlink:href="#m8caba5ccd8" x="156.758537" y="307.584" style="stroke: #000000; stroke-width: 0.8"/>
      </g>
     </g>
     <g id="text_3">
      <!-- 4 -->
      <g transform="translate(153.577287 322.182437) scale(0.1 -0.1)">
       <defs>
        <path id="DejaVuSans-34" d="M 2419 4116 
L 825 1625 
L 2419 1625 
L 2419 4116 
z
M 2253 4666 
L 3047 4666 
L 3047 1625 
L 3713 1625 
L 3713 1100 
L 3047 1100 
L 3047 0 
L 2419 0 
L 2419 1100 
L 313 1100 
L 313 1709 
L 2253 4666 
z
" transform="scale(0.015625)"/>
       </defs>
       <use xlink:href="#DejaVuSans-34"/>
      </g>
     </g>
    </g>
    <g id="xtick_4">
     <g id="line2d_7">
      <path d="M 198.221442 307.584 
L 198.221442 41.472 
" clip-path="url(#pab522b56bf)" style="fill: none; stroke: #b0b0b0; stroke-width: 0.8; stroke-linecap: square"/>
     </g>
     <g id="line2d_8">
      <g>
       <use xlink:href="#m8caba5ccd8" x="198.221442" y="307.584" style="stroke: #000000; stroke-width: 0.8"/>
      </g>
     </g>
     <g id="text_4">
      <!-- 6 -->
      <g transform="translate(195.040192 322.182437) scale(0.1 -0.1)">
       <defs>
        <path id="DejaVuSans-36" d="M 2113 2584 
Q 1688 2584 1439 2293 
Q 1191 2003 1191 1497 
Q 1191 994 1439 701 
Q 1688 409 2113 409 
Q 2538 409 2786 701 
Q 3034 994 3034 1497 
Q 3034 2003 2786 2293 
Q 2538 2584 2113 2584 
z
M 3366 4563 
L 3366 3988 
Q 3128 4100 2886 4159 
Q 2644 4219 2406 4219 
Q 1781 4219 1451 3797 
Q 1122 3375 1075 2522 
Q 1259 2794 1537 2939 
Q 1816 3084 2150 3084 
Q 2853 3084 3261 2657 
Q 3669 2231 3669 1497 
Q 3669 778 3244 343 
Q 2819 -91 2113 -91 
Q 1303 -91 875 529 
Q 447 1150 447 2328 
Q 447 3434 972 4092 
Q 1497 4750 2381 4750 
Q 2619 4750 2861 4703 
Q 3103 4656 3366 4563 
z
" transform="scale(0.015625)"/>
       </defs>
       <use xlink:href="#DejaVuSans-36"/>
      </g>
     </g>
    </g>
    <g id="xtick_5">
     <g id="line2d_9">
      <path d="M 239.684347 307.584 
L 239.684347 41.472 
" clip-path="url(#pab522b56bf)" style="fill: none; stroke: #b0b0b0; stroke-width: 0.8; stroke-linecap: square"/>
     </g>
     <g id="line2d_10">
      <g>
       <use xlink:href="#m8caba5ccd8" x="239.684347" y="307.584" style="stroke: #000000; stroke-width: 0.8"/>
      </g>
     </g>
     <g id="text_5">
      <!-- 8 -->
      <g transform="translate(236.503097 322.182437) scale(0.1 -0.1)">
       <defs>
        <path id="DejaVuSans-38" d="M 2034 2216 
Q 1584 2216 1326 1975 
Q 1069 1734 1069 1313 
Q 1069 891 1326 650 
Q 1584 409 2034 409 
Q 2484 409 2743 651 
Q 3003 894 3003 1313 
Q 3003 1734 2745 1975 
Q 2488 2216 2034 2216 
z
M 1403 2484 
Q 997 2584 770 2862 
Q 544 3141 544 3541 
Q 544 4100 942 4425 
Q 1341 4750 2034 4750 
Q 2731 4750 3128 4425 
Q 3525 4100 3525 3541 
Q 3525 3141 3298 2862 
Q 3072 2584 2669 2484 
Q 3125 2378 3379 2068 
Q 3634 1759 3634 1313 
Q 3634 634 3220 271 
Q 2806 -91 2034 -91 
Q 1263 -91 848 271 
Q 434 634 434 1313 
Q 434 1759 690 2068 
Q 947 2378 1403 2484 
z
M 1172 3481 
Q 1172 3119 1398 2916 
Q 1625 2713 2034 2713 
Q 2441 2713 2670 2916 
Q 2900 3119 2900 3481 
Q 2900 3844 2670 4047 
Q 2441 4250 2034 4250 
Q 1625 4250 1398 4047 
Q 1172 3844 1172 3481 
z
" transform="scale(0.015625)"/>
       </defs>
       <use xlink:href="#DejaVuSans-38"/>
      </g>
     </g>
    </g>
    <g id="xtick_6">
     <g id="line2d_11">
      <path d="M 281.147252 307.584 
L 281.147252 41.472 
" clip-path="url(#pab522b56bf)" style="fill: none; stroke: #b0b0b0; stroke-width: 0.8; stroke-linecap: square"/>
     </g>
     <g id="line2d_12">
      <g>
       <use xlink:href="#m8caba5ccd8" x="281.147252" y="307.584" style="stroke: #000000; stroke-width: 0.8"/>
      </g>
     </g>
     <g id="text_6">
      <!-- 10 -->
      <g transform="translate(274.784752 322.182437) scale(0.1 -0.1)">
       <defs>
        <path id="DejaVuSans-31" d="M 794 531 
L 1825 531 
L 1825 4091 
L 703 3866 
L 703 4441 
L 1819 4666 
L 2450 4666 
L 2450 531 
L 3481 531 
L 3481 0 
L 794 0 
L 794 531 
z
" transform="scale(0.015625)"/>
       </defs>
       <use xlink:href="#DejaVuSans-31"/>
       <use xlink:href="#DejaVuSans-30" x="63.623047"/>
      </g>
     </g>
    </g>
    <g id="xtick_7">
     <g id="line2d_13">
      <path d="M 322.610157 307.584 
L 322.610157 41.472 
" clip-path="url(#pab522b56bf)" style="fill: none; stroke: #b0b0b0; stroke-width: 0.8; stroke-linecap: square"/>
     </g>
     <g id="line2d_14">
      <g>
       <use xlink:href="#m8caba5ccd8" x="322.610157" y="307.584" style="stroke: #000000; stroke-width: 0.8"/>
      </g>
     </g>
     <g id="text_7">
      <!-- 12 -->
      <g transform="translate(316.247657 322.182437) scale(0.1 -0.1)">
       <use xlink:href="#DejaVuSans-31"/>
       <use xlink:href="#DejaVuSans-32" x="63.623047"/>
      </g>
     </g>
    </g>
    <g id="xtick_8">
     <g id="line2d_15">
      <path d="M 364.073062 307.584 
L 364.073062 41.472 
" clip-path="url(#pab522b56bf)" style="fill: none; stroke: #b0b0b0; stroke-width: 0.8; stroke-linecap: square"/>
     </g>
     <g id="line2d_16">
      <g>
       <use xlink:href="#m8caba5ccd8" x="364.073062" y="307.584" style="stroke: #000000; stroke-width: 0.8"/>
      </g>
     </g>
     <g id="text_8">
      <!-- 14 -->
      <g transform="translate(357.710562 322.182437) scale(0.1 -0.1)">
       <use xlink:href="#DejaVuSans-31"/>
       <use xlink:href="#DejaVuSans-34" x="63.623047"/>
      </g>
     </g>
    </g>
    <g id="xtick_9">
     <g id="line2d_17">
      <path d="M 405.535967 307.584 
L 405.535967 41.472 
" clip-path="url(#pab522b56bf)" style="fill: none; stroke: #b0b0b0; stroke-width: 0.8; stroke-linecap: square"/>
     </g>
     <g id="line2d_18">
      <g>
       <use xlink:href="#m8caba5ccd8" x="405.535967" y="307.584" style="stroke: #000000; stroke-width: 0.8"/>
      </g>
     </g>
     <g id="text_9">
      <!-- 16 -->
      <g transform="translate(399.173467 322.182437) scale(0.1 -0.1)">
       <use xlink:href="#DejaVuSans-31"/>
       <use xlink:href="#DejaVuSans-36" x="63.623047"/>
      </g>
     </g>
    </g>
    <g id="text_10">
     <!-- Time(s) -->
     <g transform="translate(217.420156 335.860562) scale(0.1 -0.1)">
      <defs>
       <path id="DejaVuSans-54" d="M -19 4666 
L 3928 4666 
L 3928 4134 
L 2272 4134 
L 2272 0 
L 1638 0 
L 1638 4134 
L -19 4134 
L -19 4666 
z
" transform="scale(0.015625)"/>
       <path id="DejaVuSans-69" d="M 603 3500 
L 1178 3500 
L 1178 0 
L 603 0 
L 603 3500 
z
M 603 4863 
L 1178 4863 
L 1178 4134 
L 603 4134 
L 603 4863 
z
" transform="scale(0.015625)"/>
       <path id="DejaVuSans-6d" d="M 3328 2828 
Q 3544 3216 3844 3400 
Q 4144 3584 4550 3584 
Q 5097 3584 5394 3201 
Q 5691 2819 5691 2113 
L 5691 0 
L 5113 0 
L 5113 2094 
Q 5113 2597 4934 2840 
Q 4756 3084 4391 3084 
Q 3944 3084 3684 2787 
Q 3425 2491 3425 1978 
L 3425 0 
L 2847 0 
L 2847 2094 
Q 2847 2600 2669 2842 
Q 2491 3084 2119 3084 
Q 1678 3084 1418 2786 
Q 1159 2488 1159 1978 
L 1159 0 
L 581 0 
L 581 3500 
L 1159 3500 
L 1159 2956 
Q 1356 3278 1631 3431 
Q 1906 3584 2284 3584 
Q 2666 3584 2933 3390 
Q 3200 3197 3328 2828 
z
" transform="scale(0.015625)"/>
       <path id="DejaVuSans-65" d="M 3597 1894 
L 3597 1613 
L 953 1613 
Q 991 1019 1311 708 
Q 1631 397 2203 397 
Q 2534 397 2845 478 
Q 3156 559 3463 722 
L 3463 178 
Q 3153 47 2828 -22 
Q 2503 -91 2169 -91 
Q 1331 -91 842 396 
Q 353 884 353 1716 
Q 353 2575 817 3079 
Q 1281 3584 2069 3584 
Q 2775 3584 3186 3129 
Q 3597 2675 3597 1894 
z
M 3022 2063 
Q 3016 2534 2758 2815 
Q 2500 3097 2075 3097 
Q 1594 3097 1305 2825 
Q 1016 2553 972 2059 
L 3022 2063 
z
" transform="scale(0.015625)"/>
       <path id="DejaVuSans-28" d="M 1984 4856 
Q 1566 4138 1362 3434 
Q 1159 2731 1159 2009 
Q 1159 1288 1364 580 
Q 1569 -128 1984 -844 
L 1484 -844 
Q 1016 -109 783 600 
Q 550 1309 550 2009 
Q 550 2706 781 3412 
Q 1013 4119 1484 4856 
L 1984 4856 
z
" transform="scale(0.015625)"/>
       <path id="DejaVuSans-73" d="M 2834 3397 
L 2834 2853 
Q 2591 2978 2328 3040 
Q 2066 3103 1784 3103 
Q 1356 3103 1142 2972 
Q 928 2841 928 2578 
Q 928 2378 1081 2264 
Q 1234 2150 1697 2047 
L 1894 2003 
Q 2506 1872 2764 1633 
Q 3022 1394 3022 966 
Q 3022 478 2636 193 
Q 2250 -91 1575 -91 
Q 1294 -91 989 -36 
Q 684 19 347 128 
L 347 722 
Q 666 556 975 473 
Q 1284 391 1588 391 
Q 1994 391 2212 530 
Q 2431 669 2431 922 
Q 2431 1156 2273 1281 
Q 2116 1406 1581 1522 
L 1381 1569 
Q 847 1681 609 1914 
Q 372 2147 372 2553 
Q 372 3047 722 3315 
Q 1072 3584 1716 3584 
Q 2034 3584 2315 3537 
Q 2597 3491 2834 3397 
z
" transform="scale(0.015625)"/>
       <path id="DejaVuSans-29" d="M 513 4856 
L 1013 4856 
Q 1481 4119 1714 3412 
Q 1947 2706 1947 2009 
Q 1947 1309 1714 600 
Q 1481 -109 1013 -844 
L 513 -844 
Q 928 -128 1133 580 
Q 1338 1288 1338 2009 
Q 1338 2731 1133 3434 
Q 928 4138 513 4856 
z
" transform="scale(0.015625)"/>
      </defs>
      <use xlink:href="#DejaVuSans-54"/>
      <use xlink:href="#DejaVuSans-69" x="57.958984"/>
      <use xlink:href="#DejaVuSans-6d" x="85.742188"/>
      <use xlink:href="#DejaVuSans-65" x="183.154297"/>
      <use xlink:href="#DejaVuSans-28" x="244.677734"/>
      <use xlink:href="#DejaVuSans-73" x="283.691406"/>
      <use xlink:href="#DejaVuSans-29" x="335.791016"/>
     </g>
    </g>
   </g>
   <g id="matplotlib.axis_2">
    <g id="ytick_1">
     <g id="line2d_19">
      <path d="M 57.6 295.587099 
L 414.72 295.587099 
" clip-path="url(#pab522b56bf)" style="fill: none; stroke: #b0b0b0; stroke-width: 0.8; stroke-linecap: square"/>
     </g>
     <g id="line2d_20">
      <defs>
       <path id="m8bd2cd89b4" d="M 0 0 
L -3.5 0 
" style="stroke: #000000; stroke-width: 0.8"/>
      </defs>
      <g>
       <use xlink:href="#m8bd2cd89b4" x="57.6" y="295.587099" style="stroke: #000000; stroke-width: 0.8"/>
      </g>
     </g>
     <g id="text_11">
      <!-- 0 -->
      <g transform="translate(44.2375 299.386317) scale(0.1 -0.1)">
       <use xlink:href="#DejaVuSans-30"/>
      </g>
     </g>
    </g>
    <g id="ytick_2">
     <g id="line2d_21">
      <path d="M 57.6 265.364915 
L 414.72 265.364915 
" clip-path="url(#pab522b56bf)" style="fill: none; stroke: #b0b0b0; stroke-width: 0.8; stroke-linecap: square"/>
     </g>
     <g id="line2d_22">
      <g>
       <use xlink:href="#m8bd2cd89b4" x="57.6" y="265.364915" style="stroke: #000000; stroke-width: 0.8"/>
      </g>
     </g>
     <g id="text_12">
      <!-- 1 -->
      <g transform="translate(44.2375 269.164133) scale(0.1 -0.1)">
       <use xlink:href="#DejaVuSans-31"/>
      </g>
     </g>
    </g>
    <g id="ytick_3">
     <g id="line2d_23">
      <path d="M 57.6 235.14273 
L 414.72 235.14273 
" clip-path="url(#pab522b56bf)" style="fill: none; stroke: #b0b0b0; stroke-width: 0.8; stroke-linecap: square"/>
     </g>
     <g id="line2d_24">
      <g>
       <use xlink:href="#m8bd2cd89b4" x="57.6" y="235.14273" style="stroke: #000000; stroke-width: 0.8"/>
      </g>
     </g>
     <g id="text_13">
      <!-- 2 -->
      <g transform="translate(44.2375 238.941949) scale(0.1 -0.1)">
       <use xlink:href="#DejaVuSans-32"/>
      </g>
     </g>
    </g>
    <g id="ytick_4">
     <g id="line2d_25">
      <path d="M 57.6 204.920546 
L 414.72 204.920546 
" clip-path="url(#pab522b56bf)" style="fill: none; stroke: #b0b0b0; stroke-width: 0.8; stroke-linecap: square"/>
     </g>
     <g id="line2d_26">
      <g>
       <use xlink:href="#m8bd2cd89b4" x="57.6" y="204.920546" style="stroke: #000000; stroke-width: 0.8"/>
      </g>
     </g>
     <g id="text_14">
      <!-- 3 -->
      <g transform="translate(44.2375 208.719765) scale(0.1 -0.1)">
       <defs>
        <path id="DejaVuSans-33" d="M 2597 2516 
Q 3050 2419 3304 2112 
Q 3559 1806 3559 1356 
Q 3559 666 3084 287 
Q 2609 -91 1734 -91 
Q 1441 -91 1130 -33 
Q 819 25 488 141 
L 488 750 
Q 750 597 1062 519 
Q 1375 441 1716 441 
Q 2309 441 2620 675 
Q 2931 909 2931 1356 
Q 2931 1769 2642 2001 
Q 2353 2234 1838 2234 
L 1294 2234 
L 1294 2753 
L 1863 2753 
Q 2328 2753 2575 2939 
Q 2822 3125 2822 3475 
Q 2822 3834 2567 4026 
Q 2313 4219 1838 4219 
Q 1578 4219 1281 4162 
Q 984 4106 628 3988 
L 628 4550 
Q 988 4650 1302 4700 
Q 1616 4750 1894 4750 
Q 2613 4750 3031 4423 
Q 3450 4097 3450 3541 
Q 3450 3153 3228 2886 
Q 3006 2619 2597 2516 
z
" transform="scale(0.015625)"/>
       </defs>
       <use xlink:href="#DejaVuSans-33"/>
      </g>
     </g>
    </g>
    <g id="ytick_5">
     <g id="line2d_27">
      <path d="M 57.6 174.698362 
L 414.72 174.698362 
" clip-path="url(#pab522b56bf)" style="fill: none; stroke: #b0b0b0; stroke-width: 0.8; stroke-linecap: square"/>
     </g>
     <g id="line2d_28">
      <g>
       <use xlink:href="#m8bd2cd89b4" x="57.6" y="174.698362" style="stroke: #000000; stroke-width: 0.8"/>
      </g>
     </g>
     <g id="text_15">
      <!-- 4 -->
      <g transform="translate(44.2375 178.497581) scale(0.1 -0.1)">
       <use xlink:href="#DejaVuSans-34"/>
      </g>
     </g>
    </g>
    <g id="ytick_6">
     <g id="line2d_29">
      <path d="M 57.6 144.476178 
L 414.72 144.476178 
" clip-path="url(#pab522b56bf)" style="fill: none; stroke: #b0b0b0; stroke-width: 0.8; stroke-linecap: square"/>
     </g>
     <g id="line2d_30">
      <g>
       <use xlink:href="#m8bd2cd89b4" x="57.6" y="144.476178" style="stroke: #000000; stroke-width: 0.8"/>
      </g>
     </g>
     <g id="text_16">
      <!-- 5 -->
      <g transform="translate(44.2375 148.275397) scale(0.1 -0.1)">
       <defs>
        <path id="DejaVuSans-35" d="M 691 4666 
L 3169 4666 
L 3169 4134 
L 1269 4134 
L 1269 2991 
Q 1406 3038 1543 3061 
Q 1681 3084 1819 3084 
Q 2600 3084 3056 2656 
Q 3513 2228 3513 1497 
Q 3513 744 3044 326 
Q 2575 -91 1722 -91 
Q 1428 -91 1123 -41 
Q 819 9 494 109 
L 494 744 
Q 775 591 1075 516 
Q 1375 441 1709 441 
Q 2250 441 2565 725 
Q 2881 1009 2881 1497 
Q 2881 1984 2565 2268 
Q 2250 2553 1709 2553 
Q 1456 2553 1204 2497 
Q 953 2441 691 2322 
L 691 4666 
z
" transform="scale(0.015625)"/>
       </defs>
       <use xlink:href="#DejaVuSans-35"/>
      </g>
     </g>
    </g>
    <g id="ytick_7">
     <g id="line2d_31">
      <path d="M 57.6 114.253994 
L 414.72 114.253994 
" clip-path="url(#pab522b56bf)" style="fill: none; stroke: #b0b0b0; stroke-width: 0.8; stroke-linecap: square"/>
     </g>
     <g id="line2d_32">
      <g>
       <use xlink:href="#m8bd2cd89b4" x="57.6" y="114.253994" style="stroke: #000000; stroke-width: 0.8"/>
      </g>
     </g>
     <g id="text_17">
      <!-- 6 -->
      <g transform="translate(44.2375 118.053213) scale(0.1 -0.1)">
       <use xlink:href="#DejaVuSans-36"/>
      </g>
     </g>
    </g>
    <g id="ytick_8">
     <g id="line2d_33">
      <path d="M 57.6 84.03181 
L 414.72 84.03181 
" clip-path="url(#pab522b56bf)" style="fill: none; stroke: #b0b0b0; stroke-width: 0.8; stroke-linecap: square"/>
     </g>
     <g id="line2d_34">
      <g>
       <use xlink:href="#m8bd2cd89b4" x="57.6" y="84.03181" style="stroke: #000000; stroke-width: 0.8"/>
      </g>
     </g>
     <g id="text_18">
      <!-- 7 -->
      <g transform="translate(44.2375 87.831029) scale(0.1 -0.1)">
       <defs>
        <path id="DejaVuSans-37" d="M 525 4666 
L 3525 4666 
L 3525 4397 
L 1831 0 
L 1172 0 
L 2766 4134 
L 525 4134 
L 525 4666 
z
" transform="scale(0.015625)"/>
       </defs>
       <use xlink:href="#DejaVuSans-37"/>
      </g>
     </g>
    </g>
    <g id="ytick_9">
     <g id="line2d_35">
      <path d="M 57.6 53.809626 
L 414.72 53.809626 
" clip-path="url(#pab522b56bf)" style="fill: none; stroke: #b0b0b0; stroke-width: 0.8; stroke-linecap: square"/>
     </g>
     <g id="line2d_36">
      <g>
       <use xlink:href="#m8bd2cd89b4" x="57.6" y="53.809626" style="stroke: #000000; stroke-width: 0.8"/>
      </g>
     </g>
     <g id="text_19">
      <!-- 8 -->
      <g transform="translate(44.2375 57.608845) scale(0.1 -0.1)">
       <use xlink:href="#DejaVuSans-38"/>
      </g>
     </g>
    </g>
    <g id="text_20">
     <!-- Velocity(m/s) -->
     <g transform="translate(38.157812 207.204563) rotate(-90) scale(0.1 -0.1)">
      <defs>
       <path id="DejaVuSans-56" d="M 1831 0 
L 50 4666 
L 709 4666 
L 2188 738 
L 3669 4666 
L 4325 4666 
L 2547 0 
L 1831 0 
z
" transform="scale(0.015625)"/>
       <path id="DejaVuSans-6c" d="M 603 4863 
L 1178 4863 
L 1178 0 
L 603 0 
L 603 4863 
z
" transform="scale(0.015625)"/>
       <path id="DejaVuSans-6f" d="M 1959 3097 
Q 1497 3097 1228 2736 
Q 959 2375 959 1747 
Q 959 1119 1226 758 
Q 1494 397 1959 397 
Q 2419 397 2687 759 
Q 2956 1122 2956 1747 
Q 2956 2369 2687 2733 
Q 2419 3097 1959 3097 
z
M 1959 3584 
Q 2709 3584 3137 3096 
Q 3566 2609 3566 1747 
Q 3566 888 3137 398 
Q 2709 -91 1959 -91 
Q 1206 -91 779 398 
Q 353 888 353 1747 
Q 353 2609 779 3096 
Q 1206 3584 1959 3584 
z
" transform="scale(0.015625)"/>
       <path id="DejaVuSans-63" d="M 3122 3366 
L 3122 2828 
Q 2878 2963 2633 3030 
Q 2388 3097 2138 3097 
Q 1578 3097 1268 2742 
Q 959 2388 959 1747 
Q 959 1106 1268 751 
Q 1578 397 2138 397 
Q 2388 397 2633 464 
Q 2878 531 3122 666 
L 3122 134 
Q 2881 22 2623 -34 
Q 2366 -91 2075 -91 
Q 1284 -91 818 406 
Q 353 903 353 1747 
Q 353 2603 823 3093 
Q 1294 3584 2113 3584 
Q 2378 3584 2631 3529 
Q 2884 3475 3122 3366 
z
" transform="scale(0.015625)"/>
       <path id="DejaVuSans-74" d="M 1172 4494 
L 1172 3500 
L 2356 3500 
L 2356 3053 
L 1172 3053 
L 1172 1153 
Q 1172 725 1289 603 
Q 1406 481 1766 481 
L 2356 481 
L 2356 0 
L 1766 0 
Q 1100 0 847 248 
Q 594 497 594 1153 
L 594 3053 
L 172 3053 
L 172 3500 
L 594 3500 
L 594 4494 
L 1172 4494 
z
" transform="scale(0.015625)"/>
       <path id="DejaVuSans-79" d="M 2059 -325 
Q 1816 -950 1584 -1140 
Q 1353 -1331 966 -1331 
L 506 -1331 
L 506 -850 
L 844 -850 
Q 1081 -850 1212 -737 
Q 1344 -625 1503 -206 
L 1606 56 
L 191 3500 
L 800 3500 
L 1894 763 
L 2988 3500 
L 3597 3500 
L 2059 -325 
z
" transform="scale(0.015625)"/>
       <path id="DejaVuSans-2f" d="M 1625 4666 
L 2156 4666 
L 531 -594 
L 0 -594 
L 1625 4666 
z
" transform="scale(0.015625)"/>
      </defs>
      <use xlink:href="#DejaVuSans-56"/>
      <use xlink:href="#DejaVuSans-65" x="60.658203"/>
      <use xlink:href="#DejaVuSans-6c" x="122.181641"/>
      <use xlink:href="#DejaVuSans-6f" x="149.964844"/>
      <use xlink:href="#DejaVuSans-63" x="211.146484"/>
      <use xlink:href="#DejaVuSans-69" x="266.126953"/>
      <use xlink:href="#DejaVuSans-74" x="293.910156"/>
      <use xlink:href="#DejaVuSans-79" x="333.119141"/>
      <use xlink:href="#DejaVuSans-28" x="392.298828"/>
      <use xlink:href="#DejaVuSans-6d" x="431.3125"/>
      <use xlink:href="#DejaVuSans-2f" x="528.724609"/>
      <use xlink:href="#DejaVuSans-73" x="562.416016"/>
      <use xlink:href="#DejaVuSans-29" x="614.515625"/>
     </g>
    </g>
   </g>
   <g id="line2d_37">
    <path d="M 73.832727 295.488 
L 73.832727 295.406128 
L 74.247356 294.752483 
L 74.661985 293.323034 
L 74.661985 292.883603 
L 75.491243 290.339893 
L 75.491243 290.42521 
L 80.052163 274.102752 
L 80.052163 274.138203 
L 80.881421 270.724849 
L 81.29605 269.623432 
L 81.29605 269.276904 
L 82.125308 266.535661 
L 82.125308 266.587372 
L 82.954566 263.344622 
L 82.954566 263.368165 
L 84.198454 258.869774 
L 84.198454 258.940645 
L 85.442341 254.218429 
L 86.271599 251.229787 
L 86.271599 251.058307 
L 88.344744 243.17346 
L 88.344744 243.193104 
L 96.637325 211.446241 
L 97.051954 209.523476 
L 97.051954 209.802971 
L 99.539728 199.975835 
L 99.539728 199.873321 
L 99.954357 198.199828 
L 99.954357 198.333682 
L 100.368986 196.989308 
L 100.368986 196.544015 
L 104.515277 179.863152 
L 109.905455 157.515661 
L 109.905455 157.657947 
L 111.563971 150.428166 
L 111.563971 150.841152 
L 112.807858 145.280693 
L 112.807858 145.488561 
L 114.466374 138.267998 
L 117.368777 125.470837 
L 117.368777 125.818332 
L 117.783406 123.595611 
L 117.783406 123.896836 
L 124.002842 96.172303 
L 129.807649 70.143478 
L 129.807649 70.27706 
L 130.636907 66.995898 
L 130.636907 67.175538 
L 132.295423 62.751524 
L 132.710052 62.131063 
L 133.53931 60.483984 
L 133.53931 60.824105 
L 134.368568 60.154351 
L 134.368568 59.951016 
L 134.783197 59.937174 
L 134.783197 59.795221 
L 135.197827 60.180251 
L 135.197827 59.931885 
L 135.612456 60.947411 
L 136.027085 62.184466 
L 136.027085 62.037948 
L 136.441714 62.975864 
L 136.441714 62.897346 
L 137.270972 65.854678 
L 137.270972 65.7829 
L 138.929488 75.513083 
L 139.344117 79.630675 
L 139.758746 81.906103 
L 139.758746 81.798784 
L 140.173375 85.019411 
L 140.588004 89.224344 
L 140.588004 89.019408 
L 141.002633 91.719699 
L 141.417262 95.028726 
L 141.831891 98.934823 
L 141.831891 98.76168 
L 143.075778 107.565432 
L 143.075778 107.769643 
L 143.905037 112.320863 
L 143.905037 112.130493 
L 144.319666 115.53469 
L 145.148924 119.563095 
L 145.148924 119.789883 
L 145.563553 121.259013 
L 146.392811 124.617393 
L 146.392811 124.26884 
L 147.636698 129.349492 
L 147.636698 129.11394 
L 148.051327 130.762016 
L 148.051327 130.723181 
L 148.880585 132.875423 
L 148.880585 132.853452 
L 149.295214 133.623815 
L 149.295214 133.929815 
L 151.368359 137.325942 
L 151.368359 137.291972 
L 152.612247 138.720333 
L 152.612247 138.518751 
L 153.856134 139.321271 
L 153.856134 139.640115 
L 154.270763 139.390873 
L 154.270763 139.438412 
L 155.100021 139.502786 
L 155.51465 139.703008 
L 155.929279 139.55507 
L 155.929279 139.643107 
L 156.343908 139.552562 
L 156.343908 139.646825 
L 157.173166 139.614426 
L 157.173166 139.652083 
L 157.587795 139.773274 
L 158.002424 139.631381 
L 158.002424 139.468544 
L 158.417053 139.746679 
L 158.417053 139.524908 
L 158.831682 139.477339 
L 158.831682 139.664112 
L 159.66094 139.765023 
L 159.66094 139.464343 
L 160.490199 139.393774 
L 161.319457 138.777514 
L 161.319457 138.730186 
L 161.734086 138.756963 
L 161.734086 138.616701 
L 162.148715 138.399857 
L 162.148715 138.223964 
L 162.563344 137.883874 
L 162.563344 137.976142 
L 162.977973 137.368223 
L 162.977973 137.702118 
L 163.392602 137.318356 
L 163.392602 137.063462 
L 163.807231 136.249216 
L 163.807231 136.357472 
L 164.22186 135.913871 
L 164.636489 135.245024 
L 164.636489 134.917567 
L 165.051118 134.287071 
L 165.880376 132.534064 
L 167.538892 127.282325 
L 171.685183 109.219825 
L 171.685183 108.982974 
L 173.758328 100.854596 
L 175.002215 97.554727 
L 175.002215 97.788405 
L 176.660731 94.551639 
L 177.48999 93.166042 
L 177.48999 93.344414 
L 177.904619 92.749671 
L 178.319248 92.102403 
L 178.319248 92.201894 
L 178.733877 91.897799 
L 178.733877 91.732242 
L 179.563135 90.184866 
L 179.563135 90.12971 
L 180.392393 88.616032 
L 180.807022 87.310948 
L 180.807022 87.670682 
L 181.63628 85.572235 
L 182.880167 81.071003 
L 182.880167 81.099956 
L 184.124054 75.212131 
L 184.124054 75.45545 
L 184.538683 73.355824 
L 185.782571 69.176519 
L 186.1972 68.181907 
L 186.1972 68.327004 
L 187.026458 66.69428 
L 187.026458 66.795857 
L 188.270345 65.092414 
L 188.684974 64.907605 
L 188.684974 64.913106 
L 189.514232 64.136093 
L 189.928861 63.859319 
L 189.928861 63.707936 
L 190.34349 63.666592 
L 190.34349 63.794855 
L 190.758119 63.433428 
L 190.758119 63.493721 
L 191.172748 63.263126 
L 191.587377 63.326532 
L 191.587377 63.0189 
L 192.416635 62.417237 
L 192.416635 62.371813 
L 192.831264 62.258208 
L 193.245893 61.799677 
L 193.245893 62.100901 
L 193.660522 61.22476 
L 193.660522 61.474244 
L 194.075152 61.057541 
L 194.075152 60.885879 
L 194.489781 60.240665 
L 194.90441 59.990667 
L 195.319039 59.114496 
L 195.319039 59.461326 
L 195.733668 58.812274 
L 195.733668 58.844854 
L 196.562926 57.970133 
L 196.562926 57.665252 
L 196.977555 57.737362 
L 196.977555 57.499271 
L 197.392184 57.162778 
L 198.221442 56.43675 
L 198.221442 56.50067 
L 198.636071 56.453342 
L 198.636071 56.172064 
L 199.465329 55.731818 
L 199.465329 56.076471 
L 200.294587 55.295712 
L 200.294587 55.384565 
L 200.709216 55.334305 
L 200.709216 55.621416 
L 201.123845 55.122357 
L 201.123845 55.220156 
L 201.538474 55.047557 
L 201.953103 55.03296 
L 201.953103 54.916846 
L 202.367732 54.841412 
L 202.367732 54.723545 
L 202.782362 54.95946 
L 202.782362 54.744489 
L 204.440878 54.26172 
L 204.440878 54.462577 
L 204.855507 54.533297 
L 204.855507 54.431418 
L 205.684765 54.217414 
L 205.684765 54.313219 
L 206.514023 54.198042 
L 206.514023 54.29844 
L 206.928652 53.985459 
L 206.928652 54.296264 
L 207.343281 54.044604 
L 207.343281 54.224517 
L 207.75791 54.284598 
L 207.75791 54.17196 
L 208.172539 53.984764 
L 208.172539 54.091932 
L 208.587168 54.128531 
L 208.587168 53.88896 
L 209.001797 54.146876 
L 209.001797 54.2985 
L 209.416426 53.904131 
L 209.416426 54.129498 
L 209.831055 54.213123 
L 210.245684 53.928158 
L 210.660313 54.007038 
L 210.660313 53.894067 
L 211.074943 53.963336 
L 211.074943 54.091781 
L 211.904201 53.815641 
L 211.904201 54.115596 
L 212.31883 53.845077 
L 212.31883 54.089877 
L 212.733459 53.997639 
L 212.733459 53.808266 
L 213.148088 53.799411 
L 213.148088 53.954179 
L 213.562717 54.369643 
L 213.562717 54.320049 
L 213.977346 54.355892 
L 213.977346 54.338605 
L 214.806604 54.187434 
L 214.806604 54.293091 
L 215.221233 54.329629 
L 215.221233 54.049349 
L 215.635862 54.063644 
L 215.635862 54.281455 
L 216.050491 54.216538 
L 216.050491 53.817242 
L 216.46512 53.956204 
L 216.46512 54.090421 
L 216.879749 54.069688 
L 216.879749 54.234973 
L 217.294378 54.09172 
L 217.294378 53.945082 
L 218.123636 54.074705 
L 218.538265 54.210373 
L 219.367524 53.850759 
L 219.782153 53.929034 
L 219.782153 53.725004 
L 220.196782 53.87956 
L 220.196782 54.177158 
L 220.611411 53.903436 
L 221.440669 53.844382 
L 221.440669 53.810563 
L 221.855298 53.977934 
L 221.855298 53.893553 
L 222.269927 53.962158 
L 222.269927 53.755922 
L 222.684556 53.738453 
L 222.684556 53.809324 
L 223.099185 54.260239 
L 223.513814 54.170751 
L 223.513814 54.324612 
L 223.928443 54.28082 
L 223.928443 54.075702 
L 224.757701 54.01958 
L 224.757701 53.971103 
L 225.586959 54.544539 
L 226.416217 55.960872 
L 226.830846 57.18481 
L 228.074734 63.584297 
L 228.074734 63.436903 
L 228.489363 65.013141 
L 230.147879 73.189118 
L 230.147879 72.991133 
L 232.635653 84.199453 
L 232.635653 84.091983 
L 233.464911 86.879284 
L 233.464911 86.846674 
L 233.87954 88.807097 
L 233.87954 88.669012 
L 234.294169 89.837613 
L 235.538056 93.765953 
L 237.196573 98.144573 
L 237.196573 97.920264 
L 237.611202 99.344333 
L 237.611202 99.28537 
L 238.025831 99.842062 
L 238.025831 100.159395 
L 238.855089 101.750261 
L 238.855089 101.512594 
L 239.684347 103.271434 
L 239.684347 103.0056 
L 240.098976 103.890112 
L 240.513605 104.176891 
L 241.342863 105.480404 
L 241.342863 105.231161 
L 241.757492 105.551637 
L 242.172121 106.072003 
L 242.172121 105.825088 
L 242.58675 106.471842 
L 243.001379 106.401153 
L 243.001379 106.543529 
L 243.416008 106.928379 
L 243.416008 107.092092 
L 243.830637 107.11766 
L 243.830637 107.000005 
L 245.074525 107.189468 
L 245.074525 107.284305 
L 245.489154 107.520552 
L 245.489154 107.429251 
L 245.903783 107.45497 
L 245.903783 107.240393 
L 246.318412 107.600853 
L 246.318412 107.559478 
L 246.733041 107.27134 
L 246.733041 107.576463 
L 247.14767 107.405134 
L 247.14767 107.460259 
L 247.562299 107.540469 
L 247.562299 107.659997 
L 247.976928 107.445601 
L 248.806186 107.513994 
L 248.806186 107.436776 
L 249.635444 107.174448 
L 249.635444 107.270766 
L 250.050073 107.520824 
L 250.050073 107.309662 
L 250.464702 107.302741 
L 250.464702 107.49033 
L 250.879331 107.315646 
L 250.879331 107.444483 
L 251.29396 107.242085 
L 251.29396 107.304464 
L 252.123218 107.144286 
L 252.123218 107.147792 
L 252.537847 107.005596 
L 252.537847 106.857719 
L 252.952476 107.022309 
L 252.952476 106.771526 
L 253.367106 106.987493 
L 253.367106 106.814169 
L 253.781735 106.725074 
L 253.781735 106.864822 
L 255.85488 105.732729 
L 256.684138 105.045174 
L 256.684138 105.100964 
L 257.098767 104.775381 
L 257.513396 104.129744 
L 257.513396 104.495372 
L 259.586541 102.060975 
L 259.586541 102.066476 
L 260.415799 100.964363 
L 260.415799 101.149081 
L 261.245057 99.363917 
L 261.245057 99.585567 
L 261.659687 98.875738 
L 262.074316 97.912285 
L 262.074316 98.061402 
L 262.488945 97.294302 
L 262.488945 97.018071 
L 263.318203 95.179716 
L 263.318203 95.009596 
L 264.976719 90.351148 
L 267.049864 82.917488 
L 267.049864 83.007581 
L 268.293751 77.092888 
L 268.70838 75.556754 
L 268.70838 75.598552 
L 269.537638 71.683872 
L 269.537638 71.940096 
L 269.952268 69.863076 
L 269.952268 70.083366 
L 271.610784 64.76133 
L 273.683929 60.32293 
L 273.683929 60.691943 
L 275.342445 58.276526 
L 275.342445 58.597243 
L 275.757074 58.038345 
L 275.757074 57.804425 
L 276.171703 57.592054 
L 276.171703 57.446141 
L 276.586332 57.252628 
L 276.586332 57.283697 
L 277.000961 56.741632 
L 277.000961 56.875032 
L 277.41559 56.437203 
L 277.41559 56.609984 
L 277.830219 56.440437 
L 277.830219 56.503874 
L 278.244848 56.102916 
L 278.244848 56.200745 
L 278.659478 55.914299 
L 279.074107 55.559521 
L 279.074107 55.923064 
L 279.488736 55.327505 
L 279.488736 55.431258 
L 279.903365 55.346183 
L 280.317994 55.082222 
L 280.317994 55.314903 
L 280.732623 55.062396 
L 280.732623 55.189118 
L 281.147252 54.968133 
L 281.147252 54.824094 
L 281.561881 54.733337 
L 281.561881 54.862265 
L 282.391139 54.55956 
L 282.391139 54.728048 
L 283.220397 54.456018 
L 283.220397 54.512262 
L 283.635026 54.232586 
L 283.635026 54.496184 
L 284.049655 54.68746 
L 284.049655 54.589721 
L 284.464284 54.227962 
L 284.464284 54.252321 
L 284.878913 54.560436 
L 284.878913 54.322467 
L 285.293542 54.217475 
L 285.293542 54.414221 
L 285.708171 54.114931 
L 285.708171 54.210826 
L 286.537429 53.981893 
L 286.537429 54.227085 
L 286.952059 54.285868 
L 286.952059 54.415944 
L 287.781317 53.933991 
L 287.781317 54.033875 
L 288.195946 54.260269 
L 288.195946 54.005285 
L 288.610575 54.206927 
L 288.610575 54.099699 
L 289.439833 53.802977 
L 289.854462 54.059201 
L 290.269091 53.916976 
L 290.269091 53.759306 
L 290.68372 54.046296 
L 290.68372 53.807329 
L 291.512978 53.925649 
L 291.512978 53.77203 
L 291.927607 53.893614 
L 291.927607 53.568 
L 292.342236 53.954572 
L 292.342236 53.812649 
L 292.756865 53.863543 
L 292.756865 54.06446 
L 293.171494 53.793246 
L 293.586123 53.842176 
L 294.000752 53.998636 
L 294.000752 53.969955 
L 294.83001 53.923987 
L 295.244639 54.10393 
L 295.244639 53.946684 
L 295.659269 53.851605 
L 296.073898 53.997518 
L 296.073898 53.894883 
L 296.488527 53.740599 
L 296.488527 53.902227 
L 296.903156 54.547199 
L 296.903156 54.150502 
L 297.732414 54.229412 
L 298.147043 54.103718 
L 298.147043 54.1243 
L 298.561672 54.138746 
L 298.561672 53.982437 
L 298.976301 53.909904 
L 298.976301 54.107406 
L 299.39093 53.988058 
L 299.39093 54.145425 
L 299.805559 53.99516 
L 299.805559 54.307628 
L 300.220188 53.913409 
L 300.220188 54.103658 
L 301.464075 53.937496 
L 301.464075 54.063432 
L 301.878704 54.376534 
L 302.293333 54.464692 
L 302.293333 54.336762 
L 302.707962 54.938818 
L 305.195737 60.084054 
L 305.195737 60.105089 
L 305.610366 61.477418 
L 305.610366 61.353688 
L 306.024995 62.172105 
L 306.854253 64.292372 
L 306.854253 64.2322 
L 307.683511 67.755139 
L 307.683511 67.710985 
L 308.512769 69.784982 
L 308.512769 69.874651 
L 308.927398 71.425412 
L 308.927398 71.34898 
L 309.342027 73.599505 
L 309.342027 73.051638 
L 309.756656 74.639904 
L 309.756656 74.445334 
L 310.171285 75.602329 
L 311.000543 79.116958 
L 311.000543 78.729902 
L 311.829801 81.924629 
L 311.829801 82.303555 
L 312.65906 86.046572 
L 312.65906 85.767198 
L 313.073689 87.144091 
L 313.488318 89.484104 
L 314.317576 92.593151 
L 314.732205 95.080497 
L 315.146834 96.647698 
L 315.561463 98.407687 
L 315.561463 98.369033 
L 315.976092 100.880315 
L 315.976092 100.810079 
L 316.390721 102.542354 
L 318.049237 111.316126 
L 318.049237 111.29352 
L 318.463866 113.172101 
L 318.878495 114.765988 
L 318.878495 114.636698 
L 319.293124 117.771494 
L 319.707753 119.407149 
L 322.195528 132.284187 
L 322.195528 132.18663 
L 322.610157 133.635269 
L 322.610157 133.553518 
L 323.024786 135.932518 
L 323.024786 135.62667 
L 323.439415 137.202636 
L 324.268673 140.740565 
L 324.268673 140.740142 
L 325.097931 144.003322 
L 325.097931 143.74601 
L 326.341818 148.950996 
L 326.341818 148.767215 
L 327.585705 153.546914 
L 327.585705 153.241639 
L 328.000334 155.15292 
L 328.000334 155.063553 
L 328.414963 156.359027 
L 328.829592 158.352362 
L 328.829592 158.319903 
L 329.244222 159.329989 
L 329.244222 159.270361 
L 329.658851 161.265146 
L 330.07348 162.334981 
L 330.07348 162.202728 
L 330.488109 164.405926 
L 330.902738 165.170789 
L 331.731996 167.274736 
L 331.731996 167.469004 
L 332.146625 168.2465 
L 332.561254 169.828964 
L 333.390512 171.764816 
L 334.21977 173.99485 
L 334.21977 173.558835 
L 334.634399 175.163542 
L 335.049028 176.023273 
L 335.878286 178.245026 
L 336.292915 179.003513 
L 336.707544 180.072834 
L 336.707544 179.984011 
L 337.122173 180.803062 
L 337.122173 180.432659 
L 337.536803 181.5931 
L 337.536803 181.962355 
L 337.951432 182.305075 
L 337.951432 182.288785 
L 339.195319 184.077575 
L 339.195319 183.791583 
L 340.024577 185.169443 
L 340.024577 185.085092 
L 340.853835 185.996896 
L 340.853835 186.396554 
L 342.512351 187.74667 
L 342.92698 188.193051 
L 342.92698 188.01474 
L 343.341609 188.4717 
L 343.341609 188.139407 
L 343.756238 188.607639 
L 343.756238 188.852137 
L 344.170867 188.828684 
L 344.170867 188.845155 
L 345.000125 189.216133 
L 345.000125 189.308733 
L 345.414754 189.509681 
L 345.414754 189.25938 
L 345.829383 189.712683 
L 345.829383 189.625885 
L 346.244013 189.525638 
L 346.244013 189.610411 
L 346.658642 190.191705 
L 346.658642 189.816738 
L 347.073271 190.069154 
L 347.073271 189.848804 
L 347.902529 190.198384 
L 347.902529 189.853851 
L 348.317158 190.482503 
L 348.317158 190.264933 
L 349.146416 190.244412 
L 349.146416 190.375395 
L 349.561045 190.368232 
L 349.561045 190.4223 
L 350.390303 190.61415 
L 350.390303 190.450648 
L 350.804932 190.426289 
L 350.804932 190.595805 
L 352.048819 190.461256 
L 352.048819 190.668308 
L 352.878077 190.420819 
L 352.878077 190.430067 
L 353.292706 190.584019 
L 353.292706 190.433784 
L 354.121964 190.587464 
L 354.121964 190.349011 
L 354.951223 190.706026 
L 355.365852 190.55697 
L 355.365852 190.347288 
L 355.780481 190.268801 
L 355.780481 190.587978 
L 356.19511 190.165744 
L 356.19511 190.334232 
L 356.609739 190.32299 
L 356.609739 190.157493 
L 357.024368 190.193186 
L 357.024368 190.414472 
L 357.438997 190.029412 
L 357.438997 190.245228 
L 357.853626 190.017051 
L 357.853626 190.132288 
L 358.682884 189.881897 
L 359.097513 189.618904 
L 359.097513 189.749524 
L 359.512142 189.524761 
L 359.512142 189.390515 
L 359.926771 189.261375 
L 360.3414 188.819043 
L 360.756029 188.594613 
L 361.585287 187.590572 
L 361.585287 187.870157 
L 361.999916 187.200555 
L 361.999916 187.385152 
L 362.414545 186.819332 
L 362.414545 186.626454 
L 362.829175 186.179649 
L 363.243804 185.526336 
L 363.243804 185.900155 
L 364.487691 183.272003 
L 364.487691 183.22126 
L 365.731578 180.325219 
L 365.731578 180.202275 
L 366.975465 177.302759 
L 369.04861 170.845427 
L 369.04861 170.742551 
L 369.463239 169.113847 
L 371.951014 158.778555 
L 373.194901 155.706954 
L 373.194901 156.003705 
L 373.60953 155.374298 
L 374.024159 155.221344 
L 374.024159 155.289797 
L 374.438788 155.385964 
L 374.438788 155.21134 
L 374.853417 155.558835 
L 375.268046 156.539393 
L 375.268046 156.516394 
L 375.682675 156.84228 
L 375.682675 156.7715 
L 376.511933 159.065515 
L 376.511933 158.724185 
L 376.926562 159.364986 
L 377.341191 160.254878 
L 377.341191 160.054505 
L 377.75582 160.818583 
L 377.75582 160.74336 
L 378.170449 161.2685 
L 378.585078 161.874364 
L 378.585078 161.864059 
L 380.243595 163.59044 
L 380.243595 163.280482 
L 380.658224 163.717646 
L 380.658224 163.613047 
L 381.072853 163.848175 
L 381.072853 164.031926 
L 381.487482 164.065322 
L 381.487482 163.913365 
L 381.902111 164.297912 
L 381.902111 164.127549 
L 382.31674 164.29368 
L 382.31674 164.471991 
L 382.731369 164.242635 
L 382.731369 164.561328 
L 383.145998 164.6636 
L 383.145998 164.464859 
L 383.560627 164.635705 
L 383.560627 164.877029 
L 383.975256 164.585022 
L 383.975256 164.585143 
L 384.389885 164.798965 
L 384.389885 164.536939 
L 384.804514 164.506958 
L 384.804514 164.804738 
L 385.219143 164.663932 
L 385.219143 164.516267 
L 385.633772 164.795369 
L 385.633772 164.634798 
L 386.048401 164.720055 
L 386.048401 164.552745 
L 386.46303 164.575049 
L 386.46303 164.767987 
L 386.877659 164.650604 
L 386.877659 164.702526 
L 387.292288 164.75478 
L 387.292288 164.571694 
L 387.706917 164.642384 
L 387.706917 164.892563 
L 388.121546 164.569579 
L 388.121546 164.709024 
L 388.536176 164.584871 
L 389.365434 164.808878 
L 389.365434 164.400727 
L 389.780063 164.593333 
L 389.780063 164.474711 
L 390.194692 164.458271 
L 390.609321 164.242061 
L 390.609321 164.487586 
L 391.02395 164.296642 
L 391.438579 164.050331 
L 391.438579 164.100379 
L 391.853208 163.9998 
L 391.853208 163.811365 
L 392.267837 163.690234 
L 392.267837 163.694133 
L 392.682466 163.721091 
L 392.682466 163.610659 
L 393.097095 163.246965 
L 393.097095 163.40675 
L 393.926353 162.858822 
L 393.926353 162.960973 
L 394.340982 162.266104 
L 394.340982 162.549588 
L 394.755611 162.065278 
L 395.584869 161.696235 
L 395.584869 161.417526 
L 395.999498 161.059665 
L 395.999498 161.320513 
L 397.243386 159.893482 
L 397.243386 160.041419 
L 398.072644 158.851814 
L 398.072644 158.946439 
L 398.487273 158.563403 
L 398.487273 158.683295 
" clip-path="url(#pab522b56bf)" style="fill: none; stroke: #1f77b4; stroke-width: 1.5; stroke-linecap: square"/>
   </g>
   <g id="line2d_38">
    <path d="M 73.832727 279.770258 
L 73.832727 279.686573 
L 74.247356 279.018511 
L 74.661985 277.55748 
L 74.661985 277.108318 
L 75.491243 274.508395 
L 75.491243 274.595586 
L 80.052163 257.912396 
L 80.052163 257.948663 
L 80.881421 254.459844 
L 81.29605 253.334098 
L 81.29605 252.979894 
L 82.125308 250.178086 
L 82.125308 250.230944 
L 82.954566 246.916508 
L 82.954566 246.940595 
L 84.198454 242.342773 
L 84.198454 242.415216 
L 85.442341 237.588642 
L 86.271599 234.533935 
L 86.271599 234.358676 
L 88.344744 226.299568 
L 88.344744 226.319666 
L 96.637325 193.871195 
L 97.051954 191.905937 
L 97.051954 192.191597 
L 99.539728 182.147285 
L 99.539728 182.042504 
L 99.954357 180.33205 
L 99.954357 180.468865 
L 100.368986 179.094753 
L 100.368986 178.639607 
L 104.515277 161.590095 
L 109.905455 138.748742 
L 109.905455 138.894171 
L 111.563971 131.504636 
L 111.563971 131.926719 
L 112.807858 126.243407 
L 112.807858 126.455839 
L 114.466374 119.075702 
L 117.368777 105.995722 
L 117.368777 106.350924 
L 117.783406 104.079061 
L 117.783406 104.386935 
L 124.002842 76.049708 
L 128.563762 54.92144 
L 128.978391 53.809626 
L 128.978391 53.809626 
L 132.710052 53.81425 
L 132.710052 53.823045 
L 133.53931 57.184749 
L 133.53931 57.140171 
L 133.953939 57.245103 
L 134.783197 59.988099 
L 135.612456 64.838034 
L 136.027085 64.527622 
L 136.027085 64.568663 
L 136.441714 66.464803 
L 136.856343 69.432078 
L 136.856343 69.359877 
L 137.270972 73.611232 
L 137.270972 73.589381 
L 137.685601 73.675061 
L 137.685601 73.483331 
L 138.10023 76.501742 
L 138.10023 76.481855 
L 138.514859 80.918079 
L 138.514859 80.88831 
L 138.929488 87.378464 
L 139.344117 86.277712 
L 139.758746 90.418302 
L 139.758746 90.378681 
L 140.173375 97.090665 
L 140.588004 97.270003 
L 141.002633 100.711706 
L 141.002633 100.637571 
L 141.417262 106.160917 
L 141.831891 106.522555 
L 142.24652 109.224449 
L 142.661149 114.36488 
L 142.661149 114.298723 
L 143.075778 114.089858 
L 143.490408 116.947879 
L 143.490408 116.912307 
L 143.905037 121.737007 
L 143.905037 121.690707 
L 144.319666 120.51721 
L 144.734295 124.04299 
L 145.148924 124.229854 
L 145.148924 124.155417 
L 145.563553 126.406607 
L 146.392811 128.952795 
L 146.392811 129.116056 
L 146.80744 131.799514 
L 147.222069 131.39236 
L 147.636698 133.52647 
L 147.636698 133.482164 
L 148.051327 133.582864 
L 148.465956 135.118907 
L 148.880585 135.380661 
L 149.295214 136.358046 
L 150.124472 137.388593 
L 150.124472 137.387837 
L 150.539101 138.012409 
L 150.539101 137.909986 
L 150.95373 138.280812 
L 150.95373 138.280812 
L 151.368359 139.091522 
L 151.368359 139.08992 
L 151.782989 139.086898 
L 151.782989 139.101949 
L 152.197618 139.399335 
L 152.197618 139.396524 
L 153.441505 139.70736 
L 153.856134 139.611646 
L 155.100021 139.692792 
L 155.100021 139.69113 
L 155.51465 139.631472 
L 155.929279 139.694696 
L 155.929279 139.692309 
L 156.343908 139.620441 
L 157.173166 139.666197 
L 157.173166 139.664172 
L 158.417053 139.364459 
L 159.246311 138.96607 
L 159.246311 138.972568 
L 160.490199 137.740409 
L 160.490199 137.760416 
L 160.904828 136.008346 
L 160.904828 137.371185 
L 161.319457 136.640926 
L 161.734086 134.390582 
L 161.734086 134.449213 
L 162.148715 135.206098 
L 162.148715 135.136768 
L 162.563344 132.441675 
L 162.977973 133.102875 
L 162.977973 133.387448 
L 163.392602 129.789104 
L 163.392602 129.952847 
L 163.807231 130.692626 
L 164.22186 126.829475 
L 164.22186 126.934346 
L 164.636489 127.573546 
L 164.636489 127.319014 
L 165.051118 123.422257 
L 165.051118 123.51108 
L 165.465747 123.554569 
L 165.465747 123.408445 
L 165.880376 119.100303 
L 165.880376 119.261931 
L 166.295005 118.807631 
L 166.295005 118.601335 
L 166.709634 114.911236 
L 166.709634 115.088459 
L 167.124263 112.937002 
L 167.124263 113.026097 
L 167.953521 106.03619 
L 167.953521 106.072275 
L 169.612038 98.592436 
L 169.612038 98.668414 
L 170.855925 92.910212 
L 170.855925 93.156946 
L 172.099812 87.455107 
L 172.099812 87.463026 
L 172.514441 87.500894 
L 172.92907 87.877342 
L 172.92907 87.86897 
L 173.758328 88.042204 
L 175.002215 88.081613 
L 175.002215 88.078682 
L 175.416844 87.903937 
L 175.416844 87.911855 
L 175.831473 88.119089 
L 176.246102 88.001585 
L 176.660731 87.450997 
L 176.660731 87.45961 
L 177.075361 87.752312 
L 177.075361 87.748383 
L 177.48999 87.22835 
L 177.904619 85.781101 
L 177.904619 85.811534 
L 178.319248 86.269491 
L 178.733877 84.933036 
L 178.733877 84.985381 
L 179.148506 82.412143 
L 179.148506 82.41855 
L 179.563135 83.00211 
L 179.563135 82.978567 
L 179.977764 80.860959 
L 180.392393 76.97889 
L 180.392393 76.998201 
L 180.807022 77.229734 
L 180.807022 77.499527 
L 181.221651 74.696933 
L 181.221651 74.723196 
L 181.63628 68.906242 
L 181.63628 68.950638 
L 182.050909 69.108277 
L 182.465538 65.763407 
L 182.880167 60.614635 
L 182.880167 60.644252 
L 184.124054 54.62632 
L 184.124054 54.874989 
L 184.538683 55.9593 
L 184.538683 55.957003 
L 184.953312 56.051961 
L 184.953312 56.04495 
L 185.782571 58.790121 
L 185.782571 58.779634 
L 186.1972 59.971476 
L 186.611829 60.050749 
L 187.026458 60.664259 
L 187.026458 60.623308 
L 187.855716 61.079694 
L 189.514232 61.302794 
L 189.928861 61.072501 
L 189.928861 60.915345 
L 190.34349 61.19889 
L 190.758119 61.253501 
L 190.758119 61.247245 
L 191.172748 60.670878 
L 191.172748 60.678615 
L 191.587377 60.588372 
L 192.002006 60.381138 
L 192.416635 59.689292 
L 192.831264 58.445135 
L 192.831264 58.446797 
L 193.245893 56.393684 
L 193.245893 57.97781 
L 194.489781 53.809626 
L 194.489781 53.809626 
L 212.733459 53.809626 
L 212.733459 55.912456 
L 213.148088 55.371207 
L 213.148088 53.809626 
L 219.782153 53.809626 
L 219.782153 54.981492 
L 220.196782 53.809626 
L 220.196782 53.809626 
L 222.269927 53.809626 
L 222.269927 55.039397 
L 222.684556 54.968949 
L 222.684556 56.049785 
L 223.099185 53.809626 
L 223.099185 53.809626 
L 224.757701 53.809626 
L 224.757701 53.809626 
L 225.17233 55.237715 
L 225.17233 55.224841 
L 225.586959 55.678959 
L 225.586959 55.639761 
L 226.830846 62.878548 
L 226.830846 62.934217 
L 227.245475 66.416478 
L 227.245475 66.303296 
L 227.660104 66.708757 
L 227.660104 66.468672 
L 228.489363 70.851311 
L 228.903992 74.093608 
L 229.318621 74.529805 
L 229.318621 74.434937 
L 229.73325 76.322252 
L 230.562508 81.294255 
L 230.977137 81.528658 
L 230.977137 81.391721 
L 231.806395 85.727003 
L 231.806395 85.66405 
L 232.221024 88.201505 
L 232.221024 88.17237 
L 232.635653 87.865313 
L 232.635653 87.923944 
L 233.050282 89.5842 
L 233.464911 92.17001 
L 233.464911 92.157135 
L 233.87954 92.090405 
L 233.87954 92.158918 
L 234.294169 93.41601 
L 234.294169 93.391107 
L 234.708798 95.754875 
L 235.123427 95.736379 
L 235.123427 95.738252 
L 235.538056 96.84653 
L 235.538056 96.845261 
L 235.952685 98.842887 
L 235.952685 98.777033 
L 236.367315 98.980579 
L 236.781944 99.867993 
L 237.196573 101.560858 
L 237.196573 101.507456 
L 237.611202 101.543541 
L 238.025831 102.395323 
L 238.44046 103.64356 
L 238.44046 103.631078 
L 238.855089 103.71165 
L 239.269718 104.405914 
L 239.269718 104.401623 
L 239.684347 104.6311 
L 239.684347 105.38871 
L 240.098976 105.162104 
L 240.513605 105.884777 
L 241.342863 106.322424 
L 241.757492 106.820334 
L 242.172121 106.891175 
L 243.416008 107.289987 
L 243.416008 107.278896 
L 244.245266 107.479662 
L 245.903783 107.475703 
L 245.903783 107.480931 
L 246.733041 107.510156 
L 246.733041 107.502902 
L 247.14767 107.454789 
L 247.562299 107.527624 
L 247.562299 107.524995 
L 250.050073 107.15707 
L 250.464702 106.817494 
L 250.879331 106.912845 
L 251.29396 106.624978 
L 251.708589 106.075509 
L 252.123218 106.289844 
L 252.537847 105.788519 
L 252.537847 105.800366 
L 252.952476 105.802572 
L 252.952476 105.788882 
L 253.367106 105.431172 
L 253.367106 105.440843 
L 253.781735 104.616775 
L 254.196364 104.793605 
L 254.196364 104.790854 
L 254.610993 104.161477 
L 254.610993 104.16462 
L 255.025622 104.002418 
L 255.440251 103.484924 
L 255.440251 103.489215 
L 255.85488 102.479401 
L 255.85488 102.488498 
L 256.269509 102.466466 
L 256.269509 102.480731 
L 256.684138 101.811642 
L 257.098767 100.34233 
L 257.098767 100.343962 
L 257.513396 100.568543 
L 257.928025 99.489732 
L 257.928025 99.505569 
L 258.342654 97.630947 
L 258.342654 97.641767 
L 258.757283 98.204866 
L 259.171912 96.60173 
L 259.586541 96.414293 
L 259.586541 96.415199 
L 260.00117 95.332308 
L 260.00117 95.359992 
L 260.415799 93.082448 
L 260.830428 93.162506 
L 261.245057 91.761255 
L 261.659687 88.901571 
L 261.659687 88.912693 
L 262.074316 89.263089 
L 262.488945 87.309829 
L 262.488945 87.350176 
L 262.903574 83.861629 
L 262.903574 83.87396 
L 263.318203 84.567952 
L 263.318203 84.536823 
L 263.732832 82.164835 
L 264.147461 78.231962 
L 264.56209 78.995344 
L 264.56209 78.955481 
L 264.976719 76.234547 
L 264.976719 76.24851 
L 265.391348 71.744649 
L 265.391348 71.747278 
L 265.805977 72.358915 
L 265.805977 72.317118 
L 266.220606 69.566113 
L 266.635235 64.503988 
L 266.635235 64.531218 
L 267.049864 64.602422 
L 268.293751 56.548633 
L 269.123009 53.809626 
L 269.123009 53.809626 
L 289.439833 53.809626 
L 289.439833 55.999647 
L 289.854462 53.809626 
L 289.854462 53.809626 
L 290.269091 53.809626 
L 290.269091 55.100567 
L 290.68372 53.809626 
L 290.68372 55.855124 
L 291.098349 53.809626 
L 291.098349 53.809626 
L 291.512978 53.809626 
L 291.512978 55.14315 
L 291.927607 53.809626 
L 291.927607 54.848333 
L 292.342236 53.809626 
L 292.342236 53.809626 
L 293.171494 53.809626 
L 293.171494 55.326296 
L 293.586123 53.809626 
L 293.586123 53.809626 
L 296.073898 53.809626 
L 296.073898 53.809626 
L 296.488527 55.025737 
L 296.488527 53.809626 
L 301.049446 53.809626 
L 301.049446 53.809626 
L 301.464075 54.664431 
L 301.464075 54.657117 
L 301.878704 54.769876 
L 302.707962 56.866661 
L 302.707962 56.865935 
L 303.53722 59.604791 
L 303.95185 59.695276 
L 304.781108 62.011292 
L 304.781108 62.004341 
L 305.195737 63.880383 
L 305.195737 63.878056 
L 305.610366 64.010792 
L 305.610366 63.997706 
L 306.439624 66.581612 
L 307.268882 70.840039 
L 307.683511 70.48786 
L 308.09814 71.994375 
L 308.09814 71.98688 
L 308.927398 76.99125 
L 309.342027 76.430508 
L 309.756656 78.161302 
L 310.171285 81.069341 
L 310.171285 81.058612 
L 310.585914 81.419495 
L 311.000543 83.069717 
L 311.000543 82.970226 
L 311.829801 88.730484 
L 311.829801 88.709449 
L 312.244431 88.204134 
L 312.65906 90.331232 
L 313.073689 93.916429 
L 313.073689 93.87164 
L 313.488318 93.661233 
L 313.488318 93.671116 
L 313.902947 95.756779 
L 314.317576 99.574203 
L 314.317576 99.517295 
L 314.732205 99.673634 
L 315.146834 101.757847 
L 315.146834 101.652825 
L 315.561463 105.928599 
L 315.976092 105.651915 
L 316.390721 108.30509 
L 316.390721 108.249239 
L 316.80535 112.926576 
L 317.219979 111.93012 
L 317.219979 111.986877 
L 317.634608 115.467717 
L 317.634608 115.393522 
L 318.049237 116.442836 
L 318.049237 116.431684 
L 318.463866 118.422601 
L 318.878495 123.200486 
L 319.293124 122.52762 
L 319.293124 122.57392 
L 319.707753 125.946323 
L 319.707753 125.913048 
L 320.122382 126.619371 
L 320.122382 126.60299 
L 320.537011 129.110918 
L 320.537011 128.872616 
L 320.951641 134.006912 
L 321.36627 132.632618 
L 321.36627 132.665984 
L 321.780899 136.942664 
L 322.195528 136.195784 
L 322.610157 139.998913 
L 323.024786 139.884582 
L 323.024786 139.715973 
L 323.439415 143.115727 
L 323.439415 143.099256 
L 323.854044 143.308182 
L 324.268673 146.072393 
L 324.683302 146.550659 
L 324.683302 146.457635 
L 325.097931 149.318195 
L 325.51256 149.678504 
L 325.927189 152.352624 
L 326.341818 152.742732 
L 326.341818 152.64188 
L 326.756447 155.629675 
L 327.171076 155.754886 
L 327.171076 155.559741 
L 327.585705 158.701549 
L 328.000334 158.464637 
L 328.414963 161.894523 
L 328.414963 161.878142 
L 328.829592 161.412509 
L 329.244222 165.002088 
L 329.658851 163.878669 
L 329.658851 163.926118 
L 330.07348 167.933791 
L 330.07348 165.239393 
L 330.488109 167.007995 
L 330.488109 166.924401 
L 330.902738 167.836808 
L 331.317367 170.01616 
L 331.317367 169.97941 
L 331.731996 170.207406 
L 332.146625 173.017435 
L 332.146625 173.010907 
L 332.561254 172.502086 
L 332.561254 172.529286 
L 332.975883 173.416791 
L 332.975883 173.352478 
L 333.390512 175.114008 
L 333.390512 175.055951 
L 333.805141 175.729966 
L 333.805141 175.678438 
L 334.21977 177.820375 
L 334.634399 177.470553 
L 334.634399 177.554329 
L 335.049028 180.266105 
L 335.049028 180.250057 
L 335.463657 179.585652 
L 335.878286 180.244133 
L 336.292915 181.973507 
L 336.292915 181.911793 
L 336.707544 181.772227 
L 337.122173 183.809746 
L 337.122173 182.311059 
L 337.536803 183.479237 
L 337.536803 183.329758 
L 337.951432 183.642769 
L 337.951432 183.636755 
L 338.366061 185.206435 
L 338.366061 185.196461 
L 338.78069 184.879491 
L 339.195319 185.434914 
L 339.195319 185.347633 
L 339.609948 186.429345 
L 340.024577 186.347382 
L 340.439206 187.518885 
L 341.268464 187.452396 
L 341.683093 188.491797 
L 341.683093 188.471609 
L 342.097722 188.214358 
L 342.512351 188.507483 
L 342.92698 189.027214 
L 343.341609 188.974597 
L 343.756238 189.158831 
L 344.170867 189.640603 
L 344.170867 189.639455 
L 344.585496 189.574658 
L 345.414754 190.037209 
L 345.829383 190.038116 
L 345.829383 190.029744 
L 347.073271 190.344055 
L 347.073271 190.329518 
L 351.63419 190.547752 
L 352.048819 190.393105 
L 352.878077 190.541254 
L 352.878077 190.541224 
L 353.707335 190.397276 
L 354.121964 190.446599 
L 354.536594 190.207239 
L 354.951223 190.121771 
L 355.365852 190.189801 
L 355.780481 189.977036 
L 355.780481 189.979303 
L 356.19511 189.625945 
L 356.609739 189.698902 
L 356.609739 189.696182 
L 357.024368 189.353613 
L 357.024368 189.362106 
L 357.438997 188.802572 
L 357.853626 188.895505 
L 358.268255 188.537917 
L 358.682884 187.570021 
L 358.682884 187.596949 
L 359.097513 187.698133 
L 359.512142 187.091725 
L 359.512142 185.232909 
L 359.926771 186.067132 
L 360.3414 185.906108 
L 360.756029 183.229481 
L 360.756029 183.258313 
L 361.170658 184.146119 
L 361.170658 184.108463 
L 361.585287 183.437802 
L 361.585287 183.545997 
L 361.999916 180.736332 
L 362.414545 181.442201 
L 362.414545 181.35915 
L 362.829175 180.199072 
L 363.243804 177.747237 
L 363.658433 177.91222 
L 363.658433 177.864348 
L 364.073062 172.664984 
L 364.073062 172.669245 
L 364.487691 174.074153 
L 364.90232 173.671322 
L 364.90232 173.806959 
L 365.316949 167.572757 
L 365.731578 169.399235 
L 366.146207 169.183086 
L 366.146207 169.229719 
L 366.560836 167.435669 
L 366.560836 167.447335 
L 366.975465 163.362172 
L 366.975465 163.423795 
L 367.390094 164.186603 
L 367.804723 161.638813 
L 367.804723 161.879049 
L 368.219352 156.867969 
L 368.633981 157.61899 
L 368.633981 157.612583 
L 369.04861 152.267941 
L 369.877868 149.357091 
L 370.292497 146.886549 
L 370.292497 147.183149 
L 370.707126 145.135113 
L 371.121755 144.089425 
L 371.121755 144.155642 
L 371.536385 142.118002 
L 371.536385 142.274311 
L 373.194901 151.749056 
L 373.60953 152.996326 
L 374.024159 155.274232 
L 374.438788 155.907024 
L 374.853417 158.187621 
L 375.268046 158.110161 
L 375.268046 158.120014 
L 375.682675 160.459301 
L 375.682675 160.441349 
L 376.097304 159.995874 
L 376.097304 160.066171 
L 376.511933 160.528722 
L 376.926562 161.887481 
L 377.341191 161.714731 
L 377.341191 161.755712 
L 377.75582 162.185864 
L 377.75582 162.150686 
L 378.170449 163.068231 
L 378.585078 163.0912 
L 378.999707 163.910252 
L 379.414336 163.758083 
L 379.828966 163.891484 
L 380.243595 164.229821 
L 380.243595 164.195882 
L 381.072853 164.305286 
L 381.487482 164.591097 
L 381.487482 164.590795 
L 383.145998 164.667499 
L 383.145998 164.665111 
L 383.560627 164.52083 
L 383.560627 164.521707 
L 383.975256 164.90166 
L 383.975256 164.90166 
L 384.389885 164.615668 
L 385.219143 164.769771 
L 385.219143 164.768562 
L 385.633772 164.507835 
L 386.048401 164.668617 
L 386.048401 164.667468 
L 387.706917 164.701922 
L 388.121546 164.453647 
L 388.121546 164.456034 
L 388.536176 164.473654 
L 388.950805 163.928808 
L 389.365434 164.106756 
L 389.780063 163.326147 
L 390.194692 163.714412 
L 391.438579 162.579539 
L 391.853208 161.831721 
L 392.267837 161.657067 
L 392.682466 160.571819 
L 393.097095 160.808126 
L 393.097095 160.789962 
L 393.511724 160.183887 
L 393.926353 159.332286 
L 393.926353 159.352535 
L 394.340982 159.365621 
L 394.340982 159.297409 
L 394.755611 158.770365 
L 394.755611 158.774807 
L 395.17024 157.744926 
L 395.584869 158.013299 
L 395.999498 157.218516 
L 396.414127 155.687007 
L 396.414127 155.71729 
L 396.828757 156.363168 
L 396.828757 156.346727 
L 397.243386 155.618886 
L 397.658015 153.361259 
L 397.658015 153.427294 
L 398.072644 154.290077 
L 398.487273 153.472446 
L 398.487273 153.472446 
" clip-path="url(#pab522b56bf)" style="fill: none; stroke: #ff7f0e; stroke-width: 1.5; stroke-linecap: square"/>
   </g>
   <g id="patch_3">
    <path d="M 57.6 307.584 
L 57.6 41.472 
" style="fill: none; stroke: #000000; stroke-width: 0.8; stroke-linejoin: miter; stroke-linecap: square"/>
   </g>
   <g id="patch_4">
    <path d="M 414.72 307.584 
L 414.72 41.472 
" style="fill: none; stroke: #000000; stroke-width: 0.8; stroke-linejoin: miter; stroke-linecap: square"/>
   </g>
   <g id="patch_5">
    <path d="M 57.6 307.584 
L 414.72 307.584 
" style="fill: none; stroke: #000000; stroke-width: 0.8; stroke-linejoin: miter; stroke-linecap: square"/>
   </g>
   <g id="patch_6">
    <path d="M 57.6 41.472 
L 414.72 41.472 
" style="fill: none; stroke: #000000; stroke-width: 0.8; stroke-linejoin: miter; stroke-linecap: square"/>
   </g>
   <g id="text_21">
    <!-- Actual speed vs Expected speed -->
    <g transform="translate(138.808125 35.472) scale(0.12 -0.12)">
     <defs>
      <path id="DejaVuSans-41" d="M 2188 4044 
L 1331 1722 
L 3047 1722 
L 2188 4044 
z
M 1831 4666 
L 2547 4666 
L 4325 0 
L 3669 0 
L 3244 1197 
L 1141 1197 
L 716 0 
L 50 0 
L 1831 4666 
z
" transform="scale(0.015625)"/>
      <path id="DejaVuSans-75" d="M 544 1381 
L 544 3500 
L 1119 3500 
L 1119 1403 
Q 1119 906 1312 657 
Q 1506 409 1894 409 
Q 2359 409 2629 706 
Q 2900 1003 2900 1516 
L 2900 3500 
L 3475 3500 
L 3475 0 
L 2900 0 
L 2900 538 
Q 2691 219 2414 64 
Q 2138 -91 1772 -91 
Q 1169 -91 856 284 
Q 544 659 544 1381 
z
M 1991 3584 
L 1991 3584 
z
" transform="scale(0.015625)"/>
      <path id="DejaVuSans-61" d="M 2194 1759 
Q 1497 1759 1228 1600 
Q 959 1441 959 1056 
Q 959 750 1161 570 
Q 1363 391 1709 391 
Q 2188 391 2477 730 
Q 2766 1069 2766 1631 
L 2766 1759 
L 2194 1759 
z
M 3341 1997 
L 3341 0 
L 2766 0 
L 2766 531 
Q 2569 213 2275 61 
Q 1981 -91 1556 -91 
Q 1019 -91 701 211 
Q 384 513 384 1019 
Q 384 1609 779 1909 
Q 1175 2209 1959 2209 
L 2766 2209 
L 2766 2266 
Q 2766 2663 2505 2880 
Q 2244 3097 1772 3097 
Q 1472 3097 1187 3025 
Q 903 2953 641 2809 
L 641 3341 
Q 956 3463 1253 3523 
Q 1550 3584 1831 3584 
Q 2591 3584 2966 3190 
Q 3341 2797 3341 1997 
z
" transform="scale(0.015625)"/>
      <path id="DejaVuSans-20" transform="scale(0.015625)"/>
      <path id="DejaVuSans-70" d="M 1159 525 
L 1159 -1331 
L 581 -1331 
L 581 3500 
L 1159 3500 
L 1159 2969 
Q 1341 3281 1617 3432 
Q 1894 3584 2278 3584 
Q 2916 3584 3314 3078 
Q 3713 2572 3713 1747 
Q 3713 922 3314 415 
Q 2916 -91 2278 -91 
Q 1894 -91 1617 61 
Q 1341 213 1159 525 
z
M 3116 1747 
Q 3116 2381 2855 2742 
Q 2594 3103 2138 3103 
Q 1681 3103 1420 2742 
Q 1159 2381 1159 1747 
Q 1159 1113 1420 752 
Q 1681 391 2138 391 
Q 2594 391 2855 752 
Q 3116 1113 3116 1747 
z
" transform="scale(0.015625)"/>
      <path id="DejaVuSans-64" d="M 2906 2969 
L 2906 4863 
L 3481 4863 
L 3481 0 
L 2906 0 
L 2906 525 
Q 2725 213 2448 61 
Q 2172 -91 1784 -91 
Q 1150 -91 751 415 
Q 353 922 353 1747 
Q 353 2572 751 3078 
Q 1150 3584 1784 3584 
Q 2172 3584 2448 3432 
Q 2725 3281 2906 2969 
z
M 947 1747 
Q 947 1113 1208 752 
Q 1469 391 1925 391 
Q 2381 391 2643 752 
Q 2906 1113 2906 1747 
Q 2906 2381 2643 2742 
Q 2381 3103 1925 3103 
Q 1469 3103 1208 2742 
Q 947 2381 947 1747 
z
" transform="scale(0.015625)"/>
      <path id="DejaVuSans-76" d="M 191 3500 
L 800 3500 
L 1894 563 
L 2988 3500 
L 3597 3500 
L 2284 0 
L 1503 0 
L 191 3500 
z
" transform="scale(0.015625)"/>
      <path id="DejaVuSans-45" d="M 628 4666 
L 3578 4666 
L 3578 4134 
L 1259 4134 
L 1259 2753 
L 3481 2753 
L 3481 2222 
L 1259 2222 
L 1259 531 
L 3634 531 
L 3634 0 
L 628 0 
L 628 4666 
z
" transform="scale(0.015625)"/>
      <path id="DejaVuSans-78" d="M 3513 3500 
L 2247 1797 
L 3578 0 
L 2900 0 
L 1881 1375 
L 863 0 
L 184 0 
L 1544 1831 
L 300 3500 
L 978 3500 
L 1906 2253 
L 2834 3500 
L 3513 3500 
z
" transform="scale(0.015625)"/>
     </defs>
     <use xlink:href="#DejaVuSans-41"/>
     <use xlink:href="#DejaVuSans-63" x="66.658203"/>
     <use xlink:href="#DejaVuSans-74" x="121.638672"/>
     <use xlink:href="#DejaVuSans-75" x="160.847656"/>
     <use xlink:href="#DejaVuSans-61" x="224.226562"/>
     <use xlink:href="#DejaVuSans-6c" x="285.505859"/>
     <use xlink:href="#DejaVuSans-20" x="313.289062"/>
     <use xlink:href="#DejaVuSans-73" x="345.076172"/>
     <use xlink:href="#DejaVuSans-70" x="397.175781"/>
     <use xlink:href="#DejaVuSans-65" x="460.652344"/>
     <use xlink:href="#DejaVuSans-65" x="522.175781"/>
     <use xlink:href="#DejaVuSans-64" x="583.699219"/>
     <use xlink:href="#DejaVuSans-20" x="647.175781"/>
     <use xlink:href="#DejaVuSans-76" x="678.962891"/>
     <use xlink:href="#DejaVuSans-73" x="738.142578"/>
     <use xlink:href="#DejaVuSans-20" x="790.242188"/>
     <use xlink:href="#DejaVuSans-45" x="822.029297"/>
     <use xlink:href="#DejaVuSans-78" x="885.212891"/>
     <use xlink:href="#DejaVuSans-70" x="944.392578"/>
     <use xlink:href="#DejaVuSans-65" x="1007.869141"/>
     <use xlink:href="#DejaVuSans-63" x="1069.392578"/>
     <use xlink:href="#DejaVuSans-74" x="1124.373047"/>
     <use xlink:href="#DejaVuSans-65" x="1163.582031"/>
     <use xlink:href="#DejaVuSans-64" x="1225.105469"/>
     <use xlink:href="#DejaVuSans-20" x="1288.582031"/>
     <use xlink:href="#DejaVuSans-73" x="1320.369141"/>
     <use xlink:href="#DejaVuSans-70" x="1372.46875"/>
     <use xlink:href="#DejaVuSans-65" x="1435.945312"/>
     <use xlink:href="#DejaVuSans-65" x="1497.46875"/>
     <use xlink:href="#DejaVuSans-64" x="1558.992188"/>
    </g>
   </g>
   <g id="legend_1">
    <g id="patch_7">
     <path d="M 295.67 302.584 
L 407.72 302.584 
Q 409.72 302.584 409.72 300.584 
L 409.72 272.22775 
Q 409.72 270.22775 407.72 270.22775 
L 295.67 270.22775 
Q 293.67 270.22775 293.67 272.22775 
L 293.67 300.584 
Q 293.67 302.584 295.67 302.584 
z
" style="fill: #ffffff; opacity: 0.8; stroke: #cccccc; stroke-linejoin: miter"/>
    </g>
    <g id="line2d_39">
     <path d="M 297.67 278.326187 
L 307.67 278.326187 
L 317.67 278.326187 
" style="fill: none; stroke: #1f77b4; stroke-width: 1.5; stroke-linecap: square"/>
    </g>
    <g id="text_22">
     <!-- Actual speed -->
     <g transform="translate(325.67 281.826187) scale(0.1 -0.1)">
      <use xlink:href="#DejaVuSans-41"/>
      <use xlink:href="#DejaVuSans-63" x="66.658203"/>
      <use xlink:href="#DejaVuSans-74" x="121.638672"/>
      <use xlink:href="#DejaVuSans-75" x="160.847656"/>
      <use xlink:href="#DejaVuSans-61" x="224.226562"/>
      <use xlink:href="#DejaVuSans-6c" x="285.505859"/>
      <use xlink:href="#DejaVuSans-20" x="313.289062"/>
      <use xlink:href="#DejaVuSans-73" x="345.076172"/>
      <use xlink:href="#DejaVuSans-70" x="397.175781"/>
      <use xlink:href="#DejaVuSans-65" x="460.652344"/>
      <use xlink:href="#DejaVuSans-65" x="522.175781"/>
      <use xlink:href="#DejaVuSans-64" x="583.699219"/>
     </g>
    </g>
    <g id="line2d_40">
     <path d="M 297.67 293.004312 
L 307.67 293.004312 
L 317.67 293.004312 
" style="fill: none; stroke: #ff7f0e; stroke-width: 1.5; stroke-linecap: square"/>
    </g>
    <g id="text_23">
     <!-- Expected speed -->
     <g transform="translate(325.67 296.504312) scale(0.1 -0.1)">
      <use xlink:href="#DejaVuSans-45"/>
      <use xlink:href="#DejaVuSans-78" x="63.183594"/>
      <use xlink:href="#DejaVuSans-70" x="122.363281"/>
      <use xlink:href="#DejaVuSans-65" x="185.839844"/>
      <use xlink:href="#DejaVuSans-63" x="247.363281"/>
      <use xlink:href="#DejaVuSans-74" x="302.34375"/>
      <use xlink:href="#DejaVuSans-65" x="341.552734"/>
      <use xlink:href="#DejaVuSans-64" x="403.076172"/>
      <use xlink:href="#DejaVuSans-20" x="466.552734"/>
      <use xlink:href="#DejaVuSans-73" x="498.339844"/>
      <use xlink:href="#DejaVuSans-70" x="550.439453"/>
      <use xlink:href="#DejaVuSans-65" x="613.916016"/>
      <use xlink:href="#DejaVuSans-65" x="675.439453"/>
      <use xlink:href="#DejaVuSans-64" x="736.962891"/>
     </g>
    </g>
   </g>
  </g>
 </g>
 <defs>
  <clipPath id="pab522b56bf">
   <rect x="57.6" y="41.472" width="357.12" height="266.112"/>
  </clipPath>
 </defs>
</svg>
