<?xml version="1.0" encoding="utf-8" standalone="no"?>
<!DOCTYPE svg PUBLIC "-//W3C//DTD SVG 1.1//EN"
  "http://www.w3.org/Graphics/SVG/1.1/DTD/svg11.dtd">
<svg xmlns:xlink="http://www.w3.org/1999/xlink" width="460.8pt" height="345.6pt" viewBox="0 0 460.8 345.6" xmlns="http://www.w3.org/2000/svg" version="1.1">
 <metadata>
  <rdf:RDF xmlns:dc="http://purl.org/dc/elements/1.1/" xmlns:cc="http://creativecommons.org/ns#" xmlns:rdf="http://www.w3.org/1999/02/22-rdf-syntax-ns#">
   <cc:Work>
    <dc:type rdf:resource="http://purl.org/dc/dcmitype/StillImage"/>
    <dc:date>2024-01-30T20:58:14.014720</dc:date>
    <dc:format>image/svg+xml</dc:format>
    <dc:creator>
     <cc:Agent>
      <dc:title>Matplotlib v3.7.1, https://matplotlib.org/</dc:title>
     </cc:Agent>
    </dc:creator>
   </cc:Work>
  </rdf:RDF>
 </metadata>
 <defs>
  <style type="text/css">*{stroke-linejoin: round; stroke-linecap: butt}</style>
 </defs>
 <g id="figure_1">
  <g id="patch_1">
   <path d="M 0 345.6 
L 460.8 345.6 
L 460.8 0 
L 0 0 
z
" style="fill: #ffffff"/>
  </g>
  <g id="axes_1">
   <g id="patch_2">
    <path d="M 57.6 307.584 
L 414.72 307.584 
L 414.72 41.472 
L 57.6 41.472 
z
" style="fill: #ffffff"/>
   </g>
   <g id="matplotlib.axis_1">
    <g id="xtick_1">
     <g id="line2d_1">
      <path d="M 73.832727 307.584 
L 73.832727 41.472 
" clip-path="url(#pc6bd024999)" style="fill: none; stroke: #b0b0b0; stroke-width: 0.8; stroke-linecap: square"/>
     </g>
     <g id="line2d_2">
      <defs>
       <path id="m3987036753" d="M 0 0 
L 0 3.5 
" style="stroke: #000000; stroke-width: 0.8"/>
      </defs>
      <g>
       <use xlink:href="#m3987036753" x="73.832727" y="307.584" style="stroke: #000000; stroke-width: 0.8"/>
      </g>
     </g>
     <g id="text_1">
      <!-- 0 -->
      <g transform="translate(70.651477 322.182437) scale(0.1 -0.1)">
       <defs>
        <path id="DejaVuSans-30" d="M 2034 4250 
Q 1547 4250 1301 3770 
Q 1056 3291 1056 2328 
Q 1056 1369 1301 889 
Q 1547 409 2034 409 
Q 2525 409 2770 889 
Q 3016 1369 3016 2328 
Q 3016 3291 2770 3770 
Q 2525 4250 2034 4250 
z
M 2034 4750 
Q 2819 4750 3233 4129 
Q 3647 3509 3647 2328 
Q 3647 1150 3233 529 
Q 2819 -91 2034 -91 
Q 1250 -91 836 529 
Q 422 1150 422 2328 
Q 422 3509 836 4129 
Q 1250 4750 2034 4750 
z
" transform="scale(0.015625)"/>
       </defs>
       <use xlink:href="#DejaVuSans-30"/>
      </g>
     </g>
    </g>
    <g id="xtick_2">
     <g id="line2d_3">
      <path d="M 115.669653 307.584 
L 115.669653 41.472 
" clip-path="url(#pc6bd024999)" style="fill: none; stroke: #b0b0b0; stroke-width: 0.8; stroke-linecap: square"/>
     </g>
     <g id="line2d_4">
      <g>
       <use xlink:href="#m3987036753" x="115.669653" y="307.584" style="stroke: #000000; stroke-width: 0.8"/>
      </g>
     </g>
     <g id="text_2">
      <!-- 2 -->
      <g transform="translate(112.488403 322.182437) scale(0.1 -0.1)">
       <defs>
        <path id="DejaVuSans-32" d="M 1228 531 
L 3431 531 
L 3431 0 
L 469 0 
L 469 531 
Q 828 903 1448 1529 
Q 2069 2156 2228 2338 
Q 2531 2678 2651 2914 
Q 2772 3150 2772 3378 
Q 2772 3750 2511 3984 
Q 2250 4219 1831 4219 
Q 1534 4219 1204 4116 
Q 875 4013 500 3803 
L 500 4441 
Q 881 4594 1212 4672 
Q 1544 4750 1819 4750 
Q 2544 4750 2975 4387 
Q 3406 4025 3406 3419 
Q 3406 3131 3298 2873 
Q 3191 2616 2906 2266 
Q 2828 2175 2409 1742 
Q 1991 1309 1228 531 
z
" transform="scale(0.015625)"/>
       </defs>
       <use xlink:href="#DejaVuSans-32"/>
      </g>
     </g>
    </g>
    <g id="xtick_3">
     <g id="line2d_5">
      <path d="M 157.506579 307.584 
L 157.506579 41.472 
" clip-path="url(#pc6bd024999)" style="fill: none; stroke: #b0b0b0; stroke-width: 0.8; stroke-linecap: square"/>
     </g>
     <g id="line2d_6">
      <g>
       <use xlink:href="#m3987036753" x="157.506579" y="307.584" style="stroke: #000000; stroke-width: 0.8"/>
      </g>
     </g>
     <g id="text_3">
      <!-- 4 -->
      <g transform="translate(154.325329 322.182437) scale(0.1 -0.1)">
       <defs>
        <path id="DejaVuSans-34" d="M 2419 4116 
L 825 1625 
L 2419 1625 
L 2419 4116 
z
M 2253 4666 
L 3047 4666 
L 3047 1625 
L 3713 1625 
L 3713 1100 
L 3047 1100 
L 3047 0 
L 2419 0 
L 2419 1100 
L 313 1100 
L 313 1709 
L 2253 4666 
z
" transform="scale(0.015625)"/>
       </defs>
       <use xlink:href="#DejaVuSans-34"/>
      </g>
     </g>
    </g>
    <g id="xtick_4">
     <g id="line2d_7">
      <path d="M 199.343505 307.584 
L 199.343505 41.472 
" clip-path="url(#pc6bd024999)" style="fill: none; stroke: #b0b0b0; stroke-width: 0.8; stroke-linecap: square"/>
     </g>
     <g id="line2d_8">
      <g>
       <use xlink:href="#m3987036753" x="199.343505" y="307.584" style="stroke: #000000; stroke-width: 0.8"/>
      </g>
     </g>
     <g id="text_4">
      <!-- 6 -->
      <g transform="translate(196.162255 322.182437) scale(0.1 -0.1)">
       <defs>
        <path id="DejaVuSans-36" d="M 2113 2584 
Q 1688 2584 1439 2293 
Q 1191 2003 1191 1497 
Q 1191 994 1439 701 
Q 1688 409 2113 409 
Q 2538 409 2786 701 
Q 3034 994 3034 1497 
Q 3034 2003 2786 2293 
Q 2538 2584 2113 2584 
z
M 3366 4563 
L 3366 3988 
Q 3128 4100 2886 4159 
Q 2644 4219 2406 4219 
Q 1781 4219 1451 3797 
Q 1122 3375 1075 2522 
Q 1259 2794 1537 2939 
Q 1816 3084 2150 3084 
Q 2853 3084 3261 2657 
Q 3669 2231 3669 1497 
Q 3669 778 3244 343 
Q 2819 -91 2113 -91 
Q 1303 -91 875 529 
Q 447 1150 447 2328 
Q 447 3434 972 4092 
Q 1497 4750 2381 4750 
Q 2619 4750 2861 4703 
Q 3103 4656 3366 4563 
z
" transform="scale(0.015625)"/>
       </defs>
       <use xlink:href="#DejaVuSans-36"/>
      </g>
     </g>
    </g>
    <g id="xtick_5">
     <g id="line2d_9">
      <path d="M 241.180431 307.584 
L 241.180431 41.472 
" clip-path="url(#pc6bd024999)" style="fill: none; stroke: #b0b0b0; stroke-width: 0.8; stroke-linecap: square"/>
     </g>
     <g id="line2d_10">
      <g>
       <use xlink:href="#m3987036753" x="241.180431" y="307.584" style="stroke: #000000; stroke-width: 0.8"/>
      </g>
     </g>
     <g id="text_5">
      <!-- 8 -->
      <g transform="translate(237.999181 322.182437) scale(0.1 -0.1)">
       <defs>
        <path id="DejaVuSans-38" d="M 2034 2216 
Q 1584 2216 1326 1975 
Q 1069 1734 1069 1313 
Q 1069 891 1326 650 
Q 1584 409 2034 409 
Q 2484 409 2743 651 
Q 3003 894 3003 1313 
Q 3003 1734 2745 1975 
Q 2488 2216 2034 2216 
z
M 1403 2484 
Q 997 2584 770 2862 
Q 544 3141 544 3541 
Q 544 4100 942 4425 
Q 1341 4750 2034 4750 
Q 2731 4750 3128 4425 
Q 3525 4100 3525 3541 
Q 3525 3141 3298 2862 
Q 3072 2584 2669 2484 
Q 3125 2378 3379 2068 
Q 3634 1759 3634 1313 
Q 3634 634 3220 271 
Q 2806 -91 2034 -91 
Q 1263 -91 848 271 
Q 434 634 434 1313 
Q 434 1759 690 2068 
Q 947 2378 1403 2484 
z
M 1172 3481 
Q 1172 3119 1398 2916 
Q 1625 2713 2034 2713 
Q 2441 2713 2670 2916 
Q 2900 3119 2900 3481 
Q 2900 3844 2670 4047 
Q 2441 4250 2034 4250 
Q 1625 4250 1398 4047 
Q 1172 3844 1172 3481 
z
" transform="scale(0.015625)"/>
       </defs>
       <use xlink:href="#DejaVuSans-38"/>
      </g>
     </g>
    </g>
    <g id="xtick_6">
     <g id="line2d_11">
      <path d="M 283.017357 307.584 
L 283.017357 41.472 
" clip-path="url(#pc6bd024999)" style="fill: none; stroke: #b0b0b0; stroke-width: 0.8; stroke-linecap: square"/>
     </g>
     <g id="line2d_12">
      <g>
       <use xlink:href="#m3987036753" x="283.017357" y="307.584" style="stroke: #000000; stroke-width: 0.8"/>
      </g>
     </g>
     <g id="text_6">
      <!-- 10 -->
      <g transform="translate(276.654857 322.182437) scale(0.1 -0.1)">
       <defs>
        <path id="DejaVuSans-31" d="M 794 531 
L 1825 531 
L 1825 4091 
L 703 3866 
L 703 4441 
L 1819 4666 
L 2450 4666 
L 2450 531 
L 3481 531 
L 3481 0 
L 794 0 
L 794 531 
z
" transform="scale(0.015625)"/>
       </defs>
       <use xlink:href="#DejaVuSans-31"/>
       <use xlink:href="#DejaVuSans-30" x="63.623047"/>
      </g>
     </g>
    </g>
    <g id="xtick_7">
     <g id="line2d_13">
      <path d="M 324.854283 307.584 
L 324.854283 41.472 
" clip-path="url(#pc6bd024999)" style="fill: none; stroke: #b0b0b0; stroke-width: 0.8; stroke-linecap: square"/>
     </g>
     <g id="line2d_14">
      <g>
       <use xlink:href="#m3987036753" x="324.854283" y="307.584" style="stroke: #000000; stroke-width: 0.8"/>
      </g>
     </g>
     <g id="text_7">
      <!-- 12 -->
      <g transform="translate(318.491783 322.182437) scale(0.1 -0.1)">
       <use xlink:href="#DejaVuSans-31"/>
       <use xlink:href="#DejaVuSans-32" x="63.623047"/>
      </g>
     </g>
    </g>
    <g id="xtick_8">
     <g id="line2d_15">
      <path d="M 366.691209 307.584 
L 366.691209 41.472 
" clip-path="url(#pc6bd024999)" style="fill: none; stroke: #b0b0b0; stroke-width: 0.8; stroke-linecap: square"/>
     </g>
     <g id="line2d_16">
      <g>
       <use xlink:href="#m3987036753" x="366.691209" y="307.584" style="stroke: #000000; stroke-width: 0.8"/>
      </g>
     </g>
     <g id="text_8">
      <!-- 14 -->
      <g transform="translate(360.328709 322.182437) scale(0.1 -0.1)">
       <use xlink:href="#DejaVuSans-31"/>
       <use xlink:href="#DejaVuSans-34" x="63.623047"/>
      </g>
     </g>
    </g>
    <g id="xtick_9">
     <g id="line2d_17">
      <path d="M 408.528135 307.584 
L 408.528135 41.472 
" clip-path="url(#pc6bd024999)" style="fill: none; stroke: #b0b0b0; stroke-width: 0.8; stroke-linecap: square"/>
     </g>
     <g id="line2d_18">
      <g>
       <use xlink:href="#m3987036753" x="408.528135" y="307.584" style="stroke: #000000; stroke-width: 0.8"/>
      </g>
     </g>
     <g id="text_9">
      <!-- 16 -->
      <g transform="translate(402.165635 322.182437) scale(0.1 -0.1)">
       <use xlink:href="#DejaVuSans-31"/>
       <use xlink:href="#DejaVuSans-36" x="63.623047"/>
      </g>
     </g>
    </g>
    <g id="text_10">
     <!-- Time(s) -->
     <g transform="translate(217.420156 335.860562) scale(0.1 -0.1)">
      <defs>
       <path id="DejaVuSans-54" d="M -19 4666 
L 3928 4666 
L 3928 4134 
L 2272 4134 
L 2272 0 
L 1638 0 
L 1638 4134 
L -19 4134 
L -19 4666 
z
" transform="scale(0.015625)"/>
       <path id="DejaVuSans-69" d="M 603 3500 
L 1178 3500 
L 1178 0 
L 603 0 
L 603 3500 
z
M 603 4863 
L 1178 4863 
L 1178 4134 
L 603 4134 
L 603 4863 
z
" transform="scale(0.015625)"/>
       <path id="DejaVuSans-6d" d="M 3328 2828 
Q 3544 3216 3844 3400 
Q 4144 3584 4550 3584 
Q 5097 3584 5394 3201 
Q 5691 2819 5691 2113 
L 5691 0 
L 5113 0 
L 5113 2094 
Q 5113 2597 4934 2840 
Q 4756 3084 4391 3084 
Q 3944 3084 3684 2787 
Q 3425 2491 3425 1978 
L 3425 0 
L 2847 0 
L 2847 2094 
Q 2847 2600 2669 2842 
Q 2491 3084 2119 3084 
Q 1678 3084 1418 2786 
Q 1159 2488 1159 1978 
L 1159 0 
L 581 0 
L 581 3500 
L 1159 3500 
L 1159 2956 
Q 1356 3278 1631 3431 
Q 1906 3584 2284 3584 
Q 2666 3584 2933 3390 
Q 3200 3197 3328 2828 
z
" transform="scale(0.015625)"/>
       <path id="DejaVuSans-65" d="M 3597 1894 
L 3597 1613 
L 953 1613 
Q 991 1019 1311 708 
Q 1631 397 2203 397 
Q 2534 397 2845 478 
Q 3156 559 3463 722 
L 3463 178 
Q 3153 47 2828 -22 
Q 2503 -91 2169 -91 
Q 1331 -91 842 396 
Q 353 884 353 1716 
Q 353 2575 817 3079 
Q 1281 3584 2069 3584 
Q 2775 3584 3186 3129 
Q 3597 2675 3597 1894 
z
M 3022 2063 
Q 3016 2534 2758 2815 
Q 2500 3097 2075 3097 
Q 1594 3097 1305 2825 
Q 1016 2553 972 2059 
L 3022 2063 
z
" transform="scale(0.015625)"/>
       <path id="DejaVuSans-28" d="M 1984 4856 
Q 1566 4138 1362 3434 
Q 1159 2731 1159 2009 
Q 1159 1288 1364 580 
Q 1569 -128 1984 -844 
L 1484 -844 
Q 1016 -109 783 600 
Q 550 1309 550 2009 
Q 550 2706 781 3412 
Q 1013 4119 1484 4856 
L 1984 4856 
z
" transform="scale(0.015625)"/>
       <path id="DejaVuSans-73" d="M 2834 3397 
L 2834 2853 
Q 2591 2978 2328 3040 
Q 2066 3103 1784 3103 
Q 1356 3103 1142 2972 
Q 928 2841 928 2578 
Q 928 2378 1081 2264 
Q 1234 2150 1697 2047 
L 1894 2003 
Q 2506 1872 2764 1633 
Q 3022 1394 3022 966 
Q 3022 478 2636 193 
Q 2250 -91 1575 -91 
Q 1294 -91 989 -36 
Q 684 19 347 128 
L 347 722 
Q 666 556 975 473 
Q 1284 391 1588 391 
Q 1994 391 2212 530 
Q 2431 669 2431 922 
Q 2431 1156 2273 1281 
Q 2116 1406 1581 1522 
L 1381 1569 
Q 847 1681 609 1914 
Q 372 2147 372 2553 
Q 372 3047 722 3315 
Q 1072 3584 1716 3584 
Q 2034 3584 2315 3537 
Q 2597 3491 2834 3397 
z
" transform="scale(0.015625)"/>
       <path id="DejaVuSans-29" d="M 513 4856 
L 1013 4856 
Q 1481 4119 1714 3412 
Q 1947 2706 1947 2009 
Q 1947 1309 1714 600 
Q 1481 -109 1013 -844 
L 513 -844 
Q 928 -128 1133 580 
Q 1338 1288 1338 2009 
Q 1338 2731 1133 3434 
Q 928 4138 513 4856 
z
" transform="scale(0.015625)"/>
      </defs>
      <use xlink:href="#DejaVuSans-54"/>
      <use xlink:href="#DejaVuSans-69" x="57.958984"/>
      <use xlink:href="#DejaVuSans-6d" x="85.742188"/>
      <use xlink:href="#DejaVuSans-65" x="183.154297"/>
      <use xlink:href="#DejaVuSans-28" x="244.677734"/>
      <use xlink:href="#DejaVuSans-73" x="283.691406"/>
      <use xlink:href="#DejaVuSans-29" x="335.791016"/>
     </g>
    </g>
   </g>
   <g id="matplotlib.axis_2">
    <g id="ytick_1">
     <g id="line2d_19">
      <path d="M 57.6 295.415096 
L 414.72 295.415096 
" clip-path="url(#pc6bd024999)" style="fill: none; stroke: #b0b0b0; stroke-width: 0.8; stroke-linecap: square"/>
     </g>
     <g id="line2d_20">
      <defs>
       <path id="mbc8c1e1e87" d="M 0 0 
L -3.5 0 
" style="stroke: #000000; stroke-width: 0.8"/>
      </defs>
      <g>
       <use xlink:href="#mbc8c1e1e87" x="57.6" y="295.415096" style="stroke: #000000; stroke-width: 0.8"/>
      </g>
     </g>
     <g id="text_11">
      <!-- 0 -->
      <g transform="translate(44.2375 299.214315) scale(0.1 -0.1)">
       <use xlink:href="#DejaVuSans-30"/>
      </g>
     </g>
    </g>
    <g id="ytick_2">
     <g id="line2d_21">
      <path d="M 57.6 265.202212 
L 414.72 265.202212 
" clip-path="url(#pc6bd024999)" style="fill: none; stroke: #b0b0b0; stroke-width: 0.8; stroke-linecap: square"/>
     </g>
     <g id="line2d_22">
      <g>
       <use xlink:href="#mbc8c1e1e87" x="57.6" y="265.202212" style="stroke: #000000; stroke-width: 0.8"/>
      </g>
     </g>
     <g id="text_12">
      <!-- 1 -->
      <g transform="translate(44.2375 269.001431) scale(0.1 -0.1)">
       <use xlink:href="#DejaVuSans-31"/>
      </g>
     </g>
    </g>
    <g id="ytick_3">
     <g id="line2d_23">
      <path d="M 57.6 234.989328 
L 414.72 234.989328 
" clip-path="url(#pc6bd024999)" style="fill: none; stroke: #b0b0b0; stroke-width: 0.8; stroke-linecap: square"/>
     </g>
     <g id="line2d_24">
      <g>
       <use xlink:href="#mbc8c1e1e87" x="57.6" y="234.989328" style="stroke: #000000; stroke-width: 0.8"/>
      </g>
     </g>
     <g id="text_13">
      <!-- 2 -->
      <g transform="translate(44.2375 238.788547) scale(0.1 -0.1)">
       <use xlink:href="#DejaVuSans-32"/>
      </g>
     </g>
    </g>
    <g id="ytick_4">
     <g id="line2d_25">
      <path d="M 57.6 204.776445 
L 414.72 204.776445 
" clip-path="url(#pc6bd024999)" style="fill: none; stroke: #b0b0b0; stroke-width: 0.8; stroke-linecap: square"/>
     </g>
     <g id="line2d_26">
      <g>
       <use xlink:href="#mbc8c1e1e87" x="57.6" y="204.776445" style="stroke: #000000; stroke-width: 0.8"/>
      </g>
     </g>
     <g id="text_14">
      <!-- 3 -->
      <g transform="translate(44.2375 208.575663) scale(0.1 -0.1)">
       <defs>
        <path id="DejaVuSans-33" d="M 2597 2516 
Q 3050 2419 3304 2112 
Q 3559 1806 3559 1356 
Q 3559 666 3084 287 
Q 2609 -91 1734 -91 
Q 1441 -91 1130 -33 
Q 819 25 488 141 
L 488 750 
Q 750 597 1062 519 
Q 1375 441 1716 441 
Q 2309 441 2620 675 
Q 2931 909 2931 1356 
Q 2931 1769 2642 2001 
Q 2353 2234 1838 2234 
L 1294 2234 
L 1294 2753 
L 1863 2753 
Q 2328 2753 2575 2939 
Q 2822 3125 2822 3475 
Q 2822 3834 2567 4026 
Q 2313 4219 1838 4219 
Q 1578 4219 1281 4162 
Q 984 4106 628 3988 
L 628 4550 
Q 988 4650 1302 4700 
Q 1616 4750 1894 4750 
Q 2613 4750 3031 4423 
Q 3450 4097 3450 3541 
Q 3450 3153 3228 2886 
Q 3006 2619 2597 2516 
z
" transform="scale(0.015625)"/>
       </defs>
       <use xlink:href="#DejaVuSans-33"/>
      </g>
     </g>
    </g>
    <g id="ytick_5">
     <g id="line2d_27">
      <path d="M 57.6 174.563561 
L 414.72 174.563561 
" clip-path="url(#pc6bd024999)" style="fill: none; stroke: #b0b0b0; stroke-width: 0.8; stroke-linecap: square"/>
     </g>
     <g id="line2d_28">
      <g>
       <use xlink:href="#mbc8c1e1e87" x="57.6" y="174.563561" style="stroke: #000000; stroke-width: 0.8"/>
      </g>
     </g>
     <g id="text_15">
      <!-- 4 -->
      <g transform="translate(44.2375 178.362779) scale(0.1 -0.1)">
       <use xlink:href="#DejaVuSans-34"/>
      </g>
     </g>
    </g>
    <g id="ytick_6">
     <g id="line2d_29">
      <path d="M 57.6 144.350677 
L 414.72 144.350677 
" clip-path="url(#pc6bd024999)" style="fill: none; stroke: #b0b0b0; stroke-width: 0.8; stroke-linecap: square"/>
     </g>
     <g id="line2d_30">
      <g>
       <use xlink:href="#mbc8c1e1e87" x="57.6" y="144.350677" style="stroke: #000000; stroke-width: 0.8"/>
      </g>
     </g>
     <g id="text_16">
      <!-- 5 -->
      <g transform="translate(44.2375 148.149895) scale(0.1 -0.1)">
       <defs>
        <path id="DejaVuSans-35" d="M 691 4666 
L 3169 4666 
L 3169 4134 
L 1269 4134 
L 1269 2991 
Q 1406 3038 1543 3061 
Q 1681 3084 1819 3084 
Q 2600 3084 3056 2656 
Q 3513 2228 3513 1497 
Q 3513 744 3044 326 
Q 2575 -91 1722 -91 
Q 1428 -91 1123 -41 
Q 819 9 494 109 
L 494 744 
Q 775 591 1075 516 
Q 1375 441 1709 441 
Q 2250 441 2565 725 
Q 2881 1009 2881 1497 
Q 2881 1984 2565 2268 
Q 2250 2553 1709 2553 
Q 1456 2553 1204 2497 
Q 953 2441 691 2322 
L 691 4666 
z
" transform="scale(0.015625)"/>
       </defs>
       <use xlink:href="#DejaVuSans-35"/>
      </g>
     </g>
    </g>
    <g id="ytick_7">
     <g id="line2d_31">
      <path d="M 57.6 114.137793 
L 414.72 114.137793 
" clip-path="url(#pc6bd024999)" style="fill: none; stroke: #b0b0b0; stroke-width: 0.8; stroke-linecap: square"/>
     </g>
     <g id="line2d_32">
      <g>
       <use xlink:href="#mbc8c1e1e87" x="57.6" y="114.137793" style="stroke: #000000; stroke-width: 0.8"/>
      </g>
     </g>
     <g id="text_17">
      <!-- 6 -->
      <g transform="translate(44.2375 117.937011) scale(0.1 -0.1)">
       <use xlink:href="#DejaVuSans-36"/>
      </g>
     </g>
    </g>
    <g id="ytick_8">
     <g id="line2d_33">
      <path d="M 57.6 83.924909 
L 414.72 83.924909 
" clip-path="url(#pc6bd024999)" style="fill: none; stroke: #b0b0b0; stroke-width: 0.8; stroke-linecap: square"/>
     </g>
     <g id="line2d_34">
      <g>
       <use xlink:href="#mbc8c1e1e87" x="57.6" y="83.924909" style="stroke: #000000; stroke-width: 0.8"/>
      </g>
     </g>
     <g id="text_18">
      <!-- 7 -->
      <g transform="translate(44.2375 87.724128) scale(0.1 -0.1)">
       <defs>
        <path id="DejaVuSans-37" d="M 525 4666 
L 3525 4666 
L 3525 4397 
L 1831 0 
L 1172 0 
L 2766 4134 
L 525 4134 
L 525 4666 
z
" transform="scale(0.015625)"/>
       </defs>
       <use xlink:href="#DejaVuSans-37"/>
      </g>
     </g>
    </g>
    <g id="ytick_9">
     <g id="line2d_35">
      <path d="M 57.6 53.712025 
L 414.72 53.712025 
" clip-path="url(#pc6bd024999)" style="fill: none; stroke: #b0b0b0; stroke-width: 0.8; stroke-linecap: square"/>
     </g>
     <g id="line2d_36">
      <g>
       <use xlink:href="#mbc8c1e1e87" x="57.6" y="53.712025" style="stroke: #000000; stroke-width: 0.8"/>
      </g>
     </g>
     <g id="text_19">
      <!-- 8 -->
      <g transform="translate(44.2375 57.511244) scale(0.1 -0.1)">
       <use xlink:href="#DejaVuSans-38"/>
      </g>
     </g>
    </g>
    <g id="text_20">
     <!-- Velocity(m/s) -->
     <g transform="translate(38.157812 207.204563) rotate(-90) scale(0.1 -0.1)">
      <defs>
       <path id="DejaVuSans-56" d="M 1831 0 
L 50 4666 
L 709 4666 
L 2188 738 
L 3669 4666 
L 4325 4666 
L 2547 0 
L 1831 0 
z
" transform="scale(0.015625)"/>
       <path id="DejaVuSans-6c" d="M 603 4863 
L 1178 4863 
L 1178 0 
L 603 0 
L 603 4863 
z
" transform="scale(0.015625)"/>
       <path id="DejaVuSans-6f" d="M 1959 3097 
Q 1497 3097 1228 2736 
Q 959 2375 959 1747 
Q 959 1119 1226 758 
Q 1494 397 1959 397 
Q 2419 397 2687 759 
Q 2956 1122 2956 1747 
Q 2956 2369 2687 2733 
Q 2419 3097 1959 3097 
z
M 1959 3584 
Q 2709 3584 3137 3096 
Q 3566 2609 3566 1747 
Q 3566 888 3137 398 
Q 2709 -91 1959 -91 
Q 1206 -91 779 398 
Q 353 888 353 1747 
Q 353 2609 779 3096 
Q 1206 3584 1959 3584 
z
" transform="scale(0.015625)"/>
       <path id="DejaVuSans-63" d="M 3122 3366 
L 3122 2828 
Q 2878 2963 2633 3030 
Q 2388 3097 2138 3097 
Q 1578 3097 1268 2742 
Q 959 2388 959 1747 
Q 959 1106 1268 751 
Q 1578 397 2138 397 
Q 2388 397 2633 464 
Q 2878 531 3122 666 
L 3122 134 
Q 2881 22 2623 -34 
Q 2366 -91 2075 -91 
Q 1284 -91 818 406 
Q 353 903 353 1747 
Q 353 2603 823 3093 
Q 1294 3584 2113 3584 
Q 2378 3584 2631 3529 
Q 2884 3475 3122 3366 
z
" transform="scale(0.015625)"/>
       <path id="DejaVuSans-74" d="M 1172 4494 
L 1172 3500 
L 2356 3500 
L 2356 3053 
L 1172 3053 
L 1172 1153 
Q 1172 725 1289 603 
Q 1406 481 1766 481 
L 2356 481 
L 2356 0 
L 1766 0 
Q 1100 0 847 248 
Q 594 497 594 1153 
L 594 3053 
L 172 3053 
L 172 3500 
L 594 3500 
L 594 4494 
L 1172 4494 
z
" transform="scale(0.015625)"/>
       <path id="DejaVuSans-79" d="M 2059 -325 
Q 1816 -950 1584 -1140 
Q 1353 -1331 966 -1331 
L 506 -1331 
L 506 -850 
L 844 -850 
Q 1081 -850 1212 -737 
Q 1344 -625 1503 -206 
L 1606 56 
L 191 3500 
L 800 3500 
L 1894 763 
L 2988 3500 
L 3597 3500 
L 2059 -325 
z
" transform="scale(0.015625)"/>
       <path id="DejaVuSans-2f" d="M 1625 4666 
L 2156 4666 
L 531 -594 
L 0 -594 
L 1625 4666 
z
" transform="scale(0.015625)"/>
      </defs>
      <use xlink:href="#DejaVuSans-56"/>
      <use xlink:href="#DejaVuSans-65" x="60.658203"/>
      <use xlink:href="#DejaVuSans-6c" x="122.181641"/>
      <use xlink:href="#DejaVuSans-6f" x="149.964844"/>
      <use xlink:href="#DejaVuSans-63" x="211.146484"/>
      <use xlink:href="#DejaVuSans-69" x="266.126953"/>
      <use xlink:href="#DejaVuSans-74" x="293.910156"/>
      <use xlink:href="#DejaVuSans-79" x="333.119141"/>
      <use xlink:href="#DejaVuSans-28" x="392.298828"/>
      <use xlink:href="#DejaVuSans-6d" x="431.3125"/>
      <use xlink:href="#DejaVuSans-2f" x="528.724609"/>
      <use xlink:href="#DejaVuSans-73" x="562.416016"/>
      <use xlink:href="#DejaVuSans-29" x="614.515625"/>
     </g>
    </g>
   </g>
   <g id="line2d_37">
    <path d="M 73.832727 295.488 
L 73.832727 295.440596 
L 74.251097 294.746092 
L 74.251097 294.749386 
L 74.669466 293.213302 
L 75.924574 288.482085 
L 75.924574 288.678107 
L 79.271528 276.779336 
L 79.271528 276.88632 
L 80.108266 273.797657 
L 80.108266 273.987001 
L 80.945005 270.62476 
L 80.945005 270.661922 
L 82.200112 266.179811 
L 82.200112 266.245886 
L 87.220544 247.732911 
L 87.220544 247.894218 
L 88.057282 244.596874 
L 88.894021 241.548334 
L 88.894021 241.453466 
L 90.567498 235.262362 
L 90.567498 235.082475 
L 92.240975 228.94231 
L 103.118575 186.413809 
L 103.118575 186.362598 
L 112.741068 146.94832 
L 112.741068 146.755501 
L 113.996176 141.604477 
L 114.832915 138.049991 
L 114.832915 138.209787 
L 118.598238 121.652341 
L 118.598238 121.869783 
L 119.434977 118.109609 
L 123.2003 101.687456 
L 123.2003 101.607029 
L 126.547254 86.778244 
L 126.547254 86.807037 
L 130.312577 69.970303 
L 130.312577 70.018492 
L 131.149316 67.054216 
L 131.149316 67.177484 
L 131.986054 64.478175 
L 132.404424 63.736539 
L 133.659531 61.193218 
L 133.659531 61.219534 
L 134.077901 60.606907 
L 134.077901 60.624612 
L 134.49627 60.381398 
L 134.49627 60.117307 
L 134.914639 59.795782 
L 134.914639 59.921105 
L 135.333008 59.752094 
L 135.333008 59.587947 
L 135.751378 59.953221 
L 135.751378 59.672815 
L 136.169747 60.095765 
L 136.169747 60.443032 
L 136.588116 60.803955 
L 136.588116 61.136176 
L 137.006485 61.645203 
L 137.006485 61.940836 
L 137.424855 63.633211 
L 137.843224 65.879327 
L 138.679963 68.814932 
L 138.679963 69.007448 
L 139.516701 73.901603 
L 139.516701 73.691654 
L 140.35344 79.405394 
L 141.190178 86.675822 
L 141.190178 86.565062 
L 141.608547 89.817056 
L 142.026917 93.797059 
L 142.026917 93.67092 
L 142.863655 99.617873 
L 142.863655 99.369131 
L 143.282024 103.407445 
L 143.282024 103.227316 
L 144.118763 108.176156 
L 144.118763 108.099808 
L 144.537132 111.705656 
L 144.955501 113.678919 
L 145.79224 118.032445 
L 146.210609 119.80011 
L 146.210609 119.540914 
L 146.628978 122.22844 
L 146.628978 122.144116 
L 148.302455 128.417097 
L 148.302455 128.32386 
L 149.557563 132.3077 
L 149.557563 132.270659 
L 149.975933 133.39053 
L 150.394302 134.415321 
L 150.394302 134.036633 
L 151.23104 136.028508 
L 151.23104 135.967931 
L 151.64941 136.235707 
L 151.64941 136.390095 
L 152.486148 137.725444 
L 152.904517 137.830766 
L 152.904517 137.990985 
L 153.322887 138.386955 
L 153.322887 138.336832 
L 153.741256 138.373329 
L 153.741256 138.775342 
L 154.159625 139.004749 
L 154.159625 139.179621 
L 154.996364 139.200196 
L 154.996364 139.530151 
L 155.414733 139.149106 
L 155.414733 139.451537 
L 155.833102 139.408483 
L 155.833102 139.505436 
L 156.251471 139.543656 
L 156.251471 139.530271 
L 157.08821 139.464498 
L 157.08821 139.658586 
L 157.506579 139.320564 
L 157.506579 139.504409 
L 158.343318 139.399238 
L 158.343318 139.496886 
L 159.180056 139.646954 
L 159.180056 139.632995 
L 159.598425 139.257812 
L 159.598425 139.338994 
L 160.016795 139.346698 
L 160.016795 139.495013 
L 160.435164 139.339658 
L 160.435164 139.584413 
L 160.853533 139.157384 
L 160.853533 139.296816 
L 161.271903 139.263975 
L 161.271903 139.137051 
L 161.690272 138.998464 
L 162.94538 138.291604 
L 162.94538 138.46427 
L 163.363749 138.121656 
L 163.363749 137.915302 
L 163.782118 137.858834 
L 163.782118 137.988719 
L 165.455595 135.363854 
L 165.455595 135.613534 
L 166.292334 133.486184 
L 166.710703 132.68518 
L 167.129072 131.225656 
L 167.129072 131.522558 
L 167.547441 130.278331 
L 167.965811 128.623118 
L 167.965811 128.818596 
L 168.38418 127.493217 
L 169.639288 121.965649 
L 169.639288 122.003717 
L 170.894396 116.539838 
L 170.894396 116.606608 
L 171.731134 113.058588 
L 172.149503 111.244698 
L 173.404611 105.547424 
L 173.404611 105.685618 
L 174.24135 102.208417 
L 174.24135 102.472991 
L 175.496457 98.613084 
L 177.588304 94.436394 
L 178.006673 93.941567 
L 178.006673 94.154568 
L 178.425042 93.171048 
L 178.425042 93.23087 
L 180.516888 90.571864 
L 180.516888 90.436994 
L 181.353627 89.079831 
L 181.353627 88.918827 
L 182.190366 87.081309 
L 183.863843 81.844238 
L 183.863843 81.569935 
L 186.374058 70.562506 
L 186.374058 70.77318 
L 187.629166 67.336253 
L 187.629166 67.664727 
L 188.465904 66.185384 
L 188.465904 66.407086 
L 189.302643 65.127721 
L 189.302643 65.300025 
L 189.721012 64.88203 
L 190.139381 64.389711 
L 190.139381 64.679906 
L 190.557751 64.073654 
L 190.557751 64.411525 
L 190.97612 63.869173 
L 191.394489 63.888328 
L 191.394489 63.395133 
L 191.812858 63.523296 
L 191.812858 63.280838 
L 192.231228 63.217572 
L 192.649597 63.057414 
L 192.649597 62.759998 
L 193.067966 62.630596 
L 193.486336 62.359496 
L 193.486336 62.555245 
L 194.323074 61.96265 
L 194.323074 61.622 
L 194.741443 61.418999 
L 195.578182 60.506298 
L 195.578182 60.518534 
L 196.41492 59.382016 
L 196.41492 59.593204 
L 197.670028 57.850525 
L 197.670028 57.853486 
L 198.925136 56.826883 
L 198.925136 56.871205 
L 199.343505 56.473513 
L 199.343505 56.542247 
L 199.761874 56.207035 
L 200.180244 56.157697 
L 200.598613 55.931765 
L 201.016982 55.695712 
L 201.016982 55.434552 
L 201.435351 55.564769 
L 201.435351 55.28672 
L 201.853721 55.264484 
L 201.853721 55.517637 
L 202.27209 55.172485 
L 202.690459 55.199224 
L 202.690459 54.844011 
L 203.108828 55.075049 
L 203.527198 54.878756 
L 203.527198 55.016043 
L 203.945567 54.557502 
L 203.945567 54.585026 
L 204.782306 54.458041 
L 204.782306 54.498104 
L 206.037413 54.295587 
L 206.455783 54.233197 
L 206.455783 54.059715 
L 207.292521 54.064307 
L 207.292521 54.37843 
L 208.12926 53.818404 
L 208.547629 54.242442 
L 208.547629 53.898166 
L 208.965998 54.058657 
L 208.965998 54.058567 
L 209.384367 54.048898 
L 209.384367 53.862848 
L 209.802737 53.817317 
L 209.802737 53.88306 
L 210.221106 53.917231 
L 210.221106 53.77239 
L 210.639475 54.023671 
L 210.639475 54.180143 
L 211.057844 53.959801 
L 211.057844 54.013489 
L 211.476214 53.920433 
L 211.476214 53.959589 
L 211.894583 53.970375 
L 211.894583 53.826441 
L 212.312952 53.604497 
L 212.312952 54.028716 
L 212.731321 54.310059 
L 212.731321 54.107058 
L 213.149691 54.299242 
L 213.149691 54.282535 
L 213.56806 54.046421 
L 213.56806 54.37266 
L 213.986429 53.87874 
L 213.986429 53.997869 
L 214.404799 54.063793 
L 214.404799 54.224254 
L 214.823168 54.151048 
L 214.823168 53.922337 
L 215.241537 54.057781 
L 215.241537 53.974786 
L 215.659906 53.937141 
L 215.659906 53.768432 
L 216.078276 53.942912 
L 216.078276 53.791152 
L 216.496645 54.087903 
L 216.915014 53.849463 
L 216.915014 53.95406 
L 217.333383 53.840792 
L 217.751753 53.977415 
L 217.751753 53.831607 
L 218.170122 53.87025 
L 218.170122 54.094067 
L 218.588491 53.568 
L 218.588491 53.725137 
L 219.00686 53.809763 
L 219.00686 54.171804 
L 219.42523 53.888257 
L 219.42523 53.991403 
L 219.843599 54.14851 
L 219.843599 54.002582 
L 220.261968 54.053823 
L 220.261968 53.897109 
L 220.680337 54.184826 
L 220.680337 54.049503 
L 221.098707 53.920735 
L 221.098707 54.098236 
L 221.517076 54.08177 
L 221.517076 53.902759 
L 221.935445 54.232895 
L 221.935445 53.968713 
L 222.353814 53.975058 
L 222.353814 53.794959 
L 223.190553 54.03497 
L 223.190553 53.619724 
L 223.608922 53.909496 
L 223.608922 53.909073 
L 224.027291 53.788705 
L 224.027291 54.176578 
L 224.445661 53.701088 
L 224.445661 53.969529 
L 224.86403 54.318337 
L 224.86403 54.210658 
L 225.282399 54.159206 
L 225.282399 53.963185 
L 225.700769 53.867379 
L 225.700769 53.959952 
L 226.537507 53.926959 
L 226.537507 54.049291 
L 226.955876 54.024517 
L 226.955876 53.901278 
L 227.374246 54.352115 
L 227.374246 54.206187 
L 227.792615 55.414007 
L 228.210984 57.128981 
L 228.629353 59.230287 
L 229.047723 60.883053 
L 229.884461 64.422825 
L 229.884461 64.595219 
L 230.30283 66.981523 
L 230.30283 66.788252 
L 231.557938 72.364523 
L 231.557938 72.084419 
L 231.976307 74.6249 
L 231.976307 74.390146 
L 233.231415 79.815836 
L 233.649784 81.888198 
L 233.649784 81.743357 
L 234.486523 84.688419 
L 234.486523 84.661529 
L 235.323261 87.849834 
L 235.323261 87.78681 
L 236.996739 93.489975 
L 236.996739 93.34444 
L 237.415108 94.843482 
L 237.415108 94.690575 
L 237.833477 95.898698 
L 237.833477 95.678869 
L 238.670216 97.709356 
L 238.670216 97.921964 
L 239.088585 98.339808 
L 239.088585 98.569607 
L 239.925323 100.581393 
L 241.5988 103.528357 
L 241.5988 103.5273 
L 242.01717 104.053729 
L 242.01717 103.995902 
L 242.435539 104.388941 
L 242.435539 104.59747 
L 242.853908 104.944042 
L 242.853908 104.907062 
L 243.272277 105.664317 
L 243.272277 105.606641 
L 243.690647 105.774292 
L 244.527385 106.367945 
L 244.527385 106.219358 
L 244.945754 106.524448 
L 246.200862 107.195567 
L 246.200862 106.878241 
L 246.619231 106.996132 
L 246.619231 107.186926 
L 247.037601 107.169493 
L 247.037601 107.315421 
L 247.45597 107.421529 
L 247.45597 107.263062 
L 248.292709 107.488028 
L 248.711078 107.185506 
L 248.711078 107.261703 
L 249.129447 107.269045 
L 249.129447 107.205205 
L 249.547816 107.420895 
L 249.547816 107.372222 
L 250.802924 107.225266 
L 250.802924 107.290677 
L 251.221293 107.459688 
L 251.639663 107.303699 
L 251.639663 107.074232 
L 252.058032 107.282308 
L 252.058032 107.232457 
L 252.476401 107.038279 
L 252.476401 107.27406 
L 253.731509 107.189373 
L 253.731509 106.979786 
L 254.149878 107.078129 
L 254.149878 106.903982 
L 254.568247 106.873528 
L 254.568247 106.74186 
L 254.986617 106.537107 
L 254.986617 106.757208 
L 255.404986 106.472573 
L 255.404986 106.64672 
L 255.823355 106.570221 
L 255.823355 106.593696 
L 256.241724 106.236308 
L 256.660094 106.211503 
L 256.660094 106.058384 
L 257.078463 106.036933 
L 257.496832 105.601173 
L 257.496832 105.677521 
L 258.333571 105.039787 
L 258.333571 104.904645 
L 258.75194 104.750922 
L 258.75194 104.866607 
L 260.007048 103.515879 
L 260.425417 103.369468 
L 262.098894 100.954522 
L 262.098894 101.031202 
L 264.60911 96.309895 
L 264.60911 96.468029 
L 266.282587 92.319861 
L 266.282587 92.026524 
L 266.700956 90.993092 
L 267.537694 88.012319 
L 267.956064 86.726972 
L 267.956064 86.812807 
L 268.374433 84.970849 
L 268.374433 85.064569 
L 268.792802 83.833001 
L 268.792802 83.485644 
L 270.466279 76.024089 
L 271.721387 70.520389 
L 271.721387 70.743753 
L 272.558126 67.39692 
L 272.558126 67.522908 
L 274.231603 63.143762 
L 274.231603 63.153551 
L 275.48671 60.66555 
L 275.48671 60.75205 
L 275.90508 59.931287 
L 275.90508 59.982286 
L 276.741818 59.152066 
L 276.741818 58.760145 
L 277.578557 58.080264 
L 277.578557 57.897869 
L 277.996926 57.69508 
L 277.996926 57.554832 
L 278.833664 56.937824 
L 278.833664 57.121942 
L 279.252034 56.736606 
L 279.252034 56.520524 
L 279.670403 56.314925 
L 279.670403 56.440037 
L 280.507142 55.824902 
L 280.507142 56.058992 
L 280.925511 55.654502 
L 280.925511 56.066787 
L 281.34388 55.544678 
L 281.34388 55.549754 
L 281.762249 55.270073 
L 281.762249 55.385124 
L 282.180619 55.25968 
L 283.017357 54.760382 
L 283.017357 54.819961 
L 283.435726 54.921567 
L 283.435726 54.707207 
L 283.854096 54.690348 
L 283.854096 54.879149 
L 284.690834 54.368944 
L 284.690834 54.597927 
L 285.109203 54.473178 
L 285.109203 54.234134 
L 285.527573 54.276311 
L 285.527573 54.40822 
L 285.945942 54.181986 
L 285.945942 54.3329 
L 286.364311 54.249965 
L 286.364311 54.043732 
L 286.78268 54.010709 
L 286.78268 54.475112 
L 287.20105 54.01648 
L 287.20105 54.034004 
L 287.619419 54.17685 
L 287.619419 53.963728 
L 288.037788 54.366224 
L 288.037788 53.995301 
L 288.874527 53.888166 
L 288.874527 54.03068 
L 289.292896 54.091378 
L 289.292896 54.241868 
L 290.129634 53.713354 
L 290.548004 54.026299 
L 290.548004 53.927956 
L 290.966373 54.004032 
L 290.966373 53.821395 
L 291.803112 53.881277 
L 291.803112 54.221807 
L 292.221481 53.771242 
L 292.221481 53.983518 
L 292.63985 53.944996 
L 292.63985 53.968713 
L 293.058219 53.580569 
L 293.058219 54.053551 
L 293.476589 54.176578 
L 293.476589 53.99376 
L 293.894958 53.98385 
L 293.894958 54.054307 
L 294.313327 54.175219 
L 294.313327 53.99086 
L 295.150066 53.905629 
L 295.568435 54.169236 
L 295.568435 53.970194 
L 295.986804 54.027326 
L 295.986804 53.824387 
L 296.405173 53.985935 
L 296.405173 53.97962 
L 296.823543 53.962459 
L 296.823543 54.092465 
L 298.07865 53.809431 
L 298.07865 54.017447 
L 298.49702 53.849645 
L 298.49702 53.948139 
L 298.915389 53.927412 
L 298.915389 53.989077 
L 299.333758 53.596551 
L 299.752127 54.463389 
L 299.752127 54.281024 
L 300.170497 54.072193 
L 300.170497 54.418251 
L 300.588866 54.243832 
L 300.588866 54.354864 
L 301.007235 54.286493 
L 301.007235 54.101408 
L 301.843974 54.079957 
L 301.843974 54.213438 
L 302.262343 53.889103 
L 302.262343 53.941945 
L 302.680712 54.01361 
L 302.680712 53.859131 
L 303.099082 53.887562 
L 303.099082 54.0818 
L 303.517451 53.819552 
L 303.517451 53.897441 
L 303.93582 53.84475 
L 303.93582 53.988382 
L 304.354189 54.069957 
L 304.772559 54.496774 
L 304.772559 54.761953 
L 305.190928 55.45697 
L 305.190928 55.26962 
L 305.609297 56.627689 
L 305.609297 56.385533 
L 306.446036 57.733148 
L 306.446036 57.98467 
L 306.864405 58.767426 
L 307.282774 59.961288 
L 307.701143 60.683708 
L 307.701143 60.927194 
L 308.537882 62.836557 
L 308.537882 62.767098 
L 310.211359 68.175446 
L 310.211359 67.877758 
L 311.048097 71.160267 
L 311.466467 72.127654 
L 311.466467 72.556284 
L 311.884836 73.668904 
L 311.884836 73.642649 
L 312.721575 76.544505 
L 312.721575 76.477221 
L 313.558313 79.842212 
L 313.558313 79.74118 
L 313.976682 81.892246 
L 313.976682 81.650604 
L 316.068529 89.985432 
L 316.068529 90.137131 
L 317.323636 95.686059 
L 317.323636 95.380214 
L 317.742006 97.858003 
L 318.578744 101.448533 
L 319.415483 105.749125 
L 319.415483 105.598091 
L 319.833852 107.615979 
L 320.252221 110.639171 
L 320.252221 110.5298 
L 321.925698 118.430772 
L 321.925698 118.344061 
L 322.344067 120.999411 
L 322.344067 120.869344 
L 322.762437 122.723539 
L 323.599175 126.688436 
L 324.854283 132.361026 
L 324.854283 132.214675 
L 325.272652 135.200916 
L 325.272652 134.927701 
L 325.691022 136.666332 
L 326.109391 139.015112 
L 326.109391 138.722198 
L 326.52776 140.301939 
L 326.946129 142.34584 
L 326.946129 142.340009 
L 327.364499 143.756873 
L 327.782868 145.598469 
L 327.782868 145.513571 
L 328.201237 146.849524 
L 328.201237 146.792361 
L 329.037976 150.148831 
L 329.037976 149.913412 
L 329.456345 151.995564 
L 329.456345 151.671681 
L 330.293083 154.91304 
L 330.293083 155.286713 
L 330.711453 155.768669 
L 330.711453 156.022488 
L 331.129822 156.941352 
L 331.129822 156.922469 
L 331.548191 158.466076 
L 331.548191 158.429246 
L 331.96656 159.525098 
L 331.96656 160.063189 
L 332.803299 162.296102 
L 333.221668 164.017179 
L 333.221668 163.718767 
L 334.476776 168.020145 
L 334.476776 167.718288 
L 334.895145 169.767386 
L 334.895145 169.753277 
L 335.313515 170.940764 
L 335.313515 170.735649 
L 335.731884 171.463447 
L 335.731884 171.248301 
L 336.150253 172.684712 
L 339.078838 179.704706 
L 339.497207 180.127535 
L 339.497207 180.093848 
L 339.915576 180.989539 
L 339.915576 180.723484 
L 340.333946 181.846618 
L 340.333946 181.56727 
L 340.752315 182.295672 
L 341.170684 183.333847 
L 341.170684 183.285507 
L 341.589053 183.719847 
L 341.589053 183.948498 
L 342.007423 184.009377 
L 342.007423 184.141377 
L 342.425792 185.131907 
L 342.844161 185.317595 
L 342.844161 185.28989 
L 343.26253 185.739216 
L 343.6809 186.251203 
L 343.6809 186.121258 
L 344.099269 186.502846 
L 344.099269 186.680407 
L 345.354377 187.687373 
L 345.354377 187.520598 
L 345.772746 188.210569 
L 345.772746 187.92823 
L 346.191115 188.525418 
L 346.191115 188.453451 
L 346.609485 188.680682 
L 346.609485 188.489434 
L 347.027854 189.094779 
L 347.027854 189.029761 
L 347.446223 188.928337 
L 347.446223 189.075896 
L 347.864592 189.225903 
L 347.864592 189.081637 
L 348.282962 189.534588 
L 348.282962 189.421018 
L 349.1197 189.834723 
L 349.538069 189.727075 
L 349.538069 189.997691 
L 349.956439 189.970409 
L 349.956439 189.838862 
L 350.374808 190.04153 
L 350.793177 190.312963 
L 350.793177 190.203743 
L 351.211546 189.989534 
L 351.211546 190.242023 
L 351.629916 190.355231 
L 351.629916 190.200057 
L 352.048285 190.164527 
L 352.048285 190.224167 
L 352.466654 190.559802 
L 352.466654 190.358343 
L 352.885023 190.390338 
L 352.885023 190.70703 
L 353.303393 190.354083 
L 353.303393 190.410883 
L 354.5585 190.317616 
L 354.5585 190.416593 
L 354.97687 190.130749 
L 354.97687 190.413179 
L 355.813608 190.657662 
L 355.813608 190.456112 
L 356.231978 190.469798 
L 356.231978 190.611647 
L 357.068716 190.536357 
L 357.068716 190.694854 
L 357.487085 190.60636 
L 357.487085 190.389976 
L 357.905455 190.293989 
L 357.905455 190.452607 
L 358.323824 190.509709 
L 358.323824 190.344052 
L 358.742193 190.403753 
L 358.742193 190.298038 
L 359.160562 190.278853 
L 359.160562 190.391879 
L 359.578932 190.333085 
L 359.578932 190.493455 
L 360.834039 190.10392 
L 360.834039 190.337949 
L 361.670778 190.247522 
L 361.670778 190.126157 
L 362.507516 190.097062 
L 362.507516 190.321634 
L 362.925886 190.094886 
L 362.925886 189.919047 
L 363.344255 190.042074 
L 363.344255 189.906026 
L 363.762624 189.745414 
L 364.180993 189.927084 
L 364.180993 189.39999 
L 364.599363 189.633385 
L 364.599363 189.825538 
L 365.017732 189.654201 
L 365.017732 189.777288 
L 365.436101 189.327691 
L 365.436101 189.437363 
L 365.85447 189.320319 
L 365.85447 189.142667 
L 366.691209 189.576977 
L 366.691209 188.935588 
L 367.109578 188.799086 
L 367.109578 188.948368 
L 367.527948 188.626268 
L 367.527948 188.780475 
L 367.946317 188.461638 
L 367.946317 188.545781 
L 368.364686 188.598714 
L 368.364686 188.509828 
L 369.619794 187.720909 
L 369.619794 187.857985 
L 370.038163 187.737889 
L 370.038163 187.508694 
L 370.874902 187.245811 
L 370.874902 187.247926 
L 371.293271 186.668896 
L 371.293271 186.669621 
L 371.71164 186.491486 
L 371.71164 186.295858 
L 372.130009 186.195672 
L 372.548379 185.912849 
L 372.548379 186.123856 
L 372.966748 185.510595 
L 372.966748 185.911338 
L 374.221856 184.235943 
L 374.221856 184.525141 
L 374.640225 184.049802 
L 374.640225 184.08222 
L 375.058594 183.2165 
L 375.058594 183.447025 
L 375.476963 183.130243 
L 375.476963 182.874974 
L 375.895333 182.345463 
L 376.732071 180.654478 
L 376.732071 180.941138 
L 378.405548 175.927702 
L 379.242287 173.164462 
L 379.242287 173.113312 
L 379.660656 171.527166 
L 380.915764 166.630382 
L 380.915764 166.759089 
L 382.170872 161.160612 
L 382.170872 161.387178 
L 383.00761 157.992005 
L 383.425979 156.600249 
L 383.425979 156.703788 
L 383.844349 155.795106 
L 383.844349 155.921546 
L 384.262718 155.246651 
L 384.262718 155.273027 
L 384.681087 154.792944 
L 384.681087 154.589128 
L 385.517826 154.103758 
L 385.517826 154.186572 
L 386.772933 155.547239 
L 386.772933 155.9391 
L 387.191303 157.473613 
L 387.609672 158.28652 
L 388.028041 159.547576 
L 388.028041 159.464793 
L 389.701518 162.712527 
L 390.119888 163.158922 
L 390.119888 162.846279 
L 390.538257 163.447153 
L 390.538257 163.323643 
L 390.956626 163.364521 
L 391.374995 163.733601 
L 391.374995 163.59997 
L 391.793365 163.847836 
L 391.793365 164.016787 
L 392.211734 163.934698 
L 392.630103 164.128061 
L 392.630103 164.12803 
L 393.048472 164.159814 
L 393.048472 164.361636 
L 393.466842 164.125553 
L 393.466842 164.633583 
L 393.885211 164.186885 
L 393.885211 164.533306 
L 394.721949 164.557144 
L 394.721949 164.484059 
L 395.558688 164.504332 
L 395.558688 164.567114 
L 395.977057 164.680594 
L 395.977057 164.546086 
L 396.395426 164.493153 
L 396.813796 164.662889 
L 396.813796 164.596391 
L 397.650534 164.5211 
L 397.650534 164.755129 
L 398.068903 164.688812 
L 398.068903 164.509287 
L 398.487273 164.629927 
L 398.487273 164.629927 
" clip-path="url(#pc6bd024999)" style="fill: none; stroke: #1f77b4; stroke-width: 1.5; stroke-linecap: square"/>
   </g>
   <g id="line2d_38">
    <path d="M 73.832727 279.804915 
L 73.832727 279.756605 
L 74.251097 279.020619 
L 74.251097 279.023972 
L 74.669466 277.45396 
L 75.924574 272.618176 
L 75.924574 272.818518 
L 79.271528 260.656805 
L 79.271528 260.766115 
L 80.108266 257.609201 
L 80.108266 257.802745 
L 80.945005 254.36621 
L 80.945005 254.404158 
L 82.200112 249.823008 
L 82.200112 249.890534 
L 87.220544 230.968447 
L 87.220544 231.133318 
L 88.057282 227.763101 
L 88.894021 224.647156 
L 88.894021 224.550203 
L 90.567498 218.222296 
L 90.567498 218.03842 
L 92.240975 211.76257 
L 103.118575 168.294176 
L 103.118575 168.241817 
L 112.741068 127.956501 
L 112.741068 127.759453 
L 113.996176 122.494556 
L 114.832915 118.861517 
L 114.832915 119.024848 
L 118.598238 102.101463 
L 118.598238 102.323709 
L 119.434977 98.480449 
L 123.2003 81.695349 
L 123.2003 81.61317 
L 126.547254 66.456665 
L 126.547254 66.486093 
L 129.05747 54.731015 
L 129.475839 53.712025 
L 129.475839 53.712025 
L 132.822793 53.712025 
L 132.822793 53.712025 
L 133.241162 53.846804 
L 133.241162 53.839795 
L 133.659531 55.61595 
L 134.077901 55.535735 
L 134.914639 58.290757 
L 135.333008 60.4782 
L 135.333008 60.38596 
L 135.751378 60.594429 
L 135.751378 60.534759 
L 136.588116 63.919629 
L 137.424855 70.335274 
L 137.424855 67.429278 
L 138.261593 72.265485 
L 138.261593 72.321651 
L 138.679963 76.972501 
L 139.098332 77.89052 
L 139.516701 81.085653 
L 139.93507 85.284398 
L 140.35344 92.144445 
L 140.771809 92.159883 
L 140.771809 91.993682 
L 141.190178 95.706574 
L 141.608547 101.567178 
L 142.026917 102.175001 
L 142.445286 105.046766 
L 142.445286 104.9977 
L 142.863655 110.139843 
L 142.863655 110.074764 
L 143.282024 110.486143 
L 143.700394 112.961998 
L 143.700394 112.881843 
L 144.118763 117.910687 
L 144.118763 117.891895 
L 144.537132 117.35761 
L 144.955501 120.453494 
L 145.373871 121.634999 
L 145.79224 123.244832 
L 145.79224 123.199331 
L 146.210609 127.004916 
L 146.210609 126.945125 
L 146.628978 126.58118 
L 146.628978 126.607949 
L 147.047348 129.096584 
L 147.047348 129.026158 
L 147.465717 129.499141 
L 147.465717 129.480348 
L 147.884086 131.197044 
L 147.884086 131.148432 
L 148.720825 132.957761 
L 148.720825 132.93915 
L 149.139194 135.308686 
L 149.557563 134.959062 
L 149.557563 134.967733 
L 149.975933 136.525751 
L 150.394302 136.338824 
L 150.394302 136.41632 
L 150.812671 137.501778 
L 150.812671 137.496008 
L 151.23104 137.51761 
L 151.64941 138.281784 
L 152.067779 138.42019 
L 152.486148 138.988796 
L 152.904517 139.019613 
L 152.904517 139.003419 
L 153.322887 139.347181 
L 153.322887 139.346305 
L 153.741256 139.378512 
L 153.741256 139.350626 
L 154.159625 139.546677 
L 154.159625 139.54568 
L 155.833102 139.539214 
L 156.669841 139.548067 
L 156.669841 139.546677 
L 157.08821 139.462262 
L 157.506579 139.544683 
L 157.506579 139.541148 
L 157.924948 139.379026 
L 157.924948 139.379177 
L 158.343318 139.58825 
L 158.761687 139.157686 
L 158.761687 139.165541 
L 159.180056 139.400688 
L 159.180056 139.400205 
L 159.598425 138.817398 
L 160.016795 139.0262 
L 160.435164 138.208216 
L 160.853533 138.300939 
L 161.271903 137.431836 
L 161.271903 137.463106 
L 161.690272 137.397061 
L 162.108641 136.364988 
L 162.52701 136.1012 
L 162.94538 134.920359 
L 163.363749 134.405048 
L 164.618857 130.967849 
L 164.618857 130.998395 
L 165.037226 126.354856 
L 165.455595 127.960429 
L 165.873964 122.863576 
L 166.292334 123.906373 
L 166.292334 123.894439 
L 166.710703 118.500986 
L 166.710703 118.512346 
L 167.129072 119.190656 
L 167.129072 119.624543 
L 167.547441 113.708588 
L 167.547441 113.738016 
L 167.965811 113.688708 
L 167.965811 113.93301 
L 168.38418 108.239513 
L 168.38418 108.247942 
L 168.802549 107.147921 
L 168.802549 107.528271 
L 169.220918 104.192859 
L 172.149503 91.463839 
L 172.986242 87.33543 
L 173.404611 87.278207 
L 173.404611 87.294975 
L 173.82298 87.796327 
L 173.82298 87.674569 
L 174.659719 87.922647 
L 174.659719 87.921529 
L 175.078088 88.027818 
L 175.078088 87.916182 
L 176.333196 88.033378 
L 176.333196 88.029571 
L 177.588304 87.897661 
L 178.006673 87.672606 
L 178.006673 87.679494 
L 178.425042 87.02756 
L 178.843411 86.820632 
L 178.843411 86.835286 
L 179.261781 86.250666 
L 179.68015 84.613581 
L 179.68015 84.633824 
L 180.098519 84.503274 
L 180.098519 84.559953 
L 180.516888 83.197352 
L 180.935258 80.371511 
L 180.935258 80.465111 
L 181.353627 79.841275 
L 181.771996 77.860065 
L 181.771996 77.965055 
L 182.190366 73.901815 
L 182.190366 73.924172 
L 182.608735 72.830285 
L 182.608735 72.990594 
L 183.027104 69.496776 
L 183.863843 61.133276 
L 185.11895 55.362887 
L 185.53732 54.000618 
L 185.53732 54.13141 
L 186.792427 58.836251 
L 186.792427 58.813621 
L 187.210797 58.963356 
L 187.629166 59.874063 
L 187.629166 59.824424 
L 188.047535 60.489288 
L 188.465904 60.755706 
L 188.465904 60.721837 
L 188.884274 60.780027 
L 188.884274 60.779664 
L 189.302643 61.093183 
L 189.302643 61.08992 
L 190.557751 60.855015 
L 190.557751 60.971426 
L 190.97612 61.276122 
L 191.394489 61.101734 
L 191.394489 61.108109 
L 191.812858 61.053544 
L 191.812858 61.078711 
L 192.231228 60.371096 
L 192.231228 60.373815 
L 192.649597 60.654462 
L 192.649597 60.629869 
L 193.067966 60.445147 
L 193.486336 59.362318 
L 193.904705 57.954548 
L 193.904705 57.991982 
L 194.323074 58.239516 
L 194.323074 58.134587 
L 194.741443 57.026801 
L 195.578182 53.712025 
L 195.578182 53.712025 
L 211.894583 53.712025 
L 211.894583 53.712025 
L 212.312952 54.846609 
L 212.312952 53.712025 
L 218.170122 53.712025 
L 218.170122 53.712025 
L 218.588491 54.798359 
L 218.588491 53.712025 
L 223.190553 53.712025 
L 223.190553 54.851564 
L 223.608922 53.712025 
L 223.608922 53.712025 
L 224.027291 53.712025 
L 224.027291 53.712025 
L 224.445661 54.525356 
L 224.445661 53.712025 
L 226.537507 53.712025 
L 226.537507 53.712025 
L 226.955876 55.075955 
L 227.374246 57.411109 
L 228.210984 63.543237 
L 228.629353 63.820742 
L 228.629353 63.785514 
L 229.884461 71.193864 
L 229.884461 71.284019 
L 230.30283 71.786671 
L 230.30283 74.428153 
L 230.7212 73.92674 
L 230.7212 73.953297 
L 231.139569 75.897013 
L 231.139569 75.819638 
L 231.557938 78.851924 
L 231.557938 78.715331 
L 231.976307 79.31684 
L 231.976307 81.475067 
L 232.394677 80.987975 
L 232.813046 83.068494 
L 232.813046 82.988491 
L 233.231415 85.990836 
L 233.649784 85.927298 
L 233.649784 86.008419 
L 234.068154 87.492778 
L 234.068154 87.490875 
L 234.486523 89.879324 
L 234.486523 89.868115 
L 234.904892 90.368169 
L 235.323261 91.686115 
L 236.16 95.827244 
L 236.16 94.043898 
L 236.996739 96.946813 
L 236.996739 96.896629 
L 237.415108 97.517987 
L 237.415108 98.959202 
L 237.833477 98.448454 
L 237.833477 98.538639 
L 238.251846 99.943327 
L 238.670216 100.433772 
L 238.670216 100.360174 
L 239.506954 102.444833 
L 239.506954 102.420783 
L 239.925323 102.603118 
L 239.925323 102.598797 
L 240.343693 103.363667 
L 240.762062 104.426224 
L 240.762062 104.422628 
L 241.180431 104.500487 
L 241.180431 104.491121 
L 241.5988 105.021025 
L 241.5988 105.020874 
L 242.01717 105.86481 
L 242.01717 105.860157 
L 242.435539 105.862303 
L 242.435539 105.82499 
L 242.853908 106.24087 
L 242.853908 106.237879 
L 244.527385 107.082692 
L 247.037601 107.384941 
L 247.037601 107.380802 
L 247.45597 107.338836 
L 247.45597 107.342734 
L 247.874339 107.419142 
L 248.711078 107.321464 
L 249.129447 107.3989 
L 249.547816 107.3237 
L 249.547816 107.325029 
L 249.966186 107.395032 
L 249.966186 107.393945 
L 251.639663 107.01154 
L 251.639663 107.023172 
L 252.058032 106.521004 
L 252.058032 106.524448 
L 252.476401 106.817996 
L 252.89477 106.429126 
L 253.31314 106.49064 
L 253.31314 106.485957 
L 253.731509 106.188451 
L 253.731509 106.202983 
L 254.149878 105.567485 
L 254.149878 105.582048 
L 254.568247 105.739668 
L 254.568247 105.732538 
L 254.986617 105.223723 
L 255.404986 105.142662 
L 255.404986 105.155835 
L 255.823355 104.757538 
L 255.823355 104.759139 
L 256.241724 103.919674 
L 256.241724 103.92475 
L 256.660094 103.993334 
L 256.660094 103.980614 
L 257.078463 103.380465 
L 257.078463 103.38122 
L 257.496832 102.20887 
L 257.915201 102.491119 
L 258.333571 101.517418 
L 258.333571 101.533854 
L 258.75194 101.326593 
L 258.75194 101.34167 
L 259.170309 100.593387 
L 259.588679 99.138546 
L 260.007048 99.164348 
L 260.007048 99.158456 
L 260.425417 98.183003 
L 260.425417 98.184061 
L 260.843786 96.207624 
L 261.262156 96.540691 
L 261.680525 95.073584 
L 262.098894 92.646432 
L 262.517263 93.38423 
L 262.935633 91.304043 
L 263.354002 90.88061 
L 263.354002 90.898616 
L 263.772371 89.488279 
L 263.772371 89.50825 
L 264.19074 86.798668 
L 264.60911 86.552523 
L 264.60911 86.58331 
L 265.027479 84.86462 
L 265.445848 81.516277 
L 265.864217 81.368717 
L 266.282587 79.372824 
L 266.700956 75.520621 
L 266.700956 75.530954 
L 267.119325 75.083924 
L 267.119325 75.094559 
L 267.537694 72.829197 
L 267.537694 72.887719 
L 267.956064 68.772211 
L 268.374433 67.993595 
L 268.374433 68.014623 
L 268.792802 65.360119 
L 269.211172 61.417126 
L 269.211172 61.662304 
L 270.884649 53.712025 
L 270.884649 53.712025 
L 292.63985 53.712025 
L 292.63985 53.712025 
L 293.058219 54.815701 
L 293.058219 53.712025 
L 298.915389 53.712025 
L 298.915389 53.712025 
L 299.333758 55.173059 
L 299.333758 54.801471 
L 299.752127 53.712025 
L 299.752127 53.712025 
L 303.517451 53.73118 
L 303.517451 53.733325 
L 303.93582 54.464628 
L 304.354189 55.501594 
L 304.354189 55.498301 
L 305.190928 58.25704 
L 305.609297 58.277977 
L 305.609297 58.261028 
L 306.446036 60.602707 
L 306.446036 60.580441 
L 306.864405 62.200153 
L 306.864405 62.186255 
L 307.282774 62.423034 
L 308.119513 64.969617 
L 308.119513 64.949979 
L 308.956251 68.864874 
L 308.956251 68.858046 
L 309.37462 68.735442 
L 309.79299 70.068223 
L 310.629728 74.69593 
L 310.629728 74.684842 
L 311.048097 74.381474 
L 311.048097 74.387457 
L 311.466467 75.942665 
L 311.884836 78.524658 
L 312.303205 79.116136 
L 312.303205 79.096981 
L 313.139944 82.753404 
L 313.139944 82.700381 
L 313.558313 85.87941 
L 313.976682 85.912645 
L 313.976682 85.846539 
L 314.395052 87.636864 
L 314.395052 87.632181 
L 314.813421 90.818613 
L 315.23179 91.230324 
L 315.650159 93.158691 
L 315.650159 93.119868 
L 316.068529 96.190071 
L 316.068529 96.133029 
L 316.486898 96.918805 
L 316.905267 99.057243 
L 317.323636 102.23014 
L 317.742006 103.039301 
L 318.160375 105.039727 
L 318.578744 108.778903 
L 318.578744 108.740472 
L 318.997113 109.329019 
L 319.415483 111.272131 
L 319.415483 111.248081 
L 319.833852 115.981171 
L 319.833852 115.960022 
L 320.252221 115.537465 
L 320.67059 118.550022 
L 321.08896 119.912593 
L 321.08896 119.797451 
L 321.507329 121.836217 
L 321.925698 126.340354 
L 322.344067 125.892991 
L 322.762437 129.435815 
L 322.762437 129.332366 
L 323.180806 129.913359 
L 323.180806 130.104667 
L 323.599175 132.478403 
L 323.599175 132.475654 
L 324.017545 133.847258 
L 324.017545 137.271677 
L 324.435914 135.584469 
L 324.435914 135.679398 
L 324.854283 140.350279 
L 325.272652 139.314068 
L 325.691022 143.315855 
L 325.691022 143.286428 
L 326.109391 142.806043 
L 326.109391 142.587181 
L 326.52776 146.462285 
L 326.52776 146.383369 
L 326.946129 145.938636 
L 327.364499 149.513454 
L 327.364499 149.481519 
L 327.782868 149.071953 
L 328.201237 152.643781 
L 328.619606 152.078951 
L 328.619606 152.12711 
L 329.037976 155.846528 
L 329.456345 155.071235 
L 329.874714 158.926973 
L 330.293083 157.886351 
L 330.293083 158.089321 
L 330.711453 159.214841 
L 330.711453 162.136669 
L 331.129822 160.96305 
L 331.129822 160.973624 
L 331.548191 162.067905 
L 331.548191 162.047178 
L 331.96656 164.044613 
L 331.96656 163.741547 
L 332.38493 164.795191 
L 332.803299 167.253463 
L 332.803299 167.241559 
L 333.221668 167.375251 
L 333.221668 167.208022 
L 333.640037 170.190246 
L 333.640037 170.131149 
L 334.058407 169.777779 
L 334.476776 173.188995 
L 334.895145 172.22741 
L 335.313515 173.253379 
L 335.313515 173.14138 
L 335.731884 175.225736 
L 336.150253 175.253562 
L 336.568622 177.709507 
L 336.568622 177.702528 
L 336.986992 177.242386 
L 337.405361 177.992391 
L 337.405361 177.970245 
L 337.82373 179.55911 
L 337.82373 179.503488 
L 338.242099 179.936831 
L 338.660469 181.85402 
L 338.660469 181.76036 
L 339.078838 181.455935 
L 339.078838 181.523491 
L 339.497207 182.054301 
L 339.497207 182.040403 
L 339.915576 183.38246 
L 339.915576 183.365933 
L 340.333946 183.422915 
L 340.752315 185.227228 
L 340.752315 185.222726 
L 341.170684 184.739804 
L 341.170684 184.756874 
L 341.589053 185.191698 
L 342.007423 186.370091 
L 342.007423 186.339606 
L 342.425792 186.08896 
L 342.425792 186.105215 
L 342.844161 186.42674 
L 342.844161 186.419519 
L 343.26253 187.299741 
L 343.26253 187.283759 
L 343.6809 187.241944 
L 344.099269 187.473949 
L 344.517638 188.223953 
L 344.936007 188.262535 
L 345.354377 188.960272 
L 345.772746 188.872956 
L 345.772746 188.913291 
L 346.191115 188.927098 
L 346.191115 188.917067 
L 346.609485 189.547217 
L 347.027854 189.403283 
L 347.027854 189.403706 
L 347.446223 189.587461 
L 347.864592 189.910678 
L 348.282962 189.859951 
L 349.1197 190.160478 
L 349.1197 190.157729 
L 350.793177 190.360578 
L 351.211546 190.216916 
L 351.211546 190.279729 
L 352.048285 190.427591 
L 352.885023 190.375111 
L 352.885023 190.434298 
L 354.5585 190.524785 
L 354.97687 190.299125 
L 354.97687 190.303959 
L 356.650347 190.385927 
L 356.650347 190.385413 
L 357.068716 190.213109 
L 357.068716 190.214922 
L 357.487085 190.197731 
L 357.905455 190.352965 
L 358.742193 190.371757 
L 358.742193 190.371606 
L 359.160562 189.855147 
L 359.160562 189.855389 
L 359.578932 189.846446 
L 359.578932 189.846627 
L 360.41567 190.188607 
L 360.41567 190.187761 
L 360.834039 190.033101 
L 361.252409 189.360351 
L 362.089147 189.831823 
L 362.507516 189.825297 
L 362.925886 188.488981 
L 362.925886 188.497652 
L 363.344255 188.73715 
L 364.180993 189.338748 
L 364.180993 189.333401 
L 364.599363 189.007706 
L 364.599363 189.014897 
L 365.017732 187.578546 
L 365.436101 188.236824 
L 365.436101 188.225132 
L 365.85447 188.604878 
L 366.27284 188.369368 
L 366.691209 186.016298 
L 366.691209 186.125427 
L 367.527948 187.306418 
L 367.527948 187.282762 
L 367.946317 187.389262 
L 368.364686 186.993141 
L 368.783055 184.62007 
L 368.783055 184.637261 
L 369.619794 185.91436 
L 369.619794 185.885446 
L 370.038163 185.779792 
L 370.456532 185.25161 
L 370.456532 185.25584 
L 370.874902 182.558343 
L 371.293271 183.318106 
L 371.293271 183.317834 
L 371.71164 183.900188 
L 372.130009 183.728427 
L 372.548379 183.157374 
L 372.548379 183.237559 
L 372.966748 179.981123 
L 373.385117 180.94567 
L 373.803486 181.17698 
L 374.221856 180.064994 
L 374.221856 180.220289 
L 374.640225 177.4062 
L 375.058594 177.88876 
L 375.476963 176.476248 
L 375.895333 174.055712 
L 375.895333 174.056739 
L 376.313702 173.13715 
L 376.313702 173.211625 
L 376.732071 168.64392 
L 377.15044 169.211318 
L 377.15044 169.040857 
L 377.56881 162.335228 
L 377.987179 164.415053 
L 377.987179 164.337738 
L 378.405548 161.954093 
L 378.823918 157.631837 
L 378.823918 158.045814 
L 379.242287 156.795515 
L 379.660656 153.078544 
L 380.915764 148.073538 
L 380.915764 148.205085 
L 381.752502 144.403761 
L 382.170872 143.525049 
L 382.170872 143.749289 
L 382.589241 142.098397 
L 382.589241 142.180123 
L 383.00761 143.85159 
L 383.425979 148.368356 
L 383.844349 147.56569 
L 384.262718 149.154858 
L 384.262718 149.130325 
L 384.681087 151.765251 
L 384.681087 151.637934 
L 385.099456 152.750674 
L 385.099456 152.710189 
L 385.517826 155.099454 
L 385.936195 155.959977 
L 386.354564 157.704409 
L 386.772933 160.262624 
L 386.772933 158.754488 
L 387.609672 161.680062 
L 388.028041 161.79484 
L 388.44641 162.908941 
L 388.44641 162.898487 
L 388.86478 162.983415 
L 388.86478 162.960846 
L 389.283149 163.758134 
L 389.283149 163.755294 
L 389.701518 163.658885 
L 389.701518 163.664746 
L 390.538257 163.884726 
L 390.956626 164.274654 
L 391.793365 164.298189 
L 393.885211 164.613129 
L 393.885211 164.60763 
L 395.558688 164.539651 
L 395.558688 164.539137 
L 395.977057 164.518653 
L 396.813796 164.360005 
L 396.813796 164.360065 
L 397.232165 164.643946 
L 397.232165 164.401064 
L 398.487273 164.407137 
L 398.487273 164.407983 
" clip-path="url(#pc6bd024999)" style="fill: none; stroke: #ff7f0e; stroke-width: 1.5; stroke-linecap: square"/>
   </g>
   <g id="patch_3">
    <path d="M 57.6 307.584 
L 57.6 41.472 
" style="fill: none; stroke: #000000; stroke-width: 0.8; stroke-linejoin: miter; stroke-linecap: square"/>
   </g>
   <g id="patch_4">
    <path d="M 414.72 307.584 
L 414.72 41.472 
" style="fill: none; stroke: #000000; stroke-width: 0.8; stroke-linejoin: miter; stroke-linecap: square"/>
   </g>
   <g id="patch_5">
    <path d="M 57.6 307.584 
L 414.72 307.584 
" style="fill: none; stroke: #000000; stroke-width: 0.8; stroke-linejoin: miter; stroke-linecap: square"/>
   </g>
   <g id="patch_6">
    <path d="M 57.6 41.472 
L 414.72 41.472 
" style="fill: none; stroke: #000000; stroke-width: 0.8; stroke-linejoin: miter; stroke-linecap: square"/>
   </g>
   <g id="text_21">
    <!-- Actual speed vs Expected speed -->
    <g transform="translate(138.808125 35.472) scale(0.12 -0.12)">
     <defs>
      <path id="DejaVuSans-41" d="M 2188 4044 
L 1331 1722 
L 3047 1722 
L 2188 4044 
z
M 1831 4666 
L 2547 4666 
L 4325 0 
L 3669 0 
L 3244 1197 
L 1141 1197 
L 716 0 
L 50 0 
L 1831 4666 
z
" transform="scale(0.015625)"/>
      <path id="DejaVuSans-75" d="M 544 1381 
L 544 3500 
L 1119 3500 
L 1119 1403 
Q 1119 906 1312 657 
Q 1506 409 1894 409 
Q 2359 409 2629 706 
Q 2900 1003 2900 1516 
L 2900 3500 
L 3475 3500 
L 3475 0 
L 2900 0 
L 2900 538 
Q 2691 219 2414 64 
Q 2138 -91 1772 -91 
Q 1169 -91 856 284 
Q 544 659 544 1381 
z
M 1991 3584 
L 1991 3584 
z
" transform="scale(0.015625)"/>
      <path id="DejaVuSans-61" d="M 2194 1759 
Q 1497 1759 1228 1600 
Q 959 1441 959 1056 
Q 959 750 1161 570 
Q 1363 391 1709 391 
Q 2188 391 2477 730 
Q 2766 1069 2766 1631 
L 2766 1759 
L 2194 1759 
z
M 3341 1997 
L 3341 0 
L 2766 0 
L 2766 531 
Q 2569 213 2275 61 
Q 1981 -91 1556 -91 
Q 1019 -91 701 211 
Q 384 513 384 1019 
Q 384 1609 779 1909 
Q 1175 2209 1959 2209 
L 2766 2209 
L 2766 2266 
Q 2766 2663 2505 2880 
Q 2244 3097 1772 3097 
Q 1472 3097 1187 3025 
Q 903 2953 641 2809 
L 641 3341 
Q 956 3463 1253 3523 
Q 1550 3584 1831 3584 
Q 2591 3584 2966 3190 
Q 3341 2797 3341 1997 
z
" transform="scale(0.015625)"/>
      <path id="DejaVuSans-20" transform="scale(0.015625)"/>
      <path id="DejaVuSans-70" d="M 1159 525 
L 1159 -1331 
L 581 -1331 
L 581 3500 
L 1159 3500 
L 1159 2969 
Q 1341 3281 1617 3432 
Q 1894 3584 2278 3584 
Q 2916 3584 3314 3078 
Q 3713 2572 3713 1747 
Q 3713 922 3314 415 
Q 2916 -91 2278 -91 
Q 1894 -91 1617 61 
Q 1341 213 1159 525 
z
M 3116 1747 
Q 3116 2381 2855 2742 
Q 2594 3103 2138 3103 
Q 1681 3103 1420 2742 
Q 1159 2381 1159 1747 
Q 1159 1113 1420 752 
Q 1681 391 2138 391 
Q 2594 391 2855 752 
Q 3116 1113 3116 1747 
z
" transform="scale(0.015625)"/>
      <path id="DejaVuSans-64" d="M 2906 2969 
L 2906 4863 
L 3481 4863 
L 3481 0 
L 2906 0 
L 2906 525 
Q 2725 213 2448 61 
Q 2172 -91 1784 -91 
Q 1150 -91 751 415 
Q 353 922 353 1747 
Q 353 2572 751 3078 
Q 1150 3584 1784 3584 
Q 2172 3584 2448 3432 
Q 2725 3281 2906 2969 
z
M 947 1747 
Q 947 1113 1208 752 
Q 1469 391 1925 391 
Q 2381 391 2643 752 
Q 2906 1113 2906 1747 
Q 2906 2381 2643 2742 
Q 2381 3103 1925 3103 
Q 1469 3103 1208 2742 
Q 947 2381 947 1747 
z
" transform="scale(0.015625)"/>
      <path id="DejaVuSans-76" d="M 191 3500 
L 800 3500 
L 1894 563 
L 2988 3500 
L 3597 3500 
L 2284 0 
L 1503 0 
L 191 3500 
z
" transform="scale(0.015625)"/>
      <path id="DejaVuSans-45" d="M 628 4666 
L 3578 4666 
L 3578 4134 
L 1259 4134 
L 1259 2753 
L 3481 2753 
L 3481 2222 
L 1259 2222 
L 1259 531 
L 3634 531 
L 3634 0 
L 628 0 
L 628 4666 
z
" transform="scale(0.015625)"/>
      <path id="DejaVuSans-78" d="M 3513 3500 
L 2247 1797 
L 3578 0 
L 2900 0 
L 1881 1375 
L 863 0 
L 184 0 
L 1544 1831 
L 300 3500 
L 978 3500 
L 1906 2253 
L 2834 3500 
L 3513 3500 
z
" transform="scale(0.015625)"/>
     </defs>
     <use xlink:href="#DejaVuSans-41"/>
     <use xlink:href="#DejaVuSans-63" x="66.658203"/>
     <use xlink:href="#DejaVuSans-74" x="121.638672"/>
     <use xlink:href="#DejaVuSans-75" x="160.847656"/>
     <use xlink:href="#DejaVuSans-61" x="224.226562"/>
     <use xlink:href="#DejaVuSans-6c" x="285.505859"/>
     <use xlink:href="#DejaVuSans-20" x="313.289062"/>
     <use xlink:href="#DejaVuSans-73" x="345.076172"/>
     <use xlink:href="#DejaVuSans-70" x="397.175781"/>
     <use xlink:href="#DejaVuSans-65" x="460.652344"/>
     <use xlink:href="#DejaVuSans-65" x="522.175781"/>
     <use xlink:href="#DejaVuSans-64" x="583.699219"/>
     <use xlink:href="#DejaVuSans-20" x="647.175781"/>
     <use xlink:href="#DejaVuSans-76" x="678.962891"/>
     <use xlink:href="#DejaVuSans-73" x="738.142578"/>
     <use xlink:href="#DejaVuSans-20" x="790.242188"/>
     <use xlink:href="#DejaVuSans-45" x="822.029297"/>
     <use xlink:href="#DejaVuSans-78" x="885.212891"/>
     <use xlink:href="#DejaVuSans-70" x="944.392578"/>
     <use xlink:href="#DejaVuSans-65" x="1007.869141"/>
     <use xlink:href="#DejaVuSans-63" x="1069.392578"/>
     <use xlink:href="#DejaVuSans-74" x="1124.373047"/>
     <use xlink:href="#DejaVuSans-65" x="1163.582031"/>
     <use xlink:href="#DejaVuSans-64" x="1225.105469"/>
     <use xlink:href="#DejaVuSans-20" x="1288.582031"/>
     <use xlink:href="#DejaVuSans-73" x="1320.369141"/>
     <use xlink:href="#DejaVuSans-70" x="1372.46875"/>
     <use xlink:href="#DejaVuSans-65" x="1435.945312"/>
     <use xlink:href="#DejaVuSans-65" x="1497.46875"/>
     <use xlink:href="#DejaVuSans-64" x="1558.992188"/>
    </g>
   </g>
   <g id="legend_1">
    <g id="patch_7">
     <path d="M 295.67 302.584 
L 407.72 302.584 
Q 409.72 302.584 409.72 300.584 
L 409.72 272.22775 
Q 409.72 270.22775 407.72 270.22775 
L 295.67 270.22775 
Q 293.67 270.22775 293.67 272.22775 
L 293.67 300.584 
Q 293.67 302.584 295.67 302.584 
z
" style="fill: #ffffff; opacity: 0.8; stroke: #cccccc; stroke-linejoin: miter"/>
    </g>
    <g id="line2d_39">
     <path d="M 297.67 278.326187 
L 307.67 278.326187 
L 317.67 278.326187 
" style="fill: none; stroke: #1f77b4; stroke-width: 1.5; stroke-linecap: square"/>
    </g>
    <g id="text_22">
     <!-- Actual speed -->
     <g transform="translate(325.67 281.826187) scale(0.1 -0.1)">
      <use xlink:href="#DejaVuSans-41"/>
      <use xlink:href="#DejaVuSans-63" x="66.658203"/>
      <use xlink:href="#DejaVuSans-74" x="121.638672"/>
      <use xlink:href="#DejaVuSans-75" x="160.847656"/>
      <use xlink:href="#DejaVuSans-61" x="224.226562"/>
      <use xlink:href="#DejaVuSans-6c" x="285.505859"/>
      <use xlink:href="#DejaVuSans-20" x="313.289062"/>
      <use xlink:href="#DejaVuSans-73" x="345.076172"/>
      <use xlink:href="#DejaVuSans-70" x="397.175781"/>
      <use xlink:href="#DejaVuSans-65" x="460.652344"/>
      <use xlink:href="#DejaVuSans-65" x="522.175781"/>
      <use xlink:href="#DejaVuSans-64" x="583.699219"/>
     </g>
    </g>
    <g id="line2d_40">
     <path d="M 297.67 293.004312 
L 307.67 293.004312 
L 317.67 293.004312 
" style="fill: none; stroke: #ff7f0e; stroke-width: 1.5; stroke-linecap: square"/>
    </g>
    <g id="text_23">
     <!-- Expected speed -->
     <g transform="translate(325.67 296.504312) scale(0.1 -0.1)">
      <use xlink:href="#DejaVuSans-45"/>
      <use xlink:href="#DejaVuSans-78" x="63.183594"/>
      <use xlink:href="#DejaVuSans-70" x="122.363281"/>
      <use xlink:href="#DejaVuSans-65" x="185.839844"/>
      <use xlink:href="#DejaVuSans-63" x="247.363281"/>
      <use xlink:href="#DejaVuSans-74" x="302.34375"/>
      <use xlink:href="#DejaVuSans-65" x="341.552734"/>
      <use xlink:href="#DejaVuSans-64" x="403.076172"/>
      <use xlink:href="#DejaVuSans-20" x="466.552734"/>
      <use xlink:href="#DejaVuSans-73" x="498.339844"/>
      <use xlink:href="#DejaVuSans-70" x="550.439453"/>
      <use xlink:href="#DejaVuSans-65" x="613.916016"/>
      <use xlink:href="#DejaVuSans-65" x="675.439453"/>
      <use xlink:href="#DejaVuSans-64" x="736.962891"/>
     </g>
    </g>
   </g>
  </g>
 </g>
 <defs>
  <clipPath id="pc6bd024999">
   <rect x="57.6" y="41.472" width="357.12" height="266.112"/>
  </clipPath>
 </defs>
</svg>
