<?xml version="1.0" encoding="utf-8" standalone="no"?>
<!DOCTYPE svg PUBLIC "-//W3C//DTD SVG 1.1//EN"
  "http://www.w3.org/Graphics/SVG/1.1/DTD/svg11.dtd">
<svg xmlns:xlink="http://www.w3.org/1999/xlink" width="460.8pt" height="345.6pt" viewBox="0 0 460.8 345.6" xmlns="http://www.w3.org/2000/svg" version="1.1">
 <metadata>
  <rdf:RDF xmlns:dc="http://purl.org/dc/elements/1.1/" xmlns:cc="http://creativecommons.org/ns#" xmlns:rdf="http://www.w3.org/1999/02/22-rdf-syntax-ns#">
   <cc:Work>
    <dc:type rdf:resource="http://purl.org/dc/dcmitype/StillImage"/>
    <dc:date>2024-01-30T20:58:15.213034</dc:date>
    <dc:format>image/svg+xml</dc:format>
    <dc:creator>
     <cc:Agent>
      <dc:title>Matplotlib v3.7.1, https://matplotlib.org/</dc:title>
     </cc:Agent>
    </dc:creator>
   </cc:Work>
  </rdf:RDF>
 </metadata>
 <defs>
  <style type="text/css">*{stroke-linejoin: round; stroke-linecap: butt}</style>
 </defs>
 <g id="figure_1">
  <g id="patch_1">
   <path d="M 0 345.6 
L 460.8 345.6 
L 460.8 0 
L 0 0 
z
" style="fill: #ffffff"/>
  </g>
  <g id="axes_1">
   <g id="patch_2">
    <path d="M 57.6 307.584 
L 414.72 307.584 
L 414.72 41.472 
L 57.6 41.472 
z
" style="fill: #ffffff"/>
   </g>
   <g id="matplotlib.axis_1">
    <g id="xtick_1">
     <g id="line2d_1">
      <path d="M 73.832727 307.584 
L 73.832727 41.472 
" clip-path="url(#p8c47fc5535)" style="fill: none; stroke: #b0b0b0; stroke-width: 0.8; stroke-linecap: square"/>
     </g>
     <g id="line2d_2">
      <defs>
       <path id="md1fc213d8e" d="M 0 0 
L 0 3.5 
" style="stroke: #000000; stroke-width: 0.8"/>
      </defs>
      <g>
       <use xlink:href="#md1fc213d8e" x="73.832727" y="307.584" style="stroke: #000000; stroke-width: 0.8"/>
      </g>
     </g>
     <g id="text_1">
      <!-- 0 -->
      <g transform="translate(70.651477 322.182437) scale(0.1 -0.1)">
       <defs>
        <path id="DejaVuSans-30" d="M 2034 4250 
Q 1547 4250 1301 3770 
Q 1056 3291 1056 2328 
Q 1056 1369 1301 889 
Q 1547 409 2034 409 
Q 2525 409 2770 889 
Q 3016 1369 3016 2328 
Q 3016 3291 2770 3770 
Q 2525 4250 2034 4250 
z
M 2034 4750 
Q 2819 4750 3233 4129 
Q 3647 3509 3647 2328 
Q 3647 1150 3233 529 
Q 2819 -91 2034 -91 
Q 1250 -91 836 529 
Q 422 1150 422 2328 
Q 422 3509 836 4129 
Q 1250 4750 2034 4750 
z
" transform="scale(0.015625)"/>
       </defs>
       <use xlink:href="#DejaVuSans-30"/>
      </g>
     </g>
    </g>
    <g id="xtick_2">
     <g id="line2d_3">
      <path d="M 114.465336 307.584 
L 114.465336 41.472 
" clip-path="url(#p8c47fc5535)" style="fill: none; stroke: #b0b0b0; stroke-width: 0.8; stroke-linecap: square"/>
     </g>
     <g id="line2d_4">
      <g>
       <use xlink:href="#md1fc213d8e" x="114.465336" y="307.584" style="stroke: #000000; stroke-width: 0.8"/>
      </g>
     </g>
     <g id="text_2">
      <!-- 2 -->
      <g transform="translate(111.284086 322.182437) scale(0.1 -0.1)">
       <defs>
        <path id="DejaVuSans-32" d="M 1228 531 
L 3431 531 
L 3431 0 
L 469 0 
L 469 531 
Q 828 903 1448 1529 
Q 2069 2156 2228 2338 
Q 2531 2678 2651 2914 
Q 2772 3150 2772 3378 
Q 2772 3750 2511 3984 
Q 2250 4219 1831 4219 
Q 1534 4219 1204 4116 
Q 875 4013 500 3803 
L 500 4441 
Q 881 4594 1212 4672 
Q 1544 4750 1819 4750 
Q 2544 4750 2975 4387 
Q 3406 4025 3406 3419 
Q 3406 3131 3298 2873 
Q 3191 2616 2906 2266 
Q 2828 2175 2409 1742 
Q 1991 1309 1228 531 
z
" transform="scale(0.015625)"/>
       </defs>
       <use xlink:href="#DejaVuSans-32"/>
      </g>
     </g>
    </g>
    <g id="xtick_3">
     <g id="line2d_5">
      <path d="M 155.097945 307.584 
L 155.097945 41.472 
" clip-path="url(#p8c47fc5535)" style="fill: none; stroke: #b0b0b0; stroke-width: 0.8; stroke-linecap: square"/>
     </g>
     <g id="line2d_6">
      <g>
       <use xlink:href="#md1fc213d8e" x="155.097945" y="307.584" style="stroke: #000000; stroke-width: 0.8"/>
      </g>
     </g>
     <g id="text_3">
      <!-- 4 -->
      <g transform="translate(151.916695 322.182437) scale(0.1 -0.1)">
       <defs>
        <path id="DejaVuSans-34" d="M 2419 4116 
L 825 1625 
L 2419 1625 
L 2419 4116 
z
M 2253 4666 
L 3047 4666 
L 3047 1625 
L 3713 1625 
L 3713 1100 
L 3047 1100 
L 3047 0 
L 2419 0 
L 2419 1100 
L 313 1100 
L 313 1709 
L 2253 4666 
z
" transform="scale(0.015625)"/>
       </defs>
       <use xlink:href="#DejaVuSans-34"/>
      </g>
     </g>
    </g>
    <g id="xtick_4">
     <g id="line2d_7">
      <path d="M 195.730554 307.584 
L 195.730554 41.472 
" clip-path="url(#p8c47fc5535)" style="fill: none; stroke: #b0b0b0; stroke-width: 0.8; stroke-linecap: square"/>
     </g>
     <g id="line2d_8">
      <g>
       <use xlink:href="#md1fc213d8e" x="195.730554" y="307.584" style="stroke: #000000; stroke-width: 0.8"/>
      </g>
     </g>
     <g id="text_4">
      <!-- 6 -->
      <g transform="translate(192.549304 322.182437) scale(0.1 -0.1)">
       <defs>
        <path id="DejaVuSans-36" d="M 2113 2584 
Q 1688 2584 1439 2293 
Q 1191 2003 1191 1497 
Q 1191 994 1439 701 
Q 1688 409 2113 409 
Q 2538 409 2786 701 
Q 3034 994 3034 1497 
Q 3034 2003 2786 2293 
Q 2538 2584 2113 2584 
z
M 3366 4563 
L 3366 3988 
Q 3128 4100 2886 4159 
Q 2644 4219 2406 4219 
Q 1781 4219 1451 3797 
Q 1122 3375 1075 2522 
Q 1259 2794 1537 2939 
Q 1816 3084 2150 3084 
Q 2853 3084 3261 2657 
Q 3669 2231 3669 1497 
Q 3669 778 3244 343 
Q 2819 -91 2113 -91 
Q 1303 -91 875 529 
Q 447 1150 447 2328 
Q 447 3434 972 4092 
Q 1497 4750 2381 4750 
Q 2619 4750 2861 4703 
Q 3103 4656 3366 4563 
z
" transform="scale(0.015625)"/>
       </defs>
       <use xlink:href="#DejaVuSans-36"/>
      </g>
     </g>
    </g>
    <g id="xtick_5">
     <g id="line2d_9">
      <path d="M 236.363163 307.584 
L 236.363163 41.472 
" clip-path="url(#p8c47fc5535)" style="fill: none; stroke: #b0b0b0; stroke-width: 0.8; stroke-linecap: square"/>
     </g>
     <g id="line2d_10">
      <g>
       <use xlink:href="#md1fc213d8e" x="236.363163" y="307.584" style="stroke: #000000; stroke-width: 0.8"/>
      </g>
     </g>
     <g id="text_5">
      <!-- 8 -->
      <g transform="translate(233.181913 322.182437) scale(0.1 -0.1)">
       <defs>
        <path id="DejaVuSans-38" d="M 2034 2216 
Q 1584 2216 1326 1975 
Q 1069 1734 1069 1313 
Q 1069 891 1326 650 
Q 1584 409 2034 409 
Q 2484 409 2743 651 
Q 3003 894 3003 1313 
Q 3003 1734 2745 1975 
Q 2488 2216 2034 2216 
z
M 1403 2484 
Q 997 2584 770 2862 
Q 544 3141 544 3541 
Q 544 4100 942 4425 
Q 1341 4750 2034 4750 
Q 2731 4750 3128 4425 
Q 3525 4100 3525 3541 
Q 3525 3141 3298 2862 
Q 3072 2584 2669 2484 
Q 3125 2378 3379 2068 
Q 3634 1759 3634 1313 
Q 3634 634 3220 271 
Q 2806 -91 2034 -91 
Q 1263 -91 848 271 
Q 434 634 434 1313 
Q 434 1759 690 2068 
Q 947 2378 1403 2484 
z
M 1172 3481 
Q 1172 3119 1398 2916 
Q 1625 2713 2034 2713 
Q 2441 2713 2670 2916 
Q 2900 3119 2900 3481 
Q 2900 3844 2670 4047 
Q 2441 4250 2034 4250 
Q 1625 4250 1398 4047 
Q 1172 3844 1172 3481 
z
" transform="scale(0.015625)"/>
       </defs>
       <use xlink:href="#DejaVuSans-38"/>
      </g>
     </g>
    </g>
    <g id="xtick_6">
     <g id="line2d_11">
      <path d="M 276.995772 307.584 
L 276.995772 41.472 
" clip-path="url(#p8c47fc5535)" style="fill: none; stroke: #b0b0b0; stroke-width: 0.8; stroke-linecap: square"/>
     </g>
     <g id="line2d_12">
      <g>
       <use xlink:href="#md1fc213d8e" x="276.995772" y="307.584" style="stroke: #000000; stroke-width: 0.8"/>
      </g>
     </g>
     <g id="text_6">
      <!-- 10 -->
      <g transform="translate(270.633272 322.182437) scale(0.1 -0.1)">
       <defs>
        <path id="DejaVuSans-31" d="M 794 531 
L 1825 531 
L 1825 4091 
L 703 3866 
L 703 4441 
L 1819 4666 
L 2450 4666 
L 2450 531 
L 3481 531 
L 3481 0 
L 794 0 
L 794 531 
z
" transform="scale(0.015625)"/>
       </defs>
       <use xlink:href="#DejaVuSans-31"/>
       <use xlink:href="#DejaVuSans-30" x="63.623047"/>
      </g>
     </g>
    </g>
    <g id="xtick_7">
     <g id="line2d_13">
      <path d="M 317.628381 307.584 
L 317.628381 41.472 
" clip-path="url(#p8c47fc5535)" style="fill: none; stroke: #b0b0b0; stroke-width: 0.8; stroke-linecap: square"/>
     </g>
     <g id="line2d_14">
      <g>
       <use xlink:href="#md1fc213d8e" x="317.628381" y="307.584" style="stroke: #000000; stroke-width: 0.8"/>
      </g>
     </g>
     <g id="text_7">
      <!-- 12 -->
      <g transform="translate(311.265881 322.182437) scale(0.1 -0.1)">
       <use xlink:href="#DejaVuSans-31"/>
       <use xlink:href="#DejaVuSans-32" x="63.623047"/>
      </g>
     </g>
    </g>
    <g id="xtick_8">
     <g id="line2d_15">
      <path d="M 358.26099 307.584 
L 358.26099 41.472 
" clip-path="url(#p8c47fc5535)" style="fill: none; stroke: #b0b0b0; stroke-width: 0.8; stroke-linecap: square"/>
     </g>
     <g id="line2d_16">
      <g>
       <use xlink:href="#md1fc213d8e" x="358.26099" y="307.584" style="stroke: #000000; stroke-width: 0.8"/>
      </g>
     </g>
     <g id="text_8">
      <!-- 14 -->
      <g transform="translate(351.89849 322.182437) scale(0.1 -0.1)">
       <use xlink:href="#DejaVuSans-31"/>
       <use xlink:href="#DejaVuSans-34" x="63.623047"/>
      </g>
     </g>
    </g>
    <g id="xtick_9">
     <g id="line2d_17">
      <path d="M 398.893599 307.584 
L 398.893599 41.472 
" clip-path="url(#p8c47fc5535)" style="fill: none; stroke: #b0b0b0; stroke-width: 0.8; stroke-linecap: square"/>
     </g>
     <g id="line2d_18">
      <g>
       <use xlink:href="#md1fc213d8e" x="398.893599" y="307.584" style="stroke: #000000; stroke-width: 0.8"/>
      </g>
     </g>
     <g id="text_9">
      <!-- 16 -->
      <g transform="translate(392.531099 322.182437) scale(0.1 -0.1)">
       <use xlink:href="#DejaVuSans-31"/>
       <use xlink:href="#DejaVuSans-36" x="63.623047"/>
      </g>
     </g>
    </g>
    <g id="text_10">
     <!-- Time(s) -->
     <g transform="translate(217.420156 335.860562) scale(0.1 -0.1)">
      <defs>
       <path id="DejaVuSans-54" d="M -19 4666 
L 3928 4666 
L 3928 4134 
L 2272 4134 
L 2272 0 
L 1638 0 
L 1638 4134 
L -19 4134 
L -19 4666 
z
" transform="scale(0.015625)"/>
       <path id="DejaVuSans-69" d="M 603 3500 
L 1178 3500 
L 1178 0 
L 603 0 
L 603 3500 
z
M 603 4863 
L 1178 4863 
L 1178 4134 
L 603 4134 
L 603 4863 
z
" transform="scale(0.015625)"/>
       <path id="DejaVuSans-6d" d="M 3328 2828 
Q 3544 3216 3844 3400 
Q 4144 3584 4550 3584 
Q 5097 3584 5394 3201 
Q 5691 2819 5691 2113 
L 5691 0 
L 5113 0 
L 5113 2094 
Q 5113 2597 4934 2840 
Q 4756 3084 4391 3084 
Q 3944 3084 3684 2787 
Q 3425 2491 3425 1978 
L 3425 0 
L 2847 0 
L 2847 2094 
Q 2847 2600 2669 2842 
Q 2491 3084 2119 3084 
Q 1678 3084 1418 2786 
Q 1159 2488 1159 1978 
L 1159 0 
L 581 0 
L 581 3500 
L 1159 3500 
L 1159 2956 
Q 1356 3278 1631 3431 
Q 1906 3584 2284 3584 
Q 2666 3584 2933 3390 
Q 3200 3197 3328 2828 
z
" transform="scale(0.015625)"/>
       <path id="DejaVuSans-65" d="M 3597 1894 
L 3597 1613 
L 953 1613 
Q 991 1019 1311 708 
Q 1631 397 2203 397 
Q 2534 397 2845 478 
Q 3156 559 3463 722 
L 3463 178 
Q 3153 47 2828 -22 
Q 2503 -91 2169 -91 
Q 1331 -91 842 396 
Q 353 884 353 1716 
Q 353 2575 817 3079 
Q 1281 3584 2069 3584 
Q 2775 3584 3186 3129 
Q 3597 2675 3597 1894 
z
M 3022 2063 
Q 3016 2534 2758 2815 
Q 2500 3097 2075 3097 
Q 1594 3097 1305 2825 
Q 1016 2553 972 2059 
L 3022 2063 
z
" transform="scale(0.015625)"/>
       <path id="DejaVuSans-28" d="M 1984 4856 
Q 1566 4138 1362 3434 
Q 1159 2731 1159 2009 
Q 1159 1288 1364 580 
Q 1569 -128 1984 -844 
L 1484 -844 
Q 1016 -109 783 600 
Q 550 1309 550 2009 
Q 550 2706 781 3412 
Q 1013 4119 1484 4856 
L 1984 4856 
z
" transform="scale(0.015625)"/>
       <path id="DejaVuSans-73" d="M 2834 3397 
L 2834 2853 
Q 2591 2978 2328 3040 
Q 2066 3103 1784 3103 
Q 1356 3103 1142 2972 
Q 928 2841 928 2578 
Q 928 2378 1081 2264 
Q 1234 2150 1697 2047 
L 1894 2003 
Q 2506 1872 2764 1633 
Q 3022 1394 3022 966 
Q 3022 478 2636 193 
Q 2250 -91 1575 -91 
Q 1294 -91 989 -36 
Q 684 19 347 128 
L 347 722 
Q 666 556 975 473 
Q 1284 391 1588 391 
Q 1994 391 2212 530 
Q 2431 669 2431 922 
Q 2431 1156 2273 1281 
Q 2116 1406 1581 1522 
L 1381 1569 
Q 847 1681 609 1914 
Q 372 2147 372 2553 
Q 372 3047 722 3315 
Q 1072 3584 1716 3584 
Q 2034 3584 2315 3537 
Q 2597 3491 2834 3397 
z
" transform="scale(0.015625)"/>
       <path id="DejaVuSans-29" d="M 513 4856 
L 1013 4856 
Q 1481 4119 1714 3412 
Q 1947 2706 1947 2009 
Q 1947 1309 1714 600 
Q 1481 -109 1013 -844 
L 513 -844 
Q 928 -128 1133 580 
Q 1338 1288 1338 2009 
Q 1338 2731 1133 3434 
Q 928 4138 513 4856 
z
" transform="scale(0.015625)"/>
      </defs>
      <use xlink:href="#DejaVuSans-54"/>
      <use xlink:href="#DejaVuSans-69" x="57.958984"/>
      <use xlink:href="#DejaVuSans-6d" x="85.742188"/>
      <use xlink:href="#DejaVuSans-65" x="183.154297"/>
      <use xlink:href="#DejaVuSans-28" x="244.677734"/>
      <use xlink:href="#DejaVuSans-73" x="283.691406"/>
      <use xlink:href="#DejaVuSans-29" x="335.791016"/>
     </g>
    </g>
   </g>
   <g id="matplotlib.axis_2">
    <g id="ytick_1">
     <g id="line2d_19">
      <path d="M 57.6 294.915749 
L 414.72 294.915749 
" clip-path="url(#p8c47fc5535)" style="fill: none; stroke: #b0b0b0; stroke-width: 0.8; stroke-linecap: square"/>
     </g>
     <g id="line2d_20">
      <defs>
       <path id="m3bb452982c" d="M 0 0 
L -3.5 0 
" style="stroke: #000000; stroke-width: 0.8"/>
      </defs>
      <g>
       <use xlink:href="#m3bb452982c" x="57.6" y="294.915749" style="stroke: #000000; stroke-width: 0.8"/>
      </g>
     </g>
     <g id="text_11">
      <!-- 0 -->
      <g transform="translate(44.2375 298.714967) scale(0.1 -0.1)">
       <use xlink:href="#DejaVuSans-30"/>
      </g>
     </g>
    </g>
    <g id="ytick_2">
     <g id="line2d_21">
      <path d="M 57.6 264.771866 
L 414.72 264.771866 
" clip-path="url(#p8c47fc5535)" style="fill: none; stroke: #b0b0b0; stroke-width: 0.8; stroke-linecap: square"/>
     </g>
     <g id="line2d_22">
      <g>
       <use xlink:href="#m3bb452982c" x="57.6" y="264.771866" style="stroke: #000000; stroke-width: 0.8"/>
      </g>
     </g>
     <g id="text_12">
      <!-- 1 -->
      <g transform="translate(44.2375 268.571085) scale(0.1 -0.1)">
       <use xlink:href="#DejaVuSans-31"/>
      </g>
     </g>
    </g>
    <g id="ytick_3">
     <g id="line2d_23">
      <path d="M 57.6 234.627984 
L 414.72 234.627984 
" clip-path="url(#p8c47fc5535)" style="fill: none; stroke: #b0b0b0; stroke-width: 0.8; stroke-linecap: square"/>
     </g>
     <g id="line2d_24">
      <g>
       <use xlink:href="#m3bb452982c" x="57.6" y="234.627984" style="stroke: #000000; stroke-width: 0.8"/>
      </g>
     </g>
     <g id="text_13">
      <!-- 2 -->
      <g transform="translate(44.2375 238.427202) scale(0.1 -0.1)">
       <use xlink:href="#DejaVuSans-32"/>
      </g>
     </g>
    </g>
    <g id="ytick_4">
     <g id="line2d_25">
      <path d="M 57.6 204.484101 
L 414.72 204.484101 
" clip-path="url(#p8c47fc5535)" style="fill: none; stroke: #b0b0b0; stroke-width: 0.8; stroke-linecap: square"/>
     </g>
     <g id="line2d_26">
      <g>
       <use xlink:href="#m3bb452982c" x="57.6" y="204.484101" style="stroke: #000000; stroke-width: 0.8"/>
      </g>
     </g>
     <g id="text_14">
      <!-- 3 -->
      <g transform="translate(44.2375 208.28332) scale(0.1 -0.1)">
       <defs>
        <path id="DejaVuSans-33" d="M 2597 2516 
Q 3050 2419 3304 2112 
Q 3559 1806 3559 1356 
Q 3559 666 3084 287 
Q 2609 -91 1734 -91 
Q 1441 -91 1130 -33 
Q 819 25 488 141 
L 488 750 
Q 750 597 1062 519 
Q 1375 441 1716 441 
Q 2309 441 2620 675 
Q 2931 909 2931 1356 
Q 2931 1769 2642 2001 
Q 2353 2234 1838 2234 
L 1294 2234 
L 1294 2753 
L 1863 2753 
Q 2328 2753 2575 2939 
Q 2822 3125 2822 3475 
Q 2822 3834 2567 4026 
Q 2313 4219 1838 4219 
Q 1578 4219 1281 4162 
Q 984 4106 628 3988 
L 628 4550 
Q 988 4650 1302 4700 
Q 1616 4750 1894 4750 
Q 2613 4750 3031 4423 
Q 3450 4097 3450 3541 
Q 3450 3153 3228 2886 
Q 3006 2619 2597 2516 
z
" transform="scale(0.015625)"/>
       </defs>
       <use xlink:href="#DejaVuSans-33"/>
      </g>
     </g>
    </g>
    <g id="ytick_5">
     <g id="line2d_27">
      <path d="M 57.6 174.340219 
L 414.72 174.340219 
" clip-path="url(#p8c47fc5535)" style="fill: none; stroke: #b0b0b0; stroke-width: 0.8; stroke-linecap: square"/>
     </g>
     <g id="line2d_28">
      <g>
       <use xlink:href="#m3bb452982c" x="57.6" y="174.340219" style="stroke: #000000; stroke-width: 0.8"/>
      </g>
     </g>
     <g id="text_15">
      <!-- 4 -->
      <g transform="translate(44.2375 178.139437) scale(0.1 -0.1)">
       <use xlink:href="#DejaVuSans-34"/>
      </g>
     </g>
    </g>
    <g id="ytick_6">
     <g id="line2d_29">
      <path d="M 57.6 144.196336 
L 414.72 144.196336 
" clip-path="url(#p8c47fc5535)" style="fill: none; stroke: #b0b0b0; stroke-width: 0.8; stroke-linecap: square"/>
     </g>
     <g id="line2d_30">
      <g>
       <use xlink:href="#m3bb452982c" x="57.6" y="144.196336" style="stroke: #000000; stroke-width: 0.8"/>
      </g>
     </g>
     <g id="text_16">
      <!-- 5 -->
      <g transform="translate(44.2375 147.995555) scale(0.1 -0.1)">
       <defs>
        <path id="DejaVuSans-35" d="M 691 4666 
L 3169 4666 
L 3169 4134 
L 1269 4134 
L 1269 2991 
Q 1406 3038 1543 3061 
Q 1681 3084 1819 3084 
Q 2600 3084 3056 2656 
Q 3513 2228 3513 1497 
Q 3513 744 3044 326 
Q 2575 -91 1722 -91 
Q 1428 -91 1123 -41 
Q 819 9 494 109 
L 494 744 
Q 775 591 1075 516 
Q 1375 441 1709 441 
Q 2250 441 2565 725 
Q 2881 1009 2881 1497 
Q 2881 1984 2565 2268 
Q 2250 2553 1709 2553 
Q 1456 2553 1204 2497 
Q 953 2441 691 2322 
L 691 4666 
z
" transform="scale(0.015625)"/>
       </defs>
       <use xlink:href="#DejaVuSans-35"/>
      </g>
     </g>
    </g>
    <g id="ytick_7">
     <g id="line2d_31">
      <path d="M 57.6 114.052454 
L 414.72 114.052454 
" clip-path="url(#p8c47fc5535)" style="fill: none; stroke: #b0b0b0; stroke-width: 0.8; stroke-linecap: square"/>
     </g>
     <g id="line2d_32">
      <g>
       <use xlink:href="#m3bb452982c" x="57.6" y="114.052454" style="stroke: #000000; stroke-width: 0.8"/>
      </g>
     </g>
     <g id="text_17">
      <!-- 6 -->
      <g transform="translate(44.2375 117.851673) scale(0.1 -0.1)">
       <use xlink:href="#DejaVuSans-36"/>
      </g>
     </g>
    </g>
    <g id="ytick_8">
     <g id="line2d_33">
      <path d="M 57.6 83.908571 
L 414.72 83.908571 
" clip-path="url(#p8c47fc5535)" style="fill: none; stroke: #b0b0b0; stroke-width: 0.8; stroke-linecap: square"/>
     </g>
     <g id="line2d_34">
      <g>
       <use xlink:href="#m3bb452982c" x="57.6" y="83.908571" style="stroke: #000000; stroke-width: 0.8"/>
      </g>
     </g>
     <g id="text_18">
      <!-- 7 -->
      <g transform="translate(44.2375 87.70779) scale(0.1 -0.1)">
       <defs>
        <path id="DejaVuSans-37" d="M 525 4666 
L 3525 4666 
L 3525 4397 
L 1831 0 
L 1172 0 
L 2766 4134 
L 525 4134 
L 525 4666 
z
" transform="scale(0.015625)"/>
       </defs>
       <use xlink:href="#DejaVuSans-37"/>
      </g>
     </g>
    </g>
    <g id="ytick_9">
     <g id="line2d_35">
      <path d="M 57.6 53.764689 
L 414.72 53.764689 
" clip-path="url(#p8c47fc5535)" style="fill: none; stroke: #b0b0b0; stroke-width: 0.8; stroke-linecap: square"/>
     </g>
     <g id="line2d_36">
      <g>
       <use xlink:href="#m3bb452982c" x="57.6" y="53.764689" style="stroke: #000000; stroke-width: 0.8"/>
      </g>
     </g>
     <g id="text_19">
      <!-- 8 -->
      <g transform="translate(44.2375 57.563908) scale(0.1 -0.1)">
       <use xlink:href="#DejaVuSans-38"/>
      </g>
     </g>
    </g>
    <g id="text_20">
     <!-- Velocity(m/s) -->
     <g transform="translate(38.157812 207.204563) rotate(-90) scale(0.1 -0.1)">
      <defs>
       <path id="DejaVuSans-56" d="M 1831 0 
L 50 4666 
L 709 4666 
L 2188 738 
L 3669 4666 
L 4325 4666 
L 2547 0 
L 1831 0 
z
" transform="scale(0.015625)"/>
       <path id="DejaVuSans-6c" d="M 603 4863 
L 1178 4863 
L 1178 0 
L 603 0 
L 603 4863 
z
" transform="scale(0.015625)"/>
       <path id="DejaVuSans-6f" d="M 1959 3097 
Q 1497 3097 1228 2736 
Q 959 2375 959 1747 
Q 959 1119 1226 758 
Q 1494 397 1959 397 
Q 2419 397 2687 759 
Q 2956 1122 2956 1747 
Q 2956 2369 2687 2733 
Q 2419 3097 1959 3097 
z
M 1959 3584 
Q 2709 3584 3137 3096 
Q 3566 2609 3566 1747 
Q 3566 888 3137 398 
Q 2709 -91 1959 -91 
Q 1206 -91 779 398 
Q 353 888 353 1747 
Q 353 2609 779 3096 
Q 1206 3584 1959 3584 
z
" transform="scale(0.015625)"/>
       <path id="DejaVuSans-63" d="M 3122 3366 
L 3122 2828 
Q 2878 2963 2633 3030 
Q 2388 3097 2138 3097 
Q 1578 3097 1268 2742 
Q 959 2388 959 1747 
Q 959 1106 1268 751 
Q 1578 397 2138 397 
Q 2388 397 2633 464 
Q 2878 531 3122 666 
L 3122 134 
Q 2881 22 2623 -34 
Q 2366 -91 2075 -91 
Q 1284 -91 818 406 
Q 353 903 353 1747 
Q 353 2603 823 3093 
Q 1294 3584 2113 3584 
Q 2378 3584 2631 3529 
Q 2884 3475 3122 3366 
z
" transform="scale(0.015625)"/>
       <path id="DejaVuSans-74" d="M 1172 4494 
L 1172 3500 
L 2356 3500 
L 2356 3053 
L 1172 3053 
L 1172 1153 
Q 1172 725 1289 603 
Q 1406 481 1766 481 
L 2356 481 
L 2356 0 
L 1766 0 
Q 1100 0 847 248 
Q 594 497 594 1153 
L 594 3053 
L 172 3053 
L 172 3500 
L 594 3500 
L 594 4494 
L 1172 4494 
z
" transform="scale(0.015625)"/>
       <path id="DejaVuSans-79" d="M 2059 -325 
Q 1816 -950 1584 -1140 
Q 1353 -1331 966 -1331 
L 506 -1331 
L 506 -850 
L 844 -850 
Q 1081 -850 1212 -737 
Q 1344 -625 1503 -206 
L 1606 56 
L 191 3500 
L 800 3500 
L 1894 763 
L 2988 3500 
L 3597 3500 
L 2059 -325 
z
" transform="scale(0.015625)"/>
       <path id="DejaVuSans-2f" d="M 1625 4666 
L 2156 4666 
L 531 -594 
L 0 -594 
L 1625 4666 
z
" transform="scale(0.015625)"/>
      </defs>
      <use xlink:href="#DejaVuSans-56"/>
      <use xlink:href="#DejaVuSans-65" x="60.658203"/>
      <use xlink:href="#DejaVuSans-6c" x="122.181641"/>
      <use xlink:href="#DejaVuSans-6f" x="149.964844"/>
      <use xlink:href="#DejaVuSans-63" x="211.146484"/>
      <use xlink:href="#DejaVuSans-69" x="266.126953"/>
      <use xlink:href="#DejaVuSans-74" x="293.910156"/>
      <use xlink:href="#DejaVuSans-79" x="333.119141"/>
      <use xlink:href="#DejaVuSans-28" x="392.298828"/>
      <use xlink:href="#DejaVuSans-6d" x="431.3125"/>
      <use xlink:href="#DejaVuSans-2f" x="528.724609"/>
      <use xlink:href="#DejaVuSans-73" x="562.416016"/>
      <use xlink:href="#DejaVuSans-29" x="614.515625"/>
     </g>
    </g>
   </g>
   <g id="line2d_37">
    <path d="M 73.832727 295.488 
L 73.832727 294.872522 
L 74.239053 294.46989 
L 74.239053 293.921603 
L 74.645379 292.73303 
L 74.645379 292.761606 
L 75.458032 289.390948 
L 75.864358 288.522774 
L 75.864358 288.238517 
L 76.270684 286.488936 
L 76.270684 286.82299 
L 77.489662 282.104568 
L 77.895988 281.312387 
L 77.895988 280.881661 
L 78.302314 279.300856 
L 78.302314 278.58316 
L 78.70864 277.781875 
L 78.70864 277.991225 
L 79.927619 273.474435 
L 79.927619 273.12564 
L 80.333945 271.496002 
L 80.740271 269.803543 
L 80.740271 270.300345 
L 81.146597 268.643456 
L 81.146597 269.038763 
L 82.771901 263.151874 
L 82.771901 262.496244 
L 83.178227 260.9492 
L 83.178227 261.394967 
L 84.397206 256.709824 
L 84.397206 256.993237 
L 84.803532 255.737805 
L 84.803532 254.920755 
L 85.209858 253.373228 
L 85.616184 252.40778 
L 85.616184 251.841316 
L 86.428836 249.256388 
L 86.428836 248.5928 
L 86.835162 247.169014 
L 86.835162 247.86148 
L 87.241488 245.76443 
L 87.241488 246.004164 
L 87.647814 244.853211 
L 87.647814 244.35038 
L 88.460466 241.09888 
L 88.460466 241.245621 
L 88.866793 239.837932 
L 88.866793 239.232582 
L 89.679445 236.84374 
L 89.679445 236.365507 
L 90.085771 235.335219 
L 90.085771 234.78018 
L 91.304749 229.941936 
L 91.304749 230.439039 
L 91.711075 228.235883 
L 92.117401 227.169302 
L 92.117401 227.195346 
L 93.33638 221.757028 
L 93.742706 220.547957 
L 94.149032 218.869968 
L 94.149032 219.505823 
L 94.961684 215.749624 
L 95.36801 214.110972 
L 95.774336 212.179231 
L 95.774336 212.816925 
L 96.180662 210.742484 
L 96.993314 207.863472 
L 96.993314 207.096611 
L 97.805967 204.978159 
L 97.805967 204.316019 
L 98.212293 203.057391 
L 98.212293 203.171848 
L 99.837597 195.948921 
L 100.243923 194.729661 
L 100.243923 194.811351 
L 101.056575 190.864281 
L 101.056575 191.149623 
L 101.462901 189.282813 
L 101.462901 189.507776 
L 102.68188 184.761954 
L 102.68188 184.513267 
L 106.338814 169.099735 
L 106.745141 167.167753 
L 106.745141 167.897115 
L 107.151467 166.236639 
L 107.151467 165.600151 
L 107.557793 164.182514 
L 107.557793 164.602147 
L 108.370445 160.525036 
L 108.370445 160.924654 
L 108.776771 158.657623 
L 108.776771 159.286002 
L 109.183097 157.055023 
L 109.183097 157.243392 
L 109.589423 155.631569 
L 109.589423 155.138264 
L 109.995749 153.912584 
L 110.808401 150.090309 
L 110.808401 150.600314 
L 111.214728 148.426307 
L 111.214728 148.917712 
L 111.621054 147.240748 
L 111.621054 146.54138 
L 112.433706 143.032903 
L 112.433706 143.282072 
L 112.840032 141.46515 
L 114.05901 135.501755 
L 114.465336 134.598705 
L 114.465336 134.066635 
L 114.871662 132.576683 
L 116.903293 123.361186 
L 117.309619 122.407102 
L 117.309619 122.097072 
L 118.528597 115.957487 
L 118.528597 116.184289 
L 119.747575 110.747117 
L 119.747575 111.462461 
L 120.560228 106.874954 
L 120.560228 107.036314 
L 121.37288 103.396591 
L 121.37288 102.783495 
L 121.779206 101.728007 
L 121.779206 101.972082 
L 122.998184 96.050527 
L 122.998184 96.220569 
L 124.217162 90.654832 
L 124.217162 90.745927 
L 125.029815 86.724854 
L 125.842467 82.890462 
L 125.842467 82.945746 
L 126.248793 80.446305 
L 126.248793 81.125959 
L 126.655119 78.860616 
L 126.655119 79.210466 
L 127.467771 75.406369 
L 127.467771 75.728366 
L 128.280423 71.609475 
L 128.280423 71.795373 
L 128.686749 70.315157 
L 128.686749 70.633477 
L 129.093075 68.179735 
L 129.499402 67.59214 
L 129.499402 67.279066 
L 129.905728 66.452882 
L 129.905728 66.159522 
L 131.124706 62.2665 
L 131.124706 63.028507 
L 131.531032 61.918217 
L 131.531032 62.462676 
L 131.937358 61.394316 
L 131.937358 60.786495 
L 132.343684 60.857635 
L 132.343684 60.440293 
L 132.75001 60.43137 
L 132.75001 60.287282 
L 133.156336 60.055175 
L 133.156336 59.691338 
L 133.562662 59.372596 
L 133.562662 60.008331 
L 133.968989 59.685942 
L 133.968989 59.865992 
L 134.375315 60.514597 
L 134.375315 61.191569 
L 134.781641 61.064573 
L 134.781641 61.300298 
L 135.187967 62.341588 
L 135.187967 61.975702 
L 135.594293 63.506679 
L 135.594293 63.360542 
L 136.406945 67.698096 
L 136.406945 68.408074 
L 136.813271 69.813834 
L 136.813271 70.316845 
L 137.219597 72.46939 
L 137.625923 75.278106 
L 137.625923 75.159581 
L 138.032249 79.415897 
L 138.032249 79.307017 
L 138.438575 81.722205 
L 138.844902 84.793746 
L 139.251228 88.955049 
L 140.06388 94.696916 
L 140.06388 94.030827 
L 140.470206 98.588552 
L 140.470206 98.163402 
L 141.282858 103.967064 
L 141.282858 103.716991 
L 141.689184 107.603652 
L 143.314489 116.418387 
L 143.314489 116.736917 
L 144.127141 120.79558 
L 144.127141 120.533358 
L 144.533467 122.062588 
L 144.533467 122.722618 
L 144.939793 124.065709 
L 145.752445 127.991588 
L 146.158771 128.592868 
L 146.158771 129.120928 
L 146.565097 130.170177 
L 146.565097 130.86011 
L 146.971423 131.542236 
L 146.971423 131.252915 
L 147.377749 132.947122 
L 147.377749 132.6367 
L 147.784076 133.322654 
L 147.784076 133.170849 
L 148.190402 134.294463 
L 148.190402 133.739182 
L 148.596728 135.069402 
L 149.40938 136.637999 
L 149.40938 136.387383 
L 149.815706 136.995596 
L 149.815706 136.693403 
L 150.222032 137.802969 
L 150.222032 137.301827 
L 150.628358 138.129307 
L 150.628358 137.432742 
L 151.034684 138.885436 
L 151.034684 138.305408 
L 151.847336 138.425712 
L 151.847336 138.845737 
L 152.253663 139.293223 
L 152.253663 139.105969 
L 152.659989 139.226002 
L 152.659989 138.625084 
L 153.066315 139.382238 
L 153.066315 139.693051 
L 153.878967 139.035975 
L 153.878967 139.441832 
L 154.285293 139.32406 
L 154.285293 138.871419 
L 154.691619 139.022048 
L 154.691619 139.45401 
L 155.097945 139.132435 
L 155.504271 139.253041 
L 155.504271 139.404062 
L 155.910597 139.462149 
L 155.910597 139.051258 
L 156.316923 139.416813 
L 156.316923 139.738599 
L 156.72325 139.485541 
L 156.72325 139.651332 
L 157.129576 139.787763 
L 157.129576 139.578896 
L 157.535902 139.187357 
L 157.535902 138.836543 
L 157.942228 139.547788 
L 157.942228 139.255724 
L 158.348554 139.236492 
L 158.348554 139.69489 
L 158.75488 138.965046 
L 158.75488 139.123513 
L 159.161206 138.892249 
L 159.161206 139.073203 
L 159.567532 138.936801 
L 159.567532 139.086888 
L 159.973858 138.714551 
L 159.973858 138.912596 
L 160.380184 138.903884 
L 160.380184 138.33516 
L 160.78651 137.866513 
L 160.78651 138.054309 
L 161.192837 136.99436 
L 161.192837 137.6272 
L 161.599163 137.461168 
L 161.599163 136.65503 
L 162.005489 136.812502 
L 162.411815 136.075484 
L 162.411815 136.081874 
L 163.224467 134.244484 
L 163.224467 134.545833 
L 164.037119 132.34343 
L 164.037119 132.845929 
L 164.443445 130.852272 
L 164.443445 131.484269 
L 164.849771 130.526719 
L 164.849771 129.962093 
L 166.475076 123.576142 
L 166.881402 122.164384 
L 166.881402 121.681268 
L 167.287728 119.987362 
L 167.287728 120.478949 
L 167.694054 117.904691 
L 168.10038 116.1697 
L 170.944663 103.63087 
L 170.944663 103.772968 
L 171.757315 100.479116 
L 172.163641 99.607807 
L 172.163641 99.102445 
L 172.569967 98.623157 
L 172.569967 98.758533 
L 172.976293 97.872454 
L 172.976293 97.514525 
L 173.382619 96.792308 
L 173.382619 96.409963 
L 173.788945 95.966516 
L 173.788945 95.673276 
L 174.195271 95.449729 
L 174.195271 95.154711 
L 174.601597 94.493987 
L 175.007924 93.432832 
L 175.007924 93.973674 
L 175.41425 93.416525 
L 175.41425 92.720472 
L 175.820576 92.742176 
L 175.820576 92.70106 
L 176.226902 92.332973 
L 176.226902 92.49584 
L 176.633228 91.307026 
L 177.44588 90.541009 
L 177.44588 90.250482 
L 177.852206 89.811678 
L 177.852206 89.38267 
L 178.258532 88.596638 
L 178.258532 89.12066 
L 179.071184 87.096287 
L 179.071184 87.400529 
L 179.883837 83.924849 
L 180.290163 82.926996 
L 180.290163 82.443277 
L 181.102815 79.732167 
L 181.102815 79.068428 
L 182.728119 71.387134 
L 183.134445 70.387895 
L 183.134445 70.778409 
L 183.540771 68.800186 
L 183.540771 68.946233 
L 183.947098 67.903195 
L 183.947098 68.749122 
L 184.353424 67.128286 
L 184.353424 67.337906 
L 185.166076 66.135859 
L 185.166076 66.32055 
L 185.572402 65.767199 
L 186.385054 64.879401 
L 186.79138 64.740287 
L 186.79138 64.466008 
L 187.604032 63.991544 
L 188.010358 63.579145 
L 188.010358 63.636569 
L 188.416684 63.632289 
L 188.416684 62.964873 
L 188.823011 62.862565 
L 188.823011 63.219348 
L 189.229337 62.927917 
L 189.229337 63.471381 
L 189.635663 62.412547 
L 189.635663 62.97678 
L 190.448315 61.747754 
L 190.448315 62.266891 
L 190.854641 61.988844 
L 190.854641 61.792125 
L 191.260967 61.4537 
L 191.260967 61.682763 
L 191.667293 60.66182 
L 191.667293 60.893174 
L 192.479945 59.781016 
L 192.479945 60.065514 
L 192.886271 59.799343 
L 192.886271 59.329792 
L 193.292598 59.073207 
L 193.292598 58.829404 
L 193.698924 58.511054 
L 193.698924 57.987244 
L 194.10525 57.901635 
L 194.511576 57.648487 
L 194.511576 57.367667 
L 194.917902 57.109575 
L 194.917902 56.891755 
L 195.324228 56.629744 
L 195.324228 57.121934 
L 195.730554 56.24538 
L 195.730554 56.719452 
L 196.13688 56.236216 
L 196.13688 56.298584 
L 196.543206 55.998562 
L 196.543206 56.339127 
L 196.949532 55.997235 
L 197.355858 56.03591 
L 197.355858 55.944031 
L 197.762185 55.76986 
L 198.168511 55.863547 
L 198.168511 55.537933 
L 198.574837 54.717085 
L 198.574837 55.314446 
L 198.981163 54.715789 
L 198.981163 54.92348 
L 199.387489 54.806763 
L 199.793815 54.669729 
L 199.793815 54.899485 
L 200.200141 54.417877 
L 200.200141 55.080469 
L 200.606467 54.843418 
L 200.606467 55.086498 
L 201.012793 54.734146 
L 201.419119 54.28449 
L 201.419119 54.578453 
L 202.231772 54.308032 
L 202.231772 54.503787 
L 202.638098 54.141518 
L 202.638098 54.394696 
L 203.45075 54.019254 
L 203.45075 54.318281 
L 203.857076 54.247895 
L 203.857076 54.39545 
L 204.263402 53.832091 
L 204.263402 54.232492 
L 204.669728 54.166085 
L 204.669728 54.311228 
L 205.076054 54.193365 
L 205.076054 54.430537 
L 205.48238 54.47304 
L 205.48238 54.179559 
L 205.888706 54.35581 
L 205.888706 54.337543 
L 206.295032 53.803936 
L 206.295032 53.977444 
L 206.701359 54.303089 
L 206.701359 54.13986 
L 207.107685 53.569206 
L 207.107685 53.855573 
L 207.514011 54.190682 
L 207.514011 54.585085 
L 207.920337 54.567029 
L 207.920337 54.124788 
L 208.326663 54.21543 
L 208.326663 54.514307 
L 208.732989 54.433702 
L 208.732989 53.887043 
L 209.139315 53.856115 
L 209.139315 53.921256 
L 209.545641 54.038757 
L 209.545641 54.180283 
L 209.951967 53.765111 
L 209.951967 54.124185 
L 210.358293 53.809814 
L 210.764619 54.035441 
L 210.764619 53.987904 
L 211.170946 53.856115 
L 211.170946 54.037039 
L 211.577272 53.572642 
L 211.577272 53.64978 
L 211.983598 54.226493 
L 211.983598 53.952063 
L 212.389924 54.370852 
L 212.389924 54.188452 
L 213.202576 54.055276 
L 213.202576 54.283344 
L 213.608902 54.425654 
L 214.015228 53.768668 
L 214.015228 54.401599 
L 214.421554 53.743076 
L 214.421554 54.204699 
L 214.82788 54.117101 
L 214.82788 54.645493 
L 215.234206 54.509002 
L 215.234206 54.533147 
L 215.640532 54.100853 
L 215.640532 54.598529 
L 216.046859 54.119392 
L 216.046859 53.94504 
L 216.453185 53.831397 
L 216.453185 54.43331 
L 216.859511 53.963789 
L 216.859511 53.781961 
L 217.265837 53.832543 
L 217.265837 53.953269 
L 218.078489 54.337845 
L 218.078489 53.828323 
L 218.484815 54.16919 
L 218.484815 54.021726 
L 218.891141 53.864164 
L 218.891141 54.187939 
L 219.297467 54.103687 
L 219.297467 54.117734 
L 219.703793 53.829619 
L 219.703793 53.568 
L 220.110119 53.785458 
L 220.110119 54.319487 
L 220.516446 53.840531 
L 220.516446 53.649841 
L 220.922772 53.860094 
L 220.922772 54.24054 
L 221.329098 53.69361 
L 221.329098 53.788503 
L 221.735424 54.23005 
L 221.735424 54.224745 
L 222.14175 53.944256 
L 222.14175 54.107907 
L 222.548076 54.131088 
L 222.548076 54.126265 
L 222.954402 54.708373 
L 222.954402 55.001522 
L 223.360728 55.968719 
L 223.360728 55.496817 
L 224.17338 59.070555 
L 224.579706 61.825796 
L 224.986033 63.400241 
L 225.392359 65.022223 
L 226.205011 69.288396 
L 226.205011 68.582517 
L 226.611337 70.623529 
L 226.611337 70.505245 
L 227.017663 71.939852 
L 227.017663 71.790911 
L 227.423989 74.59372 
L 227.423989 74.280012 
L 227.830315 76.390687 
L 227.830315 75.860848 
L 229.45562 83.182857 
L 229.45562 83.040608 
L 229.861946 84.511268 
L 230.268272 86.863275 
L 230.268272 86.270857 
L 231.48725 90.470171 
L 231.48725 90.622458 
L 231.893576 92.659551 
L 232.299902 93.442961 
L 233.112554 95.784417 
L 233.112554 95.989848 
L 233.925207 98.384387 
L 233.925207 98.040234 
L 234.331533 98.574776 
L 234.331533 98.8858 
L 234.737859 99.468934 
L 234.737859 99.12457 
L 235.144185 100.818928 
L 235.550511 101.103727 
L 235.550511 100.961177 
L 235.956837 101.755498 
L 236.363163 103.20563 
L 236.363163 102.59178 
L 236.769489 103.727571 
L 237.175815 104.166165 
L 237.175815 103.629483 
L 237.582141 104.655219 
L 237.582141 104.487468 
L 237.988467 105.089261 
L 237.988467 104.890492 
L 238.394793 105.784288 
L 238.394793 105.278323 
L 238.80112 105.376291 
L 238.80112 105.57521 
L 239.207446 105.94797 
L 239.207446 106.190417 
L 239.613772 106.19108 
L 239.613772 106.624248 
L 240.020098 106.663224 
L 240.020098 106.509821 
L 240.426424 106.54931 
L 240.426424 106.36914 
L 240.83275 107.130815 
L 240.83275 106.919145 
L 241.239076 106.997278 
L 241.239076 107.250155 
L 241.645402 107.066699 
L 241.645402 107.197735 
L 242.051728 107.306765 
L 242.051728 107.115744 
L 242.458054 107.27222 
L 242.86438 107.236349 
L 242.86438 107.2847 
L 243.270707 107.621769 
L 243.270707 107.192882 
L 243.677033 107.616855 
L 243.677033 107.422337 
L 244.083359 107.20084 
L 244.083359 106.932559 
L 244.489685 107.511231 
L 244.489685 107.199785 
L 244.896011 107.380829 
L 244.896011 107.23451 
L 245.302337 107.33914 
L 245.302337 107.513613 
L 245.708663 107.563862 
L 245.708663 107.721816 
L 246.114989 107.087559 
L 246.114989 107.331061 
L 246.521315 107.64088 
L 246.521315 107.587736 
L 246.927641 107.32458 
L 246.927641 107.441117 
L 247.333967 106.903802 
L 247.333967 107.56953 
L 247.740294 107.14435 
L 247.740294 107.191465 
L 248.14662 107.004151 
L 248.14662 107.206145 
L 248.552946 107.268483 
L 248.552946 106.514403 
L 248.959272 106.679652 
L 248.959272 107.197283 
L 249.365598 106.692312 
L 249.365598 106.960593 
L 249.771924 106.787778 
L 249.771924 106.616018 
L 250.17825 106.715161 
L 250.17825 106.572521 
L 250.584576 106.381378 
L 250.584576 106.739759 
L 250.990902 106.661716 
L 250.990902 106.101824 
L 251.397228 106.52842 
L 251.397228 105.994029 
L 252.616207 105.52478 
L 252.616207 105.282272 
L 253.022533 105.254811 
L 253.022533 105.022402 
L 253.428859 104.346244 
L 253.428859 104.505645 
L 253.835185 104.424136 
L 255.054163 103.210182 
L 255.054163 103.294313 
L 255.460489 102.551417 
L 255.460489 102.996642 
L 255.866815 102.023658 
L 255.866815 102.303815 
L 257.085794 100.017311 
L 257.085794 100.236156 
L 257.49212 99.906502 
L 257.49212 99.549629 
L 257.898446 98.588521 
L 258.304772 98.20069 
L 258.304772 97.929908 
L 258.711098 97.041085 
L 258.711098 97.32079 
L 260.336402 93.252512 
L 260.336402 92.783563 
L 260.742728 92.261411 
L 260.742728 91.966122 
L 261.149054 91.377351 
L 261.149054 90.957055 
L 261.961707 88.066739 
L 261.961707 88.350514 
L 262.774359 85.028899 
L 262.774359 85.356593 
L 265.618641 71.801793 
L 265.618641 71.997698 
L 266.83762 67.676603 
L 266.83762 67.290098 
L 267.243946 65.918521 
L 267.243946 66.66609 
L 268.056598 64.219672 
L 268.056598 64.292349 
L 268.462924 63.178382 
L 268.462924 62.71495 
L 268.86925 62.598173 
L 268.86925 62.216521 
L 269.275576 61.598421 
L 269.275576 61.685989 
L 269.681902 60.481499 
L 269.681902 60.938812 
L 270.088228 60.123661 
L 270.088228 59.502818 
L 270.494555 59.757594 
L 270.494555 58.974124 
L 270.900881 58.785966 
L 271.307207 58.907235 
L 271.307207 58.634373 
L 271.713533 57.938833 
L 271.713533 58.220226 
L 272.119859 57.273919 
L 272.119859 57.501144 
L 272.526185 57.269186 
L 272.526185 56.794903 
L 272.932511 57.108429 
L 273.338837 56.820434 
L 273.338837 56.319413 
L 273.745163 56.69802 
L 273.745163 56.437818 
L 274.151489 55.999948 
L 274.151489 56.321161 
L 274.557815 55.960219 
L 274.557815 55.731607 
L 274.964142 55.622456 
L 274.964142 55.949517 
L 275.370468 55.321289 
L 275.776794 55.479243 
L 275.776794 55.648199 
L 276.18312 55.182597 
L 276.18312 55.265101 
L 276.589446 55.179643 
L 276.589446 55.293044 
L 276.995772 55.356678 
L 276.995772 54.826085 
L 277.402098 55.099189 
L 277.402098 54.639464 
L 277.808424 54.461284 
L 277.808424 55.145972 
L 278.21475 54.436264 
L 278.21475 54.6867 
L 278.621076 54.516929 
L 279.027402 55.035495 
L 279.027402 54.648779 
L 279.433729 54.859153 
L 279.433729 54.502038 
L 279.840055 54.49827 
L 279.840055 54.610436 
L 280.246381 54.102783 
L 280.246381 54.103808 
L 280.652707 54.626352 
L 280.652707 54.260465 
L 281.059033 54.233004 
L 281.059033 54.276562 
L 281.465359 54.441781 
L 281.465359 54.220042 
L 281.871685 54.395299 
L 281.871685 54.240781 
L 282.278011 54.377665 
L 282.278011 53.838602 
L 282.684337 54.181096 
L 282.684337 54.034386 
L 283.090663 53.767161 
L 283.090663 54.025192 
L 283.496989 54.136664 
L 283.903316 53.616351 
L 283.903316 54.276502 
L 284.309642 54.19641 
L 284.715968 54.618846 
L 284.715968 54.014672 
L 285.122294 54.492935 
L 285.122294 54.0059 
L 285.52862 54.162076 
L 285.52862 54.129189 
L 285.934946 53.795827 
L 285.934946 54.488052 
L 286.341272 53.702472 
L 286.341272 54.38297 
L 286.747598 54.13356 
L 286.747598 54.583095 
L 287.153924 54.226433 
L 287.153924 54.725103 
L 287.56025 54.253532 
L 287.56025 54.507645 
L 287.966576 53.937896 
L 287.966576 54.428728 
L 288.372902 54.092142 
L 288.372902 54.353037 
L 288.779229 54.457787 
L 288.779229 54.09808 
L 289.185555 53.612854 
L 289.185555 54.210999 
L 289.591881 54.637053 
L 289.591881 54.331906 
L 289.998207 54.551384 
L 289.998207 54.164186 
L 290.404533 54.148692 
L 290.404533 54.375374 
L 290.810859 54.101125 
L 291.217185 54.24895 
L 291.217185 53.73343 
L 292.029837 54.37667 
L 292.029837 53.86124 
L 292.436163 53.779972 
L 292.436163 54.002916 
L 293.248816 54.268875 
L 293.248816 53.994204 
L 293.655142 53.655508 
L 293.655142 54.063475 
L 294.061468 54.751147 
L 294.061468 54.273367 
L 294.467794 54.283616 
L 294.467794 54.121623 
L 294.87412 53.869077 
L 295.280446 54.08337 
L 295.280446 54.390898 
L 295.686772 53.982991 
L 295.686772 54.097387 
L 296.093098 54.390295 
L 296.093098 54.348154 
L 296.499424 54.22794 
L 296.499424 53.88855 
L 296.90575 54.184171 
L 296.90575 53.925265 
L 297.312076 54.031492 
L 297.312076 53.993481 
L 297.718403 54.325576 
L 297.718403 54.138985 
L 298.124729 54.802392 
L 298.531055 55.84959 
L 298.531055 55.502182 
L 299.343707 57.279255 
L 299.343707 57.034697 
L 299.750033 58.144625 
L 299.750033 57.620875 
L 300.156359 58.979158 
L 300.156359 58.561997 
L 300.562685 59.349627 
L 300.562685 60.011526 
L 300.969011 61.253484 
L 300.969011 60.782426 
L 302.18799 64.311219 
L 302.18799 63.774447 
L 302.594316 66.103756 
L 303.406968 68.009753 
L 304.21962 71.220559 
L 304.21962 71.450165 
L 305.032272 73.138976 
L 305.032272 73.841087 
L 305.438598 74.795925 
L 305.438598 75.360128 
L 305.844924 76.280813 
L 305.844924 76.892191 
L 306.657577 79.527098 
L 306.657577 79.750162 
L 307.470229 83.484989 
L 307.470229 83.30503 
L 307.876555 84.684776 
L 307.876555 84.652341 
L 308.282881 86.781555 
L 308.282881 86.173794 
L 309.095533 90.569947 
L 309.095533 89.820812 
L 309.908185 94.070074 
L 309.908185 93.513919 
L 310.314511 96.221172 
L 310.314511 95.244028 
L 311.53349 101.352113 
L 311.53349 101.229216 
L 311.939816 103.885525 
L 311.939816 103.140971 
L 312.346142 105.833332 
L 312.752468 107.674491 
L 313.56512 112.454738 
L 313.56512 111.72616 
L 313.971446 114.358022 
L 313.971446 114.186413 
L 314.784098 118.051884 
L 315.190424 121.275531 
L 315.190424 121.075466 
L 315.59675 122.612563 
L 315.59675 122.262261 
L 316.003077 125.131657 
L 316.409403 126.576182 
L 317.628381 133.161113 
L 317.628381 132.609751 
L 318.034707 135.575337 
L 318.034707 134.883625 
L 318.441033 137.055823 
L 318.441033 136.987246 
L 318.847359 138.371664 
L 318.847359 138.929778 
L 319.253685 140.030783 
L 319.660011 142.283466 
L 319.660011 141.864556 
L 320.066337 143.151579 
L 320.066337 143.612057 
L 320.472664 145.120427 
L 320.472664 145.60713 
L 320.87899 147.011232 
L 321.285316 149.1938 
L 321.285316 148.826376 
L 321.691642 150.036382 
L 321.691642 149.386058 
L 322.097968 152.332954 
L 322.097968 151.68269 
L 322.504294 152.988915 
L 322.91062 155.271289 
L 322.91062 155.158822 
L 323.316946 155.846585 
L 323.316946 155.701925 
L 324.535924 159.888759 
L 324.942251 160.836965 
L 324.942251 161.335756 
L 325.348577 162.515889 
L 325.348577 161.91901 
L 325.754903 164.12928 
L 325.754903 164.119664 
L 326.161229 165.217022 
L 326.567555 166.845033 
L 326.973881 167.549616 
L 326.973881 168.460021 
L 327.380207 169.277554 
L 327.380207 169.663094 
L 327.786533 170.328882 
L 328.192859 171.796587 
L 328.192859 171.081092 
L 329.005511 173.605974 
L 329.005511 173.394394 
L 329.818164 175.634507 
L 330.22449 175.989481 
L 330.22449 176.576955 
L 330.630816 177.042316 
L 330.630816 177.297032 
L 331.037142 177.518921 
L 331.037142 178.404488 
L 331.443468 178.229925 
L 331.443468 179.161672 
L 331.849794 179.785379 
L 332.25612 180.866882 
L 332.25612 180.244109 
L 332.662446 181.121688 
L 332.662446 181.44486 
L 333.068772 181.701174 
L 333.068772 181.69626 
L 333.475098 182.639643 
L 333.475098 182.330397 
L 333.881425 183.470198 
L 333.881425 183.29883 
L 334.287751 183.516318 
L 334.287751 183.735223 
L 334.694077 184.803371 
L 335.100403 185.018267 
L 335.100403 184.904323 
L 335.913055 185.975185 
L 335.913055 185.774848 
L 336.319381 186.360544 
L 336.725707 186.522808 
L 336.725707 186.402022 
L 337.132033 186.166809 
L 337.132033 186.889057 
L 337.538359 186.876728 
L 337.538359 187.029618 
L 337.944685 187.467186 
L 337.944685 187.782431 
L 338.351011 187.924198 
L 338.351011 187.625231 
L 338.757338 187.727298 
L 338.757338 187.875153 
L 339.163664 187.917958 
L 339.163664 188.314621 
L 339.56999 188.799154 
L 339.56999 188.374005 
L 339.976316 188.820285 
L 339.976316 188.58474 
L 340.382642 189.058482 
L 340.382642 188.822485 
L 340.788968 188.764519 
L 340.788968 189.138031 
L 341.195294 189.319558 
L 341.195294 188.474896 
L 341.60162 189.145236 
L 341.60162 189.11039 
L 342.007946 189.485922 
L 342.007946 189.304335 
L 342.414272 189.555946 
L 342.414272 189.530324 
L 342.820598 189.644509 
L 342.820598 189.504852 
L 343.226925 189.930484 
L 343.633251 189.779855 
L 343.633251 190.095914 
L 344.445903 189.75788 
L 344.445903 189.409296 
L 344.852229 190.106765 
L 344.852229 189.746214 
L 345.258555 190.038912 
L 345.664881 189.476668 
L 345.664881 190.198554 
L 346.071207 190.312588 
L 346.071207 189.835772 
L 346.477533 189.981246 
L 346.477533 190.268548 
L 346.883859 190.352016 
L 346.883859 189.865011 
L 347.290185 190.458725 
L 347.290185 190.041112 
L 347.696512 190.264327 
L 348.102838 189.939135 
L 348.102838 190.074722 
L 348.509164 190.035505 
L 348.509164 190.668919 
L 348.91549 190.408476 
L 349.321816 190.491492 
L 349.321816 189.813375 
L 349.728142 189.831039 
L 349.728142 190.193278 
L 350.134468 189.686198 
L 350.134468 190.51624 
L 350.540794 190.106404 
L 350.540794 189.839751 
L 350.94712 190.201025 
L 350.94712 190.061761 
L 351.353446 190.000569 
L 351.353446 190.235269 
L 351.759772 190.113156 
L 351.759772 190.396237 
L 352.166099 189.910378 
L 352.166099 190.128439 
L 352.572425 190.063358 
L 352.572425 189.679988 
L 352.978751 189.77678 
L 352.978751 189.576504 
L 353.385077 190.433465 
L 353.385077 189.810903 
L 353.791403 189.919481 
L 354.197729 189.698467 
L 354.197729 190.167053 
L 354.604055 189.083833 
L 354.604055 189.494995 
L 355.010381 189.539096 
L 355.823033 189.288932 
L 355.823033 189.118589 
L 356.229359 188.752853 
L 356.229359 188.851243 
L 356.635686 188.888591 
L 356.635686 188.879246 
L 357.042012 188.373763 
L 357.042012 188.585585 
L 357.448338 188.660974 
L 357.448338 188.495424 
L 358.26099 187.527926 
L 358.26099 188.057946 
L 358.667316 187.578055 
L 358.667316 187.901771 
L 359.073642 186.95474 
L 359.073642 187.195198 
L 359.479968 186.707108 
L 359.479968 186.787713 
L 359.886294 186.687907 
L 359.886294 186.993746 
L 360.29262 186.552078 
L 360.698946 185.952667 
L 360.698946 186.440064 
L 361.105272 185.122022 
L 361.105272 185.355788 
L 361.511599 184.740551 
L 361.511599 184.864925 
L 361.917925 184.751373 
L 361.917925 184.619192 
L 362.730577 183.44141 
L 362.730577 183.128155 
L 363.136903 183.080829 
L 363.136903 182.682086 
L 363.543229 183.050505 
L 363.543229 182.367173 
L 365.168533 179.580733 
L 365.574859 177.943679 
L 365.981186 177.792839 
L 365.981186 178.139403 
L 366.387512 176.720832 
L 366.387512 176.262072 
L 366.793838 174.861889 
L 366.793838 174.973964 
L 367.200164 174.10799 
L 367.200164 174.189168 
L 367.60649 172.933826 
L 367.60649 173.253713 
L 368.012816 171.161576 
L 369.231794 167.505184 
L 369.231794 167.898652 
L 370.044446 164.249524 
L 370.450773 163.392594 
L 370.450773 162.871376 
L 370.857099 161.410121 
L 370.857099 162.173846 
L 371.263425 159.591118 
L 371.263425 159.855058 
L 371.669751 158.037774 
L 371.669751 158.469344 
L 372.076077 156.816947 
L 372.482403 155.1228 
L 372.888729 154.600949 
L 372.888729 154.662262 
L 373.295055 153.718608 
L 373.295055 153.846719 
L 373.701381 153.552786 
L 373.701381 153.741246 
L 374.107707 152.56054 
L 374.107707 152.750115 
L 374.514033 152.888264 
L 374.514033 152.779837 
L 374.92036 152.662728 
L 375.326686 153.99569 
L 375.733012 154.273798 
L 376.139338 154.844753 
L 376.139338 155.05368 
L 376.545664 155.883843 
L 376.95199 156.812244 
L 376.95199 156.22471 
L 377.764642 158.4099 
L 377.764642 157.925578 
L 378.170968 158.167332 
L 378.170968 158.590342 
L 378.577294 159.608753 
L 378.577294 159.54952 
L 378.98362 159.978347 
L 378.98362 160.264925 
L 379.389947 160.582943 
L 380.608925 162.621302 
L 380.608925 162.21861 
L 381.015251 162.213998 
L 381.015251 162.434742 
L 381.421577 162.448125 
L 381.421577 162.67327 
L 381.827903 162.730604 
L 381.827903 162.603095 
L 382.234229 163.348433 
L 382.640555 163.200366 
L 383.046881 163.790433 
L 383.046881 163.669254 
L 383.453207 164.166839 
L 383.859534 163.746 
L 383.859534 163.977716 
L 384.26586 164.220043 
L 384.26586 164.134796 
L 384.672186 164.234 
L 384.672186 163.70395 
L 385.078512 164.248469 
L 385.078512 164.447147 
L 385.484838 163.966352 
L 385.484838 164.211271 
L 385.891164 164.170276 
L 385.891164 164.80384 
L 386.703816 164.686972 
L 386.703816 164.3827 
L 387.110142 164.075564 
L 387.110142 164.664937 
L 387.516468 164.59235 
L 387.516468 164.715217 
L 387.922794 164.505204 
L 387.922794 164.854512 
L 388.32912 164.347461 
L 388.32912 164.424991 
L 388.735447 164.532334 
L 388.735447 164.45616 
L 389.141773 164.30107 
L 389.141773 164.900722 
L 389.548099 164.300618 
L 389.954425 164.535469 
L 389.954425 164.676602 
L 390.360751 164.820419 
L 390.360751 164.157977 
L 390.767077 164.244912 
L 390.767077 164.507254 
L 391.173403 164.209644 
L 391.173403 164.450312 
L 391.579729 164.452422 
L 391.579729 163.937716 
L 391.986055 163.837608 
L 392.392381 163.688094 
L 392.392381 164.340408 
L 392.798707 163.92819 
L 392.798707 163.963187 
L 393.205034 164.459476 
L 393.205034 164.092444 
L 393.61136 163.602576 
L 393.61136 163.386203 
L 394.017686 163.585635 
L 394.017686 163.187736 
L 394.424012 163.800169 
L 394.424012 163.511843 
L 394.830338 163.788533 
L 394.830338 163.190027 
L 395.236664 163.265145 
L 395.236664 163.003647 
L 395.64299 163.02933 
L 395.64299 163.294505 
L 396.049316 162.219997 
L 396.049316 162.408125 
L 396.455642 293.849951 
L 396.861968 292.35382 
L 396.861968 291.795917 
L 397.674621 289.205834 
L 397.674621 289.808109 
L 398.080947 294.726475 
L 398.487273 295.311176 
L 398.487273 294.910926 
L 398.487273 294.910926 
" clip-path="url(#p8c47fc5535)" style="fill: none; stroke: #1f77b4; stroke-width: 1.5; stroke-linecap: square"/>
   </g>
   <g id="line2d_38">
    <path d="M 73.832727 279.876001 
L 73.832727 279.196739 
L 74.239053 278.785214 
L 74.239053 278.22481 
L 74.645379 277.009951 
L 74.645379 277.03919 
L 75.458032 273.594046 
L 75.864358 272.70667 
L 75.864358 272.416144 
L 76.270684 270.627888 
L 76.270684 270.969298 
L 77.489662 266.146608 
L 77.895988 265.336913 
L 77.895988 264.896692 
L 78.302314 263.28095 
L 78.302314 262.547398 
L 78.70864 261.728389 
L 78.70864 261.94238 
L 79.927619 257.325785 
L 79.927619 256.969273 
L 80.333945 255.303582 
L 80.740271 253.573745 
L 80.740271 254.081519 
L 81.146597 252.388006 
L 81.146597 252.792054 
L 82.771901 246.775064 
L 82.771901 246.104965 
L 83.178227 244.523708 
L 83.178227 244.979363 
L 84.397206 240.190645 
L 84.397206 240.480358 
L 84.803532 239.197163 
L 84.803532 238.362057 
L 85.209858 236.780317 
L 85.616184 235.793527 
L 85.616184 235.214523 
L 86.428836 232.572502 
L 86.428836 231.894235 
L 86.835162 230.439009 
L 86.835162 231.146757 
L 87.241488 229.003346 
L 87.241488 229.248416 
L 87.647814 228.071991 
L 87.647814 227.558068 
L 88.460466 224.234735 
L 88.460466 224.3847 
L 88.866793 222.945903 
L 88.866793 222.327169 
L 89.679445 219.885545 
L 89.679445 219.396732 
L 90.085771 218.343655 
L 90.085771 217.776378 
L 91.304749 212.831183 
L 91.304749 213.339289 
L 91.711075 211.08742 
L 92.117401 209.997267 
L 92.117401 210.023914 
L 93.33638 204.465382 
L 93.742706 203.229603 
L 94.149032 201.514537 
L 94.149032 202.164439 
L 94.961684 198.325254 
L 95.36801 196.650369 
L 95.774336 194.675915 
L 95.774336 195.327716 
L 96.180662 193.207425 
L 96.993314 190.26478 
L 96.993314 189.480978 
L 97.805967 187.315713 
L 97.805967 186.638953 
L 98.212293 185.352502 
L 98.212293 185.469461 
L 99.837597 178.086953 
L 100.243923 176.840744 
L 100.243923 176.924213 
L 101.056575 172.889936 
L 101.056575 173.181578 
L 101.462901 171.273501 
L 101.462901 171.503438 
L 102.68188 166.652745 
L 102.68188 166.398542 
L 106.338814 150.644384 
L 106.745141 148.669688 
L 106.745141 149.415177 
L 107.151467 147.718016 
L 107.151467 147.067451 
L 107.557793 145.618494 
L 107.557793 146.047412 
L 108.370445 141.880201 
L 108.370445 142.28862 
L 108.776771 139.97149 
L 108.776771 140.613766 
L 109.183097 138.333472 
L 109.183097 138.526001 
L 109.589423 136.878577 
L 109.589423 136.37436 
L 109.995749 135.121611 
L 110.808401 131.214843 
L 110.808401 131.736121 
L 111.214728 129.514065 
L 111.214728 130.016322 
L 111.621054 128.302311 
L 111.621054 127.587509 
L 112.433706 124.001472 
L 112.433706 124.256158 
L 112.840032 122.399084 
L 114.05901 116.3039 
L 114.465336 115.380865 
L 114.465336 114.837069 
L 114.871662 113.31417 
L 116.903293 103.89502 
L 117.309619 102.919836 
L 117.309619 102.602963 
L 118.528597 96.3277 
L 118.528597 96.559507 
L 119.747575 91.00218 
L 119.747575 91.73332 
L 120.560228 87.044439 
L 120.560228 87.209387 
L 121.37288 83.489179 
L 121.37288 82.862548 
L 121.779206 81.783729 
L 121.779206 82.0332 
L 122.998184 75.98079 
L 122.998184 76.15457 
L 124.217162 70.465847 
L 124.217162 70.558931 
L 125.029815 66.449024 
L 125.842467 62.529867 
L 125.842467 62.586386 
L 126.248793 60.031723 
L 126.248793 60.726388 
L 126.655119 58.410976 
L 126.655119 58.768573 
L 127.874097 53.764689 
L 127.874097 53.764689 
L 131.531032 53.764689 
L 131.531032 53.764689 
L 132.343684 57.202478 
L 132.343684 57.138694 
L 132.75001 57.246066 
L 133.156336 58.419206 
L 133.562662 60.030879 
L 133.968989 62.288294 
L 134.375315 62.610502 
L 135.187967 66.323354 
L 135.594293 69.422386 
L 135.594293 69.382596 
L 136.000619 73.840846 
L 136.406945 73.462751 
L 136.406945 73.173672 
L 136.813271 76.203373 
L 136.813271 75.981393 
L 137.219597 81.19523 
L 137.625923 87.580307 
L 137.625923 87.534308 
L 138.032249 85.854479 
L 138.032249 85.912838 
L 138.438575 90.660379 
L 138.844902 97.212966 
L 139.251228 96.772624 
L 139.657554 100.242275 
L 140.06388 106.146256 
L 140.06388 106.101944 
L 140.470206 106.022334 
L 140.470206 106.185835 
L 140.876532 109.062315 
L 141.282858 114.454061 
L 141.282858 114.395551 
L 141.689184 113.606596 
L 142.09551 117.002003 
L 142.09551 116.913711 
L 142.501836 118.13273 
L 142.908162 120.165814 
L 143.314489 124.141943 
L 143.720815 123.777202 
L 143.720815 123.859917 
L 144.127141 126.324119 
L 144.127141 126.26356 
L 144.533467 127.316787 
L 144.533467 127.017368 
L 144.939793 128.708409 
L 144.939793 128.619817 
L 145.346119 131.855431 
L 145.346119 131.805633 
L 145.752445 131.113891 
L 146.158771 133.382038 
L 146.565097 133.289978 
L 146.565097 133.109145 
L 146.971423 134.865629 
L 146.971423 134.81764 
L 147.377749 135.010983 
L 147.784076 136.132878 
L 147.784076 136.111687 
L 148.190402 136.596883 
L 148.596728 137.211426 
L 148.596728 137.211426 
L 149.815706 138.413263 
L 149.815706 138.831418 
L 150.222032 138.789488 
L 150.222032 138.79407 
L 151.034684 139.201103 
L 151.847336 139.442525 
L 151.847336 139.424228 
L 152.253663 139.339011 
L 152.253663 139.34287 
L 153.472641 139.412653 
L 153.472641 139.409036 
L 154.691619 139.341513 
L 155.504271 139.389171 
L 155.504271 139.266726 
L 155.910597 139.325447 
L 155.910597 139.325326 
L 156.316923 139.189347 
L 156.316923 139.048304 
L 156.72325 139.122216 
L 157.129576 138.682689 
L 157.129576 138.822255 
L 157.535902 138.6788 
L 157.942228 138.273726 
L 157.942228 138.326388 
L 158.348554 138.089608 
L 158.348554 138.152247 
L 158.75488 137.45107 
L 159.161206 137.138628 
L 159.161206 137.176158 
L 159.567532 136.322212 
L 159.973858 135.894018 
L 159.973858 135.952135 
L 160.380184 134.817821 
L 160.380184 134.970319 
L 160.78651 132.08576 
L 161.192837 132.86305 
L 161.192837 133.185349 
L 161.599163 132.112287 
L 161.599163 129.841397 
L 162.005489 130.744026 
L 162.411815 126.539889 
L 162.818141 127.387836 
L 163.224467 122.90116 
L 163.630793 123.399499 
L 163.630793 123.118377 
L 164.037119 118.461117 
L 164.443445 118.412435 
L 164.443445 119.098781 
L 164.849771 113.613619 
L 164.849771 114.291223 
L 165.256097 112.915788 
L 165.256097 113.480986 
L 166.06875 105.752969 
L 166.881402 102.671752 
L 166.881402 102.177965 
L 167.287728 100.446621 
L 167.287728 100.949089 
L 167.694054 98.31792 
L 168.10038 96.544616 
L 170.13201 86.984272 
L 170.538337 87.261083 
L 170.944663 87.646473 
L 170.944663 87.646141 
L 172.163641 87.99997 
L 172.163641 87.900194 
L 173.382619 88.009707 
L 174.601597 87.882108 
L 175.007924 87.635048 
L 175.007924 87.655154 
L 175.41425 86.920337 
L 175.41425 87.040641 
L 175.820576 86.840365 
L 176.226902 86.282734 
L 176.633228 84.605257 
L 176.633228 84.70223 
L 177.039554 84.488871 
L 177.44588 83.18141 
L 177.852206 80.140586 
L 177.852206 80.506955 
L 178.258532 79.746575 
L 178.258532 80.111407 
L 178.664858 77.881362 
L 179.071184 73.560357 
L 179.477511 68.184919 
L 179.477511 73.174485 
L 179.883837 69.796984 
L 180.696489 60.819262 
L 180.696489 63.379442 
L 181.509141 56.729943 
L 181.509141 56.885033 
L 181.915467 54.82512 
L 182.321793 54.129249 
L 182.321793 54.258355 
L 182.728119 55.860352 
L 183.540771 58.838296 
L 183.947098 59.085024 
L 183.947098 58.919956 
L 184.353424 59.916724 
L 184.353424 59.885042 
L 184.75975 60.524485 
L 184.75975 60.522586 
L 185.166076 60.78957 
L 185.166076 60.756562 
L 185.572402 60.856188 
L 185.572402 60.803376 
L 185.978728 61.122389 
L 187.197706 61.008475 
L 187.604032 61.311361 
L 188.416684 61.080609 
L 188.416684 61.149186 
L 188.823011 60.414218 
L 189.229337 60.757135 
L 189.635663 60.439569 
L 189.635663 60.538833 
L 190.448315 58.208349 
L 190.448315 58.032671 
L 190.854641 58.259534 
L 190.854641 58.198673 
L 191.667293 55.601205 
L 191.667293 55.479665 
L 192.073619 53.764689 
L 192.073619 53.764689 
L 206.701359 53.764689 
L 206.701359 53.764689 
L 207.107685 54.821111 
L 207.107685 53.764689 
L 211.170946 53.764689 
L 211.170946 53.764689 
L 211.577272 54.917843 
L 211.983598 53.764689 
L 211.983598 53.764689 
L 214.015228 53.764689 
L 214.015228 53.764689 
L 214.421554 55.19794 
L 214.421554 53.764689 
L 219.703793 53.764689 
L 219.703793 54.538 
L 220.110119 53.764689 
L 220.110119 53.764689 
L 220.516446 53.764689 
L 220.516446 54.561603 
L 220.922772 53.764689 
L 221.329098 54.580473 
L 221.329098 53.764689 
L 221.735424 53.764689 
L 221.735424 53.764689 
L 222.14175 55.45983 
L 222.14175 53.764689 
L 222.548076 55.355171 
L 223.360728 60.242398 
L 223.360728 59.984367 
L 224.17338 66.577648 
L 224.579706 66.143756 
L 224.579706 65.969917 
L 224.986033 68.005684 
L 224.986033 67.964085 
L 225.392359 71.249979 
L 225.798685 71.759833 
L 225.798685 74.395403 
L 226.205011 73.629598 
L 226.205011 74.080098 
L 226.611337 75.845866 
L 226.611337 75.782564 
L 227.017663 78.622058 
L 227.017663 78.547301 
L 227.423989 79.302707 
L 227.423989 81.434542 
L 227.830315 80.862864 
L 227.830315 81.184167 
L 228.236641 83.120007 
L 228.642967 85.840191 
L 229.049293 85.905754 
L 229.049293 85.765826 
L 229.45562 87.534066 
L 229.861946 89.772461 
L 230.268272 90.110102 
L 230.268272 90.418595 
L 230.674598 91.72286 
L 230.674598 91.658172 
L 231.080924 93.562572 
L 231.48725 95.819022 
L 231.893576 95.201615 
L 232.706228 98.910217 
L 233.112554 98.531007 
L 233.51888 99.953738 
L 233.51888 99.915847 
L 233.925207 100.346151 
L 234.331533 101.211039 
L 234.331533 101.103456 
L 234.737859 102.344389 
L 234.737859 102.265472 
L 235.144185 102.641487 
L 235.144185 102.597176 
L 235.550511 103.360238 
L 235.956837 104.314442 
L 236.363163 104.359809 
L 236.363163 104.50887 
L 236.769489 104.987947 
L 237.175815 105.808132 
L 237.175815 105.757581 
L 237.582141 105.742599 
L 237.582141 105.772592 
L 237.988467 106.187523 
L 237.988467 106.171517 
L 238.394793 106.371612 
L 238.394793 106.544396 
L 238.80112 106.647157 
L 238.80112 106.623946 
L 239.207446 106.902476 
L 240.83275 107.253049 
L 244.896011 107.325455 
L 245.708663 107.037791 
L 245.708663 107.031039 
L 246.114989 107.133649 
L 246.927641 106.824554 
L 246.927641 106.948174 
L 247.333967 106.740633 
L 247.333967 106.758388 
L 247.740294 106.371009 
L 248.14662 106.422314 
L 248.552946 106.115117 
L 248.552946 106.126421 
L 248.959272 105.492435 
L 249.365598 105.678152 
L 249.771924 105.157657 
L 249.771924 105.172578 
L 250.17825 105.08498 
L 250.584576 104.677586 
L 250.584576 104.704504 
L 250.990902 103.821047 
L 250.990902 103.877296 
L 251.397228 103.957087 
L 251.397228 103.912534 
L 251.803554 103.333229 
L 252.209881 102.157075 
L 252.616207 102.445642 
L 252.616207 102.420231 
L 253.022533 101.43531 
L 253.022533 101.463675 
L 253.428859 101.218666 
L 253.428859 101.239525 
L 253.835185 100.555681 
L 254.241511 99.112663 
L 254.241511 99.119838 
L 254.647837 99.099189 
L 255.054163 98.145859 
L 255.460489 96.145541 
L 255.866815 96.5205 
L 256.273141 95.055658 
L 256.679468 92.647675 
L 257.085794 93.303244 
L 257.49212 91.224642 
L 257.49212 91.277545 
L 257.898446 90.814836 
L 258.304772 89.425384 
L 258.711098 86.787191 
L 259.117424 86.474117 
L 259.52375 84.843665 
L 259.930076 81.553008 
L 259.930076 81.568562 
L 260.336402 81.250363 
L 260.742728 79.334659 
L 261.149054 75.504306 
L 261.149054 75.566975 
L 261.555381 75.114968 
L 261.555381 75.159912 
L 261.961707 72.842089 
L 262.368033 68.841122 
L 262.774359 67.993385 
L 262.774359 68.066635 
L 263.180685 65.344582 
L 263.180685 65.359383 
L 263.587011 61.474771 
L 263.587011 61.540605 
L 264.805989 55.332472 
L 264.805989 55.697002 
L 265.212315 53.764689 
L 265.212315 53.764689 
L 283.496989 53.764689 
L 283.496989 53.764689 
L 283.903316 54.855536 
L 283.903316 53.764689 
L 285.934946 53.764689 
L 285.934946 53.764689 
L 286.341272 54.96541 
L 286.341272 53.764689 
L 288.779229 53.764689 
L 288.779229 53.764689 
L 289.185555 54.869794 
L 289.185555 53.764689 
L 291.217185 53.764689 
L 291.217185 55.150614 
L 291.623511 53.764689 
L 291.623511 53.764689 
L 293.248816 53.764689 
L 293.248816 53.764689 
L 293.655142 54.901475 
L 293.655142 53.764689 
L 296.90575 53.782956 
L 296.90575 53.775902 
L 297.312076 54.500019 
L 297.312076 54.49824 
L 297.718403 55.557587 
L 298.531055 58.297816 
L 298.937381 58.289014 
L 299.750033 60.664413 
L 300.156359 62.256281 
L 300.562685 62.443987 
L 301.375337 65.015863 
L 302.18799 68.877445 
L 302.18799 67.262697 
L 303.000642 70.08944 
L 303.000642 70.071866 
L 303.813294 74.718817 
L 303.813294 74.712999 
L 304.21962 74.374061 
L 304.21962 74.416835 
L 304.625946 75.895755 
L 305.032272 78.665465 
L 305.032272 78.500457 
L 305.438598 79.09191 
L 305.844924 80.773577 
L 306.25125 82.792856 
L 306.657577 85.871933 
L 307.063903 85.827018 
L 307.063903 85.895505 
L 307.470229 87.663565 
L 307.470229 87.61235 
L 307.876555 90.683138 
L 308.282881 91.145726 
L 308.282881 90.950966 
L 308.689207 93.144386 
L 309.095533 96.215685 
L 309.501859 96.928438 
L 309.501859 99.823396 
L 309.908185 98.821473 
L 310.314511 102.244341 
L 310.720837 102.987207 
L 311.127163 104.91322 
L 311.127163 104.865653 
L 311.53349 108.740408 
L 311.939816 109.153078 
L 311.939816 108.787523 
L 312.346142 111.251695 
L 312.752468 115.877786 
L 312.752468 115.820121 
L 313.158794 115.370917 
L 313.158794 115.548585 
L 313.56512 118.769097 
L 313.971446 119.741026 
L 313.971446 119.652584 
L 314.377772 121.739958 
L 314.784098 126.429833 
L 314.784098 126.341904 
L 315.190424 125.882752 
L 315.59675 129.495195 
L 316.003077 129.738155 
L 316.003077 129.897314 
L 316.409403 132.398111 
L 316.409403 132.385842 
L 316.815729 137.096487 
L 316.815729 133.729476 
L 317.222055 135.361647 
L 317.222055 135.346997 
L 317.628381 140.35272 
L 318.034707 139.279085 
L 318.034707 138.897825 
L 318.441033 143.07833 
L 318.847359 142.179017 
L 318.847359 142.485701 
L 319.253685 146.400155 
L 319.253685 146.311532 
L 319.660011 145.781844 
L 319.660011 145.552721 
L 320.066337 149.560621 
L 320.066337 149.357361 
L 320.472664 148.74327 
L 320.472664 148.948399 
L 320.87899 152.458141 
L 320.87899 152.293134 
L 321.285316 152.213524 
L 321.285316 152.042518 
L 321.691642 155.974666 
L 322.097968 155.209615 
L 322.097968 154.885719 
L 322.504294 158.805599 
L 322.91062 157.815674 
L 323.316946 159.035748 
L 323.316946 158.953786 
L 324.535924 163.688818 
L 324.535924 163.62012 
L 324.942251 164.426981 
L 324.942251 164.705631 
L 325.348577 167.163714 
L 325.754903 167.349099 
L 325.754903 167.343733 
L 326.161229 170.038476 
L 326.161229 169.917358 
L 326.567555 169.471047 
L 326.567555 169.554305 
L 326.973881 172.989743 
L 326.973881 172.526039 
L 327.380207 172.000993 
L 327.786533 172.717965 
L 328.192859 174.996119 
L 328.599185 175.051011 
L 328.599185 175.00887 
L 329.005511 177.537098 
L 329.411838 177.002466 
L 329.411838 177.058624 
L 329.818164 177.791512 
L 330.22449 179.572503 
L 330.22449 179.302324 
L 330.630816 179.449788 
L 330.630816 179.570363 
L 331.037142 180.088536 
L 331.037142 181.547953 
L 331.443468 181.322265 
L 331.443468 181.367089 
L 331.849794 181.881464 
L 332.25612 183.145428 
L 332.662446 183.168548 
L 333.068772 183.551827 
L 333.068772 183.550079 
L 333.475098 184.591279 
L 333.881425 184.922922 
L 333.881425 184.868934 
L 334.287751 186.190532 
L 334.287751 186.13965 
L 334.694077 185.805053 
L 335.100403 186.071102 
L 335.100403 186.040024 
L 335.506729 187.159508 
L 336.319381 187.042941 
L 336.319381 187.057139 
L 336.725707 187.176961 
L 336.725707 187.151067 
L 337.132033 188.024848 
L 337.132033 188.001637 
L 337.538359 187.7991 
L 337.944685 188.120796 
L 337.944685 188.093365 
L 338.351011 188.629142 
L 338.757338 188.567589 
L 339.163664 188.661517 
L 339.163664 188.608192 
L 339.56999 189.257733 
L 339.976316 189.139147 
L 339.976316 189.159313 
L 340.788968 189.30325 
L 340.788968 189.569511 
L 342.007946 189.627689 
L 342.820598 189.834174 
L 344.852229 190.073155 
L 345.258555 189.868357 
L 345.258555 189.868629 
L 346.071207 190.136216 
L 346.071207 190.129765 
L 346.883859 190.106072 
L 347.696512 190.180015 
L 348.102838 190.00928 
L 348.102838 190.009973 
L 348.509164 190.152976 
L 349.321816 190.110805 
L 350.134468 190.089945 
L 350.134468 190.089101 
L 350.94712 190.053953 
L 351.353446 189.64692 
L 351.759772 189.799328 
L 351.759772 189.796826 
L 352.166099 189.743381 
L 352.166099 189.746395 
L 352.572425 188.962112 
L 352.572425 188.976822 
L 352.978751 189.299512 
L 353.385077 189.320643 
L 353.385077 189.302255 
L 353.791403 189.039582 
L 353.791403 189.04139 
L 354.197729 188.183827 
L 354.604055 188.544348 
L 354.604055 188.520624 
L 355.010381 188.544951 
L 355.416707 188.271696 
L 355.823033 186.595666 
L 355.823033 186.622796 
L 356.229359 187.154986 
L 356.229359 187.139552 
L 356.635686 187.459138 
L 356.635686 187.457992 
L 357.042012 187.005623 
L 357.042012 187.042157 
L 357.448338 184.386029 
L 357.448338 184.430853 
L 358.26099 185.826003 
L 358.26099 185.761193 
L 358.667316 185.192529 
L 358.667316 185.278318 
L 359.073642 182.000533 
L 359.886294 183.641234 
L 359.886294 183.549808 
L 360.29262 183.025545 
L 360.698946 178.671955 
L 361.105272 180.287878 
L 361.105272 180.168297 
L 361.511599 180.852141 
L 361.917925 179.718761 
L 362.324251 175.87822 
L 362.324251 175.95584 
L 362.730577 177.513224 
L 363.136903 177.248169 
L 363.136903 176.887045 
L 363.543229 176.030266 
L 363.543229 170.778538 
L 363.949555 172.70217 
L 363.949555 172.698734 
L 364.355881 173.962546 
L 364.355881 173.887307 
L 364.762207 172.009916 
L 365.168533 167.135288 
L 365.168533 167.281365 
L 365.574859 169.447625 
L 365.981186 168.33194 
L 365.981186 168.745303 
L 366.387512 161.147266 
L 366.387512 161.739533 
L 366.793838 163.80665 
L 366.793838 163.675524 
L 367.200164 163.205521 
L 367.200164 163.306653 
L 367.60649 154.563209 
L 367.60649 161.434688 
L 368.012816 156.56838 
L 368.012816 156.622278 
L 368.419142 157.865592 
L 368.419142 157.773472 
L 368.825468 155.745241 
L 368.825468 155.995586 
L 369.231794 149.014565 
L 369.231794 149.416744 
L 369.63812 150.671453 
L 369.63812 150.318378 
L 370.044446 148.824899 
L 370.450773 147.187906 
L 370.450773 144.278388 
L 370.857099 143.297958 
L 370.857099 143.565425 
L 371.263425 142.934031 
L 371.263425 143.045021 
L 371.669751 143.95835 
L 371.669751 144.384615 
L 372.076077 142.346617 
L 372.482403 143.958682 
L 372.888729 148.754634 
L 373.295055 147.176029 
L 373.701381 148.693592 
L 373.701381 148.519361 
L 374.107707 151.974754 
L 374.514033 151.762451 
L 374.514033 151.841699 
L 374.92036 156.141483 
L 374.92036 156.049092 
L 375.326686 154.796282 
L 375.326686 154.905704 
L 375.733012 155.640853 
L 375.733012 155.594914 
L 376.139338 158.272113 
L 376.545664 157.439508 
L 376.95199 158.305422 
L 376.95199 160.679343 
L 377.358316 159.973614 
L 377.764642 159.750941 
L 377.764642 159.891352 
L 378.170968 161.856371 
L 378.577294 161.331747 
L 378.98362 161.514178 
L 378.98362 161.459014 
L 379.389947 162.810636 
L 379.796273 162.663745 
L 379.796273 162.666096 
L 380.608925 162.82402 
L 380.608925 163.644506 
L 381.015251 163.480945 
L 381.015251 163.491134 
L 381.827903 163.572643 
L 381.827903 163.58244 
L 382.234229 163.956194 
L 383.046881 164.060371 
L 383.046881 164.06441 
L 383.453207 164.331485 
L 383.453207 164.331063 
L 384.672186 164.398013 
L 385.078512 164.338267 
L 385.484838 164.599977 
L 385.484838 164.597143 
L 385.891164 164.345653 
L 386.703816 164.46653 
L 387.110142 164.344688 
L 388.735447 164.346256 
L 389.141773 164.084064 
L 389.141773 164.090635 
L 389.548099 164.196139 
L 389.954425 164.07692 
L 390.360751 163.582922 
L 390.767077 163.78784 
L 391.173403 163.747538 
L 391.579729 162.755895 
L 391.579729 163.545785 
L 391.986055 163.097123 
L 392.392381 163.356059 
L 392.392381 163.502528 
L 392.798707 163.140199 
L 393.205034 161.928174 
L 393.61136 162.350489 
L 393.61136 162.330866 
L 394.017686 162.373188 
L 394.424012 160.736104 
L 394.830338 161.248248 
L 394.830338 161.172406 
L 395.236664 161.352064 
L 395.64299 159.467257 
L 395.64299 159.507318 
L 396.049316 160.008852 
L 396.455642 278.15159 
L 396.861968 276.622391 
L 396.861968 276.052129 
L 397.674621 273.404833 
L 397.674621 274.020401 
L 398.080947 279.047496 
L 398.487273 279.685461 
L 398.487273 279.235986 
L 398.487273 279.235986 
" clip-path="url(#p8c47fc5535)" style="fill: none; stroke: #ff7f0e; stroke-width: 1.5; stroke-linecap: square"/>
   </g>
   <g id="patch_3">
    <path d="M 57.6 307.584 
L 57.6 41.472 
" style="fill: none; stroke: #000000; stroke-width: 0.8; stroke-linejoin: miter; stroke-linecap: square"/>
   </g>
   <g id="patch_4">
    <path d="M 414.72 307.584 
L 414.72 41.472 
" style="fill: none; stroke: #000000; stroke-width: 0.8; stroke-linejoin: miter; stroke-linecap: square"/>
   </g>
   <g id="patch_5">
    <path d="M 57.6 307.584 
L 414.72 307.584 
" style="fill: none; stroke: #000000; stroke-width: 0.8; stroke-linejoin: miter; stroke-linecap: square"/>
   </g>
   <g id="patch_6">
    <path d="M 57.6 41.472 
L 414.72 41.472 
" style="fill: none; stroke: #000000; stroke-width: 0.8; stroke-linejoin: miter; stroke-linecap: square"/>
   </g>
   <g id="text_21">
    <!-- Actual speed vs Expected speed -->
    <g transform="translate(138.808125 35.472) scale(0.12 -0.12)">
     <defs>
      <path id="DejaVuSans-41" d="M 2188 4044 
L 1331 1722 
L 3047 1722 
L 2188 4044 
z
M 1831 4666 
L 2547 4666 
L 4325 0 
L 3669 0 
L 3244 1197 
L 1141 1197 
L 716 0 
L 50 0 
L 1831 4666 
z
" transform="scale(0.015625)"/>
      <path id="DejaVuSans-75" d="M 544 1381 
L 544 3500 
L 1119 3500 
L 1119 1403 
Q 1119 906 1312 657 
Q 1506 409 1894 409 
Q 2359 409 2629 706 
Q 2900 1003 2900 1516 
L 2900 3500 
L 3475 3500 
L 3475 0 
L 2900 0 
L 2900 538 
Q 2691 219 2414 64 
Q 2138 -91 1772 -91 
Q 1169 -91 856 284 
Q 544 659 544 1381 
z
M 1991 3584 
L 1991 3584 
z
" transform="scale(0.015625)"/>
      <path id="DejaVuSans-61" d="M 2194 1759 
Q 1497 1759 1228 1600 
Q 959 1441 959 1056 
Q 959 750 1161 570 
Q 1363 391 1709 391 
Q 2188 391 2477 730 
Q 2766 1069 2766 1631 
L 2766 1759 
L 2194 1759 
z
M 3341 1997 
L 3341 0 
L 2766 0 
L 2766 531 
Q 2569 213 2275 61 
Q 1981 -91 1556 -91 
Q 1019 -91 701 211 
Q 384 513 384 1019 
Q 384 1609 779 1909 
Q 1175 2209 1959 2209 
L 2766 2209 
L 2766 2266 
Q 2766 2663 2505 2880 
Q 2244 3097 1772 3097 
Q 1472 3097 1187 3025 
Q 903 2953 641 2809 
L 641 3341 
Q 956 3463 1253 3523 
Q 1550 3584 1831 3584 
Q 2591 3584 2966 3190 
Q 3341 2797 3341 1997 
z
" transform="scale(0.015625)"/>
      <path id="DejaVuSans-20" transform="scale(0.015625)"/>
      <path id="DejaVuSans-70" d="M 1159 525 
L 1159 -1331 
L 581 -1331 
L 581 3500 
L 1159 3500 
L 1159 2969 
Q 1341 3281 1617 3432 
Q 1894 3584 2278 3584 
Q 2916 3584 3314 3078 
Q 3713 2572 3713 1747 
Q 3713 922 3314 415 
Q 2916 -91 2278 -91 
Q 1894 -91 1617 61 
Q 1341 213 1159 525 
z
M 3116 1747 
Q 3116 2381 2855 2742 
Q 2594 3103 2138 3103 
Q 1681 3103 1420 2742 
Q 1159 2381 1159 1747 
Q 1159 1113 1420 752 
Q 1681 391 2138 391 
Q 2594 391 2855 752 
Q 3116 1113 3116 1747 
z
" transform="scale(0.015625)"/>
      <path id="DejaVuSans-64" d="M 2906 2969 
L 2906 4863 
L 3481 4863 
L 3481 0 
L 2906 0 
L 2906 525 
Q 2725 213 2448 61 
Q 2172 -91 1784 -91 
Q 1150 -91 751 415 
Q 353 922 353 1747 
Q 353 2572 751 3078 
Q 1150 3584 1784 3584 
Q 2172 3584 2448 3432 
Q 2725 3281 2906 2969 
z
M 947 1747 
Q 947 1113 1208 752 
Q 1469 391 1925 391 
Q 2381 391 2643 752 
Q 2906 1113 2906 1747 
Q 2906 2381 2643 2742 
Q 2381 3103 1925 3103 
Q 1469 3103 1208 2742 
Q 947 2381 947 1747 
z
" transform="scale(0.015625)"/>
      <path id="DejaVuSans-76" d="M 191 3500 
L 800 3500 
L 1894 563 
L 2988 3500 
L 3597 3500 
L 2284 0 
L 1503 0 
L 191 3500 
z
" transform="scale(0.015625)"/>
      <path id="DejaVuSans-45" d="M 628 4666 
L 3578 4666 
L 3578 4134 
L 1259 4134 
L 1259 2753 
L 3481 2753 
L 3481 2222 
L 1259 2222 
L 1259 531 
L 3634 531 
L 3634 0 
L 628 0 
L 628 4666 
z
" transform="scale(0.015625)"/>
      <path id="DejaVuSans-78" d="M 3513 3500 
L 2247 1797 
L 3578 0 
L 2900 0 
L 1881 1375 
L 863 0 
L 184 0 
L 1544 1831 
L 300 3500 
L 978 3500 
L 1906 2253 
L 2834 3500 
L 3513 3500 
z
" transform="scale(0.015625)"/>
     </defs>
     <use xlink:href="#DejaVuSans-41"/>
     <use xlink:href="#DejaVuSans-63" x="66.658203"/>
     <use xlink:href="#DejaVuSans-74" x="121.638672"/>
     <use xlink:href="#DejaVuSans-75" x="160.847656"/>
     <use xlink:href="#DejaVuSans-61" x="224.226562"/>
     <use xlink:href="#DejaVuSans-6c" x="285.505859"/>
     <use xlink:href="#DejaVuSans-20" x="313.289062"/>
     <use xlink:href="#DejaVuSans-73" x="345.076172"/>
     <use xlink:href="#DejaVuSans-70" x="397.175781"/>
     <use xlink:href="#DejaVuSans-65" x="460.652344"/>
     <use xlink:href="#DejaVuSans-65" x="522.175781"/>
     <use xlink:href="#DejaVuSans-64" x="583.699219"/>
     <use xlink:href="#DejaVuSans-20" x="647.175781"/>
     <use xlink:href="#DejaVuSans-76" x="678.962891"/>
     <use xlink:href="#DejaVuSans-73" x="738.142578"/>
     <use xlink:href="#DejaVuSans-20" x="790.242188"/>
     <use xlink:href="#DejaVuSans-45" x="822.029297"/>
     <use xlink:href="#DejaVuSans-78" x="885.212891"/>
     <use xlink:href="#DejaVuSans-70" x="944.392578"/>
     <use xlink:href="#DejaVuSans-65" x="1007.869141"/>
     <use xlink:href="#DejaVuSans-63" x="1069.392578"/>
     <use xlink:href="#DejaVuSans-74" x="1124.373047"/>
     <use xlink:href="#DejaVuSans-65" x="1163.582031"/>
     <use xlink:href="#DejaVuSans-64" x="1225.105469"/>
     <use xlink:href="#DejaVuSans-20" x="1288.582031"/>
     <use xlink:href="#DejaVuSans-73" x="1320.369141"/>
     <use xlink:href="#DejaVuSans-70" x="1372.46875"/>
     <use xlink:href="#DejaVuSans-65" x="1435.945312"/>
     <use xlink:href="#DejaVuSans-65" x="1497.46875"/>
     <use xlink:href="#DejaVuSans-64" x="1558.992188"/>
    </g>
   </g>
   <g id="legend_1">
    <g id="patch_7">
     <path d="M 180.135 302.584 
L 292.185 302.584 
Q 294.185 302.584 294.185 300.584 
L 294.185 272.22775 
Q 294.185 270.22775 292.185 270.22775 
L 180.135 270.22775 
Q 178.135 270.22775 178.135 272.22775 
L 178.135 300.584 
Q 178.135 302.584 180.135 302.584 
z
" style="fill: #ffffff; opacity: 0.8; stroke: #cccccc; stroke-linejoin: miter"/>
    </g>
    <g id="line2d_39">
     <path d="M 182.135 278.326187 
L 192.135 278.326187 
L 202.135 278.326187 
" style="fill: none; stroke: #1f77b4; stroke-width: 1.5; stroke-linecap: square"/>
    </g>
    <g id="text_22">
     <!-- Actual speed -->
     <g transform="translate(210.135 281.826187) scale(0.1 -0.1)">
      <use xlink:href="#DejaVuSans-41"/>
      <use xlink:href="#DejaVuSans-63" x="66.658203"/>
      <use xlink:href="#DejaVuSans-74" x="121.638672"/>
      <use xlink:href="#DejaVuSans-75" x="160.847656"/>
      <use xlink:href="#DejaVuSans-61" x="224.226562"/>
      <use xlink:href="#DejaVuSans-6c" x="285.505859"/>
      <use xlink:href="#DejaVuSans-20" x="313.289062"/>
      <use xlink:href="#DejaVuSans-73" x="345.076172"/>
      <use xlink:href="#DejaVuSans-70" x="397.175781"/>
      <use xlink:href="#DejaVuSans-65" x="460.652344"/>
      <use xlink:href="#DejaVuSans-65" x="522.175781"/>
      <use xlink:href="#DejaVuSans-64" x="583.699219"/>
     </g>
    </g>
    <g id="line2d_40">
     <path d="M 182.135 293.004312 
L 192.135 293.004312 
L 202.135 293.004312 
" style="fill: none; stroke: #ff7f0e; stroke-width: 1.5; stroke-linecap: square"/>
    </g>
    <g id="text_23">
     <!-- Expected speed -->
     <g transform="translate(210.135 296.504312) scale(0.1 -0.1)">
      <use xlink:href="#DejaVuSans-45"/>
      <use xlink:href="#DejaVuSans-78" x="63.183594"/>
      <use xlink:href="#DejaVuSans-70" x="122.363281"/>
      <use xlink:href="#DejaVuSans-65" x="185.839844"/>
      <use xlink:href="#DejaVuSans-63" x="247.363281"/>
      <use xlink:href="#DejaVuSans-74" x="302.34375"/>
      <use xlink:href="#DejaVuSans-65" x="341.552734"/>
      <use xlink:href="#DejaVuSans-64" x="403.076172"/>
      <use xlink:href="#DejaVuSans-20" x="466.552734"/>
      <use xlink:href="#DejaVuSans-73" x="498.339844"/>
      <use xlink:href="#DejaVuSans-70" x="550.439453"/>
      <use xlink:href="#DejaVuSans-65" x="613.916016"/>
      <use xlink:href="#DejaVuSans-65" x="675.439453"/>
      <use xlink:href="#DejaVuSans-64" x="736.962891"/>
     </g>
    </g>
   </g>
  </g>
 </g>
 <defs>
  <clipPath id="p8c47fc5535">
   <rect x="57.6" y="41.472" width="357.12" height="266.112"/>
  </clipPath>
 </defs>
</svg>
