<?xml version="1.0" encoding="utf-8" standalone="no"?>
<!DOCTYPE svg PUBLIC "-//W3C//DTD SVG 1.1//EN"
  "http://www.w3.org/Graphics/SVG/1.1/DTD/svg11.dtd">
<svg xmlns:xlink="http://www.w3.org/1999/xlink" width="460.8pt" height="345.6pt" viewBox="0 0 460.8 345.6" xmlns="http://www.w3.org/2000/svg" version="1.1">
 <metadata>
  <rdf:RDF xmlns:dc="http://purl.org/dc/elements/1.1/" xmlns:cc="http://creativecommons.org/ns#" xmlns:rdf="http://www.w3.org/1999/02/22-rdf-syntax-ns#">
   <cc:Work>
    <dc:type rdf:resource="http://purl.org/dc/dcmitype/StillImage"/>
    <dc:date>2024-01-30T20:58:11.006808</dc:date>
    <dc:format>image/svg+xml</dc:format>
    <dc:creator>
     <cc:Agent>
      <dc:title>Matplotlib v3.7.1, https://matplotlib.org/</dc:title>
     </cc:Agent>
    </dc:creator>
   </cc:Work>
  </rdf:RDF>
 </metadata>
 <defs>
  <style type="text/css">*{stroke-linejoin: round; stroke-linecap: butt}</style>
 </defs>
 <g id="figure_1">
  <g id="patch_1">
   <path d="M 0 345.6 
L 460.8 345.6 
L 460.8 0 
L 0 0 
z
" style="fill: #ffffff"/>
  </g>
  <g id="axes_1">
   <g id="patch_2">
    <path d="M 57.6 307.584 
L 414.72 307.584 
L 414.72 41.472 
L 57.6 41.472 
z
" style="fill: #ffffff"/>
   </g>
   <g id="matplotlib.axis_1">
    <g id="xtick_1">
     <g id="line2d_1">
      <path d="M 73.832727 307.584 
L 73.832727 41.472 
" clip-path="url(#p32e3c4a18b)" style="fill: none; stroke: #b0b0b0; stroke-width: 0.8; stroke-linecap: square"/>
     </g>
     <g id="line2d_2">
      <defs>
       <path id="m0574eab74d" d="M 0 0 
L 0 3.5 
" style="stroke: #000000; stroke-width: 0.8"/>
      </defs>
      <g>
       <use xlink:href="#m0574eab74d" x="73.832727" y="307.584" style="stroke: #000000; stroke-width: 0.8"/>
      </g>
     </g>
     <g id="text_1">
      <!-- 0 -->
      <g transform="translate(70.651477 322.182437) scale(0.1 -0.1)">
       <defs>
        <path id="DejaVuSans-30" d="M 2034 4250 
Q 1547 4250 1301 3770 
Q 1056 3291 1056 2328 
Q 1056 1369 1301 889 
Q 1547 409 2034 409 
Q 2525 409 2770 889 
Q 3016 1369 3016 2328 
Q 3016 3291 2770 3770 
Q 2525 4250 2034 4250 
z
M 2034 4750 
Q 2819 4750 3233 4129 
Q 3647 3509 3647 2328 
Q 3647 1150 3233 529 
Q 2819 -91 2034 -91 
Q 1250 -91 836 529 
Q 422 1150 422 2328 
Q 422 3509 836 4129 
Q 1250 4750 2034 4750 
z
" transform="scale(0.015625)"/>
       </defs>
       <use xlink:href="#DejaVuSans-30"/>
      </g>
     </g>
    </g>
    <g id="xtick_2">
     <g id="line2d_3">
      <path d="M 146.75603 307.584 
L 146.75603 41.472 
" clip-path="url(#p32e3c4a18b)" style="fill: none; stroke: #b0b0b0; stroke-width: 0.8; stroke-linecap: square"/>
     </g>
     <g id="line2d_4">
      <g>
       <use xlink:href="#m0574eab74d" x="146.75603" y="307.584" style="stroke: #000000; stroke-width: 0.8"/>
      </g>
     </g>
     <g id="text_2">
      <!-- 5 -->
      <g transform="translate(143.57478 322.182437) scale(0.1 -0.1)">
       <defs>
        <path id="DejaVuSans-35" d="M 691 4666 
L 3169 4666 
L 3169 4134 
L 1269 4134 
L 1269 2991 
Q 1406 3038 1543 3061 
Q 1681 3084 1819 3084 
Q 2600 3084 3056 2656 
Q 3513 2228 3513 1497 
Q 3513 744 3044 326 
Q 2575 -91 1722 -91 
Q 1428 -91 1123 -41 
Q 819 9 494 109 
L 494 744 
Q 775 591 1075 516 
Q 1375 441 1709 441 
Q 2250 441 2565 725 
Q 2881 1009 2881 1497 
Q 2881 1984 2565 2268 
Q 2250 2553 1709 2553 
Q 1456 2553 1204 2497 
Q 953 2441 691 2322 
L 691 4666 
z
" transform="scale(0.015625)"/>
       </defs>
       <use xlink:href="#DejaVuSans-35"/>
      </g>
     </g>
    </g>
    <g id="xtick_3">
     <g id="line2d_5">
      <path d="M 219.679333 307.584 
L 219.679333 41.472 
" clip-path="url(#p32e3c4a18b)" style="fill: none; stroke: #b0b0b0; stroke-width: 0.8; stroke-linecap: square"/>
     </g>
     <g id="line2d_6">
      <g>
       <use xlink:href="#m0574eab74d" x="219.679333" y="307.584" style="stroke: #000000; stroke-width: 0.8"/>
      </g>
     </g>
     <g id="text_3">
      <!-- 10 -->
      <g transform="translate(213.316833 322.182437) scale(0.1 -0.1)">
       <defs>
        <path id="DejaVuSans-31" d="M 794 531 
L 1825 531 
L 1825 4091 
L 703 3866 
L 703 4441 
L 1819 4666 
L 2450 4666 
L 2450 531 
L 3481 531 
L 3481 0 
L 794 0 
L 794 531 
z
" transform="scale(0.015625)"/>
       </defs>
       <use xlink:href="#DejaVuSans-31"/>
       <use xlink:href="#DejaVuSans-30" x="63.623047"/>
      </g>
     </g>
    </g>
    <g id="xtick_4">
     <g id="line2d_7">
      <path d="M 292.602637 307.584 
L 292.602637 41.472 
" clip-path="url(#p32e3c4a18b)" style="fill: none; stroke: #b0b0b0; stroke-width: 0.8; stroke-linecap: square"/>
     </g>
     <g id="line2d_8">
      <g>
       <use xlink:href="#m0574eab74d" x="292.602637" y="307.584" style="stroke: #000000; stroke-width: 0.8"/>
      </g>
     </g>
     <g id="text_4">
      <!-- 15 -->
      <g transform="translate(286.240137 322.182437) scale(0.1 -0.1)">
       <use xlink:href="#DejaVuSans-31"/>
       <use xlink:href="#DejaVuSans-35" x="63.623047"/>
      </g>
     </g>
    </g>
    <g id="xtick_5">
     <g id="line2d_9">
      <path d="M 365.52594 307.584 
L 365.52594 41.472 
" clip-path="url(#p32e3c4a18b)" style="fill: none; stroke: #b0b0b0; stroke-width: 0.8; stroke-linecap: square"/>
     </g>
     <g id="line2d_10">
      <g>
       <use xlink:href="#m0574eab74d" x="365.52594" y="307.584" style="stroke: #000000; stroke-width: 0.8"/>
      </g>
     </g>
     <g id="text_5">
      <!-- 20 -->
      <g transform="translate(359.16344 322.182437) scale(0.1 -0.1)">
       <defs>
        <path id="DejaVuSans-32" d="M 1228 531 
L 3431 531 
L 3431 0 
L 469 0 
L 469 531 
Q 828 903 1448 1529 
Q 2069 2156 2228 2338 
Q 2531 2678 2651 2914 
Q 2772 3150 2772 3378 
Q 2772 3750 2511 3984 
Q 2250 4219 1831 4219 
Q 1534 4219 1204 4116 
Q 875 4013 500 3803 
L 500 4441 
Q 881 4594 1212 4672 
Q 1544 4750 1819 4750 
Q 2544 4750 2975 4387 
Q 3406 4025 3406 3419 
Q 3406 3131 3298 2873 
Q 3191 2616 2906 2266 
Q 2828 2175 2409 1742 
Q 1991 1309 1228 531 
z
" transform="scale(0.015625)"/>
       </defs>
       <use xlink:href="#DejaVuSans-32"/>
       <use xlink:href="#DejaVuSans-30" x="63.623047"/>
      </g>
     </g>
    </g>
    <g id="text_6">
     <!-- Time(s) -->
     <g transform="translate(217.420156 335.860562) scale(0.1 -0.1)">
      <defs>
       <path id="DejaVuSans-54" d="M -19 4666 
L 3928 4666 
L 3928 4134 
L 2272 4134 
L 2272 0 
L 1638 0 
L 1638 4134 
L -19 4134 
L -19 4666 
z
" transform="scale(0.015625)"/>
       <path id="DejaVuSans-69" d="M 603 3500 
L 1178 3500 
L 1178 0 
L 603 0 
L 603 3500 
z
M 603 4863 
L 1178 4863 
L 1178 4134 
L 603 4134 
L 603 4863 
z
" transform="scale(0.015625)"/>
       <path id="DejaVuSans-6d" d="M 3328 2828 
Q 3544 3216 3844 3400 
Q 4144 3584 4550 3584 
Q 5097 3584 5394 3201 
Q 5691 2819 5691 2113 
L 5691 0 
L 5113 0 
L 5113 2094 
Q 5113 2597 4934 2840 
Q 4756 3084 4391 3084 
Q 3944 3084 3684 2787 
Q 3425 2491 3425 1978 
L 3425 0 
L 2847 0 
L 2847 2094 
Q 2847 2600 2669 2842 
Q 2491 3084 2119 3084 
Q 1678 3084 1418 2786 
Q 1159 2488 1159 1978 
L 1159 0 
L 581 0 
L 581 3500 
L 1159 3500 
L 1159 2956 
Q 1356 3278 1631 3431 
Q 1906 3584 2284 3584 
Q 2666 3584 2933 3390 
Q 3200 3197 3328 2828 
z
" transform="scale(0.015625)"/>
       <path id="DejaVuSans-65" d="M 3597 1894 
L 3597 1613 
L 953 1613 
Q 991 1019 1311 708 
Q 1631 397 2203 397 
Q 2534 397 2845 478 
Q 3156 559 3463 722 
L 3463 178 
Q 3153 47 2828 -22 
Q 2503 -91 2169 -91 
Q 1331 -91 842 396 
Q 353 884 353 1716 
Q 353 2575 817 3079 
Q 1281 3584 2069 3584 
Q 2775 3584 3186 3129 
Q 3597 2675 3597 1894 
z
M 3022 2063 
Q 3016 2534 2758 2815 
Q 2500 3097 2075 3097 
Q 1594 3097 1305 2825 
Q 1016 2553 972 2059 
L 3022 2063 
z
" transform="scale(0.015625)"/>
       <path id="DejaVuSans-28" d="M 1984 4856 
Q 1566 4138 1362 3434 
Q 1159 2731 1159 2009 
Q 1159 1288 1364 580 
Q 1569 -128 1984 -844 
L 1484 -844 
Q 1016 -109 783 600 
Q 550 1309 550 2009 
Q 550 2706 781 3412 
Q 1013 4119 1484 4856 
L 1984 4856 
z
" transform="scale(0.015625)"/>
       <path id="DejaVuSans-73" d="M 2834 3397 
L 2834 2853 
Q 2591 2978 2328 3040 
Q 2066 3103 1784 3103 
Q 1356 3103 1142 2972 
Q 928 2841 928 2578 
Q 928 2378 1081 2264 
Q 1234 2150 1697 2047 
L 1894 2003 
Q 2506 1872 2764 1633 
Q 3022 1394 3022 966 
Q 3022 478 2636 193 
Q 2250 -91 1575 -91 
Q 1294 -91 989 -36 
Q 684 19 347 128 
L 347 722 
Q 666 556 975 473 
Q 1284 391 1588 391 
Q 1994 391 2212 530 
Q 2431 669 2431 922 
Q 2431 1156 2273 1281 
Q 2116 1406 1581 1522 
L 1381 1569 
Q 847 1681 609 1914 
Q 372 2147 372 2553 
Q 372 3047 722 3315 
Q 1072 3584 1716 3584 
Q 2034 3584 2315 3537 
Q 2597 3491 2834 3397 
z
" transform="scale(0.015625)"/>
       <path id="DejaVuSans-29" d="M 513 4856 
L 1013 4856 
Q 1481 4119 1714 3412 
Q 1947 2706 1947 2009 
Q 1947 1309 1714 600 
Q 1481 -109 1013 -844 
L 513 -844 
Q 928 -128 1133 580 
Q 1338 1288 1338 2009 
Q 1338 2731 1133 3434 
Q 928 4138 513 4856 
z
" transform="scale(0.015625)"/>
      </defs>
      <use xlink:href="#DejaVuSans-54"/>
      <use xlink:href="#DejaVuSans-69" x="57.958984"/>
      <use xlink:href="#DejaVuSans-6d" x="85.742188"/>
      <use xlink:href="#DejaVuSans-65" x="183.154297"/>
      <use xlink:href="#DejaVuSans-28" x="244.677734"/>
      <use xlink:href="#DejaVuSans-73" x="283.691406"/>
      <use xlink:href="#DejaVuSans-29" x="335.791016"/>
     </g>
    </g>
   </g>
   <g id="matplotlib.axis_2">
    <g id="ytick_1">
     <g id="line2d_11">
      <path d="M 57.6 295.488 
L 414.72 295.488 
" clip-path="url(#p32e3c4a18b)" style="fill: none; stroke: #b0b0b0; stroke-width: 0.8; stroke-linecap: square"/>
     </g>
     <g id="line2d_12">
      <defs>
       <path id="m8fdd777f63" d="M 0 0 
L -3.5 0 
" style="stroke: #000000; stroke-width: 0.8"/>
      </defs>
      <g>
       <use xlink:href="#m8fdd777f63" x="57.6" y="295.488" style="stroke: #000000; stroke-width: 0.8"/>
      </g>
     </g>
     <g id="text_7">
      <!-- 0 -->
      <g transform="translate(44.2375 299.287219) scale(0.1 -0.1)">
       <use xlink:href="#DejaVuSans-30"/>
      </g>
     </g>
    </g>
    <g id="ytick_2">
     <g id="line2d_13">
      <path d="M 57.6 265.248 
L 414.72 265.248 
" clip-path="url(#p32e3c4a18b)" style="fill: none; stroke: #b0b0b0; stroke-width: 0.8; stroke-linecap: square"/>
     </g>
     <g id="line2d_14">
      <g>
       <use xlink:href="#m8fdd777f63" x="57.6" y="265.248" style="stroke: #000000; stroke-width: 0.8"/>
      </g>
     </g>
     <g id="text_8">
      <!-- 1 -->
      <g transform="translate(44.2375 269.047219) scale(0.1 -0.1)">
       <use xlink:href="#DejaVuSans-31"/>
      </g>
     </g>
    </g>
    <g id="ytick_3">
     <g id="line2d_15">
      <path d="M 57.6 235.008 
L 414.72 235.008 
" clip-path="url(#p32e3c4a18b)" style="fill: none; stroke: #b0b0b0; stroke-width: 0.8; stroke-linecap: square"/>
     </g>
     <g id="line2d_16">
      <g>
       <use xlink:href="#m8fdd777f63" x="57.6" y="235.008" style="stroke: #000000; stroke-width: 0.8"/>
      </g>
     </g>
     <g id="text_9">
      <!-- 2 -->
      <g transform="translate(44.2375 238.807219) scale(0.1 -0.1)">
       <use xlink:href="#DejaVuSans-32"/>
      </g>
     </g>
    </g>
    <g id="ytick_4">
     <g id="line2d_17">
      <path d="M 57.6 204.768 
L 414.72 204.768 
" clip-path="url(#p32e3c4a18b)" style="fill: none; stroke: #b0b0b0; stroke-width: 0.8; stroke-linecap: square"/>
     </g>
     <g id="line2d_18">
      <g>
       <use xlink:href="#m8fdd777f63" x="57.6" y="204.768" style="stroke: #000000; stroke-width: 0.8"/>
      </g>
     </g>
     <g id="text_10">
      <!-- 3 -->
      <g transform="translate(44.2375 208.567219) scale(0.1 -0.1)">
       <defs>
        <path id="DejaVuSans-33" d="M 2597 2516 
Q 3050 2419 3304 2112 
Q 3559 1806 3559 1356 
Q 3559 666 3084 287 
Q 2609 -91 1734 -91 
Q 1441 -91 1130 -33 
Q 819 25 488 141 
L 488 750 
Q 750 597 1062 519 
Q 1375 441 1716 441 
Q 2309 441 2620 675 
Q 2931 909 2931 1356 
Q 2931 1769 2642 2001 
Q 2353 2234 1838 2234 
L 1294 2234 
L 1294 2753 
L 1863 2753 
Q 2328 2753 2575 2939 
Q 2822 3125 2822 3475 
Q 2822 3834 2567 4026 
Q 2313 4219 1838 4219 
Q 1578 4219 1281 4162 
Q 984 4106 628 3988 
L 628 4550 
Q 988 4650 1302 4700 
Q 1616 4750 1894 4750 
Q 2613 4750 3031 4423 
Q 3450 4097 3450 3541 
Q 3450 3153 3228 2886 
Q 3006 2619 2597 2516 
z
" transform="scale(0.015625)"/>
       </defs>
       <use xlink:href="#DejaVuSans-33"/>
      </g>
     </g>
    </g>
    <g id="ytick_5">
     <g id="line2d_19">
      <path d="M 57.6 174.528 
L 414.72 174.528 
" clip-path="url(#p32e3c4a18b)" style="fill: none; stroke: #b0b0b0; stroke-width: 0.8; stroke-linecap: square"/>
     </g>
     <g id="line2d_20">
      <g>
       <use xlink:href="#m8fdd777f63" x="57.6" y="174.528" style="stroke: #000000; stroke-width: 0.8"/>
      </g>
     </g>
     <g id="text_11">
      <!-- 4 -->
      <g transform="translate(44.2375 178.327219) scale(0.1 -0.1)">
       <defs>
        <path id="DejaVuSans-34" d="M 2419 4116 
L 825 1625 
L 2419 1625 
L 2419 4116 
z
M 2253 4666 
L 3047 4666 
L 3047 1625 
L 3713 1625 
L 3713 1100 
L 3047 1100 
L 3047 0 
L 2419 0 
L 2419 1100 
L 313 1100 
L 313 1709 
L 2253 4666 
z
" transform="scale(0.015625)"/>
       </defs>
       <use xlink:href="#DejaVuSans-34"/>
      </g>
     </g>
    </g>
    <g id="ytick_6">
     <g id="line2d_21">
      <path d="M 57.6 144.288 
L 414.72 144.288 
" clip-path="url(#p32e3c4a18b)" style="fill: none; stroke: #b0b0b0; stroke-width: 0.8; stroke-linecap: square"/>
     </g>
     <g id="line2d_22">
      <g>
       <use xlink:href="#m8fdd777f63" x="57.6" y="144.288" style="stroke: #000000; stroke-width: 0.8"/>
      </g>
     </g>
     <g id="text_12">
      <!-- 5 -->
      <g transform="translate(44.2375 148.087219) scale(0.1 -0.1)">
       <use xlink:href="#DejaVuSans-35"/>
      </g>
     </g>
    </g>
    <g id="ytick_7">
     <g id="line2d_23">
      <path d="M 57.6 114.048 
L 414.72 114.048 
" clip-path="url(#p32e3c4a18b)" style="fill: none; stroke: #b0b0b0; stroke-width: 0.8; stroke-linecap: square"/>
     </g>
     <g id="line2d_24">
      <g>
       <use xlink:href="#m8fdd777f63" x="57.6" y="114.048" style="stroke: #000000; stroke-width: 0.8"/>
      </g>
     </g>
     <g id="text_13">
      <!-- 6 -->
      <g transform="translate(44.2375 117.847219) scale(0.1 -0.1)">
       <defs>
        <path id="DejaVuSans-36" d="M 2113 2584 
Q 1688 2584 1439 2293 
Q 1191 2003 1191 1497 
Q 1191 994 1439 701 
Q 1688 409 2113 409 
Q 2538 409 2786 701 
Q 3034 994 3034 1497 
Q 3034 2003 2786 2293 
Q 2538 2584 2113 2584 
z
M 3366 4563 
L 3366 3988 
Q 3128 4100 2886 4159 
Q 2644 4219 2406 4219 
Q 1781 4219 1451 3797 
Q 1122 3375 1075 2522 
Q 1259 2794 1537 2939 
Q 1816 3084 2150 3084 
Q 2853 3084 3261 2657 
Q 3669 2231 3669 1497 
Q 3669 778 3244 343 
Q 2819 -91 2113 -91 
Q 1303 -91 875 529 
Q 447 1150 447 2328 
Q 447 3434 972 4092 
Q 1497 4750 2381 4750 
Q 2619 4750 2861 4703 
Q 3103 4656 3366 4563 
z
" transform="scale(0.015625)"/>
       </defs>
       <use xlink:href="#DejaVuSans-36"/>
      </g>
     </g>
    </g>
    <g id="ytick_8">
     <g id="line2d_25">
      <path d="M 57.6 83.808 
L 414.72 83.808 
" clip-path="url(#p32e3c4a18b)" style="fill: none; stroke: #b0b0b0; stroke-width: 0.8; stroke-linecap: square"/>
     </g>
     <g id="line2d_26">
      <g>
       <use xlink:href="#m8fdd777f63" x="57.6" y="83.808" style="stroke: #000000; stroke-width: 0.8"/>
      </g>
     </g>
     <g id="text_14">
      <!-- 7 -->
      <g transform="translate(44.2375 87.607219) scale(0.1 -0.1)">
       <defs>
        <path id="DejaVuSans-37" d="M 525 4666 
L 3525 4666 
L 3525 4397 
L 1831 0 
L 1172 0 
L 2766 4134 
L 525 4134 
L 525 4666 
z
" transform="scale(0.015625)"/>
       </defs>
       <use xlink:href="#DejaVuSans-37"/>
      </g>
     </g>
    </g>
    <g id="ytick_9">
     <g id="line2d_27">
      <path d="M 57.6 53.568 
L 414.72 53.568 
" clip-path="url(#p32e3c4a18b)" style="fill: none; stroke: #b0b0b0; stroke-width: 0.8; stroke-linecap: square"/>
     </g>
     <g id="line2d_28">
      <g>
       <use xlink:href="#m8fdd777f63" x="57.6" y="53.568" style="stroke: #000000; stroke-width: 0.8"/>
      </g>
     </g>
     <g id="text_15">
      <!-- 8 -->
      <g transform="translate(44.2375 57.367219) scale(0.1 -0.1)">
       <defs>
        <path id="DejaVuSans-38" d="M 2034 2216 
Q 1584 2216 1326 1975 
Q 1069 1734 1069 1313 
Q 1069 891 1326 650 
Q 1584 409 2034 409 
Q 2484 409 2743 651 
Q 3003 894 3003 1313 
Q 3003 1734 2745 1975 
Q 2488 2216 2034 2216 
z
M 1403 2484 
Q 997 2584 770 2862 
Q 544 3141 544 3541 
Q 544 4100 942 4425 
Q 1341 4750 2034 4750 
Q 2731 4750 3128 4425 
Q 3525 4100 3525 3541 
Q 3525 3141 3298 2862 
Q 3072 2584 2669 2484 
Q 3125 2378 3379 2068 
Q 3634 1759 3634 1313 
Q 3634 634 3220 271 
Q 2806 -91 2034 -91 
Q 1263 -91 848 271 
Q 434 634 434 1313 
Q 434 1759 690 2068 
Q 947 2378 1403 2484 
z
M 1172 3481 
Q 1172 3119 1398 2916 
Q 1625 2713 2034 2713 
Q 2441 2713 2670 2916 
Q 2900 3119 2900 3481 
Q 2900 3844 2670 4047 
Q 2441 4250 2034 4250 
Q 1625 4250 1398 4047 
Q 1172 3844 1172 3481 
z
" transform="scale(0.015625)"/>
       </defs>
       <use xlink:href="#DejaVuSans-38"/>
      </g>
     </g>
    </g>
    <g id="text_16">
     <!-- Velocity(m/s) -->
     <g transform="translate(38.157812 207.204563) rotate(-90) scale(0.1 -0.1)">
      <defs>
       <path id="DejaVuSans-56" d="M 1831 0 
L 50 4666 
L 709 4666 
L 2188 738 
L 3669 4666 
L 4325 4666 
L 2547 0 
L 1831 0 
z
" transform="scale(0.015625)"/>
       <path id="DejaVuSans-6c" d="M 603 4863 
L 1178 4863 
L 1178 0 
L 603 0 
L 603 4863 
z
" transform="scale(0.015625)"/>
       <path id="DejaVuSans-6f" d="M 1959 3097 
Q 1497 3097 1228 2736 
Q 959 2375 959 1747 
Q 959 1119 1226 758 
Q 1494 397 1959 397 
Q 2419 397 2687 759 
Q 2956 1122 2956 1747 
Q 2956 2369 2687 2733 
Q 2419 3097 1959 3097 
z
M 1959 3584 
Q 2709 3584 3137 3096 
Q 3566 2609 3566 1747 
Q 3566 888 3137 398 
Q 2709 -91 1959 -91 
Q 1206 -91 779 398 
Q 353 888 353 1747 
Q 353 2609 779 3096 
Q 1206 3584 1959 3584 
z
" transform="scale(0.015625)"/>
       <path id="DejaVuSans-63" d="M 3122 3366 
L 3122 2828 
Q 2878 2963 2633 3030 
Q 2388 3097 2138 3097 
Q 1578 3097 1268 2742 
Q 959 2388 959 1747 
Q 959 1106 1268 751 
Q 1578 397 2138 397 
Q 2388 397 2633 464 
Q 2878 531 3122 666 
L 3122 134 
Q 2881 22 2623 -34 
Q 2366 -91 2075 -91 
Q 1284 -91 818 406 
Q 353 903 353 1747 
Q 353 2603 823 3093 
Q 1294 3584 2113 3584 
Q 2378 3584 2631 3529 
Q 2884 3475 3122 3366 
z
" transform="scale(0.015625)"/>
       <path id="DejaVuSans-74" d="M 1172 4494 
L 1172 3500 
L 2356 3500 
L 2356 3053 
L 1172 3053 
L 1172 1153 
Q 1172 725 1289 603 
Q 1406 481 1766 481 
L 2356 481 
L 2356 0 
L 1766 0 
Q 1100 0 847 248 
Q 594 497 594 1153 
L 594 3053 
L 172 3053 
L 172 3500 
L 594 3500 
L 594 4494 
L 1172 4494 
z
" transform="scale(0.015625)"/>
       <path id="DejaVuSans-79" d="M 2059 -325 
Q 1816 -950 1584 -1140 
Q 1353 -1331 966 -1331 
L 506 -1331 
L 506 -850 
L 844 -850 
Q 1081 -850 1212 -737 
Q 1344 -625 1503 -206 
L 1606 56 
L 191 3500 
L 800 3500 
L 1894 763 
L 2988 3500 
L 3597 3500 
L 2059 -325 
z
" transform="scale(0.015625)"/>
       <path id="DejaVuSans-2f" d="M 1625 4666 
L 2156 4666 
L 531 -594 
L 0 -594 
L 1625 4666 
z
" transform="scale(0.015625)"/>
      </defs>
      <use xlink:href="#DejaVuSans-56"/>
      <use xlink:href="#DejaVuSans-65" x="60.658203"/>
      <use xlink:href="#DejaVuSans-6c" x="122.181641"/>
      <use xlink:href="#DejaVuSans-6f" x="149.964844"/>
      <use xlink:href="#DejaVuSans-63" x="211.146484"/>
      <use xlink:href="#DejaVuSans-69" x="266.126953"/>
      <use xlink:href="#DejaVuSans-74" x="293.910156"/>
      <use xlink:href="#DejaVuSans-79" x="333.119141"/>
      <use xlink:href="#DejaVuSans-28" x="392.298828"/>
      <use xlink:href="#DejaVuSans-6d" x="431.3125"/>
      <use xlink:href="#DejaVuSans-2f" x="528.724609"/>
      <use xlink:href="#DejaVuSans-73" x="562.416016"/>
      <use xlink:href="#DejaVuSans-29" x="614.515625"/>
     </g>
    </g>
   </g>
   <g id="line2d_29">
    <path d="M 73.832727 295.488 
L 74.12442 294.606746 
L 74.12442 294.606746 
L 79.666592 266.315956 
L 79.666592 266.315956 
L 85.208763 236.901659 
L 85.208763 236.901659 
L 90.750934 206.319312 
L 90.750934 206.319312 
L 96.293105 174.522466 
L 96.293105 174.522466 
L 101.835276 141.462949 
L 101.835276 141.462949 
L 107.377447 107.090592 
L 107.377447 107.090592 
L 113.794697 66.91019 
L 113.794697 66.91019 
L 114.669777 63.528481 
L 114.669777 63.528481 
L 115.544857 61.017654 
L 115.544857 61.017654 
L 116.128243 60.119647 
L 116.128243 60.119647 
L 116.71163 59.828285 
L 116.71163 59.828285 
L 117.003323 59.855652 
L 117.003323 59.855652 
L 117.295016 60.522898 
L 117.295016 60.522898 
L 118.461789 65.697839 
L 118.461789 65.697839 
L 120.211948 81.683549 
L 120.211948 81.683549 
L 121.378721 94.96154 
L 121.378721 94.96154 
L 121.962107 101.349347 
L 121.962107 101.349347 
L 123.712267 117.104508 
L 123.712267 117.104508 
L 124.295653 121.046715 
L 124.295653 121.046715 
L 125.754119 129.265887 
L 125.754119 129.265887 
L 126.337506 131.627389 
L 126.337506 131.627389 
L 126.920892 133.635809 
L 126.920892 133.635809 
L 128.087665 136.891417 
L 128.087665 136.891417 
L 129.254438 138.564929 
L 129.254438 138.564929 
L 129.837824 139.015475 
L 129.837824 139.015475 
L 130.712904 139.33744 
L 130.712904 139.33744 
L 132.463063 139.477632 
L 132.463063 139.477632 
L 133.338143 139.468228 
L 133.338143 139.468228 
L 134.796609 138.977463 
L 134.796609 138.977463 
L 135.379995 138.578144 
L 135.379995 138.578144 
L 135.671688 138.36604 
L 135.671688 138.36604 
L 136.838461 136.802723 
L 136.838461 136.802723 
L 137.713541 134.857868 
L 137.713541 134.857868 
L 138.296927 133.156565 
L 138.296927 133.156565 
L 138.880314 131.057607 
L 138.880314 131.057607 
L 142.380632 109.960973 
L 142.380632 109.960973 
L 143.547405 102.925758 
L 143.547405 102.925758 
L 144.422485 99.084613 
L 144.422485 99.084613 
L 145.297564 96.237517 
L 145.297564 96.237517 
L 146.172644 94.091656 
L 146.172644 94.091656 
L 148.797883 88.369099 
L 148.797883 88.369099 
L 149.381269 86.003122 
L 149.381269 86.003122 
L 149.964656 83.506447 
L 149.964656 83.506447 
L 152.006508 70.891135 
L 152.006508 70.891135 
L 152.881588 67.624913 
L 152.881588 67.624913 
L 153.464974 66.278174 
L 153.464974 66.278174 
L 154.340054 64.860644 
L 154.340054 64.860644 
L 155.215134 63.856797 
L 155.215134 63.856797 
L 157.840372 61.54132 
L 157.840372 61.54132 
L 158.423759 60.461662 
L 158.423759 60.461662 
L 159.882225 57.862927 
L 159.882225 57.862927 
L 160.757305 56.774317 
L 160.757305 56.774317 
L 161.924077 55.739413 
L 161.924077 55.739413 
L 163.09085 55.038571 
L 163.09085 55.038571 
L 164.549316 54.47145 
L 164.549316 54.47145 
L 166.299476 54.071526 
L 166.299476 54.071526 
L 168.633021 53.798943 
L 168.633021 53.798943 
L 172.13334 53.639729 
L 172.13334 53.639729 
L 179.717363 53.573685 
L 179.717363 53.573685 
L 180.30075 53.572687 
L 180.30075 53.572687 
L 180.592443 53.756425 
L 180.592443 53.756425 
L 180.884136 55.055536 
L 180.884136 55.055536 
L 181.467523 58.280813 
L 181.467523 58.280813 
L 182.050909 61.764764 
L 182.050909 61.764764 
L 182.634296 65.780303 
L 182.634296 65.780303 
L 183.509375 71.805895 
L 183.509375 71.805895 
L 183.801068 74.356367 
L 183.801068 74.356367 
L 184.384455 77.466037 
L 184.384455 77.466037 
L 184.967841 80.956308 
L 184.967841 80.956308 
L 185.551228 84.222802 
L 185.551228 84.222802 
L 185.842921 86.260706 
L 185.842921 86.260706 
L 186.426307 88.831197 
L 186.426307 88.831197 
L 187.009694 91.606866 
L 187.009694 91.606866 
L 188.759853 98.427316 
L 188.759853 98.427316 
L 189.926626 101.840687 
L 189.926626 101.840687 
L 191.676785 105.224754 
L 191.676785 105.224754 
L 192.551865 106.211425 
L 192.551865 106.211425 
L 193.426944 106.827081 
L 193.426944 106.827081 
L 194.302024 107.127395 
L 194.302024 107.127395 
L 195.76049 107.2642 
L 195.76049 107.2642 
L 197.802343 107.204748 
L 197.802343 107.204748 
L 198.677422 107.040515 
L 198.677422 107.040515 
L 199.844195 106.707784 
L 199.844195 106.707784 
L 201.302661 105.878331 
L 201.302661 105.878331 
L 202.761127 104.443988 
L 202.761127 104.443988 
L 203.9279 102.772593 
L 203.9279 102.772593 
L 204.511286 101.786708 
L 204.511286 101.786708 
L 205.969753 98.288273 
L 205.969753 98.288273 
L 206.844832 95.517714 
L 206.844832 95.517714 
L 208.011605 91.135212 
L 208.011605 91.135212 
L 208.886685 87.112839 
L 208.886685 87.112839 
L 212.09531 67.791475 
L 212.09531 67.791475 
L 212.97039 64.186383 
L 212.97039 64.186383 
L 213.845469 61.495053 
L 213.845469 61.495053 
L 214.720549 59.486149 
L 214.720549 59.486149 
L 215.595629 57.986124 
L 215.595629 57.986124 
L 216.470708 56.866307 
L 216.470708 56.866307 
L 217.637481 55.801738 
L 217.637481 55.801738 
L 218.804254 55.080756 
L 218.804254 55.080756 
L 220.26272 54.497366 
L 220.26272 54.497366 
L 222.012879 54.085951 
L 222.012879 54.085951 
L 224.346425 53.805565 
L 224.346425 53.805565 
L 227.846743 53.641786 
L 227.846743 53.641786 
L 233.972301 53.577526 
L 233.972301 53.577526 
L 234.263994 53.802451 
L 234.263994 53.802451 
L 235.139074 55.584978 
L 235.139074 55.584978 
L 235.72246 57.341831 
L 235.72246 57.341831 
L 236.305847 59.256779 
L 236.305847 59.256779 
L 236.889233 61.24143 
L 236.889233 61.24143 
L 237.764313 65.033073 
L 237.764313 65.033073 
L 238.347699 67.483813 
L 238.347699 67.483813 
L 238.639392 69.235767 
L 238.639392 69.235767 
L 239.222779 71.478336 
L 239.222779 71.478336 
L 242.431404 89.701292 
L 242.431404 89.701292 
L 242.723097 92.092913 
L 242.723097 92.092913 
L 243.306484 95.285501 
L 243.306484 95.285501 
L 243.598177 97.870265 
L 243.598177 97.870265 
L 244.181563 101.266066 
L 244.181563 101.266066 
L 244.473257 104.030819 
L 244.473257 104.030819 
L 244.76495 105.494676 
L 244.76495 105.494676 
L 245.348336 109.367181 
L 245.348336 109.367181 
L 245.640029 111.178799 
L 245.640029 111.178799 
L 245.931723 114.005936 
L 245.931723 114.005936 
L 246.515109 117.898459 
L 246.515109 117.898459 
L 247.098495 121.566148 
L 247.098495 121.566148 
L 247.390189 124.492231 
L 247.390189 124.492231 
L 247.681882 126.079438 
L 247.681882 126.079438 
L 248.265268 130.024034 
L 248.265268 130.024034 
L 249.140348 135.604312 
L 249.140348 135.604312 
L 250.307121 142.213022 
L 250.307121 142.213022 
L 250.598814 144.944964 
L 250.598814 144.944964 
L 250.890507 146.183443 
L 250.890507 146.183443 
L 251.1822 148.571345 
L 251.1822 148.571345 
L 251.765587 150.810526 
L 251.765587 150.810526 
L 254.682519 165.010807 
L 254.682519 165.010807 
L 254.974212 166.923215 
L 254.974212 166.923215 
L 256.140985 170.907697 
L 256.140985 170.907697 
L 256.432678 172.465753 
L 256.432678 172.465753 
L 257.599451 176.07777 
L 257.599451 176.07777 
L 257.891144 177.407785 
L 257.891144 177.407785 
L 259.057917 180.489846 
L 259.057917 180.489846 
L 259.34961 181.551573 
L 259.34961 181.551573 
L 259.932997 182.623429 
L 259.932997 182.623429 
L 260.808076 184.791879 
L 260.808076 184.791879 
L 261.974849 186.539237 
L 261.974849 186.539237 
L 262.266543 186.833352 
L 262.266543 186.833352 
L 262.558236 187.328622 
L 262.558236 187.328622 
L 264.600088 189.053814 
L 264.600088 189.053814 
L 266.058554 189.800863 
L 266.058554 189.800863 
L 267.225327 190.113515 
L 267.225327 190.113515 
L 268.3921 190.251046 
L 268.3921 190.251046 
L 272.184112 190.330063 
L 272.184112 190.330063 
L 273.642578 190.11291 
L 273.642578 190.11291 
L 275.68443 188.945827 
L 275.68443 188.945827 
L 276.267817 188.305616 
L 276.267817 188.305616 
L 277.142896 187.638612 
L 277.142896 187.638612 
L 277.726283 186.861051 
L 277.726283 186.861051 
L 278.309669 186.283225 
L 278.309669 186.283225 
L 278.893056 185.116536 
L 278.893056 185.116536 
L 279.476442 184.363106 
L 279.476442 184.363106 
L 280.059828 182.869795 
L 280.059828 182.869795 
L 280.643215 181.889142 
L 280.643215 181.889142 
L 281.226601 180.150856 
L 281.226601 180.150856 
L 281.809988 178.855404 
L 281.809988 178.855404 
L 282.393374 177.015875 
L 282.393374 177.015875 
L 282.685067 176.157634 
L 282.685067 176.157634 
L 283.268454 173.760055 
L 283.268454 173.760055 
L 283.560147 172.718287 
L 283.560147 172.718287 
L 284.143533 169.800309 
L 284.143533 169.800309 
L 284.72692 166.817616 
L 284.72692 166.817616 
L 285.893693 160.356024 
L 285.893693 160.356024 
L 286.768772 155.919241 
L 286.768772 155.919241 
L 287.060466 154.818687 
L 287.060466 154.818687 
L 287.935545 153.191956 
L 287.935545 153.191956 
L 288.518932 152.992644 
L 288.518932 152.992644 
L 288.810625 154.010795 
L 288.810625 154.010795 
L 289.102318 154.29617 
L 289.102318 154.29617 
L 289.394011 154.887695 
L 289.394011 154.887695 
L 290.269091 157.989744 
L 290.269091 157.989744 
L 292.310943 162.274752 
L 292.310943 162.274752 
L 292.89433 163.035621 
L 292.89433 163.035621 
L 294.352796 164.119271 
L 294.352796 164.119271 
L 294.936182 164.336515 
L 294.936182 164.336515 
L 295.811262 164.469964 
L 295.811262 164.469964 
L 298.144808 164.533559 
L 298.144808 164.533559 
L 299.31158 164.372924 
L 299.31158 164.372924 
L 300.478353 164.044276 
L 300.478353 164.044276 
L 301.353433 163.523785 
L 301.353433 163.523785 
L 302.520206 162.640202 
L 302.520206 162.640202 
L 302.811899 162.423744 
L 302.811899 162.423744 
L 303.978672 161.121519 
L 303.978672 161.121519 
L 304.270365 160.792629 
L 304.270365 160.792629 
L 304.853752 159.850683 
L 304.853752 159.850683 
L 305.437138 158.876653 
L 305.437138 158.876653 
L 306.312218 157.362778 
L 306.312218 157.362778 
L 306.603911 156.847277 
L 306.603911 156.847277 
L 307.187297 155.476346 
L 307.187297 155.476346 
L 307.770684 154.097886 
L 307.770684 154.097886 
L 308.645763 151.972105 
L 308.645763 151.972105 
L 309.520843 149.377694 
L 309.520843 149.377694 
L 310.979309 143.658524 
L 310.979309 143.658524 
L 311.854389 139.589309 
L 311.854389 139.589309 
L 313.896241 127.861995 
L 313.896241 127.861995 
L 319.438412 92.949522 
L 319.438412 92.949522 
L 323.230424 68.837053 
L 323.230424 68.837053 
L 324.105504 64.966968 
L 324.105504 64.966968 
L 324.980583 62.077778 
L 324.980583 62.077778 
L 325.855663 59.92088 
L 325.855663 59.92088 
L 326.730742 58.31069 
L 326.730742 58.31069 
L 327.605822 57.10859 
L 327.605822 57.10859 
L 328.480902 56.211188 
L 328.480902 56.211188 
L 329.647675 55.358057 
L 329.647675 55.358057 
L 330.814447 54.780291 
L 330.814447 54.780291 
L 332.272914 54.312781 
L 332.272914 54.312781 
L 334.023073 53.983074 
L 334.023073 53.983074 
L 336.648312 53.740701 
L 336.648312 53.740701 
L 341.02371 53.608038 
L 341.02371 53.608038 
L 342.482176 53.592615 
L 342.482176 53.592615 
L 342.773869 53.881921 
L 342.773869 53.881921 
L 343.065562 54.886434 
L 343.065562 54.886434 
L 343.357256 56.93604 
L 343.357256 56.93604 
L 343.940642 61.785629 
L 343.940642 61.785629 
L 344.524028 66.618193 
L 344.524028 66.618193 
L 345.107415 71.903631 
L 345.107415 71.903631 
L 347.440961 89.895131 
L 347.440961 89.895131 
L 349.19112 99.688324 
L 349.19112 99.688324 
L 350.649586 106.100142 
L 350.649586 106.100142 
L 350.941279 107.131658 
L 350.941279 107.131658 
L 351.524666 109.51702 
L 351.524666 109.51702 
L 351.816359 110.603604 
L 351.816359 110.603604 
L 352.108052 112.151317 
L 352.108052 112.151317 
L 352.399745 112.948836 
L 352.399745 112.948836 
L 352.983132 114.99678 
L 352.983132 114.99678 
L 353.274825 115.991918 
L 353.274825 115.991918 
L 353.566518 117.542595 
L 353.566518 117.542595 
L 353.858211 118.301921 
L 353.858211 118.301921 
L 354.441598 120.367253 
L 354.441598 120.367253 
L 357.066837 130.485799 
L 357.066837 130.485799 
L 357.941916 134.055812 
L 357.941916 134.055812 
L 358.233609 136.218063 
L 358.233609 136.218063 
L 358.525303 137.194936 
L 358.525303 137.194936 
L 358.816996 139.175535 
L 358.816996 139.175535 
L 359.108689 140.183313 
L 359.108689 140.183313 
L 359.400382 142.14973 
L 359.400382 142.14973 
L 359.692075 143.184875 
L 359.692075 143.184875 
L 359.983769 145.184102 
L 359.983769 145.184102 
L 360.275462 146.268085 
L 360.275462 146.268085 
L 360.567155 148.326159 
L 360.567155 148.326159 
L 360.858848 149.371979 
L 360.858848 149.371979 
L 361.150542 151.53051 
L 361.150542 151.53051 
L 361.442235 152.568589 
L 361.442235 152.568589 
L 361.733928 154.78252 
L 361.733928 154.78252 
L 362.317314 156.982631 
L 362.317314 156.982631 
L 364.067474 165.485817 
L 364.067474 165.485817 
L 364.359167 167.333057 
L 364.359167 167.333057 
L 364.942553 169.252511 
L 364.942553 169.252511 
L 365.817633 172.980256 
L 365.817633 172.980256 
L 366.109326 173.848054 
L 366.109326 173.848054 
L 366.401019 175.389326 
L 366.401019 175.389326 
L 367.567792 178.62298 
L 367.567792 178.62298 
L 367.859485 179.950697 
L 367.859485 179.950697 
L 371.068111 187.122385 
L 371.068111 187.122385 
L 373.69335 190.384435 
L 373.69335 190.384435 
L 374.860123 190.970214 
L 374.860123 190.970214 
L 375.735202 191.158155 
L 375.735202 191.158155 
L 377.485361 191.255831 
L 377.485361 191.255831 
L 379.527214 190.955184 
L 379.527214 190.955184 
L 380.693987 190.541985 
L 380.693987 190.541985 
L 381.277373 190.254947 
L 381.277373 190.254947 
L 381.86076 189.707603 
L 381.86076 189.707603 
L 382.152453 189.456732 
L 382.152453 189.456732 
L 382.735839 188.607411 
L 382.735839 188.607411 
L 383.027532 188.232435 
L 383.027532 188.232435 
L 383.610919 187.022956 
L 383.610919 187.022956 
L 383.902612 186.481418 
L 383.902612 186.481418 
L 385.361078 182.053859 
L 385.361078 182.053859 
L 387.986317 168.685239 
L 387.986317 168.685239 
L 388.569704 166.786741 
L 388.569704 166.786741 
L 389.444783 166.151036 
L 389.444783 166.151036 
L 389.736476 166.743196 
L 389.736476 166.743196 
L 390.02817 167.6849 
L 390.02817 167.6849 
L 392.070022 177.59228 
L 392.070022 177.59228 
L 392.945102 179.444056 
L 392.945102 179.444056 
L 393.528488 180.12237 
L 393.528488 180.12237 
L 395.278647 181.130239 
L 395.278647 181.130239 
L 395.862034 181.269857 
L 395.862034 181.269857 
L 398.487273 181.372552 
L 398.487273 181.372552 
" clip-path="url(#p32e3c4a18b)" style="fill: none; stroke: #1f77b4; stroke-width: 1.5; stroke-linecap: square"/>
   </g>
   <g id="line2d_30">
    <path d="M 73.832727 279.920448 
L 74.12442 278.862471 
L 74.12442 278.862471 
L 79.666592 249.946439 
L 79.666592 249.946439 
L 85.208763 219.882103 
L 85.208763 219.882103 
L 90.750934 188.623862 
L 90.750934 188.623862 
L 96.293105 156.124329 
L 96.293105 156.124329 
L 101.835276 122.334183 
L 101.835276 122.334183 
L 107.377447 87.202198 
L 107.377447 87.202198 
L 112.627925 53.568 
L 112.627925 53.568 
L 114.96147 53.568 
L 114.96147 53.568 
L 115.253163 53.716236 
L 115.544857 54.958435 
L 116.128243 58.558477 
L 116.128243 58.558477 
L 116.419936 58.397691 
L 116.419936 58.397691 
L 117.003323 61.794096 
L 117.003323 61.794096 
L 117.295016 64.320407 
L 117.295016 64.320407 
L 117.586709 64.509528 
L 117.586709 64.509528 
L 118.170096 68.835904 
L 118.170096 68.835904 
L 118.461789 73.023206 
L 118.461789 73.023206 
L 118.753482 73.712013 
L 118.753482 73.712013 
L 119.336868 80.250566 
L 119.336868 80.250566 
L 119.628562 86.501053 
L 119.628562 86.501053 
L 119.920255 86.787971 
L 119.920255 86.787971 
L 120.211948 90.749955 
L 120.211948 90.749955 
L 120.503641 96.381732 
L 120.503641 96.381732 
L 120.795334 97.619848 
L 120.795334 97.619848 
L 121.670414 106.672585 
L 121.670414 106.672585 
L 121.962107 109.436158 
L 121.962107 109.436158 
L 122.253801 113.673629 
L 122.253801 113.673629 
L 122.545494 114.417865 
L 122.545494 114.417865 
L 122.837187 116.562426 
L 122.837187 116.562426 
L 123.12888 121.085664 
L 123.12888 121.085664 
L 123.420573 120.689127 
L 123.420573 120.689127 
L 123.712267 123.499452 
L 123.712267 123.499452 
L 124.00396 124.363318 
L 124.295653 126.069126 
L 124.295653 126.069126 
L 124.587346 129.500821 
L 124.587346 129.500821 
L 124.879039 128.906605 
L 124.879039 128.906605 
L 125.170733 131.38813 
L 125.170733 131.38813 
L 125.462426 131.449366 
L 125.462426 131.449366 
L 125.754119 133.130166 
L 125.754119 133.130166 
L 126.045812 133.592203 
L 126.045812 133.592203 
L 126.337506 134.790493 
L 126.337506 134.790493 
L 126.920892 136.040584 
L 126.920892 136.040584 
L 127.212585 137.603206 
L 127.212585 137.603206 
L 127.504278 137.272925 
L 127.504278 137.272925 
L 127.795972 138.324188 
L 127.795972 138.324188 
L 128.087665 138.195033 
L 128.087665 138.195033 
L 128.379358 138.857924 
L 128.379358 138.857924 
L 128.671051 138.948977 
L 128.671051 138.948977 
L 129.254438 139.339738 
L 129.254438 139.339738 
L 131.587983 139.520483 
L 131.587983 139.520483 
L 131.879677 139.453471 
L 131.879677 139.453471 
L 132.463063 139.508931 
L 132.463063 139.508931 
L 133.046449 139.349596 
L 133.046449 139.349596 
L 133.338143 138.636053 
L 133.338143 138.636053 
L 133.629836 139.010636 
L 133.629836 139.010636 
L 133.921529 138.040114 
L 133.921529 138.040114 
L 134.213222 138.44155 
L 134.213222 138.44155 
L 134.504915 137.193938 
L 134.504915 137.193938 
L 134.796609 137.480432 
L 134.796609 137.480432 
L 135.088302 136.034143 
L 135.088302 136.034143 
L 135.379995 136.293572 
L 135.379995 136.293572 
L 135.671688 134.534451 
L 135.671688 134.534451 
L 135.963382 134.696568 
L 135.963382 134.696568 
L 136.255075 132.6267 
L 136.255075 132.6267 
L 136.546768 132.613576 
L 136.546768 132.613576 
L 136.838461 130.350203 
L 136.838461 130.350203 
L 137.130154 129.958927 
L 137.130154 129.958927 
L 137.421848 127.37247 
L 137.713541 126.647284 
L 137.713541 126.647284 
L 138.005234 123.980933 
L 138.005234 123.980933 
L 138.296927 122.596364 
L 138.296927 122.596364 
L 138.58862 120.127843 
L 138.58862 120.127843 
L 138.880314 112.650882 
L 138.880314 112.650882 
L 139.172007 114.903369 
L 139.172007 114.903369 
L 139.4637 108.581545 
L 139.4637 108.581545 
L 139.755393 108.388765 
L 139.755393 108.388765 
L 140.047086 105.047669 
L 140.047086 105.047669 
L 142.672325 88.254822 
L 142.672325 88.254822 
L 142.964019 87.290862 
L 142.964019 87.290862 
L 143.547405 87.608291 
L 143.547405 87.608291 
L 144.130791 87.873526 
L 144.130791 87.873526 
L 145.880951 87.808268 
L 145.880951 87.808268 
L 146.75603 87.008481 
L 146.75603 87.008481 
L 147.047724 86.0307 
L 147.047724 86.0307 
L 147.339417 85.612784 
L 147.339417 85.612784 
L 147.63111 84.772475 
L 147.63111 84.772475 
L 147.922803 82.824928 
L 147.922803 82.824928 
L 148.214496 82.207336 
L 148.214496 82.207336 
L 148.50619 80.557593 
L 148.797883 77.600544 
L 148.797883 77.600544 
L 149.089576 72.653129 
L 149.089576 72.653129 
L 149.381269 73.86533 
L 149.381269 73.86533 
L 149.672963 70.121497 
L 149.672963 70.121497 
L 149.964656 63.6039 
L 149.964656 63.6039 
L 150.256349 64.269331 
L 150.256349 64.269331 
L 150.839735 57.681698 
L 150.839735 57.681698 
L 151.423122 53.782099 
L 151.423122 53.782099 
L 151.714815 55.36979 
L 152.006508 57.606522 
L 152.006508 57.606522 
L 152.298201 57.73731 
L 152.298201 57.73731 
L 153.173281 60.364924 
L 153.173281 60.364924 
L 153.464974 60.417451 
L 153.464974 60.417451 
L 154.048361 60.924061 
L 154.048361 60.924061 
L 154.631747 60.832585 
L 154.631747 60.832585 
L 155.215134 61.132536 
L 155.215134 61.132536 
L 155.506827 60.889951 
L 155.506827 60.889951 
L 155.79852 60.802043 
L 155.79852 60.802043 
L 156.090213 60.976014 
L 156.090213 60.976014 
L 156.381906 60.650934 
L 156.381906 60.650934 
L 156.6736 60.109154 
L 156.6736 60.109154 
L 156.965293 58.832088 
L 157.256986 59.12209 
L 157.256986 59.12209 
L 157.548679 58.536704 
L 157.548679 58.536704 
L 158.132066 54.280273 
L 158.132066 54.280273 
L 158.423759 54.518141 
L 158.423759 54.518141 
L 158.715452 53.568 
L 158.715452 53.568 
L 180.009057 53.568 
L 180.009057 53.568 
L 180.30075 54.106484 
L 180.30075 54.106484 
L 180.884136 60.723661 
L 180.884136 60.723661 
L 181.175829 60.708239 
L 181.175829 60.708239 
L 181.759216 65.365531 
L 181.759216 65.365531 
L 182.050909 68.448257 
L 182.050909 68.448257 
L 182.342602 69.047402 
L 182.342602 69.047402 
L 183.217682 76.122081 
L 183.217682 76.122081 
L 183.509375 79.215179 
L 183.509375 79.215179 
L 183.801068 78.66974 
L 183.801068 78.66974 
L 184.092762 80.561615 
L 184.092762 80.561615 
L 184.384455 83.513281 
L 184.384455 83.513281 
L 184.676148 83.639926 
L 184.676148 83.639926 
L 184.967841 85.296927 
L 185.551228 90.143068 
L 185.551228 90.143068 
L 185.842921 89.723095 
L 185.842921 89.723095 
L 186.426307 93.769933 
L 186.426307 93.769933 
L 186.718 93.656049 
L 186.718 93.656049 
L 187.009694 95.042946 
L 187.009694 95.042946 
L 187.301387 97.221829 
L 187.301387 97.221829 
L 187.59308 97.07453 
L 187.59308 97.07453 
L 187.884773 98.263688 
L 187.884773 98.263688 
L 188.176467 100.136723 
L 188.176467 100.136723 
L 188.46816 99.967409 
L 188.46816 99.967409 
L 189.051546 102.447724 
L 189.051546 102.447724 
L 189.343239 102.334536 
L 189.343239 102.334536 
L 189.634933 103.31531 
L 189.634933 103.31531 
L 189.926626 103.552664 
L 189.926626 103.552664 
L 190.801705 105.208213 
L 190.801705 105.208213 
L 191.093399 105.55555 
L 191.093399 105.55555 
L 191.385092 106.239427 
L 191.385092 106.239427 
L 191.676785 106.256634 
L 191.676785 106.256634 
L 192.260172 106.777246 
L 192.260172 106.777246 
L 193.718638 107.222106 
L 193.718638 107.222106 
L 194.302024 107.262114 
L 194.302024 107.262114 
L 194.593717 107.219717 
L 194.593717 107.219717 
L 194.88541 107.29435 
L 194.88541 107.29435 
L 195.177104 107.248052 
L 195.177104 107.248052 
L 195.468797 107.322926 
L 195.468797 107.322926 
L 196.63557 107.169821 
L 196.63557 107.169821 
L 196.927263 107.229273 
L 196.927263 107.229273 
L 197.218956 107.108464 
L 197.218956 107.108464 
L 197.510649 106.846525 
L 197.510649 106.846525 
L 197.802343 106.934856 
L 197.802343 106.934856 
L 198.094036 106.694902 
L 198.385729 106.120312 
L 198.385729 106.120312 
L 198.677422 106.431905 
L 198.677422 106.431905 
L 198.969115 105.989947 
L 198.969115 105.989947 
L 199.260809 106.021911 
L 199.260809 106.021911 
L 199.552502 105.699704 
L 199.552502 105.699704 
L 199.844195 104.986524 
L 199.844195 104.986524 
L 200.135888 105.143227 
L 200.427581 104.580249 
L 200.427581 104.580249 
L 201.010968 104.005689 
L 201.010968 104.005689 
L 201.302661 103.097824 
L 201.302661 103.097824 
L 201.594354 103.123346 
L 201.594354 103.123346 
L 201.886048 102.501007 
L 201.886048 102.501007 
L 202.177741 101.163764 
L 202.177741 101.163764 
L 202.469434 101.424433 
L 202.469434 101.424433 
L 202.761127 100.398299 
L 202.761127 100.398299 
L 203.05282 99.991843 
L 203.05282 99.991843 
L 203.344514 99.319427 
L 203.344514 99.319427 
L 203.636207 97.773951 
L 203.636207 97.773951 
L 203.9279 97.712322 
L 203.9279 97.712322 
L 204.219593 96.743765 
L 204.219593 96.743765 
L 204.511286 94.58224 
L 204.511286 94.58224 
L 204.80298 94.780554 
L 204.80298 94.780554 
L 205.094673 93.330516 
L 205.094673 93.330516 
L 205.386366 90.699212 
L 205.386366 90.699212 
L 205.678059 91.230378 
L 205.678059 91.230378 
L 205.969753 89.223803 
L 205.969753 89.223803 
L 206.261446 86.092844 
L 206.261446 86.092844 
L 206.553139 86.968473 
L 206.553139 86.968473 
L 206.844832 84.390362 
L 206.844832 84.390362 
L 207.136525 83.592207 
L 207.136525 83.592207 
L 207.428219 81.888304 
L 207.428219 81.888304 
L 207.719912 78.797292 
L 207.719912 78.797292 
L 208.011605 78.018129 
L 208.011605 78.018129 
L 208.303298 75.873538 
L 208.303298 75.873538 
L 208.594991 72.448344 
L 208.594991 72.448344 
L 208.886685 67.700815 
L 208.886685 67.700815 
L 209.178378 68.809595 
L 209.178378 68.809595 
L 209.761764 61.620731 
L 209.761764 61.620731 
L 210.053457 60.603064 
L 210.053457 60.603064 
L 210.636844 55.877338 
L 210.636844 55.877338 
L 210.928537 53.92583 
L 210.928537 53.92583 
L 211.22023 53.568 
L 211.22023 53.568 
L 233.680608 53.56806 
L 233.680608 53.56806 
L 233.972301 54.230921 
L 233.972301 54.230921 
L 234.263994 55.490145 
L 234.263994 55.490145 
L 234.555687 55.921186 
L 234.555687 55.921186 
L 235.139074 57.879801 
L 235.139074 57.879801 
L 235.72246 60.603548 
L 235.72246 60.603548 
L 236.014153 60.765967 
L 236.014153 60.765967 
L 236.59754 63.265484 
L 236.59754 63.265484 
L 237.180926 67.025979 
L 237.180926 67.025979 
L 237.472619 66.771449 
L 237.472619 66.771449 
L 237.764313 68.150635 
L 237.764313 68.150635 
L 238.347699 72.573417 
L 238.347699 72.573417 
L 238.639392 72.301831 
L 238.639392 72.301831 
L 238.931086 73.739955 
L 238.931086 73.739955 
L 239.514472 78.962826 
L 239.514472 78.962826 
L 239.806165 78.404142 
L 239.806165 78.404142 
L 240.097858 80.204723 
L 240.097858 80.204723 
L 240.389552 83.223521 
L 240.389552 83.223521 
L 240.681245 83.419386 
L 240.681245 83.419386 
L 240.972938 85.120809 
L 240.972938 85.120809 
L 241.556324 91.116524 
L 241.556324 91.116524 
L 241.848018 90.515051 
L 242.139711 93.025696 
L 242.139711 93.025696 
L 242.431404 96.649114 
L 242.431404 96.649114 
L 242.723097 96.187319 
L 242.723097 96.187319 
L 243.01479 98.682633 
L 243.01479 98.682633 
L 243.306484 102.794456 
L 243.306484 102.794456 
L 243.598177 102.121374 
L 243.598177 102.121374 
L 243.88987 104.947635 
L 243.88987 104.947635 
L 244.181563 109.297901 
L 244.181563 109.297901 
L 244.473257 108.28344 
L 244.473257 108.28344 
L 244.76495 111.861739 
L 244.76495 111.861739 
L 245.056643 112.569294 
L 245.056643 112.569294 
L 245.348336 114.63009 
L 245.348336 114.63009 
L 245.640029 119.391892 
L 245.640029 119.391892 
L 245.931723 118.875816 
L 245.931723 118.875816 
L 246.223416 122.120477 
L 246.223416 122.120477 
L 246.515109 123.08471 
L 246.515109 123.08471 
L 246.806802 125.1524 
L 246.806802 125.1524 
L 247.098495 130.066642 
L 247.098495 130.066642 
L 247.390189 129.103226 
L 247.390189 129.103226 
L 247.681882 133.017794 
L 247.681882 133.017794 
L 247.973575 132.988794 
L 247.973575 132.988794 
L 248.265268 136.058577 
L 248.265268 136.058577 
L 248.556962 136.724069 
L 248.556962 136.724069 
L 248.848655 139.246387 
L 248.848655 139.246387 
L 249.140348 140.302761 
L 249.140348 140.302761 
L 250.015428 145.327591 
L 250.015428 145.327591 
L 250.307121 150.14954 
L 250.307121 150.14954 
L 250.598814 148.542828 
L 250.890507 153.120499 
L 250.890507 153.120499 
L 251.1822 151.578501 
L 251.1822 151.578501 
L 253.515746 164.348762 
L 253.515746 164.348762 
L 253.807439 164.255291 
L 253.807439 164.255291 
L 254.099133 167.566268 
L 254.390826 166.909365 
L 254.390826 166.909365 
L 254.682519 170.56653 
L 254.682519 170.56653 
L 254.974212 169.568852 
L 254.974212 169.568852 
L 255.265905 170.433564 
L 255.265905 170.433564 
L 255.557599 172.42248 
L 255.557599 172.42248 
L 255.849292 172.636488 
L 255.849292 172.636488 
L 256.140985 175.43396 
L 256.140985 175.43396 
L 256.432678 174.931553 
L 256.432678 174.931553 
L 256.724371 175.801195 
L 257.016065 177.274246 
L 257.016065 177.274246 
L 257.307758 177.675954 
L 257.307758 177.675954 
L 257.599451 179.941595 
L 257.599451 179.941595 
L 257.891144 179.499305 
L 257.891144 179.499305 
L 258.182838 180.249771 
L 258.182838 180.249771 
L 258.474531 181.603888 
L 258.474531 181.603888 
L 258.766224 181.797666 
L 258.766224 181.797666 
L 259.057917 183.574326 
L 259.057917 183.574326 
L 259.34961 183.114225 
L 259.34961 183.114225 
L 259.641304 183.640643 
L 259.641304 183.640643 
L 259.932997 184.964913 
L 259.932997 184.964913 
L 260.22469 184.890492 
L 260.22469 184.890492 
L 260.516383 186.429345 
L 260.516383 186.429345 
L 260.808076 186.131995 
L 260.808076 186.131995 
L 261.09977 186.342405 
L 261.09977 186.342405 
L 261.391463 187.354356 
L 261.391463 187.354356 
L 261.683156 187.142949 
L 261.683156 187.142949 
L 261.974849 187.393638 
L 261.974849 187.393638 
L 262.266543 188.272171 
L 262.266543 188.272171 
L 262.558236 188.084773 
L 262.558236 188.084773 
L 263.141622 188.841318 
L 263.141622 188.841318 
L 263.433315 188.808114 
L 263.433315 188.808114 
L 263.725009 188.94235 
L 263.725009 188.94235 
L 264.016702 189.483041 
L 264.016702 189.483041 
L 264.308395 189.348564 
L 264.308395 189.348564 
L 264.600088 189.540557 
L 264.600088 189.540557 
L 264.891781 189.869478 
L 264.891781 189.869478 
L 265.183475 189.790249 
L 265.183475 189.790249 
L 266.350247 190.137374 
L 266.350247 190.137374 
L 266.641941 190.133473 
L 266.641941 190.133473 
L 267.225327 190.280379 
L 267.225327 190.280379 
L 267.808714 190.213609 
L 267.808714 190.213609 
L 268.100407 190.34724 
L 268.100407 190.34724 
L 268.683793 190.32462 
L 268.683793 190.32462 
L 269.26718 190.402155 
L 269.26718 190.402155 
L 269.558873 190.221411 
L 269.558873 190.221411 
L 270.142259 190.407266 
L 270.142259 190.407266 
L 270.433952 190.307655 
L 270.433952 190.307655 
L 271.017339 190.402367 
L 271.017339 190.402367 
L 271.309032 190.089171 
L 271.309032 190.089171 
L 271.600725 190.295015 
L 271.600725 190.295015 
L 272.767498 189.936127 
L 272.767498 189.936127 
L 273.059191 189.512162 
L 273.059191 189.512162 
L 273.350885 189.525861 
L 273.350885 189.525861 
L 273.642578 188.35518 
L 273.642578 188.35518 
L 273.934271 188.726496 
L 273.934271 188.726496 
L 274.225964 188.671792 
L 274.225964 188.671792 
L 274.517657 186.813786 
L 274.517657 186.813786 
L 274.809351 187.378911 
L 274.809351 187.378911 
L 275.101044 187.645537 
L 275.101044 187.645537 
L 275.392737 187.300378 
L 275.392737 187.300378 
L 275.68443 185.049645 
L 275.68443 185.049645 
L 276.267817 186.124617 
L 276.267817 186.124617 
L 276.55951 185.806855 
L 276.55951 185.806855 
L 276.851203 185.182731 
L 276.851203 185.182731 
L 277.142896 182.888604 
L 277.142896 182.888604 
L 277.43459 183.57224 
L 277.43459 183.57224 
L 277.726283 183.957044 
L 278.017976 183.271352 
L 278.017976 183.271352 
L 278.309669 179.187258 
L 278.309669 179.187258 
L 278.893056 181.180074 
L 278.893056 181.180074 
L 279.184749 180.571918 
L 279.184749 180.571918 
L 279.476442 175.250373 
L 279.476442 175.250373 
L 280.059828 177.948295 
L 280.059828 177.948295 
L 280.351522 176.771445 
L 280.351522 176.771445 
L 280.643215 171.119317 
L 280.643215 171.119317 
L 280.934908 172.93541 
L 280.934908 172.93541 
L 281.226601 173.755882 
L 281.226601 173.755882 
L 281.518295 171.998303 
L 281.518295 171.998303 
L 281.809988 167.409444 
L 281.809988 167.409444 
L 282.101681 169.424667 
L 282.101681 169.424667 
L 282.393374 167.771326 
L 282.685067 161.333169 
L 282.685067 161.333169 
L 282.976761 163.780674 
L 282.976761 163.780674 
L 283.268454 162.538777 
L 283.560147 154.863835 
L 283.560147 154.863835 
L 283.85184 157.484555 
L 283.85184 157.484555 
L 284.143533 156.203376 
L 284.143533 156.203376 
L 284.435227 150.007563 
L 284.435227 150.007563 
L 284.72692 150.793138 
L 284.72692 150.793138 
L 285.018613 148.941452 
L 285.018613 148.941452 
L 285.310306 145.173518 
L 285.310306 145.173518 
L 285.602 143.526164 
L 285.893693 142.900831 
L 285.893693 142.900831 
L 286.185386 143.512011 
L 286.185386 143.512011 
L 286.477079 142.210693 
L 286.477079 142.210693 
L 286.768772 144.064738 
L 286.768772 144.064738 
L 287.060466 148.170695 
L 287.060466 148.170695 
L 287.352159 147.65471 
L 287.352159 147.65471 
L 287.643852 149.266532 
L 287.643852 149.266532 
L 287.935545 151.895295 
L 287.935545 151.895295 
L 288.227238 152.221283 
L 288.227238 152.221283 
L 288.518932 155.950449 
L 288.810625 154.839825 
L 288.810625 154.839825 
L 289.102318 156.014588 
L 289.102318 156.014588 
L 289.394011 158.021647 
L 289.394011 158.021647 
L 289.685704 157.943235 
L 289.685704 157.943235 
L 289.977398 160.547957 
L 289.977398 160.547957 
L 290.269091 159.859634 
L 290.269091 159.859634 
L 290.560784 160.318799 
L 290.560784 160.318799 
L 290.852477 161.695777 
L 290.852477 161.695777 
L 291.144171 161.545545 
L 291.144171 161.545545 
L 291.435864 162.992771 
L 291.435864 162.992771 
L 291.727557 162.805645 
L 291.727557 162.805645 
L 292.01925 163.00904 
L 292.01925 163.00904 
L 292.310943 163.660893 
L 292.310943 163.660893 
L 292.602637 163.576161 
L 292.602637 163.576161 
L 292.89433 163.701596 
L 292.89433 163.701596 
L 293.186023 164.081622 
L 293.186023 164.081622 
L 293.477716 164.114372 
L 293.477716 164.114372 
L 294.352796 164.533257 
L 294.352796 164.533257 
L 294.644489 164.478885 
L 294.644489 164.478885 
L 295.227876 164.539184 
L 295.227876 164.539184 
L 295.811262 164.52104 
L 295.811262 164.52104 
L 296.394648 164.628996 
L 296.394648 164.628996 
L 296.686342 164.477857 
L 296.686342 164.477857 
L 296.978035 164.533589 
L 296.978035 164.533589 
L 297.269728 164.464249 
L 297.269728 164.464249 
L 297.561421 164.57272 
L 297.561421 164.57272 
L 297.853114 164.34843 
L 297.853114 164.34843 
L 298.436501 164.243709 
L 298.436501 164.243709 
L 298.728194 163.740182 
L 298.728194 163.740182 
L 299.019887 163.92631 
L 299.019887 163.92631 
L 299.603274 163.312528 
L 299.603274 163.312528 
L 299.894967 163.458557 
L 299.894967 163.458557 
L 300.478353 162.485343 
L 300.478353 162.485343 
L 300.770047 162.620032 
L 300.770047 162.620032 
L 301.06174 161.012958 
L 301.06174 161.012958 
L 301.353433 161.474118 
L 301.353433 161.474118 
L 301.645126 161.524588 
L 301.645126 161.524588 
L 301.936819 159.84772 
L 301.936819 159.84772 
L 302.228513 160.516387 
L 302.228513 160.516387 
L 302.520206 160.30885 
L 302.520206 160.30885 
L 302.811899 158.523268 
L 302.811899 158.523268 
L 303.103592 159.299529 
L 303.103592 159.299529 
L 303.395285 158.540535 
L 303.395285 158.540535 
L 303.686979 157.402695 
L 303.686979 157.402695 
L 303.978672 157.578843 
L 303.978672 157.578843 
L 304.270365 154.927611 
L 304.270365 154.927611 
L 304.562058 155.967142 
L 304.562058 155.967142 
L 304.853752 155.473655 
L 304.853752 155.473655 
L 305.145445 153.32982 
L 305.145445 153.32982 
L 305.437138 154.058604 
L 305.437138 154.058604 
L 305.728831 153.159448 
L 305.728831 153.159448 
L 306.020524 151.721536 
L 306.020524 151.721536 
L 306.312218 151.810019 
L 306.312218 151.810019 
L 306.603911 148.523989 
L 306.603911 148.523989 
L 306.895604 149.631196 
L 306.895604 149.631196 
L 307.187297 149.135109 
L 307.187297 149.135109 
L 307.47899 146.380941 
L 307.47899 146.380941 
L 307.770684 147.073195 
L 307.770684 147.073195 
L 308.062377 146.038896 
L 308.062377 146.038896 
L 308.35407 144.292022 
L 308.35407 144.292022 
L 308.645763 143.629101 
L 308.645763 143.629101 
L 308.937457 141.01951 
L 308.937457 141.01951 
L 309.22915 140.828363 
L 309.22915 140.828363 
L 309.520843 137.694894 
L 309.520843 137.694894 
L 309.812536 137.640008 
L 309.812536 137.640008 
L 310.104229 134.347175 
L 310.104229 134.347175 
L 310.395923 134.211306 
L 310.395923 134.211306 
L 310.687616 130.576851 
L 310.979309 130.296466 
L 310.979309 130.296466 
L 311.271002 126.615502 
L 311.271002 126.615502 
L 311.562695 126.284646 
L 311.562695 126.284646 
L 311.854389 122.306725 
L 311.854389 122.306725 
L 312.146082 122.084613 
L 312.146082 122.084613 
L 312.437775 117.696849 
L 312.437775 117.696849 
L 312.729468 117.645925 
L 312.729468 117.645925 
L 313.021161 113.861177 
L 313.021161 113.861177 
L 313.312855 112.87363 
L 313.312855 112.87363 
L 313.896241 108.432644 
L 313.896241 108.432644 
L 319.438412 72.748597 
L 319.438412 72.748597 
L 322.355344 53.568 
L 322.355344 53.568 
L 342.190483 53.568 
L 342.190483 53.568 
L 342.482176 54.433106 
L 342.773869 56.800081 
L 342.773869 56.800081 
L 343.357256 65.272241 
L 343.357256 65.272241 
L 343.648949 65.557827 
L 343.648949 65.557827 
L 344.524028 75.451539 
L 344.524028 75.451539 
L 344.815722 76.180141 
L 344.815722 76.180141 
L 345.399108 81.124805 
L 345.399108 81.124805 
L 345.690801 84.792947 
L 345.690801 84.792947 
L 345.982494 85.156492 
L 345.982494 85.156492 
L 346.565881 90.080865 
L 346.565881 90.080865 
L 346.857574 93.415006 
L 346.857574 93.415006 
L 347.149267 92.813079 
L 347.149267 92.813079 
L 347.440961 94.933054 
L 347.440961 94.933054 
L 347.732654 98.010156 
L 347.732654 98.010156 
L 348.024347 97.654805 
L 348.024347 97.654805 
L 348.31604 99.463218 
L 348.31604 99.463218 
L 348.607733 102.149346 
L 348.607733 102.149346 
L 348.899427 101.894423 
L 348.899427 101.894423 
L 349.482813 106.113115 
L 349.482813 106.113115 
L 349.774506 105.656823 
L 349.774506 105.656823 
L 350.066199 107.581055 
L 350.066199 107.581055 
L 350.357893 108.025674 
L 350.357893 108.025674 
L 350.649586 109.096775 
L 350.649586 109.096775 
L 350.941279 111.33024 
L 350.941279 111.33024 
L 351.232972 111.308014 
L 351.232972 111.308014 
L 351.524666 112.673652 
L 351.524666 112.673652 
L 351.816359 115.099838 
L 351.816359 115.099838 
L 352.108052 114.468185 
L 352.108052 114.468185 
L 352.399745 116.44836 
L 352.399745 116.44836 
L 352.691438 116.603401 
L 352.691438 116.603401 
L 352.983132 117.887694 
L 352.983132 117.887694 
L 353.274825 120.496801 
L 353.274825 120.496801 
L 353.566518 119.748512 
L 353.566518 119.748512 
L 353.858211 121.932899 
L 353.858211 121.932899 
L 354.149904 121.920742 
L 354.149904 121.920742 
L 354.441598 123.536707 
L 354.441598 123.536707 
L 354.733291 124.139542 
L 354.733291 124.139542 
L 355.024984 125.335171 
L 355.024984 125.335171 
L 355.316677 128.134911 
L 355.316677 128.134911 
L 355.60837 127.515324 
L 355.60837 127.515324 
L 355.900064 129.981002 
L 355.900064 129.981002 
L 356.191757 129.901622 
L 356.191757 129.901622 
L 356.48345 131.959636 
L 356.48345 131.959636 
L 356.775143 132.384871 
L 356.775143 132.384871 
L 357.066837 134.191922 
L 357.066837 134.191922 
L 357.35853 134.984936 
L 357.35853 134.984936 
L 357.650223 136.312805 
L 357.650223 136.312805 
L 357.941916 140.337295 
L 357.941916 140.337295 
L 358.233609 139.055996 
L 358.233609 139.055996 
L 358.525303 142.948761 
L 358.525303 142.948761 
L 358.816996 142.10319 
L 358.816996 142.10319 
L 359.108689 145.895921 
L 359.108689 145.895921 
L 359.400382 145.156946 
L 359.400382 145.156946 
L 359.692075 148.9928 
L 359.692075 148.9928 
L 359.983769 148.333144 
L 359.983769 148.333144 
L 360.275462 152.246987 
L 360.275462 152.246987 
L 360.567155 151.364341 
L 360.567155 151.364341 
L 360.858848 155.642727 
L 360.858848 155.642727 
L 361.150542 154.546194 
L 361.150542 154.546194 
L 361.442235 159.000244 
L 361.442235 159.000244 
L 361.733928 157.714983 
L 362.609008 162.147351 
L 362.609008 162.147351 
L 362.900701 164.521886 
L 362.900701 164.521886 
L 363.192394 165.039474 
L 363.192394 165.039474 
L 363.484087 167.747073 
L 363.484087 167.747073 
L 363.77578 167.591942 
L 363.77578 167.591942 
L 364.067474 170.852207 
L 364.067474 170.852207 
L 364.359167 170.046976 
L 364.359167 170.046976 
L 364.65086 171.129538 
L 364.65086 171.129538 
L 364.942553 172.968463 
L 364.942553 172.968463 
L 365.234247 173.427566 
L 365.234247 173.427566 
L 365.52594 175.746067 
L 365.52594 175.746067 
L 365.817633 175.501274 
L 365.817633 175.501274 
L 366.109326 178.3256 
L 366.109326 178.3256 
L 366.401019 177.643657 
L 366.401019 177.643657 
L 366.692713 178.138535 
L 366.692713 178.138535 
L 366.984406 180.024362 
L 366.984406 180.024362 
L 367.276099 179.92581 
L 367.276099 179.92581 
L 367.567792 182.480122 
L 367.567792 182.480122 
L 367.859485 181.874203 
L 367.859485 181.874203 
L 368.151179 182.209897 
L 368.151179 182.209897 
L 368.442872 184.016375 
L 368.442872 184.016375 
L 368.734565 183.530871 
L 368.734565 183.530871 
L 369.026258 184.148493 
L 369.026258 184.148493 
L 369.317951 185.596596 
L 369.317951 185.596596 
L 369.609645 185.494355 
L 369.609645 185.494355 
L 369.901338 187.357895 
L 369.901338 187.357895 
L 370.193031 186.9717 
L 370.193031 186.9717 
L 370.484724 187.174791 
L 370.484724 187.174791 
L 370.776418 188.490897 
L 370.776418 188.490897 
L 371.068111 188.192035 
L 371.068111 188.192035 
L 371.359804 188.511188 
L 371.359804 188.511188 
L 371.651497 189.45643 
L 371.651497 189.45643 
L 371.94319 189.418539 
L 371.94319 189.418539 
L 372.234884 189.601007 
L 372.234884 189.601007 
L 372.526577 190.323864 
L 372.526577 190.323864 
L 372.81827 190.390664 
L 372.81827 190.390664 
L 373.109963 190.828963 
L 373.109963 190.828963 
L 373.69335 190.878314 
L 373.69335 190.878314 
L 374.276736 191.160665 
L 374.276736 191.160665 
L 374.568429 191.143731 
L 374.568429 191.143731 
L 375.151816 191.26584 
L 375.151816 191.26584 
L 375.735202 191.236326 
L 375.735202 191.236326 
L 376.318589 191.299225 
L 376.318589 191.299225 
L 376.610282 191.214765 
L 376.610282 191.214765 
L 377.193668 191.27597 
L 377.193668 191.27597 
L 377.485361 190.959327 
L 377.485361 190.959327 
L 377.777055 191.17137 
L 377.777055 191.17137 
L 378.068748 191.18141 
L 378.068748 191.18141 
L 378.360441 190.413888 
L 378.360441 190.413888 
L 378.652134 190.857781 
L 378.652134 190.857781 
L 378.943827 190.894523 
L 378.943827 190.894523 
L 379.235521 189.568862 
L 379.235521 189.568862 
L 379.527214 190.12304 
L 379.527214 190.12304 
L 379.818907 190.272093 
L 380.1106 189.846253 
L 380.1106 189.846253 
L 380.402294 188.693958 
L 380.402294 188.693958 
L 380.693987 189.218804 
L 380.693987 189.218804 
L 380.98568 188.650443 
L 380.98568 188.650443 
L 381.277373 186.762711 
L 381.277373 186.762711 
L 381.569066 187.527511 
L 381.86076 187.005387 
L 381.86076 187.005387 
L 382.152453 184.134673 
L 382.152453 184.134673 
L 382.444146 185.136222 
L 382.444146 185.136222 
L 382.735839 184.568315 
L 382.735839 184.568315 
L 383.027532 180.69312 
L 383.027532 180.69312 
L 383.319226 182.044394 
L 383.319226 182.044394 
L 383.610919 181.189721 
L 383.610919 181.189721 
L 383.902612 176.762796 
L 383.902612 176.762796 
L 384.194305 178.107569 
L 384.194305 178.107569 
L 384.485999 176.252255 
L 384.485999 176.252255 
L 384.777692 172.933324 
L 384.777692 172.933324 
L 385.069385 172.332304 
L 385.069385 172.332304 
L 385.361078 165.717183 
L 385.361078 165.717183 
L 385.652771 167.458977 
L 385.652771 167.458977 
L 385.944465 164.847178 
L 385.944465 164.847178 
L 386.236158 159.823498 
L 386.236158 159.823498 
L 386.527851 159.481544 
L 386.527851 159.481544 
L 386.819544 156.339245 
L 386.819544 156.339245 
L 387.111237 154.593883 
L 387.402931 153.625598 
L 387.402931 153.625598 
L 387.694624 159.045362 
L 387.694624 159.045362 
L 387.986317 157.21808 
L 387.986317 157.21808 
L 388.27801 158.638301 
L 388.27801 158.638301 
L 388.569704 164.254867 
L 388.569704 164.254867 
L 388.861397 163.328676 
L 388.861397 163.328676 
L 389.15309 165.160011 
L 389.15309 165.160011 
L 389.444783 167.871329 
L 389.444783 167.871329 
L 389.736476 169.478918 
L 389.736476 169.478918 
L 390.02817 171.992981 
L 390.02817 171.992981 
L 390.319863 173.233123 
L 390.319863 173.233123 
L 390.903249 177.636974 
L 390.903249 177.636974 
L 391.194942 177.668908 
L 391.194942 177.668908 
L 391.486636 179.469004 
L 391.486636 179.469004 
L 391.778329 179.223486 
L 392.361715 179.771495 
L 392.361715 179.771495 
L 392.653408 180.732613 
L 392.653408 180.732613 
L 393.528488 180.635664 
L 393.528488 180.635664 
L 394.403568 180.97163 
L 394.403568 180.97163 
L 394.695261 181.41894 
L 394.695261 181.41894 
L 395.278647 181.404001 
L 395.278647 181.404001 
L 396.153727 181.313281 
L 396.153727 181.313281 
L 396.737113 181.375425 
L 396.737113 181.375425 
L 397.028807 181.291176 
L 397.028807 181.291176 
L 397.3205 181.408386 
L 397.3205 181.408386 
L 398.19558 181.36596 
L 398.19558 181.36596 
L 398.487273 181.085877 
L 398.487273 181.085877 
" clip-path="url(#p32e3c4a18b)" style="fill: none; stroke: #ff7f0e; stroke-width: 1.5; stroke-linecap: square"/>
   </g>
   <g id="patch_3">
    <path d="M 57.6 307.584 
L 57.6 41.472 
" style="fill: none; stroke: #000000; stroke-width: 0.8; stroke-linejoin: miter; stroke-linecap: square"/>
   </g>
   <g id="patch_4">
    <path d="M 414.72 307.584 
L 414.72 41.472 
" style="fill: none; stroke: #000000; stroke-width: 0.8; stroke-linejoin: miter; stroke-linecap: square"/>
   </g>
   <g id="patch_5">
    <path d="M 57.6 307.584 
L 414.72 307.584 
" style="fill: none; stroke: #000000; stroke-width: 0.8; stroke-linejoin: miter; stroke-linecap: square"/>
   </g>
   <g id="patch_6">
    <path d="M 57.6 41.472 
L 414.72 41.472 
" style="fill: none; stroke: #000000; stroke-width: 0.8; stroke-linejoin: miter; stroke-linecap: square"/>
   </g>
   <g id="text_17">
    <!-- Actual speed vs Expected speed -->
    <g transform="translate(138.808125 35.472) scale(0.12 -0.12)">
     <defs>
      <path id="DejaVuSans-41" d="M 2188 4044 
L 1331 1722 
L 3047 1722 
L 2188 4044 
z
M 1831 4666 
L 2547 4666 
L 4325 0 
L 3669 0 
L 3244 1197 
L 1141 1197 
L 716 0 
L 50 0 
L 1831 4666 
z
" transform="scale(0.015625)"/>
      <path id="DejaVuSans-75" d="M 544 1381 
L 544 3500 
L 1119 3500 
L 1119 1403 
Q 1119 906 1312 657 
Q 1506 409 1894 409 
Q 2359 409 2629 706 
Q 2900 1003 2900 1516 
L 2900 3500 
L 3475 3500 
L 3475 0 
L 2900 0 
L 2900 538 
Q 2691 219 2414 64 
Q 2138 -91 1772 -91 
Q 1169 -91 856 284 
Q 544 659 544 1381 
z
M 1991 3584 
L 1991 3584 
z
" transform="scale(0.015625)"/>
      <path id="DejaVuSans-61" d="M 2194 1759 
Q 1497 1759 1228 1600 
Q 959 1441 959 1056 
Q 959 750 1161 570 
Q 1363 391 1709 391 
Q 2188 391 2477 730 
Q 2766 1069 2766 1631 
L 2766 1759 
L 2194 1759 
z
M 3341 1997 
L 3341 0 
L 2766 0 
L 2766 531 
Q 2569 213 2275 61 
Q 1981 -91 1556 -91 
Q 1019 -91 701 211 
Q 384 513 384 1019 
Q 384 1609 779 1909 
Q 1175 2209 1959 2209 
L 2766 2209 
L 2766 2266 
Q 2766 2663 2505 2880 
Q 2244 3097 1772 3097 
Q 1472 3097 1187 3025 
Q 903 2953 641 2809 
L 641 3341 
Q 956 3463 1253 3523 
Q 1550 3584 1831 3584 
Q 2591 3584 2966 3190 
Q 3341 2797 3341 1997 
z
" transform="scale(0.015625)"/>
      <path id="DejaVuSans-20" transform="scale(0.015625)"/>
      <path id="DejaVuSans-70" d="M 1159 525 
L 1159 -1331 
L 581 -1331 
L 581 3500 
L 1159 3500 
L 1159 2969 
Q 1341 3281 1617 3432 
Q 1894 3584 2278 3584 
Q 2916 3584 3314 3078 
Q 3713 2572 3713 1747 
Q 3713 922 3314 415 
Q 2916 -91 2278 -91 
Q 1894 -91 1617 61 
Q 1341 213 1159 525 
z
M 3116 1747 
Q 3116 2381 2855 2742 
Q 2594 3103 2138 3103 
Q 1681 3103 1420 2742 
Q 1159 2381 1159 1747 
Q 1159 1113 1420 752 
Q 1681 391 2138 391 
Q 2594 391 2855 752 
Q 3116 1113 3116 1747 
z
" transform="scale(0.015625)"/>
      <path id="DejaVuSans-64" d="M 2906 2969 
L 2906 4863 
L 3481 4863 
L 3481 0 
L 2906 0 
L 2906 525 
Q 2725 213 2448 61 
Q 2172 -91 1784 -91 
Q 1150 -91 751 415 
Q 353 922 353 1747 
Q 353 2572 751 3078 
Q 1150 3584 1784 3584 
Q 2172 3584 2448 3432 
Q 2725 3281 2906 2969 
z
M 947 1747 
Q 947 1113 1208 752 
Q 1469 391 1925 391 
Q 2381 391 2643 752 
Q 2906 1113 2906 1747 
Q 2906 2381 2643 2742 
Q 2381 3103 1925 3103 
Q 1469 3103 1208 2742 
Q 947 2381 947 1747 
z
" transform="scale(0.015625)"/>
      <path id="DejaVuSans-76" d="M 191 3500 
L 800 3500 
L 1894 563 
L 2988 3500 
L 3597 3500 
L 2284 0 
L 1503 0 
L 191 3500 
z
" transform="scale(0.015625)"/>
      <path id="DejaVuSans-45" d="M 628 4666 
L 3578 4666 
L 3578 4134 
L 1259 4134 
L 1259 2753 
L 3481 2753 
L 3481 2222 
L 1259 2222 
L 1259 531 
L 3634 531 
L 3634 0 
L 628 0 
L 628 4666 
z
" transform="scale(0.015625)"/>
      <path id="DejaVuSans-78" d="M 3513 3500 
L 2247 1797 
L 3578 0 
L 2900 0 
L 1881 1375 
L 863 0 
L 184 0 
L 1544 1831 
L 300 3500 
L 978 3500 
L 1906 2253 
L 2834 3500 
L 3513 3500 
z
" transform="scale(0.015625)"/>
     </defs>
     <use xlink:href="#DejaVuSans-41"/>
     <use xlink:href="#DejaVuSans-63" x="66.658203"/>
     <use xlink:href="#DejaVuSans-74" x="121.638672"/>
     <use xlink:href="#DejaVuSans-75" x="160.847656"/>
     <use xlink:href="#DejaVuSans-61" x="224.226562"/>
     <use xlink:href="#DejaVuSans-6c" x="285.505859"/>
     <use xlink:href="#DejaVuSans-20" x="313.289062"/>
     <use xlink:href="#DejaVuSans-73" x="345.076172"/>
     <use xlink:href="#DejaVuSans-70" x="397.175781"/>
     <use xlink:href="#DejaVuSans-65" x="460.652344"/>
     <use xlink:href="#DejaVuSans-65" x="522.175781"/>
     <use xlink:href="#DejaVuSans-64" x="583.699219"/>
     <use xlink:href="#DejaVuSans-20" x="647.175781"/>
     <use xlink:href="#DejaVuSans-76" x="678.962891"/>
     <use xlink:href="#DejaVuSans-73" x="738.142578"/>
     <use xlink:href="#DejaVuSans-20" x="790.242188"/>
     <use xlink:href="#DejaVuSans-45" x="822.029297"/>
     <use xlink:href="#DejaVuSans-78" x="885.212891"/>
     <use xlink:href="#DejaVuSans-70" x="944.392578"/>
     <use xlink:href="#DejaVuSans-65" x="1007.869141"/>
     <use xlink:href="#DejaVuSans-63" x="1069.392578"/>
     <use xlink:href="#DejaVuSans-74" x="1124.373047"/>
     <use xlink:href="#DejaVuSans-65" x="1163.582031"/>
     <use xlink:href="#DejaVuSans-64" x="1225.105469"/>
     <use xlink:href="#DejaVuSans-20" x="1288.582031"/>
     <use xlink:href="#DejaVuSans-73" x="1320.369141"/>
     <use xlink:href="#DejaVuSans-70" x="1372.46875"/>
     <use xlink:href="#DejaVuSans-65" x="1435.945312"/>
     <use xlink:href="#DejaVuSans-65" x="1497.46875"/>
     <use xlink:href="#DejaVuSans-64" x="1558.992188"/>
    </g>
   </g>
   <g id="legend_1">
    <g id="patch_7">
     <path d="M 295.67 302.584 
L 407.72 302.584 
Q 409.72 302.584 409.72 300.584 
L 409.72 272.22775 
Q 409.72 270.22775 407.72 270.22775 
L 295.67 270.22775 
Q 293.67 270.22775 293.67 272.22775 
L 293.67 300.584 
Q 293.67 302.584 295.67 302.584 
z
" style="fill: #ffffff; opacity: 0.8; stroke: #cccccc; stroke-linejoin: miter"/>
    </g>
    <g id="line2d_31">
     <path d="M 297.67 278.326187 
L 307.67 278.326187 
L 317.67 278.326187 
" style="fill: none; stroke: #1f77b4; stroke-width: 1.5; stroke-linecap: square"/>
    </g>
    <g id="text_18">
     <!-- Actual speed -->
     <g transform="translate(325.67 281.826187) scale(0.1 -0.1)">
      <use xlink:href="#DejaVuSans-41"/>
      <use xlink:href="#DejaVuSans-63" x="66.658203"/>
      <use xlink:href="#DejaVuSans-74" x="121.638672"/>
      <use xlink:href="#DejaVuSans-75" x="160.847656"/>
      <use xlink:href="#DejaVuSans-61" x="224.226562"/>
      <use xlink:href="#DejaVuSans-6c" x="285.505859"/>
      <use xlink:href="#DejaVuSans-20" x="313.289062"/>
      <use xlink:href="#DejaVuSans-73" x="345.076172"/>
      <use xlink:href="#DejaVuSans-70" x="397.175781"/>
      <use xlink:href="#DejaVuSans-65" x="460.652344"/>
      <use xlink:href="#DejaVuSans-65" x="522.175781"/>
      <use xlink:href="#DejaVuSans-64" x="583.699219"/>
     </g>
    </g>
    <g id="line2d_32">
     <path d="M 297.67 293.004312 
L 307.67 293.004312 
L 317.67 293.004312 
" style="fill: none; stroke: #ff7f0e; stroke-width: 1.5; stroke-linecap: square"/>
    </g>
    <g id="text_19">
     <!-- Expected speed -->
     <g transform="translate(325.67 296.504312) scale(0.1 -0.1)">
      <use xlink:href="#DejaVuSans-45"/>
      <use xlink:href="#DejaVuSans-78" x="63.183594"/>
      <use xlink:href="#DejaVuSans-70" x="122.363281"/>
      <use xlink:href="#DejaVuSans-65" x="185.839844"/>
      <use xlink:href="#DejaVuSans-63" x="247.363281"/>
      <use xlink:href="#DejaVuSans-74" x="302.34375"/>
      <use xlink:href="#DejaVuSans-65" x="341.552734"/>
      <use xlink:href="#DejaVuSans-64" x="403.076172"/>
      <use xlink:href="#DejaVuSans-20" x="466.552734"/>
      <use xlink:href="#DejaVuSans-73" x="498.339844"/>
      <use xlink:href="#DejaVuSans-70" x="550.439453"/>
      <use xlink:href="#DejaVuSans-65" x="613.916016"/>
      <use xlink:href="#DejaVuSans-65" x="675.439453"/>
      <use xlink:href="#DejaVuSans-64" x="736.962891"/>
     </g>
    </g>
   </g>
  </g>
 </g>
 <defs>
  <clipPath id="p32e3c4a18b">
   <rect x="57.6" y="41.472" width="357.12" height="266.112"/>
  </clipPath>
 </defs>
</svg>
