<?xml version="1.0" encoding="utf-8" standalone="no"?>
<!DOCTYPE svg PUBLIC "-//W3C//DTD SVG 1.1//EN"
  "http://www.w3.org/Graphics/SVG/1.1/DTD/svg11.dtd">
<svg xmlns:xlink="http://www.w3.org/1999/xlink" width="460.8pt" height="345.6pt" viewBox="0 0 460.8 345.6" xmlns="http://www.w3.org/2000/svg" version="1.1">
 <metadata>
  <rdf:RDF xmlns:dc="http://purl.org/dc/elements/1.1/" xmlns:cc="http://creativecommons.org/ns#" xmlns:rdf="http://www.w3.org/1999/02/22-rdf-syntax-ns#">
   <cc:Work>
    <dc:type rdf:resource="http://purl.org/dc/dcmitype/StillImage"/>
    <dc:date>2024-01-30T20:59:12.551682</dc:date>
    <dc:format>image/svg+xml</dc:format>
    <dc:creator>
     <cc:Agent>
      <dc:title>Matplotlib v3.7.1, https://matplotlib.org/</dc:title>
     </cc:Agent>
    </dc:creator>
   </cc:Work>
  </rdf:RDF>
 </metadata>
 <defs>
  <style type="text/css">*{stroke-linejoin: round; stroke-linecap: butt}</style>
 </defs>
 <g id="figure_1">
  <g id="patch_1">
   <path d="M 0 345.6 
L 460.8 345.6 
L 460.8 0 
L 0 0 
z
" style="fill: #ffffff"/>
  </g>
  <g id="axes_1">
   <g id="patch_2">
    <path d="M 57.6 307.584 
L 414.72 307.584 
L 414.72 41.472 
L 57.6 41.472 
z
" style="fill: #ffffff"/>
   </g>
   <g id="matplotlib.axis_1">
    <g id="xtick_1">
     <g id="line2d_1">
      <path d="M 73.832727 307.584 
L 73.832727 41.472 
" clip-path="url(#p5a02d1df4f)" style="fill: none; stroke: #b0b0b0; stroke-width: 0.8; stroke-linecap: square"/>
     </g>
     <g id="line2d_2">
      <defs>
       <path id="m2df975677b" d="M 0 0 
L 0 3.5 
" style="stroke: #000000; stroke-width: 0.8"/>
      </defs>
      <g>
       <use xlink:href="#m2df975677b" x="73.832727" y="307.584" style="stroke: #000000; stroke-width: 0.8"/>
      </g>
     </g>
     <g id="text_1">
      <!-- 0 -->
      <g transform="translate(70.651477 322.182437) scale(0.1 -0.1)">
       <defs>
        <path id="DejaVuSans-30" d="M 2034 4250 
Q 1547 4250 1301 3770 
Q 1056 3291 1056 2328 
Q 1056 1369 1301 889 
Q 1547 409 2034 409 
Q 2525 409 2770 889 
Q 3016 1369 3016 2328 
Q 3016 3291 2770 3770 
Q 2525 4250 2034 4250 
z
M 2034 4750 
Q 2819 4750 3233 4129 
Q 3647 3509 3647 2328 
Q 3647 1150 3233 529 
Q 2819 -91 2034 -91 
Q 1250 -91 836 529 
Q 422 1150 422 2328 
Q 422 3509 836 4129 
Q 1250 4750 2034 4750 
z
" transform="scale(0.015625)"/>
       </defs>
       <use xlink:href="#DejaVuSans-30"/>
      </g>
     </g>
    </g>
    <g id="xtick_2">
     <g id="line2d_3">
      <path d="M 131.93125 307.584 
L 131.93125 41.472 
" clip-path="url(#p5a02d1df4f)" style="fill: none; stroke: #b0b0b0; stroke-width: 0.8; stroke-linecap: square"/>
     </g>
     <g id="line2d_4">
      <g>
       <use xlink:href="#m2df975677b" x="131.93125" y="307.584" style="stroke: #000000; stroke-width: 0.8"/>
      </g>
     </g>
     <g id="text_2">
      <!-- 5 -->
      <g transform="translate(128.75 322.182437) scale(0.1 -0.1)">
       <defs>
        <path id="DejaVuSans-35" d="M 691 4666 
L 3169 4666 
L 3169 4134 
L 1269 4134 
L 1269 2991 
Q 1406 3038 1543 3061 
Q 1681 3084 1819 3084 
Q 2600 3084 3056 2656 
Q 3513 2228 3513 1497 
Q 3513 744 3044 326 
Q 2575 -91 1722 -91 
Q 1428 -91 1123 -41 
Q 819 9 494 109 
L 494 744 
Q 775 591 1075 516 
Q 1375 441 1709 441 
Q 2250 441 2565 725 
Q 2881 1009 2881 1497 
Q 2881 1984 2565 2268 
Q 2250 2553 1709 2553 
Q 1456 2553 1204 2497 
Q 953 2441 691 2322 
L 691 4666 
z
" transform="scale(0.015625)"/>
       </defs>
       <use xlink:href="#DejaVuSans-35"/>
      </g>
     </g>
    </g>
    <g id="xtick_3">
     <g id="line2d_5">
      <path d="M 190.029773 307.584 
L 190.029773 41.472 
" clip-path="url(#p5a02d1df4f)" style="fill: none; stroke: #b0b0b0; stroke-width: 0.8; stroke-linecap: square"/>
     </g>
     <g id="line2d_6">
      <g>
       <use xlink:href="#m2df975677b" x="190.029773" y="307.584" style="stroke: #000000; stroke-width: 0.8"/>
      </g>
     </g>
     <g id="text_3">
      <!-- 10 -->
      <g transform="translate(183.667273 322.182437) scale(0.1 -0.1)">
       <defs>
        <path id="DejaVuSans-31" d="M 794 531 
L 1825 531 
L 1825 4091 
L 703 3866 
L 703 4441 
L 1819 4666 
L 2450 4666 
L 2450 531 
L 3481 531 
L 3481 0 
L 794 0 
L 794 531 
z
" transform="scale(0.015625)"/>
       </defs>
       <use xlink:href="#DejaVuSans-31"/>
       <use xlink:href="#DejaVuSans-30" x="63.623047"/>
      </g>
     </g>
    </g>
    <g id="xtick_4">
     <g id="line2d_7">
      <path d="M 248.128296 307.584 
L 248.128296 41.472 
" clip-path="url(#p5a02d1df4f)" style="fill: none; stroke: #b0b0b0; stroke-width: 0.8; stroke-linecap: square"/>
     </g>
     <g id="line2d_8">
      <g>
       <use xlink:href="#m2df975677b" x="248.128296" y="307.584" style="stroke: #000000; stroke-width: 0.8"/>
      </g>
     </g>
     <g id="text_4">
      <!-- 15 -->
      <g transform="translate(241.765796 322.182437) scale(0.1 -0.1)">
       <use xlink:href="#DejaVuSans-31"/>
       <use xlink:href="#DejaVuSans-35" x="63.623047"/>
      </g>
     </g>
    </g>
    <g id="xtick_5">
     <g id="line2d_9">
      <path d="M 306.226819 307.584 
L 306.226819 41.472 
" clip-path="url(#p5a02d1df4f)" style="fill: none; stroke: #b0b0b0; stroke-width: 0.8; stroke-linecap: square"/>
     </g>
     <g id="line2d_10">
      <g>
       <use xlink:href="#m2df975677b" x="306.226819" y="307.584" style="stroke: #000000; stroke-width: 0.8"/>
      </g>
     </g>
     <g id="text_5">
      <!-- 20 -->
      <g transform="translate(299.864319 322.182437) scale(0.1 -0.1)">
       <defs>
        <path id="DejaVuSans-32" d="M 1228 531 
L 3431 531 
L 3431 0 
L 469 0 
L 469 531 
Q 828 903 1448 1529 
Q 2069 2156 2228 2338 
Q 2531 2678 2651 2914 
Q 2772 3150 2772 3378 
Q 2772 3750 2511 3984 
Q 2250 4219 1831 4219 
Q 1534 4219 1204 4116 
Q 875 4013 500 3803 
L 500 4441 
Q 881 4594 1212 4672 
Q 1544 4750 1819 4750 
Q 2544 4750 2975 4387 
Q 3406 4025 3406 3419 
Q 3406 3131 3298 2873 
Q 3191 2616 2906 2266 
Q 2828 2175 2409 1742 
Q 1991 1309 1228 531 
z
" transform="scale(0.015625)"/>
       </defs>
       <use xlink:href="#DejaVuSans-32"/>
       <use xlink:href="#DejaVuSans-30" x="63.623047"/>
      </g>
     </g>
    </g>
    <g id="xtick_6">
     <g id="line2d_11">
      <path d="M 364.325341 307.584 
L 364.325341 41.472 
" clip-path="url(#p5a02d1df4f)" style="fill: none; stroke: #b0b0b0; stroke-width: 0.8; stroke-linecap: square"/>
     </g>
     <g id="line2d_12">
      <g>
       <use xlink:href="#m2df975677b" x="364.325341" y="307.584" style="stroke: #000000; stroke-width: 0.8"/>
      </g>
     </g>
     <g id="text_6">
      <!-- 25 -->
      <g transform="translate(357.962841 322.182437) scale(0.1 -0.1)">
       <use xlink:href="#DejaVuSans-32"/>
       <use xlink:href="#DejaVuSans-35" x="63.623047"/>
      </g>
     </g>
    </g>
    <g id="text_7">
     <!-- Time(s) -->
     <g transform="translate(217.420156 335.860562) scale(0.1 -0.1)">
      <defs>
       <path id="DejaVuSans-54" d="M -19 4666 
L 3928 4666 
L 3928 4134 
L 2272 4134 
L 2272 0 
L 1638 0 
L 1638 4134 
L -19 4134 
L -19 4666 
z
" transform="scale(0.015625)"/>
       <path id="DejaVuSans-69" d="M 603 3500 
L 1178 3500 
L 1178 0 
L 603 0 
L 603 3500 
z
M 603 4863 
L 1178 4863 
L 1178 4134 
L 603 4134 
L 603 4863 
z
" transform="scale(0.015625)"/>
       <path id="DejaVuSans-6d" d="M 3328 2828 
Q 3544 3216 3844 3400 
Q 4144 3584 4550 3584 
Q 5097 3584 5394 3201 
Q 5691 2819 5691 2113 
L 5691 0 
L 5113 0 
L 5113 2094 
Q 5113 2597 4934 2840 
Q 4756 3084 4391 3084 
Q 3944 3084 3684 2787 
Q 3425 2491 3425 1978 
L 3425 0 
L 2847 0 
L 2847 2094 
Q 2847 2600 2669 2842 
Q 2491 3084 2119 3084 
Q 1678 3084 1418 2786 
Q 1159 2488 1159 1978 
L 1159 0 
L 581 0 
L 581 3500 
L 1159 3500 
L 1159 2956 
Q 1356 3278 1631 3431 
Q 1906 3584 2284 3584 
Q 2666 3584 2933 3390 
Q 3200 3197 3328 2828 
z
" transform="scale(0.015625)"/>
       <path id="DejaVuSans-65" d="M 3597 1894 
L 3597 1613 
L 953 1613 
Q 991 1019 1311 708 
Q 1631 397 2203 397 
Q 2534 397 2845 478 
Q 3156 559 3463 722 
L 3463 178 
Q 3153 47 2828 -22 
Q 2503 -91 2169 -91 
Q 1331 -91 842 396 
Q 353 884 353 1716 
Q 353 2575 817 3079 
Q 1281 3584 2069 3584 
Q 2775 3584 3186 3129 
Q 3597 2675 3597 1894 
z
M 3022 2063 
Q 3016 2534 2758 2815 
Q 2500 3097 2075 3097 
Q 1594 3097 1305 2825 
Q 1016 2553 972 2059 
L 3022 2063 
z
" transform="scale(0.015625)"/>
       <path id="DejaVuSans-28" d="M 1984 4856 
Q 1566 4138 1362 3434 
Q 1159 2731 1159 2009 
Q 1159 1288 1364 580 
Q 1569 -128 1984 -844 
L 1484 -844 
Q 1016 -109 783 600 
Q 550 1309 550 2009 
Q 550 2706 781 3412 
Q 1013 4119 1484 4856 
L 1984 4856 
z
" transform="scale(0.015625)"/>
       <path id="DejaVuSans-73" d="M 2834 3397 
L 2834 2853 
Q 2591 2978 2328 3040 
Q 2066 3103 1784 3103 
Q 1356 3103 1142 2972 
Q 928 2841 928 2578 
Q 928 2378 1081 2264 
Q 1234 2150 1697 2047 
L 1894 2003 
Q 2506 1872 2764 1633 
Q 3022 1394 3022 966 
Q 3022 478 2636 193 
Q 2250 -91 1575 -91 
Q 1294 -91 989 -36 
Q 684 19 347 128 
L 347 722 
Q 666 556 975 473 
Q 1284 391 1588 391 
Q 1994 391 2212 530 
Q 2431 669 2431 922 
Q 2431 1156 2273 1281 
Q 2116 1406 1581 1522 
L 1381 1569 
Q 847 1681 609 1914 
Q 372 2147 372 2553 
Q 372 3047 722 3315 
Q 1072 3584 1716 3584 
Q 2034 3584 2315 3537 
Q 2597 3491 2834 3397 
z
" transform="scale(0.015625)"/>
       <path id="DejaVuSans-29" d="M 513 4856 
L 1013 4856 
Q 1481 4119 1714 3412 
Q 1947 2706 1947 2009 
Q 1947 1309 1714 600 
Q 1481 -109 1013 -844 
L 513 -844 
Q 928 -128 1133 580 
Q 1338 1288 1338 2009 
Q 1338 2731 1133 3434 
Q 928 4138 513 4856 
z
" transform="scale(0.015625)"/>
      </defs>
      <use xlink:href="#DejaVuSans-54"/>
      <use xlink:href="#DejaVuSans-69" x="57.958984"/>
      <use xlink:href="#DejaVuSans-6d" x="85.742188"/>
      <use xlink:href="#DejaVuSans-65" x="183.154297"/>
      <use xlink:href="#DejaVuSans-28" x="244.677734"/>
      <use xlink:href="#DejaVuSans-73" x="283.691406"/>
      <use xlink:href="#DejaVuSans-29" x="335.791016"/>
     </g>
    </g>
   </g>
   <g id="matplotlib.axis_2">
    <g id="ytick_1">
     <g id="line2d_13">
      <path d="M 57.6 257.860231 
L 414.72 257.860231 
" clip-path="url(#p5a02d1df4f)" style="fill: none; stroke: #b0b0b0; stroke-width: 0.8; stroke-linecap: square"/>
     </g>
     <g id="line2d_14">
      <defs>
       <path id="m950dbc4e44" d="M 0 0 
L -3.5 0 
" style="stroke: #000000; stroke-width: 0.8"/>
      </defs>
      <g>
       <use xlink:href="#m950dbc4e44" x="57.6" y="257.860231" style="stroke: #000000; stroke-width: 0.8"/>
      </g>
     </g>
     <g id="text_8">
      <!-- 4 -->
      <g transform="translate(44.2375 261.65945) scale(0.1 -0.1)">
       <defs>
        <path id="DejaVuSans-34" d="M 2419 4116 
L 825 1625 
L 2419 1625 
L 2419 4116 
z
M 2253 4666 
L 3047 4666 
L 3047 1625 
L 3713 1625 
L 3713 1100 
L 3047 1100 
L 3047 0 
L 2419 0 
L 2419 1100 
L 313 1100 
L 313 1709 
L 2253 4666 
z
" transform="scale(0.015625)"/>
       </defs>
       <use xlink:href="#DejaVuSans-34"/>
      </g>
     </g>
    </g>
    <g id="ytick_2">
     <g id="line2d_15">
      <path d="M 57.6 206.787173 
L 414.72 206.787173 
" clip-path="url(#p5a02d1df4f)" style="fill: none; stroke: #b0b0b0; stroke-width: 0.8; stroke-linecap: square"/>
     </g>
     <g id="line2d_16">
      <g>
       <use xlink:href="#m950dbc4e44" x="57.6" y="206.787173" style="stroke: #000000; stroke-width: 0.8"/>
      </g>
     </g>
     <g id="text_9">
      <!-- 5 -->
      <g transform="translate(44.2375 210.586392) scale(0.1 -0.1)">
       <use xlink:href="#DejaVuSans-35"/>
      </g>
     </g>
    </g>
    <g id="ytick_3">
     <g id="line2d_17">
      <path d="M 57.6 155.714116 
L 414.72 155.714116 
" clip-path="url(#p5a02d1df4f)" style="fill: none; stroke: #b0b0b0; stroke-width: 0.8; stroke-linecap: square"/>
     </g>
     <g id="line2d_18">
      <g>
       <use xlink:href="#m950dbc4e44" x="57.6" y="155.714116" style="stroke: #000000; stroke-width: 0.8"/>
      </g>
     </g>
     <g id="text_10">
      <!-- 6 -->
      <g transform="translate(44.2375 159.513334) scale(0.1 -0.1)">
       <defs>
        <path id="DejaVuSans-36" d="M 2113 2584 
Q 1688 2584 1439 2293 
Q 1191 2003 1191 1497 
Q 1191 994 1439 701 
Q 1688 409 2113 409 
Q 2538 409 2786 701 
Q 3034 994 3034 1497 
Q 3034 2003 2786 2293 
Q 2538 2584 2113 2584 
z
M 3366 4563 
L 3366 3988 
Q 3128 4100 2886 4159 
Q 2644 4219 2406 4219 
Q 1781 4219 1451 3797 
Q 1122 3375 1075 2522 
Q 1259 2794 1537 2939 
Q 1816 3084 2150 3084 
Q 2853 3084 3261 2657 
Q 3669 2231 3669 1497 
Q 3669 778 3244 343 
Q 2819 -91 2113 -91 
Q 1303 -91 875 529 
Q 447 1150 447 2328 
Q 447 3434 972 4092 
Q 1497 4750 2381 4750 
Q 2619 4750 2861 4703 
Q 3103 4656 3366 4563 
z
" transform="scale(0.015625)"/>
       </defs>
       <use xlink:href="#DejaVuSans-36"/>
      </g>
     </g>
    </g>
    <g id="ytick_4">
     <g id="line2d_19">
      <path d="M 57.6 104.641058 
L 414.72 104.641058 
" clip-path="url(#p5a02d1df4f)" style="fill: none; stroke: #b0b0b0; stroke-width: 0.8; stroke-linecap: square"/>
     </g>
     <g id="line2d_20">
      <g>
       <use xlink:href="#m950dbc4e44" x="57.6" y="104.641058" style="stroke: #000000; stroke-width: 0.8"/>
      </g>
     </g>
     <g id="text_11">
      <!-- 7 -->
      <g transform="translate(44.2375 108.440277) scale(0.1 -0.1)">
       <defs>
        <path id="DejaVuSans-37" d="M 525 4666 
L 3525 4666 
L 3525 4397 
L 1831 0 
L 1172 0 
L 2766 4134 
L 525 4134 
L 525 4666 
z
" transform="scale(0.015625)"/>
       </defs>
       <use xlink:href="#DejaVuSans-37"/>
      </g>
     </g>
    </g>
    <g id="ytick_5">
     <g id="line2d_21">
      <path d="M 57.6 53.568 
L 414.72 53.568 
" clip-path="url(#p5a02d1df4f)" style="fill: none; stroke: #b0b0b0; stroke-width: 0.8; stroke-linecap: square"/>
     </g>
     <g id="line2d_22">
      <g>
       <use xlink:href="#m950dbc4e44" x="57.6" y="53.568" style="stroke: #000000; stroke-width: 0.8"/>
      </g>
     </g>
     <g id="text_12">
      <!-- 8 -->
      <g transform="translate(44.2375 57.367219) scale(0.1 -0.1)">
       <defs>
        <path id="DejaVuSans-38" d="M 2034 2216 
Q 1584 2216 1326 1975 
Q 1069 1734 1069 1313 
Q 1069 891 1326 650 
Q 1584 409 2034 409 
Q 2484 409 2743 651 
Q 3003 894 3003 1313 
Q 3003 1734 2745 1975 
Q 2488 2216 2034 2216 
z
M 1403 2484 
Q 997 2584 770 2862 
Q 544 3141 544 3541 
Q 544 4100 942 4425 
Q 1341 4750 2034 4750 
Q 2731 4750 3128 4425 
Q 3525 4100 3525 3541 
Q 3525 3141 3298 2862 
Q 3072 2584 2669 2484 
Q 3125 2378 3379 2068 
Q 3634 1759 3634 1313 
Q 3634 634 3220 271 
Q 2806 -91 2034 -91 
Q 1263 -91 848 271 
Q 434 634 434 1313 
Q 434 1759 690 2068 
Q 947 2378 1403 2484 
z
M 1172 3481 
Q 1172 3119 1398 2916 
Q 1625 2713 2034 2713 
Q 2441 2713 2670 2916 
Q 2900 3119 2900 3481 
Q 2900 3844 2670 4047 
Q 2441 4250 2034 4250 
Q 1625 4250 1398 4047 
Q 1172 3844 1172 3481 
z
" transform="scale(0.015625)"/>
       </defs>
       <use xlink:href="#DejaVuSans-38"/>
      </g>
     </g>
    </g>
    <g id="text_13">
     <!-- Velocity(m/s) -->
     <g transform="translate(38.157812 207.204563) rotate(-90) scale(0.1 -0.1)">
      <defs>
       <path id="DejaVuSans-56" d="M 1831 0 
L 50 4666 
L 709 4666 
L 2188 738 
L 3669 4666 
L 4325 4666 
L 2547 0 
L 1831 0 
z
" transform="scale(0.015625)"/>
       <path id="DejaVuSans-6c" d="M 603 4863 
L 1178 4863 
L 1178 0 
L 603 0 
L 603 4863 
z
" transform="scale(0.015625)"/>
       <path id="DejaVuSans-6f" d="M 1959 3097 
Q 1497 3097 1228 2736 
Q 959 2375 959 1747 
Q 959 1119 1226 758 
Q 1494 397 1959 397 
Q 2419 397 2687 759 
Q 2956 1122 2956 1747 
Q 2956 2369 2687 2733 
Q 2419 3097 1959 3097 
z
M 1959 3584 
Q 2709 3584 3137 3096 
Q 3566 2609 3566 1747 
Q 3566 888 3137 398 
Q 2709 -91 1959 -91 
Q 1206 -91 779 398 
Q 353 888 353 1747 
Q 353 2609 779 3096 
Q 1206 3584 1959 3584 
z
" transform="scale(0.015625)"/>
       <path id="DejaVuSans-63" d="M 3122 3366 
L 3122 2828 
Q 2878 2963 2633 3030 
Q 2388 3097 2138 3097 
Q 1578 3097 1268 2742 
Q 959 2388 959 1747 
Q 959 1106 1268 751 
Q 1578 397 2138 397 
Q 2388 397 2633 464 
Q 2878 531 3122 666 
L 3122 134 
Q 2881 22 2623 -34 
Q 2366 -91 2075 -91 
Q 1284 -91 818 406 
Q 353 903 353 1747 
Q 353 2603 823 3093 
Q 1294 3584 2113 3584 
Q 2378 3584 2631 3529 
Q 2884 3475 3122 3366 
z
" transform="scale(0.015625)"/>
       <path id="DejaVuSans-74" d="M 1172 4494 
L 1172 3500 
L 2356 3500 
L 2356 3053 
L 1172 3053 
L 1172 1153 
Q 1172 725 1289 603 
Q 1406 481 1766 481 
L 2356 481 
L 2356 0 
L 1766 0 
Q 1100 0 847 248 
Q 594 497 594 1153 
L 594 3053 
L 172 3053 
L 172 3500 
L 594 3500 
L 594 4494 
L 1172 4494 
z
" transform="scale(0.015625)"/>
       <path id="DejaVuSans-79" d="M 2059 -325 
Q 1816 -950 1584 -1140 
Q 1353 -1331 966 -1331 
L 506 -1331 
L 506 -850 
L 844 -850 
Q 1081 -850 1212 -737 
Q 1344 -625 1503 -206 
L 1606 56 
L 191 3500 
L 800 3500 
L 1894 763 
L 2988 3500 
L 3597 3500 
L 2059 -325 
z
" transform="scale(0.015625)"/>
       <path id="DejaVuSans-2f" d="M 1625 4666 
L 2156 4666 
L 531 -594 
L 0 -594 
L 1625 4666 
z
" transform="scale(0.015625)"/>
      </defs>
      <use xlink:href="#DejaVuSans-56"/>
      <use xlink:href="#DejaVuSans-65" x="60.658203"/>
      <use xlink:href="#DejaVuSans-6c" x="122.181641"/>
      <use xlink:href="#DejaVuSans-6f" x="149.964844"/>
      <use xlink:href="#DejaVuSans-63" x="211.146484"/>
      <use xlink:href="#DejaVuSans-69" x="266.126953"/>
      <use xlink:href="#DejaVuSans-74" x="293.910156"/>
      <use xlink:href="#DejaVuSans-79" x="333.119141"/>
      <use xlink:href="#DejaVuSans-28" x="392.298828"/>
      <use xlink:href="#DejaVuSans-6d" x="431.3125"/>
      <use xlink:href="#DejaVuSans-2f" x="528.724609"/>
      <use xlink:href="#DejaVuSans-73" x="562.416016"/>
      <use xlink:href="#DejaVuSans-29" x="614.515625"/>
     </g>
    </g>
   </g>
   <g id="line2d_23">
    <path d="M 73.832727 54.065911 
L 75.69188 53.796348 
L 75.69188 53.796348 
L 78.713003 53.632352 
L 78.713003 53.632352 
L 85.220038 53.572188 
L 85.220038 53.572188 
L 87.311585 53.569736 
L 87.311585 53.569736 
L 87.543979 53.731383 
L 87.543979 53.731383 
L 87.776373 54.513362 
L 87.776373 54.513362 
L 88.938343 64.670466 
L 88.938343 64.670466 
L 89.403131 69.637729 
L 89.403131 69.637729 
L 90.100314 77.083313 
L 90.100314 77.083313 
L 90.565102 82.333317 
L 90.565102 82.333317 
L 91.02989 87.427394 
L 91.02989 87.427394 
L 91.494678 92.453903 
L 91.494678 92.453903 
L 92.656649 104.103463 
L 92.656649 104.103463 
L 93.121437 108.800652 
L 93.121437 108.800652 
L 94.515801 119.998369 
L 94.515801 119.998369 
L 95.677772 126.699665 
L 95.677772 126.699665 
L 96.607348 129.922119 
L 96.607348 129.922119 
L 97.30453 131.356659 
L 97.30453 131.356659 
L 98.001713 132.111008 
L 98.001713 132.111008 
L 98.931289 132.38522 
L 98.931289 132.38522 
L 99.396077 132.448039 
L 99.396077 132.448039 
L 100.558048 132.274851 
L 100.558048 132.274851 
L 101.022836 131.947166 
L 101.022836 131.947166 
L 101.487624 131.532197 
L 101.487624 131.532197 
L 101.952412 130.950526 
L 101.952412 130.950526 
L 102.649595 129.34673 
L 102.649595 129.34673 
L 103.579171 125.414411 
L 103.579171 125.414411 
L 104.043959 122.937674 
L 104.043959 122.937674 
L 105.438324 111.226826 
L 105.438324 111.226826 
L 107.065082 89.951118 
L 107.065082 89.951118 
L 107.762265 80.729469 
L 107.762265 80.729469 
L 108.459447 73.845128 
L 108.459447 73.845128 
L 109.156629 68.705697 
L 109.156629 68.705697 
L 109.853811 64.868884 
L 109.853811 64.868884 
L 110.550994 62.004554 
L 110.550994 62.004554 
L 111.248176 59.866227 
L 111.248176 59.866227 
L 111.945358 58.269888 
L 111.945358 58.269888 
L 112.874935 56.752252 
L 112.874935 56.752252 
L 113.804511 55.724509 
L 113.804511 55.724509 
L 114.734087 55.028434 
L 114.734087 55.028434 
L 115.896058 54.465251 
L 115.896058 54.465251 
L 117.290422 54.068056 
L 117.290422 54.068056 
L 119.149575 53.797318 
L 119.149575 53.797318 
L 122.170698 53.632607 
L 122.170698 53.632607 
L 128.677733 53.572239 
L 128.677733 53.572239 
L 131.466462 53.569328 
L 131.466462 53.569328 
L 131.698856 55.142123 
L 131.698856 55.142123 
L 132.860826 77.134947 
L 132.860826 77.134947 
L 133.325615 88.122141 
L 133.325615 88.122141 
L 134.487585 112.314938 
L 134.487585 112.314938 
L 134.952373 121.773106 
L 134.952373 121.773106 
L 136.114344 140.777136 
L 136.114344 140.777136 
L 137.973496 163.948471 
L 137.973496 163.948471 
L 139.367861 175.934961 
L 139.367861 175.934961 
L 141.459408 187.747291 
L 141.459408 187.747291 
L 143.550955 196.203304 
L 143.550955 196.203304 
L 144.248137 198.047756 
L 144.248137 198.047756 
L 144.712925 199.330098 
L 144.712925 199.330098 
L 145.177713 200.307841 
L 145.177713 200.307841 
L 145.642501 201.01888 
L 145.642501 201.01888 
L 146.10729 201.584208 
L 146.10729 201.584208 
L 146.339684 201.847643 
L 146.339684 201.847643 
L 146.572078 201.89463 
L 146.572078 201.89463 
L 147.036866 202.201017 
L 147.036866 202.201017 
L 147.734048 202.475126 
L 147.734048 202.475126 
L 150.057989 202.311284 
L 150.057989 202.311284 
L 151.21996 201.490999 
L 151.21996 201.490999 
L 151.452354 201.26827 
L 151.452354 201.26827 
L 152.38193 199.516464 
L 152.38193 199.516464 
L 153.311506 196.310404 
L 153.311506 196.310404 
L 154.241083 191.044874 
L 154.241083 191.044874 
L 155.170659 183.077272 
L 155.170659 183.077272 
L 155.635447 176.940334 
L 155.635447 176.940334 
L 156.797418 163.116645 
L 156.797418 163.116645 
L 157.029812 161.65095 
L 157.029812 161.65095 
L 157.4946 160.210179 
L 157.4946 160.210179 
L 157.959388 159.743933 
L 157.959388 159.743933 
L 158.191782 159.836937 
L 158.191782 159.836937 
L 158.656571 161.735374 
L 158.656571 161.735374 
L 159.353753 164.365279 
L 159.353753 164.365279 
L 159.818541 165.856203 
L 159.818541 165.856203 
L 160.283329 166.857133 
L 160.283329 166.857133 
L 160.980511 167.76654 
L 160.980511 167.76654 
L 161.212906 167.836357 
L 161.212906 167.836357 
L 161.677694 168.140191 
L 161.677694 168.140191 
L 163.072058 168.132734 
L 163.072058 168.132734 
L 163.769241 167.97451 
L 163.769241 167.97451 
L 164.698817 167.151825 
L 164.698817 167.151825 
L 164.931211 166.856776 
L 164.931211 166.856776 
L 166.325576 163.196931 
L 166.325576 163.196931 
L 166.790364 161.106869 
L 166.790364 161.106869 
L 167.255152 158.744178 
L 167.255152 158.744178 
L 167.71994 156.105795 
L 167.71994 156.105795 
L 169.346699 142.116782 
L 169.346699 142.116782 
L 170.508669 128.526344 
L 170.508669 128.526344 
L 171.67064 113.530119 
L 171.67064 113.530119 
L 172.135428 110.925904 
L 172.135428 110.925904 
L 172.367822 111.519884 
L 172.367822 111.519884 
L 172.600216 112.581131 
L 172.600216 112.581131 
L 172.83261 115.474215 
L 172.83261 115.474215 
L 176.318522 192.999235 
L 176.318522 192.999235 
L 177.015704 205.250181 
L 177.015704 205.250181 
L 178.177674 222.365171 
L 178.177674 222.365171 
L 178.874857 232.419056 
L 178.874857 232.419056 
L 179.107251 234.590988 
L 179.107251 234.590988 
L 179.339645 238.216256 
L 179.339645 238.216256 
L 179.572039 239.997787 
L 179.572039 239.997787 
L 179.804433 243.54859 
L 179.804433 243.54859 
L 180.734009 250.522463 
L 180.734009 250.522463 
L 181.198797 254.243237 
L 181.198797 254.243237 
L 182.825556 263.61024 
L 182.825556 263.61024 
L 183.987527 267.51166 
L 183.987527 267.51166 
L 184.917103 269.165508 
L 184.917103 269.165508 
L 185.381891 269.690692 
L 185.381891 269.690692 
L 186.079073 269.993504 
L 186.079073 269.993504 
L 187.00865 270.178184 
L 187.00865 270.178184 
L 188.635408 270.097029 
L 188.635408 270.097029 
L 189.797379 269.45402 
L 189.797379 269.45402 
L 190.494561 268.30983 
L 190.494561 268.30983 
L 190.959349 267.474275 
L 190.959349 267.474275 
L 191.656532 265.24657 
L 191.656532 265.24657 
L 192.12132 263.629291 
L 192.12132 263.629291 
L 192.818502 259.874042 
L 192.818502 259.874042 
L 193.050896 258.563967 
L 195.374837 237.402714 
L 195.374837 237.402714 
L 195.839625 236.446575 
L 195.839625 236.446575 
L 196.072019 239.403756 
L 196.072019 239.403756 
L 196.304413 240.196206 
L 196.304413 240.196206 
L 196.536807 245.575884 
L 196.536807 245.575884 
L 197.001596 249.902844 
L 197.001596 249.902844 
L 197.698778 261.204648 
L 197.698778 261.204648 
L 198.163566 265.548156 
L 198.163566 265.548156 
L 198.860748 274.661684 
L 198.860748 274.661684 
L 200.255113 285.064142 
L 200.255113 285.064142 
L 201.649477 291.478101 
L 201.649477 291.478101 
L 202.34666 293.340123 
L 202.34666 293.340123 
L 203.043842 294.374352 
L 203.043842 294.374352 
L 203.741024 295.062561 
L 203.741024 295.062561 
L 204.438207 295.226302 
L 204.438207 295.226302 
L 205.135389 295.327018 
L 205.135389 295.327018 
L 206.297359 295.145147 
L 206.297359 295.145147 
L 206.994542 294.779004 
L 206.994542 294.779004 
L 207.45933 294.379306 
L 207.45933 294.379306 
L 207.691724 294.120212 
L 207.691724 294.120212 
L 209.086088 291.262062 
L 209.086088 291.262062 
L 210.248059 287.005276 
L 210.248059 287.005276 
L 212.107212 273.791041 
L 212.107212 273.791041 
L 212.804394 266.612212 
L 212.804394 266.612212 
L 213.501576 256.873908 
L 213.501576 256.873908 
L 213.966364 252.27483 
L 213.966364 252.27483 
L 214.663547 249.550798 
L 214.663547 249.550798 
L 215.128335 249.450337 
L 215.128335 249.450337 
L 215.360729 251.836777 
L 215.360729 251.836777 
L 215.593123 252.795163 
L 215.593123 252.795163 
L 216.290305 258.031939 
L 216.290305 258.031939 
L 216.755093 262.013237 
L 216.755093 262.013237 
L 218.149458 271.095405 
L 218.149458 271.095405 
L 219.311428 275.094068 
L 219.311428 275.094068 
L 220.008611 276.771359 
L 220.008611 276.771359 
L 220.938187 278.051811 
L 220.938187 278.051811 
L 221.867763 278.727814 
L 221.867763 278.727814 
L 222.564946 278.792677 
L 222.564946 278.792677 
L 224.888887 278.640939 
L 224.888887 278.640939 
L 226.283251 277.735005 
L 226.283251 277.735005 
L 226.980433 276.736374 
L 226.980433 276.736374 
L 227.445222 276.020125 
L 227.445222 276.020125 
L 228.374798 273.643696 
L 228.374798 273.643696 
L 229.07198 271.439893 
L 229.07198 271.439893 
L 231.395921 260.215772 
L 231.395921 260.215772 
L 233.952256 241.560929 
L 233.952256 241.560929 
L 234.649438 235.385532 
L 234.649438 235.385532 
L 235.579015 226.098407 
L 235.579015 226.098407 
L 236.508591 215.611781 
L 236.508591 215.611781 
L 237.438168 203.587804 
L 237.438168 203.587804 
L 238.600138 186.98099 
L 238.600138 186.98099 
L 240.226897 160.532297 
L 240.226897 160.532297 
L 244.874778 82.780053 
L 244.874778 82.780053 
L 245.571961 75.37594 
L 245.571961 75.37594 
L 246.269143 69.848508 
L 246.269143 69.848508 
L 246.966325 65.72206 
L 246.966325 65.72206 
L 247.663508 62.641486 
L 247.663508 62.641486 
L 248.36069 60.341718 
L 248.36069 60.341718 
L 249.057872 58.624846 
L 249.057872 58.624846 
L 249.987448 56.992653 
L 249.987448 56.992653 
L 250.917025 55.887279 
L 250.917025 55.887279 
L 251.846601 55.138701 
L 251.846601 55.138701 
L 253.008572 54.532974 
L 253.008572 54.532974 
L 254.402936 54.105799 
L 254.402936 54.105799 
L 256.262089 53.814632 
L 256.262089 53.814632 
L 259.050818 53.64461 
L 259.050818 53.64461 
L 264.86067 53.574691 
L 264.86067 53.574691 
L 282.755015 53.568 
L 282.755015 53.568 
L 282.987409 54.475006 
L 282.987409 54.475006 
L 283.452198 60.202339 
L 283.452198 60.202339 
L 283.916986 68.000276 
L 283.916986 68.000276 
L 284.381774 77.025651 
L 284.381774 77.025651 
L 285.543744 93.612648 
L 285.543744 93.612648 
L 286.240927 100.414967 
L 286.240927 100.414967 
L 286.938109 104.118019 
L 286.938109 104.118019 
L 287.402897 105.460065 
L 287.402897 105.460065 
L 288.332473 106.224425 
L 288.332473 106.224425 
L 288.564868 106.355172 
L 288.564868 106.355172 
L 289.029656 106.270186 
L 289.029656 106.270186 
L 289.494444 106.018141 
L 289.494444 106.018141 
L 289.726838 105.69781 
L 289.726838 105.69781 
L 290.656414 102.960601 
L 290.656414 102.960601 
L 291.121203 101.058385 
L 291.121203 101.058385 
L 292.050779 94.88258 
L 292.050779 94.88258 
L 292.747961 88.728225 
L 292.747961 88.728225 
L 293.909932 75.809959 
L 293.909932 75.809959 
L 294.607114 70.172515 
L 294.607114 70.172515 
L 295.304296 65.963942 
L 295.304296 65.963942 
L 296.001478 62.822081 
L 296.001478 62.822081 
L 296.466267 61.221298 
L 296.466267 61.221298 
L 296.698661 60.771804 
L 296.698661 60.771804 
L 297.163449 61.122318 
L 297.163449 61.122318 
L 297.628237 64.141144 
L 297.628237 64.141144 
L 301.346543 107.25656 
L 301.346543 107.25656 
L 301.811331 113.422049 
L 301.811331 113.422049 
L 302.740907 125.035092 
L 302.740907 125.035092 
L 303.205695 131.284493 
L 303.205695 131.284493 
L 305.529636 158.525994 
L 305.529636 158.525994 
L 306.924001 168.938513 
L 306.924001 168.938513 
L 307.388789 172.041917 
L 307.388789 172.041917 
L 307.853577 174.723559 
L 307.853577 174.723559 
L 308.783154 178.48749 
L 308.783154 178.48749 
L 309.480336 180.363965 
L 309.480336 180.363965 
L 309.945124 181.284251 
L 309.945124 181.284251 
L 310.177518 181.702488 
L 310.177518 181.702488 
L 310.409912 181.752846 
L 310.409912 181.752846 
L 310.8747 182.057343 
L 310.8747 182.057343 
L 311.107094 182.248663 
L 311.107094 182.248663 
L 311.571883 182.22185 
L 311.571883 182.22185 
L 312.036671 182.352495 
L 312.036671 182.352495 
L 312.269065 182.389267 
L 312.269065 182.389267 
L 313.895824 181.791048 
L 313.895824 181.791048 
L 314.360612 181.341963 
L 314.360612 181.341963 
L 314.8254 180.665756 
L 314.8254 180.665756 
L 315.98737 177.099477 
L 315.98737 177.099477 
L 316.684553 174.165024 
L 316.684553 174.165024 
L 317.149341 171.355342 
L 317.149341 171.355342 
L 317.846523 166.655752 
L 317.846523 166.655752 
L 318.776099 158.479313 
L 318.776099 158.479313 
L 319.705676 148.644889 
L 319.705676 148.644889 
L 321.564829 122.392418 
L 321.564829 122.392418 
L 323.888769 83.588028 
L 323.888769 83.588028 
L 324.585952 75.979164 
L 324.585952 75.979164 
L 325.283134 70.298819 
L 325.283134 70.298819 
L 325.980316 66.058223 
L 325.980316 66.058223 
L 326.677499 62.892459 
L 326.677499 62.892459 
L 327.374681 60.529105 
L 327.374681 60.529105 
L 328.071863 58.764735 
L 328.071863 58.764735 
L 329.001439 57.087393 
L 329.001439 57.087393 
L 329.931016 55.951426 
L 329.931016 55.951426 
L 330.860592 55.182164 
L 330.860592 55.182164 
L 331.32538 54.933489 
L 331.32538 54.933489 
L 331.557774 55.878954 
L 331.557774 55.878954 
L 332.487351 64.75111 
L 332.487351 64.75111 
L 333.649321 88.489152 
L 333.649321 88.489152 
L 334.114109 100.157456 
L 334.114109 100.157456 
L 335.508474 126.493483 
L 335.508474 126.493483 
L 336.670444 140.503282 
L 336.670444 140.503282 
L 337.600021 146.804012 
L 337.600021 146.804012 
L 338.064809 148.752143 
L 338.064809 148.752143 
L 338.761991 150.603337 
L 338.761991 150.603337 
L 339.226779 151.226326 
L 339.226779 151.226326 
L 339.691568 151.573878 
L 339.691568 151.573878 
L 340.156356 151.874494 
L 340.156356 151.874494 
L 341.085932 151.8938 
L 341.085932 151.8938 
L 341.55072 151.868672 
L 341.55072 151.868672 
L 342.247903 151.685626 
L 342.247903 151.685626 
L 342.480297 151.587412 
L 342.480297 151.587412 
L 343.177479 150.929592 
L 343.177479 150.929592 
L 344.339449 148.808221 
L 344.339449 148.808221 
L 345.50142 145.390157 
L 345.50142 145.390157 
L 345.966208 144.70639 
L 345.966208 144.70639 
L 346.198602 144.63591 
L 346.198602 144.63591 
L 346.430996 144.897199 
L 346.430996 144.897199 
L 346.66339 145.777239 
L 346.66339 145.777239 
L 347.360573 152.106877 
L 347.360573 152.106877 
L 347.592967 156.745945 
L 347.592967 156.745945 
L 347.825361 159.029472 
L 348.987331 180.485928 
L 348.987331 180.485928 
L 349.452119 193.115631 
L 349.452119 193.115631 
L 349.916908 204.114112 
L 349.916908 204.114112 
L 350.61409 219.284648 
L 350.61409 219.284648 
L 350.846484 222.516654 
L 351.078878 227.754706 
L 351.078878 227.754706 
L 351.311272 230.475164 
L 351.311272 230.475164 
L 351.543666 235.493449 
L 351.543666 235.493449 
L 352.008454 240.2483 
L 352.008454 240.2483 
L 353.170425 255.048557 
L 353.170425 255.048557 
L 353.635213 258.519431 
L 353.635213 258.519431 
L 354.332395 265.398461 
L 354.332395 265.398461 
L 355.261972 271.437799 
L 355.261972 271.437799 
L 355.72676 274.623583 
L 355.72676 274.623583 
L 356.88873 279.844884 
L 356.88873 279.844884 
L 357.585913 281.764465 
L 357.585913 281.764465 
L 358.050701 282.760849 
L 358.050701 282.760849 
L 358.515489 283.280977 
L 358.515489 283.280977 
L 359.212671 283.744772 
L 359.212671 283.744772 
L 359.909854 283.840993 
L 359.909854 283.840993 
L 361.536612 283.687723 
L 361.536612 283.687723 
L 362.233794 283.402838 
L 362.233794 283.402838 
L 363.395765 281.907521 
L 363.395765 281.907521 
L 364.790129 277.81187 
L 364.790129 277.81187 
L 365.487312 275.051371 
L 365.487312 275.051371 
L 365.9521 272.626627 
L 365.9521 272.626627 
L 366.881676 267.559056 
L 366.881676 267.559056 
L 367.811253 261.046986 
L 367.811253 261.046986 
L 368.276041 257.299806 
L 368.276041 257.299806 
L 369.205617 249.857543 
L 369.205617 249.857543 
L 370.135194 241.034263 
L 370.135194 241.034263 
L 370.832376 234.052168 
L 370.832376 234.052168 
L 371.761952 224.055332 
L 371.761952 224.055332 
L 373.388711 207.254696 
L 373.388711 207.254696 
L 374.085893 203.218852 
L 374.085893 203.218852 
L 374.550681 201.579458 
L 374.550681 201.579458 
L 375.01547 200.519386 
L 375.01547 200.519386 
L 375.480258 199.855691 
L 375.480258 199.855691 
L 375.945046 199.458956 
L 375.945046 199.458956 
L 376.642228 199.032496 
L 376.642228 199.032496 
L 377.804199 198.577843 
L 377.804199 198.577843 
L 378.966169 197.801124 
L 378.966169 197.801124 
L 379.430957 197.183651 
L 379.430957 197.183651 
L 379.895745 196.34641 
L 379.895745 196.34641 
L 380.12814 195.887723 
L 380.12814 195.887723 
L 381.057716 192.706331 
L 381.057716 192.706331 
L 381.987292 187.717924 
L 381.987292 187.717924 
L 382.45208 183.847097 
L 382.45208 183.847097 
L 382.916869 179.591434 
L 382.916869 179.591434 
L 383.614051 172.456783 
L 383.614051 172.456783 
L 384.543627 159.947612 
L 384.543627 159.947612 
L 385.24081 149.005005 
L 385.24081 149.005005 
L 386.170386 131.396088 
L 386.170386 131.396088 
L 388.726721 83.842219 
L 388.726721 83.842219 
L 389.423903 76.168952 
L 389.423903 76.168952 
L 390.121085 70.440495 
L 390.121085 70.440495 
L 390.818268 66.163995 
L 390.818268 66.163995 
L 391.51545 62.971418 
L 391.51545 62.971418 
L 392.212632 60.588043 
L 392.212632 60.588043 
L 392.909815 58.808709 
L 392.909815 58.808709 
L 393.839391 57.117169 
L 393.839391 57.117169 
L 394.768967 55.9716 
L 394.768967 55.9716 
L 395.698544 55.1958 
L 395.698544 55.1958 
L 396.62812 54.677511 
L 396.62812 54.677511 
L 397.79009 54.275158 
L 397.79009 54.275158 
L 398.487273 54.104676 
L 398.487273 54.104676 
" clip-path="url(#p5a02d1df4f)" style="fill: none; stroke: #1f77b4; stroke-width: 1.5; stroke-linecap: square"/>
   </g>
   <g id="line2d_24">
    <path d="M 73.832727 53.568 
L 87.07919 53.568 
L 87.07919 53.568 
L 87.311585 54.039251 
L 87.311585 54.039251 
L 87.543979 56.003112 
L 87.543979 56.003112 
L 88.008767 63.516725 
L 88.008767 63.516725 
L 88.241161 63.534601 
L 89.170737 73.629497 
L 89.170737 73.629497 
L 89.635525 79.033691 
L 89.635525 79.033691 
L 90.100314 86.558029 
L 90.100314 86.558029 
L 90.332708 86.121763 
L 90.332708 86.121763 
L 90.797496 92.689962 
L 90.797496 92.689962 
L 91.02989 96.533159 
L 91.02989 96.533159 
L 91.262284 96.058486 
L 91.727072 102.757892 
L 91.727072 102.757892 
L 91.959466 103.125312 
L 91.959466 103.125312 
L 92.424255 108.956016 
L 92.424255 108.956016 
L 92.656649 112.765453 
L 92.656649 112.765453 
L 92.889043 112.068868 
L 92.889043 112.068868 
L 93.353831 118.009022 
L 93.353831 118.009022 
L 93.586225 117.814996 
L 93.586225 117.814996 
L 93.818619 119.636005 
L 93.818619 119.636005 
L 94.051013 122.629806 
L 94.051013 122.629806 
L 94.283407 122.662084 
L 94.283407 122.662084 
L 94.515801 124.020627 
L 94.515801 124.020627 
L 94.748195 126.4015 
L 94.748195 126.4015 
L 94.98059 126.494402 
L 94.98059 126.494402 
L 95.212984 127.503555 
L 95.212984 127.503555 
L 95.445378 129.201325 
L 95.445378 129.201325 
L 95.677772 129.281765 
L 95.677772 129.281765 
L 96.374954 131.087198 
L 96.374954 131.087198 
L 96.839742 131.969127 
L 96.839742 131.969127 
L 97.30453 132.213308 
L 97.30453 132.213308 
L 97.536925 132.485016 
L 97.536925 132.485016 
L 98.001713 132.384709 
L 98.001713 132.384709 
L 98.234107 132.590789 
L 98.234107 132.590789 
L 98.698895 132.369081 
L 98.698895 132.369081 
L 98.931289 132.569389 
L 98.931289 132.569389 
L 99.396077 132.224442 
L 99.396077 132.224442 
L 99.628471 132.431492 
L 99.628471 132.431492 
L 99.860865 132.156923 
L 99.860865 132.156923 
L 100.09326 131.523157 
L 100.09326 131.523157 
L 100.325654 131.816725 
L 100.325654 131.816725 
L 100.558048 131.133776 
L 100.558048 131.133776 
L 100.790442 129.78034 
L 100.790442 129.78034 
L 101.022836 130.343727 
L 101.022836 130.343727 
L 101.25523 128.93217 
L 101.25523 128.93217 
L 101.487624 128.860413 
L 101.487624 128.860413 
L 101.720018 127.690482 
L 101.720018 127.690482 
L 101.952412 125.219721 
L 101.952412 125.219721 
L 102.184806 125.288465 
L 102.184806 125.288465 
L 102.4172 123.527977 
L 102.4172 123.527977 
L 102.649595 119.78708 
L 102.649595 119.78708 
L 102.881989 120.16645 
L 102.881989 120.16645 
L 103.114383 117.548394 
L 103.114383 117.548394 
L 103.346777 112.384959 
L 103.346777 112.384959 
L 103.579171 113.337676 
L 103.579171 113.337676 
L 103.811565 109.692336 
L 103.811565 109.692336 
L 104.043959 103.426949 
L 104.043959 103.426949 
L 104.276353 104.704184 
L 104.276353 104.704184 
L 104.508747 100.148314 
L 104.508747 100.148314 
L 104.741141 92.902886 
L 104.741141 92.902886 
L 104.973535 94.215463 
L 104.973535 94.215463 
L 105.20593 88.916838 
L 105.20593 88.916838 
L 105.438324 80.487894 
L 105.438324 80.487894 
L 105.670718 81.832596 
L 105.670718 81.832596 
L 105.903112 76.635351 
L 105.903112 76.635351 
L 106.135506 67.515286 
L 106.135506 67.515286 
L 106.3679 67.173199 
L 106.3679 67.173199 
L 106.600294 62.176109 
L 106.600294 62.176109 
L 106.832688 54.058557 
L 106.832688 54.058557 
L 107.065082 53.568 
L 107.065082 53.568 
L 131.234068 53.568 
L 131.234068 53.568 
L 131.466462 58.138477 
L 131.466462 58.138477 
L 131.698856 67.513243 
L 131.698856 67.513243 
L 131.93125 67.722745 
L 131.93125 67.722745 
L 132.628432 88.82603 
L 132.628432 88.82603 
L 132.860826 97.638635 
L 132.860826 97.638635 
L 133.093221 95.607766 
L 133.093221 95.607766 
L 133.325615 101.317376 
L 133.325615 101.317376 
L 133.558009 110.074874 
L 133.558009 110.074874 
L 133.790403 111.008642 
L 133.790403 111.008642 
L 134.255191 121.949615 
L 134.255191 121.949615 
L 134.487585 129.955061 
L 134.487585 129.955061 
L 134.719979 128.223736 
L 134.719979 128.223736 
L 135.184767 141.326273 
L 135.184767 141.326273 
L 135.417161 139.506847 
L 135.649556 144.60593 
L 135.649556 144.60593 
L 136.114344 149.476563 
L 136.114344 149.476563 
L 136.346738 154.884281 
L 136.346738 154.884281 
L 136.579132 155.445369 
L 136.579132 155.445369 
L 136.811526 158.552705 
L 136.811526 158.552705 
L 137.04392 164.00266 
L 137.04392 164.00266 
L 137.276314 163.597344 
L 137.276314 163.597344 
L 137.508708 167.277873 
L 137.508708 167.277873 
L 137.741102 167.707908 
L 137.741102 167.707908 
L 137.973496 170.111355 
L 137.973496 170.111355 
L 138.205891 174.363851 
L 138.205891 174.363851 
L 138.438285 173.49372 
L 138.438285 173.49372 
L 138.670679 176.78022 
L 138.670679 176.78022 
L 138.903073 176.885175 
L 138.903073 176.885175 
L 139.135467 179.402974 
L 139.135467 179.402974 
L 139.367861 179.909926 
L 139.367861 179.909926 
L 139.600255 181.327254 
L 139.600255 181.327254 
L 139.832649 184.35604 
L 139.832649 184.35604 
L 140.065043 183.943778 
L 140.065043 183.943778 
L 140.297437 186.336602 
L 140.297437 186.336602 
L 140.529831 186.263363 
L 140.529831 186.263363 
L 140.762226 188.062514 
L 140.762226 188.062514 
L 140.99462 188.338002 
L 140.99462 188.338002 
L 141.227014 190.007222 
L 141.227014 190.007222 
L 141.459408 190.559322 
L 141.459408 190.559322 
L 141.691802 191.797588 
L 141.691802 191.797588 
L 141.924196 192.428545 
L 141.924196 192.428545 
L 142.15659 193.465941 
L 142.15659 193.465941 
L 142.388984 195.32689 
L 142.388984 195.32689 
L 142.621378 195.194304 
L 142.621378 195.194304 
L 142.853772 196.652798 
L 142.853772 196.652798 
L 143.086166 196.708723 
L 143.086166 196.708723 
L 143.318561 197.731154 
L 143.318561 197.731154 
L 143.550955 197.844434 
L 143.550955 197.844434 
L 143.783349 198.978154 
L 143.783349 198.978154 
L 144.015743 199.036173 
L 144.015743 199.036173 
L 144.248137 200.23353 
L 144.248137 200.23353 
L 144.480531 200.339762 
L 144.480531 200.339762 
L 144.712925 201.025673 
L 144.712925 201.025673 
L 144.945319 201.058615 
L 145.177713 201.635894 
L 145.177713 201.635894 
L 145.410107 201.502644 
L 145.410107 201.502644 
L 145.642501 202.073181 
L 145.642501 202.073181 
L 145.874896 201.969809 
L 145.874896 201.969809 
L 146.10729 202.349435 
L 146.10729 202.349435 
L 146.339684 201.984161 
L 146.339684 201.984161 
L 146.572078 202.496679 
L 146.572078 202.496679 
L 146.804472 202.389936 
L 146.804472 202.389936 
L 147.26926 202.634168 
L 147.26926 202.634168 
L 147.501654 202.562001 
L 147.501654 202.562001 
L 147.734048 202.350968 
L 147.734048 202.350968 
L 147.966442 202.566853 
L 147.966442 202.566853 
L 148.198836 202.036715 
L 148.198836 202.036715 
L 148.431231 202.566802 
L 148.431231 202.566802 
L 148.663625 202.243408 
L 148.663625 202.243408 
L 148.896019 202.512461 
L 148.896019 202.512461 
L 149.128413 201.737529 
L 149.128413 201.737529 
L 149.360807 202.351938 
L 149.360807 202.351938 
L 149.593201 201.656221 
L 149.593201 201.656221 
L 149.825595 202.030995 
L 149.825595 202.030995 
L 150.057989 200.738642 
L 150.057989 200.738642 
L 150.290383 201.486352 
L 150.290383 201.486352 
L 150.522777 200.110137 
L 150.522777 200.110137 
L 150.755171 200.63333 
L 150.755171 200.63333 
L 150.987566 198.490559 
L 151.21996 199.091996 
L 151.21996 199.091996 
L 151.452354 197.001984 
L 151.452354 197.001984 
L 151.684748 197.644381 
L 151.684748 197.644381 
L 151.917142 194.281475 
L 151.917142 194.281475 
L 152.149536 194.904362 
L 152.149536 194.904362 
L 152.38193 191.614134 
L 152.38193 191.614134 
L 152.614324 192.151423 
L 152.614324 192.151423 
L 152.846718 187.507656 
L 152.846718 187.507656 
L 153.079112 187.837077 
L 153.079112 187.837077 
L 153.311506 183.365324 
L 153.311506 183.365324 
L 153.543901 183.338051 
L 153.543901 183.338051 
L 153.776295 177.570116 
L 153.776295 177.570116 
L 154.008689 176.933592 
L 154.241083 171.678226 
L 154.241083 171.678226 
L 154.473477 170.093531 
L 154.473477 170.093531 
L 154.705871 164.246687 
L 154.705871 164.246687 
L 154.938265 161.233121 
L 154.938265 161.233121 
L 155.170659 156.38113 
L 155.170659 156.38113 
L 155.403053 141.191849 
L 155.403053 141.191849 
L 155.635447 145.081011 
L 155.635447 145.081011 
L 155.867841 137.751108 
L 155.867841 137.751108 
L 156.100236 137.70596 
L 156.100236 137.70596 
L 156.33263 141.968517 
L 156.33263 141.968517 
L 156.565024 142.885687 
L 156.565024 142.885687 
L 156.797418 147.329196 
L 156.797418 147.329196 
L 157.029812 154.000104 
L 157.029812 154.000104 
L 157.262206 153.072821 
L 157.262206 153.072821 
L 157.4946 157.444266 
L 157.4946 157.444266 
L 157.726994 157.697027 
L 157.726994 157.697027 
L 158.191782 163.334931 
L 158.191782 163.334931 
L 158.424176 163.058115 
L 158.424176 163.058115 
L 158.656571 164.774272 
L 158.656571 164.774272 
L 158.888965 165.014928 
L 158.888965 165.014928 
L 159.353753 167.037932 
L 159.353753 167.037932 
L 159.586147 166.943804 
L 159.586147 166.943804 
L 159.818541 167.510102 
L 159.818541 167.510102 
L 160.748117 168.274819 
L 160.748117 168.274819 
L 160.980511 167.969402 
L 160.980511 167.969402 
L 161.212906 168.446731 
L 161.212906 168.446731 
L 161.677694 168.190089 
L 161.677694 168.190089 
L 161.910088 168.377323 
L 161.910088 168.377323 
L 162.142482 167.878645 
L 162.142482 167.878645 
L 162.374876 168.075021 
L 162.374876 168.075021 
L 162.60727 167.788859 
L 162.60727 167.788859 
L 162.839664 167.950097 
L 162.839664 167.950097 
L 163.072058 167.579919 
L 163.072058 167.579919 
L 163.304452 167.592074 
L 163.304452 167.592074 
L 163.536846 167.373635 
L 163.536846 167.373635 
L 163.769241 165.891086 
L 163.769241 165.891086 
L 164.001635 166.237668 
L 164.001635 166.237668 
L 164.234029 164.907879 
L 164.234029 164.907879 
L 164.466423 164.879942 
L 164.466423 164.879942 
L 164.698817 163.973702 
L 164.931211 160.740419 
L 165.163605 162.033283 
L 165.163605 162.033283 
L 165.395999 158.741829 
L 165.628393 159.351488 
L 165.628393 159.351488 
L 165.860787 156.781134 
L 165.860787 156.781134 
L 166.093181 155.83429 
L 166.093181 155.83429 
L 166.325576 154.166295 
L 166.325576 154.166295 
L 166.55797 148.87625 
L 166.55797 148.87625 
L 166.790364 150.083873 
L 166.790364 150.083873 
L 167.022758 145.657115 
L 167.022758 145.657115 
L 167.255152 145.153688 
L 167.255152 145.153688 
L 167.487546 142.65402 
L 167.487546 142.65402 
L 167.71994 135.639595 
L 167.71994 135.639595 
L 167.952334 136.913663 
L 167.952334 136.913663 
L 168.184728 131.54849 
L 168.184728 131.54849 
L 168.417122 130.997565 
L 168.417122 130.997565 
L 168.649516 127.406414 
L 168.649516 127.406414 
L 168.881911 119.611746 
L 168.881911 119.611746 
L 169.114305 120.72187 
L 169.114305 120.72187 
L 169.346699 114.959552 
L 169.346699 114.959552 
L 169.579093 113.042065 
L 169.579093 113.042065 
L 169.811487 108.96475 
L 169.811487 108.96475 
L 170.043881 101.079938 
L 170.043881 101.079938 
L 170.276275 100.335905 
L 170.276275 100.335905 
L 170.508669 95.234933 
L 170.508669 95.234933 
L 170.741063 86.009402 
L 170.741063 86.009402 
L 170.973457 85.700104 
L 171.205851 86.38673 
L 171.205851 86.38673 
L 171.438246 94.754284 
L 171.438246 94.754284 
L 171.67064 95.494895 
L 171.67064 95.494895 
L 171.903034 101.840109 
L 171.903034 101.840109 
L 172.135428 112.651509 
L 172.135428 112.651509 
L 172.367822 114.602858 
L 172.367822 114.602858 
L 172.600216 120.985764 
L 172.600216 120.985764 
L 172.83261 130.973305 
L 172.83261 130.973305 
L 173.065004 133.55326 
L 173.065004 133.55326 
L 173.297398 139.51461 
L 173.297398 139.51461 
L 173.529792 149.229114 
L 173.529792 149.229114 
L 173.762187 151.238686 
L 173.762187 151.238686 
L 173.994581 156.740939 
L 173.994581 156.740939 
L 174.226975 167.74177 
L 174.226975 167.74177 
L 174.459369 167.365821 
L 174.459369 167.365821 
L 174.924157 177.741364 
L 174.924157 177.741364 
L 175.156551 182.708729 
L 175.156551 182.708729 
L 175.388945 192.745096 
L 175.388945 192.745096 
L 175.621339 191.459229 
L 175.621339 191.459229 
L 175.853733 199.713555 
L 175.853733 199.713555 
L 176.086127 199.790879 
L 176.086127 199.790879 
L 176.318522 206.35673 
L 176.550916 207.394074 
L 176.550916 207.394074 
L 176.78331 213.40522 
L 176.78331 213.40522 
L 177.015704 214.61463 
L 177.015704 214.61463 
L 177.248098 220.455294 
L 177.248098 220.455294 
L 177.480492 221.519554 
L 177.480492 221.519554 
L 177.712886 227.027579 
L 177.712886 227.027579 
L 177.94528 227.673296 
L 177.94528 227.673296 
L 178.177674 233.391385 
L 178.177674 233.391385 
L 178.410068 233.61963 
L 178.410068 233.61963 
L 178.642462 239.450488 
L 178.642462 239.450488 
L 178.874857 238.728672 
L 178.874857 238.728672 
L 179.107251 245.122713 
L 179.107251 245.122713 
L 179.339645 243.391745 
L 179.339645 243.391745 
L 179.572039 250.313165 
L 179.572039 250.313165 
L 179.804433 248.201754 
L 179.804433 248.201754 
L 180.036827 249.807542 
L 180.269221 253.245882 
L 180.269221 253.245882 
L 180.501615 253.445221 
L 180.501615 253.445221 
L 180.734009 257.62269 
L 180.734009 257.62269 
L 180.966403 256.675438 
L 180.966403 256.675438 
L 181.89598 263.341443 
L 181.89598 263.341443 
L 182.128374 263.177498 
L 182.360768 265.886924 
L 182.360768 265.886924 
L 182.593162 265.140185 
L 182.593162 265.140185 
L 182.825556 265.970939 
L 182.825556 265.970939 
L 183.05795 267.228511 
L 183.05795 267.228511 
L 183.290344 267.298941 
L 183.290344 267.298941 
L 183.522738 268.655697 
L 183.522738 268.655697 
L 183.755132 268.592315 
L 183.755132 268.592315 
L 183.987527 268.854984 
L 183.987527 268.854984 
L 184.219921 269.353967 
L 184.219921 269.353967 
L 184.452315 269.458361 
L 184.452315 269.458361 
L 184.917103 270.095242 
L 184.917103 270.095242 
L 185.381891 270.075374 
L 185.381891 270.075374 
L 185.614285 270.184926 
L 185.614285 270.184926 
L 185.846679 270.08089 
L 185.846679 270.08089 
L 186.311467 270.294784 
L 186.311467 270.294784 
L 186.543862 270.140135 
L 186.543862 270.140135 
L 186.776256 270.249687 
L 186.776256 270.249687 
L 187.00865 270.076243 
L 187.00865 270.076243 
L 187.241044 270.186816 
L 187.241044 270.186816 
L 187.473438 269.87384 
L 187.473438 269.87384 
L 187.705832 270.305561 
L 187.705832 270.305561 
L 187.938226 270.080686 
L 187.938226 270.080686 
L 188.17062 269.643705 
L 188.17062 269.643705 
L 188.403014 269.681141 
L 188.403014 269.681141 
L 188.635408 268.794973 
L 188.635408 268.794973 
L 188.867802 269.283895 
L 188.867802 269.283895 
L 189.100197 268.805545 
L 189.332591 267.970245 
L 189.332591 267.970245 
L 189.564985 267.651651 
L 189.564985 267.651651 
L 189.797379 265.967058 
L 189.797379 265.967058 
L 190.029773 266.089378 
L 190.029773 266.089378 
L 190.262167 263.051603 
L 190.262167 263.051603 
L 190.494561 264.075567 
L 190.726955 263.150787 
L 190.959349 260.505867 
L 191.191743 260.339317 
L 191.191743 260.339317 
L 191.424137 255.685949 
L 191.424137 255.685949 
L 191.656532 256.948986 
L 191.888926 255.353668 
L 191.888926 255.353668 
L 192.12132 251.629216 
L 192.12132 251.629216 
L 192.353714 250.940955 
L 192.353714 250.940955 
L 192.586108 244.566016 
L 192.586108 244.566016 
L 192.818502 245.762556 
L 192.818502 245.762556 
L 193.050896 235.820317 
L 193.050896 235.820317 
L 193.28329 238.582859 
L 193.28329 238.582859 
L 193.515684 236.726608 
L 193.515684 236.726608 
L 193.748078 228.885055 
L 193.748078 228.885055 
L 193.980472 229.223772 
L 193.980472 229.223772 
L 194.212867 217.111081 
L 194.212867 217.111081 
L 194.445261 220.322147 
L 194.445261 220.322147 
L 194.677655 216.681097 
L 194.677655 216.681097 
L 194.910049 219.817085 
L 194.910049 219.817085 
L 195.142443 221.101981 
L 195.142443 221.101981 
L 195.374837 232.1118 
L 195.374837 232.1118 
L 195.607231 231.90332 
L 195.607231 231.90332 
L 195.839625 245.037472 
L 195.839625 245.037472 
L 196.072019 241.705823 
L 196.072019 241.705823 
L 196.304413 255.824714 
L 196.304413 255.824714 
L 196.536807 251.444791 
L 196.536807 251.444791 
L 196.769202 254.297324 
L 196.769202 254.297324 
L 197.001596 261.525029 
L 197.001596 261.525029 
L 197.23399 261.043411 
L 197.23399 261.043411 
L 197.466384 270.431864 
L 197.466384 270.431864 
L 197.698778 267.179889 
L 197.698778 267.179889 
L 197.931172 269.904433 
L 197.931172 269.904433 
L 198.163566 275.125785 
L 198.163566 275.125785 
L 198.39596 274.739621 
L 198.39596 274.739621 
L 198.628354 281.877337 
L 198.628354 281.877337 
L 198.860748 279.971086 
L 198.860748 279.971086 
L 199.093142 280.878194 
L 199.093142 280.878194 
L 199.325537 285.306841 
L 199.325537 285.306841 
L 199.557931 284.456577 
L 199.557931 284.456577 
L 199.790325 285.695916 
L 199.790325 285.695916 
L 200.022719 288.637877 
L 200.022719 288.637877 
L 200.255113 288.443493 
L 200.255113 288.443493 
L 200.487507 289.334565 
L 200.487507 289.334565 
L 200.719901 290.855214 
L 200.719901 290.855214 
L 200.952295 291.137086 
L 200.952295 291.137086 
L 201.184689 293.144053 
L 201.184689 293.144053 
L 201.417083 292.954215 
L 201.417083 292.954215 
L 201.881872 294.22624 
L 201.881872 294.22624 
L 202.114266 294.22052 
L 202.114266 294.22052 
L 202.34666 294.430328 
L 202.34666 294.430328 
L 202.579054 294.855511 
L 202.579054 294.855511 
L 202.811448 294.88212 
L 202.811448 294.88212 
L 203.50863 295.43233 
L 203.50863 295.43233 
L 203.973418 295.234678 
L 203.973418 295.234678 
L 204.670601 295.488 
L 204.670601 295.488 
L 204.902995 295.036923 
L 204.902995 295.036923 
L 205.367783 295.184115 
L 205.367783 295.184115 
L 205.600177 295.081152 
L 205.600177 295.081152 
L 205.832571 294.82594 
L 205.832571 294.82594 
L 206.064965 294.250908 
L 206.064965 294.250908 
L 206.297359 294.223942 
L 206.297359 294.223942 
L 206.529753 293.336956 
L 206.529753 293.336956 
L 206.762147 293.599625 
L 206.762147 293.599625 
L 206.994542 293.012182 
L 206.994542 293.012182 
L 207.45933 291.588521 
L 207.45933 291.588521 
L 207.691724 289.15918 
L 207.691724 289.15918 
L 207.924118 289.833446 
L 207.924118 289.833446 
L 208.156512 289.059894 
L 208.156512 289.059894 
L 208.388906 286.55619 
L 208.388906 286.55619 
L 208.6213 287.047615 
L 208.6213 287.047615 
L 208.853694 285.703679 
L 208.853694 285.703679 
L 209.086088 282.521317 
L 209.086088 282.521317 
L 209.318482 282.743331 
L 209.318482 282.743331 
L 209.550877 281.314767 
L 209.550877 281.314767 
L 209.783271 278.139963 
L 209.783271 278.139963 
L 210.015665 277.779388 
L 210.015665 277.779388 
L 210.248059 269.786914 
L 210.248059 269.786914 
L 210.480453 272.420649 
L 210.480453 272.420649 
L 210.712847 270.7953 
L 210.712847 270.7953 
L 210.945241 262.36988 
L 210.945241 262.36988 
L 211.177635 265.174148 
L 211.177635 265.174148 
L 211.410029 262.255834 
L 211.410029 262.255834 
L 211.642423 253.560646 
L 211.642423 253.560646 
L 211.874817 255.151674 
L 211.874817 255.151674 
L 212.107212 251.491217 
L 212.107212 251.491217 
L 212.339606 243.258597 
L 212.339606 243.258597 
L 212.572 242.514667 
L 212.572 242.514667 
L 212.804394 226.50832 
L 212.804394 226.50832 
L 213.036788 231.577678 
L 213.036788 231.577678 
L 213.269182 226.502702 
L 213.269182 226.502702 
L 213.501576 231.086611 
L 213.501576 231.086611 
L 213.73397 230.72915 
L 213.966364 242.66952 
L 213.966364 242.66952 
L 214.198758 239.120862 
L 214.198758 239.120862 
L 214.431152 242.770543 
L 214.431152 242.770543 
L 214.663547 248.795376 
L 214.663547 248.795376 
L 214.895941 249.154318 
L 214.895941 249.154318 
L 215.128335 256.383045 
L 215.128335 256.383045 
L 215.360729 254.620974 
L 215.825517 260.27757 
L 215.825517 260.27757 
L 216.057911 261.155056 
L 216.057911 261.155056 
L 216.290305 265.408114 
L 216.290305 265.408114 
L 216.522699 264.760916 
L 216.522699 264.760916 
L 216.987487 268.55973 
L 216.987487 268.55973 
L 217.219882 269.086242 
L 217.219882 269.086242 
L 217.452276 271.675902 
L 217.452276 271.675902 
L 217.68467 271.402406 
L 217.68467 271.402406 
L 217.917064 274.32879 
L 217.917064 274.32879 
L 218.149458 273.599824 
L 218.149458 273.599824 
L 218.381852 274.216276 
L 218.381852 274.216276 
L 218.614246 275.7191 
L 218.614246 275.7191 
L 218.84664 275.84663 
L 218.84664 275.84663 
L 219.543822 277.170903 
L 219.543822 277.170903 
L 219.776217 277.852933 
L 219.776217 277.852933 
L 220.008611 277.841799 
L 220.008611 277.841799 
L 220.473399 278.35304 
L 220.473399 278.35304 
L 220.938187 278.632154 
L 220.938187 278.632154 
L 221.402975 278.879552 
L 221.402975 278.879552 
L 221.635369 279.022761 
L 221.635369 279.022761 
L 222.100157 278.72715 
L 222.100157 278.72715 
L 222.332552 278.826998 
L 222.332552 278.826998 
L 222.564946 278.660909 
L 222.79734 279.030167 
L 222.79734 279.030167 
L 223.262128 278.663922 
L 223.262128 278.663922 
L 223.494522 278.761165 
L 223.494522 278.761165 
L 223.726916 278.38205 
L 223.726916 278.38205 
L 223.95931 278.572195 
L 223.95931 278.572195 
L 224.191704 278.575668 
L 224.191704 278.575668 
L 224.424098 278.051454 
L 224.424098 278.051454 
L 224.656492 278.142211 
L 224.656492 278.142211 
L 224.888887 277.028818 
L 224.888887 277.028818 
L 225.121281 277.476014 
L 225.121281 277.476014 
L 225.353675 277.281323 
L 225.586069 276.026611 
L 225.586069 276.026611 
L 225.818463 276.320026 
L 225.818463 276.320026 
L 226.050857 275.933709 
L 226.050857 275.933709 
L 226.283251 274.743401 
L 226.283251 274.743401 
L 226.515645 274.577924 
L 226.515645 274.577924 
L 226.748039 272.304713 
L 226.748039 272.304713 
L 226.980433 273.19553 
L 226.980433 273.19553 
L 227.212827 272.233415 
L 227.212827 272.233415 
L 227.445222 270.31031 
L 227.445222 270.31031 
L 227.677616 270.166948 
L 227.91001 266.817628 
L 227.91001 266.817628 
L 228.142404 267.850428 
L 228.142404 267.850428 
L 228.374798 266.838926 
L 228.374798 266.838926 
L 228.607192 264.124546 
L 228.607192 264.124546 
L 228.839586 264.141298 
L 228.839586 264.141298 
L 229.07198 259.787218 
L 229.07198 259.787218 
L 229.304374 261.212973 
L 229.304374 261.212973 
L 229.536768 259.918986 
L 229.536768 259.918986 
L 229.769162 256.634784 
L 229.769162 256.634784 
L 230.001557 256.641219 
L 230.001557 256.641219 
L 230.233951 251.656591 
L 230.233951 251.656591 
L 230.466345 253.143226 
L 230.466345 253.143226 
L 230.698739 251.587183 
L 230.698739 251.587183 
L 230.931133 248.143735 
L 230.931133 248.143735 
L 231.163527 247.7756 
L 231.163527 247.7756 
L 231.395921 242.611961 
L 231.395921 242.611961 
L 231.628315 243.773975 
L 231.628315 243.773975 
L 231.860709 241.983865 
L 231.860709 241.983865 
L 232.093103 238.754822 
L 232.093103 238.754822 
L 232.325497 237.720643 
L 232.325497 237.720643 
L 232.557892 232.668956 
L 232.557892 232.668956 
L 232.790286 233.265847 
L 232.790286 233.265847 
L 233.02268 226.227928 
L 233.02268 226.227928 
L 233.255074 228.510281 
L 233.255074 228.510281 
L 233.487468 226.38651 
L 233.487468 226.38651 
L 233.719862 221.840906 
L 233.719862 221.840906 
L 233.952256 221.29039 
L 233.952256 221.29039 
L 234.18465 214.988638 
L 234.18465 214.988638 
L 234.417044 215.830884 
L 234.649438 207.425025 
L 234.649438 207.425025 
L 234.881832 209.745274 
L 234.881832 209.745274 
L 235.114227 207.090598 
L 235.114227 207.090598 
L 235.811409 195.012842 
L 235.811409 195.012842 
L 236.043803 193.440966 
L 236.043803 193.440966 
L 236.276197 187.388094 
L 236.276197 187.388094 
L 236.508591 186.432262 
L 236.508591 186.432262 
L 236.740985 179.493169 
L 236.740985 179.493169 
L 236.973379 178.442648 
L 236.973379 178.442648 
L 237.205773 171.32337 
L 237.438168 170.70416 
L 237.438168 170.70416 
L 237.670562 163.553523 
L 237.902956 162.79085 
L 237.902956 162.79085 
L 238.13535 155.609927 
L 238.13535 155.609927 
L 238.367744 153.964148 
L 238.367744 153.964148 
L 238.832532 145.528411 
L 238.832532 145.528411 
L 239.064926 141.516674 
L 239.064926 141.516674 
L 239.29732 130.114716 
L 239.29732 130.114716 
L 239.529714 132.897636 
L 239.529714 132.897636 
L 239.762108 123.553156 
L 239.762108 123.553156 
L 239.994503 124.300916 
L 239.994503 124.300916 
L 240.226897 117.753197 
L 240.226897 117.753197 
L 240.459291 115.661347 
L 240.459291 115.661347 
L 240.691685 111.313957 
L 240.691685 111.313957 
L 240.924079 102.451454 
L 240.924079 102.451454 
L 241.156473 102.763714 
L 241.156473 102.763714 
L 241.388867 97.088374 
L 241.388867 97.088374 
L 241.621261 88.658664 
L 241.621261 88.658664 
L 241.853655 90.346066 
L 241.853655 90.346066 
L 242.086049 83.951617 
L 242.086049 83.951617 
L 242.318443 82.28352 
L 242.318443 82.28352 
L 243.480414 61.787391 
L 243.480414 61.787391 
L 243.712808 55.301522 
L 243.712808 55.301522 
L 243.945202 56.019251 
L 243.945202 56.019251 
L 244.177596 53.802527 
L 244.177596 53.802527 
L 244.40999 53.568 
L 244.40999 53.568 
L 282.522621 53.568 
L 282.522621 53.568 
L 282.755015 56.202961 
L 282.755015 56.202961 
L 282.987409 64.95816 
L 282.987409 64.95816 
L 283.219803 64.238796 
L 283.219803 64.238796 
L 283.916986 83.612543 
L 283.916986 83.612543 
L 284.14938 83.981546 
L 284.14938 83.981546 
L 284.614168 91.285402 
L 284.614168 91.285402 
L 284.846562 96.062265 
L 284.846562 96.062265 
L 285.078956 96.224626 
L 285.078956 96.224626 
L 285.776138 103.544979 
L 285.776138 103.544979 
L 286.008533 103.627309 
L 286.008533 103.627309 
L 286.473321 105.770487 
L 286.473321 105.770487 
L 286.705715 105.832286 
L 286.705715 105.832286 
L 286.938109 106.43888 
L 286.938109 106.43888 
L 287.170503 106.494754 
L 287.170503 106.494754 
L 287.402897 106.113545 
L 287.402897 106.113545 
L 287.867685 106.548228 
L 287.867685 106.548228 
L 288.100079 106.407522 
L 288.100079 106.407522 
L 288.332473 106.604204 
L 288.332473 106.604204 
L 288.564868 106.315897 
L 288.564868 106.315897 
L 288.797262 105.475796 
L 289.029656 105.304241 
L 289.029656 105.304241 
L 289.26205 104.431403 
L 289.26205 104.431403 
L 289.494444 102.567645 
L 289.494444 102.567645 
L 289.726838 98.928383 
L 289.726838 98.928383 
L 289.959232 100.006842 
L 289.959232 100.006842 
L 290.191626 97.619534 
L 290.191626 97.619534 
L 290.42402 93.27955 
L 290.42402 93.27955 
L 290.656414 93.909842 
L 290.656414 93.909842 
L 290.888808 90.681821 
L 290.888808 90.681821 
L 291.121203 85.534729 
L 291.121203 85.534729 
L 291.353597 85.366035 
L 291.353597 85.366035 
L 291.585991 82.288474 
L 291.585991 82.288474 
L 291.818385 76.067214 
L 291.818385 76.067214 
L 292.050779 74.526646 
L 292.050779 74.526646 
L 292.515567 66.718802 
L 292.515567 66.718802 
L 292.747961 58.19716 
L 292.747961 58.19716 
L 292.980355 58.035309 
L 292.980355 58.035309 
L 293.212749 54.095636 
L 293.212749 54.095636 
L 293.445143 53.568 
L 293.445143 53.568 
L 296.001478 53.568 
L 296.001478 53.568 
L 296.233873 53.974388 
L 296.233873 53.974388 
L 296.466267 56.379725 
L 296.466267 56.379725 
L 296.698661 61.12763 
L 296.698661 61.12763 
L 296.931055 61.556746 
L 296.931055 61.556746 
L 297.860631 75.871655 
L 297.860631 75.871655 
L 298.093025 76.25884 
L 298.093025 76.25884 
L 298.790208 86.69659 
L 298.790208 86.69659 
L 299.022602 86.865948 
L 299.022602 86.865948 
L 299.719784 97.740934 
L 299.719784 97.740934 
L 299.952178 97.784755 
L 299.952178 97.784755 
L 301.114149 113.054374 
L 301.114149 113.054374 
L 301.346543 118.27833 
L 301.346543 118.27833 
L 301.578937 117.940073 
L 301.811331 121.300323 
L 301.811331 121.300323 
L 302.043725 127.225564 
L 302.043725 127.225564 
L 302.276119 126.90554 
L 302.276119 126.90554 
L 302.508513 130.158894 
L 302.740907 136.268968 
L 302.740907 136.268968 
L 302.973301 135.823305 
L 302.973301 135.823305 
L 303.205695 139.313484 
L 303.438089 145.558085 
L 303.438089 145.558085 
L 303.670484 144.315937 
L 303.670484 144.315937 
L 303.902878 148.35888 
L 303.902878 148.35888 
L 304.367666 152.174497 
L 304.367666 152.174497 
L 304.60006 156.885834 
L 304.60006 156.885834 
L 304.832454 157.017602 
L 304.832454 157.017602 
L 305.297242 164.436526 
L 305.297242 164.436526 
L 305.529636 163.296115 
L 305.529636 163.296115 
L 305.76203 166.89457 
L 305.76203 166.89457 
L 305.994424 167.041507 
L 305.994424 167.041507 
L 306.459213 170.646856 
L 306.459213 170.646856 
L 306.691607 171.686755 
L 306.691607 171.686755 
L 306.924001 174.530452 
L 306.924001 174.530452 
L 307.156395 174.287191 
L 307.156395 174.287191 
L 307.388789 176.465354 
L 307.388789 176.465354 
L 307.621183 176.9316 
L 307.621183 176.9316 
L 308.550759 180.233422 
L 308.550759 180.233422 
L 308.783154 180.557889 
L 308.783154 180.557889 
L 309.015548 181.14666 
L 309.015548 181.14666 
L 309.247942 181.30468 
L 309.247942 181.30468 
L 309.480336 181.974452 
L 309.480336 181.974452 
L 309.71273 181.981398 
L 309.71273 181.981398 
L 309.945124 182.499279 
L 309.945124 182.499279 
L 310.177518 181.84871 
L 310.177518 181.84871 
L 310.409912 182.414293 
L 310.409912 182.414293 
L 310.642306 182.203719 
L 310.642306 182.203719 
L 310.8747 182.61312 
L 310.8747 182.61312 
L 311.107094 182.09192 
L 311.107094 182.09192 
L 311.339489 182.101981 
L 311.339489 182.101981 
L 311.571883 182.508625 
L 311.804277 182.413374 
L 311.804277 182.413374 
L 312.036671 182.459339 
L 312.036671 182.459339 
L 312.269065 181.503405 
L 312.269065 181.503405 
L 312.501459 182.239061 
L 312.501459 182.239061 
L 312.733853 181.110806 
L 312.733853 181.110806 
L 312.966247 181.665562 
L 312.966247 181.665562 
L 313.198641 181.015096 
L 313.198641 181.015096 
L 313.431035 181.215098 
L 313.431035 181.215098 
L 313.663429 180.133575 
L 313.663429 180.133575 
L 313.895824 179.838474 
L 313.895824 179.838474 
L 314.360612 177.930232 
L 314.360612 177.930232 
L 314.593006 177.153666 
L 314.593006 177.153666 
L 314.8254 173.435752 
L 314.8254 173.435752 
L 315.057794 174.419163 
L 315.057794 174.419163 
L 315.290188 170.973622 
L 315.290188 170.973622 
L 315.522582 171.425516 
L 315.522582 171.425516 
L 315.754976 168.17017 
L 315.98737 167.889779 
L 315.98737 167.889779 
L 316.452159 163.797704 
L 316.452159 163.797704 
L 316.684553 161.752585 
L 316.684553 161.752585 
L 316.916947 155.160892 
L 316.916947 155.160892 
L 317.149341 156.75667 
L 317.149341 156.75667 
L 317.381735 151.269789 
L 317.381735 151.269789 
L 317.614129 150.969428 
L 317.614129 150.969428 
L 317.846523 146.872348 
L 317.846523 146.872348 
L 318.078917 144.938211 
L 318.078917 144.938211 
L 318.311311 141.873572 
L 318.311311 141.873572 
L 318.543705 133.70745 
L 318.543705 133.70745 
L 318.776099 134.610217 
L 318.776099 134.610217 
L 319.008494 128.545292 
L 319.008494 128.545292 
L 319.240888 127.319079 
L 319.240888 127.319079 
L 319.473282 123.269853 
L 319.473282 123.269853 
L 319.705676 114.251577 
L 319.705676 114.251577 
L 319.93807 114.996069 
L 319.93807 114.996069 
L 320.170464 108.886301 
L 320.170464 108.886301 
L 320.402858 106.265181 
L 320.402858 106.265181 
L 320.635252 101.279276 
L 320.635252 101.279276 
L 320.867646 93.483229 
L 320.867646 93.483229 
L 321.10004 92.19246 
L 321.10004 92.19246 
L 321.332434 87.106247 
L 321.332434 87.106247 
L 321.564829 78.583379 
L 321.564829 78.583379 
L 321.797223 77.566311 
L 321.797223 77.566311 
L 322.726799 56.782385 
L 322.726799 56.782385 
L 322.959193 53.568 
L 322.959193 53.568 
L 330.860592 53.568 
L 330.860592 53.568 
L 331.092986 53.967851 
L 331.092986 53.967851 
L 331.557774 62.164566 
L 331.557774 62.164566 
L 331.790169 62.544447 
L 331.790169 62.544447 
L 332.254957 70.19463 
L 332.254957 70.19463 
L 332.719745 85.59188 
L 332.719745 85.59188 
L 332.952139 85.149996 
L 332.952139 85.149996 
L 333.184533 90.471553 
L 333.184533 90.471553 
L 333.649321 109.894433 
L 333.649321 109.894433 
L 333.881715 108.349524 
L 333.881715 108.349524 
L 334.114109 113.480068 
L 334.114109 113.480068 
L 334.346504 121.914579 
L 334.346504 121.914579 
L 334.578898 122.244 
L 334.578898 122.244 
L 334.811292 125.968145 
L 334.811292 125.968145 
L 335.043686 131.954674 
L 335.043686 131.954674 
L 335.27608 132.846307 
L 335.27608 132.846307 
L 335.508474 135.426978 
L 335.508474 135.426978 
L 335.740868 139.808127 
L 335.740868 139.808127 
L 335.973262 140.341891 
L 335.973262 140.341891 
L 336.205656 142.334353 
L 336.205656 142.334353 
L 336.43805 145.44266 
L 336.43805 145.44266 
L 336.670444 145.545419 
L 336.670444 145.545419 
L 337.135233 149.037284 
L 337.135233 149.037284 
L 337.367627 148.886107 
L 337.367627 148.886107 
L 337.600021 149.93479 
L 337.600021 149.93479 
L 338.297203 151.353702 
L 338.297203 151.353702 
L 338.761991 151.65631 
L 338.761991 151.65631 
L 339.691568 151.988745 
L 339.691568 151.988745 
L 339.923962 152.17511 
L 339.923962 152.17511 
L 340.156356 151.742777 
L 340.156356 151.742777 
L 340.38875 151.929959 
L 340.38875 151.929959 
L 340.621144 151.766219 
L 340.621144 151.766219 
L 341.085932 152.017141 
L 341.085932 152.017141 
L 341.318326 151.208501 
L 341.318326 151.208501 
L 341.55072 151.421629 
L 341.55072 151.421629 
L 342.247903 150.627699 
L 342.247903 150.627699 
L 342.480297 149.11328 
L 342.480297 149.11328 
L 342.712691 149.305264 
L 342.712691 149.305264 
L 342.945085 148.608117 
L 342.945085 148.608117 
L 343.177479 146.303292 
L 343.177479 146.303292 
L 343.409873 147.008509 
L 343.409873 147.008509 
L 343.642267 145.116456 
L 343.642267 145.116456 
L 343.874661 145.184026 
L 343.874661 145.184026 
L 344.107055 144.136007 
L 344.107055 144.136007 
L 344.339449 141.011765 
L 344.339449 141.011765 
L 344.571844 141.727299 
L 344.571844 141.727299 
L 344.804238 139.409297 
L 344.804238 139.409297 
L 345.269026 139.018793 
L 345.269026 139.018793 
L 345.50142 141.629801 
L 345.50142 141.629801 
L 345.733814 141.436642 
L 345.733814 141.436642 
L 346.198602 145.395009 
L 346.198602 145.395009 
L 346.430996 147.453815 
L 346.430996 147.453815 
L 346.66339 152.453765 
L 346.66339 152.453765 
L 346.895784 152.852952 
L 346.895784 152.852952 
L 347.128179 156.654115 
L 347.128179 156.654115 
L 347.360573 165.583831 
L 347.360573 165.583831 
L 347.592967 163.379671 
L 347.592967 163.379671 
L 347.825361 172.148455 
L 347.825361 172.148455 
L 348.057755 172.767205 
L 348.057755 172.767205 
L 348.522543 184.115026 
L 348.522543 184.115026 
L 348.754937 189.637198 
L 348.754937 189.637198 
L 348.987331 204.562431 
L 349.219725 201.387474 
L 349.219725 201.387474 
L 349.452119 213.375802 
L 349.452119 213.375802 
L 349.684514 211.781046 
L 349.684514 211.781046 
L 349.916908 221.522874 
L 349.916908 221.522874 
L 350.149302 220.44605 
L 350.149302 220.44605 
L 350.381696 229.989255 
L 350.381696 229.989255 
L 350.61409 228.673817 
L 350.61409 228.673817 
L 350.846484 237.733667 
L 350.846484 237.733667 
L 351.078878 235.657905 
L 351.078878 235.657905 
L 351.311272 245.053713 
L 351.311272 245.053713 
L 351.543666 241.924671 
L 351.543666 241.924671 
L 352.473243 255.888249 
L 352.473243 255.888249 
L 352.705637 255.337529 
L 352.705637 255.337529 
L 352.938031 262.090817 
L 353.170425 259.932469 
L 353.170425 259.932469 
L 353.402819 261.929017 
L 353.402819 261.929017 
L 353.635213 265.686922 
L 353.635213 265.686922 
L 353.867607 265.754798 
L 353.867607 265.754798 
L 354.100001 270.676504 
L 354.100001 270.676504 
L 354.332395 269.342476 
L 354.332395 269.342476 
L 355.029578 274.084814 
L 355.029578 274.084814 
L 355.261972 277.153334 
L 355.261972 277.153334 
L 355.494366 276.944701 
L 355.494366 276.944701 
L 356.191548 279.757958 
L 356.191548 279.757958 
L 356.423942 281.404247 
L 356.423942 281.404247 
L 356.656336 281.238259 
L 356.656336 281.238259 
L 357.121124 282.521368 
L 357.121124 282.521368 
L 357.353519 282.782862 
L 357.353519 282.782862 
L 357.585913 283.370049 
L 357.585913 283.370049 
L 357.818307 283.606211 
L 357.818307 283.606211 
L 358.283095 283.700543 
L 358.283095 283.700543 
L 358.515489 283.813823 
L 358.515489 283.813823 
L 358.747883 283.746662 
L 358.747883 283.746662 
L 358.980277 284.093805 
L 358.980277 284.093805 
L 359.445065 283.797684 
L 359.445065 283.797684 
L 359.677459 283.895539 
L 359.677459 283.895539 
L 359.909854 283.712953 
L 359.909854 283.712953 
L 360.374642 283.906878 
L 360.374642 283.906878 
L 360.607036 283.604576 
L 360.607036 283.604576 
L 360.83943 283.680369 
L 360.83943 283.680369 
L 361.071824 282.909063 
L 361.304218 283.232713 
L 361.304218 283.232713 
L 361.536612 283.060444 
L 361.536612 283.060444 
L 361.769006 282.354308 
L 361.769006 282.354308 
L 362.0014 282.345013 
L 362.0014 282.345013 
L 362.233794 280.156021 
L 362.233794 280.156021 
L 362.466189 280.760675 
L 362.466189 280.760675 
L 362.698583 280.176348 
L 362.698583 280.176348 
L 362.930977 278.615709 
L 362.930977 278.615709 
L 363.163371 278.46535 
L 363.163371 278.46535 
L 363.395765 275.051984 
L 363.395765 275.051984 
L 363.628159 275.868285 
L 363.628159 275.868285 
L 363.860553 274.88998 
L 363.860553 274.88998 
L 364.092947 272.641796 
L 364.092947 272.641796 
L 364.325341 272.044292 
L 364.325341 272.044292 
L 364.557735 267.905127 
L 364.557735 267.905127 
L 364.790129 269.196969 
L 364.790129 269.196969 
L 365.022524 267.609312 
L 365.022524 267.609312 
L 365.254918 264.42271 
L 365.254918 264.42271 
L 365.487312 264.114485 
L 365.487312 264.114485 
L 365.719706 258.855339 
L 365.719706 258.855339 
L 365.9521 260.451014 
L 365.9521 260.451014 
L 366.184494 258.803346 
L 366.184494 258.803346 
L 366.416888 254.620922 
L 366.416888 254.620922 
L 366.649282 254.841609 
L 366.649282 254.841609 
L 366.881676 248.058137 
L 366.881676 248.058137 
L 367.11407 250.32195 
L 367.11407 250.32195 
L 367.346465 248.725662 
L 367.346465 248.725662 
L 367.578859 243.243531 
L 367.578859 243.243531 
L 367.811253 244.210548 
L 367.811253 244.210548 
L 368.043647 235.958163 
L 368.043647 235.958163 
L 368.276041 238.238626 
L 368.276041 238.238626 
L 368.508435 237.122629 
L 368.508435 237.122629 
L 368.740829 230.89049 
L 368.740829 230.89049 
L 368.973223 231.928805 
L 368.973223 231.928805 
L 369.205617 223.091838 
L 369.205617 223.091838 
L 369.438011 225.6554 
L 369.438011 225.6554 
L 369.670405 223.860182 
L 369.670405 223.860182 
L 369.9028 218.301543 
L 369.9028 218.301543 
L 370.135194 218.132747 
L 370.135194 218.132747 
L 370.367588 210.833385 
L 370.367588 210.833385 
L 370.599982 212.071345 
L 370.599982 212.071345 
L 370.832376 203.666916 
L 370.832376 203.666916 
L 371.06477 206.312092 
L 371.06477 206.312092 
L 371.297164 203.687601 
L 371.297164 203.687601 
L 371.529558 199.430406 
L 371.529558 199.430406 
L 371.761952 197.735955 
L 371.761952 197.735955 
L 371.994346 193.510681 
L 371.994346 193.510681 
L 372.22674 192.527627 
L 372.22674 192.527627 
L 372.459135 188.133096 
L 372.459135 188.133096 
L 372.923923 187.497492 
L 372.923923 187.497492 
L 373.156317 187.68825 
L 373.156317 187.68825 
L 373.388711 190.362231 
L 373.388711 190.362231 
L 373.621105 190.490884 
L 373.621105 190.490884 
L 373.853499 192.89239 
L 373.853499 192.89239 
L 374.085893 193.018081 
L 374.085893 193.018081 
L 374.318287 194.81381 
L 374.318287 194.81381 
L 374.550681 194.948387 
L 374.550681 194.948387 
L 374.783075 196.176797 
L 374.783075 196.176797 
L 375.01547 196.227921 
L 375.01547 196.227921 
L 375.247864 197.263631 
L 375.247864 197.263631 
L 375.480258 197.184264 
L 375.480258 197.184264 
L 375.712652 198.005774 
L 375.712652 198.005774 
L 375.945046 197.638508 
L 375.945046 197.638508 
L 376.17744 198.168135 
L 376.17744 198.168135 
L 376.409834 197.534267 
L 376.409834 197.534267 
L 376.642228 198.183712 
L 376.642228 198.183712 
L 376.874622 197.582123 
L 376.874622 197.582123 
L 377.107016 198.199392 
L 377.107016 198.199392 
L 377.33941 197.18028 
L 377.33941 197.18028 
L 377.571805 198.158687 
L 377.571805 198.158687 
L 377.804199 197.09366 
L 377.804199 197.09366 
L 378.036593 197.841523 
L 378.036593 197.841523 
L 378.268987 196.548251 
L 378.268987 196.548251 
L 378.501381 196.934874 
L 378.733775 194.927039 
L 378.733775 194.927039 
L 378.966169 195.259933 
L 378.966169 195.259933 
L 379.198563 193.455573 
L 379.198563 193.455573 
L 379.430957 193.686015 
L 379.430957 193.686015 
L 379.663351 191.338237 
L 379.663351 191.338237 
L 379.895745 191.40596 
L 379.895745 191.40596 
L 380.12814 188.01762 
L 380.12814 188.01762 
L 380.360534 187.862665 
L 380.360534 187.862665 
L 380.592928 184.806044 
L 380.592928 184.806044 
L 380.825322 184.152207 
L 380.825322 184.152207 
L 381.057716 180.466775 
L 381.057716 180.466775 
L 381.29011 179.305578 
L 381.29011 179.305578 
L 381.987292 170.728931 
L 381.987292 170.728931 
L 382.219686 161.436035 
L 382.219686 161.436035 
L 382.45208 164.927236 
L 382.45208 164.927236 
L 382.684475 155.171362 
L 382.684475 155.171362 
L 382.916869 157.084304 
L 382.916869 157.084304 
L 383.149263 148.825892 
L 383.149263 148.825892 
L 383.381657 149.172934 
L 383.381657 149.172934 
L 383.614051 141.609218 
L 383.614051 141.609218 
L 383.846445 139.779577 
L 384.078839 134.718492 
L 384.078839 134.718492 
L 384.311233 121.87132 
L 384.311233 121.87132 
L 384.543627 124.523544 
L 384.543627 124.523544 
L 384.776021 113.957754 
L 384.776021 113.957754 
L 385.008415 112.953045 
L 385.008415 112.953045 
L 385.24081 106.583162 
L 385.24081 106.583162 
L 385.473204 93.665611 
L 385.473204 93.665611 
L 385.705598 94.615417 
L 385.705598 94.615417 
L 385.937992 85.884171 
L 385.937992 85.884171 
L 386.170386 82.744199 
L 386.170386 82.744199 
L 387.332356 55.33569 
L 387.332356 55.33569 
L 387.56475 53.568 
L 387.56475 53.568 
L 396.860514 53.568 
L 396.860514 53.568 
L 397.325302 53.766674 
L 397.325302 53.766674 
L 397.557696 53.568 
L 397.557696 53.568 
L 398.487273 53.568 
L 398.487273 53.568 
" clip-path="url(#p5a02d1df4f)" style="fill: none; stroke: #ff7f0e; stroke-width: 1.5; stroke-linecap: square"/>
   </g>
   <g id="patch_3">
    <path d="M 57.6 307.584 
L 57.6 41.472 
" style="fill: none; stroke: #000000; stroke-width: 0.8; stroke-linejoin: miter; stroke-linecap: square"/>
   </g>
   <g id="patch_4">
    <path d="M 414.72 307.584 
L 414.72 41.472 
" style="fill: none; stroke: #000000; stroke-width: 0.8; stroke-linejoin: miter; stroke-linecap: square"/>
   </g>
   <g id="patch_5">
    <path d="M 57.6 307.584 
L 414.72 307.584 
" style="fill: none; stroke: #000000; stroke-width: 0.8; stroke-linejoin: miter; stroke-linecap: square"/>
   </g>
   <g id="patch_6">
    <path d="M 57.6 41.472 
L 414.72 41.472 
" style="fill: none; stroke: #000000; stroke-width: 0.8; stroke-linejoin: miter; stroke-linecap: square"/>
   </g>
   <g id="text_14">
    <!-- Actual speed vs Expected speed -->
    <g transform="translate(138.808125 35.472) scale(0.12 -0.12)">
     <defs>
      <path id="DejaVuSans-41" d="M 2188 4044 
L 1331 1722 
L 3047 1722 
L 2188 4044 
z
M 1831 4666 
L 2547 4666 
L 4325 0 
L 3669 0 
L 3244 1197 
L 1141 1197 
L 716 0 
L 50 0 
L 1831 4666 
z
" transform="scale(0.015625)"/>
      <path id="DejaVuSans-75" d="M 544 1381 
L 544 3500 
L 1119 3500 
L 1119 1403 
Q 1119 906 1312 657 
Q 1506 409 1894 409 
Q 2359 409 2629 706 
Q 2900 1003 2900 1516 
L 2900 3500 
L 3475 3500 
L 3475 0 
L 2900 0 
L 2900 538 
Q 2691 219 2414 64 
Q 2138 -91 1772 -91 
Q 1169 -91 856 284 
Q 544 659 544 1381 
z
M 1991 3584 
L 1991 3584 
z
" transform="scale(0.015625)"/>
      <path id="DejaVuSans-61" d="M 2194 1759 
Q 1497 1759 1228 1600 
Q 959 1441 959 1056 
Q 959 750 1161 570 
Q 1363 391 1709 391 
Q 2188 391 2477 730 
Q 2766 1069 2766 1631 
L 2766 1759 
L 2194 1759 
z
M 3341 1997 
L 3341 0 
L 2766 0 
L 2766 531 
Q 2569 213 2275 61 
Q 1981 -91 1556 -91 
Q 1019 -91 701 211 
Q 384 513 384 1019 
Q 384 1609 779 1909 
Q 1175 2209 1959 2209 
L 2766 2209 
L 2766 2266 
Q 2766 2663 2505 2880 
Q 2244 3097 1772 3097 
Q 1472 3097 1187 3025 
Q 903 2953 641 2809 
L 641 3341 
Q 956 3463 1253 3523 
Q 1550 3584 1831 3584 
Q 2591 3584 2966 3190 
Q 3341 2797 3341 1997 
z
" transform="scale(0.015625)"/>
      <path id="DejaVuSans-20" transform="scale(0.015625)"/>
      <path id="DejaVuSans-70" d="M 1159 525 
L 1159 -1331 
L 581 -1331 
L 581 3500 
L 1159 3500 
L 1159 2969 
Q 1341 3281 1617 3432 
Q 1894 3584 2278 3584 
Q 2916 3584 3314 3078 
Q 3713 2572 3713 1747 
Q 3713 922 3314 415 
Q 2916 -91 2278 -91 
Q 1894 -91 1617 61 
Q 1341 213 1159 525 
z
M 3116 1747 
Q 3116 2381 2855 2742 
Q 2594 3103 2138 3103 
Q 1681 3103 1420 2742 
Q 1159 2381 1159 1747 
Q 1159 1113 1420 752 
Q 1681 391 2138 391 
Q 2594 391 2855 752 
Q 3116 1113 3116 1747 
z
" transform="scale(0.015625)"/>
      <path id="DejaVuSans-64" d="M 2906 2969 
L 2906 4863 
L 3481 4863 
L 3481 0 
L 2906 0 
L 2906 525 
Q 2725 213 2448 61 
Q 2172 -91 1784 -91 
Q 1150 -91 751 415 
Q 353 922 353 1747 
Q 353 2572 751 3078 
Q 1150 3584 1784 3584 
Q 2172 3584 2448 3432 
Q 2725 3281 2906 2969 
z
M 947 1747 
Q 947 1113 1208 752 
Q 1469 391 1925 391 
Q 2381 391 2643 752 
Q 2906 1113 2906 1747 
Q 2906 2381 2643 2742 
Q 2381 3103 1925 3103 
Q 1469 3103 1208 2742 
Q 947 2381 947 1747 
z
" transform="scale(0.015625)"/>
      <path id="DejaVuSans-76" d="M 191 3500 
L 800 3500 
L 1894 563 
L 2988 3500 
L 3597 3500 
L 2284 0 
L 1503 0 
L 191 3500 
z
" transform="scale(0.015625)"/>
      <path id="DejaVuSans-45" d="M 628 4666 
L 3578 4666 
L 3578 4134 
L 1259 4134 
L 1259 2753 
L 3481 2753 
L 3481 2222 
L 1259 2222 
L 1259 531 
L 3634 531 
L 3634 0 
L 628 0 
L 628 4666 
z
" transform="scale(0.015625)"/>
      <path id="DejaVuSans-78" d="M 3513 3500 
L 2247 1797 
L 3578 0 
L 2900 0 
L 1881 1375 
L 863 0 
L 184 0 
L 1544 1831 
L 300 3500 
L 978 3500 
L 1906 2253 
L 2834 3500 
L 3513 3500 
z
" transform="scale(0.015625)"/>
     </defs>
     <use xlink:href="#DejaVuSans-41"/>
     <use xlink:href="#DejaVuSans-63" x="66.658203"/>
     <use xlink:href="#DejaVuSans-74" x="121.638672"/>
     <use xlink:href="#DejaVuSans-75" x="160.847656"/>
     <use xlink:href="#DejaVuSans-61" x="224.226562"/>
     <use xlink:href="#DejaVuSans-6c" x="285.505859"/>
     <use xlink:href="#DejaVuSans-20" x="313.289062"/>
     <use xlink:href="#DejaVuSans-73" x="345.076172"/>
     <use xlink:href="#DejaVuSans-70" x="397.175781"/>
     <use xlink:href="#DejaVuSans-65" x="460.652344"/>
     <use xlink:href="#DejaVuSans-65" x="522.175781"/>
     <use xlink:href="#DejaVuSans-64" x="583.699219"/>
     <use xlink:href="#DejaVuSans-20" x="647.175781"/>
     <use xlink:href="#DejaVuSans-76" x="678.962891"/>
     <use xlink:href="#DejaVuSans-73" x="738.142578"/>
     <use xlink:href="#DejaVuSans-20" x="790.242188"/>
     <use xlink:href="#DejaVuSans-45" x="822.029297"/>
     <use xlink:href="#DejaVuSans-78" x="885.212891"/>
     <use xlink:href="#DejaVuSans-70" x="944.392578"/>
     <use xlink:href="#DejaVuSans-65" x="1007.869141"/>
     <use xlink:href="#DejaVuSans-63" x="1069.392578"/>
     <use xlink:href="#DejaVuSans-74" x="1124.373047"/>
     <use xlink:href="#DejaVuSans-65" x="1163.582031"/>
     <use xlink:href="#DejaVuSans-64" x="1225.105469"/>
     <use xlink:href="#DejaVuSans-20" x="1288.582031"/>
     <use xlink:href="#DejaVuSans-73" x="1320.369141"/>
     <use xlink:href="#DejaVuSans-70" x="1372.46875"/>
     <use xlink:href="#DejaVuSans-65" x="1435.945312"/>
     <use xlink:href="#DejaVuSans-65" x="1497.46875"/>
     <use xlink:href="#DejaVuSans-64" x="1558.992188"/>
    </g>
   </g>
   <g id="legend_1">
    <g id="patch_7">
     <path d="M 64.6 302.584 
L 176.65 302.584 
Q 178.65 302.584 178.65 300.584 
L 178.65 272.22775 
Q 178.65 270.22775 176.65 270.22775 
L 64.6 270.22775 
Q 62.6 270.22775 62.6 272.22775 
L 62.6 300.584 
Q 62.6 302.584 64.6 302.584 
z
" style="fill: #ffffff; opacity: 0.8; stroke: #cccccc; stroke-linejoin: miter"/>
    </g>
    <g id="line2d_25">
     <path d="M 66.6 278.326187 
L 76.6 278.326187 
L 86.6 278.326187 
" style="fill: none; stroke: #1f77b4; stroke-width: 1.5; stroke-linecap: square"/>
    </g>
    <g id="text_15">
     <!-- Actual speed -->
     <g transform="translate(94.6 281.826187) scale(0.1 -0.1)">
      <use xlink:href="#DejaVuSans-41"/>
      <use xlink:href="#DejaVuSans-63" x="66.658203"/>
      <use xlink:href="#DejaVuSans-74" x="121.638672"/>
      <use xlink:href="#DejaVuSans-75" x="160.847656"/>
      <use xlink:href="#DejaVuSans-61" x="224.226562"/>
      <use xlink:href="#DejaVuSans-6c" x="285.505859"/>
      <use xlink:href="#DejaVuSans-20" x="313.289062"/>
      <use xlink:href="#DejaVuSans-73" x="345.076172"/>
      <use xlink:href="#DejaVuSans-70" x="397.175781"/>
      <use xlink:href="#DejaVuSans-65" x="460.652344"/>
      <use xlink:href="#DejaVuSans-65" x="522.175781"/>
      <use xlink:href="#DejaVuSans-64" x="583.699219"/>
     </g>
    </g>
    <g id="line2d_26">
     <path d="M 66.6 293.004312 
L 76.6 293.004312 
L 86.6 293.004312 
" style="fill: none; stroke: #ff7f0e; stroke-width: 1.5; stroke-linecap: square"/>
    </g>
    <g id="text_16">
     <!-- Expected speed -->
     <g transform="translate(94.6 296.504312) scale(0.1 -0.1)">
      <use xlink:href="#DejaVuSans-45"/>
      <use xlink:href="#DejaVuSans-78" x="63.183594"/>
      <use xlink:href="#DejaVuSans-70" x="122.363281"/>
      <use xlink:href="#DejaVuSans-65" x="185.839844"/>
      <use xlink:href="#DejaVuSans-63" x="247.363281"/>
      <use xlink:href="#DejaVuSans-74" x="302.34375"/>
      <use xlink:href="#DejaVuSans-65" x="341.552734"/>
      <use xlink:href="#DejaVuSans-64" x="403.076172"/>
      <use xlink:href="#DejaVuSans-20" x="466.552734"/>
      <use xlink:href="#DejaVuSans-73" x="498.339844"/>
      <use xlink:href="#DejaVuSans-70" x="550.439453"/>
      <use xlink:href="#DejaVuSans-65" x="613.916016"/>
      <use xlink:href="#DejaVuSans-65" x="675.439453"/>
      <use xlink:href="#DejaVuSans-64" x="736.962891"/>
     </g>
    </g>
   </g>
  </g>
 </g>
 <defs>
  <clipPath id="p5a02d1df4f">
   <rect x="57.6" y="41.472" width="357.12" height="266.112"/>
  </clipPath>
 </defs>
</svg>
