<?xml version="1.0" encoding="utf-8" standalone="no"?>
<!DOCTYPE svg PUBLIC "-//W3C//DTD SVG 1.1//EN"
  "http://www.w3.org/Graphics/SVG/1.1/DTD/svg11.dtd">
<svg xmlns:xlink="http://www.w3.org/1999/xlink" width="460.8pt" height="345.6pt" viewBox="0 0 460.8 345.6" xmlns="http://www.w3.org/2000/svg" version="1.1">
 <metadata>
  <rdf:RDF xmlns:dc="http://purl.org/dc/elements/1.1/" xmlns:cc="http://creativecommons.org/ns#" xmlns:rdf="http://www.w3.org/1999/02/22-rdf-syntax-ns#">
   <cc:Work>
    <dc:type rdf:resource="http://purl.org/dc/dcmitype/StillImage"/>
    <dc:date>2024-01-30T20:59:14.100114</dc:date>
    <dc:format>image/svg+xml</dc:format>
    <dc:creator>
     <cc:Agent>
      <dc:title>Matplotlib v3.7.1, https://matplotlib.org/</dc:title>
     </cc:Agent>
    </dc:creator>
   </cc:Work>
  </rdf:RDF>
 </metadata>
 <defs>
  <style type="text/css">*{stroke-linejoin: round; stroke-linecap: butt}</style>
 </defs>
 <g id="figure_1">
  <g id="patch_1">
   <path d="M 0 345.6 
L 460.8 345.6 
L 460.8 0 
L 0 0 
z
" style="fill: #ffffff"/>
  </g>
  <g id="axes_1">
   <g id="patch_2">
    <path d="M 57.6 307.584 
L 414.72 307.584 
L 414.72 41.472 
L 57.6 41.472 
z
" style="fill: #ffffff"/>
   </g>
   <g id="matplotlib.axis_1">
    <g id="xtick_1">
     <g id="line2d_1">
      <path d="M 73.832727 307.584 
L 73.832727 41.472 
" clip-path="url(#pbcff15c59d)" style="fill: none; stroke: #b0b0b0; stroke-width: 0.8; stroke-linecap: square"/>
     </g>
     <g id="line2d_2">
      <defs>
       <path id="m31679e31ed" d="M 0 0 
L 0 3.5 
" style="stroke: #000000; stroke-width: 0.8"/>
      </defs>
      <g>
       <use xlink:href="#m31679e31ed" x="73.832727" y="307.584" style="stroke: #000000; stroke-width: 0.8"/>
      </g>
     </g>
     <g id="text_1">
      <!-- 0 -->
      <g transform="translate(70.651477 322.182437) scale(0.1 -0.1)">
       <defs>
        <path id="DejaVuSans-30" d="M 2034 4250 
Q 1547 4250 1301 3770 
Q 1056 3291 1056 2328 
Q 1056 1369 1301 889 
Q 1547 409 2034 409 
Q 2525 409 2770 889 
Q 3016 1369 3016 2328 
Q 3016 3291 2770 3770 
Q 2525 4250 2034 4250 
z
M 2034 4750 
Q 2819 4750 3233 4129 
Q 3647 3509 3647 2328 
Q 3647 1150 3233 529 
Q 2819 -91 2034 -91 
Q 1250 -91 836 529 
Q 422 1150 422 2328 
Q 422 3509 836 4129 
Q 1250 4750 2034 4750 
z
" transform="scale(0.015625)"/>
       </defs>
       <use xlink:href="#DejaVuSans-30"/>
      </g>
     </g>
    </g>
    <g id="xtick_2">
     <g id="line2d_3">
      <path d="M 131.972868 307.584 
L 131.972868 41.472 
" clip-path="url(#pbcff15c59d)" style="fill: none; stroke: #b0b0b0; stroke-width: 0.8; stroke-linecap: square"/>
     </g>
     <g id="line2d_4">
      <g>
       <use xlink:href="#m31679e31ed" x="131.972868" y="307.584" style="stroke: #000000; stroke-width: 0.8"/>
      </g>
     </g>
     <g id="text_2">
      <!-- 5 -->
      <g transform="translate(128.791618 322.182437) scale(0.1 -0.1)">
       <defs>
        <path id="DejaVuSans-35" d="M 691 4666 
L 3169 4666 
L 3169 4134 
L 1269 4134 
L 1269 2991 
Q 1406 3038 1543 3061 
Q 1681 3084 1819 3084 
Q 2600 3084 3056 2656 
Q 3513 2228 3513 1497 
Q 3513 744 3044 326 
Q 2575 -91 1722 -91 
Q 1428 -91 1123 -41 
Q 819 9 494 109 
L 494 744 
Q 775 591 1075 516 
Q 1375 441 1709 441 
Q 2250 441 2565 725 
Q 2881 1009 2881 1497 
Q 2881 1984 2565 2268 
Q 2250 2553 1709 2553 
Q 1456 2553 1204 2497 
Q 953 2441 691 2322 
L 691 4666 
z
" transform="scale(0.015625)"/>
       </defs>
       <use xlink:href="#DejaVuSans-35"/>
      </g>
     </g>
    </g>
    <g id="xtick_3">
     <g id="line2d_5">
      <path d="M 190.113009 307.584 
L 190.113009 41.472 
" clip-path="url(#pbcff15c59d)" style="fill: none; stroke: #b0b0b0; stroke-width: 0.8; stroke-linecap: square"/>
     </g>
     <g id="line2d_6">
      <g>
       <use xlink:href="#m31679e31ed" x="190.113009" y="307.584" style="stroke: #000000; stroke-width: 0.8"/>
      </g>
     </g>
     <g id="text_3">
      <!-- 10 -->
      <g transform="translate(183.750509 322.182437) scale(0.1 -0.1)">
       <defs>
        <path id="DejaVuSans-31" d="M 794 531 
L 1825 531 
L 1825 4091 
L 703 3866 
L 703 4441 
L 1819 4666 
L 2450 4666 
L 2450 531 
L 3481 531 
L 3481 0 
L 794 0 
L 794 531 
z
" transform="scale(0.015625)"/>
       </defs>
       <use xlink:href="#DejaVuSans-31"/>
       <use xlink:href="#DejaVuSans-30" x="63.623047"/>
      </g>
     </g>
    </g>
    <g id="xtick_4">
     <g id="line2d_7">
      <path d="M 248.253149 307.584 
L 248.253149 41.472 
" clip-path="url(#pbcff15c59d)" style="fill: none; stroke: #b0b0b0; stroke-width: 0.8; stroke-linecap: square"/>
     </g>
     <g id="line2d_8">
      <g>
       <use xlink:href="#m31679e31ed" x="248.253149" y="307.584" style="stroke: #000000; stroke-width: 0.8"/>
      </g>
     </g>
     <g id="text_4">
      <!-- 15 -->
      <g transform="translate(241.890649 322.182437) scale(0.1 -0.1)">
       <use xlink:href="#DejaVuSans-31"/>
       <use xlink:href="#DejaVuSans-35" x="63.623047"/>
      </g>
     </g>
    </g>
    <g id="xtick_5">
     <g id="line2d_9">
      <path d="M 306.39329 307.584 
L 306.39329 41.472 
" clip-path="url(#pbcff15c59d)" style="fill: none; stroke: #b0b0b0; stroke-width: 0.8; stroke-linecap: square"/>
     </g>
     <g id="line2d_10">
      <g>
       <use xlink:href="#m31679e31ed" x="306.39329" y="307.584" style="stroke: #000000; stroke-width: 0.8"/>
      </g>
     </g>
     <g id="text_5">
      <!-- 20 -->
      <g transform="translate(300.03079 322.182437) scale(0.1 -0.1)">
       <defs>
        <path id="DejaVuSans-32" d="M 1228 531 
L 3431 531 
L 3431 0 
L 469 0 
L 469 531 
Q 828 903 1448 1529 
Q 2069 2156 2228 2338 
Q 2531 2678 2651 2914 
Q 2772 3150 2772 3378 
Q 2772 3750 2511 3984 
Q 2250 4219 1831 4219 
Q 1534 4219 1204 4116 
Q 875 4013 500 3803 
L 500 4441 
Q 881 4594 1212 4672 
Q 1544 4750 1819 4750 
Q 2544 4750 2975 4387 
Q 3406 4025 3406 3419 
Q 3406 3131 3298 2873 
Q 3191 2616 2906 2266 
Q 2828 2175 2409 1742 
Q 1991 1309 1228 531 
z
" transform="scale(0.015625)"/>
       </defs>
       <use xlink:href="#DejaVuSans-32"/>
       <use xlink:href="#DejaVuSans-30" x="63.623047"/>
      </g>
     </g>
    </g>
    <g id="xtick_6">
     <g id="line2d_11">
      <path d="M 364.533431 307.584 
L 364.533431 41.472 
" clip-path="url(#pbcff15c59d)" style="fill: none; stroke: #b0b0b0; stroke-width: 0.8; stroke-linecap: square"/>
     </g>
     <g id="line2d_12">
      <g>
       <use xlink:href="#m31679e31ed" x="364.533431" y="307.584" style="stroke: #000000; stroke-width: 0.8"/>
      </g>
     </g>
     <g id="text_6">
      <!-- 25 -->
      <g transform="translate(358.170931 322.182437) scale(0.1 -0.1)">
       <use xlink:href="#DejaVuSans-32"/>
       <use xlink:href="#DejaVuSans-35" x="63.623047"/>
      </g>
     </g>
    </g>
    <g id="text_7">
     <!-- Time(s) -->
     <g transform="translate(217.420156 335.860562) scale(0.1 -0.1)">
      <defs>
       <path id="DejaVuSans-54" d="M -19 4666 
L 3928 4666 
L 3928 4134 
L 2272 4134 
L 2272 0 
L 1638 0 
L 1638 4134 
L -19 4134 
L -19 4666 
z
" transform="scale(0.015625)"/>
       <path id="DejaVuSans-69" d="M 603 3500 
L 1178 3500 
L 1178 0 
L 603 0 
L 603 3500 
z
M 603 4863 
L 1178 4863 
L 1178 4134 
L 603 4134 
L 603 4863 
z
" transform="scale(0.015625)"/>
       <path id="DejaVuSans-6d" d="M 3328 2828 
Q 3544 3216 3844 3400 
Q 4144 3584 4550 3584 
Q 5097 3584 5394 3201 
Q 5691 2819 5691 2113 
L 5691 0 
L 5113 0 
L 5113 2094 
Q 5113 2597 4934 2840 
Q 4756 3084 4391 3084 
Q 3944 3084 3684 2787 
Q 3425 2491 3425 1978 
L 3425 0 
L 2847 0 
L 2847 2094 
Q 2847 2600 2669 2842 
Q 2491 3084 2119 3084 
Q 1678 3084 1418 2786 
Q 1159 2488 1159 1978 
L 1159 0 
L 581 0 
L 581 3500 
L 1159 3500 
L 1159 2956 
Q 1356 3278 1631 3431 
Q 1906 3584 2284 3584 
Q 2666 3584 2933 3390 
Q 3200 3197 3328 2828 
z
" transform="scale(0.015625)"/>
       <path id="DejaVuSans-65" d="M 3597 1894 
L 3597 1613 
L 953 1613 
Q 991 1019 1311 708 
Q 1631 397 2203 397 
Q 2534 397 2845 478 
Q 3156 559 3463 722 
L 3463 178 
Q 3153 47 2828 -22 
Q 2503 -91 2169 -91 
Q 1331 -91 842 396 
Q 353 884 353 1716 
Q 353 2575 817 3079 
Q 1281 3584 2069 3584 
Q 2775 3584 3186 3129 
Q 3597 2675 3597 1894 
z
M 3022 2063 
Q 3016 2534 2758 2815 
Q 2500 3097 2075 3097 
Q 1594 3097 1305 2825 
Q 1016 2553 972 2059 
L 3022 2063 
z
" transform="scale(0.015625)"/>
       <path id="DejaVuSans-28" d="M 1984 4856 
Q 1566 4138 1362 3434 
Q 1159 2731 1159 2009 
Q 1159 1288 1364 580 
Q 1569 -128 1984 -844 
L 1484 -844 
Q 1016 -109 783 600 
Q 550 1309 550 2009 
Q 550 2706 781 3412 
Q 1013 4119 1484 4856 
L 1984 4856 
z
" transform="scale(0.015625)"/>
       <path id="DejaVuSans-73" d="M 2834 3397 
L 2834 2853 
Q 2591 2978 2328 3040 
Q 2066 3103 1784 3103 
Q 1356 3103 1142 2972 
Q 928 2841 928 2578 
Q 928 2378 1081 2264 
Q 1234 2150 1697 2047 
L 1894 2003 
Q 2506 1872 2764 1633 
Q 3022 1394 3022 966 
Q 3022 478 2636 193 
Q 2250 -91 1575 -91 
Q 1294 -91 989 -36 
Q 684 19 347 128 
L 347 722 
Q 666 556 975 473 
Q 1284 391 1588 391 
Q 1994 391 2212 530 
Q 2431 669 2431 922 
Q 2431 1156 2273 1281 
Q 2116 1406 1581 1522 
L 1381 1569 
Q 847 1681 609 1914 
Q 372 2147 372 2553 
Q 372 3047 722 3315 
Q 1072 3584 1716 3584 
Q 2034 3584 2315 3537 
Q 2597 3491 2834 3397 
z
" transform="scale(0.015625)"/>
       <path id="DejaVuSans-29" d="M 513 4856 
L 1013 4856 
Q 1481 4119 1714 3412 
Q 1947 2706 1947 2009 
Q 1947 1309 1714 600 
Q 1481 -109 1013 -844 
L 513 -844 
Q 928 -128 1133 580 
Q 1338 1288 1338 2009 
Q 1338 2731 1133 3434 
Q 928 4138 513 4856 
z
" transform="scale(0.015625)"/>
      </defs>
      <use xlink:href="#DejaVuSans-54"/>
      <use xlink:href="#DejaVuSans-69" x="57.958984"/>
      <use xlink:href="#DejaVuSans-6d" x="85.742188"/>
      <use xlink:href="#DejaVuSans-65" x="183.154297"/>
      <use xlink:href="#DejaVuSans-28" x="244.677734"/>
      <use xlink:href="#DejaVuSans-73" x="283.691406"/>
      <use xlink:href="#DejaVuSans-29" x="335.791016"/>
     </g>
    </g>
   </g>
   <g id="matplotlib.axis_2">
    <g id="ytick_1">
     <g id="line2d_13">
      <path d="M 57.6 257.8798 
L 414.72 257.8798 
" clip-path="url(#pbcff15c59d)" style="fill: none; stroke: #b0b0b0; stroke-width: 0.8; stroke-linecap: square"/>
     </g>
     <g id="line2d_14">
      <defs>
       <path id="mf0385df96c" d="M 0 0 
L -3.5 0 
" style="stroke: #000000; stroke-width: 0.8"/>
      </defs>
      <g>
       <use xlink:href="#mf0385df96c" x="57.6" y="257.8798" style="stroke: #000000; stroke-width: 0.8"/>
      </g>
     </g>
     <g id="text_8">
      <!-- 4 -->
      <g transform="translate(44.2375 261.679018) scale(0.1 -0.1)">
       <defs>
        <path id="DejaVuSans-34" d="M 2419 4116 
L 825 1625 
L 2419 1625 
L 2419 4116 
z
M 2253 4666 
L 3047 4666 
L 3047 1625 
L 3713 1625 
L 3713 1100 
L 3047 1100 
L 3047 0 
L 2419 0 
L 2419 1100 
L 313 1100 
L 313 1709 
L 2253 4666 
z
" transform="scale(0.015625)"/>
       </defs>
       <use xlink:href="#DejaVuSans-34"/>
      </g>
     </g>
    </g>
    <g id="ytick_2">
     <g id="line2d_15">
      <path d="M 57.6 206.907401 
L 414.72 206.907401 
" clip-path="url(#pbcff15c59d)" style="fill: none; stroke: #b0b0b0; stroke-width: 0.8; stroke-linecap: square"/>
     </g>
     <g id="line2d_16">
      <g>
       <use xlink:href="#mf0385df96c" x="57.6" y="206.907401" style="stroke: #000000; stroke-width: 0.8"/>
      </g>
     </g>
     <g id="text_9">
      <!-- 5 -->
      <g transform="translate(44.2375 210.70662) scale(0.1 -0.1)">
       <use xlink:href="#DejaVuSans-35"/>
      </g>
     </g>
    </g>
    <g id="ytick_3">
     <g id="line2d_17">
      <path d="M 57.6 155.935002 
L 414.72 155.935002 
" clip-path="url(#pbcff15c59d)" style="fill: none; stroke: #b0b0b0; stroke-width: 0.8; stroke-linecap: square"/>
     </g>
     <g id="line2d_18">
      <g>
       <use xlink:href="#mf0385df96c" x="57.6" y="155.935002" style="stroke: #000000; stroke-width: 0.8"/>
      </g>
     </g>
     <g id="text_10">
      <!-- 6 -->
      <g transform="translate(44.2375 159.734221) scale(0.1 -0.1)">
       <defs>
        <path id="DejaVuSans-36" d="M 2113 2584 
Q 1688 2584 1439 2293 
Q 1191 2003 1191 1497 
Q 1191 994 1439 701 
Q 1688 409 2113 409 
Q 2538 409 2786 701 
Q 3034 994 3034 1497 
Q 3034 2003 2786 2293 
Q 2538 2584 2113 2584 
z
M 3366 4563 
L 3366 3988 
Q 3128 4100 2886 4159 
Q 2644 4219 2406 4219 
Q 1781 4219 1451 3797 
Q 1122 3375 1075 2522 
Q 1259 2794 1537 2939 
Q 1816 3084 2150 3084 
Q 2853 3084 3261 2657 
Q 3669 2231 3669 1497 
Q 3669 778 3244 343 
Q 2819 -91 2113 -91 
Q 1303 -91 875 529 
Q 447 1150 447 2328 
Q 447 3434 972 4092 
Q 1497 4750 2381 4750 
Q 2619 4750 2861 4703 
Q 3103 4656 3366 4563 
z
" transform="scale(0.015625)"/>
       </defs>
       <use xlink:href="#DejaVuSans-36"/>
      </g>
     </g>
    </g>
    <g id="ytick_4">
     <g id="line2d_19">
      <path d="M 57.6 104.962603 
L 414.72 104.962603 
" clip-path="url(#pbcff15c59d)" style="fill: none; stroke: #b0b0b0; stroke-width: 0.8; stroke-linecap: square"/>
     </g>
     <g id="line2d_20">
      <g>
       <use xlink:href="#mf0385df96c" x="57.6" y="104.962603" style="stroke: #000000; stroke-width: 0.8"/>
      </g>
     </g>
     <g id="text_11">
      <!-- 7 -->
      <g transform="translate(44.2375 108.761822) scale(0.1 -0.1)">
       <defs>
        <path id="DejaVuSans-37" d="M 525 4666 
L 3525 4666 
L 3525 4397 
L 1831 0 
L 1172 0 
L 2766 4134 
L 525 4134 
L 525 4666 
z
" transform="scale(0.015625)"/>
       </defs>
       <use xlink:href="#DejaVuSans-37"/>
      </g>
     </g>
    </g>
    <g id="ytick_5">
     <g id="line2d_21">
      <path d="M 57.6 53.990204 
L 414.72 53.990204 
" clip-path="url(#pbcff15c59d)" style="fill: none; stroke: #b0b0b0; stroke-width: 0.8; stroke-linecap: square"/>
     </g>
     <g id="line2d_22">
      <g>
       <use xlink:href="#mf0385df96c" x="57.6" y="53.990204" style="stroke: #000000; stroke-width: 0.8"/>
      </g>
     </g>
     <g id="text_12">
      <!-- 8 -->
      <g transform="translate(44.2375 57.789423) scale(0.1 -0.1)">
       <defs>
        <path id="DejaVuSans-38" d="M 2034 2216 
Q 1584 2216 1326 1975 
Q 1069 1734 1069 1313 
Q 1069 891 1326 650 
Q 1584 409 2034 409 
Q 2484 409 2743 651 
Q 3003 894 3003 1313 
Q 3003 1734 2745 1975 
Q 2488 2216 2034 2216 
z
M 1403 2484 
Q 997 2584 770 2862 
Q 544 3141 544 3541 
Q 544 4100 942 4425 
Q 1341 4750 2034 4750 
Q 2731 4750 3128 4425 
Q 3525 4100 3525 3541 
Q 3525 3141 3298 2862 
Q 3072 2584 2669 2484 
Q 3125 2378 3379 2068 
Q 3634 1759 3634 1313 
Q 3634 634 3220 271 
Q 2806 -91 2034 -91 
Q 1263 -91 848 271 
Q 434 634 434 1313 
Q 434 1759 690 2068 
Q 947 2378 1403 2484 
z
M 1172 3481 
Q 1172 3119 1398 2916 
Q 1625 2713 2034 2713 
Q 2441 2713 2670 2916 
Q 2900 3119 2900 3481 
Q 2900 3844 2670 4047 
Q 2441 4250 2034 4250 
Q 1625 4250 1398 4047 
Q 1172 3844 1172 3481 
z
" transform="scale(0.015625)"/>
       </defs>
       <use xlink:href="#DejaVuSans-38"/>
      </g>
     </g>
    </g>
    <g id="text_13">
     <!-- Velocity(m/s) -->
     <g transform="translate(38.157812 207.204563) rotate(-90) scale(0.1 -0.1)">
      <defs>
       <path id="DejaVuSans-56" d="M 1831 0 
L 50 4666 
L 709 4666 
L 2188 738 
L 3669 4666 
L 4325 4666 
L 2547 0 
L 1831 0 
z
" transform="scale(0.015625)"/>
       <path id="DejaVuSans-6c" d="M 603 4863 
L 1178 4863 
L 1178 0 
L 603 0 
L 603 4863 
z
" transform="scale(0.015625)"/>
       <path id="DejaVuSans-6f" d="M 1959 3097 
Q 1497 3097 1228 2736 
Q 959 2375 959 1747 
Q 959 1119 1226 758 
Q 1494 397 1959 397 
Q 2419 397 2687 759 
Q 2956 1122 2956 1747 
Q 2956 2369 2687 2733 
Q 2419 3097 1959 3097 
z
M 1959 3584 
Q 2709 3584 3137 3096 
Q 3566 2609 3566 1747 
Q 3566 888 3137 398 
Q 2709 -91 1959 -91 
Q 1206 -91 779 398 
Q 353 888 353 1747 
Q 353 2609 779 3096 
Q 1206 3584 1959 3584 
z
" transform="scale(0.015625)"/>
       <path id="DejaVuSans-63" d="M 3122 3366 
L 3122 2828 
Q 2878 2963 2633 3030 
Q 2388 3097 2138 3097 
Q 1578 3097 1268 2742 
Q 959 2388 959 1747 
Q 959 1106 1268 751 
Q 1578 397 2138 397 
Q 2388 397 2633 464 
Q 2878 531 3122 666 
L 3122 134 
Q 2881 22 2623 -34 
Q 2366 -91 2075 -91 
Q 1284 -91 818 406 
Q 353 903 353 1747 
Q 353 2603 823 3093 
Q 1294 3584 2113 3584 
Q 2378 3584 2631 3529 
Q 2884 3475 3122 3366 
z
" transform="scale(0.015625)"/>
       <path id="DejaVuSans-74" d="M 1172 4494 
L 1172 3500 
L 2356 3500 
L 2356 3053 
L 1172 3053 
L 1172 1153 
Q 1172 725 1289 603 
Q 1406 481 1766 481 
L 2356 481 
L 2356 0 
L 1766 0 
Q 1100 0 847 248 
Q 594 497 594 1153 
L 594 3053 
L 172 3053 
L 172 3500 
L 594 3500 
L 594 4494 
L 1172 4494 
z
" transform="scale(0.015625)"/>
       <path id="DejaVuSans-79" d="M 2059 -325 
Q 1816 -950 1584 -1140 
Q 1353 -1331 966 -1331 
L 506 -1331 
L 506 -850 
L 844 -850 
Q 1081 -850 1212 -737 
Q 1344 -625 1503 -206 
L 1606 56 
L 191 3500 
L 800 3500 
L 1894 763 
L 2988 3500 
L 3597 3500 
L 2059 -325 
z
" transform="scale(0.015625)"/>
       <path id="DejaVuSans-2f" d="M 1625 4666 
L 2156 4666 
L 531 -594 
L 0 -594 
L 1625 4666 
z
" transform="scale(0.015625)"/>
      </defs>
      <use xlink:href="#DejaVuSans-56"/>
      <use xlink:href="#DejaVuSans-65" x="60.658203"/>
      <use xlink:href="#DejaVuSans-6c" x="122.181641"/>
      <use xlink:href="#DejaVuSans-6f" x="149.964844"/>
      <use xlink:href="#DejaVuSans-63" x="211.146484"/>
      <use xlink:href="#DejaVuSans-69" x="266.126953"/>
      <use xlink:href="#DejaVuSans-74" x="293.910156"/>
      <use xlink:href="#DejaVuSans-79" x="333.119141"/>
      <use xlink:href="#DejaVuSans-28" x="392.298828"/>
      <use xlink:href="#DejaVuSans-6d" x="431.3125"/>
      <use xlink:href="#DejaVuSans-2f" x="528.724609"/>
      <use xlink:href="#DejaVuSans-73" x="562.416016"/>
      <use xlink:href="#DejaVuSans-29" x="614.515625"/>
     </g>
    </g>
   </g>
   <g id="line2d_23">
    <path d="M 73.832727 54.593412 
L 73.832727 54.431472 
L 74.065288 54.020686 
L 74.065288 54.416487 
L 74.530409 54.065185 
L 74.530409 54.453493 
L 74.76297 54.471588 
L 74.76297 54.358021 
L 74.99553 54.064471 
L 74.99553 54.622466 
L 75.228091 54.227532 
L 75.228091 54.324583 
L 75.460651 54.133998 
L 75.460651 54.159739 
L 75.693212 54.250673 
L 75.693212 53.877453 
L 75.925772 54.261938 
L 76.158333 54.323717 
L 76.158333 53.866138 
L 76.390893 54.223556 
L 76.623454 54.191392 
L 76.623454 54.007025 
L 76.856015 53.971243 
L 76.856015 54.22167 
L 77.088575 54.184154 
L 77.088575 54.045051 
L 77.321136 53.986585 
L 77.321136 54.24894 
L 77.553696 54.02298 
L 77.553696 54.131959 
L 77.786257 54.029657 
L 77.786257 54.198529 
L 78.018817 54.140267 
L 78.018817 54.388809 
L 78.251378 54.023846 
L 78.483939 54.129461 
L 78.483939 53.97267 
L 78.716499 54.364597 
L 78.716499 54.13257 
L 78.94906 54.389114 
L 78.94906 53.832904 
L 79.18162 54.220651 
L 79.18162 54.178598 
L 79.414181 54.041992 
L 79.879302 54.146588 
L 79.879302 53.761746 
L 80.111862 54.304449 
L 80.344423 53.994078 
L 80.344423 54.063758 
L 80.576984 54.094749 
L 80.576984 54.04082 
L 80.809544 53.841773 
L 80.809544 54.084554 
L 81.042105 54.127269 
L 81.042105 54.258166 
L 81.507226 54.461291 
L 81.739786 54.014875 
L 81.972347 54.287526 
L 81.972347 54.216726 
L 82.204908 54.03664 
L 82.204908 54.03924 
L 82.437468 54.482955 
L 82.670029 54.181912 
L 82.670029 53.737432 
L 82.902589 54.415314 
L 82.902589 54.021043 
L 83.13515 53.836268 
L 83.13515 54.010033 
L 83.36771 54.49636 
L 83.36771 54.42556 
L 83.600271 54.323564 
L 83.600271 54.064624 
L 83.832831 54.368572 
L 83.832831 54.12156 
L 84.065392 54.21642 
L 84.065392 54.086797 
L 84.297953 54.145364 
L 84.297953 53.894529 
L 84.530513 54.122325 
L 84.530513 53.961303 
L 84.763074 54.026854 
L 84.763074 54.320811 
L 84.995634 54.049383 
L 84.995634 54.282327 
L 85.228195 54.446051 
L 85.228195 53.925571 
L 85.460755 53.650881 
L 85.460755 53.85421 
L 85.693316 54.034754 
L 85.693316 54.198783 
L 85.925877 53.797325 
L 85.925877 54.043063 
L 86.158437 54.211985 
L 86.158437 54.001826 
L 86.390998 54.467816 
L 86.390998 54.457774 
L 86.623558 54.611252 
L 86.623558 54.073035 
L 86.856119 54.351038 
L 86.856119 54.213871 
L 87.088679 54.030473 
L 87.32124 54.219631 
L 87.32124 54.468478 
L 87.5538 54.34645 
L 87.5538 54.065491 
L 87.786361 55.575446 
L 88.018922 57.058335 
L 88.251482 59.580296 
L 88.251482 59.504653 
L 88.484043 60.872039 
L 90.111967 77.376086 
L 90.577088 83.025765 
L 90.809648 84.976784 
L 90.809648 84.663457 
L 91.50733 93.273205 
L 91.50733 92.881023 
L 92.670133 104.286556 
L 92.670133 104.552122 
L 93.367815 111.234196 
L 93.367815 110.630938 
L 93.832936 115.334671 
L 95.69342 127.258695 
L 95.69342 126.989 
L 96.158541 128.732205 
L 96.158541 128.344815 
L 96.856223 131.015361 
L 96.856223 130.81402 
L 97.321344 131.637734 
L 98.019026 132.530821 
L 98.019026 132.472458 
L 98.251586 132.373826 
L 98.484147 132.836299 
L 98.484147 132.43902 
L 98.716707 132.441518 
L 98.716707 132.806021 
L 99.181829 132.680068 
L 99.181829 133.025355 
L 99.64695 132.553657 
L 99.64695 132.989012 
L 99.87951 132.743733 
L 99.87951 132.81749 
L 100.112071 132.856586 
L 100.112071 132.561609 
L 100.344631 132.638985 
L 100.344631 132.361083 
L 100.809753 132.799701 
L 100.809753 132.437848 
L 101.042313 132.010342 
L 101.042313 132.08889 
L 101.274874 132.058562 
L 101.274874 132.418376 
L 101.739995 131.489965 
L 101.739995 131.590686 
L 101.972555 131.565149 
L 101.972555 130.895474 
L 102.205116 130.81978 
L 102.205116 130.670889 
L 102.437676 129.912165 
L 102.437676 130.157546 
L 102.670237 129.562087 
L 103.367919 126.873599 
L 103.367919 127.040176 
L 103.600479 125.421956 
L 103.600479 125.632726 
L 103.83304 124.648908 
L 103.83304 124.94572 
L 104.530722 119.680374 
L 104.763282 117.988243 
L 106.158645 103.662654 
L 106.158645 104.010286 
L 107.321448 86.607493 
L 108.01913 78.353992 
L 109.181933 69.034555 
L 109.181933 69.139456 
L 109.879614 65.207241 
L 109.879614 65.312703 
L 110.112175 63.985484 
L 110.112175 64.348255 
L 110.344736 63.444514 
L 110.577296 62.263891 
L 110.577296 62.482308 
L 111.507538 59.746517 
L 111.507538 60.027273 
L 112.20522 58.01631 
L 112.20522 58.321431 
L 112.670341 57.313554 
L 112.670341 57.396741 
L 112.902902 57.348674 
L 113.368023 56.522768 
L 113.368023 56.796184 
L 113.833144 56.259139 
L 113.833144 55.838667 
L 114.065705 55.785656 
L 114.065705 55.961103 
L 114.530826 55.406574 
L 114.530826 56.259699 
L 114.763386 55.284954 
L 114.763386 55.429461 
L 114.995947 55.260895 
L 114.995947 55.747529 
L 115.228507 55.154771 
L 115.228507 55.67632 
L 115.461068 55.195956 
L 115.461068 55.23439 
L 115.926189 55.006288 
L 115.926189 55.254167 
L 116.15875 55.112566 
L 116.15875 54.947262 
L 116.39131 54.603046 
L 116.39131 54.643263 
L 116.856431 54.628328 
L 116.856431 54.467765 
L 117.088992 54.564103 
L 117.321552 54.269686 
L 117.321552 54.511193 
L 117.554113 54.144498 
L 117.554113 54.512519 
L 117.786674 54.570168 
L 117.786674 54.255159 
L 118.251795 54.726042 
L 118.251795 54.413326 
L 118.484355 54.088989 
L 118.716916 54.157343 
L 118.716916 54.498756 
L 118.949476 54.781041 
L 118.949476 54.356951 
L 119.182037 54.162542 
L 119.182037 54.487899 
L 119.414598 54.148117 
L 119.647158 54.158923 
L 119.647158 54.107237 
L 119.879719 53.995302 
L 119.879719 54.450995 
L 120.112279 53.840498 
L 120.112279 54.208162 
L 120.34484 54.623434 
L 120.34484 54.058711 
L 120.5774 54.560433 
L 120.5774 54.380041 
L 120.809961 54.310107 
L 120.809961 53.944992 
L 121.042521 54.62899 
L 121.042521 54.181759 
L 121.275082 54.472607 
L 121.275082 54.29191 
L 121.507643 53.96324 
L 121.507643 54.045407 
L 121.740203 55.745439 
L 121.972764 55.323642 
L 121.972764 55.431194 
L 122.205324 55.212268 
L 122.205324 55.220678 
L 122.437885 55.603124 
L 122.437885 55.452246 
L 122.670445 55.410907 
L 122.670445 55.10283 
L 122.903006 54.87274 
L 122.903006 54.641326 
L 123.135567 55.096407 
L 123.368127 54.856276 
L 123.368127 54.695153 
L 123.600688 54.911225 
L 123.600688 54.758613 
L 124.065809 54.360264 
L 124.065809 54.547129 
L 124.298369 54.80719 
L 124.298369 54.689444 
L 124.53093 54.675375 
L 124.53093 54.734707 
L 124.76349 54.407006 
L 124.76349 54.095157 
L 124.996051 54.331312 
L 124.996051 54.5587 
L 125.228612 54.205257 
L 125.228612 54.46751 
L 125.461172 54.190169 
L 125.461172 54.38101 
L 125.693733 54.145823 
L 125.693733 54.217032 
L 125.926293 54.402928 
L 125.926293 54.175846 
L 126.158854 54.137515 
L 126.158854 54.37367 
L 126.391414 54.316632 
L 126.391414 54.172482 
L 126.623975 54.375913 
L 126.623975 54.279422 
L 126.856536 53.896925 
L 127.089096 56.179214 
L 127.089096 56.134409 
L 127.321657 55.710217 
L 127.321657 55.80003 
L 127.554217 55.88648 
L 127.554217 55.425689 
L 127.786778 54.943898 
L 127.786778 55.392863 
L 128.019338 55.647062 
L 128.019338 55.104614 
L 128.251899 54.992577 
L 128.251899 55.211605 
L 128.484459 54.849191 
L 128.484459 55.193255 
L 128.71702 55.182959 
L 128.71702 54.864126 
L 128.949581 55.199881 
L 128.949581 54.645455 
L 129.182141 54.726501 
L 129.182141 55.019796 
L 129.414702 54.524344 
L 129.414702 54.692043 
L 129.647262 55.100944 
L 129.647262 54.540706 
L 129.879823 54.240683 
L 130.112383 54.696121 
L 130.344944 54.278351 
L 130.344944 54.618082 
L 130.577505 54.57445 
L 130.577505 54.343953 
L 130.810065 54.37 
L 130.810065 54.648156 
L 131.042626 54.355829 
L 131.042626 54.457061 
L 131.275186 54.347929 
L 131.275186 54.117381 
L 131.507747 54.375301 
L 131.507747 54.04816 
L 131.740307 55.83668 
L 132.437989 66.649149 
L 132.437989 66.319153 
L 133.833352 98.410458 
L 133.833352 98.801518 
L 134.298474 107.293673 
L 134.298474 106.871163 
L 134.996155 120.716031 
L 134.996155 120.406883 
L 135.926397 137.805751 
L 135.926397 137.657166 
L 137.786882 162.043177 
L 138.949685 172.933278 
L 138.949685 172.678467 
L 140.345048 182.004682 
L 140.345048 181.696758 
L 140.810169 184.576087 
L 140.810169 184.197413 
L 141.04273 185.821343 
L 141.04273 185.660066 
L 141.507851 187.889242 
L 141.507851 188.199409 
L 142.205533 190.954059 
L 142.205533 190.923323 
L 142.670654 193.11534 
L 142.670654 193.112893 
L 142.903214 193.773903 
L 143.368336 195.815297 
L 143.368336 195.727268 
L 143.833457 196.881793 
L 143.833457 197.179777 
L 144.531138 198.704566 
L 144.763699 199.493312 
L 144.763699 198.839184 
L 144.996259 200.234043 
L 144.996259 199.849966 
L 145.22882 200.192705 
L 145.22882 200.507306 
L 145.461381 201.17795 
L 145.461381 200.982216 
L 145.693941 201.223469 
L 145.693941 200.998425 
L 146.159062 201.822037 
L 146.624183 202.354852 
L 146.624183 201.853436 
L 146.856744 202.258718 
L 147.089305 202.100092 
L 147.321865 202.579131 
L 147.554426 202.335024 
L 147.554426 202.530707 
L 147.786986 202.718336 
L 147.786986 202.457154 
L 148.019547 202.658953 
L 148.019547 202.243426 
L 148.252107 202.64672 
L 148.252107 202.534835 
L 148.484668 202.822982 
L 148.484668 202.450323 
L 148.717228 202.327989 
L 148.717228 202.745861 
L 148.949789 202.990886 
L 148.949789 202.625413 
L 149.41491 202.254844 
L 149.41491 202.571128 
L 149.647471 202.446347 
L 149.647471 202.671492 
L 150.112592 202.51042 
L 150.112592 202.512917 
L 150.577713 201.955483 
L 150.577713 202.54503 
L 150.810274 201.59572 
L 150.810274 201.927856 
L 151.275395 201.520689 
L 151.507955 201.540364 
L 151.507955 201.50346 
L 151.973076 200.414486 
L 151.973076 200.521884 
L 152.205637 200.168952 
L 152.205637 199.848233 
L 152.438197 199.397688 
L 152.670758 198.534573 
L 152.670758 198.902135 
L 152.903319 198.294238 
L 152.903319 197.962204 
L 153.36844 196.311004 
L 153.36844 196.375892 
L 153.601 194.793402 
L 153.601 195.129209 
L 154.298682 191.251534 
L 155.228924 182.913622 
L 155.228924 183.1955 
L 155.461485 180.754024 
L 155.461485 181.014238 
L 156.391727 167.034955 
L 156.391727 167.406799 
L 156.856848 163.272785 
L 156.856848 163.340629 
L 157.321969 160.993962 
L 157.321969 161.223796 
L 157.78709 160.021459 
L 158.019651 159.816142 
L 158.019651 160.126411 
L 158.252212 160.057803 
L 158.252212 160.222545 
L 158.484772 160.64215 
L 158.484772 161.061602 
L 158.717333 161.110841 
L 158.717333 161.582234 
L 159.182454 163.737398 
L 159.415014 164.525024 
L 159.880135 165.744181 
L 159.880135 165.554666 
L 160.577817 167.932019 
L 160.577817 167.303172 
L 160.810378 167.848577 
L 161.042938 167.880537 
L 161.042938 168.006387 
L 161.275499 167.93314 
L 161.275499 168.048542 
L 161.508059 168.141107 
L 161.508059 168.478239 
L 161.74062 168.519119 
L 161.74062 168.048287 
L 162.205741 168.382819 
L 162.205741 168.808948 
L 162.438302 168.296777 
L 162.438302 167.999353 
L 162.670862 168.300294 
L 162.670862 168.790496 
L 162.903423 169.023949 
L 162.903423 168.133615 
L 163.135983 168.434199 
L 163.135983 168.721938 
L 163.368544 168.089982 
L 163.368544 168.134991 
L 163.601104 168.299173 
L 163.833665 168.217668 
L 163.833665 168.51341 
L 164.066226 167.656615 
L 164.298786 168.475384 
L 164.298786 167.83828 
L 164.531347 167.409246 
L 164.531347 167.814833 
L 164.996468 166.802317 
L 164.996468 166.98067 
L 165.229028 166.516566 
L 165.461589 166.57707 
L 165.461589 166.290809 
L 166.624392 162.549435 
L 166.856952 161.104827 
L 166.856952 161.296483 
L 167.089513 160.456305 
L 167.089513 160.49433 
L 167.554634 157.835049 
L 167.554634 157.908602 
L 168.252316 152.825482 
L 169.88024 137.505523 
L 170.577921 128.674555 
L 171.740724 113.459906 
L 171.740724 114.120355 
L 171.973285 112.199868 
L 172.205845 111.163905 
L 172.670966 112.902727 
L 172.903527 115.610635 
L 172.903527 115.461898 
L 173.833769 136.951912 
L 173.833769 136.622427 
L 174.29889 147.112546 
L 174.764011 159.201772 
L 176.159375 189.75264 
L 177.322178 208.677723 
L 177.322178 208.562831 
L 178.019859 220.060726 
L 178.25242 222.448426 
L 178.717541 229.118114 
L 178.717541 228.722211 
L 179.415223 238.582159 
L 179.415223 238.326838 
L 179.647783 240.018714 
L 180.345465 246.119244 
L 181.043147 252.806721 
L 181.973389 258.57593 
L 182.43851 261.501592 
L 182.43851 261.349848 
L 182.903631 263.94368 
L 182.903631 263.706658 
L 183.368752 265.364383 
L 183.368752 265.664865 
L 183.601313 265.780725 
L 183.601313 265.981353 
L 184.066434 267.875181 
L 184.066434 267.424942 
L 184.298995 267.822782 
L 184.298995 267.816206 
L 184.531555 268.856247 
L 184.531555 268.528036 
L 184.764116 269.045355 
L 184.764116 268.912622 
L 184.996676 268.988316 
L 184.996676 269.574703 
L 185.229237 269.371017 
L 185.229237 269.550287 
L 185.461797 269.859944 
L 185.461797 269.546719 
L 185.926918 269.851432 
L 185.926918 269.476785 
L 186.159479 270.308705 
L 186.39204 269.784556 
L 186.39204 270.079024 
L 186.6246 270.391179 
L 186.6246 270.112156 
L 186.857161 269.833999 
L 186.857161 270.684627 
L 187.322282 269.836191 
L 187.322282 270.413454 
L 187.554842 270.067045 
L 187.554842 270.276236 
L 187.787403 270.17633 
L 187.787403 270.304628 
L 188.019964 270.188665 
L 188.019964 270.245958 
L 188.485085 269.71977 
L 188.485085 270.479667 
L 188.717645 269.988752 
L 188.950206 269.939716 
L 188.950206 270.172099 
L 189.182766 269.673029 
L 189.182766 270.08723 
L 189.415327 269.532039 
L 189.647887 269.577965 
L 189.647887 269.708353 
L 189.880448 269.316935 
L 189.880448 269.703306 
L 190.113009 268.786364 
L 190.113009 269.016657 
L 190.345569 268.735086 
L 190.57813 268.732435 
L 190.57813 268.417935 
L 191.275811 267.211979 
L 191.275811 267.242818 
L 191.508372 266.422774 
L 191.508372 266.460748 
L 191.740933 265.022613 
L 191.973493 264.516661 
L 192.903735 259.9923 
L 193.368856 256.958015 
L 193.368856 257.301416 
L 193.833978 253.472318 
L 194.531659 247.046075 
L 194.531659 247.159692 
L 195.461902 238.15445 
L 195.461902 238.56228 
L 195.927023 237.18001 
L 195.927023 237.344498 
L 196.159583 240.280814 
L 196.159583 240.09711 
L 196.392144 240.553822 
L 196.392144 240.474815 
L 196.857265 245.621957 
L 196.857265 245.922541 
L 197.089825 248.319773 
L 197.322386 253.450961 
L 197.787507 258.877227 
L 197.787507 258.27504 
L 198.717749 270.650985 
L 199.182871 275.261439 
L 199.880552 281.474821 
L 199.880552 281.347339 
L 200.810794 287.41963 
L 200.810794 286.973621 
L 201.741037 291.09948 
L 201.741037 290.984589 
L 202.206158 292.741505 
L 202.438718 292.833001 
L 202.438718 293.101217 
L 202.90384 294.133052 
L 202.90384 293.744642 
L 203.1364 294.219348 
L 203.1364 293.949194 
L 203.368961 294.681719 
L 203.368961 294.418701 
L 203.601521 294.412635 
L 203.601521 294.751755 
L 203.834082 294.694717 
L 203.834082 294.936835 
L 204.066642 294.900849 
L 204.066642 295.214329 
L 204.299203 294.853496 
L 204.531763 295.401449 
L 204.531763 295.355166 
L 204.764324 294.971191 
L 204.764324 295.202606 
L 204.996885 295.23375 
L 204.996885 294.904468 
L 205.229445 295.404048 
L 205.229445 295.115749 
L 205.694566 295.488 
L 205.694566 295.350884 
L 205.927127 295.071657 
L 205.927127 295.266372 
L 206.159687 295.257299 
L 206.159687 295.106115 
L 206.392248 295.251131 
L 206.624809 295.384067 
L 206.624809 294.838968 
L 206.857369 294.782644 
L 206.857369 294.78402 
L 207.08993 294.855127 
L 207.08993 295.084095 
L 207.32249 294.998614 
L 207.32249 294.529056 
L 207.555051 294.642623 
L 207.555051 294.199163 
L 207.787611 294.291933 
L 207.787611 294.496791 
L 208.252732 293.089749 
L 208.252732 293.123696 
L 208.485293 292.93046 
L 208.485293 293.169113 
L 208.717854 292.732534 
L 208.717854 292.028707 
L 208.950414 291.777413 
L 208.950414 291.954848 
L 209.415535 290.004593 
L 209.880656 288.499582 
L 209.880656 287.928538 
L 210.113217 287.559498 
L 210.113217 287.049825 
L 210.345778 286.244003 
L 210.345778 286.780028 
L 210.578338 284.559875 
L 210.578338 284.591579 
L 210.810899 283.532016 
L 211.50858 279.181114 
L 211.973701 275.369092 
L 212.671383 268.042778 
L 212.671383 268.331384 
L 213.601625 256.74021 
L 213.601625 256.862798 
L 214.066747 252.038872 
L 214.066747 252.405874 
L 214.531868 250.234857 
L 214.996989 249.025537 
L 214.996989 249.44137 
L 215.229549 249.92469 
L 215.69467 253.359312 
L 215.69467 252.986806 
L 215.927231 256.69673 
L 215.927231 255.98383 
L 216.392352 258.92453 
L 216.392352 258.820189 
L 217.090034 264.918374 
L 217.090034 264.521758 
L 217.787716 268.723464 
L 217.787716 268.261603 
L 218.020276 269.516136 
L 218.252837 271.462313 
L 218.252837 270.997546 
L 218.485397 272.137136 
L 218.485397 272.119755 
L 218.717958 272.482168 
L 218.717958 272.851362 
L 219.183079 274.699876 
L 219.183079 274.487372 
L 219.415639 274.780055 
L 219.415639 275.820351 
L 219.6482 275.672786 
L 219.6482 275.889877 
L 219.880761 276.339964 
L 219.880761 276.723735 
L 220.113321 276.869363 
L 220.113321 277.067289 
L 220.578442 277.766477 
L 220.578442 277.560549 
L 220.811003 277.760462 
L 221.043563 278.411227 
L 221.043563 277.762909 
L 221.276124 278.326256 
L 221.276124 278.242355 
L 221.508685 278.420708 
L 221.508685 278.405977 
L 221.741245 278.987215 
L 221.741245 278.693104 
L 221.973806 278.512968 
L 222.206366 278.660533 
L 222.206366 278.826652 
L 222.438927 278.719355 
L 222.438927 278.917128 
L 222.671487 279.135698 
L 222.671487 278.743567 
L 222.904048 278.798362 
L 222.904048 279.171022 
L 223.136608 278.773692 
L 223.136608 278.917944 
L 223.369169 278.788372 
L 223.369169 278.567457 
L 223.60173 279.179126 
L 223.60173 279.010509 
L 223.83429 278.989509 
L 223.83429 278.572351 
L 224.066851 278.889501 
L 224.299411 278.952248 
L 224.299411 278.768849 
L 224.531972 278.732965 
L 224.531972 278.516281 
L 224.764532 278.901734 
L 224.764532 278.812176 
L 224.997093 278.257953 
L 224.997093 278.607063 
L 225.229654 278.282318 
L 225.229654 278.441199 
L 225.462214 278.485035 
L 225.462214 278.375138 
L 225.694775 277.756537 
L 225.694775 277.907824 
L 225.927335 278.079091 
L 225.927335 277.890493 
L 226.159896 278.054165 
L 226.159896 277.634255 
L 226.392456 277.706228 
L 226.392456 277.43847 
L 227.090138 276.823386 
L 227.090138 276.540744 
L 227.322699 276.130926 
L 227.322699 276.441144 
L 228.485501 273.384533 
L 228.485501 273.460533 
L 228.718062 272.02882 
L 229.183183 271.137975 
L 229.183183 271.20791 
L 229.415744 270.384807 
L 229.415744 269.69041 
L 229.648304 269.162744 
L 229.648304 269.331259 
L 230.113425 266.802773 
L 230.345986 265.871813 
L 230.811107 263.584783 
L 230.811107 263.5149 
L 232.439031 253.190696 
L 233.369273 246.230415 
L 233.369273 246.418605 
L 235.229758 229.702716 
L 236.625121 213.7271 
L 236.625121 214.026053 
L 237.322803 203.632169 
L 237.322803 203.873575 
L 237.787924 197.836709 
L 237.787924 198.059459 
L 238.485606 187.812834 
L 238.485606 186.955581 
L 240.11353 162.061069 
L 240.11353 162.452231 
L 240.811211 149.427713 
L 241.276332 142.264663 
L 244.764741 83.733211 
L 244.764741 84.382089 
L 245.229862 78.362708 
L 246.857786 66.36355 
L 246.857786 66.620145 
L 247.322907 64.185907 
L 248.253149 60.655712 
L 248.950831 59.094886 
L 249.183392 58.810001 
L 249.183392 59.039683 
L 249.415952 58.592757 
L 249.415952 58.313887 
L 249.648513 57.894486 
L 249.881073 57.332719 
L 249.881073 57.424062 
L 250.113634 57.559037 
L 250.113634 57.243875 
L 250.346194 56.975097 
L 250.346194 57.251826 
L 250.811315 56.115753 
L 251.276437 56.074211 
L 251.276437 55.701756 
L 251.741558 55.607406 
L 251.741558 55.475642 
L 251.974118 55.311154 
L 251.974118 55.448983 
L 252.206679 55.362789 
L 252.206679 55.181073 
L 252.439239 55.163385 
L 252.439239 54.728183 
L 252.6718 55.192694 
L 252.904361 55.158339 
L 252.904361 54.837875 
L 253.136921 54.927893 
L 253.136921 54.864789 
L 253.369482 54.844655 
L 253.369482 54.474442 
L 253.602042 54.199752 
L 253.602042 54.634394 
L 253.834603 54.503344 
L 254.067163 55.07872 
L 254.067163 54.721811 
L 254.299724 54.57236 
L 254.299724 54.809739 
L 254.532284 54.42714 
L 254.532284 54.600701 
L 254.764845 54.418627 
L 254.764845 54.121051 
L 254.997406 54.673897 
L 254.997406 54.613138 
L 255.229966 54.531327 
L 255.229966 54.399971 
L 255.462527 54.173042 
L 255.695087 54.676803 
L 255.695087 54.294917 
L 255.927648 54.094188 
L 255.927648 54.317039 
L 256.160208 54.062789 
L 256.160208 54.280849 
L 256.85789 54.127524 
L 256.85789 54.018902 
L 257.090451 53.568 
L 257.090451 54.157496 
L 257.323011 54.24894 
L 257.323011 54.726959 
L 257.555572 54.710852 
L 257.555572 54.796741 
L 257.788132 54.819016 
L 257.788132 54.637197 
L 258.020693 54.918514 
L 258.020693 54.694592 
L 258.253253 54.265149 
L 258.485814 54.823705 
L 258.485814 54.219325 
L 258.718375 54.719568 
L 258.718375 54.408688 
L 258.950935 53.959468 
L 258.950935 54.246086 
L 259.183496 55.387664 
L 259.416056 54.64051 
L 259.416056 55.2035 
L 259.648617 54.65203 
L 259.881177 55.105939 
L 259.881177 54.488562 
L 260.113738 54.556966 
L 260.113738 54.695357 
L 260.346299 55.046454 
L 260.578859 54.777269 
L 260.578859 54.966937 
L 260.81142 54.613648 
L 260.81142 55.209413 
L 261.04398 54.368318 
L 261.04398 54.753822 
L 261.276541 54.775077 
L 261.276541 54.171054 
L 261.509101 54.400328 
L 261.509101 54.179414 
L 261.741662 54.790879 
L 261.741662 54.374995 
L 261.974222 54.72176 
L 261.974222 54.632864 
L 262.206783 54.665538 
L 262.206783 54.585154 
L 262.439344 54.08802 
L 262.439344 54.44758 
L 262.671904 54.23161 
L 262.671904 54.284774 
L 262.904465 53.85579 
L 262.904465 54.454359 
L 263.369586 54.968416 
L 263.369586 54.603504 
L 263.602146 54.31077 
L 263.602146 54.337072 
L 263.834707 54.57236 
L 263.834707 54.74011 
L 264.067268 54.270655 
L 264.067268 54.426069 
L 264.299828 54.375097 
L 264.299828 54.573889 
L 264.532389 54.117279 
L 264.532389 54.133539 
L 265.23007 54.57654 
L 265.23007 54.264385 
L 265.462631 54.034499 
L 265.462631 54.54718 
L 265.695191 54.552583 
L 265.695191 54.340232 
L 265.927752 54.037762 
L 265.927752 54.462617 
L 266.160313 54.072933 
L 266.392873 54.309139 
L 266.392873 54.47852 
L 266.625434 54.453594 
L 266.625434 53.69905 
L 266.857994 53.924042 
L 266.857994 54.184358 
L 267.090555 55.165628 
L 267.090555 54.862087 
L 267.323115 55.192643 
L 267.323115 55.100638 
L 267.788237 54.805202 
L 267.788237 55.115624 
L 268.020797 54.740467 
L 268.020797 54.031951 
L 268.253358 54.80036 
L 268.253358 54.265353 
L 268.485918 54.710393 
L 268.485918 54.255618 
L 268.718479 54.028332 
L 268.718479 54.389165 
L 268.951039 54.498858 
L 268.951039 54.812491 
L 269.1836 54.166722 
L 269.41616 54.26622 
L 269.41616 54.426324 
L 269.648721 54.230692 
L 269.648721 54.729865 
L 269.881282 54.331974 
L 269.881282 54.08537 
L 270.113842 54.220854 
L 270.113842 54.495035 
L 270.346403 54.29665 
L 270.346403 54.09745 
L 270.578963 54.419341 
L 270.578963 54.181963 
L 270.811524 54.464554 
L 270.811524 54.24104 
L 271.044084 54.100916 
L 271.044084 54.381112 
L 271.276645 54.635413 
L 271.276645 53.942749 
L 271.509206 54.35797 
L 271.509206 54.159127 
L 271.741766 53.963138 
L 271.741766 54.248736 
L 271.974327 54.549677 
L 271.974327 54.292216 
L 272.206887 54.940993 
L 272.439448 54.742557 
L 272.439448 55.003689 
L 272.672008 54.318059 
L 272.672008 54.433409 
L 272.904569 54.438609 
L 272.904569 54.604167 
L 273.137129 54.082108 
L 273.137129 54.451759 
L 273.36969 54.167639 
L 273.602251 54.192718 
L 273.602251 54.566091 
L 273.834811 54.628787 
L 273.834811 54.533876 
L 274.067372 54.097246 
L 274.067372 54.108002 
L 274.299932 54.446102 
L 274.299932 54.298638 
L 274.765053 54.17029 
L 274.997614 53.615863 
L 274.997614 54.367808 
L 275.230175 54.726348 
L 275.230175 54.954041 
L 275.462735 54.982688 
L 275.462735 54.963267 
L 275.695296 54.649991 
L 275.695296 54.717326 
L 275.927856 54.939209 
L 275.927856 54.583523 
L 276.160417 54.443196 
L 276.160417 54.750203 
L 276.392977 54.433002 
L 276.392977 54.619408 
L 276.858098 54.378002 
L 276.858098 54.112487 
L 277.090659 54.217898 
L 277.090659 54.078743 
L 277.32322 54.472097 
L 277.55578 54.313369 
L 277.788341 54.576591 
L 277.788341 54.116157 
L 278.020901 54.303277 
L 278.020901 53.968337 
L 278.253462 54.351089 
L 278.486022 53.800179 
L 278.486022 54.18181 
L 278.718583 54.949097 
L 278.718583 55.493278 
L 278.951144 54.357155 
L 279.183704 54.935589 
L 279.416265 54.861119 
L 279.416265 54.577916 
L 279.648825 54.724717 
L 279.648825 54.553245 
L 279.881386 54.311127 
L 279.881386 54.626391 
L 280.113946 54.591271 
L 280.346507 54.892518 
L 280.346507 54.607735 
L 280.579067 54.805763 
L 280.579067 54.58806 
L 280.811628 54.517667 
L 280.811628 54.059425 
L 281.044189 54.548148 
L 281.044189 54.144549 
L 281.276749 54.079559 
L 281.276749 54.121152 
L 281.50931 54.36949 
L 281.50931 54.137413 
L 281.74187 54.390847 
L 281.74187 53.982609 
L 281.974431 54.206276 
L 282.206991 54.178089 
L 282.206991 54.408892 
L 282.439552 53.819396 
L 282.439552 54.282939 
L 282.672113 54.840424 
L 282.672113 54.594074 
L 282.904673 54.938138 
L 282.904673 54.35848 
L 283.137234 54.920094 
L 283.137234 55.306669 
L 283.369794 57.716542 
L 284.997718 87.391806 
L 284.997718 87.162736 
L 285.92796 97.691696 
L 286.393082 101.52793 
L 286.393082 101.501475 
L 286.858203 104.274935 
L 287.323324 105.684729 
L 287.323324 105.239791 
L 287.555884 105.602562 
L 287.555884 106.278609 
L 287.788445 106.055298 
L 287.788445 106.155459 
L 288.021005 106.374743 
L 288.253566 106.859133 
L 288.486127 106.546519 
L 288.718687 106.712129 
L 288.718687 106.856177 
L 288.951248 106.455075 
L 288.951248 106.572413 
L 289.183808 106.454769 
L 289.183808 106.769116 
L 289.416369 106.298284 
L 289.416369 106.527864 
L 289.648929 106.399107 
L 289.648929 105.851103 
L 289.88149 105.902432 
L 289.88149 105.843508 
L 290.114051 105.486039 
L 290.114051 104.997621 
L 290.346611 104.641732 
L 290.579172 104.200719 
L 290.579172 103.670963 
L 290.811732 103.083964 
L 290.811732 103.193657 
L 291.509414 99.411556 
L 292.439656 92.369413 
L 293.137338 85.133881 
L 293.83502 76.9653 
L 294.532701 71.189974 
L 294.532701 71.527768 
L 294.765262 69.873612 
L 295.462943 65.661609 
L 295.462943 65.81784 
L 296.393186 62.03212 
L 296.393186 62.065456 
L 296.625746 61.319271 
L 297.090867 61.199129 
L 297.090867 60.904916 
L 297.323428 62.082786 
L 298.02111 68.359833 
L 298.02111 68.152885 
L 298.718791 76.561343 
L 299.183912 81.278992 
L 299.183912 81.062206 
L 299.649034 87.085105 
L 299.649034 87.002478 
L 305.230487 155.297847 
L 305.695608 159.324616 
L 305.695608 159.300149 
L 306.39329 165.444719 
L 306.39329 165.272432 
L 307.090972 169.686794 
L 307.090972 170.382517 
L 307.323532 171.27907 
L 307.323532 171.766723 
L 307.788653 174.352349 
L 308.021214 175.751541 
L 308.021214 175.729776 
L 308.253774 176.216359 
L 308.253774 176.593453 
L 308.486335 177.595315 
L 308.486335 177.557748 
L 308.718896 178.005082 
L 308.718896 177.944374 
L 308.951456 178.996342 
L 308.951456 178.604161 
L 309.416577 180.143068 
L 309.649138 180.487846 
L 309.881698 181.563312 
L 309.881698 181.318747 
L 310.114259 181.362073 
L 310.114259 181.826432 
L 310.346819 182.167488 
L 310.346819 181.660007 
L 310.57938 182.16127 
L 310.57938 182.432086 
L 310.811941 182.298742 
L 311.044501 182.605392 
L 311.044501 182.821209 
L 311.277062 182.372244 
L 311.509622 182.530055 
L 311.509622 182.742661 
L 311.742183 182.365771 
L 311.974743 182.571037 
L 311.974743 182.508494 
L 312.207304 182.048111 
L 312.207304 182.651216 
L 312.439865 182.325146 
L 312.439865 182.513948 
L 312.672425 182.485148 
L 312.904986 182.201691 
L 312.904986 182.248993 
L 313.137546 182.650758 
L 313.137546 182.233701 
L 313.370107 182.495088 
L 313.370107 181.95845 
L 313.602667 182.603761 
L 313.602667 182.390696 
L 313.835228 181.82582 
L 314.067788 181.939183 
L 314.067788 181.830306 
L 314.300349 181.789426 
L 314.300349 181.497558 
L 314.53291 180.905565 
L 314.53291 181.369974 
L 314.76547 180.638316 
L 314.76547 180.966477 
L 314.998031 180.314081 
L 314.998031 180.703255 
L 315.928273 177.972868 
L 315.928273 177.59608 
L 316.160834 176.991598 
L 317.091076 172.126181 
L 317.091076 172.449142 
L 318.95156 157.693499 
L 318.95156 157.241221 
L 320.346924 140.989538 
L 320.346924 140.675956 
L 320.812045 134.418278 
L 321.974848 116.43751 
L 321.974848 116.513968 
L 323.602772 88.259866 
L 323.602772 88.293253 
L 324.067893 82.042405 
L 324.067893 82.287888 
L 324.765574 74.963817 
L 324.765574 75.35498 
L 325.463256 69.735935 
L 325.463256 70.328183 
L 325.928377 66.704963 
L 325.928377 66.942495 
L 327.09118 61.78419 
L 327.09118 62.003728 
L 327.788862 59.696666 
L 328.021422 59.658845 
L 328.021422 59.488699 
L 328.253983 58.590158 
L 328.253983 59.024952 
L 328.719104 58.119173 
L 328.719104 58.271733 
L 328.951664 57.434002 
L 328.951664 57.497972 
L 329.416786 56.782676 
L 329.416786 57.072556 
L 329.649346 57.024948 
L 329.649346 56.700866 
L 329.881907 56.581131 
L 330.114467 56.37663 
L 330.114467 56.140424 
L 330.347028 55.914769 
L 330.347028 56.073854 
L 330.579588 55.823784 
L 330.579588 55.54894 
L 330.812149 55.87078 
L 330.812149 55.500466 
L 331.04471 55.551948 
L 331.04471 55.717914 
L 331.27727 55.73188 
L 331.27727 55.151967 
L 331.509831 56.776763 
L 331.742391 57.070008 
L 331.742391 57.703136 
L 331.974952 59.000281 
L 331.974952 58.763209 
L 332.905194 71.189107 
L 332.905194 71.578282 
L 333.370315 81.27629 
L 333.370315 80.867339 
L 335.46336 124.968556 
L 335.46336 124.557311 
L 335.928481 131.903657 
L 335.928481 131.673007 
L 336.626163 139.811821 
L 336.626163 139.575869 
L 337.323845 144.965283 
L 338.021526 148.965342 
L 338.021526 148.273137 
L 338.254087 149.393255 
L 338.254087 148.98777 
L 338.719208 150.528869 
L 338.951769 151.156951 
L 338.951769 151.136409 
L 339.184329 151.344428 
L 339.184329 151.528591 
L 339.64945 151.68528 
L 339.64945 151.375113 
L 339.882011 152.169926 
L 339.882011 152.15336 
L 340.114572 151.664585 
L 340.114572 152.190264 
L 340.347132 151.917001 
L 340.347132 152.071957 
L 340.579693 151.9563 
L 340.579693 152.083375 
L 340.812253 151.698686 
L 340.812253 152.324066 
L 341.277374 151.814648 
L 341.277374 152.205199 
L 341.509935 152.146784 
L 341.509935 152.22992 
L 341.975056 152.134602 
L 341.975056 151.941416 
L 342.207617 151.797623 
L 342.207617 152.030975 
L 342.440177 151.792985 
L 342.440177 151.300439 
L 342.672738 151.636296 
L 342.672738 151.525227 
L 342.905298 151.321949 
L 342.905298 151.473031 
L 343.137859 150.937719 
L 343.137859 151.549541 
L 343.370419 150.458935 
L 343.370419 150.853513 
L 343.60298 150.680104 
L 343.60298 150.368612 
L 343.835541 150.301431 
L 343.835541 150.52209 
L 344.068101 150.044275 
L 344.068101 149.520635 
L 344.300662 149.535621 
L 344.300662 149.301352 
L 344.998343 147.250121 
L 344.998343 147.471188 
L 345.463464 145.481175 
L 345.463464 146.043094 
L 345.696025 144.878069 
L 345.928586 144.716487 
L 345.928586 144.769447 
L 346.161146 144.90483 
L 346.161146 145.039703 
L 346.393707 144.731065 
L 346.626267 146.205594 
L 346.626267 146.002265 
L 346.858828 148.456739 
L 347.091388 149.786049 
L 348.254191 163.808708 
L 348.719312 174.688971 
L 348.719312 174.116398 
L 349.649555 195.247414 
L 349.649555 194.902585 
L 350.812357 221.556766 
L 350.812357 221.466239 
L 352.905402 250.860034 
L 353.370524 255.618613 
L 354.998448 269.627612 
L 356.626371 278.801625 
L 356.626371 278.52984 
L 356.858932 279.538736 
L 356.858932 279.447649 
L 357.091493 279.926432 
L 357.091493 279.654801 
L 357.324053 281.039007 
L 357.324053 280.855404 
L 358.254295 283.174241 
L 358.254295 282.697853 
L 358.486856 283.126633 
L 358.486856 282.964744 
L 358.719417 283.159816 
L 358.719417 283.488842 
L 358.951977 283.439654 
L 358.951977 283.63758 
L 359.184538 283.961204 
L 359.184538 283.891371 
L 359.417098 283.864101 
L 359.417098 283.995814 
L 359.649659 284.089348 
L 359.649659 284.028334 
L 359.882219 283.762615 
L 359.882219 283.968748 
L 360.11478 283.768987 
L 360.34734 283.825413 
L 360.34734 284.075892 
L 360.579901 283.924147 
L 360.579901 283.952844 
L 360.812462 283.631208 
L 360.812462 284.250727 
L 361.045022 283.754154 
L 361.277583 283.897233 
L 361.277583 284.150617 
L 361.510143 283.813741 
L 361.510143 284.113662 
L 361.742704 283.678103 
L 361.742704 283.704303 
L 361.975264 283.481553 
L 361.975264 283.204111 
L 362.207825 283.567187 
L 362.207825 283.491289 
L 362.440386 283.360188 
L 362.440386 283.685596 
L 362.905507 282.621598 
L 363.138067 282.533467 
L 363.138067 282.820645 
L 363.835749 281.131981 
L 363.835749 280.955005 
L 364.068309 280.898986 
L 364.068309 280.660996 
L 364.30087 279.768316 
L 364.765991 278.556243 
L 364.765991 278.58647 
L 364.998552 277.504224 
L 365.231112 277.028193 
L 365.231112 276.711246 
L 366.393915 271.027008 
L 366.393915 271.282533 
L 368.2544 258.637606 
L 368.719521 254.793115 
L 369.417202 249.290033 
L 370.114884 242.095381 
L 370.114884 242.487409 
L 371.975369 223.252975 
L 372.67305 215.128535 
L 373.835853 204.796889 
L 373.835853 204.797806 
L 374.068414 203.454938 
L 374.300974 202.33115 
L 374.300974 202.634283 
L 374.998656 200.512455 
L 375.231216 200.537635 
L 375.231216 200.488039 
L 375.696338 199.685937 
L 375.928898 199.696947 
L 375.928898 199.50315 
L 376.161459 199.227288 
L 376.161459 199.375821 
L 376.394019 199.515944 
L 376.394019 199.088286 
L 376.62658 199.464513 
L 376.62658 198.91289 
L 377.091701 199.208886 
L 377.091701 199.134875 
L 377.324262 198.583404 
L 377.324262 198.815532 
L 377.556822 198.585545 
L 377.556822 198.801107 
L 377.789383 198.544461 
L 377.789383 198.296735 
L 378.021943 198.751664 
L 378.021943 198.691771 
L 378.254504 198.196371 
L 378.254504 198.733875 
L 378.487064 198.424574 
L 378.487064 198.509341 
L 378.719625 198.460051 
L 378.719625 198.313556 
L 378.952185 197.904554 
L 379.184746 198.044677 
L 379.184746 197.923719 
L 379.417307 197.712541 
L 379.417307 197.410223 
L 379.649867 197.339117 
L 379.649867 197.436933 
L 380.81267 194.066536 
L 380.81267 193.630059 
L 381.045231 192.836062 
L 381.045231 193.267289 
L 382.208033 186.427557 
L 382.208033 186.438975 
L 383.138276 178.771911 
L 384.99876 153.960433 
L 386.161563 133.168078 
L 386.161563 133.015416 
L 387.091805 114.477417 
L 387.091805 114.120763 
L 388.487169 88.292743 
L 389.18485 79.753948 
L 389.18485 79.754203 
L 389.882532 73.124427 
L 390.347653 69.562527 
L 390.347653 69.938703 
L 390.812774 66.798243 
L 391.510456 63.516028 
L 391.743016 62.299929 
L 391.743016 63.05743 
L 391.975577 62.452438 
L 391.975577 62.020498 
L 392.208138 61.679646 
L 392.208138 61.197345 
L 392.905819 59.058849 
L 392.905819 59.291742 
L 393.13838 58.840636 
L 393.13838 59.166044 
L 393.37094 58.298748 
L 393.37094 58.316028 
L 393.603501 58.358998 
L 393.603501 57.811299 
L 393.836061 57.424725 
L 393.836061 57.880112 
L 394.301183 56.799446 
L 394.301183 56.816216 
L 394.533743 56.849909 
L 394.533743 56.711111 
L 394.766304 56.467412 
L 394.766304 56.288754 
L 394.998864 56.320255 
L 394.998864 57.04498 
L 395.231425 55.631516 
L 395.231425 56.108311 
L 395.463985 55.500109 
L 395.463985 55.979708 
L 395.929107 55.378845 
L 395.929107 55.692784 
L 396.161667 55.924964 
L 396.161667 55.575905 
L 396.394228 55.128979 
L 396.394228 55.411009 
L 396.859349 55.165475 
L 396.859349 54.682766 
L 397.091909 54.421941 
L 397.091909 54.907096 
L 397.32447 55.097886 
L 397.32447 54.803163 
L 397.55703 54.838538 
L 397.55703 54.964185 
L 397.789591 55.041561 
L 397.789591 54.457366 
L 398.254712 54.861934 
L 398.254712 54.380806 
L 398.487273 54.732057 
L 398.487273 54.555845 
" clip-path="url(#pbcff15c59d)" style="fill: none; stroke: #1f77b4; stroke-width: 1.5; stroke-linecap: square"/>
   </g>
   <g id="line2d_24">
    <path d="M 73.832727 53.990204 
L 75.693212 53.990204 
L 75.693212 54.774109 
L 75.925772 53.990204 
L 75.925772 53.990204 
L 76.158333 53.990204 
L 76.158333 54.765698 
L 76.390893 53.990204 
L 76.390893 53.990204 
L 77.088575 53.990204 
L 77.088575 53.990204 
L 77.321136 54.128594 
L 77.321136 53.990204 
L 78.483939 53.990204 
L 78.483939 56.924787 
L 78.716499 53.990204 
L 78.716499 53.990204 
L 78.94906 53.990204 
L 78.94906 55.957025 
L 79.18162 53.990204 
L 79.18162 53.990204 
L 79.879302 53.990204 
L 79.879302 55.848097 
L 80.111862 53.990204 
L 80.111862 53.990204 
L 80.576984 53.990204 
L 80.576984 53.990204 
L 80.809544 54.719619 
L 80.809544 53.990204 
L 82.670029 53.990204 
L 82.670029 54.606206 
L 82.902589 53.990204 
L 82.902589 53.990204 
L 83.13515 54.6688 
L 83.13515 53.990204 
L 84.297953 53.990204 
L 84.297953 54.779053 
L 84.530513 53.990204 
L 84.530513 54.012836 
L 85.228195 53.990204 
L 85.228195 54.806374 
L 85.693316 53.990204 
L 85.693316 53.990204 
L 85.925877 54.465726 
L 85.925877 53.990204 
L 87.088679 53.990204 
L 87.088679 53.990204 
L 87.32124 54.381469 
L 87.32124 54.16086 
L 87.5538 56.387487 
L 88.018922 64.00888 
L 88.251482 63.814828 
L 88.251482 63.83588 
L 89.181724 74.038159 
L 89.181724 76.984159 
L 89.414285 76.318613 
L 89.879406 82.740166 
L 90.111967 86.903082 
L 90.344527 86.3877 
L 90.809648 93.016865 
L 90.809648 92.977412 
L 91.042209 96.867677 
L 91.042209 96.838418 
L 91.274769 96.392614 
L 91.274769 96.478859 
L 91.739891 103.056949 
L 91.972451 103.489042 
L 91.972451 103.452546 
L 92.437572 109.247496 
L 92.437572 109.225833 
L 92.670133 113.052229 
L 92.902693 112.424809 
L 93.367815 118.289999 
L 93.367815 118.249425 
L 93.600375 118.148602 
L 93.600375 118.211043 
L 93.832936 119.917038 
L 94.065496 122.914674 
L 94.298057 123.003774 
L 94.298057 122.975026 
L 94.530617 124.28522 
L 94.763178 126.665733 
L 94.763178 126.662828 
L 94.995738 126.819925 
L 94.995738 126.813502 
L 95.228299 127.775147 
L 95.46086 129.47156 
L 95.46086 129.465902 
L 95.69342 129.569886 
L 96.391102 131.375583 
L 96.391102 131.373289 
L 96.856223 132.23671 
L 96.856223 132.23615 
L 97.321344 132.480613 
L 97.553905 132.75566 
L 98.019026 132.654225 
L 98.251586 132.860154 
L 98.251586 132.859542 
L 98.716707 132.637201 
L 98.716707 132.641176 
L 98.949268 132.840937 
L 98.949268 132.840122 
L 99.414389 132.498607 
L 99.64695 132.705606 
L 99.87951 132.432699 
L 99.87951 132.43433 
L 100.112071 131.798297 
L 100.344631 132.084966 
L 100.344631 132.083946 
L 100.577192 131.418196 
L 100.809753 130.075583 
L 101.042313 130.611812 
L 101.042313 130.610334 
L 101.274874 129.230154 
L 101.274874 129.265427 
L 101.507434 129.116792 
L 101.507434 129.120921 
L 101.739995 127.952888 
L 101.972555 125.490004 
L 102.205116 125.543933 
L 102.437676 123.796854 
L 102.670237 120.125363 
L 102.902798 120.448884 
L 103.135358 117.862851 
L 103.135358 117.944101 
L 103.367919 112.72152 
L 103.367919 112.775449 
L 103.600479 113.632498 
L 103.600479 113.589427 
L 103.83304 110.116728 
L 103.83304 110.229071 
L 104.0656 103.467685 
L 104.0656 104.039493 
L 104.298161 104.915352 
L 104.298161 104.899754 
L 104.530722 100.493649 
L 104.763282 93.309191 
L 104.995843 94.476867 
L 105.228403 89.368872 
L 105.460964 80.842923 
L 105.693524 82.050714 
L 105.926085 77.151859 
L 105.926085 77.167864 
L 106.158645 68.128877 
L 106.158645 68.376705 
L 106.391206 67.440699 
L 106.391206 67.501815 
L 106.623767 62.450756 
L 106.856327 54.495647 
L 107.088888 53.990204 
L 107.088888 53.990204 
L 119.879719 53.990204 
L 119.879719 53.990204 
L 120.112279 54.725226 
L 120.112279 53.990204 
L 120.809961 53.990204 
L 120.809961 54.885229 
L 121.042521 53.990204 
L 121.042521 53.990204 
L 121.275082 53.990204 
L 121.275082 53.990204 
L 121.507643 58.655147 
L 121.507643 53.990204 
L 126.623975 53.990204 
L 126.623975 53.990204 
L 126.856536 59.247803 
L 126.856536 54.872129 
L 127.089096 53.990204 
L 127.089096 53.990204 
L 131.275186 53.990204 
L 131.275186 53.990204 
L 131.507747 59.083876 
L 131.740307 68.47024 
L 131.740307 68.292091 
L 131.972868 67.560994 
L 131.972868 67.620275 
L 132.90311 90.633854 
L 133.368231 102.300875 
L 133.368231 102.188125 
L 133.600792 110.829781 
L 133.600792 110.829628 
L 133.833352 110.930859 
L 133.833352 111.133577 
L 134.065913 115.585506 
L 134.298474 122.776998 
L 134.531034 123.955836 
L 134.531034 123.938863 
L 134.996155 134.104747 
L 135.228716 141.574293 
L 135.461276 139.639789 
L 135.693837 145.087107 
L 135.926397 146.843922 
L 135.926397 146.785762 
L 136.158958 149.585013 
L 136.391519 155.250392 
L 136.624079 155.660923 
L 136.85664 158.904654 
L 137.0892 164.381383 
L 137.321761 163.647687 
L 137.554321 167.273863 
L 137.786882 167.795769 
L 138.019443 170.381191 
L 138.252003 174.667002 
L 138.252003 174.621178 
L 138.484564 173.58338 
L 138.484564 173.588477 
L 138.717124 177.119182 
L 138.949685 176.997868 
L 138.949685 177.033599 
L 139.182245 179.62157 
L 139.182245 179.581506 
L 139.414806 180.075479 
L 139.414806 180.06345 
L 139.647367 181.575852 
L 139.647367 181.539152 
L 139.879927 184.739199 
L 140.112488 184.062642 
L 140.345048 186.52257 
L 140.345048 186.474554 
L 140.577609 186.379338 
L 140.810169 188.264756 
L 141.04273 188.459215 
L 141.04273 188.453201 
L 141.27529 190.186823 
L 141.27529 190.179279 
L 141.507851 190.686505 
L 142.438093 195.488258 
L 142.670654 195.309345 
L 142.670654 195.309345 
L 142.903214 196.810839 
L 142.903214 196.80722 
L 143.135775 196.821288 
L 143.135775 196.815783 
L 143.368336 197.872849 
L 143.600896 197.960114 
L 143.600896 197.953385 
L 143.833457 198.976554 
L 143.833457 198.973292 
L 144.066017 199.153429 
L 144.298578 200.374574 
L 144.298578 200.372382 
L 144.531138 200.461839 
L 144.531138 200.459647 
L 144.763699 201.164901 
L 144.996259 201.183965 
L 145.22882 201.772085 
L 145.22882 201.76974 
L 145.461381 201.617842 
L 145.461381 201.619779 
L 145.693941 202.203413 
L 145.926502 202.091936 
L 146.159062 202.477186 
L 146.159062 202.475555 
L 146.391623 202.108808 
L 146.391623 202.109624 
L 146.624183 202.624088 
L 146.856744 202.516231 
L 147.321865 202.761561 
L 147.321865 202.761408 
L 147.554426 202.682554 
L 147.786986 202.470152 
L 147.786986 202.472751 
L 148.019547 202.69601 
L 148.252107 202.143979 
L 148.252107 202.150198 
L 148.484668 202.689129 
L 148.717228 202.338541 
L 148.949789 202.631632 
L 149.18235 201.838298 
L 149.41491 202.480907 
L 149.41491 202.474841 
L 149.647471 201.733345 
L 149.880031 202.163553 
L 149.880031 202.163451 
L 150.112592 200.815944 
L 150.345152 201.636294 
L 150.577713 200.132353 
L 150.810274 200.784953 
L 151.042834 198.61567 
L 151.042834 198.632796 
L 151.275395 199.567222 
L 151.275395 199.545406 
L 151.507955 197.043273 
L 151.507955 197.054844 
L 151.740516 197.837117 
L 151.973076 194.437819 
L 152.205637 195.116007 
L 152.205637 194.999178 
L 152.438197 191.776958 
L 152.438197 191.824668 
L 152.670758 192.344332 
L 152.903319 187.582592 
L 152.903319 187.774401 
L 153.135879 187.993226 
L 153.135879 188.145888 
L 153.36844 183.457651 
L 153.601 183.292857 
L 153.601 183.527228 
L 153.833561 177.681356 
L 153.833561 177.684874 
L 154.066121 177.228824 
L 154.066121 177.392853 
L 154.298682 171.411802 
L 154.298682 171.58149 
L 154.531243 170.359273 
L 154.763803 163.683928 
L 154.763803 164.090943 
L 154.996364 161.875274 
L 154.996364 161.889649 
L 155.228924 156.277384 
L 155.461485 141.0426 
L 155.461485 151.947176 
L 155.926606 138.083805 
L 155.926606 138.096701 
L 156.159166 137.722309 
L 156.391727 142.163534 
L 156.624288 143.301646 
L 156.624288 143.034296 
L 157.089409 154.378254 
L 157.089409 154.333092 
L 157.321969 153.095635 
L 157.55453 157.701654 
L 157.78709 157.872667 
L 158.252212 161.652627 
L 158.252212 161.506693 
L 158.717333 165.109473 
L 158.717333 165.034544 
L 158.949893 165.273961 
L 159.415014 166.733607 
L 159.415014 166.702666 
L 159.880135 167.705192 
L 159.880135 167.702592 
L 160.112696 168.165778 
L 160.112696 168.161904 
L 160.345257 168.024126 
L 160.345257 168.025808 
L 160.810378 168.458564 
L 160.810378 168.456219 
L 161.042938 168.149467 
L 161.275499 168.631411 
L 161.275499 168.627843 
L 161.74062 168.365488 
L 161.74062 168.3792 
L 161.973181 168.559387 
L 161.973181 168.55587 
L 162.205741 168.057768 
L 162.205741 168.404329 
L 162.438302 168.26181 
L 162.438302 168.266907 
L 162.670862 167.942009 
L 162.903423 168.143452 
L 163.135983 167.717782 
L 163.368544 167.793476 
L 163.601104 167.597844 
L 163.833665 165.992111 
L 164.066226 166.454074 
L 164.066226 166.451372 
L 164.298786 164.950337 
L 164.298786 165.022973 
L 164.531347 165.161057 
L 165.229028 162.313229 
L 165.461589 158.765499 
L 165.461589 158.810559 
L 165.69415 159.682034 
L 165.69415 159.658689 
L 165.92671 156.804285 
L 166.159271 156.153521 
L 166.159271 156.198427 
L 166.391831 154.282732 
L 166.624392 148.906724 
L 166.624392 148.915899 
L 166.856952 150.482179 
L 167.089513 145.641075 
L 167.322073 145.552791 
L 167.322073 145.651117 
L 167.554634 142.493631 
L 167.787195 135.621329 
L 167.787195 135.652014 
L 168.019755 137.497521 
L 168.019755 137.469333 
L 168.252316 131.603786 
L 168.252316 131.623512 
L 168.484876 131.493176 
L 168.484876 131.523861 
L 168.717437 127.368541 
L 168.949997 119.578582 
L 169.182558 121.319442 
L 169.182558 121.291458 
L 169.415119 114.923731 
L 169.647679 113.78562 
L 169.647679 113.812992 
L 169.88024 109.584984 
L 170.1128 101.055773 
L 170.1128 101.085235 
L 170.345361 100.91356 
L 170.577921 95.62344 
L 170.577921 95.660038 
L 170.810482 86.011065 
L 171.275603 86.738085 
L 171.508164 95.531894 
L 171.508164 95.481125 
L 171.740724 95.848127 
L 171.740724 95.6554 
L 171.973285 101.707506 
L 172.205845 113.435898 
L 172.205845 113.391144 
L 172.438406 114.435416 
L 172.670966 120.772508 
L 172.670966 120.760683 
L 172.903527 131.746356 
L 172.903527 131.7251 
L 173.136088 133.309527 
L 173.368648 139.519443 
L 173.601209 149.953901 
L 173.833769 151.094255 
L 174.06633 156.560484 
L 174.06633 156.463025 
L 174.29889 168.670915 
L 174.531451 167.074561 
L 174.764011 174.806054 
L 174.996572 177.412222 
L 175.229133 182.563391 
L 175.229133 182.239512 
L 175.461693 193.313725 
L 175.694254 191.224927 
L 175.926814 200.229813 
L 176.159375 199.650868 
L 176.391935 206.843889 
L 176.624496 207.144015 
L 176.857057 213.87543 
L 177.089617 214.593835 
L 177.089617 214.577371 
L 177.322178 220.871952 
L 177.322178 220.862777 
L 177.554738 221.304249 
L 177.554738 221.273309 
L 177.787299 227.431386 
L 178.019859 227.774481 
L 178.019859 227.668204 
L 178.25242 233.749619 
L 178.48498 233.315232 
L 178.48498 233.410143 
L 178.717541 239.789848 
L 178.717541 239.771141 
L 178.950102 238.496016 
L 179.182662 245.396047 
L 179.182662 245.394875 
L 179.415223 243.12905 
L 179.415223 243.152141 
L 180.345465 253.491994 
L 180.345465 253.482207 
L 180.578026 253.279592 
L 180.578026 253.282752 
L 180.810586 257.807113 
L 180.810586 257.786367 
L 181.043147 256.649275 
L 181.043147 256.649785 
L 181.973389 263.472797 
L 181.973389 263.45358 
L 182.205949 263.020468 
L 182.43851 265.964532 
L 182.671071 265.366065 
L 182.671071 265.366575 
L 182.903631 265.879408 
L 182.903631 265.858866 
L 183.136192 267.312854 
L 183.368752 267.201887 
L 183.368752 267.228749 
L 183.601313 268.705572 
L 183.601313 268.69497 
L 183.833873 268.63625 
L 183.833873 268.646648 
L 184.066434 268.810881 
L 184.066434 268.773417 
L 184.298995 269.374585 
L 184.531555 269.433051 
L 184.531555 269.409756 
L 184.996676 270.091206 
L 184.996676 270.087536 
L 185.461797 270.059145 
L 185.694358 270.155686 
L 185.926918 270.059807 
L 185.926918 270.290865 
L 186.159479 270.170366 
L 186.159479 270.178522 
L 186.39204 270.275879 
L 186.6246 270.12026 
L 186.857161 270.249679 
L 187.089721 270.046249 
L 187.787403 270.2927 
L 188.019964 270.070257 
L 188.019964 270.07097 
L 188.252524 269.563183 
L 188.252524 269.569657 
L 188.485085 269.696527 
L 188.485085 269.677871 
L 188.717645 268.700679 
L 188.950206 269.320045 
L 188.950206 269.301389 
L 189.182766 268.821892 
L 189.415327 267.786132 
L 189.647887 267.709011 
L 189.880448 265.755902 
L 189.880448 265.881905 
L 190.113009 266.28683 
L 190.113009 266.235246 
L 190.345569 265.58652 
L 190.345569 265.591771 
L 190.57813 263.89546 
L 190.81069 263.376255 
L 190.81069 263.416065 
L 191.043251 260.137163 
L 191.275811 260.534289 
L 191.275811 260.522209 
L 191.508372 255.350243 
L 191.508372 255.373996 
L 191.740933 256.895421 
L 191.740933 256.86341 
L 191.973493 255.699914 
L 191.973493 255.749 
L 192.206054 251.107097 
L 192.206054 251.187022 
L 192.438614 251.380666 
L 192.438614 251.32322 
L 192.671175 243.760649 
L 192.671175 244.127905 
L 192.903735 246.234492 
L 193.136296 243.676392 
L 193.368856 238.036602 
L 193.368856 238.35574 
L 193.601417 237.802944 
L 193.601417 237.406073 
L 193.833978 227.894165 
L 194.066538 229.901763 
L 194.066538 229.834072 
L 194.299099 226.595133 
L 194.299099 216.480935 
L 194.531659 220.088557 
L 194.76422 217.451653 
L 194.76422 217.534789 
L 194.99678 220.330829 
L 194.99678 220.302743 
L 195.229341 220.840808 
L 195.461902 233.657461 
L 195.461902 233.11333 
L 195.694462 230.361586 
L 195.694462 230.7162 
L 195.927023 246.05247 
L 195.927023 245.882477 
L 196.159583 241.067777 
L 196.159583 241.280536 
L 196.392144 245.467511 
L 196.392144 245.386159 
L 196.624704 252.732097 
L 196.857265 253.614123 
L 197.089825 262.624667 
L 197.089825 262.459772 
L 197.322386 260.492849 
L 197.322386 260.583019 
L 198.020068 269.581329 
L 198.252628 275.735839 
L 198.485189 274.074954 
L 198.717749 276.931651 
L 198.717749 282.031949 
L 198.95031 280.353683 
L 199.182871 280.454099 
L 199.182871 280.646214 
L 199.415431 285.755534 
L 199.647992 284.304809 
L 199.880552 285.397912 
L 199.880552 285.333432 
L 200.113113 288.520481 
L 200.345673 288.251092 
L 200.345673 288.260369 
L 200.578234 289.171704 
L 200.810794 290.934381 
L 201.043355 290.879891 
L 201.043355 290.97103 
L 201.973597 294.210632 
L 202.206158 294.160373 
L 202.438718 294.294328 
L 202.671279 294.810832 
L 202.90384 294.793603 
L 203.601521 295.363118 
L 204.066642 295.154335 
L 204.066642 295.166619 
L 204.764324 295.427139 
L 205.462006 295.145109 
L 205.694566 295.037608 
L 205.927127 294.79763 
L 206.159687 294.18066 
L 206.392248 294.196461 
L 206.392248 294.192333 
L 206.624809 293.289458 
L 206.857369 293.563333 
L 206.857369 293.563282 
L 207.555051 291.502927 
L 207.555051 291.50624 
L 207.787611 289.25066 
L 208.020172 289.671794 
L 208.020172 289.667819 
L 208.252732 288.89681 
L 208.252732 288.898543 
L 208.485293 286.741187 
L 208.717854 286.855009 
L 208.717854 286.765399 
L 208.950414 281.306714 
L 208.950414 285.479671 
L 209.182975 282.844806 
L 209.415535 282.364442 
L 209.648096 276.381047 
L 209.880656 278.662164 
L 210.113217 276.93211 
L 210.345778 270.262015 
L 210.578338 272.60231 
L 210.810899 270.05002 
L 211.043459 263.09081 
L 211.27602 264.277192 
L 211.50858 261.442413 
L 211.741141 254.487434 
L 211.973701 254.145766 
L 212.206262 240.284026 
L 212.438823 245.029913 
L 212.671383 241.297612 
L 212.671383 241.566746 
L 212.903944 228.302097 
L 213.136504 230.288032 
L 213.369065 233.667451 
L 213.601625 229.789522 
L 213.601625 229.87592 
L 213.834186 231.918486 
L 213.834186 231.798446 
L 214.066747 241.877117 
L 214.299307 239.949749 
L 214.531868 243.783892 
L 214.531868 250.989758 
L 214.764428 248.023777 
L 214.764428 248.070212 
L 214.996989 250.336904 
L 214.996989 250.076792 
L 215.229549 255.78305 
L 215.46211 255.292339 
L 215.69467 262.126514 
L 215.69467 261.760277 
L 215.927231 259.819911 
L 215.927231 260.066261 
L 216.159792 261.717206 
L 216.159792 261.600377 
L 216.392352 264.96848 
L 216.392352 264.948346 
L 216.624913 265.158199 
L 216.857473 269.139348 
L 216.857473 269.116971 
L 217.090034 268.263285 
L 217.090034 268.335309 
L 217.322594 269.429279 
L 217.322594 269.400428 
L 217.555155 271.419547 
L 217.555155 271.408486 
L 217.787716 271.735423 
L 218.020276 274.132502 
L 218.252837 273.583682 
L 218.252837 273.603663 
L 218.485397 274.472182 
L 218.717958 275.824225 
L 218.717958 275.821115 
L 218.950518 275.817242 
L 219.183079 277.027989 
L 219.415639 276.844132 
L 219.415639 276.869924 
L 219.880761 277.762909 
L 219.880761 277.759443 
L 220.113321 277.980153 
L 220.345882 278.338234 
L 220.578442 278.380949 
L 220.578442 278.372641 
L 220.811003 278.614352 
L 221.043563 278.621131 
L 221.043563 278.611243 
L 221.276124 278.760388 
L 221.276124 278.757279 
L 221.508685 278.685204 
L 221.741245 279.05562 
L 221.741245 279.048178 
L 222.206366 278.750856 
L 222.206366 278.75631 
L 222.904048 279.056639 
L 222.904048 278.812125 
L 223.136608 278.585349 
L 223.136608 278.591822 
L 223.60173 278.797292 
L 223.60173 278.792806 
L 223.83429 278.45333 
L 224.066851 278.551707 
L 224.066851 278.551707 
L 224.299411 277.875252 
L 224.531972 278.167528 
L 224.764532 278.049221 
L 224.764532 278.052432 
L 224.997093 277.167959 
L 224.997093 277.228616 
L 225.229654 277.387599 
L 225.229654 277.37399 
L 225.462214 275.70551 
L 225.694775 276.241995 
L 225.927335 276.089536 
L 225.927335 276.115328 
L 226.159896 274.298672 
L 226.392456 274.851569 
L 226.625017 274.297958 
L 226.625017 274.306878 
L 226.857577 272.99908 
L 226.857577 273.025636 
L 227.090138 272.539309 
L 227.090138 272.610058 
L 227.322699 269.752189 
L 227.322699 269.881455 
L 227.555259 270.64339 
L 227.78782 269.756267 
L 228.02038 267.341296 
L 228.02038 267.473774 
L 228.252941 267.306125 
L 228.485501 263.509344 
L 228.485501 263.547777 
L 228.718062 264.95482 
L 228.718062 264.872346 
L 228.950623 263.611952 
L 228.950623 263.65064 
L 229.183183 260.621962 
L 229.183183 260.65856 
L 229.415744 260.420009 
L 229.415744 260.708054 
L 229.648304 255.874596 
L 229.648304 255.967417 
L 229.880865 257.665308 
L 229.880865 257.585128 
L 230.113425 255.928474 
L 230.113425 256.015943 
L 230.345986 252.46857 
L 230.578546 252.322585 
L 230.578546 252.391907 
L 230.811107 247.207657 
L 231.043668 248.663786 
L 231.043668 248.579325 
L 231.276228 246.892801 
L 231.508789 243.376368 
L 231.508789 243.682712 
L 231.741349 242.85436 
L 231.741349 242.949321 
L 231.97391 237.578462 
L 231.97391 237.651505 
L 232.20647 238.783857 
L 232.20647 238.676764 
L 232.439031 231.566726 
L 232.439031 236.947984 
L 232.671592 233.66159 
L 232.671592 233.736213 
L 232.904152 232.238032 
L 232.904152 232.503293 
L 233.136713 227.30737 
L 233.136713 227.357068 
L 233.369273 227.593224 
L 233.369273 227.51233 
L 233.601834 220.723419 
L 233.601834 220.781629 
L 233.834394 222.607511 
L 234.066955 220.089424 
L 234.066955 220.298564 
L 234.299515 216.005821 
L 234.532076 214.526602 
L 234.764637 209.017301 
L 234.997197 208.656824 
L 235.229758 201.402586 
L 235.462318 202.411176 
L 235.462318 202.399453 
L 235.694879 193.319994 
L 235.927439 195.310008 
L 235.927439 195.297112 
L 236.16 185.430181 
L 236.16 185.71481 
L 236.392561 188.184627 
L 236.625121 177.013873 
L 236.625121 177.215214 
L 236.857682 181.123166 
L 236.857682 181.104918 
L 237.090242 169.543715 
L 237.090242 169.554266 
L 237.322803 173.082882 
L 237.555363 161.56108 
L 237.787924 164.779376 
L 237.787924 164.671875 
L 238.020485 153.427007 
L 238.253045 156.242926 
L 238.485606 146.167467 
L 238.718166 147.997682 
L 238.718166 147.840075 
L 238.950727 139.415714 
L 238.950727 139.532441 
L 239.183287 139.420098 
L 239.183287 139.468725 
L 239.415848 132.769168 
L 239.415848 132.797101 
L 239.648408 130.620732 
L 239.880969 126.427131 
L 239.880969 126.452261 
L 240.11353 115.980542 
L 240.11353 116.104405 
L 240.34609 118.018113 
L 240.34609 117.731393 
L 240.578651 109.965901 
L 240.578651 110.293552 
L 240.811211 109.361725 
L 240.811211 109.600633 
L 241.043772 105.057616 
L 241.276332 95.88289 
L 241.508893 96.921452 
L 241.974014 82.961591 
L 242.206575 84.426945 
L 242.671696 70.964268 
L 242.904256 72.820071 
L 242.904256 72.723682 
L 243.369377 60.191965 
L 243.601938 61.05452 
L 243.601938 60.939985 
L 244.067059 53.990204 
L 244.067059 53.990204 
L 256.85789 53.990204 
L 256.85789 53.990204 
L 257.090451 55.786472 
L 257.090451 53.990204 
L 258.718375 53.990204 
L 258.718375 53.990204 
L 258.950935 56.861989 
L 258.950935 53.990204 
L 262.671904 53.990204 
L 262.671904 53.990204 
L 262.904465 55.856202 
L 262.904465 53.990204 
L 266.625434 53.990204 
L 266.625434 55.919204 
L 266.857994 56.647701 
L 266.857994 53.990204 
L 271.276645 53.990204 
L 271.276645 55.838566 
L 271.509206 53.990204 
L 271.509206 53.990204 
L 271.741766 55.881994 
L 271.741766 53.990204 
L 274.765053 53.990204 
L 274.765053 53.990204 
L 274.997614 56.140373 
L 274.997614 53.990204 
L 278.020901 53.990204 
L 278.020901 57.100948 
L 278.253462 53.990204 
L 278.253462 53.990204 
L 278.486022 56.264848 
L 278.486022 53.990204 
L 281.74187 53.990204 
L 281.74187 55.543282 
L 281.974431 53.990204 
L 281.974431 53.990204 
L 282.206991 53.990204 
L 282.206991 53.990204 
L 282.439552 55.363452 
L 282.439552 53.990204 
L 282.672113 53.990204 
L 282.672113 53.990204 
L 282.904673 56.288244 
L 283.137234 62.412221 
L 283.602355 79.140547 
L 283.834915 77.771581 
L 284.532597 92.963446 
L 284.532597 92.956768 
L 284.765158 92.184791 
L 285.462839 99.876934 
L 286.160521 105.191673 
L 286.160521 105.190705 
L 286.393082 105.505 
L 286.858203 106.601825 
L 286.858203 106.599939 
L 287.090763 106.413176 
L 287.090763 106.415622 
L 287.323324 106.953891 
L 287.788445 106.750715 
L 288.021005 106.968418 
L 288.021005 106.965462 
L 288.253566 106.838693 
L 288.718687 106.267904 
L 288.718687 106.273002 
L 288.951248 105.980318 
L 288.951248 105.982816 
L 289.183808 104.549574 
L 289.416369 104.287117 
L 289.416369 104.317038 
L 289.648929 102.935431 
L 289.88149 100.649625 
L 289.88149 100.662266 
L 290.114051 96.778322 
L 290.114051 96.834646 
L 290.346611 97.679616 
L 290.346611 97.659737 
L 290.579172 94.817159 
L 290.579172 94.977467 
L 290.811732 89.562261 
L 291.044293 90.451883 
L 291.044293 90.404835 
L 291.276853 87.116453 
L 291.509414 81.465296 
L 291.509414 81.608834 
L 291.741974 81.017197 
L 291.741974 81.033254 
L 291.974535 77.506066 
L 292.439656 64.636962 
L 292.439656 64.654038 
L 292.672217 66.038499 
L 292.672217 65.924678 
L 292.904777 61.208814 
L 293.137338 54.057488 
L 293.137338 54.099948 
L 293.602459 53.990204 
L 293.602459 53.990204 
L 295.928065 53.990204 
L 295.928065 53.990204 
L 296.160625 54.625422 
L 296.393186 54.662021 
L 296.393186 54.652132 
L 296.858307 60.513091 
L 296.858307 60.505089 
L 297.323428 68.922161 
L 297.555989 69.267193 
L 297.555989 69.251493 
L 298.02111 75.654901 
L 298.02111 75.600208 
L 298.25367 80.141288 
L 298.25367 80.054941 
L 298.486231 80.382591 
L 298.951352 86.306094 
L 298.951352 86.304208 
L 299.183912 90.786669 
L 299.183912 90.730753 
L 299.416473 91.513128 
L 299.416473 94.820931 
L 299.649034 94.324816 
L 299.649034 94.357286 
L 299.881594 97.444684 
L 299.881594 97.400032 
L 300.114155 102.206373 
L 300.346715 102.411333 
L 300.346715 102.360666 
L 300.811836 109.525499 
L 301.044397 114.457385 
L 301.044397 114.398869 
L 301.276958 113.732201 
L 301.509518 117.371477 
L 301.509518 117.30613 
L 301.742079 122.856158 
L 301.742079 122.790251 
L 301.974639 122.56587 
L 301.974639 122.827868 
L 302.2072 126.055186 
L 302.43976 132.092968 
L 302.672321 131.585079 
L 302.672321 131.627233 
L 302.904881 135.144533 
L 303.137442 141.066149 
L 303.137442 141.044486 
L 303.370003 140.358449 
L 303.370003 140.396831 
L 303.602563 144.24224 
L 303.835124 150.268502 
L 304.067684 148.505367 
L 304.300245 153.000725 
L 304.300245 152.991754 
L 304.532805 153.788146 
L 304.765366 156.343393 
L 304.997927 161.034281 
L 305.230487 160.571655 
L 305.463048 163.676129 
L 305.463048 163.666954 
L 305.695608 164.568554 
L 305.928169 166.627941 
L 305.928169 166.604748 
L 306.160729 170.287708 
L 306.39329 169.682615 
L 306.39329 169.711975 
L 306.62585 172.254427 
L 306.858411 172.640339 
L 307.788653 178.12971 
L 308.021214 177.985356 
L 308.021214 177.986783 
L 308.253774 179.506627 
L 308.486335 179.504639 
L 308.486335 179.506525 
L 308.718896 180.630569 
L 308.718896 180.629906 
L 308.951456 180.689951 
L 309.649138 182.22891 
L 309.649138 182.228553 
L 310.114259 182.74368 
L 310.114259 182.742049 
L 310.346819 182.411799 
L 310.811941 182.816418 
L 310.811941 182.815449 
L 311.044501 182.331823 
L 311.044501 182.334219 
L 311.277062 182.478165 
L 311.277062 182.476789 
L 311.509622 182.346605 
L 311.509622 182.349664 
L 311.742183 182.766057 
L 311.742183 182.765547 
L 311.974743 182.317959 
L 312.207304 182.635823 
L 312.207304 182.491775 
L 313.137546 181.493276 
L 313.137546 181.493939 
L 313.370107 181.590838 
L 313.602667 179.397699 
L 313.835228 180.510732 
L 314.067788 178.379118 
L 314.300349 178.757282 
L 314.53291 176.689383 
L 314.53291 176.781745 
L 314.76547 176.719864 
L 314.998031 174.466069 
L 314.998031 174.562457 
L 315.230591 173.872342 
L 315.230591 173.894107 
L 315.463152 172.267272 
L 315.695712 167.41261 
L 315.695712 167.439676 
L 315.928273 169.133999 
L 316.160834 164.263229 
L 316.393394 164.915319 
L 316.625955 160.77371 
L 316.625955 160.788492 
L 316.858515 160.361088 
L 316.858515 160.371232 
L 317.323636 155.231379 
L 317.556197 152.645243 
L 317.556197 152.849694 
L 317.788757 145.371584 
L 317.788757 145.456861 
L 318.021318 146.922776 
L 318.253879 140.856908 
L 318.253879 140.937036 
L 318.486439 140.033194 
L 318.486439 140.178873 
L 318.719 135.847493 
L 318.719 136.051791 
L 318.95156 127.001947 
L 319.184121 129.144521 
L 319.184121 128.968054 
L 319.416681 121.793587 
L 319.649242 121.486326 
L 319.649242 121.51589 
L 319.881803 116.770767 
L 320.114363 107.152734 
L 320.114363 107.290818 
L 320.346924 108.639854 
L 320.579484 101.643943 
L 320.579484 101.737274 
L 320.812045 99.565238 
L 320.812045 99.579153 
L 321.044605 94.443837 
L 321.277166 86.437704 
L 321.277166 86.638739 
L 321.509726 84.994115 
L 321.742287 79.864457 
L 321.742287 80.084504 
L 321.974848 71.376788 
L 321.974848 71.439178 
L 322.207408 69.680681 
L 322.207408 69.780893 
L 322.672529 57.148709 
L 322.672529 56.988146 
L 322.90509 53.990204 
L 322.90509 53.990204 
L 330.812149 53.990204 
L 330.812149 53.990204 
L 331.04471 54.818455 
L 331.04471 54.767737 
L 331.27727 59.121647 
L 331.27727 55.43884 
L 331.974952 66.251207 
L 332.207512 72.394757 
L 332.440073 73.197114 
L 332.440073 72.902239 
L 332.905194 83.435838 
L 332.905194 83.2032 
L 333.137755 92.410599 
L 333.137755 92.405451 
L 333.370315 94.386697 
L 333.370315 94.079486 
L 334.067997 115.927378 
L 334.067997 115.772931 
L 334.300557 116.267822 
L 334.300557 116.029679 
L 334.998239 128.47036 
L 334.998239 128.387734 
L 335.695921 137.47754 
L 335.695921 137.297046 
L 336.393603 143.671298 
L 336.393603 143.621549 
L 336.626163 145.158163 
L 336.626163 145.101073 
L 336.858724 147.628285 
L 337.091284 147.743636 
L 337.091284 147.690981 
L 337.556405 150.378603 
L 337.556405 150.366879 
L 337.788966 150.300513 
L 338.254087 151.378222 
L 338.254087 151.334794 
L 338.486648 151.896867 
L 338.719208 151.864856 
L 338.719208 151.864958 
L 338.951769 152.050905 
L 338.951769 152.049682 
L 339.41689 151.953089 
L 339.64945 152.444259 
L 339.64945 152.432637 
L 339.882011 152.024501 
L 340.114572 152.21208 
L 340.579693 151.891413 
L 340.579693 151.897835 
L 340.812253 152.397161 
L 340.812253 152.108708 
L 341.044814 151.821835 
L 341.277374 151.974549 
L 341.509935 151.674423 
L 341.509935 151.678042 
L 341.742495 150.913456 
L 341.742495 150.921255 
L 341.975056 151.171275 
L 342.207617 150.398788 
L 342.207617 150.740048 
L 342.672738 150.017718 
L 342.672738 150.027352 
L 342.905298 148.118741 
L 342.905298 148.151568 
L 343.137859 148.464844 
L 343.137859 148.394094 
L 343.370419 147.048066 
L 343.370419 147.146443 
L 343.60298 146.828477 
L 343.60298 146.873435 
L 343.835541 145.711315 
L 344.068101 143.445541 
L 344.300662 143.685366 
L 344.533222 142.063271 
L 344.533222 142.130504 
L 344.765783 139.038518 
L 344.998343 139.915549 
L 344.998343 139.862283 
L 345.230904 139.400779 
L 345.463464 139.779351 
L 345.696025 141.103665 
L 345.928586 145.115142 
L 345.928586 145.091083 
L 346.161146 144.587068 
L 346.161146 144.647776 
L 346.393707 147.884625 
L 346.626267 153.679218 
L 346.626267 149.223874 
L 346.858828 151.759394 
L 347.091388 158.335904 
L 347.091388 158.221369 
L 347.323949 158.215456 
L 347.323949 158.2256 
L 347.78907 165.956481 
L 347.78907 174.769507 
L 348.021631 170.412743 
L 348.021631 171.030784 
L 348.254191 183.33078 
L 348.254191 182.718449 
L 348.486752 181.503675 
L 348.719312 191.678632 
L 348.951873 193.22228 
L 348.951873 192.889328 
L 349.184433 201.165462 
L 349.184433 200.804475 
L 349.416994 204.562976 
L 349.416994 215.18802 
L 349.649555 210.292937 
L 349.649555 210.781864 
L 349.882115 223.443357 
L 349.882115 214.559428 
L 350.114676 219.254139 
L 350.114676 219.223709 
L 350.347236 231.537009 
L 350.347236 231.37665 
L 350.579797 227.182284 
L 350.579797 227.478841 
L 351.277479 237.883939 
L 351.277479 237.813139 
L 351.510039 243.453999 
L 351.510039 243.08083 
L 351.7426 244.151556 
L 351.97516 250.070216 
L 352.207721 249.221526 
L 352.207721 249.517574 
L 352.440281 257.205231 
L 352.440281 256.610689 
L 352.672842 254.444923 
L 352.672842 254.557572 
L 352.905402 256.860555 
L 353.137963 260.86984 
L 353.370524 261.125518 
L 353.603084 266.32297 
L 353.835645 265.035509 
L 354.533326 270.691508 
L 354.765887 274.022656 
L 354.998448 273.421998 
L 354.998448 273.470065 
L 355.92869 279.509427 
L 355.92869 279.386737 
L 356.16125 279.190697 
L 356.626371 281.093955 
L 356.858932 281.61892 
L 356.858932 281.598174 
L 357.091493 282.65524 
L 357.324053 282.52577 
L 357.789174 283.552966 
L 358.021735 283.460043 
L 358.021735 283.502197 
L 359.184538 284.110604 
L 359.184538 284.109228 
L 359.417098 283.711847 
L 359.417098 283.713376 
L 359.882219 283.907581 
L 360.11478 283.724233 
L 360.34734 283.818481 
L 360.579901 283.431091 
L 360.579901 283.431804 
L 360.812462 283.64018 
L 360.812462 283.636357 
L 361.045022 283.625041 
L 361.045022 283.62606 
L 361.277583 282.996347 
L 361.277583 283.005318 
L 361.510143 283.123166 
L 361.510143 283.114552 
L 361.742704 281.67346 
L 361.742704 281.674429 
L 361.975264 282.48749 
L 361.975264 282.475817 
L 362.207825 281.956 
L 362.207825 281.958141 
L 362.440386 280.3205 
L 362.440386 280.32677 
L 362.672946 280.590705 
L 362.905507 280.010282 
L 362.905507 280.010282 
L 363.370628 278.020473 
L 363.370628 278.021441 
L 363.603188 275.355432 
L 363.603188 275.362262 
L 363.835749 275.600405 
L 363.835749 275.584756 
L 364.068309 274.641053 
L 364.068309 271.516649 
L 364.30087 273.062795 
L 364.30087 273.012842 
L 364.533431 271.577918 
L 364.765991 268.858745 
L 364.998552 268.293766 
L 365.231112 263.595029 
L 365.231112 263.696005 
L 365.463673 264.871633 
L 365.463673 264.815818 
L 365.696233 263.397358 
L 365.928794 259.647166 
L 366.161355 259.705019 
L 366.161355 259.698801 
L 366.393915 253.572581 
L 366.626476 255.411869 
L 366.626476 255.410136 
L 366.859036 254.133685 
L 367.091597 248.886535 
L 367.324157 250.156513 
L 367.556718 242.155324 
L 367.556718 247.945738 
L 367.789278 244.10563 
L 368.021839 243.379834 
L 368.021839 243.536218 
L 368.2544 237.005889 
L 368.2544 237.068432 
L 368.48696 238.313535 
L 368.719521 235.922572 
L 368.952081 232.062331 
L 368.952081 232.12676 
L 369.184642 230.776246 
L 369.184642 231.015052 
L 369.417202 224.468361 
L 369.417202 224.534982 
L 369.649763 225.458041 
L 369.882324 217.03006 
L 369.882324 217.173191 
L 370.114884 219.56767 
L 370.114884 219.533009 
L 370.347445 216.503872 
L 370.580005 212.040372 
L 370.812566 210.980095 
L 371.045126 204.968819 
L 371.277687 205.535785 
L 371.510247 197.919795 
L 371.510247 198.176339 
L 371.742808 199.610957 
L 371.975369 191.948174 
L 371.975369 191.974782 
L 372.207929 193.987019 
L 372.44049 187.501954 
L 372.67305 188.763623 
L 372.905611 187.787399 
L 372.905611 187.789132 
L 373.138171 187.390324 
L 373.370732 188.519974 
L 373.370732 190.809808 
L 373.603293 190.133812 
L 373.835853 191.173088 
L 373.835853 191.172833 
L 374.300974 195.058969 
L 374.533535 195.305777 
L 374.998656 196.845245 
L 375.231216 197.099139 
L 375.463777 197.749088 
L 375.463777 197.737925 
L 375.696338 197.559267 
L 375.696338 197.563854 
L 375.928898 197.939113 
L 375.928898 197.736804 
L 376.161459 197.492034 
L 376.394019 197.874429 
L 376.394019 197.74134 
L 376.62658 197.701378 
L 376.62658 197.817034 
L 376.85914 197.955781 
L 377.091701 197.862858 
L 377.091701 197.86923 
L 377.324262 198.012666 
L 377.556822 197.938603 
L 377.556822 197.700817 
L 377.789383 197.589697 
L 378.021943 197.917246 
L 378.254504 197.434129 
L 378.254504 197.485306 
L 378.487064 197.30466 
L 378.952185 196.241987 
L 379.184746 193.007686 
L 379.184746 193.051166 
L 379.417307 194.499241 
L 379.417307 194.423139 
L 379.649867 190.800887 
L 379.882428 192.134223 
L 379.882428 192.113631 
L 380.114988 187.359384 
L 380.114988 187.368457 
L 380.347549 188.753938 
L 380.580109 184.352471 
L 380.81267 185.122766 
L 380.81267 184.876569 
L 381.045231 179.672542 
L 381.277791 180.169268 
L 381.277791 180.544731 
L 381.510352 175.492194 
L 381.742912 175.133552 
L 381.742912 175.402584 
L 381.975473 169.89731 
L 382.208033 168.896162 
L 382.208033 168.904827 
L 382.905715 158.407112 
L 382.905715 158.420569 
L 383.138276 147.583378 
L 383.138276 147.697149 
L 383.370836 150.483861 
L 383.370836 150.463268 
L 383.603397 140.554998 
L 383.835957 141.370913 
L 383.835957 141.068545 
L 384.068518 133.799983 
L 384.301078 131.372219 
L 384.533639 125.815666 
L 384.533639 126.085412 
L 384.7662 112.8096 
L 384.99876 115.035106 
L 384.99876 114.563968 
L 385.231321 105.061388 
L 385.463881 103.300189 
L 385.463881 103.401675 
L 385.696442 96.416775 
L 385.929002 86.469817 
L 386.161563 84.527972 
L 386.859245 67.107441 
L 387.556926 53.990204 
L 387.556926 53.990204 
L 397.091909 54.068498 
L 397.091909 53.990204 
L 397.32447 54.184103 
L 397.55703 53.990204 
L 397.55703 53.990204 
L 398.487273 53.990204 
L 398.487273 53.990204 
" clip-path="url(#pbcff15c59d)" style="fill: none; stroke: #ff7f0e; stroke-width: 1.5; stroke-linecap: square"/>
   </g>
   <g id="patch_3">
    <path d="M 57.6 307.584 
L 57.6 41.472 
" style="fill: none; stroke: #000000; stroke-width: 0.8; stroke-linejoin: miter; stroke-linecap: square"/>
   </g>
   <g id="patch_4">
    <path d="M 414.72 307.584 
L 414.72 41.472 
" style="fill: none; stroke: #000000; stroke-width: 0.8; stroke-linejoin: miter; stroke-linecap: square"/>
   </g>
   <g id="patch_5">
    <path d="M 57.6 307.584 
L 414.72 307.584 
" style="fill: none; stroke: #000000; stroke-width: 0.8; stroke-linejoin: miter; stroke-linecap: square"/>
   </g>
   <g id="patch_6">
    <path d="M 57.6 41.472 
L 414.72 41.472 
" style="fill: none; stroke: #000000; stroke-width: 0.8; stroke-linejoin: miter; stroke-linecap: square"/>
   </g>
   <g id="text_14">
    <!-- Actual speed vs Expected speed -->
    <g transform="translate(138.808125 35.472) scale(0.12 -0.12)">
     <defs>
      <path id="DejaVuSans-41" d="M 2188 4044 
L 1331 1722 
L 3047 1722 
L 2188 4044 
z
M 1831 4666 
L 2547 4666 
L 4325 0 
L 3669 0 
L 3244 1197 
L 1141 1197 
L 716 0 
L 50 0 
L 1831 4666 
z
" transform="scale(0.015625)"/>
      <path id="DejaVuSans-75" d="M 544 1381 
L 544 3500 
L 1119 3500 
L 1119 1403 
Q 1119 906 1312 657 
Q 1506 409 1894 409 
Q 2359 409 2629 706 
Q 2900 1003 2900 1516 
L 2900 3500 
L 3475 3500 
L 3475 0 
L 2900 0 
L 2900 538 
Q 2691 219 2414 64 
Q 2138 -91 1772 -91 
Q 1169 -91 856 284 
Q 544 659 544 1381 
z
M 1991 3584 
L 1991 3584 
z
" transform="scale(0.015625)"/>
      <path id="DejaVuSans-61" d="M 2194 1759 
Q 1497 1759 1228 1600 
Q 959 1441 959 1056 
Q 959 750 1161 570 
Q 1363 391 1709 391 
Q 2188 391 2477 730 
Q 2766 1069 2766 1631 
L 2766 1759 
L 2194 1759 
z
M 3341 1997 
L 3341 0 
L 2766 0 
L 2766 531 
Q 2569 213 2275 61 
Q 1981 -91 1556 -91 
Q 1019 -91 701 211 
Q 384 513 384 1019 
Q 384 1609 779 1909 
Q 1175 2209 1959 2209 
L 2766 2209 
L 2766 2266 
Q 2766 2663 2505 2880 
Q 2244 3097 1772 3097 
Q 1472 3097 1187 3025 
Q 903 2953 641 2809 
L 641 3341 
Q 956 3463 1253 3523 
Q 1550 3584 1831 3584 
Q 2591 3584 2966 3190 
Q 3341 2797 3341 1997 
z
" transform="scale(0.015625)"/>
      <path id="DejaVuSans-20" transform="scale(0.015625)"/>
      <path id="DejaVuSans-70" d="M 1159 525 
L 1159 -1331 
L 581 -1331 
L 581 3500 
L 1159 3500 
L 1159 2969 
Q 1341 3281 1617 3432 
Q 1894 3584 2278 3584 
Q 2916 3584 3314 3078 
Q 3713 2572 3713 1747 
Q 3713 922 3314 415 
Q 2916 -91 2278 -91 
Q 1894 -91 1617 61 
Q 1341 213 1159 525 
z
M 3116 1747 
Q 3116 2381 2855 2742 
Q 2594 3103 2138 3103 
Q 1681 3103 1420 2742 
Q 1159 2381 1159 1747 
Q 1159 1113 1420 752 
Q 1681 391 2138 391 
Q 2594 391 2855 752 
Q 3116 1113 3116 1747 
z
" transform="scale(0.015625)"/>
      <path id="DejaVuSans-64" d="M 2906 2969 
L 2906 4863 
L 3481 4863 
L 3481 0 
L 2906 0 
L 2906 525 
Q 2725 213 2448 61 
Q 2172 -91 1784 -91 
Q 1150 -91 751 415 
Q 353 922 353 1747 
Q 353 2572 751 3078 
Q 1150 3584 1784 3584 
Q 2172 3584 2448 3432 
Q 2725 3281 2906 2969 
z
M 947 1747 
Q 947 1113 1208 752 
Q 1469 391 1925 391 
Q 2381 391 2643 752 
Q 2906 1113 2906 1747 
Q 2906 2381 2643 2742 
Q 2381 3103 1925 3103 
Q 1469 3103 1208 2742 
Q 947 2381 947 1747 
z
" transform="scale(0.015625)"/>
      <path id="DejaVuSans-76" d="M 191 3500 
L 800 3500 
L 1894 563 
L 2988 3500 
L 3597 3500 
L 2284 0 
L 1503 0 
L 191 3500 
z
" transform="scale(0.015625)"/>
      <path id="DejaVuSans-45" d="M 628 4666 
L 3578 4666 
L 3578 4134 
L 1259 4134 
L 1259 2753 
L 3481 2753 
L 3481 2222 
L 1259 2222 
L 1259 531 
L 3634 531 
L 3634 0 
L 628 0 
L 628 4666 
z
" transform="scale(0.015625)"/>
      <path id="DejaVuSans-78" d="M 3513 3500 
L 2247 1797 
L 3578 0 
L 2900 0 
L 1881 1375 
L 863 0 
L 184 0 
L 1544 1831 
L 300 3500 
L 978 3500 
L 1906 2253 
L 2834 3500 
L 3513 3500 
z
" transform="scale(0.015625)"/>
     </defs>
     <use xlink:href="#DejaVuSans-41"/>
     <use xlink:href="#DejaVuSans-63" x="66.658203"/>
     <use xlink:href="#DejaVuSans-74" x="121.638672"/>
     <use xlink:href="#DejaVuSans-75" x="160.847656"/>
     <use xlink:href="#DejaVuSans-61" x="224.226562"/>
     <use xlink:href="#DejaVuSans-6c" x="285.505859"/>
     <use xlink:href="#DejaVuSans-20" x="313.289062"/>
     <use xlink:href="#DejaVuSans-73" x="345.076172"/>
     <use xlink:href="#DejaVuSans-70" x="397.175781"/>
     <use xlink:href="#DejaVuSans-65" x="460.652344"/>
     <use xlink:href="#DejaVuSans-65" x="522.175781"/>
     <use xlink:href="#DejaVuSans-64" x="583.699219"/>
     <use xlink:href="#DejaVuSans-20" x="647.175781"/>
     <use xlink:href="#DejaVuSans-76" x="678.962891"/>
     <use xlink:href="#DejaVuSans-73" x="738.142578"/>
     <use xlink:href="#DejaVuSans-20" x="790.242188"/>
     <use xlink:href="#DejaVuSans-45" x="822.029297"/>
     <use xlink:href="#DejaVuSans-78" x="885.212891"/>
     <use xlink:href="#DejaVuSans-70" x="944.392578"/>
     <use xlink:href="#DejaVuSans-65" x="1007.869141"/>
     <use xlink:href="#DejaVuSans-63" x="1069.392578"/>
     <use xlink:href="#DejaVuSans-74" x="1124.373047"/>
     <use xlink:href="#DejaVuSans-65" x="1163.582031"/>
     <use xlink:href="#DejaVuSans-64" x="1225.105469"/>
     <use xlink:href="#DejaVuSans-20" x="1288.582031"/>
     <use xlink:href="#DejaVuSans-73" x="1320.369141"/>
     <use xlink:href="#DejaVuSans-70" x="1372.46875"/>
     <use xlink:href="#DejaVuSans-65" x="1435.945312"/>
     <use xlink:href="#DejaVuSans-65" x="1497.46875"/>
     <use xlink:href="#DejaVuSans-64" x="1558.992188"/>
    </g>
   </g>
   <g id="legend_1">
    <g id="patch_7">
     <path d="M 64.6 302.584 
L 176.65 302.584 
Q 178.65 302.584 178.65 300.584 
L 178.65 272.22775 
Q 178.65 270.22775 176.65 270.22775 
L 64.6 270.22775 
Q 62.6 270.22775 62.6 272.22775 
L 62.6 300.584 
Q 62.6 302.584 64.6 302.584 
z
" style="fill: #ffffff; opacity: 0.8; stroke: #cccccc; stroke-linejoin: miter"/>
    </g>
    <g id="line2d_25">
     <path d="M 66.6 278.326187 
L 76.6 278.326187 
L 86.6 278.326187 
" style="fill: none; stroke: #1f77b4; stroke-width: 1.5; stroke-linecap: square"/>
    </g>
    <g id="text_15">
     <!-- Actual speed -->
     <g transform="translate(94.6 281.826187) scale(0.1 -0.1)">
      <use xlink:href="#DejaVuSans-41"/>
      <use xlink:href="#DejaVuSans-63" x="66.658203"/>
      <use xlink:href="#DejaVuSans-74" x="121.638672"/>
      <use xlink:href="#DejaVuSans-75" x="160.847656"/>
      <use xlink:href="#DejaVuSans-61" x="224.226562"/>
      <use xlink:href="#DejaVuSans-6c" x="285.505859"/>
      <use xlink:href="#DejaVuSans-20" x="313.289062"/>
      <use xlink:href="#DejaVuSans-73" x="345.076172"/>
      <use xlink:href="#DejaVuSans-70" x="397.175781"/>
      <use xlink:href="#DejaVuSans-65" x="460.652344"/>
      <use xlink:href="#DejaVuSans-65" x="522.175781"/>
      <use xlink:href="#DejaVuSans-64" x="583.699219"/>
     </g>
    </g>
    <g id="line2d_26">
     <path d="M 66.6 293.004312 
L 76.6 293.004312 
L 86.6 293.004312 
" style="fill: none; stroke: #ff7f0e; stroke-width: 1.5; stroke-linecap: square"/>
    </g>
    <g id="text_16">
     <!-- Expected speed -->
     <g transform="translate(94.6 296.504312) scale(0.1 -0.1)">
      <use xlink:href="#DejaVuSans-45"/>
      <use xlink:href="#DejaVuSans-78" x="63.183594"/>
      <use xlink:href="#DejaVuSans-70" x="122.363281"/>
      <use xlink:href="#DejaVuSans-65" x="185.839844"/>
      <use xlink:href="#DejaVuSans-63" x="247.363281"/>
      <use xlink:href="#DejaVuSans-74" x="302.34375"/>
      <use xlink:href="#DejaVuSans-65" x="341.552734"/>
      <use xlink:href="#DejaVuSans-64" x="403.076172"/>
      <use xlink:href="#DejaVuSans-20" x="466.552734"/>
      <use xlink:href="#DejaVuSans-73" x="498.339844"/>
      <use xlink:href="#DejaVuSans-70" x="550.439453"/>
      <use xlink:href="#DejaVuSans-65" x="613.916016"/>
      <use xlink:href="#DejaVuSans-65" x="675.439453"/>
      <use xlink:href="#DejaVuSans-64" x="736.962891"/>
     </g>
    </g>
   </g>
  </g>
 </g>
 <defs>
  <clipPath id="pbcff15c59d">
   <rect x="57.6" y="41.472" width="357.12" height="266.112"/>
  </clipPath>
 </defs>
</svg>
