<?xml version="1.0" encoding="utf-8" standalone="no"?>
<!DOCTYPE svg PUBLIC "-//W3C//DTD SVG 1.1//EN"
  "http://www.w3.org/Graphics/SVG/1.1/DTD/svg11.dtd">
<svg xmlns:xlink="http://www.w3.org/1999/xlink" width="460.8pt" height="345.6pt" viewBox="0 0 460.8 345.6" xmlns="http://www.w3.org/2000/svg" version="1.1">
 <metadata>
  <rdf:RDF xmlns:dc="http://purl.org/dc/elements/1.1/" xmlns:cc="http://creativecommons.org/ns#" xmlns:rdf="http://www.w3.org/1999/02/22-rdf-syntax-ns#">
   <cc:Work>
    <dc:type rdf:resource="http://purl.org/dc/dcmitype/StillImage"/>
    <dc:date>2024-01-30T20:59:14.318228</dc:date>
    <dc:format>image/svg+xml</dc:format>
    <dc:creator>
     <cc:Agent>
      <dc:title>Matplotlib v3.7.1, https://matplotlib.org/</dc:title>
     </cc:Agent>
    </dc:creator>
   </cc:Work>
  </rdf:RDF>
 </metadata>
 <defs>
  <style type="text/css">*{stroke-linejoin: round; stroke-linecap: butt}</style>
 </defs>
 <g id="figure_1">
  <g id="patch_1">
   <path d="M 0 345.6 
L 460.8 345.6 
L 460.8 0 
L 0 0 
z
" style="fill: #ffffff"/>
  </g>
  <g id="axes_1">
   <g id="patch_2">
    <path d="M 57.6 307.584 
L 414.72 307.584 
L 414.72 41.472 
L 57.6 41.472 
z
" style="fill: #ffffff"/>
   </g>
   <g id="matplotlib.axis_1">
    <g id="xtick_1">
     <g id="line2d_1">
      <path d="M 73.832727 307.584 
L 73.832727 41.472 
" clip-path="url(#pe98c039948)" style="fill: none; stroke: #b0b0b0; stroke-width: 0.8; stroke-linecap: square"/>
     </g>
     <g id="line2d_2">
      <defs>
       <path id="mdaf304c55f" d="M 0 0 
L 0 3.5 
" style="stroke: #000000; stroke-width: 0.8"/>
      </defs>
      <g>
       <use xlink:href="#mdaf304c55f" x="73.832727" y="307.584" style="stroke: #000000; stroke-width: 0.8"/>
      </g>
     </g>
     <g id="text_1">
      <!-- 0 -->
      <g transform="translate(70.651477 322.182437) scale(0.1 -0.1)">
       <defs>
        <path id="DejaVuSans-30" d="M 2034 4250 
Q 1547 4250 1301 3770 
Q 1056 3291 1056 2328 
Q 1056 1369 1301 889 
Q 1547 409 2034 409 
Q 2525 409 2770 889 
Q 3016 1369 3016 2328 
Q 3016 3291 2770 3770 
Q 2525 4250 2034 4250 
z
M 2034 4750 
Q 2819 4750 3233 4129 
Q 3647 3509 3647 2328 
Q 3647 1150 3233 529 
Q 2819 -91 2034 -91 
Q 1250 -91 836 529 
Q 422 1150 422 2328 
Q 422 3509 836 4129 
Q 1250 4750 2034 4750 
z
" transform="scale(0.015625)"/>
       </defs>
       <use xlink:href="#DejaVuSans-30"/>
      </g>
     </g>
    </g>
    <g id="xtick_2">
     <g id="line2d_3">
      <path d="M 131.93125 307.584 
L 131.93125 41.472 
" clip-path="url(#pe98c039948)" style="fill: none; stroke: #b0b0b0; stroke-width: 0.8; stroke-linecap: square"/>
     </g>
     <g id="line2d_4">
      <g>
       <use xlink:href="#mdaf304c55f" x="131.93125" y="307.584" style="stroke: #000000; stroke-width: 0.8"/>
      </g>
     </g>
     <g id="text_2">
      <!-- 5 -->
      <g transform="translate(128.75 322.182437) scale(0.1 -0.1)">
       <defs>
        <path id="DejaVuSans-35" d="M 691 4666 
L 3169 4666 
L 3169 4134 
L 1269 4134 
L 1269 2991 
Q 1406 3038 1543 3061 
Q 1681 3084 1819 3084 
Q 2600 3084 3056 2656 
Q 3513 2228 3513 1497 
Q 3513 744 3044 326 
Q 2575 -91 1722 -91 
Q 1428 -91 1123 -41 
Q 819 9 494 109 
L 494 744 
Q 775 591 1075 516 
Q 1375 441 1709 441 
Q 2250 441 2565 725 
Q 2881 1009 2881 1497 
Q 2881 1984 2565 2268 
Q 2250 2553 1709 2553 
Q 1456 2553 1204 2497 
Q 953 2441 691 2322 
L 691 4666 
z
" transform="scale(0.015625)"/>
       </defs>
       <use xlink:href="#DejaVuSans-35"/>
      </g>
     </g>
    </g>
    <g id="xtick_3">
     <g id="line2d_5">
      <path d="M 190.029773 307.584 
L 190.029773 41.472 
" clip-path="url(#pe98c039948)" style="fill: none; stroke: #b0b0b0; stroke-width: 0.8; stroke-linecap: square"/>
     </g>
     <g id="line2d_6">
      <g>
       <use xlink:href="#mdaf304c55f" x="190.029773" y="307.584" style="stroke: #000000; stroke-width: 0.8"/>
      </g>
     </g>
     <g id="text_3">
      <!-- 10 -->
      <g transform="translate(183.667273 322.182437) scale(0.1 -0.1)">
       <defs>
        <path id="DejaVuSans-31" d="M 794 531 
L 1825 531 
L 1825 4091 
L 703 3866 
L 703 4441 
L 1819 4666 
L 2450 4666 
L 2450 531 
L 3481 531 
L 3481 0 
L 794 0 
L 794 531 
z
" transform="scale(0.015625)"/>
       </defs>
       <use xlink:href="#DejaVuSans-31"/>
       <use xlink:href="#DejaVuSans-30" x="63.623047"/>
      </g>
     </g>
    </g>
    <g id="xtick_4">
     <g id="line2d_7">
      <path d="M 248.128296 307.584 
L 248.128296 41.472 
" clip-path="url(#pe98c039948)" style="fill: none; stroke: #b0b0b0; stroke-width: 0.8; stroke-linecap: square"/>
     </g>
     <g id="line2d_8">
      <g>
       <use xlink:href="#mdaf304c55f" x="248.128296" y="307.584" style="stroke: #000000; stroke-width: 0.8"/>
      </g>
     </g>
     <g id="text_4">
      <!-- 15 -->
      <g transform="translate(241.765796 322.182437) scale(0.1 -0.1)">
       <use xlink:href="#DejaVuSans-31"/>
       <use xlink:href="#DejaVuSans-35" x="63.623047"/>
      </g>
     </g>
    </g>
    <g id="xtick_5">
     <g id="line2d_9">
      <path d="M 306.226819 307.584 
L 306.226819 41.472 
" clip-path="url(#pe98c039948)" style="fill: none; stroke: #b0b0b0; stroke-width: 0.8; stroke-linecap: square"/>
     </g>
     <g id="line2d_10">
      <g>
       <use xlink:href="#mdaf304c55f" x="306.226819" y="307.584" style="stroke: #000000; stroke-width: 0.8"/>
      </g>
     </g>
     <g id="text_5">
      <!-- 20 -->
      <g transform="translate(299.864319 322.182437) scale(0.1 -0.1)">
       <defs>
        <path id="DejaVuSans-32" d="M 1228 531 
L 3431 531 
L 3431 0 
L 469 0 
L 469 531 
Q 828 903 1448 1529 
Q 2069 2156 2228 2338 
Q 2531 2678 2651 2914 
Q 2772 3150 2772 3378 
Q 2772 3750 2511 3984 
Q 2250 4219 1831 4219 
Q 1534 4219 1204 4116 
Q 875 4013 500 3803 
L 500 4441 
Q 881 4594 1212 4672 
Q 1544 4750 1819 4750 
Q 2544 4750 2975 4387 
Q 3406 4025 3406 3419 
Q 3406 3131 3298 2873 
Q 3191 2616 2906 2266 
Q 2828 2175 2409 1742 
Q 1991 1309 1228 531 
z
" transform="scale(0.015625)"/>
       </defs>
       <use xlink:href="#DejaVuSans-32"/>
       <use xlink:href="#DejaVuSans-30" x="63.623047"/>
      </g>
     </g>
    </g>
    <g id="xtick_6">
     <g id="line2d_11">
      <path d="M 364.325341 307.584 
L 364.325341 41.472 
" clip-path="url(#pe98c039948)" style="fill: none; stroke: #b0b0b0; stroke-width: 0.8; stroke-linecap: square"/>
     </g>
     <g id="line2d_12">
      <g>
       <use xlink:href="#mdaf304c55f" x="364.325341" y="307.584" style="stroke: #000000; stroke-width: 0.8"/>
      </g>
     </g>
     <g id="text_6">
      <!-- 25 -->
      <g transform="translate(357.962841 322.182437) scale(0.1 -0.1)">
       <use xlink:href="#DejaVuSans-32"/>
       <use xlink:href="#DejaVuSans-35" x="63.623047"/>
      </g>
     </g>
    </g>
    <g id="text_7">
     <!-- Time(s) -->
     <g transform="translate(217.420156 335.860562) scale(0.1 -0.1)">
      <defs>
       <path id="DejaVuSans-54" d="M -19 4666 
L 3928 4666 
L 3928 4134 
L 2272 4134 
L 2272 0 
L 1638 0 
L 1638 4134 
L -19 4134 
L -19 4666 
z
" transform="scale(0.015625)"/>
       <path id="DejaVuSans-69" d="M 603 3500 
L 1178 3500 
L 1178 0 
L 603 0 
L 603 3500 
z
M 603 4863 
L 1178 4863 
L 1178 4134 
L 603 4134 
L 603 4863 
z
" transform="scale(0.015625)"/>
       <path id="DejaVuSans-6d" d="M 3328 2828 
Q 3544 3216 3844 3400 
Q 4144 3584 4550 3584 
Q 5097 3584 5394 3201 
Q 5691 2819 5691 2113 
L 5691 0 
L 5113 0 
L 5113 2094 
Q 5113 2597 4934 2840 
Q 4756 3084 4391 3084 
Q 3944 3084 3684 2787 
Q 3425 2491 3425 1978 
L 3425 0 
L 2847 0 
L 2847 2094 
Q 2847 2600 2669 2842 
Q 2491 3084 2119 3084 
Q 1678 3084 1418 2786 
Q 1159 2488 1159 1978 
L 1159 0 
L 581 0 
L 581 3500 
L 1159 3500 
L 1159 2956 
Q 1356 3278 1631 3431 
Q 1906 3584 2284 3584 
Q 2666 3584 2933 3390 
Q 3200 3197 3328 2828 
z
" transform="scale(0.015625)"/>
       <path id="DejaVuSans-65" d="M 3597 1894 
L 3597 1613 
L 953 1613 
Q 991 1019 1311 708 
Q 1631 397 2203 397 
Q 2534 397 2845 478 
Q 3156 559 3463 722 
L 3463 178 
Q 3153 47 2828 -22 
Q 2503 -91 2169 -91 
Q 1331 -91 842 396 
Q 353 884 353 1716 
Q 353 2575 817 3079 
Q 1281 3584 2069 3584 
Q 2775 3584 3186 3129 
Q 3597 2675 3597 1894 
z
M 3022 2063 
Q 3016 2534 2758 2815 
Q 2500 3097 2075 3097 
Q 1594 3097 1305 2825 
Q 1016 2553 972 2059 
L 3022 2063 
z
" transform="scale(0.015625)"/>
       <path id="DejaVuSans-28" d="M 1984 4856 
Q 1566 4138 1362 3434 
Q 1159 2731 1159 2009 
Q 1159 1288 1364 580 
Q 1569 -128 1984 -844 
L 1484 -844 
Q 1016 -109 783 600 
Q 550 1309 550 2009 
Q 550 2706 781 3412 
Q 1013 4119 1484 4856 
L 1984 4856 
z
" transform="scale(0.015625)"/>
       <path id="DejaVuSans-73" d="M 2834 3397 
L 2834 2853 
Q 2591 2978 2328 3040 
Q 2066 3103 1784 3103 
Q 1356 3103 1142 2972 
Q 928 2841 928 2578 
Q 928 2378 1081 2264 
Q 1234 2150 1697 2047 
L 1894 2003 
Q 2506 1872 2764 1633 
Q 3022 1394 3022 966 
Q 3022 478 2636 193 
Q 2250 -91 1575 -91 
Q 1294 -91 989 -36 
Q 684 19 347 128 
L 347 722 
Q 666 556 975 473 
Q 1284 391 1588 391 
Q 1994 391 2212 530 
Q 2431 669 2431 922 
Q 2431 1156 2273 1281 
Q 2116 1406 1581 1522 
L 1381 1569 
Q 847 1681 609 1914 
Q 372 2147 372 2553 
Q 372 3047 722 3315 
Q 1072 3584 1716 3584 
Q 2034 3584 2315 3537 
Q 2597 3491 2834 3397 
z
" transform="scale(0.015625)"/>
       <path id="DejaVuSans-29" d="M 513 4856 
L 1013 4856 
Q 1481 4119 1714 3412 
Q 1947 2706 1947 2009 
Q 1947 1309 1714 600 
Q 1481 -109 1013 -844 
L 513 -844 
Q 928 -128 1133 580 
Q 1338 1288 1338 2009 
Q 1338 2731 1133 3434 
Q 928 4138 513 4856 
z
" transform="scale(0.015625)"/>
      </defs>
      <use xlink:href="#DejaVuSans-54"/>
      <use xlink:href="#DejaVuSans-69" x="57.958984"/>
      <use xlink:href="#DejaVuSans-6d" x="85.742188"/>
      <use xlink:href="#DejaVuSans-65" x="183.154297"/>
      <use xlink:href="#DejaVuSans-28" x="244.677734"/>
      <use xlink:href="#DejaVuSans-73" x="283.691406"/>
      <use xlink:href="#DejaVuSans-29" x="335.791016"/>
     </g>
    </g>
   </g>
   <g id="matplotlib.axis_2">
    <g id="ytick_1">
     <g id="line2d_13">
      <path d="M 57.6 257.806949 
L 414.72 257.806949 
" clip-path="url(#pe98c039948)" style="fill: none; stroke: #b0b0b0; stroke-width: 0.8; stroke-linecap: square"/>
     </g>
     <g id="line2d_14">
      <defs>
       <path id="m160c992c21" d="M 0 0 
L -3.5 0 
" style="stroke: #000000; stroke-width: 0.8"/>
      </defs>
      <g>
       <use xlink:href="#m160c992c21" x="57.6" y="257.806949" style="stroke: #000000; stroke-width: 0.8"/>
      </g>
     </g>
     <g id="text_8">
      <!-- 4 -->
      <g transform="translate(44.2375 261.606168) scale(0.1 -0.1)">
       <defs>
        <path id="DejaVuSans-34" d="M 2419 4116 
L 825 1625 
L 2419 1625 
L 2419 4116 
z
M 2253 4666 
L 3047 4666 
L 3047 1625 
L 3713 1625 
L 3713 1100 
L 3047 1100 
L 3047 0 
L 2419 0 
L 2419 1100 
L 313 1100 
L 313 1709 
L 2253 4666 
z
" transform="scale(0.015625)"/>
       </defs>
       <use xlink:href="#DejaVuSans-34"/>
      </g>
     </g>
    </g>
    <g id="ytick_2">
     <g id="line2d_15">
      <path d="M 57.6 206.859691 
L 414.72 206.859691 
" clip-path="url(#pe98c039948)" style="fill: none; stroke: #b0b0b0; stroke-width: 0.8; stroke-linecap: square"/>
     </g>
     <g id="line2d_16">
      <g>
       <use xlink:href="#m160c992c21" x="57.6" y="206.859691" style="stroke: #000000; stroke-width: 0.8"/>
      </g>
     </g>
     <g id="text_9">
      <!-- 5 -->
      <g transform="translate(44.2375 210.658909) scale(0.1 -0.1)">
       <use xlink:href="#DejaVuSans-35"/>
      </g>
     </g>
    </g>
    <g id="ytick_3">
     <g id="line2d_17">
      <path d="M 57.6 155.912432 
L 414.72 155.912432 
" clip-path="url(#pe98c039948)" style="fill: none; stroke: #b0b0b0; stroke-width: 0.8; stroke-linecap: square"/>
     </g>
     <g id="line2d_18">
      <g>
       <use xlink:href="#m160c992c21" x="57.6" y="155.912432" style="stroke: #000000; stroke-width: 0.8"/>
      </g>
     </g>
     <g id="text_10">
      <!-- 6 -->
      <g transform="translate(44.2375 159.711651) scale(0.1 -0.1)">
       <defs>
        <path id="DejaVuSans-36" d="M 2113 2584 
Q 1688 2584 1439 2293 
Q 1191 2003 1191 1497 
Q 1191 994 1439 701 
Q 1688 409 2113 409 
Q 2538 409 2786 701 
Q 3034 994 3034 1497 
Q 3034 2003 2786 2293 
Q 2538 2584 2113 2584 
z
M 3366 4563 
L 3366 3988 
Q 3128 4100 2886 4159 
Q 2644 4219 2406 4219 
Q 1781 4219 1451 3797 
Q 1122 3375 1075 2522 
Q 1259 2794 1537 2939 
Q 1816 3084 2150 3084 
Q 2853 3084 3261 2657 
Q 3669 2231 3669 1497 
Q 3669 778 3244 343 
Q 2819 -91 2113 -91 
Q 1303 -91 875 529 
Q 447 1150 447 2328 
Q 447 3434 972 4092 
Q 1497 4750 2381 4750 
Q 2619 4750 2861 4703 
Q 3103 4656 3366 4563 
z
" transform="scale(0.015625)"/>
       </defs>
       <use xlink:href="#DejaVuSans-36"/>
      </g>
     </g>
    </g>
    <g id="ytick_4">
     <g id="line2d_19">
      <path d="M 57.6 104.965174 
L 414.72 104.965174 
" clip-path="url(#pe98c039948)" style="fill: none; stroke: #b0b0b0; stroke-width: 0.8; stroke-linecap: square"/>
     </g>
     <g id="line2d_20">
      <g>
       <use xlink:href="#m160c992c21" x="57.6" y="104.965174" style="stroke: #000000; stroke-width: 0.8"/>
      </g>
     </g>
     <g id="text_11">
      <!-- 7 -->
      <g transform="translate(44.2375 108.764392) scale(0.1 -0.1)">
       <defs>
        <path id="DejaVuSans-37" d="M 525 4666 
L 3525 4666 
L 3525 4397 
L 1831 0 
L 1172 0 
L 2766 4134 
L 525 4134 
L 525 4666 
z
" transform="scale(0.015625)"/>
       </defs>
       <use xlink:href="#DejaVuSans-37"/>
      </g>
     </g>
    </g>
    <g id="ytick_5">
     <g id="line2d_21">
      <path d="M 57.6 54.017915 
L 414.72 54.017915 
" clip-path="url(#pe98c039948)" style="fill: none; stroke: #b0b0b0; stroke-width: 0.8; stroke-linecap: square"/>
     </g>
     <g id="line2d_22">
      <g>
       <use xlink:href="#m160c992c21" x="57.6" y="54.017915" style="stroke: #000000; stroke-width: 0.8"/>
      </g>
     </g>
     <g id="text_12">
      <!-- 8 -->
      <g transform="translate(44.2375 57.817134) scale(0.1 -0.1)">
       <defs>
        <path id="DejaVuSans-38" d="M 2034 2216 
Q 1584 2216 1326 1975 
Q 1069 1734 1069 1313 
Q 1069 891 1326 650 
Q 1584 409 2034 409 
Q 2484 409 2743 651 
Q 3003 894 3003 1313 
Q 3003 1734 2745 1975 
Q 2488 2216 2034 2216 
z
M 1403 2484 
Q 997 2584 770 2862 
Q 544 3141 544 3541 
Q 544 4100 942 4425 
Q 1341 4750 2034 4750 
Q 2731 4750 3128 4425 
Q 3525 4100 3525 3541 
Q 3525 3141 3298 2862 
Q 3072 2584 2669 2484 
Q 3125 2378 3379 2068 
Q 3634 1759 3634 1313 
Q 3634 634 3220 271 
Q 2806 -91 2034 -91 
Q 1263 -91 848 271 
Q 434 634 434 1313 
Q 434 1759 690 2068 
Q 947 2378 1403 2484 
z
M 1172 3481 
Q 1172 3119 1398 2916 
Q 1625 2713 2034 2713 
Q 2441 2713 2670 2916 
Q 2900 3119 2900 3481 
Q 2900 3844 2670 4047 
Q 2441 4250 2034 4250 
Q 1625 4250 1398 4047 
Q 1172 3844 1172 3481 
z
" transform="scale(0.015625)"/>
       </defs>
       <use xlink:href="#DejaVuSans-38"/>
      </g>
     </g>
    </g>
    <g id="text_13">
     <!-- Velocity(m/s) -->
     <g transform="translate(38.157812 207.204563) rotate(-90) scale(0.1 -0.1)">
      <defs>
       <path id="DejaVuSans-56" d="M 1831 0 
L 50 4666 
L 709 4666 
L 2188 738 
L 3669 4666 
L 4325 4666 
L 2547 0 
L 1831 0 
z
" transform="scale(0.015625)"/>
       <path id="DejaVuSans-6c" d="M 603 4863 
L 1178 4863 
L 1178 0 
L 603 0 
L 603 4863 
z
" transform="scale(0.015625)"/>
       <path id="DejaVuSans-6f" d="M 1959 3097 
Q 1497 3097 1228 2736 
Q 959 2375 959 1747 
Q 959 1119 1226 758 
Q 1494 397 1959 397 
Q 2419 397 2687 759 
Q 2956 1122 2956 1747 
Q 2956 2369 2687 2733 
Q 2419 3097 1959 3097 
z
M 1959 3584 
Q 2709 3584 3137 3096 
Q 3566 2609 3566 1747 
Q 3566 888 3137 398 
Q 2709 -91 1959 -91 
Q 1206 -91 779 398 
Q 353 888 353 1747 
Q 353 2609 779 3096 
Q 1206 3584 1959 3584 
z
" transform="scale(0.015625)"/>
       <path id="DejaVuSans-63" d="M 3122 3366 
L 3122 2828 
Q 2878 2963 2633 3030 
Q 2388 3097 2138 3097 
Q 1578 3097 1268 2742 
Q 959 2388 959 1747 
Q 959 1106 1268 751 
Q 1578 397 2138 397 
Q 2388 397 2633 464 
Q 2878 531 3122 666 
L 3122 134 
Q 2881 22 2623 -34 
Q 2366 -91 2075 -91 
Q 1284 -91 818 406 
Q 353 903 353 1747 
Q 353 2603 823 3093 
Q 1294 3584 2113 3584 
Q 2378 3584 2631 3529 
Q 2884 3475 3122 3366 
z
" transform="scale(0.015625)"/>
       <path id="DejaVuSans-74" d="M 1172 4494 
L 1172 3500 
L 2356 3500 
L 2356 3053 
L 1172 3053 
L 1172 1153 
Q 1172 725 1289 603 
Q 1406 481 1766 481 
L 2356 481 
L 2356 0 
L 1766 0 
Q 1100 0 847 248 
Q 594 497 594 1153 
L 594 3053 
L 172 3053 
L 172 3500 
L 594 3500 
L 594 4494 
L 1172 4494 
z
" transform="scale(0.015625)"/>
       <path id="DejaVuSans-79" d="M 2059 -325 
Q 1816 -950 1584 -1140 
Q 1353 -1331 966 -1331 
L 506 -1331 
L 506 -850 
L 844 -850 
Q 1081 -850 1212 -737 
Q 1344 -625 1503 -206 
L 1606 56 
L 191 3500 
L 800 3500 
L 1894 763 
L 2988 3500 
L 3597 3500 
L 2059 -325 
z
" transform="scale(0.015625)"/>
       <path id="DejaVuSans-2f" d="M 1625 4666 
L 2156 4666 
L 531 -594 
L 0 -594 
L 1625 4666 
z
" transform="scale(0.015625)"/>
      </defs>
      <use xlink:href="#DejaVuSans-56"/>
      <use xlink:href="#DejaVuSans-65" x="60.658203"/>
      <use xlink:href="#DejaVuSans-6c" x="122.181641"/>
      <use xlink:href="#DejaVuSans-6f" x="149.964844"/>
      <use xlink:href="#DejaVuSans-63" x="211.146484"/>
      <use xlink:href="#DejaVuSans-69" x="266.126953"/>
      <use xlink:href="#DejaVuSans-74" x="293.910156"/>
      <use xlink:href="#DejaVuSans-79" x="333.119141"/>
      <use xlink:href="#DejaVuSans-28" x="392.298828"/>
      <use xlink:href="#DejaVuSans-6d" x="431.3125"/>
      <use xlink:href="#DejaVuSans-2f" x="528.724609"/>
      <use xlink:href="#DejaVuSans-73" x="562.416016"/>
      <use xlink:href="#DejaVuSans-29" x="614.515625"/>
     </g>
    </g>
   </g>
   <g id="line2d_23">
    <path d="M 73.832727 54.654909 
L 73.832727 55.114504 
L 74.065121 55.003999 
L 74.065121 54.538545 
L 74.52991 54.480262 
L 74.52991 54.189811 
L 74.762304 54.477307 
L 74.762304 53.997434 
L 74.994698 54.541959 
L 74.994698 54.121746 
L 75.227092 53.905627 
L 75.227092 54.314887 
L 75.459486 55.299901 
L 75.459486 55.089947 
L 75.69188 54.545474 
L 75.924274 54.99325 
L 75.924274 54.397472 
L 76.156668 55.023359 
L 76.389062 55.07823 
L 76.389062 54.88947 
L 76.621456 54.819265 
L 76.621456 54.142328 
L 76.85385 54.997325 
L 76.85385 54.660258 
L 77.086245 54.477612 
L 77.086245 54.92768 
L 77.318639 54.607477 
L 77.318639 54.403637 
L 77.551033 54.506958 
L 77.551033 54.163013 
L 78.015821 54.561217 
L 78.015821 54.52642 
L 78.248215 54.30536 
L 78.248215 54.573699 
L 78.480609 53.912709 
L 78.480609 54.335317 
L 78.713003 54.589543 
L 78.713003 55.282222 
L 78.945397 54.695106 
L 78.945397 54.844229 
L 79.177791 54.628009 
L 79.177791 54.895125 
L 79.410185 54.486324 
L 79.410185 54.967776 
L 79.64258 54.209783 
L 79.64258 54.936902 
L 79.874974 54.696176 
L 79.874974 54.458049 
L 80.107368 54.644923 
L 80.107368 54.50059 
L 80.339762 54.527643 
L 80.339762 54.281465 
L 80.572156 54.535285 
L 80.572156 54.032945 
L 80.80455 54.455705 
L 81.036944 53.833435 
L 81.036944 54.502526 
L 81.269338 54.949893 
L 81.269338 54.290993 
L 81.501732 54.402873 
L 81.501732 54.947091 
L 81.734126 53.9122 
L 81.734126 54.254005 
L 81.96652 54.449591 
L 81.96652 54.626939 
L 82.198915 54.790378 
L 82.198915 54.280192 
L 82.431309 54.47262 
L 82.431309 54.384277 
L 82.663703 54.449184 
L 82.663703 54.059183 
L 82.896097 54.622761 
L 83.128491 54.52428 
L 83.128491 54.780952 
L 83.360885 54.294966 
L 83.360885 54.445821 
L 83.593279 54.218138 
L 83.593279 54.317791 
L 83.825673 54.501659 
L 83.825673 54.352231 
L 84.058067 54.320695 
L 84.058067 54.187417 
L 84.290461 54.24728 
L 84.290461 54.237243 
L 84.522855 54.112371 
L 84.522855 54.459934 
L 84.75525 54.423812 
L 84.75525 54.267557 
L 85.220038 53.762619 
L 85.220038 54.389626 
L 85.452432 54.511339 
L 85.452432 54.273874 
L 85.684826 54.312339 
L 85.684826 54.232199 
L 85.91722 53.928605 
L 86.149614 55.265308 
L 86.382008 54.80826 
L 86.614402 55.0309 
L 86.614402 55.514032 
L 86.846796 54.728833 
L 86.846796 54.758739 
L 87.07919 55.184455 
L 87.07919 54.917338 
L 87.311585 55.152714 
L 87.311585 54.79267 
L 87.543979 54.982347 
L 87.543979 54.50278 
L 88.008767 57.310076 
L 88.008767 57.162533 
L 88.473555 60.63306 
L 88.938343 65.075253 
L 88.938343 64.812315 
L 89.170737 68.332312 
L 89.170737 67.993105 
L 89.635525 72.114636 
L 89.635525 71.933722 
L 92.656649 104.473889 
L 93.121437 108.38669 
L 93.121437 108.128897 
L 93.586225 113.176853 
L 94.051013 116.741276 
L 94.748195 121.626761 
L 94.748195 121.368815 
L 95.212984 124.476751 
L 96.14256 128.891637 
L 96.374954 129.364376 
L 96.374954 129.855864 
L 96.607348 130.010133 
L 96.607348 130.198892 
L 96.839742 130.898704 
L 97.072136 131.504823 
L 97.072136 131.115026 
L 97.536925 131.969615 
L 97.769319 132.305052 
L 97.769319 132.197808 
L 98.001713 132.325533 
L 98.001713 132.699129 
L 98.234107 132.556273 
L 98.234107 132.278508 
L 98.466501 132.496919 
L 98.698895 132.829911 
L 98.698895 132.324514 
L 98.931289 132.896652 
L 99.163683 132.569214 
L 99.163683 132.333124 
L 99.396077 132.83847 
L 99.396077 132.729799 
L 99.860865 132.515413 
L 99.860865 132.924265 
L 100.09326 132.43777 
L 100.325654 132.00161 
L 100.325654 132.518215 
L 100.558048 132.579709 
L 100.558048 132.703205 
L 100.790442 132.312541 
L 101.022836 132.471751 
L 101.022836 132.235305 
L 101.25523 132.147421 
L 101.25523 131.784982 
L 101.487624 132.280801 
L 101.720018 131.358859 
L 101.720018 131.588326 
L 101.952412 131.194096 
L 101.952412 131.481846 
L 102.4172 129.980991 
L 102.4172 130.355657 
L 102.649595 129.524452 
L 102.649595 129.951289 
L 102.881989 128.531898 
L 102.881989 128.848077 
L 103.346777 127.429196 
L 104.508747 120.382833 
L 105.438324 112.31564 
L 105.903112 106.977692 
L 105.903112 107.013253 
L 106.3679 100.753619 
L 106.3679 100.851845 
L 108.227053 76.175795 
L 109.621417 66.308024 
L 109.621417 66.653447 
L 110.550994 62.391912 
L 110.550994 62.501653 
L 111.015782 60.976445 
L 111.015782 61.326554 
L 111.248176 60.24367 
L 111.48057 59.970797 
L 111.48057 59.637041 
L 111.712964 59.393666 
L 111.712964 59.218408 
L 112.874935 57.159476 
L 112.874935 57.208334 
L 113.107329 56.947841 
L 113.107329 57.068637 
L 113.339723 56.511427 
L 113.339723 56.62774 
L 113.572117 56.440661 
L 113.572117 56.264027 
L 113.804511 56.269529 
L 113.804511 56.048622 
L 114.036905 55.73978 
L 114.036905 56.166259 
L 114.269299 55.802394 
L 114.269299 56.011227 
L 114.501693 55.455647 
L 114.501693 55.66988 
L 114.734087 55.256137 
L 114.734087 55.801171 
L 114.966481 55.504709 
L 114.966481 55.187206 
L 115.198876 55.107117 
L 115.198876 55.779009 
L 115.663664 54.855845 
L 115.663664 55.009298 
L 115.896058 55.125814 
L 115.896058 54.86257 
L 116.128452 54.15425 
L 116.128452 54.890897 
L 116.360846 54.641866 
L 116.360846 55.022901 
L 116.59324 54.49631 
L 116.825634 54.484286 
L 116.825634 54.664334 
L 117.058028 54.47588 
L 117.290422 54.234798 
L 117.290422 54.520102 
L 117.522816 54.257979 
L 117.522816 54.420246 
L 117.755211 54.357886 
L 117.755211 54.597848 
L 117.987605 54.631677 
L 117.987605 54.517657 
L 118.219999 54.120625 
L 118.219999 54.488311 
L 118.452393 54.631779 
L 118.452393 54.330986 
L 118.684787 54.006554 
L 118.917181 54.102335 
L 118.917181 54.079256 
L 119.149575 54.489177 
L 119.149575 54.048382 
L 119.614363 54.361911 
L 119.614363 54.280345 
L 119.846757 53.651706 
L 119.846757 54.478377 
L 120.079151 54.412247 
L 120.079151 54.574871 
L 120.311546 54.39574 
L 120.311546 54.156594 
L 120.776334 54.439198 
L 120.776334 54.171368 
L 121.008728 54.47751 
L 121.008728 53.952295 
L 121.241122 54.622252 
L 121.241122 53.942513 
L 121.473516 53.976699 
L 121.473516 53.568 
L 121.70591 54.569572 
L 121.70591 54.217323 
L 121.938304 54.39467 
L 121.938304 54.201682 
L 122.170698 54.430792 
L 122.403092 54.026372 
L 122.403092 54.194498 
L 122.635486 54.548378 
L 122.635486 54.152161 
L 122.867881 54.002071 
L 122.867881 54.193734 
L 123.332669 54.053476 
L 123.332669 54.015521 
L 123.565063 54.574463 
L 123.565063 54.35916 
L 123.797457 54.057501 
L 124.029851 54.236377 
L 124.029851 54.06871 
L 124.262245 54.584907 
L 124.262245 54.405573 
L 124.494639 53.922338 
L 124.494639 54.232607 
L 124.727033 54.660564 
L 124.727033 54.431148 
L 124.959427 54.246465 
L 124.959427 54.592193 
L 125.424216 54.190525 
L 125.424216 54.504207 
L 125.65661 54.556581 
L 125.65661 54.274995 
L 125.889004 53.929369 
L 125.889004 54.362421 
L 126.121398 55.262964 
L 126.121398 55.0417 
L 126.353792 54.535641 
L 126.353792 55.07395 
L 126.586186 54.912091 
L 126.586186 55.092546 
L 127.050974 54.669225 
L 127.050974 54.922331 
L 127.283368 54.375361 
L 127.283368 54.947448 
L 127.515762 54.481128 
L 127.515762 54.559841 
L 127.748156 54.587709 
L 127.748156 54.335368 
L 127.980551 54.512613 
L 127.980551 54.693221 
L 128.212945 54.840051 
L 128.212945 54.733419 
L 128.445339 54.434766 
L 128.445339 54.540328 
L 128.677733 54.369706 
L 128.677733 54.740908 
L 128.910127 54.0682 
L 128.910127 54.221042 
L 129.142521 54.223029 
L 129.142521 54.098259 
L 129.374915 54.259405 
L 129.374915 53.913524 
L 129.607309 54.538851 
L 129.607309 54.248503 
L 129.839703 54.181252 
L 129.839703 54.345404 
L 130.072097 54.038039 
L 130.072097 54.142023 
L 130.304491 54.248961 
L 130.304491 54.51511 
L 130.536886 54.419176 
L 130.536886 54.276269 
L 130.76928 53.903539 
L 130.76928 54.170859 
L 131.234068 54.058265 
L 131.234068 54.513683 
L 131.466462 53.935432 
L 132.163644 61.387538 
L 132.163644 61.005281 
L 132.628432 70.929654 
L 132.628432 70.900461 
L 133.093221 81.884028 
L 133.093221 81.804754 
L 133.558009 92.091209 
L 134.022797 102.641418 
L 136.114344 140.513012 
L 136.114344 140.213799 
L 136.346738 143.08753 
L 136.579132 147.812531 
L 136.579132 147.478063 
L 138.205891 166.184928 
L 138.205891 165.962849 
L 139.600255 177.723667 
L 139.600255 177.101754 
L 140.297437 181.534471 
L 140.297437 181.363135 
L 140.99462 185.768035 
L 140.99462 185.75433 
L 141.459408 187.29253 
L 141.459408 187.974204 
L 141.691802 189.008383 
L 141.691802 188.446638 
L 141.924196 190.192397 
L 141.924196 189.896291 
L 142.388984 191.739054 
L 142.621378 192.34609 
L 142.621378 192.198751 
L 143.550955 196.676149 
L 143.783349 197.134776 
L 143.783349 197.109608 
L 144.015743 197.915339 
L 144.015743 197.407599 
L 144.712925 199.433822 
L 144.945319 199.528024 
L 144.945319 199.660945 
L 145.410107 201.006003 
L 145.410107 200.95149 
L 145.642501 201.116814 
L 145.642501 200.929532 
L 145.874896 201.376543 
L 145.874896 201.634285 
L 146.10729 201.343529 
L 146.10729 201.615893 
L 146.339684 201.610391 
L 146.339684 201.864821 
L 146.572078 201.727111 
L 146.572078 201.741427 
L 146.804472 202.02984 
L 146.804472 202.375262 
L 147.036866 202.134231 
L 147.036866 202.134536 
L 147.26926 202.575179 
L 147.501654 202.515927 
L 147.501654 202.304751 
L 147.734048 202.683595 
L 147.734048 202.566009 
L 147.966442 202.795373 
L 147.966442 202.628928 
L 148.198836 202.540535 
L 148.198836 202.837048 
L 148.431231 202.67901 
L 148.431231 202.818707 
L 148.663625 202.794711 
L 148.663625 202.312546 
L 148.896019 202.570594 
L 148.896019 202.788342 
L 149.128413 202.738618 
L 149.128413 202.744018 
L 149.360807 202.567588 
L 149.360807 202.294765 
L 149.593201 202.606563 
L 149.593201 202.137084 
L 149.825595 202.28911 
L 149.825595 202.93237 
L 150.057989 202.22349 
L 150.290383 202.653026 
L 150.290383 202.427585 
L 150.522777 202.367569 
L 150.522777 202.655981 
L 150.755171 202.611657 
L 150.755171 202.438589 
L 150.987566 201.756864 
L 150.987566 201.956017 
L 151.452354 201.646716 
L 151.452354 201.728436 
L 151.684748 201.550477 
L 151.684748 201.339606 
L 151.917142 200.550688 
L 151.917142 201.053384 
L 152.38193 199.873242 
L 152.38193 200.13073 
L 152.614324 199.084273 
L 153.079112 197.29633 
L 153.079112 197.578883 
L 153.311506 196.587908 
L 153.776295 194.328805 
L 153.776295 194.663223 
L 154.008689 192.554057 
L 154.008689 192.564858 
L 154.241083 191.178685 
L 155.635447 178.111019 
L 155.635447 178.230949 
L 156.565024 165.891472 
L 157.029812 162.148988 
L 157.029812 162.552388 
L 157.262206 160.806782 
L 157.262206 161.02825 
L 157.4946 160.080427 
L 157.4946 160.238975 
L 157.726994 160.433747 
L 157.726994 160.170655 
L 157.959388 159.757575 
L 158.191782 159.925038 
L 158.191782 160.563204 
L 158.424176 160.721293 
L 158.424176 160.069168 
L 159.121359 163.441469 
L 159.121359 163.316139 
L 159.353753 164.481914 
L 159.353753 164.314552 
L 160.050935 166.662966 
L 160.283329 166.789774 
L 160.748117 167.559943 
L 160.748117 167.463246 
L 160.980511 167.817737 
L 160.980511 168.024633 
L 161.212906 167.725471 
L 161.212906 168.128566 
L 161.4453 168.202083 
L 161.4453 168.703964 
L 161.677694 168.330011 
L 161.677694 168.528757 
L 161.910088 168.544041 
L 161.910088 168.259347 
L 162.142482 168.996962 
L 162.142482 168.41117 
L 162.374876 168.45901 
L 162.374876 168.043942 
L 162.60727 168.654291 
L 162.60727 168.394969 
L 162.839664 168.184251 
L 162.839664 168.249107 
L 163.072058 168.212425 
L 163.072058 168.034415 
L 163.304452 168.015972 
L 163.304452 168.408062 
L 163.536846 168.190976 
L 163.536846 168.038593 
L 163.769241 168.178647 
L 163.769241 168.11425 
L 164.001635 168.053317 
L 164.001635 167.79746 
L 164.234029 167.67595 
L 164.234029 167.774431 
L 164.466423 167.993403 
L 164.466423 167.442969 
L 164.698817 167.473741 
L 164.698817 167.443325 
L 164.931211 167.212789 
L 164.931211 166.963402 
L 165.163605 167.107277 
L 165.163605 166.357894 
L 165.395999 166.452961 
L 165.395999 166.131077 
L 165.628393 165.275265 
L 165.628393 165.96616 
L 165.860787 165.105967 
L 165.860787 165.612994 
L 166.093181 164.083404 
L 166.093181 164.257695 
L 166.325576 163.475196 
L 166.325576 163.067414 
L 166.55797 162.70681 
L 166.55797 162.843042 
L 168.649516 150.016357 
L 168.649516 150.134911 
L 170.741063 125.921004 
L 171.67064 114.743583 
L 171.903034 112.836474 
L 171.903034 112.907953 
L 172.135428 111.911476 
L 172.367822 113.09549 
L 172.367822 113.03364 
L 172.600216 112.745126 
L 172.600216 112.995939 
L 172.83261 115.868855 
L 173.065004 122.03383 
L 173.065004 121.396123 
L 173.529792 129.810776 
L 173.529792 129.576266 
L 173.762187 137.516294 
L 173.994581 141.552336 
L 175.388945 173.03978 
L 175.388945 172.710355 
L 177.015704 205.296425 
L 177.015704 205.084841 
L 177.712886 215.647991 
L 177.712886 215.541766 
L 177.94528 219.896687 
L 177.94528 219.600173 
L 178.177674 222.113504 
L 178.410068 226.209307 
L 178.410068 226.104967 
L 178.642462 228.355766 
L 178.874857 232.535326 
L 178.874857 232.318698 
L 179.339645 236.536825 
L 179.804433 241.15657 
L 179.804433 241.086008 
L 180.501615 248.26575 
L 181.431192 255.082035 
L 181.431192 254.900306 
L 181.663586 257.008045 
L 181.663586 256.55166 
L 181.89598 257.642389 
L 181.89598 257.599033 
L 182.360768 261.134111 
L 182.360768 260.908363 
L 182.825556 263.199003 
L 182.825556 262.550445 
L 183.05795 264.268029 
L 183.05795 263.71464 
L 183.755132 266.709881 
L 183.755132 266.66897 
L 183.987527 267.325069 
L 183.987527 267.100239 
L 184.219921 267.393032 
L 184.684709 268.882221 
L 184.684709 268.765144 
L 185.381891 269.466688 
L 185.381891 269.42272 
L 185.846679 270.213014 
L 185.846679 270.051562 
L 186.079073 269.662325 
L 186.079073 269.86535 
L 186.311467 269.772932 
L 186.311467 269.856383 
L 186.543862 270.207308 
L 186.543862 269.99333 
L 186.776256 269.425981 
L 186.776256 270.082589 
L 187.00865 270.101643 
L 187.00865 270.379866 
L 187.241044 270.201398 
L 187.473438 270.038825 
L 187.473438 270.1047 
L 187.705832 270.377879 
L 187.938226 270.318016 
L 187.938226 270.322958 
L 188.17062 269.766207 
L 188.17062 270.264624 
L 188.403014 270.025121 
L 188.403014 270.170117 
L 188.635408 269.519724 
L 188.635408 270.213167 
L 189.100197 269.512948 
L 189.100197 270.014778 
L 189.332591 269.919048 
L 189.332591 269.606793 
L 189.564985 269.865401 
L 189.564985 269.593546 
L 189.797379 269.618511 
L 189.797379 269.286487 
L 190.029773 269.114795 
L 190.029773 268.850481 
L 190.262167 268.819861 
L 190.494561 268.519374 
L 190.494561 268.30937 
L 190.726955 268.134009 
L 190.726955 268.183326 
L 191.191743 267.125203 
L 191.191743 267.264136 
L 191.656532 265.932884 
L 191.656532 266.004669 
L 191.888926 264.553996 
L 192.12132 264.081002 
L 192.12132 264.251217 
L 193.28329 257.836346 
L 193.28329 257.719982 
L 193.980472 251.775303 
L 194.910049 242.765739 
L 194.910049 242.416852 
L 195.607231 237.093017 
L 195.607231 237.486177 
L 196.072019 235.990212 
L 196.072019 236.278268 
L 197.23399 250.317091 
L 197.23399 249.725542 
L 197.931172 261.203959 
L 198.163566 263.398105 
L 198.163566 263.368352 
L 198.39596 268.138798 
L 199.790325 280.634632 
L 200.022719 282.081025 
L 200.022719 281.87958 
L 200.255113 284.581669 
L 200.719901 286.684416 
L 200.952295 288.281357 
L 200.952295 288.205089 
L 201.184689 288.830824 
L 201.184689 289.151893 
L 201.417083 289.874835 
L 201.881872 291.541982 
L 202.114266 291.756979 
L 202.114266 292.293505 
L 202.579054 293.242551 
L 202.579054 292.911903 
L 203.276236 294.352182 
L 203.741024 294.762358 
L 204.205812 295.178088 
L 204.438207 294.699285 
L 204.438207 295.234181 
L 204.670601 295.038951 
L 204.670601 294.670602 
L 204.902995 295.08786 
L 205.135389 294.936394 
L 205.135389 295.473429 
L 205.367783 295.386819 
L 205.367783 295.245033 
L 205.600177 295.488 
L 205.600177 295.071863 
L 205.832571 295.035334 
L 205.832571 295.282632 
L 206.064965 295.133662 
L 206.297359 295.19378 
L 206.297359 295.074155 
L 206.529753 294.791449 
L 206.529753 294.914894 
L 206.762147 294.974503 
L 206.994542 294.443326 
L 207.226936 294.594334 
L 207.226936 294.537732 
L 207.45933 294.128523 
L 207.45933 294.342808 
L 207.691724 294.161843 
L 207.691724 294.511851 
L 207.924118 294.071361 
L 207.924118 293.521945 
L 208.156512 293.202965 
L 208.156512 293.212797 
L 208.388906 293.086805 
L 208.388906 292.777147 
L 208.6213 293.079519 
L 208.6213 292.481602 
L 208.853694 292.215556 
L 208.853694 292.223554 
L 209.086088 291.734155 
L 209.086088 291.249749 
L 209.550877 289.792402 
L 209.550877 290.184339 
L 209.783271 289.120051 
L 209.783271 289.197134 
L 210.015665 287.51348 
L 210.015665 288.286401 
L 210.945241 283.417677 
L 210.945241 283.936626 
L 211.177635 282.058812 
L 211.642423 279.017566 
L 211.642423 279.095363 
L 212.107212 275.445349 
L 213.036788 266.026016 
L 213.036788 266.41836 
L 213.501576 259.579863 
L 214.198758 252.033657 
L 214.431152 251.300118 
L 214.895941 249.350621 
L 214.895941 249.723912 
L 215.360729 248.958124 
L 215.360729 249.312767 
L 215.593123 251.61054 
L 215.593123 251.403541 
L 215.825517 252.788389 
L 216.057911 256.069597 
L 216.522699 258.942258 
L 216.522699 258.842503 
L 217.219882 264.919186 
L 217.68467 267.335615 
L 217.68467 266.813762 
L 217.917064 268.787 
L 217.917064 268.489519 
L 218.149458 269.487984 
L 218.149458 269.411614 
L 218.381852 271.218968 
L 218.614246 271.722734 
L 218.614246 271.475895 
L 219.079034 273.874492 
L 219.311428 274.225875 
L 219.311428 274.741308 
L 219.776217 275.560999 
L 219.776217 275.956502 
L 220.008611 276.140931 
L 220.008611 275.941269 
L 220.473399 277.235228 
L 220.473399 276.779963 
L 220.705793 277.272368 
L 220.705793 277.553393 
L 220.938187 277.824127 
L 220.938187 278.023382 
L 221.170581 277.924085 
L 221.170581 278.036679 
L 221.402975 278.22926 
L 221.402975 278.009371 
L 221.635369 277.913132 
L 221.635369 278.315259 
L 221.867763 278.710813 
L 221.867763 278.219172 
L 222.332552 278.941604 
L 222.564946 278.688702 
L 222.564946 278.93544 
L 222.79734 278.557666 
L 223.029734 278.456179 
L 223.262128 278.723448 
L 223.262128 279.214478 
L 223.494522 279.092968 
L 223.494522 278.879448 
L 223.726916 279.055267 
L 223.726916 278.555984 
L 223.95931 279.092051 
L 223.95931 278.675659 
L 224.191704 278.965651 
L 224.191704 278.684473 
L 224.424098 278.914551 
L 224.424098 278.7101 
L 224.656492 278.639232 
L 224.656492 278.643104 
L 224.888887 278.314647 
L 224.888887 278.750603 
L 225.353675 278.091498 
L 225.353675 278.418885 
L 225.586069 278.58803 
L 225.586069 278.283977 
L 225.818463 277.750661 
L 225.818463 277.958526 
L 226.050857 277.984101 
L 226.050857 277.819593 
L 226.283251 277.390515 
L 226.283251 277.775065 
L 226.748039 276.649028 
L 226.980433 276.818479 
L 226.980433 276.613824 
L 227.445222 276.17904 
L 227.677616 275.541435 
L 227.91001 274.85543 
L 227.91001 275.343403 
L 228.607192 273.386417 
L 228.607192 272.998912 
L 228.839586 272.509003 
L 228.839586 272.171478 
L 229.07198 271.951487 
L 229.07198 271.775719 
L 229.304374 271.11957 
L 229.304374 270.584369 
L 230.001557 268.213029 
L 230.001557 268.239623 
L 232.093103 256.933458 
L 232.093103 256.397799 
L 232.325497 254.88171 
L 233.02268 250.265736 
L 234.417044 238.923144 
L 235.811409 224.989374 
L 235.811409 225.314367 
L 236.740985 213.758 
L 236.740985 213.760446 
L 237.205773 208.412512 
L 237.205773 208.435286 
L 238.367744 191.987524 
L 239.529714 174.04502 
L 239.529714 174.073245 
L 241.853655 135.012542 
L 242.550838 122.932234 
L 243.480414 107.049426 
L 245.107173 81.988266 
L 246.501537 69.629887 
L 246.966325 66.793093 
L 247.895902 62.715682 
L 247.895902 62.864703 
L 248.128296 61.642631 
L 248.36069 61.220686 
L 248.36069 61.459425 
L 248.593084 60.147074 
L 248.593084 60.774184 
L 248.825478 59.781477 
L 248.825478 59.943285 
L 249.057872 59.347661 
L 249.290266 58.722895 
L 249.290266 59.036933 
L 249.52266 58.720653 
L 249.52266 58.373804 
L 250.219843 57.34849 
L 250.219843 56.979072 
L 250.452237 57.260555 
L 250.452237 57.203189 
L 250.917025 56.245635 
L 250.917025 56.702326 
L 251.149419 56.34381 
L 251.381813 55.825116 
L 251.381813 56.110676 
L 251.614207 56.064976 
L 251.614207 55.722661 
L 251.846601 55.34825 
L 251.846601 55.862715 
L 252.078995 55.187206 
L 252.078995 55.478828 
L 252.311389 55.264034 
L 252.311389 55.745333 
L 252.543783 55.200452 
L 252.543783 54.844229 
L 252.776178 54.74748 
L 252.776178 55.203152 
L 253.008572 54.919121 
L 253.008572 55.242127 
L 253.240966 55.431651 
L 253.240966 54.634581 
L 253.47336 54.594842 
L 253.47336 55.276924 
L 253.705754 54.897418 
L 253.705754 54.64151 
L 253.938148 54.783245 
L 253.938148 54.777437 
L 254.402936 54.343825 
L 254.402936 54.190779 
L 254.63533 54.248655 
L 254.63533 54.709066 
L 254.867724 54.6195 
L 254.867724 55.071606 
L 255.100118 53.821412 
L 255.100118 54.221857 
L 255.332513 55.003235 
L 255.564907 55.037013 
L 255.564907 54.312339 
L 255.797301 54.755682 
L 255.797301 55.145378 
L 256.029695 54.437873 
L 256.262089 54.780392 
L 256.262089 54.442561 
L 256.494483 54.511696 
L 256.494483 54.78727 
L 256.726877 54.441236 
L 257.191665 54.54043 
L 257.191665 54.728171 
L 257.424059 54.466098 
L 257.424059 54.967114 
L 257.888848 54.205605 
L 258.121242 54.033047 
L 258.121242 54.334247 
L 258.353636 54.501354 
L 258.58603 54.625767 
L 258.58603 54.429518 
L 258.818424 53.809388 
L 258.818424 54.800007 
L 259.050818 54.705448 
L 259.050818 54.582818 
L 259.283212 54.954886 
L 259.283212 54.751199 
L 259.515606 54.790021 
L 259.515606 54.57161 
L 259.748 54.818042 
L 259.748 54.552505 
L 259.980394 54.742895 
L 259.980394 54.642834 
L 260.212788 54.403077 
L 260.212788 54.57161 
L 260.445183 54.372152 
L 260.445183 54.402159 
L 260.677577 54.677428 
L 260.677577 54.291145 
L 261.374759 54.431964 
L 261.374759 54.279733 
L 261.607153 54.039466 
L 261.607153 53.877556 
L 261.839547 54.340666 
L 261.839547 54.210903 
L 262.071941 54.262768 
L 262.071941 54.548888 
L 262.304335 54.301335 
L 262.536729 53.894317 
L 262.536729 54.157765 
L 262.769123 54.827926 
L 262.769123 54.507009 
L 263.001518 54.614355 
L 263.233912 54.765312 
L 263.233912 54.525707 
L 263.466306 54.65873 
L 263.466306 54.585264 
L 263.6987 54.35753 
L 263.6987 54.830575 
L 263.931094 54.276065 
L 264.163488 54.159803 
L 264.163488 54.634428 
L 264.628276 54.239332 
L 264.628276 54.471295 
L 265.093064 54.123172 
L 265.093064 54.246821 
L 265.325458 54.349684 
L 265.325458 54.732501 
L 265.557853 54.575482 
L 265.557853 54.346882 
L 266.255035 53.976495 
L 266.255035 54.349582 
L 266.487429 54.607986 
L 266.719823 54.65659 
L 266.952217 54.223182 
L 267.184611 54.589849 
L 267.184611 54.930432 
L 267.649399 54.20912 
L 267.649399 54.357733 
L 268.114188 54.381882 
L 268.114188 54.391308 
L 268.346582 54.133005 
L 268.346582 54.666219 
L 268.578976 54.525248 
L 268.578976 54.030907 
L 268.81137 54.562796 
L 268.81137 54.17524 
L 269.276158 54.084503 
L 269.276158 54.347952 
L 269.508552 54.044612 
L 269.740946 54.284522 
L 269.740946 54.104729 
L 269.97334 54.171521 
L 269.97334 54.735405 
L 270.438128 54.019087 
L 270.670523 54.353556 
L 270.670523 54.080377 
L 270.902917 54.399969 
L 271.135311 53.737145 
L 271.135311 54.124344 
L 271.367705 54.298176 
L 271.367705 54.676103 
L 271.600099 54.633817 
L 271.600099 54.77224 
L 271.832493 54.686547 
L 271.832493 54.322733 
L 272.064887 54.896552 
L 272.064887 54.695972 
L 272.297281 54.957128 
L 272.297281 54.698571 
L 272.529675 54.678192 
L 272.529675 54.23276 
L 272.762069 54.844687 
L 272.762069 54.421876 
L 272.994463 54.13973 
L 273.226858 54.548989 
L 273.459252 54.025659 
L 273.459252 54.230009 
L 273.691646 54.317536 
L 273.691646 54.511238 
L 273.92404 54.358294 
L 273.92404 54.621487 
L 274.156434 54.063004 
L 274.156434 54.342398 
L 274.388828 53.860845 
L 274.388828 54.021685 
L 274.621222 54.782532 
L 274.853616 54.661124 
L 274.853616 54.871282 
L 275.08601 54.146812 
L 275.08601 54.700507 
L 275.318404 54.962477 
L 275.318404 54.438179 
L 275.550798 54.30429 
L 275.550798 54.444955 
L 275.783193 54.433747 
L 276.015587 54.178705 
L 276.015587 54.659749 
L 276.247981 54.220482 
L 276.247981 54.308773 
L 276.480375 54.755479 
L 276.480375 54.697603 
L 276.712769 53.943227 
L 276.712769 54.464111 
L 276.945163 54.990142 
L 276.945163 54.931603 
L 277.177557 54.484694 
L 277.177557 54.775756 
L 277.409951 54.883356 
L 277.409951 54.690878 
L 277.642345 54.810247 
L 277.642345 55.051584 
L 277.874739 54.924675 
L 277.874739 54.690929 
L 278.339528 54.021583 
L 278.339528 54.760472 
L 278.571922 54.269493 
L 278.571922 54.516689 
L 278.804316 54.279886 
L 278.804316 54.635039 
L 279.03671 54.348053 
L 279.03671 54.513581 
L 279.269104 54.515211 
L 279.269104 54.339443 
L 279.501498 55.000739 
L 279.501498 54.422844 
L 279.733892 54.284777 
L 279.733892 54.11176 
L 279.966286 54.014502 
L 279.966286 54.353505 
L 280.19868 55.644865 
L 280.431074 55.742837 
L 280.431074 55.626218 
L 280.663468 55.177424 
L 280.895863 55.477554 
L 280.895863 55.02876 
L 281.128257 55.107473 
L 281.128257 55.39772 
L 281.360651 54.85773 
L 281.593045 54.900169 
L 281.825439 54.624799 
L 281.825439 54.753084 
L 282.057833 54.843465 
L 282.057833 54.975214 
L 282.522621 54.528407 
L 282.522621 54.246465 
L 282.755015 54.619246 
L 282.755015 54.491368 
L 282.987409 54.763223 
L 282.987409 54.258183 
L 283.219803 55.000892 
L 283.219803 54.957841 
L 283.452198 57.858371 
L 283.452198 57.672056 
L 283.916986 66.358207 
L 283.916986 65.690798 
L 285.543744 92.731259 
L 286.705715 102.849589 
L 286.705715 102.813162 
L 287.402897 105.803358 
L 287.402897 105.502311 
L 287.635291 105.776101 
L 287.635291 105.993493 
L 287.867685 106.239925 
L 287.867685 106.476626 
L 288.100079 106.261578 
L 288.100079 106.592684 
L 288.332473 106.840135 
L 288.332473 106.735336 
L 288.564868 106.868105 
L 289.029656 106.299686 
L 289.029656 106.556104 
L 289.26205 106.619431 
L 289.26205 106.810891 
L 289.494444 106.401122 
L 289.494444 106.515397 
L 289.726838 106.416304 
L 289.726838 105.810032 
L 289.959232 105.902399 
L 290.191626 105.026107 
L 290.191626 105.675429 
L 290.656414 104.399761 
L 291.121203 102.065612 
L 291.121203 102.235674 
L 292.283173 94.732111 
L 294.37472 73.248977 
L 294.37472 73.643563 
L 295.071902 68.342399 
L 295.071902 68.868226 
L 295.53669 66.04208 
L 295.53669 66.204041 
L 296.233873 62.83011 
L 296.233873 62.863837 
L 296.466267 61.905825 
L 296.698661 60.8853 
L 296.698661 61.440319 
L 296.931055 60.781877 
L 296.931055 60.877556 
L 297.163449 60.84495 
L 297.163449 60.648141 
L 297.395843 62.596517 
L 297.395843 62.44663 
L 297.628237 63.51693 
L 297.628237 64.057276 
L 298.093025 67.721913 
L 298.093025 67.509666 
L 298.790208 76.232856 
L 299.254996 81.08436 
L 300.416966 95.437782 
L 301.114149 103.255078 
L 301.114149 103.111254 
L 302.508513 120.445091 
L 302.508513 120.3165 
L 302.740907 124.660059 
L 302.740907 124.120935 
L 303.205695 129.919294 
L 303.670484 136.127268 
L 303.670484 135.960823 
L 304.832454 149.075004 
L 304.832454 148.90428 
L 305.994424 161.3402 
L 305.994424 160.981226 
L 307.156395 170.278387 
L 307.621183 172.655434 
L 307.621183 172.887651 
L 308.783154 178.503313 
L 308.783154 178.468923 
L 309.015548 178.717291 
L 309.015548 178.891887 
L 309.247942 179.42286 
L 309.945124 181.248351 
L 309.945124 180.878729 
L 310.177518 181.399359 
L 310.409912 181.543896 
L 310.409912 181.763173 
L 310.642306 182.12016 
L 310.642306 181.964007 
L 311.107094 182.263017 
L 311.107094 182.031512 
L 311.339489 182.644713 
L 311.339489 182.62357 
L 311.571883 182.705595 
L 311.571883 182.589283 
L 311.804277 182.199231 
L 311.804277 182.738813 
L 312.036671 182.684605 
L 312.036671 182.391913 
L 312.501459 182.218845 
L 312.501459 182.793174 
L 312.733853 182.419374 
L 312.733853 182.762503 
L 312.966247 182.480816 
L 312.966247 182.481631 
L 313.198641 182.506697 
L 313.198641 182.455393 
L 313.663429 182.116747 
L 313.663429 181.922179 
L 313.895824 182.173298 
L 313.895824 182.337858 
L 314.128218 181.695668 
L 314.128218 181.701833 
L 314.360612 181.66352 
L 314.360612 181.457133 
L 314.593006 181.228583 
L 314.593006 181.442154 
L 314.8254 180.355602 
L 314.8254 181.197404 
L 315.290188 179.759672 
L 315.522582 179.701898 
L 315.522582 179.315718 
L 315.754976 178.518444 
L 316.452159 176.018717 
L 316.452159 175.810393 
L 316.684553 174.990346 
L 317.149341 172.432692 
L 317.149341 172.441251 
L 318.311311 164.056912 
L 319.473282 153.178704 
L 319.473282 152.47497 
L 320.170464 144.622265 
L 321.10004 131.202859 
L 322.262011 112.550966 
L 322.262011 112.789246 
L 323.656375 88.704388 
L 324.353558 79.694875 
L 325.05074 73.327843 
L 326.445104 64.47912 
L 326.445104 64.929646 
L 326.677499 63.726883 
L 326.909893 62.596109 
L 327.142287 62.358032 
L 327.142287 62.037218 
L 327.839469 59.718863 
L 328.071863 59.352908 
L 328.071863 59.719219 
L 328.536651 58.286684 
L 328.536651 58.568779 
L 328.769045 58.212454 
L 329.001439 57.521609 
L 329.001439 57.609493 
L 329.233834 57.757495 
L 329.233834 57.146943 
L 329.698622 57.038833 
L 329.698622 57.067669 
L 329.931016 56.664523 
L 330.16341 55.982951 
L 330.16341 56.242476 
L 330.628198 55.877949 
L 330.628198 56.015608 
L 331.092986 55.58434 
L 331.092986 55.392268 
L 331.32538 55.593867 
L 331.32538 55.264849 
L 331.557774 55.444642 
L 331.557774 55.260468 
L 331.790169 56.462008 
L 332.022563 58.45048 
L 332.022563 58.342726 
L 332.952139 71.304422 
L 333.184533 75.561881 
L 333.649321 85.670479 
L 334.114109 96.466356 
L 334.578898 107.744703 
L 334.811292 111.675743 
L 335.27608 121.178731 
L 335.27608 121.000518 
L 335.973262 131.429065 
L 336.670444 139.331494 
L 336.670444 139.21401 
L 337.135233 143.902839 
L 337.600021 146.412093 
L 338.064809 148.698148 
L 338.064809 148.073178 
L 338.297203 149.754539 
L 338.297203 149.368104 
L 339.226779 151.453426 
L 339.226779 151.439874 
L 339.459174 151.598422 
L 339.459174 151.288102 
L 339.691568 152.105755 
L 339.691568 151.919696 
L 339.923962 152.180851 
L 339.923962 151.753964 
L 340.156356 152.070347 
L 340.156356 151.847299 
L 340.38875 152.417246 
L 340.38875 151.976858 
L 341.085932 152.138514 
L 341.318326 151.964427 
L 341.318326 152.230321 
L 341.55072 152.222271 
L 341.55072 151.789423 
L 341.783114 152.180698 
L 342.015509 152.053177 
L 342.247903 151.971254 
L 342.247903 151.772305 
L 342.480297 151.501419 
L 342.480297 151.91455 
L 342.712691 151.37726 
L 342.712691 151.531834 
L 342.945085 151.132051 
L 342.945085 151.570044 
L 343.177479 151.301603 
L 343.177479 150.813427 
L 343.409873 150.970242 
L 343.409873 150.731555 
L 343.642267 150.9895 
L 343.642267 150.510087 
L 343.874661 150.231609 
L 343.874661 150.661451 
L 344.107055 149.765951 
L 344.339449 149.180873 
L 344.804238 148.098498 
L 344.804238 147.74253 
L 345.036632 147.389007 
L 345.733814 145.281522 
L 345.733814 145.644522 
L 345.966208 145.254011 
L 345.966208 145.028671 
L 346.198602 145.232919 
L 346.198602 144.995963 
L 346.430996 145.3126 
L 346.430996 145.058526 
L 347.128179 148.709916 
L 347.128179 148.697383 
L 347.360573 152.4739 
L 347.360573 151.906144 
L 347.592967 154.409692 
L 348.290149 163.955527 
L 348.290149 163.248736 
L 348.522543 170.636699 
L 348.754937 173.723696 
L 348.754937 173.339655 
L 349.219725 184.403413 
L 349.916908 200.546561 
L 349.916908 200.276133 
L 351.311272 227.748169 
L 351.77606 234.969637 
L 351.77606 235.4114 
L 352.008454 237.947351 
L 352.008454 237.873681 
L 352.240849 242.786271 
L 352.240849 242.751983 
L 352.473243 244.713249 
L 354.332395 263.974624 
L 354.797184 267.614653 
L 355.261972 271.108769 
L 355.261972 270.67047 
L 356.423942 277.746891 
L 357.818307 282.272383 
L 358.050701 282.523757 
L 358.283095 283.161973 
L 358.283095 282.843451 
L 358.515489 283.285979 
L 358.747883 282.976933 
L 358.980277 283.232586 
L 359.445065 283.973971 
L 359.445065 283.887666 
L 359.677459 283.984364 
L 359.677459 283.76366 
L 359.909854 283.990579 
L 359.909854 283.272631 
L 360.142248 283.866421 
L 360.374642 283.36459 
L 360.374642 283.589523 
L 360.607036 283.829637 
L 360.607036 283.688666 
L 360.83943 283.666911 
L 360.83943 284.097314 
L 361.071824 283.926844 
L 361.071824 283.711643 
L 361.304218 283.893219 
L 361.536612 283.365558 
L 361.536612 283.529761 
L 361.769006 283.747612 
L 362.233794 283.162075 
L 362.233794 283.303148 
L 362.466189 282.995528 
L 362.466189 283.095028 
L 363.163371 282.871523 
L 363.163371 282.481114 
L 363.628159 281.74299 
L 363.628159 281.534463 
L 364.325341 280.001511 
L 364.325341 280.099024 
L 364.557735 279.813617 
L 364.557735 279.243059 
L 364.790129 278.149323 
L 364.790129 278.952507 
L 365.487312 275.53094 
L 365.487312 276.100276 
L 367.11407 266.773157 
L 367.346465 264.578859 
L 367.346465 265.174636 
L 368.043647 260.462065 
L 369.205617 251.770565 
L 369.205617 251.492138 
L 370.135194 243.248108 
L 370.135194 242.940845 
L 370.599982 238.30439 
L 370.599982 239.212728 
L 371.06477 233.829692 
L 371.06477 234.063489 
L 372.923923 213.391231 
L 374.085893 203.875251 
L 374.085893 203.914684 
L 374.318287 203.08995 
L 374.318287 203.617305 
L 374.783075 201.1053 
L 374.783075 201.652269 
L 375.247864 200.155082 
L 375.480258 200.299008 
L 375.480258 199.830395 
L 375.712652 200.010188 
L 375.712652 199.99414 
L 375.945046 199.980231 
L 375.945046 199.742562 
L 376.17744 199.535768 
L 376.17744 199.619881 
L 376.409834 199.00342 
L 376.409834 199.163802 
L 376.642228 199.00077 
L 376.642228 199.437796 
L 376.874622 199.256424 
L 376.874622 198.958637 
L 377.107016 199.343645 
L 377.107016 199.284598 
L 377.33941 198.761573 
L 377.33941 199.128342 
L 377.571805 198.704257 
L 377.571805 198.873912 
L 377.804199 198.799478 
L 377.804199 198.910747 
L 378.036593 198.390422 
L 378.268987 198.72861 
L 378.268987 198.607254 
L 378.501381 198.571743 
L 378.501381 198.133699 
L 378.733775 198.289088 
L 378.966169 197.908614 
L 379.198563 198.189181 
L 379.198563 197.623972 
L 379.430957 197.813954 
L 379.430957 197.541641 
L 379.663351 197.424411 
L 379.663351 197.0473 
L 379.895745 197.319256 
L 379.895745 196.618578 
L 380.360534 195.956723 
L 380.360534 195.673201 
L 381.057716 193.745357 
L 381.057716 194.116711 
L 381.754898 190.637472 
L 381.754898 190.77289 
L 381.987292 189.880702 
L 381.987292 189.198008 
L 382.45208 186.315056 
L 382.45208 185.487927 
L 383.149263 179.798494 
L 383.149263 179.870177 
L 383.614051 174.867563 
L 384.078839 169.567673 
L 384.078839 169.705282 
L 385.473204 148.750368 
L 385.473204 148.862198 
L 386.635174 126.289862 
L 386.635174 126.452893 
L 388.029539 97.927523 
L 388.029539 98.114907 
L 388.726721 86.521553 
L 388.726721 86.523336 
L 390.121085 72.021861 
L 391.283056 65.427554 
L 391.283056 65.45369 
L 392.445026 60.534987 
L 392.445026 60.776579 
L 393.142209 59.072953 
L 393.142209 59.239704 
L 393.374603 58.707865 
L 393.374603 59.066941 
L 393.606997 58.166652 
L 393.606997 58.210009 
L 393.839391 58.008461 
L 393.839391 57.522271 
L 394.071785 57.677661 
L 394.071785 57.568939 
L 394.304179 57.627529 
L 394.304179 57.393324 
L 394.536573 56.723877 
L 394.536573 56.813544 
L 395.001361 56.195605 
L 395.001361 56.602979 
L 395.233755 56.20554 
L 395.233755 56.314312 
L 395.46615 56.176703 
L 395.46615 56.194229 
L 395.698544 55.568189 
L 395.698544 55.674313 
L 395.930938 55.967922 
L 395.930938 55.647412 
L 396.163332 55.629886 
L 396.163332 55.255934 
L 396.395726 55.297405 
L 396.395726 55.248648 
L 396.62812 54.898335 
L 396.860514 55.521827 
L 396.860514 54.751097 
L 397.092908 55.188887 
L 397.092908 54.814476 
L 397.325302 54.802146 
L 397.325302 55.128158 
L 397.557696 55.087247 
L 397.557696 54.376533 
L 397.79009 54.804031 
L 397.79009 54.597135 
L 398.022485 54.779322 
L 398.022485 54.767859 
L 398.254879 54.490859 
L 398.487273 54.645687 
L 398.487273 54.534317 
" clip-path="url(#pe98c039948)" style="fill: none; stroke: #1f77b4; stroke-width: 1.5; stroke-linecap: square"/>
   </g>
   <g id="line2d_24">
    <path d="M 73.832727 54.017915 
L 74.762304 54.017915 
L 74.762304 57.192235 
L 74.994698 54.017915 
L 74.994698 54.017915 
L 75.227092 56.326641 
L 75.227092 54.017915 
L 78.248215 54.017915 
L 78.248215 54.017915 
L 78.480609 55.881617 
L 78.480609 54.017915 
L 80.80455 54.017915 
L 80.80455 54.017915 
L 81.036944 54.707894 
L 81.036944 54.017915 
L 81.501732 54.017915 
L 81.501732 54.017915 
L 81.734126 54.786557 
L 81.734126 54.017915 
L 84.987644 54.017915 
L 84.987644 54.017915 
L 85.220038 54.498042 
L 85.220038 54.017915 
L 85.684826 54.017915 
L 85.684826 54.017915 
L 85.91722 57.270898 
L 85.91722 54.591123 
L 86.149614 54.017915 
L 86.149614 54.017915 
L 87.311585 54.017915 
L 87.311585 54.041606 
L 88.938343 73.493065 
L 88.938343 73.449454 
L 89.170737 73.884493 
L 89.635525 79.399279 
L 89.635525 79.370749 
L 89.86792 83.022291 
L 89.86792 83.013528 
L 90.100314 83.582456 
L 90.100314 83.540221 
L 90.565102 89.567537 
L 90.565102 89.532332 
L 90.797496 93.333609 
L 91.02989 93.777818 
L 91.02989 93.767119 
L 91.494678 99.605522 
L 91.494678 99.602007 
L 91.727072 103.151451 
L 91.959466 103.146102 
L 91.959466 103.180389 
L 93.353831 118.506293 
L 93.586225 117.884889 
L 94.051013 122.738227 
L 94.283407 122.748161 
L 94.283407 122.731705 
L 94.748195 126.773301 
L 94.98059 126.571855 
L 95.445378 129.537189 
L 95.445378 129.535355 
L 95.677772 129.412776 
L 95.677772 129.418635 
L 96.14256 131.309033 
L 96.374954 131.252227 
L 96.839742 132.139015 
L 96.839742 132.136773 
L 97.30453 132.465026 
L 97.536925 132.701065 
L 98.001713 132.618276 
L 98.001713 132.620976 
L 98.234107 132.819925 
L 98.234107 132.817683 
L 98.698895 132.597031 
L 98.931289 132.803673 
L 99.396077 132.451271 
L 99.628471 132.673197 
L 99.628471 132.672076 
L 99.860865 132.366698 
L 99.860865 132.376989 
L 100.09326 131.718853 
L 100.09326 132.47761 
L 100.325654 132.082922 
L 100.325654 132.084909 
L 100.558048 131.323961 
L 100.558048 131.330482 
L 100.790442 131.376029 
L 101.022836 130.652883 
L 101.022836 130.656653 
L 101.25523 129.044682 
L 101.487624 129.188557 
L 101.487624 129.184685 
L 101.720018 128.002047 
L 101.720018 128.030373 
L 101.952412 125.311165 
L 101.952412 125.357374 
L 102.184806 125.730563 
L 102.4172 123.559547 
L 102.4172 123.631893 
L 102.649595 119.82063 
L 102.649595 119.921964 
L 102.881989 120.665539 
L 102.881989 120.618057 
L 103.114383 117.5547 
L 103.346777 112.528549 
L 103.579171 113.869532 
L 103.811565 109.736384 
L 104.043959 108.499895 
L 104.043959 108.522923 
L 104.276353 105.233411 
L 104.508747 100.153154 
L 104.741141 98.393996 
L 104.741141 98.407243 
L 104.973535 94.989089 
L 105.438324 80.531684 
L 105.438324 80.409359 
L 105.670718 82.769134 
L 105.670718 82.724556 
L 105.903112 76.622042 
L 105.903112 76.643083 
L 106.135506 67.321875 
L 106.3679 68.214216 
L 106.3679 68.082364 
L 106.600294 63.131768 
L 106.832688 54.35376 
L 107.065082 54.202293 
L 107.065082 54.453209 
L 107.297476 54.017915 
L 107.297476 54.017915 
L 119.614363 54.017915 
L 119.614363 54.017915 
L 119.846757 54.607375 
L 119.846757 54.017915 
L 121.008728 54.017915 
L 121.008728 54.949995 
L 121.241122 54.017915 
L 121.241122 56.600737 
L 121.70591 54.017915 
L 121.70591 54.017915 
L 123.332669 54.017915 
L 123.332669 57.176747 
L 123.565063 54.017915 
L 123.565063 54.017915 
L 124.262245 54.017915 
L 124.262245 54.017915 
L 124.494639 54.939806 
L 124.494639 54.017915 
L 125.65661 54.017915 
L 125.65661 54.017915 
L 125.889004 56.575468 
L 125.889004 54.017915 
L 129.374915 54.017915 
L 129.374915 54.616444 
L 129.607309 54.017915 
L 129.607309 54.017915 
L 130.536886 54.017915 
L 130.536886 54.017915 
L 130.76928 54.40272 
L 130.76928 54.017915 
L 131.001674 54.017915 
L 131.001674 54.017915 
L 131.234068 54.131018 
L 131.234068 54.053222 
L 131.466462 60.854935 
L 131.698856 61.152366 
L 131.698856 61.0843 
L 132.396038 81.422649 
L 132.396038 81.356163 
L 132.628432 90.090459 
L 132.860826 90.104775 
L 132.860826 89.91245 
L 133.325615 102.803685 
L 133.558009 111.311877 
L 133.558009 111.186343 
L 133.790403 110.383262 
L 134.022797 115.037396 
L 134.255191 123.031275 
L 134.255191 123.017774 
L 134.487585 123.470186 
L 134.952373 134.458644 
L 134.952373 134.705891 
L 135.184767 135.79178 
L 135.184767 135.697579 
L 135.417161 139.316159 
L 135.417161 139.258487 
L 135.649556 145.447967 
L 135.649556 145.261093 
L 135.88195 146.208966 
L 135.88195 146.188689 
L 136.114344 149.393781 
L 136.114344 149.08983 
L 136.346738 155.620199 
L 136.346738 155.601552 
L 136.579132 155.185109 
L 137.04392 164.508865 
L 137.276314 163.170226 
L 137.508708 167.46834 
L 137.741102 167.57049 
L 137.741102 167.554237 
L 138.205891 171.87375 
L 138.205891 171.82861 
L 138.438285 173.398754 
L 138.670679 177.20161 
L 138.670679 177.180263 
L 138.903073 176.864237 
L 138.903073 176.89878 
L 139.135467 179.798341 
L 139.367861 180.129702 
L 139.367861 180.128326 
L 140.297437 186.591547 
L 140.297437 186.606372 
L 140.529831 186.21255 
L 140.762226 188.30047 
L 140.99462 188.307552 
L 140.99462 188.307043 
L 141.227014 190.220112 
L 141.459408 190.530126 
L 141.691802 191.865148 
L 141.924196 192.398108 
L 141.924196 192.394337 
L 142.15659 193.836603 
L 142.15659 193.554203 
L 142.388984 193.977829 
L 142.853772 196.819311 
L 142.853772 196.815591 
L 143.086166 196.903832 
L 143.318561 197.871473 
L 143.550955 197.970617 
L 143.550955 197.963739 
L 143.783349 198.879567 
L 144.015743 199.172717 
L 144.248137 200.19528 
L 144.248137 200.195229 
L 145.642501 201.850913 
L 146.10729 202.12236 
L 146.10729 202.116756 
L 146.339684 202.046958 
L 146.572078 202.555819 
L 146.572078 202.555513 
L 146.804472 202.463859 
L 147.26926 202.715182 
L 147.26926 202.714622 
L 147.734048 202.432221 
L 147.734048 202.433902 
L 148.198836 202.715997 
L 148.663625 202.389069 
L 148.663625 202.39182 
L 149.128413 202.582974 
L 149.128413 202.582974 
L 149.360807 202.400532 
L 149.360807 202.410212 
L 149.593201 202.04762 
L 149.825595 202.108808 
L 149.825595 202.064382 
L 150.057989 201.935842 
L 150.755171 200.740466 
L 150.755171 200.759062 
L 150.987566 198.299328 
L 151.21996 199.630224 
L 151.21996 199.608113 
L 151.684748 197.973623 
L 151.684748 197.998128 
L 151.917142 193.873133 
L 152.149536 195.711972 
L 152.149536 195.697656 
L 152.38193 191.033689 
L 152.614324 192.886641 
L 152.614324 192.789179 
L 152.846718 186.91822 
L 153.079112 188.966504 
L 153.311506 182.582711 
L 153.311506 182.712983 
L 153.543901 184.291329 
L 153.543901 184.14995 
L 153.776295 176.458494 
L 154.008689 177.872942 
L 154.241083 170.504287 
L 154.241083 170.8384 
L 154.473477 171.080908 
L 154.705871 163.388127 
L 154.705871 163.474024 
L 154.938265 162.523399 
L 155.170659 154.277891 
L 155.170659 155.4347 
L 155.403053 152.169643 
L 155.403053 152.678657 
L 155.867841 138.093832 
L 155.867841 140.907089 
L 156.100236 137.376495 
L 156.100236 137.595823 
L 156.33263 142.72448 
L 156.565024 142.437137 
L 156.565024 142.562314 
L 156.797418 148.367092 
L 156.797418 148.206506 
L 157.029812 149.459656 
L 157.029812 149.123608 
L 157.4946 157.95124 
L 157.726994 157.123601 
L 157.726994 157.41451 
L 157.959388 160.56677 
L 157.959388 160.564834 
L 158.191782 161.240649 
L 158.191782 160.958147 
L 158.656571 165.152329 
L 158.656571 165.106731 
L 158.888965 164.898204 
L 158.888965 164.930555 
L 159.121359 166.214987 
L 159.121359 166.203524 
L 159.353753 166.532694 
L 160.050935 168.059583 
L 160.050935 168.02336 
L 160.283329 167.990957 
L 160.980511 168.600592 
L 160.980511 168.367101 
L 161.212906 168.581385 
L 161.212906 168.793478 
L 161.4453 168.124847 
L 161.677694 168.612514 
L 161.677694 168.606604 
L 162.374876 168.222207 
L 162.374876 168.223022 
L 162.60727 167.86578 
L 162.60727 167.876937 
L 162.839664 168.106913 
L 162.839664 168.106811 
L 163.072058 167.641051 
L 163.072058 167.65119 
L 163.304452 167.782991 
L 163.536846 167.233372 
L 163.536846 167.470022 
L 164.001635 166.731592 
L 164.234029 164.836201 
L 164.466423 165.260847 
L 164.466423 165.206231 
L 164.698817 163.818173 
L 164.698817 163.822198 
L 164.931211 163.419205 
L 165.163605 162.211602 
L 165.163605 162.61811 
L 165.395999 158.461731 
L 165.395999 158.512322 
L 165.628393 159.963198 
L 165.860787 156.067974 
L 166.093181 156.458892 
L 166.325576 153.885648 
L 166.325576 153.953714 
L 166.55797 152.786105 
L 166.55797 152.813056 
L 166.790364 150.784642 
L 167.022758 145.182277 
L 167.255152 146.034625 
L 167.487546 141.985133 
L 167.71994 140.894046 
L 167.71994 140.924054 
L 167.952334 137.964375 
L 168.184728 130.974259 
L 168.417122 132.073802 
L 168.417122 132.065294 
L 168.649516 126.627184 
L 168.881911 125.629331 
L 169.114305 121.922612 
L 169.346699 114.167064 
L 169.579093 114.615145 
L 169.579093 114.560529 
L 169.811487 109.323559 
L 169.811487 109.363705 
L 170.043881 100.172259 
L 170.276275 101.878126 
L 170.508669 94.699505 
L 170.741063 92.621774 
L 170.741063 85.63879 
L 170.973457 87.141021 
L 170.973457 87.135264 
L 171.205851 86.944415 
L 171.205851 86.947574 
L 171.438246 96.312546 
L 171.67064 94.427243 
L 171.67064 94.428262 
L 171.903034 102.598877 
L 172.135428 114.662322 
L 172.135428 114.631805 
L 172.367822 112.771924 
L 172.367822 112.791488 
L 172.600216 120.718168 
L 172.83261 133.212525 
L 173.065004 131.581856 
L 173.065004 131.800063 
L 173.297398 139.044508 
L 173.529792 151.399218 
L 173.529792 151.36651 
L 173.762187 149.452218 
L 173.994581 157.399735 
L 174.459369 165.84353 
L 174.459369 165.960658 
L 174.691763 176.158822 
L 174.691763 176.132023 
L 174.924157 175.890635 
L 175.156551 183.275491 
L 175.388945 185.586408 
L 175.621339 190.297195 
L 175.853733 200.993165 
L 176.086127 198.677612 
L 176.318522 207.745969 
L 176.318522 207.739295 
L 176.550916 206.35944 
L 176.550916 206.385575 
L 176.78331 214.447419 
L 177.015704 213.635982 
L 177.015704 213.683719 
L 177.248098 221.317606 
L 177.248098 221.317249 
L 177.480492 220.671543 
L 177.480492 220.679287 
L 177.712886 227.814757 
L 177.712886 227.807064 
L 177.94528 226.796728 
L 177.94528 226.85649 
L 178.177674 234.072201 
L 178.410068 232.506744 
L 178.410068 232.525544 
L 178.642462 240.030075 
L 178.874857 237.66867 
L 178.874857 237.702142 
L 179.107251 240.057485 
L 179.107251 240.023197 
L 179.339645 243.611973 
L 179.572039 244.957133 
L 179.572039 244.931813 
L 179.804433 249.017732 
L 180.036827 249.034799 
L 180.269221 253.884367 
L 180.501615 252.720986 
L 181.431192 260.459111 
L 181.663586 260.377391 
L 181.89598 263.660738 
L 182.128374 262.684385 
L 182.128374 262.68683 
L 182.593162 265.330789 
L 182.593162 265.317034 
L 182.825556 265.587105 
L 182.825556 265.530859 
L 183.05795 267.350746 
L 183.290344 267.211558 
L 183.290344 267.240191 
L 184.452315 269.517584 
L 184.684709 269.628853 
L 184.684709 269.620548 
L 184.917103 270.015033 
L 184.917103 269.760399 
L 185.614285 270.300949 
L 185.614285 270.299268 
L 186.079073 270.041424 
L 186.079073 270.048607 
L 186.311467 270.154527 
L 186.543862 270.000972 
L 186.776256 270.111018 
L 187.00865 269.932855 
L 187.00865 269.944216 
L 187.473438 270.1531 
L 187.705832 270.163188 
L 187.938226 269.98044 
L 187.938226 269.980491 
L 188.17062 269.380128 
L 188.17062 269.433623 
L 188.403014 269.633387 
L 188.403014 269.629566 
L 188.635408 269.553043 
L 189.100197 268.826077 
L 189.332591 267.510466 
L 189.564985 267.786651 
L 189.797379 265.4739 
L 189.797379 267.392166 
L 190.029773 266.189862 
L 190.262167 265.714983 
L 190.262167 265.715441 
L 190.494561 263.34349 
L 190.726955 263.595271 
L 190.726955 263.579936 
L 190.959349 259.504919 
L 190.959349 259.582359 
L 191.191743 260.936028 
L 191.191743 260.880342 
L 191.424137 259.761133 
L 191.424137 259.895226 
L 191.656532 256.402639 
L 191.656532 256.44681 
L 191.888926 256.40376 
L 191.888926 256.463572 
L 192.12132 250.301908 
L 192.12132 250.425659 
L 192.353714 252.219971 
L 192.586108 250.122727 
L 192.586108 250.177546 
L 192.818502 245.305358 
L 192.818502 245.392223 
L 193.050896 244.689406 
L 193.050896 244.731233 
L 193.28329 236.679274 
L 193.515684 238.719406 
L 193.515684 238.629025 
L 193.748078 227.083052 
L 193.748078 235.57112 
L 193.980472 229.794465 
L 194.212867 227.702061 
L 194.445261 218.491154 
L 194.677655 219.216592 
L 194.910049 221.225951 
L 195.142443 219.602823 
L 195.374837 222.54625 
L 195.374837 222.248565 
L 195.607231 230.467173 
L 195.607231 229.94318 
L 195.839625 234.007345 
L 195.839625 233.790768 
L 196.072019 243.720134 
L 196.072019 243.381539 
L 196.304413 243.899316 
L 196.304413 243.56393 
L 196.536807 254.106395 
L 196.769202 251.669027 
L 196.769202 251.91011 
L 197.001596 255.594055 
L 197.001596 263.811644 
L 197.23399 260.225874 
L 197.23399 260.636967 
L 197.466384 262.454154 
L 197.698778 269.289391 
L 197.698778 268.964755 
L 197.931172 268.108638 
L 197.931172 268.242884 
L 198.163566 276.841762 
L 198.39596 273.939449 
L 198.628354 275.653723 
L 198.628354 275.31207 
L 198.860748 281.052094 
L 198.860748 280.625971 
L 199.093142 279.743514 
L 199.093142 279.876384 
L 199.557931 284.871661 
L 199.557931 285.083143 
L 199.790325 284.881953 
L 199.790325 284.886283 
L 200.022719 288.914122 
L 200.022719 286.077583 
L 200.255113 288.128567 
L 200.255113 288.052808 
L 200.487507 288.676606 
L 200.487507 288.635441 
L 200.719901 291.150962 
L 200.719901 291.146275 
L 200.952295 290.458996 
L 201.184689 291.33855 
L 201.417083 293.060363 
L 201.417083 293.048289 
L 201.649477 292.864777 
L 201.649477 292.9548 
L 201.881872 293.204595 
L 202.114266 294.036869 
L 202.114266 293.991373 
L 202.34666 294.04553 
L 202.811448 294.700916 
L 202.811448 294.69791 
L 203.276236 295.000435 
L 203.276236 294.952137 
L 203.50863 295.227303 
L 203.741024 295.313047 
L 203.973418 295.036454 
L 204.902995 295.376986 
L 205.135389 294.978273 
L 205.135389 295.000078 
L 205.367783 295.040938 
L 205.600177 294.837149 
L 205.600177 294.629844 
L 205.832571 294.898999 
L 205.832571 294.704125 
L 206.064965 294.648033 
L 206.064965 294.649306 
L 206.297359 294.150685 
L 206.297359 294.156799 
L 206.529753 293.985718 
L 206.762147 293.440379 
L 206.762147 293.440379 
L 206.994542 293.284939 
L 206.994542 293.289931 
L 207.226936 291.352713 
L 207.45933 291.927092 
L 207.45933 291.925156 
L 207.691724 291.211793 
L 207.924118 289.328018 
L 207.924118 289.349365 
L 208.156512 289.42711 
L 208.388906 288.664481 
L 208.6213 286.659095 
L 208.6213 286.720792 
L 208.853694 286.691446 
L 208.853694 286.692465 
L 209.086088 281.053419 
L 209.086088 281.139825 
L 209.318482 282.647712 
L 209.550877 282.381818 
L 209.550877 282.463079 
L 209.783271 275.993337 
L 210.015665 278.319589 
L 210.015665 278.114323 
L 210.248059 277.372072 
L 210.480453 269.799271 
L 210.480453 269.979778 
L 210.712847 272.469519 
L 210.945241 270.468667 
L 210.945241 270.693549 
L 211.177635 262.327092 
L 211.177635 262.55503 
L 211.410029 264.841441 
L 211.642423 262.000367 
L 211.642423 262.045965 
L 211.874817 253.673598 
L 211.874817 253.908108 
L 212.107212 255.07317 
L 212.107212 255.026757 
L 212.339606 251.061328 
L 212.339606 251.295023 
L 212.572 243.749429 
L 212.572 244.005897 
L 212.804394 242.154219 
L 212.804394 242.180355 
L 213.036788 226.759027 
L 213.269182 231.487137 
L 213.269182 231.463039 
L 213.501576 225.928434 
L 213.73397 230.926258 
L 213.73397 230.813461 
L 213.966364 231.190114 
L 213.966364 231.081699 
L 214.198758 242.37584 
L 214.198758 242.366109 
L 214.431152 238.963647 
L 214.431152 238.966806 
L 215.360729 256.129613 
L 215.593123 254.683373 
L 215.593123 254.78598 
L 215.825517 262.29041 
L 215.825517 257.442982 
L 216.057911 260.008584 
L 216.290305 261.265504 
L 216.522699 265.251872 
L 216.522699 265.232716 
L 216.755093 264.643816 
L 216.755093 264.681976 
L 216.987487 269.334327 
L 217.219882 268.23407 
L 217.219882 268.279464 
L 217.452276 269.078521 
L 217.452276 269.043622 
L 217.68467 271.543553 
L 217.68467 271.511711 
L 217.917064 271.375732 
L 217.917064 271.406148 
L 218.149458 274.184251 
L 218.149458 274.182621 
L 218.381852 273.460138 
L 218.381852 273.464366 
L 218.614246 274.247171 
L 218.84664 275.576894 
L 218.84664 275.576079 
L 219.079034 275.609246 
L 219.079034 275.608787 
L 219.311428 277.002246 
L 219.311428 276.995775 
L 219.543822 276.696817 
L 219.543822 276.698498 
L 220.008611 277.719838 
L 220.241005 277.839972 
L 220.473399 278.277761 
L 220.705793 278.25942 
L 220.705793 278.270476 
L 220.938187 278.520372 
L 221.635369 278.600308 
L 221.867763 278.960404 
L 221.867763 278.94782 
L 222.332552 278.670259 
L 222.332552 278.671125 
L 222.79734 278.862483 
L 222.79734 278.596589 
L 223.029734 278.959334 
L 223.029734 278.957653 
L 223.262128 278.485422 
L 223.262128 278.507635 
L 223.726916 278.700725 
L 223.726916 278.687123 
L 223.95931 278.358666 
L 224.191704 278.466776 
L 224.191704 278.466317 
L 224.424098 277.759628 
L 224.656492 278.076571 
L 224.888887 277.983694 
L 225.121281 277.089671 
L 225.121281 277.106891 
L 225.353675 277.345223 
L 225.353675 277.317253 
L 225.586069 275.62993 
L 225.586069 277.082335 
L 225.818463 276.079285 
L 225.818463 276.128093 
L 226.050857 276.052742 
L 226.050857 276.07526 
L 226.283251 274.092138 
L 226.283251 274.205751 
L 226.515645 274.831434 
L 226.515645 274.810342 
L 226.748039 274.298067 
L 226.748039 274.375711 
L 226.980433 272.459941 
L 227.212827 272.606771 
L 227.212827 272.898801 
L 227.445222 269.618816 
L 227.677616 270.607295 
L 227.91001 269.667165 
L 228.142404 267.166419 
L 228.374798 267.255628 
L 228.374798 267.253182 
L 228.607192 263.150399 
L 228.839586 264.941654 
L 228.839586 264.785603 
L 229.07198 263.470501 
L 229.07198 263.538414 
L 229.304374 260.171666 
L 229.536768 260.659588 
L 229.769162 259.463958 
L 229.769162 255.707107 
L 230.001557 257.544825 
L 230.233951 255.953794 
L 230.466345 252.169788 
L 230.466345 252.32803 
L 230.698739 252.611704 
L 230.698739 252.550415 
L 230.931133 246.974492 
L 231.163527 248.661611 
L 231.163527 248.548762 
L 231.395921 247.071699 
L 231.395921 247.173441 
L 231.628315 243.003153 
L 231.860709 243.185646 
L 232.093103 237.29003 
L 232.325497 238.946529 
L 232.557892 236.964069 
L 232.557892 231.520915 
L 232.790286 233.542349 
L 233.02268 232.363226 
L 233.02268 232.491154 
L 233.255074 227.067258 
L 233.255074 227.285771 
L 233.487468 227.79341 
L 233.719862 220.21256 
L 233.952256 222.779079 
L 233.952256 222.669848 
L 234.18465 220.435454 
L 234.417044 216.082316 
L 234.649438 214.927291 
L 234.649438 214.942524 
L 234.881832 208.676011 
L 235.114227 209.013333 
L 235.346621 201.141574 
L 235.579015 202.70107 
L 235.811409 192.934276 
L 235.811409 193.159107 
L 236.043803 195.65002 
L 236.276197 185.173073 
L 236.276197 192.307269 
L 237.902956 165.320404 
L 237.902956 165.33044 
L 238.13535 153.365222 
L 238.13535 161.28049 
L 238.367744 157.063229 
L 238.367744 157.358978 
L 238.600138 145.838427 
L 238.600138 145.938436 
L 238.832532 148.869585 
L 239.064926 138.867925 
L 239.29732 140.067274 
L 239.29732 140.051226 
L 239.529714 132.121591 
L 239.529714 132.137996 
L 239.762108 131.084356 
L 239.762108 131.111511 
L 240.226897 122.84328 
L 240.459291 118.564984 
L 240.691685 109.597248 
L 240.691685 109.643406 
L 240.924079 110.03412 
L 241.156473 104.373218 
L 241.388867 95.42642 
L 241.621261 97.284976 
L 241.621261 97.140235 
L 241.853655 90.381776 
L 242.086049 89.245856 
L 242.318443 84.988652 
L 242.550838 77.825569 
L 242.783232 77.33352 
L 242.783232 77.520089 
L 244.177596 54.017915 
L 244.177596 54.017915 
L 254.867724 54.017915 
L 254.867724 54.017915 
L 255.100118 56.336729 
L 255.100118 54.017915 
L 258.58603 54.017915 
L 258.58603 54.017915 
L 258.818424 55.932411 
L 258.818424 54.017915 
L 261.607153 54.017915 
L 261.607153 55.887527 
L 261.839547 54.017915 
L 261.839547 54.017915 
L 262.304335 54.017915 
L 262.304335 54.017915 
L 262.536729 55.887425 
L 262.536729 54.017915 
L 266.022641 54.017915 
L 266.022641 54.017915 
L 266.255035 55.782423 
L 266.255035 54.017915 
L 270.902917 54.017915 
L 270.902917 54.017915 
L 271.135311 55.944078 
L 271.135311 54.017915 
L 274.156434 54.017915 
L 274.156434 54.017915 
L 274.388828 55.990186 
L 274.388828 54.017915 
L 276.480375 54.017915 
L 276.480375 54.017915 
L 276.712769 55.97536 
L 276.712769 54.017915 
L 279.733892 54.017915 
L 279.733892 54.017915 
L 279.966286 58.255912 
L 279.966286 54.017915 
L 282.755015 54.017915 
L 282.755015 54.017915 
L 282.987409 55.438885 
L 282.987409 55.33801 
L 283.452198 72.461893 
L 283.452198 72.426586 
L 283.684592 71.765189 
L 284.381774 88.444965 
L 284.614168 88.397635 
L 285.31135 99.529407 
L 285.31135 99.527878 
L 285.543744 99.421195 
L 286.240927 105.312634 
L 286.240927 105.31187 
L 286.473321 105.330007 
L 286.473321 105.318748 
L 286.938109 106.625494 
L 286.938109 106.623762 
L 287.170503 106.875288 
L 287.170503 106.866933 
L 287.635291 106.823118 
L 287.635291 106.816648 
L 287.867685 106.705124 
L 288.100079 106.941571 
L 288.100079 106.93133 
L 288.332473 106.809414 
L 288.332473 106.812929 
L 288.564868 106.009236 
L 288.797262 106.623915 
L 288.797262 106.307634 
L 289.029656 105.932509 
L 289.029656 105.9347 
L 289.26205 104.323136 
L 289.494444 104.506546 
L 289.726838 103.101625 
L 289.959232 100.106436 
L 290.191626 99.573222 
L 290.191626 99.725503 
L 290.42402 98.08388 
L 290.42402 98.088975 
L 290.888808 89.029228 
L 291.121203 90.672481 
L 291.353597 86.961941 
L 291.353597 87.019511 
L 291.585991 80.887245 
L 291.585991 81.16343 
L 291.818385 81.688594 
L 291.818385 81.576561 
L 292.050779 77.609655 
L 292.283173 71.056054 
L 292.283173 71.064715 
L 292.515567 70.103289 
L 292.515567 70.440051 
L 292.980355 60.687625 
L 293.212749 54.017915 
L 293.212749 54.017915 
L 296.001478 54.017915 
L 296.001478 54.017915 
L 296.233873 54.312645 
L 296.466267 54.458201 
L 296.931055 60.676569 
L 297.163449 65.536479 
L 297.163449 65.471878 
L 297.395843 66.452613 
L 297.395843 69.394358 
L 297.628237 68.978985 
L 297.628237 68.733827 
L 298.093025 75.914945 
L 298.093025 75.860177 
L 298.325419 80.420568 
L 298.325419 80.3793 
L 298.557813 80.442475 
L 298.790208 82.696586 
L 298.790208 82.679416 
L 299.254996 91.031812 
L 299.254996 90.957072 
L 299.48739 91.323281 
L 299.48739 91.223475 
L 299.952178 97.46375 
L 300.184572 102.32901 
L 300.416966 102.198636 
L 300.64936 104.87836 
L 300.64936 104.834596 
L 300.881754 109.53769 
L 301.114149 110.426567 
L 302.276119 126.524219 
L 302.276119 126.505776 
L 302.508513 132.465587 
L 302.508513 132.429567 
L 302.740907 131.099436 
L 302.740907 131.319732 
L 302.973301 135.356589 
L 303.205695 141.486665 
L 303.205695 137.129452 
L 303.438089 139.890131 
L 303.670484 144.594448 
L 303.670484 144.553996 
L 303.902878 145.596122 
L 303.902878 145.517459 
L 304.135272 148.19754 
L 304.367666 153.327725 
L 304.60006 153.346524 
L 304.60006 153.243764 
L 305.064848 161.313759 
L 305.297242 160.319523 
L 305.529636 163.996183 
L 305.529636 163.929798 
L 305.76203 164.18158 
L 305.76203 164.148974 
L 306.226819 170.614945 
L 306.226819 167.915861 
L 306.459213 169.635484 
L 306.459213 169.44703 
L 306.691607 172.45353 
L 306.691607 172.445378 
L 306.924001 172.301197 
L 307.156395 174.341839 
L 307.388789 174.893699 
L 307.388789 174.881319 
L 307.853577 178.209704 
L 307.853577 178.195235 
L 308.085971 177.924297 
L 308.318365 179.487002 
L 308.318365 179.483283 
L 308.550759 179.558125 
L 308.783154 180.50019 
L 308.783154 180.499783 
L 309.015548 180.520009 
L 309.015548 180.514507 
L 309.247942 181.260884 
L 309.480336 181.377095 
L 309.71273 182.148487 
L 309.71273 182.147876 
L 309.945124 181.880556 
L 310.177518 182.675333 
L 310.177518 182.675282 
L 310.409912 182.333528 
L 310.409912 182.335158 
L 310.8747 182.643847 
L 310.8747 182.64293 
L 311.571883 182.297355 
L 311.804277 182.740036 
L 312.036671 182.233467 
L 312.269065 182.608031 
L 312.501459 181.994474 
L 312.501459 182.017451 
L 312.733853 182.180023 
L 312.966247 181.69093 
L 312.966247 181.690981 
L 313.198641 181.490758 
L 313.198641 181.49086 
L 313.431035 181.449236 
L 313.663429 180.689358 
L 313.663429 180.692873 
L 313.895824 180.555876 
L 314.128218 177.853582 
L 314.128218 177.854499 
L 314.360612 178.860453 
L 314.593006 176.512192 
L 314.593006 176.552236 
L 314.8254 176.914268 
L 314.8254 176.819659 
L 315.057794 174.213554 
L 315.057794 174.230162 
L 315.290188 174.055057 
L 315.290188 174.063565 
L 315.522582 171.874208 
L 315.754976 170.961335 
L 315.754976 171.006984 
L 315.98737 169.383957 
L 315.98737 169.398732 
L 316.219764 163.847468 
L 316.219764 163.850372 
L 316.452159 165.435239 
L 316.684553 160.312339 
L 316.916947 160.767604 
L 316.916947 160.756752 
L 317.149341 156.768091 
L 317.149341 156.77232 
L 317.381735 155.673846 
L 317.381735 155.701765 
L 317.614129 152.499577 
L 317.614129 152.669435 
L 317.846523 144.855552 
L 318.078917 147.328227 
L 318.078917 147.144052 
L 318.311311 140.206258 
L 318.543705 140.424924 
L 318.543705 140.616639 
L 318.776099 135.522015 
L 318.776099 135.544228 
L 319.008494 133.520857 
L 319.240888 129.773279 
L 319.473282 121.093496 
L 319.705676 121.969585 
L 319.705676 121.824029 
L 319.93807 115.895195 
L 320.170464 106.608223 
L 320.402858 109.557305 
L 320.635252 101.16996 
L 320.867646 100.248222 
L 321.10004 95.208519 
L 321.10004 95.226707 
L 321.332434 85.821487 
L 321.332434 86.02176 
L 321.564829 85.659933 
L 321.797223 80.578351 
L 321.797223 80.579014 
L 322.029617 70.91223 
L 322.029617 71.110568 
L 322.262011 70.16677 
L 322.494405 65.191974 
L 322.726799 56.525896 
L 322.959193 56.047348 
L 322.959193 56.147816 
L 323.191587 54.017915 
L 323.191587 54.017915 
L 330.860592 54.017915 
L 330.860592 54.017915 
L 331.092986 55.173959 
L 331.32538 55.245948 
L 331.32538 55.144869 
L 331.790169 61.729139 
L 331.790169 61.622507 
L 332.254957 72.856224 
L 332.487351 72.591248 
L 332.487351 72.395814 
L 332.952139 83.948716 
L 332.952139 83.780387 
L 333.184533 93.492666 
L 333.184533 93.241904 
L 333.416927 93.566285 
L 333.416927 93.419149 
L 333.881715 108.053444 
L 334.114109 116.530405 
L 334.114109 116.431669 
L 334.346504 115.343538 
L 334.578898 120.191322 
L 334.811292 127.869533 
L 334.811292 127.833462 
L 335.043686 127.984572 
L 335.043686 127.815885 
L 335.27608 131.169539 
L 335.27608 131.092303 
L 335.508474 136.520326 
L 335.740868 137.003408 
L 335.973262 139.183187 
L 336.205656 143.22524 
L 336.43805 143.367026 
L 336.43805 143.310016 
L 336.670444 145.074575 
L 336.902839 147.770449 
L 337.135233 147.574404 
L 337.135233 147.639311 
L 337.600021 149.82454 
L 337.832415 150.323722 
L 338.064809 151.053643 
L 338.297203 151.32509 
L 338.297203 151.283721 
L 338.529597 151.831557 
L 338.761991 151.837263 
L 338.761991 151.833798 
L 338.994385 151.991276 
L 338.994385 151.980068 
L 339.226779 151.991073 
L 339.226779 151.990665 
L 339.691568 152.405121 
L 339.691568 152.39809 
L 339.923962 151.953983 
L 340.156356 152.152932 
L 340.156356 152.144169 
L 340.38875 152.023475 
L 340.853538 152.361816 
L 341.085932 151.745507 
L 341.085932 151.752079 
L 341.318326 151.94089 
L 341.55072 151.553639 
L 341.783114 150.785355 
L 341.783114 150.795595 
L 342.015509 151.477371 
L 342.247903 150.252497 
L 342.480297 150.428826 
L 342.480297 150.404932 
L 342.945085 149.378395 
L 342.945085 147.980097 
L 343.177479 148.516062 
L 343.177479 148.880488 
L 343.409873 146.868784 
L 343.642267 146.973481 
L 343.874661 145.786155 
L 343.874661 145.836338 
L 344.107055 143.224731 
L 344.339449 143.878843 
L 344.571844 141.767384 
L 344.571844 141.796628 
L 344.804238 141.554629 
L 344.804238 141.632578 
L 345.269026 139.496767 
L 345.269026 139.510268 
L 345.50142 139.578079 
L 345.50142 139.549243 
L 345.733814 141.314718 
L 345.733814 141.185872 
L 345.966208 145.331706 
L 345.966208 142.437035 
L 346.198602 144.170006 
L 346.198602 144.063119 
L 346.430996 148.222759 
L 346.66339 148.62081 
L 346.66339 148.54179 
L 346.895784 151.670665 
L 346.895784 151.659915 
L 347.128179 158.803332 
L 347.360573 157.434736 
L 347.592967 164.290913 
L 347.592967 163.733957 
L 347.825361 165.63643 
L 348.057755 170.422772 
L 348.290149 184.742059 
L 348.522543 180.250294 
L 348.522543 180.528313 
L 348.754937 193.50672 
L 348.987331 191.285623 
L 349.219725 202.04436 
L 349.219725 202.019294 
L 349.452119 203.93491 
L 349.452119 203.721238 
L 349.684514 211.473525 
L 349.684514 211.378865 
L 349.916908 213.511212 
L 349.916908 213.176386 
L 350.149302 220.318683 
L 350.149302 220.213018 
L 350.381696 222.227829 
L 350.61409 228.40121 
L 350.61409 228.2581 
L 350.846484 230.251411 
L 350.846484 230.173971 
L 351.078878 236.382048 
L 351.078878 236.231804 
L 351.311272 236.711371 
L 351.311272 237.358095 
L 351.543666 243.769859 
L 351.77606 243.10948 
L 351.77606 243.521644 
L 352.008454 250.904156 
L 352.240849 249.141941 
L 352.473243 251.494839 
L 352.473243 256.985577 
L 352.705637 254.63538 
L 352.705637 254.754903 
L 352.938031 256.522773 
L 352.938031 256.458069 
L 353.170425 261.079139 
L 353.402819 260.582403 
L 353.635213 266.859818 
L 353.635213 266.706161 
L 353.867607 264.935642 
L 354.100001 266.502678 
L 354.332395 269.748273 
L 354.332395 269.654174 
L 354.564789 269.934842 
L 354.564789 269.910642 
L 354.797184 274.204477 
L 354.797184 273.979035 
L 355.029578 273.037734 
L 355.494366 276.922106 
L 355.494366 276.827497 
L 355.72676 276.959756 
L 355.72676 277.232629 
L 355.959154 279.653745 
L 355.959154 279.493465 
L 356.191548 279.016497 
L 356.656336 281.086127 
L 356.656336 281.071098 
L 356.88873 281.453304 
L 356.88873 281.427474 
L 357.121124 282.561203 
L 357.121124 282.55891 
L 357.353519 282.35614 
L 357.353519 282.373208 
L 358.050701 283.59477 
L 358.515489 283.593547 
L 358.515489 283.598591 
L 359.212671 284.001176 
L 359.212671 283.99654 
L 359.445065 283.596961 
L 359.909854 283.796266 
L 359.909854 283.787249 
L 360.142248 283.610615 
L 360.142248 283.61143 
L 360.607036 283.798661 
L 360.607036 283.798152 
L 360.83943 283.519419 
L 360.83943 283.530271 
L 361.071824 283.555082 
L 361.304218 282.850736 
L 361.304218 282.851399 
L 361.536612 283.097168 
L 361.536612 283.092787 
L 361.769006 282.914879 
L 362.233794 281.953606 
L 362.466189 280.128064 
L 362.466189 280.130051 
L 362.698583 280.590869 
L 362.930977 280.006758 
L 363.163371 278.625782 
L 363.163371 278.631132 
L 363.395765 278.020121 
L 363.395765 278.021038 
L 363.628159 275.130953 
L 363.628159 275.146747 
L 363.860553 275.625702 
L 363.860553 275.612099 
L 364.092947 274.635593 
L 364.092947 274.650928 
L 364.790129 268.580664 
L 364.790129 268.12061 
L 365.022524 268.890933 
L 365.254918 263.226617 
L 365.254918 267.2326 
L 365.487312 264.638365 
L 365.719706 263.625279 
L 365.9521 259.274332 
L 365.9521 259.310759 
L 366.184494 259.879585 
L 366.416888 253.266428 
L 366.416888 258.374043 
L 366.649282 254.815377 
L 366.649282 255.101038 
L 366.881676 254.406474 
L 367.11407 248.397755 
L 367.11407 248.552736 
L 367.346465 250.492706 
L 367.578859 248.155602 
L 367.811253 243.812705 
L 368.043647 243.752536 
L 368.043647 243.617628 
L 368.276041 236.387193 
L 368.508435 238.831796 
L 368.740829 236.58227 
L 368.740829 236.615641 
L 368.973223 231.574562 
L 368.973223 231.621587 
L 369.205617 231.538441 
L 369.205617 231.373881 
L 369.438011 223.938995 
L 369.438011 223.965436 
L 369.670405 225.685976 
L 369.9028 223.234853 
L 369.9028 223.370423 
L 370.135194 218.970567 
L 370.135194 219.155302 
L 370.367588 217.308311 
L 370.599982 211.289045 
L 370.832376 211.603543 
L 371.06477 204.230252 
L 371.297164 205.986964 
L 371.297164 205.844923 
L 371.529558 197.4722 
L 371.529558 197.709104 
L 371.761952 199.891991 
L 371.994346 197.104106 
L 371.994346 191.583512 
L 372.22674 194.048493 
L 372.459135 191.927202 
L 372.691529 188.331243 
L 372.923923 187.787075 
L 373.156317 187.703318 
L 373.156317 187.705152 
L 373.388711 188.086951 
L 373.388711 188.019038 
L 373.621105 190.776864 
L 373.621105 190.681134 
L 373.853499 190.818386 
L 374.085893 193.297378 
L 374.318287 193.372066 
L 374.318287 193.244138 
L 374.550681 195.330428 
L 374.550681 195.317538 
L 374.783075 195.206422 
L 375.01547 196.714003 
L 375.247864 196.444135 
L 375.247864 197.032983 
L 375.480258 197.623207 
L 375.712652 197.312786 
L 375.712652 197.313856 
L 375.945046 198.090037 
L 376.17744 197.310748 
L 376.409834 198.296985 
L 376.409834 198.29026 
L 376.642228 197.532114 
L 376.874622 198.298462 
L 377.107016 197.664169 
L 377.107016 197.669315 
L 377.33941 198.016673 
L 377.33941 198.293775 
L 377.571805 197.288841 
L 377.804199 198.246649 
L 378.036593 197.239269 
L 378.036593 197.261686 
L 378.268987 197.93531 
L 378.268987 197.927057 
L 378.501381 196.667539 
L 378.501381 196.768465 
L 378.733775 197.023558 
L 378.966169 195.176618 
L 378.966169 195.19287 
L 379.198563 195.430081 
L 379.198563 195.288804 
L 379.430957 193.644074 
L 379.430957 193.747649 
L 379.663351 193.781122 
L 379.663351 193.653957 
L 379.895745 191.518809 
L 379.895745 191.838605 
L 380.12814 191.288578 
L 380.12814 191.327196 
L 380.360534 188.593315 
L 380.360534 188.743661 
L 380.825322 185.617078 
L 381.29011 181.333433 
L 381.29011 181.394671 
L 381.522504 178.809964 
L 381.522504 173.797467 
L 381.754898 176.909581 
L 381.987292 173.773471 
L 381.987292 168.281408 
L 382.219686 170.842221 
L 382.45208 162.688061 
L 382.45208 163.352515 
L 382.684475 164.312361 
L 382.916869 156.194578 
L 383.149263 156.515444 
L 383.381657 149.845938 
L 383.381657 150.369523 
L 383.614051 148.030433 
L 383.846445 142.761977 
L 383.846445 143.102661 
L 384.078839 131.016035 
L 384.311233 134.51922 
L 384.311233 134.140784 
L 384.543627 123.148046 
L 384.776021 123.138672 
L 384.776021 123.227881 
L 385.008415 115.0699 
L 385.008415 115.944257 
L 385.24081 112.172275 
L 385.24081 112.175434 
L 385.473204 106.388793 
L 385.473204 106.530783 
L 385.705598 94.579779 
L 385.705598 94.774041 
L 385.937992 94.42658 
L 385.937992 94.209545 
L 386.867568 69.50308 
L 386.867568 69.641911 
L 387.56475 54.855233 
L 387.797145 54.017915 
L 387.797145 54.017915 
L 398.254879 54.017915 
L 398.254879 54.017915 
L 398.487273 54.165815 
L 398.487273 54.017915 
L 398.487273 54.017915 
" clip-path="url(#pe98c039948)" style="fill: none; stroke: #ff7f0e; stroke-width: 1.5; stroke-linecap: square"/>
   </g>
   <g id="patch_3">
    <path d="M 57.6 307.584 
L 57.6 41.472 
" style="fill: none; stroke: #000000; stroke-width: 0.8; stroke-linejoin: miter; stroke-linecap: square"/>
   </g>
   <g id="patch_4">
    <path d="M 414.72 307.584 
L 414.72 41.472 
" style="fill: none; stroke: #000000; stroke-width: 0.8; stroke-linejoin: miter; stroke-linecap: square"/>
   </g>
   <g id="patch_5">
    <path d="M 57.6 307.584 
L 414.72 307.584 
" style="fill: none; stroke: #000000; stroke-width: 0.8; stroke-linejoin: miter; stroke-linecap: square"/>
   </g>
   <g id="patch_6">
    <path d="M 57.6 41.472 
L 414.72 41.472 
" style="fill: none; stroke: #000000; stroke-width: 0.8; stroke-linejoin: miter; stroke-linecap: square"/>
   </g>
   <g id="text_14">
    <!-- Actual speed vs Expected speed -->
    <g transform="translate(138.808125 35.472) scale(0.12 -0.12)">
     <defs>
      <path id="DejaVuSans-41" d="M 2188 4044 
L 1331 1722 
L 3047 1722 
L 2188 4044 
z
M 1831 4666 
L 2547 4666 
L 4325 0 
L 3669 0 
L 3244 1197 
L 1141 1197 
L 716 0 
L 50 0 
L 1831 4666 
z
" transform="scale(0.015625)"/>
      <path id="DejaVuSans-75" d="M 544 1381 
L 544 3500 
L 1119 3500 
L 1119 1403 
Q 1119 906 1312 657 
Q 1506 409 1894 409 
Q 2359 409 2629 706 
Q 2900 1003 2900 1516 
L 2900 3500 
L 3475 3500 
L 3475 0 
L 2900 0 
L 2900 538 
Q 2691 219 2414 64 
Q 2138 -91 1772 -91 
Q 1169 -91 856 284 
Q 544 659 544 1381 
z
M 1991 3584 
L 1991 3584 
z
" transform="scale(0.015625)"/>
      <path id="DejaVuSans-61" d="M 2194 1759 
Q 1497 1759 1228 1600 
Q 959 1441 959 1056 
Q 959 750 1161 570 
Q 1363 391 1709 391 
Q 2188 391 2477 730 
Q 2766 1069 2766 1631 
L 2766 1759 
L 2194 1759 
z
M 3341 1997 
L 3341 0 
L 2766 0 
L 2766 531 
Q 2569 213 2275 61 
Q 1981 -91 1556 -91 
Q 1019 -91 701 211 
Q 384 513 384 1019 
Q 384 1609 779 1909 
Q 1175 2209 1959 2209 
L 2766 2209 
L 2766 2266 
Q 2766 2663 2505 2880 
Q 2244 3097 1772 3097 
Q 1472 3097 1187 3025 
Q 903 2953 641 2809 
L 641 3341 
Q 956 3463 1253 3523 
Q 1550 3584 1831 3584 
Q 2591 3584 2966 3190 
Q 3341 2797 3341 1997 
z
" transform="scale(0.015625)"/>
      <path id="DejaVuSans-20" transform="scale(0.015625)"/>
      <path id="DejaVuSans-70" d="M 1159 525 
L 1159 -1331 
L 581 -1331 
L 581 3500 
L 1159 3500 
L 1159 2969 
Q 1341 3281 1617 3432 
Q 1894 3584 2278 3584 
Q 2916 3584 3314 3078 
Q 3713 2572 3713 1747 
Q 3713 922 3314 415 
Q 2916 -91 2278 -91 
Q 1894 -91 1617 61 
Q 1341 213 1159 525 
z
M 3116 1747 
Q 3116 2381 2855 2742 
Q 2594 3103 2138 3103 
Q 1681 3103 1420 2742 
Q 1159 2381 1159 1747 
Q 1159 1113 1420 752 
Q 1681 391 2138 391 
Q 2594 391 2855 752 
Q 3116 1113 3116 1747 
z
" transform="scale(0.015625)"/>
      <path id="DejaVuSans-64" d="M 2906 2969 
L 2906 4863 
L 3481 4863 
L 3481 0 
L 2906 0 
L 2906 525 
Q 2725 213 2448 61 
Q 2172 -91 1784 -91 
Q 1150 -91 751 415 
Q 353 922 353 1747 
Q 353 2572 751 3078 
Q 1150 3584 1784 3584 
Q 2172 3584 2448 3432 
Q 2725 3281 2906 2969 
z
M 947 1747 
Q 947 1113 1208 752 
Q 1469 391 1925 391 
Q 2381 391 2643 752 
Q 2906 1113 2906 1747 
Q 2906 2381 2643 2742 
Q 2381 3103 1925 3103 
Q 1469 3103 1208 2742 
Q 947 2381 947 1747 
z
" transform="scale(0.015625)"/>
      <path id="DejaVuSans-76" d="M 191 3500 
L 800 3500 
L 1894 563 
L 2988 3500 
L 3597 3500 
L 2284 0 
L 1503 0 
L 191 3500 
z
" transform="scale(0.015625)"/>
      <path id="DejaVuSans-45" d="M 628 4666 
L 3578 4666 
L 3578 4134 
L 1259 4134 
L 1259 2753 
L 3481 2753 
L 3481 2222 
L 1259 2222 
L 1259 531 
L 3634 531 
L 3634 0 
L 628 0 
L 628 4666 
z
" transform="scale(0.015625)"/>
      <path id="DejaVuSans-78" d="M 3513 3500 
L 2247 1797 
L 3578 0 
L 2900 0 
L 1881 1375 
L 863 0 
L 184 0 
L 1544 1831 
L 300 3500 
L 978 3500 
L 1906 2253 
L 2834 3500 
L 3513 3500 
z
" transform="scale(0.015625)"/>
     </defs>
     <use xlink:href="#DejaVuSans-41"/>
     <use xlink:href="#DejaVuSans-63" x="66.658203"/>
     <use xlink:href="#DejaVuSans-74" x="121.638672"/>
     <use xlink:href="#DejaVuSans-75" x="160.847656"/>
     <use xlink:href="#DejaVuSans-61" x="224.226562"/>
     <use xlink:href="#DejaVuSans-6c" x="285.505859"/>
     <use xlink:href="#DejaVuSans-20" x="313.289062"/>
     <use xlink:href="#DejaVuSans-73" x="345.076172"/>
     <use xlink:href="#DejaVuSans-70" x="397.175781"/>
     <use xlink:href="#DejaVuSans-65" x="460.652344"/>
     <use xlink:href="#DejaVuSans-65" x="522.175781"/>
     <use xlink:href="#DejaVuSans-64" x="583.699219"/>
     <use xlink:href="#DejaVuSans-20" x="647.175781"/>
     <use xlink:href="#DejaVuSans-76" x="678.962891"/>
     <use xlink:href="#DejaVuSans-73" x="738.142578"/>
     <use xlink:href="#DejaVuSans-20" x="790.242188"/>
     <use xlink:href="#DejaVuSans-45" x="822.029297"/>
     <use xlink:href="#DejaVuSans-78" x="885.212891"/>
     <use xlink:href="#DejaVuSans-70" x="944.392578"/>
     <use xlink:href="#DejaVuSans-65" x="1007.869141"/>
     <use xlink:href="#DejaVuSans-63" x="1069.392578"/>
     <use xlink:href="#DejaVuSans-74" x="1124.373047"/>
     <use xlink:href="#DejaVuSans-65" x="1163.582031"/>
     <use xlink:href="#DejaVuSans-64" x="1225.105469"/>
     <use xlink:href="#DejaVuSans-20" x="1288.582031"/>
     <use xlink:href="#DejaVuSans-73" x="1320.369141"/>
     <use xlink:href="#DejaVuSans-70" x="1372.46875"/>
     <use xlink:href="#DejaVuSans-65" x="1435.945312"/>
     <use xlink:href="#DejaVuSans-65" x="1497.46875"/>
     <use xlink:href="#DejaVuSans-64" x="1558.992188"/>
    </g>
   </g>
   <g id="legend_1">
    <g id="patch_7">
     <path d="M 64.6 302.584 
L 176.65 302.584 
Q 178.65 302.584 178.65 300.584 
L 178.65 272.22775 
Q 178.65 270.22775 176.65 270.22775 
L 64.6 270.22775 
Q 62.6 270.22775 62.6 272.22775 
L 62.6 300.584 
Q 62.6 302.584 64.6 302.584 
z
" style="fill: #ffffff; opacity: 0.8; stroke: #cccccc; stroke-linejoin: miter"/>
    </g>
    <g id="line2d_25">
     <path d="M 66.6 278.326187 
L 76.6 278.326187 
L 86.6 278.326187 
" style="fill: none; stroke: #1f77b4; stroke-width: 1.5; stroke-linecap: square"/>
    </g>
    <g id="text_15">
     <!-- Actual speed -->
     <g transform="translate(94.6 281.826187) scale(0.1 -0.1)">
      <use xlink:href="#DejaVuSans-41"/>
      <use xlink:href="#DejaVuSans-63" x="66.658203"/>
      <use xlink:href="#DejaVuSans-74" x="121.638672"/>
      <use xlink:href="#DejaVuSans-75" x="160.847656"/>
      <use xlink:href="#DejaVuSans-61" x="224.226562"/>
      <use xlink:href="#DejaVuSans-6c" x="285.505859"/>
      <use xlink:href="#DejaVuSans-20" x="313.289062"/>
      <use xlink:href="#DejaVuSans-73" x="345.076172"/>
      <use xlink:href="#DejaVuSans-70" x="397.175781"/>
      <use xlink:href="#DejaVuSans-65" x="460.652344"/>
      <use xlink:href="#DejaVuSans-65" x="522.175781"/>
      <use xlink:href="#DejaVuSans-64" x="583.699219"/>
     </g>
    </g>
    <g id="line2d_26">
     <path d="M 66.6 293.004312 
L 76.6 293.004312 
L 86.6 293.004312 
" style="fill: none; stroke: #ff7f0e; stroke-width: 1.5; stroke-linecap: square"/>
    </g>
    <g id="text_16">
     <!-- Expected speed -->
     <g transform="translate(94.6 296.504312) scale(0.1 -0.1)">
      <use xlink:href="#DejaVuSans-45"/>
      <use xlink:href="#DejaVuSans-78" x="63.183594"/>
      <use xlink:href="#DejaVuSans-70" x="122.363281"/>
      <use xlink:href="#DejaVuSans-65" x="185.839844"/>
      <use xlink:href="#DejaVuSans-63" x="247.363281"/>
      <use xlink:href="#DejaVuSans-74" x="302.34375"/>
      <use xlink:href="#DejaVuSans-65" x="341.552734"/>
      <use xlink:href="#DejaVuSans-64" x="403.076172"/>
      <use xlink:href="#DejaVuSans-20" x="466.552734"/>
      <use xlink:href="#DejaVuSans-73" x="498.339844"/>
      <use xlink:href="#DejaVuSans-70" x="550.439453"/>
      <use xlink:href="#DejaVuSans-65" x="613.916016"/>
      <use xlink:href="#DejaVuSans-65" x="675.439453"/>
      <use xlink:href="#DejaVuSans-64" x="736.962891"/>
     </g>
    </g>
   </g>
  </g>
 </g>
 <defs>
  <clipPath id="pe98c039948">
   <rect x="57.6" y="41.472" width="357.12" height="266.112"/>
  </clipPath>
 </defs>
</svg>
