<?xml version="1.0" encoding="utf-8" standalone="no"?>
<!DOCTYPE svg PUBLIC "-//W3C//DTD SVG 1.1//EN"
  "http://www.w3.org/Graphics/SVG/1.1/DTD/svg11.dtd">
<svg xmlns:xlink="http://www.w3.org/1999/xlink" width="460.8pt" height="345.6pt" viewBox="0 0 460.8 345.6" xmlns="http://www.w3.org/2000/svg" version="1.1">
 <metadata>
  <rdf:RDF xmlns:dc="http://purl.org/dc/elements/1.1/" xmlns:cc="http://creativecommons.org/ns#" xmlns:rdf="http://www.w3.org/1999/02/22-rdf-syntax-ns#">
   <cc:Work>
    <dc:type rdf:resource="http://purl.org/dc/dcmitype/StillImage"/>
    <dc:date>2024-01-30T20:59:10.831464</dc:date>
    <dc:format>image/svg+xml</dc:format>
    <dc:creator>
     <cc:Agent>
      <dc:title>Matplotlib v3.7.1, https://matplotlib.org/</dc:title>
     </cc:Agent>
    </dc:creator>
   </cc:Work>
  </rdf:RDF>
 </metadata>
 <defs>
  <style type="text/css">*{stroke-linejoin: round; stroke-linecap: butt}</style>
 </defs>
 <g id="figure_1">
  <g id="patch_1">
   <path d="M 0 345.6 
L 460.8 345.6 
L 460.8 0 
L 0 0 
z
" style="fill: #ffffff"/>
  </g>
  <g id="axes_1">
   <g id="patch_2">
    <path d="M 57.6 307.584 
L 414.72 307.584 
L 414.72 41.472 
L 57.6 41.472 
z
" style="fill: #ffffff"/>
   </g>
   <g id="matplotlib.axis_1">
    <g id="xtick_1">
     <g id="line2d_1">
      <path d="M 73.832727 307.584 
L 73.832727 41.472 
" clip-path="url(#pd246b5cb52)" style="fill: none; stroke: #b0b0b0; stroke-width: 0.8; stroke-linecap: square"/>
     </g>
     <g id="line2d_2">
      <defs>
       <path id="mfb46cd9221" d="M 0 0 
L 0 3.5 
" style="stroke: #000000; stroke-width: 0.8"/>
      </defs>
      <g>
       <use xlink:href="#mfb46cd9221" x="73.832727" y="307.584" style="stroke: #000000; stroke-width: 0.8"/>
      </g>
     </g>
     <g id="text_1">
      <!-- 0 -->
      <g transform="translate(70.651477 322.182437) scale(0.1 -0.1)">
       <defs>
        <path id="DejaVuSans-30" d="M 2034 4250 
Q 1547 4250 1301 3770 
Q 1056 3291 1056 2328 
Q 1056 1369 1301 889 
Q 1547 409 2034 409 
Q 2525 409 2770 889 
Q 3016 1369 3016 2328 
Q 3016 3291 2770 3770 
Q 2525 4250 2034 4250 
z
M 2034 4750 
Q 2819 4750 3233 4129 
Q 3647 3509 3647 2328 
Q 3647 1150 3233 529 
Q 2819 -91 2034 -91 
Q 1250 -91 836 529 
Q 422 1150 422 2328 
Q 422 3509 836 4129 
Q 1250 4750 2034 4750 
z
" transform="scale(0.015625)"/>
       </defs>
       <use xlink:href="#DejaVuSans-30"/>
      </g>
     </g>
    </g>
    <g id="xtick_2">
     <g id="line2d_3">
      <path d="M 131.93125 307.584 
L 131.93125 41.472 
" clip-path="url(#pd246b5cb52)" style="fill: none; stroke: #b0b0b0; stroke-width: 0.8; stroke-linecap: square"/>
     </g>
     <g id="line2d_4">
      <g>
       <use xlink:href="#mfb46cd9221" x="131.93125" y="307.584" style="stroke: #000000; stroke-width: 0.8"/>
      </g>
     </g>
     <g id="text_2">
      <!-- 5 -->
      <g transform="translate(128.75 322.182437) scale(0.1 -0.1)">
       <defs>
        <path id="DejaVuSans-35" d="M 691 4666 
L 3169 4666 
L 3169 4134 
L 1269 4134 
L 1269 2991 
Q 1406 3038 1543 3061 
Q 1681 3084 1819 3084 
Q 2600 3084 3056 2656 
Q 3513 2228 3513 1497 
Q 3513 744 3044 326 
Q 2575 -91 1722 -91 
Q 1428 -91 1123 -41 
Q 819 9 494 109 
L 494 744 
Q 775 591 1075 516 
Q 1375 441 1709 441 
Q 2250 441 2565 725 
Q 2881 1009 2881 1497 
Q 2881 1984 2565 2268 
Q 2250 2553 1709 2553 
Q 1456 2553 1204 2497 
Q 953 2441 691 2322 
L 691 4666 
z
" transform="scale(0.015625)"/>
       </defs>
       <use xlink:href="#DejaVuSans-35"/>
      </g>
     </g>
    </g>
    <g id="xtick_3">
     <g id="line2d_5">
      <path d="M 190.029773 307.584 
L 190.029773 41.472 
" clip-path="url(#pd246b5cb52)" style="fill: none; stroke: #b0b0b0; stroke-width: 0.8; stroke-linecap: square"/>
     </g>
     <g id="line2d_6">
      <g>
       <use xlink:href="#mfb46cd9221" x="190.029773" y="307.584" style="stroke: #000000; stroke-width: 0.8"/>
      </g>
     </g>
     <g id="text_3">
      <!-- 10 -->
      <g transform="translate(183.667273 322.182437) scale(0.1 -0.1)">
       <defs>
        <path id="DejaVuSans-31" d="M 794 531 
L 1825 531 
L 1825 4091 
L 703 3866 
L 703 4441 
L 1819 4666 
L 2450 4666 
L 2450 531 
L 3481 531 
L 3481 0 
L 794 0 
L 794 531 
z
" transform="scale(0.015625)"/>
       </defs>
       <use xlink:href="#DejaVuSans-31"/>
       <use xlink:href="#DejaVuSans-30" x="63.623047"/>
      </g>
     </g>
    </g>
    <g id="xtick_4">
     <g id="line2d_7">
      <path d="M 248.128296 307.584 
L 248.128296 41.472 
" clip-path="url(#pd246b5cb52)" style="fill: none; stroke: #b0b0b0; stroke-width: 0.8; stroke-linecap: square"/>
     </g>
     <g id="line2d_8">
      <g>
       <use xlink:href="#mfb46cd9221" x="248.128296" y="307.584" style="stroke: #000000; stroke-width: 0.8"/>
      </g>
     </g>
     <g id="text_4">
      <!-- 15 -->
      <g transform="translate(241.765796 322.182437) scale(0.1 -0.1)">
       <use xlink:href="#DejaVuSans-31"/>
       <use xlink:href="#DejaVuSans-35" x="63.623047"/>
      </g>
     </g>
    </g>
    <g id="xtick_5">
     <g id="line2d_9">
      <path d="M 306.226819 307.584 
L 306.226819 41.472 
" clip-path="url(#pd246b5cb52)" style="fill: none; stroke: #b0b0b0; stroke-width: 0.8; stroke-linecap: square"/>
     </g>
     <g id="line2d_10">
      <g>
       <use xlink:href="#mfb46cd9221" x="306.226819" y="307.584" style="stroke: #000000; stroke-width: 0.8"/>
      </g>
     </g>
     <g id="text_5">
      <!-- 20 -->
      <g transform="translate(299.864319 322.182437) scale(0.1 -0.1)">
       <defs>
        <path id="DejaVuSans-32" d="M 1228 531 
L 3431 531 
L 3431 0 
L 469 0 
L 469 531 
Q 828 903 1448 1529 
Q 2069 2156 2228 2338 
Q 2531 2678 2651 2914 
Q 2772 3150 2772 3378 
Q 2772 3750 2511 3984 
Q 2250 4219 1831 4219 
Q 1534 4219 1204 4116 
Q 875 4013 500 3803 
L 500 4441 
Q 881 4594 1212 4672 
Q 1544 4750 1819 4750 
Q 2544 4750 2975 4387 
Q 3406 4025 3406 3419 
Q 3406 3131 3298 2873 
Q 3191 2616 2906 2266 
Q 2828 2175 2409 1742 
Q 1991 1309 1228 531 
z
" transform="scale(0.015625)"/>
       </defs>
       <use xlink:href="#DejaVuSans-32"/>
       <use xlink:href="#DejaVuSans-30" x="63.623047"/>
      </g>
     </g>
    </g>
    <g id="xtick_6">
     <g id="line2d_11">
      <path d="M 364.325341 307.584 
L 364.325341 41.472 
" clip-path="url(#pd246b5cb52)" style="fill: none; stroke: #b0b0b0; stroke-width: 0.8; stroke-linecap: square"/>
     </g>
     <g id="line2d_12">
      <g>
       <use xlink:href="#mfb46cd9221" x="364.325341" y="307.584" style="stroke: #000000; stroke-width: 0.8"/>
      </g>
     </g>
     <g id="text_6">
      <!-- 25 -->
      <g transform="translate(357.962841 322.182437) scale(0.1 -0.1)">
       <use xlink:href="#DejaVuSans-32"/>
       <use xlink:href="#DejaVuSans-35" x="63.623047"/>
      </g>
     </g>
    </g>
    <g id="text_7">
     <!-- Time(s) -->
     <g transform="translate(217.420156 335.860562) scale(0.1 -0.1)">
      <defs>
       <path id="DejaVuSans-54" d="M -19 4666 
L 3928 4666 
L 3928 4134 
L 2272 4134 
L 2272 0 
L 1638 0 
L 1638 4134 
L -19 4134 
L -19 4666 
z
" transform="scale(0.015625)"/>
       <path id="DejaVuSans-69" d="M 603 3500 
L 1178 3500 
L 1178 0 
L 603 0 
L 603 3500 
z
M 603 4863 
L 1178 4863 
L 1178 4134 
L 603 4134 
L 603 4863 
z
" transform="scale(0.015625)"/>
       <path id="DejaVuSans-6d" d="M 3328 2828 
Q 3544 3216 3844 3400 
Q 4144 3584 4550 3584 
Q 5097 3584 5394 3201 
Q 5691 2819 5691 2113 
L 5691 0 
L 5113 0 
L 5113 2094 
Q 5113 2597 4934 2840 
Q 4756 3084 4391 3084 
Q 3944 3084 3684 2787 
Q 3425 2491 3425 1978 
L 3425 0 
L 2847 0 
L 2847 2094 
Q 2847 2600 2669 2842 
Q 2491 3084 2119 3084 
Q 1678 3084 1418 2786 
Q 1159 2488 1159 1978 
L 1159 0 
L 581 0 
L 581 3500 
L 1159 3500 
L 1159 2956 
Q 1356 3278 1631 3431 
Q 1906 3584 2284 3584 
Q 2666 3584 2933 3390 
Q 3200 3197 3328 2828 
z
" transform="scale(0.015625)"/>
       <path id="DejaVuSans-65" d="M 3597 1894 
L 3597 1613 
L 953 1613 
Q 991 1019 1311 708 
Q 1631 397 2203 397 
Q 2534 397 2845 478 
Q 3156 559 3463 722 
L 3463 178 
Q 3153 47 2828 -22 
Q 2503 -91 2169 -91 
Q 1331 -91 842 396 
Q 353 884 353 1716 
Q 353 2575 817 3079 
Q 1281 3584 2069 3584 
Q 2775 3584 3186 3129 
Q 3597 2675 3597 1894 
z
M 3022 2063 
Q 3016 2534 2758 2815 
Q 2500 3097 2075 3097 
Q 1594 3097 1305 2825 
Q 1016 2553 972 2059 
L 3022 2063 
z
" transform="scale(0.015625)"/>
       <path id="DejaVuSans-28" d="M 1984 4856 
Q 1566 4138 1362 3434 
Q 1159 2731 1159 2009 
Q 1159 1288 1364 580 
Q 1569 -128 1984 -844 
L 1484 -844 
Q 1016 -109 783 600 
Q 550 1309 550 2009 
Q 550 2706 781 3412 
Q 1013 4119 1484 4856 
L 1984 4856 
z
" transform="scale(0.015625)"/>
       <path id="DejaVuSans-73" d="M 2834 3397 
L 2834 2853 
Q 2591 2978 2328 3040 
Q 2066 3103 1784 3103 
Q 1356 3103 1142 2972 
Q 928 2841 928 2578 
Q 928 2378 1081 2264 
Q 1234 2150 1697 2047 
L 1894 2003 
Q 2506 1872 2764 1633 
Q 3022 1394 3022 966 
Q 3022 478 2636 193 
Q 2250 -91 1575 -91 
Q 1294 -91 989 -36 
Q 684 19 347 128 
L 347 722 
Q 666 556 975 473 
Q 1284 391 1588 391 
Q 1994 391 2212 530 
Q 2431 669 2431 922 
Q 2431 1156 2273 1281 
Q 2116 1406 1581 1522 
L 1381 1569 
Q 847 1681 609 1914 
Q 372 2147 372 2553 
Q 372 3047 722 3315 
Q 1072 3584 1716 3584 
Q 2034 3584 2315 3537 
Q 2597 3491 2834 3397 
z
" transform="scale(0.015625)"/>
       <path id="DejaVuSans-29" d="M 513 4856 
L 1013 4856 
Q 1481 4119 1714 3412 
Q 1947 2706 1947 2009 
Q 1947 1309 1714 600 
Q 1481 -109 1013 -844 
L 513 -844 
Q 928 -128 1133 580 
Q 1338 1288 1338 2009 
Q 1338 2731 1133 3434 
Q 928 4138 513 4856 
z
" transform="scale(0.015625)"/>
      </defs>
      <use xlink:href="#DejaVuSans-54"/>
      <use xlink:href="#DejaVuSans-69" x="57.958984"/>
      <use xlink:href="#DejaVuSans-6d" x="85.742188"/>
      <use xlink:href="#DejaVuSans-65" x="183.154297"/>
      <use xlink:href="#DejaVuSans-28" x="244.677734"/>
      <use xlink:href="#DejaVuSans-73" x="283.691406"/>
      <use xlink:href="#DejaVuSans-29" x="335.791016"/>
     </g>
    </g>
   </g>
   <g id="matplotlib.axis_2">
    <g id="ytick_1">
     <g id="line2d_13">
      <path d="M 57.6 257.843671 
L 414.72 257.843671 
" clip-path="url(#pd246b5cb52)" style="fill: none; stroke: #b0b0b0; stroke-width: 0.8; stroke-linecap: square"/>
     </g>
     <g id="line2d_14">
      <defs>
       <path id="m8b336196e9" d="M 0 0 
L -3.5 0 
" style="stroke: #000000; stroke-width: 0.8"/>
      </defs>
      <g>
       <use xlink:href="#m8b336196e9" x="57.6" y="257.843671" style="stroke: #000000; stroke-width: 0.8"/>
      </g>
     </g>
     <g id="text_8">
      <!-- 4 -->
      <g transform="translate(44.2375 261.64289) scale(0.1 -0.1)">
       <defs>
        <path id="DejaVuSans-34" d="M 2419 4116 
L 825 1625 
L 2419 1625 
L 2419 4116 
z
M 2253 4666 
L 3047 4666 
L 3047 1625 
L 3713 1625 
L 3713 1100 
L 3047 1100 
L 3047 0 
L 2419 0 
L 2419 1100 
L 313 1100 
L 313 1709 
L 2253 4666 
z
" transform="scale(0.015625)"/>
       </defs>
       <use xlink:href="#DejaVuSans-34"/>
      </g>
     </g>
    </g>
    <g id="ytick_2">
     <g id="line2d_15">
      <path d="M 57.6 206.774753 
L 414.72 206.774753 
" clip-path="url(#pd246b5cb52)" style="fill: none; stroke: #b0b0b0; stroke-width: 0.8; stroke-linecap: square"/>
     </g>
     <g id="line2d_16">
      <g>
       <use xlink:href="#m8b336196e9" x="57.6" y="206.774753" style="stroke: #000000; stroke-width: 0.8"/>
      </g>
     </g>
     <g id="text_9">
      <!-- 5 -->
      <g transform="translate(44.2375 210.573972) scale(0.1 -0.1)">
       <use xlink:href="#DejaVuSans-35"/>
      </g>
     </g>
    </g>
    <g id="ytick_3">
     <g id="line2d_17">
      <path d="M 57.6 155.705835 
L 414.72 155.705835 
" clip-path="url(#pd246b5cb52)" style="fill: none; stroke: #b0b0b0; stroke-width: 0.8; stroke-linecap: square"/>
     </g>
     <g id="line2d_18">
      <g>
       <use xlink:href="#m8b336196e9" x="57.6" y="155.705835" style="stroke: #000000; stroke-width: 0.8"/>
      </g>
     </g>
     <g id="text_10">
      <!-- 6 -->
      <g transform="translate(44.2375 159.505054) scale(0.1 -0.1)">
       <defs>
        <path id="DejaVuSans-36" d="M 2113 2584 
Q 1688 2584 1439 2293 
Q 1191 2003 1191 1497 
Q 1191 994 1439 701 
Q 1688 409 2113 409 
Q 2538 409 2786 701 
Q 3034 994 3034 1497 
Q 3034 2003 2786 2293 
Q 2538 2584 2113 2584 
z
M 3366 4563 
L 3366 3988 
Q 3128 4100 2886 4159 
Q 2644 4219 2406 4219 
Q 1781 4219 1451 3797 
Q 1122 3375 1075 2522 
Q 1259 2794 1537 2939 
Q 1816 3084 2150 3084 
Q 2853 3084 3261 2657 
Q 3669 2231 3669 1497 
Q 3669 778 3244 343 
Q 2819 -91 2113 -91 
Q 1303 -91 875 529 
Q 447 1150 447 2328 
Q 447 3434 972 4092 
Q 1497 4750 2381 4750 
Q 2619 4750 2861 4703 
Q 3103 4656 3366 4563 
z
" transform="scale(0.015625)"/>
       </defs>
       <use xlink:href="#DejaVuSans-36"/>
      </g>
     </g>
    </g>
    <g id="ytick_4">
     <g id="line2d_19">
      <path d="M 57.6 104.636918 
L 414.72 104.636918 
" clip-path="url(#pd246b5cb52)" style="fill: none; stroke: #b0b0b0; stroke-width: 0.8; stroke-linecap: square"/>
     </g>
     <g id="line2d_20">
      <g>
       <use xlink:href="#m8b336196e9" x="57.6" y="104.636918" style="stroke: #000000; stroke-width: 0.8"/>
      </g>
     </g>
     <g id="text_11">
      <!-- 7 -->
      <g transform="translate(44.2375 108.436136) scale(0.1 -0.1)">
       <defs>
        <path id="DejaVuSans-37" d="M 525 4666 
L 3525 4666 
L 3525 4397 
L 1831 0 
L 1172 0 
L 2766 4134 
L 525 4134 
L 525 4666 
z
" transform="scale(0.015625)"/>
       </defs>
       <use xlink:href="#DejaVuSans-37"/>
      </g>
     </g>
    </g>
    <g id="ytick_5">
     <g id="line2d_21">
      <path d="M 57.6 53.568 
L 414.72 53.568 
" clip-path="url(#pd246b5cb52)" style="fill: none; stroke: #b0b0b0; stroke-width: 0.8; stroke-linecap: square"/>
     </g>
     <g id="line2d_22">
      <g>
       <use xlink:href="#m8b336196e9" x="57.6" y="53.568" style="stroke: #000000; stroke-width: 0.8"/>
      </g>
     </g>
     <g id="text_12">
      <!-- 8 -->
      <g transform="translate(44.2375 57.367219) scale(0.1 -0.1)">
       <defs>
        <path id="DejaVuSans-38" d="M 2034 2216 
Q 1584 2216 1326 1975 
Q 1069 1734 1069 1313 
Q 1069 891 1326 650 
Q 1584 409 2034 409 
Q 2484 409 2743 651 
Q 3003 894 3003 1313 
Q 3003 1734 2745 1975 
Q 2488 2216 2034 2216 
z
M 1403 2484 
Q 997 2584 770 2862 
Q 544 3141 544 3541 
Q 544 4100 942 4425 
Q 1341 4750 2034 4750 
Q 2731 4750 3128 4425 
Q 3525 4100 3525 3541 
Q 3525 3141 3298 2862 
Q 3072 2584 2669 2484 
Q 3125 2378 3379 2068 
Q 3634 1759 3634 1313 
Q 3634 634 3220 271 
Q 2806 -91 2034 -91 
Q 1263 -91 848 271 
Q 434 634 434 1313 
Q 434 1759 690 2068 
Q 947 2378 1403 2484 
z
M 1172 3481 
Q 1172 3119 1398 2916 
Q 1625 2713 2034 2713 
Q 2441 2713 2670 2916 
Q 2900 3119 2900 3481 
Q 2900 3844 2670 4047 
Q 2441 4250 2034 4250 
Q 1625 4250 1398 4047 
Q 1172 3844 1172 3481 
z
" transform="scale(0.015625)"/>
       </defs>
       <use xlink:href="#DejaVuSans-38"/>
      </g>
     </g>
    </g>
    <g id="text_13">
     <!-- Velocity(m/s) -->
     <g transform="translate(38.157812 207.204563) rotate(-90) scale(0.1 -0.1)">
      <defs>
       <path id="DejaVuSans-56" d="M 1831 0 
L 50 4666 
L 709 4666 
L 2188 738 
L 3669 4666 
L 4325 4666 
L 2547 0 
L 1831 0 
z
" transform="scale(0.015625)"/>
       <path id="DejaVuSans-6c" d="M 603 4863 
L 1178 4863 
L 1178 0 
L 603 0 
L 603 4863 
z
" transform="scale(0.015625)"/>
       <path id="DejaVuSans-6f" d="M 1959 3097 
Q 1497 3097 1228 2736 
Q 959 2375 959 1747 
Q 959 1119 1226 758 
Q 1494 397 1959 397 
Q 2419 397 2687 759 
Q 2956 1122 2956 1747 
Q 2956 2369 2687 2733 
Q 2419 3097 1959 3097 
z
M 1959 3584 
Q 2709 3584 3137 3096 
Q 3566 2609 3566 1747 
Q 3566 888 3137 398 
Q 2709 -91 1959 -91 
Q 1206 -91 779 398 
Q 353 888 353 1747 
Q 353 2609 779 3096 
Q 1206 3584 1959 3584 
z
" transform="scale(0.015625)"/>
       <path id="DejaVuSans-63" d="M 3122 3366 
L 3122 2828 
Q 2878 2963 2633 3030 
Q 2388 3097 2138 3097 
Q 1578 3097 1268 2742 
Q 959 2388 959 1747 
Q 959 1106 1268 751 
Q 1578 397 2138 397 
Q 2388 397 2633 464 
Q 2878 531 3122 666 
L 3122 134 
Q 2881 22 2623 -34 
Q 2366 -91 2075 -91 
Q 1284 -91 818 406 
Q 353 903 353 1747 
Q 353 2603 823 3093 
Q 1294 3584 2113 3584 
Q 2378 3584 2631 3529 
Q 2884 3475 3122 3366 
z
" transform="scale(0.015625)"/>
       <path id="DejaVuSans-74" d="M 1172 4494 
L 1172 3500 
L 2356 3500 
L 2356 3053 
L 1172 3053 
L 1172 1153 
Q 1172 725 1289 603 
Q 1406 481 1766 481 
L 2356 481 
L 2356 0 
L 1766 0 
Q 1100 0 847 248 
Q 594 497 594 1153 
L 594 3053 
L 172 3053 
L 172 3500 
L 594 3500 
L 594 4494 
L 1172 4494 
z
" transform="scale(0.015625)"/>
       <path id="DejaVuSans-79" d="M 2059 -325 
Q 1816 -950 1584 -1140 
Q 1353 -1331 966 -1331 
L 506 -1331 
L 506 -850 
L 844 -850 
Q 1081 -850 1212 -737 
Q 1344 -625 1503 -206 
L 1606 56 
L 191 3500 
L 800 3500 
L 1894 763 
L 2988 3500 
L 3597 3500 
L 2059 -325 
z
" transform="scale(0.015625)"/>
       <path id="DejaVuSans-2f" d="M 1625 4666 
L 2156 4666 
L 531 -594 
L 0 -594 
L 1625 4666 
z
" transform="scale(0.015625)"/>
      </defs>
      <use xlink:href="#DejaVuSans-56"/>
      <use xlink:href="#DejaVuSans-65" x="60.658203"/>
      <use xlink:href="#DejaVuSans-6c" x="122.181641"/>
      <use xlink:href="#DejaVuSans-6f" x="149.964844"/>
      <use xlink:href="#DejaVuSans-63" x="211.146484"/>
      <use xlink:href="#DejaVuSans-69" x="266.126953"/>
      <use xlink:href="#DejaVuSans-74" x="293.910156"/>
      <use xlink:href="#DejaVuSans-79" x="333.119141"/>
      <use xlink:href="#DejaVuSans-28" x="392.298828"/>
      <use xlink:href="#DejaVuSans-6d" x="431.3125"/>
      <use xlink:href="#DejaVuSans-2f" x="528.724609"/>
      <use xlink:href="#DejaVuSans-73" x="562.416016"/>
      <use xlink:href="#DejaVuSans-29" x="614.515625"/>
     </g>
    </g>
   </g>
   <g id="line2d_23">
    <path d="M 73.832727 54.056321 
L 75.69188 53.791988 
L 75.69188 53.791988 
L 78.713003 53.631121 
L 78.713003 53.631121 
L 85.452432 53.571728 
L 85.452432 53.571728 
L 87.311585 53.569736 
L 87.311585 53.569736 
L 87.543979 53.828094 
L 87.543979 53.828094 
L 87.776373 54.667769 
L 87.776373 54.667769 
L 88.473555 60.535741 
L 88.473555 60.535741 
L 89.170737 67.508027 
L 89.170737 67.508027 
L 89.635525 72.516509 
L 89.635525 72.516509 
L 90.797496 84.777952 
L 90.797496 84.777952 
L 92.19186 99.373244 
L 92.19186 99.373244 
L 94.051013 116.503649 
L 94.051013 116.503649 
L 94.515801 120.040835 
L 94.515801 120.040835 
L 95.677772 126.706504 
L 95.677772 126.706504 
L 96.374954 129.311478 
L 96.374954 129.311478 
L 97.072136 130.984853 
L 97.072136 130.984853 
L 97.536925 131.662231 
L 97.536925 131.662231 
L 98.234107 132.190131 
L 98.234107 132.190131 
L 100.09326 132.407225 
L 100.09326 132.407225 
L 100.790442 132.182522 
L 100.790442 132.182522 
L 101.487624 131.559532 
L 101.487624 131.559532 
L 102.649595 129.197799 
L 102.649595 129.197799 
L 103.346777 126.647468 
L 103.346777 126.647468 
L 104.276353 121.154546 
L 104.276353 121.154546 
L 104.741141 117.799982 
L 104.741141 117.799982 
L 106.135506 103.212044 
L 106.135506 103.212044 
L 107.994659 78.210132 
L 107.994659 78.210132 
L 108.691841 71.964352 
L 108.691841 71.964352 
L 109.389023 67.301607 
L 109.389023 67.301607 
L 110.086206 63.820698 
L 110.086206 63.820698 
L 110.783388 61.222056 
L 110.783388 61.222056 
L 111.48057 59.28205 
L 111.48057 59.28205 
L 112.177752 57.833787 
L 112.177752 57.833787 
L 113.107329 56.456918 
L 113.107329 56.456918 
L 114.036905 55.52445 
L 114.036905 55.52445 
L 114.966481 54.892983 
L 114.966481 54.892983 
L 116.128452 54.381987 
L 116.128452 54.381987 
L 117.522816 54.021645 
L 117.522816 54.021645 
L 119.381969 53.776055 
L 119.381969 53.776055 
L 122.403092 53.626627 
L 122.403092 53.626627 
L 129.374915 53.571166 
L 129.374915 53.571166 
L 131.466462 53.633726 
L 131.466462 53.633726 
L 131.698856 54.926433 
L 131.698856 54.926433 
L 132.628432 72.400532 
L 132.628432 72.400532 
L 134.719979 118.812832 
L 134.719979 118.812832 
L 135.184767 125.945679 
L 135.184767 125.945679 
L 135.649556 134.142138 
L 135.649556 134.142138 
L 137.276314 157.030104 
L 137.276314 157.030104 
L 139.367861 175.960738 
L 139.367861 175.960738 
L 140.99462 185.630178 
L 140.99462 185.630178 
L 141.924196 189.871248 
L 141.924196 189.871248 
L 142.388984 191.880708 
L 142.388984 191.880708 
L 142.853772 193.804882 
L 142.853772 193.804882 
L 143.318561 195.451395 
L 143.318561 195.451395 
L 144.015743 197.533577 
L 144.015743 197.533577 
L 144.480531 198.782774 
L 144.480531 198.782774 
L 145.410107 200.748723 
L 145.410107 200.748723 
L 146.572078 201.885109 
L 146.572078 201.885109 
L 147.036866 202.174414 
L 147.036866 202.174414 
L 147.26926 202.302444 
L 147.501654 202.278646 
L 147.501654 202.278646 
L 147.966442 202.371897 
L 147.966442 202.371897 
L 148.663625 202.457336 
L 148.663625 202.457336 
L 150.057989 202.299022 
L 150.057989 202.299022 
L 151.21996 201.473748 
L 151.21996 201.473748 
L 151.684748 200.863066 
L 151.684748 200.863066 
L 151.917142 200.552108 
L 151.917142 200.552108 
L 152.846718 198.151256 
L 152.846718 198.151256 
L 153.776295 194.002621 
L 153.776295 194.002621 
L 154.705871 187.457067 
L 154.705871 187.457067 
L 155.403053 180.566338 
L 155.403053 180.566338 
L 156.33263 167.5407 
L 156.33263 167.5407 
L 156.797418 163.090043 
L 156.797418 163.090043 
L 157.029812 161.604602 
L 157.029812 161.604602 
L 157.4946 160.175234 
L 157.4946 160.175234 
L 157.959388 159.717861 
L 157.959388 159.717861 
L 158.191782 159.776998 
L 158.191782 159.776998 
L 158.888965 162.802117 
L 158.888965 162.802117 
L 160.050935 166.529944 
L 160.050935 166.529944 
L 160.748117 167.518536 
L 160.748117 167.518536 
L 161.677694 168.121098 
L 161.677694 168.121098 
L 162.839664 168.145407 
L 162.839664 168.145407 
L 163.304452 168.077536 
L 163.304452 168.077536 
L 164.466423 167.324372 
L 164.466423 167.324372 
L 164.931211 166.83508 
L 164.931211 166.83508 
L 166.093181 163.919096 
L 166.093181 163.919096 
L 166.55797 162.315941 
L 166.55797 162.315941 
L 167.71994 156.078485 
L 167.71994 156.078485 
L 169.346699 142.100463 
L 169.346699 142.100463 
L 170.508669 128.500095 
L 170.508669 128.500095 
L 171.67064 113.483433 
L 171.67064 113.483433 
L 172.135428 110.936473 
L 172.135428 110.936473 
L 172.367822 111.401455 
L 172.367822 111.401455 
L 172.600216 112.610001 
L 172.600216 112.610001 
L 172.83261 115.595031 
L 172.83261 115.595031 
L 174.924157 164.074703 
L 174.924157 164.074703 
L 175.156551 171.655476 
L 175.156551 171.655476 
L 175.388945 175.412565 
L 175.388945 175.412565 
L 175.853733 184.845096 
L 175.853733 184.845096 
L 176.550916 197.793007 
L 176.550916 197.793007 
L 177.248098 208.509615 
L 177.248098 208.509615 
L 177.94528 219.582633 
L 177.94528 219.582633 
L 178.642462 228.712939 
L 178.642462 228.712939 
L 179.339645 238.203178 
L 179.339645 238.203178 
L 180.269221 246.094245 
L 180.269221 246.094245 
L 180.966403 252.77697 
L 180.966403 252.77697 
L 183.05795 264.403167 
L 183.05795 264.403167 
L 183.755132 266.926993 
L 183.755132 266.926993 
L 184.452315 268.431279 
L 184.452315 268.431279 
L 185.381891 269.6721 
L 185.381891 269.6721 
L 186.079073 269.977135 
L 186.079073 269.977135 
L 187.00865 270.16323 
L 187.00865 270.16323 
L 188.635408 270.07866 
L 188.635408 270.07866 
L 189.797379 269.434272 
L 189.797379 269.434272 
L 190.494561 268.283996 
L 190.494561 268.283996 
L 190.959349 267.457701 
L 190.959349 267.457701 
L 191.656532 265.221853 
L 191.656532 265.221853 
L 192.12132 263.619463 
L 192.12132 263.619463 
L 192.818502 259.852671 
L 192.818502 259.852671 
L 193.515684 255.430971 
L 193.515684 255.430971 
L 193.980472 251.388713 
L 193.980472 251.388713 
L 194.212867 249.35234 
L 194.212867 249.35234 
L 194.910049 241.404535 
L 194.910049 241.404535 
L 195.374837 237.693357 
L 195.374837 237.693357 
L 195.839625 236.671723 
L 195.839625 236.671723 
L 196.072019 239.658846 
L 196.072019 239.658846 
L 196.304413 240.213302 
L 196.304413 240.213302 
L 196.536807 242.243904 
L 196.536807 242.243904 
L 197.466384 255.772826 
L 197.466384 255.772826 
L 197.698778 260.869708 
L 197.698778 260.869708 
L 198.163566 265.385835 
L 198.163566 265.385835 
L 198.860748 274.62124 
L 198.860748 274.62124 
L 200.255113 285.037716 
L 200.255113 285.037716 
L 201.649477 291.459582 
L 201.649477 291.459582 
L 202.34666 293.30797 
L 202.34666 293.30797 
L 203.043842 294.364484 
L 203.043842 294.364484 
L 203.741024 295.058919 
L 203.741024 295.058919 
L 204.438207 295.235566 
L 204.438207 295.235566 
L 205.135389 295.332802 
L 205.135389 295.332802 
L 206.064965 295.18557 
L 206.064965 295.18557 
L 206.994542 294.731771 
L 206.994542 294.731771 
L 207.45933 294.325723 
L 207.45933 294.325723 
L 207.691724 294.070429 
L 209.086088 291.226197 
L 209.086088 291.226197 
L 210.712847 284.618798 
L 210.712847 284.618798 
L 211.177635 282.219529 
L 211.177635 282.219529 
L 212.339606 273.227059 
L 212.339606 273.227059 
L 213.501576 258.930673 
L 213.501576 258.930673 
L 214.198758 252.023397 
L 214.198758 252.023397 
L 214.663547 250.030177 
L 214.663547 250.030177 
L 214.895941 250.255391 
L 214.895941 250.255391 
L 215.128335 250.027062 
L 215.128335 250.027062 
L 215.360729 250.106321 
L 215.360729 250.106321 
L 217.452276 266.001879 
L 217.452276 266.001879 
L 218.84664 272.939643 
L 218.84664 272.939643 
L 219.543822 275.412911 
L 219.543822 275.412911 
L 220.473399 277.260278 
L 220.473399 277.260278 
L 220.938187 277.8896 
L 220.938187 277.8896 
L 221.402975 278.308722 
L 221.402975 278.308722 
L 222.332552 278.845865 
L 222.332552 278.845865 
L 223.029734 278.886159 
L 223.029734 278.886159 
L 223.494522 278.91394 
L 223.494522 278.91394 
L 224.656492 278.732186 
L 224.656492 278.732186 
L 225.353675 278.490834 
L 225.353675 278.490834 
L 225.586069 278.387522 
L 225.586069 278.387522 
L 227.445222 276.21551 
L 227.445222 276.21551 
L 229.07198 271.746673 
L 229.07198 271.746673 
L 229.769162 269.134345 
L 229.769162 269.134345 
L 232.093103 256.604637 
L 232.093103 256.604637 
L 234.881832 234.612982 
L 234.881832 234.612982 
L 236.276197 219.602295 
L 236.276197 219.602295 
L 239.064926 180.261456 
L 239.064926 180.261456 
L 243.480414 106.010569 
L 243.480414 106.010569 
L 244.40999 90.383787 
L 244.40999 90.383787 
L 245.107173 81.052474 
L 245.107173 81.052474 
L 245.804355 74.086265 
L 245.804355 74.086265 
L 246.501537 68.885713 
L 246.501537 68.885713 
L 247.198719 65.003301 
L 247.198719 65.003301 
L 247.895902 62.104885 
L 247.895902 62.104885 
L 248.593084 59.941146 
L 248.593084 59.941146 
L 249.290266 58.325785 
L 249.290266 58.325785 
L 250.219843 56.790142 
L 250.219843 56.790142 
L 251.149419 55.750124 
L 251.149419 55.750124 
L 252.078995 55.045781 
L 252.078995 55.045781 
L 253.240966 54.475903 
L 253.240966 54.475903 
L 254.63533 54.073991 
L 254.63533 54.073991 
L 256.494483 53.800057 
L 256.494483 53.800057 
L 259.283212 53.640058 
L 259.283212 53.640058 
L 265.325458 53.57372 
L 265.325458 53.57372 
L 282.987409 53.568 
L 282.987409 53.568 
L 283.219803 54.518393 
L 283.219803 54.518393 
L 283.452198 57.02511 
L 283.452198 57.02511 
L 284.846562 83.728128 
L 284.846562 83.728128 
L 286.008533 97.713964 
L 286.008533 97.713964 
L 286.705715 102.700844 
L 286.705715 102.700844 
L 287.170503 104.649736 
L 287.170503 104.649736 
L 287.867685 105.906031 
L 287.867685 105.906031 
L 288.564868 106.385466 
L 288.564868 106.385466 
L 288.797262 106.367745 
L 288.797262 106.367745 
L 289.494444 106.015012 
L 289.494444 106.015012 
L 290.191626 104.85774 
L 290.191626 104.85774 
L 291.121203 101.47136 
L 291.121203 101.47136 
L 291.585991 99.061775 
L 291.585991 99.061775 
L 292.283173 93.537548 
L 292.283173 93.537548 
L 292.980355 86.796502 
L 292.980355 86.796502 
L 294.607114 70.741609 
L 294.607114 70.741609 
L 295.304296 66.388801 
L 295.304296 66.388801 
L 296.001478 63.139234 
L 296.001478 63.139234 
L 296.466267 61.472039 
L 296.466267 61.472039 
L 296.931055 60.725002 
L 296.931055 60.725002 
L 297.163449 60.689101 
L 297.163449 60.689101 
L 297.395843 61.978642 
L 297.395843 61.978642 
L 298.325419 71.109458 
L 298.325419 71.109458 
L 299.952178 90.015069 
L 299.952178 90.015069 
L 300.416966 95.533066 
L 300.416966 95.533066 
L 300.881754 101.232817 
L 300.881754 101.232817 
L 301.811331 111.973223 
L 301.811331 111.973223 
L 302.276119 118.120133 
L 302.276119 118.120133 
L 303.205695 129.700215 
L 303.205695 129.700215 
L 303.670484 135.863569 
L 303.670484 135.863569 
L 305.994424 161.943495 
L 305.994424 161.943495 
L 307.853577 174.270868 
L 307.853577 174.270868 
L 308.550759 177.395315 
L 308.550759 177.395315 
L 309.480336 180.173669 
L 309.480336 180.173669 
L 310.177518 181.612485 
L 310.177518 181.612485 
L 310.642306 182.051575 
L 310.642306 182.051575 
L 310.8747 182.070777 
L 310.8747 182.070777 
L 311.107094 182.278066 
L 311.107094 182.278066 
L 311.804277 182.251459 
L 311.804277 182.251459 
L 312.269065 182.342362 
L 312.269065 182.342362 
L 312.966247 182.271886 
L 312.966247 182.271886 
L 313.198641 182.220256 
L 313.198641 182.220256 
L 314.593006 181.045007 
L 314.593006 181.045007 
L 315.290188 179.721198 
L 315.290188 179.721198 
L 315.754976 178.478079 
L 315.754976 178.478079 
L 317.149341 171.963166 
L 317.149341 171.963166 
L 317.614129 168.720953 
L 317.614129 168.720953 
L 318.311311 163.409531 
L 318.311311 163.409531 
L 319.240888 154.370639 
L 319.240888 154.370639 
L 320.170464 143.72425 
L 320.170464 143.72425 
L 321.797223 118.707222 
L 321.797223 118.707222 
L 322.726799 102.447593 
L 322.726799 102.447593 
L 323.656375 86.939955 
L 323.656375 86.939955 
L 324.353558 78.481512 
L 324.353558 78.481512 
L 325.05074 72.166942 
L 325.05074 72.166942 
L 325.747922 67.452822 
L 325.747922 67.452822 
L 326.445104 63.933611 
L 326.445104 63.933611 
L 327.142287 61.30632 
L 327.142287 61.30632 
L 327.839469 59.344967 
L 327.839469 59.344967 
L 328.536651 57.880719 
L 328.536651 57.880719 
L 329.466228 56.488734 
L 329.466228 56.488734 
L 330.395804 55.546001 
L 330.395804 55.546001 
L 331.092986 55.044658 
L 331.092986 55.044658 
L 331.32538 54.984499 
L 331.32538 54.984499 
L 332.022563 58.534503 
L 332.022563 58.534503 
L 332.254957 60.84721 
L 332.254957 60.84721 
L 333.184533 76.285804 
L 333.184533 76.285804 
L 335.508474 125.719239 
L 335.508474 125.719239 
L 336.43805 137.787744 
L 336.43805 137.787744 
L 337.135233 143.584475 
L 337.135233 143.584475 
L 337.832415 147.622085 
L 337.832415 147.622085 
L 338.529597 149.994339 
L 338.529597 149.994339 
L 339.226779 151.215294 
L 339.226779 151.215294 
L 339.691568 151.533147 
L 339.691568 151.533147 
L 340.38875 151.883072 
L 340.38875 151.883072 
L 341.783114 151.841348 
L 341.783114 151.841348 
L 342.712691 151.312785 
L 342.712691 151.312785 
L 342.945085 151.164532 
L 342.945085 151.164532 
L 343.642267 150.287934 
L 343.642267 150.287934 
L 344.804238 147.725245 
L 344.804238 147.725245 
L 345.50142 145.563957 
L 345.50142 145.563957 
L 345.966208 144.632409 
L 345.966208 144.632409 
L 346.430996 144.66545 
L 346.430996 144.66545 
L 346.66339 145.658996 
L 346.66339 145.658996 
L 346.895784 148.263817 
L 346.895784 148.263817 
L 347.128179 149.574501 
L 347.128179 149.574501 
L 347.825361 157.170492 
L 347.825361 157.170492 
L 348.057755 162.880354 
L 348.057755 162.880354 
L 348.290149 165.791793 
L 348.290149 165.791793 
L 350.61409 219.236999 
L 350.61409 219.236999 
L 350.846484 222.064072 
L 350.846484 222.064072 
L 351.078878 227.779603 
L 351.078878 227.779603 
L 351.543666 232.896811 
L 351.543666 232.896811 
L 352.705637 249.091531 
L 352.705637 249.091531 
L 353.170425 253.184756 
L 353.170425 253.184756 
L 354.100001 262.169055 
L 354.100001 262.169055 
L 356.191548 276.823945 
L 356.191548 276.823945 
L 357.353519 281.150657 
L 357.353519 281.150657 
L 358.283095 282.981937 
L 358.283095 282.981937 
L 358.980277 283.573826 
L 358.980277 283.573826 
L 359.445065 283.791379 
L 359.445065 283.791379 
L 361.769006 283.671572 
L 361.769006 283.671572 
L 362.930977 282.77378 
L 362.930977 282.77378 
L 364.092947 280.517862 
L 364.092947 280.517862 
L 365.022524 277.229279 
L 365.022524 277.229279 
L 365.719706 274.207684 
L 365.719706 274.207684 
L 366.881676 267.660955 
L 366.881676 267.660955 
L 367.578859 263.323621 
L 367.578859 263.323621 
L 370.367588 239.757665 
L 370.367588 239.757665 
L 371.297164 229.963974 
L 371.297164 229.963974 
L 373.853499 204.706768 
L 373.853499 204.706768 
L 374.550681 201.901604 
L 374.550681 201.901604 
L 375.01547 200.760162 
L 375.01547 200.760162 
L 375.480258 200.028498 
L 375.480258 200.028498 
L 376.17744 199.364909 
L 376.17744 199.364909 
L 376.874622 198.919485 
L 376.874622 198.919485 
L 378.036593 198.482642 
L 378.036593 198.482642 
L 378.733775 198.215398 
L 378.733775 198.215398 
L 380.12814 195.974852 
L 380.12814 195.974852 
L 381.057716 192.775435 
L 381.057716 192.775435 
L 382.219686 186.067124 
L 382.219686 186.067124 
L 382.916869 180.712854 
L 382.916869 180.712854 
L 383.381657 175.678634 
L 383.381657 175.678634 
L 384.078839 167.569605 
L 384.078839 167.569605 
L 385.24081 150.126097 
L 385.24081 150.126097 
L 386.867568 118.881724 
L 386.867568 118.881724 
L 388.261933 91.473036 
L 388.261933 91.473036 
L 388.959115 81.865594 
L 388.959115 81.865594 
L 389.656297 74.693322 
L 389.656297 74.693322 
L 390.35348 69.338899 
L 390.35348 69.338899 
L 391.050662 65.341581 
L 391.050662 65.341581 
L 391.747844 62.357471 
L 391.747844 62.357471 
L 392.445026 60.129692 
L 392.445026 60.129692 
L 393.142209 58.466582 
L 393.142209 58.466582 
L 394.071785 56.885437 
L 394.071785 56.885437 
L 395.001361 55.814675 
L 395.001361 55.814675 
L 395.930938 55.089547 
L 395.930938 55.089547 
L 397.092908 54.50726 
L 397.092908 54.50726 
L 398.487273 54.11168 
L 398.487273 54.11168 
" clip-path="url(#pd246b5cb52)" style="fill: none; stroke: #1f77b4; stroke-width: 1.5; stroke-linecap: square"/>
   </g>
   <g id="line2d_24">
    <path d="M 73.832727 53.568 
L 87.07919 53.568 
L 87.07919 53.568 
L 87.311585 54.320347 
L 87.311585 54.320347 
L 87.543979 56.26735 
L 87.543979 56.26735 
L 88.008767 63.230648 
L 88.008767 63.230648 
L 88.241161 63.893829 
L 88.241161 63.893829 
L 88.938343 72.740191 
L 88.938343 72.740191 
L 89.170737 76.308427 
L 89.170737 76.308427 
L 89.403131 76.287029 
L 89.403131 76.287029 
L 90.100314 86.271156 
L 90.100314 86.271156 
L 90.332708 86.44714 
L 90.332708 86.44714 
L 90.797496 92.411989 
L 90.797496 92.411989 
L 91.02989 96.265394 
L 91.02989 96.265394 
L 91.262284 96.138999 
L 91.727072 102.482422 
L 91.727072 102.482422 
L 91.959466 103.193046 
L 91.959466 103.193046 
L 92.656649 112.519048 
L 92.656649 112.519048 
L 92.889043 112.364513 
L 92.889043 112.364513 
L 93.121437 114.290986 
L 93.121437 114.290986 
L 93.353831 117.80514 
L 93.353831 117.80514 
L 93.586225 118.073405 
L 93.586225 118.073405 
L 93.818619 119.66124 
L 94.051013 122.451544 
L 94.051013 122.451544 
L 94.283407 122.878939 
L 94.283407 122.878939 
L 94.515801 124.128698 
L 94.515801 124.128698 
L 94.748195 126.262357 
L 94.748195 126.262357 
L 94.98059 126.670449 
L 94.98059 126.670449 
L 95.212984 127.563798 
L 95.212984 127.563798 
L 95.445378 129.110216 
L 95.445378 129.110216 
L 95.677772 129.407488 
L 95.677772 129.407488 
L 95.910166 129.974097 
L 95.910166 129.974097 
L 96.14256 130.96989 
L 96.14256 130.96989 
L 96.607348 131.476136 
L 96.607348 131.476136 
L 96.839742 131.954856 
L 97.30453 132.212244 
L 97.30453 132.212244 
L 98.001713 132.399769 
L 98.001713 132.399769 
L 98.234107 132.298754 
L 98.234107 132.298754 
L 98.466501 132.498434 
L 98.466501 132.498434 
L 98.698895 132.387563 
L 98.698895 132.387563 
L 98.931289 132.588571 
L 98.931289 132.588571 
L 99.396077 132.253099 
L 99.396077 132.253099 
L 99.628471 132.444046 
L 99.628471 132.444046 
L 99.860865 132.188292 
L 99.860865 132.188292 
L 100.09326 131.580725 
L 100.09326 131.580725 
L 100.325654 131.803488 
L 100.325654 131.803488 
L 100.558048 131.214561 
L 100.558048 131.214561 
L 100.790442 129.895196 
L 100.790442 129.895196 
L 101.022836 130.284698 
L 101.25523 129.075999 
L 101.25523 129.075999 
L 101.487624 126.810991 
L 101.487624 126.810991 
L 101.720018 127.572326 
L 101.720018 127.572326 
L 101.952412 125.434581 
L 101.952412 125.434581 
L 102.184806 124.963164 
L 102.184806 124.963164 
L 102.4172 123.337538 
L 102.4172 123.337538 
L 102.649595 120.090066 
L 102.649595 120.090066 
L 102.881989 119.910099 
L 102.881989 119.910099 
L 103.114383 117.647797 
L 103.114383 117.647797 
L 103.346777 112.9396 
L 103.346777 112.9396 
L 103.579171 112.989239 
L 103.579171 112.989239 
L 103.811565 110.135151 
L 103.811565 110.135151 
L 104.043959 103.934107 
L 104.043959 103.934107 
L 104.276353 104.186439 
L 104.276353 104.186439 
L 104.508747 100.414182 
L 104.508747 100.414182 
L 104.741141 93.46978 
L 104.741141 93.46978 
L 104.973535 93.696526 
L 104.973535 93.696526 
L 105.20593 89.438297 
L 105.20593 89.438297 
L 105.438324 81.544779 
L 105.438324 81.544779 
L 105.670718 80.857851 
L 105.670718 80.857851 
L 105.903112 76.461225 
L 105.903112 76.461225 
L 106.135506 68.498968 
L 106.135506 68.498968 
L 106.3679 66.368475 
L 106.3679 66.368475 
L 106.600294 61.640566 
L 106.600294 61.640566 
L 106.832688 54.357832 
L 106.832688 54.357832 
L 107.065082 53.568 
L 107.065082 53.568 
L 131.001674 53.568 
L 131.001674 53.568 
L 131.234068 53.756189 
L 131.466462 57.38913 
L 131.466462 57.38913 
L 131.93125 76.194646 
L 131.93125 76.194646 
L 132.163644 74.513457 
L 132.163644 74.513457 
L 132.628432 88.119391 
L 132.628432 88.119391 
L 132.860826 96.925154 
L 132.860826 96.925154 
L 133.093221 96.211312 
L 133.093221 96.211312 
L 133.558009 109.503734 
L 133.558009 109.503734 
L 133.790403 117.704637 
L 133.790403 117.704637 
L 134.022797 115.948019 
L 134.022797 115.948019 
L 134.255191 121.360099 
L 134.255191 121.360099 
L 134.487585 129.476635 
L 134.487585 129.476635 
L 134.719979 128.666835 
L 134.719979 128.666835 
L 134.952373 133.072244 
L 134.952373 133.072244 
L 135.184767 140.939462 
L 135.184767 140.939462 
L 135.417161 139.924621 
L 135.417161 139.924621 
L 135.649556 144.234378 
L 135.649556 144.234378 
L 135.88195 151.476052 
L 135.88195 151.476052 
L 136.114344 149.752885 
L 136.346738 154.534263 
L 136.346738 154.534263 
L 136.579132 155.731727 
L 136.579132 155.731727 
L 136.811526 158.633565 
L 136.811526 158.633565 
L 137.04392 163.745615 
L 137.04392 163.745615 
L 137.276314 163.371791 
L 137.276314 163.371791 
L 137.508708 167.070763 
L 137.508708 167.070763 
L 137.741102 167.933624 
L 137.741102 167.933624 
L 137.973496 170.107577 
L 137.973496 170.107577 
L 138.205891 174.195439 
L 138.205891 174.195439 
L 138.438285 173.659931 
L 138.438285 173.659931 
L 138.670679 176.638525 
L 138.670679 176.638525 
L 138.903073 177.114232 
L 138.903073 177.114232 
L 139.135467 179.364022 
L 139.135467 179.364022 
L 139.367861 180.121987 
L 139.367861 180.121987 
L 139.600255 181.368682 
L 139.832649 184.399877 
L 139.832649 184.399877 
L 140.065043 184.038003 
L 140.297437 186.254445 
L 140.297437 186.254445 
L 140.529831 186.349739 
L 140.529831 186.349739 
L 140.762226 187.986294 
L 140.762226 187.986294 
L 140.99462 188.417418 
L 140.99462 188.417418 
L 141.227014 189.936667 
L 141.227014 189.936667 
L 141.459408 190.632685 
L 141.459408 190.632685 
L 141.924196 193.546831 
L 141.924196 193.546831 
L 142.15659 193.298585 
L 142.15659 193.298585 
L 142.388984 195.272756 
L 142.388984 195.272756 
L 142.621378 195.246149 
L 142.621378 195.246149 
L 142.853772 196.607851 
L 142.853772 196.607851 
L 143.086166 196.750078 
L 143.086166 196.750078 
L 143.318561 197.692504 
L 143.318561 197.692504 
L 143.550955 197.877731 
L 143.550955 197.877731 
L 143.783349 198.945377 
L 143.783349 198.945377 
L 144.015743 198.984854 
L 144.015743 198.984854 
L 144.248137 200.210916 
L 144.248137 200.210916 
L 144.480531 200.279655 
L 144.480531 200.279655 
L 144.712925 201.002842 
L 144.712925 201.002842 
L 144.945319 201.067189 
L 144.945319 201.067189 
L 145.177713 201.619142 
L 145.177713 201.619142 
L 145.410107 201.505309 
L 145.410107 201.505309 
L 145.642501 202.057364 
L 145.642501 202.057364 
L 145.874896 201.966615 
L 145.874896 201.966615 
L 146.10729 202.33952 
L 146.10729 202.33952 
L 146.339684 201.974122 
L 146.339684 201.974122 
L 146.572078 202.487109 
L 146.572078 202.487109 
L 146.804472 202.330787 
L 147.036866 202.546349 
L 147.036866 202.546349 
L 147.26926 202.045822 
L 147.26926 202.045822 
L 147.501654 202.555694 
L 147.501654 202.555694 
L 147.734048 202.351572 
L 147.734048 202.351572 
L 147.966442 202.562385 
L 147.966442 202.562385 
L 148.198836 202.043167 
L 148.198836 202.043167 
L 148.431231 202.564887 
L 148.431231 202.564887 
L 148.663625 202.256175 
L 148.663625 202.256175 
L 148.896019 202.510907 
L 148.896019 202.510907 
L 149.128413 201.7605 
L 149.128413 201.7605 
L 149.360807 202.346006 
L 149.360807 202.346006 
L 149.593201 201.688493 
L 149.593201 201.688493 
L 149.825595 202.015998 
L 149.825595 202.015998 
L 150.057989 200.788148 
L 150.057989 200.788148 
L 150.290383 201.161717 
L 150.290383 201.161717 
L 150.522777 200.179356 
L 150.522777 200.179356 
L 150.755171 200.578561 
L 150.755171 200.578561 
L 150.987566 198.587027 
L 150.987566 198.587027 
L 151.21996 199.011358 
L 151.21996 199.011358 
L 151.452354 197.129979 
L 151.452354 197.129979 
L 151.684748 197.513507 
L 151.684748 197.513507 
L 151.917142 194.441252 
L 151.917142 194.441252 
L 152.149536 194.74741 
L 152.38193 191.80727 
L 152.38193 191.80727 
L 152.614324 191.963746 
L 152.614324 191.963746 
L 152.846718 187.726813 
L 152.846718 187.726813 
L 153.079112 187.62539 
L 153.079112 187.62539 
L 153.311506 183.621331 
L 153.311506 183.621331 
L 153.543901 183.09047 
L 153.543901 183.09047 
L 153.776295 177.868265 
L 153.776295 177.868265 
L 154.008689 176.644449 
L 154.008689 176.644449 
L 154.241083 172.023274 
L 154.241083 172.023274 
L 154.473477 169.766692 
L 155.170659 156.139819 
L 155.170659 156.139819 
L 155.403053 141.697223 
L 155.403053 141.697223 
L 155.635447 144.585732 
L 155.635447 144.585732 
L 155.867841 137.655731 
L 155.867841 137.655731 
L 156.100236 137.81716 
L 156.100236 137.81716 
L 156.33263 141.522158 
L 156.33263 141.522158 
L 156.565024 143.204369 
L 156.565024 143.204369 
L 156.797418 147.089845 
L 156.797418 147.089845 
L 157.029812 153.797441 
L 157.029812 153.797441 
L 157.262206 153.290684 
L 157.262206 153.290684 
L 157.4946 157.282946 
L 157.4946 157.282946 
L 157.726994 157.872587 
L 157.726994 157.872587 
L 157.959388 159.889605 
L 157.959388 159.889605 
L 158.191782 163.242535 
L 158.191782 163.242535 
L 158.424176 163.164093 
L 158.424176 163.164093 
L 158.656571 164.85376 
L 158.656571 164.85376 
L 158.888965 165.091536 
L 158.888965 165.091536 
L 159.353753 167.007642 
L 159.353753 167.007642 
L 159.586147 166.978584 
L 159.586147 166.978584 
L 159.818541 167.795074 
L 159.818541 167.795074 
L 160.050935 167.699677 
L 160.050935 167.699677 
L 160.283329 168.052972 
L 160.515723 167.900123 
L 160.748117 168.047354 
L 160.748117 168.047354 
L 160.980511 167.967993 
L 160.980511 167.967993 
L 161.212906 168.446407 
L 161.212906 168.446407 
L 161.677694 168.18953 
L 161.677694 168.18953 
L 161.910088 168.374706 
L 161.910088 168.374706 
L 162.142482 167.881738 
L 162.142482 167.881738 
L 162.374876 168.073246 
L 162.374876 168.073246 
L 162.60727 167.79727 
L 162.60727 167.79727 
L 162.839664 167.943991 
L 162.839664 167.943991 
L 163.072058 167.597131 
L 163.072058 167.597131 
L 163.304452 166.653275 
L 163.304452 166.653275 
L 163.536846 167.34628 
L 163.536846 167.34628 
L 163.769241 165.920947 
L 163.769241 165.920947 
L 164.001635 166.204379 
L 164.001635 166.204379 
L 164.234029 164.949361 
L 164.234029 164.949361 
L 164.466423 164.836243 
L 164.466423 164.836243 
L 164.698817 164.31105 
L 164.698817 164.31105 
L 164.931211 160.806803 
L 164.931211 160.806803 
L 165.163605 161.967446 
L 165.163605 161.967446 
L 165.395999 158.819814 
L 165.395999 158.819814 
L 165.628393 158.974706 
L 165.628393 158.974706 
L 166.093181 155.744903 
L 166.093181 155.744903 
L 166.325576 154.06637 
L 166.325576 154.06637 
L 166.55797 148.985064 
L 166.790364 149.974779 
L 166.790364 149.974779 
L 167.022758 145.779366 
L 167.022758 145.779366 
L 167.255152 145.035904 
L 167.255152 145.035904 
L 167.487546 142.655888 
L 167.487546 142.655888 
L 167.71994 135.781501 
L 167.71994 135.781501 
L 167.952334 136.778367 
L 167.952334 136.778367 
L 168.184728 131.69466 
L 168.184728 131.69466 
L 168.417122 130.849623 
L 168.417122 130.849623 
L 168.649516 127.390317 
L 168.649516 127.390317 
L 168.881911 119.788248 
L 168.881911 119.788248 
L 169.114305 120.563015 
L 169.114305 120.563015 
L 169.346699 115.137555 
L 169.346699 115.137555 
L 169.579093 112.863865 
L 169.579093 112.863865 
L 169.811487 108.781926 
L 169.811487 108.781926 
L 170.043881 101.28363 
L 170.043881 101.28363 
L 170.276275 100.139329 
L 170.276275 100.139329 
L 170.508669 95.033714 
L 170.508669 95.033714 
L 170.741063 86.232344 
L 170.741063 86.232344 
L 170.973457 85.485308 
L 170.973457 85.485308 
L 171.205851 86.451123 
L 171.205851 86.451123 
L 171.438246 94.51373 
L 171.438246 94.51373 
L 171.67064 95.771405 
L 171.67064 95.771405 
L 171.903034 102.116718 
L 171.903034 102.116718 
L 172.135428 112.287399 
L 172.135428 112.287399 
L 172.367822 114.912393 
L 172.367822 114.912393 
L 172.83261 130.664192 
L 172.83261 130.664192 
L 173.065004 142.740765 
L 173.065004 142.740765 
L 173.297398 139.495284 
L 173.297398 139.495284 
L 173.529792 148.985983 
L 173.529792 148.985983 
L 173.762187 151.306555 
L 173.762187 151.306555 
L 173.994581 156.822151 
L 173.994581 156.822151 
L 174.226975 167.545602 
L 174.226975 167.545602 
L 174.459369 167.468335 
L 174.459369 167.468335 
L 174.691763 173.962054 
L 174.691763 173.962054 
L 174.924157 186.097561 
L 174.924157 186.097561 
L 175.156551 182.570027 
L 175.156551 182.570027 
L 175.388945 192.848566 
L 175.388945 192.848566 
L 175.621339 191.380845 
L 175.621339 191.380845 
L 175.853733 199.636646 
L 175.853733 199.636646 
L 176.086127 199.742001 
L 176.086127 199.742001 
L 176.318522 206.329892 
L 176.318522 206.329892 
L 176.550916 207.355866 
L 176.550916 207.355866 
L 176.78331 213.397932 
L 176.78331 213.397932 
L 177.015704 214.579871 
L 177.015704 214.579871 
L 177.248098 220.455503 
L 177.248098 220.455503 
L 177.480492 221.485002 
L 177.480492 221.485002 
L 177.712886 227.031495 
L 177.712886 227.031495 
L 177.94528 227.639164 
L 177.94528 227.639164 
L 178.177674 233.395141 
L 178.177674 233.395141 
L 178.410068 233.584454 
L 178.410068 233.584454 
L 178.642462 239.451404 
L 178.642462 239.451404 
L 178.874857 238.694869 
L 178.874857 238.694869 
L 179.107251 245.118931 
L 179.107251 245.118931 
L 179.339645 243.359198 
L 179.339645 243.359198 
L 180.269221 253.243485 
L 180.269221 253.243485 
L 180.501615 253.457208 
L 180.501615 253.457208 
L 180.734009 257.605128 
L 180.734009 257.605128 
L 180.966403 256.671946 
L 180.966403 256.671946 
L 181.89598 263.330056 
L 181.89598 263.330056 
L 182.128374 263.156013 
L 182.128374 263.156013 
L 182.360768 265.87768 
L 182.360768 265.87768 
L 182.593162 265.130593 
L 182.593162 265.130593 
L 182.825556 265.948104 
L 182.825556 265.948104 
L 183.05795 267.216758 
L 183.05795 267.216758 
L 183.290344 267.276968 
L 183.290344 267.276968 
L 183.522738 268.640559 
L 183.522738 268.640559 
L 183.755132 268.576876 
L 183.755132 268.576876 
L 183.987527 268.834366 
L 183.987527 268.834366 
L 184.219921 269.336782 
L 184.219921 269.336782 
L 184.452315 269.43892 
L 184.452315 269.43892 
L 184.917103 270.076566 
L 184.917103 270.076566 
L 185.381891 270.058181 
L 185.381891 270.058181 
L 185.614285 270.168694 
L 185.614285 270.168694 
L 185.846679 270.066506 
L 185.846679 270.066506 
L 186.311467 270.280433 
L 186.311467 270.280433 
L 186.543862 270.126205 
L 186.543862 270.126205 
L 186.776256 270.234624 
L 186.776256 270.234624 
L 187.00865 270.060224 
L 187.00865 270.060224 
L 187.241044 270.16895 
L 187.241044 270.16895 
L 187.473438 269.85508 
L 187.473438 269.85508 
L 187.705832 270.28651 
L 187.705832 270.28651 
L 187.938226 270.059611 
L 187.938226 270.059611 
L 188.17062 269.621593 
L 188.17062 269.621593 
L 188.403014 269.658873 
L 188.403014 269.658873 
L 188.635408 268.765321 
L 188.635408 268.765321 
L 188.867802 269.269218 
L 188.867802 269.269218 
L 189.100197 268.78774 
L 189.100197 268.78774 
L 189.332591 267.926871 
L 189.332591 267.926871 
L 189.564985 267.646094 
L 189.564985 267.646094 
L 189.797379 265.904593 
L 189.797379 265.904593 
L 190.029773 266.103813 
L 190.029773 266.103813 
L 190.262167 262.970122 
L 190.262167 262.970122 
L 190.494561 264.094047 
L 190.494561 264.094047 
L 190.726955 263.184663 
L 190.726955 263.184663 
L 190.959349 260.414327 
L 190.959349 260.414327 
L 191.191743 260.388384 
L 191.191743 260.388384 
L 191.424137 255.583769 
L 191.424137 255.583769 
L 191.656532 257.009511 
L 191.656532 257.009511 
L 191.888926 255.412126 
L 191.888926 255.412126 
L 192.12132 251.52236 
L 192.12132 251.52236 
L 192.353714 251.010803 
L 192.353714 251.010803 
L 192.586108 244.43905 
L 192.586108 244.43905 
L 192.818502 245.849574 
L 192.818502 245.849574 
L 193.050896 243.371455 
L 193.050896 243.371455 
L 193.28329 238.700283 
L 193.28329 238.700283 
L 193.515684 236.898827 
L 193.515684 236.898827 
L 193.748078 228.702163 
L 193.748078 228.702163 
L 193.980472 229.453898 
L 193.980472 229.453898 
L 194.212867 216.85254 
L 194.212867 216.85254 
L 194.445261 220.621324 
L 194.445261 220.621324 
L 194.677655 216.553225 
L 194.677655 216.553225 
L 194.910049 219.938175 
L 194.910049 219.938175 
L 195.142443 220.903429 
L 195.142443 220.903429 
L 195.374837 232.480906 
L 195.374837 232.480906 
L 195.607231 231.417293 
L 195.607231 231.417293 
L 195.839625 245.349558 
L 196.072019 241.26956 
L 196.072019 241.26956 
L 197.001596 261.788949 
L 197.001596 261.788949 
L 197.23399 260.911125 
L 197.23399 260.911125 
L 197.466384 270.579748 
L 197.466384 270.579748 
L 197.698778 267.30715 
L 197.698778 267.30715 
L 197.931172 269.767906 
L 197.931172 269.767906 
L 198.163566 275.212312 
L 198.163566 275.212312 
L 198.39596 274.626398 
L 198.39596 274.626398 
L 198.628354 281.929866 
L 198.628354 281.929866 
L 198.860748 280.017846 
L 198.860748 280.017846 
L 199.093142 280.790978 
L 199.093142 280.790978 
L 199.325537 285.329371 
L 199.325537 285.329371 
L 199.557931 284.39292 
L 199.557931 284.39292 
L 199.790325 285.633384 
L 199.790325 285.633384 
L 200.022719 288.642978 
L 200.022719 288.642978 
L 200.255113 288.396213 
L 200.255113 288.396213 
L 200.487507 289.286906 
L 200.487507 289.286906 
L 200.719901 290.850432 
L 200.719901 290.850432 
L 200.952295 291.097452 
L 200.952295 291.097452 
L 201.184689 293.135664 
L 201.184689 293.135664 
L 201.417083 292.945074 
L 201.417083 292.945074 
L 201.649477 293.36292 
L 201.649477 293.36292 
L 201.881872 294.219448 
L 201.881872 294.219448 
L 202.114266 294.200859 
L 202.114266 294.200859 
L 202.34666 294.415655 
L 202.34666 294.415655 
L 202.579054 294.858627 
L 202.579054 294.858627 
L 202.811448 294.884008 
L 202.811448 294.884008 
L 203.50863 295.430394 
L 203.50863 295.430394 
L 203.973418 295.259058 
L 203.973418 295.259058 
L 204.670601 295.488 
L 204.670601 295.488 
L 204.902995 295.03604 
L 204.902995 295.03604 
L 205.135389 295.103655 
L 205.135389 295.103655 
L 205.367783 294.680396 
L 205.367783 294.680396 
L 205.600177 295.001058 
L 205.600177 295.001058 
L 205.832571 294.755876 
L 205.832571 294.755876 
L 206.064965 294.279812 
L 206.297359 294.13212 
L 206.297359 294.13212 
L 206.529753 293.345455 
L 206.762147 293.509743 
L 206.994542 292.931132 
L 206.994542 292.931132 
L 207.226936 291.991873 
L 207.226936 291.991873 
L 207.45933 291.575661 
L 207.45933 291.575661 
L 207.691724 288.920026 
L 207.691724 288.920026 
L 207.924118 289.828236 
L 207.924118 289.828236 
L 208.156512 289.217197 
L 208.156512 289.217197 
L 208.388906 285.789246 
L 208.388906 285.789246 
L 208.6213 287.268509 
L 208.6213 287.268509 
L 208.853694 286.079675 
L 208.853694 286.079675 
L 209.086088 281.719309 
L 209.086088 281.719309 
L 209.318482 283.489766 
L 209.318482 283.489766 
L 209.550877 281.96255 
L 209.550877 281.96255 
L 209.783271 276.753112 
L 209.783271 276.753112 
L 210.015665 278.742502 
L 210.015665 278.742502 
L 210.248059 276.635603 
L 210.248059 276.635603 
L 210.480453 270.69496 
L 210.480453 270.69496 
L 210.712847 272.426196 
L 210.712847 272.426196 
L 210.945241 269.835827 
L 210.945241 269.835827 
L 211.177635 263.403237 
L 211.410029 264.09323 
L 211.410029 264.09323 
L 211.642423 261.155797 
L 211.642423 261.155797 
L 211.874817 254.822332 
L 211.874817 254.822332 
L 212.107212 253.821585 
L 212.107212 253.821585 
L 212.339606 240.57921 
L 212.339606 240.57921 
L 212.572 245.095797 
L 212.572 245.095797 
L 212.804394 240.755449 
L 212.804394 240.755449 
L 213.036788 228.405657 
L 213.036788 228.405657 
L 213.269182 229.729721 
L 213.269182 229.729721 
L 213.501576 233.428132 
L 213.73397 229.33552 
L 213.73397 229.33552 
L 213.966364 232.364571 
L 213.966364 232.364571 
L 214.198758 241.36654 
L 214.198758 241.36654 
L 214.431152 240.22137 
L 214.431152 240.22137 
L 214.663547 250.684472 
L 214.663547 250.684472 
L 214.895941 247.796066 
L 214.895941 247.796066 
L 215.128335 250.257332 
L 215.128335 250.257332 
L 215.360729 255.456863 
L 215.360729 255.456863 
L 215.593123 255.421574 
L 215.593123 255.421574 
L 215.825517 261.574 
L 215.825517 261.574 
L 216.057911 259.745273 
L 216.057911 259.745273 
L 216.987487 268.997531 
L 216.987487 268.997531 
L 217.219882 268.527135 
L 217.219882 268.527135 
L 217.452276 269.556378 
L 217.452276 269.556378 
L 217.68467 271.571302 
L 217.68467 271.571302 
L 217.917064 271.801776 
L 217.917064 271.801776 
L 218.149458 274.055346 
L 218.149458 274.055346 
L 218.381852 273.679019 
L 218.381852 273.679019 
L 218.84664 275.763039 
L 218.84664 275.763039 
L 219.079034 275.874676 
L 219.079034 275.874676 
L 219.311428 276.985884 
L 219.311428 276.985884 
L 219.543822 276.886862 
L 219.543822 276.886862 
L 220.008611 277.745586 
L 220.008611 277.745586 
L 220.938187 278.627954 
L 220.938187 278.627954 
L 221.170581 278.62295 
L 221.170581 278.62295 
L 221.402975 278.765432 
L 221.402975 278.765432 
L 221.635369 278.692761 
L 221.635369 278.692761 
L 221.867763 279.047996 
L 221.867763 279.047996 
L 222.100157 279.090383 
L 222.100157 279.090383 
L 222.332552 278.759099 
L 222.332552 278.759099 
L 223.029734 279.06204 
L 223.029734 279.06204 
L 223.262128 278.593738 
L 223.262128 278.593738 
L 223.726916 278.790405 
L 223.726916 278.790405 
L 223.95931 278.47439 
L 223.95931 278.47439 
L 224.191704 278.550993 
L 224.191704 278.550993 
L 224.424098 277.871317 
L 224.424098 277.871317 
L 224.656492 278.164708 
L 224.656492 278.164708 
L 224.888887 278.058281 
L 224.888887 278.058281 
L 225.121281 277.211098 
L 225.121281 277.211098 
L 225.353675 277.378043 
L 225.353675 277.378043 
L 225.586069 275.676937 
L 225.586069 275.676937 
L 225.818463 276.267089 
L 225.818463 276.267089 
L 226.050857 276.120624 
L 226.050857 276.120624 
L 226.283251 274.300578 
L 226.283251 274.300578 
L 226.515645 274.867443 
L 226.515645 274.867443 
L 226.748039 274.327543 
L 226.748039 274.327543 
L 226.980433 272.92565 
L 226.980433 272.92565 
L 227.212827 272.628786 
L 227.212827 272.628786 
L 227.445222 269.714385 
L 227.445222 269.714385 
L 227.677616 270.640418 
L 227.677616 270.640418 
L 227.91001 269.777762 
L 228.142404 267.361385 
L 228.142404 267.361385 
L 228.374798 267.365368 
L 228.607192 263.424686 
L 228.607192 263.424686 
L 228.839586 264.984791 
L 228.839586 264.984791 
L 229.07198 263.561398 
L 229.07198 263.561398 
L 229.304374 260.479593 
L 229.304374 260.479593 
L 229.536768 260.565593 
L 229.536768 260.565593 
L 229.769162 255.798105 
L 229.769162 255.798105 
L 230.001557 257.627547 
L 230.001557 257.627547 
L 230.233951 255.933744 
L 230.233951 255.933744 
L 230.466345 252.437362 
L 230.698739 252.39809 
L 230.698739 252.39809 
L 230.931133 247.149993 
L 230.931133 247.149993 
L 231.163527 248.657649 
L 231.163527 248.657649 
L 231.395921 246.987951 
L 231.395921 246.987951 
L 231.628315 243.443002 
L 231.628315 243.443002 
L 231.860709 242.967091 
L 231.860709 242.967091 
L 232.093103 237.615987 
L 232.093103 237.615987 
L 232.325497 238.758348 
L 232.325497 238.758348 
L 232.557892 236.836778 
L 232.557892 236.836778 
L 232.790286 233.603554 
L 232.790286 233.603554 
L 233.02268 232.339138 
L 233.02268 232.339138 
L 233.255074 227.244758 
L 233.487468 227.605714 
L 233.487468 227.605714 
L 233.719862 220.545844 
L 233.719862 220.545844 
L 233.952256 222.595036 
L 233.952256 222.595036 
L 234.18465 220.178403 
L 234.18465 220.178403 
L 234.417044 216.148555 
L 234.417044 216.148555 
L 234.649438 214.670008 
L 234.649438 214.670008 
L 234.881832 208.92741 
L 234.881832 208.92741 
L 235.114227 208.762713 
L 235.114227 208.762713 
L 235.346621 201.2899 
L 235.346621 201.2899 
L 235.579015 202.34907 
L 235.579015 202.34907 
L 235.811409 193.140935 
L 235.811409 193.140935 
L 236.043803 195.264687 
L 236.043803 195.264687 
L 236.276197 185.263504 
L 236.276197 185.263504 
L 236.508591 188.260585 
L 236.508591 188.260585 
L 236.740985 176.719572 
L 236.740985 176.719572 
L 236.973379 180.955483 
L 236.973379 180.955483 
L 237.205773 169.014038 
L 237.205773 169.014038 
L 237.438168 172.903345 
L 237.438168 172.903345 
L 237.670562 161.162805 
L 237.670562 161.162805 
L 237.902956 165.054205 
L 237.902956 165.054205 
L 238.13535 153.222354 
L 238.13535 153.222354 
L 238.367744 156.227607 
L 238.367744 156.227607 
L 238.600138 146.121936 
L 238.600138 146.121936 
L 238.832532 147.817628 
L 238.832532 147.817628 
L 239.064926 139.044192 
L 239.064926 139.044192 
L 239.29732 139.294379 
L 239.29732 139.294379 
L 239.529714 132.304781 
L 239.529714 132.304781 
L 239.762108 130.471406 
L 239.762108 130.471406 
L 239.994503 126.14066 
L 239.994503 126.14066 
L 240.226897 115.580936 
L 240.226897 115.580936 
L 240.459291 117.796407 
L 240.459291 117.796407 
L 240.691685 109.596067 
L 240.691685 109.596067 
L 240.924079 109.182868 
L 240.924079 109.182868 
L 241.156473 104.515884 
L 241.156473 104.515884 
L 241.388867 95.4941 
L 241.388867 95.4941 
L 241.621261 96.653007 
L 241.621261 96.653007 
L 242.086049 82.485315 
L 242.086049 82.485315 
L 242.318443 84.085508 
L 242.318443 84.085508 
L 242.550838 77.927567 
L 242.550838 77.927567 
L 242.783232 76.23019 
L 242.783232 76.23019 
L 243.24802 67.235574 
L 243.24802 67.235574 
L 243.480414 59.708629 
L 243.480414 59.708629 
L 243.712808 61.271797 
L 243.712808 61.271797 
L 244.177596 53.568 
L 244.177596 53.568 
L 282.755015 53.568 
L 282.755015 53.568 
L 282.987409 56.328939 
L 282.987409 56.328939 
L 283.219803 61.800565 
L 283.219803 61.800565 
L 283.684592 78.375391 
L 283.684592 78.375391 
L 283.916986 77.879767 
L 283.916986 77.879767 
L 284.614168 92.422101 
L 284.614168 92.422101 
L 284.846562 92.167318 
L 284.846562 92.167318 
L 285.543744 101.457827 
L 285.543744 101.457827 
L 285.776138 101.524216 
L 285.776138 101.524216 
L 286.473321 105.271806 
L 286.473321 105.271806 
L 286.938109 106.25856 
L 286.938109 106.25856 
L 287.170503 106.115874 
L 287.170503 106.115874 
L 287.635291 106.561552 
L 287.635291 106.561552 
L 287.867685 106.459874 
L 287.867685 106.459874 
L 288.100079 106.674772 
L 288.100079 106.674772 
L 288.332473 106.556547 
L 288.332473 106.556547 
L 288.564868 106.194673 
L 288.564868 106.194673 
L 288.797262 104.96524 
L 288.797262 104.96524 
L 289.029656 105.622956 
L 289.029656 105.622956 
L 289.26205 104.397915 
L 289.26205 104.397915 
L 289.494444 101.483157 
L 289.494444 101.483157 
L 289.726838 102.496773 
L 289.726838 102.496773 
L 289.959232 100.470869 
L 289.959232 100.470869 
L 290.191626 96.717303 
L 290.191626 96.717303 
L 290.42402 97.116611 
L 290.42402 97.116611 
L 290.656414 94.7464 
L 290.656414 94.7464 
L 290.888808 90.001996 
L 290.888808 90.001996 
L 291.121203 89.242907 
L 291.121203 89.242907 
L 291.353597 86.610049 
L 291.353597 86.610049 
L 291.818385 74.482407 
L 291.818385 74.482407 
L 292.050779 76.148224 
L 292.050779 76.148224 
L 292.283173 71.992746 
L 292.283173 71.992746 
L 292.515567 64.799025 
L 292.515567 64.799025 
L 292.747961 64.727835 
L 292.747961 64.727835 
L 293.445143 53.568 
L 293.445143 53.568 
L 296.001478 53.568 
L 296.001478 53.568 
L 296.233873 53.864251 
L 296.233873 53.864251 
L 296.466267 57.203596 
L 296.466267 57.203596 
L 296.698661 57.29741 
L 296.698661 57.29741 
L 297.163449 64.435364 
L 297.163449 64.435364 
L 297.628237 72.708375 
L 297.628237 72.708375 
L 297.860631 72.330363 
L 297.860631 72.330363 
L 298.325419 79.401314 
L 298.325419 79.401314 
L 298.557813 82.966895 
L 298.557813 82.966895 
L 298.790208 82.952545 
L 298.790208 82.952545 
L 299.254996 90.041012 
L 299.254996 90.041012 
L 299.48739 94.331312 
L 299.48739 94.331312 
L 299.719784 94.169934 
L 299.719784 94.169934 
L 299.952178 97.05829 
L 299.952178 97.05829 
L 300.416966 105.833616 
L 300.416966 105.833616 
L 300.64936 105.336511 
L 300.64936 105.336511 
L 300.881754 108.731624 
L 300.881754 108.731624 
L 301.114149 113.772381 
L 301.114149 113.772381 
L 301.346543 113.617438 
L 301.578937 116.805773 
L 301.578937 116.805773 
L 301.811331 122.496944 
L 301.811331 122.496944 
L 302.043725 122.929242 
L 302.043725 122.929242 
L 302.276119 125.764895 
L 302.276119 125.764895 
L 302.508513 131.286109 
L 302.508513 131.286109 
L 302.740907 131.948677 
L 302.740907 131.948677 
L 302.973301 134.874977 
L 302.973301 134.874977 
L 303.205695 140.38613 
L 303.205695 140.38613 
L 303.438089 140.597811 
L 303.438089 140.597811 
L 303.670484 143.628139 
L 303.670484 143.628139 
L 303.902878 149.4168 
L 303.902878 149.4168 
L 304.135272 148.748359 
L 304.135272 148.748359 
L 304.367666 152.338453 
L 304.367666 152.338453 
L 304.60006 153.908465 
L 304.60006 153.908465 
L 304.832454 156.452974 
L 304.832454 156.452974 
L 305.064848 160.482771 
L 305.064848 160.482771 
L 305.297242 160.620504 
L 305.297242 160.620504 
L 305.529636 163.186768 
L 305.529636 163.186768 
L 305.76203 167.504645 
L 305.76203 167.504645 
L 305.994424 166.659557 
L 305.994424 166.659557 
L 306.226819 169.753975 
L 306.226819 169.753975 
L 306.459213 169.713631 
L 306.459213 169.713631 
L 306.691607 171.883856 
L 306.691607 171.883856 
L 306.924001 172.642178 
L 306.924001 172.642178 
L 307.156395 174.011285 
L 307.156395 174.011285 
L 307.388789 176.46055 
L 307.388789 176.46055 
L 307.621183 176.381087 
L 307.621183 176.381087 
L 307.853577 177.8389 
L 307.853577 177.8389 
L 308.085971 177.941753 
L 308.085971 177.941753 
L 308.318365 179.406052 
L 308.318365 179.406052 
L 308.550759 179.583874 
L 309.015548 180.98403 
L 309.015548 180.98403 
L 309.247942 181.161903 
L 309.247942 181.161903 
L 309.71273 182.082063 
L 309.71273 182.082063 
L 309.945124 182.427034 
L 309.945124 182.427034 
L 310.177518 182.450015 
L 310.177518 182.450015 
L 310.642306 182.107342 
L 310.642306 182.107342 
L 310.8747 182.672982 
L 310.8747 182.672982 
L 311.107094 181.864152 
L 311.107094 181.864152 
L 311.339489 182.293437 
L 311.339489 182.293437 
L 311.571883 182.186142 
L 311.571883 182.186142 
L 311.804277 182.520235 
L 311.804277 182.520235 
L 312.036671 182.326581 
L 312.036671 182.326581 
L 312.269065 182.315244 
L 312.269065 182.315244 
L 312.501459 182.13492 
L 312.501459 182.13492 
L 312.733853 181.793371 
L 312.733853 181.793371 
L 312.966247 181.715899 
L 312.966247 181.715899 
L 313.198641 180.259005 
L 313.198641 180.259005 
L 313.431035 181.343402 
L 313.431035 181.343402 
L 313.663429 179.595518 
L 313.663429 179.595518 
L 313.895824 180.248332 
L 313.895824 180.248332 
L 314.128218 178.33197 
L 314.128218 178.33197 
L 314.360612 178.469346 
L 314.360612 178.469346 
L 314.593006 176.745923 
L 314.593006 176.745923 
L 314.8254 176.421891 
L 315.057794 174.51799 
L 315.057794 174.51799 
L 315.290188 173.54048 
L 315.290188 173.54048 
L 315.522582 171.937784 
L 315.522582 171.937784 
L 315.754976 167.499283 
L 315.754976 167.499283 
L 315.98737 168.686431 
L 315.98737 168.686431 
L 316.219764 164.289959 
L 316.219764 164.289959 
L 316.452159 164.442604 
L 316.452159 164.442604 
L 316.684553 160.780401 
L 316.684553 160.780401 
L 316.916947 159.877247 
L 316.916947 159.877247 
L 317.149341 157.661009 
L 317.149341 157.661009 
L 317.381735 150.014256 
L 317.381735 150.014256 
L 317.614129 152.14097 
L 317.614129 152.14097 
L 317.846523 145.541997 
L 317.846523 145.541997 
L 318.078917 146.18138 
L 318.078917 146.18138 
L 318.311311 141.188423 
L 318.311311 141.188423 
L 318.543705 139.397283 
L 318.543705 139.397283 
L 318.776099 135.806832 
L 318.776099 135.806832 
L 319.008494 127.438117 
L 319.008494 127.438117 
L 319.240888 128.383607 
L 319.240888 128.383607 
L 319.473282 122.218669 
L 319.473282 122.218669 
L 319.705676 120.654939 
L 319.705676 120.654939 
L 319.93807 116.140038 
L 319.93807 116.140038 
L 320.170464 107.525376 
L 320.170464 107.525376 
L 320.402858 107.783274 
L 320.402858 107.783274 
L 320.635252 101.650407 
L 320.635252 101.650407 
L 320.867646 92.099805 
L 320.867646 92.099805 
L 321.10004 93.552562 
L 321.10004 93.552562 
L 321.564829 76.591298 
L 321.564829 76.591298 
L 321.797223 78.991639 
L 321.797223 78.991639 
L 322.262011 61.78647 
L 322.262011 61.78647 
L 322.494405 63.595178 
L 322.494405 63.595178 
L 322.959193 53.568 
L 322.959193 53.568 
L 330.860592 53.568 
L 330.860592 53.568 
L 331.092986 54.396389 
L 331.092986 54.396389 
L 331.32538 58.301833 
L 331.32538 58.301833 
L 331.557774 58.528273 
L 331.557774 58.528273 
L 332.022563 65.253232 
L 332.022563 65.253232 
L 332.487351 78.853498 
L 332.487351 78.853498 
L 332.719745 78.254306 
L 332.719745 78.254306 
L 333.184533 91.104574 
L 333.184533 91.104574 
L 333.416927 101.603526 
L 333.416927 101.603526 
L 333.649321 100.9191 
L 333.649321 100.9191 
L 334.346504 116.479902 
L 334.346504 116.479902 
L 335.043686 132.530454 
L 335.043686 132.530454 
L 335.27608 131.789546 
L 335.27608 131.789546 
L 335.740868 140.672116 
L 335.740868 140.672116 
L 335.973262 139.609832 
L 335.973262 139.609832 
L 336.205656 142.478781 
L 336.205656 142.478781 
L 337.367627 148.885122 
L 337.367627 148.885122 
L 337.600021 150.06369 
L 337.600021 150.06369 
L 337.832415 150.173029 
L 337.832415 150.173029 
L 338.297203 151.369114 
L 338.297203 151.369114 
L 338.529597 151.414157 
L 338.529597 151.414157 
L 338.994385 151.855597 
L 338.994385 151.855597 
L 339.459174 151.743602 
L 339.459174 151.743602 
L 339.923962 152.116559 
L 339.923962 152.116559 
L 340.621144 151.696261 
L 340.621144 151.696261 
L 341.085932 151.947521 
L 341.085932 151.947521 
L 341.55072 151.424217 
L 341.55072 151.424217 
L 341.783114 150.736217 
L 341.783114 150.736217 
L 342.015509 150.908626 
L 342.015509 150.908626 
L 342.247903 150.575043 
L 342.480297 148.889207 
L 342.480297 148.889207 
L 342.712691 149.71586 
L 342.712691 149.71586 
L 342.945085 148.038961 
L 342.945085 148.038961 
L 343.177479 148.113164 
L 343.177479 148.113164 
L 343.409873 147.062881 
L 343.409873 147.062881 
L 343.642267 144.785309 
L 343.642267 144.785309 
L 343.874661 145.398851 
L 343.874661 145.398851 
L 344.107055 143.455628 
L 344.107055 143.455628 
L 344.339449 143.317231 
L 344.339449 143.317231 
L 344.571844 142.006905 
L 344.571844 142.006905 
L 344.804238 138.988272 
L 344.804238 138.988272 
L 345.036632 139.498348 
L 345.036632 139.498348 
L 345.269026 139.098377 
L 345.269026 139.098377 
L 345.50142 139.621067 
L 345.50142 139.621067 
L 345.733814 140.920822 
L 345.733814 140.920822 
L 345.966208 144.430533 
L 345.966208 144.430533 
L 346.198602 144.764116 
L 346.198602 144.764116 
L 346.430996 147.551815 
L 346.430996 147.551815 
L 346.66339 153.226235 
L 346.66339 153.226235 
L 346.895784 152.071414 
L 346.895784 152.071414 
L 347.128179 157.593087 
L 347.128179 157.593087 
L 347.360573 158.48996 
L 347.360573 158.48996 
L 347.592967 162.346633 
L 347.592967 162.346633 
L 347.825361 173.758187 
L 347.825361 173.758187 
L 348.057755 171.338235 
L 348.290149 181.387424 
L 348.290149 181.387424 
L 348.522543 182.104074 
L 348.522543 182.104074 
L 348.754937 190.193442 
L 348.754937 190.193442 
L 348.987331 193.987403 
L 348.987331 193.987403 
L 349.219725 200.342163 
L 349.219725 200.342163 
L 349.452119 214.934187 
L 349.452119 214.934187 
L 349.684514 210.484195 
L 349.684514 210.484195 
L 349.916908 222.753707 
L 349.916908 222.753707 
L 350.149302 219.4831 
L 350.149302 219.4831 
L 350.381696 231.044235 
L 350.381696 231.044235 
L 350.61409 227.449953 
L 350.61409 227.449953 
L 350.846484 238.668109 
L 350.846484 238.668109 
L 351.078878 234.691934 
L 351.078878 234.691934 
L 352.008454 249.919562 
L 352.008454 249.919562 
L 352.240849 249.699404 
L 352.240849 249.699404 
L 352.473243 256.582371 
L 352.473243 256.582371 
L 352.705637 254.585985 
L 352.705637 254.585985 
L 353.170425 260.459063 
L 353.170425 260.459063 
L 353.402819 261.322894 
L 353.402819 261.322894 
L 353.635213 266.207074 
L 353.635213 266.207074 
L 353.867607 265.19402 
L 353.867607 265.19402 
L 354.797184 273.871804 
L 354.797184 273.871804 
L 355.029578 273.658285 
L 355.029578 273.658285 
L 355.261972 277.434474 
L 355.261972 277.434474 
L 355.494366 276.641322 
L 355.494366 276.641322 
L 355.72676 277.491722 
L 355.72676 277.491722 
L 355.959154 279.400576 
L 355.959154 279.400576 
L 356.191548 279.465127 
L 356.191548 279.465127 
L 356.423942 281.531324 
L 356.423942 281.531324 
L 356.656336 281.04428 
L 356.656336 281.04428 
L 357.585913 283.376904 
L 357.585913 283.376904 
L 357.818307 283.546555 
L 357.818307 283.546555 
L 358.050701 283.525821 
L 358.050701 283.525821 
L 358.980277 284.045345 
L 358.980277 284.045345 
L 359.445065 283.749145 
L 359.445065 283.749145 
L 359.909854 283.946884 
L 359.909854 283.946884 
L 360.142248 283.776978 
L 360.142248 283.776978 
L 360.374642 283.860476 
L 360.374642 283.860476 
L 360.607036 283.512645 
L 360.607036 283.512645 
L 360.83943 283.663962 
L 360.83943 283.663962 
L 361.071824 283.646905 
L 361.071824 283.646905 
L 361.304218 283.134888 
L 361.304218 283.134888 
L 361.536612 283.093012 
L 361.536612 283.093012 
L 361.769006 281.89279 
L 361.769006 281.89279 
L 362.0014 282.45557 
L 362.0014 282.45557 
L 362.233794 281.845296 
L 362.233794 281.845296 
L 362.466189 280.636086 
L 362.466189 280.636086 
L 362.698583 280.37017 
L 362.698583 280.37017 
L 362.930977 278.013442 
L 362.930977 278.013442 
L 363.163371 278.724475 
L 363.163371 278.724475 
L 363.395765 277.687367 
L 363.395765 277.687367 
L 363.628159 275.857261 
L 363.628159 275.857261 
L 363.860553 275.181517 
L 363.860553 275.181517 
L 364.092947 272.361492 
L 364.092947 272.361492 
L 364.325341 272.544063 
L 364.325341 272.544063 
L 364.557735 267.765187 
L 364.557735 267.765187 
L 364.790129 269.314924 
L 364.790129 269.314924 
L 365.022524 267.736027 
L 365.254918 264.353681 
L 365.254918 264.353681 
L 365.487312 264.175706 
L 365.487312 264.175706 
L 365.719706 258.747999 
L 365.719706 258.747999 
L 365.9521 260.441189 
L 365.9521 260.441189 
L 366.184494 258.95779 
L 366.184494 258.95779 
L 366.416888 254.33018 
L 366.416888 254.33018 
L 366.649282 255.019202 
L 366.649282 255.019202 
L 366.881676 253.305585 
L 366.881676 253.305585 
L 367.11407 249.654515 
L 367.11407 249.654515 
L 367.346465 249.090714 
L 367.346465 249.090714 
L 367.578859 242.810718 
L 367.578859 242.810718 
L 367.811253 244.813436 
L 367.811253 244.813436 
L 368.043647 242.453133 
L 368.043647 242.453133 
L 368.276041 237.814799 
L 368.276041 237.814799 
L 368.508435 237.561599 
L 368.740829 230.430999 
L 368.740829 230.430999 
L 368.973223 232.16959 
L 368.973223 232.16959 
L 369.205617 229.899321 
L 369.205617 229.899321 
L 369.438011 225.404439 
L 369.438011 225.404439 
L 369.670405 224.382601 
L 369.670405 224.382601 
L 369.9028 217.79757 
L 369.9028 217.79757 
L 370.135194 218.665895 
L 370.135194 218.665895 
L 370.367588 210.206176 
L 370.367588 210.206176 
L 370.599982 212.609224 
L 370.599982 212.609224 
L 371.297164 204.169779 
L 371.297164 204.169779 
L 371.529558 199.11176 
L 371.529558 199.11176 
L 371.761952 198.418397 
L 371.761952 198.418397 
L 371.994346 192.964952 
L 371.994346 192.964952 
L 372.22674 193.180718 
L 372.22674 193.180718 
L 372.459135 187.620692 
L 372.459135 187.620692 
L 372.691529 188.249963 
L 372.691529 188.249963 
L 372.923923 187.52218 
L 372.923923 187.52218 
L 373.156317 187.688715 
L 373.156317 187.688715 
L 373.388711 190.336486 
L 373.388711 190.336486 
L 373.621105 190.8436 
L 373.621105 190.8436 
L 373.853499 192.874662 
L 373.853499 192.874662 
L 374.085893 193.124082 
L 374.085893 193.124082 
L 374.318287 194.735869 
L 374.318287 194.735869 
L 374.550681 194.880547 
L 374.783075 195.975822 
L 374.783075 195.975822 
L 375.01547 196.28438 
L 375.01547 196.28438 
L 375.247864 196.939697 
L 375.247864 196.939697 
L 375.945046 197.592306 
L 375.945046 197.592306 
L 376.17744 197.447117 
L 376.17744 197.447117 
L 376.409834 197.510188 
L 376.409834 197.510188 
L 376.642228 197.827734 
L 376.642228 197.827734 
L 376.874622 197.730192 
L 376.874622 197.730192 
L 377.571805 198.094569 
L 377.571805 198.094569 
L 377.804199 197.436904 
L 377.804199 197.436904 
L 378.036593 197.846834 
L 378.268987 197.266078 
L 378.268987 197.266078 
L 378.501381 197.230943 
L 378.501381 197.230943 
L 378.733775 194.510297 
L 378.733775 194.510297 
L 378.966169 196.053293 
L 378.966169 196.053293 
L 379.198563 193.043189 
L 379.198563 193.043189 
L 379.430957 194.161599 
L 379.430957 194.161599 
L 379.663351 190.766128 
L 379.663351 190.766128 
L 379.895745 191.777446 
L 379.895745 191.777446 
L 380.12814 187.431635 
L 380.12814 187.431635 
L 380.360534 188.40174 
L 380.360534 188.40174 
L 380.592928 184.08805 
L 380.592928 184.08805 
L 380.825322 184.906021 
L 380.825322 184.906021 
L 381.057716 179.452269 
L 381.057716 179.452269 
L 381.29011 180.051716 
L 381.29011 180.051716 
L 381.522504 175.035114 
L 381.522504 175.035114 
L 381.754898 175.197667 
L 381.754898 175.197667 
L 381.987292 169.584529 
L 381.987292 169.584529 
L 382.219686 168.788466 
L 382.219686 168.788466 
L 382.45208 164.265854 
L 382.45208 164.265854 
L 382.684475 162.391063 
L 382.684475 162.391063 
L 382.916869 157.962622 
L 382.916869 157.962622 
L 383.149263 147.125644 
L 383.149263 147.125644 
L 383.381657 150.577903 
L 383.381657 150.577903 
L 383.614051 140.043049 
L 383.614051 140.043049 
L 383.846445 141.31727 
L 383.846445 141.31727 
L 384.078839 133.005344 
L 384.078839 133.005344 
L 384.311233 131.460816 
L 384.311233 131.460816 
L 384.543627 125.545503 
L 384.543627 125.545503 
L 384.776021 112.344801 
L 384.776021 112.344801 
L 385.008415 114.725582 
L 385.008415 114.725582 
L 385.24081 104.55674 
L 385.24081 104.55674 
L 385.473204 103.254789 
L 385.473204 103.254789 
L 385.705598 96.573238 
L 385.705598 96.573238 
L 385.937992 86.137764 
L 385.937992 86.137764 
L 386.170386 84.783008 
L 386.170386 84.783008 
L 386.635174 71.752927 
L 386.635174 71.752927 
L 387.56475 53.568 
L 387.56475 53.568 
L 397.092908 53.621265 
L 397.092908 53.621265 
L 397.325302 53.736323 
L 397.325302 53.736323 
L 397.557696 53.568 
L 397.557696 53.568 
L 398.487273 53.568 
L 398.487273 53.568 
" clip-path="url(#pd246b5cb52)" style="fill: none; stroke: #ff7f0e; stroke-width: 1.5; stroke-linecap: square"/>
   </g>
   <g id="patch_3">
    <path d="M 57.6 307.584 
L 57.6 41.472 
" style="fill: none; stroke: #000000; stroke-width: 0.8; stroke-linejoin: miter; stroke-linecap: square"/>
   </g>
   <g id="patch_4">
    <path d="M 414.72 307.584 
L 414.72 41.472 
" style="fill: none; stroke: #000000; stroke-width: 0.8; stroke-linejoin: miter; stroke-linecap: square"/>
   </g>
   <g id="patch_5">
    <path d="M 57.6 307.584 
L 414.72 307.584 
" style="fill: none; stroke: #000000; stroke-width: 0.8; stroke-linejoin: miter; stroke-linecap: square"/>
   </g>
   <g id="patch_6">
    <path d="M 57.6 41.472 
L 414.72 41.472 
" style="fill: none; stroke: #000000; stroke-width: 0.8; stroke-linejoin: miter; stroke-linecap: square"/>
   </g>
   <g id="text_14">
    <!-- Actual speed vs Expected speed -->
    <g transform="translate(138.808125 35.472) scale(0.12 -0.12)">
     <defs>
      <path id="DejaVuSans-41" d="M 2188 4044 
L 1331 1722 
L 3047 1722 
L 2188 4044 
z
M 1831 4666 
L 2547 4666 
L 4325 0 
L 3669 0 
L 3244 1197 
L 1141 1197 
L 716 0 
L 50 0 
L 1831 4666 
z
" transform="scale(0.015625)"/>
      <path id="DejaVuSans-75" d="M 544 1381 
L 544 3500 
L 1119 3500 
L 1119 1403 
Q 1119 906 1312 657 
Q 1506 409 1894 409 
Q 2359 409 2629 706 
Q 2900 1003 2900 1516 
L 2900 3500 
L 3475 3500 
L 3475 0 
L 2900 0 
L 2900 538 
Q 2691 219 2414 64 
Q 2138 -91 1772 -91 
Q 1169 -91 856 284 
Q 544 659 544 1381 
z
M 1991 3584 
L 1991 3584 
z
" transform="scale(0.015625)"/>
      <path id="DejaVuSans-61" d="M 2194 1759 
Q 1497 1759 1228 1600 
Q 959 1441 959 1056 
Q 959 750 1161 570 
Q 1363 391 1709 391 
Q 2188 391 2477 730 
Q 2766 1069 2766 1631 
L 2766 1759 
L 2194 1759 
z
M 3341 1997 
L 3341 0 
L 2766 0 
L 2766 531 
Q 2569 213 2275 61 
Q 1981 -91 1556 -91 
Q 1019 -91 701 211 
Q 384 513 384 1019 
Q 384 1609 779 1909 
Q 1175 2209 1959 2209 
L 2766 2209 
L 2766 2266 
Q 2766 2663 2505 2880 
Q 2244 3097 1772 3097 
Q 1472 3097 1187 3025 
Q 903 2953 641 2809 
L 641 3341 
Q 956 3463 1253 3523 
Q 1550 3584 1831 3584 
Q 2591 3584 2966 3190 
Q 3341 2797 3341 1997 
z
" transform="scale(0.015625)"/>
      <path id="DejaVuSans-20" transform="scale(0.015625)"/>
      <path id="DejaVuSans-70" d="M 1159 525 
L 1159 -1331 
L 581 -1331 
L 581 3500 
L 1159 3500 
L 1159 2969 
Q 1341 3281 1617 3432 
Q 1894 3584 2278 3584 
Q 2916 3584 3314 3078 
Q 3713 2572 3713 1747 
Q 3713 922 3314 415 
Q 2916 -91 2278 -91 
Q 1894 -91 1617 61 
Q 1341 213 1159 525 
z
M 3116 1747 
Q 3116 2381 2855 2742 
Q 2594 3103 2138 3103 
Q 1681 3103 1420 2742 
Q 1159 2381 1159 1747 
Q 1159 1113 1420 752 
Q 1681 391 2138 391 
Q 2594 391 2855 752 
Q 3116 1113 3116 1747 
z
" transform="scale(0.015625)"/>
      <path id="DejaVuSans-64" d="M 2906 2969 
L 2906 4863 
L 3481 4863 
L 3481 0 
L 2906 0 
L 2906 525 
Q 2725 213 2448 61 
Q 2172 -91 1784 -91 
Q 1150 -91 751 415 
Q 353 922 353 1747 
Q 353 2572 751 3078 
Q 1150 3584 1784 3584 
Q 2172 3584 2448 3432 
Q 2725 3281 2906 2969 
z
M 947 1747 
Q 947 1113 1208 752 
Q 1469 391 1925 391 
Q 2381 391 2643 752 
Q 2906 1113 2906 1747 
Q 2906 2381 2643 2742 
Q 2381 3103 1925 3103 
Q 1469 3103 1208 2742 
Q 947 2381 947 1747 
z
" transform="scale(0.015625)"/>
      <path id="DejaVuSans-76" d="M 191 3500 
L 800 3500 
L 1894 563 
L 2988 3500 
L 3597 3500 
L 2284 0 
L 1503 0 
L 191 3500 
z
" transform="scale(0.015625)"/>
      <path id="DejaVuSans-45" d="M 628 4666 
L 3578 4666 
L 3578 4134 
L 1259 4134 
L 1259 2753 
L 3481 2753 
L 3481 2222 
L 1259 2222 
L 1259 531 
L 3634 531 
L 3634 0 
L 628 0 
L 628 4666 
z
" transform="scale(0.015625)"/>
      <path id="DejaVuSans-78" d="M 3513 3500 
L 2247 1797 
L 3578 0 
L 2900 0 
L 1881 1375 
L 863 0 
L 184 0 
L 1544 1831 
L 300 3500 
L 978 3500 
L 1906 2253 
L 2834 3500 
L 3513 3500 
z
" transform="scale(0.015625)"/>
     </defs>
     <use xlink:href="#DejaVuSans-41"/>
     <use xlink:href="#DejaVuSans-63" x="66.658203"/>
     <use xlink:href="#DejaVuSans-74" x="121.638672"/>
     <use xlink:href="#DejaVuSans-75" x="160.847656"/>
     <use xlink:href="#DejaVuSans-61" x="224.226562"/>
     <use xlink:href="#DejaVuSans-6c" x="285.505859"/>
     <use xlink:href="#DejaVuSans-20" x="313.289062"/>
     <use xlink:href="#DejaVuSans-73" x="345.076172"/>
     <use xlink:href="#DejaVuSans-70" x="397.175781"/>
     <use xlink:href="#DejaVuSans-65" x="460.652344"/>
     <use xlink:href="#DejaVuSans-65" x="522.175781"/>
     <use xlink:href="#DejaVuSans-64" x="583.699219"/>
     <use xlink:href="#DejaVuSans-20" x="647.175781"/>
     <use xlink:href="#DejaVuSans-76" x="678.962891"/>
     <use xlink:href="#DejaVuSans-73" x="738.142578"/>
     <use xlink:href="#DejaVuSans-20" x="790.242188"/>
     <use xlink:href="#DejaVuSans-45" x="822.029297"/>
     <use xlink:href="#DejaVuSans-78" x="885.212891"/>
     <use xlink:href="#DejaVuSans-70" x="944.392578"/>
     <use xlink:href="#DejaVuSans-65" x="1007.869141"/>
     <use xlink:href="#DejaVuSans-63" x="1069.392578"/>
     <use xlink:href="#DejaVuSans-74" x="1124.373047"/>
     <use xlink:href="#DejaVuSans-65" x="1163.582031"/>
     <use xlink:href="#DejaVuSans-64" x="1225.105469"/>
     <use xlink:href="#DejaVuSans-20" x="1288.582031"/>
     <use xlink:href="#DejaVuSans-73" x="1320.369141"/>
     <use xlink:href="#DejaVuSans-70" x="1372.46875"/>
     <use xlink:href="#DejaVuSans-65" x="1435.945312"/>
     <use xlink:href="#DejaVuSans-65" x="1497.46875"/>
     <use xlink:href="#DejaVuSans-64" x="1558.992188"/>
    </g>
   </g>
   <g id="legend_1">
    <g id="patch_7">
     <path d="M 64.6 302.584 
L 176.65 302.584 
Q 178.65 302.584 178.65 300.584 
L 178.65 272.22775 
Q 178.65 270.22775 176.65 270.22775 
L 64.6 270.22775 
Q 62.6 270.22775 62.6 272.22775 
L 62.6 300.584 
Q 62.6 302.584 64.6 302.584 
z
" style="fill: #ffffff; opacity: 0.8; stroke: #cccccc; stroke-linejoin: miter"/>
    </g>
    <g id="line2d_25">
     <path d="M 66.6 278.326187 
L 76.6 278.326187 
L 86.6 278.326187 
" style="fill: none; stroke: #1f77b4; stroke-width: 1.5; stroke-linecap: square"/>
    </g>
    <g id="text_15">
     <!-- Actual speed -->
     <g transform="translate(94.6 281.826187) scale(0.1 -0.1)">
      <use xlink:href="#DejaVuSans-41"/>
      <use xlink:href="#DejaVuSans-63" x="66.658203"/>
      <use xlink:href="#DejaVuSans-74" x="121.638672"/>
      <use xlink:href="#DejaVuSans-75" x="160.847656"/>
      <use xlink:href="#DejaVuSans-61" x="224.226562"/>
      <use xlink:href="#DejaVuSans-6c" x="285.505859"/>
      <use xlink:href="#DejaVuSans-20" x="313.289062"/>
      <use xlink:href="#DejaVuSans-73" x="345.076172"/>
      <use xlink:href="#DejaVuSans-70" x="397.175781"/>
      <use xlink:href="#DejaVuSans-65" x="460.652344"/>
      <use xlink:href="#DejaVuSans-65" x="522.175781"/>
      <use xlink:href="#DejaVuSans-64" x="583.699219"/>
     </g>
    </g>
    <g id="line2d_26">
     <path d="M 66.6 293.004312 
L 76.6 293.004312 
L 86.6 293.004312 
" style="fill: none; stroke: #ff7f0e; stroke-width: 1.5; stroke-linecap: square"/>
    </g>
    <g id="text_16">
     <!-- Expected speed -->
     <g transform="translate(94.6 296.504312) scale(0.1 -0.1)">
      <use xlink:href="#DejaVuSans-45"/>
      <use xlink:href="#DejaVuSans-78" x="63.183594"/>
      <use xlink:href="#DejaVuSans-70" x="122.363281"/>
      <use xlink:href="#DejaVuSans-65" x="185.839844"/>
      <use xlink:href="#DejaVuSans-63" x="247.363281"/>
      <use xlink:href="#DejaVuSans-74" x="302.34375"/>
      <use xlink:href="#DejaVuSans-65" x="341.552734"/>
      <use xlink:href="#DejaVuSans-64" x="403.076172"/>
      <use xlink:href="#DejaVuSans-20" x="466.552734"/>
      <use xlink:href="#DejaVuSans-73" x="498.339844"/>
      <use xlink:href="#DejaVuSans-70" x="550.439453"/>
      <use xlink:href="#DejaVuSans-65" x="613.916016"/>
      <use xlink:href="#DejaVuSans-65" x="675.439453"/>
      <use xlink:href="#DejaVuSans-64" x="736.962891"/>
     </g>
    </g>
   </g>
  </g>
 </g>
 <defs>
  <clipPath id="pd246b5cb52">
   <rect x="57.6" y="41.472" width="357.12" height="266.112"/>
  </clipPath>
 </defs>
</svg>
