<?xml version="1.0" encoding="utf-8" standalone="no"?>
<!DOCTYPE svg PUBLIC "-//W3C//DTD SVG 1.1//EN"
  "http://www.w3.org/Graphics/SVG/1.1/DTD/svg11.dtd">
<svg xmlns:xlink="http://www.w3.org/1999/xlink" width="460.8pt" height="345.6pt" viewBox="0 0 460.8 345.6" xmlns="http://www.w3.org/2000/svg" version="1.1">
 <metadata>
  <rdf:RDF xmlns:dc="http://purl.org/dc/elements/1.1/" xmlns:cc="http://creativecommons.org/ns#" xmlns:rdf="http://www.w3.org/1999/02/22-rdf-syntax-ns#">
   <cc:Work>
    <dc:type rdf:resource="http://purl.org/dc/dcmitype/StillImage"/>
    <dc:date>2024-01-30T20:59:11.900631</dc:date>
    <dc:format>image/svg+xml</dc:format>
    <dc:creator>
     <cc:Agent>
      <dc:title>Matplotlib v3.7.1, https://matplotlib.org/</dc:title>
     </cc:Agent>
    </dc:creator>
   </cc:Work>
  </rdf:RDF>
 </metadata>
 <defs>
  <style type="text/css">*{stroke-linejoin: round; stroke-linecap: butt}</style>
 </defs>
 <g id="figure_1">
  <g id="patch_1">
   <path d="M 0 345.6 
L 460.8 345.6 
L 460.8 0 
L 0 0 
z
" style="fill: #ffffff"/>
  </g>
  <g id="axes_1">
   <g id="patch_2">
    <path d="M 57.6 307.584 
L 414.72 307.584 
L 414.72 41.472 
L 57.6 41.472 
z
" style="fill: #ffffff"/>
   </g>
   <g id="matplotlib.axis_1">
    <g id="xtick_1">
     <g id="line2d_1">
      <path d="M 73.832727 307.584 
L 73.832727 41.472 
" clip-path="url(#p6e877b2a4e)" style="fill: none; stroke: #b0b0b0; stroke-width: 0.8; stroke-linecap: square"/>
     </g>
     <g id="line2d_2">
      <defs>
       <path id="mffa2996b45" d="M 0 0 
L 0 3.5 
" style="stroke: #000000; stroke-width: 0.8"/>
      </defs>
      <g>
       <use xlink:href="#mffa2996b45" x="73.832727" y="307.584" style="stroke: #000000; stroke-width: 0.8"/>
      </g>
     </g>
     <g id="text_1">
      <!-- 0 -->
      <g transform="translate(70.651477 322.182437) scale(0.1 -0.1)">
       <defs>
        <path id="DejaVuSans-30" d="M 2034 4250 
Q 1547 4250 1301 3770 
Q 1056 3291 1056 2328 
Q 1056 1369 1301 889 
Q 1547 409 2034 409 
Q 2525 409 2770 889 
Q 3016 1369 3016 2328 
Q 3016 3291 2770 3770 
Q 2525 4250 2034 4250 
z
M 2034 4750 
Q 2819 4750 3233 4129 
Q 3647 3509 3647 2328 
Q 3647 1150 3233 529 
Q 2819 -91 2034 -91 
Q 1250 -91 836 529 
Q 422 1150 422 2328 
Q 422 3509 836 4129 
Q 1250 4750 2034 4750 
z
" transform="scale(0.015625)"/>
       </defs>
       <use xlink:href="#DejaVuSans-30"/>
      </g>
     </g>
    </g>
    <g id="xtick_2">
     <g id="line2d_3">
      <path d="M 131.889692 307.584 
L 131.889692 41.472 
" clip-path="url(#p6e877b2a4e)" style="fill: none; stroke: #b0b0b0; stroke-width: 0.8; stroke-linecap: square"/>
     </g>
     <g id="line2d_4">
      <g>
       <use xlink:href="#mffa2996b45" x="131.889692" y="307.584" style="stroke: #000000; stroke-width: 0.8"/>
      </g>
     </g>
     <g id="text_2">
      <!-- 5 -->
      <g transform="translate(128.708442 322.182437) scale(0.1 -0.1)">
       <defs>
        <path id="DejaVuSans-35" d="M 691 4666 
L 3169 4666 
L 3169 4134 
L 1269 4134 
L 1269 2991 
Q 1406 3038 1543 3061 
Q 1681 3084 1819 3084 
Q 2600 3084 3056 2656 
Q 3513 2228 3513 1497 
Q 3513 744 3044 326 
Q 2575 -91 1722 -91 
Q 1428 -91 1123 -41 
Q 819 9 494 109 
L 494 744 
Q 775 591 1075 516 
Q 1375 441 1709 441 
Q 2250 441 2565 725 
Q 2881 1009 2881 1497 
Q 2881 1984 2565 2268 
Q 2250 2553 1709 2553 
Q 1456 2553 1204 2497 
Q 953 2441 691 2322 
L 691 4666 
z
" transform="scale(0.015625)"/>
       </defs>
       <use xlink:href="#DejaVuSans-35"/>
      </g>
     </g>
    </g>
    <g id="xtick_3">
     <g id="line2d_5">
      <path d="M 189.946656 307.584 
L 189.946656 41.472 
" clip-path="url(#p6e877b2a4e)" style="fill: none; stroke: #b0b0b0; stroke-width: 0.8; stroke-linecap: square"/>
     </g>
     <g id="line2d_6">
      <g>
       <use xlink:href="#mffa2996b45" x="189.946656" y="307.584" style="stroke: #000000; stroke-width: 0.8"/>
      </g>
     </g>
     <g id="text_3">
      <!-- 10 -->
      <g transform="translate(183.584156 322.182437) scale(0.1 -0.1)">
       <defs>
        <path id="DejaVuSans-31" d="M 794 531 
L 1825 531 
L 1825 4091 
L 703 3866 
L 703 4441 
L 1819 4666 
L 2450 4666 
L 2450 531 
L 3481 531 
L 3481 0 
L 794 0 
L 794 531 
z
" transform="scale(0.015625)"/>
       </defs>
       <use xlink:href="#DejaVuSans-31"/>
       <use xlink:href="#DejaVuSans-30" x="63.623047"/>
      </g>
     </g>
    </g>
    <g id="xtick_4">
     <g id="line2d_7">
      <path d="M 248.003621 307.584 
L 248.003621 41.472 
" clip-path="url(#p6e877b2a4e)" style="fill: none; stroke: #b0b0b0; stroke-width: 0.8; stroke-linecap: square"/>
     </g>
     <g id="line2d_8">
      <g>
       <use xlink:href="#mffa2996b45" x="248.003621" y="307.584" style="stroke: #000000; stroke-width: 0.8"/>
      </g>
     </g>
     <g id="text_4">
      <!-- 15 -->
      <g transform="translate(241.641121 322.182437) scale(0.1 -0.1)">
       <use xlink:href="#DejaVuSans-31"/>
       <use xlink:href="#DejaVuSans-35" x="63.623047"/>
      </g>
     </g>
    </g>
    <g id="xtick_5">
     <g id="line2d_9">
      <path d="M 306.060585 307.584 
L 306.060585 41.472 
" clip-path="url(#p6e877b2a4e)" style="fill: none; stroke: #b0b0b0; stroke-width: 0.8; stroke-linecap: square"/>
     </g>
     <g id="line2d_10">
      <g>
       <use xlink:href="#mffa2996b45" x="306.060585" y="307.584" style="stroke: #000000; stroke-width: 0.8"/>
      </g>
     </g>
     <g id="text_5">
      <!-- 20 -->
      <g transform="translate(299.698085 322.182437) scale(0.1 -0.1)">
       <defs>
        <path id="DejaVuSans-32" d="M 1228 531 
L 3431 531 
L 3431 0 
L 469 0 
L 469 531 
Q 828 903 1448 1529 
Q 2069 2156 2228 2338 
Q 2531 2678 2651 2914 
Q 2772 3150 2772 3378 
Q 2772 3750 2511 3984 
Q 2250 4219 1831 4219 
Q 1534 4219 1204 4116 
Q 875 4013 500 3803 
L 500 4441 
Q 881 4594 1212 4672 
Q 1544 4750 1819 4750 
Q 2544 4750 2975 4387 
Q 3406 4025 3406 3419 
Q 3406 3131 3298 2873 
Q 3191 2616 2906 2266 
Q 2828 2175 2409 1742 
Q 1991 1309 1228 531 
z
" transform="scale(0.015625)"/>
       </defs>
       <use xlink:href="#DejaVuSans-32"/>
       <use xlink:href="#DejaVuSans-30" x="63.623047"/>
      </g>
     </g>
    </g>
    <g id="xtick_6">
     <g id="line2d_11">
      <path d="M 364.11755 307.584 
L 364.11755 41.472 
" clip-path="url(#p6e877b2a4e)" style="fill: none; stroke: #b0b0b0; stroke-width: 0.8; stroke-linecap: square"/>
     </g>
     <g id="line2d_12">
      <g>
       <use xlink:href="#mffa2996b45" x="364.11755" y="307.584" style="stroke: #000000; stroke-width: 0.8"/>
      </g>
     </g>
     <g id="text_6">
      <!-- 25 -->
      <g transform="translate(357.75505 322.182437) scale(0.1 -0.1)">
       <use xlink:href="#DejaVuSans-32"/>
       <use xlink:href="#DejaVuSans-35" x="63.623047"/>
      </g>
     </g>
    </g>
    <g id="text_7">
     <!-- Time(s) -->
     <g transform="translate(217.420156 335.860562) scale(0.1 -0.1)">
      <defs>
       <path id="DejaVuSans-54" d="M -19 4666 
L 3928 4666 
L 3928 4134 
L 2272 4134 
L 2272 0 
L 1638 0 
L 1638 4134 
L -19 4134 
L -19 4666 
z
" transform="scale(0.015625)"/>
       <path id="DejaVuSans-69" d="M 603 3500 
L 1178 3500 
L 1178 0 
L 603 0 
L 603 3500 
z
M 603 4863 
L 1178 4863 
L 1178 4134 
L 603 4134 
L 603 4863 
z
" transform="scale(0.015625)"/>
       <path id="DejaVuSans-6d" d="M 3328 2828 
Q 3544 3216 3844 3400 
Q 4144 3584 4550 3584 
Q 5097 3584 5394 3201 
Q 5691 2819 5691 2113 
L 5691 0 
L 5113 0 
L 5113 2094 
Q 5113 2597 4934 2840 
Q 4756 3084 4391 3084 
Q 3944 3084 3684 2787 
Q 3425 2491 3425 1978 
L 3425 0 
L 2847 0 
L 2847 2094 
Q 2847 2600 2669 2842 
Q 2491 3084 2119 3084 
Q 1678 3084 1418 2786 
Q 1159 2488 1159 1978 
L 1159 0 
L 581 0 
L 581 3500 
L 1159 3500 
L 1159 2956 
Q 1356 3278 1631 3431 
Q 1906 3584 2284 3584 
Q 2666 3584 2933 3390 
Q 3200 3197 3328 2828 
z
" transform="scale(0.015625)"/>
       <path id="DejaVuSans-65" d="M 3597 1894 
L 3597 1613 
L 953 1613 
Q 991 1019 1311 708 
Q 1631 397 2203 397 
Q 2534 397 2845 478 
Q 3156 559 3463 722 
L 3463 178 
Q 3153 47 2828 -22 
Q 2503 -91 2169 -91 
Q 1331 -91 842 396 
Q 353 884 353 1716 
Q 353 2575 817 3079 
Q 1281 3584 2069 3584 
Q 2775 3584 3186 3129 
Q 3597 2675 3597 1894 
z
M 3022 2063 
Q 3016 2534 2758 2815 
Q 2500 3097 2075 3097 
Q 1594 3097 1305 2825 
Q 1016 2553 972 2059 
L 3022 2063 
z
" transform="scale(0.015625)"/>
       <path id="DejaVuSans-28" d="M 1984 4856 
Q 1566 4138 1362 3434 
Q 1159 2731 1159 2009 
Q 1159 1288 1364 580 
Q 1569 -128 1984 -844 
L 1484 -844 
Q 1016 -109 783 600 
Q 550 1309 550 2009 
Q 550 2706 781 3412 
Q 1013 4119 1484 4856 
L 1984 4856 
z
" transform="scale(0.015625)"/>
       <path id="DejaVuSans-73" d="M 2834 3397 
L 2834 2853 
Q 2591 2978 2328 3040 
Q 2066 3103 1784 3103 
Q 1356 3103 1142 2972 
Q 928 2841 928 2578 
Q 928 2378 1081 2264 
Q 1234 2150 1697 2047 
L 1894 2003 
Q 2506 1872 2764 1633 
Q 3022 1394 3022 966 
Q 3022 478 2636 193 
Q 2250 -91 1575 -91 
Q 1294 -91 989 -36 
Q 684 19 347 128 
L 347 722 
Q 666 556 975 473 
Q 1284 391 1588 391 
Q 1994 391 2212 530 
Q 2431 669 2431 922 
Q 2431 1156 2273 1281 
Q 2116 1406 1581 1522 
L 1381 1569 
Q 847 1681 609 1914 
Q 372 2147 372 2553 
Q 372 3047 722 3315 
Q 1072 3584 1716 3584 
Q 2034 3584 2315 3537 
Q 2597 3491 2834 3397 
z
" transform="scale(0.015625)"/>
       <path id="DejaVuSans-29" d="M 513 4856 
L 1013 4856 
Q 1481 4119 1714 3412 
Q 1947 2706 1947 2009 
Q 1947 1309 1714 600 
Q 1481 -109 1013 -844 
L 513 -844 
Q 928 -128 1133 580 
Q 1338 1288 1338 2009 
Q 1338 2731 1133 3434 
Q 928 4138 513 4856 
z
" transform="scale(0.015625)"/>
      </defs>
      <use xlink:href="#DejaVuSans-54"/>
      <use xlink:href="#DejaVuSans-69" x="57.958984"/>
      <use xlink:href="#DejaVuSans-6d" x="85.742188"/>
      <use xlink:href="#DejaVuSans-65" x="183.154297"/>
      <use xlink:href="#DejaVuSans-28" x="244.677734"/>
      <use xlink:href="#DejaVuSans-73" x="283.691406"/>
      <use xlink:href="#DejaVuSans-29" x="335.791016"/>
     </g>
    </g>
   </g>
   <g id="matplotlib.axis_2">
    <g id="ytick_1">
     <g id="line2d_13">
      <path d="M 57.6 257.862733 
L 414.72 257.862733 
" clip-path="url(#p6e877b2a4e)" style="fill: none; stroke: #b0b0b0; stroke-width: 0.8; stroke-linecap: square"/>
     </g>
     <g id="line2d_14">
      <defs>
       <path id="m3617b1abb4" d="M 0 0 
L -3.5 0 
" style="stroke: #000000; stroke-width: 0.8"/>
      </defs>
      <g>
       <use xlink:href="#m3617b1abb4" x="57.6" y="257.862733" style="stroke: #000000; stroke-width: 0.8"/>
      </g>
     </g>
     <g id="text_8">
      <!-- 4 -->
      <g transform="translate(44.2375 261.661951) scale(0.1 -0.1)">
       <defs>
        <path id="DejaVuSans-34" d="M 2419 4116 
L 825 1625 
L 2419 1625 
L 2419 4116 
z
M 2253 4666 
L 3047 4666 
L 3047 1625 
L 3713 1625 
L 3713 1100 
L 3047 1100 
L 3047 0 
L 2419 0 
L 2419 1100 
L 313 1100 
L 313 1709 
L 2253 4666 
z
" transform="scale(0.015625)"/>
       </defs>
       <use xlink:href="#DejaVuSans-34"/>
      </g>
     </g>
    </g>
    <g id="ytick_2">
     <g id="line2d_15">
      <path d="M 57.6 206.789049 
L 414.72 206.789049 
" clip-path="url(#p6e877b2a4e)" style="fill: none; stroke: #b0b0b0; stroke-width: 0.8; stroke-linecap: square"/>
     </g>
     <g id="line2d_16">
      <g>
       <use xlink:href="#m3617b1abb4" x="57.6" y="206.789049" style="stroke: #000000; stroke-width: 0.8"/>
      </g>
     </g>
     <g id="text_9">
      <!-- 5 -->
      <g transform="translate(44.2375 210.588268) scale(0.1 -0.1)">
       <use xlink:href="#DejaVuSans-35"/>
      </g>
     </g>
    </g>
    <g id="ytick_3">
     <g id="line2d_17">
      <path d="M 57.6 155.715366 
L 414.72 155.715366 
" clip-path="url(#p6e877b2a4e)" style="fill: none; stroke: #b0b0b0; stroke-width: 0.8; stroke-linecap: square"/>
     </g>
     <g id="line2d_18">
      <g>
       <use xlink:href="#m3617b1abb4" x="57.6" y="155.715366" style="stroke: #000000; stroke-width: 0.8"/>
      </g>
     </g>
     <g id="text_10">
      <!-- 6 -->
      <g transform="translate(44.2375 159.514585) scale(0.1 -0.1)">
       <defs>
        <path id="DejaVuSans-36" d="M 2113 2584 
Q 1688 2584 1439 2293 
Q 1191 2003 1191 1497 
Q 1191 994 1439 701 
Q 1688 409 2113 409 
Q 2538 409 2786 701 
Q 3034 994 3034 1497 
Q 3034 2003 2786 2293 
Q 2538 2584 2113 2584 
z
M 3366 4563 
L 3366 3988 
Q 3128 4100 2886 4159 
Q 2644 4219 2406 4219 
Q 1781 4219 1451 3797 
Q 1122 3375 1075 2522 
Q 1259 2794 1537 2939 
Q 1816 3084 2150 3084 
Q 2853 3084 3261 2657 
Q 3669 2231 3669 1497 
Q 3669 778 3244 343 
Q 2819 -91 2113 -91 
Q 1303 -91 875 529 
Q 447 1150 447 2328 
Q 447 3434 972 4092 
Q 1497 4750 2381 4750 
Q 2619 4750 2861 4703 
Q 3103 4656 3366 4563 
z
" transform="scale(0.015625)"/>
       </defs>
       <use xlink:href="#DejaVuSans-36"/>
      </g>
     </g>
    </g>
    <g id="ytick_4">
     <g id="line2d_19">
      <path d="M 57.6 104.641683 
L 414.72 104.641683 
" clip-path="url(#p6e877b2a4e)" style="fill: none; stroke: #b0b0b0; stroke-width: 0.8; stroke-linecap: square"/>
     </g>
     <g id="line2d_20">
      <g>
       <use xlink:href="#m3617b1abb4" x="57.6" y="104.641683" style="stroke: #000000; stroke-width: 0.8"/>
      </g>
     </g>
     <g id="text_11">
      <!-- 7 -->
      <g transform="translate(44.2375 108.440902) scale(0.1 -0.1)">
       <defs>
        <path id="DejaVuSans-37" d="M 525 4666 
L 3525 4666 
L 3525 4397 
L 1831 0 
L 1172 0 
L 2766 4134 
L 525 4134 
L 525 4666 
z
" transform="scale(0.015625)"/>
       </defs>
       <use xlink:href="#DejaVuSans-37"/>
      </g>
     </g>
    </g>
    <g id="ytick_5">
     <g id="line2d_21">
      <path d="M 57.6 53.568 
L 414.72 53.568 
" clip-path="url(#p6e877b2a4e)" style="fill: none; stroke: #b0b0b0; stroke-width: 0.8; stroke-linecap: square"/>
     </g>
     <g id="line2d_22">
      <g>
       <use xlink:href="#m3617b1abb4" x="57.6" y="53.568" style="stroke: #000000; stroke-width: 0.8"/>
      </g>
     </g>
     <g id="text_12">
      <!-- 8 -->
      <g transform="translate(44.2375 57.367219) scale(0.1 -0.1)">
       <defs>
        <path id="DejaVuSans-38" d="M 2034 2216 
Q 1584 2216 1326 1975 
Q 1069 1734 1069 1313 
Q 1069 891 1326 650 
Q 1584 409 2034 409 
Q 2484 409 2743 651 
Q 3003 894 3003 1313 
Q 3003 1734 2745 1975 
Q 2488 2216 2034 2216 
z
M 1403 2484 
Q 997 2584 770 2862 
Q 544 3141 544 3541 
Q 544 4100 942 4425 
Q 1341 4750 2034 4750 
Q 2731 4750 3128 4425 
Q 3525 4100 3525 3541 
Q 3525 3141 3298 2862 
Q 3072 2584 2669 2484 
Q 3125 2378 3379 2068 
Q 3634 1759 3634 1313 
Q 3634 634 3220 271 
Q 2806 -91 2034 -91 
Q 1263 -91 848 271 
Q 434 634 434 1313 
Q 434 1759 690 2068 
Q 947 2378 1403 2484 
z
M 1172 3481 
Q 1172 3119 1398 2916 
Q 1625 2713 2034 2713 
Q 2441 2713 2670 2916 
Q 2900 3119 2900 3481 
Q 2900 3844 2670 4047 
Q 2441 4250 2034 4250 
Q 1625 4250 1398 4047 
Q 1172 3844 1172 3481 
z
" transform="scale(0.015625)"/>
       </defs>
       <use xlink:href="#DejaVuSans-38"/>
      </g>
     </g>
    </g>
    <g id="text_13">
     <!-- Velocity(m/s) -->
     <g transform="translate(38.157812 207.204563) rotate(-90) scale(0.1 -0.1)">
      <defs>
       <path id="DejaVuSans-56" d="M 1831 0 
L 50 4666 
L 709 4666 
L 2188 738 
L 3669 4666 
L 4325 4666 
L 2547 0 
L 1831 0 
z
" transform="scale(0.015625)"/>
       <path id="DejaVuSans-6c" d="M 603 4863 
L 1178 4863 
L 1178 0 
L 603 0 
L 603 4863 
z
" transform="scale(0.015625)"/>
       <path id="DejaVuSans-6f" d="M 1959 3097 
Q 1497 3097 1228 2736 
Q 959 2375 959 1747 
Q 959 1119 1226 758 
Q 1494 397 1959 397 
Q 2419 397 2687 759 
Q 2956 1122 2956 1747 
Q 2956 2369 2687 2733 
Q 2419 3097 1959 3097 
z
M 1959 3584 
Q 2709 3584 3137 3096 
Q 3566 2609 3566 1747 
Q 3566 888 3137 398 
Q 2709 -91 1959 -91 
Q 1206 -91 779 398 
Q 353 888 353 1747 
Q 353 2609 779 3096 
Q 1206 3584 1959 3584 
z
" transform="scale(0.015625)"/>
       <path id="DejaVuSans-63" d="M 3122 3366 
L 3122 2828 
Q 2878 2963 2633 3030 
Q 2388 3097 2138 3097 
Q 1578 3097 1268 2742 
Q 959 2388 959 1747 
Q 959 1106 1268 751 
Q 1578 397 2138 397 
Q 2388 397 2633 464 
Q 2878 531 3122 666 
L 3122 134 
Q 2881 22 2623 -34 
Q 2366 -91 2075 -91 
Q 1284 -91 818 406 
Q 353 903 353 1747 
Q 353 2603 823 3093 
Q 1294 3584 2113 3584 
Q 2378 3584 2631 3529 
Q 2884 3475 3122 3366 
z
" transform="scale(0.015625)"/>
       <path id="DejaVuSans-74" d="M 1172 4494 
L 1172 3500 
L 2356 3500 
L 2356 3053 
L 1172 3053 
L 1172 1153 
Q 1172 725 1289 603 
Q 1406 481 1766 481 
L 2356 481 
L 2356 0 
L 1766 0 
Q 1100 0 847 248 
Q 594 497 594 1153 
L 594 3053 
L 172 3053 
L 172 3500 
L 594 3500 
L 594 4494 
L 1172 4494 
z
" transform="scale(0.015625)"/>
       <path id="DejaVuSans-79" d="M 2059 -325 
Q 1816 -950 1584 -1140 
Q 1353 -1331 966 -1331 
L 506 -1331 
L 506 -850 
L 844 -850 
Q 1081 -850 1212 -737 
Q 1344 -625 1503 -206 
L 1606 56 
L 191 3500 
L 800 3500 
L 1894 763 
L 2988 3500 
L 3597 3500 
L 2059 -325 
z
" transform="scale(0.015625)"/>
       <path id="DejaVuSans-2f" d="M 1625 4666 
L 2156 4666 
L 531 -594 
L 0 -594 
L 1625 4666 
z
" transform="scale(0.015625)"/>
      </defs>
      <use xlink:href="#DejaVuSans-56"/>
      <use xlink:href="#DejaVuSans-65" x="60.658203"/>
      <use xlink:href="#DejaVuSans-6c" x="122.181641"/>
      <use xlink:href="#DejaVuSans-6f" x="149.964844"/>
      <use xlink:href="#DejaVuSans-63" x="211.146484"/>
      <use xlink:href="#DejaVuSans-69" x="266.126953"/>
      <use xlink:href="#DejaVuSans-74" x="293.910156"/>
      <use xlink:href="#DejaVuSans-79" x="333.119141"/>
      <use xlink:href="#DejaVuSans-28" x="392.298828"/>
      <use xlink:href="#DejaVuSans-6d" x="431.3125"/>
      <use xlink:href="#DejaVuSans-2f" x="528.724609"/>
      <use xlink:href="#DejaVuSans-73" x="562.416016"/>
      <use xlink:href="#DejaVuSans-29" x="614.515625"/>
     </g>
    </g>
   </g>
   <g id="line2d_23">
    <path d="M 73.832727 54.063721 
L 75.69055 53.79538 
L 75.69055 53.79538 
L 78.709512 53.632046 
L 78.709512 53.632046 
L 85.211892 53.572188 
L 85.211892 53.572188 
L 87.301943 53.569737 
L 87.301943 53.569737 
L 87.534171 53.709321 
L 87.534171 53.709321 
L 87.766399 54.521035 
L 88.927538 64.674228 
L 88.927538 64.674228 
L 89.391994 69.619693 
L 89.391994 69.619693 
L 90.088677 77.074509 
L 90.088677 77.074509 
L 90.553133 82.313954 
L 90.553133 82.313954 
L 94.268779 118.541182 
L 94.268779 118.541182 
L 95.662146 126.706995 
L 95.662146 126.706995 
L 96.591057 129.919479 
L 96.591057 129.919479 
L 97.287741 131.355824 
L 97.287741 131.355824 
L 97.984425 132.110387 
L 97.984425 132.110387 
L 98.913336 132.385521 
L 98.913336 132.385521 
L 99.377792 132.448648 
L 99.377792 132.448648 
L 100.538931 132.276581 
L 100.538931 132.276581 
L 101.003387 131.9493 
L 101.003387 131.9493 
L 101.467842 131.534633 
L 101.467842 131.534633 
L 101.932298 130.952342 
L 101.932298 130.952342 
L 102.628982 129.349241 
L 102.628982 129.349241 
L 103.557893 125.419326 
L 103.557893 125.419326 
L 104.022349 122.942405 
L 104.022349 122.942405 
L 105.415716 111.233457 
L 105.415716 111.233457 
L 107.041311 89.954833 
L 107.041311 89.954833 
L 107.737995 80.732253 
L 107.737995 80.732253 
L 108.434678 73.847163 
L 108.434678 73.847163 
L 109.131362 68.70721 
L 109.131362 68.70721 
L 109.828045 64.870044 
L 109.828045 64.870044 
L 110.524729 62.005424 
L 110.524729 62.005424 
L 111.221412 59.866866 
L 111.221412 59.866866 
L 111.918096 58.270354 
L 111.918096 58.270354 
L 112.847007 56.752597 
L 112.847007 56.752597 
L 113.775919 55.724688 
L 113.775919 55.724688 
L 114.70483 55.028605 
L 114.70483 55.028605 
L 115.86597 54.465314 
L 115.86597 54.465314 
L 117.259337 54.068114 
L 117.259337 54.068114 
L 119.11716 53.797372 
L 119.11716 53.797372 
L 121.903894 53.639248 
L 121.903894 53.639248 
L 127.941818 53.573669 
L 127.941818 53.573669 
L 131.425236 53.569328 
L 131.425236 53.569328 
L 131.657464 55.123143 
L 131.657464 55.123143 
L 132.818603 77.126758 
L 132.818603 77.126758 
L 133.283059 88.126037 
L 133.283059 88.126037 
L 134.444198 112.315095 
L 134.444198 112.315095 
L 134.908654 121.780837 
L 134.908654 121.780837 
L 136.069793 140.785456 
L 136.069793 140.785456 
L 137.927616 163.889403 
L 137.927616 163.889403 
L 139.320983 175.956173 
L 139.320983 175.956173 
L 141.411034 187.748474 
L 141.411034 187.748474 
L 143.501085 196.206787 
L 143.501085 196.206787 
L 144.197768 198.053764 
L 144.197768 198.053764 
L 144.662224 199.309564 
L 144.662224 199.309564 
L 145.12668 200.301568 
L 145.12668 200.301568 
L 145.591135 201.018643 
L 145.591135 201.018643 
L 146.055591 201.586327 
L 146.055591 201.586327 
L 146.287819 201.849867 
L 146.287819 201.849867 
L 146.520047 201.897672 
L 146.520047 201.897672 
L 146.984503 202.204982 
L 146.984503 202.204982 
L 147.21673 202.326691 
L 147.448958 202.301614 
L 147.448958 202.301614 
L 147.913414 202.390584 
L 147.913414 202.390584 
L 148.610098 202.471536 
L 148.610098 202.471536 
L 150.003465 202.307845 
L 150.003465 202.307845 
L 151.164604 201.494598 
L 151.164604 201.494598 
L 151.396832 201.269006 
L 151.396832 201.269006 
L 152.325743 199.517945 
L 152.325743 199.517945 
L 153.254655 196.312203 
L 153.254655 196.312203 
L 154.183566 191.046557 
L 154.183566 191.046557 
L 155.112478 183.078909 
L 155.112478 183.078909 
L 155.576933 176.958086 
L 155.576933 176.958086 
L 156.738073 163.123502 
L 156.738073 163.123502 
L 156.9703 161.65258 
L 156.9703 161.65258 
L 157.434756 160.212404 
L 157.434756 160.212404 
L 157.899212 159.746663 
L 157.899212 159.746663 
L 158.13144 159.832978 
L 158.13144 159.832978 
L 158.595895 161.738384 
L 158.595895 161.738384 
L 159.060351 163.588068 
L 159.060351 163.588068 
L 159.989263 166.432668 
L 159.989263 166.432668 
L 160.685946 167.502406 
L 160.685946 167.502406 
L 160.918174 167.768296 
L 160.918174 167.768296 
L 161.150402 167.837348 
L 161.150402 167.837348 
L 161.614858 168.140725 
L 161.614858 168.140725 
L 163.008225 168.1324 
L 163.008225 168.1324 
L 163.704908 167.974327 
L 163.704908 167.974327 
L 164.63382 167.151224 
L 164.63382 167.151224 
L 164.866048 166.854588 
L 164.866048 166.854588 
L 166.259415 163.195005 
L 166.259415 163.195005 
L 166.491643 162.361227 
L 166.491643 162.361227 
L 167.652782 156.106897 
L 167.652782 156.106897 
L 169.278377 142.112555 
L 169.278377 142.112555 
L 170.439516 128.528334 
L 170.439516 128.528334 
L 171.600655 113.540966 
L 171.600655 113.540966 
L 172.065111 110.918996 
L 172.065111 110.918996 
L 172.297339 111.545517 
L 172.297339 111.545517 
L 172.529567 112.564539 
L 172.529567 112.564539 
L 172.761795 115.431407 
L 172.761795 115.431407 
L 176.012985 189.442231 
L 176.012985 189.442231 
L 177.174124 208.457371 
L 177.174124 208.457371 
L 177.870808 219.591536 
L 177.870808 219.591536 
L 178.567491 228.714828 
L 178.567491 228.714828 
L 179.264175 238.225004 
L 179.264175 238.225004 
L 180.193086 246.097757 
L 180.193086 246.097757 
L 180.88977 252.796632 
L 180.88977 252.796632 
L 181.818681 258.434196 
L 181.818681 258.434196 
L 182.515365 262.803192 
L 182.515365 262.803192 
L 183.676504 266.963042 
L 183.676504 266.963042 
L 184.373188 268.455517 
L 184.373188 268.455517 
L 185.302099 269.690325 
L 185.302099 269.690325 
L 185.998783 269.994469 
L 185.998783 269.994469 
L 186.927694 270.179764 
L 186.927694 270.179764 
L 188.553289 270.096769 
L 188.553289 270.096769 
L 189.714428 269.452424 
L 189.714428 269.452424 
L 190.411112 268.296882 
L 190.411112 268.296882 
L 190.875568 267.471071 
L 190.875568 267.471071 
L 191.572251 265.226996 
L 191.572251 265.226996 
L 192.036707 263.641975 
L 192.036707 263.641975 
L 192.965618 258.57899 
L 192.965618 258.57899 
L 193.662302 253.746756 
L 193.662302 253.746756 
L 195.287897 237.704256 
L 195.287897 237.704256 
L 195.752353 236.678901 
L 195.752353 236.678901 
L 195.984581 239.765897 
L 195.984581 239.765897 
L 196.216808 240.173516 
L 196.216808 240.173516 
L 196.449036 242.149454 
L 196.449036 242.149454 
L 198.306859 268.832185 
L 198.306859 268.832185 
L 199.235771 277.270068 
L 199.235771 277.270068 
L 199.700226 281.553618 
L 199.700226 281.553618 
L 201.325821 290.671752 
L 201.325821 290.671752 
L 202.022505 292.855918 
L 202.022505 292.855918 
L 202.719188 294.113454 
L 202.719188 294.113454 
L 203.6481 295.084314 
L 203.6481 295.084314 
L 204.344783 295.254849 
L 204.344783 295.254849 
L 205.041467 295.342185 
L 205.041467 295.342185 
L 205.970378 295.188759 
L 205.970378 295.188759 
L 206.89929 294.727666 
L 206.89929 294.727666 
L 207.363746 294.281844 
L 207.363746 294.281844 
L 207.828201 293.815388 
L 207.828201 293.815388 
L 209.221568 291.105469 
L 209.221568 291.105469 
L 210.614936 285.960204 
L 210.614936 285.960204 
L 212.008303 277.270273 
L 212.008303 277.270273 
L 212.704986 270.145392 
L 212.704986 270.145392 
L 213.169442 265.30994 
L 213.169442 265.30994 
L 213.866126 255.728057 
L 213.866126 255.728057 
L 214.330581 251.351706 
L 214.330581 251.351706 
L 214.795037 249.502379 
L 214.795037 249.502379 
L 215.027265 249.958723 
L 215.027265 249.958723 
L 215.259493 249.768933 
L 215.259493 249.768933 
L 215.491721 249.924401 
L 216.885088 260.924498 
L 216.885088 260.924498 
L 217.117316 262.407933 
L 217.117316 262.407933 
L 217.581771 265.969301 
L 217.581771 265.969301 
L 218.975139 272.924413 
L 218.975139 272.924413 
L 219.671822 275.430547 
L 219.671822 275.430547 
L 220.600734 277.28345 
L 220.600734 277.28345 
L 221.065189 277.907672 
L 221.065189 277.907672 
L 221.529645 278.322799 
L 221.529645 278.322799 
L 222.226329 278.730265 
L 222.226329 278.730265 
L 222.923012 278.821074 
L 222.923012 278.821074 
L 223.619696 278.91173 
L 223.619696 278.91173 
L 224.780835 278.738437 
L 224.780835 278.738437 
L 225.477519 278.503498 
L 225.477519 278.503498 
L 225.709746 278.401555 
L 225.709746 278.401555 
L 227.335341 276.602382 
L 227.335341 276.602382 
L 227.567569 276.233375 
L 227.567569 276.233375 
L 229.193164 271.766215 
L 229.193164 271.766215 
L 229.889848 269.15017 
L 229.889848 269.15017 
L 232.212126 256.608261 
L 232.212126 256.608261 
L 234.302177 240.386289 
L 234.302177 240.386289 
L 235.231089 231.614894 
L 235.231089 231.614894 
L 235.927772 224.555847 
L 235.927772 224.555847 
L 237.785595 200.941011 
L 237.785595 200.941011 
L 242.197924 129.984853 
L 242.197924 129.984853 
L 243.823519 101.377104 
L 243.823519 101.377104 
L 244.984659 83.618121 
L 244.984659 83.618121 
L 245.681342 76.001605 
L 245.681342 76.001605 
L 246.378026 70.315623 
L 246.378026 70.315623 
L 247.074709 66.070735 
L 247.074709 66.070735 
L 247.771393 62.901818 
L 247.771393 62.901818 
L 248.468076 60.536034 
L 248.468076 60.536034 
L 249.16476 58.769957 
L 249.16476 58.769957 
L 250.093671 57.090909 
L 250.093671 57.090909 
L 251.022583 55.953805 
L 251.022583 55.953805 
L 251.951494 55.183767 
L 251.951494 55.183767 
L 253.112634 54.560668 
L 253.112634 54.560668 
L 254.506001 54.12123 
L 254.506001 54.12123 
L 256.363824 53.821734 
L 256.363824 53.821734 
L 259.150558 53.646807 
L 259.150558 53.646807 
L 264.956254 53.574895 
L 264.956254 53.574895 
L 283.070027 53.568 
L 283.070027 53.568 
L 283.302255 54.667923 
L 283.302255 54.667923 
L 283.534483 57.290301 
L 283.534483 57.290301 
L 285.160078 86.676668 
L 285.160078 86.676668 
L 286.088989 97.805011 
L 286.088989 97.805011 
L 286.785673 102.813603 
L 286.785673 102.813603 
L 287.250129 104.705219 
L 287.250129 104.705219 
L 287.946812 105.933541 
L 287.946812 105.933541 
L 288.643496 106.404083 
L 288.643496 106.404083 
L 289.107952 106.262813 
L 289.107952 106.262813 
L 289.572407 106.041664 
L 289.572407 106.041664 
L 290.269091 104.873302 
L 290.269091 104.873302 
L 290.965774 102.644549 
L 290.965774 102.644549 
L 291.894686 97.428955 
L 291.894686 97.428955 
L 293.288053 84.293877 
L 293.288053 84.293877 
L 294.216964 74.409842 
L 294.216964 74.409842 
L 294.913648 69.127291 
L 294.913648 69.127291 
L 295.610332 65.183637 
L 295.610332 65.183637 
L 296.307015 62.239545 
L 296.307015 62.239545 
L 296.771471 61.043706 
L 296.771471 61.043706 
L 297.003699 60.716222 
L 297.003699 60.716222 
L 297.235927 60.74421 
L 297.235927 60.74421 
L 297.468155 61.960581 
L 297.468155 61.960581 
L 298.397066 71.155989 
L 298.397066 71.155989 
L 303.970535 138.632292 
L 303.970535 138.632292 
L 304.43499 144.576196 
L 304.43499 144.576196 
L 306.060585 162.01173 
L 306.060585 162.01173 
L 307.68618 173.176795 
L 307.68618 173.176795 
L 308.615092 177.423725 
L 308.615092 177.423725 
L 309.776231 180.804905 
L 309.776231 180.804905 
L 310.240687 181.671165 
L 310.240687 181.671165 
L 310.93737 182.159787 
L 310.93737 182.159787 
L 311.169598 182.340588 
L 311.169598 182.340588 
L 311.866282 182.28599 
L 311.866282 182.28599 
L 312.795193 182.32215 
L 312.795193 182.32215 
L 313.259649 182.22317 
L 313.259649 182.22317 
L 314.653016 181.054961 
L 314.653016 181.054961 
L 315.3497 179.738282 
L 315.3497 179.738282 
L 316.743067 174.286064 
L 316.743067 174.286064 
L 317.43975 170.499716 
L 317.43975 170.499716 
L 319.065345 157.038788 
L 319.065345 157.038788 
L 320.923168 133.995261 
L 320.923168 133.995261 
L 324.174358 81.084764 
L 324.174358 81.084764 
L 324.871042 74.110346 
L 324.871042 74.110346 
L 325.567725 68.903691 
L 325.567725 68.903691 
L 326.264409 65.016728 
L 326.264409 65.016728 
L 326.961092 62.114926 
L 326.961092 62.114926 
L 327.657776 59.948635 
L 327.657776 59.948635 
L 328.35446 58.331387 
L 328.35446 58.331387 
L 329.283371 56.793916 
L 329.283371 56.793916 
L 330.212282 55.752677 
L 330.212282 55.752677 
L 331.141194 55.047554 
L 331.141194 55.047554 
L 331.373422 54.976816 
L 331.373422 54.976816 
L 332.070105 58.619545 
L 332.070105 58.619545 
L 332.302333 60.95494 
L 332.302333 60.95494 
L 333.231245 76.433126 
L 333.231245 76.433126 
L 334.160156 97.73172 
L 334.160156 97.73172 
L 334.85684 114.031478 
L 334.85684 114.031478 
L 336.017979 133.213119 
L 336.017979 133.213119 
L 337.179118 143.913924 
L 337.179118 143.913924 
L 338.10803 148.585582 
L 338.10803 148.585582 
L 338.804713 150.51678 
L 338.804713 150.51678 
L 339.269169 151.239831 
L 339.269169 151.239831 
L 339.733625 151.553423 
L 339.733625 151.553423 
L 340.430308 151.900162 
L 340.430308 151.900162 
L 341.823675 151.80256 
L 341.823675 151.80256 
L 342.520359 151.537028 
L 342.520359 151.537028 
L 343.681498 150.259931 
L 343.681498 150.259931 
L 344.842638 147.709311 
L 344.842638 147.709311 
L 345.539321 145.553338 
L 345.539321 145.553338 
L 346.003777 144.632684 
L 346.003777 144.632684 
L 346.468233 144.688762 
L 346.468233 144.688762 
L 346.70046 145.654566 
L 346.70046 145.654566 
L 347.397144 152.316413 
L 347.397144 152.316413 
L 347.8616 157.193898 
L 347.8616 157.193898 
L 348.326055 165.825402 
L 348.326055 165.825402 
L 351.11279 227.789935 
L 351.11279 227.789935 
L 351.577245 232.952616 
L 351.577245 232.952616 
L 352.738385 249.102932 
L 352.738385 249.102932 
L 353.667296 257.668755 
L 353.667296 257.668755 
L 354.131752 262.204966 
L 354.131752 262.204966 
L 355.989575 275.492806 
L 355.989575 275.492806 
L 356.686258 279.063521 
L 356.686258 279.063521 
L 357.847398 282.274319 
L 357.847398 282.274319 
L 358.311853 283.005796 
L 358.311853 283.005796 
L 359.008537 283.596719 
L 359.008537 283.596719 
L 359.472993 283.812505 
L 359.472993 283.812505 
L 361.795271 283.692686 
L 361.795271 283.692686 
L 362.95641 282.795832 
L 362.95641 282.795832 
L 364.11755 280.537967 
L 364.11755 280.537967 
L 365.278689 276.372602 
L 365.278689 276.372602 
L 366.439828 270.467513 
L 366.439828 270.467513 
L 368.297651 257.941437 
L 368.297651 257.941437 
L 369.923246 244.196334 
L 369.923246 244.196334 
L 373.638892 206.101955 
L 373.638892 206.101955 
L 374.103348 203.54965 
L 374.103348 203.54965 
L 374.567803 201.839754 
L 374.567803 201.839754 
L 375.032259 200.722007 
L 375.032259 200.722007 
L 375.496715 199.998139 
L 375.496715 199.998139 
L 376.193398 199.349657 
L 376.193398 199.349657 
L 377.12231 198.816652 
L 377.12231 198.816652 
L 378.283449 198.454642 
L 378.283449 198.454642 
L 379.212361 197.636492 
L 379.212361 197.636492 
L 380.141272 195.933951 
L 380.141272 195.933951 
L 381.070183 192.749915 
L 381.070183 192.749915 
L 381.999095 187.722529 
L 381.999095 187.722529 
L 382.928006 180.672828 
L 382.928006 180.672828 
L 383.392462 175.716587 
L 383.392462 175.716587 
L 384.089146 167.54827 
L 384.089146 167.54827 
L 385.018057 153.814761 
L 385.018057 153.814761 
L 385.946968 137.639777 
L 385.946968 137.639777 
L 388.269247 91.408594 
L 388.269247 91.408594 
L 388.965931 81.817518 
L 388.965931 81.817518 
L 389.662614 74.657396 
L 389.662614 74.657396 
L 390.359298 69.312076 
L 390.359298 69.312076 
L 391.055981 65.321587 
L 391.055981 65.321587 
L 391.752665 62.34251 
L 391.752665 62.34251 
L 392.449348 60.118506 
L 392.449348 60.118506 
L 393.146032 58.458254 
L 393.146032 58.458254 
L 394.074943 56.879822 
L 394.074943 56.879822 
L 395.003855 55.81085 
L 395.003855 55.81085 
L 395.932766 55.086931 
L 395.932766 55.086931 
L 397.093906 54.50699 
L 397.093906 54.50699 
L 398.487273 54.1174 
L 398.487273 54.1174 
" clip-path="url(#p6e877b2a4e)" style="fill: none; stroke: #1f77b4; stroke-width: 1.5; stroke-linecap: square"/>
   </g>
   <g id="line2d_24">
    <path d="M 73.832727 53.568 
L 87.069715 53.568 
L 87.069715 53.568 
L 87.301943 53.97521 
L 87.534171 56.067495 
L 87.534171 56.067495 
L 87.998627 63.586869 
L 87.998627 63.586869 
L 88.230854 63.450451 
L 88.69531 68.908696 
L 88.69531 68.908696 
L 88.927538 73.084276 
L 88.927538 73.084276 
L 89.159766 73.526063 
L 89.159766 73.526063 
L 89.624222 78.955502 
L 89.624222 78.955502 
L 90.088677 86.639385 
L 90.088677 86.639385 
L 90.320905 86.023181 
L 90.320905 86.023181 
L 91.017589 93.627286 
L 91.017589 93.627286 
L 91.482044 99.071179 
L 91.482044 99.071179 
L 91.714272 102.846699 
L 91.714272 102.846699 
L 91.9465 103.041238 
L 91.9465 103.041238 
L 93.339867 118.075237 
L 93.339867 118.075237 
L 93.572095 117.752247 
L 93.572095 117.752247 
L 93.804323 119.693915 
L 93.804323 119.693915 
L 94.036551 122.67386 
L 94.036551 122.67386 
L 94.268779 122.604298 
L 94.268779 122.604298 
L 94.501007 124.063422 
L 94.501007 124.063422 
L 94.733234 126.437684 
L 94.733234 126.437684 
L 94.965462 126.447848 
L 94.965462 126.447848 
L 95.19769 127.533725 
L 95.19769 127.533725 
L 95.429918 129.225388 
L 95.429918 129.225388 
L 95.662146 129.248984 
L 95.662146 129.248984 
L 96.126602 131.031302 
L 96.126602 131.031302 
L 96.358829 131.068126 
L 96.358829 131.068126 
L 96.823285 131.974122 
L 96.823285 131.974122 
L 97.287741 132.217131 
L 97.287741 132.217131 
L 97.519969 132.482714 
L 97.519969 132.482714 
L 97.984425 132.385623 
L 97.984425 132.385623 
L 98.216652 132.590888 
L 98.216652 132.590888 
L 98.681108 132.370148 
L 98.681108 132.370148 
L 98.913336 132.570407 
L 98.913336 132.570407 
L 99.377792 132.226171 
L 99.377792 132.226171 
L 99.61002 132.434092 
L 99.61002 132.434092 
L 99.842247 132.159264 
L 99.842247 132.159264 
L 100.074475 131.525797 
L 100.074475 131.525797 
L 100.306703 131.819675 
L 100.306703 131.819675 
L 100.538931 131.137076 
L 100.538931 131.137076 
L 100.771159 129.78536 
L 100.771159 129.78536 
L 101.003387 130.345076 
L 101.003387 130.345076 
L 101.235615 128.937843 
L 101.235615 128.937843 
L 101.467842 128.860364 
L 101.467842 128.860364 
L 101.70007 127.688785 
L 101.70007 127.688785 
L 101.932298 125.228974 
L 101.932298 125.228974 
L 102.164526 125.284593 
L 102.164526 125.284593 
L 102.396754 123.536239 
L 102.396754 123.536239 
L 102.628982 119.800506 
L 102.628982 119.800506 
L 102.86121 120.158021 
L 102.86121 120.158021 
L 103.093437 117.563529 
L 103.093437 117.563529 
L 103.325665 112.40238 
L 103.325665 112.40238 
L 103.557893 113.325026 
L 103.790121 109.711155 
L 104.022349 103.449215 
L 104.022349 103.449215 
L 104.254577 104.687598 
L 104.254577 104.687598 
L 104.486805 100.169671 
L 104.486805 100.169671 
L 104.719032 92.926964 
L 104.719032 92.926964 
L 104.95126 94.196349 
L 104.95126 94.196349 
L 105.183488 88.938926 
L 105.183488 88.938926 
L 105.415716 80.514373 
L 105.415716 80.514373 
L 105.647944 81.811032 
L 105.647944 81.811032 
L 105.880172 76.65928 
L 105.880172 76.65928 
L 106.1124 67.542577 
L 106.1124 67.542577 
L 106.344627 67.150025 
L 106.344627 67.150025 
L 106.576855 62.15415 
L 106.576855 62.15415 
L 106.809083 54.06321 
L 106.809083 54.06321 
L 107.041311 53.568 
L 107.041311 53.568 
L 131.193008 53.568 
L 131.193008 53.568 
L 131.425236 58.083271 
L 131.425236 58.083271 
L 131.657464 67.465149 
L 131.657464 67.465149 
L 131.889692 67.779508 
L 131.889692 67.779508 
L 132.586375 88.778146 
L 132.586375 88.778146 
L 132.818603 97.591268 
L 132.818603 97.591268 
L 133.050831 95.660529 
L 133.050831 95.660529 
L 133.283059 101.3198 
L 133.283059 101.3198 
L 133.515287 110.031131 
L 133.515287 110.031131 
L 133.747515 111.05761 
L 133.747515 111.05761 
L 134.21197 121.907959 
L 134.21197 121.907959 
L 134.444198 129.919224 
L 134.444198 129.919224 
L 134.676426 128.269493 
L 134.676426 128.269493 
L 134.908654 133.474463 
L 135.140882 141.293793 
L 135.140882 141.293793 
L 135.37311 139.549984 
L 135.605337 144.570884 
L 135.605337 144.570884 
L 136.069793 149.516145 
L 136.069793 149.516145 
L 136.302021 154.848799 
L 136.302021 154.848799 
L 136.534249 155.484871 
L 136.534249 155.484871 
L 136.766477 158.519107 
L 136.766477 158.519107 
L 136.998705 163.970201 
L 136.998705 163.970201 
L 137.230933 163.169366 
L 137.230933 163.169366 
L 137.46316 167.256691 
L 137.46316 167.256691 
L 137.695388 167.7447 
L 137.695388 167.7447 
L 137.927616 170.091638 
L 137.927616 170.091638 
L 138.159844 174.347148 
L 138.159844 174.347148 
L 138.392072 173.521491 
L 138.392072 173.521491 
L 138.6243 176.76707 
L 138.6243 176.76707 
L 138.856528 176.909259 
L 138.856528 176.909259 
L 139.088755 179.465702 
L 139.088755 179.465702 
L 139.320983 179.930115 
L 139.320983 179.930115 
L 139.553211 181.319523 
L 139.553211 181.319523 
L 139.785439 184.346201 
L 139.785439 184.346201 
L 140.017667 183.959777 
L 140.017667 183.959777 
L 140.249895 186.328626 
L 140.249895 186.328626 
L 140.482123 186.278982 
L 140.482123 186.278982 
L 140.71435 188.053895 
L 140.71435 188.053895 
L 140.946578 188.353391 
L 140.946578 188.353391 
L 141.178806 189.998576 
L 141.178806 189.998576 
L 141.411034 190.574585 
L 141.411034 190.574585 
L 141.87549 192.447661 
L 141.87549 192.447661 
L 142.107718 193.480473 
L 142.107718 193.480473 
L 142.339945 195.321118 
L 142.339945 195.321118 
L 142.572173 195.206457 
L 142.572173 195.206457 
L 142.804401 196.64934 
L 142.804401 196.64934 
L 143.036629 196.718851 
L 143.036629 196.718851 
L 143.268857 197.730315 
L 143.268857 197.730315 
L 143.501085 197.854475 
L 143.733313 198.978811 
L 143.733313 198.978811 
L 143.96554 199.046075 
L 143.96554 199.046075 
L 144.197768 200.234151 
L 144.197768 200.234151 
L 144.429996 200.272099 
L 144.429996 200.272099 
L 144.662224 201.026406 
L 144.662224 201.026406 
L 144.894452 201.065579 
L 144.894452 201.065579 
L 145.12668 201.637043 
L 145.12668 201.637043 
L 145.358908 201.508899 
L 145.358908 201.508899 
L 145.591135 202.075051 
L 145.591135 202.075051 
L 145.823363 201.974997 
L 145.823363 201.974997 
L 146.055591 202.352023 
L 146.055591 202.352023 
L 146.287819 201.988685 
L 146.287819 201.988685 
L 146.520047 202.503099 
L 146.520047 202.503099 
L 146.752275 202.393444 
L 146.752275 202.393444 
L 146.984503 202.558463 
L 146.984503 202.558463 
L 147.21673 202.056562 
L 147.21673 202.056562 
L 147.448958 202.568678 
L 147.448958 202.568678 
L 147.681186 202.362085 
L 147.681186 202.362085 
L 147.913414 202.574551 
L 147.913414 202.574551 
L 148.145642 202.052016 
L 148.145642 202.052016 
L 148.37787 202.576237 
L 148.37787 202.576237 
L 148.610098 202.261572 
L 148.610098 202.261572 
L 148.842325 202.520005 
L 148.842325 202.520005 
L 149.074553 201.757628 
L 149.074553 201.757628 
L 149.306781 202.354628 
L 149.306781 202.354628 
L 149.539009 201.6802 
L 149.539009 201.6802 
L 149.771237 202.027041 
L 149.771237 202.027041 
L 150.003465 200.767667 
L 150.003465 200.767667 
L 150.235693 201.475905 
L 150.235693 201.475905 
L 150.46792 200.145078 
L 150.46792 200.145078 
L 150.700148 200.612709 
L 150.700148 200.612709 
L 150.932376 198.529516 
L 150.932376 198.529516 
L 151.164604 199.064819 
L 151.164604 199.064819 
L 151.396832 197.044191 
L 151.396832 197.044191 
L 151.62906 197.614224 
L 151.62906 197.614224 
L 151.861288 194.3261 
L 151.861288 194.3261 
L 152.093515 194.867686 
L 152.093515 194.867686 
L 152.325743 191.661842 
L 152.325743 191.661842 
L 152.557971 192.113078 
L 152.557971 192.113078 
L 152.790199 187.557407 
L 152.790199 187.557407 
L 153.022427 187.796841 
L 153.022427 187.796841 
L 153.254655 183.419775 
L 153.254655 183.419775 
L 153.486883 183.29204 
L 153.71911 177.631441 
L 153.71911 177.631441 
L 153.951338 176.880301 
L 153.951338 176.880301 
L 154.183566 171.747702 
L 154.415794 170.03372 
L 154.415794 170.03372 
L 154.88025 161.165184 
L 154.88025 161.165184 
L 155.112478 156.468448 
L 155.112478 156.468448 
L 155.344705 141.289196 
L 155.344705 141.289196 
L 155.576933 144.989433 
L 155.576933 144.989433 
L 155.809161 137.733906 
L 155.809161 137.733906 
L 156.041389 137.729207 
L 156.041389 137.729207 
L 156.273617 141.909945 
L 156.273617 141.909945 
L 156.505845 142.951031 
L 156.505845 142.951031 
L 156.738073 147.279986 
L 156.738073 147.279986 
L 156.9703 153.961496 
L 156.9703 153.961496 
L 157.202528 153.116993 
L 157.434756 157.417039 
L 157.434756 157.417039 
L 157.666984 157.731449 
L 157.666984 157.731449 
L 158.13144 163.326009 
L 158.13144 163.326009 
L 158.363668 163.077638 
L 158.363668 163.077638 
L 158.595895 164.915626 
L 158.595895 164.915626 
L 158.828123 165.028397 
L 158.828123 165.028397 
L 159.292579 167.035644 
L 159.292579 167.035644 
L 159.524807 166.949789 
L 159.524807 166.949789 
L 159.757035 167.508637 
L 159.757035 167.508637 
L 160.685946 168.274743 
L 160.685946 168.274743 
L 160.918174 167.969015 
L 160.918174 167.969015 
L 161.150402 168.447218 
L 161.614858 168.189807 
L 161.614858 168.189807 
L 161.847085 168.376788 
L 161.847085 168.376788 
L 162.079313 167.87744 
L 162.079313 167.87744 
L 162.311541 168.074278 
L 162.311541 168.074278 
L 162.543769 167.786376 
L 162.543769 167.786376 
L 162.775997 167.949812 
L 162.775997 167.949812 
L 163.008225 167.575544 
L 163.008225 167.575544 
L 163.240453 167.593011 
L 163.47268 167.377735 
L 163.47268 167.377735 
L 163.704908 165.881225 
L 163.704908 165.881225 
L 163.937136 166.243338 
L 163.937136 166.243338 
L 164.169364 164.894329 
L 164.169364 164.894329 
L 164.401592 164.88917 
L 164.401592 164.88917 
L 164.63382 163.956003 
L 164.63382 163.956003 
L 164.866048 160.717727 
L 164.866048 160.717727 
L 165.098275 162.051159 
L 165.098275 162.051159 
L 165.330503 158.713698 
L 165.330503 158.713698 
L 165.562731 159.374081 
L 165.562731 159.374081 
L 165.794959 156.747463 
L 165.794959 156.747463 
L 166.027187 155.861795 
L 166.027187 155.861795 
L 166.259415 154.2138 
L 166.259415 154.2138 
L 166.491643 148.830327 
L 166.491643 148.830327 
L 166.72387 150.123462 
L 166.72387 150.123462 
L 166.956098 145.604718 
L 166.956098 145.604718 
L 167.188326 145.199397 
L 167.188326 145.199397 
L 167.420554 142.651586 
L 167.420554 142.651586 
L 167.652782 135.578954 
L 167.652782 135.578954 
L 167.88501 136.970661 
L 167.88501 136.970661 
L 168.117238 131.48785 
L 168.117238 131.48785 
L 168.349465 131.054541 
L 168.349465 131.054541 
L 168.581693 127.341892 
L 168.581693 127.341892 
L 168.813921 119.547589 
L 168.813921 119.547589 
L 169.046149 120.778873 
L 169.046149 120.778873 
L 169.278377 114.89733 
L 169.278377 114.89733 
L 169.510605 113.099332 
L 169.510605 113.099332 
L 169.742833 109.021915 
L 169.742833 109.021915 
L 169.97506 101.014941 
L 169.97506 101.014941 
L 170.207288 100.396898 
L 170.207288 100.396898 
L 170.439516 95.297753 
L 170.439516 95.297753 
L 170.671744 85.937326 
L 170.671744 85.937326 
L 170.903972 85.768323 
L 170.903972 85.768323 
L 171.1362 86.365527 
L 171.1362 86.365527 
L 171.368428 94.832114 
L 171.368428 94.832114 
L 171.600655 95.405365 
L 171.600655 95.405365 
L 171.832883 101.751066 
L 171.832883 101.751066 
L 172.065111 112.739109 
L 172.065111 112.739109 
L 172.297339 114.50585 
L 172.297339 114.50585 
L 172.529567 120.893023 
L 172.761795 131.069761 
L 172.994023 133.458426 
L 172.994023 133.458426 
L 173.22625 139.578943 
L 173.22625 139.578943 
L 173.458478 149.324159 
L 173.458478 149.324159 
L 173.690706 151.135589 
L 173.690706 151.135589 
L 173.922934 156.643324 
L 173.922934 156.643324 
L 174.155162 167.842302 
L 174.155162 167.842302 
L 174.38739 167.267723 
L 174.38739 167.267723 
L 174.619618 174.216042 
L 174.619618 174.216042 
L 175.084073 182.621238 
L 175.084073 182.621238 
L 175.316301 192.835668 
L 175.316301 192.835668 
L 175.548529 191.375063 
L 175.548529 191.375063 
L 175.780757 199.791291 
L 175.780757 199.791291 
L 176.012985 199.71228 
L 176.012985 199.71228 
L 176.245213 206.427295 
L 176.47744 207.320829 
L 176.47744 207.320829 
L 176.709668 213.472858 
L 176.709668 213.472858 
L 176.941896 214.546376 
L 176.941896 214.546376 
L 177.174124 220.519494 
L 177.174124 220.519494 
L 177.406352 221.454194 
L 177.406352 221.454194 
L 177.63858 227.09283 
L 177.63858 227.09283 
L 177.870808 227.611433 
L 177.870808 227.611433 
L 178.103036 233.454262 
L 178.103036 233.454262 
L 178.335263 233.555796 
L 178.335263 233.555796 
L 178.567491 239.510579 
L 178.567491 239.510579 
L 178.799719 238.667455 
L 178.799719 238.667455 
L 179.031947 245.173374 
L 179.031947 245.173374 
L 179.264175 243.333904 
L 179.264175 243.333904 
L 180.193086 253.292506 
L 180.193086 253.292506 
L 180.425314 253.441692 
L 180.657542 257.648479 
L 180.657542 257.648479 
L 180.88977 256.662093 
L 180.88977 256.662093 
L 181.818681 263.365105 
L 181.818681 263.365105 
L 182.050909 263.154477 
L 182.050909 263.154477 
L 182.283137 265.910617 
L 182.283137 265.910617 
L 182.515365 265.432721 
L 182.515365 265.432721 
L 182.747593 265.947901 
L 182.747593 265.947901 
L 182.979821 267.246296 
L 183.212048 267.280771 
L 183.212048 267.280771 
L 183.444276 268.667677 
L 183.444276 268.667677 
L 183.676504 268.603835 
L 183.676504 268.603835 
L 183.908732 268.842093 
L 183.908732 268.842093 
L 184.14096 269.361002 
L 184.14096 269.361002 
L 184.373188 269.450534 
L 184.373188 269.450534 
L 184.837643 270.095186 
L 184.837643 270.095186 
L 185.302099 270.077157 
L 185.302099 270.077157 
L 185.534327 270.185076 
L 185.534327 270.185076 
L 185.766555 270.083184 
L 185.766555 270.083184 
L 186.231011 270.29657 
L 186.231011 270.29657 
L 186.463238 270.142174 
L 186.463238 270.142174 
L 186.695466 270.251267 
L 186.695466 270.251267 
L 186.927694 270.07731 
L 186.927694 270.07731 
L 187.159922 270.187374 
L 187.159922 270.187374 
L 187.39215 269.871892 
L 187.39215 269.871892 
L 187.624378 270.306631 
L 187.624378 270.306631 
L 187.856606 270.079456 
L 187.856606 270.079456 
L 188.088833 269.634093 
L 188.088833 269.634093 
L 188.321061 269.680366 
L 188.321061 269.680366 
L 188.553289 268.772429 
L 188.553289 268.772429 
L 188.785517 269.295423 
L 188.785517 269.295423 
L 189.017745 268.812981 
L 189.249973 267.925576 
L 189.482201 267.677409 
L 189.482201 267.677409 
L 189.714428 265.889677 
L 189.714428 265.889677 
L 189.946656 266.14622 
L 190.178884 262.936903 
L 190.178884 262.936903 
L 190.411112 264.060728 
L 190.411112 264.060728 
L 190.64334 263.244418 
L 190.875568 260.357631 
L 190.875568 260.357631 
L 191.107796 260.468257 
L 191.107796 260.468257 
L 191.340023 255.506193 
L 191.340023 255.506193 
L 191.572251 257.11338 
L 191.572251 257.11338 
L 191.804479 255.51462 
L 191.804479 255.51462 
L 192.036707 251.491801 
L 192.036707 251.491801 
L 192.268935 251.145215 
L 192.268935 251.145215 
L 192.501163 244.291791 
L 192.733391 246.015221 
L 192.965618 243.539986 
L 192.965618 243.539986 
L 193.197846 238.515204 
L 193.197846 238.515204 
L 193.430074 237.106694 
L 193.430074 237.106694 
L 193.662302 228.470492 
L 193.662302 228.470492 
L 193.89453 229.700806 
L 193.89453 229.700806 
L 194.126758 216.57441 
L 194.126758 216.57441 
L 194.358986 220.411371 
L 194.358986 220.411371 
L 194.591213 216.84413 
L 194.591213 216.84413 
L 194.823441 220.090577 
L 194.823441 220.090577 
L 195.055669 220.768172 
L 195.055669 220.768172 
L 195.287897 232.858641 
L 195.287897 232.858641 
L 195.520125 231.055637 
L 195.520125 231.055637 
L 195.752353 245.646827 
L 195.984581 240.95004 
L 195.984581 240.95004 
L 196.913492 262.046536 
L 196.913492 262.046536 
L 197.14572 260.682409 
L 197.14572 260.682409 
L 197.377948 270.801229 
L 197.377948 270.801229 
L 197.610176 267.520204 
L 197.610176 267.520204 
L 197.842403 269.572141 
L 197.842403 269.572141 
L 198.074631 275.39832 
L 198.074631 275.39832 
L 198.306859 274.46597 
L 198.306859 274.46597 
L 198.771315 280.235508 
L 198.771315 280.235508 
L 199.003543 280.734652 
L 199.003543 280.734652 
L 199.235771 285.452992 
L 199.235771 285.452992 
L 199.467998 284.34791 
L 199.467998 284.34791 
L 199.700226 285.58706 
L 199.700226 285.58706 
L 199.932454 288.467769 
L 199.932454 288.467769 
L 200.164682 288.369095 
L 200.164682 288.369095 
L 200.39691 289.258236 
L 200.39691 289.258236 
L 200.629138 290.903728 
L 200.629138 290.903728 
L 200.861366 291.082435 
L 200.861366 291.082435 
L 201.093593 293.180338 
L 201.093593 293.180338 
L 201.325821 292.986769 
L 201.325821 292.986769 
L 201.558049 293.361088 
L 201.558049 293.361088 
L 201.790277 294.257788 
L 202.022505 294.214427 
L 202.022505 294.214427 
L 202.254733 294.430162 
L 202.254733 294.430162 
L 202.486961 294.892634 
L 202.486961 294.892634 
L 202.719188 294.91097 
L 202.719188 294.91097 
L 203.415872 295.456896 
L 203.415872 295.456896 
L 203.880328 295.277474 
L 203.880328 295.277474 
L 204.577011 295.488 
L 204.577011 295.488 
L 204.809239 295.040543 
L 204.809239 295.040543 
L 205.041467 295.096367 
L 205.041467 295.096367 
L 205.273695 294.67123 
L 205.273695 294.67123 
L 205.505923 294.990696 
L 205.505923 294.990696 
L 205.738151 294.743856 
L 205.738151 294.743856 
L 205.970378 294.220555 
L 205.970378 294.220555 
L 206.202606 294.149257 
L 206.202606 294.149257 
L 206.434834 293.205313 
L 206.667062 293.599704 
L 206.667062 293.599704 
L 206.89929 293.016391 
L 206.89929 293.016391 
L 207.131518 291.477899 
L 207.131518 291.477899 
L 207.363746 292.021527 
L 207.363746 292.021527 
L 207.595973 291.308079 
L 207.595973 291.308079 
L 207.828201 289.228001 
L 208.060429 289.719585 
L 208.060429 289.719585 
L 208.292657 288.961652 
L 208.292657 288.961652 
L 208.524885 286.329518 
L 208.524885 286.329518 
L 208.757113 287.370093 
L 208.757113 287.370093 
L 208.989341 285.849119 
L 208.989341 285.849119 
L 209.221568 281.931002 
L 209.221568 281.931002 
L 209.453796 283.406725 
L 209.453796 283.406725 
L 209.686024 281.772775 
L 209.686024 281.772775 
L 209.918252 276.894115 
L 209.918252 276.894115 
L 210.15048 278.6249 
L 210.15048 278.6249 
L 210.382708 276.518162 
L 210.382708 276.518162 
L 210.614936 270.735906 
L 210.614936 270.735906 
L 210.847163 272.413931 
L 210.847163 272.413931 
L 211.079391 269.829143 
L 211.079391 269.829143 
L 211.311619 263.311937 
L 211.311619 263.311937 
L 211.543847 264.216452 
L 211.543847 264.216452 
L 211.776075 261.291054 
L 211.776075 261.291054 
L 212.008303 254.581555 
L 212.240531 254.081544 
L 212.240531 254.081544 
L 212.472758 240.232965 
L 212.472758 240.232965 
L 212.704986 244.765755 
L 212.704986 244.765755 
L 212.937214 241.084517 
L 212.937214 241.084517 
L 213.169442 228.025742 
L 213.169442 228.025742 
L 213.40167 230.094482 
L 213.40167 230.094482 
L 213.633898 224.72914 
L 213.633898 224.72914 
L 213.866126 229.673328 
L 213.866126 229.673328 
L 214.098353 232.224561 
L 214.098353 232.224561 
L 214.330581 241.594028 
L 214.330581 241.594028 
L 214.562809 240.283733 
L 214.562809 240.283733 
L 214.795037 250.828201 
L 214.795037 250.828201 
L 215.027265 247.914345 
L 215.027265 247.914345 
L 215.259493 250.220526 
L 215.259493 250.220526 
L 215.491721 255.529431 
L 215.491721 255.529431 
L 215.723948 255.403484 
L 215.723948 255.403484 
L 215.956176 261.618129 
L 215.956176 261.618129 
L 216.188404 259.738209 
L 216.188404 259.738209 
L 217.117316 269.036939 
L 217.117316 269.036939 
L 217.349544 268.406895 
L 217.349544 268.406895 
L 217.581771 269.547166 
L 217.581771 269.547166 
L 217.813999 271.365389 
L 217.813999 271.365389 
L 218.046227 271.786798 
L 218.046227 271.786798 
L 218.278455 274.109322 
L 218.278455 274.109322 
L 218.510683 273.669935 
L 218.510683 273.669935 
L 219.439594 277.023587 
L 219.439594 277.023587 
L 219.671822 276.916383 
L 219.671822 276.916383 
L 220.136278 277.765177 
L 220.136278 277.765177 
L 221.065189 278.645329 
L 221.065189 278.645329 
L 221.297417 278.629956 
L 221.297417 278.629956 
L 221.529645 278.777151 
L 221.529645 278.777151 
L 221.761873 278.699825 
L 221.761873 278.699825 
L 221.994101 279.063827 
L 221.994101 279.063827 
L 222.458556 278.769081 
L 222.458556 278.769081 
L 223.15524 279.074961 
L 223.15524 279.074961 
L 223.387468 278.604419 
L 223.387468 278.604419 
L 223.851924 278.809174 
L 223.851924 278.809174 
L 224.084151 278.486848 
L 224.084151 278.486848 
L 224.316379 278.582049 
L 224.316379 278.582049 
L 224.548607 277.888928 
L 224.548607 277.888928 
L 224.780835 278.20155 
L 224.780835 278.20155 
L 225.013063 278.092252 
L 225.013063 278.092252 
L 225.245291 277.235747 
L 225.245291 277.235747 
L 225.477519 277.405465 
L 225.709746 275.706294 
L 225.709746 275.706294 
L 225.941974 276.294254 
L 225.941974 276.294254 
L 226.174202 276.13945 
L 226.40643 274.336447 
L 226.40643 274.336447 
L 226.638658 274.876755 
L 226.638658 274.876755 
L 226.870886 274.336651 
L 226.870886 274.336651 
L 227.103114 272.974159 
L 227.103114 272.974159 
L 227.335341 272.627419 
L 227.335341 272.627419 
L 227.567569 269.771175 
L 227.567569 269.771175 
L 227.799797 270.632022 
L 227.799797 270.632022 
L 228.032025 269.770358 
L 228.032025 269.770358 
L 228.264253 267.437669 
L 228.264253 267.437669 
L 228.496481 267.347013 
L 228.496481 267.347013 
L 228.728709 263.530175 
L 228.728709 263.530175 
L 228.960936 264.939094 
L 228.960936 264.939094 
L 229.193164 263.515976 
L 229.193164 263.515976 
L 229.425392 260.616421 
L 229.425392 260.616421 
L 229.65762 260.49175 
L 229.65762 260.49175 
L 229.889848 255.952117 
L 229.889848 255.952117 
L 230.122076 257.531775 
L 230.122076 257.531775 
L 230.354304 255.840062 
L 230.354304 255.840062 
L 230.586531 252.591775 
L 230.586531 252.591775 
L 230.818759 252.29565 
L 230.818759 252.29565 
L 231.050987 247.304934 
L 231.050987 247.304934 
L 231.283215 248.553532 
L 231.283215 248.553532 
L 231.515443 246.887049 
L 231.515443 246.887049 
L 231.747671 243.591622 
L 231.747671 243.591622 
L 231.979899 242.866784 
L 231.979899 242.866784 
L 232.212126 237.768762 
L 232.212126 237.768762 
L 232.444354 238.655912 
L 232.444354 238.655912 
L 232.676582 231.606416 
L 232.676582 231.606416 
L 232.90881 233.751664 
L 232.90881 233.751664 
L 233.141038 232.198105 
L 233.141038 232.198105 
L 233.373266 227.418221 
L 233.373266 227.418221 
L 233.605494 227.453513 
L 233.605494 227.453513 
L 233.837721 220.747027 
L 233.837721 220.747027 
L 234.069949 222.416677 
L 234.069949 222.416677 
L 234.302177 213.688032 
L 234.302177 213.688032 
L 234.534405 216.348919 
L 234.534405 216.348919 
L 234.766633 214.427527 
L 234.766633 214.427527 
L 234.998861 209.167806 
L 234.998861 209.167806 
L 235.231089 208.256447 
L 235.231089 208.256447 
L 235.463316 201.566816 
L 235.695544 202.060903 
L 235.695544 202.060903 
L 235.927772 193.855763 
L 235.927772 193.855763 
L 236.16 194.964981 
L 236.16 194.964981 
L 236.392228 185.620795 
L 236.392228 185.620795 
L 236.624456 188.009205 
L 236.624456 188.009205 
L 236.856684 177.099356 
L 236.856684 177.099356 
L 237.088911 180.572213 
L 237.088911 180.572213 
L 237.321139 169.407914 
L 237.321139 169.407914 
L 237.553367 172.52821 
L 237.553367 172.52821 
L 237.785595 161.562384 
L 237.785595 161.562384 
L 238.017823 164.480785 
L 238.017823 164.480785 
L 238.250051 153.627014 
L 238.250051 153.627014 
L 238.482279 155.842284 
L 238.482279 155.842284 
L 238.714506 146.529049 
L 238.714506 146.529049 
L 238.946734 147.441328 
L 238.946734 147.441328 
L 239.178962 139.450033 
L 239.178962 139.450033 
L 239.41119 138.922646 
L 239.41119 138.922646 
L 239.643418 132.706519 
L 239.643418 132.706519 
L 239.875646 130.108962 
L 239.875646 130.108962 
L 240.107874 126.158771 
L 240.107874 126.158771 
L 240.340101 115.881979 
L 240.340101 115.881979 
L 240.572329 117.214747 
L 240.572329 117.214747 
L 240.804557 109.978883 
L 241.036785 108.8523 
L 241.036785 108.8523 
L 241.269013 104.748734 
L 241.269013 104.748734 
L 241.501241 95.843067 
L 241.501241 95.843067 
L 241.733469 96.324436 
L 241.733469 96.324436 
L 242.197924 82.821933 
L 242.197924 82.821933 
L 242.430152 83.799279 
L 242.430152 83.799279 
L 242.894608 70.809096 
L 242.894608 70.809096 
L 243.126836 72.207494 
L 243.126836 72.207494 
L 243.359064 67.443085 
L 243.359064 67.443085 
L 243.591291 60.002263 
L 243.591291 60.002263 
L 243.823519 60.482355 
L 243.823519 60.482355 
L 244.287975 53.568 
L 244.287975 53.568 
L 282.837799 53.568 
L 282.837799 53.568 
L 283.070027 56.763323 
L 283.070027 56.763323 
L 283.534483 70.051418 
L 283.534483 70.051418 
L 283.766711 77.663849 
L 283.766711 77.663849 
L 283.998939 78.334446 
L 283.998939 78.334446 
L 284.695622 92.162186 
L 284.695622 92.162186 
L 284.92785 92.481856 
L 284.92785 92.481856 
L 285.624534 101.570827 
L 285.624534 101.570827 
L 285.856762 101.693659 
L 285.856762 101.693659 
L 286.553445 105.500436 
L 286.553445 105.500436 
L 287.017901 106.247133 
L 287.017901 106.247133 
L 287.250129 106.134516 
L 287.250129 106.134516 
L 287.714584 106.575844 
L 287.714584 106.575844 
L 287.946812 106.478191 
L 287.946812 106.478191 
L 288.17904 106.686929 
L 288.411268 106.572217 
L 288.411268 106.572217 
L 288.643496 106.224457 
L 288.643496 106.224457 
L 288.875724 105.045625 
L 288.875724 105.045625 
L 289.107952 105.608508 
L 289.107952 105.608508 
L 289.340179 104.473957 
L 289.340179 104.473957 
L 289.572407 101.709849 
L 289.572407 101.709849 
L 289.804635 102.098112 
L 289.804635 102.098112 
L 290.036863 100.598997 
L 290.036863 100.598997 
L 290.269091 96.988905 
L 290.269091 96.988905 
L 290.501319 96.881599 
L 290.501319 96.881599 
L 290.733547 94.605092 
L 290.733547 94.605092 
L 290.965774 89.963107 
L 290.965774 89.963107 
L 291.198002 89.038979 
L 291.198002 89.038979 
L 291.43023 86.3238 
L 291.43023 86.3238 
L 291.662458 81.934732 
L 291.662458 81.934732 
L 291.894686 74.755407 
L 291.894686 74.755407 
L 292.126914 75.90053 
L 292.126914 75.90053 
L 292.359142 72.239109 
L 292.359142 72.239109 
L 292.591369 65.261115 
L 292.591369 65.261115 
L 292.823597 64.460944 
L 292.823597 64.460944 
L 293.288053 54.048654 
L 293.288053 54.048654 
L 293.520281 53.568 
L 293.520281 53.568 
L 296.074787 53.568 
L 296.074787 53.568 
L 296.307015 53.786749 
L 296.307015 53.786749 
L 296.539243 57.027169 
L 296.539243 57.027169 
L 296.771471 57.516047 
L 296.771471 57.516047 
L 297.468155 68.026806 
L 297.468155 68.026806 
L 297.700382 72.512557 
L 297.700382 72.512557 
L 297.93261 72.557451 
L 297.93261 72.557451 
L 298.397066 79.218532 
L 298.397066 79.218532 
L 298.629294 82.781687 
L 298.629294 82.781687 
L 298.861522 83.186548 
L 298.861522 83.186548 
L 299.325977 89.839304 
L 299.325977 89.839304 
L 299.558205 94.13409 
L 299.558205 94.13409 
L 299.790433 94.415353 
L 299.790433 94.415353 
L 300.254889 101.206416 
L 300.254889 101.206416 
L 300.487117 105.622349 
L 300.487117 105.622349 
L 300.719345 105.274844 
L 300.719345 105.274844 
L 300.951572 108.514856 
L 300.951572 108.514856 
L 301.1838 113.543418 
L 301.1838 113.543418 
L 301.416028 113.907318 
L 301.416028 113.907318 
L 301.648256 117.088646 
L 301.648256 117.088646 
L 301.880484 122.174257 
L 301.880484 122.174257 
L 302.112712 122.81707 
L 302.112712 122.81707 
L 302.34494 126.06219 
L 302.34494 126.06219 
L 302.577167 131.038963 
L 302.577167 131.038963 
L 302.809395 132.247366 
L 302.809395 132.247366 
L 303.041623 135.010402 
L 303.041623 135.010402 
L 303.273851 140.143971 
L 303.273851 140.143971 
L 303.506079 140.899912 
L 303.506079 140.899912 
L 303.738307 143.736494 
L 303.738307 143.736494 
L 303.970535 149.104746 
L 303.970535 149.104746 
L 304.202762 149.032222 
L 304.202762 149.032222 
L 304.43499 152.121618 
L 304.43499 152.121618 
L 304.667218 157.73247 
L 304.667218 157.73247 
L 304.899446 156.345922 
L 304.899446 156.345922 
L 305.131674 160.273846 
L 305.131674 160.273846 
L 305.363902 160.837699 
L 305.363902 160.837699 
L 305.59613 162.891934 
L 305.59613 162.891934 
L 305.828357 167.424519 
L 305.828357 167.424519 
L 306.060585 166.858316 
L 306.060585 166.858316 
L 306.292813 169.624824 
L 306.292813 169.624824 
L 306.525041 169.897609 
L 306.525041 169.897609 
L 306.989497 172.884398 
L 306.989497 172.884398 
L 307.221725 173.972727 
L 307.221725 173.972727 
L 307.453952 176.386418 
L 307.453952 176.386418 
L 307.68618 176.575084 
L 307.68618 176.575084 
L 307.918408 177.782926 
L 307.918408 177.782926 
L 308.150636 178.05474 
L 308.150636 178.05474 
L 308.382864 179.376476 
L 308.382864 179.376476 
L 308.615092 179.536183 
L 308.615092 179.536183 
L 308.84732 180.508166 
L 308.84732 180.508166 
L 309.544003 181.974237 
L 309.544003 181.974237 
L 309.776231 182.125823 
L 309.776231 182.125823 
L 310.008459 182.455197 
L 310.008459 182.455197 
L 310.240687 182.272098 
L 310.240687 182.272098 
L 310.472915 182.384716 
L 310.472915 182.384716 
L 310.705142 182.364337 
L 310.705142 182.364337 
L 310.93737 182.685029 
L 310.93737 182.685029 
L 311.169598 181.892519 
L 311.169598 181.892519 
L 311.401826 182.229911 
L 311.401826 182.229911 
L 311.634054 182.221791 
L 311.634054 182.221791 
L 311.866282 182.384665 
L 312.330737 182.327769 
L 312.330737 182.327769 
L 312.562965 182.193598 
L 312.562965 182.193598 
L 312.795193 181.79839 
L 312.795193 181.79839 
L 313.027421 181.731279 
L 313.027421 181.731279 
L 313.259649 180.326855 
L 313.259649 180.326855 
L 313.491877 181.31462 
L 313.491877 181.31462 
L 313.724105 179.67873 
L 313.956332 180.206117 
L 313.956332 180.206117 
L 314.18856 178.435596 
L 314.18856 178.435596 
L 314.420788 178.415882 
L 314.420788 178.415882 
L 314.885244 176.057861 
L 314.885244 176.057861 
L 315.117472 174.855536 
L 315.117472 174.855536 
L 315.3497 170.515447 
L 315.3497 170.515447 
L 315.581927 171.830441 
L 315.581927 171.830441 
L 315.814155 167.644646 
L 315.814155 167.644646 
L 316.046383 168.339198 
L 316.046383 168.339198 
L 316.278611 164.451775 
L 316.278611 164.451775 
L 316.510839 164.308462 
L 316.510839 164.308462 
L 316.743067 160.95905 
L 316.743067 160.95905 
L 316.975295 159.727766 
L 316.975295 159.727766 
L 317.207522 157.676443 
L 317.207522 157.676443 
L 317.43975 150.222698 
L 317.43975 150.222698 
L 317.671978 151.962727 
L 317.671978 151.962727 
L 317.904206 146.06147 
L 317.904206 146.06147 
L 318.136434 145.695425 
L 318.136434 145.695425 
L 318.60089 139.191549 
L 318.60089 139.191549 
L 318.833117 135.592386 
L 318.833117 135.592386 
L 319.065345 127.692411 
L 319.065345 127.692411 
L 319.297573 128.162595 
L 319.297573 128.162595 
L 319.529801 122.486011 
L 319.529801 122.486011 
L 319.762029 120.416965 
L 319.762029 120.416965 
L 319.994257 115.893011 
L 319.994257 115.893011 
L 320.226485 107.802582 
L 320.226485 107.802582 
L 320.458712 107.535722 
L 320.458712 107.535722 
L 320.69094 101.93156 
L 320.69094 101.93156 
L 320.923168 92.405603 
L 320.923168 92.405603 
L 321.155396 93.537856 
L 321.155396 93.537856 
L 321.619852 77.371196 
L 321.619852 77.371196 
L 321.85208 78.734404 
L 321.85208 78.734404 
L 322.316535 62.097509 
L 322.316535 62.097509 
L 322.548763 63.330683 
L 322.548763 63.330683 
L 323.013219 53.568 
L 323.013219 53.568 
L 330.908966 53.568 
L 330.908966 53.568 
L 331.141194 54.285841 
L 331.141194 54.285841 
L 331.373422 58.165602 
L 331.373422 58.165602 
L 331.60565 58.696615 
L 331.60565 58.696615 
L 332.070105 65.403969 
L 332.070105 65.403969 
L 332.534561 78.571224 
L 332.534561 78.571224 
L 332.766789 78.563512 
L 332.766789 78.563512 
L 333.231245 90.718078 
L 333.231245 90.718078 
L 333.463472 101.258613 
L 333.463472 101.258613 
L 333.6957 101.318268 
L 333.6957 101.318268 
L 334.160156 114.806061 
L 334.160156 114.806061 
L 334.392384 122.851494 
L 334.392384 122.851494 
L 334.624612 121.26821 
L 334.624612 121.26821 
L 335.089067 132.753558 
L 335.089067 132.753558 
L 335.321295 131.950935 
L 335.321295 131.950935 
L 335.553523 135.361942 
L 335.785751 140.559966 
L 335.785751 140.559966 
L 336.017979 139.740182 
L 336.017979 139.740182 
L 336.482435 145.993797 
L 336.482435 145.993797 
L 336.714663 145.133359 
L 336.714663 145.133359 
L 336.94689 147.190505 
L 336.94689 147.190505 
L 337.179118 147.774532 
L 337.179118 147.774532 
L 337.643574 150.048537 
L 337.643574 150.048537 
L 337.875802 150.213505 
L 337.875802 150.213505 
L 338.340258 151.374767 
L 338.340258 151.374767 
L 338.572485 151.439682 
L 338.572485 151.439682 
L 339.036941 151.876822 
L 339.036941 151.876822 
L 339.501397 151.760067 
L 339.501397 151.760067 
L 339.965853 152.132394 
L 339.965853 152.132394 
L 340.662536 151.712977 
L 340.662536 151.712977 
L 341.126992 151.967069 
L 341.126992 151.967069 
L 341.35922 151.111329 
L 341.35922 151.111329 
L 341.591448 151.431459 
L 341.591448 151.431459 
L 341.823675 150.763007 
L 341.823675 150.763007 
L 342.055903 150.91158 
L 342.055903 150.91158 
L 342.288131 150.606262 
L 342.288131 150.606262 
L 342.520359 148.924354 
L 342.520359 148.924354 
L 342.752587 149.40271 
L 342.984815 148.078114 
L 342.984815 148.078114 
L 343.217043 148.101915 
L 343.217043 148.101915 
L 343.44927 147.106335 
L 343.681498 144.832535 
L 343.681498 144.832535 
L 343.913726 145.379789 
L 343.913726 145.379789 
L 344.145954 143.506151 
L 344.145954 143.506151 
L 344.378182 143.294808 
L 344.378182 143.294808 
L 344.61041 141.9815 
L 344.61041 141.9815 
L 344.842638 139.044354 
L 344.842638 139.044354 
L 345.074865 139.469492 
L 345.307093 139.092466 
L 345.539321 139.657239 
L 345.539321 139.657239 
L 345.771549 140.985308 
L 345.771549 140.985308 
L 346.003777 144.383955 
L 346.003777 144.383955 
L 346.236005 144.839532 
L 346.236005 144.839532 
L 346.468233 147.494597 
L 346.468233 147.494597 
L 346.70046 153.156575 
L 346.70046 153.156575 
L 346.932688 152.163498 
L 346.932688 152.163498 
L 347.164916 157.513262 
L 347.164916 157.513262 
L 347.397144 158.603226 
L 347.397144 158.603226 
L 347.629372 162.363168 
L 347.629372 162.363168 
L 347.8616 173.638501 
L 347.8616 173.638501 
L 348.093828 171.485132 
L 348.093828 171.485132 
L 348.326055 181.252565 
L 348.326055 181.252565 
L 348.558283 182.269391 
L 348.558283 182.269391 
L 349.022739 194.15771 
L 349.022739 194.15771 
L 349.254967 200.483748 
L 349.254967 200.483748 
L 349.487195 214.837547 
L 349.487195 214.837547 
L 349.719423 210.611353 
L 349.719423 210.611353 
L 349.95165 222.675927 
L 349.95165 222.675927 
L 350.183878 219.60645 
L 350.183878 219.60645 
L 350.416106 230.978823 
L 350.416106 230.978823 
L 350.648334 227.560716 
L 350.648334 227.560716 
L 350.880562 238.613623 
L 350.880562 238.613623 
L 351.11279 234.779267 
L 351.11279 234.779267 
L 352.041701 249.872408 
L 352.041701 249.872408 
L 352.273929 249.78737 
L 352.273929 249.78737 
L 352.506157 256.542171 
L 352.506157 256.542171 
L 352.738385 254.668227 
L 352.738385 254.668227 
L 353.20284 260.429185 
L 353.20284 260.429185 
L 353.435068 261.397236 
L 353.435068 261.397236 
L 353.667296 266.180695 
L 353.667296 266.180695 
L 353.899524 265.264995 
L 353.899524 265.264995 
L 354.828435 273.860185 
L 354.828435 273.860185 
L 355.060663 273.705483 
L 355.060663 273.705483 
L 355.292891 277.440093 
L 355.292891 277.440093 
L 355.525119 276.650238 
L 355.525119 276.650238 
L 355.757347 277.521351 
L 355.757347 277.521351 
L 355.989575 279.422058 
L 355.989575 279.422058 
L 356.221803 279.4835 
L 356.221803 279.4835 
L 356.45403 281.559287 
L 356.45403 281.559287 
L 356.686258 281.072249 
L 356.686258 281.072249 
L 357.61517 283.402894 
L 357.61517 283.402894 
L 357.847398 283.569701 
L 358.079625 283.549884 
L 358.079625 283.549884 
L 359.008537 284.066341 
L 359.008537 284.066341 
L 359.472993 283.766743 
L 359.472993 283.766743 
L 359.937448 283.966186 
L 359.937448 283.966186 
L 360.169676 283.796315 
L 360.169676 283.796315 
L 360.401904 283.880944 
L 360.401904 283.880944 
L 360.634132 283.533132 
L 360.634132 283.533132 
L 360.86636 283.686557 
L 360.86636 283.686557 
L 361.098588 283.669856 
L 361.098588 283.669856 
L 361.330815 283.156923 
L 361.330815 283.156923 
L 361.563043 283.118414 
L 361.563043 283.118414 
L 361.795271 281.916956 
L 361.795271 281.916956 
L 362.027499 282.478358 
L 362.027499 282.478358 
L 362.259727 281.869662 
L 362.259727 281.869662 
L 362.491955 280.665498 
L 362.491955 280.665498 
L 362.724183 280.387912 
L 362.724183 280.387912 
L 362.95641 278.047614 
L 362.95641 278.047614 
L 363.188638 278.734759 
L 363.188638 278.734759 
L 363.420866 277.695614 
L 363.420866 277.695614 
L 363.653094 275.883877 
L 363.653094 275.883877 
L 363.885322 275.190399 
L 363.885322 275.190399 
L 364.11755 272.363624 
L 364.11755 272.363624 
L 364.349778 272.580023 
L 364.349778 272.580023 
L 364.582005 267.714999 
L 364.582005 267.714999 
L 364.814233 269.392566 
L 364.814233 269.392566 
L 365.046461 267.811835 
L 365.046461 267.811835 
L 365.278689 264.278302 
L 365.278689 264.278302 
L 365.510917 264.275085 
L 365.510917 264.275085 
L 365.743145 258.701924 
L 365.743145 258.701924 
L 365.975373 260.431841 
L 365.975373 260.431841 
L 366.2076 258.991308 
L 366.2076 258.991308 
L 366.439828 254.394983 
L 366.439828 254.394983 
L 366.672056 254.985241 
L 366.672056 254.985241 
L 366.904284 247.791002 
L 366.904284 247.791002 
L 367.136512 249.762344 
L 367.136512 249.762344 
L 367.36874 248.982143 
L 367.36874 248.982143 
L 367.600968 242.948962 
L 367.600968 242.948962 
L 367.833195 244.685263 
L 367.833195 244.685263 
L 368.065423 242.327906 
L 368.065423 242.327906 
L 368.297651 237.968665 
L 368.297651 237.968665 
L 368.529879 237.430706 
L 368.762107 230.590969 
L 368.762107 230.590969 
L 368.994335 232.031809 
L 368.994335 232.031809 
L 369.226563 229.765516 
L 369.226563 229.765516 
L 369.45879 225.346162 
L 369.45879 225.346162 
L 369.691018 224.241948 
L 369.691018 224.241948 
L 369.923246 217.962592 
L 369.923246 217.962592 
L 370.155474 218.52619 
L 370.155474 218.52619 
L 370.387702 210.374882 
L 370.387702 210.374882 
L 370.61993 212.473959 
L 370.61993 212.473959 
L 371.316613 204.114065 
L 371.316613 204.114065 
L 371.548841 199.28321 
L 371.548841 199.28321 
L 371.781069 198.289674 
L 371.781069 198.289674 
L 372.013297 193.130823 
L 372.245525 193.057737 
L 372.477753 187.806698 
L 372.477753 187.806698 
L 372.70998 188.214828 
L 372.70998 188.214828 
L 372.942208 187.539736 
L 372.942208 187.539736 
L 373.174436 187.79776 
L 373.174436 187.79776 
L 373.406664 190.293935 
L 373.406664 190.293935 
L 373.638892 190.406502 
L 373.638892 190.406502 
L 373.87112 192.848692 
L 373.87112 192.848692 
L 374.103348 192.972392 
L 374.335575 194.727131 
L 374.335575 194.727131 
L 374.567803 194.943019 
L 374.567803 194.943019 
L 374.800031 196.056732 
L 374.800031 196.056732 
L 375.032259 196.192077 
L 375.032259 196.192077 
L 375.264487 197.034385 
L 375.264487 197.034385 
L 376.193398 197.623622 
L 376.193398 197.623622 
L 376.425626 197.527348 
L 376.425626 197.527348 
L 376.657854 197.862953 
L 376.890082 197.745483 
L 377.12231 198.160559 
L 377.12231 198.160559 
L 377.354538 197.87138 
L 377.354538 197.87138 
L 377.586766 198.132622 
L 377.586766 198.132622 
L 377.818993 197.434904 
L 377.818993 197.434904 
L 378.051221 197.88374 
L 378.051221 197.88374 
L 378.283449 196.34918 
L 378.283449 196.34918 
L 378.515677 197.226881 
L 378.515677 197.226881 
L 378.747905 194.695721 
L 378.747905 194.695721 
L 378.980133 195.634251 
L 378.980133 195.634251 
L 379.212361 193.19492 
L 379.212361 193.19492 
L 379.444588 193.918788 
L 379.444588 193.918788 
L 379.676816 191.046557 
L 379.676816 191.046557 
L 379.909044 191.651218 
L 379.909044 191.651218 
L 380.141272 187.704142 
L 380.141272 187.704142 
L 380.3735 188.128871 
L 380.3735 188.128871 
L 380.605728 184.443292 
L 380.605728 184.443292 
L 380.837956 184.628638 
L 380.837956 184.628638 
L 381.070183 179.887928 
L 381.070183 179.887928 
L 381.302411 179.693592 
L 381.302411 179.693592 
L 381.534639 175.544979 
L 381.534639 175.544979 
L 381.766867 174.552515 
L 381.999095 170.159361 
L 381.999095 170.159361 
L 382.231323 168.317083 
L 382.231323 168.317083 
L 382.928006 158.008473 
L 382.928006 158.008473 
L 383.160234 147.847874 
L 383.160234 147.847874 
L 383.392462 149.931067 
L 383.392462 149.931067 
L 383.62469 140.839288 
L 383.62469 140.839288 
L 383.856918 140.591989 
L 383.856918 140.591989 
L 384.089146 133.870846 
L 384.089146 133.870846 
L 384.321373 130.697484 
L 384.321373 130.697484 
L 384.553601 125.55084 
L 384.553601 125.55084 
L 384.785829 113.185953 
L 384.785829 113.185953 
L 385.018057 114.008188 
L 385.018057 114.008188 
L 385.250285 105.477657 
L 385.250285 105.477657 
L 385.482513 102.366555 
L 385.482513 102.366555 
L 386.643652 71.662078 
L 386.643652 71.662078 
L 387.572563 53.568 
L 387.572563 53.568 
L 397.093906 53.647215 
L 397.093906 53.647215 
L 397.326133 53.777045 
L 397.326133 53.777045 
L 397.558361 53.568 
L 397.558361 53.568 
L 398.487273 53.568 
L 398.487273 53.568 
" clip-path="url(#p6e877b2a4e)" style="fill: none; stroke: #ff7f0e; stroke-width: 1.5; stroke-linecap: square"/>
   </g>
   <g id="patch_3">
    <path d="M 57.6 307.584 
L 57.6 41.472 
" style="fill: none; stroke: #000000; stroke-width: 0.8; stroke-linejoin: miter; stroke-linecap: square"/>
   </g>
   <g id="patch_4">
    <path d="M 414.72 307.584 
L 414.72 41.472 
" style="fill: none; stroke: #000000; stroke-width: 0.8; stroke-linejoin: miter; stroke-linecap: square"/>
   </g>
   <g id="patch_5">
    <path d="M 57.6 307.584 
L 414.72 307.584 
" style="fill: none; stroke: #000000; stroke-width: 0.8; stroke-linejoin: miter; stroke-linecap: square"/>
   </g>
   <g id="patch_6">
    <path d="M 57.6 41.472 
L 414.72 41.472 
" style="fill: none; stroke: #000000; stroke-width: 0.8; stroke-linejoin: miter; stroke-linecap: square"/>
   </g>
   <g id="text_14">
    <!-- Actual speed vs Expected speed -->
    <g transform="translate(138.808125 35.472) scale(0.12 -0.12)">
     <defs>
      <path id="DejaVuSans-41" d="M 2188 4044 
L 1331 1722 
L 3047 1722 
L 2188 4044 
z
M 1831 4666 
L 2547 4666 
L 4325 0 
L 3669 0 
L 3244 1197 
L 1141 1197 
L 716 0 
L 50 0 
L 1831 4666 
z
" transform="scale(0.015625)"/>
      <path id="DejaVuSans-75" d="M 544 1381 
L 544 3500 
L 1119 3500 
L 1119 1403 
Q 1119 906 1312 657 
Q 1506 409 1894 409 
Q 2359 409 2629 706 
Q 2900 1003 2900 1516 
L 2900 3500 
L 3475 3500 
L 3475 0 
L 2900 0 
L 2900 538 
Q 2691 219 2414 64 
Q 2138 -91 1772 -91 
Q 1169 -91 856 284 
Q 544 659 544 1381 
z
M 1991 3584 
L 1991 3584 
z
" transform="scale(0.015625)"/>
      <path id="DejaVuSans-61" d="M 2194 1759 
Q 1497 1759 1228 1600 
Q 959 1441 959 1056 
Q 959 750 1161 570 
Q 1363 391 1709 391 
Q 2188 391 2477 730 
Q 2766 1069 2766 1631 
L 2766 1759 
L 2194 1759 
z
M 3341 1997 
L 3341 0 
L 2766 0 
L 2766 531 
Q 2569 213 2275 61 
Q 1981 -91 1556 -91 
Q 1019 -91 701 211 
Q 384 513 384 1019 
Q 384 1609 779 1909 
Q 1175 2209 1959 2209 
L 2766 2209 
L 2766 2266 
Q 2766 2663 2505 2880 
Q 2244 3097 1772 3097 
Q 1472 3097 1187 3025 
Q 903 2953 641 2809 
L 641 3341 
Q 956 3463 1253 3523 
Q 1550 3584 1831 3584 
Q 2591 3584 2966 3190 
Q 3341 2797 3341 1997 
z
" transform="scale(0.015625)"/>
      <path id="DejaVuSans-20" transform="scale(0.015625)"/>
      <path id="DejaVuSans-70" d="M 1159 525 
L 1159 -1331 
L 581 -1331 
L 581 3500 
L 1159 3500 
L 1159 2969 
Q 1341 3281 1617 3432 
Q 1894 3584 2278 3584 
Q 2916 3584 3314 3078 
Q 3713 2572 3713 1747 
Q 3713 922 3314 415 
Q 2916 -91 2278 -91 
Q 1894 -91 1617 61 
Q 1341 213 1159 525 
z
M 3116 1747 
Q 3116 2381 2855 2742 
Q 2594 3103 2138 3103 
Q 1681 3103 1420 2742 
Q 1159 2381 1159 1747 
Q 1159 1113 1420 752 
Q 1681 391 2138 391 
Q 2594 391 2855 752 
Q 3116 1113 3116 1747 
z
" transform="scale(0.015625)"/>
      <path id="DejaVuSans-64" d="M 2906 2969 
L 2906 4863 
L 3481 4863 
L 3481 0 
L 2906 0 
L 2906 525 
Q 2725 213 2448 61 
Q 2172 -91 1784 -91 
Q 1150 -91 751 415 
Q 353 922 353 1747 
Q 353 2572 751 3078 
Q 1150 3584 1784 3584 
Q 2172 3584 2448 3432 
Q 2725 3281 2906 2969 
z
M 947 1747 
Q 947 1113 1208 752 
Q 1469 391 1925 391 
Q 2381 391 2643 752 
Q 2906 1113 2906 1747 
Q 2906 2381 2643 2742 
Q 2381 3103 1925 3103 
Q 1469 3103 1208 2742 
Q 947 2381 947 1747 
z
" transform="scale(0.015625)"/>
      <path id="DejaVuSans-76" d="M 191 3500 
L 800 3500 
L 1894 563 
L 2988 3500 
L 3597 3500 
L 2284 0 
L 1503 0 
L 191 3500 
z
" transform="scale(0.015625)"/>
      <path id="DejaVuSans-45" d="M 628 4666 
L 3578 4666 
L 3578 4134 
L 1259 4134 
L 1259 2753 
L 3481 2753 
L 3481 2222 
L 1259 2222 
L 1259 531 
L 3634 531 
L 3634 0 
L 628 0 
L 628 4666 
z
" transform="scale(0.015625)"/>
      <path id="DejaVuSans-78" d="M 3513 3500 
L 2247 1797 
L 3578 0 
L 2900 0 
L 1881 1375 
L 863 0 
L 184 0 
L 1544 1831 
L 300 3500 
L 978 3500 
L 1906 2253 
L 2834 3500 
L 3513 3500 
z
" transform="scale(0.015625)"/>
     </defs>
     <use xlink:href="#DejaVuSans-41"/>
     <use xlink:href="#DejaVuSans-63" x="66.658203"/>
     <use xlink:href="#DejaVuSans-74" x="121.638672"/>
     <use xlink:href="#DejaVuSans-75" x="160.847656"/>
     <use xlink:href="#DejaVuSans-61" x="224.226562"/>
     <use xlink:href="#DejaVuSans-6c" x="285.505859"/>
     <use xlink:href="#DejaVuSans-20" x="313.289062"/>
     <use xlink:href="#DejaVuSans-73" x="345.076172"/>
     <use xlink:href="#DejaVuSans-70" x="397.175781"/>
     <use xlink:href="#DejaVuSans-65" x="460.652344"/>
     <use xlink:href="#DejaVuSans-65" x="522.175781"/>
     <use xlink:href="#DejaVuSans-64" x="583.699219"/>
     <use xlink:href="#DejaVuSans-20" x="647.175781"/>
     <use xlink:href="#DejaVuSans-76" x="678.962891"/>
     <use xlink:href="#DejaVuSans-73" x="738.142578"/>
     <use xlink:href="#DejaVuSans-20" x="790.242188"/>
     <use xlink:href="#DejaVuSans-45" x="822.029297"/>
     <use xlink:href="#DejaVuSans-78" x="885.212891"/>
     <use xlink:href="#DejaVuSans-70" x="944.392578"/>
     <use xlink:href="#DejaVuSans-65" x="1007.869141"/>
     <use xlink:href="#DejaVuSans-63" x="1069.392578"/>
     <use xlink:href="#DejaVuSans-74" x="1124.373047"/>
     <use xlink:href="#DejaVuSans-65" x="1163.582031"/>
     <use xlink:href="#DejaVuSans-64" x="1225.105469"/>
     <use xlink:href="#DejaVuSans-20" x="1288.582031"/>
     <use xlink:href="#DejaVuSans-73" x="1320.369141"/>
     <use xlink:href="#DejaVuSans-70" x="1372.46875"/>
     <use xlink:href="#DejaVuSans-65" x="1435.945312"/>
     <use xlink:href="#DejaVuSans-65" x="1497.46875"/>
     <use xlink:href="#DejaVuSans-64" x="1558.992188"/>
    </g>
   </g>
   <g id="legend_1">
    <g id="patch_7">
     <path d="M 64.6 302.584 
L 176.65 302.584 
Q 178.65 302.584 178.65 300.584 
L 178.65 272.22775 
Q 178.65 270.22775 176.65 270.22775 
L 64.6 270.22775 
Q 62.6 270.22775 62.6 272.22775 
L 62.6 300.584 
Q 62.6 302.584 64.6 302.584 
z
" style="fill: #ffffff; opacity: 0.8; stroke: #cccccc; stroke-linejoin: miter"/>
    </g>
    <g id="line2d_25">
     <path d="M 66.6 278.326187 
L 76.6 278.326187 
L 86.6 278.326187 
" style="fill: none; stroke: #1f77b4; stroke-width: 1.5; stroke-linecap: square"/>
    </g>
    <g id="text_15">
     <!-- Actual speed -->
     <g transform="translate(94.6 281.826187) scale(0.1 -0.1)">
      <use xlink:href="#DejaVuSans-41"/>
      <use xlink:href="#DejaVuSans-63" x="66.658203"/>
      <use xlink:href="#DejaVuSans-74" x="121.638672"/>
      <use xlink:href="#DejaVuSans-75" x="160.847656"/>
      <use xlink:href="#DejaVuSans-61" x="224.226562"/>
      <use xlink:href="#DejaVuSans-6c" x="285.505859"/>
      <use xlink:href="#DejaVuSans-20" x="313.289062"/>
      <use xlink:href="#DejaVuSans-73" x="345.076172"/>
      <use xlink:href="#DejaVuSans-70" x="397.175781"/>
      <use xlink:href="#DejaVuSans-65" x="460.652344"/>
      <use xlink:href="#DejaVuSans-65" x="522.175781"/>
      <use xlink:href="#DejaVuSans-64" x="583.699219"/>
     </g>
    </g>
    <g id="line2d_26">
     <path d="M 66.6 293.004312 
L 76.6 293.004312 
L 86.6 293.004312 
" style="fill: none; stroke: #ff7f0e; stroke-width: 1.5; stroke-linecap: square"/>
    </g>
    <g id="text_16">
     <!-- Expected speed -->
     <g transform="translate(94.6 296.504312) scale(0.1 -0.1)">
      <use xlink:href="#DejaVuSans-45"/>
      <use xlink:href="#DejaVuSans-78" x="63.183594"/>
      <use xlink:href="#DejaVuSans-70" x="122.363281"/>
      <use xlink:href="#DejaVuSans-65" x="185.839844"/>
      <use xlink:href="#DejaVuSans-63" x="247.363281"/>
      <use xlink:href="#DejaVuSans-74" x="302.34375"/>
      <use xlink:href="#DejaVuSans-65" x="341.552734"/>
      <use xlink:href="#DejaVuSans-64" x="403.076172"/>
      <use xlink:href="#DejaVuSans-20" x="466.552734"/>
      <use xlink:href="#DejaVuSans-73" x="498.339844"/>
      <use xlink:href="#DejaVuSans-70" x="550.439453"/>
      <use xlink:href="#DejaVuSans-65" x="613.916016"/>
      <use xlink:href="#DejaVuSans-65" x="675.439453"/>
      <use xlink:href="#DejaVuSans-64" x="736.962891"/>
     </g>
    </g>
   </g>
  </g>
 </g>
 <defs>
  <clipPath id="p6e877b2a4e">
   <rect x="57.6" y="41.472" width="357.12" height="266.112"/>
  </clipPath>
 </defs>
</svg>
