<?xml version="1.0" encoding="utf-8" standalone="no"?>
<!DOCTYPE svg PUBLIC "-//W3C//DTD SVG 1.1//EN"
  "http://www.w3.org/Graphics/SVG/1.1/DTD/svg11.dtd">
<svg xmlns:xlink="http://www.w3.org/1999/xlink" width="460.8pt" height="345.6pt" viewBox="0 0 460.8 345.6" xmlns="http://www.w3.org/2000/svg" version="1.1">
 <metadata>
  <rdf:RDF xmlns:dc="http://purl.org/dc/elements/1.1/" xmlns:cc="http://creativecommons.org/ns#" xmlns:rdf="http://www.w3.org/1999/02/22-rdf-syntax-ns#">
   <cc:Work>
    <dc:type rdf:resource="http://purl.org/dc/dcmitype/StillImage"/>
    <dc:date>2024-01-30T20:59:02.193636</dc:date>
    <dc:format>image/svg+xml</dc:format>
    <dc:creator>
     <cc:Agent>
      <dc:title>Matplotlib v3.7.1, https://matplotlib.org/</dc:title>
     </cc:Agent>
    </dc:creator>
   </cc:Work>
  </rdf:RDF>
 </metadata>
 <defs>
  <style type="text/css">*{stroke-linejoin: round; stroke-linecap: butt}</style>
 </defs>
 <g id="figure_1">
  <g id="patch_1">
   <path d="M 0 345.6 
L 460.8 345.6 
L 460.8 0 
L 0 0 
z
" style="fill: #ffffff"/>
  </g>
  <g id="axes_1">
   <g id="patch_2">
    <path d="M 57.6 307.584 
L 414.72 307.584 
L 414.72 41.472 
L 57.6 41.472 
z
" style="fill: #ffffff"/>
   </g>
   <g id="matplotlib.axis_1">
    <g id="xtick_1">
     <g id="line2d_1">
      <path d="M 73.832727 307.584 
L 73.832727 41.472 
" clip-path="url(#p0f1d4d149c)" style="fill: none; stroke: #b0b0b0; stroke-width: 0.8; stroke-linecap: square"/>
     </g>
     <g id="line2d_2">
      <defs>
       <path id="md9ef450097" d="M 0 0 
L 0 3.5 
" style="stroke: #000000; stroke-width: 0.8"/>
      </defs>
      <g>
       <use xlink:href="#md9ef450097" x="73.832727" y="307.584" style="stroke: #000000; stroke-width: 0.8"/>
      </g>
     </g>
     <g id="text_1">
      <!-- 0 -->
      <g transform="translate(70.651477 322.182437) scale(0.1 -0.1)">
       <defs>
        <path id="DejaVuSans-30" d="M 2034 4250 
Q 1547 4250 1301 3770 
Q 1056 3291 1056 2328 
Q 1056 1369 1301 889 
Q 1547 409 2034 409 
Q 2525 409 2770 889 
Q 3016 1369 3016 2328 
Q 3016 3291 2770 3770 
Q 2525 4250 2034 4250 
z
M 2034 4750 
Q 2819 4750 3233 4129 
Q 3647 3509 3647 2328 
Q 3647 1150 3233 529 
Q 2819 -91 2034 -91 
Q 1250 -91 836 529 
Q 422 1150 422 2328 
Q 422 3509 836 4129 
Q 1250 4750 2034 4750 
z
" transform="scale(0.015625)"/>
       </defs>
       <use xlink:href="#DejaVuSans-30"/>
      </g>
     </g>
    </g>
    <g id="xtick_2">
     <g id="line2d_3">
      <path d="M 118.015436 307.584 
L 118.015436 41.472 
" clip-path="url(#p0f1d4d149c)" style="fill: none; stroke: #b0b0b0; stroke-width: 0.8; stroke-linecap: square"/>
     </g>
     <g id="line2d_4">
      <g>
       <use xlink:href="#md9ef450097" x="118.015436" y="307.584" style="stroke: #000000; stroke-width: 0.8"/>
      </g>
     </g>
     <g id="text_2">
      <!-- 5 -->
      <g transform="translate(114.834186 322.182437) scale(0.1 -0.1)">
       <defs>
        <path id="DejaVuSans-35" d="M 691 4666 
L 3169 4666 
L 3169 4134 
L 1269 4134 
L 1269 2991 
Q 1406 3038 1543 3061 
Q 1681 3084 1819 3084 
Q 2600 3084 3056 2656 
Q 3513 2228 3513 1497 
Q 3513 744 3044 326 
Q 2575 -91 1722 -91 
Q 1428 -91 1123 -41 
Q 819 9 494 109 
L 494 744 
Q 775 591 1075 516 
Q 1375 441 1709 441 
Q 2250 441 2565 725 
Q 2881 1009 2881 1497 
Q 2881 1984 2565 2268 
Q 2250 2553 1709 2553 
Q 1456 2553 1204 2497 
Q 953 2441 691 2322 
L 691 4666 
z
" transform="scale(0.015625)"/>
       </defs>
       <use xlink:href="#DejaVuSans-35"/>
      </g>
     </g>
    </g>
    <g id="xtick_3">
     <g id="line2d_5">
      <path d="M 162.198145 307.584 
L 162.198145 41.472 
" clip-path="url(#p0f1d4d149c)" style="fill: none; stroke: #b0b0b0; stroke-width: 0.8; stroke-linecap: square"/>
     </g>
     <g id="line2d_6">
      <g>
       <use xlink:href="#md9ef450097" x="162.198145" y="307.584" style="stroke: #000000; stroke-width: 0.8"/>
      </g>
     </g>
     <g id="text_3">
      <!-- 10 -->
      <g transform="translate(155.835645 322.182437) scale(0.1 -0.1)">
       <defs>
        <path id="DejaVuSans-31" d="M 794 531 
L 1825 531 
L 1825 4091 
L 703 3866 
L 703 4441 
L 1819 4666 
L 2450 4666 
L 2450 531 
L 3481 531 
L 3481 0 
L 794 0 
L 794 531 
z
" transform="scale(0.015625)"/>
       </defs>
       <use xlink:href="#DejaVuSans-31"/>
       <use xlink:href="#DejaVuSans-30" x="63.623047"/>
      </g>
     </g>
    </g>
    <g id="xtick_4">
     <g id="line2d_7">
      <path d="M 206.380854 307.584 
L 206.380854 41.472 
" clip-path="url(#p0f1d4d149c)" style="fill: none; stroke: #b0b0b0; stroke-width: 0.8; stroke-linecap: square"/>
     </g>
     <g id="line2d_8">
      <g>
       <use xlink:href="#md9ef450097" x="206.380854" y="307.584" style="stroke: #000000; stroke-width: 0.8"/>
      </g>
     </g>
     <g id="text_4">
      <!-- 15 -->
      <g transform="translate(200.018354 322.182437) scale(0.1 -0.1)">
       <use xlink:href="#DejaVuSans-31"/>
       <use xlink:href="#DejaVuSans-35" x="63.623047"/>
      </g>
     </g>
    </g>
    <g id="xtick_5">
     <g id="line2d_9">
      <path d="M 250.563563 307.584 
L 250.563563 41.472 
" clip-path="url(#p0f1d4d149c)" style="fill: none; stroke: #b0b0b0; stroke-width: 0.8; stroke-linecap: square"/>
     </g>
     <g id="line2d_10">
      <g>
       <use xlink:href="#md9ef450097" x="250.563563" y="307.584" style="stroke: #000000; stroke-width: 0.8"/>
      </g>
     </g>
     <g id="text_5">
      <!-- 20 -->
      <g transform="translate(244.201063 322.182437) scale(0.1 -0.1)">
       <defs>
        <path id="DejaVuSans-32" d="M 1228 531 
L 3431 531 
L 3431 0 
L 469 0 
L 469 531 
Q 828 903 1448 1529 
Q 2069 2156 2228 2338 
Q 2531 2678 2651 2914 
Q 2772 3150 2772 3378 
Q 2772 3750 2511 3984 
Q 2250 4219 1831 4219 
Q 1534 4219 1204 4116 
Q 875 4013 500 3803 
L 500 4441 
Q 881 4594 1212 4672 
Q 1544 4750 1819 4750 
Q 2544 4750 2975 4387 
Q 3406 4025 3406 3419 
Q 3406 3131 3298 2873 
Q 3191 2616 2906 2266 
Q 2828 2175 2409 1742 
Q 1991 1309 1228 531 
z
" transform="scale(0.015625)"/>
       </defs>
       <use xlink:href="#DejaVuSans-32"/>
       <use xlink:href="#DejaVuSans-30" x="63.623047"/>
      </g>
     </g>
    </g>
    <g id="xtick_6">
     <g id="line2d_11">
      <path d="M 294.746272 307.584 
L 294.746272 41.472 
" clip-path="url(#p0f1d4d149c)" style="fill: none; stroke: #b0b0b0; stroke-width: 0.8; stroke-linecap: square"/>
     </g>
     <g id="line2d_12">
      <g>
       <use xlink:href="#md9ef450097" x="294.746272" y="307.584" style="stroke: #000000; stroke-width: 0.8"/>
      </g>
     </g>
     <g id="text_6">
      <!-- 25 -->
      <g transform="translate(288.383772 322.182437) scale(0.1 -0.1)">
       <use xlink:href="#DejaVuSans-32"/>
       <use xlink:href="#DejaVuSans-35" x="63.623047"/>
      </g>
     </g>
    </g>
    <g id="xtick_7">
     <g id="line2d_13">
      <path d="M 338.928981 307.584 
L 338.928981 41.472 
" clip-path="url(#p0f1d4d149c)" style="fill: none; stroke: #b0b0b0; stroke-width: 0.8; stroke-linecap: square"/>
     </g>
     <g id="line2d_14">
      <g>
       <use xlink:href="#md9ef450097" x="338.928981" y="307.584" style="stroke: #000000; stroke-width: 0.8"/>
      </g>
     </g>
     <g id="text_7">
      <!-- 30 -->
      <g transform="translate(332.566481 322.182437) scale(0.1 -0.1)">
       <defs>
        <path id="DejaVuSans-33" d="M 2597 2516 
Q 3050 2419 3304 2112 
Q 3559 1806 3559 1356 
Q 3559 666 3084 287 
Q 2609 -91 1734 -91 
Q 1441 -91 1130 -33 
Q 819 25 488 141 
L 488 750 
Q 750 597 1062 519 
Q 1375 441 1716 441 
Q 2309 441 2620 675 
Q 2931 909 2931 1356 
Q 2931 1769 2642 2001 
Q 2353 2234 1838 2234 
L 1294 2234 
L 1294 2753 
L 1863 2753 
Q 2328 2753 2575 2939 
Q 2822 3125 2822 3475 
Q 2822 3834 2567 4026 
Q 2313 4219 1838 4219 
Q 1578 4219 1281 4162 
Q 984 4106 628 3988 
L 628 4550 
Q 988 4650 1302 4700 
Q 1616 4750 1894 4750 
Q 2613 4750 3031 4423 
Q 3450 4097 3450 3541 
Q 3450 3153 3228 2886 
Q 3006 2619 2597 2516 
z
" transform="scale(0.015625)"/>
       </defs>
       <use xlink:href="#DejaVuSans-33"/>
       <use xlink:href="#DejaVuSans-30" x="63.623047"/>
      </g>
     </g>
    </g>
    <g id="xtick_8">
     <g id="line2d_15">
      <path d="M 383.11169 307.584 
L 383.11169 41.472 
" clip-path="url(#p0f1d4d149c)" style="fill: none; stroke: #b0b0b0; stroke-width: 0.8; stroke-linecap: square"/>
     </g>
     <g id="line2d_16">
      <g>
       <use xlink:href="#md9ef450097" x="383.11169" y="307.584" style="stroke: #000000; stroke-width: 0.8"/>
      </g>
     </g>
     <g id="text_8">
      <!-- 35 -->
      <g transform="translate(376.74919 322.182437) scale(0.1 -0.1)">
       <use xlink:href="#DejaVuSans-33"/>
       <use xlink:href="#DejaVuSans-35" x="63.623047"/>
      </g>
     </g>
    </g>
    <g id="text_9">
     <!-- Time(s) -->
     <g transform="translate(217.420156 335.860562) scale(0.1 -0.1)">
      <defs>
       <path id="DejaVuSans-54" d="M -19 4666 
L 3928 4666 
L 3928 4134 
L 2272 4134 
L 2272 0 
L 1638 0 
L 1638 4134 
L -19 4134 
L -19 4666 
z
" transform="scale(0.015625)"/>
       <path id="DejaVuSans-69" d="M 603 3500 
L 1178 3500 
L 1178 0 
L 603 0 
L 603 3500 
z
M 603 4863 
L 1178 4863 
L 1178 4134 
L 603 4134 
L 603 4863 
z
" transform="scale(0.015625)"/>
       <path id="DejaVuSans-6d" d="M 3328 2828 
Q 3544 3216 3844 3400 
Q 4144 3584 4550 3584 
Q 5097 3584 5394 3201 
Q 5691 2819 5691 2113 
L 5691 0 
L 5113 0 
L 5113 2094 
Q 5113 2597 4934 2840 
Q 4756 3084 4391 3084 
Q 3944 3084 3684 2787 
Q 3425 2491 3425 1978 
L 3425 0 
L 2847 0 
L 2847 2094 
Q 2847 2600 2669 2842 
Q 2491 3084 2119 3084 
Q 1678 3084 1418 2786 
Q 1159 2488 1159 1978 
L 1159 0 
L 581 0 
L 581 3500 
L 1159 3500 
L 1159 2956 
Q 1356 3278 1631 3431 
Q 1906 3584 2284 3584 
Q 2666 3584 2933 3390 
Q 3200 3197 3328 2828 
z
" transform="scale(0.015625)"/>
       <path id="DejaVuSans-65" d="M 3597 1894 
L 3597 1613 
L 953 1613 
Q 991 1019 1311 708 
Q 1631 397 2203 397 
Q 2534 397 2845 478 
Q 3156 559 3463 722 
L 3463 178 
Q 3153 47 2828 -22 
Q 2503 -91 2169 -91 
Q 1331 -91 842 396 
Q 353 884 353 1716 
Q 353 2575 817 3079 
Q 1281 3584 2069 3584 
Q 2775 3584 3186 3129 
Q 3597 2675 3597 1894 
z
M 3022 2063 
Q 3016 2534 2758 2815 
Q 2500 3097 2075 3097 
Q 1594 3097 1305 2825 
Q 1016 2553 972 2059 
L 3022 2063 
z
" transform="scale(0.015625)"/>
       <path id="DejaVuSans-28" d="M 1984 4856 
Q 1566 4138 1362 3434 
Q 1159 2731 1159 2009 
Q 1159 1288 1364 580 
Q 1569 -128 1984 -844 
L 1484 -844 
Q 1016 -109 783 600 
Q 550 1309 550 2009 
Q 550 2706 781 3412 
Q 1013 4119 1484 4856 
L 1984 4856 
z
" transform="scale(0.015625)"/>
       <path id="DejaVuSans-73" d="M 2834 3397 
L 2834 2853 
Q 2591 2978 2328 3040 
Q 2066 3103 1784 3103 
Q 1356 3103 1142 2972 
Q 928 2841 928 2578 
Q 928 2378 1081 2264 
Q 1234 2150 1697 2047 
L 1894 2003 
Q 2506 1872 2764 1633 
Q 3022 1394 3022 966 
Q 3022 478 2636 193 
Q 2250 -91 1575 -91 
Q 1294 -91 989 -36 
Q 684 19 347 128 
L 347 722 
Q 666 556 975 473 
Q 1284 391 1588 391 
Q 1994 391 2212 530 
Q 2431 669 2431 922 
Q 2431 1156 2273 1281 
Q 2116 1406 1581 1522 
L 1381 1569 
Q 847 1681 609 1914 
Q 372 2147 372 2553 
Q 372 3047 722 3315 
Q 1072 3584 1716 3584 
Q 2034 3584 2315 3537 
Q 2597 3491 2834 3397 
z
" transform="scale(0.015625)"/>
       <path id="DejaVuSans-29" d="M 513 4856 
L 1013 4856 
Q 1481 4119 1714 3412 
Q 1947 2706 1947 2009 
Q 1947 1309 1714 600 
Q 1481 -109 1013 -844 
L 513 -844 
Q 928 -128 1133 580 
Q 1338 1288 1338 2009 
Q 1338 2731 1133 3434 
Q 928 4138 513 4856 
z
" transform="scale(0.015625)"/>
      </defs>
      <use xlink:href="#DejaVuSans-54"/>
      <use xlink:href="#DejaVuSans-69" x="57.958984"/>
      <use xlink:href="#DejaVuSans-6d" x="85.742188"/>
      <use xlink:href="#DejaVuSans-65" x="183.154297"/>
      <use xlink:href="#DejaVuSans-28" x="244.677734"/>
      <use xlink:href="#DejaVuSans-73" x="283.691406"/>
      <use xlink:href="#DejaVuSans-29" x="335.791016"/>
     </g>
    </g>
   </g>
   <g id="matplotlib.axis_2">
    <g id="ytick_1">
     <g id="line2d_17">
      <path d="M 57.6 276.939251 
L 414.72 276.939251 
" clip-path="url(#p0f1d4d149c)" style="fill: none; stroke: #b0b0b0; stroke-width: 0.8; stroke-linecap: square"/>
     </g>
     <g id="line2d_18">
      <defs>
       <path id="mb8def1b939" d="M 0 0 
L -3.5 0 
" style="stroke: #000000; stroke-width: 0.8"/>
      </defs>
      <g>
       <use xlink:href="#mb8def1b939" x="57.6" y="276.939251" style="stroke: #000000; stroke-width: 0.8"/>
      </g>
     </g>
     <g id="text_10">
      <!-- 4 -->
      <g transform="translate(44.2375 280.73847) scale(0.1 -0.1)">
       <defs>
        <path id="DejaVuSans-34" d="M 2419 4116 
L 825 1625 
L 2419 1625 
L 2419 4116 
z
M 2253 4666 
L 3047 4666 
L 3047 1625 
L 3713 1625 
L 3713 1100 
L 3047 1100 
L 3047 0 
L 2419 0 
L 2419 1100 
L 313 1100 
L 313 1709 
L 2253 4666 
z
" transform="scale(0.015625)"/>
       </defs>
       <use xlink:href="#DejaVuSans-34"/>
      </g>
     </g>
    </g>
    <g id="ytick_2">
     <g id="line2d_19">
      <path d="M 57.6 221.096438 
L 414.72 221.096438 
" clip-path="url(#p0f1d4d149c)" style="fill: none; stroke: #b0b0b0; stroke-width: 0.8; stroke-linecap: square"/>
     </g>
     <g id="line2d_20">
      <g>
       <use xlink:href="#mb8def1b939" x="57.6" y="221.096438" style="stroke: #000000; stroke-width: 0.8"/>
      </g>
     </g>
     <g id="text_11">
      <!-- 5 -->
      <g transform="translate(44.2375 224.895657) scale(0.1 -0.1)">
       <use xlink:href="#DejaVuSans-35"/>
      </g>
     </g>
    </g>
    <g id="ytick_3">
     <g id="line2d_21">
      <path d="M 57.6 165.253626 
L 414.72 165.253626 
" clip-path="url(#p0f1d4d149c)" style="fill: none; stroke: #b0b0b0; stroke-width: 0.8; stroke-linecap: square"/>
     </g>
     <g id="line2d_22">
      <g>
       <use xlink:href="#mb8def1b939" x="57.6" y="165.253626" style="stroke: #000000; stroke-width: 0.8"/>
      </g>
     </g>
     <g id="text_12">
      <!-- 6 -->
      <g transform="translate(44.2375 169.052844) scale(0.1 -0.1)">
       <defs>
        <path id="DejaVuSans-36" d="M 2113 2584 
Q 1688 2584 1439 2293 
Q 1191 2003 1191 1497 
Q 1191 994 1439 701 
Q 1688 409 2113 409 
Q 2538 409 2786 701 
Q 3034 994 3034 1497 
Q 3034 2003 2786 2293 
Q 2538 2584 2113 2584 
z
M 3366 4563 
L 3366 3988 
Q 3128 4100 2886 4159 
Q 2644 4219 2406 4219 
Q 1781 4219 1451 3797 
Q 1122 3375 1075 2522 
Q 1259 2794 1537 2939 
Q 1816 3084 2150 3084 
Q 2853 3084 3261 2657 
Q 3669 2231 3669 1497 
Q 3669 778 3244 343 
Q 2819 -91 2113 -91 
Q 1303 -91 875 529 
Q 447 1150 447 2328 
Q 447 3434 972 4092 
Q 1497 4750 2381 4750 
Q 2619 4750 2861 4703 
Q 3103 4656 3366 4563 
z
" transform="scale(0.015625)"/>
       </defs>
       <use xlink:href="#DejaVuSans-36"/>
      </g>
     </g>
    </g>
    <g id="ytick_4">
     <g id="line2d_23">
      <path d="M 57.6 109.410813 
L 414.72 109.410813 
" clip-path="url(#p0f1d4d149c)" style="fill: none; stroke: #b0b0b0; stroke-width: 0.8; stroke-linecap: square"/>
     </g>
     <g id="line2d_24">
      <g>
       <use xlink:href="#mb8def1b939" x="57.6" y="109.410813" style="stroke: #000000; stroke-width: 0.8"/>
      </g>
     </g>
     <g id="text_13">
      <!-- 7 -->
      <g transform="translate(44.2375 113.210032) scale(0.1 -0.1)">
       <defs>
        <path id="DejaVuSans-37" d="M 525 4666 
L 3525 4666 
L 3525 4397 
L 1831 0 
L 1172 0 
L 2766 4134 
L 525 4134 
L 525 4666 
z
" transform="scale(0.015625)"/>
       </defs>
       <use xlink:href="#DejaVuSans-37"/>
      </g>
     </g>
    </g>
    <g id="ytick_5">
     <g id="line2d_25">
      <path d="M 57.6 53.568 
L 414.72 53.568 
" clip-path="url(#p0f1d4d149c)" style="fill: none; stroke: #b0b0b0; stroke-width: 0.8; stroke-linecap: square"/>
     </g>
     <g id="line2d_26">
      <g>
       <use xlink:href="#mb8def1b939" x="57.6" y="53.568" style="stroke: #000000; stroke-width: 0.8"/>
      </g>
     </g>
     <g id="text_14">
      <!-- 8 -->
      <g transform="translate(44.2375 57.367219) scale(0.1 -0.1)">
       <defs>
        <path id="DejaVuSans-38" d="M 2034 2216 
Q 1584 2216 1326 1975 
Q 1069 1734 1069 1313 
Q 1069 891 1326 650 
Q 1584 409 2034 409 
Q 2484 409 2743 651 
Q 3003 894 3003 1313 
Q 3003 1734 2745 1975 
Q 2488 2216 2034 2216 
z
M 1403 2484 
Q 997 2584 770 2862 
Q 544 3141 544 3541 
Q 544 4100 942 4425 
Q 1341 4750 2034 4750 
Q 2731 4750 3128 4425 
Q 3525 4100 3525 3541 
Q 3525 3141 3298 2862 
Q 3072 2584 2669 2484 
Q 3125 2378 3379 2068 
Q 3634 1759 3634 1313 
Q 3634 634 3220 271 
Q 2806 -91 2034 -91 
Q 1263 -91 848 271 
Q 434 634 434 1313 
Q 434 1759 690 2068 
Q 947 2378 1403 2484 
z
M 1172 3481 
Q 1172 3119 1398 2916 
Q 1625 2713 2034 2713 
Q 2441 2713 2670 2916 
Q 2900 3119 2900 3481 
Q 2900 3844 2670 4047 
Q 2441 4250 2034 4250 
Q 1625 4250 1398 4047 
Q 1172 3844 1172 3481 
z
" transform="scale(0.015625)"/>
       </defs>
       <use xlink:href="#DejaVuSans-38"/>
      </g>
     </g>
    </g>
    <g id="text_15">
     <!-- Velocity(m/s) -->
     <g transform="translate(38.157812 207.204563) rotate(-90) scale(0.1 -0.1)">
      <defs>
       <path id="DejaVuSans-56" d="M 1831 0 
L 50 4666 
L 709 4666 
L 2188 738 
L 3669 4666 
L 4325 4666 
L 2547 0 
L 1831 0 
z
" transform="scale(0.015625)"/>
       <path id="DejaVuSans-6c" d="M 603 4863 
L 1178 4863 
L 1178 0 
L 603 0 
L 603 4863 
z
" transform="scale(0.015625)"/>
       <path id="DejaVuSans-6f" d="M 1959 3097 
Q 1497 3097 1228 2736 
Q 959 2375 959 1747 
Q 959 1119 1226 758 
Q 1494 397 1959 397 
Q 2419 397 2687 759 
Q 2956 1122 2956 1747 
Q 2956 2369 2687 2733 
Q 2419 3097 1959 3097 
z
M 1959 3584 
Q 2709 3584 3137 3096 
Q 3566 2609 3566 1747 
Q 3566 888 3137 398 
Q 2709 -91 1959 -91 
Q 1206 -91 779 398 
Q 353 888 353 1747 
Q 353 2609 779 3096 
Q 1206 3584 1959 3584 
z
" transform="scale(0.015625)"/>
       <path id="DejaVuSans-63" d="M 3122 3366 
L 3122 2828 
Q 2878 2963 2633 3030 
Q 2388 3097 2138 3097 
Q 1578 3097 1268 2742 
Q 959 2388 959 1747 
Q 959 1106 1268 751 
Q 1578 397 2138 397 
Q 2388 397 2633 464 
Q 2878 531 3122 666 
L 3122 134 
Q 2881 22 2623 -34 
Q 2366 -91 2075 -91 
Q 1284 -91 818 406 
Q 353 903 353 1747 
Q 353 2603 823 3093 
Q 1294 3584 2113 3584 
Q 2378 3584 2631 3529 
Q 2884 3475 3122 3366 
z
" transform="scale(0.015625)"/>
       <path id="DejaVuSans-74" d="M 1172 4494 
L 1172 3500 
L 2356 3500 
L 2356 3053 
L 1172 3053 
L 1172 1153 
Q 1172 725 1289 603 
Q 1406 481 1766 481 
L 2356 481 
L 2356 0 
L 1766 0 
Q 1100 0 847 248 
Q 594 497 594 1153 
L 594 3053 
L 172 3053 
L 172 3500 
L 594 3500 
L 594 4494 
L 1172 4494 
z
" transform="scale(0.015625)"/>
       <path id="DejaVuSans-79" d="M 2059 -325 
Q 1816 -950 1584 -1140 
Q 1353 -1331 966 -1331 
L 506 -1331 
L 506 -850 
L 844 -850 
Q 1081 -850 1212 -737 
Q 1344 -625 1503 -206 
L 1606 56 
L 191 3500 
L 800 3500 
L 1894 763 
L 2988 3500 
L 3597 3500 
L 2059 -325 
z
" transform="scale(0.015625)"/>
       <path id="DejaVuSans-2f" d="M 1625 4666 
L 2156 4666 
L 531 -594 
L 0 -594 
L 1625 4666 
z
" transform="scale(0.015625)"/>
      </defs>
      <use xlink:href="#DejaVuSans-56"/>
      <use xlink:href="#DejaVuSans-65" x="60.658203"/>
      <use xlink:href="#DejaVuSans-6c" x="122.181641"/>
      <use xlink:href="#DejaVuSans-6f" x="149.964844"/>
      <use xlink:href="#DejaVuSans-63" x="211.146484"/>
      <use xlink:href="#DejaVuSans-69" x="266.126953"/>
      <use xlink:href="#DejaVuSans-74" x="293.910156"/>
      <use xlink:href="#DejaVuSans-79" x="333.119141"/>
      <use xlink:href="#DejaVuSans-28" x="392.298828"/>
      <use xlink:href="#DejaVuSans-6d" x="431.3125"/>
      <use xlink:href="#DejaVuSans-2f" x="528.724609"/>
      <use xlink:href="#DejaVuSans-73" x="562.416016"/>
      <use xlink:href="#DejaVuSans-29" x="614.515625"/>
     </g>
    </g>
   </g>
   <g id="line2d_27">
    <path d="M 73.832727 53.71146 
L 76.837151 53.595363 
L 76.837151 53.595363 
L 86.557347 53.568112 
L 86.557347 53.568112 
L 92.389465 53.568 
L 92.389465 53.568 
L 92.566196 54.251628 
L 92.566196 54.251628 
L 92.742927 56.489361 
L 92.742927 56.489361 
L 93.096388 66.57474 
L 93.096388 66.57474 
L 95.393889 131.212517 
L 95.393889 131.212517 
L 96.277543 150.438862 
L 96.277543 150.438862 
L 97.868121 176.40873 
L 97.868121 176.40873 
L 98.928506 188.113216 
L 98.928506 188.113216 
L 99.635429 193.196476 
L 99.635429 193.196476 
L 100.342353 197.011154 
L 100.342353 197.011154 
L 100.872545 198.541694 
L 100.872545 198.541694 
L 101.402738 199.22789 
L 101.402738 199.22789 
L 102.463123 199.40346 
L 102.463123 199.40346 
L 102.993315 199.303892 
L 102.993315 199.303892 
L 103.523508 198.931142 
L 103.523508 198.931142 
L 103.876969 198.304083 
L 103.876969 198.304083 
L 104.407162 196.671574 
L 104.407162 196.671574 
L 104.937354 194.098616 
L 104.937354 194.098616 
L 105.290816 191.723454 
L 105.290816 191.723454 
L 105.997739 183.664778 
L 105.997739 183.664778 
L 106.704663 172.370513 
L 106.704663 172.370513 
L 107.941779 150.324831 
L 107.941779 150.324831 
L 108.471971 147.074724 
L 108.471971 147.074724 
L 108.825433 146.079493 
L 108.825433 146.079493 
L 109.355625 145.339073 
L 109.355625 145.339073 
L 109.885818 145.022389 
L 109.885818 145.022389 
L 111.476395 144.300844 
L 111.476395 144.300844 
L 112.006588 143.814956 
L 112.006588 143.814956 
L 112.360049 143.298074 
L 112.360049 143.298074 
L 112.890242 141.963487 
L 112.890242 141.963487 
L 113.420435 139.871057 
L 113.420435 139.871057 
L 113.950627 136.665456 
L 113.950627 136.665456 
L 114.65755 130.689102 
L 114.65755 130.689102 
L 115.717935 118.571212 
L 115.717935 118.571212 
L 115.894666 118.24872 
L 115.894666 118.24872 
L 116.071397 118.979088 
L 116.071397 118.979088 
L 116.248128 120.83413 
L 116.248128 120.83413 
L 116.60159 129.032023 
L 116.60159 129.032023 
L 117.131782 139.708666 
L 117.131782 139.708666 
L 118.192167 156.464023 
L 118.192167 156.464023 
L 119.075821 165.222298 
L 119.075821 165.222298 
L 119.606014 168.078323 
L 119.606014 168.078323 
L 120.136206 169.799398 
L 120.136206 169.799398 
L 120.84313 170.761458 
L 120.84313 170.761458 
L 121.550053 171.36389 
L 121.550053 171.36389 
L 122.610438 171.413758 
L 122.610438 171.413758 
L 123.317361 171.246397 
L 123.317361 171.246397 
L 124.731208 170.572933 
L 124.731208 170.572933 
L 125.08467 170.268143 
L 125.08467 170.268143 
L 126.675247 168.067154 
L 126.675247 168.067154 
L 128.089094 165.202362 
L 128.089094 165.202362 
L 129.856402 160.025007 
L 129.856402 160.025007 
L 131.093518 155.449973 
L 131.093518 155.449973 
L 133.391019 144.410575 
L 133.391019 144.410575 
L 134.628135 136.966616 
L 134.628135 136.966616 
L 136.218712 125.639739 
L 136.218712 125.639739 
L 137.279097 116.374467 
L 137.279097 116.374467 
L 138.162752 107.251371 
L 138.162752 107.251371 
L 139.753329 87.328722 
L 139.753329 87.328722 
L 141.167176 69.680494 
L 141.167176 69.680494 
L 141.874099 64.479909 
L 141.874099 64.479909 
L 142.581022 60.957903 
L 142.581022 60.957903 
L 143.287946 58.572633 
L 143.287946 58.572633 
L 143.994869 56.957324 
L 143.994869 56.957324 
L 144.701792 55.863363 
L 144.701792 55.863363 
L 145.408716 55.122496 
L 145.408716 55.122496 
L 146.29237 54.523024 
L 146.29237 54.523024 
L 147.352755 54.100238 
L 147.352755 54.100238 
L 148.766602 53.812089 
L 148.766602 53.812089 
L 150.710641 53.651597 
L 150.710641 53.651597 
L 150.887372 54.177971 
L 150.887372 54.177971 
L 151.240833 59.874776 
L 151.240833 59.874776 
L 151.594295 67.613528 
L 151.594295 67.613528 
L 153.891796 136.382333 
L 153.891796 136.382333 
L 156.189297 189.973508 
L 156.189297 189.973508 
L 157.779874 215.872567 
L 157.779874 215.872567 
L 158.663528 226.098614 
L 158.663528 226.098614 
L 159.723913 235.571901 
L 159.723913 235.571901 
L 160.607568 241.094364 
L 160.607568 241.094364 
L 161.13776 243.462546 
L 161.13776 243.462546 
L 161.667953 245.18714 
L 161.667953 245.18714 
L 162.374876 246.554674 
L 162.374876 246.554674 
L 162.728338 246.960261 
L 162.728338 246.960261 
L 163.081799 247.127622 
L 163.081799 247.127622 
L 164.142184 247.295988 
L 164.142184 247.295988 
L 165.202569 247.167493 
L 165.202569 247.167493 
L 165.732762 246.766654 
L 165.732762 246.766654 
L 166.262954 246.107429 
L 166.262954 246.107429 
L 166.969878 244.855601 
L 166.969878 244.855601 
L 167.50007 243.623653 
L 167.50007 243.623653 
L 168.030263 241.912517 
L 168.030263 241.912517 
L 168.737186 238.921241 
L 168.737186 238.921241 
L 169.62084 234.079502 
L 169.62084 234.079502 
L 170.681225 226.770683 
L 170.681225 226.770683 
L 171.918341 216.609859 
L 171.918341 216.609859 
L 173.68565 199.906325 
L 173.68565 199.906325 
L 175.276227 182.985897 
L 175.276227 182.985897 
L 180.04796 130.878298 
L 180.04796 130.878298 
L 180.931614 116.772124 
L 180.931614 116.772124 
L 182.522191 87.745533 
L 182.522191 87.745533 
L 182.698922 86.987187 
L 182.698922 86.987187 
L 182.875653 87.396403 
L 183.405845 97.573142 
L 183.405845 97.573142 
L 184.112769 118.613876 
L 184.112769 118.613876 
L 185.703346 168.194476 
L 185.703346 168.194476 
L 187.470655 212.507032 
L 187.470655 212.507032 
L 188.884501 239.792612 
L 188.884501 239.792612 
L 190.65181 260.304236 
L 190.65181 260.304236 
L 191.888926 268.436066 
L 191.888926 268.436066 
L 192.419118 270.516099 
L 192.419118 270.516099 
L 193.126041 272.602387 
L 193.126041 272.602387 
L 193.832965 273.637768 
L 193.832965 273.637768 
L 194.539888 274.386341 
L 194.539888 274.386341 
L 194.89335 274.512937 
L 194.89335 274.512937 
L 196.837389 274.506794 
L 196.837389 274.506794 
L 197.190851 274.350825 
L 197.190851 274.350825 
L 197.544312 274.04302 
L 197.544312 274.04302 
L 198.251236 273.175948 
L 198.251236 273.175948 
L 199.13489 270.976579 
L 199.13489 270.976579 
L 199.665082 268.866614 
L 199.665082 268.866614 
L 200.725467 263.038858 
L 200.725467 263.038858 
L 201.785852 254.516966 
L 201.785852 254.516966 
L 202.492776 246.994827 
L 202.492776 246.994827 
L 203.906622 228.540565 
L 203.906622 228.540565 
L 204.967007 209.550881 
L 204.967007 209.550881 
L 206.204123 182.351522 
L 206.204123 182.351522 
L 208.148163 128.857179 
L 208.148163 128.857179 
L 209.562009 90.988995 
L 209.562009 90.988995 
L 210.268933 78.910697 
L 210.268933 78.910697 
L 210.975856 70.730898 
L 210.975856 70.730898 
L 211.682779 65.191235 
L 211.682779 65.191235 
L 212.389703 61.439659 
L 212.389703 61.439659 
L 213.096626 58.898922 
L 213.096626 58.898922 
L 213.803549 57.178294 
L 213.803549 57.178294 
L 214.510473 56.012966 
L 214.510473 56.012966 
L 215.040665 55.403888 
L 215.040665 55.403888 
L 215.217396 55.611233 
L 215.217396 55.611233 
L 215.394127 56.983626 
L 215.394127 56.983626 
L 216.277781 72.422823 
L 216.277781 72.422823 
L 216.807973 84.090788 
L 216.807973 84.090788 
L 218.398551 119.60302 
L 218.398551 119.60302 
L 219.635667 145.818261 
L 219.635667 145.818261 
L 221.402975 175.441812 
L 221.402975 175.441812 
L 222.816822 191.957547 
L 222.816822 191.957547 
L 223.877207 200.01103 
L 223.877207 200.01103 
L 224.407399 202.39764 
L 224.407399 202.39764 
L 224.937592 203.968387 
L 224.937592 203.968387 
L 225.291054 204.571992 
L 225.291054 204.571992 
L 225.821246 205.025882 
L 225.821246 205.025882 
L 226.528169 205.23412 
L 226.528169 205.23412 
L 227.235093 205.267458 
L 227.235093 205.267458 
L 227.588554 205.142091 
L 227.588554 205.142091 
L 228.118747 204.695516 
L 228.118747 204.695516 
L 228.648939 203.890989 
L 228.648939 203.890989 
L 229.179132 202.55601 
L 229.179132 202.55601 
L 229.709324 200.474749 
L 229.709324 200.474749 
L 230.062786 198.579723 
L 230.062786 198.579723 
L 230.76971 192.35431 
L 230.76971 192.35431 
L 231.476633 183.788302 
L 231.476633 183.788302 
L 232.006825 174.724846 
L 232.006825 174.724846 
L 232.89048 155.662064 
L 232.89048 155.662064 
L 235.718173 82.802774 
L 235.718173 82.802774 
L 236.425096 73.366734 
L 236.425096 73.366734 
L 237.13202 66.976306 
L 237.13202 66.976306 
L 237.838943 62.648544 
L 237.838943 62.648544 
L 238.545866 59.717634 
L 238.545866 59.717634 
L 239.25279 57.732701 
L 239.25279 57.732701 
L 239.959713 56.388509 
L 239.959713 56.388509 
L 240.666636 55.478103 
L 240.666636 55.478103 
L 241.37356 54.918949 
L 241.37356 54.918949 
L 241.55029 55.736265 
L 241.55029 55.736265 
L 242.610676 68.435758 
L 242.610676 68.435758 
L 243.140868 76.05752 
L 243.140868 76.05752 
L 243.671061 84.137975 
L 243.671061 84.137975 
L 245.968561 119.035489 
L 245.968561 119.035489 
L 247.559139 136.333359 
L 247.559139 136.333359 
L 248.266062 141.021195 
L 248.266062 141.021195 
L 248.796255 143.402612 
L 248.796255 143.402612 
L 249.503178 145.38654 
L 249.503178 145.38654 
L 249.85664 145.663911 
L 249.85664 145.663911 
L 250.917025 146.162922 
L 250.917025 146.162922 
L 251.447217 146.074747 
L 251.447217 146.074747 
L 251.97741 145.709088 
L 251.97741 145.709088 
L 252.330871 145.28284 
L 252.330871 145.28284 
L 252.861064 144.092103 
L 252.861064 144.092103 
L 253.391256 142.15285 
L 253.391256 142.15285 
L 254.09818 138.687022 
L 254.09818 138.687022 
L 254.805103 133.684958 
L 254.805103 133.684958 
L 255.688757 125.47478 
L 255.688757 125.47478 
L 256.749142 112.760656 
L 256.749142 112.760656 
L 257.809527 96.814685 
L 257.809527 96.814685 
L 259.400105 72.740122 
L 259.400105 72.740122 
L 260.107028 66.551957 
L 260.107028 66.551957 
L 260.813952 62.361121 
L 260.813952 62.361121 
L 261.520875 59.523022 
L 261.520875 59.523022 
L 262.227798 57.600912 
L 262.227798 57.600912 
L 262.934722 56.299216 
L 262.934722 56.299216 
L 263.641645 55.417681 
L 263.641645 55.417681 
L 264.525299 54.704345 
L 264.525299 54.704345 
L 265.408953 54.266147 
L 265.408953 54.266147 
L 266.646069 53.920982 
L 266.646069 53.920982 
L 268.413378 53.701241 
L 268.413378 53.701241 
L 271.417802 53.593408 
L 271.417802 53.593408 
L 276.366265 53.569675 
L 276.366265 53.569675 
L 276.542996 54.16334 
L 276.542996 54.16334 
L 276.719727 56.869371 
L 276.719727 56.869371 
L 277.956843 97.458831 
L 277.956843 97.458831 
L 279.724151 164.477131 
L 279.724151 164.477131 
L 280.254344 184.058972 
L 280.254344 184.058972 
L 281.66819 223.992503 
L 281.66819 223.992503 
L 282.375114 240.330211 
L 282.375114 240.330211 
L 283.082037 251.312091 
L 283.082037 251.312091 
L 284.142422 267.141127 
L 284.142422 267.141127 
L 285.379538 280.954126 
L 285.379538 280.954126 
L 286.086461 286.755971 
L 286.086461 286.755971 
L 287.323577 293.014331 
L 287.323577 293.014331 
L 287.853769 294.371144 
L 287.853769 294.371144 
L 288.383962 295.041816 
L 288.383962 295.041816 
L 289.090885 295.311425 
L 289.090885 295.311425 
L 289.97454 295.321923 
L 289.97454 295.321923 
L 290.681463 295.086323 
L 290.681463 295.086323 
L 291.211655 294.551069 
L 291.211655 294.551069 
L 291.741848 293.56617 
L 291.741848 293.56617 
L 292.448771 291.46849 
L 292.448771 291.46849 
L 292.978964 288.935404 
L 292.978964 288.935404 
L 294.039349 282.068916 
L 294.039349 282.068916 
L 294.746272 276.38959 
L 294.746272 276.38959 
L 296.160119 261.901899 
L 296.160119 261.901899 
L 296.867042 252.695988 
L 296.867042 252.695988 
L 298.63435 225.872283 
L 298.63435 225.872283 
L 300.401659 198.044637 
L 300.401659 198.044637 
L 303.229352 159.548054 
L 303.229352 159.548054 
L 303.406083 159.114658 
L 303.406083 159.114658 
L 303.582814 160.205715 
L 303.582814 160.205715 
L 303.936276 165.439191 
L 303.936276 165.439191 
L 304.643199 184.569543 
L 304.643199 184.569543 
L 306.057046 214.849806 
L 306.057046 214.849806 
L 307.117431 229.994376 
L 307.117431 229.994376 
L 308.177816 241.485599 
L 308.177816 241.485599 
L 309.06147 248.816699 
L 309.06147 248.816699 
L 309.768393 253.193715 
L 309.768393 253.193715 
L 311.18224 258.640846 
L 311.18224 258.640846 
L 311.889163 260.266207 
L 311.889163 260.266207 
L 312.242625 260.718925 
L 312.242625 260.718925 
L 312.949548 261.182476 
L 312.949548 261.182476 
L 313.479741 261.515857 
L 313.479741 261.515857 
L 314.540126 261.555952 
L 314.540126 261.555952 
L 315.247049 261.290364 
L 315.247049 261.290364 
L 315.600511 261.028294 
L 315.600511 261.028294 
L 316.307434 260.220025 
L 316.307434 260.220025 
L 316.837627 258.990422 
L 316.837627 258.990422 
L 317.721281 256.299022 
L 317.721281 256.299022 
L 318.428204 252.798012 
L 318.428204 252.798012 
L 319.66532 244.705216 
L 319.66532 244.705216 
L 320.548974 236.944238 
L 320.548974 236.944238 
L 322.493013 216.810614 
L 322.493013 216.810614 
L 323.553398 203.027324 
L 323.553398 203.027324 
L 325.143976 179.515433 
L 325.143976 179.515433 
L 326.557823 153.573264 
L 326.557823 153.573264 
L 327.264746 141.380097 
L 327.264746 141.380097 
L 327.618208 138.723487 
L 327.618208 138.723487 
L 327.794938 138.60806 
L 327.794938 138.60806 
L 327.971669 139.079988 
L 327.971669 139.079988 
L 328.1484 140.377551 
L 328.1484 140.377551 
L 330.622632 185.334254 
L 330.622632 185.334254 
L 331.859748 199.634594 
L 331.859748 199.634594 
L 332.743402 205.946563 
L 332.743402 205.946563 
L 333.273594 208.212999 
L 333.273594 208.212999 
L 333.803787 209.476778 
L 333.803787 209.476778 
L 334.333979 210.032693 
L 334.333979 210.032693 
L 334.864172 210.238529 
L 334.864172 210.238529 
L 335.571095 210.352784 
L 335.571095 210.352784 
L 336.101288 210.103446 
L 336.101288 210.103446 
L 336.63148 209.580422 
L 336.63148 209.580422 
L 337.161673 208.616184 
L 337.161673 208.616184 
L 337.691865 206.99395 
L 337.691865 206.99395 
L 338.045327 205.406674 
L 338.045327 205.406674 
L 338.75225 199.818149 
L 338.75225 199.818149 
L 339.459174 191.703183 
L 339.459174 191.703183 
L 340.342828 179.670676 
L 340.342828 179.670676 
L 340.696289 177.75873 
L 340.696289 177.75873 
L 340.87302 177.413454 
L 340.87302 177.413454 
L 341.049751 177.47449 
L 341.049751 177.47449 
L 341.226482 178.219545 
L 341.226482 178.219545 
L 341.933405 184.190817 
L 341.933405 184.190817 
L 342.463598 186.775948 
L 342.463598 186.775948 
L 342.99379 187.754482 
L 342.99379 187.754482 
L 343.523983 188.169394 
L 343.523983 188.169394 
L 343.700714 188.202788 
L 343.700714 188.202788 
L 344.230906 187.795694 
L 344.230906 187.795694 
L 344.584368 187.221406 
L 344.584368 187.221406 
L 344.937829 186.202052 
L 344.937829 186.202052 
L 345.468022 182.76783 
L 345.468022 182.76783 
L 345.998214 177.647882 
L 345.998214 177.647882 
L 346.881869 167.951895 
L 346.881869 167.951895 
L 347.058599 167.322323 
L 347.058599 167.322323 
L 347.23533 167.184112 
L 347.23533 167.184112 
L 347.412061 167.825746 
L 347.412061 167.825746 
L 348.825908 183.016834 
L 348.825908 183.016834 
L 349.17937 184.72635 
L 349.17937 184.72635 
L 349.532831 185.677967 
L 349.532831 185.677967 
L 349.886293 186.091874 
L 349.886293 186.091874 
L 350.416485 186.278333 
L 350.416485 186.278333 
L 351.123409 186.336186 
L 351.123409 186.336186 
L 351.653601 186.186807 
L 351.653601 186.186807 
L 352.183794 185.803613 
L 352.183794 185.803613 
L 352.890717 184.984343 
L 352.890717 184.984343 
L 354.127833 182.448856 
L 354.127833 182.448856 
L 355.364949 178.638701 
L 355.364949 178.638701 
L 356.071872 175.810207 
L 356.071872 175.810207 
L 356.778795 172.300374 
L 356.778795 172.300374 
L 358.015911 164.625003 
L 358.015911 164.625003 
L 359.78322 151.108418 
L 359.78322 151.108418 
L 361.373797 139.447433 
L 361.373797 139.447433 
L 362.610913 132.416991 
L 362.610913 132.416991 
L 364.731683 121.09581 
L 364.731683 121.09581 
L 365.615337 113.869694 
L 365.615337 113.869694 
L 366.322261 106.158137 
L 366.322261 106.158137 
L 367.029184 95.555262 
L 367.029184 95.555262 
L 368.2663 75.598771 
L 368.2663 75.598771 
L 368.973223 68.487915 
L 368.973223 68.487915 
L 369.680146 63.672254 
L 369.680146 63.672254 
L 370.38707 60.410922 
L 370.38707 60.410922 
L 371.093993 58.202228 
L 371.093993 58.202228 
L 371.800917 56.706478 
L 371.800917 56.706478 
L 372.50784 55.693489 
L 372.50784 55.693489 
L 373.214763 55.007404 
L 373.214763 55.007404 
L 374.098417 54.452327 
L 374.098417 54.452327 
L 375.158802 54.060869 
L 375.158802 54.060869 
L 376.572649 53.794052 
L 376.572649 53.794052 
L 378.87015 53.631717 
L 378.87015 53.631717 
L 383.818613 53.572132 
L 383.818613 53.572132 
L 397.073426 53.600724 
L 397.073426 53.600724 
L 397.603619 53.699175 
L 397.603619 53.699175 
L 398.310542 53.693367 
L 398.310542 53.693367 
L 398.487273 53.758145 
L 398.487273 53.758145 
" clip-path="url(#p0f1d4d149c)" style="fill: none; stroke: #1f77b4; stroke-width: 1.5; stroke-linecap: square"/>
   </g>
   <g id="line2d_28">
    <path d="M 73.832727 53.568 
L 92.212734 53.568 
L 92.212734 53.568 
L 92.389465 57.162155 
L 92.389465 57.162155 
L 92.742927 72.707454 
L 92.742927 72.707454 
L 92.919658 81.937824 
L 92.919658 81.937824 
L 93.096388 81.426192 
L 93.096388 81.426192 
L 93.44985 94.31382 
L 93.44985 94.31382 
L 93.626581 103.309986 
L 93.626581 103.309986 
L 93.803312 103.702896 
L 93.803312 103.702896 
L 94.156773 115.729706 
L 94.156773 115.729706 
L 94.333504 123.67692 
L 94.333504 123.67692 
L 94.510235 123.404463 
L 94.510235 123.404463 
L 94.686966 127.798958 
L 94.686966 127.798958 
L 94.863697 135.803913 
L 94.863697 135.803913 
L 95.040428 136.348716 
L 95.040428 136.348716 
L 95.217158 140.062877 
L 95.217158 140.062877 
L 95.393889 146.761055 
L 95.393889 146.761055 
L 95.57062 147.203553 
L 95.57062 147.203553 
L 95.747351 150.908668 
L 95.747351 150.908668 
L 95.924082 157.357564 
L 95.924082 157.357564 
L 96.100813 157.219744 
L 96.100813 157.219744 
L 96.454274 167.152225 
L 96.454274 167.152225 
L 96.631005 166.02152 
L 96.631005 166.02152 
L 96.807736 170.809986 
L 96.807736 170.809986 
L 96.984467 171.675605 
L 97.161198 174.253588 
L 97.161198 174.253588 
L 97.337928 179.486618 
L 97.337928 179.486618 
L 97.514659 178.863748 
L 97.514659 178.863748 
L 97.69139 182.363696 
L 97.69139 182.363696 
L 97.868121 183.033028 
L 97.868121 183.033028 
L 98.044852 185.070118 
L 98.044852 185.070118 
L 98.221583 189.118889 
L 98.221583 189.118889 
L 98.398313 188.299564 
L 98.398313 188.299564 
L 98.575044 190.873526 
L 98.575044 190.873526 
L 98.751775 191.348134 
L 98.751775 191.348134 
L 98.928506 193.284707 
L 98.928506 193.284707 
L 99.105237 193.488031 
L 99.105237 193.488031 
L 99.458698 195.577111 
L 99.458698 195.577111 
L 99.81216 198.073284 
L 99.81216 198.073284 
L 99.988891 198.032854 
L 99.988891 198.032854 
L 100.165622 198.755237 
L 100.165622 198.755237 
L 101.049276 199.629121 
L 101.049276 199.629121 
L 101.402738 199.267092 
L 101.402738 199.267092 
L 101.579469 199.489458 
L 101.579469 199.489458 
L 101.756199 199.302664 
L 101.756199 199.302664 
L 101.93293 199.527375 
L 101.93293 199.527375 
L 102.109661 199.231185 
L 102.109661 199.231185 
L 102.286392 199.464664 
L 102.286392 199.464664 
L 102.463123 198.942422 
L 102.463123 198.942422 
L 102.639854 199.138095 
L 102.639854 199.138095 
L 102.816584 198.387847 
L 102.816584 198.387847 
L 102.993315 198.412976 
L 102.993315 198.412976 
L 103.170046 197.455607 
L 103.170046 197.455607 
L 103.346777 197.123622 
L 103.346777 197.123622 
L 103.523508 195.883744 
L 103.523508 195.883744 
L 103.700239 192.972434 
L 103.700239 192.972434 
L 103.876969 193.76395 
L 103.876969 193.76395 
L 104.0537 190.2874 
L 104.0537 190.2874 
L 104.230431 190.717892 
L 104.230431 190.717892 
L 104.407162 186.866134 
L 104.407162 186.866134 
L 104.583893 186.441394 
L 104.583893 186.441394 
L 104.760624 182.792345 
L 104.760624 182.792345 
L 104.937354 181.448544 
L 104.937354 181.448544 
L 105.114085 177.441431 
L 105.114085 177.441431 
L 105.290816 167.742205 
L 105.290816 167.742205 
L 105.467547 170.622354 
L 105.467547 170.622354 
L 105.644278 160.702771 
L 105.644278 160.702771 
L 105.821009 162.383417 
L 105.821009 162.383417 
L 105.997739 152.301053 
L 105.997739 152.301053 
L 106.17447 151.264778 
L 106.17447 151.264778 
L 106.881394 121.457615 
L 106.881394 121.457615 
L 107.058124 121.477775 
L 107.058124 121.477775 
L 107.765048 135.60662 
L 107.765048 135.60662 
L 107.941779 135.955582 
L 107.941779 135.955582 
L 108.471971 141.322132 
L 108.471971 141.322132 
L 108.825433 143.131328 
L 108.825433 143.131328 
L 109.002164 143.252674 
L 109.002164 143.252674 
L 109.532356 144.444527 
L 109.532356 144.444527 
L 110.062549 144.039332 
L 110.062549 144.039332 
L 110.239279 143.871971 
L 110.239279 143.871971 
L 110.41601 144.15018 
L 110.41601 144.15018 
L 110.592741 143.95836 
L 110.592741 143.95836 
L 110.769472 143.525522 
L 110.769472 143.525522 
L 110.946203 143.829866 
L 110.946203 143.829866 
L 111.122934 143.810711 
L 111.122934 143.810711 
L 111.299664 142.38672 
L 111.299664 142.38672 
L 111.476395 143.273113 
L 111.476395 143.273113 
L 111.653126 141.867661 
L 111.653126 141.867661 
L 111.829857 141.841247 
L 111.829857 141.841247 
L 112.006588 141.377249 
L 112.006588 141.377249 
L 112.183319 139.183185 
L 112.183319 139.183185 
L 112.360049 139.233388 
L 112.360049 139.233388 
L 112.53678 138.025675 
L 112.53678 138.025675 
L 112.713511 135.117493 
L 112.713511 135.117493 
L 112.890242 135.442163 
L 112.890242 135.442163 
L 113.066973 133.902298 
L 113.066973 133.902298 
L 113.243704 129.316654 
L 113.243704 129.316654 
L 113.420435 130.131289 
L 113.420435 130.131289 
L 113.597165 126.921109 
L 113.597165 126.921109 
L 113.773896 121.240498 
L 113.773896 121.240498 
L 113.950627 122.781704 
L 113.950627 122.781704 
L 114.127358 117.793545 
L 114.127358 117.793545 
L 114.304089 116.677861 
L 114.304089 116.677861 
L 115.011012 98.296753 
L 115.011012 98.296753 
L 115.364474 102.240707 
L 115.364474 102.240707 
L 116.424859 141.992805 
L 116.424859 141.992805 
L 116.60159 139.864356 
L 116.60159 139.864356 
L 116.77832 145.074714 
L 116.77832 145.074714 
L 116.955051 146.729671 
L 117.838705 160.551158 
L 117.838705 160.551158 
L 118.015436 160.966461 
L 118.015436 160.966461 
L 118.545629 165.751744 
L 118.545629 165.751744 
L 118.72236 167.567305 
L 118.72236 167.567305 
L 119.606014 170.565506 
L 119.606014 170.565506 
L 119.782745 170.440641 
L 119.959475 170.704387 
L 119.959475 170.704387 
L 120.136206 170.58868 
L 120.312937 170.822271 
L 120.312937 170.822271 
L 120.489668 171.454132 
L 120.489668 171.454132 
L 120.666399 170.685289 
L 120.666399 170.685289 
L 120.84313 171.59212 
L 120.84313 171.59212 
L 121.01986 171.387177 
L 121.01986 171.387177 
L 121.196591 171.650252 
L 121.196591 171.650252 
L 121.550053 171.336918 
L 121.550053 171.336918 
L 121.726784 171.578048 
L 121.726784 171.578048 
L 121.903515 170.980474 
L 121.903515 170.980474 
L 122.080245 171.610213 
L 122.080245 171.610213 
L 122.256976 170.947861 
L 122.256976 170.947861 
L 122.610438 171.378745 
L 122.610438 171.378745 
L 122.787169 170.223357 
L 122.787169 170.223357 
L 122.9639 171.286269 
L 122.9639 171.286269 
L 123.14063 170.403226 
L 123.14063 170.403226 
L 123.670823 170.650443 
L 123.670823 170.650443 
L 123.847554 170.538534 
L 123.847554 170.538534 
L 124.024285 169.174908 
L 124.024285 169.174908 
L 124.201015 169.648399 
L 124.201015 169.648399 
L 124.377746 169.640302 
L 124.377746 169.640302 
L 124.554477 169.393644 
L 124.731208 169.377059 
L 124.731208 169.377059 
L 124.907939 167.405528 
L 124.907939 167.405528 
L 125.08467 168.152314 
L 125.08467 168.152314 
L 125.261401 167.536201 
L 125.261401 167.536201 
L 125.438131 167.723665 
L 125.438131 167.723665 
L 125.614862 167.736285 
L 125.614862 167.736285 
L 125.791593 165.681493 
L 125.791593 165.681493 
L 125.968324 167.161272 
L 125.968324 167.161272 
L 126.145055 165.233355 
L 126.145055 165.233355 
L 126.321786 165.545516 
L 126.321786 165.545516 
L 126.498516 164.544478 
L 126.498516 164.544478 
L 126.675247 164.296871 
L 126.675247 164.296871 
L 126.851978 164.898968 
L 126.851978 164.898968 
L 127.028709 162.88818 
L 127.028709 162.88818 
L 127.20544 163.310575 
L 127.20544 163.310575 
L 127.382171 162.407932 
L 127.382171 162.407932 
L 127.735632 162.182662 
L 127.735632 162.182662 
L 127.912363 159.640585 
L 127.912363 159.640585 
L 128.089094 160.213588 
L 128.089094 160.213588 
L 128.442556 159.002246 
L 128.442556 159.002246 
L 128.619286 159.079923 
L 128.619286 159.079923 
L 128.796017 156.505849 
L 128.796017 156.505849 
L 128.972748 156.978279 
L 128.972748 156.978279 
L 129.32621 155.309026 
L 129.32621 155.309026 
L 129.502941 155.459355 
L 129.502941 155.459355 
L 129.679671 153.043762 
L 129.679671 153.043762 
L 129.856402 153.781446 
L 129.856402 153.781446 
L 130.209864 151.53327 
L 130.209864 151.53327 
L 130.386595 151.356416 
L 130.386595 151.356416 
L 130.563326 149.130074 
L 130.563326 149.130074 
L 130.740056 149.408228 
L 130.740056 149.408228 
L 131.093518 145.519111 
L 131.093518 145.519111 
L 131.270249 146.706831 
L 131.270249 146.706831 
L 131.44698 144.908414 
L 131.44698 144.908414 
L 131.800441 143.868285 
L 131.800441 143.868285 
L 131.977172 141.082343 
L 131.977172 141.082343 
L 132.153903 141.553601 
L 132.153903 141.553601 
L 132.330634 140.4043 
L 132.330634 140.4043 
L 132.507365 137.499078 
L 132.507365 137.499078 
L 132.684096 138.399934 
L 132.860826 136.305493 
L 132.860826 136.305493 
L 133.037557 136.31225 
L 133.037557 136.31225 
L 133.214288 135.011783 
L 133.391019 132.390074 
L 133.391019 132.390074 
L 133.56775 132.742443 
L 133.56775 132.742443 
L 133.744481 131.086033 
L 133.921211 128.17383 
L 133.921211 128.17383 
L 134.097942 128.869353 
L 134.097942 128.869353 
L 134.451404 123.638054 
L 134.451404 123.638054 
L 134.628135 124.649814 
L 134.628135 124.649814 
L 134.804866 122.131471 
L 134.981596 121.793845 
L 134.981596 121.793845 
L 135.158327 120.057078 
L 135.158327 120.057078 
L 135.335058 117.179553 
L 135.335058 117.179553 
L 135.511789 116.965675 
L 135.511789 116.965675 
L 135.68852 115.091311 
L 135.68852 115.091311 
L 135.865251 111.907489 
L 135.865251 111.907489 
L 136.041981 111.745266 
L 136.041981 111.745266 
L 136.395443 106.327564 
L 136.395443 106.327564 
L 136.572174 106.116422 
L 136.572174 106.116422 
L 137.455828 94.162207 
L 137.455828 94.162207 
L 137.632559 89.70958 
L 137.632559 89.70958 
L 137.80929 90.949514 
L 137.80929 90.949514 
L 138.162752 82.284496 
L 138.162752 82.284496 
L 138.339482 83.651193 
L 138.339482 83.651193 
L 138.869675 75.106629 
L 138.869675 75.106629 
L 139.046406 72.599901 
L 139.046406 72.599901 
L 139.399867 62.164219 
L 139.399867 62.164219 
L 139.576598 62.927702 
L 139.576598 62.927702 
L 139.753329 60.223067 
L 139.753329 60.223067 
L 139.93006 55.152149 
L 139.93006 55.152149 
L 140.106791 53.568 
L 140.106791 53.568 
L 150.53391 53.568 
L 150.53391 53.568 
L 150.710641 56.435975 
L 150.710641 56.435975 
L 150.887372 65.348767 
L 150.887372 65.348767 
L 151.064103 66.558769 
L 151.064103 66.558769 
L 151.594295 87.614414 
L 151.594295 87.614414 
L 151.771026 96.040256 
L 151.771026 96.040256 
L 151.947757 95.772658 
L 151.947757 95.772658 
L 152.301218 108.580207 
L 152.301218 108.580207 
L 152.477949 118.665531 
L 152.477949 118.665531 
L 152.65468 117.154927 
L 152.65468 117.154927 
L 152.831411 122.175084 
L 152.831411 122.175084 
L 153.008142 131.367593 
L 153.008142 131.367593 
L 153.184873 131.898434 
L 153.184873 131.898434 
L 153.361603 136.677071 
L 153.361603 136.677071 
L 153.538334 144.956383 
L 153.538334 144.956383 
L 153.715065 146.363342 
L 153.715065 146.363342 
L 153.891796 150.745886 
L 153.891796 150.745886 
L 154.068527 158.485198 
L 154.068527 158.485198 
L 154.245258 158.896312 
L 154.421988 163.848453 
L 154.421988 163.848453 
L 154.598719 172.475386 
L 154.598719 172.475386 
L 154.77545 171.971293 
L 154.77545 171.971293 
L 154.952181 177.822503 
L 154.952181 177.822503 
L 155.128912 179.57122 
L 155.305643 183.112995 
L 155.305643 183.112995 
L 155.482373 191.235388 
L 155.482373 191.235388 
L 155.659104 190.089828 
L 155.659104 190.089828 
L 155.835835 195.894856 
L 155.835835 195.894856 
L 156.012566 196.594958 
L 156.012566 196.594958 
L 156.366028 202.254347 
L 156.366028 202.254347 
L 156.542758 205.353512 
L 156.542758 205.353512 
L 156.719489 212.159411 
L 156.719489 212.159411 
L 156.89622 210.732906 
L 156.89622 210.732906 
L 157.072951 216.685917 
L 157.072951 216.685917 
L 157.249682 215.639535 
L 157.249682 215.639535 
L 157.426413 220.509586 
L 157.426413 220.509586 
L 157.603143 220.133597 
L 157.603143 220.133597 
L 157.779874 224.31399 
L 157.779874 224.31399 
L 157.956605 224.215818 
L 157.956605 224.215818 
L 158.133336 227.85448 
L 158.133336 227.85448 
L 158.310067 227.899936 
L 158.310067 227.899936 
L 158.486798 231.108999 
L 158.486798 231.108999 
L 158.663528 231.205663 
L 158.663528 231.205663 
L 158.840259 234.11122 
L 158.840259 234.11122 
L 159.01699 234.151762 
L 159.01699 234.151762 
L 159.193721 236.804128 
L 159.193721 236.804128 
L 159.370452 237.141698 
L 159.370452 237.141698 
L 159.547183 239.168625 
L 159.547183 239.168625 
L 159.723913 239.033932 
L 159.723913 239.033932 
L 159.900644 241.211969 
L 159.900644 241.211969 
L 160.077375 241.010097 
L 160.077375 241.010097 
L 160.254106 242.930587 
L 160.254106 242.930587 
L 160.430837 243.071367 
L 160.430837 243.071367 
L 160.607568 244.309849 
L 160.607568 244.309849 
L 160.784299 244.096976 
L 160.784299 244.096976 
L 160.961029 245.365948 
L 160.961029 245.365948 
L 161.13776 245.484168 
L 161.13776 245.484168 
L 161.314491 246.035336 
L 161.314491 246.035336 
L 161.491222 246.153499 
L 161.491222 246.153499 
L 162.198145 247.372101 
L 162.198145 247.372101 
L 162.374876 247.188155 
L 162.374876 247.188155 
L 162.551607 247.324523 
L 162.551607 247.324523 
L 163.081799 247.298947 
L 163.081799 247.298947 
L 163.25853 247.416664 
L 163.25853 247.416664 
L 163.435261 247.284484 
L 163.435261 247.284484 
L 163.611992 247.390641 
L 163.611992 247.390641 
L 163.965454 247.03375 
L 163.965454 247.03375 
L 164.495646 247.361547 
L 164.495646 247.361547 
L 164.672377 246.828807 
L 164.672377 246.828807 
L 164.849108 247.01024 
L 164.849108 247.01024 
L 165.025839 245.848542 
L 165.025839 245.848542 
L 165.202569 246.085874 
L 165.202569 246.085874 
L 165.3793 245.00526 
L 165.3793 245.00526 
L 165.556031 245.616236 
L 165.556031 245.616236 
L 165.732762 243.910852 
L 165.732762 243.910852 
L 165.909493 244.653952 
L 165.909493 244.653952 
L 166.086224 242.55108 
L 166.086224 242.55108 
L 166.262954 243.669332 
L 166.262954 243.669332 
L 166.439685 240.933313 
L 166.439685 240.933313 
L 166.616416 242.64618 
L 166.793147 241.205603 
L 166.793147 241.205603 
L 166.969878 240.700728 
L 166.969878 240.700728 
L 167.676801 236.134294 
L 167.676801 236.134294 
L 167.853532 235.519464 
L 167.853532 235.519464 
L 168.030263 233.768345 
L 168.030263 233.768345 
L 168.206994 233.631586 
L 168.206994 233.631586 
L 168.383724 230.720165 
L 168.383724 230.720165 
L 168.560455 230.796782 
L 168.560455 230.796782 
L 168.737186 228.280449 
L 168.737186 228.280449 
L 168.913917 228.566476 
L 168.913917 228.566476 
L 169.090648 224.902405 
L 169.090648 224.902405 
L 169.267379 225.396949 
L 169.444109 221.75583 
L 169.444109 221.75583 
L 169.62084 222.459226 
L 169.62084 222.459226 
L 169.797571 218.487853 
L 169.797571 218.487853 
L 169.974302 219.372794 
L 169.974302 219.372794 
L 170.151033 215.132259 
L 170.151033 215.132259 
L 170.327764 216.145303 
L 170.327764 216.145303 
L 170.504494 211.68268 
L 170.504494 211.68268 
L 170.681225 212.78781 
L 170.681225 212.78781 
L 170.857956 208.17229 
L 170.857956 208.17229 
L 171.034687 209.309863 
L 171.034687 209.309863 
L 171.211418 204.621915 
L 171.211418 204.621915 
L 171.388149 205.705489 
L 171.388149 205.705489 
L 171.564879 201.037253 
L 171.564879 201.037253 
L 171.74161 202.016792 
L 171.74161 202.016792 
L 171.918341 197.442037 
L 171.918341 197.442037 
L 172.095072 198.138006 
L 172.095072 198.138006 
L 172.271803 193.835653 
L 172.271803 193.835653 
L 172.448534 194.394416 
L 172.448534 194.394416 
L 172.625265 190.247026 
L 172.625265 190.247026 
L 172.801995 190.476037 
L 172.801995 190.476037 
L 172.978726 186.678112 
L 172.978726 186.678112 
L 173.155457 186.503659 
L 173.155457 186.503659 
L 173.332188 183.049613 
L 173.332188 183.049613 
L 173.508919 182.292831 
L 173.508919 182.292831 
L 174.215842 170.971483 
L 174.215842 170.971483 
L 174.392573 171.996031 
L 174.392573 171.996031 
L 174.569304 167.802236 
L 174.569304 167.802236 
L 174.746035 168.407851 
L 174.746035 168.407851 
L 174.922765 164.534761 
L 174.922765 164.534761 
L 175.099496 163.791158 
L 175.099496 163.791158 
L 175.452958 160.190581 
L 175.452958 160.190581 
L 175.629689 158.864203 
L 175.629689 158.864203 
L 175.80642 154.017493 
L 175.80642 154.017493 
L 175.98315 154.746298 
L 175.98315 154.746298 
L 176.159881 151.454364 
L 176.159881 151.454364 
L 176.336612 150.949545 
L 176.336612 150.949545 
L 176.513343 149.548393 
L 176.513343 149.548393 
L 176.690074 144.42286 
L 176.690074 144.42286 
L 176.866805 145.784029 
L 176.866805 145.784029 
L 177.043535 142.559832 
L 177.043535 142.559832 
L 177.220266 142.158546 
L 177.220266 142.158546 
L 177.396997 140.878517 
L 177.573728 136.019299 
L 177.573728 136.019299 
L 177.750459 137.368182 
L 177.750459 137.368182 
L 177.92719 134.221998 
L 177.92719 134.221998 
L 178.10392 133.376203 
L 178.10392 133.376203 
L 178.280651 131.706726 
L 178.280651 131.706726 
L 178.457382 126.767876 
L 178.457382 126.767876 
L 178.634113 127.138951 
L 178.634113 127.138951 
L 178.810844 124.123942 
L 178.810844 124.123942 
L 178.987575 118.433783 
L 178.987575 118.433783 
L 179.164305 120.088461 
L 179.164305 120.088461 
L 179.517767 113.816476 
L 179.517767 113.816476 
L 180.22469 98.717193 
L 180.22469 98.717193 
L 180.401421 90.403036 
L 180.401421 90.403036 
L 180.578152 89.521055 
L 180.578152 89.521055 
L 180.754883 84.260662 
L 180.754883 84.260662 
L 180.931614 75.401311 
L 180.931614 75.401311 
L 181.108345 73.459489 
L 181.108345 73.459489 
L 181.461806 57.15981 
L 181.461806 57.15981 
L 181.638537 57.814064 
L 181.638537 57.814064 
L 181.815268 57.322871 
L 183.052384 101.568304 
L 183.052384 101.568304 
L 183.405845 114.539584 
L 183.405845 114.539584 
L 183.582576 124.573923 
L 183.582576 124.573923 
L 183.759307 124.509425 
L 183.759307 124.509425 
L 183.936038 129.976046 
L 183.936038 129.976046 
L 184.112769 140.416697 
L 184.112769 140.416697 
L 184.2895 141.63932 
L 184.2895 141.63932 
L 184.466231 146.714984 
L 184.466231 146.714984 
L 184.642961 156.745359 
L 184.642961 156.745359 
L 184.819692 157.982556 
L 184.819692 157.982556 
L 184.996423 163.533276 
L 184.996423 163.533276 
L 185.173154 174.350755 
L 185.173154 174.350755 
L 185.349885 173.766137 
L 185.349885 173.766137 
L 185.703346 182.973835 
L 185.703346 182.973835 
L 185.880077 188.388465 
L 185.880077 188.388465 
L 186.056808 198.133874 
L 186.056808 198.133874 
L 186.233539 197.377092 
L 186.233539 197.377092 
L 186.41027 204.874604 
L 186.41027 204.874604 
L 186.587001 205.890105 
L 186.587001 205.890105 
L 186.940462 213.692463 
L 186.940462 213.692463 
L 187.470655 224.377204 
L 187.470655 224.377204 
L 187.647386 233.602883 
L 187.647386 233.602883 
L 187.824116 230.54091 
L 187.824116 230.54091 
L 188.000847 239.207603 
L 188.000847 239.207603 
L 188.177578 236.746052 
L 188.177578 236.746052 
L 188.354309 244.810759 
L 188.354309 244.810759 
L 188.53104 242.262763 
L 188.53104 242.262763 
L 189.591425 256.964389 
L 189.591425 256.964389 
L 189.768156 257.156265 
L 189.768156 257.156265 
L 189.944886 260.261795 
L 189.944886 260.261795 
L 190.121617 259.997826 
L 190.121617 259.997826 
L 190.298348 263.740188 
L 190.298348 263.740188 
L 190.475079 263.398598 
L 190.475079 263.398598 
L 190.65181 264.193632 
L 191.005271 266.86035 
L 191.005271 266.86035 
L 191.182002 268.141607 
L 191.182002 268.141607 
L 191.358733 268.442767 
L 191.358733 268.442767 
L 191.535464 270.39788 
L 191.535464 270.39788 
L 191.712195 270.337067 
L 191.712195 270.337067 
L 192.065656 271.543272 
L 192.065656 271.543272 
L 192.242387 271.508873 
L 192.242387 271.508873 
L 192.419118 272.70229 
L 192.419118 272.70229 
L 192.949311 273.620625 
L 192.949311 273.620625 
L 193.126041 273.368829 
L 193.126041 273.368829 
L 193.302772 274.021129 
L 193.302772 274.021129 
L 193.479503 273.681996 
L 193.479503 273.681996 
L 193.656234 274.384722 
L 193.656234 274.384722 
L 193.832965 274.179499 
L 193.832965 274.179499 
L 194.186426 274.630989 
L 194.186426 274.630989 
L 194.363157 274.778581 
L 194.363157 274.778581 
L 194.716619 274.415547 
L 194.716619 274.415547 
L 195.070081 274.721286 
L 195.070081 274.721286 
L 195.246812 274.478873 
L 195.246812 274.478873 
L 195.600273 274.778581 
L 195.600273 274.778581 
L 196.130466 274.206527 
L 196.130466 274.206527 
L 196.307197 274.453799 
L 196.307197 274.453799 
L 196.660658 273.972043 
L 196.660658 273.972043 
L 196.837389 273.986451 
L 196.837389 273.986451 
L 197.01412 272.65594 
L 197.01412 272.65594 
L 197.190851 273.317007 
L 197.190851 273.317007 
L 197.367582 271.264281 
L 197.367582 271.264281 
L 197.544312 272.273193 
L 197.544312 272.273193 
L 197.721043 271.948077 
L 197.721043 271.948077 
L 197.897774 270.494544 
L 197.897774 270.494544 
L 198.074505 270.625384 
L 198.074505 270.625384 
L 198.251236 267.402807 
L 198.427967 268.843663 
L 198.427967 268.843663 
L 198.781428 266.289748 
L 198.781428 266.289748 
L 198.958159 265.957427 
L 198.958159 265.957427 
L 199.13489 262.931975 
L 199.13489 262.931975 
L 199.311621 263.436515 
L 199.311621 263.436515 
L 199.488352 258.129214 
L 199.488352 258.129214 
L 199.665082 260.606569 
L 199.665082 260.606569 
L 200.195275 255.825307 
L 200.195275 255.825307 
L 200.372006 250.845022 
L 200.372006 250.845022 
L 200.548737 252.548004 
L 200.548737 252.548004 
L 200.725467 245.423634 
L 200.902198 247.73977 
L 200.902198 247.73977 
L 201.078929 245.957268 
L 201.078929 245.957268 
L 201.25566 241.95412 
L 201.25566 241.95412 
L 201.432391 241.190581 
L 201.432391 241.190581 
L 201.609122 235.72061 
L 201.609122 235.72061 
L 201.785852 236.347725 
L 201.785852 236.347725 
L 201.962583 229.601243 
L 202.139314 231.512017 
L 202.139314 231.512017 
L 202.316045 222.305268 
L 202.316045 222.305268 
L 202.492776 225.525667 
L 203.022968 216.33623 
L 203.022968 216.33623 
L 203.199699 210.349433 
L 203.199699 210.349433 
L 203.37643 209.461477 
L 203.37643 209.461477 
L 203.553161 202.56461 
L 203.553161 202.56461 
L 203.729892 201.908848 
L 203.729892 201.908848 
L 203.906622 193.658575 
L 203.906622 193.658575 
L 204.083353 193.96035 
L 204.083353 193.96035 
L 204.260084 184.69787 
L 204.260084 184.69787 
L 204.436815 185.196658 
L 204.436815 185.196658 
L 204.613546 175.421429 
L 204.613546 175.421429 
L 204.790277 175.693104 
L 204.790277 175.693104 
L 204.967007 166.438889 
L 204.967007 166.438889 
L 205.143738 166.107462 
L 205.143738 166.107462 
L 205.320469 157.11085 
L 205.320469 157.11085 
L 205.4972 155.689092 
L 205.4972 155.689092 
L 205.850662 144.679793 
L 205.850662 144.679793 
L 206.027392 139.436041 
L 206.027392 139.436041 
L 206.204123 125.8372 
L 206.204123 125.8372 
L 206.380854 128.315839 
L 206.380854 128.315839 
L 206.557585 117.190778 
L 206.557585 117.190778 
L 206.734316 116.966848 
L 206.911047 110.016763 
L 206.911047 110.016763 
L 207.087778 97.556389 
L 207.087778 97.556389 
L 207.264508 100.565981 
L 207.264508 100.565981 
L 207.441239 91.006865 
L 207.441239 91.006865 
L 207.61797 89.263396 
L 207.61797 89.263396 
L 207.794701 84.244021 
L 207.794701 84.244021 
L 207.971432 73.846368 
L 207.971432 73.846368 
L 208.148163 73.586811 
L 208.148163 73.586811 
L 208.324893 68.058651 
L 208.324893 68.058651 
L 208.501624 58.797903 
L 208.501624 58.797903 
L 208.678355 58.271082 
L 208.678355 58.271082 
L 208.855086 53.958676 
L 208.855086 53.958676 
L 209.031817 53.568 
L 209.031817 53.568 
L 214.687203 53.568 
L 214.687203 53.568 
L 214.863934 53.790478 
L 214.863934 53.790478 
L 215.040665 56.820788 
L 215.040665 56.820788 
L 215.394127 67.551822 
L 215.394127 67.551822 
L 215.570858 68.109636 
L 215.570858 68.109636 
L 216.10105 82.917977 
L 216.10105 82.917977 
L 216.277781 88.437257 
L 216.277781 88.437257 
L 216.454512 88.260459 
L 216.454512 88.260459 
L 216.631243 91.511237 
L 216.631243 91.511237 
L 216.984704 104.737272 
L 216.984704 104.737272 
L 217.161435 103.61874 
L 217.161435 103.61874 
L 217.338166 107.371098 
L 217.338166 107.371098 
L 217.514897 114.455262 
L 217.514897 114.455262 
L 217.691628 115.292401 
L 217.691628 115.292401 
L 218.045089 124.690802 
L 218.045089 124.690802 
L 218.22182 132.127892 
L 218.22182 132.127892 
L 218.398551 130.448029 
L 218.398551 130.448029 
L 218.752013 142.523926 
L 218.752013 142.523926 
L 218.928744 141.236581 
L 218.928744 141.236581 
L 219.282205 153.302482 
L 219.282205 153.302482 
L 219.458936 152.141119 
L 219.458936 152.141119 
L 219.635667 157.150387 
L 219.635667 157.150387 
L 219.812398 158.551427 
L 219.812398 158.551427 
L 219.989129 161.102103 
L 219.989129 161.102103 
L 220.165859 167.18467 
L 220.165859 167.18467 
L 220.34259 167.448248 
L 220.34259 167.448248 
L 220.519321 170.885206 
L 220.519321 170.885206 
L 220.696052 176.993349 
L 220.696052 176.993349 
L 220.872783 175.899388 
L 220.872783 175.899388 
L 221.049514 179.658558 
L 221.049514 179.658558 
L 221.226244 179.955028 
L 221.226244 179.955028 
L 221.402975 183.565154 
L 221.402975 183.565154 
L 221.579706 184.806931 
L 221.579706 184.806931 
L 221.756437 187.016966 
L 221.756437 187.016966 
L 221.933168 191.144532 
L 221.933168 191.144532 
L 222.109899 190.804337 
L 222.109899 190.804337 
L 222.286629 193.640482 
L 222.286629 193.640482 
L 222.46336 193.698112 
L 222.46336 193.698112 
L 222.640091 195.916914 
L 222.640091 195.916914 
L 222.816822 196.570387 
L 222.816822 196.570387 
L 222.993553 198.040505 
L 222.993553 198.040505 
L 223.170284 200.619772 
L 223.170284 200.619772 
L 223.347014 200.241996 
L 223.347014 200.241996 
L 223.523745 201.996019 
L 223.523745 201.996019 
L 223.700476 202.012883 
L 223.700476 202.012883 
L 223.877207 203.093386 
L 223.877207 203.093386 
L 224.053938 203.381981 
L 224.407399 204.370734 
L 224.407399 204.370734 
L 224.58413 204.582602 
L 224.760861 205.013764 
L 224.760861 205.013764 
L 225.114323 205.076643 
L 225.114323 205.076643 
L 225.291054 205.243111 
L 225.291054 205.243111 
L 225.467784 205.121262 
L 225.644515 205.332627 
L 225.644515 205.332627 
L 225.821246 205.151249 
L 225.821246 205.151249 
L 225.997977 205.368254 
L 225.997977 205.368254 
L 226.174708 205.180287 
L 226.174708 205.180287 
L 226.351439 205.398354 
L 226.351439 205.398354 
L 226.528169 205.163367 
L 226.528169 205.163367 
L 226.7049 205.36926 
L 226.7049 205.36926 
L 226.881631 205.040848 
L 226.881631 205.040848 
L 227.058362 205.190228 
L 227.058362 205.190228 
L 227.235093 204.752978 
L 227.235093 204.752978 
L 227.411824 203.653992 
L 227.411824 203.653992 
L 227.588554 204.072254 
L 227.588554 204.072254 
L 227.765285 202.716391 
L 227.765285 202.716391 
L 227.942016 203.232937 
L 227.942016 203.232937 
L 228.118747 201.427204 
L 228.118747 201.427204 
L 228.295478 201.840496 
L 228.295478 201.840496 
L 228.472209 199.745218 
L 228.472209 199.745218 
L 228.648939 199.93983 
L 228.648939 199.93983 
L 228.82567 197.596331 
L 228.82567 197.596331 
L 229.002401 197.436006 
L 229.002401 197.436006 
L 229.179132 194.896387 
L 229.179132 194.896387 
L 229.355863 194.020827 
L 229.355863 194.020827 
L 229.886055 187.434782 
L 229.886055 187.434782 
L 230.062786 180.385799 
L 230.062786 180.385799 
L 230.239517 182.171317 
L 230.239517 182.171317 
L 230.416248 174.676877 
L 230.416248 174.676877 
L 230.592979 175.555061 
L 230.592979 175.555061 
L 230.76971 168.434097 
L 230.76971 168.434097 
L 230.94644 167.989533 
L 230.94644 167.989533 
L 231.299902 158.692151 
L 231.299902 158.692151 
L 231.476633 153.786304 
L 231.476633 153.786304 
L 231.653364 140.655481 
L 231.653364 140.655481 
L 231.830095 143.672836 
L 231.830095 143.672836 
L 232.006825 132.218134 
L 232.006825 132.218134 
L 232.183556 131.952658 
L 232.183556 131.952658 
L 232.537018 118.368838 
L 232.537018 118.368838 
L 232.713749 111.286294 
L 232.713749 111.286294 
L 232.89048 98.948774 
L 232.89048 98.948774 
L 233.06721 98.326014 
L 233.06721 98.326014 
L 233.243941 91.48795 
L 233.243941 91.48795 
L 233.420672 79.378771 
L 233.420672 79.378771 
L 233.597403 80.389694 
L 233.597403 80.389694 
L 233.950865 65.296052 
L 233.950865 65.296052 
L 234.127595 66.1457 
L 234.127595 66.1457 
L 234.657788 54.343154 
L 234.657788 54.343154 
L 234.834519 53.568 
L 234.834519 53.568 
L 241.020098 53.568 
L 241.020098 53.568 
L 241.196829 54.774261 
L 241.196829 54.774261 
L 241.55029 63.045028 
L 241.55029 63.045028 
L 241.727021 63.110643 
L 241.727021 63.110643 
L 242.080483 68.625344 
L 242.080483 68.625344 
L 242.257214 72.8871 
L 242.257214 72.8871 
L 242.433945 73.560397 
L 242.433945 73.560397 
L 242.787406 79.10207 
L 242.787406 79.10207 
L 243.140868 86.840153 
L 243.140868 86.840153 
L 243.317599 86.731818 
L 243.317599 86.731818 
L 243.671061 94.187392 
L 243.671061 94.187392 
L 243.847791 98.740536 
L 243.847791 98.740536 
L 244.024522 97.941202 
L 244.024522 97.941202 
L 244.908176 112.552529 
L 244.908176 112.552529 
L 245.084907 116.750122 
L 245.084907 116.750122 
L 245.261638 116.639218 
L 245.261638 116.639218 
L 245.438369 119.320567 
L 245.438369 119.320567 
L 245.6151 123.742592 
L 245.6151 123.742592 
L 245.791831 123.82468 
L 245.791831 123.82468 
L 245.968561 125.842896 
L 245.968561 125.842896 
L 246.145292 129.673489 
L 246.145292 129.673489 
L 246.322023 130.085274 
L 246.322023 130.085274 
L 246.498754 131.764188 
L 246.498754 131.764188 
L 246.675485 134.802037 
L 246.675485 134.802037 
L 246.852216 135.279437 
L 246.852216 135.279437 
L 247.205677 138.997005 
L 247.205677 138.997005 
L 247.382408 139.359146 
L 247.382408 139.359146 
L 247.73587 142.140397 
L 247.73587 142.140397 
L 247.912601 142.367007 
L 247.912601 142.367007 
L 248.619524 144.830569 
L 248.619524 144.830569 
L 249.149716 146.067766 
L 249.149716 146.067766 
L 249.679909 145.788217 
L 249.679909 145.788217 
L 250.033371 146.236691 
L 250.033371 146.236691 
L 250.210101 145.751305 
L 250.386832 146.029849 
L 250.386832 146.029849 
L 250.563563 146.618097 
L 250.563563 146.618097 
L 250.740294 145.523243 
L 250.740294 145.523243 
L 250.917025 146.26612 
L 250.917025 146.26612 
L 251.093756 145.868519 
L 251.270486 144.572575 
L 251.447217 145.486163 
L 251.447217 145.486163 
L 251.623948 144.119187 
L 251.623948 144.119187 
L 251.800679 144.192174 
L 251.800679 144.192174 
L 251.97741 143.808869 
L 251.97741 143.808869 
L 252.154141 141.589396 
L 252.154141 141.589396 
L 252.330871 141.803777 
L 252.330871 141.803777 
L 252.507602 140.585454 
L 252.507602 140.585454 
L 252.684333 137.740319 
L 252.684333 137.740319 
L 252.861064 138.313322 
L 252.861064 138.313322 
L 253.037795 136.230496 
L 253.037795 136.230496 
L 253.214526 132.654937 
L 253.214526 132.654937 
L 253.391256 134.189162 
L 253.391256 134.189162 
L 253.567987 131.19314 
L 253.567987 131.19314 
L 253.744718 130.327967 
L 253.744718 130.327967 
L 253.921449 128.683731 
L 253.921449 128.683731 
L 254.09818 124.356248 
L 254.09818 124.356248 
L 254.274911 124.262544 
L 254.274911 124.262544 
L 254.451642 122.362213 
L 254.451642 122.362213 
L 254.628372 117.226182 
L 254.628372 117.226182 
L 254.805103 117.453016 
L 254.805103 117.453016 
L 254.981834 115.178649 
L 254.981834 115.178649 
L 255.158565 109.534728 
L 255.158565 109.534728 
L 255.335296 109.965332 
L 255.335296 109.965332 
L 255.512027 107.3434 
L 255.512027 107.3434 
L 255.688757 101.390054 
L 255.688757 101.390054 
L 255.865488 101.856006 
L 255.865488 101.856006 
L 256.21895 92.708563 
L 256.395681 92.947011 
L 257.279335 74.299309 
L 257.279335 74.299309 
L 257.456066 67.165055 
L 257.456066 67.165055 
L 257.632797 69.249835 
L 257.632797 69.249835 
L 257.809527 64.914143 
L 257.809527 64.914143 
L 257.986258 56.926778 
L 257.986258 56.926778 
L 258.162989 56.885789 
L 258.162989 56.885789 
L 258.33972 53.568 
L 276.189534 53.568 
L 276.189534 53.568 
L 276.366265 56.691344 
L 276.366265 56.691344 
L 276.719727 77.402718 
L 276.719727 77.402718 
L 276.896458 77.605427 
L 276.896458 77.605427 
L 277.249919 91.961497 
L 277.249919 91.961497 
L 277.42665 103.465899 
L 277.42665 103.465899 
L 277.603381 105.123704 
L 277.603381 105.123704 
L 277.956843 119.667741 
L 277.956843 119.667741 
L 278.133574 132.441673 
L 278.133574 132.441673 
L 278.310304 132.352939 
L 278.310304 132.352939 
L 278.487035 139.06424 
L 278.487035 139.06424 
L 278.663766 151.48692 
L 278.663766 151.48692 
L 278.840497 152.425471 
L 278.840497 152.425471 
L 279.017228 159.094498 
L 279.017228 159.094498 
L 279.193959 171.661533 
L 279.193959 171.661533 
L 279.370689 171.328039 
L 279.370689 171.328039 
L 279.54742 178.527406 
L 279.54742 178.527406 
L 279.724151 192.64849 
L 279.724151 192.64849 
L 279.900882 188.905346 
L 279.900882 188.905346 
L 280.077613 199.66151 
L 280.077613 199.66151 
L 280.254344 199.633533 
L 280.254344 199.633533 
L 280.431074 207.642956 
L 280.431074 207.642956 
L 280.607805 209.82546 
L 280.607805 209.82546 
L 281.314729 235.307094 
L 281.314729 235.307094 
L 281.491459 231.89655 
L 281.491459 231.89655 
L 281.66819 242.352558 
L 281.66819 242.352558 
L 281.844921 238.898625 
L 281.844921 238.898625 
L 282.021652 248.676813 
L 282.021652 248.676813 
L 282.198383 246.01043 
L 282.198383 246.01043 
L 282.375114 248.423063 
L 282.375114 248.423063 
L 282.905306 259.380819 
L 282.905306 259.380819 
L 283.082037 260.187636 
L 283.082037 260.187636 
L 283.258768 265.085051 
L 283.258768 265.085051 
L 283.435499 264.631942 
L 283.435499 264.631942 
L 283.612229 271.040854 
L 283.78896 269.656734 
L 283.78896 269.656734 
L 283.965691 271.403162 
L 283.965691 271.403162 
L 284.142422 274.825433 
L 284.319153 275.671675 
L 284.319153 275.671675 
L 284.495884 279.443243 
L 284.495884 279.443243 
L 284.672614 279.246565 
L 284.672614 279.246565 
L 284.849345 284.121307 
L 284.849345 284.121307 
L 285.026076 282.662749 
L 285.026076 282.662749 
L 285.202807 284.030563 
L 285.202807 284.030563 
L 285.379538 286.608769 
L 285.379538 286.608769 
L 285.556269 286.811088 
L 285.556269 286.811088 
L 285.732999 289.453346 
L 285.732999 289.453346 
L 285.90973 289.106283 
L 285.90973 289.106283 
L 286.086461 289.874792 
L 286.086461 289.874792 
L 286.263192 291.598939 
L 286.263192 291.598939 
L 286.439923 291.999667 
L 286.439923 291.999667 
L 286.616654 293.53272 
L 286.616654 293.53272 
L 286.793384 293.2568 
L 286.793384 293.2568 
L 287.146846 294.42721 
L 287.146846 294.42721 
L 287.853769 295.357551 
L 287.853769 295.357551 
L 288.0305 295.26206 
L 288.0305 295.26206 
L 288.207231 295.405688 
L 288.207231 295.405688 
L 288.383962 295.225483 
L 288.383962 295.225483 
L 288.737424 295.488 
L 288.737424 295.488 
L 288.914155 295.280097 
L 288.914155 295.280097 
L 289.090885 295.413115 
L 289.267616 295.114021 
L 289.267616 295.114021 
L 289.621078 295.393681 
L 289.621078 295.393681 
L 289.797809 294.850889 
L 289.797809 294.850889 
L 289.97454 295.034501 
L 289.97454 295.034501 
L 290.328001 294.28213 
L 290.328001 294.28213 
L 290.504732 294.234496 
L 290.504732 294.234496 
L 290.681463 292.703957 
L 290.681463 292.703957 
L 290.858194 293.06364 
L 290.858194 293.06364 
L 291.388386 290.874323 
L 291.388386 290.874323 
L 291.565117 288.158463 
L 291.565117 288.158463 
L 291.741848 288.692767 
L 291.741848 288.692767 
L 291.918579 287.788505 
L 291.918579 287.788505 
L 292.09531 285.711208 
L 292.09531 285.711208 
L 292.27204 285.108161 
L 292.27204 285.108161 
L 292.448771 281.803495 
L 292.448771 281.803495 
L 292.625502 282.048925 
L 292.625502 282.048925 
L 292.802233 277.003191 
L 292.802233 277.003191 
L 292.978964 278.434834 
L 292.978964 278.434834 
L 293.155695 277.003303 
L 293.155695 277.003303 
L 293.332425 273.730691 
L 293.509156 273.80418 
L 293.509156 273.80418 
L 293.685887 267.678056 
L 293.685887 267.678056 
L 293.862618 269.625686 
L 293.862618 269.625686 
L 294.039349 267.966651 
L 294.039349 267.966651 
L 294.21608 263.871084 
L 294.21608 263.871084 
L 294.39281 264.281417 
L 294.39281 264.281417 
L 294.569541 256.836062 
L 294.569541 256.836062 
L 294.746272 259.208376 
L 294.746272 259.208376 
L 294.923003 257.34278 
L 294.923003 257.34278 
L 295.099734 252.6531 
L 295.099734 252.6531 
L 295.276465 252.977435 
L 295.276465 252.977435 
L 295.453195 244.549861 
L 295.453195 244.549861 
L 295.629926 247.345967 
L 295.629926 247.345967 
L 296.160119 239.14612 
L 296.160119 239.14612 
L 296.33685 231.692724 
L 296.33685 231.692724 
L 296.51358 232.744802 
L 296.51358 232.744802 
L 296.690311 223.734509 
L 296.690311 223.734509 
L 296.867042 226.82189 
L 296.867042 226.82189 
L 297.573965 211.283628 
L 297.573965 211.283628 
L 297.750696 210.45559 
L 297.927427 204.044947 
L 297.927427 204.044947 
L 298.104158 204.038525 
L 298.104158 204.038525 
L 298.280889 196.995853 
L 298.280889 196.995853 
L 298.45762 197.570978 
L 298.45762 197.570978 
L 298.63435 191.009671 
L 298.63435 191.009671 
L 298.811081 191.688496 
L 298.811081 191.688496 
L 298.987812 185.740623 
L 298.987812 185.740623 
L 299.164543 186.066074 
L 299.164543 186.066074 
L 299.341274 181.165421 
L 299.341274 181.165421 
L 299.518005 181.552356 
L 299.518005 181.552356 
L 299.694735 177.033053 
L 299.694735 177.033053 
L 299.871466 177.086494 
L 299.871466 177.086494 
L 300.048197 173.520093 
L 300.048197 173.520093 
L 300.224928 173.029011 
L 300.224928 173.029011 
L 300.401659 169.975638 
L 300.401659 169.975638 
L 300.57839 169.063948 
L 300.57839 169.063948 
L 300.755121 166.493727 
L 300.755121 166.493727 
L 300.931851 160.831377 
L 300.931851 160.831377 
L 301.108582 162.391067 
L 301.108582 162.391067 
L 301.285313 156.944829 
L 301.285313 156.944829 
L 301.462044 157.593499 
L 301.462044 157.593499 
L 301.638775 152.887179 
L 301.638775 152.887179 
L 301.815506 151.707667 
L 301.815506 151.707667 
L 301.992236 148.298296 
L 301.992236 148.298296 
L 302.168967 139.101766 
L 302.168967 139.101766 
L 302.345698 141.299628 
L 302.345698 141.299628 
L 302.522429 136.443425 
L 302.522429 136.443425 
L 302.69916 137.001295 
L 302.69916 137.001295 
L 302.875891 142.496004 
L 302.875891 142.496004 
L 303.052621 156.610722 
L 303.052621 156.610722 
L 303.229352 153.230724 
L 303.229352 153.230724 
L 303.406083 166.042126 
L 303.582814 167.106434 
L 303.582814 167.106434 
L 303.759545 174.508511 
L 303.759545 174.508511 
L 303.936276 186.993624 
L 303.936276 186.993624 
L 304.113006 184.010277 
L 304.113006 184.010277 
L 304.289737 192.616827 
L 304.289737 192.616827 
L 304.466468 192.68395 
L 304.466468 192.68395 
L 304.643199 199.004463 
L 304.643199 199.004463 
L 304.996661 204.778331 
L 304.996661 204.778331 
L 305.173391 213.856139 
L 305.173391 213.856139 
L 305.350122 211.550445 
L 305.350122 211.550445 
L 305.526853 218.617632 
L 305.526853 218.617632 
L 305.703584 217.551872 
L 305.703584 217.551872 
L 305.880315 223.131853 
L 305.880315 223.131853 
L 306.057046 222.951257 
L 306.057046 222.951257 
L 306.233776 227.560021 
L 306.233776 227.560021 
L 306.410507 227.80975 
L 306.587238 231.913582 
L 306.587238 231.913582 
L 306.763969 232.187938 
L 306.763969 232.187938 
L 306.9407 236.233694 
L 306.9407 236.233694 
L 307.117431 236.136192 
L 307.117431 236.136192 
L 307.294161 239.293322 
L 307.294161 239.293322 
L 307.470892 239.79708 
L 307.470892 239.79708 
L 307.647623 243.016194 
L 307.824354 243.306912 
L 307.824354 243.306912 
L 308.001085 246.086265 
L 308.001085 246.086265 
L 308.177816 246.175502 
L 308.177816 246.175502 
L 308.354546 248.944021 
L 308.354546 248.944021 
L 308.531277 248.819547 
L 308.531277 248.819547 
L 308.708008 251.290424 
L 308.708008 251.290424 
L 308.884739 251.283444 
L 308.884739 251.283444 
L 309.06147 253.30406 
L 309.06147 253.30406 
L 309.238201 252.912658 
L 309.238201 252.912658 
L 309.414931 255.359522 
L 309.414931 255.359522 
L 309.591662 254.912165 
L 309.591662 254.912165 
L 309.768393 255.587528 
L 309.768393 255.587528 
L 309.945124 256.981756 
L 309.945124 256.981756 
L 310.475316 258.091297 
L 310.475316 258.091297 
L 310.652047 259.287003 
L 310.652047 259.287003 
L 311.005509 259.61642 
L 311.005509 259.61642 
L 311.18224 260.371861 
L 311.18224 260.371861 
L 311.358971 259.94673 
L 311.358971 259.94673 
L 311.535701 260.993615 
L 311.535701 260.993615 
L 311.712432 261.169297 
L 311.712432 261.169297 
L 311.889163 260.974964 
L 311.889163 260.974964 
L 312.065894 261.127973 
L 312.065894 261.127973 
L 312.242625 260.885001 
L 312.242625 260.885001 
L 312.419356 261.288577 
L 312.419356 261.288577 
L 312.596087 261.216931 
L 312.596087 261.216931 
L 312.772817 261.680705 
L 312.772817 261.680705 
L 312.949548 261.562765 
L 312.949548 261.562765 
L 313.30301 261.733477 
L 313.30301 261.733477 
L 313.479741 261.173708 
L 313.479741 261.173708 
L 313.656472 261.476432 
L 313.656472 261.476432 
L 313.833202 261.28249 
L 313.833202 261.28249 
L 314.009933 261.675233 
L 314.009933 261.675233 
L 314.363395 261.468782 
L 314.363395 261.468782 
L 314.540126 260.813913 
L 314.540126 260.813913 
L 314.716857 260.683688 
L 314.716857 260.683688 
L 314.893587 260.829772 
L 314.893587 260.829772 
L 315.070318 259.989562 
L 315.070318 259.989562 
L 315.247049 260.533247 
L 315.247049 260.533247 
L 315.42378 258.311038 
L 315.42378 258.311038 
L 315.600511 259.646519 
L 315.600511 259.646519 
L 315.953972 257.893837 
L 315.953972 257.893837 
L 316.130703 257.799853 
L 316.130703 257.799853 
L 316.307434 255.219804 
L 316.307434 255.219804 
L 316.484165 255.700052 
L 316.484165 255.700052 
L 316.660896 253.098 
L 316.660896 253.098 
L 316.837627 254.392604 
L 316.837627 254.392604 
L 317.191088 251.845613 
L 317.191088 251.845613 
L 317.367819 251.280149 
L 317.367819 251.280149 
L 317.54455 248.016583 
L 317.54455 248.016583 
L 317.721281 248.139102 
L 317.721281 248.139102 
L 317.898012 244.807911 
L 317.898012 244.807911 
L 318.074742 245.686263 
L 318.074742 245.686263 
L 318.251473 240.168714 
L 318.251473 240.168714 
L 318.428204 242.116567 
L 318.428204 242.116567 
L 318.958397 237.354571 
L 318.958397 237.354571 
L 319.135127 233.86836 
L 319.311858 233.328025 
L 319.311858 233.328025 
L 319.488589 229.075204 
L 319.488589 229.075204 
L 319.66532 229.494248 
L 319.842051 224.770393 
L 319.842051 224.770393 
L 320.018782 225.855195 
L 320.018782 225.855195 
L 320.195512 219.614147 
L 320.195512 219.614147 
L 320.372243 221.652689 
L 320.372243 221.652689 
L 320.548974 214.782627 
L 320.548974 214.782627 
L 320.725705 217.283044 
L 320.725705 217.283044 
L 322.846475 187.970203 
L 322.846475 187.970203 
L 323.023206 180.295837 
L 323.023206 180.295837 
L 323.199937 182.46332 
L 323.199937 182.46332 
L 323.376667 175.315272 
L 323.376667 175.315272 
L 323.553398 176.882556 
L 323.553398 176.882556 
L 323.730129 170.541828 
L 323.730129 170.541828 
L 323.90686 171.527063 
L 323.90686 171.527063 
L 324.083591 165.388933 
L 324.083591 165.388933 
L 324.260322 165.396807 
L 324.260322 165.396807 
L 324.437053 159.849493 
L 324.437053 159.849493 
L 324.613783 158.574099 
L 324.790514 154.881437 
L 324.790514 154.881437 
L 324.967245 145.146416 
L 324.967245 145.146416 
L 325.143976 148.116807 
L 325.143976 148.116807 
L 325.320707 139.467928 
L 325.320707 139.467928 
L 325.497438 140.066842 
L 325.497438 140.066842 
L 325.850899 131.767986 
L 325.850899 131.767986 
L 326.02763 127.284366 
L 326.02763 127.284366 
L 326.204361 117.468093 
L 326.204361 117.468093 
L 326.381092 118.178302 
L 326.381092 118.178302 
L 326.557823 113.167135 
L 326.557823 113.167135 
L 326.734553 113.02133 
L 326.734553 113.02133 
L 326.911284 115.217963 
L 326.911284 115.217963 
L 327.088015 123.883874 
L 327.088015 123.883874 
L 327.264746 125.362368 
L 327.264746 125.362368 
L 327.441477 130.413741 
L 327.441477 130.413741 
L 327.618208 139.799075 
L 327.618208 139.799075 
L 327.794938 140.124639 
L 327.794938 140.124639 
L 327.971669 145.05623 
L 327.971669 145.05623 
L 328.1484 153.952771 
L 328.1484 153.952771 
L 328.325131 153.171977 
L 328.325131 153.171977 
L 328.678593 166.50322 
L 328.678593 166.50322 
L 328.855323 164.521471 
L 328.855323 164.521471 
L 329.032054 170.636761 
L 329.032054 170.636761 
L 329.208785 171.410128 
L 329.208785 171.410128 
L 329.385516 175.136966 
L 329.385516 175.136966 
L 329.562247 181.850556 
L 329.738978 180.664455 
L 329.738978 180.664455 
L 329.915708 185.466602 
L 329.915708 185.466602 
L 330.092439 185.891119 
L 330.092439 185.891119 
L 330.445901 190.62 
L 330.445901 190.62 
L 330.622632 192.603146 
L 330.622632 192.603146 
L 330.799363 196.812465 
L 330.799363 196.812465 
L 330.976093 196.578316 
L 331.152824 199.887841 
L 331.152824 199.887841 
L 331.329555 200.037835 
L 331.329555 200.037835 
L 331.506286 202.276126 
L 331.506286 202.276126 
L 331.683017 202.995717 
L 331.683017 202.995717 
L 332.036478 205.424656 
L 332.036478 205.424656 
L 332.213209 206.207404 
L 332.213209 206.207404 
L 332.38994 208.179605 
L 332.38994 208.179605 
L 332.566671 207.86722 
L 332.566671 207.86722 
L 332.743402 209.062033 
L 332.743402 209.062033 
L 332.920133 209.049915 
L 332.920133 209.049915 
L 333.096863 209.651342 
L 333.096863 209.651342 
L 333.980518 210.368532 
L 333.980518 210.368532 
L 334.157248 210.193241 
L 334.157248 210.193241 
L 334.333979 210.406672 
L 334.333979 210.406672 
L 334.51071 210.21636 
L 334.51071 210.21636 
L 334.687441 210.430294 
L 334.687441 210.430294 
L 334.864172 210.226412 
L 334.864172 210.226412 
L 335.040903 210.708 
L 335.040903 210.708 
L 335.394364 209.499506 
L 335.394364 209.499506 
L 335.571095 209.865388 
L 335.571095 209.865388 
L 335.747826 208.901764 
L 335.747826 208.901764 
L 335.924557 209.297969 
L 335.924557 209.297969 
L 336.101288 207.971535 
L 336.101288 207.971535 
L 336.278019 208.333173 
L 336.278019 208.333173 
L 336.454749 206.624103 
L 336.454749 206.624103 
L 336.63148 206.896784 
L 336.63148 206.896784 
L 336.808211 204.876503 
L 336.808211 204.876503 
L 336.984942 204.893646 
L 336.984942 204.893646 
L 337.161673 202.570809 
L 337.161673 202.570809 
L 337.338404 202.213135 
L 337.338404 202.213135 
L 337.515134 199.523466 
L 337.515134 199.523466 
L 337.691865 198.529073 
L 337.868596 195.808077 
L 337.868596 195.808077 
L 338.045327 188.997822 
L 338.045327 188.997822 
L 338.222058 191.063224 
L 338.222058 191.063224 
L 338.398789 183.193241 
L 338.398789 183.193241 
L 338.575519 185.319456 
L 338.575519 185.319456 
L 338.75225 176.77344 
L 338.75225 176.77344 
L 338.928981 177.912577 
L 338.928981 177.912577 
L 339.105712 169.047977 
L 339.105712 169.047977 
L 339.282443 168.905746 
L 339.282443 168.905746 
L 339.459174 159.75188 
L 339.459174 159.75188 
L 339.635904 158.03086 
L 339.635904 158.03086 
L 339.812635 154.350316 
L 339.989366 164.993398 
L 339.989366 164.993398 
L 340.166097 161.929359 
L 340.166097 161.929359 
L 340.342828 171.060887 
L 340.342828 171.060887 
L 340.519559 170.801553 
L 340.696289 177.123686 
L 340.696289 177.123686 
L 340.87302 177.792962 
L 340.87302 177.792962 
L 341.226482 184.559324 
L 341.226482 184.559324 
L 341.403213 184.662521 
L 341.403213 184.662521 
L 341.579944 186.487018 
L 341.579944 186.487018 
L 341.756674 186.644215 
L 341.933405 187.803121 
L 341.933405 187.803121 
L 342.110136 187.776484 
L 342.110136 187.776484 
L 342.286867 188.201336 
L 342.286867 188.201336 
L 342.463598 187.740186 
L 342.463598 187.740186 
L 342.640329 188.348817 
L 342.640329 188.348817 
L 342.817059 188.192513 
L 342.817059 188.192513 
L 342.99379 188.410356 
L 342.99379 188.410356 
L 343.170521 188.258854 
L 343.170521 188.258854 
L 343.347252 188.413874 
L 343.347252 188.413874 
L 343.523983 187.940662 
L 343.523983 187.940662 
L 343.700714 186.186025 
L 343.877444 187.208172 
L 343.877444 187.208172 
L 344.054175 185.098039 
L 344.054175 185.098039 
L 344.230906 185.287011 
L 344.230906 185.287011 
L 344.407637 182.714054 
L 344.584368 181.896515 
L 344.584368 181.896515 
L 344.761099 179.581216 
L 344.761099 179.581216 
L 344.937829 171.445533 
L 344.937829 171.445533 
L 345.11456 174.126881 
L 345.11456 174.126881 
L 345.291291 166.517181 
L 345.291291 166.517181 
L 345.468022 166.767357 
L 345.468022 166.767357 
L 345.644753 159.839386 
L 345.644753 159.839386 
L 345.821484 157.459812 
L 345.821484 157.459812 
L 346.174945 148.741129 
L 346.174945 148.741129 
L 346.351676 146.304987 
L 346.351676 146.304987 
L 346.528407 157.475671 
L 346.528407 157.475671 
L 346.705138 157.519564 
L 346.705138 157.519564 
L 346.881869 164.64896 
L 346.881869 164.64896 
L 347.23533 170.602753 
L 347.23533 170.602753 
L 347.412061 176.304527 
L 347.412061 176.304527 
L 347.588792 176.558277 
L 347.588792 176.558277 
L 347.942254 182.587179 
L 347.942254 182.587179 
L 348.118985 182.721202 
L 348.295715 184.466848 
L 348.295715 184.466848 
L 348.472446 184.822623 
L 348.472446 184.822623 
L 348.825908 186.098184 
L 348.825908 186.098184 
L 349.17937 186.345735 
L 349.17937 186.345735 
L 349.3561 186.57229 
L 349.3561 186.57229 
L 349.709562 186.259905 
L 349.709562 186.259905 
L 349.886293 186.494445 
L 349.886293 186.494445 
L 350.063024 185.875986 
L 350.063024 185.875986 
L 350.239755 186.541408 
L 350.239755 186.541408 
L 350.416485 185.867442 
L 350.416485 185.867442 
L 350.593216 186.539231 
L 350.593216 186.539231 
L 350.946678 185.952099 
L 350.946678 185.952099 
L 351.123409 185.955506 
L 351.123409 185.955506 
L 351.30014 185.581471 
L 351.30014 185.581471 
L 351.47687 185.541375 
L 351.47687 185.541375 
L 351.653601 184.498678 
L 351.653601 184.498678 
L 351.830332 184.892984 
L 351.830332 184.892984 
L 352.007063 183.887758 
L 352.007063 183.887758 
L 352.183794 183.677063 
L 352.183794 183.677063 
L 352.360525 183.196703 
L 352.360525 183.196703 
L 352.537255 183.185032 
L 352.537255 183.185032 
L 352.713986 182.458238 
L 352.713986 182.458238 
L 352.890717 180.4508 
L 352.890717 180.4508 
L 353.067448 181.469764 
L 353.067448 181.469764 
L 353.244179 180.021425 
L 353.244179 180.021425 
L 353.42091 180.358101 
L 353.42091 180.358101 
L 353.59764 179.112081 
L 353.59764 179.112081 
L 353.951102 178.12679 
L 353.951102 178.12679 
L 354.127833 176.04497 
L 354.127833 176.04497 
L 354.304564 176.906625 
L 354.304564 176.906625 
L 354.481295 174.876794 
L 354.481295 174.876794 
L 354.658025 175.379044 
L 354.658025 175.379044 
L 354.834756 173.629545 
L 355.011487 173.227979 
L 355.54168 170.569359 
L 355.54168 170.569359 
L 355.71841 167.694459 
L 355.71841 167.694459 
L 355.895141 168.296556 
L 355.895141 168.296556 
L 356.071872 166.076134 
L 356.071872 166.076134 
L 356.248603 165.84757 
L 356.248603 165.84757 
L 356.425334 164.283189 
L 356.425334 164.283189 
L 356.602065 160.477837 
L 356.602065 160.477837 
L 356.778795 161.797179 
L 356.778795 161.797179 
L 356.955526 158.601462 
L 356.955526 158.601462 
L 357.132257 158.843262 
L 357.132257 158.843262 
L 357.485719 155.645032 
L 357.485719 155.645032 
L 357.66245 154.301845 
L 357.66245 154.301845 
L 357.83918 150.625322 
L 357.83918 150.625322 
L 358.015911 151.102052 
L 358.015911 151.102052 
L 358.192642 148.671717 
L 358.192642 148.671717 
L 358.369373 148.138027 
L 358.369373 148.138027 
L 358.546104 146.398635 
L 358.546104 146.398635 
L 358.722835 142.755506 
L 358.722835 142.755506 
L 358.899565 143.138922 
L 358.899565 143.138922 
L 359.253027 137.695533 
L 359.253027 137.695533 
L 359.429758 139.204573 
L 359.429758 139.204573 
L 359.606489 136.601293 
L 359.606489 136.601293 
L 359.78322 136.214693 
L 359.78322 136.214693 
L 359.959951 135.180484 
L 359.959951 135.180484 
L 360.136681 132.08897 
L 360.136681 132.08897 
L 360.313412 132.598312 
L 360.313412 132.598312 
L 360.666874 128.867566 
L 360.666874 128.867566 
L 360.843605 129.591344 
L 360.843605 129.591344 
L 361.197066 128.065551 
L 361.197066 128.065551 
L 361.373797 127.612666 
L 361.373797 127.612666 
L 361.550528 125.782753 
L 361.550528 125.782753 
L 361.727259 125.96279 
L 361.727259 125.96279 
L 361.90399 125.209024 
L 361.90399 125.209024 
L 362.080721 123.827138 
L 362.080721 123.827138 
L 362.257451 124.103615 
L 362.257451 124.103615 
L 362.434182 123.760405 
L 362.434182 123.760405 
L 362.610913 121.786027 
L 362.610913 121.786027 
L 362.787644 122.120358 
L 362.787644 122.120358 
L 362.964375 121.610848 
L 362.964375 121.610848 
L 363.141106 119.208267 
L 363.141106 119.208267 
L 363.317836 119.598887 
L 363.317836 119.598887 
L 363.494567 118.704453 
L 363.494567 118.704453 
L 363.671298 115.742383 
L 363.671298 115.742383 
L 363.848029 116.181195 
L 363.848029 116.181195 
L 364.02476 114.432701 
L 364.02476 114.432701 
L 364.201491 111.123847 
L 364.201491 111.123847 
L 364.378221 111.567127 
L 364.378221 111.567127 
L 364.731683 105.158941 
L 364.731683 105.158941 
L 364.908414 105.497963 
L 364.908414 105.497963 
L 365.085145 102.5589 
L 365.085145 102.5589 
L 365.261876 97.715764 
L 365.261876 97.715764 
L 365.438606 97.725313 
L 365.438606 97.725313 
L 366.322261 78.409117 
L 366.322261 78.409117 
L 366.498991 69.722711 
L 366.498991 69.722711 
L 366.675722 71.79716 
L 366.675722 71.79716 
L 367.382646 53.568 
L 367.382646 53.568 
L 394.952656 53.568 
L 394.952656 53.568 
L 395.129387 53.685102 
L 395.129387 53.685102 
L 395.482849 53.568 
L 395.482849 53.568 
L 396.896695 53.568 
L 396.896695 53.568 
L 397.073426 53.949686 
L 397.073426 53.949686 
L 397.250157 53.568 
L 397.250157 53.568 
L 397.95708 53.568 
L 397.95708 53.568 
L 398.310542 53.923272 
L 398.310542 53.923272 
L 398.487273 53.568 
L 398.487273 53.568 
" clip-path="url(#p0f1d4d149c)" style="fill: none; stroke: #ff7f0e; stroke-width: 1.5; stroke-linecap: square"/>
   </g>
   <g id="patch_3">
    <path d="M 57.6 307.584 
L 57.6 41.472 
" style="fill: none; stroke: #000000; stroke-width: 0.8; stroke-linejoin: miter; stroke-linecap: square"/>
   </g>
   <g id="patch_4">
    <path d="M 414.72 307.584 
L 414.72 41.472 
" style="fill: none; stroke: #000000; stroke-width: 0.8; stroke-linejoin: miter; stroke-linecap: square"/>
   </g>
   <g id="patch_5">
    <path d="M 57.6 307.584 
L 414.72 307.584 
" style="fill: none; stroke: #000000; stroke-width: 0.8; stroke-linejoin: miter; stroke-linecap: square"/>
   </g>
   <g id="patch_6">
    <path d="M 57.6 41.472 
L 414.72 41.472 
" style="fill: none; stroke: #000000; stroke-width: 0.8; stroke-linejoin: miter; stroke-linecap: square"/>
   </g>
   <g id="text_16">
    <!-- Actual speed vs Expected speed -->
    <g transform="translate(138.808125 35.472) scale(0.12 -0.12)">
     <defs>
      <path id="DejaVuSans-41" d="M 2188 4044 
L 1331 1722 
L 3047 1722 
L 2188 4044 
z
M 1831 4666 
L 2547 4666 
L 4325 0 
L 3669 0 
L 3244 1197 
L 1141 1197 
L 716 0 
L 50 0 
L 1831 4666 
z
" transform="scale(0.015625)"/>
      <path id="DejaVuSans-75" d="M 544 1381 
L 544 3500 
L 1119 3500 
L 1119 1403 
Q 1119 906 1312 657 
Q 1506 409 1894 409 
Q 2359 409 2629 706 
Q 2900 1003 2900 1516 
L 2900 3500 
L 3475 3500 
L 3475 0 
L 2900 0 
L 2900 538 
Q 2691 219 2414 64 
Q 2138 -91 1772 -91 
Q 1169 -91 856 284 
Q 544 659 544 1381 
z
M 1991 3584 
L 1991 3584 
z
" transform="scale(0.015625)"/>
      <path id="DejaVuSans-61" d="M 2194 1759 
Q 1497 1759 1228 1600 
Q 959 1441 959 1056 
Q 959 750 1161 570 
Q 1363 391 1709 391 
Q 2188 391 2477 730 
Q 2766 1069 2766 1631 
L 2766 1759 
L 2194 1759 
z
M 3341 1997 
L 3341 0 
L 2766 0 
L 2766 531 
Q 2569 213 2275 61 
Q 1981 -91 1556 -91 
Q 1019 -91 701 211 
Q 384 513 384 1019 
Q 384 1609 779 1909 
Q 1175 2209 1959 2209 
L 2766 2209 
L 2766 2266 
Q 2766 2663 2505 2880 
Q 2244 3097 1772 3097 
Q 1472 3097 1187 3025 
Q 903 2953 641 2809 
L 641 3341 
Q 956 3463 1253 3523 
Q 1550 3584 1831 3584 
Q 2591 3584 2966 3190 
Q 3341 2797 3341 1997 
z
" transform="scale(0.015625)"/>
      <path id="DejaVuSans-20" transform="scale(0.015625)"/>
      <path id="DejaVuSans-70" d="M 1159 525 
L 1159 -1331 
L 581 -1331 
L 581 3500 
L 1159 3500 
L 1159 2969 
Q 1341 3281 1617 3432 
Q 1894 3584 2278 3584 
Q 2916 3584 3314 3078 
Q 3713 2572 3713 1747 
Q 3713 922 3314 415 
Q 2916 -91 2278 -91 
Q 1894 -91 1617 61 
Q 1341 213 1159 525 
z
M 3116 1747 
Q 3116 2381 2855 2742 
Q 2594 3103 2138 3103 
Q 1681 3103 1420 2742 
Q 1159 2381 1159 1747 
Q 1159 1113 1420 752 
Q 1681 391 2138 391 
Q 2594 391 2855 752 
Q 3116 1113 3116 1747 
z
" transform="scale(0.015625)"/>
      <path id="DejaVuSans-64" d="M 2906 2969 
L 2906 4863 
L 3481 4863 
L 3481 0 
L 2906 0 
L 2906 525 
Q 2725 213 2448 61 
Q 2172 -91 1784 -91 
Q 1150 -91 751 415 
Q 353 922 353 1747 
Q 353 2572 751 3078 
Q 1150 3584 1784 3584 
Q 2172 3584 2448 3432 
Q 2725 3281 2906 2969 
z
M 947 1747 
Q 947 1113 1208 752 
Q 1469 391 1925 391 
Q 2381 391 2643 752 
Q 2906 1113 2906 1747 
Q 2906 2381 2643 2742 
Q 2381 3103 1925 3103 
Q 1469 3103 1208 2742 
Q 947 2381 947 1747 
z
" transform="scale(0.015625)"/>
      <path id="DejaVuSans-76" d="M 191 3500 
L 800 3500 
L 1894 563 
L 2988 3500 
L 3597 3500 
L 2284 0 
L 1503 0 
L 191 3500 
z
" transform="scale(0.015625)"/>
      <path id="DejaVuSans-45" d="M 628 4666 
L 3578 4666 
L 3578 4134 
L 1259 4134 
L 1259 2753 
L 3481 2753 
L 3481 2222 
L 1259 2222 
L 1259 531 
L 3634 531 
L 3634 0 
L 628 0 
L 628 4666 
z
" transform="scale(0.015625)"/>
      <path id="DejaVuSans-78" d="M 3513 3500 
L 2247 1797 
L 3578 0 
L 2900 0 
L 1881 1375 
L 863 0 
L 184 0 
L 1544 1831 
L 300 3500 
L 978 3500 
L 1906 2253 
L 2834 3500 
L 3513 3500 
z
" transform="scale(0.015625)"/>
     </defs>
     <use xlink:href="#DejaVuSans-41"/>
     <use xlink:href="#DejaVuSans-63" x="66.658203"/>
     <use xlink:href="#DejaVuSans-74" x="121.638672"/>
     <use xlink:href="#DejaVuSans-75" x="160.847656"/>
     <use xlink:href="#DejaVuSans-61" x="224.226562"/>
     <use xlink:href="#DejaVuSans-6c" x="285.505859"/>
     <use xlink:href="#DejaVuSans-20" x="313.289062"/>
     <use xlink:href="#DejaVuSans-73" x="345.076172"/>
     <use xlink:href="#DejaVuSans-70" x="397.175781"/>
     <use xlink:href="#DejaVuSans-65" x="460.652344"/>
     <use xlink:href="#DejaVuSans-65" x="522.175781"/>
     <use xlink:href="#DejaVuSans-64" x="583.699219"/>
     <use xlink:href="#DejaVuSans-20" x="647.175781"/>
     <use xlink:href="#DejaVuSans-76" x="678.962891"/>
     <use xlink:href="#DejaVuSans-73" x="738.142578"/>
     <use xlink:href="#DejaVuSans-20" x="790.242188"/>
     <use xlink:href="#DejaVuSans-45" x="822.029297"/>
     <use xlink:href="#DejaVuSans-78" x="885.212891"/>
     <use xlink:href="#DejaVuSans-70" x="944.392578"/>
     <use xlink:href="#DejaVuSans-65" x="1007.869141"/>
     <use xlink:href="#DejaVuSans-63" x="1069.392578"/>
     <use xlink:href="#DejaVuSans-74" x="1124.373047"/>
     <use xlink:href="#DejaVuSans-65" x="1163.582031"/>
     <use xlink:href="#DejaVuSans-64" x="1225.105469"/>
     <use xlink:href="#DejaVuSans-20" x="1288.582031"/>
     <use xlink:href="#DejaVuSans-73" x="1320.369141"/>
     <use xlink:href="#DejaVuSans-70" x="1372.46875"/>
     <use xlink:href="#DejaVuSans-65" x="1435.945312"/>
     <use xlink:href="#DejaVuSans-65" x="1497.46875"/>
     <use xlink:href="#DejaVuSans-64" x="1558.992188"/>
    </g>
   </g>
   <g id="legend_1">
    <g id="patch_7">
     <path d="M 64.6 302.584 
L 176.65 302.584 
Q 178.65 302.584 178.65 300.584 
L 178.65 272.22775 
Q 178.65 270.22775 176.65 270.22775 
L 64.6 270.22775 
Q 62.6 270.22775 62.6 272.22775 
L 62.6 300.584 
Q 62.6 302.584 64.6 302.584 
z
" style="fill: #ffffff; opacity: 0.8; stroke: #cccccc; stroke-linejoin: miter"/>
    </g>
    <g id="line2d_29">
     <path d="M 66.6 278.326187 
L 76.6 278.326187 
L 86.6 278.326187 
" style="fill: none; stroke: #1f77b4; stroke-width: 1.5; stroke-linecap: square"/>
    </g>
    <g id="text_17">
     <!-- Actual speed -->
     <g transform="translate(94.6 281.826187) scale(0.1 -0.1)">
      <use xlink:href="#DejaVuSans-41"/>
      <use xlink:href="#DejaVuSans-63" x="66.658203"/>
      <use xlink:href="#DejaVuSans-74" x="121.638672"/>
      <use xlink:href="#DejaVuSans-75" x="160.847656"/>
      <use xlink:href="#DejaVuSans-61" x="224.226562"/>
      <use xlink:href="#DejaVuSans-6c" x="285.505859"/>
      <use xlink:href="#DejaVuSans-20" x="313.289062"/>
      <use xlink:href="#DejaVuSans-73" x="345.076172"/>
      <use xlink:href="#DejaVuSans-70" x="397.175781"/>
      <use xlink:href="#DejaVuSans-65" x="460.652344"/>
      <use xlink:href="#DejaVuSans-65" x="522.175781"/>
      <use xlink:href="#DejaVuSans-64" x="583.699219"/>
     </g>
    </g>
    <g id="line2d_30">
     <path d="M 66.6 293.004312 
L 76.6 293.004312 
L 86.6 293.004312 
" style="fill: none; stroke: #ff7f0e; stroke-width: 1.5; stroke-linecap: square"/>
    </g>
    <g id="text_18">
     <!-- Expected speed -->
     <g transform="translate(94.6 296.504312) scale(0.1 -0.1)">
      <use xlink:href="#DejaVuSans-45"/>
      <use xlink:href="#DejaVuSans-78" x="63.183594"/>
      <use xlink:href="#DejaVuSans-70" x="122.363281"/>
      <use xlink:href="#DejaVuSans-65" x="185.839844"/>
      <use xlink:href="#DejaVuSans-63" x="247.363281"/>
      <use xlink:href="#DejaVuSans-74" x="302.34375"/>
      <use xlink:href="#DejaVuSans-65" x="341.552734"/>
      <use xlink:href="#DejaVuSans-64" x="403.076172"/>
      <use xlink:href="#DejaVuSans-20" x="466.552734"/>
      <use xlink:href="#DejaVuSans-73" x="498.339844"/>
      <use xlink:href="#DejaVuSans-70" x="550.439453"/>
      <use xlink:href="#DejaVuSans-65" x="613.916016"/>
      <use xlink:href="#DejaVuSans-65" x="675.439453"/>
      <use xlink:href="#DejaVuSans-64" x="736.962891"/>
     </g>
    </g>
   </g>
  </g>
 </g>
 <defs>
  <clipPath id="p0f1d4d149c">
   <rect x="57.6" y="41.472" width="357.12" height="266.112"/>
  </clipPath>
 </defs>
</svg>
