<?xml version="1.0" encoding="utf-8" standalone="no"?>
<!DOCTYPE svg PUBLIC "-//W3C//DTD SVG 1.1//EN"
  "http://www.w3.org/Graphics/SVG/1.1/DTD/svg11.dtd">
<svg xmlns:xlink="http://www.w3.org/1999/xlink" width="460.8pt" height="345.6pt" viewBox="0 0 460.8 345.6" xmlns="http://www.w3.org/2000/svg" version="1.1">
 <metadata>
  <rdf:RDF xmlns:dc="http://purl.org/dc/elements/1.1/" xmlns:cc="http://creativecommons.org/ns#" xmlns:rdf="http://www.w3.org/1999/02/22-rdf-syntax-ns#">
   <cc:Work>
    <dc:type rdf:resource="http://purl.org/dc/dcmitype/StillImage"/>
    <dc:date>2024-01-30T20:59:02.676245</dc:date>
    <dc:format>image/svg+xml</dc:format>
    <dc:creator>
     <cc:Agent>
      <dc:title>Matplotlib v3.7.1, https://matplotlib.org/</dc:title>
     </cc:Agent>
    </dc:creator>
   </cc:Work>
  </rdf:RDF>
 </metadata>
 <defs>
  <style type="text/css">*{stroke-linejoin: round; stroke-linecap: butt}</style>
 </defs>
 <g id="figure_1">
  <g id="patch_1">
   <path d="M 0 345.6 
L 460.8 345.6 
L 460.8 0 
L 0 0 
z
" style="fill: #ffffff"/>
  </g>
  <g id="axes_1">
   <g id="patch_2">
    <path d="M 57.6 307.584 
L 414.72 307.584 
L 414.72 41.472 
L 57.6 41.472 
z
" style="fill: #ffffff"/>
   </g>
   <g id="matplotlib.axis_1">
    <g id="xtick_1">
     <g id="line2d_1">
      <path d="M 73.832727 307.584 
L 73.832727 41.472 
" clip-path="url(#pbee1e84ce4)" style="fill: none; stroke: #b0b0b0; stroke-width: 0.8; stroke-linecap: square"/>
     </g>
     <g id="line2d_2">
      <defs>
       <path id="mf4c810e035" d="M 0 0 
L 0 3.5 
" style="stroke: #000000; stroke-width: 0.8"/>
      </defs>
      <g>
       <use xlink:href="#mf4c810e035" x="73.832727" y="307.584" style="stroke: #000000; stroke-width: 0.8"/>
      </g>
     </g>
     <g id="text_1">
      <!-- 0 -->
      <g transform="translate(70.651477 322.182437) scale(0.1 -0.1)">
       <defs>
        <path id="DejaVuSans-30" d="M 2034 4250 
Q 1547 4250 1301 3770 
Q 1056 3291 1056 2328 
Q 1056 1369 1301 889 
Q 1547 409 2034 409 
Q 2525 409 2770 889 
Q 3016 1369 3016 2328 
Q 3016 3291 2770 3770 
Q 2525 4250 2034 4250 
z
M 2034 4750 
Q 2819 4750 3233 4129 
Q 3647 3509 3647 2328 
Q 3647 1150 3233 529 
Q 2819 -91 2034 -91 
Q 1250 -91 836 529 
Q 422 1150 422 2328 
Q 422 3509 836 4129 
Q 1250 4750 2034 4750 
z
" transform="scale(0.015625)"/>
       </defs>
       <use xlink:href="#DejaVuSans-30"/>
      </g>
     </g>
    </g>
    <g id="xtick_2">
     <g id="line2d_3">
      <path d="M 118.015436 307.584 
L 118.015436 41.472 
" clip-path="url(#pbee1e84ce4)" style="fill: none; stroke: #b0b0b0; stroke-width: 0.8; stroke-linecap: square"/>
     </g>
     <g id="line2d_4">
      <g>
       <use xlink:href="#mf4c810e035" x="118.015436" y="307.584" style="stroke: #000000; stroke-width: 0.8"/>
      </g>
     </g>
     <g id="text_2">
      <!-- 5 -->
      <g transform="translate(114.834186 322.182437) scale(0.1 -0.1)">
       <defs>
        <path id="DejaVuSans-35" d="M 691 4666 
L 3169 4666 
L 3169 4134 
L 1269 4134 
L 1269 2991 
Q 1406 3038 1543 3061 
Q 1681 3084 1819 3084 
Q 2600 3084 3056 2656 
Q 3513 2228 3513 1497 
Q 3513 744 3044 326 
Q 2575 -91 1722 -91 
Q 1428 -91 1123 -41 
Q 819 9 494 109 
L 494 744 
Q 775 591 1075 516 
Q 1375 441 1709 441 
Q 2250 441 2565 725 
Q 2881 1009 2881 1497 
Q 2881 1984 2565 2268 
Q 2250 2553 1709 2553 
Q 1456 2553 1204 2497 
Q 953 2441 691 2322 
L 691 4666 
z
" transform="scale(0.015625)"/>
       </defs>
       <use xlink:href="#DejaVuSans-35"/>
      </g>
     </g>
    </g>
    <g id="xtick_3">
     <g id="line2d_5">
      <path d="M 162.198145 307.584 
L 162.198145 41.472 
" clip-path="url(#pbee1e84ce4)" style="fill: none; stroke: #b0b0b0; stroke-width: 0.8; stroke-linecap: square"/>
     </g>
     <g id="line2d_6">
      <g>
       <use xlink:href="#mf4c810e035" x="162.198145" y="307.584" style="stroke: #000000; stroke-width: 0.8"/>
      </g>
     </g>
     <g id="text_3">
      <!-- 10 -->
      <g transform="translate(155.835645 322.182437) scale(0.1 -0.1)">
       <defs>
        <path id="DejaVuSans-31" d="M 794 531 
L 1825 531 
L 1825 4091 
L 703 3866 
L 703 4441 
L 1819 4666 
L 2450 4666 
L 2450 531 
L 3481 531 
L 3481 0 
L 794 0 
L 794 531 
z
" transform="scale(0.015625)"/>
       </defs>
       <use xlink:href="#DejaVuSans-31"/>
       <use xlink:href="#DejaVuSans-30" x="63.623047"/>
      </g>
     </g>
    </g>
    <g id="xtick_4">
     <g id="line2d_7">
      <path d="M 206.380854 307.584 
L 206.380854 41.472 
" clip-path="url(#pbee1e84ce4)" style="fill: none; stroke: #b0b0b0; stroke-width: 0.8; stroke-linecap: square"/>
     </g>
     <g id="line2d_8">
      <g>
       <use xlink:href="#mf4c810e035" x="206.380854" y="307.584" style="stroke: #000000; stroke-width: 0.8"/>
      </g>
     </g>
     <g id="text_4">
      <!-- 15 -->
      <g transform="translate(200.018354 322.182437) scale(0.1 -0.1)">
       <use xlink:href="#DejaVuSans-31"/>
       <use xlink:href="#DejaVuSans-35" x="63.623047"/>
      </g>
     </g>
    </g>
    <g id="xtick_5">
     <g id="line2d_9">
      <path d="M 250.563563 307.584 
L 250.563563 41.472 
" clip-path="url(#pbee1e84ce4)" style="fill: none; stroke: #b0b0b0; stroke-width: 0.8; stroke-linecap: square"/>
     </g>
     <g id="line2d_10">
      <g>
       <use xlink:href="#mf4c810e035" x="250.563563" y="307.584" style="stroke: #000000; stroke-width: 0.8"/>
      </g>
     </g>
     <g id="text_5">
      <!-- 20 -->
      <g transform="translate(244.201063 322.182437) scale(0.1 -0.1)">
       <defs>
        <path id="DejaVuSans-32" d="M 1228 531 
L 3431 531 
L 3431 0 
L 469 0 
L 469 531 
Q 828 903 1448 1529 
Q 2069 2156 2228 2338 
Q 2531 2678 2651 2914 
Q 2772 3150 2772 3378 
Q 2772 3750 2511 3984 
Q 2250 4219 1831 4219 
Q 1534 4219 1204 4116 
Q 875 4013 500 3803 
L 500 4441 
Q 881 4594 1212 4672 
Q 1544 4750 1819 4750 
Q 2544 4750 2975 4387 
Q 3406 4025 3406 3419 
Q 3406 3131 3298 2873 
Q 3191 2616 2906 2266 
Q 2828 2175 2409 1742 
Q 1991 1309 1228 531 
z
" transform="scale(0.015625)"/>
       </defs>
       <use xlink:href="#DejaVuSans-32"/>
       <use xlink:href="#DejaVuSans-30" x="63.623047"/>
      </g>
     </g>
    </g>
    <g id="xtick_6">
     <g id="line2d_11">
      <path d="M 294.746272 307.584 
L 294.746272 41.472 
" clip-path="url(#pbee1e84ce4)" style="fill: none; stroke: #b0b0b0; stroke-width: 0.8; stroke-linecap: square"/>
     </g>
     <g id="line2d_12">
      <g>
       <use xlink:href="#mf4c810e035" x="294.746272" y="307.584" style="stroke: #000000; stroke-width: 0.8"/>
      </g>
     </g>
     <g id="text_6">
      <!-- 25 -->
      <g transform="translate(288.383772 322.182437) scale(0.1 -0.1)">
       <use xlink:href="#DejaVuSans-32"/>
       <use xlink:href="#DejaVuSans-35" x="63.623047"/>
      </g>
     </g>
    </g>
    <g id="xtick_7">
     <g id="line2d_13">
      <path d="M 338.928981 307.584 
L 338.928981 41.472 
" clip-path="url(#pbee1e84ce4)" style="fill: none; stroke: #b0b0b0; stroke-width: 0.8; stroke-linecap: square"/>
     </g>
     <g id="line2d_14">
      <g>
       <use xlink:href="#mf4c810e035" x="338.928981" y="307.584" style="stroke: #000000; stroke-width: 0.8"/>
      </g>
     </g>
     <g id="text_7">
      <!-- 30 -->
      <g transform="translate(332.566481 322.182437) scale(0.1 -0.1)">
       <defs>
        <path id="DejaVuSans-33" d="M 2597 2516 
Q 3050 2419 3304 2112 
Q 3559 1806 3559 1356 
Q 3559 666 3084 287 
Q 2609 -91 1734 -91 
Q 1441 -91 1130 -33 
Q 819 25 488 141 
L 488 750 
Q 750 597 1062 519 
Q 1375 441 1716 441 
Q 2309 441 2620 675 
Q 2931 909 2931 1356 
Q 2931 1769 2642 2001 
Q 2353 2234 1838 2234 
L 1294 2234 
L 1294 2753 
L 1863 2753 
Q 2328 2753 2575 2939 
Q 2822 3125 2822 3475 
Q 2822 3834 2567 4026 
Q 2313 4219 1838 4219 
Q 1578 4219 1281 4162 
Q 984 4106 628 3988 
L 628 4550 
Q 988 4650 1302 4700 
Q 1616 4750 1894 4750 
Q 2613 4750 3031 4423 
Q 3450 4097 3450 3541 
Q 3450 3153 3228 2886 
Q 3006 2619 2597 2516 
z
" transform="scale(0.015625)"/>
       </defs>
       <use xlink:href="#DejaVuSans-33"/>
       <use xlink:href="#DejaVuSans-30" x="63.623047"/>
      </g>
     </g>
    </g>
    <g id="xtick_8">
     <g id="line2d_15">
      <path d="M 383.11169 307.584 
L 383.11169 41.472 
" clip-path="url(#pbee1e84ce4)" style="fill: none; stroke: #b0b0b0; stroke-width: 0.8; stroke-linecap: square"/>
     </g>
     <g id="line2d_16">
      <g>
       <use xlink:href="#mf4c810e035" x="383.11169" y="307.584" style="stroke: #000000; stroke-width: 0.8"/>
      </g>
     </g>
     <g id="text_8">
      <!-- 35 -->
      <g transform="translate(376.74919 322.182437) scale(0.1 -0.1)">
       <use xlink:href="#DejaVuSans-33"/>
       <use xlink:href="#DejaVuSans-35" x="63.623047"/>
      </g>
     </g>
    </g>
    <g id="text_9">
     <!-- Time(s) -->
     <g transform="translate(217.420156 335.860562) scale(0.1 -0.1)">
      <defs>
       <path id="DejaVuSans-54" d="M -19 4666 
L 3928 4666 
L 3928 4134 
L 2272 4134 
L 2272 0 
L 1638 0 
L 1638 4134 
L -19 4134 
L -19 4666 
z
" transform="scale(0.015625)"/>
       <path id="DejaVuSans-69" d="M 603 3500 
L 1178 3500 
L 1178 0 
L 603 0 
L 603 3500 
z
M 603 4863 
L 1178 4863 
L 1178 4134 
L 603 4134 
L 603 4863 
z
" transform="scale(0.015625)"/>
       <path id="DejaVuSans-6d" d="M 3328 2828 
Q 3544 3216 3844 3400 
Q 4144 3584 4550 3584 
Q 5097 3584 5394 3201 
Q 5691 2819 5691 2113 
L 5691 0 
L 5113 0 
L 5113 2094 
Q 5113 2597 4934 2840 
Q 4756 3084 4391 3084 
Q 3944 3084 3684 2787 
Q 3425 2491 3425 1978 
L 3425 0 
L 2847 0 
L 2847 2094 
Q 2847 2600 2669 2842 
Q 2491 3084 2119 3084 
Q 1678 3084 1418 2786 
Q 1159 2488 1159 1978 
L 1159 0 
L 581 0 
L 581 3500 
L 1159 3500 
L 1159 2956 
Q 1356 3278 1631 3431 
Q 1906 3584 2284 3584 
Q 2666 3584 2933 3390 
Q 3200 3197 3328 2828 
z
" transform="scale(0.015625)"/>
       <path id="DejaVuSans-65" d="M 3597 1894 
L 3597 1613 
L 953 1613 
Q 991 1019 1311 708 
Q 1631 397 2203 397 
Q 2534 397 2845 478 
Q 3156 559 3463 722 
L 3463 178 
Q 3153 47 2828 -22 
Q 2503 -91 2169 -91 
Q 1331 -91 842 396 
Q 353 884 353 1716 
Q 353 2575 817 3079 
Q 1281 3584 2069 3584 
Q 2775 3584 3186 3129 
Q 3597 2675 3597 1894 
z
M 3022 2063 
Q 3016 2534 2758 2815 
Q 2500 3097 2075 3097 
Q 1594 3097 1305 2825 
Q 1016 2553 972 2059 
L 3022 2063 
z
" transform="scale(0.015625)"/>
       <path id="DejaVuSans-28" d="M 1984 4856 
Q 1566 4138 1362 3434 
Q 1159 2731 1159 2009 
Q 1159 1288 1364 580 
Q 1569 -128 1984 -844 
L 1484 -844 
Q 1016 -109 783 600 
Q 550 1309 550 2009 
Q 550 2706 781 3412 
Q 1013 4119 1484 4856 
L 1984 4856 
z
" transform="scale(0.015625)"/>
       <path id="DejaVuSans-73" d="M 2834 3397 
L 2834 2853 
Q 2591 2978 2328 3040 
Q 2066 3103 1784 3103 
Q 1356 3103 1142 2972 
Q 928 2841 928 2578 
Q 928 2378 1081 2264 
Q 1234 2150 1697 2047 
L 1894 2003 
Q 2506 1872 2764 1633 
Q 3022 1394 3022 966 
Q 3022 478 2636 193 
Q 2250 -91 1575 -91 
Q 1294 -91 989 -36 
Q 684 19 347 128 
L 347 722 
Q 666 556 975 473 
Q 1284 391 1588 391 
Q 1994 391 2212 530 
Q 2431 669 2431 922 
Q 2431 1156 2273 1281 
Q 2116 1406 1581 1522 
L 1381 1569 
Q 847 1681 609 1914 
Q 372 2147 372 2553 
Q 372 3047 722 3315 
Q 1072 3584 1716 3584 
Q 2034 3584 2315 3537 
Q 2597 3491 2834 3397 
z
" transform="scale(0.015625)"/>
       <path id="DejaVuSans-29" d="M 513 4856 
L 1013 4856 
Q 1481 4119 1714 3412 
Q 1947 2706 1947 2009 
Q 1947 1309 1714 600 
Q 1481 -109 1013 -844 
L 513 -844 
Q 928 -128 1133 580 
Q 1338 1288 1338 2009 
Q 1338 2731 1133 3434 
Q 928 4138 513 4856 
z
" transform="scale(0.015625)"/>
      </defs>
      <use xlink:href="#DejaVuSans-54"/>
      <use xlink:href="#DejaVuSans-69" x="57.958984"/>
      <use xlink:href="#DejaVuSans-6d" x="85.742188"/>
      <use xlink:href="#DejaVuSans-65" x="183.154297"/>
      <use xlink:href="#DejaVuSans-28" x="244.677734"/>
      <use xlink:href="#DejaVuSans-73" x="283.691406"/>
      <use xlink:href="#DejaVuSans-29" x="335.791016"/>
     </g>
    </g>
   </g>
   <g id="matplotlib.axis_2">
    <g id="ytick_1">
     <g id="line2d_17">
      <path d="M 57.6 276.904762 
L 414.72 276.904762 
" clip-path="url(#pbee1e84ce4)" style="fill: none; stroke: #b0b0b0; stroke-width: 0.8; stroke-linecap: square"/>
     </g>
     <g id="line2d_18">
      <defs>
       <path id="me027919932" d="M 0 0 
L -3.5 0 
" style="stroke: #000000; stroke-width: 0.8"/>
      </defs>
      <g>
       <use xlink:href="#me027919932" x="57.6" y="276.904762" style="stroke: #000000; stroke-width: 0.8"/>
      </g>
     </g>
     <g id="text_10">
      <!-- 4 -->
      <g transform="translate(44.2375 280.703981) scale(0.1 -0.1)">
       <defs>
        <path id="DejaVuSans-34" d="M 2419 4116 
L 825 1625 
L 2419 1625 
L 2419 4116 
z
M 2253 4666 
L 3047 4666 
L 3047 1625 
L 3713 1625 
L 3713 1100 
L 3047 1100 
L 3047 0 
L 2419 0 
L 2419 1100 
L 313 1100 
L 313 1709 
L 2253 4666 
z
" transform="scale(0.015625)"/>
       </defs>
       <use xlink:href="#DejaVuSans-34"/>
      </g>
     </g>
    </g>
    <g id="ytick_2">
     <g id="line2d_19">
      <path d="M 57.6 221.070572 
L 414.72 221.070572 
" clip-path="url(#pbee1e84ce4)" style="fill: none; stroke: #b0b0b0; stroke-width: 0.8; stroke-linecap: square"/>
     </g>
     <g id="line2d_20">
      <g>
       <use xlink:href="#me027919932" x="57.6" y="221.070572" style="stroke: #000000; stroke-width: 0.8"/>
      </g>
     </g>
     <g id="text_11">
      <!-- 5 -->
      <g transform="translate(44.2375 224.86979) scale(0.1 -0.1)">
       <use xlink:href="#DejaVuSans-35"/>
      </g>
     </g>
    </g>
    <g id="ytick_3">
     <g id="line2d_21">
      <path d="M 57.6 165.236381 
L 414.72 165.236381 
" clip-path="url(#pbee1e84ce4)" style="fill: none; stroke: #b0b0b0; stroke-width: 0.8; stroke-linecap: square"/>
     </g>
     <g id="line2d_22">
      <g>
       <use xlink:href="#me027919932" x="57.6" y="165.236381" style="stroke: #000000; stroke-width: 0.8"/>
      </g>
     </g>
     <g id="text_12">
      <!-- 6 -->
      <g transform="translate(44.2375 169.0356) scale(0.1 -0.1)">
       <defs>
        <path id="DejaVuSans-36" d="M 2113 2584 
Q 1688 2584 1439 2293 
Q 1191 2003 1191 1497 
Q 1191 994 1439 701 
Q 1688 409 2113 409 
Q 2538 409 2786 701 
Q 3034 994 3034 1497 
Q 3034 2003 2786 2293 
Q 2538 2584 2113 2584 
z
M 3366 4563 
L 3366 3988 
Q 3128 4100 2886 4159 
Q 2644 4219 2406 4219 
Q 1781 4219 1451 3797 
Q 1122 3375 1075 2522 
Q 1259 2794 1537 2939 
Q 1816 3084 2150 3084 
Q 2853 3084 3261 2657 
Q 3669 2231 3669 1497 
Q 3669 778 3244 343 
Q 2819 -91 2113 -91 
Q 1303 -91 875 529 
Q 447 1150 447 2328 
Q 447 3434 972 4092 
Q 1497 4750 2381 4750 
Q 2619 4750 2861 4703 
Q 3103 4656 3366 4563 
z
" transform="scale(0.015625)"/>
       </defs>
       <use xlink:href="#DejaVuSans-36"/>
      </g>
     </g>
    </g>
    <g id="ytick_4">
     <g id="line2d_23">
      <path d="M 57.6 109.402191 
L 414.72 109.402191 
" clip-path="url(#pbee1e84ce4)" style="fill: none; stroke: #b0b0b0; stroke-width: 0.8; stroke-linecap: square"/>
     </g>
     <g id="line2d_24">
      <g>
       <use xlink:href="#me027919932" x="57.6" y="109.402191" style="stroke: #000000; stroke-width: 0.8"/>
      </g>
     </g>
     <g id="text_13">
      <!-- 7 -->
      <g transform="translate(44.2375 113.201409) scale(0.1 -0.1)">
       <defs>
        <path id="DejaVuSans-37" d="M 525 4666 
L 3525 4666 
L 3525 4397 
L 1831 0 
L 1172 0 
L 2766 4134 
L 525 4134 
L 525 4666 
z
" transform="scale(0.015625)"/>
       </defs>
       <use xlink:href="#DejaVuSans-37"/>
      </g>
     </g>
    </g>
    <g id="ytick_5">
     <g id="line2d_25">
      <path d="M 57.6 53.568 
L 414.72 53.568 
" clip-path="url(#pbee1e84ce4)" style="fill: none; stroke: #b0b0b0; stroke-width: 0.8; stroke-linecap: square"/>
     </g>
     <g id="line2d_26">
      <g>
       <use xlink:href="#me027919932" x="57.6" y="53.568" style="stroke: #000000; stroke-width: 0.8"/>
      </g>
     </g>
     <g id="text_14">
      <!-- 8 -->
      <g transform="translate(44.2375 57.367219) scale(0.1 -0.1)">
       <defs>
        <path id="DejaVuSans-38" d="M 2034 2216 
Q 1584 2216 1326 1975 
Q 1069 1734 1069 1313 
Q 1069 891 1326 650 
Q 1584 409 2034 409 
Q 2484 409 2743 651 
Q 3003 894 3003 1313 
Q 3003 1734 2745 1975 
Q 2488 2216 2034 2216 
z
M 1403 2484 
Q 997 2584 770 2862 
Q 544 3141 544 3541 
Q 544 4100 942 4425 
Q 1341 4750 2034 4750 
Q 2731 4750 3128 4425 
Q 3525 4100 3525 3541 
Q 3525 3141 3298 2862 
Q 3072 2584 2669 2484 
Q 3125 2378 3379 2068 
Q 3634 1759 3634 1313 
Q 3634 634 3220 271 
Q 2806 -91 2034 -91 
Q 1263 -91 848 271 
Q 434 634 434 1313 
Q 434 1759 690 2068 
Q 947 2378 1403 2484 
z
M 1172 3481 
Q 1172 3119 1398 2916 
Q 1625 2713 2034 2713 
Q 2441 2713 2670 2916 
Q 2900 3119 2900 3481 
Q 2900 3844 2670 4047 
Q 2441 4250 2034 4250 
Q 1625 4250 1398 4047 
Q 1172 3844 1172 3481 
z
" transform="scale(0.015625)"/>
       </defs>
       <use xlink:href="#DejaVuSans-38"/>
      </g>
     </g>
    </g>
    <g id="text_15">
     <!-- Velocity(m/s) -->
     <g transform="translate(38.157812 207.204563) rotate(-90) scale(0.1 -0.1)">
      <defs>
       <path id="DejaVuSans-56" d="M 1831 0 
L 50 4666 
L 709 4666 
L 2188 738 
L 3669 4666 
L 4325 4666 
L 2547 0 
L 1831 0 
z
" transform="scale(0.015625)"/>
       <path id="DejaVuSans-6c" d="M 603 4863 
L 1178 4863 
L 1178 0 
L 603 0 
L 603 4863 
z
" transform="scale(0.015625)"/>
       <path id="DejaVuSans-6f" d="M 1959 3097 
Q 1497 3097 1228 2736 
Q 959 2375 959 1747 
Q 959 1119 1226 758 
Q 1494 397 1959 397 
Q 2419 397 2687 759 
Q 2956 1122 2956 1747 
Q 2956 2369 2687 2733 
Q 2419 3097 1959 3097 
z
M 1959 3584 
Q 2709 3584 3137 3096 
Q 3566 2609 3566 1747 
Q 3566 888 3137 398 
Q 2709 -91 1959 -91 
Q 1206 -91 779 398 
Q 353 888 353 1747 
Q 353 2609 779 3096 
Q 1206 3584 1959 3584 
z
" transform="scale(0.015625)"/>
       <path id="DejaVuSans-63" d="M 3122 3366 
L 3122 2828 
Q 2878 2963 2633 3030 
Q 2388 3097 2138 3097 
Q 1578 3097 1268 2742 
Q 959 2388 959 1747 
Q 959 1106 1268 751 
Q 1578 397 2138 397 
Q 2388 397 2633 464 
Q 2878 531 3122 666 
L 3122 134 
Q 2881 22 2623 -34 
Q 2366 -91 2075 -91 
Q 1284 -91 818 406 
Q 353 903 353 1747 
Q 353 2603 823 3093 
Q 1294 3584 2113 3584 
Q 2378 3584 2631 3529 
Q 2884 3475 3122 3366 
z
" transform="scale(0.015625)"/>
       <path id="DejaVuSans-74" d="M 1172 4494 
L 1172 3500 
L 2356 3500 
L 2356 3053 
L 1172 3053 
L 1172 1153 
Q 1172 725 1289 603 
Q 1406 481 1766 481 
L 2356 481 
L 2356 0 
L 1766 0 
Q 1100 0 847 248 
Q 594 497 594 1153 
L 594 3053 
L 172 3053 
L 172 3500 
L 594 3500 
L 594 4494 
L 1172 4494 
z
" transform="scale(0.015625)"/>
       <path id="DejaVuSans-79" d="M 2059 -325 
Q 1816 -950 1584 -1140 
Q 1353 -1331 966 -1331 
L 506 -1331 
L 506 -850 
L 844 -850 
Q 1081 -850 1212 -737 
Q 1344 -625 1503 -206 
L 1606 56 
L 191 3500 
L 800 3500 
L 1894 763 
L 2988 3500 
L 3597 3500 
L 2059 -325 
z
" transform="scale(0.015625)"/>
       <path id="DejaVuSans-2f" d="M 1625 4666 
L 2156 4666 
L 531 -594 
L 0 -594 
L 1625 4666 
z
" transform="scale(0.015625)"/>
      </defs>
      <use xlink:href="#DejaVuSans-56"/>
      <use xlink:href="#DejaVuSans-65" x="60.658203"/>
      <use xlink:href="#DejaVuSans-6c" x="122.181641"/>
      <use xlink:href="#DejaVuSans-6f" x="149.964844"/>
      <use xlink:href="#DejaVuSans-63" x="211.146484"/>
      <use xlink:href="#DejaVuSans-69" x="266.126953"/>
      <use xlink:href="#DejaVuSans-74" x="293.910156"/>
      <use xlink:href="#DejaVuSans-79" x="333.119141"/>
      <use xlink:href="#DejaVuSans-28" x="392.298828"/>
      <use xlink:href="#DejaVuSans-6d" x="431.3125"/>
      <use xlink:href="#DejaVuSans-2f" x="528.724609"/>
      <use xlink:href="#DejaVuSans-73" x="562.416016"/>
      <use xlink:href="#DejaVuSans-29" x="614.515625"/>
     </g>
    </g>
   </g>
   <g id="line2d_27">
    <path d="M 73.832727 53.803844 
L 75.953497 53.641254 
L 75.953497 53.641254 
L 80.548499 53.573807 
L 80.548499 53.573807 
L 92.566196 53.568 
L 92.566196 53.568 
L 92.742927 54.329746 
L 92.742927 54.329746 
L 93.44985 68.029781 
L 93.44985 68.029781 
L 94.510235 100.55303 
L 94.510235 100.55303 
L 96.454274 148.867248 
L 96.454274 148.867248 
L 97.337928 165.183506 
L 97.337928 165.183506 
L 98.398313 180.01463 
L 98.398313 180.01463 
L 99.458698 190.662211 
L 99.458698 190.662211 
L 99.988891 194.138838 
L 99.988891 194.138838 
L 100.695814 197.33596 
L 100.695814 197.33596 
L 101.226007 198.709034 
L 101.226007 198.709034 
L 101.579469 199.145043 
L 101.579469 199.145043 
L 101.93293 199.360675 
L 101.93293 199.360675 
L 103.346777 199.18195 
L 103.346777 199.18195 
L 103.700239 198.883349 
L 103.700239 198.883349 
L 104.0537 198.245945 
L 104.0537 198.245945 
L 104.583893 196.588061 
L 104.583893 196.588061 
L 105.114085 194.024992 
L 105.114085 194.024992 
L 105.644278 190.24552 
L 105.644278 190.24552 
L 105.997739 186.498432 
L 105.997739 186.498432 
L 106.704663 176.040855 
L 106.704663 176.040855 
L 107.411586 161.425307 
L 107.411586 161.425307 
L 107.941779 152.38469 
L 107.941779 152.38469 
L 108.471971 147.973399 
L 108.471971 147.973399 
L 108.825433 146.42266 
L 108.825433 146.42266 
L 109.178894 145.654158 
L 109.178894 145.654158 
L 109.532356 145.196485 
L 109.532356 145.196485 
L 110.062549 144.920888 
L 110.062549 144.920888 
L 110.946203 144.585268 
L 110.946203 144.585268 
L 111.829857 144.23368 
L 111.829857 144.23368 
L 112.360049 143.650046 
L 112.360049 143.650046 
L 112.890242 142.561055 
L 112.890242 142.561055 
L 113.773896 139.24417 
L 113.773896 139.24417 
L 114.304089 136.004781 
L 114.304089 136.004781 
L 114.834281 131.292543 
L 114.834281 131.292543 
L 115.894666 118.868208 
L 115.894666 118.868208 
L 116.071397 118.76363 
L 116.071397 118.76363 
L 116.248128 119.167981 
L 116.248128 119.167981 
L 116.424859 120.475283 
L 116.424859 120.475283 
L 117.838705 148.682158 
L 117.838705 148.682158 
L 118.72236 160.28735 
L 118.72236 160.28735 
L 119.606014 167.222068 
L 119.606014 167.222068 
L 120.136206 169.416129 
L 120.136206 169.416129 
L 120.489668 170.203837 
L 120.489668 170.203837 
L 121.550053 171.263347 
L 121.550053 171.263347 
L 122.080245 171.347377 
L 122.080245 171.347377 
L 123.494092 171.288472 
L 123.494092 171.288472 
L 125.08467 170.436108 
L 125.08467 170.436108 
L 126.145055 169.249519 
L 126.145055 169.249519 
L 126.498516 168.767838 
L 126.498516 168.767838 
L 127.912363 166.002315 
L 127.912363 166.002315 
L 128.796017 163.792509 
L 128.796017 163.792509 
L 129.502941 161.793868 
L 129.502941 161.793868 
L 130.916787 156.872419 
L 130.916787 156.872419 
L 132.507365 150.119944 
L 132.507365 150.119944 
L 133.744481 143.642173 
L 133.744481 143.642173 
L 135.158327 135.10077 
L 135.158327 135.10077 
L 136.395443 125.849212 
L 136.395443 125.849212 
L 137.279097 118.126841 
L 137.279097 118.126841 
L 138.692944 103.806488 
L 138.692944 103.806488 
L 139.93006 88.27805 
L 139.93006 88.27805 
L 141.167176 72.068492 
L 141.167176 72.068492 
L 141.874099 66.097137 
L 141.874099 66.097137 
L 142.581022 62.053122 
L 142.581022 62.053122 
L 143.287946 59.314399 
L 143.287946 59.314399 
L 143.994869 57.459643 
L 143.994869 57.459643 
L 144.701792 56.203541 
L 144.701792 56.203541 
L 145.408716 55.352852 
L 145.408716 55.352852 
L 146.29237 54.664528 
L 146.29237 54.664528 
L 147.352755 54.179105 
L 147.352755 54.179105 
L 148.589871 53.876986 
L 148.589871 53.876986 
L 150.53391 53.673806 
L 150.53391 53.673806 
L 151.064103 53.64695 
L 151.064103 53.64695 
L 151.240833 54.440912 
L 151.240833 54.440912 
L 151.417564 56.841112 
L 151.417564 56.841112 
L 151.771026 66.412488 
L 151.771026 66.412488 
L 154.598719 150.419271 
L 154.598719 150.419271 
L 156.719489 196.086167 
L 156.719489 196.086167 
L 158.486798 222.330638 
L 158.486798 222.330638 
L 159.547183 232.703346 
L 159.547183 232.703346 
L 160.254106 237.985372 
L 160.254106 237.985372 
L 161.13776 242.755287 
L 161.13776 242.755287 
L 161.844684 245.192729 
L 161.844684 245.192729 
L 162.551607 246.541571 
L 162.551607 246.541571 
L 162.905069 246.945252 
L 162.905069 246.945252 
L 163.25853 247.11175 
L 163.25853 247.11175 
L 164.318915 247.276516 
L 164.318915 247.276516 
L 165.3793 247.144469 
L 165.3793 247.144469 
L 166.086224 246.579873 
L 166.086224 246.579873 
L 166.616416 245.817513 
L 166.616416 245.817513 
L 167.50007 243.894919 
L 167.50007 243.894919 
L 168.030263 242.391583 
L 168.030263 242.391583 
L 168.737186 239.655094 
L 168.737186 239.655094 
L 169.62084 235.09478 
L 169.62084 235.09478 
L 170.681225 228.057662 
L 170.681225 228.057662 
L 171.918341 218.141789 
L 171.918341 218.141789 
L 173.508919 203.396091 
L 173.508919 203.396091 
L 175.276227 185.157797 
L 175.276227 185.157797 
L 178.280651 153.677922 
L 178.280651 153.677922 
L 179.871229 136.094284 
L 179.871229 136.094284 
L 180.578152 126.30387 
L 180.578152 126.30387 
L 181.638537 106.454648 
L 181.638537 106.454648 
L 182.34546 91.036092 
L 182.34546 91.036092 
L 182.698922 87.171584 
L 182.698922 87.171584 
L 182.875653 86.328823 
L 182.875653 86.328823 
L 183.052384 87.183644 
L 183.052384 87.183644 
L 183.405845 91.567968 
L 183.405845 91.567968 
L 183.759307 101.62164 
L 183.759307 101.62164 
L 186.940462 197.37214 
L 186.940462 197.37214 
L 188.000847 219.79342 
L 188.000847 219.79342 
L 189.237963 241.376741 
L 189.237963 241.376741 
L 190.475079 256.819361 
L 190.475079 256.819361 
L 191.182002 263.464188 
L 191.182002 263.464188 
L 192.242387 269.305506 
L 192.242387 269.305506 
L 192.77258 271.095941 
L 192.77258 271.095941 
L 193.302772 272.579232 
L 193.302772 272.579232 
L 194.009696 273.599266 
L 194.009696 273.599266 
L 194.716619 274.351353 
L 194.716619 274.351353 
L 195.070081 274.479716 
L 195.070081 274.479716 
L 197.01412 274.474467 
L 197.01412 274.474467 
L 197.367582 274.316177 
L 197.367582 274.316177 
L 197.721043 274.007247 
L 197.721043 274.007247 
L 198.427967 273.141482 
L 198.427967 273.141482 
L 199.311621 270.951832 
L 199.311621 270.951832 
L 199.841813 268.852076 
L 199.841813 268.852076 
L 200.902198 263.034935 
L 200.902198 263.034935 
L 201.962583 254.54356 
L 201.962583 254.54356 
L 202.846237 244.907583 
L 202.846237 244.907583 
L 203.553161 236.341334 
L 203.553161 236.341334 
L 204.436815 222.869438 
L 204.436815 222.869438 
L 205.4972 202.495039 
L 205.4972 202.495039 
L 206.734316 174.168735 
L 206.734316 174.168735 
L 210.092202 85.560712 
L 210.092202 85.560712 
L 210.799125 75.234458 
L 210.799125 75.234458 
L 211.506048 68.241225 
L 211.506048 68.241225 
L 212.212972 63.505202 
L 212.212972 63.505202 
L 212.919895 60.297751 
L 212.919895 60.297751 
L 213.626818 58.125633 
L 213.626818 58.125633 
L 214.333742 56.65457 
L 214.333742 56.65457 
L 215.040665 55.65832 
L 215.040665 55.65832 
L 215.217396 55.464241 
L 215.217396 55.464241 
L 215.394127 55.809854 
L 215.394127 55.809854 
L 215.570858 56.522075 
L 215.570858 56.522075 
L 215.747588 57.846183 
L 215.747588 57.846183 
L 216.10105 63.293423 
L 216.10105 63.293423 
L 216.984704 82.499547 
L 216.984704 82.499547 
L 221.049514 166.712581 
L 221.049514 166.712581 
L 222.816822 190.365396 
L 222.816822 190.365396 
L 223.523745 196.157467 
L 223.523745 196.157467 
L 224.407399 201.545634 
L 224.407399 201.545634 
L 224.937592 203.435231 
L 224.937592 203.435231 
L 225.467784 204.565594 
L 225.467784 204.565594 
L 225.821246 204.908807 
L 225.821246 204.908807 
L 226.351439 205.117236 
L 226.351439 205.117236 
L 227.235093 205.233427 
L 227.235093 205.233427 
L 227.942016 205.073909 
L 227.942016 205.073909 
L 228.472209 204.491949 
L 228.472209 204.491949 
L 229.002401 203.515409 
L 229.002401 203.515409 
L 229.532594 201.945631 
L 229.532594 201.945631 
L 230.062786 199.577814 
L 230.062786 199.577814 
L 230.592979 196.156183 
L 230.592979 196.156183 
L 231.299902 188.654301 
L 231.299902 188.654301 
L 232.006825 178.745464 
L 232.006825 178.745464 
L 232.537018 168.627638 
L 232.537018 168.627638 
L 233.243941 151.687545 
L 233.243941 151.687545 
L 235.541442 90.579368 
L 235.541442 90.579368 
L 236.248365 78.633308 
L 236.248365 78.633308 
L 236.955289 70.54299 
L 236.955289 70.54299 
L 237.662212 65.064036 
L 237.662212 65.064036 
L 238.369135 61.353464 
L 238.369135 61.353464 
L 239.076059 58.84059 
L 239.076059 58.84059 
L 239.782982 57.138764 
L 239.782982 57.138764 
L 240.489905 55.986235 
L 240.489905 55.986235 
L 241.196829 55.205673 
L 241.196829 55.205673 
L 241.37356 55.053636 
L 241.37356 55.053636 
L 241.55029 55.181552 
L 241.55029 55.181552 
L 241.727021 55.461617 
L 241.727021 55.461617 
L 241.903752 56.20946 
L 241.903752 56.20946 
L 242.257214 60.001215 
L 242.257214 60.001215 
L 242.787406 67.272 
L 242.787406 67.272 
L 243.847791 83.114895 
L 243.847791 83.114895 
L 245.261638 105.159183 
L 245.261638 105.159183 
L 246.145292 117.730251 
L 246.145292 117.730251 
L 247.205677 131.272387 
L 247.205677 131.272387 
L 248.089331 138.702299 
L 248.089331 138.702299 
L 248.972986 143.303259 
L 248.972986 143.303259 
L 249.503178 144.749532 
L 249.503178 144.749532 
L 249.85664 145.34171 
L 249.85664 145.34171 
L 250.386832 145.7115 
L 250.386832 145.7115 
L 250.917025 145.880956 
L 250.917025 145.880956 
L 251.447217 146.023669 
L 251.447217 146.023669 
L 251.97741 145.813174 
L 251.97741 145.813174 
L 252.507602 145.219042 
L 252.507602 145.219042 
L 253.214526 143.665121 
L 253.214526 143.665121 
L 253.744718 141.720248 
L 253.744718 141.720248 
L 254.451642 137.766629 
L 254.451642 137.766629 
L 255.335296 130.74615 
L 255.335296 130.74615 
L 256.21895 122.026022 
L 256.21895 122.026022 
L 257.102604 110.874371 
L 257.102604 110.874371 
L 258.516451 89.128349 
L 258.516451 89.128349 
L 259.400105 75.59604 
L 259.400105 75.59604 
L 260.107028 68.486114 
L 260.107028 68.486114 
L 260.813952 63.671029 
L 260.813952 63.671029 
L 261.520875 60.410089 
L 261.520875 60.410089 
L 262.227798 58.201679 
L 262.227798 58.201679 
L 262.934722 56.706049 
L 262.934722 56.706049 
L 263.641645 55.693217 
L 263.641645 55.693217 
L 264.348568 55.007238 
L 264.348568 55.007238 
L 265.232222 54.45219 
L 265.232222 54.45219 
L 266.292608 54.060793 
L 266.292608 54.060793 
L 267.706454 53.794017 
L 267.706454 53.794017 
L 270.003955 53.631707 
L 270.003955 53.631707 
L 274.952418 53.572132 
L 274.952418 53.572132 
L 276.542996 53.569731 
L 276.542996 53.569731 
L 276.719727 54.568493 
L 276.719727 54.568493 
L 277.42665 70.169962 
L 277.42665 70.169962 
L 280.077613 171.015778 
L 280.077613 171.015778 
L 282.375114 237.034851 
L 282.375114 237.034851 
L 282.905306 245.738675 
L 282.905306 245.738675 
L 284.672614 272.28426 
L 284.672614 272.28426 
L 285.732999 282.624473 
L 285.732999 282.624473 
L 286.616654 289.470693 
L 286.616654 289.470693 
L 287.500308 293.168592 
L 287.500308 293.168592 
L 288.0305 294.422014 
L 288.0305 294.422014 
L 288.737424 295.08108 
L 288.737424 295.08108 
L 289.444347 295.318878 
L 289.444347 295.318878 
L 290.15127 295.269577 
L 290.15127 295.269577 
L 290.681463 295.067624 
L 290.681463 295.067624 
L 291.034925 294.84747 
L 291.034925 294.84747 
L 291.388386 294.385275 
L 291.388386 294.385275 
L 292.09531 292.914602 
L 292.09531 292.914602 
L 292.978964 289.580631 
L 292.978964 289.580631 
L 293.862618 284.550082 
L 293.862618 284.550082 
L 294.923003 276.293601 
L 294.923003 276.293601 
L 296.33685 261.900999 
L 296.33685 261.900999 
L 297.043773 252.730903 
L 297.043773 252.730903 
L 298.811081 226.007933 
L 298.811081 226.007933 
L 300.57839 198.169843 
L 300.57839 198.169843 
L 303.406083 159.659048 
L 303.406083 159.659048 
L 303.582814 158.623435 
L 303.582814 158.623435 
L 303.936276 162.314522 
L 303.936276 162.314522 
L 304.466468 173.396381 
L 304.466468 173.396381 
L 305.173391 192.590054 
L 305.173391 192.590054 
L 306.587238 220.486434 
L 306.587238 220.486434 
L 307.470892 232.035792 
L 307.470892 232.035792 
L 308.531277 243.212904 
L 308.531277 243.212904 
L 309.238201 248.689401 
L 309.238201 248.689401 
L 309.768393 251.725943 
L 309.768393 251.725943 
L 311.005509 257.449003 
L 311.005509 257.449003 
L 311.535701 259.191421 
L 311.535701 259.191421 
L 312.596087 260.850813 
L 312.596087 260.850813 
L 313.126279 261.234338 
L 313.126279 261.234338 
L 313.656472 261.523392 
L 313.656472 261.523392 
L 314.363395 261.533498 
L 314.363395 261.533498 
L 315.42378 261.229034 
L 315.42378 261.229034 
L 315.777242 260.974374 
L 315.777242 260.974374 
L 316.484165 260.17963 
L 316.484165 260.17963 
L 317.014357 258.960826 
L 317.014357 258.960826 
L 317.898012 256.261187 
L 317.898012 256.261187 
L 318.604935 252.77557 
L 318.604935 252.77557 
L 319.842051 244.697368 
L 319.842051 244.697368 
L 320.725705 236.954506 
L 320.725705 236.954506 
L 322.669744 216.848223 
L 322.669744 216.848223 
L 323.90686 201.041619 
L 323.90686 201.041619 
L 325.674168 174.337968 
L 325.674168 174.337968 
L 327.618208 140.656551 
L 327.618208 140.656551 
L 327.971669 138.785492 
L 327.971669 138.785492 
L 328.1484 138.52201 
L 328.1484 138.52201 
L 328.325131 140.036289 
L 328.325131 140.036289 
L 328.855323 149.092037 
L 328.855323 149.092037 
L 330.445901 179.784259 
L 330.445901 179.784259 
L 331.152824 189.562054 
L 331.152824 189.562054 
L 332.213209 200.986622 
L 332.213209 200.986622 
L 332.743402 204.594684 
L 332.743402 204.594684 
L 333.450325 208.105426 
L 333.450325 208.105426 
L 333.980518 209.428473 
L 333.980518 209.428473 
L 334.51071 209.999433 
L 334.51071 209.999433 
L 335.040903 210.208421 
L 335.040903 210.208421 
L 335.924557 210.286924 
L 335.924557 210.286924 
L 336.454749 209.953761 
L 336.454749 209.953761 
L 336.984942 209.302064 
L 336.984942 209.302064 
L 337.515134 208.139596 
L 337.515134 208.139596 
L 338.045327 206.244305 
L 338.045327 206.244305 
L 338.575519 203.390787 
L 338.575519 203.390787 
L 339.282443 196.487168 
L 339.282443 196.487168 
L 339.989366 186.634053 
L 339.989366 186.634053 
L 340.519559 179.039207 
L 340.519559 179.039207 
L 340.87302 177.217505 
L 340.87302 177.217505 
L 341.049751 177.002823 
L 341.049751 177.002823 
L 341.226482 177.198019 
L 341.226482 177.198019 
L 341.579944 179.430326 
L 341.579944 179.430326 
L 342.463598 186.053266 
L 342.463598 186.053266 
L 342.99379 187.649119 
L 342.99379 187.649119 
L 343.523983 188.082671 
L 343.523983 188.082671 
L 343.877444 188.187639 
L 343.877444 188.187639 
L 344.230906 188.055871 
L 344.230906 188.055871 
L 344.584368 187.604228 
L 344.584368 187.604228 
L 344.937829 186.777603 
L 344.937829 186.777603 
L 345.291291 185.474656 
L 345.291291 185.474656 
L 345.644753 183.225431 
L 345.644753 183.225431 
L 346.174945 177.967805 
L 346.174945 177.967805 
L 347.058599 168.207653 
L 347.058599 168.207653 
L 347.23533 167.527035 
L 347.23533 167.527035 
L 347.412061 167.356238 
L 347.588792 167.957237 
L 347.588792 167.957237 
L 348.825908 181.617239 
L 348.825908 181.617239 
L 349.3561 184.559087 
L 349.3561 184.559087 
L 349.709562 185.541713 
L 349.709562 185.541713 
L 350.416485 186.258401 
L 350.416485 186.258401 
L 350.769947 186.360689 
L 350.769947 186.360689 
L 351.30014 186.315686 
L 351.30014 186.315686 
L 351.830332 186.163036 
L 351.830332 186.163036 
L 352.183794 186.007649 
L 352.183794 186.007649 
L 353.067448 184.976838 
L 353.067448 184.976838 
L 353.774371 183.814035 
L 353.774371 183.814035 
L 355.011487 180.673083 
L 355.011487 180.673083 
L 356.248603 176.10071 
L 356.248603 176.10071 
L 357.485719 169.659287 
L 357.485719 169.659287 
L 358.722835 161.295436 
L 358.722835 161.295436 
L 362.434182 134.745888 
L 362.434182 134.745888 
L 365.261876 119.224374 
L 365.261876 119.224374 
L 366.14553 111.2431 
L 366.14553 111.2431 
L 366.852453 102.756638 
L 366.852453 102.756638 
L 367.559376 91.280478 
L 367.559376 91.280478 
L 368.443031 76.942258 
L 368.443031 76.942258 
L 369.149954 69.397775 
L 369.149954 69.397775 
L 369.856877 64.288444 
L 369.856877 64.288444 
L 370.563801 60.828231 
L 370.563801 60.828231 
L 371.270724 58.48487 
L 371.270724 58.48487 
L 371.977647 56.897839 
L 371.977647 56.897839 
L 372.684571 55.823087 
L 372.684571 55.823087 
L 373.391494 55.095233 
L 373.391494 55.095233 
L 374.275148 54.506238 
L 374.275148 54.506238 
L 375.335533 54.090887 
L 375.335533 54.090887 
L 376.74938 53.807808 
L 376.74938 53.807808 
L 378.87015 53.642483 
L 378.87015 53.642483 
L 383.288421 53.574533 
L 383.288421 53.574533 
L 397.250157 53.60312 
L 397.250157 53.60312 
L 398.487273 53.788601 
L 398.487273 53.788601 
" clip-path="url(#pbee1e84ce4)" style="fill: none; stroke: #1f77b4; stroke-width: 1.5; stroke-linecap: square"/>
   </g>
   <g id="line2d_28">
    <path d="M 73.832727 53.568 
L 92.212734 53.568 
L 92.212734 53.568 
L 92.389465 57.572931 
L 92.389465 57.572931 
L 92.566196 67.422026 
L 92.566196 67.422026 
L 92.742927 65.680278 
L 92.742927 65.680278 
L 93.980043 110.094255 
L 93.980043 110.094255 
L 94.156773 111.426682 
L 94.156773 111.426682 
L 94.510235 122.189281 
L 94.510235 122.189281 
L 94.686966 130.183955 
L 94.686966 130.183955 
L 94.863697 130.822754 
L 94.863697 130.822754 
L 95.040428 134.48531 
L 95.040428 134.48531 
L 95.217158 141.505398 
L 95.217158 141.505398 
L 95.393889 142.302878 
L 95.393889 142.302878 
L 96.277543 162.062152 
L 96.277543 162.062152 
L 96.454274 162.026864 
L 96.454274 162.026864 
L 97.161198 174.894021 
L 97.161198 174.894021 
L 97.337928 175.424502 
L 97.337928 175.424502 
L 98.044852 185.31698 
L 98.044852 185.31698 
L 98.221583 185.812285 
L 98.221583 185.812285 
L 98.575044 191.309664 
L 98.575044 191.309664 
L 98.751775 190.92022 
L 98.928506 193.214838 
L 98.928506 193.214838 
L 99.105237 193.574522 
L 99.105237 193.574522 
L 99.281968 195.275176 
L 99.281968 195.275176 
L 99.458698 195.322132 
L 99.458698 195.322132 
L 99.635429 196.663884 
L 99.635429 196.663884 
L 99.81216 196.99766 
L 99.81216 196.99766 
L 100.165622 198.362081 
L 100.165622 198.362081 
L 100.519083 199.161235 
L 100.519083 199.161235 
L 100.695814 199.348559 
L 100.695814 199.348559 
L 100.872545 199.336834 
L 100.872545 199.336834 
L 101.049276 199.573794 
L 101.049276 199.573794 
L 101.226007 199.400485 
L 101.226007 199.400485 
L 101.402738 199.623319 
L 101.402738 199.623319 
L 101.579469 199.442305 
L 101.579469 199.442305 
L 101.756199 198.845046 
L 101.756199 198.845046 
L 101.93293 199.483343 
L 101.93293 199.483343 
L 102.109661 199.169164 
L 102.109661 199.169164 
L 102.286392 199.425722 
L 102.286392 199.425722 
L 102.463123 198.868329 
L 102.463123 198.868329 
L 102.639854 199.117629 
L 102.639854 199.117629 
L 102.816584 198.286146 
L 102.816584 198.286146 
L 102.993315 198.424112 
L 102.993315 198.424112 
L 103.170046 197.338807 
L 103.170046 197.338807 
L 103.346777 196.984651 
L 103.346777 196.984651 
L 103.523508 195.85546 
L 103.523508 195.85546 
L 103.700239 192.749907 
L 103.700239 192.749907 
L 103.876969 193.851125 
L 103.876969 193.851125 
L 104.0537 189.831007 
L 104.0537 189.831007 
L 104.230431 190.749591 
L 104.407162 186.375429 
L 104.407162 186.375429 
L 104.583893 186.907361 
L 104.583893 186.907361 
L 104.760624 182.492943 
L 104.760624 182.492943 
L 104.937354 181.806015 
L 104.937354 181.806015 
L 105.467547 171.088642 
L 105.467547 171.088642 
L 105.644278 160.213984 
L 105.644278 160.213984 
L 105.821009 163.017642 
L 105.821009 163.017642 
L 105.997739 151.61161 
L 105.997739 151.61161 
L 106.17447 152.738512 
L 106.17447 152.738512 
L 106.351201 142.825989 
L 106.351201 142.825989 
L 106.527932 140.347006 
L 106.527932 140.347006 
L 106.881394 121.521002 
L 106.881394 121.521002 
L 107.058124 121.758576 
L 107.058124 121.758576 
L 107.234855 125.147321 
L 107.411586 125.705272 
L 107.411586 125.705272 
L 107.765048 135.275754 
L 107.765048 135.275754 
L 107.941779 135.031145 
L 107.941779 135.031145 
L 108.118509 138.28103 
L 108.118509 138.28103 
L 108.29524 138.851209 
L 108.29524 138.851209 
L 108.648702 142.498019 
L 108.648702 142.498019 
L 108.825433 142.504495 
L 108.825433 142.504495 
L 109.532356 144.667009 
L 109.532356 144.667009 
L 109.709087 143.828324 
L 109.709087 143.828324 
L 109.885818 144.109058 
L 109.885818 144.109058 
L 110.239279 143.787453 
L 110.239279 143.787453 
L 110.41601 144.505928 
L 110.41601 144.505928 
L 110.592741 143.854622 
L 110.769472 144.093146 
L 110.769472 144.093146 
L 111.299664 143.414928 
L 111.299664 143.414928 
L 111.476395 143.308229 
L 111.476395 143.308229 
L 111.653126 141.630746 
L 111.829857 141.917064 
L 111.829857 141.917064 
L 112.006588 141.383903 
L 112.006588 141.383903 
L 112.183319 138.856234 
L 112.183319 138.856234 
L 112.360049 139.8359 
L 112.360049 139.8359 
L 112.713511 134.684917 
L 112.713511 134.684917 
L 112.890242 136.154305 
L 112.890242 136.154305 
L 113.066973 133.406482 
L 113.066973 133.406482 
L 113.243704 132.637421 
L 113.243704 132.637421 
L 113.420435 130.574404 
L 113.420435 130.574404 
L 113.597165 126.28042 
L 113.597165 126.28042 
L 113.773896 126.256243 
L 113.773896 126.256243 
L 113.950627 123.935775 
L 113.950627 123.935775 
L 114.127358 116.948963 
L 114.127358 116.948963 
L 114.304089 117.431426 
L 114.304089 117.431426 
L 114.48082 113.049559 
L 114.48082 113.049559 
L 114.65755 104.193475 
L 114.65755 104.193475 
L 114.834281 105.552479 
L 114.834281 105.552479 
L 115.011012 98.555897 
L 115.011012 98.555897 
L 115.187743 101.259611 
L 115.187743 101.259611 
L 115.364474 100.721035 
L 115.364474 100.721035 
L 115.541205 108.153794 
L 115.717935 120.487511 
L 115.717935 120.487511 
L 115.894666 119.493718 
L 115.894666 119.493718 
L 116.248128 135.662741 
L 116.424859 135.006466 
L 116.77832 146.140306 
L 116.955051 146.048627 
L 117.838705 161.315146 
L 117.838705 161.315146 
L 118.015436 160.941559 
L 118.368898 164.089268 
L 118.368898 164.089268 
L 118.89909 167.963435 
L 118.89909 167.963435 
L 119.252552 169.446223 
L 119.252552 169.446223 
L 119.429283 169.726008 
L 119.429283 169.726008 
L 119.606014 170.544928 
L 119.606014 170.544928 
L 119.782745 170.706568 
L 119.782745 170.706568 
L 119.959475 171.035543 
L 119.959475 171.035543 
L 120.136206 170.498921 
L 120.136206 170.498921 
L 120.489668 171.385791 
L 120.489668 171.385791 
L 120.666399 171.367645 
L 120.666399 171.367645 
L 120.84313 171.526047 
L 121.01986 171.168596 
L 121.01986 171.168596 
L 121.196591 171.609519 
L 121.196591 171.609519 
L 121.373322 171.096738 
L 121.373322 171.096738 
L 121.726784 171.510134 
L 121.726784 171.510134 
L 121.903515 170.857377 
L 121.903515 170.857377 
L 122.080245 171.563958 
L 122.080245 171.563958 
L 122.256976 170.834205 
L 122.256976 170.834205 
L 122.610438 171.297741 
L 122.610438 171.297741 
L 122.787169 171.402374 
L 122.787169 171.402374 
L 122.9639 171.243805 
L 122.9639 171.243805 
L 123.14063 170.156211 
L 123.14063 170.156211 
L 123.317361 170.644537 
L 123.317361 170.644537 
L 123.847554 170.470055 
L 123.847554 170.470055 
L 124.024285 169.014067 
L 124.024285 169.014067 
L 124.201015 170.183458 
L 124.201015 170.183458 
L 124.377746 169.151307 
L 124.377746 169.151307 
L 124.554477 169.421824 
L 124.554477 169.421824 
L 124.907939 168.354665 
L 124.907939 168.354665 
L 125.08467 168.906753 
L 125.08467 168.906753 
L 125.261401 167.348254 
L 125.261401 167.348254 
L 125.438131 167.776111 
L 125.438131 167.776111 
L 125.614862 166.900631 
L 125.614862 166.900631 
L 125.791593 166.958196 
L 125.791593 166.958196 
L 125.968324 167.13787 
L 125.968324 167.13787 
L 126.145055 165.026947 
L 126.145055 165.026947 
L 126.321786 165.629119 
L 126.321786 165.629119 
L 126.498516 164.329466 
L 126.498516 164.329466 
L 126.675247 164.490771 
L 126.675247 164.490771 
L 126.851978 164.806514 
L 126.851978 164.806514 
L 127.028709 162.566837 
L 127.028709 162.566837 
L 127.20544 163.411887 
L 127.20544 163.411887 
L 127.382171 162.169744 
L 127.382171 162.169744 
L 127.558901 162.413684 
L 127.558901 162.413684 
L 127.735632 161.126482 
L 127.735632 161.126482 
L 128.089094 160.33319 
L 128.089094 160.33319 
L 128.265825 159.033314 
L 128.442556 159.315891 
L 128.442556 159.315891 
L 128.619286 158.864304 
L 128.619286 158.864304 
L 128.796017 157.540978 
L 128.796017 157.540978 
L 128.972748 157.100502 
L 128.972748 157.100502 
L 129.149479 155.476397 
L 129.149479 155.476397 
L 129.32621 155.740604 
L 129.32621 155.740604 
L 129.502941 155.313082 
L 129.502941 155.313082 
L 129.679671 152.390944 
L 129.679671 152.390944 
L 129.856402 154.129006 
L 129.856402 154.129006 
L 130.033133 151.908201 
L 130.033133 151.908201 
L 130.209864 152.078942 
L 130.209864 152.078942 
L 130.386595 151.335957 
L 130.386595 151.335957 
L 130.563326 148.460608 
L 130.563326 148.460608 
L 130.740056 149.869863 
L 130.740056 149.869863 
L 130.916787 147.459501 
L 130.916787 147.459501 
L 131.093518 147.451405 
L 131.093518 147.451405 
L 131.270249 146.892225 
L 131.270249 146.892225 
L 131.44698 144.651041 
L 131.44698 144.651041 
L 131.623711 145.087608 
L 131.623711 145.087608 
L 131.977172 142.848713 
L 131.977172 142.848713 
L 132.684096 138.539654 
L 132.684096 138.539654 
L 132.860826 135.98898 
L 132.860826 135.98898 
L 133.037557 136.504609 
L 133.037557 136.504609 
L 133.391019 132.035417 
L 133.391019 132.035417 
L 133.56775 133.410222 
L 133.56775 133.410222 
L 133.744481 130.709355 
L 133.744481 130.709355 
L 133.921211 130.599529 
L 133.921211 130.599529 
L 134.097942 129.144155 
L 134.097942 129.144155 
L 134.274673 126.353004 
L 134.274673 126.353004 
L 134.451404 126.551383 
L 134.451404 126.551383 
L 134.628135 124.904442 
L 134.628135 124.904442 
L 134.804866 121.669297 
L 134.981596 122.149136 
L 134.981596 122.149136 
L 135.158327 120.11532 
L 135.158327 120.11532 
L 135.335058 116.657955 
L 135.335058 116.657955 
L 135.511789 117.372689 
L 135.511789 117.372689 
L 135.865251 111.332099 
L 135.865251 111.332099 
L 136.041981 112.208138 
L 136.041981 112.208138 
L 136.395443 105.705074 
L 136.395443 105.705074 
L 136.572174 106.52042 
L 136.572174 106.52042 
L 136.925636 99.532325 
L 136.925636 99.532325 
L 137.102367 100.638177 
L 137.102367 100.638177 
L 137.279097 97.865786 
L 137.279097 97.865786 
L 137.455828 93.175881 
L 137.455828 93.175881 
L 137.632559 94.066269 
L 137.632559 94.066269 
L 138.692944 78.375019 
L 138.692944 78.375019 
L 139.046406 72.621585 
L 139.046406 72.621585 
L 139.223137 66.531415 
L 139.223137 66.531415 
L 139.399867 67.15659 
L 139.399867 67.15659 
L 139.576598 64.539418 
L 139.576598 64.539418 
L 139.753329 58.869289 
L 139.753329 58.869289 
L 139.93006 58.003021 
L 139.93006 58.003021 
L 140.283522 53.568 
L 140.283522 53.568 
L 150.710641 53.568 
L 150.710641 53.568 
L 151.064103 64.310163 
L 151.064103 64.310163 
L 151.594295 82.839465 
L 151.594295 82.839465 
L 151.947757 93.552539 
L 151.947757 93.552539 
L 152.301218 111.577379 
L 152.301218 111.577379 
L 152.477949 110.45433 
L 152.477949 110.45433 
L 152.65468 115.763827 
L 152.831411 124.431805 
L 152.831411 124.431805 
L 153.008142 125.738102 
L 153.008142 125.738102 
L 153.361603 137.647144 
L 153.361603 137.647144 
L 153.538334 147.407742 
L 153.538334 147.407742 
L 153.715065 145.166502 
L 153.715065 145.166502 
L 153.891796 150.830211 
L 153.891796 150.830211 
L 154.068527 160.398795 
L 154.068527 160.398795 
L 154.245258 158.139465 
L 154.245258 158.139465 
L 154.421988 165.169213 
L 154.421988 165.169213 
L 154.598719 166.815595 
L 154.598719 166.815595 
L 154.77545 171.380208 
L 154.77545 171.380208 
L 154.952181 178.996941 
L 154.952181 178.996941 
L 155.128912 179.175833 
L 155.128912 179.175833 
L 155.305643 183.696337 
L 155.305643 183.696337 
L 155.482373 191.739085 
L 155.482373 191.739085 
L 155.659104 189.790304 
L 155.659104 189.790304 
L 155.835835 196.629043 
L 155.835835 196.629043 
L 156.012566 196.303753 
L 156.012566 196.303753 
L 156.189297 201.188407 
L 156.189297 201.188407 
L 156.366028 201.99912 
L 156.366028 201.99912 
L 156.719489 207.702303 
L 156.719489 207.702303 
L 156.89622 210.597697 
L 156.89622 210.597697 
L 157.072951 217.121196 
L 157.072951 217.121196 
L 157.249682 215.616241 
L 157.249682 215.616241 
L 157.426413 220.830652 
L 157.426413 220.830652 
L 157.603143 220.096991 
L 157.603143 220.096991 
L 157.779874 224.520064 
L 157.779874 224.520064 
L 157.956605 224.188409 
L 157.956605 224.188409 
L 158.133336 227.99563 
L 158.133336 227.99563 
L 158.310067 227.886084 
L 158.310067 227.886084 
L 158.486798 231.203137 
L 158.486798 231.203137 
L 158.663528 231.203081 
L 158.663528 231.203081 
L 158.840259 234.169049 
L 158.840259 234.169049 
L 159.01699 234.157715 
L 159.01699 234.157715 
L 159.193721 236.834127 
L 159.193721 236.834127 
L 159.370452 237.153443 
L 159.370452 237.153443 
L 159.547183 239.179498 
L 159.547183 239.179498 
L 159.723913 239.047562 
L 159.723913 239.047562 
L 159.900644 241.204157 
L 159.900644 241.204157 
L 160.077375 241.018676 
L 160.077375 241.018676 
L 160.254106 242.912963 
L 160.254106 242.912963 
L 160.430837 243.075105 
L 160.430837 243.075105 
L 160.607568 244.28721 
L 160.607568 244.28721 
L 160.784299 244.094861 
L 160.784299 244.094861 
L 160.961029 245.338288 
L 160.961029 245.338288 
L 161.13776 245.47391 
L 161.13776 245.47391 
L 161.314491 246.091324 
L 161.314491 246.091324 
L 161.491222 246.134428 
L 161.491222 246.134428 
L 162.198145 247.352507 
L 162.198145 247.352507 
L 162.374876 247.172162 
L 162.374876 247.172162 
L 162.551607 247.309068 
L 163.081799 247.278359 
L 163.081799 247.278359 
L 163.25853 247.39991 
L 163.25853 247.39991 
L 163.435261 247.261776 
L 163.435261 247.261776 
L 163.611992 247.371602 
L 163.611992 247.371602 
L 163.965454 247.015771 
L 163.965454 247.015771 
L 164.495646 247.329056 
L 164.495646 247.329056 
L 164.672377 246.81862 
L 164.672377 246.81862 
L 164.849108 246.975682 
L 164.849108 246.975682 
L 165.025839 245.844593 
L 165.025839 245.844593 
L 165.202569 246.049169 
L 165.202569 246.049169 
L 165.3793 245.290048 
L 165.3793 245.290048 
L 165.556031 245.576254 
L 165.556031 245.576254 
L 165.732762 243.915968 
L 165.732762 243.915968 
L 165.909493 244.610043 
L 165.909493 244.610043 
L 166.086224 242.560202 
L 166.086224 242.560202 
L 166.262954 243.432556 
L 166.262954 243.432556 
L 166.439685 240.946706 
L 166.439685 240.946706 
L 166.616416 242.594875 
L 166.793147 239.08324 
L 166.793147 239.08324 
L 166.969878 240.720131 
L 166.969878 240.720131 
L 167.676801 236.160041 
L 167.676801 236.160041 
L 167.853532 235.470544 
L 167.853532 235.470544 
L 168.030263 233.792559 
L 168.030263 233.792559 
L 168.206994 233.586699 
L 168.206994 233.586699 
L 168.383724 230.744068 
L 168.383724 230.744068 
L 168.560455 230.758641 
L 168.560455 230.758641 
L 168.737186 228.302663 
L 168.737186 228.302663 
L 168.913917 228.537334 
L 168.913917 228.537334 
L 169.090648 224.918943 
L 169.090648 224.918943 
L 169.267379 225.379519 
L 169.267379 225.379519 
L 169.444109 221.765875 
L 169.444109 221.765875 
L 169.62084 222.456376 
L 169.62084 222.456376 
L 169.797571 218.487738 
L 169.797571 218.487738 
L 169.974302 219.386333 
L 169.974302 219.386333 
L 170.151033 215.120099 
L 170.151033 215.120099 
L 170.327764 216.177542 
L 170.327764 216.177542 
L 170.504494 211.657597 
L 170.504494 211.657597 
L 170.681225 212.839719 
L 170.681225 212.839719 
L 170.857956 208.132506 
L 170.857956 208.132506 
L 171.034687 209.385592 
L 171.034687 209.385592 
L 171.211418 204.566376 
L 171.211418 204.566376 
L 171.388149 205.810864 
L 171.388149 205.810864 
L 171.564879 200.965405 
L 171.564879 200.965405 
L 171.74161 202.127594 
L 171.74161 202.127594 
L 171.918341 197.353436 
L 171.918341 197.353436 
L 172.095072 198.268837 
L 172.271803 193.730188 
L 172.271803 193.730188 
L 172.448534 194.433419 
L 172.448534 194.433419 
L 172.625265 190.126761 
L 172.625265 190.126761 
L 172.801995 190.53301 
L 172.801995 190.53301 
L 172.978726 186.549967 
L 172.978726 186.549967 
L 173.155457 186.695415 
L 173.155457 186.695415 
L 173.332188 182.896456 
L 173.332188 182.896456 
L 173.508919 182.711422 
L 173.508919 182.711422 
L 173.68565 179.531832 
L 173.68565 179.531832 
L 173.86238 178.400967 
L 173.86238 178.400967 
L 174.039111 175.59541 
L 174.039111 175.59541 
L 174.215842 174.641986 
L 174.215842 174.641986 
L 174.392573 172.205772 
L 174.392573 172.205772 
L 174.569304 167.594873 
L 174.569304 167.594873 
L 174.746035 168.670742 
L 174.746035 168.670742 
L 174.922765 164.308249 
L 174.922765 164.308249 
L 175.099496 164.617627 
L 175.099496 164.617627 
L 175.276227 161.383599 
L 175.276227 161.383599 
L 175.452958 160.614427 
L 175.452958 160.614427 
L 175.629689 158.865142 
L 175.629689 158.865142 
L 175.80642 153.725493 
L 175.80642 153.725493 
L 175.98315 155.073498 
L 176.159881 151.142994 
L 176.159881 151.142994 
L 176.336612 151.486765 
L 176.336612 151.486765 
L 176.690074 148.007346 
L 176.690074 148.007346 
L 176.866805 146.763081 
L 176.866805 146.763081 
L 177.043535 141.888533 
L 177.043535 141.888533 
L 177.220266 142.82476 
L 177.220266 142.82476 
L 177.396997 140.480562 
L 177.396997 140.480562 
L 177.573728 139.63205 
L 177.573728 139.63205 
L 177.750459 138.095995 
L 177.750459 138.095995 
L 177.92719 133.778449 
L 177.92719 133.778449 
L 178.10392 134.236401 
L 178.10392 134.236401 
L 178.280651 131.453681 
L 178.280651 131.453681 
L 178.457382 126.240219 
L 178.457382 126.240219 
L 178.634113 128.150028 
L 178.634113 128.150028 
L 178.810844 123.468163 
L 178.810844 123.468163 
L 178.987575 123.157334 
L 178.987575 123.157334 
L 179.164305 120.885385 
L 179.164305 120.885385 
L 179.341036 114.246309 
L 179.341036 114.246309 
L 179.517767 114.680867 
L 179.517767 114.680867 
L 179.694498 110.68325 
L 179.871229 103.218107 
L 180.04796 104.410167 
L 180.04796 104.410167 
L 180.401421 89.476755 
L 180.401421 89.476755 
L 180.578152 90.886065 
L 180.578152 90.886065 
L 180.931614 73.858815 
L 180.931614 73.858815 
L 181.108345 75.578675 
L 181.108345 75.578675 
L 181.461806 55.533699 
L 181.638537 56.16697 
L 181.815268 56.23626 
L 181.815268 56.23626 
L 181.991999 65.889154 
L 181.991999 65.889154 
L 182.16873 68.110741 
L 182.16873 68.110741 
L 182.522191 81.876605 
L 182.522191 81.876605 
L 182.698922 91.724304 
L 182.698922 91.724304 
L 182.875653 92.89671 
L 182.875653 92.89671 
L 183.229115 107.121531 
L 183.229115 107.121531 
L 183.405845 117.445664 
L 183.405845 117.445664 
L 183.582576 117.456719 
L 183.582576 117.456719 
L 183.936038 131.916714 
L 183.936038 131.916714 
L 184.112769 143.386396 
L 184.112769 143.386396 
L 184.2895 140.365208 
L 184.2895 140.365208 
L 184.466231 147.522872 
L 184.466231 147.522872 
L 184.642961 159.343026 
L 184.642961 159.343026 
L 184.819692 156.556063 
L 184.996423 164.967093 
L 184.996423 164.967093 
L 185.173154 167.464277 
L 185.173154 167.464277 
L 185.880077 188.251179 
L 185.880077 188.251179 
L 186.056808 199.710755 
L 186.056808 199.710755 
L 186.233539 197.070189 
L 186.233539 197.070189 
L 186.41027 205.938501 
L 186.41027 205.938501 
L 186.587001 205.58669 
L 186.587001 205.58669 
L 186.763731 212.052512 
L 186.940462 213.455067 
L 186.940462 213.455067 
L 187.293924 221.170292 
L 187.293924 221.170292 
L 187.824116 230.609731 
L 187.824116 230.609731 
L 188.000847 239.702441 
L 188.000847 239.702441 
L 188.177578 236.9334 
L 188.177578 236.9334 
L 189.237963 252.332637 
L 189.237963 252.332637 
L 189.414694 253.326374 
L 189.591425 256.952693 
L 189.768156 257.314611 
L 189.768156 257.314611 
L 189.944886 260.224074 
L 189.944886 260.224074 
L 190.121617 260.14479 
L 190.121617 260.14479 
L 190.298348 263.68652 
L 190.298348 263.68652 
L 190.475079 263.193337 
L 190.475079 263.193337 
L 190.65181 266.741767 
L 190.828541 265.999898 
L 190.828541 265.999898 
L 191.888926 271.136979 
L 191.888926 271.136979 
L 192.065656 271.593367 
L 192.065656 271.593367 
L 192.242387 271.524412 
L 192.242387 271.524412 
L 192.419118 272.630264 
L 192.419118 272.630264 
L 192.595849 273.003851 
L 192.77258 273.094023 
L 192.77258 273.094023 
L 192.949311 273.598206 
L 192.949311 273.598206 
L 193.126041 273.30999 
L 193.126041 273.30999 
L 193.302772 273.989882 
L 193.302772 273.989882 
L 193.479503 273.637457 
L 193.479503 273.637457 
L 193.656234 274.342196 
L 193.656234 274.342196 
L 193.832965 274.144376 
L 193.832965 274.144376 
L 194.186426 274.599815 
L 194.186426 274.599815 
L 194.363157 274.74169 
L 194.363157 274.74169 
L 194.716619 274.389599 
L 194.716619 274.389599 
L 195.070081 274.689932 
L 195.070081 274.689932 
L 195.246812 274.456042 
L 195.246812 274.456042 
L 195.600273 274.747106 
L 195.600273 274.747106 
L 196.130466 274.181952 
L 196.130466 274.181952 
L 196.307197 274.411319 
L 196.307197 274.411319 
L 196.660658 273.932206 
L 196.660658 273.932206 
L 196.837389 273.934327 
L 196.837389 273.934327 
L 197.01412 272.618595 
L 197.01412 272.618595 
L 197.190851 273.269956 
L 197.190851 273.269956 
L 197.367582 271.231283 
L 197.367582 271.231283 
L 197.544312 272.241714 
L 197.544312 272.241714 
L 197.721043 271.910785 
L 197.721043 271.910785 
L 197.897774 270.466243 
L 197.897774 270.466243 
L 198.074505 270.59695 
L 198.074505 270.59695 
L 198.251236 267.388383 
L 198.427967 268.828961 
L 198.427967 268.828961 
L 198.781428 266.279181 
L 198.781428 266.279181 
L 198.958159 265.946856 
L 198.958159 265.946856 
L 199.13489 262.956935 
L 199.13489 262.956935 
L 199.311621 263.417678 
L 199.311621 263.417678 
L 199.488352 258.212983 
L 199.488352 258.212983 
L 199.665082 260.361873 
L 199.665082 260.361873 
L 200.195275 255.746061 
L 200.195275 255.746061 
L 200.372006 250.993008 
L 200.372006 250.993008 
L 200.548737 252.459549 
L 200.548737 252.459549 
L 200.725467 245.601435 
L 200.725467 245.601435 
L 200.902198 247.87813 
L 200.902198 247.87813 
L 201.078929 245.887864 
L 201.078929 245.887864 
L 201.25566 242.1233 
L 201.25566 242.1233 
L 201.432391 241.132355 
L 201.432391 241.132355 
L 201.609122 235.89159 
L 201.609122 235.89159 
L 201.785852 236.326315 
L 201.785852 236.326315 
L 201.962583 229.755357 
L 201.962583 229.755357 
L 202.139314 231.537305 
L 202.139314 231.537305 
L 202.316045 222.444428 
L 202.316045 222.444428 
L 202.492776 225.653163 
L 202.492776 225.653163 
L 202.669507 222.776976 
L 202.669507 222.776976 
L 202.846237 218.085732 
L 202.846237 218.085732 
L 203.022968 216.497807 
L 203.199699 210.392394 
L 203.199699 210.392394 
L 203.37643 209.724729 
L 203.37643 209.724729 
L 203.553161 202.562375 
L 203.553161 202.562375 
L 203.729892 202.763825 
L 203.729892 202.763825 
L 203.906622 193.600541 
L 203.906622 193.600541 
L 204.083353 194.528114 
L 204.083353 194.528114 
L 204.260084 184.574274 
L 204.260084 184.574274 
L 204.436815 185.798383 
L 204.436815 185.798383 
L 204.613546 175.560235 
L 204.613546 175.560235 
L 204.790277 176.347162 
L 204.790277 176.347162 
L 204.967007 166.143184 
L 204.967007 166.143184 
L 205.143738 167.03279 
L 205.143738 167.03279 
L 205.320469 156.710835 
L 205.320469 156.710835 
L 205.4972 156.765441 
L 205.4972 156.765441 
L 205.673931 147.323042 
L 205.673931 147.323042 
L 205.850662 146.267385 
L 205.850662 146.267385 
L 206.204123 135.678263 
L 206.204123 135.678263 
L 206.380854 129.893227 
L 206.380854 129.893227 
L 206.557585 116.607593 
L 206.557585 116.607593 
L 206.734316 118.631024 
L 206.734316 118.631024 
L 206.911047 109.325754 
L 206.911047 109.325754 
L 207.087778 108.234698 
L 207.087778 108.234698 
L 207.264508 101.287193 
L 207.441239 89.478597 
L 207.441239 89.478597 
L 207.61797 91.959199 
L 207.61797 91.959199 
L 207.794701 83.551239 
L 207.794701 83.551239 
L 207.971432 81.274991 
L 207.971432 81.274991 
L 208.855086 53.568 
L 208.855086 53.568 
L 214.863934 53.568 
L 214.863934 53.568 
L 215.040665 57.665336 
L 215.040665 57.665336 
L 215.217396 58.051876 
L 215.217396 58.051876 
L 215.747588 72.14839 
L 215.747588 72.14839 
L 215.924319 78.622476 
L 216.10105 78.639227 
L 216.10105 78.639227 
L 218.045089 126.750655 
L 218.045089 126.750655 
L 218.22182 125.659543 
L 218.22182 125.659543 
L 218.398551 129.666931 
L 218.398551 129.666931 
L 218.575282 137.435923 
L 218.575282 137.435923 
L 218.752013 136.846091 
L 218.752013 136.846091 
L 218.928744 140.303177 
L 218.928744 140.303177 
L 219.105474 147.821753 
L 219.105474 147.821753 
L 219.282205 147.348502 
L 219.282205 147.348502 
L 219.635667 158.408306 
L 219.812398 157.547734 
L 219.989129 161.311126 
L 219.989129 161.311126 
L 220.165859 168.219825 
L 220.165859 168.219825 
L 220.34259 166.769811 
L 220.34259 166.769811 
L 220.519321 171.522641 
L 220.519321 171.522641 
L 220.696052 172.13905 
L 220.696052 172.13905 
L 221.049514 180.355777 
L 221.049514 180.355777 
L 221.226244 179.804973 
L 221.226244 179.804973 
L 221.402975 184.180475 
L 221.402975 184.180475 
L 221.579706 184.673603 
L 221.579706 184.673603 
L 221.756437 187.105182 
L 221.756437 187.105182 
L 221.933168 191.548132 
L 221.933168 191.548132 
L 222.109899 190.406267 
L 222.109899 190.406267 
L 222.286629 193.566147 
L 222.286629 193.566147 
L 222.46336 193.777423 
L 222.640091 196.229661 
L 222.640091 196.229661 
L 222.816822 196.287729 
L 223.170284 199.158444 
L 223.170284 199.158444 
L 223.347014 200.011087 
L 223.347014 200.011087 
L 223.523745 201.689798 
L 223.523745 201.689798 
L 223.700476 201.82581 
L 223.700476 201.82581 
L 223.877207 203.174262 
L 223.877207 203.174262 
L 224.053938 203.225964 
L 224.053938 203.225964 
L 224.230669 203.995806 
L 224.230669 203.995806 
L 225.114323 205.302382 
L 225.114323 205.302382 
L 225.467784 205.072289 
L 225.467784 205.072289 
L 225.644515 205.278038 
L 225.644515 205.278038 
L 225.821246 205.098922 
L 225.821246 205.098922 
L 225.997977 205.314107 
L 225.997977 205.314107 
L 226.174708 205.127286 
L 226.174708 205.127286 
L 226.351439 205.344202 
L 226.351439 205.344202 
L 226.528169 205.10512 
L 226.528169 205.10512 
L 226.7049 205.320305 
L 226.7049 205.320305 
L 226.881631 204.971899 
L 226.881631 204.971899 
L 227.058362 205.15163 
L 227.058362 205.15163 
L 227.235093 204.675029 
L 227.235093 204.675029 
L 227.411824 204.74739 
L 227.411824 204.74739 
L 227.588554 204.035448 
L 227.588554 204.035448 
L 227.765285 202.575049 
L 227.765285 202.575049 
L 227.942016 203.242156 
L 227.942016 203.242156 
L 228.118747 201.271265 
L 228.118747 201.271265 
L 228.295478 201.895938 
L 228.295478 201.895938 
L 228.472209 199.555257 
L 228.472209 199.555257 
L 228.648939 200.038279 
L 228.648939 200.038279 
L 228.82567 197.368064 
L 228.82567 197.368064 
L 229.002401 197.577219 
L 229.002401 197.577219 
L 229.179132 194.641402 
L 229.179132 194.641402 
L 229.355863 194.435932 
L 229.355863 194.435932 
L 229.532594 191.276108 
L 229.532594 191.276108 
L 229.709324 190.383542 
L 229.709324 190.383542 
L 230.239517 182.058999 
L 230.239517 182.058999 
L 230.416248 173.662989 
L 230.416248 173.662989 
L 230.592979 176.383677 
L 230.592979 176.383677 
L 230.76971 167.891241 
L 230.76971 167.891241 
L 230.94644 168.750808 
L 230.94644 168.750808 
L 231.123171 161.178129 
L 231.123171 161.178129 
L 231.299902 160.182549 
L 231.299902 160.182549 
L 231.653364 150.288731 
L 231.653364 150.288731 
L 231.830095 145.00207 
L 231.830095 145.00207 
L 232.006825 130.98914 
L 232.006825 130.98914 
L 232.183556 133.998882 
L 232.183556 133.998882 
L 232.360287 121.08315 
L 232.360287 121.08315 
L 232.537018 120.253007 
L 232.537018 120.253007 
L 232.713749 111.77425 
L 232.713749 111.77425 
L 232.89048 97.083214 
L 232.89048 97.083214 
L 233.06721 100.797695 
L 233.06721 100.797695 
L 233.243941 89.986967 
L 233.243941 89.986967 
L 233.420672 88.137181 
L 233.420672 88.137181 
L 233.597403 82.941809 
L 233.597403 82.941809 
L 233.774134 73.137158 
L 233.774134 73.137158 
L 233.950865 72.915664 
L 233.950865 72.915664 
L 234.481057 60.273854 
L 234.481057 60.273854 
L 234.834519 53.568 
L 234.834519 53.568 
L 241.020098 53.568 
L 241.020098 53.568 
L 241.196829 56.026938 
L 241.196829 56.026938 
L 241.37356 55.969317 
L 241.903752 65.912102 
L 241.903752 65.912102 
L 242.080483 70.341708 
L 242.080483 70.341708 
L 242.257214 69.547913 
L 242.257214 69.547913 
L 242.610676 75.827808 
L 242.610676 75.827808 
L 242.787406 80.29136 
L 242.787406 80.29136 
L 242.964137 80.6822 
L 242.964137 80.6822 
L 244.201253 101.260616 
L 244.201253 101.260616 
L 244.377984 101.691265 
L 244.377984 101.691265 
L 244.908176 113.709631 
L 244.908176 113.709631 
L 245.084907 113.304833 
L 245.084907 113.304833 
L 245.261638 115.751822 
L 245.261638 115.751822 
L 245.438369 120.338545 
L 245.438369 120.338545 
L 245.6151 120.389075 
L 245.6151 120.389075 
L 246.675485 135.369835 
L 246.675485 135.369835 
L 246.852216 134.738518 
L 246.852216 134.738518 
L 247.205677 139.686711 
L 247.205677 139.686711 
L 247.382408 138.925021 
L 247.382408 138.925021 
L 247.73587 141.276032 
L 247.73587 141.276032 
L 248.619524 144.862429 
L 248.619524 144.862429 
L 249.149716 145.584812 
L 249.149716 145.584812 
L 249.326447 145.8474 
L 249.326447 145.8474 
L 249.679909 145.707256 
L 249.679909 145.707256 
L 249.85664 145.984082 
L 249.85664 145.984082 
L 250.210101 145.673812 
L 250.210101 145.673812 
L 250.563563 146.202171 
L 250.563563 146.202171 
L 250.740294 146.032211 
L 250.740294 146.032211 
L 250.917025 146.225398 
L 250.917025 146.225398 
L 251.093756 145.29721 
L 251.093756 145.29721 
L 251.270486 145.541764 
L 251.270486 145.541764 
L 251.447217 145.521161 
L 251.447217 145.521161 
L 251.623948 143.91336 
L 251.623948 143.91336 
L 251.800679 144.258303 
L 251.800679 144.258303 
L 251.97741 143.727767 
L 251.97741 143.727767 
L 252.154141 141.30903 
L 252.154141 141.30903 
L 252.330871 141.952239 
L 252.330871 141.952239 
L 252.507602 140.223222 
L 252.507602 140.223222 
L 252.684333 139.951533 
L 252.684333 139.951533 
L 252.861064 138.542055 
L 252.861064 138.542055 
L 253.037795 135.85241 
L 253.037795 135.85241 
L 253.214526 135.812544 
L 253.214526 135.812544 
L 253.391256 134.561803 
L 253.391256 134.561803 
L 253.567987 130.324825 
L 253.567987 130.324825 
L 253.744718 130.681885 
L 253.744718 130.681885 
L 253.921449 128.740809 
L 253.921449 128.740809 
L 254.09818 123.860566 
L 254.09818 123.860566 
L 254.274911 124.692328 
L 254.274911 124.692328 
L 254.451642 121.8813 
L 254.451642 121.8813 
L 254.628372 116.665437 
L 254.628372 116.665437 
L 254.805103 117.936167 
L 254.805103 117.936167 
L 254.981834 114.026769 
L 254.981834 114.026769 
L 255.158565 113.253354 
L 255.158565 113.253354 
L 255.865488 102.194052 
L 255.865488 102.194052 
L 256.042219 97.90621 
L 256.042219 97.90621 
L 256.21895 96.653737 
L 256.21895 96.653737 
L 256.572412 88.822322 
L 256.572412 88.822322 
L 256.749142 82.585364 
L 256.749142 82.585364 
L 256.925873 84.586182 
L 256.925873 84.586182 
L 257.279335 72.795397 
L 257.279335 72.795397 
L 257.456066 74.31632 
L 257.456066 74.31632 
L 258.33972 53.568 
L 258.33972 53.568 
L 276.189534 53.568 
L 276.189534 53.568 
L 276.366265 58.821104 
L 276.366265 58.821104 
L 276.542996 69.333845 
L 276.719727 67.730901 
L 276.719727 67.730901 
L 277.073188 83.999644 
L 277.073188 83.999644 
L 277.249919 95.317458 
L 277.249919 95.317458 
L 277.42665 96.102207 
L 277.42665 96.102207 
L 277.780112 111.129198 
L 277.780112 111.129198 
L 277.956843 123.462412 
L 277.956843 123.462412 
L 278.133574 124.378372 
L 278.487035 141.084744 
L 278.487035 141.084744 
L 278.663766 154.822411 
L 278.663766 154.822411 
L 278.840497 151.588272 
L 278.840497 151.588272 
L 279.193959 174.0727 
L 279.193959 174.0727 
L 279.370689 170.683732 
L 279.370689 170.683732 
L 279.54742 180.563481 
L 279.54742 180.563481 
L 279.724151 182.93219 
L 279.724151 182.93219 
L 279.900882 189.038776 
L 279.900882 189.038776 
L 280.077613 201.455239 
L 280.077613 201.455239 
L 280.254344 199.707238 
L 280.254344 199.707238 
L 280.431074 209.071413 
L 280.431074 209.071413 
L 280.607805 209.841869 
L 280.607805 209.841869 
L 280.961267 219.669692 
L 280.961267 219.669692 
L 281.137998 223.732523 
L 281.137998 223.732523 
L 281.314729 235.89494 
L 281.314729 235.89494 
L 281.491459 231.943834 
L 281.491459 231.943834 
L 281.66819 242.786498 
L 281.66819 242.786498 
L 281.844921 239.271066 
L 281.844921 239.271066 
L 282.021652 248.888617 
L 282.021652 248.888617 
L 282.198383 246.356816 
L 282.198383 246.356816 
L 282.728575 254.763714 
L 282.728575 254.763714 
L 282.905306 259.324418 
L 282.905306 259.324418 
L 283.082037 260.478846 
L 283.082037 260.478846 
L 283.258768 264.99438 
L 283.258768 264.99438 
L 283.435499 265.037819 
L 283.435499 265.037819 
L 283.612229 270.899237 
L 283.612229 270.899237 
L 283.78896 269.736155 
L 283.78896 269.736155 
L 283.965691 276.44882 
L 283.965691 276.44882 
L 284.142422 274.579603 
L 284.142422 274.579603 
L 284.319153 276.01443 
L 284.319153 276.01443 
L 284.495884 279.17727 
L 284.495884 279.17727 
L 284.672614 279.260407 
L 284.672614 279.260407 
L 284.849345 283.900563 
L 284.849345 283.900563 
L 285.026076 282.831897 
L 285.026076 282.831897 
L 285.732999 289.64886 
L 285.732999 289.64886 
L 285.90973 289.431107 
L 286.086461 292.065308 
L 286.086461 292.065308 
L 286.263192 291.391055 
L 286.263192 291.391055 
L 286.970115 294.179917 
L 286.970115 294.179917 
L 287.146846 294.326816 
L 287.146846 294.326816 
L 287.500308 295.017597 
L 287.500308 295.017597 
L 287.677039 295.104307 
L 287.677039 295.104307 
L 287.853769 294.816761 
L 287.853769 294.816761 
L 288.207231 295.421222 
L 288.207231 295.421222 
L 288.383962 295.226696 
L 288.383962 295.226696 
L 288.737424 295.488 
L 288.737424 295.488 
L 288.914155 295.290403 
L 288.914155 295.290403 
L 289.090885 295.420441 
L 289.090885 295.420441 
L 289.267616 295.135965 
L 289.267616 295.135965 
L 289.444347 295.281413 
L 289.444347 295.281413 
L 289.797809 294.887671 
L 289.797809 294.887671 
L 289.97454 294.990406 
L 289.97454 294.990406 
L 290.15127 293.914034 
L 290.15127 293.914034 
L 290.328001 294.313807 
L 290.328001 294.313807 
L 290.504732 294.125534 
L 290.504732 294.125534 
L 290.681463 292.840287 
L 290.681463 292.840287 
L 290.858194 292.907009 
L 290.858194 292.907009 
L 291.034925 290.470181 
L 291.034925 290.470181 
L 291.211655 291.285025 
L 291.211655 291.285025 
L 291.388386 290.668225 
L 291.388386 290.668225 
L 291.565117 288.35803 
L 291.565117 288.35803 
L 291.741848 288.463277 
L 291.741848 288.463277 
L 291.918579 284.732492 
L 291.918579 284.732492 
L 292.09531 285.801885 
L 292.09531 285.801885 
L 292.27204 284.877605 
L 292.27204 284.877605 
L 292.448771 281.944133 
L 292.448771 281.944133 
L 292.625502 281.874061 
L 292.625502 281.874061 
L 292.802233 277.127261 
L 292.802233 277.127261 
L 292.978964 278.500448 
L 292.978964 278.500448 
L 293.155695 276.875003 
L 293.155695 276.875003 
L 293.332425 273.848678 
L 293.332425 273.848678 
L 293.509156 273.691505 
L 293.509156 273.691505 
L 293.685887 267.849852 
L 293.685887 267.849852 
L 293.862618 269.622365 
L 293.862618 269.622365 
L 294.039349 267.848512 
L 294.039349 267.848512 
L 294.21608 264.072223 
L 294.21608 264.072223 
L 294.39281 264.144584 
L 294.39281 264.144584 
L 294.569541 257.072458 
L 294.569541 257.072458 
L 294.746272 259.392201 
L 294.746272 259.392201 
L 294.923003 257.263969 
L 294.923003 257.263969 
L 295.099734 252.871828 
L 295.099734 252.871828 
L 295.276465 252.928779 
L 295.276465 252.928779 
L 295.453195 244.736563 
L 295.453195 244.736563 
L 295.629926 247.347258 
L 295.629926 247.347258 
L 296.160119 239.233601 
L 296.160119 239.233601 
L 296.33685 231.789173 
L 296.33685 231.789173 
L 296.51358 232.908146 
L 296.51358 232.908146 
L 296.690311 223.789362 
L 296.690311 223.789362 
L 296.867042 227.066717 
L 296.867042 227.066717 
L 297.397235 216.903666 
L 297.397235 216.903666 
L 297.573965 211.199589 
L 297.573965 211.199589 
L 297.750696 210.840296 
L 297.750696 210.840296 
L 297.927427 203.905243 
L 297.927427 203.905243 
L 298.104158 204.488208 
L 298.104158 204.488208 
L 298.280889 196.809778 
L 298.280889 196.809778 
L 298.45762 198.349741 
L 298.45762 198.349741 
L 298.63435 190.788954 
L 298.63435 190.788954 
L 298.811081 192.552142 
L 298.811081 192.552142 
L 298.987812 185.483031 
L 298.987812 185.483031 
L 299.164543 186.529643 
L 299.164543 186.529643 
L 299.341274 180.875482 
L 299.341274 180.875482 
L 299.518005 182.001043 
L 299.518005 182.001043 
L 299.694735 176.812707 
L 299.694735 176.812707 
L 299.871466 177.627942 
L 299.871466 177.627942 
L 300.048197 173.039935 
L 300.048197 173.039935 
L 300.224928 173.449702 
L 300.224928 173.449702 
L 300.401659 169.609259 
L 300.401659 169.609259 
L 300.57839 169.518194 
L 300.57839 169.518194 
L 300.755121 166.077188 
L 300.755121 166.077188 
L 300.931851 165.479818 
L 300.931851 165.479818 
L 301.108582 162.572476 
L 301.108582 162.572476 
L 301.285313 156.255507 
L 301.285313 156.255507 
L 301.462044 158.203841 
L 301.462044 158.203841 
L 301.638775 152.049574 
L 301.638775 152.049574 
L 301.815506 152.946773 
L 301.815506 152.946773 
L 301.992236 147.433984 
L 301.992236 147.433984 
L 302.168967 146.283856 
L 302.168967 146.283856 
L 302.69916 135.699257 
L 302.69916 135.699257 
L 302.875891 143.913471 
L 302.875891 143.913471 
L 303.052621 144.587557 
L 303.052621 144.587557 
L 303.229352 152.23405 
L 303.229352 152.23405 
L 303.406083 168.131942 
L 303.406083 168.131942 
L 303.582814 164.942582 
L 303.582814 164.942582 
L 303.759545 176.658605 
L 303.759545 176.658605 
L 303.936276 177.39891 
L 303.936276 177.39891 
L 304.113006 183.770206 
L 304.113006 183.770206 
L 304.289737 194.626941 
L 304.289737 194.626941 
L 304.466468 192.272804 
L 304.466468 192.272804 
L 304.643199 200.680763 
L 304.643199 200.680763 
L 304.81993 200.430346 
L 304.81993 200.430346 
L 304.996661 206.066305 
L 304.996661 206.066305 
L 305.173391 207.766457 
L 305.173391 207.766457 
L 305.350122 211.304278 
L 305.350122 211.304278 
L 305.526853 219.596549 
L 305.526853 219.596549 
L 305.703584 217.341964 
L 305.703584 217.341964 
L 305.880315 224.314091 
L 305.880315 224.314091 
L 306.057046 222.752688 
L 306.057046 222.752688 
L 306.233776 228.129577 
L 306.233776 228.129577 
L 306.410507 227.645271 
L 306.410507 227.645271 
L 306.587238 232.159521 
L 306.587238 232.159521 
L 306.763969 232.072141 
L 306.763969 232.072141 
L 306.9407 235.999406 
L 306.9407 235.999406 
L 307.117431 235.877743 
L 307.117431 235.877743 
L 307.294161 239.584798 
L 307.294161 239.584798 
L 307.470892 239.48385 
L 307.470892 239.48385 
L 307.647623 243.135015 
L 307.647623 243.135015 
L 307.824354 243.120164 
L 307.824354 243.120164 
L 308.001085 246.54922 
L 308.177816 246.379987 
L 308.177816 246.379987 
L 308.354546 248.794425 
L 308.354546 248.794425 
L 308.531277 248.684878 
L 308.531277 248.684878 
L 308.708008 251.012941 
L 308.708008 251.012941 
L 308.884739 251.074581 
L 308.884739 251.074581 
L 309.06147 253.194606 
L 309.06147 253.194606 
L 309.238201 252.709295 
L 309.238201 252.709295 
L 309.768393 255.574147 
L 309.768393 255.574147 
L 309.945124 256.997137 
L 309.945124 256.997137 
L 310.121855 257.262126 
L 310.121855 257.262126 
L 310.298586 257.911981 
L 310.298586 257.911981 
L 310.475316 258.004777 
L 310.475316 258.004777 
L 310.652047 259.265904 
L 310.652047 259.265904 
L 311.005509 259.949426 
L 311.005509 259.949426 
L 311.18224 260.326754 
L 311.18224 260.326754 
L 311.358971 259.907662 
L 311.358971 259.907662 
L 311.535701 260.707766 
L 311.535701 260.707766 
L 311.889163 260.957345 
L 311.889163 260.957345 
L 312.242625 261.435062 
L 312.242625 261.435062 
L 312.596087 261.237744 
L 312.596087 261.237744 
L 312.772817 261.665992 
L 312.772817 261.665992 
L 312.949548 261.565435 
L 312.949548 261.565435 
L 313.30301 261.704853 
L 313.30301 261.704853 
L 313.479741 261.293467 
L 313.479741 261.293467 
L 313.656472 261.457787 
L 313.656472 261.457787 
L 313.833202 261.310384 
L 313.833202 261.310384 
L 314.009933 261.649242 
L 314.009933 261.649242 
L 314.186664 260.376167 
L 314.186664 260.376167 
L 314.363395 261.464654 
L 314.363395 261.464654 
L 314.540126 260.712847 
L 314.540126 260.712847 
L 314.716857 260.990622 
L 314.716857 260.990622 
L 314.893587 260.722841 
L 314.893587 260.722841 
L 315.070318 260.022513 
L 315.070318 260.022513 
L 315.247049 260.453609 
L 315.247049 260.453609 
L 315.42378 258.357314 
L 315.42378 258.357314 
L 315.600511 259.635247 
L 315.600511 259.635247 
L 315.953972 257.952795 
L 315.953972 257.952795 
L 316.130703 257.724713 
L 316.130703 257.724713 
L 316.307434 255.292296 
L 316.307434 255.292296 
L 316.484165 255.630484 
L 316.484165 255.630484 
L 316.660896 253.176348 
L 316.660896 253.176348 
L 316.837627 254.320335 
L 316.837627 254.320335 
L 317.367819 250.998089 
L 317.367819 250.998089 
L 317.54455 248.128323 
L 317.54455 248.128323 
L 317.721281 248.036252 
L 317.721281 248.036252 
L 317.898012 244.938404 
L 317.898012 244.938404 
L 318.074742 245.57631 
L 318.074742 245.57631 
L 318.251473 240.297801 
L 318.251473 240.297801 
L 318.428204 242.010626 
L 318.428204 242.010626 
L 318.958397 237.273375 
L 318.958397 237.273375 
L 319.135127 233.986137 
L 319.135127 233.986137 
L 319.311858 233.269281 
L 319.311858 233.269281 
L 319.488589 229.178645 
L 319.488589 229.178645 
L 319.66532 229.463344 
L 319.66532 229.463344 
L 319.842051 224.860708 
L 319.842051 224.860708 
L 320.018782 225.851318 
L 320.018782 225.851318 
L 320.195512 219.687112 
L 320.195512 219.687112 
L 320.372243 221.679276 
L 320.372243 221.679276 
L 320.548974 214.835847 
L 320.548974 214.835847 
L 320.725705 217.341629 
L 320.725705 217.341629 
L 323.199937 183.37529 
L 323.199937 183.37529 
L 323.376667 175.132266 
L 323.376667 175.132266 
L 323.553398 177.262172 
L 323.553398 177.262172 
L 323.730129 170.306851 
L 323.730129 170.306851 
L 323.90686 171.947651 
L 324.083591 165.060838 
L 324.083591 165.060838 
L 324.260322 165.719403 
L 324.260322 165.719403 
L 324.437053 159.908627 
L 324.437053 159.908627 
L 324.613783 159.787299 
L 324.790514 154.427273 
L 324.790514 154.427273 
L 324.967245 152.907466 
L 324.967245 152.907466 
L 325.143976 148.790253 
L 325.143976 148.790253 
L 325.320707 138.864609 
L 325.320707 138.864609 
L 325.497438 141.480441 
L 325.497438 141.480441 
L 325.674168 133.319771 
L 325.674168 133.319771 
L 325.850899 133.439089 
L 325.850899 133.439089 
L 326.204361 124.306681 
L 326.204361 124.306681 
L 326.557823 113.240344 
L 326.557823 113.240344 
L 326.734553 113.537438 
L 326.734553 113.537438 
L 326.911284 114.436648 
L 326.911284 114.436648 
L 327.088015 124.839451 
L 327.088015 124.839451 
L 327.264746 123.86788 
L 327.264746 123.86788 
L 327.441477 131.194945 
L 327.441477 131.194945 
L 327.618208 133.407989 
L 327.618208 133.407989 
L 327.794938 138.366624 
L 327.794938 138.366624 
L 327.971669 146.514954 
L 327.971669 146.514954 
L 328.1484 147.907793 
L 328.1484 147.907793 
L 329.032054 171.897623 
L 329.032054 171.897623 
L 329.208785 170.822201 
L 329.208785 170.822201 
L 329.385516 175.700602 
L 329.385516 175.700602 
L 329.562247 176.733813 
L 329.562247 176.733813 
L 329.738978 180.046344 
L 329.738978 180.046344 
L 329.915708 185.914685 
L 329.915708 185.914685 
L 330.092439 185.516197 
L 330.092439 185.516197 
L 330.26917 189.597955 
L 330.26917 189.597955 
L 330.445901 190.265118 
L 330.445901 190.265118 
L 331.152824 200.196848 
L 331.152824 200.196848 
L 331.329555 199.854305 
L 331.329555 199.854305 
L 331.506286 202.509556 
L 331.683017 202.843779 
L 331.683017 202.843779 
L 332.036478 205.323934 
L 332.036478 205.323934 
L 332.743402 209.174036 
L 332.743402 209.174036 
L 332.920133 209.008321 
L 332.920133 209.008321 
L 333.096863 209.6455 
L 333.096863 209.6455 
L 333.450325 209.978663 
L 333.450325 209.978663 
L 333.627056 210.179387 
L 333.627056 210.179387 
L 333.803787 210.12238 
L 333.803787 210.12238 
L 333.980518 210.33991 
L 333.980518 210.33991 
L 334.157248 210.166154 
L 334.157248 210.166154 
L 334.333979 210.378157 
L 334.333979 210.378157 
L 334.51071 210.187539 
L 334.51071 210.187539 
L 334.687441 210.40049 
L 334.864172 210.197477 
L 334.864172 210.197477 
L 335.040903 210.678768 
L 335.040903 210.678768 
L 335.394364 209.758788 
L 335.394364 209.758788 
L 335.571095 209.838463 
L 335.571095 209.838463 
L 335.747826 208.859299 
L 335.747826 208.859299 
L 335.924557 209.27465 
L 335.924557 209.27465 
L 336.101288 207.922457 
L 336.101288 207.922457 
L 336.278019 208.318992 
L 336.278019 208.318992 
L 336.454749 206.568478 
L 336.454749 206.568478 
L 336.63148 206.893991 
L 336.63148 206.893991 
L 336.808211 204.807914 
L 336.808211 204.807914 
L 336.984942 204.906071 
L 336.984942 204.906071 
L 337.161673 202.497998 
L 337.161673 202.497998 
L 337.338404 202.247079 
L 337.338404 202.247079 
L 337.515134 199.441411 
L 337.515134 199.441411 
L 337.691865 198.818134 
L 337.691865 198.818134 
L 338.222058 191.22072 
L 338.222058 191.22072 
L 338.398789 183.076187 
L 338.398789 183.076187 
L 338.575519 185.257126 
L 338.575519 185.257126 
L 338.75225 176.625774 
L 338.75225 176.625774 
L 338.928981 178.309063 
L 338.928981 178.309063 
L 339.105712 168.836011 
L 339.105712 168.836011 
L 339.282443 169.475257 
L 339.282443 169.475257 
L 339.459174 159.476358 
L 339.459174 159.476358 
L 339.635904 158.906906 
L 339.635904 158.906906 
L 339.812635 154.345029 
L 339.812635 154.345029 
L 339.989366 155.497335 
L 339.989366 155.497335 
L 340.166097 161.016321 
L 340.166097 161.016321 
L 340.342828 171.356311 
L 340.342828 171.356311 
L 340.519559 170.586916 
L 340.519559 170.586916 
L 340.696289 177.431238 
L 340.696289 177.431238 
L 340.87302 177.682157 
L 340.87302 177.682157 
L 341.049751 181.472796 
L 341.049751 181.472796 
L 341.226482 182.412597 
L 341.226482 182.412597 
L 341.579944 186.545388 
L 341.579944 186.545388 
L 341.756674 186.938349 
L 341.756674 186.938349 
L 341.933405 187.839234 
L 341.933405 187.839234 
L 342.110136 187.710648 
L 342.110136 187.710648 
L 342.463598 188.449613 
L 342.463598 188.449613 
L 342.817059 188.138784 
L 342.817059 188.138784 
L 342.99379 188.356538 
L 343.170521 188.192944 
L 343.170521 188.192944 
L 343.347252 188.379653 
L 343.347252 188.379653 
L 343.877444 187.086589 
L 343.877444 187.086589 
L 344.054175 184.81196 
L 344.054175 184.81196 
L 344.230906 185.42809 
L 344.230906 185.42809 
L 344.407637 182.15576 
L 344.407637 182.15576 
L 344.584368 182.231695 
L 344.584368 182.231695 
L 345.11456 174.654046 
L 345.11456 174.654046 
L 345.291291 165.354359 
L 345.291291 165.354359 
L 345.468022 167.646464 
L 345.468022 167.646464 
L 345.644753 158.595742 
L 345.644753 158.595742 
L 345.821484 158.745042 
L 345.821484 158.745042 
L 345.998214 150.692077 
L 345.998214 150.692077 
L 346.174945 149.66819 
L 346.174945 149.66819 
L 346.351676 146.493737 
L 346.351676 146.493737 
L 346.528407 158.183406 
L 346.528407 158.183406 
L 346.705138 156.167848 
L 346.705138 156.167848 
L 346.881869 165.36145 
L 346.881869 165.36145 
L 347.058599 165.99768 
L 347.058599 165.99768 
L 347.412061 176.587919 
L 347.412061 176.587919 
L 347.588792 176.01908 
L 347.588792 176.01908 
L 347.765523 180.088555 
L 347.765523 180.088555 
L 347.942254 180.767275 
L 347.942254 180.767275 
L 348.472446 184.605597 
L 348.472446 184.605597 
L 348.649177 185.527475 
L 348.649177 185.527475 
L 349.002639 186.070239 
L 349.002639 186.070239 
L 349.3561 186.441592 
L 349.3561 186.441592 
L 349.532831 185.920883 
L 349.532831 185.920883 
L 349.709562 186.576432 
L 349.709562 186.576432 
L 349.886293 186.391398 
L 349.886293 186.391398 
L 350.063024 186.62551 
L 350.063024 186.62551 
L 350.416485 186.2383 
L 350.416485 186.2383 
L 350.593216 186.449744 
L 350.769947 185.599948 
L 350.769947 185.599948 
L 350.946678 186.321046 
L 350.946678 186.321046 
L 351.30014 185.575102 
L 351.30014 185.575102 
L 351.47687 185.380408 
L 351.47687 185.380408 
L 351.653601 185.461758 
L 351.653601 185.461758 
L 351.830332 184.876281 
L 351.830332 184.876281 
L 352.007063 183.181322 
L 352.183794 184.144909 
L 352.183794 184.144909 
L 352.360525 182.905446 
L 352.360525 182.905446 
L 352.537255 183.2658 
L 352.537255 183.2658 
L 352.713986 182.164973 
L 352.713986 182.164973 
L 352.890717 182.288143 
L 352.890717 182.288143 
L 353.244179 180.808816 
L 353.244179 180.808816 
L 353.42091 180.468004 
L 353.42091 180.468004 
L 353.59764 178.329275 
L 353.59764 178.329275 
L 353.774371 179.291354 
L 353.774371 179.291354 
L 353.951102 177.344025 
L 354.127833 177.57624 
L 354.127833 177.57624 
L 354.304564 176.706231 
L 354.304564 176.706231 
L 354.481295 176.542191 
L 354.658025 175.537845 
L 354.658025 175.537845 
L 354.834756 172.703534 
L 354.834756 172.703534 
L 355.011487 173.918486 
L 355.011487 173.918486 
L 355.188218 171.775626 
L 355.188218 171.775626 
L 355.364949 172.069537 
L 355.364949 172.069537 
L 355.71841 169.525787 
L 355.71841 169.525787 
L 355.895141 168.589783 
L 355.895141 168.589783 
L 356.071872 165.400422 
L 356.071872 165.400422 
L 356.248603 166.346421 
L 356.248603 166.346421 
L 356.425334 163.099048 
L 356.425334 163.099048 
L 356.602065 163.218198 
L 356.602065 163.218198 
L 357.132257 159.522254 
L 357.132257 159.522254 
L 357.308988 155.945348 
L 357.308988 155.945348 
L 357.485719 156.510055 
L 357.485719 156.510055 
L 357.66245 153.894 
L 357.66245 153.894 
L 357.83918 153.257435 
L 357.83918 153.257435 
L 358.015911 151.890837 
L 358.015911 151.890837 
L 358.192642 147.958044 
L 358.192642 147.958044 
L 358.369373 148.689975 
L 358.369373 148.689975 
L 358.546104 145.953541 
L 358.546104 145.953541 
L 358.722835 145.314574 
L 358.722835 145.314574 
L 358.899565 144.025307 
L 359.076296 140.306527 
L 359.253027 140.842702 
L 359.253027 140.842702 
L 359.606489 138.15758 
L 359.606489 138.15758 
L 359.78322 137.100974 
L 359.78322 137.100974 
L 359.959951 134.564874 
L 359.959951 134.564874 
L 360.136681 134.289499 
L 360.136681 134.289499 
L 360.313412 132.835912 
L 360.313412 132.835912 
L 360.490143 130.446041 
L 360.490143 130.446041 
L 360.666874 130.986125 
L 360.666874 130.986125 
L 360.843605 129.486642 
L 360.843605 129.486642 
L 361.020336 129.268777 
L 361.020336 129.268777 
L 361.197066 128.732657 
L 361.197066 128.732657 
L 361.373797 126.879632 
L 361.373797 126.879632 
L 361.550528 126.948922 
L 361.550528 126.948922 
L 361.90399 124.800925 
L 362.080721 125.01142 
L 362.257451 124.267039 
L 362.257451 124.267039 
L 362.434182 122.855718 
L 362.434182 122.855718 
L 362.610913 123.145218 
L 362.610913 123.145218 
L 362.787644 122.74204 
L 362.787644 122.74204 
L 362.964375 120.589855 
L 362.964375 120.589855 
L 363.141106 120.946747 
L 363.141106 120.946747 
L 363.317836 119.865071 
L 363.317836 119.865071 
L 363.494567 117.603619 
L 363.494567 117.603619 
L 363.671298 118.025837 
L 363.671298 118.025837 
L 363.848029 116.809489 
L 363.848029 116.809489 
L 364.02476 113.587689 
L 364.02476 113.587689 
L 364.201491 114.062894 
L 364.201491 114.062894 
L 364.378221 112.06403 
L 364.554952 108.314261 
L 364.554952 108.314261 
L 364.731683 108.780365 
L 364.731683 108.780365 
L 364.908414 106.21417 
L 364.908414 106.21417 
L 365.085145 101.597911 
L 365.085145 101.597911 
L 365.261876 101.94157 
L 365.261876 101.94157 
L 365.438606 99.056115 
L 365.438606 99.056115 
L 365.615337 93.183587 
L 365.615337 93.183587 
L 365.792068 93.134452 
L 365.792068 93.134452 
L 366.498991 78.781883 
L 366.498991 78.781883 
L 366.852453 63.667903 
L 366.852453 63.667903 
L 367.029184 65.508588 
L 367.029184 65.508588 
L 367.382646 53.568 
L 367.382646 53.568 
L 396.013041 53.572188 
L 396.013041 53.572188 
L 396.189772 53.708814 
L 396.189772 53.708814 
L 396.543234 53.568 
L 396.543234 53.568 
L 396.896695 53.568 
L 396.896695 53.568 
L 397.250157 53.970844 
L 397.250157 53.970844 
L 397.426888 54.049514 
L 397.426888 54.049514 
L 397.603619 53.568 
L 397.603619 53.568 
L 398.487273 53.568 
L 398.487273 53.568 
" clip-path="url(#pbee1e84ce4)" style="fill: none; stroke: #ff7f0e; stroke-width: 1.5; stroke-linecap: square"/>
   </g>
   <g id="patch_3">
    <path d="M 57.6 307.584 
L 57.6 41.472 
" style="fill: none; stroke: #000000; stroke-width: 0.8; stroke-linejoin: miter; stroke-linecap: square"/>
   </g>
   <g id="patch_4">
    <path d="M 414.72 307.584 
L 414.72 41.472 
" style="fill: none; stroke: #000000; stroke-width: 0.8; stroke-linejoin: miter; stroke-linecap: square"/>
   </g>
   <g id="patch_5">
    <path d="M 57.6 307.584 
L 414.72 307.584 
" style="fill: none; stroke: #000000; stroke-width: 0.8; stroke-linejoin: miter; stroke-linecap: square"/>
   </g>
   <g id="patch_6">
    <path d="M 57.6 41.472 
L 414.72 41.472 
" style="fill: none; stroke: #000000; stroke-width: 0.8; stroke-linejoin: miter; stroke-linecap: square"/>
   </g>
   <g id="text_16">
    <!-- Actual speed vs Expected speed -->
    <g transform="translate(138.808125 35.472) scale(0.12 -0.12)">
     <defs>
      <path id="DejaVuSans-41" d="M 2188 4044 
L 1331 1722 
L 3047 1722 
L 2188 4044 
z
M 1831 4666 
L 2547 4666 
L 4325 0 
L 3669 0 
L 3244 1197 
L 1141 1197 
L 716 0 
L 50 0 
L 1831 4666 
z
" transform="scale(0.015625)"/>
      <path id="DejaVuSans-75" d="M 544 1381 
L 544 3500 
L 1119 3500 
L 1119 1403 
Q 1119 906 1312 657 
Q 1506 409 1894 409 
Q 2359 409 2629 706 
Q 2900 1003 2900 1516 
L 2900 3500 
L 3475 3500 
L 3475 0 
L 2900 0 
L 2900 538 
Q 2691 219 2414 64 
Q 2138 -91 1772 -91 
Q 1169 -91 856 284 
Q 544 659 544 1381 
z
M 1991 3584 
L 1991 3584 
z
" transform="scale(0.015625)"/>
      <path id="DejaVuSans-61" d="M 2194 1759 
Q 1497 1759 1228 1600 
Q 959 1441 959 1056 
Q 959 750 1161 570 
Q 1363 391 1709 391 
Q 2188 391 2477 730 
Q 2766 1069 2766 1631 
L 2766 1759 
L 2194 1759 
z
M 3341 1997 
L 3341 0 
L 2766 0 
L 2766 531 
Q 2569 213 2275 61 
Q 1981 -91 1556 -91 
Q 1019 -91 701 211 
Q 384 513 384 1019 
Q 384 1609 779 1909 
Q 1175 2209 1959 2209 
L 2766 2209 
L 2766 2266 
Q 2766 2663 2505 2880 
Q 2244 3097 1772 3097 
Q 1472 3097 1187 3025 
Q 903 2953 641 2809 
L 641 3341 
Q 956 3463 1253 3523 
Q 1550 3584 1831 3584 
Q 2591 3584 2966 3190 
Q 3341 2797 3341 1997 
z
" transform="scale(0.015625)"/>
      <path id="DejaVuSans-20" transform="scale(0.015625)"/>
      <path id="DejaVuSans-70" d="M 1159 525 
L 1159 -1331 
L 581 -1331 
L 581 3500 
L 1159 3500 
L 1159 2969 
Q 1341 3281 1617 3432 
Q 1894 3584 2278 3584 
Q 2916 3584 3314 3078 
Q 3713 2572 3713 1747 
Q 3713 922 3314 415 
Q 2916 -91 2278 -91 
Q 1894 -91 1617 61 
Q 1341 213 1159 525 
z
M 3116 1747 
Q 3116 2381 2855 2742 
Q 2594 3103 2138 3103 
Q 1681 3103 1420 2742 
Q 1159 2381 1159 1747 
Q 1159 1113 1420 752 
Q 1681 391 2138 391 
Q 2594 391 2855 752 
Q 3116 1113 3116 1747 
z
" transform="scale(0.015625)"/>
      <path id="DejaVuSans-64" d="M 2906 2969 
L 2906 4863 
L 3481 4863 
L 3481 0 
L 2906 0 
L 2906 525 
Q 2725 213 2448 61 
Q 2172 -91 1784 -91 
Q 1150 -91 751 415 
Q 353 922 353 1747 
Q 353 2572 751 3078 
Q 1150 3584 1784 3584 
Q 2172 3584 2448 3432 
Q 2725 3281 2906 2969 
z
M 947 1747 
Q 947 1113 1208 752 
Q 1469 391 1925 391 
Q 2381 391 2643 752 
Q 2906 1113 2906 1747 
Q 2906 2381 2643 2742 
Q 2381 3103 1925 3103 
Q 1469 3103 1208 2742 
Q 947 2381 947 1747 
z
" transform="scale(0.015625)"/>
      <path id="DejaVuSans-76" d="M 191 3500 
L 800 3500 
L 1894 563 
L 2988 3500 
L 3597 3500 
L 2284 0 
L 1503 0 
L 191 3500 
z
" transform="scale(0.015625)"/>
      <path id="DejaVuSans-45" d="M 628 4666 
L 3578 4666 
L 3578 4134 
L 1259 4134 
L 1259 2753 
L 3481 2753 
L 3481 2222 
L 1259 2222 
L 1259 531 
L 3634 531 
L 3634 0 
L 628 0 
L 628 4666 
z
" transform="scale(0.015625)"/>
      <path id="DejaVuSans-78" d="M 3513 3500 
L 2247 1797 
L 3578 0 
L 2900 0 
L 1881 1375 
L 863 0 
L 184 0 
L 1544 1831 
L 300 3500 
L 978 3500 
L 1906 2253 
L 2834 3500 
L 3513 3500 
z
" transform="scale(0.015625)"/>
     </defs>
     <use xlink:href="#DejaVuSans-41"/>
     <use xlink:href="#DejaVuSans-63" x="66.658203"/>
     <use xlink:href="#DejaVuSans-74" x="121.638672"/>
     <use xlink:href="#DejaVuSans-75" x="160.847656"/>
     <use xlink:href="#DejaVuSans-61" x="224.226562"/>
     <use xlink:href="#DejaVuSans-6c" x="285.505859"/>
     <use xlink:href="#DejaVuSans-20" x="313.289062"/>
     <use xlink:href="#DejaVuSans-73" x="345.076172"/>
     <use xlink:href="#DejaVuSans-70" x="397.175781"/>
     <use xlink:href="#DejaVuSans-65" x="460.652344"/>
     <use xlink:href="#DejaVuSans-65" x="522.175781"/>
     <use xlink:href="#DejaVuSans-64" x="583.699219"/>
     <use xlink:href="#DejaVuSans-20" x="647.175781"/>
     <use xlink:href="#DejaVuSans-76" x="678.962891"/>
     <use xlink:href="#DejaVuSans-73" x="738.142578"/>
     <use xlink:href="#DejaVuSans-20" x="790.242188"/>
     <use xlink:href="#DejaVuSans-45" x="822.029297"/>
     <use xlink:href="#DejaVuSans-78" x="885.212891"/>
     <use xlink:href="#DejaVuSans-70" x="944.392578"/>
     <use xlink:href="#DejaVuSans-65" x="1007.869141"/>
     <use xlink:href="#DejaVuSans-63" x="1069.392578"/>
     <use xlink:href="#DejaVuSans-74" x="1124.373047"/>
     <use xlink:href="#DejaVuSans-65" x="1163.582031"/>
     <use xlink:href="#DejaVuSans-64" x="1225.105469"/>
     <use xlink:href="#DejaVuSans-20" x="1288.582031"/>
     <use xlink:href="#DejaVuSans-73" x="1320.369141"/>
     <use xlink:href="#DejaVuSans-70" x="1372.46875"/>
     <use xlink:href="#DejaVuSans-65" x="1435.945312"/>
     <use xlink:href="#DejaVuSans-65" x="1497.46875"/>
     <use xlink:href="#DejaVuSans-64" x="1558.992188"/>
    </g>
   </g>
   <g id="legend_1">
    <g id="patch_7">
     <path d="M 64.6 302.584 
L 176.65 302.584 
Q 178.65 302.584 178.65 300.584 
L 178.65 272.22775 
Q 178.65 270.22775 176.65 270.22775 
L 64.6 270.22775 
Q 62.6 270.22775 62.6 272.22775 
L 62.6 300.584 
Q 62.6 302.584 64.6 302.584 
z
" style="fill: #ffffff; opacity: 0.8; stroke: #cccccc; stroke-linejoin: miter"/>
    </g>
    <g id="line2d_29">
     <path d="M 66.6 278.326187 
L 76.6 278.326187 
L 86.6 278.326187 
" style="fill: none; stroke: #1f77b4; stroke-width: 1.5; stroke-linecap: square"/>
    </g>
    <g id="text_17">
     <!-- Actual speed -->
     <g transform="translate(94.6 281.826187) scale(0.1 -0.1)">
      <use xlink:href="#DejaVuSans-41"/>
      <use xlink:href="#DejaVuSans-63" x="66.658203"/>
      <use xlink:href="#DejaVuSans-74" x="121.638672"/>
      <use xlink:href="#DejaVuSans-75" x="160.847656"/>
      <use xlink:href="#DejaVuSans-61" x="224.226562"/>
      <use xlink:href="#DejaVuSans-6c" x="285.505859"/>
      <use xlink:href="#DejaVuSans-20" x="313.289062"/>
      <use xlink:href="#DejaVuSans-73" x="345.076172"/>
      <use xlink:href="#DejaVuSans-70" x="397.175781"/>
      <use xlink:href="#DejaVuSans-65" x="460.652344"/>
      <use xlink:href="#DejaVuSans-65" x="522.175781"/>
      <use xlink:href="#DejaVuSans-64" x="583.699219"/>
     </g>
    </g>
    <g id="line2d_30">
     <path d="M 66.6 293.004312 
L 76.6 293.004312 
L 86.6 293.004312 
" style="fill: none; stroke: #ff7f0e; stroke-width: 1.5; stroke-linecap: square"/>
    </g>
    <g id="text_18">
     <!-- Expected speed -->
     <g transform="translate(94.6 296.504312) scale(0.1 -0.1)">
      <use xlink:href="#DejaVuSans-45"/>
      <use xlink:href="#DejaVuSans-78" x="63.183594"/>
      <use xlink:href="#DejaVuSans-70" x="122.363281"/>
      <use xlink:href="#DejaVuSans-65" x="185.839844"/>
      <use xlink:href="#DejaVuSans-63" x="247.363281"/>
      <use xlink:href="#DejaVuSans-74" x="302.34375"/>
      <use xlink:href="#DejaVuSans-65" x="341.552734"/>
      <use xlink:href="#DejaVuSans-64" x="403.076172"/>
      <use xlink:href="#DejaVuSans-20" x="466.552734"/>
      <use xlink:href="#DejaVuSans-73" x="498.339844"/>
      <use xlink:href="#DejaVuSans-70" x="550.439453"/>
      <use xlink:href="#DejaVuSans-65" x="613.916016"/>
      <use xlink:href="#DejaVuSans-65" x="675.439453"/>
      <use xlink:href="#DejaVuSans-64" x="736.962891"/>
     </g>
    </g>
   </g>
  </g>
 </g>
 <defs>
  <clipPath id="pbee1e84ce4">
   <rect x="57.6" y="41.472" width="357.12" height="266.112"/>
  </clipPath>
 </defs>
</svg>
