<?xml version="1.0" encoding="utf-8" standalone="no"?>
<!DOCTYPE svg PUBLIC "-//W3C//DTD SVG 1.1//EN"
  "http://www.w3.org/Graphics/SVG/1.1/DTD/svg11.dtd">
<svg xmlns:xlink="http://www.w3.org/1999/xlink" width="460.8pt" height="345.6pt" viewBox="0 0 460.8 345.6" xmlns="http://www.w3.org/2000/svg" version="1.1">
 <metadata>
  <rdf:RDF xmlns:dc="http://purl.org/dc/elements/1.1/" xmlns:cc="http://creativecommons.org/ns#" xmlns:rdf="http://www.w3.org/1999/02/22-rdf-syntax-ns#">
   <cc:Work>
    <dc:type rdf:resource="http://purl.org/dc/dcmitype/StillImage"/>
    <dc:date>2024-01-30T20:59:02.915027</dc:date>
    <dc:format>image/svg+xml</dc:format>
    <dc:creator>
     <cc:Agent>
      <dc:title>Matplotlib v3.7.1, https://matplotlib.org/</dc:title>
     </cc:Agent>
    </dc:creator>
   </cc:Work>
  </rdf:RDF>
 </metadata>
 <defs>
  <style type="text/css">*{stroke-linejoin: round; stroke-linecap: butt}</style>
 </defs>
 <g id="figure_1">
  <g id="patch_1">
   <path d="M 0 345.6 
L 460.8 345.6 
L 460.8 0 
L 0 0 
z
" style="fill: #ffffff"/>
  </g>
  <g id="axes_1">
   <g id="patch_2">
    <path d="M 57.6 307.584 
L 414.72 307.584 
L 414.72 41.472 
L 57.6 41.472 
z
" style="fill: #ffffff"/>
   </g>
   <g id="matplotlib.axis_1">
    <g id="xtick_1">
     <g id="line2d_1">
      <path d="M 73.832727 307.584 
L 73.832727 41.472 
" clip-path="url(#p2d1cbe2054)" style="fill: none; stroke: #b0b0b0; stroke-width: 0.8; stroke-linecap: square"/>
     </g>
     <g id="line2d_2">
      <defs>
       <path id="m15acd97521" d="M 0 0 
L 0 3.5 
" style="stroke: #000000; stroke-width: 0.8"/>
      </defs>
      <g>
       <use xlink:href="#m15acd97521" x="73.832727" y="307.584" style="stroke: #000000; stroke-width: 0.8"/>
      </g>
     </g>
     <g id="text_1">
      <!-- 0 -->
      <g transform="translate(70.651477 322.182437) scale(0.1 -0.1)">
       <defs>
        <path id="DejaVuSans-30" d="M 2034 4250 
Q 1547 4250 1301 3770 
Q 1056 3291 1056 2328 
Q 1056 1369 1301 889 
Q 1547 409 2034 409 
Q 2525 409 2770 889 
Q 3016 1369 3016 2328 
Q 3016 3291 2770 3770 
Q 2525 4250 2034 4250 
z
M 2034 4750 
Q 2819 4750 3233 4129 
Q 3647 3509 3647 2328 
Q 3647 1150 3233 529 
Q 2819 -91 2034 -91 
Q 1250 -91 836 529 
Q 422 1150 422 2328 
Q 422 3509 836 4129 
Q 1250 4750 2034 4750 
z
" transform="scale(0.015625)"/>
       </defs>
       <use xlink:href="#DejaVuSans-30"/>
      </g>
     </g>
    </g>
    <g id="xtick_2">
     <g id="line2d_3">
      <path d="M 118.015436 307.584 
L 118.015436 41.472 
" clip-path="url(#p2d1cbe2054)" style="fill: none; stroke: #b0b0b0; stroke-width: 0.8; stroke-linecap: square"/>
     </g>
     <g id="line2d_4">
      <g>
       <use xlink:href="#m15acd97521" x="118.015436" y="307.584" style="stroke: #000000; stroke-width: 0.8"/>
      </g>
     </g>
     <g id="text_2">
      <!-- 5 -->
      <g transform="translate(114.834186 322.182437) scale(0.1 -0.1)">
       <defs>
        <path id="DejaVuSans-35" d="M 691 4666 
L 3169 4666 
L 3169 4134 
L 1269 4134 
L 1269 2991 
Q 1406 3038 1543 3061 
Q 1681 3084 1819 3084 
Q 2600 3084 3056 2656 
Q 3513 2228 3513 1497 
Q 3513 744 3044 326 
Q 2575 -91 1722 -91 
Q 1428 -91 1123 -41 
Q 819 9 494 109 
L 494 744 
Q 775 591 1075 516 
Q 1375 441 1709 441 
Q 2250 441 2565 725 
Q 2881 1009 2881 1497 
Q 2881 1984 2565 2268 
Q 2250 2553 1709 2553 
Q 1456 2553 1204 2497 
Q 953 2441 691 2322 
L 691 4666 
z
" transform="scale(0.015625)"/>
       </defs>
       <use xlink:href="#DejaVuSans-35"/>
      </g>
     </g>
    </g>
    <g id="xtick_3">
     <g id="line2d_5">
      <path d="M 162.198145 307.584 
L 162.198145 41.472 
" clip-path="url(#p2d1cbe2054)" style="fill: none; stroke: #b0b0b0; stroke-width: 0.8; stroke-linecap: square"/>
     </g>
     <g id="line2d_6">
      <g>
       <use xlink:href="#m15acd97521" x="162.198145" y="307.584" style="stroke: #000000; stroke-width: 0.8"/>
      </g>
     </g>
     <g id="text_3">
      <!-- 10 -->
      <g transform="translate(155.835645 322.182437) scale(0.1 -0.1)">
       <defs>
        <path id="DejaVuSans-31" d="M 794 531 
L 1825 531 
L 1825 4091 
L 703 3866 
L 703 4441 
L 1819 4666 
L 2450 4666 
L 2450 531 
L 3481 531 
L 3481 0 
L 794 0 
L 794 531 
z
" transform="scale(0.015625)"/>
       </defs>
       <use xlink:href="#DejaVuSans-31"/>
       <use xlink:href="#DejaVuSans-30" x="63.623047"/>
      </g>
     </g>
    </g>
    <g id="xtick_4">
     <g id="line2d_7">
      <path d="M 206.380854 307.584 
L 206.380854 41.472 
" clip-path="url(#p2d1cbe2054)" style="fill: none; stroke: #b0b0b0; stroke-width: 0.8; stroke-linecap: square"/>
     </g>
     <g id="line2d_8">
      <g>
       <use xlink:href="#m15acd97521" x="206.380854" y="307.584" style="stroke: #000000; stroke-width: 0.8"/>
      </g>
     </g>
     <g id="text_4">
      <!-- 15 -->
      <g transform="translate(200.018354 322.182437) scale(0.1 -0.1)">
       <use xlink:href="#DejaVuSans-31"/>
       <use xlink:href="#DejaVuSans-35" x="63.623047"/>
      </g>
     </g>
    </g>
    <g id="xtick_5">
     <g id="line2d_9">
      <path d="M 250.563563 307.584 
L 250.563563 41.472 
" clip-path="url(#p2d1cbe2054)" style="fill: none; stroke: #b0b0b0; stroke-width: 0.8; stroke-linecap: square"/>
     </g>
     <g id="line2d_10">
      <g>
       <use xlink:href="#m15acd97521" x="250.563563" y="307.584" style="stroke: #000000; stroke-width: 0.8"/>
      </g>
     </g>
     <g id="text_5">
      <!-- 20 -->
      <g transform="translate(244.201063 322.182437) scale(0.1 -0.1)">
       <defs>
        <path id="DejaVuSans-32" d="M 1228 531 
L 3431 531 
L 3431 0 
L 469 0 
L 469 531 
Q 828 903 1448 1529 
Q 2069 2156 2228 2338 
Q 2531 2678 2651 2914 
Q 2772 3150 2772 3378 
Q 2772 3750 2511 3984 
Q 2250 4219 1831 4219 
Q 1534 4219 1204 4116 
Q 875 4013 500 3803 
L 500 4441 
Q 881 4594 1212 4672 
Q 1544 4750 1819 4750 
Q 2544 4750 2975 4387 
Q 3406 4025 3406 3419 
Q 3406 3131 3298 2873 
Q 3191 2616 2906 2266 
Q 2828 2175 2409 1742 
Q 1991 1309 1228 531 
z
" transform="scale(0.015625)"/>
       </defs>
       <use xlink:href="#DejaVuSans-32"/>
       <use xlink:href="#DejaVuSans-30" x="63.623047"/>
      </g>
     </g>
    </g>
    <g id="xtick_6">
     <g id="line2d_11">
      <path d="M 294.746272 307.584 
L 294.746272 41.472 
" clip-path="url(#p2d1cbe2054)" style="fill: none; stroke: #b0b0b0; stroke-width: 0.8; stroke-linecap: square"/>
     </g>
     <g id="line2d_12">
      <g>
       <use xlink:href="#m15acd97521" x="294.746272" y="307.584" style="stroke: #000000; stroke-width: 0.8"/>
      </g>
     </g>
     <g id="text_6">
      <!-- 25 -->
      <g transform="translate(288.383772 322.182437) scale(0.1 -0.1)">
       <use xlink:href="#DejaVuSans-32"/>
       <use xlink:href="#DejaVuSans-35" x="63.623047"/>
      </g>
     </g>
    </g>
    <g id="xtick_7">
     <g id="line2d_13">
      <path d="M 338.928981 307.584 
L 338.928981 41.472 
" clip-path="url(#p2d1cbe2054)" style="fill: none; stroke: #b0b0b0; stroke-width: 0.8; stroke-linecap: square"/>
     </g>
     <g id="line2d_14">
      <g>
       <use xlink:href="#m15acd97521" x="338.928981" y="307.584" style="stroke: #000000; stroke-width: 0.8"/>
      </g>
     </g>
     <g id="text_7">
      <!-- 30 -->
      <g transform="translate(332.566481 322.182437) scale(0.1 -0.1)">
       <defs>
        <path id="DejaVuSans-33" d="M 2597 2516 
Q 3050 2419 3304 2112 
Q 3559 1806 3559 1356 
Q 3559 666 3084 287 
Q 2609 -91 1734 -91 
Q 1441 -91 1130 -33 
Q 819 25 488 141 
L 488 750 
Q 750 597 1062 519 
Q 1375 441 1716 441 
Q 2309 441 2620 675 
Q 2931 909 2931 1356 
Q 2931 1769 2642 2001 
Q 2353 2234 1838 2234 
L 1294 2234 
L 1294 2753 
L 1863 2753 
Q 2328 2753 2575 2939 
Q 2822 3125 2822 3475 
Q 2822 3834 2567 4026 
Q 2313 4219 1838 4219 
Q 1578 4219 1281 4162 
Q 984 4106 628 3988 
L 628 4550 
Q 988 4650 1302 4700 
Q 1616 4750 1894 4750 
Q 2613 4750 3031 4423 
Q 3450 4097 3450 3541 
Q 3450 3153 3228 2886 
Q 3006 2619 2597 2516 
z
" transform="scale(0.015625)"/>
       </defs>
       <use xlink:href="#DejaVuSans-33"/>
       <use xlink:href="#DejaVuSans-30" x="63.623047"/>
      </g>
     </g>
    </g>
    <g id="xtick_8">
     <g id="line2d_15">
      <path d="M 383.11169 307.584 
L 383.11169 41.472 
" clip-path="url(#p2d1cbe2054)" style="fill: none; stroke: #b0b0b0; stroke-width: 0.8; stroke-linecap: square"/>
     </g>
     <g id="line2d_16">
      <g>
       <use xlink:href="#m15acd97521" x="383.11169" y="307.584" style="stroke: #000000; stroke-width: 0.8"/>
      </g>
     </g>
     <g id="text_8">
      <!-- 35 -->
      <g transform="translate(376.74919 322.182437) scale(0.1 -0.1)">
       <use xlink:href="#DejaVuSans-33"/>
       <use xlink:href="#DejaVuSans-35" x="63.623047"/>
      </g>
     </g>
    </g>
    <g id="text_9">
     <!-- Time(s) -->
     <g transform="translate(217.420156 335.860562) scale(0.1 -0.1)">
      <defs>
       <path id="DejaVuSans-54" d="M -19 4666 
L 3928 4666 
L 3928 4134 
L 2272 4134 
L 2272 0 
L 1638 0 
L 1638 4134 
L -19 4134 
L -19 4666 
z
" transform="scale(0.015625)"/>
       <path id="DejaVuSans-69" d="M 603 3500 
L 1178 3500 
L 1178 0 
L 603 0 
L 603 3500 
z
M 603 4863 
L 1178 4863 
L 1178 4134 
L 603 4134 
L 603 4863 
z
" transform="scale(0.015625)"/>
       <path id="DejaVuSans-6d" d="M 3328 2828 
Q 3544 3216 3844 3400 
Q 4144 3584 4550 3584 
Q 5097 3584 5394 3201 
Q 5691 2819 5691 2113 
L 5691 0 
L 5113 0 
L 5113 2094 
Q 5113 2597 4934 2840 
Q 4756 3084 4391 3084 
Q 3944 3084 3684 2787 
Q 3425 2491 3425 1978 
L 3425 0 
L 2847 0 
L 2847 2094 
Q 2847 2600 2669 2842 
Q 2491 3084 2119 3084 
Q 1678 3084 1418 2786 
Q 1159 2488 1159 1978 
L 1159 0 
L 581 0 
L 581 3500 
L 1159 3500 
L 1159 2956 
Q 1356 3278 1631 3431 
Q 1906 3584 2284 3584 
Q 2666 3584 2933 3390 
Q 3200 3197 3328 2828 
z
" transform="scale(0.015625)"/>
       <path id="DejaVuSans-65" d="M 3597 1894 
L 3597 1613 
L 953 1613 
Q 991 1019 1311 708 
Q 1631 397 2203 397 
Q 2534 397 2845 478 
Q 3156 559 3463 722 
L 3463 178 
Q 3153 47 2828 -22 
Q 2503 -91 2169 -91 
Q 1331 -91 842 396 
Q 353 884 353 1716 
Q 353 2575 817 3079 
Q 1281 3584 2069 3584 
Q 2775 3584 3186 3129 
Q 3597 2675 3597 1894 
z
M 3022 2063 
Q 3016 2534 2758 2815 
Q 2500 3097 2075 3097 
Q 1594 3097 1305 2825 
Q 1016 2553 972 2059 
L 3022 2063 
z
" transform="scale(0.015625)"/>
       <path id="DejaVuSans-28" d="M 1984 4856 
Q 1566 4138 1362 3434 
Q 1159 2731 1159 2009 
Q 1159 1288 1364 580 
Q 1569 -128 1984 -844 
L 1484 -844 
Q 1016 -109 783 600 
Q 550 1309 550 2009 
Q 550 2706 781 3412 
Q 1013 4119 1484 4856 
L 1984 4856 
z
" transform="scale(0.015625)"/>
       <path id="DejaVuSans-73" d="M 2834 3397 
L 2834 2853 
Q 2591 2978 2328 3040 
Q 2066 3103 1784 3103 
Q 1356 3103 1142 2972 
Q 928 2841 928 2578 
Q 928 2378 1081 2264 
Q 1234 2150 1697 2047 
L 1894 2003 
Q 2506 1872 2764 1633 
Q 3022 1394 3022 966 
Q 3022 478 2636 193 
Q 2250 -91 1575 -91 
Q 1294 -91 989 -36 
Q 684 19 347 128 
L 347 722 
Q 666 556 975 473 
Q 1284 391 1588 391 
Q 1994 391 2212 530 
Q 2431 669 2431 922 
Q 2431 1156 2273 1281 
Q 2116 1406 1581 1522 
L 1381 1569 
Q 847 1681 609 1914 
Q 372 2147 372 2553 
Q 372 3047 722 3315 
Q 1072 3584 1716 3584 
Q 2034 3584 2315 3537 
Q 2597 3491 2834 3397 
z
" transform="scale(0.015625)"/>
       <path id="DejaVuSans-29" d="M 513 4856 
L 1013 4856 
Q 1481 4119 1714 3412 
Q 1947 2706 1947 2009 
Q 1947 1309 1714 600 
Q 1481 -109 1013 -844 
L 513 -844 
Q 928 -128 1133 580 
Q 1338 1288 1338 2009 
Q 1338 2731 1133 3434 
Q 928 4138 513 4856 
z
" transform="scale(0.015625)"/>
      </defs>
      <use xlink:href="#DejaVuSans-54"/>
      <use xlink:href="#DejaVuSans-69" x="57.958984"/>
      <use xlink:href="#DejaVuSans-6d" x="85.742188"/>
      <use xlink:href="#DejaVuSans-65" x="183.154297"/>
      <use xlink:href="#DejaVuSans-28" x="244.677734"/>
      <use xlink:href="#DejaVuSans-73" x="283.691406"/>
      <use xlink:href="#DejaVuSans-29" x="335.791016"/>
     </g>
    </g>
   </g>
   <g id="matplotlib.axis_2">
    <g id="ytick_1">
     <g id="line2d_17">
      <path d="M 57.6 276.953328 
L 414.72 276.953328 
" clip-path="url(#p2d1cbe2054)" style="fill: none; stroke: #b0b0b0; stroke-width: 0.8; stroke-linecap: square"/>
     </g>
     <g id="line2d_18">
      <defs>
       <path id="mc1e1645734" d="M 0 0 
L -3.5 0 
" style="stroke: #000000; stroke-width: 0.8"/>
      </defs>
      <g>
       <use xlink:href="#mc1e1645734" x="57.6" y="276.953328" style="stroke: #000000; stroke-width: 0.8"/>
      </g>
     </g>
     <g id="text_10">
      <!-- 4 -->
      <g transform="translate(44.2375 280.752547) scale(0.1 -0.1)">
       <defs>
        <path id="DejaVuSans-34" d="M 2419 4116 
L 825 1625 
L 2419 1625 
L 2419 4116 
z
M 2253 4666 
L 3047 4666 
L 3047 1625 
L 3713 1625 
L 3713 1100 
L 3047 1100 
L 3047 0 
L 2419 0 
L 2419 1100 
L 313 1100 
L 313 1709 
L 2253 4666 
z
" transform="scale(0.015625)"/>
       </defs>
       <use xlink:href="#DejaVuSans-34"/>
      </g>
     </g>
    </g>
    <g id="ytick_2">
     <g id="line2d_19">
      <path d="M 57.6 221.106996 
L 414.72 221.106996 
" clip-path="url(#p2d1cbe2054)" style="fill: none; stroke: #b0b0b0; stroke-width: 0.8; stroke-linecap: square"/>
     </g>
     <g id="line2d_20">
      <g>
       <use xlink:href="#mc1e1645734" x="57.6" y="221.106996" style="stroke: #000000; stroke-width: 0.8"/>
      </g>
     </g>
     <g id="text_11">
      <!-- 5 -->
      <g transform="translate(44.2375 224.906215) scale(0.1 -0.1)">
       <use xlink:href="#DejaVuSans-35"/>
      </g>
     </g>
    </g>
    <g id="ytick_3">
     <g id="line2d_21">
      <path d="M 57.6 165.260664 
L 414.72 165.260664 
" clip-path="url(#p2d1cbe2054)" style="fill: none; stroke: #b0b0b0; stroke-width: 0.8; stroke-linecap: square"/>
     </g>
     <g id="line2d_22">
      <g>
       <use xlink:href="#mc1e1645734" x="57.6" y="165.260664" style="stroke: #000000; stroke-width: 0.8"/>
      </g>
     </g>
     <g id="text_12">
      <!-- 6 -->
      <g transform="translate(44.2375 169.059883) scale(0.1 -0.1)">
       <defs>
        <path id="DejaVuSans-36" d="M 2113 2584 
Q 1688 2584 1439 2293 
Q 1191 2003 1191 1497 
Q 1191 994 1439 701 
Q 1688 409 2113 409 
Q 2538 409 2786 701 
Q 3034 994 3034 1497 
Q 3034 2003 2786 2293 
Q 2538 2584 2113 2584 
z
M 3366 4563 
L 3366 3988 
Q 3128 4100 2886 4159 
Q 2644 4219 2406 4219 
Q 1781 4219 1451 3797 
Q 1122 3375 1075 2522 
Q 1259 2794 1537 2939 
Q 1816 3084 2150 3084 
Q 2853 3084 3261 2657 
Q 3669 2231 3669 1497 
Q 3669 778 3244 343 
Q 2819 -91 2113 -91 
Q 1303 -91 875 529 
Q 447 1150 447 2328 
Q 447 3434 972 4092 
Q 1497 4750 2381 4750 
Q 2619 4750 2861 4703 
Q 3103 4656 3366 4563 
z
" transform="scale(0.015625)"/>
       </defs>
       <use xlink:href="#DejaVuSans-36"/>
      </g>
     </g>
    </g>
    <g id="ytick_4">
     <g id="line2d_23">
      <path d="M 57.6 109.414332 
L 414.72 109.414332 
" clip-path="url(#p2d1cbe2054)" style="fill: none; stroke: #b0b0b0; stroke-width: 0.8; stroke-linecap: square"/>
     </g>
     <g id="line2d_24">
      <g>
       <use xlink:href="#mc1e1645734" x="57.6" y="109.414332" style="stroke: #000000; stroke-width: 0.8"/>
      </g>
     </g>
     <g id="text_13">
      <!-- 7 -->
      <g transform="translate(44.2375 113.213551) scale(0.1 -0.1)">
       <defs>
        <path id="DejaVuSans-37" d="M 525 4666 
L 3525 4666 
L 3525 4397 
L 1831 0 
L 1172 0 
L 2766 4134 
L 525 4134 
L 525 4666 
z
" transform="scale(0.015625)"/>
       </defs>
       <use xlink:href="#DejaVuSans-37"/>
      </g>
     </g>
    </g>
    <g id="ytick_5">
     <g id="line2d_25">
      <path d="M 57.6 53.568 
L 414.72 53.568 
" clip-path="url(#p2d1cbe2054)" style="fill: none; stroke: #b0b0b0; stroke-width: 0.8; stroke-linecap: square"/>
     </g>
     <g id="line2d_26">
      <g>
       <use xlink:href="#mc1e1645734" x="57.6" y="53.568" style="stroke: #000000; stroke-width: 0.8"/>
      </g>
     </g>
     <g id="text_14">
      <!-- 8 -->
      <g transform="translate(44.2375 57.367219) scale(0.1 -0.1)">
       <defs>
        <path id="DejaVuSans-38" d="M 2034 2216 
Q 1584 2216 1326 1975 
Q 1069 1734 1069 1313 
Q 1069 891 1326 650 
Q 1584 409 2034 409 
Q 2484 409 2743 651 
Q 3003 894 3003 1313 
Q 3003 1734 2745 1975 
Q 2488 2216 2034 2216 
z
M 1403 2484 
Q 997 2584 770 2862 
Q 544 3141 544 3541 
Q 544 4100 942 4425 
Q 1341 4750 2034 4750 
Q 2731 4750 3128 4425 
Q 3525 4100 3525 3541 
Q 3525 3141 3298 2862 
Q 3072 2584 2669 2484 
Q 3125 2378 3379 2068 
Q 3634 1759 3634 1313 
Q 3634 634 3220 271 
Q 2806 -91 2034 -91 
Q 1263 -91 848 271 
Q 434 634 434 1313 
Q 434 1759 690 2068 
Q 947 2378 1403 2484 
z
M 1172 3481 
Q 1172 3119 1398 2916 
Q 1625 2713 2034 2713 
Q 2441 2713 2670 2916 
Q 2900 3119 2900 3481 
Q 2900 3844 2670 4047 
Q 2441 4250 2034 4250 
Q 1625 4250 1398 4047 
Q 1172 3844 1172 3481 
z
" transform="scale(0.015625)"/>
       </defs>
       <use xlink:href="#DejaVuSans-38"/>
      </g>
     </g>
    </g>
    <g id="text_15">
     <!-- Velocity(m/s) -->
     <g transform="translate(38.157812 207.204563) rotate(-90) scale(0.1 -0.1)">
      <defs>
       <path id="DejaVuSans-56" d="M 1831 0 
L 50 4666 
L 709 4666 
L 2188 738 
L 3669 4666 
L 4325 4666 
L 2547 0 
L 1831 0 
z
" transform="scale(0.015625)"/>
       <path id="DejaVuSans-6c" d="M 603 4863 
L 1178 4863 
L 1178 0 
L 603 0 
L 603 4863 
z
" transform="scale(0.015625)"/>
       <path id="DejaVuSans-6f" d="M 1959 3097 
Q 1497 3097 1228 2736 
Q 959 2375 959 1747 
Q 959 1119 1226 758 
Q 1494 397 1959 397 
Q 2419 397 2687 759 
Q 2956 1122 2956 1747 
Q 2956 2369 2687 2733 
Q 2419 3097 1959 3097 
z
M 1959 3584 
Q 2709 3584 3137 3096 
Q 3566 2609 3566 1747 
Q 3566 888 3137 398 
Q 2709 -91 1959 -91 
Q 1206 -91 779 398 
Q 353 888 353 1747 
Q 353 2609 779 3096 
Q 1206 3584 1959 3584 
z
" transform="scale(0.015625)"/>
       <path id="DejaVuSans-63" d="M 3122 3366 
L 3122 2828 
Q 2878 2963 2633 3030 
Q 2388 3097 2138 3097 
Q 1578 3097 1268 2742 
Q 959 2388 959 1747 
Q 959 1106 1268 751 
Q 1578 397 2138 397 
Q 2388 397 2633 464 
Q 2878 531 3122 666 
L 3122 134 
Q 2881 22 2623 -34 
Q 2366 -91 2075 -91 
Q 1284 -91 818 406 
Q 353 903 353 1747 
Q 353 2603 823 3093 
Q 1294 3584 2113 3584 
Q 2378 3584 2631 3529 
Q 2884 3475 3122 3366 
z
" transform="scale(0.015625)"/>
       <path id="DejaVuSans-74" d="M 1172 4494 
L 1172 3500 
L 2356 3500 
L 2356 3053 
L 1172 3053 
L 1172 1153 
Q 1172 725 1289 603 
Q 1406 481 1766 481 
L 2356 481 
L 2356 0 
L 1766 0 
Q 1100 0 847 248 
Q 594 497 594 1153 
L 594 3053 
L 172 3053 
L 172 3500 
L 594 3500 
L 594 4494 
L 1172 4494 
z
" transform="scale(0.015625)"/>
       <path id="DejaVuSans-79" d="M 2059 -325 
Q 1816 -950 1584 -1140 
Q 1353 -1331 966 -1331 
L 506 -1331 
L 506 -850 
L 844 -850 
Q 1081 -850 1212 -737 
Q 1344 -625 1503 -206 
L 1606 56 
L 191 3500 
L 800 3500 
L 1894 763 
L 2988 3500 
L 3597 3500 
L 2059 -325 
z
" transform="scale(0.015625)"/>
       <path id="DejaVuSans-2f" d="M 1625 4666 
L 2156 4666 
L 531 -594 
L 0 -594 
L 1625 4666 
z
" transform="scale(0.015625)"/>
      </defs>
      <use xlink:href="#DejaVuSans-56"/>
      <use xlink:href="#DejaVuSans-65" x="60.658203"/>
      <use xlink:href="#DejaVuSans-6c" x="122.181641"/>
      <use xlink:href="#DejaVuSans-6f" x="149.964844"/>
      <use xlink:href="#DejaVuSans-63" x="211.146484"/>
      <use xlink:href="#DejaVuSans-69" x="266.126953"/>
      <use xlink:href="#DejaVuSans-74" x="293.910156"/>
      <use xlink:href="#DejaVuSans-79" x="333.119141"/>
      <use xlink:href="#DejaVuSans-28" x="392.298828"/>
      <use xlink:href="#DejaVuSans-6d" x="431.3125"/>
      <use xlink:href="#DejaVuSans-2f" x="528.724609"/>
      <use xlink:href="#DejaVuSans-73" x="562.416016"/>
      <use xlink:href="#DejaVuSans-29" x="614.515625"/>
     </g>
    </g>
   </g>
   <g id="line2d_27">
    <path d="M 73.832727 53.775637 
L 76.130228 53.626527 
L 76.130228 53.626527 
L 81.432153 53.571127 
L 81.432153 53.571127 
L 92.742927 53.568 
L 92.742927 53.568 
L 93.273119 59.18938 
L 93.273119 59.18938 
L 93.626581 69.669168 
L 93.626581 69.669168 
L 93.980043 81.242929 
L 93.980043 81.242929 
L 95.040428 112.854801 
L 95.040428 112.854801 
L 95.393889 122.977842 
L 95.393889 122.977842 
L 96.984467 157.168587 
L 96.984467 157.168587 
L 98.221583 176.987221 
L 98.221583 176.987221 
L 99.635429 191.096909 
L 99.635429 191.096909 
L 100.165622 194.623549 
L 100.165622 194.623549 
L 100.872545 197.637854 
L 100.872545 197.637854 
L 101.226007 198.586237 
L 101.226007 198.586237 
L 101.756199 199.21892 
L 101.756199 199.21892 
L 102.109661 199.401817 
L 102.109661 199.401817 
L 102.463123 199.501335 
L 102.463123 199.501335 
L 103.346777 199.288728 
L 103.346777 199.288728 
L 103.700239 199.037754 
L 103.700239 199.037754 
L 104.0537 198.57289 
L 104.0537 198.57289 
L 104.407162 197.839906 
L 104.407162 197.839906 
L 105.290816 193.625798 
L 105.290816 193.625798 
L 105.644278 191.133209 
L 105.644278 191.133209 
L 105.997739 187.943378 
L 105.997739 187.943378 
L 107.058124 171.462623 
L 107.058124 171.462623 
L 108.118509 151.794382 
L 108.118509 151.794382 
L 108.471971 148.520447 
L 108.471971 148.520447 
L 109.002164 146.18674 
L 109.002164 146.18674 
L 109.532356 145.261255 
L 109.532356 145.261255 
L 109.885818 145.010114 
L 109.885818 145.010114 
L 112.006588 144.169962 
L 112.006588 144.169962 
L 112.890242 142.938941 
L 112.890242 142.938941 
L 113.597165 140.632599 
L 113.597165 140.632599 
L 113.950627 139.05857 
L 113.950627 139.05857 
L 114.834281 132.328976 
L 114.834281 132.328976 
L 115.541205 123.878476 
L 115.541205 123.878476 
L 115.894666 119.302093 
L 115.894666 119.302093 
L 116.248128 117.799324 
L 116.248128 117.799324 
L 116.424859 117.95681 
L 116.424859 117.95681 
L 117.131782 131.804076 
L 117.131782 131.804076 
L 117.485244 140.086757 
L 117.485244 140.086757 
L 118.192167 152.563107 
L 118.192167 152.563107 
L 118.89909 160.742249 
L 118.89909 160.742249 
L 119.606014 166.566798 
L 119.606014 166.566798 
L 120.136206 169.047604 
L 120.136206 169.047604 
L 120.489668 170.115274 
L 120.489668 170.115274 
L 120.84313 170.511727 
L 120.84313 170.511727 
L 121.196591 171.014623 
L 121.196591 171.014623 
L 121.373322 171.194951 
L 121.373322 171.194951 
L 121.550053 171.191712 
L 121.550053 171.191712 
L 121.726784 171.340487 
L 122.080245 171.326078 
L 122.080245 171.326078 
L 122.610438 171.426602 
L 122.610438 171.426602 
L 123.14063 171.344508 
L 123.14063 171.344508 
L 123.494092 171.364389 
L 123.494092 171.364389 
L 124.024285 171.142903 
L 124.024285 171.142903 
L 124.377746 171.043608 
L 124.377746 171.043608 
L 126.145055 169.370619 
L 126.145055 169.370619 
L 126.851978 168.324394 
L 126.851978 168.324394 
L 127.558901 166.999496 
L 127.558901 166.999496 
L 127.912363 166.298401 
L 127.912363 166.298401 
L 128.442556 165.050514 
L 128.442556 165.050514 
L 129.502941 162.212236 
L 129.502941 162.212236 
L 131.800441 153.772739 
L 131.800441 153.772739 
L 134.804866 138.107898 
L 134.804866 138.107898 
L 135.68852 132.17484 
L 135.68852 132.17484 
L 137.986021 112.60757 
L 137.986021 112.60757 
L 138.869675 103.178866 
L 138.869675 103.178866 
L 140.813714 77.620457 
L 140.813714 77.620457 
L 141.520637 69.857091 
L 141.520637 69.857091 
L 142.227561 64.599494 
L 142.227561 64.599494 
L 142.934484 61.038899 
L 142.934484 61.038899 
L 143.641407 58.62751 
L 143.641407 58.62751 
L 144.348331 56.994452 
L 144.348331 56.994452 
L 145.055254 55.888527 
L 145.055254 55.888527 
L 145.762177 55.139516 
L 145.762177 55.139516 
L 146.645832 54.533471 
L 146.645832 54.533471 
L 147.706217 54.106079 
L 147.706217 54.106079 
L 149.120063 53.814785 
L 149.120063 53.814785 
L 151.240833 53.644677 
L 151.240833 53.644677 
L 151.417564 54.723461 
L 151.417564 54.723461 
L 151.594295 57.743965 
L 151.594295 57.743965 
L 155.482373 169.248204 
L 155.482373 169.248204 
L 155.835835 176.603892 
L 155.835835 176.603892 
L 156.189297 184.657101 
L 156.189297 184.657101 
L 156.719489 194.876197 
L 156.719489 194.876197 
L 157.072951 200.276426 
L 157.072951 200.276426 
L 157.603143 210.273757 
L 157.603143 210.273757 
L 158.133336 216.901991 
L 158.133336 216.901991 
L 158.663528 223.541115 
L 158.663528 223.541115 
L 160.430837 238.688874 
L 160.430837 238.688874 
L 161.844684 245.029108 
L 161.844684 245.029108 
L 162.728338 246.763248 
L 162.728338 246.763248 
L 163.25853 247.169586 
L 163.25853 247.169586 
L 163.965454 247.321767 
L 163.965454 247.321767 
L 164.318915 247.384762 
L 164.318915 247.384762 
L 165.732762 247.066661 
L 165.732762 247.066661 
L 166.439685 246.3764 
L 166.439685 246.3764 
L 167.676801 243.763965 
L 167.676801 243.763965 
L 168.206994 242.171116 
L 168.206994 242.171116 
L 168.913917 239.297766 
L 168.913917 239.297766 
L 169.62084 235.641283 
L 169.62084 235.641283 
L 170.151033 232.477868 
L 170.151033 232.477868 
L 171.918341 219.057436 
L 171.918341 219.057436 
L 175.276227 186.231129 
L 175.276227 186.231129 
L 176.690074 171.005465 
L 176.690074 171.005465 
L 179.694498 139.842597 
L 179.694498 139.842597 
L 181.108345 119.624494 
L 181.108345 119.624494 
L 181.991999 101.090939 
L 181.991999 101.090939 
L 182.522191 90.731947 
L 182.522191 90.731947 
L 182.875653 87.046927 
L 182.875653 87.046927 
L 183.052384 86.556093 
L 183.582576 92.658645 
L 183.582576 92.658645 
L 185.349885 146.703598 
L 185.349885 146.703598 
L 186.056808 169.876531 
L 186.056808 169.876531 
L 186.41027 179.437535 
L 186.41027 179.437535 
L 186.763731 190.114069 
L 186.763731 190.114069 
L 187.293924 203.732867 
L 187.293924 203.732867 
L 188.354309 224.80743 
L 188.354309 224.80743 
L 188.707771 232.453631 
L 188.707771 232.453631 
L 189.061232 238.814416 
L 189.061232 238.814416 
L 190.828541 259.724121 
L 190.828541 259.724121 
L 192.065656 268.198857 
L 192.065656 268.198857 
L 192.77258 271.205512 
L 192.77258 271.205512 
L 193.302772 272.578383 
L 193.302772 272.578383 
L 194.363157 273.990736 
L 194.363157 273.990736 
L 194.716619 274.359825 
L 194.716619 274.359825 
L 194.89335 274.315203 
L 194.89335 274.315203 
L 195.070081 274.439685 
L 195.070081 274.439685 
L 195.423542 274.489667 
L 195.423542 274.489667 
L 195.777004 274.585109 
L 195.777004 274.585109 
L 195.953735 274.629953 
L 195.953735 274.629953 
L 196.307197 274.563943 
L 196.307197 274.563943 
L 197.367582 274.357535 
L 197.367582 274.357535 
L 197.897774 273.907637 
L 197.897774 273.907637 
L 198.251236 273.553739 
L 198.251236 273.553739 
L 198.604697 272.988574 
L 198.604697 272.988574 
L 199.488352 270.509723 
L 199.488352 270.509723 
L 200.195275 267.513958 
L 200.195275 267.513958 
L 201.962583 254.924966 
L 201.962583 254.924966 
L 202.846237 245.647997 
L 202.846237 245.647997 
L 203.553161 236.940325 
L 203.553161 236.940325 
L 204.436815 223.985149 
L 204.436815 223.985149 
L 205.143738 211.249839 
L 205.143738 211.249839 
L 206.027392 192.910239 
L 206.027392 192.910239 
L 207.264508 161.772726 
L 207.264508 161.772726 
L 210.092202 86.815332 
L 210.092202 86.815332 
L 210.799125 76.08418 
L 210.799125 76.08418 
L 211.506048 68.816673 
L 211.506048 68.816673 
L 212.212972 63.89488 
L 212.212972 63.89488 
L 212.919895 60.561692 
L 212.919895 60.561692 
L 213.626818 58.304327 
L 213.626818 58.304327 
L 214.333742 56.77559 
L 214.333742 56.77559 
L 215.040665 55.740311 
L 215.040665 55.740311 
L 215.394127 55.355697 
L 215.394127 55.355697 
L 215.747588 56.819318 
L 215.747588 56.819318 
L 216.10105 61.297579 
L 216.10105 61.297579 
L 218.398551 111.560953 
L 218.398551 111.560953 
L 218.752013 120.026252 
L 218.752013 120.026252 
L 219.989129 145.605827 
L 219.989129 145.605827 
L 220.696052 159.789902 
L 220.696052 159.789902 
L 222.816822 189.755871 
L 222.816822 189.755871 
L 224.230669 200.498359 
L 224.230669 200.498359 
L 224.760861 202.751871 
L 224.760861 202.751871 
L 225.291054 204.183491 
L 225.291054 204.183491 
L 225.821246 204.904635 
L 225.821246 204.904635 
L 226.7049 205.234966 
L 226.7049 205.234966 
L 227.235093 205.332027 
L 227.235093 205.332027 
L 227.765285 205.181465 
L 227.765285 205.181465 
L 228.472209 204.623449 
L 228.472209 204.623449 
L 229.179132 203.356575 
L 229.179132 203.356575 
L 229.886055 200.948872 
L 229.886055 200.948872 
L 230.239517 198.70653 
L 230.239517 198.70653 
L 230.592979 196.081305 
L 230.592979 196.081305 
L 230.94644 192.950002 
L 230.94644 192.950002 
L 231.476633 187.270541 
L 231.476633 187.270541 
L 232.006825 179.876599 
L 232.006825 179.876599 
L 233.420672 148.900984 
L 233.420672 148.900984 
L 236.071635 82.521754 
L 236.071635 82.521754 
L 236.778558 73.176373 
L 236.778558 73.176373 
L 237.485481 66.84742 
L 237.485481 66.84742 
L 238.192405 62.56127 
L 238.192405 62.56127 
L 238.899328 59.658545 
L 238.899328 59.658545 
L 239.606251 57.692698 
L 239.606251 57.692698 
L 240.313175 56.361378 
L 240.313175 56.361378 
L 241.020098 55.459739 
L 241.020098 55.459739 
L 241.55029 54.980298 
L 241.55029 54.980298 
L 241.903752 55.531501 
L 241.903752 55.531501 
L 242.080483 56.684225 
L 242.080483 56.684225 
L 242.787406 65.525035 
L 242.787406 65.525035 
L 243.140868 70.651505 
L 243.140868 70.651505 
L 243.671061 78.878116 
L 243.671061 78.878116 
L 245.084907 100.20449 
L 245.084907 100.20449 
L 246.145292 116.584945 
L 246.145292 116.584945 
L 247.73587 135.741578 
L 247.73587 135.741578 
L 248.972986 142.994397 
L 248.972986 142.994397 
L 249.503178 144.60076 
L 249.503178 144.60076 
L 250.033371 145.466825 
L 250.033371 145.466825 
L 251.447217 146.08309 
L 251.447217 146.08309 
L 251.97741 145.962462 
L 251.97741 145.962462 
L 252.684333 145.080145 
L 252.684333 145.080145 
L 253.037795 144.369892 
L 253.037795 144.369892 
L 253.391256 143.458033 
L 253.391256 143.458033 
L 254.09818 140.380006 
L 254.09818 140.380006 
L 254.628372 137.130476 
L 254.628372 137.130476 
L 255.158565 133.000416 
L 255.158565 133.000416 
L 255.865488 126.777068 
L 255.865488 126.777068 
L 257.102604 112.345929 
L 257.102604 112.345929 
L 257.986258 99.514844 
L 257.986258 99.514844 
L 259.930297 70.974241 
L 259.930297 70.974241 
L 260.637221 65.356044 
L 260.637221 65.356044 
L 261.344144 61.551233 
L 261.344144 61.551233 
L 262.051067 58.974483 
L 262.051067 58.974483 
L 262.757991 57.229453 
L 262.757991 57.229453 
L 263.464914 56.047633 
L 263.464914 56.047633 
L 264.171837 55.247299 
L 264.171837 55.247299 
L 265.055492 54.599705 
L 265.055492 54.599705 
L 266.115877 54.142994 
L 266.115877 54.142994 
L 267.529723 53.831706 
L 267.529723 53.831706 
L 269.650493 53.649927 
L 269.650493 53.649927 
L 273.892033 53.575874 
L 273.892033 53.575874 
L 276.719727 53.569675 
L 276.719727 53.569675 
L 277.249919 60.534271 
L 277.249919 60.534271 
L 277.603381 72.161199 
L 277.603381 72.161199 
L 277.956843 85.924751 
L 277.956843 85.924751 
L 278.310304 98.655983 
L 278.310304 98.655983 
L 278.663766 113.350605 
L 278.663766 113.350605 
L 279.017228 127.216076 
L 279.017228 127.216076 
L 279.370689 142.060199 
L 279.370689 142.060199 
L 280.961267 197.613952 
L 280.961267 197.613952 
L 281.66819 215.909881 
L 281.66819 215.909881 
L 282.021652 226.134506 
L 282.021652 226.134506 
L 282.375114 234.623596 
L 282.375114 234.623596 
L 282.905306 246.595765 
L 282.905306 246.595765 
L 283.435499 253.703383 
L 283.435499 253.703383 
L 285.026076 275.309938 
L 285.026076 275.309938 
L 285.556269 280.602048 
L 285.556269 280.602048 
L 285.90973 284.039837 
L 285.90973 284.039837 
L 287.146846 291.689723 
L 287.146846 291.689723 
L 287.853769 294.008631 
L 287.853769 294.008631 
L 288.383962 294.849621 
L 288.383962 294.849621 
L 288.914155 295.210388 
L 288.914155 295.210388 
L 289.267616 295.274053 
L 289.267616 295.274053 
L 290.15127 295.317166 
L 290.15127 295.317166 
L 290.858194 295.071498 
L 290.858194 295.071498 
L 291.211655 294.796455 
L 291.211655 294.796455 
L 291.388386 294.625062 
L 291.388386 294.625062 
L 292.27204 292.752312 
L 292.27204 292.752312 
L 293.509156 287.231287 
L 293.509156 287.231287 
L 294.039349 284.063069 
L 294.039349 284.063069 
L 295.806657 268.971324 
L 295.806657 268.971324 
L 298.280889 236.305073 
L 298.280889 236.305073 
L 300.224928 204.753738 
L 300.224928 204.753738 
L 303.406083 160.849753 
L 303.406083 160.849753 
L 303.759545 158.689394 
L 303.759545 158.689394 
L 303.936276 158.522413 
L 303.936276 158.522413 
L 304.113006 160.464749 
L 304.643199 175.146973 
L 304.643199 175.146973 
L 306.410507 216.646717 
L 306.410507 216.646717 
L 306.9407 223.916849 
L 306.9407 223.916849 
L 307.470892 231.220376 
L 307.470892 231.220376 
L 308.001085 236.738999 
L 308.001085 236.738999 
L 308.531277 242.334187 
L 308.531277 242.334187 
L 309.591662 250.649427 
L 309.591662 250.649427 
L 310.298586 253.994175 
L 310.298586 253.994175 
L 310.828778 256.5683 
L 310.828778 256.5683 
L 312.065894 260.166479 
L 312.065894 260.166479 
L 312.949548 261.148258 
L 312.949548 261.148258 
L 313.126279 261.20483 
L 313.126279 261.20483 
L 313.479741 261.46016 
L 313.479741 261.46016 
L 314.009933 261.589779 
L 314.009933 261.589779 
L 315.42378 261.344837 
L 315.42378 261.344837 
L 316.130703 260.788217 
L 316.130703 260.788217 
L 316.660896 260.119568 
L 316.660896 260.119568 
L 317.367819 258.326119 
L 317.367819 258.326119 
L 318.781666 252.123993 
L 318.781666 252.123993 
L 319.311858 248.776229 
L 319.311858 248.776229 
L 319.842051 245.218203 
L 319.842051 245.218203 
L 321.255897 232.591627 
L 321.255897 232.591627 
L 321.962821 225.348972 
L 321.962821 225.348972 
L 323.199937 211.438488 
L 323.199937 211.438488 
L 324.260322 197.109157 
L 324.260322 197.109157 
L 325.143976 184.346762 
L 325.143976 184.346762 
L 326.381092 163.379313 
L 326.381092 163.379313 
L 327.618208 141.601589 
L 327.618208 141.601589 
L 327.971669 139.123408 
L 327.971669 139.123408 
L 328.1484 138.58248 
L 328.1484 138.58248 
L 328.325131 138.524009 
L 328.325131 138.524009 
L 329.208785 154.202979 
L 329.208785 154.202979 
L 330.622632 180.978279 
L 330.622632 180.978279 
L 331.152824 188.510609 
L 331.152824 188.510609 
L 332.213209 200.221138 
L 332.213209 200.221138 
L 332.743402 204.128092 
L 332.743402 204.128092 
L 333.627056 208.43954 
L 333.627056 208.43954 
L 334.157248 209.605053 
L 334.157248 209.605053 
L 334.687441 210.06115 
L 334.687441 210.06115 
L 335.040903 210.192501 
L 335.040903 210.192501 
L 335.571095 210.421024 
L 335.571095 210.421024 
L 336.101288 210.295202 
L 336.101288 210.295202 
L 336.808211 209.742659 
L 336.808211 209.742659 
L 337.515134 208.448029 
L 337.515134 208.448029 
L 338.222058 205.919754 
L 338.222058 205.919754 
L 338.75225 202.843738 
L 338.75225 202.843738 
L 339.812635 190.993593 
L 339.812635 190.993593 
L 340.519559 179.925967 
L 340.519559 179.925967 
L 340.696289 178.199477 
L 340.696289 178.199477 
L 341.049751 176.888764 
L 341.049751 176.888764 
L 341.403213 177.174977 
L 341.403213 177.174977 
L 342.463598 185.533441 
L 342.463598 185.533441 
L 342.99379 187.479239 
L 342.99379 187.479239 
L 343.347252 187.908474 
L 343.347252 187.908474 
L 343.700714 188.125884 
L 343.700714 188.125884 
L 344.054175 188.206358 
L 344.054175 188.206358 
L 344.407637 188.043566 
L 344.407637 188.043566 
L 344.937829 187.038667 
L 344.937829 187.038667 
L 345.291291 185.919954 
L 345.291291 185.919954 
L 345.644753 184.149625 
L 345.644753 184.149625 
L 346.528407 174.673228 
L 346.528407 174.673228 
L 347.058599 168.861636 
L 347.058599 168.861636 
L 347.23533 167.683055 
L 347.23533 167.683055 
L 347.588792 167.325303 
L 347.588792 167.325303 
L 347.765523 168.537001 
L 347.765523 168.537001 
L 348.295715 175.441674 
L 348.295715 175.441674 
L 349.002639 182.243366 
L 349.002639 182.243366 
L 349.3561 184.254058 
L 349.3561 184.254058 
L 349.886293 185.75476 
L 349.886293 185.75476 
L 350.063024 185.824568 
L 350.063024 185.824568 
L 350.416485 186.209908 
L 350.416485 186.209908 
L 350.769947 186.405202 
L 350.769947 186.405202 
L 351.30014 186.322606 
L 351.30014 186.322606 
L 351.653601 186.285915 
L 351.653601 186.285915 
L 352.360525 185.979262 
L 352.360525 185.979262 
L 353.951102 183.684537 
L 353.951102 183.684537 
L 355.71841 178.520929 
L 355.71841 178.520929 
L 356.425334 175.775412 
L 356.425334 175.775412 
L 358.192642 165.711847 
L 358.192642 165.711847 
L 359.076296 159.358433 
L 359.076296 159.358433 
L 362.434182 135.264817 
L 362.434182 135.264817 
L 365.261876 119.795048 
L 365.261876 119.795048 
L 365.968799 114.006744 
L 365.968799 114.006744 
L 367.029184 101.686261 
L 367.029184 101.686261 
L 368.973223 72.16723 
L 368.973223 72.16723 
L 369.680146 66.163973 
L 369.680146 66.163973 
L 370.38707 62.098416 
L 370.38707 62.098416 
L 371.093993 59.34508 
L 371.093993 59.34508 
L 371.800917 57.480426 
L 371.800917 57.480426 
L 372.50784 56.217629 
L 372.50784 56.217629 
L 373.214763 55.362398 
L 373.214763 55.362398 
L 374.098417 54.670407 
L 374.098417 54.670407 
L 375.158802 54.182365 
L 375.158802 54.182365 
L 376.395918 53.878617 
L 376.395918 53.878617 
L 378.163227 53.685221 
L 378.163227 53.685221 
L 381.521112 53.586429 
L 381.521112 53.586429 
L 394.599194 53.568 
L 394.599194 53.568 
L 397.603619 53.659756 
L 397.603619 53.659756 
L 397.95708 53.733082 
L 397.95708 53.733082 
L 398.487273 53.691253 
L 398.487273 53.691253 
" clip-path="url(#p2d1cbe2054)" style="fill: none; stroke: #1f77b4; stroke-width: 1.5; stroke-linecap: square"/>
   </g>
   <g id="line2d_28">
    <path d="M 73.832727 53.568 
L 92.212734 53.568 
L 92.212734 53.568 
L 92.389465 58.914784 
L 92.389465 58.914784 
L 92.566196 58.295615 
L 92.566196 58.295615 
L 92.919658 71.975565 
L 92.919658 71.975565 
L 93.273119 90.702851 
L 93.273119 90.702851 
L 93.44985 89.498581 
L 93.44985 89.498581 
L 93.803312 102.397743 
L 93.803312 102.397743 
L 93.980043 111.132724 
L 93.980043 111.132724 
L 94.156773 110.962951 
L 94.156773 110.962951 
L 94.510235 123.19609 
L 94.510235 123.19609 
L 94.686966 130.846311 
L 94.686966 130.846311 
L 94.863697 130.464713 
L 94.863697 130.464713 
L 95.040428 134.709426 
L 95.040428 134.709426 
L 95.217158 142.143354 
L 95.217158 142.143354 
L 95.393889 141.994189 
L 95.393889 141.994189 
L 96.277543 162.892836 
L 96.277543 162.892836 
L 96.454274 161.878834 
L 96.454274 161.878834 
L 96.807736 171.460333 
L 96.807736 171.460333 
L 96.984467 170.977206 
L 96.984467 170.977206 
L 97.161198 174.95542 
L 97.161198 174.95542 
L 97.337928 175.341877 
L 97.337928 175.341877 
L 97.69139 182.9434 
L 97.69139 182.9434 
L 97.868121 182.397837 
L 97.868121 182.397837 
L 98.044852 185.489881 
L 98.044852 185.489881 
L 98.221583 185.792847 
L 98.575044 189.57208 
L 98.575044 189.57208 
L 98.751775 190.928141 
L 98.751775 190.928141 
L 98.928506 193.304179 
L 98.928506 193.304179 
L 99.105237 193.606308 
L 99.105237 193.606308 
L 99.281968 195.359157 
L 99.281968 195.359157 
L 99.458698 195.346759 
L 99.458698 195.346759 
L 99.635429 196.722254 
L 99.635429 196.722254 
L 99.81216 197.018407 
L 99.81216 197.018407 
L 100.165622 198.391836 
L 100.165622 198.391836 
L 100.519083 199.194012 
L 100.519083 199.194012 
L 100.695814 199.372497 
L 100.695814 199.372497 
L 100.872545 199.365237 
L 100.872545 199.365237 
L 101.049276 199.597781 
L 101.049276 199.597781 
L 101.226007 199.425831 
L 101.226007 199.425831 
L 101.402738 199.648657 
L 101.402738 199.648657 
L 101.579469 199.468553 
L 101.579469 199.468553 
L 101.756199 199.684008 
L 101.756199 199.684008 
L 102.109661 199.186417 
L 102.109661 199.186417 
L 102.286392 199.450068 
L 102.286392 199.450068 
L 102.463123 198.883451 
L 102.463123 198.883451 
L 102.639854 199.145985 
L 102.639854 199.145985 
L 102.816584 198.293379 
L 102.816584 198.293379 
L 102.993315 198.459577 
L 102.993315 198.459577 
L 103.170046 197.337736 
L 103.170046 197.337736 
L 103.346777 197.041248 
L 103.346777 197.041248 
L 103.876969 193.924688 
L 103.876969 193.924688 
L 104.0537 189.781951 
L 104.0537 189.781951 
L 104.230431 190.848002 
L 104.230431 190.848002 
L 104.407162 186.31099 
L 104.407162 186.31099 
L 104.583893 187.044084 
L 104.583893 187.044084 
L 104.760624 182.406214 
L 104.760624 182.406214 
L 104.937354 181.995409 
L 104.937354 181.995409 
L 105.290816 175.280836 
L 105.290816 175.280836 
L 105.467547 171.1553 
L 105.467547 171.1553 
L 105.644278 159.99631 
L 105.644278 159.99631 
L 105.821009 163.370824 
L 105.821009 163.370824 
L 105.997739 151.386704 
L 105.997739 151.386704 
L 106.17447 153.524558 
L 106.17447 153.524558 
L 106.351201 142.545727 
L 106.351201 142.545727 
L 106.527932 141.033073 
L 106.527932 141.033073 
L 106.881394 128.014847 
L 106.881394 128.014847 
L 107.058124 121.911289 
L 107.058124 121.911289 
L 107.234855 125.295465 
L 107.234855 125.295465 
L 107.411586 125.153783 
L 107.411586 125.153783 
L 107.588317 130.156944 
L 107.588317 130.156944 
L 107.765048 131.793577 
L 107.765048 131.793577 
L 108.29524 138.801231 
L 108.29524 138.801231 
L 108.648702 142.131738 
L 108.648702 142.131738 
L 108.825433 142.368527 
L 108.825433 142.368527 
L 109.355625 144.059665 
L 109.355625 144.059665 
L 109.532356 144.333815 
L 109.532356 144.333815 
L 109.709087 143.807519 
L 109.709087 143.807519 
L 109.885818 144.522296 
L 109.885818 144.522296 
L 110.062549 143.932224 
L 110.062549 143.932224 
L 110.41601 144.484656 
L 110.41601 144.484656 
L 110.592741 143.816845 
L 110.592741 143.816845 
L 110.769472 144.079323 
L 110.769472 144.079323 
L 110.946203 143.798193 
L 110.946203 143.798193 
L 111.122934 143.142445 
L 111.122934 143.142445 
L 111.299664 143.435862 
L 111.299664 143.435862 
L 111.476395 143.2724 
L 111.476395 143.2724 
L 111.653126 141.506427 
L 111.653126 141.506427 
L 111.829857 141.98933 
L 111.829857 141.98933 
L 112.360049 139.970932 
L 112.360049 139.970932 
L 112.53678 137.487278 
L 112.53678 137.487278 
L 112.713511 137.4211 
L 112.713511 137.4211 
L 112.890242 136.365884 
L 112.890242 136.365884 
L 113.066973 132.670085 
L 113.066973 132.670085 
L 113.243704 132.902406 
L 113.243704 132.902406 
L 113.420435 130.690835 
L 113.420435 130.690835 
L 113.597165 125.872414 
L 113.597165 125.872414 
L 113.773896 126.64985 
L 113.773896 126.64985 
L 113.950627 123.509053 
L 113.950627 123.509053 
L 114.127358 116.52424 
L 114.127358 116.52424 
L 114.304089 118.004056 
L 114.304089 118.004056 
L 114.48082 112.40401 
L 114.48082 112.40401 
L 114.65755 110.713094 
L 114.65755 110.713094 
L 114.834281 106.119566 
L 114.834281 106.119566 
L 115.011012 97.74552 
L 115.011012 97.74552 
L 115.187743 96.298095 
L 115.187743 96.298095 
L 115.364474 99.604477 
L 115.364474 99.604477 
L 115.541205 109.151128 
L 115.541205 109.151128 
L 115.717935 112.32387 
L 115.717935 112.32387 
L 116.77832 147.279821 
L 116.77832 147.279821 
L 116.955051 145.71724 
L 116.955051 145.71724 
L 117.308513 155.370167 
L 117.308513 155.370167 
L 117.485244 154.749826 
L 117.485244 154.749826 
L 117.838705 159.208821 
L 117.838705 159.208821 
L 118.015436 160.760678 
L 118.015436 160.760678 
L 118.192167 163.386964 
L 118.192167 163.386964 
L 118.368898 163.826698 
L 118.368898 163.826698 
L 118.89909 167.899068 
L 118.89909 167.899068 
L 119.606014 170.463755 
L 119.606014 170.463755 
L 119.959475 171.059021 
L 119.959475 171.059021 
L 120.136206 170.500167 
L 120.136206 170.500167 
L 120.489668 171.391028 
L 120.489668 171.391028 
L 120.666399 171.396054 
L 120.666399 171.396054 
L 120.84313 171.538462 
L 120.84313 171.538462 
L 121.01986 171.160047 
L 121.196591 171.623963 
L 121.196591 171.623963 
L 121.373322 171.097109 
L 121.373322 171.097109 
L 121.726784 171.519921 
L 121.726784 171.519921 
L 121.903515 170.904383 
L 122.080245 171.577443 
L 122.080245 171.577443 
L 122.256976 170.827371 
L 122.256976 170.827371 
L 122.610438 171.300557 
L 122.610438 171.300557 
L 122.787169 171.434141 
L 122.787169 171.434141 
L 122.9639 171.257332 
L 122.9639 171.257332 
L 123.14063 170.146548 
L 123.14063 170.146548 
L 123.317361 170.670219 
L 123.317361 170.670219 
L 123.494092 170.610854 
L 123.494092 170.610854 
L 123.670823 170.703727 
L 123.670823 170.703727 
L 123.847554 170.47135 
L 123.847554 170.47135 
L 124.024285 169.368441 
L 124.024285 169.368441 
L 124.201015 170.2077 
L 124.201015 170.2077 
L 124.377746 169.134613 
L 124.377746 169.134613 
L 124.554477 169.46204 
L 124.554477 169.46204 
L 124.731208 168.484282 
L 124.731208 168.484282 
L 124.907939 168.396994 
L 124.907939 168.396994 
L 125.08467 168.927869 
L 125.08467 168.927869 
L 125.261401 167.325973 
L 125.438131 167.821721 
L 125.438131 167.821721 
L 125.614862 166.876354 
L 125.614862 166.876354 
L 125.968324 167.126211 
L 125.968324 167.126211 
L 126.145055 164.997516 
L 126.145055 164.997516 
L 126.321786 165.68074 
L 126.321786 165.68074 
L 126.498516 164.300331 
L 126.498516 164.300331 
L 126.675247 164.547116 
L 126.675247 164.547116 
L 127.028709 163.891815 
L 127.028709 163.891815 
L 127.20544 164.029308 
L 127.20544 164.029308 
L 127.382171 162.142261 
L 127.382171 162.142261 
L 127.558901 162.479349 
L 127.558901 162.479349 
L 127.735632 161.103072 
L 127.735632 161.103072 
L 128.089094 160.399632 
L 128.089094 160.399632 
L 128.265825 159.012409 
L 128.265825 159.012409 
L 128.442556 159.370831 
L 128.442556 159.370831 
L 128.796017 158.016948 
L 128.796017 158.016948 
L 128.972748 157.159986 
L 128.972748 157.159986 
L 129.149479 155.451033 
L 129.32621 155.792421 
L 129.32621 155.792421 
L 129.502941 155.286789 
L 129.502941 155.286789 
L 129.679671 154.081904 
L 129.679671 154.081904 
L 129.856402 154.182651 
L 129.856402 154.182651 
L 130.033133 151.873628 
L 130.033133 151.873628 
L 130.209864 152.125551 
L 130.209864 152.125551 
L 130.386595 151.29668 
L 130.386595 151.29668 
L 130.563326 148.420538 
L 130.563326 148.420538 
L 130.740056 149.932577 
L 130.740056 149.932577 
L 130.916787 147.412065 
L 130.916787 147.412065 
L 131.093518 147.510857 
L 131.093518 147.510857 
L 131.270249 146.863486 
L 131.270249 146.863486 
L 131.44698 144.16421 
L 131.44698 144.16421 
L 131.623711 145.158498 
L 131.623711 145.158498 
L 131.977172 142.924477 
L 131.977172 142.924477 
L 132.330634 140.04934 
L 132.330634 140.04934 
L 132.507365 140.301486 
L 132.507365 140.301486 
L 132.860826 135.915818 
L 132.860826 135.915818 
L 133.037557 136.597758 
L 133.037557 136.597758 
L 133.214288 134.684406 
L 133.214288 134.684406 
L 133.391019 134.420923 
L 133.391019 134.420923 
L 133.56775 133.506831 
L 133.56775 133.506831 
L 133.744481 130.62019 
L 133.744481 130.62019 
L 133.921211 130.701055 
L 133.921211 130.701055 
L 134.097942 129.250782 
L 134.097942 129.250782 
L 134.274673 126.250828 
L 134.274673 126.250828 
L 134.451404 126.664706 
L 134.451404 126.664706 
L 134.628135 124.79659 
L 134.628135 124.79659 
L 134.804866 121.554543 
L 134.804866 121.554543 
L 134.981596 122.280601 
L 134.981596 122.280601 
L 135.335058 116.530551 
L 135.335058 116.530551 
L 135.511789 117.393433 
L 135.511789 117.393433 
L 135.68852 114.85248 
L 135.68852 114.85248 
L 135.865251 114.285305 
L 135.865251 114.285305 
L 137.279097 97.652704 
L 137.279097 97.652704 
L 137.455828 92.958875 
L 137.455828 92.958875 
L 137.632559 94.307117 
L 137.632559 94.307117 
L 137.986021 86.614844 
L 137.986021 86.614844 
L 138.162752 87.364692 
L 138.162752 87.364692 
L 138.692944 78.770947 
L 138.692944 78.770947 
L 138.869675 76.411272 
L 138.869675 76.411272 
L 139.046406 72.303718 
L 139.046406 72.303718 
L 139.223137 70.907057 
L 139.223137 70.907057 
L 139.399867 68.451159 
L 139.399867 68.451159 
L 139.753329 58.431936 
L 139.93006 58.505933 
L 140.283522 53.568 
L 140.283522 53.568 
L 150.710641 53.568 
L 150.710641 53.568 
L 150.887372 56.778717 
L 150.887372 56.778717 
L 151.240833 72.866035 
L 151.240833 72.866035 
L 151.417564 82.78803 
L 151.417564 82.78803 
L 151.594295 81.932129 
L 151.594295 81.932129 
L 152.831411 125.329699 
L 152.831411 125.329699 
L 153.008142 125.237162 
L 153.008142 125.237162 
L 153.891796 151.624721 
L 153.891796 151.624721 
L 154.068527 161.242409 
L 154.068527 161.242409 
L 154.245258 158.198616 
L 154.245258 158.198616 
L 154.421988 165.494214 
L 154.421988 165.494214 
L 154.598719 166.773318 
L 154.598719 166.773318 
L 154.77545 171.420124 
L 154.77545 171.420124 
L 154.952181 179.346282 
L 154.952181 179.346282 
L 155.128912 179.224872 
L 155.128912 179.224872 
L 155.305643 184.074679 
L 155.305643 184.074679 
L 155.482373 191.983413 
L 155.482373 191.983413 
L 155.659104 189.913637 
L 155.659104 189.913637 
L 155.835835 196.894261 
L 155.835835 196.894261 
L 156.012566 196.425598 
L 156.012566 196.425598 
L 156.189297 201.364424 
L 156.189297 201.364424 
L 156.366028 202.149289 
L 156.366028 202.149289 
L 156.542758 205.794826 
L 156.542758 205.794826 
L 156.719489 212.506494 
L 156.719489 212.506494 
L 156.89622 210.804409 
L 156.89622 210.804409 
L 157.072951 217.156092 
L 157.072951 217.156092 
L 157.249682 215.731005 
L 157.249682 215.731005 
L 157.426413 220.845412 
L 157.426413 220.845412 
L 157.603143 220.249923 
L 157.603143 220.249923 
L 157.779874 224.542048 
L 157.779874 224.542048 
L 157.956605 224.359598 
L 157.956605 224.359598 
L 158.133336 228.013065 
L 158.133336 228.013065 
L 158.310067 228.062657 
L 158.310067 228.062657 
L 158.486798 231.214177 
L 158.486798 231.214177 
L 158.663528 231.378365 
L 158.663528 231.378365 
L 158.840259 234.175541 
L 158.840259 234.175541 
L 159.01699 234.326996 
L 159.193721 236.838796 
L 159.193721 236.838796 
L 159.370452 236.928206 
L 159.370452 236.928206 
L 159.547183 239.184342 
L 159.547183 239.184342 
L 159.723913 239.200482 
L 159.723913 239.200482 
L 159.900644 241.389491 
L 159.900644 241.389491 
L 160.077375 241.160744 
L 160.077375 241.160744 
L 160.254106 242.923478 
L 160.254106 242.923478 
L 160.430837 243.195058 
L 160.430837 243.195058 
L 160.607568 244.301988 
L 160.607568 244.301988 
L 160.784299 244.201633 
L 160.784299 244.201633 
L 160.961029 245.361393 
L 160.961029 245.361393 
L 161.13776 245.566014 
L 161.13776 245.566014 
L 161.314491 246.123584 
L 161.314491 246.123584 
L 161.491222 246.121965 
L 161.491222 246.121965 
L 161.667953 246.611067 
L 161.667953 246.611067 
L 161.844684 246.693663 
L 161.844684 246.693663 
L 162.198145 247.412127 
L 162.198145 247.412127 
L 162.374876 247.240511 
L 162.374876 247.240511 
L 162.551607 247.38169 
L 162.551607 247.38169 
L 163.081799 247.338744 
L 163.081799 247.338744 
L 163.25853 247.4754 
L 163.435261 247.321879 
L 163.435261 247.321879 
L 163.611992 247.532587 
L 163.611992 247.532587 
L 163.965454 247.089614 
L 163.965454 247.089614 
L 164.495646 247.370689 
L 164.495646 247.370689 
L 164.849108 247.005621 
L 164.849108 247.005621 
L 165.025839 245.940408 
L 165.025839 245.940408 
L 165.202569 246.067347 
L 165.202569 246.067347 
L 165.3793 245.392891 
L 165.3793 245.392891 
L 165.556031 245.584444 
L 165.556031 245.584444 
L 165.732762 244.300983 
L 165.732762 244.300983 
L 165.909493 244.609925 
L 165.909493 244.609925 
L 166.086224 242.663345 
L 166.086224 242.663345 
L 166.262954 243.427602 
L 166.262954 243.427602 
L 166.439685 241.436122 
L 166.439685 241.436122 
L 166.616416 242.41885 
L 166.616416 242.41885 
L 166.793147 239.184677 
L 166.793147 239.184677 
L 166.969878 240.733743 
L 166.969878 240.733743 
L 167.676801 236.249059 
L 167.676801 236.249059 
L 167.853532 235.478268 
L 167.853532 235.478268 
L 168.030263 233.871904 
L 168.030263 233.871904 
L 168.206994 233.605908 
L 168.206994 233.605908 
L 168.383724 230.817836 
L 168.383724 230.817836 
L 168.560455 230.787399 
L 168.560455 230.787399 
L 168.737186 228.372157 
L 168.737186 228.372157 
L 168.913917 228.574377 
L 168.913917 228.574377 
L 169.090648 224.985021 
L 169.090648 224.985021 
L 169.267379 225.423248 
L 169.267379 225.423248 
L 169.444109 221.830709 
L 169.444109 221.830709 
L 169.62084 222.504104 
L 169.62084 222.504104 
L 169.797571 218.549458 
L 169.797571 218.549458 
L 169.974302 219.436744 
L 169.974302 219.436744 
L 170.151033 215.178852 
L 170.151033 215.178852 
L 170.327764 216.231109 
L 170.327764 216.231109 
L 170.504494 211.712582 
L 170.504494 211.712582 
L 170.681225 212.897697 
L 170.857956 208.182815 
L 170.857956 208.182815 
L 171.034687 209.450638 
L 171.034687 209.450638 
L 171.211418 204.611665 
L 171.211418 204.611665 
L 171.388149 205.882895 
L 171.388149 205.882895 
L 171.564879 201.003713 
L 171.564879 201.003713 
L 171.74161 202.207145 
L 171.74161 202.207145 
L 171.918341 197.383251 
L 171.918341 197.383251 
L 172.095072 198.353637 
L 172.095072 198.353637 
L 172.271803 193.750335 
L 172.271803 193.750335 
L 172.448534 194.526767 
L 172.448534 194.526767 
L 172.625265 190.136631 
L 172.625265 190.136631 
L 172.801995 190.635115 
L 172.801995 190.635115 
L 172.978726 186.548504 
L 172.978726 186.548504 
L 173.155457 186.806291 
L 173.155457 186.806291 
L 173.332188 182.883198 
L 173.332188 182.883198 
L 173.508919 182.833494 
L 173.508919 182.833494 
L 173.68565 179.498072 
L 173.68565 179.498072 
L 173.86238 178.531819 
L 173.86238 178.531819 
L 174.039111 175.783286 
L 174.039111 175.783286 
L 174.215842 174.896446 
L 174.215842 174.896446 
L 174.392573 172.336562 
L 174.392573 172.336562 
L 174.569304 167.540311 
L 174.569304 167.540311 
L 174.746035 168.266481 
L 174.746035 168.266481 
L 174.922765 164.252247 
L 174.922765 164.252247 
L 175.099496 164.772009 
L 175.099496 164.772009 
L 175.276227 161.321431 
L 175.276227 161.321431 
L 175.452958 160.790054 
L 175.452958 160.790054 
L 175.98315 155.19615 
L 175.98315 155.19615 
L 176.159881 150.850077 
L 176.159881 150.850077 
L 176.336612 151.657 
L 176.336612 151.657 
L 176.513343 149.132634 
L 176.690074 148.489173 
L 176.690074 148.489173 
L 176.866805 146.893029 
L 176.866805 146.893029 
L 177.043535 141.798391 
L 177.043535 141.798391 
L 177.220266 142.994061 
L 177.220266 142.994061 
L 177.396997 140.377772 
L 177.396997 140.377772 
L 177.573728 139.793564 
L 177.573728 139.793564 
L 177.750459 138.258628 
L 177.750459 138.258628 
L 177.92719 133.658174 
L 177.92719 133.658174 
L 178.10392 134.414166 
L 178.10392 134.414166 
L 178.280651 131.320056 
L 178.280651 131.320056 
L 178.634113 128.365506 
L 178.634113 128.365506 
L 178.810844 123.289297 
L 178.810844 123.289297 
L 178.987575 123.402442 
L 178.987575 123.402442 
L 179.164305 120.836303 
L 179.164305 120.836303 
L 179.341036 114.024112 
L 179.341036 114.024112 
L 179.517767 115.010079 
L 179.517767 115.010079 
L 179.694498 110.405381 
L 179.694498 110.405381 
L 179.871229 102.882489 
L 179.871229 102.882489 
L 180.04796 104.869502 
L 180.04796 104.869502 
L 180.22469 98.357149 
L 180.22469 98.357149 
L 180.401421 96.697005 
L 181.108345 76.427523 
L 181.108345 76.427523 
L 181.461806 55.455048 
L 181.461806 55.455048 
L 181.638537 57.143561 
L 181.638537 57.143561 
L 181.815268 56.170048 
L 181.815268 56.170048 
L 181.991999 66.427344 
L 181.991999 66.427344 
L 182.16873 66.76097 
L 182.16873 66.76097 
L 182.522191 81.76029 
L 182.522191 81.76029 
L 182.698922 92.613577 
L 182.698922 92.613577 
L 182.875653 91.66056 
L 182.875653 91.66056 
L 183.229115 107.620771 
L 183.229115 107.620771 
L 183.405845 118.6569 
L 183.405845 118.6569 
L 183.582576 116.672568 
L 183.582576 116.672568 
L 183.759307 122.694311 
L 183.759307 122.694311 
L 183.936038 133.53414 
L 183.936038 133.53414 
L 184.112769 133.952708 
L 184.112769 133.952708 
L 185.526616 182.612064 
L 185.526616 182.612064 
L 185.703346 182.554765 
L 185.703346 182.554765 
L 186.056808 199.627436 
L 186.056808 199.627436 
L 186.233539 197.213702 
L 186.233539 197.213702 
L 186.41027 206.434322 
L 186.41027 206.434322 
L 186.587001 205.722002 
L 186.587001 205.722002 
L 186.763731 212.424176 
L 186.940462 213.623699 
L 186.940462 213.623699 
L 187.293924 221.379861 
L 187.293924 221.379861 
L 187.824116 230.859553 
L 187.824116 230.859553 
L 188.000847 239.777374 
L 188.000847 239.777374 
L 188.177578 237.203305 
L 188.177578 237.203305 
L 188.354309 245.221778 
L 188.354309 245.221778 
L 188.53104 242.559248 
L 188.53104 242.559248 
L 189.237963 252.280419 
L 189.237963 252.280419 
L 189.414694 253.571419 
L 189.591425 256.922031 
L 189.591425 256.922031 
L 189.768156 257.55019 
L 189.768156 257.55019 
L 189.944886 260.200155 
L 189.944886 260.200155 
L 190.121617 260.381823 
L 190.121617 260.381823 
L 190.298348 263.746564 
L 190.298348 263.746564 
L 190.475079 263.414055 
L 190.475079 263.414055 
L 190.65181 266.80901 
L 190.828541 266.135894 
L 190.828541 266.135894 
L 191.888926 271.423927 
L 191.888926 271.423927 
L 192.065656 271.751689 
L 192.065656 271.751689 
L 192.242387 272.552135 
L 192.242387 272.552135 
L 192.595849 272.831478 
L 192.595849 272.831478 
L 192.77258 273.511686 
L 192.77258 273.511686 
L 192.949311 273.335826 
L 192.949311 273.335826 
L 193.302772 274.111979 
L 193.302772 274.111979 
L 193.479503 273.742946 
L 193.479503 273.742946 
L 193.656234 274.410198 
L 193.656234 274.410198 
L 193.832965 274.253437 
L 193.832965 274.253437 
L 194.186426 274.695294 
L 194.186426 274.695294 
L 194.363157 273.879155 
L 194.363157 273.879155 
L 194.539888 274.676808 
L 194.539888 274.676808 
L 194.716619 274.189605 
L 194.716619 274.189605 
L 195.070081 274.773423 
L 195.070081 274.773423 
L 195.246812 274.563496 
L 195.246812 274.563496 
L 195.423542 274.715398 
L 195.423542 274.715398 
L 195.600273 273.720217 
L 195.777004 274.599015 
L 195.777004 274.599015 
L 195.953735 274.326987 
L 195.953735 274.326987 
L 196.130466 274.303532 
L 196.130466 274.303532 
L 196.307197 274.469284 
L 196.307197 274.469284 
L 196.483927 273.659232 
L 196.483927 273.659232 
L 196.660658 274.054736 
L 196.660658 274.054736 
L 196.837389 273.939804 
L 196.837389 273.939804 
L 197.367582 271.785644 
L 197.367582 271.785644 
L 197.544312 272.28787 
L 197.544312 272.28787 
L 198.074505 270.02157 
L 198.074505 270.02157 
L 198.251236 267.949503 
L 198.251236 267.949503 
L 198.427967 268.790326 
L 198.427967 268.790326 
L 198.604697 264.912021 
L 198.604697 264.912021 
L 198.781428 266.553401 
L 198.781428 266.553401 
L 198.958159 265.319253 
L 198.958159 265.319253 
L 199.13489 263.247242 
L 199.13489 263.247242 
L 199.311621 263.305323 
L 199.311621 263.305323 
L 199.488352 258.807571 
L 199.488352 258.807571 
L 199.665082 260.207191 
L 199.665082 260.207191 
L 199.841813 254.723082 
L 199.841813 254.723082 
L 200.018544 256.89757 
L 200.018544 256.89757 
L 200.195275 255.309915 
L 200.195275 255.309915 
L 200.372006 251.819184 
L 200.372006 251.819184 
L 200.548737 251.427366 
L 200.548737 251.427366 
L 200.725467 246.399074 
L 200.725467 246.399074 
L 200.902198 247.325676 
L 200.902198 247.325676 
L 201.078929 240.412906 
L 201.25566 243.341096 
L 201.25566 243.341096 
L 201.962583 230.741159 
L 202.139314 230.773661 
L 202.316045 223.489066 
L 202.316045 223.489066 
L 202.492776 225.074711 
L 202.492776 225.074711 
L 202.669507 216.076079 
L 202.669507 216.076079 
L 202.846237 219.019349 
L 202.846237 219.019349 
L 203.729892 201.377046 
L 203.729892 201.377046 
L 203.906622 195.132588 
L 203.906622 195.132588 
L 204.083353 193.527509 
L 204.083353 193.527509 
L 204.260084 185.8392 
L 204.260084 185.8392 
L 204.436815 184.89925 
L 204.436815 184.89925 
L 204.613546 176.395585 
L 204.613546 176.395585 
L 204.790277 175.584641 
L 204.790277 175.584641 
L 204.967007 167.447718 
L 204.967007 167.447718 
L 205.143738 166.175371 
L 205.143738 166.175371 
L 205.320469 157.998742 
L 205.320469 157.998742 
L 205.4972 155.962753 
L 205.4972 155.962753 
L 205.850662 145.182623 
L 205.850662 145.182623 
L 206.027392 140.035714 
L 206.027392 140.035714 
L 206.204123 126.31628 
L 206.380854 129.17807 
L 206.380854 129.17807 
L 206.557585 117.53383 
L 206.557585 117.53383 
L 206.734316 117.888622 
L 206.734316 117.888622 
L 206.911047 110.138994 
L 206.911047 110.138994 
L 207.087778 107.693092 
L 207.087778 107.693092 
L 207.264508 102.279237 
L 207.264508 102.279237 
L 207.441239 90.865587 
L 207.441239 90.865587 
L 207.61797 91.420979 
L 207.61797 91.420979 
L 207.971432 73.411933 
L 207.971432 73.411933 
L 208.148163 75.244642 
L 208.148163 75.244642 
L 208.324893 67.570183 
L 208.324893 67.570183 
L 208.501624 65.409433 
L 208.501624 65.409433 
L 208.855086 53.930666 
L 208.855086 53.930666 
L 209.031817 53.568 
L 209.031817 53.568 
L 214.863934 53.568 
L 214.863934 53.568 
L 215.040665 57.584971 
L 215.040665 57.584971 
L 215.217396 58.14578 
L 215.217396 58.14578 
L 215.747588 72.142769 
L 215.747588 72.142769 
L 215.924319 78.631052 
L 216.10105 78.956915 
L 216.10105 78.956915 
L 216.454512 87.316441 
L 216.454512 87.316441 
L 216.631243 92.929668 
L 216.631243 92.929668 
L 216.807973 94.236695 
L 216.807973 94.236695 
L 217.161435 102.659216 
L 217.161435 102.659216 
L 217.338166 109.519658 
L 217.338166 109.519658 
L 217.514897 110.676962 
L 217.514897 110.676962 
L 217.868358 119.247307 
L 217.868358 119.247307 
L 218.045089 126.554688 
L 218.045089 126.554688 
L 218.22182 126.320748 
L 218.22182 126.320748 
L 218.398551 129.818571 
L 218.575282 136.797967 
L 218.752013 137.893616 
L 218.752013 137.893616 
L 218.928744 140.942826 
L 218.928744 140.942826 
L 219.105474 147.127584 
L 219.105474 147.127584 
L 219.282205 148.437012 
L 220.165859 167.669037 
L 220.165859 167.669037 
L 220.34259 167.367188 
L 220.34259 167.367188 
L 220.519321 171.408954 
L 220.519321 171.408954 
L 220.696052 172.88112 
L 220.696052 172.88112 
L 221.049514 180.00538 
L 221.049514 180.00538 
L 221.226244 180.145666 
L 221.226244 180.145666 
L 221.402975 183.839231 
L 221.402975 183.839231 
L 221.579706 184.978775 
L 221.579706 184.978775 
L 221.756437 187.229383 
L 221.756437 187.229383 
L 221.933168 191.267017 
L 221.933168 191.267017 
L 222.109899 191.016993 
L 222.109899 191.016993 
L 222.286629 193.749442 
L 222.286629 193.749442 
L 222.46336 193.887997 
L 222.46336 193.887997 
L 222.816822 196.7418 
L 222.816822 196.7418 
L 223.523745 201.999565 
L 223.523745 201.999565 
L 223.700476 202.161742 
L 224.053938 203.507248 
L 224.053938 203.507248 
L 224.58413 204.595191 
L 224.58413 204.595191 
L 224.760861 204.966178 
L 224.760861 204.966178 
L 225.291054 205.293437 
L 225.291054 205.293437 
L 225.467784 205.160746 
L 225.644515 205.374638 
L 225.821246 205.190568 
L 225.821246 205.190568 
L 225.997977 205.407587 
L 225.997977 205.407587 
L 226.174708 205.217821 
L 226.174708 205.217821 
L 226.351439 205.436404 
L 226.351439 205.436404 
L 226.528169 205.20453 
L 226.528169 205.20453 
L 226.7049 205.402449 
L 226.7049 205.402449 
L 226.881631 205.090827 
L 226.881631 205.090827 
L 227.058362 204.370577 
L 227.058362 204.370577 
L 227.235093 204.781159 
L 227.235093 204.781159 
L 227.411824 203.749733 
L 227.411824 203.749733 
L 227.588554 204.178912 
L 227.588554 204.178912 
L 227.765285 202.826872 
L 227.765285 202.826872 
L 227.942016 203.200596 
L 227.942016 203.200596 
L 228.118747 201.567928 
L 228.118747 201.567928 
L 228.295478 201.786288 
L 228.295478 201.786288 
L 228.472209 199.922751 
L 228.472209 199.922751 
L 228.648939 199.857634 
L 228.648939 199.857634 
L 228.82567 197.689233 
L 228.82567 197.689233 
L 229.002401 197.33137 
L 229.002401 197.33137 
L 229.532594 191.411882 
L 229.532594 191.411882 
L 229.709324 185.44727 
L 229.709324 185.44727 
L 229.886055 187.265683 
L 229.886055 187.265683 
L 230.062786 180.808171 
L 230.062786 180.808171 
L 230.239517 181.996414 
L 230.239517 181.996414 
L 230.416248 175.130219 
L 230.592979 175.420285 
L 230.592979 175.420285 
L 230.76971 169.008009 
L 230.94644 167.91962 
L 230.94644 167.91962 
L 231.476633 154.069674 
L 231.476633 154.069674 
L 231.653364 141.212117 
L 231.653364 141.212117 
L 231.830095 144.021522 
L 231.830095 144.021522 
L 232.006825 132.806071 
L 232.006825 132.806071 
L 232.183556 132.806294 
L 232.183556 132.806294 
L 232.537018 119.335601 
L 232.537018 119.335601 
L 232.713749 112.901321 
L 232.89048 99.142293 
L 232.89048 99.142293 
L 233.06721 99.924086 
L 233.06721 99.924086 
L 233.420672 87.863791 
L 233.420672 87.863791 
L 234.304326 61.02907 
L 234.304326 61.02907 
L 234.481057 60.021658 
L 234.481057 60.021658 
L 234.834519 53.568 
L 234.834519 53.568 
L 241.020098 53.568 
L 241.020098 53.568 
L 241.196829 56.107333 
L 241.196829 56.107333 
L 241.37356 55.842454 
L 241.37356 55.842454 
L 242.787406 80.46996 
L 242.787406 80.46996 
L 242.964137 80.720598 
L 242.964137 80.720598 
L 244.201253 101.340628 
L 244.201253 101.340628 
L 244.377984 101.792983 
L 244.377984 101.792983 
L 244.908176 113.770178 
L 244.908176 113.770178 
L 245.084907 113.448839 
L 245.084907 113.448839 
L 245.261638 115.874803 
L 245.261638 115.874803 
L 245.438369 120.368032 
L 245.438369 120.368032 
L 245.6151 120.518984 
L 245.6151 120.518984 
L 246.675485 135.383267 
L 246.675485 135.383267 
L 246.852216 134.859708 
L 246.852216 134.859708 
L 247.205677 139.690192 
L 247.205677 139.690192 
L 247.382408 139.023611 
L 247.382408 139.023611 
L 247.73587 141.36804 
L 247.73587 141.36804 
L 248.619524 144.887587 
L 248.619524 144.887587 
L 248.972986 145.383391 
L 248.972986 145.383391 
L 249.326447 145.88517 
L 249.326447 145.88517 
L 249.679909 145.735949 
L 249.679909 145.735949 
L 249.85664 146.012332 
L 249.85664 146.012332 
L 250.210101 145.699537 
L 250.210101 145.699537 
L 250.563563 146.229184 
L 250.563563 146.229184 
L 250.740294 146.053938 
L 250.740294 146.053938 
L 250.917025 146.243815 
L 250.917025 146.243815 
L 251.270486 145.554727 
L 251.270486 145.554727 
L 251.447217 145.526246 
L 251.447217 145.526246 
L 251.623948 143.951156 
L 251.623948 143.951156 
L 251.800679 144.263951 
L 251.800679 144.263951 
L 251.97741 143.768315 
L 251.97741 143.768315 
L 252.154141 141.348493 
L 252.154141 141.348493 
L 252.330871 141.956548 
L 252.330871 141.956548 
L 252.507602 140.262952 
L 252.684333 139.957417 
L 252.684333 139.957417 
L 252.861064 138.55076 
L 252.861064 138.55076 
L 253.037795 135.883986 
L 253.214526 135.825459 
L 253.214526 135.825459 
L 253.391256 134.518208 
L 253.391256 134.518208 
L 253.567987 130.349112 
L 253.567987 130.349112 
L 253.744718 130.707477 
L 253.744718 130.707477 
L 253.921449 128.764193 
L 253.921449 128.764193 
L 254.09818 123.875461 
L 254.09818 123.875461 
L 254.274911 124.733093 
L 254.451642 121.895596 
L 254.451642 121.895596 
L 254.628372 116.667151 
L 254.628372 116.667151 
L 254.805103 117.996573 
L 254.805103 117.996573 
L 254.981834 114.026625 
L 254.981834 114.026625 
L 255.158565 113.329272 
L 255.158565 113.329272 
L 255.335296 110.626924 
L 255.335296 110.626924 
L 255.512027 106.21054 
L 255.512027 106.21054 
L 255.688757 105.564174 
L 255.688757 105.564174 
L 257.102604 79.38844 
L 257.102604 79.38844 
L 257.279335 72.720276 
L 257.279335 72.720276 
L 257.456066 74.537348 
L 257.456066 74.537348 
L 258.33972 53.568 
L 258.33972 53.568 
L 276.189534 53.568 
L 276.189534 53.568 
L 276.366265 59.662957 
L 276.366265 59.662957 
L 276.542996 60.062873 
L 276.542996 60.062873 
L 276.896458 74.051653 
L 276.896458 74.051653 
L 277.249919 96.777424 
L 277.249919 96.777424 
L 277.42665 96.002724 
L 277.42665 96.002724 
L 277.780112 111.579606 
L 277.780112 111.579606 
L 277.956843 124.587557 
L 277.956843 124.587557 
L 278.133574 124.339879 
L 278.133574 124.339879 
L 278.487035 141.924604 
L 278.487035 141.924604 
L 278.663766 155.653364 
L 278.663766 155.653364 
L 278.840497 151.841908 
L 278.840497 151.841908 
L 279.193959 174.50474 
L 279.193959 174.50474 
L 279.370689 170.988655 
L 279.370689 170.988655 
L 279.54742 181.270076 
L 279.54742 181.270076 
L 279.724151 183.259825 
L 279.724151 183.259825 
L 279.900882 189.057345 
L 279.900882 189.057345 
L 280.077613 201.701792 
L 280.077613 201.701792 
L 280.254344 200.185341 
L 280.254344 200.185341 
L 280.431074 209.425005 
L 280.431074 209.425005 
L 280.607805 210.251586 
L 280.607805 210.251586 
L 280.961267 220.207368 
L 280.961267 220.207368 
L 281.137998 224.289455 
L 281.137998 224.289455 
L 281.314729 235.841604 
L 281.314729 235.841604 
L 281.491459 232.542594 
L 281.491459 232.542594 
L 281.66819 242.795031 
L 281.66819 242.795031 
L 281.844921 239.870526 
L 281.844921 239.870526 
L 282.021652 248.792257 
L 282.021652 248.792257 
L 282.198383 246.901803 
L 282.198383 246.901803 
L 282.375114 255.258815 
L 282.375114 255.258815 
L 282.551844 252.471357 
L 282.551844 252.471357 
L 283.612229 270.720096 
L 283.612229 270.720096 
L 283.78896 270.201619 
L 283.78896 270.201619 
L 283.965691 276.297469 
L 283.965691 276.297469 
L 284.142422 274.54987 
L 284.142422 274.54987 
L 284.672614 279.697952 
L 284.672614 279.697952 
L 284.849345 283.728494 
L 284.849345 283.728494 
L 285.026076 283.27625 
L 285.026076 283.27625 
L 285.202807 287.37632 
L 285.202807 287.37632 
L 285.379538 286.146696 
L 285.379538 286.146696 
L 286.086461 292.025192 
L 286.086461 292.025192 
L 286.263192 291.480523 
L 286.263192 291.480523 
L 286.616654 293.349588 
L 286.616654 293.349588 
L 286.793384 293.59911 
L 286.970115 294.585244 
L 286.970115 294.585244 
L 287.146846 294.383806 
L 287.146846 294.383806 
L 287.500308 295.062898 
L 287.500308 295.062898 
L 287.853769 295.22206 
L 287.853769 295.22206 
L 288.207231 295.488 
L 288.207231 295.488 
L 288.383962 295.282541 
L 288.383962 295.282541 
L 288.560693 295.414785 
L 288.560693 295.414785 
L 288.737424 295.208377 
L 288.737424 295.208377 
L 289.090885 295.474597 
L 289.090885 295.474597 
L 289.267616 295.190116 
L 289.267616 295.190116 
L 289.444347 295.336768 
L 289.444347 295.336768 
L 289.797809 294.954277 
L 289.797809 294.954277 
L 289.97454 295.04687 
L 289.97454 295.04687 
L 290.15127 293.990704 
L 290.15127 293.990704 
L 290.328001 294.367723 
L 290.504732 294.168798 
L 290.504732 294.168798 
L 290.681463 292.92806 
L 290.681463 292.92806 
L 290.858194 292.949952 
L 290.858194 292.949952 
L 291.034925 290.577823 
L 291.034925 290.577823 
L 291.211655 291.31438 
L 291.211655 291.31438 
L 291.388386 290.685606 
L 291.388386 290.685606 
L 291.565117 288.497547 
L 291.565117 288.497547 
L 291.741848 288.466273 
L 291.741848 288.466273 
L 291.918579 284.902272 
L 291.918579 284.902272 
L 292.09531 285.778836 
L 292.09531 285.778836 
L 292.27204 284.481637 
L 292.27204 284.481637 
L 292.448771 282.133913 
L 292.448771 282.133913 
L 292.625502 281.825697 
L 292.625502 281.825697 
L 292.802233 277.344476 
L 292.802233 277.344476 
L 292.978964 278.440237 
L 292.978964 278.440237 
L 293.155695 276.812707 
L 293.155695 276.812707 
L 293.332425 274.061214 
L 293.332425 274.061214 
L 293.509156 273.626897 
L 293.509156 273.626897 
L 293.685887 268.251241 
L 293.685887 268.251241 
L 293.862618 269.575525 
L 293.862618 269.575525 
L 294.039349 267.803298 
L 294.21608 264.27811 
L 294.21608 264.27811 
L 294.39281 264.113586 
L 294.39281 264.113586 
L 294.569541 257.293912 
L 294.569541 257.293912 
L 294.746272 259.428414 
L 294.746272 259.428414 
L 294.923003 257.258728 
L 294.923003 257.258728 
L 295.099734 253.058973 
L 295.099734 253.058973 
L 295.276465 252.935105 
L 295.276465 252.935105 
L 295.453195 244.920989 
L 295.453195 244.920989 
L 295.629926 247.374877 
L 295.629926 247.374877 
L 296.160119 239.301173 
L 296.160119 239.301173 
L 296.33685 231.925771 
L 296.33685 231.925771 
L 296.51358 233.005783 
L 296.51358 233.005783 
L 296.690311 223.907857 
L 296.690311 223.907857 
L 296.867042 227.195754 
L 296.867042 227.195754 
L 297.397235 217.080308 
L 297.397235 217.080308 
L 297.573965 211.241016 
L 297.573965 211.241016 
L 297.750696 211.047285 
L 297.750696 211.047285 
L 297.927427 203.921293 
L 297.927427 203.921293 
L 298.104158 204.714032 
L 298.280889 196.800718 
L 298.280889 196.800718 
L 298.45762 198.596178 
L 298.45762 198.596178 
L 298.63435 190.756414 
L 298.63435 190.756414 
L 298.811081 192.804801 
L 298.811081 192.804801 
L 298.987812 185.431075 
L 298.987812 185.431075 
L 299.164543 187.477005 
L 299.164543 187.477005 
L 299.341274 180.810517 
L 299.341274 180.810517 
L 299.518005 182.235492 
L 299.518005 182.235492 
L 299.694735 176.739319 
L 299.694735 176.739319 
L 299.871466 177.8539 
L 299.871466 177.8539 
L 300.048197 173.073231 
L 300.048197 173.073231 
L 300.224928 173.785048 
L 300.224928 173.785048 
L 300.401659 169.514033 
L 300.401659 169.514033 
L 300.57839 169.746018 
L 300.57839 169.746018 
L 300.755121 165.981082 
L 300.755121 165.981082 
L 300.931851 165.598479 
L 300.931851 165.598479 
L 301.285313 161.18377 
L 301.285313 161.18377 
L 301.462044 158.443056 
L 301.462044 158.443056 
L 301.638775 151.864358 
L 301.815506 153.286987 
L 301.815506 153.286987 
L 301.992236 147.234585 
L 301.992236 147.234585 
L 302.168967 146.947814 
L 302.168967 146.947814 
L 302.522429 139.238116 
L 302.522429 139.238116 
L 302.69916 135.333564 
L 302.69916 135.333564 
L 302.875891 144.24971 
L 302.875891 144.24971 
L 303.052621 144.109871 
L 303.052621 144.109871 
L 303.406083 156.890304 
L 303.406083 156.890304 
L 303.582814 164.165071 
L 303.582814 164.165071 
L 303.759545 177.454711 
L 303.759545 177.454711 
L 303.936276 177.271144 
L 303.936276 177.271144 
L 304.289737 187.621815 
L 304.289737 187.621815 
L 304.466468 192.277835 
L 304.466468 192.277835 
L 304.643199 201.307517 
L 304.643199 201.307517 
L 304.81993 200.636188 
L 304.81993 200.636188 
L 304.996661 206.758063 
L 304.996661 206.758063 
L 305.173391 207.898054 
L 305.173391 207.898054 
L 305.350122 211.631493 
L 305.350122 211.631493 
L 305.526853 219.795389 
L 305.526853 219.795389 
L 305.703584 217.25064 
L 305.703584 217.25064 
L 305.880315 224.459228 
L 305.880315 224.459228 
L 306.057046 222.642268 
L 306.057046 222.642268 
L 306.233776 228.315138 
L 306.233776 228.315138 
L 306.410507 227.53692 
L 306.410507 227.53692 
L 306.587238 232.303069 
L 306.587238 232.303069 
L 306.763969 232.159432 
L 306.763969 232.159432 
L 306.9407 236.122511 
L 306.9407 236.122511 
L 307.117431 235.965416 
L 307.117431 235.965416 
L 307.294161 239.688691 
L 307.294161 239.688691 
L 307.470892 239.658478 
L 307.470892 239.658478 
L 307.647623 243.220524 
L 307.647623 243.220524 
L 307.824354 243.204441 
L 307.824354 243.204441 
L 308.001085 245.966321 
L 308.001085 245.966321 
L 308.177816 246.466481 
L 308.177816 246.466481 
L 308.354546 248.944606 
L 308.354546 248.944606 
L 308.531277 248.784718 
L 308.531277 248.784718 
L 308.708008 251.069391 
L 308.708008 251.069391 
L 308.884739 251.267646 
L 308.884739 251.267646 
L 309.06147 253.333011 
L 309.06147 253.333011 
L 309.238201 252.744167 
L 309.238201 252.744167 
L 310.121855 257.376788 
L 310.121855 257.376788 
L 310.298586 257.951111 
L 310.298586 257.951111 
L 310.475316 258.119991 
L 310.475316 258.119991 
L 310.652047 259.401776 
L 310.652047 259.401776 
L 311.005509 259.646718 
L 311.005509 259.646718 
L 311.18224 260.406507 
L 311.18224 260.406507 
L 311.358971 260.35228 
L 311.358971 260.35228 
L 311.535701 261.018359 
L 311.712432 260.771407 
L 311.712432 260.771407 
L 312.242625 261.513716 
L 312.242625 261.513716 
L 312.596087 261.31267 
L 312.596087 261.31267 
L 312.772817 261.729953 
L 312.772817 261.729953 
L 312.949548 261.602233 
L 312.949548 261.602233 
L 313.30301 261.750449 
L 313.30301 261.750449 
L 313.479741 261.369074 
L 313.833202 261.391189 
L 313.833202 261.391189 
L 314.009933 261.698233 
L 314.009933 261.698233 
L 314.186664 260.465592 
L 314.186664 260.465592 
L 314.363395 261.526338 
L 314.363395 261.526338 
L 314.540126 260.753089 
L 314.540126 260.753089 
L 314.716857 261.083029 
L 314.716857 261.083029 
L 314.893587 260.752698 
L 314.893587 260.752698 
L 315.070318 260.137663 
L 315.070318 260.137663 
L 315.247049 260.363617 
L 315.247049 260.363617 
L 315.42378 258.483048 
L 315.42378 258.483048 
L 315.600511 259.654257 
L 315.600511 259.654257 
L 315.953972 258.200018 
L 315.953972 258.200018 
L 316.130703 257.704661 
L 316.130703 257.704661 
L 316.307434 255.448749 
L 316.307434 255.448749 
L 316.484165 255.595681 
L 316.484165 255.595681 
L 316.660896 253.338763 
L 316.660896 253.338763 
L 316.837627 254.162775 
L 316.837627 254.162775 
L 317.014357 250.450335 
L 317.014357 250.450335 
L 317.191088 252.132873 
L 317.191088 252.132873 
L 317.367819 250.955185 
L 317.367819 250.955185 
L 317.54455 248.298631 
L 317.54455 248.298631 
L 317.721281 247.982206 
L 317.721281 247.982206 
L 317.898012 245.119802 
L 317.898012 245.119802 
L 318.074742 245.520276 
L 318.074742 245.520276 
L 318.251473 240.480982 
L 318.251473 240.480982 
L 318.428204 241.953092 
L 318.428204 241.953092 
L 318.604935 236.315851 
L 318.604935 236.315851 
L 318.781666 238.77443 
L 318.781666 238.77443 
L 318.958397 237.223913 
L 318.958397 237.223913 
L 319.135127 234.173251 
L 319.135127 234.173251 
L 319.311858 233.205546 
L 319.311858 233.205546 
L 319.488589 229.371807 
L 319.488589 229.371807 
L 319.66532 229.399786 
L 319.66532 229.399786 
L 319.842051 225.059465 
L 319.842051 225.059465 
L 320.018782 225.790381 
L 320.018782 225.790381 
L 320.195512 219.885023 
L 320.195512 219.885023 
L 320.372243 221.623798 
L 320.548974 215.031306 
L 320.548974 215.031306 
L 320.725705 217.296098 
L 320.725705 217.296098 
L 320.902436 210.102923 
L 320.902436 210.102923 
L 321.079167 212.783547 
L 321.079167 212.783547 
L 323.199937 183.443057 
L 323.199937 183.443057 
L 323.376667 175.255426 
L 323.376667 175.255426 
L 323.553398 177.303702 
L 323.553398 177.303702 
L 323.730129 170.432761 
L 323.730129 170.432761 
L 323.90686 172.007292 
L 323.90686 172.007292 
L 324.083591 165.195938 
L 324.083591 165.195938 
L 324.260322 165.79785 
L 324.260322 165.79785 
L 324.437053 160.000722 
L 324.437053 160.000722 
L 324.613783 159.895842 
L 324.613783 159.895842 
L 324.790514 154.496842 
L 324.790514 154.496842 
L 324.967245 153.052042 
L 324.967245 153.052042 
L 325.143976 148.890931 
L 325.143976 148.890931 
L 325.320707 138.896504 
L 325.320707 138.896504 
L 325.497438 141.674692 
L 325.497438 141.674692 
L 325.674168 133.346887 
L 325.674168 133.346887 
L 325.850899 133.685762 
L 325.850899 133.685762 
L 326.02763 126.783658 
L 326.02763 126.783658 
L 326.204361 124.603362 
L 326.204361 124.603362 
L 326.381092 120.334915 
L 326.381092 120.334915 
L 326.557823 113.227631 
L 326.734553 113.52842 
L 326.734553 113.52842 
L 326.911284 114.518687 
L 326.911284 114.518687 
L 327.088015 124.962286 
L 327.088015 124.962286 
L 327.264746 123.368041 
L 327.441477 131.448838 
L 327.441477 131.448838 
L 327.618208 133.296569 
L 327.618208 133.296569 
L 327.794938 137.952645 
L 327.794938 137.952645 
L 327.971669 146.820764 
L 327.971669 146.820764 
L 328.1484 147.562068 
L 328.1484 147.562068 
L 328.325131 152.291694 
L 328.325131 152.291694 
L 328.501862 160.514061 
L 328.501862 160.514061 
L 328.678593 159.648331 
L 328.678593 159.648331 
L 329.032054 172.230454 
L 329.032054 172.230454 
L 329.208785 170.769849 
L 329.208785 170.769849 
L 329.385516 176.029233 
L 329.385516 176.029233 
L 329.562247 176.692408 
L 329.562247 176.692408 
L 329.738978 180.194532 
L 329.738978 180.194532 
L 329.915708 186.090788 
L 329.915708 186.090788 
L 330.092439 185.534056 
L 330.092439 185.534056 
L 330.26917 189.793734 
L 330.26917 189.793734 
L 330.445901 190.292107 
L 330.799363 194.5758 
L 330.799363 194.5758 
L 330.976093 196.351267 
L 330.976093 196.351267 
L 331.152824 200.295526 
L 331.152824 200.295526 
L 331.329555 199.888462 
L 331.329555 199.888462 
L 331.506286 202.622642 
L 331.506286 202.622642 
L 331.683017 202.874342 
L 331.683017 202.874342 
L 332.036478 205.354756 
L 332.036478 205.354756 
L 332.743402 209.221947 
L 332.743402 209.221947 
L 332.920133 209.039888 
L 332.920133 209.039888 
L 333.096863 209.687482 
L 333.450325 210.012285 
L 333.450325 210.012285 
L 333.627056 210.208696 
L 333.627056 210.208696 
L 333.803787 210.151956 
L 333.803787 210.151956 
L 333.980518 210.368696 
L 333.980518 210.368696 
L 334.157248 210.194176 
L 334.157248 210.194176 
L 334.333979 210.406839 
L 334.333979 210.406839 
L 334.51071 210.215956 
L 334.51071 210.215956 
L 334.687441 210.430015 
L 334.687441 210.430015 
L 334.864172 210.222546 
L 334.864172 210.222546 
L 335.040903 210.70975 
L 335.040903 210.70975 
L 335.394364 209.785325 
L 335.394364 209.785325 
L 335.571095 209.870379 
L 335.571095 209.870379 
L 335.747826 208.879833 
L 335.747826 208.879833 
L 335.924557 209.307336 
L 335.924557 209.307336 
L 336.101288 207.934019 
L 336.101288 207.934019 
L 336.278019 208.354877 
L 336.278019 208.354877 
L 336.454749 206.569191 
L 336.63148 206.937106 
L 336.63148 206.937106 
L 336.808211 204.796517 
L 336.808211 204.796517 
L 336.984942 204.962492 
L 336.984942 204.962492 
L 337.161673 202.477833 
L 337.161673 202.477833 
L 337.338404 202.323641 
L 337.338404 202.323641 
L 337.515134 199.396902 
L 337.515134 199.396902 
L 337.691865 198.923046 
L 337.691865 198.923046 
L 338.222058 191.256015 
L 338.222058 191.256015 
L 338.398789 182.913411 
L 338.398789 182.913411 
L 338.575519 185.486977 
L 338.575519 185.486977 
L 338.75225 176.474273 
L 338.75225 176.474273 
L 338.928981 178.600622 
L 338.928981 178.600622 
L 339.105712 168.643277 
L 339.105712 168.643277 
L 339.282443 169.862737 
L 339.282443 169.862737 
L 339.459174 159.237581 
L 339.459174 159.237581 
L 339.635904 159.34207 
L 339.635904 159.34207 
L 339.812635 154.19946 
L 339.812635 154.19946 
L 339.989366 154.912674 
L 339.989366 154.912674 
L 340.342828 171.584815 
L 340.342828 171.584815 
L 340.519559 170.081711 
L 340.519559 170.081711 
L 340.696289 177.377922 
L 340.87302 177.399367 
L 340.87302 177.399367 
L 341.049751 181.677308 
L 341.049751 181.677308 
L 341.226482 182.25152 
L 341.226482 182.25152 
L 341.579944 186.624288 
L 341.579944 186.624288 
L 341.756674 186.887156 
L 341.756674 186.887156 
L 342.110136 187.721947 
L 342.110136 187.721947 
L 342.463598 188.476152 
L 342.463598 188.476152 
L 342.817059 188.169388 
L 342.817059 188.169388 
L 342.99379 188.384676 
L 342.99379 188.384676 
L 343.170521 188.227803 
L 343.170521 188.227803 
L 343.347252 188.421032 
L 343.347252 188.421032 
L 343.877444 187.131261 
L 343.877444 187.131261 
L 344.054175 184.830392 
L 344.054175 184.830392 
L 344.230906 185.475529 
L 344.230906 185.475529 
L 344.407637 182.193384 
L 344.407637 182.193384 
L 344.584368 182.269446 
L 344.584368 182.269446 
L 345.11456 174.654073 
L 345.11456 174.654073 
L 345.291291 165.528336 
L 345.291291 165.528336 
L 345.468022 167.6405 
L 345.468022 167.6405 
L 345.644753 158.817505 
L 345.644753 158.817505 
L 345.821484 158.762273 
L 345.821484 158.762273 
L 345.998214 150.889002 
L 345.998214 150.889002 
L 346.174945 149.717401 
L 346.174945 149.717401 
L 346.351676 146.582412 
L 346.351676 146.582412 
L 346.528407 158.094686 
L 346.528407 158.094686 
L 346.705138 156.166592 
L 346.705138 156.166592 
L 346.881869 165.372022 
L 346.881869 165.372022 
L 347.058599 165.926073 
L 347.058599 165.926073 
L 347.412061 176.636171 
L 347.412061 176.636171 
L 347.588792 176.050566 
L 347.588792 176.050566 
L 347.765523 180.185485 
L 347.765523 180.185485 
L 347.942254 180.820513 
L 347.942254 180.820513 
L 348.472446 184.661233 
L 348.472446 184.661233 
L 348.825908 185.903702 
L 348.825908 185.903702 
L 349.3561 186.482717 
L 349.3561 186.482717 
L 349.532831 185.957538 
L 349.532831 185.957538 
L 349.709562 186.612895 
L 349.709562 186.612895 
L 349.886293 186.426983 
L 349.886293 186.426983 
L 350.063024 186.661649 
L 350.063024 186.661649 
L 350.239755 186.481098 
L 350.239755 186.481098 
L 350.416485 185.766376 
L 350.416485 185.766376 
L 350.593216 186.480874 
L 350.593216 186.480874 
L 350.769947 185.64061 
L 350.769947 185.64061 
L 350.946678 186.355052 
L 350.946678 186.355052 
L 351.30014 185.60498 
L 351.30014 185.60498 
L 351.47687 185.426216 
L 351.47687 185.426216 
L 351.653601 185.48748 
L 351.653601 185.48748 
L 351.830332 184.923041 
L 351.830332 184.923041 
L 352.007063 183.23503 
L 352.007063 183.23503 
L 352.183794 184.168724 
L 352.183794 184.168724 
L 352.360525 182.957808 
L 352.360525 182.957808 
L 352.537255 183.287246 
L 352.537255 183.287246 
L 352.713986 182.216672 
L 352.713986 182.216672 
L 352.890717 182.311778 
L 352.890717 182.311778 
L 353.244179 180.82392 
L 353.244179 180.82392 
L 353.42091 180.486385 
L 353.42091 180.486385 
L 353.59764 178.385278 
L 353.59764 178.385278 
L 353.774371 179.306854 
L 353.774371 179.306854 
L 353.951102 177.398083 
L 353.951102 177.398083 
L 354.127833 177.588351 
L 354.127833 177.588351 
L 354.304564 176.757693 
L 354.304564 176.757693 
L 354.481295 176.552402 
L 354.481295 176.552402 
L 354.658025 175.578051 
L 354.658025 175.578051 
L 354.834756 172.76105 
L 354.834756 172.76105 
L 355.011487 173.932985 
L 355.011487 173.932985 
L 355.188218 171.827355 
L 355.188218 171.827355 
L 355.364949 172.084472 
L 355.364949 172.084472 
L 355.71841 169.542347 
L 355.71841 169.542347 
L 355.895141 168.622613 
L 355.895141 168.622613 
L 356.071872 165.442332 
L 356.071872 165.442332 
L 356.248603 166.37128 
L 356.248603 166.37128 
L 356.425334 163.137219 
L 356.425334 163.137219 
L 356.602065 163.25042 
L 356.602065 163.25042 
L 357.132257 159.562272 
L 357.132257 159.562272 
L 357.308988 155.960742 
L 357.308988 155.960742 
L 357.485719 156.55813 
L 357.485719 156.55813 
L 357.66245 153.90515 
L 357.66245 153.90515 
L 357.83918 153.312118 
L 357.83918 153.312118 
L 358.015911 151.946954 
L 358.015911 151.946954 
L 358.192642 147.955561 
L 358.192642 147.955561 
L 358.369373 148.754387 
L 358.369373 148.754387 
L 358.546104 145.946322 
L 358.546104 145.946322 
L 358.722835 145.379091 
L 358.722835 145.379091 
L 358.899565 144.098367 
L 359.076296 140.287972 
L 359.076296 140.287972 
L 359.253027 140.911384 
L 359.253027 140.911384 
L 359.606489 138.227745 
L 359.606489 138.227745 
L 359.78322 137.172584 
L 359.78322 137.172584 
L 359.959951 134.534459 
L 359.959951 134.534459 
L 360.136681 134.790068 
L 360.136681 134.790068 
L 360.490143 130.411492 
L 360.490143 130.411492 
L 360.666874 131.041048 
L 360.666874 131.041048 
L 360.843605 129.449148 
L 360.843605 129.449148 
L 361.020336 129.317071 
L 361.020336 129.317071 
L 361.197066 128.7762 
L 361.197066 128.7762 
L 361.373797 126.838388 
L 361.373797 126.838388 
L 361.550528 126.986269 
L 361.550528 126.986269 
L 361.727259 126.190514 
L 361.90399 124.756995 
L 361.90399 124.756995 
L 362.080721 125.045385 
L 362.080721 125.045385 
L 362.257451 124.261135 
L 362.257451 124.261135 
L 362.434182 122.804216 
L 362.434182 122.804216 
L 362.610913 123.185144 
L 362.610913 123.185144 
L 362.787644 122.665941 
L 362.787644 122.665941 
L 362.964375 120.520995 
L 362.964375 120.520995 
L 363.141106 121.00306 
L 363.141106 121.00306 
L 363.317836 119.71072 
L 363.317836 119.71072 
L 363.494567 117.504846 
L 363.494567 117.504846 
L 363.671298 118.110667 
L 363.671298 118.110667 
L 364.02476 113.448001 
L 364.02476 113.448001 
L 364.201491 114.179644 
L 364.201491 114.179644 
L 364.378221 111.899885 
L 364.378221 111.899885 
L 364.554952 107.892464 
L 364.554952 107.892464 
L 364.731683 108.821188 
L 364.731683 108.821188 
L 364.908414 106.00832 
L 364.908414 106.00832 
L 365.085145 101.352244 
L 365.085145 101.352244 
L 365.261876 102.183684 
L 365.438606 98.892939 
L 365.438606 98.892939 
L 365.615337 92.88365 
L 365.615337 92.88365 
L 365.792068 93.463 
L 365.792068 93.463 
L 365.968799 89.798866 
L 365.968799 89.798866 
L 366.14553 83.455002 
L 366.14553 83.455002 
L 366.322261 83.378549 
L 366.322261 83.378549 
L 366.498991 79.187784 
L 366.498991 79.187784 
L 366.675722 71.958309 
L 366.675722 71.958309 
L 366.852453 70.146542 
L 366.852453 70.146542 
L 367.205915 60.123689 
L 367.205915 60.123689 
L 367.382646 53.568 
L 367.382646 53.568 
L 396.013041 53.568 
L 396.013041 53.568 
L 396.189772 53.690303 
L 396.543234 53.568 
L 396.543234 53.568 
L 396.896695 53.568 
L 396.896695 53.568 
L 397.250157 53.921898 
L 397.250157 53.921898 
L 397.426888 53.568 
L 397.426888 53.568 
L 398.487273 53.568 
L 398.487273 53.568 
" clip-path="url(#p2d1cbe2054)" style="fill: none; stroke: #ff7f0e; stroke-width: 1.5; stroke-linecap: square"/>
   </g>
   <g id="patch_3">
    <path d="M 57.6 307.584 
L 57.6 41.472 
" style="fill: none; stroke: #000000; stroke-width: 0.8; stroke-linejoin: miter; stroke-linecap: square"/>
   </g>
   <g id="patch_4">
    <path d="M 414.72 307.584 
L 414.72 41.472 
" style="fill: none; stroke: #000000; stroke-width: 0.8; stroke-linejoin: miter; stroke-linecap: square"/>
   </g>
   <g id="patch_5">
    <path d="M 57.6 307.584 
L 414.72 307.584 
" style="fill: none; stroke: #000000; stroke-width: 0.8; stroke-linejoin: miter; stroke-linecap: square"/>
   </g>
   <g id="patch_6">
    <path d="M 57.6 41.472 
L 414.72 41.472 
" style="fill: none; stroke: #000000; stroke-width: 0.8; stroke-linejoin: miter; stroke-linecap: square"/>
   </g>
   <g id="text_16">
    <!-- Actual speed vs Expected speed -->
    <g transform="translate(138.808125 35.472) scale(0.12 -0.12)">
     <defs>
      <path id="DejaVuSans-41" d="M 2188 4044 
L 1331 1722 
L 3047 1722 
L 2188 4044 
z
M 1831 4666 
L 2547 4666 
L 4325 0 
L 3669 0 
L 3244 1197 
L 1141 1197 
L 716 0 
L 50 0 
L 1831 4666 
z
" transform="scale(0.015625)"/>
      <path id="DejaVuSans-75" d="M 544 1381 
L 544 3500 
L 1119 3500 
L 1119 1403 
Q 1119 906 1312 657 
Q 1506 409 1894 409 
Q 2359 409 2629 706 
Q 2900 1003 2900 1516 
L 2900 3500 
L 3475 3500 
L 3475 0 
L 2900 0 
L 2900 538 
Q 2691 219 2414 64 
Q 2138 -91 1772 -91 
Q 1169 -91 856 284 
Q 544 659 544 1381 
z
M 1991 3584 
L 1991 3584 
z
" transform="scale(0.015625)"/>
      <path id="DejaVuSans-61" d="M 2194 1759 
Q 1497 1759 1228 1600 
Q 959 1441 959 1056 
Q 959 750 1161 570 
Q 1363 391 1709 391 
Q 2188 391 2477 730 
Q 2766 1069 2766 1631 
L 2766 1759 
L 2194 1759 
z
M 3341 1997 
L 3341 0 
L 2766 0 
L 2766 531 
Q 2569 213 2275 61 
Q 1981 -91 1556 -91 
Q 1019 -91 701 211 
Q 384 513 384 1019 
Q 384 1609 779 1909 
Q 1175 2209 1959 2209 
L 2766 2209 
L 2766 2266 
Q 2766 2663 2505 2880 
Q 2244 3097 1772 3097 
Q 1472 3097 1187 3025 
Q 903 2953 641 2809 
L 641 3341 
Q 956 3463 1253 3523 
Q 1550 3584 1831 3584 
Q 2591 3584 2966 3190 
Q 3341 2797 3341 1997 
z
" transform="scale(0.015625)"/>
      <path id="DejaVuSans-20" transform="scale(0.015625)"/>
      <path id="DejaVuSans-70" d="M 1159 525 
L 1159 -1331 
L 581 -1331 
L 581 3500 
L 1159 3500 
L 1159 2969 
Q 1341 3281 1617 3432 
Q 1894 3584 2278 3584 
Q 2916 3584 3314 3078 
Q 3713 2572 3713 1747 
Q 3713 922 3314 415 
Q 2916 -91 2278 -91 
Q 1894 -91 1617 61 
Q 1341 213 1159 525 
z
M 3116 1747 
Q 3116 2381 2855 2742 
Q 2594 3103 2138 3103 
Q 1681 3103 1420 2742 
Q 1159 2381 1159 1747 
Q 1159 1113 1420 752 
Q 1681 391 2138 391 
Q 2594 391 2855 752 
Q 3116 1113 3116 1747 
z
" transform="scale(0.015625)"/>
      <path id="DejaVuSans-64" d="M 2906 2969 
L 2906 4863 
L 3481 4863 
L 3481 0 
L 2906 0 
L 2906 525 
Q 2725 213 2448 61 
Q 2172 -91 1784 -91 
Q 1150 -91 751 415 
Q 353 922 353 1747 
Q 353 2572 751 3078 
Q 1150 3584 1784 3584 
Q 2172 3584 2448 3432 
Q 2725 3281 2906 2969 
z
M 947 1747 
Q 947 1113 1208 752 
Q 1469 391 1925 391 
Q 2381 391 2643 752 
Q 2906 1113 2906 1747 
Q 2906 2381 2643 2742 
Q 2381 3103 1925 3103 
Q 1469 3103 1208 2742 
Q 947 2381 947 1747 
z
" transform="scale(0.015625)"/>
      <path id="DejaVuSans-76" d="M 191 3500 
L 800 3500 
L 1894 563 
L 2988 3500 
L 3597 3500 
L 2284 0 
L 1503 0 
L 191 3500 
z
" transform="scale(0.015625)"/>
      <path id="DejaVuSans-45" d="M 628 4666 
L 3578 4666 
L 3578 4134 
L 1259 4134 
L 1259 2753 
L 3481 2753 
L 3481 2222 
L 1259 2222 
L 1259 531 
L 3634 531 
L 3634 0 
L 628 0 
L 628 4666 
z
" transform="scale(0.015625)"/>
      <path id="DejaVuSans-78" d="M 3513 3500 
L 2247 1797 
L 3578 0 
L 2900 0 
L 1881 1375 
L 863 0 
L 184 0 
L 1544 1831 
L 300 3500 
L 978 3500 
L 1906 2253 
L 2834 3500 
L 3513 3500 
z
" transform="scale(0.015625)"/>
     </defs>
     <use xlink:href="#DejaVuSans-41"/>
     <use xlink:href="#DejaVuSans-63" x="66.658203"/>
     <use xlink:href="#DejaVuSans-74" x="121.638672"/>
     <use xlink:href="#DejaVuSans-75" x="160.847656"/>
     <use xlink:href="#DejaVuSans-61" x="224.226562"/>
     <use xlink:href="#DejaVuSans-6c" x="285.505859"/>
     <use xlink:href="#DejaVuSans-20" x="313.289062"/>
     <use xlink:href="#DejaVuSans-73" x="345.076172"/>
     <use xlink:href="#DejaVuSans-70" x="397.175781"/>
     <use xlink:href="#DejaVuSans-65" x="460.652344"/>
     <use xlink:href="#DejaVuSans-65" x="522.175781"/>
     <use xlink:href="#DejaVuSans-64" x="583.699219"/>
     <use xlink:href="#DejaVuSans-20" x="647.175781"/>
     <use xlink:href="#DejaVuSans-76" x="678.962891"/>
     <use xlink:href="#DejaVuSans-73" x="738.142578"/>
     <use xlink:href="#DejaVuSans-20" x="790.242188"/>
     <use xlink:href="#DejaVuSans-45" x="822.029297"/>
     <use xlink:href="#DejaVuSans-78" x="885.212891"/>
     <use xlink:href="#DejaVuSans-70" x="944.392578"/>
     <use xlink:href="#DejaVuSans-65" x="1007.869141"/>
     <use xlink:href="#DejaVuSans-63" x="1069.392578"/>
     <use xlink:href="#DejaVuSans-74" x="1124.373047"/>
     <use xlink:href="#DejaVuSans-65" x="1163.582031"/>
     <use xlink:href="#DejaVuSans-64" x="1225.105469"/>
     <use xlink:href="#DejaVuSans-20" x="1288.582031"/>
     <use xlink:href="#DejaVuSans-73" x="1320.369141"/>
     <use xlink:href="#DejaVuSans-70" x="1372.46875"/>
     <use xlink:href="#DejaVuSans-65" x="1435.945312"/>
     <use xlink:href="#DejaVuSans-65" x="1497.46875"/>
     <use xlink:href="#DejaVuSans-64" x="1558.992188"/>
    </g>
   </g>
   <g id="legend_1">
    <g id="patch_7">
     <path d="M 64.6 302.584 
L 176.65 302.584 
Q 178.65 302.584 178.65 300.584 
L 178.65 272.22775 
Q 178.65 270.22775 176.65 270.22775 
L 64.6 270.22775 
Q 62.6 270.22775 62.6 272.22775 
L 62.6 300.584 
Q 62.6 302.584 64.6 302.584 
z
" style="fill: #ffffff; opacity: 0.8; stroke: #cccccc; stroke-linejoin: miter"/>
    </g>
    <g id="line2d_29">
     <path d="M 66.6 278.326187 
L 76.6 278.326187 
L 86.6 278.326187 
" style="fill: none; stroke: #1f77b4; stroke-width: 1.5; stroke-linecap: square"/>
    </g>
    <g id="text_17">
     <!-- Actual speed -->
     <g transform="translate(94.6 281.826187) scale(0.1 -0.1)">
      <use xlink:href="#DejaVuSans-41"/>
      <use xlink:href="#DejaVuSans-63" x="66.658203"/>
      <use xlink:href="#DejaVuSans-74" x="121.638672"/>
      <use xlink:href="#DejaVuSans-75" x="160.847656"/>
      <use xlink:href="#DejaVuSans-61" x="224.226562"/>
      <use xlink:href="#DejaVuSans-6c" x="285.505859"/>
      <use xlink:href="#DejaVuSans-20" x="313.289062"/>
      <use xlink:href="#DejaVuSans-73" x="345.076172"/>
      <use xlink:href="#DejaVuSans-70" x="397.175781"/>
      <use xlink:href="#DejaVuSans-65" x="460.652344"/>
      <use xlink:href="#DejaVuSans-65" x="522.175781"/>
      <use xlink:href="#DejaVuSans-64" x="583.699219"/>
     </g>
    </g>
    <g id="line2d_30">
     <path d="M 66.6 293.004312 
L 76.6 293.004312 
L 86.6 293.004312 
" style="fill: none; stroke: #ff7f0e; stroke-width: 1.5; stroke-linecap: square"/>
    </g>
    <g id="text_18">
     <!-- Expected speed -->
     <g transform="translate(94.6 296.504312) scale(0.1 -0.1)">
      <use xlink:href="#DejaVuSans-45"/>
      <use xlink:href="#DejaVuSans-78" x="63.183594"/>
      <use xlink:href="#DejaVuSans-70" x="122.363281"/>
      <use xlink:href="#DejaVuSans-65" x="185.839844"/>
      <use xlink:href="#DejaVuSans-63" x="247.363281"/>
      <use xlink:href="#DejaVuSans-74" x="302.34375"/>
      <use xlink:href="#DejaVuSans-65" x="341.552734"/>
      <use xlink:href="#DejaVuSans-64" x="403.076172"/>
      <use xlink:href="#DejaVuSans-20" x="466.552734"/>
      <use xlink:href="#DejaVuSans-73" x="498.339844"/>
      <use xlink:href="#DejaVuSans-70" x="550.439453"/>
      <use xlink:href="#DejaVuSans-65" x="613.916016"/>
      <use xlink:href="#DejaVuSans-65" x="675.439453"/>
      <use xlink:href="#DejaVuSans-64" x="736.962891"/>
     </g>
    </g>
   </g>
  </g>
 </g>
 <defs>
  <clipPath id="p2d1cbe2054">
   <rect x="57.6" y="41.472" width="357.12" height="266.112"/>
  </clipPath>
 </defs>
</svg>
