<?xml version="1.0" encoding="utf-8" standalone="no"?>
<!DOCTYPE svg PUBLIC "-//W3C//DTD SVG 1.1//EN"
  "http://www.w3.org/Graphics/SVG/1.1/DTD/svg11.dtd">
<svg xmlns:xlink="http://www.w3.org/1999/xlink" width="460.8pt" height="345.6pt" viewBox="0 0 460.8 345.6" xmlns="http://www.w3.org/2000/svg" version="1.1">
 <metadata>
  <rdf:RDF xmlns:dc="http://purl.org/dc/elements/1.1/" xmlns:cc="http://creativecommons.org/ns#" xmlns:rdf="http://www.w3.org/1999/02/22-rdf-syntax-ns#">
   <cc:Work>
    <dc:type rdf:resource="http://purl.org/dc/dcmitype/StillImage"/>
    <dc:date>2024-01-30T20:59:03.160483</dc:date>
    <dc:format>image/svg+xml</dc:format>
    <dc:creator>
     <cc:Agent>
      <dc:title>Matplotlib v3.7.1, https://matplotlib.org/</dc:title>
     </cc:Agent>
    </dc:creator>
   </cc:Work>
  </rdf:RDF>
 </metadata>
 <defs>
  <style type="text/css">*{stroke-linejoin: round; stroke-linecap: butt}</style>
 </defs>
 <g id="figure_1">
  <g id="patch_1">
   <path d="M 0 345.6 
L 460.8 345.6 
L 460.8 0 
L 0 0 
z
" style="fill: #ffffff"/>
  </g>
  <g id="axes_1">
   <g id="patch_2">
    <path d="M 57.6 307.584 
L 414.72 307.584 
L 414.72 41.472 
L 57.6 41.472 
z
" style="fill: #ffffff"/>
   </g>
   <g id="matplotlib.axis_1">
    <g id="xtick_1">
     <g id="line2d_1">
      <path d="M 73.832727 307.584 
L 73.832727 41.472 
" clip-path="url(#pf168eed02e)" style="fill: none; stroke: #b0b0b0; stroke-width: 0.8; stroke-linecap: square"/>
     </g>
     <g id="line2d_2">
      <defs>
       <path id="mfb4264898f" d="M 0 0 
L 0 3.5 
" style="stroke: #000000; stroke-width: 0.8"/>
      </defs>
      <g>
       <use xlink:href="#mfb4264898f" x="73.832727" y="307.584" style="stroke: #000000; stroke-width: 0.8"/>
      </g>
     </g>
     <g id="text_1">
      <!-- 0 -->
      <g transform="translate(70.651477 322.182437) scale(0.1 -0.1)">
       <defs>
        <path id="DejaVuSans-30" d="M 2034 4250 
Q 1547 4250 1301 3770 
Q 1056 3291 1056 2328 
Q 1056 1369 1301 889 
Q 1547 409 2034 409 
Q 2525 409 2770 889 
Q 3016 1369 3016 2328 
Q 3016 3291 2770 3770 
Q 2525 4250 2034 4250 
z
M 2034 4750 
Q 2819 4750 3233 4129 
Q 3647 3509 3647 2328 
Q 3647 1150 3233 529 
Q 2819 -91 2034 -91 
Q 1250 -91 836 529 
Q 422 1150 422 2328 
Q 422 3509 836 4129 
Q 1250 4750 2034 4750 
z
" transform="scale(0.015625)"/>
       </defs>
       <use xlink:href="#DejaVuSans-30"/>
      </g>
     </g>
    </g>
    <g id="xtick_2">
     <g id="line2d_3">
      <path d="M 117.991398 307.584 
L 117.991398 41.472 
" clip-path="url(#pf168eed02e)" style="fill: none; stroke: #b0b0b0; stroke-width: 0.8; stroke-linecap: square"/>
     </g>
     <g id="line2d_4">
      <g>
       <use xlink:href="#mfb4264898f" x="117.991398" y="307.584" style="stroke: #000000; stroke-width: 0.8"/>
      </g>
     </g>
     <g id="text_2">
      <!-- 5 -->
      <g transform="translate(114.810148 322.182437) scale(0.1 -0.1)">
       <defs>
        <path id="DejaVuSans-35" d="M 691 4666 
L 3169 4666 
L 3169 4134 
L 1269 4134 
L 1269 2991 
Q 1406 3038 1543 3061 
Q 1681 3084 1819 3084 
Q 2600 3084 3056 2656 
Q 3513 2228 3513 1497 
Q 3513 744 3044 326 
Q 2575 -91 1722 -91 
Q 1428 -91 1123 -41 
Q 819 9 494 109 
L 494 744 
Q 775 591 1075 516 
Q 1375 441 1709 441 
Q 2250 441 2565 725 
Q 2881 1009 2881 1497 
Q 2881 1984 2565 2268 
Q 2250 2553 1709 2553 
Q 1456 2553 1204 2497 
Q 953 2441 691 2322 
L 691 4666 
z
" transform="scale(0.015625)"/>
       </defs>
       <use xlink:href="#DejaVuSans-35"/>
      </g>
     </g>
    </g>
    <g id="xtick_3">
     <g id="line2d_5">
      <path d="M 162.150068 307.584 
L 162.150068 41.472 
" clip-path="url(#pf168eed02e)" style="fill: none; stroke: #b0b0b0; stroke-width: 0.8; stroke-linecap: square"/>
     </g>
     <g id="line2d_6">
      <g>
       <use xlink:href="#mfb4264898f" x="162.150068" y="307.584" style="stroke: #000000; stroke-width: 0.8"/>
      </g>
     </g>
     <g id="text_3">
      <!-- 10 -->
      <g transform="translate(155.787568 322.182437) scale(0.1 -0.1)">
       <defs>
        <path id="DejaVuSans-31" d="M 794 531 
L 1825 531 
L 1825 4091 
L 703 3866 
L 703 4441 
L 1819 4666 
L 2450 4666 
L 2450 531 
L 3481 531 
L 3481 0 
L 794 0 
L 794 531 
z
" transform="scale(0.015625)"/>
       </defs>
       <use xlink:href="#DejaVuSans-31"/>
       <use xlink:href="#DejaVuSans-30" x="63.623047"/>
      </g>
     </g>
    </g>
    <g id="xtick_4">
     <g id="line2d_7">
      <path d="M 206.308739 307.584 
L 206.308739 41.472 
" clip-path="url(#pf168eed02e)" style="fill: none; stroke: #b0b0b0; stroke-width: 0.8; stroke-linecap: square"/>
     </g>
     <g id="line2d_8">
      <g>
       <use xlink:href="#mfb4264898f" x="206.308739" y="307.584" style="stroke: #000000; stroke-width: 0.8"/>
      </g>
     </g>
     <g id="text_4">
      <!-- 15 -->
      <g transform="translate(199.946239 322.182437) scale(0.1 -0.1)">
       <use xlink:href="#DejaVuSans-31"/>
       <use xlink:href="#DejaVuSans-35" x="63.623047"/>
      </g>
     </g>
    </g>
    <g id="xtick_5">
     <g id="line2d_9">
      <path d="M 250.467409 307.584 
L 250.467409 41.472 
" clip-path="url(#pf168eed02e)" style="fill: none; stroke: #b0b0b0; stroke-width: 0.8; stroke-linecap: square"/>
     </g>
     <g id="line2d_10">
      <g>
       <use xlink:href="#mfb4264898f" x="250.467409" y="307.584" style="stroke: #000000; stroke-width: 0.8"/>
      </g>
     </g>
     <g id="text_5">
      <!-- 20 -->
      <g transform="translate(244.104909 322.182437) scale(0.1 -0.1)">
       <defs>
        <path id="DejaVuSans-32" d="M 1228 531 
L 3431 531 
L 3431 0 
L 469 0 
L 469 531 
Q 828 903 1448 1529 
Q 2069 2156 2228 2338 
Q 2531 2678 2651 2914 
Q 2772 3150 2772 3378 
Q 2772 3750 2511 3984 
Q 2250 4219 1831 4219 
Q 1534 4219 1204 4116 
Q 875 4013 500 3803 
L 500 4441 
Q 881 4594 1212 4672 
Q 1544 4750 1819 4750 
Q 2544 4750 2975 4387 
Q 3406 4025 3406 3419 
Q 3406 3131 3298 2873 
Q 3191 2616 2906 2266 
Q 2828 2175 2409 1742 
Q 1991 1309 1228 531 
z
" transform="scale(0.015625)"/>
       </defs>
       <use xlink:href="#DejaVuSans-32"/>
       <use xlink:href="#DejaVuSans-30" x="63.623047"/>
      </g>
     </g>
    </g>
    <g id="xtick_6">
     <g id="line2d_11">
      <path d="M 294.62608 307.584 
L 294.62608 41.472 
" clip-path="url(#pf168eed02e)" style="fill: none; stroke: #b0b0b0; stroke-width: 0.8; stroke-linecap: square"/>
     </g>
     <g id="line2d_12">
      <g>
       <use xlink:href="#mfb4264898f" x="294.62608" y="307.584" style="stroke: #000000; stroke-width: 0.8"/>
      </g>
     </g>
     <g id="text_6">
      <!-- 25 -->
      <g transform="translate(288.26358 322.182437) scale(0.1 -0.1)">
       <use xlink:href="#DejaVuSans-32"/>
       <use xlink:href="#DejaVuSans-35" x="63.623047"/>
      </g>
     </g>
    </g>
    <g id="xtick_7">
     <g id="line2d_13">
      <path d="M 338.78475 307.584 
L 338.78475 41.472 
" clip-path="url(#pf168eed02e)" style="fill: none; stroke: #b0b0b0; stroke-width: 0.8; stroke-linecap: square"/>
     </g>
     <g id="line2d_14">
      <g>
       <use xlink:href="#mfb4264898f" x="338.78475" y="307.584" style="stroke: #000000; stroke-width: 0.8"/>
      </g>
     </g>
     <g id="text_7">
      <!-- 30 -->
      <g transform="translate(332.42225 322.182437) scale(0.1 -0.1)">
       <defs>
        <path id="DejaVuSans-33" d="M 2597 2516 
Q 3050 2419 3304 2112 
Q 3559 1806 3559 1356 
Q 3559 666 3084 287 
Q 2609 -91 1734 -91 
Q 1441 -91 1130 -33 
Q 819 25 488 141 
L 488 750 
Q 750 597 1062 519 
Q 1375 441 1716 441 
Q 2309 441 2620 675 
Q 2931 909 2931 1356 
Q 2931 1769 2642 2001 
Q 2353 2234 1838 2234 
L 1294 2234 
L 1294 2753 
L 1863 2753 
Q 2328 2753 2575 2939 
Q 2822 3125 2822 3475 
Q 2822 3834 2567 4026 
Q 2313 4219 1838 4219 
Q 1578 4219 1281 4162 
Q 984 4106 628 3988 
L 628 4550 
Q 988 4650 1302 4700 
Q 1616 4750 1894 4750 
Q 2613 4750 3031 4423 
Q 3450 4097 3450 3541 
Q 3450 3153 3228 2886 
Q 3006 2619 2597 2516 
z
" transform="scale(0.015625)"/>
       </defs>
       <use xlink:href="#DejaVuSans-33"/>
       <use xlink:href="#DejaVuSans-30" x="63.623047"/>
      </g>
     </g>
    </g>
    <g id="xtick_8">
     <g id="line2d_15">
      <path d="M 382.943421 307.584 
L 382.943421 41.472 
" clip-path="url(#pf168eed02e)" style="fill: none; stroke: #b0b0b0; stroke-width: 0.8; stroke-linecap: square"/>
     </g>
     <g id="line2d_16">
      <g>
       <use xlink:href="#mfb4264898f" x="382.943421" y="307.584" style="stroke: #000000; stroke-width: 0.8"/>
      </g>
     </g>
     <g id="text_8">
      <!-- 35 -->
      <g transform="translate(376.580921 322.182437) scale(0.1 -0.1)">
       <use xlink:href="#DejaVuSans-33"/>
       <use xlink:href="#DejaVuSans-35" x="63.623047"/>
      </g>
     </g>
    </g>
    <g id="text_9">
     <!-- Time(s) -->
     <g transform="translate(217.420156 335.860562) scale(0.1 -0.1)">
      <defs>
       <path id="DejaVuSans-54" d="M -19 4666 
L 3928 4666 
L 3928 4134 
L 2272 4134 
L 2272 0 
L 1638 0 
L 1638 4134 
L -19 4134 
L -19 4666 
z
" transform="scale(0.015625)"/>
       <path id="DejaVuSans-69" d="M 603 3500 
L 1178 3500 
L 1178 0 
L 603 0 
L 603 3500 
z
M 603 4863 
L 1178 4863 
L 1178 4134 
L 603 4134 
L 603 4863 
z
" transform="scale(0.015625)"/>
       <path id="DejaVuSans-6d" d="M 3328 2828 
Q 3544 3216 3844 3400 
Q 4144 3584 4550 3584 
Q 5097 3584 5394 3201 
Q 5691 2819 5691 2113 
L 5691 0 
L 5113 0 
L 5113 2094 
Q 5113 2597 4934 2840 
Q 4756 3084 4391 3084 
Q 3944 3084 3684 2787 
Q 3425 2491 3425 1978 
L 3425 0 
L 2847 0 
L 2847 2094 
Q 2847 2600 2669 2842 
Q 2491 3084 2119 3084 
Q 1678 3084 1418 2786 
Q 1159 2488 1159 1978 
L 1159 0 
L 581 0 
L 581 3500 
L 1159 3500 
L 1159 2956 
Q 1356 3278 1631 3431 
Q 1906 3584 2284 3584 
Q 2666 3584 2933 3390 
Q 3200 3197 3328 2828 
z
" transform="scale(0.015625)"/>
       <path id="DejaVuSans-65" d="M 3597 1894 
L 3597 1613 
L 953 1613 
Q 991 1019 1311 708 
Q 1631 397 2203 397 
Q 2534 397 2845 478 
Q 3156 559 3463 722 
L 3463 178 
Q 3153 47 2828 -22 
Q 2503 -91 2169 -91 
Q 1331 -91 842 396 
Q 353 884 353 1716 
Q 353 2575 817 3079 
Q 1281 3584 2069 3584 
Q 2775 3584 3186 3129 
Q 3597 2675 3597 1894 
z
M 3022 2063 
Q 3016 2534 2758 2815 
Q 2500 3097 2075 3097 
Q 1594 3097 1305 2825 
Q 1016 2553 972 2059 
L 3022 2063 
z
" transform="scale(0.015625)"/>
       <path id="DejaVuSans-28" d="M 1984 4856 
Q 1566 4138 1362 3434 
Q 1159 2731 1159 2009 
Q 1159 1288 1364 580 
Q 1569 -128 1984 -844 
L 1484 -844 
Q 1016 -109 783 600 
Q 550 1309 550 2009 
Q 550 2706 781 3412 
Q 1013 4119 1484 4856 
L 1984 4856 
z
" transform="scale(0.015625)"/>
       <path id="DejaVuSans-73" d="M 2834 3397 
L 2834 2853 
Q 2591 2978 2328 3040 
Q 2066 3103 1784 3103 
Q 1356 3103 1142 2972 
Q 928 2841 928 2578 
Q 928 2378 1081 2264 
Q 1234 2150 1697 2047 
L 1894 2003 
Q 2506 1872 2764 1633 
Q 3022 1394 3022 966 
Q 3022 478 2636 193 
Q 2250 -91 1575 -91 
Q 1294 -91 989 -36 
Q 684 19 347 128 
L 347 722 
Q 666 556 975 473 
Q 1284 391 1588 391 
Q 1994 391 2212 530 
Q 2431 669 2431 922 
Q 2431 1156 2273 1281 
Q 2116 1406 1581 1522 
L 1381 1569 
Q 847 1681 609 1914 
Q 372 2147 372 2553 
Q 372 3047 722 3315 
Q 1072 3584 1716 3584 
Q 2034 3584 2315 3537 
Q 2597 3491 2834 3397 
z
" transform="scale(0.015625)"/>
       <path id="DejaVuSans-29" d="M 513 4856 
L 1013 4856 
Q 1481 4119 1714 3412 
Q 1947 2706 1947 2009 
Q 1947 1309 1714 600 
Q 1481 -109 1013 -844 
L 513 -844 
Q 928 -128 1133 580 
Q 1338 1288 1338 2009 
Q 1338 2731 1133 3434 
Q 928 4138 513 4856 
z
" transform="scale(0.015625)"/>
      </defs>
      <use xlink:href="#DejaVuSans-54"/>
      <use xlink:href="#DejaVuSans-69" x="57.958984"/>
      <use xlink:href="#DejaVuSans-6d" x="85.742188"/>
      <use xlink:href="#DejaVuSans-65" x="183.154297"/>
      <use xlink:href="#DejaVuSans-28" x="244.677734"/>
      <use xlink:href="#DejaVuSans-73" x="283.691406"/>
      <use xlink:href="#DejaVuSans-29" x="335.791016"/>
     </g>
    </g>
   </g>
   <g id="matplotlib.axis_2">
    <g id="ytick_1">
     <g id="line2d_17">
      <path d="M 57.6 276.930022 
L 414.72 276.930022 
" clip-path="url(#pf168eed02e)" style="fill: none; stroke: #b0b0b0; stroke-width: 0.8; stroke-linecap: square"/>
     </g>
     <g id="line2d_18">
      <defs>
       <path id="md9f8b607b2" d="M 0 0 
L -3.5 0 
" style="stroke: #000000; stroke-width: 0.8"/>
      </defs>
      <g>
       <use xlink:href="#md9f8b607b2" x="57.6" y="276.930022" style="stroke: #000000; stroke-width: 0.8"/>
      </g>
     </g>
     <g id="text_10">
      <!-- 4 -->
      <g transform="translate(44.2375 280.729241) scale(0.1 -0.1)">
       <defs>
        <path id="DejaVuSans-34" d="M 2419 4116 
L 825 1625 
L 2419 1625 
L 2419 4116 
z
M 2253 4666 
L 3047 4666 
L 3047 1625 
L 3713 1625 
L 3713 1100 
L 3047 1100 
L 3047 0 
L 2419 0 
L 2419 1100 
L 313 1100 
L 313 1709 
L 2253 4666 
z
" transform="scale(0.015625)"/>
       </defs>
       <use xlink:href="#DejaVuSans-34"/>
      </g>
     </g>
    </g>
    <g id="ytick_2">
     <g id="line2d_19">
      <path d="M 57.6 221.089517 
L 414.72 221.089517 
" clip-path="url(#pf168eed02e)" style="fill: none; stroke: #b0b0b0; stroke-width: 0.8; stroke-linecap: square"/>
     </g>
     <g id="line2d_20">
      <g>
       <use xlink:href="#md9f8b607b2" x="57.6" y="221.089517" style="stroke: #000000; stroke-width: 0.8"/>
      </g>
     </g>
     <g id="text_11">
      <!-- 5 -->
      <g transform="translate(44.2375 224.888735) scale(0.1 -0.1)">
       <use xlink:href="#DejaVuSans-35"/>
      </g>
     </g>
    </g>
    <g id="ytick_3">
     <g id="line2d_21">
      <path d="M 57.6 165.249011 
L 414.72 165.249011 
" clip-path="url(#pf168eed02e)" style="fill: none; stroke: #b0b0b0; stroke-width: 0.8; stroke-linecap: square"/>
     </g>
     <g id="line2d_22">
      <g>
       <use xlink:href="#md9f8b607b2" x="57.6" y="165.249011" style="stroke: #000000; stroke-width: 0.8"/>
      </g>
     </g>
     <g id="text_12">
      <!-- 6 -->
      <g transform="translate(44.2375 169.04823) scale(0.1 -0.1)">
       <defs>
        <path id="DejaVuSans-36" d="M 2113 2584 
Q 1688 2584 1439 2293 
Q 1191 2003 1191 1497 
Q 1191 994 1439 701 
Q 1688 409 2113 409 
Q 2538 409 2786 701 
Q 3034 994 3034 1497 
Q 3034 2003 2786 2293 
Q 2538 2584 2113 2584 
z
M 3366 4563 
L 3366 3988 
Q 3128 4100 2886 4159 
Q 2644 4219 2406 4219 
Q 1781 4219 1451 3797 
Q 1122 3375 1075 2522 
Q 1259 2794 1537 2939 
Q 1816 3084 2150 3084 
Q 2853 3084 3261 2657 
Q 3669 2231 3669 1497 
Q 3669 778 3244 343 
Q 2819 -91 2113 -91 
Q 1303 -91 875 529 
Q 447 1150 447 2328 
Q 447 3434 972 4092 
Q 1497 4750 2381 4750 
Q 2619 4750 2861 4703 
Q 3103 4656 3366 4563 
z
" transform="scale(0.015625)"/>
       </defs>
       <use xlink:href="#DejaVuSans-36"/>
      </g>
     </g>
    </g>
    <g id="ytick_4">
     <g id="line2d_23">
      <path d="M 57.6 109.408506 
L 414.72 109.408506 
" clip-path="url(#pf168eed02e)" style="fill: none; stroke: #b0b0b0; stroke-width: 0.8; stroke-linecap: square"/>
     </g>
     <g id="line2d_24">
      <g>
       <use xlink:href="#md9f8b607b2" x="57.6" y="109.408506" style="stroke: #000000; stroke-width: 0.8"/>
      </g>
     </g>
     <g id="text_13">
      <!-- 7 -->
      <g transform="translate(44.2375 113.207724) scale(0.1 -0.1)">
       <defs>
        <path id="DejaVuSans-37" d="M 525 4666 
L 3525 4666 
L 3525 4397 
L 1831 0 
L 1172 0 
L 2766 4134 
L 525 4134 
L 525 4666 
z
" transform="scale(0.015625)"/>
       </defs>
       <use xlink:href="#DejaVuSans-37"/>
      </g>
     </g>
    </g>
    <g id="ytick_5">
     <g id="line2d_25">
      <path d="M 57.6 53.568 
L 414.72 53.568 
" clip-path="url(#pf168eed02e)" style="fill: none; stroke: #b0b0b0; stroke-width: 0.8; stroke-linecap: square"/>
     </g>
     <g id="line2d_26">
      <g>
       <use xlink:href="#md9f8b607b2" x="57.6" y="53.568" style="stroke: #000000; stroke-width: 0.8"/>
      </g>
     </g>
     <g id="text_14">
      <!-- 8 -->
      <g transform="translate(44.2375 57.367219) scale(0.1 -0.1)">
       <defs>
        <path id="DejaVuSans-38" d="M 2034 2216 
Q 1584 2216 1326 1975 
Q 1069 1734 1069 1313 
Q 1069 891 1326 650 
Q 1584 409 2034 409 
Q 2484 409 2743 651 
Q 3003 894 3003 1313 
Q 3003 1734 2745 1975 
Q 2488 2216 2034 2216 
z
M 1403 2484 
Q 997 2584 770 2862 
Q 544 3141 544 3541 
Q 544 4100 942 4425 
Q 1341 4750 2034 4750 
Q 2731 4750 3128 4425 
Q 3525 4100 3525 3541 
Q 3525 3141 3298 2862 
Q 3072 2584 2669 2484 
Q 3125 2378 3379 2068 
Q 3634 1759 3634 1313 
Q 3634 634 3220 271 
Q 2806 -91 2034 -91 
Q 1263 -91 848 271 
Q 434 634 434 1313 
Q 434 1759 690 2068 
Q 947 2378 1403 2484 
z
M 1172 3481 
Q 1172 3119 1398 2916 
Q 1625 2713 2034 2713 
Q 2441 2713 2670 2916 
Q 2900 3119 2900 3481 
Q 2900 3844 2670 4047 
Q 2441 4250 2034 4250 
Q 1625 4250 1398 4047 
Q 1172 3844 1172 3481 
z
" transform="scale(0.015625)"/>
       </defs>
       <use xlink:href="#DejaVuSans-38"/>
      </g>
     </g>
    </g>
    <g id="text_15">
     <!-- Velocity(m/s) -->
     <g transform="translate(38.157812 207.204563) rotate(-90) scale(0.1 -0.1)">
      <defs>
       <path id="DejaVuSans-56" d="M 1831 0 
L 50 4666 
L 709 4666 
L 2188 738 
L 3669 4666 
L 4325 4666 
L 2547 0 
L 1831 0 
z
" transform="scale(0.015625)"/>
       <path id="DejaVuSans-6c" d="M 603 4863 
L 1178 4863 
L 1178 0 
L 603 0 
L 603 4863 
z
" transform="scale(0.015625)"/>
       <path id="DejaVuSans-6f" d="M 1959 3097 
Q 1497 3097 1228 2736 
Q 959 2375 959 1747 
Q 959 1119 1226 758 
Q 1494 397 1959 397 
Q 2419 397 2687 759 
Q 2956 1122 2956 1747 
Q 2956 2369 2687 2733 
Q 2419 3097 1959 3097 
z
M 1959 3584 
Q 2709 3584 3137 3096 
Q 3566 2609 3566 1747 
Q 3566 888 3137 398 
Q 2709 -91 1959 -91 
Q 1206 -91 779 398 
Q 353 888 353 1747 
Q 353 2609 779 3096 
Q 1206 3584 1959 3584 
z
" transform="scale(0.015625)"/>
       <path id="DejaVuSans-63" d="M 3122 3366 
L 3122 2828 
Q 2878 2963 2633 3030 
Q 2388 3097 2138 3097 
Q 1578 3097 1268 2742 
Q 959 2388 959 1747 
Q 959 1106 1268 751 
Q 1578 397 2138 397 
Q 2388 397 2633 464 
Q 2878 531 3122 666 
L 3122 134 
Q 2881 22 2623 -34 
Q 2366 -91 2075 -91 
Q 1284 -91 818 406 
Q 353 903 353 1747 
Q 353 2603 823 3093 
Q 1294 3584 2113 3584 
Q 2378 3584 2631 3529 
Q 2884 3475 3122 3366 
z
" transform="scale(0.015625)"/>
       <path id="DejaVuSans-74" d="M 1172 4494 
L 1172 3500 
L 2356 3500 
L 2356 3053 
L 1172 3053 
L 1172 1153 
Q 1172 725 1289 603 
Q 1406 481 1766 481 
L 2356 481 
L 2356 0 
L 1766 0 
Q 1100 0 847 248 
Q 594 497 594 1153 
L 594 3053 
L 172 3053 
L 172 3500 
L 594 3500 
L 594 4494 
L 1172 4494 
z
" transform="scale(0.015625)"/>
       <path id="DejaVuSans-79" d="M 2059 -325 
Q 1816 -950 1584 -1140 
Q 1353 -1331 966 -1331 
L 506 -1331 
L 506 -850 
L 844 -850 
Q 1081 -850 1212 -737 
Q 1344 -625 1503 -206 
L 1606 56 
L 191 3500 
L 800 3500 
L 1894 763 
L 2988 3500 
L 3597 3500 
L 2059 -325 
z
" transform="scale(0.015625)"/>
       <path id="DejaVuSans-2f" d="M 1625 4666 
L 2156 4666 
L 531 -594 
L 0 -594 
L 1625 4666 
z
" transform="scale(0.015625)"/>
      </defs>
      <use xlink:href="#DejaVuSans-56"/>
      <use xlink:href="#DejaVuSans-65" x="60.658203"/>
      <use xlink:href="#DejaVuSans-6c" x="122.181641"/>
      <use xlink:href="#DejaVuSans-6f" x="149.964844"/>
      <use xlink:href="#DejaVuSans-63" x="211.146484"/>
      <use xlink:href="#DejaVuSans-69" x="266.126953"/>
      <use xlink:href="#DejaVuSans-74" x="293.910156"/>
      <use xlink:href="#DejaVuSans-79" x="333.119141"/>
      <use xlink:href="#DejaVuSans-28" x="392.298828"/>
      <use xlink:href="#DejaVuSans-6d" x="431.3125"/>
      <use xlink:href="#DejaVuSans-2f" x="528.724609"/>
      <use xlink:href="#DejaVuSans-73" x="562.416016"/>
      <use xlink:href="#DejaVuSans-29" x="614.515625"/>
     </g>
    </g>
   </g>
   <g id="line2d_27">
    <path d="M 73.832727 53.68091 
L 77.188786 53.585701 
L 77.188786 53.585701 
L 91.142926 53.568 
L 91.142926 53.568 
L 92.909273 53.568 
L 92.909273 53.568 
L 93.085908 54.298896 
L 93.085908 54.298896 
L 93.262542 56.627781 
L 93.262542 56.627781 
L 93.615812 66.771823 
L 93.615812 66.771823 
L 95.735428 130.070051 
L 95.735428 130.070051 
L 96.618601 148.844076 
L 96.618601 148.844076 
L 97.148505 158.888107 
L 97.148505 158.888107 
L 98.561583 180.086839 
L 98.561583 180.086839 
L 99.621391 190.743441 
L 99.621391 190.743441 
L 100.151295 194.200638 
L 100.151295 194.200638 
L 100.857834 197.383603 
L 100.857834 197.383603 
L 101.387738 198.745888 
L 101.387738 198.745888 
L 101.741007 199.177144 
L 101.741007 199.177144 
L 102.094276 199.389114 
L 102.094276 199.389114 
L 103.507354 199.208638 
L 103.507354 199.208638 
L 103.860623 198.919272 
L 103.860623 198.919272 
L 104.037258 198.697697 
L 104.037258 198.697697 
L 104.567162 197.277785 
L 104.567162 197.277785 
L 105.097066 195.040312 
L 105.097066 195.040312 
L 105.62697 191.714228 
L 105.62697 191.714228 
L 106.156874 186.535747 
L 106.156874 186.535747 
L 106.863413 176.163652 
L 106.863413 176.163652 
L 108.453125 149.214633 
L 108.453125 149.214633 
L 108.806394 147.158307 
L 108.806394 147.158307 
L 109.159664 145.983646 
L 109.159664 145.983646 
L 109.689568 145.170552 
L 109.689568 145.170552 
L 110.219472 144.8641 
L 110.219472 144.8641 
L 111.985819 144.194851 
L 111.985819 144.194851 
L 112.692357 143.35367 
L 112.692357 143.35367 
L 113.045627 142.661862 
L 113.045627 142.661862 
L 113.575531 141.015293 
L 113.575531 141.015293 
L 114.105435 138.413069 
L 114.105435 138.413069 
L 114.635339 134.634733 
L 114.635339 134.634733 
L 115.341878 127.578839 
L 115.341878 127.578839 
L 116.048416 118.814783 
L 116.048416 118.814783 
L 116.401686 117.742254 
L 116.401686 117.742254 
L 116.57832 119.516531 
L 116.57832 119.516531 
L 117.108224 129.783645 
L 117.108224 129.783645 
L 117.638128 142.036336 
L 117.638128 142.036336 
L 118.168032 151.548376 
L 118.168032 151.548376 
L 118.874571 160.054895 
L 118.874571 160.054895 
L 119.757745 167.115703 
L 119.757745 167.115703 
L 120.287649 169.346811 
L 120.287649 169.346811 
L 120.640918 170.170067 
L 120.640918 170.170067 
L 121.700726 171.23288 
L 121.700726 171.23288 
L 122.053995 171.290116 
L 122.053995 171.290116 
L 123.820342 171.179161 
L 123.820342 171.179161 
L 124.703516 170.779846 
L 124.703516 170.779846 
L 125.23342 170.399516 
L 125.23342 170.399516 
L 126.646497 168.747698 
L 126.646497 168.747698 
L 127.88294 166.500899 
L 127.88294 166.500899 
L 128.942748 163.9099 
L 128.942748 163.9099 
L 129.825921 161.40093 
L 129.825921 161.40093 
L 130.88573 157.831382 
L 130.88573 157.831382 
L 131.945538 153.445892 
L 131.945538 153.445892 
L 133.358615 146.661661 
L 133.358615 146.661661 
L 135.124962 136.446478 
L 135.124962 136.446478 
L 136.361405 127.880601 
L 136.361405 127.880601 
L 137.244578 120.585765 
L 137.244578 120.585765 
L 138.481021 108.598539 
L 138.481021 108.598539 
L 139.364194 98.323439 
L 139.364194 98.323439 
L 141.83708 67.748696 
L 141.83708 67.748696 
L 142.543619 63.171618 
L 142.543619 63.171618 
L 143.250157 60.071911 
L 143.250157 60.071911 
L 143.956696 57.972643 
L 143.956696 57.972643 
L 144.663235 56.550944 
L 144.663235 56.550944 
L 145.369773 55.588142 
L 145.369773 55.588142 
L 146.252947 54.809111 
L 146.252947 54.809111 
L 147.13612 54.330502 
L 147.13612 54.330502 
L 148.372563 53.953467 
L 148.372563 53.953467 
L 149.962275 53.728374 
L 149.962275 53.728374 
L 151.198718 53.64908 
L 151.198718 53.64908 
L 151.375353 54.151254 
L 151.375353 54.151254 
L 151.551987 56.489854 
L 151.551987 56.489854 
L 152.435161 80.500546 
L 152.435161 80.500546 
L 152.965065 97.752414 
L 152.965065 97.752414 
L 154.554777 144.176926 
L 154.554777 144.176926 
L 157.027662 198.913186 
L 157.027662 198.913186 
L 158.617375 222.479387 
L 158.617375 222.479387 
L 159.500548 231.279069 
L 159.500548 231.279069 
L 160.383721 238.059502 
L 160.383721 238.059502 
L 161.09026 242.080968 
L 161.09026 242.080968 
L 161.796799 244.764942 
L 161.796799 244.764942 
L 162.326703 245.979305 
L 162.326703 245.979305 
L 163.033242 246.994709 
L 163.033242 246.994709 
L 163.386511 247.17513 
L 163.386511 247.17513 
L 164.622954 247.368561 
L 164.622954 247.368561 
L 165.506127 247.248281 
L 165.506127 247.248281 
L 166.036031 246.870352 
L 166.036031 246.870352 
L 166.565935 246.232598 
L 166.565935 246.232598 
L 167.095839 245.280461 
L 167.095839 245.280461 
L 167.625743 243.907622 
L 167.625743 243.907622 
L 168.685551 240.399499 
L 168.685551 240.399499 
L 169.568725 236.107988 
L 169.568725 236.107988 
L 170.451898 230.590555 
L 170.451898 230.590555 
L 171.688341 221.185674 
L 171.688341 221.185674 
L 173.101419 208.564938 
L 173.101419 208.564938 
L 175.0444 189.100501 
L 175.0444 189.100501 
L 177.517286 162.83296 
L 177.517286 162.83296 
L 180.520075 129.621428 
L 180.520075 129.621428 
L 181.403249 115.109263 
L 181.403249 115.109263 
L 182.109787 100.221123 
L 182.109787 100.221123 
L 182.639691 90.492311 
L 182.639691 90.492311 
L 182.992961 87.453191 
L 182.992961 87.453191 
L 183.169595 87.054155 
L 183.169595 87.054155 
L 183.34623 87.611443 
L 183.34623 87.611443 
L 183.522865 90.167319 
L 183.522865 90.167319 
L 184.406038 116.728582 
L 184.406038 116.728582 
L 185.99575 167.019825 
L 185.99575 167.019825 
L 187.232193 201.89384 
L 187.232193 201.89384 
L 188.99854 238.286996 
L 188.99854 238.286996 
L 189.528444 245.270298 
L 189.528444 245.270298 
L 191.118156 262.138989 
L 191.118156 262.138989 
L 191.64806 266.104503 
L 191.64806 266.104503 
L 192.884503 271.422082 
L 192.884503 271.422082 
L 193.591042 272.97657 
L 193.591042 272.97657 
L 194.120946 273.755825 
L 194.120946 273.755825 
L 194.65085 274.277151 
L 194.65085 274.277151 
L 195.710658 274.576289 
L 195.710658 274.576289 
L 196.240562 274.549877 
L 196.240562 274.549877 
L 196.947101 274.475274 
L 196.947101 274.475274 
L 197.653639 274.182278 
L 197.653639 274.182278 
L 198.183543 273.551113 
L 198.183543 273.551113 
L 198.890082 272.253882 
L 198.890082 272.253882 
L 199.773256 269.4637 
L 199.773256 269.4637 
L 200.479794 265.823234 
L 200.479794 265.823234 
L 201.009698 262.707222 
L 201.009698 262.707222 
L 201.892872 255.605203 
L 201.892872 255.605203 
L 202.776045 246.728182 
L 202.776045 246.728182 
L 203.835853 233.36823 
L 203.835853 233.36823 
L 204.719027 219.501413 
L 204.719027 219.501413 
L 205.778835 198.683793 
L 205.778835 198.683793 
L 207.015277 169.596809 
L 207.015277 169.596809 
L 210.194702 85.853361 
L 210.194702 85.853361 
L 210.90124 75.432685 
L 210.90124 75.432685 
L 211.607779 68.37545 
L 211.607779 68.37545 
L 212.314318 63.596061 
L 212.314318 63.596061 
L 213.020857 60.359322 
L 213.020857 60.359322 
L 213.727395 58.167303 
L 213.727395 58.167303 
L 214.433934 56.682783 
L 214.433934 56.682783 
L 215.140473 55.677431 
L 215.140473 55.677431 
L 215.493742 55.312513 
L 215.493742 55.312513 
L 215.670377 55.583619 
L 215.670377 55.583619 
L 215.847012 56.975332 
L 215.847012 56.975332 
L 216.200281 63.416199 
L 216.200281 63.416199 
L 217.613358 92.757425 
L 217.613358 92.757425 
L 218.143262 105.471415 
L 218.143262 105.471415 
L 220.262879 151.651457 
L 220.262879 151.651457 
L 222.382495 184.642363 
L 222.382495 184.642363 
L 223.089034 192.103045 
L 223.089034 192.103045 
L 223.972207 198.677818 
L 223.972207 198.677818 
L 224.502111 201.616816 
L 224.502111 201.616816 
L 225.032015 203.490655 
L 225.032015 203.490655 
L 225.561919 204.55492 
L 225.561919 204.55492 
L 226.091823 205.008456 
L 226.091823 205.008456 
L 226.798362 205.215904 
L 226.798362 205.215904 
L 227.504901 205.249687 
L 227.504901 205.249687 
L 228.034805 205.105563 
L 228.034805 205.105563 
L 228.564709 204.529345 
L 228.564709 204.529345 
L 229.094613 203.553253 
L 229.094613 203.553253 
L 229.624517 201.985865 
L 229.624517 201.985865 
L 230.154421 199.603095 
L 230.154421 199.603095 
L 230.50769 197.208989 
L 230.50769 197.208989 
L 231.214229 190.468203 
L 231.214229 190.468203 
L 231.920768 181.373627 
L 231.920768 181.373627 
L 232.450672 172.278214 
L 232.450672 172.278214 
L 233.333845 151.844833 
L 233.333845 151.844833 
L 235.630096 90.810658 
L 235.630096 90.810658 
L 236.336635 78.789928 
L 236.336635 78.789928 
L 237.043173 70.649108 
L 237.043173 70.649108 
L 237.749712 65.135863 
L 237.749712 65.135863 
L 238.456251 61.402144 
L 238.456251 61.402144 
L 239.16279 58.873518 
L 239.16279 58.873518 
L 239.869328 57.161057 
L 239.869328 57.161057 
L 240.575867 56.001362 
L 240.575867 56.001362 
L 241.282406 55.215909 
L 241.282406 55.215909 
L 241.81231 54.887399 
L 241.81231 54.887399 
L 241.988945 55.644373 
L 241.988945 55.644373 
L 242.695483 63.514758 
L 242.695483 63.514758 
L 243.755291 79.666456 
L 243.755291 79.666456 
L 244.638465 94.003953 
L 244.638465 94.003953 
L 246.934716 126.919306 
L 246.934716 126.919306 
L 247.641254 134.223189 
L 247.641254 134.223189 
L 248.524428 140.626364 
L 248.524428 140.626364 
L 249.054332 143.260584 
L 249.054332 143.260584 
L 249.584236 144.860023 
L 249.584236 144.860023 
L 249.937505 145.504981 
L 249.937505 145.504981 
L 251.350583 146.043339 
L 251.350583 146.043339 
L 251.880487 145.935176 
L 251.880487 145.935176 
L 252.410391 145.495153 
L 252.410391 145.495153 
L 252.76366 145.038378 
L 252.76366 145.038378 
L 253.293564 143.785596 
L 253.293564 143.785596 
L 254.000103 140.918019 
L 254.000103 140.918019 
L 254.706642 136.5595 
L 254.706642 136.5595 
L 255.41318 131.08981 
L 255.41318 131.08981 
L 256.296354 122.337202 
L 256.296354 122.337202 
L 257.532797 106.609612 
L 257.532797 106.609612 
L 258.769239 86.802426 
L 258.769239 86.802426 
L 259.475778 76.075409 
L 259.475778 76.075409 
L 260.182317 68.810727 
L 260.182317 68.810727 
L 260.888855 63.890899 
L 260.888855 63.890899 
L 261.595394 60.559008 
L 261.595394 60.559008 
L 262.301933 58.302493 
L 262.301933 58.302493 
L 263.008472 56.774362 
L 263.008472 56.774362 
L 263.71501 55.73947 
L 263.71501 55.73947 
L 264.421549 55.03856 
L 264.421549 55.03856 
L 265.304723 54.471444 
L 265.304723 54.471444 
L 266.364531 54.071514 
L 266.364531 54.071514 
L 267.777608 53.798956 
L 267.777608 53.798956 
L 269.897224 53.639699 
L 269.897224 53.639699 
L 274.489726 53.573696 
L 274.489726 53.573696 
L 276.785977 53.569619 
L 276.785977 53.569619 
L 276.962612 54.495622 
L 276.962612 54.495622 
L 277.139246 57.290942 
L 277.139246 57.290942 
L 277.492516 69.074127 
L 277.492516 69.074127 
L 278.905593 123.887837 
L 278.905593 123.887837 
L 280.67194 189.367921 
L 280.67194 189.367921 
L 281.908383 224.770244 
L 281.908383 224.770244 
L 282.614921 241.056685 
L 282.614921 241.056685 
L 283.32146 254.216562 
L 283.32146 254.216562 
L 284.027999 263.376415 
L 284.027999 263.376415 
L 284.911172 274.48834 
L 284.911172 274.48834 
L 286.147615 286.092444 
L 286.147615 286.092444 
L 286.854154 290.548405 
L 286.854154 290.548405 
L 287.560692 293.403139 
L 287.560692 293.403139 
L 288.267231 294.752357 
L 288.267231 294.752357 
L 288.620501 295.03854 
L 288.620501 295.03854 
L 289.680309 295.346333 
L 289.680309 295.346333 
L 290.386847 295.250734 
L 290.386847 295.250734 
L 290.740117 295.092928 
L 290.740117 295.092928 
L 291.446655 294.302841 
L 291.446655 294.302841 
L 291.799925 293.559269 
L 291.799925 293.559269 
L 292.506464 291.456036 
L 292.506464 291.456036 
L 293.389637 287.272242 
L 293.389637 287.272242 
L 294.449445 280.014875 
L 294.449445 280.014875 
L 295.862523 266.947806 
L 295.862523 266.947806 
L 296.922331 254.428811 
L 296.922331 254.428811 
L 298.512043 231.17917 
L 298.512043 231.17917 
L 300.984928 193.204555 
L 300.984928 193.204555 
L 302.92791 166.282228 
L 302.92791 166.282228 
L 303.281179 161.269035 
L 303.281179 161.269035 
L 303.634449 158.624875 
L 303.634449 158.624875 
L 303.987718 162.227872 
L 303.987718 162.227872 
L 304.517622 173.542052 
L 304.517622 173.542052 
L 305.224161 192.916921 
L 305.224161 192.916921 
L 306.460603 217.888516 
L 306.460603 217.888516 
L 307.343777 230.094747 
L 307.343777 230.094747 
L 308.403585 241.5626 
L 308.403585 241.5626 
L 309.286758 248.934608 
L 309.286758 248.934608 
L 309.993297 253.137779 
L 309.993297 253.137779 
L 310.699836 256.456771 
L 310.699836 256.456771 
L 311.936279 260.097516 
L 311.936279 260.097516 
L 312.466183 260.883974 
L 312.466183 260.883974 
L 313.525991 261.430261 
L 313.525991 261.430261 
L 313.87926 261.563274 
L 313.87926 261.563274 
L 314.939068 261.4531 
L 314.939068 261.4531 
L 315.645607 261.181883 
L 315.645607 261.181883 
L 316.175511 260.611249 
L 316.175511 260.611249 
L 316.88205 259.398393 
L 316.88205 259.398393 
L 317.588588 257.281312 
L 317.588588 257.281312 
L 318.118492 255.320752 
L 318.118492 255.320752 
L 318.825031 251.587981 
L 318.825031 251.587981 
L 320.061474 243.041145 
L 320.061474 243.041145 
L 321.121282 233.380905 
L 321.121282 233.380905 
L 323.240898 210.350382 
L 323.240898 210.350382 
L 324.124072 198.471487 
L 324.124072 198.471487 
L 325.713784 174.382452 
L 325.713784 174.382452 
L 327.656765 140.0913 
L 327.656765 140.0913 
L 328.010035 138.28821 
L 328.010035 138.28821 
L 328.186669 137.998509 
L 328.186669 137.998509 
L 328.539939 142.294431 
L 328.539939 142.294431 
L 328.893208 149.250483 
L 328.893208 149.250483 
L 330.306285 176.957983 
L 330.306285 176.957983 
L 331.012824 187.525129 
L 331.012824 187.525129 
L 332.072632 199.610969 
L 332.072632 199.610969 
L 332.779171 204.653925 
L 332.779171 204.653925 
L 333.48571 208.138205 
L 333.48571 208.138205 
L 334.015614 209.453807 
L 334.015614 209.453807 
L 334.545518 210.020644 
L 334.545518 210.020644 
L 335.075422 210.228036 
L 335.075422 210.228036 
L 335.958595 210.305989 
L 335.958595 210.305989 
L 336.488499 209.972845 
L 336.488499 209.972845 
L 337.018403 209.321018 
L 337.018403 209.321018 
L 337.548307 208.158754 
L 337.548307 208.158754 
L 338.078211 206.265314 
L 338.078211 206.265314 
L 338.608116 203.420408 
L 338.608116 203.420408 
L 339.314654 196.535497 
L 339.314654 196.535497 
L 340.021193 186.72231 
L 340.021193 186.72231 
L 340.551097 179.06412 
L 340.551097 179.06412 
L 340.904366 177.21753 
L 340.904366 177.21753 
L 341.081001 177.011534 
L 341.081001 177.011534 
L 341.257636 177.171629 
L 341.257636 177.171629 
L 341.610905 179.402792 
L 341.610905 179.402792 
L 342.494079 185.938533 
L 342.494079 185.938533 
L 343.023983 187.624302 
L 343.023983 187.624302 
L 343.553887 188.078899 
L 343.553887 188.078899 
L 343.907156 188.191139 
L 343.907156 188.191139 
L 344.260425 188.063934 
L 344.260425 188.063934 
L 344.613695 187.60727 
L 344.613695 187.60727 
L 344.966964 186.771003 
L 344.966964 186.771003 
L 345.320233 185.465675 
L 345.320233 185.465675 
L 345.673503 183.232837 
L 345.673503 183.232837 
L 346.203407 178.007506 
L 346.203407 178.007506 
L 347.08658 167.443766 
L 347.08658 167.443766 
L 347.263215 166.81718 
L 347.263215 166.81718 
L 347.43985 166.700306 
L 347.43985 166.700306 
L 347.616484 167.419197 
L 347.616484 167.419197 
L 347.969754 170.822955 
L 347.969754 170.822955 
L 348.676292 179.877381 
L 348.676292 179.877381 
L 349.206196 183.784597 
L 349.206196 183.784597 
L 349.736101 185.603434 
L 349.736101 185.603434 
L 350.442639 186.276089 
L 350.442639 186.276089 
L 350.795909 186.372581 
L 350.795909 186.372581 
L 351.325813 186.322324 
L 351.325813 186.322324 
L 352.208986 186.013862 
L 352.208986 186.013862 
L 353.268794 184.722103 
L 353.268794 184.722103 
L 353.798698 183.815253 
L 353.798698 183.815253 
L 355.035141 180.682713 
L 355.035141 180.682713 
L 356.271584 176.098877 
L 356.271584 176.098877 
L 357.508027 169.660579 
L 357.508027 169.660579 
L 358.744469 161.283553 
L 358.744469 161.283553 
L 362.277163 135.842396 
L 362.277163 135.842396 
L 363.513606 129.31291 
L 363.513606 129.31291 
L 364.750048 123.039899 
L 364.750048 123.039899 
L 365.456587 118.273688 
L 365.456587 118.273688 
L 365.986491 113.534505 
L 365.986491 113.534505 
L 366.869665 103.153922 
L 366.869665 103.153922 
L 367.752838 89.02203 
L 367.752838 89.02203 
L 368.459377 77.702881 
L 368.459377 77.702881 
L 369.165916 69.912907 
L 369.165916 69.912907 
L 369.872454 64.637319 
L 369.872454 64.637319 
L 370.578993 61.064476 
L 370.578993 61.064476 
L 371.285532 58.644851 
L 371.285532 58.644851 
L 371.99207 57.006212 
L 371.99207 57.006212 
L 372.698609 55.896493 
L 372.698609 55.896493 
L 373.405148 55.144936 
L 373.405148 55.144936 
L 374.288321 54.536777 
L 374.288321 54.536777 
L 375.348129 54.107922 
L 375.348129 54.107922 
L 376.761207 53.815653 
L 376.761207 53.815653 
L 378.880823 53.644892 
L 378.880823 53.644892 
L 383.29669 53.574701 
L 383.29669 53.574701 
L 397.427465 53.618536 
L 397.427465 53.618536 
L 397.780734 53.733232 
L 397.780734 53.733232 
L 398.487273 53.679904 
L 398.487273 53.679904 
" clip-path="url(#pf168eed02e)" style="fill: none; stroke: #1f77b4; stroke-width: 1.5; stroke-linecap: square"/>
   </g>
   <g id="line2d_28">
    <path d="M 73.832727 53.568 
L 92.379369 53.568 
L 92.379369 53.568 
L 92.556004 57.410832 
L 92.556004 57.410832 
L 92.909273 72.781825 
L 92.909273 72.781825 
L 93.085908 82.35903 
L 93.085908 82.35903 
L 93.262542 83.141523 
L 93.262542 83.141523 
L 93.792446 103.472157 
L 93.792446 103.472157 
L 93.969081 112.086169 
L 93.969081 112.086169 
L 94.145716 110.808539 
L 94.145716 110.808539 
L 94.498985 123.245839 
L 94.498985 123.245839 
L 94.67562 131.553063 
L 94.67562 131.553063 
L 94.852254 129.858583 
L 94.852254 129.858583 
L 95.205524 142.907951 
L 95.205524 142.907951 
L 95.382158 141.899695 
L 95.382158 141.899695 
L 95.558793 146.068747 
L 95.558793 146.068747 
L 95.735428 153.419479 
L 95.735428 153.419479 
L 95.912063 152.504979 
L 95.912063 152.504979 
L 96.265332 163.108365 
L 96.265332 163.108365 
L 96.441967 161.872336 
L 96.441967 161.872336 
L 96.795236 167.89412 
L 96.795236 167.89412 
L 97.678409 182.994677 
L 97.678409 182.994677 
L 97.855044 182.483011 
L 97.855044 182.483011 
L 98.031679 185.502753 
L 98.031679 185.502753 
L 98.208313 185.891794 
L 98.208313 185.891794 
L 98.561583 191.379241 
L 98.561583 191.379241 
L 98.738217 191.006449 
L 98.914852 193.273016 
L 98.914852 193.273016 
L 99.091487 193.672666 
L 99.091487 193.672666 
L 99.268121 195.311362 
L 99.268121 195.311362 
L 99.444756 195.397468 
L 99.444756 195.397468 
L 99.621391 196.688835 
L 99.621391 196.688835 
L 99.798026 197.060119 
L 99.798026 197.060119 
L 100.151295 198.386219 
L 100.151295 198.386219 
L 100.504564 199.18418 
L 100.504564 199.18418 
L 100.681199 199.388109 
L 100.681199 199.388109 
L 100.857834 199.362311 
L 100.857834 199.362311 
L 101.034468 199.604882 
L 101.211103 199.427086 
L 101.211103 199.427086 
L 101.387738 199.649164 
L 101.387738 199.649164 
L 101.564372 199.467124 
L 101.564372 199.467124 
L 101.741007 198.874768 
L 101.741007 198.874768 
L 101.917642 199.506882 
L 101.917642 199.506882 
L 102.094276 199.204059 
L 102.094276 199.204059 
L 102.270911 199.450036 
L 102.447546 198.903023 
L 102.447546 198.903023 
L 102.62418 199.135543 
L 102.62418 199.135543 
L 102.800815 198.327028 
L 102.800815 198.327028 
L 102.97745 198.434074 
L 102.97745 198.434074 
L 103.154084 197.387121 
L 103.154084 197.387121 
L 103.330719 197.179673 
L 103.330719 197.179673 
L 103.507354 195.916449 
L 103.683989 192.841201 
L 103.683989 192.841201 
L 103.860623 193.840467 
L 104.037258 189.929286 
L 104.037258 189.929286 
L 104.213893 190.729927 
L 104.213893 190.729927 
L 104.390527 186.720579 
L 104.390527 186.720579 
L 104.567162 186.660495 
L 104.567162 186.660495 
L 104.743797 182.620434 
L 104.743797 182.620434 
L 104.920431 181.791258 
L 104.920431 181.791258 
L 105.273701 175.049243 
L 105.273701 175.049243 
L 105.450335 171.189603 
L 105.450335 171.189603 
L 105.62697 160.427072 
L 105.62697 160.427072 
L 105.803605 163.126067 
L 105.803605 163.126067 
L 105.980239 151.865494 
L 105.980239 151.865494 
L 106.156874 153.319078 
L 106.156874 153.319078 
L 106.333509 143.052689 
L 106.333509 143.052689 
L 106.510143 140.83906 
L 106.510143 140.83906 
L 106.863413 127.907237 
L 106.863413 127.907237 
L 107.040047 121.823581 
L 107.040047 121.823581 
L 107.216682 125.039938 
L 107.216682 125.039938 
L 107.393317 125.127552 
L 107.393317 125.127552 
L 107.569952 130.387504 
L 107.569952 130.387504 
L 107.746586 131.750739 
L 107.746586 131.750739 
L 108.27649 138.768997 
L 108.27649 138.768997 
L 108.62976 142.109432 
L 108.62976 142.109432 
L 108.806394 142.348206 
L 109.159664 143.592555 
L 109.159664 143.592555 
L 109.336298 143.832279 
L 109.336298 143.832279 
L 109.512933 144.322782 
L 109.512933 144.322782 
L 109.689568 143.796317 
L 109.689568 143.796317 
L 109.866202 144.510852 
L 109.866202 144.510852 
L 110.042837 143.920898 
L 110.042837 143.920898 
L 110.396106 144.471764 
L 110.396106 144.471764 
L 110.572741 143.801957 
L 110.572741 143.801957 
L 110.749376 144.065413 
L 110.749376 144.065413 
L 110.92601 143.784647 
L 110.92601 143.784647 
L 111.102645 143.123774 
L 111.102645 143.123774 
L 111.27928 143.422744 
L 111.27928 143.422744 
L 111.455915 143.251314 
L 111.455915 143.251314 
L 111.632549 141.481896 
L 111.809184 141.979993 
L 112.339088 139.971801 
L 112.339088 139.971801 
L 112.515723 137.449988 
L 112.515723 137.449988 
L 112.692357 137.429662 
L 112.692357 137.429662 
L 112.868992 136.382708 
L 112.868992 136.382708 
L 113.045627 132.622465 
L 113.045627 132.622465 
L 113.222261 132.931989 
L 113.222261 132.931989 
L 113.398896 130.63404 
L 113.398896 130.63404 
L 113.575531 125.808304 
L 113.575531 125.808304 
L 113.752165 126.712138 
L 113.752165 126.712138 
L 113.9288 123.428325 
L 113.9288 123.428325 
L 114.105435 116.438378 
L 114.105435 116.438378 
L 114.282069 118.11767 
L 114.458704 112.291272 
L 114.458704 112.291272 
L 114.635339 110.882862 
L 114.635339 110.882862 
L 114.811973 106.32248 
L 114.811973 106.32248 
L 114.988608 97.809148 
L 114.988608 97.809148 
L 115.165243 96.586297 
L 115.165243 96.586297 
L 115.341878 99.032614 
L 115.341878 99.032614 
L 115.518512 109.306708 
L 115.518512 109.306708 
L 115.695147 111.641232 
L 115.695147 111.641232 
L 116.754955 147.54718 
L 116.754955 147.54718 
L 116.93159 145.629226 
L 116.93159 145.629226 
L 117.284859 155.60234 
L 117.284859 155.60234 
L 117.461494 154.713136 
L 117.461494 154.713136 
L 117.814763 159.223262 
L 117.814763 159.223262 
L 117.991398 160.753906 
L 117.991398 160.753906 
L 118.168032 163.413366 
L 118.168032 163.413366 
L 118.344667 163.823235 
L 118.874571 167.901379 
L 118.874571 167.901379 
L 119.58111 170.44028 
L 119.58111 170.44028 
L 119.934379 171.044195 
L 119.934379 171.044195 
L 120.111014 170.473728 
L 120.111014 170.473728 
L 120.287649 170.996172 
L 120.287649 170.996172 
L 120.817553 171.521519 
L 120.817553 171.521519 
L 120.994187 171.130971 
L 121.170822 171.60394 
L 121.170822 171.60394 
L 121.347457 171.068262 
L 121.347457 171.068262 
L 121.524091 171.326357 
L 121.524091 171.326357 
L 121.877361 170.888288 
L 121.877361 170.888288 
L 122.053995 171.551952 
L 122.053995 171.551952 
L 122.23063 170.786156 
L 122.23063 170.786156 
L 122.583899 171.261749 
L 122.583899 171.261749 
L 122.760534 171.423798 
L 122.760534 171.423798 
L 122.937169 171.228468 
L 122.937169 171.228468 
L 123.113804 170.102221 
L 123.113804 170.102221 
L 123.290438 170.65426 
L 123.290438 170.65426 
L 123.467073 170.457981 
L 123.467073 170.457981 
L 123.643708 170.699547 
L 123.643708 170.699547 
L 123.996977 169.368198 
L 123.996977 169.368198 
L 124.173612 170.195754 
L 124.173612 170.195754 
L 124.350246 169.090447 
L 124.350246 169.090447 
L 124.526881 169.574528 
L 124.526881 169.574528 
L 124.703516 168.330123 
L 124.703516 168.330123 
L 124.88015 168.40238 
L 124.88015 168.40238 
L 125.056785 168.904107 
L 125.056785 168.904107 
L 125.23342 167.281382 
L 125.23342 167.281382 
L 125.410054 168.048407 
L 125.410054 168.048407 
L 125.586689 166.831587 
L 125.586689 166.831587 
L 125.939958 167.090073 
L 125.939958 167.090073 
L 126.116593 164.952945 
L 126.116593 164.952945 
L 126.293228 166.02525 
L 126.293228 166.02525 
L 126.469862 164.253487 
L 126.469862 164.253487 
L 126.646497 164.553294 
L 126.646497 164.553294 
L 126.999767 163.890188 
L 126.999767 163.890188 
L 127.176401 164.02817 
L 127.353036 162.085088 
L 127.353036 162.085088 
L 127.529671 162.484627 
L 127.529671 162.484627 
L 127.706305 161.040647 
L 127.706305 161.040647 
L 127.88294 160.714036 
L 127.88294 160.714036 
L 128.059575 161.188401 
L 128.059575 161.188401 
L 128.236209 158.735998 
L 128.236209 158.735998 
L 128.412844 159.491129 
L 128.412844 159.491129 
L 128.766113 158.028499 
L 128.766113 158.028499 
L 128.942748 157.962439 
L 128.942748 157.962439 
L 129.119383 155.378643 
L 129.119383 155.378643 
L 129.296017 156.035216 
L 129.296017 156.035216 
L 129.649287 154.534502 
L 129.649287 154.534502 
L 129.825921 154.216602 
L 129.825921 154.216602 
L 130.002556 151.786479 
L 130.002556 151.786479 
L 130.179191 152.161616 
L 130.179191 152.161616 
L 130.53246 150.186817 
L 130.53246 150.186817 
L 130.709095 149.978141 
L 130.709095 149.978141 
L 130.88573 147.313432 
L 130.88573 147.313432 
L 131.062364 147.55148 
L 131.238999 146.751062 
L 131.415634 144.056981 
L 131.415634 144.056981 
L 131.592268 145.536643 
L 131.592268 145.536643 
L 131.768903 143.410348 
L 131.768903 143.410348 
L 131.945538 142.979817 
L 131.945538 142.979817 
L 132.122172 141.865967 
L 132.122172 141.865967 
L 132.298807 139.482862 
L 132.298807 139.482862 
L 132.475442 140.367208 
L 132.475442 140.367208 
L 132.828711 135.765783 
L 132.828711 135.765783 
L 133.005346 136.678049 
L 133.005346 136.678049 
L 133.18198 134.524281 
L 133.18198 134.524281 
L 133.358615 134.514173 
L 133.358615 134.514173 
L 133.53525 133.609222 
L 133.53525 133.609222 
L 133.711884 130.444741 
L 133.711884 130.444741 
L 133.888519 130.815689 
L 134.065154 129.085248 
L 134.065154 129.085248 
L 134.241789 126.058078 
L 134.241789 126.058078 
L 134.418423 126.798858 
L 134.418423 126.798858 
L 134.595058 124.591986 
L 134.595058 124.591986 
L 134.771693 124.076522 
L 134.771693 124.076522 
L 134.948327 122.866514 
L 134.948327 122.866514 
L 135.124962 119.76167 
L 135.124962 119.76167 
L 135.301597 119.466107 
L 135.301597 119.466107 
L 135.478231 118.119959 
L 135.478231 118.119959 
L 135.654866 114.618871 
L 135.654866 114.618871 
L 135.831501 114.484631 
L 135.831501 114.484631 
L 136.008135 112.557352 
L 136.18477 109.160909 
L 136.18477 109.160909 
L 136.361405 109.116013 
L 136.361405 109.116013 
L 136.538039 107.063651 
L 136.538039 107.063651 
L 136.714674 103.395488 
L 136.714674 103.395488 
L 136.891309 103.337247 
L 136.891309 103.337247 
L 137.067943 101.141542 
L 137.067943 101.141542 
L 137.244578 97.316747 
L 137.244578 97.316747 
L 137.421213 96.742539 
L 137.421213 96.742539 
L 138.304386 83.519675 
L 138.304386 83.519675 
L 138.481021 78.193886 
L 138.481021 78.193886 
L 138.657656 80.08258 
L 138.657656 80.08258 
L 139.010925 71.280329 
L 139.18756 71.458795 
L 139.364194 68.956191 
L 139.364194 68.956191 
L 139.717464 57.813609 
L 139.717464 57.813609 
L 139.894098 59.145406 
L 139.894098 59.145406 
L 140.247368 53.568 
L 140.247368 53.568 
L 150.668814 53.568 
L 150.668814 53.568 
L 150.845449 56.305748 
L 150.845449 56.305748 
L 151.198718 74.334749 
L 151.198718 74.334749 
L 151.375353 74.116245 
L 151.375353 74.116245 
L 151.728622 87.038352 
L 151.728622 87.038352 
L 152.081891 104.942494 
L 152.081891 104.942494 
L 152.258526 103.217748 
L 152.258526 103.217748 
L 152.611795 117.699145 
L 152.611795 117.699145 
L 152.78843 126.633012 
L 152.78843 126.633012 
L 152.965065 124.398889 
L 152.965065 124.398889 
L 153.141699 130.236344 
L 153.141699 130.236344 
L 153.318334 139.807351 
L 153.318334 139.807351 
L 153.494969 139.772786 
L 153.494969 139.772786 
L 153.671604 143.927208 
L 153.671604 143.927208 
L 153.848238 153.077512 
L 153.848238 153.077512 
L 154.024873 153.762842 
L 154.024873 153.762842 
L 154.201508 157.566419 
L 154.201508 157.566419 
L 154.378142 166.2528 
L 154.378142 166.2528 
L 154.554777 166.411331 
L 154.554777 166.411331 
L 155.261316 184.672908 
L 155.261316 184.672908 
L 155.43795 185.927365 
L 155.614585 189.623168 
L 155.614585 189.623168 
L 155.79122 197.346078 
L 155.79122 197.346078 
L 155.967854 196.32844 
L 155.967854 196.32844 
L 156.144489 201.832918 
L 156.144489 201.832918 
L 156.321124 202.087719 
L 156.321124 202.087719 
L 156.674393 207.787806 
L 156.674393 207.787806 
L 156.851028 210.692908 
L 156.851028 210.692908 
L 157.027662 217.336476 
L 157.027662 217.336476 
L 157.204297 215.748037 
L 157.380932 221.041829 
L 157.380932 221.041829 
L 157.557567 220.29647 
L 157.557567 220.29647 
L 157.734201 224.629135 
L 157.734201 224.629135 
L 157.910836 224.391422 
L 157.910836 224.391422 
L 158.087471 228.048472 
L 158.087471 228.048472 
L 158.264105 228.09482 
L 158.264105 228.09482 
L 158.44074 231.221609 
L 158.44074 231.221609 
L 158.617375 231.414426 
L 158.617375 231.414426 
L 158.794009 234.165688 
L 158.794009 234.165688 
L 158.970644 234.365485 
L 158.970644 234.365485 
L 159.147279 236.817721 
L 159.147279 236.817721 
L 159.323913 236.966145 
L 159.323913 236.966145 
L 159.500548 239.156991 
L 159.500548 239.156991 
L 159.677183 239.235503 
L 159.677183 239.235503 
L 159.853817 241.360067 
L 159.853817 241.360067 
L 160.030452 241.189921 
L 160.030452 241.189921 
L 160.207087 242.893336 
L 160.207087 242.893336 
L 160.383721 243.21587 
L 160.383721 243.21587 
L 160.560356 244.273378 
L 160.560356 244.273378 
L 160.736991 244.211674 
L 160.736991 244.211674 
L 160.913625 245.337977 
L 160.913625 245.337977 
L 161.09026 245.569938 
L 161.09026 245.569938 
L 161.266895 246.105114 
L 161.266895 246.105114 
L 161.44353 246.122257 
L 161.44353 246.122257 
L 161.620164 246.599637 
L 161.620164 246.599637 
L 161.973434 246.869738 
L 161.973434 246.869738 
L 162.150068 247.402456 
L 162.150068 247.402456 
L 162.326703 247.243311 
L 162.503338 247.374313 
L 162.503338 247.374313 
L 163.033242 247.343433 
L 163.033242 247.343433 
L 163.209876 247.491745 
L 163.386511 247.327686 
L 163.563146 247.552835 
L 163.563146 247.552835 
L 163.916415 247.203217 
L 163.916415 247.203217 
L 164.09305 247.196796 
L 164.09305 247.196796 
L 164.446319 247.356276 
L 164.446319 247.356276 
L 164.799588 246.977398 
L 164.799588 246.977398 
L 164.976223 246.183961 
L 165.152858 246.021186 
L 165.152858 246.021186 
L 165.329493 245.464623 
L 165.329493 245.464623 
L 165.506127 245.522083 
L 165.506127 245.522083 
L 165.682762 244.389694 
L 165.682762 244.389694 
L 165.859397 244.5346 
L 165.859397 244.5346 
L 166.036031 243.042374 
L 166.036031 243.042374 
L 166.212666 243.338664 
L 166.212666 243.338664 
L 166.389301 241.540153 
L 166.389301 241.540153 
L 166.565935 242.317117 
L 166.565935 242.317117 
L 166.74257 239.682116 
L 166.74257 239.682116 
L 166.919205 240.432109 
L 166.919205 240.432109 
L 167.095839 237.192522 
L 167.095839 237.192522 
L 167.272474 238.917715 
L 167.272474 238.917715 
L 167.802378 235.361177 
L 167.802378 235.361177 
L 168.155647 233.097571 
L 168.155647 233.097571 
L 168.332282 230.961895 
L 168.332282 230.961895 
L 168.508917 230.659965 
L 168.508917 230.659965 
L 168.685551 228.520269 
L 168.685551 228.520269 
L 168.862186 228.444046 
L 168.862186 228.444046 
L 169.038821 225.136669 
L 169.038821 225.136669 
L 169.215456 225.291794 
L 169.215456 225.291794 
L 169.39209 221.9833 
L 169.39209 221.9833 
L 169.568725 222.375579 
L 169.568725 222.375579 
L 169.74536 218.703619 
L 169.74536 218.703619 
L 169.921994 219.312951 
L 169.921994 219.312951 
L 170.098629 215.333366 
L 170.098629 215.333366 
L 170.275264 216.112899 
L 170.275264 216.112899 
L 170.451898 211.865838 
L 170.451898 211.865838 
L 170.628533 212.785196 
L 170.628533 212.785196 
L 170.805168 208.333479 
L 170.805168 208.333479 
L 170.981802 209.341121 
L 170.981802 209.341121 
L 171.158437 204.758179 
L 171.158437 204.758179 
L 171.335072 205.77174 
L 171.335072 205.77174 
L 171.511706 201.145745 
L 171.511706 201.145745 
L 171.688341 202.113405 
L 171.864976 197.520077 
L 171.864976 197.520077 
L 172.04161 198.270629 
L 172.04161 198.270629 
L 172.218245 193.885418 
L 172.218245 193.885418 
L 172.39488 194.451753 
L 172.39488 194.451753 
L 172.571514 190.256344 
L 172.571514 190.256344 
L 172.748149 190.568883 
L 172.748149 190.568883 
L 172.924784 186.659657 
L 172.924784 186.659657 
L 173.101419 186.749169 
L 173.101419 186.749169 
L 173.278053 182.984793 
L 173.278053 182.984793 
L 173.454688 182.784828 
L 173.454688 182.784828 
L 173.631323 179.596894 
L 173.631323 179.596894 
L 173.807957 178.602821 
L 173.807957 178.602821 
L 173.984592 175.637467 
L 173.984592 175.637467 
L 174.161227 174.868655 
L 174.161227 174.868655 
L 174.337861 172.31585 
L 174.337861 172.31585 
L 174.514496 167.603917 
L 174.514496 167.603917 
L 174.691131 168.254459 
L 174.691131 168.254459 
L 174.867765 164.298606 
L 174.867765 164.298606 
L 175.0444 164.774143 
L 175.0444 164.774143 
L 175.221035 161.355755 
L 175.221035 161.355755 
L 175.397669 160.806173 
L 175.397669 160.806173 
L 175.927573 155.214528 
L 175.927573 155.214528 
L 176.104208 151.063457 
L 176.104208 151.063457 
L 176.280843 151.688479 
L 176.280843 151.688479 
L 176.457477 149.118476 
L 176.457477 149.118476 
L 176.634112 148.532318 
L 176.634112 148.532318 
L 176.810747 146.888653 
L 176.810747 146.888653 
L 176.987382 141.766292 
L 176.987382 141.766292 
L 177.164016 143.048669 
L 177.340651 140.331191 
L 177.340651 140.331191 
L 177.517286 139.856323 
L 177.517286 139.856323 
L 177.69392 138.180884 
L 177.69392 138.180884 
L 177.870555 133.598222 
L 177.870555 133.598222 
L 178.04719 134.495299 
L 178.04719 134.495299 
L 178.223824 131.238402 
L 178.223824 131.238402 
L 178.400459 130.295312 
L 178.400459 130.295312 
L 178.577094 128.480216 
L 178.577094 128.480216 
L 178.753728 123.180784 
L 178.753728 123.180784 
L 178.930363 123.537438 
L 178.930363 123.537438 
L 179.106998 120.701466 
L 179.106998 120.701466 
L 179.283632 113.885965 
L 179.283632 113.885965 
L 179.460267 115.7502 
L 179.460267 115.7502 
L 179.636902 110.225676 
L 179.636902 110.225676 
L 179.813536 108.874559 
L 179.813536 108.874559 
L 179.990171 105.245373 
L 179.990171 105.245373 
L 180.166806 98.258943 
L 180.166806 98.258943 
L 180.34344 97.217686 
L 180.34344 97.217686 
L 181.049979 77.023749 
L 181.049979 77.023749 
L 181.226614 66.794382 
L 181.226614 66.794382 
L 181.403249 65.083932 
L 181.403249 65.083932 
L 181.579883 57.960414 
L 181.579883 57.960414 
L 181.756518 56.131749 
L 181.756518 56.131749 
L 181.933153 66.589671 
L 181.933153 66.589671 
L 182.109787 65.662998 
L 182.109787 65.662998 
L 182.992961 98.628161 
L 182.992961 98.628161 
L 183.169595 108.684924 
L 183.169595 108.684924 
L 183.34623 109.43972 
L 183.34623 109.43972 
L 183.699499 123.837748 
L 183.699499 123.837748 
L 183.876134 134.502224 
L 183.876134 134.502224 
L 184.052769 133.786069 
L 184.052769 133.786069 
L 184.229404 139.650997 
L 184.229404 139.650997 
L 184.406038 149.864561 
L 184.406038 149.864561 
L 184.582673 150.840932 
L 184.582673 150.840932 
L 184.759308 156.244339 
L 184.759308 156.244339 
L 184.935942 166.082598 
L 184.935942 166.082598 
L 185.112577 167.108444 
L 185.112577 167.108444 
L 185.289212 173.050376 
L 185.289212 173.050376 
L 185.465846 183.136177 
L 185.465846 183.136177 
L 185.642481 182.55242 
L 185.642481 182.55242 
L 185.99575 199.992024 
L 185.99575 199.992024 
L 186.172385 197.307101 
L 186.172385 197.307101 
L 186.34902 206.658711 
L 186.34902 206.658711 
L 186.525654 205.980193 
L 186.702289 212.511857 
L 186.702289 212.511857 
L 186.878924 213.435012 
L 186.878924 213.435012 
L 187.232193 221.63251 
L 187.232193 221.63251 
L 187.408828 224.886001 
L 187.408828 224.886001 
L 187.585462 234.218904 
L 187.585462 234.218904 
L 187.762097 231.138351 
L 187.762097 231.138351 
L 187.938732 239.698533 
L 187.938732 239.698533 
L 188.115367 237.408178 
L 188.115367 237.408178 
L 188.292001 245.013767 
L 188.292001 245.013767 
L 188.468636 242.800417 
L 188.468636 242.800417 
L 188.645271 249.493572 
L 188.645271 249.493572 
L 188.821905 247.231473 
L 188.821905 247.231473 
L 189.881713 260.176921 
L 189.881713 260.176921 
L 190.058348 260.455956 
L 190.058348 260.455956 
L 190.234983 263.645231 
L 190.234983 263.645231 
L 190.411617 263.566943 
L 190.411617 263.566943 
L 190.588252 266.711042 
L 190.588252 266.711042 
L 190.764887 266.281014 
L 190.764887 266.281014 
L 190.941521 268.388379 
L 190.941521 268.388379 
L 191.118156 268.256149 
L 191.294791 268.630336 
L 191.294791 268.630336 
L 191.471425 270.228547 
L 191.64806 270.63166 
L 191.64806 270.63166 
L 191.824695 271.35351 
L 191.824695 271.35351 
L 192.00133 271.442352 
L 192.00133 271.442352 
L 192.177964 272.505109 
L 192.177964 272.505109 
L 192.531234 272.851264 
L 192.531234 272.851264 
L 192.707868 273.463388 
L 192.707868 273.463388 
L 192.884503 273.340595 
L 192.884503 273.340595 
L 193.237772 274.121301 
L 193.237772 274.121301 
L 193.414407 273.90369 
L 193.414407 273.90369 
L 193.591042 274.384924 
L 193.591042 274.384924 
L 193.767676 274.236276 
L 193.767676 274.236276 
L 194.120946 274.679259 
L 194.120946 274.679259 
L 194.29758 274.141292 
L 194.29758 274.141292 
L 194.474215 274.659994 
L 194.474215 274.659994 
L 194.65085 274.170273 
L 194.65085 274.170273 
L 194.827484 274.610352 
L 194.827484 274.610352 
L 195.004119 274.751852 
L 195.004119 274.751852 
L 195.180754 274.553618 
L 195.180754 274.553618 
L 195.357388 274.702321 
L 195.357388 274.702321 
L 195.534023 273.738291 
L 195.534023 273.738291 
L 195.710658 274.603874 
L 195.710658 274.603874 
L 195.887293 274.33221 
L 195.887293 274.33221 
L 196.063927 274.329195 
L 196.063927 274.329195 
L 196.240562 274.45746 
L 196.240562 274.45746 
L 196.417197 273.704172 
L 196.417197 273.704172 
L 196.593831 274.03821 
L 196.593831 274.03821 
L 196.770466 273.89174 
L 196.770466 273.89174 
L 197.30037 271.860598 
L 197.30037 271.860598 
L 197.477005 272.217363 
L 197.477005 272.217363 
L 197.653639 269.541932 
L 197.653639 269.541932 
L 197.830274 270.803314 
L 197.830274 270.803314 
L 198.006909 269.997591 
L 198.006909 269.997591 
L 198.183543 268.52262 
L 198.183543 268.52262 
L 198.360178 268.671435 
L 198.360178 268.671435 
L 198.536813 265.047107 
L 198.536813 265.047107 
L 198.713447 266.524088 
L 198.713447 266.524088 
L 199.243351 263.171257 
L 199.243351 263.171257 
L 199.419986 258.911185 
L 199.419986 258.911185 
L 199.596621 260.097628 
L 199.596621 260.097628 
L 199.773256 254.784348 
L 199.773256 254.784348 
L 199.94989 256.62446 
L 199.94989 256.62446 
L 200.126525 255.220797 
L 200.126525 255.220797 
L 200.30316 251.838873 
L 200.30316 251.838873 
L 200.479794 251.39321 
L 200.479794 251.39321 
L 200.656429 246.355279 
L 200.656429 246.355279 
L 200.833064 247.356667 
L 200.833064 247.356667 
L 201.009698 240.317357 
L 201.009698 240.317357 
L 201.186333 243.354187 
L 201.186333 243.354187 
L 201.716237 235.769204 
L 201.716237 235.769204 
L 201.892872 230.552081 
L 201.892872 230.552081 
L 202.069506 230.989871 
L 202.069506 230.989871 
L 202.246141 223.268637 
L 202.246141 223.268637 
L 202.422776 225.347746 
L 202.422776 225.347746 
L 202.59941 215.823031 
L 202.59941 215.823031 
L 202.776045 219.231982 
L 202.776045 219.231982 
L 203.305949 209.226816 
L 203.305949 209.226816 
L 203.482584 203.431967 
L 203.482584 203.431967 
L 203.659219 201.815049 
L 203.659219 201.815049 
L 203.835853 194.745921 
L 203.835853 194.745921 
L 204.012488 194.046742 
L 204.012488 194.046742 
L 204.189123 185.43809 
L 204.189123 185.43809 
L 204.365757 185.501916 
L 204.365757 185.501916 
L 204.542392 176.043148 
L 204.542392 176.043148 
L 204.719027 176.241773 
L 204.719027 176.241773 
L 204.895661 166.928694 
L 204.895661 166.928694 
L 205.072296 166.932156 
L 205.072296 166.932156 
L 205.248931 157.428492 
L 205.248931 157.428492 
L 205.425565 156.794591 
L 205.425565 156.794591 
L 205.6022 147.966542 
L 205.6022 147.966542 
L 205.778835 146.446117 
L 205.778835 146.446117 
L 206.132104 136.004054 
L 206.132104 136.004054 
L 206.308739 130.285428 
L 206.308739 130.285428 
L 206.485373 116.932958 
L 206.485373 116.932958 
L 206.662008 119.911435 
L 206.662008 119.911435 
L 206.838643 109.554193 
L 206.838643 109.554193 
L 207.015277 109.055984 
L 207.368547 89.50734 
L 207.368547 89.50734 
L 207.545182 93.268645 
L 207.545182 93.268645 
L 207.721816 83.474444 
L 207.721816 83.474444 
L 207.898451 82.215743 
L 207.898451 82.215743 
L 208.075086 76.710818 
L 208.075086 76.710818 
L 208.25172 66.629708 
L 208.25172 66.629708 
L 208.428355 66.587828 
L 208.428355 66.587828 
L 208.958259 53.568 
L 208.958259 53.568 
L 214.787203 53.568 
L 214.787203 53.568 
L 214.963838 53.748141 
L 214.963838 53.748141 
L 215.317108 61.709602 
L 215.317108 61.709602 
L 215.670377 73.510655 
L 215.670377 73.510655 
L 215.847012 73.394171 
L 216.200281 82.518343 
L 216.200281 82.518343 
L 216.376916 87.960782 
L 216.376916 87.960782 
L 216.55355 89.466744 
L 216.55355 89.466744 
L 216.90682 97.086181 
L 216.90682 97.086181 
L 217.260089 110.904529 
L 217.260089 110.904529 
L 217.436724 109.557376 
L 217.436724 109.557376 
L 218.319897 130.889566 
L 218.319897 130.889566 
L 218.496532 137.553237 
L 218.496532 137.553237 
L 218.673166 136.55788 
L 218.673166 136.55788 
L 219.026436 148.670077 
L 219.026436 148.670077 
L 219.203071 147.332864 
L 219.203071 147.332864 
L 219.55634 159.049319 
L 219.55634 159.049319 
L 219.732975 157.725285 
L 219.732975 157.725285 
L 220.086244 163.368135 
L 220.086244 163.368135 
L 220.969417 180.407084 
L 220.969417 180.407084 
L 221.146052 179.91189 
L 221.322687 184.379689 
L 221.322687 184.379689 
L 221.499321 184.496452 
L 221.499321 184.496452 
L 221.852591 191.629127 
L 221.852591 191.629127 
L 222.029225 190.566873 
L 222.029225 190.566873 
L 222.20586 193.632852 
L 222.20586 193.632852 
L 222.382495 193.954996 
L 222.382495 193.954996 
L 222.559129 196.249259 
L 222.559129 196.249259 
L 222.735764 196.438335 
L 222.735764 196.438335 
L 223.089034 199.296308 
L 223.089034 199.296308 
L 223.265668 200.15117 
L 223.265668 200.15117 
L 223.442303 201.70013 
L 223.442303 201.70013 
L 223.618938 201.951859 
L 223.618938 201.951859 
L 223.795572 203.178507 
L 223.795572 203.178507 
L 223.972207 203.334525 
L 223.972207 203.334525 
L 224.325476 204.330943 
L 224.325476 204.330943 
L 224.85538 204.990811 
L 224.85538 204.990811 
L 225.561919 205.31396 
L 225.561919 205.31396 
L 225.738554 205.13326 
L 225.738554 205.13326 
L 225.915188 205.34953 
L 225.915188 205.34953 
L 226.091823 205.162129 
L 226.091823 205.162129 
L 226.268458 205.379796 
L 226.268458 205.379796 
L 226.445092 205.143255 
L 226.445092 205.143255 
L 226.621727 205.353383 
L 226.621727 205.353383 
L 226.798362 205.016721 
L 226.798362 205.016721 
L 226.974997 205.179663 
L 226.974997 205.179663 
L 227.151631 204.724954 
L 227.151631 204.724954 
L 227.328266 204.757844 
L 227.328266 204.757844 
L 227.504901 204.073965 
L 227.504901 204.073965 
L 227.681535 202.668013 
L 227.681535 202.668013 
L 227.85817 203.245181 
L 228.034805 201.367544 
L 228.034805 201.367544 
L 228.211439 201.874184 
L 228.211439 201.874184 
L 228.388074 199.671667 
L 228.388074 199.671667 
L 228.564709 199.992192 
L 228.564709 199.992192 
L 228.741343 197.510249 
L 228.741343 197.510249 
L 228.917978 197.520021 
L 228.917978 197.520021 
L 229.094613 194.795116 
L 229.094613 194.795116 
L 229.271247 194.155016 
L 229.271247 194.155016 
L 229.801151 187.636196 
L 229.801151 187.636196 
L 229.977786 179.558699 
L 229.977786 179.558699 
L 230.154421 182.202803 
L 230.154421 182.202803 
L 230.331055 174.47833 
L 230.331055 174.47833 
L 230.50769 176.304817 
L 230.50769 176.304817 
L 230.684325 168.181252 
L 230.684325 168.181252 
L 230.86096 168.815153 
L 230.86096 168.815153 
L 231.037594 161.482457 
L 231.214229 160.196115 
L 231.214229 160.196115 
L 231.567498 150.392477 
L 231.567498 150.392477 
L 231.744133 145.151455 
L 231.744133 145.151455 
L 231.920768 131.657876 
L 231.920768 131.657876 
L 232.097402 134.299578 
L 232.097402 134.299578 
L 232.274037 121.772989 
L 232.274037 121.772989 
L 232.450672 120.779475 
L 232.450672 120.779475 
L 232.627306 112.028151 
L 232.627306 112.028151 
L 232.803941 97.68937 
L 232.803941 97.68937 
L 232.980576 101.47921 
L 232.980576 101.47921 
L 233.15721 90.120413 
L 233.15721 90.120413 
L 233.333845 89.394877 
L 233.333845 89.394877 
L 233.51048 83.780506 
L 233.51048 83.780506 
L 233.687114 73.04098 
L 233.687114 73.04098 
L 233.863749 73.719722 
L 233.863749 73.719722 
L 234.217018 60.398802 
L 234.217018 60.398802 
L 234.393653 61.044597 
L 234.393653 61.044597 
L 234.746923 53.568 
L 234.746923 53.568 
L 241.105771 53.568 
L 241.105771 53.568 
L 241.282406 55.005614 
L 241.282406 55.005614 
L 241.635675 62.570774 
L 241.635675 62.570774 
L 241.81231 63.610915 
L 241.81231 63.610915 
L 242.342214 72.547797 
L 242.342214 72.547797 
L 242.518849 76.945237 
L 242.518849 76.945237 
L 242.695483 77.476112 
L 242.695483 77.476112 
L 242.872118 79.477213 
L 242.872118 79.477213 
L 243.402022 91.057138 
L 243.402022 91.057138 
L 243.578657 90.417764 
L 243.578657 90.417764 
L 244.108561 101.921131 
L 244.108561 101.921131 
L 244.285195 101.578997 
L 244.285195 101.578997 
L 245.345003 120.418578 
L 245.345003 120.418578 
L 245.521638 120.576942 
L 245.521638 120.576942 
L 245.698273 122.888348 
L 245.698273 122.888348 
L 245.874908 127.34738 
L 245.874908 127.34738 
L 246.051542 127.697891 
L 246.051542 127.697891 
L 246.228177 129.221666 
L 246.228177 129.221666 
L 246.404812 132.448857 
L 246.758081 134.589558 
L 246.758081 134.589558 
L 246.934716 137.064074 
L 246.934716 137.064074 
L 247.11135 137.71551 
L 247.11135 137.71551 
L 247.287985 138.834944 
L 247.287985 138.834944 
L 247.46462 140.686839 
L 247.46462 140.686839 
L 247.817889 141.98407 
L 247.817889 141.98407 
L 247.994524 143.298499 
L 247.994524 143.298499 
L 248.171158 143.654092 
L 248.171158 143.654092 
L 248.524428 144.892634 
L 248.524428 144.892634 
L 248.701062 145.145089 
L 248.701062 145.145089 
L 248.877697 145.786194 
L 248.877697 145.786194 
L 249.054332 145.588853 
L 249.054332 145.588853 
L 249.230966 146.265808 
L 249.230966 146.265808 
L 249.407601 145.803672 
L 249.407601 145.803672 
L 249.584236 145.69562 
L 249.584236 145.69562 
L 249.760871 145.970244 
L 249.760871 145.970244 
L 249.937505 145.813332 
L 249.937505 145.813332 
L 250.11414 146.092535 
L 250.11414 146.092535 
L 250.290775 145.935176 
L 250.290775 145.935176 
L 250.467409 146.180539 
L 250.467409 146.180539 
L 250.644044 146.015922 
L 250.644044 146.015922 
L 250.820679 146.22242 
L 250.820679 146.22242 
L 250.997313 145.255932 
L 250.997313 145.255932 
L 251.173948 145.544684 
L 251.173948 145.544684 
L 251.350583 145.462486 
L 251.350583 145.462486 
L 251.527217 143.841325 
L 251.527217 143.841325 
L 251.703852 144.293577 
L 251.703852 144.293577 
L 252.233756 142.029133 
L 252.233756 142.029133 
L 252.410391 140.09063 
L 252.410391 140.09063 
L 252.587025 140.052993 
L 252.587025 140.052993 
L 252.76366 138.66854 
L 252.76366 138.66854 
L 252.940295 135.677443 
L 252.940295 135.677443 
L 253.116929 135.965022 
L 253.116929 135.965022 
L 253.293564 134.431585 
L 253.293564 134.431585 
L 253.470199 130.113662 
L 253.470199 130.113662 
L 253.646834 130.889678 
L 253.646834 130.889678 
L 253.823468 128.512101 
L 253.823468 128.512101 
L 254.000103 123.615726 
L 254.000103 123.615726 
L 254.176738 125.389221 
L 254.176738 125.389221 
L 254.353372 121.17047 
L 254.353372 121.17047 
L 254.530007 120.732737 
L 254.530007 120.732737 
L 254.706642 118.264307 
L 254.706642 118.264307 
L 254.883276 113.743627 
L 254.883276 113.743627 
L 255.059911 113.621392 
L 255.059911 113.621392 
L 255.236546 110.927144 
L 255.236546 110.927144 
L 255.41318 105.907473 
L 255.41318 105.907473 
L 255.589815 105.890107 
L 255.589815 105.890107 
L 257.532797 69.679047 
L 257.532797 69.679047 
L 257.709431 62.859469 
L 257.709431 62.859469 
L 257.886066 64.429593 
L 257.886066 64.429593 
L 258.239335 53.568 
L 258.239335 53.568 
L 276.256073 53.568 
L 276.256073 53.568 
L 276.609342 65.999437 
L 276.609342 65.999437 
L 276.962612 87.383 
L 276.962612 87.383 
L 277.139246 87.844689 
L 277.139246 87.844689 
L 277.66915 113.504909 
L 277.66915 113.504909 
L 277.845785 126.137372 
L 277.845785 126.137372 
L 278.02242 123.591045 
L 278.02242 123.591045 
L 278.199054 130.635269 
L 278.199054 130.635269 
L 278.375689 143.704236 
L 278.375689 143.704236 
L 278.552324 143.876002 
L 278.552324 143.876002 
L 279.612132 183.542417 
L 279.612132 183.542417 
L 279.788766 189.374511 
L 279.788766 189.374511 
L 279.965401 202.405898 
L 279.965401 202.405898 
L 280.142036 200.387989 
L 280.142036 200.387989 
L 280.31867 209.481839 
L 280.31867 209.481839 
L 280.495305 210.614564 
L 280.495305 210.614564 
L 280.848575 220.522624 
L 280.848575 220.522624 
L 281.025209 224.210833 
L 281.025209 224.210833 
L 281.201844 235.910983 
L 281.201844 235.910983 
L 281.378479 232.844892 
L 281.378479 232.844892 
L 281.555113 242.778583 
L 281.555113 242.778583 
L 281.731748 240.328804 
L 281.731748 240.328804 
L 281.908383 248.674447 
L 281.908383 248.674447 
L 282.085017 247.21768 
L 282.085017 247.21768 
L 282.261652 255.078013 
L 282.261652 255.078013 
L 282.438287 252.766439 
L 282.438287 252.766439 
L 282.614921 261.480183 
L 282.614921 261.480183 
L 282.791556 258.815921 
L 282.791556 258.815921 
L 283.32146 265.563464 
L 283.32146 265.563464 
L 283.498095 270.465311 
L 283.498095 270.465311 
L 283.674729 270.464976 
L 283.674729 270.464976 
L 283.851364 276.086551 
L 283.851364 276.086551 
L 284.027999 274.870066 
L 284.027999 274.870066 
L 285.087807 287.244825 
L 285.087807 287.244825 
L 285.264442 286.310892 
L 285.264442 286.310892 
L 285.97098 291.949499 
L 285.97098 291.949499 
L 286.147615 291.682135 
L 286.147615 291.682135 
L 286.677519 293.758899 
L 286.677519 293.758899 
L 286.854154 294.519223 
L 286.854154 294.519223 
L 287.207423 294.584836 
L 287.207423 294.584836 
L 287.560692 295.25844 
L 287.560692 295.25844 
L 287.737327 295.224154 
L 287.737327 295.224154 
L 287.913962 295.327235 
L 287.913962 295.327235 
L 288.090596 295.163734 
L 288.090596 295.163734 
L 288.443866 295.430819 
L 288.443866 295.430819 
L 288.620501 295.22823 
L 288.620501 295.22823 
L 288.97377 295.488 
L 288.97377 295.488 
L 289.150405 295.220468 
L 289.150405 295.220468 
L 289.327039 295.349962 
L 289.327039 295.349962 
L 289.503674 294.737727 
L 289.503674 294.737727 
L 289.680309 295.017041 
L 289.680309 295.017041 
L 289.856943 295.018996 
L 289.856943 295.018996 
L 290.033578 294.096678 
L 290.033578 294.096678 
L 290.210213 294.278774 
L 290.210213 294.278774 
L 290.386847 292.423417 
L 290.386847 292.423417 
L 290.563482 293.087082 
L 290.563482 293.087082 
L 290.740117 292.797939 
L 290.740117 292.797939 
L 290.916751 290.792037 
L 290.916751 290.792037 
L 291.093386 291.111333 
L 291.093386 291.111333 
L 291.270021 287.633977 
L 291.270021 287.633977 
L 291.446655 288.652731 
L 291.446655 288.652731 
L 291.62329 288.224155 
L 291.62329 288.224155 
L 291.799925 285.18833 
L 291.799925 285.18833 
L 291.97656 285.61618 
L 291.97656 285.61618 
L 292.153194 280.672118 
L 292.153194 280.672118 
L 292.329829 282.466385 
L 292.329829 282.466385 
L 292.506464 281.332432 
L 292.506464 281.332432 
L 292.683098 277.935821 
L 292.683098 277.935821 
L 292.859733 278.184032 
L 292.859733 278.184032 
L 293.036368 272.828537 
L 293.036368 272.828537 
L 293.213002 274.245267 
L 293.213002 274.245267 
L 293.389637 273.188485 
L 293.389637 273.188485 
L 293.566272 268.985761 
L 293.566272 268.985761 
L 293.742906 269.297742 
L 293.742906 269.297742 
L 293.919541 262.066899 
L 293.919541 262.066899 
L 294.096176 264.80152 
L 294.096176 264.80152 
L 294.27281 263.126696 
L 294.27281 263.126696 
L 294.449445 258.128189 
L 294.449445 258.128189 
L 294.62608 259.142197 
L 294.62608 259.142197 
L 294.802714 251.075086 
L 294.802714 251.075086 
L 294.979349 253.645257 
L 295.155984 252.264601 
L 295.155984 252.264601 
L 295.332618 245.830825 
L 295.332618 245.830825 
L 295.509253 246.763138 
L 295.509253 246.763138 
L 295.685888 238.184082 
L 295.685888 238.184082 
L 295.862523 241.210861 
L 295.862523 241.210861 
L 296.039157 238.596464 
L 296.039157 238.596464 
L 296.215792 232.710596 
L 296.215792 232.710596 
L 296.392427 232.257506 
L 296.392427 232.257506 
L 296.569061 224.689498 
L 296.569061 224.689498 
L 296.745696 226.461094 
L 296.745696 226.461094 
L 296.922331 216.32621 
L 296.922331 216.32621 
L 297.098965 219.66469 
L 297.098965 219.66469 
L 297.982139 204.076311 
L 297.982139 204.076311 
L 298.158773 197.879522 
L 298.158773 197.879522 
L 298.335408 198.009407 
L 298.335408 198.009407 
L 298.512043 191.374829 
L 298.688677 192.30731 
L 298.688677 192.30731 
L 298.865312 185.983652 
L 298.865312 185.983652 
L 299.041947 186.363144 
L 299.041947 186.363144 
L 299.218581 181.294501 
L 299.218581 181.294501 
L 299.395216 181.890543 
L 299.395216 181.890543 
L 299.571851 177.062852 
L 299.571851 177.062852 
L 299.748486 177.549893 
L 299.748486 177.549893 
L 299.92512 173.349067 
L 299.92512 173.349067 
L 300.101755 173.402842 
L 300.101755 173.402842 
L 300.27839 169.860599 
L 300.27839 169.860599 
L 300.455024 169.490879 
L 300.455024 169.490879 
L 300.631659 166.311153 
L 300.631659 166.311153 
L 300.808294 165.465226 
L 300.808294 165.465226 
L 300.984928 162.795603 
L 300.984928 162.795603 
L 301.161563 156.571285 
L 301.161563 156.571285 
L 301.338198 158.210874 
L 301.338198 158.210874 
L 301.514832 152.382968 
L 301.514832 152.382968 
L 301.691467 152.982471 
L 301.691467 152.982471 
L 301.868102 147.773725 
L 301.868102 147.773725 
L 302.044736 146.56327 
L 302.044736 146.56327 
L 302.57464 135.574138 
L 302.57464 135.574138 
L 302.751275 143.535598 
L 302.751275 143.535598 
L 302.92791 144.611589 
L 302.92791 144.611589 
L 303.104544 151.959753 
L 303.104544 151.959753 
L 303.281179 167.981678 
L 303.281179 167.981678 
L 303.457814 164.739802 
L 303.457814 164.739802 
L 303.634449 176.924926 
L 303.634449 176.924926 
L 303.811083 177.634268 
L 303.811083 177.634268 
L 303.987718 184.13427 
L 303.987718 184.13427 
L 304.164353 194.973024 
L 304.164353 194.973024 
L 304.340987 192.351033 
L 304.340987 192.351033 
L 304.517622 201.039313 
L 304.517622 201.039313 
L 304.694257 201.105372 
L 304.694257 201.105372 
L 305.047526 208.421819 
L 305.047526 208.421819 
L 305.224161 211.587194 
L 305.224161 211.587194 
L 305.400795 219.847512 
L 305.400795 219.847512 
L 305.57743 217.770525 
L 305.57743 217.770525 
L 305.754065 223.84318 
L 305.754065 223.84318 
L 305.930699 223.216872 
L 305.930699 223.216872 
L 306.107334 227.958178 
L 306.107334 227.958178 
L 306.283969 228.072819 
L 306.283969 228.072819 
L 306.460603 231.963227 
L 306.460603 231.963227 
L 306.637238 232.466685 
L 306.637238 232.466685 
L 306.813873 235.793215 
L 306.990507 236.431025 
L 306.990507 236.431025 
L 307.167142 239.379348 
L 307.167142 239.379348 
L 307.343777 240.000406 
L 307.520412 243.053151 
L 307.520412 243.053151 
L 307.697046 243.388585 
L 307.697046 243.388585 
L 307.873681 246.093387 
L 307.873681 246.093387 
L 308.050316 246.630741 
L 308.050316 246.630741 
L 308.22695 248.92679 
L 308.22695 248.92679 
L 308.403585 249.069575 
L 308.403585 249.069575 
L 308.58022 251.254055 
L 308.58022 251.254055 
L 308.756854 251.488753 
L 308.756854 251.488753 
L 308.933489 253.158551 
L 308.933489 253.158551 
L 309.110124 253.092827 
L 309.110124 253.092827 
L 309.286758 254.929812 
L 309.463393 255.004974 
L 309.463393 255.004974 
L 309.640028 256.540085 
L 309.640028 256.540085 
L 310.346566 258.116295 
L 310.346566 258.116295 
L 310.523201 259.377285 
L 310.523201 259.377285 
L 310.87647 259.672402 
L 310.87647 259.672402 
L 311.053105 260.13264 
L 311.053105 260.13264 
L 311.22974 260.93557 
L 311.22974 260.93557 
L 311.406375 261.023854 
L 311.406375 261.023854 
L 311.583009 260.920996 
L 311.583009 260.920996 
L 311.759644 261.408986 
L 311.759644 261.408986 
L 311.936279 261.196178 
L 311.936279 261.196178 
L 312.289548 261.137601 
L 312.289548 261.137601 
L 312.642817 261.708906 
L 312.642817 261.708906 
L 312.819452 261.415184 
L 312.819452 261.415184 
L 312.996087 261.664289 
L 312.996087 261.664289 
L 313.349356 261.616992 
L 313.349356 261.616992 
L 313.525991 261.314727 
L 313.525991 261.314727 
L 313.87926 261.656248 
L 313.87926 261.656248 
L 314.055895 260.471201 
L 314.055895 260.471201 
L 314.232529 261.509164 
L 314.232529 261.509164 
L 314.409164 260.728905 
L 314.409164 260.728905 
L 314.585799 261.104935 
L 314.585799 261.104935 
L 314.939068 260.18943 
L 314.939068 260.18943 
L 315.115703 260.341372 
L 315.115703 260.341372 
L 315.292338 258.577873 
L 315.292338 258.577873 
L 315.468972 259.599865 
L 315.468972 259.599865 
L 315.645607 257.174768 
L 315.645607 257.174768 
L 315.822242 258.290071 
L 315.822242 258.290071 
L 315.998876 257.618253 
L 315.998876 257.618253 
L 316.175511 255.617432 
L 316.175511 255.617432 
L 316.352146 255.436007 
L 316.352146 255.436007 
L 316.52878 253.537932 
L 316.52878 253.537932 
L 316.705415 253.945233 
L 316.705415 253.945233 
L 316.88205 250.665943 
L 316.88205 250.665943 
L 317.058684 252.099201 
L 317.058684 252.099201 
L 317.765223 245.335185 
L 317.765223 245.335185 
L 317.941858 245.32022 
L 317.941858 245.32022 
L 318.118492 240.678254 
L 318.118492 240.678254 
L 318.295127 241.576058 
L 318.295127 241.576058 
L 318.471762 236.885344 
L 318.471762 236.885344 
L 318.648396 238.869469 
L 318.648396 238.869469 
L 319.708205 225.224283 
L 319.708205 225.224283 
L 319.884839 225.672235 
L 319.884839 225.672235 
L 320.061474 220.431716 
L 320.061474 220.431716 
L 320.238109 221.518707 
L 320.238109 221.518707 
L 320.414743 215.181982 
L 320.414743 215.181982 
L 320.591378 217.206982 
L 320.591378 217.206982 
L 320.768013 210.245626 
L 320.944647 212.747224 
L 320.944647 212.747224 
L 323.064264 183.468372 
L 323.064264 183.468372 
L 323.240898 175.30019 
L 323.240898 175.30019 
L 323.417533 177.346857 
L 323.417533 177.346857 
L 323.594168 170.455524 
L 323.594168 170.455524 
L 323.770802 172.087128 
L 323.770802 172.087128 
L 323.947437 165.19546 
L 323.947437 165.19546 
L 324.124072 165.904802 
L 324.124072 165.904802 
L 324.300706 159.97253 
L 324.300706 159.97253 
L 324.477341 160.045737 
L 324.477341 160.045737 
L 324.653976 154.439685 
L 324.653976 154.439685 
L 324.83061 153.256146 
L 324.83061 153.256146 
L 325.007245 148.624846 
L 325.007245 148.624846 
L 325.18388 138.79245 
L 325.18388 138.79245 
L 325.360514 141.908238 
L 325.360514 141.908238 
L 325.537149 133.203932 
L 325.537149 133.203932 
L 325.713784 134.026016 
L 325.713784 134.026016 
L 325.890418 126.598726 
L 325.890418 126.598726 
L 326.067053 124.999566 
L 326.243688 120.738153 
L 326.243688 120.738153 
L 326.420322 113.187847 
L 326.420322 113.187847 
L 326.596957 113.285177 
L 326.596957 113.285177 
L 326.773592 114.722009 
L 326.773592 114.722009 
L 326.950227 117.436863 
L 326.950227 117.436863 
L 327.126861 122.703181 
L 327.126861 122.703181 
L 327.303496 131.730301 
L 327.303496 131.730301 
L 327.480131 132.743862 
L 327.480131 132.743862 
L 327.656765 137.476289 
L 327.656765 137.476289 
L 327.8334 147.236818 
L 327.8334 147.236818 
L 328.010035 147.114695 
L 328.010035 147.114695 
L 328.363304 161.025124 
L 328.363304 161.025124 
L 328.539939 159.354487 
L 328.893208 172.644807 
L 328.893208 172.644807 
L 329.069843 170.564413 
L 329.069843 170.564413 
L 329.246477 176.315427 
L 329.246477 176.315427 
L 329.423112 176.58938 
L 329.423112 176.58938 
L 329.776381 186.293064 
L 329.776381 186.293064 
L 329.953016 185.419048 
L 329.953016 185.419048 
L 330.129651 189.957486 
L 330.129651 189.957486 
L 330.306285 190.235348 
L 330.306285 190.235348 
L 330.659555 194.522447 
L 330.659555 194.522447 
L 330.83619 196.287956 
L 330.83619 196.287956 
L 331.012824 200.368613 
L 331.012824 200.368613 
L 331.189459 199.842986 
L 331.189459 199.842986 
L 331.366094 202.680019 
L 331.366094 202.680019 
L 331.542728 202.85815 
L 331.542728 202.85815 
L 331.895998 205.340875 
L 331.895998 205.340875 
L 332.602536 209.213302 
L 332.602536 209.213302 
L 332.779171 209.028693 
L 332.779171 209.028693 
L 332.955806 209.675997 
L 332.955806 209.675997 
L 333.309075 210.000597 
L 333.309075 210.000597 
L 333.48571 210.199836 
L 333.48571 210.199836 
L 333.662344 210.142153 
L 333.662344 210.142153 
L 333.838979 210.359484 
L 333.838979 210.359484 
L 334.015614 210.185262 
L 334.015614 210.185262 
L 334.192248 210.397233 
L 334.192248 210.397233 
L 334.368883 210.206425 
L 334.368883 210.206425 
L 334.545518 210.419345 
L 334.545518 210.419345 
L 334.722153 210.216309 
L 334.722153 210.216309 
L 334.898787 210.697152 
L 334.898787 210.697152 
L 335.252057 209.778017 
L 335.252057 209.778017 
L 335.428691 209.857311 
L 335.428691 209.857311 
L 335.605326 208.879488 
L 335.605326 208.879488 
L 335.781961 209.292707 
L 335.781961 209.292707 
L 335.958595 207.942261 
L 335.958595 207.942261 
L 336.13523 208.335992 
L 336.13523 208.335992 
L 336.311865 206.58824 
L 336.311865 206.58824 
L 336.488499 206.911556 
L 336.488499 206.911556 
L 336.665134 204.828091 
L 336.665134 204.828091 
L 336.841769 204.926706 
L 336.841769 204.926706 
L 337.018403 202.517635 
L 337.018403 202.517635 
L 337.195038 202.275175 
L 337.195038 202.275175 
L 337.371673 199.460423 
L 337.371673 199.460423 
L 337.548307 198.861254 
L 337.548307 198.861254 
L 338.078211 191.309217 
L 338.078211 191.309217 
L 338.254846 183.090723 
L 338.254846 183.090723 
L 338.431481 185.391798 
L 338.431481 185.391798 
L 338.608116 176.659292 
L 338.608116 176.659292 
L 338.78475 178.529112 
L 338.78475 178.529112 
L 338.961385 168.857592 
L 338.961385 168.857592 
L 339.13802 169.807998 
L 339.13802 169.807998 
L 339.314654 159.476331 
L 339.314654 159.476331 
L 339.491289 159.323831 
L 339.491289 159.323831 
L 339.667924 154.319516 
L 339.667924 154.319516 
L 339.844558 154.849555 
L 339.844558 154.849555 
L 340.021193 161.075157 
L 340.021193 161.075157 
L 340.197828 171.421509 
L 340.197828 171.421509 
L 340.374462 169.984398 
L 340.374462 169.984398 
L 340.551097 177.598865 
L 340.551097 177.598865 
L 340.727732 177.377736 
L 340.727732 177.377736 
L 340.904366 181.643784 
L 340.904366 181.643784 
L 341.081001 182.238485 
L 341.081001 182.238485 
L 341.43427 186.608507 
L 341.43427 186.608507 
L 341.610905 186.884862 
L 341.610905 186.884862 
L 341.964174 187.706052 
L 341.964174 187.706052 
L 342.317444 188.458726 
L 342.317444 188.458726 
L 342.670713 188.147081 
L 342.670713 188.147081 
L 342.847348 188.359554 
L 342.847348 188.359554 
L 343.023983 188.196946 
L 343.023983 188.196946 
L 343.200617 188.395515 
L 343.200617 188.395515 
L 343.730521 187.113473 
L 343.730521 187.113473 
L 343.907156 184.723499 
L 343.907156 184.723499 
L 344.083791 185.493205 
L 344.083791 185.493205 
L 344.260425 182.073588 
L 344.260425 182.073588 
L 344.43706 182.137079 
L 344.43706 182.137079 
L 344.966964 174.831744 
L 344.966964 174.831744 
L 345.143599 165.14727 
L 345.143599 165.14727 
L 345.320233 167.915116 
L 345.320233 167.915116 
L 345.496868 158.388167 
L 345.496868 158.388167 
L 345.673503 159.559366 
L 345.673503 159.559366 
L 345.850138 150.557877 
L 345.850138 150.557877 
L 346.026772 149.979257 
L 346.026772 149.979257 
L 346.203407 146.364813 
L 346.203407 146.364813 
L 346.380042 149.291302 
L 346.380042 149.291302 
L 347.08658 170.722442 
L 347.08658 170.722442 
L 347.43985 175.820903 
L 347.43985 175.820903 
L 347.616484 180.331811 
L 347.616484 180.331811 
L 347.793119 180.73135 
L 347.793119 180.73135 
L 348.146388 184.655876 
L 348.146388 184.655876 
L 348.323023 184.603107 
L 348.323023 184.603107 
L 348.499658 185.575234 
L 348.499658 185.575234 
L 349.029562 186.473596 
L 349.029562 186.473596 
L 349.206196 186.447854 
L 349.206196 186.447854 
L 349.382831 185.932055 
L 349.382831 185.932055 
L 349.559466 186.584719 
L 349.559466 186.584719 
L 349.736101 186.398491 
L 349.736101 186.398491 
L 349.912735 186.631569 
L 349.912735 186.631569 
L 350.266005 186.246214 
L 350.266005 186.246214 
L 350.442639 186.450478 
L 350.442639 186.450478 
L 350.619274 185.596956 
L 350.619274 185.596956 
L 350.795909 186.326792 
L 350.795909 186.326792 
L 350.972543 185.337856 
L 350.972543 185.337856 
L 351.149178 186.00945 
L 351.149178 186.00945 
L 351.325813 185.365721 
L 351.325813 185.365721 
L 351.502447 185.475001 
L 351.502447 185.475001 
L 351.679082 184.858689 
L 351.679082 184.858689 
L 351.855717 183.149467 
L 351.855717 183.149467 
L 352.032351 184.167774 
L 352.032351 184.167774 
L 352.208986 182.876742 
L 352.208986 182.876742 
L 352.385621 183.289627 
L 352.385621 183.289627 
L 352.562255 182.127306 
L 352.562255 182.127306 
L 352.73889 182.318002 
L 352.73889 182.318002 
L 353.092159 180.845208 
L 353.092159 180.845208 
L 353.268794 180.472361 
L 353.268794 180.472361 
L 353.445429 177.951051 
L 353.445429 177.951051 
L 353.622064 179.335225 
L 353.622064 179.335225 
L 353.798698 177.275939 
L 353.798698 177.275939 
L 353.975333 178.048493 
L 353.975333 178.048493 
L 354.151968 176.633159 
L 354.151968 176.633159 
L 354.328602 176.616742 
L 354.328602 176.616742 
L 354.505237 175.458554 
L 354.505237 175.458554 
L 354.681872 172.579697 
L 354.681872 172.579697 
L 354.858506 173.985537 
L 354.858506 173.985537 
L 355.035141 171.659166 
L 355.035141 171.659166 
L 355.211776 172.174406 
L 355.211776 172.174406 
L 355.38841 170.177717 
L 355.38841 170.177717 
L 355.565045 169.675823 
L 355.565045 169.675823 
L 355.74168 168.484745 
L 355.74168 168.484745 
L 355.918314 165.220421 
L 355.918314 165.220421 
L 356.094949 166.48733 
L 356.094949 166.48733 
L 356.271584 162.907619 
L 356.271584 162.907619 
L 356.448218 163.420849 
L 356.448218 163.420849 
L 356.624853 161.508423 
L 356.624853 161.508423 
L 356.801488 161.041764 
L 356.801488 161.041764 
L 356.978122 159.601582 
L 356.978122 159.601582 
L 357.154757 155.733342 
L 357.154757 155.733342 
L 357.331392 156.732608 
L 357.331392 156.732608 
L 357.508027 153.675731 
L 357.508027 153.675731 
L 357.684661 153.490732 
L 357.684661 153.490732 
L 357.861296 151.752752 
L 357.861296 151.752752 
L 358.037931 147.739941 
L 358.037931 147.739941 
L 358.214565 148.931243 
L 358.214565 148.931243 
L 358.3912 145.71254 
L 358.3912 145.71254 
L 358.567835 145.539267 
L 358.567835 145.539267 
L 358.744469 143.886053 
L 358.744469 143.886053 
L 358.921104 140.076558 
L 358.921104 140.076558 
L 359.097739 141.074204 
L 359.097739 141.074204 
L 359.274373 138.825116 
L 359.274373 138.825116 
L 359.451008 138.808923 
L 359.451008 138.808923 
L 359.627643 137.261638 
L 359.627643 137.261638 
L 359.804277 133.910147 
L 359.804277 133.910147 
L 359.980912 134.915555 
L 359.980912 134.915555 
L 360.157547 132.623637 
L 360.157547 132.623637 
L 360.334181 132.331033 
L 360.334181 132.331033 
L 360.687451 129.295152 
L 360.864085 129.403595 
L 361.04072 128.861551 
L 361.04072 128.861551 
L 361.217355 126.705996 
L 361.217355 126.705996 
L 361.39399 127.046064 
L 361.39399 127.046064 
L 361.747259 124.634313 
L 361.747259 124.634313 
L 361.923894 125.089525 
L 362.277163 122.67822 
L 362.277163 122.67822 
L 362.453798 123.233107 
L 362.453798 123.233107 
L 362.807067 120.375637 
L 362.807067 120.375637 
L 362.983702 121.068059 
L 362.983702 121.068059 
L 363.160336 119.56997 
L 363.160336 119.56997 
L 363.336971 119.432602 
L 363.336971 119.432602 
L 364.04351 114.311134 
L 364.04351 114.311134 
L 364.220144 111.666026 
L 364.220144 111.666026 
L 364.396779 111.23449 
L 364.396779 111.23449 
L 365.103318 102.479927 
L 365.103318 102.479927 
L 365.456587 92.473979 
L 365.456587 92.473979 
L 365.633222 94.040752 
L 365.633222 94.040752 
L 365.986491 82.951721 
L 365.986491 82.951721 
L 366.163126 83.971257 
L 366.163126 83.971257 
L 366.339761 79.390493 
L 366.339761 79.390493 
L 366.516395 71.501904 
L 366.516395 71.501904 
L 366.69303 70.910777 
L 366.69303 70.910777 
L 366.869665 66.758979 
L 366.869665 66.758979 
L 367.046299 59.445046 
L 367.046299 59.445046 
L 367.222934 57.244874 
L 367.222934 57.244874 
L 367.399569 53.568 
L 367.399569 53.568 
L 394.954579 53.568 
L 394.954579 53.568 
L 395.131214 53.685879 
L 395.131214 53.685879 
L 395.484483 53.568 
L 395.484483 53.568 
L 396.720926 53.568 
L 396.720926 53.568 
L 396.897561 53.685377 
L 396.897561 53.685377 
L 397.074195 53.951457 
L 397.074195 53.951457 
L 397.25083 53.568 
L 397.25083 53.568 
L 397.957369 53.568 
L 397.957369 53.568 
L 398.134003 53.850274 
L 398.134003 53.850274 
L 398.310638 53.898129 
L 398.310638 53.898129 
L 398.487273 53.568 
L 398.487273 53.568 
" clip-path="url(#pf168eed02e)" style="fill: none; stroke: #ff7f0e; stroke-width: 1.5; stroke-linecap: square"/>
   </g>
   <g id="patch_3">
    <path d="M 57.6 307.584 
L 57.6 41.472 
" style="fill: none; stroke: #000000; stroke-width: 0.8; stroke-linejoin: miter; stroke-linecap: square"/>
   </g>
   <g id="patch_4">
    <path d="M 414.72 307.584 
L 414.72 41.472 
" style="fill: none; stroke: #000000; stroke-width: 0.8; stroke-linejoin: miter; stroke-linecap: square"/>
   </g>
   <g id="patch_5">
    <path d="M 57.6 307.584 
L 414.72 307.584 
" style="fill: none; stroke: #000000; stroke-width: 0.8; stroke-linejoin: miter; stroke-linecap: square"/>
   </g>
   <g id="patch_6">
    <path d="M 57.6 41.472 
L 414.72 41.472 
" style="fill: none; stroke: #000000; stroke-width: 0.8; stroke-linejoin: miter; stroke-linecap: square"/>
   </g>
   <g id="text_16">
    <!-- Actual speed vs Expected speed -->
    <g transform="translate(138.808125 35.472) scale(0.12 -0.12)">
     <defs>
      <path id="DejaVuSans-41" d="M 2188 4044 
L 1331 1722 
L 3047 1722 
L 2188 4044 
z
M 1831 4666 
L 2547 4666 
L 4325 0 
L 3669 0 
L 3244 1197 
L 1141 1197 
L 716 0 
L 50 0 
L 1831 4666 
z
" transform="scale(0.015625)"/>
      <path id="DejaVuSans-75" d="M 544 1381 
L 544 3500 
L 1119 3500 
L 1119 1403 
Q 1119 906 1312 657 
Q 1506 409 1894 409 
Q 2359 409 2629 706 
Q 2900 1003 2900 1516 
L 2900 3500 
L 3475 3500 
L 3475 0 
L 2900 0 
L 2900 538 
Q 2691 219 2414 64 
Q 2138 -91 1772 -91 
Q 1169 -91 856 284 
Q 544 659 544 1381 
z
M 1991 3584 
L 1991 3584 
z
" transform="scale(0.015625)"/>
      <path id="DejaVuSans-61" d="M 2194 1759 
Q 1497 1759 1228 1600 
Q 959 1441 959 1056 
Q 959 750 1161 570 
Q 1363 391 1709 391 
Q 2188 391 2477 730 
Q 2766 1069 2766 1631 
L 2766 1759 
L 2194 1759 
z
M 3341 1997 
L 3341 0 
L 2766 0 
L 2766 531 
Q 2569 213 2275 61 
Q 1981 -91 1556 -91 
Q 1019 -91 701 211 
Q 384 513 384 1019 
Q 384 1609 779 1909 
Q 1175 2209 1959 2209 
L 2766 2209 
L 2766 2266 
Q 2766 2663 2505 2880 
Q 2244 3097 1772 3097 
Q 1472 3097 1187 3025 
Q 903 2953 641 2809 
L 641 3341 
Q 956 3463 1253 3523 
Q 1550 3584 1831 3584 
Q 2591 3584 2966 3190 
Q 3341 2797 3341 1997 
z
" transform="scale(0.015625)"/>
      <path id="DejaVuSans-20" transform="scale(0.015625)"/>
      <path id="DejaVuSans-70" d="M 1159 525 
L 1159 -1331 
L 581 -1331 
L 581 3500 
L 1159 3500 
L 1159 2969 
Q 1341 3281 1617 3432 
Q 1894 3584 2278 3584 
Q 2916 3584 3314 3078 
Q 3713 2572 3713 1747 
Q 3713 922 3314 415 
Q 2916 -91 2278 -91 
Q 1894 -91 1617 61 
Q 1341 213 1159 525 
z
M 3116 1747 
Q 3116 2381 2855 2742 
Q 2594 3103 2138 3103 
Q 1681 3103 1420 2742 
Q 1159 2381 1159 1747 
Q 1159 1113 1420 752 
Q 1681 391 2138 391 
Q 2594 391 2855 752 
Q 3116 1113 3116 1747 
z
" transform="scale(0.015625)"/>
      <path id="DejaVuSans-64" d="M 2906 2969 
L 2906 4863 
L 3481 4863 
L 3481 0 
L 2906 0 
L 2906 525 
Q 2725 213 2448 61 
Q 2172 -91 1784 -91 
Q 1150 -91 751 415 
Q 353 922 353 1747 
Q 353 2572 751 3078 
Q 1150 3584 1784 3584 
Q 2172 3584 2448 3432 
Q 2725 3281 2906 2969 
z
M 947 1747 
Q 947 1113 1208 752 
Q 1469 391 1925 391 
Q 2381 391 2643 752 
Q 2906 1113 2906 1747 
Q 2906 2381 2643 2742 
Q 2381 3103 1925 3103 
Q 1469 3103 1208 2742 
Q 947 2381 947 1747 
z
" transform="scale(0.015625)"/>
      <path id="DejaVuSans-76" d="M 191 3500 
L 800 3500 
L 1894 563 
L 2988 3500 
L 3597 3500 
L 2284 0 
L 1503 0 
L 191 3500 
z
" transform="scale(0.015625)"/>
      <path id="DejaVuSans-45" d="M 628 4666 
L 3578 4666 
L 3578 4134 
L 1259 4134 
L 1259 2753 
L 3481 2753 
L 3481 2222 
L 1259 2222 
L 1259 531 
L 3634 531 
L 3634 0 
L 628 0 
L 628 4666 
z
" transform="scale(0.015625)"/>
      <path id="DejaVuSans-78" d="M 3513 3500 
L 2247 1797 
L 3578 0 
L 2900 0 
L 1881 1375 
L 863 0 
L 184 0 
L 1544 1831 
L 300 3500 
L 978 3500 
L 1906 2253 
L 2834 3500 
L 3513 3500 
z
" transform="scale(0.015625)"/>
     </defs>
     <use xlink:href="#DejaVuSans-41"/>
     <use xlink:href="#DejaVuSans-63" x="66.658203"/>
     <use xlink:href="#DejaVuSans-74" x="121.638672"/>
     <use xlink:href="#DejaVuSans-75" x="160.847656"/>
     <use xlink:href="#DejaVuSans-61" x="224.226562"/>
     <use xlink:href="#DejaVuSans-6c" x="285.505859"/>
     <use xlink:href="#DejaVuSans-20" x="313.289062"/>
     <use xlink:href="#DejaVuSans-73" x="345.076172"/>
     <use xlink:href="#DejaVuSans-70" x="397.175781"/>
     <use xlink:href="#DejaVuSans-65" x="460.652344"/>
     <use xlink:href="#DejaVuSans-65" x="522.175781"/>
     <use xlink:href="#DejaVuSans-64" x="583.699219"/>
     <use xlink:href="#DejaVuSans-20" x="647.175781"/>
     <use xlink:href="#DejaVuSans-76" x="678.962891"/>
     <use xlink:href="#DejaVuSans-73" x="738.142578"/>
     <use xlink:href="#DejaVuSans-20" x="790.242188"/>
     <use xlink:href="#DejaVuSans-45" x="822.029297"/>
     <use xlink:href="#DejaVuSans-78" x="885.212891"/>
     <use xlink:href="#DejaVuSans-70" x="944.392578"/>
     <use xlink:href="#DejaVuSans-65" x="1007.869141"/>
     <use xlink:href="#DejaVuSans-63" x="1069.392578"/>
     <use xlink:href="#DejaVuSans-74" x="1124.373047"/>
     <use xlink:href="#DejaVuSans-65" x="1163.582031"/>
     <use xlink:href="#DejaVuSans-64" x="1225.105469"/>
     <use xlink:href="#DejaVuSans-20" x="1288.582031"/>
     <use xlink:href="#DejaVuSans-73" x="1320.369141"/>
     <use xlink:href="#DejaVuSans-70" x="1372.46875"/>
     <use xlink:href="#DejaVuSans-65" x="1435.945312"/>
     <use xlink:href="#DejaVuSans-65" x="1497.46875"/>
     <use xlink:href="#DejaVuSans-64" x="1558.992188"/>
    </g>
   </g>
   <g id="legend_1">
    <g id="patch_7">
     <path d="M 64.6 302.584 
L 176.65 302.584 
Q 178.65 302.584 178.65 300.584 
L 178.65 272.22775 
Q 178.65 270.22775 176.65 270.22775 
L 64.6 270.22775 
Q 62.6 270.22775 62.6 272.22775 
L 62.6 300.584 
Q 62.6 302.584 64.6 302.584 
z
" style="fill: #ffffff; opacity: 0.8; stroke: #cccccc; stroke-linejoin: miter"/>
    </g>
    <g id="line2d_29">
     <path d="M 66.6 278.326187 
L 76.6 278.326187 
L 86.6 278.326187 
" style="fill: none; stroke: #1f77b4; stroke-width: 1.5; stroke-linecap: square"/>
    </g>
    <g id="text_17">
     <!-- Actual speed -->
     <g transform="translate(94.6 281.826187) scale(0.1 -0.1)">
      <use xlink:href="#DejaVuSans-41"/>
      <use xlink:href="#DejaVuSans-63" x="66.658203"/>
      <use xlink:href="#DejaVuSans-74" x="121.638672"/>
      <use xlink:href="#DejaVuSans-75" x="160.847656"/>
      <use xlink:href="#DejaVuSans-61" x="224.226562"/>
      <use xlink:href="#DejaVuSans-6c" x="285.505859"/>
      <use xlink:href="#DejaVuSans-20" x="313.289062"/>
      <use xlink:href="#DejaVuSans-73" x="345.076172"/>
      <use xlink:href="#DejaVuSans-70" x="397.175781"/>
      <use xlink:href="#DejaVuSans-65" x="460.652344"/>
      <use xlink:href="#DejaVuSans-65" x="522.175781"/>
      <use xlink:href="#DejaVuSans-64" x="583.699219"/>
     </g>
    </g>
    <g id="line2d_30">
     <path d="M 66.6 293.004312 
L 76.6 293.004312 
L 86.6 293.004312 
" style="fill: none; stroke: #ff7f0e; stroke-width: 1.5; stroke-linecap: square"/>
    </g>
    <g id="text_18">
     <!-- Expected speed -->
     <g transform="translate(94.6 296.504312) scale(0.1 -0.1)">
      <use xlink:href="#DejaVuSans-45"/>
      <use xlink:href="#DejaVuSans-78" x="63.183594"/>
      <use xlink:href="#DejaVuSans-70" x="122.363281"/>
      <use xlink:href="#DejaVuSans-65" x="185.839844"/>
      <use xlink:href="#DejaVuSans-63" x="247.363281"/>
      <use xlink:href="#DejaVuSans-74" x="302.34375"/>
      <use xlink:href="#DejaVuSans-65" x="341.552734"/>
      <use xlink:href="#DejaVuSans-64" x="403.076172"/>
      <use xlink:href="#DejaVuSans-20" x="466.552734"/>
      <use xlink:href="#DejaVuSans-73" x="498.339844"/>
      <use xlink:href="#DejaVuSans-70" x="550.439453"/>
      <use xlink:href="#DejaVuSans-65" x="613.916016"/>
      <use xlink:href="#DejaVuSans-65" x="675.439453"/>
      <use xlink:href="#DejaVuSans-64" x="736.962891"/>
     </g>
    </g>
   </g>
  </g>
 </g>
 <defs>
  <clipPath id="pf168eed02e">
   <rect x="57.6" y="41.472" width="357.12" height="266.112"/>
  </clipPath>
 </defs>
</svg>
