<?xml version="1.0" encoding="utf-8" standalone="no"?>
<!DOCTYPE svg PUBLIC "-//W3C//DTD SVG 1.1//EN"
  "http://www.w3.org/Graphics/SVG/1.1/DTD/svg11.dtd">
<svg xmlns:xlink="http://www.w3.org/1999/xlink" width="460.8pt" height="345.6pt" viewBox="0 0 460.8 345.6" xmlns="http://www.w3.org/2000/svg" version="1.1">
 <metadata>
  <rdf:RDF xmlns:dc="http://purl.org/dc/elements/1.1/" xmlns:cc="http://creativecommons.org/ns#" xmlns:rdf="http://www.w3.org/1999/02/22-rdf-syntax-ns#">
   <cc:Work>
    <dc:type rdf:resource="http://purl.org/dc/dcmitype/StillImage"/>
    <dc:date>2024-01-30T20:59:33.024538</dc:date>
    <dc:format>image/svg+xml</dc:format>
    <dc:creator>
     <cc:Agent>
      <dc:title>Matplotlib v3.7.1, https://matplotlib.org/</dc:title>
     </cc:Agent>
    </dc:creator>
   </cc:Work>
  </rdf:RDF>
 </metadata>
 <defs>
  <style type="text/css">*{stroke-linejoin: round; stroke-linecap: butt}</style>
 </defs>
 <g id="figure_1">
  <g id="patch_1">
   <path d="M 0 345.6 
L 460.8 345.6 
L 460.8 0 
L 0 0 
z
" style="fill: #ffffff"/>
  </g>
  <g id="axes_1">
   <g id="patch_2">
    <path d="M 57.6 307.584 
L 414.72 307.584 
L 414.72 41.472 
L 57.6 41.472 
z
" style="fill: #ffffff"/>
   </g>
   <g id="matplotlib.axis_1">
    <g id="xtick_1">
     <g id="line2d_1">
      <path d="M 73.832727 307.584 
L 73.832727 41.472 
" clip-path="url(#p530648a89c)" style="fill: none; stroke: #b0b0b0; stroke-width: 0.8; stroke-linecap: square"/>
     </g>
     <g id="line2d_2">
      <defs>
       <path id="mc14455da8c" d="M 0 0 
L 0 3.5 
" style="stroke: #000000; stroke-width: 0.8"/>
      </defs>
      <g>
       <use xlink:href="#mc14455da8c" x="73.832727" y="307.584" style="stroke: #000000; stroke-width: 0.8"/>
      </g>
     </g>
     <g id="text_1">
      <!-- 0 -->
      <g transform="translate(70.651477 322.182437) scale(0.1 -0.1)">
       <defs>
        <path id="DejaVuSans-30" d="M 2034 4250 
Q 1547 4250 1301 3770 
Q 1056 3291 1056 2328 
Q 1056 1369 1301 889 
Q 1547 409 2034 409 
Q 2525 409 2770 889 
Q 3016 1369 3016 2328 
Q 3016 3291 2770 3770 
Q 2525 4250 2034 4250 
z
M 2034 4750 
Q 2819 4750 3233 4129 
Q 3647 3509 3647 2328 
Q 3647 1150 3233 529 
Q 2819 -91 2034 -91 
Q 1250 -91 836 529 
Q 422 1150 422 2328 
Q 422 3509 836 4129 
Q 1250 4750 2034 4750 
z
" transform="scale(0.015625)"/>
       </defs>
       <use xlink:href="#DejaVuSans-30"/>
      </g>
     </g>
    </g>
    <g id="xtick_2">
     <g id="line2d_3">
      <path d="M 131.972868 307.584 
L 131.972868 41.472 
" clip-path="url(#p530648a89c)" style="fill: none; stroke: #b0b0b0; stroke-width: 0.8; stroke-linecap: square"/>
     </g>
     <g id="line2d_4">
      <g>
       <use xlink:href="#mc14455da8c" x="131.972868" y="307.584" style="stroke: #000000; stroke-width: 0.8"/>
      </g>
     </g>
     <g id="text_2">
      <!-- 5 -->
      <g transform="translate(128.791618 322.182437) scale(0.1 -0.1)">
       <defs>
        <path id="DejaVuSans-35" d="M 691 4666 
L 3169 4666 
L 3169 4134 
L 1269 4134 
L 1269 2991 
Q 1406 3038 1543 3061 
Q 1681 3084 1819 3084 
Q 2600 3084 3056 2656 
Q 3513 2228 3513 1497 
Q 3513 744 3044 326 
Q 2575 -91 1722 -91 
Q 1428 -91 1123 -41 
Q 819 9 494 109 
L 494 744 
Q 775 591 1075 516 
Q 1375 441 1709 441 
Q 2250 441 2565 725 
Q 2881 1009 2881 1497 
Q 2881 1984 2565 2268 
Q 2250 2553 1709 2553 
Q 1456 2553 1204 2497 
Q 953 2441 691 2322 
L 691 4666 
z
" transform="scale(0.015625)"/>
       </defs>
       <use xlink:href="#DejaVuSans-35"/>
      </g>
     </g>
    </g>
    <g id="xtick_3">
     <g id="line2d_5">
      <path d="M 190.113009 307.584 
L 190.113009 41.472 
" clip-path="url(#p530648a89c)" style="fill: none; stroke: #b0b0b0; stroke-width: 0.8; stroke-linecap: square"/>
     </g>
     <g id="line2d_6">
      <g>
       <use xlink:href="#mc14455da8c" x="190.113009" y="307.584" style="stroke: #000000; stroke-width: 0.8"/>
      </g>
     </g>
     <g id="text_3">
      <!-- 10 -->
      <g transform="translate(183.750509 322.182437) scale(0.1 -0.1)">
       <defs>
        <path id="DejaVuSans-31" d="M 794 531 
L 1825 531 
L 1825 4091 
L 703 3866 
L 703 4441 
L 1819 4666 
L 2450 4666 
L 2450 531 
L 3481 531 
L 3481 0 
L 794 0 
L 794 531 
z
" transform="scale(0.015625)"/>
       </defs>
       <use xlink:href="#DejaVuSans-31"/>
       <use xlink:href="#DejaVuSans-30" x="63.623047"/>
      </g>
     </g>
    </g>
    <g id="xtick_4">
     <g id="line2d_7">
      <path d="M 248.253149 307.584 
L 248.253149 41.472 
" clip-path="url(#p530648a89c)" style="fill: none; stroke: #b0b0b0; stroke-width: 0.8; stroke-linecap: square"/>
     </g>
     <g id="line2d_8">
      <g>
       <use xlink:href="#mc14455da8c" x="248.253149" y="307.584" style="stroke: #000000; stroke-width: 0.8"/>
      </g>
     </g>
     <g id="text_4">
      <!-- 15 -->
      <g transform="translate(241.890649 322.182437) scale(0.1 -0.1)">
       <use xlink:href="#DejaVuSans-31"/>
       <use xlink:href="#DejaVuSans-35" x="63.623047"/>
      </g>
     </g>
    </g>
    <g id="xtick_5">
     <g id="line2d_9">
      <path d="M 306.39329 307.584 
L 306.39329 41.472 
" clip-path="url(#p530648a89c)" style="fill: none; stroke: #b0b0b0; stroke-width: 0.8; stroke-linecap: square"/>
     </g>
     <g id="line2d_10">
      <g>
       <use xlink:href="#mc14455da8c" x="306.39329" y="307.584" style="stroke: #000000; stroke-width: 0.8"/>
      </g>
     </g>
     <g id="text_5">
      <!-- 20 -->
      <g transform="translate(300.03079 322.182437) scale(0.1 -0.1)">
       <defs>
        <path id="DejaVuSans-32" d="M 1228 531 
L 3431 531 
L 3431 0 
L 469 0 
L 469 531 
Q 828 903 1448 1529 
Q 2069 2156 2228 2338 
Q 2531 2678 2651 2914 
Q 2772 3150 2772 3378 
Q 2772 3750 2511 3984 
Q 2250 4219 1831 4219 
Q 1534 4219 1204 4116 
Q 875 4013 500 3803 
L 500 4441 
Q 881 4594 1212 4672 
Q 1544 4750 1819 4750 
Q 2544 4750 2975 4387 
Q 3406 4025 3406 3419 
Q 3406 3131 3298 2873 
Q 3191 2616 2906 2266 
Q 2828 2175 2409 1742 
Q 1991 1309 1228 531 
z
" transform="scale(0.015625)"/>
       </defs>
       <use xlink:href="#DejaVuSans-32"/>
       <use xlink:href="#DejaVuSans-30" x="63.623047"/>
      </g>
     </g>
    </g>
    <g id="xtick_6">
     <g id="line2d_11">
      <path d="M 364.533431 307.584 
L 364.533431 41.472 
" clip-path="url(#p530648a89c)" style="fill: none; stroke: #b0b0b0; stroke-width: 0.8; stroke-linecap: square"/>
     </g>
     <g id="line2d_12">
      <g>
       <use xlink:href="#mc14455da8c" x="364.533431" y="307.584" style="stroke: #000000; stroke-width: 0.8"/>
      </g>
     </g>
     <g id="text_6">
      <!-- 25 -->
      <g transform="translate(358.170931 322.182437) scale(0.1 -0.1)">
       <use xlink:href="#DejaVuSans-32"/>
       <use xlink:href="#DejaVuSans-35" x="63.623047"/>
      </g>
     </g>
    </g>
    <g id="text_7">
     <!-- Time(s) -->
     <g transform="translate(217.420156 335.860562) scale(0.1 -0.1)">
      <defs>
       <path id="DejaVuSans-54" d="M -19 4666 
L 3928 4666 
L 3928 4134 
L 2272 4134 
L 2272 0 
L 1638 0 
L 1638 4134 
L -19 4134 
L -19 4666 
z
" transform="scale(0.015625)"/>
       <path id="DejaVuSans-69" d="M 603 3500 
L 1178 3500 
L 1178 0 
L 603 0 
L 603 3500 
z
M 603 4863 
L 1178 4863 
L 1178 4134 
L 603 4134 
L 603 4863 
z
" transform="scale(0.015625)"/>
       <path id="DejaVuSans-6d" d="M 3328 2828 
Q 3544 3216 3844 3400 
Q 4144 3584 4550 3584 
Q 5097 3584 5394 3201 
Q 5691 2819 5691 2113 
L 5691 0 
L 5113 0 
L 5113 2094 
Q 5113 2597 4934 2840 
Q 4756 3084 4391 3084 
Q 3944 3084 3684 2787 
Q 3425 2491 3425 1978 
L 3425 0 
L 2847 0 
L 2847 2094 
Q 2847 2600 2669 2842 
Q 2491 3084 2119 3084 
Q 1678 3084 1418 2786 
Q 1159 2488 1159 1978 
L 1159 0 
L 581 0 
L 581 3500 
L 1159 3500 
L 1159 2956 
Q 1356 3278 1631 3431 
Q 1906 3584 2284 3584 
Q 2666 3584 2933 3390 
Q 3200 3197 3328 2828 
z
" transform="scale(0.015625)"/>
       <path id="DejaVuSans-65" d="M 3597 1894 
L 3597 1613 
L 953 1613 
Q 991 1019 1311 708 
Q 1631 397 2203 397 
Q 2534 397 2845 478 
Q 3156 559 3463 722 
L 3463 178 
Q 3153 47 2828 -22 
Q 2503 -91 2169 -91 
Q 1331 -91 842 396 
Q 353 884 353 1716 
Q 353 2575 817 3079 
Q 1281 3584 2069 3584 
Q 2775 3584 3186 3129 
Q 3597 2675 3597 1894 
z
M 3022 2063 
Q 3016 2534 2758 2815 
Q 2500 3097 2075 3097 
Q 1594 3097 1305 2825 
Q 1016 2553 972 2059 
L 3022 2063 
z
" transform="scale(0.015625)"/>
       <path id="DejaVuSans-28" d="M 1984 4856 
Q 1566 4138 1362 3434 
Q 1159 2731 1159 2009 
Q 1159 1288 1364 580 
Q 1569 -128 1984 -844 
L 1484 -844 
Q 1016 -109 783 600 
Q 550 1309 550 2009 
Q 550 2706 781 3412 
Q 1013 4119 1484 4856 
L 1984 4856 
z
" transform="scale(0.015625)"/>
       <path id="DejaVuSans-73" d="M 2834 3397 
L 2834 2853 
Q 2591 2978 2328 3040 
Q 2066 3103 1784 3103 
Q 1356 3103 1142 2972 
Q 928 2841 928 2578 
Q 928 2378 1081 2264 
Q 1234 2150 1697 2047 
L 1894 2003 
Q 2506 1872 2764 1633 
Q 3022 1394 3022 966 
Q 3022 478 2636 193 
Q 2250 -91 1575 -91 
Q 1294 -91 989 -36 
Q 684 19 347 128 
L 347 722 
Q 666 556 975 473 
Q 1284 391 1588 391 
Q 1994 391 2212 530 
Q 2431 669 2431 922 
Q 2431 1156 2273 1281 
Q 2116 1406 1581 1522 
L 1381 1569 
Q 847 1681 609 1914 
Q 372 2147 372 2553 
Q 372 3047 722 3315 
Q 1072 3584 1716 3584 
Q 2034 3584 2315 3537 
Q 2597 3491 2834 3397 
z
" transform="scale(0.015625)"/>
       <path id="DejaVuSans-29" d="M 513 4856 
L 1013 4856 
Q 1481 4119 1714 3412 
Q 1947 2706 1947 2009 
Q 1947 1309 1714 600 
Q 1481 -109 1013 -844 
L 513 -844 
Q 928 -128 1133 580 
Q 1338 1288 1338 2009 
Q 1338 2731 1133 3434 
Q 928 4138 513 4856 
z
" transform="scale(0.015625)"/>
      </defs>
      <use xlink:href="#DejaVuSans-54"/>
      <use xlink:href="#DejaVuSans-69" x="57.958984"/>
      <use xlink:href="#DejaVuSans-6d" x="85.742188"/>
      <use xlink:href="#DejaVuSans-65" x="183.154297"/>
      <use xlink:href="#DejaVuSans-28" x="244.677734"/>
      <use xlink:href="#DejaVuSans-73" x="283.691406"/>
      <use xlink:href="#DejaVuSans-29" x="335.791016"/>
     </g>
    </g>
   </g>
   <g id="matplotlib.axis_2">
    <g id="ytick_1">
     <g id="line2d_13">
      <path d="M 57.6 295.488 
L 414.72 295.488 
" clip-path="url(#p530648a89c)" style="fill: none; stroke: #b0b0b0; stroke-width: 0.8; stroke-linecap: square"/>
     </g>
     <g id="line2d_14">
      <defs>
       <path id="m64bd7b0156" d="M 0 0 
L -3.5 0 
" style="stroke: #000000; stroke-width: 0.8"/>
      </defs>
      <g>
       <use xlink:href="#m64bd7b0156" x="57.6" y="295.488" style="stroke: #000000; stroke-width: 0.8"/>
      </g>
     </g>
     <g id="text_8">
      <!-- 0.00 -->
      <g transform="translate(28.334375 299.287219) scale(0.1 -0.1)">
       <defs>
        <path id="DejaVuSans-2e" d="M 684 794 
L 1344 794 
L 1344 0 
L 684 0 
L 684 794 
z
" transform="scale(0.015625)"/>
       </defs>
       <use xlink:href="#DejaVuSans-30"/>
       <use xlink:href="#DejaVuSans-2e" x="63.623047"/>
       <use xlink:href="#DejaVuSans-30" x="95.410156"/>
       <use xlink:href="#DejaVuSans-30" x="159.033203"/>
      </g>
     </g>
    </g>
    <g id="ytick_2">
     <g id="line2d_15">
      <path d="M 57.6 255.501223 
L 414.72 255.501223 
" clip-path="url(#p530648a89c)" style="fill: none; stroke: #b0b0b0; stroke-width: 0.8; stroke-linecap: square"/>
     </g>
     <g id="line2d_16">
      <g>
       <use xlink:href="#m64bd7b0156" x="57.6" y="255.501223" style="stroke: #000000; stroke-width: 0.8"/>
      </g>
     </g>
     <g id="text_9">
      <!-- 0.05 -->
      <g transform="translate(28.334375 259.300442) scale(0.1 -0.1)">
       <use xlink:href="#DejaVuSans-30"/>
       <use xlink:href="#DejaVuSans-2e" x="63.623047"/>
       <use xlink:href="#DejaVuSans-30" x="95.410156"/>
       <use xlink:href="#DejaVuSans-35" x="159.033203"/>
      </g>
     </g>
    </g>
    <g id="ytick_3">
     <g id="line2d_17">
      <path d="M 57.6 215.514446 
L 414.72 215.514446 
" clip-path="url(#p530648a89c)" style="fill: none; stroke: #b0b0b0; stroke-width: 0.8; stroke-linecap: square"/>
     </g>
     <g id="line2d_18">
      <g>
       <use xlink:href="#m64bd7b0156" x="57.6" y="215.514446" style="stroke: #000000; stroke-width: 0.8"/>
      </g>
     </g>
     <g id="text_10">
      <!-- 0.10 -->
      <g transform="translate(28.334375 219.313665) scale(0.1 -0.1)">
       <use xlink:href="#DejaVuSans-30"/>
       <use xlink:href="#DejaVuSans-2e" x="63.623047"/>
       <use xlink:href="#DejaVuSans-31" x="95.410156"/>
       <use xlink:href="#DejaVuSans-30" x="159.033203"/>
      </g>
     </g>
    </g>
    <g id="ytick_4">
     <g id="line2d_19">
      <path d="M 57.6 175.527669 
L 414.72 175.527669 
" clip-path="url(#p530648a89c)" style="fill: none; stroke: #b0b0b0; stroke-width: 0.8; stroke-linecap: square"/>
     </g>
     <g id="line2d_20">
      <g>
       <use xlink:href="#m64bd7b0156" x="57.6" y="175.527669" style="stroke: #000000; stroke-width: 0.8"/>
      </g>
     </g>
     <g id="text_11">
      <!-- 0.15 -->
      <g transform="translate(28.334375 179.326888) scale(0.1 -0.1)">
       <use xlink:href="#DejaVuSans-30"/>
       <use xlink:href="#DejaVuSans-2e" x="63.623047"/>
       <use xlink:href="#DejaVuSans-31" x="95.410156"/>
       <use xlink:href="#DejaVuSans-35" x="159.033203"/>
      </g>
     </g>
    </g>
    <g id="ytick_5">
     <g id="line2d_21">
      <path d="M 57.6 135.540893 
L 414.72 135.540893 
" clip-path="url(#p530648a89c)" style="fill: none; stroke: #b0b0b0; stroke-width: 0.8; stroke-linecap: square"/>
     </g>
     <g id="line2d_22">
      <g>
       <use xlink:href="#m64bd7b0156" x="57.6" y="135.540893" style="stroke: #000000; stroke-width: 0.8"/>
      </g>
     </g>
     <g id="text_12">
      <!-- 0.20 -->
      <g transform="translate(28.334375 139.340111) scale(0.1 -0.1)">
       <use xlink:href="#DejaVuSans-30"/>
       <use xlink:href="#DejaVuSans-2e" x="63.623047"/>
       <use xlink:href="#DejaVuSans-32" x="95.410156"/>
       <use xlink:href="#DejaVuSans-30" x="159.033203"/>
      </g>
     </g>
    </g>
    <g id="ytick_6">
     <g id="line2d_23">
      <path d="M 57.6 95.554116 
L 414.72 95.554116 
" clip-path="url(#p530648a89c)" style="fill: none; stroke: #b0b0b0; stroke-width: 0.8; stroke-linecap: square"/>
     </g>
     <g id="line2d_24">
      <g>
       <use xlink:href="#m64bd7b0156" x="57.6" y="95.554116" style="stroke: #000000; stroke-width: 0.8"/>
      </g>
     </g>
     <g id="text_13">
      <!-- 0.25 -->
      <g transform="translate(28.334375 99.353334) scale(0.1 -0.1)">
       <use xlink:href="#DejaVuSans-30"/>
       <use xlink:href="#DejaVuSans-2e" x="63.623047"/>
       <use xlink:href="#DejaVuSans-32" x="95.410156"/>
       <use xlink:href="#DejaVuSans-35" x="159.033203"/>
      </g>
     </g>
    </g>
    <g id="ytick_7">
     <g id="line2d_25">
      <path d="M 57.6 55.567339 
L 414.72 55.567339 
" clip-path="url(#p530648a89c)" style="fill: none; stroke: #b0b0b0; stroke-width: 0.8; stroke-linecap: square"/>
     </g>
     <g id="line2d_26">
      <g>
       <use xlink:href="#m64bd7b0156" x="57.6" y="55.567339" style="stroke: #000000; stroke-width: 0.8"/>
      </g>
     </g>
     <g id="text_14">
      <!-- 0.30 -->
      <g transform="translate(28.334375 59.366558) scale(0.1 -0.1)">
       <defs>
        <path id="DejaVuSans-33" d="M 2597 2516 
Q 3050 2419 3304 2112 
Q 3559 1806 3559 1356 
Q 3559 666 3084 287 
Q 2609 -91 1734 -91 
Q 1441 -91 1130 -33 
Q 819 25 488 141 
L 488 750 
Q 750 597 1062 519 
Q 1375 441 1716 441 
Q 2309 441 2620 675 
Q 2931 909 2931 1356 
Q 2931 1769 2642 2001 
Q 2353 2234 1838 2234 
L 1294 2234 
L 1294 2753 
L 1863 2753 
Q 2328 2753 2575 2939 
Q 2822 3125 2822 3475 
Q 2822 3834 2567 4026 
Q 2313 4219 1838 4219 
Q 1578 4219 1281 4162 
Q 984 4106 628 3988 
L 628 4550 
Q 988 4650 1302 4700 
Q 1616 4750 1894 4750 
Q 2613 4750 3031 4423 
Q 3450 4097 3450 3541 
Q 3450 3153 3228 2886 
Q 3006 2619 2597 2516 
z
" transform="scale(0.015625)"/>
       </defs>
       <use xlink:href="#DejaVuSans-30"/>
       <use xlink:href="#DejaVuSans-2e" x="63.623047"/>
       <use xlink:href="#DejaVuSans-33" x="95.410156"/>
       <use xlink:href="#DejaVuSans-30" x="159.033203"/>
      </g>
     </g>
    </g>
    <g id="text_15">
     <!-- Tracking error(m) -->
     <g transform="translate(22.254687 217.803781) rotate(-90) scale(0.1 -0.1)">
      <defs>
       <path id="DejaVuSans-72" d="M 2631 2963 
Q 2534 3019 2420 3045 
Q 2306 3072 2169 3072 
Q 1681 3072 1420 2755 
Q 1159 2438 1159 1844 
L 1159 0 
L 581 0 
L 581 3500 
L 1159 3500 
L 1159 2956 
Q 1341 3275 1631 3429 
Q 1922 3584 2338 3584 
Q 2397 3584 2469 3576 
Q 2541 3569 2628 3553 
L 2631 2963 
z
" transform="scale(0.015625)"/>
       <path id="DejaVuSans-61" d="M 2194 1759 
Q 1497 1759 1228 1600 
Q 959 1441 959 1056 
Q 959 750 1161 570 
Q 1363 391 1709 391 
Q 2188 391 2477 730 
Q 2766 1069 2766 1631 
L 2766 1759 
L 2194 1759 
z
M 3341 1997 
L 3341 0 
L 2766 0 
L 2766 531 
Q 2569 213 2275 61 
Q 1981 -91 1556 -91 
Q 1019 -91 701 211 
Q 384 513 384 1019 
Q 384 1609 779 1909 
Q 1175 2209 1959 2209 
L 2766 2209 
L 2766 2266 
Q 2766 2663 2505 2880 
Q 2244 3097 1772 3097 
Q 1472 3097 1187 3025 
Q 903 2953 641 2809 
L 641 3341 
Q 956 3463 1253 3523 
Q 1550 3584 1831 3584 
Q 2591 3584 2966 3190 
Q 3341 2797 3341 1997 
z
" transform="scale(0.015625)"/>
       <path id="DejaVuSans-63" d="M 3122 3366 
L 3122 2828 
Q 2878 2963 2633 3030 
Q 2388 3097 2138 3097 
Q 1578 3097 1268 2742 
Q 959 2388 959 1747 
Q 959 1106 1268 751 
Q 1578 397 2138 397 
Q 2388 397 2633 464 
Q 2878 531 3122 666 
L 3122 134 
Q 2881 22 2623 -34 
Q 2366 -91 2075 -91 
Q 1284 -91 818 406 
Q 353 903 353 1747 
Q 353 2603 823 3093 
Q 1294 3584 2113 3584 
Q 2378 3584 2631 3529 
Q 2884 3475 3122 3366 
z
" transform="scale(0.015625)"/>
       <path id="DejaVuSans-6b" d="M 581 4863 
L 1159 4863 
L 1159 1991 
L 2875 3500 
L 3609 3500 
L 1753 1863 
L 3688 0 
L 2938 0 
L 1159 1709 
L 1159 0 
L 581 0 
L 581 4863 
z
" transform="scale(0.015625)"/>
       <path id="DejaVuSans-6e" d="M 3513 2113 
L 3513 0 
L 2938 0 
L 2938 2094 
Q 2938 2591 2744 2837 
Q 2550 3084 2163 3084 
Q 1697 3084 1428 2787 
Q 1159 2491 1159 1978 
L 1159 0 
L 581 0 
L 581 3500 
L 1159 3500 
L 1159 2956 
Q 1366 3272 1645 3428 
Q 1925 3584 2291 3584 
Q 2894 3584 3203 3211 
Q 3513 2838 3513 2113 
z
" transform="scale(0.015625)"/>
       <path id="DejaVuSans-67" d="M 2906 1791 
Q 2906 2416 2648 2759 
Q 2391 3103 1925 3103 
Q 1463 3103 1205 2759 
Q 947 2416 947 1791 
Q 947 1169 1205 825 
Q 1463 481 1925 481 
Q 2391 481 2648 825 
Q 2906 1169 2906 1791 
z
M 3481 434 
Q 3481 -459 3084 -895 
Q 2688 -1331 1869 -1331 
Q 1566 -1331 1297 -1286 
Q 1028 -1241 775 -1147 
L 775 -588 
Q 1028 -725 1275 -790 
Q 1522 -856 1778 -856 
Q 2344 -856 2625 -561 
Q 2906 -266 2906 331 
L 2906 616 
Q 2728 306 2450 153 
Q 2172 0 1784 0 
Q 1141 0 747 490 
Q 353 981 353 1791 
Q 353 2603 747 3093 
Q 1141 3584 1784 3584 
Q 2172 3584 2450 3431 
Q 2728 3278 2906 2969 
L 2906 3500 
L 3481 3500 
L 3481 434 
z
" transform="scale(0.015625)"/>
       <path id="DejaVuSans-20" transform="scale(0.015625)"/>
       <path id="DejaVuSans-6f" d="M 1959 3097 
Q 1497 3097 1228 2736 
Q 959 2375 959 1747 
Q 959 1119 1226 758 
Q 1494 397 1959 397 
Q 2419 397 2687 759 
Q 2956 1122 2956 1747 
Q 2956 2369 2687 2733 
Q 2419 3097 1959 3097 
z
M 1959 3584 
Q 2709 3584 3137 3096 
Q 3566 2609 3566 1747 
Q 3566 888 3137 398 
Q 2709 -91 1959 -91 
Q 1206 -91 779 398 
Q 353 888 353 1747 
Q 353 2609 779 3096 
Q 1206 3584 1959 3584 
z
" transform="scale(0.015625)"/>
      </defs>
      <use xlink:href="#DejaVuSans-54"/>
      <use xlink:href="#DejaVuSans-72" x="46.333984"/>
      <use xlink:href="#DejaVuSans-61" x="87.447266"/>
      <use xlink:href="#DejaVuSans-63" x="148.726562"/>
      <use xlink:href="#DejaVuSans-6b" x="203.707031"/>
      <use xlink:href="#DejaVuSans-69" x="261.617188"/>
      <use xlink:href="#DejaVuSans-6e" x="289.400391"/>
      <use xlink:href="#DejaVuSans-67" x="352.779297"/>
      <use xlink:href="#DejaVuSans-20" x="416.255859"/>
      <use xlink:href="#DejaVuSans-65" x="448.042969"/>
      <use xlink:href="#DejaVuSans-72" x="509.566406"/>
      <use xlink:href="#DejaVuSans-72" x="548.929688"/>
      <use xlink:href="#DejaVuSans-6f" x="587.792969"/>
      <use xlink:href="#DejaVuSans-72" x="648.974609"/>
      <use xlink:href="#DejaVuSans-28" x="690.087891"/>
      <use xlink:href="#DejaVuSans-6d" x="729.101562"/>
      <use xlink:href="#DejaVuSans-29" x="826.513672"/>
     </g>
    </g>
   </g>
   <g id="line2d_27">
    <path d="M 73.832727 287.312304 
L 75.460651 74.137998 
L 75.460651 74.137998 
L 75.925772 55.274636 
L 75.925772 55.274636 
L 76.158333 53.568 
L 76.158333 53.568 
L 76.390893 56.709361 
L 76.390893 56.709361 
L 76.623454 64.292454 
L 76.623454 64.292454 
L 77.088575 89.82641 
L 77.088575 89.82641 
L 79.18162 229.984061 
L 79.18162 229.984061 
L 79.879302 253.441104 
L 79.879302 253.441104 
L 80.576984 268.02908 
L 80.576984 268.02908 
L 81.972347 294.353975 
L 81.972347 294.353975 
L 82.204908 292.04034 
L 82.204908 292.04034 
L 82.670029 284.66198 
L 82.670029 284.66198 
L 83.13515 278.841505 
L 83.13515 278.841505 
L 83.600271 276.062424 
L 83.600271 276.062424 
L 84.065392 278.204915 
L 84.065392 278.204915 
L 84.530513 282.603461 
L 84.530513 282.603461 
L 84.763074 285.694439 
L 84.763074 285.694439 
L 85.228195 294.769038 
L 85.228195 294.769038 
L 85.460755 291.765231 
L 85.460755 291.765231 
L 87.088679 262.275783 
L 87.088679 262.275783 
L 87.5538 256.183398 
L 87.5538 256.183398 
L 88.251482 251.502545 
L 88.251482 251.502545 
L 88.484043 250.806776 
L 88.484043 250.806776 
L 88.716603 250.534066 
L 88.716603 250.534066 
L 88.949164 250.634033 
L 88.949164 250.634033 
L 89.181724 251.057892 
L 89.181724 251.057892 
L 89.414285 250.222169 
L 89.414285 250.222169 
L 89.646846 250.559657 
L 89.646846 250.559657 
L 90.111967 251.967992 
L 90.111967 251.967992 
L 90.344527 251.364991 
L 90.344527 251.364991 
L 90.809648 252.533405 
L 90.809648 252.533405 
L 91.042209 253.382724 
L 91.042209 253.382724 
L 91.274769 252.631772 
L 91.274769 252.631772 
L 91.50733 253.137205 
L 91.50733 253.137205 
L 91.739891 254.072096 
L 91.739891 254.072096 
L 91.972451 254.068897 
L 92.205012 254.978196 
L 92.205012 254.978196 
L 92.670133 258.247515 
L 92.670133 258.247515 
L 92.902693 258.558612 
L 92.902693 258.558612 
L 94.995738 274.325398 
L 94.995738 274.325398 
L 95.46086 278.015378 
L 95.46086 278.015378 
L 95.69342 277.986588 
L 95.69342 277.986588 
L 96.158541 280.964003 
L 96.158541 280.964003 
L 96.391102 280.412985 
L 96.391102 280.412985 
L 96.623662 281.76054 
L 96.623662 281.76054 
L 96.856223 283.804664 
L 96.856223 283.804664 
L 97.088784 283.000929 
L 97.088784 283.000929 
L 97.321344 284.701167 
L 97.321344 284.701167 
L 97.553905 287.248325 
L 97.553905 287.248325 
L 97.786465 286.088708 
L 97.786465 286.088708 
L 98.019026 288.102442 
L 98.019026 288.102442 
L 98.251586 287.74576 
L 98.251586 287.74576 
L 98.484147 288.882184 
L 98.484147 288.882184 
L 98.716707 290.659197 
L 98.716707 290.659197 
L 98.949268 288.855793 
L 98.949268 288.855793 
L 99.181829 288.845397 
L 99.181829 288.845397 
L 99.414389 289.151695 
L 99.414389 289.151695 
L 99.64695 285.608067 
L 99.64695 285.608067 
L 100.112071 283.57434 
L 100.112071 283.57434 
L 100.344631 279.031042 
L 100.344631 279.031042 
L 100.809753 275.961657 
L 100.809753 275.961657 
L 101.042313 271.159245 
L 101.042313 271.159245 
L 101.507434 268.384163 
L 101.507434 268.384163 
L 101.739995 264.024005 
L 101.739995 264.024005 
L 101.972555 262.837197 
L 101.972555 262.837197 
L 102.205116 259.722227 
L 102.205116 259.722227 
L 102.670237 257.35421 
L 102.670237 257.35421 
L 102.902798 254.522347 
L 102.902798 254.522347 
L 103.367919 252.595784 
L 103.367919 252.595784 
L 103.600479 249.964654 
L 103.600479 249.964654 
L 104.0656 248.134059 
L 104.0656 248.134059 
L 104.298161 245.723656 
L 104.298161 245.723656 
L 104.763282 244.014622 
L 104.763282 244.014622 
L 104.995843 242.051271 
L 104.995843 242.051271 
L 105.693524 239.809612 
L 105.693524 239.809612 
L 105.926085 239.539302 
L 105.926085 239.539302 
L 106.158645 239.461727 
L 106.158645 239.461727 
L 106.391206 238.973089 
L 106.391206 238.973089 
L 106.623767 239.046664 
L 106.623767 239.046664 
L 107.088888 239.744034 
L 107.088888 239.744034 
L 107.321448 240.405415 
L 107.321448 240.405415 
L 107.786569 242.969367 
L 107.786569 242.969367 
L 108.01913 244.561641 
L 108.716812 252.769327 
L 108.716812 252.769327 
L 109.414493 264.887719 
L 109.414493 264.887719 
L 111.042417 295.350445 
L 111.042417 295.350445 
L 111.97266 283.186468 
L 111.97266 283.186468 
L 112.437781 279.346138 
L 112.437781 279.346138 
L 112.902902 277.28202 
L 112.902902 277.28202 
L 113.368023 276.249562 
L 113.368023 276.249562 
L 113.833144 275.888881 
L 113.833144 275.888881 
L 114.298265 275.670553 
L 114.298265 275.670553 
L 114.995947 275.073151 
L 114.995947 275.073151 
L 115.461068 274.846826 
L 115.461068 274.846826 
L 115.693629 274.904407 
L 116.15875 275.913673 
L 116.15875 275.913673 
L 116.623871 278.188921 
L 116.623871 278.188921 
L 117.088992 281.973269 
L 117.088992 281.973269 
L 118.019234 291.870796 
L 118.019234 291.870796 
L 118.251795 294.561107 
L 118.251795 294.561107 
L 118.484355 293.902924 
L 118.484355 293.902924 
L 119.182037 287.856924 
L 119.182037 287.856924 
L 119.647158 285.78081 
L 119.647158 285.78081 
L 119.879719 285.213798 
L 119.879719 285.213798 
L 120.112279 284.945886 
L 120.112279 284.945886 
L 120.34484 284.949085 
L 120.34484 284.949085 
L 120.809961 285.958351 
L 120.809961 285.958351 
L 121.507643 288.243996 
L 121.507643 288.243996 
L 121.972764 290.026606 
L 121.972764 290.026606 
L 122.437885 290.959098 
L 122.437885 290.959098 
L 123.600688 292.833678 
L 123.600688 292.833678 
L 123.833248 293.46227 
L 123.833248 293.46227 
L 124.298369 295.373638 
L 124.298369 295.373638 
L 124.996051 291.126242 
L 124.996051 291.126242 
L 126.391414 280.935212 
L 126.391414 280.935212 
L 126.856536 278.748735 
L 126.856536 278.748735 
L 127.089096 278.116944 
L 127.089096 278.116944 
L 127.321657 277.847434 
L 127.321657 277.847434 
L 127.554217 277.778656 
L 127.554217 277.778656 
L 127.786778 277.998584 
L 127.786778 277.998584 
L 128.251899 279.005451 
L 128.251899 279.005451 
L 128.71702 280.660103 
L 128.71702 280.660103 
L 132.205428 295.077736 
L 132.205428 295.077736 
L 132.437989 294.362772 
L 132.437989 294.362772 
L 133.368231 287.272317 
L 133.368231 287.272317 
L 134.298474 280.139476 
L 134.298474 280.139476 
L 134.531034 278.833507 
L 134.531034 278.833507 
L 134.996155 278.003382 
L 134.996155 278.003382 
L 135.228716 277.879423 
L 135.228716 277.879423 
L 135.693837 279.373329 
L 135.693837 279.373329 
L 135.926397 279.865966 
L 135.926397 279.865966 
L 136.158958 281.531815 
L 136.158958 281.531815 
L 136.391519 282.009257 
L 136.391519 282.009257 
L 136.624079 283.168874 
L 136.624079 283.168874 
L 136.85664 283.24165 
L 136.85664 283.24165 
L 137.0892 282.293963 
L 137.0892 282.293963 
L 137.321761 282.57627 
L 137.321761 282.57627 
L 138.019443 276.363924 
L 138.019443 276.363924 
L 138.252003 272.074942 
L 138.252003 272.074942 
L 138.484564 270.29953 
L 138.484564 270.29953 
L 138.717124 265.82261 
L 138.717124 265.82261 
L 138.949685 263.723304 
L 138.949685 263.723304 
L 139.414806 257.333417 
L 139.414806 257.333417 
L 139.879927 249.973451 
L 139.879927 249.973451 
L 140.112488 250.383715 
L 140.112488 250.383715 
L 140.345048 247.543055 
L 140.345048 247.543055 
L 140.577609 248.520332 
L 140.577609 248.520332 
L 140.810169 246.724126 
L 140.810169 246.724126 
L 141.04273 247.989307 
L 141.04273 247.989307 
L 141.27529 246.743319 
L 141.507851 247.874945 
L 141.507851 247.874945 
L 141.740412 246.914463 
L 141.740412 246.914463 
L 141.972972 244.452877 
L 141.972972 244.452877 
L 142.205533 247.032824 
L 142.205533 247.032824 
L 142.438093 244.738382 
L 142.438093 244.738382 
L 142.670654 247.271145 
L 142.670654 247.271145 
L 142.903214 245.271006 
L 142.903214 245.271006 
L 143.135775 247.572645 
L 143.135775 247.572645 
L 143.368336 245.993167 
L 143.368336 245.993167 
L 143.600896 248.460351 
L 143.600896 248.460351 
L 143.833457 247.567047 
L 143.833457 247.567047 
L 144.066017 250.391713 
L 144.066017 250.391713 
L 144.298578 250.239763 
L 144.298578 250.239763 
L 144.531138 253.355533 
L 144.531138 253.355533 
L 144.763699 253.926544 
L 144.763699 253.926544 
L 144.996259 257.498963 
L 144.996259 257.498963 
L 145.22882 259.125625 
L 146.159062 275.417837 
L 146.159062 275.417837 
L 146.391623 278.045768 
L 146.391623 278.045768 
L 146.624183 284.809931 
L 146.856744 287.084379 
L 146.856744 287.084379 
L 147.089305 295.488 
L 147.089305 295.488 
L 147.554426 292.446606 
L 147.554426 292.446606 
L 147.786986 293.207154 
L 147.786986 293.207154 
L 148.019547 289.537168 
L 148.019547 289.537168 
L 148.252107 292.003552 
L 148.252107 292.003552 
L 148.484668 288.541497 
L 148.717228 291.610882 
L 148.717228 291.610882 
L 148.949789 287.95929 
L 148.949789 287.95929 
L 149.18235 291.047868 
L 149.18235 291.047868 
L 149.41491 286.90044 
L 149.41491 286.90044 
L 149.647471 289.463592 
L 149.880031 284.756349 
L 149.880031 284.756349 
L 150.112592 286.665318 
L 150.112592 286.665318 
L 150.345152 282.067638 
L 150.345152 282.067638 
L 150.577713 283.889436 
L 150.577713 283.889436 
L 150.810274 279.876363 
L 150.810274 279.876363 
L 151.042834 282.433917 
L 151.042834 282.433917 
L 151.275395 279.390923 
L 151.275395 279.390923 
L 151.507955 282.338748 
L 151.507955 282.338748 
L 151.740516 280.104287 
L 151.740516 280.104287 
L 151.973076 283.535153 
L 151.973076 283.535153 
L 152.205637 281.905292 
L 152.438197 285.02586 
L 152.438197 285.02586 
L 152.670758 283.377605 
L 152.903319 285.948755 
L 152.903319 285.948755 
L 153.135879 284.166944 
L 153.135879 284.166944 
L 153.36844 285.667248 
L 153.36844 285.667248 
L 153.601 283.368008 
L 153.601 283.368008 
L 153.833561 283.881438 
L 153.833561 283.881438 
L 154.066121 281.378266 
L 154.066121 281.378266 
L 154.298682 281.083164 
L 154.298682 281.083164 
L 154.531243 278.49442 
L 154.531243 278.49442 
L 154.763803 277.395583 
L 154.763803 277.395583 
L 155.228924 273.17138 
L 155.228924 273.17138 
L 155.461485 271.635088 
L 155.461485 271.635088 
L 157.78709 241.467464 
L 157.78709 241.467464 
L 158.252212 235.903704 
L 158.252212 235.903704 
L 158.484772 237.387213 
L 158.484772 237.387213 
L 158.717333 235.735759 
L 158.717333 235.735759 
L 158.949893 237.571152 
L 158.949893 237.571152 
L 159.182454 236.993743 
L 159.182454 236.993743 
L 159.415014 235.367881 
L 159.415014 235.367881 
L 159.647575 239.434536 
L 159.647575 239.434536 
L 159.880135 238.672388 
L 159.880135 238.672388 
L 160.112696 241.997689 
L 160.112696 241.997689 
L 160.345257 241.652203 
L 160.345257 241.652203 
L 160.577817 244.334516 
L 160.577817 244.334516 
L 160.810378 244.740781 
L 160.810378 244.740781 
L 161.042938 243.62595 
L 161.042938 243.62595 
L 161.275499 247.691006 
L 161.275499 247.691006 
L 161.508059 247.734991 
L 161.508059 247.734991 
L 161.74062 251.753662 
L 161.74062 251.753662 
L 162.205741 254.314416 
L 162.205741 254.314416 
L 162.438302 261.723166 
L 162.438302 261.723166 
L 162.670862 265.285188 
L 162.670862 265.285188 
L 163.135983 277.541135 
L 163.135983 277.541135 
L 163.601104 287.662588 
L 163.601104 287.662588 
L 163.833665 290.131371 
L 163.833665 290.131371 
L 164.066226 294.234814 
L 164.066226 294.234814 
L 164.298786 295.187299 
L 164.298786 295.187299 
L 164.531347 293.641411 
L 164.531347 293.641411 
L 164.763907 293.997293 
L 164.763907 293.997293 
L 164.996468 295.000161 
L 164.996468 295.000161 
L 165.461589 294.049276 
L 165.461589 294.049276 
L 165.69415 294.637881 
L 165.69415 294.637881 
L 165.92671 292.385826 
L 165.92671 292.385826 
L 166.159271 292.467399 
L 166.159271 292.467399 
L 166.391831 295.488 
L 166.391831 295.488 
L 166.624392 288.530301 
L 166.624392 288.530301 
L 166.856952 290.463262 
L 166.856952 290.463262 
L 167.089513 289.639534 
L 167.089513 289.639534 
L 167.322073 291.967564 
L 167.322073 291.967564 
L 167.554634 295.488 
L 167.554634 295.488 
L 167.787195 293.16077 
L 167.787195 293.16077 
L 168.019755 293.347908 
L 168.252316 291.258998 
L 168.252316 291.258998 
L 168.717437 283.306428 
L 168.717437 283.306428 
L 168.949997 279.97553 
L 168.949997 279.97553 
L 169.647679 265.461929 
L 169.647679 265.461929 
L 170.345361 254.609518 
L 170.345361 254.609518 
L 170.810482 250.031032 
L 170.810482 250.031032 
L 171.043042 249.316068 
L 171.043042 249.316068 
L 171.275603 249.036961 
L 171.275603 249.036961 
L 171.508164 249.436029 
L 171.508164 249.436029 
L 172.205845 254.680694 
L 172.205845 254.680694 
L 173.136088 264.858129 
L 173.136088 264.858129 
L 175.694254 295.097729 
L 175.694254 295.097729 
L 176.159375 291.398952 
L 176.159375 291.398952 
L 176.624496 288.874187 
L 176.624496 288.874187 
L 177.322178 285.948755 
L 177.322178 285.948755 
L 177.554738 285.077043 
L 177.554738 285.077043 
L 178.25242 279.385325 
L 178.25242 279.385325 
L 178.48498 276.989317 
L 179.880344 254.21045 
L 179.880344 254.21045 
L 180.112904 252.149532 
L 180.112904 252.149532 
L 180.345465 247.399102 
L 180.345465 247.399102 
L 180.578026 246.889671 
L 180.578026 246.889671 
L 180.810586 241.42028 
L 180.810586 241.42028 
L 181.043147 242.011284 
L 181.043147 242.011284 
L 181.275707 240.777292 
L 181.275707 240.777292 
L 181.508268 236.516301 
L 181.508268 236.516301 
L 181.740828 235.85332 
L 181.740828 235.85332 
L 181.973389 229.839309 
L 181.973389 229.839309 
L 182.205949 229.779329 
L 182.205949 229.779329 
L 182.43851 221.825959 
L 182.43851 221.825959 
L 182.671071 222.273811 
L 182.671071 222.273811 
L 182.903631 220.421624 
L 182.903631 220.421624 
L 183.136192 213.203211 
L 183.136192 213.203211 
L 183.368752 211.888445 
L 183.368752 211.888445 
L 183.601313 203.176926 
L 183.601313 203.176926 
L 183.833873 203.429643 
L 183.833873 203.429643 
L 184.066434 201.815776 
L 184.066434 201.815776 
L 184.298995 195.043616 
L 184.298995 195.043616 
L 184.531555 194.513391 
L 184.531555 194.513391 
L 184.764116 186.53363 
L 184.764116 186.53363 
L 184.996676 187.660457 
L 184.996676 187.660457 
L 185.229237 186.678382 
L 185.229237 186.678382 
L 185.461797 180.086162 
L 185.461797 180.086162 
L 185.694358 180.009387 
L 185.694358 180.009387 
L 185.926918 170.840419 
L 185.926918 170.840419 
L 186.159479 172.536659 
L 186.159479 172.536659 
L 186.39204 171.532191 
L 186.39204 171.532191 
L 186.6246 164.130638 
L 186.857161 165.069528 
L 186.857161 165.069528 
L 187.089721 156.452377 
L 187.089721 156.452377 
L 187.322282 160.119965 
L 187.322282 160.119965 
L 187.554842 151.459628 
L 187.554842 151.459628 
L 187.787403 156.833851 
L 187.787403 156.833851 
L 188.019964 158.859581 
L 188.019964 158.859581 
L 188.252524 154.14514 
L 188.252524 154.14514 
L 188.485085 156.737083 
L 188.485085 156.737083 
L 188.717645 150.724671 
L 188.717645 150.724671 
L 188.950206 154.209919 
L 188.950206 154.209919 
L 189.182766 155.161604 
L 189.182766 155.161604 
L 189.415327 152.208181 
L 189.415327 152.208181 
L 189.647887 154.667368 
L 189.647887 154.667368 
L 189.880448 151.462827 
L 190.113009 156.334017 
L 190.113009 156.334017 
L 190.345569 153.516548 
L 190.345569 153.516548 
L 190.81069 166.489858 
L 190.81069 166.489858 
L 191.043251 167.54231 
L 191.043251 167.54231 
L 191.275811 174.689547 
L 191.275811 174.689547 
L 191.508372 174.962256 
L 191.508372 174.962256 
L 191.973493 189.167159 
L 191.973493 189.167159 
L 192.206054 190.850602 
L 192.206054 190.850602 
L 192.438614 197.077343 
L 192.438614 197.077343 
L 192.671175 197.465215 
L 193.136296 208.958214 
L 193.136296 208.958214 
L 193.368856 210.8168 
L 193.368856 210.8168 
L 193.601417 216.163832 
L 193.601417 216.163832 
L 193.833978 217.935246 
L 193.833978 217.935246 
L 194.066538 223.979647 
L 194.066538 223.979647 
L 194.299099 226.394049 
L 194.299099 226.394049 
L 196.624704 294.561107 
L 196.624704 294.561107 
L 196.857265 290.380089 
L 196.857265 290.380089 
L 197.554947 271.993369 
L 197.554947 271.993369 
L 198.020068 265.538704 
L 198.020068 265.538704 
L 198.252628 258.623391 
L 198.252628 258.623391 
L 198.485189 255.653973 
L 198.485189 255.653973 
L 198.717749 246.281872 
L 198.717749 246.281872 
L 198.95031 243.619552 
L 198.95031 243.619552 
L 199.182871 239.02907 
L 199.182871 239.02907 
L 199.415431 228.483757 
L 199.415431 228.483757 
L 199.880552 219.877004 
L 199.880552 219.877004 
L 200.113113 210.076245 
L 200.113113 210.076245 
L 200.578234 202.290019 
L 200.578234 202.290019 
L 200.810794 194.649346 
L 200.810794 194.649346 
L 201.043355 193.913589 
L 201.043355 193.913589 
L 201.275916 185.766684 
L 201.275916 185.766684 
L 201.508476 188.553762 
L 201.508476 188.553762 
L 201.741037 189.834938 
L 201.741037 189.834938 
L 201.973597 183.967279 
L 201.973597 183.967279 
L 202.206158 186.529631 
L 202.206158 186.529631 
L 202.438718 187.207007 
L 202.438718 187.207007 
L 202.671279 183.105963 
L 202.671279 183.105963 
L 202.90384 182.684503 
L 202.90384 182.684503 
L 203.1364 179.719883 
L 203.1364 179.719883 
L 203.368961 170.289402 
L 203.368961 170.289402 
L 203.601521 165.662132 
L 203.601521 165.662132 
L 203.834082 157.667176 
L 203.834082 157.667176 
L 204.066642 142.310654 
L 204.066642 142.310654 
L 204.299203 137.646596 
L 204.299203 137.646596 
L 204.531763 119.42942 
L 204.531763 119.42942 
L 204.764324 119.759711 
L 204.996885 116.423215 
L 204.996885 116.423215 
L 205.229445 108.037987 
L 205.229445 108.037987 
L 205.462006 109.911768 
L 205.462006 109.911768 
L 205.694566 104.218451 
L 205.694566 104.218451 
L 205.927127 110.254055 
L 205.927127 110.254055 
L 206.159687 105.330883 
L 206.159687 105.330883 
L 206.392248 114.714979 
L 206.392248 114.714979 
L 206.624809 109.463916 
L 206.624809 109.463916 
L 207.08993 131.005592 
L 207.08993 131.005592 
L 207.32249 131.462241 
L 207.32249 131.462241 
L 207.555051 143.666206 
L 207.555051 143.666206 
L 207.787611 143.435882 
L 207.787611 143.435882 
L 208.252732 167.507122 
L 208.252732 167.507122 
L 208.485293 170.099864 
L 208.485293 170.099864 
L 208.950414 184.164013 
L 208.950414 184.164013 
L 209.182975 184.097635 
L 209.182975 184.097635 
L 209.415535 187.242995 
L 209.415535 187.242995 
L 209.648096 183.325891 
L 209.648096 183.325891 
L 209.880656 185.410801 
L 209.880656 185.410801 
L 210.113217 185.889043 
L 210.113217 185.889043 
L 210.345778 181.959143 
L 210.345778 181.959143 
L 210.810899 186.126564 
L 210.810899 186.126564 
L 211.043459 186.207338 
L 211.043459 186.207338 
L 211.741141 202.511546 
L 211.741141 202.511546 
L 213.601625 266.331242 
L 213.601625 266.331242 
L 214.531868 289.709911 
L 214.531868 289.709911 
L 214.764428 295.388033 
L 214.764428 295.388033 
L 215.46211 279.598055 
L 215.46211 279.598055 
L 215.69467 271.11606 
L 215.69467 271.11606 
L 216.159792 261.016999 
L 216.159792 261.016999 
L 216.857473 231.661107 
L 216.857473 231.661107 
L 217.090034 227.832773 
L 217.090034 227.832773 
L 217.322594 222.009099 
L 217.322594 222.009099 
L 217.555155 211.063918 
L 217.555155 211.063918 
L 217.787716 207.219589 
L 217.787716 207.219589 
L 218.020276 195.234753 
L 218.020276 195.234753 
L 218.252837 194.12472 
L 218.252837 194.12472 
L 218.485397 190.988157 
L 218.485397 190.988157 
L 218.717958 182.100696 
L 218.717958 182.100696 
L 218.950518 180.988264 
L 218.950518 180.988264 
L 219.183079 170.631688 
L 219.183079 170.631688 
L 219.415639 172.495072 
L 219.6482 172.50067 
L 219.6482 172.50067 
L 219.880761 166.614617 
L 219.880761 166.614617 
L 220.113321 168.950644 
L 220.113321 168.950644 
L 220.345882 161.064452 
L 220.345882 161.064452 
L 220.578442 165.109515 
L 220.578442 165.109515 
L 220.811003 165.820479 
L 220.811003 165.820479 
L 221.043563 159.332225 
L 221.043563 159.332225 
L 221.276124 160.416666 
L 221.276124 160.416666 
L 221.508685 150.921406 
L 221.508685 150.921406 
L 221.741245 152.927943 
L 221.741245 152.927943 
L 221.973806 151.314077 
L 222.206366 143.595829 
L 222.206366 143.595829 
L 222.438927 143.127984 
L 222.671487 134.213332 
L 222.671487 134.213332 
L 222.904048 136.004739 
L 222.904048 136.004739 
L 223.136608 127.190854 
L 223.136608 127.190854 
L 223.60173 134.629194 
L 223.60173 134.629194 
L 223.83429 131.392664 
L 224.066851 137.081983 
L 224.066851 137.081983 
L 224.299411 134.494039 
L 224.299411 134.494039 
L 224.764532 149.316337 
L 224.764532 149.316337 
L 224.997093 150.505544 
L 224.997093 150.505544 
L 225.229654 157.572007 
L 225.229654 157.572007 
L 225.462214 157.801531 
L 225.927335 167.583097 
L 225.927335 167.583097 
L 226.159896 165.132707 
L 226.159896 165.132707 
L 226.392456 167.486329 
L 226.392456 167.486329 
L 226.625017 167.586296 
L 226.625017 167.586296 
L 226.857577 163.015807 
L 226.857577 163.015807 
L 227.090138 163.789951 
L 227.090138 163.789951 
L 227.322699 157.336885 
L 227.322699 157.336885 
L 227.78782 162.238464 
L 227.78782 162.238464 
L 228.02038 159.617731 
L 228.02038 159.617731 
L 228.252941 163.617208 
L 228.252941 163.617208 
L 228.485501 160.651789 
L 228.485501 160.651789 
L 228.950623 171.914464 
L 228.950623 171.914464 
L 229.183183 172.101602 
L 229.415744 178.456301 
L 229.415744 178.456301 
L 229.648304 177.655766 
L 229.648304 177.655766 
L 230.113425 189.685388 
L 230.113425 189.685388 
L 230.345986 189.600616 
L 230.345986 189.600616 
L 230.578546 194.321455 
L 230.578546 194.321455 
L 230.811107 192.410886 
L 230.811107 192.410886 
L 231.276228 200.588982 
L 231.276228 200.588982 
L 231.508789 200.549795 
L 231.741349 204.890759 
L 231.741349 204.890759 
L 231.97391 205.503357 
L 231.97391 205.503357 
L 232.20647 211.486978 
L 232.20647 211.486978 
L 232.439031 213.459926 
L 232.439031 213.459926 
L 233.136713 232.023387 
L 233.136713 232.023387 
L 233.834394 250.367721 
L 233.834394 250.367721 
L 234.066955 254.17926 
L 234.066955 254.17926 
L 234.532076 264.836536 
L 234.532076 264.836536 
L 235.927439 281.234314 
L 235.927439 281.234314 
L 236.16 282.438715 
L 236.16 282.438715 
L 236.392561 285.214597 
L 236.392561 285.214597 
L 236.625121 286.408602 
L 236.625121 286.408602 
L 236.857682 289.152495 
L 236.857682 289.152495 
L 237.090242 290.297716 
L 237.090242 290.297716 
L 237.322803 292.744107 
L 237.322803 292.744107 
L 237.555363 293.627015 
L 237.555363 293.627015 
L 237.787924 295.328053 
L 237.787924 295.328053 
L 238.020485 294.653876 
L 238.020485 294.653876 
L 238.253045 293.151972 
L 238.253045 293.151972 
L 238.485606 292.867267 
L 238.485606 292.867267 
L 238.718166 291.988357 
L 238.718166 291.988357 
L 238.950727 292.000353 
L 238.950727 292.000353 
L 239.183287 291.368562 
L 239.183287 291.368562 
L 239.415848 291.390955 
L 239.415848 291.390955 
L 239.648408 290.854332 
L 239.648408 290.854332 
L 239.880969 295.488 
L 239.880969 295.488 
L 240.11353 290.612012 
L 240.11353 290.612012 
L 240.34609 289.4412 
L 240.34609 289.4412 
L 240.578651 288.871788 
L 240.578651 288.871788 
L 241.043772 286.785278 
L 241.043772 286.785278 
L 241.276332 286.155086 
L 241.276332 286.155086 
L 241.508893 284.654782 
L 241.508893 284.654782 
L 242.439135 281.590996 
L 242.439135 281.590996 
L 242.671696 281.452641 
L 242.904256 280.443375 
L 242.904256 280.443375 
L 243.369377 280.436177 
L 243.369377 280.436177 
L 243.601938 279.4613 
L 243.601938 279.4613 
L 244.067059 278.661564 
L 244.067059 278.661564 
L 244.53218 276.483884 
L 244.53218 276.483884 
L 244.997301 274.667685 
L 244.997301 274.667685 
L 245.462423 271.652682 
L 245.462423 271.652682 
L 246.625225 266.48719 
L 246.625225 266.48719 
L 247.090346 265.613879 
L 247.090346 265.613879 
L 247.322907 264.214342 
L 247.322907 264.214342 
L 248.020589 262.156622 
L 248.020589 262.156622 
L 248.48571 259.180806 
L 248.48571 259.180806 
L 249.881073 252.33587 
L 249.881073 252.33587 
L 250.113634 252.023973 
L 250.113634 252.023973 
L 250.346194 251.927205 
L 250.346194 251.927205 
L 250.578755 250.947529 
L 250.578755 250.947529 
L 250.811315 250.929935 
L 250.811315 250.929935 
L 251.276437 251.360992 
L 251.276437 251.360992 
L 251.508997 251.692883 
L 251.508997 251.692883 
L 251.741558 250.826769 
L 251.974118 250.706009 
L 251.974118 250.706009 
L 252.206679 250.448494 
L 252.206679 250.448494 
L 252.6718 249.58318 
L 252.6718 249.58318 
L 252.904361 247.874945 
L 252.904361 247.874945 
L 254.067163 244.055408 
L 254.067163 244.055408 
L 254.299724 244.024218 
L 254.299724 244.024218 
L 254.532284 244.244146 
L 254.532284 244.244146 
L 254.764845 244.740781 
L 254.764845 244.740781 
L 254.997406 244.611224 
L 254.997406 244.611224 
L 255.462527 246.22669 
L 255.462527 246.22669 
L 255.927648 248.479545 
L 255.927648 248.479545 
L 256.160208 248.810636 
L 256.160208 248.810636 
L 256.85789 251.297813 
L 256.85789 251.297813 
L 257.090451 251.91201 
L 257.090451 251.91201 
L 257.323011 251.478553 
L 257.323011 251.478553 
L 257.555572 251.424971 
L 257.555572 251.424971 
L 258.253253 250.756392 
L 258.253253 250.756392 
L 258.485814 249.774317 
L 258.485814 249.774317 
L 258.718375 249.541594 
L 258.718375 249.541594 
L 258.950935 249.573583 
L 258.950935 249.573583 
L 259.183496 249.943061 
L 259.183496 249.943061 
L 259.416056 250.530067 
L 259.416056 250.530067 
L 259.648617 250.472486 
L 259.648617 250.472486 
L 260.113738 252.319075 
L 260.113738 252.319075 
L 261.741662 260.605935 
L 261.741662 260.605935 
L 261.974222 260.65072 
L 261.974222 260.65072 
L 262.439344 261.444858 
L 262.439344 261.444858 
L 262.671904 261.495241 
L 262.904465 261.300106 
L 262.904465 261.300106 
L 263.137025 260.030125 
L 263.137025 260.030125 
L 263.834707 258.257912 
L 263.834707 258.257912 
L 264.067268 257.895631 
L 264.067268 257.895631 
L 264.299828 256.699227 
L 264.299828 256.699227 
L 264.532389 256.552875 
L 264.532389 256.552875 
L 264.764949 256.790397 
L 264.764949 256.790397 
L 265.23007 258.004395 
L 265.23007 258.004395 
L 265.462631 257.812459 
L 265.462631 257.812459 
L 266.160313 260.442789 
L 266.160313 260.442789 
L 266.392873 261.372082 
L 266.392873 261.372082 
L 266.625434 260.944223 
L 266.625434 260.944223 
L 266.857994 261.182544 
L 266.857994 261.182544 
L 267.090555 261.179345 
L 267.090555 261.179345 
L 267.323115 260.89304 
L 267.555676 260.296437 
L 267.555676 260.296437 
L 268.020797 256.886365 
L 268.020797 256.886365 
L 268.718479 252.786121 
L 268.718479 252.786121 
L 268.951039 250.602843 
L 268.951039 250.602843 
L 269.41616 248.759453 
L 269.41616 248.759453 
L 269.648721 248.3124 
L 269.648721 248.3124 
L 269.881282 248.186842 
L 269.881282 248.186842 
L 270.113842 247.431892 
L 270.113842 247.431892 
L 270.346403 247.721396 
L 270.346403 247.721396 
L 270.811524 249.2209 
L 270.811524 249.2209 
L 271.044084 250.348527 
L 271.044084 250.348527 
L 271.276645 250.79398 
L 271.276645 250.79398 
L 271.974327 254.901421 
L 271.974327 254.901421 
L 272.439448 257.296629 
L 272.439448 257.296629 
L 275.462735 275.977652 
L 275.462735 275.977652 
L 275.695296 276.717407 
L 275.695296 276.717407 
L 276.160417 276.669423 
L 276.160417 276.669423 
L 276.392977 276.210375 
L 276.392977 276.210375 
L 276.858098 274.126264 
L 276.858098 274.126264 
L 277.32322 271.200831 
L 277.32322 271.200831 
L 278.951144 259.026457 
L 278.951144 259.026457 
L 279.183704 257.936418 
L 279.183704 257.936418 
L 280.113946 265.261196 
L 280.113946 265.261196 
L 280.346507 268.871202 
L 280.346507 268.871202 
L 281.276749 294.877002 
L 281.276749 294.877002 
L 281.974431 268.690462 
L 281.974431 268.690462 
L 283.137234 231.415588 
L 283.137234 231.415588 
L 284.067476 211.494975 
L 284.067476 211.494975 
L 285.230279 181.794397 
L 285.230279 181.794397 
L 285.462839 179.294424 
L 285.462839 179.294424 
L 285.92796 185.737893 
L 285.92796 185.737893 
L 286.393082 199.029498 
L 286.393082 199.029498 
L 287.555884 284.786739 
L 287.555884 284.786739 
L 287.788445 285.428127 
L 287.788445 285.428127 
L 288.253566 245.808428 
L 288.253566 245.808428 
L 288.718687 224.041227 
L 288.718687 224.041227 
L 288.951248 219.16204 
L 288.951248 219.16204 
L 289.183808 217.644142 
L 289.183808 217.644142 
L 289.416369 218.323917 
L 289.416369 218.323917 
L 289.648929 216.887592 
L 289.648929 216.887592 
L 290.114051 218.183164 
L 290.114051 218.183164 
L 290.579172 214.65713 
L 290.579172 214.65713 
L 290.811732 213.078452 
L 290.811732 213.078452 
L 291.276853 206.499827 
L 291.276853 206.499827 
L 292.207096 196.200833 
L 292.207096 196.200833 
L 292.672217 194.574171 
L 292.672217 194.574171 
L 292.904777 195.436286 
L 292.904777 195.436286 
L 293.137338 197.453219 
L 293.137338 197.453219 
L 293.83502 208.719093 
L 293.83502 208.719093 
L 294.532701 219.783435 
L 294.532701 219.783435 
L 295.230383 227.074623 
L 295.230383 227.074623 
L 295.695504 231.55954 
L 295.695504 231.55954 
L 296.393186 239.157828 
L 296.393186 239.157828 
L 297.555989 261.896708 
L 297.555989 261.896708 
L 298.25367 280.637711 
L 298.25367 280.637711 
L 298.718791 293.000023 
L 298.718791 293.000023 
L 298.951352 292.389825 
L 298.951352 292.389825 
L 299.881594 274.976383 
L 299.881594 274.976383 
L 300.579276 268.862405 
L 300.579276 268.862405 
L 300.811836 268.425749 
L 300.811836 268.425749 
L 301.044397 268.812821 
L 301.044397 268.812821 
L 301.276958 268.856007 
L 301.276958 268.856007 
L 302.43976 274.761254 
L 302.43976 274.761254 
L 302.672321 274.56292 
L 302.672321 274.56292 
L 303.137442 275.855292 
L 303.137442 275.855292 
L 303.370003 275.082748 
L 303.370003 275.082748 
L 303.602563 275.361855 
L 303.602563 275.361855 
L 303.835124 276.101611 
L 303.835124 276.101611 
L 304.067684 275.374651 
L 304.067684 275.374651 
L 304.300245 276.323937 
L 304.300245 276.323937 
L 304.532805 278.124942 
L 304.532805 278.124942 
L 304.765366 278.338471 
L 304.765366 278.338471 
L 306.160729 294.452342 
L 306.160729 294.452342 
L 306.39329 291.470928 
L 306.39329 291.470928 
L 307.323532 275.396244 
L 307.323532 275.396244 
L 307.556093 273.462484 
L 307.556093 273.462484 
L 307.788653 269.332649 
L 307.788653 269.332649 
L 308.021214 267.63801 
L 308.021214 267.63801 
L 308.253774 263.941632 
L 308.253774 263.941632 
L 308.486335 262.067052 
L 308.486335 262.067052 
L 308.951456 253.509882 
L 308.951456 253.509882 
L 309.184017 253.266762 
L 309.184017 253.266762 
L 309.416577 248.816234 
L 309.416577 248.816234 
L 309.649138 249.289677 
L 309.649138 249.289677 
L 309.881698 246.043551 
L 309.881698 246.043551 
L 310.114259 247.395104 
L 310.114259 247.395104 
L 310.346819 246.125124 
L 310.346819 246.125124 
L 310.57938 249.044158 
L 310.57938 249.044158 
L 310.811941 250.441296 
L 310.811941 250.441296 
L 311.044501 250.88355 
L 311.044501 250.88355 
L 311.277062 257.698896 
L 311.277062 257.698896 
L 311.509622 259.682241 
L 311.509622 259.682241 
L 311.742183 266.719913 
L 311.974743 269.384632 
L 311.974743 269.384632 
L 312.207304 275.493012 
L 312.207304 275.493012 
L 312.439865 278.06976 
L 312.439865 278.06976 
L 312.672425 283.014525 
L 312.672425 283.014525 
L 312.904986 285.018662 
L 312.904986 285.018662 
L 313.137546 284.93549 
L 313.137546 284.93549 
L 313.370107 289.546765 
L 313.370107 289.546765 
L 313.602667 288.520704 
L 313.602667 288.520704 
L 313.835228 291.308582 
L 313.835228 291.308582 
L 314.067788 289.767492 
L 314.067788 289.767492 
L 314.300349 291.476527 
L 314.300349 291.476527 
L 314.53291 289.829871 
L 314.53291 289.829871 
L 314.76547 290.839137 
L 314.76547 290.839137 
L 314.998031 295.488 
L 314.998031 295.488 
L 315.230591 287.44266 
L 315.230591 287.44266 
L 315.463152 289.970625 
L 315.463152 289.970625 
L 315.695712 288.787816 
L 315.695712 288.787816 
L 315.928273 291.377359 
L 315.928273 291.377359 
L 316.160834 291.01268 
L 316.160834 291.01268 
L 316.393394 293.43028 
L 316.393394 293.43028 
L 316.625955 293.798959 
L 316.625955 293.798959 
L 317.091076 295.488 
L 317.091076 295.488 
L 317.323636 293.443876 
L 317.323636 293.443876 
L 317.556197 290.313711 
L 317.556197 290.313711 
L 317.788757 289.366824 
L 317.788757 289.366824 
L 318.021318 286.648523 
L 318.021318 286.648523 
L 318.253879 285.41933 
L 318.253879 285.41933 
L 318.719 281.916488 
L 318.719 281.916488 
L 318.95156 281.035179 
L 318.95156 281.035179 
L 319.184121 278.985457 
L 319.184121 278.985457 
L 319.416681 277.929007 
L 319.416681 277.929007 
L 319.881803 275.139529 
L 319.881803 275.139529 
L 320.114363 274.146257 
L 320.114363 274.146257 
L 320.579484 271.563112 
L 320.579484 271.563112 
L 321.509726 267.301321 
L 321.509726 267.301321 
L 321.974848 265.502716 
L 321.974848 265.502716 
L 322.672529 264.587019 
L 322.672529 264.587019 
L 322.90509 264.721374 
L 322.90509 264.721374 
L 323.13765 264.70298 
L 323.13765 264.70298 
L 323.602772 265.629074 
L 323.602772 265.629074 
L 324.300453 268.097858 
L 324.300453 268.097858 
L 324.998135 272.107732 
L 324.998135 272.107732 
L 327.09118 286.584544 
L 327.09118 286.584544 
L 327.323741 287.453057 
L 327.323741 287.453057 
L 327.556301 287.886514 
L 327.556301 287.886514 
L 327.788862 287.881715 
L 327.788862 287.881715 
L 328.253983 286.219865 
L 328.253983 286.219865 
L 328.719104 283.001729 
L 328.719104 283.001729 
L 329.416786 275.094744 
L 329.416786 275.094744 
L 330.114467 266.350435 
L 330.114467 266.350435 
L 330.812149 262.76682 
L 330.812149 262.76682 
L 331.04471 262.433331 
L 331.04471 262.433331 
L 331.27727 262.727633 
L 331.27727 262.727633 
L 332.207512 275.916072 
L 332.207512 275.916072 
L 332.440073 280.94241 
L 332.440073 280.94241 
L 332.905194 294.198027 
L 332.905194 294.198027 
L 334.067997 259.423926 
L 334.067997 259.423926 
L 334.533118 252.056762 
L 334.533118 252.056762 
L 334.765679 250.587648 
L 334.765679 250.587648 
L 334.998239 250.012638 
L 334.998239 250.012638 
L 335.695921 254.164865 
L 335.695921 254.164865 
L 335.928481 257.409392 
L 335.928481 257.409392 
L 336.161042 258.911295 
L 336.161042 258.911295 
L 336.393603 259.126424 
L 336.393603 259.126424 
L 336.626163 261.548823 
L 336.626163 261.548823 
L 336.858724 260.371613 
L 336.858724 260.371613 
L 337.091284 260.453985 
L 337.323845 257.854845 
L 337.323845 257.854845 
L 337.556405 253.522677 
L 337.556405 253.522677 
L 337.788966 252.528606 
L 337.788966 252.528606 
L 338.254087 243.994628 
L 338.254087 243.994628 
L 338.486648 245.515725 
L 338.486648 245.515725 
L 338.719208 243.380431 
L 338.719208 243.380431 
L 338.951769 246.357847 
L 338.951769 246.357847 
L 339.41689 249.954257 
L 339.41689 249.954257 
L 340.114572 270.469873 
L 340.114572 270.469873 
L 341.044814 295.15531 
L 341.044814 295.15531 
L 341.509935 285.996739 
L 341.509935 285.996739 
L 341.742495 283.868642 
L 341.742495 283.868642 
L 341.975056 279.544472 
L 341.975056 279.544472 
L 342.207617 278.543203 
L 342.207617 278.543203 
L 342.440177 279.12781 
L 342.440177 279.12781 
L 342.672738 276.431902 
L 342.672738 276.431902 
L 342.905298 277.560328 
L 342.905298 277.560328 
L 343.137859 276.307143 
L 343.137859 276.307143 
L 343.370419 277.271624 
L 343.370419 277.271624 
L 343.60298 279.051036 
L 343.60298 279.051036 
L 343.835541 277.226039 
L 343.835541 277.226039 
L 344.068101 278.246502 
L 344.068101 278.246502 
L 344.300662 276.729403 
L 344.300662 276.729403 
L 344.533222 276.970923 
L 344.533222 276.970923 
L 344.765783 277.76666 
L 344.765783 277.76666 
L 344.998343 275.344261 
L 344.998343 275.344261 
L 345.230904 275.425834 
L 345.230904 275.425834 
L 345.463464 273.548855 
L 345.463464 273.548855 
L 345.696025 273.121796 
L 345.696025 273.121796 
L 345.928586 273.390507 
L 345.928586 273.390507 
L 346.161146 271.351981 
L 346.161146 271.351981 
L 346.393707 271.540719 
L 346.393707 271.540719 
L 346.626267 272.59637 
L 346.626267 272.59637 
L 346.858828 271.08567 
L 346.858828 271.08567 
L 347.091388 272.318062 
L 347.091388 272.318062 
L 347.323949 272.102133 
L 347.323949 272.102133 
L 347.55651 273.608835 
L 347.55651 273.608835 
L 347.78907 275.928068 
L 347.78907 275.928068 
L 348.021631 276.251161 
L 348.021631 276.251161 
L 348.254191 278.803117 
L 348.254191 278.803117 
L 348.486752 279.858768 
L 348.486752 279.858768 
L 349.416994 289.417208 
L 349.416994 289.417208 
L 349.649555 290.444868 
L 349.649555 290.444868 
L 349.882115 292.869666 
L 349.882115 292.869666 
L 350.114676 293.283929 
L 350.114676 293.283929 
L 350.347236 294.835416 
L 350.347236 294.835416 
L 350.579797 295.488 
L 350.579797 295.488 
L 350.812357 295.012957 
L 350.812357 295.012957 
L 351.044918 295.488 
L 351.044918 295.488 
L 351.277479 292.268265 
L 351.277479 292.268265 
L 351.510039 290.908714 
L 351.510039 290.908714 
L 352.440281 279.797189 
L 352.440281 279.797189 
L 352.905402 269.434216 
L 352.905402 269.434216 
L 353.370524 255.422849 
L 353.370524 255.422849 
L 353.603084 243.80909 
L 353.603084 243.80909 
L 354.068205 230.281563 
L 354.068205 230.281563 
L 354.300766 218.543045 
L 354.300766 218.543045 
L 354.533326 213.96056 
L 354.533326 213.96056 
L 354.765887 201.323939 
L 354.765887 201.323939 
L 354.998448 200.277085 
L 354.998448 200.277085 
L 355.231008 187.68125 
L 355.231008 187.68125 
L 355.463569 188.693716 
L 355.463569 188.693716 
L 355.696129 186.667985 
L 355.696129 186.667985 
L 355.92869 176.878423 
L 355.92869 176.878423 
L 356.16125 175.784385 
L 356.16125 175.784385 
L 356.393811 164.164227 
L 356.393811 164.164227 
L 356.626371 164.375357 
L 356.858932 161.943362 
L 356.858932 161.943362 
L 357.091493 152.259364 
L 357.091493 152.259364 
L 357.324053 151.115742 
L 357.324053 151.115742 
L 357.556614 147.988776 
L 357.556614 147.988776 
L 357.789174 141.163033 
L 357.789174 141.163033 
L 358.021735 140.564831 
L 358.021735 140.564831 
L 358.254295 133.474376 
L 358.254295 133.474376 
L 358.719417 140.248136 
L 358.719417 140.248136 
L 358.951977 139.980225 
L 358.951977 139.980225 
L 359.184538 147.239424 
L 359.184538 147.239424 
L 359.417098 146.634824 
L 359.417098 146.634824 
L 359.882219 164.554498 
L 359.882219 164.554498 
L 360.11478 165.874861 
L 360.11478 165.874861 
L 360.34734 174.034563 
L 360.34734 174.034563 
L 360.579901 171.579375 
L 360.579901 171.579375 
L 360.812462 179.291225 
L 360.812462 179.291225 
L 361.045022 183.201932 
L 361.045022 183.201932 
L 361.277583 178.665832 
L 361.277583 178.665832 
L 361.510143 181.304959 
L 361.510143 181.304959 
L 361.742704 171.193903 
L 361.742704 171.193903 
L 361.975264 172.727795 
L 361.975264 172.727795 
L 362.207825 170.222224 
L 362.207825 170.222224 
L 362.440386 158.099033 
L 362.440386 158.099033 
L 362.672946 155.100025 
L 362.672946 155.100025 
L 362.905507 148.941261 
L 362.905507 148.941261 
L 363.138067 137.294713 
L 363.138067 137.294713 
L 363.370628 133.168077 
L 363.370628 133.168077 
L 363.603188 121.112864 
L 363.603188 121.112864 
L 363.835749 121.338389 
L 363.835749 121.338389 
L 364.068309 120.744186 
L 364.068309 120.744186 
L 364.30087 117.153373 
L 364.30087 117.153373 
L 364.533431 122.194906 
L 364.533431 122.194906 
L 364.765991 121.120061 
L 364.765991 121.120061 
L 364.998552 132.266775 
L 364.998552 132.266775 
L 365.231112 134.755552 
L 365.231112 134.755552 
L 365.696233 166.063599 
L 365.696233 166.063599 
L 365.928794 175.812375 
L 365.928794 175.812375 
L 366.393915 202.625109 
L 366.393915 202.625109 
L 366.859036 229.660968 
L 366.859036 229.660968 
L 367.556718 251.021904 
L 367.556718 251.021904 
L 368.021839 257.026319 
L 368.021839 257.026319 
L 368.952081 261.77035 
L 368.952081 261.77035 
L 369.417202 265.454732 
L 369.417202 265.454732 
L 370.114884 275.10514 
L 370.114884 275.10514 
L 370.812566 284.853117 
L 370.812566 284.853117 
L 371.277687 288.824604 
L 371.277687 288.824604 
L 371.510247 289.19728 
L 371.510247 289.19728 
L 371.742808 295.488 
L 371.742808 295.488 
L 371.975369 289.299646 
L 371.975369 289.299646 
L 372.44049 286.641325 
L 372.44049 286.641325 
L 373.603293 273.447289 
L 373.603293 273.447289 
L 373.835853 272.126925 
L 373.835853 272.126925 
L 374.068414 269.032748 
L 374.068414 269.032748 
L 374.300974 268.63528 
L 374.300974 268.63528 
L 374.533535 266.512782 
L 374.533535 266.512782 
L 374.766095 267.371698 
L 374.766095 267.371698 
L 374.998656 266.63914 
L 374.998656 266.63914 
L 375.231216 269.013555 
L 375.231216 269.013555 
L 375.463777 269.994031 
L 375.463777 269.994031 
L 375.928898 276.237566 
L 375.928898 276.237566 
L 376.161459 276.940533 
L 376.161459 276.940533 
L 376.394019 284.290103 
L 376.62658 285.637657 
L 376.62658 285.637657 
L 376.85914 292.876064 
L 377.091701 293.70299 
L 377.324262 290.996685 
L 377.324262 290.996685 
L 377.556822 291.294187 
L 377.556822 291.294187 
L 377.789383 286.608536 
L 377.789383 286.608536 
L 378.021943 288.626269 
L 378.021943 288.626269 
L 378.254504 286.027928 
L 378.254504 286.027928 
L 378.487064 290.192951 
L 378.487064 290.192951 
L 378.719625 289.793883 
L 378.719625 289.793883 
L 378.952185 295.283268 
L 378.952185 295.283268 
L 379.184746 294.498727 
L 379.184746 294.498727 
L 379.417307 288.069653 
L 379.649867 287.615403 
L 379.649867 287.615403 
L 379.882428 281.893296 
L 379.882428 281.893296 
L 380.114988 282.859376 
L 380.114988 282.859376 
L 380.347549 279.583659 
L 380.347549 279.583659 
L 380.580109 283.137684 
L 380.81267 283.923024 
L 380.81267 283.923024 
L 381.277791 293.520651 
L 381.277791 293.520651 
L 381.510352 290.491252 
L 381.510352 290.491252 
L 381.975473 280.645708 
L 381.975473 280.645708 
L 382.440594 267.406886 
L 382.440594 267.406886 
L 382.905715 256.249776 
L 382.905715 256.249776 
L 383.370836 248.413967 
L 383.370836 248.413967 
L 383.835957 245.412559 
L 383.835957 245.412559 
L 384.301078 247.561449 
L 384.301078 247.561449 
L 384.533639 249.429631 
L 384.533639 249.429631 
L 386.161563 280.437777 
L 386.161563 280.437777 
L 386.859245 294.101259 
L 386.859245 294.101259 
L 387.091805 292.67533 
L 387.091805 292.67533 
L 388.022047 280.089092 
L 388.022047 280.089092 
L 388.719729 274.184645 
L 388.719729 274.184645 
L 388.95229 274.223832 
L 388.95229 274.223832 
L 389.18485 274.005504 
L 389.417411 274.123065 
L 389.417411 274.123065 
L 389.649971 274.762854 
L 389.649971 274.762854 
L 390.580214 285.106633 
L 390.580214 285.106633 
L 391.045335 293.463869 
L 391.045335 293.463869 
L 391.277895 293.471067 
L 391.277895 293.471067 
L 393.37094 257.95961 
L 393.37094 257.95961 
L 393.836061 253.318745 
L 393.836061 253.318745 
L 394.301183 250.726802 
L 394.301183 250.726802 
L 394.533743 250.111006 
L 394.533743 250.111006 
L 394.766304 249.959056 
L 394.766304 249.959056 
L 394.998864 250.27975 
L 395.463985 253.554667 
L 395.463985 253.554667 
L 395.929107 259.005664 
L 395.929107 259.005664 
L 396.161667 262.970753 
L 396.161667 262.970753 
L 396.859349 282.390731 
L 396.859349 282.390731 
L 397.091909 290.960697 
L 397.091909 290.960697 
L 397.32447 289.417208 
L 397.32447 289.417208 
L 398.022152 253.21398 
L 398.022152 253.21398 
L 398.487273 213.976555 
L 398.487273 213.976555 
" clip-path="url(#p530648a89c)" style="fill: none; stroke: #1f77b4; stroke-width: 1.5; stroke-linecap: square"/>
   </g>
   <g id="patch_3">
    <path d="M 57.6 307.584 
L 57.6 41.472 
" style="fill: none; stroke: #000000; stroke-width: 0.8; stroke-linejoin: miter; stroke-linecap: square"/>
   </g>
   <g id="patch_4">
    <path d="M 414.72 307.584 
L 414.72 41.472 
" style="fill: none; stroke: #000000; stroke-width: 0.8; stroke-linejoin: miter; stroke-linecap: square"/>
   </g>
   <g id="patch_5">
    <path d="M 57.6 307.584 
L 414.72 307.584 
" style="fill: none; stroke: #000000; stroke-width: 0.8; stroke-linejoin: miter; stroke-linecap: square"/>
   </g>
   <g id="patch_6">
    <path d="M 57.6 41.472 
L 414.72 41.472 
" style="fill: none; stroke: #000000; stroke-width: 0.8; stroke-linejoin: miter; stroke-linecap: square"/>
   </g>
   <g id="text_16">
    <!-- Tracking error vs Time -->
    <g transform="translate(169.584375 35.472) scale(0.12 -0.12)">
     <defs>
      <path id="DejaVuSans-76" d="M 191 3500 
L 800 3500 
L 1894 563 
L 2988 3500 
L 3597 3500 
L 2284 0 
L 1503 0 
L 191 3500 
z
" transform="scale(0.015625)"/>
     </defs>
     <use xlink:href="#DejaVuSans-54"/>
     <use xlink:href="#DejaVuSans-72" x="46.333984"/>
     <use xlink:href="#DejaVuSans-61" x="87.447266"/>
     <use xlink:href="#DejaVuSans-63" x="148.726562"/>
     <use xlink:href="#DejaVuSans-6b" x="203.707031"/>
     <use xlink:href="#DejaVuSans-69" x="261.617188"/>
     <use xlink:href="#DejaVuSans-6e" x="289.400391"/>
     <use xlink:href="#DejaVuSans-67" x="352.779297"/>
     <use xlink:href="#DejaVuSans-20" x="416.255859"/>
     <use xlink:href="#DejaVuSans-65" x="448.042969"/>
     <use xlink:href="#DejaVuSans-72" x="509.566406"/>
     <use xlink:href="#DejaVuSans-72" x="548.929688"/>
     <use xlink:href="#DejaVuSans-6f" x="587.792969"/>
     <use xlink:href="#DejaVuSans-72" x="648.974609"/>
     <use xlink:href="#DejaVuSans-20" x="690.087891"/>
     <use xlink:href="#DejaVuSans-76" x="721.875"/>
     <use xlink:href="#DejaVuSans-73" x="781.054688"/>
     <use xlink:href="#DejaVuSans-20" x="833.154297"/>
     <use xlink:href="#DejaVuSans-54" x="864.941406"/>
     <use xlink:href="#DejaVuSans-69" x="922.900391"/>
     <use xlink:href="#DejaVuSans-6d" x="950.683594"/>
     <use xlink:href="#DejaVuSans-65" x="1048.095703"/>
    </g>
   </g>
   <g id="legend_1">
    <g id="patch_7">
     <path d="M 311.00125 64.150125 
L 407.72 64.150125 
Q 409.72 64.150125 409.72 62.150125 
L 409.72 48.472 
Q 409.72 46.472 407.72 46.472 
L 311.00125 46.472 
Q 309.00125 46.472 309.00125 48.472 
L 309.00125 62.150125 
Q 309.00125 64.150125 311.00125 64.150125 
z
" style="fill: #ffffff; opacity: 0.8; stroke: #cccccc; stroke-linejoin: miter"/>
    </g>
    <g id="line2d_28">
     <path d="M 313.00125 54.570438 
L 323.00125 54.570438 
L 333.00125 54.570438 
" style="fill: none; stroke: #1f77b4; stroke-width: 1.5; stroke-linecap: square"/>
    </g>
    <g id="text_17">
     <!-- Actual speed -->
     <g transform="translate(341.00125 58.070438) scale(0.1 -0.1)">
      <defs>
       <path id="DejaVuSans-41" d="M 2188 4044 
L 1331 1722 
L 3047 1722 
L 2188 4044 
z
M 1831 4666 
L 2547 4666 
L 4325 0 
L 3669 0 
L 3244 1197 
L 1141 1197 
L 716 0 
L 50 0 
L 1831 4666 
z
" transform="scale(0.015625)"/>
       <path id="DejaVuSans-74" d="M 1172 4494 
L 1172 3500 
L 2356 3500 
L 2356 3053 
L 1172 3053 
L 1172 1153 
Q 1172 725 1289 603 
Q 1406 481 1766 481 
L 2356 481 
L 2356 0 
L 1766 0 
Q 1100 0 847 248 
Q 594 497 594 1153 
L 594 3053 
L 172 3053 
L 172 3500 
L 594 3500 
L 594 4494 
L 1172 4494 
z
" transform="scale(0.015625)"/>
       <path id="DejaVuSans-75" d="M 544 1381 
L 544 3500 
L 1119 3500 
L 1119 1403 
Q 1119 906 1312 657 
Q 1506 409 1894 409 
Q 2359 409 2629 706 
Q 2900 1003 2900 1516 
L 2900 3500 
L 3475 3500 
L 3475 0 
L 2900 0 
L 2900 538 
Q 2691 219 2414 64 
Q 2138 -91 1772 -91 
Q 1169 -91 856 284 
Q 544 659 544 1381 
z
M 1991 3584 
L 1991 3584 
z
" transform="scale(0.015625)"/>
       <path id="DejaVuSans-6c" d="M 603 4863 
L 1178 4863 
L 1178 0 
L 603 0 
L 603 4863 
z
" transform="scale(0.015625)"/>
       <path id="DejaVuSans-70" d="M 1159 525 
L 1159 -1331 
L 581 -1331 
L 581 3500 
L 1159 3500 
L 1159 2969 
Q 1341 3281 1617 3432 
Q 1894 3584 2278 3584 
Q 2916 3584 3314 3078 
Q 3713 2572 3713 1747 
Q 3713 922 3314 415 
Q 2916 -91 2278 -91 
Q 1894 -91 1617 61 
Q 1341 213 1159 525 
z
M 3116 1747 
Q 3116 2381 2855 2742 
Q 2594 3103 2138 3103 
Q 1681 3103 1420 2742 
Q 1159 2381 1159 1747 
Q 1159 1113 1420 752 
Q 1681 391 2138 391 
Q 2594 391 2855 752 
Q 3116 1113 3116 1747 
z
" transform="scale(0.015625)"/>
       <path id="DejaVuSans-64" d="M 2906 2969 
L 2906 4863 
L 3481 4863 
L 3481 0 
L 2906 0 
L 2906 525 
Q 2725 213 2448 61 
Q 2172 -91 1784 -91 
Q 1150 -91 751 415 
Q 353 922 353 1747 
Q 353 2572 751 3078 
Q 1150 3584 1784 3584 
Q 2172 3584 2448 3432 
Q 2725 3281 2906 2969 
z
M 947 1747 
Q 947 1113 1208 752 
Q 1469 391 1925 391 
Q 2381 391 2643 752 
Q 2906 1113 2906 1747 
Q 2906 2381 2643 2742 
Q 2381 3103 1925 3103 
Q 1469 3103 1208 2742 
Q 947 2381 947 1747 
z
" transform="scale(0.015625)"/>
      </defs>
      <use xlink:href="#DejaVuSans-41"/>
      <use xlink:href="#DejaVuSans-63" x="66.658203"/>
      <use xlink:href="#DejaVuSans-74" x="121.638672"/>
      <use xlink:href="#DejaVuSans-75" x="160.847656"/>
      <use xlink:href="#DejaVuSans-61" x="224.226562"/>
      <use xlink:href="#DejaVuSans-6c" x="285.505859"/>
      <use xlink:href="#DejaVuSans-20" x="313.289062"/>
      <use xlink:href="#DejaVuSans-73" x="345.076172"/>
      <use xlink:href="#DejaVuSans-70" x="397.175781"/>
      <use xlink:href="#DejaVuSans-65" x="460.652344"/>
      <use xlink:href="#DejaVuSans-65" x="522.175781"/>
      <use xlink:href="#DejaVuSans-64" x="583.699219"/>
     </g>
    </g>
   </g>
  </g>
 </g>
 <defs>
  <clipPath id="p530648a89c">
   <rect x="57.6" y="41.472" width="357.12" height="266.112"/>
  </clipPath>
 </defs>
</svg>
