<?xml version="1.0" encoding="utf-8" standalone="no"?>
<!DOCTYPE svg PUBLIC "-//W3C//DTD SVG 1.1//EN"
  "http://www.w3.org/Graphics/SVG/1.1/DTD/svg11.dtd">
<svg xmlns:xlink="http://www.w3.org/1999/xlink" width="460.8pt" height="345.6pt" viewBox="0 0 460.8 345.6" xmlns="http://www.w3.org/2000/svg" version="1.1">
 <metadata>
  <rdf:RDF xmlns:dc="http://purl.org/dc/elements/1.1/" xmlns:cc="http://creativecommons.org/ns#" xmlns:rdf="http://www.w3.org/1999/02/22-rdf-syntax-ns#">
   <cc:Work>
    <dc:type rdf:resource="http://purl.org/dc/dcmitype/StillImage"/>
    <dc:date>2024-01-30T20:59:33.246507</dc:date>
    <dc:format>image/svg+xml</dc:format>
    <dc:creator>
     <cc:Agent>
      <dc:title>Matplotlib v3.7.1, https://matplotlib.org/</dc:title>
     </cc:Agent>
    </dc:creator>
   </cc:Work>
  </rdf:RDF>
 </metadata>
 <defs>
  <style type="text/css">*{stroke-linejoin: round; stroke-linecap: butt}</style>
 </defs>
 <g id="figure_1">
  <g id="patch_1">
   <path d="M 0 345.6 
L 460.8 345.6 
L 460.8 0 
L 0 0 
z
" style="fill: #ffffff"/>
  </g>
  <g id="axes_1">
   <g id="patch_2">
    <path d="M 57.6 307.584 
L 414.72 307.584 
L 414.72 41.472 
L 57.6 41.472 
z
" style="fill: #ffffff"/>
   </g>
   <g id="matplotlib.axis_1">
    <g id="xtick_1">
     <g id="line2d_1">
      <path d="M 73.832727 307.584 
L 73.832727 41.472 
" clip-path="url(#pa77aed0d80)" style="fill: none; stroke: #b0b0b0; stroke-width: 0.8; stroke-linecap: square"/>
     </g>
     <g id="line2d_2">
      <defs>
       <path id="m54545e632a" d="M 0 0 
L 0 3.5 
" style="stroke: #000000; stroke-width: 0.8"/>
      </defs>
      <g>
       <use xlink:href="#m54545e632a" x="73.832727" y="307.584" style="stroke: #000000; stroke-width: 0.8"/>
      </g>
     </g>
     <g id="text_1">
      <!-- 0 -->
      <g transform="translate(70.651477 322.182437) scale(0.1 -0.1)">
       <defs>
        <path id="DejaVuSans-30" d="M 2034 4250 
Q 1547 4250 1301 3770 
Q 1056 3291 1056 2328 
Q 1056 1369 1301 889 
Q 1547 409 2034 409 
Q 2525 409 2770 889 
Q 3016 1369 3016 2328 
Q 3016 3291 2770 3770 
Q 2525 4250 2034 4250 
z
M 2034 4750 
Q 2819 4750 3233 4129 
Q 3647 3509 3647 2328 
Q 3647 1150 3233 529 
Q 2819 -91 2034 -91 
Q 1250 -91 836 529 
Q 422 1150 422 2328 
Q 422 3509 836 4129 
Q 1250 4750 2034 4750 
z
" transform="scale(0.015625)"/>
       </defs>
       <use xlink:href="#DejaVuSans-30"/>
      </g>
     </g>
    </g>
    <g id="xtick_2">
     <g id="line2d_3">
      <path d="M 131.848193 307.584 
L 131.848193 41.472 
" clip-path="url(#pa77aed0d80)" style="fill: none; stroke: #b0b0b0; stroke-width: 0.8; stroke-linecap: square"/>
     </g>
     <g id="line2d_4">
      <g>
       <use xlink:href="#m54545e632a" x="131.848193" y="307.584" style="stroke: #000000; stroke-width: 0.8"/>
      </g>
     </g>
     <g id="text_2">
      <!-- 5 -->
      <g transform="translate(128.666943 322.182437) scale(0.1 -0.1)">
       <defs>
        <path id="DejaVuSans-35" d="M 691 4666 
L 3169 4666 
L 3169 4134 
L 1269 4134 
L 1269 2991 
Q 1406 3038 1543 3061 
Q 1681 3084 1819 3084 
Q 2600 3084 3056 2656 
Q 3513 2228 3513 1497 
Q 3513 744 3044 326 
Q 2575 -91 1722 -91 
Q 1428 -91 1123 -41 
Q 819 9 494 109 
L 494 744 
Q 775 591 1075 516 
Q 1375 441 1709 441 
Q 2250 441 2565 725 
Q 2881 1009 2881 1497 
Q 2881 1984 2565 2268 
Q 2250 2553 1709 2553 
Q 1456 2553 1204 2497 
Q 953 2441 691 2322 
L 691 4666 
z
" transform="scale(0.015625)"/>
       </defs>
       <use xlink:href="#DejaVuSans-35"/>
      </g>
     </g>
    </g>
    <g id="xtick_3">
     <g id="line2d_5">
      <path d="M 189.863658 307.584 
L 189.863658 41.472 
" clip-path="url(#pa77aed0d80)" style="fill: none; stroke: #b0b0b0; stroke-width: 0.8; stroke-linecap: square"/>
     </g>
     <g id="line2d_6">
      <g>
       <use xlink:href="#m54545e632a" x="189.863658" y="307.584" style="stroke: #000000; stroke-width: 0.8"/>
      </g>
     </g>
     <g id="text_3">
      <!-- 10 -->
      <g transform="translate(183.501158 322.182437) scale(0.1 -0.1)">
       <defs>
        <path id="DejaVuSans-31" d="M 794 531 
L 1825 531 
L 1825 4091 
L 703 3866 
L 703 4441 
L 1819 4666 
L 2450 4666 
L 2450 531 
L 3481 531 
L 3481 0 
L 794 0 
L 794 531 
z
" transform="scale(0.015625)"/>
       </defs>
       <use xlink:href="#DejaVuSans-31"/>
       <use xlink:href="#DejaVuSans-30" x="63.623047"/>
      </g>
     </g>
    </g>
    <g id="xtick_4">
     <g id="line2d_7">
      <path d="M 247.879124 307.584 
L 247.879124 41.472 
" clip-path="url(#pa77aed0d80)" style="fill: none; stroke: #b0b0b0; stroke-width: 0.8; stroke-linecap: square"/>
     </g>
     <g id="line2d_8">
      <g>
       <use xlink:href="#m54545e632a" x="247.879124" y="307.584" style="stroke: #000000; stroke-width: 0.8"/>
      </g>
     </g>
     <g id="text_4">
      <!-- 15 -->
      <g transform="translate(241.516624 322.182437) scale(0.1 -0.1)">
       <use xlink:href="#DejaVuSans-31"/>
       <use xlink:href="#DejaVuSans-35" x="63.623047"/>
      </g>
     </g>
    </g>
    <g id="xtick_5">
     <g id="line2d_9">
      <path d="M 305.89459 307.584 
L 305.89459 41.472 
" clip-path="url(#pa77aed0d80)" style="fill: none; stroke: #b0b0b0; stroke-width: 0.8; stroke-linecap: square"/>
     </g>
     <g id="line2d_10">
      <g>
       <use xlink:href="#m54545e632a" x="305.89459" y="307.584" style="stroke: #000000; stroke-width: 0.8"/>
      </g>
     </g>
     <g id="text_5">
      <!-- 20 -->
      <g transform="translate(299.53209 322.182437) scale(0.1 -0.1)">
       <defs>
        <path id="DejaVuSans-32" d="M 1228 531 
L 3431 531 
L 3431 0 
L 469 0 
L 469 531 
Q 828 903 1448 1529 
Q 2069 2156 2228 2338 
Q 2531 2678 2651 2914 
Q 2772 3150 2772 3378 
Q 2772 3750 2511 3984 
Q 2250 4219 1831 4219 
Q 1534 4219 1204 4116 
Q 875 4013 500 3803 
L 500 4441 
Q 881 4594 1212 4672 
Q 1544 4750 1819 4750 
Q 2544 4750 2975 4387 
Q 3406 4025 3406 3419 
Q 3406 3131 3298 2873 
Q 3191 2616 2906 2266 
Q 2828 2175 2409 1742 
Q 1991 1309 1228 531 
z
" transform="scale(0.015625)"/>
       </defs>
       <use xlink:href="#DejaVuSans-32"/>
       <use xlink:href="#DejaVuSans-30" x="63.623047"/>
      </g>
     </g>
    </g>
    <g id="xtick_6">
     <g id="line2d_11">
      <path d="M 363.910055 307.584 
L 363.910055 41.472 
" clip-path="url(#pa77aed0d80)" style="fill: none; stroke: #b0b0b0; stroke-width: 0.8; stroke-linecap: square"/>
     </g>
     <g id="line2d_12">
      <g>
       <use xlink:href="#m54545e632a" x="363.910055" y="307.584" style="stroke: #000000; stroke-width: 0.8"/>
      </g>
     </g>
     <g id="text_6">
      <!-- 25 -->
      <g transform="translate(357.547555 322.182437) scale(0.1 -0.1)">
       <use xlink:href="#DejaVuSans-32"/>
       <use xlink:href="#DejaVuSans-35" x="63.623047"/>
      </g>
     </g>
    </g>
    <g id="text_7">
     <!-- Time(s) -->
     <g transform="translate(217.420156 335.860562) scale(0.1 -0.1)">
      <defs>
       <path id="DejaVuSans-54" d="M -19 4666 
L 3928 4666 
L 3928 4134 
L 2272 4134 
L 2272 0 
L 1638 0 
L 1638 4134 
L -19 4134 
L -19 4666 
z
" transform="scale(0.015625)"/>
       <path id="DejaVuSans-69" d="M 603 3500 
L 1178 3500 
L 1178 0 
L 603 0 
L 603 3500 
z
M 603 4863 
L 1178 4863 
L 1178 4134 
L 603 4134 
L 603 4863 
z
" transform="scale(0.015625)"/>
       <path id="DejaVuSans-6d" d="M 3328 2828 
Q 3544 3216 3844 3400 
Q 4144 3584 4550 3584 
Q 5097 3584 5394 3201 
Q 5691 2819 5691 2113 
L 5691 0 
L 5113 0 
L 5113 2094 
Q 5113 2597 4934 2840 
Q 4756 3084 4391 3084 
Q 3944 3084 3684 2787 
Q 3425 2491 3425 1978 
L 3425 0 
L 2847 0 
L 2847 2094 
Q 2847 2600 2669 2842 
Q 2491 3084 2119 3084 
Q 1678 3084 1418 2786 
Q 1159 2488 1159 1978 
L 1159 0 
L 581 0 
L 581 3500 
L 1159 3500 
L 1159 2956 
Q 1356 3278 1631 3431 
Q 1906 3584 2284 3584 
Q 2666 3584 2933 3390 
Q 3200 3197 3328 2828 
z
" transform="scale(0.015625)"/>
       <path id="DejaVuSans-65" d="M 3597 1894 
L 3597 1613 
L 953 1613 
Q 991 1019 1311 708 
Q 1631 397 2203 397 
Q 2534 397 2845 478 
Q 3156 559 3463 722 
L 3463 178 
Q 3153 47 2828 -22 
Q 2503 -91 2169 -91 
Q 1331 -91 842 396 
Q 353 884 353 1716 
Q 353 2575 817 3079 
Q 1281 3584 2069 3584 
Q 2775 3584 3186 3129 
Q 3597 2675 3597 1894 
z
M 3022 2063 
Q 3016 2534 2758 2815 
Q 2500 3097 2075 3097 
Q 1594 3097 1305 2825 
Q 1016 2553 972 2059 
L 3022 2063 
z
" transform="scale(0.015625)"/>
       <path id="DejaVuSans-28" d="M 1984 4856 
Q 1566 4138 1362 3434 
Q 1159 2731 1159 2009 
Q 1159 1288 1364 580 
Q 1569 -128 1984 -844 
L 1484 -844 
Q 1016 -109 783 600 
Q 550 1309 550 2009 
Q 550 2706 781 3412 
Q 1013 4119 1484 4856 
L 1984 4856 
z
" transform="scale(0.015625)"/>
       <path id="DejaVuSans-73" d="M 2834 3397 
L 2834 2853 
Q 2591 2978 2328 3040 
Q 2066 3103 1784 3103 
Q 1356 3103 1142 2972 
Q 928 2841 928 2578 
Q 928 2378 1081 2264 
Q 1234 2150 1697 2047 
L 1894 2003 
Q 2506 1872 2764 1633 
Q 3022 1394 3022 966 
Q 3022 478 2636 193 
Q 2250 -91 1575 -91 
Q 1294 -91 989 -36 
Q 684 19 347 128 
L 347 722 
Q 666 556 975 473 
Q 1284 391 1588 391 
Q 1994 391 2212 530 
Q 2431 669 2431 922 
Q 2431 1156 2273 1281 
Q 2116 1406 1581 1522 
L 1381 1569 
Q 847 1681 609 1914 
Q 372 2147 372 2553 
Q 372 3047 722 3315 
Q 1072 3584 1716 3584 
Q 2034 3584 2315 3537 
Q 2597 3491 2834 3397 
z
" transform="scale(0.015625)"/>
       <path id="DejaVuSans-29" d="M 513 4856 
L 1013 4856 
Q 1481 4119 1714 3412 
Q 1947 2706 1947 2009 
Q 1947 1309 1714 600 
Q 1481 -109 1013 -844 
L 513 -844 
Q 928 -128 1133 580 
Q 1338 1288 1338 2009 
Q 1338 2731 1133 3434 
Q 928 4138 513 4856 
z
" transform="scale(0.015625)"/>
      </defs>
      <use xlink:href="#DejaVuSans-54"/>
      <use xlink:href="#DejaVuSans-69" x="57.958984"/>
      <use xlink:href="#DejaVuSans-6d" x="85.742188"/>
      <use xlink:href="#DejaVuSans-65" x="183.154297"/>
      <use xlink:href="#DejaVuSans-28" x="244.677734"/>
      <use xlink:href="#DejaVuSans-73" x="283.691406"/>
      <use xlink:href="#DejaVuSans-29" x="335.791016"/>
     </g>
    </g>
   </g>
   <g id="matplotlib.axis_2">
    <g id="ytick_1">
     <g id="line2d_13">
      <path d="M 57.6 295.488 
L 414.72 295.488 
" clip-path="url(#pa77aed0d80)" style="fill: none; stroke: #b0b0b0; stroke-width: 0.8; stroke-linecap: square"/>
     </g>
     <g id="line2d_14">
      <defs>
       <path id="md851b688e8" d="M 0 0 
L -3.5 0 
" style="stroke: #000000; stroke-width: 0.8"/>
      </defs>
      <g>
       <use xlink:href="#md851b688e8" x="57.6" y="295.488" style="stroke: #000000; stroke-width: 0.8"/>
      </g>
     </g>
     <g id="text_8">
      <!-- 0.00 -->
      <g transform="translate(28.334375 299.287219) scale(0.1 -0.1)">
       <defs>
        <path id="DejaVuSans-2e" d="M 684 794 
L 1344 794 
L 1344 0 
L 684 0 
L 684 794 
z
" transform="scale(0.015625)"/>
       </defs>
       <use xlink:href="#DejaVuSans-30"/>
       <use xlink:href="#DejaVuSans-2e" x="63.623047"/>
       <use xlink:href="#DejaVuSans-30" x="95.410156"/>
       <use xlink:href="#DejaVuSans-30" x="159.033203"/>
      </g>
     </g>
    </g>
    <g id="ytick_2">
     <g id="line2d_15">
      <path d="M 57.6 257.22175 
L 414.72 257.22175 
" clip-path="url(#pa77aed0d80)" style="fill: none; stroke: #b0b0b0; stroke-width: 0.8; stroke-linecap: square"/>
     </g>
     <g id="line2d_16">
      <g>
       <use xlink:href="#md851b688e8" x="57.6" y="257.22175" style="stroke: #000000; stroke-width: 0.8"/>
      </g>
     </g>
     <g id="text_9">
      <!-- 0.05 -->
      <g transform="translate(28.334375 261.020968) scale(0.1 -0.1)">
       <use xlink:href="#DejaVuSans-30"/>
       <use xlink:href="#DejaVuSans-2e" x="63.623047"/>
       <use xlink:href="#DejaVuSans-30" x="95.410156"/>
       <use xlink:href="#DejaVuSans-35" x="159.033203"/>
      </g>
     </g>
    </g>
    <g id="ytick_3">
     <g id="line2d_17">
      <path d="M 57.6 218.955499 
L 414.72 218.955499 
" clip-path="url(#pa77aed0d80)" style="fill: none; stroke: #b0b0b0; stroke-width: 0.8; stroke-linecap: square"/>
     </g>
     <g id="line2d_18">
      <g>
       <use xlink:href="#md851b688e8" x="57.6" y="218.955499" style="stroke: #000000; stroke-width: 0.8"/>
      </g>
     </g>
     <g id="text_10">
      <!-- 0.10 -->
      <g transform="translate(28.334375 222.754718) scale(0.1 -0.1)">
       <use xlink:href="#DejaVuSans-30"/>
       <use xlink:href="#DejaVuSans-2e" x="63.623047"/>
       <use xlink:href="#DejaVuSans-31" x="95.410156"/>
       <use xlink:href="#DejaVuSans-30" x="159.033203"/>
      </g>
     </g>
    </g>
    <g id="ytick_4">
     <g id="line2d_19">
      <path d="M 57.6 180.689249 
L 414.72 180.689249 
" clip-path="url(#pa77aed0d80)" style="fill: none; stroke: #b0b0b0; stroke-width: 0.8; stroke-linecap: square"/>
     </g>
     <g id="line2d_20">
      <g>
       <use xlink:href="#md851b688e8" x="57.6" y="180.689249" style="stroke: #000000; stroke-width: 0.8"/>
      </g>
     </g>
     <g id="text_11">
      <!-- 0.15 -->
      <g transform="translate(28.334375 184.488468) scale(0.1 -0.1)">
       <use xlink:href="#DejaVuSans-30"/>
       <use xlink:href="#DejaVuSans-2e" x="63.623047"/>
       <use xlink:href="#DejaVuSans-31" x="95.410156"/>
       <use xlink:href="#DejaVuSans-35" x="159.033203"/>
      </g>
     </g>
    </g>
    <g id="ytick_5">
     <g id="line2d_21">
      <path d="M 57.6 142.422999 
L 414.72 142.422999 
" clip-path="url(#pa77aed0d80)" style="fill: none; stroke: #b0b0b0; stroke-width: 0.8; stroke-linecap: square"/>
     </g>
     <g id="line2d_22">
      <g>
       <use xlink:href="#md851b688e8" x="57.6" y="142.422999" style="stroke: #000000; stroke-width: 0.8"/>
      </g>
     </g>
     <g id="text_12">
      <!-- 0.20 -->
      <g transform="translate(28.334375 146.222217) scale(0.1 -0.1)">
       <use xlink:href="#DejaVuSans-30"/>
       <use xlink:href="#DejaVuSans-2e" x="63.623047"/>
       <use xlink:href="#DejaVuSans-32" x="95.410156"/>
       <use xlink:href="#DejaVuSans-30" x="159.033203"/>
      </g>
     </g>
    </g>
    <g id="ytick_6">
     <g id="line2d_23">
      <path d="M 57.6 104.156748 
L 414.72 104.156748 
" clip-path="url(#pa77aed0d80)" style="fill: none; stroke: #b0b0b0; stroke-width: 0.8; stroke-linecap: square"/>
     </g>
     <g id="line2d_24">
      <g>
       <use xlink:href="#md851b688e8" x="57.6" y="104.156748" style="stroke: #000000; stroke-width: 0.8"/>
      </g>
     </g>
     <g id="text_13">
      <!-- 0.25 -->
      <g transform="translate(28.334375 107.955967) scale(0.1 -0.1)">
       <use xlink:href="#DejaVuSans-30"/>
       <use xlink:href="#DejaVuSans-2e" x="63.623047"/>
       <use xlink:href="#DejaVuSans-32" x="95.410156"/>
       <use xlink:href="#DejaVuSans-35" x="159.033203"/>
      </g>
     </g>
    </g>
    <g id="ytick_7">
     <g id="line2d_25">
      <path d="M 57.6 65.890498 
L 414.72 65.890498 
" clip-path="url(#pa77aed0d80)" style="fill: none; stroke: #b0b0b0; stroke-width: 0.8; stroke-linecap: square"/>
     </g>
     <g id="line2d_26">
      <g>
       <use xlink:href="#md851b688e8" x="57.6" y="65.890498" style="stroke: #000000; stroke-width: 0.8"/>
      </g>
     </g>
     <g id="text_14">
      <!-- 0.30 -->
      <g transform="translate(28.334375 69.689717) scale(0.1 -0.1)">
       <defs>
        <path id="DejaVuSans-33" d="M 2597 2516 
Q 3050 2419 3304 2112 
Q 3559 1806 3559 1356 
Q 3559 666 3084 287 
Q 2609 -91 1734 -91 
Q 1441 -91 1130 -33 
Q 819 25 488 141 
L 488 750 
Q 750 597 1062 519 
Q 1375 441 1716 441 
Q 2309 441 2620 675 
Q 2931 909 2931 1356 
Q 2931 1769 2642 2001 
Q 2353 2234 1838 2234 
L 1294 2234 
L 1294 2753 
L 1863 2753 
Q 2328 2753 2575 2939 
Q 2822 3125 2822 3475 
Q 2822 3834 2567 4026 
Q 2313 4219 1838 4219 
Q 1578 4219 1281 4162 
Q 984 4106 628 3988 
L 628 4550 
Q 988 4650 1302 4700 
Q 1616 4750 1894 4750 
Q 2613 4750 3031 4423 
Q 3450 4097 3450 3541 
Q 3450 3153 3228 2886 
Q 3006 2619 2597 2516 
z
" transform="scale(0.015625)"/>
       </defs>
       <use xlink:href="#DejaVuSans-30"/>
       <use xlink:href="#DejaVuSans-2e" x="63.623047"/>
       <use xlink:href="#DejaVuSans-33" x="95.410156"/>
       <use xlink:href="#DejaVuSans-30" x="159.033203"/>
      </g>
     </g>
    </g>
    <g id="text_15">
     <!-- Tracking error(m) -->
     <g transform="translate(22.254687 217.803781) rotate(-90) scale(0.1 -0.1)">
      <defs>
       <path id="DejaVuSans-72" d="M 2631 2963 
Q 2534 3019 2420 3045 
Q 2306 3072 2169 3072 
Q 1681 3072 1420 2755 
Q 1159 2438 1159 1844 
L 1159 0 
L 581 0 
L 581 3500 
L 1159 3500 
L 1159 2956 
Q 1341 3275 1631 3429 
Q 1922 3584 2338 3584 
Q 2397 3584 2469 3576 
Q 2541 3569 2628 3553 
L 2631 2963 
z
" transform="scale(0.015625)"/>
       <path id="DejaVuSans-61" d="M 2194 1759 
Q 1497 1759 1228 1600 
Q 959 1441 959 1056 
Q 959 750 1161 570 
Q 1363 391 1709 391 
Q 2188 391 2477 730 
Q 2766 1069 2766 1631 
L 2766 1759 
L 2194 1759 
z
M 3341 1997 
L 3341 0 
L 2766 0 
L 2766 531 
Q 2569 213 2275 61 
Q 1981 -91 1556 -91 
Q 1019 -91 701 211 
Q 384 513 384 1019 
Q 384 1609 779 1909 
Q 1175 2209 1959 2209 
L 2766 2209 
L 2766 2266 
Q 2766 2663 2505 2880 
Q 2244 3097 1772 3097 
Q 1472 3097 1187 3025 
Q 903 2953 641 2809 
L 641 3341 
Q 956 3463 1253 3523 
Q 1550 3584 1831 3584 
Q 2591 3584 2966 3190 
Q 3341 2797 3341 1997 
z
" transform="scale(0.015625)"/>
       <path id="DejaVuSans-63" d="M 3122 3366 
L 3122 2828 
Q 2878 2963 2633 3030 
Q 2388 3097 2138 3097 
Q 1578 3097 1268 2742 
Q 959 2388 959 1747 
Q 959 1106 1268 751 
Q 1578 397 2138 397 
Q 2388 397 2633 464 
Q 2878 531 3122 666 
L 3122 134 
Q 2881 22 2623 -34 
Q 2366 -91 2075 -91 
Q 1284 -91 818 406 
Q 353 903 353 1747 
Q 353 2603 823 3093 
Q 1294 3584 2113 3584 
Q 2378 3584 2631 3529 
Q 2884 3475 3122 3366 
z
" transform="scale(0.015625)"/>
       <path id="DejaVuSans-6b" d="M 581 4863 
L 1159 4863 
L 1159 1991 
L 2875 3500 
L 3609 3500 
L 1753 1863 
L 3688 0 
L 2938 0 
L 1159 1709 
L 1159 0 
L 581 0 
L 581 4863 
z
" transform="scale(0.015625)"/>
       <path id="DejaVuSans-6e" d="M 3513 2113 
L 3513 0 
L 2938 0 
L 2938 2094 
Q 2938 2591 2744 2837 
Q 2550 3084 2163 3084 
Q 1697 3084 1428 2787 
Q 1159 2491 1159 1978 
L 1159 0 
L 581 0 
L 581 3500 
L 1159 3500 
L 1159 2956 
Q 1366 3272 1645 3428 
Q 1925 3584 2291 3584 
Q 2894 3584 3203 3211 
Q 3513 2838 3513 2113 
z
" transform="scale(0.015625)"/>
       <path id="DejaVuSans-67" d="M 2906 1791 
Q 2906 2416 2648 2759 
Q 2391 3103 1925 3103 
Q 1463 3103 1205 2759 
Q 947 2416 947 1791 
Q 947 1169 1205 825 
Q 1463 481 1925 481 
Q 2391 481 2648 825 
Q 2906 1169 2906 1791 
z
M 3481 434 
Q 3481 -459 3084 -895 
Q 2688 -1331 1869 -1331 
Q 1566 -1331 1297 -1286 
Q 1028 -1241 775 -1147 
L 775 -588 
Q 1028 -725 1275 -790 
Q 1522 -856 1778 -856 
Q 2344 -856 2625 -561 
Q 2906 -266 2906 331 
L 2906 616 
Q 2728 306 2450 153 
Q 2172 0 1784 0 
Q 1141 0 747 490 
Q 353 981 353 1791 
Q 353 2603 747 3093 
Q 1141 3584 1784 3584 
Q 2172 3584 2450 3431 
Q 2728 3278 2906 2969 
L 2906 3500 
L 3481 3500 
L 3481 434 
z
" transform="scale(0.015625)"/>
       <path id="DejaVuSans-20" transform="scale(0.015625)"/>
       <path id="DejaVuSans-6f" d="M 1959 3097 
Q 1497 3097 1228 2736 
Q 959 2375 959 1747 
Q 959 1119 1226 758 
Q 1494 397 1959 397 
Q 2419 397 2687 759 
Q 2956 1122 2956 1747 
Q 2956 2369 2687 2733 
Q 2419 3097 1959 3097 
z
M 1959 3584 
Q 2709 3584 3137 3096 
Q 3566 2609 3566 1747 
Q 3566 888 3137 398 
Q 2709 -91 1959 -91 
Q 1206 -91 779 398 
Q 353 888 353 1747 
Q 353 2609 779 3096 
Q 1206 3584 1959 3584 
z
" transform="scale(0.015625)"/>
      </defs>
      <use xlink:href="#DejaVuSans-54"/>
      <use xlink:href="#DejaVuSans-72" x="46.333984"/>
      <use xlink:href="#DejaVuSans-61" x="87.447266"/>
      <use xlink:href="#DejaVuSans-63" x="148.726562"/>
      <use xlink:href="#DejaVuSans-6b" x="203.707031"/>
      <use xlink:href="#DejaVuSans-69" x="261.617188"/>
      <use xlink:href="#DejaVuSans-6e" x="289.400391"/>
      <use xlink:href="#DejaVuSans-67" x="352.779297"/>
      <use xlink:href="#DejaVuSans-20" x="416.255859"/>
      <use xlink:href="#DejaVuSans-65" x="448.042969"/>
      <use xlink:href="#DejaVuSans-72" x="509.566406"/>
      <use xlink:href="#DejaVuSans-72" x="548.929688"/>
      <use xlink:href="#DejaVuSans-6f" x="587.792969"/>
      <use xlink:href="#DejaVuSans-72" x="648.974609"/>
      <use xlink:href="#DejaVuSans-28" x="690.087891"/>
      <use xlink:href="#DejaVuSans-6d" x="729.101562"/>
      <use xlink:href="#DejaVuSans-29" x="826.513672"/>
     </g>
    </g>
   </g>
   <g id="line2d_27">
    <path d="M 73.832727 202.115288 
L 74.296851 273.092294 
L 74.296851 273.092294 
L 74.528913 287.34035 
L 74.528913 287.34035 
L 75.225098 230.912172 
L 75.225098 230.912172 
L 75.689222 208.133038 
L 75.689222 208.133038 
L 76.153346 197.473592 
L 76.153346 197.473592 
L 76.385408 195.762325 
L 76.385408 195.762325 
L 76.61747 196.200856 
L 76.61747 196.200856 
L 76.849531 198.473871 
L 76.849531 198.473871 
L 77.313655 206.628409 
L 77.313655 206.628409 
L 78.938088 240.782569 
L 78.938088 240.782569 
L 79.634274 249.849374 
L 79.634274 249.849374 
L 81.026645 266.120949 
L 81.026645 266.120949 
L 82.88314 291.701937 
L 82.88314 291.701937 
L 83.347264 292.86217 
L 83.347264 292.86217 
L 83.579325 295.488 
L 83.579325 295.488 
L 83.811387 291.97822 
L 83.811387 291.97822 
L 84.043449 290.661095 
L 84.043449 290.661095 
L 85.43582 271.810375 
L 85.43582 271.810375 
L 86.132006 262.941023 
L 86.132006 262.941023 
L 87.060253 254.778832 
L 87.060253 254.778832 
L 88.220563 249.849374 
L 88.220563 249.849374 
L 88.452625 249.462119 
L 88.452625 249.462119 
L 88.684686 249.403189 
L 88.684686 249.403189 
L 88.916748 248.125097 
L 89.14881 248.201629 
L 89.14881 248.201629 
L 89.380872 248.683784 
L 89.380872 248.683784 
L 89.612934 249.658043 
L 89.612934 249.658043 
L 89.844996 249.665696 
L 89.844996 249.665696 
L 90.30912 253.594874 
L 90.30912 253.594874 
L 91.237367 266.13549 
L 91.237367 266.13549 
L 91.701491 273.38771 
L 91.701491 273.38771 
L 92.397676 283.874193 
L 92.397676 283.874193 
L 92.8618 289.285041 
L 92.8618 289.285041 
L 93.325924 290.459049 
L 93.325924 290.459049 
L 93.557986 290.444508 
L 93.557986 290.444508 
L 93.790047 289.989905 
L 93.790047 289.989905 
L 94.254171 285.181368 
L 94.254171 285.181368 
L 94.486233 283.238208 
L 94.486233 283.238208 
L 94.950357 276.962543 
L 94.950357 276.962543 
L 95.182419 275.394392 
L 95.182419 275.394392 
L 95.41448 272.372123 
L 95.41448 272.372123 
L 95.646542 271.68027 
L 95.646542 271.68027 
L 95.878604 272.178496 
L 95.878604 272.178496 
L 96.110666 271.104745 
L 96.110666 271.104745 
L 96.342728 272.96372 
L 96.342728 272.96372 
L 96.57479 276.129869 
L 96.57479 276.129869 
L 96.806852 276.848509 
L 96.806852 276.848509 
L 97.270975 282.370329 
L 97.270975 282.370329 
L 97.735099 289.244479 
L 97.735099 289.244479 
L 97.967161 289.769492 
L 97.967161 289.769492 
L 98.199223 295.488 
L 98.199223 295.488 
L 98.663347 290.912122 
L 98.663347 290.912122 
L 98.895408 295.488 
L 98.895408 295.488 
L 99.359532 283.735669 
L 99.359532 283.735669 
L 99.823656 278.001854 
L 99.823656 278.001854 
L 100.055718 271.208064 
L 100.055718 271.208064 
L 100.28778 268.10161 
L 100.28778 268.10161 
L 100.751903 260.504229 
L 100.751903 260.504229 
L 100.983965 259.089908 
L 100.983965 259.089908 
L 101.216027 255.861002 
L 101.216027 255.861002 
L 101.448089 255.312264 
L 101.448089 255.312264 
L 101.680151 255.906921 
L 101.680151 255.906921 
L 101.912213 254.354842 
L 101.912213 254.354842 
L 102.144274 255.145423 
L 102.144274 255.145423 
L 102.376336 256.548264 
L 102.376336 256.548264 
L 102.608398 255.368898 
L 102.608398 255.368898 
L 103.072522 257.03348 
L 103.072522 257.03348 
L 103.304584 255.028328 
L 103.304584 255.028328 
L 103.768708 254.214788 
L 103.768708 254.214788 
L 104.000769 251.158845 
L 104.000769 251.158845 
L 104.232831 249.602939 
L 104.232831 249.602939 
L 104.696955 244.81277 
L 104.696955 244.81277 
L 105.393141 239.673613 
L 105.393141 239.673613 
L 105.625202 239.160845 
L 105.625202 239.160845 
L 105.857264 239.230489 
L 105.857264 239.230489 
L 106.089326 238.954207 
L 106.089326 238.954207 
L 106.321388 240.019539 
L 106.321388 240.019539 
L 106.785512 243.225486 
L 106.785512 243.225486 
L 107.481697 251.340227 
L 107.481697 251.340227 
L 108.409945 264.33468 
L 108.409945 264.33468 
L 110.26644 295.032632 
L 110.26644 295.032632 
L 111.194687 282.307573 
L 111.194687 282.307573 
L 111.890873 276.056398 
L 111.890873 276.056398 
L 112.354996 273.875222 
L 112.354996 273.875222 
L 112.587058 273.422149 
L 112.587058 273.422149 
L 112.81912 273.347148 
L 112.81912 273.347148 
L 113.051182 273.771138 
L 113.515306 275.376024 
L 113.515306 275.376024 
L 114.211491 279.164383 
L 114.211491 279.164383 
L 115.139739 284.246141 
L 115.139739 284.246141 
L 115.603862 285.691075 
L 115.603862 285.691075 
L 116.300048 286.42196 
L 116.300048 286.42196 
L 116.996234 286.75105 
L 116.996234 286.75105 
L 117.228296 287.070956 
L 117.692419 288.606198 
L 117.692419 288.606198 
L 118.156543 291.442492 
L 118.156543 291.442492 
L 118.620667 295.396161 
L 118.620667 295.396161 
L 120.477162 279.669497 
L 120.477162 279.669497 
L 120.709223 279.089381 
L 120.709223 279.089381 
L 120.941285 279.347296 
L 120.941285 279.347296 
L 121.173347 279.89986 
L 121.173347 279.89986 
L 121.637471 282.390228 
L 121.637471 282.390228 
L 122.101595 286.581148 
L 122.101595 286.581148 
L 122.79778 293.801989 
L 122.79778 293.801989 
L 123.029842 294.843596 
L 123.029842 294.843596 
L 123.726028 288.969727 
L 123.726028 288.969727 
L 124.190151 286.767887 
L 124.190151 286.767887 
L 124.422213 286.167107 
L 124.422213 286.167107 
L 124.654275 286.067614 
L 124.654275 286.067614 
L 124.886337 286.203077 
L 124.886337 286.203077 
L 125.582523 287.404637 
L 125.582523 287.404637 
L 126.046646 288.160778 
L 126.046646 288.160778 
L 126.278708 288.240372 
L 126.278708 288.240372 
L 126.51077 288.000825 
L 126.51077 288.000825 
L 126.974894 286.352315 
L 126.974894 286.352315 
L 127.439017 283.909398 
L 127.439017 283.909398 
L 128.599327 276.669423 
L 128.599327 276.669423 
L 128.831389 275.791596 
L 128.831389 275.791596 
L 129.063451 275.596438 
L 129.063451 275.596438 
L 129.295512 275.842107 
L 129.295512 275.842107 
L 129.527574 276.734476 
L 129.527574 276.734476 
L 129.991698 280.097314 
L 129.991698 280.097314 
L 131.384069 294.784666 
L 131.384069 294.784666 
L 131.848193 290.497316 
L 131.848193 290.497316 
L 132.312317 287.911282 
L 132.312317 287.911282 
L 132.544378 287.471221 
L 132.544378 287.471221 
L 132.77644 287.345707 
L 132.77644 287.345707 
L 133.008502 287.624286 
L 133.008502 287.624286 
L 133.240564 288.296241 
L 133.240564 288.296241 
L 133.472626 289.39984 
L 133.472626 289.39984 
L 133.704688 295.488 
L 133.704688 295.488 
L 133.93675 291.886381 
L 133.93675 291.886381 
L 134.400873 294.341543 
L 134.400873 294.341543 
L 134.632935 295.127532 
L 134.632935 295.127532 
L 135.097059 295.249984 
L 135.097059 295.249984 
L 135.329121 294.91018 
L 135.329121 294.91018 
L 135.561183 293.853266 
L 135.561183 293.853266 
L 136.025306 289.057739 
L 136.025306 289.057739 
L 136.48943 282.72544 
L 136.48943 282.72544 
L 137.185616 271.585369 
L 137.185616 271.585369 
L 137.649739 266.059723 
L 137.649739 266.059723 
L 137.881801 262.946381 
L 137.881801 262.946381 
L 138.113863 263.025975 
L 138.113863 263.025975 
L 138.345925 261.639206 
L 138.345925 261.639206 
L 138.577987 262.774183 
L 138.577987 262.774183 
L 138.810049 262.645608 
L 138.810049 262.645608 
L 139.042111 261.753239 
L 139.042111 261.753239 
L 139.274172 264.643106 
L 139.274172 264.643106 
L 139.506234 263.902272 
L 139.506234 263.902272 
L 139.738296 265.98319 
L 139.738296 265.98319 
L 139.970358 264.554329 
L 139.970358 264.554329 
L 140.20242 265.305878 
L 140.20242 265.305878 
L 140.434482 262.727498 
L 140.434482 262.727498 
L 140.666544 261.698136 
L 140.666544 261.698136 
L 140.898605 258.121007 
L 141.130667 252.538726 
L 141.130667 252.538726 
L 141.362729 251.47722 
L 141.362729 251.47722 
L 141.594791 245.875041 
L 141.594791 245.875041 
L 141.826853 244.544906 
L 141.826853 244.544906 
L 142.058915 239.359829 
L 142.058915 239.359829 
L 142.290977 238.640424 
L 142.290977 238.640424 
L 142.523039 235.034212 
L 142.523039 235.034212 
L 142.7551 235.771986 
L 142.7551 235.771986 
L 142.987162 234.33394 
L 142.987162 234.33394 
L 143.219224 236.645987 
L 143.219224 236.645987 
L 143.451286 237.38223 
L 143.451286 237.38223 
L 143.91541 244.376535 
L 143.91541 244.376535 
L 144.147472 246.421483 
L 144.147472 246.421483 
L 144.379533 254.841589 
L 144.379533 254.841589 
L 144.611595 258.724848 
L 144.611595 258.724848 
L 144.843657 268.123039 
L 144.843657 268.123039 
L 145.075719 272.765501 
L 145.075719 272.765501 
L 145.307781 282.236398 
L 145.307781 282.236398 
L 145.539843 287.033455 
L 145.539843 287.033455 
L 145.771905 295.340292 
L 145.771905 295.340292 
L 146.003966 291.78995 
L 146.003966 291.78995 
L 146.236028 285.370403 
L 146.236028 285.370403 
L 146.46809 284.011186 
L 146.46809 284.011186 
L 146.700152 280.693502 
L 146.700152 280.693502 
L 146.932214 282.505792 
L 146.932214 282.505792 
L 147.164276 282.916006 
L 147.164276 282.916006 
L 147.6284 291.671324 
L 147.6284 291.671324 
L 147.860461 291.442492 
L 147.860461 291.442492 
L 148.092523 287.261522 
L 148.092523 287.261522 
L 148.324585 278.729678 
L 148.324585 278.729678 
L 148.556647 275.760217 
L 148.556647 275.760217 
L 148.788709 269.33761 
L 148.788709 269.33761 
L 149.020771 269.937625 
L 149.020771 269.937625 
L 149.252833 267.623282 
L 149.252833 267.623282 
L 149.484894 272.380542 
L 149.484894 272.380542 
L 149.716956 274.160688 
L 149.716956 274.160688 
L 150.18108 289.0233 
L 150.18108 289.0233 
L 150.413142 290.136848 
L 150.413142 290.136848 
L 150.645204 282.10017 
L 150.645204 282.10017 
L 151.109327 262.677752 
L 151.109327 262.677752 
L 151.341389 252.762201 
L 151.341389 252.762201 
L 151.805513 243.292835 
L 151.805513 243.292835 
L 152.037575 244.288522 
L 152.269637 244.143876 
L 152.965822 265.190314 
L 152.965822 265.190314 
L 153.429946 285.29234 
L 153.429946 285.29234 
L 153.662008 294.365268 
L 153.662008 294.365268 
L 154.358194 272.346102 
L 154.358194 272.346102 
L 154.590255 269.86798 
L 154.590255 269.86798 
L 154.822317 268.883007 
L 154.822317 268.883007 
L 155.054379 270.098343 
L 155.054379 270.098343 
L 155.518503 282.896108 
L 155.518503 282.896108 
L 155.750565 292.693033 
L 155.750565 292.693033 
L 155.982627 288.148533 
L 155.982627 288.148533 
L 156.910874 246.657969 
L 156.910874 246.657969 
L 157.374998 233.319884 
L 157.374998 233.319884 
L 157.60706 228.9759 
L 157.60706 228.9759 
L 157.839121 228.249606 
L 157.839121 228.249606 
L 158.071183 228.534307 
L 158.071183 228.534307 
L 158.303245 229.634079 
L 158.303245 229.634079 
L 159.231493 251.102976 
L 159.231493 251.102976 
L 159.463554 254.381629 
L 159.695616 261.248125 
L 159.695616 261.248125 
L 159.927678 262.959391 
L 160.15974 266.730148 
L 160.15974 266.730148 
L 160.391802 265.956404 
L 160.391802 265.956404 
L 160.623864 262.181056 
L 160.623864 262.181056 
L 160.855926 262.812449 
L 160.855926 262.812449 
L 161.087988 257.620484 
L 161.087988 257.620484 
L 161.320049 256.406679 
L 161.320049 256.406679 
L 161.552111 251.278236 
L 161.552111 251.278236 
L 161.784173 249.551662 
L 162.248297 243.896676 
L 162.248297 243.896676 
L 162.480359 247.756975 
L 162.480359 247.756975 
L 162.712421 249.553958 
L 162.712421 249.553958 
L 164.336854 294.386697 
L 164.336854 294.386697 
L 164.800977 285.30382 
L 164.800977 285.30382 
L 165.033039 284.536199 
L 165.033039 284.536199 
L 165.265101 281.849143 
L 165.265101 281.849143 
L 165.497163 283.724955 
L 165.497163 283.724955 
L 165.729225 284.187976 
L 165.729225 284.187976 
L 166.42541 295.485704 
L 166.42541 295.485704 
L 166.657472 290.02511 
L 166.657472 290.02511 
L 166.889534 288.401856 
L 166.889534 288.401856 
L 167.121596 284.853809 
L 167.121596 284.853809 
L 167.353658 284.658651 
L 167.353658 284.658651 
L 167.58572 284.041034 
L 167.58572 284.041034 
L 167.817782 284.109913 
L 167.817782 284.109913 
L 168.281905 291.997353 
L 168.281905 291.997353 
L 168.513967 292.781045 
L 168.513967 292.781045 
L 169.210153 273.28133 
L 169.210153 273.28133 
L 170.1384 250.24122 
L 170.1384 250.24122 
L 170.602524 243.902033 
L 170.602524 243.902033 
L 170.834586 242.438732 
L 170.834586 242.438732 
L 171.066648 242.641543 
L 171.066648 242.641543 
L 171.298709 243.79948 
L 171.298709 243.79948 
L 171.530771 245.927849 
L 171.530771 245.927849 
L 172.226957 256.947763 
L 172.226957 256.947763 
L 173.387266 277.482199 
L 173.387266 277.482199 
L 173.85139 283.191523 
L 173.85139 283.191523 
L 174.315514 287.106161 
L 174.315514 287.106161 
L 174.779637 289.334022 
L 174.779637 289.334022 
L 175.939947 292.985387 
L 175.939947 292.985387 
L 176.172009 294.348431 
L 176.172009 294.348431 
L 176.40407 294.599458 
L 176.40407 294.599458 
L 177.100256 287.126059 
L 177.100256 287.126059 
L 178.260565 272.830553 
L 178.260565 272.830553 
L 179.188813 264.26427 
L 179.188813 264.26427 
L 179.420875 264.445652 
L 179.420875 264.445652 
L 179.652937 260.696325 
L 179.652937 260.696325 
L 179.884998 261.814465 
L 179.884998 261.814465 
L 180.11706 261.396598 
L 180.11706 261.396598 
L 180.349122 257.702374 
L 180.349122 257.702374 
L 180.581184 256.930161 
L 180.813246 250.832816 
L 180.813246 250.832816 
L 181.045308 249.983306 
L 181.045308 249.983306 
L 181.27737 241.496617 
L 181.27737 241.496617 
L 181.509431 240.517001 
L 181.509431 240.517001 
L 181.741493 237.403659 
L 181.741493 237.403659 
L 181.973555 229.45882 
L 181.973555 229.45882 
L 182.205617 227.147538 
L 182.205617 227.147538 
L 182.437679 218.003435 
L 182.437679 218.003435 
L 182.669741 217.700366 
L 182.669741 217.700366 
L 182.901803 216.084 
L 182.901803 216.084 
L 183.133864 210.418299 
L 183.133864 210.418299 
L 183.365926 210.842289 
L 183.365926 210.842289 
L 183.597988 204.735761 
L 183.597988 204.735761 
L 183.83005 207.138881 
L 183.83005 207.138881 
L 184.062112 207.726651 
L 184.062112 207.726651 
L 184.294174 203.684204 
L 184.294174 203.684204 
L 184.526236 205.008216 
L 184.758297 198.881024 
L 184.758297 198.881024 
L 184.990359 200.907605 
L 184.990359 200.907605 
L 185.222421 200.419328 
L 185.222421 200.419328 
L 185.454483 194.317391 
L 185.454483 194.317391 
L 185.686545 193.564312 
L 185.686545 193.564312 
L 185.918607 183.664833 
L 185.918607 183.664833 
L 186.150669 183.925808 
L 186.150669 183.925808 
L 186.382731 181.391817 
L 186.382731 181.391817 
L 186.614792 172.866097 
L 186.614792 172.866097 
L 186.846854 172.248479 
L 186.846854 172.248479 
L 187.078916 162.486759 
L 187.078916 162.486759 
L 187.310978 165.194479 
L 187.310978 165.194479 
L 187.54304 156.635849 
L 187.54304 156.635849 
L 188.007164 165.493721 
L 188.007164 165.493721 
L 188.239225 162.799012 
L 188.239225 162.799012 
L 188.471287 167.514179 
L 188.471287 167.514179 
L 188.703349 164.174301 
L 188.935411 170.169091 
L 188.935411 170.169091 
L 189.167473 173.265596 
L 189.167473 173.265596 
L 189.399535 171.984442 
L 189.399535 171.984442 
L 189.631597 175.479682 
L 189.631597 175.479682 
L 189.863658 172.279858 
L 189.863658 172.279858 
L 190.09572 176.523585 
L 190.09572 176.523585 
L 190.327782 171.945411 
L 190.327782 171.945411 
L 190.559844 176.783795 
L 190.559844 176.783795 
L 190.791906 179.154772 
L 190.791906 179.154772 
L 191.023968 176.192965 
L 191.023968 176.192965 
L 191.25603 179.483862 
L 191.25603 179.483862 
L 191.488091 175.667186 
L 191.488091 175.667186 
L 191.952215 183.567636 
L 191.952215 183.567636 
L 192.184277 183.16431 
L 192.416339 188.331784 
L 192.416339 188.331784 
L 192.648401 188.490207 
L 192.648401 188.490207 
L 193.112525 202.455092 
L 193.112525 202.455092 
L 193.344586 206.7478 
L 193.344586 206.7478 
L 194.040772 228.263382 
L 194.040772 228.263382 
L 194.272834 233.170646 
L 194.272834 233.170646 
L 194.736958 249.786617 
L 194.736958 249.786617 
L 196.593452 293.302232 
L 196.593452 293.302232 
L 196.825514 293.696374 
L 196.825514 293.696374 
L 197.753762 274.173699 
L 197.753762 274.173699 
L 197.985824 269.284037 
L 197.985824 269.284037 
L 198.682009 245.505389 
L 198.682009 245.505389 
L 199.146133 236.88936 
L 199.146133 236.88936 
L 199.378195 226.553646 
L 199.378195 226.553646 
L 199.842319 220.234357 
L 199.842319 220.234357 
L 200.07438 212.565036 
L 200.07438 212.565036 
L 200.306442 211.808894 
L 200.306442 211.808894 
L 200.538504 210.301204 
L 200.538504 210.301204 
L 200.770566 205.317408 
L 200.770566 205.317408 
L 201.002628 206.636828 
L 201.002628 206.636828 
L 201.23469 200.138453 
L 201.698813 206.316157 
L 201.698813 206.316157 
L 201.930875 200.627496 
L 201.930875 200.627496 
L 202.162937 202.767345 
L 202.162937 202.767345 
L 202.394999 202.55688 
L 202.394999 202.55688 
L 202.627061 197.146033 
L 202.627061 197.146033 
L 202.859123 195.325324 
L 203.091185 190.93389 
L 203.091185 190.93389 
L 203.323246 180.02112 
L 203.323246 180.02112 
L 203.555308 174.454911 
L 203.555308 174.454911 
L 203.78737 165.566427 
L 203.78737 165.566427 
L 204.019432 148.002983 
L 204.019432 148.002983 
L 204.251494 142.082429 
L 204.251494 142.082429 
L 204.483556 121.821215 
L 204.483556 121.821215 
L 204.715618 121.277834 
L 204.715618 121.277834 
L 204.94768 117.231561 
L 204.94768 117.231561 
L 205.179741 106.956307 
L 205.179741 106.956307 
L 205.411803 107.979547 
L 205.411803 107.979547 
L 205.643865 101.270708 
L 205.643865 101.270708 
L 205.875927 106.950185 
L 205.875927 106.950185 
L 206.107989 101.860008 
L 206.107989 101.860008 
L 206.340051 110.82426 
L 206.340051 110.82426 
L 206.572113 106.018019 
L 206.572113 106.018019 
L 207.036236 126.844043 
L 207.036236 126.844043 
L 207.268298 128.086165 
L 207.268298 128.086165 
L 207.50036 139.94105 
L 207.50036 139.94105 
L 207.732422 140.794387 
L 207.732422 140.794387 
L 208.196546 164.246241 
L 208.196546 164.246241 
L 208.428607 167.658825 
L 208.660669 176.283273 
L 208.660669 176.283273 
L 208.892731 175.9825 
L 208.892731 175.9825 
L 209.124793 181.883156 
L 209.124793 181.883156 
L 209.356855 184.931445 
L 209.356855 184.931445 
L 209.588917 181.708662 
L 209.588917 181.708662 
L 209.820979 183.403091 
L 209.820979 183.403091 
L 210.05304 183.130636 
L 210.05304 183.130636 
L 210.285102 178.687159 
L 210.285102 178.687159 
L 210.517164 179.029259 
L 210.517164 179.029259 
L 210.749226 178.895327 
L 210.749226 178.895327 
L 210.981288 177.174877 
L 210.981288 177.174877 
L 211.21335 180.069336 
L 211.21335 180.069336 
L 211.445412 180.908897 
L 211.445412 180.908897 
L 212.141597 201.721911 
L 212.141597 201.721911 
L 214.230154 290.122306 
L 214.230154 290.122306 
L 214.462216 292.911916 
L 214.462216 292.911916 
L 215.622525 268.617439 
L 215.622525 268.617439 
L 215.854587 266.706422 
L 215.854587 266.706422 
L 216.086649 263.159906 
L 216.086649 263.159906 
L 216.318711 256.060752 
L 216.550773 252.693322 
L 216.550773 252.693322 
L 216.782834 242.030048 
L 216.782834 242.030048 
L 217.014896 239.130232 
L 217.014896 239.130232 
L 217.246958 233.267077 
L 217.246958 233.267077 
L 217.943144 202.791835 
L 217.943144 202.791835 
L 218.407268 191.892076 
L 218.407268 191.892076 
L 218.639329 181.271661 
L 218.871391 177.874384 
L 218.871391 177.874384 
L 219.103453 167.110853 
L 219.103453 167.110853 
L 219.335515 167.807298 
L 219.335515 167.807298 
L 219.567577 167.837146 
L 219.567577 167.837146 
L 219.799639 164.624312 
L 219.799639 164.624312 
L 220.031701 169.566781 
L 220.031701 169.566781 
L 220.263762 167.049627 
L 220.263762 167.049627 
L 220.727886 182.276533 
L 220.727886 182.276533 
L 220.959948 183.450542 
L 220.959948 183.450542 
L 221.19201 191.283643 
L 221.19201 191.283643 
L 221.424072 189.243287 
L 221.424072 189.243287 
L 221.888195 202.289782 
L 221.888195 202.289782 
L 222.120257 200.038961 
L 222.120257 200.038961 
L 222.352319 204.275035 
L 222.352319 204.275035 
L 222.584381 197.688648 
L 222.584381 197.688648 
L 222.816443 201.098171 
L 223.048505 200.333611 
L 223.048505 200.333611 
L 223.280567 192.175247 
L 223.280567 192.175247 
L 223.512629 190.594085 
L 223.512629 190.594085 
L 223.74469 178.765987 
L 223.74469 178.765987 
L 223.976752 177.099875 
L 223.976752 177.099875 
L 224.208814 172.911251 
L 224.208814 172.911251 
L 224.440876 163.197746 
L 224.440876 163.197746 
L 224.672938 161.270658 
L 224.672938 161.270658 
L 224.905 152.951575 
L 224.905 152.951575 
L 225.369123 155.548322 
L 225.369123 155.548322 
L 225.601185 153.961804 
L 225.601185 153.961804 
L 226.065309 162.616099 
L 226.065309 162.616099 
L 226.297371 164.971769 
L 226.297371 164.971769 
L 226.529433 171.775509 
L 226.761495 172.725277 
L 226.761495 172.725277 
L 227.225618 188.881288 
L 227.225618 188.881288 
L 227.45768 190.531329 
L 227.45768 190.531329 
L 227.689742 197.136849 
L 227.689742 197.136849 
L 227.921804 194.824037 
L 227.921804 194.824037 
L 228.153866 200.144576 
L 228.153866 200.144576 
L 228.385928 201.812219 
L 228.385928 201.812219 
L 228.617989 196.551375 
L 228.617989 196.551375 
L 228.850051 196.436576 
L 228.850051 196.436576 
L 229.082113 186.973333 
L 229.082113 186.973333 
L 229.314175 185.825345 
L 229.314175 185.825345 
L 229.546237 182.193878 
L 229.546237 182.193878 
L 229.778299 173.281668 
L 229.778299 173.281668 
L 230.010361 171.268098 
L 230.010361 171.268098 
L 230.242423 163.050804 
L 230.242423 163.050804 
L 230.706546 166.23226 
L 230.706546 166.23226 
L 230.938608 165.745513 
L 231.17067 172.095414 
L 231.17067 172.095414 
L 231.402732 174.85288 
L 231.402732 174.85288 
L 233.259227 258.667449 
L 233.259227 258.667449 
L 233.72335 269.826653 
L 233.72335 269.826653 
L 233.955412 273.301993 
L 233.955412 273.301993 
L 234.187474 273.28286 
L 234.187474 273.28286 
L 234.419536 273.871395 
L 234.419536 273.871395 
L 234.651598 271.411641 
L 234.651598 271.411641 
L 234.88366 270.839178 
L 234.88366 270.839178 
L 235.579845 267.339346 
L 235.579845 267.339346 
L 235.811907 266.940612 
L 235.811907 266.940612 
L 236.276031 271.568532 
L 236.276031 271.568532 
L 236.972217 287.509487 
L 236.972217 287.509487 
L 237.204278 293.403255 
L 237.204278 293.403255 
L 237.43634 290.75523 
L 237.43634 290.75523 
L 238.132526 276.237015 
L 238.132526 276.237015 
L 238.364588 273.095356 
L 238.364588 273.095356 
L 238.59665 271.977216 
L 238.59665 271.977216 
L 238.828711 271.540215 
L 238.828711 271.540215 
L 239.292835 274.671925 
L 239.292835 274.671925 
L 240.453144 290.570022 
L 240.453144 290.570022 
L 240.685206 295.488 
L 240.685206 295.488 
L 240.917268 295.406876 
L 240.917268 295.406876 
L 241.381392 294.197662 
L 241.381392 294.197662 
L 241.613454 294.901761 
L 241.613454 294.901761 
L 241.845516 295.175747 
L 241.845516 295.175747 
L 242.077577 293.960411 
L 242.077577 293.960411 
L 243.237887 282.780544 
L 243.237887 282.780544 
L 244.166134 276.621208 
L 244.166134 276.621208 
L 244.398196 275.955375 
L 244.398196 275.955375 
L 244.86232 273.891294 
L 244.86232 273.891294 
L 245.326444 272.470085 
L 245.326444 272.470085 
L 246.950877 259.184043 
L 246.950877 259.184043 
L 248.111186 249.283799 
L 248.111186 249.283799 
L 248.807371 246.36791 
L 248.807371 246.36791 
L 249.039433 246.344185 
L 249.039433 246.344185 
L 249.271495 246.634244 
L 249.271495 246.634244 
L 249.503557 247.221248 
L 249.503557 247.221248 
L 249.735619 247.065887 
L 249.735619 247.065887 
L 250.431805 249.380995 
L 250.431805 249.380995 
L 250.663866 250.189943 
L 250.663866 250.189943 
L 250.895928 249.822587 
L 250.895928 249.822587 
L 251.360052 250.166218 
L 251.360052 250.166218 
L 251.824176 250.433317 
L 251.824176 250.433317 
L 252.056238 249.462119 
L 252.056238 249.462119 
L 252.288299 249.405485 
L 252.288299 249.405485 
L 252.520361 249.527937 
L 252.520361 249.527937 
L 252.752423 249.903712 
L 252.752423 249.903712 
L 252.984485 249.733044 
L 252.984485 249.733044 
L 253.448609 251.157314 
L 253.448609 251.157314 
L 255.305104 258.869494 
L 255.305104 258.869494 
L 255.769227 260.035084 
L 255.769227 260.035084 
L 256.001289 260.354225 
L 256.001289 260.354225 
L 256.233351 260.462901 
L 256.233351 260.462901 
L 256.929537 258.026872 
L 256.929537 258.026872 
L 257.39366 256.434996 
L 257.39366 256.434996 
L 257.857784 254.123714 
L 257.857784 254.123714 
L 258.089846 253.610946 
L 258.089846 253.610946 
L 258.321908 253.472422 
L 258.55397 253.675234 
L 258.55397 253.675234 
L 258.786032 253.330072 
L 258.786032 253.330072 
L 259.018093 253.851258 
L 259.018093 253.851258 
L 259.482217 255.798245 
L 259.482217 255.798245 
L 259.714279 257.145982 
L 259.714279 257.145982 
L 259.946341 257.814877 
L 259.946341 257.814877 
L 260.874588 263.368075 
L 260.874588 263.368075 
L 261.10665 263.778289 
L 261.10665 263.778289 
L 261.570774 265.335725 
L 261.570774 265.335725 
L 262.034898 266.126306 
L 262.034898 266.126306 
L 262.26696 265.246948 
L 262.26696 265.246948 
L 263.195207 263.528028 
L 263.195207 263.528028 
L 263.427269 262.294324 
L 263.427269 262.294324 
L 263.659331 261.912427 
L 263.659331 261.912427 
L 263.891393 261.825945 
L 263.891393 261.825945 
L 264.123454 261.99202 
L 264.123454 261.99202 
L 264.355516 262.352489 
L 264.355516 262.352489 
L 264.587578 261.88411 
L 265.051702 262.835409 
L 265.051702 262.835409 
L 265.515826 264.123451 
L 265.515826 264.123451 
L 265.747887 263.615275 
L 265.747887 263.615275 
L 265.979949 263.728543 
L 265.979949 263.728543 
L 266.212011 263.658133 
L 266.212011 263.658133 
L 266.444073 263.34588 
L 266.444073 263.34588 
L 266.676135 262.73209 
L 266.676135 262.73209 
L 267.140259 259.382262 
L 267.140259 259.382262 
L 267.836444 255.114045 
L 267.836444 255.114045 
L 268.300568 251.543038 
L 268.300568 251.543038 
L 268.764692 250.078971 
L 268.764692 250.078971 
L 268.996754 249.811108 
L 268.996754 249.811108 
L 269.228815 248.883534 
L 269.228815 248.883534 
L 269.460877 248.986087 
L 269.460877 248.986087 
L 269.692939 249.395536 
L 269.692939 249.395536 
L 270.621187 252.086419 
L 270.621187 252.086419 
L 271.317372 255.395684 
L 271.317372 255.395684 
L 271.549434 255.748499 
L 271.549434 255.748499 
L 272.477681 259.432008 
L 272.477681 259.432008 
L 272.709743 259.604206 
L 272.709743 259.604206 
L 273.637991 262.41601 
L 273.637991 262.41601 
L 273.870053 262.56831 
L 273.870053 262.56831 
L 274.566238 264.786987 
L 274.566238 264.786987 
L 275.726548 269.104186 
L 275.726548 269.104186 
L 276.190671 270.200896 
L 276.190671 270.200896 
L 276.654795 271.048877 
L 276.654795 271.048877 
L 277.815104 272.127985 
L 277.815104 272.127985 
L 278.047166 271.977216 
L 278.047166 271.977216 
L 278.279228 271.541746 
L 278.279228 271.541746 
L 278.51129 272.015482 
L 278.51129 272.015482 
L 279.207475 271.348884 
L 279.207475 271.348884 
L 279.439537 271.463683 
L 279.439537 271.463683 
L 279.903661 276.102318 
L 279.903661 276.102318 
L 280.367785 281.466481 
L 280.367785 281.466481 
L 280.599847 285.083407 
L 280.599847 285.083407 
L 280.831909 291.954494 
L 280.831909 291.954494 
L 281.06397 293.321365 
L 281.06397 293.321365 
L 281.760156 273.23541 
L 281.760156 273.23541 
L 282.456342 247.747791 
L 282.456342 247.747791 
L 283.384589 220.715747 
L 283.384589 220.715747 
L 283.848713 211.475213 
L 283.848713 211.475213 
L 284.544898 190.22826 
L 284.544898 190.22826 
L 285.009022 180.246126 
L 285.009022 180.246126 
L 285.241084 178.580779 
L 285.241084 178.580779 
L 285.473146 178.92441 
L 285.473146 178.92441 
L 285.705208 181.507381 
L 285.705208 181.507381 
L 286.401393 212.730346 
L 286.401393 212.730346 
L 287.329641 282.215734 
L 287.329641 282.215734 
L 287.561703 283.19688 
L 287.561703 283.19688 
L 288.257888 229.438921 
L 288.257888 229.438921 
L 288.48995 220.096599 
L 288.48995 220.096599 
L 288.722012 216.961828 
L 288.722012 216.961828 
L 288.954074 217.570261 
L 288.954074 217.570261 
L 289.186136 221.451989 
L 289.186136 221.451989 
L 289.882321 236.390368 
L 289.882321 236.390368 
L 290.346445 243.45891 
L 290.346445 243.45891 
L 291.04263 236.675835 
L 291.04263 236.675835 
L 292.435002 196.553671 
L 292.435002 196.553671 
L 292.899125 189.7683 
L 292.899125 189.7683 
L 293.131187 189.779014 
L 293.131187 189.779014 
L 293.363249 191.985446 
L 293.363249 191.985446 
L 293.827373 200.618312 
L 293.827373 200.618312 
L 295.219744 233.58086 
L 295.219744 233.58086 
L 296.147991 247.758506 
L 296.147991 247.758506 
L 296.844177 256.490099 
L 296.844177 256.490099 
L 297.540363 266.702596 
L 297.540363 266.702596 
L 298.700672 293.978779 
L 298.700672 293.978779 
L 299.164796 282.883097 
L 299.164796 282.883097 
L 300.093043 261.539713 
L 300.093043 261.539713 
L 300.557167 255.906156 
L 300.557167 255.906156 
L 300.789229 255.183689 
L 300.789229 255.183689 
L 301.021291 255.92835 
L 301.021291 255.92835 
L 301.253352 257.100828 
L 301.253352 257.100828 
L 301.717476 263.075721 
L 301.717476 263.075721 
L 302.1816 269.473072 
L 302.1816 269.473072 
L 302.645724 276.348752 
L 302.645724 276.348752 
L 302.877785 277.307704 
L 302.877785 277.307704 
L 303.109847 279.093208 
L 303.109847 279.093208 
L 303.341909 279.242446 
L 303.341909 279.242446 
L 303.806033 279.943484 
L 303.806033 279.943484 
L 304.038095 278.682993 
L 304.038095 278.682993 
L 304.270157 278.407476 
L 304.270157 278.407476 
L 304.502218 278.637839 
L 304.502218 278.637839 
L 304.73428 277.406431 
L 304.73428 277.406431 
L 304.966342 278.148797 
L 304.966342 278.148797 
L 305.198404 278.415895 
L 305.198404 278.415895 
L 305.430466 280.390434 
L 305.430466 280.390434 
L 306.590775 295.488 
L 306.590775 295.488 
L 306.822837 286.10435 
L 306.822837 286.10435 
L 307.054899 282.279256 
L 307.054899 282.279256 
L 307.751085 267.103626 
L 307.751085 267.103626 
L 308.215208 259.891203 
L 308.215208 259.891203 
L 308.44727 255.226547 
L 308.44727 255.226547 
L 308.679332 255.127055 
L 308.679332 255.127055 
L 308.911394 251.487169 
L 308.911394 251.487169 
L 309.143456 252.379538 
L 309.143456 252.379538 
L 309.375518 249.766719 
L 309.375518 249.766719 
L 309.607579 251.292777 
L 309.607579 251.292777 
L 309.839641 249.750647 
L 309.839641 249.750647 
L 310.071703 251.60656 
L 310.071703 251.60656 
L 310.303765 251.233081 
L 310.303765 251.233081 
L 310.535827 249.405485 
L 310.535827 249.405485 
L 310.767889 253.923964 
L 310.767889 253.923964 
L 310.999951 252.930572 
L 310.999951 252.930572 
L 311.232012 256.881945 
L 311.232012 256.881945 
L 311.464074 256.227592 
L 311.464074 256.227592 
L 311.696136 259.278178 
L 311.696136 259.278178 
L 311.928198 258.609284 
L 311.928198 258.609284 
L 312.16026 260.671835 
L 312.16026 260.671835 
L 312.392322 260.306775 
L 312.392322 260.306775 
L 312.624384 258.476883 
L 312.624384 258.476883 
L 312.856446 262.089982 
L 312.856446 262.089982 
L 313.088507 261.006282 
L 313.088507 261.006282 
L 313.320569 264.538257 
L 313.320569 264.538257 
L 313.552631 264.426519 
L 313.552631 264.426519 
L 313.784693 267.964617 
L 313.784693 267.964617 
L 314.016755 269.032245 
L 314.016755 269.032245 
L 314.480879 275.435719 
L 314.480879 275.435719 
L 314.71294 276.807947 
L 314.71294 276.807947 
L 314.945002 282.645846 
L 314.945002 282.645846 
L 315.177064 284.542322 
L 315.177064 284.542322 
L 315.409126 289.832248 
L 315.409126 289.832248 
L 315.641188 291.643007 
L 315.641188 291.643007 
L 315.87325 295.210952 
L 315.87325 295.210952 
L 316.105312 293.832602 
L 316.337373 291.056768 
L 316.337373 291.056768 
L 316.569435 295.488 
L 316.569435 295.488 
L 316.801497 290.664156 
L 316.801497 290.664156 
L 317.033559 288.602371 
L 317.033559 288.602371 
L 317.265621 289.210039 
L 317.265621 289.210039 
L 317.497683 287.907456 
L 317.497683 287.907456 
L 317.729745 288.298537 
L 317.729745 288.298537 
L 317.961806 287.366371 
L 317.961806 287.366371 
L 318.193868 287.298257 
L 318.193868 287.298257 
L 318.42593 287.348769 
L 318.42593 287.348769 
L 318.657992 285.684187 
L 318.657992 285.684187 
L 318.890054 284.995394 
L 318.890054 284.995394 
L 320.050363 276.716874 
L 320.050363 276.716874 
L 320.514487 273.888998 
L 320.514487 273.888998 
L 320.978611 272.546618 
L 320.978611 272.546618 
L 321.210673 272.568812 
L 321.210673 272.568812 
L 321.674796 273.428272 
L 321.674796 273.428272 
L 322.13892 275.698226 
L 322.13892 275.698226 
L 322.603044 278.449569 
L 322.603044 278.449569 
L 323.067167 281.294282 
L 323.067167 281.294282 
L 323.763353 283.621636 
L 323.763353 283.621636 
L 323.995415 284.181854 
L 323.995415 284.181854 
L 324.923662 285.014527 
L 324.923662 285.014527 
L 325.155724 284.813247 
L 325.155724 284.813247 
L 325.85191 284.862228 
L 325.85191 284.862228 
L 326.316034 284.008125 
L 326.316034 284.008125 
L 326.780157 283.05453 
L 326.780157 283.05453 
L 327.012219 282.319053 
L 327.012219 282.319053 
L 327.708405 277.994966 
L 327.708405 277.994966 
L 329.332838 269.163881 
L 329.332838 269.163881 
L 329.796961 268.307482 
L 329.796961 268.307482 
L 330.029023 268.241664 
L 330.029023 268.241664 
L 330.261085 268.445241 
L 331.421395 278.584267 
L 331.421395 278.584267 
L 332.11758 295.488 
L 332.11758 295.488 
L 332.349642 292.226185 
L 332.813766 277.228111 
L 332.813766 277.228111 
L 333.742013 251.880546 
L 333.742013 251.880546 
L 334.206137 245.620188 
L 334.206137 245.620188 
L 334.438199 244.575519 
L 334.438199 244.575519 
L 334.670261 245.039306 
L 334.670261 245.039306 
L 334.902322 246.5447 
L 334.902322 246.5447 
L 336.062632 262.258354 
L 336.062632 262.258354 
L 336.294694 263.074955 
L 336.294694 263.074955 
L 336.526755 265.11225 
L 336.526755 265.11225 
L 336.758817 263.906098 
L 336.758817 263.906098 
L 336.990879 260.540964 
L 336.990879 260.540964 
L 337.222941 259.608033 
L 337.222941 259.608033 
L 338.151189 239.199111 
L 338.151189 239.199111 
L 338.38325 238.122299 
L 338.38325 238.122299 
L 338.615312 234.675275 
L 338.615312 234.675275 
L 339.079436 236.752367 
L 339.079436 236.752367 
L 339.311498 238.709303 
L 339.311498 238.709303 
L 340.239745 270.640193 
L 340.239745 270.640193 
L 340.935931 295.488 
L 340.935931 295.488 
L 341.400055 276.562278 
L 341.400055 276.562278 
L 341.864178 266.814333 
L 341.864178 266.814333 
L 342.09624 265.119904 
L 342.09624 265.119904 
L 342.328302 265.755123 
L 342.328302 265.755123 
L 342.560364 264.691322 
L 342.560364 264.691322 
L 343.256549 272.805297 
L 343.256549 272.805297 
L 343.488611 277.514342 
L 343.488611 277.514342 
L 343.720673 279.236323 
L 343.952735 282.93667 
L 343.952735 282.93667 
L 344.416859 285.955112 
L 344.416859 285.955112 
L 344.648921 287.432189 
L 344.648921 287.432189 
L 344.880983 285.460712 
L 344.880983 285.460712 
L 345.345106 283.500714 
L 345.345106 283.500714 
L 345.577168 279.005195 
L 345.577168 279.005195 
L 345.80923 276.706924 
L 345.80923 276.706924 
L 346.273354 269.828183 
L 346.273354 269.828183 
L 346.505416 268.151356 
L 346.505416 268.151356 
L 346.737477 264.780099 
L 346.737477 264.780099 
L 346.969539 264.102787 
L 346.969539 264.102787 
L 347.201601 262.957861 
L 347.201601 262.957861 
L 347.433663 263.921405 
L 347.433663 263.921405 
L 348.36191 274.416307 
L 348.36191 274.416307 
L 349.290158 291.144015 
L 349.290158 291.144015 
L 349.754282 294.683643 
L 349.754282 294.683643 
L 350.218405 292.996102 
L 350.218405 292.996102 
L 350.682529 294.985947 
L 350.682529 294.985947 
L 351.146653 291.442492 
L 351.146653 291.442492 
L 352.306962 275.685215 
L 352.306962 275.685215 
L 353.23521 261.193786 
L 353.23521 261.193786 
L 353.467271 253.199201 
L 353.467271 253.199201 
L 353.699333 249.573092 
L 353.699333 249.573092 
L 353.931395 235.843926 
L 353.931395 235.843926 
L 354.163457 234.829105 
L 354.163457 234.829105 
L 354.395519 230.661911 
L 354.395519 230.661911 
L 354.627581 218.513907 
L 354.627581 218.513907 
L 354.859643 215.456433 
L 354.859643 215.456433 
L 355.091704 200.939749 
L 355.091704 200.939749 
L 355.323766 198.691989 
L 355.323766 198.691989 
L 355.555828 193.339306 
L 355.555828 193.339306 
L 355.78789 180.957878 
L 355.78789 180.957878 
L 356.019952 176.940687 
L 356.019952 176.940687 
L 356.252014 163.567398 
L 356.252014 163.567398 
L 356.484076 162.127822 
L 356.484076 162.127822 
L 356.716138 158.970091 
L 356.716138 158.970091 
L 356.948199 150.300489 
L 356.948199 150.300489 
L 357.180261 150.442839 
L 357.180261 150.442839 
L 357.412323 142.043397 
L 357.412323 142.043397 
L 357.876447 148.72545 
L 357.876447 148.72545 
L 358.108509 145.318223 
L 358.108509 145.318223 
L 358.572632 154.721771 
L 358.572632 154.721771 
L 358.804694 154.807488 
L 358.804694 154.807488 
L 359.036756 160.66299 
L 359.036756 160.66299 
L 359.268818 158.12211 
L 359.732942 168.855794 
L 359.732942 168.855794 
L 359.965004 166.636351 
L 359.965004 166.636351 
L 360.197065 170.228787 
L 360.429127 164.027358 
L 360.429127 164.027358 
L 360.661189 166.846816 
L 360.661189 166.846816 
L 360.893251 165.960569 
L 360.893251 165.960569 
L 361.125313 158.172622 
L 361.125313 158.172622 
L 361.357375 156.50804 
L 361.357375 156.50804 
L 361.589437 144.409782 
L 361.589437 144.409782 
L 361.821498 142.998523 
L 361.821498 142.998523 
L 362.05356 139.057865 
L 362.05356 139.057865 
L 362.285622 129.136957 
L 362.285622 129.136957 
L 362.517684 127.267268 
L 362.749746 116.625423 
L 362.749746 116.625423 
L 362.981808 118.016019 
L 362.981808 118.016019 
L 363.21387 117.859127 
L 363.445932 113.275596 
L 363.445932 113.275596 
L 363.677993 117.288195 
L 363.677993 117.288195 
L 363.910055 114.15725 
L 363.910055 114.15725 
L 364.374179 130.800008 
L 364.374179 130.800008 
L 364.606241 134.904446 
L 364.606241 134.904446 
L 364.838303 146.245032 
L 364.838303 146.245032 
L 365.070365 151.003823 
L 365.070365 151.003823 
L 365.302426 165.140141 
L 365.302426 165.140141 
L 365.534488 170.544866 
L 365.534488 170.544866 
L 365.998612 196.313359 
L 365.998612 196.313359 
L 366.230674 202.122941 
L 366.230674 202.122941 
L 366.694798 217.377399 
L 366.694798 217.377399 
L 367.158921 224.218639 
L 367.158921 224.218639 
L 368.087169 229.57821 
L 368.087169 229.57821 
L 368.551292 234.653846 
L 368.551292 234.653846 
L 369.015416 244.95359 
L 369.015416 244.95359 
L 369.943664 273.344086 
L 369.943664 273.344086 
L 370.639849 291.461625 
L 370.639849 291.461625 
L 370.871911 295.070898 
L 370.871911 295.070898 
L 371.103973 293.736171 
L 371.103973 293.736171 
L 371.336035 293.559381 
L 371.336035 293.559381 
L 371.568097 294.199193 
L 371.568097 294.199193 
L 371.800159 293.873164 
L 371.800159 293.873164 
L 372.03222 291.32004 
L 372.03222 291.32004 
L 372.728406 278.454161 
L 372.728406 278.454161 
L 372.960468 276.585238 
L 372.960468 276.585238 
L 373.19253 272.4808 
L 373.19253 272.4808 
L 373.424592 272.83591 
L 373.424592 272.83591 
L 373.656653 271.022856 
L 373.656653 271.022856 
L 373.888715 274.598454 
L 373.888715 274.598454 
L 374.120777 275.936242 
L 374.120777 275.936242 
L 374.816963 294.614764 
L 374.816963 294.614764 
L 375.049025 291.705764 
L 375.049025 291.705764 
L 375.281086 283.025448 
L 375.281086 283.025448 
L 375.513148 279.617455 
L 375.513148 279.617455 
L 375.74521 273.280564 
L 375.74521 273.280564 
L 375.977272 272.975965 
L 375.977272 272.975965 
L 376.209334 270.328706 
L 376.209334 270.328706 
L 376.441396 274.299977 
L 376.441396 274.299977 
L 376.673458 276.330384 
L 376.673458 276.330384 
L 377.137581 291.576424 
L 377.137581 291.576424 
L 377.369643 286.963045 
L 377.369643 286.963045 
L 377.833767 263.126232 
L 377.833767 263.126232 
L 378.762014 220.944579 
L 378.762014 220.944579 
L 379.226138 213.619653 
L 379.226138 213.619653 
L 379.4582 211.537204 
L 379.4582 211.537204 
L 379.922324 230.466753 
L 379.922324 230.466753 
L 380.618509 295.336466 
L 380.618509 295.336466 
L 381.314695 211.936704 
L 381.314695 211.936704 
L 382.01088 125.781006 
L 382.01088 125.781006 
L 382.707066 67.963763 
L 382.707066 67.963763 
L 382.939128 58.047447 
L 382.939128 58.047447 
L 383.17119 53.568 
L 383.17119 53.568 
L 383.403252 56.219851 
L 383.403252 56.219851 
L 383.635314 64.184588 
L 383.635314 64.184588 
L 384.099437 99.789038 
L 384.099437 99.789038 
L 384.563561 155.497811 
L 384.563561 155.497811 
L 385.491808 293.542544 
L 385.491808 293.542544 
L 386.420056 166.328691 
L 386.420056 166.328691 
L 386.88418 124.596283 
L 386.88418 124.596283 
L 387.348303 100.886515 
L 387.348303 100.886515 
L 387.580365 96.489722 
L 387.580365 96.489722 
L 387.812427 96.006037 
L 387.812427 96.006037 
L 388.044489 99.198208 
L 388.044489 99.198208 
L 388.508613 115.593 
L 388.508613 115.593 
L 389.204798 154.100328 
L 389.204798 154.100328 
L 390.829231 250.108054 
L 390.829231 250.108054 
L 391.525417 282.892281 
L 391.525417 282.892281 
L 391.757479 292.148122 
L 391.757479 292.148122 
L 391.989541 290.205727 
L 391.989541 290.205727 
L 392.685726 266.917652 
L 392.685726 266.917652 
L 393.613974 243.202526 
L 393.613974 243.202526 
L 394.310159 231.643057 
L 394.310159 231.643057 
L 394.774283 227.917455 
L 394.774283 227.917455 
L 395.006345 227.470505 
L 395.006345 227.470505 
L 395.238407 228.076643 
L 395.238407 228.076643 
L 395.70253 233.854847 
L 395.70253 233.854847 
L 396.166654 244.114028 
L 396.166654 244.114028 
L 396.630778 259.884315 
L 396.630778 259.884315 
L 397.326963 289.262846 
L 397.326963 289.262846 
L 397.559025 289.735817 
L 397.559025 289.735817 
L 398.023149 264.187738 
L 398.023149 264.187738 
L 398.255211 246.9442 
L 398.255211 246.9442 
L 398.487273 203.096435 
L 398.487273 203.096435 
" clip-path="url(#pa77aed0d80)" style="fill: none; stroke: #1f77b4; stroke-width: 1.5; stroke-linecap: square"/>
   </g>
   <g id="patch_3">
    <path d="M 57.6 307.584 
L 57.6 41.472 
" style="fill: none; stroke: #000000; stroke-width: 0.8; stroke-linejoin: miter; stroke-linecap: square"/>
   </g>
   <g id="patch_4">
    <path d="M 414.72 307.584 
L 414.72 41.472 
" style="fill: none; stroke: #000000; stroke-width: 0.8; stroke-linejoin: miter; stroke-linecap: square"/>
   </g>
   <g id="patch_5">
    <path d="M 57.6 307.584 
L 414.72 307.584 
" style="fill: none; stroke: #000000; stroke-width: 0.8; stroke-linejoin: miter; stroke-linecap: square"/>
   </g>
   <g id="patch_6">
    <path d="M 57.6 41.472 
L 414.72 41.472 
" style="fill: none; stroke: #000000; stroke-width: 0.8; stroke-linejoin: miter; stroke-linecap: square"/>
   </g>
   <g id="text_16">
    <!-- Tracking error vs Time -->
    <g transform="translate(169.584375 35.472) scale(0.12 -0.12)">
     <defs>
      <path id="DejaVuSans-76" d="M 191 3500 
L 800 3500 
L 1894 563 
L 2988 3500 
L 3597 3500 
L 2284 0 
L 1503 0 
L 191 3500 
z
" transform="scale(0.015625)"/>
     </defs>
     <use xlink:href="#DejaVuSans-54"/>
     <use xlink:href="#DejaVuSans-72" x="46.333984"/>
     <use xlink:href="#DejaVuSans-61" x="87.447266"/>
     <use xlink:href="#DejaVuSans-63" x="148.726562"/>
     <use xlink:href="#DejaVuSans-6b" x="203.707031"/>
     <use xlink:href="#DejaVuSans-69" x="261.617188"/>
     <use xlink:href="#DejaVuSans-6e" x="289.400391"/>
     <use xlink:href="#DejaVuSans-67" x="352.779297"/>
     <use xlink:href="#DejaVuSans-20" x="416.255859"/>
     <use xlink:href="#DejaVuSans-65" x="448.042969"/>
     <use xlink:href="#DejaVuSans-72" x="509.566406"/>
     <use xlink:href="#DejaVuSans-72" x="548.929688"/>
     <use xlink:href="#DejaVuSans-6f" x="587.792969"/>
     <use xlink:href="#DejaVuSans-72" x="648.974609"/>
     <use xlink:href="#DejaVuSans-20" x="690.087891"/>
     <use xlink:href="#DejaVuSans-76" x="721.875"/>
     <use xlink:href="#DejaVuSans-73" x="781.054688"/>
     <use xlink:href="#DejaVuSans-20" x="833.154297"/>
     <use xlink:href="#DejaVuSans-54" x="864.941406"/>
     <use xlink:href="#DejaVuSans-69" x="922.900391"/>
     <use xlink:href="#DejaVuSans-6d" x="950.683594"/>
     <use xlink:href="#DejaVuSans-65" x="1048.095703"/>
    </g>
   </g>
   <g id="legend_1">
    <g id="patch_7">
     <path d="M 64.6 64.150125 
L 161.31875 64.150125 
Q 163.31875 64.150125 163.31875 62.150125 
L 163.31875 48.472 
Q 163.31875 46.472 161.31875 46.472 
L 64.6 46.472 
Q 62.6 46.472 62.6 48.472 
L 62.6 62.150125 
Q 62.6 64.150125 64.6 64.150125 
z
" style="fill: #ffffff; opacity: 0.8; stroke: #cccccc; stroke-linejoin: miter"/>
    </g>
    <g id="line2d_28">
     <path d="M 66.6 54.570438 
L 76.6 54.570438 
L 86.6 54.570438 
" style="fill: none; stroke: #1f77b4; stroke-width: 1.5; stroke-linecap: square"/>
    </g>
    <g id="text_17">
     <!-- Actual speed -->
     <g transform="translate(94.6 58.070438) scale(0.1 -0.1)">
      <defs>
       <path id="DejaVuSans-41" d="M 2188 4044 
L 1331 1722 
L 3047 1722 
L 2188 4044 
z
M 1831 4666 
L 2547 4666 
L 4325 0 
L 3669 0 
L 3244 1197 
L 1141 1197 
L 716 0 
L 50 0 
L 1831 4666 
z
" transform="scale(0.015625)"/>
       <path id="DejaVuSans-74" d="M 1172 4494 
L 1172 3500 
L 2356 3500 
L 2356 3053 
L 1172 3053 
L 1172 1153 
Q 1172 725 1289 603 
Q 1406 481 1766 481 
L 2356 481 
L 2356 0 
L 1766 0 
Q 1100 0 847 248 
Q 594 497 594 1153 
L 594 3053 
L 172 3053 
L 172 3500 
L 594 3500 
L 594 4494 
L 1172 4494 
z
" transform="scale(0.015625)"/>
       <path id="DejaVuSans-75" d="M 544 1381 
L 544 3500 
L 1119 3500 
L 1119 1403 
Q 1119 906 1312 657 
Q 1506 409 1894 409 
Q 2359 409 2629 706 
Q 2900 1003 2900 1516 
L 2900 3500 
L 3475 3500 
L 3475 0 
L 2900 0 
L 2900 538 
Q 2691 219 2414 64 
Q 2138 -91 1772 -91 
Q 1169 -91 856 284 
Q 544 659 544 1381 
z
M 1991 3584 
L 1991 3584 
z
" transform="scale(0.015625)"/>
       <path id="DejaVuSans-6c" d="M 603 4863 
L 1178 4863 
L 1178 0 
L 603 0 
L 603 4863 
z
" transform="scale(0.015625)"/>
       <path id="DejaVuSans-70" d="M 1159 525 
L 1159 -1331 
L 581 -1331 
L 581 3500 
L 1159 3500 
L 1159 2969 
Q 1341 3281 1617 3432 
Q 1894 3584 2278 3584 
Q 2916 3584 3314 3078 
Q 3713 2572 3713 1747 
Q 3713 922 3314 415 
Q 2916 -91 2278 -91 
Q 1894 -91 1617 61 
Q 1341 213 1159 525 
z
M 3116 1747 
Q 3116 2381 2855 2742 
Q 2594 3103 2138 3103 
Q 1681 3103 1420 2742 
Q 1159 2381 1159 1747 
Q 1159 1113 1420 752 
Q 1681 391 2138 391 
Q 2594 391 2855 752 
Q 3116 1113 3116 1747 
z
" transform="scale(0.015625)"/>
       <path id="DejaVuSans-64" d="M 2906 2969 
L 2906 4863 
L 3481 4863 
L 3481 0 
L 2906 0 
L 2906 525 
Q 2725 213 2448 61 
Q 2172 -91 1784 -91 
Q 1150 -91 751 415 
Q 353 922 353 1747 
Q 353 2572 751 3078 
Q 1150 3584 1784 3584 
Q 2172 3584 2448 3432 
Q 2725 3281 2906 2969 
z
M 947 1747 
Q 947 1113 1208 752 
Q 1469 391 1925 391 
Q 2381 391 2643 752 
Q 2906 1113 2906 1747 
Q 2906 2381 2643 2742 
Q 2381 3103 1925 3103 
Q 1469 3103 1208 2742 
Q 947 2381 947 1747 
z
" transform="scale(0.015625)"/>
      </defs>
      <use xlink:href="#DejaVuSans-41"/>
      <use xlink:href="#DejaVuSans-63" x="66.658203"/>
      <use xlink:href="#DejaVuSans-74" x="121.638672"/>
      <use xlink:href="#DejaVuSans-75" x="160.847656"/>
      <use xlink:href="#DejaVuSans-61" x="224.226562"/>
      <use xlink:href="#DejaVuSans-6c" x="285.505859"/>
      <use xlink:href="#DejaVuSans-20" x="313.289062"/>
      <use xlink:href="#DejaVuSans-73" x="345.076172"/>
      <use xlink:href="#DejaVuSans-70" x="397.175781"/>
      <use xlink:href="#DejaVuSans-65" x="460.652344"/>
      <use xlink:href="#DejaVuSans-65" x="522.175781"/>
      <use xlink:href="#DejaVuSans-64" x="583.699219"/>
     </g>
    </g>
   </g>
  </g>
 </g>
 <defs>
  <clipPath id="pa77aed0d80">
   <rect x="57.6" y="41.472" width="357.12" height="266.112"/>
  </clipPath>
 </defs>
</svg>
