<?xml version="1.0" encoding="utf-8" standalone="no"?>
<!DOCTYPE svg PUBLIC "-//W3C//DTD SVG 1.1//EN"
  "http://www.w3.org/Graphics/SVG/1.1/DTD/svg11.dtd">
<svg xmlns:xlink="http://www.w3.org/1999/xlink" width="460.8pt" height="345.6pt" viewBox="0 0 460.8 345.6" xmlns="http://www.w3.org/2000/svg" version="1.1">
 <metadata>
  <rdf:RDF xmlns:dc="http://purl.org/dc/elements/1.1/" xmlns:cc="http://creativecommons.org/ns#" xmlns:rdf="http://www.w3.org/1999/02/22-rdf-syntax-ns#">
   <cc:Work>
    <dc:type rdf:resource="http://purl.org/dc/dcmitype/StillImage"/>
    <dc:date>2024-01-30T20:59:33.922029</dc:date>
    <dc:format>image/svg+xml</dc:format>
    <dc:creator>
     <cc:Agent>
      <dc:title>Matplotlib v3.7.1, https://matplotlib.org/</dc:title>
     </cc:Agent>
    </dc:creator>
   </cc:Work>
  </rdf:RDF>
 </metadata>
 <defs>
  <style type="text/css">*{stroke-linejoin: round; stroke-linecap: butt}</style>
 </defs>
 <g id="figure_1">
  <g id="patch_1">
   <path d="M 0 345.6 
L 460.8 345.6 
L 460.8 0 
L 0 0 
z
" style="fill: #ffffff"/>
  </g>
  <g id="axes_1">
   <g id="patch_2">
    <path d="M 57.6 307.584 
L 414.72 307.584 
L 414.72 41.472 
L 57.6 41.472 
z
" style="fill: #ffffff"/>
   </g>
   <g id="matplotlib.axis_1">
    <g id="xtick_1">
     <g id="line2d_1">
      <path d="M 73.832727 307.584 
L 73.832727 41.472 
" clip-path="url(#p256e48098b)" style="fill: none; stroke: #b0b0b0; stroke-width: 0.8; stroke-linecap: square"/>
     </g>
     <g id="line2d_2">
      <defs>
       <path id="m59a0ba328f" d="M 0 0 
L 0 3.5 
" style="stroke: #000000; stroke-width: 0.8"/>
      </defs>
      <g>
       <use xlink:href="#m59a0ba328f" x="73.832727" y="307.584" style="stroke: #000000; stroke-width: 0.8"/>
      </g>
     </g>
     <g id="text_1">
      <!-- 0 -->
      <g transform="translate(70.651477 322.182437) scale(0.1 -0.1)">
       <defs>
        <path id="DejaVuSans-30" d="M 2034 4250 
Q 1547 4250 1301 3770 
Q 1056 3291 1056 2328 
Q 1056 1369 1301 889 
Q 1547 409 2034 409 
Q 2525 409 2770 889 
Q 3016 1369 3016 2328 
Q 3016 3291 2770 3770 
Q 2525 4250 2034 4250 
z
M 2034 4750 
Q 2819 4750 3233 4129 
Q 3647 3509 3647 2328 
Q 3647 1150 3233 529 
Q 2819 -91 2034 -91 
Q 1250 -91 836 529 
Q 422 1150 422 2328 
Q 422 3509 836 4129 
Q 1250 4750 2034 4750 
z
" transform="scale(0.015625)"/>
       </defs>
       <use xlink:href="#DejaVuSans-30"/>
      </g>
     </g>
    </g>
    <g id="xtick_2">
     <g id="line2d_3">
      <path d="M 123.474095 307.584 
L 123.474095 41.472 
" clip-path="url(#p256e48098b)" style="fill: none; stroke: #b0b0b0; stroke-width: 0.8; stroke-linecap: square"/>
     </g>
     <g id="line2d_4">
      <g>
       <use xlink:href="#m59a0ba328f" x="123.474095" y="307.584" style="stroke: #000000; stroke-width: 0.8"/>
      </g>
     </g>
     <g id="text_2">
      <!-- 1 -->
      <g transform="translate(120.292845 322.182437) scale(0.1 -0.1)">
       <defs>
        <path id="DejaVuSans-31" d="M 794 531 
L 1825 531 
L 1825 4091 
L 703 3866 
L 703 4441 
L 1819 4666 
L 2450 4666 
L 2450 531 
L 3481 531 
L 3481 0 
L 794 0 
L 794 531 
z
" transform="scale(0.015625)"/>
       </defs>
       <use xlink:href="#DejaVuSans-31"/>
      </g>
     </g>
    </g>
    <g id="xtick_3">
     <g id="line2d_5">
      <path d="M 173.115463 307.584 
L 173.115463 41.472 
" clip-path="url(#p256e48098b)" style="fill: none; stroke: #b0b0b0; stroke-width: 0.8; stroke-linecap: square"/>
     </g>
     <g id="line2d_6">
      <g>
       <use xlink:href="#m59a0ba328f" x="173.115463" y="307.584" style="stroke: #000000; stroke-width: 0.8"/>
      </g>
     </g>
     <g id="text_3">
      <!-- 2 -->
      <g transform="translate(169.934213 322.182437) scale(0.1 -0.1)">
       <defs>
        <path id="DejaVuSans-32" d="M 1228 531 
L 3431 531 
L 3431 0 
L 469 0 
L 469 531 
Q 828 903 1448 1529 
Q 2069 2156 2228 2338 
Q 2531 2678 2651 2914 
Q 2772 3150 2772 3378 
Q 2772 3750 2511 3984 
Q 2250 4219 1831 4219 
Q 1534 4219 1204 4116 
Q 875 4013 500 3803 
L 500 4441 
Q 881 4594 1212 4672 
Q 1544 4750 1819 4750 
Q 2544 4750 2975 4387 
Q 3406 4025 3406 3419 
Q 3406 3131 3298 2873 
Q 3191 2616 2906 2266 
Q 2828 2175 2409 1742 
Q 1991 1309 1228 531 
z
" transform="scale(0.015625)"/>
       </defs>
       <use xlink:href="#DejaVuSans-32"/>
      </g>
     </g>
    </g>
    <g id="xtick_4">
     <g id="line2d_7">
      <path d="M 222.756831 307.584 
L 222.756831 41.472 
" clip-path="url(#p256e48098b)" style="fill: none; stroke: #b0b0b0; stroke-width: 0.8; stroke-linecap: square"/>
     </g>
     <g id="line2d_8">
      <g>
       <use xlink:href="#m59a0ba328f" x="222.756831" y="307.584" style="stroke: #000000; stroke-width: 0.8"/>
      </g>
     </g>
     <g id="text_4">
      <!-- 3 -->
      <g transform="translate(219.575581 322.182437) scale(0.1 -0.1)">
       <defs>
        <path id="DejaVuSans-33" d="M 2597 2516 
Q 3050 2419 3304 2112 
Q 3559 1806 3559 1356 
Q 3559 666 3084 287 
Q 2609 -91 1734 -91 
Q 1441 -91 1130 -33 
Q 819 25 488 141 
L 488 750 
Q 750 597 1062 519 
Q 1375 441 1716 441 
Q 2309 441 2620 675 
Q 2931 909 2931 1356 
Q 2931 1769 2642 2001 
Q 2353 2234 1838 2234 
L 1294 2234 
L 1294 2753 
L 1863 2753 
Q 2328 2753 2575 2939 
Q 2822 3125 2822 3475 
Q 2822 3834 2567 4026 
Q 2313 4219 1838 4219 
Q 1578 4219 1281 4162 
Q 984 4106 628 3988 
L 628 4550 
Q 988 4650 1302 4700 
Q 1616 4750 1894 4750 
Q 2613 4750 3031 4423 
Q 3450 4097 3450 3541 
Q 3450 3153 3228 2886 
Q 3006 2619 2597 2516 
z
" transform="scale(0.015625)"/>
       </defs>
       <use xlink:href="#DejaVuSans-33"/>
      </g>
     </g>
    </g>
    <g id="xtick_5">
     <g id="line2d_9">
      <path d="M 272.398198 307.584 
L 272.398198 41.472 
" clip-path="url(#p256e48098b)" style="fill: none; stroke: #b0b0b0; stroke-width: 0.8; stroke-linecap: square"/>
     </g>
     <g id="line2d_10">
      <g>
       <use xlink:href="#m59a0ba328f" x="272.398198" y="307.584" style="stroke: #000000; stroke-width: 0.8"/>
      </g>
     </g>
     <g id="text_5">
      <!-- 4 -->
      <g transform="translate(269.216948 322.182437) scale(0.1 -0.1)">
       <defs>
        <path id="DejaVuSans-34" d="M 2419 4116 
L 825 1625 
L 2419 1625 
L 2419 4116 
z
M 2253 4666 
L 3047 4666 
L 3047 1625 
L 3713 1625 
L 3713 1100 
L 3047 1100 
L 3047 0 
L 2419 0 
L 2419 1100 
L 313 1100 
L 313 1709 
L 2253 4666 
z
" transform="scale(0.015625)"/>
       </defs>
       <use xlink:href="#DejaVuSans-34"/>
      </g>
     </g>
    </g>
    <g id="xtick_6">
     <g id="line2d_11">
      <path d="M 322.039566 307.584 
L 322.039566 41.472 
" clip-path="url(#p256e48098b)" style="fill: none; stroke: #b0b0b0; stroke-width: 0.8; stroke-linecap: square"/>
     </g>
     <g id="line2d_12">
      <g>
       <use xlink:href="#m59a0ba328f" x="322.039566" y="307.584" style="stroke: #000000; stroke-width: 0.8"/>
      </g>
     </g>
     <g id="text_6">
      <!-- 5 -->
      <g transform="translate(318.858316 322.182437) scale(0.1 -0.1)">
       <defs>
        <path id="DejaVuSans-35" d="M 691 4666 
L 3169 4666 
L 3169 4134 
L 1269 4134 
L 1269 2991 
Q 1406 3038 1543 3061 
Q 1681 3084 1819 3084 
Q 2600 3084 3056 2656 
Q 3513 2228 3513 1497 
Q 3513 744 3044 326 
Q 2575 -91 1722 -91 
Q 1428 -91 1123 -41 
Q 819 9 494 109 
L 494 744 
Q 775 591 1075 516 
Q 1375 441 1709 441 
Q 2250 441 2565 725 
Q 2881 1009 2881 1497 
Q 2881 1984 2565 2268 
Q 2250 2553 1709 2553 
Q 1456 2553 1204 2497 
Q 953 2441 691 2322 
L 691 4666 
z
" transform="scale(0.015625)"/>
       </defs>
       <use xlink:href="#DejaVuSans-35"/>
      </g>
     </g>
    </g>
    <g id="xtick_7">
     <g id="line2d_13">
      <path d="M 371.680934 307.584 
L 371.680934 41.472 
" clip-path="url(#p256e48098b)" style="fill: none; stroke: #b0b0b0; stroke-width: 0.8; stroke-linecap: square"/>
     </g>
     <g id="line2d_14">
      <g>
       <use xlink:href="#m59a0ba328f" x="371.680934" y="307.584" style="stroke: #000000; stroke-width: 0.8"/>
      </g>
     </g>
     <g id="text_7">
      <!-- 6 -->
      <g transform="translate(368.499684 322.182437) scale(0.1 -0.1)">
       <defs>
        <path id="DejaVuSans-36" d="M 2113 2584 
Q 1688 2584 1439 2293 
Q 1191 2003 1191 1497 
Q 1191 994 1439 701 
Q 1688 409 2113 409 
Q 2538 409 2786 701 
Q 3034 994 3034 1497 
Q 3034 2003 2786 2293 
Q 2538 2584 2113 2584 
z
M 3366 4563 
L 3366 3988 
Q 3128 4100 2886 4159 
Q 2644 4219 2406 4219 
Q 1781 4219 1451 3797 
Q 1122 3375 1075 2522 
Q 1259 2794 1537 2939 
Q 1816 3084 2150 3084 
Q 2853 3084 3261 2657 
Q 3669 2231 3669 1497 
Q 3669 778 3244 343 
Q 2819 -91 2113 -91 
Q 1303 -91 875 529 
Q 447 1150 447 2328 
Q 447 3434 972 4092 
Q 1497 4750 2381 4750 
Q 2619 4750 2861 4703 
Q 3103 4656 3366 4563 
z
" transform="scale(0.015625)"/>
       </defs>
       <use xlink:href="#DejaVuSans-36"/>
      </g>
     </g>
    </g>
    <g id="text_8">
     <!-- Time(s) -->
     <g transform="translate(217.420156 335.860562) scale(0.1 -0.1)">
      <defs>
       <path id="DejaVuSans-54" d="M -19 4666 
L 3928 4666 
L 3928 4134 
L 2272 4134 
L 2272 0 
L 1638 0 
L 1638 4134 
L -19 4134 
L -19 4666 
z
" transform="scale(0.015625)"/>
       <path id="DejaVuSans-69" d="M 603 3500 
L 1178 3500 
L 1178 0 
L 603 0 
L 603 3500 
z
M 603 4863 
L 1178 4863 
L 1178 4134 
L 603 4134 
L 603 4863 
z
" transform="scale(0.015625)"/>
       <path id="DejaVuSans-6d" d="M 3328 2828 
Q 3544 3216 3844 3400 
Q 4144 3584 4550 3584 
Q 5097 3584 5394 3201 
Q 5691 2819 5691 2113 
L 5691 0 
L 5113 0 
L 5113 2094 
Q 5113 2597 4934 2840 
Q 4756 3084 4391 3084 
Q 3944 3084 3684 2787 
Q 3425 2491 3425 1978 
L 3425 0 
L 2847 0 
L 2847 2094 
Q 2847 2600 2669 2842 
Q 2491 3084 2119 3084 
Q 1678 3084 1418 2786 
Q 1159 2488 1159 1978 
L 1159 0 
L 581 0 
L 581 3500 
L 1159 3500 
L 1159 2956 
Q 1356 3278 1631 3431 
Q 1906 3584 2284 3584 
Q 2666 3584 2933 3390 
Q 3200 3197 3328 2828 
z
" transform="scale(0.015625)"/>
       <path id="DejaVuSans-65" d="M 3597 1894 
L 3597 1613 
L 953 1613 
Q 991 1019 1311 708 
Q 1631 397 2203 397 
Q 2534 397 2845 478 
Q 3156 559 3463 722 
L 3463 178 
Q 3153 47 2828 -22 
Q 2503 -91 2169 -91 
Q 1331 -91 842 396 
Q 353 884 353 1716 
Q 353 2575 817 3079 
Q 1281 3584 2069 3584 
Q 2775 3584 3186 3129 
Q 3597 2675 3597 1894 
z
M 3022 2063 
Q 3016 2534 2758 2815 
Q 2500 3097 2075 3097 
Q 1594 3097 1305 2825 
Q 1016 2553 972 2059 
L 3022 2063 
z
" transform="scale(0.015625)"/>
       <path id="DejaVuSans-28" d="M 1984 4856 
Q 1566 4138 1362 3434 
Q 1159 2731 1159 2009 
Q 1159 1288 1364 580 
Q 1569 -128 1984 -844 
L 1484 -844 
Q 1016 -109 783 600 
Q 550 1309 550 2009 
Q 550 2706 781 3412 
Q 1013 4119 1484 4856 
L 1984 4856 
z
" transform="scale(0.015625)"/>
       <path id="DejaVuSans-73" d="M 2834 3397 
L 2834 2853 
Q 2591 2978 2328 3040 
Q 2066 3103 1784 3103 
Q 1356 3103 1142 2972 
Q 928 2841 928 2578 
Q 928 2378 1081 2264 
Q 1234 2150 1697 2047 
L 1894 2003 
Q 2506 1872 2764 1633 
Q 3022 1394 3022 966 
Q 3022 478 2636 193 
Q 2250 -91 1575 -91 
Q 1294 -91 989 -36 
Q 684 19 347 128 
L 347 722 
Q 666 556 975 473 
Q 1284 391 1588 391 
Q 1994 391 2212 530 
Q 2431 669 2431 922 
Q 2431 1156 2273 1281 
Q 2116 1406 1581 1522 
L 1381 1569 
Q 847 1681 609 1914 
Q 372 2147 372 2553 
Q 372 3047 722 3315 
Q 1072 3584 1716 3584 
Q 2034 3584 2315 3537 
Q 2597 3491 2834 3397 
z
" transform="scale(0.015625)"/>
       <path id="DejaVuSans-29" d="M 513 4856 
L 1013 4856 
Q 1481 4119 1714 3412 
Q 1947 2706 1947 2009 
Q 1947 1309 1714 600 
Q 1481 -109 1013 -844 
L 513 -844 
Q 928 -128 1133 580 
Q 1338 1288 1338 2009 
Q 1338 2731 1133 3434 
Q 928 4138 513 4856 
z
" transform="scale(0.015625)"/>
      </defs>
      <use xlink:href="#DejaVuSans-54"/>
      <use xlink:href="#DejaVuSans-69" x="57.958984"/>
      <use xlink:href="#DejaVuSans-6d" x="85.742188"/>
      <use xlink:href="#DejaVuSans-65" x="183.154297"/>
      <use xlink:href="#DejaVuSans-28" x="244.677734"/>
      <use xlink:href="#DejaVuSans-73" x="283.691406"/>
      <use xlink:href="#DejaVuSans-29" x="335.791016"/>
     </g>
    </g>
   </g>
   <g id="matplotlib.axis_2">
    <g id="ytick_1">
     <g id="line2d_15">
      <path d="M 57.6 295.488 
L 414.72 295.488 
" clip-path="url(#p256e48098b)" style="fill: none; stroke: #b0b0b0; stroke-width: 0.8; stroke-linecap: square"/>
     </g>
     <g id="line2d_16">
      <defs>
       <path id="m12da5461f4" d="M 0 0 
L -3.5 0 
" style="stroke: #000000; stroke-width: 0.8"/>
      </defs>
      <g>
       <use xlink:href="#m12da5461f4" x="57.6" y="295.488" style="stroke: #000000; stroke-width: 0.8"/>
      </g>
     </g>
     <g id="text_9">
      <!-- 0.0 -->
      <g transform="translate(34.696875 299.287219) scale(0.1 -0.1)">
       <defs>
        <path id="DejaVuSans-2e" d="M 684 794 
L 1344 794 
L 1344 0 
L 684 0 
L 684 794 
z
" transform="scale(0.015625)"/>
       </defs>
       <use xlink:href="#DejaVuSans-30"/>
       <use xlink:href="#DejaVuSans-2e" x="63.623047"/>
       <use xlink:href="#DejaVuSans-30" x="95.410156"/>
      </g>
     </g>
    </g>
    <g id="ytick_2">
     <g id="line2d_17">
      <path d="M 57.6 250.812925 
L 414.72 250.812925 
" clip-path="url(#p256e48098b)" style="fill: none; stroke: #b0b0b0; stroke-width: 0.8; stroke-linecap: square"/>
     </g>
     <g id="line2d_18">
      <g>
       <use xlink:href="#m12da5461f4" x="57.6" y="250.812925" style="stroke: #000000; stroke-width: 0.8"/>
      </g>
     </g>
     <g id="text_10">
      <!-- 0.2 -->
      <g transform="translate(34.696875 254.612143) scale(0.1 -0.1)">
       <use xlink:href="#DejaVuSans-30"/>
       <use xlink:href="#DejaVuSans-2e" x="63.623047"/>
       <use xlink:href="#DejaVuSans-32" x="95.410156"/>
      </g>
     </g>
    </g>
    <g id="ytick_3">
     <g id="line2d_19">
      <path d="M 57.6 206.137849 
L 414.72 206.137849 
" clip-path="url(#p256e48098b)" style="fill: none; stroke: #b0b0b0; stroke-width: 0.8; stroke-linecap: square"/>
     </g>
     <g id="line2d_20">
      <g>
       <use xlink:href="#m12da5461f4" x="57.6" y="206.137849" style="stroke: #000000; stroke-width: 0.8"/>
      </g>
     </g>
     <g id="text_11">
      <!-- 0.4 -->
      <g transform="translate(34.696875 209.937068) scale(0.1 -0.1)">
       <use xlink:href="#DejaVuSans-30"/>
       <use xlink:href="#DejaVuSans-2e" x="63.623047"/>
       <use xlink:href="#DejaVuSans-34" x="95.410156"/>
      </g>
     </g>
    </g>
    <g id="ytick_4">
     <g id="line2d_21">
      <path d="M 57.6 161.462774 
L 414.72 161.462774 
" clip-path="url(#p256e48098b)" style="fill: none; stroke: #b0b0b0; stroke-width: 0.8; stroke-linecap: square"/>
     </g>
     <g id="line2d_22">
      <g>
       <use xlink:href="#m12da5461f4" x="57.6" y="161.462774" style="stroke: #000000; stroke-width: 0.8"/>
      </g>
     </g>
     <g id="text_12">
      <!-- 0.6 -->
      <g transform="translate(34.696875 165.261993) scale(0.1 -0.1)">
       <use xlink:href="#DejaVuSans-30"/>
       <use xlink:href="#DejaVuSans-2e" x="63.623047"/>
       <use xlink:href="#DejaVuSans-36" x="95.410156"/>
      </g>
     </g>
    </g>
    <g id="ytick_5">
     <g id="line2d_23">
      <path d="M 57.6 116.787699 
L 414.72 116.787699 
" clip-path="url(#p256e48098b)" style="fill: none; stroke: #b0b0b0; stroke-width: 0.8; stroke-linecap: square"/>
     </g>
     <g id="line2d_24">
      <g>
       <use xlink:href="#m12da5461f4" x="57.6" y="116.787699" style="stroke: #000000; stroke-width: 0.8"/>
      </g>
     </g>
     <g id="text_13">
      <!-- 0.8 -->
      <g transform="translate(34.696875 120.586918) scale(0.1 -0.1)">
       <defs>
        <path id="DejaVuSans-38" d="M 2034 2216 
Q 1584 2216 1326 1975 
Q 1069 1734 1069 1313 
Q 1069 891 1326 650 
Q 1584 409 2034 409 
Q 2484 409 2743 651 
Q 3003 894 3003 1313 
Q 3003 1734 2745 1975 
Q 2488 2216 2034 2216 
z
M 1403 2484 
Q 997 2584 770 2862 
Q 544 3141 544 3541 
Q 544 4100 942 4425 
Q 1341 4750 2034 4750 
Q 2731 4750 3128 4425 
Q 3525 4100 3525 3541 
Q 3525 3141 3298 2862 
Q 3072 2584 2669 2484 
Q 3125 2378 3379 2068 
Q 3634 1759 3634 1313 
Q 3634 634 3220 271 
Q 2806 -91 2034 -91 
Q 1263 -91 848 271 
Q 434 634 434 1313 
Q 434 1759 690 2068 
Q 947 2378 1403 2484 
z
M 1172 3481 
Q 1172 3119 1398 2916 
Q 1625 2713 2034 2713 
Q 2441 2713 2670 2916 
Q 2900 3119 2900 3481 
Q 2900 3844 2670 4047 
Q 2441 4250 2034 4250 
Q 1625 4250 1398 4047 
Q 1172 3844 1172 3481 
z
" transform="scale(0.015625)"/>
       </defs>
       <use xlink:href="#DejaVuSans-30"/>
       <use xlink:href="#DejaVuSans-2e" x="63.623047"/>
       <use xlink:href="#DejaVuSans-38" x="95.410156"/>
      </g>
     </g>
    </g>
    <g id="ytick_6">
     <g id="line2d_25">
      <path d="M 57.6 72.112624 
L 414.72 72.112624 
" clip-path="url(#p256e48098b)" style="fill: none; stroke: #b0b0b0; stroke-width: 0.8; stroke-linecap: square"/>
     </g>
     <g id="line2d_26">
      <g>
       <use xlink:href="#m12da5461f4" x="57.6" y="72.112624" style="stroke: #000000; stroke-width: 0.8"/>
      </g>
     </g>
     <g id="text_14">
      <!-- 1.0 -->
      <g transform="translate(34.696875 75.911842) scale(0.1 -0.1)">
       <use xlink:href="#DejaVuSans-31"/>
       <use xlink:href="#DejaVuSans-2e" x="63.623047"/>
       <use xlink:href="#DejaVuSans-30" x="95.410156"/>
      </g>
     </g>
    </g>
    <g id="text_15">
     <!-- Tracking error(m) -->
     <g transform="translate(28.617187 217.803781) rotate(-90) scale(0.1 -0.1)">
      <defs>
       <path id="DejaVuSans-72" d="M 2631 2963 
Q 2534 3019 2420 3045 
Q 2306 3072 2169 3072 
Q 1681 3072 1420 2755 
Q 1159 2438 1159 1844 
L 1159 0 
L 581 0 
L 581 3500 
L 1159 3500 
L 1159 2956 
Q 1341 3275 1631 3429 
Q 1922 3584 2338 3584 
Q 2397 3584 2469 3576 
Q 2541 3569 2628 3553 
L 2631 2963 
z
" transform="scale(0.015625)"/>
       <path id="DejaVuSans-61" d="M 2194 1759 
Q 1497 1759 1228 1600 
Q 959 1441 959 1056 
Q 959 750 1161 570 
Q 1363 391 1709 391 
Q 2188 391 2477 730 
Q 2766 1069 2766 1631 
L 2766 1759 
L 2194 1759 
z
M 3341 1997 
L 3341 0 
L 2766 0 
L 2766 531 
Q 2569 213 2275 61 
Q 1981 -91 1556 -91 
Q 1019 -91 701 211 
Q 384 513 384 1019 
Q 384 1609 779 1909 
Q 1175 2209 1959 2209 
L 2766 2209 
L 2766 2266 
Q 2766 2663 2505 2880 
Q 2244 3097 1772 3097 
Q 1472 3097 1187 3025 
Q 903 2953 641 2809 
L 641 3341 
Q 956 3463 1253 3523 
Q 1550 3584 1831 3584 
Q 2591 3584 2966 3190 
Q 3341 2797 3341 1997 
z
" transform="scale(0.015625)"/>
       <path id="DejaVuSans-63" d="M 3122 3366 
L 3122 2828 
Q 2878 2963 2633 3030 
Q 2388 3097 2138 3097 
Q 1578 3097 1268 2742 
Q 959 2388 959 1747 
Q 959 1106 1268 751 
Q 1578 397 2138 397 
Q 2388 397 2633 464 
Q 2878 531 3122 666 
L 3122 134 
Q 2881 22 2623 -34 
Q 2366 -91 2075 -91 
Q 1284 -91 818 406 
Q 353 903 353 1747 
Q 353 2603 823 3093 
Q 1294 3584 2113 3584 
Q 2378 3584 2631 3529 
Q 2884 3475 3122 3366 
z
" transform="scale(0.015625)"/>
       <path id="DejaVuSans-6b" d="M 581 4863 
L 1159 4863 
L 1159 1991 
L 2875 3500 
L 3609 3500 
L 1753 1863 
L 3688 0 
L 2938 0 
L 1159 1709 
L 1159 0 
L 581 0 
L 581 4863 
z
" transform="scale(0.015625)"/>
       <path id="DejaVuSans-6e" d="M 3513 2113 
L 3513 0 
L 2938 0 
L 2938 2094 
Q 2938 2591 2744 2837 
Q 2550 3084 2163 3084 
Q 1697 3084 1428 2787 
Q 1159 2491 1159 1978 
L 1159 0 
L 581 0 
L 581 3500 
L 1159 3500 
L 1159 2956 
Q 1366 3272 1645 3428 
Q 1925 3584 2291 3584 
Q 2894 3584 3203 3211 
Q 3513 2838 3513 2113 
z
" transform="scale(0.015625)"/>
       <path id="DejaVuSans-67" d="M 2906 1791 
Q 2906 2416 2648 2759 
Q 2391 3103 1925 3103 
Q 1463 3103 1205 2759 
Q 947 2416 947 1791 
Q 947 1169 1205 825 
Q 1463 481 1925 481 
Q 2391 481 2648 825 
Q 2906 1169 2906 1791 
z
M 3481 434 
Q 3481 -459 3084 -895 
Q 2688 -1331 1869 -1331 
Q 1566 -1331 1297 -1286 
Q 1028 -1241 775 -1147 
L 775 -588 
Q 1028 -725 1275 -790 
Q 1522 -856 1778 -856 
Q 2344 -856 2625 -561 
Q 2906 -266 2906 331 
L 2906 616 
Q 2728 306 2450 153 
Q 2172 0 1784 0 
Q 1141 0 747 490 
Q 353 981 353 1791 
Q 353 2603 747 3093 
Q 1141 3584 1784 3584 
Q 2172 3584 2450 3431 
Q 2728 3278 2906 2969 
L 2906 3500 
L 3481 3500 
L 3481 434 
z
" transform="scale(0.015625)"/>
       <path id="DejaVuSans-20" transform="scale(0.015625)"/>
       <path id="DejaVuSans-6f" d="M 1959 3097 
Q 1497 3097 1228 2736 
Q 959 2375 959 1747 
Q 959 1119 1226 758 
Q 1494 397 1959 397 
Q 2419 397 2687 759 
Q 2956 1122 2956 1747 
Q 2956 2369 2687 2733 
Q 2419 3097 1959 3097 
z
M 1959 3584 
Q 2709 3584 3137 3096 
Q 3566 2609 3566 1747 
Q 3566 888 3137 398 
Q 2709 -91 1959 -91 
Q 1206 -91 779 398 
Q 353 888 353 1747 
Q 353 2609 779 3096 
Q 1206 3584 1959 3584 
z
" transform="scale(0.015625)"/>
      </defs>
      <use xlink:href="#DejaVuSans-54"/>
      <use xlink:href="#DejaVuSans-72" x="46.333984"/>
      <use xlink:href="#DejaVuSans-61" x="87.447266"/>
      <use xlink:href="#DejaVuSans-63" x="148.726562"/>
      <use xlink:href="#DejaVuSans-6b" x="203.707031"/>
      <use xlink:href="#DejaVuSans-69" x="261.617188"/>
      <use xlink:href="#DejaVuSans-6e" x="289.400391"/>
      <use xlink:href="#DejaVuSans-67" x="352.779297"/>
      <use xlink:href="#DejaVuSans-20" x="416.255859"/>
      <use xlink:href="#DejaVuSans-65" x="448.042969"/>
      <use xlink:href="#DejaVuSans-72" x="509.566406"/>
      <use xlink:href="#DejaVuSans-72" x="548.929688"/>
      <use xlink:href="#DejaVuSans-6f" x="587.792969"/>
      <use xlink:href="#DejaVuSans-72" x="648.974609"/>
      <use xlink:href="#DejaVuSans-28" x="690.087891"/>
      <use xlink:href="#DejaVuSans-6d" x="729.101562"/>
      <use xlink:href="#DejaVuSans-29" x="826.513672"/>
     </g>
    </g>
   </g>
   <g id="line2d_27">
    <path d="M 73.832727 295.488 
L 76.811209 295.488 
L 76.811209 295.488 
L 78.796864 295.212802 
L 78.796864 295.212802 
L 80.782519 294.983842 
L 80.782519 294.983842 
L 81.775346 295.112729 
L 81.775346 295.112729 
L 82.768173 295.408925 
L 82.768173 295.408925 
L 83.761001 295.098657 
L 83.761001 295.098657 
L 84.753828 294.483034 
L 84.753828 294.483034 
L 85.746656 292.687096 
L 85.746656 292.687096 
L 86.739483 291.993516 
L 86.739483 291.993516 
L 87.73231 291.149603 
L 87.73231 291.149603 
L 88.725138 290.134809 
L 88.725138 290.134809 
L 90.710792 287.674999 
L 90.710792 287.674999 
L 96.667756 279.736462 
L 96.667756 279.736462 
L 97.660584 278.755174 
L 97.660584 278.755174 
L 99.646239 277.403306 
L 99.646239 277.403306 
L 100.639066 277.45848 
L 100.639066 277.45848 
L 101.631893 277.999272 
L 101.631893 277.999272 
L 102.624721 279.049359 
L 102.624721 279.049359 
L 103.617548 280.585735 
L 103.617548 280.585735 
L 104.610375 282.450026 
L 104.610375 282.450026 
L 106.59603 287.450954 
L 106.59603 287.450954 
L 108.581685 293.23995 
L 108.581685 293.23995 
L 109.574512 295.488 
L 109.574512 295.488 
L 110.567339 291.468807 
L 110.567339 291.468807 
L 112.552994 285.708179 
L 112.552994 285.708179 
L 113.545822 283.222681 
L 113.545822 283.222681 
L 114.538649 281.305674 
L 114.538649 281.305674 
L 115.531476 279.893718 
L 115.531476 279.893718 
L 116.524304 279.206616 
L 116.524304 279.206616 
L 117.517131 279.358287 
L 117.517131 279.358287 
L 118.509958 280.232355 
L 118.509958 280.232355 
L 119.502786 281.880866 
L 119.502786 281.880866 
L 120.495613 284.269195 
L 120.495613 284.269195 
L 121.48844 287.240758 
L 121.48844 287.240758 
L 123.474095 294.72897 
L 123.474095 294.72897 
L 124.466922 291.986814 
L 124.466922 291.986814 
L 127.445405 278.800743 
L 127.445405 278.800743 
L 128.438232 274.819747 
L 128.438232 274.819747 
L 129.431059 271.379319 
L 129.431059 271.379319 
L 130.423887 268.669552 
L 130.423887 268.669552 
L 131.416714 266.772202 
L 131.416714 266.772202 
L 132.409541 265.802083 
L 133.402369 265.760982 
L 133.402369 265.760982 
L 134.395196 266.693574 
L 134.395196 266.693574 
L 135.388023 268.487501 
L 135.388023 268.487501 
L 136.380851 271.217148 
L 136.380851 271.217148 
L 137.373678 274.67634 
L 137.373678 274.67634 
L 138.366505 278.82375 
L 138.366505 278.82375 
L 141.344987 293.371518 
L 141.344987 293.371518 
L 142.337815 292.813527 
L 143.330642 288.172456 
L 143.330642 288.172456 
L 144.32347 284.101887 
L 144.32347 284.101887 
L 145.316297 280.528104 
L 146.309124 277.596973 
L 146.309124 277.596973 
L 147.301952 275.635513 
L 147.301952 275.635513 
L 148.294779 274.291464 
L 148.294779 274.291464 
L 149.287606 273.697955 
L 149.287606 273.697955 
L 150.280434 274.136218 
L 150.280434 274.136218 
L 151.273261 275.107677 
L 151.273261 275.107677 
L 152.266088 276.648297 
L 152.266088 276.648297 
L 154.251743 281.435008 
L 154.251743 281.435008 
L 155.24457 284.149019 
L 155.24457 284.149019 
L 157.230225 290.180824 
L 157.230225 290.180824 
L 159.21588 295.485319 
L 159.21588 295.485319 
L 160.208707 292.877635 
L 160.208707 292.877635 
L 161.201535 290.851397 
L 161.201535 290.851397 
L 163.187189 287.774178 
L 163.187189 287.774178 
L 164.180017 286.858339 
L 164.180017 286.858339 
L 165.172844 286.310399 
L 166.165671 286.08613 
L 166.165671 286.08613 
L 167.158499 286.127455 
L 167.158499 286.127455 
L 168.151326 286.03185 
L 168.151326 286.03185 
L 171.129808 287.078364 
L 171.129808 287.078364 
L 174.10829 286.910386 
L 174.10829 286.910386 
L 175.101118 286.549188 
L 175.101118 286.549188 
L 176.093945 285.960817 
L 176.093945 285.960817 
L 179.072427 282.407585 
L 179.072427 282.407585 
L 180.065254 281.047452 
L 180.065254 281.047452 
L 182.050909 277.908581 
L 182.050909 277.908581 
L 183.043736 276.570116 
L 183.043736 276.570116 
L 184.036564 275.472003 
L 184.036564 275.472003 
L 186.022219 273.876656 
L 186.022219 273.876656 
L 187.015046 273.723197 
L 187.015046 273.723197 
L 188.007873 274.066078 
L 189.993528 275.890831 
L 189.993528 275.890831 
L 190.986355 277.650806 
L 190.986355 277.650806 
L 191.979183 279.882996 
L 191.979183 279.882996 
L 193.964837 285.18079 
L 193.964837 285.18079 
L 196.943319 294.851827 
L 196.943319 294.851827 
L 197.936147 293.51984 
L 197.936147 293.51984 
L 198.928974 290.896966 
L 198.928974 290.896966 
L 199.921802 288.733575 
L 199.921802 288.733575 
L 200.914629 287.587213 
L 200.914629 287.587213 
L 201.907456 286.856552 
L 201.907456 286.856552 
L 202.900284 286.872635 
L 202.900284 286.872635 
L 203.893111 288.079756 
L 203.893111 288.079756 
L 204.885938 289.935782 
L 204.885938 289.935782 
L 206.871593 295.278921 
L 206.871593 295.278921 
L 212.828557 269.521059 
L 212.828557 269.521059 
L 213.821384 266.734005 
L 213.821384 266.734005 
L 214.814212 265.103364 
L 214.814212 265.103364 
L 215.807039 264.141733 
L 215.807039 264.141733 
L 216.799867 264.84894 
L 216.799867 264.84894 
L 217.792694 267.093639 
L 217.792694 267.093639 
L 218.785521 269.972948 
L 218.785521 269.972948 
L 219.778349 274.640153 
L 219.778349 274.640153 
L 221.764003 286.430128 
L 221.764003 286.430128 
L 222.756831 293.653865 
L 222.756831 293.653865 
L 223.749658 290.485285 
L 223.749658 290.485285 
L 225.735313 276.426932 
L 225.735313 276.426932 
L 227.720967 266.774882 
L 227.720967 266.774882 
L 228.713795 263.62797 
L 228.713795 263.62797 
L 229.706622 263.36193 
L 229.706622 263.36193 
L 230.69945 264.309488 
L 230.69945 264.309488 
L 231.692277 267.102127 
L 231.692277 267.102127 
L 232.685104 272.809815 
L 232.685104 272.809815 
L 233.677932 279.608468 
L 233.677932 279.608468 
L 234.670759 287.851466 
L 234.670759 287.851466 
L 235.663586 292.456126 
L 235.663586 292.456126 
L 236.656414 281.588244 
L 236.656414 281.588244 
L 240.627723 232.443204 
L 240.627723 232.443204 
L 242.613378 210.274315 
L 242.613378 210.274315 
L 244.599033 192.941502 
L 244.599033 192.941502 
L 245.59186 186.924217 
L 245.59186 186.924217 
L 246.584687 183.014701 
L 246.584687 183.014701 
L 247.577515 180.51379 
L 247.577515 180.51379 
L 248.570342 180.7977 
L 248.570342 180.7977 
L 249.563169 182.848063 
L 250.555997 187.398889 
L 250.555997 187.398889 
L 251.548824 194.111989 
L 251.548824 194.111989 
L 252.541651 202.233695 
L 252.541651 202.233695 
L 253.534479 212.383872 
L 253.534479 212.383872 
L 255.520133 236.233884 
L 255.520133 236.233884 
L 259.491443 290.888254 
L 259.491443 290.888254 
L 260.48427 287.28722 
L 260.48427 287.28722 
L 262.469925 264.507399 
L 262.469925 264.507399 
L 263.462752 255.502467 
L 263.462752 255.502467 
L 264.45558 248.13041 
L 264.45558 248.13041 
L 265.448407 242.750191 
L 265.448407 242.750191 
L 266.441234 239.520853 
L 266.441234 239.520853 
L 267.434062 238.342101 
L 267.434062 238.342101 
L 268.426889 239.18914 
L 268.426889 239.18914 
L 269.419716 241.932637 
L 269.419716 241.932637 
L 270.412544 246.255844 
L 270.412544 246.255844 
L 271.405371 252.053552 
L 271.405371 252.053552 
L 272.398198 258.991591 
L 272.398198 258.991591 
L 274.383853 274.853029 
L 274.383853 274.853029 
L 276.369508 291.22153 
L 276.369508 291.22153 
L 277.362335 292.173109 
L 277.362335 292.173109 
L 278.355163 285.437225 
L 278.355163 285.437225 
L 279.34799 279.693127 
L 279.34799 279.693127 
L 280.340817 275.204176 
L 280.340817 275.204176 
L 281.333645 272.097471 
L 281.333645 272.097471 
L 282.326472 270.496093 
L 282.326472 270.496093 
L 283.319299 270.431537 
L 283.319299 270.431537 
L 284.312127 271.734039 
L 284.312127 271.734039 
L 285.304954 274.293698 
L 285.304954 274.293698 
L 286.297781 277.934269 
L 286.297781 277.934269 
L 287.290609 282.493137 
L 287.290609 282.493137 
L 289.276264 292.99245 
L 289.276264 292.99245 
L 290.269091 292.604224 
L 290.269091 292.604224 
L 292.254746 282.938325 
L 292.254746 282.938325 
L 293.247573 279.205275 
L 293.247573 279.205275 
L 294.2404 276.531695 
L 294.2404 276.531695 
L 295.233228 275.038654 
L 295.233228 275.038654 
L 296.226055 274.767923 
L 296.226055 274.767923 
L 297.218882 275.768645 
L 297.218882 275.768645 
L 298.21171 278.013568 
L 298.21171 278.013568 
L 299.204537 281.377377 
L 299.204537 281.377377 
L 300.197364 285.659037 
L 300.197364 285.659037 
L 301.190192 290.639191 
L 301.190192 290.639191 
L 302.183019 294.837978 
L 302.183019 294.837978 
L 304.168674 283.676133 
L 304.168674 283.676133 
L 305.161501 278.57491 
L 305.161501 278.57491 
L 306.154329 274.103382 
L 306.154329 274.103382 
L 307.147156 270.55216 
L 307.147156 270.55216 
L 308.139983 268.142833 
L 309.132811 266.99245 
L 309.132811 266.99245 
L 310.125638 267.135857 
L 310.125638 267.135857 
L 311.118465 268.56613 
L 311.118465 268.56613 
L 312.111293 271.322805 
L 312.111293 271.322805 
L 313.10412 275.242149 
L 314.096947 280.113966 
L 314.096947 280.113966 
L 316.082602 291.798286 
L 316.082602 291.798286 
L 317.07543 292.899079 
L 317.07543 292.899079 
L 319.061084 280.966814 
L 319.061084 280.966814 
L 320.053912 275.89865 
L 320.053912 275.89865 
L 321.046739 271.761961 
L 321.046739 271.761961 
L 322.039566 268.822341 
L 322.039566 268.822341 
L 323.032394 267.202646 
L 323.032394 267.202646 
L 324.025221 267.044273 
L 325.018048 268.347892 
L 325.018048 268.347892 
L 326.010876 270.966075 
L 326.010876 270.966075 
L 327.003703 274.893014 
L 327.99653 279.878082 
L 327.99653 279.878082 
L 329.982185 292.109894 
L 329.982185 292.109894 
L 330.975013 292.264693 
L 330.975013 292.264693 
L 332.960667 279.550614 
L 332.960667 279.550614 
L 333.953495 274.1456 
L 333.953495 274.1456 
L 334.946322 269.765432 
L 334.946322 269.765432 
L 335.939149 266.609361 
L 335.939149 266.609361 
L 336.931977 264.864129 
L 336.931977 264.864129 
L 337.924804 264.690343 
L 337.924804 264.690343 
L 338.917631 266.103416 
L 338.917631 266.103416 
L 339.910459 269.073862 
L 340.903286 273.431915 
L 340.903286 273.431915 
L 341.896113 278.990165 
L 341.896113 278.990165 
L 343.881768 292.587917 
L 343.881768 292.587917 
L 344.874595 290.906124 
L 344.874595 290.906124 
L 346.86025 276.473394 
L 346.86025 276.473394 
L 347.853078 270.188952 
L 347.853078 270.188952 
L 348.845905 264.971126 
L 348.845905 264.971126 
L 349.838732 261.003086 
L 349.838732 261.003086 
L 350.83156 258.600907 
L 350.83156 258.600907 
L 351.824387 257.876948 
L 351.824387 257.876948 
L 352.817214 258.961658 
L 352.817214 258.961658 
L 353.810042 261.835383 
L 353.810042 261.835383 
L 354.802869 266.400729 
L 354.802869 266.400729 
L 355.795696 272.526128 
L 355.795696 272.526128 
L 356.788524 279.967432 
L 356.788524 279.967432 
L 357.781351 288.428445 
L 357.781351 288.428445 
L 358.774178 293.37956 
L 358.774178 293.37956 
L 361.752661 265.86083 
L 361.752661 265.86083 
L 362.745488 257.930334 
L 362.745488 257.930334 
L 363.738315 251.200481 
L 364.731143 246.112883 
L 364.731143 246.112883 
L 365.72397 242.925093 
L 365.72397 242.925093 
L 366.716797 241.803749 
L 366.716797 241.803749 
L 367.709625 242.838871 
L 367.709625 242.838871 
L 368.702452 246.035372 
L 368.702452 246.035372 
L 369.695279 251.304127 
L 369.695279 251.304127 
L 370.688107 258.455266 
L 370.688107 258.455266 
L 371.680934 267.199072 
L 371.680934 267.199072 
L 373.666589 287.864198 
L 373.666589 287.864198 
L 374.659416 291.981453 
L 374.659416 291.981453 
L 376.645071 270.297512 
L 376.645071 270.297512 
L 377.637898 260.594756 
L 377.637898 260.594756 
L 378.630726 252.190257 
L 378.630726 252.190257 
L 379.623553 245.558019 
L 379.623553 245.558019 
L 380.61638 241.021265 
L 380.61638 241.021265 
L 381.609208 239.035458 
L 382.602035 240.012055 
L 382.602035 240.012055 
L 383.594862 244.031695 
L 383.594862 244.031695 
L 384.58769 251.358407 
L 384.58769 251.358407 
L 385.580517 262.005818 
L 385.580517 262.005818 
L 386.573344 275.56381 
L 386.573344 275.56381 
L 387.566172 292.062985 
L 387.566172 292.062985 
L 388.558999 280.078003 
L 388.558999 280.078003 
L 390.544654 236.625684 
L 390.544654 236.625684 
L 393.523136 163.780517 
L 393.523136 163.780517 
L 397.494445 65.360209 
L 397.494445 65.360209 
L 398.487273 53.568 
L 398.487273 53.568 
" clip-path="url(#p256e48098b)" style="fill: none; stroke: #1f77b4; stroke-width: 1.5; stroke-linecap: square"/>
   </g>
   <g id="patch_3">
    <path d="M 57.6 307.584 
L 57.6 41.472 
" style="fill: none; stroke: #000000; stroke-width: 0.8; stroke-linejoin: miter; stroke-linecap: square"/>
   </g>
   <g id="patch_4">
    <path d="M 414.72 307.584 
L 414.72 41.472 
" style="fill: none; stroke: #000000; stroke-width: 0.8; stroke-linejoin: miter; stroke-linecap: square"/>
   </g>
   <g id="patch_5">
    <path d="M 57.6 307.584 
L 414.72 307.584 
" style="fill: none; stroke: #000000; stroke-width: 0.8; stroke-linejoin: miter; stroke-linecap: square"/>
   </g>
   <g id="patch_6">
    <path d="M 57.6 41.472 
L 414.72 41.472 
" style="fill: none; stroke: #000000; stroke-width: 0.8; stroke-linejoin: miter; stroke-linecap: square"/>
   </g>
   <g id="text_16">
    <!-- Tracking error vs Time -->
    <g transform="translate(169.584375 35.472) scale(0.12 -0.12)">
     <defs>
      <path id="DejaVuSans-76" d="M 191 3500 
L 800 3500 
L 1894 563 
L 2988 3500 
L 3597 3500 
L 2284 0 
L 1503 0 
L 191 3500 
z
" transform="scale(0.015625)"/>
     </defs>
     <use xlink:href="#DejaVuSans-54"/>
     <use xlink:href="#DejaVuSans-72" x="46.333984"/>
     <use xlink:href="#DejaVuSans-61" x="87.447266"/>
     <use xlink:href="#DejaVuSans-63" x="148.726562"/>
     <use xlink:href="#DejaVuSans-6b" x="203.707031"/>
     <use xlink:href="#DejaVuSans-69" x="261.617188"/>
     <use xlink:href="#DejaVuSans-6e" x="289.400391"/>
     <use xlink:href="#DejaVuSans-67" x="352.779297"/>
     <use xlink:href="#DejaVuSans-20" x="416.255859"/>
     <use xlink:href="#DejaVuSans-65" x="448.042969"/>
     <use xlink:href="#DejaVuSans-72" x="509.566406"/>
     <use xlink:href="#DejaVuSans-72" x="548.929688"/>
     <use xlink:href="#DejaVuSans-6f" x="587.792969"/>
     <use xlink:href="#DejaVuSans-72" x="648.974609"/>
     <use xlink:href="#DejaVuSans-20" x="690.087891"/>
     <use xlink:href="#DejaVuSans-76" x="721.875"/>
     <use xlink:href="#DejaVuSans-73" x="781.054688"/>
     <use xlink:href="#DejaVuSans-20" x="833.154297"/>
     <use xlink:href="#DejaVuSans-54" x="864.941406"/>
     <use xlink:href="#DejaVuSans-69" x="922.900391"/>
     <use xlink:href="#DejaVuSans-6d" x="950.683594"/>
     <use xlink:href="#DejaVuSans-65" x="1048.095703"/>
    </g>
   </g>
   <g id="legend_1">
    <g id="patch_7">
     <path d="M 64.6 64.150125 
L 161.31875 64.150125 
Q 163.31875 64.150125 163.31875 62.150125 
L 163.31875 48.472 
Q 163.31875 46.472 161.31875 46.472 
L 64.6 46.472 
Q 62.6 46.472 62.6 48.472 
L 62.6 62.150125 
Q 62.6 64.150125 64.6 64.150125 
z
" style="fill: #ffffff; opacity: 0.8; stroke: #cccccc; stroke-linejoin: miter"/>
    </g>
    <g id="line2d_28">
     <path d="M 66.6 54.570438 
L 76.6 54.570438 
L 86.6 54.570438 
" style="fill: none; stroke: #1f77b4; stroke-width: 1.5; stroke-linecap: square"/>
    </g>
    <g id="text_17">
     <!-- Actual speed -->
     <g transform="translate(94.6 58.070438) scale(0.1 -0.1)">
      <defs>
       <path id="DejaVuSans-41" d="M 2188 4044 
L 1331 1722 
L 3047 1722 
L 2188 4044 
z
M 1831 4666 
L 2547 4666 
L 4325 0 
L 3669 0 
L 3244 1197 
L 1141 1197 
L 716 0 
L 50 0 
L 1831 4666 
z
" transform="scale(0.015625)"/>
       <path id="DejaVuSans-74" d="M 1172 4494 
L 1172 3500 
L 2356 3500 
L 2356 3053 
L 1172 3053 
L 1172 1153 
Q 1172 725 1289 603 
Q 1406 481 1766 481 
L 2356 481 
L 2356 0 
L 1766 0 
Q 1100 0 847 248 
Q 594 497 594 1153 
L 594 3053 
L 172 3053 
L 172 3500 
L 594 3500 
L 594 4494 
L 1172 4494 
z
" transform="scale(0.015625)"/>
       <path id="DejaVuSans-75" d="M 544 1381 
L 544 3500 
L 1119 3500 
L 1119 1403 
Q 1119 906 1312 657 
Q 1506 409 1894 409 
Q 2359 409 2629 706 
Q 2900 1003 2900 1516 
L 2900 3500 
L 3475 3500 
L 3475 0 
L 2900 0 
L 2900 538 
Q 2691 219 2414 64 
Q 2138 -91 1772 -91 
Q 1169 -91 856 284 
Q 544 659 544 1381 
z
M 1991 3584 
L 1991 3584 
z
" transform="scale(0.015625)"/>
       <path id="DejaVuSans-6c" d="M 603 4863 
L 1178 4863 
L 1178 0 
L 603 0 
L 603 4863 
z
" transform="scale(0.015625)"/>
       <path id="DejaVuSans-70" d="M 1159 525 
L 1159 -1331 
L 581 -1331 
L 581 3500 
L 1159 3500 
L 1159 2969 
Q 1341 3281 1617 3432 
Q 1894 3584 2278 3584 
Q 2916 3584 3314 3078 
Q 3713 2572 3713 1747 
Q 3713 922 3314 415 
Q 2916 -91 2278 -91 
Q 1894 -91 1617 61 
Q 1341 213 1159 525 
z
M 3116 1747 
Q 3116 2381 2855 2742 
Q 2594 3103 2138 3103 
Q 1681 3103 1420 2742 
Q 1159 2381 1159 1747 
Q 1159 1113 1420 752 
Q 1681 391 2138 391 
Q 2594 391 2855 752 
Q 3116 1113 3116 1747 
z
" transform="scale(0.015625)"/>
       <path id="DejaVuSans-64" d="M 2906 2969 
L 2906 4863 
L 3481 4863 
L 3481 0 
L 2906 0 
L 2906 525 
Q 2725 213 2448 61 
Q 2172 -91 1784 -91 
Q 1150 -91 751 415 
Q 353 922 353 1747 
Q 353 2572 751 3078 
Q 1150 3584 1784 3584 
Q 2172 3584 2448 3432 
Q 2725 3281 2906 2969 
z
M 947 1747 
Q 947 1113 1208 752 
Q 1469 391 1925 391 
Q 2381 391 2643 752 
Q 2906 1113 2906 1747 
Q 2906 2381 2643 2742 
Q 2381 3103 1925 3103 
Q 1469 3103 1208 2742 
Q 947 2381 947 1747 
z
" transform="scale(0.015625)"/>
      </defs>
      <use xlink:href="#DejaVuSans-41"/>
      <use xlink:href="#DejaVuSans-63" x="66.658203"/>
      <use xlink:href="#DejaVuSans-74" x="121.638672"/>
      <use xlink:href="#DejaVuSans-75" x="160.847656"/>
      <use xlink:href="#DejaVuSans-61" x="224.226562"/>
      <use xlink:href="#DejaVuSans-6c" x="285.505859"/>
      <use xlink:href="#DejaVuSans-20" x="313.289062"/>
      <use xlink:href="#DejaVuSans-73" x="345.076172"/>
      <use xlink:href="#DejaVuSans-70" x="397.175781"/>
      <use xlink:href="#DejaVuSans-65" x="460.652344"/>
      <use xlink:href="#DejaVuSans-65" x="522.175781"/>
      <use xlink:href="#DejaVuSans-64" x="583.699219"/>
     </g>
    </g>
   </g>
  </g>
 </g>
 <defs>
  <clipPath id="p256e48098b">
   <rect x="57.6" y="41.472" width="357.12" height="266.112"/>
  </clipPath>
 </defs>
</svg>
