<?xml version="1.0" encoding="utf-8" standalone="no"?>
<!DOCTYPE svg PUBLIC "-//W3C//DTD SVG 1.1//EN"
  "http://www.w3.org/Graphics/SVG/1.1/DTD/svg11.dtd">
<svg xmlns:xlink="http://www.w3.org/1999/xlink" width="460.8pt" height="345.6pt" viewBox="0 0 460.8 345.6" xmlns="http://www.w3.org/2000/svg" version="1.1">
 <metadata>
  <rdf:RDF xmlns:dc="http://purl.org/dc/elements/1.1/" xmlns:cc="http://creativecommons.org/ns#" xmlns:rdf="http://www.w3.org/1999/02/22-rdf-syntax-ns#">
   <cc:Work>
    <dc:type rdf:resource="http://purl.org/dc/dcmitype/StillImage"/>
    <dc:date>2024-01-30T20:59:27.090475</dc:date>
    <dc:format>image/svg+xml</dc:format>
    <dc:creator>
     <cc:Agent>
      <dc:title>Matplotlib v3.7.1, https://matplotlib.org/</dc:title>
     </cc:Agent>
    </dc:creator>
   </cc:Work>
  </rdf:RDF>
 </metadata>
 <defs>
  <style type="text/css">*{stroke-linejoin: round; stroke-linecap: butt}</style>
 </defs>
 <g id="figure_1">
  <g id="patch_1">
   <path d="M 0 345.6 
L 460.8 345.6 
L 460.8 0 
L 0 0 
z
" style="fill: #ffffff"/>
  </g>
  <g id="axes_1">
   <g id="patch_2">
    <path d="M 57.6 307.584 
L 414.72 307.584 
L 414.72 41.472 
L 57.6 41.472 
z
" style="fill: #ffffff"/>
   </g>
   <g id="matplotlib.axis_1">
    <g id="xtick_1">
     <g id="line2d_1">
      <path d="M 73.832727 307.584 
L 73.832727 41.472 
" clip-path="url(#p213068a17e)" style="fill: none; stroke: #b0b0b0; stroke-width: 0.8; stroke-linecap: square"/>
     </g>
     <g id="line2d_2">
      <defs>
       <path id="m7a5ea01d2d" d="M 0 0 
L 0 3.5 
" style="stroke: #000000; stroke-width: 0.8"/>
      </defs>
      <g>
       <use xlink:href="#m7a5ea01d2d" x="73.832727" y="307.584" style="stroke: #000000; stroke-width: 0.8"/>
      </g>
     </g>
     <g id="text_1">
      <!-- 0 -->
      <g transform="translate(70.651477 322.182437) scale(0.1 -0.1)">
       <defs>
        <path id="DejaVuSans-30" d="M 2034 4250 
Q 1547 4250 1301 3770 
Q 1056 3291 1056 2328 
Q 1056 1369 1301 889 
Q 1547 409 2034 409 
Q 2525 409 2770 889 
Q 3016 1369 3016 2328 
Q 3016 3291 2770 3770 
Q 2525 4250 2034 4250 
z
M 2034 4750 
Q 2819 4750 3233 4129 
Q 3647 3509 3647 2328 
Q 3647 1150 3233 529 
Q 2819 -91 2034 -91 
Q 1250 -91 836 529 
Q 422 1150 422 2328 
Q 422 3509 836 4129 
Q 1250 4750 2034 4750 
z
" transform="scale(0.015625)"/>
       </defs>
       <use xlink:href="#DejaVuSans-30"/>
      </g>
     </g>
    </g>
    <g id="xtick_2">
     <g id="line2d_3">
      <path d="M 131.972868 307.584 
L 131.972868 41.472 
" clip-path="url(#p213068a17e)" style="fill: none; stroke: #b0b0b0; stroke-width: 0.8; stroke-linecap: square"/>
     </g>
     <g id="line2d_4">
      <g>
       <use xlink:href="#m7a5ea01d2d" x="131.972868" y="307.584" style="stroke: #000000; stroke-width: 0.8"/>
      </g>
     </g>
     <g id="text_2">
      <!-- 5 -->
      <g transform="translate(128.791618 322.182437) scale(0.1 -0.1)">
       <defs>
        <path id="DejaVuSans-35" d="M 691 4666 
L 3169 4666 
L 3169 4134 
L 1269 4134 
L 1269 2991 
Q 1406 3038 1543 3061 
Q 1681 3084 1819 3084 
Q 2600 3084 3056 2656 
Q 3513 2228 3513 1497 
Q 3513 744 3044 326 
Q 2575 -91 1722 -91 
Q 1428 -91 1123 -41 
Q 819 9 494 109 
L 494 744 
Q 775 591 1075 516 
Q 1375 441 1709 441 
Q 2250 441 2565 725 
Q 2881 1009 2881 1497 
Q 2881 1984 2565 2268 
Q 2250 2553 1709 2553 
Q 1456 2553 1204 2497 
Q 953 2441 691 2322 
L 691 4666 
z
" transform="scale(0.015625)"/>
       </defs>
       <use xlink:href="#DejaVuSans-35"/>
      </g>
     </g>
    </g>
    <g id="xtick_3">
     <g id="line2d_5">
      <path d="M 190.113009 307.584 
L 190.113009 41.472 
" clip-path="url(#p213068a17e)" style="fill: none; stroke: #b0b0b0; stroke-width: 0.8; stroke-linecap: square"/>
     </g>
     <g id="line2d_6">
      <g>
       <use xlink:href="#m7a5ea01d2d" x="190.113009" y="307.584" style="stroke: #000000; stroke-width: 0.8"/>
      </g>
     </g>
     <g id="text_3">
      <!-- 10 -->
      <g transform="translate(183.750509 322.182437) scale(0.1 -0.1)">
       <defs>
        <path id="DejaVuSans-31" d="M 794 531 
L 1825 531 
L 1825 4091 
L 703 3866 
L 703 4441 
L 1819 4666 
L 2450 4666 
L 2450 531 
L 3481 531 
L 3481 0 
L 794 0 
L 794 531 
z
" transform="scale(0.015625)"/>
       </defs>
       <use xlink:href="#DejaVuSans-31"/>
       <use xlink:href="#DejaVuSans-30" x="63.623047"/>
      </g>
     </g>
    </g>
    <g id="xtick_4">
     <g id="line2d_7">
      <path d="M 248.253149 307.584 
L 248.253149 41.472 
" clip-path="url(#p213068a17e)" style="fill: none; stroke: #b0b0b0; stroke-width: 0.8; stroke-linecap: square"/>
     </g>
     <g id="line2d_8">
      <g>
       <use xlink:href="#m7a5ea01d2d" x="248.253149" y="307.584" style="stroke: #000000; stroke-width: 0.8"/>
      </g>
     </g>
     <g id="text_4">
      <!-- 15 -->
      <g transform="translate(241.890649 322.182437) scale(0.1 -0.1)">
       <use xlink:href="#DejaVuSans-31"/>
       <use xlink:href="#DejaVuSans-35" x="63.623047"/>
      </g>
     </g>
    </g>
    <g id="xtick_5">
     <g id="line2d_9">
      <path d="M 306.39329 307.584 
L 306.39329 41.472 
" clip-path="url(#p213068a17e)" style="fill: none; stroke: #b0b0b0; stroke-width: 0.8; stroke-linecap: square"/>
     </g>
     <g id="line2d_10">
      <g>
       <use xlink:href="#m7a5ea01d2d" x="306.39329" y="307.584" style="stroke: #000000; stroke-width: 0.8"/>
      </g>
     </g>
     <g id="text_5">
      <!-- 20 -->
      <g transform="translate(300.03079 322.182437) scale(0.1 -0.1)">
       <defs>
        <path id="DejaVuSans-32" d="M 1228 531 
L 3431 531 
L 3431 0 
L 469 0 
L 469 531 
Q 828 903 1448 1529 
Q 2069 2156 2228 2338 
Q 2531 2678 2651 2914 
Q 2772 3150 2772 3378 
Q 2772 3750 2511 3984 
Q 2250 4219 1831 4219 
Q 1534 4219 1204 4116 
Q 875 4013 500 3803 
L 500 4441 
Q 881 4594 1212 4672 
Q 1544 4750 1819 4750 
Q 2544 4750 2975 4387 
Q 3406 4025 3406 3419 
Q 3406 3131 3298 2873 
Q 3191 2616 2906 2266 
Q 2828 2175 2409 1742 
Q 1991 1309 1228 531 
z
" transform="scale(0.015625)"/>
       </defs>
       <use xlink:href="#DejaVuSans-32"/>
       <use xlink:href="#DejaVuSans-30" x="63.623047"/>
      </g>
     </g>
    </g>
    <g id="xtick_6">
     <g id="line2d_11">
      <path d="M 364.533431 307.584 
L 364.533431 41.472 
" clip-path="url(#p213068a17e)" style="fill: none; stroke: #b0b0b0; stroke-width: 0.8; stroke-linecap: square"/>
     </g>
     <g id="line2d_12">
      <g>
       <use xlink:href="#m7a5ea01d2d" x="364.533431" y="307.584" style="stroke: #000000; stroke-width: 0.8"/>
      </g>
     </g>
     <g id="text_6">
      <!-- 25 -->
      <g transform="translate(358.170931 322.182437) scale(0.1 -0.1)">
       <use xlink:href="#DejaVuSans-32"/>
       <use xlink:href="#DejaVuSans-35" x="63.623047"/>
      </g>
     </g>
    </g>
    <g id="text_7">
     <!-- Time(s) -->
     <g transform="translate(217.420156 335.860562) scale(0.1 -0.1)">
      <defs>
       <path id="DejaVuSans-54" d="M -19 4666 
L 3928 4666 
L 3928 4134 
L 2272 4134 
L 2272 0 
L 1638 0 
L 1638 4134 
L -19 4134 
L -19 4666 
z
" transform="scale(0.015625)"/>
       <path id="DejaVuSans-69" d="M 603 3500 
L 1178 3500 
L 1178 0 
L 603 0 
L 603 3500 
z
M 603 4863 
L 1178 4863 
L 1178 4134 
L 603 4134 
L 603 4863 
z
" transform="scale(0.015625)"/>
       <path id="DejaVuSans-6d" d="M 3328 2828 
Q 3544 3216 3844 3400 
Q 4144 3584 4550 3584 
Q 5097 3584 5394 3201 
Q 5691 2819 5691 2113 
L 5691 0 
L 5113 0 
L 5113 2094 
Q 5113 2597 4934 2840 
Q 4756 3084 4391 3084 
Q 3944 3084 3684 2787 
Q 3425 2491 3425 1978 
L 3425 0 
L 2847 0 
L 2847 2094 
Q 2847 2600 2669 2842 
Q 2491 3084 2119 3084 
Q 1678 3084 1418 2786 
Q 1159 2488 1159 1978 
L 1159 0 
L 581 0 
L 581 3500 
L 1159 3500 
L 1159 2956 
Q 1356 3278 1631 3431 
Q 1906 3584 2284 3584 
Q 2666 3584 2933 3390 
Q 3200 3197 3328 2828 
z
" transform="scale(0.015625)"/>
       <path id="DejaVuSans-65" d="M 3597 1894 
L 3597 1613 
L 953 1613 
Q 991 1019 1311 708 
Q 1631 397 2203 397 
Q 2534 397 2845 478 
Q 3156 559 3463 722 
L 3463 178 
Q 3153 47 2828 -22 
Q 2503 -91 2169 -91 
Q 1331 -91 842 396 
Q 353 884 353 1716 
Q 353 2575 817 3079 
Q 1281 3584 2069 3584 
Q 2775 3584 3186 3129 
Q 3597 2675 3597 1894 
z
M 3022 2063 
Q 3016 2534 2758 2815 
Q 2500 3097 2075 3097 
Q 1594 3097 1305 2825 
Q 1016 2553 972 2059 
L 3022 2063 
z
" transform="scale(0.015625)"/>
       <path id="DejaVuSans-28" d="M 1984 4856 
Q 1566 4138 1362 3434 
Q 1159 2731 1159 2009 
Q 1159 1288 1364 580 
Q 1569 -128 1984 -844 
L 1484 -844 
Q 1016 -109 783 600 
Q 550 1309 550 2009 
Q 550 2706 781 3412 
Q 1013 4119 1484 4856 
L 1984 4856 
z
" transform="scale(0.015625)"/>
       <path id="DejaVuSans-73" d="M 2834 3397 
L 2834 2853 
Q 2591 2978 2328 3040 
Q 2066 3103 1784 3103 
Q 1356 3103 1142 2972 
Q 928 2841 928 2578 
Q 928 2378 1081 2264 
Q 1234 2150 1697 2047 
L 1894 2003 
Q 2506 1872 2764 1633 
Q 3022 1394 3022 966 
Q 3022 478 2636 193 
Q 2250 -91 1575 -91 
Q 1294 -91 989 -36 
Q 684 19 347 128 
L 347 722 
Q 666 556 975 473 
Q 1284 391 1588 391 
Q 1994 391 2212 530 
Q 2431 669 2431 922 
Q 2431 1156 2273 1281 
Q 2116 1406 1581 1522 
L 1381 1569 
Q 847 1681 609 1914 
Q 372 2147 372 2553 
Q 372 3047 722 3315 
Q 1072 3584 1716 3584 
Q 2034 3584 2315 3537 
Q 2597 3491 2834 3397 
z
" transform="scale(0.015625)"/>
       <path id="DejaVuSans-29" d="M 513 4856 
L 1013 4856 
Q 1481 4119 1714 3412 
Q 1947 2706 1947 2009 
Q 1947 1309 1714 600 
Q 1481 -109 1013 -844 
L 513 -844 
Q 928 -128 1133 580 
Q 1338 1288 1338 2009 
Q 1338 2731 1133 3434 
Q 928 4138 513 4856 
z
" transform="scale(0.015625)"/>
      </defs>
      <use xlink:href="#DejaVuSans-54"/>
      <use xlink:href="#DejaVuSans-69" x="57.958984"/>
      <use xlink:href="#DejaVuSans-6d" x="85.742188"/>
      <use xlink:href="#DejaVuSans-65" x="183.154297"/>
      <use xlink:href="#DejaVuSans-28" x="244.677734"/>
      <use xlink:href="#DejaVuSans-73" x="283.691406"/>
      <use xlink:href="#DejaVuSans-29" x="335.791016"/>
     </g>
    </g>
   </g>
   <g id="matplotlib.axis_2">
    <g id="ytick_1">
     <g id="line2d_13">
      <path d="M 57.6 295.488 
L 414.72 295.488 
" clip-path="url(#p213068a17e)" style="fill: none; stroke: #b0b0b0; stroke-width: 0.8; stroke-linecap: square"/>
     </g>
     <g id="line2d_14">
      <defs>
       <path id="m8cba42e373" d="M 0 0 
L -3.5 0 
" style="stroke: #000000; stroke-width: 0.8"/>
      </defs>
      <g>
       <use xlink:href="#m8cba42e373" x="57.6" y="295.488" style="stroke: #000000; stroke-width: 0.8"/>
      </g>
     </g>
     <g id="text_8">
      <!-- 0.00 -->
      <g transform="translate(28.334375 299.287219) scale(0.1 -0.1)">
       <defs>
        <path id="DejaVuSans-2e" d="M 684 794 
L 1344 794 
L 1344 0 
L 684 0 
L 684 794 
z
" transform="scale(0.015625)"/>
       </defs>
       <use xlink:href="#DejaVuSans-30"/>
       <use xlink:href="#DejaVuSans-2e" x="63.623047"/>
       <use xlink:href="#DejaVuSans-30" x="95.410156"/>
       <use xlink:href="#DejaVuSans-30" x="159.033203"/>
      </g>
     </g>
    </g>
    <g id="ytick_2">
     <g id="line2d_15">
      <path d="M 57.6 245.627326 
L 414.72 245.627326 
" clip-path="url(#p213068a17e)" style="fill: none; stroke: #b0b0b0; stroke-width: 0.8; stroke-linecap: square"/>
     </g>
     <g id="line2d_16">
      <g>
       <use xlink:href="#m8cba42e373" x="57.6" y="245.627326" style="stroke: #000000; stroke-width: 0.8"/>
      </g>
     </g>
     <g id="text_9">
      <!-- 0.05 -->
      <g transform="translate(28.334375 249.426545) scale(0.1 -0.1)">
       <use xlink:href="#DejaVuSans-30"/>
       <use xlink:href="#DejaVuSans-2e" x="63.623047"/>
       <use xlink:href="#DejaVuSans-30" x="95.410156"/>
       <use xlink:href="#DejaVuSans-35" x="159.033203"/>
      </g>
     </g>
    </g>
    <g id="ytick_3">
     <g id="line2d_17">
      <path d="M 57.6 195.766653 
L 414.72 195.766653 
" clip-path="url(#p213068a17e)" style="fill: none; stroke: #b0b0b0; stroke-width: 0.8; stroke-linecap: square"/>
     </g>
     <g id="line2d_18">
      <g>
       <use xlink:href="#m8cba42e373" x="57.6" y="195.766653" style="stroke: #000000; stroke-width: 0.8"/>
      </g>
     </g>
     <g id="text_10">
      <!-- 0.10 -->
      <g transform="translate(28.334375 199.565871) scale(0.1 -0.1)">
       <use xlink:href="#DejaVuSans-30"/>
       <use xlink:href="#DejaVuSans-2e" x="63.623047"/>
       <use xlink:href="#DejaVuSans-31" x="95.410156"/>
       <use xlink:href="#DejaVuSans-30" x="159.033203"/>
      </g>
     </g>
    </g>
    <g id="ytick_4">
     <g id="line2d_19">
      <path d="M 57.6 145.905979 
L 414.72 145.905979 
" clip-path="url(#p213068a17e)" style="fill: none; stroke: #b0b0b0; stroke-width: 0.8; stroke-linecap: square"/>
     </g>
     <g id="line2d_20">
      <g>
       <use xlink:href="#m8cba42e373" x="57.6" y="145.905979" style="stroke: #000000; stroke-width: 0.8"/>
      </g>
     </g>
     <g id="text_11">
      <!-- 0.15 -->
      <g transform="translate(28.334375 149.705198) scale(0.1 -0.1)">
       <use xlink:href="#DejaVuSans-30"/>
       <use xlink:href="#DejaVuSans-2e" x="63.623047"/>
       <use xlink:href="#DejaVuSans-31" x="95.410156"/>
       <use xlink:href="#DejaVuSans-35" x="159.033203"/>
      </g>
     </g>
    </g>
    <g id="ytick_5">
     <g id="line2d_21">
      <path d="M 57.6 96.045305 
L 414.72 96.045305 
" clip-path="url(#p213068a17e)" style="fill: none; stroke: #b0b0b0; stroke-width: 0.8; stroke-linecap: square"/>
     </g>
     <g id="line2d_22">
      <g>
       <use xlink:href="#m8cba42e373" x="57.6" y="96.045305" style="stroke: #000000; stroke-width: 0.8"/>
      </g>
     </g>
     <g id="text_12">
      <!-- 0.20 -->
      <g transform="translate(28.334375 99.844524) scale(0.1 -0.1)">
       <use xlink:href="#DejaVuSans-30"/>
       <use xlink:href="#DejaVuSans-2e" x="63.623047"/>
       <use xlink:href="#DejaVuSans-32" x="95.410156"/>
       <use xlink:href="#DejaVuSans-30" x="159.033203"/>
      </g>
     </g>
    </g>
    <g id="ytick_6">
     <g id="line2d_23">
      <path d="M 57.6 46.184631 
L 414.72 46.184631 
" clip-path="url(#p213068a17e)" style="fill: none; stroke: #b0b0b0; stroke-width: 0.8; stroke-linecap: square"/>
     </g>
     <g id="line2d_24">
      <g>
       <use xlink:href="#m8cba42e373" x="57.6" y="46.184631" style="stroke: #000000; stroke-width: 0.8"/>
      </g>
     </g>
     <g id="text_13">
      <!-- 0.25 -->
      <g transform="translate(28.334375 49.98385) scale(0.1 -0.1)">
       <use xlink:href="#DejaVuSans-30"/>
       <use xlink:href="#DejaVuSans-2e" x="63.623047"/>
       <use xlink:href="#DejaVuSans-32" x="95.410156"/>
       <use xlink:href="#DejaVuSans-35" x="159.033203"/>
      </g>
     </g>
    </g>
    <g id="text_14">
     <!-- Tracking error(m) -->
     <g transform="translate(22.254687 217.803781) rotate(-90) scale(0.1 -0.1)">
      <defs>
       <path id="DejaVuSans-72" d="M 2631 2963 
Q 2534 3019 2420 3045 
Q 2306 3072 2169 3072 
Q 1681 3072 1420 2755 
Q 1159 2438 1159 1844 
L 1159 0 
L 581 0 
L 581 3500 
L 1159 3500 
L 1159 2956 
Q 1341 3275 1631 3429 
Q 1922 3584 2338 3584 
Q 2397 3584 2469 3576 
Q 2541 3569 2628 3553 
L 2631 2963 
z
" transform="scale(0.015625)"/>
       <path id="DejaVuSans-61" d="M 2194 1759 
Q 1497 1759 1228 1600 
Q 959 1441 959 1056 
Q 959 750 1161 570 
Q 1363 391 1709 391 
Q 2188 391 2477 730 
Q 2766 1069 2766 1631 
L 2766 1759 
L 2194 1759 
z
M 3341 1997 
L 3341 0 
L 2766 0 
L 2766 531 
Q 2569 213 2275 61 
Q 1981 -91 1556 -91 
Q 1019 -91 701 211 
Q 384 513 384 1019 
Q 384 1609 779 1909 
Q 1175 2209 1959 2209 
L 2766 2209 
L 2766 2266 
Q 2766 2663 2505 2880 
Q 2244 3097 1772 3097 
Q 1472 3097 1187 3025 
Q 903 2953 641 2809 
L 641 3341 
Q 956 3463 1253 3523 
Q 1550 3584 1831 3584 
Q 2591 3584 2966 3190 
Q 3341 2797 3341 1997 
z
" transform="scale(0.015625)"/>
       <path id="DejaVuSans-63" d="M 3122 3366 
L 3122 2828 
Q 2878 2963 2633 3030 
Q 2388 3097 2138 3097 
Q 1578 3097 1268 2742 
Q 959 2388 959 1747 
Q 959 1106 1268 751 
Q 1578 397 2138 397 
Q 2388 397 2633 464 
Q 2878 531 3122 666 
L 3122 134 
Q 2881 22 2623 -34 
Q 2366 -91 2075 -91 
Q 1284 -91 818 406 
Q 353 903 353 1747 
Q 353 2603 823 3093 
Q 1294 3584 2113 3584 
Q 2378 3584 2631 3529 
Q 2884 3475 3122 3366 
z
" transform="scale(0.015625)"/>
       <path id="DejaVuSans-6b" d="M 581 4863 
L 1159 4863 
L 1159 1991 
L 2875 3500 
L 3609 3500 
L 1753 1863 
L 3688 0 
L 2938 0 
L 1159 1709 
L 1159 0 
L 581 0 
L 581 4863 
z
" transform="scale(0.015625)"/>
       <path id="DejaVuSans-6e" d="M 3513 2113 
L 3513 0 
L 2938 0 
L 2938 2094 
Q 2938 2591 2744 2837 
Q 2550 3084 2163 3084 
Q 1697 3084 1428 2787 
Q 1159 2491 1159 1978 
L 1159 0 
L 581 0 
L 581 3500 
L 1159 3500 
L 1159 2956 
Q 1366 3272 1645 3428 
Q 1925 3584 2291 3584 
Q 2894 3584 3203 3211 
Q 3513 2838 3513 2113 
z
" transform="scale(0.015625)"/>
       <path id="DejaVuSans-67" d="M 2906 1791 
Q 2906 2416 2648 2759 
Q 2391 3103 1925 3103 
Q 1463 3103 1205 2759 
Q 947 2416 947 1791 
Q 947 1169 1205 825 
Q 1463 481 1925 481 
Q 2391 481 2648 825 
Q 2906 1169 2906 1791 
z
M 3481 434 
Q 3481 -459 3084 -895 
Q 2688 -1331 1869 -1331 
Q 1566 -1331 1297 -1286 
Q 1028 -1241 775 -1147 
L 775 -588 
Q 1028 -725 1275 -790 
Q 1522 -856 1778 -856 
Q 2344 -856 2625 -561 
Q 2906 -266 2906 331 
L 2906 616 
Q 2728 306 2450 153 
Q 2172 0 1784 0 
Q 1141 0 747 490 
Q 353 981 353 1791 
Q 353 2603 747 3093 
Q 1141 3584 1784 3584 
Q 2172 3584 2450 3431 
Q 2728 3278 2906 2969 
L 2906 3500 
L 3481 3500 
L 3481 434 
z
" transform="scale(0.015625)"/>
       <path id="DejaVuSans-20" transform="scale(0.015625)"/>
       <path id="DejaVuSans-6f" d="M 1959 3097 
Q 1497 3097 1228 2736 
Q 959 2375 959 1747 
Q 959 1119 1226 758 
Q 1494 397 1959 397 
Q 2419 397 2687 759 
Q 2956 1122 2956 1747 
Q 2956 2369 2687 2733 
Q 2419 3097 1959 3097 
z
M 1959 3584 
Q 2709 3584 3137 3096 
Q 3566 2609 3566 1747 
Q 3566 888 3137 398 
Q 2709 -91 1959 -91 
Q 1206 -91 779 398 
Q 353 888 353 1747 
Q 353 2609 779 3096 
Q 1206 3584 1959 3584 
z
" transform="scale(0.015625)"/>
      </defs>
      <use xlink:href="#DejaVuSans-54"/>
      <use xlink:href="#DejaVuSans-72" x="46.333984"/>
      <use xlink:href="#DejaVuSans-61" x="87.447266"/>
      <use xlink:href="#DejaVuSans-63" x="148.726562"/>
      <use xlink:href="#DejaVuSans-6b" x="203.707031"/>
      <use xlink:href="#DejaVuSans-69" x="261.617188"/>
      <use xlink:href="#DejaVuSans-6e" x="289.400391"/>
      <use xlink:href="#DejaVuSans-67" x="352.779297"/>
      <use xlink:href="#DejaVuSans-20" x="416.255859"/>
      <use xlink:href="#DejaVuSans-65" x="448.042969"/>
      <use xlink:href="#DejaVuSans-72" x="509.566406"/>
      <use xlink:href="#DejaVuSans-72" x="548.929688"/>
      <use xlink:href="#DejaVuSans-6f" x="587.792969"/>
      <use xlink:href="#DejaVuSans-72" x="648.974609"/>
      <use xlink:href="#DejaVuSans-28" x="690.087891"/>
      <use xlink:href="#DejaVuSans-6d" x="729.101562"/>
      <use xlink:href="#DejaVuSans-29" x="826.513672"/>
     </g>
    </g>
   </g>
   <g id="line2d_25">
    <path d="M 73.832727 245.249382 
L 74.065288 292.035647 
L 74.065288 292.035647 
L 74.76297 177.563518 
L 74.76297 177.563518 
L 75.228091 127.70085 
L 75.228091 127.70085 
L 75.693212 99.180544 
L 75.693212 99.180544 
L 75.925772 91.747315 
L 75.925772 91.747315 
L 76.158333 88.697836 
L 76.158333 88.697836 
L 76.390893 89.661144 
L 76.390893 89.661144 
L 76.623454 94.477686 
L 76.623454 94.477686 
L 77.088575 111.46422 
L 77.088575 111.46422 
L 78.018817 160.426404 
L 78.018817 160.426404 
L 78.94906 207.315382 
L 78.94906 207.315382 
L 79.879302 243.075457 
L 79.879302 243.075457 
L 81.042105 275.629491 
L 81.042105 275.629491 
L 81.972347 295.06219 
L 81.972347 295.06219 
L 82.437468 289.403003 
L 82.437468 289.403003 
L 82.902589 284.651281 
L 82.902589 284.651281 
L 83.36771 282.265947 
L 83.36771 282.265947 
L 84.065392 286.085274 
L 84.065392 286.085274 
L 84.530513 290.519882 
L 84.530513 290.519882 
L 84.763074 294.655327 
L 84.763074 294.655327 
L 84.995634 293.060782 
L 84.995634 293.060782 
L 86.623558 271.530943 
L 86.623558 271.530943 
L 86.856119 269.423831 
L 86.856119 269.423831 
L 87.32124 263.607085 
L 87.32124 263.607085 
L 88.716603 250.605416 
L 88.716603 250.605416 
L 88.949164 249.669032 
L 88.949164 249.669032 
L 89.181724 247.732444 
L 89.181724 247.732444 
L 89.414285 247.406355 
L 89.414285 247.406355 
L 89.646846 247.891001 
L 89.879406 249.037796 
L 89.879406 249.037796 
L 90.111967 249.138515 
L 90.111967 249.138515 
L 90.344527 250.640318 
L 90.344527 250.640318 
L 91.50733 262.337632 
L 91.50733 262.337632 
L 91.739891 265.318304 
L 91.739891 265.318304 
L 91.972451 266.379339 
L 91.972451 266.379339 
L 92.437572 271.217818 
L 92.437572 271.217818 
L 92.670133 271.96872 
L 92.670133 271.96872 
L 93.367815 276.596788 
L 93.367815 276.596788 
L 93.600375 275.535753 
L 93.600375 275.535753 
L 93.832936 276.021396 
L 93.832936 276.021396 
L 94.065496 276.82515 
L 94.065496 276.82515 
L 94.298057 275.317363 
L 94.298057 275.317363 
L 94.530617 275.787051 
L 94.530617 275.787051 
L 94.763178 276.902932 
L 94.763178 276.902932 
L 94.995738 275.722232 
L 94.995738 275.722232 
L 95.228299 276.705484 
L 95.228299 276.705484 
L 95.46086 278.484513 
L 95.46086 278.484513 
L 95.69342 277.742586 
L 95.69342 277.742586 
L 95.925981 279.543554 
L 95.925981 279.543554 
L 96.158541 282.231044 
L 96.158541 282.231044 
L 96.391102 281.692549 
L 96.391102 281.692549 
L 96.856223 287.712727 
L 96.856223 287.712727 
L 97.088784 286.878059 
L 97.088784 286.878059 
L 97.321344 289.619399 
L 97.321344 289.619399 
L 97.553905 289.529649 
L 97.553905 289.529649 
L 98.019026 293.332024 
L 98.019026 293.332024 
L 98.251586 291.412389 
L 98.251586 291.412389 
L 98.484147 295.488 
L 98.484147 295.488 
L 98.716707 292.556192 
L 98.716707 292.556192 
L 98.949268 287.943083 
L 98.949268 287.943083 
L 99.414389 285.503899 
L 99.414389 285.503899 
L 99.64695 279.161621 
L 99.64695 279.161621 
L 100.112071 275.454979 
L 100.112071 275.454979 
L 100.344631 269.023949 
L 100.344631 269.023949 
L 100.577192 267.078385 
L 100.577192 267.078385 
L 101.042313 260.027089 
L 101.042313 260.027089 
L 101.274874 258.471436 
L 101.274874 258.471436 
L 101.507434 253.974003 
L 101.507434 253.974003 
L 101.972555 250.367082 
L 101.972555 250.367082 
L 102.205116 245.707103 
L 102.205116 245.707103 
L 102.670237 242.15104 
L 102.670237 242.15104 
L 102.902798 237.864019 
L 102.902798 237.864019 
L 103.135358 236.329308 
L 103.135358 236.329308 
L 103.367919 235.595359 
L 103.367919 235.595359 
L 103.600479 232.294582 
L 103.600479 232.294582 
L 103.83304 231.605508 
L 103.83304 231.605508 
L 104.0656 231.562627 
L 104.0656 231.562627 
L 104.298161 229.332858 
L 104.298161 229.332858 
L 104.530722 229.498396 
L 104.530722 229.498396 
L 104.763282 229.970078 
L 104.995843 228.439355 
L 104.995843 228.439355 
L 105.460964 228.729544 
L 105.460964 228.729544 
L 105.693524 227.555824 
L 105.693524 227.555824 
L 106.158645 227.246688 
L 106.158645 227.246688 
L 106.391206 226.363156 
L 106.391206 226.363156 
L 106.856327 226.457892 
L 106.856327 226.457892 
L 107.321448 226.927579 
L 107.321448 226.927579 
L 107.786569 228.566001 
L 107.786569 228.566001 
L 108.251691 231.904672 
L 108.251691 231.904672 
L 108.716812 236.773068 
L 108.716812 236.773068 
L 109.181933 243.94403 
L 109.181933 243.94403 
L 111.740099 285.22069 
L 111.740099 285.22069 
L 112.670341 294.562586 
L 112.670341 294.562586 
L 112.902902 294.170681 
L 112.902902 294.170681 
L 114.530826 279.429871 
L 114.530826 279.429871 
L 114.995947 277.137278 
L 114.995947 277.137278 
L 115.228507 276.689529 
L 115.228507 276.689529 
L 115.461068 276.812186 
L 115.461068 276.812186 
L 115.926189 278.646062 
L 115.926189 278.646062 
L 116.39131 281.833156 
L 116.39131 281.833156 
L 117.088992 288.417756 
L 117.088992 288.417756 
L 117.321552 295.488 
L 117.321552 295.488 
L 117.554113 292.66788 
L 117.554113 292.66788 
L 117.786674 294.469845 
L 117.786674 294.469845 
L 118.019234 294.94053 
L 118.019234 294.94053 
L 118.251795 293.713957 
L 118.251795 293.713957 
L 118.484355 295.488 
L 118.484355 295.488 
L 118.716916 291.745458 
L 118.716916 291.745458 
L 119.414598 289.584496 
L 119.414598 289.584496 
L 119.647158 295.488 
L 119.647158 295.488 
L 119.879719 287.943083 
L 119.879719 287.943083 
L 120.34484 286.340561 
L 120.34484 286.340561 
L 120.809961 285.210718 
L 120.809961 285.210718 
L 121.042521 285.010278 
L 121.042521 285.010278 
L 121.275082 285.214707 
L 121.275082 285.214707 
L 121.740203 286.999719 
L 121.740203 286.999719 
L 121.972764 295.488 
L 121.972764 295.488 
L 122.205324 289.532641 
L 122.205324 289.532641 
L 123.135567 295.488 
L 123.135567 295.488 
L 123.600688 293.110643 
L 123.600688 293.110643 
L 124.065809 291.805291 
L 124.065809 291.805291 
L 124.298369 295.488 
L 124.298369 295.488 
L 124.53093 291.468232 
L 124.53093 291.468232 
L 124.996051 291.387458 
L 124.996051 291.387458 
L 125.228612 291.285742 
L 125.228612 291.285742 
L 125.461172 295.488 
L 125.461172 295.488 
L 125.693733 290.54581 
L 125.693733 290.54581 
L 125.926293 289.873688 
L 125.926293 289.873688 
L 126.391414 287.541206 
L 126.391414 287.541206 
L 126.623975 295.488 
L 126.623975 295.488 
L 126.856536 284.766958 
L 126.856536 284.766958 
L 127.786778 279.246384 
L 127.786778 279.246384 
L 128.251899 277.638876 
L 128.251899 277.638876 
L 128.484459 277.375612 
L 128.484459 277.375612 
L 128.71702 277.325751 
L 128.71702 277.325751 
L 128.949581 277.535166 
L 128.949581 277.535166 
L 129.182141 277.996876 
L 129.182141 277.996876 
L 129.414702 278.726836 
L 129.414702 278.726836 
L 131.042626 289.777956 
L 131.042626 289.777956 
L 131.275186 295.488 
L 131.275186 295.488 
L 131.507747 293.022888 
L 131.507747 293.022888 
L 131.740307 294.588513 
L 131.740307 294.588513 
L 131.972868 295.101081 
L 131.972868 295.101081 
L 132.205428 293.971238 
L 132.205428 293.971238 
L 132.437989 295.488 
L 132.437989 295.488 
L 132.67055 292.213151 
L 132.67055 292.213151 
L 133.135671 290.483983 
L 133.135671 290.483983 
L 133.368231 295.488 
L 133.368231 295.488 
L 133.600792 288.429723 
L 133.600792 288.429723 
L 134.065913 285.912756 
L 134.065913 285.912756 
L 134.763595 282.128331 
L 134.763595 282.128331 
L 135.693837 277.499266 
L 135.693837 277.499266 
L 135.926397 276.867033 
L 135.926397 276.867033 
L 136.85664 271.930826 
L 136.85664 271.930826 
L 137.0892 269.577402 
L 137.0892 269.577402 
L 137.321761 269.655185 
L 137.321761 269.655185 
L 137.554321 267.13024 
L 137.554321 267.13024 
L 137.786882 266.359394 
L 137.786882 266.359394 
L 138.019443 263.932177 
L 138.019443 263.932177 
L 138.252003 260.256448 
L 138.252003 260.256448 
L 138.484564 260.315284 
L 138.484564 260.315284 
L 138.717124 256.496953 
L 138.717124 256.496953 
L 138.949685 255.782948 
L 138.949685 255.782948 
L 139.182245 251.872874 
L 139.182245 251.872874 
L 139.414806 250.313232 
L 139.414806 250.313232 
L 140.345048 234.366792 
L 140.345048 234.366792 
L 140.577609 233.343651 
L 140.577609 233.343651 
L 140.810169 227.867952 
L 140.810169 227.867952 
L 141.04273 226.573568 
L 141.04273 226.573568 
L 141.27529 221.77398 
L 141.27529 221.77398 
L 141.507851 220.757819 
L 141.740412 217.126965 
L 141.972972 216.835779 
L 141.972972 216.835779 
L 142.205533 215.001903 
L 142.205533 215.001903 
L 142.438093 212.094029 
L 142.438093 212.094029 
L 142.670654 216.591462 
L 142.670654 216.591462 
L 142.903214 216.596448 
L 142.903214 216.596448 
L 143.135775 223.592897 
L 143.135775 223.592897 
L 143.368336 226.321273 
L 143.368336 226.321273 
L 143.600896 235.085783 
L 143.600896 235.085783 
L 143.833457 239.60316 
L 143.833457 239.60316 
L 144.066017 248.980955 
L 144.066017 248.980955 
L 144.298578 253.77456 
L 144.298578 253.77456 
L 144.531138 262.411426 
L 144.531138 262.411426 
L 144.763699 266.527923 
L 144.763699 266.527923 
L 144.996259 273.818551 
L 144.996259 273.818551 
L 145.22882 277.041545 
L 145.461381 283.20233 
L 145.461381 283.20233 
L 145.693941 285.605614 
L 145.693941 285.605614 
L 145.926502 290.712345 
L 145.926502 290.712345 
L 146.391623 294.377104 
L 146.391623 294.377104 
L 146.624183 293.12959 
L 146.624183 293.12959 
L 146.856744 289.830808 
L 146.856744 289.830808 
L 147.089305 295.488 
L 147.089305 295.488 
L 147.321865 286.803268 
L 147.321865 286.803268 
L 147.554426 295.488 
L 147.554426 295.488 
L 147.786986 285.432099 
L 147.786986 285.432099 
L 148.019547 295.488 
L 148.019547 295.488 
L 148.484668 285.955636 
L 148.484668 285.955636 
L 148.717228 290.60664 
L 148.717228 290.60664 
L 148.949789 286.196962 
L 148.949789 286.196962 
L 149.18235 291.505129 
L 149.18235 291.505129 
L 149.41491 286.919942 
L 149.41491 286.919942 
L 149.647471 292.214148 
L 149.647471 292.214148 
L 149.880031 288.242247 
L 149.880031 288.242247 
L 150.112592 293.990185 
L 150.112592 293.990185 
L 150.345152 290.730295 
L 150.345152 290.730295 
L 150.577713 294.439929 
L 150.577713 294.439929 
L 150.810274 294.033066 
L 150.810274 294.033066 
L 151.042834 291.029459 
L 151.042834 291.029459 
L 151.275395 293.461662 
L 151.275395 293.461662 
L 151.507955 288.528447 
L 151.507955 288.528447 
L 151.740516 291.550004 
L 151.740516 291.550004 
L 151.973076 288.046793 
L 151.973076 288.046793 
L 152.205637 292.099469 
L 152.205637 292.099469 
L 152.438197 290.501933 
L 152.438197 290.501933 
L 152.670758 295.233711 
L 152.670758 295.233711 
L 152.903319 295.362351 
L 153.135879 289.592474 
L 153.135879 289.592474 
L 153.36844 288.566341 
L 153.601 282.953027 
L 153.601 282.953027 
L 153.833561 281.544961 
L 153.833561 281.544961 
L 154.066121 276.555902 
L 154.066121 276.555902 
L 154.298682 275.073046 
L 154.298682 275.073046 
L 154.531243 270.725195 
L 154.531243 270.725195 
L 154.763803 268.737749 
L 154.763803 268.737749 
L 155.228924 262.033482 
L 155.228924 262.033482 
L 155.461485 259.269207 
L 155.461485 259.269207 
L 157.089409 224.295933 
L 157.089409 224.295933 
L 157.321969 221.661295 
L 157.321969 221.661295 
L 157.55453 217.330397 
L 157.55453 217.330397 
L 157.78709 216.017067 
L 157.78709 216.017067 
L 158.252212 210.231234 
L 158.252212 210.231234 
L 158.484772 212.843933 
L 158.717333 211.333155 
L 158.717333 211.333155 
L 158.949893 214.445458 
L 158.949893 214.445458 
L 159.182454 214.324795 
L 159.182454 214.324795 
L 159.415014 212.590641 
L 159.415014 212.590641 
L 159.647575 218.179025 
L 159.647575 218.179025 
L 159.880135 217.177823 
L 159.880135 217.177823 
L 160.112696 221.50573 
L 160.112696 221.50573 
L 160.345257 220.882471 
L 160.345257 220.882471 
L 160.577817 224.123415 
L 160.577817 224.123415 
L 160.810378 224.29693 
L 160.810378 224.29693 
L 161.042938 222.727316 
L 161.042938 222.727316 
L 161.275499 228.159138 
L 161.275499 228.159138 
L 161.508059 228.452319 
L 161.508059 228.452319 
L 161.74062 233.967906 
L 161.74062 233.967906 
L 162.205741 238.341685 
L 162.205741 238.341685 
L 162.438302 248.507279 
L 162.438302 248.507279 
L 162.670862 253.521268 
L 162.670862 253.521268 
L 163.135983 269.492639 
L 163.135983 269.492639 
L 163.601104 282.481345 
L 163.601104 282.481345 
L 163.833665 285.620573 
L 163.833665 285.620573 
L 164.066226 291.029459 
L 164.066226 291.029459 
L 164.298786 292.194204 
L 164.298786 292.194204 
L 164.531347 295.01931 
L 164.531347 295.01931 
L 164.763907 294.614441 
L 164.763907 294.614441 
L 164.996468 292.193207 
L 164.996468 292.193207 
L 165.229028 294.222536 
L 165.229028 294.222536 
L 165.461589 291.478205 
L 165.461589 291.478205 
L 165.69415 292.535251 
L 165.69415 292.535251 
L 165.92671 290.082106 
L 166.159271 290.619604 
L 166.159271 290.619604 
L 166.391831 295.488 
L 166.391831 295.488 
L 166.624392 286.704544 
L 166.624392 286.704544 
L 166.856952 289.545605 
L 166.856952 289.545605 
L 167.089513 288.804675 
L 167.089513 288.804675 
L 167.554634 295.488 
L 167.554634 295.488 
L 168.019755 291.331614 
L 168.019755 291.331614 
L 168.252316 288.555372 
L 168.252316 288.555372 
L 168.717437 278.006848 
L 168.717437 278.006848 
L 168.949997 273.685922 
L 168.949997 273.685922 
L 169.647679 255.688213 
L 169.647679 255.688213 
L 170.345361 242.410316 
L 170.345361 242.410316 
L 170.810482 236.693291 
L 170.810482 236.693291 
L 171.043042 235.763888 
L 171.043042 235.763888 
L 171.275603 235.339075 
L 171.275603 235.339075 
L 171.508164 235.950367 
L 171.508164 235.950367 
L 171.973285 240.597382 
L 171.973285 240.597382 
L 172.670966 250.681204 
L 172.670966 250.681204 
L 174.764011 281.947835 
L 174.764011 281.947835 
L 175.694254 292.226115 
L 175.694254 292.226115 
L 175.926814 294.24248 
L 175.926814 294.24248 
L 176.159375 294.974435 
L 176.159375 294.974435 
L 177.322178 284.474774 
L 177.322178 284.474774 
L 178.019859 275.977518 
L 178.019859 275.977518 
L 180.112904 243.893172 
L 180.112904 243.893172 
L 180.345465 237.472114 
L 180.345465 237.472114 
L 180.578026 235.772863 
L 180.578026 235.772863 
L 180.810586 227.580754 
L 180.810586 227.580754 
L 181.043147 226.831847 
L 181.043147 226.831847 
L 181.275707 223.869125 
L 181.275707 223.869125 
L 181.508268 217.001316 
L 181.508268 217.001316 
L 181.740828 215.185391 
L 181.740828 215.185391 
L 181.973389 207.148847 
L 181.973389 207.148847 
L 182.205949 207.143861 
L 182.205949 207.143861 
L 182.43851 197.996422 
L 182.43851 197.996422 
L 182.671071 199.652793 
L 182.671071 199.652793 
L 182.903631 198.678516 
L 182.903631 198.678516 
L 183.136192 191.002964 
L 183.136192 191.002964 
L 183.368752 190.864351 
L 183.368752 190.864351 
L 183.601313 181.178417 
L 183.601313 181.178417 
L 183.833873 181.759792 
L 183.833873 181.759792 
L 184.066434 179.479165 
L 184.066434 179.479165 
L 184.298995 170.3766 
L 184.298995 170.3766 
L 184.531555 168.787042 
L 184.764116 157.749883 
L 184.764116 157.749883 
L 184.996676 157.891488 
L 184.996676 157.891488 
L 185.229237 155.318677 
L 185.229237 155.318677 
L 185.461797 145.873071 
L 185.461797 145.873071 
L 185.694358 144.879846 
L 185.694358 144.879846 
L 185.926918 133.076828 
L 185.926918 133.076828 
L 186.159479 134.789043 
L 186.159479 134.789043 
L 186.39204 133.341089 
L 186.39204 133.341089 
L 186.6246 124.539683 
L 186.6246 124.539683 
L 186.857161 126.032512 
L 186.857161 126.032512 
L 187.089721 116.272783 
L 187.089721 116.272783 
L 187.322282 121.595909 
L 187.322282 121.595909 
L 187.554842 112.631957 
L 187.554842 112.631957 
L 188.019964 125.419225 
L 188.019964 125.419225 
L 188.252524 122.40066 
L 188.252524 122.40066 
L 188.485085 128.661166 
L 188.485085 128.661166 
L 188.717645 124.681287 
L 188.717645 124.681287 
L 188.950206 131.80538 
L 188.950206 131.80538 
L 189.182766 125.67152 
L 189.182766 125.67152 
L 189.415327 133.072839 
L 189.415327 133.072839 
L 189.647887 136.782473 
L 189.647887 136.782473 
L 189.880448 132.211246 
L 189.880448 132.211246 
L 190.113009 136.968952 
L 190.113009 136.968952 
L 190.345569 131.496244 
L 190.345569 131.496244 
L 190.81069 142.365871 
L 190.81069 142.365871 
L 191.043251 140.624736 
L 191.043251 140.624736 
L 191.275811 146.869287 
L 191.275811 146.869287 
L 191.508372 144.773144 
L 191.508372 144.773144 
L 191.973493 159.522929 
L 191.973493 159.522929 
L 192.206054 160.638811 
L 192.206054 160.638811 
L 192.438614 168.1937 
L 192.438614 168.1937 
L 192.671175 169.064267 
L 192.671175 169.064267 
L 193.136296 185.722718 
L 193.136296 185.722718 
L 193.368856 189.808302 
L 193.368856 189.808302 
L 193.601417 198.388327 
L 193.601417 198.388327 
L 193.833978 202.446986 
L 193.833978 202.446986 
L 194.066538 211.893589 
L 194.066538 211.893589 
L 194.299099 216.485757 
L 194.299099 216.485757 
L 194.99678 241.898745 
L 194.99678 241.898745 
L 196.392144 292.531262 
L 196.392144 292.531262 
L 196.624704 290.108033 
L 196.624704 290.108033 
L 198.252628 239.334909 
L 198.252628 239.334909 
L 198.485189 235.599348 
L 198.485189 235.599348 
L 198.717749 224.245075 
L 198.717749 224.245075 
L 198.95031 221.893646 
L 198.95031 221.893646 
L 199.182871 217.565739 
L 199.182871 217.565739 
L 199.415431 206.591405 
L 199.415431 206.591405 
L 199.647992 204.867223 
L 199.647992 204.867223 
L 199.880552 201.406892 
L 199.880552 201.406892 
L 200.113113 191.955303 
L 200.113113 191.955303 
L 200.345673 190.62502 
L 200.345673 190.62502 
L 200.578234 187.312277 
L 200.578234 187.312277 
L 200.810794 179.299666 
L 200.810794 179.299666 
L 201.043355 178.948647 
L 201.275916 169.164986 
L 201.275916 169.164986 
L 201.508476 172.891573 
L 201.508476 172.891573 
L 201.741037 174.540964 
L 201.741037 174.540964 
L 201.973597 166.95915 
L 201.973597 166.95915 
L 202.206158 170.023587 
L 202.206158 170.023587 
L 202.438718 170.978917 
L 202.438718 170.978917 
L 202.671279 165.746538 
L 202.90384 165.003614 
L 202.90384 165.003614 
L 203.1364 160.530114 
L 203.1364 160.530114 
L 203.601521 140.439255 
L 203.601521 140.439255 
L 203.834082 129.270464 
L 203.834082 129.270464 
L 204.066642 108.23624 
L 204.066642 108.23624 
L 204.299203 101.618731 
L 204.299203 101.618731 
L 204.531763 76.896812 
L 204.531763 76.896812 
L 204.764324 76.433108 
L 204.764324 76.433108 
L 204.996885 71.431085 
L 204.996885 71.431085 
L 205.229445 59.360813 
L 205.229445 59.360813 
L 205.462006 61.670359 
L 205.462006 61.670359 
L 205.694566 53.568 
L 205.694566 53.568 
L 205.927127 61.138845 
L 205.927127 61.138845 
L 206.159687 54.298957 
L 206.159687 54.298957 
L 206.392248 66.161809 
L 206.392248 66.161809 
L 206.624809 59.178323 
L 206.624809 59.178323 
L 207.08993 86.55283 
L 207.08993 86.55283 
L 207.32249 86.905844 
L 207.32249 86.905844 
L 207.555051 102.425477 
L 207.555051 102.425477 
L 207.787611 102.125316 
L 207.787611 102.125316 
L 208.252732 132.785641 
L 208.252732 132.785641 
L 208.485293 136.171181 
L 208.485293 136.171181 
L 208.950414 154.559797 
L 208.950414 154.559797 
L 209.182975 155.411418 
L 209.182975 155.411418 
L 209.415535 160.936978 
L 209.415535 160.936978 
L 209.648096 158.096914 
L 209.648096 158.096914 
L 210.113217 166.144426 
L 210.113217 166.144426 
L 210.345778 163.315332 
L 210.345778 163.315332 
L 210.810899 171.474532 
L 210.810899 171.474532 
L 211.043459 171.710872 
L 211.043459 171.710872 
L 212.438823 211.959405 
L 212.438823 211.959405 
L 214.531868 292.382677 
L 214.531868 292.382677 
L 214.764428 289.210541 
L 215.46211 265.284398 
L 215.46211 265.284398 
L 215.69467 253.885251 
L 215.69467 253.885251 
L 216.159792 240.994272 
L 216.159792 240.994272 
L 216.392352 228.984831 
L 216.392352 228.984831 
L 216.624913 223.988791 
L 216.624913 223.988791 
L 216.857473 209.28787 
L 216.857473 209.28787 
L 217.090034 206.568469 
L 217.090034 206.568469 
L 217.322594 201.199472 
L 217.322594 201.199472 
L 217.555155 189.025489 
L 217.555155 189.025489 
L 217.787716 185.542223 
L 217.787716 185.542223 
L 218.020276 171.237196 
L 218.252837 169.7324 
L 218.252837 169.7324 
L 218.485397 165.264884 
L 218.485397 165.264884 
L 218.717958 153.28137 
L 218.717958 153.28137 
L 218.950518 150.741467 
L 218.950518 150.741467 
L 219.183079 136.711671 
L 219.183079 136.711671 
L 219.415639 137.754756 
L 219.415639 137.754756 
L 219.6482 136.025588 
L 219.6482 136.025588 
L 219.880761 126.678706 
L 219.880761 126.678706 
L 220.113321 127.687886 
L 220.113321 127.687886 
L 220.345882 116.556989 
L 220.345882 116.556989 
L 220.578442 120.388283 
L 220.578442 120.388283 
L 220.811003 120.454099 
L 220.811003 120.454099 
L 221.043563 112.537222 
L 221.043563 112.537222 
L 221.276124 114.040022 
L 221.276124 114.040022 
L 221.508685 103.358869 
L 221.508685 103.358869 
L 221.741245 106.312615 
L 221.741245 106.312615 
L 221.973806 105.046154 
L 221.973806 105.046154 
L 222.206366 97.444396 
L 222.438927 98.31596 
L 222.438927 98.31596 
L 222.671487 89.948342 
L 222.671487 89.948342 
L 222.904048 93.684901 
L 222.904048 93.684901 
L 223.136608 85.111857 
L 223.136608 85.111857 
L 223.60173 98.576233 
L 223.60173 98.576233 
L 223.83429 98.166378 
L 224.066851 107.901176 
L 224.066851 107.901176 
L 224.299411 107.598023 
L 224.299411 107.598023 
L 224.764532 128.232364 
L 224.764532 128.232364 
L 224.997093 129.491845 
L 224.997093 129.491845 
L 225.229654 137.122523 
L 225.229654 137.122523 
L 225.462214 135.699499 
L 225.462214 135.699499 
L 225.694775 140.996697 
L 225.694775 140.996697 
L 225.927335 142.927302 
L 225.927335 142.927302 
L 226.159896 137.516422 
L 226.392456 138.426878 
L 226.392456 138.426878 
L 226.625017 136.995876 
L 226.625017 136.995876 
L 226.857577 130.43122 
L 226.857577 130.43122 
L 227.090138 131.09337 
L 227.090138 131.09337 
L 227.322699 124.012157 
L 227.322699 124.012157 
L 227.78782 133.70208 
L 227.78782 133.70208 
L 228.02038 133.334109 
L 228.02038 133.334109 
L 228.252941 141.132318 
L 228.252941 141.132318 
L 228.485501 139.824971 
L 228.485501 139.824971 
L 228.950623 155.612855 
L 228.950623 155.612855 
L 229.183183 155.048432 
L 229.183183 155.048432 
L 229.415744 161.173317 
L 229.415744 161.173317 
L 229.648304 157.585343 
L 229.648304 157.585343 
L 230.113425 167.503628 
L 230.113425 167.503628 
L 230.345986 164.984667 
L 230.345986 164.984667 
L 230.578546 169.091192 
L 230.578546 169.091192 
L 230.811107 165.458343 
L 231.276228 175.505269 
L 231.276228 175.505269 
L 231.508789 176.300048 
L 231.508789 176.300048 
L 231.741349 183.15988 
L 231.741349 183.15988 
L 231.97391 185.551198 
L 231.97391 185.551198 
L 232.20647 194.735534 
L 232.20647 194.735534 
L 232.439031 198.868984 
L 232.439031 198.868984 
L 232.904152 218.614808 
L 232.904152 218.614808 
L 234.532076 259.469647 
L 234.532076 259.469647 
L 234.764637 261.865951 
L 234.764637 261.865951 
L 234.997197 265.720181 
L 234.997197 265.720181 
L 235.229758 267.620869 
L 235.229758 267.620869 
L 235.462318 271.576815 
L 235.462318 271.576815 
L 235.694879 273.318947 
L 235.927439 277.125311 
L 235.927439 277.125311 
L 236.16 278.756752 
L 236.392561 282.359685 
L 236.392561 282.359685 
L 236.625121 283.566313 
L 236.625121 283.566313 
L 236.857682 286.583881 
L 236.857682 286.583881 
L 237.090242 287.506303 
L 237.090242 287.506303 
L 237.322803 290.07712 
L 237.322803 290.07712 
L 237.555363 290.682428 
L 237.555363 290.682428 
L 237.787924 292.625 
L 237.787924 292.625 
L 238.020485 292.80749 
L 238.020485 292.80749 
L 238.253045 294.015116 
L 238.253045 294.015116 
L 238.485606 293.914397 
L 238.485606 293.914397 
L 238.718166 294.822859 
L 238.718166 294.822859 
L 238.950727 294.696213 
L 238.950727 294.696213 
L 239.183287 295.484011 
L 239.183287 295.484011 
L 239.415848 295.412212 
L 239.415848 295.412212 
L 239.648408 294.515717 
L 239.648408 294.515717 
L 239.880969 295.488 
L 239.880969 295.488 
L 240.34609 291.581915 
L 240.34609 291.581915 
L 240.578651 290.59966 
L 240.578651 290.59966 
L 241.043772 287.497328 
L 241.043772 287.497328 
L 241.276332 286.528037 
L 241.276332 286.528037 
L 241.508893 284.519649 
L 241.508893 284.519649 
L 242.439135 280.626528 
L 242.439135 280.626528 
L 242.671696 280.276506 
L 242.671696 280.276506 
L 242.904256 278.791655 
L 242.904256 278.791655 
L 243.136817 278.479527 
L 243.136817 278.479527 
L 243.369377 278.443627 
L 243.369377 278.443627 
L 243.601938 277.132292 
L 243.601938 277.132292 
L 244.067059 276.589807 
L 244.067059 276.589807 
L 244.53218 274.609341 
L 244.53218 274.609341 
L 244.997301 272.739566 
L 244.997301 272.739566 
L 245.462423 269.04489 
L 245.462423 269.04489 
L 245.927544 266.090147 
L 245.927544 266.090147 
L 246.392665 262.060407 
L 246.392665 262.060407 
L 246.857786 259.635184 
L 246.857786 259.635184 
L 247.090346 258.937135 
L 247.090346 258.937135 
L 247.322907 257.03146 
L 247.322907 257.03146 
L 248.020589 254.858531 
L 248.020589 254.858531 
L 248.48571 251.970601 
L 248.48571 251.970601 
L 249.183392 248.404566 
L 249.183392 248.404566 
L 249.648513 244.803628 
L 249.648513 244.803628 
L 250.113634 242.958783 
L 250.113634 242.958783 
L 250.346194 242.578845 
L 250.346194 242.578845 
L 250.578755 241.018206 
L 250.578755 241.018206 
L 250.811315 240.644251 
L 250.811315 240.644251 
L 251.043876 240.748958 
L 251.043876 240.748958 
L 251.508997 241.623514 
L 251.508997 241.623514 
L 251.741558 240.816768 
L 251.741558 240.816768 
L 252.439239 241.659414 
L 252.439239 241.659414 
L 252.6718 241.75016 
L 252.6718 241.75016 
L 252.904361 240.042931 
L 252.904361 240.042931 
L 253.369482 237.972716 
L 253.369482 237.972716 
L 253.602042 236.674344 
L 253.602042 236.674344 
L 254.067163 232.304554 
L 254.067163 232.304554 
L 254.997406 225.804717 
L 254.997406 225.804717 
L 255.229966 225.09869 
L 255.229966 225.09869 
L 255.462527 224.759637 
L 255.462527 224.759637 
L 255.695087 224.81947 
L 255.695087 224.81947 
L 255.927648 225.28118 
L 255.927648 225.28118 
L 256.160208 224.992985 
L 256.160208 224.992985 
L 256.62533 226.732125 
L 256.62533 226.732125 
L 257.090451 229.170312 
L 257.090451 229.170312 
L 257.323011 229.357788 
L 258.253253 232.845044 
L 258.253253 232.845044 
L 258.485814 232.457128 
L 258.485814 232.457128 
L 259.183496 233.972892 
L 259.183496 233.972892 
L 259.416056 234.85044 
L 259.648617 234.65 
L 259.648617 234.65 
L 260.346299 236.842873 
L 260.346299 236.842873 
L 260.578859 237.73139 
L 260.578859 237.73139 
L 260.81142 237.468126 
L 260.81142 237.468126 
L 261.276541 238.372598 
L 261.276541 238.372598 
L 261.741662 238.804392 
L 261.741662 238.804392 
L 261.974222 237.532945 
L 261.974222 237.532945 
L 262.439344 236.782043 
L 262.439344 236.782043 
L 262.671904 236.562656 
L 262.671904 236.562656 
L 262.904465 236.543709 
L 262.904465 236.543709 
L 263.137025 235.517576 
L 263.137025 235.517576 
L 263.369586 235.750924 
L 263.369586 235.750924 
L 263.602146 236.470912 
L 263.602146 236.470912 
L 264.532389 241.979519 
L 264.532389 241.979519 
L 265.927752 254.460643 
L 265.927752 254.460643 
L 266.392873 257.514111 
L 266.392873 257.514111 
L 266.625434 256.881878 
L 266.625434 256.881878 
L 266.857994 256.883872 
L 266.857994 256.883872 
L 267.090555 256.378285 
L 267.090555 256.378285 
L 267.323115 255.34218 
L 267.323115 255.34218 
L 267.555676 253.795502 
L 267.555676 253.795502 
L 268.020797 248.141301 
L 268.020797 248.141301 
L 269.41616 234.415655 
L 269.41616 234.415655 
L 270.113842 230.873553 
L 270.113842 230.873553 
L 270.346403 230.531509 
L 270.346403 230.531509 
L 270.578963 230.518545 
L 270.811524 230.779815 
L 270.811524 230.779815 
L 271.044084 231.262466 
L 271.044084 231.262466 
L 271.276645 230.792779 
L 271.741766 231.893702 
L 271.741766 231.893702 
L 272.206887 233.303762 
L 272.206887 233.303762 
L 272.439448 233.070414 
L 272.439448 233.070414 
L 273.137129 234.799582 
L 273.137129 234.799582 
L 273.36969 234.799582 
L 273.36969 234.799582 
L 274.067372 236.417063 
L 274.067372 236.417063 
L 274.299932 237.13007 
L 274.299932 237.13007 
L 274.532493 237.40231 
L 274.532493 237.40231 
L 274.997614 239.100564 
L 274.997614 239.100564 
L 275.695296 241.960572 
L 275.695296 241.960572 
L 276.392977 243.977935 
L 276.392977 243.977935 
L 277.090659 245.042959 
L 277.090659 245.042959 
L 277.788341 245.631315 
L 277.788341 245.631315 
L 278.020901 246.463988 
L 278.020901 246.463988 
L 278.486022 247.079269 
L 278.486022 247.079269 
L 278.951144 247.487129 
L 278.951144 247.487129 
L 279.881386 257.656712 
L 279.881386 257.656712 
L 280.346507 266.78321 
L 280.346507 266.78321 
L 281.044189 292.176254 
L 281.044189 292.176254 
L 281.276749 290.060167 
L 281.276749 290.060167 
L 281.974431 258.551213 
L 281.974431 258.551213 
L 283.137234 214.616979 
L 283.137234 214.616979 
L 284.067476 188.216749 
L 284.067476 188.216749 
L 285.230279 149.686415 
L 285.230279 149.686415 
L 285.462839 146.627961 
L 285.462839 146.627961 
L 285.92796 155.582938 
L 285.92796 155.582938 
L 286.393082 172.424877 
L 286.393082 172.424877 
L 287.788445 288.188397 
L 287.788445 288.188397 
L 288.253566 239.578229 
L 288.253566 239.578229 
L 288.718687 212.523828 
L 288.718687 212.523828 
L 288.951248 206.050915 
L 288.951248 206.050915 
L 289.183808 203.589792 
L 289.183808 203.589792 
L 289.416369 203.619709 
L 289.416369 203.619709 
L 289.648929 200.808564 
L 289.648929 200.808564 
L 290.114051 200.4376 
L 290.114051 200.4376 
L 290.579172 194.465289 
L 290.579172 194.465289 
L 290.811732 192.135798 
L 290.811732 192.135798 
L 291.276853 183.795105 
L 291.276853 183.795105 
L 292.207096 173.229628 
L 292.207096 173.229628 
L 292.672217 171.817574 
L 292.672217 171.817574 
L 292.904777 172.941433 
L 292.904777 172.941433 
L 293.137338 175.29386 
L 293.137338 175.29386 
L 294.532701 196.257282 
L 294.532701 196.257282 
L 295.928065 210.402755 
L 295.928065 210.402755 
L 296.393186 218.134151 
L 296.393186 218.134151 
L 297.555989 250.997321 
L 297.555989 250.997321 
L 298.25367 275.760126 
L 298.25367 275.760126 
L 298.718791 291.865123 
L 298.718791 291.865123 
L 298.951352 292.032655 
L 298.951352 292.032655 
L 299.881594 268.770657 
L 299.881594 268.770657 
L 300.579276 257.910005 
L 300.579276 257.910005 
L 300.811836 255.974413 
L 300.811836 255.974413 
L 301.276958 253.999931 
L 301.276958 253.999931 
L 301.509518 254.564353 
L 301.509518 254.564353 
L 301.742079 256.078123 
L 301.742079 256.078123 
L 301.974639 256.667477 
L 301.974639 256.667477 
L 304.532805 277.978926 
L 304.532805 277.978926 
L 304.765366 277.854274 
L 304.765366 277.854274 
L 304.997927 280.2785 
L 304.997927 280.2785 
L 305.230487 281.027407 
L 305.230487 281.027407 
L 306.62585 294.132787 
L 306.62585 294.132787 
L 306.858411 290.974612 
L 306.858411 290.974612 
L 308.021214 265.28739 
L 308.021214 265.28739 
L 308.951456 236.992455 
L 308.951456 236.992455 
L 309.184017 234.945176 
L 309.184017 234.945176 
L 309.416577 227.998586 
L 309.416577 227.998586 
L 309.649138 227.701417 
L 309.649138 227.701417 
L 309.881698 222.972631 
L 309.881698 222.972631 
L 310.114259 224.367732 
L 310.114259 224.367732 
L 310.346819 222.749255 
L 310.346819 222.749255 
L 310.57938 226.69822 
L 310.57938 226.69822 
L 310.811941 228.355589 
L 310.811941 228.355589 
L 311.044501 228.686664 
L 311.044501 228.686664 
L 311.277062 236.674344 
L 311.277062 236.674344 
L 311.509622 238.282849 
L 311.509622 238.282849 
L 311.742183 245.632312 
L 311.742183 245.632312 
L 311.974743 247.484138 
L 311.974743 247.484138 
L 312.207304 253.719714 
L 312.207304 253.719714 
L 312.439865 255.879678 
L 312.439865 255.879678 
L 312.672425 261.069177 
L 312.672425 261.069177 
L 312.904986 263.002774 
L 312.904986 263.002774 
L 313.137546 262.8861 
L 313.137546 262.8861 
L 313.370107 268.896305 
L 313.370107 268.896305 
L 313.602667 268.79459 
L 313.602667 268.79459 
L 313.835228 273.673955 
L 313.835228 273.673955 
L 314.067788 273.661989 
L 314.067788 273.661989 
L 314.300349 277.923082 
L 314.300349 277.923082 
L 314.53291 278.597198 
L 314.53291 278.597198 
L 314.76547 282.376637 
L 314.998031 283.554346 
L 314.998031 283.554346 
L 315.230591 283.367867 
L 315.230591 283.367867 
L 315.463152 288.57033 
L 315.463152 288.57033 
L 315.695712 288.966224 
L 315.928273 293.547423 
L 315.928273 293.547423 
L 316.160834 294.36414 
L 316.858515 288.922346 
L 316.858515 288.922346 
L 317.091076 295.488 
L 317.091076 295.488 
L 317.323636 287.76857 
L 317.323636 287.76857 
L 317.556197 284.61239 
L 317.556197 284.61239 
L 317.788757 284.030017 
L 317.788757 284.030017 
L 318.021318 281.423301 
L 318.021318 281.423301 
L 318.253879 280.419107 
L 318.253879 280.419107 
L 318.719 276.813183 
L 318.719 276.813183 
L 318.95156 275.607552 
L 318.95156 275.607552 
L 319.184121 272.95297 
L 319.184121 272.95297 
L 320.812045 263.980043 
L 320.812045 263.980043 
L 321.044605 262.833248 
L 321.044605 262.833248 
L 321.277166 262.25985 
L 321.277166 262.25985 
L 321.509726 262.00556 
L 321.509726 262.00556 
L 321.742287 261.501968 
L 321.742287 261.501968 
L 321.974848 261.517923 
L 321.974848 261.517923 
L 322.207408 261.733321 
L 322.207408 261.733321 
L 322.439969 261.564792 
L 322.439969 261.564792 
L 323.602772 263.073576 
L 323.602772 263.073576 
L 324.300453 264.815708 
L 324.300453 264.815708 
L 324.998135 267.932997 
L 324.998135 267.932997 
L 326.393498 276.809194 
L 326.393498 276.809194 
L 326.858619 279.535576 
L 326.858619 279.535576 
L 327.323741 279.87064 
L 327.323741 279.87064 
L 327.556301 279.562501 
L 327.556301 279.562501 
L 327.788862 278.930267 
L 327.788862 278.930267 
L 328.021422 277.839316 
L 328.021422 277.839316 
L 328.951664 268.660963 
L 328.951664 268.660963 
L 330.114467 255.817851 
L 330.114467 255.817851 
L 330.812149 253.974003 
L 330.812149 253.974003 
L 331.04471 254.121591 
L 331.04471 254.121591 
L 331.27727 254.796704 
L 331.27727 254.796704 
L 332.207512 269.526544 
L 332.207512 269.526544 
L 332.440073 274.729007 
L 332.440073 274.729007 
L 332.905194 292.271987 
L 332.905194 292.271987 
L 333.137755 290.282546 
L 333.137755 290.282546 
L 334.300557 251.802072 
L 334.300557 251.802072 
L 334.765679 243.272905 
L 334.765679 243.272905 
L 334.998239 240.309187 
L 334.998239 240.309187 
L 335.46336 237.984682 
L 335.46336 237.984682 
L 335.695921 236.522767 
L 335.695921 236.522767 
L 335.928481 237.271675 
L 335.928481 237.271675 
L 336.161042 236.147815 
L 336.161042 236.147815 
L 336.393603 233.974887 
L 336.393603 233.974887 
L 336.626163 234.96512 
L 336.858724 232.289596 
L 336.858724 232.289596 
L 337.091284 231.982454 
L 337.091284 231.982454 
L 337.556405 226.428972 
L 337.556405 226.428972 
L 337.788966 227.772219 
L 337.788966 227.772219 
L 338.021526 226.626421 
L 338.021526 226.626421 
L 338.254087 224.918194 
L 338.254087 224.918194 
L 338.486648 230.842639 
L 338.486648 230.842639 
L 338.719208 232.330482 
L 338.719208 232.330482 
L 339.184329 244.182364 
L 339.184329 244.182364 
L 339.41689 248.78949 
L 339.41689 248.78949 
L 339.882011 265.273429 
L 339.882011 265.273429 
L 340.347132 280.159832 
L 340.347132 280.159832 
L 340.579693 284.580479 
L 340.579693 284.580479 
L 340.812253 292.22412 
L 340.812253 292.22412 
L 341.044814 295.073159 
L 341.044814 295.073159 
L 341.277374 293.179451 
L 341.277374 293.179451 
L 341.509935 287.006699 
L 341.509935 287.006699 
L 341.742495 285.681403 
L 341.742495 285.681403 
L 341.975056 281.479145 
L 341.975056 281.479145 
L 342.207617 280.420104 
L 342.207617 280.420104 
L 342.440177 280.779101 
L 342.440177 280.779101 
L 342.672738 276.893958 
L 342.672738 276.893958 
L 342.905298 277.017612 
L 343.137859 274.290233 
L 343.137859 274.290233 
L 343.370419 274.245359 
L 343.370419 274.245359 
L 343.60298 275.328332 
L 343.60298 275.328332 
L 343.835541 272.44838 
L 343.835541 272.44838 
L 344.068101 273.269087 
L 344.068101 273.269087 
L 344.300662 271.587785 
L 344.300662 271.587785 
L 344.533222 272.188107 
L 344.533222 272.188107 
L 344.765783 273.852456 
L 344.998343 271.879968 
L 344.998343 271.879968 
L 345.230904 272.816352 
L 345.230904 272.816352 
L 345.463464 274.420868 
L 345.463464 274.420868 
L 345.696025 271.563852 
L 345.696025 271.563852 
L 345.928586 272.184118 
L 345.928586 272.184118 
L 346.161146 269.73197 
L 346.161146 269.73197 
L 346.393707 269.295191 
L 346.393707 269.295191 
L 346.626267 269.555464 
L 346.626267 269.555464 
L 346.858828 266.31452 
L 347.091388 265.837852 
L 347.091388 265.837852 
L 347.323949 263.34781 
L 347.323949 263.34781 
L 347.55651 262.674691 
L 347.55651 262.674691 
L 347.78907 262.972857 
L 347.78907 262.972857 
L 348.021631 261.030286 
L 348.021631 261.030286 
L 348.254191 262.048441 
L 348.254191 262.048441 
L 348.486752 261.826062 
L 348.486752 261.826062 
L 349.184433 268.07161 
L 349.184433 268.07161 
L 349.416994 271.903901 
L 349.416994 271.903901 
L 349.649555 273.589192 
L 349.649555 273.589192 
L 349.882115 277.126308 
L 349.882115 277.126308 
L 350.114676 278.681961 
L 350.114676 278.681961 
L 350.347236 281.639696 
L 350.347236 281.639696 
L 350.579797 282.39359 
L 350.579797 282.39359 
L 350.812357 284.373059 
L 350.812357 284.373059 
L 351.277479 283.382826 
L 351.277479 283.382826 
L 351.510039 282.727656 
L 351.510039 282.727656 
L 351.97516 278.652045 
L 351.97516 278.652045 
L 352.440281 271.326515 
L 352.440281 271.326515 
L 353.137963 250.724084 
L 353.137963 250.724084 
L 353.370524 242.463168 
L 353.370524 242.463168 
L 353.603084 229.813515 
L 353.603084 229.813515 
L 353.835645 224.280975 
L 353.835645 224.280975 
L 354.068205 205.654024 
L 354.068205 205.654024 
L 354.300766 204.713652 
L 354.300766 204.713652 
L 354.533326 200.748731 
L 354.533326 200.748731 
L 354.765887 186.695999 
L 354.765887 186.695999 
L 354.998448 185.629978 
L 354.998448 185.629978 
L 355.231008 169.956773 
L 355.231008 169.956773 
L 355.463569 170.429453 
L 355.463569 170.429453 
L 355.696129 167.031946 
L 355.696129 167.031946 
L 355.92869 153.906623 
L 355.92869 153.906623 
L 356.16125 151.365723 
L 356.16125 151.365723 
L 356.393811 135.823153 
L 356.393811 135.823153 
L 356.626371 135.022391 
L 356.626371 135.022391 
L 356.858932 131.507214 
L 356.858932 131.507214 
L 357.091493 119.516719 
L 357.091493 119.516719 
L 357.324053 118.907421 
L 357.556614 106.635712 
L 357.556614 106.635712 
L 357.789174 110.173826 
L 357.789174 110.173826 
L 358.021735 111.29968 
L 358.021735 111.29968 
L 358.254295 103.309008 
L 358.254295 103.309008 
L 358.486856 107.485338 
L 358.486856 107.485338 
L 358.719417 108.912351 
L 358.719417 108.912351 
L 358.951977 104.173592 
L 358.951977 104.173592 
L 359.184538 107.326781 
L 359.184538 107.326781 
L 359.417098 99.676159 
L 359.417098 99.676159 
L 359.649659 105.114962 
L 359.649659 105.114962 
L 359.882219 106.956815 
L 359.882219 106.956815 
L 360.11478 101.425272 
L 360.11478 101.425272 
L 360.34734 104.381013 
L 360.34734 104.381013 
L 360.579901 96.439204 
L 360.579901 96.439204 
L 360.812462 100.878799 
L 360.812462 100.878799 
L 361.045022 101.925873 
L 361.045022 101.925873 
L 361.277583 95.82891 
L 361.277583 95.82891 
L 361.510143 98.012807 
L 361.510143 98.012807 
L 361.742704 88.887307 
L 361.742704 88.887307 
L 361.975264 92.767464 
L 361.975264 92.767464 
L 362.207825 93.301971 
L 362.207825 93.301971 
L 362.440386 86.680473 
L 362.440386 86.680473 
L 362.672946 89.124644 
L 362.672946 89.124644 
L 362.905507 80.945499 
L 362.905507 80.945499 
L 363.138067 86.269621 
L 363.138067 86.269621 
L 363.370628 88.487424 
L 363.370628 88.487424 
L 363.603188 83.99398 
L 363.603188 83.99398 
L 363.835749 88.663931 
L 363.835749 88.663931 
L 364.068309 82.834221 
L 364.068309 82.834221 
L 364.533431 94.650203 
L 364.533431 94.650203 
L 364.765991 93.458533 
L 364.765991 93.458533 
L 364.998552 100.88179 
L 364.998552 100.88179 
L 365.231112 100.142855 
L 365.231112 100.142855 
L 365.463673 111.78632 
L 365.463673 111.78632 
L 365.696233 113.770775 
L 365.696233 113.770775 
L 366.161355 140.402358 
L 366.161355 140.402358 
L 366.393915 147.973202 
L 366.393915 147.973202 
L 367.091597 182.535624 
L 367.091597 182.535624 
L 367.789278 211.641294 
L 367.789278 211.641294 
L 368.48696 235.140629 
L 368.48696 235.140629 
L 369.649763 264.950332 
L 369.649763 264.950332 
L 370.347445 276.991684 
L 370.347445 276.991684 
L 370.812566 281.277708 
L 370.812566 281.277708 
L 371.045126 282.337746 
L 371.045126 282.337746 
L 371.277687 282.787489 
L 371.277687 282.787489 
L 371.510247 282.237027 
L 371.510247 282.237027 
L 371.742808 282.005674 
L 371.742808 282.005674 
L 371.975369 280.829959 
L 371.975369 280.829959 
L 372.207929 281.085246 
L 372.207929 281.085246 
L 372.44049 279.46976 
L 372.44049 279.46976 
L 372.67305 280.509854 
L 372.67305 280.509854 
L 372.905611 279.325164 
L 372.905611 279.325164 
L 373.138171 281.552939 
L 373.138171 281.552939 
L 373.370732 280.971563 
L 373.370732 280.971563 
L 373.603293 284.693164 
L 373.603293 284.693164 
L 373.835853 284.797872 
L 373.835853 284.797872 
L 374.068414 289.103839 
L 374.068414 289.103839 
L 374.300974 288.278147 
L 374.300974 288.278147 
L 374.533535 291.289731 
L 374.533535 291.289731 
L 374.766095 288.536425 
L 374.766095 288.536425 
L 374.998656 289.378073 
L 374.998656 289.378073 
L 375.231216 284.284307 
L 375.231216 284.284307 
L 375.463777 282.95901 
L 375.463777 282.95901 
L 375.696338 275.766109 
L 375.928898 272.672753 
L 375.928898 272.672753 
L 376.161459 264.449731 
L 376.161459 264.449731 
L 376.394019 260.468854 
L 376.394019 260.468854 
L 376.62658 252.215916 
L 376.62658 252.215916 
L 376.85914 248.509273 
L 376.85914 248.509273 
L 377.091701 241.109949 
L 377.091701 241.109949 
L 377.324262 238.256921 
L 377.324262 238.256921 
L 377.556822 232.556849 
L 377.556822 232.556849 
L 377.789383 231.279419 
L 377.789383 231.279419 
L 378.254504 224.745676 
L 378.254504 224.745676 
L 378.487064 231.558639 
L 378.487064 231.558639 
L 378.719625 232.325496 
L 378.719625 232.325496 
L 378.952185 243.728632 
L 378.952185 243.728632 
L 379.184746 249.026827 
L 379.184746 249.026827 
L 379.882428 293.145546 
L 379.882428 293.145546 
L 380.114988 286.780332 
L 380.114988 286.780332 
L 380.580109 256.699387 
L 380.580109 256.699387 
L 380.81267 240.253343 
L 380.81267 240.253343 
L 381.742912 210.221262 
L 381.742912 210.221262 
L 381.975473 210.111568 
L 381.975473 210.111568 
L 382.208033 209.536176 
L 382.208033 209.536176 
L 383.603397 226.172689 
L 383.603397 226.172689 
L 384.301078 238.181133 
L 384.301078 238.181133 
L 384.7662 245.596413 
L 384.7662 245.596413 
L 386.161563 281.877033 
L 386.161563 281.877033 
L 386.394123 295.488 
L 386.626684 295.1659 
L 386.626684 295.1659 
L 387.789487 263.90226 
L 387.789487 263.90226 
L 388.254608 255.346169 
L 388.254608 255.346169 
L 388.95229 250.913555 
L 388.95229 250.913555 
L 389.417411 253.795502 
L 389.417411 253.795502 
L 389.882532 259.687039 
L 389.882532 259.687039 
L 390.115092 263.736723 
L 390.115092 263.736723 
L 391.277895 294.299322 
L 391.277895 294.299322 
L 392.673259 255.881672 
L 392.673259 255.881672 
L 393.37094 242.064283 
L 393.37094 242.064283 
L 394.068622 232.494025 
L 394.068622 232.494025 
L 394.533743 229.268039 
L 394.533743 229.268039 
L 394.766304 228.425394 
L 394.766304 228.425394 
L 394.998864 228.158141 
L 394.998864 228.158141 
L 395.231425 228.739516 
L 395.231425 228.739516 
L 395.463985 230.240322 
L 395.463985 230.240322 
L 395.929107 238.041523 
L 395.929107 238.041523 
L 396.394228 250.366085 
L 396.394228 250.366085 
L 396.859349 268.283019 
L 396.859349 268.283019 
L 397.091909 278.407728 
L 397.091909 278.407728 
L 397.32447 295.488 
L 397.32447 295.488 
L 397.789591 279.691141 
L 397.789591 279.691141 
L 398.254712 240.92347 
L 398.254712 240.92347 
L 398.487273 198.287608 
L 398.487273 198.287608 
" clip-path="url(#p213068a17e)" style="fill: none; stroke: #1f77b4; stroke-width: 1.5; stroke-linecap: square"/>
   </g>
   <g id="patch_3">
    <path d="M 57.6 307.584 
L 57.6 41.472 
" style="fill: none; stroke: #000000; stroke-width: 0.8; stroke-linejoin: miter; stroke-linecap: square"/>
   </g>
   <g id="patch_4">
    <path d="M 414.72 307.584 
L 414.72 41.472 
" style="fill: none; stroke: #000000; stroke-width: 0.8; stroke-linejoin: miter; stroke-linecap: square"/>
   </g>
   <g id="patch_5">
    <path d="M 57.6 307.584 
L 414.72 307.584 
" style="fill: none; stroke: #000000; stroke-width: 0.8; stroke-linejoin: miter; stroke-linecap: square"/>
   </g>
   <g id="patch_6">
    <path d="M 57.6 41.472 
L 414.72 41.472 
" style="fill: none; stroke: #000000; stroke-width: 0.8; stroke-linejoin: miter; stroke-linecap: square"/>
   </g>
   <g id="text_15">
    <!-- Tracking error vs Time -->
    <g transform="translate(169.584375 35.472) scale(0.12 -0.12)">
     <defs>
      <path id="DejaVuSans-76" d="M 191 3500 
L 800 3500 
L 1894 563 
L 2988 3500 
L 3597 3500 
L 2284 0 
L 1503 0 
L 191 3500 
z
" transform="scale(0.015625)"/>
     </defs>
     <use xlink:href="#DejaVuSans-54"/>
     <use xlink:href="#DejaVuSans-72" x="46.333984"/>
     <use xlink:href="#DejaVuSans-61" x="87.447266"/>
     <use xlink:href="#DejaVuSans-63" x="148.726562"/>
     <use xlink:href="#DejaVuSans-6b" x="203.707031"/>
     <use xlink:href="#DejaVuSans-69" x="261.617188"/>
     <use xlink:href="#DejaVuSans-6e" x="289.400391"/>
     <use xlink:href="#DejaVuSans-67" x="352.779297"/>
     <use xlink:href="#DejaVuSans-20" x="416.255859"/>
     <use xlink:href="#DejaVuSans-65" x="448.042969"/>
     <use xlink:href="#DejaVuSans-72" x="509.566406"/>
     <use xlink:href="#DejaVuSans-72" x="548.929688"/>
     <use xlink:href="#DejaVuSans-6f" x="587.792969"/>
     <use xlink:href="#DejaVuSans-72" x="648.974609"/>
     <use xlink:href="#DejaVuSans-20" x="690.087891"/>
     <use xlink:href="#DejaVuSans-76" x="721.875"/>
     <use xlink:href="#DejaVuSans-73" x="781.054688"/>
     <use xlink:href="#DejaVuSans-20" x="833.154297"/>
     <use xlink:href="#DejaVuSans-54" x="864.941406"/>
     <use xlink:href="#DejaVuSans-69" x="922.900391"/>
     <use xlink:href="#DejaVuSans-6d" x="950.683594"/>
     <use xlink:href="#DejaVuSans-65" x="1048.095703"/>
    </g>
   </g>
   <g id="legend_1">
    <g id="patch_7">
     <path d="M 311.00125 64.150125 
L 407.72 64.150125 
Q 409.72 64.150125 409.72 62.150125 
L 409.72 48.472 
Q 409.72 46.472 407.72 46.472 
L 311.00125 46.472 
Q 309.00125 46.472 309.00125 48.472 
L 309.00125 62.150125 
Q 309.00125 64.150125 311.00125 64.150125 
z
" style="fill: #ffffff; opacity: 0.8; stroke: #cccccc; stroke-linejoin: miter"/>
    </g>
    <g id="line2d_26">
     <path d="M 313.00125 54.570438 
L 323.00125 54.570438 
L 333.00125 54.570438 
" style="fill: none; stroke: #1f77b4; stroke-width: 1.5; stroke-linecap: square"/>
    </g>
    <g id="text_16">
     <!-- Actual speed -->
     <g transform="translate(341.00125 58.070438) scale(0.1 -0.1)">
      <defs>
       <path id="DejaVuSans-41" d="M 2188 4044 
L 1331 1722 
L 3047 1722 
L 2188 4044 
z
M 1831 4666 
L 2547 4666 
L 4325 0 
L 3669 0 
L 3244 1197 
L 1141 1197 
L 716 0 
L 50 0 
L 1831 4666 
z
" transform="scale(0.015625)"/>
       <path id="DejaVuSans-74" d="M 1172 4494 
L 1172 3500 
L 2356 3500 
L 2356 3053 
L 1172 3053 
L 1172 1153 
Q 1172 725 1289 603 
Q 1406 481 1766 481 
L 2356 481 
L 2356 0 
L 1766 0 
Q 1100 0 847 248 
Q 594 497 594 1153 
L 594 3053 
L 172 3053 
L 172 3500 
L 594 3500 
L 594 4494 
L 1172 4494 
z
" transform="scale(0.015625)"/>
       <path id="DejaVuSans-75" d="M 544 1381 
L 544 3500 
L 1119 3500 
L 1119 1403 
Q 1119 906 1312 657 
Q 1506 409 1894 409 
Q 2359 409 2629 706 
Q 2900 1003 2900 1516 
L 2900 3500 
L 3475 3500 
L 3475 0 
L 2900 0 
L 2900 538 
Q 2691 219 2414 64 
Q 2138 -91 1772 -91 
Q 1169 -91 856 284 
Q 544 659 544 1381 
z
M 1991 3584 
L 1991 3584 
z
" transform="scale(0.015625)"/>
       <path id="DejaVuSans-6c" d="M 603 4863 
L 1178 4863 
L 1178 0 
L 603 0 
L 603 4863 
z
" transform="scale(0.015625)"/>
       <path id="DejaVuSans-70" d="M 1159 525 
L 1159 -1331 
L 581 -1331 
L 581 3500 
L 1159 3500 
L 1159 2969 
Q 1341 3281 1617 3432 
Q 1894 3584 2278 3584 
Q 2916 3584 3314 3078 
Q 3713 2572 3713 1747 
Q 3713 922 3314 415 
Q 2916 -91 2278 -91 
Q 1894 -91 1617 61 
Q 1341 213 1159 525 
z
M 3116 1747 
Q 3116 2381 2855 2742 
Q 2594 3103 2138 3103 
Q 1681 3103 1420 2742 
Q 1159 2381 1159 1747 
Q 1159 1113 1420 752 
Q 1681 391 2138 391 
Q 2594 391 2855 752 
Q 3116 1113 3116 1747 
z
" transform="scale(0.015625)"/>
       <path id="DejaVuSans-64" d="M 2906 2969 
L 2906 4863 
L 3481 4863 
L 3481 0 
L 2906 0 
L 2906 525 
Q 2725 213 2448 61 
Q 2172 -91 1784 -91 
Q 1150 -91 751 415 
Q 353 922 353 1747 
Q 353 2572 751 3078 
Q 1150 3584 1784 3584 
Q 2172 3584 2448 3432 
Q 2725 3281 2906 2969 
z
M 947 1747 
Q 947 1113 1208 752 
Q 1469 391 1925 391 
Q 2381 391 2643 752 
Q 2906 1113 2906 1747 
Q 2906 2381 2643 2742 
Q 2381 3103 1925 3103 
Q 1469 3103 1208 2742 
Q 947 2381 947 1747 
z
" transform="scale(0.015625)"/>
      </defs>
      <use xlink:href="#DejaVuSans-41"/>
      <use xlink:href="#DejaVuSans-63" x="66.658203"/>
      <use xlink:href="#DejaVuSans-74" x="121.638672"/>
      <use xlink:href="#DejaVuSans-75" x="160.847656"/>
      <use xlink:href="#DejaVuSans-61" x="224.226562"/>
      <use xlink:href="#DejaVuSans-6c" x="285.505859"/>
      <use xlink:href="#DejaVuSans-20" x="313.289062"/>
      <use xlink:href="#DejaVuSans-73" x="345.076172"/>
      <use xlink:href="#DejaVuSans-70" x="397.175781"/>
      <use xlink:href="#DejaVuSans-65" x="460.652344"/>
      <use xlink:href="#DejaVuSans-65" x="522.175781"/>
      <use xlink:href="#DejaVuSans-64" x="583.699219"/>
     </g>
    </g>
   </g>
  </g>
 </g>
 <defs>
  <clipPath id="p213068a17e">
   <rect x="57.6" y="41.472" width="357.12" height="266.112"/>
  </clipPath>
 </defs>
</svg>
