<?xml version="1.0" encoding="utf-8" standalone="no"?>
<!DOCTYPE svg PUBLIC "-//W3C//DTD SVG 1.1//EN"
  "http://www.w3.org/Graphics/SVG/1.1/DTD/svg11.dtd">
<svg xmlns:xlink="http://www.w3.org/1999/xlink" width="460.8pt" height="345.6pt" viewBox="0 0 460.8 345.6" xmlns="http://www.w3.org/2000/svg" version="1.1">
 <metadata>
  <rdf:RDF xmlns:dc="http://purl.org/dc/elements/1.1/" xmlns:cc="http://creativecommons.org/ns#" xmlns:rdf="http://www.w3.org/1999/02/22-rdf-syntax-ns#">
   <cc:Work>
    <dc:type rdf:resource="http://purl.org/dc/dcmitype/StillImage"/>
    <dc:date>2024-01-30T20:59:28.837751</dc:date>
    <dc:format>image/svg+xml</dc:format>
    <dc:creator>
     <cc:Agent>
      <dc:title>Matplotlib v3.7.1, https://matplotlib.org/</dc:title>
     </cc:Agent>
    </dc:creator>
   </cc:Work>
  </rdf:RDF>
 </metadata>
 <defs>
  <style type="text/css">*{stroke-linejoin: round; stroke-linecap: butt}</style>
 </defs>
 <g id="figure_1">
  <g id="patch_1">
   <path d="M 0 345.6 
L 460.8 345.6 
L 460.8 0 
L 0 0 
z
" style="fill: #ffffff"/>
  </g>
  <g id="axes_1">
   <g id="patch_2">
    <path d="M 57.6 307.584 
L 414.72 307.584 
L 414.72 41.472 
L 57.6 41.472 
z
" style="fill: #ffffff"/>
   </g>
   <g id="matplotlib.axis_1">
    <g id="xtick_1">
     <g id="line2d_1">
      <path d="M 73.832727 307.584 
L 73.832727 41.472 
" clip-path="url(#p7674a01f30)" style="fill: none; stroke: #b0b0b0; stroke-width: 0.8; stroke-linecap: square"/>
     </g>
     <g id="line2d_2">
      <defs>
       <path id="mf466d9a75c" d="M 0 0 
L 0 3.5 
" style="stroke: #000000; stroke-width: 0.8"/>
      </defs>
      <g>
       <use xlink:href="#mf466d9a75c" x="73.832727" y="307.584" style="stroke: #000000; stroke-width: 0.8"/>
      </g>
     </g>
     <g id="text_1">
      <!-- 0 -->
      <g transform="translate(70.651477 322.182437) scale(0.1 -0.1)">
       <defs>
        <path id="DejaVuSans-30" d="M 2034 4250 
Q 1547 4250 1301 3770 
Q 1056 3291 1056 2328 
Q 1056 1369 1301 889 
Q 1547 409 2034 409 
Q 2525 409 2770 889 
Q 3016 1369 3016 2328 
Q 3016 3291 2770 3770 
Q 2525 4250 2034 4250 
z
M 2034 4750 
Q 2819 4750 3233 4129 
Q 3647 3509 3647 2328 
Q 3647 1150 3233 529 
Q 2819 -91 2034 -91 
Q 1250 -91 836 529 
Q 422 1150 422 2328 
Q 422 3509 836 4129 
Q 1250 4750 2034 4750 
z
" transform="scale(0.015625)"/>
       </defs>
       <use xlink:href="#DejaVuSans-30"/>
      </g>
     </g>
    </g>
    <g id="xtick_2">
     <g id="line2d_3">
      <path d="M 131.972868 307.584 
L 131.972868 41.472 
" clip-path="url(#p7674a01f30)" style="fill: none; stroke: #b0b0b0; stroke-width: 0.8; stroke-linecap: square"/>
     </g>
     <g id="line2d_4">
      <g>
       <use xlink:href="#mf466d9a75c" x="131.972868" y="307.584" style="stroke: #000000; stroke-width: 0.8"/>
      </g>
     </g>
     <g id="text_2">
      <!-- 5 -->
      <g transform="translate(128.791618 322.182437) scale(0.1 -0.1)">
       <defs>
        <path id="DejaVuSans-35" d="M 691 4666 
L 3169 4666 
L 3169 4134 
L 1269 4134 
L 1269 2991 
Q 1406 3038 1543 3061 
Q 1681 3084 1819 3084 
Q 2600 3084 3056 2656 
Q 3513 2228 3513 1497 
Q 3513 744 3044 326 
Q 2575 -91 1722 -91 
Q 1428 -91 1123 -41 
Q 819 9 494 109 
L 494 744 
Q 775 591 1075 516 
Q 1375 441 1709 441 
Q 2250 441 2565 725 
Q 2881 1009 2881 1497 
Q 2881 1984 2565 2268 
Q 2250 2553 1709 2553 
Q 1456 2553 1204 2497 
Q 953 2441 691 2322 
L 691 4666 
z
" transform="scale(0.015625)"/>
       </defs>
       <use xlink:href="#DejaVuSans-35"/>
      </g>
     </g>
    </g>
    <g id="xtick_3">
     <g id="line2d_5">
      <path d="M 190.113009 307.584 
L 190.113009 41.472 
" clip-path="url(#p7674a01f30)" style="fill: none; stroke: #b0b0b0; stroke-width: 0.8; stroke-linecap: square"/>
     </g>
     <g id="line2d_6">
      <g>
       <use xlink:href="#mf466d9a75c" x="190.113009" y="307.584" style="stroke: #000000; stroke-width: 0.8"/>
      </g>
     </g>
     <g id="text_3">
      <!-- 10 -->
      <g transform="translate(183.750509 322.182437) scale(0.1 -0.1)">
       <defs>
        <path id="DejaVuSans-31" d="M 794 531 
L 1825 531 
L 1825 4091 
L 703 3866 
L 703 4441 
L 1819 4666 
L 2450 4666 
L 2450 531 
L 3481 531 
L 3481 0 
L 794 0 
L 794 531 
z
" transform="scale(0.015625)"/>
       </defs>
       <use xlink:href="#DejaVuSans-31"/>
       <use xlink:href="#DejaVuSans-30" x="63.623047"/>
      </g>
     </g>
    </g>
    <g id="xtick_4">
     <g id="line2d_7">
      <path d="M 248.253149 307.584 
L 248.253149 41.472 
" clip-path="url(#p7674a01f30)" style="fill: none; stroke: #b0b0b0; stroke-width: 0.8; stroke-linecap: square"/>
     </g>
     <g id="line2d_8">
      <g>
       <use xlink:href="#mf466d9a75c" x="248.253149" y="307.584" style="stroke: #000000; stroke-width: 0.8"/>
      </g>
     </g>
     <g id="text_4">
      <!-- 15 -->
      <g transform="translate(241.890649 322.182437) scale(0.1 -0.1)">
       <use xlink:href="#DejaVuSans-31"/>
       <use xlink:href="#DejaVuSans-35" x="63.623047"/>
      </g>
     </g>
    </g>
    <g id="xtick_5">
     <g id="line2d_9">
      <path d="M 306.39329 307.584 
L 306.39329 41.472 
" clip-path="url(#p7674a01f30)" style="fill: none; stroke: #b0b0b0; stroke-width: 0.8; stroke-linecap: square"/>
     </g>
     <g id="line2d_10">
      <g>
       <use xlink:href="#mf466d9a75c" x="306.39329" y="307.584" style="stroke: #000000; stroke-width: 0.8"/>
      </g>
     </g>
     <g id="text_5">
      <!-- 20 -->
      <g transform="translate(300.03079 322.182437) scale(0.1 -0.1)">
       <defs>
        <path id="DejaVuSans-32" d="M 1228 531 
L 3431 531 
L 3431 0 
L 469 0 
L 469 531 
Q 828 903 1448 1529 
Q 2069 2156 2228 2338 
Q 2531 2678 2651 2914 
Q 2772 3150 2772 3378 
Q 2772 3750 2511 3984 
Q 2250 4219 1831 4219 
Q 1534 4219 1204 4116 
Q 875 4013 500 3803 
L 500 4441 
Q 881 4594 1212 4672 
Q 1544 4750 1819 4750 
Q 2544 4750 2975 4387 
Q 3406 4025 3406 3419 
Q 3406 3131 3298 2873 
Q 3191 2616 2906 2266 
Q 2828 2175 2409 1742 
Q 1991 1309 1228 531 
z
" transform="scale(0.015625)"/>
       </defs>
       <use xlink:href="#DejaVuSans-32"/>
       <use xlink:href="#DejaVuSans-30" x="63.623047"/>
      </g>
     </g>
    </g>
    <g id="xtick_6">
     <g id="line2d_11">
      <path d="M 364.533431 307.584 
L 364.533431 41.472 
" clip-path="url(#p7674a01f30)" style="fill: none; stroke: #b0b0b0; stroke-width: 0.8; stroke-linecap: square"/>
     </g>
     <g id="line2d_12">
      <g>
       <use xlink:href="#mf466d9a75c" x="364.533431" y="307.584" style="stroke: #000000; stroke-width: 0.8"/>
      </g>
     </g>
     <g id="text_6">
      <!-- 25 -->
      <g transform="translate(358.170931 322.182437) scale(0.1 -0.1)">
       <use xlink:href="#DejaVuSans-32"/>
       <use xlink:href="#DejaVuSans-35" x="63.623047"/>
      </g>
     </g>
    </g>
    <g id="text_7">
     <!-- Time(s) -->
     <g transform="translate(217.420156 335.860562) scale(0.1 -0.1)">
      <defs>
       <path id="DejaVuSans-54" d="M -19 4666 
L 3928 4666 
L 3928 4134 
L 2272 4134 
L 2272 0 
L 1638 0 
L 1638 4134 
L -19 4134 
L -19 4666 
z
" transform="scale(0.015625)"/>
       <path id="DejaVuSans-69" d="M 603 3500 
L 1178 3500 
L 1178 0 
L 603 0 
L 603 3500 
z
M 603 4863 
L 1178 4863 
L 1178 4134 
L 603 4134 
L 603 4863 
z
" transform="scale(0.015625)"/>
       <path id="DejaVuSans-6d" d="M 3328 2828 
Q 3544 3216 3844 3400 
Q 4144 3584 4550 3584 
Q 5097 3584 5394 3201 
Q 5691 2819 5691 2113 
L 5691 0 
L 5113 0 
L 5113 2094 
Q 5113 2597 4934 2840 
Q 4756 3084 4391 3084 
Q 3944 3084 3684 2787 
Q 3425 2491 3425 1978 
L 3425 0 
L 2847 0 
L 2847 2094 
Q 2847 2600 2669 2842 
Q 2491 3084 2119 3084 
Q 1678 3084 1418 2786 
Q 1159 2488 1159 1978 
L 1159 0 
L 581 0 
L 581 3500 
L 1159 3500 
L 1159 2956 
Q 1356 3278 1631 3431 
Q 1906 3584 2284 3584 
Q 2666 3584 2933 3390 
Q 3200 3197 3328 2828 
z
" transform="scale(0.015625)"/>
       <path id="DejaVuSans-65" d="M 3597 1894 
L 3597 1613 
L 953 1613 
Q 991 1019 1311 708 
Q 1631 397 2203 397 
Q 2534 397 2845 478 
Q 3156 559 3463 722 
L 3463 178 
Q 3153 47 2828 -22 
Q 2503 -91 2169 -91 
Q 1331 -91 842 396 
Q 353 884 353 1716 
Q 353 2575 817 3079 
Q 1281 3584 2069 3584 
Q 2775 3584 3186 3129 
Q 3597 2675 3597 1894 
z
M 3022 2063 
Q 3016 2534 2758 2815 
Q 2500 3097 2075 3097 
Q 1594 3097 1305 2825 
Q 1016 2553 972 2059 
L 3022 2063 
z
" transform="scale(0.015625)"/>
       <path id="DejaVuSans-28" d="M 1984 4856 
Q 1566 4138 1362 3434 
Q 1159 2731 1159 2009 
Q 1159 1288 1364 580 
Q 1569 -128 1984 -844 
L 1484 -844 
Q 1016 -109 783 600 
Q 550 1309 550 2009 
Q 550 2706 781 3412 
Q 1013 4119 1484 4856 
L 1984 4856 
z
" transform="scale(0.015625)"/>
       <path id="DejaVuSans-73" d="M 2834 3397 
L 2834 2853 
Q 2591 2978 2328 3040 
Q 2066 3103 1784 3103 
Q 1356 3103 1142 2972 
Q 928 2841 928 2578 
Q 928 2378 1081 2264 
Q 1234 2150 1697 2047 
L 1894 2003 
Q 2506 1872 2764 1633 
Q 3022 1394 3022 966 
Q 3022 478 2636 193 
Q 2250 -91 1575 -91 
Q 1294 -91 989 -36 
Q 684 19 347 128 
L 347 722 
Q 666 556 975 473 
Q 1284 391 1588 391 
Q 1994 391 2212 530 
Q 2431 669 2431 922 
Q 2431 1156 2273 1281 
Q 2116 1406 1581 1522 
L 1381 1569 
Q 847 1681 609 1914 
Q 372 2147 372 2553 
Q 372 3047 722 3315 
Q 1072 3584 1716 3584 
Q 2034 3584 2315 3537 
Q 2597 3491 2834 3397 
z
" transform="scale(0.015625)"/>
       <path id="DejaVuSans-29" d="M 513 4856 
L 1013 4856 
Q 1481 4119 1714 3412 
Q 1947 2706 1947 2009 
Q 1947 1309 1714 600 
Q 1481 -109 1013 -844 
L 513 -844 
Q 928 -128 1133 580 
Q 1338 1288 1338 2009 
Q 1338 2731 1133 3434 
Q 928 4138 513 4856 
z
" transform="scale(0.015625)"/>
      </defs>
      <use xlink:href="#DejaVuSans-54"/>
      <use xlink:href="#DejaVuSans-69" x="57.958984"/>
      <use xlink:href="#DejaVuSans-6d" x="85.742188"/>
      <use xlink:href="#DejaVuSans-65" x="183.154297"/>
      <use xlink:href="#DejaVuSans-28" x="244.677734"/>
      <use xlink:href="#DejaVuSans-73" x="283.691406"/>
      <use xlink:href="#DejaVuSans-29" x="335.791016"/>
     </g>
    </g>
   </g>
   <g id="matplotlib.axis_2">
    <g id="ytick_1">
     <g id="line2d_13">
      <path d="M 57.6 295.488 
L 414.72 295.488 
" clip-path="url(#p7674a01f30)" style="fill: none; stroke: #b0b0b0; stroke-width: 0.8; stroke-linecap: square"/>
     </g>
     <g id="line2d_14">
      <defs>
       <path id="m655058c99c" d="M 0 0 
L -3.5 0 
" style="stroke: #000000; stroke-width: 0.8"/>
      </defs>
      <g>
       <use xlink:href="#m655058c99c" x="57.6" y="295.488" style="stroke: #000000; stroke-width: 0.8"/>
      </g>
     </g>
     <g id="text_8">
      <!-- 0.00 -->
      <g transform="translate(28.334375 299.287219) scale(0.1 -0.1)">
       <defs>
        <path id="DejaVuSans-2e" d="M 684 794 
L 1344 794 
L 1344 0 
L 684 0 
L 684 794 
z
" transform="scale(0.015625)"/>
       </defs>
       <use xlink:href="#DejaVuSans-30"/>
       <use xlink:href="#DejaVuSans-2e" x="63.623047"/>
       <use xlink:href="#DejaVuSans-30" x="95.410156"/>
       <use xlink:href="#DejaVuSans-30" x="159.033203"/>
      </g>
     </g>
    </g>
    <g id="ytick_2">
     <g id="line2d_15">
      <path d="M 57.6 250.488335 
L 414.72 250.488335 
" clip-path="url(#p7674a01f30)" style="fill: none; stroke: #b0b0b0; stroke-width: 0.8; stroke-linecap: square"/>
     </g>
     <g id="line2d_16">
      <g>
       <use xlink:href="#m655058c99c" x="57.6" y="250.488335" style="stroke: #000000; stroke-width: 0.8"/>
      </g>
     </g>
     <g id="text_9">
      <!-- 0.05 -->
      <g transform="translate(28.334375 254.287554) scale(0.1 -0.1)">
       <use xlink:href="#DejaVuSans-30"/>
       <use xlink:href="#DejaVuSans-2e" x="63.623047"/>
       <use xlink:href="#DejaVuSans-30" x="95.410156"/>
       <use xlink:href="#DejaVuSans-35" x="159.033203"/>
      </g>
     </g>
    </g>
    <g id="ytick_3">
     <g id="line2d_17">
      <path d="M 57.6 205.48867 
L 414.72 205.48867 
" clip-path="url(#p7674a01f30)" style="fill: none; stroke: #b0b0b0; stroke-width: 0.8; stroke-linecap: square"/>
     </g>
     <g id="line2d_18">
      <g>
       <use xlink:href="#m655058c99c" x="57.6" y="205.48867" style="stroke: #000000; stroke-width: 0.8"/>
      </g>
     </g>
     <g id="text_10">
      <!-- 0.10 -->
      <g transform="translate(28.334375 209.287888) scale(0.1 -0.1)">
       <use xlink:href="#DejaVuSans-30"/>
       <use xlink:href="#DejaVuSans-2e" x="63.623047"/>
       <use xlink:href="#DejaVuSans-31" x="95.410156"/>
       <use xlink:href="#DejaVuSans-30" x="159.033203"/>
      </g>
     </g>
    </g>
    <g id="ytick_4">
     <g id="line2d_19">
      <path d="M 57.6 160.489004 
L 414.72 160.489004 
" clip-path="url(#p7674a01f30)" style="fill: none; stroke: #b0b0b0; stroke-width: 0.8; stroke-linecap: square"/>
     </g>
     <g id="line2d_20">
      <g>
       <use xlink:href="#m655058c99c" x="57.6" y="160.489004" style="stroke: #000000; stroke-width: 0.8"/>
      </g>
     </g>
     <g id="text_11">
      <!-- 0.15 -->
      <g transform="translate(28.334375 164.288223) scale(0.1 -0.1)">
       <use xlink:href="#DejaVuSans-30"/>
       <use xlink:href="#DejaVuSans-2e" x="63.623047"/>
       <use xlink:href="#DejaVuSans-31" x="95.410156"/>
       <use xlink:href="#DejaVuSans-35" x="159.033203"/>
      </g>
     </g>
    </g>
    <g id="ytick_5">
     <g id="line2d_21">
      <path d="M 57.6 115.489339 
L 414.72 115.489339 
" clip-path="url(#p7674a01f30)" style="fill: none; stroke: #b0b0b0; stroke-width: 0.8; stroke-linecap: square"/>
     </g>
     <g id="line2d_22">
      <g>
       <use xlink:href="#m655058c99c" x="57.6" y="115.489339" style="stroke: #000000; stroke-width: 0.8"/>
      </g>
     </g>
     <g id="text_12">
      <!-- 0.20 -->
      <g transform="translate(28.334375 119.288558) scale(0.1 -0.1)">
       <use xlink:href="#DejaVuSans-30"/>
       <use xlink:href="#DejaVuSans-2e" x="63.623047"/>
       <use xlink:href="#DejaVuSans-32" x="95.410156"/>
       <use xlink:href="#DejaVuSans-30" x="159.033203"/>
      </g>
     </g>
    </g>
    <g id="ytick_6">
     <g id="line2d_23">
      <path d="M 57.6 70.489674 
L 414.72 70.489674 
" clip-path="url(#p7674a01f30)" style="fill: none; stroke: #b0b0b0; stroke-width: 0.8; stroke-linecap: square"/>
     </g>
     <g id="line2d_24">
      <g>
       <use xlink:href="#m655058c99c" x="57.6" y="70.489674" style="stroke: #000000; stroke-width: 0.8"/>
      </g>
     </g>
     <g id="text_13">
      <!-- 0.25 -->
      <g transform="translate(28.334375 74.288893) scale(0.1 -0.1)">
       <use xlink:href="#DejaVuSans-30"/>
       <use xlink:href="#DejaVuSans-2e" x="63.623047"/>
       <use xlink:href="#DejaVuSans-32" x="95.410156"/>
       <use xlink:href="#DejaVuSans-35" x="159.033203"/>
      </g>
     </g>
    </g>
    <g id="text_14">
     <!-- Tracking error(m) -->
     <g transform="translate(22.254687 217.803781) rotate(-90) scale(0.1 -0.1)">
      <defs>
       <path id="DejaVuSans-72" d="M 2631 2963 
Q 2534 3019 2420 3045 
Q 2306 3072 2169 3072 
Q 1681 3072 1420 2755 
Q 1159 2438 1159 1844 
L 1159 0 
L 581 0 
L 581 3500 
L 1159 3500 
L 1159 2956 
Q 1341 3275 1631 3429 
Q 1922 3584 2338 3584 
Q 2397 3584 2469 3576 
Q 2541 3569 2628 3553 
L 2631 2963 
z
" transform="scale(0.015625)"/>
       <path id="DejaVuSans-61" d="M 2194 1759 
Q 1497 1759 1228 1600 
Q 959 1441 959 1056 
Q 959 750 1161 570 
Q 1363 391 1709 391 
Q 2188 391 2477 730 
Q 2766 1069 2766 1631 
L 2766 1759 
L 2194 1759 
z
M 3341 1997 
L 3341 0 
L 2766 0 
L 2766 531 
Q 2569 213 2275 61 
Q 1981 -91 1556 -91 
Q 1019 -91 701 211 
Q 384 513 384 1019 
Q 384 1609 779 1909 
Q 1175 2209 1959 2209 
L 2766 2209 
L 2766 2266 
Q 2766 2663 2505 2880 
Q 2244 3097 1772 3097 
Q 1472 3097 1187 3025 
Q 903 2953 641 2809 
L 641 3341 
Q 956 3463 1253 3523 
Q 1550 3584 1831 3584 
Q 2591 3584 2966 3190 
Q 3341 2797 3341 1997 
z
" transform="scale(0.015625)"/>
       <path id="DejaVuSans-63" d="M 3122 3366 
L 3122 2828 
Q 2878 2963 2633 3030 
Q 2388 3097 2138 3097 
Q 1578 3097 1268 2742 
Q 959 2388 959 1747 
Q 959 1106 1268 751 
Q 1578 397 2138 397 
Q 2388 397 2633 464 
Q 2878 531 3122 666 
L 3122 134 
Q 2881 22 2623 -34 
Q 2366 -91 2075 -91 
Q 1284 -91 818 406 
Q 353 903 353 1747 
Q 353 2603 823 3093 
Q 1294 3584 2113 3584 
Q 2378 3584 2631 3529 
Q 2884 3475 3122 3366 
z
" transform="scale(0.015625)"/>
       <path id="DejaVuSans-6b" d="M 581 4863 
L 1159 4863 
L 1159 1991 
L 2875 3500 
L 3609 3500 
L 1753 1863 
L 3688 0 
L 2938 0 
L 1159 1709 
L 1159 0 
L 581 0 
L 581 4863 
z
" transform="scale(0.015625)"/>
       <path id="DejaVuSans-6e" d="M 3513 2113 
L 3513 0 
L 2938 0 
L 2938 2094 
Q 2938 2591 2744 2837 
Q 2550 3084 2163 3084 
Q 1697 3084 1428 2787 
Q 1159 2491 1159 1978 
L 1159 0 
L 581 0 
L 581 3500 
L 1159 3500 
L 1159 2956 
Q 1366 3272 1645 3428 
Q 1925 3584 2291 3584 
Q 2894 3584 3203 3211 
Q 3513 2838 3513 2113 
z
" transform="scale(0.015625)"/>
       <path id="DejaVuSans-67" d="M 2906 1791 
Q 2906 2416 2648 2759 
Q 2391 3103 1925 3103 
Q 1463 3103 1205 2759 
Q 947 2416 947 1791 
Q 947 1169 1205 825 
Q 1463 481 1925 481 
Q 2391 481 2648 825 
Q 2906 1169 2906 1791 
z
M 3481 434 
Q 3481 -459 3084 -895 
Q 2688 -1331 1869 -1331 
Q 1566 -1331 1297 -1286 
Q 1028 -1241 775 -1147 
L 775 -588 
Q 1028 -725 1275 -790 
Q 1522 -856 1778 -856 
Q 2344 -856 2625 -561 
Q 2906 -266 2906 331 
L 2906 616 
Q 2728 306 2450 153 
Q 2172 0 1784 0 
Q 1141 0 747 490 
Q 353 981 353 1791 
Q 353 2603 747 3093 
Q 1141 3584 1784 3584 
Q 2172 3584 2450 3431 
Q 2728 3278 2906 2969 
L 2906 3500 
L 3481 3500 
L 3481 434 
z
" transform="scale(0.015625)"/>
       <path id="DejaVuSans-20" transform="scale(0.015625)"/>
       <path id="DejaVuSans-6f" d="M 1959 3097 
Q 1497 3097 1228 2736 
Q 959 2375 959 1747 
Q 959 1119 1226 758 
Q 1494 397 1959 397 
Q 2419 397 2687 759 
Q 2956 1122 2956 1747 
Q 2956 2369 2687 2733 
Q 2419 3097 1959 3097 
z
M 1959 3584 
Q 2709 3584 3137 3096 
Q 3566 2609 3566 1747 
Q 3566 888 3137 398 
Q 2709 -91 1959 -91 
Q 1206 -91 779 398 
Q 353 888 353 1747 
Q 353 2609 779 3096 
Q 1206 3584 1959 3584 
z
" transform="scale(0.015625)"/>
      </defs>
      <use xlink:href="#DejaVuSans-54"/>
      <use xlink:href="#DejaVuSans-72" x="46.333984"/>
      <use xlink:href="#DejaVuSans-61" x="87.447266"/>
      <use xlink:href="#DejaVuSans-63" x="148.726562"/>
      <use xlink:href="#DejaVuSans-6b" x="203.707031"/>
      <use xlink:href="#DejaVuSans-69" x="261.617188"/>
      <use xlink:href="#DejaVuSans-6e" x="289.400391"/>
      <use xlink:href="#DejaVuSans-67" x="352.779297"/>
      <use xlink:href="#DejaVuSans-20" x="416.255859"/>
      <use xlink:href="#DejaVuSans-65" x="448.042969"/>
      <use xlink:href="#DejaVuSans-72" x="509.566406"/>
      <use xlink:href="#DejaVuSans-72" x="548.929688"/>
      <use xlink:href="#DejaVuSans-6f" x="587.792969"/>
      <use xlink:href="#DejaVuSans-72" x="648.974609"/>
      <use xlink:href="#DejaVuSans-28" x="690.087891"/>
      <use xlink:href="#DejaVuSans-6d" x="729.101562"/>
      <use xlink:href="#DejaVuSans-29" x="826.513672"/>
     </g>
    </g>
   </g>
   <g id="line2d_25">
    <path d="M 73.832727 234.255156 
L 74.065288 282.1033 
L 74.065288 282.1033 
L 74.297848 270.303487 
L 74.297848 270.303487 
L 74.76297 208.06355 
L 74.76297 208.06355 
L 75.228091 165.012371 
L 75.228091 165.012371 
L 75.693212 138.435569 
L 75.693212 138.435569 
L 76.158333 126.860755 
L 76.158333 126.860755 
L 76.390893 125.958061 
L 76.390893 125.958061 
L 76.623454 128.081146 
L 76.623454 128.081146 
L 77.088575 137.846973 
L 77.088575 137.846973 
L 77.786257 162.084693 
L 77.786257 162.084693 
L 79.646741 231.654175 
L 79.646741 231.654175 
L 81.042105 271.918075 
L 81.042105 271.918075 
L 81.739786 287.41956 
L 81.739786 287.41956 
L 82.204908 294.649206 
L 82.204908 294.649206 
L 82.437468 293.342416 
L 82.437468 293.342416 
L 82.902589 288.937849 
L 82.902589 288.937849 
L 83.13515 287.535659 
L 83.13515 287.535659 
L 83.600271 287.795757 
L 83.600271 287.795757 
L 83.832831 288.443752 
L 83.832831 288.443752 
L 84.297953 291.39483 
L 84.297953 291.39483 
L 84.530513 294.761705 
L 84.530513 294.761705 
L 84.763074 293.221817 
L 84.763074 293.221817 
L 85.460755 283.158092 
L 85.460755 283.158092 
L 86.158437 271.159381 
L 86.158437 271.159381 
L 87.088679 257.667581 
L 87.088679 257.667581 
L 87.5538 253.553712 
L 87.5538 253.553712 
L 87.786361 252.224422 
L 87.786361 252.224422 
L 88.018922 250.238137 
L 88.018922 250.238137 
L 88.251482 249.564942 
L 88.251482 249.564942 
L 88.484043 249.354343 
L 88.484043 249.354343 
L 88.716603 249.610841 
L 88.716603 249.610841 
L 88.949164 250.278636 
L 88.949164 250.278636 
L 89.181724 249.411043 
L 89.181724 249.411043 
L 89.646846 250.551334 
L 89.646846 250.551334 
L 89.879406 251.422528 
L 89.879406 251.422528 
L 90.111967 250.743933 
L 90.111967 250.743933 
L 90.344527 251.276729 
L 90.344527 251.276729 
L 90.809648 253.566312 
L 90.809648 253.566312 
L 91.042209 253.460113 
L 91.042209 253.460113 
L 91.50733 256.328391 
L 91.50733 256.328391 
L 91.739891 258.129278 
L 91.739891 258.129278 
L 91.972451 258.130178 
L 91.972451 258.130178 
L 92.437572 261.381854 
L 92.437572 261.381854 
L 92.670133 261.580752 
L 92.670133 261.580752 
L 93.135254 264.442731 
L 93.135254 264.442731 
L 93.367815 264.60833 
L 93.367815 264.60833 
L 93.832936 267.382109 
L 93.832936 267.382109 
L 94.065496 269.114596 
L 94.065496 269.114596 
L 94.298057 268.538601 
L 94.298057 268.538601 
L 94.763178 272.171873 
L 94.763178 272.171873 
L 94.995738 271.955875 
L 94.995738 271.955875 
L 95.46086 276.810439 
L 95.46086 276.810439 
L 95.69342 276.924738 
L 95.69342 276.924738 
L 95.925981 279.653518 
L 95.925981 279.653518 
L 96.158541 280.799209 
L 96.158541 280.799209 
L 97.321344 292.516222 
L 97.321344 292.516222 
L 97.553905 292.063525 
L 97.553905 292.063525 
L 97.786465 295.488 
L 97.786465 295.488 
L 98.019026 295.237802 
L 98.019026 295.237802 
L 98.251586 292.73852 
L 98.251586 292.73852 
L 98.484147 295.488 
L 98.484147 295.488 
L 98.716707 293.627714 
L 98.716707 293.627714 
L 98.949268 289.051248 
L 98.949268 289.051248 
L 99.181829 288.064855 
L 99.181829 288.064855 
L 99.414389 287.600459 
L 99.414389 287.600459 
L 99.64695 281.683003 
L 99.64695 281.683003 
L 99.87951 279.895616 
L 99.87951 279.895616 
L 100.344631 272.59577 
L 100.344631 272.59577 
L 100.577192 270.944283 
L 100.809753 266.143718 
L 100.809753 266.143718 
L 101.274874 262.223348 
L 101.274874 262.223348 
L 101.507434 257.447083 
L 101.507434 257.447083 
L 101.972555 253.493412 
L 101.972555 253.493412 
L 102.205116 248.42015 
L 102.205116 248.42015 
L 102.670237 244.001183 
L 102.670237 244.001183 
L 102.902798 238.821722 
L 102.902798 238.821722 
L 103.135358 236.569038 
L 103.135358 236.569038 
L 103.600479 230.93778 
L 103.600479 230.93778 
L 103.83304 229.69039 
L 103.83304 229.69039 
L 104.0656 227.283807 
L 104.0656 227.283807 
L 104.298161 226.436014 
L 104.298161 226.436014 
L 104.530722 226.328915 
L 104.530722 226.328915 
L 104.763282 225.299322 
L 104.763282 225.299322 
L 104.995843 225.500021 
L 105.228403 226.086816 
L 105.228403 226.086816 
L 105.460964 225.768219 
L 105.460964 225.768219 
L 105.926085 226.863511 
L 105.926085 226.863511 
L 106.158645 227.489906 
L 106.158645 227.489906 
L 106.391206 227.336007 
L 106.856327 228.489798 
L 106.856327 228.489798 
L 107.088888 228.763396 
L 107.088888 228.763396 
L 107.554009 230.409484 
L 107.554009 230.409484 
L 107.786569 231.573176 
L 107.786569 231.573176 
L 108.251691 235.536746 
L 108.251691 235.536746 
L 108.716812 241.474002 
L 108.716812 241.474002 
L 109.647054 260.390961 
L 109.647054 260.390961 
L 110.809857 285.267676 
L 110.809857 285.267676 
L 111.274978 293.039118 
L 111.274978 293.039118 
L 111.507538 295.488 
L 111.507538 295.488 
L 111.97266 289.643443 
L 111.97266 289.643443 
L 112.437781 286.245069 
L 112.437781 286.245069 
L 113.368023 281.711803 
L 113.368023 281.711803 
L 114.298265 277.525934 
L 114.298265 277.525934 
L 114.763386 276.052645 
L 114.763386 276.052645 
L 114.995947 275.639548 
L 114.995947 275.639548 
L 115.228507 275.544148 
L 115.228507 275.544148 
L 115.461068 275.971645 
L 115.461068 275.971645 
L 115.926189 277.597933 
L 115.926189 277.597933 
L 116.39131 280.204314 
L 116.39131 280.204314 
L 117.088992 285.939971 
L 117.088992 285.939971 
L 118.019234 294.935404 
L 118.019234 294.935404 
L 118.251795 294.075011 
L 118.251795 294.075011 
L 119.182037 287.40516 
L 119.182037 287.40516 
L 120.5774 279.40962 
L 120.5774 279.40962 
L 121.042521 277.090337 
L 121.042521 277.090337 
L 121.507643 276.152544 
L 121.507643 276.152544 
L 121.740203 276.126444 
L 121.972764 276.378442 
L 121.972764 276.378442 
L 122.205324 276.949038 
L 122.205324 276.949038 
L 122.670445 279.569818 
L 122.670445 279.569818 
L 123.368127 284.919379 
L 123.368127 284.919379 
L 124.53093 295.011004 
L 124.53093 295.011004 
L 124.76349 294.20281 
L 124.76349 294.20281 
L 125.461172 290.282439 
L 125.461172 290.282439 
L 126.158854 287.741758 
L 126.158854 287.741758 
L 126.623975 286.787765 
L 126.623975 286.787765 
L 127.554217 286.278369 
L 127.554217 286.278369 
L 128.019338 286.758965 
L 128.019338 286.758965 
L 129.182141 288.117955 
L 129.182141 288.117955 
L 130.344944 290.813435 
L 130.344944 290.813435 
L 131.042626 292.85822 
L 131.042626 292.85822 
L 131.740307 295.227902 
L 131.740307 295.227902 
L 131.972868 294.799505 
L 131.972868 294.799505 
L 132.437989 292.460423 
L 132.437989 292.460423 
L 133.833352 283.554089 
L 133.833352 283.554089 
L 134.996155 275.828546 
L 134.996155 275.828546 
L 135.461276 273.486764 
L 135.461276 273.486764 
L 135.693837 272.095374 
L 135.693837 272.095374 
L 135.926397 271.472579 
L 135.926397 271.472579 
L 137.321761 263.525638 
L 137.321761 263.525638 
L 137.554321 261.173055 
L 137.554321 261.173055 
L 137.786882 260.894057 
L 137.786882 260.894057 
L 138.019443 258.844773 
L 138.019443 258.844773 
L 138.252003 258.366876 
L 138.252003 258.366876 
L 138.484564 256.420191 
L 138.484564 256.420191 
L 138.717124 253.341314 
L 138.717124 253.341314 
L 138.949685 253.721111 
L 138.949685 253.721111 
L 139.182245 250.920332 
L 139.182245 250.920332 
L 139.414806 250.898732 
L 139.414806 250.898732 
L 139.647367 248.48315 
L 139.647367 248.48315 
L 139.879927 248.42285 
L 140.112488 246.943261 
L 140.112488 246.943261 
L 140.345048 244.155082 
L 140.345048 244.155082 
L 140.577609 246.243066 
L 140.577609 246.243066 
L 140.810169 243.959783 
L 140.810169 243.959783 
L 141.04273 245.829069 
L 141.04273 245.829069 
L 141.27529 243.888684 
L 141.27529 243.888684 
L 141.507851 245.472672 
L 141.507851 245.472672 
L 141.740412 243.786085 
L 141.972972 245.194574 
L 141.972972 245.194574 
L 142.205533 243.887784 
L 142.205533 243.887784 
L 142.438093 245.078475 
L 142.438093 245.078475 
L 142.670654 244.300881 
L 142.670654 244.300881 
L 142.903214 241.860999 
L 142.903214 241.860999 
L 143.135775 245.638271 
L 143.135775 245.638271 
L 143.368336 244.42238 
L 143.368336 244.42238 
L 143.600896 249.202244 
L 143.600896 249.202244 
L 143.833457 249.624341 
L 143.833457 249.624341 
L 144.066017 255.617397 
L 144.066017 255.617397 
L 144.298578 257.354384 
L 144.298578 257.354384 
L 144.531138 263.955835 
L 144.763699 266.330917 
L 144.763699 266.330917 
L 144.996259 272.919768 
L 145.22882 275.822246 
L 145.22882 275.822246 
L 145.461381 282.265298 
L 145.693941 284.642181 
L 145.693941 284.642181 
L 145.926502 289.769443 
L 145.926502 289.769443 
L 146.159062 290.916934 
L 146.159062 290.916934 
L 146.391623 294.19921 
L 146.624183 293.840112 
L 146.624183 293.840112 
L 146.856744 295.028103 
L 146.856744 295.028103 
L 147.089305 292.73672 
L 147.089305 292.73672 
L 147.321865 291.950126 
L 147.554426 288.364553 
L 147.554426 288.364553 
L 147.786986 287.032563 
L 147.786986 287.032563 
L 148.019547 283.923986 
L 148.019547 283.923986 
L 148.252107 284.143584 
L 148.252107 284.143584 
L 148.484668 282.240099 
L 148.484668 282.240099 
L 148.717228 284.604381 
L 148.717228 284.604381 
L 148.949789 285.302776 
L 148.949789 285.302776 
L 149.41491 295.488 
L 149.41491 295.488 
L 149.647471 292.81502 
L 149.647471 292.81502 
L 149.880031 295.488 
L 149.880031 295.488 
L 150.345152 279.30342 
L 150.345152 279.30342 
L 150.577713 280.416712 
L 150.577713 280.416712 
L 150.810274 274.225658 
L 150.810274 274.225658 
L 151.042834 277.609633 
L 151.042834 277.609633 
L 151.275395 274.00696 
L 151.275395 274.00696 
L 151.507955 279.39612 
L 151.507955 279.39612 
L 151.740516 277.922831 
L 151.740516 277.922831 
L 151.973076 284.375783 
L 151.973076 284.375783 
L 152.205637 283.43349 
L 152.205637 283.43349 
L 152.438197 288.609351 
L 152.438197 288.609351 
L 152.670758 286.398968 
L 152.670758 286.398968 
L 152.903319 289.378845 
L 152.903319 289.378845 
L 153.135879 285.639373 
L 153.135879 285.639373 
L 153.36844 286.363868 
L 153.36844 286.363868 
L 153.601 281.588503 
L 153.601 281.588503 
L 153.833561 280.894609 
L 153.833561 280.894609 
L 154.066121 275.686347 
L 154.066121 275.686347 
L 154.298682 273.91696 
L 154.298682 273.91696 
L 154.531243 268.982297 
L 154.531243 268.982297 
L 154.763803 266.802513 
L 154.763803 266.802513 
L 155.228924 260.092163 
L 155.228924 260.092163 
L 155.694045 253.84621 
L 155.694045 253.84621 
L 156.624288 242.711493 
L 156.624288 242.711493 
L 157.55453 231.760374 
L 157.55453 231.760374 
L 157.78709 231.519176 
L 157.78709 231.519176 
L 158.019651 229.097294 
L 158.019651 229.097294 
L 158.252212 229.254793 
L 158.252212 229.254793 
L 158.484772 227.895803 
L 158.484772 227.895803 
L 158.717333 225.472121 
L 158.717333 225.472121 
L 158.949893 228.056902 
L 158.949893 228.056902 
L 159.182454 226.91121 
L 159.182454 226.91121 
L 159.415014 229.61569 
L 159.415014 229.61569 
L 159.647575 229.354692 
L 159.647575 229.354692 
L 159.880135 227.529506 
L 159.880135 227.529506 
L 160.112696 231.920573 
L 160.112696 231.920573 
L 160.345257 230.92428 
L 160.345257 230.92428 
L 160.577817 234.560253 
L 160.577817 234.560253 
L 160.810378 234.521554 
L 160.810378 234.521554 
L 161.042938 232.858366 
L 161.042938 232.858366 
L 161.275499 238.510324 
L 161.275499 238.510324 
L 161.508059 238.156627 
L 161.508059 238.156627 
L 161.74062 243.389188 
L 161.74062 243.389188 
L 161.973181 244.345881 
L 161.973181 244.345881 
L 162.438302 252.178522 
L 162.438302 252.178522 
L 162.670862 254.656204 
L 162.670862 254.656204 
L 162.903423 262.295347 
L 162.903423 262.295347 
L 163.135983 266.048319 
L 163.135983 266.048319 
L 163.601104 275.29035 
L 163.601104 275.29035 
L 163.833665 276.911238 
L 163.833665 276.911238 
L 164.066226 281.403105 
L 164.066226 281.403105 
L 164.298786 281.968301 
L 164.298786 281.968301 
L 164.531347 285.001278 
L 164.531347 285.001278 
L 164.763907 284.804179 
L 164.763907 284.804179 
L 164.996468 286.701365 
L 164.996468 286.701365 
L 165.229028 286.306268 
L 165.229028 286.306268 
L 165.461589 284.595381 
L 165.461589 284.595381 
L 165.69415 287.300761 
L 165.69415 287.300761 
L 165.92671 286.181169 
L 165.92671 286.181169 
L 166.159271 288.295254 
L 166.159271 288.295254 
L 166.391831 287.584259 
L 166.391831 287.584259 
L 166.624392 289.333846 
L 166.624392 289.333846 
L 166.856952 289.554344 
L 166.856952 289.554344 
L 167.089513 289.084548 
L 167.089513 289.084548 
L 167.322073 292.83932 
L 167.322073 292.83932 
L 167.554634 293.748313 
L 167.554634 293.748313 
L 167.787195 293.401816 
L 167.787195 293.401816 
L 168.252316 288.670551 
L 168.252316 288.670551 
L 168.949997 272.765869 
L 168.949997 272.765869 
L 170.810482 234.329855 
L 170.810482 234.329855 
L 171.043042 233.037465 
L 171.043042 233.037465 
L 171.275603 232.439869 
L 171.275603 232.439869 
L 171.508164 232.910566 
L 171.508164 232.910566 
L 171.973285 236.974035 
L 171.973285 236.974035 
L 172.438406 243.323488 
L 172.438406 243.323488 
L 173.368648 259.540467 
L 173.368648 259.540467 
L 174.29889 274.852954 
L 174.29889 274.852954 
L 175.229133 285.951671 
L 175.229133 285.951671 
L 176.159375 295.080303 
L 176.159375 295.080303 
L 176.624496 291.44973 
L 176.624496 291.44973 
L 177.322178 285.097577 
L 177.322178 285.097577 
L 177.787299 281.034108 
L 177.787299 281.034108 
L 178.25242 276.138144 
L 178.25242 276.138144 
L 178.48498 273.758562 
L 178.48498 273.758562 
L 178.950102 267.599008 
L 178.950102 267.599008 
L 179.647783 258.850173 
L 179.647783 258.850173 
L 179.880344 253.912809 
L 179.880344 253.912809 
L 180.112904 252.301821 
L 180.112904 252.301821 
L 180.345465 245.935269 
L 180.345465 245.935269 
L 180.578026 245.061375 
L 180.578026 245.061375 
L 180.810586 236.972235 
L 180.810586 236.972235 
L 181.043147 236.570838 
L 181.043147 236.570838 
L 181.275707 233.909558 
L 181.275707 233.909558 
L 181.508268 226.418914 
L 181.508268 226.418914 
L 181.740828 224.917725 
L 181.740828 224.917725 
L 181.973389 216.339889 
L 181.973389 216.339889 
L 182.205949 216.330889 
L 182.205949 216.330889 
L 182.43851 214.485003 
L 182.43851 214.485003 
L 182.671071 208.452348 
L 182.671071 208.452348 
L 182.903631 208.581947 
L 182.903631 208.581947 
L 183.136192 201.726698 
L 183.136192 201.726698 
L 183.368752 203.238686 
L 183.368752 203.238686 
L 183.601313 202.643791 
L 183.601313 202.643791 
L 183.833873 197.720827 
L 183.833873 197.720827 
L 184.066434 198.468722 
L 184.066434 198.468722 
L 184.298995 191.657573 
L 184.298995 191.657573 
L 184.531555 192.810464 
L 184.531555 192.810464 
L 184.764116 191.222876 
L 184.764116 191.222876 
L 184.996676 184.481926 
L 184.996676 184.481926 
L 185.229237 183.218335 
L 185.229237 183.218335 
L 185.461797 173.861105 
L 185.461797 173.861105 
L 185.694358 174.049204 
L 185.694358 174.049204 
L 185.926918 171.458123 
L 185.926918 171.458123 
L 186.159479 163.388783 
L 186.159479 163.388783 
L 186.39204 162.522089 
L 186.39204 162.522089 
L 186.6246 152.251366 
L 186.6246 152.251366 
L 186.857161 154.665148 
L 186.857161 154.665148 
L 187.089721 142.986835 
L 187.089721 142.986835 
L 187.322282 148.493894 
L 187.322282 148.493894 
L 187.554842 150.565678 
L 187.554842 150.565678 
L 187.787403 144.817421 
L 187.787403 144.817421 
L 188.019964 148.732392 
L 188.019964 148.732392 
L 188.252524 142.420739 
L 188.252524 142.420739 
L 188.485085 147.979098 
L 188.485085 147.979098 
L 188.717645 150.32448 
L 188.717645 150.32448 
L 188.950206 147.6758 
L 189.182766 151.264973 
L 189.182766 151.264973 
L 189.415327 147.936798 
L 189.647887 154.221451 
L 189.647887 154.221451 
L 189.880448 150.948175 
L 189.880448 150.948175 
L 190.345569 164.835072 
L 190.345569 164.835072 
L 190.57813 164.235677 
L 190.57813 164.235677 
L 190.81069 170.634629 
L 190.81069 170.634629 
L 191.043251 168.228947 
L 191.043251 168.228947 
L 191.508372 179.418564 
L 191.508372 179.418564 
L 191.740933 177.955175 
L 191.740933 177.955175 
L 191.973493 182.453341 
L 191.973493 182.453341 
L 192.206054 179.522063 
L 192.206054 179.522063 
L 192.671175 189.039492 
L 192.671175 189.039492 
L 192.903735 189.29509 
L 192.903735 189.29509 
L 193.136296 195.074847 
L 193.136296 195.074847 
L 193.368856 196.386137 
L 193.368856 196.386137 
L 193.601417 204.607576 
L 193.601417 204.607576 
L 193.833978 207.177957 
L 193.833978 207.177957 
L 194.299099 225.684519 
L 194.299099 225.684519 
L 194.531659 231.600175 
L 194.531659 231.600175 
L 195.229341 255.946794 
L 195.229341 255.946794 
L 196.159583 284.630481 
L 196.159583 284.630481 
L 196.392144 291.200432 
L 196.392144 291.200432 
L 196.624704 293.003118 
L 196.624704 293.003118 
L 197.554947 270.822784 
L 197.554947 270.822784 
L 198.252628 246.534664 
L 198.252628 246.534664 
L 198.717749 235.951643 
L 198.717749 235.951643 
L 198.95031 224.900625 
L 198.95031 224.900625 
L 199.415431 214.298704 
L 199.415431 214.298704 
L 199.647992 204.292579 
L 199.647992 204.292579 
L 199.880552 200.248909 
L 199.880552 200.248909 
L 200.113113 188.792894 
L 200.113113 188.792894 
L 200.345673 188.458096 
L 200.345673 188.458096 
L 200.578234 187.877601 
L 200.578234 187.877601 
L 200.810794 181.334649 
L 200.810794 181.334649 
L 201.275916 188.644395 
L 201.275916 188.644395 
L 201.508476 186.106414 
L 201.508476 186.106414 
L 201.973597 196.407737 
L 201.973597 196.407737 
L 202.206158 194.270253 
L 202.206158 194.270253 
L 202.438718 197.835127 
L 202.438718 197.835127 
L 202.671279 192.526066 
L 202.90384 192.373967 
L 202.90384 192.373967 
L 203.1364 188.318597 
L 203.1364 188.318597 
L 203.368961 173.13481 
L 203.368961 173.13481 
L 203.601521 166.254362 
L 203.601521 166.254362 
L 203.834082 155.235744 
L 203.834082 155.235744 
L 204.066642 128.283644 
L 204.066642 128.283644 
L 204.531763 109.714982 
L 204.531763 109.714982 
L 204.764324 87.877545 
L 204.764324 87.877545 
L 204.996885 82.760183 
L 204.996885 82.760183 
L 205.229445 63.758624 
L 205.229445 63.758624 
L 205.462006 65.921308 
L 205.462006 65.921308 
L 205.694566 53.568 
L 205.694566 53.568 
L 206.159687 68.547489 
L 206.159687 68.547489 
L 206.392248 68.453889 
L 206.392248 68.453889 
L 206.624809 78.603114 
L 206.624809 78.603114 
L 206.857369 79.180909 
L 206.857369 79.180909 
L 207.08993 93.537603 
L 207.08993 93.537603 
L 207.32249 93.718501 
L 207.32249 93.718501 
L 207.787611 126.503457 
L 207.787611 126.503457 
L 208.020172 132.82051 
L 208.020172 132.82051 
L 208.252732 149.254388 
L 208.252732 149.254388 
L 208.485293 154.149452 
L 208.485293 154.149452 
L 208.950414 179.96756 
L 208.950414 179.96756 
L 209.182975 182.243643 
L 209.182975 182.243643 
L 209.648096 194.887649 
L 209.648096 194.887649 
L 209.880656 193.215461 
L 209.880656 193.215461 
L 210.113217 196.152139 
L 210.113217 196.152139 
L 210.345778 197.026033 
L 210.345778 197.026033 
L 210.578338 194.285553 
L 210.578338 194.285553 
L 210.810899 196.385237 
L 210.810899 196.385237 
L 211.043459 193.926456 
L 211.043459 193.926456 
L 211.973701 215.094298 
L 211.973701 215.094298 
L 213.369065 258.288577 
L 213.369065 258.288577 
L 214.531868 291.202232 
L 214.531868 291.202232 
L 214.764428 292.154425 
L 214.764428 292.154425 
L 214.996989 286.386368 
L 214.996989 286.386368 
L 215.46211 272.038674 
L 215.46211 272.038674 
L 216.159792 250.303836 
L 216.159792 250.303836 
L 216.392352 237.164834 
L 216.392352 237.164834 
L 216.857473 226.98501 
L 216.857473 226.98501 
L 217.090034 214.8378 
L 217.090034 214.8378 
L 217.322594 211.012829 
L 217.322594 211.012829 
L 217.555155 197.696528 
L 217.555155 197.696528 
L 217.787716 196.01264 
L 218.020276 192.03017 
L 218.020276 192.03017 
L 218.252837 181.397649 
L 218.252837 181.397649 
L 218.485397 179.761461 
L 218.485397 179.761461 
L 218.717958 167.729451 
L 218.717958 167.729451 
L 218.950518 168.644744 
L 218.950518 168.644744 
L 219.183079 166.775458 
L 219.183079 166.775458 
L 219.415639 157.461427 
L 219.415639 157.461427 
L 219.6482 157.691825 
L 219.6482 157.691825 
L 219.880761 146.223211 
L 219.880761 146.223211 
L 220.113321 148.462394 
L 220.113321 148.462394 
L 220.345882 147.334702 
L 220.345882 147.334702 
L 220.578442 138.094471 
L 220.578442 138.094471 
L 220.811003 138.337469 
L 220.811003 138.337469 
L 221.043563 126.477358 
L 221.043563 126.477358 
L 221.276124 128.403343 
L 221.276124 128.403343 
L 221.508685 126.766255 
L 221.741245 117.850922 
L 221.741245 117.850922 
L 221.973806 118.004821 
L 222.206366 108.243493 
L 222.206366 108.243493 
L 222.438927 111.781367 
L 222.438927 111.781367 
L 222.671487 102.661735 
L 222.671487 102.661735 
L 223.136608 113.839652 
L 223.136608 113.839652 
L 223.369169 110.251378 
L 223.369169 110.251378 
L 223.60173 117.014828 
L 223.60173 117.014828 
L 223.83429 113.150257 
L 223.83429 113.150257 
L 224.299411 127.618549 
L 224.299411 127.618549 
L 224.531972 126.14166 
L 224.531972 126.14166 
L 224.764532 132.193215 
L 224.764532 132.193215 
L 224.997093 129.286237 
L 224.997093 129.286237 
L 225.229654 135.095693 
L 225.229654 135.095693 
L 225.462214 138.116971 
L 225.462214 138.116971 
L 225.694775 135.53039 
L 225.694775 135.53039 
L 225.927335 137.993672 
L 225.927335 137.993672 
L 226.159896 138.706467 
L 226.159896 138.706467 
L 226.392456 136.168485 
L 226.392456 136.168485 
L 226.625017 138.028772 
L 226.625017 138.028772 
L 226.857577 133.426206 
L 226.857577 133.426206 
L 227.322699 141.428046 
L 227.322699 141.428046 
L 227.555259 140.289555 
L 227.555259 140.289555 
L 227.78782 146.057612 
L 227.78782 146.057612 
L 228.02038 144.059627 
L 228.02038 144.059627 
L 228.485501 155.899039 
L 228.485501 155.899039 
L 228.718062 154.707447 
L 228.718062 154.707447 
L 228.950623 159.484612 
L 228.950623 159.484612 
L 229.183183 156.173537 
L 229.183183 156.173537 
L 229.648304 166.311961 
L 229.648304 166.311961 
L 229.880865 165.420068 
L 229.880865 165.420068 
L 230.113425 170.56083 
L 230.113425 170.56083 
L 230.345986 168.728443 
L 230.345986 168.728443 
L 230.811107 181.599247 
L 230.811107 181.599247 
L 231.043668 183.221035 
L 231.043668 183.221035 
L 231.276228 190.256283 
L 231.276228 190.256283 
L 231.508789 191.806071 
L 231.508789 191.806071 
L 231.741349 199.929411 
L 231.741349 199.929411 
L 231.97391 201.256001 
L 231.97391 201.256001 
L 232.439031 216.887985 
L 232.439031 216.887985 
L 232.671592 220.19096 
L 232.671592 220.19096 
L 232.904152 226.97691 
L 233.136713 230.171886 
L 233.601834 241.753 
L 233.601834 241.753 
L 234.299515 253.254014 
L 234.299515 253.254014 
L 234.997197 266.620715 
L 234.997197 266.620715 
L 235.229758 269.299995 
L 235.229758 269.299995 
L 235.694879 278.827324 
L 235.694879 278.827324 
L 236.625121 291.245432 
L 236.625121 291.245432 
L 237.322803 295.301701 
L 237.322803 295.301701 
L 237.555363 293.883312 
L 237.555363 293.883312 
L 237.787924 293.781613 
L 237.787924 293.781613 
L 238.020485 293.162417 
L 238.020485 293.162417 
L 238.253045 293.470215 
L 238.253045 293.470215 
L 238.485606 293.202017 
L 238.485606 293.202017 
L 238.718166 293.609714 
L 238.718166 293.609714 
L 238.950727 293.552114 
L 238.950727 293.552114 
L 239.183287 295.488 
L 239.183287 295.488 
L 239.648408 294.556507 
L 239.648408 294.556507 
L 239.880969 295.032603 
L 239.880969 295.032603 
L 240.11353 294.476408 
L 240.11353 294.476408 
L 240.34609 294.433208 
L 240.34609 294.433208 
L 241.043772 292.095025 
L 241.043772 292.095025 
L 241.508893 289.187147 
L 241.508893 289.187147 
L 241.741454 288.208854 
L 241.741454 288.208854 
L 242.206575 284.919379 
L 242.206575 284.919379 
L 242.439135 283.995986 
L 242.439135 283.995986 
L 242.671696 281.972801 
L 242.671696 281.972801 
L 243.136817 280.400512 
L 243.136817 280.400512 
L 243.369377 278.550126 
L 243.834499 277.117337 
L 243.834499 277.117337 
L 244.29962 274.432657 
L 244.29962 274.432657 
L 244.764741 272.404972 
L 244.764741 272.404972 
L 245.462423 266.031219 
L 245.462423 266.031219 
L 245.694983 263.866735 
L 245.694983 263.866735 
L 246.392665 254.948702 
L 246.392665 254.948702 
L 248.020589 237.369132 
L 248.020589 237.369132 
L 248.48571 235.269448 
L 248.48571 235.269448 
L 248.71827 234.742952 
L 248.71827 234.742952 
L 248.950831 233.324563 
L 248.950831 233.324563 
L 249.183392 233.076164 
L 249.183392 233.076164 
L 249.415952 233.002365 
L 249.415952 233.002365 
L 249.881073 233.178764 
L 249.881073 233.178764 
L 250.113634 232.29317 
L 250.113634 232.29317 
L 250.578755 232.748567 
L 250.578755 232.748567 
L 250.811315 233.229163 
L 250.811315 233.229163 
L 251.043876 233.010465 
L 251.043876 233.010465 
L 251.741558 235.232548 
L 251.741558 235.232548 
L 251.974118 236.176641 
L 251.974118 236.176641 
L 252.206679 236.123542 
L 252.206679 236.123542 
L 252.904361 238.027028 
L 252.904361 238.027028 
L 253.136921 238.874821 
L 253.136921 238.874821 
L 253.369482 238.502224 
L 253.369482 238.502224 
L 254.299724 240.550609 
L 254.299724 240.550609 
L 254.532284 239.989013 
L 254.532284 239.989013 
L 255.229966 240.44351 
L 255.229966 240.44351 
L 255.462527 240.502909 
L 255.462527 240.502909 
L 255.695087 239.606516 
L 255.695087 239.606516 
L 256.160208 239.556116 
L 256.160208 239.556116 
L 256.392769 239.745115 
L 256.392769 239.745115 
L 256.62533 240.204111 
L 256.62533 240.204111 
L 256.85789 239.670415 
L 256.85789 239.670415 
L 257.323011 240.44441 
L 257.323011 240.44441 
L 257.788132 241.7116 
L 257.788132 241.7116 
L 258.020693 241.615301 
L 258.020693 241.615301 
L 258.718375 243.870684 
L 258.718375 243.870684 
L 258.950935 244.936276 
L 258.950935 244.936276 
L 259.183496 245.173874 
L 259.183496 245.173874 
L 260.346299 249.897039 
L 260.346299 249.897039 
L 260.81142 251.964324 
L 260.81142 251.964324 
L 261.276541 254.659804 
L 261.276541 254.659804 
L 261.509101 254.861402 
L 261.509101 254.861402 
L 262.439344 258.659374 
L 262.439344 258.659374 
L 262.671904 258.211177 
L 262.671904 258.211177 
L 262.904465 258.433476 
L 262.904465 258.433476 
L 263.137025 258.457776 
L 263.137025 258.457776 
L 263.369586 258.248977 
L 263.369586 258.248977 
L 263.602146 257.79718 
L 263.602146 257.79718 
L 263.834707 256.029594 
L 263.834707 256.029594 
L 264.764949 252.576319 
L 264.764949 252.576319 
L 264.99751 250.572934 
L 264.99751 250.572934 
L 265.695191 248.44445 
L 265.695191 248.44445 
L 265.927752 248.155552 
L 265.927752 248.155552 
L 266.160313 246.488765 
L 266.160313 246.488765 
L 267.090555 243.844584 
L 267.090555 243.844584 
L 267.555676 240.102412 
L 267.555676 240.102412 
L 268.718479 234.161556 
L 268.718479 234.161556 
L 268.951039 233.999558 
L 268.951039 233.999558 
L 269.1836 234.161556 
L 269.41616 233.759259 
L 269.41616 233.759259 
L 269.648721 234.323555 
L 269.648721 234.323555 
L 270.113842 236.37554 
L 270.113842 236.37554 
L 270.346403 237.618431 
L 270.346403 237.618431 
L 270.578963 238.186326 
L 270.578963 238.186326 
L 271.276645 241.431702 
L 271.276645 241.431702 
L 271.509206 242.263296 
L 271.509206 242.263296 
L 271.741766 242.172397 
L 271.741766 242.172397 
L 271.974327 242.398295 
L 272.206887 242.436095 
L 272.206887 242.436095 
L 272.439448 242.286696 
L 272.439448 242.286696 
L 272.672008 241.982498 
L 272.672008 241.982498 
L 273.137129 240.557809 
L 273.137129 240.557809 
L 273.602251 239.772115 
L 273.602251 239.772115 
L 273.834811 239.630816 
L 273.834811 239.630816 
L 274.067372 239.07192 
L 274.067372 239.07192 
L 274.299932 239.130419 
L 274.299932 239.130419 
L 274.532493 239.450817 
L 274.532493 239.450817 
L 274.997614 240.938506 
L 274.997614 240.938506 
L 275.230175 241.628801 
L 275.230175 241.628801 
L 275.927856 245.642771 
L 275.927856 245.642771 
L 277.788341 256.227592 
L 277.788341 256.227592 
L 278.253462 257.566782 
L 278.253462 257.566782 
L 278.486022 257.730581 
L 278.486022 257.730581 
L 278.718583 258.623374 
L 278.718583 258.623374 
L 279.416265 259.980564 
L 279.416265 259.980564 
L 279.648825 261.153255 
L 279.648825 261.153255 
L 280.579067 277.913831 
L 280.579067 277.913831 
L 280.811628 283.832187 
L 280.811628 283.832187 
L 281.044189 292.85372 
L 281.044189 292.85372 
L 281.276749 290.09434 
L 281.276749 290.09434 
L 283.369794 216.387589 
L 283.369794 216.387589 
L 284.300036 194.967748 
L 284.300036 194.967748 
L 285.230279 170.905527 
L 285.230279 170.905527 
L 285.462839 168.722143 
L 285.462839 168.722143 
L 285.6954 168.580844 
L 285.6954 168.580844 
L 285.92796 170.833527 
L 285.92796 170.833527 
L 286.858203 211.444825 
L 286.858203 211.444825 
L 287.788445 295.4448 
L 287.788445 295.4448 
L 288.486127 234.216456 
L 288.486127 234.216456 
L 288.951248 214.059306 
L 288.951248 214.059306 
L 289.416369 207.664853 
L 289.416369 207.664853 
L 289.648929 207.278756 
L 289.88149 207.716153 
L 289.88149 207.716153 
L 290.114051 204.598576 
L 290.114051 204.598576 
L 290.579172 202.847189 
L 290.579172 202.847189 
L 291.044293 196.00274 
L 291.044293 196.00274 
L 291.276853 193.657358 
L 291.276853 193.657358 
L 291.741974 187.058607 
L 291.741974 187.058607 
L 292.207096 184.445026 
L 292.207096 184.445026 
L 292.439656 182.924038 
L 292.439656 182.924038 
L 292.672217 183.670132 
L 292.672217 183.670132 
L 292.904777 185.373819 
L 292.904777 185.373819 
L 293.137338 188.047699 
L 293.137338 188.047699 
L 293.602459 197.071932 
L 293.602459 197.071932 
L 294.300141 211.257627 
L 294.300141 211.257627 
L 294.765262 217.913077 
L 294.765262 217.913077 
L 296.160625 231.700075 
L 296.160625 231.700075 
L 296.625746 239.785614 
L 296.625746 239.785614 
L 297.090867 250.195837 
L 297.090867 250.195837 
L 298.486231 293.177717 
L 298.486231 293.177717 
L 298.718791 291.580229 
L 298.718791 291.580229 
L 299.649034 271.787576 
L 299.649034 271.787576 
L 300.346715 265.042127 
L 300.346715 265.042127 
L 300.579276 264.746029 
L 300.579276 264.746029 
L 300.811836 265.266225 
L 300.811836 265.266225 
L 301.044397 265.149226 
L 301.044397 265.149226 
L 301.974639 272.101674 
L 301.974639 272.101674 
L 302.2072 274.490256 
L 302.2072 274.490256 
L 302.43976 275.098652 
L 302.43976 275.098652 
L 302.904881 277.806732 
L 302.904881 277.806732 
L 303.137442 277.163236 
L 303.137442 277.163236 
L 303.370003 277.669933 
L 303.370003 277.669933 
L 303.602563 278.445727 
L 303.602563 278.445727 
L 303.835124 277.217236 
L 303.835124 277.217236 
L 304.067684 277.703232 
L 304.067684 277.703232 
L 304.300245 278.877724 
L 304.300245 278.877724 
L 304.532805 278.07223 
L 304.765366 279.772317 
L 304.765366 279.772317 
L 304.997927 280.450912 
L 304.997927 280.450912 
L 305.695608 287.48706 
L 305.695608 287.48706 
L 306.160729 293.915712 
L 306.160729 293.915712 
L 306.39329 292.78082 
L 306.39329 292.78082 
L 306.62585 287.635558 
L 306.62585 287.635558 
L 306.858411 285.212776 
L 306.858411 285.212776 
L 307.556093 272.519271 
L 307.556093 272.519271 
L 307.788653 269.402594 
L 307.788653 269.402594 
L 308.718896 249.592841 
L 308.718896 249.592841 
L 308.951456 247.030561 
L 309.184017 240.681108 
L 309.184017 240.681108 
L 309.416577 237.899228 
L 309.416577 237.899228 
L 309.649138 231.972773 
L 309.649138 231.972773 
L 309.881698 229.526591 
L 309.881698 229.526591 
L 310.346819 219.776963 
L 310.346819 219.776963 
L 310.57938 222.701042 
L 310.57938 222.701042 
L 310.811941 220.910055 
L 310.811941 220.910055 
L 311.044501 226.032817 
L 311.277062 227.446706 
L 311.277062 227.446706 
L 312.207304 251.616926 
L 312.207304 251.616926 
L 312.439865 255.611097 
L 312.439865 255.611097 
L 312.672425 265.339124 
L 312.672425 265.339124 
L 312.904986 269.405294 
L 312.904986 269.405294 
L 313.137546 277.687932 
L 313.137546 277.687932 
L 313.370107 280.955808 
L 313.370107 280.955808 
L 313.602667 287.41686 
L 313.602667 287.41686 
L 313.835228 289.845042 
L 313.835228 289.845042 
L 314.067788 294.654606 
L 314.067788 294.654606 
L 314.300349 295.488 
L 314.300349 295.488 
L 314.53291 295.065903 
L 314.53291 295.065903 
L 314.76547 290.727935 
L 314.76547 290.727935 
L 314.998031 291.741328 
L 314.998031 291.741328 
L 315.230591 289.003548 
L 315.230591 289.003548 
L 315.463152 290.546137 
L 315.463152 290.546137 
L 315.695712 288.935149 
L 315.928273 290.331938 
L 315.928273 290.331938 
L 316.160834 289.313146 
L 316.160834 289.313146 
L 316.393394 295.488 
L 316.393394 295.488 
L 316.858515 289.419345 
L 316.858515 289.419345 
L 317.091076 289.885542 
L 317.323636 287.271961 
L 317.323636 287.271961 
L 317.556197 286.732865 
L 317.556197 286.732865 
L 318.021318 282.568596 
L 318.021318 282.568596 
L 318.253879 281.362605 
L 318.253879 281.362605 
L 318.486439 277.753632 
L 318.486439 277.753632 
L 318.719 276.141744 
L 318.719 276.141744 
L 318.95156 273.374265 
L 318.95156 273.374265 
L 320.114363 267.22281 
L 320.114363 267.22281 
L 320.346924 266.796213 
L 320.346924 266.796213 
L 320.579484 266.645015 
L 320.579484 266.645015 
L 320.812045 266.049219 
L 320.812045 266.049219 
L 321.044605 266.098719 
L 321.044605 266.098719 
L 321.277166 266.331817 
L 321.277166 266.331817 
L 321.509726 266.155418 
L 322.439969 267.634107 
L 322.439969 267.634107 
L 322.672529 268.408101 
L 322.672529 268.408101 
L 322.90509 268.768099 
L 322.90509 268.768099 
L 323.835332 271.980175 
L 323.835332 271.980175 
L 324.998135 277.314435 
L 324.998135 277.314435 
L 326.393498 285.485474 
L 326.393498 285.485474 
L 326.626059 286.07677 
L 326.626059 286.07677 
L 327.09118 287.751658 
L 327.09118 287.751658 
L 327.323741 288.142255 
L 327.788862 286.956063 
L 327.788862 286.956063 
L 328.253983 284.533282 
L 328.253983 284.533282 
L 328.719104 279.952316 
L 328.719104 279.952316 
L 329.416786 270.136089 
L 329.416786 270.136089 
L 330.114467 260.623159 
L 330.114467 260.623159 
L 330.579588 255.944094 
L 330.579588 255.944094 
L 330.812149 254.504105 
L 330.812149 254.504105 
L 331.509831 258.674674 
L 331.509831 258.674674 
L 331.974952 265.151026 
L 331.974952 265.151026 
L 332.905194 294.731106 
L 332.905194 294.731106 
L 334.067997 249.984339 
L 334.067997 249.984339 
L 334.533118 237.954128 
L 334.533118 237.954128 
L 334.998239 231.250078 
L 334.998239 231.250078 
L 335.46336 228.364699 
L 335.46336 228.364699 
L 335.695921 229.485191 
L 335.695921 229.485191 
L 335.928481 229.864088 
L 335.928481 229.864088 
L 336.161042 229.819089 
L 336.161042 229.819089 
L 336.393603 232.421869 
L 336.393603 232.421869 
L 336.626163 232.33277 
L 336.626163 232.33277 
L 336.858724 233.864559 
L 336.858724 233.864559 
L 337.091284 233.414562 
L 337.091284 233.414562 
L 337.323845 231.631675 
L 337.556405 233.031165 
L 337.556405 233.031165 
L 337.788966 231.575876 
L 337.788966 231.575876 
L 338.021526 228.898395 
L 338.021526 228.898395 
L 338.254087 231.751374 
L 338.254087 231.751374 
L 338.486648 231.01878 
L 338.486648 231.01878 
L 338.951769 236.583438 
L 338.951769 236.583438 
L 339.184329 238.440124 
L 339.184329 238.440124 
L 339.64945 250.709733 
L 339.64945 250.709733 
L 339.882011 254.889302 
L 339.882011 254.889302 
L 340.347132 269.92999 
L 340.347132 269.92999 
L 340.812253 283.977986 
L 340.812253 283.977986 
L 341.044814 287.862357 
L 341.044814 287.862357 
L 341.277374 295.338601 
L 341.277374 295.338601 
L 341.509935 292.340723 
L 341.509935 292.340723 
L 341.742495 287.084763 
L 341.975056 284.70518 
L 341.975056 284.70518 
L 342.207617 283.914986 
L 342.207617 283.914986 
L 342.440177 279.785817 
L 342.440177 279.785817 
L 342.672738 279.38802 
L 342.672738 279.38802 
L 342.905298 276.913038 
L 342.905298 276.913038 
L 343.137859 276.541341 
L 343.137859 276.541341 
L 343.370419 277.284735 
L 343.370419 277.284735 
L 343.60298 274.729654 
L 343.60298 274.729654 
L 343.835541 275.140951 
L 343.835541 275.140951 
L 344.068101 273.555163 
L 344.068101 273.555163 
L 344.300662 273.665862 
L 344.300662 273.665862 
L 344.533222 274.688255 
L 344.533222 274.688255 
L 344.765783 272.781169 
L 344.765783 272.781169 
L 344.998343 273.469664 
L 344.998343 273.469664 
L 345.230904 274.909653 
L 345.230904 274.909653 
L 345.463464 272.476071 
L 345.463464 272.476071 
L 345.696025 273.130366 
L 345.696025 273.130366 
L 345.928586 271.34028 
L 345.928586 271.34028 
L 346.161146 271.558978 
L 346.161146 271.558978 
L 346.393707 272.413972 
L 346.393707 272.413972 
L 346.626267 270.352087 
L 346.626267 270.352087 
L 346.858828 271.018082 
L 346.858828 271.018082 
L 347.091388 270.141489 
L 347.323949 270.762484 
L 347.323949 270.762484 
L 347.55651 272.281673 
L 347.55651 272.281673 
L 347.78907 271.657977 
L 347.78907 271.657977 
L 348.021631 273.179866 
L 348.021631 273.179866 
L 348.254191 273.448064 
L 348.254191 273.448064 
L 348.719312 276.841039 
L 348.719312 276.841039 
L 348.951873 276.72584 
L 349.184433 278.478127 
L 349.184433 278.478127 
L 349.416994 278.755324 
L 349.416994 278.755324 
L 349.649555 280.580511 
L 349.649555 280.580511 
L 349.882115 281.026908 
L 349.882115 281.026908 
L 350.114676 282.608196 
L 350.114676 282.608196 
L 350.347236 282.952893 
L 350.347236 282.952893 
L 350.579797 284.257884 
L 350.579797 284.257884 
L 350.812357 284.287583 
L 350.812357 284.287583 
L 351.044918 285.170477 
L 351.044918 285.170477 
L 351.277479 284.639481 
L 351.277479 284.639481 
L 351.510039 284.917579 
L 351.510039 284.917579 
L 351.97516 282.141099 
L 351.97516 282.141099 
L 352.440281 274.578456 
L 352.440281 274.578456 
L 352.905402 263.423939 
L 352.905402 263.423939 
L 353.370524 248.728848 
L 353.370524 248.728848 
L 353.603084 234.376655 
L 354.068205 219.809363 
L 354.068205 219.809363 
L 354.300766 202.77699 
L 354.300766 202.77699 
L 354.533326 197.37253 
L 354.533326 197.37253 
L 354.765887 178.642769 
L 354.765887 178.642769 
L 354.998448 177.005682 
L 354.998448 177.005682 
L 355.231008 172.452615 
L 355.231008 172.452615 
L 355.463569 159.482812 
L 355.463569 159.482812 
L 355.696129 157.326428 
L 355.696129 157.326428 
L 355.92869 144.326925 
L 355.92869 144.326925 
L 356.16125 145.670615 
L 356.16125 145.670615 
L 356.393811 144.597823 
L 356.393811 144.597823 
L 356.626371 136.740881 
L 356.626371 136.740881 
L 356.858932 137.986472 
L 356.858932 137.986472 
L 357.091493 129.270037 
L 357.091493 129.270037 
L 357.324053 133.091408 
L 357.324053 133.091408 
L 357.556614 134.774396 
L 357.556614 134.774396 
L 357.789174 129.529235 
L 357.789174 129.529235 
L 358.021735 133.039209 
L 358.021735 133.039209 
L 358.254295 125.273166 
L 358.254295 125.273166 
L 358.719417 134.448598 
L 358.719417 134.448598 
L 358.951977 130.042231 
L 358.951977 130.042231 
L 359.184538 135.713989 
L 359.184538 135.713989 
L 359.417098 138.156571 
L 359.417098 138.156571 
L 359.649659 135.49619 
L 359.649659 135.49619 
L 359.882219 140.274255 
L 359.882219 140.274255 
L 360.11478 135.49709 
L 360.11478 135.49709 
L 360.34734 141.633245 
L 360.34734 141.633245 
L 360.579901 144.118126 
L 360.579901 144.118126 
L 360.812462 139.761259 
L 360.812462 139.761259 
L 361.045022 141.956342 
L 361.045022 141.956342 
L 361.277583 133.185908 
L 361.277583 133.185908 
L 361.510143 135.358491 
L 361.510143 135.358491 
L 361.742704 134.054401 
L 361.742704 134.054401 
L 361.975264 125.301066 
L 361.975264 125.301066 
L 362.207825 124.76827 
L 362.207825 124.76827 
L 362.440386 113.651553 
L 362.440386 113.651553 
L 362.672946 115.802537 
L 362.672946 115.802537 
L 362.905507 116.078835 
L 362.905507 116.078835 
L 363.138067 110.254978 
L 363.138067 110.254978 
L 363.370628 113.875651 
L 363.370628 113.875651 
L 363.603188 107.790797 
L 363.603188 107.790797 
L 364.068309 121.502195 
L 364.068309 121.502195 
L 364.30087 120.8335 
L 364.30087 120.8335 
L 364.533431 129.224137 
L 364.533431 129.224137 
L 364.765991 126.843655 
L 364.765991 126.843655 
L 365.231112 145.606715 
L 365.231112 145.606715 
L 365.463673 147.089004 
L 365.463673 147.089004 
L 365.696233 156.520034 
L 365.696233 156.520034 
L 365.928794 157.782725 
L 365.928794 157.782725 
L 366.393915 176.221787 
L 366.393915 176.221787 
L 366.626476 180.774854 
L 366.626476 180.774854 
L 367.556718 212.056821 
L 367.556718 212.056821 
L 369.649763 274.753954 
L 369.649763 274.753954 
L 370.114884 281.854901 
L 370.114884 281.854901 
L 370.580005 285.740173 
L 370.580005 285.740173 
L 370.812566 286.628466 
L 370.812566 286.628466 
L 371.045126 286.989363 
L 371.045126 286.989363 
L 371.277687 287.067663 
L 371.277687 287.067663 
L 371.510247 285.997571 
L 371.510247 285.997571 
L 371.742808 285.691573 
L 371.742808 285.691573 
L 371.975369 284.994078 
L 371.975369 284.994078 
L 372.905611 278.649125 
L 372.905611 278.649125 
L 373.138171 275.498249 
L 373.138171 275.498249 
L 373.370732 274.468656 
L 373.370732 274.468656 
L 373.603293 270.927183 
L 373.603293 270.927183 
L 373.835853 270.081189 
L 373.835853 270.081189 
L 374.068414 266.471316 
L 374.068414 266.471316 
L 374.300974 265.98172 
L 374.300974 265.98172 
L 374.533535 262.591445 
L 374.533535 262.591445 
L 374.766095 262.214348 
L 374.766095 262.214348 
L 374.998656 258.788073 
L 374.998656 258.788073 
L 375.231216 258.392076 
L 375.231216 258.392076 
L 375.463777 255.009001 
L 375.463777 255.009001 
L 375.696338 254.849702 
L 375.696338 254.849702 
L 375.928898 252.009324 
L 375.928898 252.009324 
L 376.161459 252.178522 
L 376.161459 252.178522 
L 376.394019 250.011338 
L 376.394019 250.011338 
L 376.62658 245.969468 
L 376.62658 245.969468 
L 376.85914 249.307544 
L 376.85914 249.307544 
L 377.091701 246.195367 
L 377.091701 246.195367 
L 377.324262 250.200337 
L 377.324262 250.200337 
L 377.556822 248.160952 
L 377.556822 248.160952 
L 377.789383 252.939917 
L 377.789383 252.939917 
L 378.021943 252.074123 
L 378.021943 252.074123 
L 378.254504 257.592882 
L 378.254504 257.592882 
L 378.487064 257.311184 
L 378.487064 257.311184 
L 378.719625 262.650844 
L 378.719625 262.650844 
L 378.952185 262.012749 
L 378.952185 262.012749 
L 379.184746 266.888913 
L 379.184746 266.888913 
L 379.417307 266.168918 
L 379.417307 266.168918 
L 379.649867 270.905583 
L 379.649867 270.905583 
L 379.882428 270.028089 
L 379.882428 270.028089 
L 380.114988 275.034752 
L 380.114988 275.034752 
L 380.347549 275.35515 
L 380.347549 275.35515 
L 380.580109 281.279806 
L 380.580109 281.279806 
L 380.81267 283.758387 
L 380.81267 283.758387 
L 381.277791 295.488 
L 381.277791 295.488 
L 381.510352 293.101218 
L 381.510352 293.101218 
L 381.975473 279.483419 
L 381.975473 279.483419 
L 382.673154 258.809673 
L 382.673154 258.809673 
L 383.370836 242.373095 
L 383.370836 242.373095 
L 384.068518 233.249863 
L 384.068518 233.249863 
L 384.301078 234.705152 
L 384.301078 234.705152 
L 384.533639 235.347747 
L 384.533639 235.347747 
L 385.231321 245.540172 
L 385.231321 245.540172 
L 387.324366 294.849005 
L 387.324366 294.849005 
L 388.022047 280.949508 
L 388.022047 280.949508 
L 388.719729 271.099081 
L 388.719729 271.099081 
L 389.18485 268.755499 
L 389.18485 268.755499 
L 389.417411 268.234403 
L 389.417411 268.234403 
L 389.649971 268.409901 
L 389.649971 268.409901 
L 390.347653 275.492849 
L 390.347653 275.492849 
L 390.812774 284.019385 
L 390.812774 284.019385 
L 391.277895 295.488 
L 391.277895 295.488 
L 391.510456 292.76192 
L 391.510456 292.76192 
L 392.905819 265.673022 
L 392.905819 265.673022 
L 393.603501 255.1098 
L 393.603501 255.1098 
L 394.068622 249.633341 
L 394.068622 249.633341 
L 394.533743 246.047768 
L 394.533743 246.047768 
L 394.998864 244.069583 
L 394.998864 244.069583 
L 395.231425 244.659078 
L 395.231425 244.659078 
L 395.463985 245.74177 
L 395.463985 245.74177 
L 395.696546 247.774855 
L 395.696546 247.774855 
L 396.161667 255.094501 
L 396.161667 255.094501 
L 396.859349 277.363035 
L 396.859349 277.363035 
L 397.091909 287.917256 
L 397.091909 287.917256 
L 397.32447 290.996133 
L 397.32447 290.996133 
L 398.022152 245.299873 
L 398.022152 245.299873 
L 398.254712 220.359259 
L 398.254712 220.359259 
L 398.487273 147.932298 
L 398.487273 147.932298 
" clip-path="url(#p7674a01f30)" style="fill: none; stroke: #1f77b4; stroke-width: 1.5; stroke-linecap: square"/>
   </g>
   <g id="patch_3">
    <path d="M 57.6 307.584 
L 57.6 41.472 
" style="fill: none; stroke: #000000; stroke-width: 0.8; stroke-linejoin: miter; stroke-linecap: square"/>
   </g>
   <g id="patch_4">
    <path d="M 414.72 307.584 
L 414.72 41.472 
" style="fill: none; stroke: #000000; stroke-width: 0.8; stroke-linejoin: miter; stroke-linecap: square"/>
   </g>
   <g id="patch_5">
    <path d="M 57.6 307.584 
L 414.72 307.584 
" style="fill: none; stroke: #000000; stroke-width: 0.8; stroke-linejoin: miter; stroke-linecap: square"/>
   </g>
   <g id="patch_6">
    <path d="M 57.6 41.472 
L 414.72 41.472 
" style="fill: none; stroke: #000000; stroke-width: 0.8; stroke-linejoin: miter; stroke-linecap: square"/>
   </g>
   <g id="text_15">
    <!-- Tracking error vs Time -->
    <g transform="translate(169.584375 35.472) scale(0.12 -0.12)">
     <defs>
      <path id="DejaVuSans-76" d="M 191 3500 
L 800 3500 
L 1894 563 
L 2988 3500 
L 3597 3500 
L 2284 0 
L 1503 0 
L 191 3500 
z
" transform="scale(0.015625)"/>
     </defs>
     <use xlink:href="#DejaVuSans-54"/>
     <use xlink:href="#DejaVuSans-72" x="46.333984"/>
     <use xlink:href="#DejaVuSans-61" x="87.447266"/>
     <use xlink:href="#DejaVuSans-63" x="148.726562"/>
     <use xlink:href="#DejaVuSans-6b" x="203.707031"/>
     <use xlink:href="#DejaVuSans-69" x="261.617188"/>
     <use xlink:href="#DejaVuSans-6e" x="289.400391"/>
     <use xlink:href="#DejaVuSans-67" x="352.779297"/>
     <use xlink:href="#DejaVuSans-20" x="416.255859"/>
     <use xlink:href="#DejaVuSans-65" x="448.042969"/>
     <use xlink:href="#DejaVuSans-72" x="509.566406"/>
     <use xlink:href="#DejaVuSans-72" x="548.929688"/>
     <use xlink:href="#DejaVuSans-6f" x="587.792969"/>
     <use xlink:href="#DejaVuSans-72" x="648.974609"/>
     <use xlink:href="#DejaVuSans-20" x="690.087891"/>
     <use xlink:href="#DejaVuSans-76" x="721.875"/>
     <use xlink:href="#DejaVuSans-73" x="781.054688"/>
     <use xlink:href="#DejaVuSans-20" x="833.154297"/>
     <use xlink:href="#DejaVuSans-54" x="864.941406"/>
     <use xlink:href="#DejaVuSans-69" x="922.900391"/>
     <use xlink:href="#DejaVuSans-6d" x="950.683594"/>
     <use xlink:href="#DejaVuSans-65" x="1048.095703"/>
    </g>
   </g>
   <g id="legend_1">
    <g id="patch_7">
     <path d="M 311.00125 64.150125 
L 407.72 64.150125 
Q 409.72 64.150125 409.72 62.150125 
L 409.72 48.472 
Q 409.72 46.472 407.72 46.472 
L 311.00125 46.472 
Q 309.00125 46.472 309.00125 48.472 
L 309.00125 62.150125 
Q 309.00125 64.150125 311.00125 64.150125 
z
" style="fill: #ffffff; opacity: 0.8; stroke: #cccccc; stroke-linejoin: miter"/>
    </g>
    <g id="line2d_26">
     <path d="M 313.00125 54.570438 
L 323.00125 54.570438 
L 333.00125 54.570438 
" style="fill: none; stroke: #1f77b4; stroke-width: 1.5; stroke-linecap: square"/>
    </g>
    <g id="text_16">
     <!-- Actual speed -->
     <g transform="translate(341.00125 58.070438) scale(0.1 -0.1)">
      <defs>
       <path id="DejaVuSans-41" d="M 2188 4044 
L 1331 1722 
L 3047 1722 
L 2188 4044 
z
M 1831 4666 
L 2547 4666 
L 4325 0 
L 3669 0 
L 3244 1197 
L 1141 1197 
L 716 0 
L 50 0 
L 1831 4666 
z
" transform="scale(0.015625)"/>
       <path id="DejaVuSans-74" d="M 1172 4494 
L 1172 3500 
L 2356 3500 
L 2356 3053 
L 1172 3053 
L 1172 1153 
Q 1172 725 1289 603 
Q 1406 481 1766 481 
L 2356 481 
L 2356 0 
L 1766 0 
Q 1100 0 847 248 
Q 594 497 594 1153 
L 594 3053 
L 172 3053 
L 172 3500 
L 594 3500 
L 594 4494 
L 1172 4494 
z
" transform="scale(0.015625)"/>
       <path id="DejaVuSans-75" d="M 544 1381 
L 544 3500 
L 1119 3500 
L 1119 1403 
Q 1119 906 1312 657 
Q 1506 409 1894 409 
Q 2359 409 2629 706 
Q 2900 1003 2900 1516 
L 2900 3500 
L 3475 3500 
L 3475 0 
L 2900 0 
L 2900 538 
Q 2691 219 2414 64 
Q 2138 -91 1772 -91 
Q 1169 -91 856 284 
Q 544 659 544 1381 
z
M 1991 3584 
L 1991 3584 
z
" transform="scale(0.015625)"/>
       <path id="DejaVuSans-6c" d="M 603 4863 
L 1178 4863 
L 1178 0 
L 603 0 
L 603 4863 
z
" transform="scale(0.015625)"/>
       <path id="DejaVuSans-70" d="M 1159 525 
L 1159 -1331 
L 581 -1331 
L 581 3500 
L 1159 3500 
L 1159 2969 
Q 1341 3281 1617 3432 
Q 1894 3584 2278 3584 
Q 2916 3584 3314 3078 
Q 3713 2572 3713 1747 
Q 3713 922 3314 415 
Q 2916 -91 2278 -91 
Q 1894 -91 1617 61 
Q 1341 213 1159 525 
z
M 3116 1747 
Q 3116 2381 2855 2742 
Q 2594 3103 2138 3103 
Q 1681 3103 1420 2742 
Q 1159 2381 1159 1747 
Q 1159 1113 1420 752 
Q 1681 391 2138 391 
Q 2594 391 2855 752 
Q 3116 1113 3116 1747 
z
" transform="scale(0.015625)"/>
       <path id="DejaVuSans-64" d="M 2906 2969 
L 2906 4863 
L 3481 4863 
L 3481 0 
L 2906 0 
L 2906 525 
Q 2725 213 2448 61 
Q 2172 -91 1784 -91 
Q 1150 -91 751 415 
Q 353 922 353 1747 
Q 353 2572 751 3078 
Q 1150 3584 1784 3584 
Q 2172 3584 2448 3432 
Q 2725 3281 2906 2969 
z
M 947 1747 
Q 947 1113 1208 752 
Q 1469 391 1925 391 
Q 2381 391 2643 752 
Q 2906 1113 2906 1747 
Q 2906 2381 2643 2742 
Q 2381 3103 1925 3103 
Q 1469 3103 1208 2742 
Q 947 2381 947 1747 
z
" transform="scale(0.015625)"/>
      </defs>
      <use xlink:href="#DejaVuSans-41"/>
      <use xlink:href="#DejaVuSans-63" x="66.658203"/>
      <use xlink:href="#DejaVuSans-74" x="121.638672"/>
      <use xlink:href="#DejaVuSans-75" x="160.847656"/>
      <use xlink:href="#DejaVuSans-61" x="224.226562"/>
      <use xlink:href="#DejaVuSans-6c" x="285.505859"/>
      <use xlink:href="#DejaVuSans-20" x="313.289062"/>
      <use xlink:href="#DejaVuSans-73" x="345.076172"/>
      <use xlink:href="#DejaVuSans-70" x="397.175781"/>
      <use xlink:href="#DejaVuSans-65" x="460.652344"/>
      <use xlink:href="#DejaVuSans-65" x="522.175781"/>
      <use xlink:href="#DejaVuSans-64" x="583.699219"/>
     </g>
    </g>
   </g>
  </g>
 </g>
 <defs>
  <clipPath id="p7674a01f30">
   <rect x="57.6" y="41.472" width="357.12" height="266.112"/>
  </clipPath>
 </defs>
</svg>
