<?xml version="1.0" encoding="utf-8" standalone="no"?>
<!DOCTYPE svg PUBLIC "-//W3C//DTD SVG 1.1//EN"
  "http://www.w3.org/Graphics/SVG/1.1/DTD/svg11.dtd">
<svg xmlns:xlink="http://www.w3.org/1999/xlink" width="460.8pt" height="345.6pt" viewBox="0 0 460.8 345.6" xmlns="http://www.w3.org/2000/svg" version="1.1">
 <metadata>
  <rdf:RDF xmlns:dc="http://purl.org/dc/elements/1.1/" xmlns:cc="http://creativecommons.org/ns#" xmlns:rdf="http://www.w3.org/1999/02/22-rdf-syntax-ns#">
   <cc:Work>
    <dc:type rdf:resource="http://purl.org/dc/dcmitype/StillImage"/>
    <dc:date>2024-01-30T20:59:29.480696</dc:date>
    <dc:format>image/svg+xml</dc:format>
    <dc:creator>
     <cc:Agent>
      <dc:title>Matplotlib v3.7.1, https://matplotlib.org/</dc:title>
     </cc:Agent>
    </dc:creator>
   </cc:Work>
  </rdf:RDF>
 </metadata>
 <defs>
  <style type="text/css">*{stroke-linejoin: round; stroke-linecap: butt}</style>
 </defs>
 <g id="figure_1">
  <g id="patch_1">
   <path d="M 0 345.6 
L 460.8 345.6 
L 460.8 0 
L 0 0 
z
" style="fill: #ffffff"/>
  </g>
  <g id="axes_1">
   <g id="patch_2">
    <path d="M 57.6 307.584 
L 414.72 307.584 
L 414.72 41.472 
L 57.6 41.472 
z
" style="fill: #ffffff"/>
   </g>
   <g id="matplotlib.axis_1">
    <g id="xtick_1">
     <g id="line2d_1">
      <path d="M 73.832727 307.584 
L 73.832727 41.472 
" clip-path="url(#pcece32ada4)" style="fill: none; stroke: #b0b0b0; stroke-width: 0.8; stroke-linecap: square"/>
     </g>
     <g id="line2d_2">
      <defs>
       <path id="m2082b70208" d="M 0 0 
L 0 3.5 
" style="stroke: #000000; stroke-width: 0.8"/>
      </defs>
      <g>
       <use xlink:href="#m2082b70208" x="73.832727" y="307.584" style="stroke: #000000; stroke-width: 0.8"/>
      </g>
     </g>
     <g id="text_1">
      <!-- 0 -->
      <g transform="translate(70.651477 322.182437) scale(0.1 -0.1)">
       <defs>
        <path id="DejaVuSans-30" d="M 2034 4250 
Q 1547 4250 1301 3770 
Q 1056 3291 1056 2328 
Q 1056 1369 1301 889 
Q 1547 409 2034 409 
Q 2525 409 2770 889 
Q 3016 1369 3016 2328 
Q 3016 3291 2770 3770 
Q 2525 4250 2034 4250 
z
M 2034 4750 
Q 2819 4750 3233 4129 
Q 3647 3509 3647 2328 
Q 3647 1150 3233 529 
Q 2819 -91 2034 -91 
Q 1250 -91 836 529 
Q 422 1150 422 2328 
Q 422 3509 836 4129 
Q 1250 4750 2034 4750 
z
" transform="scale(0.015625)"/>
       </defs>
       <use xlink:href="#DejaVuSans-30"/>
      </g>
     </g>
    </g>
    <g id="xtick_2">
     <g id="line2d_3">
      <path d="M 131.93125 307.584 
L 131.93125 41.472 
" clip-path="url(#pcece32ada4)" style="fill: none; stroke: #b0b0b0; stroke-width: 0.8; stroke-linecap: square"/>
     </g>
     <g id="line2d_4">
      <g>
       <use xlink:href="#m2082b70208" x="131.93125" y="307.584" style="stroke: #000000; stroke-width: 0.8"/>
      </g>
     </g>
     <g id="text_2">
      <!-- 5 -->
      <g transform="translate(128.75 322.182437) scale(0.1 -0.1)">
       <defs>
        <path id="DejaVuSans-35" d="M 691 4666 
L 3169 4666 
L 3169 4134 
L 1269 4134 
L 1269 2991 
Q 1406 3038 1543 3061 
Q 1681 3084 1819 3084 
Q 2600 3084 3056 2656 
Q 3513 2228 3513 1497 
Q 3513 744 3044 326 
Q 2575 -91 1722 -91 
Q 1428 -91 1123 -41 
Q 819 9 494 109 
L 494 744 
Q 775 591 1075 516 
Q 1375 441 1709 441 
Q 2250 441 2565 725 
Q 2881 1009 2881 1497 
Q 2881 1984 2565 2268 
Q 2250 2553 1709 2553 
Q 1456 2553 1204 2497 
Q 953 2441 691 2322 
L 691 4666 
z
" transform="scale(0.015625)"/>
       </defs>
       <use xlink:href="#DejaVuSans-35"/>
      </g>
     </g>
    </g>
    <g id="xtick_3">
     <g id="line2d_5">
      <path d="M 190.029773 307.584 
L 190.029773 41.472 
" clip-path="url(#pcece32ada4)" style="fill: none; stroke: #b0b0b0; stroke-width: 0.8; stroke-linecap: square"/>
     </g>
     <g id="line2d_6">
      <g>
       <use xlink:href="#m2082b70208" x="190.029773" y="307.584" style="stroke: #000000; stroke-width: 0.8"/>
      </g>
     </g>
     <g id="text_3">
      <!-- 10 -->
      <g transform="translate(183.667273 322.182437) scale(0.1 -0.1)">
       <defs>
        <path id="DejaVuSans-31" d="M 794 531 
L 1825 531 
L 1825 4091 
L 703 3866 
L 703 4441 
L 1819 4666 
L 2450 4666 
L 2450 531 
L 3481 531 
L 3481 0 
L 794 0 
L 794 531 
z
" transform="scale(0.015625)"/>
       </defs>
       <use xlink:href="#DejaVuSans-31"/>
       <use xlink:href="#DejaVuSans-30" x="63.623047"/>
      </g>
     </g>
    </g>
    <g id="xtick_4">
     <g id="line2d_7">
      <path d="M 248.128296 307.584 
L 248.128296 41.472 
" clip-path="url(#pcece32ada4)" style="fill: none; stroke: #b0b0b0; stroke-width: 0.8; stroke-linecap: square"/>
     </g>
     <g id="line2d_8">
      <g>
       <use xlink:href="#m2082b70208" x="248.128296" y="307.584" style="stroke: #000000; stroke-width: 0.8"/>
      </g>
     </g>
     <g id="text_4">
      <!-- 15 -->
      <g transform="translate(241.765796 322.182437) scale(0.1 -0.1)">
       <use xlink:href="#DejaVuSans-31"/>
       <use xlink:href="#DejaVuSans-35" x="63.623047"/>
      </g>
     </g>
    </g>
    <g id="xtick_5">
     <g id="line2d_9">
      <path d="M 306.226819 307.584 
L 306.226819 41.472 
" clip-path="url(#pcece32ada4)" style="fill: none; stroke: #b0b0b0; stroke-width: 0.8; stroke-linecap: square"/>
     </g>
     <g id="line2d_10">
      <g>
       <use xlink:href="#m2082b70208" x="306.226819" y="307.584" style="stroke: #000000; stroke-width: 0.8"/>
      </g>
     </g>
     <g id="text_5">
      <!-- 20 -->
      <g transform="translate(299.864319 322.182437) scale(0.1 -0.1)">
       <defs>
        <path id="DejaVuSans-32" d="M 1228 531 
L 3431 531 
L 3431 0 
L 469 0 
L 469 531 
Q 828 903 1448 1529 
Q 2069 2156 2228 2338 
Q 2531 2678 2651 2914 
Q 2772 3150 2772 3378 
Q 2772 3750 2511 3984 
Q 2250 4219 1831 4219 
Q 1534 4219 1204 4116 
Q 875 4013 500 3803 
L 500 4441 
Q 881 4594 1212 4672 
Q 1544 4750 1819 4750 
Q 2544 4750 2975 4387 
Q 3406 4025 3406 3419 
Q 3406 3131 3298 2873 
Q 3191 2616 2906 2266 
Q 2828 2175 2409 1742 
Q 1991 1309 1228 531 
z
" transform="scale(0.015625)"/>
       </defs>
       <use xlink:href="#DejaVuSans-32"/>
       <use xlink:href="#DejaVuSans-30" x="63.623047"/>
      </g>
     </g>
    </g>
    <g id="xtick_6">
     <g id="line2d_11">
      <path d="M 364.325341 307.584 
L 364.325341 41.472 
" clip-path="url(#pcece32ada4)" style="fill: none; stroke: #b0b0b0; stroke-width: 0.8; stroke-linecap: square"/>
     </g>
     <g id="line2d_12">
      <g>
       <use xlink:href="#m2082b70208" x="364.325341" y="307.584" style="stroke: #000000; stroke-width: 0.8"/>
      </g>
     </g>
     <g id="text_6">
      <!-- 25 -->
      <g transform="translate(357.962841 322.182437) scale(0.1 -0.1)">
       <use xlink:href="#DejaVuSans-32"/>
       <use xlink:href="#DejaVuSans-35" x="63.623047"/>
      </g>
     </g>
    </g>
    <g id="text_7">
     <!-- Time(s) -->
     <g transform="translate(217.420156 335.860562) scale(0.1 -0.1)">
      <defs>
       <path id="DejaVuSans-54" d="M -19 4666 
L 3928 4666 
L 3928 4134 
L 2272 4134 
L 2272 0 
L 1638 0 
L 1638 4134 
L -19 4134 
L -19 4666 
z
" transform="scale(0.015625)"/>
       <path id="DejaVuSans-69" d="M 603 3500 
L 1178 3500 
L 1178 0 
L 603 0 
L 603 3500 
z
M 603 4863 
L 1178 4863 
L 1178 4134 
L 603 4134 
L 603 4863 
z
" transform="scale(0.015625)"/>
       <path id="DejaVuSans-6d" d="M 3328 2828 
Q 3544 3216 3844 3400 
Q 4144 3584 4550 3584 
Q 5097 3584 5394 3201 
Q 5691 2819 5691 2113 
L 5691 0 
L 5113 0 
L 5113 2094 
Q 5113 2597 4934 2840 
Q 4756 3084 4391 3084 
Q 3944 3084 3684 2787 
Q 3425 2491 3425 1978 
L 3425 0 
L 2847 0 
L 2847 2094 
Q 2847 2600 2669 2842 
Q 2491 3084 2119 3084 
Q 1678 3084 1418 2786 
Q 1159 2488 1159 1978 
L 1159 0 
L 581 0 
L 581 3500 
L 1159 3500 
L 1159 2956 
Q 1356 3278 1631 3431 
Q 1906 3584 2284 3584 
Q 2666 3584 2933 3390 
Q 3200 3197 3328 2828 
z
" transform="scale(0.015625)"/>
       <path id="DejaVuSans-65" d="M 3597 1894 
L 3597 1613 
L 953 1613 
Q 991 1019 1311 708 
Q 1631 397 2203 397 
Q 2534 397 2845 478 
Q 3156 559 3463 722 
L 3463 178 
Q 3153 47 2828 -22 
Q 2503 -91 2169 -91 
Q 1331 -91 842 396 
Q 353 884 353 1716 
Q 353 2575 817 3079 
Q 1281 3584 2069 3584 
Q 2775 3584 3186 3129 
Q 3597 2675 3597 1894 
z
M 3022 2063 
Q 3016 2534 2758 2815 
Q 2500 3097 2075 3097 
Q 1594 3097 1305 2825 
Q 1016 2553 972 2059 
L 3022 2063 
z
" transform="scale(0.015625)"/>
       <path id="DejaVuSans-28" d="M 1984 4856 
Q 1566 4138 1362 3434 
Q 1159 2731 1159 2009 
Q 1159 1288 1364 580 
Q 1569 -128 1984 -844 
L 1484 -844 
Q 1016 -109 783 600 
Q 550 1309 550 2009 
Q 550 2706 781 3412 
Q 1013 4119 1484 4856 
L 1984 4856 
z
" transform="scale(0.015625)"/>
       <path id="DejaVuSans-73" d="M 2834 3397 
L 2834 2853 
Q 2591 2978 2328 3040 
Q 2066 3103 1784 3103 
Q 1356 3103 1142 2972 
Q 928 2841 928 2578 
Q 928 2378 1081 2264 
Q 1234 2150 1697 2047 
L 1894 2003 
Q 2506 1872 2764 1633 
Q 3022 1394 3022 966 
Q 3022 478 2636 193 
Q 2250 -91 1575 -91 
Q 1294 -91 989 -36 
Q 684 19 347 128 
L 347 722 
Q 666 556 975 473 
Q 1284 391 1588 391 
Q 1994 391 2212 530 
Q 2431 669 2431 922 
Q 2431 1156 2273 1281 
Q 2116 1406 1581 1522 
L 1381 1569 
Q 847 1681 609 1914 
Q 372 2147 372 2553 
Q 372 3047 722 3315 
Q 1072 3584 1716 3584 
Q 2034 3584 2315 3537 
Q 2597 3491 2834 3397 
z
" transform="scale(0.015625)"/>
       <path id="DejaVuSans-29" d="M 513 4856 
L 1013 4856 
Q 1481 4119 1714 3412 
Q 1947 2706 1947 2009 
Q 1947 1309 1714 600 
Q 1481 -109 1013 -844 
L 513 -844 
Q 928 -128 1133 580 
Q 1338 1288 1338 2009 
Q 1338 2731 1133 3434 
Q 928 4138 513 4856 
z
" transform="scale(0.015625)"/>
      </defs>
      <use xlink:href="#DejaVuSans-54"/>
      <use xlink:href="#DejaVuSans-69" x="57.958984"/>
      <use xlink:href="#DejaVuSans-6d" x="85.742188"/>
      <use xlink:href="#DejaVuSans-65" x="183.154297"/>
      <use xlink:href="#DejaVuSans-28" x="244.677734"/>
      <use xlink:href="#DejaVuSans-73" x="283.691406"/>
      <use xlink:href="#DejaVuSans-29" x="335.791016"/>
     </g>
    </g>
   </g>
   <g id="matplotlib.axis_2">
    <g id="ytick_1">
     <g id="line2d_13">
      <path d="M 57.6 295.488 
L 414.72 295.488 
" clip-path="url(#pcece32ada4)" style="fill: none; stroke: #b0b0b0; stroke-width: 0.8; stroke-linecap: square"/>
     </g>
     <g id="line2d_14">
      <defs>
       <path id="m3df55b02b4" d="M 0 0 
L -3.5 0 
" style="stroke: #000000; stroke-width: 0.8"/>
      </defs>
      <g>
       <use xlink:href="#m3df55b02b4" x="57.6" y="295.488" style="stroke: #000000; stroke-width: 0.8"/>
      </g>
     </g>
     <g id="text_8">
      <!-- 0.00 -->
      <g transform="translate(28.334375 299.287219) scale(0.1 -0.1)">
       <defs>
        <path id="DejaVuSans-2e" d="M 684 794 
L 1344 794 
L 1344 0 
L 684 0 
L 684 794 
z
" transform="scale(0.015625)"/>
       </defs>
       <use xlink:href="#DejaVuSans-30"/>
       <use xlink:href="#DejaVuSans-2e" x="63.623047"/>
       <use xlink:href="#DejaVuSans-30" x="95.410156"/>
       <use xlink:href="#DejaVuSans-30" x="159.033203"/>
      </g>
     </g>
    </g>
    <g id="ytick_2">
     <g id="line2d_15">
      <path d="M 57.6 249.385695 
L 414.72 249.385695 
" clip-path="url(#pcece32ada4)" style="fill: none; stroke: #b0b0b0; stroke-width: 0.8; stroke-linecap: square"/>
     </g>
     <g id="line2d_16">
      <g>
       <use xlink:href="#m3df55b02b4" x="57.6" y="249.385695" style="stroke: #000000; stroke-width: 0.8"/>
      </g>
     </g>
     <g id="text_9">
      <!-- 0.05 -->
      <g transform="translate(28.334375 253.184914) scale(0.1 -0.1)">
       <use xlink:href="#DejaVuSans-30"/>
       <use xlink:href="#DejaVuSans-2e" x="63.623047"/>
       <use xlink:href="#DejaVuSans-30" x="95.410156"/>
       <use xlink:href="#DejaVuSans-35" x="159.033203"/>
      </g>
     </g>
    </g>
    <g id="ytick_3">
     <g id="line2d_17">
      <path d="M 57.6 203.283391 
L 414.72 203.283391 
" clip-path="url(#pcece32ada4)" style="fill: none; stroke: #b0b0b0; stroke-width: 0.8; stroke-linecap: square"/>
     </g>
     <g id="line2d_18">
      <g>
       <use xlink:href="#m3df55b02b4" x="57.6" y="203.283391" style="stroke: #000000; stroke-width: 0.8"/>
      </g>
     </g>
     <g id="text_10">
      <!-- 0.10 -->
      <g transform="translate(28.334375 207.082609) scale(0.1 -0.1)">
       <use xlink:href="#DejaVuSans-30"/>
       <use xlink:href="#DejaVuSans-2e" x="63.623047"/>
       <use xlink:href="#DejaVuSans-31" x="95.410156"/>
       <use xlink:href="#DejaVuSans-30" x="159.033203"/>
      </g>
     </g>
    </g>
    <g id="ytick_4">
     <g id="line2d_19">
      <path d="M 57.6 157.181086 
L 414.72 157.181086 
" clip-path="url(#pcece32ada4)" style="fill: none; stroke: #b0b0b0; stroke-width: 0.8; stroke-linecap: square"/>
     </g>
     <g id="line2d_20">
      <g>
       <use xlink:href="#m3df55b02b4" x="57.6" y="157.181086" style="stroke: #000000; stroke-width: 0.8"/>
      </g>
     </g>
     <g id="text_11">
      <!-- 0.15 -->
      <g transform="translate(28.334375 160.980305) scale(0.1 -0.1)">
       <use xlink:href="#DejaVuSans-30"/>
       <use xlink:href="#DejaVuSans-2e" x="63.623047"/>
       <use xlink:href="#DejaVuSans-31" x="95.410156"/>
       <use xlink:href="#DejaVuSans-35" x="159.033203"/>
      </g>
     </g>
    </g>
    <g id="ytick_5">
     <g id="line2d_21">
      <path d="M 57.6 111.078781 
L 414.72 111.078781 
" clip-path="url(#pcece32ada4)" style="fill: none; stroke: #b0b0b0; stroke-width: 0.8; stroke-linecap: square"/>
     </g>
     <g id="line2d_22">
      <g>
       <use xlink:href="#m3df55b02b4" x="57.6" y="111.078781" style="stroke: #000000; stroke-width: 0.8"/>
      </g>
     </g>
     <g id="text_12">
      <!-- 0.20 -->
      <g transform="translate(28.334375 114.878) scale(0.1 -0.1)">
       <use xlink:href="#DejaVuSans-30"/>
       <use xlink:href="#DejaVuSans-2e" x="63.623047"/>
       <use xlink:href="#DejaVuSans-32" x="95.410156"/>
       <use xlink:href="#DejaVuSans-30" x="159.033203"/>
      </g>
     </g>
    </g>
    <g id="ytick_6">
     <g id="line2d_23">
      <path d="M 57.6 64.976476 
L 414.72 64.976476 
" clip-path="url(#pcece32ada4)" style="fill: none; stroke: #b0b0b0; stroke-width: 0.8; stroke-linecap: square"/>
     </g>
     <g id="line2d_24">
      <g>
       <use xlink:href="#m3df55b02b4" x="57.6" y="64.976476" style="stroke: #000000; stroke-width: 0.8"/>
      </g>
     </g>
     <g id="text_13">
      <!-- 0.25 -->
      <g transform="translate(28.334375 68.775695) scale(0.1 -0.1)">
       <use xlink:href="#DejaVuSans-30"/>
       <use xlink:href="#DejaVuSans-2e" x="63.623047"/>
       <use xlink:href="#DejaVuSans-32" x="95.410156"/>
       <use xlink:href="#DejaVuSans-35" x="159.033203"/>
      </g>
     </g>
    </g>
    <g id="text_14">
     <!-- Tracking error(m) -->
     <g transform="translate(22.254687 217.803781) rotate(-90) scale(0.1 -0.1)">
      <defs>
       <path id="DejaVuSans-72" d="M 2631 2963 
Q 2534 3019 2420 3045 
Q 2306 3072 2169 3072 
Q 1681 3072 1420 2755 
Q 1159 2438 1159 1844 
L 1159 0 
L 581 0 
L 581 3500 
L 1159 3500 
L 1159 2956 
Q 1341 3275 1631 3429 
Q 1922 3584 2338 3584 
Q 2397 3584 2469 3576 
Q 2541 3569 2628 3553 
L 2631 2963 
z
" transform="scale(0.015625)"/>
       <path id="DejaVuSans-61" d="M 2194 1759 
Q 1497 1759 1228 1600 
Q 959 1441 959 1056 
Q 959 750 1161 570 
Q 1363 391 1709 391 
Q 2188 391 2477 730 
Q 2766 1069 2766 1631 
L 2766 1759 
L 2194 1759 
z
M 3341 1997 
L 3341 0 
L 2766 0 
L 2766 531 
Q 2569 213 2275 61 
Q 1981 -91 1556 -91 
Q 1019 -91 701 211 
Q 384 513 384 1019 
Q 384 1609 779 1909 
Q 1175 2209 1959 2209 
L 2766 2209 
L 2766 2266 
Q 2766 2663 2505 2880 
Q 2244 3097 1772 3097 
Q 1472 3097 1187 3025 
Q 903 2953 641 2809 
L 641 3341 
Q 956 3463 1253 3523 
Q 1550 3584 1831 3584 
Q 2591 3584 2966 3190 
Q 3341 2797 3341 1997 
z
" transform="scale(0.015625)"/>
       <path id="DejaVuSans-63" d="M 3122 3366 
L 3122 2828 
Q 2878 2963 2633 3030 
Q 2388 3097 2138 3097 
Q 1578 3097 1268 2742 
Q 959 2388 959 1747 
Q 959 1106 1268 751 
Q 1578 397 2138 397 
Q 2388 397 2633 464 
Q 2878 531 3122 666 
L 3122 134 
Q 2881 22 2623 -34 
Q 2366 -91 2075 -91 
Q 1284 -91 818 406 
Q 353 903 353 1747 
Q 353 2603 823 3093 
Q 1294 3584 2113 3584 
Q 2378 3584 2631 3529 
Q 2884 3475 3122 3366 
z
" transform="scale(0.015625)"/>
       <path id="DejaVuSans-6b" d="M 581 4863 
L 1159 4863 
L 1159 1991 
L 2875 3500 
L 3609 3500 
L 1753 1863 
L 3688 0 
L 2938 0 
L 1159 1709 
L 1159 0 
L 581 0 
L 581 4863 
z
" transform="scale(0.015625)"/>
       <path id="DejaVuSans-6e" d="M 3513 2113 
L 3513 0 
L 2938 0 
L 2938 2094 
Q 2938 2591 2744 2837 
Q 2550 3084 2163 3084 
Q 1697 3084 1428 2787 
Q 1159 2491 1159 1978 
L 1159 0 
L 581 0 
L 581 3500 
L 1159 3500 
L 1159 2956 
Q 1366 3272 1645 3428 
Q 1925 3584 2291 3584 
Q 2894 3584 3203 3211 
Q 3513 2838 3513 2113 
z
" transform="scale(0.015625)"/>
       <path id="DejaVuSans-67" d="M 2906 1791 
Q 2906 2416 2648 2759 
Q 2391 3103 1925 3103 
Q 1463 3103 1205 2759 
Q 947 2416 947 1791 
Q 947 1169 1205 825 
Q 1463 481 1925 481 
Q 2391 481 2648 825 
Q 2906 1169 2906 1791 
z
M 3481 434 
Q 3481 -459 3084 -895 
Q 2688 -1331 1869 -1331 
Q 1566 -1331 1297 -1286 
Q 1028 -1241 775 -1147 
L 775 -588 
Q 1028 -725 1275 -790 
Q 1522 -856 1778 -856 
Q 2344 -856 2625 -561 
Q 2906 -266 2906 331 
L 2906 616 
Q 2728 306 2450 153 
Q 2172 0 1784 0 
Q 1141 0 747 490 
Q 353 981 353 1791 
Q 353 2603 747 3093 
Q 1141 3584 1784 3584 
Q 2172 3584 2450 3431 
Q 2728 3278 2906 2969 
L 2906 3500 
L 3481 3500 
L 3481 434 
z
" transform="scale(0.015625)"/>
       <path id="DejaVuSans-20" transform="scale(0.015625)"/>
       <path id="DejaVuSans-6f" d="M 1959 3097 
Q 1497 3097 1228 2736 
Q 959 2375 959 1747 
Q 959 1119 1226 758 
Q 1494 397 1959 397 
Q 2419 397 2687 759 
Q 2956 1122 2956 1747 
Q 2956 2369 2687 2733 
Q 2419 3097 1959 3097 
z
M 1959 3584 
Q 2709 3584 3137 3096 
Q 3566 2609 3566 1747 
Q 3566 888 3137 398 
Q 2709 -91 1959 -91 
Q 1206 -91 779 398 
Q 353 888 353 1747 
Q 353 2609 779 3096 
Q 1206 3584 1959 3584 
z
" transform="scale(0.015625)"/>
      </defs>
      <use xlink:href="#DejaVuSans-54"/>
      <use xlink:href="#DejaVuSans-72" x="46.333984"/>
      <use xlink:href="#DejaVuSans-61" x="87.447266"/>
      <use xlink:href="#DejaVuSans-63" x="148.726562"/>
      <use xlink:href="#DejaVuSans-6b" x="203.707031"/>
      <use xlink:href="#DejaVuSans-69" x="261.617188"/>
      <use xlink:href="#DejaVuSans-6e" x="289.400391"/>
      <use xlink:href="#DejaVuSans-67" x="352.779297"/>
      <use xlink:href="#DejaVuSans-20" x="416.255859"/>
      <use xlink:href="#DejaVuSans-65" x="448.042969"/>
      <use xlink:href="#DejaVuSans-72" x="509.566406"/>
      <use xlink:href="#DejaVuSans-72" x="548.929688"/>
      <use xlink:href="#DejaVuSans-6f" x="587.792969"/>
      <use xlink:href="#DejaVuSans-72" x="648.974609"/>
      <use xlink:href="#DejaVuSans-28" x="690.087891"/>
      <use xlink:href="#DejaVuSans-6d" x="729.101562"/>
      <use xlink:href="#DejaVuSans-29" x="826.513672"/>
     </g>
    </g>
   </g>
   <g id="line2d_25">
    <path d="M 73.832727 256.567512 
L 74.065121 280.280694 
L 74.065121 280.280694 
L 74.762304 158.384356 
L 74.762304 158.384356 
L 75.227092 102.066703 
L 75.227092 102.066703 
L 75.69188 67.507493 
L 75.69188 67.507493 
L 75.924274 58.05652 
L 75.924274 58.05652 
L 76.156668 53.568 
L 76.156668 53.568 
L 76.389062 53.773616 
L 76.389062 53.773616 
L 76.621456 58.347887 
L 76.621456 58.347887 
L 77.086245 76.538012 
L 77.086245 76.538012 
L 78.015821 130.913837 
L 78.015821 130.913837 
L 78.945397 180.839867 
L 78.945397 180.839867 
L 79.874974 216.782145 
L 79.874974 216.782145 
L 82.198915 284.488912 
L 82.198915 284.488912 
L 82.663703 294.139969 
L 82.663703 294.139969 
L 82.896097 292.409288 
L 82.896097 292.409288 
L 83.360885 285.619341 
L 83.360885 285.619341 
L 84.058067 283.215566 
L 84.058067 283.215566 
L 84.290461 283.657227 
L 84.290461 283.657227 
L 84.522855 284.85312 
L 84.522855 284.85312 
L 85.220038 293.412474 
L 85.220038 293.412474 
L 85.452432 294.511553 
L 85.452432 294.511553 
L 85.91722 286.788495 
L 85.91722 286.788495 
L 87.543979 264.852096 
L 87.543979 264.852096 
L 88.473555 255.813279 
L 88.473555 255.813279 
L 88.705949 254.725264 
L 88.705949 254.725264 
L 88.938343 254.221827 
L 88.938343 254.221827 
L 89.170737 252.546469 
L 89.403131 252.527106 
L 89.403131 252.527106 
L 89.635525 253.28595 
L 89.635525 253.28595 
L 89.86792 254.645046 
L 89.86792 254.645046 
L 90.100314 255.046136 
L 90.100314 255.046136 
L 90.565102 259.570616 
L 90.565102 259.570616 
L 91.727072 275.182701 
L 91.727072 275.182701 
L 91.959466 276.67826 
L 91.959466 276.67826 
L 92.424255 282.073151 
L 92.424255 282.073151 
L 92.656649 282.950939 
L 92.656649 282.950939 
L 93.353831 286.956307 
L 93.353831 286.956307 
L 93.586225 285.413724 
L 93.586225 285.413724 
L 94.051013 285.611964 
L 94.051013 285.611964 
L 94.283407 283.426715 
L 94.283407 283.426715 
L 94.515801 282.972146 
L 94.515801 282.972146 
L 94.748195 283.168542 
L 94.748195 283.168542 
L 94.98059 281.107769 
L 94.98059 281.107769 
L 95.212984 281.147417 
L 95.212984 281.147417 
L 95.445378 282.158902 
L 95.445378 282.158902 
L 95.677772 280.787819 
L 95.677772 280.787819 
L 95.910166 282.196706 
L 95.910166 282.196706 
L 96.14256 284.566364 
L 96.14256 284.566364 
L 96.374954 283.983631 
L 96.374954 283.983631 
L 96.607348 286.436273 
L 96.607348 286.436273 
L 96.839742 287.329736 
L 96.839742 287.329736 
L 97.30453 292.873999 
L 97.30453 292.873999 
L 97.536925 293.230831 
L 97.536925 293.230831 
L 97.769319 295.265787 
L 97.769319 295.265787 
L 98.001713 293.246506 
L 98.001713 293.246506 
L 98.234107 294.908033 
L 98.234107 294.908033 
L 98.466501 295.488 
L 98.466501 295.488 
L 98.698895 293.605182 
L 98.698895 293.605182 
L 98.931289 292.808534 
L 99.396077 289.460585 
L 99.396077 289.460585 
L 99.628471 282.408776 
L 99.628471 282.408776 
L 100.09326 276.334336 
L 100.09326 276.334336 
L 100.325654 268.72008 
L 100.325654 268.72008 
L 100.558048 265.377663 
L 101.022836 256.146137 
L 101.022836 256.146137 
L 101.25523 253.856697 
L 101.25523 253.856697 
L 101.487624 248.908997 
L 101.487624 248.908997 
L 102.4172 240.177221 
L 102.4172 240.177221 
L 102.649595 239.570515 
L 102.649595 239.570515 
L 102.881989 236.12114 
L 102.881989 236.12114 
L 103.114383 235.217535 
L 103.114383 235.217535 
L 103.346777 234.782329 
L 103.346777 234.782329 
L 103.579171 231.59205 
L 103.579171 231.59205 
L 104.043959 230.187774 
L 104.043959 230.187774 
L 104.276353 227.352482 
L 104.276353 227.352482 
L 104.508747 226.733789 
L 104.508747 226.733789 
L 104.741141 226.435968 
L 104.741141 226.435968 
L 104.973535 224.333703 
L 104.973535 224.333703 
L 105.20593 224.095815 
L 105.20593 224.095815 
L 105.438324 224.263627 
L 105.438324 224.263627 
L 105.670718 223.353568 
L 105.670718 223.353568 
L 106.3679 225.440158 
L 106.3679 225.440158 
L 107.065082 230.350976 
L 107.065082 230.350976 
L 107.762265 237.332709 
L 107.762265 237.332709 
L 108.459447 247.04923 
L 108.459447 247.04923 
L 109.156629 260.110013 
L 109.156629 260.110013 
L 110.783388 293.569222 
L 110.783388 293.569222 
L 111.015782 293.226221 
L 111.015782 293.226221 
L 111.945358 280.115648 
L 111.945358 280.115648 
L 112.410146 275.631737 
L 112.410146 275.631737 
L 113.107329 271.016897 
L 113.107329 271.016897 
L 113.804511 267.982443 
L 113.804511 267.982443 
L 114.269299 266.896273 
L 114.269299 266.896273 
L 114.501693 266.644554 
L 114.501693 266.644554 
L 114.734087 266.628879 
L 114.734087 266.628879 
L 114.966481 266.923934 
L 114.966481 266.923934 
L 115.198876 267.573977 
L 115.198876 267.573977 
L 115.43127 268.632485 
L 115.43127 268.632485 
L 115.896058 272.303151 
L 115.896058 272.303151 
L 116.59324 279.898967 
L 116.59324 279.898967 
L 117.755211 295.032509 
L 117.755211 295.032509 
L 118.917181 286.65572 
L 118.917181 286.65572 
L 119.381969 285.518838 
L 119.381969 285.518838 
L 119.614363 285.318754 
L 119.614363 285.318754 
L 119.846757 285.297547 
L 119.846757 285.297547 
L 120.079151 285.389751 
L 120.079151 285.389751 
L 120.776334 286.635435 
L 120.776334 286.635435 
L 121.473516 288.234263 
L 121.473516 288.234263 
L 122.867881 291.093528 
L 122.867881 291.093528 
L 123.100275 295.488 
L 123.100275 295.488 
L 123.332669 292.294032 
L 123.332669 292.294032 
L 123.797457 293.920522 
L 123.797457 293.920522 
L 124.262245 295.488 
L 124.262245 295.488 
L 124.959427 292.002666 
L 124.959427 292.002666 
L 125.191821 291.028063 
L 125.191821 291.028063 
L 125.424216 295.488 
L 125.424216 295.488 
L 125.65661 289.471649 
L 125.65661 289.471649 
L 126.81858 286.906517 
L 126.81858 286.906517 
L 127.283368 285.215484 
L 127.283368 285.215484 
L 127.748156 282.997964 
L 127.748156 282.997964 
L 128.910127 276.681948 
L 128.910127 276.681948 
L 129.142521 276.053112 
L 129.142521 276.053112 
L 129.374915 275.798628 
L 129.374915 275.798628 
L 129.839703 276.796282 
L 129.839703 276.796282 
L 130.536886 279.681364 
L 130.536886 279.681364 
L 131.466462 283.255214 
L 131.466462 283.255214 
L 132.396038 286.466701 
L 132.396038 286.466701 
L 132.860826 288.888916 
L 132.860826 288.888916 
L 133.790403 295.28054 
L 133.790403 295.28054 
L 135.184767 284.518418 
L 135.184767 284.518418 
L 135.417161 283.513387 
L 135.417161 283.513387 
L 136.811526 273.232573 
L 136.811526 273.232573 
L 137.04392 270.014633 
L 137.04392 270.014633 
L 137.276314 269.022511 
L 137.276314 269.022511 
L 137.508708 265.848828 
L 137.508708 265.848828 
L 137.741102 264.451006 
L 137.741102 264.451006 
L 138.205891 257.31437 
L 138.205891 257.31437 
L 138.438285 257.127194 
L 138.438285 257.127194 
L 138.670679 253.806906 
L 138.903073 253.797686 
L 138.903073 253.797686 
L 139.135467 250.992822 
L 139.135467 250.992822 
L 139.367861 250.773375 
L 139.367861 250.773375 
L 139.600255 248.356692 
L 139.600255 248.356692 
L 139.832649 244.541265 
L 139.832649 244.541265 
L 140.065043 245.59793 
L 140.065043 245.59793 
L 140.297437 241.800022 
L 140.529831 242.461129 
L 140.529831 242.461129 
L 140.762226 238.76649 
L 140.762226 238.76649 
L 140.99462 239.047714 
L 140.99462 239.047714 
L 141.227014 235.720972 
L 141.227014 235.720972 
L 141.459408 235.660117 
L 141.459408 235.660117 
L 141.691802 232.729855 
L 141.691802 232.729855 
L 141.924196 232.822059 
L 141.924196 232.822059 
L 142.15659 230.933709 
L 142.15659 230.933709 
L 142.388984 227.665055 
L 142.388984 227.665055 
L 142.621378 231.07847 
L 142.621378 231.07847 
L 142.853772 229.561704 
L 142.853772 229.561704 
L 143.086166 234.348968 
L 143.086166 234.348968 
L 143.318561 234.529689 
L 143.550955 240.36624 
L 143.550955 240.36624 
L 143.783349 242.027767 
L 143.783349 242.027767 
L 144.015743 248.462727 
L 144.015743 248.462727 
L 144.248137 250.571447 
L 144.248137 250.571447 
L 144.480531 256.666171 
L 144.480531 256.666171 
L 144.712925 258.746307 
L 144.712925 258.746307 
L 144.945319 264.584703 
L 144.945319 264.584703 
L 145.177713 267.03458 
L 145.177713 267.03458 
L 145.410107 272.787225 
L 145.410107 272.787225 
L 145.642501 275.446406 
L 145.642501 275.446406 
L 145.874896 280.986981 
L 145.874896 280.986981 
L 146.10729 283.443312 
L 146.10729 283.443312 
L 146.339684 288.225043 
L 146.339684 288.225043 
L 146.572078 290.220351 
L 146.804472 294.024713 
L 146.804472 294.024713 
L 147.036866 295.488 
L 147.036866 295.488 
L 147.26926 293.159834 
L 147.26926 293.159834 
L 147.501654 295.488 
L 147.734048 291.395037 
L 147.734048 291.395037 
L 147.966442 295.488 
L 147.966442 295.488 
L 148.198836 295.391185 
L 148.198836 295.391185 
L 148.431231 295.488 
L 148.431231 295.488 
L 148.663625 295.284228 
L 148.663625 295.284228 
L 148.896019 295.488 
L 148.896019 295.488 
L 149.128413 294.49219 
L 149.128413 294.49219 
L 149.360807 289.247592 
L 149.360807 289.247592 
L 149.593201 292.886908 
L 149.825595 287.471731 
L 149.825595 287.471731 
L 150.057989 290.776344 
L 150.057989 290.776344 
L 150.290383 285.374076 
L 150.290383 285.374076 
L 150.522777 288.337533 
L 150.522777 288.337533 
L 150.755171 283.594527 
L 150.755171 283.594527 
L 150.987566 287.008864 
L 150.987566 287.008864 
L 151.21996 282.89285 
L 151.21996 282.89285 
L 151.452354 286.063767 
L 151.452354 286.063767 
L 151.684748 282.093436 
L 151.684748 282.093436 
L 151.917142 284.878016 
L 151.917142 284.878016 
L 152.149536 280.985137 
L 152.149536 280.985137 
L 152.38193 283.196204 
L 152.38193 283.196204 
L 152.614324 279.299637 
L 152.614324 279.299637 
L 152.846718 281.031239 
L 152.846718 281.031239 
L 153.079112 277.15588 
L 153.079112 277.15588 
L 153.311506 278.24666 
L 153.311506 278.24666 
L 153.543901 274.820337 
L 153.543901 274.820337 
L 153.776295 275.68706 
L 153.776295 275.68706 
L 154.008689 272.813042 
L 154.008689 272.813042 
L 154.241083 273.204912 
L 154.241083 273.204912 
L 154.473477 270.642546 
L 154.473477 270.642546 
L 154.705871 270.468279 
L 154.705871 270.468279 
L 154.938265 268.074648 
L 154.938265 268.074648 
L 155.170659 266.952517 
L 155.170659 266.952517 
L 156.33263 252.297517 
L 156.33263 252.297517 
L 157.726994 231.707305 
L 157.726994 231.707305 
L 157.959388 228.866481 
L 157.959388 228.866481 
L 158.191782 228.653489 
L 158.191782 228.653489 
L 158.424176 227.409649 
L 158.424176 227.409649 
L 158.656571 225.354408 
L 158.656571 225.354408 
L 158.888965 228.31602 
L 158.888965 228.31602 
L 159.121359 228.068912 
L 159.121359 228.068912 
L 159.353753 231.184505 
L 159.353753 231.184505 
L 159.586147 232.075202 
L 159.586147 232.075202 
L 159.818541 231.352318 
L 159.818541 231.352318 
L 160.050935 236.20228 
L 160.050935 236.20228 
L 160.283329 235.828852 
L 160.515723 239.276382 
L 160.515723 239.276382 
L 160.748117 239.115024 
L 160.748117 239.115024 
L 160.980511 237.148299 
L 160.980511 237.148299 
L 161.212906 241.859955 
L 161.212906 241.859955 
L 161.4453 240.712008 
L 161.4453 240.712008 
L 161.677694 244.745037 
L 161.677694 244.745037 
L 161.910088 245.047468 
L 161.910088 245.047468 
L 162.374876 252.116796 
L 162.374876 252.116796 
L 162.60727 254.674552 
L 162.60727 254.674552 
L 163.072058 266.527454 
L 163.072058 266.527454 
L 163.536846 277.147581 
L 163.536846 277.147581 
L 163.769241 279.863007 
L 163.769241 279.863007 
L 164.001635 285.317832 
L 164.001635 285.317832 
L 164.234029 286.902829 
L 164.234029 286.902829 
L 164.466423 290.558742 
L 164.466423 290.558742 
L 164.698817 291.067711 
L 164.698817 291.067711 
L 165.163605 295.488 
L 165.163605 295.488 
L 165.395999 292.066287 
L 165.628393 294.620355 
L 165.628393 294.620355 
L 165.860787 293.531418 
L 165.860787 293.531418 
L 166.093181 295.415158 
L 166.093181 295.415158 
L 166.325576 294.943071 
L 166.325576 294.943071 
L 166.55797 293.495458 
L 166.55797 293.495458 
L 167.022758 294.25338 
L 167.022758 294.25338 
L 167.255152 290.781877 
L 167.255152 290.781877 
L 167.487546 290.069135 
L 167.487546 290.069135 
L 167.952334 284.751695 
L 167.952334 284.751695 
L 168.184728 283.038534 
L 168.184728 283.038534 
L 168.649516 274.824025 
L 168.649516 274.824025 
L 168.881911 271.754534 
L 168.881911 271.754534 
L 169.346699 261.813033 
L 169.346699 261.813033 
L 170.043881 248.468259 
L 170.043881 248.468259 
L 170.508669 241.43858 
L 170.508669 241.43858 
L 170.741063 238.79784 
L 170.741063 238.79784 
L 171.205851 237.062549 
L 171.205851 237.062549 
L 171.438246 237.246036 
L 171.438246 237.246036 
L 171.903034 240.906559 
L 171.903034 240.906559 
L 172.367822 246.936741 
L 172.367822 246.936741 
L 174.691763 282.882708 
L 174.691763 282.882708 
L 174.924157 284.995115 
L 174.924157 284.995115 
L 175.156551 295.488 
L 175.156551 295.488 
L 175.388945 289.383133 
L 175.388945 289.383133 
L 176.318522 295.428989 
L 176.318522 295.428989 
L 176.78331 292.348433 
L 176.78331 292.348433 
L 177.480492 287.04298 
L 177.480492 287.04298 
L 178.177674 279.12076 
L 178.177674 279.12076 
L 178.410068 275.743305 
L 178.410068 275.743305 
L 179.804433 244.865825 
L 179.804433 244.865825 
L 180.036827 241.556602 
L 180.036827 241.556602 
L 180.269221 234.407979 
L 180.269221 234.407979 
L 180.501615 233.009235 
L 180.501615 233.009235 
L 180.734009 225.475196 
L 180.734009 225.475196 
L 180.966403 226.331777 
L 180.966403 226.331777 
L 181.198797 225.496403 
L 181.198797 225.496403 
L 181.431192 220.52473 
L 181.431192 220.52473 
L 181.663586 221.361026 
L 181.89598 215.232186 
L 181.89598 215.232186 
L 182.128374 216.841156 
L 182.128374 216.841156 
L 182.360768 215.940317 
L 182.360768 215.940317 
L 182.593162 210.526063 
L 182.593162 210.526063 
L 182.825556 210.132349 
L 182.825556 210.132349 
L 183.05795 202.996634 
L 183.05795 202.996634 
L 183.290344 203.822787 
L 183.522738 202.412979 
L 183.522738 202.412979 
L 183.755132 197.086319 
L 183.755132 197.086319 
L 183.987527 197.296545 
L 183.987527 197.296545 
L 184.219921 191.35949 
L 184.219921 191.35949 
L 184.452315 194.168043 
L 184.452315 194.168043 
L 184.684709 194.682545 
L 184.684709 194.682545 
L 184.917103 190.928895 
L 184.917103 190.928895 
L 185.149497 192.914982 
L 185.149497 192.914982 
L 185.381891 187.86217 
L 185.381891 187.86217 
L 185.614285 192.388494 
L 185.614285 192.388494 
L 185.846679 194.142226 
L 185.846679 194.142226 
L 186.079073 190.544402 
L 186.079073 190.544402 
L 186.311467 193.888663 
L 186.311467 193.888663 
L 186.543862 186.67734 
L 186.543862 186.67734 
L 186.776256 191.840798 
L 186.776256 191.840798 
L 187.00865 180.226706 
L 187.00865 180.226706 
L 187.241044 186.378597 
L 187.241044 186.378597 
L 187.473438 187.728473 
L 187.473438 187.728473 
L 187.705832 178.388146 
L 187.705832 178.388146 
L 187.938226 180.113294 
L 187.938226 180.113294 
L 188.17062 168.371959 
L 188.17062 168.371959 
L 188.403014 170.074056 
L 188.403014 170.074056 
L 188.635408 167.954272 
L 188.635408 167.954272 
L 188.867802 158.251581 
L 188.867802 158.251581 
L 189.100197 157.195839 
L 189.100197 157.195839 
L 189.332591 146.718629 
L 189.332591 146.718629 
L 189.564985 148.282419 
L 189.564985 148.282419 
L 189.797379 148.008571 
L 189.797379 148.008571 
L 190.029773 143.30337 
L 190.029773 143.30337 
L 190.262167 146.485351 
L 190.262167 146.485351 
L 190.494561 143.051651 
L 190.494561 143.051651 
L 190.959349 155.401537 
L 190.959349 155.401537 
L 191.191743 157.306484 
L 191.191743 157.306484 
L 191.424137 164.908754 
L 191.424137 164.908754 
L 191.656532 166.164581 
L 191.656532 166.164581 
L 191.888926 175.339862 
L 191.888926 175.339862 
L 192.12132 175.089065 
L 192.12132 175.089065 
L 192.586108 190.799808 
L 192.586108 190.799808 
L 192.818502 191.169549 
L 193.050896 197.714232 
L 193.050896 197.714232 
L 193.28329 197.278104 
L 193.28329 197.278104 
L 193.748078 210.027236 
L 193.748078 210.027236 
L 193.980472 212.289937 
L 193.980472 212.289937 
L 194.212867 219.000588 
L 194.445261 222.402016 
L 194.445261 222.402016 
L 196.536807 292.95975 
L 196.536807 292.95975 
L 196.769202 295.488 
L 197.23399 278.0392 
L 197.23399 278.0392 
L 197.466384 273.169874 
L 197.466384 273.169874 
L 197.698778 265.540865 
L 197.698778 265.540865 
L 198.163566 258.326776 
L 198.163566 258.326776 
L 198.39596 251.287876 
L 198.39596 251.287876 
L 198.628354 248.39634 
L 198.628354 248.39634 
L 198.860748 240.019551 
L 198.860748 240.019551 
L 199.093142 239.304043 
L 199.093142 239.304043 
L 199.325537 236.544359 
L 199.325537 236.544359 
L 199.557931 227.831946 
L 199.557931 227.831946 
L 199.790325 225.593218 
L 199.790325 225.593218 
L 200.022719 220.734035 
L 200.022719 220.734035 
L 200.255113 210.692031 
L 200.255113 210.692031 
L 200.487507 206.541901 
L 200.487507 206.541901 
L 200.719901 193.303164 
L 200.952295 191.791008 
L 200.952295 191.791008 
L 201.184689 188.924367 
L 201.184689 188.924367 
L 201.417083 177.818321 
L 201.417083 177.818321 
L 201.649477 177.680937 
L 201.649477 177.680937 
L 201.881872 175.976995 
L 201.881872 175.976995 
L 202.114266 167.437005 
L 202.114266 167.437005 
L 202.34666 168.459554 
L 202.34666 168.459554 
L 202.579054 167.645387 
L 202.811448 161.94161 
L 202.811448 161.94161 
L 203.043842 160.155606 
L 203.043842 160.155606 
L 203.276236 155.550908 
L 203.276236 155.550908 
L 203.741024 138.230272 
L 203.741024 138.230272 
L 203.973418 114.175934 
L 203.973418 114.175934 
L 204.205812 111.864364 
L 204.205812 111.864364 
L 204.438207 106.226975 
L 204.438207 106.226975 
L 204.670601 87.851518 
L 204.670601 87.851518 
L 204.902995 88.062666 
L 204.902995 88.062666 
L 205.135389 71.582015 
L 205.135389 71.582015 
L 205.367783 77.934912 
L 205.367783 77.934912 
L 205.600177 65.625597 
L 205.600177 65.625597 
L 206.064965 83.870123 
L 206.064965 83.870123 
L 206.297359 81.071713 
L 206.297359 81.071713 
L 206.529753 92.0164 
L 206.529753 92.0164 
L 206.762147 88.851938 
L 206.762147 88.851938 
L 207.226936 114.376018 
L 207.226936 114.376018 
L 207.45933 117.438133 
L 207.45933 117.438133 
L 207.691724 131.877375 
L 207.924118 133.438399 
L 207.924118 133.438399 
L 208.388906 161.976648 
L 208.388906 161.976648 
L 208.6213 165.967263 
L 208.6213 165.967263 
L 208.853694 176.396526 
L 208.853694 176.396526 
L 209.086088 175.893089 
L 209.086088 175.893089 
L 209.550877 187.330149 
L 209.550877 187.330149 
L 209.783271 183.227966 
L 209.783271 183.227966 
L 210.015665 185.439032 
L 210.015665 185.439032 
L 210.248059 185.420592 
L 210.248059 185.420592 
L 210.480453 180.084711 
L 210.480453 180.084711 
L 210.945241 181.616229 
L 210.945241 181.616229 
L 211.177635 180.005415 
L 211.177635 180.005415 
L 211.874817 194.453877 
L 211.874817 194.453877 
L 214.198758 274.177671 
L 214.198758 274.177671 
L 214.895941 294.983641 
L 214.895941 294.983641 
L 215.128335 289.568464 
L 215.128335 289.568464 
L 216.057911 259.552176 
L 216.057911 259.552176 
L 216.290305 252.325178 
L 216.290305 252.325178 
L 216.522699 240.302619 
L 216.522699 240.302619 
L 216.755093 234.133209 
L 216.755093 234.133209 
L 216.987487 219.20436 
L 216.987487 219.20436 
L 217.219882 214.939897 
L 217.219882 214.939897 
L 217.452276 208.187754 
L 217.452276 208.187754 
L 217.68467 195.460751 
L 217.68467 195.460751 
L 217.917064 190.492767 
L 217.917064 190.492767 
L 218.149458 176.360567 
L 218.381852 174.360649 
L 218.614246 170.331307 
L 218.614246 170.331307 
L 218.84664 160.394416 
L 218.84664 160.394416 
L 219.079034 159.088799 
L 219.079034 159.088799 
L 219.311428 148.038999 
L 219.311428 148.038999 
L 219.543822 150.820812 
L 219.543822 150.820812 
L 219.776217 151.415532 
L 219.776217 151.415532 
L 220.008611 145.790128 
L 220.008611 145.790128 
L 220.241005 149.001615 
L 220.241005 149.001615 
L 220.473399 140.616528 
L 220.473399 140.616528 
L 220.705793 144.911418 
L 220.705793 144.911418 
L 220.938187 145.221226 
L 220.938187 145.221226 
L 221.170581 137.865142 
L 221.170581 137.865142 
L 221.402975 138.857264 
L 221.402975 138.857264 
L 221.635369 128.457506 
L 221.635369 128.457506 
L 221.867763 130.606795 
L 221.867763 130.606795 
L 222.100157 128.800507 
L 222.100157 128.800507 
L 222.332552 120.912403 
L 222.332552 120.912403 
L 222.564946 121.121707 
L 222.564946 121.121707 
L 222.79734 112.515329 
L 222.79734 112.515329 
L 223.029734 115.573756 
L 223.029734 115.573756 
L 223.262128 106.94617 
L 223.262128 106.94617 
L 223.726916 119.372586 
L 223.726916 119.372586 
L 223.95931 118.753893 
L 223.95931 118.753893 
L 224.191704 128.173516 
L 224.191704 128.173516 
L 224.424098 127.597237 
L 224.424098 127.597237 
L 224.888887 146.58401 
L 224.888887 146.58401 
L 225.121281 147.367749 
L 225.121281 147.367749 
L 225.353675 154.26281 
L 225.353675 154.26281 
L 225.586069 152.241685 
L 225.586069 152.241685 
L 225.818463 156.798437 
L 225.818463 156.798437 
L 226.050857 158.306904 
L 226.050857 158.306904 
L 226.283251 152.304384 
L 226.283251 152.304384 
L 226.515645 152.141182 
L 226.515645 152.141182 
L 226.748039 149.552076 
L 226.980433 141.70362 
L 226.980433 141.70362 
L 227.212827 141.148548 
L 227.212827 141.148548 
L 227.445222 132.899924 
L 227.445222 132.899924 
L 227.91001 139.854918 
L 227.91001 139.854918 
L 228.142404 138.165729 
L 228.142404 138.165729 
L 228.374798 144.710412 
L 228.374798 144.710412 
L 228.607192 142.94746 
L 228.607192 142.94746 
L 229.07198 158.588128 
L 229.07198 158.588128 
L 229.304374 158.594582 
L 229.304374 158.594582 
L 229.536768 165.409425 
L 229.536768 165.409425 
L 229.769162 162.821242 
L 229.769162 162.821242 
L 230.233951 173.343632 
L 230.233951 173.343632 
L 230.466345 171.299456 
L 230.466345 171.299456 
L 230.698739 175.777833 
L 230.698739 175.777833 
L 230.931133 172.925023 
L 230.931133 172.925023 
L 231.395921 183.625368 
L 231.395921 183.625368 
L 231.628315 184.674656 
L 231.628315 184.674656 
L 231.860709 191.329985 
L 231.860709 191.329985 
L 232.093103 193.62588 
L 232.093103 193.62588 
L 232.325497 202.464614 
L 232.325497 202.464614 
L 232.557892 206.19429 
L 232.557892 206.19429 
L 233.02268 223.834876 
L 233.02268 223.834876 
L 234.649438 260.351589 
L 234.649438 260.351589 
L 234.881832 262.961902 
L 234.881832 262.961902 
L 235.114227 266.96727 
L 235.114227 266.96727 
L 235.346621 269.032653 
L 235.346621 269.032653 
L 235.579015 272.837938 
L 235.579015 272.837938 
L 235.811409 274.622097 
L 235.811409 274.622097 
L 236.043803 278.27801 
L 236.276197 279.694272 
L 236.276197 279.694272 
L 236.508591 282.955549 
L 236.740985 283.991929 
L 236.740985 283.991929 
L 236.973379 286.737783 
L 236.973379 286.737783 
L 237.205773 287.530742 
L 237.205773 287.530742 
L 237.438168 295.488 
L 237.438168 295.488 
L 237.670562 290.303335 
L 237.670562 290.303335 
L 237.902956 292.008198 
L 237.902956 292.008198 
L 238.13535 292.145583 
L 238.13535 292.145583 
L 238.367744 293.398644 
L 238.367744 293.398644 
L 238.600138 293.316581 
L 238.600138 293.316581 
L 238.832532 294.246004 
L 238.832532 294.246004 
L 239.064926 294.189759 
L 239.064926 294.189759 
L 239.29732 294.921864 
L 239.29732 294.921864 
L 239.529714 294.825971 
L 239.529714 294.825971 
L 239.762108 295.382887 
L 239.762108 295.382887 
L 239.994503 295.488 
L 239.994503 295.488 
L 240.226897 295.376432 
L 240.226897 295.376432 
L 240.924079 291.189421 
L 240.924079 291.189421 
L 241.156473 295.488 
L 241.156473 295.488 
L 241.388867 288.663937 
L 241.388867 288.663937 
L 241.853655 285.353791 
L 241.853655 285.353791 
L 242.086049 284.595869 
L 242.086049 284.595869 
L 242.318443 282.672481 
L 242.318443 282.672481 
L 242.783232 281.234089 
L 242.783232 281.234089 
L 243.015626 279.453618 
L 243.015626 279.453618 
L 243.480414 278.050264 
L 243.480414 278.050264 
L 243.945202 275.111703 
L 243.945202 275.111703 
L 244.177596 273.996028 
L 244.177596 273.996028 
L 246.036749 255.306153 
L 246.036749 255.306153 
L 246.733931 246.321736 
L 246.733931 246.321736 
L 248.36069 228.399926 
L 248.36069 228.399926 
L 248.825478 225.876286 
L 248.825478 225.876286 
L 249.057872 225.212413 
L 249.057872 225.212413 
L 249.290266 224.968071 
L 249.290266 224.968071 
L 249.52266 223.722386 
L 249.52266 223.722386 
L 249.755054 223.573015 
L 249.755054 223.573015 
L 249.987448 223.744515 
L 249.987448 223.744515 
L 250.452237 224.847283 
L 250.452237 224.847283 
L 250.684631 224.322638 
L 250.684631 224.322638 
L 250.917025 224.974525 
L 250.917025 224.974525 
L 251.381813 227.180981 
L 251.381813 227.180981 
L 251.614207 227.334041 
L 251.614207 227.334041 
L 252.078995 229.531277 
L 252.078995 229.531277 
L 252.543783 232.282662 
L 252.543783 232.282662 
L 252.776178 232.517784 
L 252.776178 232.517784 
L 253.705754 237.12617 
L 253.705754 237.12617 
L 253.938148 237.200856 
L 253.938148 237.200856 
L 254.63533 240.367162 
L 254.63533 240.367162 
L 254.867724 241.706895 
L 255.100118 242.066493 
L 255.100118 242.066493 
L 255.797301 246.755098 
L 255.797301 246.755098 
L 256.029695 248.458117 
L 256.029695 248.458117 
L 256.262089 249.107237 
L 256.262089 249.107237 
L 257.191665 255.520068 
L 257.191665 255.520068 
L 257.424059 255.957118 
L 257.424059 255.957118 
L 258.353636 259.375143 
L 258.353636 259.375143 
L 258.58603 258.998026 
L 258.58603 258.998026 
L 259.283212 260.281514 
L 259.283212 260.281514 
L 259.515606 260.890064 
L 259.515606 260.890064 
L 259.748 260.530466 
L 259.748 260.530466 
L 260.212788 261.994676 
L 260.212788 261.994676 
L 260.677577 264.381853 
L 260.677577 264.381853 
L 260.909971 264.505407 
L 260.909971 264.505407 
L 261.839547 268.451764 
L 261.839547 268.451764 
L 262.071941 268.37339 
L 262.071941 268.37339 
L 262.536729 269.437432 
L 262.536729 269.437432 
L 263.001518 270.00449 
L 263.001518 270.00449 
L 263.233912 268.753273 
L 263.233912 268.753273 
L 263.6987 267.701219 
L 263.6987 267.701219 
L 264.163488 266.590153 
L 264.163488 266.590153 
L 264.395882 264.800462 
L 264.395882 264.800462 
L 264.86067 263.284618 
L 264.86067 263.284618 
L 265.093064 262.984953 
L 265.093064 262.984953 
L 265.325458 262.917644 
L 265.325458 262.917644 
L 265.557853 261.691322 
L 265.557853 261.691322 
L 265.790247 261.733737 
L 265.790247 261.733737 
L 266.022641 261.934743 
L 266.022641 261.934743 
L 266.255035 262.284198 
L 266.255035 262.284198 
L 266.487429 262.872463 
L 266.487429 262.872463 
L 266.719823 262.12284 
L 266.719823 262.12284 
L 267.417005 262.872463 
L 267.417005 262.872463 
L 267.649399 262.792245 
L 267.649399 262.792245 
L 268.114188 259.978161 
L 268.114188 259.978161 
L 268.81137 255.943287 
L 268.81137 255.943287 
L 269.276158 250.896007 
L 269.276158 250.896007 
L 270.670523 238.378309 
L 270.670523 238.378309 
L 271.367705 234.926168 
L 271.367705 234.926168 
L 271.600099 234.769421 
L 271.600099 234.769421 
L 271.832493 234.995322 
L 271.832493 234.995322 
L 272.064887 235.480318 
L 272.064887 235.480318 
L 272.297281 235.646286 
L 272.297281 235.646286 
L 272.762069 237.706137 
L 272.762069 237.706137 
L 273.691646 242.261967 
L 273.691646 242.261967 
L 274.156434 244.005556 
L 274.156434 244.005556 
L 274.388828 244.531123 
L 274.388828 244.531123 
L 274.621222 244.378063 
L 274.621222 244.378063 
L 274.853616 244.390972 
L 274.853616 244.390972 
L 275.08601 244.2416 
L 275.550798 243.536235 
L 275.550798 243.536235 
L 276.015587 242.373535 
L 276.015587 242.373535 
L 276.480375 241.711506 
L 276.480375 241.711506 
L 276.712769 241.676468 
L 276.712769 241.676468 
L 276.945163 242.095077 
L 276.945163 242.095077 
L 277.409951 244.0701 
L 277.409951 244.0701 
L 277.874739 246.923832 
L 277.874739 246.923832 
L 278.339528 250.546551 
L 278.339528 250.546551 
L 278.804316 252.967844 
L 278.804316 252.967844 
L 279.03671 253.695339 
L 279.03671 253.695339 
L 280.431074 269.160818 
L 280.431074 269.160818 
L 281.128257 289.286318 
L 281.128257 289.286318 
L 281.360651 294.594537 
L 281.360651 294.594537 
L 281.825439 275.922182 
L 281.825439 275.922182 
L 283.916986 197.914316 
L 283.916986 197.914316 
L 284.614168 171.225692 
L 284.614168 171.225692 
L 285.078956 154.106984 
L 285.078956 154.106984 
L 285.543744 144.22726 
L 285.543744 144.22726 
L 286.008533 150.07211 
L 286.008533 150.07211 
L 286.473321 162.747478 
L 286.473321 162.747478 
L 287.635291 255.072876 
L 287.635291 255.072876 
L 287.867685 278.354539 
L 287.867685 278.354539 
L 288.100079 287.586065 
L 288.100079 287.586065 
L 288.564868 249.817213 
L 288.564868 249.817213 
L 289.029656 230.44318 
L 289.029656 230.44318 
L 289.726838 218.061023 
L 289.726838 218.061023 
L 290.191626 213.180633 
L 290.191626 213.180633 
L 290.656414 204.592696 
L 290.656414 204.592696 
L 290.888808 201.522282 
L 290.888808 201.522282 
L 291.353597 192.887321 
L 291.353597 192.887321 
L 292.283173 181.394016 
L 292.283173 181.394016 
L 292.747961 179.2687 
L 292.747961 179.2687 
L 292.980355 179.892925 
L 292.980355 179.892925 
L 293.212749 181.58488 
L 293.212749 181.58488 
L 294.839508 201.005937 
L 294.839508 201.005937 
L 295.53669 206.052295 
L 295.53669 206.052295 
L 296.466267 218.882566 
L 296.466267 218.882566 
L 297.628237 247.722324 
L 297.628237 247.722324 
L 298.325419 270.703401 
L 298.325419 270.703401 
L 299.022602 292.365952 
L 299.022602 292.365952 
L 299.254996 292.801158 
L 299.254996 292.801158 
L 300.184572 273.904745 
L 300.184572 273.904745 
L 300.881754 266.086716 
L 300.881754 266.086716 
L 301.114149 265.422843 
L 301.114149 265.422843 
L 301.346543 264.400294 
L 301.346543 264.400294 
L 301.578937 264.692582 
L 301.578937 264.692582 
L 301.811331 265.893086 
L 301.811331 265.893086 
L 302.043725 266.360564 
L 302.043725 266.360564 
L 302.973301 271.956462 
L 302.973301 271.956462 
L 303.205695 273.997872 
L 303.205695 273.997872 
L 303.438089 274.328886 
L 303.438089 274.328886 
L 303.902878 277.424195 
L 303.902878 277.424195 
L 304.135272 277.468453 
L 304.135272 277.468453 
L 304.60006 281.262673 
L 304.60006 281.262673 
L 304.832454 281.289412 
L 304.832454 281.289412 
L 305.064848 283.48757 
L 305.064848 283.48757 
L 305.297242 284.313723 
L 305.297242 284.313723 
L 305.529636 295.488 
L 305.529636 295.488 
L 305.76203 289.815572 
L 305.76203 289.815572 
L 305.994424 290.802162 
L 305.994424 290.802162 
L 306.226819 294.154721 
L 306.226819 294.154721 
L 306.459213 295.100741 
L 306.459213 295.100741 
L 308.085971 268.532904 
L 308.085971 268.532904 
L 309.015548 247.389465 
L 309.015548 247.389465 
L 309.247942 246.098601 
L 309.247942 246.098601 
L 309.480336 240.231622 
L 309.480336 240.231622 
L 309.71273 239.763222 
L 309.71273 239.763222 
L 309.945124 235.30974 
L 309.945124 235.30974 
L 310.177518 236.345197 
L 310.177518 236.345197 
L 310.642306 233.102361 
L 310.642306 233.102361 
L 310.8747 240.028771 
L 310.8747 240.028771 
L 311.107094 240.547883 
L 311.107094 240.547883 
L 311.339489 247.985107 
L 311.339489 247.985107 
L 311.571883 250.083684 
L 311.571883 250.083684 
L 311.804277 257.292241 
L 311.804277 257.292241 
L 312.036671 259.618563 
L 312.036671 259.618563 
L 312.269065 265.586045 
L 312.269065 265.586045 
L 312.501459 267.740867 
L 312.501459 267.740867 
L 312.733853 272.434081 
L 312.733853 272.434081 
L 312.966247 274.378677 
L 312.966247 274.378677 
L 313.198641 274.043974 
L 313.198641 274.043974 
L 313.431035 279.025789 
L 313.431035 279.025789 
L 313.663429 278.518664 
L 313.663429 278.518664 
L 313.895824 282.431827 
L 313.895824 282.431827 
L 314.128218 282.003998 
L 314.128218 282.003998 
L 314.360612 285.446918 
L 314.593006 285.836021 
L 314.8254 289.136024 
L 314.8254 289.136024 
L 315.057794 295.488 
L 315.057794 295.488 
L 315.290188 290.57165 
L 315.290188 290.57165 
L 315.522582 295.288838 
L 315.522582 295.288838 
L 315.754976 294.502333 
L 315.754976 294.502333 
L 315.98737 289.933594 
L 315.98737 289.933594 
L 316.219764 288.819763 
L 316.219764 288.819763 
L 316.452159 285.072567 
L 316.452159 285.072567 
L 316.684553 283.811208 
L 316.684553 283.811208 
L 316.916947 281.005422 
L 316.916947 281.005422 
L 317.149341 279.962588 
L 317.149341 279.962588 
L 317.381735 279.923862 
L 317.381735 279.923862 
L 317.614129 277.244396 
L 317.614129 277.244396 
L 317.846523 277.103323 
L 317.846523 277.103323 
L 318.078917 275.133832 
L 318.078917 275.133832 
L 318.311311 274.814805 
L 318.311311 274.814805 
L 318.543705 273.424359 
L 318.543705 273.424359 
L 318.776099 272.908013 
L 318.776099 272.908013 
L 319.008494 272.712539 
L 319.008494 272.712539 
L 319.240888 271.039948 
L 319.240888 271.039948 
L 319.473282 270.438774 
L 319.473282 270.438774 
L 319.93807 268.496945 
L 319.93807 268.496945 
L 320.170464 267.821085 
L 320.170464 267.821085 
L 320.402858 266.635334 
L 320.402858 266.635334 
L 321.10004 265.233824 
L 321.10004 265.233824 
L 321.332434 265.350001 
L 321.332434 265.350001 
L 321.797223 266.216725 
L 321.797223 266.216725 
L 322.494405 270.033073 
L 322.494405 270.033073 
L 323.191587 274.312289 
L 323.191587 274.312289 
L 323.888769 277.274823 
L 323.888769 277.274823 
L 325.05074 279.969964 
L 325.05074 279.969964 
L 325.515528 282.03627 
L 325.515528 282.03627 
L 325.980316 284.107185 
L 325.980316 284.107185 
L 326.677499 286.841974 
L 326.677499 286.841974 
L 326.909893 287.261505 
L 326.909893 287.261505 
L 327.374681 285.512383 
L 327.374681 285.512383 
L 327.839469 282.082372 
L 327.839469 282.082372 
L 328.304257 276.450514 
L 328.304257 276.450514 
L 329.001439 265.988979 
L 329.001439 265.988979 
L 330.16341 247.609834 
L 330.16341 247.609834 
L 330.860592 243.152664 
L 330.860592 243.152664 
L 331.092986 242.820727 
L 331.32538 243.269764 
L 331.32538 243.269764 
L 332.022563 253.750661 
L 332.022563 253.750661 
L 332.487351 265.413623 
L 332.487351 265.413623 
L 333.184533 294.704261 
L 333.184533 294.704261 
L 334.578898 246.484016 
L 334.578898 246.484016 
L 335.043686 239.52349 
L 335.043686 239.52349 
L 335.508474 237.972609 
L 335.508474 237.972609 
L 335.740868 237.415693 
L 335.740868 237.415693 
L 335.973262 239.366742 
L 335.973262 239.366742 
L 336.205656 239.72173 
L 336.205656 239.72173 
L 336.43805 239.012677 
L 336.43805 239.012677 
L 336.670444 241.201614 
L 336.670444 241.201614 
L 336.902839 240.019551 
L 336.902839 240.019551 
L 337.135233 240.499937 
L 337.135233 240.499937 
L 337.367627 238.729609 
L 337.367627 238.729609 
L 337.600021 235.767996 
L 337.600021 235.767996 
L 337.832415 236.763806 
L 337.832415 236.763806 
L 338.064809 235.326336 
L 338.064809 235.326336 
L 338.297203 233.150308 
L 338.297203 233.150308 
L 338.529597 237.740253 
L 338.529597 237.740253 
L 338.761991 238.27043 
L 338.761991 238.27043 
L 339.226779 247.463229 
L 339.226779 247.463229 
L 339.459174 251.083182 
L 339.459174 251.083182 
L 339.923962 265.610018 
L 339.923962 265.610018 
L 340.156356 270.151095 
L 340.156356 270.151095 
L 340.38875 279.632495 
L 340.38875 279.632495 
L 340.621144 284.290672 
L 340.621144 284.290672 
L 340.853538 291.797049 
L 340.853538 291.797049 
L 341.085932 295.220607 
L 341.318326 293.164444 
L 341.318326 293.164444 
L 341.55072 287.262427 
L 341.55072 287.262427 
L 341.783114 286.033339 
L 341.783114 286.033339 
L 342.015509 282.417997 
L 342.015509 282.417997 
L 342.247903 281.885054 
L 342.247903 281.885054 
L 342.480297 282.737025 
L 342.480297 282.737025 
L 342.712691 279.611288 
L 342.712691 279.611288 
L 342.945085 280.095362 
L 342.945085 280.095362 
L 343.177479 277.984799 
L 343.177479 277.984799 
L 343.409873 278.107431 
L 343.409873 278.107431 
L 343.642267 279.059905 
L 343.642267 279.059905 
L 343.874661 276.184043 
L 343.874661 276.184043 
L 344.107055 276.444982 
L 344.107055 276.444982 
L 344.339449 274.289238 
L 344.339449 274.289238 
L 344.571844 273.928718 
L 344.571844 273.928718 
L 344.804238 274.378677 
L 344.804238 274.378677 
L 345.036632 271.512035 
L 345.036632 271.512035 
L 345.269026 271.236344 
L 345.269026 271.236344 
L 345.50142 271.778507 
L 345.50142 271.778507 
L 345.733814 268.687808 
L 345.733814 268.687808 
L 345.966208 269.086132 
L 345.966208 269.086132 
L 346.198602 267.064085 
L 346.198602 267.064085 
L 346.430996 267.224521 
L 346.430996 267.224521 
L 346.66339 268.269199 
L 346.66339 268.269199 
L 346.895784 266.591075 
L 347.128179 267.628377 
L 347.128179 267.628377 
L 347.360573 267.289986 
L 347.360573 267.289986 
L 347.592967 268.556878 
L 347.592967 268.556878 
L 347.825361 270.67574 
L 347.825361 270.67574 
L 348.057755 270.619495 
L 348.057755 270.619495 
L 348.290149 272.828717 
L 348.290149 272.828717 
L 348.522543 273.611534 
L 348.522543 273.611534 
L 349.916908 287.516912 
L 349.916908 287.516912 
L 350.149302 288.499813 
L 350.149302 288.499813 
L 350.381696 290.997636 
L 350.381696 290.997636 
L 350.61409 291.501073 
L 350.61409 291.501073 
L 351.078878 295.488 
L 351.078878 295.488 
L 351.311272 292.237788 
L 351.311272 292.237788 
L 351.543666 291.640302 
L 351.543666 291.640302 
L 352.008454 287.779695 
L 352.008454 287.779695 
L 352.473243 280.5988 
L 352.473243 280.5988 
L 352.938031 267.965846 
L 352.938031 267.965846 
L 353.402819 250.017297 
L 353.402819 250.017297 
L 354.100001 209.778283 
L 354.100001 209.778283 
L 354.332395 207.028742 
L 354.332395 207.028742 
L 354.564789 201.767547 
L 354.564789 201.767547 
L 354.797184 187.876922 
L 354.797184 187.876922 
L 355.029578 186.55102 
L 355.029578 186.55102 
L 355.261972 172.709264 
L 355.261972 172.709264 
L 355.494366 174.366181 
L 355.494366 174.366181 
L 355.72676 172.687135 
L 355.72676 172.687135 
L 355.959154 162.393412 
L 356.191548 161.872456 
L 356.191548 161.872456 
L 356.423942 149.649813 
L 356.423942 149.649813 
L 356.656336 150.510082 
L 356.656336 150.510082 
L 356.88873 148.334054 
L 356.88873 148.334054 
L 357.121124 137.908478 
L 357.121124 137.908478 
L 357.353519 137.156089 
L 357.353519 137.156089 
L 357.585913 124.977704 
L 357.585913 124.977704 
L 357.818307 126.670581 
L 357.818307 126.670581 
L 358.050701 126.165299 
L 358.050701 126.165299 
L 358.283095 117.456574 
L 358.283095 117.456574 
L 358.515489 120.047523 
L 358.515489 120.047523 
L 358.747883 120.30754 
L 358.747883 120.30754 
L 358.980277 115.293454 
L 358.980277 115.293454 
L 359.212671 117.806951 
L 359.212671 117.806951 
L 359.445065 110.946006 
L 359.445065 110.946006 
L 359.677459 116.461686 
L 359.677459 116.461686 
L 359.909854 119.155905 
L 359.909854 119.155905 
L 360.142248 115.593119 
L 360.142248 115.593119 
L 360.374642 119.305276 
L 360.374642 119.305276 
L 360.607036 112.666544 
L 360.607036 112.666544 
L 360.83943 116.761351 
L 360.83943 116.761351 
L 361.071824 117.13017 
L 361.071824 117.13017 
L 361.304218 110.430583 
L 361.304218 110.430583 
L 361.536612 110.839049 
L 361.536612 110.839049 
L 361.769006 100.742644 
L 361.769006 100.742644 
L 362.0014 102.512051 
L 362.0014 102.512051 
L 362.233794 101.382544 
L 362.233794 101.382544 
L 362.466189 94.177676 
L 362.466189 94.177676 
L 362.698583 95.333922 
L 362.698583 95.333922 
L 362.930977 87.474401 
L 362.930977 87.474401 
L 363.395765 94.826797 
L 363.395765 94.826797 
L 363.628159 93.472311 
L 363.628159 93.472311 
L 363.860553 101.402829 
L 363.860553 101.402829 
L 364.092947 101.373324 
L 364.092947 101.373324 
L 364.325341 114.123377 
L 364.325341 114.123377 
L 364.557735 113.93067 
L 364.557735 113.93067 
L 365.022524 143.77638 
L 365.022524 143.77638 
L 365.254918 148.593148 
L 365.254918 148.593148 
L 365.487312 163.940606 
L 365.487312 163.940606 
L 365.719706 167.632478 
L 365.719706 167.632478 
L 366.184494 192.203163 
L 366.184494 192.203163 
L 366.416888 196.273074 
L 366.416888 196.273074 
L 366.881676 211.386332 
L 366.881676 211.386332 
L 367.346465 220.983909 
L 367.346465 220.983909 
L 367.811253 230.685678 
L 367.811253 230.685678 
L 369.9028 277.087648 
L 369.9028 277.087648 
L 370.367588 282.931576 
L 370.367588 282.931576 
L 370.832376 285.459827 
L 370.832376 285.459827 
L 371.06477 285.432165 
L 371.06477 285.432165 
L 371.297164 284.769214 
L 371.297164 284.769214 
L 372.459135 276.480942 
L 372.459135 276.480942 
L 372.691529 276.764932 
L 372.691529 276.764932 
L 372.923923 274.833245 
L 372.923923 274.833245 
L 373.156317 276.579601 
L 373.156317 276.579601 
L 373.388711 275.55613 
L 373.388711 275.55613 
L 373.621105 279.070047 
L 373.621105 279.070047 
L 373.853499 278.986141 
L 373.853499 278.986141 
L 374.085893 283.669213 
L 374.085893 283.669213 
L 374.318287 284.273153 
L 374.318287 284.273153 
L 374.550681 289.948347 
L 374.550681 289.948347 
L 374.783075 290.775422 
L 374.783075 290.775422 
L 375.01547 294.73561 
L 375.01547 294.73561 
L 375.247864 295.01499 
L 375.247864 295.01499 
L 375.480258 291.355389 
L 375.480258 291.355389 
L 375.712652 293.990597 
L 375.712652 293.990597 
L 375.945046 292.755977 
L 375.945046 292.755977 
L 376.17744 293.327646 
L 376.17744 293.327646 
L 376.409834 292.366874 
L 376.409834 292.366874 
L 376.642228 285.544655 
L 376.874622 282.578433 
L 376.874622 282.578433 
L 377.107016 274.490244 
L 377.107016 274.490244 
L 377.33941 270.724608 
L 377.33941 270.724608 
L 377.571805 262.992329 
L 377.571805 262.992329 
L 377.804199 260.178245 
L 377.804199 260.178245 
L 378.036593 254.289136 
L 378.036593 254.289136 
L 378.268987 253.234316 
L 378.268987 253.234316 
L 378.501381 249.731463 
L 378.501381 249.731463 
L 378.733775 251.170777 
L 378.733775 251.170777 
L 378.966169 251.011263 
L 379.198563 249.697347 
L 379.198563 249.697347 
L 379.430957 259.613953 
L 379.430957 259.613953 
L 379.663351 261.761398 
L 379.663351 261.761398 
L 379.895745 275.385551 
L 380.12814 280.718666 
L 380.12814 280.718666 
L 380.360534 295.088754 
L 380.360534 295.088754 
L 380.592928 288.042478 
L 380.592928 288.042478 
L 380.825322 274.106673 
L 380.825322 274.106673 
L 381.057716 267.549081 
L 381.057716 267.549081 
L 381.29011 256.703975 
L 381.29011 256.703975 
L 381.522504 252.279076 
L 381.522504 252.279076 
L 381.754898 245.550906 
L 381.754898 245.550906 
L 381.987292 243.59248 
L 381.987292 243.59248 
L 382.219686 240.296165 
L 382.219686 240.296165 
L 382.45208 240.026927 
L 382.45208 240.026927 
L 382.684475 239.256097 
L 382.684475 239.256097 
L 382.916869 239.587111 
L 382.916869 239.587111 
L 383.149263 239.089207 
L 383.381657 240.451991 
L 383.381657 240.451991 
L 383.614051 240.059199 
L 383.614051 240.059199 
L 383.846445 242.428857 
L 383.846445 242.428857 
L 384.078839 243.201532 
L 384.078839 243.201532 
L 384.543627 248.23867 
L 384.543627 248.23867 
L 384.776021 250.381505 
L 384.776021 250.381505 
L 386.170386 277.010196 
L 386.170386 277.010196 
L 386.867568 294.102165 
L 386.867568 294.102165 
L 387.099962 291.248432 
L 387.099962 291.248432 
L 387.797145 276.497539 
L 387.797145 276.497539 
L 388.261933 270.011866 
L 388.261933 270.011866 
L 388.726721 266.513624 
L 388.726721 266.513624 
L 388.959115 265.913372 
L 388.959115 265.913372 
L 389.656297 270.647156 
L 389.656297 270.647156 
L 389.888691 273.232573 
L 390.35348 282.20777 
L 390.35348 282.20777 
L 390.585874 295.488 
L 390.585874 295.488 
L 390.818268 292.436949 
L 390.818268 292.436949 
L 391.050662 292.900739 
L 391.050662 292.900739 
L 391.980238 268.889736 
L 391.980238 268.889736 
L 392.67742 252.449654 
L 392.67742 252.449654 
L 393.606997 235.330947 
L 393.606997 235.330947 
L 394.304179 226.922808 
L 394.304179 226.922808 
L 394.768967 224.861113 
L 394.768967 224.861113 
L 395.001361 224.753234 
L 395.001361 224.753234 
L 395.233755 225.578465 
L 395.233755 225.578465 
L 395.46615 227.414259 
L 395.46615 227.414259 
L 395.930938 235.88694 
L 395.930938 235.88694 
L 396.395726 248.577061 
L 396.395726 248.577061 
L 397.092908 275.143975 
L 397.092908 275.143975 
L 397.557696 294.05053 
L 397.557696 294.05053 
L 397.79009 287.202494 
L 398.254879 251.390223 
L 398.254879 251.390223 
L 398.487273 206.260677 
L 398.487273 206.260677 
" clip-path="url(#pcece32ada4)" style="fill: none; stroke: #1f77b4; stroke-width: 1.5; stroke-linecap: square"/>
   </g>
   <g id="patch_3">
    <path d="M 57.6 307.584 
L 57.6 41.472 
" style="fill: none; stroke: #000000; stroke-width: 0.8; stroke-linejoin: miter; stroke-linecap: square"/>
   </g>
   <g id="patch_4">
    <path d="M 414.72 307.584 
L 414.72 41.472 
" style="fill: none; stroke: #000000; stroke-width: 0.8; stroke-linejoin: miter; stroke-linecap: square"/>
   </g>
   <g id="patch_5">
    <path d="M 57.6 307.584 
L 414.72 307.584 
" style="fill: none; stroke: #000000; stroke-width: 0.8; stroke-linejoin: miter; stroke-linecap: square"/>
   </g>
   <g id="patch_6">
    <path d="M 57.6 41.472 
L 414.72 41.472 
" style="fill: none; stroke: #000000; stroke-width: 0.8; stroke-linejoin: miter; stroke-linecap: square"/>
   </g>
   <g id="text_15">
    <!-- Tracking error vs Time -->
    <g transform="translate(169.584375 35.472) scale(0.12 -0.12)">
     <defs>
      <path id="DejaVuSans-76" d="M 191 3500 
L 800 3500 
L 1894 563 
L 2988 3500 
L 3597 3500 
L 2284 0 
L 1503 0 
L 191 3500 
z
" transform="scale(0.015625)"/>
     </defs>
     <use xlink:href="#DejaVuSans-54"/>
     <use xlink:href="#DejaVuSans-72" x="46.333984"/>
     <use xlink:href="#DejaVuSans-61" x="87.447266"/>
     <use xlink:href="#DejaVuSans-63" x="148.726562"/>
     <use xlink:href="#DejaVuSans-6b" x="203.707031"/>
     <use xlink:href="#DejaVuSans-69" x="261.617188"/>
     <use xlink:href="#DejaVuSans-6e" x="289.400391"/>
     <use xlink:href="#DejaVuSans-67" x="352.779297"/>
     <use xlink:href="#DejaVuSans-20" x="416.255859"/>
     <use xlink:href="#DejaVuSans-65" x="448.042969"/>
     <use xlink:href="#DejaVuSans-72" x="509.566406"/>
     <use xlink:href="#DejaVuSans-72" x="548.929688"/>
     <use xlink:href="#DejaVuSans-6f" x="587.792969"/>
     <use xlink:href="#DejaVuSans-72" x="648.974609"/>
     <use xlink:href="#DejaVuSans-20" x="690.087891"/>
     <use xlink:href="#DejaVuSans-76" x="721.875"/>
     <use xlink:href="#DejaVuSans-73" x="781.054688"/>
     <use xlink:href="#DejaVuSans-20" x="833.154297"/>
     <use xlink:href="#DejaVuSans-54" x="864.941406"/>
     <use xlink:href="#DejaVuSans-69" x="922.900391"/>
     <use xlink:href="#DejaVuSans-6d" x="950.683594"/>
     <use xlink:href="#DejaVuSans-65" x="1048.095703"/>
    </g>
   </g>
   <g id="legend_1">
    <g id="patch_7">
     <path d="M 311.00125 64.150125 
L 407.72 64.150125 
Q 409.72 64.150125 409.72 62.150125 
L 409.72 48.472 
Q 409.72 46.472 407.72 46.472 
L 311.00125 46.472 
Q 309.00125 46.472 309.00125 48.472 
L 309.00125 62.150125 
Q 309.00125 64.150125 311.00125 64.150125 
z
" style="fill: #ffffff; opacity: 0.8; stroke: #cccccc; stroke-linejoin: miter"/>
    </g>
    <g id="line2d_26">
     <path d="M 313.00125 54.570438 
L 323.00125 54.570438 
L 333.00125 54.570438 
" style="fill: none; stroke: #1f77b4; stroke-width: 1.5; stroke-linecap: square"/>
    </g>
    <g id="text_16">
     <!-- Actual speed -->
     <g transform="translate(341.00125 58.070438) scale(0.1 -0.1)">
      <defs>
       <path id="DejaVuSans-41" d="M 2188 4044 
L 1331 1722 
L 3047 1722 
L 2188 4044 
z
M 1831 4666 
L 2547 4666 
L 4325 0 
L 3669 0 
L 3244 1197 
L 1141 1197 
L 716 0 
L 50 0 
L 1831 4666 
z
" transform="scale(0.015625)"/>
       <path id="DejaVuSans-74" d="M 1172 4494 
L 1172 3500 
L 2356 3500 
L 2356 3053 
L 1172 3053 
L 1172 1153 
Q 1172 725 1289 603 
Q 1406 481 1766 481 
L 2356 481 
L 2356 0 
L 1766 0 
Q 1100 0 847 248 
Q 594 497 594 1153 
L 594 3053 
L 172 3053 
L 172 3500 
L 594 3500 
L 594 4494 
L 1172 4494 
z
" transform="scale(0.015625)"/>
       <path id="DejaVuSans-75" d="M 544 1381 
L 544 3500 
L 1119 3500 
L 1119 1403 
Q 1119 906 1312 657 
Q 1506 409 1894 409 
Q 2359 409 2629 706 
Q 2900 1003 2900 1516 
L 2900 3500 
L 3475 3500 
L 3475 0 
L 2900 0 
L 2900 538 
Q 2691 219 2414 64 
Q 2138 -91 1772 -91 
Q 1169 -91 856 284 
Q 544 659 544 1381 
z
M 1991 3584 
L 1991 3584 
z
" transform="scale(0.015625)"/>
       <path id="DejaVuSans-6c" d="M 603 4863 
L 1178 4863 
L 1178 0 
L 603 0 
L 603 4863 
z
" transform="scale(0.015625)"/>
       <path id="DejaVuSans-70" d="M 1159 525 
L 1159 -1331 
L 581 -1331 
L 581 3500 
L 1159 3500 
L 1159 2969 
Q 1341 3281 1617 3432 
Q 1894 3584 2278 3584 
Q 2916 3584 3314 3078 
Q 3713 2572 3713 1747 
Q 3713 922 3314 415 
Q 2916 -91 2278 -91 
Q 1894 -91 1617 61 
Q 1341 213 1159 525 
z
M 3116 1747 
Q 3116 2381 2855 2742 
Q 2594 3103 2138 3103 
Q 1681 3103 1420 2742 
Q 1159 2381 1159 1747 
Q 1159 1113 1420 752 
Q 1681 391 2138 391 
Q 2594 391 2855 752 
Q 3116 1113 3116 1747 
z
" transform="scale(0.015625)"/>
       <path id="DejaVuSans-64" d="M 2906 2969 
L 2906 4863 
L 3481 4863 
L 3481 0 
L 2906 0 
L 2906 525 
Q 2725 213 2448 61 
Q 2172 -91 1784 -91 
Q 1150 -91 751 415 
Q 353 922 353 1747 
Q 353 2572 751 3078 
Q 1150 3584 1784 3584 
Q 2172 3584 2448 3432 
Q 2725 3281 2906 2969 
z
M 947 1747 
Q 947 1113 1208 752 
Q 1469 391 1925 391 
Q 2381 391 2643 752 
Q 2906 1113 2906 1747 
Q 2906 2381 2643 2742 
Q 2381 3103 1925 3103 
Q 1469 3103 1208 2742 
Q 947 2381 947 1747 
z
" transform="scale(0.015625)"/>
      </defs>
      <use xlink:href="#DejaVuSans-41"/>
      <use xlink:href="#DejaVuSans-63" x="66.658203"/>
      <use xlink:href="#DejaVuSans-74" x="121.638672"/>
      <use xlink:href="#DejaVuSans-75" x="160.847656"/>
      <use xlink:href="#DejaVuSans-61" x="224.226562"/>
      <use xlink:href="#DejaVuSans-6c" x="285.505859"/>
      <use xlink:href="#DejaVuSans-20" x="313.289062"/>
      <use xlink:href="#DejaVuSans-73" x="345.076172"/>
      <use xlink:href="#DejaVuSans-70" x="397.175781"/>
      <use xlink:href="#DejaVuSans-65" x="460.652344"/>
      <use xlink:href="#DejaVuSans-65" x="522.175781"/>
      <use xlink:href="#DejaVuSans-64" x="583.699219"/>
     </g>
    </g>
   </g>
  </g>
 </g>
 <defs>
  <clipPath id="pcece32ada4">
   <rect x="57.6" y="41.472" width="357.12" height="266.112"/>
  </clipPath>
 </defs>
</svg>
