<?xml version="1.0" encoding="utf-8" standalone="no"?>
<!DOCTYPE svg PUBLIC "-//W3C//DTD SVG 1.1//EN"
  "http://www.w3.org/Graphics/SVG/1.1/DTD/svg11.dtd">
<svg xmlns:xlink="http://www.w3.org/1999/xlink" width="460.8pt" height="345.6pt" viewBox="0 0 460.8 345.6" xmlns="http://www.w3.org/2000/svg" version="1.1">
 <metadata>
  <rdf:RDF xmlns:dc="http://purl.org/dc/elements/1.1/" xmlns:cc="http://creativecommons.org/ns#" xmlns:rdf="http://www.w3.org/1999/02/22-rdf-syntax-ns#">
   <cc:Work>
    <dc:type rdf:resource="http://purl.org/dc/dcmitype/StillImage"/>
    <dc:date>2024-01-30T20:59:25.101151</dc:date>
    <dc:format>image/svg+xml</dc:format>
    <dc:creator>
     <cc:Agent>
      <dc:title>Matplotlib v3.7.1, https://matplotlib.org/</dc:title>
     </cc:Agent>
    </dc:creator>
   </cc:Work>
  </rdf:RDF>
 </metadata>
 <defs>
  <style type="text/css">*{stroke-linejoin: round; stroke-linecap: butt}</style>
 </defs>
 <g id="figure_1">
  <g id="patch_1">
   <path d="M 0 345.6 
L 460.8 345.6 
L 460.8 0 
L 0 0 
z
" style="fill: #ffffff"/>
  </g>
  <g id="axes_1">
   <g id="patch_2">
    <path d="M 57.6 307.584 
L 414.72 307.584 
L 414.72 41.472 
L 57.6 41.472 
z
" style="fill: #ffffff"/>
   </g>
   <g id="matplotlib.axis_1">
    <g id="xtick_1">
     <g id="line2d_1">
      <path d="M 73.832727 307.584 
L 73.832727 41.472 
" clip-path="url(#p5fca20b49f)" style="fill: none; stroke: #b0b0b0; stroke-width: 0.8; stroke-linecap: square"/>
     </g>
     <g id="line2d_2">
      <defs>
       <path id="m47ad02ab24" d="M 0 0 
L 0 3.5 
" style="stroke: #000000; stroke-width: 0.8"/>
      </defs>
      <g>
       <use xlink:href="#m47ad02ab24" x="73.832727" y="307.584" style="stroke: #000000; stroke-width: 0.8"/>
      </g>
     </g>
     <g id="text_1">
      <!-- 0 -->
      <g transform="translate(70.651477 322.182437) scale(0.1 -0.1)">
       <defs>
        <path id="DejaVuSans-30" d="M 2034 4250 
Q 1547 4250 1301 3770 
Q 1056 3291 1056 2328 
Q 1056 1369 1301 889 
Q 1547 409 2034 409 
Q 2525 409 2770 889 
Q 3016 1369 3016 2328 
Q 3016 3291 2770 3770 
Q 2525 4250 2034 4250 
z
M 2034 4750 
Q 2819 4750 3233 4129 
Q 3647 3509 3647 2328 
Q 3647 1150 3233 529 
Q 2819 -91 2034 -91 
Q 1250 -91 836 529 
Q 422 1150 422 2328 
Q 422 3509 836 4129 
Q 1250 4750 2034 4750 
z
" transform="scale(0.015625)"/>
       </defs>
       <use xlink:href="#DejaVuSans-30"/>
      </g>
     </g>
    </g>
    <g id="xtick_2">
     <g id="line2d_3">
      <path d="M 131.93125 307.584 
L 131.93125 41.472 
" clip-path="url(#p5fca20b49f)" style="fill: none; stroke: #b0b0b0; stroke-width: 0.8; stroke-linecap: square"/>
     </g>
     <g id="line2d_4">
      <g>
       <use xlink:href="#m47ad02ab24" x="131.93125" y="307.584" style="stroke: #000000; stroke-width: 0.8"/>
      </g>
     </g>
     <g id="text_2">
      <!-- 5 -->
      <g transform="translate(128.75 322.182437) scale(0.1 -0.1)">
       <defs>
        <path id="DejaVuSans-35" d="M 691 4666 
L 3169 4666 
L 3169 4134 
L 1269 4134 
L 1269 2991 
Q 1406 3038 1543 3061 
Q 1681 3084 1819 3084 
Q 2600 3084 3056 2656 
Q 3513 2228 3513 1497 
Q 3513 744 3044 326 
Q 2575 -91 1722 -91 
Q 1428 -91 1123 -41 
Q 819 9 494 109 
L 494 744 
Q 775 591 1075 516 
Q 1375 441 1709 441 
Q 2250 441 2565 725 
Q 2881 1009 2881 1497 
Q 2881 1984 2565 2268 
Q 2250 2553 1709 2553 
Q 1456 2553 1204 2497 
Q 953 2441 691 2322 
L 691 4666 
z
" transform="scale(0.015625)"/>
       </defs>
       <use xlink:href="#DejaVuSans-35"/>
      </g>
     </g>
    </g>
    <g id="xtick_3">
     <g id="line2d_5">
      <path d="M 190.029773 307.584 
L 190.029773 41.472 
" clip-path="url(#p5fca20b49f)" style="fill: none; stroke: #b0b0b0; stroke-width: 0.8; stroke-linecap: square"/>
     </g>
     <g id="line2d_6">
      <g>
       <use xlink:href="#m47ad02ab24" x="190.029773" y="307.584" style="stroke: #000000; stroke-width: 0.8"/>
      </g>
     </g>
     <g id="text_3">
      <!-- 10 -->
      <g transform="translate(183.667273 322.182437) scale(0.1 -0.1)">
       <defs>
        <path id="DejaVuSans-31" d="M 794 531 
L 1825 531 
L 1825 4091 
L 703 3866 
L 703 4441 
L 1819 4666 
L 2450 4666 
L 2450 531 
L 3481 531 
L 3481 0 
L 794 0 
L 794 531 
z
" transform="scale(0.015625)"/>
       </defs>
       <use xlink:href="#DejaVuSans-31"/>
       <use xlink:href="#DejaVuSans-30" x="63.623047"/>
      </g>
     </g>
    </g>
    <g id="xtick_4">
     <g id="line2d_7">
      <path d="M 248.128296 307.584 
L 248.128296 41.472 
" clip-path="url(#p5fca20b49f)" style="fill: none; stroke: #b0b0b0; stroke-width: 0.8; stroke-linecap: square"/>
     </g>
     <g id="line2d_8">
      <g>
       <use xlink:href="#m47ad02ab24" x="248.128296" y="307.584" style="stroke: #000000; stroke-width: 0.8"/>
      </g>
     </g>
     <g id="text_4">
      <!-- 15 -->
      <g transform="translate(241.765796 322.182437) scale(0.1 -0.1)">
       <use xlink:href="#DejaVuSans-31"/>
       <use xlink:href="#DejaVuSans-35" x="63.623047"/>
      </g>
     </g>
    </g>
    <g id="xtick_5">
     <g id="line2d_9">
      <path d="M 306.226819 307.584 
L 306.226819 41.472 
" clip-path="url(#p5fca20b49f)" style="fill: none; stroke: #b0b0b0; stroke-width: 0.8; stroke-linecap: square"/>
     </g>
     <g id="line2d_10">
      <g>
       <use xlink:href="#m47ad02ab24" x="306.226819" y="307.584" style="stroke: #000000; stroke-width: 0.8"/>
      </g>
     </g>
     <g id="text_5">
      <!-- 20 -->
      <g transform="translate(299.864319 322.182437) scale(0.1 -0.1)">
       <defs>
        <path id="DejaVuSans-32" d="M 1228 531 
L 3431 531 
L 3431 0 
L 469 0 
L 469 531 
Q 828 903 1448 1529 
Q 2069 2156 2228 2338 
Q 2531 2678 2651 2914 
Q 2772 3150 2772 3378 
Q 2772 3750 2511 3984 
Q 2250 4219 1831 4219 
Q 1534 4219 1204 4116 
Q 875 4013 500 3803 
L 500 4441 
Q 881 4594 1212 4672 
Q 1544 4750 1819 4750 
Q 2544 4750 2975 4387 
Q 3406 4025 3406 3419 
Q 3406 3131 3298 2873 
Q 3191 2616 2906 2266 
Q 2828 2175 2409 1742 
Q 1991 1309 1228 531 
z
" transform="scale(0.015625)"/>
       </defs>
       <use xlink:href="#DejaVuSans-32"/>
       <use xlink:href="#DejaVuSans-30" x="63.623047"/>
      </g>
     </g>
    </g>
    <g id="xtick_6">
     <g id="line2d_11">
      <path d="M 364.325341 307.584 
L 364.325341 41.472 
" clip-path="url(#p5fca20b49f)" style="fill: none; stroke: #b0b0b0; stroke-width: 0.8; stroke-linecap: square"/>
     </g>
     <g id="line2d_12">
      <g>
       <use xlink:href="#m47ad02ab24" x="364.325341" y="307.584" style="stroke: #000000; stroke-width: 0.8"/>
      </g>
     </g>
     <g id="text_6">
      <!-- 25 -->
      <g transform="translate(357.962841 322.182437) scale(0.1 -0.1)">
       <use xlink:href="#DejaVuSans-32"/>
       <use xlink:href="#DejaVuSans-35" x="63.623047"/>
      </g>
     </g>
    </g>
    <g id="text_7">
     <!-- Time(s) -->
     <g transform="translate(217.420156 335.860562) scale(0.1 -0.1)">
      <defs>
       <path id="DejaVuSans-54" d="M -19 4666 
L 3928 4666 
L 3928 4134 
L 2272 4134 
L 2272 0 
L 1638 0 
L 1638 4134 
L -19 4134 
L -19 4666 
z
" transform="scale(0.015625)"/>
       <path id="DejaVuSans-69" d="M 603 3500 
L 1178 3500 
L 1178 0 
L 603 0 
L 603 3500 
z
M 603 4863 
L 1178 4863 
L 1178 4134 
L 603 4134 
L 603 4863 
z
" transform="scale(0.015625)"/>
       <path id="DejaVuSans-6d" d="M 3328 2828 
Q 3544 3216 3844 3400 
Q 4144 3584 4550 3584 
Q 5097 3584 5394 3201 
Q 5691 2819 5691 2113 
L 5691 0 
L 5113 0 
L 5113 2094 
Q 5113 2597 4934 2840 
Q 4756 3084 4391 3084 
Q 3944 3084 3684 2787 
Q 3425 2491 3425 1978 
L 3425 0 
L 2847 0 
L 2847 2094 
Q 2847 2600 2669 2842 
Q 2491 3084 2119 3084 
Q 1678 3084 1418 2786 
Q 1159 2488 1159 1978 
L 1159 0 
L 581 0 
L 581 3500 
L 1159 3500 
L 1159 2956 
Q 1356 3278 1631 3431 
Q 1906 3584 2284 3584 
Q 2666 3584 2933 3390 
Q 3200 3197 3328 2828 
z
" transform="scale(0.015625)"/>
       <path id="DejaVuSans-65" d="M 3597 1894 
L 3597 1613 
L 953 1613 
Q 991 1019 1311 708 
Q 1631 397 2203 397 
Q 2534 397 2845 478 
Q 3156 559 3463 722 
L 3463 178 
Q 3153 47 2828 -22 
Q 2503 -91 2169 -91 
Q 1331 -91 842 396 
Q 353 884 353 1716 
Q 353 2575 817 3079 
Q 1281 3584 2069 3584 
Q 2775 3584 3186 3129 
Q 3597 2675 3597 1894 
z
M 3022 2063 
Q 3016 2534 2758 2815 
Q 2500 3097 2075 3097 
Q 1594 3097 1305 2825 
Q 1016 2553 972 2059 
L 3022 2063 
z
" transform="scale(0.015625)"/>
       <path id="DejaVuSans-28" d="M 1984 4856 
Q 1566 4138 1362 3434 
Q 1159 2731 1159 2009 
Q 1159 1288 1364 580 
Q 1569 -128 1984 -844 
L 1484 -844 
Q 1016 -109 783 600 
Q 550 1309 550 2009 
Q 550 2706 781 3412 
Q 1013 4119 1484 4856 
L 1984 4856 
z
" transform="scale(0.015625)"/>
       <path id="DejaVuSans-73" d="M 2834 3397 
L 2834 2853 
Q 2591 2978 2328 3040 
Q 2066 3103 1784 3103 
Q 1356 3103 1142 2972 
Q 928 2841 928 2578 
Q 928 2378 1081 2264 
Q 1234 2150 1697 2047 
L 1894 2003 
Q 2506 1872 2764 1633 
Q 3022 1394 3022 966 
Q 3022 478 2636 193 
Q 2250 -91 1575 -91 
Q 1294 -91 989 -36 
Q 684 19 347 128 
L 347 722 
Q 666 556 975 473 
Q 1284 391 1588 391 
Q 1994 391 2212 530 
Q 2431 669 2431 922 
Q 2431 1156 2273 1281 
Q 2116 1406 1581 1522 
L 1381 1569 
Q 847 1681 609 1914 
Q 372 2147 372 2553 
Q 372 3047 722 3315 
Q 1072 3584 1716 3584 
Q 2034 3584 2315 3537 
Q 2597 3491 2834 3397 
z
" transform="scale(0.015625)"/>
       <path id="DejaVuSans-29" d="M 513 4856 
L 1013 4856 
Q 1481 4119 1714 3412 
Q 1947 2706 1947 2009 
Q 1947 1309 1714 600 
Q 1481 -109 1013 -844 
L 513 -844 
Q 928 -128 1133 580 
Q 1338 1288 1338 2009 
Q 1338 2731 1133 3434 
Q 928 4138 513 4856 
z
" transform="scale(0.015625)"/>
      </defs>
      <use xlink:href="#DejaVuSans-54"/>
      <use xlink:href="#DejaVuSans-69" x="57.958984"/>
      <use xlink:href="#DejaVuSans-6d" x="85.742188"/>
      <use xlink:href="#DejaVuSans-65" x="183.154297"/>
      <use xlink:href="#DejaVuSans-28" x="244.677734"/>
      <use xlink:href="#DejaVuSans-73" x="283.691406"/>
      <use xlink:href="#DejaVuSans-29" x="335.791016"/>
     </g>
    </g>
   </g>
   <g id="matplotlib.axis_2">
    <g id="ytick_1">
     <g id="line2d_13">
      <path d="M 57.6 295.488 
L 414.72 295.488 
" clip-path="url(#p5fca20b49f)" style="fill: none; stroke: #b0b0b0; stroke-width: 0.8; stroke-linecap: square"/>
     </g>
     <g id="line2d_14">
      <defs>
       <path id="m6319e13b56" d="M 0 0 
L -3.5 0 
" style="stroke: #000000; stroke-width: 0.8"/>
      </defs>
      <g>
       <use xlink:href="#m6319e13b56" x="57.6" y="295.488" style="stroke: #000000; stroke-width: 0.8"/>
      </g>
     </g>
     <g id="text_8">
      <!-- 0.00 -->
      <g transform="translate(28.334375 299.287219) scale(0.1 -0.1)">
       <defs>
        <path id="DejaVuSans-2e" d="M 684 794 
L 1344 794 
L 1344 0 
L 684 0 
L 684 794 
z
" transform="scale(0.015625)"/>
       </defs>
       <use xlink:href="#DejaVuSans-30"/>
       <use xlink:href="#DejaVuSans-2e" x="63.623047"/>
       <use xlink:href="#DejaVuSans-30" x="95.410156"/>
       <use xlink:href="#DejaVuSans-30" x="159.033203"/>
      </g>
     </g>
    </g>
    <g id="ytick_2">
     <g id="line2d_15">
      <path d="M 57.6 249.643423 
L 414.72 249.643423 
" clip-path="url(#p5fca20b49f)" style="fill: none; stroke: #b0b0b0; stroke-width: 0.8; stroke-linecap: square"/>
     </g>
     <g id="line2d_16">
      <g>
       <use xlink:href="#m6319e13b56" x="57.6" y="249.643423" style="stroke: #000000; stroke-width: 0.8"/>
      </g>
     </g>
     <g id="text_9">
      <!-- 0.05 -->
      <g transform="translate(28.334375 253.442642) scale(0.1 -0.1)">
       <use xlink:href="#DejaVuSans-30"/>
       <use xlink:href="#DejaVuSans-2e" x="63.623047"/>
       <use xlink:href="#DejaVuSans-30" x="95.410156"/>
       <use xlink:href="#DejaVuSans-35" x="159.033203"/>
      </g>
     </g>
    </g>
    <g id="ytick_3">
     <g id="line2d_17">
      <path d="M 57.6 203.798846 
L 414.72 203.798846 
" clip-path="url(#p5fca20b49f)" style="fill: none; stroke: #b0b0b0; stroke-width: 0.8; stroke-linecap: square"/>
     </g>
     <g id="line2d_18">
      <g>
       <use xlink:href="#m6319e13b56" x="57.6" y="203.798846" style="stroke: #000000; stroke-width: 0.8"/>
      </g>
     </g>
     <g id="text_10">
      <!-- 0.10 -->
      <g transform="translate(28.334375 207.598064) scale(0.1 -0.1)">
       <use xlink:href="#DejaVuSans-30"/>
       <use xlink:href="#DejaVuSans-2e" x="63.623047"/>
       <use xlink:href="#DejaVuSans-31" x="95.410156"/>
       <use xlink:href="#DejaVuSans-30" x="159.033203"/>
      </g>
     </g>
    </g>
    <g id="ytick_4">
     <g id="line2d_19">
      <path d="M 57.6 157.954268 
L 414.72 157.954268 
" clip-path="url(#p5fca20b49f)" style="fill: none; stroke: #b0b0b0; stroke-width: 0.8; stroke-linecap: square"/>
     </g>
     <g id="line2d_20">
      <g>
       <use xlink:href="#m6319e13b56" x="57.6" y="157.954268" style="stroke: #000000; stroke-width: 0.8"/>
      </g>
     </g>
     <g id="text_11">
      <!-- 0.15 -->
      <g transform="translate(28.334375 161.753487) scale(0.1 -0.1)">
       <use xlink:href="#DejaVuSans-30"/>
       <use xlink:href="#DejaVuSans-2e" x="63.623047"/>
       <use xlink:href="#DejaVuSans-31" x="95.410156"/>
       <use xlink:href="#DejaVuSans-35" x="159.033203"/>
      </g>
     </g>
    </g>
    <g id="ytick_5">
     <g id="line2d_21">
      <path d="M 57.6 112.109691 
L 414.72 112.109691 
" clip-path="url(#p5fca20b49f)" style="fill: none; stroke: #b0b0b0; stroke-width: 0.8; stroke-linecap: square"/>
     </g>
     <g id="line2d_22">
      <g>
       <use xlink:href="#m6319e13b56" x="57.6" y="112.109691" style="stroke: #000000; stroke-width: 0.8"/>
      </g>
     </g>
     <g id="text_12">
      <!-- 0.20 -->
      <g transform="translate(28.334375 115.90891) scale(0.1 -0.1)">
       <use xlink:href="#DejaVuSans-30"/>
       <use xlink:href="#DejaVuSans-2e" x="63.623047"/>
       <use xlink:href="#DejaVuSans-32" x="95.410156"/>
       <use xlink:href="#DejaVuSans-30" x="159.033203"/>
      </g>
     </g>
    </g>
    <g id="ytick_6">
     <g id="line2d_23">
      <path d="M 57.6 66.265114 
L 414.72 66.265114 
" clip-path="url(#p5fca20b49f)" style="fill: none; stroke: #b0b0b0; stroke-width: 0.8; stroke-linecap: square"/>
     </g>
     <g id="line2d_24">
      <g>
       <use xlink:href="#m6319e13b56" x="57.6" y="66.265114" style="stroke: #000000; stroke-width: 0.8"/>
      </g>
     </g>
     <g id="text_13">
      <!-- 0.25 -->
      <g transform="translate(28.334375 70.064333) scale(0.1 -0.1)">
       <use xlink:href="#DejaVuSans-30"/>
       <use xlink:href="#DejaVuSans-2e" x="63.623047"/>
       <use xlink:href="#DejaVuSans-32" x="95.410156"/>
       <use xlink:href="#DejaVuSans-35" x="159.033203"/>
      </g>
     </g>
    </g>
    <g id="text_14">
     <!-- Tracking error(m) -->
     <g transform="translate(22.254687 217.803781) rotate(-90) scale(0.1 -0.1)">
      <defs>
       <path id="DejaVuSans-72" d="M 2631 2963 
Q 2534 3019 2420 3045 
Q 2306 3072 2169 3072 
Q 1681 3072 1420 2755 
Q 1159 2438 1159 1844 
L 1159 0 
L 581 0 
L 581 3500 
L 1159 3500 
L 1159 2956 
Q 1341 3275 1631 3429 
Q 1922 3584 2338 3584 
Q 2397 3584 2469 3576 
Q 2541 3569 2628 3553 
L 2631 2963 
z
" transform="scale(0.015625)"/>
       <path id="DejaVuSans-61" d="M 2194 1759 
Q 1497 1759 1228 1600 
Q 959 1441 959 1056 
Q 959 750 1161 570 
Q 1363 391 1709 391 
Q 2188 391 2477 730 
Q 2766 1069 2766 1631 
L 2766 1759 
L 2194 1759 
z
M 3341 1997 
L 3341 0 
L 2766 0 
L 2766 531 
Q 2569 213 2275 61 
Q 1981 -91 1556 -91 
Q 1019 -91 701 211 
Q 384 513 384 1019 
Q 384 1609 779 1909 
Q 1175 2209 1959 2209 
L 2766 2209 
L 2766 2266 
Q 2766 2663 2505 2880 
Q 2244 3097 1772 3097 
Q 1472 3097 1187 3025 
Q 903 2953 641 2809 
L 641 3341 
Q 956 3463 1253 3523 
Q 1550 3584 1831 3584 
Q 2591 3584 2966 3190 
Q 3341 2797 3341 1997 
z
" transform="scale(0.015625)"/>
       <path id="DejaVuSans-63" d="M 3122 3366 
L 3122 2828 
Q 2878 2963 2633 3030 
Q 2388 3097 2138 3097 
Q 1578 3097 1268 2742 
Q 959 2388 959 1747 
Q 959 1106 1268 751 
Q 1578 397 2138 397 
Q 2388 397 2633 464 
Q 2878 531 3122 666 
L 3122 134 
Q 2881 22 2623 -34 
Q 2366 -91 2075 -91 
Q 1284 -91 818 406 
Q 353 903 353 1747 
Q 353 2603 823 3093 
Q 1294 3584 2113 3584 
Q 2378 3584 2631 3529 
Q 2884 3475 3122 3366 
z
" transform="scale(0.015625)"/>
       <path id="DejaVuSans-6b" d="M 581 4863 
L 1159 4863 
L 1159 1991 
L 2875 3500 
L 3609 3500 
L 1753 1863 
L 3688 0 
L 2938 0 
L 1159 1709 
L 1159 0 
L 581 0 
L 581 4863 
z
" transform="scale(0.015625)"/>
       <path id="DejaVuSans-6e" d="M 3513 2113 
L 3513 0 
L 2938 0 
L 2938 2094 
Q 2938 2591 2744 2837 
Q 2550 3084 2163 3084 
Q 1697 3084 1428 2787 
Q 1159 2491 1159 1978 
L 1159 0 
L 581 0 
L 581 3500 
L 1159 3500 
L 1159 2956 
Q 1366 3272 1645 3428 
Q 1925 3584 2291 3584 
Q 2894 3584 3203 3211 
Q 3513 2838 3513 2113 
z
" transform="scale(0.015625)"/>
       <path id="DejaVuSans-67" d="M 2906 1791 
Q 2906 2416 2648 2759 
Q 2391 3103 1925 3103 
Q 1463 3103 1205 2759 
Q 947 2416 947 1791 
Q 947 1169 1205 825 
Q 1463 481 1925 481 
Q 2391 481 2648 825 
Q 2906 1169 2906 1791 
z
M 3481 434 
Q 3481 -459 3084 -895 
Q 2688 -1331 1869 -1331 
Q 1566 -1331 1297 -1286 
Q 1028 -1241 775 -1147 
L 775 -588 
Q 1028 -725 1275 -790 
Q 1522 -856 1778 -856 
Q 2344 -856 2625 -561 
Q 2906 -266 2906 331 
L 2906 616 
Q 2728 306 2450 153 
Q 2172 0 1784 0 
Q 1141 0 747 490 
Q 353 981 353 1791 
Q 353 2603 747 3093 
Q 1141 3584 1784 3584 
Q 2172 3584 2450 3431 
Q 2728 3278 2906 2969 
L 2906 3500 
L 3481 3500 
L 3481 434 
z
" transform="scale(0.015625)"/>
       <path id="DejaVuSans-20" transform="scale(0.015625)"/>
       <path id="DejaVuSans-6f" d="M 1959 3097 
Q 1497 3097 1228 2736 
Q 959 2375 959 1747 
Q 959 1119 1226 758 
Q 1494 397 1959 397 
Q 2419 397 2687 759 
Q 2956 1122 2956 1747 
Q 2956 2369 2687 2733 
Q 2419 3097 1959 3097 
z
M 1959 3584 
Q 2709 3584 3137 3096 
Q 3566 2609 3566 1747 
Q 3566 888 3137 398 
Q 2709 -91 1959 -91 
Q 1206 -91 779 398 
Q 353 888 353 1747 
Q 353 2609 779 3096 
Q 1206 3584 1959 3584 
z
" transform="scale(0.015625)"/>
      </defs>
      <use xlink:href="#DejaVuSans-54"/>
      <use xlink:href="#DejaVuSans-72" x="46.333984"/>
      <use xlink:href="#DejaVuSans-61" x="87.447266"/>
      <use xlink:href="#DejaVuSans-63" x="148.726562"/>
      <use xlink:href="#DejaVuSans-6b" x="203.707031"/>
      <use xlink:href="#DejaVuSans-69" x="261.617188"/>
      <use xlink:href="#DejaVuSans-6e" x="289.400391"/>
      <use xlink:href="#DejaVuSans-67" x="352.779297"/>
      <use xlink:href="#DejaVuSans-20" x="416.255859"/>
      <use xlink:href="#DejaVuSans-65" x="448.042969"/>
      <use xlink:href="#DejaVuSans-72" x="509.566406"/>
      <use xlink:href="#DejaVuSans-72" x="548.929688"/>
      <use xlink:href="#DejaVuSans-6f" x="587.792969"/>
      <use xlink:href="#DejaVuSans-72" x="648.974609"/>
      <use xlink:href="#DejaVuSans-28" x="690.087891"/>
      <use xlink:href="#DejaVuSans-6d" x="729.101562"/>
      <use xlink:href="#DejaVuSans-29" x="826.513672"/>
     </g>
    </g>
   </g>
   <g id="line2d_25">
    <path d="M 73.832727 245.739299 
L 74.065121 294.743484 
L 74.065121 294.743484 
L 74.762304 191.791234 
L 74.762304 191.791234 
L 75.227092 146.315247 
L 75.227092 146.315247 
L 75.69188 120.353463 
L 75.69188 120.353463 
L 75.924274 113.483195 
L 75.924274 113.483195 
L 76.156668 110.470289 
L 76.156668 110.470289 
L 76.389062 111.078188 
L 76.389062 111.078188 
L 76.621456 115.124431 
L 76.621456 115.124431 
L 77.086245 129.711258 
L 77.086245 129.711258 
L 78.248215 182.825868 
L 78.248215 182.825868 
L 79.177791 220.272636 
L 79.177791 220.272636 
L 80.107368 247.801388 
L 80.107368 247.801388 
L 81.269338 275.030316 
L 81.269338 275.030316 
L 82.198915 294.117247 
L 82.198915 294.117247 
L 82.431309 293.808255 
L 83.128491 284.608165 
L 83.128491 284.608165 
L 83.360885 282.372783 
L 83.360885 282.372783 
L 83.593279 281.909753 
L 83.593279 281.909753 
L 83.825673 281.112057 
L 83.825673 281.112057 
L 84.058067 280.860829 
L 84.058067 280.860829 
L 84.290461 281.169822 
L 84.290461 281.169822 
L 84.522855 282.04637 
L 84.522855 282.04637 
L 84.987644 287.268984 
L 84.987644 287.268984 
L 85.220038 295.488 
L 85.220038 295.488 
L 85.452432 293.01606 
L 85.452432 293.01606 
L 85.684826 294.779243 
L 85.684826 294.779243 
L 86.382008 282.791803 
L 86.382008 282.791803 
L 87.543979 266.582077 
L 87.543979 266.582077 
L 88.705949 256.642056 
L 88.705949 256.642056 
L 88.938343 255.742585 
L 89.170737 253.692416 
L 89.170737 253.692416 
L 89.403131 252.924061 
L 89.403131 252.924061 
L 89.635525 252.699422 
L 89.635525 252.699422 
L 89.86792 253.079015 
L 90.100314 254.127939 
L 90.100314 254.127939 
L 90.332708 253.509954 
L 90.332708 253.509954 
L 91.02989 257.925704 
L 91.02989 257.925704 
L 91.959466 265.626676 
L 91.959466 265.626676 
L 92.424255 269.208971 
L 92.424255 269.208971 
L 92.656649 269.406103 
L 92.656649 269.406103 
L 93.353831 271.52779 
L 93.353831 271.52779 
L 93.586225 270.08552 
L 93.586225 270.08552 
L 93.818619 270.244142 
L 93.818619 270.244142 
L 94.051013 270.753934 
L 94.051013 270.753934 
L 94.283407 269.295159 
L 94.283407 269.295159 
L 94.515801 269.79945 
L 94.515801 269.79945 
L 94.748195 271.105103 
L 94.748195 271.105103 
L 94.98059 270.53663 
L 94.98059 270.53663 
L 95.212984 272.134772 
L 95.212984 272.134772 
L 95.445378 274.658058 
L 95.445378 274.658058 
L 95.677772 275.066992 
L 95.677772 275.066992 
L 96.839742 290.124184 
L 96.839742 290.124184 
L 97.072136 290.32315 
L 97.072136 290.32315 
L 97.30453 293.670721 
L 97.30453 293.670721 
L 97.536925 294.325382 
L 97.536925 294.325382 
L 97.769319 294.608701 
L 97.769319 294.608701 
L 98.001713 292.035903 
L 98.001713 292.035903 
L 98.234107 293.157262 
L 98.234107 293.157262 
L 98.698895 291.127264 
L 98.698895 291.127264 
L 98.931289 294.83609 
L 98.931289 294.83609 
L 99.163683 295.488 
L 99.163683 295.488 
L 99.396077 293.976046 
L 99.396077 293.976046 
L 99.628471 287.810867 
L 99.628471 287.810867 
L 100.09326 282.471808 
L 100.09326 282.471808 
L 100.325654 275.309968 
L 100.558048 271.85237 
L 100.558048 271.85237 
L 101.022836 261.853668 
L 101.022836 261.853668 
L 101.25523 258.712397 
L 101.25523 258.712397 
L 101.720018 249.984506 
L 101.720018 249.984506 
L 101.952412 247.845399 
L 101.952412 247.845399 
L 102.184806 243.31137 
L 102.184806 243.31137 
L 103.114383 235.068515 
L 103.114383 235.068515 
L 103.346777 234.424857 
L 103.346777 234.424857 
L 103.579171 231.346852 
L 103.579171 231.346852 
L 103.811565 230.535403 
L 103.811565 230.535403 
L 104.043959 230.15581 
L 104.043959 230.15581 
L 104.276353 227.595849 
L 104.508747 227.028293 
L 104.508747 227.028293 
L 104.741141 226.802738 
L 104.741141 226.802738 
L 104.973535 224.877265 
L 104.973535 224.877265 
L 105.20593 224.648959 
L 105.20593 224.648959 
L 105.438324 224.782826 
L 105.438324 224.782826 
L 105.670718 223.855848 
L 105.670718 223.855848 
L 105.903112 224.102492 
L 106.135506 224.559104 
L 106.135506 224.559104 
L 106.3679 224.604032 
L 106.3679 224.604032 
L 106.832688 226.577182 
L 106.832688 226.577182 
L 107.297476 229.307685 
L 107.297476 229.307685 
L 107.994659 235.72776 
L 107.994659 235.72776 
L 108.691841 245.289105 
L 108.691841 245.289105 
L 109.389023 258.553775 
L 109.389023 258.553775 
L 111.015782 289.551127 
L 111.015782 289.551127 
L 111.248176 293.169181 
L 111.248176 293.169181 
L 111.48057 294.74165 
L 111.48057 294.74165 
L 112.177752 287.985993 
L 112.177752 287.985993 
L 113.107329 282.146311 
L 113.107329 282.146311 
L 114.036905 276.867767 
L 114.036905 276.867767 
L 114.501693 274.967967 
L 114.501693 274.967967 
L 114.734087 274.355484 
L 114.734087 274.355484 
L 114.966481 274.07033 
L 114.966481 274.07033 
L 115.198876 274.19136 
L 115.198876 274.19136 
L 115.43127 274.791924 
L 115.43127 274.791924 
L 115.896058 277.332631 
L 115.896058 277.332631 
L 116.59324 283.165895 
L 116.59324 283.165895 
L 117.058028 287.98416 
L 117.058028 287.98416 
L 117.290422 295.488 
L 117.290422 295.488 
L 117.522816 292.451255 
L 117.522816 292.451255 
L 117.755211 294.374894 
L 117.755211 294.374894 
L 117.987605 294.900273 
L 117.987605 294.900273 
L 118.219999 293.513933 
L 118.219999 293.513933 
L 118.452393 295.488 
L 118.452393 295.488 
L 118.684787 291.196948 
L 118.684787 291.196948 
L 119.381969 288.460943 
L 119.381969 288.460943 
L 119.614363 295.488 
L 119.614363 295.488 
L 119.846757 286.453868 
L 119.846757 286.453868 
L 120.54394 283.630759 
L 120.54394 283.630759 
L 121.008728 282.510317 
L 121.008728 282.510317 
L 121.241122 282.448885 
L 121.241122 282.448885 
L 121.70591 284.036942 
L 121.70591 284.036942 
L 122.170698 286.664753 
L 122.170698 286.664753 
L 122.867881 292.321057 
L 122.867881 292.321057 
L 123.100275 295.488 
L 123.100275 295.488 
L 123.332669 294.886519 
L 123.332669 294.886519 
L 124.029851 290.636727 
L 124.029851 290.636727 
L 124.262245 295.488 
L 124.262245 295.488 
L 124.494639 289.499781 
L 124.494639 289.499781 
L 125.191821 288.885464 
L 125.191821 288.885464 
L 125.424216 295.488 
L 125.424216 295.488 
L 125.65661 288.497619 
L 125.65661 288.497619 
L 125.889004 288.139114 
L 125.889004 288.139114 
L 127.748156 283.570244 
L 127.748156 283.570244 
L 128.212945 283.053117 
L 128.212945 283.053117 
L 128.677733 282.965095 
L 128.677733 282.965095 
L 129.374915 283.157643 
L 129.374915 283.157643 
L 130.072097 285.149131 
L 130.072097 285.149131 
L 130.536886 287.235976 
L 130.536886 287.235976 
L 131.001674 290.080174 
L 131.001674 290.080174 
L 131.234068 295.488 
L 131.234068 295.488 
L 131.466462 293.310383 
L 131.466462 293.310383 
L 131.698856 294.914026 
L 131.698856 294.914026 
L 131.93125 294.598615 
L 131.93125 294.598615 
L 132.163644 293.233364 
L 132.163644 293.233364 
L 132.396038 295.488 
L 132.396038 295.488 
L 132.628432 291.174025 
L 132.628432 291.174025 
L 133.093221 289.88946 
L 133.093221 289.88946 
L 133.325615 295.488 
L 133.325615 295.488 
L 133.558009 288.964317 
L 133.558009 288.964317 
L 134.487585 287.941066 
L 134.487585 287.941066 
L 134.719979 288.102439 
L 134.719979 288.102439 
L 134.952373 287.818202 
L 135.184767 287.295574 
L 135.184767 287.295574 
L 135.417161 287.481703 
L 135.417161 287.481703 
L 135.649556 286.891225 
L 135.649556 286.891225 
L 135.88195 286.75094 
L 135.88195 286.75094 
L 136.114344 285.849636 
L 136.114344 285.849636 
L 136.346738 284.260663 
L 136.346738 284.260663 
L 136.579132 283.874652 
L 136.579132 283.874652 
L 136.811526 282.193073 
L 137.04392 279.606522 
L 137.04392 279.606522 
L 137.276314 279.121486 
L 137.276314 279.121486 
L 137.508708 276.262618 
L 137.508708 276.262618 
L 137.741102 275.05874 
L 137.741102 275.05874 
L 138.670679 263.624185 
L 138.670679 263.624185 
L 138.903073 262.424891 
L 138.903073 262.424891 
L 139.135467 258.281458 
L 139.135467 258.281458 
L 139.367861 256.512774 
L 139.367861 256.512774 
L 139.832649 247.427296 
L 139.832649 247.427296 
L 140.065043 247.235666 
L 140.065043 247.235666 
L 140.297437 242.255111 
L 140.297437 242.255111 
L 140.529831 241.854429 
L 140.529831 241.854429 
L 140.762226 237.454267 
L 140.762226 237.454267 
L 140.99462 237.109515 
L 140.99462 237.109515 
L 141.227014 233.455703 
L 141.227014 233.455703 
L 141.459408 233.178801 
L 141.459408 233.178801 
L 141.691802 230.327269 
L 141.691802 230.327269 
L 141.924196 230.570245 
L 141.924196 230.570245 
L 142.15659 229.087631 
L 142.15659 229.087631 
L 142.388984 226.369048 
L 142.388984 226.369048 
L 142.621378 230.302513 
L 142.621378 230.302513 
L 142.853772 229.523155 
L 142.853772 229.523155 
L 143.086166 234.984161 
L 143.086166 234.984161 
L 143.318561 235.998243 
L 143.318561 235.998243 
L 143.550955 242.343132 
L 143.550955 242.343132 
L 143.783349 244.634444 
L 143.783349 244.634444 
L 144.015743 251.565227 
L 144.248137 254.215961 
L 144.248137 254.215961 
L 144.480531 260.46366 
L 144.480531 260.46366 
L 144.712925 262.711878 
L 144.712925 262.711878 
L 144.945319 268.537807 
L 144.945319 268.537807 
L 145.177713 270.958401 
L 145.177713 270.958401 
L 145.410107 276.505594 
L 145.410107 276.505594 
L 145.642501 278.940858 
L 145.642501 278.940858 
L 145.874896 284.114877 
L 145.874896 284.114877 
L 146.10729 286.199889 
L 146.10729 286.199889 
L 146.339684 290.50011 
L 146.339684 290.50011 
L 146.572078 292.023984 
L 146.572078 292.023984 
L 146.804472 295.274364 
L 146.804472 295.274364 
L 147.036866 295.488 
L 147.036866 295.488 
L 147.26926 293.038066 
L 147.26926 293.038066 
L 147.501654 295.488 
L 147.501654 295.488 
L 147.734048 292.454923 
L 147.734048 292.454923 
L 147.966442 295.488 
L 147.966442 295.488 
L 148.198836 293.644131 
L 148.198836 293.644131 
L 148.431231 295.488 
L 148.431231 295.488 
L 148.663625 293.971461 
L 148.663625 293.971461 
L 148.896019 295.488 
L 148.896019 295.488 
L 149.128413 295.186343 
L 149.360807 290.237879 
L 149.360807 290.237879 
L 149.593201 293.324136 
L 149.593201 293.324136 
L 149.825595 287.416604 
L 149.825595 287.416604 
L 150.057989 290.042581 
L 150.057989 290.042581 
L 150.290383 284.415618 
L 150.290383 284.415618 
L 150.522777 287.151622 
L 150.522777 287.151622 
L 150.755171 282.337941 
L 150.755171 282.337941 
L 150.987566 285.640585 
L 150.987566 285.640585 
L 151.21996 281.620932 
L 151.21996 281.620932 
L 151.452354 284.878648 
L 151.684748 281.186326 
L 151.684748 281.186326 
L 151.917142 284.228572 
L 151.917142 284.228572 
L 152.149536 280.756304 
L 152.149536 280.756304 
L 152.38193 283.349273 
L 152.38193 283.349273 
L 152.614324 279.967777 
L 152.846718 282.186654 
L 152.846718 282.186654 
L 153.079112 279.116901 
L 153.079112 279.116901 
L 153.311506 280.760888 
L 153.311506 280.760888 
L 153.543901 277.968036 
L 153.543901 277.968036 
L 153.776295 279.187502 
L 153.776295 279.187502 
L 154.008689 276.582613 
L 154.241083 276.996131 
L 154.241083 276.996131 
L 154.473477 274.410497 
L 154.705871 273.818185 
L 154.705871 273.818185 
L 155.170659 269.071438 
L 155.170659 269.071438 
L 155.403053 266.814968 
L 155.403053 266.814968 
L 157.4946 227.564674 
L 157.4946 227.564674 
L 157.726994 226.656952 
L 157.726994 226.656952 
L 157.959388 224.4069 
L 157.959388 224.4069 
L 158.191782 224.675549 
L 158.191782 224.675549 
L 158.424176 223.951205 
L 158.424176 223.951205 
L 158.656571 222.419996 
L 158.656571 222.419996 
L 158.888965 225.595191 
L 158.888965 225.595191 
L 159.121359 225.456741 
L 159.353753 228.323861 
L 159.353753 228.323861 
L 159.586147 228.772221 
L 159.586147 228.772221 
L 159.818541 227.547254 
L 159.818541 227.547254 
L 160.050935 231.676016 
L 160.050935 231.676016 
L 160.283329 230.930583 
L 160.283329 230.930583 
L 160.515723 233.874722 
L 160.515723 233.874722 
L 160.748117 233.743607 
L 160.748117 233.743607 
L 160.980511 232.030853 
L 160.980511 232.030853 
L 161.212906 236.956395 
L 161.212906 236.956395 
L 161.4453 236.712501 
L 161.677694 241.682054 
L 161.677694 241.682054 
L 162.142482 244.658283 
L 162.142482 244.658283 
L 162.374876 253.707086 
L 162.374876 253.707086 
L 162.60727 257.820262 
L 162.60727 257.820262 
L 163.072058 271.821195 
L 163.072058 271.821195 
L 163.536846 283.079707 
L 163.536846 283.079707 
L 163.769241 285.4297 
L 163.769241 285.4297 
L 164.001635 290.007739 
L 164.001635 290.007739 
L 164.234029 290.636727 
L 164.466423 293.084827 
L 164.466423 293.084827 
L 164.698817 292.380655 
L 164.698817 292.380655 
L 164.931211 293.06924 
L 164.931211 293.06924 
L 165.163605 291.759919 
L 165.163605 291.759919 
L 165.395999 289.171534 
L 165.395999 289.171534 
L 165.628393 290.57988 
L 165.628393 290.57988 
L 165.860787 288.537962 
L 165.860787 288.537962 
L 166.093181 289.666656 
L 166.093181 289.666656 
L 166.325576 295.488 
L 166.325576 295.488 
L 166.55797 287.154373 
L 166.55797 287.154373 
L 166.790364 290.592716 
L 166.790364 290.592716 
L 167.022758 290.365327 
L 167.022758 290.365327 
L 167.255152 293.969628 
L 167.255152 293.969628 
L 167.487546 295.181758 
L 167.487546 295.181758 
L 167.71994 295.057978 
L 167.71994 295.057978 
L 167.952334 289.566714 
L 167.952334 289.566714 
L 168.184728 287.247896 
L 168.184728 287.247896 
L 168.649516 277.98179 
L 168.649516 277.98179 
L 168.881911 274.310556 
L 168.881911 274.310556 
L 169.579093 257.771666 
L 169.579093 257.771666 
L 170.276275 245.454145 
L 170.276275 245.454145 
L 170.741063 240.285628 
L 170.741063 240.285628 
L 170.973457 239.45034 
L 170.973457 239.45034 
L 171.205851 239.053325 
L 171.438246 239.549364 
L 171.903034 243.760647 
L 171.903034 243.760647 
L 172.367822 250.47321 
L 172.367822 250.47321 
L 174.226975 280.171327 
L 174.226975 280.171327 
L 174.924157 286.848131 
L 174.924157 286.848131 
L 175.156551 295.488 
L 175.156551 295.488 
L 175.388945 290.314898 
L 175.388945 290.314898 
L 176.318522 295.117576 
L 176.318522 295.117576 
L 176.78331 292.089083 
L 176.78331 292.089083 
L 177.248098 288.120776 
L 177.248098 288.120776 
L 177.94528 281.501736 
L 177.94528 281.501736 
L 178.874857 269.94982 
L 178.874857 269.94982 
L 179.107251 264.442052 
L 179.107251 264.442052 
L 179.339645 262.566092 
L 179.572039 259.556854 
L 179.572039 259.556854 
L 179.804433 254.240717 
L 179.804433 254.240717 
L 180.036827 251.660584 
L 180.036827 251.660584 
L 180.269221 245.233174 
L 180.269221 245.233174 
L 180.501615 243.778985 
L 180.501615 243.778985 
L 180.734009 236.166034 
L 180.734009 236.166034 
L 180.966403 236.130275 
L 180.966403 236.130275 
L 181.198797 233.993001 
L 181.198797 233.993001 
L 181.431192 227.583929 
L 181.663586 226.205841 
L 181.663586 226.205841 
L 181.89598 218.713003 
L 181.89598 218.713003 
L 182.128374 219.077009 
L 182.128374 219.077009 
L 182.360768 210.12448 
L 182.360768 210.12448 
L 182.593162 211.484231 
L 182.593162 211.484231 
L 182.825556 210.707623 
L 182.825556 210.707623 
L 183.05795 204.192192 
L 183.05795 204.192192 
L 183.290344 206.398233 
L 183.290344 206.398233 
L 183.522738 199.916727 
L 183.522738 199.916727 
L 183.755132 204.435168 
L 183.755132 204.435168 
L 183.987527 206.519263 
L 183.987527 206.519263 
L 184.219921 201.567132 
L 184.219921 201.567132 
L 184.452315 204.344396 
L 184.452315 204.344396 
L 184.684709 196.462796 
L 184.684709 196.462796 
L 184.917103 198.847631 
L 184.917103 198.847631 
L 185.149497 197.463125 
L 185.149497 197.463125 
L 185.381891 186.849189 
L 185.381891 186.849189 
L 185.614285 183.843618 
L 185.614285 183.843618 
L 185.846679 177.080626 
L 185.846679 177.080626 
L 186.079073 164.670499 
L 186.079073 164.670499 
L 186.311467 158.575921 
L 186.311467 158.575921 
L 186.543862 143.336267 
L 186.543862 143.336267 
L 186.776256 140.960601 
L 186.776256 140.960601 
L 187.00865 126.105124 
L 187.241044 129.359172 
L 187.241044 129.359172 
L 187.473438 130.321908 
L 187.473438 130.321908 
L 187.705832 125.528399 
L 187.705832 125.528399 
L 187.938226 130.828949 
L 187.938226 130.828949 
L 188.17062 128.048017 
L 188.17062 128.048017 
L 188.403014 137.253608 
L 188.403014 137.253608 
L 188.635408 135.633461 
L 188.635408 135.633461 
L 189.100197 154.680966 
L 189.100197 154.680966 
L 189.332591 154.734145 
L 189.332591 154.734145 
L 189.564985 162.002345 
L 189.564985 162.002345 
L 189.797379 158.840903 
L 189.797379 158.840903 
L 190.029773 165.342581 
L 190.029773 165.342581 
L 190.262167 168.074917 
L 190.262167 168.074917 
L 190.494561 164.377094 
L 190.494561 164.377094 
L 190.726955 166.852701 
L 190.726955 166.852701 
L 190.959349 161.120295 
L 190.959349 161.120295 
L 191.191743 164.795196 
L 191.191743 164.795196 
L 191.424137 166.34566 
L 191.424137 166.34566 
L 191.656532 163.810455 
L 191.656532 163.810455 
L 191.888926 167.684322 
L 191.888926 167.684322 
L 192.12132 166.05959 
L 192.12132 166.05959 
L 192.353714 173.251687 
L 192.353714 173.251687 
L 192.586108 172.778571 
L 193.050896 190.436068 
L 193.050896 190.436068 
L 193.28329 193.751548 
L 193.28329 193.751548 
L 193.515684 202.743503 
L 193.515684 202.743503 
L 193.748078 206.055316 
L 193.748078 206.055316 
L 194.212867 223.504679 
L 194.212867 223.504679 
L 194.445261 228.719041 
L 195.142443 250.779451 
L 195.142443 250.779451 
L 195.607231 265.388284 
L 195.607231 265.388284 
L 196.536807 294.504175 
L 196.536807 294.504175 
L 197.931172 251.805453 
L 197.931172 251.805453 
L 198.163566 241.568359 
L 198.163566 241.568359 
L 198.628354 232.062944 
L 198.628354 232.062944 
L 198.860748 222.532774 
L 198.860748 222.532774 
L 199.093142 218.566301 
L 199.093142 218.566301 
L 199.325537 206.908942 
L 199.325537 206.908942 
L 199.557931 205.482259 
L 199.557931 205.482259 
L 199.790325 203.196448 
L 199.790325 203.196448 
L 200.022719 194.393372 
L 200.022719 194.393372 
L 200.255113 195.316682 
L 200.255113 195.316682 
L 200.487507 194.609759 
L 200.719901 187.552444 
L 200.719901 187.552444 
L 200.952295 189.208351 
L 200.952295 189.208351 
L 201.184689 188.793916 
L 201.184689 188.793916 
L 201.417083 182.311492 
L 201.417083 182.311492 
L 201.649477 182.516876 
L 201.649477 182.516876 
L 201.881872 171.614119 
L 201.881872 171.614119 
L 202.114266 171.953369 
L 202.114266 171.953369 
L 202.34666 169.806009 
L 202.34666 169.806009 
L 202.579054 160.420707 
L 202.579054 160.420707 
L 202.811448 156.700878 
L 202.811448 156.700878 
L 203.043842 150.069918 
L 203.043842 150.069918 
L 203.50863 125.934582 
L 203.50863 125.934582 
L 203.741024 114.383582 
L 203.741024 114.383582 
L 203.973418 91.765702 
L 203.973418 91.765702 
L 204.205812 86.033296 
L 204.205812 86.033296 
L 204.438207 62.645226 
L 204.438207 62.645226 
L 204.670601 64.217695 
L 204.670601 64.217695 
L 204.902995 62.067585 
L 204.902995 62.067585 
L 205.135389 53.568 
L 205.135389 53.568 
L 205.367783 58.689756 
L 205.367783 58.689756 
L 205.600177 54.989182 
L 205.600177 54.989182 
L 205.832571 65.072238 
L 205.832571 65.072238 
L 206.064965 63.299887 
L 206.064965 63.299887 
L 206.297359 77.497036 
L 206.297359 77.497036 
L 206.529753 75.752191 
L 206.529753 75.752191 
L 206.994542 107.656349 
L 206.994542 107.656349 
L 207.226936 112.204131 
L 207.226936 112.204131 
L 207.45933 129.863462 
L 207.45933 129.863462 
L 207.691724 133.014818 
L 207.691724 133.014818 
L 208.156512 168.048327 
L 208.156512 168.048327 
L 208.388906 174.061302 
L 208.388906 174.061302 
L 208.853694 197.584155 
L 208.853694 197.584155 
L 209.086088 200.02492 
L 209.086088 200.02492 
L 209.318482 206.754904 
L 209.318482 206.754904 
L 209.550877 209.92093 
L 209.550877 209.92093 
L 209.783271 207.942279 
L 209.783271 207.942279 
L 210.015665 209.3873 
L 210.015665 209.3873 
L 210.248059 203.922626 
L 210.248059 203.922626 
L 210.480453 205.392403 
L 210.480453 205.392403 
L 210.712847 205.907696 
L 210.712847 205.907696 
L 210.945241 202.324484 
L 210.945241 202.324484 
L 211.410029 208.153164 
L 211.410029 208.153164 
L 211.642423 209.081975 
L 211.642423 209.081975 
L 212.804394 238.86628 
L 212.804394 238.86628 
L 214.431152 291.01632 
L 214.431152 291.01632 
L 214.663547 292.037737 
L 214.663547 292.037737 
L 215.593123 264.669441 
L 215.593123 264.669441 
L 216.290305 235.937728 
L 216.290305 235.937728 
L 216.755093 224.972622 
L 216.755093 224.972622 
L 216.987487 214.360519 
L 216.987487 214.360519 
L 217.219882 210.311526 
L 217.219882 210.311526 
L 217.452276 199.339085 
L 217.452276 199.339085 
L 217.68467 198.409357 
L 217.68467 198.409357 
L 217.917064 194.820644 
L 217.917064 194.820644 
L 218.149458 186.339397 
L 218.149458 186.339397 
L 218.381852 184.49186 
L 218.381852 184.49186 
L 218.614246 174.425308 
L 218.614246 174.425308 
L 218.84664 175.178076 
L 218.84664 175.178076 
L 219.079034 172.643788 
L 219.079034 172.643788 
L 219.311428 164.264316 
L 219.311428 164.264316 
L 219.543822 162.840383 
L 219.543822 162.840383 
L 219.776217 151.530526 
L 219.776217 151.530526 
L 220.008611 151.361818 
L 220.008611 151.361818 
L 220.241005 147.594311 
L 220.241005 147.594311 
L 220.473399 137.745979 
L 220.473399 137.745979 
L 220.705793 135.449166 
L 220.705793 135.449166 
L 220.938187 123.584589 
L 220.938187 123.584589 
L 221.170581 123.818396 
L 221.170581 123.818396 
L 221.402975 110.633496 
L 221.402975 110.633496 
L 221.635369 113.608809 
L 221.635369 113.608809 
L 221.867763 113.563881 
L 221.867763 113.563881 
L 222.100157 105.610764 
L 222.100157 105.610764 
L 222.332552 108.648426 
L 222.332552 108.648426 
L 222.564946 101.27295 
L 222.564946 101.27295 
L 223.029734 112.131697 
L 223.029734 112.131697 
L 223.262128 110.445533 
L 223.262128 110.445533 
L 223.494522 117.153512 
L 223.494522 117.153512 
L 223.726916 115.014404 
L 223.726916 115.014404 
L 224.191704 129.423354 
L 224.191704 129.423354 
L 224.424098 129.467365 
L 224.424098 129.467365 
L 224.656492 135.470254 
L 224.656492 135.470254 
L 224.888887 133.69882 
L 224.888887 133.69882 
L 225.121281 139.456898 
L 225.121281 139.456898 
L 225.353675 142.372614 
L 225.353675 142.372614 
L 225.586069 140.560836 
L 225.586069 140.560836 
L 225.818463 142.909912 
L 225.818463 142.909912 
L 226.050857 138.555594 
L 226.050857 138.555594 
L 226.283251 141.741792 
L 226.283251 141.741792 
L 226.515645 143.317929 
L 226.515645 143.317929 
L 226.748039 139.124067 
L 226.748039 139.124067 
L 226.980433 142.974094 
L 226.980433 142.974094 
L 227.212827 137.508504 
L 227.212827 137.508504 
L 227.677616 148.295733 
L 227.677616 148.295733 
L 227.91001 146.077772 
L 227.91001 146.077772 
L 228.142404 152.132007 
L 228.142404 152.132007 
L 228.374798 148.0931 
L 228.374798 148.0931 
L 228.839586 159.690861 
L 228.839586 159.690861 
L 229.07198 156.653199 
L 229.07198 156.653199 
L 229.304374 161.736446 
L 229.304374 161.736446 
L 229.536768 156.93927 
L 229.536768 156.93927 
L 230.001557 166.609725 
L 230.001557 166.609725 
L 230.233951 164.048847 
L 230.466345 169.170603 
L 230.466345 169.170603 
L 230.698739 166.599639 
L 230.698739 166.599639 
L 231.163527 179.523225 
L 231.163527 179.523225 
L 231.395921 181.063603 
L 231.395921 181.063603 
L 231.628315 188.572028 
L 231.628315 188.572028 
L 231.860709 190.869758 
L 231.860709 190.869758 
L 232.325497 207.55535 
L 232.325497 207.55535 
L 232.557892 212.821058 
L 232.557892 212.821058 
L 233.255074 234.046181 
L 233.255074 234.046181 
L 233.487468 238.692987 
L 233.487468 238.692987 
L 233.952256 251.268155 
L 233.952256 251.268155 
L 235.346621 274.359151 
L 235.346621 274.359151 
L 235.579015 276.401069 
L 235.579015 276.401069 
L 235.811409 280.594931 
L 235.811409 280.594931 
L 236.043803 282.351695 
L 236.043803 282.351695 
L 236.508591 288.579222 
L 236.508591 288.579222 
L 236.740985 295.488 
L 236.740985 295.488 
L 236.973379 292.145013 
L 236.973379 292.145013 
L 237.205773 295.488 
L 237.205773 295.488 
L 237.438168 294.65913 
L 237.670562 295.488 
L 237.902956 295.267029 
L 237.902956 295.267029 
L 238.13535 295.488 
L 238.13535 295.488 
L 238.600138 293.152677 
L 238.600138 293.152677 
L 238.832532 293.184768 
L 239.064926 292.128509 
L 239.064926 292.128509 
L 239.29732 291.895619 
L 239.29732 291.895619 
L 239.994503 288.75985 
L 239.994503 288.75985 
L 240.924079 285.581904 
L 240.924079 285.581904 
L 241.156473 285.471877 
L 241.156473 285.471877 
L 241.388867 284.270749 
L 241.388867 284.270749 
L 241.621261 284.297339 
L 241.621261 284.297339 
L 241.853655 283.51248 
L 242.318443 283.075122 
L 242.318443 283.075122 
L 242.783232 281.045124 
L 242.783232 281.045124 
L 243.015626 280.284104 
L 243.015626 280.284104 
L 243.712808 275.422745 
L 243.712808 275.422745 
L 243.945202 273.932797 
L 243.945202 273.932797 
L 244.40999 269.28599 
L 244.40999 269.28599 
L 244.874778 265.773379 
L 244.874778 265.773379 
L 245.339567 261.097232 
L 245.339567 261.097232 
L 246.269143 254.989817 
L 246.269143 254.989817 
L 246.501537 254.341575 
L 246.501537 254.341575 
L 246.733931 254.088513 
L 246.733931 254.088513 
L 246.966325 252.837873 
L 246.966325 252.837873 
L 247.431113 252.348253 
L 247.431113 252.348253 
L 247.663508 252.239143 
L 247.663508 252.239143 
L 248.128296 250.536475 
L 248.128296 250.536475 
L 248.825478 248.47622 
L 248.825478 248.47622 
L 249.057872 246.768051 
L 249.057872 246.768051 
L 249.52266 245.235925 
L 249.52266 245.235925 
L 249.755054 244.842579 
L 249.987448 244.807737 
L 249.987448 244.807737 
L 250.219843 243.940357 
L 250.219843 243.940357 
L 250.452237 244.158578 
L 250.452237 244.158578 
L 250.917025 245.361539 
L 250.917025 245.361539 
L 251.149419 246.291267 
L 251.149419 246.291267 
L 251.381813 246.0162 
L 251.381813 246.0162 
L 252.078995 248.051699 
L 252.078995 248.051699 
L 252.311389 248.512896 
L 252.311389 248.512896 
L 252.543783 247.321853 
L 252.543783 247.321853 
L 253.240966 245.807149 
L 253.240966 245.807149 
L 253.705754 243.206844 
L 253.705754 243.206844 
L 254.170542 241.873684 
L 254.170542 241.873684 
L 254.402936 241.681137 
L 254.402936 241.681137 
L 254.63533 240.650551 
L 254.63533 240.650551 
L 254.867724 240.52402 
L 255.100118 240.664304 
L 255.100118 240.664304 
L 255.564907 241.637126 
L 255.564907 241.637126 
L 255.797301 241.349222 
L 255.797301 241.349222 
L 256.726877 243.182088 
L 256.726877 243.182088 
L 256.959271 242.45591 
L 256.959271 242.45591 
L 257.191665 242.223936 
L 257.191665 242.223936 
L 257.888848 241.223608 
L 257.888848 241.223608 
L 258.121242 240.089413 
L 258.121242 240.089413 
L 258.353636 239.832683 
L 258.353636 239.832683 
L 258.58603 239.898699 
L 258.58603 239.898699 
L 258.818424 240.365397 
L 259.050818 241.091575 
L 259.050818 241.091575 
L 259.283212 241.094326 
L 259.283212 241.094326 
L 259.748 243.359965 
L 259.748 243.359965 
L 261.374759 253.566802 
L 261.374759 253.566802 
L 261.607153 253.755681 
L 261.607153 253.755681 
L 262.071941 254.948557 
L 262.071941 254.948557 
L 262.304335 255.160359 
L 262.304335 255.160359 
L 262.536729 255.076922 
L 262.536729 255.076922 
L 263.001518 252.69117 
L 263.001518 252.69117 
L 263.6987 250.115622 
L 263.6987 250.115622 
L 263.931094 248.28734 
L 263.931094 248.28734 
L 264.163488 247.554744 
L 264.163488 247.554744 
L 264.395882 247.201741 
L 264.395882 247.201741 
L 264.628276 247.292513 
L 264.628276 247.292513 
L 264.86067 247.666605 
L 264.86067 247.666605 
L 265.093064 247.017445 
L 265.093064 247.017445 
L 265.557853 248.245163 
L 265.557853 248.245163 
L 266.022641 250.064276 
L 266.022641 250.064276 
L 266.255035 249.562736 
L 266.255035 249.562736 
L 266.487429 249.899236 
L 266.487429 249.899236 
L 266.719823 250.032185 
L 266.719823 250.032185 
L 266.952217 249.883648 
L 266.952217 249.883648 
L 267.184611 249.40228 
L 267.184611 249.40228 
L 267.649399 245.882334 
L 267.649399 245.882334 
L 268.346582 241.810418 
L 268.346582 241.810418 
L 268.578976 239.457675 
L 268.578976 239.457675 
L 269.043764 237.655983 
L 269.043764 237.655983 
L 269.276158 237.269971 
L 269.276158 237.269971 
L 269.508552 237.230545 
L 269.508552 237.230545 
L 269.740946 236.403509 
L 269.740946 236.403509 
L 269.97334 236.780351 
L 269.97334 236.780351 
L 270.438128 238.513276 
L 270.438128 238.513276 
L 270.670523 239.772168 
L 270.670523 239.772168 
L 270.902917 240.180185 
L 270.902917 240.180185 
L 275.08601 263.981773 
L 275.08601 263.981773 
L 275.318404 264.793222 
L 275.783193 264.61076 
L 275.783193 264.61076 
L 276.015587 264.03862 
L 276.015587 264.03862 
L 276.480375 261.987534 
L 276.480375 261.987534 
L 277.177557 257.701066 
L 277.177557 257.701066 
L 277.642345 254.351661 
L 277.642345 254.351661 
L 278.107133 252.461031 
L 278.107133 252.461031 
L 278.804316 249.117127 
L 278.804316 249.117127 
L 279.03671 250.722604 
L 279.03671 250.722604 
L 279.269104 251.509297 
L 279.269104 251.509297 
L 279.501498 252.986409 
L 279.501498 252.986409 
L 279.966286 258.317217 
L 279.966286 258.317217 
L 281.128257 291.198781 
L 281.128257 291.198781 
L 281.360651 288.614981 
L 282.522621 236.889461 
L 282.522621 236.889461 
L 283.684592 191.049469 
L 283.684592 191.049469 
L 285.078956 144.120209 
L 285.078956 144.120209 
L 285.31135 144.498885 
L 285.31135 144.498885 
L 285.543744 147.335747 
L 285.543744 147.335747 
L 286.008533 161.254161 
L 286.008533 161.254161 
L 286.938109 225.157834 
L 286.938109 225.157834 
L 287.402897 274.618632 
L 287.402897 274.618632 
L 287.635291 292.675894 
L 287.635291 292.675894 
L 288.100079 245.195582 
L 288.100079 245.195582 
L 288.564868 217.0681 
L 288.564868 217.0681 
L 288.797262 210.108893 
L 288.797262 210.108893 
L 289.26205 203.95105 
L 289.26205 203.95105 
L 289.726838 202.096178 
L 289.726838 202.096178 
L 289.959232 201.628563 
L 289.959232 201.628563 
L 290.191626 196.884567 
L 290.191626 196.884567 
L 290.656414 192.589847 
L 290.656414 192.589847 
L 291.121203 184.407506 
L 291.121203 184.407506 
L 291.353597 181.910811 
L 291.353597 181.910811 
L 291.585991 177.962676 
L 291.585991 177.962676 
L 291.818385 176.271011 
L 291.818385 176.271011 
L 292.050779 175.633771 
L 292.050779 175.633771 
L 292.515567 176.243504 
L 292.515567 176.243504 
L 292.747961 178.460548 
L 292.747961 178.460548 
L 293.212749 186.181692 
L 293.212749 186.181692 
L 294.37472 210.958852 
L 294.37472 210.958852 
L 295.071902 219.494195 
L 295.071902 219.494195 
L 296.001478 230.431794 
L 296.001478 230.431794 
L 297.163449 253.114774 
L 297.163449 253.114774 
L 298.325419 285.299501 
L 298.325419 285.299501 
L 298.790208 295.488 
L 298.790208 295.488 
L 299.48739 279.733969 
L 299.48739 279.733969 
L 300.184572 270.438523 
L 300.184572 270.438523 
L 300.64936 267.650256 
L 300.64936 267.650256 
L 300.881754 266.275835 
L 300.881754 266.275835 
L 301.114149 265.932918 
L 301.346543 266.219905 
L 301.346543 266.219905 
L 301.578937 267.174389 
L 301.578937 267.174389 
L 301.811331 266.540817 
L 301.811331 266.540817 
L 302.043725 267.280749 
L 302.043725 267.280749 
L 302.276119 268.53689 
L 302.508513 267.944578 
L 302.508513 267.944578 
L 302.740907 269.068687 
L 302.740907 269.068687 
L 302.973301 270.796111 
L 302.973301 270.796111 
L 303.205695 270.596228 
L 303.205695 270.596228 
L 304.367666 281.154234 
L 304.367666 281.154234 
L 305.297242 293.445166 
L 305.297242 293.445166 
L 305.529636 295.377973 
L 305.529636 295.377973 
L 305.76203 295.488 
L 305.76203 295.488 
L 305.994424 288.669078 
L 305.994424 288.669078 
L 306.226819 287.345086 
L 306.226819 287.345086 
L 306.459213 283.717863 
L 306.459213 283.717863 
L 306.691607 281.916171 
L 306.691607 281.916171 
L 308.318365 253.87121 
L 308.318365 253.87121 
L 308.783154 244.904927 
L 308.783154 244.904927 
L 309.247942 232.902817 
L 309.247942 232.902817 
L 309.480336 233.048603 
L 309.480336 233.048603 
L 309.71273 227.702208 
L 309.71273 227.702208 
L 309.945124 228.948264 
L 310.177518 225.729058 
L 310.177518 225.729058 
L 310.409912 228.71354 
L 310.409912 228.71354 
L 310.642306 228.994108 
L 310.642306 228.994108 
L 311.107094 237.111349 
L 311.107094 237.111349 
L 311.339489 239.300886 
L 311.339489 239.300886 
L 311.571883 248.690773 
L 311.571883 248.690773 
L 311.804277 252.153872 
L 311.804277 252.153872 
L 312.036671 260.96795 
L 312.036671 260.96795 
L 312.269065 264.85557 
L 312.269065 264.85557 
L 312.501459 272.544623 
L 312.501459 272.544623 
L 312.733853 275.963711 
L 312.733853 275.963711 
L 312.966247 281.964767 
L 312.966247 281.964767 
L 313.198641 284.444041 
L 313.198641 284.444041 
L 313.431035 284.51831 
L 313.431035 284.51831 
L 313.663429 289.933471 
L 313.663429 289.933471 
L 313.895824 289.239384 
L 313.895824 289.239384 
L 314.128218 292.820762 
L 314.128218 292.820762 
L 314.360612 291.39683 
L 314.360612 291.39683 
L 314.593006 293.66522 
L 314.593006 293.66522 
L 314.8254 292.32014 
L 314.8254 292.32014 
L 315.290188 295.488 
L 315.290188 295.488 
L 315.522582 291.322562 
L 315.522582 291.322562 
L 315.754976 294.594948 
L 315.98737 293.740405 
L 315.98737 293.740405 
L 316.219764 294.105328 
L 316.219764 294.105328 
L 316.452159 294.037478 
L 316.452159 294.037478 
L 316.684553 291.150186 
L 316.684553 291.150186 
L 316.916947 290.585381 
L 316.916947 290.585381 
L 317.149341 288.128112 
L 317.149341 288.128112 
L 317.381735 287.042512 
L 317.381735 287.042512 
L 317.614129 286.520801 
L 317.614129 286.520801 
L 317.846523 283.534485 
L 317.846523 283.534485 
L 318.078917 282.750543 
L 318.078917 282.750543 
L 318.311311 280.442727 
L 318.311311 280.442727 
L 318.776099 278.481496 
L 318.776099 278.481496 
L 319.008494 275.87569 
L 319.008494 275.87569 
L 319.240888 274.57187 
L 319.240888 274.57187 
L 319.705676 270.527462 
L 319.705676 270.527462 
L 320.867646 262.770559 
L 320.867646 262.770559 
L 321.332434 262.301111 
L 321.332434 262.301111 
L 321.564829 262.792564 
L 322.029617 264.718954 
L 322.029617 264.718954 
L 322.494405 268.090364 
L 322.494405 268.090364 
L 323.423981 275.285212 
L 323.423981 275.285212 
L 324.353558 282.513068 
L 324.353558 282.513068 
L 325.05074 288.390343 
L 325.05074 288.390343 
L 325.747922 294.698556 
L 325.747922 294.698556 
L 325.980316 295.488 
L 325.980316 295.488 
L 326.21271 292.073496 
L 326.21271 292.073496 
L 326.445104 290.391 
L 326.445104 290.391 
L 326.909893 289.708833 
L 326.909893 289.708833 
L 327.142287 290.159026 
L 327.142287 290.159026 
L 327.374681 291.32898 
L 327.374681 291.32898 
L 327.839469 294.984627 
L 327.839469 294.984627 
L 328.536651 285.44437 
L 328.536651 285.44437 
L 329.698622 267.199145 
L 329.698622 267.199145 
L 330.395804 261.852751 
L 330.395804 261.852751 
L 330.628198 260.952363 
L 330.628198 260.952363 
L 330.860592 260.592025 
L 330.860592 260.592025 
L 331.790169 270.062597 
L 331.790169 270.062597 
L 332.022563 273.882368 
L 332.022563 273.882368 
L 332.719745 295.488 
L 332.719745 295.488 
L 333.184533 279.653283 
L 333.184533 279.653283 
L 333.881715 259.434908 
L 333.881715 259.434908 
L 334.346504 250.353097 
L 334.346504 250.353097 
L 334.811292 246.296769 
L 334.811292 246.296769 
L 335.043686 245.616435 
L 335.043686 245.616435 
L 335.27608 245.326697 
L 335.27608 245.326697 
L 335.740868 247.087129 
L 335.740868 247.087129 
L 335.973262 247.017445 
L 335.973262 247.017445 
L 336.205656 248.688939 
L 336.205656 248.688939 
L 336.43805 248.512896 
L 336.43805 248.512896 
L 336.670444 247.112802 
L 336.670444 247.112802 
L 336.902839 248.514729 
L 336.902839 248.514729 
L 337.135233 246.981687 
L 337.135233 246.981687 
L 337.367627 244.063221 
L 337.367627 244.063221 
L 337.600021 245.952934 
L 337.600021 245.952934 
L 337.832415 243.954111 
L 337.832415 243.954111 
L 338.064809 245.836489 
L 338.064809 245.836489 
L 338.297203 245.497239 
L 338.297203 245.497239 
L 338.529597 244.489575 
L 338.529597 244.489575 
L 338.761991 250.016598 
L 338.761991 250.016598 
L 339.226779 254.149028 
L 339.226779 254.149028 
L 339.459174 262.833825 
L 339.459174 262.833825 
L 339.691568 266.759037 
L 339.691568 266.759037 
L 340.156356 279.632195 
L 340.156356 279.632195 
L 340.38875 283.409788 
L 340.38875 283.409788 
L 340.621144 291.38491 
L 340.621144 291.38491 
L 340.853538 294.841591 
L 340.853538 294.841591 
L 341.085932 290.24063 
L 341.085932 290.24063 
L 341.318326 295.488 
L 341.318326 295.488 
L 341.55072 286.485959 
L 341.55072 286.485959 
L 341.783114 281.894166 
L 341.783114 281.894166 
L 342.015509 281.485232 
L 342.015509 281.485232 
L 342.247903 278.91977 
L 342.247903 278.91977 
L 342.480297 278.839083 
L 342.480297 278.839083 
L 342.712691 279.901761 
L 342.712691 279.901761 
L 342.945085 277.395896 
L 342.945085 277.395896 
L 343.177479 278.104653 
L 343.177479 278.104653 
L 343.409873 276.368061 
L 343.409873 276.368061 
L 343.642267 276.313047 
L 343.642267 276.313047 
L 343.874661 277.107075 
L 343.874661 277.107075 
L 344.107055 274.53061 
L 344.107055 274.53061 
L 344.339449 274.653473 
L 344.339449 274.653473 
L 344.571844 275.52177 
L 344.571844 275.52177 
L 344.804238 272.239298 
L 344.804238 272.239298 
L 345.036632 272.543706 
L 345.036632 272.543706 
L 345.269026 270.14145 
L 345.269026 270.14145 
L 345.50142 270.082769 
L 345.50142 270.082769 
L 345.733814 270.896969 
L 345.733814 270.896969 
L 345.966208 268.56348 
L 345.966208 268.56348 
L 346.198602 269.12095 
L 346.198602 269.12095 
L 346.430996 267.719023 
L 346.430996 267.719023 
L 346.66339 268.029849 
L 346.66339 268.029849 
L 346.895784 269.159459 
L 346.895784 269.159459 
L 347.128179 267.983087 
L 347.128179 267.983087 
L 347.360573 269.284157 
L 347.592967 269.335503 
L 347.592967 269.335503 
L 347.825361 270.773188 
L 347.825361 270.773188 
L 348.057755 273.106677 
L 348.057755 273.106677 
L 348.290149 273.55412 
L 348.290149 273.55412 
L 348.522543 276.003138 
L 348.522543 276.003138 
L 348.754937 277.045643 
L 348.754937 277.045643 
L 349.452119 283.514313 
L 349.452119 283.514313 
L 349.684514 284.810798 
L 349.684514 284.810798 
L 349.916908 295.488 
L 349.916908 295.488 
L 350.149302 287.047096 
L 350.149302 287.047096 
L 350.381696 295.488 
L 350.381696 295.488 
L 350.61409 287.553221 
L 350.61409 287.553221 
L 350.846484 287.478035 
L 350.846484 287.478035 
L 351.77606 282.771631 
L 351.77606 282.771631 
L 352.240849 277.264781 
L 352.240849 277.264781 
L 352.705637 266.794796 
L 352.705637 266.794796 
L 353.170425 253.894132 
L 353.170425 253.894132 
L 353.402819 242.829085 
L 353.402819 242.829085 
L 353.635213 238.954301 
L 353.635213 238.954301 
L 353.867607 233.204474 
L 353.867607 233.204474 
L 354.100001 222.265041 
L 354.100001 222.265041 
L 354.332395 219.713332 
L 354.332395 219.713332 
L 354.564789 206.483504 
L 354.564789 206.483504 
L 354.797184 206.250614 
L 354.797184 206.250614 
L 355.029578 202.196119 
L 355.029578 202.196119 
L 355.261972 191.432729 
L 355.261972 191.432729 
L 355.494366 187.970547 
L 355.494366 187.970547 
L 355.72676 174.371212 
L 355.72676 174.371212 
L 355.959154 172.386141 
L 355.959154 172.386141 
L 356.191548 167.643978 
L 356.191548 167.643978 
L 356.423942 157.291356 
L 356.423942 157.291356 
L 356.656336 154.97162 
L 356.656336 154.97162 
L 356.88873 144.104622 
L 356.88873 144.104622 
L 357.121124 145.268157 
L 357.121124 145.268157 
L 357.353519 144.441121 
L 357.353519 144.441121 
L 357.585913 137.826665 
L 357.818307 139.534834 
L 357.818307 139.534834 
L 358.050701 131.032499 
L 358.050701 131.032499 
L 358.515489 138.702297 
L 358.515489 138.702297 
L 358.747883 134.81376 
L 358.747883 134.81376 
L 358.980277 140.790976 
L 358.980277 140.790976 
L 359.212671 134.369984 
L 359.212671 134.369984 
L 359.677459 147.835453 
L 359.677459 147.835453 
L 359.909854 143.889152 
L 359.909854 143.889152 
L 360.142248 150.318396 
L 360.142248 150.318396 
L 360.374642 152.588619 
L 360.374642 152.588619 
L 360.607036 147.984907 
L 360.607036 147.984907 
L 360.83943 149.385917 
L 360.83943 149.385917 
L 361.071824 139.488073 
L 361.071824 139.488073 
L 361.304218 140.161988 
L 361.304218 140.161988 
L 361.536612 136.941865 
L 361.536612 136.941865 
L 361.769006 126.23899 
L 361.769006 126.23899 
L 362.0014 123.934842 
L 362.0014 123.934842 
L 362.233794 111.033261 
L 362.233794 111.033261 
L 362.466189 111.77961 
L 362.466189 111.77961 
L 362.698583 110.83888 
L 362.698583 110.83888 
L 362.930977 103.999786 
L 362.930977 103.999786 
L 363.163371 107.02186 
L 363.163371 107.02186 
L 363.395765 100.5917 
L 363.395765 100.5917 
L 363.860553 114.902543 
L 363.860553 114.902543 
L 364.092947 115.100591 
L 364.092947 115.100591 
L 364.325341 124.597754 
L 364.325341 124.597754 
L 364.557735 123.524991 
L 364.557735 123.524991 
L 365.022524 144.755615 
L 365.022524 144.755615 
L 365.254918 146.998331 
L 365.254918 146.998331 
L 365.487312 157.047463 
L 365.487312 157.047463 
L 365.719706 158.602511 
L 365.719706 158.602511 
L 366.184494 177.072374 
L 366.184494 177.072374 
L 366.416888 181.411105 
L 366.416888 181.411105 
L 367.346465 211.423716 
L 367.346465 211.423716 
L 368.276041 241.267619 
L 368.276041 241.267619 
L 368.973223 261.366798 
L 368.973223 261.366798 
L 369.670405 275.744574 
L 369.670405 275.744574 
L 370.135194 281.36787 
L 370.135194 281.36787 
L 370.599982 284.010352 
L 370.599982 284.010352 
L 370.832376 284.282668 
L 370.832376 284.282668 
L 371.06477 284.256995 
L 371.06477 284.256995 
L 371.297164 283.061369 
L 371.297164 283.061369 
L 371.529558 282.818393 
L 371.529558 282.818393 
L 371.761952 282.177485 
L 371.761952 282.177485 
L 373.853499 266.865397 
L 373.853499 266.865397 
L 374.085893 267.077199 
L 374.318287 264.399875 
L 374.318287 264.399875 
L 374.550681 264.790471 
L 374.783075 262.146156 
L 375.01547 262.949353 
L 375.01547 262.949353 
L 375.247864 260.911103 
L 375.247864 260.911103 
L 375.480258 262.221341 
L 375.480258 262.221341 
L 375.712652 260.909269 
L 375.712652 260.909269 
L 375.945046 262.78798 
L 375.945046 262.78798 
L 376.17744 262.364376 
L 376.17744 262.364376 
L 376.409834 260.088651 
L 376.409834 260.088651 
L 376.642228 265.501979 
L 376.642228 265.501979 
L 376.874622 264.272427 
L 376.874622 264.272427 
L 377.107016 270.499038 
L 377.107016 270.499038 
L 377.33941 270.389928 
L 377.33941 270.389928 
L 377.571805 277.491253 
L 377.571805 277.491253 
L 377.804199 278.542927 
L 377.804199 278.542927 
L 378.036593 286.428195 
L 378.036593 286.428195 
L 378.268987 287.561473 
L 378.268987 287.561473 
L 378.501381 294.489505 
L 378.733775 294.439993 
L 378.733775 294.439993 
L 378.966169 291.022738 
L 378.966169 291.022738 
L 379.198563 292.825347 
L 379.198563 292.825347 
L 379.430957 289.067925 
L 379.430957 289.067925 
L 379.663351 292.742827 
L 379.663351 292.742827 
L 379.895745 290.03708 
L 379.895745 290.03708 
L 380.12814 293.919199 
L 380.12814 293.919199 
L 380.360534 290.932883 
L 380.360534 290.932883 
L 380.592928 292.584204 
L 380.592928 292.584204 
L 380.825322 288.84237 
L 380.825322 288.84237 
L 381.057716 288.349082 
L 381.057716 288.349082 
L 382.45208 258.131088 
L 382.45208 258.131088 
L 383.149263 241.21994 
L 383.149263 241.21994 
L 383.614051 235.145534 
L 383.614051 235.145534 
L 383.846445 235.161121 
L 383.846445 235.161121 
L 384.078839 235.647073 
L 384.078839 235.647073 
L 384.311233 237.073757 
L 384.311233 237.073757 
L 385.24081 255.927797 
L 385.24081 255.927797 
L 386.40278 285.946827 
L 386.40278 285.946827 
L 386.635174 291.737914 
L 386.635174 291.737914 
L 386.867568 293.593702 
L 386.867568 293.593702 
L 387.797145 274.850605 
L 387.797145 274.850605 
L 388.261933 267.751114 
L 388.261933 267.751114 
L 388.726721 264.199076 
L 388.726721 264.199076 
L 388.959115 263.212501 
L 388.959115 263.212501 
L 389.191509 262.928264 
L 389.656297 266.516978 
L 389.656297 266.516978 
L 390.121085 272.257636 
L 390.121085 272.257636 
L 390.35348 276.07924 
L 390.35348 276.07924 
L 391.050662 292.220199 
L 391.050662 292.220199 
L 391.283056 293.382817 
L 391.283056 293.382817 
L 392.212632 271.273811 
L 392.212632 271.273811 
L 393.142209 253.627317 
L 393.142209 253.627317 
L 393.839391 243.518587 
L 393.839391 243.518587 
L 394.304179 239.365986 
L 394.304179 239.365986 
L 394.536573 238.269383 
L 394.536573 238.269383 
L 394.768967 238.417003 
L 394.768967 238.417003 
L 395.001361 238.991894 
L 395.001361 238.991894 
L 395.233755 240.346143 
L 395.233755 240.346143 
L 395.46615 242.658543 
L 395.46615 242.658543 
L 395.698544 246.103305 
L 395.698544 246.103305 
L 396.395726 264.396208 
L 396.395726 264.396208 
L 397.325302 293.700061 
L 397.325302 293.700061 
L 397.79009 277.471081 
L 397.79009 277.471081 
L 398.254879 250.980251 
L 398.254879 250.980251 
L 398.487273 237.830192 
L 398.487273 237.830192 
" clip-path="url(#p5fca20b49f)" style="fill: none; stroke: #1f77b4; stroke-width: 1.5; stroke-linecap: square"/>
   </g>
   <g id="patch_3">
    <path d="M 57.6 307.584 
L 57.6 41.472 
" style="fill: none; stroke: #000000; stroke-width: 0.8; stroke-linejoin: miter; stroke-linecap: square"/>
   </g>
   <g id="patch_4">
    <path d="M 414.72 307.584 
L 414.72 41.472 
" style="fill: none; stroke: #000000; stroke-width: 0.8; stroke-linejoin: miter; stroke-linecap: square"/>
   </g>
   <g id="patch_5">
    <path d="M 57.6 307.584 
L 414.72 307.584 
" style="fill: none; stroke: #000000; stroke-width: 0.8; stroke-linejoin: miter; stroke-linecap: square"/>
   </g>
   <g id="patch_6">
    <path d="M 57.6 41.472 
L 414.72 41.472 
" style="fill: none; stroke: #000000; stroke-width: 0.8; stroke-linejoin: miter; stroke-linecap: square"/>
   </g>
   <g id="text_15">
    <!-- Tracking error vs Time -->
    <g transform="translate(169.584375 35.472) scale(0.12 -0.12)">
     <defs>
      <path id="DejaVuSans-76" d="M 191 3500 
L 800 3500 
L 1894 563 
L 2988 3500 
L 3597 3500 
L 2284 0 
L 1503 0 
L 191 3500 
z
" transform="scale(0.015625)"/>
     </defs>
     <use xlink:href="#DejaVuSans-54"/>
     <use xlink:href="#DejaVuSans-72" x="46.333984"/>
     <use xlink:href="#DejaVuSans-61" x="87.447266"/>
     <use xlink:href="#DejaVuSans-63" x="148.726562"/>
     <use xlink:href="#DejaVuSans-6b" x="203.707031"/>
     <use xlink:href="#DejaVuSans-69" x="261.617188"/>
     <use xlink:href="#DejaVuSans-6e" x="289.400391"/>
     <use xlink:href="#DejaVuSans-67" x="352.779297"/>
     <use xlink:href="#DejaVuSans-20" x="416.255859"/>
     <use xlink:href="#DejaVuSans-65" x="448.042969"/>
     <use xlink:href="#DejaVuSans-72" x="509.566406"/>
     <use xlink:href="#DejaVuSans-72" x="548.929688"/>
     <use xlink:href="#DejaVuSans-6f" x="587.792969"/>
     <use xlink:href="#DejaVuSans-72" x="648.974609"/>
     <use xlink:href="#DejaVuSans-20" x="690.087891"/>
     <use xlink:href="#DejaVuSans-76" x="721.875"/>
     <use xlink:href="#DejaVuSans-73" x="781.054688"/>
     <use xlink:href="#DejaVuSans-20" x="833.154297"/>
     <use xlink:href="#DejaVuSans-54" x="864.941406"/>
     <use xlink:href="#DejaVuSans-69" x="922.900391"/>
     <use xlink:href="#DejaVuSans-6d" x="950.683594"/>
     <use xlink:href="#DejaVuSans-65" x="1048.095703"/>
    </g>
   </g>
   <g id="legend_1">
    <g id="patch_7">
     <path d="M 311.00125 64.150125 
L 407.72 64.150125 
Q 409.72 64.150125 409.72 62.150125 
L 409.72 48.472 
Q 409.72 46.472 407.72 46.472 
L 311.00125 46.472 
Q 309.00125 46.472 309.00125 48.472 
L 309.00125 62.150125 
Q 309.00125 64.150125 311.00125 64.150125 
z
" style="fill: #ffffff; opacity: 0.8; stroke: #cccccc; stroke-linejoin: miter"/>
    </g>
    <g id="line2d_26">
     <path d="M 313.00125 54.570438 
L 323.00125 54.570438 
L 333.00125 54.570438 
" style="fill: none; stroke: #1f77b4; stroke-width: 1.5; stroke-linecap: square"/>
    </g>
    <g id="text_16">
     <!-- Actual speed -->
     <g transform="translate(341.00125 58.070438) scale(0.1 -0.1)">
      <defs>
       <path id="DejaVuSans-41" d="M 2188 4044 
L 1331 1722 
L 3047 1722 
L 2188 4044 
z
M 1831 4666 
L 2547 4666 
L 4325 0 
L 3669 0 
L 3244 1197 
L 1141 1197 
L 716 0 
L 50 0 
L 1831 4666 
z
" transform="scale(0.015625)"/>
       <path id="DejaVuSans-74" d="M 1172 4494 
L 1172 3500 
L 2356 3500 
L 2356 3053 
L 1172 3053 
L 1172 1153 
Q 1172 725 1289 603 
Q 1406 481 1766 481 
L 2356 481 
L 2356 0 
L 1766 0 
Q 1100 0 847 248 
Q 594 497 594 1153 
L 594 3053 
L 172 3053 
L 172 3500 
L 594 3500 
L 594 4494 
L 1172 4494 
z
" transform="scale(0.015625)"/>
       <path id="DejaVuSans-75" d="M 544 1381 
L 544 3500 
L 1119 3500 
L 1119 1403 
Q 1119 906 1312 657 
Q 1506 409 1894 409 
Q 2359 409 2629 706 
Q 2900 1003 2900 1516 
L 2900 3500 
L 3475 3500 
L 3475 0 
L 2900 0 
L 2900 538 
Q 2691 219 2414 64 
Q 2138 -91 1772 -91 
Q 1169 -91 856 284 
Q 544 659 544 1381 
z
M 1991 3584 
L 1991 3584 
z
" transform="scale(0.015625)"/>
       <path id="DejaVuSans-6c" d="M 603 4863 
L 1178 4863 
L 1178 0 
L 603 0 
L 603 4863 
z
" transform="scale(0.015625)"/>
       <path id="DejaVuSans-70" d="M 1159 525 
L 1159 -1331 
L 581 -1331 
L 581 3500 
L 1159 3500 
L 1159 2969 
Q 1341 3281 1617 3432 
Q 1894 3584 2278 3584 
Q 2916 3584 3314 3078 
Q 3713 2572 3713 1747 
Q 3713 922 3314 415 
Q 2916 -91 2278 -91 
Q 1894 -91 1617 61 
Q 1341 213 1159 525 
z
M 3116 1747 
Q 3116 2381 2855 2742 
Q 2594 3103 2138 3103 
Q 1681 3103 1420 2742 
Q 1159 2381 1159 1747 
Q 1159 1113 1420 752 
Q 1681 391 2138 391 
Q 2594 391 2855 752 
Q 3116 1113 3116 1747 
z
" transform="scale(0.015625)"/>
       <path id="DejaVuSans-64" d="M 2906 2969 
L 2906 4863 
L 3481 4863 
L 3481 0 
L 2906 0 
L 2906 525 
Q 2725 213 2448 61 
Q 2172 -91 1784 -91 
Q 1150 -91 751 415 
Q 353 922 353 1747 
Q 353 2572 751 3078 
Q 1150 3584 1784 3584 
Q 2172 3584 2448 3432 
Q 2725 3281 2906 2969 
z
M 947 1747 
Q 947 1113 1208 752 
Q 1469 391 1925 391 
Q 2381 391 2643 752 
Q 2906 1113 2906 1747 
Q 2906 2381 2643 2742 
Q 2381 3103 1925 3103 
Q 1469 3103 1208 2742 
Q 947 2381 947 1747 
z
" transform="scale(0.015625)"/>
      </defs>
      <use xlink:href="#DejaVuSans-41"/>
      <use xlink:href="#DejaVuSans-63" x="66.658203"/>
      <use xlink:href="#DejaVuSans-74" x="121.638672"/>
      <use xlink:href="#DejaVuSans-75" x="160.847656"/>
      <use xlink:href="#DejaVuSans-61" x="224.226562"/>
      <use xlink:href="#DejaVuSans-6c" x="285.505859"/>
      <use xlink:href="#DejaVuSans-20" x="313.289062"/>
      <use xlink:href="#DejaVuSans-73" x="345.076172"/>
      <use xlink:href="#DejaVuSans-70" x="397.175781"/>
      <use xlink:href="#DejaVuSans-65" x="460.652344"/>
      <use xlink:href="#DejaVuSans-65" x="522.175781"/>
      <use xlink:href="#DejaVuSans-64" x="583.699219"/>
     </g>
    </g>
   </g>
  </g>
 </g>
 <defs>
  <clipPath id="p5fca20b49f">
   <rect x="57.6" y="41.472" width="357.12" height="266.112"/>
  </clipPath>
 </defs>
</svg>
