<?xml version="1.0" encoding="utf-8" standalone="no"?>
<!DOCTYPE svg PUBLIC "-//W3C//DTD SVG 1.1//EN"
  "http://www.w3.org/Graphics/SVG/1.1/DTD/svg11.dtd">
<svg xmlns:xlink="http://www.w3.org/1999/xlink" width="460.8pt" height="345.6pt" viewBox="0 0 460.8 345.6" xmlns="http://www.w3.org/2000/svg" version="1.1">
 <metadata>
  <rdf:RDF xmlns:dc="http://purl.org/dc/elements/1.1/" xmlns:cc="http://creativecommons.org/ns#" xmlns:rdf="http://www.w3.org/1999/02/22-rdf-syntax-ns#">
   <cc:Work>
    <dc:type rdf:resource="http://purl.org/dc/dcmitype/StillImage"/>
    <dc:date>2024-01-30T20:58:37.907655</dc:date>
    <dc:format>image/svg+xml</dc:format>
    <dc:creator>
     <cc:Agent>
      <dc:title>Matplotlib v3.7.1, https://matplotlib.org/</dc:title>
     </cc:Agent>
    </dc:creator>
   </cc:Work>
  </rdf:RDF>
 </metadata>
 <defs>
  <style type="text/css">*{stroke-linejoin: round; stroke-linecap: butt}</style>
 </defs>
 <g id="figure_1">
  <g id="patch_1">
   <path d="M 0 345.6 
L 460.8 345.6 
L 460.8 0 
L 0 0 
z
" style="fill: #ffffff"/>
  </g>
  <g id="axes_1">
   <g id="patch_2">
    <path d="M 57.6 307.584 
L 414.72 307.584 
L 414.72 41.472 
L 57.6 41.472 
z
" style="fill: #ffffff"/>
   </g>
   <g id="matplotlib.axis_1">
    <g id="xtick_1">
     <g id="line2d_1">
      <path d="M 73.832727 307.584 
L 73.832727 41.472 
" clip-path="url(#pb615dc2a6d)" style="fill: none; stroke: #b0b0b0; stroke-width: 0.8; stroke-linecap: square"/>
     </g>
     <g id="line2d_2">
      <defs>
       <path id="m62d003534a" d="M 0 0 
L 0 3.5 
" style="stroke: #000000; stroke-width: 0.8"/>
      </defs>
      <g>
       <use xlink:href="#m62d003534a" x="73.832727" y="307.584" style="stroke: #000000; stroke-width: 0.8"/>
      </g>
     </g>
     <g id="text_1">
      <!-- 0 -->
      <g transform="translate(70.651477 322.182437) scale(0.1 -0.1)">
       <defs>
        <path id="DejaVuSans-30" d="M 2034 4250 
Q 1547 4250 1301 3770 
Q 1056 3291 1056 2328 
Q 1056 1369 1301 889 
Q 1547 409 2034 409 
Q 2525 409 2770 889 
Q 3016 1369 3016 2328 
Q 3016 3291 2770 3770 
Q 2525 4250 2034 4250 
z
M 2034 4750 
Q 2819 4750 3233 4129 
Q 3647 3509 3647 2328 
Q 3647 1150 3233 529 
Q 2819 -91 2034 -91 
Q 1250 -91 836 529 
Q 422 1150 422 2328 
Q 422 3509 836 4129 
Q 1250 4750 2034 4750 
z
" transform="scale(0.015625)"/>
       </defs>
       <use xlink:href="#DejaVuSans-30"/>
      </g>
     </g>
    </g>
    <g id="xtick_2">
     <g id="line2d_3">
      <path d="M 117.12 307.584 
L 117.12 41.472 
" clip-path="url(#pb615dc2a6d)" style="fill: none; stroke: #b0b0b0; stroke-width: 0.8; stroke-linecap: square"/>
     </g>
     <g id="line2d_4">
      <g>
       <use xlink:href="#m62d003534a" x="117.12" y="307.584" style="stroke: #000000; stroke-width: 0.8"/>
      </g>
     </g>
     <g id="text_2">
      <!-- 5 -->
      <g transform="translate(113.93875 322.182437) scale(0.1 -0.1)">
       <defs>
        <path id="DejaVuSans-35" d="M 691 4666 
L 3169 4666 
L 3169 4134 
L 1269 4134 
L 1269 2991 
Q 1406 3038 1543 3061 
Q 1681 3084 1819 3084 
Q 2600 3084 3056 2656 
Q 3513 2228 3513 1497 
Q 3513 744 3044 326 
Q 2575 -91 1722 -91 
Q 1428 -91 1123 -41 
Q 819 9 494 109 
L 494 744 
Q 775 591 1075 516 
Q 1375 441 1709 441 
Q 2250 441 2565 725 
Q 2881 1009 2881 1497 
Q 2881 1984 2565 2268 
Q 2250 2553 1709 2553 
Q 1456 2553 1204 2497 
Q 953 2441 691 2322 
L 691 4666 
z
" transform="scale(0.015625)"/>
       </defs>
       <use xlink:href="#DejaVuSans-35"/>
      </g>
     </g>
    </g>
    <g id="xtick_3">
     <g id="line2d_5">
      <path d="M 160.407273 307.584 
L 160.407273 41.472 
" clip-path="url(#pb615dc2a6d)" style="fill: none; stroke: #b0b0b0; stroke-width: 0.8; stroke-linecap: square"/>
     </g>
     <g id="line2d_6">
      <g>
       <use xlink:href="#m62d003534a" x="160.407273" y="307.584" style="stroke: #000000; stroke-width: 0.8"/>
      </g>
     </g>
     <g id="text_3">
      <!-- 10 -->
      <g transform="translate(154.044773 322.182437) scale(0.1 -0.1)">
       <defs>
        <path id="DejaVuSans-31" d="M 794 531 
L 1825 531 
L 1825 4091 
L 703 3866 
L 703 4441 
L 1819 4666 
L 2450 4666 
L 2450 531 
L 3481 531 
L 3481 0 
L 794 0 
L 794 531 
z
" transform="scale(0.015625)"/>
       </defs>
       <use xlink:href="#DejaVuSans-31"/>
       <use xlink:href="#DejaVuSans-30" x="63.623047"/>
      </g>
     </g>
    </g>
    <g id="xtick_4">
     <g id="line2d_7">
      <path d="M 203.694545 307.584 
L 203.694545 41.472 
" clip-path="url(#pb615dc2a6d)" style="fill: none; stroke: #b0b0b0; stroke-width: 0.8; stroke-linecap: square"/>
     </g>
     <g id="line2d_8">
      <g>
       <use xlink:href="#m62d003534a" x="203.694545" y="307.584" style="stroke: #000000; stroke-width: 0.8"/>
      </g>
     </g>
     <g id="text_4">
      <!-- 15 -->
      <g transform="translate(197.332045 322.182437) scale(0.1 -0.1)">
       <use xlink:href="#DejaVuSans-31"/>
       <use xlink:href="#DejaVuSans-35" x="63.623047"/>
      </g>
     </g>
    </g>
    <g id="xtick_5">
     <g id="line2d_9">
      <path d="M 246.981818 307.584 
L 246.981818 41.472 
" clip-path="url(#pb615dc2a6d)" style="fill: none; stroke: #b0b0b0; stroke-width: 0.8; stroke-linecap: square"/>
     </g>
     <g id="line2d_10">
      <g>
       <use xlink:href="#m62d003534a" x="246.981818" y="307.584" style="stroke: #000000; stroke-width: 0.8"/>
      </g>
     </g>
     <g id="text_5">
      <!-- 20 -->
      <g transform="translate(240.619318 322.182437) scale(0.1 -0.1)">
       <defs>
        <path id="DejaVuSans-32" d="M 1228 531 
L 3431 531 
L 3431 0 
L 469 0 
L 469 531 
Q 828 903 1448 1529 
Q 2069 2156 2228 2338 
Q 2531 2678 2651 2914 
Q 2772 3150 2772 3378 
Q 2772 3750 2511 3984 
Q 2250 4219 1831 4219 
Q 1534 4219 1204 4116 
Q 875 4013 500 3803 
L 500 4441 
Q 881 4594 1212 4672 
Q 1544 4750 1819 4750 
Q 2544 4750 2975 4387 
Q 3406 4025 3406 3419 
Q 3406 3131 3298 2873 
Q 3191 2616 2906 2266 
Q 2828 2175 2409 1742 
Q 1991 1309 1228 531 
z
" transform="scale(0.015625)"/>
       </defs>
       <use xlink:href="#DejaVuSans-32"/>
       <use xlink:href="#DejaVuSans-30" x="63.623047"/>
      </g>
     </g>
    </g>
    <g id="xtick_6">
     <g id="line2d_11">
      <path d="M 290.269091 307.584 
L 290.269091 41.472 
" clip-path="url(#pb615dc2a6d)" style="fill: none; stroke: #b0b0b0; stroke-width: 0.8; stroke-linecap: square"/>
     </g>
     <g id="line2d_12">
      <g>
       <use xlink:href="#m62d003534a" x="290.269091" y="307.584" style="stroke: #000000; stroke-width: 0.8"/>
      </g>
     </g>
     <g id="text_6">
      <!-- 25 -->
      <g transform="translate(283.906591 322.182437) scale(0.1 -0.1)">
       <use xlink:href="#DejaVuSans-32"/>
       <use xlink:href="#DejaVuSans-35" x="63.623047"/>
      </g>
     </g>
    </g>
    <g id="xtick_7">
     <g id="line2d_13">
      <path d="M 333.556364 307.584 
L 333.556364 41.472 
" clip-path="url(#pb615dc2a6d)" style="fill: none; stroke: #b0b0b0; stroke-width: 0.8; stroke-linecap: square"/>
     </g>
     <g id="line2d_14">
      <g>
       <use xlink:href="#m62d003534a" x="333.556364" y="307.584" style="stroke: #000000; stroke-width: 0.8"/>
      </g>
     </g>
     <g id="text_7">
      <!-- 30 -->
      <g transform="translate(327.193864 322.182437) scale(0.1 -0.1)">
       <defs>
        <path id="DejaVuSans-33" d="M 2597 2516 
Q 3050 2419 3304 2112 
Q 3559 1806 3559 1356 
Q 3559 666 3084 287 
Q 2609 -91 1734 -91 
Q 1441 -91 1130 -33 
Q 819 25 488 141 
L 488 750 
Q 750 597 1062 519 
Q 1375 441 1716 441 
Q 2309 441 2620 675 
Q 2931 909 2931 1356 
Q 2931 1769 2642 2001 
Q 2353 2234 1838 2234 
L 1294 2234 
L 1294 2753 
L 1863 2753 
Q 2328 2753 2575 2939 
Q 2822 3125 2822 3475 
Q 2822 3834 2567 4026 
Q 2313 4219 1838 4219 
Q 1578 4219 1281 4162 
Q 984 4106 628 3988 
L 628 4550 
Q 988 4650 1302 4700 
Q 1616 4750 1894 4750 
Q 2613 4750 3031 4423 
Q 3450 4097 3450 3541 
Q 3450 3153 3228 2886 
Q 3006 2619 2597 2516 
z
" transform="scale(0.015625)"/>
       </defs>
       <use xlink:href="#DejaVuSans-33"/>
       <use xlink:href="#DejaVuSans-30" x="63.623047"/>
      </g>
     </g>
    </g>
    <g id="xtick_8">
     <g id="line2d_15">
      <path d="M 376.843636 307.584 
L 376.843636 41.472 
" clip-path="url(#pb615dc2a6d)" style="fill: none; stroke: #b0b0b0; stroke-width: 0.8; stroke-linecap: square"/>
     </g>
     <g id="line2d_16">
      <g>
       <use xlink:href="#m62d003534a" x="376.843636" y="307.584" style="stroke: #000000; stroke-width: 0.8"/>
      </g>
     </g>
     <g id="text_8">
      <!-- 35 -->
      <g transform="translate(370.481136 322.182437) scale(0.1 -0.1)">
       <use xlink:href="#DejaVuSans-33"/>
       <use xlink:href="#DejaVuSans-35" x="63.623047"/>
      </g>
     </g>
    </g>
    <g id="text_9">
     <!-- Time(s) -->
     <g transform="translate(217.420156 335.860562) scale(0.1 -0.1)">
      <defs>
       <path id="DejaVuSans-54" d="M -19 4666 
L 3928 4666 
L 3928 4134 
L 2272 4134 
L 2272 0 
L 1638 0 
L 1638 4134 
L -19 4134 
L -19 4666 
z
" transform="scale(0.015625)"/>
       <path id="DejaVuSans-69" d="M 603 3500 
L 1178 3500 
L 1178 0 
L 603 0 
L 603 3500 
z
M 603 4863 
L 1178 4863 
L 1178 4134 
L 603 4134 
L 603 4863 
z
" transform="scale(0.015625)"/>
       <path id="DejaVuSans-6d" d="M 3328 2828 
Q 3544 3216 3844 3400 
Q 4144 3584 4550 3584 
Q 5097 3584 5394 3201 
Q 5691 2819 5691 2113 
L 5691 0 
L 5113 0 
L 5113 2094 
Q 5113 2597 4934 2840 
Q 4756 3084 4391 3084 
Q 3944 3084 3684 2787 
Q 3425 2491 3425 1978 
L 3425 0 
L 2847 0 
L 2847 2094 
Q 2847 2600 2669 2842 
Q 2491 3084 2119 3084 
Q 1678 3084 1418 2786 
Q 1159 2488 1159 1978 
L 1159 0 
L 581 0 
L 581 3500 
L 1159 3500 
L 1159 2956 
Q 1356 3278 1631 3431 
Q 1906 3584 2284 3584 
Q 2666 3584 2933 3390 
Q 3200 3197 3328 2828 
z
" transform="scale(0.015625)"/>
       <path id="DejaVuSans-65" d="M 3597 1894 
L 3597 1613 
L 953 1613 
Q 991 1019 1311 708 
Q 1631 397 2203 397 
Q 2534 397 2845 478 
Q 3156 559 3463 722 
L 3463 178 
Q 3153 47 2828 -22 
Q 2503 -91 2169 -91 
Q 1331 -91 842 396 
Q 353 884 353 1716 
Q 353 2575 817 3079 
Q 1281 3584 2069 3584 
Q 2775 3584 3186 3129 
Q 3597 2675 3597 1894 
z
M 3022 2063 
Q 3016 2534 2758 2815 
Q 2500 3097 2075 3097 
Q 1594 3097 1305 2825 
Q 1016 2553 972 2059 
L 3022 2063 
z
" transform="scale(0.015625)"/>
       <path id="DejaVuSans-28" d="M 1984 4856 
Q 1566 4138 1362 3434 
Q 1159 2731 1159 2009 
Q 1159 1288 1364 580 
Q 1569 -128 1984 -844 
L 1484 -844 
Q 1016 -109 783 600 
Q 550 1309 550 2009 
Q 550 2706 781 3412 
Q 1013 4119 1484 4856 
L 1984 4856 
z
" transform="scale(0.015625)"/>
       <path id="DejaVuSans-73" d="M 2834 3397 
L 2834 2853 
Q 2591 2978 2328 3040 
Q 2066 3103 1784 3103 
Q 1356 3103 1142 2972 
Q 928 2841 928 2578 
Q 928 2378 1081 2264 
Q 1234 2150 1697 2047 
L 1894 2003 
Q 2506 1872 2764 1633 
Q 3022 1394 3022 966 
Q 3022 478 2636 193 
Q 2250 -91 1575 -91 
Q 1294 -91 989 -36 
Q 684 19 347 128 
L 347 722 
Q 666 556 975 473 
Q 1284 391 1588 391 
Q 1994 391 2212 530 
Q 2431 669 2431 922 
Q 2431 1156 2273 1281 
Q 2116 1406 1581 1522 
L 1381 1569 
Q 847 1681 609 1914 
Q 372 2147 372 2553 
Q 372 3047 722 3315 
Q 1072 3584 1716 3584 
Q 2034 3584 2315 3537 
Q 2597 3491 2834 3397 
z
" transform="scale(0.015625)"/>
       <path id="DejaVuSans-29" d="M 513 4856 
L 1013 4856 
Q 1481 4119 1714 3412 
Q 1947 2706 1947 2009 
Q 1947 1309 1714 600 
Q 1481 -109 1013 -844 
L 513 -844 
Q 928 -128 1133 580 
Q 1338 1288 1338 2009 
Q 1338 2731 1133 3434 
Q 928 4138 513 4856 
z
" transform="scale(0.015625)"/>
      </defs>
      <use xlink:href="#DejaVuSans-54"/>
      <use xlink:href="#DejaVuSans-69" x="57.958984"/>
      <use xlink:href="#DejaVuSans-6d" x="85.742188"/>
      <use xlink:href="#DejaVuSans-65" x="183.154297"/>
      <use xlink:href="#DejaVuSans-28" x="244.677734"/>
      <use xlink:href="#DejaVuSans-73" x="283.691406"/>
      <use xlink:href="#DejaVuSans-29" x="335.791016"/>
     </g>
    </g>
   </g>
   <g id="matplotlib.axis_2">
    <g id="ytick_1">
     <g id="line2d_17">
      <path d="M 57.6 295.488 
L 414.72 295.488 
" clip-path="url(#pb615dc2a6d)" style="fill: none; stroke: #b0b0b0; stroke-width: 0.8; stroke-linecap: square"/>
     </g>
     <g id="line2d_18">
      <defs>
       <path id="m287385736c" d="M 0 0 
L -3.5 0 
" style="stroke: #000000; stroke-width: 0.8"/>
      </defs>
      <g>
       <use xlink:href="#m287385736c" x="57.6" y="295.488" style="stroke: #000000; stroke-width: 0.8"/>
      </g>
     </g>
     <g id="text_10">
      <!-- 0 -->
      <g transform="translate(44.2375 299.287219) scale(0.1 -0.1)">
       <use xlink:href="#DejaVuSans-30"/>
      </g>
     </g>
    </g>
    <g id="ytick_2">
     <g id="line2d_19">
      <path d="M 57.6 265.248 
L 414.72 265.248 
" clip-path="url(#pb615dc2a6d)" style="fill: none; stroke: #b0b0b0; stroke-width: 0.8; stroke-linecap: square"/>
     </g>
     <g id="line2d_20">
      <g>
       <use xlink:href="#m287385736c" x="57.6" y="265.248" style="stroke: #000000; stroke-width: 0.8"/>
      </g>
     </g>
     <g id="text_11">
      <!-- 1 -->
      <g transform="translate(44.2375 269.047219) scale(0.1 -0.1)">
       <use xlink:href="#DejaVuSans-31"/>
      </g>
     </g>
    </g>
    <g id="ytick_3">
     <g id="line2d_21">
      <path d="M 57.6 235.008 
L 414.72 235.008 
" clip-path="url(#pb615dc2a6d)" style="fill: none; stroke: #b0b0b0; stroke-width: 0.8; stroke-linecap: square"/>
     </g>
     <g id="line2d_22">
      <g>
       <use xlink:href="#m287385736c" x="57.6" y="235.008" style="stroke: #000000; stroke-width: 0.8"/>
      </g>
     </g>
     <g id="text_12">
      <!-- 2 -->
      <g transform="translate(44.2375 238.807219) scale(0.1 -0.1)">
       <use xlink:href="#DejaVuSans-32"/>
      </g>
     </g>
    </g>
    <g id="ytick_4">
     <g id="line2d_23">
      <path d="M 57.6 204.768 
L 414.72 204.768 
" clip-path="url(#pb615dc2a6d)" style="fill: none; stroke: #b0b0b0; stroke-width: 0.8; stroke-linecap: square"/>
     </g>
     <g id="line2d_24">
      <g>
       <use xlink:href="#m287385736c" x="57.6" y="204.768" style="stroke: #000000; stroke-width: 0.8"/>
      </g>
     </g>
     <g id="text_13">
      <!-- 3 -->
      <g transform="translate(44.2375 208.567219) scale(0.1 -0.1)">
       <use xlink:href="#DejaVuSans-33"/>
      </g>
     </g>
    </g>
    <g id="ytick_5">
     <g id="line2d_25">
      <path d="M 57.6 174.528 
L 414.72 174.528 
" clip-path="url(#pb615dc2a6d)" style="fill: none; stroke: #b0b0b0; stroke-width: 0.8; stroke-linecap: square"/>
     </g>
     <g id="line2d_26">
      <g>
       <use xlink:href="#m287385736c" x="57.6" y="174.528" style="stroke: #000000; stroke-width: 0.8"/>
      </g>
     </g>
     <g id="text_14">
      <!-- 4 -->
      <g transform="translate(44.2375 178.327219) scale(0.1 -0.1)">
       <defs>
        <path id="DejaVuSans-34" d="M 2419 4116 
L 825 1625 
L 2419 1625 
L 2419 4116 
z
M 2253 4666 
L 3047 4666 
L 3047 1625 
L 3713 1625 
L 3713 1100 
L 3047 1100 
L 3047 0 
L 2419 0 
L 2419 1100 
L 313 1100 
L 313 1709 
L 2253 4666 
z
" transform="scale(0.015625)"/>
       </defs>
       <use xlink:href="#DejaVuSans-34"/>
      </g>
     </g>
    </g>
    <g id="ytick_6">
     <g id="line2d_27">
      <path d="M 57.6 144.288 
L 414.72 144.288 
" clip-path="url(#pb615dc2a6d)" style="fill: none; stroke: #b0b0b0; stroke-width: 0.8; stroke-linecap: square"/>
     </g>
     <g id="line2d_28">
      <g>
       <use xlink:href="#m287385736c" x="57.6" y="144.288" style="stroke: #000000; stroke-width: 0.8"/>
      </g>
     </g>
     <g id="text_15">
      <!-- 5 -->
      <g transform="translate(44.2375 148.087219) scale(0.1 -0.1)">
       <use xlink:href="#DejaVuSans-35"/>
      </g>
     </g>
    </g>
    <g id="ytick_7">
     <g id="line2d_29">
      <path d="M 57.6 114.048 
L 414.72 114.048 
" clip-path="url(#pb615dc2a6d)" style="fill: none; stroke: #b0b0b0; stroke-width: 0.8; stroke-linecap: square"/>
     </g>
     <g id="line2d_30">
      <g>
       <use xlink:href="#m287385736c" x="57.6" y="114.048" style="stroke: #000000; stroke-width: 0.8"/>
      </g>
     </g>
     <g id="text_16">
      <!-- 6 -->
      <g transform="translate(44.2375 117.847219) scale(0.1 -0.1)">
       <defs>
        <path id="DejaVuSans-36" d="M 2113 2584 
Q 1688 2584 1439 2293 
Q 1191 2003 1191 1497 
Q 1191 994 1439 701 
Q 1688 409 2113 409 
Q 2538 409 2786 701 
Q 3034 994 3034 1497 
Q 3034 2003 2786 2293 
Q 2538 2584 2113 2584 
z
M 3366 4563 
L 3366 3988 
Q 3128 4100 2886 4159 
Q 2644 4219 2406 4219 
Q 1781 4219 1451 3797 
Q 1122 3375 1075 2522 
Q 1259 2794 1537 2939 
Q 1816 3084 2150 3084 
Q 2853 3084 3261 2657 
Q 3669 2231 3669 1497 
Q 3669 778 3244 343 
Q 2819 -91 2113 -91 
Q 1303 -91 875 529 
Q 447 1150 447 2328 
Q 447 3434 972 4092 
Q 1497 4750 2381 4750 
Q 2619 4750 2861 4703 
Q 3103 4656 3366 4563 
z
" transform="scale(0.015625)"/>
       </defs>
       <use xlink:href="#DejaVuSans-36"/>
      </g>
     </g>
    </g>
    <g id="ytick_8">
     <g id="line2d_31">
      <path d="M 57.6 83.808 
L 414.72 83.808 
" clip-path="url(#pb615dc2a6d)" style="fill: none; stroke: #b0b0b0; stroke-width: 0.8; stroke-linecap: square"/>
     </g>
     <g id="line2d_32">
      <g>
       <use xlink:href="#m287385736c" x="57.6" y="83.808" style="stroke: #000000; stroke-width: 0.8"/>
      </g>
     </g>
     <g id="text_17">
      <!-- 7 -->
      <g transform="translate(44.2375 87.607219) scale(0.1 -0.1)">
       <defs>
        <path id="DejaVuSans-37" d="M 525 4666 
L 3525 4666 
L 3525 4397 
L 1831 0 
L 1172 0 
L 2766 4134 
L 525 4134 
L 525 4666 
z
" transform="scale(0.015625)"/>
       </defs>
       <use xlink:href="#DejaVuSans-37"/>
      </g>
     </g>
    </g>
    <g id="ytick_9">
     <g id="line2d_33">
      <path d="M 57.6 53.568 
L 414.72 53.568 
" clip-path="url(#pb615dc2a6d)" style="fill: none; stroke: #b0b0b0; stroke-width: 0.8; stroke-linecap: square"/>
     </g>
     <g id="line2d_34">
      <g>
       <use xlink:href="#m287385736c" x="57.6" y="53.568" style="stroke: #000000; stroke-width: 0.8"/>
      </g>
     </g>
     <g id="text_18">
      <!-- 8 -->
      <g transform="translate(44.2375 57.367219) scale(0.1 -0.1)">
       <defs>
        <path id="DejaVuSans-38" d="M 2034 2216 
Q 1584 2216 1326 1975 
Q 1069 1734 1069 1313 
Q 1069 891 1326 650 
Q 1584 409 2034 409 
Q 2484 409 2743 651 
Q 3003 894 3003 1313 
Q 3003 1734 2745 1975 
Q 2488 2216 2034 2216 
z
M 1403 2484 
Q 997 2584 770 2862 
Q 544 3141 544 3541 
Q 544 4100 942 4425 
Q 1341 4750 2034 4750 
Q 2731 4750 3128 4425 
Q 3525 4100 3525 3541 
Q 3525 3141 3298 2862 
Q 3072 2584 2669 2484 
Q 3125 2378 3379 2068 
Q 3634 1759 3634 1313 
Q 3634 634 3220 271 
Q 2806 -91 2034 -91 
Q 1263 -91 848 271 
Q 434 634 434 1313 
Q 434 1759 690 2068 
Q 947 2378 1403 2484 
z
M 1172 3481 
Q 1172 3119 1398 2916 
Q 1625 2713 2034 2713 
Q 2441 2713 2670 2916 
Q 2900 3119 2900 3481 
Q 2900 3844 2670 4047 
Q 2441 4250 2034 4250 
Q 1625 4250 1398 4047 
Q 1172 3844 1172 3481 
z
" transform="scale(0.015625)"/>
       </defs>
       <use xlink:href="#DejaVuSans-38"/>
      </g>
     </g>
    </g>
    <g id="text_19">
     <!-- Velocity(m/s) -->
     <g transform="translate(38.157812 207.204563) rotate(-90) scale(0.1 -0.1)">
      <defs>
       <path id="DejaVuSans-56" d="M 1831 0 
L 50 4666 
L 709 4666 
L 2188 738 
L 3669 4666 
L 4325 4666 
L 2547 0 
L 1831 0 
z
" transform="scale(0.015625)"/>
       <path id="DejaVuSans-6c" d="M 603 4863 
L 1178 4863 
L 1178 0 
L 603 0 
L 603 4863 
z
" transform="scale(0.015625)"/>
       <path id="DejaVuSans-6f" d="M 1959 3097 
Q 1497 3097 1228 2736 
Q 959 2375 959 1747 
Q 959 1119 1226 758 
Q 1494 397 1959 397 
Q 2419 397 2687 759 
Q 2956 1122 2956 1747 
Q 2956 2369 2687 2733 
Q 2419 3097 1959 3097 
z
M 1959 3584 
Q 2709 3584 3137 3096 
Q 3566 2609 3566 1747 
Q 3566 888 3137 398 
Q 2709 -91 1959 -91 
Q 1206 -91 779 398 
Q 353 888 353 1747 
Q 353 2609 779 3096 
Q 1206 3584 1959 3584 
z
" transform="scale(0.015625)"/>
       <path id="DejaVuSans-63" d="M 3122 3366 
L 3122 2828 
Q 2878 2963 2633 3030 
Q 2388 3097 2138 3097 
Q 1578 3097 1268 2742 
Q 959 2388 959 1747 
Q 959 1106 1268 751 
Q 1578 397 2138 397 
Q 2388 397 2633 464 
Q 2878 531 3122 666 
L 3122 134 
Q 2881 22 2623 -34 
Q 2366 -91 2075 -91 
Q 1284 -91 818 406 
Q 353 903 353 1747 
Q 353 2603 823 3093 
Q 1294 3584 2113 3584 
Q 2378 3584 2631 3529 
Q 2884 3475 3122 3366 
z
" transform="scale(0.015625)"/>
       <path id="DejaVuSans-74" d="M 1172 4494 
L 1172 3500 
L 2356 3500 
L 2356 3053 
L 1172 3053 
L 1172 1153 
Q 1172 725 1289 603 
Q 1406 481 1766 481 
L 2356 481 
L 2356 0 
L 1766 0 
Q 1100 0 847 248 
Q 594 497 594 1153 
L 594 3053 
L 172 3053 
L 172 3500 
L 594 3500 
L 594 4494 
L 1172 4494 
z
" transform="scale(0.015625)"/>
       <path id="DejaVuSans-79" d="M 2059 -325 
Q 1816 -950 1584 -1140 
Q 1353 -1331 966 -1331 
L 506 -1331 
L 506 -850 
L 844 -850 
Q 1081 -850 1212 -737 
Q 1344 -625 1503 -206 
L 1606 56 
L 191 3500 
L 800 3500 
L 1894 763 
L 2988 3500 
L 3597 3500 
L 2059 -325 
z
" transform="scale(0.015625)"/>
       <path id="DejaVuSans-2f" d="M 1625 4666 
L 2156 4666 
L 531 -594 
L 0 -594 
L 1625 4666 
z
" transform="scale(0.015625)"/>
      </defs>
      <use xlink:href="#DejaVuSans-56"/>
      <use xlink:href="#DejaVuSans-65" x="60.658203"/>
      <use xlink:href="#DejaVuSans-6c" x="122.181641"/>
      <use xlink:href="#DejaVuSans-6f" x="149.964844"/>
      <use xlink:href="#DejaVuSans-63" x="211.146484"/>
      <use xlink:href="#DejaVuSans-69" x="266.126953"/>
      <use xlink:href="#DejaVuSans-74" x="293.910156"/>
      <use xlink:href="#DejaVuSans-79" x="333.119141"/>
      <use xlink:href="#DejaVuSans-28" x="392.298828"/>
      <use xlink:href="#DejaVuSans-6d" x="431.3125"/>
      <use xlink:href="#DejaVuSans-2f" x="528.724609"/>
      <use xlink:href="#DejaVuSans-73" x="562.416016"/>
      <use xlink:href="#DejaVuSans-29" x="614.515625"/>
     </g>
    </g>
   </g>
   <g id="line2d_35">
    <path d="M 73.832727 53.568 
L 73.832727 295.488 
L 74.179025 287.725513 
L 74.179025 287.725513 
L 76.603113 249.839027 
L 76.603113 249.839027 
L 79.0272 208.623177 
L 79.0272 208.623177 
L 81.451287 163.7853 
L 81.451287 163.7853 
L 83.875375 115.007152 
L 83.875375 115.007152 
L 85.606865 80.144787 
L 85.606865 80.144787 
L 86.299462 71.566636 
L 86.299462 71.566636 
L 86.992058 65.75726 
L 86.992058 65.75726 
L 87.684655 61.822945 
L 87.684655 61.822945 
L 88.377251 59.158529 
L 88.377251 59.158529 
L 89.069847 57.354078 
L 89.069847 57.354078 
L 89.762444 56.13205 
L 89.762444 56.13205 
L 90.45504 55.304472 
L 90.45504 55.304472 
L 91.320785 54.634807 
L 91.320785 54.634807 
L 92.35968 54.162549 
L 92.35968 54.162549 
L 93.571724 53.868586 
L 93.571724 53.868586 
L 95.476364 53.670907 
L 95.476364 53.670907 
L 98.766196 53.584148 
L 98.766196 53.584148 
L 98.939345 54.02668 
L 98.939345 54.02668 
L 99.285644 58.826282 
L 99.285644 58.826282 
L 99.805091 66.002083 
L 99.805091 66.002083 
L 100.497687 78.188592 
L 100.497687 78.188592 
L 101.017135 85.980169 
L 101.017135 85.980169 
L 101.88288 99.168075 
L 101.88288 99.168075 
L 103.094924 111.173839 
L 103.094924 111.173839 
L 103.441222 114.633325 
L 103.441222 114.633325 
L 104.133818 120.293225 
L 104.133818 120.293225 
L 105.69216 128.766534 
L 105.69216 128.766534 
L 106.557905 131.271706 
L 106.557905 131.271706 
L 107.077353 132.066262 
L 107.077353 132.066262 
L 107.5968 132.404678 
L 107.5968 132.404678 
L 108.116247 132.556967 
L 108.116247 132.556967 
L 108.981993 132.49939 
L 108.981993 132.49939 
L 109.674589 132.220032 
L 109.674589 132.220032 
L 110.367185 131.455626 
L 110.367185 131.455626 
L 110.540335 131.139225 
L 110.540335 131.139225 
L 111.40608 128.093482 
L 111.40608 128.093482 
L 111.925527 125.363596 
L 111.925527 125.363596 
L 112.271825 122.511178 
L 112.271825 122.511178 
L 112.791273 117.527052 
L 112.791273 117.527052 
L 113.657018 108.019263 
L 113.657018 108.019263 
L 114.176465 105.069865 
L 114.176465 105.069865 
L 114.695913 103.795037 
L 114.695913 103.795037 
L 115.21536 103.281169 
L 115.21536 103.281169 
L 115.907956 103.030752 
L 115.907956 103.030752 
L 117.812596 102.521147 
L 117.812596 102.521147 
L 118.158895 102.297371 
L 118.158895 102.297371 
L 119.02464 101.097508 
L 119.02464 101.097508 
L 119.717236 99.171009 
L 119.717236 99.171009 
L 120.063535 97.946077 
L 120.063535 97.946077 
L 120.92928 92.727832 
L 120.92928 92.727832 
L 121.448727 89.238046 
L 121.448727 89.238046 
L 121.621876 88.675037 
L 121.621876 88.675037 
L 121.968175 89.185549 
L 121.968175 89.185549 
L 122.141324 90.350061 
L 122.141324 90.350061 
L 122.83392 98.792192 
L 122.83392 98.792192 
L 124.219113 110.821967 
L 124.219113 110.821967 
L 125.258007 115.283395 
L 125.258007 115.283395 
L 125.777455 116.431275 
L 125.777455 116.431275 
L 126.123753 116.75194 
L 126.123753 116.75194 
L 126.816349 117.240497 
L 126.816349 117.240497 
L 127.855244 117.292238 
L 127.855244 117.292238 
L 128.201542 117.323204 
L 128.201542 117.323204 
L 129.759884 117.163204 
L 129.759884 117.163204 
L 131.664524 116.14838 
L 131.664524 116.14838 
L 132.010822 115.847613 
L 132.010822 115.847613 
L 132.876567 114.984019 
L 132.876567 114.984019 
L 133.569164 114.148215 
L 133.569164 114.148215 
L 134.781207 112.361697 
L 134.781207 112.361697 
L 137.032145 107.78581 
L 137.032145 107.78581 
L 138.936785 102.617885 
L 138.936785 102.617885 
L 141.360873 93.940608 
L 141.360873 93.940608 
L 143.265513 84.393265 
L 143.265513 84.393265 
L 144.131258 78.936941 
L 144.131258 78.936941 
L 146.382196 62.771 
L 146.382196 62.771 
L 147.074793 59.800555 
L 147.074793 59.800555 
L 147.767389 57.788899 
L 147.767389 57.788899 
L 148.459985 56.426527 
L 148.459985 56.426527 
L 149.152582 55.503874 
L 149.152582 55.503874 
L 150.018327 54.757309 
L 150.018327 54.757309 
L 150.884073 54.298659 
L 150.884073 54.298659 
L 152.096116 53.937412 
L 152.096116 53.937412 
L 153.827607 53.707437 
L 153.827607 53.707437 
L 155.905396 53.611304 
L 155.905396 53.611304 
L 156.078545 54.185319 
L 156.078545 54.185319 
L 156.944291 65.597926 
L 156.944291 65.597926 
L 157.290589 71.645865 
L 157.290589 71.645865 
L 158.156335 85.459255 
L 158.156335 85.459255 
L 158.502633 91.274558 
L 158.502633 91.274558 
L 161.099869 126.092259 
L 161.099869 126.092259 
L 163.350807 145.490463 
L 163.350807 145.490463 
L 163.870255 148.185573 
L 163.870255 148.185573 
L 164.389702 151.030492 
L 164.389702 151.030492 
L 165.774895 155.464825 
L 165.774895 155.464825 
L 166.467491 156.974678 
L 166.467491 156.974678 
L 166.986938 157.697263 
L 166.986938 157.697263 
L 167.679535 158.274544 
L 167.679535 158.274544 
L 168.025833 158.361031 
L 168.025833 158.361031 
L 169.064727 158.469078 
L 169.064727 158.469078 
L 170.44992 158.322989 
L 170.44992 158.322989 
L 170.969367 158.074507 
L 170.969367 158.074507 
L 171.661964 157.465685 
L 171.661964 157.465685 
L 172.181411 156.806211 
L 172.181411 156.806211 
L 173.220305 154.721435 
L 173.220305 154.721435 
L 175.124945 148.82784 
L 175.124945 148.82784 
L 176.336989 143.806247 
L 176.336989 143.806247 
L 177.375884 138.599433 
L 177.375884 138.599433 
L 178.934225 129.701252 
L 178.934225 129.701252 
L 180.319418 121.432185 
L 180.319418 121.432185 
L 184.474996 96.471877 
L 184.474996 96.471877 
L 185.513891 87.158894 
L 185.513891 87.158894 
L 186.725935 73.166363 
L 186.725935 73.166363 
L 187.072233 71.805109 
L 187.072233 71.805109 
L 187.245382 71.514442 
L 187.245382 71.514442 
L 187.418531 72.219185 
L 187.418531 72.219185 
L 188.630575 89.304755 
L 188.630575 89.304755 
L 188.976873 95.800609 
L 188.976873 95.800609 
L 191.40096 134.278681 
L 191.40096 134.278681 
L 192.266705 143.979522 
L 192.266705 143.979522 
L 192.959302 150.876782 
L 192.959302 150.876782 
L 193.478749 155.720776 
L 193.478749 155.720776 
L 193.998196 159.3715 
L 193.998196 159.3715 
L 194.344495 161.807423 
L 194.344495 161.807423 
L 195.902836 168.913309 
L 195.902836 168.913309 
L 196.249135 170.029891 
L 196.249135 170.029891 
L 197.11488 171.759982 
L 197.11488 171.759982 
L 197.980625 172.674953 
L 197.980625 172.674953 
L 199.192669 173.20122 
L 199.192669 173.20122 
L 199.538967 173.222721 
L 199.538967 173.222721 
L 200.058415 173.292636 
L 200.058415 173.292636 
L 201.789905 172.933505 
L 201.789905 172.933505 
L 202.482502 172.428165 
L 202.482502 172.428165 
L 203.001949 171.848676 
L 203.001949 171.848676 
L 204.040844 169.699398 
L 204.040844 169.699398 
L 204.560291 168.170584 
L 204.560291 168.170584 
L 206.291782 160.33413 
L 206.291782 160.33413 
L 206.984378 156.165546 
L 206.984378 156.165546 
L 208.023273 147.950185 
L 208.023273 147.950185 
L 209.581615 131.056034 
L 209.581615 131.056034 
L 210.44736 119.897807 
L 210.44736 119.897807 
L 211.486255 104.465277 
L 211.486255 104.465277 
L 213.217745 77.204068 
L 213.217745 77.204068 
L 213.910342 69.57509 
L 213.910342 69.57509 
L 214.602938 64.408526 
L 214.602938 64.408526 
L 215.295535 60.909546 
L 215.295535 60.909546 
L 215.988131 58.53994 
L 215.988131 58.53994 
L 216.680727 56.935164 
L 216.680727 56.935164 
L 217.373324 55.848338 
L 217.373324 55.848338 
L 218.06592 55.112327 
L 218.06592 55.112327 
L 218.931665 54.529753 
L 218.931665 54.529753 
L 219.104815 54.830611 
L 219.104815 54.830611 
L 219.451113 57.684057 
L 219.451113 57.684057 
L 219.97056 62.38922 
L 219.97056 62.38922 
L 221.009455 75.855969 
L 221.009455 75.855969 
L 221.355753 79.264228 
L 221.355753 79.264228 
L 222.048349 87.694203 
L 222.048349 87.694203 
L 222.567796 93.711872 
L 222.567796 93.711872 
L 222.914095 97.992253 
L 222.914095 97.992253 
L 223.77984 107.156213 
L 223.77984 107.156213 
L 226.030778 126.013605 
L 226.030778 126.013605 
L 226.550225 128.919397 
L 226.550225 128.919397 
L 227.58912 132.909444 
L 227.58912 132.909444 
L 228.108567 134.268823 
L 228.108567 134.268823 
L 228.628015 135.078589 
L 228.628015 135.078589 
L 229.147462 135.50576 
L 229.147462 135.50576 
L 230.532655 135.711392 
L 230.532655 135.711392 
L 231.571549 135.541382 
L 231.571549 135.541382 
L 231.917847 135.279746 
L 231.917847 135.279746 
L 232.264145 134.916352 
L 232.264145 134.916352 
L 232.610444 134.422079 
L 232.610444 134.422079 
L 232.956742 133.765387 
L 232.956742 133.765387 
L 233.476189 132.424878 
L 233.476189 132.424878 
L 233.995636 130.432697 
L 233.995636 130.432697 
L 235.20768 122.058364 
L 235.20768 122.058364 
L 235.727127 116.708334 
L 235.727127 116.708334 
L 236.419724 108.011431 
L 236.419724 108.011431 
L 238.324364 78.094394 
L 238.324364 78.094394 
L 239.01696 70.178046 
L 239.01696 70.178046 
L 239.709556 64.816857 
L 239.709556 64.816857 
L 240.402153 61.186091 
L 240.402153 61.186091 
L 241.094749 58.727216 
L 241.094749 58.727216 
L 241.787345 57.06199 
L 241.787345 57.06199 
L 242.479942 55.93425 
L 242.479942 55.93425 
L 243.172538 55.170478 
L 243.172538 55.170478 
L 244.038284 54.552493 
L 244.038284 54.552493 
L 244.73088 54.287077 
L 244.73088 54.287077 
L 245.250327 57.089962 
L 245.250327 57.089962 
L 245.596625 59.313449 
L 245.596625 59.313449 
L 246.63552 68.223241 
L 246.63552 68.223241 
L 247.154967 72.297053 
L 247.154967 72.297053 
L 247.501265 75.399314 
L 247.501265 75.399314 
L 248.367011 82.446746 
L 248.367011 82.446746 
L 248.713309 85.446615 
L 248.713309 85.446615 
L 250.271651 96.112172 
L 250.271651 96.112172 
L 251.137396 100.128226 
L 251.137396 100.128226 
L 252.003142 102.382708 
L 252.003142 102.382708 
L 252.522589 103.166952 
L 252.522589 103.166952 
L 252.868887 103.40228 
L 252.868887 103.40228 
L 254.427229 103.703198 
L 254.427229 103.703198 
L 255.466124 103.14016 
L 255.466124 103.14016 
L 255.812422 102.760345 
L 255.812422 102.760345 
L 256.678167 100.917278 
L 256.678167 100.917278 
L 257.370764 98.707792 
L 257.370764 98.707792 
L 258.06336 95.743879 
L 258.06336 95.743879 
L 258.755956 92.035246 
L 258.755956 92.035246 
L 260.314298 80.92885 
L 260.314298 80.92885 
L 262.392087 63.437096 
L 262.392087 63.437096 
L 263.084684 60.251675 
L 263.084684 60.251675 
L 263.77728 58.094384 
L 263.77728 58.094384 
L 264.469876 56.633429 
L 264.469876 56.633429 
L 265.162473 55.644006 
L 265.162473 55.644006 
L 266.028218 54.843402 
L 266.028218 54.843402 
L 266.893964 54.351549 
L 266.893964 54.351549 
L 267.932858 54.004696 
L 267.932858 54.004696 
L 269.4912 53.749682 
L 269.4912 53.749682 
L 271.915287 53.614449 
L 271.915287 53.614449 
L 278.148655 53.569391 
L 278.148655 53.569391 
L 279.0144 53.568847 
L 279.0144 53.568847 
L 279.187549 54.319192 
L 279.187549 54.319192 
L 279.533847 59.623439 
L 279.533847 59.623439 
L 279.880145 66.003021 
L 279.880145 66.003021 
L 280.226444 72.651103 
L 280.226444 72.651103 
L 280.572742 79.864341 
L 280.572742 79.864341 
L 281.265338 93.596053 
L 281.265338 93.596053 
L 281.957935 108.79885 
L 281.957935 108.79885 
L 282.304233 114.920787 
L 282.304233 114.920787 
L 282.650531 122.107111 
L 282.650531 122.107111 
L 283.169978 131.199886 
L 283.169978 131.199886 
L 285.247767 157.661156 
L 285.247767 157.661156 
L 286.806109 170.91308 
L 286.806109 170.91308 
L 288.710749 180.565356 
L 288.710749 180.565356 
L 289.230196 182.339415 
L 289.230196 182.339415 
L 290.095942 183.859036 
L 290.095942 183.859036 
L 290.788538 184.348833 
L 290.788538 184.348833 
L 292.520029 184.468916 
L 292.520029 184.468916 
L 293.039476 184.340366 
L 293.039476 184.340366 
L 293.905222 183.69571 
L 293.905222 183.69571 
L 294.944116 181.747014 
L 294.944116 181.747014 
L 295.463564 180.376839 
L 295.463564 180.376839 
L 296.15616 178.011436 
L 296.15616 178.011436 
L 297.021905 174.202618 
L 297.021905 174.202618 
L 297.714502 170.525978 
L 297.714502 170.525978 
L 300.484887 149.319724 
L 300.484887 149.319724 
L 301.87008 136.795496 
L 301.87008 136.795496 
L 302.908975 128.514544 
L 302.908975 128.514544 
L 304.640465 114.83427 
L 304.640465 114.83427 
L 305.159913 111.023395 
L 305.159913 111.023395 
L 305.506211 110.568586 
L 305.506211 110.568586 
L 306.025658 115.037695 
L 306.025658 115.037695 
L 306.371956 120.54331 
L 306.371956 120.54331 
L 306.891404 127.666493 
L 306.891404 127.666493 
L 308.449745 144.597325 
L 308.449745 144.597325 
L 310.527535 157.497407 
L 310.527535 157.497407 
L 311.046982 159.551338 
L 311.046982 159.551338 
L 311.39328 160.690872 
L 311.39328 160.690872 
L 311.912727 162.065249 
L 311.912727 162.065249 
L 312.432175 163.469716 
L 312.432175 163.469716 
L 313.817367 165.532568 
L 313.817367 165.532568 
L 314.336815 165.800978 
L 314.336815 165.800978 
L 315.20256 166.164735 
L 315.20256 166.164735 
L 315.722007 166.1944 
L 315.722007 166.1944 
L 316.934051 166.06709 
L 316.934051 166.06709 
L 317.799796 165.662146 
L 317.799796 165.662146 
L 318.319244 165.159799 
L 318.319244 165.159799 
L 318.838691 164.434342 
L 318.838691 164.434342 
L 319.358138 163.560345 
L 319.358138 163.560345 
L 320.223884 161.125269 
L 320.223884 161.125269 
L 320.91648 158.867158 
L 320.91648 158.867158 
L 321.955375 154.273067 
L 321.955375 154.273067 
L 324.033164 141.81334 
L 324.033164 141.81334 
L 326.976698 118.830335 
L 326.976698 118.830335 
L 328.881338 100.420828 
L 328.881338 100.420828 
L 329.227636 99.696429 
L 329.227636 99.696429 
L 329.400785 99.679857 
L 329.400785 99.679857 
L 329.920233 103.978443 
L 329.920233 103.978443 
L 330.266531 107.104442 
L 330.266531 107.104442 
L 330.959127 115.43647 
L 330.959127 115.43647 
L 331.998022 124.26658 
L 331.998022 124.26658 
L 332.34432 127.124713 
L 332.34432 127.124713 
L 332.863767 130.527923 
L 332.863767 130.527923 
L 333.902662 135.28779 
L 333.902662 135.28779 
L 334.422109 136.85525 
L 334.422109 136.85525 
L 334.941556 137.75619 
L 334.941556 137.75619 
L 335.634153 138.328482 
L 335.634153 138.328482 
L 336.673047 138.411007 
L 336.673047 138.411007 
L 337.365644 138.303383 
L 337.365644 138.303383 
L 337.885091 138.094455 
L 337.885091 138.094455 
L 338.577687 137.414569 
L 338.577687 137.414569 
L 339.097135 136.449429 
L 339.097135 136.449429 
L 339.96288 133.06394 
L 339.96288 133.06394 
L 340.482327 130.188177 
L 340.482327 130.188177 
L 341.174924 124.539284 
L 341.174924 124.539284 
L 341.521222 122.127705 
L 341.521222 122.127705 
L 341.86752 120.88481 
L 341.86752 120.88481 
L 342.040669 120.565416 
L 342.040669 120.565416 
L 342.213818 120.51942 
L 342.213818 120.51942 
L 342.733265 122.791745 
L 342.733265 122.791745 
L 343.599011 125.645917 
L 343.599011 125.645917 
L 343.945309 126.13009 
L 343.945309 126.13009 
L 344.291607 126.360518 
L 344.291607 126.360518 
L 344.637905 126.473193 
L 344.637905 126.473193 
L 345.6768 126.043482 
L 345.6768 126.043482 
L 345.849949 125.825543 
L 345.849949 125.825543 
L 346.542545 123.781712 
L 346.542545 123.781712 
L 347.061993 121.176566 
L 347.061993 121.176566 
L 347.754589 115.991192 
L 347.754589 115.991192 
L 348.100887 114.926472 
L 348.100887 114.926472 
L 348.274036 114.793446 
L 350.005527 123.98438 
L 350.005527 123.98438 
L 350.351825 124.798683 
L 350.351825 124.798683 
L 350.871273 125.344364 
L 350.871273 125.344364 
L 351.910167 125.47742 
L 351.910167 125.47742 
L 352.775913 125.346964 
L 352.775913 125.346964 
L 353.641658 124.908424 
L 353.641658 124.908424 
L 355.2 123.213048 
L 355.2 123.213048 
L 356.585193 120.669804 
L 356.585193 120.669804 
L 357.277789 119.022087 
L 357.277789 119.022087 
L 357.970385 116.997489 
L 357.970385 116.997489 
L 359.182429 112.573649 
L 359.182429 112.573649 
L 360.221324 108.184071 
L 360.221324 108.184071 
L 361.606516 102.283642 
L 361.606516 102.283642 
L 362.472262 99.052468 
L 362.472262 99.052468 
L 363.511156 95.886884 
L 363.511156 95.886884 
L 365.588945 89.750614 
L 365.588945 89.750614 
L 366.281542 86.621076 
L 366.281542 86.621076 
L 367.493585 78.161829 
L 367.493585 78.161829 
L 368.359331 69.940299 
L 368.359331 69.940299 
L 369.051927 64.655829 
L 369.051927 64.655829 
L 369.744524 61.077046 
L 369.744524 61.077046 
L 370.43712 58.65337 
L 370.43712 58.65337 
L 371.129716 57.011973 
L 371.129716 57.011973 
L 371.822313 55.900381 
L 371.822313 55.900381 
L 372.514909 55.147556 
L 372.514909 55.147556 
L 373.380655 54.538402 
L 373.380655 54.538402 
L 374.419549 54.108842 
L 374.419549 54.108842 
L 375.804742 53.816059 
L 375.804742 53.816059 
L 377.882531 53.645052 
L 377.882531 53.645052 
L 382.211258 53.574744 
L 382.211258 53.574744 
L 397.275229 53.626968 
L 397.275229 53.626968 
L 397.794676 53.719019 
L 397.794676 53.719019 
L 398.487273 53.703324 
L 398.487273 53.703324 
" clip-path="url(#pb615dc2a6d)" style="fill: none; stroke: #1f77b4; stroke-width: 1.5; stroke-linecap: square"/>
   </g>
   <g id="line2d_36">
    <path d="M 73.832727 53.568 
L 73.832727 268.244784 
L 74.179025 259.702528 
L 74.179025 259.702528 
L 76.603113 219.353448 
L 76.603113 219.353448 
L 79.0272 175.458545 
L 79.0272 175.458545 
L 81.451287 127.706229 
L 81.451287 127.706229 
L 83.875375 75.757507 
L 83.875375 75.757507 
L 84.914269 53.568 
L 84.914269 53.568 
L 98.593047 53.568 
L 98.593047 53.568 
L 98.766196 54.869741 
L 98.766196 54.869741 
L 99.112495 64.501514 
L 99.112495 64.501514 
L 99.285644 64.744462 
L 99.285644 64.744462 
L 99.805091 76.316766 
L 99.805091 76.316766 
L 99.97824 80.835892 
L 99.97824 80.835892 
L 100.151389 80.014392 
L 100.151389 80.014392 
L 101.190284 98.366443 
L 101.190284 98.366443 
L 101.363433 97.498979 
L 101.363433 97.498979 
L 101.709731 104.701723 
L 101.709731 104.701723 
L 101.88288 103.919838 
L 101.88288 103.919838 
L 102.056029 106.78538 
L 102.056029 106.78538 
L 102.229178 107.550845 
L 102.229178 107.550845 
L 103.094924 117.491489 
L 103.094924 117.491489 
L 103.268073 117.081042 
L 103.268073 117.081042 
L 103.441222 119.158016 
L 103.441222 119.158016 
L 103.614371 119.553555 
L 103.614371 119.553555 
L 103.78752 121.020618 
L 103.78752 121.020618 
L 103.960669 123.495248 
L 103.960669 123.495248 
L 104.133818 123.20192 
L 104.133818 123.20192 
L 104.306967 124.893606 
L 104.306967 124.893606 
L 104.480116 125.039454 
L 104.480116 125.039454 
L 104.826415 127.094897 
L 104.826415 127.094897 
L 104.999564 127.805053 
L 104.999564 127.805053 
L 105.172713 129.220376 
L 105.172713 129.220376 
L 105.345862 129.251856 
L 105.345862 129.251856 
L 105.519011 130.350384 
L 105.519011 130.350384 
L 105.69216 130.446003 
L 105.69216 130.446003 
L 106.038458 131.374855 
L 106.038458 131.374855 
L 106.557905 132.150148 
L 106.557905 132.150148 
L 106.904204 132.461136 
L 106.904204 132.461136 
L 108.116247 132.561261 
L 108.116247 132.561261 
L 108.635695 132.188522 
L 108.635695 132.188522 
L 108.808844 132.395999 
L 108.808844 132.395999 
L 108.981993 131.857394 
L 108.981993 131.857394 
L 109.155142 132.046727 
L 109.155142 132.046727 
L 109.328291 131.306603 
L 109.328291 131.306603 
L 109.50144 131.424388 
L 109.50144 131.424388 
L 109.674589 130.53385 
L 109.674589 130.53385 
L 109.847738 130.482019 
L 109.847738 130.482019 
L 110.367185 128.047578 
L 110.367185 128.047578 
L 110.540335 125.126575 
L 110.540335 125.126575 
L 110.713484 126.019835 
L 110.713484 126.019835 
L 110.886633 122.962268 
L 110.886633 122.962268 
L 111.059782 123.33038 
L 111.059782 123.33038 
L 111.232931 120.03927 
L 111.232931 120.03927 
L 111.40608 119.83769 
L 111.40608 119.83769 
L 111.752378 115.611741 
L 111.752378 115.611741 
L 111.925527 113.16596 
L 111.925527 113.16596 
L 112.098676 105.704633 
L 112.098676 105.704633 
L 112.271825 107.643864 
L 112.271825 107.643864 
L 112.444975 100.608286 
L 112.444975 100.608286 
L 112.618124 100.929797 
L 112.618124 100.929797 
L 112.791273 95.433949 
L 112.791273 95.433949 
L 112.964422 93.705612 
L 112.964422 93.705612 
L 113.137571 90.472019 
L 113.137571 90.472019 
L 113.31072 92.756107 
L 113.31072 92.756107 
L 113.483869 92.597226 
L 113.483869 92.597226 
L 113.657018 95.225475 
L 113.657018 95.225475 
L 113.830167 96.030585 
L 114.176465 99.539271 
L 114.176465 99.539271 
L 114.349615 99.727062 
L 114.349615 99.727062 
L 114.695913 101.516967 
L 114.695913 101.516967 
L 115.042211 102.0188 
L 115.042211 102.0188 
L 115.561658 102.731376 
L 115.561658 102.731376 
L 115.734807 102.449629 
L 115.734807 102.449629 
L 115.907956 102.601374 
L 115.907956 102.601374 
L 116.254255 102.426587 
L 116.254255 102.426587 
L 116.427404 102.816017 
L 116.427404 102.816017 
L 116.600553 102.460758 
L 116.600553 102.460758 
L 116.773702 102.592725 
L 116.773702 102.592725 
L 117.293149 102.228273 
L 117.293149 102.228273 
L 117.466298 102.173327 
L 117.466298 102.173327 
L 117.639447 101.244354 
L 117.639447 101.244354 
L 117.812596 101.422619 
L 117.812596 101.422619 
L 117.985745 101.107125 
L 117.985745 101.107125 
L 118.158895 99.734047 
L 118.158895 99.734047 
L 118.332044 100.300654 
L 118.332044 100.300654 
L 118.505193 99.104783 
L 118.505193 99.104783 
L 118.678342 98.901177 
L 118.678342 98.901177 
L 118.851491 98.308231 
L 118.851491 98.308231 
L 119.02464 96.530845 
L 119.02464 96.530845 
L 119.197789 96.401871 
L 119.197789 96.401871 
L 119.370938 95.282749 
L 119.370938 95.282749 
L 119.544087 92.894939 
L 119.544087 92.894939 
L 119.717236 92.927991 
L 119.717236 92.927991 
L 119.890385 91.640039 
L 119.890385 91.640039 
L 120.063535 87.888072 
L 120.063535 87.888072 
L 120.236684 88.100508 
L 120.409833 85.702506 
L 120.409833 85.702506 
L 120.582982 80.903267 
L 120.582982 80.903267 
L 120.756131 81.43673 
L 120.756131 81.43673 
L 120.92928 77.846396 
L 120.92928 77.846396 
L 121.102429 79.50639 
L 121.102429 79.50639 
L 121.275578 79.378747 
L 121.275578 79.378747 
L 121.448727 83.173746 
L 121.448727 83.173746 
L 121.621876 89.768788 
L 121.621876 89.768788 
L 121.795025 89.440896 
L 121.795025 89.440896 
L 122.141324 97.625624 
L 122.314473 97.477478 
L 122.660771 103.515499 
L 122.83392 103.406121 
L 123.699665 111.90344 
L 123.699665 111.90344 
L 123.872815 111.571344 
L 123.872815 111.571344 
L 124.045964 112.941791 
L 124.045964 112.941791 
L 124.219113 113.22272 
L 124.219113 113.22272 
L 124.73856 115.449594 
L 124.73856 115.449594 
L 125.431156 116.911305 
L 125.431156 116.911305 
L 125.777455 117.178021 
L 125.777455 117.178021 
L 125.950604 116.873081 
L 125.950604 116.873081 
L 126.296902 117.244126 
L 126.296902 117.244126 
L 126.6432 117.439597 
L 126.6432 117.439597 
L 126.816349 117.228159 
L 126.989498 117.48656 
L 126.989498 117.48656 
L 127.162647 117.196498 
L 127.162647 117.196498 
L 127.335796 117.34159 
L 127.335796 117.34159 
L 127.682095 117.107774 
L 127.682095 117.107774 
L 127.855244 117.463578 
L 127.855244 117.463578 
L 128.028393 117.049532 
L 128.028393 117.049532 
L 128.374691 117.307056 
L 128.374691 117.307056 
L 128.54784 117.395205 
L 128.54784 117.395205 
L 128.720989 117.289123 
L 128.720989 117.289123 
L 128.894138 116.681511 
L 128.894138 116.681511 
L 129.067287 116.97871 
L 129.067287 116.97871 
L 129.240436 116.874261 
L 129.240436 116.874261 
L 129.413585 117.00018 
L 129.413585 117.00018 
L 129.586735 116.8628 
L 129.586735 116.8628 
L 129.759884 116.27693 
L 129.759884 116.27693 
L 129.933033 116.727355 
L 129.933033 116.727355 
L 130.106182 116.134802 
L 130.106182 116.134802 
L 130.279331 116.326856 
L 130.279331 116.326856 
L 130.45248 115.787042 
L 130.45248 115.787042 
L 130.625629 115.750603 
L 130.625629 115.750603 
L 130.798778 116.035282 
L 130.798778 116.035282 
L 130.971927 115.160348 
L 130.971927 115.160348 
L 131.145076 115.437982 
L 131.145076 115.437982 
L 131.318225 114.916946 
L 131.318225 114.916946 
L 131.664524 115.055476 
L 131.664524 115.055476 
L 131.837673 113.900247 
L 131.837673 113.900247 
L 132.010822 114.272532 
L 132.010822 114.272532 
L 132.183971 113.522278 
L 132.183971 113.522278 
L 132.35712 113.655817 
L 132.876567 113.071823 
L 132.876567 113.071823 
L 133.049716 112.356495 
L 133.049716 112.356495 
L 133.222865 112.532462 
L 133.222865 112.532462 
L 133.396015 111.794939 
L 133.396015 111.794939 
L 133.742313 111.405599 
L 133.742313 111.405599 
L 133.915462 110.668347 
L 133.915462 110.668347 
L 134.088611 110.850695 
L 134.088611 110.850695 
L 134.26176 110.574059 
L 134.26176 110.574059 
L 134.781207 108.74714 
L 134.781207 108.74714 
L 134.954356 108.906746 
L 134.954356 108.906746 
L 135.127505 108.66156 
L 135.127505 108.66156 
L 135.300655 107.082307 
L 135.300655 107.082307 
L 135.473804 108.028577 
L 135.473804 108.028577 
L 135.646953 106.822212 
L 135.646953 106.822212 
L 135.820102 106.916622 
L 135.820102 106.916622 
L 135.993251 106.516244 
L 135.993251 106.516244 
L 136.1664 104.961666 
L 136.1664 104.961666 
L 136.339549 105.713796 
L 136.339549 105.713796 
L 136.512698 104.423304 
L 136.512698 104.423304 
L 136.685847 104.405825 
L 136.685847 104.405825 
L 136.858996 104.11041 
L 136.858996 104.11041 
L 137.032145 102.911455 
L 137.032145 102.911455 
L 137.205295 103.121441 
L 137.205295 103.121441 
L 137.378444 102.339828 
L 137.378444 102.339828 
L 137.551593 100.838382 
L 137.551593 100.838382 
L 137.724742 101.282184 
L 137.724742 101.282184 
L 137.897891 100.469484 
L 137.897891 100.469484 
L 138.07104 100.235638 
L 138.07104 100.235638 
L 138.244189 99.578009 
L 138.244189 99.578009 
L 138.417338 98.247509 
L 138.417338 98.247509 
L 138.590487 98.448484 
L 138.590487 98.448484 
L 138.763636 97.59118 
L 138.763636 97.59118 
L 138.936785 96.120397 
L 138.936785 96.120397 
L 139.109935 96.755891 
L 139.109935 96.755891 
L 139.283084 95.411935 
L 139.283084 95.411935 
L 139.456233 95.224961 
L 139.456233 95.224961 
L 139.629382 94.428953 
L 139.629382 94.428953 
L 139.802531 93.07284 
L 139.802531 93.07284 
L 139.97568 93.013419 
L 139.97568 93.013419 
L 140.148829 92.154663 
L 140.321978 90.552881 
L 140.321978 90.552881 
L 140.495127 90.607524 
L 140.495127 90.607524 
L 140.668276 89.68209 
L 140.668276 89.68209 
L 140.841425 87.85889 
L 140.841425 87.85889 
L 141.014575 87.99751 
L 141.014575 87.99751 
L 141.187724 87.145165 
L 141.187724 87.145165 
L 141.360873 84.996099 
L 141.360873 84.996099 
L 141.534022 85.177509 
L 141.534022 85.177509 
L 141.707171 84.115148 
L 141.707171 84.115148 
L 141.88032 81.971797 
L 141.88032 81.971797 
L 142.053469 82.136424 
L 142.053469 82.136424 
L 142.226618 80.9743 
L 142.226618 80.9743 
L 142.399767 78.790972 
L 142.399767 78.790972 
L 142.572916 78.728436 
L 142.572916 78.728436 
L 142.746065 77.613215 
L 142.746065 77.613215 
L 142.919215 75.379507 
L 142.919215 75.379507 
L 143.092364 75.117931 
L 143.092364 75.117931 
L 143.265513 73.918099 
L 143.265513 73.918099 
L 143.611811 68.960976 
L 143.611811 68.960976 
L 143.78496 69.973291 
L 143.78496 69.973291 
L 144.131258 65.154123 
L 144.131258 65.154123 
L 144.304407 65.355492 
L 144.304407 65.355492 
L 144.477556 63.978695 
L 144.477556 63.978695 
L 144.823855 58.019268 
L 144.823855 58.019268 
L 144.997004 58.750108 
L 144.997004 58.750108 
L 145.170153 57.130665 
L 145.170153 57.130665 
L 145.343302 54.280364 
L 145.343302 54.280364 
L 145.516451 54.169685 
L 145.516451 54.169685 
L 145.6896 53.568 
L 145.6896 53.568 
L 155.732247 53.568 
L 155.732247 53.568 
L 155.905396 55.278828 
L 155.905396 55.278828 
L 156.078545 60.090072 
L 156.078545 60.090072 
L 156.251695 60.2674 
L 156.251695 60.2674 
L 156.771142 72.123204 
L 156.771142 72.123204 
L 156.944291 76.661532 
L 156.944291 76.661532 
L 157.11744 75.912457 
L 157.11744 75.912457 
L 158.156335 95.996897 
L 158.329484 95.44287 
L 158.502633 98.177594 
L 158.502633 98.177594 
L 158.675782 103.422541 
L 158.675782 103.422541 
L 158.848931 103.069852 
L 158.848931 103.069852 
L 159.02208 105.799224 
L 159.02208 105.799224 
L 159.195229 110.905762 
L 159.195229 110.905762 
L 159.368378 110.019488 
L 159.368378 110.019488 
L 159.541527 113.628783 
L 159.541527 113.628783 
L 159.714676 114.734025 
L 159.714676 114.734025 
L 159.887825 117.197163 
L 159.887825 117.197163 
L 160.060975 121.25649 
L 160.060975 121.25649 
L 160.234124 121.292083 
L 160.234124 121.292083 
L 160.580422 125.044322 
L 160.580422 125.044322 
L 160.753571 127.026706 
L 160.753571 127.026706 
L 160.92672 131.034413 
L 160.92672 131.034413 
L 161.099869 130.54522 
L 161.099869 130.54522 
L 161.273018 133.536138 
L 161.273018 133.536138 
L 161.446167 133.91825 
L 161.446167 133.91825 
L 161.792465 136.944307 
L 161.792465 136.944307 
L 162.485062 144.284916 
L 162.485062 144.284916 
L 162.658211 143.396011 
L 162.658211 143.396011 
L 162.83136 146.299111 
L 162.83136 146.299111 
L 163.004509 145.843273 
L 163.004509 145.843273 
L 163.177658 148.181642 
L 163.177658 148.181642 
L 163.350807 147.737507 
L 163.350807 147.737507 
L 163.523956 149.920684 
L 163.523956 149.920684 
L 163.697105 149.448396 
L 163.697105 149.448396 
L 163.870255 151.575024 
L 163.870255 151.575024 
L 164.043404 151.281 
L 164.043404 151.281 
L 164.216553 152.962767 
L 164.389702 152.7627 
L 164.389702 152.7627 
L 164.562851 154.221477 
L 164.562851 154.221477 
L 164.736 153.770236 
L 164.736 153.770236 
L 165.428596 156.122696 
L 165.428596 156.122696 
L 165.601745 156.278614 
L 165.601745 156.278614 
L 166.121193 157.49411 
L 166.121193 157.49411 
L 166.294342 157.517123 
L 166.294342 157.517123 
L 166.64064 157.921885 
L 166.64064 157.921885 
L 167.333236 158.563125 
L 167.333236 158.563125 
L 167.506385 158.333996 
L 167.506385 158.333996 
L 167.679535 158.531917 
L 167.679535 158.531917 
L 167.852684 158.340528 
L 167.852684 158.340528 
L 168.025833 158.450329 
L 168.025833 158.450329 
L 168.198982 158.327162 
L 168.198982 158.327162 
L 168.372131 158.591006 
L 168.372131 158.591006 
L 168.54528 158.308625 
L 168.54528 158.308625 
L 168.718429 158.582357 
L 168.718429 158.582357 
L 168.891578 158.257096 
L 168.891578 158.257096 
L 169.064727 158.402611 
L 169.064727 158.402611 
L 169.237876 158.134684 
L 169.237876 158.134684 
L 169.411025 158.571985 
L 169.584175 157.913842 
L 169.584175 157.913842 
L 169.757324 158.500921 
L 169.757324 158.500921 
L 170.103622 157.973717 
L 170.103622 157.973717 
L 170.796218 157.050732 
L 170.796218 157.050732 
L 171.315665 156.090521 
L 171.315665 156.090521 
L 171.661964 155.503714 
L 171.661964 155.503714 
L 171.835113 154.573713 
L 171.835113 154.573713 
L 172.008262 154.600415 
L 172.008262 154.600415 
L 172.181411 153.460941 
L 172.181411 153.460941 
L 172.35456 153.591034 
L 172.35456 153.591034 
L 172.527709 152.019189 
L 172.527709 152.019189 
L 172.700858 152.269425 
L 172.874007 150.88032 
L 172.874007 150.88032 
L 173.047156 151.26591 
L 173.047156 151.26591 
L 173.220305 149.214792 
L 173.220305 149.214792 
L 173.393455 149.746199 
L 173.393455 149.746199 
L 173.566604 147.668892 
L 173.566604 147.668892 
L 173.739753 148.550842 
L 173.739753 148.550842 
L 173.912902 146.040045 
L 173.912902 146.040045 
L 174.086051 146.844187 
L 174.086051 146.844187 
L 174.605498 144.565724 
L 174.605498 144.565724 
L 175.124945 141.68733 
L 175.124945 141.68733 
L 175.298095 141.086642 
L 175.298095 141.086642 
L 175.817542 137.972043 
L 175.817542 137.972043 
L 175.990691 137.335219 
L 175.990691 137.335219 
L 176.510138 134.140696 
L 176.510138 134.140696 
L 176.856436 132.147094 
L 176.856436 132.147094 
L 177.029585 129.173473 
L 177.029585 129.173473 
L 177.202735 130.116447 
L 177.202735 130.116447 
L 177.375884 127.215585 
L 177.375884 127.215585 
L 177.549033 127.996654 
L 177.549033 127.996654 
L 177.722182 125.280829 
L 177.722182 125.280829 
L 177.895331 125.844201 
L 177.895331 125.844201 
L 178.06848 123.369873 
L 178.06848 123.369873 
L 178.241629 123.684036 
L 178.241629 123.684036 
L 178.414778 121.501706 
L 178.414778 121.501706 
L 178.587927 121.514679 
L 178.587927 121.514679 
L 178.761076 119.612825 
L 178.761076 119.612825 
L 178.934225 119.348709 
L 178.934225 119.348709 
L 179.280524 117.025461 
L 179.280524 117.025461 
L 179.453673 115.717429 
L 179.453673 115.717429 
L 179.626822 113.009226 
L 179.626822 113.009226 
L 179.799971 113.937261 
L 179.799971 113.937261 
L 179.97312 111.622873 
L 179.97312 111.622873 
L 180.146269 111.638144 
L 180.146269 111.638144 
L 180.838865 106.143143 
L 180.838865 106.143143 
L 181.012015 106.648 
L 181.012015 106.648 
L 181.185164 105.236639 
L 181.185164 105.236639 
L 181.531462 104.053196 
L 181.531462 104.053196 
L 181.704611 101.307404 
L 181.704611 101.307404 
L 181.87776 101.917617 
L 181.87776 101.917617 
L 182.050909 100.552704 
L 182.050909 100.552704 
L 182.224058 100.177184 
L 182.224058 100.177184 
L 182.397207 99.335303 
L 182.397207 99.335303 
L 182.570356 96.955626 
L 182.570356 96.955626 
L 182.743505 97.228028 
L 182.743505 97.228028 
L 182.916655 95.706744 
L 182.916655 95.706744 
L 183.089804 92.889919 
L 183.089804 92.889919 
L 183.262953 93.895338 
L 183.262953 93.895338 
L 183.436102 91.399873 
L 183.436102 91.399873 
L 183.609251 91.169444 
L 183.609251 91.169444 
L 183.7824 89.903658 
L 183.7824 89.903658 
L 183.955549 86.437519 
L 183.955549 86.437519 
L 184.128698 86.508039 
L 184.128698 86.508039 
L 184.301847 84.523872 
L 184.301847 84.523872 
L 184.474996 80.500046 
L 184.474996 80.500046 
L 184.648145 80.834229 
L 184.648145 80.834229 
L 184.821295 78.069718 
L 184.821295 78.069718 
L 184.994444 73.111416 
L 184.994444 73.111416 
L 185.167593 73.551802 
L 185.167593 73.551802 
L 185.340742 70.315728 
L 185.513891 64.729735 
L 185.513891 64.729735 
L 185.68704 64.853145 
L 185.68704 64.853145 
L 185.860189 61.239223 
L 185.860189 61.239223 
L 186.033338 54.835752 
L 186.033338 54.835752 
L 186.206487 54.859188 
L 186.206487 54.859188 
L 186.379636 55.129956 
L 186.379636 55.129956 
L 186.725935 65.397616 
L 186.725935 65.397616 
L 186.899084 65.551296 
L 187.245382 73.561781 
L 187.245382 73.561781 
L 187.418531 79.339556 
L 187.418531 79.339556 
L 187.59168 78.98723 
L 187.59168 78.98723 
L 187.764829 81.969015 
L 187.764829 81.969015 
L 187.937978 87.066814 
L 187.937978 87.066814 
L 188.111127 88.226034 
L 188.111127 88.226034 
L 188.457425 95.11277 
L 188.457425 95.11277 
L 188.630575 101.313543 
L 188.630575 101.313543 
L 188.803724 100.300654 
L 188.803724 100.300654 
L 189.150022 110.223577 
L 189.150022 110.223577 
L 189.323171 108.919568 
L 189.323171 108.919568 
L 189.669469 119.658457 
L 189.669469 119.658457 
L 189.842618 117.556173 
L 189.842618 117.556173 
L 190.015767 122.690622 
L 190.015767 122.690622 
L 190.188916 122.654969 
L 190.188916 122.654969 
L 190.535215 128.016703 
L 190.535215 128.016703 
L 190.708364 130.536572 
L 190.708364 130.536572 
L 190.881513 136.233576 
L 190.881513 136.233576 
L 191.054662 135.05346 
L 191.054662 135.05346 
L 191.227811 139.638933 
L 191.227811 139.638933 
L 191.40096 139.337682 
L 191.40096 139.337682 
L 191.574109 143.071687 
L 191.574109 143.071687 
L 191.747258 143.332749 
L 191.747258 143.332749 
L 191.920407 146.611188 
L 191.920407 146.611188 
L 192.093556 147.064153 
L 192.093556 147.064153 
L 192.266705 149.844237 
L 192.266705 149.844237 
L 192.439855 150.389525 
L 192.439855 150.389525 
L 192.613004 153.274481 
L 192.613004 153.274481 
L 192.786153 153.510777 
L 192.786153 153.510777 
L 192.959302 156.336402 
L 192.959302 156.336402 
L 193.132451 156.503871 
L 193.132451 156.503871 
L 193.3056 158.911036 
L 193.3056 158.911036 
L 193.478749 158.801174 
L 193.478749 158.801174 
L 193.651898 161.553407 
L 193.651898 161.553407 
L 193.825047 161.176828 
L 193.998196 164.013643 
L 193.998196 164.013643 
L 194.171345 163.403883 
L 194.171345 163.403883 
L 195.556538 169.882773 
L 195.556538 169.882773 
L 195.729687 169.896079 
L 195.729687 169.896079 
L 195.902836 170.970415 
L 195.902836 170.970415 
L 196.075985 170.808117 
L 196.075985 170.808117 
L 196.422284 171.665996 
L 196.422284 171.665996 
L 196.595433 171.583803 
L 196.595433 171.583803 
L 196.768582 172.273185 
L 196.768582 172.273185 
L 196.941731 172.248297 
L 196.941731 172.248297 
L 197.11488 172.347454 
L 197.11488 172.347454 
L 197.288029 172.644562 
L 197.461178 172.616409 
L 197.461178 172.616409 
L 198.153775 173.158491 
L 198.153775 173.158491 
L 198.326924 173.087215 
L 198.326924 173.087215 
L 198.673222 173.324781 
L 198.673222 173.324781 
L 198.846371 173.041492 
L 198.846371 173.041492 
L 199.01952 173.31719 
L 199.01952 173.31719 
L 199.192669 173.050111 
L 199.192669 173.050111 
L 199.538967 173.364697 
L 199.538967 173.364697 
L 199.712116 173.255985 
L 199.885265 173.335486 
L 199.885265 173.335486 
L 200.058415 172.967435 
L 200.058415 172.967435 
L 200.231564 173.274159 
L 200.231564 173.274159 
L 200.404713 172.956064 
L 200.404713 172.956064 
L 200.751011 173.178721 
L 200.751011 173.178721 
L 200.92416 172.81185 
L 200.92416 172.81185 
L 201.097309 172.955308 
L 201.097309 172.955308 
L 201.270458 171.886506 
L 201.270458 171.886506 
L 201.443607 172.559951 
L 201.443607 172.559951 
L 201.789905 171.835491 
L 201.789905 171.835491 
L 201.963055 171.953669 
L 201.963055 171.953669 
L 202.136204 170.598131 
L 202.136204 170.598131 
L 202.309353 171.234773 
L 202.309353 171.234773 
L 202.8288 169.744244 
L 202.8288 169.744244 
L 203.001949 168.314315 
L 203.001949 168.314315 
L 203.175098 168.861357 
L 203.175098 168.861357 
L 203.348247 166.486428 
L 203.348247 166.486428 
L 203.521396 167.398013 
L 203.521396 167.398013 
L 203.694545 166.812536 
L 203.694545 166.812536 
L 203.867695 165.126989 
L 203.867695 165.126989 
L 204.040844 164.934058 
L 204.040844 164.934058 
L 204.213993 162.762281 
L 204.213993 162.762281 
L 204.387142 163.446733 
L 204.387142 163.446733 
L 204.560291 160.043887 
L 204.560291 160.043887 
L 204.73344 161.429907 
L 204.73344 161.429907 
L 204.906589 160.330834 
L 204.906589 160.330834 
L 205.079738 158.311407 
L 205.079738 158.311407 
L 205.252887 158.056968 
L 205.252887 158.056968 
L 205.426036 155.104062 
L 205.426036 155.104062 
L 205.599185 155.479673 
L 205.599185 155.479673 
L 205.772335 151.826953 
L 205.772335 151.826953 
L 205.945484 152.86231 
L 205.945484 152.86231 
L 206.464931 148.849402 
L 206.464931 148.849402 
L 206.63808 146.128134 
L 206.63808 146.128134 
L 206.811229 145.493155 
L 206.984378 142.201652 
L 206.984378 142.201652 
L 207.157527 142.078726 
L 207.157527 142.078726 
L 207.330676 138.005307 
L 207.330676 138.005307 
L 207.503825 138.369941 
L 207.503825 138.369941 
L 207.676975 133.51125 
L 207.676975 133.51125 
L 207.850124 134.547242 
L 207.850124 134.547242 
L 208.023273 128.93361 
L 208.023273 128.93361 
L 208.196422 130.121407 
L 208.196422 130.121407 
L 208.369571 124.068568 
L 208.369571 124.068568 
L 208.54272 125.190926 
L 208.54272 125.190926 
L 208.715869 119.219705 
L 208.715869 119.219705 
L 208.889018 119.978518 
L 208.889018 119.978518 
L 209.062167 114.237847 
L 209.062167 114.237847 
L 209.235316 114.824745 
L 209.235316 114.824745 
L 209.408465 109.138082 
L 209.408465 109.138082 
L 209.581615 109.148001 
L 209.581615 109.148001 
L 209.754764 104.127647 
L 209.754764 104.127647 
L 209.927913 103.158425 
L 209.927913 103.158425 
L 210.620509 87.728888 
L 210.620509 87.728888 
L 210.793658 87.997359 
L 210.793658 87.997359 
L 211.139956 82.162007 
L 211.139956 82.162007 
L 211.313105 78.95696 
L 211.313105 78.95696 
L 211.486255 73.262768 
L 211.486255 73.262768 
L 211.659404 72.990003 
L 211.659404 72.990003 
L 211.832553 70.179316 
L 211.832553 70.179316 
L 212.005702 64.329388 
L 212.005702 64.329388 
L 212.178851 64.447203 
L 212.178851 64.447203 
L 212.871447 53.772574 
L 212.871447 53.772574 
L 213.044596 53.568 
L 213.044596 53.568 
L 218.585367 53.568 
L 218.585367 53.568 
L 218.758516 53.707951 
L 218.758516 53.707951 
L 219.104815 57.984219 
L 219.104815 57.984219 
L 219.277964 61.052067 
L 219.277964 61.052067 
L 219.451113 61.439865 
L 219.451113 61.439865 
L 219.797411 65.847557 
L 219.797411 65.847557 
L 220.143709 72.342837 
L 220.143709 72.342837 
L 220.316858 72.281056 
L 220.316858 72.281056 
L 220.490007 74.06065 
L 220.836305 81.21867 
L 220.836305 81.21867 
L 221.009455 80.533976 
L 221.009455 80.533976 
L 221.182604 82.689574 
L 221.182604 82.689574 
L 221.355753 86.52963 
L 221.355753 86.52963 
L 221.528902 86.826466 
L 221.528902 86.826466 
L 221.702051 88.839755 
L 221.702051 88.839755 
L 221.8752 92.173624 
L 222.048349 93.114935 
L 222.048349 93.114935 
L 222.221498 94.985006 
L 222.567796 101.831736 
L 222.567796 101.831736 
L 222.740945 100.821901 
L 222.740945 100.821901 
L 222.914095 103.819229 
L 222.914095 103.819229 
L 223.087244 104.845061 
L 223.087244 104.845061 
L 223.952989 115.213843 
L 223.952989 115.213843 
L 224.126138 115.007727 
L 224.126138 115.007727 
L 224.299287 117.219269 
L 224.299287 117.219269 
L 224.472436 117.911402 
L 224.472436 117.911402 
L 225.165033 124.092428 
L 225.165033 124.092428 
L 225.338182 124.61682 
L 225.338182 124.61682 
L 225.511331 125.707244 
L 225.511331 125.707244 
L 225.68448 128.17259 
L 225.68448 128.17259 
L 225.857629 127.679315 
L 225.857629 127.679315 
L 226.030778 129.29144 
L 226.030778 129.29144 
L 226.203927 129.509228 
L 226.377076 130.753241 
L 226.377076 130.753241 
L 226.550225 131.084309 
L 226.550225 131.084309 
L 226.896524 132.409909 
L 226.896524 132.409909 
L 227.069673 132.866957 
L 227.069673 132.866957 
L 227.242822 133.768139 
L 227.242822 133.768139 
L 227.415971 133.844949 
L 227.415971 133.844949 
L 227.58912 134.57724 
L 227.58912 134.57724 
L 227.762269 134.604366 
L 227.762269 134.604366 
L 227.935418 135.029782 
L 227.935418 135.029782 
L 228.974313 135.678612 
L 228.974313 135.678612 
L 229.147462 135.616136 
L 229.147462 135.616136 
L 229.320611 135.73011 
L 229.320611 135.73011 
L 229.49376 135.630802 
L 229.49376 135.630802 
L 229.666909 135.747226 
L 229.666909 135.747226 
L 229.840058 135.645831 
L 229.840058 135.645831 
L 230.013207 135.763767 
L 230.013207 135.763767 
L 230.186356 135.633645 
L 230.186356 135.633645 
L 230.359505 135.752609 
L 230.359505 135.752609 
L 230.532655 135.560615 
L 230.532655 135.560615 
L 230.705804 135.664217 
L 230.705804 135.664217 
L 230.878953 135.3949 
L 230.878953 135.3949 
L 231.052102 135.44906 
L 231.052102 135.44906 
L 231.225251 135.048803 
L 231.225251 135.048803 
L 231.3984 135.058026 
L 231.3984 135.058026 
L 231.571549 134.640291 
L 231.571549 134.640291 
L 231.744698 133.540674 
L 231.744698 133.540674 
L 231.917847 133.913775 
L 232.090996 132.604776 
L 232.090996 132.604776 
L 232.264145 132.909051 
L 232.264145 132.909051 
L 232.437295 131.413229 
L 232.437295 131.413229 
L 232.610444 131.576525 
L 232.610444 131.576525 
L 232.783593 129.929988 
L 232.783593 129.929988 
L 232.956742 129.871806 
L 232.956742 129.871806 
L 233.129891 128.102191 
L 233.129891 128.102191 
L 233.30304 127.668066 
L 233.30304 127.668066 
L 233.822487 123.129798 
L 233.822487 123.129798 
L 233.995636 118.520889 
L 233.995636 118.520889 
L 234.168785 120.000411 
L 234.168785 120.000411 
L 234.341935 115.393105 
L 234.341935 115.393105 
L 234.515084 115.814197 
L 234.515084 115.814197 
L 234.688233 111.777581 
L 234.688233 111.777581 
L 234.861382 110.830555 
L 234.861382 110.830555 
L 235.553978 95.488079 
L 235.553978 95.488079 
L 235.727127 96.485304 
L 235.900276 90.165688 
L 235.900276 90.165688 
L 236.073425 88.992557 
L 236.073425 88.992557 
L 236.246575 85.114156 
L 236.246575 85.114156 
L 236.419724 77.271775 
L 236.419724 77.271775 
L 236.592873 78.00449 
L 236.592873 78.00449 
L 236.939171 67.219183 
L 236.939171 67.219183 
L 237.11232 68.173527 
L 237.11232 68.173527 
L 237.458618 59.958559 
L 237.458618 59.958559 
L 237.631767 60.407472 
L 237.631767 60.407472 
L 237.978065 53.812521 
L 237.978065 53.812521 
L 238.151215 53.988034 
L 238.151215 53.988034 
L 238.324364 53.568 
L 238.324364 53.568 
L 244.384582 53.568 
L 244.384582 53.568 
L 244.557731 54.131916 
L 244.557731 54.131916 
L 244.904029 58.600238 
L 244.904029 58.600238 
L 245.077178 58.621346 
L 245.077178 58.621346 
L 245.423476 61.622666 
L 245.423476 61.622666 
L 245.596625 63.942165 
L 245.596625 63.942165 
L 245.769775 64.454944 
L 245.769775 64.454944 
L 246.116073 67.412568 
L 246.116073 67.412568 
L 246.462371 71.482932 
L 246.462371 71.482932 
L 246.63552 71.550004 
L 246.63552 71.550004 
L 246.808669 73.000073 
L 246.808669 73.000073 
L 247.154967 77.953294 
L 247.154967 77.953294 
L 247.328116 77.600151 
L 247.328116 77.600151 
L 248.193862 85.452119 
L 248.193862 85.452119 
L 248.367011 87.726953 
L 248.367011 87.726953 
L 248.54016 87.698951 
L 248.54016 87.698951 
L 248.713309 89.136107 
L 248.713309 89.136107 
L 248.886458 91.533171 
L 248.886458 91.533171 
L 249.059607 91.585093 
L 249.059607 91.585093 
L 249.232756 92.652535 
L 249.232756 92.652535 
L 249.405905 94.760384 
L 249.405905 94.760384 
L 249.579055 94.974906 
L 249.752204 95.891874 
L 249.752204 95.891874 
L 249.925353 97.547 
L 249.925353 97.547 
L 250.098502 97.788648 
L 250.098502 97.788648 
L 250.617949 100.002155 
L 250.617949 100.002155 
L 250.964247 101.529517 
L 250.964247 101.529517 
L 251.137396 101.63578 
L 251.137396 101.63578 
L 251.829993 102.988899 
L 251.829993 102.988899 
L 252.34944 103.658413 
L 252.34944 103.658413 
L 252.868887 103.507727 
L 252.868887 103.507727 
L 253.215185 103.752006 
L 253.215185 103.752006 
L 253.388335 103.488857 
L 253.388335 103.488857 
L 253.561484 103.640057 
L 253.561484 103.640057 
L 253.734633 103.956398 
L 253.734633 103.956398 
L 253.907782 103.365448 
L 253.907782 103.365448 
L 254.080931 103.768577 
L 254.080931 103.768577 
L 254.25408 103.552875 
L 254.25408 103.552875 
L 254.427229 102.852638 
L 254.427229 102.852638 
L 254.600378 103.346034 
L 254.600378 103.346034 
L 254.773527 102.608268 
L 254.773527 102.608268 
L 254.946676 102.644042 
L 254.946676 102.644042 
L 255.119825 102.434237 
L 255.119825 102.434237 
L 255.292975 101.242932 
L 255.292975 101.242932 
L 255.466124 101.345295 
L 255.466124 101.345295 
L 255.639273 100.677414 
L 255.639273 100.677414 
L 255.812422 99.164235 
L 255.812422 99.164235 
L 255.985571 99.446525 
L 255.985571 99.446525 
L 256.15872 98.349751 
L 256.15872 98.349751 
L 256.331869 96.415933 
L 256.331869 96.415933 
L 256.505018 97.202385 
L 256.505018 97.202385 
L 256.678167 95.628665 
L 256.678167 95.628665 
L 256.851316 95.106329 
L 256.851316 95.106329 
L 257.024465 94.214612 
L 257.024465 94.214612 
L 257.197615 91.92871 
L 257.197615 91.92871 
L 257.370764 91.80899 
L 257.370764 91.80899 
L 257.543913 90.775266 
L 257.543913 90.775266 
L 257.717062 88.071054 
L 257.717062 88.071054 
L 257.890211 88.110124 
L 257.890211 88.110124 
L 258.06336 86.935058 
L 258.06336 86.935058 
L 258.236509 83.909092 
L 258.236509 83.909092 
L 258.409658 84.042844 
L 258.582807 82.72695 
L 258.582807 82.72695 
L 258.755956 79.502943 
L 258.755956 79.502943 
L 258.929105 79.634608 
L 258.929105 79.634608 
L 259.794851 70.067579 
L 259.794851 70.067579 
L 259.968 69.472395 
L 259.968 69.472395 
L 260.314298 64.86258 
L 260.314298 64.86258 
L 260.487447 61.011062 
L 260.487447 61.011062 
L 260.660596 61.771386 
L 260.660596 61.771386 
L 260.833745 59.675482 
L 260.833745 59.675482 
L 261.006895 55.494953 
L 261.006895 55.494953 
L 261.180044 55.179671 
L 261.180044 55.179671 
L 261.353193 53.568 
L 261.353193 53.568 
L 278.841251 53.568 
L 278.841251 53.568 
L 279.0144 55.748637 
L 279.0144 55.748637 
L 279.533847 71.689955 
L 279.533847 71.689955 
L 279.706996 70.243697 
L 279.706996 70.243697 
L 280.053295 79.965857 
L 280.053295 79.965857 
L 280.226444 86.166145 
L 280.226444 86.166145 
L 280.399593 84.743293 
L 280.399593 84.743293 
L 280.572742 88.820129 
L 280.572742 88.820129 
L 280.745891 95.950539 
L 280.745891 95.950539 
L 280.91904 96.002401 
L 280.91904 96.002401 
L 281.092189 99.729783 
L 281.092189 99.729783 
L 281.265338 106.336558 
L 281.265338 106.336558 
L 281.438487 106.819642 
L 281.438487 106.819642 
L 281.611636 110.507833 
L 281.611636 110.507833 
L 281.784785 117.391455 
L 281.784785 117.391455 
L 281.957935 116.992711 
L 281.957935 116.992711 
L 282.131084 121.210253 
L 282.131084 121.210253 
L 282.304233 128.854683 
L 282.304233 128.854683 
L 282.477382 126.660167 
L 282.477382 126.660167 
L 282.650531 132.755129 
L 282.650531 132.755129 
L 282.82368 132.500448 
L 282.82368 132.500448 
L 282.996829 137.127622 
L 282.996829 137.127622 
L 283.169978 137.964997 
L 283.169978 137.964997 
L 283.516276 143.052031 
L 283.516276 143.052031 
L 284.035724 149.854428 
L 284.035724 149.854428 
L 285.074618 161.474269 
L 285.074618 161.474269 
L 285.247767 162.096548 
L 285.247767 162.096548 
L 285.420916 165.178881 
L 285.420916 165.178881 
L 285.594065 165.21414 
L 285.594065 165.21414 
L 285.767215 168.161905 
L 285.767215 168.161905 
L 285.940364 167.767425 
L 285.940364 167.767425 
L 286.113513 171.38298 
L 286.113513 171.38298 
L 286.286662 170.509558 
L 286.459811 171.307591 
L 286.459811 171.307591 
L 286.63296 173.528114 
L 286.63296 173.528114 
L 286.806109 173.620437 
L 286.806109 173.620437 
L 286.979258 176.015778 
L 286.979258 176.015778 
L 287.152407 175.530244 
L 287.152407 175.530244 
L 287.325556 176.301606 
L 287.325556 176.301606 
L 287.498705 177.806742 
L 287.498705 177.806742 
L 287.671855 178.186949 
L 287.671855 178.186949 
L 287.845004 179.92082 
L 287.845004 179.92082 
L 288.018153 179.665292 
L 288.018153 179.665292 
L 288.191302 181.416249 
L 288.191302 181.416249 
L 288.364451 181.107347 
L 288.364451 181.107347 
L 288.5376 181.59409 
L 288.5376 181.59409 
L 288.710749 182.57435 
L 288.710749 182.57435 
L 288.883898 182.544352 
L 288.883898 182.544352 
L 289.057047 183.557452 
L 289.057047 183.557452 
L 289.230196 183.314383 
L 289.230196 183.314383 
L 289.576495 184.028319 
L 289.576495 184.028319 
L 289.749644 184.065877 
L 289.749644 184.065877 
L 289.922793 184.341031 
L 289.922793 184.341031 
L 290.095942 184.32077 
L 290.095942 184.32077 
L 290.269091 184.475176 
L 290.269091 184.475176 
L 290.788538 184.413547 
L 290.788538 184.413547 
L 291.134836 184.558245 
L 291.134836 184.558245 
L 291.307985 184.447083 
L 291.307985 184.447083 
L 291.654284 184.586157 
L 291.654284 184.586157 
L 291.827433 184.448867 
L 291.827433 184.448867 
L 292.000582 184.514367 
L 292.000582 184.514367 
L 292.173731 184.204467 
L 292.173731 184.204467 
L 292.34688 184.328451 
L 292.34688 184.328451 
L 292.693178 183.871041 
L 292.693178 183.871041 
L 292.866327 183.907632 
L 292.866327 183.907632 
L 293.039476 182.993113 
L 293.039476 182.993113 
L 293.212625 183.290615 
L 293.212625 183.290615 
L 293.385775 183.072524 
L 293.385775 183.072524 
L 293.558924 182.136626 
L 293.558924 182.136626 
L 293.732073 182.135114 
L 293.732073 182.135114 
L 293.905222 180.474333 
L 293.905222 180.474333 
L 294.078371 180.92503 
L 294.078371 180.92503 
L 294.25152 180.512647 
L 294.25152 180.512647 
L 294.424669 179.16987 
L 294.424669 179.16987 
L 294.597818 179.068959 
L 294.597818 179.068959 
L 294.770967 176.85896 
L 294.770967 176.85896 
L 294.944116 177.433671 
L 294.944116 177.433671 
L 295.463564 174.84679 
L 295.463564 174.84679 
L 295.636713 172.556443 
L 295.636713 172.556443 
L 295.809862 173.003632 
L 295.809862 173.003632 
L 295.983011 172.150955 
L 295.983011 172.150955 
L 296.15616 170.441427 
L 296.15616 170.441427 
L 296.329309 169.974945 
L 296.329309 169.974945 
L 296.502458 166.93649 
L 296.502458 166.93649 
L 296.675607 167.874504 
L 296.675607 167.874504 
L 297.195055 164.182684 
L 297.195055 164.182684 
L 297.368204 161.053661 
L 297.368204 161.053661 
L 297.541353 161.799984 
L 297.541353 161.799984 
L 297.714502 156.653801 
L 297.714502 156.653801 
L 297.887651 158.276903 
L 297.887651 158.276903 
L 298.0608 157.203232 
L 298.0608 157.203232 
L 298.233949 154.17772 
L 298.233949 154.17772 
L 298.407098 154.327408 
L 298.407098 154.327408 
L 298.580247 149.522967 
L 298.580247 149.522967 
L 298.753396 150.845846 
L 298.753396 150.845846 
L 298.926545 145.174607 
L 298.926545 145.174607 
L 299.099695 147.190889 
L 299.099695 147.190889 
L 299.272844 145.790898 
L 299.272844 145.790898 
L 299.445993 142.576567 
L 299.619142 142.039051 
L 299.619142 142.039051 
L 299.792291 138.686736 
L 299.792291 138.686736 
L 299.96544 138.696412 
L 299.96544 138.696412 
L 300.138589 134.57839 
L 300.138589 134.57839 
L 300.311738 135.19462 
L 300.311738 135.19462 
L 300.484887 131.020926 
L 300.484887 131.020926 
L 300.658036 131.816812 
L 300.658036 131.816812 
L 300.831185 127.816 
L 300.831185 127.816 
L 301.004335 128.441847 
L 301.004335 128.441847 
L 301.177484 124.997662 
L 301.177484 124.997662 
L 301.350633 125.37787 
L 301.350633 125.37787 
L 301.523782 122.550702 
L 301.523782 122.550702 
L 301.696931 122.917392 
L 301.696931 122.917392 
L 301.87008 120.332688 
L 302.043229 120.480471 
L 302.043229 120.480471 
L 302.216378 118.385958 
L 302.216378 118.385958 
L 302.389527 118.27277 
L 302.389527 118.27277 
L 302.562676 116.546489 
L 302.562676 116.546489 
L 302.735825 116.117353 
L 302.735825 116.117353 
L 302.908975 114.669372 
L 302.908975 114.669372 
L 303.082124 111.587553 
L 303.082124 111.587553 
L 303.255273 112.489551 
L 303.255273 112.489551 
L 303.428422 109.490983 
L 303.428422 109.490983 
L 303.601571 109.880898 
L 303.601571 109.880898 
L 303.77472 107.30454 
L 303.77472 107.30454 
L 303.947869 106.681808 
L 303.947869 106.681808 
L 304.121018 104.833932 
L 304.121018 104.833932 
L 304.294167 99.847054 
L 304.294167 99.847054 
L 304.467316 100.992485 
L 304.467316 100.992485 
L 304.640465 98.480569 
L 304.640465 98.480569 
L 304.813615 98.847078 
L 304.813615 98.847078 
L 304.986764 101.747275 
L 304.986764 101.747275 
L 305.159913 109.358623 
L 305.159913 109.358623 
L 305.333062 107.63464 
L 305.333062 107.63464 
L 305.506211 114.423127 
L 305.506211 114.423127 
L 305.67936 115.045345 
L 305.67936 115.045345 
L 305.852509 118.958311 
L 305.852509 118.958311 
L 306.025658 125.700379 
L 306.025658 125.700379 
L 306.198807 124.039689 
L 306.198807 124.039689 
L 306.371956 128.80639 
L 306.371956 128.80639 
L 306.545105 128.758762 
L 306.545105 128.758762 
L 306.718255 132.295814 
L 306.718255 132.295814 
L 306.891404 133.405773 
L 306.891404 133.405773 
L 307.064553 135.400464 
L 307.064553 135.400464 
L 307.237702 140.365328 
L 307.237702 140.365328 
L 307.410851 138.935853 
L 307.410851 138.935853 
L 307.584 142.979636 
L 307.584 142.979636 
L 307.757149 142.206067 
L 307.757149 142.206067 
L 307.930298 145.436455 
L 307.930298 145.436455 
L 308.103447 145.14352 
L 308.103447 145.14352 
L 308.276596 147.840595 
L 308.276596 147.840595 
L 308.449745 147.784046 
L 308.449745 147.784046 
L 308.622895 150.097195 
L 308.622895 150.097195 
L 308.796044 150.267476 
L 308.796044 150.267476 
L 308.969193 152.222492 
L 308.969193 152.222492 
L 309.142342 152.313242 
L 309.142342 152.313242 
L 309.315491 154.250175 
L 309.315491 154.250175 
L 309.48864 154.254832 
L 309.48864 154.254832 
L 309.661789 156.210876 
L 309.661789 156.210876 
L 309.834938 156.213537 
L 309.834938 156.213537 
L 310.008087 157.866637 
L 310.008087 157.866637 
L 310.181236 157.929687 
L 310.181236 157.929687 
L 310.354385 159.359132 
L 310.354385 159.359132 
L 310.527535 159.230007 
L 310.527535 159.230007 
L 310.700684 160.771431 
L 310.700684 160.771431 
L 310.873833 160.572149 
L 310.873833 160.572149 
L 311.046982 161.758071 
L 311.046982 161.758071 
L 311.220131 161.414605 
L 311.220131 161.414605 
L 311.39328 161.849487 
L 311.39328 161.849487 
L 311.912727 163.73616 
L 311.912727 163.73616 
L 312.085876 163.8798 
L 312.085876 163.8798 
L 312.259025 164.236874 
L 312.259025 164.236874 
L 312.432175 164.288494 
L 312.432175 164.288494 
L 312.605324 165.024596 
L 312.605324 165.024596 
L 312.951622 165.156987 
L 312.951622 165.156987 
L 313.124771 165.544996 
L 313.124771 165.544996 
L 313.29792 165.327873 
L 313.29792 165.327873 
L 313.471069 165.897323 
L 313.471069 165.897323 
L 313.644218 165.809475 
L 313.644218 165.809475 
L 313.990516 165.985079 
L 313.990516 165.985079 
L 314.163665 165.858646 
L 314.163665 165.858646 
L 314.336815 166.076162 
L 314.336815 166.076162 
L 314.509964 166.046013 
L 314.509964 166.046013 
L 314.683113 166.276653 
L 315.029411 166.258479 
L 315.029411 166.258479 
L 315.20256 166.295795 
L 315.20256 166.295795 
L 315.375709 166.078702 
L 315.375709 166.078702 
L 315.548858 166.162316 
L 315.548858 166.162316 
L 315.722007 166.087714 
L 315.722007 166.087714 
L 315.895156 166.265313 
L 315.895156 166.265313 
L 316.068305 165.577262 
L 316.068305 165.577262 
L 316.241455 166.163979 
L 316.241455 166.163979 
L 316.414604 165.747544 
L 316.414604 165.747544 
L 316.587753 165.904489 
L 316.587753 165.904489 
L 316.760902 165.754499 
L 316.760902 165.754499 
L 316.934051 165.375894 
L 316.934051 165.375894 
L 317.1072 165.61476 
L 317.1072 165.61476 
L 317.280349 164.468543 
L 317.280349 164.468543 
L 317.453498 165.174284 
L 317.453498 165.174284 
L 317.799796 164.244646 
L 317.799796 164.244646 
L 317.972945 164.144219 
L 318.146095 162.794547 
L 318.146095 162.794547 
L 318.319244 163.012245 
L 318.319244 163.012245 
L 318.492393 161.643462 
L 318.492393 161.643462 
L 318.665542 162.302936 
L 318.665542 162.302936 
L 319.184989 160.503898 
L 319.184989 160.503898 
L 319.358138 158.906923 
L 319.358138 158.906923 
L 319.531287 158.891803 
L 319.531287 158.891803 
L 319.704436 157.18037 
L 319.704436 157.18037 
L 319.877585 157.546909 
L 319.877585 157.546909 
L 320.050735 154.673716 
L 320.050735 154.673716 
L 320.223884 155.598002 
L 320.223884 155.598002 
L 320.743331 153.017199 
L 320.743331 153.017199 
L 320.91648 151.278762 
L 320.91648 151.278762 
L 321.089629 150.828821 
L 321.089629 150.828821 
L 321.262778 148.687013 
L 321.262778 148.687013 
L 321.435927 148.743441 
L 321.435927 148.743441 
L 321.609076 146.363371 
L 321.609076 146.363371 
L 321.782225 146.762539 
L 321.782225 146.762539 
L 321.955375 143.578902 
L 321.955375 143.578902 
L 322.128524 144.475609 
L 322.128524 144.475609 
L 322.301673 140.970763 
L 322.301673 140.970763 
L 322.474822 142.098503 
L 322.474822 142.098503 
L 322.647971 138.327756 
L 322.647971 138.327756 
L 322.82112 139.63854 
L 322.82112 139.63854 
L 322.994269 135.647101 
L 322.994269 135.647101 
L 323.167418 137.101192 
L 323.167418 137.101192 
L 323.340567 133.013742 
L 323.340567 133.013742 
L 323.513716 134.282219 
L 323.513716 134.282219 
L 323.686865 130.400945 
L 323.686865 130.400945 
L 323.860015 131.811369 
L 323.860015 131.811369 
L 324.033164 127.762989 
L 324.033164 127.762989 
L 324.206313 128.86312 
L 324.206313 128.86312 
L 324.379462 125.149679 
L 324.379462 125.149679 
L 324.552611 126.058602 
L 324.552611 126.058602 
L 324.72576 122.543444 
L 324.72576 122.543444 
L 324.898909 123.16406 
L 324.898909 123.16406 
L 325.072058 119.892545 
L 325.072058 119.892545 
L 325.245207 120.182426 
L 325.245207 120.182426 
L 325.418356 117.236475 
L 325.418356 117.236475 
L 325.591505 117.043847 
L 325.591505 117.043847 
L 325.764655 114.268268 
L 325.764655 114.268268 
L 325.937804 113.569664 
L 325.937804 113.569664 
L 326.110953 111.490512 
L 326.110953 111.490512 
L 326.284102 106.880606 
L 326.284102 106.880606 
L 326.457251 108.222597 
L 326.457251 108.222597 
L 326.6304 103.624332 
L 326.6304 103.624332 
L 326.803549 103.956489 
L 326.803549 103.956489 
L 326.976698 100.532413 
L 326.976698 100.532413 
L 327.149847 99.538848 
L 327.149847 99.538848 
L 327.322996 97.630613 
L 327.322996 97.630613 
L 327.496145 91.91486 
L 327.496145 91.91486 
L 327.669295 92.743618 
L 327.669295 92.743618 
L 327.842444 88.650664 
L 327.842444 88.650664 
L 328.015593 87.641132 
L 328.015593 87.641132 
L 328.188742 85.971339 
L 328.361891 87.70267 
L 328.361891 87.70267 
L 328.53504 87.90806 
L 328.53504 87.90806 
L 329.400785 104.717206 
L 329.400785 104.717206 
L 329.573935 103.580152 
L 329.573935 103.580152 
L 329.747084 107.443614 
L 329.747084 107.443614 
L 329.920233 108.080196 
L 330.785978 120.185783 
L 330.785978 120.185783 
L 330.959127 119.417777 
L 330.959127 119.417777 
L 331.132276 122.597634 
L 331.132276 122.597634 
L 331.305425 122.739611 
L 331.305425 122.739611 
L 331.651724 125.375904 
L 331.651724 125.375904 
L 331.824873 126.755906 
L 331.824873 126.755906 
L 331.998022 129.517756 
L 331.998022 129.517756 
L 332.171171 129.126057 
L 332.171171 129.126057 
L 332.34432 131.127492 
L 332.34432 131.127492 
L 332.517469 131.245216 
L 332.517469 131.245216 
L 332.863767 133.08659 
L 332.863767 133.08659 
L 333.556364 136.536944 
L 333.556364 136.536944 
L 333.729513 136.361007 
L 333.729513 136.361007 
L 333.902662 137.22318 
L 333.902662 137.22318 
L 334.075811 137.235004 
L 334.075811 137.235004 
L 334.24896 137.73218 
L 334.595258 138.077944 
L 334.595258 138.077944 
L 335.114705 138.44155 
L 335.114705 138.44155 
L 335.287855 138.380888 
L 335.287855 138.380888 
L 335.461004 138.564959 
L 335.461004 138.564959 
L 335.634153 138.413729 
L 335.634153 138.413729 
L 335.980451 138.528943 
L 335.980451 138.528943 
L 336.1536 138.305651 
L 336.1536 138.305651 
L 336.326749 138.424887 
L 336.326749 138.424887 
L 336.499898 138.234799 
L 336.499898 138.234799 
L 336.673047 138.371484 
L 336.673047 138.371484 
L 336.846196 138.059558 
L 336.846196 138.059558 
L 337.019345 138.204408 
L 337.019345 138.204408 
L 337.192495 137.757914 
L 337.192495 137.757914 
L 337.365644 137.876545 
L 337.365644 137.876545 
L 337.538793 137.280334 
L 337.538793 137.280334 
L 337.711942 137.332104 
L 337.711942 137.332104 
L 337.885091 136.581366 
L 337.885091 136.581366 
L 338.05824 136.524061 
L 338.05824 136.524061 
L 338.231389 135.65826 
L 338.231389 135.65826 
L 338.404538 135.403246 
L 338.404538 135.403246 
L 338.923985 132.742549 
L 338.923985 132.742549 
L 339.097135 129.801256 
L 339.097135 129.801256 
L 339.270284 130.601678 
L 339.443433 127.276307 
L 339.443433 127.276307 
L 339.616582 127.869434 
L 339.616582 127.869434 
L 339.789731 124.18342 
L 339.789731 124.18342 
L 339.96288 124.375595 
L 339.96288 124.375595 
L 340.136029 120.783083 
L 340.136029 120.783083 
L 340.309178 120.378835 
L 340.309178 120.378835 
L 340.655476 115.072078 
L 340.655476 115.072078 
L 341.001775 108.581092 
L 341.001775 108.581092 
L 341.174924 108.154768 
L 341.174924 108.154768 
L 341.348073 113.426568 
L 341.348073 113.426568 
L 341.521222 113.087638 
L 341.521222 113.087638 
L 341.694371 116.940758 
L 341.694371 116.940758 
L 341.86752 117.444648 
L 341.86752 117.444648 
L 342.213818 123.193665 
L 342.213818 123.193665 
L 342.386967 122.752675 
L 342.386967 122.752675 
L 342.560116 124.506171 
L 342.560116 124.506171 
L 342.733265 124.558275 
L 342.733265 124.558275 
L 342.906415 125.674433 
L 342.906415 125.674433 
L 343.079564 125.740115 
L 343.079564 125.740115 
L 343.425862 126.439868 
L 343.425862 126.439868 
L 343.599011 126.53334 
L 343.599011 126.53334 
L 343.77216 126.470532 
L 343.77216 126.470532 
L 343.945309 126.585625 
L 343.945309 126.585625 
L 344.118458 126.500802 
L 344.118458 126.500802 
L 344.291607 126.614988 
L 344.291607 126.614988 
L 344.464756 126.520911 
L 344.464756 126.520911 
L 344.637905 125.898935 
L 344.637905 125.898935 
L 344.811055 126.402219 
L 344.811055 126.402219 
L 344.984204 125.701196 
L 344.984204 125.701196 
L 345.157353 125.81889 
L 345.157353 125.81889 
L 345.330502 124.975164 
L 345.330502 124.975164 
L 345.503651 124.719303 
L 345.503651 124.719303 
L 345.6768 123.696163 
L 345.6768 123.696163 
L 345.849949 120.584346 
L 345.849949 120.584346 
L 346.023098 121.414918 
L 346.023098 121.414918 
L 346.196247 118.399627 
L 346.196247 118.399627 
L 346.369396 118.089636 
L 346.369396 118.089636 
L 346.715695 114.032426 
L 346.715695 114.032426 
L 346.888844 111.54936 
L 346.888844 111.54936 
L 347.061993 105.322218 
L 347.061993 105.322218 
L 347.235142 106.234196 
L 347.235142 106.234196 
L 347.408291 104.532288 
L 347.408291 104.532288 
L 347.58144 104.554999 
L 347.58144 104.554999 
L 347.754589 109.273588 
L 347.754589 109.273588 
L 347.927738 110.616697 
L 348.274036 117.56966 
L 348.447185 117.408995 
L 348.620335 119.679686 
L 348.620335 119.679686 
L 348.793484 120.392836 
L 348.793484 120.392836 
L 349.139782 123.288618 
L 349.139782 123.288618 
L 349.312931 123.465552 
L 349.312931 123.465552 
L 349.659229 124.884444 
L 349.659229 124.884444 
L 349.832378 125.036218 
L 349.832378 125.036218 
L 350.178676 125.460334 
L 350.178676 125.460334 
L 350.351825 125.485464 
L 350.351825 125.485464 
L 350.524975 125.624961 
L 350.524975 125.624961 
L 350.871273 125.453591 
L 350.871273 125.453591 
L 351.044422 125.578512 
L 351.044422 125.578512 
L 351.217571 125.247203 
L 351.217571 125.247203 
L 351.39072 125.604518 
L 351.39072 125.604518 
L 351.737018 125.361812 
L 351.737018 125.361812 
L 351.910167 125.420992 
L 351.910167 125.420992 
L 352.083316 125.257121 
L 352.083316 125.257121 
L 352.256465 125.286152 
L 352.256465 125.286152 
L 352.429615 124.824689 
L 352.429615 124.824689 
L 352.602764 125.024334 
L 352.602764 125.024334 
L 352.775913 124.543639 
L 352.775913 124.543639 
L 352.949062 124.661696 
L 352.949062 124.661696 
L 353.29536 123.993815 
L 353.29536 123.993815 
L 353.468509 123.840045 
L 353.468509 123.840045 
L 353.641658 123.02804 
L 353.641658 123.02804 
L 353.814807 123.351517 
L 353.814807 123.351517 
L 353.987956 122.369413 
L 353.987956 122.369413 
L 354.161105 122.790021 
L 354.161105 122.790021 
L 354.334255 122.133662 
L 354.334255 122.133662 
L 354.507404 122.182741 
L 354.507404 122.182741 
L 354.853702 121.113122 
L 354.853702 121.113122 
L 355.026851 121.057572 
L 355.026851 121.057572 
L 355.2 120.009665 
L 355.2 120.009665 
L 355.373149 120.306168 
L 355.373149 120.306168 
L 355.546298 119.383364 
L 355.546298 119.383364 
L 355.719447 119.454035 
L 355.719447 119.454035 
L 356.065745 118.260674 
L 356.065745 118.260674 
L 356.238895 117.914607 
L 356.238895 117.914607 
L 356.412044 116.208618 
L 356.412044 116.208618 
L 356.585193 116.829596 
L 356.585193 116.829596 
L 356.758342 115.535899 
L 356.758342 115.535899 
L 356.931491 115.559637 
L 356.931491 115.559637 
L 357.277789 114.229047 
L 357.277789 114.229047 
L 357.450938 113.528205 
L 357.450938 113.528205 
L 357.624087 111.642438 
L 357.624087 111.642438 
L 357.797236 112.008221 
L 357.797236 112.008221 
L 357.970385 110.700825 
L 357.970385 110.700825 
L 358.143535 110.428121 
L 358.143535 110.428121 
L 358.316684 109.586602 
L 358.316684 109.586602 
L 358.489833 107.367651 
L 358.489833 107.367651 
L 358.662982 107.951616 
L 358.662982 107.951616 
L 358.836131 106.330298 
L 358.836131 106.330298 
L 359.00928 106.221192 
L 359.00928 106.221192 
L 359.182429 105.277977 
L 359.182429 105.277977 
L 359.355578 103.049289 
L 359.355578 103.049289 
L 359.528727 103.664673 
L 359.528727 103.664673 
L 359.701876 102.236256 
L 359.701876 102.236256 
L 359.875025 101.917375 
L 359.875025 101.917375 
L 360.048175 101.049245 
L 360.048175 101.049245 
L 360.221324 99.55167 
L 360.221324 99.55167 
L 360.394473 99.797581 
L 360.394473 99.797581 
L 360.567622 98.720493 
L 360.567622 98.720493 
L 360.740771 96.93089 
L 360.740771 96.93089 
L 360.91392 97.664059 
L 360.91392 97.664059 
L 361.087069 96.25554 
L 361.087069 96.25554 
L 361.260218 96.250067 
L 361.260218 96.250067 
L 361.433367 95.598334 
L 361.433367 95.598334 
L 361.606516 94.48898 
L 361.606516 94.48898 
L 361.779665 94.649161 
L 361.779665 94.649161 
L 361.952815 94.279265 
L 361.952815 94.279265 
L 362.125964 93.112908 
L 362.125964 93.112908 
L 362.299113 93.364082 
L 362.299113 93.364082 
L 362.645411 92.006004 
L 362.645411 92.006004 
L 362.81856 92.303414 
L 362.81856 92.303414 
L 362.991709 91.727856 
L 362.991709 91.727856 
L 363.164858 91.71827 
L 363.164858 91.71827 
L 363.857455 90.058941 
L 363.857455 90.058941 
L 364.030604 89.266834 
L 364.030604 89.266834 
L 364.203753 89.238469 
L 364.203753 89.238469 
L 364.896349 86.461409 
L 364.896349 86.461409 
L 365.069498 84.971363 
L 365.069498 84.971363 
L 365.242647 84.783512 
L 365.242647 84.783512 
L 365.935244 79.996399 
L 365.935244 79.996399 
L 366.108393 77.849359 
L 366.108393 77.849359 
L 366.281542 74.304112 
L 366.281542 74.304112 
L 366.454691 75.350174 
L 366.454691 75.350174 
L 366.800989 69.096996 
L 366.800989 69.096996 
L 366.974138 69.768082 
L 366.974138 69.768082 
L 367.147287 67.473924 
L 367.147287 67.473924 
L 367.320436 62.911918 
L 367.320436 62.911918 
L 367.493585 62.378817 
L 367.493585 62.378817 
L 367.839884 56.78853 
L 367.839884 56.78853 
L 368.013033 53.568 
L 368.013033 53.568 
L 396.928931 53.568 
L 396.928931 53.568 
L 397.275229 53.77596 
L 397.275229 53.77596 
L 397.448378 53.841551 
L 397.448378 53.841551 
L 397.621527 53.568 
L 397.621527 53.568 
L 398.140975 53.568 
L 398.140975 53.568 
L 398.314124 53.746356 
L 398.314124 53.746356 
L 398.487273 53.568 
L 398.487273 53.568 
" clip-path="url(#pb615dc2a6d)" style="fill: none; stroke: #ff7f0e; stroke-width: 1.5; stroke-linecap: square"/>
   </g>
   <g id="patch_3">
    <path d="M 57.6 307.584 
L 57.6 41.472 
" style="fill: none; stroke: #000000; stroke-width: 0.8; stroke-linejoin: miter; stroke-linecap: square"/>
   </g>
   <g id="patch_4">
    <path d="M 414.72 307.584 
L 414.72 41.472 
" style="fill: none; stroke: #000000; stroke-width: 0.8; stroke-linejoin: miter; stroke-linecap: square"/>
   </g>
   <g id="patch_5">
    <path d="M 57.6 307.584 
L 414.72 307.584 
" style="fill: none; stroke: #000000; stroke-width: 0.8; stroke-linejoin: miter; stroke-linecap: square"/>
   </g>
   <g id="patch_6">
    <path d="M 57.6 41.472 
L 414.72 41.472 
" style="fill: none; stroke: #000000; stroke-width: 0.8; stroke-linejoin: miter; stroke-linecap: square"/>
   </g>
   <g id="text_20">
    <!-- Actual speed vs Expected speed -->
    <g transform="translate(138.808125 35.472) scale(0.12 -0.12)">
     <defs>
      <path id="DejaVuSans-41" d="M 2188 4044 
L 1331 1722 
L 3047 1722 
L 2188 4044 
z
M 1831 4666 
L 2547 4666 
L 4325 0 
L 3669 0 
L 3244 1197 
L 1141 1197 
L 716 0 
L 50 0 
L 1831 4666 
z
" transform="scale(0.015625)"/>
      <path id="DejaVuSans-75" d="M 544 1381 
L 544 3500 
L 1119 3500 
L 1119 1403 
Q 1119 906 1312 657 
Q 1506 409 1894 409 
Q 2359 409 2629 706 
Q 2900 1003 2900 1516 
L 2900 3500 
L 3475 3500 
L 3475 0 
L 2900 0 
L 2900 538 
Q 2691 219 2414 64 
Q 2138 -91 1772 -91 
Q 1169 -91 856 284 
Q 544 659 544 1381 
z
M 1991 3584 
L 1991 3584 
z
" transform="scale(0.015625)"/>
      <path id="DejaVuSans-61" d="M 2194 1759 
Q 1497 1759 1228 1600 
Q 959 1441 959 1056 
Q 959 750 1161 570 
Q 1363 391 1709 391 
Q 2188 391 2477 730 
Q 2766 1069 2766 1631 
L 2766 1759 
L 2194 1759 
z
M 3341 1997 
L 3341 0 
L 2766 0 
L 2766 531 
Q 2569 213 2275 61 
Q 1981 -91 1556 -91 
Q 1019 -91 701 211 
Q 384 513 384 1019 
Q 384 1609 779 1909 
Q 1175 2209 1959 2209 
L 2766 2209 
L 2766 2266 
Q 2766 2663 2505 2880 
Q 2244 3097 1772 3097 
Q 1472 3097 1187 3025 
Q 903 2953 641 2809 
L 641 3341 
Q 956 3463 1253 3523 
Q 1550 3584 1831 3584 
Q 2591 3584 2966 3190 
Q 3341 2797 3341 1997 
z
" transform="scale(0.015625)"/>
      <path id="DejaVuSans-20" transform="scale(0.015625)"/>
      <path id="DejaVuSans-70" d="M 1159 525 
L 1159 -1331 
L 581 -1331 
L 581 3500 
L 1159 3500 
L 1159 2969 
Q 1341 3281 1617 3432 
Q 1894 3584 2278 3584 
Q 2916 3584 3314 3078 
Q 3713 2572 3713 1747 
Q 3713 922 3314 415 
Q 2916 -91 2278 -91 
Q 1894 -91 1617 61 
Q 1341 213 1159 525 
z
M 3116 1747 
Q 3116 2381 2855 2742 
Q 2594 3103 2138 3103 
Q 1681 3103 1420 2742 
Q 1159 2381 1159 1747 
Q 1159 1113 1420 752 
Q 1681 391 2138 391 
Q 2594 391 2855 752 
Q 3116 1113 3116 1747 
z
" transform="scale(0.015625)"/>
      <path id="DejaVuSans-64" d="M 2906 2969 
L 2906 4863 
L 3481 4863 
L 3481 0 
L 2906 0 
L 2906 525 
Q 2725 213 2448 61 
Q 2172 -91 1784 -91 
Q 1150 -91 751 415 
Q 353 922 353 1747 
Q 353 2572 751 3078 
Q 1150 3584 1784 3584 
Q 2172 3584 2448 3432 
Q 2725 3281 2906 2969 
z
M 947 1747 
Q 947 1113 1208 752 
Q 1469 391 1925 391 
Q 2381 391 2643 752 
Q 2906 1113 2906 1747 
Q 2906 2381 2643 2742 
Q 2381 3103 1925 3103 
Q 1469 3103 1208 2742 
Q 947 2381 947 1747 
z
" transform="scale(0.015625)"/>
      <path id="DejaVuSans-76" d="M 191 3500 
L 800 3500 
L 1894 563 
L 2988 3500 
L 3597 3500 
L 2284 0 
L 1503 0 
L 191 3500 
z
" transform="scale(0.015625)"/>
      <path id="DejaVuSans-45" d="M 628 4666 
L 3578 4666 
L 3578 4134 
L 1259 4134 
L 1259 2753 
L 3481 2753 
L 3481 2222 
L 1259 2222 
L 1259 531 
L 3634 531 
L 3634 0 
L 628 0 
L 628 4666 
z
" transform="scale(0.015625)"/>
      <path id="DejaVuSans-78" d="M 3513 3500 
L 2247 1797 
L 3578 0 
L 2900 0 
L 1881 1375 
L 863 0 
L 184 0 
L 1544 1831 
L 300 3500 
L 978 3500 
L 1906 2253 
L 2834 3500 
L 3513 3500 
z
" transform="scale(0.015625)"/>
     </defs>
     <use xlink:href="#DejaVuSans-41"/>
     <use xlink:href="#DejaVuSans-63" x="66.658203"/>
     <use xlink:href="#DejaVuSans-74" x="121.638672"/>
     <use xlink:href="#DejaVuSans-75" x="160.847656"/>
     <use xlink:href="#DejaVuSans-61" x="224.226562"/>
     <use xlink:href="#DejaVuSans-6c" x="285.505859"/>
     <use xlink:href="#DejaVuSans-20" x="313.289062"/>
     <use xlink:href="#DejaVuSans-73" x="345.076172"/>
     <use xlink:href="#DejaVuSans-70" x="397.175781"/>
     <use xlink:href="#DejaVuSans-65" x="460.652344"/>
     <use xlink:href="#DejaVuSans-65" x="522.175781"/>
     <use xlink:href="#DejaVuSans-64" x="583.699219"/>
     <use xlink:href="#DejaVuSans-20" x="647.175781"/>
     <use xlink:href="#DejaVuSans-76" x="678.962891"/>
     <use xlink:href="#DejaVuSans-73" x="738.142578"/>
     <use xlink:href="#DejaVuSans-20" x="790.242188"/>
     <use xlink:href="#DejaVuSans-45" x="822.029297"/>
     <use xlink:href="#DejaVuSans-78" x="885.212891"/>
     <use xlink:href="#DejaVuSans-70" x="944.392578"/>
     <use xlink:href="#DejaVuSans-65" x="1007.869141"/>
     <use xlink:href="#DejaVuSans-63" x="1069.392578"/>
     <use xlink:href="#DejaVuSans-74" x="1124.373047"/>
     <use xlink:href="#DejaVuSans-65" x="1163.582031"/>
     <use xlink:href="#DejaVuSans-64" x="1225.105469"/>
     <use xlink:href="#DejaVuSans-20" x="1288.582031"/>
     <use xlink:href="#DejaVuSans-73" x="1320.369141"/>
     <use xlink:href="#DejaVuSans-70" x="1372.46875"/>
     <use xlink:href="#DejaVuSans-65" x="1435.945312"/>
     <use xlink:href="#DejaVuSans-65" x="1497.46875"/>
     <use xlink:href="#DejaVuSans-64" x="1558.992188"/>
    </g>
   </g>
   <g id="legend_1">
    <g id="patch_7">
     <path d="M 295.67 302.584 
L 407.72 302.584 
Q 409.72 302.584 409.72 300.584 
L 409.72 272.22775 
Q 409.72 270.22775 407.72 270.22775 
L 295.67 270.22775 
Q 293.67 270.22775 293.67 272.22775 
L 293.67 300.584 
Q 293.67 302.584 295.67 302.584 
z
" style="fill: #ffffff; opacity: 0.8; stroke: #cccccc; stroke-linejoin: miter"/>
    </g>
    <g id="line2d_37">
     <path d="M 297.67 278.326187 
L 307.67 278.326187 
L 317.67 278.326187 
" style="fill: none; stroke: #1f77b4; stroke-width: 1.5; stroke-linecap: square"/>
    </g>
    <g id="text_21">
     <!-- Actual speed -->
     <g transform="translate(325.67 281.826187) scale(0.1 -0.1)">
      <use xlink:href="#DejaVuSans-41"/>
      <use xlink:href="#DejaVuSans-63" x="66.658203"/>
      <use xlink:href="#DejaVuSans-74" x="121.638672"/>
      <use xlink:href="#DejaVuSans-75" x="160.847656"/>
      <use xlink:href="#DejaVuSans-61" x="224.226562"/>
      <use xlink:href="#DejaVuSans-6c" x="285.505859"/>
      <use xlink:href="#DejaVuSans-20" x="313.289062"/>
      <use xlink:href="#DejaVuSans-73" x="345.076172"/>
      <use xlink:href="#DejaVuSans-70" x="397.175781"/>
      <use xlink:href="#DejaVuSans-65" x="460.652344"/>
      <use xlink:href="#DejaVuSans-65" x="522.175781"/>
      <use xlink:href="#DejaVuSans-64" x="583.699219"/>
     </g>
    </g>
    <g id="line2d_38">
     <path d="M 297.67 293.004312 
L 307.67 293.004312 
L 317.67 293.004312 
" style="fill: none; stroke: #ff7f0e; stroke-width: 1.5; stroke-linecap: square"/>
    </g>
    <g id="text_22">
     <!-- Expected speed -->
     <g transform="translate(325.67 296.504312) scale(0.1 -0.1)">
      <use xlink:href="#DejaVuSans-45"/>
      <use xlink:href="#DejaVuSans-78" x="63.183594"/>
      <use xlink:href="#DejaVuSans-70" x="122.363281"/>
      <use xlink:href="#DejaVuSans-65" x="185.839844"/>
      <use xlink:href="#DejaVuSans-63" x="247.363281"/>
      <use xlink:href="#DejaVuSans-74" x="302.34375"/>
      <use xlink:href="#DejaVuSans-65" x="341.552734"/>
      <use xlink:href="#DejaVuSans-64" x="403.076172"/>
      <use xlink:href="#DejaVuSans-20" x="466.552734"/>
      <use xlink:href="#DejaVuSans-73" x="498.339844"/>
      <use xlink:href="#DejaVuSans-70" x="550.439453"/>
      <use xlink:href="#DejaVuSans-65" x="613.916016"/>
      <use xlink:href="#DejaVuSans-65" x="675.439453"/>
      <use xlink:href="#DejaVuSans-64" x="736.962891"/>
     </g>
    </g>
   </g>
  </g>
 </g>
 <defs>
  <clipPath id="pb615dc2a6d">
   <rect x="57.6" y="41.472" width="357.12" height="266.112"/>
  </clipPath>
 </defs>
</svg>
