<?xml version="1.0" encoding="utf-8" standalone="no"?>
<!DOCTYPE svg PUBLIC "-//W3C//DTD SVG 1.1//EN"
  "http://www.w3.org/Graphics/SVG/1.1/DTD/svg11.dtd">
<svg xmlns:xlink="http://www.w3.org/1999/xlink" width="460.8pt" height="345.6pt" viewBox="0 0 460.8 345.6" xmlns="http://www.w3.org/2000/svg" version="1.1">
 <metadata>
  <rdf:RDF xmlns:dc="http://purl.org/dc/elements/1.1/" xmlns:cc="http://creativecommons.org/ns#" xmlns:rdf="http://www.w3.org/1999/02/22-rdf-syntax-ns#">
   <cc:Work>
    <dc:type rdf:resource="http://purl.org/dc/dcmitype/StillImage"/>
    <dc:date>2024-01-30T20:58:39.156975</dc:date>
    <dc:format>image/svg+xml</dc:format>
    <dc:creator>
     <cc:Agent>
      <dc:title>Matplotlib v3.7.1, https://matplotlib.org/</dc:title>
     </cc:Agent>
    </dc:creator>
   </cc:Work>
  </rdf:RDF>
 </metadata>
 <defs>
  <style type="text/css">*{stroke-linejoin: round; stroke-linecap: butt}</style>
 </defs>
 <g id="figure_1">
  <g id="patch_1">
   <path d="M 0 345.6 
L 460.8 345.6 
L 460.8 0 
L 0 0 
z
" style="fill: #ffffff"/>
  </g>
  <g id="axes_1">
   <g id="patch_2">
    <path d="M 57.6 307.584 
L 414.72 307.584 
L 414.72 41.472 
L 57.6 41.472 
z
" style="fill: #ffffff"/>
   </g>
   <g id="matplotlib.axis_1">
    <g id="xtick_1">
     <g id="line2d_1">
      <path d="M 73.832727 307.584 
L 73.832727 41.472 
" clip-path="url(#pe00245ff33)" style="fill: none; stroke: #b0b0b0; stroke-width: 0.8; stroke-linecap: square"/>
     </g>
     <g id="line2d_2">
      <defs>
       <path id="ma98fed9c45" d="M 0 0 
L 0 3.5 
" style="stroke: #000000; stroke-width: 0.8"/>
      </defs>
      <g>
       <use xlink:href="#ma98fed9c45" x="73.832727" y="307.584" style="stroke: #000000; stroke-width: 0.8"/>
      </g>
     </g>
     <g id="text_1">
      <!-- 0 -->
      <g transform="translate(70.651477 322.182437) scale(0.1 -0.1)">
       <defs>
        <path id="DejaVuSans-30" d="M 2034 4250 
Q 1547 4250 1301 3770 
Q 1056 3291 1056 2328 
Q 1056 1369 1301 889 
Q 1547 409 2034 409 
Q 2525 409 2770 889 
Q 3016 1369 3016 2328 
Q 3016 3291 2770 3770 
Q 2525 4250 2034 4250 
z
M 2034 4750 
Q 2819 4750 3233 4129 
Q 3647 3509 3647 2328 
Q 3647 1150 3233 529 
Q 2819 -91 2034 -91 
Q 1250 -91 836 529 
Q 422 1150 422 2328 
Q 422 3509 836 4129 
Q 1250 4750 2034 4750 
z
" transform="scale(0.015625)"/>
       </defs>
       <use xlink:href="#DejaVuSans-30"/>
      </g>
     </g>
    </g>
    <g id="xtick_2">
     <g id="line2d_3">
      <path d="M 118.015436 307.584 
L 118.015436 41.472 
" clip-path="url(#pe00245ff33)" style="fill: none; stroke: #b0b0b0; stroke-width: 0.8; stroke-linecap: square"/>
     </g>
     <g id="line2d_4">
      <g>
       <use xlink:href="#ma98fed9c45" x="118.015436" y="307.584" style="stroke: #000000; stroke-width: 0.8"/>
      </g>
     </g>
     <g id="text_2">
      <!-- 5 -->
      <g transform="translate(114.834186 322.182437) scale(0.1 -0.1)">
       <defs>
        <path id="DejaVuSans-35" d="M 691 4666 
L 3169 4666 
L 3169 4134 
L 1269 4134 
L 1269 2991 
Q 1406 3038 1543 3061 
Q 1681 3084 1819 3084 
Q 2600 3084 3056 2656 
Q 3513 2228 3513 1497 
Q 3513 744 3044 326 
Q 2575 -91 1722 -91 
Q 1428 -91 1123 -41 
Q 819 9 494 109 
L 494 744 
Q 775 591 1075 516 
Q 1375 441 1709 441 
Q 2250 441 2565 725 
Q 2881 1009 2881 1497 
Q 2881 1984 2565 2268 
Q 2250 2553 1709 2553 
Q 1456 2553 1204 2497 
Q 953 2441 691 2322 
L 691 4666 
z
" transform="scale(0.015625)"/>
       </defs>
       <use xlink:href="#DejaVuSans-35"/>
      </g>
     </g>
    </g>
    <g id="xtick_3">
     <g id="line2d_5">
      <path d="M 162.198145 307.584 
L 162.198145 41.472 
" clip-path="url(#pe00245ff33)" style="fill: none; stroke: #b0b0b0; stroke-width: 0.8; stroke-linecap: square"/>
     </g>
     <g id="line2d_6">
      <g>
       <use xlink:href="#ma98fed9c45" x="162.198145" y="307.584" style="stroke: #000000; stroke-width: 0.8"/>
      </g>
     </g>
     <g id="text_3">
      <!-- 10 -->
      <g transform="translate(155.835645 322.182437) scale(0.1 -0.1)">
       <defs>
        <path id="DejaVuSans-31" d="M 794 531 
L 1825 531 
L 1825 4091 
L 703 3866 
L 703 4441 
L 1819 4666 
L 2450 4666 
L 2450 531 
L 3481 531 
L 3481 0 
L 794 0 
L 794 531 
z
" transform="scale(0.015625)"/>
       </defs>
       <use xlink:href="#DejaVuSans-31"/>
       <use xlink:href="#DejaVuSans-30" x="63.623047"/>
      </g>
     </g>
    </g>
    <g id="xtick_4">
     <g id="line2d_7">
      <path d="M 206.380854 307.584 
L 206.380854 41.472 
" clip-path="url(#pe00245ff33)" style="fill: none; stroke: #b0b0b0; stroke-width: 0.8; stroke-linecap: square"/>
     </g>
     <g id="line2d_8">
      <g>
       <use xlink:href="#ma98fed9c45" x="206.380854" y="307.584" style="stroke: #000000; stroke-width: 0.8"/>
      </g>
     </g>
     <g id="text_4">
      <!-- 15 -->
      <g transform="translate(200.018354 322.182437) scale(0.1 -0.1)">
       <use xlink:href="#DejaVuSans-31"/>
       <use xlink:href="#DejaVuSans-35" x="63.623047"/>
      </g>
     </g>
    </g>
    <g id="xtick_5">
     <g id="line2d_9">
      <path d="M 250.563563 307.584 
L 250.563563 41.472 
" clip-path="url(#pe00245ff33)" style="fill: none; stroke: #b0b0b0; stroke-width: 0.8; stroke-linecap: square"/>
     </g>
     <g id="line2d_10">
      <g>
       <use xlink:href="#ma98fed9c45" x="250.563563" y="307.584" style="stroke: #000000; stroke-width: 0.8"/>
      </g>
     </g>
     <g id="text_5">
      <!-- 20 -->
      <g transform="translate(244.201063 322.182437) scale(0.1 -0.1)">
       <defs>
        <path id="DejaVuSans-32" d="M 1228 531 
L 3431 531 
L 3431 0 
L 469 0 
L 469 531 
Q 828 903 1448 1529 
Q 2069 2156 2228 2338 
Q 2531 2678 2651 2914 
Q 2772 3150 2772 3378 
Q 2772 3750 2511 3984 
Q 2250 4219 1831 4219 
Q 1534 4219 1204 4116 
Q 875 4013 500 3803 
L 500 4441 
Q 881 4594 1212 4672 
Q 1544 4750 1819 4750 
Q 2544 4750 2975 4387 
Q 3406 4025 3406 3419 
Q 3406 3131 3298 2873 
Q 3191 2616 2906 2266 
Q 2828 2175 2409 1742 
Q 1991 1309 1228 531 
z
" transform="scale(0.015625)"/>
       </defs>
       <use xlink:href="#DejaVuSans-32"/>
       <use xlink:href="#DejaVuSans-30" x="63.623047"/>
      </g>
     </g>
    </g>
    <g id="xtick_6">
     <g id="line2d_11">
      <path d="M 294.746272 307.584 
L 294.746272 41.472 
" clip-path="url(#pe00245ff33)" style="fill: none; stroke: #b0b0b0; stroke-width: 0.8; stroke-linecap: square"/>
     </g>
     <g id="line2d_12">
      <g>
       <use xlink:href="#ma98fed9c45" x="294.746272" y="307.584" style="stroke: #000000; stroke-width: 0.8"/>
      </g>
     </g>
     <g id="text_6">
      <!-- 25 -->
      <g transform="translate(288.383772 322.182437) scale(0.1 -0.1)">
       <use xlink:href="#DejaVuSans-32"/>
       <use xlink:href="#DejaVuSans-35" x="63.623047"/>
      </g>
     </g>
    </g>
    <g id="xtick_7">
     <g id="line2d_13">
      <path d="M 338.928981 307.584 
L 338.928981 41.472 
" clip-path="url(#pe00245ff33)" style="fill: none; stroke: #b0b0b0; stroke-width: 0.8; stroke-linecap: square"/>
     </g>
     <g id="line2d_14">
      <g>
       <use xlink:href="#ma98fed9c45" x="338.928981" y="307.584" style="stroke: #000000; stroke-width: 0.8"/>
      </g>
     </g>
     <g id="text_7">
      <!-- 30 -->
      <g transform="translate(332.566481 322.182437) scale(0.1 -0.1)">
       <defs>
        <path id="DejaVuSans-33" d="M 2597 2516 
Q 3050 2419 3304 2112 
Q 3559 1806 3559 1356 
Q 3559 666 3084 287 
Q 2609 -91 1734 -91 
Q 1441 -91 1130 -33 
Q 819 25 488 141 
L 488 750 
Q 750 597 1062 519 
Q 1375 441 1716 441 
Q 2309 441 2620 675 
Q 2931 909 2931 1356 
Q 2931 1769 2642 2001 
Q 2353 2234 1838 2234 
L 1294 2234 
L 1294 2753 
L 1863 2753 
Q 2328 2753 2575 2939 
Q 2822 3125 2822 3475 
Q 2822 3834 2567 4026 
Q 2313 4219 1838 4219 
Q 1578 4219 1281 4162 
Q 984 4106 628 3988 
L 628 4550 
Q 988 4650 1302 4700 
Q 1616 4750 1894 4750 
Q 2613 4750 3031 4423 
Q 3450 4097 3450 3541 
Q 3450 3153 3228 2886 
Q 3006 2619 2597 2516 
z
" transform="scale(0.015625)"/>
       </defs>
       <use xlink:href="#DejaVuSans-33"/>
       <use xlink:href="#DejaVuSans-30" x="63.623047"/>
      </g>
     </g>
    </g>
    <g id="xtick_8">
     <g id="line2d_15">
      <path d="M 383.11169 307.584 
L 383.11169 41.472 
" clip-path="url(#pe00245ff33)" style="fill: none; stroke: #b0b0b0; stroke-width: 0.8; stroke-linecap: square"/>
     </g>
     <g id="line2d_16">
      <g>
       <use xlink:href="#ma98fed9c45" x="383.11169" y="307.584" style="stroke: #000000; stroke-width: 0.8"/>
      </g>
     </g>
     <g id="text_8">
      <!-- 35 -->
      <g transform="translate(376.74919 322.182437) scale(0.1 -0.1)">
       <use xlink:href="#DejaVuSans-33"/>
       <use xlink:href="#DejaVuSans-35" x="63.623047"/>
      </g>
     </g>
    </g>
    <g id="text_9">
     <!-- Time(s) -->
     <g transform="translate(217.420156 335.860562) scale(0.1 -0.1)">
      <defs>
       <path id="DejaVuSans-54" d="M -19 4666 
L 3928 4666 
L 3928 4134 
L 2272 4134 
L 2272 0 
L 1638 0 
L 1638 4134 
L -19 4134 
L -19 4666 
z
" transform="scale(0.015625)"/>
       <path id="DejaVuSans-69" d="M 603 3500 
L 1178 3500 
L 1178 0 
L 603 0 
L 603 3500 
z
M 603 4863 
L 1178 4863 
L 1178 4134 
L 603 4134 
L 603 4863 
z
" transform="scale(0.015625)"/>
       <path id="DejaVuSans-6d" d="M 3328 2828 
Q 3544 3216 3844 3400 
Q 4144 3584 4550 3584 
Q 5097 3584 5394 3201 
Q 5691 2819 5691 2113 
L 5691 0 
L 5113 0 
L 5113 2094 
Q 5113 2597 4934 2840 
Q 4756 3084 4391 3084 
Q 3944 3084 3684 2787 
Q 3425 2491 3425 1978 
L 3425 0 
L 2847 0 
L 2847 2094 
Q 2847 2600 2669 2842 
Q 2491 3084 2119 3084 
Q 1678 3084 1418 2786 
Q 1159 2488 1159 1978 
L 1159 0 
L 581 0 
L 581 3500 
L 1159 3500 
L 1159 2956 
Q 1356 3278 1631 3431 
Q 1906 3584 2284 3584 
Q 2666 3584 2933 3390 
Q 3200 3197 3328 2828 
z
" transform="scale(0.015625)"/>
       <path id="DejaVuSans-65" d="M 3597 1894 
L 3597 1613 
L 953 1613 
Q 991 1019 1311 708 
Q 1631 397 2203 397 
Q 2534 397 2845 478 
Q 3156 559 3463 722 
L 3463 178 
Q 3153 47 2828 -22 
Q 2503 -91 2169 -91 
Q 1331 -91 842 396 
Q 353 884 353 1716 
Q 353 2575 817 3079 
Q 1281 3584 2069 3584 
Q 2775 3584 3186 3129 
Q 3597 2675 3597 1894 
z
M 3022 2063 
Q 3016 2534 2758 2815 
Q 2500 3097 2075 3097 
Q 1594 3097 1305 2825 
Q 1016 2553 972 2059 
L 3022 2063 
z
" transform="scale(0.015625)"/>
       <path id="DejaVuSans-28" d="M 1984 4856 
Q 1566 4138 1362 3434 
Q 1159 2731 1159 2009 
Q 1159 1288 1364 580 
Q 1569 -128 1984 -844 
L 1484 -844 
Q 1016 -109 783 600 
Q 550 1309 550 2009 
Q 550 2706 781 3412 
Q 1013 4119 1484 4856 
L 1984 4856 
z
" transform="scale(0.015625)"/>
       <path id="DejaVuSans-73" d="M 2834 3397 
L 2834 2853 
Q 2591 2978 2328 3040 
Q 2066 3103 1784 3103 
Q 1356 3103 1142 2972 
Q 928 2841 928 2578 
Q 928 2378 1081 2264 
Q 1234 2150 1697 2047 
L 1894 2003 
Q 2506 1872 2764 1633 
Q 3022 1394 3022 966 
Q 3022 478 2636 193 
Q 2250 -91 1575 -91 
Q 1294 -91 989 -36 
Q 684 19 347 128 
L 347 722 
Q 666 556 975 473 
Q 1284 391 1588 391 
Q 1994 391 2212 530 
Q 2431 669 2431 922 
Q 2431 1156 2273 1281 
Q 2116 1406 1581 1522 
L 1381 1569 
Q 847 1681 609 1914 
Q 372 2147 372 2553 
Q 372 3047 722 3315 
Q 1072 3584 1716 3584 
Q 2034 3584 2315 3537 
Q 2597 3491 2834 3397 
z
" transform="scale(0.015625)"/>
       <path id="DejaVuSans-29" d="M 513 4856 
L 1013 4856 
Q 1481 4119 1714 3412 
Q 1947 2706 1947 2009 
Q 1947 1309 1714 600 
Q 1481 -109 1013 -844 
L 513 -844 
Q 928 -128 1133 580 
Q 1338 1288 1338 2009 
Q 1338 2731 1133 3434 
Q 928 4138 513 4856 
z
" transform="scale(0.015625)"/>
      </defs>
      <use xlink:href="#DejaVuSans-54"/>
      <use xlink:href="#DejaVuSans-69" x="57.958984"/>
      <use xlink:href="#DejaVuSans-6d" x="85.742188"/>
      <use xlink:href="#DejaVuSans-65" x="183.154297"/>
      <use xlink:href="#DejaVuSans-28" x="244.677734"/>
      <use xlink:href="#DejaVuSans-73" x="283.691406"/>
      <use xlink:href="#DejaVuSans-29" x="335.791016"/>
     </g>
    </g>
   </g>
   <g id="matplotlib.axis_2">
    <g id="ytick_1">
     <g id="line2d_17">
      <path d="M 57.6 276.919505 
L 414.72 276.919505 
" clip-path="url(#pe00245ff33)" style="fill: none; stroke: #b0b0b0; stroke-width: 0.8; stroke-linecap: square"/>
     </g>
     <g id="line2d_18">
      <defs>
       <path id="m94d0c1f332" d="M 0 0 
L -3.5 0 
" style="stroke: #000000; stroke-width: 0.8"/>
      </defs>
      <g>
       <use xlink:href="#m94d0c1f332" x="57.6" y="276.919505" style="stroke: #000000; stroke-width: 0.8"/>
      </g>
     </g>
     <g id="text_10">
      <!-- 4 -->
      <g transform="translate(44.2375 280.718724) scale(0.1 -0.1)">
       <defs>
        <path id="DejaVuSans-34" d="M 2419 4116 
L 825 1625 
L 2419 1625 
L 2419 4116 
z
M 2253 4666 
L 3047 4666 
L 3047 1625 
L 3713 1625 
L 3713 1100 
L 3047 1100 
L 3047 0 
L 2419 0 
L 2419 1100 
L 313 1100 
L 313 1709 
L 2253 4666 
z
" transform="scale(0.015625)"/>
       </defs>
       <use xlink:href="#DejaVuSans-34"/>
      </g>
     </g>
    </g>
    <g id="ytick_2">
     <g id="line2d_19">
      <path d="M 57.6 221.081629 
L 414.72 221.081629 
" clip-path="url(#pe00245ff33)" style="fill: none; stroke: #b0b0b0; stroke-width: 0.8; stroke-linecap: square"/>
     </g>
     <g id="line2d_20">
      <g>
       <use xlink:href="#m94d0c1f332" x="57.6" y="221.081629" style="stroke: #000000; stroke-width: 0.8"/>
      </g>
     </g>
     <g id="text_11">
      <!-- 5 -->
      <g transform="translate(44.2375 224.880848) scale(0.1 -0.1)">
       <use xlink:href="#DejaVuSans-35"/>
      </g>
     </g>
    </g>
    <g id="ytick_3">
     <g id="line2d_21">
      <path d="M 57.6 165.243753 
L 414.72 165.243753 
" clip-path="url(#pe00245ff33)" style="fill: none; stroke: #b0b0b0; stroke-width: 0.8; stroke-linecap: square"/>
     </g>
     <g id="line2d_22">
      <g>
       <use xlink:href="#m94d0c1f332" x="57.6" y="165.243753" style="stroke: #000000; stroke-width: 0.8"/>
      </g>
     </g>
     <g id="text_12">
      <!-- 6 -->
      <g transform="translate(44.2375 169.042971) scale(0.1 -0.1)">
       <defs>
        <path id="DejaVuSans-36" d="M 2113 2584 
Q 1688 2584 1439 2293 
Q 1191 2003 1191 1497 
Q 1191 994 1439 701 
Q 1688 409 2113 409 
Q 2538 409 2786 701 
Q 3034 994 3034 1497 
Q 3034 2003 2786 2293 
Q 2538 2584 2113 2584 
z
M 3366 4563 
L 3366 3988 
Q 3128 4100 2886 4159 
Q 2644 4219 2406 4219 
Q 1781 4219 1451 3797 
Q 1122 3375 1075 2522 
Q 1259 2794 1537 2939 
Q 1816 3084 2150 3084 
Q 2853 3084 3261 2657 
Q 3669 2231 3669 1497 
Q 3669 778 3244 343 
Q 2819 -91 2113 -91 
Q 1303 -91 875 529 
Q 447 1150 447 2328 
Q 447 3434 972 4092 
Q 1497 4750 2381 4750 
Q 2619 4750 2861 4703 
Q 3103 4656 3366 4563 
z
" transform="scale(0.015625)"/>
       </defs>
       <use xlink:href="#DejaVuSans-36"/>
      </g>
     </g>
    </g>
    <g id="ytick_4">
     <g id="line2d_23">
      <path d="M 57.6 109.405876 
L 414.72 109.405876 
" clip-path="url(#pe00245ff33)" style="fill: none; stroke: #b0b0b0; stroke-width: 0.8; stroke-linecap: square"/>
     </g>
     <g id="line2d_24">
      <g>
       <use xlink:href="#m94d0c1f332" x="57.6" y="109.405876" style="stroke: #000000; stroke-width: 0.8"/>
      </g>
     </g>
     <g id="text_13">
      <!-- 7 -->
      <g transform="translate(44.2375 113.205095) scale(0.1 -0.1)">
       <defs>
        <path id="DejaVuSans-37" d="M 525 4666 
L 3525 4666 
L 3525 4397 
L 1831 0 
L 1172 0 
L 2766 4134 
L 525 4134 
L 525 4666 
z
" transform="scale(0.015625)"/>
       </defs>
       <use xlink:href="#DejaVuSans-37"/>
      </g>
     </g>
    </g>
    <g id="ytick_5">
     <g id="line2d_25">
      <path d="M 57.6 53.568 
L 414.72 53.568 
" clip-path="url(#pe00245ff33)" style="fill: none; stroke: #b0b0b0; stroke-width: 0.8; stroke-linecap: square"/>
     </g>
     <g id="line2d_26">
      <g>
       <use xlink:href="#m94d0c1f332" x="57.6" y="53.568" style="stroke: #000000; stroke-width: 0.8"/>
      </g>
     </g>
     <g id="text_14">
      <!-- 8 -->
      <g transform="translate(44.2375 57.367219) scale(0.1 -0.1)">
       <defs>
        <path id="DejaVuSans-38" d="M 2034 2216 
Q 1584 2216 1326 1975 
Q 1069 1734 1069 1313 
Q 1069 891 1326 650 
Q 1584 409 2034 409 
Q 2484 409 2743 651 
Q 3003 894 3003 1313 
Q 3003 1734 2745 1975 
Q 2488 2216 2034 2216 
z
M 1403 2484 
Q 997 2584 770 2862 
Q 544 3141 544 3541 
Q 544 4100 942 4425 
Q 1341 4750 2034 4750 
Q 2731 4750 3128 4425 
Q 3525 4100 3525 3541 
Q 3525 3141 3298 2862 
Q 3072 2584 2669 2484 
Q 3125 2378 3379 2068 
Q 3634 1759 3634 1313 
Q 3634 634 3220 271 
Q 2806 -91 2034 -91 
Q 1263 -91 848 271 
Q 434 634 434 1313 
Q 434 1759 690 2068 
Q 947 2378 1403 2484 
z
M 1172 3481 
Q 1172 3119 1398 2916 
Q 1625 2713 2034 2713 
Q 2441 2713 2670 2916 
Q 2900 3119 2900 3481 
Q 2900 3844 2670 4047 
Q 2441 4250 2034 4250 
Q 1625 4250 1398 4047 
Q 1172 3844 1172 3481 
z
" transform="scale(0.015625)"/>
       </defs>
       <use xlink:href="#DejaVuSans-38"/>
      </g>
     </g>
    </g>
    <g id="text_15">
     <!-- Velocity(m/s) -->
     <g transform="translate(38.157812 207.204563) rotate(-90) scale(0.1 -0.1)">
      <defs>
       <path id="DejaVuSans-56" d="M 1831 0 
L 50 4666 
L 709 4666 
L 2188 738 
L 3669 4666 
L 4325 4666 
L 2547 0 
L 1831 0 
z
" transform="scale(0.015625)"/>
       <path id="DejaVuSans-6c" d="M 603 4863 
L 1178 4863 
L 1178 0 
L 603 0 
L 603 4863 
z
" transform="scale(0.015625)"/>
       <path id="DejaVuSans-6f" d="M 1959 3097 
Q 1497 3097 1228 2736 
Q 959 2375 959 1747 
Q 959 1119 1226 758 
Q 1494 397 1959 397 
Q 2419 397 2687 759 
Q 2956 1122 2956 1747 
Q 2956 2369 2687 2733 
Q 2419 3097 1959 3097 
z
M 1959 3584 
Q 2709 3584 3137 3096 
Q 3566 2609 3566 1747 
Q 3566 888 3137 398 
Q 2709 -91 1959 -91 
Q 1206 -91 779 398 
Q 353 888 353 1747 
Q 353 2609 779 3096 
Q 1206 3584 1959 3584 
z
" transform="scale(0.015625)"/>
       <path id="DejaVuSans-63" d="M 3122 3366 
L 3122 2828 
Q 2878 2963 2633 3030 
Q 2388 3097 2138 3097 
Q 1578 3097 1268 2742 
Q 959 2388 959 1747 
Q 959 1106 1268 751 
Q 1578 397 2138 397 
Q 2388 397 2633 464 
Q 2878 531 3122 666 
L 3122 134 
Q 2881 22 2623 -34 
Q 2366 -91 2075 -91 
Q 1284 -91 818 406 
Q 353 903 353 1747 
Q 353 2603 823 3093 
Q 1294 3584 2113 3584 
Q 2378 3584 2631 3529 
Q 2884 3475 3122 3366 
z
" transform="scale(0.015625)"/>
       <path id="DejaVuSans-74" d="M 1172 4494 
L 1172 3500 
L 2356 3500 
L 2356 3053 
L 1172 3053 
L 1172 1153 
Q 1172 725 1289 603 
Q 1406 481 1766 481 
L 2356 481 
L 2356 0 
L 1766 0 
Q 1100 0 847 248 
Q 594 497 594 1153 
L 594 3053 
L 172 3053 
L 172 3500 
L 594 3500 
L 594 4494 
L 1172 4494 
z
" transform="scale(0.015625)"/>
       <path id="DejaVuSans-79" d="M 2059 -325 
Q 1816 -950 1584 -1140 
Q 1353 -1331 966 -1331 
L 506 -1331 
L 506 -850 
L 844 -850 
Q 1081 -850 1212 -737 
Q 1344 -625 1503 -206 
L 1606 56 
L 191 3500 
L 800 3500 
L 1894 763 
L 2988 3500 
L 3597 3500 
L 2059 -325 
z
" transform="scale(0.015625)"/>
       <path id="DejaVuSans-2f" d="M 1625 4666 
L 2156 4666 
L 531 -594 
L 0 -594 
L 1625 4666 
z
" transform="scale(0.015625)"/>
      </defs>
      <use xlink:href="#DejaVuSans-56"/>
      <use xlink:href="#DejaVuSans-65" x="60.658203"/>
      <use xlink:href="#DejaVuSans-6c" x="122.181641"/>
      <use xlink:href="#DejaVuSans-6f" x="149.964844"/>
      <use xlink:href="#DejaVuSans-63" x="211.146484"/>
      <use xlink:href="#DejaVuSans-69" x="266.126953"/>
      <use xlink:href="#DejaVuSans-74" x="293.910156"/>
      <use xlink:href="#DejaVuSans-79" x="333.119141"/>
      <use xlink:href="#DejaVuSans-28" x="392.298828"/>
      <use xlink:href="#DejaVuSans-6d" x="431.3125"/>
      <use xlink:href="#DejaVuSans-2f" x="528.724609"/>
      <use xlink:href="#DejaVuSans-73" x="562.416016"/>
      <use xlink:href="#DejaVuSans-29" x="614.515625"/>
     </g>
    </g>
   </g>
   <g id="line2d_27">
    <path d="M 73.832727 53.698828 
L 77.013882 53.590614 
L 77.013882 53.590614 
L 88.324656 53.568056 
L 88.324656 53.568056 
L 92.389465 53.568 
L 92.389465 53.568 
L 92.566196 54.779068 
L 92.566196 54.779068 
L 92.742927 57.796993 
L 92.742927 57.796993 
L 95.57062 137.580496 
L 95.57062 137.580496 
L 97.868121 176.91532 
L 97.868121 176.91532 
L 99.105237 190.045653 
L 99.105237 190.045653 
L 99.81216 194.599678 
L 99.81216 194.599678 
L 100.519083 197.701026 
L 100.519083 197.701026 
L 100.872545 198.592701 
L 100.872545 198.592701 
L 101.402738 199.198486 
L 101.402738 199.198486 
L 101.756199 199.376497 
L 101.756199 199.376497 
L 102.109661 199.473822 
L 102.109661 199.473822 
L 103.170046 199.183745 
L 103.170046 199.183745 
L 103.700239 198.543228 
L 103.700239 198.543228 
L 104.0537 197.812869 
L 104.0537 197.812869 
L 104.937354 193.577845 
L 104.937354 193.577845 
L 105.290816 191.072958 
L 105.290816 191.072958 
L 105.644278 187.85463 
L 105.644278 187.85463 
L 106.704663 171.068201 
L 106.704663 171.068201 
L 107.765048 151.233862 
L 107.765048 151.233862 
L 108.29524 147.490882 
L 108.29524 147.490882 
L 108.825433 145.957629 
L 108.825433 145.957629 
L 109.355625 145.257869 
L 109.355625 145.257869 
L 109.885818 145.002187 
L 109.885818 145.002187 
L 111.653126 144.104035 
L 111.653126 144.104035 
L 112.360049 143.076116 
L 112.360049 143.076116 
L 112.713511 142.284558 
L 112.713511 142.284558 
L 113.597165 138.471724 
L 113.597165 138.471724 
L 114.304089 133.480656 
L 114.304089 133.480656 
L 114.65755 130.164221 
L 114.65755 130.164221 
L 115.541205 119.281698 
L 115.541205 119.281698 
L 115.717935 118.273378 
L 115.717935 118.273378 
L 115.894666 118.609968 
L 115.894666 118.609968 
L 116.071397 119.491816 
L 116.248128 121.788875 
L 116.248128 121.788875 
L 117.131782 140.334978 
L 117.131782 140.334978 
L 118.192167 157.242687 
L 118.192167 157.242687 
L 118.89909 164.514287 
L 118.89909 164.514287 
L 119.429283 167.698441 
L 119.429283 167.698441 
L 120.136206 170.157151 
L 120.136206 170.157151 
L 120.489668 170.530985 
L 120.489668 170.530985 
L 120.84313 171.019008 
L 120.84313 171.019008 
L 121.01986 171.197969 
L 121.01986 171.197969 
L 121.196591 171.197354 
L 121.196591 171.197354 
L 121.373322 171.343203 
L 121.373322 171.343203 
L 121.726784 171.32165 
L 121.726784 171.32165 
L 122.256976 171.424447 
L 122.256976 171.424447 
L 122.787169 171.345548 
L 122.787169 171.345548 
L 123.14063 171.356325 
L 123.14063 171.356325 
L 123.670823 171.141126 
L 123.670823 171.141126 
L 124.024285 171.040897 
L 124.024285 171.040897 
L 124.554477 170.644001 
L 124.554477 170.644001 
L 125.261401 170.068536 
L 125.261401 170.068536 
L 126.851978 167.639197 
L 126.851978 167.639197 
L 127.20544 166.937985 
L 127.20544 166.937985 
L 127.912363 165.414672 
L 127.912363 165.414672 
L 128.619286 163.495469 
L 128.619286 163.495469 
L 128.972748 162.419194 
L 128.972748 162.419194 
L 129.856402 159.61563 
L 129.856402 159.61563 
L 130.563326 157.23554 
L 130.563326 157.23554 
L 132.860826 146.981082 
L 132.860826 146.981082 
L 134.981596 134.292148 
L 134.981596 134.292148 
L 135.865251 128.023899 
L 135.865251 128.023899 
L 137.80929 110.471542 
L 137.80929 110.471542 
L 138.692944 100.418658 
L 138.692944 100.418658 
L 141.167176 68.967807 
L 141.167176 68.967807 
L 141.874099 63.997231 
L 141.874099 63.997231 
L 142.581022 60.630989 
L 142.581022 60.630989 
L 143.287946 58.351296 
L 143.287946 58.351296 
L 143.994869 56.807379 
L 143.994869 56.807379 
L 144.701792 55.761814 
L 144.701792 55.761814 
L 145.408716 55.053734 
L 145.408716 55.053734 
L 146.29237 54.480782 
L 146.29237 54.480782 
L 147.352755 54.076683 
L 147.352755 54.076683 
L 148.766602 53.801291 
L 148.766602 53.801291 
L 150.710641 53.647904 
L 150.710641 53.647904 
L 150.887372 54.657453 
L 150.887372 54.657453 
L 151.594295 69.484307 
L 151.594295 69.484307 
L 152.65468 104.885744 
L 152.65468 104.885744 
L 153.008142 113.510072 
L 153.008142 113.510072 
L 153.361603 123.615387 
L 153.361603 123.615387 
L 154.068527 141.973485 
L 154.068527 141.973485 
L 154.421988 151.376137 
L 154.421988 151.376137 
L 155.482373 176.32584 
L 155.482373 176.32584 
L 157.956605 218.984247 
L 157.956605 218.984247 
L 158.486798 224.726335 
L 158.486798 224.726335 
L 159.01699 230.43263 
L 159.01699 230.43263 
L 159.547183 234.628847 
L 159.547183 234.628847 
L 159.900644 237.071977 
L 159.900644 237.071977 
L 161.314491 243.976833 
L 161.314491 243.976833 
L 162.021414 245.836346 
L 162.021414 245.836346 
L 162.728338 246.900728 
L 162.728338 246.900728 
L 162.905069 247.065059 
L 162.905069 247.065059 
L 163.435261 247.108445 
L 163.435261 247.108445 
L 163.611992 247.240948 
L 163.611992 247.240948 
L 163.788723 247.215988 
L 163.788723 247.215988 
L 163.965454 247.337212 
L 163.965454 247.337212 
L 164.495646 247.229836 
L 164.495646 247.229836 
L 164.849108 247.279811 
L 164.849108 247.279811 
L 165.202569 247.231288 
L 165.202569 247.231288 
L 165.732762 246.931048 
L 165.732762 246.931048 
L 166.262954 246.359603 
L 166.262954 246.359603 
L 166.969878 245.107439 
L 166.969878 245.107439 
L 167.676801 243.144123 
L 167.676801 243.144123 
L 168.913917 237.608691 
L 168.913917 237.608691 
L 169.62084 234.039087 
L 169.62084 234.039087 
L 170.681225 227.174993 
L 170.681225 227.174993 
L 172.095072 215.776584 
L 172.095072 215.776584 
L 173.332188 203.632683 
L 173.332188 203.632683 
L 176.513343 169.381507 
L 176.513343 169.381507 
L 178.634113 147.451907 
L 178.634113 147.451907 
L 179.517767 137.36552 
L 179.517767 137.36552 
L 180.22469 127.763136 
L 180.22469 127.763136 
L 180.931614 115.657932 
L 180.931614 115.657932 
L 182.16873 89.810579 
L 182.16873 89.810579 
L 182.522191 87.282798 
L 182.522191 87.282798 
L 182.698922 86.807171 
L 182.698922 86.807171 
L 182.875653 88.125838 
L 182.875653 88.125838 
L 184.466231 131.521416 
L 184.466231 131.521416 
L 186.587001 193.854187 
L 186.587001 193.854187 
L 187.117193 205.778254 
L 187.117193 205.778254 
L 187.647386 217.521406 
L 187.647386 217.521406 
L 189.768156 251.888334 
L 189.768156 251.888334 
L 191.535464 266.53729 
L 191.535464 266.53729 
L 192.949311 272.133027 
L 192.949311 272.133027 
L 193.302772 272.859589 
L 193.302772 272.859589 
L 194.186426 274.02124 
L 194.186426 274.02124 
L 194.539888 274.372628 
L 194.539888 274.372628 
L 194.716619 274.353643 
L 194.716619 274.353643 
L 194.89335 274.46638 
L 194.89335 274.46638 
L 195.246812 274.50474 
L 195.246812 274.50474 
L 195.600273 274.592127 
L 195.600273 274.592127 
L 195.953735 274.574929 
L 195.953735 274.574929 
L 196.660658 274.504182 
L 196.660658 274.504182 
L 197.190851 274.17351 
L 197.190851 274.17351 
L 197.544312 273.969088 
L 197.544312 273.969088 
L 198.074505 273.258216 
L 198.074505 273.258216 
L 198.427967 272.746461 
L 198.427967 272.746461 
L 198.958159 271.354814 
L 198.958159 271.354814 
L 199.488352 269.7258 
L 199.488352 269.7258 
L 200.018544 267.388929 
L 200.018544 267.388929 
L 201.432391 257.669676 
L 201.432391 257.669676 
L 202.139314 251.051101 
L 202.139314 251.051101 
L 203.022968 240.784917 
L 203.022968 240.784917 
L 203.553161 233.525323 
L 203.553161 233.525323 
L 205.143738 204.311281 
L 205.143738 204.311281 
L 205.850662 188.635691 
L 205.850662 188.635691 
L 206.734316 166.617197 
L 206.734316 166.617197 
L 207.971432 132.455082 
L 207.971432 132.455082 
L 209.208548 97.226965 
L 209.208548 97.226965 
L 209.915471 83.135216 
L 209.915471 83.135216 
L 210.622394 73.591853 
L 210.622394 73.591853 
L 211.329318 67.128787 
L 211.329318 67.128787 
L 212.036241 62.751823 
L 212.036241 62.751823 
L 212.743164 59.787558 
L 212.743164 59.787558 
L 213.450088 57.780074 
L 213.450088 57.780074 
L 214.157011 56.42059 
L 214.157011 56.42059 
L 214.863934 55.499823 
L 214.863934 55.499823 
L 215.040665 55.334599 
L 215.040665 55.334599 
L 215.217396 55.747241 
L 215.217396 55.747241 
L 215.747588 63.474588 
L 215.747588 63.474588 
L 216.10105 69.873721 
L 216.10105 69.873721 
L 216.631243 81.066032 
L 216.631243 81.066032 
L 217.514897 100.162642 
L 217.514897 100.162642 
L 217.868358 108.464394 
L 217.868358 108.464394 
L 219.105474 134.434255 
L 219.105474 134.434255 
L 219.812398 149.380882 
L 219.812398 149.380882 
L 222.109899 185.753842 
L 222.109899 185.753842 
L 223.700476 199.156217 
L 223.700476 199.156217 
L 224.58413 203.125675 
L 224.58413 203.125675 
L 225.114323 204.370972 
L 225.114323 204.370972 
L 225.467784 204.851736 
L 225.467784 204.851736 
L 225.821246 205.12791 
L 225.821246 205.12791 
L 226.351439 205.17822 
L 226.351439 205.17822 
L 226.881631 205.24919 
L 226.881631 205.24919 
L 227.765285 205.029021 
L 227.765285 205.029021 
L 228.118747 204.784284 
L 228.118747 204.784284 
L 228.82567 203.426307 
L 228.82567 203.426307 
L 229.532594 200.978709 
L 229.532594 200.978709 
L 230.239517 196.87496 
L 230.239517 196.87496 
L 230.592979 193.448469 
L 230.592979 193.448469 
L 230.94644 189.606711 
L 230.94644 189.606711 
L 231.476633 182.786673 
L 231.476633 182.786673 
L 232.183556 170.154973 
L 232.183556 170.154973 
L 232.713749 158.438791 
L 232.713749 158.438791 
L 233.420672 139.174444 
L 233.420672 139.174444 
L 234.481057 108.461881 
L 234.481057 108.461881 
L 235.18798 90.833919 
L 235.18798 90.833919 
L 235.894904 78.805659 
L 235.894904 78.805659 
L 236.601827 70.659751 
L 236.601827 70.659751 
L 237.30875 65.14308 
L 237.30875 65.14308 
L 238.015674 61.407024 
L 238.015674 61.407024 
L 238.722597 58.876842 
L 238.722597 58.876842 
L 239.42952 57.163289 
L 239.42952 57.163289 
L 240.136444 56.002866 
L 240.136444 56.002866 
L 240.843367 55.216948 
L 240.843367 55.216948 
L 241.37356 54.898672 
L 241.37356 54.898672 
L 241.903752 60.0706 
L 241.903752 60.0706 
L 242.257214 64.176526 
L 242.257214 64.176526 
L 243.317599 80.631334 
L 243.317599 80.631334 
L 243.847791 88.148285 
L 243.847791 88.148285 
L 244.201253 93.871277 
L 244.201253 93.871277 
L 245.084907 106.891776 
L 245.084907 106.891776 
L 245.438369 112.420787 
L 245.438369 112.420787 
L 246.852216 130.641802 
L 246.852216 130.641802 
L 247.912601 139.547609 
L 247.912601 139.547609 
L 248.796255 143.749744 
L 248.796255 143.749744 
L 249.326447 145.160153 
L 249.326447 145.160153 
L 249.679909 145.584186 
L 249.679909 145.584186 
L 250.033371 145.788329 
L 250.033371 145.788329 
L 250.210101 145.939873 
L 250.210101 145.939873 
L 250.563563 145.954223 
L 250.563563 145.954223 
L 250.740294 146.065173 
L 250.740294 146.065173 
L 250.917025 146.013355 
L 250.917025 146.013355 
L 251.270486 146.074889 
L 251.270486 146.074889 
L 252.154141 145.419352 
L 252.154141 145.419352 
L 252.861064 143.750023 
L 252.861064 143.750023 
L 253.214526 142.592671 
L 253.214526 142.592671 
L 254.451642 135.721877 
L 254.451642 135.721877 
L 254.981834 131.43766 
L 254.981834 131.43766 
L 255.688757 124.592941 
L 255.688757 124.592941 
L 257.279335 104.088044 
L 257.279335 104.088044 
L 259.400105 71.789016 
L 259.400105 71.789016 
L 260.107028 65.907836 
L 260.107028 65.907836 
L 260.813952 61.92492 
L 260.813952 61.92492 
L 261.520875 59.22756 
L 261.520875 59.22756 
L 262.227798 57.400824 
L 262.227798 57.400824 
L 262.934722 56.163735 
L 262.934722 56.163735 
L 263.641645 55.325888 
L 263.641645 55.325888 
L 264.525299 54.64796 
L 264.525299 54.64796 
L 265.585684 54.169876 
L 265.585684 54.169876 
L 266.8228 53.872316 
L 266.8228 53.872316 
L 268.766839 53.672193 
L 268.766839 53.672193 
L 272.301456 53.582853 
L 272.301456 53.582853 
L 276.366265 53.569563 
L 276.366265 53.569563 
L 276.542996 54.942282 
L 276.542996 54.942282 
L 276.896458 64.763159 
L 276.896458 64.763159 
L 277.249919 76.528591 
L 277.249919 76.528591 
L 277.603381 88.80868 
L 277.603381 88.80868 
L 277.956843 102.118196 
L 277.956843 102.118196 
L 278.663766 127.461612 
L 278.663766 127.461612 
L 279.370689 155.551637 
L 279.370689 155.551637 
L 279.724151 166.859812 
L 279.724151 166.859812 
L 280.077613 180.119856 
L 280.077613 180.119856 
L 280.607805 196.922367 
L 280.607805 196.922367 
L 282.728575 245.775036 
L 282.728575 245.775036 
L 284.319153 270.249224 
L 284.319153 270.249224 
L 286.263192 288.057933 
L 286.263192 288.057933 
L 286.793384 291.336231 
L 286.793384 291.336231 
L 287.677039 294.13918 
L 287.677039 294.13918 
L 288.207231 294.894388 
L 288.207231 294.894388 
L 288.560693 295.088033 
L 288.560693 295.088033 
L 289.444347 295.359238 
L 289.444347 295.359238 
L 290.328001 295.243263 
L 290.328001 295.243263 
L 290.858194 294.823808 
L 290.858194 294.823808 
L 291.211655 294.484202 
L 291.211655 294.484202 
L 291.741848 293.298038 
L 291.741848 293.298038 
L 292.27204 291.771487 
L 292.27204 291.771487 
L 292.625502 290.237453 
L 292.625502 290.237453 
L 293.155695 287.722962 
L 293.155695 287.722962 
L 293.685887 284.487715 
L 293.685887 284.487715 
L 294.21608 280.835583 
L 294.21608 280.835583 
L 296.33685 259.646226 
L 296.33685 259.646226 
L 301.462044 182.444331 
L 301.462044 182.444331 
L 302.522429 167.555664 
L 302.522429 167.555664 
L 303.052621 160.367766 
L 303.052621 160.367766 
L 303.406083 158.385242 
L 303.406083 158.385242 
L 304.289737 175.006279 
L 304.289737 175.006279 
L 304.643199 185.097803 
L 304.643199 185.097803 
L 305.173391 197.712361 
L 305.173391 197.712361 
L 306.763969 226.684345 
L 306.763969 226.684345 
L 307.294161 232.719694 
L 307.294161 232.719694 
L 307.824354 238.76018 
L 307.824354 238.76018 
L 309.414931 250.704348 
L 309.414931 250.704348 
L 309.945124 253.6594 
L 309.945124 253.6594 
L 310.298586 255.62333 
L 310.298586 255.62333 
L 310.652047 256.955733 
L 310.652047 256.955733 
L 311.889163 260.101416 
L 311.889163 260.101416 
L 312.596087 261.136706 
L 312.596087 261.136706 
L 312.772817 261.149437 
L 312.772817 261.149437 
L 313.126279 261.402606 
L 313.126279 261.402606 
L 314.009933 261.550409 
L 314.009933 261.550409 
L 314.540126 261.516627 
L 314.540126 261.516627 
L 315.600511 261.029386 
L 315.600511 261.029386 
L 316.307434 260.139107 
L 316.307434 260.139107 
L 316.660896 259.37195 
L 316.660896 259.37195 
L 317.191088 258.055405 
L 317.191088 258.055405 
L 317.898012 255.320745 
L 317.898012 255.320745 
L 319.66532 244.080859 
L 319.66532 244.080859 
L 320.548974 236.994307 
L 320.548974 236.994307 
L 321.432628 228.330279 
L 321.432628 228.330279 
L 323.553398 202.773394 
L 323.553398 202.773394 
L 324.790514 184.843964 
L 324.790514 184.843964 
L 326.02763 163.316229 
L 326.02763 163.316229 
L 327.264746 141.349497 
L 327.264746 141.349497 
L 327.618208 138.945118 
L 327.618208 138.945118 
L 327.794938 139.478314 
L 327.794938 139.478314 
L 327.971669 139.442522 
L 327.971669 139.442522 
L 328.501862 146.970082 
L 328.501862 146.970082 
L 329.208785 162.281665 
L 329.208785 162.281665 
L 331.329555 194.997077 
L 331.329555 194.997077 
L 332.566671 205.044042 
L 332.566671 205.044042 
L 333.273594 208.273481 
L 333.273594 208.273481 
L 333.803787 209.488681 
L 333.803787 209.488681 
L 334.333979 209.97676 
L 334.333979 209.97676 
L 334.687441 210.117974 
L 334.687441 210.117974 
L 335.217633 210.254832 
L 335.217633 210.254832 
L 336.101288 210.123557 
L 336.101288 210.123557 
L 336.808211 209.224903 
L 336.808211 209.224903 
L 337.515134 207.364105 
L 337.515134 207.364105 
L 338.222058 203.994848 
L 338.222058 203.994848 
L 338.75225 200.075978 
L 338.75225 200.075978 
L 339.812635 185.491627 
L 339.812635 185.491627 
L 340.342828 178.336339 
L 340.342828 178.336339 
L 340.696289 177.052347 
L 340.696289 177.052347 
L 341.049751 177.349013 
L 341.049751 177.349013 
L 342.110136 185.60777 
L 342.110136 185.60777 
L 342.640329 187.471192 
L 342.640329 187.471192 
L 342.99379 187.880986 
L 342.99379 187.880986 
L 343.347252 188.089931 
L 343.347252 188.089931 
L 343.700714 188.170338 
L 343.700714 188.170338 
L 344.054175 188.010921 
L 344.054175 188.010921 
L 344.584368 186.987468 
L 344.584368 186.987468 
L 344.937829 185.822355 
L 344.937829 185.822355 
L 345.291291 184.08831 
L 345.291291 184.08831 
L 346.174945 174.504464 
L 346.174945 174.504464 
L 346.705138 168.732168 
L 346.705138 168.732168 
L 346.881869 167.592517 
L 346.881869 167.592517 
L 347.23533 167.278596 
L 347.23533 167.278596 
L 347.412061 168.473695 
L 347.412061 168.473695 
L 347.942254 175.29323 
L 347.942254 175.29323 
L 348.649177 182.097857 
L 348.649177 182.097857 
L 349.002639 184.13929 
L 349.002639 184.13929 
L 349.532831 185.725309 
L 349.532831 185.725309 
L 349.709562 185.786507 
L 349.709562 185.786507 
L 350.063024 186.163525 
L 350.063024 186.163525 
L 350.416485 186.353373 
L 350.416485 186.353373 
L 351.47687 186.190271 
L 351.47687 186.190271 
L 352.360525 185.675278 
L 352.360525 185.675278 
L 353.59764 183.706211 
L 353.59764 183.706211 
L 354.304564 181.899521 
L 354.304564 181.899521 
L 355.188218 179.180775 
L 355.188218 179.180775 
L 356.425334 173.979756 
L 356.425334 173.979756 
L 358.192642 163.320417 
L 358.192642 163.320417 
L 360.136681 148.401932 
L 360.136681 148.401932 
L 361.727259 137.244687 
L 361.727259 137.244687 
L 362.964375 130.659503 
L 362.964375 130.659503 
L 364.731683 121.014124 
L 364.731683 121.014124 
L 365.261876 117.028305 
L 365.261876 117.028305 
L 365.792068 112.134785 
L 365.792068 112.134785 
L 366.322261 106.078553 
L 366.322261 106.078553 
L 368.619761 71.620385 
L 368.619761 71.620385 
L 369.326685 65.793647 
L 369.326685 65.793647 
L 370.033608 61.847584 
L 370.033608 61.847584 
L 370.740531 59.175184 
L 370.740531 59.175184 
L 371.447455 57.365366 
L 371.447455 57.365366 
L 372.154378 56.139725 
L 372.154378 56.139725 
L 372.861302 55.309639 
L 372.861302 55.309639 
L 373.744956 54.637965 
L 373.744956 54.637965 
L 374.805341 54.164349 
L 374.805341 54.164349 
L 376.042457 53.869469 
L 376.042457 53.869469 
L 377.986496 53.671244 
L 377.986496 53.671244 
L 381.521112 53.582685 
L 381.521112 53.582685 
L 394.952656 53.568 
L 394.952656 53.568 
L 395.659579 53.592848 
L 395.659579 53.592848 
L 397.073426 53.591396 
L 397.073426 53.591396 
L 397.426888 53.823347 
L 397.426888 53.823347 
L 398.487273 53.78225 
L 398.487273 53.78225 
" clip-path="url(#pe00245ff33)" style="fill: none; stroke: #1f77b4; stroke-width: 1.5; stroke-linecap: square"/>
   </g>
   <g id="line2d_28">
    <path d="M 73.832727 53.568 
L 92.212734 53.568 
L 92.212734 53.568 
L 92.389465 57.086289 
L 92.389465 57.086289 
L 92.742927 72.648305 
L 92.742927 72.648305 
L 92.919658 81.800691 
L 92.919658 81.800691 
L 93.096388 80.894777 
L 93.096388 80.894777 
L 93.44985 94.330431 
L 93.44985 94.330431 
L 93.626581 103.305253 
L 93.626581 103.305253 
L 93.803312 103.08581 
L 93.803312 103.08581 
L 94.156773 115.890441 
L 94.156773 115.890441 
L 94.333504 123.793901 
L 94.333504 123.793901 
L 94.510235 122.663184 
L 94.510235 122.663184 
L 94.863697 136.270372 
L 95.040428 135.380428 
L 95.217158 139.751752 
L 95.217158 139.751752 
L 95.393889 147.06657 
L 95.57062 146.748796 
L 95.57062 146.748796 
L 95.924082 157.783477 
L 95.924082 157.783477 
L 96.100813 156.775883 
L 96.100813 156.775883 
L 96.277543 161.412716 
L 96.277543 161.412716 
L 96.454274 162.906323 
L 96.454274 162.906323 
L 96.631005 165.728202 
L 96.631005 165.728202 
L 96.807736 171.15542 
L 96.807736 171.15542 
L 96.984467 171.167984 
L 96.984467 171.167984 
L 97.161198 174.579678 
L 97.161198 174.579678 
L 97.337928 175.700512 
L 97.337928 175.700512 
L 98.044852 185.364652 
L 98.044852 185.364652 
L 98.221583 185.953909 
L 98.221583 185.953909 
L 98.928506 193.479682 
L 98.928506 193.479682 
L 99.105237 193.630668 
L 99.105237 193.630668 
L 99.281968 195.152362 
L 99.281968 195.152362 
L 99.458698 195.344612 
L 99.458698 195.344612 
L 99.635429 196.59337 
L 99.635429 196.59337 
L 99.81216 197.005565 
L 100.165622 198.760159 
L 100.165622 198.760159 
L 100.342353 198.803935 
L 100.342353 198.803935 
L 100.695814 199.339309 
L 100.695814 199.339309 
L 100.872545 199.332162 
L 100.872545 199.332162 
L 101.049276 199.566904 
L 101.226007 199.395594 
L 101.226007 199.395594 
L 101.402738 199.619615 
L 101.402738 199.619615 
L 101.579469 199.439482 
L 101.579469 199.439482 
L 101.756199 199.655575 
L 101.756199 199.655575 
L 102.109661 199.154542 
L 102.109661 199.154542 
L 102.286392 199.422675 
L 102.463123 198.851565 
L 102.463123 198.851565 
L 102.639854 199.120927 
L 102.639854 199.120927 
L 102.816584 198.257729 
L 102.816584 198.257729 
L 102.993315 198.438197 
L 102.993315 198.438197 
L 103.170046 197.297262 
L 103.170046 197.297262 
L 103.346777 197.027453 
L 103.346777 197.027453 
L 103.876969 193.908685 
L 103.876969 193.908685 
L 104.0537 189.694433 
L 104.0537 189.694433 
L 104.230431 190.815322 
L 104.230431 190.815322 
L 104.407162 186.203784 
L 104.407162 186.203784 
L 104.583893 186.978534 
L 104.583893 186.978534 
L 104.760624 182.300102 
L 104.760624 182.300102 
L 104.937354 181.872775 
L 104.937354 181.872775 
L 105.290816 175.043802 
L 105.290816 175.043802 
L 105.467547 170.948485 
L 105.467547 170.948485 
L 105.644278 159.848418 
L 105.644278 159.848418 
L 105.821009 162.830719 
L 105.821009 162.830719 
L 105.997739 151.205385 
L 105.997739 151.205385 
L 106.17447 152.175791 
L 106.17447 152.175791 
L 106.351201 141.78453 
L 106.351201 141.78453 
L 106.527932 139.70965 
L 106.527932 139.70965 
L 107.058124 121.335248 
L 107.058124 121.335248 
L 107.234855 125.324696 
L 107.234855 125.324696 
L 107.411586 126.4835 
L 107.411586 126.4835 
L 107.941779 135.725618 
L 107.941779 135.725618 
L 108.29524 140.745499 
L 108.29524 140.745499 
L 108.471971 140.980297 
L 108.471971 140.980297 
L 108.648702 142.433198 
L 108.648702 142.433198 
L 108.825433 142.703007 
L 109.532356 144.409468 
L 109.532356 144.409468 
L 110.062549 144.006933 
L 110.062549 144.006933 
L 110.239279 143.837409 
L 110.41601 144.116599 
L 110.41601 144.116599 
L 110.592741 143.914856 
L 110.592741 143.914856 
L 110.769472 143.476529 
L 110.769472 143.476529 
L 110.946203 143.810607 
L 110.946203 143.810607 
L 111.122934 143.750302 
L 111.122934 143.750302 
L 111.299664 142.312533 
L 111.299664 142.312533 
L 111.476395 143.277523 
L 111.476395 143.277523 
L 111.653126 141.777383 
L 111.653126 141.777383 
L 111.829857 141.860023 
L 111.829857 141.860023 
L 112.006588 141.41399 
L 112.006588 141.41399 
L 112.183319 139.055956 
L 112.183319 139.055956 
L 112.360049 139.286399 
L 112.360049 139.286399 
L 112.53678 137.988001 
L 112.713511 134.940258 
L 112.713511 134.940258 
L 112.890242 135.527114 
L 112.890242 135.527114 
L 113.066973 133.708977 
L 113.066973 133.708977 
L 113.243704 129.088002 
L 113.243704 129.088002 
L 113.420435 130.262552 
L 113.420435 130.262552 
L 113.597165 126.664694 
L 113.597165 126.664694 
L 113.773896 125.955497 
L 113.773896 125.955497 
L 113.950627 123.42766 
L 113.950627 123.42766 
L 114.127358 117.473109 
L 114.127358 117.473109 
L 114.304089 116.885416 
L 114.304089 116.885416 
L 114.48082 112.812378 
L 114.48082 112.812378 
L 114.65755 104.907689 
L 114.65755 104.907689 
L 114.834281 104.238248 
L 114.834281 104.238248 
L 115.011012 98.569643 
L 115.011012 98.569643 
L 115.364474 101.961906 
L 115.364474 101.961906 
L 115.541205 108.420561 
L 115.541205 108.420561 
L 115.717935 119.251266 
L 115.717935 119.251266 
L 115.894666 121.171754 
L 115.894666 121.171754 
L 116.77832 145.332245 
L 116.77832 145.332245 
L 116.955051 146.337159 
L 116.955051 146.337159 
L 117.838705 160.668118 
L 117.838705 160.668118 
L 118.015436 161.021348 
L 118.015436 161.021348 
L 118.368898 165.774101 
L 118.368898 165.774101 
L 118.545629 165.58978 
L 118.545629 165.58978 
L 118.72236 167.593745 
L 118.72236 167.593745 
L 118.89909 167.992037 
L 118.89909 167.992037 
L 119.252552 169.443208 
L 119.252552 169.443208 
L 119.429283 169.747021 
L 119.429283 169.747021 
L 119.606014 170.545001 
L 119.606014 170.545001 
L 119.959475 171.056364 
L 119.959475 171.056364 
L 120.136206 170.522163 
L 120.136206 170.522163 
L 120.489668 171.407249 
L 120.489668 171.407249 
L 120.666399 171.374081 
L 120.666399 171.374081 
L 120.84313 171.538971 
L 120.84313 171.538971 
L 121.01986 171.191101 
L 121.01986 171.191101 
L 121.196591 171.621164 
L 121.196591 171.621164 
L 121.373322 171.114547 
L 121.373322 171.114547 
L 121.726784 171.524844 
L 121.726784 171.524844 
L 121.903515 170.880363 
L 121.903515 170.880363 
L 122.080245 171.577499 
L 122.080245 171.577499 
L 122.256976 170.861322 
L 122.256976 170.861322 
L 122.610438 171.316345 
L 122.610438 171.316345 
L 122.787169 171.406914 
L 122.787169 171.406914 
L 122.9639 171.255426 
L 122.9639 171.255426 
L 123.14063 170.181273 
L 123.14063 170.181273 
L 123.317361 170.651483 
L 123.317361 170.651483 
L 123.670823 170.669128 
L 123.670823 170.669128 
L 123.847554 170.489889 
L 123.847554 170.489889 
L 124.024285 169.042124 
L 124.024285 169.042124 
L 124.201015 170.191826 
L 124.201015 170.191826 
L 124.377746 169.180825 
L 124.377746 169.180825 
L 124.554477 169.421989 
L 124.554477 169.421989 
L 124.907939 168.353643 
L 124.907939 168.353643 
L 125.08467 168.91459 
L 125.08467 168.91459 
L 125.261401 167.384074 
L 125.261401 167.384074 
L 125.438131 167.771254 
L 125.438131 167.771254 
L 125.614862 166.93899 
L 125.614862 166.93899 
L 125.791593 166.95094 
L 125.791593 166.95094 
L 125.968324 167.170048 
L 126.145055 165.071939 
L 126.145055 165.071939 
L 126.321786 165.615912 
L 126.321786 165.615912 
L 126.498516 164.377595 
L 126.498516 164.377595 
L 126.675247 164.473469 
L 126.675247 164.473469 
L 126.851978 164.848923 
L 126.851978 164.848923 
L 127.028709 162.617586 
L 127.028709 162.617586 
L 127.20544 163.385803 
L 127.20544 163.385803 
L 127.382171 162.228396 
L 127.382171 162.228396 
L 127.558901 162.382955 
L 127.558901 162.382955 
L 127.912363 159.26614 
L 127.912363 159.26614 
L 128.089094 160.291212 
L 128.089094 160.291212 
L 128.265825 159.096728 
L 128.265825 159.096728 
L 128.442556 159.280435 
L 128.442556 159.280435 
L 128.619286 158.93921 
L 128.619286 158.93921 
L 128.796017 156.035528 
L 128.796017 156.035528 
L 128.972748 157.047757 
L 128.972748 157.047757 
L 129.149479 155.5508 
L 129.149479 155.5508 
L 129.32621 155.689445 
L 129.32621 155.689445 
L 129.502941 155.394565 
L 129.502941 155.394565 
L 129.679671 152.896937 
L 129.679671 152.896937 
L 129.856402 153.856623 
L 129.856402 153.856623 
L 130.033133 151.996663 
L 130.033133 151.996663 
L 130.209864 152.027095 
L 130.209864 152.027095 
L 130.386595 151.432031 
L 130.386595 151.432031 
L 130.563326 148.98326 
L 130.563326 148.98326 
L 130.740056 149.796595 
L 130.916787 147.565983 
L 130.916787 147.565983 
L 131.093518 147.389368 
L 131.093518 147.389368 
L 131.270249 146.784142 
L 131.270249 146.784142 
L 131.44698 144.759907 
L 131.44698 144.759907 
L 131.623711 145.014137 
L 131.800441 143.711774 
L 131.800441 143.711774 
L 131.977172 140.927977 
L 131.977172 140.927977 
L 132.153903 141.615676 
L 132.153903 141.615676 
L 132.507365 139.682904 
L 132.507365 139.682904 
L 132.684096 138.468151 
L 132.684096 138.468151 
L 132.860826 136.137589 
L 132.860826 136.137589 
L 133.037557 136.384728 
L 133.037557 136.384728 
L 133.214288 134.925684 
L 133.214288 134.925684 
L 133.391019 132.208557 
L 133.391019 132.208557 
L 133.56775 133.26501 
L 133.56775 133.26501 
L 133.921211 127.982077 
L 133.921211 127.982077 
L 134.097942 128.967895 
L 134.097942 128.967895 
L 134.274673 126.574404 
L 134.274673 126.574404 
L 134.451404 126.353844 
L 134.451404 126.353844 
L 134.628135 124.771957 
L 134.628135 124.771957 
L 134.804866 121.932545 
L 134.804866 121.932545 
L 134.981596 121.910825 
L 134.981596 121.910825 
L 135.158327 120.197886 
L 135.158327 120.197886 
L 135.335058 116.959457 
L 135.335058 116.959457 
L 135.511789 117.087549 
L 135.511789 117.087549 
L 135.68852 115.552621 
L 135.68852 115.552621 
L 135.865251 111.679706 
L 135.865251 111.679706 
L 136.041981 111.872682 
L 136.041981 111.872682 
L 136.218712 109.978661 
L 136.218712 109.978661 
L 136.395443 106.103457 
L 136.395443 106.103457 
L 136.572174 106.25098 
L 136.748905 104.10809 
L 136.748905 104.10809 
L 136.925636 100.235957 
L 136.925636 100.235957 
L 137.102367 99.941803 
L 137.102367 99.941803 
L 137.279097 97.899533 
L 137.279097 97.899533 
L 137.455828 93.945206 
L 137.455828 93.945206 
L 137.632559 93.525305 
L 137.632559 93.525305 
L 137.986021 87.475104 
L 137.986021 87.475104 
L 138.162752 82.123937 
L 138.162752 82.123937 
L 138.339482 83.776514 
L 138.339482 83.776514 
L 138.692944 75.097577 
L 138.692944 75.097577 
L 138.869675 75.229969 
L 138.869675 75.229969 
L 139.046406 72.698056 
L 139.046406 72.698056 
L 139.399867 61.923412 
L 139.399867 61.923412 
L 139.576598 63.016941 
L 139.576598 63.016941 
L 139.753329 60.280885 
L 139.753329 60.280885 
L 139.93006 54.985221 
L 139.93006 54.985221 
L 140.283522 53.568 
L 140.283522 53.568 
L 150.53391 53.568 
L 150.53391 53.568 
L 150.710641 56.580788 
L 150.710641 56.580788 
L 150.887372 65.453706 
L 150.887372 65.453706 
L 151.064103 66.141908 
L 151.064103 66.141908 
L 151.594295 87.654678 
L 151.594295 87.654678 
L 151.771026 96.033431 
L 151.771026 96.033431 
L 151.947757 95.040857 
L 151.947757 95.040857 
L 152.301218 108.770888 
L 152.301218 108.770888 
L 152.477949 118.821091 
L 152.477949 118.821091 
L 152.65468 116.279072 
L 152.65468 116.279072 
L 153.008142 131.691387 
L 153.008142 131.691387 
L 153.184873 130.944053 
L 153.184873 130.944053 
L 153.361603 135.903461 
L 153.361603 135.903461 
L 153.538334 145.508525 
L 153.538334 145.508525 
L 153.715065 145.055959 
L 153.715065 145.055959 
L 153.891796 150.006713 
L 153.891796 150.006713 
L 154.068527 159.347887 
L 154.068527 159.347887 
L 154.245258 157.895265 
L 154.245258 157.895265 
L 154.598719 173.016776 
L 154.598719 173.016776 
L 154.77545 170.940333 
L 154.77545 170.940333 
L 154.952181 178.394242 
L 154.952181 178.394242 
L 155.128912 178.58169 
L 155.128912 178.58169 
L 155.482373 185.536354 
L 155.482373 185.536354 
L 155.659104 189.199709 
L 155.659104 189.199709 
L 155.835835 196.593258 
L 155.835835 196.593258 
L 156.012566 195.699852 
L 156.012566 195.699852 
L 156.189297 201.228193 
L 156.189297 201.228193 
L 156.366028 201.927004 
L 156.366028 201.927004 
L 156.719489 207.51202 
L 156.719489 207.51202 
L 157.426413 221.089669 
L 157.426413 221.089669 
L 157.603143 219.419838 
L 157.603143 219.419838 
L 157.779874 224.806853 
L 157.779874 224.806853 
L 157.956605 223.939188 
L 157.956605 223.939188 
L 158.133336 228.281197 
L 158.133336 228.281197 
L 158.310067 227.437989 
L 158.310067 227.437989 
L 158.486798 231.490702 
L 158.486798 231.490702 
L 158.663528 230.598134 
L 158.663528 230.598134 
L 158.840259 234.543973 
L 158.840259 234.543973 
L 159.01699 233.983417 
L 159.01699 233.983417 
L 159.193721 237.104754 
L 159.193721 237.104754 
L 159.370452 236.720701 
L 159.370452 236.720701 
L 159.547183 239.42694 
L 159.547183 239.42694 
L 159.723913 238.579823 
L 160.430837 242.934731 
L 160.430837 242.934731 
L 160.607568 243.209062 
L 160.607568 243.209062 
L 161.13776 245.467258 
L 161.13776 245.467258 
L 161.314491 245.497131 
L 161.314491 245.497131 
L 161.667953 246.24575 
L 161.667953 246.24575 
L 162.374876 247.43465 
L 162.374876 247.43465 
L 162.551607 247.008495 
L 162.551607 247.008495 
L 162.728338 247.378086 
L 162.728338 247.378086 
L 162.905069 247.020947 
L 162.905069 247.020947 
L 163.081799 247.230339 
L 163.25853 247.002353 
L 163.25853 247.002353 
L 163.435261 247.493447 
L 163.611992 246.972256 
L 163.611992 246.972256 
L 163.788723 247.568214 
L 163.788723 247.568214 
L 163.965454 246.876271 
L 163.965454 246.876271 
L 164.142184 247.240166 
L 164.142184 247.240166 
L 164.318915 246.647838 
L 164.318915 246.647838 
L 164.495646 247.461005 
L 164.495646 247.461005 
L 164.672377 246.990627 
L 164.672377 246.990627 
L 164.849108 247.329563 
L 164.849108 247.329563 
L 165.025839 246.589934 
L 165.025839 246.589934 
L 165.556031 245.852818 
L 165.556031 245.852818 
L 166.616416 242.15959 
L 166.616416 242.15959 
L 166.793147 241.798877 
L 166.793147 241.798877 
L 166.969878 240.058634 
L 167.146609 240.13273 
L 167.146609 240.13273 
L 167.323339 237.999779 
L 167.323339 237.999779 
L 167.50007 238.270817 
L 167.50007 238.270817 
L 167.676801 235.330226 
L 167.676801 235.330226 
L 167.853532 236.219724 
L 167.853532 236.219724 
L 168.030263 232.833827 
L 168.030263 232.833827 
L 168.206994 234.27087 
L 168.206994 234.27087 
L 168.383724 230.139147 
L 168.383724 230.139147 
L 168.560455 231.188396 
L 168.560455 231.188396 
L 168.737186 227.283598 
L 168.737186 227.283598 
L 168.913917 228.986485 
L 168.913917 228.986485 
L 170.504494 215.220383 
L 170.504494 215.220383 
L 171.034687 209.36969 
L 171.034687 209.36969 
L 171.211418 208.293806 
L 171.211418 208.293806 
L 171.74161 202.287158 
L 171.74161 202.287158 
L 171.918341 200.953359 
L 171.918341 200.953359 
L 172.448534 194.977422 
L 172.448534 194.977422 
L 172.625265 189.509665 
L 172.625265 189.509665 
L 172.801995 191.06207 
L 172.801995 191.06207 
L 172.978726 185.930625 
L 172.978726 185.930625 
L 173.155457 187.088032 
L 173.155457 187.088032 
L 173.332188 182.397148 
L 173.332188 182.397148 
L 173.508919 182.986852 
L 173.508919 182.986852 
L 173.68565 178.943575 
L 173.68565 178.943575 
L 173.86238 179.094729 
L 173.86238 179.094729 
L 174.039111 175.455774 
L 174.215842 174.971492 
L 174.215842 174.971492 
L 174.569304 170.805987 
L 174.569304 170.805987 
L 174.746035 168.378603 
L 174.746035 168.378603 
L 174.922765 163.257934 
L 174.922765 163.257934 
L 175.099496 165.09394 
L 175.099496 165.09394 
L 175.276227 160.698214 
L 175.276227 160.698214 
L 175.452958 160.853332 
L 175.452958 160.853332 
L 175.80642 156.729928 
L 175.80642 156.729928 
L 175.98315 155.258321 
L 175.98315 155.258321 
L 176.159881 150.584356 
L 176.159881 150.584356 
L 176.336612 151.626905 
L 176.336612 151.626905 
L 176.513343 148.69536 
L 176.513343 148.69536 
L 176.690074 148.434374 
L 176.690074 148.434374 
L 176.866805 146.780568 
L 176.866805 146.780568 
L 177.043535 141.657443 
L 177.043535 141.657443 
L 177.220266 142.894028 
L 177.220266 142.894028 
L 177.396997 139.93987 
L 177.396997 139.93987 
L 177.573728 139.678716 
L 177.573728 139.678716 
L 177.750459 138.131895 
L 177.750459 138.131895 
L 177.92719 133.186223 
L 177.92719 133.186223 
L 178.10392 134.239883 
L 178.10392 134.239883 
L 178.457382 129.971413 
L 178.457382 129.971413 
L 178.634113 128.102017 
L 178.634113 128.102017 
L 178.810844 123.353229 
L 178.810844 123.353229 
L 178.987575 123.072364 
L 178.987575 123.072364 
L 179.164305 120.756711 
L 179.164305 120.756711 
L 179.341036 114.18303 
L 179.341036 114.18303 
L 179.517767 114.478412 
L 179.517767 114.478412 
L 179.694498 110.634365 
L 179.694498 110.634365 
L 179.871229 103.197263 
L 179.871229 103.197263 
L 180.04796 104.015679 
L 180.04796 104.015679 
L 180.22469 98.704156 
L 180.22469 98.704156 
L 180.401421 89.406759 
L 180.401421 89.406759 
L 180.578152 90.588959 
L 180.578152 90.588959 
L 180.754883 84.355162 
L 180.754883 84.355162 
L 180.931614 74.015328 
L 180.931614 74.015328 
L 181.108345 74.559635 
L 181.108345 74.559635 
L 181.285075 67.898009 
L 181.285075 67.898009 
L 181.461806 55.899399 
L 181.461806 55.899399 
L 181.638537 55.946694 
L 181.638537 55.946694 
L 181.815268 56.405848 
L 181.815268 56.405848 
L 182.16873 75.570022 
L 182.16873 75.570022 
L 182.34546 75.501565 
L 182.34546 75.501565 
L 182.698922 90.63804 
L 182.698922 90.63804 
L 182.875653 101.312232 
L 182.875653 101.312232 
L 183.052384 100.292912 
L 183.052384 100.292912 
L 183.229115 105.81109 
L 183.229115 105.81109 
L 183.405845 115.610749 
L 183.405845 115.610749 
L 183.582576 117.352164 
L 183.582576 117.352164 
L 183.936038 130.46971 
L 183.936038 130.46971 
L 184.112769 141.941155 
L 184.112769 141.941155 
L 184.2895 139.643147 
L 184.2895 139.643147 
L 184.642961 158.380831 
L 184.642961 158.380831 
L 184.819692 155.542033 
L 184.819692 155.542033 
L 184.996423 164.315001 
L 184.996423 164.315001 
L 185.173154 166.167925 
L 185.173154 166.167925 
L 185.349885 171.890917 
L 185.349885 171.890917 
L 185.526616 181.545621 
L 185.526616 181.545621 
L 185.703346 181.156151 
L 185.703346 181.156151 
L 186.056808 191.342488 
L 186.056808 191.342488 
L 186.233539 195.632847 
L 186.233539 195.632847 
L 186.41027 206.286323 
L 186.41027 206.286323 
L 186.587001 203.966091 
L 186.587001 203.966091 
L 186.763731 212.56518 
L 186.763731 212.56518 
L 186.940462 211.875806 
L 186.940462 211.875806 
L 187.117193 218.890216 
L 187.117193 218.890216 
L 187.293924 219.25439 
L 187.293924 219.25439 
L 187.470655 225.417105 
L 187.470655 225.417105 
L 187.647386 226.151429 
L 187.647386 226.151429 
L 187.824116 231.377966 
L 187.824116 231.377966 
L 188.000847 232.296945 
L 188.000847 232.296945 
L 188.177578 237.714113 
L 188.177578 237.714113 
L 188.354309 238.065333 
L 188.354309 238.065333 
L 188.53104 243.370601 
L 188.53104 243.370601 
L 188.707771 243.586973 
L 188.884501 248.127933 
L 188.884501 248.127933 
L 189.061232 247.830652 
L 189.061232 247.830652 
L 189.237963 253.008554 
L 189.237963 253.008554 
L 189.414694 252.215377 
L 189.414694 252.215377 
L 189.591425 257.542589 
L 189.591425 257.542589 
L 189.768156 256.327892 
L 189.768156 256.327892 
L 191.182002 268.368102 
L 191.182002 268.368102 
L 191.358733 268.325944 
L 191.358733 268.325944 
L 191.535464 268.679677 
L 191.535464 268.679677 
L 191.888926 270.669069 
L 191.888926 270.669069 
L 192.065656 271.281164 
L 192.065656 271.281164 
L 192.242387 271.481566 
L 192.242387 271.481566 
L 192.419118 272.768182 
L 192.419118 272.768182 
L 192.595849 272.714578 
L 192.595849 272.714578 
L 192.77258 272.895772 
L 192.77258 272.895772 
L 192.949311 273.44047 
L 192.949311 273.44047 
L 193.126041 273.386419 
L 193.126041 273.386419 
L 193.302772 273.642268 
L 193.302772 273.642268 
L 193.479503 274.165637 
L 193.479503 274.165637 
L 193.656234 273.936367 
L 193.656234 273.936367 
L 193.832965 274.389156 
L 193.832965 274.389156 
L 194.009696 274.255089 
L 194.009696 274.255089 
L 194.363157 274.69766 
L 194.363157 274.69766 
L 194.539888 274.167926 
L 194.539888 274.167926 
L 194.716619 274.681132 
L 194.716619 274.681132 
L 194.89335 274.179708 
L 194.89335 274.179708 
L 195.070081 274.628533 
L 195.070081 274.628533 
L 195.246812 274.768742 
L 195.246812 274.768742 
L 195.423542 274.558345 
L 195.423542 274.558345 
L 195.600273 274.708437 
L 195.600273 274.708437 
L 195.777004 274.015433 
L 195.777004 274.015433 
L 195.953735 274.596705 
L 195.953735 274.596705 
L 196.130466 274.013144 
L 196.130466 274.013144 
L 196.483927 274.436116 
L 196.483927 274.436116 
L 196.660658 273.730046 
L 196.660658 273.730046 
L 196.837389 274.02325 
L 196.837389 274.02325 
L 197.01412 272.01532 
L 197.01412 272.01532 
L 197.190851 273.263855 
L 197.190851 273.263855 
L 197.367582 272.797106 
L 197.367582 272.797106 
L 197.544312 271.915035 
L 197.544312 271.915035 
L 197.721043 272.189702 
L 197.721043 272.189702 
L 197.897774 269.616748 
L 197.897774 269.616748 
L 198.074505 270.852832 
L 198.074505 270.852832 
L 198.604697 268.111974 
L 198.604697 268.111974 
L 198.781428 265.367039 
L 198.781428 265.367039 
L 198.958159 266.399091 
L 198.958159 266.399091 
L 199.488352 262.753492 
L 199.488352 262.753492 
L 199.665082 259.419691 
L 199.841813 259.641256 
L 200.018544 255.001352 
L 200.018544 255.001352 
L 200.195275 256.596361 
L 200.195275 256.596361 
L 200.725467 250.927365 
L 200.725467 250.927365 
L 200.902198 246.719143 
L 200.902198 246.719143 
L 201.078929 246.763869 
L 201.078929 246.763869 
L 201.25566 240.749739 
L 201.25566 240.749739 
L 201.432391 242.242341 
L 201.432391 242.242341 
L 201.609122 234.663913 
L 201.609122 234.663913 
L 201.785852 237.805352 
L 201.785852 237.805352 
L 202.316045 229.875201 
L 202.316045 229.875201 
L 202.492776 224.039082 
L 202.492776 224.039082 
L 202.669507 223.717735 
L 202.669507 223.717735 
L 202.846237 216.740011 
L 202.846237 216.740011 
L 203.022968 217.461045 
L 203.022968 217.461045 
L 203.199699 208.949789 
L 203.199699 208.949789 
L 203.37643 210.663119 
L 203.37643 210.663119 
L 203.553161 200.626875 
L 203.553161 200.626875 
L 203.729892 203.636815 
L 203.729892 203.636815 
L 203.906622 192.148619 
L 203.906622 192.148619 
L 204.083353 195.485044 
L 204.083353 195.485044 
L 204.260084 183.118183 
L 204.260084 183.118183 
L 204.436815 186.938498 
L 204.436815 186.938498 
L 204.613546 173.906664 
L 204.613546 173.906664 
L 204.790277 176.785777 
L 204.790277 176.785777 
L 204.967007 164.932066 
L 204.967007 164.932066 
L 205.143738 167.284794 
L 205.143738 167.284794 
L 205.320469 155.510597 
L 205.320469 155.510597 
L 205.4972 156.811731 
L 205.673931 146.355865 
L 205.673931 146.355865 
L 205.850662 145.967568 
L 205.850662 145.967568 
L 206.027392 137.875153 
L 206.027392 137.875153 
L 206.204123 135.279529 
L 206.204123 135.279529 
L 206.380854 129.291307 
L 206.380854 129.291307 
L 206.557585 116.002228 
L 206.734316 117.72572 
L 206.734316 117.72572 
L 206.911047 108.899929 
L 206.911047 108.899929 
L 207.087778 107.252935 
L 207.087778 107.252935 
L 207.264508 101.045271 
L 207.264508 101.045271 
L 207.441239 89.372921 
L 207.441239 89.372921 
L 207.61797 89.951178 
L 207.61797 89.951178 
L 207.794701 83.624133 
L 207.794701 83.624133 
L 207.971432 72.897342 
L 207.971432 72.897342 
L 208.148163 74.028673 
L 208.148163 74.028673 
L 208.501624 58.038715 
L 208.501624 58.038715 
L 208.678355 58.727587 
L 208.678355 58.727587 
L 208.855086 54.059262 
L 208.855086 54.059262 
L 209.031817 53.568 
L 214.687203 53.568 
L 214.687203 53.568 
L 214.863934 53.720047 
L 214.863934 53.720047 
L 215.040665 56.53327 
L 215.040665 56.53327 
L 215.394127 67.720724 
L 215.394127 67.720724 
L 215.570858 67.684932 
L 215.570858 67.684932 
L 216.807973 97.818456 
L 216.807973 97.818456 
L 216.984704 98.888868 
L 216.984704 98.888868 
L 217.338166 107.771669 
L 217.338166 107.771669 
L 217.514897 114.801267 
L 217.514897 114.801267 
L 217.691628 114.68021 
L 217.691628 114.68021 
L 217.868358 118.405099 
L 217.868358 118.405099 
L 218.045089 125.173376 
L 218.045089 125.173376 
L 218.22182 126.535094 
L 218.22182 126.535094 
L 218.398551 129.863534 
L 218.398551 129.863534 
L 218.575282 135.982863 
L 218.575282 135.982863 
L 218.752013 137.717746 
L 218.752013 137.717746 
L 218.928744 140.697534 
L 218.928744 140.697534 
L 219.105474 146.634496 
L 219.105474 146.634496 
L 219.282205 148.068915 
L 219.282205 148.068915 
L 220.165859 167.408866 
L 220.165859 167.408866 
L 220.34259 166.877122 
L 220.34259 166.877122 
L 220.519321 171.210756 
L 220.519321 171.210756 
L 220.696052 172.246325 
L 220.696052 172.246325 
L 221.402975 183.886121 
L 221.402975 183.886121 
L 221.579706 184.644176 
L 221.579706 184.644176 
L 221.756437 186.870767 
L 221.756437 186.870767 
L 221.933168 191.401229 
L 221.933168 191.401229 
L 222.109899 190.295695 
L 222.109899 190.295695 
L 222.286629 193.463769 
L 222.286629 193.463769 
L 222.46336 193.682262 
L 222.46336 193.682262 
L 222.640091 196.165372 
L 222.640091 196.165372 
L 222.816822 196.612466 
L 222.816822 196.612466 
L 223.170284 199.07179 
L 223.170284 199.07179 
L 223.347014 199.961231 
L 223.347014 199.961231 
L 223.523745 201.683104 
L 223.523745 201.683104 
L 223.700476 201.733693 
L 223.700476 201.733693 
L 223.877207 203.177716 
L 223.877207 203.177716 
L 224.053938 203.148346 
L 224.053938 203.148346 
L 224.230669 204.00166 
L 224.230669 204.00166 
L 224.407399 204.182686 
L 224.407399 204.182686 
L 224.760861 204.874741 
L 224.760861 204.874741 
L 224.937592 204.966818 
L 224.937592 204.966818 
L 225.114323 205.274708 
L 225.114323 205.274708 
L 225.291054 205.175037 
L 225.291054 205.175037 
L 225.467784 205.444064 
L 225.467784 205.444064 
L 225.821246 205.086813 
L 225.821246 205.086813 
L 225.997977 205.300672 
L 225.997977 205.300672 
L 226.174708 205.11356 
L 226.174708 205.11356 
L 226.351439 205.329764 
L 226.351439 205.329764 
L 226.528169 205.087595 
L 226.7049 205.310277 
L 226.7049 205.310277 
L 226.881631 204.948224 
L 226.881631 204.948224 
L 227.058362 205.151362 
L 227.058362 205.151362 
L 227.235093 204.636704 
L 227.235093 204.636704 
L 227.411824 204.760106 
L 227.588554 204.102224 
L 227.588554 204.102224 
L 227.765285 204.056102 
L 227.765285 204.056102 
L 227.942016 203.275377 
L 227.942016 203.275377 
L 228.118747 201.181401 
L 228.118747 201.181401 
L 228.295478 201.842912 
L 228.295478 201.842912 
L 228.472209 199.445569 
L 228.472209 199.445569 
L 228.648939 200.110653 
L 228.648939 200.110653 
L 228.82567 197.233942 
L 228.82567 197.233942 
L 229.002401 197.670371 
L 229.002401 197.670371 
L 229.179132 194.485546 
L 229.179132 194.485546 
L 229.355863 194.532785 
L 229.355863 194.532785 
L 229.532594 191.100263 
L 229.532594 191.100263 
L 229.709324 190.479681 
L 229.709324 190.479681 
L 230.239517 182.10802 
L 230.239517 182.10802 
L 230.416248 173.362915 
L 230.416248 173.362915 
L 230.592979 176.343652 
L 230.592979 176.343652 
L 230.76971 167.584365 
L 230.76971 167.584365 
L 230.94644 168.618761 
L 230.94644 168.618761 
L 231.123171 160.915926 
L 231.123171 160.915926 
L 231.299902 159.444766 
L 231.299902 159.444766 
L 231.653364 149.906707 
L 231.653364 149.906707 
L 231.830095 144.422423 
L 232.006825 130.797534 
L 232.006825 130.797534 
L 232.183556 132.983475 
L 232.183556 132.983475 
L 232.360287 120.956723 
L 232.360287 120.956723 
L 232.537018 119.176946 
L 232.537018 119.176946 
L 232.713749 111.790656 
L 232.713749 111.790656 
L 232.89048 97.167219 
L 232.89048 97.167219 
L 233.06721 98.86134 
L 233.06721 98.86134 
L 233.420672 78.639262 
L 233.420672 78.639262 
L 233.597403 80.662045 
L 233.597403 80.662045 
L 233.950865 65.264751 
L 233.950865 65.264751 
L 234.127595 66.284183 
L 234.127595 66.284183 
L 234.481057 53.98885 
L 234.481057 53.98885 
L 234.657788 54.364416 
L 234.657788 54.364416 
L 234.834519 53.568 
L 234.834519 53.568 
L 241.020098 53.568 
L 241.020098 53.568 
L 241.196829 54.64126 
L 241.196829 54.64126 
L 241.55029 62.885666 
L 241.55029 62.885666 
L 241.727021 62.866514 
L 241.727021 62.866514 
L 242.080483 68.461581 
L 242.080483 68.461581 
L 242.257214 72.739153 
L 242.257214 72.739153 
L 242.433945 73.636803 
L 242.433945 73.636803 
L 242.787406 79.106737 
L 242.787406 79.106737 
L 243.140868 86.667241 
L 243.140868 86.667241 
L 243.317599 86.744521 
L 243.317599 86.744521 
L 243.49433 89.420384 
L 243.49433 89.420384 
L 243.847791 98.61677 
L 243.847791 98.61677 
L 244.024522 97.909137 
L 244.024522 97.909137 
L 244.908176 112.479472 
L 244.908176 112.479472 
L 245.084907 116.679597 
L 245.084907 116.679597 
L 245.261638 116.535312 
L 245.261638 116.535312 
L 245.791831 123.706906 
L 245.791831 123.706906 
L 245.968561 125.747445 
L 245.968561 125.747445 
L 246.145292 129.668436 
L 246.145292 129.668436 
L 246.322023 129.968174 
L 246.322023 129.968174 
L 246.675485 134.800607 
L 246.675485 134.800607 
L 246.852216 135.162995 
L 246.852216 135.162995 
L 247.205677 139.003468 
L 247.205677 139.003468 
L 247.382408 139.260937 
L 247.382408 139.260937 
L 247.73587 142.14474 
L 247.73587 142.14474 
L 247.912601 142.288578 
L 247.912601 142.288578 
L 248.442793 144.751699 
L 248.442793 144.751699 
L 248.619524 144.825572 
L 248.619524 144.825572 
L 248.796255 145.316387 
L 248.796255 145.316387 
L 248.972986 145.454753 
L 248.972986 145.454753 
L 249.149716 146.055346 
L 249.149716 146.055346 
L 249.679909 145.774258 
L 249.679909 145.774258 
L 250.033371 146.22861 
L 250.033371 146.22861 
L 250.210101 145.738298 
L 250.210101 145.738298 
L 250.563563 146.276631 
L 250.563563 146.276631 
L 250.740294 145.506794 
L 250.740294 145.506794 
L 250.917025 146.25893 
L 250.917025 146.25893 
L 251.093756 145.850086 
L 251.093756 145.850086 
L 251.270486 144.553921 
L 251.270486 144.553921 
L 251.447217 145.487307 
L 251.447217 145.487307 
L 251.623948 144.099121 
L 251.623948 144.099121 
L 251.800679 144.195833 
L 251.97741 143.812841 
L 251.97741 143.812841 
L 252.154141 141.570615 
L 252.154141 141.570615 
L 252.330871 141.80653 
L 252.330871 141.80653 
L 252.507602 140.52332 
L 252.507602 140.52332 
L 252.684333 137.726512 
L 252.684333 137.726512 
L 252.861064 138.307394 
L 252.861064 138.307394 
L 253.037795 136.221179 
L 253.037795 136.221179 
L 253.214526 132.649342 
L 253.214526 132.649342 
L 253.391256 134.16735 
L 253.391256 134.16735 
L 253.567987 131.194541 
L 253.567987 131.194541 
L 253.744718 130.298176 
L 253.744718 130.298176 
L 253.921449 128.646492 
L 253.921449 128.646492 
L 254.09818 124.368305 
L 254.09818 124.368305 
L 254.274911 124.209558 
L 254.274911 124.209558 
L 254.451642 122.300461 
L 254.451642 122.300461 
L 254.628372 117.250707 
L 254.628372 117.250707 
L 254.805103 117.376398 
L 254.805103 117.376398 
L 254.981834 115.205701 
L 254.981834 115.205701 
L 255.158565 109.57339 
L 255.158565 109.57339 
L 255.335296 109.861848 
L 255.335296 109.861848 
L 255.512027 107.394484 
L 255.512027 107.394484 
L 255.688757 101.445461 
L 255.688757 101.445461 
L 255.865488 101.71432 
L 255.865488 101.71432 
L 256.749142 84.025663 
L 256.749142 84.025663 
L 256.925873 82.938388 
L 256.925873 82.938388 
L 257.279335 74.413228 
L 257.279335 74.413228 
L 257.456066 67.29831 
L 257.456066 67.29831 
L 257.632797 68.721953 
L 257.632797 68.721953 
L 257.809527 64.828322 
L 257.809527 64.828322 
L 257.986258 57.103096 
L 257.986258 57.103096 
L 258.162989 56.555717 
L 258.162989 56.555717 
L 258.33972 53.568 
L 258.33972 53.568 
L 276.189534 53.568 
L 276.189534 53.568 
L 276.366265 57.557337 
L 276.366265 57.557337 
L 276.896458 87.06369 
L 276.896458 87.06369 
L 277.073188 84.318589 
L 277.073188 84.318589 
L 277.42665 102.349811 
L 277.42665 102.349811 
L 277.603381 113.797916 
L 277.603381 113.797916 
L 277.780112 111.086541 
L 277.956843 118.700649 
L 277.956843 118.700649 
L 278.133574 131.867779 
L 278.133574 131.867779 
L 278.310304 131.874479 
L 278.310304 131.874479 
L 278.487035 138.759457 
L 278.487035 138.759457 
L 278.663766 151.050211 
L 278.663766 151.050211 
L 278.840497 151.848916 
L 278.840497 151.848916 
L 279.017228 158.664096 
L 279.017228 158.664096 
L 279.193959 171.463869 
L 279.193959 171.463869 
L 279.370689 170.638026 
L 279.370689 170.638026 
L 279.54742 178.509604 
L 279.54742 178.509604 
L 279.724151 192.620337 
L 279.724151 192.620337 
L 279.900882 188.488279 
L 279.900882 188.488279 
L 280.077613 199.822586 
L 280.077613 199.822586 
L 280.254344 199.276156 
L 280.254344 199.276156 
L 280.431074 207.897357 
L 280.431074 207.897357 
L 280.607805 209.36902 
L 280.607805 209.36902 
L 280.961267 218.762738 
L 280.961267 218.762738 
L 281.491459 231.360153 
L 281.491459 231.360153 
L 282.905306 259.673698 
L 282.905306 259.673698 
L 283.082037 259.702063 
L 283.082037 259.702063 
L 283.258768 265.181378 
L 283.258768 265.181378 
L 283.435499 264.417907 
L 283.435499 264.417907 
L 283.612229 271.128391 
L 283.78896 269.516687 
L 283.78896 269.516687 
L 283.965691 270.95602 
L 283.965691 270.95602 
L 284.142422 275.088581 
L 284.142422 275.088581 
L 284.319153 275.22678 
L 284.495884 279.681302 
L 284.495884 279.681302 
L 284.672614 278.756013 
L 284.672614 278.756013 
L 284.849345 280.182615 
L 284.849345 280.182615 
L 285.026076 282.982047 
L 285.026076 282.982047 
L 285.202807 283.666619 
L 285.202807 283.666619 
L 285.379538 286.875957 
L 285.379538 286.875957 
L 285.556269 286.391005 
L 285.556269 286.391005 
L 285.732999 289.633064 
L 285.732999 289.633064 
L 285.90973 289.068766 
L 285.90973 289.068766 
L 286.086461 289.947096 
L 286.086461 289.947096 
L 286.263192 291.785111 
L 286.263192 291.785111 
L 286.439923 291.69337 
L 286.439923 291.69337 
L 286.616654 293.594817 
L 286.616654 293.594817 
L 286.793384 293.156378 
L 286.793384 293.156378 
L 287.146846 294.469964 
L 287.146846 294.469964 
L 287.323577 294.503299 
L 287.323577 294.503299 
L 287.500308 295.033647 
L 287.500308 295.033647 
L 287.677039 295.005784 
L 287.677039 295.005784 
L 287.853769 295.26811 
L 287.853769 295.26811 
L 288.0305 295.22009 
L 288.0305 295.22009 
L 288.207231 295.334222 
L 288.207231 295.334222 
L 288.383962 295.168607 
L 288.383962 295.168607 
L 288.737424 295.436015 
L 288.737424 295.436015 
L 288.914155 295.233547 
L 288.914155 295.233547 
L 289.267616 295.488 
L 289.267616 295.488 
L 289.444347 295.229359 
L 289.444347 295.229359 
L 289.621078 295.351867 
L 289.621078 295.351867 
L 289.797809 294.771209 
L 289.797809 294.771209 
L 289.97454 295.016728 
L 290.15127 294.988474 
L 290.15127 294.988474 
L 290.328001 294.153921 
L 290.328001 294.153921 
L 290.504732 294.247729 
L 290.504732 294.247729 
L 290.681463 292.524907 
L 290.681463 292.524907 
L 290.858194 293.111931 
L 290.858194 293.111931 
L 291.034925 292.718665 
L 291.034925 292.718665 
L 291.211655 290.918619 
L 291.211655 290.918619 
L 291.388386 290.986127 
L 291.388386 290.986127 
L 291.565117 287.815541 
L 291.565117 287.815541 
L 291.741848 288.768861 
L 291.741848 288.768861 
L 291.918579 288.027725 
L 291.918579 288.027725 
L 292.09531 285.36342 
L 292.09531 285.36342 
L 292.27204 285.390055 
L 292.27204 285.390055 
L 292.448771 281.036655 
L 292.448771 281.036655 
L 292.625502 282.419815 
L 292.625502 282.419815 
L 292.802233 280.846639 
L 292.802233 280.846639 
L 292.978964 278.105334 
L 292.978964 278.105334 
L 293.155695 277.885333 
L 293.155695 277.885333 
L 293.332425 273.017163 
L 293.332425 273.017163 
L 293.509156 274.311653 
L 293.509156 274.311653 
L 293.685887 272.758522 
L 293.685887 272.758522 
L 293.862618 269.120852 
L 293.862618 269.120852 
L 294.039349 268.742104 
L 294.039349 268.742104 
L 294.21608 262.609263 
L 294.21608 262.609263 
L 294.39281 264.837529 
L 294.39281 264.837529 
L 294.923003 258.107445 
L 294.923003 258.107445 
L 295.099734 251.599206 
L 295.099734 251.599206 
L 295.276465 253.648288 
L 295.276465 253.648288 
L 295.453195 251.150716 
L 295.453195 251.150716 
L 295.629926 246.608863 
L 295.629926 246.608863 
L 295.806657 245.293044 
L 295.806657 245.293044 
L 295.983388 238.985318 
L 295.983388 238.985318 
L 296.160119 240.205208 
L 296.160119 240.205208 
L 296.33685 230.372158 
L 296.33685 230.372158 
L 296.51358 233.88799 
L 296.51358 233.88799 
L 297.573965 210.315919 
L 297.573965 210.315919 
L 297.750696 211.215634 
L 297.927427 202.732242 
L 297.927427 202.732242 
L 298.104158 204.742629 
L 298.104158 204.742629 
L 298.280889 196.158728 
L 298.280889 196.158728 
L 298.45762 198.497162 
L 298.45762 198.497162 
L 298.63435 190.258116 
L 298.63435 190.258116 
L 298.811081 192.613972 
L 298.811081 192.613972 
L 298.987812 185.074239 
L 298.987812 185.074239 
L 299.164543 186.51078 
L 299.164543 186.51078 
L 299.341274 180.580742 
L 299.341274 180.580742 
L 299.518005 181.931572 
L 299.518005 181.931572 
L 299.694735 176.620832 
L 299.694735 176.620832 
L 299.871466 177.520436 
L 300.048197 173.040339 
L 300.048197 173.040339 
L 300.224928 173.308138 
L 300.224928 173.308138 
L 300.401659 169.55332 
L 300.401659 169.55332 
L 300.57839 169.315953 
L 300.57839 169.315953 
L 300.755121 166.073783 
L 300.755121 166.073783 
L 300.931851 165.09098 
L 300.931851 165.09098 
L 301.108582 162.616804 
L 301.108582 162.616804 
L 301.285313 156.336104 
L 301.285313 156.336104 
L 301.462044 157.889011 
L 301.462044 157.889011 
L 301.638775 152.20103 
L 301.638775 152.20103 
L 301.815506 152.368432 
L 301.815506 152.368432 
L 302.168967 145.62316 
L 302.168967 145.62316 
L 302.69916 136.660344 
L 302.69916 136.660344 
L 302.875891 143.500093 
L 302.875891 143.500093 
L 303.052621 146.019889 
L 303.052621 146.019889 
L 303.229352 152.029217 
L 303.229352 152.029217 
L 303.406083 167.192327 
L 303.406083 167.192327 
L 303.582814 165.766953 
L 303.582814 165.766953 
L 303.759545 175.436231 
L 303.759545 175.436231 
L 303.936276 177.780808 
L 303.936276 177.780808 
L 304.113006 182.908456 
L 304.113006 182.908456 
L 304.289737 193.753176 
L 304.289737 193.753176 
L 304.466468 192.029293 
L 304.466468 192.029293 
L 304.643199 199.906063 
L 304.643199 199.906063 
L 304.81993 200.299609 
L 304.81993 200.299609 
L 305.173391 207.609178 
L 305.173391 207.609178 
L 305.350122 210.8681 
L 305.350122 210.8681 
L 305.526853 219.518168 
L 305.526853 219.518168 
L 305.703584 216.834042 
L 305.703584 216.834042 
L 305.880315 224.146123 
L 305.880315 224.146123 
L 306.057046 222.256067 
L 306.057046 222.256067 
L 306.233776 228.122618 
L 306.233776 228.122618 
L 306.410507 227.558487 
L 306.410507 227.558487 
L 306.587238 232.340332 
L 306.587238 232.340332 
L 306.763969 231.956669 
L 306.763969 231.956669 
L 306.9407 236.149536 
L 306.9407 236.149536 
L 307.117431 235.743259 
L 307.117431 235.743259 
L 307.294161 239.78419 
L 307.294161 239.78419 
L 307.470892 239.038196 
L 307.470892 239.038196 
L 307.647623 243.086219 
L 307.647623 243.086219 
L 307.824354 242.893858 
L 307.824354 242.893858 
L 308.001085 246.219562 
L 308.001085 246.219562 
L 308.177816 245.917199 
L 308.177816 245.917199 
L 308.354546 246.68927 
L 308.354546 246.68927 
L 308.884739 251.116934 
L 308.884739 251.116934 
L 309.06147 251.769791 
L 309.06147 251.769791 
L 309.238201 252.87002 
L 309.238201 252.87002 
L 309.414931 253.215433 
L 309.414931 253.215433 
L 309.591662 255.077459 
L 309.591662 255.077459 
L 309.768393 255.341349 
L 309.768393 255.341349 
L 309.945124 257.1754 
L 309.945124 257.1754 
L 310.121855 257.059145 
L 310.121855 257.059145 
L 310.298586 257.873261 
L 310.298586 257.873261 
L 310.475316 258.018663 
L 310.475316 258.018663 
L 310.652047 258.34001 
L 310.652047 258.34001 
L 310.828778 259.47324 
L 310.828778 259.47324 
L 311.358971 259.802627 
L 311.358971 259.802627 
L 311.535701 260.569058 
L 311.535701 260.569058 
L 312.065894 261.42321 
L 312.065894 261.42321 
L 312.242625 261.199524 
L 312.242625 261.199524 
L 312.419356 261.602506 
L 312.419356 261.602506 
L 312.596087 261.173782 
L 312.596087 261.173782 
L 312.772817 261.614567 
L 312.772817 261.614567 
L 313.126279 261.545774 
L 313.126279 261.545774 
L 313.30301 261.71206 
L 313.30301 261.71206 
L 313.479741 261.095218 
L 313.656472 261.698826 
L 313.656472 261.698826 
L 313.833202 261.37424 
L 313.833202 261.37424 
L 314.009933 261.623221 
L 314.009933 261.623221 
L 314.186664 261.550967 
L 314.186664 261.550967 
L 314.363395 260.963832 
L 314.363395 260.963832 
L 314.716857 260.47352 
L 314.716857 260.47352 
L 314.893587 261.102198 
L 314.893587 261.102198 
L 315.070318 259.732774 
L 315.070318 259.732774 
L 315.247049 260.519753 
L 315.42378 260.117106 
L 315.42378 260.117106 
L 315.600511 258.877115 
L 315.600511 258.877115 
L 315.777242 258.861759 
L 315.777242 258.861759 
L 315.953972 257.508417 
L 315.953972 257.508417 
L 316.130703 258.024359 
L 316.130703 258.024359 
L 316.307434 254.783026 
L 316.484165 256.734448 
L 316.484165 256.734448 
L 316.837627 253.917539 
L 316.837627 253.917539 
L 317.014357 253.616796 
L 317.014357 253.616796 
L 317.191088 251.25893 
L 317.191088 251.25893 
L 317.367819 251.68514 
L 317.367819 251.68514 
L 317.54455 247.40366 
L 317.54455 247.40366 
L 317.721281 248.578265 
L 317.721281 248.578265 
L 317.898012 243.88068 
L 317.898012 243.88068 
L 318.074742 245.850306 
L 318.074742 245.850306 
L 318.251473 244.458491 
L 318.251473 244.458491 
L 318.428204 241.267356 
L 318.428204 241.267356 
L 318.604935 240.886151 
L 318.604935 240.886151 
L 318.781666 237.522142 
L 318.781666 237.522142 
L 318.958397 237.878388 
L 318.958397 237.878388 
L 319.135127 232.832263 
L 319.135127 232.832263 
L 319.311858 234.178068 
L 319.311858 234.178068 
L 319.488589 228.309284 
L 319.488589 228.309284 
L 319.66532 230.367859 
L 319.66532 230.367859 
L 320.902436 215.513141 
L 320.902436 215.513141 
L 321.079167 211.803161 
L 321.079167 211.803161 
L 321.255897 210.948339 
L 321.255897 210.948339 
L 321.432628 206.366617 
L 321.432628 206.366617 
L 321.609359 206.236794 
L 321.609359 206.236794 
L 321.78609 201.620565 
L 321.78609 201.620565 
L 321.962821 201.410001 
L 322.139552 196.707279 
L 322.139552 196.707279 
L 322.316282 196.470806 
L 322.316282 196.470806 
L 322.493013 191.845084 
L 322.493013 191.845084 
L 322.669744 191.413123 
L 322.669744 191.413123 
L 322.846475 187.139068 
L 322.846475 187.139068 
L 323.023206 186.227403 
L 323.023206 186.227403 
L 323.376667 180.629265 
L 323.376667 180.629265 
L 324.083591 164.58118 
L 324.083591 164.58118 
L 324.260322 165.812294 
L 324.260322 165.812294 
L 324.437053 159.456492 
L 324.437053 159.456492 
L 324.613783 159.816981 
L 324.613783 159.816981 
L 324.790514 154.048147 
L 324.790514 154.048147 
L 324.967245 152.851988 
L 324.967245 152.851988 
L 325.143976 148.568441 
L 325.143976 148.568441 
L 325.320707 138.060869 
L 325.320707 138.060869 
L 325.497438 141.216156 
L 325.497438 141.216156 
L 325.674168 132.575747 
L 325.674168 132.575747 
L 325.850899 132.590209 
L 325.850899 132.590209 
L 326.204361 123.293594 
L 326.204361 123.293594 
L 326.734553 113.032379 
L 326.734553 113.032379 
L 326.911284 114.493991 
L 326.911284 114.493991 
L 327.088015 124.781171 
L 327.264746 124.396503 
L 327.618208 140.494116 
L 327.618208 140.494116 
L 327.794938 139.092474 
L 327.794938 139.092474 
L 327.971669 145.870411 
L 328.1484 148.302094 
L 328.1484 148.302094 
L 329.032054 171.328238 
L 329.032054 171.328238 
L 329.208785 170.586321 
L 329.208785 170.586321 
L 329.385516 175.287367 
L 329.385516 175.287367 
L 329.562247 176.733121 
L 329.562247 176.733121 
L 329.738978 179.937099 
L 329.915708 185.700461 
L 329.915708 185.700461 
L 330.092439 185.191946 
L 330.092439 185.191946 
L 330.26917 189.454609 
L 330.26917 189.454609 
L 330.445901 189.957541 
L 330.445901 189.957541 
L 330.799363 194.23461 
L 330.799363 194.23461 
L 330.976093 195.985407 
L 330.976093 195.985407 
L 331.152824 200.230091 
L 331.152824 200.230091 
L 331.329555 199.490518 
L 331.329555 199.490518 
L 331.506286 202.59019 
L 331.506286 202.59019 
L 331.683017 202.511738 
L 331.683017 202.511738 
L 331.859748 204.621796 
L 331.859748 204.621796 
L 332.036478 205.035052 
L 332.036478 205.035052 
L 332.38994 207.040357 
L 332.38994 207.040357 
L 333.096863 209.665128 
L 333.096863 209.665128 
L 333.273594 209.654352 
L 333.273594 209.654352 
L 333.627056 210.099938 
L 333.627056 210.099938 
L 333.803787 210.088491 
L 333.803787 210.088491 
L 333.980518 210.286883 
L 333.980518 210.286883 
L 334.157248 210.125232 
L 334.157248 210.125232 
L 334.333979 210.337696 
L 334.333979 210.337696 
L 334.51071 210.150304 
L 334.51071 210.150304 
L 334.687441 210.363381 
L 334.687441 210.363381 
L 334.864172 210.155329 
L 334.864172 210.155329 
L 335.040903 210.363046 
L 335.040903 210.363046 
L 335.217633 210.065374 
L 335.217633 210.065374 
L 335.394364 210.232944 
L 335.394364 210.232944 
L 335.571095 209.804388 
L 335.571095 209.804388 
L 335.747826 209.865698 
L 335.747826 209.865698 
L 335.924557 209.708738 
L 335.924557 209.708738 
L 336.101288 207.777417 
L 336.101288 207.777417 
L 336.278019 208.40336 
L 336.278019 208.40336 
L 336.454749 206.371699 
L 336.454749 206.371699 
L 336.63148 207.014728 
L 336.63148 207.014728 
L 336.808211 204.554176 
L 336.808211 204.554176 
L 336.984942 205.072295 
L 336.984942 205.072295 
L 337.161673 202.198097 
L 337.161673 202.198097 
L 337.338404 202.4602 
L 337.338404 202.4602 
L 337.515134 199.075754 
L 337.691865 199.076592 
L 337.691865 199.076592 
L 337.868596 195.56841 
L 338.045327 194.781375 
L 338.045327 194.781375 
L 338.575519 185.576389 
L 338.575519 185.576389 
L 338.75225 175.36353 
L 338.75225 175.36353 
L 338.928981 178.647691 
L 338.928981 178.647691 
L 339.105712 167.95323 
L 339.105712 167.95323 
L 339.282443 169.765113 
L 339.282443 169.765113 
L 339.459174 158.848864 
L 339.635904 159.001971 
L 339.812635 153.855338 
L 339.812635 153.855338 
L 339.989366 155.312484 
L 339.989366 155.312484 
L 340.342828 171.762378 
L 340.342828 171.762378 
L 340.519559 170.47001 
L 340.519559 170.47001 
L 340.696289 177.607933 
L 340.696289 177.607933 
L 340.87302 177.549862 
L 340.87302 177.549862 
L 341.049751 181.552154 
L 341.049751 181.552154 
L 341.226482 182.253031 
L 341.226482 182.253031 
L 341.579944 186.543222 
L 341.579944 186.543222 
L 341.756674 186.797061 
L 341.756674 186.797061 
L 341.933405 187.829336 
L 341.933405 187.829336 
L 342.110136 187.671538 
L 342.110136 187.671538 
L 342.463598 188.443497 
L 342.463598 188.443497 
L 342.817059 188.127008 
L 342.817059 188.127008 
L 342.99379 188.345334 
L 342.99379 188.345334 
L 343.170521 188.183516 
L 343.170521 188.183516 
L 343.347252 188.389557 
L 343.347252 188.389557 
L 343.877444 187.113104 
L 343.877444 187.113104 
L 344.054175 184.671816 
L 344.054175 184.671816 
L 344.230906 185.494363 
L 344.230906 185.494363 
L 344.407637 182.017897 
L 344.407637 182.017897 
L 344.584368 182.120862 
L 344.584368 182.120862 
L 344.937829 177.45008 
L 344.937829 177.45008 
L 345.11456 174.739263 
L 345.291291 164.999853 
L 345.291291 164.999853 
L 345.468022 167.653883 
L 345.468022 167.653883 
L 345.644753 158.169987 
L 345.644753 158.169987 
L 345.821484 158.621715 
L 345.821484 158.621715 
L 345.998214 150.485411 
L 345.998214 150.485411 
L 346.174945 149.53706 
L 346.174945 149.53706 
L 346.351676 146.347098 
L 346.351676 146.347098 
L 346.528407 158.418856 
L 346.528407 158.418856 
L 346.705138 156.456602 
L 346.705138 156.456602 
L 346.881869 165.455099 
L 346.881869 165.455099 
L 347.058599 166.150448 
L 347.058599 166.150448 
L 347.412061 176.489668 
L 347.412061 176.489668 
L 347.588792 175.903706 
L 347.588792 175.903706 
L 347.765523 179.965353 
L 347.765523 179.965353 
L 347.942254 180.657575 
L 347.942254 180.657575 
L 348.472446 184.520104 
L 348.472446 184.520104 
L 348.649177 185.495369 
L 348.649177 185.495369 
L 349.17937 186.445338 
L 349.17937 186.445338 
L 349.3561 186.409323 
L 349.3561 186.409323 
L 349.532831 185.903041 
L 349.532831 185.903041 
L 349.709562 186.558913 
L 349.709562 186.558913 
L 349.886293 186.375373 
L 349.886293 186.375373 
L 350.063024 186.609223 
L 350.416485 186.22919 
L 350.416485 186.22919 
L 350.593216 186.42948 
L 350.593216 186.42948 
L 350.769947 185.561313 
L 350.946678 186.312221 
L 350.946678 186.312221 
L 351.123409 185.300829 
L 351.123409 185.300829 
L 351.30014 186.006062 
L 351.30014 186.006062 
L 351.47687 185.330312 
L 351.47687 185.330312 
L 351.653601 185.478338 
L 351.653601 185.478338 
L 351.830332 184.817553 
L 351.830332 184.817553 
L 352.007063 184.774278 
L 352.007063 184.774278 
L 352.183794 184.171173 
L 352.183794 184.171173 
L 352.360525 182.827435 
L 352.360525 182.827435 
L 352.537255 183.296752 
L 352.537255 183.296752 
L 352.713986 182.081608 
L 352.713986 182.081608 
L 352.890717 182.326569 
L 353.244179 180.854459 
L 353.244179 180.854459 
L 353.42091 180.434558 
L 353.42091 180.434558 
L 353.59764 177.902534 
L 353.59764 177.902534 
L 353.774371 179.336339 
L 353.774371 179.336339 
L 353.951102 177.232312 
L 353.951102 177.232312 
L 354.127833 178.047098 
L 354.127833 178.047098 
L 354.304564 176.598552 
L 354.304564 176.598552 
L 354.481295 176.610111 
L 354.481295 176.610111 
L 354.658025 175.431652 
L 354.658025 175.431652 
L 354.834756 172.539139 
L 354.834756 172.539139 
L 355.011487 173.967862 
L 355.011487 173.967862 
L 355.188218 171.615022 
L 355.188218 171.615022 
L 355.364949 172.145258 
L 355.364949 172.145258 
L 355.54168 170.178983 
L 355.54168 170.178983 
L 355.71841 169.615077 
L 355.71841 169.615077 
L 355.895141 168.477603 
L 355.895141 168.477603 
L 356.071872 165.209245 
L 356.071872 165.209245 
L 356.248603 166.417688 
L 356.248603 166.417688 
L 356.425334 162.905877 
L 356.425334 162.905877 
L 356.602065 163.297858 
L 356.602065 163.297858 
L 356.778795 161.524838 
L 356.778795 161.524838 
L 356.955526 160.912297 
L 356.955526 160.912297 
L 357.132257 159.580731 
L 357.132257 159.580731 
L 357.308988 155.7837 
L 357.308988 155.7837 
L 357.485719 156.56046 
L 357.485719 156.56046 
L 357.66245 153.742769 
L 357.66245 153.742769 
L 357.83918 153.294391 
L 357.83918 153.294391 
L 358.015911 151.842997 
L 358.015911 151.842997 
L 358.192642 147.843609 
L 358.369373 148.699548 
L 358.369373 148.699548 
L 358.546104 145.846289 
L 358.546104 145.846289 
L 358.722835 145.310859 
L 358.722835 145.310859 
L 358.899565 144.01207 
L 358.899565 144.01207 
L 359.076296 140.242958 
L 359.076296 140.242958 
L 359.253027 140.815631 
L 359.253027 140.815631 
L 359.606489 138.121342 
L 359.606489 138.121342 
L 359.78322 137.063549 
L 359.78322 137.063549 
L 359.959951 134.556037 
L 359.959951 134.556037 
L 360.136681 134.24463 
L 360.136681 134.24463 
L 360.313412 132.843546 
L 360.313412 132.843546 
L 360.490143 130.462116 
L 360.490143 130.462116 
L 360.666874 130.942713 
L 360.666874 130.942713 
L 361.020336 127.608912 
L 361.020336 127.608912 
L 361.197066 128.698533 
L 361.197066 128.698533 
L 361.373797 127.363896 
L 361.373797 127.363896 
L 361.550528 126.919035 
L 361.550528 126.919035 
L 361.90399 124.856105 
L 362.080721 124.985761 
L 362.257451 124.228878 
L 362.257451 124.228878 
L 362.434182 122.919424 
L 362.434182 122.919424 
L 362.610913 123.112065 
L 362.610913 123.112065 
L 362.787644 122.763581 
L 362.787644 122.763581 
L 362.964375 120.671838 
L 362.964375 120.671838 
L 363.141106 120.893123 
L 363.317836 119.828295 
L 363.317836 119.828295 
L 363.494567 117.712207 
L 363.494567 117.712207 
L 363.671298 117.935559 
L 363.671298 117.935559 
L 363.848029 116.862969 
L 363.848029 116.862969 
L 364.02476 113.738672 
L 364.02476 113.738672 
L 364.201491 113.917968 
L 364.201491 113.917968 
L 364.378221 112.090059 
L 364.378221 112.090059 
L 364.554952 108.507612 
L 364.554952 108.507612 
L 364.731683 108.557531 
L 364.731683 108.557531 
L 364.908414 106.101502 
L 364.908414 106.101502 
L 365.085145 101.861062 
L 365.085145 101.861062 
L 365.261876 101.57037 
L 365.261876 101.57037 
L 365.438606 98.716552 
L 365.438606 98.716552 
L 365.615337 93.651052 
L 365.615337 93.651052 
L 365.792068 92.167942 
L 365.792068 92.167942 
L 365.968799 89.166377 
L 365.968799 89.166377 
L 366.322261 76.677231 
L 366.322261 76.677231 
L 366.498991 78.012203 
L 366.498991 78.012203 
L 366.675722 72.787118 
L 366.675722 72.787118 
L 366.852453 64.24705 
L 366.852453 64.24705 
L 367.029184 63.905434 
L 367.029184 63.905434 
L 367.559376 53.568 
L 367.559376 53.568 
L 396.896695 53.568 
L 396.896695 53.568 
L 397.073426 53.961769 
L 397.073426 53.961769 
L 397.250157 54.022297 
L 397.250157 54.022297 
L 397.426888 53.568 
L 397.426888 53.568 
L 397.95708 53.568 
L 397.95708 53.568 
L 398.310542 53.859585 
L 398.310542 53.859585 
L 398.487273 53.568 
L 398.487273 53.568 
" clip-path="url(#pe00245ff33)" style="fill: none; stroke: #ff7f0e; stroke-width: 1.5; stroke-linecap: square"/>
   </g>
   <g id="patch_3">
    <path d="M 57.6 307.584 
L 57.6 41.472 
" style="fill: none; stroke: #000000; stroke-width: 0.8; stroke-linejoin: miter; stroke-linecap: square"/>
   </g>
   <g id="patch_4">
    <path d="M 414.72 307.584 
L 414.72 41.472 
" style="fill: none; stroke: #000000; stroke-width: 0.8; stroke-linejoin: miter; stroke-linecap: square"/>
   </g>
   <g id="patch_5">
    <path d="M 57.6 307.584 
L 414.72 307.584 
" style="fill: none; stroke: #000000; stroke-width: 0.8; stroke-linejoin: miter; stroke-linecap: square"/>
   </g>
   <g id="patch_6">
    <path d="M 57.6 41.472 
L 414.72 41.472 
" style="fill: none; stroke: #000000; stroke-width: 0.8; stroke-linejoin: miter; stroke-linecap: square"/>
   </g>
   <g id="text_16">
    <!-- Actual speed vs Expected speed -->
    <g transform="translate(138.808125 35.472) scale(0.12 -0.12)">
     <defs>
      <path id="DejaVuSans-41" d="M 2188 4044 
L 1331 1722 
L 3047 1722 
L 2188 4044 
z
M 1831 4666 
L 2547 4666 
L 4325 0 
L 3669 0 
L 3244 1197 
L 1141 1197 
L 716 0 
L 50 0 
L 1831 4666 
z
" transform="scale(0.015625)"/>
      <path id="DejaVuSans-75" d="M 544 1381 
L 544 3500 
L 1119 3500 
L 1119 1403 
Q 1119 906 1312 657 
Q 1506 409 1894 409 
Q 2359 409 2629 706 
Q 2900 1003 2900 1516 
L 2900 3500 
L 3475 3500 
L 3475 0 
L 2900 0 
L 2900 538 
Q 2691 219 2414 64 
Q 2138 -91 1772 -91 
Q 1169 -91 856 284 
Q 544 659 544 1381 
z
M 1991 3584 
L 1991 3584 
z
" transform="scale(0.015625)"/>
      <path id="DejaVuSans-61" d="M 2194 1759 
Q 1497 1759 1228 1600 
Q 959 1441 959 1056 
Q 959 750 1161 570 
Q 1363 391 1709 391 
Q 2188 391 2477 730 
Q 2766 1069 2766 1631 
L 2766 1759 
L 2194 1759 
z
M 3341 1997 
L 3341 0 
L 2766 0 
L 2766 531 
Q 2569 213 2275 61 
Q 1981 -91 1556 -91 
Q 1019 -91 701 211 
Q 384 513 384 1019 
Q 384 1609 779 1909 
Q 1175 2209 1959 2209 
L 2766 2209 
L 2766 2266 
Q 2766 2663 2505 2880 
Q 2244 3097 1772 3097 
Q 1472 3097 1187 3025 
Q 903 2953 641 2809 
L 641 3341 
Q 956 3463 1253 3523 
Q 1550 3584 1831 3584 
Q 2591 3584 2966 3190 
Q 3341 2797 3341 1997 
z
" transform="scale(0.015625)"/>
      <path id="DejaVuSans-20" transform="scale(0.015625)"/>
      <path id="DejaVuSans-70" d="M 1159 525 
L 1159 -1331 
L 581 -1331 
L 581 3500 
L 1159 3500 
L 1159 2969 
Q 1341 3281 1617 3432 
Q 1894 3584 2278 3584 
Q 2916 3584 3314 3078 
Q 3713 2572 3713 1747 
Q 3713 922 3314 415 
Q 2916 -91 2278 -91 
Q 1894 -91 1617 61 
Q 1341 213 1159 525 
z
M 3116 1747 
Q 3116 2381 2855 2742 
Q 2594 3103 2138 3103 
Q 1681 3103 1420 2742 
Q 1159 2381 1159 1747 
Q 1159 1113 1420 752 
Q 1681 391 2138 391 
Q 2594 391 2855 752 
Q 3116 1113 3116 1747 
z
" transform="scale(0.015625)"/>
      <path id="DejaVuSans-64" d="M 2906 2969 
L 2906 4863 
L 3481 4863 
L 3481 0 
L 2906 0 
L 2906 525 
Q 2725 213 2448 61 
Q 2172 -91 1784 -91 
Q 1150 -91 751 415 
Q 353 922 353 1747 
Q 353 2572 751 3078 
Q 1150 3584 1784 3584 
Q 2172 3584 2448 3432 
Q 2725 3281 2906 2969 
z
M 947 1747 
Q 947 1113 1208 752 
Q 1469 391 1925 391 
Q 2381 391 2643 752 
Q 2906 1113 2906 1747 
Q 2906 2381 2643 2742 
Q 2381 3103 1925 3103 
Q 1469 3103 1208 2742 
Q 947 2381 947 1747 
z
" transform="scale(0.015625)"/>
      <path id="DejaVuSans-76" d="M 191 3500 
L 800 3500 
L 1894 563 
L 2988 3500 
L 3597 3500 
L 2284 0 
L 1503 0 
L 191 3500 
z
" transform="scale(0.015625)"/>
      <path id="DejaVuSans-45" d="M 628 4666 
L 3578 4666 
L 3578 4134 
L 1259 4134 
L 1259 2753 
L 3481 2753 
L 3481 2222 
L 1259 2222 
L 1259 531 
L 3634 531 
L 3634 0 
L 628 0 
L 628 4666 
z
" transform="scale(0.015625)"/>
      <path id="DejaVuSans-78" d="M 3513 3500 
L 2247 1797 
L 3578 0 
L 2900 0 
L 1881 1375 
L 863 0 
L 184 0 
L 1544 1831 
L 300 3500 
L 978 3500 
L 1906 2253 
L 2834 3500 
L 3513 3500 
z
" transform="scale(0.015625)"/>
     </defs>
     <use xlink:href="#DejaVuSans-41"/>
     <use xlink:href="#DejaVuSans-63" x="66.658203"/>
     <use xlink:href="#DejaVuSans-74" x="121.638672"/>
     <use xlink:href="#DejaVuSans-75" x="160.847656"/>
     <use xlink:href="#DejaVuSans-61" x="224.226562"/>
     <use xlink:href="#DejaVuSans-6c" x="285.505859"/>
     <use xlink:href="#DejaVuSans-20" x="313.289062"/>
     <use xlink:href="#DejaVuSans-73" x="345.076172"/>
     <use xlink:href="#DejaVuSans-70" x="397.175781"/>
     <use xlink:href="#DejaVuSans-65" x="460.652344"/>
     <use xlink:href="#DejaVuSans-65" x="522.175781"/>
     <use xlink:href="#DejaVuSans-64" x="583.699219"/>
     <use xlink:href="#DejaVuSans-20" x="647.175781"/>
     <use xlink:href="#DejaVuSans-76" x="678.962891"/>
     <use xlink:href="#DejaVuSans-73" x="738.142578"/>
     <use xlink:href="#DejaVuSans-20" x="790.242188"/>
     <use xlink:href="#DejaVuSans-45" x="822.029297"/>
     <use xlink:href="#DejaVuSans-78" x="885.212891"/>
     <use xlink:href="#DejaVuSans-70" x="944.392578"/>
     <use xlink:href="#DejaVuSans-65" x="1007.869141"/>
     <use xlink:href="#DejaVuSans-63" x="1069.392578"/>
     <use xlink:href="#DejaVuSans-74" x="1124.373047"/>
     <use xlink:href="#DejaVuSans-65" x="1163.582031"/>
     <use xlink:href="#DejaVuSans-64" x="1225.105469"/>
     <use xlink:href="#DejaVuSans-20" x="1288.582031"/>
     <use xlink:href="#DejaVuSans-73" x="1320.369141"/>
     <use xlink:href="#DejaVuSans-70" x="1372.46875"/>
     <use xlink:href="#DejaVuSans-65" x="1435.945312"/>
     <use xlink:href="#DejaVuSans-65" x="1497.46875"/>
     <use xlink:href="#DejaVuSans-64" x="1558.992188"/>
    </g>
   </g>
   <g id="legend_1">
    <g id="patch_7">
     <path d="M 64.6 302.584 
L 176.65 302.584 
Q 178.65 302.584 178.65 300.584 
L 178.65 272.22775 
Q 178.65 270.22775 176.65 270.22775 
L 64.6 270.22775 
Q 62.6 270.22775 62.6 272.22775 
L 62.6 300.584 
Q 62.6 302.584 64.6 302.584 
z
" style="fill: #ffffff; opacity: 0.8; stroke: #cccccc; stroke-linejoin: miter"/>
    </g>
    <g id="line2d_29">
     <path d="M 66.6 278.326187 
L 76.6 278.326187 
L 86.6 278.326187 
" style="fill: none; stroke: #1f77b4; stroke-width: 1.5; stroke-linecap: square"/>
    </g>
    <g id="text_17">
     <!-- Actual speed -->
     <g transform="translate(94.6 281.826187) scale(0.1 -0.1)">
      <use xlink:href="#DejaVuSans-41"/>
      <use xlink:href="#DejaVuSans-63" x="66.658203"/>
      <use xlink:href="#DejaVuSans-74" x="121.638672"/>
      <use xlink:href="#DejaVuSans-75" x="160.847656"/>
      <use xlink:href="#DejaVuSans-61" x="224.226562"/>
      <use xlink:href="#DejaVuSans-6c" x="285.505859"/>
      <use xlink:href="#DejaVuSans-20" x="313.289062"/>
      <use xlink:href="#DejaVuSans-73" x="345.076172"/>
      <use xlink:href="#DejaVuSans-70" x="397.175781"/>
      <use xlink:href="#DejaVuSans-65" x="460.652344"/>
      <use xlink:href="#DejaVuSans-65" x="522.175781"/>
      <use xlink:href="#DejaVuSans-64" x="583.699219"/>
     </g>
    </g>
    <g id="line2d_30">
     <path d="M 66.6 293.004312 
L 76.6 293.004312 
L 86.6 293.004312 
" style="fill: none; stroke: #ff7f0e; stroke-width: 1.5; stroke-linecap: square"/>
    </g>
    <g id="text_18">
     <!-- Expected speed -->
     <g transform="translate(94.6 296.504312) scale(0.1 -0.1)">
      <use xlink:href="#DejaVuSans-45"/>
      <use xlink:href="#DejaVuSans-78" x="63.183594"/>
      <use xlink:href="#DejaVuSans-70" x="122.363281"/>
      <use xlink:href="#DejaVuSans-65" x="185.839844"/>
      <use xlink:href="#DejaVuSans-63" x="247.363281"/>
      <use xlink:href="#DejaVuSans-74" x="302.34375"/>
      <use xlink:href="#DejaVuSans-65" x="341.552734"/>
      <use xlink:href="#DejaVuSans-64" x="403.076172"/>
      <use xlink:href="#DejaVuSans-20" x="466.552734"/>
      <use xlink:href="#DejaVuSans-73" x="498.339844"/>
      <use xlink:href="#DejaVuSans-70" x="550.439453"/>
      <use xlink:href="#DejaVuSans-65" x="613.916016"/>
      <use xlink:href="#DejaVuSans-65" x="675.439453"/>
      <use xlink:href="#DejaVuSans-64" x="736.962891"/>
     </g>
    </g>
   </g>
  </g>
 </g>
 <defs>
  <clipPath id="pe00245ff33">
   <rect x="57.6" y="41.472" width="357.12" height="266.112"/>
  </clipPath>
 </defs>
</svg>
