<?xml version="1.0" encoding="utf-8" standalone="no"?>
<!DOCTYPE svg PUBLIC "-//W3C//DTD SVG 1.1//EN"
  "http://www.w3.org/Graphics/SVG/1.1/DTD/svg11.dtd">
<svg xmlns:xlink="http://www.w3.org/1999/xlink" width="460.8pt" height="345.6pt" viewBox="0 0 460.8 345.6" xmlns="http://www.w3.org/2000/svg" version="1.1">
 <metadata>
  <rdf:RDF xmlns:dc="http://purl.org/dc/elements/1.1/" xmlns:cc="http://creativecommons.org/ns#" xmlns:rdf="http://www.w3.org/1999/02/22-rdf-syntax-ns#">
   <cc:Work>
    <dc:type rdf:resource="http://purl.org/dc/dcmitype/StillImage"/>
    <dc:date>2024-01-30T20:59:04.536708</dc:date>
    <dc:format>image/svg+xml</dc:format>
    <dc:creator>
     <cc:Agent>
      <dc:title>Matplotlib v3.7.1, https://matplotlib.org/</dc:title>
     </cc:Agent>
    </dc:creator>
   </cc:Work>
  </rdf:RDF>
 </metadata>
 <defs>
  <style type="text/css">*{stroke-linejoin: round; stroke-linecap: butt}</style>
 </defs>
 <g id="figure_1">
  <g id="patch_1">
   <path d="M 0 345.6 
L 460.8 345.6 
L 460.8 0 
L 0 0 
z
" style="fill: #ffffff"/>
  </g>
  <g id="axes_1">
   <g id="patch_2">
    <path d="M 57.6 307.584 
L 414.72 307.584 
L 414.72 41.472 
L 57.6 41.472 
z
" style="fill: #ffffff"/>
   </g>
   <g id="matplotlib.axis_1">
    <g id="xtick_1">
     <g id="line2d_1">
      <path d="M 73.832727 307.584 
L 73.832727 41.472 
" clip-path="url(#pa43e48c9ca)" style="fill: none; stroke: #b0b0b0; stroke-width: 0.8; stroke-linecap: square"/>
     </g>
     <g id="line2d_2">
      <defs>
       <path id="m430098e9bd" d="M 0 0 
L 0 3.5 
" style="stroke: #000000; stroke-width: 0.8"/>
      </defs>
      <g>
       <use xlink:href="#m430098e9bd" x="73.832727" y="307.584" style="stroke: #000000; stroke-width: 0.8"/>
      </g>
     </g>
     <g id="text_1">
      <!-- 0 -->
      <g transform="translate(70.651477 322.182437) scale(0.1 -0.1)">
       <defs>
        <path id="DejaVuSans-30" d="M 2034 4250 
Q 1547 4250 1301 3770 
Q 1056 3291 1056 2328 
Q 1056 1369 1301 889 
Q 1547 409 2034 409 
Q 2525 409 2770 889 
Q 3016 1369 3016 2328 
Q 3016 3291 2770 3770 
Q 2525 4250 2034 4250 
z
M 2034 4750 
Q 2819 4750 3233 4129 
Q 3647 3509 3647 2328 
Q 3647 1150 3233 529 
Q 2819 -91 2034 -91 
Q 1250 -91 836 529 
Q 422 1150 422 2328 
Q 422 3509 836 4129 
Q 1250 4750 2034 4750 
z
" transform="scale(0.015625)"/>
       </defs>
       <use xlink:href="#DejaVuSans-30"/>
      </g>
     </g>
    </g>
    <g id="xtick_2">
     <g id="line2d_3">
      <path d="M 117.096926 307.584 
L 117.096926 41.472 
" clip-path="url(#pa43e48c9ca)" style="fill: none; stroke: #b0b0b0; stroke-width: 0.8; stroke-linecap: square"/>
     </g>
     <g id="line2d_4">
      <g>
       <use xlink:href="#m430098e9bd" x="117.096926" y="307.584" style="stroke: #000000; stroke-width: 0.8"/>
      </g>
     </g>
     <g id="text_2">
      <!-- 5 -->
      <g transform="translate(113.915676 322.182437) scale(0.1 -0.1)">
       <defs>
        <path id="DejaVuSans-35" d="M 691 4666 
L 3169 4666 
L 3169 4134 
L 1269 4134 
L 1269 2991 
Q 1406 3038 1543 3061 
Q 1681 3084 1819 3084 
Q 2600 3084 3056 2656 
Q 3513 2228 3513 1497 
Q 3513 744 3044 326 
Q 2575 -91 1722 -91 
Q 1428 -91 1123 -41 
Q 819 9 494 109 
L 494 744 
Q 775 591 1075 516 
Q 1375 441 1709 441 
Q 2250 441 2565 725 
Q 2881 1009 2881 1497 
Q 2881 1984 2565 2268 
Q 2250 2553 1709 2553 
Q 1456 2553 1204 2497 
Q 953 2441 691 2322 
L 691 4666 
z
" transform="scale(0.015625)"/>
       </defs>
       <use xlink:href="#DejaVuSans-35"/>
      </g>
     </g>
    </g>
    <g id="xtick_3">
     <g id="line2d_5">
      <path d="M 160.361124 307.584 
L 160.361124 41.472 
" clip-path="url(#pa43e48c9ca)" style="fill: none; stroke: #b0b0b0; stroke-width: 0.8; stroke-linecap: square"/>
     </g>
     <g id="line2d_6">
      <g>
       <use xlink:href="#m430098e9bd" x="160.361124" y="307.584" style="stroke: #000000; stroke-width: 0.8"/>
      </g>
     </g>
     <g id="text_3">
      <!-- 10 -->
      <g transform="translate(153.998624 322.182437) scale(0.1 -0.1)">
       <defs>
        <path id="DejaVuSans-31" d="M 794 531 
L 1825 531 
L 1825 4091 
L 703 3866 
L 703 4441 
L 1819 4666 
L 2450 4666 
L 2450 531 
L 3481 531 
L 3481 0 
L 794 0 
L 794 531 
z
" transform="scale(0.015625)"/>
       </defs>
       <use xlink:href="#DejaVuSans-31"/>
       <use xlink:href="#DejaVuSans-30" x="63.623047"/>
      </g>
     </g>
    </g>
    <g id="xtick_4">
     <g id="line2d_7">
      <path d="M 203.625323 307.584 
L 203.625323 41.472 
" clip-path="url(#pa43e48c9ca)" style="fill: none; stroke: #b0b0b0; stroke-width: 0.8; stroke-linecap: square"/>
     </g>
     <g id="line2d_8">
      <g>
       <use xlink:href="#m430098e9bd" x="203.625323" y="307.584" style="stroke: #000000; stroke-width: 0.8"/>
      </g>
     </g>
     <g id="text_4">
      <!-- 15 -->
      <g transform="translate(197.262823 322.182437) scale(0.1 -0.1)">
       <use xlink:href="#DejaVuSans-31"/>
       <use xlink:href="#DejaVuSans-35" x="63.623047"/>
      </g>
     </g>
    </g>
    <g id="xtick_5">
     <g id="line2d_9">
      <path d="M 246.889521 307.584 
L 246.889521 41.472 
" clip-path="url(#pa43e48c9ca)" style="fill: none; stroke: #b0b0b0; stroke-width: 0.8; stroke-linecap: square"/>
     </g>
     <g id="line2d_10">
      <g>
       <use xlink:href="#m430098e9bd" x="246.889521" y="307.584" style="stroke: #000000; stroke-width: 0.8"/>
      </g>
     </g>
     <g id="text_5">
      <!-- 20 -->
      <g transform="translate(240.527021 322.182437) scale(0.1 -0.1)">
       <defs>
        <path id="DejaVuSans-32" d="M 1228 531 
L 3431 531 
L 3431 0 
L 469 0 
L 469 531 
Q 828 903 1448 1529 
Q 2069 2156 2228 2338 
Q 2531 2678 2651 2914 
Q 2772 3150 2772 3378 
Q 2772 3750 2511 3984 
Q 2250 4219 1831 4219 
Q 1534 4219 1204 4116 
Q 875 4013 500 3803 
L 500 4441 
Q 881 4594 1212 4672 
Q 1544 4750 1819 4750 
Q 2544 4750 2975 4387 
Q 3406 4025 3406 3419 
Q 3406 3131 3298 2873 
Q 3191 2616 2906 2266 
Q 2828 2175 2409 1742 
Q 1991 1309 1228 531 
z
" transform="scale(0.015625)"/>
       </defs>
       <use xlink:href="#DejaVuSans-32"/>
       <use xlink:href="#DejaVuSans-30" x="63.623047"/>
      </g>
     </g>
    </g>
    <g id="xtick_6">
     <g id="line2d_11">
      <path d="M 290.15372 307.584 
L 290.15372 41.472 
" clip-path="url(#pa43e48c9ca)" style="fill: none; stroke: #b0b0b0; stroke-width: 0.8; stroke-linecap: square"/>
     </g>
     <g id="line2d_12">
      <g>
       <use xlink:href="#m430098e9bd" x="290.15372" y="307.584" style="stroke: #000000; stroke-width: 0.8"/>
      </g>
     </g>
     <g id="text_6">
      <!-- 25 -->
      <g transform="translate(283.79122 322.182437) scale(0.1 -0.1)">
       <use xlink:href="#DejaVuSans-32"/>
       <use xlink:href="#DejaVuSans-35" x="63.623047"/>
      </g>
     </g>
    </g>
    <g id="xtick_7">
     <g id="line2d_13">
      <path d="M 333.417918 307.584 
L 333.417918 41.472 
" clip-path="url(#pa43e48c9ca)" style="fill: none; stroke: #b0b0b0; stroke-width: 0.8; stroke-linecap: square"/>
     </g>
     <g id="line2d_14">
      <g>
       <use xlink:href="#m430098e9bd" x="333.417918" y="307.584" style="stroke: #000000; stroke-width: 0.8"/>
      </g>
     </g>
     <g id="text_7">
      <!-- 30 -->
      <g transform="translate(327.055418 322.182437) scale(0.1 -0.1)">
       <defs>
        <path id="DejaVuSans-33" d="M 2597 2516 
Q 3050 2419 3304 2112 
Q 3559 1806 3559 1356 
Q 3559 666 3084 287 
Q 2609 -91 1734 -91 
Q 1441 -91 1130 -33 
Q 819 25 488 141 
L 488 750 
Q 750 597 1062 519 
Q 1375 441 1716 441 
Q 2309 441 2620 675 
Q 2931 909 2931 1356 
Q 2931 1769 2642 2001 
Q 2353 2234 1838 2234 
L 1294 2234 
L 1294 2753 
L 1863 2753 
Q 2328 2753 2575 2939 
Q 2822 3125 2822 3475 
Q 2822 3834 2567 4026 
Q 2313 4219 1838 4219 
Q 1578 4219 1281 4162 
Q 984 4106 628 3988 
L 628 4550 
Q 988 4650 1302 4700 
Q 1616 4750 1894 4750 
Q 2613 4750 3031 4423 
Q 3450 4097 3450 3541 
Q 3450 3153 3228 2886 
Q 3006 2619 2597 2516 
z
" transform="scale(0.015625)"/>
       </defs>
       <use xlink:href="#DejaVuSans-33"/>
       <use xlink:href="#DejaVuSans-30" x="63.623047"/>
      </g>
     </g>
    </g>
    <g id="xtick_8">
     <g id="line2d_15">
      <path d="M 376.682117 307.584 
L 376.682117 41.472 
" clip-path="url(#pa43e48c9ca)" style="fill: none; stroke: #b0b0b0; stroke-width: 0.8; stroke-linecap: square"/>
     </g>
     <g id="line2d_16">
      <g>
       <use xlink:href="#m430098e9bd" x="376.682117" y="307.584" style="stroke: #000000; stroke-width: 0.8"/>
      </g>
     </g>
     <g id="text_8">
      <!-- 35 -->
      <g transform="translate(370.319617 322.182437) scale(0.1 -0.1)">
       <use xlink:href="#DejaVuSans-33"/>
       <use xlink:href="#DejaVuSans-35" x="63.623047"/>
      </g>
     </g>
    </g>
    <g id="text_9">
     <!-- Time(s) -->
     <g transform="translate(217.420156 335.860562) scale(0.1 -0.1)">
      <defs>
       <path id="DejaVuSans-54" d="M -19 4666 
L 3928 4666 
L 3928 4134 
L 2272 4134 
L 2272 0 
L 1638 0 
L 1638 4134 
L -19 4134 
L -19 4666 
z
" transform="scale(0.015625)"/>
       <path id="DejaVuSans-69" d="M 603 3500 
L 1178 3500 
L 1178 0 
L 603 0 
L 603 3500 
z
M 603 4863 
L 1178 4863 
L 1178 4134 
L 603 4134 
L 603 4863 
z
" transform="scale(0.015625)"/>
       <path id="DejaVuSans-6d" d="M 3328 2828 
Q 3544 3216 3844 3400 
Q 4144 3584 4550 3584 
Q 5097 3584 5394 3201 
Q 5691 2819 5691 2113 
L 5691 0 
L 5113 0 
L 5113 2094 
Q 5113 2597 4934 2840 
Q 4756 3084 4391 3084 
Q 3944 3084 3684 2787 
Q 3425 2491 3425 1978 
L 3425 0 
L 2847 0 
L 2847 2094 
Q 2847 2600 2669 2842 
Q 2491 3084 2119 3084 
Q 1678 3084 1418 2786 
Q 1159 2488 1159 1978 
L 1159 0 
L 581 0 
L 581 3500 
L 1159 3500 
L 1159 2956 
Q 1356 3278 1631 3431 
Q 1906 3584 2284 3584 
Q 2666 3584 2933 3390 
Q 3200 3197 3328 2828 
z
" transform="scale(0.015625)"/>
       <path id="DejaVuSans-65" d="M 3597 1894 
L 3597 1613 
L 953 1613 
Q 991 1019 1311 708 
Q 1631 397 2203 397 
Q 2534 397 2845 478 
Q 3156 559 3463 722 
L 3463 178 
Q 3153 47 2828 -22 
Q 2503 -91 2169 -91 
Q 1331 -91 842 396 
Q 353 884 353 1716 
Q 353 2575 817 3079 
Q 1281 3584 2069 3584 
Q 2775 3584 3186 3129 
Q 3597 2675 3597 1894 
z
M 3022 2063 
Q 3016 2534 2758 2815 
Q 2500 3097 2075 3097 
Q 1594 3097 1305 2825 
Q 1016 2553 972 2059 
L 3022 2063 
z
" transform="scale(0.015625)"/>
       <path id="DejaVuSans-28" d="M 1984 4856 
Q 1566 4138 1362 3434 
Q 1159 2731 1159 2009 
Q 1159 1288 1364 580 
Q 1569 -128 1984 -844 
L 1484 -844 
Q 1016 -109 783 600 
Q 550 1309 550 2009 
Q 550 2706 781 3412 
Q 1013 4119 1484 4856 
L 1984 4856 
z
" transform="scale(0.015625)"/>
       <path id="DejaVuSans-73" d="M 2834 3397 
L 2834 2853 
Q 2591 2978 2328 3040 
Q 2066 3103 1784 3103 
Q 1356 3103 1142 2972 
Q 928 2841 928 2578 
Q 928 2378 1081 2264 
Q 1234 2150 1697 2047 
L 1894 2003 
Q 2506 1872 2764 1633 
Q 3022 1394 3022 966 
Q 3022 478 2636 193 
Q 2250 -91 1575 -91 
Q 1294 -91 989 -36 
Q 684 19 347 128 
L 347 722 
Q 666 556 975 473 
Q 1284 391 1588 391 
Q 1994 391 2212 530 
Q 2431 669 2431 922 
Q 2431 1156 2273 1281 
Q 2116 1406 1581 1522 
L 1381 1569 
Q 847 1681 609 1914 
Q 372 2147 372 2553 
Q 372 3047 722 3315 
Q 1072 3584 1716 3584 
Q 2034 3584 2315 3537 
Q 2597 3491 2834 3397 
z
" transform="scale(0.015625)"/>
       <path id="DejaVuSans-29" d="M 513 4856 
L 1013 4856 
Q 1481 4119 1714 3412 
Q 1947 2706 1947 2009 
Q 1947 1309 1714 600 
Q 1481 -109 1013 -844 
L 513 -844 
Q 928 -128 1133 580 
Q 1338 1288 1338 2009 
Q 1338 2731 1133 3434 
Q 928 4138 513 4856 
z
" transform="scale(0.015625)"/>
      </defs>
      <use xlink:href="#DejaVuSans-54"/>
      <use xlink:href="#DejaVuSans-69" x="57.958984"/>
      <use xlink:href="#DejaVuSans-6d" x="85.742188"/>
      <use xlink:href="#DejaVuSans-65" x="183.154297"/>
      <use xlink:href="#DejaVuSans-28" x="244.677734"/>
      <use xlink:href="#DejaVuSans-73" x="283.691406"/>
      <use xlink:href="#DejaVuSans-29" x="335.791016"/>
     </g>
    </g>
   </g>
   <g id="matplotlib.axis_2">
    <g id="ytick_1">
     <g id="line2d_17">
      <path d="M 57.6 295.488 
L 414.72 295.488 
" clip-path="url(#pa43e48c9ca)" style="fill: none; stroke: #b0b0b0; stroke-width: 0.8; stroke-linecap: square"/>
     </g>
     <g id="line2d_18">
      <defs>
       <path id="mfbf6e09093" d="M 0 0 
L -3.5 0 
" style="stroke: #000000; stroke-width: 0.8"/>
      </defs>
      <g>
       <use xlink:href="#mfbf6e09093" x="57.6" y="295.488" style="stroke: #000000; stroke-width: 0.8"/>
      </g>
     </g>
     <g id="text_10">
      <!-- 0.000 -->
      <g transform="translate(21.971875 299.287219) scale(0.1 -0.1)">
       <defs>
        <path id="DejaVuSans-2e" d="M 684 794 
L 1344 794 
L 1344 0 
L 684 0 
L 684 794 
z
" transform="scale(0.015625)"/>
       </defs>
       <use xlink:href="#DejaVuSans-30"/>
       <use xlink:href="#DejaVuSans-2e" x="63.623047"/>
       <use xlink:href="#DejaVuSans-30" x="95.410156"/>
       <use xlink:href="#DejaVuSans-30" x="159.033203"/>
       <use xlink:href="#DejaVuSans-30" x="222.65625"/>
      </g>
     </g>
    </g>
    <g id="ytick_2">
     <g id="line2d_19">
      <path d="M 57.6 262.164217 
L 414.72 262.164217 
" clip-path="url(#pa43e48c9ca)" style="fill: none; stroke: #b0b0b0; stroke-width: 0.8; stroke-linecap: square"/>
     </g>
     <g id="line2d_20">
      <g>
       <use xlink:href="#mfbf6e09093" x="57.6" y="262.164217" style="stroke: #000000; stroke-width: 0.8"/>
      </g>
     </g>
     <g id="text_11">
      <!-- 0.025 -->
      <g transform="translate(21.971875 265.963436) scale(0.1 -0.1)">
       <use xlink:href="#DejaVuSans-30"/>
       <use xlink:href="#DejaVuSans-2e" x="63.623047"/>
       <use xlink:href="#DejaVuSans-30" x="95.410156"/>
       <use xlink:href="#DejaVuSans-32" x="159.033203"/>
       <use xlink:href="#DejaVuSans-35" x="222.65625"/>
      </g>
     </g>
    </g>
    <g id="ytick_3">
     <g id="line2d_21">
      <path d="M 57.6 228.840434 
L 414.72 228.840434 
" clip-path="url(#pa43e48c9ca)" style="fill: none; stroke: #b0b0b0; stroke-width: 0.8; stroke-linecap: square"/>
     </g>
     <g id="line2d_22">
      <g>
       <use xlink:href="#mfbf6e09093" x="57.6" y="228.840434" style="stroke: #000000; stroke-width: 0.8"/>
      </g>
     </g>
     <g id="text_12">
      <!-- 0.050 -->
      <g transform="translate(21.971875 232.639653) scale(0.1 -0.1)">
       <use xlink:href="#DejaVuSans-30"/>
       <use xlink:href="#DejaVuSans-2e" x="63.623047"/>
       <use xlink:href="#DejaVuSans-30" x="95.410156"/>
       <use xlink:href="#DejaVuSans-35" x="159.033203"/>
       <use xlink:href="#DejaVuSans-30" x="222.65625"/>
      </g>
     </g>
    </g>
    <g id="ytick_4">
     <g id="line2d_23">
      <path d="M 57.6 195.516651 
L 414.72 195.516651 
" clip-path="url(#pa43e48c9ca)" style="fill: none; stroke: #b0b0b0; stroke-width: 0.8; stroke-linecap: square"/>
     </g>
     <g id="line2d_24">
      <g>
       <use xlink:href="#mfbf6e09093" x="57.6" y="195.516651" style="stroke: #000000; stroke-width: 0.8"/>
      </g>
     </g>
     <g id="text_13">
      <!-- 0.075 -->
      <g transform="translate(21.971875 199.31587) scale(0.1 -0.1)">
       <defs>
        <path id="DejaVuSans-37" d="M 525 4666 
L 3525 4666 
L 3525 4397 
L 1831 0 
L 1172 0 
L 2766 4134 
L 525 4134 
L 525 4666 
z
" transform="scale(0.015625)"/>
       </defs>
       <use xlink:href="#DejaVuSans-30"/>
       <use xlink:href="#DejaVuSans-2e" x="63.623047"/>
       <use xlink:href="#DejaVuSans-30" x="95.410156"/>
       <use xlink:href="#DejaVuSans-37" x="159.033203"/>
       <use xlink:href="#DejaVuSans-35" x="222.65625"/>
      </g>
     </g>
    </g>
    <g id="ytick_5">
     <g id="line2d_25">
      <path d="M 57.6 162.192869 
L 414.72 162.192869 
" clip-path="url(#pa43e48c9ca)" style="fill: none; stroke: #b0b0b0; stroke-width: 0.8; stroke-linecap: square"/>
     </g>
     <g id="line2d_26">
      <g>
       <use xlink:href="#mfbf6e09093" x="57.6" y="162.192869" style="stroke: #000000; stroke-width: 0.8"/>
      </g>
     </g>
     <g id="text_14">
      <!-- 0.100 -->
      <g transform="translate(21.971875 165.992087) scale(0.1 -0.1)">
       <use xlink:href="#DejaVuSans-30"/>
       <use xlink:href="#DejaVuSans-2e" x="63.623047"/>
       <use xlink:href="#DejaVuSans-31" x="95.410156"/>
       <use xlink:href="#DejaVuSans-30" x="159.033203"/>
       <use xlink:href="#DejaVuSans-30" x="222.65625"/>
      </g>
     </g>
    </g>
    <g id="ytick_6">
     <g id="line2d_27">
      <path d="M 57.6 128.869086 
L 414.72 128.869086 
" clip-path="url(#pa43e48c9ca)" style="fill: none; stroke: #b0b0b0; stroke-width: 0.8; stroke-linecap: square"/>
     </g>
     <g id="line2d_28">
      <g>
       <use xlink:href="#mfbf6e09093" x="57.6" y="128.869086" style="stroke: #000000; stroke-width: 0.8"/>
      </g>
     </g>
     <g id="text_15">
      <!-- 0.125 -->
      <g transform="translate(21.971875 132.668304) scale(0.1 -0.1)">
       <use xlink:href="#DejaVuSans-30"/>
       <use xlink:href="#DejaVuSans-2e" x="63.623047"/>
       <use xlink:href="#DejaVuSans-31" x="95.410156"/>
       <use xlink:href="#DejaVuSans-32" x="159.033203"/>
       <use xlink:href="#DejaVuSans-35" x="222.65625"/>
      </g>
     </g>
    </g>
    <g id="ytick_7">
     <g id="line2d_29">
      <path d="M 57.6 95.545303 
L 414.72 95.545303 
" clip-path="url(#pa43e48c9ca)" style="fill: none; stroke: #b0b0b0; stroke-width: 0.8; stroke-linecap: square"/>
     </g>
     <g id="line2d_30">
      <g>
       <use xlink:href="#mfbf6e09093" x="57.6" y="95.545303" style="stroke: #000000; stroke-width: 0.8"/>
      </g>
     </g>
     <g id="text_16">
      <!-- 0.150 -->
      <g transform="translate(21.971875 99.344522) scale(0.1 -0.1)">
       <use xlink:href="#DejaVuSans-30"/>
       <use xlink:href="#DejaVuSans-2e" x="63.623047"/>
       <use xlink:href="#DejaVuSans-31" x="95.410156"/>
       <use xlink:href="#DejaVuSans-35" x="159.033203"/>
       <use xlink:href="#DejaVuSans-30" x="222.65625"/>
      </g>
     </g>
    </g>
    <g id="ytick_8">
     <g id="line2d_31">
      <path d="M 57.6 62.22152 
L 414.72 62.22152 
" clip-path="url(#pa43e48c9ca)" style="fill: none; stroke: #b0b0b0; stroke-width: 0.8; stroke-linecap: square"/>
     </g>
     <g id="line2d_32">
      <g>
       <use xlink:href="#mfbf6e09093" x="57.6" y="62.22152" style="stroke: #000000; stroke-width: 0.8"/>
      </g>
     </g>
     <g id="text_17">
      <!-- 0.175 -->
      <g transform="translate(21.971875 66.020739) scale(0.1 -0.1)">
       <use xlink:href="#DejaVuSans-30"/>
       <use xlink:href="#DejaVuSans-2e" x="63.623047"/>
       <use xlink:href="#DejaVuSans-31" x="95.410156"/>
       <use xlink:href="#DejaVuSans-37" x="159.033203"/>
       <use xlink:href="#DejaVuSans-35" x="222.65625"/>
      </g>
     </g>
    </g>
    <g id="text_18">
     <!-- Tracking error(m) -->
     <g transform="translate(15.892187 217.803781) rotate(-90) scale(0.1 -0.1)">
      <defs>
       <path id="DejaVuSans-72" d="M 2631 2963 
Q 2534 3019 2420 3045 
Q 2306 3072 2169 3072 
Q 1681 3072 1420 2755 
Q 1159 2438 1159 1844 
L 1159 0 
L 581 0 
L 581 3500 
L 1159 3500 
L 1159 2956 
Q 1341 3275 1631 3429 
Q 1922 3584 2338 3584 
Q 2397 3584 2469 3576 
Q 2541 3569 2628 3553 
L 2631 2963 
z
" transform="scale(0.015625)"/>
       <path id="DejaVuSans-61" d="M 2194 1759 
Q 1497 1759 1228 1600 
Q 959 1441 959 1056 
Q 959 750 1161 570 
Q 1363 391 1709 391 
Q 2188 391 2477 730 
Q 2766 1069 2766 1631 
L 2766 1759 
L 2194 1759 
z
M 3341 1997 
L 3341 0 
L 2766 0 
L 2766 531 
Q 2569 213 2275 61 
Q 1981 -91 1556 -91 
Q 1019 -91 701 211 
Q 384 513 384 1019 
Q 384 1609 779 1909 
Q 1175 2209 1959 2209 
L 2766 2209 
L 2766 2266 
Q 2766 2663 2505 2880 
Q 2244 3097 1772 3097 
Q 1472 3097 1187 3025 
Q 903 2953 641 2809 
L 641 3341 
Q 956 3463 1253 3523 
Q 1550 3584 1831 3584 
Q 2591 3584 2966 3190 
Q 3341 2797 3341 1997 
z
" transform="scale(0.015625)"/>
       <path id="DejaVuSans-63" d="M 3122 3366 
L 3122 2828 
Q 2878 2963 2633 3030 
Q 2388 3097 2138 3097 
Q 1578 3097 1268 2742 
Q 959 2388 959 1747 
Q 959 1106 1268 751 
Q 1578 397 2138 397 
Q 2388 397 2633 464 
Q 2878 531 3122 666 
L 3122 134 
Q 2881 22 2623 -34 
Q 2366 -91 2075 -91 
Q 1284 -91 818 406 
Q 353 903 353 1747 
Q 353 2603 823 3093 
Q 1294 3584 2113 3584 
Q 2378 3584 2631 3529 
Q 2884 3475 3122 3366 
z
" transform="scale(0.015625)"/>
       <path id="DejaVuSans-6b" d="M 581 4863 
L 1159 4863 
L 1159 1991 
L 2875 3500 
L 3609 3500 
L 1753 1863 
L 3688 0 
L 2938 0 
L 1159 1709 
L 1159 0 
L 581 0 
L 581 4863 
z
" transform="scale(0.015625)"/>
       <path id="DejaVuSans-6e" d="M 3513 2113 
L 3513 0 
L 2938 0 
L 2938 2094 
Q 2938 2591 2744 2837 
Q 2550 3084 2163 3084 
Q 1697 3084 1428 2787 
Q 1159 2491 1159 1978 
L 1159 0 
L 581 0 
L 581 3500 
L 1159 3500 
L 1159 2956 
Q 1366 3272 1645 3428 
Q 1925 3584 2291 3584 
Q 2894 3584 3203 3211 
Q 3513 2838 3513 2113 
z
" transform="scale(0.015625)"/>
       <path id="DejaVuSans-67" d="M 2906 1791 
Q 2906 2416 2648 2759 
Q 2391 3103 1925 3103 
Q 1463 3103 1205 2759 
Q 947 2416 947 1791 
Q 947 1169 1205 825 
Q 1463 481 1925 481 
Q 2391 481 2648 825 
Q 2906 1169 2906 1791 
z
M 3481 434 
Q 3481 -459 3084 -895 
Q 2688 -1331 1869 -1331 
Q 1566 -1331 1297 -1286 
Q 1028 -1241 775 -1147 
L 775 -588 
Q 1028 -725 1275 -790 
Q 1522 -856 1778 -856 
Q 2344 -856 2625 -561 
Q 2906 -266 2906 331 
L 2906 616 
Q 2728 306 2450 153 
Q 2172 0 1784 0 
Q 1141 0 747 490 
Q 353 981 353 1791 
Q 353 2603 747 3093 
Q 1141 3584 1784 3584 
Q 2172 3584 2450 3431 
Q 2728 3278 2906 2969 
L 2906 3500 
L 3481 3500 
L 3481 434 
z
" transform="scale(0.015625)"/>
       <path id="DejaVuSans-20" transform="scale(0.015625)"/>
       <path id="DejaVuSans-6f" d="M 1959 3097 
Q 1497 3097 1228 2736 
Q 959 2375 959 1747 
Q 959 1119 1226 758 
Q 1494 397 1959 397 
Q 2419 397 2687 759 
Q 2956 1122 2956 1747 
Q 2956 2369 2687 2733 
Q 2419 3097 1959 3097 
z
M 1959 3584 
Q 2709 3584 3137 3096 
Q 3566 2609 3566 1747 
Q 3566 888 3137 398 
Q 2709 -91 1959 -91 
Q 1206 -91 779 398 
Q 353 888 353 1747 
Q 353 2609 779 3096 
Q 1206 3584 1959 3584 
z
" transform="scale(0.015625)"/>
      </defs>
      <use xlink:href="#DejaVuSans-54"/>
      <use xlink:href="#DejaVuSans-72" x="46.333984"/>
      <use xlink:href="#DejaVuSans-61" x="87.447266"/>
      <use xlink:href="#DejaVuSans-63" x="148.726562"/>
      <use xlink:href="#DejaVuSans-6b" x="203.707031"/>
      <use xlink:href="#DejaVuSans-69" x="261.617188"/>
      <use xlink:href="#DejaVuSans-6e" x="289.400391"/>
      <use xlink:href="#DejaVuSans-67" x="352.779297"/>
      <use xlink:href="#DejaVuSans-20" x="416.255859"/>
      <use xlink:href="#DejaVuSans-65" x="448.042969"/>
      <use xlink:href="#DejaVuSans-72" x="509.566406"/>
      <use xlink:href="#DejaVuSans-72" x="548.929688"/>
      <use xlink:href="#DejaVuSans-6f" x="587.792969"/>
      <use xlink:href="#DejaVuSans-72" x="648.974609"/>
      <use xlink:href="#DejaVuSans-28" x="690.087891"/>
      <use xlink:href="#DejaVuSans-6d" x="729.101562"/>
      <use xlink:href="#DejaVuSans-29" x="826.513672"/>
     </g>
    </g>
   </g>
   <g id="line2d_33">
    <path d="M 73.832727 295.488 
L 74.178841 295.488 
L 74.178841 295.488 
L 74.698011 294.741547 
L 74.698011 294.741547 
L 75.044125 294.614917 
L 75.044125 294.614917 
L 75.217182 294.489619 
L 75.217182 294.489619 
L 75.390238 294.2097 
L 75.390238 294.2097 
L 75.563295 290.919976 
L 75.563295 290.919976 
L 75.909409 290.877321 
L 75.909409 290.877321 
L 76.082466 290.797344 
L 76.082466 290.797344 
L 76.255522 295.488 
L 76.255522 295.488 
L 76.428579 291.0666 
L 76.428579 291.0666 
L 76.774693 291.919689 
L 76.774693 291.919689 
L 77.120806 293.261971 
L 77.120806 293.261971 
L 77.46692 293.471245 
L 77.46692 293.471245 
L 77.639977 293.384603 
L 77.639977 293.384603 
L 77.813034 293.48724 
L 77.813034 293.48724 
L 77.98609 293.189992 
L 77.98609 293.189992 
L 78.159147 295.488 
L 78.159147 295.488 
L 78.332204 293.100684 
L 78.332204 293.100684 
L 78.678318 293.493905 
L 78.678318 293.493905 
L 78.851374 295.488 
L 78.851374 295.488 
L 79.024431 294.192371 
L 79.024431 294.192371 
L 79.197488 294.33633 
L 79.197488 294.33633 
L 79.370545 294.301673 
L 79.370545 294.301673 
L 79.716658 293.757829 
L 79.716658 293.757829 
L 80.062772 293.084689 
L 80.062772 293.084689 
L 80.235829 292.920736 
L 80.235829 292.920736 
L 80.408885 292.948728 
L 80.408885 292.948728 
L 80.581942 293.151336 
L 80.581942 293.151336 
L 81.274169 294.63891 
L 81.274169 294.63891 
L 81.447226 294.770872 
L 81.447226 294.770872 
L 81.620283 294.721553 
L 81.620283 294.721553 
L 82.31251 293.787154 
L 82.31251 293.787154 
L 82.485567 293.804482 
L 82.485567 293.804482 
L 83.350851 294.610918 
L 83.350851 294.610918 
L 83.523908 294.46296 
L 83.523908 294.46296 
L 83.696965 295.488 
L 83.696965 295.488 
L 83.870021 293.589877 
L 83.870021 293.589877 
L 84.389192 292.53418 
L 84.389192 292.53418 
L 84.562248 292.455536 
L 84.562248 292.455536 
L 84.735305 292.619489 
L 84.735305 292.619489 
L 84.908362 292.956725 
L 84.908362 292.956725 
L 85.081419 295.488 
L 85.081419 295.488 
L 85.254476 293.616536 
L 85.600589 294.004425 
L 85.600589 294.004425 
L 85.946703 293.673853 
L 85.946703 293.673853 
L 86.465873 293.259305 
L 86.465873 293.259305 
L 86.63893 293.357944 
L 86.985044 294.229694 
L 86.985044 294.229694 
L 87.331157 295.273395 
L 87.331157 295.273395 
L 87.504214 295.213412 
L 87.504214 295.213412 
L 87.850328 294.709556 
L 87.850328 294.709556 
L 88.023384 294.881507 
L 88.023384 294.881507 
L 88.196441 295.268063 
L 88.196441 295.268063 
L 88.369498 295.245403 
L 88.369498 295.245403 
L 88.542555 295.488 
L 88.542555 295.488 
L 88.888668 293.61387 
L 88.888668 293.61387 
L 89.234782 293.092686 
L 89.234782 293.092686 
L 89.407839 293.320621 
L 89.407839 293.320621 
L 90.100066 295.30272 
L 90.100066 295.30272 
L 90.446179 294.216364 
L 90.446179 294.216364 
L 90.619236 294.109728 
L 90.619236 294.109728 
L 90.96535 294.334997 
L 90.96535 294.334997 
L 91.311463 294.966816 
L 91.311463 294.966816 
L 91.48452 295.425351 
L 91.48452 295.425351 
L 91.830634 295.053458 
L 91.830634 295.053458 
L 92.176747 295.337377 
L 92.176747 295.337377 
L 92.695918 293.146005 
L 92.695918 293.146005 
L 93.042031 291.55846 
L 93.042031 291.55846 
L 93.561202 290.626727 
L 93.561202 290.626727 
L 93.907315 290.380131 
L 93.907315 290.380131 
L 94.080372 290.529421 
L 94.080372 290.529421 
L 94.253429 290.522756 
L 94.253429 290.522756 
L 94.426486 290.398792 
L 94.426486 290.398792 
L 94.599543 290.072219 
L 94.599543 290.072219 
L 95.464827 287.154388 
L 95.464827 287.154388 
L 95.637883 286.865138 
L 95.637883 286.865138 
L 95.983997 287.692901 
L 95.983997 287.692901 
L 96.33011 289.252454 
L 96.33011 289.252454 
L 96.676224 292.054317 
L 96.676224 292.054317 
L 97.022338 295.249402 
L 97.022338 295.249402 
L 97.368451 292.738121 
L 97.368451 292.738121 
L 97.887622 288.947208 
L 97.887622 288.947208 
L 98.579849 283.68205 
L 98.579849 283.68205 
L 99.099019 277.405182 
L 99.099019 277.405182 
L 99.61819 268.089186 
L 99.61819 268.089186 
L 100.483474 252.53631 
L 100.483474 252.53631 
L 101.175701 247.381787 
L 101.175701 247.381787 
L 101.348758 248.21888 
L 101.348758 248.21888 
L 101.521814 248.273531 
L 101.521814 248.273531 
L 101.694871 248.070923 
L 101.694871 248.070923 
L 101.867928 249.113291 
L 101.867928 249.113291 
L 102.040985 249.094629 
L 102.040985 249.094629 
L 102.214041 249.363886 
L 102.387098 248.750728 
L 102.387098 248.750728 
L 102.906269 244.206697 
L 102.906269 244.206697 
L 104.290723 216.277368 
L 104.290723 216.277368 
L 104.46378 216.81588 
L 104.46378 216.81588 
L 104.636837 214.664497 
L 104.636837 214.664497 
L 104.809893 216.446653 
L 104.809893 216.446653 
L 104.98295 216.077425 
L 104.98295 216.077425 
L 105.156007 214.4219 
L 105.156007 214.4219 
L 105.329064 220.606794 
L 105.329064 220.606794 
L 105.502121 220.901376 
L 105.675177 227.372855 
L 105.675177 227.372855 
L 105.848234 228.891086 
L 105.848234 228.891086 
L 106.194348 237.745882 
L 106.194348 237.745882 
L 106.540461 246.298098 
L 106.540461 246.298098 
L 106.713518 245.996851 
L 106.713518 245.996851 
L 106.886575 253.821275 
L 106.886575 253.821275 
L 107.059632 253.991893 
L 107.232689 260.516689 
L 107.405745 260.700637 
L 107.405745 260.700637 
L 107.578802 265.995119 
L 107.578802 265.995119 
L 107.751859 266.143077 
L 107.751859 266.143077 
L 107.924916 269.624746 
L 107.924916 269.624746 
L 108.097972 269.087566 
L 108.097972 269.087566 
L 108.271029 269.808693 
L 108.271029 269.808693 
L 108.444086 267.298746 
L 108.444086 267.298746 
L 108.617143 260.965894 
L 108.617143 260.965894 
L 108.7902 259.650271 
L 108.7902 259.650271 
L 108.963256 249.911729 
L 108.963256 249.911729 
L 109.136313 248.946672 
L 109.136313 248.946672 
L 109.30937 239.598684 
L 109.30937 239.598684 
L 109.482427 240.270492 
L 109.482427 240.270492 
L 109.655484 234.097594 
L 109.655484 234.097594 
L 109.82854 236.756832 
L 109.82854 236.756832 
L 110.001597 234.409505 
L 110.001597 234.409505 
L 110.174654 238.638959 
L 110.174654 238.638959 
L 110.347711 239.778633 
L 110.347711 239.778633 
L 110.520768 238.834903 
L 110.520768 238.834903 
L 110.693824 249.818422 
L 110.693824 249.818422 
L 110.866881 252.187077 
L 110.866881 252.187077 
L 111.386052 280.039094 
L 111.386052 280.039094 
L 111.732165 291.970341 
L 111.732165 291.970341 
L 111.905222 295.488 
L 111.905222 295.488 
L 112.251336 259.459659 
L 112.251336 259.459659 
L 112.770506 221.454551 
L 112.770506 221.454551 
L 113.808847 142.285241 
L 113.808847 142.285241 
L 114.15496 123.4693 
L 114.15496 123.4693 
L 114.674131 114.830442 
L 114.674131 114.830442 
L 115.193301 132.620011 
L 115.193301 132.620011 
L 116.058585 203.355738 
L 116.058585 203.355738 
L 116.923869 247.628383 
L 116.923869 247.628383 
L 117.096926 251.287334 
L 117.096926 251.287334 
L 117.443039 261.760333 
L 117.443039 261.760333 
L 117.616096 263.938375 
L 117.616096 263.938375 
L 117.96221 274.000825 
L 117.96221 274.000825 
L 118.135267 275.9496 
L 118.135267 275.9496 
L 118.48138 286.375945 
L 118.48138 286.375945 
L 118.654437 288.271402 
L 118.654437 288.271402 
L 118.827494 294.541605 
L 118.827494 294.541605 
L 119.00055 291.573122 
L 119.00055 291.573122 
L 119.346664 280.311016 
L 119.346664 280.311016 
L 119.519721 276.886664 
L 119.519721 276.886664 
L 119.865834 264.534205 
L 119.865834 264.534205 
L 120.038891 260.260763 
L 120.038891 260.260763 
L 120.385005 245.127766 
L 120.385005 245.127766 
L 120.558062 239.132151 
L 120.558062 239.132151 
L 121.942516 161.93161 
L 121.942516 161.93161 
L 122.634743 129.013044 
L 122.634743 129.013044 
L 123.153914 116.095413 
L 123.153914 116.095413 
L 123.32697 115.57023 
L 123.32697 115.57023 
L 123.673084 111.849963 
L 123.673084 111.849963 
L 123.846141 115.23566 
L 123.846141 115.23566 
L 124.019198 115.450265 
L 124.019198 115.450265 
L 124.365311 120.53814 
L 124.365311 120.53814 
L 124.538368 121.101978 
L 124.538368 121.101978 
L 124.884481 130.591259 
L 124.884481 130.591259 
L 125.057538 133.17985 
L 125.057538 133.17985 
L 126.268936 217.082471 
L 126.268936 217.082471 
L 126.961163 283.087554 
L 126.961163 283.087554 
L 127.13422 295.261398 
L 127.13422 295.261398 
L 127.65339 257.474894 
L 127.65339 257.474894 
L 128.172561 238.388365 
L 128.172561 238.388365 
L 128.345617 237.232696 
L 128.345617 237.232696 
L 128.518674 232.929929 
L 128.518674 232.929929 
L 128.691731 233.447114 
L 128.691731 233.447114 
L 128.864788 236.424927 
L 128.864788 236.424927 
L 129.037845 232.765976 
L 129.037845 232.765976 
L 129.210901 235.861089 
L 129.210901 235.861089 
L 129.383958 233.930975 
L 129.383958 233.930975 
L 129.557015 236.760831 
L 129.557015 236.760831 
L 129.730072 235.970391 
L 129.730072 235.970391 
L 129.903129 237.937827 
L 129.903129 237.937827 
L 130.076185 241.582116 
L 130.076185 241.582116 
L 130.249242 239.146814 
L 130.249242 239.146814 
L 130.422299 242.009993 
L 130.422299 242.009993 
L 130.595356 240.797008 
L 130.768412 243.172327 
L 130.768412 243.172327 
L 130.941469 247.635048 
L 130.941469 247.635048 
L 131.114526 246.239448 
L 131.114526 246.239448 
L 131.287583 250.884783 
L 131.287583 250.884783 
L 131.46064 251.380641 
L 131.46064 251.380641 
L 132.152867 270.019299 
L 132.152867 270.019299 
L 132.325924 271.574853 
L 132.325924 271.574853 
L 132.672037 280.287023 
L 132.672037 280.287023 
L 133.191208 292.762115 
L 133.191208 292.762115 
L 133.364264 293.303293 
L 133.364264 293.303293 
L 133.537321 292.378225 
L 133.537321 292.378225 
L 133.883435 285.206947 
L 133.883435 285.206947 
L 134.056492 286.299967 
L 134.056492 286.299967 
L 134.229548 283.396799 
L 134.229548 283.396799 
L 134.402605 283.792685 
L 134.402605 283.792685 
L 134.748719 280.760221 
L 134.748719 280.760221 
L 134.921776 283.7407 
L 134.921776 283.7407 
L 135.094832 283.163532 
L 135.094832 283.163532 
L 135.267889 281.562658 
L 135.267889 281.562658 
L 135.440946 286.231986 
L 135.440946 286.231986 
L 135.614003 286.184 
L 135.614003 286.184 
L 135.960116 295.488 
L 135.960116 295.488 
L 136.133173 292.366228 
L 136.133173 292.366228 
L 136.30623 292.564838 
L 136.30623 292.564838 
L 136.479287 291.009284 
L 136.479287 291.009284 
L 136.8254 283.478109 
L 136.8254 283.478109 
L 136.998457 282.457068 
L 136.998457 282.457068 
L 137.171514 276.878667 
L 137.171514 276.878667 
L 137.344571 275.279125 
L 137.344571 275.279125 
L 137.517627 275.007203 
L 137.517627 275.007203 
L 137.690684 269.344826 
L 137.690684 269.344826 
L 137.863741 268.771657 
L 137.863741 268.771657 
L 138.036798 264.93409 
L 138.036798 264.93409 
L 138.209855 264.155646 
L 138.209855 264.155646 
L 138.382911 264.73548 
L 138.382911 264.73548 
L 138.555968 261.297799 
L 138.555968 261.297799 
L 138.729025 261.747003 
L 138.729025 261.747003 
L 138.902082 263.503833 
L 138.902082 263.503833 
L 139.075139 260.594 
L 139.075139 260.594 
L 139.248195 262.214869 
L 139.421252 261.193829 
L 139.421252 261.193829 
L 139.594309 262.196208 
L 139.594309 262.196208 
L 139.767366 264.019685 
L 139.767366 264.019685 
L 139.940423 262.485458 
L 139.940423 262.485458 
L 140.113479 263.185258 
L 140.113479 263.185258 
L 140.286536 264.375583 
L 140.286536 264.375583 
L 140.459593 261.715013 
L 140.459593 261.715013 
L 140.805707 261.077862 
L 140.805707 261.077862 
L 141.15182 254.851646 
L 141.15182 254.851646 
L 141.324877 253.396063 
L 141.324877 253.396063 
L 141.670991 245.967526 
L 141.670991 245.967526 
L 141.844047 244.078734 
L 141.844047 244.078734 
L 142.190161 235.825099 
L 142.190161 235.825099 
L 142.363218 233.325815 
L 142.363218 233.325815 
L 142.709331 224.335059 
L 142.709331 224.335059 
L 142.882388 221.186628 
L 142.882388 221.186628 
L 143.401558 207.056011 
L 143.401558 207.056011 
L 143.574615 203.303753 
L 143.574615 203.303753 
L 143.920729 192.312236 
L 143.920729 192.312236 
L 144.093786 188.905213 
L 144.093786 188.905213 
L 144.439899 179.557225 
L 144.439899 179.557225 
L 146.516581 144.144708 
L 146.516581 144.144708 
L 147.035751 140.617719 
L 147.035751 140.617719 
L 147.208808 140.641712 
L 147.208808 140.641712 
L 147.381865 141.161563 
L 147.381865 141.161563 
L 147.554921 142.169274 
L 147.554921 142.169274 
L 147.727978 142.511842 
L 147.727978 142.511842 
L 148.074092 145.918866 
L 148.074092 145.918866 
L 148.939376 157.822121 
L 148.939376 157.822121 
L 150.150773 180.583598 
L 150.150773 180.583598 
L 151.016057 202.863879 
L 151.016057 202.863879 
L 151.881341 231.72894 
L 151.881341 231.72894 
L 152.746625 259.30637 
L 152.746625 259.30637 
L 153.438852 275.952266 
L 153.438852 275.952266 
L 154.304136 288.480675 
L 154.304136 288.480675 
L 154.65025 291.571789 
L 154.65025 291.571789 
L 154.823307 295.488 
L 154.823307 295.488 
L 154.996364 295.338709 
L 154.996364 295.338709 
L 155.688591 290.010903 
L 155.688591 290.010903 
L 156.034704 288.807248 
L 156.034704 288.807248 
L 156.380818 289.805629 
L 156.380818 289.805629 
L 156.553875 295.488 
L 156.553875 295.488 
L 156.726932 290.966629 
L 156.726932 290.966629 
L 156.899988 291.579787 
L 156.899988 291.579787 
L 157.073045 292.75545 
L 157.073045 292.75545 
L 157.246102 293.011376 
L 157.246102 293.011376 
L 157.419159 292.950061 
L 157.419159 292.950061 
L 157.765272 292.510187 
L 157.765272 292.510187 
L 158.111386 290.238838 
L 158.111386 290.238838 
L 158.284443 288.633964 
L 158.284443 288.633964 
L 158.4575 295.488 
L 158.4575 295.488 
L 158.630556 284.180574 
L 158.630556 284.180574 
L 159.149727 274.959217 
L 159.149727 274.959217 
L 159.841954 259.820889 
L 159.841954 259.820889 
L 160.361124 248.206884 
L 160.361124 248.206884 
L 160.707238 243.316286 
L 160.707238 243.316286 
L 160.880295 239.958581 
L 160.880295 239.958581 
L 161.053351 240.210509 
L 161.053351 240.210509 
L 161.226408 237.919166 
L 161.226408 237.919166 
L 161.399465 238.858896 
L 161.399465 238.858896 
L 161.572522 237.344664 
L 161.572522 237.344664 
L 161.745579 238.58031 
L 161.745579 238.58031 
L 161.918635 237.485956 
L 161.918635 237.485956 
L 162.091692 238.433685 
L 162.091692 238.433685 
L 162.264749 237.539275 
L 162.264749 237.539275 
L 162.437806 234.804058 
L 162.437806 234.804058 
L 162.610863 237.968485 
L 162.610863 237.968485 
L 162.783919 235.230603 
L 162.783919 235.230603 
L 162.956976 237.497953 
L 162.956976 237.497953 
L 163.130033 233.703041 
L 163.130033 233.703041 
L 163.30309 235.018664 
L 163.30309 235.018664 
L 163.476147 230.282688 
L 163.476147 230.282688 
L 163.649203 230.056086 
L 163.649203 230.056086 
L 163.82226 223.239373 
L 163.82226 223.239373 
L 163.995317 221.206622 
L 163.995317 221.206622 
L 164.168374 212.075906 
L 164.168374 212.075906 
L 164.341431 208.810175 
L 164.341431 208.810175 
L 164.687544 193.281292 
L 164.687544 193.281292 
L 165.206714 165.883811 
L 165.206714 165.883811 
L 165.725885 131.890886 
L 165.725885 131.890886 
L 165.898942 124.979534 
L 165.898942 124.979534 
L 166.245055 107.529868 
L 166.245055 107.529868 
L 166.418112 95.81056 
L 166.418112 95.81056 
L 166.591169 92.980704 
L 166.591169 92.980704 
L 166.764226 82.107821 
L 166.764226 82.107821 
L 166.937282 80.98281 
L 166.937282 80.98281 
L 167.110339 71.011001 
L 167.110339 71.011001 
L 167.283396 71.308249 
L 167.283396 71.308249 
L 167.456453 62.249512 
L 167.456453 62.249512 
L 167.62951 64.435552 
L 167.62951 64.435552 
L 167.802566 57.178965 
L 167.802566 57.178965 
L 167.975623 61.340439 
L 167.975623 61.340439 
L 168.14868 54.943606 
L 168.14868 54.943606 
L 168.321737 59.928844 
L 168.321737 59.928844 
L 168.494794 53.568 
L 168.494794 53.568 
L 168.66785 59.54762 
L 168.66785 59.54762 
L 168.840907 54.015872 
L 168.840907 54.015872 
L 169.013964 60.739278 
L 169.013964 60.739278 
L 169.187021 55.159544 
L 169.187021 55.159544 
L 169.360078 62.306829 
L 169.360078 62.306829 
L 169.533134 56.193914 
L 169.533134 56.193914 
L 169.879248 67.524 
L 169.879248 67.524 
L 170.052305 66.275025 
L 170.052305 66.275025 
L 170.225362 70.391179 
L 170.225362 70.391179 
L 170.398418 69.812678 
L 170.398418 69.812678 
L 170.571475 75.239122 
L 170.571475 75.239122 
L 170.744532 75.567028 
L 170.744532 75.567028 
L 170.917589 82.426396 
L 171.090645 83.849988 
L 171.090645 83.849988 
L 171.263702 91.966329 
L 171.263702 91.966329 
L 171.436759 94.306991 
L 171.436759 94.306991 
L 171.609816 102.952513 
L 171.609816 102.952513 
L 171.782873 105.27718 
L 171.782873 105.27718 
L 171.955929 114.579848 
L 171.955929 114.579848 
L 172.128986 117.566991 
L 172.128986 117.566991 
L 172.302043 127.440162 
L 172.302043 127.440162 
L 172.4751 130.561934 
L 172.4751 130.561934 
L 172.648157 140.913634 
L 172.648157 140.913634 
L 172.821213 143.492895 
L 172.821213 143.492895 
L 172.99427 153.023496 
L 172.99427 153.023496 
L 173.167327 153.981888 
L 173.167327 153.981888 
L 173.340384 162.775368 
L 173.340384 162.775368 
L 173.513441 162.483452 
L 173.513441 162.483452 
L 173.686497 170.189243 
L 173.859554 168.092511 
L 173.859554 168.092511 
L 174.205668 177.928359 
L 174.205668 177.928359 
L 174.378725 177.444497 
L 174.378725 177.444497 
L 174.551781 180.081075 
L 174.551781 180.081075 
L 174.724838 179.026711 
L 174.724838 179.026711 
L 174.897895 181.78592 
L 174.897895 181.78592 
L 175.070952 180.872848 
L 175.244009 184.061268 
L 175.244009 184.061268 
L 175.417065 183.681377 
L 175.417065 183.681377 
L 175.590122 187.590923 
L 175.590122 187.590923 
L 175.763179 188.101443 
L 175.763179 188.101443 
L 175.936236 192.889404 
L 175.936236 192.889404 
L 176.109292 194.506274 
L 176.109292 194.506274 
L 176.628463 209.115421 
L 176.628463 209.115421 
L 176.80152 212.615751 
L 176.80152 212.615751 
L 177.147633 223.036764 
L 177.147633 223.036764 
L 177.32069 224.885568 
L 177.32069 224.885568 
L 177.493747 233.65772 
L 177.493747 233.65772 
L 177.666804 236.155671 
L 177.666804 236.155671 
L 177.83986 244.622578 
L 177.83986 244.622578 
L 178.012917 247.631049 
L 178.012917 247.631049 
L 178.359031 258.726536 
L 178.359031 258.726536 
L 178.705144 268.81831 
L 178.705144 268.81831 
L 179.051258 277.871715 
L 179.051258 277.871715 
L 179.224315 282.879614 
L 179.224315 282.879614 
L 179.397372 295.488 
L 179.397372 295.488 
L 179.570428 287.047752 
L 179.570428 287.047752 
L 179.743485 291.87037 
L 179.743485 291.87037 
L 179.916542 292.562172 
L 179.916542 292.562172 
L 180.089599 294.812194 
L 180.089599 294.812194 
L 180.262656 294.361656 
L 180.262656 294.361656 
L 180.435712 291.979672 
L 180.435712 291.979672 
L 180.608769 295.488 
L 180.608769 295.488 
L 180.954883 290.12687 
L 180.954883 290.12687 
L 181.12794 291.318528 
L 181.12794 291.318528 
L 181.300996 289.296441 
L 181.300996 289.296441 
L 181.474053 295.488 
L 181.474053 295.488 
L 181.820167 288.845904 
L 181.820167 288.845904 
L 181.993223 289.756309 
L 181.993223 289.756309 
L 182.16628 286.751837 
L 182.16628 286.751837 
L 182.339337 295.488 
L 182.339337 295.488 
L 182.685451 282.12383 
L 182.685451 282.12383 
L 182.858507 281.154775 
L 182.858507 281.154775 
L 183.204621 274.062141 
L 183.204621 274.062141 
L 183.377678 272.185345 
L 183.377678 272.185345 
L 183.723791 262.721391 
L 183.723791 262.721391 
L 183.896848 259.854213 
L 183.896848 259.854213 
L 184.242962 247.623051 
L 184.242962 247.623051 
L 184.416019 243.063025 
L 184.416019 243.063025 
L 185.108246 212.286512 
L 185.108246 212.286512 
L 186.4927 156.095949 
L 186.4927 156.095949 
L 186.838814 149.112617 
L 186.838814 149.112617 
L 187.184927 146.775954 
L 187.184927 146.775954 
L 187.357984 147.241154 
L 187.357984 147.241154 
L 187.877154 159.672258 
L 187.877154 159.672258 
L 188.569382 192.760108 
L 188.569382 192.760108 
L 189.607722 256.03664 
L 189.607722 256.03664 
L 190.126893 279.21533 
L 190.126893 279.21533 
L 190.646063 295.488 
L 190.646063 295.488 
L 190.81912 292.658144 
L 190.81912 292.658144 
L 190.992177 292.938064 
L 190.992177 292.938064 
L 191.165234 292.584832 
L 191.165234 292.584832 
L 191.511347 288.10345 
L 191.511347 288.10345 
L 192.030518 274.989875 
L 192.030518 274.989875 
L 192.722745 248.969332 
L 192.722745 248.969332 
L 194.453313 157.810125 
L 194.453313 157.810125 
L 194.626369 152.567627 
L 194.626369 152.567627 
L 194.799426 143.154325 
L 194.799426 143.154325 
L 194.972483 141.190888 
L 194.972483 141.190888 
L 195.14554 131.944204 
L 195.14554 131.944204 
L 195.318597 132.687991 
L 195.318597 132.687991 
L 195.491653 124.146439 
L 195.491653 124.146439 
L 195.837767 133.609061 
L 195.837767 133.609061 
L 196.010824 134.415496 
L 196.010824 134.415496 
L 196.876108 187.81086 
L 196.876108 187.81086 
L 197.395278 225.885281 
L 197.395278 225.885281 
L 197.568335 227.546139 
L 197.568335 227.546139 
L 197.741392 239.094829 
L 197.741392 239.094829 
L 197.914449 232.759311 
L 197.914449 232.759311 
L 198.087505 240.115869 
L 198.087505 240.115869 
L 198.260562 240.18385 
L 198.260562 240.18385 
L 198.433619 228.36857 
L 198.433619 228.36857 
L 198.606676 224.909561 
L 198.606676 224.909561 
L 198.779733 206.713442 
L 198.779733 206.713442 
L 198.952789 202.451997 
L 198.952789 202.451997 
L 199.125846 193.771818 
L 199.125846 193.771818 
L 199.47196 173.729562 
L 199.47196 173.729562 
L 199.645016 159.552292 
L 199.645016 159.552292 
L 199.818073 159.343019 
L 199.818073 159.343019 
L 199.99113 149.272571 
L 199.99113 149.272571 
L 200.856414 183.030896 
L 200.856414 183.030896 
L 201.029471 197.690695 
L 201.029471 197.690695 
L 201.202528 201.682884 
L 201.202528 201.682884 
L 201.548641 227.240893 
L 201.548641 227.240893 
L 201.721698 228.625829 
L 201.721698 228.625829 
L 201.894755 237.074075 
L 201.894755 237.074075 
L 202.067812 231.56632 
L 202.067812 231.56632 
L 202.240868 237.827192 
L 202.240868 237.827192 
L 202.413925 239.034846 
L 202.413925 239.034846 
L 202.586982 231.319724 
L 202.586982 231.319724 
L 202.760039 231.126446 
L 202.760039 231.126446 
L 202.933096 219.380479 
L 202.933096 219.380479 
L 203.106152 220.481497 
L 203.106152 220.481497 
L 203.279209 206.914718 
L 203.279209 206.914718 
L 203.452266 209.481982 
L 203.452266 209.481982 
L 203.625323 209.031445 
L 203.625323 209.031445 
L 203.79838 200.635184 
L 203.79838 200.635184 
L 203.971436 203.655652 
L 203.971436 203.655652 
L 204.144493 196.133808 
L 204.144493 196.133808 
L 204.490607 206.218918 
L 204.490607 206.218918 
L 204.663664 204.438095 
L 204.663664 204.438095 
L 204.83672 209.753904 
L 204.83672 209.753904 
L 205.009777 207.541205 
L 205.009777 207.541205 
L 205.182834 214.616511 
L 205.182834 214.616511 
L 205.355891 212.102565 
L 205.355891 212.102565 
L 205.528947 219.617744 
L 205.702004 216.798552 
L 205.702004 216.798552 
L 206.048118 228.977728 
L 206.048118 228.977728 
L 206.221175 229.756172 
L 206.221175 229.756172 
L 206.394231 235.218606 
L 206.394231 235.218606 
L 206.567288 236.876798 
L 206.567288 236.876798 
L 207.086459 252.252391 
L 207.086459 252.252391 
L 208.64397 289.155148 
L 208.64397 289.155148 
L 208.990083 293.284631 
L 208.990083 293.284631 
L 209.16314 295.213412 
L 209.16314 295.213412 
L 209.336197 295.293389 
L 209.336197 295.293389 
L 209.509254 294.060409 
L 209.509254 294.060409 
L 209.682311 293.917783 
L 209.682311 293.917783 
L 209.855367 292.996714 
L 209.855367 292.996714 
L 210.028424 292.939397 
L 210.028424 292.939397 
L 210.201481 292.13696 
L 210.201481 292.13696 
L 210.374538 295.488 
L 210.374538 295.488 
L 210.720651 290.110874 
L 210.720651 290.110874 
L 210.893708 289.340429 
L 210.893708 289.340429 
L 211.066765 287.330338 
L 211.066765 287.330338 
L 211.239822 295.488 
L 211.239822 295.488 
L 211.412878 283.96197 
L 211.412878 283.96197 
L 211.758992 278.922081 
L 211.758992 278.922081 
L 213.662617 258.454614 
L 213.662617 258.454614 
L 215.566242 226.01591 
L 215.566242 226.01591 
L 216.085412 222.4476 
L 216.085412 222.4476 
L 216.258469 222.137022 
L 216.258469 222.137022 
L 216.431525 222.202337 
L 216.431525 222.202337 
L 216.604582 222.591559 
L 216.604582 222.591559 
L 216.777639 223.255368 
L 216.777639 223.255368 
L 216.950696 223.030099 
L 216.950696 223.030099 
L 217.642923 225.408085 
L 217.642923 225.408085 
L 218.162093 226.763696 
L 218.162093 226.763696 
L 218.33515 227.016957 
L 218.33515 227.016957 
L 218.508207 225.967924 
L 218.508207 225.967924 
L 218.681264 225.806637 
L 218.681264 225.806637 
L 218.854321 225.861288 
L 218.854321 225.861288 
L 219.027377 226.20519 
L 219.027377 226.20519 
L 219.200434 226.931648 
L 219.200434 226.931648 
L 219.373491 226.319823 
L 219.373491 226.319823 
L 219.719605 227.819394 
L 219.719605 227.819394 
L 219.892661 229.200331 
L 219.892661 229.200331 
L 220.065718 229.664198 
L 220.065718 229.664198 
L 220.411832 233.740363 
L 220.411832 233.740363 
L 221.104059 246.973904 
L 221.104059 246.973904 
L 221.796286 265.473935 
L 221.796286 265.473935 
L 223.007684 288.282065 
L 223.007684 288.282065 
L 223.353797 292.659477 
L 223.353797 292.659477 
L 223.526854 292.899409 
L 223.526854 292.899409 
L 223.699911 295.488 
L 223.699911 295.488 
L 223.872968 294.981479 
L 223.872968 294.981479 
L 224.046024 295.042794 
L 224.046024 295.042794 
L 224.565195 288.427357 
L 224.565195 288.427357 
L 225.430479 262.709394 
L 225.430479 262.709394 
L 225.949649 242.516515 
L 225.949649 242.516515 
L 226.122706 239.537369 
L 226.122706 239.537369 
L 226.295763 233.255169 
L 226.295763 233.255169 
L 226.46882 231.622304 
L 226.46882 231.622304 
L 226.641876 227.112929 
L 226.641876 227.112929 
L 226.814933 226.533096 
L 226.814933 226.533096 
L 227.161047 219.315164 
L 227.161047 219.315164 
L 227.334104 223.291358 
L 227.334104 223.291358 
L 227.50716 219.876337 
L 227.50716 219.876337 
L 227.680217 223.565946 
L 227.680217 223.565946 
L 227.853274 220.496159 
L 227.853274 220.496159 
L 228.026331 223.779218 
L 228.026331 223.779218 
L 228.199387 220.826731 
L 228.199387 220.826731 
L 228.372444 223.246038 
L 228.372444 223.246038 
L 228.545501 220.524151 
L 228.545501 220.524151 
L 228.718558 222.254322 
L 228.718558 222.254322 
L 228.891615 219.744374 
L 228.891615 219.744374 
L 229.064671 221.251942 
L 229.064671 221.251942 
L 229.237728 219.604415 
L 229.410785 215.413616 
L 229.410785 215.413616 
L 229.583842 220.801405 
L 229.583842 220.801405 
L 229.756899 217.971549 
L 229.756899 217.971549 
L 229.929955 223.548618 
L 229.929955 223.548618 
L 230.103012 221.462549 
L 230.103012 221.462549 
L 230.276069 226.490441 
L 230.276069 226.490441 
L 230.449126 224.7736 
L 230.449126 224.7736 
L 230.622183 228.936407 
L 230.622183 228.936407 
L 230.795239 227.315538 
L 230.795239 227.315538 
L 230.968296 230.799873 
L 230.968296 230.799873 
L 231.141353 229.282974 
L 231.141353 229.282974 
L 231.31441 232.476725 
L 231.31441 232.476725 
L 231.487467 232.048848 
L 231.487467 232.048848 
L 231.660523 229.036378 
L 231.660523 229.036378 
L 231.83358 237.459297 
L 231.83358 237.459297 
L 232.006637 236.716844 
L 232.006637 236.716844 
L 232.179694 244.726548 
L 232.179694 244.726548 
L 232.352751 244.965146 
L 232.352751 244.965146 
L 232.525807 252.136424 
L 232.525807 252.136424 
L 232.698864 252.933529 
L 232.698864 252.933529 
L 232.871921 259.346358 
L 233.044978 260.546014 
L 233.044978 260.546014 
L 233.218035 266.508305 
L 233.218035 266.508305 
L 233.391091 268.3891 
L 233.391091 268.3891 
L 233.737205 276.685389 
L 233.737205 276.685389 
L 233.910262 277.64778 
L 234.083318 285.64682 
L 234.083318 285.64682 
L 234.256375 287.871516 
L 234.256375 287.871516 
L 234.429432 295.061456 
L 234.429432 295.061456 
L 234.602489 291.175902 
L 234.602489 291.175902 
L 236.852227 185.802102 
L 236.852227 185.802102 
L 237.371398 176.21285 
L 237.371398 176.21285 
L 237.890568 189.686322 
L 237.890568 189.686322 
L 238.928909 269.880672 
L 238.928909 269.880672 
L 239.275022 294.245689 
L 239.275022 294.245689 
L 239.794193 264.815457 
L 239.794193 264.815457 
L 240.313363 248.530791 
L 240.313363 248.530791 
L 241.00559 238.878891 
L 241.00559 238.878891 
L 241.524761 233.809677 
L 241.524761 233.809677 
L 242.043931 223.615265 
L 242.043931 223.615265 
L 242.390045 215.734857 
L 242.390045 215.734857 
L 242.909215 205.95366 
L 242.909215 205.95366 
L 243.428385 199.128949 
L 243.428385 199.128949 
L 243.601442 198.445145 
L 243.601442 198.445145 
L 243.774499 198.646421 
L 243.774499 198.646421 
L 244.466726 204.050206 
L 244.466726 204.050206 
L 244.81284 208.867492 
L 244.81284 208.867492 
L 244.985896 209.258047 
L 245.85118 220.113602 
L 245.85118 220.113602 
L 246.197294 227.932694 
L 246.197294 227.932694 
L 247.581748 267.09747 
L 247.581748 267.09747 
L 247.927862 273.141071 
L 247.927862 273.141071 
L 248.273976 279.837819 
L 248.273976 279.837819 
L 248.447032 279.305971 
L 248.447032 279.305971 
L 248.793146 282.129162 
L 248.793146 282.129162 
L 248.966203 280.626926 
L 248.966203 280.626926 
L 249.13926 281.120118 
L 249.13926 281.120118 
L 249.312316 282.166485 
L 249.312316 282.166485 
L 249.485373 281.390707 
L 249.485373 281.390707 
L 249.65843 282.824963 
L 249.65843 282.824963 
L 250.004544 286.406603 
L 250.004544 286.406603 
L 250.1776 295.488 
L 250.1776 295.488 
L 250.350657 295.130769 
L 250.350657 295.130769 
L 250.523714 292.094306 
L 250.523714 292.094306 
L 250.696771 295.488 
L 250.696771 295.488 
L 250.869827 278.223615 
L 250.869827 278.223615 
L 251.215941 265.079382 
L 251.215941 265.079382 
L 251.908168 234.008287 
L 251.908168 234.008287 
L 252.081225 232.146154 
L 252.081225 232.146154 
L 252.254282 225.381426 
L 252.254282 225.381426 
L 252.427339 223.869859 
L 252.427339 223.869859 
L 252.773452 215.997448 
L 252.773452 215.997448 
L 252.946509 219.108557 
L 252.946509 219.108557 
L 253.292623 218.551383 
L 253.292623 218.551383 
L 253.638736 228.812442 
L 253.638736 228.812442 
L 253.811793 231.315725 
L 253.811793 231.315725 
L 254.330963 255.086246 
L 254.330963 255.086246 
L 255.369304 293.757829 
L 255.369304 293.757829 
L 256.061531 273.510299 
L 256.061531 273.510299 
L 256.234588 271.537531 
L 256.234588 271.537531 
L 256.407645 264.838117 
L 256.407645 264.838117 
L 256.580702 262.842689 
L 256.580702 262.842689 
L 256.926815 256.020645 
L 256.926815 256.020645 
L 257.099872 254.759673 
L 257.099872 254.759673 
L 257.445986 248.680082 
L 257.445986 248.680082 
L 257.619042 247.501753 
L 257.619042 247.501753 
L 257.965156 241.07826 
L 257.965156 241.07826 
L 258.138213 239.496047 
L 258.484326 232.03152 
L 258.484326 232.03152 
L 258.657383 229.740176 
L 258.657383 229.740176 
L 259.003497 220.925369 
L 259.003497 220.925369 
L 259.176554 217.792934 
L 259.176554 217.792934 
L 259.522667 207.639844 
L 259.522667 207.639844 
L 259.868781 197.302806 
L 259.868781 197.302806 
L 260.907122 165.446603 
L 260.907122 165.446603 
L 261.426292 147.742343 
L 261.426292 147.742343 
L 262.464633 119.5131 
L 262.464633 119.5131 
L 262.810746 115.386283 
L 262.810746 115.386283 
L 263.15686 113.52415 
L 263.15686 113.52415 
L 263.329917 113.858721 
L 263.329917 113.858721 
L 263.67603 116.741895 
L 263.67603 116.741895 
L 264.195201 125.527377 
L 264.195201 125.527377 
L 264.714371 140.724355 
L 264.714371 140.724355 
L 265.406598 168.711 
L 265.406598 168.711 
L 266.964109 234.722748 
L 266.964109 234.722748 
L 268.175507 278.064993 
L 268.175507 278.064993 
L 268.694677 290.014902 
L 268.694677 290.014902 
L 269.040791 294.681564 
L 269.040791 294.681564 
L 269.213848 294.690895 
L 269.213848 294.690895 
L 269.559961 292.715461 
L 269.559961 292.715461 
L 269.733018 292.148957 
L 269.733018 292.148957 
L 269.906075 292.176949 
L 269.906075 292.176949 
L 270.252188 291.645101 
L 270.252188 291.645101 
L 270.598302 290.681378 
L 270.598302 290.681378 
L 270.771359 290.692041 
L 270.771359 290.692041 
L 270.944416 290.557413 
L 270.944416 290.557413 
L 271.117472 290.6014 
L 271.117472 290.6014 
L 271.290529 290.923975 
L 271.290529 290.923975 
L 271.463586 291.63977 
L 271.463586 291.63977 
L 271.982756 295.314716 
L 271.982756 295.314716 
L 273.021097 286.557226 
L 273.021097 286.557226 
L 273.540267 284.337862 
L 273.540267 284.337862 
L 274.405551 281.611977 
L 274.405551 281.611977 
L 275.097779 277.261224 
L 275.097779 277.261224 
L 275.616949 273.511632 
L 275.616949 273.511632 
L 275.790006 272.849155 
L 275.790006 272.849155 
L 276.309176 273.783554 
L 276.309176 273.783554 
L 276.65529 275.732329 
L 276.65529 275.732329 
L 278.212801 295.482668 
L 278.212801 295.482668 
L 278.905028 287.503622 
L 278.905028 287.503622 
L 279.943369 275.303118 
L 279.943369 275.303118 
L 280.289482 273.980831 
L 280.289482 273.980831 
L 280.462539 274.138119 
L 280.462539 274.138119 
L 280.635596 274.707289 
L 280.635596 274.707289 
L 280.98171 277.159919 
L 280.98171 277.159919 
L 282.539221 292.334237 
L 282.539221 292.334237 
L 283.231448 295.405357 
L 283.231448 295.405357 
L 283.577562 293.56855 
L 283.577562 293.56855 
L 283.750618 292.402218 
L 283.750618 292.402218 
L 283.923675 295.488 
L 283.923675 295.488 
L 284.096732 289.19647 
L 284.096732 289.19647 
L 284.615902 282.257125 
L 284.615902 282.257125 
L 285.308129 269.30617 
L 285.308129 269.30617 
L 285.8273 252.068444 
L 285.8273 252.068444 
L 286.692584 211.584047 
L 286.692584 211.584047 
L 286.865641 198.261198 
L 286.865641 198.261198 
L 287.211754 188.376031 
L 287.211754 188.376031 
L 287.384811 178.652151 
L 287.384811 178.652151 
L 287.557868 177.68043 
L 287.557868 177.68043 
L 287.730925 165.208004 
L 287.730925 165.208004 
L 287.903981 168.153827 
L 287.903981 168.153827 
L 288.077038 167.591321 
L 288.077038 167.591321 
L 288.250095 159.460318 
L 288.250095 159.460318 
L 288.423152 162.35149 
L 288.423152 162.35149 
L 288.596209 151.802513 
L 288.769265 158.38596 
L 288.769265 158.38596 
L 288.942322 145.665605 
L 288.942322 145.665605 
L 289.288436 158.785845 
L 289.288436 158.785845 
L 289.461493 148.380827 
L 289.461493 148.380827 
L 289.634549 153.103474 
L 289.634549 153.103474 
L 289.807606 138.301049 
L 289.807606 138.301049 
L 289.980663 144.80985 
L 289.980663 144.80985 
L 290.15372 146.560016 
L 290.15372 146.560016 
L 290.326777 134.127579 
L 290.326777 134.127579 
L 290.499833 138.070449 
L 290.499833 138.070449 
L 290.67289 138.218406 
L 290.67289 138.218406 
L 290.845947 130.97115 
L 291.019004 134.443488 
L 291.019004 134.443488 
L 291.19206 126.329813 
L 291.19206 126.329813 
L 291.538174 134.712744 
L 291.538174 134.712744 
L 291.711231 130.565933 
L 291.711231 130.565933 
L 291.884288 134.570118 
L 291.884288 134.570118 
L 292.057344 127.637439 
L 292.057344 127.637439 
L 292.403458 135.665804 
L 292.403458 135.665804 
L 292.576515 128.193279 
L 292.576515 128.193279 
L 292.749572 132.481384 
L 292.749572 132.481384 
L 292.922628 120.630114 
L 292.922628 120.630114 
L 293.268742 131.47234 
L 293.268742 131.47234 
L 293.441799 122.433597 
L 293.441799 122.433597 
L 293.614856 127.754738 
L 293.614856 127.754738 
L 293.787912 115.328966 
L 293.787912 115.328966 
L 294.134026 128.08531 
L 294.134026 128.08531 
L 294.307083 119.975634 
L 294.307083 119.975634 
L 294.48014 127.217559 
L 294.48014 127.217559 
L 294.653196 116.461975 
L 294.653196 116.461975 
L 294.99931 135.125959 
L 294.99931 135.125959 
L 295.172367 131.568312 
L 295.345424 142.543833 
L 295.345424 142.543833 
L 295.51848 140.221832 
L 295.51848 140.221832 
L 295.864594 164.906757 
L 295.864594 164.906757 
L 296.037651 170.121263 
L 296.037651 170.121263 
L 296.729878 215.104371 
L 296.729878 215.104371 
L 297.595162 253.942573 
L 297.595162 253.942573 
L 298.287389 269.303504 
L 298.287389 269.303504 
L 298.460446 269.483453 
L 298.460446 269.483453 
L 298.806559 273.875527 
L 298.806559 273.875527 
L 298.979616 273.754229 
L 298.979616 273.754229 
L 299.152673 274.840584 
L 299.152673 274.840584 
L 299.32573 273.49297 
L 299.32573 273.49297 
L 299.498787 274.147449 
L 299.498787 274.147449 
L 299.671843 271.933417 
L 299.671843 271.933417 
L 299.8449 272.046718 
L 299.8449 272.046718 
L 300.017957 269.087566 
L 300.017957 269.087566 
L 300.191014 269.07557 
L 300.191014 269.07557 
L 300.364071 265.509925 
L 300.364071 265.509925 
L 300.537127 265.146029 
L 300.537127 265.146029 
L 300.710184 261.476414 
L 300.710184 261.476414 
L 300.883241 261.585716 
L 300.883241 261.585716 
L 301.056298 258.291994 
L 301.056298 258.291994 
L 301.229355 259.1984 
L 301.229355 259.1984 
L 301.402411 256.747103 
L 301.402411 256.747103 
L 301.575468 258.627897 
L 301.575468 258.627897 
L 301.748525 256.269906 
L 301.748525 256.269906 
L 301.921582 258.237343 
L 301.921582 258.237343 
L 302.094638 256.248579 
L 302.094638 256.248579 
L 302.267695 258.224013 
L 302.267695 258.224013 
L 302.440752 256.359214 
L 302.440752 256.359214 
L 302.613809 258.229345 
L 302.613809 258.229345 
L 302.786866 256.672458 
L 302.786866 256.672458 
L 302.959922 258.47994 
L 302.959922 258.47994 
L 303.132979 257.682835 
L 303.306036 254.782333 
L 303.306036 254.782333 
L 303.479093 260.378062 
L 303.479093 260.378062 
L 303.65215 259.30637 
L 303.65215 259.30637 
L 303.825206 265.904479 
L 303.998263 267.54001 
L 303.998263 267.54001 
L 304.344377 280.873522 
L 304.344377 280.873522 
L 304.69049 291.157241 
L 304.69049 291.157241 
L 305.036604 267.200107 
L 305.036604 267.200107 
L 306.421058 172.211331 
L 306.421058 172.211331 
L 306.767172 161.717005 
L 306.767172 161.717005 
L 306.940229 158.138031 
L 306.940229 158.138031 
L 307.113286 157.998071 
L 307.113286 157.998071 
L 307.286342 157.459558 
L 307.286342 157.459558 
L 307.459399 155.616087 
L 307.459399 155.616087 
L 307.632456 160.681302 
L 307.632456 160.681302 
L 307.805513 159.329689 
L 307.805513 159.329689 
L 307.978569 164.920087 
L 307.978569 164.920087 
L 308.151626 163.079281 
L 308.151626 163.079281 
L 308.324683 167.697957 
L 308.324683 167.697957 
L 308.49774 164.294933 
L 308.49774 164.294933 
L 308.670797 167.479353 
L 308.670797 167.479353 
L 308.843853 162.312834 
L 308.843853 162.312834 
L 309.01691 163.969693 
L 309.01691 163.969693 
L 309.189967 156.825074 
L 309.189967 156.825074 
L 309.363024 157.607516 
L 309.536081 150.028355 
L 309.536081 150.028355 
L 309.709137 151.318652 
L 309.709137 151.318652 
L 309.882194 143.56754 
L 310.055251 145.890874 
L 310.055251 145.890874 
L 310.228308 139.219453 
L 310.228308 139.219453 
L 310.574421 146.162796 
L 310.574421 146.162796 
L 310.747478 145.61362 
L 310.747478 145.61362 
L 310.920535 149.97637 
L 310.920535 149.97637 
L 311.093592 150.172314 
L 311.093592 150.172314 
L 311.266649 155.646745 
L 311.266649 155.646745 
L 311.439705 155.908003 
L 311.439705 155.908003 
L 311.612762 160.703962 
L 311.612762 160.703962 
L 311.785819 159.336354 
L 311.785819 159.336354 
L 311.958876 162.999304 
L 311.958876 162.999304 
L 312.131933 159.8722 
L 312.131933 159.8722 
L 312.478046 165.4546 
L 312.478046 165.4546 
L 312.651103 164.162971 
L 312.651103 164.162971 
L 312.82416 167.338061 
L 312.82416 167.338061 
L 312.997217 165.289314 
L 312.997217 165.289314 
L 313.170273 170.98235 
L 313.170273 170.98235 
L 313.34333 169.034908 
L 313.34333 169.034908 
L 313.516387 176.544755 
L 313.516387 176.544755 
L 313.689444 172.22466 
L 313.689444 172.22466 
L 313.8625 179.554559 
L 314.035557 172.284643 
L 314.035557 172.284643 
L 314.208614 179.517237 
L 314.208614 179.517237 
L 314.381671 181.819244 
L 314.381671 181.819244 
L 314.554728 175.493057 
L 314.554728 175.493057 
L 314.727784 176.738033 
L 314.727784 176.738033 
L 314.900841 167.16611 
L 314.900841 167.16611 
L 315.073898 168.869622 
L 315.073898 168.869622 
L 315.246955 158.505925 
L 315.246955 158.505925 
L 315.420012 164.118983 
L 315.420012 164.118983 
L 315.593068 156.87306 
L 315.593068 156.87306 
L 316.458352 214.975075 
L 316.458352 214.975075 
L 316.977523 274.247421 
L 316.977523 274.247421 
L 317.15058 293.67252 
L 317.15058 293.67252 
L 317.323636 287.548942 
L 317.323636 287.548942 
L 317.496693 271.985402 
L 317.496693 271.985402 
L 317.66975 270.549814 
L 317.66975 270.549814 
L 317.842807 261.216489 
L 317.842807 261.216489 
L 318.015864 268.868962 
L 318.015864 268.868962 
L 318.18892 265.400623 
L 318.18892 265.400623 
L 318.361977 268.547721 
L 318.361977 268.547721 
L 318.708091 287.562271 
L 318.708091 287.562271 
L 318.881148 286.867804 
L 318.881148 286.867804 
L 319.054204 280.488299 
L 319.054204 280.488299 
L 319.227261 264.10766 
L 319.227261 264.10766 
L 319.573375 256.197927 
L 319.573375 256.197927 
L 319.746431 248.718737 
L 319.746431 248.718737 
L 319.919488 248.517462 
L 319.919488 248.517462 
L 320.092545 244.017418 
L 320.092545 244.017418 
L 320.265602 247.153852 
L 320.265602 247.153852 
L 320.438659 245.313047 
L 320.438659 245.313047 
L 320.611715 250.239635 
L 320.611715 250.239635 
L 320.784772 249.203932 
L 320.784772 249.203932 
L 320.957829 253.743964 
L 320.957829 253.743964 
L 321.130886 252.171081 
L 321.130886 252.171081 
L 321.303943 255.044924 
L 321.303943 255.044924 
L 321.476999 255.63009 
L 321.476999 255.63009 
L 322.169227 244.296005 
L 322.169227 244.296005 
L 322.688397 229.241653 
L 322.688397 229.241653 
L 322.861454 227.487489 
L 322.861454 227.487489 
L 323.034511 221.521199 
L 323.034511 221.521199 
L 323.207567 220.846725 
L 323.207567 220.846725 
L 323.380624 215.624222 
L 323.380624 215.624222 
L 323.553681 216.310692 
L 323.553681 216.310692 
L 323.726738 212.371821 
L 323.726738 212.371821 
L 323.899795 214.432564 
L 323.899795 214.432564 
L 324.072851 211.887959 
L 324.245908 215.200343 
L 324.418965 214.176637 
L 324.418965 214.176637 
L 324.592022 218.587373 
L 324.592022 218.587373 
L 324.765079 219.151211 
L 324.765079 219.151211 
L 325.457306 237.259355 
L 325.457306 237.259355 
L 325.630362 240.274491 
L 325.630362 240.274491 
L 326.149533 265.80584 
L 326.149533 265.80584 
L 326.495646 282.70633 
L 326.495646 282.70633 
L 326.668703 290.198849 
L 326.668703 290.198849 
L 326.84176 290.941303 
L 326.84176 290.941303 
L 328.053158 238.387032 
L 328.053158 238.387032 
L 328.572328 225.851957 
L 328.572328 225.851957 
L 328.918442 221.446553 
L 328.918442 221.446553 
L 329.264555 219.571091 
L 329.264555 219.571091 
L 329.437612 219.551097 
L 329.437612 219.551097 
L 329.610669 219.912326 
L 329.610669 219.912326 
L 329.956782 222.550237 
L 329.956782 222.550237 
L 330.302896 227.643444 
L 330.302896 227.643444 
L 330.649009 236.756832 
L 330.649009 236.756832 
L 330.995123 251.190029 
L 330.995123 251.190029 
L 331.514293 282.049185 
L 331.514293 282.049185 
L 331.68735 294.908166 
L 331.68735 294.908166 
L 332.379577 250.236969 
L 332.379577 250.236969 
L 332.552634 236.920785 
L 332.552634 236.920785 
L 332.725691 233.69371 
L 332.725691 233.69371 
L 332.898748 223.660585 
L 332.898748 223.660585 
L 333.071805 223.024768 
L 333.071805 223.024768 
L 333.244861 216.105417 
L 333.244861 216.105417 
L 333.417918 217.603655 
L 333.417918 217.603655 
L 333.590975 213.171592 
L 333.590975 213.171592 
L 333.764032 216.064096 
L 333.764032 216.064096 
L 333.937089 213.627461 
L 333.937089 213.627461 
L 334.110145 217.210434 
L 334.110145 217.210434 
L 334.283202 216.15607 
L 334.283202 216.15607 
L 334.456259 219.735044 
L 334.456259 219.735044 
L 334.629316 219.812355 
L 334.629316 219.812355 
L 334.802373 217.644976 
L 334.802373 217.644976 
L 334.975429 225.034858 
L 334.975429 225.034858 
L 335.148486 224.209761 
L 335.148486 224.209761 
L 335.321543 230.509289 
L 335.321543 230.509289 
L 335.4946 230.08941 
L 335.4946 230.08941 
L 335.667657 234.306868 
L 335.667657 234.306868 
L 335.840713 232.51938 
L 335.840713 232.51938 
L 336.01377 234.696089 
L 336.01377 234.696089 
L 336.186827 231.010479 
L 336.186827 231.010479 
L 336.359884 231.97287 
L 336.359884 231.97287 
L 336.53294 227.036951 
L 336.53294 227.036951 
L 336.705997 226.994297 
L 336.705997 226.994297 
L 336.879054 221.367909 
L 336.879054 221.367909 
L 337.052111 220.977354 
L 337.052111 220.977354 
L 337.225168 215.666876 
L 337.225168 215.666876 
L 337.398224 215.502923 
L 337.398224 215.502923 
L 337.571281 211.205488 
L 337.571281 211.205488 
L 337.744338 203.614331 
L 337.744338 203.614331 
L 337.917395 208.775518 
L 337.917395 208.775518 
L 338.090452 202.835887 
L 338.090452 202.835887 
L 338.263508 208.452944 
L 338.263508 208.452944 
L 338.436565 204.16484 
L 338.436565 204.16484 
L 338.609622 210.577668 
L 338.609622 210.577668 
L 338.782679 208.10771 
L 338.782679 208.10771 
L 338.955736 215.231001 
L 338.955736 215.231001 
L 339.128792 215.204342 
L 339.128792 215.204342 
L 339.301849 223.231375 
L 339.301849 223.231375 
L 339.474906 225.466734 
L 339.474906 225.466734 
L 340.167133 257.092337 
L 340.167133 257.092337 
L 340.34019 263.326551 
L 340.34019 263.326551 
L 340.686304 285.74146 
L 340.686304 285.74146 
L 340.85936 291.333191 
L 340.85936 291.333191 
L 341.378531 255.406154 
L 341.378531 255.406154 
L 342.070758 210.193778 
L 342.070758 210.193778 
L 342.416871 194.878168 
L 342.416871 194.878168 
L 342.762985 182.424404 
L 342.762985 182.424404 
L 342.936042 184.443825 
L 342.936042 184.443825 
L 343.109099 182.383082 
L 343.109099 182.383082 
L 343.282155 187.281678 
L 343.282155 187.281678 
L 343.455212 187.930825 
L 343.455212 187.930825 
L 343.628269 193.73183 
L 343.628269 193.73183 
L 343.801326 195.67394 
L 343.801326 195.67394 
L 343.974383 195.418013 
L 344.147439 204.804656 
L 344.147439 204.804656 
L 344.320496 204.993935 
L 344.320496 204.993935 
L 344.493553 212.899669 
L 344.493553 212.899669 
L 344.66661 212.615751 
L 344.66661 212.615751 
L 344.839667 218.768654 
L 344.839667 218.768654 
L 345.012723 218.262133 
L 345.012723 218.262133 
L 345.18578 223.210048 
L 345.18578 223.210048 
L 345.358837 223.451312 
L 345.358837 223.451312 
L 345.531894 219.648402 
L 345.531894 219.648402 
L 345.704951 231.114449 
L 345.704951 231.114449 
L 345.878007 231.311726 
L 345.878007 231.311726 
L 346.570235 286.013382 
L 346.570235 286.013382 
L 346.743291 290.798677 
L 346.743291 290.798677 
L 347.608575 174.513338 
L 347.608575 174.513338 
L 348.127746 121.093981 
L 348.127746 121.093981 
L 348.473859 101.159694 
L 348.473859 101.159694 
L 348.646916 97.392773 
L 348.646916 97.392773 
L 348.819973 96.154462 
L 348.819973 96.154462 
L 349.5122 149.015312 
L 349.5122 149.015312 
L 350.03137 200.456569 
L 350.03137 200.456569 
L 350.377484 232.143488 
L 350.377484 232.143488 
L 350.550541 241.508804 
L 350.550541 241.508804 
L 350.896654 264.838117 
L 350.896654 264.838117 
L 351.242768 281.817251 
L 351.242768 281.817251 
L 351.588882 294.881507 
L 351.588882 294.881507 
L 351.761938 294.804196 
L 351.761938 294.804196 
L 351.934995 285.806775 
L 351.934995 285.806775 
L 352.108052 284.701758 
L 352.108052 284.701758 
L 352.281109 277.55314 
L 352.281109 277.55314 
L 352.454166 276.694719 
L 352.627222 271.209625 
L 352.627222 271.209625 
L 352.800279 270.565809 
L 352.800279 270.565809 
L 352.973336 266.49231 
L 352.973336 266.49231 
L 353.146393 265.937802 
L 353.146393 265.937802 
L 353.31945 267.59866 
L 353.31945 267.59866 
L 353.492506 263.057295 
L 353.492506 263.057295 
L 353.665563 264.998072 
L 353.665563 264.998072 
L 353.83862 261.72301 
L 353.83862 261.72301 
L 354.011677 263.695778 
L 354.011677 263.695778 
L 354.184733 261.367112 
L 354.184733 261.367112 
L 354.35779 262.983982 
L 354.35779 262.983982 
L 354.530847 261.347118 
L 354.703904 262.597426 
L 354.703904 262.597426 
L 354.876961 265.820503 
L 354.876961 265.820503 
L 355.050017 262.173548 
L 355.050017 262.173548 
L 355.223074 264.434233 
L 355.223074 264.434233 
L 355.396131 261.516403 
L 355.396131 261.516403 
L 355.569188 263.051963 
L 355.569188 263.051963 
L 355.742245 260.522021 
L 355.742245 260.522021 
L 355.915301 260.927238 
L 355.915301 260.927238 
L 356.088358 263.055962 
L 356.088358 263.055962 
L 356.261415 257.990747 
L 356.261415 257.990747 
L 356.434472 258.84117 
L 356.434472 258.84117 
L 356.607529 254.114524 
L 356.607529 254.114524 
L 356.780585 253.663987 
L 356.780585 253.663987 
L 356.953642 249.335894 
L 356.953642 249.335894 
L 357.126699 247.968286 
L 357.126699 247.968286 
L 357.299756 248.109578 
L 357.299756 248.109578 
L 357.472813 242.099301 
L 357.472813 242.099301 
L 357.645869 241.306195 
L 357.818926 236.58888 
L 357.818926 236.58888 
L 357.991983 235.438543 
L 357.991983 235.438543 
L 358.16504 235.805105 
L 358.16504 235.805105 
L 358.338097 230.603929 
L 358.338097 230.603929 
L 358.511153 230.763883 
L 358.511153 230.763883 
L 358.68421 227.419508 
L 358.68421 227.419508 
L 358.857267 227.828724 
L 358.857267 227.828724 
L 359.030324 229.609547 
L 359.030324 229.609547 
L 359.203381 227.406179 
L 359.203381 227.406179 
L 359.376437 229.658866 
L 359.376437 229.658866 
L 359.549494 229.852144 
L 359.549494 229.852144 
L 360.068664 239.558696 
L 360.068664 239.558696 
L 361.280062 276.784027 
L 361.280062 276.784027 
L 361.453119 277.81973 
L 361.453119 277.81973 
L 361.626176 282.760981 
L 361.626176 282.760981 
L 361.799232 284.253886 
L 361.799232 284.253886 
L 362.145346 291.745073 
L 362.145346 291.745073 
L 362.318403 291.349186 
L 362.318403 291.349186 
L 362.49146 295.488 
L 362.49146 295.488 
L 362.837573 294.039082 
L 362.837573 294.039082 
L 363.01063 295.488 
L 363.01063 295.488 
L 363.356744 293.58188 
L 363.356744 293.58188 
L 363.5298 295.488 
L 363.5298 295.488 
L 363.702857 294.706891 
L 363.702857 294.706891 
L 363.875914 290.165525 
L 363.875914 290.165525 
L 364.048971 295.488 
L 364.395084 281.508007 
L 364.395084 281.508007 
L 364.741198 275.532386 
L 364.741198 275.532386 
L 365.087311 263.333215 
L 365.087311 263.333215 
L 365.260368 259.343692 
L 365.260368 259.343692 
L 365.606482 245.983521 
L 365.606482 245.983521 
L 365.779539 241.186229 
L 365.779539 241.186229 
L 366.125652 226.79702 
L 366.125652 226.79702 
L 366.471766 212.85035 
L 366.471766 212.85035 
L 368.375391 145.341698 
L 368.375391 145.341698 
L 368.894561 135.091302 
L 368.894561 135.091302 
L 369.240675 131.420354 
L 369.240675 131.420354 
L 369.413731 130.832523 
L 369.413731 130.832523 
L 369.586788 131.001808 
L 369.586788 131.001808 
L 369.759845 131.938873 
L 369.759845 131.938873 
L 370.105959 136.213647 
L 370.105959 136.213647 
L 370.452072 143.89278 
L 370.452072 143.89278 
L 370.971242 162.128887 
L 370.971242 162.128887 
L 371.836526 203.712969 
L 371.836526 203.712969 
L 372.874867 251.022077 
L 372.874867 251.022077 
L 373.567094 270.932371 
L 373.567094 270.932371 
L 374.605435 292.668808 
L 374.605435 292.668808 
L 374.778492 294.794865 
L 374.778492 294.794865 
L 375.643776 279.107361 
L 375.643776 279.107361 
L 375.98989 275.343107 
L 375.98989 275.343107 
L 376.162946 274.382049 
L 376.162946 274.382049 
L 376.336003 274.115459 
L 376.336003 274.115459 
L 376.50906 274.336729 
L 376.50906 274.336729 
L 376.855173 275.878953 
L 376.855173 275.878953 
L 377.893514 283.104882 
L 377.893514 283.104882 
L 378.239628 283.743366 
L 378.239628 283.743366 
L 378.585741 283.790019 
L 378.585741 283.790019 
L 378.931855 283.803349 
L 378.931855 283.803349 
L 379.277969 284.947021 
L 379.277969 284.947021 
L 379.797139 289.068506 
L 379.797139 289.068506 
L 380.316309 295.245403 
L 380.316309 295.245403 
L 381.181593 287.526282 
L 381.181593 287.526282 
L 381.527707 286.919789 
L 381.527707 286.919789 
L 381.700764 286.795824 
L 381.700764 286.795824 
L 382.392991 287.303679 
L 382.392991 287.303679 
L 382.739104 286.082696 
L 382.739104 286.082696 
L 383.258275 282.747651 
L 383.258275 282.747651 
L 383.950502 277.475829 
L 383.950502 277.475829 
L 384.296616 276.381476 
L 384.296616 276.381476 
L 384.469672 276.58675 
L 384.469672 276.58675 
L 384.815786 277.73842 
L 384.815786 277.73842 
L 385.854127 282.61169 
L 385.854127 282.61169 
L 386.027184 282.501055 
L 386.027184 282.501055 
L 386.373297 281.738607 
L 386.373297 281.738607 
L 387.238581 278.934078 
L 387.238581 278.934078 
L 387.411638 279.071372 
L 387.411638 279.071372 
L 387.757752 280.550948 
L 387.757752 280.550948 
L 388.276922 284.333863 
L 388.276922 284.333863 
L 388.969149 289.245789 
L 388.969149 289.245789 
L 389.142206 289.680331 
L 389.142206 289.680331 
L 389.315263 289.623014 
L 389.315263 289.623014 
L 389.488319 289.413741 
L 389.488319 289.413741 
L 389.834433 288.290063 
L 389.834433 288.290063 
L 390.353603 286.39194 
L 390.353603 286.39194 
L 390.52666 286.165339 
L 390.52666 286.165339 
L 390.699717 286.355951 
L 390.699717 286.355951 
L 391.045831 287.98615 
L 391.045831 287.98615 
L 391.565001 292.38089 
L 391.565001 292.38089 
L 391.911115 295.256066 
L 391.911115 295.256066 
L 392.257228 292.491525 
L 392.257228 292.491525 
L 392.603342 291.366515 
L 392.603342 291.366515 
L 392.776399 291.334524 
L 392.776399 291.334524 
L 392.949455 291.426497 
L 392.949455 291.426497 
L 393.814739 292.920736 
L 393.814739 292.920736 
L 394.160853 292.543511 
L 394.160853 292.543511 
L 395.026137 290.978626 
L 395.026137 290.978626 
L 395.199194 291.189232 
L 395.199194 291.189232 
L 395.891421 293.104683 
L 395.891421 293.104683 
L 396.237534 293.933779 
L 396.237534 293.933779 
L 396.583648 294.229694 
L 396.583648 294.229694 
L 397.621989 293.333951 
L 397.621989 293.333951 
L 397.795046 294.89617 
L 397.795046 294.89617 
L 397.968102 292.914071 
L 397.968102 292.914071 
L 398.141159 295.28939 
L 398.141159 295.28939 
L 398.314216 294.80153 
L 398.314216 294.80153 
L 398.487273 246.716644 
L 398.487273 246.716644 
" clip-path="url(#pa43e48c9ca)" style="fill: none; stroke: #1f77b4; stroke-width: 1.5; stroke-linecap: square"/>
   </g>
   <g id="patch_3">
    <path d="M 57.6 307.584 
L 57.6 41.472 
" style="fill: none; stroke: #000000; stroke-width: 0.8; stroke-linejoin: miter; stroke-linecap: square"/>
   </g>
   <g id="patch_4">
    <path d="M 414.72 307.584 
L 414.72 41.472 
" style="fill: none; stroke: #000000; stroke-width: 0.8; stroke-linejoin: miter; stroke-linecap: square"/>
   </g>
   <g id="patch_5">
    <path d="M 57.6 307.584 
L 414.72 307.584 
" style="fill: none; stroke: #000000; stroke-width: 0.8; stroke-linejoin: miter; stroke-linecap: square"/>
   </g>
   <g id="patch_6">
    <path d="M 57.6 41.472 
L 414.72 41.472 
" style="fill: none; stroke: #000000; stroke-width: 0.8; stroke-linejoin: miter; stroke-linecap: square"/>
   </g>
   <g id="text_19">
    <!-- Tracking error vs Time -->
    <g transform="translate(169.584375 35.472) scale(0.12 -0.12)">
     <defs>
      <path id="DejaVuSans-76" d="M 191 3500 
L 800 3500 
L 1894 563 
L 2988 3500 
L 3597 3500 
L 2284 0 
L 1503 0 
L 191 3500 
z
" transform="scale(0.015625)"/>
     </defs>
     <use xlink:href="#DejaVuSans-54"/>
     <use xlink:href="#DejaVuSans-72" x="46.333984"/>
     <use xlink:href="#DejaVuSans-61" x="87.447266"/>
     <use xlink:href="#DejaVuSans-63" x="148.726562"/>
     <use xlink:href="#DejaVuSans-6b" x="203.707031"/>
     <use xlink:href="#DejaVuSans-69" x="261.617188"/>
     <use xlink:href="#DejaVuSans-6e" x="289.400391"/>
     <use xlink:href="#DejaVuSans-67" x="352.779297"/>
     <use xlink:href="#DejaVuSans-20" x="416.255859"/>
     <use xlink:href="#DejaVuSans-65" x="448.042969"/>
     <use xlink:href="#DejaVuSans-72" x="509.566406"/>
     <use xlink:href="#DejaVuSans-72" x="548.929688"/>
     <use xlink:href="#DejaVuSans-6f" x="587.792969"/>
     <use xlink:href="#DejaVuSans-72" x="648.974609"/>
     <use xlink:href="#DejaVuSans-20" x="690.087891"/>
     <use xlink:href="#DejaVuSans-76" x="721.875"/>
     <use xlink:href="#DejaVuSans-73" x="781.054688"/>
     <use xlink:href="#DejaVuSans-20" x="833.154297"/>
     <use xlink:href="#DejaVuSans-54" x="864.941406"/>
     <use xlink:href="#DejaVuSans-69" x="922.900391"/>
     <use xlink:href="#DejaVuSans-6d" x="950.683594"/>
     <use xlink:href="#DejaVuSans-65" x="1048.095703"/>
    </g>
   </g>
   <g id="legend_1">
    <g id="patch_7">
     <path d="M 311.00125 64.150125 
L 407.72 64.150125 
Q 409.72 64.150125 409.72 62.150125 
L 409.72 48.472 
Q 409.72 46.472 407.72 46.472 
L 311.00125 46.472 
Q 309.00125 46.472 309.00125 48.472 
L 309.00125 62.150125 
Q 309.00125 64.150125 311.00125 64.150125 
z
" style="fill: #ffffff; opacity: 0.8; stroke: #cccccc; stroke-linejoin: miter"/>
    </g>
    <g id="line2d_34">
     <path d="M 313.00125 54.570438 
L 323.00125 54.570438 
L 333.00125 54.570438 
" style="fill: none; stroke: #1f77b4; stroke-width: 1.5; stroke-linecap: square"/>
    </g>
    <g id="text_20">
     <!-- Actual speed -->
     <g transform="translate(341.00125 58.070438) scale(0.1 -0.1)">
      <defs>
       <path id="DejaVuSans-41" d="M 2188 4044 
L 1331 1722 
L 3047 1722 
L 2188 4044 
z
M 1831 4666 
L 2547 4666 
L 4325 0 
L 3669 0 
L 3244 1197 
L 1141 1197 
L 716 0 
L 50 0 
L 1831 4666 
z
" transform="scale(0.015625)"/>
       <path id="DejaVuSans-74" d="M 1172 4494 
L 1172 3500 
L 2356 3500 
L 2356 3053 
L 1172 3053 
L 1172 1153 
Q 1172 725 1289 603 
Q 1406 481 1766 481 
L 2356 481 
L 2356 0 
L 1766 0 
Q 1100 0 847 248 
Q 594 497 594 1153 
L 594 3053 
L 172 3053 
L 172 3500 
L 594 3500 
L 594 4494 
L 1172 4494 
z
" transform="scale(0.015625)"/>
       <path id="DejaVuSans-75" d="M 544 1381 
L 544 3500 
L 1119 3500 
L 1119 1403 
Q 1119 906 1312 657 
Q 1506 409 1894 409 
Q 2359 409 2629 706 
Q 2900 1003 2900 1516 
L 2900 3500 
L 3475 3500 
L 3475 0 
L 2900 0 
L 2900 538 
Q 2691 219 2414 64 
Q 2138 -91 1772 -91 
Q 1169 -91 856 284 
Q 544 659 544 1381 
z
M 1991 3584 
L 1991 3584 
z
" transform="scale(0.015625)"/>
       <path id="DejaVuSans-6c" d="M 603 4863 
L 1178 4863 
L 1178 0 
L 603 0 
L 603 4863 
z
" transform="scale(0.015625)"/>
       <path id="DejaVuSans-70" d="M 1159 525 
L 1159 -1331 
L 581 -1331 
L 581 3500 
L 1159 3500 
L 1159 2969 
Q 1341 3281 1617 3432 
Q 1894 3584 2278 3584 
Q 2916 3584 3314 3078 
Q 3713 2572 3713 1747 
Q 3713 922 3314 415 
Q 2916 -91 2278 -91 
Q 1894 -91 1617 61 
Q 1341 213 1159 525 
z
M 3116 1747 
Q 3116 2381 2855 2742 
Q 2594 3103 2138 3103 
Q 1681 3103 1420 2742 
Q 1159 2381 1159 1747 
Q 1159 1113 1420 752 
Q 1681 391 2138 391 
Q 2594 391 2855 752 
Q 3116 1113 3116 1747 
z
" transform="scale(0.015625)"/>
       <path id="DejaVuSans-64" d="M 2906 2969 
L 2906 4863 
L 3481 4863 
L 3481 0 
L 2906 0 
L 2906 525 
Q 2725 213 2448 61 
Q 2172 -91 1784 -91 
Q 1150 -91 751 415 
Q 353 922 353 1747 
Q 353 2572 751 3078 
Q 1150 3584 1784 3584 
Q 2172 3584 2448 3432 
Q 2725 3281 2906 2969 
z
M 947 1747 
Q 947 1113 1208 752 
Q 1469 391 1925 391 
Q 2381 391 2643 752 
Q 2906 1113 2906 1747 
Q 2906 2381 2643 2742 
Q 2381 3103 1925 3103 
Q 1469 3103 1208 2742 
Q 947 2381 947 1747 
z
" transform="scale(0.015625)"/>
      </defs>
      <use xlink:href="#DejaVuSans-41"/>
      <use xlink:href="#DejaVuSans-63" x="66.658203"/>
      <use xlink:href="#DejaVuSans-74" x="121.638672"/>
      <use xlink:href="#DejaVuSans-75" x="160.847656"/>
      <use xlink:href="#DejaVuSans-61" x="224.226562"/>
      <use xlink:href="#DejaVuSans-6c" x="285.505859"/>
      <use xlink:href="#DejaVuSans-20" x="313.289062"/>
      <use xlink:href="#DejaVuSans-73" x="345.076172"/>
      <use xlink:href="#DejaVuSans-70" x="397.175781"/>
      <use xlink:href="#DejaVuSans-65" x="460.652344"/>
      <use xlink:href="#DejaVuSans-65" x="522.175781"/>
      <use xlink:href="#DejaVuSans-64" x="583.699219"/>
     </g>
    </g>
   </g>
  </g>
 </g>
 <defs>
  <clipPath id="pa43e48c9ca">
   <rect x="57.6" y="41.472" width="357.12" height="266.112"/>
  </clipPath>
 </defs>
</svg>
