<?xml version="1.0" encoding="utf-8" standalone="no"?>
<!DOCTYPE svg PUBLIC "-//W3C//DTD SVG 1.1//EN"
  "http://www.w3.org/Graphics/SVG/1.1/DTD/svg11.dtd">
<svg xmlns:xlink="http://www.w3.org/1999/xlink" width="460.8pt" height="345.6pt" viewBox="0 0 460.8 345.6" xmlns="http://www.w3.org/2000/svg" version="1.1">
 <metadata>
  <rdf:RDF xmlns:dc="http://purl.org/dc/elements/1.1/" xmlns:cc="http://creativecommons.org/ns#" xmlns:rdf="http://www.w3.org/1999/02/22-rdf-syntax-ns#">
   <cc:Work>
    <dc:type rdf:resource="http://purl.org/dc/dcmitype/StillImage"/>
    <dc:date>2024-01-30T20:59:05.985734</dc:date>
    <dc:format>image/svg+xml</dc:format>
    <dc:creator>
     <cc:Agent>
      <dc:title>Matplotlib v3.7.1, https://matplotlib.org/</dc:title>
     </cc:Agent>
    </dc:creator>
   </cc:Work>
  </rdf:RDF>
 </metadata>
 <defs>
  <style type="text/css">*{stroke-linejoin: round; stroke-linecap: butt}</style>
 </defs>
 <g id="figure_1">
  <g id="patch_1">
   <path d="M 0 345.6 
L 460.8 345.6 
L 460.8 0 
L 0 0 
z
" style="fill: #ffffff"/>
  </g>
  <g id="axes_1">
   <g id="patch_2">
    <path d="M 57.6 307.584 
L 414.72 307.584 
L 414.72 41.472 
L 57.6 41.472 
z
" style="fill: #ffffff"/>
   </g>
   <g id="matplotlib.axis_1">
    <g id="xtick_1">
     <g id="line2d_1">
      <path d="M 73.832727 307.584 
L 73.832727 41.472 
" clip-path="url(#p3c7669016d)" style="fill: none; stroke: #b0b0b0; stroke-width: 0.8; stroke-linecap: square"/>
     </g>
     <g id="line2d_2">
      <defs>
       <path id="mb110197c6a" d="M 0 0 
L 0 3.5 
" style="stroke: #000000; stroke-width: 0.8"/>
      </defs>
      <g>
       <use xlink:href="#mb110197c6a" x="73.832727" y="307.584" style="stroke: #000000; stroke-width: 0.8"/>
      </g>
     </g>
     <g id="text_1">
      <!-- 0 -->
      <g transform="translate(70.651477 322.182437) scale(0.1 -0.1)">
       <defs>
        <path id="DejaVuSans-30" d="M 2034 4250 
Q 1547 4250 1301 3770 
Q 1056 3291 1056 2328 
Q 1056 1369 1301 889 
Q 1547 409 2034 409 
Q 2525 409 2770 889 
Q 3016 1369 3016 2328 
Q 3016 3291 2770 3770 
Q 2525 4250 2034 4250 
z
M 2034 4750 
Q 2819 4750 3233 4129 
Q 3647 3509 3647 2328 
Q 3647 1150 3233 529 
Q 2819 -91 2034 -91 
Q 1250 -91 836 529 
Q 422 1150 422 2328 
Q 422 3509 836 4129 
Q 1250 4750 2034 4750 
z
" transform="scale(0.015625)"/>
       </defs>
       <use xlink:href="#DejaVuSans-30"/>
      </g>
     </g>
    </g>
    <g id="xtick_2">
     <g id="line2d_3">
      <path d="M 118.798731 307.584 
L 118.798731 41.472 
" clip-path="url(#p3c7669016d)" style="fill: none; stroke: #b0b0b0; stroke-width: 0.8; stroke-linecap: square"/>
     </g>
     <g id="line2d_4">
      <g>
       <use xlink:href="#mb110197c6a" x="118.798731" y="307.584" style="stroke: #000000; stroke-width: 0.8"/>
      </g>
     </g>
     <g id="text_2">
      <!-- 2 -->
      <g transform="translate(115.617481 322.182437) scale(0.1 -0.1)">
       <defs>
        <path id="DejaVuSans-32" d="M 1228 531 
L 3431 531 
L 3431 0 
L 469 0 
L 469 531 
Q 828 903 1448 1529 
Q 2069 2156 2228 2338 
Q 2531 2678 2651 2914 
Q 2772 3150 2772 3378 
Q 2772 3750 2511 3984 
Q 2250 4219 1831 4219 
Q 1534 4219 1204 4116 
Q 875 4013 500 3803 
L 500 4441 
Q 881 4594 1212 4672 
Q 1544 4750 1819 4750 
Q 2544 4750 2975 4387 
Q 3406 4025 3406 3419 
Q 3406 3131 3298 2873 
Q 3191 2616 2906 2266 
Q 2828 2175 2409 1742 
Q 1991 1309 1228 531 
z
" transform="scale(0.015625)"/>
       </defs>
       <use xlink:href="#DejaVuSans-32"/>
      </g>
     </g>
    </g>
    <g id="xtick_3">
     <g id="line2d_5">
      <path d="M 163.764734 307.584 
L 163.764734 41.472 
" clip-path="url(#p3c7669016d)" style="fill: none; stroke: #b0b0b0; stroke-width: 0.8; stroke-linecap: square"/>
     </g>
     <g id="line2d_6">
      <g>
       <use xlink:href="#mb110197c6a" x="163.764734" y="307.584" style="stroke: #000000; stroke-width: 0.8"/>
      </g>
     </g>
     <g id="text_3">
      <!-- 4 -->
      <g transform="translate(160.583484 322.182437) scale(0.1 -0.1)">
       <defs>
        <path id="DejaVuSans-34" d="M 2419 4116 
L 825 1625 
L 2419 1625 
L 2419 4116 
z
M 2253 4666 
L 3047 4666 
L 3047 1625 
L 3713 1625 
L 3713 1100 
L 3047 1100 
L 3047 0 
L 2419 0 
L 2419 1100 
L 313 1100 
L 313 1709 
L 2253 4666 
z
" transform="scale(0.015625)"/>
       </defs>
       <use xlink:href="#DejaVuSans-34"/>
      </g>
     </g>
    </g>
    <g id="xtick_4">
     <g id="line2d_7">
      <path d="M 208.730738 307.584 
L 208.730738 41.472 
" clip-path="url(#p3c7669016d)" style="fill: none; stroke: #b0b0b0; stroke-width: 0.8; stroke-linecap: square"/>
     </g>
     <g id="line2d_8">
      <g>
       <use xlink:href="#mb110197c6a" x="208.730738" y="307.584" style="stroke: #000000; stroke-width: 0.8"/>
      </g>
     </g>
     <g id="text_4">
      <!-- 6 -->
      <g transform="translate(205.549488 322.182437) scale(0.1 -0.1)">
       <defs>
        <path id="DejaVuSans-36" d="M 2113 2584 
Q 1688 2584 1439 2293 
Q 1191 2003 1191 1497 
Q 1191 994 1439 701 
Q 1688 409 2113 409 
Q 2538 409 2786 701 
Q 3034 994 3034 1497 
Q 3034 2003 2786 2293 
Q 2538 2584 2113 2584 
z
M 3366 4563 
L 3366 3988 
Q 3128 4100 2886 4159 
Q 2644 4219 2406 4219 
Q 1781 4219 1451 3797 
Q 1122 3375 1075 2522 
Q 1259 2794 1537 2939 
Q 1816 3084 2150 3084 
Q 2853 3084 3261 2657 
Q 3669 2231 3669 1497 
Q 3669 778 3244 343 
Q 2819 -91 2113 -91 
Q 1303 -91 875 529 
Q 447 1150 447 2328 
Q 447 3434 972 4092 
Q 1497 4750 2381 4750 
Q 2619 4750 2861 4703 
Q 3103 4656 3366 4563 
z
" transform="scale(0.015625)"/>
       </defs>
       <use xlink:href="#DejaVuSans-36"/>
      </g>
     </g>
    </g>
    <g id="xtick_5">
     <g id="line2d_9">
      <path d="M 253.696741 307.584 
L 253.696741 41.472 
" clip-path="url(#p3c7669016d)" style="fill: none; stroke: #b0b0b0; stroke-width: 0.8; stroke-linecap: square"/>
     </g>
     <g id="line2d_10">
      <g>
       <use xlink:href="#mb110197c6a" x="253.696741" y="307.584" style="stroke: #000000; stroke-width: 0.8"/>
      </g>
     </g>
     <g id="text_5">
      <!-- 8 -->
      <g transform="translate(250.515491 322.182437) scale(0.1 -0.1)">
       <defs>
        <path id="DejaVuSans-38" d="M 2034 2216 
Q 1584 2216 1326 1975 
Q 1069 1734 1069 1313 
Q 1069 891 1326 650 
Q 1584 409 2034 409 
Q 2484 409 2743 651 
Q 3003 894 3003 1313 
Q 3003 1734 2745 1975 
Q 2488 2216 2034 2216 
z
M 1403 2484 
Q 997 2584 770 2862 
Q 544 3141 544 3541 
Q 544 4100 942 4425 
Q 1341 4750 2034 4750 
Q 2731 4750 3128 4425 
Q 3525 4100 3525 3541 
Q 3525 3141 3298 2862 
Q 3072 2584 2669 2484 
Q 3125 2378 3379 2068 
Q 3634 1759 3634 1313 
Q 3634 634 3220 271 
Q 2806 -91 2034 -91 
Q 1263 -91 848 271 
Q 434 634 434 1313 
Q 434 1759 690 2068 
Q 947 2378 1403 2484 
z
M 1172 3481 
Q 1172 3119 1398 2916 
Q 1625 2713 2034 2713 
Q 2441 2713 2670 2916 
Q 2900 3119 2900 3481 
Q 2900 3844 2670 4047 
Q 2441 4250 2034 4250 
Q 1625 4250 1398 4047 
Q 1172 3844 1172 3481 
z
" transform="scale(0.015625)"/>
       </defs>
       <use xlink:href="#DejaVuSans-38"/>
      </g>
     </g>
    </g>
    <g id="xtick_6">
     <g id="line2d_11">
      <path d="M 298.662745 307.584 
L 298.662745 41.472 
" clip-path="url(#p3c7669016d)" style="fill: none; stroke: #b0b0b0; stroke-width: 0.8; stroke-linecap: square"/>
     </g>
     <g id="line2d_12">
      <g>
       <use xlink:href="#mb110197c6a" x="298.662745" y="307.584" style="stroke: #000000; stroke-width: 0.8"/>
      </g>
     </g>
     <g id="text_6">
      <!-- 10 -->
      <g transform="translate(292.300245 322.182437) scale(0.1 -0.1)">
       <defs>
        <path id="DejaVuSans-31" d="M 794 531 
L 1825 531 
L 1825 4091 
L 703 3866 
L 703 4441 
L 1819 4666 
L 2450 4666 
L 2450 531 
L 3481 531 
L 3481 0 
L 794 0 
L 794 531 
z
" transform="scale(0.015625)"/>
       </defs>
       <use xlink:href="#DejaVuSans-31"/>
       <use xlink:href="#DejaVuSans-30" x="63.623047"/>
      </g>
     </g>
    </g>
    <g id="xtick_7">
     <g id="line2d_13">
      <path d="M 343.628748 307.584 
L 343.628748 41.472 
" clip-path="url(#p3c7669016d)" style="fill: none; stroke: #b0b0b0; stroke-width: 0.8; stroke-linecap: square"/>
     </g>
     <g id="line2d_14">
      <g>
       <use xlink:href="#mb110197c6a" x="343.628748" y="307.584" style="stroke: #000000; stroke-width: 0.8"/>
      </g>
     </g>
     <g id="text_7">
      <!-- 12 -->
      <g transform="translate(337.266248 322.182437) scale(0.1 -0.1)">
       <use xlink:href="#DejaVuSans-31"/>
       <use xlink:href="#DejaVuSans-32" x="63.623047"/>
      </g>
     </g>
    </g>
    <g id="xtick_8">
     <g id="line2d_15">
      <path d="M 388.594752 307.584 
L 388.594752 41.472 
" clip-path="url(#p3c7669016d)" style="fill: none; stroke: #b0b0b0; stroke-width: 0.8; stroke-linecap: square"/>
     </g>
     <g id="line2d_16">
      <g>
       <use xlink:href="#mb110197c6a" x="388.594752" y="307.584" style="stroke: #000000; stroke-width: 0.8"/>
      </g>
     </g>
     <g id="text_8">
      <!-- 14 -->
      <g transform="translate(382.232252 322.182437) scale(0.1 -0.1)">
       <use xlink:href="#DejaVuSans-31"/>
       <use xlink:href="#DejaVuSans-34" x="63.623047"/>
      </g>
     </g>
    </g>
    <g id="text_9">
     <!-- Time(s) -->
     <g transform="translate(217.420156 335.860562) scale(0.1 -0.1)">
      <defs>
       <path id="DejaVuSans-54" d="M -19 4666 
L 3928 4666 
L 3928 4134 
L 2272 4134 
L 2272 0 
L 1638 0 
L 1638 4134 
L -19 4134 
L -19 4666 
z
" transform="scale(0.015625)"/>
       <path id="DejaVuSans-69" d="M 603 3500 
L 1178 3500 
L 1178 0 
L 603 0 
L 603 3500 
z
M 603 4863 
L 1178 4863 
L 1178 4134 
L 603 4134 
L 603 4863 
z
" transform="scale(0.015625)"/>
       <path id="DejaVuSans-6d" d="M 3328 2828 
Q 3544 3216 3844 3400 
Q 4144 3584 4550 3584 
Q 5097 3584 5394 3201 
Q 5691 2819 5691 2113 
L 5691 0 
L 5113 0 
L 5113 2094 
Q 5113 2597 4934 2840 
Q 4756 3084 4391 3084 
Q 3944 3084 3684 2787 
Q 3425 2491 3425 1978 
L 3425 0 
L 2847 0 
L 2847 2094 
Q 2847 2600 2669 2842 
Q 2491 3084 2119 3084 
Q 1678 3084 1418 2786 
Q 1159 2488 1159 1978 
L 1159 0 
L 581 0 
L 581 3500 
L 1159 3500 
L 1159 2956 
Q 1356 3278 1631 3431 
Q 1906 3584 2284 3584 
Q 2666 3584 2933 3390 
Q 3200 3197 3328 2828 
z
" transform="scale(0.015625)"/>
       <path id="DejaVuSans-65" d="M 3597 1894 
L 3597 1613 
L 953 1613 
Q 991 1019 1311 708 
Q 1631 397 2203 397 
Q 2534 397 2845 478 
Q 3156 559 3463 722 
L 3463 178 
Q 3153 47 2828 -22 
Q 2503 -91 2169 -91 
Q 1331 -91 842 396 
Q 353 884 353 1716 
Q 353 2575 817 3079 
Q 1281 3584 2069 3584 
Q 2775 3584 3186 3129 
Q 3597 2675 3597 1894 
z
M 3022 2063 
Q 3016 2534 2758 2815 
Q 2500 3097 2075 3097 
Q 1594 3097 1305 2825 
Q 1016 2553 972 2059 
L 3022 2063 
z
" transform="scale(0.015625)"/>
       <path id="DejaVuSans-28" d="M 1984 4856 
Q 1566 4138 1362 3434 
Q 1159 2731 1159 2009 
Q 1159 1288 1364 580 
Q 1569 -128 1984 -844 
L 1484 -844 
Q 1016 -109 783 600 
Q 550 1309 550 2009 
Q 550 2706 781 3412 
Q 1013 4119 1484 4856 
L 1984 4856 
z
" transform="scale(0.015625)"/>
       <path id="DejaVuSans-73" d="M 2834 3397 
L 2834 2853 
Q 2591 2978 2328 3040 
Q 2066 3103 1784 3103 
Q 1356 3103 1142 2972 
Q 928 2841 928 2578 
Q 928 2378 1081 2264 
Q 1234 2150 1697 2047 
L 1894 2003 
Q 2506 1872 2764 1633 
Q 3022 1394 3022 966 
Q 3022 478 2636 193 
Q 2250 -91 1575 -91 
Q 1294 -91 989 -36 
Q 684 19 347 128 
L 347 722 
Q 666 556 975 473 
Q 1284 391 1588 391 
Q 1994 391 2212 530 
Q 2431 669 2431 922 
Q 2431 1156 2273 1281 
Q 2116 1406 1581 1522 
L 1381 1569 
Q 847 1681 609 1914 
Q 372 2147 372 2553 
Q 372 3047 722 3315 
Q 1072 3584 1716 3584 
Q 2034 3584 2315 3537 
Q 2597 3491 2834 3397 
z
" transform="scale(0.015625)"/>
       <path id="DejaVuSans-29" d="M 513 4856 
L 1013 4856 
Q 1481 4119 1714 3412 
Q 1947 2706 1947 2009 
Q 1947 1309 1714 600 
Q 1481 -109 1013 -844 
L 513 -844 
Q 928 -128 1133 580 
Q 1338 1288 1338 2009 
Q 1338 2731 1133 3434 
Q 928 4138 513 4856 
z
" transform="scale(0.015625)"/>
      </defs>
      <use xlink:href="#DejaVuSans-54"/>
      <use xlink:href="#DejaVuSans-69" x="57.958984"/>
      <use xlink:href="#DejaVuSans-6d" x="85.742188"/>
      <use xlink:href="#DejaVuSans-65" x="183.154297"/>
      <use xlink:href="#DejaVuSans-28" x="244.677734"/>
      <use xlink:href="#DejaVuSans-73" x="283.691406"/>
      <use xlink:href="#DejaVuSans-29" x="335.791016"/>
     </g>
    </g>
   </g>
   <g id="matplotlib.axis_2">
    <g id="ytick_1">
     <g id="line2d_17">
      <path d="M 57.6 295.488 
L 414.72 295.488 
" clip-path="url(#p3c7669016d)" style="fill: none; stroke: #b0b0b0; stroke-width: 0.8; stroke-linecap: square"/>
     </g>
     <g id="line2d_18">
      <defs>
       <path id="m7c629500cd" d="M 0 0 
L -3.5 0 
" style="stroke: #000000; stroke-width: 0.8"/>
      </defs>
      <g>
       <use xlink:href="#m7c629500cd" x="57.6" y="295.488" style="stroke: #000000; stroke-width: 0.8"/>
      </g>
     </g>
     <g id="text_10">
      <!-- 0.0 -->
      <g transform="translate(34.696875 299.287219) scale(0.1 -0.1)">
       <defs>
        <path id="DejaVuSans-2e" d="M 684 794 
L 1344 794 
L 1344 0 
L 684 0 
L 684 794 
z
" transform="scale(0.015625)"/>
       </defs>
       <use xlink:href="#DejaVuSans-30"/>
       <use xlink:href="#DejaVuSans-2e" x="63.623047"/>
       <use xlink:href="#DejaVuSans-30" x="95.410156"/>
      </g>
     </g>
    </g>
    <g id="ytick_2">
     <g id="line2d_19">
      <path d="M 57.6 242.610005 
L 414.72 242.610005 
" clip-path="url(#p3c7669016d)" style="fill: none; stroke: #b0b0b0; stroke-width: 0.8; stroke-linecap: square"/>
     </g>
     <g id="line2d_20">
      <g>
       <use xlink:href="#m7c629500cd" x="57.6" y="242.610005" style="stroke: #000000; stroke-width: 0.8"/>
      </g>
     </g>
     <g id="text_11">
      <!-- 0.2 -->
      <g transform="translate(34.696875 246.409224) scale(0.1 -0.1)">
       <use xlink:href="#DejaVuSans-30"/>
       <use xlink:href="#DejaVuSans-2e" x="63.623047"/>
       <use xlink:href="#DejaVuSans-32" x="95.410156"/>
      </g>
     </g>
    </g>
    <g id="ytick_3">
     <g id="line2d_21">
      <path d="M 57.6 189.73201 
L 414.72 189.73201 
" clip-path="url(#p3c7669016d)" style="fill: none; stroke: #b0b0b0; stroke-width: 0.8; stroke-linecap: square"/>
     </g>
     <g id="line2d_22">
      <g>
       <use xlink:href="#m7c629500cd" x="57.6" y="189.73201" style="stroke: #000000; stroke-width: 0.8"/>
      </g>
     </g>
     <g id="text_12">
      <!-- 0.4 -->
      <g transform="translate(34.696875 193.531229) scale(0.1 -0.1)">
       <use xlink:href="#DejaVuSans-30"/>
       <use xlink:href="#DejaVuSans-2e" x="63.623047"/>
       <use xlink:href="#DejaVuSans-34" x="95.410156"/>
      </g>
     </g>
    </g>
    <g id="ytick_4">
     <g id="line2d_23">
      <path d="M 57.6 136.854015 
L 414.72 136.854015 
" clip-path="url(#p3c7669016d)" style="fill: none; stroke: #b0b0b0; stroke-width: 0.8; stroke-linecap: square"/>
     </g>
     <g id="line2d_24">
      <g>
       <use xlink:href="#m7c629500cd" x="57.6" y="136.854015" style="stroke: #000000; stroke-width: 0.8"/>
      </g>
     </g>
     <g id="text_13">
      <!-- 0.6 -->
      <g transform="translate(34.696875 140.653234) scale(0.1 -0.1)">
       <use xlink:href="#DejaVuSans-30"/>
       <use xlink:href="#DejaVuSans-2e" x="63.623047"/>
       <use xlink:href="#DejaVuSans-36" x="95.410156"/>
      </g>
     </g>
    </g>
    <g id="ytick_5">
     <g id="line2d_25">
      <path d="M 57.6 83.97602 
L 414.72 83.97602 
" clip-path="url(#p3c7669016d)" style="fill: none; stroke: #b0b0b0; stroke-width: 0.8; stroke-linecap: square"/>
     </g>
     <g id="line2d_26">
      <g>
       <use xlink:href="#m7c629500cd" x="57.6" y="83.97602" style="stroke: #000000; stroke-width: 0.8"/>
      </g>
     </g>
     <g id="text_14">
      <!-- 0.8 -->
      <g transform="translate(34.696875 87.775239) scale(0.1 -0.1)">
       <use xlink:href="#DejaVuSans-30"/>
       <use xlink:href="#DejaVuSans-2e" x="63.623047"/>
       <use xlink:href="#DejaVuSans-38" x="95.410156"/>
      </g>
     </g>
    </g>
    <g id="text_15">
     <!-- Tracking error(m) -->
     <g transform="translate(28.617187 217.803781) rotate(-90) scale(0.1 -0.1)">
      <defs>
       <path id="DejaVuSans-72" d="M 2631 2963 
Q 2534 3019 2420 3045 
Q 2306 3072 2169 3072 
Q 1681 3072 1420 2755 
Q 1159 2438 1159 1844 
L 1159 0 
L 581 0 
L 581 3500 
L 1159 3500 
L 1159 2956 
Q 1341 3275 1631 3429 
Q 1922 3584 2338 3584 
Q 2397 3584 2469 3576 
Q 2541 3569 2628 3553 
L 2631 2963 
z
" transform="scale(0.015625)"/>
       <path id="DejaVuSans-61" d="M 2194 1759 
Q 1497 1759 1228 1600 
Q 959 1441 959 1056 
Q 959 750 1161 570 
Q 1363 391 1709 391 
Q 2188 391 2477 730 
Q 2766 1069 2766 1631 
L 2766 1759 
L 2194 1759 
z
M 3341 1997 
L 3341 0 
L 2766 0 
L 2766 531 
Q 2569 213 2275 61 
Q 1981 -91 1556 -91 
Q 1019 -91 701 211 
Q 384 513 384 1019 
Q 384 1609 779 1909 
Q 1175 2209 1959 2209 
L 2766 2209 
L 2766 2266 
Q 2766 2663 2505 2880 
Q 2244 3097 1772 3097 
Q 1472 3097 1187 3025 
Q 903 2953 641 2809 
L 641 3341 
Q 956 3463 1253 3523 
Q 1550 3584 1831 3584 
Q 2591 3584 2966 3190 
Q 3341 2797 3341 1997 
z
" transform="scale(0.015625)"/>
       <path id="DejaVuSans-63" d="M 3122 3366 
L 3122 2828 
Q 2878 2963 2633 3030 
Q 2388 3097 2138 3097 
Q 1578 3097 1268 2742 
Q 959 2388 959 1747 
Q 959 1106 1268 751 
Q 1578 397 2138 397 
Q 2388 397 2633 464 
Q 2878 531 3122 666 
L 3122 134 
Q 2881 22 2623 -34 
Q 2366 -91 2075 -91 
Q 1284 -91 818 406 
Q 353 903 353 1747 
Q 353 2603 823 3093 
Q 1294 3584 2113 3584 
Q 2378 3584 2631 3529 
Q 2884 3475 3122 3366 
z
" transform="scale(0.015625)"/>
       <path id="DejaVuSans-6b" d="M 581 4863 
L 1159 4863 
L 1159 1991 
L 2875 3500 
L 3609 3500 
L 1753 1863 
L 3688 0 
L 2938 0 
L 1159 1709 
L 1159 0 
L 581 0 
L 581 4863 
z
" transform="scale(0.015625)"/>
       <path id="DejaVuSans-6e" d="M 3513 2113 
L 3513 0 
L 2938 0 
L 2938 2094 
Q 2938 2591 2744 2837 
Q 2550 3084 2163 3084 
Q 1697 3084 1428 2787 
Q 1159 2491 1159 1978 
L 1159 0 
L 581 0 
L 581 3500 
L 1159 3500 
L 1159 2956 
Q 1366 3272 1645 3428 
Q 1925 3584 2291 3584 
Q 2894 3584 3203 3211 
Q 3513 2838 3513 2113 
z
" transform="scale(0.015625)"/>
       <path id="DejaVuSans-67" d="M 2906 1791 
Q 2906 2416 2648 2759 
Q 2391 3103 1925 3103 
Q 1463 3103 1205 2759 
Q 947 2416 947 1791 
Q 947 1169 1205 825 
Q 1463 481 1925 481 
Q 2391 481 2648 825 
Q 2906 1169 2906 1791 
z
M 3481 434 
Q 3481 -459 3084 -895 
Q 2688 -1331 1869 -1331 
Q 1566 -1331 1297 -1286 
Q 1028 -1241 775 -1147 
L 775 -588 
Q 1028 -725 1275 -790 
Q 1522 -856 1778 -856 
Q 2344 -856 2625 -561 
Q 2906 -266 2906 331 
L 2906 616 
Q 2728 306 2450 153 
Q 2172 0 1784 0 
Q 1141 0 747 490 
Q 353 981 353 1791 
Q 353 2603 747 3093 
Q 1141 3584 1784 3584 
Q 2172 3584 2450 3431 
Q 2728 3278 2906 2969 
L 2906 3500 
L 3481 3500 
L 3481 434 
z
" transform="scale(0.015625)"/>
       <path id="DejaVuSans-20" transform="scale(0.015625)"/>
       <path id="DejaVuSans-6f" d="M 1959 3097 
Q 1497 3097 1228 2736 
Q 959 2375 959 1747 
Q 959 1119 1226 758 
Q 1494 397 1959 397 
Q 2419 397 2687 759 
Q 2956 1122 2956 1747 
Q 2956 2369 2687 2733 
Q 2419 3097 1959 3097 
z
M 1959 3584 
Q 2709 3584 3137 3096 
Q 3566 2609 3566 1747 
Q 3566 888 3137 398 
Q 2709 -91 1959 -91 
Q 1206 -91 779 398 
Q 353 888 353 1747 
Q 353 2609 779 3096 
Q 1206 3584 1959 3584 
z
" transform="scale(0.015625)"/>
      </defs>
      <use xlink:href="#DejaVuSans-54"/>
      <use xlink:href="#DejaVuSans-72" x="46.333984"/>
      <use xlink:href="#DejaVuSans-61" x="87.447266"/>
      <use xlink:href="#DejaVuSans-63" x="148.726562"/>
      <use xlink:href="#DejaVuSans-6b" x="203.707031"/>
      <use xlink:href="#DejaVuSans-69" x="261.617188"/>
      <use xlink:href="#DejaVuSans-6e" x="289.400391"/>
      <use xlink:href="#DejaVuSans-67" x="352.779297"/>
      <use xlink:href="#DejaVuSans-20" x="416.255859"/>
      <use xlink:href="#DejaVuSans-65" x="448.042969"/>
      <use xlink:href="#DejaVuSans-72" x="509.566406"/>
      <use xlink:href="#DejaVuSans-72" x="548.929688"/>
      <use xlink:href="#DejaVuSans-6f" x="587.792969"/>
      <use xlink:href="#DejaVuSans-72" x="648.974609"/>
      <use xlink:href="#DejaVuSans-28" x="690.087891"/>
      <use xlink:href="#DejaVuSans-6d" x="729.101562"/>
      <use xlink:href="#DejaVuSans-29" x="826.513672"/>
     </g>
    </g>
   </g>
   <g id="line2d_27">
    <path d="M 73.832727 289.116202 
L 74.732047 287.017474 
L 74.732047 287.017474 
L 75.181707 286.834781 
L 75.181707 286.834781 
L 76.530687 283.362283 
L 76.530687 283.362283 
L 77.430008 281.457353 
L 77.430008 281.457353 
L 77.879668 280.780514 
L 77.879668 280.780514 
L 78.329328 280.403759 
L 78.778988 280.36648 
L 78.778988 280.36648 
L 79.228648 280.691679 
L 79.228648 280.691679 
L 79.678308 281.378565 
L 79.678308 281.378565 
L 80.127968 282.45093 
L 80.127968 282.45093 
L 81.027288 285.669878 
L 81.027288 285.669878 
L 81.926608 289.971768 
L 81.926608 289.971768 
L 82.825928 294.756697 
L 82.825928 294.756697 
L 83.275588 293.833183 
L 83.275588 293.833183 
L 84.174908 289.443516 
L 84.174908 289.443516 
L 85.074228 286.058532 
L 85.074228 286.058532 
L 85.523888 284.907642 
L 85.523888 284.907642 
L 85.973548 284.139589 
L 85.973548 284.139589 
L 86.423208 283.756224 
L 86.423208 283.756224 
L 86.872868 283.778432 
L 87.322528 284.211503 
L 87.322528 284.211503 
L 87.772188 285.046975 
L 87.772188 285.046975 
L 88.671508 287.625571 
L 88.671508 287.625571 
L 90.020489 293.01754 
L 90.020489 293.01754 
L 90.470149 294.899468 
L 90.470149 294.899468 
L 90.919809 295.488 
L 90.919809 295.488 
L 91.369469 292.622806 
L 91.369469 292.622806 
L 92.268789 290.057694 
L 92.268789 290.057694 
L 92.718449 289.229096 
L 92.718449 289.229096 
L 93.168109 288.716973 
L 93.168109 288.716973 
L 93.617769 288.551729 
L 93.617769 288.551729 
L 94.067429 288.747642 
L 94.067429 288.747642 
L 94.517089 289.302597 
L 94.517089 289.302597 
L 94.966749 290.138069 
L 94.966749 290.138069 
L 95.866069 292.544282 
L 95.866069 292.544282 
L 96.765389 295.407097 
L 96.765389 295.407097 
L 98.114369 291.054445 
L 98.114369 291.054445 
L 99.013689 289.048782 
L 99.013689 289.048782 
L 99.463349 288.466067 
L 99.463349 288.466067 
L 99.913009 288.175238 
L 99.913009 288.175238 
L 100.362669 288.2067 
L 100.362669 288.2067 
L 100.812329 288.574467 
L 100.812329 288.574467 
L 101.261989 289.256857 
L 101.261989 289.256857 
L 102.161309 291.380702 
L 102.161309 291.380702 
L 103.06063 294.275243 
L 103.06063 294.275243 
L 103.51029 295.136361 
L 103.51029 295.136361 
L 104.85927 290.823103 
L 104.85927 290.823103 
L 105.75859 288.943291 
L 105.75859 288.943291 
L 106.20825 288.390451 
L 106.20825 288.390451 
L 106.65791 288.143511 
L 106.65791 288.143511 
L 107.10757 288.226265 
L 107.10757 288.226265 
L 107.55723 288.644001 
L 107.55723 288.644001 
L 108.00689 289.369223 
L 108.00689 289.369223 
L 108.90621 291.506551 
L 108.90621 291.506551 
L 109.80553 294.366458 
L 109.80553 294.366458 
L 110.25519 295.051757 
L 110.25519 295.051757 
L 111.60417 290.882855 
L 111.60417 290.882855 
L 112.50349 289.010974 
L 112.50349 289.010974 
L 112.95315 288.497265 
L 112.95315 288.497265 
L 113.40281 288.263544 
L 113.40281 288.263544 
L 113.85247 288.333343 
L 113.85247 288.333343 
L 114.30213 288.714064 
L 114.75179 289.327978 
L 114.75179 289.327978 
L 115.651111 291.267278 
L 115.651111 291.267278 
L 117.000091 295.080311 
L 117.000091 295.080311 
L 117.449751 294.621858 
L 117.899411 295.488 
L 117.899411 295.488 
L 118.349071 292.478185 
L 118.349071 292.478185 
L 118.798731 291.644034 
L 119.248391 291.064756 
L 119.248391 291.064756 
L 119.698051 290.68139 
L 120.147711 290.547873 
L 120.147711 290.547873 
L 120.597371 290.674252 
L 120.597371 290.674252 
L 121.047031 291.062905 
L 121.496691 291.700349 
L 121.496691 291.700349 
L 121.946351 292.566226 
L 121.946351 292.566226 
L 122.396011 295.488 
L 122.396011 295.488 
L 122.845671 294.714131 
L 122.845671 294.714131 
L 123.295331 295.037744 
L 123.295331 295.037744 
L 125.543631 289.299424 
L 125.543631 289.299424 
L 126.442951 287.664701 
L 126.442951 287.664701 
L 127.342271 287.071145 
L 127.342271 287.071145 
L 127.791932 286.99976 
L 127.791932 286.99976 
L 128.691252 287.621341 
L 128.691252 287.621341 
L 129.140912 288.107554 
L 129.140912 288.107554 
L 131.389212 291.78654 
L 131.389212 291.78654 
L 132.288532 292.655061 
L 132.288532 292.655061 
L 133.187852 292.65797 
L 133.187852 292.65797 
L 133.637512 292.238383 
L 133.637512 292.238383 
L 134.087172 291.375943 
L 134.087172 291.375943 
L 134.536832 290.942608 
L 134.536832 290.942608 
L 134.986492 289.704734 
L 134.986492 289.704734 
L 135.436152 288.905218 
L 135.436152 288.905218 
L 135.885812 287.508446 
L 135.885812 287.508446 
L 136.335472 285.730159 
L 136.335472 285.730159 
L 136.785132 285.28757 
L 137.234792 283.815183 
L 137.234792 283.815183 
L 137.684452 283.571944 
L 137.684452 283.571944 
L 138.134112 282.570699 
L 138.134112 282.570699 
L 138.583772 282.710826 
L 138.583772 282.710826 
L 139.483092 282.027378 
L 139.483092 282.027378 
L 139.932752 283.672148 
L 139.932752 283.672148 
L 140.382412 284.02643 
L 140.382412 284.02643 
L 140.832073 286.146309 
L 140.832073 286.146309 
L 141.281733 287.083307 
L 141.281733 287.083307 
L 141.731393 289.424745 
L 141.731393 289.424745 
L 142.181053 290.62957 
L 142.181053 290.62957 
L 142.630713 292.903588 
L 142.630713 292.903588 
L 143.530033 295.025318 
L 143.530033 295.025318 
L 143.979693 295.488 
L 143.979693 295.488 
L 144.879013 292.956995 
L 144.879013 292.956995 
L 145.328673 293.550021 
L 145.328673 293.550021 
L 145.778333 293.733508 
L 145.778333 293.733508 
L 146.227993 295.351046 
L 146.227993 295.351046 
L 146.677653 294.089113 
L 146.677653 294.089113 
L 149.375613 277.031993 
L 149.375613 277.031993 
L 150.274933 272.555078 
L 150.274933 272.555078 
L 150.724593 273.316257 
L 150.724593 273.316257 
L 151.174253 272.80995 
L 151.174253 272.80995 
L 151.623913 274.888848 
L 151.623913 274.888848 
L 152.073573 276.136505 
L 154.321874 293.410688 
L 154.321874 293.410688 
L 154.771534 292.318229 
L 154.771534 292.318229 
L 155.221194 288.648496 
L 155.221194 288.648496 
L 155.670854 283.907719 
L 155.670854 283.907719 
L 157.019834 274.006315 
L 157.019834 274.006315 
L 157.469494 271.496196 
L 157.469494 271.496196 
L 157.919154 269.957975 
L 157.919154 269.957975 
L 158.368814 269.112192 
L 158.368814 269.112192 
L 158.818474 268.941131 
L 158.818474 268.941131 
L 159.268134 269.457749 
L 159.268134 269.457749 
L 159.717794 270.848969 
L 159.717794 270.848969 
L 160.617114 274.94437 
L 160.617114 274.94437 
L 163.315074 294.939391 
L 163.315074 294.939391 
L 163.764734 291.365103 
L 163.764734 291.365103 
L 164.214394 288.756102 
L 164.214394 288.756102 
L 164.664054 285.241302 
L 164.664054 285.241302 
L 165.113714 283.275298 
L 165.113714 283.275298 
L 166.013035 280.964794 
L 166.013035 280.964794 
L 166.462695 281.558879 
L 166.462695 281.558879 
L 167.362015 285.200586 
L 167.362015 285.200586 
L 168.261335 292.083715 
L 168.261335 292.083715 
L 168.710995 294.622387 
L 168.710995 294.622387 
L 169.610315 286.248099 
L 169.610315 286.248099 
L 170.509635 278.189228 
L 170.509635 278.189228 
L 171.858615 271.936934 
L 171.858615 271.936934 
L 172.757935 272.86415 
L 172.757935 272.86415 
L 173.207595 274.218091 
L 173.207595 274.218091 
L 174.106915 281.111795 
L 174.106915 281.111795 
L 175.455895 295.001522 
L 175.455895 295.001522 
L 176.355215 283.225593 
L 176.355215 283.225593 
L 178.153855 263.560531 
L 178.153855 263.560531 
L 178.603515 259.489719 
L 178.603515 259.489719 
L 179.053176 256.997579 
L 179.053176 256.997579 
L 179.952496 253.995166 
L 179.952496 253.995166 
L 180.402156 253.965554 
L 180.402156 253.965554 
L 180.851816 254.680465 
L 181.301476 255.664789 
L 181.301476 255.664789 
L 182.200796 259.771823 
L 182.200796 259.771823 
L 183.100116 265.179655 
L 183.100116 265.179655 
L 185.348416 279.595254 
L 185.348416 279.595254 
L 186.247736 283.383169 
L 186.247736 283.383169 
L 186.697396 284.302718 
L 186.697396 284.302718 
L 187.147056 284.310649 
L 187.147056 284.310649 
L 187.596716 284.567636 
L 187.596716 284.567636 
L 188.496036 282.17808 
L 188.496036 282.17808 
L 188.945696 279.943191 
L 188.945696 279.943191 
L 190.744336 267.818003 
L 190.744336 267.818003 
L 191.193996 265.9448 
L 191.193996 265.9448 
L 191.643657 263.262563 
L 191.643657 263.262563 
L 192.542977 261.282283 
L 192.542977 261.282283 
L 192.992637 261.06654 
L 192.992637 261.06654 
L 193.891957 265.852528 
L 193.891957 265.852528 
L 194.791277 275.801787 
L 194.791277 275.801787 
L 195.240937 281.756642 
L 195.240937 281.756642 
L 195.690597 290.121412 
L 195.690597 290.121412 
L 196.140257 293.12171 
L 196.140257 293.12171 
L 197.489237 266.271586 
L 197.489237 266.271586 
L 198.388557 250.907091 
L 198.388557 250.907091 
L 198.838217 245.010402 
L 198.838217 245.010402 
L 199.737537 237.041423 
L 199.737537 237.041423 
L 200.187197 236.171052 
L 200.187197 236.171052 
L 200.636857 236.035684 
L 200.636857 236.035684 
L 201.086517 238.757843 
L 201.086517 238.757843 
L 201.536177 242.399551 
L 201.536177 242.399551 
L 201.985837 248.389041 
L 201.985837 248.389041 
L 203.334817 273.341374 
L 203.334817 273.341374 
L 204.234137 292.453067 
L 204.234137 292.453067 
L 204.683798 289.572274 
L 204.683798 289.572274 
L 205.583118 272.690974 
L 205.583118 272.690974 
L 206.482438 260.34925 
L 206.482438 260.34925 
L 206.932098 257.846799 
L 206.932098 257.846799 
L 207.381758 256.387631 
L 207.381758 256.387631 
L 207.831418 257.633437 
L 207.831418 257.633437 
L 208.281078 260.384679 
L 208.281078 260.384679 
L 208.730738 264.962855 
L 208.730738 264.962855 
L 209.630058 281.115232 
L 209.630058 281.115232 
L 210.079718 291.947554 
L 210.079718 291.947554 
L 210.529378 287.594637 
L 210.529378 287.594637 
L 211.428698 261.537948 
L 211.428698 261.537948 
L 213.676998 198.76833 
L 213.676998 198.76833 
L 214.126658 188.502068 
L 214.126658 188.502068 
L 215.025978 174.228975 
L 215.025978 174.228975 
L 215.475638 170.479661 
L 215.475638 170.479661 
L 215.925298 168.286017 
L 215.925298 168.286017 
L 216.374958 168.962327 
L 216.374958 168.962327 
L 216.824618 172.196609 
L 217.274279 176.380316 
L 217.274279 176.380316 
L 218.173599 192.007086 
L 218.173599 192.007086 
L 219.522579 226.917931 
L 219.522579 226.917931 
L 221.770879 291.98827 
L 221.770879 291.98827 
L 222.220539 288.764299 
L 222.220539 288.764299 
L 222.670199 279.168529 
L 222.670199 279.168529 
L 223.569519 266.299876 
L 223.569519 266.299876 
L 224.019179 262.344073 
L 224.019179 262.344073 
L 224.468839 261.246326 
L 224.468839 261.246326 
L 224.918499 261.490093 
L 224.918499 261.490093 
L 225.368159 263.402955 
L 225.368159 263.402955 
L 226.267479 272.983918 
L 226.267479 272.983918 
L 226.717139 278.909427 
L 226.717139 278.909427 
L 227.616459 293.751487 
L 227.616459 293.751487 
L 228.066119 289.355475 
L 228.066119 289.355475 
L 229.415099 269.806215 
L 229.415099 269.806215 
L 229.86476 265.279595 
L 229.86476 265.279595 
L 230.76408 259.334257 
L 230.76408 259.334257 
L 231.21374 258.663235 
L 231.21374 258.663235 
L 231.6634 258.758945 
L 231.6634 258.758945 
L 232.11306 260.514494 
L 232.11306 260.514494 
L 233.01238 266.804332 
L 233.01238 266.804332 
L 234.36136 281.049663 
L 234.36136 281.049663 
L 235.26068 291.241897 
L 235.26068 291.241897 
L 235.71034 295.149845 
L 235.71034 295.149845 
L 236.60966 289.196576 
L 236.60966 289.196576 
L 237.05932 287.79293 
L 237.05932 287.79293 
L 237.50898 287.002404 
L 237.50898 287.002404 
L 237.95864 287.189063 
L 237.95864 287.189063 
L 238.4083 288.921611 
L 238.4083 288.921611 
L 238.85796 291.355849 
L 238.85796 291.355849 
L 239.30762 294.546772 
L 239.30762 294.546772 
L 239.75728 292.587113 
L 239.75728 292.587113 
L 242.45524 263.397138 
L 242.45524 263.397138 
L 243.354561 256.03705 
L 243.354561 256.03705 
L 243.804221 253.554428 
L 243.804221 253.554428 
L 244.703541 250.557303 
L 244.703541 250.557303 
L 245.153201 250.222586 
L 245.153201 250.222586 
L 245.602861 250.5848 
L 245.602861 250.5848 
L 246.502181 252.724243 
L 246.502181 252.724243 
L 247.401501 256.557634 
L 247.401501 256.557634 
L 249.649801 267.274946 
L 249.649801 267.274946 
L 250.099461 269.073062 
L 250.099461 269.073062 
L 250.998781 271.568639 
L 250.998781 271.568639 
L 251.898101 273.199396 
L 251.898101 273.199396 
L 252.347761 273.64648 
L 252.347761 273.64648 
L 253.696741 273.591751 
L 253.696741 273.591751 
L 255.495382 273.209179 
L 255.495382 273.209179 
L 255.945042 273.442371 
L 255.945042 273.442371 
L 256.844362 274.48486 
L 256.844362 274.48486 
L 257.294022 275.367923 
L 257.294022 275.367923 
L 258.193342 277.88095 
L 258.193342 277.88095 
L 259.542322 283.006678 
L 259.542322 283.006678 
L 261.790622 292.455183 
L 261.790622 292.455183 
L 262.689942 295.45548 
L 262.689942 295.45548 
L 263.139602 294.228975 
L 263.139602 294.228975 
L 264.038922 292.726447 
L 264.038922 292.726447 
L 264.488582 292.357094 
L 264.488582 292.357094 
L 264.938242 292.224899 
L 264.938242 292.224899 
L 265.387902 292.329333 
L 265.387902 292.329333 
L 266.287222 293.446645 
L 266.287222 293.446645 
L 267.186542 295.218322 
L 267.186542 295.218322 
L 267.636202 294.740041 
L 267.636202 294.740041 
L 268.535523 292.480564 
L 268.535523 292.480564 
L 269.434843 290.699633 
L 269.434843 290.699633 
L 270.334163 289.51543 
L 270.334163 289.51543 
L 270.783823 289.232533 
L 270.783823 289.232533 
L 271.233483 289.152423 
L 271.683143 289.275629 
L 271.683143 289.275629 
L 272.582463 289.919683 
L 272.582463 289.919683 
L 273.481783 291.092781 
L 273.481783 291.092781 
L 274.830763 293.23434 
L 274.830763 293.23434 
L 275.280423 295.488 
L 275.280423 295.488 
L 275.730083 294.898146 
L 275.730083 294.898146 
L 276.179743 295.214885 
L 276.179743 295.214885 
L 279.327363 289.917568 
L 279.327363 289.917568 
L 280.226683 288.866882 
L 280.226683 288.866882 
L 281.126004 288.339953 
L 281.126004 288.339953 
L 282.025324 288.434869 
L 282.025324 288.434869 
L 282.474984 288.572351 
L 282.474984 288.572351 
L 284.723284 291.520564 
L 284.723284 291.520564 
L 285.172944 292.608529 
L 285.172944 292.608529 
L 285.622604 292.970743 
L 285.622604 292.970743 
L 286.072264 293.759154 
L 286.072264 293.759154 
L 286.521924 293.781627 
L 286.521924 293.781627 
L 286.971584 294.066639 
L 286.971584 294.066639 
L 287.870904 293.250203 
L 287.870904 293.250203 
L 288.320564 292.20507 
L 288.320564 292.20507 
L 288.770224 290.529366 
L 288.770224 290.529366 
L 289.219884 289.696009 
L 289.219884 289.696009 
L 289.669544 287.45266 
L 289.669544 287.45266 
L 290.119204 286.176714 
L 290.119204 286.176714 
L 290.568864 283.691448 
L 290.568864 283.691448 
L 291.018524 282.326138 
L 291.018524 282.326138 
L 291.468184 279.75944 
L 291.468184 279.75944 
L 291.917844 278.44648 
L 291.917844 278.44648 
L 292.367504 276.109801 
L 292.367504 276.109801 
L 292.817164 275.252384 
L 292.817164 275.252384 
L 293.266824 273.358823 
L 293.266824 273.358823 
L 293.716485 273.131448 
L 293.716485 273.131448 
L 294.166145 272.721644 
L 294.166145 272.721644 
L 294.615805 272.071244 
L 295.065465 272.173299 
L 295.065465 272.173299 
L 295.515125 271.94513 
L 295.515125 271.94513 
L 295.964785 272.622497 
L 296.414445 272.682778 
L 296.414445 272.682778 
L 296.864105 273.778675 
L 296.864105 273.778675 
L 297.313765 273.850324 
L 297.313765 273.850324 
L 297.763425 274.963935 
L 297.763425 274.963935 
L 298.213085 274.529807 
L 298.213085 274.529807 
L 298.662745 275.36713 
L 298.662745 275.36713 
L 299.112405 274.222321 
L 299.112405 274.222321 
L 299.562065 274.539589 
L 299.562065 274.539589 
L 300.011725 272.367097 
L 300.011725 272.367097 
L 300.461385 271.939578 
L 300.461385 271.939578 
L 300.911045 268.739931 
L 300.911045 268.739931 
L 301.360705 267.526909 
L 301.360705 267.526909 
L 301.810365 263.325488 
L 301.810365 263.325488 
L 302.260025 261.407603 
L 302.260025 261.407603 
L 302.709685 256.471443 
L 302.709685 256.471443 
L 303.159345 254.20139 
L 303.159345 254.20139 
L 303.609005 251.136053 
L 303.609005 251.136053 
L 304.058665 247.231013 
L 304.508325 244.719837 
L 304.508325 244.719837 
L 304.957985 241.439815 
L 304.957985 241.439815 
L 305.407645 239.842899 
L 305.407645 239.842899 
L 305.857305 237.623874 
L 305.857305 237.623874 
L 306.306965 237.460746 
L 306.306965 237.460746 
L 306.756626 236.870627 
L 306.756626 236.870627 
L 307.206286 238.509845 
L 307.206286 238.509845 
L 307.655946 239.671046 
L 307.655946 239.671046 
L 309.454586 253.713062 
L 309.454586 253.713062 
L 309.904246 259.298565 
L 309.904246 259.298565 
L 310.353906 263.271553 
L 310.353906 263.271553 
L 310.803566 268.942718 
L 310.803566 268.942718 
L 311.253226 272.36128 
L 311.702886 277.188248 
L 311.702886 277.188248 
L 312.152546 279.3306 
L 312.152546 279.3306 
L 312.602206 282.705009 
L 312.602206 282.705009 
L 313.051866 284.515023 
L 313.051866 284.515023 
L 313.501526 284.572395 
L 313.501526 284.572395 
L 313.951186 284.391553 
L 313.951186 284.391553 
L 314.850506 280.081203 
L 314.850506 280.081203 
L 315.749826 272.088958 
L 315.749826 272.088958 
L 317.998126 245.115629 
L 317.998126 245.115629 
L 318.897446 237.511509 
L 318.897446 237.511509 
L 319.796767 234.491118 
L 319.796767 234.491118 
L 320.696087 236.888606 
L 320.696087 236.888606 
L 321.595407 245.284838 
L 321.595407 245.284838 
L 322.494727 259.039727 
L 322.494727 259.039727 
L 323.843707 287.404277 
L 323.843707 287.404277 
L 324.293367 293.119595 
L 324.293367 293.119595 
L 326.092007 255.338267 
L 326.092007 255.338267 
L 326.991327 241.408881 
L 326.991327 241.408881 
L 327.890647 232.726579 
L 327.890647 232.726579 
L 328.340307 231.21797 
L 328.340307 231.21797 
L 328.789967 230.359231 
L 328.789967 230.359231 
L 329.239627 232.148622 
L 329.239627 232.148622 
L 329.689287 234.544524 
L 329.689287 234.544524 
L 330.588607 244.560939 
L 330.588607 244.560939 
L 331.487927 259.438162 
L 331.487927 259.438162 
L 333.286568 294.595948 
L 333.286568 294.595948 
L 334.185888 277.203054 
L 334.185888 277.203054 
L 335.085208 263.275254 
L 335.085208 263.275254 
L 335.534868 259.173244 
L 335.534868 259.173244 
L 335.984528 256.10632 
L 335.984528 256.10632 
L 336.434188 255.589702 
L 336.434188 255.589702 
L 336.883848 256.401379 
L 336.883848 256.401379 
L 337.333508 259.542861 
L 337.333508 259.542861 
L 337.783168 264.075563 
L 337.783168 264.075563 
L 338.232828 269.966171 
L 338.232828 269.966171 
L 339.581808 294.409289 
L 339.581808 294.409289 
L 341.830108 245.719495 
L 341.830108 245.719495 
L 342.729428 231.901682 
L 342.729428 231.901682 
L 343.179088 227.42979 
L 343.179088 227.42979 
L 344.078408 222.988039 
L 344.078408 222.988039 
L 344.528068 223.712731 
L 344.528068 223.712731 
L 344.977729 225.422541 
L 345.427389 229.155199 
L 345.427389 229.155199 
L 346.326709 239.844486 
L 346.326709 239.844486 
L 349.474329 287.820955 
L 349.474329 287.820955 
L 349.923989 292.257948 
L 349.923989 292.257948 
L 350.373649 295.125257 
L 350.373649 295.125257 
L 350.823309 292.668545 
L 350.823309 292.668545 
L 351.272969 291.348182 
L 351.272969 291.348182 
L 351.722629 291.250093 
L 351.722629 291.250093 
L 352.172289 291.937243 
L 352.172289 291.937243 
L 352.621949 293.424965 
L 352.621949 293.424965 
L 353.071609 295.44887 
L 353.071609 295.44887 
L 353.970929 290.510859 
L 353.970929 290.510859 
L 354.870249 285.70372 
L 354.870249 285.70372 
L 355.319909 283.789801 
L 355.319909 283.789801 
L 355.769569 282.378487 
L 355.769569 282.378487 
L 356.219229 281.518956 
L 356.219229 281.518956 
L 356.668889 281.695039 
L 356.668889 281.695039 
L 357.118549 282.270352 
L 357.118549 282.270352 
L 357.56821 283.548149 
L 357.56821 283.548149 
L 358.46753 288.639771 
L 358.46753 288.639771 
L 359.36685 295.089564 
L 359.36685 295.089564 
L 361.61515 274.744491 
L 361.61515 274.744491 
L 362.06481 271.625483 
L 362.06481 271.625483 
L 362.51447 269.363891 
L 362.51447 269.363891 
L 362.96413 267.980867 
L 362.96413 267.980867 
L 363.41379 267.71304 
L 363.41379 267.71304 
L 363.86345 268.690225 
L 363.86345 268.690225 
L 364.31311 270.871707 
L 364.31311 270.871707 
L 364.76277 274.13375 
L 364.76277 274.13375 
L 365.66209 283.994439 
L 365.66209 283.994439 
L 366.11175 290.253872 
L 366.11175 290.253872 
L 366.56141 294.06849 
L 368.36005 266.960057 
L 368.36005 266.960057 
L 369.25937 257.669129 
L 369.25937 257.669129 
L 369.70903 255.451426 
L 369.70903 255.451426 
L 370.158691 254.477149 
L 370.608351 254.787543 
L 370.608351 254.787543 
L 371.058011 257.094081 
L 371.058011 257.094081 
L 371.507671 260.361412 
L 372.406991 271.143235 
L 372.406991 271.143235 
L 373.755971 294.037028 
L 373.755971 294.037028 
L 374.205631 288.613861 
L 374.205631 288.613861 
L 376.004271 260.862431 
L 376.004271 260.862431 
L 376.453931 255.484739 
L 376.453931 255.484739 
L 377.353251 248.767383 
L 377.353251 248.767383 
L 377.802911 248.6841 
L 377.802911 248.6841 
L 378.252571 247.137683 
L 378.252571 247.137683 
L 378.702231 247.562558 
L 378.702231 247.562558 
L 379.601551 253.467444 
L 379.601551 253.467444 
L 380.051211 260.207009 
L 380.051211 260.207009 
L 380.500871 264.624701 
L 380.500871 264.624701 
L 380.950531 270.818565 
L 380.950531 270.818565 
L 381.849851 287.602569 
L 381.849851 287.602569 
L 382.299511 294.848705 
L 382.299511 294.848705 
L 383.648492 264.634219 
L 383.648492 264.634219 
L 385.447132 236.900503 
L 385.447132 236.900503 
L 385.896792 231.299931 
L 385.896792 231.299931 
L 386.346452 230.16702 
L 386.346452 230.16702 
L 386.796112 228.142057 
L 386.796112 228.142057 
L 387.245772 231.287504 
L 387.245772 231.287504 
L 388.145092 241.191024 
L 388.145092 241.191024 
L 389.044412 259.167163 
L 389.044412 259.167163 
L 389.943732 285.625461 
L 389.943732 285.625461 
L 390.393392 292.337265 
L 390.393392 292.337265 
L 395.339652 119.48095 
L 395.339652 119.48095 
L 397.138293 77.789294 
L 397.138293 77.789294 
L 398.037613 59.995056 
L 398.037613 59.995056 
L 398.487273 53.568 
L 398.487273 53.568 
" clip-path="url(#p3c7669016d)" style="fill: none; stroke: #1f77b4; stroke-width: 1.5; stroke-linecap: square"/>
   </g>
   <g id="patch_3">
    <path d="M 57.6 307.584 
L 57.6 41.472 
" style="fill: none; stroke: #000000; stroke-width: 0.8; stroke-linejoin: miter; stroke-linecap: square"/>
   </g>
   <g id="patch_4">
    <path d="M 414.72 307.584 
L 414.72 41.472 
" style="fill: none; stroke: #000000; stroke-width: 0.8; stroke-linejoin: miter; stroke-linecap: square"/>
   </g>
   <g id="patch_5">
    <path d="M 57.6 307.584 
L 414.72 307.584 
" style="fill: none; stroke: #000000; stroke-width: 0.8; stroke-linejoin: miter; stroke-linecap: square"/>
   </g>
   <g id="patch_6">
    <path d="M 57.6 41.472 
L 414.72 41.472 
" style="fill: none; stroke: #000000; stroke-width: 0.8; stroke-linejoin: miter; stroke-linecap: square"/>
   </g>
   <g id="text_16">
    <!-- Tracking error vs Time -->
    <g transform="translate(169.584375 35.472) scale(0.12 -0.12)">
     <defs>
      <path id="DejaVuSans-76" d="M 191 3500 
L 800 3500 
L 1894 563 
L 2988 3500 
L 3597 3500 
L 2284 0 
L 1503 0 
L 191 3500 
z
" transform="scale(0.015625)"/>
     </defs>
     <use xlink:href="#DejaVuSans-54"/>
     <use xlink:href="#DejaVuSans-72" x="46.333984"/>
     <use xlink:href="#DejaVuSans-61" x="87.447266"/>
     <use xlink:href="#DejaVuSans-63" x="148.726562"/>
     <use xlink:href="#DejaVuSans-6b" x="203.707031"/>
     <use xlink:href="#DejaVuSans-69" x="261.617188"/>
     <use xlink:href="#DejaVuSans-6e" x="289.400391"/>
     <use xlink:href="#DejaVuSans-67" x="352.779297"/>
     <use xlink:href="#DejaVuSans-20" x="416.255859"/>
     <use xlink:href="#DejaVuSans-65" x="448.042969"/>
     <use xlink:href="#DejaVuSans-72" x="509.566406"/>
     <use xlink:href="#DejaVuSans-72" x="548.929688"/>
     <use xlink:href="#DejaVuSans-6f" x="587.792969"/>
     <use xlink:href="#DejaVuSans-72" x="648.974609"/>
     <use xlink:href="#DejaVuSans-20" x="690.087891"/>
     <use xlink:href="#DejaVuSans-76" x="721.875"/>
     <use xlink:href="#DejaVuSans-73" x="781.054688"/>
     <use xlink:href="#DejaVuSans-20" x="833.154297"/>
     <use xlink:href="#DejaVuSans-54" x="864.941406"/>
     <use xlink:href="#DejaVuSans-69" x="922.900391"/>
     <use xlink:href="#DejaVuSans-6d" x="950.683594"/>
     <use xlink:href="#DejaVuSans-65" x="1048.095703"/>
    </g>
   </g>
   <g id="legend_1">
    <g id="patch_7">
     <path d="M 64.6 64.150125 
L 161.31875 64.150125 
Q 163.31875 64.150125 163.31875 62.150125 
L 163.31875 48.472 
Q 163.31875 46.472 161.31875 46.472 
L 64.6 46.472 
Q 62.6 46.472 62.6 48.472 
L 62.6 62.150125 
Q 62.6 64.150125 64.6 64.150125 
z
" style="fill: #ffffff; opacity: 0.8; stroke: #cccccc; stroke-linejoin: miter"/>
    </g>
    <g id="line2d_28">
     <path d="M 66.6 54.570438 
L 76.6 54.570438 
L 86.6 54.570438 
" style="fill: none; stroke: #1f77b4; stroke-width: 1.5; stroke-linecap: square"/>
    </g>
    <g id="text_17">
     <!-- Actual speed -->
     <g transform="translate(94.6 58.070438) scale(0.1 -0.1)">
      <defs>
       <path id="DejaVuSans-41" d="M 2188 4044 
L 1331 1722 
L 3047 1722 
L 2188 4044 
z
M 1831 4666 
L 2547 4666 
L 4325 0 
L 3669 0 
L 3244 1197 
L 1141 1197 
L 716 0 
L 50 0 
L 1831 4666 
z
" transform="scale(0.015625)"/>
       <path id="DejaVuSans-74" d="M 1172 4494 
L 1172 3500 
L 2356 3500 
L 2356 3053 
L 1172 3053 
L 1172 1153 
Q 1172 725 1289 603 
Q 1406 481 1766 481 
L 2356 481 
L 2356 0 
L 1766 0 
Q 1100 0 847 248 
Q 594 497 594 1153 
L 594 3053 
L 172 3053 
L 172 3500 
L 594 3500 
L 594 4494 
L 1172 4494 
z
" transform="scale(0.015625)"/>
       <path id="DejaVuSans-75" d="M 544 1381 
L 544 3500 
L 1119 3500 
L 1119 1403 
Q 1119 906 1312 657 
Q 1506 409 1894 409 
Q 2359 409 2629 706 
Q 2900 1003 2900 1516 
L 2900 3500 
L 3475 3500 
L 3475 0 
L 2900 0 
L 2900 538 
Q 2691 219 2414 64 
Q 2138 -91 1772 -91 
Q 1169 -91 856 284 
Q 544 659 544 1381 
z
M 1991 3584 
L 1991 3584 
z
" transform="scale(0.015625)"/>
       <path id="DejaVuSans-6c" d="M 603 4863 
L 1178 4863 
L 1178 0 
L 603 0 
L 603 4863 
z
" transform="scale(0.015625)"/>
       <path id="DejaVuSans-70" d="M 1159 525 
L 1159 -1331 
L 581 -1331 
L 581 3500 
L 1159 3500 
L 1159 2969 
Q 1341 3281 1617 3432 
Q 1894 3584 2278 3584 
Q 2916 3584 3314 3078 
Q 3713 2572 3713 1747 
Q 3713 922 3314 415 
Q 2916 -91 2278 -91 
Q 1894 -91 1617 61 
Q 1341 213 1159 525 
z
M 3116 1747 
Q 3116 2381 2855 2742 
Q 2594 3103 2138 3103 
Q 1681 3103 1420 2742 
Q 1159 2381 1159 1747 
Q 1159 1113 1420 752 
Q 1681 391 2138 391 
Q 2594 391 2855 752 
Q 3116 1113 3116 1747 
z
" transform="scale(0.015625)"/>
       <path id="DejaVuSans-64" d="M 2906 2969 
L 2906 4863 
L 3481 4863 
L 3481 0 
L 2906 0 
L 2906 525 
Q 2725 213 2448 61 
Q 2172 -91 1784 -91 
Q 1150 -91 751 415 
Q 353 922 353 1747 
Q 353 2572 751 3078 
Q 1150 3584 1784 3584 
Q 2172 3584 2448 3432 
Q 2725 3281 2906 2969 
z
M 947 1747 
Q 947 1113 1208 752 
Q 1469 391 1925 391 
Q 2381 391 2643 752 
Q 2906 1113 2906 1747 
Q 2906 2381 2643 2742 
Q 2381 3103 1925 3103 
Q 1469 3103 1208 2742 
Q 947 2381 947 1747 
z
" transform="scale(0.015625)"/>
      </defs>
      <use xlink:href="#DejaVuSans-41"/>
      <use xlink:href="#DejaVuSans-63" x="66.658203"/>
      <use xlink:href="#DejaVuSans-74" x="121.638672"/>
      <use xlink:href="#DejaVuSans-75" x="160.847656"/>
      <use xlink:href="#DejaVuSans-61" x="224.226562"/>
      <use xlink:href="#DejaVuSans-6c" x="285.505859"/>
      <use xlink:href="#DejaVuSans-20" x="313.289062"/>
      <use xlink:href="#DejaVuSans-73" x="345.076172"/>
      <use xlink:href="#DejaVuSans-70" x="397.175781"/>
      <use xlink:href="#DejaVuSans-65" x="460.652344"/>
      <use xlink:href="#DejaVuSans-65" x="522.175781"/>
      <use xlink:href="#DejaVuSans-64" x="583.699219"/>
     </g>
    </g>
   </g>
  </g>
 </g>
 <defs>
  <clipPath id="p3c7669016d">
   <rect x="57.6" y="41.472" width="357.12" height="266.112"/>
  </clipPath>
 </defs>
</svg>
