<?xml version="1.0" encoding="utf-8" standalone="no"?>
<!DOCTYPE svg PUBLIC "-//W3C//DTD SVG 1.1//EN"
  "http://www.w3.org/Graphics/SVG/1.1/DTD/svg11.dtd">
<svg xmlns:xlink="http://www.w3.org/1999/xlink" width="460.8pt" height="345.6pt" viewBox="0 0 460.8 345.6" xmlns="http://www.w3.org/2000/svg" version="1.1">
 <metadata>
  <rdf:RDF xmlns:dc="http://purl.org/dc/elements/1.1/" xmlns:cc="http://creativecommons.org/ns#" xmlns:rdf="http://www.w3.org/1999/02/22-rdf-syntax-ns#">
   <cc:Work>
    <dc:type rdf:resource="http://purl.org/dc/dcmitype/StillImage"/>
    <dc:date>2024-01-30T20:58:26.548020</dc:date>
    <dc:format>image/svg+xml</dc:format>
    <dc:creator>
     <cc:Agent>
      <dc:title>Matplotlib v3.7.1, https://matplotlib.org/</dc:title>
     </cc:Agent>
    </dc:creator>
   </cc:Work>
  </rdf:RDF>
 </metadata>
 <defs>
  <style type="text/css">*{stroke-linejoin: round; stroke-linecap: butt}</style>
 </defs>
 <g id="figure_1">
  <g id="patch_1">
   <path d="M 0 345.6 
L 460.8 345.6 
L 460.8 0 
L 0 0 
z
" style="fill: #ffffff"/>
  </g>
  <g id="axes_1">
   <g id="patch_2">
    <path d="M 57.6 307.584 
L 414.72 307.584 
L 414.72 41.472 
L 57.6 41.472 
z
" style="fill: #ffffff"/>
   </g>
   <g id="matplotlib.axis_1">
    <g id="xtick_1">
     <g id="line2d_1">
      <path d="M 73.832727 307.584 
L 73.832727 41.472 
" clip-path="url(#p418d5ddc4b)" style="fill: none; stroke: #b0b0b0; stroke-width: 0.8; stroke-linecap: square"/>
     </g>
     <g id="line2d_2">
      <defs>
       <path id="m869acbb84b" d="M 0 0 
L 0 3.5 
" style="stroke: #000000; stroke-width: 0.8"/>
      </defs>
      <g>
       <use xlink:href="#m869acbb84b" x="73.832727" y="307.584" style="stroke: #000000; stroke-width: 0.8"/>
      </g>
     </g>
     <g id="text_1">
      <!-- 0 -->
      <g transform="translate(70.651477 322.182437) scale(0.1 -0.1)">
       <defs>
        <path id="DejaVuSans-30" d="M 2034 4250 
Q 1547 4250 1301 3770 
Q 1056 3291 1056 2328 
Q 1056 1369 1301 889 
Q 1547 409 2034 409 
Q 2525 409 2770 889 
Q 3016 1369 3016 2328 
Q 3016 3291 2770 3770 
Q 2525 4250 2034 4250 
z
M 2034 4750 
Q 2819 4750 3233 4129 
Q 3647 3509 3647 2328 
Q 3647 1150 3233 529 
Q 2819 -91 2034 -91 
Q 1250 -91 836 529 
Q 422 1150 422 2328 
Q 422 3509 836 4129 
Q 1250 4750 2034 4750 
z
" transform="scale(0.015625)"/>
       </defs>
       <use xlink:href="#DejaVuSans-30"/>
      </g>
     </g>
    </g>
    <g id="xtick_2">
     <g id="line2d_3">
      <path d="M 113.864114 307.584 
L 113.864114 41.472 
" clip-path="url(#p418d5ddc4b)" style="fill: none; stroke: #b0b0b0; stroke-width: 0.8; stroke-linecap: square"/>
     </g>
     <g id="line2d_4">
      <g>
       <use xlink:href="#m869acbb84b" x="113.864114" y="307.584" style="stroke: #000000; stroke-width: 0.8"/>
      </g>
     </g>
     <g id="text_2">
      <!-- 2 -->
      <g transform="translate(110.682864 322.182437) scale(0.1 -0.1)">
       <defs>
        <path id="DejaVuSans-32" d="M 1228 531 
L 3431 531 
L 3431 0 
L 469 0 
L 469 531 
Q 828 903 1448 1529 
Q 2069 2156 2228 2338 
Q 2531 2678 2651 2914 
Q 2772 3150 2772 3378 
Q 2772 3750 2511 3984 
Q 2250 4219 1831 4219 
Q 1534 4219 1204 4116 
Q 875 4013 500 3803 
L 500 4441 
Q 881 4594 1212 4672 
Q 1544 4750 1819 4750 
Q 2544 4750 2975 4387 
Q 3406 4025 3406 3419 
Q 3406 3131 3298 2873 
Q 3191 2616 2906 2266 
Q 2828 2175 2409 1742 
Q 1991 1309 1228 531 
z
" transform="scale(0.015625)"/>
       </defs>
       <use xlink:href="#DejaVuSans-32"/>
      </g>
     </g>
    </g>
    <g id="xtick_3">
     <g id="line2d_5">
      <path d="M 153.895501 307.584 
L 153.895501 41.472 
" clip-path="url(#p418d5ddc4b)" style="fill: none; stroke: #b0b0b0; stroke-width: 0.8; stroke-linecap: square"/>
     </g>
     <g id="line2d_6">
      <g>
       <use xlink:href="#m869acbb84b" x="153.895501" y="307.584" style="stroke: #000000; stroke-width: 0.8"/>
      </g>
     </g>
     <g id="text_3">
      <!-- 4 -->
      <g transform="translate(150.714251 322.182437) scale(0.1 -0.1)">
       <defs>
        <path id="DejaVuSans-34" d="M 2419 4116 
L 825 1625 
L 2419 1625 
L 2419 4116 
z
M 2253 4666 
L 3047 4666 
L 3047 1625 
L 3713 1625 
L 3713 1100 
L 3047 1100 
L 3047 0 
L 2419 0 
L 2419 1100 
L 313 1100 
L 313 1709 
L 2253 4666 
z
" transform="scale(0.015625)"/>
       </defs>
       <use xlink:href="#DejaVuSans-34"/>
      </g>
     </g>
    </g>
    <g id="xtick_4">
     <g id="line2d_7">
      <path d="M 193.926887 307.584 
L 193.926887 41.472 
" clip-path="url(#p418d5ddc4b)" style="fill: none; stroke: #b0b0b0; stroke-width: 0.8; stroke-linecap: square"/>
     </g>
     <g id="line2d_8">
      <g>
       <use xlink:href="#m869acbb84b" x="193.926887" y="307.584" style="stroke: #000000; stroke-width: 0.8"/>
      </g>
     </g>
     <g id="text_4">
      <!-- 6 -->
      <g transform="translate(190.745637 322.182437) scale(0.1 -0.1)">
       <defs>
        <path id="DejaVuSans-36" d="M 2113 2584 
Q 1688 2584 1439 2293 
Q 1191 2003 1191 1497 
Q 1191 994 1439 701 
Q 1688 409 2113 409 
Q 2538 409 2786 701 
Q 3034 994 3034 1497 
Q 3034 2003 2786 2293 
Q 2538 2584 2113 2584 
z
M 3366 4563 
L 3366 3988 
Q 3128 4100 2886 4159 
Q 2644 4219 2406 4219 
Q 1781 4219 1451 3797 
Q 1122 3375 1075 2522 
Q 1259 2794 1537 2939 
Q 1816 3084 2150 3084 
Q 2853 3084 3261 2657 
Q 3669 2231 3669 1497 
Q 3669 778 3244 343 
Q 2819 -91 2113 -91 
Q 1303 -91 875 529 
Q 447 1150 447 2328 
Q 447 3434 972 4092 
Q 1497 4750 2381 4750 
Q 2619 4750 2861 4703 
Q 3103 4656 3366 4563 
z
" transform="scale(0.015625)"/>
       </defs>
       <use xlink:href="#DejaVuSans-36"/>
      </g>
     </g>
    </g>
    <g id="xtick_5">
     <g id="line2d_9">
      <path d="M 233.958274 307.584 
L 233.958274 41.472 
" clip-path="url(#p418d5ddc4b)" style="fill: none; stroke: #b0b0b0; stroke-width: 0.8; stroke-linecap: square"/>
     </g>
     <g id="line2d_10">
      <g>
       <use xlink:href="#m869acbb84b" x="233.958274" y="307.584" style="stroke: #000000; stroke-width: 0.8"/>
      </g>
     </g>
     <g id="text_5">
      <!-- 8 -->
      <g transform="translate(230.777024 322.182437) scale(0.1 -0.1)">
       <defs>
        <path id="DejaVuSans-38" d="M 2034 2216 
Q 1584 2216 1326 1975 
Q 1069 1734 1069 1313 
Q 1069 891 1326 650 
Q 1584 409 2034 409 
Q 2484 409 2743 651 
Q 3003 894 3003 1313 
Q 3003 1734 2745 1975 
Q 2488 2216 2034 2216 
z
M 1403 2484 
Q 997 2584 770 2862 
Q 544 3141 544 3541 
Q 544 4100 942 4425 
Q 1341 4750 2034 4750 
Q 2731 4750 3128 4425 
Q 3525 4100 3525 3541 
Q 3525 3141 3298 2862 
Q 3072 2584 2669 2484 
Q 3125 2378 3379 2068 
Q 3634 1759 3634 1313 
Q 3634 634 3220 271 
Q 2806 -91 2034 -91 
Q 1263 -91 848 271 
Q 434 634 434 1313 
Q 434 1759 690 2068 
Q 947 2378 1403 2484 
z
M 1172 3481 
Q 1172 3119 1398 2916 
Q 1625 2713 2034 2713 
Q 2441 2713 2670 2916 
Q 2900 3119 2900 3481 
Q 2900 3844 2670 4047 
Q 2441 4250 2034 4250 
Q 1625 4250 1398 4047 
Q 1172 3844 1172 3481 
z
" transform="scale(0.015625)"/>
       </defs>
       <use xlink:href="#DejaVuSans-38"/>
      </g>
     </g>
    </g>
    <g id="xtick_6">
     <g id="line2d_11">
      <path d="M 273.98966 307.584 
L 273.98966 41.472 
" clip-path="url(#p418d5ddc4b)" style="fill: none; stroke: #b0b0b0; stroke-width: 0.8; stroke-linecap: square"/>
     </g>
     <g id="line2d_12">
      <g>
       <use xlink:href="#m869acbb84b" x="273.98966" y="307.584" style="stroke: #000000; stroke-width: 0.8"/>
      </g>
     </g>
     <g id="text_6">
      <!-- 10 -->
      <g transform="translate(267.62716 322.182437) scale(0.1 -0.1)">
       <defs>
        <path id="DejaVuSans-31" d="M 794 531 
L 1825 531 
L 1825 4091 
L 703 3866 
L 703 4441 
L 1819 4666 
L 2450 4666 
L 2450 531 
L 3481 531 
L 3481 0 
L 794 0 
L 794 531 
z
" transform="scale(0.015625)"/>
       </defs>
       <use xlink:href="#DejaVuSans-31"/>
       <use xlink:href="#DejaVuSans-30" x="63.623047"/>
      </g>
     </g>
    </g>
    <g id="xtick_7">
     <g id="line2d_13">
      <path d="M 314.021047 307.584 
L 314.021047 41.472 
" clip-path="url(#p418d5ddc4b)" style="fill: none; stroke: #b0b0b0; stroke-width: 0.8; stroke-linecap: square"/>
     </g>
     <g id="line2d_14">
      <g>
       <use xlink:href="#m869acbb84b" x="314.021047" y="307.584" style="stroke: #000000; stroke-width: 0.8"/>
      </g>
     </g>
     <g id="text_7">
      <!-- 12 -->
      <g transform="translate(307.658547 322.182437) scale(0.1 -0.1)">
       <use xlink:href="#DejaVuSans-31"/>
       <use xlink:href="#DejaVuSans-32" x="63.623047"/>
      </g>
     </g>
    </g>
    <g id="xtick_8">
     <g id="line2d_15">
      <path d="M 354.052434 307.584 
L 354.052434 41.472 
" clip-path="url(#p418d5ddc4b)" style="fill: none; stroke: #b0b0b0; stroke-width: 0.8; stroke-linecap: square"/>
     </g>
     <g id="line2d_16">
      <g>
       <use xlink:href="#m869acbb84b" x="354.052434" y="307.584" style="stroke: #000000; stroke-width: 0.8"/>
      </g>
     </g>
     <g id="text_8">
      <!-- 14 -->
      <g transform="translate(347.689934 322.182437) scale(0.1 -0.1)">
       <use xlink:href="#DejaVuSans-31"/>
       <use xlink:href="#DejaVuSans-34" x="63.623047"/>
      </g>
     </g>
    </g>
    <g id="xtick_9">
     <g id="line2d_17">
      <path d="M 394.08382 307.584 
L 394.08382 41.472 
" clip-path="url(#p418d5ddc4b)" style="fill: none; stroke: #b0b0b0; stroke-width: 0.8; stroke-linecap: square"/>
     </g>
     <g id="line2d_18">
      <g>
       <use xlink:href="#m869acbb84b" x="394.08382" y="307.584" style="stroke: #000000; stroke-width: 0.8"/>
      </g>
     </g>
     <g id="text_9">
      <!-- 16 -->
      <g transform="translate(387.72132 322.182437) scale(0.1 -0.1)">
       <use xlink:href="#DejaVuSans-31"/>
       <use xlink:href="#DejaVuSans-36" x="63.623047"/>
      </g>
     </g>
    </g>
    <g id="text_10">
     <!-- Time(s) -->
     <g transform="translate(217.420156 335.860562) scale(0.1 -0.1)">
      <defs>
       <path id="DejaVuSans-54" d="M -19 4666 
L 3928 4666 
L 3928 4134 
L 2272 4134 
L 2272 0 
L 1638 0 
L 1638 4134 
L -19 4134 
L -19 4666 
z
" transform="scale(0.015625)"/>
       <path id="DejaVuSans-69" d="M 603 3500 
L 1178 3500 
L 1178 0 
L 603 0 
L 603 3500 
z
M 603 4863 
L 1178 4863 
L 1178 4134 
L 603 4134 
L 603 4863 
z
" transform="scale(0.015625)"/>
       <path id="DejaVuSans-6d" d="M 3328 2828 
Q 3544 3216 3844 3400 
Q 4144 3584 4550 3584 
Q 5097 3584 5394 3201 
Q 5691 2819 5691 2113 
L 5691 0 
L 5113 0 
L 5113 2094 
Q 5113 2597 4934 2840 
Q 4756 3084 4391 3084 
Q 3944 3084 3684 2787 
Q 3425 2491 3425 1978 
L 3425 0 
L 2847 0 
L 2847 2094 
Q 2847 2600 2669 2842 
Q 2491 3084 2119 3084 
Q 1678 3084 1418 2786 
Q 1159 2488 1159 1978 
L 1159 0 
L 581 0 
L 581 3500 
L 1159 3500 
L 1159 2956 
Q 1356 3278 1631 3431 
Q 1906 3584 2284 3584 
Q 2666 3584 2933 3390 
Q 3200 3197 3328 2828 
z
" transform="scale(0.015625)"/>
       <path id="DejaVuSans-65" d="M 3597 1894 
L 3597 1613 
L 953 1613 
Q 991 1019 1311 708 
Q 1631 397 2203 397 
Q 2534 397 2845 478 
Q 3156 559 3463 722 
L 3463 178 
Q 3153 47 2828 -22 
Q 2503 -91 2169 -91 
Q 1331 -91 842 396 
Q 353 884 353 1716 
Q 353 2575 817 3079 
Q 1281 3584 2069 3584 
Q 2775 3584 3186 3129 
Q 3597 2675 3597 1894 
z
M 3022 2063 
Q 3016 2534 2758 2815 
Q 2500 3097 2075 3097 
Q 1594 3097 1305 2825 
Q 1016 2553 972 2059 
L 3022 2063 
z
" transform="scale(0.015625)"/>
       <path id="DejaVuSans-28" d="M 1984 4856 
Q 1566 4138 1362 3434 
Q 1159 2731 1159 2009 
Q 1159 1288 1364 580 
Q 1569 -128 1984 -844 
L 1484 -844 
Q 1016 -109 783 600 
Q 550 1309 550 2009 
Q 550 2706 781 3412 
Q 1013 4119 1484 4856 
L 1984 4856 
z
" transform="scale(0.015625)"/>
       <path id="DejaVuSans-73" d="M 2834 3397 
L 2834 2853 
Q 2591 2978 2328 3040 
Q 2066 3103 1784 3103 
Q 1356 3103 1142 2972 
Q 928 2841 928 2578 
Q 928 2378 1081 2264 
Q 1234 2150 1697 2047 
L 1894 2003 
Q 2506 1872 2764 1633 
Q 3022 1394 3022 966 
Q 3022 478 2636 193 
Q 2250 -91 1575 -91 
Q 1294 -91 989 -36 
Q 684 19 347 128 
L 347 722 
Q 666 556 975 473 
Q 1284 391 1588 391 
Q 1994 391 2212 530 
Q 2431 669 2431 922 
Q 2431 1156 2273 1281 
Q 2116 1406 1581 1522 
L 1381 1569 
Q 847 1681 609 1914 
Q 372 2147 372 2553 
Q 372 3047 722 3315 
Q 1072 3584 1716 3584 
Q 2034 3584 2315 3537 
Q 2597 3491 2834 3397 
z
" transform="scale(0.015625)"/>
       <path id="DejaVuSans-29" d="M 513 4856 
L 1013 4856 
Q 1481 4119 1714 3412 
Q 1947 2706 1947 2009 
Q 1947 1309 1714 600 
Q 1481 -109 1013 -844 
L 513 -844 
Q 928 -128 1133 580 
Q 1338 1288 1338 2009 
Q 1338 2731 1133 3434 
Q 928 4138 513 4856 
z
" transform="scale(0.015625)"/>
      </defs>
      <use xlink:href="#DejaVuSans-54"/>
      <use xlink:href="#DejaVuSans-69" x="57.958984"/>
      <use xlink:href="#DejaVuSans-6d" x="85.742188"/>
      <use xlink:href="#DejaVuSans-65" x="183.154297"/>
      <use xlink:href="#DejaVuSans-28" x="244.677734"/>
      <use xlink:href="#DejaVuSans-73" x="283.691406"/>
      <use xlink:href="#DejaVuSans-29" x="335.791016"/>
     </g>
    </g>
   </g>
   <g id="matplotlib.axis_2">
    <g id="ytick_1">
     <g id="line2d_19">
      <path d="M 57.6 295.488 
L 414.72 295.488 
" clip-path="url(#p418d5ddc4b)" style="fill: none; stroke: #b0b0b0; stroke-width: 0.8; stroke-linecap: square"/>
     </g>
     <g id="line2d_20">
      <defs>
       <path id="mba7db51f4c" d="M 0 0 
L -3.5 0 
" style="stroke: #000000; stroke-width: 0.8"/>
      </defs>
      <g>
       <use xlink:href="#mba7db51f4c" x="57.6" y="295.488" style="stroke: #000000; stroke-width: 0.8"/>
      </g>
     </g>
     <g id="text_11">
      <!-- 0.0 -->
      <g transform="translate(34.696875 299.287219) scale(0.1 -0.1)">
       <defs>
        <path id="DejaVuSans-2e" d="M 684 794 
L 1344 794 
L 1344 0 
L 684 0 
L 684 794 
z
" transform="scale(0.015625)"/>
       </defs>
       <use xlink:href="#DejaVuSans-30"/>
       <use xlink:href="#DejaVuSans-2e" x="63.623047"/>
       <use xlink:href="#DejaVuSans-30" x="95.410156"/>
      </g>
     </g>
    </g>
    <g id="ytick_2">
     <g id="line2d_21">
      <path d="M 57.6 263.705057 
L 414.72 263.705057 
" clip-path="url(#p418d5ddc4b)" style="fill: none; stroke: #b0b0b0; stroke-width: 0.8; stroke-linecap: square"/>
     </g>
     <g id="line2d_22">
      <g>
       <use xlink:href="#mba7db51f4c" x="57.6" y="263.705057" style="stroke: #000000; stroke-width: 0.8"/>
      </g>
     </g>
     <g id="text_12">
      <!-- 0.1 -->
      <g transform="translate(34.696875 267.504276) scale(0.1 -0.1)">
       <use xlink:href="#DejaVuSans-30"/>
       <use xlink:href="#DejaVuSans-2e" x="63.623047"/>
       <use xlink:href="#DejaVuSans-31" x="95.410156"/>
      </g>
     </g>
    </g>
    <g id="ytick_3">
     <g id="line2d_23">
      <path d="M 57.6 231.922115 
L 414.72 231.922115 
" clip-path="url(#p418d5ddc4b)" style="fill: none; stroke: #b0b0b0; stroke-width: 0.8; stroke-linecap: square"/>
     </g>
     <g id="line2d_24">
      <g>
       <use xlink:href="#mba7db51f4c" x="57.6" y="231.922115" style="stroke: #000000; stroke-width: 0.8"/>
      </g>
     </g>
     <g id="text_13">
      <!-- 0.2 -->
      <g transform="translate(34.696875 235.721333) scale(0.1 -0.1)">
       <use xlink:href="#DejaVuSans-30"/>
       <use xlink:href="#DejaVuSans-2e" x="63.623047"/>
       <use xlink:href="#DejaVuSans-32" x="95.410156"/>
      </g>
     </g>
    </g>
    <g id="ytick_4">
     <g id="line2d_25">
      <path d="M 57.6 200.139172 
L 414.72 200.139172 
" clip-path="url(#p418d5ddc4b)" style="fill: none; stroke: #b0b0b0; stroke-width: 0.8; stroke-linecap: square"/>
     </g>
     <g id="line2d_26">
      <g>
       <use xlink:href="#mba7db51f4c" x="57.6" y="200.139172" style="stroke: #000000; stroke-width: 0.8"/>
      </g>
     </g>
     <g id="text_14">
      <!-- 0.3 -->
      <g transform="translate(34.696875 203.938391) scale(0.1 -0.1)">
       <defs>
        <path id="DejaVuSans-33" d="M 2597 2516 
Q 3050 2419 3304 2112 
Q 3559 1806 3559 1356 
Q 3559 666 3084 287 
Q 2609 -91 1734 -91 
Q 1441 -91 1130 -33 
Q 819 25 488 141 
L 488 750 
Q 750 597 1062 519 
Q 1375 441 1716 441 
Q 2309 441 2620 675 
Q 2931 909 2931 1356 
Q 2931 1769 2642 2001 
Q 2353 2234 1838 2234 
L 1294 2234 
L 1294 2753 
L 1863 2753 
Q 2328 2753 2575 2939 
Q 2822 3125 2822 3475 
Q 2822 3834 2567 4026 
Q 2313 4219 1838 4219 
Q 1578 4219 1281 4162 
Q 984 4106 628 3988 
L 628 4550 
Q 988 4650 1302 4700 
Q 1616 4750 1894 4750 
Q 2613 4750 3031 4423 
Q 3450 4097 3450 3541 
Q 3450 3153 3228 2886 
Q 3006 2619 2597 2516 
z
" transform="scale(0.015625)"/>
       </defs>
       <use xlink:href="#DejaVuSans-30"/>
       <use xlink:href="#DejaVuSans-2e" x="63.623047"/>
       <use xlink:href="#DejaVuSans-33" x="95.410156"/>
      </g>
     </g>
    </g>
    <g id="ytick_5">
     <g id="line2d_27">
      <path d="M 57.6 168.356229 
L 414.72 168.356229 
" clip-path="url(#p418d5ddc4b)" style="fill: none; stroke: #b0b0b0; stroke-width: 0.8; stroke-linecap: square"/>
     </g>
     <g id="line2d_28">
      <g>
       <use xlink:href="#mba7db51f4c" x="57.6" y="168.356229" style="stroke: #000000; stroke-width: 0.8"/>
      </g>
     </g>
     <g id="text_15">
      <!-- 0.4 -->
      <g transform="translate(34.696875 172.155448) scale(0.1 -0.1)">
       <use xlink:href="#DejaVuSans-30"/>
       <use xlink:href="#DejaVuSans-2e" x="63.623047"/>
       <use xlink:href="#DejaVuSans-34" x="95.410156"/>
      </g>
     </g>
    </g>
    <g id="ytick_6">
     <g id="line2d_29">
      <path d="M 57.6 136.573287 
L 414.72 136.573287 
" clip-path="url(#p418d5ddc4b)" style="fill: none; stroke: #b0b0b0; stroke-width: 0.8; stroke-linecap: square"/>
     </g>
     <g id="line2d_30">
      <g>
       <use xlink:href="#mba7db51f4c" x="57.6" y="136.573287" style="stroke: #000000; stroke-width: 0.8"/>
      </g>
     </g>
     <g id="text_16">
      <!-- 0.5 -->
      <g transform="translate(34.696875 140.372505) scale(0.1 -0.1)">
       <defs>
        <path id="DejaVuSans-35" d="M 691 4666 
L 3169 4666 
L 3169 4134 
L 1269 4134 
L 1269 2991 
Q 1406 3038 1543 3061 
Q 1681 3084 1819 3084 
Q 2600 3084 3056 2656 
Q 3513 2228 3513 1497 
Q 3513 744 3044 326 
Q 2575 -91 1722 -91 
Q 1428 -91 1123 -41 
Q 819 9 494 109 
L 494 744 
Q 775 591 1075 516 
Q 1375 441 1709 441 
Q 2250 441 2565 725 
Q 2881 1009 2881 1497 
Q 2881 1984 2565 2268 
Q 2250 2553 1709 2553 
Q 1456 2553 1204 2497 
Q 953 2441 691 2322 
L 691 4666 
z
" transform="scale(0.015625)"/>
       </defs>
       <use xlink:href="#DejaVuSans-30"/>
       <use xlink:href="#DejaVuSans-2e" x="63.623047"/>
       <use xlink:href="#DejaVuSans-35" x="95.410156"/>
      </g>
     </g>
    </g>
    <g id="ytick_7">
     <g id="line2d_31">
      <path d="M 57.6 104.790344 
L 414.72 104.790344 
" clip-path="url(#p418d5ddc4b)" style="fill: none; stroke: #b0b0b0; stroke-width: 0.8; stroke-linecap: square"/>
     </g>
     <g id="line2d_32">
      <g>
       <use xlink:href="#mba7db51f4c" x="57.6" y="104.790344" style="stroke: #000000; stroke-width: 0.8"/>
      </g>
     </g>
     <g id="text_17">
      <!-- 0.6 -->
      <g transform="translate(34.696875 108.589563) scale(0.1 -0.1)">
       <use xlink:href="#DejaVuSans-30"/>
       <use xlink:href="#DejaVuSans-2e" x="63.623047"/>
       <use xlink:href="#DejaVuSans-36" x="95.410156"/>
      </g>
     </g>
    </g>
    <g id="ytick_8">
     <g id="line2d_33">
      <path d="M 57.6 73.007401 
L 414.72 73.007401 
" clip-path="url(#p418d5ddc4b)" style="fill: none; stroke: #b0b0b0; stroke-width: 0.8; stroke-linecap: square"/>
     </g>
     <g id="line2d_34">
      <g>
       <use xlink:href="#mba7db51f4c" x="57.6" y="73.007401" style="stroke: #000000; stroke-width: 0.8"/>
      </g>
     </g>
     <g id="text_18">
      <!-- 0.7 -->
      <g transform="translate(34.696875 76.80662) scale(0.1 -0.1)">
       <defs>
        <path id="DejaVuSans-37" d="M 525 4666 
L 3525 4666 
L 3525 4397 
L 1831 0 
L 1172 0 
L 2766 4134 
L 525 4134 
L 525 4666 
z
" transform="scale(0.015625)"/>
       </defs>
       <use xlink:href="#DejaVuSans-30"/>
       <use xlink:href="#DejaVuSans-2e" x="63.623047"/>
       <use xlink:href="#DejaVuSans-37" x="95.410156"/>
      </g>
     </g>
    </g>
    <g id="text_19">
     <!-- Tracking error(m) -->
     <g transform="translate(28.617187 217.803781) rotate(-90) scale(0.1 -0.1)">
      <defs>
       <path id="DejaVuSans-72" d="M 2631 2963 
Q 2534 3019 2420 3045 
Q 2306 3072 2169 3072 
Q 1681 3072 1420 2755 
Q 1159 2438 1159 1844 
L 1159 0 
L 581 0 
L 581 3500 
L 1159 3500 
L 1159 2956 
Q 1341 3275 1631 3429 
Q 1922 3584 2338 3584 
Q 2397 3584 2469 3576 
Q 2541 3569 2628 3553 
L 2631 2963 
z
" transform="scale(0.015625)"/>
       <path id="DejaVuSans-61" d="M 2194 1759 
Q 1497 1759 1228 1600 
Q 959 1441 959 1056 
Q 959 750 1161 570 
Q 1363 391 1709 391 
Q 2188 391 2477 730 
Q 2766 1069 2766 1631 
L 2766 1759 
L 2194 1759 
z
M 3341 1997 
L 3341 0 
L 2766 0 
L 2766 531 
Q 2569 213 2275 61 
Q 1981 -91 1556 -91 
Q 1019 -91 701 211 
Q 384 513 384 1019 
Q 384 1609 779 1909 
Q 1175 2209 1959 2209 
L 2766 2209 
L 2766 2266 
Q 2766 2663 2505 2880 
Q 2244 3097 1772 3097 
Q 1472 3097 1187 3025 
Q 903 2953 641 2809 
L 641 3341 
Q 956 3463 1253 3523 
Q 1550 3584 1831 3584 
Q 2591 3584 2966 3190 
Q 3341 2797 3341 1997 
z
" transform="scale(0.015625)"/>
       <path id="DejaVuSans-63" d="M 3122 3366 
L 3122 2828 
Q 2878 2963 2633 3030 
Q 2388 3097 2138 3097 
Q 1578 3097 1268 2742 
Q 959 2388 959 1747 
Q 959 1106 1268 751 
Q 1578 397 2138 397 
Q 2388 397 2633 464 
Q 2878 531 3122 666 
L 3122 134 
Q 2881 22 2623 -34 
Q 2366 -91 2075 -91 
Q 1284 -91 818 406 
Q 353 903 353 1747 
Q 353 2603 823 3093 
Q 1294 3584 2113 3584 
Q 2378 3584 2631 3529 
Q 2884 3475 3122 3366 
z
" transform="scale(0.015625)"/>
       <path id="DejaVuSans-6b" d="M 581 4863 
L 1159 4863 
L 1159 1991 
L 2875 3500 
L 3609 3500 
L 1753 1863 
L 3688 0 
L 2938 0 
L 1159 1709 
L 1159 0 
L 581 0 
L 581 4863 
z
" transform="scale(0.015625)"/>
       <path id="DejaVuSans-6e" d="M 3513 2113 
L 3513 0 
L 2938 0 
L 2938 2094 
Q 2938 2591 2744 2837 
Q 2550 3084 2163 3084 
Q 1697 3084 1428 2787 
Q 1159 2491 1159 1978 
L 1159 0 
L 581 0 
L 581 3500 
L 1159 3500 
L 1159 2956 
Q 1366 3272 1645 3428 
Q 1925 3584 2291 3584 
Q 2894 3584 3203 3211 
Q 3513 2838 3513 2113 
z
" transform="scale(0.015625)"/>
       <path id="DejaVuSans-67" d="M 2906 1791 
Q 2906 2416 2648 2759 
Q 2391 3103 1925 3103 
Q 1463 3103 1205 2759 
Q 947 2416 947 1791 
Q 947 1169 1205 825 
Q 1463 481 1925 481 
Q 2391 481 2648 825 
Q 2906 1169 2906 1791 
z
M 3481 434 
Q 3481 -459 3084 -895 
Q 2688 -1331 1869 -1331 
Q 1566 -1331 1297 -1286 
Q 1028 -1241 775 -1147 
L 775 -588 
Q 1028 -725 1275 -790 
Q 1522 -856 1778 -856 
Q 2344 -856 2625 -561 
Q 2906 -266 2906 331 
L 2906 616 
Q 2728 306 2450 153 
Q 2172 0 1784 0 
Q 1141 0 747 490 
Q 353 981 353 1791 
Q 353 2603 747 3093 
Q 1141 3584 1784 3584 
Q 2172 3584 2450 3431 
Q 2728 3278 2906 2969 
L 2906 3500 
L 3481 3500 
L 3481 434 
z
" transform="scale(0.015625)"/>
       <path id="DejaVuSans-20" transform="scale(0.015625)"/>
       <path id="DejaVuSans-6f" d="M 1959 3097 
Q 1497 3097 1228 2736 
Q 959 2375 959 1747 
Q 959 1119 1226 758 
Q 1494 397 1959 397 
Q 2419 397 2687 759 
Q 2956 1122 2956 1747 
Q 2956 2369 2687 2733 
Q 2419 3097 1959 3097 
z
M 1959 3584 
Q 2709 3584 3137 3096 
Q 3566 2609 3566 1747 
Q 3566 888 3137 398 
Q 2709 -91 1959 -91 
Q 1206 -91 779 398 
Q 353 888 353 1747 
Q 353 2609 779 3096 
Q 1206 3584 1959 3584 
z
" transform="scale(0.015625)"/>
      </defs>
      <use xlink:href="#DejaVuSans-54"/>
      <use xlink:href="#DejaVuSans-72" x="46.333984"/>
      <use xlink:href="#DejaVuSans-61" x="87.447266"/>
      <use xlink:href="#DejaVuSans-63" x="148.726562"/>
      <use xlink:href="#DejaVuSans-6b" x="203.707031"/>
      <use xlink:href="#DejaVuSans-69" x="261.617188"/>
      <use xlink:href="#DejaVuSans-6e" x="289.400391"/>
      <use xlink:href="#DejaVuSans-67" x="352.779297"/>
      <use xlink:href="#DejaVuSans-20" x="416.255859"/>
      <use xlink:href="#DejaVuSans-65" x="448.042969"/>
      <use xlink:href="#DejaVuSans-72" x="509.566406"/>
      <use xlink:href="#DejaVuSans-72" x="548.929688"/>
      <use xlink:href="#DejaVuSans-6f" x="587.792969"/>
      <use xlink:href="#DejaVuSans-72" x="648.974609"/>
      <use xlink:href="#DejaVuSans-28" x="690.087891"/>
      <use xlink:href="#DejaVuSans-6d" x="729.101562"/>
      <use xlink:href="#DejaVuSans-29" x="826.513672"/>
     </g>
    </g>
   </g>
   <g id="line2d_35">
    <path d="M 73.832727 295.488 
L 77.035238 295.381527 
L 77.035238 295.381527 
L 77.835866 293.825434 
L 77.835866 293.825434 
L 78.636494 291.823745 
L 78.636494 291.823745 
L 79.036808 288.740481 
L 79.036808 288.740481 
L 79.837435 287.625536 
L 79.837435 287.625536 
L 80.638063 286.950784 
L 80.638063 286.950784 
L 81.038377 286.858931 
L 81.438691 286.982567 
L 81.438691 286.982567 
L 81.839005 287.366822 
L 81.839005 287.366822 
L 82.239318 288.061598 
L 82.239318 288.061598 
L 82.639632 289.075791 
L 82.639632 289.075791 
L 83.840574 293.266372 
L 83.840574 293.266372 
L 84.240888 295.488 
L 84.240888 295.488 
L 84.641202 295.142519 
L 84.641202 295.142519 
L 85.441829 293.188186 
L 85.441829 293.188186 
L 85.842143 292.365644 
L 86.242457 292.213403 
L 86.242457 292.213403 
L 86.642771 292.495318 
L 86.642771 292.495318 
L 87.043085 293.251116 
L 87.043085 293.251116 
L 87.443399 294.430264 
L 87.443399 294.430264 
L 87.843713 295.071008 
L 87.843713 295.071008 
L 89.044654 290.043264 
L 89.044654 290.043264 
L 89.845282 287.25304 
L 89.845282 287.25304 
L 90.245596 286.289699 
L 90.245596 286.289699 
L 90.64591 285.719195 
L 90.64591 285.719195 
L 91.046224 285.68773 
L 91.446537 286.316714 
L 91.446537 286.316714 
L 91.846851 287.619815 
L 91.846851 287.619815 
L 92.647479 291.401667 
L 92.647479 291.401667 
L 93.047793 293.702116 
L 93.047793 293.702116 
L 93.448107 294.842488 
L 93.448107 294.842488 
L 94.649048 288.169977 
L 94.649048 288.169977 
L 95.049362 286.571613 
L 95.049362 286.571613 
L 95.449676 285.612722 
L 95.449676 285.612722 
L 95.84999 285.413125 
L 95.84999 285.413125 
L 96.250304 285.943264 
L 96.650618 287.206636 
L 96.650618 287.206636 
L 97.451245 291.2329 
L 97.451245 291.2329 
L 97.851559 293.717054 
L 97.851559 293.717054 
L 98.251873 294.577101 
L 98.251873 294.577101 
L 99.052501 289.495644 
L 99.052501 289.495644 
L 99.452815 287.397652 
L 99.452815 287.397652 
L 99.853129 285.908621 
L 99.853129 285.908621 
L 100.253442 285.275505 
L 100.253442 285.275505 
L 100.653756 285.460799 
L 101.05407 286.532838 
L 101.05407 286.532838 
L 101.454384 288.203667 
L 101.454384 288.203667 
L 102.655326 295.488 
L 102.655326 295.488 
L 103.455953 288.481132 
L 103.455953 288.481132 
L 104.256581 283.751195 
L 104.256581 283.751195 
L 104.656895 282.60542 
L 104.656895 282.60542 
L 105.057209 282.400102 
L 105.057209 282.400102 
L 105.457523 283.114583 
L 105.857837 284.81052 
L 105.857837 284.81052 
L 106.25815 287.249226 
L 106.25815 287.249226 
L 107.058778 294.111799 
L 107.058778 294.111799 
L 107.459092 292.799481 
L 107.459092 292.799481 
L 108.660034 281.448521 
L 108.660034 281.448521 
L 109.060347 278.920823 
L 109.060347 278.920823 
L 109.460661 277.326909 
L 109.460661 277.326909 
L 109.860975 276.797723 
L 109.860975 276.797723 
L 110.261289 277.196281 
L 110.261289 277.196281 
L 110.661603 278.578521 
L 110.661603 278.578521 
L 111.061917 280.701304 
L 111.061917 280.701304 
L 111.862545 286.648846 
L 111.862545 286.648846 
L 112.663172 293.045163 
L 112.663172 293.045163 
L 113.063486 295.488 
L 113.063486 295.488 
L 113.4638 293.181512 
L 113.4638 293.181512 
L 113.864114 291.868241 
L 113.864114 291.868241 
L 114.264428 291.198574 
L 114.264428 291.198574 
L 114.664742 291.288202 
L 114.664742 291.288202 
L 115.065055 291.85521 
L 115.065055 291.85521 
L 116.265997 295.220388 
L 116.265997 295.220388 
L 116.666311 294.830411 
L 116.666311 294.830411 
L 117.466939 293.80414 
L 117.466939 293.80414 
L 117.867253 293.892814 
L 117.867253 293.892814 
L 118.66788 294.930845 
L 118.66788 294.930845 
L 119.068194 295.06624 
L 119.068194 295.06624 
L 119.468508 294.236706 
L 119.468508 294.236706 
L 119.868822 295.488 
L 119.868822 295.488 
L 120.269136 292.504853 
L 120.269136 292.504853 
L 121.069763 292.162233 
L 121.069763 292.162233 
L 121.470077 292.322737 
L 121.470077 292.322737 
L 121.870391 293.234272 
L 121.870391 293.234272 
L 122.270705 295.488 
L 122.270705 295.488 
L 122.671019 295.151736 
L 122.671019 295.151736 
L 123.071333 294.330147 
L 123.071333 294.330147 
L 124.272274 290.570861 
L 124.272274 290.570861 
L 125.072902 288.971861 
L 125.072902 288.971861 
L 125.473216 288.527218 
L 125.473216 288.527218 
L 125.87353 287.773326 
L 125.87353 287.773326 
L 126.674158 287.273063 
L 126.674158 287.273063 
L 127.074471 287.108109 
L 127.074471 287.108109 
L 127.474785 286.324978 
L 127.474785 286.324978 
L 128.675727 285.008846 
L 128.675727 285.008846 
L 129.076041 283.96859 
L 129.076041 283.96859 
L 131.477924 280.196273 
L 131.477924 280.196273 
L 132.278552 279.567924 
L 132.278552 279.567924 
L 132.678866 278.701203 
L 132.678866 278.701203 
L 133.079179 278.474273 
L 133.079179 278.474273 
L 133.879807 278.462831 
L 133.879807 278.462831 
L 134.280121 277.813188 
L 134.280121 277.813188 
L 134.680435 277.758521 
L 135.481063 278.021048 
L 135.481063 278.021048 
L 135.881377 277.298304 
L 135.881377 277.298304 
L 136.682004 277.126041 
L 136.682004 277.126041 
L 137.082318 276.643893 
L 137.082318 276.643893 
L 137.882946 276.518986 
L 137.882946 276.518986 
L 138.28326 276.646754 
L 139.083887 277.165134 
L 139.083887 277.165134 
L 139.484201 278.01342 
L 139.484201 278.01342 
L 139.884515 278.528622 
L 139.884515 278.528622 
L 140.284829 278.777482 
L 140.284829 278.777482 
L 140.685143 280.072319 
L 140.685143 280.072319 
L 141.085457 280.355505 
L 141.085457 280.355505 
L 141.485771 281.524164 
L 141.485771 281.524164 
L 141.886085 281.831823 
L 141.886085 281.831823 
L 142.286398 282.748443 
L 142.286398 282.748443 
L 142.686712 283.179102 
L 142.686712 283.179102 
L 143.087026 283.29797 
L 143.087026 283.29797 
L 143.48734 285.152505 
L 143.48734 285.152505 
L 143.887654 285.819947 
L 143.887654 285.819947 
L 144.287968 287.787311 
L 144.287968 287.787311 
L 144.688282 288.653078 
L 144.688282 288.653078 
L 145.088595 290.491721 
L 145.088595 290.491721 
L 145.488909 291.284388 
L 145.488909 291.284388 
L 145.889223 292.818233 
L 145.889223 292.818233 
L 146.289537 295.488 
L 146.289537 295.488 
L 146.689851 293.021008 
L 146.689851 293.021008 
L 147.090165 295.488 
L 147.090165 295.488 
L 147.490479 293.564496 
L 147.490479 293.564496 
L 147.890793 294.202062 
L 147.890793 294.202062 
L 148.291106 292.852558 
L 148.291106 292.852558 
L 148.69142 292.895783 
L 148.69142 292.895783 
L 149.091734 291.313946 
L 149.091734 291.313946 
L 149.492048 291.170287 
L 149.492048 291.170287 
L 149.892362 289.810931 
L 149.892362 289.810931 
L 150.292676 289.941559 
L 150.292676 289.941559 
L 150.69299 288.950249 
L 150.69299 288.950249 
L 151.093303 289.409194 
L 151.093303 289.409194 
L 151.493617 288.507512 
L 151.493617 288.507512 
L 151.893931 289.00428 
L 151.893931 289.00428 
L 152.294245 287.704993 
L 152.294245 287.704993 
L 152.694559 287.903636 
L 152.694559 287.903636 
L 153.094873 286.042109 
L 153.094873 286.042109 
L 153.495187 285.953435 
L 153.495187 285.953435 
L 153.895501 283.887226 
L 153.895501 283.887226 
L 154.295814 283.921551 
L 154.295814 283.921551 
L 154.696128 282.320327 
L 155.096442 282.593024 
L 155.096442 282.593024 
L 155.496756 281.721536 
L 155.496756 281.721536 
L 155.89707 280.353281 
L 155.89707 280.353281 
L 156.297384 282.618769 
L 156.297384 282.618769 
L 156.697698 282.426482 
L 156.697698 282.426482 
L 157.098011 285.344474 
L 157.098011 285.344474 
L 157.498325 285.977272 
L 157.498325 285.977272 
L 157.898639 289.016039 
L 157.898639 289.016039 
L 158.298953 289.933295 
L 158.298953 289.933295 
L 158.699267 292.63707 
L 158.699267 292.63707 
L 159.099581 293.380155 
L 159.499895 295.406953 
L 159.499895 295.406953 
L 159.900208 295.192101 
L 159.900208 295.192101 
L 160.300522 293.816217 
L 160.300522 293.816217 
L 160.700836 293.663023 
L 160.700836 293.663023 
L 161.10115 292.756574 
L 161.10115 292.756574 
L 161.501464 292.511527 
L 161.501464 292.511527 
L 161.901778 291.652434 
L 161.901778 291.652434 
L 162.302092 291.077481 
L 162.302092 291.077481 
L 162.702406 290.288628 
L 164.703975 284.358249 
L 164.703975 284.358249 
L 165.504603 282.266932 
L 165.504603 282.266932 
L 165.904916 282.655955 
L 165.904916 282.655955 
L 166.30523 282.360056 
L 166.30523 282.360056 
L 166.705544 283.413342 
L 166.705544 283.413342 
L 167.506172 284.714854 
L 167.506172 284.714854 
L 167.906486 287.440241 
L 167.906486 287.440241 
L 168.3068 288.954698 
L 168.3068 288.954698 
L 169.107427 294.260861 
L 169.107427 294.260861 
L 169.507741 294.565341 
L 169.507741 294.565341 
L 170.308369 287.593753 
L 170.308369 287.593753 
L 170.708683 284.815924 
L 170.708683 284.815924 
L 171.108997 280.626614 
L 171.108997 280.626614 
L 172.309938 272.392925 
L 172.309938 272.392925 
L 172.710252 270.70239 
L 172.710252 270.70239 
L 173.110566 269.598568 
L 173.110566 269.598568 
L 173.51088 268.105724 
L 173.51088 268.105724 
L 173.911194 267.575902 
L 173.911194 267.575902 
L 174.311508 267.461165 
L 174.311508 267.461165 
L 174.711822 266.740328 
L 174.711822 266.740328 
L 175.112135 266.752724 
L 175.112135 266.752724 
L 175.512449 267.015886 
L 175.512449 267.015886 
L 175.912763 266.832181 
L 175.912763 266.832181 
L 176.313077 267.33022 
L 176.313077 267.33022 
L 177.514019 269.795623 
L 177.514019 269.795623 
L 178.71496 273.91056 
L 178.71496 273.91056 
L 179.915902 279.300947 
L 179.915902 279.300947 
L 183.118413 295.085628 
L 183.118413 295.085628 
L 184.719668 282.937234 
L 184.719668 282.937234 
L 185.520296 273.402669 
L 185.520296 273.402669 
L 187.121551 257.991438 
L 187.121551 257.991438 
L 187.922179 253.39181 
L 187.922179 253.39181 
L 188.322493 251.442245 
L 188.322493 251.442245 
L 188.722807 250.490345 
L 188.722807 250.490345 
L 189.123121 250.044113 
L 189.123121 250.044113 
L 189.523435 250.047609 
L 189.523435 250.047609 
L 189.923748 250.172198 
L 189.923748 250.172198 
L 190.324062 250.955012 
L 190.324062 250.955012 
L 191.12469 253.373058 
L 191.12469 253.373058 
L 191.925318 256.855833 
L 191.925318 256.855833 
L 193.126259 263.733344 
L 193.126259 263.733344 
L 193.926887 269.762251 
L 193.926887 269.762251 
L 195.127829 280.50711 
L 195.127829 280.50711 
L 196.32877 291.738248 
L 196.32877 291.738248 
L 196.729084 294.846302 
L 196.729084 294.846302 
L 197.129398 293.446264 
L 197.129398 293.446264 
L 197.930026 289.604024 
L 197.930026 289.604024 
L 198.33034 288.368621 
L 198.33034 288.368621 
L 198.730654 287.563241 
L 198.730654 287.563241 
L 199.531281 286.774388 
L 199.531281 286.774388 
L 200.331909 286.687303 
L 200.331909 286.687303 
L 201.132537 286.845582 
L 201.132537 286.845582 
L 201.933164 286.234396 
L 201.933164 286.234396 
L 202.733792 285.605094 
L 202.733792 285.605094 
L 203.134106 285.197954 
L 203.134106 285.197954 
L 203.934734 283.452753 
L 203.934734 283.452753 
L 205.135675 281.117978 
L 205.135675 281.117978 
L 205.535989 279.784684 
L 205.535989 279.784684 
L 206.336617 278.086839 
L 206.336617 278.086839 
L 207.137245 276.760219 
L 207.137245 276.760219 
L 207.537559 275.779715 
L 207.537559 275.779715 
L 208.338186 274.861506 
L 208.338186 274.861506 
L 209.539128 274.059304 
L 209.539128 274.059304 
L 210.339756 274.166095 
L 210.339756 274.166095 
L 211.140383 274.612963 
L 211.140383 274.612963 
L 211.540697 274.915855 
L 211.540697 274.915855 
L 212.341325 275.963738 
L 212.341325 275.963738 
L 213.141953 277.559878 
L 213.141953 277.559878 
L 214.342894 281.007373 
L 214.342894 281.007373 
L 215.543836 285.126443 
L 215.543836 285.126443 
L 218.346033 295.488 
L 218.346033 295.488 
L 218.746347 294.955 
L 218.746347 294.955 
L 219.546975 292.016349 
L 219.546975 292.016349 
L 220.747916 288.268505 
L 220.747916 288.268505 
L 221.14823 287.287047 
L 221.548544 285.998885 
L 221.548544 285.998885 
L 221.948858 285.317776 
L 221.948858 285.317776 
L 222.349172 284.961807 
L 222.349172 284.961807 
L 222.749485 284.842621 
L 222.749485 284.842621 
L 223.149799 284.367466 
L 223.149799 284.367466 
L 223.550113 284.48411 
L 223.950427 284.825458 
L 223.950427 284.825458 
L 224.350741 284.816559 
L 224.350741 284.816559 
L 225.551683 285.40804 
L 225.551683 285.40804 
L 225.951996 284.906823 
L 225.951996 284.906823 
L 226.752624 284.498094 
L 226.752624 284.498094 
L 227.152938 283.744838 
L 227.152938 283.744838 
L 227.553252 283.395544 
L 227.553252 283.395544 
L 227.953566 283.317358 
L 227.953566 283.317358 
L 228.35388 282.889877 
L 228.35388 282.889877 
L 228.754193 283.050063 
L 228.754193 283.050063 
L 229.154507 283.571939 
L 229.154507 283.571939 
L 229.554821 283.636459 
L 229.554821 283.636459 
L 229.955135 284.341404 
L 229.955135 284.341404 
L 230.355449 285.338753 
L 230.355449 285.338753 
L 230.755763 285.53835 
L 230.755763 285.53835 
L 231.556391 287.234605 
L 231.556391 287.234605 
L 231.956704 286.953962 
L 231.956704 286.953962 
L 232.757332 287.755846 
L 232.757332 287.755846 
L 233.157646 286.7229 
L 233.157646 286.7229 
L 233.55796 286.632954 
L 233.55796 286.632954 
L 233.958274 285.662939 
L 233.958274 285.662939 
L 234.358588 285.312055 
L 234.358588 285.312055 
L 234.758901 285.376892 
L 235.159215 284.454234 
L 235.159215 284.454234 
L 235.559529 284.606156 
L 235.559529 284.606156 
L 235.959843 285.305699 
L 235.959843 285.305699 
L 236.360157 284.683071 
L 236.360157 284.683071 
L 236.760471 285.433466 
L 237.160785 285.345745 
L 237.160785 285.345745 
L 237.561099 285.970916 
L 237.561099 285.970916 
L 237.961412 286.863063 
L 237.961412 286.863063 
L 238.361726 286.320846 
L 238.361726 286.320846 
L 239.162354 287.102388 
L 239.162354 287.102388 
L 239.562668 285.696311 
L 239.562668 285.696311 
L 239.962982 285.518009 
L 239.962982 285.518009 
L 240.363296 284.16628 
L 240.363296 284.16628 
L 240.763609 283.671738 
L 241.163923 283.55573 
L 241.163923 283.55573 
L 241.564237 282.105792 
L 241.564237 282.105792 
L 241.964551 282.055575 
L 241.964551 282.055575 
L 242.364865 281.349676 
L 242.364865 281.349676 
L 242.765179 281.530839 
L 242.765179 281.530839 
L 243.165493 282.213854 
L 243.165493 282.213854 
L 243.565807 281.762536 
L 243.96612 282.421079 
L 243.96612 282.421079 
L 244.366434 283.467373 
L 244.366434 283.467373 
L 244.766748 282.771327 
L 244.766748 282.771327 
L 245.167062 283.250931 
L 245.167062 283.250931 
L 245.567376 282.607009 
L 245.567376 282.607009 
L 245.96769 282.465257 
L 245.96769 282.465257 
L 246.368004 282.461125 
L 246.368004 282.461125 
L 246.768317 281.438032 
L 246.768317 281.438032 
L 247.168631 281.212056 
L 247.168631 281.212056 
L 247.568945 281.296598 
L 247.568945 281.296598 
L 247.969259 280.332939 
L 248.369573 280.530312 
L 248.369573 280.530312 
L 248.769887 280.158451 
L 248.769887 280.158451 
L 249.170201 280.530629 
L 249.170201 280.530629 
L 249.570515 281.269265 
L 249.570515 281.269265 
L 249.970828 281.094141 
L 250.371142 281.816885 
L 250.771456 282.831397 
L 250.771456 282.831397 
L 251.17177 282.546304 
L 251.17177 282.546304 
L 251.572084 283.167024 
L 251.572084 283.167024 
L 251.972398 282.966792 
L 251.972398 282.966792 
L 252.773025 283.46928 
L 252.773025 283.46928 
L 253.173339 282.809466 
L 253.173339 282.809466 
L 253.573653 282.722699 
L 253.573653 282.722699 
L 253.973967 282.753528 
L 253.973967 282.753528 
L 254.374281 281.869009 
L 254.374281 281.869009 
L 254.774595 281.697381 
L 254.774595 281.697381 
L 255.174909 281.712001 
L 255.174909 281.712001 
L 255.575223 280.982901 
L 255.575223 280.982901 
L 255.975536 280.967009 
L 255.975536 280.967009 
L 256.37585 281.118932 
L 256.37585 281.118932 
L 256.776164 280.649498 
L 256.776164 280.649498 
L 257.576792 280.892001 
L 257.576792 280.892001 
L 257.977106 280.596738 
L 257.977106 280.596738 
L 259.578361 280.952389 
L 259.578361 280.952389 
L 260.378989 281.524482 
L 260.378989 281.524482 
L 261.179617 282.744947 
L 261.179617 282.744947 
L 261.579931 283.544288 
L 261.579931 283.544288 
L 262.780872 287.242869 
L 262.780872 287.242869 
L 264.782441 294.578054 
L 264.782441 294.578054 
L 265.182755 295.100884 
L 265.182755 295.100884 
L 265.983383 292.886248 
L 265.983383 292.886248 
L 266.784011 291.092419 
L 266.784011 291.092419 
L 267.584638 289.960311 
L 267.584638 289.960311 
L 268.385266 289.434303 
L 268.385266 289.434303 
L 268.78558 289.313846 
L 268.78558 289.313846 
L 269.986522 289.554125 
L 269.986522 289.554125 
L 270.787149 289.95459 
L 270.787149 289.95459 
L 271.587777 290.596605 
L 271.587777 290.596605 
L 272.788719 291.402303 
L 272.788719 291.402303 
L 274.790288 293.809861 
L 274.790288 293.809861 
L 275.590916 295.221341 
L 275.590916 295.221341 
L 275.99123 295.488 
L 275.99123 295.488 
L 276.391544 294.271985 
L 276.391544 294.271985 
L 277.192171 292.418721 
L 277.192171 292.418721 
L 277.992799 290.864853 
L 277.992799 290.864853 
L 279.594054 288.547559 
L 279.594054 288.547559 
L 280.394682 287.960846 
L 280.394682 287.960846 
L 280.794996 287.790489 
L 280.794996 287.790489 
L 281.19531 287.294675 
L 281.19531 287.294675 
L 282.796565 286.413016 
L 282.796565 286.413016 
L 283.196879 285.703939 
L 283.196879 285.703939 
L 284.397821 284.633807 
L 284.397821 284.633807 
L 284.798135 284.365559 
L 284.798135 284.365559 
L 285.198449 283.663792 
L 285.198449 283.663792 
L 285.999076 283.239807 
L 285.999076 283.239807 
L 286.799704 283.016373 
L 286.799704 283.016373 
L 287.200018 282.418854 
L 287.200018 282.418854 
L 288.40096 282.249451 
L 288.40096 282.249451 
L 288.801273 281.784466 
L 288.801273 281.784466 
L 290.002215 281.298823 
L 290.002215 281.298823 
L 290.402529 281.194575 
L 290.402529 281.194575 
L 290.802843 280.573854 
L 290.802843 280.573854 
L 292.404098 279.56125 
L 292.404098 279.56125 
L 292.804412 278.74411 
L 292.804412 278.74411 
L 293.60504 277.985451 
L 293.60504 277.985451 
L 294.405668 277.515382 
L 294.405668 277.515382 
L 294.805981 276.707777 
L 295.606609 276.082289 
L 295.606609 276.082289 
L 296.407237 275.698669 
L 296.407237 275.698669 
L 296.807551 274.887886 
L 296.807551 274.887886 
L 297.207865 274.665723 
L 297.207865 274.665723 
L 297.608178 274.583723 
L 297.608178 274.583723 
L 298.008492 274.694963 
L 298.008492 274.694963 
L 298.408806 274.315793 
L 298.408806 274.315793 
L 298.80912 274.480746 
L 298.80912 274.480746 
L 299.209434 274.796351 
L 299.209434 274.796351 
L 299.609748 275.270552 
L 299.609748 275.270552 
L 300.010062 275.247033 
L 301.211003 276.903242 
L 301.211003 276.903242 
L 302.011631 278.59187 
L 302.011631 278.59187 
L 302.411945 279.661684 
L 302.411945 279.661684 
L 302.812259 280.214707 
L 302.812259 280.214707 
L 304.0132 283.144776 
L 304.0132 283.144776 
L 304.813828 285.111187 
L 304.813828 285.111187 
L 305.214142 285.476055 
L 305.214142 285.476055 
L 306.01477 286.679993 
L 306.01477 286.679993 
L 306.415084 286.625644 
L 307.215711 287.314698 
L 307.215711 287.314698 
L 307.616025 287.051854 
L 307.616025 287.051854 
L 308.016339 287.352202 
L 308.016339 287.352202 
L 308.416653 287.322326 
L 308.416653 287.322326 
L 308.816967 287.696412 
L 308.816967 287.696412 
L 309.217281 288.339698 
L 309.217281 288.339698 
L 309.617594 288.454753 
L 310.017908 289.207691 
L 310.017908 289.207691 
L 310.418222 289.657101 
L 310.418222 289.657101 
L 311.21885 291.533566 
L 311.21885 291.533566 
L 311.619164 291.749055 
L 311.619164 291.749055 
L 312.019478 292.567148 
L 312.019478 292.567148 
L 312.419792 292.651372 
L 312.419792 292.651372 
L 312.820105 293.193907 
L 312.820105 293.193907 
L 313.220419 293.110636 
L 313.220419 293.110636 
L 313.620733 293.477411 
L 313.620733 293.477411 
L 314.021047 293.367442 
L 314.421361 293.788566 
L 314.421361 293.788566 
L 314.821675 293.962101 
L 315.622302 295.463209 
L 315.622302 295.463209 
L 317.223558 289.786458 
L 317.223558 289.786458 
L 317.623872 287.633164 
L 317.623872 287.633164 
L 318.024186 286.661559 
L 318.024186 286.661559 
L 318.424499 284.710404 
L 318.424499 284.710404 
L 318.824813 284.361427 
L 318.824813 284.361427 
L 319.225127 282.619087 
L 319.625441 283.119668 
L 319.625441 283.119668 
L 320.025755 281.742195 
L 320.025755 281.742195 
L 320.426069 283.023366 
L 320.426069 283.023366 
L 320.826383 283.639001 
L 320.826383 283.639001 
L 321.226697 282.919117 
L 321.226697 282.919117 
L 321.62701 283.668241 
L 321.62701 283.668241 
L 322.027324 282.470978 
L 322.027324 282.470978 
L 322.427638 283.153676 
L 322.427638 283.153676 
L 322.827952 281.004831 
L 322.827952 281.004831 
L 323.228266 281.390358 
L 323.228266 281.390358 
L 323.62858 280.778536 
L 323.62858 280.778536 
L 324.028894 278.442172 
L 324.028894 278.442172 
L 324.429207 278.101141 
L 324.429207 278.101141 
L 324.829521 275.607769 
L 324.829521 275.607769 
L 325.630149 277.126676 
L 325.630149 277.126676 
L 326.030463 277.006854 
L 326.030463 277.006854 
L 326.430777 279.686474 
L 326.430777 279.686474 
L 326.831091 280.654265 
L 326.831091 280.654265 
L 327.631718 289.665365 
L 327.631718 289.665365 
L 328.032032 292.622768 
L 328.032032 292.622768 
L 328.432346 292.872582 
L 328.432346 292.872582 
L 328.83266 288.002164 
L 328.83266 288.002164 
L 329.232974 284.968482 
L 329.232974 284.968482 
L 329.633288 280.423839 
L 329.633288 280.423839 
L 330.033602 277.186746 
L 330.433915 276.07625 
L 330.433915 276.07625 
L 330.834229 274.124777 
L 330.834229 274.124777 
L 331.234543 275.907165 
L 331.234543 275.907165 
L 331.634857 275.532762 
L 331.634857 275.532762 
L 332.035171 276.872413 
L 332.035171 276.872413 
L 332.435485 282.040001 
L 332.435485 282.040001 
L 332.835799 284.898241 
L 332.835799 284.898241 
L 333.636426 293.971954 
L 333.636426 293.971954 
L 334.437054 284.206962 
L 334.437054 284.206962 
L 334.837368 275.903669 
L 334.837368 275.903669 
L 335.637996 268.352359 
L 335.637996 268.352359 
L 336.03831 262.708344 
L 336.03831 262.708344 
L 336.438623 262.302794 
L 336.438623 262.302794 
L 336.838937 262.57422 
L 336.838937 262.57422 
L 337.239251 262.579623 
L 337.239251 262.579623 
L 337.639565 267.550158 
L 337.639565 267.550158 
L 338.039879 269.618274 
L 338.039879 269.618274 
L 338.840507 288.958194 
L 338.840507 288.958194 
L 339.240821 294.840581 
L 339.240821 294.840581 
L 341.24239 232.369301 
L 341.24239 232.369301 
L 342.043018 204.585288 
L 342.043018 204.585288 
L 342.443331 196.912568 
L 342.443331 196.912568 
L 343.644273 158.380517 
L 343.644273 158.380517 
L 344.044587 152.684378 
L 344.044587 152.684378 
L 344.845215 131.561117 
L 344.845215 131.561117 
L 345.245529 123.199024 
L 345.245529 123.199024 
L 345.645842 120.750149 
L 345.645842 120.750149 
L 346.44647 107.150227 
L 346.44647 107.150227 
L 346.846784 102.768313 
L 346.846784 102.768313 
L 347.247098 104.264654 
L 347.247098 104.264654 
L 347.647412 100.710685 
L 347.647412 100.710685 
L 348.047726 98.823732 
L 348.047726 98.823732 
L 348.448039 98.617779 
L 348.448039 98.617779 
L 348.848353 103.914406 
L 348.848353 103.914406 
L 349.248667 104.611088 
L 349.248667 104.611088 
L 349.648981 106.992902 
L 349.648981 106.992902 
L 350.049295 111.047452 
L 350.049295 111.047452 
L 350.449609 120.059187 
L 350.449609 120.059187 
L 350.849923 125.101869 
L 351.65055 140.084666 
L 351.65055 140.084666 
L 352.451178 161.983431 
L 352.451178 161.983431 
L 353.251806 185.076918 
L 353.251806 185.076918 
L 354.052434 213.916442 
L 354.052434 213.916442 
L 354.853061 242.407625 
L 354.853061 242.407625 
L 355.653689 274.109521 
L 355.653689 274.109521 
L 356.054003 288.520861 
L 356.054003 288.520861 
L 356.454317 287.928745 
L 356.454317 287.928745 
L 357.254945 259.69405 
L 357.254945 259.69405 
L 358.455886 227.238898 
L 358.455886 227.238898 
L 358.8562 218.223666 
L 358.8562 218.223666 
L 359.256514 214.113178 
L 359.256514 214.113178 
L 359.656828 211.472334 
L 359.656828 211.472334 
L 360.057142 209.641636 
L 360.057142 209.641636 
L 360.457455 211.635698 
L 360.457455 211.635698 
L 360.857769 214.398271 
L 360.857769 214.398271 
L 361.658397 229.051797 
L 361.658397 229.051797 
L 362.459025 250.035532 
L 362.459025 250.035532 
L 363.659966 291.192535 
L 363.659966 291.192535 
L 364.06028 284.289598 
L 366.06185 210.422543 
L 366.06185 210.422543 
L 366.862477 189.571979 
L 366.862477 189.571979 
L 367.663105 178.9765 
L 367.663105 178.9765 
L 368.063419 179.566073 
L 368.063419 179.566073 
L 368.463733 180.923523 
L 368.463733 180.923523 
L 369.26436 195.508715 
L 369.26436 195.508715 
L 370.064988 220.564162 
L 370.064988 220.564162 
L 371.666244 293.747248 
L 371.666244 293.747248 
L 372.466871 258.600081 
L 372.466871 258.600081 
L 373.667813 197.296506 
L 373.667813 197.296506 
L 376.069696 101.761747 
L 376.069696 101.761747 
L 376.47001 93.237244 
L 376.47001 93.237244 
L 377.270638 71.564456 
L 377.270638 71.564456 
L 377.670952 64.162208 
L 377.670952 64.162208 
L 378.871893 53.568 
L 378.871893 53.568 
L 379.672521 55.782635 
L 379.672521 55.782635 
L 380.072835 61.697759 
L 380.072835 61.697759 
L 380.473149 65.82541 
L 380.473149 65.82541 
L 380.873463 72.398122 
L 380.873463 72.398122 
L 382.474718 119.291629 
L 382.474718 119.291629 
L 384.476287 207.32021 
L 384.476287 207.32021 
L 386.077543 282.414087 
L 386.077543 282.414087 
L 386.477857 289.303039 
L 387.678798 246.271478 
L 387.678798 246.271478 
L 388.479426 227.216332 
L 388.479426 227.216332 
L 388.87974 223.088364 
L 388.87974 223.088364 
L 389.280054 221.037728 
L 389.280054 221.037728 
L 389.680368 220.869596 
L 389.680368 220.869596 
L 390.080682 224.559596 
L 390.080682 224.559596 
L 390.480995 229.629929 
L 390.480995 229.629929 
L 391.281623 247.576803 
L 391.281623 247.576803 
L 392.482565 287.396063 
L 392.482565 287.396063 
L 392.882879 288.195404 
L 392.882879 288.195404 
L 395.685076 189.385095 
L 395.685076 189.385095 
L 396.886017 162.823772 
L 396.886017 162.823772 
L 397.686645 153.935037 
L 397.686645 153.935037 
L 398.086959 152.918936 
L 398.086959 152.918936 
L 398.487273 152.549618 
L 398.487273 152.549618 
" clip-path="url(#p418d5ddc4b)" style="fill: none; stroke: #1f77b4; stroke-width: 1.5; stroke-linecap: square"/>
   </g>
   <g id="patch_3">
    <path d="M 57.6 307.584 
L 57.6 41.472 
" style="fill: none; stroke: #000000; stroke-width: 0.8; stroke-linejoin: miter; stroke-linecap: square"/>
   </g>
   <g id="patch_4">
    <path d="M 414.72 307.584 
L 414.72 41.472 
" style="fill: none; stroke: #000000; stroke-width: 0.8; stroke-linejoin: miter; stroke-linecap: square"/>
   </g>
   <g id="patch_5">
    <path d="M 57.6 307.584 
L 414.72 307.584 
" style="fill: none; stroke: #000000; stroke-width: 0.8; stroke-linejoin: miter; stroke-linecap: square"/>
   </g>
   <g id="patch_6">
    <path d="M 57.6 41.472 
L 414.72 41.472 
" style="fill: none; stroke: #000000; stroke-width: 0.8; stroke-linejoin: miter; stroke-linecap: square"/>
   </g>
   <g id="text_20">
    <!-- Tracking error vs Time -->
    <g transform="translate(169.584375 35.472) scale(0.12 -0.12)">
     <defs>
      <path id="DejaVuSans-76" d="M 191 3500 
L 800 3500 
L 1894 563 
L 2988 3500 
L 3597 3500 
L 2284 0 
L 1503 0 
L 191 3500 
z
" transform="scale(0.015625)"/>
     </defs>
     <use xlink:href="#DejaVuSans-54"/>
     <use xlink:href="#DejaVuSans-72" x="46.333984"/>
     <use xlink:href="#DejaVuSans-61" x="87.447266"/>
     <use xlink:href="#DejaVuSans-63" x="148.726562"/>
     <use xlink:href="#DejaVuSans-6b" x="203.707031"/>
     <use xlink:href="#DejaVuSans-69" x="261.617188"/>
     <use xlink:href="#DejaVuSans-6e" x="289.400391"/>
     <use xlink:href="#DejaVuSans-67" x="352.779297"/>
     <use xlink:href="#DejaVuSans-20" x="416.255859"/>
     <use xlink:href="#DejaVuSans-65" x="448.042969"/>
     <use xlink:href="#DejaVuSans-72" x="509.566406"/>
     <use xlink:href="#DejaVuSans-72" x="548.929688"/>
     <use xlink:href="#DejaVuSans-6f" x="587.792969"/>
     <use xlink:href="#DejaVuSans-72" x="648.974609"/>
     <use xlink:href="#DejaVuSans-20" x="690.087891"/>
     <use xlink:href="#DejaVuSans-76" x="721.875"/>
     <use xlink:href="#DejaVuSans-73" x="781.054688"/>
     <use xlink:href="#DejaVuSans-20" x="833.154297"/>
     <use xlink:href="#DejaVuSans-54" x="864.941406"/>
     <use xlink:href="#DejaVuSans-69" x="922.900391"/>
     <use xlink:href="#DejaVuSans-6d" x="950.683594"/>
     <use xlink:href="#DejaVuSans-65" x="1048.095703"/>
    </g>
   </g>
   <g id="legend_1">
    <g id="patch_7">
     <path d="M 64.6 64.150125 
L 161.31875 64.150125 
Q 163.31875 64.150125 163.31875 62.150125 
L 163.31875 48.472 
Q 163.31875 46.472 161.31875 46.472 
L 64.6 46.472 
Q 62.6 46.472 62.6 48.472 
L 62.6 62.150125 
Q 62.6 64.150125 64.6 64.150125 
z
" style="fill: #ffffff; opacity: 0.8; stroke: #cccccc; stroke-linejoin: miter"/>
    </g>
    <g id="line2d_36">
     <path d="M 66.6 54.570438 
L 76.6 54.570438 
L 86.6 54.570438 
" style="fill: none; stroke: #1f77b4; stroke-width: 1.5; stroke-linecap: square"/>
    </g>
    <g id="text_21">
     <!-- Actual speed -->
     <g transform="translate(94.6 58.070438) scale(0.1 -0.1)">
      <defs>
       <path id="DejaVuSans-41" d="M 2188 4044 
L 1331 1722 
L 3047 1722 
L 2188 4044 
z
M 1831 4666 
L 2547 4666 
L 4325 0 
L 3669 0 
L 3244 1197 
L 1141 1197 
L 716 0 
L 50 0 
L 1831 4666 
z
" transform="scale(0.015625)"/>
       <path id="DejaVuSans-74" d="M 1172 4494 
L 1172 3500 
L 2356 3500 
L 2356 3053 
L 1172 3053 
L 1172 1153 
Q 1172 725 1289 603 
Q 1406 481 1766 481 
L 2356 481 
L 2356 0 
L 1766 0 
Q 1100 0 847 248 
Q 594 497 594 1153 
L 594 3053 
L 172 3053 
L 172 3500 
L 594 3500 
L 594 4494 
L 1172 4494 
z
" transform="scale(0.015625)"/>
       <path id="DejaVuSans-75" d="M 544 1381 
L 544 3500 
L 1119 3500 
L 1119 1403 
Q 1119 906 1312 657 
Q 1506 409 1894 409 
Q 2359 409 2629 706 
Q 2900 1003 2900 1516 
L 2900 3500 
L 3475 3500 
L 3475 0 
L 2900 0 
L 2900 538 
Q 2691 219 2414 64 
Q 2138 -91 1772 -91 
Q 1169 -91 856 284 
Q 544 659 544 1381 
z
M 1991 3584 
L 1991 3584 
z
" transform="scale(0.015625)"/>
       <path id="DejaVuSans-6c" d="M 603 4863 
L 1178 4863 
L 1178 0 
L 603 0 
L 603 4863 
z
" transform="scale(0.015625)"/>
       <path id="DejaVuSans-70" d="M 1159 525 
L 1159 -1331 
L 581 -1331 
L 581 3500 
L 1159 3500 
L 1159 2969 
Q 1341 3281 1617 3432 
Q 1894 3584 2278 3584 
Q 2916 3584 3314 3078 
Q 3713 2572 3713 1747 
Q 3713 922 3314 415 
Q 2916 -91 2278 -91 
Q 1894 -91 1617 61 
Q 1341 213 1159 525 
z
M 3116 1747 
Q 3116 2381 2855 2742 
Q 2594 3103 2138 3103 
Q 1681 3103 1420 2742 
Q 1159 2381 1159 1747 
Q 1159 1113 1420 752 
Q 1681 391 2138 391 
Q 2594 391 2855 752 
Q 3116 1113 3116 1747 
z
" transform="scale(0.015625)"/>
       <path id="DejaVuSans-64" d="M 2906 2969 
L 2906 4863 
L 3481 4863 
L 3481 0 
L 2906 0 
L 2906 525 
Q 2725 213 2448 61 
Q 2172 -91 1784 -91 
Q 1150 -91 751 415 
Q 353 922 353 1747 
Q 353 2572 751 3078 
Q 1150 3584 1784 3584 
Q 2172 3584 2448 3432 
Q 2725 3281 2906 2969 
z
M 947 1747 
Q 947 1113 1208 752 
Q 1469 391 1925 391 
Q 2381 391 2643 752 
Q 2906 1113 2906 1747 
Q 2906 2381 2643 2742 
Q 2381 3103 1925 3103 
Q 1469 3103 1208 2742 
Q 947 2381 947 1747 
z
" transform="scale(0.015625)"/>
      </defs>
      <use xlink:href="#DejaVuSans-41"/>
      <use xlink:href="#DejaVuSans-63" x="66.658203"/>
      <use xlink:href="#DejaVuSans-74" x="121.638672"/>
      <use xlink:href="#DejaVuSans-75" x="160.847656"/>
      <use xlink:href="#DejaVuSans-61" x="224.226562"/>
      <use xlink:href="#DejaVuSans-6c" x="285.505859"/>
      <use xlink:href="#DejaVuSans-20" x="313.289062"/>
      <use xlink:href="#DejaVuSans-73" x="345.076172"/>
      <use xlink:href="#DejaVuSans-70" x="397.175781"/>
      <use xlink:href="#DejaVuSans-65" x="460.652344"/>
      <use xlink:href="#DejaVuSans-65" x="522.175781"/>
      <use xlink:href="#DejaVuSans-64" x="583.699219"/>
     </g>
    </g>
   </g>
  </g>
 </g>
 <defs>
  <clipPath id="p418d5ddc4b">
   <rect x="57.6" y="41.472" width="357.12" height="266.112"/>
  </clipPath>
 </defs>
</svg>
