<?xml version="1.0" encoding="utf-8" standalone="no"?>
<!DOCTYPE svg PUBLIC "-//W3C//DTD SVG 1.1//EN"
  "http://www.w3.org/Graphics/SVG/1.1/DTD/svg11.dtd">
<svg xmlns:xlink="http://www.w3.org/1999/xlink" width="460.8pt" height="345.6pt" viewBox="0 0 460.8 345.6" xmlns="http://www.w3.org/2000/svg" version="1.1">
 <metadata>
  <rdf:RDF xmlns:dc="http://purl.org/dc/elements/1.1/" xmlns:cc="http://creativecommons.org/ns#" xmlns:rdf="http://www.w3.org/1999/02/22-rdf-syntax-ns#">
   <cc:Work>
    <dc:type rdf:resource="http://purl.org/dc/dcmitype/StillImage"/>
    <dc:date>2024-01-30T20:58:29.694223</dc:date>
    <dc:format>image/svg+xml</dc:format>
    <dc:creator>
     <cc:Agent>
      <dc:title>Matplotlib v3.7.1, https://matplotlib.org/</dc:title>
     </cc:Agent>
    </dc:creator>
   </cc:Work>
  </rdf:RDF>
 </metadata>
 <defs>
  <style type="text/css">*{stroke-linejoin: round; stroke-linecap: butt}</style>
 </defs>
 <g id="figure_1">
  <g id="patch_1">
   <path d="M 0 345.6 
L 460.8 345.6 
L 460.8 0 
L 0 0 
z
" style="fill: #ffffff"/>
  </g>
  <g id="axes_1">
   <g id="patch_2">
    <path d="M 57.6 307.584 
L 414.72 307.584 
L 414.72 41.472 
L 57.6 41.472 
z
" style="fill: #ffffff"/>
   </g>
   <g id="matplotlib.axis_1">
    <g id="xtick_1">
     <g id="line2d_1">
      <path d="M 73.832727 307.584 
L 73.832727 41.472 
" clip-path="url(#p31911059f9)" style="fill: none; stroke: #b0b0b0; stroke-width: 0.8; stroke-linecap: square"/>
     </g>
     <g id="line2d_2">
      <defs>
       <path id="m81740b77ab" d="M 0 0 
L 0 3.5 
" style="stroke: #000000; stroke-width: 0.8"/>
      </defs>
      <g>
       <use xlink:href="#m81740b77ab" x="73.832727" y="307.584" style="stroke: #000000; stroke-width: 0.8"/>
      </g>
     </g>
     <g id="text_1">
      <!-- 0.0 -->
      <g transform="translate(65.881165 322.182437) scale(0.1 -0.1)">
       <defs>
        <path id="DejaVuSans-30" d="M 2034 4250 
Q 1547 4250 1301 3770 
Q 1056 3291 1056 2328 
Q 1056 1369 1301 889 
Q 1547 409 2034 409 
Q 2525 409 2770 889 
Q 3016 1369 3016 2328 
Q 3016 3291 2770 3770 
Q 2525 4250 2034 4250 
z
M 2034 4750 
Q 2819 4750 3233 4129 
Q 3647 3509 3647 2328 
Q 3647 1150 3233 529 
Q 2819 -91 2034 -91 
Q 1250 -91 836 529 
Q 422 1150 422 2328 
Q 422 3509 836 4129 
Q 1250 4750 2034 4750 
z
" transform="scale(0.015625)"/>
        <path id="DejaVuSans-2e" d="M 684 794 
L 1344 794 
L 1344 0 
L 684 0 
L 684 794 
z
" transform="scale(0.015625)"/>
       </defs>
       <use xlink:href="#DejaVuSans-30"/>
       <use xlink:href="#DejaVuSans-2e" x="63.623047"/>
       <use xlink:href="#DejaVuSans-30" x="95.410156"/>
      </g>
     </g>
    </g>
    <g id="xtick_2">
     <g id="line2d_3">
      <path d="M 123.383177 307.584 
L 123.383177 41.472 
" clip-path="url(#p31911059f9)" style="fill: none; stroke: #b0b0b0; stroke-width: 0.8; stroke-linecap: square"/>
     </g>
     <g id="line2d_4">
      <g>
       <use xlink:href="#m81740b77ab" x="123.383177" y="307.584" style="stroke: #000000; stroke-width: 0.8"/>
      </g>
     </g>
     <g id="text_2">
      <!-- 2.5 -->
      <g transform="translate(115.431614 322.182437) scale(0.1 -0.1)">
       <defs>
        <path id="DejaVuSans-32" d="M 1228 531 
L 3431 531 
L 3431 0 
L 469 0 
L 469 531 
Q 828 903 1448 1529 
Q 2069 2156 2228 2338 
Q 2531 2678 2651 2914 
Q 2772 3150 2772 3378 
Q 2772 3750 2511 3984 
Q 2250 4219 1831 4219 
Q 1534 4219 1204 4116 
Q 875 4013 500 3803 
L 500 4441 
Q 881 4594 1212 4672 
Q 1544 4750 1819 4750 
Q 2544 4750 2975 4387 
Q 3406 4025 3406 3419 
Q 3406 3131 3298 2873 
Q 3191 2616 2906 2266 
Q 2828 2175 2409 1742 
Q 1991 1309 1228 531 
z
" transform="scale(0.015625)"/>
        <path id="DejaVuSans-35" d="M 691 4666 
L 3169 4666 
L 3169 4134 
L 1269 4134 
L 1269 2991 
Q 1406 3038 1543 3061 
Q 1681 3084 1819 3084 
Q 2600 3084 3056 2656 
Q 3513 2228 3513 1497 
Q 3513 744 3044 326 
Q 2575 -91 1722 -91 
Q 1428 -91 1123 -41 
Q 819 9 494 109 
L 494 744 
Q 775 591 1075 516 
Q 1375 441 1709 441 
Q 2250 441 2565 725 
Q 2881 1009 2881 1497 
Q 2881 1984 2565 2268 
Q 2250 2553 1709 2553 
Q 1456 2553 1204 2497 
Q 953 2441 691 2322 
L 691 4666 
z
" transform="scale(0.015625)"/>
       </defs>
       <use xlink:href="#DejaVuSans-32"/>
       <use xlink:href="#DejaVuSans-2e" x="63.623047"/>
       <use xlink:href="#DejaVuSans-35" x="95.410156"/>
      </g>
     </g>
    </g>
    <g id="xtick_3">
     <g id="line2d_5">
      <path d="M 172.933626 307.584 
L 172.933626 41.472 
" clip-path="url(#p31911059f9)" style="fill: none; stroke: #b0b0b0; stroke-width: 0.8; stroke-linecap: square"/>
     </g>
     <g id="line2d_6">
      <g>
       <use xlink:href="#m81740b77ab" x="172.933626" y="307.584" style="stroke: #000000; stroke-width: 0.8"/>
      </g>
     </g>
     <g id="text_3">
      <!-- 5.0 -->
      <g transform="translate(164.982064 322.182437) scale(0.1 -0.1)">
       <use xlink:href="#DejaVuSans-35"/>
       <use xlink:href="#DejaVuSans-2e" x="63.623047"/>
       <use xlink:href="#DejaVuSans-30" x="95.410156"/>
      </g>
     </g>
    </g>
    <g id="xtick_4">
     <g id="line2d_7">
      <path d="M 222.484076 307.584 
L 222.484076 41.472 
" clip-path="url(#p31911059f9)" style="fill: none; stroke: #b0b0b0; stroke-width: 0.8; stroke-linecap: square"/>
     </g>
     <g id="line2d_8">
      <g>
       <use xlink:href="#m81740b77ab" x="222.484076" y="307.584" style="stroke: #000000; stroke-width: 0.8"/>
      </g>
     </g>
     <g id="text_4">
      <!-- 7.5 -->
      <g transform="translate(214.532513 322.182437) scale(0.1 -0.1)">
       <defs>
        <path id="DejaVuSans-37" d="M 525 4666 
L 3525 4666 
L 3525 4397 
L 1831 0 
L 1172 0 
L 2766 4134 
L 525 4134 
L 525 4666 
z
" transform="scale(0.015625)"/>
       </defs>
       <use xlink:href="#DejaVuSans-37"/>
       <use xlink:href="#DejaVuSans-2e" x="63.623047"/>
       <use xlink:href="#DejaVuSans-35" x="95.410156"/>
      </g>
     </g>
    </g>
    <g id="xtick_5">
     <g id="line2d_9">
      <path d="M 272.034525 307.584 
L 272.034525 41.472 
" clip-path="url(#p31911059f9)" style="fill: none; stroke: #b0b0b0; stroke-width: 0.8; stroke-linecap: square"/>
     </g>
     <g id="line2d_10">
      <g>
       <use xlink:href="#m81740b77ab" x="272.034525" y="307.584" style="stroke: #000000; stroke-width: 0.8"/>
      </g>
     </g>
     <g id="text_5">
      <!-- 10.0 -->
      <g transform="translate(260.901713 322.182437) scale(0.1 -0.1)">
       <defs>
        <path id="DejaVuSans-31" d="M 794 531 
L 1825 531 
L 1825 4091 
L 703 3866 
L 703 4441 
L 1819 4666 
L 2450 4666 
L 2450 531 
L 3481 531 
L 3481 0 
L 794 0 
L 794 531 
z
" transform="scale(0.015625)"/>
       </defs>
       <use xlink:href="#DejaVuSans-31"/>
       <use xlink:href="#DejaVuSans-30" x="63.623047"/>
       <use xlink:href="#DejaVuSans-2e" x="127.246094"/>
       <use xlink:href="#DejaVuSans-30" x="159.033203"/>
      </g>
     </g>
    </g>
    <g id="xtick_6">
     <g id="line2d_11">
      <path d="M 321.584975 307.584 
L 321.584975 41.472 
" clip-path="url(#p31911059f9)" style="fill: none; stroke: #b0b0b0; stroke-width: 0.8; stroke-linecap: square"/>
     </g>
     <g id="line2d_12">
      <g>
       <use xlink:href="#m81740b77ab" x="321.584975" y="307.584" style="stroke: #000000; stroke-width: 0.8"/>
      </g>
     </g>
     <g id="text_6">
      <!-- 12.5 -->
      <g transform="translate(310.452163 322.182437) scale(0.1 -0.1)">
       <use xlink:href="#DejaVuSans-31"/>
       <use xlink:href="#DejaVuSans-32" x="63.623047"/>
       <use xlink:href="#DejaVuSans-2e" x="127.246094"/>
       <use xlink:href="#DejaVuSans-35" x="159.033203"/>
      </g>
     </g>
    </g>
    <g id="xtick_7">
     <g id="line2d_13">
      <path d="M 371.135425 307.584 
L 371.135425 41.472 
" clip-path="url(#p31911059f9)" style="fill: none; stroke: #b0b0b0; stroke-width: 0.8; stroke-linecap: square"/>
     </g>
     <g id="line2d_14">
      <g>
       <use xlink:href="#m81740b77ab" x="371.135425" y="307.584" style="stroke: #000000; stroke-width: 0.8"/>
      </g>
     </g>
     <g id="text_7">
      <!-- 15.0 -->
      <g transform="translate(360.002612 322.182437) scale(0.1 -0.1)">
       <use xlink:href="#DejaVuSans-31"/>
       <use xlink:href="#DejaVuSans-35" x="63.623047"/>
       <use xlink:href="#DejaVuSans-2e" x="127.246094"/>
       <use xlink:href="#DejaVuSans-30" x="159.033203"/>
      </g>
     </g>
    </g>
    <g id="text_8">
     <!-- Time(s) -->
     <g transform="translate(217.420156 335.860562) scale(0.1 -0.1)">
      <defs>
       <path id="DejaVuSans-54" d="M -19 4666 
L 3928 4666 
L 3928 4134 
L 2272 4134 
L 2272 0 
L 1638 0 
L 1638 4134 
L -19 4134 
L -19 4666 
z
" transform="scale(0.015625)"/>
       <path id="DejaVuSans-69" d="M 603 3500 
L 1178 3500 
L 1178 0 
L 603 0 
L 603 3500 
z
M 603 4863 
L 1178 4863 
L 1178 4134 
L 603 4134 
L 603 4863 
z
" transform="scale(0.015625)"/>
       <path id="DejaVuSans-6d" d="M 3328 2828 
Q 3544 3216 3844 3400 
Q 4144 3584 4550 3584 
Q 5097 3584 5394 3201 
Q 5691 2819 5691 2113 
L 5691 0 
L 5113 0 
L 5113 2094 
Q 5113 2597 4934 2840 
Q 4756 3084 4391 3084 
Q 3944 3084 3684 2787 
Q 3425 2491 3425 1978 
L 3425 0 
L 2847 0 
L 2847 2094 
Q 2847 2600 2669 2842 
Q 2491 3084 2119 3084 
Q 1678 3084 1418 2786 
Q 1159 2488 1159 1978 
L 1159 0 
L 581 0 
L 581 3500 
L 1159 3500 
L 1159 2956 
Q 1356 3278 1631 3431 
Q 1906 3584 2284 3584 
Q 2666 3584 2933 3390 
Q 3200 3197 3328 2828 
z
" transform="scale(0.015625)"/>
       <path id="DejaVuSans-65" d="M 3597 1894 
L 3597 1613 
L 953 1613 
Q 991 1019 1311 708 
Q 1631 397 2203 397 
Q 2534 397 2845 478 
Q 3156 559 3463 722 
L 3463 178 
Q 3153 47 2828 -22 
Q 2503 -91 2169 -91 
Q 1331 -91 842 396 
Q 353 884 353 1716 
Q 353 2575 817 3079 
Q 1281 3584 2069 3584 
Q 2775 3584 3186 3129 
Q 3597 2675 3597 1894 
z
M 3022 2063 
Q 3016 2534 2758 2815 
Q 2500 3097 2075 3097 
Q 1594 3097 1305 2825 
Q 1016 2553 972 2059 
L 3022 2063 
z
" transform="scale(0.015625)"/>
       <path id="DejaVuSans-28" d="M 1984 4856 
Q 1566 4138 1362 3434 
Q 1159 2731 1159 2009 
Q 1159 1288 1364 580 
Q 1569 -128 1984 -844 
L 1484 -844 
Q 1016 -109 783 600 
Q 550 1309 550 2009 
Q 550 2706 781 3412 
Q 1013 4119 1484 4856 
L 1984 4856 
z
" transform="scale(0.015625)"/>
       <path id="DejaVuSans-73" d="M 2834 3397 
L 2834 2853 
Q 2591 2978 2328 3040 
Q 2066 3103 1784 3103 
Q 1356 3103 1142 2972 
Q 928 2841 928 2578 
Q 928 2378 1081 2264 
Q 1234 2150 1697 2047 
L 1894 2003 
Q 2506 1872 2764 1633 
Q 3022 1394 3022 966 
Q 3022 478 2636 193 
Q 2250 -91 1575 -91 
Q 1294 -91 989 -36 
Q 684 19 347 128 
L 347 722 
Q 666 556 975 473 
Q 1284 391 1588 391 
Q 1994 391 2212 530 
Q 2431 669 2431 922 
Q 2431 1156 2273 1281 
Q 2116 1406 1581 1522 
L 1381 1569 
Q 847 1681 609 1914 
Q 372 2147 372 2553 
Q 372 3047 722 3315 
Q 1072 3584 1716 3584 
Q 2034 3584 2315 3537 
Q 2597 3491 2834 3397 
z
" transform="scale(0.015625)"/>
       <path id="DejaVuSans-29" d="M 513 4856 
L 1013 4856 
Q 1481 4119 1714 3412 
Q 1947 2706 1947 2009 
Q 1947 1309 1714 600 
Q 1481 -109 1013 -844 
L 513 -844 
Q 928 -128 1133 580 
Q 1338 1288 1338 2009 
Q 1338 2731 1133 3434 
Q 928 4138 513 4856 
z
" transform="scale(0.015625)"/>
      </defs>
      <use xlink:href="#DejaVuSans-54"/>
      <use xlink:href="#DejaVuSans-69" x="57.958984"/>
      <use xlink:href="#DejaVuSans-6d" x="85.742188"/>
      <use xlink:href="#DejaVuSans-65" x="183.154297"/>
      <use xlink:href="#DejaVuSans-28" x="244.677734"/>
      <use xlink:href="#DejaVuSans-73" x="283.691406"/>
      <use xlink:href="#DejaVuSans-29" x="335.791016"/>
     </g>
    </g>
   </g>
   <g id="matplotlib.axis_2">
    <g id="ytick_1">
     <g id="line2d_15">
      <path d="M 57.6 295.488 
L 414.72 295.488 
" clip-path="url(#p31911059f9)" style="fill: none; stroke: #b0b0b0; stroke-width: 0.8; stroke-linecap: square"/>
     </g>
     <g id="line2d_16">
      <defs>
       <path id="m61b7daf861" d="M 0 0 
L -3.5 0 
" style="stroke: #000000; stroke-width: 0.8"/>
      </defs>
      <g>
       <use xlink:href="#m61b7daf861" x="57.6" y="295.488" style="stroke: #000000; stroke-width: 0.8"/>
      </g>
     </g>
     <g id="text_9">
      <!-- 0.0 -->
      <g transform="translate(34.696875 299.287219) scale(0.1 -0.1)">
       <use xlink:href="#DejaVuSans-30"/>
       <use xlink:href="#DejaVuSans-2e" x="63.623047"/>
       <use xlink:href="#DejaVuSans-30" x="95.410156"/>
      </g>
     </g>
    </g>
    <g id="ytick_2">
     <g id="line2d_17">
      <path d="M 57.6 245.788351 
L 414.72 245.788351 
" clip-path="url(#p31911059f9)" style="fill: none; stroke: #b0b0b0; stroke-width: 0.8; stroke-linecap: square"/>
     </g>
     <g id="line2d_18">
      <g>
       <use xlink:href="#m61b7daf861" x="57.6" y="245.788351" style="stroke: #000000; stroke-width: 0.8"/>
      </g>
     </g>
     <g id="text_10">
      <!-- 0.2 -->
      <g transform="translate(34.696875 249.58757) scale(0.1 -0.1)">
       <use xlink:href="#DejaVuSans-30"/>
       <use xlink:href="#DejaVuSans-2e" x="63.623047"/>
       <use xlink:href="#DejaVuSans-32" x="95.410156"/>
      </g>
     </g>
    </g>
    <g id="ytick_3">
     <g id="line2d_19">
      <path d="M 57.6 196.088702 
L 414.72 196.088702 
" clip-path="url(#p31911059f9)" style="fill: none; stroke: #b0b0b0; stroke-width: 0.8; stroke-linecap: square"/>
     </g>
     <g id="line2d_20">
      <g>
       <use xlink:href="#m61b7daf861" x="57.6" y="196.088702" style="stroke: #000000; stroke-width: 0.8"/>
      </g>
     </g>
     <g id="text_11">
      <!-- 0.4 -->
      <g transform="translate(34.696875 199.887921) scale(0.1 -0.1)">
       <defs>
        <path id="DejaVuSans-34" d="M 2419 4116 
L 825 1625 
L 2419 1625 
L 2419 4116 
z
M 2253 4666 
L 3047 4666 
L 3047 1625 
L 3713 1625 
L 3713 1100 
L 3047 1100 
L 3047 0 
L 2419 0 
L 2419 1100 
L 313 1100 
L 313 1709 
L 2253 4666 
z
" transform="scale(0.015625)"/>
       </defs>
       <use xlink:href="#DejaVuSans-30"/>
       <use xlink:href="#DejaVuSans-2e" x="63.623047"/>
       <use xlink:href="#DejaVuSans-34" x="95.410156"/>
      </g>
     </g>
    </g>
    <g id="ytick_4">
     <g id="line2d_21">
      <path d="M 57.6 146.389053 
L 414.72 146.389053 
" clip-path="url(#p31911059f9)" style="fill: none; stroke: #b0b0b0; stroke-width: 0.8; stroke-linecap: square"/>
     </g>
     <g id="line2d_22">
      <g>
       <use xlink:href="#m61b7daf861" x="57.6" y="146.389053" style="stroke: #000000; stroke-width: 0.8"/>
      </g>
     </g>
     <g id="text_12">
      <!-- 0.6 -->
      <g transform="translate(34.696875 150.188271) scale(0.1 -0.1)">
       <defs>
        <path id="DejaVuSans-36" d="M 2113 2584 
Q 1688 2584 1439 2293 
Q 1191 2003 1191 1497 
Q 1191 994 1439 701 
Q 1688 409 2113 409 
Q 2538 409 2786 701 
Q 3034 994 3034 1497 
Q 3034 2003 2786 2293 
Q 2538 2584 2113 2584 
z
M 3366 4563 
L 3366 3988 
Q 3128 4100 2886 4159 
Q 2644 4219 2406 4219 
Q 1781 4219 1451 3797 
Q 1122 3375 1075 2522 
Q 1259 2794 1537 2939 
Q 1816 3084 2150 3084 
Q 2853 3084 3261 2657 
Q 3669 2231 3669 1497 
Q 3669 778 3244 343 
Q 2819 -91 2113 -91 
Q 1303 -91 875 529 
Q 447 1150 447 2328 
Q 447 3434 972 4092 
Q 1497 4750 2381 4750 
Q 2619 4750 2861 4703 
Q 3103 4656 3366 4563 
z
" transform="scale(0.015625)"/>
       </defs>
       <use xlink:href="#DejaVuSans-30"/>
       <use xlink:href="#DejaVuSans-2e" x="63.623047"/>
       <use xlink:href="#DejaVuSans-36" x="95.410156"/>
      </g>
     </g>
    </g>
    <g id="ytick_5">
     <g id="line2d_23">
      <path d="M 57.6 96.689404 
L 414.72 96.689404 
" clip-path="url(#p31911059f9)" style="fill: none; stroke: #b0b0b0; stroke-width: 0.8; stroke-linecap: square"/>
     </g>
     <g id="line2d_24">
      <g>
       <use xlink:href="#m61b7daf861" x="57.6" y="96.689404" style="stroke: #000000; stroke-width: 0.8"/>
      </g>
     </g>
     <g id="text_13">
      <!-- 0.8 -->
      <g transform="translate(34.696875 100.488622) scale(0.1 -0.1)">
       <defs>
        <path id="DejaVuSans-38" d="M 2034 2216 
Q 1584 2216 1326 1975 
Q 1069 1734 1069 1313 
Q 1069 891 1326 650 
Q 1584 409 2034 409 
Q 2484 409 2743 651 
Q 3003 894 3003 1313 
Q 3003 1734 2745 1975 
Q 2488 2216 2034 2216 
z
M 1403 2484 
Q 997 2584 770 2862 
Q 544 3141 544 3541 
Q 544 4100 942 4425 
Q 1341 4750 2034 4750 
Q 2731 4750 3128 4425 
Q 3525 4100 3525 3541 
Q 3525 3141 3298 2862 
Q 3072 2584 2669 2484 
Q 3125 2378 3379 2068 
Q 3634 1759 3634 1313 
Q 3634 634 3220 271 
Q 2806 -91 2034 -91 
Q 1263 -91 848 271 
Q 434 634 434 1313 
Q 434 1759 690 2068 
Q 947 2378 1403 2484 
z
M 1172 3481 
Q 1172 3119 1398 2916 
Q 1625 2713 2034 2713 
Q 2441 2713 2670 2916 
Q 2900 3119 2900 3481 
Q 2900 3844 2670 4047 
Q 2441 4250 2034 4250 
Q 1625 4250 1398 4047 
Q 1172 3844 1172 3481 
z
" transform="scale(0.015625)"/>
       </defs>
       <use xlink:href="#DejaVuSans-30"/>
       <use xlink:href="#DejaVuSans-2e" x="63.623047"/>
       <use xlink:href="#DejaVuSans-38" x="95.410156"/>
      </g>
     </g>
    </g>
    <g id="ytick_6">
     <g id="line2d_25">
      <path d="M 57.6 46.989754 
L 414.72 46.989754 
" clip-path="url(#p31911059f9)" style="fill: none; stroke: #b0b0b0; stroke-width: 0.8; stroke-linecap: square"/>
     </g>
     <g id="line2d_26">
      <g>
       <use xlink:href="#m61b7daf861" x="57.6" y="46.989754" style="stroke: #000000; stroke-width: 0.8"/>
      </g>
     </g>
     <g id="text_14">
      <!-- 1.0 -->
      <g transform="translate(34.696875 50.788973) scale(0.1 -0.1)">
       <use xlink:href="#DejaVuSans-31"/>
       <use xlink:href="#DejaVuSans-2e" x="63.623047"/>
       <use xlink:href="#DejaVuSans-30" x="95.410156"/>
      </g>
     </g>
    </g>
    <g id="text_15">
     <!-- Tracking error(m) -->
     <g transform="translate(28.617187 217.803781) rotate(-90) scale(0.1 -0.1)">
      <defs>
       <path id="DejaVuSans-72" d="M 2631 2963 
Q 2534 3019 2420 3045 
Q 2306 3072 2169 3072 
Q 1681 3072 1420 2755 
Q 1159 2438 1159 1844 
L 1159 0 
L 581 0 
L 581 3500 
L 1159 3500 
L 1159 2956 
Q 1341 3275 1631 3429 
Q 1922 3584 2338 3584 
Q 2397 3584 2469 3576 
Q 2541 3569 2628 3553 
L 2631 2963 
z
" transform="scale(0.015625)"/>
       <path id="DejaVuSans-61" d="M 2194 1759 
Q 1497 1759 1228 1600 
Q 959 1441 959 1056 
Q 959 750 1161 570 
Q 1363 391 1709 391 
Q 2188 391 2477 730 
Q 2766 1069 2766 1631 
L 2766 1759 
L 2194 1759 
z
M 3341 1997 
L 3341 0 
L 2766 0 
L 2766 531 
Q 2569 213 2275 61 
Q 1981 -91 1556 -91 
Q 1019 -91 701 211 
Q 384 513 384 1019 
Q 384 1609 779 1909 
Q 1175 2209 1959 2209 
L 2766 2209 
L 2766 2266 
Q 2766 2663 2505 2880 
Q 2244 3097 1772 3097 
Q 1472 3097 1187 3025 
Q 903 2953 641 2809 
L 641 3341 
Q 956 3463 1253 3523 
Q 1550 3584 1831 3584 
Q 2591 3584 2966 3190 
Q 3341 2797 3341 1997 
z
" transform="scale(0.015625)"/>
       <path id="DejaVuSans-63" d="M 3122 3366 
L 3122 2828 
Q 2878 2963 2633 3030 
Q 2388 3097 2138 3097 
Q 1578 3097 1268 2742 
Q 959 2388 959 1747 
Q 959 1106 1268 751 
Q 1578 397 2138 397 
Q 2388 397 2633 464 
Q 2878 531 3122 666 
L 3122 134 
Q 2881 22 2623 -34 
Q 2366 -91 2075 -91 
Q 1284 -91 818 406 
Q 353 903 353 1747 
Q 353 2603 823 3093 
Q 1294 3584 2113 3584 
Q 2378 3584 2631 3529 
Q 2884 3475 3122 3366 
z
" transform="scale(0.015625)"/>
       <path id="DejaVuSans-6b" d="M 581 4863 
L 1159 4863 
L 1159 1991 
L 2875 3500 
L 3609 3500 
L 1753 1863 
L 3688 0 
L 2938 0 
L 1159 1709 
L 1159 0 
L 581 0 
L 581 4863 
z
" transform="scale(0.015625)"/>
       <path id="DejaVuSans-6e" d="M 3513 2113 
L 3513 0 
L 2938 0 
L 2938 2094 
Q 2938 2591 2744 2837 
Q 2550 3084 2163 3084 
Q 1697 3084 1428 2787 
Q 1159 2491 1159 1978 
L 1159 0 
L 581 0 
L 581 3500 
L 1159 3500 
L 1159 2956 
Q 1366 3272 1645 3428 
Q 1925 3584 2291 3584 
Q 2894 3584 3203 3211 
Q 3513 2838 3513 2113 
z
" transform="scale(0.015625)"/>
       <path id="DejaVuSans-67" d="M 2906 1791 
Q 2906 2416 2648 2759 
Q 2391 3103 1925 3103 
Q 1463 3103 1205 2759 
Q 947 2416 947 1791 
Q 947 1169 1205 825 
Q 1463 481 1925 481 
Q 2391 481 2648 825 
Q 2906 1169 2906 1791 
z
M 3481 434 
Q 3481 -459 3084 -895 
Q 2688 -1331 1869 -1331 
Q 1566 -1331 1297 -1286 
Q 1028 -1241 775 -1147 
L 775 -588 
Q 1028 -725 1275 -790 
Q 1522 -856 1778 -856 
Q 2344 -856 2625 -561 
Q 2906 -266 2906 331 
L 2906 616 
Q 2728 306 2450 153 
Q 2172 0 1784 0 
Q 1141 0 747 490 
Q 353 981 353 1791 
Q 353 2603 747 3093 
Q 1141 3584 1784 3584 
Q 2172 3584 2450 3431 
Q 2728 3278 2906 2969 
L 2906 3500 
L 3481 3500 
L 3481 434 
z
" transform="scale(0.015625)"/>
       <path id="DejaVuSans-20" transform="scale(0.015625)"/>
       <path id="DejaVuSans-6f" d="M 1959 3097 
Q 1497 3097 1228 2736 
Q 959 2375 959 1747 
Q 959 1119 1226 758 
Q 1494 397 1959 397 
Q 2419 397 2687 759 
Q 2956 1122 2956 1747 
Q 2956 2369 2687 2733 
Q 2419 3097 1959 3097 
z
M 1959 3584 
Q 2709 3584 3137 3096 
Q 3566 2609 3566 1747 
Q 3566 888 3137 398 
Q 2709 -91 1959 -91 
Q 1206 -91 779 398 
Q 353 888 353 1747 
Q 353 2609 779 3096 
Q 1206 3584 1959 3584 
z
" transform="scale(0.015625)"/>
      </defs>
      <use xlink:href="#DejaVuSans-54"/>
      <use xlink:href="#DejaVuSans-72" x="46.333984"/>
      <use xlink:href="#DejaVuSans-61" x="87.447266"/>
      <use xlink:href="#DejaVuSans-63" x="148.726562"/>
      <use xlink:href="#DejaVuSans-6b" x="203.707031"/>
      <use xlink:href="#DejaVuSans-69" x="261.617188"/>
      <use xlink:href="#DejaVuSans-6e" x="289.400391"/>
      <use xlink:href="#DejaVuSans-67" x="352.779297"/>
      <use xlink:href="#DejaVuSans-20" x="416.255859"/>
      <use xlink:href="#DejaVuSans-65" x="448.042969"/>
      <use xlink:href="#DejaVuSans-72" x="509.566406"/>
      <use xlink:href="#DejaVuSans-72" x="548.929688"/>
      <use xlink:href="#DejaVuSans-6f" x="587.792969"/>
      <use xlink:href="#DejaVuSans-72" x="648.974609"/>
      <use xlink:href="#DejaVuSans-28" x="690.087891"/>
      <use xlink:href="#DejaVuSans-6d" x="729.101562"/>
      <use xlink:href="#DejaVuSans-29" x="826.513672"/>
     </g>
    </g>
   </g>
   <g id="line2d_27">
    <path d="M 73.832727 295.488 
L 77.003956 295.401771 
L 77.003956 295.401771 
L 77.796763 294.172947 
L 77.796763 294.172947 
L 78.58957 292.497821 
L 78.58957 292.497821 
L 78.985974 289.996437 
L 78.985974 289.996437 
L 80.175185 288.451524 
L 80.175185 288.451524 
L 80.967992 287.848915 
L 80.967992 287.848915 
L 81.364396 287.754486 
L 81.364396 287.754486 
L 81.760799 287.841957 
L 81.760799 287.841957 
L 82.157203 288.148604 
L 82.157203 288.148604 
L 82.553606 288.716174 
L 82.553606 288.716174 
L 83.742817 291.970259 
L 83.742817 291.970259 
L 84.932028 295.483279 
L 84.932028 295.483279 
L 85.724835 293.392414 
L 85.724835 293.392414 
L 86.121239 292.783097 
L 86.121239 292.783097 
L 86.517642 292.435696 
L 86.517642 292.435696 
L 86.914046 292.414077 
L 86.914046 292.414077 
L 87.31045 292.788564 
L 87.31045 292.788564 
L 87.706853 293.59171 
L 87.706853 293.59171 
L 88.103257 294.809103 
L 88.103257 294.809103 
L 88.49966 294.905023 
L 88.49966 294.905023 
L 88.896064 295.488 
L 88.896064 295.488 
L 89.292468 292.113891 
L 89.292468 292.113891 
L 90.481678 288.363555 
L 90.481678 288.363555 
L 90.878082 287.531086 
L 90.878082 287.531086 
L 91.274486 287.061424 
L 91.274486 287.061424 
L 91.670889 287.088511 
L 91.670889 287.088511 
L 92.067293 287.628994 
L 92.067293 287.628994 
L 92.463696 288.720399 
L 92.463696 288.720399 
L 93.256503 292.127061 
L 93.256503 292.127061 
L 93.652907 294.235569 
L 93.652907 294.235569 
L 94.049311 294.475618 
L 94.049311 294.475618 
L 95.238521 287.747031 
L 95.238521 287.747031 
L 96.031329 284.472073 
L 96.031329 284.472073 
L 96.427732 283.638858 
L 96.427732 283.638858 
L 96.824136 283.508397 
L 96.824136 283.508397 
L 97.220539 284.109265 
L 97.220539 284.109265 
L 97.616943 285.339083 
L 97.616943 285.339083 
L 98.40975 289.503417 
L 98.40975 289.503417 
L 99.202557 295.164207 
L 99.202557 295.164207 
L 99.995365 289.604556 
L 99.995365 289.604556 
L 100.788172 283.970106 
L 100.788172 283.970106 
L 101.184575 281.852653 
L 101.184575 281.852653 
L 101.580979 280.385271 
L 101.580979 280.385271 
L 101.977383 279.846278 
L 101.977383 279.846278 
L 102.373786 280.173302 
L 102.373786 280.173302 
L 102.77019 281.455304 
L 102.77019 281.455304 
L 103.166593 283.667684 
L 103.166593 283.667684 
L 103.959401 290.36993 
L 103.959401 290.36993 
L 104.355804 295.488 
L 104.355804 295.488 
L 104.752208 291.678273 
L 104.752208 291.678273 
L 106.734226 268.014531 
L 106.734226 268.014531 
L 107.130629 264.87401 
L 107.130629 264.87401 
L 107.527033 262.756805 
L 107.527033 262.756805 
L 107.923437 261.701433 
L 107.923437 261.701433 
L 108.31984 261.897001 
L 108.31984 261.897001 
L 108.716244 263.255044 
L 108.716244 263.255044 
L 109.112647 265.832716 
L 109.112647 265.832716 
L 109.905455 274.021976 
L 109.905455 274.021976 
L 110.698262 285.317464 
L 110.698262 285.317464 
L 111.094665 291.607451 
L 111.094665 291.607451 
L 111.491069 292.881502 
L 111.491069 292.881502 
L 112.68028 275.412324 
L 112.68028 275.412324 
L 113.076683 271.144615 
L 113.076683 271.144615 
L 113.473087 268.102499 
L 113.473087 268.102499 
L 113.869491 266.305609 
L 113.869491 266.305609 
L 114.265894 265.856075 
L 114.265894 265.856075 
L 114.662298 266.737995 
L 114.662298 266.737995 
L 115.058701 268.750583 
L 115.058701 268.750583 
L 115.851508 275.960511 
L 115.851508 275.960511 
L 117.437123 294.695788 
L 117.437123 294.695788 
L 118.22993 286.406135 
L 118.22993 286.406135 
L 118.626334 283.565551 
L 118.626334 283.565551 
L 119.022737 281.588002 
L 119.022737 281.588002 
L 119.419141 280.521696 
L 119.419141 280.521696 
L 119.815544 280.552261 
L 119.815544 280.552261 
L 120.211948 281.238862 
L 120.211948 281.238862 
L 120.608352 282.486075 
L 120.608352 282.486075 
L 122.59037 291.400204 
L 122.59037 291.400204 
L 123.383177 293.623269 
L 123.383177 293.623269 
L 124.175984 294.847869 
L 124.175984 294.847869 
L 124.572388 295.268079 
L 124.572388 295.268079 
L 124.968791 294.929127 
L 124.968791 294.929127 
L 125.761598 293.633458 
L 125.761598 293.633458 
L 126.158002 292.847955 
L 126.158002 292.847955 
L 127.347213 288.976103 
L 127.347213 288.976103 
L 127.743616 287.707023 
L 127.743616 287.707023 
L 128.536424 284.749397 
L 128.536424 284.749397 
L 129.725634 281.693614 
L 129.725634 281.693614 
L 130.122038 281.14319 
L 130.122038 281.14319 
L 130.518442 280.829337 
L 130.518442 280.829337 
L 130.914845 280.72124 
L 130.914845 280.72124 
L 131.311249 280.77591 
L 131.311249 280.77591 
L 131.707652 280.373343 
L 131.707652 280.373343 
L 132.50046 280.607925 
L 132.50046 280.607925 
L 132.896863 280.781377 
L 132.896863 280.781377 
L 133.293267 280.345014 
L 134.482478 280.239899 
L 134.482478 280.239899 
L 134.878881 279.541122 
L 134.878881 279.541122 
L 135.671688 279.373883 
L 135.671688 279.373883 
L 136.068092 278.967091 
L 136.068092 278.967091 
L 136.464496 279.049096 
L 136.860899 279.329402 
L 136.860899 279.329402 
L 137.257303 279.773716 
L 137.257303 279.773716 
L 138.05011 281.216746 
L 138.05011 281.216746 
L 138.842917 283.099368 
L 138.842917 283.099368 
L 139.635724 284.604771 
L 139.635724 284.604771 
L 140.032128 284.728274 
L 140.032128 284.728274 
L 140.428531 284.28396 
L 140.428531 284.28396 
L 140.824935 284.592594 
L 140.824935 284.592594 
L 141.221339 283.809328 
L 141.617742 283.821504 
L 141.617742 283.821504 
L 142.014146 283.184852 
L 142.014146 283.184852 
L 142.410549 283.414713 
L 142.410549 283.414713 
L 143.203357 283.458448 
L 143.203357 283.458448 
L 143.59976 285.310506 
L 143.59976 285.310506 
L 143.996164 286.438439 
L 143.996164 286.438439 
L 145.185375 294.418712 
L 145.185375 294.418712 
L 145.581778 294.296699 
L 145.581778 294.296699 
L 145.978182 291.350007 
L 145.978182 291.350007 
L 146.770989 287.984098 
L 146.770989 287.984098 
L 147.563796 287.461507 
L 147.563796 287.461507 
L 148.356603 289.818016 
L 148.356603 289.818016 
L 149.149411 294.321052 
L 149.149411 294.321052 
L 149.545814 295.488 
L 149.545814 295.488 
L 149.942218 291.578626 
L 149.942218 291.578626 
L 150.735025 286.547779 
L 150.735025 286.547779 
L 151.131429 286.180001 
L 151.131429 286.180001 
L 151.527832 284.580418 
L 151.527832 284.580418 
L 151.924236 285.65567 
L 151.924236 285.65567 
L 152.320639 285.21881 
L 152.320639 285.21881 
L 152.717043 287.739825 
L 152.717043 287.739825 
L 153.113447 288.378962 
L 153.113447 288.378962 
L 153.50985 291.818426 
L 153.50985 291.818426 
L 153.906254 293.038056 
L 154.302657 294.683611 
L 154.302657 294.683611 
L 154.699061 293.878228 
L 154.699061 293.878228 
L 155.095465 291.752823 
L 155.095465 291.752823 
L 155.491868 292.151663 
L 155.491868 292.151663 
L 155.888272 291.625095 
L 155.888272 291.625095 
L 156.284675 293.426956 
L 156.284675 293.426956 
L 156.681079 294.466921 
L 156.681079 294.466921 
L 157.077483 293.558908 
L 157.077483 293.558908 
L 157.473886 291.399458 
L 157.473886 291.399458 
L 157.87029 287.933902 
L 157.87029 287.933902 
L 159.0595 280.750066 
L 159.0595 280.750066 
L 159.455904 279.321947 
L 159.455904 279.321947 
L 159.852308 278.731515 
L 159.852308 278.731515 
L 160.645115 282.112085 
L 160.645115 282.112085 
L 161.437922 289.598592 
L 161.437922 289.598592 
L 161.834326 294.68386 
L 161.834326 294.68386 
L 162.230729 290.972538 
L 162.230729 290.972538 
L 163.41994 274.575133 
L 163.41994 274.575133 
L 164.212747 266.640584 
L 164.212747 266.640584 
L 164.609151 265.060881 
L 165.005554 264.448581 
L 165.005554 264.448581 
L 165.401958 266.060838 
L 165.798362 268.869116 
L 165.798362 268.869116 
L 166.194765 273.038668 
L 166.194765 273.038668 
L 167.383976 294.311609 
L 167.383976 294.311609 
L 168.573187 262.417853 
L 168.573187 262.417853 
L 170.555205 209.349065 
L 170.555205 209.349065 
L 171.348012 194.974187 
L 171.348012 194.974187 
L 171.744416 190.834455 
L 171.744416 190.834455 
L 172.140819 189.02663 
L 172.140819 189.02663 
L 172.537223 188.852184 
L 172.537223 188.852184 
L 172.933626 191.782476 
L 172.933626 191.782476 
L 173.726434 204.12762 
L 173.726434 204.12762 
L 174.519241 224.78851 
L 174.519241 224.78851 
L 175.708452 266.580199 
L 175.708452 266.580199 
L 176.501259 293.450066 
L 176.501259 293.450066 
L 177.69047 250.063018 
L 177.69047 250.063018 
L 178.483277 227.529445 
L 178.483277 227.529445 
L 179.276084 212.952787 
L 179.276084 212.952787 
L 179.672488 209.038442 
L 179.672488 209.038442 
L 180.068891 207.419973 
L 180.068891 207.419973 
L 180.465295 207.577273 
L 180.465295 207.577273 
L 180.861698 209.85302 
L 180.861698 209.85302 
L 181.258102 213.860054 
L 181.258102 213.860054 
L 182.447313 231.702725 
L 182.447313 231.702725 
L 183.636523 250.894493 
L 183.636523 250.894493 
L 184.429331 261.217855 
L 184.429331 261.217855 
L 185.222138 265.851105 
L 185.222138 265.851105 
L 185.618541 267.268291 
L 185.618541 267.268291 
L 186.014945 268.094299 
L 186.014945 268.094299 
L 186.411349 267.832382 
L 186.411349 267.832382 
L 186.807752 268.117906 
L 186.807752 268.117906 
L 187.204156 268.571913 
L 187.996963 270.04004 
L 187.996963 270.04004 
L 188.78977 273.4636 
L 188.78977 273.4636 
L 190.771788 283.907733 
L 190.771788 283.907733 
L 191.168192 285.333616 
L 191.168192 285.333616 
L 191.564595 286.219015 
L 191.564595 286.219015 
L 191.960999 286.734649 
L 191.960999 286.734649 
L 192.357403 286.848958 
L 192.753806 286.706321 
L 193.546613 286.258527 
L 193.546613 286.258527 
L 193.943017 286.229452 
L 193.943017 286.229452 
L 194.339421 286.458568 
L 194.339421 286.458568 
L 194.735824 287.09199 
L 194.735824 287.09199 
L 195.132228 288.23707 
L 195.132228 288.23707 
L 195.925035 291.689456 
L 195.925035 291.689456 
L 196.321439 295.488 
L 196.321439 295.488 
L 196.717842 295.450725 
L 196.717842 295.450725 
L 197.510649 292.642447 
L 197.510649 292.642447 
L 197.907053 291.732695 
L 197.907053 291.732695 
L 198.303457 291.210351 
L 198.303457 291.210351 
L 198.69986 291.090575 
L 198.69986 291.090575 
L 199.492667 291.661127 
L 199.492667 291.661127 
L 200.681878 293.669987 
L 200.681878 293.669987 
L 201.078282 294.307385 
L 201.078282 294.307385 
L 202.267493 294.565575 
L 202.267493 294.565575 
L 202.663896 294.382431 
L 202.663896 294.382431 
L 203.0603 294.000241 
L 203.0603 294.000241 
L 205.042318 288.82452 
L 205.042318 288.82452 
L 205.835125 285.934485 
L 205.835125 285.934485 
L 207.420739 281.443128 
L 207.420739 281.443128 
L 208.213546 279.932507 
L 208.213546 279.932507 
L 209.006354 278.830914 
L 209.006354 278.830914 
L 209.799161 278.358767 
L 209.799161 278.358767 
L 210.591968 278.304346 
L 210.591968 278.304346 
L 210.988372 278.334415 
L 210.988372 278.334415 
L 211.781179 278.881111 
L 211.781179 278.881111 
L 212.573986 279.909148 
L 212.573986 279.909148 
L 213.366793 281.543024 
L 213.366793 281.543024 
L 214.1596 283.701728 
L 214.1596 283.701728 
L 215.348811 287.790021 
L 215.348811 287.790021 
L 217.330829 294.55315 
L 217.330829 294.55315 
L 217.727233 295.235774 
L 217.727233 295.235774 
L 219.312847 291.216564 
L 219.312847 291.216564 
L 220.898462 288.223651 
L 220.898462 288.223651 
L 221.691269 287.258732 
L 221.691269 287.258732 
L 222.087672 286.951091 
L 222.087672 286.951091 
L 222.484076 286.448876 
L 222.484076 286.448876 
L 222.88048 286.262751 
L 222.88048 286.262751 
L 223.276883 286.232931 
L 223.276883 286.232931 
L 223.673287 286.369605 
L 223.673287 286.369605 
L 224.06969 286.260763 
L 224.06969 286.260763 
L 224.862498 286.733158 
L 224.862498 286.733158 
L 225.258901 287.075837 
L 225.258901 287.075837 
L 225.655305 286.897664 
L 225.655305 286.897664 
L 226.448112 287.274636 
L 226.448112 287.274636 
L 226.844515 287.021665 
L 226.844515 287.021665 
L 227.637323 287.362604 
L 227.637323 287.362604 
L 228.033726 287.156351 
L 228.033726 287.156351 
L 228.43013 287.428705 
L 228.43013 287.428705 
L 228.826533 287.934399 
L 229.222937 287.902094 
L 229.222937 287.902094 
L 229.619341 288.424934 
L 229.619341 288.424934 
L 230.015744 289.162477 
L 230.412148 289.185587 
L 230.412148 289.185587 
L 231.204955 290.585627 
L 231.204955 290.585627 
L 231.601359 290.329673 
L 231.601359 290.329673 
L 231.997762 290.761812 
L 231.997762 290.761812 
L 232.394166 290.532448 
L 232.394166 290.532448 
L 233.186973 290.61147 
L 233.186973 290.61147 
L 233.583377 289.84038 
L 233.583377 289.84038 
L 233.97978 289.591634 
L 233.97978 289.591634 
L 234.376184 289.564796 
L 234.376184 289.564796 
L 234.772587 288.560366 
L 234.772587 288.560366 
L 235.168991 288.430153 
L 235.168991 288.430153 
L 235.565395 288.603853 
L 235.565395 288.603853 
L 235.961798 287.566124 
L 235.961798 287.566124 
L 236.358202 287.700562 
L 236.358202 287.700562 
L 236.754605 287.068382 
L 236.754605 287.068382 
L 237.151009 287.209281 
L 237.151009 287.209281 
L 237.547413 287.696089 
L 237.547413 287.696089 
L 237.943816 287.056703 
L 237.943816 287.056703 
L 238.34022 287.375526 
L 238.34022 287.375526 
L 238.736623 287.013464 
L 238.736623 287.013464 
L 239.133027 287.131004 
L 239.133027 287.131004 
L 239.529431 287.503006 
L 239.529431 287.503006 
L 239.925834 286.865608 
L 239.925834 286.865608 
L 240.322238 286.997809 
L 240.322238 286.997809 
L 240.718641 287.352913 
L 240.718641 287.352913 
L 241.115045 286.451113 
L 241.115045 286.451113 
L 241.511449 286.6601 
L 241.511449 286.6601 
L 241.907852 286.077868 
L 241.907852 286.077868 
L 242.304256 286.165837 
L 242.304256 286.165837 
L 242.700659 286.577847 
L 242.700659 286.577847 
L 243.097063 285.919575 
L 243.097063 285.919575 
L 243.493467 286.20013 
L 243.493467 286.20013 
L 243.88987 286.706817 
L 243.88987 286.706817 
L 244.286274 285.749105 
L 244.286274 285.749105 
L 244.682677 285.939206 
L 244.682677 285.939206 
L 245.079081 285.293856 
L 245.079081 285.293856 
L 245.475485 285.269007 
L 245.475485 285.269007 
L 245.871888 285.404935 
L 246.268292 284.698703 
L 246.268292 284.698703 
L 246.664695 284.740202 
L 247.061099 284.360994 
L 247.061099 284.360994 
L 247.457502 284.426349 
L 247.457502 284.426349 
L 247.853906 284.755112 
L 247.853906 284.755112 
L 248.25031 284.479031 
L 248.25031 284.479031 
L 248.646713 284.823698 
L 248.646713 284.823698 
L 249.043117 285.431276 
L 249.043117 285.431276 
L 249.43952 285.243908 
L 249.43952 285.243908 
L 250.232328 286.666312 
L 250.232328 286.666312 
L 250.628731 286.430239 
L 250.628731 286.430239 
L 251.025135 287.061424 
L 251.025135 287.061424 
L 251.421538 287.000791 
L 251.421538 287.000791 
L 252.214346 287.864074 
L 252.214346 287.864074 
L 252.610749 287.490581 
L 252.610749 287.490581 
L 253.403556 287.754735 
L 253.403556 287.754735 
L 253.79996 287.073601 
L 253.79996 287.073601 
L 254.592767 286.763227 
L 254.592767 286.763227 
L 254.989171 285.889258 
L 254.989171 285.889258 
L 255.781978 285.223531 
L 255.781978 285.223531 
L 256.178382 284.385844 
L 256.178382 284.385844 
L 257.367592 283.263377 
L 257.367592 283.263377 
L 258.556803 282.992017 
L 258.556803 282.992017 
L 259.34961 283.336933 
L 259.34961 283.336933 
L 259.746014 283.649544 
L 259.746014 283.649544 
L 260.538821 284.743681 
L 260.538821 284.743681 
L 260.935225 285.450659 
L 260.935225 285.450659 
L 262.124436 288.563099 
L 262.124436 288.563099 
L 263.313646 292.202605 
L 263.313646 292.202605 
L 263.71005 295.488 
L 263.71005 295.488 
L 264.106454 294.474624 
L 264.106454 294.474624 
L 264.502857 295.472345 
L 265.295664 293.727638 
L 265.295664 293.727638 
L 266.088472 292.468249 
L 266.088472 292.468249 
L 266.881279 291.726482 
L 266.881279 291.726482 
L 267.674086 291.299314 
L 267.674086 291.299314 
L 268.466893 291.159161 
L 268.466893 291.159161 
L 269.2597 291.156427 
L 269.2597 291.156427 
L 270.052507 291.291362 
L 270.052507 291.291362 
L 271.638122 292.459303 
L 271.638122 292.459303 
L 274.809351 295.266091 
L 274.809351 295.266091 
L 275.205754 295.486261 
L 275.205754 295.486261 
L 275.998561 294.856069 
L 275.998561 294.856069 
L 277.584176 293.607365 
L 277.584176 293.607365 
L 278.773387 292.094259 
L 278.773387 292.094259 
L 279.566194 291.207369 
L 279.566194 291.207369 
L 280.359001 289.96786 
L 280.359001 289.96786 
L 281.944615 287.510958 
L 281.944615 287.510958 
L 283.133826 285.751093 
L 283.133826 285.751093 
L 283.53023 285.283917 
L 283.53023 285.283917 
L 283.926633 284.5916 
L 283.926633 284.5916 
L 284.719441 283.871204 
L 284.719441 283.871204 
L 285.115844 283.691291 
L 285.115844 283.691291 
L 285.512248 283.650289 
L 285.512248 283.650289 
L 285.908651 283.369735 
L 285.908651 283.369735 
L 286.701459 283.446521 
L 286.701459 283.446521 
L 287.494266 283.695516 
L 287.494266 283.695516 
L 287.890669 283.41521 
L 287.890669 283.41521 
L 289.476284 283.192058 
L 289.476284 283.192058 
L 289.872687 282.616039 
L 289.872687 282.616039 
L 291.458302 281.334285 
L 291.458302 281.334285 
L 291.854705 280.507283 
L 291.854705 280.507283 
L 293.043916 279.306291 
L 293.043916 279.306291 
L 293.44032 279.059532 
L 293.44032 279.059532 
L 293.836723 278.289436 
L 293.836723 278.289436 
L 294.62953 277.697265 
L 294.62953 277.697265 
L 295.025934 277.495485 
L 295.025934 277.495485 
L 295.422338 276.914744 
L 295.422338 276.914744 
L 296.215145 276.651584 
L 296.215145 276.651584 
L 296.611548 276.710976 
L 296.611548 276.710976 
L 297.007952 276.95177 
L 297.007952 276.95177 
L 297.404356 276.794968 
L 297.800759 277.153551 
L 297.800759 277.153551 
L 298.98997 278.635843 
L 298.98997 278.635843 
L 301.368392 283.37719 
L 301.368392 283.37719 
L 301.764795 283.714899 
L 301.764795 283.714899 
L 302.557602 285.155194 
L 302.557602 285.155194 
L 302.954006 285.425312 
L 302.954006 285.425312 
L 303.746813 286.618849 
L 303.746813 286.618849 
L 304.143217 286.760245 
L 304.936024 287.817108 
L 304.936024 287.817108 
L 305.332428 287.956018 
L 305.332428 287.956018 
L 306.125235 289.144585 
L 306.125235 289.144585 
L 306.521638 289.265852 
L 306.521638 289.265852 
L 306.918042 289.900268 
L 306.918042 289.900268 
L 307.314446 290.201697 
L 307.314446 290.201697 
L 308.107253 291.413374 
L 308.107253 291.413374 
L 308.503656 291.470777 
L 308.503656 291.470777 
L 308.90006 291.911613 
L 309.296464 291.902916 
L 309.296464 291.902916 
L 309.692867 292.180488 
L 309.692867 292.180488 
L 310.089271 292.636483 
L 310.089271 292.636483 
L 310.485674 292.454333 
L 310.485674 292.454333 
L 310.882078 292.907594 
L 310.882078 292.907594 
L 311.278482 292.842985 
L 311.674885 293.304446 
L 311.674885 293.304446 
L 312.071289 293.37154 
L 312.071289 293.37154 
L 312.467692 293.936377 
L 312.467692 293.936377 
L 312.864096 294.192827 
L 312.864096 294.192827 
L 313.2605 294.911981 
L 313.2605 294.911981 
L 313.656903 295.263358 
L 313.656903 295.263358 
L 314.053307 294.948262 
L 314.053307 294.948262 
L 314.44971 294.464187 
L 314.44971 294.464187 
L 314.846114 293.53207 
L 314.846114 293.53207 
L 315.242517 292.987362 
L 315.242517 292.987362 
L 315.638921 291.914098 
L 315.638921 291.914098 
L 316.035325 291.428533 
L 316.035325 291.428533 
L 316.431728 290.151997 
L 316.431728 290.151997 
L 316.828132 289.825222 
L 316.828132 289.825222 
L 317.224535 288.438105 
L 317.224535 288.438105 
L 317.620939 288.238312 
L 317.620939 288.238312 
L 318.017343 286.603194 
L 318.017343 286.603194 
L 318.413746 286.697623 
L 318.413746 286.697623 
L 318.81015 286.481927 
L 318.81015 286.481927 
L 319.206553 285.629081 
L 319.206553 285.629081 
L 319.602957 285.670083 
L 319.602957 285.670083 
L 319.999361 284.601789 
L 319.999361 284.601789 
L 320.395764 285.016284 
L 320.792168 283.926868 
L 320.792168 283.926868 
L 321.188571 284.729268 
L 321.584975 283.425398 
L 321.584975 283.425398 
L 321.981379 284.605268 
L 321.981379 284.605268 
L 322.377782 285.306778 
L 322.377782 285.306778 
L 322.774186 284.596819 
L 322.774186 284.596819 
L 323.170589 285.679774 
L 323.170589 285.679774 
L 323.566993 284.751385 
L 323.566993 284.751385 
L 323.963397 286.174037 
L 323.963397 286.174037 
L 324.3598 286.995075 
L 324.3598 286.995075 
L 324.756204 286.232186 
L 324.756204 286.232186 
L 325.152607 287.204808 
L 325.152607 287.204808 
L 325.549011 286.038357 
L 325.549011 286.038357 
L 326.341818 288.618018 
L 326.341818 288.618018 
L 326.738222 288.156805 
L 326.738222 288.156805 
L 327.134625 289.774777 
L 327.134625 289.774777 
L 327.531029 290.905444 
L 327.531029 290.905444 
L 327.927433 290.592833 
L 327.927433 290.592833 
L 328.323836 291.803517 
L 328.323836 291.803517 
L 328.72024 292.395936 
L 328.72024 292.395936 
L 329.116643 291.756799 
L 329.116643 291.756799 
L 329.513047 292.207575 
L 329.513047 292.207575 
L 329.909451 290.390058 
L 329.909451 290.390058 
L 330.305854 290.659182 
L 330.305854 290.659182 
L 330.702258 290.077696 
L 330.702258 290.077696 
L 331.098661 287.234876 
L 331.098661 287.234876 
L 331.495065 286.293068 
L 331.495065 286.293068 
L 331.891469 284.622166 
L 331.891469 284.622166 
L 332.287872 281.075102 
L 332.287872 281.075102 
L 332.684276 279.806767 
L 332.684276 279.806767 
L 333.080679 278.100826 
L 333.080679 278.100826 
L 333.477083 275.210543 
L 333.477083 275.210543 
L 333.873487 275.150407 
L 333.873487 275.150407 
L 334.26989 272.569007 
L 335.062697 278.021804 
L 335.062697 278.021804 
L 335.459101 279.105753 
L 335.459101 279.105753 
L 336.251908 291.097781 
L 336.251908 291.097781 
L 336.648312 294.909248 
L 336.648312 294.909248 
L 338.233926 264.670987 
L 338.233926 264.670987 
L 339.026733 246.556956 
L 339.026733 246.556956 
L 339.423137 242.025093 
L 339.423137 242.025093 
L 340.215944 224.078799 
L 340.215944 224.078799 
L 340.612348 216.606456 
L 340.612348 216.606456 
L 341.008751 213.157301 
L 341.008751 213.157301 
L 341.801558 198.944444 
L 341.801558 198.944444 
L 342.197962 193.613908 
L 342.197962 193.613908 
L 342.594366 191.611012 
L 342.594366 191.611012 
L 343.387173 183.23687 
L 343.387173 183.23687 
L 343.783576 184.145379 
L 343.783576 184.145379 
L 344.17998 181.281188 
L 344.17998 181.281188 
L 344.576384 179.726583 
L 344.576384 179.726583 
L 344.972787 179.492001 
L 344.972787 179.492001 
L 345.369191 183.0085 
L 345.369191 183.0085 
L 345.765594 183.452814 
L 345.765594 183.452814 
L 346.161998 185.216904 
L 346.161998 185.216904 
L 346.558402 188.290081 
L 346.558402 188.290081 
L 346.954805 194.312933 
L 346.954805 194.312933 
L 347.351209 198.08961 
L 347.351209 198.08961 
L 347.747612 203.148785 
L 348.144016 212.185424 
L 348.144016 212.185424 
L 348.936823 225.054651 
L 348.936823 225.054651 
L 349.333227 233.209618 
L 349.333227 233.209618 
L 350.126034 252.611616 
L 350.126034 252.611616 
L 350.918841 271.274331 
L 350.918841 271.274331 
L 351.711648 291.187489 
L 351.711648 291.187489 
L 352.108052 290.996394 
L 352.108052 290.996394 
L 352.504456 280.792808 
L 352.504456 280.792808 
L 353.693666 260.76708 
L 353.693666 260.76708 
L 354.486474 253.417247 
L 354.486474 253.417247 
L 354.882877 253.748495 
L 354.882877 253.748495 
L 355.675684 256.922066 
L 355.675684 256.922066 
L 356.468492 268.512521 
L 356.468492 268.512521 
L 356.864895 275.517438 
L 357.657702 294.162013 
L 357.657702 294.162013 
L 358.054106 285.244654 
L 358.054106 285.244654 
L 360.036124 221.79013 
L 360.036124 221.79013 
L 361.621738 173.916446 
L 361.621738 173.916446 
L 362.414545 155.537267 
L 362.414545 155.537267 
L 363.207353 143.684398 
L 363.207353 143.684398 
L 363.603756 141.370134 
L 363.603756 141.370134 
L 364.00016 140.61122 
L 364.00016 140.61122 
L 364.396563 143.252508 
L 364.396563 143.252508 
L 364.792967 147.981181 
L 364.792967 147.981181 
L 365.189371 154.686906 
L 365.189371 154.686906 
L 365.982178 176.907371 
L 365.982178 176.907371 
L 367.171389 223.765442 
L 367.171389 223.765442 
L 368.757003 293.612832 
L 368.757003 293.612832 
L 370.739021 201.602381 
L 370.739021 201.602381 
L 371.531828 167.333479 
L 371.531828 167.333479 
L 372.324635 138.483578 
L 372.324635 138.483578 
L 373.117443 111.033965 
L 373.117443 111.033965 
L 373.513846 102.012981 
L 373.513846 102.012981 
L 374.306653 80.491542 
L 374.306653 80.491542 
L 374.703057 72.313962 
L 374.703057 72.313962 
L 375.099461 67.421529 
L 375.099461 67.421529 
L 375.495864 61.124583 
L 375.495864 61.124583 
L 375.892268 56.712248 
L 375.892268 56.712248 
L 376.288671 55.901399 
L 376.288671 55.901399 
L 376.685075 53.760586 
L 376.685075 53.760586 
L 377.081479 53.568 
L 377.081479 53.568 
L 377.477882 56.944594 
L 377.874286 59.16592 
L 377.874286 59.16592 
L 378.270689 63.342181 
L 378.270689 63.342181 
L 379.4599 86.188862 
L 379.4599 86.188862 
L 381.045514 135.122888 
L 381.045514 135.122888 
L 384.613147 285.030697 
L 384.613147 285.030697 
L 385.00955 290.787904 
L 385.00955 290.787904 
L 386.198761 249.656723 
L 386.198761 249.656723 
L 386.991568 229.559179 
L 386.991568 229.559179 
L 387.784376 217.853669 
L 387.784376 217.853669 
L 388.180779 216.294094 
L 388.180779 216.294094 
L 388.577183 215.666139 
L 388.577183 215.666139 
L 389.36999 222.676275 
L 389.36999 222.676275 
L 390.162797 237.371715 
L 390.162797 237.371715 
L 391.352008 270.515666 
L 391.352008 270.515666 
L 392.144815 295.415936 
L 392.144815 295.415936 
L 393.73043 243.345365 
L 393.73043 243.345365 
L 394.91964 211.106693 
L 394.91964 211.106693 
L 395.712448 195.101418 
L 395.712448 195.101418 
L 396.505255 184.347657 
L 396.505255 184.347657 
L 396.901658 182.29854 
L 396.901658 182.29854 
L 397.694466 181.657663 
L 397.694466 181.657663 
L 398.090869 181.509061 
L 398.090869 181.509061 
L 398.487273 181.123143 
L 398.487273 181.123143 
" clip-path="url(#p31911059f9)" style="fill: none; stroke: #1f77b4; stroke-width: 1.5; stroke-linecap: square"/>
   </g>
   <g id="patch_3">
    <path d="M 57.6 307.584 
L 57.6 41.472 
" style="fill: none; stroke: #000000; stroke-width: 0.8; stroke-linejoin: miter; stroke-linecap: square"/>
   </g>
   <g id="patch_4">
    <path d="M 414.72 307.584 
L 414.72 41.472 
" style="fill: none; stroke: #000000; stroke-width: 0.8; stroke-linejoin: miter; stroke-linecap: square"/>
   </g>
   <g id="patch_5">
    <path d="M 57.6 307.584 
L 414.72 307.584 
" style="fill: none; stroke: #000000; stroke-width: 0.8; stroke-linejoin: miter; stroke-linecap: square"/>
   </g>
   <g id="patch_6">
    <path d="M 57.6 41.472 
L 414.72 41.472 
" style="fill: none; stroke: #000000; stroke-width: 0.8; stroke-linejoin: miter; stroke-linecap: square"/>
   </g>
   <g id="text_16">
    <!-- Tracking error vs Time -->
    <g transform="translate(169.584375 35.472) scale(0.12 -0.12)">
     <defs>
      <path id="DejaVuSans-76" d="M 191 3500 
L 800 3500 
L 1894 563 
L 2988 3500 
L 3597 3500 
L 2284 0 
L 1503 0 
L 191 3500 
z
" transform="scale(0.015625)"/>
     </defs>
     <use xlink:href="#DejaVuSans-54"/>
     <use xlink:href="#DejaVuSans-72" x="46.333984"/>
     <use xlink:href="#DejaVuSans-61" x="87.447266"/>
     <use xlink:href="#DejaVuSans-63" x="148.726562"/>
     <use xlink:href="#DejaVuSans-6b" x="203.707031"/>
     <use xlink:href="#DejaVuSans-69" x="261.617188"/>
     <use xlink:href="#DejaVuSans-6e" x="289.400391"/>
     <use xlink:href="#DejaVuSans-67" x="352.779297"/>
     <use xlink:href="#DejaVuSans-20" x="416.255859"/>
     <use xlink:href="#DejaVuSans-65" x="448.042969"/>
     <use xlink:href="#DejaVuSans-72" x="509.566406"/>
     <use xlink:href="#DejaVuSans-72" x="548.929688"/>
     <use xlink:href="#DejaVuSans-6f" x="587.792969"/>
     <use xlink:href="#DejaVuSans-72" x="648.974609"/>
     <use xlink:href="#DejaVuSans-20" x="690.087891"/>
     <use xlink:href="#DejaVuSans-76" x="721.875"/>
     <use xlink:href="#DejaVuSans-73" x="781.054688"/>
     <use xlink:href="#DejaVuSans-20" x="833.154297"/>
     <use xlink:href="#DejaVuSans-54" x="864.941406"/>
     <use xlink:href="#DejaVuSans-69" x="922.900391"/>
     <use xlink:href="#DejaVuSans-6d" x="950.683594"/>
     <use xlink:href="#DejaVuSans-65" x="1048.095703"/>
    </g>
   </g>
   <g id="legend_1">
    <g id="patch_7">
     <path d="M 64.6 64.150125 
L 161.31875 64.150125 
Q 163.31875 64.150125 163.31875 62.150125 
L 163.31875 48.472 
Q 163.31875 46.472 161.31875 46.472 
L 64.6 46.472 
Q 62.6 46.472 62.6 48.472 
L 62.6 62.150125 
Q 62.6 64.150125 64.6 64.150125 
z
" style="fill: #ffffff; opacity: 0.8; stroke: #cccccc; stroke-linejoin: miter"/>
    </g>
    <g id="line2d_28">
     <path d="M 66.6 54.570438 
L 76.6 54.570438 
L 86.6 54.570438 
" style="fill: none; stroke: #1f77b4; stroke-width: 1.5; stroke-linecap: square"/>
    </g>
    <g id="text_17">
     <!-- Actual speed -->
     <g transform="translate(94.6 58.070438) scale(0.1 -0.1)">
      <defs>
       <path id="DejaVuSans-41" d="M 2188 4044 
L 1331 1722 
L 3047 1722 
L 2188 4044 
z
M 1831 4666 
L 2547 4666 
L 4325 0 
L 3669 0 
L 3244 1197 
L 1141 1197 
L 716 0 
L 50 0 
L 1831 4666 
z
" transform="scale(0.015625)"/>
       <path id="DejaVuSans-74" d="M 1172 4494 
L 1172 3500 
L 2356 3500 
L 2356 3053 
L 1172 3053 
L 1172 1153 
Q 1172 725 1289 603 
Q 1406 481 1766 481 
L 2356 481 
L 2356 0 
L 1766 0 
Q 1100 0 847 248 
Q 594 497 594 1153 
L 594 3053 
L 172 3053 
L 172 3500 
L 594 3500 
L 594 4494 
L 1172 4494 
z
" transform="scale(0.015625)"/>
       <path id="DejaVuSans-75" d="M 544 1381 
L 544 3500 
L 1119 3500 
L 1119 1403 
Q 1119 906 1312 657 
Q 1506 409 1894 409 
Q 2359 409 2629 706 
Q 2900 1003 2900 1516 
L 2900 3500 
L 3475 3500 
L 3475 0 
L 2900 0 
L 2900 538 
Q 2691 219 2414 64 
Q 2138 -91 1772 -91 
Q 1169 -91 856 284 
Q 544 659 544 1381 
z
M 1991 3584 
L 1991 3584 
z
" transform="scale(0.015625)"/>
       <path id="DejaVuSans-6c" d="M 603 4863 
L 1178 4863 
L 1178 0 
L 603 0 
L 603 4863 
z
" transform="scale(0.015625)"/>
       <path id="DejaVuSans-70" d="M 1159 525 
L 1159 -1331 
L 581 -1331 
L 581 3500 
L 1159 3500 
L 1159 2969 
Q 1341 3281 1617 3432 
Q 1894 3584 2278 3584 
Q 2916 3584 3314 3078 
Q 3713 2572 3713 1747 
Q 3713 922 3314 415 
Q 2916 -91 2278 -91 
Q 1894 -91 1617 61 
Q 1341 213 1159 525 
z
M 3116 1747 
Q 3116 2381 2855 2742 
Q 2594 3103 2138 3103 
Q 1681 3103 1420 2742 
Q 1159 2381 1159 1747 
Q 1159 1113 1420 752 
Q 1681 391 2138 391 
Q 2594 391 2855 752 
Q 3116 1113 3116 1747 
z
" transform="scale(0.015625)"/>
       <path id="DejaVuSans-64" d="M 2906 2969 
L 2906 4863 
L 3481 4863 
L 3481 0 
L 2906 0 
L 2906 525 
Q 2725 213 2448 61 
Q 2172 -91 1784 -91 
Q 1150 -91 751 415 
Q 353 922 353 1747 
Q 353 2572 751 3078 
Q 1150 3584 1784 3584 
Q 2172 3584 2448 3432 
Q 2725 3281 2906 2969 
z
M 947 1747 
Q 947 1113 1208 752 
Q 1469 391 1925 391 
Q 2381 391 2643 752 
Q 2906 1113 2906 1747 
Q 2906 2381 2643 2742 
Q 2381 3103 1925 3103 
Q 1469 3103 1208 2742 
Q 947 2381 947 1747 
z
" transform="scale(0.015625)"/>
      </defs>
      <use xlink:href="#DejaVuSans-41"/>
      <use xlink:href="#DejaVuSans-63" x="66.658203"/>
      <use xlink:href="#DejaVuSans-74" x="121.638672"/>
      <use xlink:href="#DejaVuSans-75" x="160.847656"/>
      <use xlink:href="#DejaVuSans-61" x="224.226562"/>
      <use xlink:href="#DejaVuSans-6c" x="285.505859"/>
      <use xlink:href="#DejaVuSans-20" x="313.289062"/>
      <use xlink:href="#DejaVuSans-73" x="345.076172"/>
      <use xlink:href="#DejaVuSans-70" x="397.175781"/>
      <use xlink:href="#DejaVuSans-65" x="460.652344"/>
      <use xlink:href="#DejaVuSans-65" x="522.175781"/>
      <use xlink:href="#DejaVuSans-64" x="583.699219"/>
     </g>
    </g>
   </g>
  </g>
 </g>
 <defs>
  <clipPath id="p31911059f9">
   <rect x="57.6" y="41.472" width="357.12" height="266.112"/>
  </clipPath>
 </defs>
</svg>
