<?xml version="1.0" encoding="utf-8" standalone="no"?>
<!DOCTYPE svg PUBLIC "-//W3C//DTD SVG 1.1//EN"
  "http://www.w3.org/Graphics/SVG/1.1/DTD/svg11.dtd">
<svg xmlns:xlink="http://www.w3.org/1999/xlink" width="460.8pt" height="345.6pt" viewBox="0 0 460.8 345.6" xmlns="http://www.w3.org/2000/svg" version="1.1">
 <metadata>
  <rdf:RDF xmlns:dc="http://purl.org/dc/elements/1.1/" xmlns:cc="http://creativecommons.org/ns#" xmlns:rdf="http://www.w3.org/1999/02/22-rdf-syntax-ns#">
   <cc:Work>
    <dc:type rdf:resource="http://purl.org/dc/dcmitype/StillImage"/>
    <dc:date>2024-01-30T20:58:25.779809</dc:date>
    <dc:format>image/svg+xml</dc:format>
    <dc:creator>
     <cc:Agent>
      <dc:title>Matplotlib v3.7.1, https://matplotlib.org/</dc:title>
     </cc:Agent>
    </dc:creator>
   </cc:Work>
  </rdf:RDF>
 </metadata>
 <defs>
  <style type="text/css">*{stroke-linejoin: round; stroke-linecap: butt}</style>
 </defs>
 <g id="figure_1">
  <g id="patch_1">
   <path d="M 0 345.6 
L 460.8 345.6 
L 460.8 0 
L 0 0 
z
" style="fill: #ffffff"/>
  </g>
  <g id="axes_1">
   <g id="patch_2">
    <path d="M 57.6 307.584 
L 414.72 307.584 
L 414.72 41.472 
L 57.6 41.472 
z
" style="fill: #ffffff"/>
   </g>
   <g id="matplotlib.axis_1">
    <g id="xtick_1">
     <g id="line2d_1">
      <path d="M 73.832727 307.584 
L 73.832727 41.472 
" clip-path="url(#pc43e949c96)" style="fill: none; stroke: #b0b0b0; stroke-width: 0.8; stroke-linecap: square"/>
     </g>
     <g id="line2d_2">
      <defs>
       <path id="m78718a4ca7" d="M 0 0 
L 0 3.5 
" style="stroke: #000000; stroke-width: 0.8"/>
      </defs>
      <g>
       <use xlink:href="#m78718a4ca7" x="73.832727" y="307.584" style="stroke: #000000; stroke-width: 0.8"/>
      </g>
     </g>
     <g id="text_1">
      <!-- 0 -->
      <g transform="translate(70.651477 322.182437) scale(0.1 -0.1)">
       <defs>
        <path id="DejaVuSans-30" d="M 2034 4250 
Q 1547 4250 1301 3770 
Q 1056 3291 1056 2328 
Q 1056 1369 1301 889 
Q 1547 409 2034 409 
Q 2525 409 2770 889 
Q 3016 1369 3016 2328 
Q 3016 3291 2770 3770 
Q 2525 4250 2034 4250 
z
M 2034 4750 
Q 2819 4750 3233 4129 
Q 3647 3509 3647 2328 
Q 3647 1150 3233 529 
Q 2819 -91 2034 -91 
Q 1250 -91 836 529 
Q 422 1150 422 2328 
Q 422 3509 836 4129 
Q 1250 4750 2034 4750 
z
" transform="scale(0.015625)"/>
       </defs>
       <use xlink:href="#DejaVuSans-30"/>
      </g>
     </g>
    </g>
    <g id="xtick_2">
     <g id="line2d_3">
      <path d="M 114.363882 307.584 
L 114.363882 41.472 
" clip-path="url(#pc43e949c96)" style="fill: none; stroke: #b0b0b0; stroke-width: 0.8; stroke-linecap: square"/>
     </g>
     <g id="line2d_4">
      <g>
       <use xlink:href="#m78718a4ca7" x="114.363882" y="307.584" style="stroke: #000000; stroke-width: 0.8"/>
      </g>
     </g>
     <g id="text_2">
      <!-- 2 -->
      <g transform="translate(111.182632 322.182437) scale(0.1 -0.1)">
       <defs>
        <path id="DejaVuSans-32" d="M 1228 531 
L 3431 531 
L 3431 0 
L 469 0 
L 469 531 
Q 828 903 1448 1529 
Q 2069 2156 2228 2338 
Q 2531 2678 2651 2914 
Q 2772 3150 2772 3378 
Q 2772 3750 2511 3984 
Q 2250 4219 1831 4219 
Q 1534 4219 1204 4116 
Q 875 4013 500 3803 
L 500 4441 
Q 881 4594 1212 4672 
Q 1544 4750 1819 4750 
Q 2544 4750 2975 4387 
Q 3406 4025 3406 3419 
Q 3406 3131 3298 2873 
Q 3191 2616 2906 2266 
Q 2828 2175 2409 1742 
Q 1991 1309 1228 531 
z
" transform="scale(0.015625)"/>
       </defs>
       <use xlink:href="#DejaVuSans-32"/>
      </g>
     </g>
    </g>
    <g id="xtick_3">
     <g id="line2d_5">
      <path d="M 154.895036 307.584 
L 154.895036 41.472 
" clip-path="url(#pc43e949c96)" style="fill: none; stroke: #b0b0b0; stroke-width: 0.8; stroke-linecap: square"/>
     </g>
     <g id="line2d_6">
      <g>
       <use xlink:href="#m78718a4ca7" x="154.895036" y="307.584" style="stroke: #000000; stroke-width: 0.8"/>
      </g>
     </g>
     <g id="text_3">
      <!-- 4 -->
      <g transform="translate(151.713786 322.182437) scale(0.1 -0.1)">
       <defs>
        <path id="DejaVuSans-34" d="M 2419 4116 
L 825 1625 
L 2419 1625 
L 2419 4116 
z
M 2253 4666 
L 3047 4666 
L 3047 1625 
L 3713 1625 
L 3713 1100 
L 3047 1100 
L 3047 0 
L 2419 0 
L 2419 1100 
L 313 1100 
L 313 1709 
L 2253 4666 
z
" transform="scale(0.015625)"/>
       </defs>
       <use xlink:href="#DejaVuSans-34"/>
      </g>
     </g>
    </g>
    <g id="xtick_4">
     <g id="line2d_7">
      <path d="M 195.42619 307.584 
L 195.42619 41.472 
" clip-path="url(#pc43e949c96)" style="fill: none; stroke: #b0b0b0; stroke-width: 0.8; stroke-linecap: square"/>
     </g>
     <g id="line2d_8">
      <g>
       <use xlink:href="#m78718a4ca7" x="195.42619" y="307.584" style="stroke: #000000; stroke-width: 0.8"/>
      </g>
     </g>
     <g id="text_4">
      <!-- 6 -->
      <g transform="translate(192.24494 322.182437) scale(0.1 -0.1)">
       <defs>
        <path id="DejaVuSans-36" d="M 2113 2584 
Q 1688 2584 1439 2293 
Q 1191 2003 1191 1497 
Q 1191 994 1439 701 
Q 1688 409 2113 409 
Q 2538 409 2786 701 
Q 3034 994 3034 1497 
Q 3034 2003 2786 2293 
Q 2538 2584 2113 2584 
z
M 3366 4563 
L 3366 3988 
Q 3128 4100 2886 4159 
Q 2644 4219 2406 4219 
Q 1781 4219 1451 3797 
Q 1122 3375 1075 2522 
Q 1259 2794 1537 2939 
Q 1816 3084 2150 3084 
Q 2853 3084 3261 2657 
Q 3669 2231 3669 1497 
Q 3669 778 3244 343 
Q 2819 -91 2113 -91 
Q 1303 -91 875 529 
Q 447 1150 447 2328 
Q 447 3434 972 4092 
Q 1497 4750 2381 4750 
Q 2619 4750 2861 4703 
Q 3103 4656 3366 4563 
z
" transform="scale(0.015625)"/>
       </defs>
       <use xlink:href="#DejaVuSans-36"/>
      </g>
     </g>
    </g>
    <g id="xtick_5">
     <g id="line2d_9">
      <path d="M 235.957344 307.584 
L 235.957344 41.472 
" clip-path="url(#pc43e949c96)" style="fill: none; stroke: #b0b0b0; stroke-width: 0.8; stroke-linecap: square"/>
     </g>
     <g id="line2d_10">
      <g>
       <use xlink:href="#m78718a4ca7" x="235.957344" y="307.584" style="stroke: #000000; stroke-width: 0.8"/>
      </g>
     </g>
     <g id="text_5">
      <!-- 8 -->
      <g transform="translate(232.776094 322.182437) scale(0.1 -0.1)">
       <defs>
        <path id="DejaVuSans-38" d="M 2034 2216 
Q 1584 2216 1326 1975 
Q 1069 1734 1069 1313 
Q 1069 891 1326 650 
Q 1584 409 2034 409 
Q 2484 409 2743 651 
Q 3003 894 3003 1313 
Q 3003 1734 2745 1975 
Q 2488 2216 2034 2216 
z
M 1403 2484 
Q 997 2584 770 2862 
Q 544 3141 544 3541 
Q 544 4100 942 4425 
Q 1341 4750 2034 4750 
Q 2731 4750 3128 4425 
Q 3525 4100 3525 3541 
Q 3525 3141 3298 2862 
Q 3072 2584 2669 2484 
Q 3125 2378 3379 2068 
Q 3634 1759 3634 1313 
Q 3634 634 3220 271 
Q 2806 -91 2034 -91 
Q 1263 -91 848 271 
Q 434 634 434 1313 
Q 434 1759 690 2068 
Q 947 2378 1403 2484 
z
M 1172 3481 
Q 1172 3119 1398 2916 
Q 1625 2713 2034 2713 
Q 2441 2713 2670 2916 
Q 2900 3119 2900 3481 
Q 2900 3844 2670 4047 
Q 2441 4250 2034 4250 
Q 1625 4250 1398 4047 
Q 1172 3844 1172 3481 
z
" transform="scale(0.015625)"/>
       </defs>
       <use xlink:href="#DejaVuSans-38"/>
      </g>
     </g>
    </g>
    <g id="xtick_6">
     <g id="line2d_11">
      <path d="M 276.488498 307.584 
L 276.488498 41.472 
" clip-path="url(#pc43e949c96)" style="fill: none; stroke: #b0b0b0; stroke-width: 0.8; stroke-linecap: square"/>
     </g>
     <g id="line2d_12">
      <g>
       <use xlink:href="#m78718a4ca7" x="276.488498" y="307.584" style="stroke: #000000; stroke-width: 0.8"/>
      </g>
     </g>
     <g id="text_6">
      <!-- 10 -->
      <g transform="translate(270.125998 322.182437) scale(0.1 -0.1)">
       <defs>
        <path id="DejaVuSans-31" d="M 794 531 
L 1825 531 
L 1825 4091 
L 703 3866 
L 703 4441 
L 1819 4666 
L 2450 4666 
L 2450 531 
L 3481 531 
L 3481 0 
L 794 0 
L 794 531 
z
" transform="scale(0.015625)"/>
       </defs>
       <use xlink:href="#DejaVuSans-31"/>
       <use xlink:href="#DejaVuSans-30" x="63.623047"/>
      </g>
     </g>
    </g>
    <g id="xtick_7">
     <g id="line2d_13">
      <path d="M 317.019653 307.584 
L 317.019653 41.472 
" clip-path="url(#pc43e949c96)" style="fill: none; stroke: #b0b0b0; stroke-width: 0.8; stroke-linecap: square"/>
     </g>
     <g id="line2d_14">
      <g>
       <use xlink:href="#m78718a4ca7" x="317.019653" y="307.584" style="stroke: #000000; stroke-width: 0.8"/>
      </g>
     </g>
     <g id="text_7">
      <!-- 12 -->
      <g transform="translate(310.657153 322.182437) scale(0.1 -0.1)">
       <use xlink:href="#DejaVuSans-31"/>
       <use xlink:href="#DejaVuSans-32" x="63.623047"/>
      </g>
     </g>
    </g>
    <g id="xtick_8">
     <g id="line2d_15">
      <path d="M 357.550807 307.584 
L 357.550807 41.472 
" clip-path="url(#pc43e949c96)" style="fill: none; stroke: #b0b0b0; stroke-width: 0.8; stroke-linecap: square"/>
     </g>
     <g id="line2d_16">
      <g>
       <use xlink:href="#m78718a4ca7" x="357.550807" y="307.584" style="stroke: #000000; stroke-width: 0.8"/>
      </g>
     </g>
     <g id="text_8">
      <!-- 14 -->
      <g transform="translate(351.188307 322.182437) scale(0.1 -0.1)">
       <use xlink:href="#DejaVuSans-31"/>
       <use xlink:href="#DejaVuSans-34" x="63.623047"/>
      </g>
     </g>
    </g>
    <g id="xtick_9">
     <g id="line2d_17">
      <path d="M 398.081961 307.584 
L 398.081961 41.472 
" clip-path="url(#pc43e949c96)" style="fill: none; stroke: #b0b0b0; stroke-width: 0.8; stroke-linecap: square"/>
     </g>
     <g id="line2d_18">
      <g>
       <use xlink:href="#m78718a4ca7" x="398.081961" y="307.584" style="stroke: #000000; stroke-width: 0.8"/>
      </g>
     </g>
     <g id="text_9">
      <!-- 16 -->
      <g transform="translate(391.719461 322.182437) scale(0.1 -0.1)">
       <use xlink:href="#DejaVuSans-31"/>
       <use xlink:href="#DejaVuSans-36" x="63.623047"/>
      </g>
     </g>
    </g>
    <g id="text_10">
     <!-- Time(s) -->
     <g transform="translate(217.420156 335.860562) scale(0.1 -0.1)">
      <defs>
       <path id="DejaVuSans-54" d="M -19 4666 
L 3928 4666 
L 3928 4134 
L 2272 4134 
L 2272 0 
L 1638 0 
L 1638 4134 
L -19 4134 
L -19 4666 
z
" transform="scale(0.015625)"/>
       <path id="DejaVuSans-69" d="M 603 3500 
L 1178 3500 
L 1178 0 
L 603 0 
L 603 3500 
z
M 603 4863 
L 1178 4863 
L 1178 4134 
L 603 4134 
L 603 4863 
z
" transform="scale(0.015625)"/>
       <path id="DejaVuSans-6d" d="M 3328 2828 
Q 3544 3216 3844 3400 
Q 4144 3584 4550 3584 
Q 5097 3584 5394 3201 
Q 5691 2819 5691 2113 
L 5691 0 
L 5113 0 
L 5113 2094 
Q 5113 2597 4934 2840 
Q 4756 3084 4391 3084 
Q 3944 3084 3684 2787 
Q 3425 2491 3425 1978 
L 3425 0 
L 2847 0 
L 2847 2094 
Q 2847 2600 2669 2842 
Q 2491 3084 2119 3084 
Q 1678 3084 1418 2786 
Q 1159 2488 1159 1978 
L 1159 0 
L 581 0 
L 581 3500 
L 1159 3500 
L 1159 2956 
Q 1356 3278 1631 3431 
Q 1906 3584 2284 3584 
Q 2666 3584 2933 3390 
Q 3200 3197 3328 2828 
z
" transform="scale(0.015625)"/>
       <path id="DejaVuSans-65" d="M 3597 1894 
L 3597 1613 
L 953 1613 
Q 991 1019 1311 708 
Q 1631 397 2203 397 
Q 2534 397 2845 478 
Q 3156 559 3463 722 
L 3463 178 
Q 3153 47 2828 -22 
Q 2503 -91 2169 -91 
Q 1331 -91 842 396 
Q 353 884 353 1716 
Q 353 2575 817 3079 
Q 1281 3584 2069 3584 
Q 2775 3584 3186 3129 
Q 3597 2675 3597 1894 
z
M 3022 2063 
Q 3016 2534 2758 2815 
Q 2500 3097 2075 3097 
Q 1594 3097 1305 2825 
Q 1016 2553 972 2059 
L 3022 2063 
z
" transform="scale(0.015625)"/>
       <path id="DejaVuSans-28" d="M 1984 4856 
Q 1566 4138 1362 3434 
Q 1159 2731 1159 2009 
Q 1159 1288 1364 580 
Q 1569 -128 1984 -844 
L 1484 -844 
Q 1016 -109 783 600 
Q 550 1309 550 2009 
Q 550 2706 781 3412 
Q 1013 4119 1484 4856 
L 1984 4856 
z
" transform="scale(0.015625)"/>
       <path id="DejaVuSans-73" d="M 2834 3397 
L 2834 2853 
Q 2591 2978 2328 3040 
Q 2066 3103 1784 3103 
Q 1356 3103 1142 2972 
Q 928 2841 928 2578 
Q 928 2378 1081 2264 
Q 1234 2150 1697 2047 
L 1894 2003 
Q 2506 1872 2764 1633 
Q 3022 1394 3022 966 
Q 3022 478 2636 193 
Q 2250 -91 1575 -91 
Q 1294 -91 989 -36 
Q 684 19 347 128 
L 347 722 
Q 666 556 975 473 
Q 1284 391 1588 391 
Q 1994 391 2212 530 
Q 2431 669 2431 922 
Q 2431 1156 2273 1281 
Q 2116 1406 1581 1522 
L 1381 1569 
Q 847 1681 609 1914 
Q 372 2147 372 2553 
Q 372 3047 722 3315 
Q 1072 3584 1716 3584 
Q 2034 3584 2315 3537 
Q 2597 3491 2834 3397 
z
" transform="scale(0.015625)"/>
       <path id="DejaVuSans-29" d="M 513 4856 
L 1013 4856 
Q 1481 4119 1714 3412 
Q 1947 2706 1947 2009 
Q 1947 1309 1714 600 
Q 1481 -109 1013 -844 
L 513 -844 
Q 928 -128 1133 580 
Q 1338 1288 1338 2009 
Q 1338 2731 1133 3434 
Q 928 4138 513 4856 
z
" transform="scale(0.015625)"/>
      </defs>
      <use xlink:href="#DejaVuSans-54"/>
      <use xlink:href="#DejaVuSans-69" x="57.958984"/>
      <use xlink:href="#DejaVuSans-6d" x="85.742188"/>
      <use xlink:href="#DejaVuSans-65" x="183.154297"/>
      <use xlink:href="#DejaVuSans-28" x="244.677734"/>
      <use xlink:href="#DejaVuSans-73" x="283.691406"/>
      <use xlink:href="#DejaVuSans-29" x="335.791016"/>
     </g>
    </g>
   </g>
   <g id="matplotlib.axis_2">
    <g id="ytick_1">
     <g id="line2d_19">
      <path d="M 57.6 295.488 
L 414.72 295.488 
" clip-path="url(#pc43e949c96)" style="fill: none; stroke: #b0b0b0; stroke-width: 0.8; stroke-linecap: square"/>
     </g>
     <g id="line2d_20">
      <defs>
       <path id="m22b476cc14" d="M 0 0 
L -3.5 0 
" style="stroke: #000000; stroke-width: 0.8"/>
      </defs>
      <g>
       <use xlink:href="#m22b476cc14" x="57.6" y="295.488" style="stroke: #000000; stroke-width: 0.8"/>
      </g>
     </g>
     <g id="text_11">
      <!-- 0.0 -->
      <g transform="translate(34.696875 299.287219) scale(0.1 -0.1)">
       <defs>
        <path id="DejaVuSans-2e" d="M 684 794 
L 1344 794 
L 1344 0 
L 684 0 
L 684 794 
z
" transform="scale(0.015625)"/>
       </defs>
       <use xlink:href="#DejaVuSans-30"/>
       <use xlink:href="#DejaVuSans-2e" x="63.623047"/>
       <use xlink:href="#DejaVuSans-30" x="95.410156"/>
      </g>
     </g>
    </g>
    <g id="ytick_2">
     <g id="line2d_21">
      <path d="M 57.6 265.451908 
L 414.72 265.451908 
" clip-path="url(#pc43e949c96)" style="fill: none; stroke: #b0b0b0; stroke-width: 0.8; stroke-linecap: square"/>
     </g>
     <g id="line2d_22">
      <g>
       <use xlink:href="#m22b476cc14" x="57.6" y="265.451908" style="stroke: #000000; stroke-width: 0.8"/>
      </g>
     </g>
     <g id="text_12">
      <!-- 0.1 -->
      <g transform="translate(34.696875 269.251126) scale(0.1 -0.1)">
       <use xlink:href="#DejaVuSans-30"/>
       <use xlink:href="#DejaVuSans-2e" x="63.623047"/>
       <use xlink:href="#DejaVuSans-31" x="95.410156"/>
      </g>
     </g>
    </g>
    <g id="ytick_3">
     <g id="line2d_23">
      <path d="M 57.6 235.415815 
L 414.72 235.415815 
" clip-path="url(#pc43e949c96)" style="fill: none; stroke: #b0b0b0; stroke-width: 0.8; stroke-linecap: square"/>
     </g>
     <g id="line2d_24">
      <g>
       <use xlink:href="#m22b476cc14" x="57.6" y="235.415815" style="stroke: #000000; stroke-width: 0.8"/>
      </g>
     </g>
     <g id="text_13">
      <!-- 0.2 -->
      <g transform="translate(34.696875 239.215034) scale(0.1 -0.1)">
       <use xlink:href="#DejaVuSans-30"/>
       <use xlink:href="#DejaVuSans-2e" x="63.623047"/>
       <use xlink:href="#DejaVuSans-32" x="95.410156"/>
      </g>
     </g>
    </g>
    <g id="ytick_4">
     <g id="line2d_25">
      <path d="M 57.6 205.379723 
L 414.72 205.379723 
" clip-path="url(#pc43e949c96)" style="fill: none; stroke: #b0b0b0; stroke-width: 0.8; stroke-linecap: square"/>
     </g>
     <g id="line2d_26">
      <g>
       <use xlink:href="#m22b476cc14" x="57.6" y="205.379723" style="stroke: #000000; stroke-width: 0.8"/>
      </g>
     </g>
     <g id="text_14">
      <!-- 0.3 -->
      <g transform="translate(34.696875 209.178941) scale(0.1 -0.1)">
       <defs>
        <path id="DejaVuSans-33" d="M 2597 2516 
Q 3050 2419 3304 2112 
Q 3559 1806 3559 1356 
Q 3559 666 3084 287 
Q 2609 -91 1734 -91 
Q 1441 -91 1130 -33 
Q 819 25 488 141 
L 488 750 
Q 750 597 1062 519 
Q 1375 441 1716 441 
Q 2309 441 2620 675 
Q 2931 909 2931 1356 
Q 2931 1769 2642 2001 
Q 2353 2234 1838 2234 
L 1294 2234 
L 1294 2753 
L 1863 2753 
Q 2328 2753 2575 2939 
Q 2822 3125 2822 3475 
Q 2822 3834 2567 4026 
Q 2313 4219 1838 4219 
Q 1578 4219 1281 4162 
Q 984 4106 628 3988 
L 628 4550 
Q 988 4650 1302 4700 
Q 1616 4750 1894 4750 
Q 2613 4750 3031 4423 
Q 3450 4097 3450 3541 
Q 3450 3153 3228 2886 
Q 3006 2619 2597 2516 
z
" transform="scale(0.015625)"/>
       </defs>
       <use xlink:href="#DejaVuSans-30"/>
       <use xlink:href="#DejaVuSans-2e" x="63.623047"/>
       <use xlink:href="#DejaVuSans-33" x="95.410156"/>
      </g>
     </g>
    </g>
    <g id="ytick_5">
     <g id="line2d_27">
      <path d="M 57.6 175.34363 
L 414.72 175.34363 
" clip-path="url(#pc43e949c96)" style="fill: none; stroke: #b0b0b0; stroke-width: 0.8; stroke-linecap: square"/>
     </g>
     <g id="line2d_28">
      <g>
       <use xlink:href="#m22b476cc14" x="57.6" y="175.34363" style="stroke: #000000; stroke-width: 0.8"/>
      </g>
     </g>
     <g id="text_15">
      <!-- 0.4 -->
      <g transform="translate(34.696875 179.142849) scale(0.1 -0.1)">
       <use xlink:href="#DejaVuSans-30"/>
       <use xlink:href="#DejaVuSans-2e" x="63.623047"/>
       <use xlink:href="#DejaVuSans-34" x="95.410156"/>
      </g>
     </g>
    </g>
    <g id="ytick_6">
     <g id="line2d_29">
      <path d="M 57.6 145.307538 
L 414.72 145.307538 
" clip-path="url(#pc43e949c96)" style="fill: none; stroke: #b0b0b0; stroke-width: 0.8; stroke-linecap: square"/>
     </g>
     <g id="line2d_30">
      <g>
       <use xlink:href="#m22b476cc14" x="57.6" y="145.307538" style="stroke: #000000; stroke-width: 0.8"/>
      </g>
     </g>
     <g id="text_16">
      <!-- 0.5 -->
      <g transform="translate(34.696875 149.106756) scale(0.1 -0.1)">
       <defs>
        <path id="DejaVuSans-35" d="M 691 4666 
L 3169 4666 
L 3169 4134 
L 1269 4134 
L 1269 2991 
Q 1406 3038 1543 3061 
Q 1681 3084 1819 3084 
Q 2600 3084 3056 2656 
Q 3513 2228 3513 1497 
Q 3513 744 3044 326 
Q 2575 -91 1722 -91 
Q 1428 -91 1123 -41 
Q 819 9 494 109 
L 494 744 
Q 775 591 1075 516 
Q 1375 441 1709 441 
Q 2250 441 2565 725 
Q 2881 1009 2881 1497 
Q 2881 1984 2565 2268 
Q 2250 2553 1709 2553 
Q 1456 2553 1204 2497 
Q 953 2441 691 2322 
L 691 4666 
z
" transform="scale(0.015625)"/>
       </defs>
       <use xlink:href="#DejaVuSans-30"/>
       <use xlink:href="#DejaVuSans-2e" x="63.623047"/>
       <use xlink:href="#DejaVuSans-35" x="95.410156"/>
      </g>
     </g>
    </g>
    <g id="ytick_7">
     <g id="line2d_31">
      <path d="M 57.6 115.271445 
L 414.72 115.271445 
" clip-path="url(#pc43e949c96)" style="fill: none; stroke: #b0b0b0; stroke-width: 0.8; stroke-linecap: square"/>
     </g>
     <g id="line2d_32">
      <g>
       <use xlink:href="#m22b476cc14" x="57.6" y="115.271445" style="stroke: #000000; stroke-width: 0.8"/>
      </g>
     </g>
     <g id="text_17">
      <!-- 0.6 -->
      <g transform="translate(34.696875 119.070664) scale(0.1 -0.1)">
       <use xlink:href="#DejaVuSans-30"/>
       <use xlink:href="#DejaVuSans-2e" x="63.623047"/>
       <use xlink:href="#DejaVuSans-36" x="95.410156"/>
      </g>
     </g>
    </g>
    <g id="ytick_8">
     <g id="line2d_33">
      <path d="M 57.6 85.235353 
L 414.72 85.235353 
" clip-path="url(#pc43e949c96)" style="fill: none; stroke: #b0b0b0; stroke-width: 0.8; stroke-linecap: square"/>
     </g>
     <g id="line2d_34">
      <g>
       <use xlink:href="#m22b476cc14" x="57.6" y="85.235353" style="stroke: #000000; stroke-width: 0.8"/>
      </g>
     </g>
     <g id="text_18">
      <!-- 0.7 -->
      <g transform="translate(34.696875 89.034571) scale(0.1 -0.1)">
       <defs>
        <path id="DejaVuSans-37" d="M 525 4666 
L 3525 4666 
L 3525 4397 
L 1831 0 
L 1172 0 
L 2766 4134 
L 525 4134 
L 525 4666 
z
" transform="scale(0.015625)"/>
       </defs>
       <use xlink:href="#DejaVuSans-30"/>
       <use xlink:href="#DejaVuSans-2e" x="63.623047"/>
       <use xlink:href="#DejaVuSans-37" x="95.410156"/>
      </g>
     </g>
    </g>
    <g id="ytick_9">
     <g id="line2d_35">
      <path d="M 57.6 55.19926 
L 414.72 55.19926 
" clip-path="url(#pc43e949c96)" style="fill: none; stroke: #b0b0b0; stroke-width: 0.8; stroke-linecap: square"/>
     </g>
     <g id="line2d_36">
      <g>
       <use xlink:href="#m22b476cc14" x="57.6" y="55.19926" style="stroke: #000000; stroke-width: 0.8"/>
      </g>
     </g>
     <g id="text_19">
      <!-- 0.8 -->
      <g transform="translate(34.696875 58.998479) scale(0.1 -0.1)">
       <use xlink:href="#DejaVuSans-30"/>
       <use xlink:href="#DejaVuSans-2e" x="63.623047"/>
       <use xlink:href="#DejaVuSans-38" x="95.410156"/>
      </g>
     </g>
    </g>
    <g id="text_20">
     <!-- Tracking error(m) -->
     <g transform="translate(28.617187 217.803781) rotate(-90) scale(0.1 -0.1)">
      <defs>
       <path id="DejaVuSans-72" d="M 2631 2963 
Q 2534 3019 2420 3045 
Q 2306 3072 2169 3072 
Q 1681 3072 1420 2755 
Q 1159 2438 1159 1844 
L 1159 0 
L 581 0 
L 581 3500 
L 1159 3500 
L 1159 2956 
Q 1341 3275 1631 3429 
Q 1922 3584 2338 3584 
Q 2397 3584 2469 3576 
Q 2541 3569 2628 3553 
L 2631 2963 
z
" transform="scale(0.015625)"/>
       <path id="DejaVuSans-61" d="M 2194 1759 
Q 1497 1759 1228 1600 
Q 959 1441 959 1056 
Q 959 750 1161 570 
Q 1363 391 1709 391 
Q 2188 391 2477 730 
Q 2766 1069 2766 1631 
L 2766 1759 
L 2194 1759 
z
M 3341 1997 
L 3341 0 
L 2766 0 
L 2766 531 
Q 2569 213 2275 61 
Q 1981 -91 1556 -91 
Q 1019 -91 701 211 
Q 384 513 384 1019 
Q 384 1609 779 1909 
Q 1175 2209 1959 2209 
L 2766 2209 
L 2766 2266 
Q 2766 2663 2505 2880 
Q 2244 3097 1772 3097 
Q 1472 3097 1187 3025 
Q 903 2953 641 2809 
L 641 3341 
Q 956 3463 1253 3523 
Q 1550 3584 1831 3584 
Q 2591 3584 2966 3190 
Q 3341 2797 3341 1997 
z
" transform="scale(0.015625)"/>
       <path id="DejaVuSans-63" d="M 3122 3366 
L 3122 2828 
Q 2878 2963 2633 3030 
Q 2388 3097 2138 3097 
Q 1578 3097 1268 2742 
Q 959 2388 959 1747 
Q 959 1106 1268 751 
Q 1578 397 2138 397 
Q 2388 397 2633 464 
Q 2878 531 3122 666 
L 3122 134 
Q 2881 22 2623 -34 
Q 2366 -91 2075 -91 
Q 1284 -91 818 406 
Q 353 903 353 1747 
Q 353 2603 823 3093 
Q 1294 3584 2113 3584 
Q 2378 3584 2631 3529 
Q 2884 3475 3122 3366 
z
" transform="scale(0.015625)"/>
       <path id="DejaVuSans-6b" d="M 581 4863 
L 1159 4863 
L 1159 1991 
L 2875 3500 
L 3609 3500 
L 1753 1863 
L 3688 0 
L 2938 0 
L 1159 1709 
L 1159 0 
L 581 0 
L 581 4863 
z
" transform="scale(0.015625)"/>
       <path id="DejaVuSans-6e" d="M 3513 2113 
L 3513 0 
L 2938 0 
L 2938 2094 
Q 2938 2591 2744 2837 
Q 2550 3084 2163 3084 
Q 1697 3084 1428 2787 
Q 1159 2491 1159 1978 
L 1159 0 
L 581 0 
L 581 3500 
L 1159 3500 
L 1159 2956 
Q 1366 3272 1645 3428 
Q 1925 3584 2291 3584 
Q 2894 3584 3203 3211 
Q 3513 2838 3513 2113 
z
" transform="scale(0.015625)"/>
       <path id="DejaVuSans-67" d="M 2906 1791 
Q 2906 2416 2648 2759 
Q 2391 3103 1925 3103 
Q 1463 3103 1205 2759 
Q 947 2416 947 1791 
Q 947 1169 1205 825 
Q 1463 481 1925 481 
Q 2391 481 2648 825 
Q 2906 1169 2906 1791 
z
M 3481 434 
Q 3481 -459 3084 -895 
Q 2688 -1331 1869 -1331 
Q 1566 -1331 1297 -1286 
Q 1028 -1241 775 -1147 
L 775 -588 
Q 1028 -725 1275 -790 
Q 1522 -856 1778 -856 
Q 2344 -856 2625 -561 
Q 2906 -266 2906 331 
L 2906 616 
Q 2728 306 2450 153 
Q 2172 0 1784 0 
Q 1141 0 747 490 
Q 353 981 353 1791 
Q 353 2603 747 3093 
Q 1141 3584 1784 3584 
Q 2172 3584 2450 3431 
Q 2728 3278 2906 2969 
L 2906 3500 
L 3481 3500 
L 3481 434 
z
" transform="scale(0.015625)"/>
       <path id="DejaVuSans-20" transform="scale(0.015625)"/>
       <path id="DejaVuSans-6f" d="M 1959 3097 
Q 1497 3097 1228 2736 
Q 959 2375 959 1747 
Q 959 1119 1226 758 
Q 1494 397 1959 397 
Q 2419 397 2687 759 
Q 2956 1122 2956 1747 
Q 2956 2369 2687 2733 
Q 2419 3097 1959 3097 
z
M 1959 3584 
Q 2709 3584 3137 3096 
Q 3566 2609 3566 1747 
Q 3566 888 3137 398 
Q 2709 -91 1959 -91 
Q 1206 -91 779 398 
Q 353 888 353 1747 
Q 353 2609 779 3096 
Q 1206 3584 1959 3584 
z
" transform="scale(0.015625)"/>
      </defs>
      <use xlink:href="#DejaVuSans-54"/>
      <use xlink:href="#DejaVuSans-72" x="46.333984"/>
      <use xlink:href="#DejaVuSans-61" x="87.447266"/>
      <use xlink:href="#DejaVuSans-63" x="148.726562"/>
      <use xlink:href="#DejaVuSans-6b" x="203.707031"/>
      <use xlink:href="#DejaVuSans-69" x="261.617188"/>
      <use xlink:href="#DejaVuSans-6e" x="289.400391"/>
      <use xlink:href="#DejaVuSans-67" x="352.779297"/>
      <use xlink:href="#DejaVuSans-20" x="416.255859"/>
      <use xlink:href="#DejaVuSans-65" x="448.042969"/>
      <use xlink:href="#DejaVuSans-72" x="509.566406"/>
      <use xlink:href="#DejaVuSans-72" x="548.929688"/>
      <use xlink:href="#DejaVuSans-6f" x="587.792969"/>
      <use xlink:href="#DejaVuSans-72" x="648.974609"/>
      <use xlink:href="#DejaVuSans-28" x="690.087891"/>
      <use xlink:href="#DejaVuSans-6d" x="729.101562"/>
      <use xlink:href="#DejaVuSans-29" x="826.513672"/>
     </g>
    </g>
   </g>
   <g id="line2d_37">
    <path d="M 73.832727 295.488 
L 77.07522 295.387379 
L 77.07522 295.387379 
L 77.885843 293.916812 
L 77.885843 293.916812 
L 78.696466 292.025139 
L 78.696466 292.025139 
L 79.101777 289.111338 
L 79.101777 289.111338 
L 79.9124 288.057671 
L 79.9124 288.057671 
L 80.723023 287.420005 
L 80.723023 287.420005 
L 81.128335 287.333201 
L 81.128335 287.333201 
L 81.533647 287.450041 
L 81.533647 287.450041 
L 81.938958 287.813178 
L 81.938958 287.813178 
L 82.34427 288.469767 
L 82.34427 288.469767 
L 82.749581 289.428218 
L 82.749581 289.428218 
L 83.965516 293.388477 
L 83.965516 293.388477 
L 84.370827 295.488 
L 84.370827 295.488 
L 84.776139 295.161508 
L 84.776139 295.161508 
L 85.586762 293.314588 
L 85.586762 293.314588 
L 85.992074 292.537254 
L 85.992074 292.537254 
L 86.397385 292.393381 
L 86.397385 292.393381 
L 86.802697 292.659802 
L 86.802697 292.659802 
L 87.208008 293.37406 
L 87.208008 293.37406 
L 87.61332 294.488399 
L 87.61332 294.488399 
L 88.018631 295.093926 
L 88.018631 295.093926 
L 89.234566 290.342517 
L 89.234566 290.342517 
L 90.045189 287.705648 
L 90.045189 287.705648 
L 90.450501 286.795254 
L 90.450501 286.795254 
L 90.855812 286.256107 
L 90.855812 286.256107 
L 91.261124 286.226371 
L 91.261124 286.226371 
L 91.666435 286.820785 
L 91.666435 286.820785 
L 92.071747 288.052265 
L 92.071747 288.052265 
L 92.88237 291.62626 
L 92.88237 291.62626 
L 93.287681 293.800272 
L 93.287681 293.800272 
L 93.692993 294.877967 
L 93.692993 294.877967 
L 94.908927 288.57219 
L 94.908927 288.57219 
L 95.314239 287.061675 
L 95.314239 287.061675 
L 95.719551 286.155486 
L 95.719551 286.155486 
L 96.124862 285.966859 
L 96.124862 285.966859 
L 96.530174 286.467861 
L 96.530174 286.467861 
L 96.935485 287.661796 
L 96.935485 287.661796 
L 97.746108 291.466768 
L 97.746108 291.466768 
L 98.15142 293.814389 
L 98.15142 293.814389 
L 98.556731 294.627166 
L 99.367354 289.824995 
L 99.367354 289.824995 
L 99.772666 287.842313 
L 100.177978 286.435122 
L 100.177978 286.435122 
L 100.583289 285.836803 
L 100.583289 285.836803 
L 100.988601 286.011913 
L 100.988601 286.011913 
L 101.393912 287.025031 
L 101.393912 287.025031 
L 101.799224 288.604028 
L 101.799224 288.604028 
L 103.015158 295.488 
L 103.015158 295.488 
L 103.825781 288.866243 
L 103.825781 288.866243 
L 104.636404 284.396272 
L 104.636404 284.396272 
L 105.041716 283.313471 
L 105.041716 283.313471 
L 105.447028 283.119437 
L 105.447028 283.119437 
L 105.852339 283.794649 
L 106.257651 285.397375 
L 106.257651 285.397375 
L 106.662962 287.702044 
L 106.662962 287.702044 
L 107.473585 294.187437 
L 107.473585 294.187437 
L 107.878897 292.947247 
L 107.878897 292.947247 
L 109.094831 282.220157 
L 109.094831 282.220157 
L 109.500143 279.831386 
L 109.500143 279.831386 
L 109.905455 278.325076 
L 109.905455 278.325076 
L 110.310766 277.824975 
L 110.310766 277.824975 
L 110.716078 278.201628 
L 110.716078 278.201628 
L 111.121389 279.507898 
L 111.121389 279.507898 
L 111.526701 281.514008 
L 111.526701 281.514008 
L 112.337324 287.134662 
L 112.337324 287.134662 
L 113.147947 293.186334 
L 113.147947 293.186334 
L 113.553258 295.488 
L 113.553258 295.488 
L 113.95857 293.135273 
L 113.95857 293.135273 
L 114.363882 291.789055 
L 114.363882 291.789055 
L 114.769193 291.032746 
L 114.769193 291.032746 
L 115.174505 290.975377 
L 115.174505 290.975377 
L 115.579816 291.35203 
L 115.579816 291.35203 
L 117.606374 295.178328 
L 117.606374 295.178328 
L 118.011685 295.473583 
L 118.011685 295.473583 
L 118.416997 295.299674 
L 118.416997 295.299674 
L 119.22762 294.191642 
L 119.22762 294.191642 
L 120.443555 291.511221 
L 120.443555 291.511221 
L 120.848866 290.759418 
L 120.848866 290.759418 
L 121.254178 290.69454 
L 121.254178 290.69454 
L 121.659489 290.813783 
L 121.659489 290.813783 
L 122.064801 291.275138 
L 122.064801 291.275138 
L 122.470112 292.510823 
L 122.875424 295.488 
L 122.875424 295.488 
L 123.280735 295.20536 
L 123.280735 295.20536 
L 124.49667 291.040856 
L 124.49667 291.040856 
L 124.901982 289.571791 
L 124.901982 289.571791 
L 125.307293 288.631361 
L 125.307293 288.631361 
L 125.712605 288.011716 
L 125.712605 288.011716 
L 126.117916 287.703546 
L 126.117916 287.703546 
L 126.523228 287.085403 
L 126.523228 287.085403 
L 126.928539 286.922007 
L 126.928539 286.922007 
L 127.739162 286.893472 
L 127.739162 286.893472 
L 128.144474 286.304465 
L 128.144474 286.304465 
L 128.955097 285.582097 
L 128.955097 285.582097 
L 129.360409 285.119241 
L 129.360409 285.119241 
L 129.76572 284.057465 
L 129.76572 284.057465 
L 130.981655 281.965451 
L 130.981655 281.965451 
L 131.386966 280.900071 
L 131.386966 280.900071 
L 132.197589 279.857518 
L 132.197589 279.857518 
L 132.602901 279.579384 
L 132.602901 279.579384 
L 133.008212 279.496184 
L 133.008212 279.496184 
L 133.413524 278.903572 
L 133.413524 278.903572 
L 133.818836 278.916187 
L 133.818836 278.916187 
L 134.224147 279.076279 
L 134.224147 279.076279 
L 134.629459 279.386552 
L 134.629459 279.386552 
L 135.03477 279.06006 
L 135.03477 279.06006 
L 136.250705 279.907378 
L 136.250705 279.907378 
L 136.656016 279.248686 
L 136.656016 279.248686 
L 137.466639 279.034529 
L 137.466639 279.034529 
L 137.871951 278.565966 
L 137.871951 278.565966 
L 138.682574 278.562061 
L 138.682574 278.562061 
L 139.087886 278.720051 
L 139.087886 278.720051 
L 139.898509 279.247785 
L 139.898509 279.247785 
L 140.30382 280.074378 
L 140.30382 280.074378 
L 140.709132 280.522517 
L 140.709132 280.522517 
L 141.114443 280.649269 
L 141.114443 280.649269 
L 141.519755 281.766312 
L 141.519755 281.766312 
L 141.925066 281.899071 
L 141.925066 281.899071 
L 142.330378 282.841904 
L 142.330378 282.841904 
L 142.735689 283.011608 
L 142.735689 283.011608 
L 143.141001 283.860728 
L 143.141001 283.860728 
L 143.546313 284.27012 
L 143.546313 284.27012 
L 143.951624 284.389363 
L 143.951624 284.389363 
L 144.356936 286.186123 
L 144.356936 286.186123 
L 144.762247 286.893472 
L 144.762247 286.893472 
L 145.167559 288.885767 
L 145.57287 289.872753 
L 145.57287 289.872753 
L 145.978182 291.83501 
L 145.978182 291.83501 
L 146.383493 292.777543 
L 146.383493 292.777543 
L 147.194116 295.488 
L 147.194116 295.488 
L 147.599428 295.35524 
L 147.599428 295.35524 
L 148.00474 295.488 
L 148.00474 295.488 
L 148.410051 294.410305 
L 148.410051 294.410305 
L 148.815363 294.782753 
L 148.815363 294.782753 
L 149.220674 293.285453 
L 149.220674 293.285453 
L 149.625986 293.241601 
L 150.031297 291.800169 
L 150.031297 291.800169 
L 150.436609 291.807377 
L 150.436609 291.807377 
L 150.84192 290.715565 
L 150.84192 290.715565 
L 151.247232 291.088614 
L 151.247232 291.088614 
L 151.652543 290.431123 
L 151.652543 290.431123 
L 152.057855 291.240897 
L 152.463166 290.80297 
L 152.868478 291.758719 
L 152.868478 291.758719 
L 153.27379 291.008117 
L 153.27379 291.008117 
L 153.679101 291.655395 
L 153.679101 291.655395 
L 154.084413 290.216666 
L 154.084413 290.216666 
L 154.489724 290.377359 
L 154.489724 290.377359 
L 154.895036 288.361937 
L 154.895036 288.361937 
L 155.300347 288.195237 
L 155.300347 288.195237 
L 155.705659 286.215558 
L 156.11097 286.004705 
L 156.11097 286.004705 
L 156.516282 284.575888 
L 156.516282 284.575888 
L 156.921593 284.874747 
L 156.921593 284.874747 
L 157.326905 284.492387 
L 157.326905 284.492387 
L 157.732217 283.905782 
L 157.732217 283.905782 
L 158.137528 286.566079 
L 158.137528 286.566079 
L 158.54284 287.186925 
L 158.54284 287.186925 
L 158.948151 290.42001 
L 158.948151 290.42001 
L 159.353463 291.678222 
L 159.353463 291.678222 
L 159.758774 294.812188 
L 159.758774 294.812188 
L 160.164086 294.966573 
L 160.164086 294.966573 
L 160.569397 292.504215 
L 160.569397 292.504215 
L 160.974709 291.804974 
L 160.974709 291.804974 
L 161.38002 290.341916 
L 161.38002 290.341916 
L 161.785332 290.391175 
L 161.785332 290.391175 
L 162.190644 289.940634 
L 162.595955 290.479782 
L 162.595955 290.479782 
L 163.001267 290.547964 
L 163.001267 290.547964 
L 163.406578 290.946242 
L 164.217201 290.618248 
L 164.217201 290.618248 
L 165.027824 289.107433 
L 165.027824 289.107433 
L 166.243759 285.505505 
L 166.243759 285.505505 
L 167.459694 283.018216 
L 167.459694 283.018216 
L 167.865005 283.761609 
L 167.865005 283.761609 
L 168.675628 284.480974 
L 168.675628 284.480974 
L 169.08094 287.095916 
L 169.08094 287.095916 
L 169.486251 288.531341 
L 169.486251 288.531341 
L 170.296874 293.861546 
L 170.296874 293.861546 
L 170.702186 295.081912 
L 171.107497 291.174517 
L 171.107497 291.174517 
L 171.918121 286.080395 
L 171.918121 286.080395 
L 172.323432 282.200934 
L 172.323432 282.200934 
L 173.539367 275.04063 
L 173.539367 275.04063 
L 173.944678 273.616619 
L 173.944678 273.616619 
L 174.34999 272.738964 
L 174.34999 272.738964 
L 174.755301 271.377728 
L 174.755301 271.377728 
L 175.160613 270.970739 
L 175.565924 270.952717 
L 175.565924 270.952717 
L 175.971236 270.276905 
L 175.971236 270.276905 
L 176.376547 270.346289 
L 176.376547 270.346289 
L 176.781859 270.62202 
L 176.781859 270.62202 
L 177.187171 270.273001 
L 177.187171 270.273001 
L 177.592482 270.524403 
L 177.592482 270.524403 
L 177.997794 270.931392 
L 178.403105 271.044328 
L 178.403105 271.044328 
L 179.61904 272.943209 
L 179.61904 272.943209 
L 180.834974 275.513097 
L 180.834974 275.513097 
L 182.456221 280.314367 
L 182.456221 280.314367 
L 183.266844 284.104922 
L 183.266844 284.104922 
L 184.077467 287.694535 
L 184.077467 287.694535 
L 184.88809 293.494505 
L 184.88809 293.494505 
L 185.293401 295.488 
L 185.293401 295.488 
L 186.104025 288.216262 
L 186.104025 288.216262 
L 186.914648 278.46084 
L 186.914648 278.46084 
L 188.535894 262.260272 
L 188.535894 262.260272 
L 189.346517 257.200392 
L 189.346517 257.200392 
L 189.751828 255.007457 
L 189.751828 255.007457 
L 190.15714 253.812321 
L 190.15714 253.812321 
L 190.562451 253.123593 
L 190.562451 253.123593 
L 191.373075 252.786288 
L 191.373075 252.786288 
L 191.778386 253.352168 
L 191.778386 253.352168 
L 192.183698 254.223215 
L 192.183698 254.223215 
L 192.589009 255.360982 
L 192.589009 255.360982 
L 193.399632 258.442084 
L 193.399632 258.442084 
L 194.615567 264.712119 
L 194.615567 264.712119 
L 195.831502 273.383839 
L 195.831502 273.383839 
L 198.263371 293.605938 
L 198.263371 293.605938 
L 198.668682 294.877066 
L 199.479305 291.339115 
L 199.479305 291.339115 
L 199.884617 290.22027 
L 199.884617 290.22027 
L 200.289928 289.512019 
L 200.289928 289.512019 
L 201.100552 288.873752 
L 201.100552 288.873752 
L 201.911175 288.920608 
L 201.911175 288.920608 
L 202.721798 289.116444 
L 202.721798 289.116444 
L 203.532421 288.427416 
L 203.532421 288.427416 
L 204.343044 287.625152 
L 204.343044 287.625152 
L 204.748355 287.083301 
L 204.748355 287.083301 
L 205.558979 284.989184 
L 205.558979 284.989184 
L 206.774913 281.943825 
L 206.774913 281.943825 
L 207.585536 279.146263 
L 207.585536 279.146263 
L 208.396159 277.017605 
L 208.396159 277.017605 
L 208.801471 276.127636 
L 208.801471 276.127636 
L 209.206782 274.896757 
L 209.206782 274.896757 
L 210.017406 273.527712 
L 210.017406 273.527712 
L 210.422717 273.094591 
L 211.23334 272.49477 
L 211.23334 272.49477 
L 211.638652 272.495071 
L 211.638652 272.495071 
L 212.043963 272.628731 
L 212.043963 272.628731 
L 212.449275 272.92699 
L 212.449275 272.92699 
L 213.259898 273.894452 
L 213.259898 273.894452 
L 214.070521 275.486365 
L 214.070521 275.486365 
L 214.881144 277.694619 
L 214.881144 277.694619 
L 216.907702 284.623945 
L 216.907702 284.623945 
L 218.123636 288.740091 
L 218.123636 288.740091 
L 219.744883 293.22448 
L 219.744883 293.22448 
L 220.555506 295.048272 
L 220.555506 295.048272 
L 220.960817 295.070498 
L 220.960817 295.070498 
L 221.77144 292.88327 
L 221.77144 292.88327 
L 223.797998 288.520828 
L 223.797998 288.520828 
L 225.013933 286.90789 
L 225.013933 286.90789 
L 225.419244 286.674509 
L 225.419244 286.674509 
L 225.824556 286.620745 
L 225.824556 286.620745 
L 226.229867 286.243792 
L 226.229867 286.243792 
L 226.635179 286.171405 
L 226.635179 286.171405 
L 227.445802 286.342611 
L 227.445802 286.342611 
L 227.851113 285.90138 
L 227.851113 285.90138 
L 228.661736 285.918801 
L 228.661736 285.918801 
L 229.067048 285.500098 
L 229.067048 285.500098 
L 229.47236 285.500999 
L 229.47236 285.500999 
L 229.877671 285.663495 
L 229.877671 285.663495 
L 230.282983 285.329493 
L 230.282983 285.329493 
L 230.688294 285.453843 
L 230.688294 285.453843 
L 231.093606 285.790547 
L 231.093606 285.790547 
L 231.498917 285.542449 
L 231.498917 285.542449 
L 231.904229 285.853323 
L 231.904229 285.853323 
L 232.30954 286.419203 
L 232.30954 286.419203 
L 232.714852 286.251 
L 233.120163 286.772127 
L 233.120163 286.772127 
L 233.525475 287.558171 
L 233.525475 287.558171 
L 233.930787 287.29115 
L 233.930787 287.29115 
L 234.336098 287.777134 
L 234.336098 287.777134 
L 234.74141 288.485686 
L 234.74141 288.485686 
L 235.146721 287.801163 
L 235.146721 287.801163 
L 235.552033 288.091612 
L 235.552033 288.091612 
L 235.957344 287.503506 
L 235.957344 287.503506 
L 236.362656 287.468964 
L 236.362656 287.468964 
L 236.767967 287.65729 
L 237.173279 286.695835 
L 237.173279 286.695835 
L 237.57859 286.594013 
L 237.983902 286.847517 
L 237.983902 286.847517 
L 238.389213 285.689926 
L 238.389213 285.689926 
L 238.794525 285.856026 
L 239.199837 285.222865 
L 239.199837 285.222865 
L 239.605148 285.382357 
L 240.01046 285.902281 
L 240.01046 285.902281 
L 240.415771 285.16039 
L 240.415771 285.16039 
L 240.821083 285.459249 
L 240.821083 285.459249 
L 241.226394 286.036843 
L 241.226394 286.036843 
L 241.631706 284.975368 
L 241.631706 284.975368 
L 242.037017 285.289846 
L 242.037017 285.289846 
L 242.442329 284.558767 
L 242.84764 284.657285 
L 242.84764 284.657285 
L 243.252952 285.111431 
L 243.252952 285.111431 
L 243.658264 284.138562 
L 243.658264 284.138562 
L 244.063575 284.348815 
L 244.063575 284.348815 
L 244.468887 283.773023 
L 244.468887 283.773023 
L 244.874198 283.875746 
L 244.874198 283.875746 
L 245.27951 284.335899 
L 245.684821 283.610227 
L 245.684821 283.610227 
L 246.090133 283.903379 
L 246.090133 283.903379 
L 246.495444 284.490585 
L 246.495444 284.490585 
L 246.900756 283.396671 
L 246.900756 283.396671 
L 247.306067 283.540243 
L 247.306067 283.540243 
L 247.711379 282.725364 
L 247.711379 282.725364 
L 248.116691 282.594707 
L 248.116691 282.594707 
L 248.522002 282.739781 
L 248.522002 282.739781 
L 248.927314 282.030329 
L 249.332625 282.245387 
L 249.332625 282.245387 
L 249.737937 282.774623 
L 249.737937 282.774623 
L 250.143248 282.239981 
L 250.143248 282.239981 
L 250.54856 282.775825 
L 250.54856 282.775825 
L 250.953871 282.645168 
L 250.953871 282.645168 
L 251.359183 283.108624 
L 251.359183 283.108624 
L 251.764494 283.786239 
L 251.764494 283.786239 
L 252.169806 283.45434 
L 252.169806 283.45434 
L 252.575117 283.873644 
L 252.575117 283.873644 
L 252.980429 284.5026 
L 252.980429 284.5026 
L 253.385741 283.934617 
L 253.385741 283.934617 
L 253.791052 284.332295 
L 253.791052 284.332295 
L 254.196364 284.008806 
L 254.196364 284.008806 
L 254.601675 284.21155 
L 254.601675 284.21155 
L 255.006987 284.588503 
L 255.006987 284.588503 
L 255.412298 284.068278 
L 255.412298 284.068278 
L 256.222921 284.314574 
L 256.222921 284.314574 
L 256.628233 283.565173 
L 257.438856 283.355221 
L 257.438856 283.355221 
L 257.844168 282.416293 
L 257.844168 282.416293 
L 258.654791 281.771418 
L 258.654791 281.771418 
L 259.060102 280.900371 
L 259.060102 280.900371 
L 259.465414 280.598508 
L 259.465414 280.598508 
L 259.870725 280.438716 
L 259.870725 280.438716 
L 260.276037 279.980666 
L 260.276037 279.980666 
L 260.681348 280.01731 
L 260.681348 280.01731 
L 261.491971 280.355516 
L 261.491971 280.355516 
L 262.302594 281.421798 
L 262.302594 281.421798 
L 263.113218 282.94643 
L 263.113218 282.94643 
L 263.923841 284.732976 
L 263.923841 284.732976 
L 267.571645 294.992404 
L 267.571645 294.992404 
L 267.976956 294.880971 
L 267.976956 294.880971 
L 269.192891 291.993901 
L 269.192891 291.993901 
L 270.003514 290.610139 
L 270.003514 290.610139 
L 270.408825 290.134667 
L 270.408825 290.134667 
L 270.814137 289.838511 
L 270.814137 289.838511 
L 271.219448 289.697942 
L 271.219448 289.697942 
L 272.030072 289.914503 
L 272.030072 289.914503 
L 272.840695 290.54436 
L 272.840695 290.54436 
L 273.651318 291.577 
L 273.651318 291.577 
L 275.677875 294.275443 
L 275.677875 294.275443 
L 276.083187 294.689941 
L 276.083187 294.689941 
L 276.488498 295.488 
L 276.89381 295.323703 
L 276.89381 295.323703 
L 277.299122 295.342325 
L 277.299122 295.342325 
L 278.109745 294.519036 
L 278.109745 294.519036 
L 279.325679 293.41581 
L 279.325679 293.41581 
L 280.541614 291.598927 
L 280.541614 291.598927 
L 281.352237 290.468068 
L 281.352237 290.468068 
L 281.757549 289.652288 
L 281.757549 289.652288 
L 282.568172 288.701946 
L 282.568172 288.701946 
L 284.189418 287.556369 
L 284.189418 287.556369 
L 285.000041 287.468363 
L 285.000041 287.468363 
L 285.405352 287.497799 
L 285.405352 287.497799 
L 285.810664 287.113637 
L 286.621287 286.872748 
L 286.621287 286.872748 
L 287.43191 286.403283 
L 287.43191 286.403283 
L 287.837222 285.623847 
L 287.837222 285.623847 
L 289.053156 284.213352 
L 289.053156 284.213352 
L 289.458468 283.373543 
L 289.458468 283.373543 
L 290.269091 282.285035 
L 290.269091 282.285035 
L 291.890337 280.601211 
L 291.890337 280.601211 
L 292.295649 280.459741 
L 293.106272 280.481367 
L 293.106272 280.481367 
L 293.511583 280.021215 
L 293.511583 280.021215 
L 294.727518 279.661382 
L 294.727518 279.661382 
L 295.132829 279.545443 
L 295.132829 279.545443 
L 295.538141 278.806855 
L 295.538141 278.806855 
L 297.159387 277.283124 
L 297.159387 277.283124 
L 297.564699 276.331881 
L 297.564699 276.331881 
L 298.375322 275.589089 
L 298.375322 275.589089 
L 298.780633 275.442212 
L 298.780633 275.442212 
L 299.185945 275.416982 
L 299.185945 275.416982 
L 299.591256 274.844194 
L 299.591256 274.844194 
L 299.996568 274.94932 
L 299.996568 274.94932 
L 300.401879 275.252985 
L 300.401879 275.252985 
L 300.807191 275.753987 
L 300.807191 275.753987 
L 301.212503 275.770206 
L 302.023126 276.847601 
L 302.023126 276.847601 
L 302.428437 277.493077 
L 302.428437 277.493077 
L 302.833749 277.584987 
L 302.833749 277.584987 
L 303.644372 278.728461 
L 303.644372 278.728461 
L 304.049683 278.968449 
L 304.049683 278.968449 
L 304.860306 280.319173 
L 304.860306 280.319173 
L 305.265618 281.250892 
L 305.265618 281.250892 
L 305.67093 281.676203 
L 307.697487 286.371746 
L 307.697487 286.371746 
L 308.102799 286.879656 
L 308.913422 288.45625 
L 308.913422 288.45625 
L 309.318733 288.650884 
L 309.318733 288.650884 
L 310.129356 289.683825 
L 310.129356 289.683825 
L 310.534668 289.47928 
L 310.534668 289.47928 
L 310.93998 289.786249 
L 310.93998 289.786249 
L 311.345291 289.715664 
L 311.750603 289.969769 
L 311.750603 289.969769 
L 312.155914 290.446442 
L 312.155914 290.446442 
L 312.561226 290.34522 
L 312.561226 290.34522 
L 312.966537 290.791557 
L 313.371849 290.890976 
L 313.371849 290.890976 
L 313.77716 291.399487 
L 313.77716 291.399487 
L 314.182472 292.131166 
L 314.182472 292.131166 
L 314.587783 292.098427 
L 314.587783 292.098427 
L 314.993095 292.747807 
L 314.993095 292.747807 
L 315.398407 292.814487 
L 315.803718 293.462366 
L 315.803718 293.462366 
L 316.20903 293.587917 
L 316.614341 294.200953 
L 316.614341 294.200953 
L 317.019653 294.436436 
L 317.019653 294.436436 
L 317.424964 295.115252 
L 317.830276 295.435737 
L 317.830276 295.435737 
L 319.451522 292.456157 
L 319.451522 292.456157 
L 319.856834 291.107837 
L 319.856834 291.107837 
L 320.262145 290.295961 
L 320.667457 288.550263 
L 320.667457 288.550263 
L 321.072768 287.820386 
L 321.072768 287.820386 
L 321.47808 285.981877 
L 321.47808 285.981877 
L 321.883391 285.471264 
L 321.883391 285.471264 
L 322.288703 283.451036 
L 322.288703 283.451036 
L 322.694014 283.431212 
L 323.099326 281.618834 
L 323.099326 281.618834 
L 323.504637 282.395568 
L 323.504637 282.395568 
L 323.909949 282.623842 
L 323.909949 282.623842 
L 324.31526 281.817673 
L 324.31526 281.817673 
L 324.720572 282.70584 
L 324.720572 282.70584 
L 325.125884 281.960645 
L 325.125884 281.960645 
L 325.531195 283.222461 
L 325.531195 283.222461 
L 325.936507 281.927605 
L 325.936507 281.927605 
L 326.341818 283.159385 
L 326.341818 283.159385 
L 326.74713 283.430912 
L 326.74713 283.430912 
L 327.152441 281.868735 
L 327.152441 281.868735 
L 327.557753 281.948931 
L 327.557753 281.948931 
L 327.963064 279.640657 
L 327.963064 279.640657 
L 328.368376 280.06747 
L 328.368376 280.06747 
L 328.773687 280.097506 
L 328.773687 280.097506 
L 329.178999 278.940216 
L 329.178999 278.940216 
L 329.584311 280.192721 
L 329.584311 280.192721 
L 329.989622 279.746384 
L 329.989622 279.746384 
L 331.205557 288.33941 
L 331.205557 288.33941 
L 331.610868 293.462967 
L 331.610868 293.462967 
L 332.01618 292.418311 
L 332.01618 292.418311 
L 332.421491 288.420507 
L 332.421491 288.420507 
L 333.232114 276.834685 
L 333.232114 276.834685 
L 333.637426 272.8519 
L 333.637426 272.8519 
L 334.042737 267.613004 
L 334.448049 265.798224 
L 334.448049 265.798224 
L 334.853361 261.50126 
L 334.853361 261.50126 
L 335.258672 258.592865 
L 335.258672 258.592865 
L 335.663984 259.501758 
L 335.663984 259.501758 
L 336.069295 257.868095 
L 336.069295 257.868095 
L 336.474607 257.819436 
L 336.474607 257.819436 
L 336.879918 262.117601 
L 336.879918 262.117601 
L 337.28523 263.267082 
L 337.28523 263.267082 
L 337.690541 266.057736 
L 337.690541 266.057736 
L 338.095853 273.807648 
L 338.095853 273.807648 
L 338.501164 277.433004 
L 338.501164 277.433004 
L 338.906476 282.543345 
L 338.906476 282.543345 
L 339.311788 292.712965 
L 339.311788 292.712965 
L 339.717099 293.351833 
L 339.717099 293.351833 
L 340.122411 287.496898 
L 340.122411 287.496898 
L 340.527722 277.047641 
L 340.527722 277.047641 
L 341.338345 268.107398 
L 341.338345 268.107398 
L 341.743657 259.97813 
L 341.743657 259.97813 
L 342.55428 257.410044 
L 342.55428 257.410044 
L 342.959591 254.304312 
L 342.959591 254.304312 
L 344.175526 263.760275 
L 344.175526 263.760275 
L 344.580838 271.297532 
L 344.580838 271.297532 
L 344.986149 275.203726 
L 344.986149 275.203726 
L 345.796772 295.201756 
L 345.796772 295.201756 
L 346.202084 288.933824 
L 346.202084 288.933824 
L 347.418018 257.642223 
L 347.418018 257.642223 
L 347.82333 251.183562 
L 347.82333 251.183562 
L 348.633953 233.744907 
L 348.633953 233.744907 
L 349.039265 229.872053 
L 349.039265 229.872053 
L 349.849888 216.048543 
L 349.849888 216.048543 
L 350.255199 215.123131 
L 350.255199 215.123131 
L 350.660511 209.628027 
L 350.660511 209.628027 
L 351.065822 205.646443 
L 351.065822 205.646443 
L 351.471134 203.213219 
L 351.471134 203.213219 
L 351.876445 204.657655 
L 351.876445 204.657655 
L 352.281757 203.127016 
L 352.281757 203.127016 
L 352.687068 203.181381 
L 352.687068 203.181381 
L 353.09238 207.626422 
L 353.09238 207.626422 
L 353.497692 208.683993 
L 353.497692 208.683993 
L 353.903003 211.33588 
L 353.903003 211.33588 
L 354.308315 218.876741 
L 354.308315 218.876741 
L 354.713626 222.583796 
L 354.713626 222.583796 
L 355.118938 227.875254 
L 355.118938 227.875254 
L 355.524249 234.724985 
L 355.524249 234.724985 
L 356.334872 252.640012 
L 356.334872 252.640012 
L 356.740184 261.745754 
L 356.740184 261.745754 
L 357.550807 283.170499 
L 357.550807 283.170499 
L 357.956118 293.267432 
L 357.956118 293.267432 
L 358.766742 275.810154 
L 358.766742 275.810154 
L 359.982676 247.806604 
L 359.982676 247.806604 
L 360.793299 233.878568 
L 360.793299 233.878568 
L 361.603922 226.52333 
L 361.603922 226.52333 
L 362.009234 226.215159 
L 362.009234 226.215159 
L 362.414545 227.382962 
L 362.414545 227.382962 
L 362.819857 229.987392 
L 363.225169 234.94545 
L 363.225169 234.94545 
L 364.035792 249.545694 
L 364.035792 249.545694 
L 365.251726 280.988677 
L 365.251726 280.988677 
L 365.657038 293.531449 
L 365.657038 293.531449 
L 366.062349 285.599217 
L 366.062349 285.599217 
L 366.872972 261.394332 
L 366.872972 261.394332 
L 367.683596 240.47119 
L 367.683596 240.47119 
L 368.494219 226.445836 
L 368.494219 226.445836 
L 368.89953 223.913794 
L 368.89953 223.913794 
L 369.304842 222.466354 
L 369.304842 222.466354 
L 369.710153 225.667001 
L 369.710153 225.667001 
L 370.115465 229.894881 
L 370.115465 229.894881 
L 370.926088 247.8033 
L 370.926088 247.8033 
L 372.142022 290.956154 
L 372.142022 290.956154 
L 372.547334 282.393165 
L 372.547334 282.393165 
L 373.357957 247.557905 
L 373.357957 247.557905 
L 374.979203 175.605545 
L 374.979203 175.605545 
L 375.789826 145.46793 
L 375.789826 145.46793 
L 376.600449 114.211772 
L 376.600449 114.211772 
L 377.005761 101.146672 
L 377.005761 101.146672 
L 378.627007 66.447176 
L 378.627007 66.447176 
L 379.032319 59.797786 
L 379.032319 59.797786 
L 379.43763 55.412516 
L 379.43763 55.412516 
L 379.842942 55.0656 
L 379.842942 55.0656 
L 380.248253 53.568 
L 380.248253 53.568 
L 380.653565 54.412915 
L 380.653565 54.412915 
L 381.869499 69.117385 
L 381.869499 69.117385 
L 383.085434 99.252296 
L 383.085434 99.252296 
L 385.111992 177.055687 
L 385.111992 177.055687 
L 387.949173 295.488 
L 387.949173 295.488 
L 388.759796 269.195906 
L 388.759796 269.195906 
L 389.570419 251.728117 
L 389.570419 251.728117 
L 390.381042 244.541681 
L 390.381042 244.541681 
L 390.786353 246.301195 
L 390.786353 246.301195 
L 391.191665 249.889607 
L 391.191665 249.889607 
L 391.596977 254.969011 
L 391.596977 254.969011 
L 392.4076 272.217537 
L 392.4076 272.217537 
L 393.218223 295.303278 
L 393.218223 295.303278 
L 396.055403 195.654637 
L 396.055403 195.654637 
L 397.271338 162.507706 
L 397.271338 162.507706 
L 397.67665 154.62173 
L 397.67665 154.62173 
L 398.081961 150.6855 
L 398.081961 150.6855 
L 398.487273 150.250277 
L 398.487273 150.250277 
" clip-path="url(#pc43e949c96)" style="fill: none; stroke: #1f77b4; stroke-width: 1.5; stroke-linecap: square"/>
   </g>
   <g id="patch_3">
    <path d="M 57.6 307.584 
L 57.6 41.472 
" style="fill: none; stroke: #000000; stroke-width: 0.8; stroke-linejoin: miter; stroke-linecap: square"/>
   </g>
   <g id="patch_4">
    <path d="M 414.72 307.584 
L 414.72 41.472 
" style="fill: none; stroke: #000000; stroke-width: 0.8; stroke-linejoin: miter; stroke-linecap: square"/>
   </g>
   <g id="patch_5">
    <path d="M 57.6 307.584 
L 414.72 307.584 
" style="fill: none; stroke: #000000; stroke-width: 0.8; stroke-linejoin: miter; stroke-linecap: square"/>
   </g>
   <g id="patch_6">
    <path d="M 57.6 41.472 
L 414.72 41.472 
" style="fill: none; stroke: #000000; stroke-width: 0.8; stroke-linejoin: miter; stroke-linecap: square"/>
   </g>
   <g id="text_21">
    <!-- Tracking error vs Time -->
    <g transform="translate(169.584375 35.472) scale(0.12 -0.12)">
     <defs>
      <path id="DejaVuSans-76" d="M 191 3500 
L 800 3500 
L 1894 563 
L 2988 3500 
L 3597 3500 
L 2284 0 
L 1503 0 
L 191 3500 
z
" transform="scale(0.015625)"/>
     </defs>
     <use xlink:href="#DejaVuSans-54"/>
     <use xlink:href="#DejaVuSans-72" x="46.333984"/>
     <use xlink:href="#DejaVuSans-61" x="87.447266"/>
     <use xlink:href="#DejaVuSans-63" x="148.726562"/>
     <use xlink:href="#DejaVuSans-6b" x="203.707031"/>
     <use xlink:href="#DejaVuSans-69" x="261.617188"/>
     <use xlink:href="#DejaVuSans-6e" x="289.400391"/>
     <use xlink:href="#DejaVuSans-67" x="352.779297"/>
     <use xlink:href="#DejaVuSans-20" x="416.255859"/>
     <use xlink:href="#DejaVuSans-65" x="448.042969"/>
     <use xlink:href="#DejaVuSans-72" x="509.566406"/>
     <use xlink:href="#DejaVuSans-72" x="548.929688"/>
     <use xlink:href="#DejaVuSans-6f" x="587.792969"/>
     <use xlink:href="#DejaVuSans-72" x="648.974609"/>
     <use xlink:href="#DejaVuSans-20" x="690.087891"/>
     <use xlink:href="#DejaVuSans-76" x="721.875"/>
     <use xlink:href="#DejaVuSans-73" x="781.054688"/>
     <use xlink:href="#DejaVuSans-20" x="833.154297"/>
     <use xlink:href="#DejaVuSans-54" x="864.941406"/>
     <use xlink:href="#DejaVuSans-69" x="922.900391"/>
     <use xlink:href="#DejaVuSans-6d" x="950.683594"/>
     <use xlink:href="#DejaVuSans-65" x="1048.095703"/>
    </g>
   </g>
   <g id="legend_1">
    <g id="patch_7">
     <path d="M 64.6 64.150125 
L 161.31875 64.150125 
Q 163.31875 64.150125 163.31875 62.150125 
L 163.31875 48.472 
Q 163.31875 46.472 161.31875 46.472 
L 64.6 46.472 
Q 62.6 46.472 62.6 48.472 
L 62.6 62.150125 
Q 62.6 64.150125 64.6 64.150125 
z
" style="fill: #ffffff; opacity: 0.8; stroke: #cccccc; stroke-linejoin: miter"/>
    </g>
    <g id="line2d_38">
     <path d="M 66.6 54.570438 
L 76.6 54.570438 
L 86.6 54.570438 
" style="fill: none; stroke: #1f77b4; stroke-width: 1.5; stroke-linecap: square"/>
    </g>
    <g id="text_22">
     <!-- Actual speed -->
     <g transform="translate(94.6 58.070438) scale(0.1 -0.1)">
      <defs>
       <path id="DejaVuSans-41" d="M 2188 4044 
L 1331 1722 
L 3047 1722 
L 2188 4044 
z
M 1831 4666 
L 2547 4666 
L 4325 0 
L 3669 0 
L 3244 1197 
L 1141 1197 
L 716 0 
L 50 0 
L 1831 4666 
z
" transform="scale(0.015625)"/>
       <path id="DejaVuSans-74" d="M 1172 4494 
L 1172 3500 
L 2356 3500 
L 2356 3053 
L 1172 3053 
L 1172 1153 
Q 1172 725 1289 603 
Q 1406 481 1766 481 
L 2356 481 
L 2356 0 
L 1766 0 
Q 1100 0 847 248 
Q 594 497 594 1153 
L 594 3053 
L 172 3053 
L 172 3500 
L 594 3500 
L 594 4494 
L 1172 4494 
z
" transform="scale(0.015625)"/>
       <path id="DejaVuSans-75" d="M 544 1381 
L 544 3500 
L 1119 3500 
L 1119 1403 
Q 1119 906 1312 657 
Q 1506 409 1894 409 
Q 2359 409 2629 706 
Q 2900 1003 2900 1516 
L 2900 3500 
L 3475 3500 
L 3475 0 
L 2900 0 
L 2900 538 
Q 2691 219 2414 64 
Q 2138 -91 1772 -91 
Q 1169 -91 856 284 
Q 544 659 544 1381 
z
M 1991 3584 
L 1991 3584 
z
" transform="scale(0.015625)"/>
       <path id="DejaVuSans-6c" d="M 603 4863 
L 1178 4863 
L 1178 0 
L 603 0 
L 603 4863 
z
" transform="scale(0.015625)"/>
       <path id="DejaVuSans-70" d="M 1159 525 
L 1159 -1331 
L 581 -1331 
L 581 3500 
L 1159 3500 
L 1159 2969 
Q 1341 3281 1617 3432 
Q 1894 3584 2278 3584 
Q 2916 3584 3314 3078 
Q 3713 2572 3713 1747 
Q 3713 922 3314 415 
Q 2916 -91 2278 -91 
Q 1894 -91 1617 61 
Q 1341 213 1159 525 
z
M 3116 1747 
Q 3116 2381 2855 2742 
Q 2594 3103 2138 3103 
Q 1681 3103 1420 2742 
Q 1159 2381 1159 1747 
Q 1159 1113 1420 752 
Q 1681 391 2138 391 
Q 2594 391 2855 752 
Q 3116 1113 3116 1747 
z
" transform="scale(0.015625)"/>
       <path id="DejaVuSans-64" d="M 2906 2969 
L 2906 4863 
L 3481 4863 
L 3481 0 
L 2906 0 
L 2906 525 
Q 2725 213 2448 61 
Q 2172 -91 1784 -91 
Q 1150 -91 751 415 
Q 353 922 353 1747 
Q 353 2572 751 3078 
Q 1150 3584 1784 3584 
Q 2172 3584 2448 3432 
Q 2725 3281 2906 2969 
z
M 947 1747 
Q 947 1113 1208 752 
Q 1469 391 1925 391 
Q 2381 391 2643 752 
Q 2906 1113 2906 1747 
Q 2906 2381 2643 2742 
Q 2381 3103 1925 3103 
Q 1469 3103 1208 2742 
Q 947 2381 947 1747 
z
" transform="scale(0.015625)"/>
      </defs>
      <use xlink:href="#DejaVuSans-41"/>
      <use xlink:href="#DejaVuSans-63" x="66.658203"/>
      <use xlink:href="#DejaVuSans-74" x="121.638672"/>
      <use xlink:href="#DejaVuSans-75" x="160.847656"/>
      <use xlink:href="#DejaVuSans-61" x="224.226562"/>
      <use xlink:href="#DejaVuSans-6c" x="285.505859"/>
      <use xlink:href="#DejaVuSans-20" x="313.289062"/>
      <use xlink:href="#DejaVuSans-73" x="345.076172"/>
      <use xlink:href="#DejaVuSans-70" x="397.175781"/>
      <use xlink:href="#DejaVuSans-65" x="460.652344"/>
      <use xlink:href="#DejaVuSans-65" x="522.175781"/>
      <use xlink:href="#DejaVuSans-64" x="583.699219"/>
     </g>
    </g>
   </g>
  </g>
 </g>
 <defs>
  <clipPath id="pc43e949c96">
   <rect x="57.6" y="41.472" width="357.12" height="266.112"/>
  </clipPath>
 </defs>
</svg>
