<?xml version="1.0" encoding="utf-8" standalone="no"?>
<!DOCTYPE svg PUBLIC "-//W3C//DTD SVG 1.1//EN"
  "http://www.w3.org/Graphics/SVG/1.1/DTD/svg11.dtd">
<svg xmlns:xlink="http://www.w3.org/1999/xlink" width="460.8pt" height="345.6pt" viewBox="0 0 460.8 345.6" xmlns="http://www.w3.org/2000/svg" version="1.1">
 <metadata>
  <rdf:RDF xmlns:dc="http://purl.org/dc/elements/1.1/" xmlns:cc="http://creativecommons.org/ns#" xmlns:rdf="http://www.w3.org/1999/02/22-rdf-syntax-ns#">
   <cc:Work>
    <dc:type rdf:resource="http://purl.org/dc/dcmitype/StillImage"/>
    <dc:date>2024-01-30T20:58:21.236025</dc:date>
    <dc:format>image/svg+xml</dc:format>
    <dc:creator>
     <cc:Agent>
      <dc:title>Matplotlib v3.7.1, https://matplotlib.org/</dc:title>
     </cc:Agent>
    </dc:creator>
   </cc:Work>
  </rdf:RDF>
 </metadata>
 <defs>
  <style type="text/css">*{stroke-linejoin: round; stroke-linecap: butt}</style>
 </defs>
 <g id="figure_1">
  <g id="patch_1">
   <path d="M 0 345.6 
L 460.8 345.6 
L 460.8 0 
L 0 0 
z
" style="fill: #ffffff"/>
  </g>
  <g id="axes_1">
   <g id="patch_2">
    <path d="M 57.6 307.584 
L 414.72 307.584 
L 414.72 41.472 
L 57.6 41.472 
z
" style="fill: #ffffff"/>
   </g>
   <g id="matplotlib.axis_1">
    <g id="xtick_1">
     <g id="line2d_1">
      <path d="M 73.832727 307.584 
L 73.832727 41.472 
" clip-path="url(#p7a15713cd5)" style="fill: none; stroke: #b0b0b0; stroke-width: 0.8; stroke-linecap: square"/>
     </g>
     <g id="line2d_2">
      <defs>
       <path id="m18a298635c" d="M 0 0 
L 0 3.5 
" style="stroke: #000000; stroke-width: 0.8"/>
      </defs>
      <g>
       <use xlink:href="#m18a298635c" x="73.832727" y="307.584" style="stroke: #000000; stroke-width: 0.8"/>
      </g>
     </g>
     <g id="text_1">
      <!-- 0 -->
      <g transform="translate(70.651477 322.182437) scale(0.1 -0.1)">
       <defs>
        <path id="DejaVuSans-30" d="M 2034 4250 
Q 1547 4250 1301 3770 
Q 1056 3291 1056 2328 
Q 1056 1369 1301 889 
Q 1547 409 2034 409 
Q 2525 409 2770 889 
Q 3016 1369 3016 2328 
Q 3016 3291 2770 3770 
Q 2525 4250 2034 4250 
z
M 2034 4750 
Q 2819 4750 3233 4129 
Q 3647 3509 3647 2328 
Q 3647 1150 3233 529 
Q 2819 -91 2034 -91 
Q 1250 -91 836 529 
Q 422 1150 422 2328 
Q 422 3509 836 4129 
Q 1250 4750 2034 4750 
z
" transform="scale(0.015625)"/>
       </defs>
       <use xlink:href="#DejaVuSans-30"/>
      </g>
     </g>
    </g>
    <g id="xtick_2">
     <g id="line2d_3">
      <path d="M 115.084893 307.584 
L 115.084893 41.472 
" clip-path="url(#p7a15713cd5)" style="fill: none; stroke: #b0b0b0; stroke-width: 0.8; stroke-linecap: square"/>
     </g>
     <g id="line2d_4">
      <g>
       <use xlink:href="#m18a298635c" x="115.084893" y="307.584" style="stroke: #000000; stroke-width: 0.8"/>
      </g>
     </g>
     <g id="text_2">
      <!-- 2 -->
      <g transform="translate(111.903643 322.182437) scale(0.1 -0.1)">
       <defs>
        <path id="DejaVuSans-32" d="M 1228 531 
L 3431 531 
L 3431 0 
L 469 0 
L 469 531 
Q 828 903 1448 1529 
Q 2069 2156 2228 2338 
Q 2531 2678 2651 2914 
Q 2772 3150 2772 3378 
Q 2772 3750 2511 3984 
Q 2250 4219 1831 4219 
Q 1534 4219 1204 4116 
Q 875 4013 500 3803 
L 500 4441 
Q 881 4594 1212 4672 
Q 1544 4750 1819 4750 
Q 2544 4750 2975 4387 
Q 3406 4025 3406 3419 
Q 3406 3131 3298 2873 
Q 3191 2616 2906 2266 
Q 2828 2175 2409 1742 
Q 1991 1309 1228 531 
z
" transform="scale(0.015625)"/>
       </defs>
       <use xlink:href="#DejaVuSans-32"/>
      </g>
     </g>
    </g>
    <g id="xtick_3">
     <g id="line2d_5">
      <path d="M 156.337059 307.584 
L 156.337059 41.472 
" clip-path="url(#p7a15713cd5)" style="fill: none; stroke: #b0b0b0; stroke-width: 0.8; stroke-linecap: square"/>
     </g>
     <g id="line2d_6">
      <g>
       <use xlink:href="#m18a298635c" x="156.337059" y="307.584" style="stroke: #000000; stroke-width: 0.8"/>
      </g>
     </g>
     <g id="text_3">
      <!-- 4 -->
      <g transform="translate(153.155809 322.182437) scale(0.1 -0.1)">
       <defs>
        <path id="DejaVuSans-34" d="M 2419 4116 
L 825 1625 
L 2419 1625 
L 2419 4116 
z
M 2253 4666 
L 3047 4666 
L 3047 1625 
L 3713 1625 
L 3713 1100 
L 3047 1100 
L 3047 0 
L 2419 0 
L 2419 1100 
L 313 1100 
L 313 1709 
L 2253 4666 
z
" transform="scale(0.015625)"/>
       </defs>
       <use xlink:href="#DejaVuSans-34"/>
      </g>
     </g>
    </g>
    <g id="xtick_4">
     <g id="line2d_7">
      <path d="M 197.589225 307.584 
L 197.589225 41.472 
" clip-path="url(#p7a15713cd5)" style="fill: none; stroke: #b0b0b0; stroke-width: 0.8; stroke-linecap: square"/>
     </g>
     <g id="line2d_8">
      <g>
       <use xlink:href="#m18a298635c" x="197.589225" y="307.584" style="stroke: #000000; stroke-width: 0.8"/>
      </g>
     </g>
     <g id="text_4">
      <!-- 6 -->
      <g transform="translate(194.407975 322.182437) scale(0.1 -0.1)">
       <defs>
        <path id="DejaVuSans-36" d="M 2113 2584 
Q 1688 2584 1439 2293 
Q 1191 2003 1191 1497 
Q 1191 994 1439 701 
Q 1688 409 2113 409 
Q 2538 409 2786 701 
Q 3034 994 3034 1497 
Q 3034 2003 2786 2293 
Q 2538 2584 2113 2584 
z
M 3366 4563 
L 3366 3988 
Q 3128 4100 2886 4159 
Q 2644 4219 2406 4219 
Q 1781 4219 1451 3797 
Q 1122 3375 1075 2522 
Q 1259 2794 1537 2939 
Q 1816 3084 2150 3084 
Q 2853 3084 3261 2657 
Q 3669 2231 3669 1497 
Q 3669 778 3244 343 
Q 2819 -91 2113 -91 
Q 1303 -91 875 529 
Q 447 1150 447 2328 
Q 447 3434 972 4092 
Q 1497 4750 2381 4750 
Q 2619 4750 2861 4703 
Q 3103 4656 3366 4563 
z
" transform="scale(0.015625)"/>
       </defs>
       <use xlink:href="#DejaVuSans-36"/>
      </g>
     </g>
    </g>
    <g id="xtick_5">
     <g id="line2d_9">
      <path d="M 238.841391 307.584 
L 238.841391 41.472 
" clip-path="url(#p7a15713cd5)" style="fill: none; stroke: #b0b0b0; stroke-width: 0.8; stroke-linecap: square"/>
     </g>
     <g id="line2d_10">
      <g>
       <use xlink:href="#m18a298635c" x="238.841391" y="307.584" style="stroke: #000000; stroke-width: 0.8"/>
      </g>
     </g>
     <g id="text_5">
      <!-- 8 -->
      <g transform="translate(235.660141 322.182437) scale(0.1 -0.1)">
       <defs>
        <path id="DejaVuSans-38" d="M 2034 2216 
Q 1584 2216 1326 1975 
Q 1069 1734 1069 1313 
Q 1069 891 1326 650 
Q 1584 409 2034 409 
Q 2484 409 2743 651 
Q 3003 894 3003 1313 
Q 3003 1734 2745 1975 
Q 2488 2216 2034 2216 
z
M 1403 2484 
Q 997 2584 770 2862 
Q 544 3141 544 3541 
Q 544 4100 942 4425 
Q 1341 4750 2034 4750 
Q 2731 4750 3128 4425 
Q 3525 4100 3525 3541 
Q 3525 3141 3298 2862 
Q 3072 2584 2669 2484 
Q 3125 2378 3379 2068 
Q 3634 1759 3634 1313 
Q 3634 634 3220 271 
Q 2806 -91 2034 -91 
Q 1263 -91 848 271 
Q 434 634 434 1313 
Q 434 1759 690 2068 
Q 947 2378 1403 2484 
z
M 1172 3481 
Q 1172 3119 1398 2916 
Q 1625 2713 2034 2713 
Q 2441 2713 2670 2916 
Q 2900 3119 2900 3481 
Q 2900 3844 2670 4047 
Q 2441 4250 2034 4250 
Q 1625 4250 1398 4047 
Q 1172 3844 1172 3481 
z
" transform="scale(0.015625)"/>
       </defs>
       <use xlink:href="#DejaVuSans-38"/>
      </g>
     </g>
    </g>
    <g id="xtick_6">
     <g id="line2d_11">
      <path d="M 280.093557 307.584 
L 280.093557 41.472 
" clip-path="url(#p7a15713cd5)" style="fill: none; stroke: #b0b0b0; stroke-width: 0.8; stroke-linecap: square"/>
     </g>
     <g id="line2d_12">
      <g>
       <use xlink:href="#m18a298635c" x="280.093557" y="307.584" style="stroke: #000000; stroke-width: 0.8"/>
      </g>
     </g>
     <g id="text_6">
      <!-- 10 -->
      <g transform="translate(273.731057 322.182437) scale(0.1 -0.1)">
       <defs>
        <path id="DejaVuSans-31" d="M 794 531 
L 1825 531 
L 1825 4091 
L 703 3866 
L 703 4441 
L 1819 4666 
L 2450 4666 
L 2450 531 
L 3481 531 
L 3481 0 
L 794 0 
L 794 531 
z
" transform="scale(0.015625)"/>
       </defs>
       <use xlink:href="#DejaVuSans-31"/>
       <use xlink:href="#DejaVuSans-30" x="63.623047"/>
      </g>
     </g>
    </g>
    <g id="xtick_7">
     <g id="line2d_13">
      <path d="M 321.345723 307.584 
L 321.345723 41.472 
" clip-path="url(#p7a15713cd5)" style="fill: none; stroke: #b0b0b0; stroke-width: 0.8; stroke-linecap: square"/>
     </g>
     <g id="line2d_14">
      <g>
       <use xlink:href="#m18a298635c" x="321.345723" y="307.584" style="stroke: #000000; stroke-width: 0.8"/>
      </g>
     </g>
     <g id="text_7">
      <!-- 12 -->
      <g transform="translate(314.983223 322.182437) scale(0.1 -0.1)">
       <use xlink:href="#DejaVuSans-31"/>
       <use xlink:href="#DejaVuSans-32" x="63.623047"/>
      </g>
     </g>
    </g>
    <g id="xtick_8">
     <g id="line2d_15">
      <path d="M 362.597888 307.584 
L 362.597888 41.472 
" clip-path="url(#p7a15713cd5)" style="fill: none; stroke: #b0b0b0; stroke-width: 0.8; stroke-linecap: square"/>
     </g>
     <g id="line2d_16">
      <g>
       <use xlink:href="#m18a298635c" x="362.597888" y="307.584" style="stroke: #000000; stroke-width: 0.8"/>
      </g>
     </g>
     <g id="text_8">
      <!-- 14 -->
      <g transform="translate(356.235388 322.182437) scale(0.1 -0.1)">
       <use xlink:href="#DejaVuSans-31"/>
       <use xlink:href="#DejaVuSans-34" x="63.623047"/>
      </g>
     </g>
    </g>
    <g id="xtick_9">
     <g id="line2d_17">
      <path d="M 403.850054 307.584 
L 403.850054 41.472 
" clip-path="url(#p7a15713cd5)" style="fill: none; stroke: #b0b0b0; stroke-width: 0.8; stroke-linecap: square"/>
     </g>
     <g id="line2d_18">
      <g>
       <use xlink:href="#m18a298635c" x="403.850054" y="307.584" style="stroke: #000000; stroke-width: 0.8"/>
      </g>
     </g>
     <g id="text_9">
      <!-- 16 -->
      <g transform="translate(397.487554 322.182437) scale(0.1 -0.1)">
       <use xlink:href="#DejaVuSans-31"/>
       <use xlink:href="#DejaVuSans-36" x="63.623047"/>
      </g>
     </g>
    </g>
    <g id="text_10">
     <!-- Time(s) -->
     <g transform="translate(217.420156 335.860562) scale(0.1 -0.1)">
      <defs>
       <path id="DejaVuSans-54" d="M -19 4666 
L 3928 4666 
L 3928 4134 
L 2272 4134 
L 2272 0 
L 1638 0 
L 1638 4134 
L -19 4134 
L -19 4666 
z
" transform="scale(0.015625)"/>
       <path id="DejaVuSans-69" d="M 603 3500 
L 1178 3500 
L 1178 0 
L 603 0 
L 603 3500 
z
M 603 4863 
L 1178 4863 
L 1178 4134 
L 603 4134 
L 603 4863 
z
" transform="scale(0.015625)"/>
       <path id="DejaVuSans-6d" d="M 3328 2828 
Q 3544 3216 3844 3400 
Q 4144 3584 4550 3584 
Q 5097 3584 5394 3201 
Q 5691 2819 5691 2113 
L 5691 0 
L 5113 0 
L 5113 2094 
Q 5113 2597 4934 2840 
Q 4756 3084 4391 3084 
Q 3944 3084 3684 2787 
Q 3425 2491 3425 1978 
L 3425 0 
L 2847 0 
L 2847 2094 
Q 2847 2600 2669 2842 
Q 2491 3084 2119 3084 
Q 1678 3084 1418 2786 
Q 1159 2488 1159 1978 
L 1159 0 
L 581 0 
L 581 3500 
L 1159 3500 
L 1159 2956 
Q 1356 3278 1631 3431 
Q 1906 3584 2284 3584 
Q 2666 3584 2933 3390 
Q 3200 3197 3328 2828 
z
" transform="scale(0.015625)"/>
       <path id="DejaVuSans-65" d="M 3597 1894 
L 3597 1613 
L 953 1613 
Q 991 1019 1311 708 
Q 1631 397 2203 397 
Q 2534 397 2845 478 
Q 3156 559 3463 722 
L 3463 178 
Q 3153 47 2828 -22 
Q 2503 -91 2169 -91 
Q 1331 -91 842 396 
Q 353 884 353 1716 
Q 353 2575 817 3079 
Q 1281 3584 2069 3584 
Q 2775 3584 3186 3129 
Q 3597 2675 3597 1894 
z
M 3022 2063 
Q 3016 2534 2758 2815 
Q 2500 3097 2075 3097 
Q 1594 3097 1305 2825 
Q 1016 2553 972 2059 
L 3022 2063 
z
" transform="scale(0.015625)"/>
       <path id="DejaVuSans-28" d="M 1984 4856 
Q 1566 4138 1362 3434 
Q 1159 2731 1159 2009 
Q 1159 1288 1364 580 
Q 1569 -128 1984 -844 
L 1484 -844 
Q 1016 -109 783 600 
Q 550 1309 550 2009 
Q 550 2706 781 3412 
Q 1013 4119 1484 4856 
L 1984 4856 
z
" transform="scale(0.015625)"/>
       <path id="DejaVuSans-73" d="M 2834 3397 
L 2834 2853 
Q 2591 2978 2328 3040 
Q 2066 3103 1784 3103 
Q 1356 3103 1142 2972 
Q 928 2841 928 2578 
Q 928 2378 1081 2264 
Q 1234 2150 1697 2047 
L 1894 2003 
Q 2506 1872 2764 1633 
Q 3022 1394 3022 966 
Q 3022 478 2636 193 
Q 2250 -91 1575 -91 
Q 1294 -91 989 -36 
Q 684 19 347 128 
L 347 722 
Q 666 556 975 473 
Q 1284 391 1588 391 
Q 1994 391 2212 530 
Q 2431 669 2431 922 
Q 2431 1156 2273 1281 
Q 2116 1406 1581 1522 
L 1381 1569 
Q 847 1681 609 1914 
Q 372 2147 372 2553 
Q 372 3047 722 3315 
Q 1072 3584 1716 3584 
Q 2034 3584 2315 3537 
Q 2597 3491 2834 3397 
z
" transform="scale(0.015625)"/>
       <path id="DejaVuSans-29" d="M 513 4856 
L 1013 4856 
Q 1481 4119 1714 3412 
Q 1947 2706 1947 2009 
Q 1947 1309 1714 600 
Q 1481 -109 1013 -844 
L 513 -844 
Q 928 -128 1133 580 
Q 1338 1288 1338 2009 
Q 1338 2731 1133 3434 
Q 928 4138 513 4856 
z
" transform="scale(0.015625)"/>
      </defs>
      <use xlink:href="#DejaVuSans-54"/>
      <use xlink:href="#DejaVuSans-69" x="57.958984"/>
      <use xlink:href="#DejaVuSans-6d" x="85.742188"/>
      <use xlink:href="#DejaVuSans-65" x="183.154297"/>
      <use xlink:href="#DejaVuSans-28" x="244.677734"/>
      <use xlink:href="#DejaVuSans-73" x="283.691406"/>
      <use xlink:href="#DejaVuSans-29" x="335.791016"/>
     </g>
    </g>
   </g>
   <g id="matplotlib.axis_2">
    <g id="ytick_1">
     <g id="line2d_19">
      <path d="M 57.6 295.488 
L 414.72 295.488 
" clip-path="url(#p7a15713cd5)" style="fill: none; stroke: #b0b0b0; stroke-width: 0.8; stroke-linecap: square"/>
     </g>
     <g id="line2d_20">
      <defs>
       <path id="md56f04cc81" d="M 0 0 
L -3.5 0 
" style="stroke: #000000; stroke-width: 0.8"/>
      </defs>
      <g>
       <use xlink:href="#md56f04cc81" x="57.6" y="295.488" style="stroke: #000000; stroke-width: 0.8"/>
      </g>
     </g>
     <g id="text_11">
      <!-- 0 -->
      <g transform="translate(44.2375 299.287219) scale(0.1 -0.1)">
       <use xlink:href="#DejaVuSans-30"/>
      </g>
     </g>
    </g>
    <g id="ytick_2">
     <g id="line2d_21">
      <path d="M 57.6 265.284557 
L 414.72 265.284557 
" clip-path="url(#p7a15713cd5)" style="fill: none; stroke: #b0b0b0; stroke-width: 0.8; stroke-linecap: square"/>
     </g>
     <g id="line2d_22">
      <g>
       <use xlink:href="#md56f04cc81" x="57.6" y="265.284557" style="stroke: #000000; stroke-width: 0.8"/>
      </g>
     </g>
     <g id="text_12">
      <!-- 1 -->
      <g transform="translate(44.2375 269.083776) scale(0.1 -0.1)">
       <use xlink:href="#DejaVuSans-31"/>
      </g>
     </g>
    </g>
    <g id="ytick_3">
     <g id="line2d_23">
      <path d="M 57.6 235.081115 
L 414.72 235.081115 
" clip-path="url(#p7a15713cd5)" style="fill: none; stroke: #b0b0b0; stroke-width: 0.8; stroke-linecap: square"/>
     </g>
     <g id="line2d_24">
      <g>
       <use xlink:href="#md56f04cc81" x="57.6" y="235.081115" style="stroke: #000000; stroke-width: 0.8"/>
      </g>
     </g>
     <g id="text_13">
      <!-- 2 -->
      <g transform="translate(44.2375 238.880334) scale(0.1 -0.1)">
       <use xlink:href="#DejaVuSans-32"/>
      </g>
     </g>
    </g>
    <g id="ytick_4">
     <g id="line2d_25">
      <path d="M 57.6 204.877672 
L 414.72 204.877672 
" clip-path="url(#p7a15713cd5)" style="fill: none; stroke: #b0b0b0; stroke-width: 0.8; stroke-linecap: square"/>
     </g>
     <g id="line2d_26">
      <g>
       <use xlink:href="#md56f04cc81" x="57.6" y="204.877672" style="stroke: #000000; stroke-width: 0.8"/>
      </g>
     </g>
     <g id="text_14">
      <!-- 3 -->
      <g transform="translate(44.2375 208.676891) scale(0.1 -0.1)">
       <defs>
        <path id="DejaVuSans-33" d="M 2597 2516 
Q 3050 2419 3304 2112 
Q 3559 1806 3559 1356 
Q 3559 666 3084 287 
Q 2609 -91 1734 -91 
Q 1441 -91 1130 -33 
Q 819 25 488 141 
L 488 750 
Q 750 597 1062 519 
Q 1375 441 1716 441 
Q 2309 441 2620 675 
Q 2931 909 2931 1356 
Q 2931 1769 2642 2001 
Q 2353 2234 1838 2234 
L 1294 2234 
L 1294 2753 
L 1863 2753 
Q 2328 2753 2575 2939 
Q 2822 3125 2822 3475 
Q 2822 3834 2567 4026 
Q 2313 4219 1838 4219 
Q 1578 4219 1281 4162 
Q 984 4106 628 3988 
L 628 4550 
Q 988 4650 1302 4700 
Q 1616 4750 1894 4750 
Q 2613 4750 3031 4423 
Q 3450 4097 3450 3541 
Q 3450 3153 3228 2886 
Q 3006 2619 2597 2516 
z
" transform="scale(0.015625)"/>
       </defs>
       <use xlink:href="#DejaVuSans-33"/>
      </g>
     </g>
    </g>
    <g id="ytick_5">
     <g id="line2d_27">
      <path d="M 57.6 174.67423 
L 414.72 174.67423 
" clip-path="url(#p7a15713cd5)" style="fill: none; stroke: #b0b0b0; stroke-width: 0.8; stroke-linecap: square"/>
     </g>
     <g id="line2d_28">
      <g>
       <use xlink:href="#md56f04cc81" x="57.6" y="174.67423" style="stroke: #000000; stroke-width: 0.8"/>
      </g>
     </g>
     <g id="text_15">
      <!-- 4 -->
      <g transform="translate(44.2375 178.473449) scale(0.1 -0.1)">
       <use xlink:href="#DejaVuSans-34"/>
      </g>
     </g>
    </g>
    <g id="ytick_6">
     <g id="line2d_29">
      <path d="M 57.6 144.470787 
L 414.72 144.470787 
" clip-path="url(#p7a15713cd5)" style="fill: none; stroke: #b0b0b0; stroke-width: 0.8; stroke-linecap: square"/>
     </g>
     <g id="line2d_30">
      <g>
       <use xlink:href="#md56f04cc81" x="57.6" y="144.470787" style="stroke: #000000; stroke-width: 0.8"/>
      </g>
     </g>
     <g id="text_16">
      <!-- 5 -->
      <g transform="translate(44.2375 148.270006) scale(0.1 -0.1)">
       <defs>
        <path id="DejaVuSans-35" d="M 691 4666 
L 3169 4666 
L 3169 4134 
L 1269 4134 
L 1269 2991 
Q 1406 3038 1543 3061 
Q 1681 3084 1819 3084 
Q 2600 3084 3056 2656 
Q 3513 2228 3513 1497 
Q 3513 744 3044 326 
Q 2575 -91 1722 -91 
Q 1428 -91 1123 -41 
Q 819 9 494 109 
L 494 744 
Q 775 591 1075 516 
Q 1375 441 1709 441 
Q 2250 441 2565 725 
Q 2881 1009 2881 1497 
Q 2881 1984 2565 2268 
Q 2250 2553 1709 2553 
Q 1456 2553 1204 2497 
Q 953 2441 691 2322 
L 691 4666 
z
" transform="scale(0.015625)"/>
       </defs>
       <use xlink:href="#DejaVuSans-35"/>
      </g>
     </g>
    </g>
    <g id="ytick_7">
     <g id="line2d_31">
      <path d="M 57.6 114.267345 
L 414.72 114.267345 
" clip-path="url(#p7a15713cd5)" style="fill: none; stroke: #b0b0b0; stroke-width: 0.8; stroke-linecap: square"/>
     </g>
     <g id="line2d_32">
      <g>
       <use xlink:href="#md56f04cc81" x="57.6" y="114.267345" style="stroke: #000000; stroke-width: 0.8"/>
      </g>
     </g>
     <g id="text_17">
      <!-- 6 -->
      <g transform="translate(44.2375 118.066564) scale(0.1 -0.1)">
       <use xlink:href="#DejaVuSans-36"/>
      </g>
     </g>
    </g>
    <g id="ytick_8">
     <g id="line2d_33">
      <path d="M 57.6 84.063902 
L 414.72 84.063902 
" clip-path="url(#p7a15713cd5)" style="fill: none; stroke: #b0b0b0; stroke-width: 0.8; stroke-linecap: square"/>
     </g>
     <g id="line2d_34">
      <g>
       <use xlink:href="#md56f04cc81" x="57.6" y="84.063902" style="stroke: #000000; stroke-width: 0.8"/>
      </g>
     </g>
     <g id="text_18">
      <!-- 7 -->
      <g transform="translate(44.2375 87.863121) scale(0.1 -0.1)">
       <defs>
        <path id="DejaVuSans-37" d="M 525 4666 
L 3525 4666 
L 3525 4397 
L 1831 0 
L 1172 0 
L 2766 4134 
L 525 4134 
L 525 4666 
z
" transform="scale(0.015625)"/>
       </defs>
       <use xlink:href="#DejaVuSans-37"/>
      </g>
     </g>
    </g>
    <g id="ytick_9">
     <g id="line2d_35">
      <path d="M 57.6 53.86046 
L 414.72 53.86046 
" clip-path="url(#p7a15713cd5)" style="fill: none; stroke: #b0b0b0; stroke-width: 0.8; stroke-linecap: square"/>
     </g>
     <g id="line2d_36">
      <g>
       <use xlink:href="#md56f04cc81" x="57.6" y="53.86046" style="stroke: #000000; stroke-width: 0.8"/>
      </g>
     </g>
     <g id="text_19">
      <!-- 8 -->
      <g transform="translate(44.2375 57.659679) scale(0.1 -0.1)">
       <use xlink:href="#DejaVuSans-38"/>
      </g>
     </g>
    </g>
    <g id="text_20">
     <!-- Velocity(m/s) -->
     <g transform="translate(38.157812 207.204563) rotate(-90) scale(0.1 -0.1)">
      <defs>
       <path id="DejaVuSans-56" d="M 1831 0 
L 50 4666 
L 709 4666 
L 2188 738 
L 3669 4666 
L 4325 4666 
L 2547 0 
L 1831 0 
z
" transform="scale(0.015625)"/>
       <path id="DejaVuSans-6c" d="M 603 4863 
L 1178 4863 
L 1178 0 
L 603 0 
L 603 4863 
z
" transform="scale(0.015625)"/>
       <path id="DejaVuSans-6f" d="M 1959 3097 
Q 1497 3097 1228 2736 
Q 959 2375 959 1747 
Q 959 1119 1226 758 
Q 1494 397 1959 397 
Q 2419 397 2687 759 
Q 2956 1122 2956 1747 
Q 2956 2369 2687 2733 
Q 2419 3097 1959 3097 
z
M 1959 3584 
Q 2709 3584 3137 3096 
Q 3566 2609 3566 1747 
Q 3566 888 3137 398 
Q 2709 -91 1959 -91 
Q 1206 -91 779 398 
Q 353 888 353 1747 
Q 353 2609 779 3096 
Q 1206 3584 1959 3584 
z
" transform="scale(0.015625)"/>
       <path id="DejaVuSans-63" d="M 3122 3366 
L 3122 2828 
Q 2878 2963 2633 3030 
Q 2388 3097 2138 3097 
Q 1578 3097 1268 2742 
Q 959 2388 959 1747 
Q 959 1106 1268 751 
Q 1578 397 2138 397 
Q 2388 397 2633 464 
Q 2878 531 3122 666 
L 3122 134 
Q 2881 22 2623 -34 
Q 2366 -91 2075 -91 
Q 1284 -91 818 406 
Q 353 903 353 1747 
Q 353 2603 823 3093 
Q 1294 3584 2113 3584 
Q 2378 3584 2631 3529 
Q 2884 3475 3122 3366 
z
" transform="scale(0.015625)"/>
       <path id="DejaVuSans-74" d="M 1172 4494 
L 1172 3500 
L 2356 3500 
L 2356 3053 
L 1172 3053 
L 1172 1153 
Q 1172 725 1289 603 
Q 1406 481 1766 481 
L 2356 481 
L 2356 0 
L 1766 0 
Q 1100 0 847 248 
Q 594 497 594 1153 
L 594 3053 
L 172 3053 
L 172 3500 
L 594 3500 
L 594 4494 
L 1172 4494 
z
" transform="scale(0.015625)"/>
       <path id="DejaVuSans-79" d="M 2059 -325 
Q 1816 -950 1584 -1140 
Q 1353 -1331 966 -1331 
L 506 -1331 
L 506 -850 
L 844 -850 
Q 1081 -850 1212 -737 
Q 1344 -625 1503 -206 
L 1606 56 
L 191 3500 
L 800 3500 
L 1894 763 
L 2988 3500 
L 3597 3500 
L 2059 -325 
z
" transform="scale(0.015625)"/>
       <path id="DejaVuSans-2f" d="M 1625 4666 
L 2156 4666 
L 531 -594 
L 0 -594 
L 1625 4666 
z
" transform="scale(0.015625)"/>
      </defs>
      <use xlink:href="#DejaVuSans-56"/>
      <use xlink:href="#DejaVuSans-65" x="60.658203"/>
      <use xlink:href="#DejaVuSans-6c" x="122.181641"/>
      <use xlink:href="#DejaVuSans-6f" x="149.964844"/>
      <use xlink:href="#DejaVuSans-63" x="211.146484"/>
      <use xlink:href="#DejaVuSans-69" x="266.126953"/>
      <use xlink:href="#DejaVuSans-74" x="293.910156"/>
      <use xlink:href="#DejaVuSans-79" x="333.119141"/>
      <use xlink:href="#DejaVuSans-28" x="392.298828"/>
      <use xlink:href="#DejaVuSans-6d" x="431.3125"/>
      <use xlink:href="#DejaVuSans-2f" x="528.724609"/>
      <use xlink:href="#DejaVuSans-73" x="562.416016"/>
      <use xlink:href="#DejaVuSans-29" x="614.515625"/>
     </g>
    </g>
   </g>
   <g id="line2d_37">
    <path d="M 73.832727 53.86046 
L 73.832727 295.488 
L 74.245249 290.316899 
L 74.245249 290.316899 
L 81.670639 263.482378 
L 81.670639 263.482378 
L 88.683507 237.139812 
L 88.683507 237.139812 
L 97.346462 203.320292 
L 97.346462 203.320292 
L 104.771852 173.071092 
L 104.771852 173.071092 
L 110.959677 147.063149 
L 110.959677 147.063149 
L 116.322458 123.82755 
L 116.322458 123.82755 
L 122.097761 98.102342 
L 122.097761 98.102342 
L 128.698108 68.561533 
L 128.698108 68.561533 
L 129.935673 64.861671 
L 129.935673 64.861671 
L 131.173238 62.084253 
L 131.173238 62.084253 
L 131.998281 60.777471 
L 131.998281 60.777471 
L 132.823324 60.150417 
L 132.823324 60.150417 
L 133.235846 59.996591 
L 133.235846 59.996591 
L 133.648368 59.988799 
L 133.648368 59.988799 
L 134.060889 60.826703 
L 134.060889 60.826703 
L 134.473411 62.204674 
L 134.473411 62.204674 
L 134.885933 63.048649 
L 134.885933 63.048649 
L 135.298454 64.240598 
L 135.298454 64.240598 
L 135.710976 66.100375 
L 136.123498 68.677453 
L 136.123498 68.677453 
L 136.536019 70.331303 
L 136.536019 70.331303 
L 136.948541 72.453306 
L 136.948541 72.453306 
L 137.361063 75.368875 
L 137.361063 75.368875 
L 137.773584 79.532601 
L 137.773584 79.532601 
L 138.186106 81.816917 
L 138.186106 81.816917 
L 138.598628 84.843514 
L 138.598628 84.843514 
L 139.011149 89.117844 
L 139.011149 89.117844 
L 139.836193 94.985951 
L 139.836193 94.985951 
L 140.248714 98.853803 
L 140.248714 98.853803 
L 141.073758 104.049641 
L 141.073758 104.049641 
L 141.486279 107.643639 
L 141.486279 107.643639 
L 142.311323 112.312699 
L 142.311323 112.312699 
L 142.723844 115.599045 
L 142.723844 115.599045 
L 143.136366 117.292733 
L 143.548888 119.62465 
L 143.548888 119.62465 
L 145.198974 126.000929 
L 145.198974 126.000929 
L 145.611496 128.036249 
L 145.611496 128.036249 
L 146.024018 129.105904 
L 146.024018 129.105904 
L 146.436539 130.632778 
L 146.436539 130.632778 
L 148.499148 135.379008 
L 148.499148 135.379008 
L 149.324191 136.712731 
L 149.324191 136.712731 
L 150.561756 138.261775 
L 150.561756 138.261775 
L 151.799321 139.138642 
L 151.799321 139.138642 
L 152.211842 139.342666 
L 152.211842 139.342666 
L 155.099494 139.648959 
L 155.099494 139.648959 
L 157.987146 139.512681 
L 157.987146 139.512681 
L 158.812189 139.339072 
L 158.812189 139.339072 
L 159.224711 139.180987 
L 159.224711 139.180987 
L 160.874797 137.987468 
L 160.874797 137.987468 
L 162.524884 135.878361 
L 162.524884 135.878361 
L 163.762449 133.348642 
L 163.762449 133.348642 
L 164.587492 131.256661 
L 164.587492 131.256661 
L 165.412536 128.703382 
L 165.412536 128.703382 
L 171.60036 102.121393 
L 171.60036 102.121393 
L 172.837925 98.564364 
L 172.837925 98.564364 
L 174.07549 95.93757 
L 174.07549 95.93757 
L 175.313055 93.897207 
L 175.313055 93.897207 
L 177.375664 90.925641 
L 177.375664 90.925641 
L 179.02575 87.652645 
L 179.02575 87.652645 
L 179.850794 85.567098 
L 179.850794 85.567098 
L 181.088359 81.078775 
L 181.088359 81.078775 
L 183.150967 71.899557 
L 183.150967 71.899557 
L 183.97601 69.255124 
L 183.97601 69.255124 
L 184.801053 67.53528 
L 184.801053 67.53528 
L 185.626097 66.275072 
L 185.626097 66.275072 
L 186.863662 64.97439 
L 186.863662 64.97439 
L 188.513748 63.785281 
L 188.513748 63.785281 
L 190.988878 62.369495 
L 190.988878 62.369495 
L 191.4014 62.016839 
L 191.4014 62.016839 
L 194.701573 57.915997 
L 194.701573 57.915997 
L 195.939138 56.8921 
L 195.939138 56.8921 
L 197.589225 55.943893 
L 197.589225 55.943893 
L 198.82679 55.405094 
L 198.82679 55.405094 
L 200.476877 54.913594 
L 200.476877 54.913594 
L 202.952006 54.417804 
L 202.952006 54.417804 
L 204.602093 54.248695 
L 204.602093 54.248695 
L 214.915135 53.859886 
L 214.915135 53.859886 
L 215.327656 54.681571 
L 215.327656 54.681571 
L 216.565221 54.462747 
L 216.565221 54.462747 
L 219.040351 54.219488 
L 219.040351 54.219488 
L 223.165568 53.963182 
L 223.165568 53.963182 
L 223.578089 54.365764 
L 223.578089 54.365764 
L 223.990611 55.690849 
L 223.990611 55.690849 
L 224.403133 56.582938 
L 224.403133 56.582938 
L 224.815654 57.848069 
L 224.815654 57.848069 
L 225.228176 59.567159 
L 225.228176 59.567159 
L 226.053219 63.648127 
L 226.053219 63.648127 
L 226.878263 67.244542 
L 226.878263 67.244542 
L 228.115828 73.529334 
L 228.115828 73.529334 
L 230.178436 82.1796 
L 230.178436 82.1796 
L 230.590958 84.283512 
L 230.590958 84.283512 
L 231.416001 86.973158 
L 231.416001 86.973158 
L 231.828523 88.771955 
L 231.828523 88.771955 
L 234.716174 97.205722 
L 234.716174 97.205722 
L 237.191304 102.545238 
L 237.191304 102.545238 
L 238.428869 104.399035 
L 238.428869 104.399035 
L 239.666434 105.739554 
L 239.666434 105.739554 
L 240.078956 106.126611 
L 240.078956 106.126611 
L 240.903999 106.490502 
L 240.903999 106.490502 
L 241.729042 106.985506 
L 241.729042 106.985506 
L 242.966607 107.243716 
L 242.966607 107.243716 
L 245.854259 107.608664 
L 245.854259 107.608664 
L 248.741911 107.457586 
L 248.741911 107.457586 
L 250.391997 107.120576 
L 250.391997 107.120576 
L 251.629562 106.777223 
L 251.629562 106.777223 
L 253.69217 105.785161 
L 253.69217 105.785161 
L 255.754779 104.0925 
L 255.754779 104.0925 
L 256.992344 102.688795 
L 256.992344 102.688795 
L 258.229909 101.037059 
L 258.229909 101.037059 
L 260.292517 97.19207 
L 260.292517 97.19207 
L 261.11756 95.144972 
L 261.11756 95.144972 
L 261.942604 93.071233 
L 261.942604 93.071233 
L 264.417734 84.672955 
L 264.417734 84.672955 
L 267.717907 70.126101 
L 267.717907 70.126101 
L 268.54295 67.242337 
L 268.54295 67.242337 
L 269.780515 63.89652 
L 269.780515 63.89652 
L 271.01808 61.324818 
L 271.01808 61.324818 
L 272.255645 59.42925 
L 272.255645 59.42925 
L 273.49321 58.017239 
L 273.49321 58.017239 
L 274.730775 56.998537 
L 274.730775 56.998537 
L 276.380862 55.954465 
L 276.380862 55.954465 
L 278.030948 55.286455 
L 278.030948 55.286455 
L 279.681035 54.837541 
L 279.681035 54.837541 
L 281.331122 54.512431 
L 281.331122 54.512431 
L 287.518947 54.019239 
L 287.518947 54.019239 
L 289.169033 53.986408 
L 289.169033 53.986408 
L 292.056685 53.920746 
L 292.056685 53.920746 
L 295.356858 53.856624 
L 295.356858 53.856624 
L 295.76938 54.481835 
L 295.76938 54.481835 
L 299.069553 54.157903 
L 299.069553 54.157903 
L 299.894596 54.51521 
L 299.894596 54.51521 
L 300.307118 54.947421 
L 300.307118 54.947421 
L 300.71964 55.604195 
L 300.71964 55.604195 
L 302.782248 60.22206 
L 302.782248 60.22206 
L 303.19477 61.476318 
L 303.19477 61.476318 
L 304.019813 63.308912 
L 304.019813 63.308912 
L 304.844856 65.984031 
L 304.844856 65.984031 
L 305.257378 67.615289 
L 305.257378 67.615289 
L 306.082421 69.787218 
L 306.082421 69.787218 
L 308.145029 77.635794 
L 308.145029 77.635794 
L 308.970073 80.311366 
L 308.970073 80.311366 
L 313.095289 98.452218 
L 313.095289 98.452218 
L 313.507811 101.065269 
L 313.507811 101.065269 
L 314.332854 104.5898 
L 314.332854 104.5898 
L 314.745376 107.524004 
L 314.745376 107.524004 
L 315.157898 109.022306 
L 315.157898 109.022306 
L 315.982941 113.053378 
L 315.982941 113.053378 
L 316.395463 114.867034 
L 316.395463 114.867034 
L 316.807984 117.690059 
L 316.807984 117.690059 
L 317.220506 119.429234 
L 317.220506 119.429234 
L 318.045549 123.332938 
L 318.045549 123.332938 
L 318.458071 125.318513 
L 318.458071 125.318513 
L 318.870593 128.304908 
L 318.870593 128.304908 
L 319.283114 129.806744 
L 319.283114 129.806744 
L 319.695636 132.290524 
L 319.695636 132.290524 
L 320.108158 133.671667 
L 320.108158 133.671667 
L 320.520679 135.841513 
L 320.520679 135.841513 
L 320.933201 137.249537 
L 320.933201 137.249537 
L 321.345723 139.276339 
L 321.345723 139.276339 
L 321.758244 140.620936 
L 321.758244 140.620936 
L 322.170766 142.564286 
L 322.170766 142.564286 
L 322.583288 143.902359 
L 322.583288 143.902359 
L 323.408331 147.10187 
L 323.408331 147.10187 
L 324.645896 152.048257 
L 324.645896 152.048257 
L 325.058417 153.298589 
L 325.058417 153.298589 
L 325.470939 155.118739 
L 325.470939 155.118739 
L 325.883461 156.33171 
L 325.883461 156.33171 
L 326.295982 158.33897 
L 326.295982 158.33897 
L 326.708504 159.361387 
L 326.708504 159.361387 
L 327.121026 161.237534 
L 327.121026 161.237534 
L 327.533547 162.104131 
L 327.533547 162.104131 
L 328.771112 165.604408 
L 328.771112 165.604408 
L 330.008677 169.870674 
L 330.008677 169.870674 
L 330.421199 170.681909 
L 330.421199 170.681909 
L 330.833721 172.445578 
L 330.833721 172.445578 
L 332.483807 176.091406 
L 332.483807 176.091406 
L 332.896329 177.517008 
L 332.896329 177.517008 
L 333.721372 178.814004 
L 333.721372 178.814004 
L 334.133894 179.878404 
L 334.133894 179.878404 
L 334.546416 180.574231 
L 334.546416 180.574231 
L 334.958937 181.679888 
L 334.958937 181.679888 
L 335.371459 182.337327 
L 335.371459 182.337327 
L 335.783981 182.760809 
L 335.783981 182.760809 
L 336.196502 183.596629 
L 336.196502 183.596629 
L 337.434067 185.066691 
L 337.434067 185.066691 
L 339.496676 187.337053 
L 339.496676 187.337053 
L 342.384327 189.187769 
L 342.384327 189.187769 
L 345.271979 190.160441 
L 345.271979 190.160441 
L 348.15963 190.481443 
L 348.15963 190.481443 
L 348.984674 190.551153 
L 348.984674 190.551153 
L 350.222239 190.535719 
L 350.222239 190.535719 
L 351.872325 190.461177 
L 351.872325 190.461177 
L 355.58502 189.75653 
L 355.58502 189.75653 
L 356.410064 189.385028 
L 356.410064 189.385028 
L 357.235107 188.75145 
L 357.235107 188.75145 
L 357.647629 188.504356 
L 357.647629 188.504356 
L 358.472672 187.618912 
L 358.472672 187.618912 
L 358.885193 187.258041 
L 358.885193 187.258041 
L 359.710237 186.109042 
L 359.710237 186.109042 
L 360.122758 185.599902 
L 360.122758 185.599902 
L 360.947802 184.209487 
L 360.947802 184.209487 
L 361.360323 183.545072 
L 361.360323 183.545072 
L 363.422932 178.874653 
L 363.422932 178.874653 
L 364.247975 176.204216 
L 364.247975 176.204216 
L 365.073018 173.293057 
L 365.073018 173.293057 
L 365.898062 170.066121 
L 365.898062 170.066121 
L 368.373192 159.706672 
L 368.373192 159.706672 
L 369.610757 156.856978 
L 369.610757 156.856978 
L 370.4358 156.043297 
L 370.4358 156.043297 
L 371.260843 155.963771 
L 371.260843 155.963771 
L 372.498408 158.258448 
L 372.498408 158.258448 
L 374.148495 161.439806 
L 374.148495 161.439806 
L 374.561017 161.870236 
L 374.561017 161.870236 
L 374.973538 162.647702 
L 374.973538 162.647702 
L 376.211103 163.681415 
L 376.211103 163.681415 
L 376.623625 163.862817 
L 376.623625 163.862817 
L 377.036146 164.230182 
L 377.036146 164.230182 
L 379.511276 164.683112 
L 379.511276 164.683112 
L 381.986406 164.75844 
L 381.986406 164.75844 
L 384.874058 164.368846 
L 384.874058 164.368846 
L 385.699101 164.045367 
L 385.699101 164.045367 
L 386.936666 163.53076 
L 386.936666 163.53076 
L 387.76171 162.983051 
L 387.76171 162.983051 
L 388.586753 162.421358 
L 388.586753 162.421358 
L 389.824318 161.374144 
L 389.824318 161.374144 
L 390.649361 160.431827 
L 390.649361 160.431827 
L 391.474405 159.458128 
L 391.474405 159.458128 
L 392.71197 157.683887 
L 392.71197 157.683887 
L 395.187099 152.696514 
L 395.187099 152.696514 
L 396.424664 149.94341 
L 396.424664 149.94341 
L 398.487273 144.347769 
L 398.487273 144.347769 
" clip-path="url(#p7a15713cd5)" style="fill: none; stroke: #1f77b4; stroke-width: 1.5; stroke-linecap: square"/>
   </g>
   <g id="line2d_38">
    <path d="M 73.832727 53.767735 
L 73.832727 279.870132 
L 74.245249 274.491624 
L 74.245249 274.641463 
L 77.132901 264.058358 
L 77.132901 264.150146 
L 78.782987 257.709323 
L 79.195509 256.374753 
L 79.60803 254.639535 
L 79.60803 254.83021 
L 80.433074 251.725386 
L 81.670639 247.059317 
L 81.670639 246.738768 
L 82.08316 245.470374 
L 90.333594 213.729335 
L 90.333594 213.652648 
L 90.746115 211.677766 
L 91.571159 208.908564 
L 91.571159 208.917594 
L 93.221245 202.135834 
L 93.221245 202.230824 
L 103.946808 158.167022 
L 105.184373 152.901082 
L 105.184373 153.049532 
L 106.83446 145.906901 
L 106.83446 145.943598 
L 108.072025 140.593753 
L 108.072025 140.63942 
L 110.547155 129.925474 
L 113.022285 118.963618 
L 113.022285 119.000708 
L 121.272718 81.855215 
L 121.272718 81.976271 
L 122.097761 77.880442 
L 123.335326 72.318931 
L 123.335326 72.51761 
L 124.985413 64.343501 
L 124.985413 64.670695 
L 127.048021 55.032142 
L 127.460543 53.857138 
L 127.873065 53.568 
L 127.873065 53.654986 
L 128.285586 54.001359 
L 128.285586 53.825213 
L 128.698108 54.042979 
L 128.698108 53.677759 
L 129.523151 53.987103 
L 129.523151 53.849194 
L 130.760716 53.964239 
L 130.760716 53.819746 
L 131.173238 54.005134 
L 131.173238 53.811017 
L 131.998281 57.086761 
L 131.998281 57.041215 
L 132.410803 57.371248 
L 132.410803 57.358079 
L 133.235846 59.916039 
L 134.060889 64.948627 
L 134.473411 64.656529 
L 134.473411 64.446555 
L 134.885933 66.643584 
L 135.298454 69.643329 
L 135.298454 69.307467 
L 135.710976 73.587023 
L 135.710976 73.452014 
L 136.123498 73.482066 
L 136.123498 73.479468 
L 136.536019 76.52769 
L 136.948541 81.026916 
L 137.361063 87.46487 
L 137.361063 87.374864 
L 137.773584 86.16869 
L 137.773584 86.336772 
L 138.186106 90.616298 
L 138.598628 97.260813 
L 138.598628 97.088503 
L 139.011149 97.315633 
L 139.011149 97.227408 
L 139.423671 100.78924 
L 139.423671 100.742455 
L 139.836193 106.311849 
L 140.248714 106.571176 
L 140.248714 106.325199 
L 140.661236 109.127142 
L 141.073758 114.490488 
L 141.073758 114.41797 
L 141.486279 114.002672 
L 141.898801 116.99535 
L 141.898801 116.823915 
L 142.311323 121.922528 
L 142.723844 120.519367 
L 142.723844 120.578294 
L 143.136366 124.067154 
L 143.136366 123.958814 
L 143.548888 124.213037 
L 143.548888 124.01457 
L 143.961409 126.660542 
L 144.373931 127.480656 
L 144.373931 127.436922 
L 144.786453 129.09195 
L 145.198974 131.913736 
L 145.198974 131.536979 
L 145.611496 131.143669 
L 145.611496 131.538368 
L 146.024018 133.559039 
L 146.436539 133.493165 
L 146.849061 135.142394 
L 146.849061 134.974221 
L 147.261583 135.425672 
L 147.674104 136.432896 
L 148.086626 136.862661 
L 148.499148 137.471804 
L 148.499148 137.431301 
L 148.911669 137.881212 
L 148.911669 138.114805 
L 149.324191 138.362685 
L 149.736712 139.076573 
L 149.736712 138.928999 
L 150.149234 138.99436 
L 150.149234 138.994269 
L 150.974277 139.564661 
L 150.974277 139.523735 
L 151.386799 139.631169 
L 151.799321 139.731324 
L 151.799321 139.703385 
L 152.211842 139.512439 
L 152.211842 139.308929 
L 152.624364 139.761799 
L 153.036886 139.544455 
L 153.036886 139.638237 
L 154.274451 139.795566 
L 154.686972 139.459553 
L 155.099494 139.548472 
L 155.099494 139.742227 
L 155.512016 139.750775 
L 155.512016 139.650318 
L 155.924537 139.444512 
L 155.924537 139.451761 
L 156.337059 139.553365 
L 156.337059 139.433125 
L 157.162102 139.216355 
L 157.162102 138.975996 
L 157.987146 138.761401 
L 157.987146 138.545416 
L 158.399667 138.311369 
L 158.812189 137.636201 
L 158.812189 137.741098 
L 159.224711 135.661319 
L 159.637232 136.569658 
L 159.637232 136.429453 
L 160.049754 134.375951 
L 160.049754 134.673485 
L 160.462276 135.144478 
L 160.462276 134.866516 
L 160.874797 132.477725 
L 160.874797 132.507234 
L 161.287319 133.322093 
L 161.699841 130.077277 
L 161.699841 130.078666 
L 162.112362 130.648061 
L 162.524884 126.990998 
L 162.937406 127.0759 
L 163.349927 123.618512 
L 163.762449 123.390718 
L 163.762449 123.247281 
L 164.174971 119.848458 
L 164.174971 120.065077 
L 164.587492 118.179023 
L 165.000014 115.059128 
L 165.412536 109.345211 
L 165.825057 109.414648 
L 165.825057 109.575874 
L 166.237579 105.65583 
L 166.6501 103.952688 
L 169.950274 88.994494 
L 169.950274 89.154058 
L 170.362795 87.729966 
L 170.775317 87.569767 
L 170.775317 87.585594 
L 171.60036 88.042421 
L 171.60036 88.009016 
L 172.012882 88.034175 
L 172.012882 87.999924 
L 172.425404 88.172779 
L 172.425404 88.073077 
L 172.837925 88.212194 
L 172.837925 88.204341 
L 174.07549 88.060754 
L 174.07549 88.218265 
L 174.488012 87.968211 
L 174.900534 87.58499 
L 174.900534 87.761861 
L 175.313055 87.726704 
L 175.725577 87.227169 
L 176.138099 85.679726 
L 176.138099 86.113901 
L 176.55062 85.942798 
L 176.55062 86.151323 
L 176.963142 85.009965 
L 176.963142 85.294934 
L 177.375664 82.640022 
L 177.788185 82.851838 
L 177.788185 82.720333 
L 178.200707 81.021691 
L 178.613229 77.230494 
L 178.613229 77.324729 
L 179.02575 77.19117 
L 179.438272 74.604184 
L 179.438272 74.80691 
L 179.850794 69.481469 
L 180.263315 68.770571 
L 180.263315 69.036512 
L 180.675837 65.583171 
L 181.088359 60.538834 
L 181.913402 56.756185 
L 182.325924 54.889401 
L 182.738445 56.099562 
L 182.738445 55.778952 
L 183.150967 56.215815 
L 183.150967 56.137618 
L 183.97601 58.90217 
L 183.97601 58.863268 
L 184.388532 60.238098 
L 184.801053 60.162257 
L 184.801053 60.266399 
L 185.626097 61.005537 
L 185.626097 60.858084 
L 186.038618 61.207145 
L 186.038618 61.130398 
L 186.45114 61.19896 
L 186.45114 61.179177 
L 186.863662 61.429714 
L 186.863662 61.338651 
L 187.276183 61.539021 
L 187.276183 61.303313 
L 187.688705 61.335903 
L 187.688705 61.458347 
L 188.101227 60.940268 
L 188.101227 60.959356 
L 188.513748 61.296064 
L 188.513748 61.289419 
L 188.92627 61.432886 
L 188.92627 61.245202 
L 189.338792 60.984969 
L 189.338792 60.985512 
L 189.751313 60.030993 
L 190.163835 60.496277 
L 190.163835 60.459519 
L 190.576357 59.711924 
L 190.988878 58.564253 
L 191.4014 56.441435 
L 191.4014 56.523165 
L 191.813922 56.66041 
L 191.813922 56.894426 
L 192.638965 53.607748 
L 192.638965 53.904889 
L 193.051487 53.733666 
L 193.051487 53.897218 
L 193.464008 53.855899 
L 193.464008 54.002718 
L 194.289052 53.738529 
L 194.701573 54.056813 
L 195.114095 53.729166 
L 195.939138 54.048507 
L 195.939138 53.899634 
L 196.35166 53.942523 
L 196.35166 53.641727 
L 196.764182 53.879186 
L 196.764182 54.0119 
L 197.176703 53.962004 
L 197.176703 53.962034 
L 197.589225 53.759913 
L 197.589225 54.02827 
L 198.001747 53.902413 
L 198.414268 53.749402 
L 198.414268 54.054396 
L 198.82679 53.833911 
L 198.82679 53.845056 
L 199.239312 54.013833 
L 199.239312 53.992419 
L 199.651833 53.767524 
L 199.651833 53.872813 
L 200.064355 53.914433 
L 200.064355 53.898033 
L 201.30192 53.675222 
L 201.30192 53.867467 
L 201.714441 53.852698 
L 201.714441 53.908544 
L 202.126963 53.570295 
L 202.126963 53.926243 
L 202.539485 53.962397 
L 202.539485 53.894801 
L 202.952006 53.724846 
L 202.952006 53.848469 
L 203.77705 53.897731 
L 203.77705 53.855658 
L 204.189571 53.992962 
L 204.189571 53.791717 
L 204.602093 54.06835 
L 204.602093 53.947929 
L 205.014615 53.90199 
L 205.014615 53.770393 
L 205.427136 53.729981 
L 205.427136 53.76245 
L 205.839658 54.057779 
L 206.664701 53.859131 
L 207.077223 53.95841 
L 207.077223 53.905977 
L 207.489745 53.859795 
L 207.489745 53.894982 
L 207.902266 53.969162 
L 208.72731 53.73877 
L 208.72731 53.743693 
L 209.552353 53.866621 
L 209.552353 53.820169 
L 209.964875 53.72835 
L 209.964875 53.924642 
L 210.377396 53.836146 
L 210.377396 53.999215 
L 210.789918 53.773716 
L 210.789918 53.994352 
L 211.20244 53.780783 
L 212.027483 53.927814 
L 212.027483 53.894167 
L 212.852526 53.883717 
L 212.852526 53.935727 
L 213.265048 53.689569 
L 213.265048 53.850221 
L 213.67757 53.576155 
L 213.67757 53.589988 
L 214.090091 53.878642 
L 214.090091 53.693223 
L 214.502613 53.834455 
L 214.915135 56.246925 
L 214.915135 56.000706 
L 215.327656 53.632213 
L 215.327656 53.927874 
L 215.740178 53.864205 
L 215.740178 54.005044 
L 216.1527 53.929596 
L 216.1527 53.753902 
L 216.565221 53.855537 
L 216.565221 53.692046 
L 216.977743 53.750399 
L 216.977743 54.098342 
L 217.390265 54.040352 
L 217.390265 53.6883 
L 218.215308 53.971216 
L 218.62783 53.989127 
L 218.62783 53.849164 
L 219.452873 53.904013 
L 219.452873 54.033133 
L 219.865394 53.719017 
L 219.865394 53.948654 
L 220.277916 53.9109 
L 220.277916 53.913256 
L 220.690438 54.038751 
L 220.690438 53.807362 
L 221.102959 54.020961 
L 221.102959 53.957081 
L 221.515481 53.673168 
L 221.928003 53.695821 
L 221.928003 54.091305 
L 222.340524 53.642693 
L 222.753046 53.787609 
L 223.165568 55.173736 
L 223.578089 58.460807 
L 223.990611 58.181697 
L 224.815654 62.842118 
L 224.815654 63.027748 
L 225.228176 66.349523 
L 225.640698 67.033057 
L 225.640698 66.629962 
L 226.053219 68.641541 
L 226.878263 73.835446 
L 226.878263 74.173272 
L 227.290784 77.039639 
L 227.703306 76.315028 
L 227.703306 76.393285 
L 228.115828 78.481581 
L 228.528349 81.173342 
L 228.528349 81.013476 
L 228.940871 81.753641 
L 229.765914 85.643935 
L 230.178436 88.29169 
L 230.178436 88.135598 
L 230.590958 87.854857 
L 231.003479 89.703701 
L 231.003479 89.700076 
L 231.416001 92.370755 
L 231.828523 92.349945 
L 231.828523 92.441099 
L 232.241044 93.411928 
L 232.241044 93.30229 
L 232.653566 95.796973 
L 232.653566 95.6941 
L 233.066088 95.870066 
L 233.478609 97.125109 
L 233.478609 97.008917 
L 233.891131 99.012251 
L 234.303653 98.920855 
L 234.303653 99.069728 
L 234.716174 99.883167 
L 234.716174 99.852933 
L 235.128696 101.637353 
L 235.541218 101.736722 
L 235.541218 101.646806 
L 235.953739 102.489754 
L 235.953739 102.015983 
L 236.366261 103.792338 
L 236.366261 103.685448 
L 236.778782 103.724984 
L 236.778782 103.851295 
L 237.191304 104.59433 
L 237.603826 105.438969 
L 237.603826 105.303144 
L 238.016347 105.188583 
L 238.016347 105.21492 
L 238.428869 105.903408 
L 238.841391 106.184904 
L 239.666434 106.913411 
L 240.078956 106.635177 
L 240.078956 106.823405 
L 240.491477 106.955756 
L 240.903999 107.391773 
L 242.554086 107.34529 
L 242.554086 107.64965 
L 242.966607 107.426839 
L 242.966607 107.496156 
L 243.379129 107.631256 
L 243.379129 107.467433 
L 243.791651 107.322637 
L 243.791651 107.558466 
L 244.204172 107.543636 
L 244.204172 107.664329 
L 244.616694 107.648744 
L 244.616694 107.334779 
L 245.029216 107.620685 
L 245.029216 107.592233 
L 245.441737 107.708879 
L 245.441737 107.473836 
L 245.854259 107.592505 
L 246.266781 107.169113 
L 246.266781 107.491928 
L 246.679302 107.547502 
L 246.679302 107.219221 
L 247.091824 107.462147 
L 247.091824 107.403522 
L 247.504346 107.346528 
L 247.504346 107.140027 
L 247.916867 107.314966 
L 247.916867 107.142625 
L 248.329389 106.934191 
L 248.329389 106.733579 
L 248.741911 106.791026 
L 248.741911 106.735301 
L 249.154432 106.534629 
L 249.154432 106.547496 
L 249.566954 106.101029 
L 249.979476 106.311456 
L 249.979476 106.211906 
L 250.391997 105.979913 
L 250.391997 105.691863 
L 250.804519 105.73892 
L 250.804519 105.879064 
L 251.217041 105.61421 
L 251.217041 105.297255 
L 251.629562 104.577416 
L 252.042084 104.889961 
L 252.454606 104.134452 
L 252.867127 104.01089 
L 253.279649 103.450012 
L 253.69217 102.267638 
L 253.69217 102.302493 
L 254.104692 102.44463 
L 254.104692 102.604255 
L 254.517214 101.690964 
L 254.517214 101.983454 
L 254.929735 100.304837 
L 254.929735 100.410881 
L 255.342257 100.769789 
L 255.342257 100.578601 
L 255.754779 99.589257 
L 255.754779 99.597865 
L 256.1673 97.643582 
L 256.579822 98.371938 
L 256.992344 96.61902 
L 257.404865 96.430098 
L 257.404865 96.435263 
L 257.817387 95.407198 
L 257.817387 95.431904 
L 258.229909 92.986513 
L 258.64243 93.422983 
L 258.64243 93.216301 
L 259.054952 91.694289 
L 259.054952 91.790517 
L 259.467474 88.957555 
L 259.467474 89.025603 
L 259.879995 89.298401 
L 260.292517 87.406397 
L 260.705039 83.9285 
L 260.705039 83.979182 
L 261.11756 84.719468 
L 261.11756 84.476089 
L 261.530082 82.26568 
L 261.530082 82.277157 
L 261.942604 78.220382 
L 262.355125 79.112803 
L 262.355125 79.01579 
L 262.767647 76.096657 
L 263.180169 71.826404 
L 263.59269 72.356535 
L 263.59269 72.331043 
L 264.005212 69.649914 
L 264.005212 69.715213 
L 264.417734 64.413784 
L 264.830255 64.568305 
L 264.830255 64.328188 
L 265.242777 61.821211 
L 265.655299 58.721764 
L 265.655299 58.752934 
L 266.892864 53.82189 
L 266.892864 53.898335 
L 267.717907 53.792623 
L 267.717907 53.840979 
L 268.130429 53.88121 
L 268.130429 53.761967 
L 268.54295 54.039717 
L 268.54295 53.985744 
L 268.955472 53.972182 
L 268.955472 53.686488 
L 269.367994 54.106558 
L 269.367994 53.947657 
L 270.605559 53.72388 
L 270.605559 53.975595 
L 271.430602 53.718866 
L 271.430602 54.032348 
L 271.843123 53.95847 
L 271.843123 53.656587 
L 272.668167 53.739525 
L 272.668167 53.68226 
L 273.080688 54.062732 
L 273.080688 53.745687 
L 273.49321 54.134556 
L 273.905732 53.822343 
L 274.318253 53.986469 
L 274.318253 53.716329 
L 274.730775 53.949832 
L 275.143297 53.703402 
L 275.143297 53.883656 
L 275.555818 53.6838 
L 275.96834 53.741005 
L 275.96834 53.888489 
L 276.793383 53.992993 
L 277.205905 53.725088 
L 277.205905 53.948775 
L 277.618427 53.925337 
L 277.618427 53.629947 
L 278.030948 53.796187 
L 278.030948 54.112659 
L 278.44347 53.979945 
L 278.44347 53.858618 
L 278.855992 53.96436 
L 278.855992 53.713852 
L 279.268513 53.83814 
L 279.268513 54.070495 
L 279.681035 53.729015 
L 280.093557 53.898758 
L 280.093557 53.895828 
L 280.506078 53.709473 
L 280.9186 53.876981 
L 280.9186 54.04159 
L 281.331122 54.097074 
L 281.331122 53.845147 
L 282.156165 53.752181 
L 282.156165 53.831072 
L 282.568687 53.859282 
L 282.981208 53.706785 
L 282.981208 53.965236 
L 283.806252 53.803738 
L 283.806252 53.933462 
L 284.631295 53.898879 
L 285.456338 53.762812 
L 285.456338 53.926334 
L 285.86886 53.973934 
L 285.86886 53.8813 
L 286.281382 53.787005 
L 286.281382 53.819051 
L 286.693903 53.938566 
L 286.693903 53.896976 
L 287.106425 53.941647 
L 287.106425 53.658338 
L 287.518947 54.054577 
L 287.518947 53.69715 
L 287.931468 53.921531 
L 287.931468 53.891962 
L 288.756511 53.834213 
L 288.756511 53.861185 
L 289.169033 53.725028 
L 289.169033 53.955601 
L 289.581555 53.911292 
L 289.581555 54.032922 
L 289.994076 53.816635 
L 289.994076 53.601858 
L 290.81912 53.900208 
L 290.81912 53.733334 
L 291.644163 53.931559 
L 291.644163 53.833126 
L 294.944336 53.800476 
L 294.944336 53.943821 
L 295.356858 55.928701 
L 295.76938 53.750761 
L 296.181901 53.867679 
L 296.181901 53.709866 
L 296.594423 53.711678 
L 296.594423 53.91398 
L 297.006945 54.040684 
L 297.006945 53.782173 
L 297.831988 53.890694 
L 297.831988 53.680991 
L 298.24451 53.856352 
L 298.24451 53.581894 
L 298.657031 53.841673 
L 298.657031 53.642149 
L 299.069553 54.666227 
L 299.069553 54.626721 
L 299.482075 54.86255 
L 299.482075 54.793565 
L 300.307118 56.880865 
L 301.132161 59.716907 
L 301.132161 59.499896 
L 301.544683 59.885382 
L 301.544683 59.814283 
L 302.369726 62.084102 
L 302.782248 63.928294 
L 303.19477 64.001507 
L 303.19477 63.949165 
L 303.607291 65.144194 
L 303.607291 65.509203 
L 304.019813 66.801759 
L 304.019813 66.598732 
L 304.844856 70.955155 
L 305.257378 70.524333 
L 305.257378 70.60398 
L 305.6699 72.025837 
L 306.494943 77.264232 
L 306.907464 76.731292 
L 306.907464 76.529019 
L 307.319986 78.235876 
L 307.319986 78.129681 
L 307.732508 81.174611 
L 307.732508 80.908549 
L 308.145029 81.220128 
L 308.145029 81.601144 
L 308.557551 83.082562 
L 308.970073 85.599717 
L 308.970073 85.485971 
L 309.382594 88.804574 
L 309.382594 88.654584 
L 309.795116 88.183259 
L 309.795116 88.254449 
L 310.207638 90.456793 
L 310.620159 94.279401 
L 311.032681 93.719762 
L 311.445203 95.725844 
L 311.857724 99.599949 
L 311.857724 99.385293 
L 312.270246 99.969972 
L 312.270246 99.439871 
L 312.682768 101.740709 
L 312.682768 101.547437 
L 313.095289 106.066597 
L 313.507811 105.925003 
L 313.507811 105.636137 
L 313.920333 108.117441 
L 313.920333 108.111702 
L 314.332854 113.113845 
L 314.332854 113.006683 
L 314.745376 111.876773 
L 314.745376 112.153889 
L 315.157898 115.412357 
L 315.157898 115.274871 
L 315.570419 116.542449 
L 315.570419 116.276327 
L 315.982941 118.542068 
L 316.395463 123.126619 
L 316.807984 122.742582 
L 316.807984 122.410888 
L 317.220506 125.933002 
L 317.633028 126.515747 
L 317.633028 126.354521 
L 318.045549 129.101222 
L 318.045549 128.966605 
L 318.458071 134.070202 
L 318.870593 132.61059 
L 319.283114 137.022317 
L 319.283114 136.73783 
L 319.695636 136.293085 
L 320.108158 140.06489 
L 320.520679 139.888472 
L 320.933201 143.137577 
L 320.933201 143.03401 
L 321.345723 143.230936 
L 321.758244 146.266563 
L 321.758244 146.094645 
L 322.170766 146.451439 
L 322.170766 146.700979 
L 322.583288 149.254469 
L 322.995809 149.737634 
L 322.995809 149.571877 
L 323.408331 152.37829 
L 323.820852 152.53855 
L 323.820852 152.826872 
L 324.233374 155.759475 
L 324.233374 155.616885 
L 324.645896 155.680584 
L 324.645896 155.91759 
L 325.058417 158.669456 
L 325.470939 158.642515 
L 325.470939 158.45036 
L 325.883461 162.215733 
L 326.295982 161.309176 
L 326.295982 161.32162 
L 326.708504 164.811688 
L 326.708504 164.775052 
L 327.121026 163.755112 
L 327.121026 163.837205 
L 327.946069 167.000743 
L 327.946069 166.950968 
L 328.358591 167.635257 
L 328.358591 167.624656 
L 328.771112 170.153983 
L 329.183634 170.337136 
L 329.183634 170.289687 
L 329.596156 173.007664 
L 329.596156 172.868729 
L 330.008677 172.227389 
L 330.008677 172.37605 
L 330.421199 175.90653 
L 330.833721 174.917337 
L 331.246242 175.720809 
L 331.658764 177.826714 
L 332.071286 177.467565 
L 332.071286 177.578986 
L 332.483807 180.232902 
L 332.483807 180.212907 
L 332.896329 179.54668 
L 332.896329 179.566282 
L 333.308851 179.953882 
L 333.308851 180.192248 
L 333.721372 181.906203 
L 333.721372 181.829788 
L 334.133894 181.902155 
L 334.546416 183.786276 
L 334.546416 183.661597 
L 334.958937 183.589803 
L 334.958937 183.316341 
L 335.371459 183.567603 
L 335.371459 183.715359 
L 335.783981 185.188924 
L 335.783981 185.171799 
L 336.196502 184.885259 
L 336.196502 184.64499 
L 336.609024 185.439945 
L 337.021546 186.411046 
L 337.434067 186.446535 
L 337.434067 186.3137 
L 338.671632 187.53703 
L 338.671632 187.334516 
L 339.084154 188.451983 
L 339.496676 188.150885 
L 339.496676 188.237086 
L 339.909197 188.526888 
L 339.909197 188.386774 
L 340.321719 188.930255 
L 340.321719 188.911076 
L 340.73424 189.064841 
L 340.73424 188.890356 
L 341.146762 189.183027 
L 341.146762 189.010928 
L 341.559284 189.485122 
L 341.559284 189.788184 
L 341.971805 189.390012 
L 342.384327 189.611856 
L 342.384327 189.874596 
L 342.796849 190.002205 
L 342.796849 189.865565 
L 343.20937 189.90649 
L 343.20937 190.09052 
L 344.034414 190.247336 
L 344.034414 190.232265 
L 344.446935 190.119002 
L 344.446935 190.189104 
L 344.859457 190.413334 
L 344.859457 190.106951 
L 345.271979 190.424026 
L 345.6845 190.280198 
L 345.6845 190.461479 
L 346.097022 190.673628 
L 346.097022 190.349545 
L 346.509544 190.643636 
L 346.922065 190.321637 
L 346.922065 190.58489 
L 347.334587 190.514335 
L 348.15963 190.309223 
L 348.15963 190.503552 
L 348.572152 190.714433 
L 348.572152 190.395243 
L 348.984674 190.750133 
L 349.397195 190.279624 
L 349.397195 190.40083 
L 349.809717 190.393974 
L 349.809717 190.677252 
L 350.222239 190.478272 
L 350.222239 190.353501 
L 350.63476 190.213357 
L 350.63476 190.359693 
L 351.047282 190.428376 
L 351.459804 190.188893 
L 351.459804 190.652787 
L 351.872325 189.719712 
L 351.872325 190.087077 
L 352.697369 190.153011 
L 353.10989 189.551721 
L 353.10989 189.580626 
L 353.522412 189.854571 
L 353.934934 189.269591 
L 353.934934 189.491042 
L 354.347455 188.618857 
L 354.347455 188.750363 
L 354.759977 188.700678 
L 354.759977 188.985255 
L 355.172499 188.476357 
L 355.58502 187.568533 
L 355.997542 187.720758 
L 355.997542 187.483268 
L 356.410064 185.046757 
L 356.822585 186.066364 
L 356.822585 186.064582 
L 357.235107 186.089742 
L 357.235107 185.853189 
L 357.647629 183.160552 
L 358.06015 183.987039 
L 358.472672 183.73194 
L 358.472672 183.593458 
L 358.885193 180.213118 
L 359.297715 181.248855 
L 359.297715 181.085787 
L 359.710237 180.624791 
L 359.710237 180.718573 
L 360.122758 177.023695 
L 360.122758 177.170031 
L 360.53528 178.403298 
L 360.53528 178.169221 
L 360.947802 176.747757 
L 361.360323 173.325405 
L 361.772845 174.378508 
L 362.185367 172.461979 
L 362.597888 169.359813 
L 363.01041 168.8916 
L 363.422932 162.552773 
L 363.835453 164.780247 
L 363.835453 164.543935 
L 364.247975 162.385778 
L 364.247975 162.411874 
L 364.660497 157.382729 
L 364.660497 157.511607 
L 365.073018 157.15424 
L 365.073018 157.215946 
L 365.48554 153.175118 
L 365.48554 153.561963 
L 366.310583 149.785355 
L 367.548148 144.532523 
L 367.548148 144.640561 
L 367.96067 142.718958 
L 368.373192 148.869556 
L 368.785713 147.114223 
L 368.785713 147.483551 
L 369.610757 151.843327 
L 370.023278 153.019932 
L 370.4358 155.282291 
L 370.848322 156.027078 
L 371.260843 158.02126 
L 371.260843 157.877854 
L 371.673365 158.327221 
L 372.085887 160.432944 
L 372.498408 160.508151 
L 372.498408 160.330404 
L 372.91093 162.001198 
L 373.323452 161.775608 
L 373.323452 161.810856 
L 373.735973 163.048683 
L 373.735973 162.973718 
L 374.148495 162.690199 
L 374.148495 163.138055 
L 374.561017 164.128819 
L 374.561017 163.762934 
L 374.973538 163.676492 
L 375.38606 164.019935 
L 375.38606 163.696517 
L 375.798581 164.275789 
L 375.798581 164.181131 
L 376.211103 164.208435 
L 376.211103 164.410194 
L 376.623625 164.930056 
L 376.623625 164.69314 
L 377.036146 164.488179 
L 377.448668 164.495489 
L 377.448668 164.488693 
L 377.86119 164.828542 
L 377.86119 164.753275 
L 378.273711 164.617873 
L 378.273711 164.704043 
L 378.686233 164.876475 
L 378.686233 164.771608 
L 379.098755 164.705916 
L 379.098755 164.805678 
L 379.511276 164.725458 
L 379.923798 164.852252 
L 379.923798 164.54019 
L 380.748841 164.838811 
L 380.748841 164.970257 
L 381.161363 164.631314 
L 381.573885 164.655114 
L 381.573885 164.867897 
L 381.986406 164.261956 
L 381.986406 164.322453 
L 382.398928 164.71389 
L 382.81145 164.060468 
L 382.81145 164.351992 
L 383.223971 163.873298 
L 383.223971 163.937329 
L 383.636493 163.977469 
L 383.636493 163.890695 
L 384.049015 163.36144 
L 384.049015 163.564135 
L 384.461536 163.908696 
L 384.461536 163.629556 
L 384.874058 162.142218 
L 385.28658 162.851545 
L 385.28658 162.767187 
L 385.699101 162.433862 
L 385.699101 162.261551 
L 386.111623 161.869178 
L 386.111623 161.648361 
L 386.524145 161.84568 
L 386.936666 160.112123 
L 386.936666 160.24375 
L 387.349188 160.732532 
L 387.349188 161.153538 
L 387.76171 160.362057 
L 387.76171 160.405399 
L 388.174231 159.310464 
L 388.174231 159.514639 
L 388.586753 159.109943 
L 388.586753 158.953942 
L 388.999275 157.786368 
L 388.999275 157.35612 
L 389.411796 158.071367 
L 389.411796 158.001779 
L 389.824318 155.354568 
L 390.23684 156.533378 
L 390.23684 156.382602 
L 390.649361 155.485741 
L 391.474405 153.532424 
L 391.474405 153.6401 
L 391.886926 151.890414 
L 392.299448 152.06055 
L 392.299448 151.739065 
L 392.71197 149.15661 
L 392.71197 149.428048 
L 393.124491 149.531284 
L 393.124491 149.475226 
L 393.537013 146.57038 
L 393.949534 147.12274 
L 394.362056 143.520436 
L 394.362056 143.658798 
L 394.774578 144.620748 
L 396.012143 140.694511 
L 396.012143 140.901073 
L 396.424664 137.655562 
L 396.424664 137.852579 
L 396.837186 138.080192 
L 396.837186 138.039961 
L 397.249708 133.426053 
L 397.249708 133.661428 
L 397.662229 135.305523 
L 397.662229 135.082319 
L 398.074751 133.502015 
L 398.487273 130.603662 
L 398.487273 130.76223 
" clip-path="url(#p7a15713cd5)" style="fill: none; stroke: #ff7f0e; stroke-width: 1.5; stroke-linecap: square"/>
   </g>
   <g id="patch_3">
    <path d="M 57.6 307.584 
L 57.6 41.472 
" style="fill: none; stroke: #000000; stroke-width: 0.8; stroke-linejoin: miter; stroke-linecap: square"/>
   </g>
   <g id="patch_4">
    <path d="M 414.72 307.584 
L 414.72 41.472 
" style="fill: none; stroke: #000000; stroke-width: 0.8; stroke-linejoin: miter; stroke-linecap: square"/>
   </g>
   <g id="patch_5">
    <path d="M 57.6 307.584 
L 414.72 307.584 
" style="fill: none; stroke: #000000; stroke-width: 0.8; stroke-linejoin: miter; stroke-linecap: square"/>
   </g>
   <g id="patch_6">
    <path d="M 57.6 41.472 
L 414.72 41.472 
" style="fill: none; stroke: #000000; stroke-width: 0.8; stroke-linejoin: miter; stroke-linecap: square"/>
   </g>
   <g id="text_21">
    <!-- Actual speed vs Expected speed -->
    <g transform="translate(138.808125 35.472) scale(0.12 -0.12)">
     <defs>
      <path id="DejaVuSans-41" d="M 2188 4044 
L 1331 1722 
L 3047 1722 
L 2188 4044 
z
M 1831 4666 
L 2547 4666 
L 4325 0 
L 3669 0 
L 3244 1197 
L 1141 1197 
L 716 0 
L 50 0 
L 1831 4666 
z
" transform="scale(0.015625)"/>
      <path id="DejaVuSans-75" d="M 544 1381 
L 544 3500 
L 1119 3500 
L 1119 1403 
Q 1119 906 1312 657 
Q 1506 409 1894 409 
Q 2359 409 2629 706 
Q 2900 1003 2900 1516 
L 2900 3500 
L 3475 3500 
L 3475 0 
L 2900 0 
L 2900 538 
Q 2691 219 2414 64 
Q 2138 -91 1772 -91 
Q 1169 -91 856 284 
Q 544 659 544 1381 
z
M 1991 3584 
L 1991 3584 
z
" transform="scale(0.015625)"/>
      <path id="DejaVuSans-61" d="M 2194 1759 
Q 1497 1759 1228 1600 
Q 959 1441 959 1056 
Q 959 750 1161 570 
Q 1363 391 1709 391 
Q 2188 391 2477 730 
Q 2766 1069 2766 1631 
L 2766 1759 
L 2194 1759 
z
M 3341 1997 
L 3341 0 
L 2766 0 
L 2766 531 
Q 2569 213 2275 61 
Q 1981 -91 1556 -91 
Q 1019 -91 701 211 
Q 384 513 384 1019 
Q 384 1609 779 1909 
Q 1175 2209 1959 2209 
L 2766 2209 
L 2766 2266 
Q 2766 2663 2505 2880 
Q 2244 3097 1772 3097 
Q 1472 3097 1187 3025 
Q 903 2953 641 2809 
L 641 3341 
Q 956 3463 1253 3523 
Q 1550 3584 1831 3584 
Q 2591 3584 2966 3190 
Q 3341 2797 3341 1997 
z
" transform="scale(0.015625)"/>
      <path id="DejaVuSans-20" transform="scale(0.015625)"/>
      <path id="DejaVuSans-70" d="M 1159 525 
L 1159 -1331 
L 581 -1331 
L 581 3500 
L 1159 3500 
L 1159 2969 
Q 1341 3281 1617 3432 
Q 1894 3584 2278 3584 
Q 2916 3584 3314 3078 
Q 3713 2572 3713 1747 
Q 3713 922 3314 415 
Q 2916 -91 2278 -91 
Q 1894 -91 1617 61 
Q 1341 213 1159 525 
z
M 3116 1747 
Q 3116 2381 2855 2742 
Q 2594 3103 2138 3103 
Q 1681 3103 1420 2742 
Q 1159 2381 1159 1747 
Q 1159 1113 1420 752 
Q 1681 391 2138 391 
Q 2594 391 2855 752 
Q 3116 1113 3116 1747 
z
" transform="scale(0.015625)"/>
      <path id="DejaVuSans-64" d="M 2906 2969 
L 2906 4863 
L 3481 4863 
L 3481 0 
L 2906 0 
L 2906 525 
Q 2725 213 2448 61 
Q 2172 -91 1784 -91 
Q 1150 -91 751 415 
Q 353 922 353 1747 
Q 353 2572 751 3078 
Q 1150 3584 1784 3584 
Q 2172 3584 2448 3432 
Q 2725 3281 2906 2969 
z
M 947 1747 
Q 947 1113 1208 752 
Q 1469 391 1925 391 
Q 2381 391 2643 752 
Q 2906 1113 2906 1747 
Q 2906 2381 2643 2742 
Q 2381 3103 1925 3103 
Q 1469 3103 1208 2742 
Q 947 2381 947 1747 
z
" transform="scale(0.015625)"/>
      <path id="DejaVuSans-76" d="M 191 3500 
L 800 3500 
L 1894 563 
L 2988 3500 
L 3597 3500 
L 2284 0 
L 1503 0 
L 191 3500 
z
" transform="scale(0.015625)"/>
      <path id="DejaVuSans-45" d="M 628 4666 
L 3578 4666 
L 3578 4134 
L 1259 4134 
L 1259 2753 
L 3481 2753 
L 3481 2222 
L 1259 2222 
L 1259 531 
L 3634 531 
L 3634 0 
L 628 0 
L 628 4666 
z
" transform="scale(0.015625)"/>
      <path id="DejaVuSans-78" d="M 3513 3500 
L 2247 1797 
L 3578 0 
L 2900 0 
L 1881 1375 
L 863 0 
L 184 0 
L 1544 1831 
L 300 3500 
L 978 3500 
L 1906 2253 
L 2834 3500 
L 3513 3500 
z
" transform="scale(0.015625)"/>
     </defs>
     <use xlink:href="#DejaVuSans-41"/>
     <use xlink:href="#DejaVuSans-63" x="66.658203"/>
     <use xlink:href="#DejaVuSans-74" x="121.638672"/>
     <use xlink:href="#DejaVuSans-75" x="160.847656"/>
     <use xlink:href="#DejaVuSans-61" x="224.226562"/>
     <use xlink:href="#DejaVuSans-6c" x="285.505859"/>
     <use xlink:href="#DejaVuSans-20" x="313.289062"/>
     <use xlink:href="#DejaVuSans-73" x="345.076172"/>
     <use xlink:href="#DejaVuSans-70" x="397.175781"/>
     <use xlink:href="#DejaVuSans-65" x="460.652344"/>
     <use xlink:href="#DejaVuSans-65" x="522.175781"/>
     <use xlink:href="#DejaVuSans-64" x="583.699219"/>
     <use xlink:href="#DejaVuSans-20" x="647.175781"/>
     <use xlink:href="#DejaVuSans-76" x="678.962891"/>
     <use xlink:href="#DejaVuSans-73" x="738.142578"/>
     <use xlink:href="#DejaVuSans-20" x="790.242188"/>
     <use xlink:href="#DejaVuSans-45" x="822.029297"/>
     <use xlink:href="#DejaVuSans-78" x="885.212891"/>
     <use xlink:href="#DejaVuSans-70" x="944.392578"/>
     <use xlink:href="#DejaVuSans-65" x="1007.869141"/>
     <use xlink:href="#DejaVuSans-63" x="1069.392578"/>
     <use xlink:href="#DejaVuSans-74" x="1124.373047"/>
     <use xlink:href="#DejaVuSans-65" x="1163.582031"/>
     <use xlink:href="#DejaVuSans-64" x="1225.105469"/>
     <use xlink:href="#DejaVuSans-20" x="1288.582031"/>
     <use xlink:href="#DejaVuSans-73" x="1320.369141"/>
     <use xlink:href="#DejaVuSans-70" x="1372.46875"/>
     <use xlink:href="#DejaVuSans-65" x="1435.945312"/>
     <use xlink:href="#DejaVuSans-65" x="1497.46875"/>
     <use xlink:href="#DejaVuSans-64" x="1558.992188"/>
    </g>
   </g>
   <g id="legend_1">
    <g id="patch_7">
     <path d="M 295.67 302.584 
L 407.72 302.584 
Q 409.72 302.584 409.72 300.584 
L 409.72 272.22775 
Q 409.72 270.22775 407.72 270.22775 
L 295.67 270.22775 
Q 293.67 270.22775 293.67 272.22775 
L 293.67 300.584 
Q 293.67 302.584 295.67 302.584 
z
" style="fill: #ffffff; opacity: 0.8; stroke: #cccccc; stroke-linejoin: miter"/>
    </g>
    <g id="line2d_39">
     <path d="M 297.67 278.326187 
L 307.67 278.326187 
L 317.67 278.326187 
" style="fill: none; stroke: #1f77b4; stroke-width: 1.5; stroke-linecap: square"/>
    </g>
    <g id="text_22">
     <!-- Actual speed -->
     <g transform="translate(325.67 281.826187) scale(0.1 -0.1)">
      <use xlink:href="#DejaVuSans-41"/>
      <use xlink:href="#DejaVuSans-63" x="66.658203"/>
      <use xlink:href="#DejaVuSans-74" x="121.638672"/>
      <use xlink:href="#DejaVuSans-75" x="160.847656"/>
      <use xlink:href="#DejaVuSans-61" x="224.226562"/>
      <use xlink:href="#DejaVuSans-6c" x="285.505859"/>
      <use xlink:href="#DejaVuSans-20" x="313.289062"/>
      <use xlink:href="#DejaVuSans-73" x="345.076172"/>
      <use xlink:href="#DejaVuSans-70" x="397.175781"/>
      <use xlink:href="#DejaVuSans-65" x="460.652344"/>
      <use xlink:href="#DejaVuSans-65" x="522.175781"/>
      <use xlink:href="#DejaVuSans-64" x="583.699219"/>
     </g>
    </g>
    <g id="line2d_40">
     <path d="M 297.67 293.004312 
L 307.67 293.004312 
L 317.67 293.004312 
" style="fill: none; stroke: #ff7f0e; stroke-width: 1.5; stroke-linecap: square"/>
    </g>
    <g id="text_23">
     <!-- Expected speed -->
     <g transform="translate(325.67 296.504312) scale(0.1 -0.1)">
      <use xlink:href="#DejaVuSans-45"/>
      <use xlink:href="#DejaVuSans-78" x="63.183594"/>
      <use xlink:href="#DejaVuSans-70" x="122.363281"/>
      <use xlink:href="#DejaVuSans-65" x="185.839844"/>
      <use xlink:href="#DejaVuSans-63" x="247.363281"/>
      <use xlink:href="#DejaVuSans-74" x="302.34375"/>
      <use xlink:href="#DejaVuSans-65" x="341.552734"/>
      <use xlink:href="#DejaVuSans-64" x="403.076172"/>
      <use xlink:href="#DejaVuSans-20" x="466.552734"/>
      <use xlink:href="#DejaVuSans-73" x="498.339844"/>
      <use xlink:href="#DejaVuSans-70" x="550.439453"/>
      <use xlink:href="#DejaVuSans-65" x="613.916016"/>
      <use xlink:href="#DejaVuSans-65" x="675.439453"/>
      <use xlink:href="#DejaVuSans-64" x="736.962891"/>
     </g>
    </g>
   </g>
  </g>
 </g>
 <defs>
  <clipPath id="p7a15713cd5">
   <rect x="57.6" y="41.472" width="357.12" height="266.112"/>
  </clipPath>
 </defs>
</svg>
