<?xml version="1.0" encoding="utf-8" standalone="no"?>
<!DOCTYPE svg PUBLIC "-//W3C//DTD SVG 1.1//EN"
  "http://www.w3.org/Graphics/SVG/1.1/DTD/svg11.dtd">
<svg xmlns:xlink="http://www.w3.org/1999/xlink" width="460.8pt" height="345.6pt" viewBox="0 0 460.8 345.6" xmlns="http://www.w3.org/2000/svg" version="1.1">
 <metadata>
  <rdf:RDF xmlns:dc="http://purl.org/dc/elements/1.1/" xmlns:cc="http://creativecommons.org/ns#" xmlns:rdf="http://www.w3.org/1999/02/22-rdf-syntax-ns#">
   <cc:Work>
    <dc:type rdf:resource="http://purl.org/dc/dcmitype/StillImage"/>
    <dc:date>2024-01-30T20:58:23.416433</dc:date>
    <dc:format>image/svg+xml</dc:format>
    <dc:creator>
     <cc:Agent>
      <dc:title>Matplotlib v3.7.1, https://matplotlib.org/</dc:title>
     </cc:Agent>
    </dc:creator>
   </cc:Work>
  </rdf:RDF>
 </metadata>
 <defs>
  <style type="text/css">*{stroke-linejoin: round; stroke-linecap: butt}</style>
 </defs>
 <g id="figure_1">
  <g id="patch_1">
   <path d="M 0 345.6 
L 460.8 345.6 
L 460.8 0 
L 0 0 
z
" style="fill: #ffffff"/>
  </g>
  <g id="axes_1">
   <g id="patch_2">
    <path d="M 57.6 307.584 
L 414.72 307.584 
L 414.72 41.472 
L 57.6 41.472 
z
" style="fill: #ffffff"/>
   </g>
   <g id="matplotlib.axis_1">
    <g id="xtick_1">
     <g id="line2d_1">
      <path d="M 73.832727 307.584 
L 73.832727 41.472 
" clip-path="url(#p512008e463)" style="fill: none; stroke: #b0b0b0; stroke-width: 0.8; stroke-linecap: square"/>
     </g>
     <g id="line2d_2">
      <defs>
       <path id="m8e246dff24" d="M 0 0 
L 0 3.5 
" style="stroke: #000000; stroke-width: 0.8"/>
      </defs>
      <g>
       <use xlink:href="#m8e246dff24" x="73.832727" y="307.584" style="stroke: #000000; stroke-width: 0.8"/>
      </g>
     </g>
     <g id="text_1">
      <!-- 0 -->
      <g transform="translate(70.651477 322.182437) scale(0.1 -0.1)">
       <defs>
        <path id="DejaVuSans-30" d="M 2034 4250 
Q 1547 4250 1301 3770 
Q 1056 3291 1056 2328 
Q 1056 1369 1301 889 
Q 1547 409 2034 409 
Q 2525 409 2770 889 
Q 3016 1369 3016 2328 
Q 3016 3291 2770 3770 
Q 2525 4250 2034 4250 
z
M 2034 4750 
Q 2819 4750 3233 4129 
Q 3647 3509 3647 2328 
Q 3647 1150 3233 529 
Q 2819 -91 2034 -91 
Q 1250 -91 836 529 
Q 422 1150 422 2328 
Q 422 3509 836 4129 
Q 1250 4750 2034 4750 
z
" transform="scale(0.015625)"/>
       </defs>
       <use xlink:href="#DejaVuSans-30"/>
      </g>
     </g>
    </g>
    <g id="xtick_2">
     <g id="line2d_3">
      <path d="M 143.144116 307.584 
L 143.144116 41.472 
" clip-path="url(#p512008e463)" style="fill: none; stroke: #b0b0b0; stroke-width: 0.8; stroke-linecap: square"/>
     </g>
     <g id="line2d_4">
      <g>
       <use xlink:href="#m8e246dff24" x="143.144116" y="307.584" style="stroke: #000000; stroke-width: 0.8"/>
      </g>
     </g>
     <g id="text_2">
      <!-- 5 -->
      <g transform="translate(139.962866 322.182437) scale(0.1 -0.1)">
       <defs>
        <path id="DejaVuSans-35" d="M 691 4666 
L 3169 4666 
L 3169 4134 
L 1269 4134 
L 1269 2991 
Q 1406 3038 1543 3061 
Q 1681 3084 1819 3084 
Q 2600 3084 3056 2656 
Q 3513 2228 3513 1497 
Q 3513 744 3044 326 
Q 2575 -91 1722 -91 
Q 1428 -91 1123 -41 
Q 819 9 494 109 
L 494 744 
Q 775 591 1075 516 
Q 1375 441 1709 441 
Q 2250 441 2565 725 
Q 2881 1009 2881 1497 
Q 2881 1984 2565 2268 
Q 2250 2553 1709 2553 
Q 1456 2553 1204 2497 
Q 953 2441 691 2322 
L 691 4666 
z
" transform="scale(0.015625)"/>
       </defs>
       <use xlink:href="#DejaVuSans-35"/>
      </g>
     </g>
    </g>
    <g id="xtick_3">
     <g id="line2d_5">
      <path d="M 212.455505 307.584 
L 212.455505 41.472 
" clip-path="url(#p512008e463)" style="fill: none; stroke: #b0b0b0; stroke-width: 0.8; stroke-linecap: square"/>
     </g>
     <g id="line2d_6">
      <g>
       <use xlink:href="#m8e246dff24" x="212.455505" y="307.584" style="stroke: #000000; stroke-width: 0.8"/>
      </g>
     </g>
     <g id="text_3">
      <!-- 10 -->
      <g transform="translate(206.093005 322.182437) scale(0.1 -0.1)">
       <defs>
        <path id="DejaVuSans-31" d="M 794 531 
L 1825 531 
L 1825 4091 
L 703 3866 
L 703 4441 
L 1819 4666 
L 2450 4666 
L 2450 531 
L 3481 531 
L 3481 0 
L 794 0 
L 794 531 
z
" transform="scale(0.015625)"/>
       </defs>
       <use xlink:href="#DejaVuSans-31"/>
       <use xlink:href="#DejaVuSans-30" x="63.623047"/>
      </g>
     </g>
    </g>
    <g id="xtick_4">
     <g id="line2d_7">
      <path d="M 281.766894 307.584 
L 281.766894 41.472 
" clip-path="url(#p512008e463)" style="fill: none; stroke: #b0b0b0; stroke-width: 0.8; stroke-linecap: square"/>
     </g>
     <g id="line2d_8">
      <g>
       <use xlink:href="#m8e246dff24" x="281.766894" y="307.584" style="stroke: #000000; stroke-width: 0.8"/>
      </g>
     </g>
     <g id="text_4">
      <!-- 15 -->
      <g transform="translate(275.404394 322.182437) scale(0.1 -0.1)">
       <use xlink:href="#DejaVuSans-31"/>
       <use xlink:href="#DejaVuSans-35" x="63.623047"/>
      </g>
     </g>
    </g>
    <g id="xtick_5">
     <g id="line2d_9">
      <path d="M 351.078283 307.584 
L 351.078283 41.472 
" clip-path="url(#p512008e463)" style="fill: none; stroke: #b0b0b0; stroke-width: 0.8; stroke-linecap: square"/>
     </g>
     <g id="line2d_10">
      <g>
       <use xlink:href="#m8e246dff24" x="351.078283" y="307.584" style="stroke: #000000; stroke-width: 0.8"/>
      </g>
     </g>
     <g id="text_5">
      <!-- 20 -->
      <g transform="translate(344.715783 322.182437) scale(0.1 -0.1)">
       <defs>
        <path id="DejaVuSans-32" d="M 1228 531 
L 3431 531 
L 3431 0 
L 469 0 
L 469 531 
Q 828 903 1448 1529 
Q 2069 2156 2228 2338 
Q 2531 2678 2651 2914 
Q 2772 3150 2772 3378 
Q 2772 3750 2511 3984 
Q 2250 4219 1831 4219 
Q 1534 4219 1204 4116 
Q 875 4013 500 3803 
L 500 4441 
Q 881 4594 1212 4672 
Q 1544 4750 1819 4750 
Q 2544 4750 2975 4387 
Q 3406 4025 3406 3419 
Q 3406 3131 3298 2873 
Q 3191 2616 2906 2266 
Q 2828 2175 2409 1742 
Q 1991 1309 1228 531 
z
" transform="scale(0.015625)"/>
       </defs>
       <use xlink:href="#DejaVuSans-32"/>
       <use xlink:href="#DejaVuSans-30" x="63.623047"/>
      </g>
     </g>
    </g>
    <g id="text_6">
     <!-- Time(s) -->
     <g transform="translate(217.420156 335.860562) scale(0.1 -0.1)">
      <defs>
       <path id="DejaVuSans-54" d="M -19 4666 
L 3928 4666 
L 3928 4134 
L 2272 4134 
L 2272 0 
L 1638 0 
L 1638 4134 
L -19 4134 
L -19 4666 
z
" transform="scale(0.015625)"/>
       <path id="DejaVuSans-69" d="M 603 3500 
L 1178 3500 
L 1178 0 
L 603 0 
L 603 3500 
z
M 603 4863 
L 1178 4863 
L 1178 4134 
L 603 4134 
L 603 4863 
z
" transform="scale(0.015625)"/>
       <path id="DejaVuSans-6d" d="M 3328 2828 
Q 3544 3216 3844 3400 
Q 4144 3584 4550 3584 
Q 5097 3584 5394 3201 
Q 5691 2819 5691 2113 
L 5691 0 
L 5113 0 
L 5113 2094 
Q 5113 2597 4934 2840 
Q 4756 3084 4391 3084 
Q 3944 3084 3684 2787 
Q 3425 2491 3425 1978 
L 3425 0 
L 2847 0 
L 2847 2094 
Q 2847 2600 2669 2842 
Q 2491 3084 2119 3084 
Q 1678 3084 1418 2786 
Q 1159 2488 1159 1978 
L 1159 0 
L 581 0 
L 581 3500 
L 1159 3500 
L 1159 2956 
Q 1356 3278 1631 3431 
Q 1906 3584 2284 3584 
Q 2666 3584 2933 3390 
Q 3200 3197 3328 2828 
z
" transform="scale(0.015625)"/>
       <path id="DejaVuSans-65" d="M 3597 1894 
L 3597 1613 
L 953 1613 
Q 991 1019 1311 708 
Q 1631 397 2203 397 
Q 2534 397 2845 478 
Q 3156 559 3463 722 
L 3463 178 
Q 3153 47 2828 -22 
Q 2503 -91 2169 -91 
Q 1331 -91 842 396 
Q 353 884 353 1716 
Q 353 2575 817 3079 
Q 1281 3584 2069 3584 
Q 2775 3584 3186 3129 
Q 3597 2675 3597 1894 
z
M 3022 2063 
Q 3016 2534 2758 2815 
Q 2500 3097 2075 3097 
Q 1594 3097 1305 2825 
Q 1016 2553 972 2059 
L 3022 2063 
z
" transform="scale(0.015625)"/>
       <path id="DejaVuSans-28" d="M 1984 4856 
Q 1566 4138 1362 3434 
Q 1159 2731 1159 2009 
Q 1159 1288 1364 580 
Q 1569 -128 1984 -844 
L 1484 -844 
Q 1016 -109 783 600 
Q 550 1309 550 2009 
Q 550 2706 781 3412 
Q 1013 4119 1484 4856 
L 1984 4856 
z
" transform="scale(0.015625)"/>
       <path id="DejaVuSans-73" d="M 2834 3397 
L 2834 2853 
Q 2591 2978 2328 3040 
Q 2066 3103 1784 3103 
Q 1356 3103 1142 2972 
Q 928 2841 928 2578 
Q 928 2378 1081 2264 
Q 1234 2150 1697 2047 
L 1894 2003 
Q 2506 1872 2764 1633 
Q 3022 1394 3022 966 
Q 3022 478 2636 193 
Q 2250 -91 1575 -91 
Q 1294 -91 989 -36 
Q 684 19 347 128 
L 347 722 
Q 666 556 975 473 
Q 1284 391 1588 391 
Q 1994 391 2212 530 
Q 2431 669 2431 922 
Q 2431 1156 2273 1281 
Q 2116 1406 1581 1522 
L 1381 1569 
Q 847 1681 609 1914 
Q 372 2147 372 2553 
Q 372 3047 722 3315 
Q 1072 3584 1716 3584 
Q 2034 3584 2315 3537 
Q 2597 3491 2834 3397 
z
" transform="scale(0.015625)"/>
       <path id="DejaVuSans-29" d="M 513 4856 
L 1013 4856 
Q 1481 4119 1714 3412 
Q 1947 2706 1947 2009 
Q 1947 1309 1714 600 
Q 1481 -109 1013 -844 
L 513 -844 
Q 928 -128 1133 580 
Q 1338 1288 1338 2009 
Q 1338 2731 1133 3434 
Q 928 4138 513 4856 
z
" transform="scale(0.015625)"/>
      </defs>
      <use xlink:href="#DejaVuSans-54"/>
      <use xlink:href="#DejaVuSans-69" x="57.958984"/>
      <use xlink:href="#DejaVuSans-6d" x="85.742188"/>
      <use xlink:href="#DejaVuSans-65" x="183.154297"/>
      <use xlink:href="#DejaVuSans-28" x="244.677734"/>
      <use xlink:href="#DejaVuSans-73" x="283.691406"/>
      <use xlink:href="#DejaVuSans-29" x="335.791016"/>
     </g>
    </g>
   </g>
   <g id="matplotlib.axis_2">
    <g id="ytick_1">
     <g id="line2d_11">
      <path d="M 57.6 295.488 
L 414.72 295.488 
" clip-path="url(#p512008e463)" style="fill: none; stroke: #b0b0b0; stroke-width: 0.8; stroke-linecap: square"/>
     </g>
     <g id="line2d_12">
      <defs>
       <path id="mb9c615172e" d="M 0 0 
L -3.5 0 
" style="stroke: #000000; stroke-width: 0.8"/>
      </defs>
      <g>
       <use xlink:href="#mb9c615172e" x="57.6" y="295.488" style="stroke: #000000; stroke-width: 0.8"/>
      </g>
     </g>
     <g id="text_7">
      <!-- 0 -->
      <g transform="translate(44.2375 299.287219) scale(0.1 -0.1)">
       <use xlink:href="#DejaVuSans-30"/>
      </g>
     </g>
    </g>
    <g id="ytick_2">
     <g id="line2d_13">
      <path d="M 57.6 265.333631 
L 414.72 265.333631 
" clip-path="url(#p512008e463)" style="fill: none; stroke: #b0b0b0; stroke-width: 0.8; stroke-linecap: square"/>
     </g>
     <g id="line2d_14">
      <g>
       <use xlink:href="#mb9c615172e" x="57.6" y="265.333631" style="stroke: #000000; stroke-width: 0.8"/>
      </g>
     </g>
     <g id="text_8">
      <!-- 1 -->
      <g transform="translate(44.2375 269.13285) scale(0.1 -0.1)">
       <use xlink:href="#DejaVuSans-31"/>
      </g>
     </g>
    </g>
    <g id="ytick_3">
     <g id="line2d_15">
      <path d="M 57.6 235.179262 
L 414.72 235.179262 
" clip-path="url(#p512008e463)" style="fill: none; stroke: #b0b0b0; stroke-width: 0.8; stroke-linecap: square"/>
     </g>
     <g id="line2d_16">
      <g>
       <use xlink:href="#mb9c615172e" x="57.6" y="235.179262" style="stroke: #000000; stroke-width: 0.8"/>
      </g>
     </g>
     <g id="text_9">
      <!-- 2 -->
      <g transform="translate(44.2375 238.97848) scale(0.1 -0.1)">
       <use xlink:href="#DejaVuSans-32"/>
      </g>
     </g>
    </g>
    <g id="ytick_4">
     <g id="line2d_17">
      <path d="M 57.6 205.024893 
L 414.72 205.024893 
" clip-path="url(#p512008e463)" style="fill: none; stroke: #b0b0b0; stroke-width: 0.8; stroke-linecap: square"/>
     </g>
     <g id="line2d_18">
      <g>
       <use xlink:href="#mb9c615172e" x="57.6" y="205.024893" style="stroke: #000000; stroke-width: 0.8"/>
      </g>
     </g>
     <g id="text_10">
      <!-- 3 -->
      <g transform="translate(44.2375 208.824111) scale(0.1 -0.1)">
       <defs>
        <path id="DejaVuSans-33" d="M 2597 2516 
Q 3050 2419 3304 2112 
Q 3559 1806 3559 1356 
Q 3559 666 3084 287 
Q 2609 -91 1734 -91 
Q 1441 -91 1130 -33 
Q 819 25 488 141 
L 488 750 
Q 750 597 1062 519 
Q 1375 441 1716 441 
Q 2309 441 2620 675 
Q 2931 909 2931 1356 
Q 2931 1769 2642 2001 
Q 2353 2234 1838 2234 
L 1294 2234 
L 1294 2753 
L 1863 2753 
Q 2328 2753 2575 2939 
Q 2822 3125 2822 3475 
Q 2822 3834 2567 4026 
Q 2313 4219 1838 4219 
Q 1578 4219 1281 4162 
Q 984 4106 628 3988 
L 628 4550 
Q 988 4650 1302 4700 
Q 1616 4750 1894 4750 
Q 2613 4750 3031 4423 
Q 3450 4097 3450 3541 
Q 3450 3153 3228 2886 
Q 3006 2619 2597 2516 
z
" transform="scale(0.015625)"/>
       </defs>
       <use xlink:href="#DejaVuSans-33"/>
      </g>
     </g>
    </g>
    <g id="ytick_5">
     <g id="line2d_19">
      <path d="M 57.6 174.870523 
L 414.72 174.870523 
" clip-path="url(#p512008e463)" style="fill: none; stroke: #b0b0b0; stroke-width: 0.8; stroke-linecap: square"/>
     </g>
     <g id="line2d_20">
      <g>
       <use xlink:href="#mb9c615172e" x="57.6" y="174.870523" style="stroke: #000000; stroke-width: 0.8"/>
      </g>
     </g>
     <g id="text_11">
      <!-- 4 -->
      <g transform="translate(44.2375 178.669742) scale(0.1 -0.1)">
       <defs>
        <path id="DejaVuSans-34" d="M 2419 4116 
L 825 1625 
L 2419 1625 
L 2419 4116 
z
M 2253 4666 
L 3047 4666 
L 3047 1625 
L 3713 1625 
L 3713 1100 
L 3047 1100 
L 3047 0 
L 2419 0 
L 2419 1100 
L 313 1100 
L 313 1709 
L 2253 4666 
z
" transform="scale(0.015625)"/>
       </defs>
       <use xlink:href="#DejaVuSans-34"/>
      </g>
     </g>
    </g>
    <g id="ytick_6">
     <g id="line2d_21">
      <path d="M 57.6 144.716154 
L 414.72 144.716154 
" clip-path="url(#p512008e463)" style="fill: none; stroke: #b0b0b0; stroke-width: 0.8; stroke-linecap: square"/>
     </g>
     <g id="line2d_22">
      <g>
       <use xlink:href="#mb9c615172e" x="57.6" y="144.716154" style="stroke: #000000; stroke-width: 0.8"/>
      </g>
     </g>
     <g id="text_12">
      <!-- 5 -->
      <g transform="translate(44.2375 148.515373) scale(0.1 -0.1)">
       <use xlink:href="#DejaVuSans-35"/>
      </g>
     </g>
    </g>
    <g id="ytick_7">
     <g id="line2d_23">
      <path d="M 57.6 114.561785 
L 414.72 114.561785 
" clip-path="url(#p512008e463)" style="fill: none; stroke: #b0b0b0; stroke-width: 0.8; stroke-linecap: square"/>
     </g>
     <g id="line2d_24">
      <g>
       <use xlink:href="#mb9c615172e" x="57.6" y="114.561785" style="stroke: #000000; stroke-width: 0.8"/>
      </g>
     </g>
     <g id="text_13">
      <!-- 6 -->
      <g transform="translate(44.2375 118.361004) scale(0.1 -0.1)">
       <defs>
        <path id="DejaVuSans-36" d="M 2113 2584 
Q 1688 2584 1439 2293 
Q 1191 2003 1191 1497 
Q 1191 994 1439 701 
Q 1688 409 2113 409 
Q 2538 409 2786 701 
Q 3034 994 3034 1497 
Q 3034 2003 2786 2293 
Q 2538 2584 2113 2584 
z
M 3366 4563 
L 3366 3988 
Q 3128 4100 2886 4159 
Q 2644 4219 2406 4219 
Q 1781 4219 1451 3797 
Q 1122 3375 1075 2522 
Q 1259 2794 1537 2939 
Q 1816 3084 2150 3084 
Q 2853 3084 3261 2657 
Q 3669 2231 3669 1497 
Q 3669 778 3244 343 
Q 2819 -91 2113 -91 
Q 1303 -91 875 529 
Q 447 1150 447 2328 
Q 447 3434 972 4092 
Q 1497 4750 2381 4750 
Q 2619 4750 2861 4703 
Q 3103 4656 3366 4563 
z
" transform="scale(0.015625)"/>
       </defs>
       <use xlink:href="#DejaVuSans-36"/>
      </g>
     </g>
    </g>
    <g id="ytick_8">
     <g id="line2d_25">
      <path d="M 57.6 84.407416 
L 414.72 84.407416 
" clip-path="url(#p512008e463)" style="fill: none; stroke: #b0b0b0; stroke-width: 0.8; stroke-linecap: square"/>
     </g>
     <g id="line2d_26">
      <g>
       <use xlink:href="#mb9c615172e" x="57.6" y="84.407416" style="stroke: #000000; stroke-width: 0.8"/>
      </g>
     </g>
     <g id="text_14">
      <!-- 7 -->
      <g transform="translate(44.2375 88.206635) scale(0.1 -0.1)">
       <defs>
        <path id="DejaVuSans-37" d="M 525 4666 
L 3525 4666 
L 3525 4397 
L 1831 0 
L 1172 0 
L 2766 4134 
L 525 4134 
L 525 4666 
z
" transform="scale(0.015625)"/>
       </defs>
       <use xlink:href="#DejaVuSans-37"/>
      </g>
     </g>
    </g>
    <g id="ytick_9">
     <g id="line2d_27">
      <path d="M 57.6 54.253047 
L 414.72 54.253047 
" clip-path="url(#p512008e463)" style="fill: none; stroke: #b0b0b0; stroke-width: 0.8; stroke-linecap: square"/>
     </g>
     <g id="line2d_28">
      <g>
       <use xlink:href="#mb9c615172e" x="57.6" y="54.253047" style="stroke: #000000; stroke-width: 0.8"/>
      </g>
     </g>
     <g id="text_15">
      <!-- 8 -->
      <g transform="translate(44.2375 58.052266) scale(0.1 -0.1)">
       <defs>
        <path id="DejaVuSans-38" d="M 2034 2216 
Q 1584 2216 1326 1975 
Q 1069 1734 1069 1313 
Q 1069 891 1326 650 
Q 1584 409 2034 409 
Q 2484 409 2743 651 
Q 3003 894 3003 1313 
Q 3003 1734 2745 1975 
Q 2488 2216 2034 2216 
z
M 1403 2484 
Q 997 2584 770 2862 
Q 544 3141 544 3541 
Q 544 4100 942 4425 
Q 1341 4750 2034 4750 
Q 2731 4750 3128 4425 
Q 3525 4100 3525 3541 
Q 3525 3141 3298 2862 
Q 3072 2584 2669 2484 
Q 3125 2378 3379 2068 
Q 3634 1759 3634 1313 
Q 3634 634 3220 271 
Q 2806 -91 2034 -91 
Q 1263 -91 848 271 
Q 434 634 434 1313 
Q 434 1759 690 2068 
Q 947 2378 1403 2484 
z
M 1172 3481 
Q 1172 3119 1398 2916 
Q 1625 2713 2034 2713 
Q 2441 2713 2670 2916 
Q 2900 3119 2900 3481 
Q 2900 3844 2670 4047 
Q 2441 4250 2034 4250 
Q 1625 4250 1398 4047 
Q 1172 3844 1172 3481 
z
" transform="scale(0.015625)"/>
       </defs>
       <use xlink:href="#DejaVuSans-38"/>
      </g>
     </g>
    </g>
    <g id="text_16">
     <!-- Velocity(m/s) -->
     <g transform="translate(38.157812 207.204563) rotate(-90) scale(0.1 -0.1)">
      <defs>
       <path id="DejaVuSans-56" d="M 1831 0 
L 50 4666 
L 709 4666 
L 2188 738 
L 3669 4666 
L 4325 4666 
L 2547 0 
L 1831 0 
z
" transform="scale(0.015625)"/>
       <path id="DejaVuSans-6c" d="M 603 4863 
L 1178 4863 
L 1178 0 
L 603 0 
L 603 4863 
z
" transform="scale(0.015625)"/>
       <path id="DejaVuSans-6f" d="M 1959 3097 
Q 1497 3097 1228 2736 
Q 959 2375 959 1747 
Q 959 1119 1226 758 
Q 1494 397 1959 397 
Q 2419 397 2687 759 
Q 2956 1122 2956 1747 
Q 2956 2369 2687 2733 
Q 2419 3097 1959 3097 
z
M 1959 3584 
Q 2709 3584 3137 3096 
Q 3566 2609 3566 1747 
Q 3566 888 3137 398 
Q 2709 -91 1959 -91 
Q 1206 -91 779 398 
Q 353 888 353 1747 
Q 353 2609 779 3096 
Q 1206 3584 1959 3584 
z
" transform="scale(0.015625)"/>
       <path id="DejaVuSans-63" d="M 3122 3366 
L 3122 2828 
Q 2878 2963 2633 3030 
Q 2388 3097 2138 3097 
Q 1578 3097 1268 2742 
Q 959 2388 959 1747 
Q 959 1106 1268 751 
Q 1578 397 2138 397 
Q 2388 397 2633 464 
Q 2878 531 3122 666 
L 3122 134 
Q 2881 22 2623 -34 
Q 2366 -91 2075 -91 
Q 1284 -91 818 406 
Q 353 903 353 1747 
Q 353 2603 823 3093 
Q 1294 3584 2113 3584 
Q 2378 3584 2631 3529 
Q 2884 3475 3122 3366 
z
" transform="scale(0.015625)"/>
       <path id="DejaVuSans-74" d="M 1172 4494 
L 1172 3500 
L 2356 3500 
L 2356 3053 
L 1172 3053 
L 1172 1153 
Q 1172 725 1289 603 
Q 1406 481 1766 481 
L 2356 481 
L 2356 0 
L 1766 0 
Q 1100 0 847 248 
Q 594 497 594 1153 
L 594 3053 
L 172 3053 
L 172 3500 
L 594 3500 
L 594 4494 
L 1172 4494 
z
" transform="scale(0.015625)"/>
       <path id="DejaVuSans-79" d="M 2059 -325 
Q 1816 -950 1584 -1140 
Q 1353 -1331 966 -1331 
L 506 -1331 
L 506 -850 
L 844 -850 
Q 1081 -850 1212 -737 
Q 1344 -625 1503 -206 
L 1606 56 
L 191 3500 
L 800 3500 
L 1894 763 
L 2988 3500 
L 3597 3500 
L 2059 -325 
z
" transform="scale(0.015625)"/>
       <path id="DejaVuSans-2f" d="M 1625 4666 
L 2156 4666 
L 531 -594 
L 0 -594 
L 1625 4666 
z
" transform="scale(0.015625)"/>
      </defs>
      <use xlink:href="#DejaVuSans-56"/>
      <use xlink:href="#DejaVuSans-65" x="60.658203"/>
      <use xlink:href="#DejaVuSans-6c" x="122.181641"/>
      <use xlink:href="#DejaVuSans-6f" x="149.964844"/>
      <use xlink:href="#DejaVuSans-63" x="211.146484"/>
      <use xlink:href="#DejaVuSans-69" x="266.126953"/>
      <use xlink:href="#DejaVuSans-74" x="293.910156"/>
      <use xlink:href="#DejaVuSans-79" x="333.119141"/>
      <use xlink:href="#DejaVuSans-28" x="392.298828"/>
      <use xlink:href="#DejaVuSans-6d" x="431.3125"/>
      <use xlink:href="#DejaVuSans-2f" x="528.724609"/>
      <use xlink:href="#DejaVuSans-73" x="562.416016"/>
      <use xlink:href="#DejaVuSans-29" x="614.515625"/>
     </g>
    </g>
   </g>
   <g id="line2d_29">
    <path d="M 73.832727 54.253047 
L 73.832727 295.488 
L 74.109973 290.327562 
L 74.109973 290.327562 
L 79.377638 261.937676 
L 79.377638 261.937676 
L 88.803987 208.131396 
L 88.803987 208.131396 
L 93.794407 178.218654 
L 93.794407 178.218654 
L 100.725546 134.808092 
L 100.725546 134.808092 
L 109.597404 75.627791 
L 109.597404 75.627791 
L 110.706386 68.833468 
L 110.706386 68.833468 
L 111.538123 65.108499 
L 111.538123 65.108499 
L 112.369859 62.358391 
L 112.369859 62.358391 
L 112.924351 60.991825 
L 112.924351 60.991825 
L 113.756087 60.257264 
L 113.756087 60.257264 
L 114.033333 60.235975 
L 114.033333 60.235975 
L 114.310578 61.053551 
L 114.865069 63.498467 
L 114.865069 63.498467 
L 115.142315 64.750718 
L 115.142315 64.750718 
L 115.419561 66.518427 
L 115.419561 66.518427 
L 115.974052 70.678313 
L 115.974052 70.678313 
L 116.528543 75.72338 
L 116.528543 75.72338 
L 117.083034 82.188055 
L 117.083034 82.188055 
L 117.360279 85.043703 
L 117.360279 85.043703 
L 117.914771 92.103776 
L 117.914771 92.103776 
L 120.132735 116.011155 
L 120.132735 116.011155 
L 120.964472 121.456009 
L 120.964472 121.456009 
L 122.073454 128.294929 
L 122.073454 128.294929 
L 123.182436 133.228274 
L 123.182436 133.228274 
L 125.123155 138.369233 
L 125.123155 138.369233 
L 125.400401 138.609985 
L 125.677646 139.061607 
L 126.232137 139.318944 
L 126.232137 139.318944 
L 126.509383 139.679772 
L 126.509383 139.679772 
L 126.786628 139.807717 
L 126.786628 139.807717 
L 128.450102 139.883645 
L 128.450102 139.883645 
L 129.004593 140.057907 
L 129.004593 140.057907 
L 130.390821 139.862175 
L 130.390821 139.862175 
L 131.222557 139.398763 
L 131.222557 139.398763 
L 132.331539 138.288871 
L 132.331539 138.288871 
L 133.440522 136.197997 
L 133.440522 136.197997 
L 134.549504 132.727139 
L 134.549504 132.727139 
L 135.381241 129.007447 
L 135.381241 129.007447 
L 139.539924 102.497927 
L 139.539924 102.497927 
L 140.371661 98.943631 
L 140.371661 98.943631 
L 141.203397 96.327921 
L 141.203397 96.327921 
L 142.035134 94.218773 
L 142.035134 94.218773 
L 143.421362 91.3096 
L 143.421362 91.3096 
L 144.530344 88.089415 
L 144.530344 88.089415 
L 145.084835 86.000803 
L 145.084835 86.000803 
L 146.193817 79.56568 
L 146.193817 79.56568 
L 147.302799 72.232409 
L 147.302799 72.232409 
L 147.857291 69.588775 
L 147.857291 69.588775 
L 148.411782 67.918826 
L 148.411782 67.918826 
L 149.243518 66.180789 
L 149.243518 66.180789 
L 150.075255 65.002838 
L 150.075255 65.002838 
L 151.461483 63.656295 
L 151.461483 63.656295 
L 152.847711 62.357426 
L 152.847711 62.357426 
L 155.065675 58.314087 
L 155.065675 58.314087 
L 156.451903 56.774857 
L 156.451903 56.774857 
L 157.560885 55.954176 
L 157.560885 55.954176 
L 158.392622 55.571245 
L 158.392622 55.571245 
L 160.056095 55.027411 
L 160.056095 55.027411 
L 162.551305 54.517229 
L 162.551305 54.517229 
L 163.105796 54.535292 
L 163.105796 54.535292 
L 169.482444 54.27126 
L 169.482444 54.27126 
L 169.759689 54.42945 
L 169.759689 54.42945 
L 171.423163 54.231969 
L 171.423163 54.231969 
L 171.700408 54.781804 
L 171.700408 54.781804 
L 173.086636 54.571266 
L 173.086636 54.571266 
L 174.195618 54.48605 
L 174.195618 54.48605 
L 174.472864 54.806048 
L 174.472864 54.806048 
L 175.581846 59.837335 
L 175.581846 59.837335 
L 176.413583 66.240615 
L 176.413583 66.240615 
L 176.968074 70.206909 
L 176.968074 70.206909 
L 177.522565 74.101135 
L 177.522565 74.101135 
L 180.295021 90.320628 
L 180.295021 90.320628 
L 181.958494 97.419147 
L 181.958494 97.419147 
L 183.621967 102.785811 
L 183.621967 102.785811 
L 184.730949 105.188239 
L 184.730949 105.188239 
L 186.394423 107.203908 
L 186.394423 107.203908 
L 186.671668 107.435614 
L 186.671668 107.435614 
L 186.948914 107.505874 
L 186.948914 107.505874 
L 187.226159 107.760196 
L 187.226159 107.760196 
L 188.612387 107.635628 
L 188.612387 107.635628 
L 189.166878 107.674949 
L 189.166878 107.674949 
L 189.721369 108.088577 
L 189.721369 108.088577 
L 190.830352 107.937413 
L 190.830352 107.937413 
L 193.602807 106.96017 
L 193.602807 106.96017 
L 195.266281 105.596831 
L 195.266281 105.596831 
L 196.098017 104.472284 
L 196.098017 104.472284 
L 196.929754 103.038022 
L 196.929754 103.038022 
L 198.315982 99.916652 
L 198.315982 99.916652 
L 199.147718 97.508344 
L 199.147718 97.508344 
L 199.979455 94.481418 
L 199.979455 94.481418 
L 200.811192 90.835272 
L 200.811192 90.835272 
L 201.642928 86.49642 
L 201.642928 86.49642 
L 202.474665 81.422767 
L 202.474665 81.422767 
L 204.692629 67.507701 
L 204.692629 67.507701 
L 205.524366 64.139036 
L 205.524366 64.139036 
L 206.356103 61.665624 
L 206.356103 61.665624 
L 207.187839 59.803471 
L 207.187839 59.803471 
L 208.019576 58.394629 
L 208.019576 58.394629 
L 208.851313 57.368657 
L 208.851313 57.368657 
L 210.237541 56.19523 
L 210.237541 56.19523 
L 211.623768 55.47442 
L 211.623768 55.47442 
L 212.732751 55.09565 
L 212.732751 55.09565 
L 214.396224 54.714982 
L 214.396224 54.714982 
L 215.782452 54.533151 
L 215.782452 54.533151 
L 217.168679 54.375836 
L 217.168679 54.375836 
L 218.832153 54.40801 
L 218.832153 54.40801 
L 219.386644 54.522506 
L 219.386644 54.522506 
L 220.495626 54.380117 
L 220.495626 54.380117 
L 221.881854 54.245086 
L 221.881854 54.245086 
L 222.159099 54.909266 
L 222.159099 54.909266 
L 224.654309 54.530739 
L 224.654309 54.530739 
L 225.486046 54.709252 
L 225.486046 54.709252 
L 225.763292 54.93152 
L 225.763292 54.93152 
L 226.595028 57.031621 
L 226.595028 57.031621 
L 227.149519 58.654168 
L 227.149519 58.654168 
L 227.704011 60.454142 
L 227.704011 60.454142 
L 228.258502 62.676459 
L 228.258502 62.676459 
L 229.090238 66.278067 
L 229.090238 66.278067 
L 229.367484 68.087389 
L 229.367484 68.087389 
L 229.921975 70.125824 
L 229.921975 70.125824 
L 232.971676 87.521548 
L 232.971676 87.521548 
L 233.526167 91.222756 
L 233.526167 91.222756 
L 233.803413 92.840146 
L 234.357904 96.956971 
L 234.357904 96.956971 
L 234.635149 98.603369 
L 234.635149 98.603369 
L 235.189641 102.993665 
L 235.189641 102.993665 
L 235.466886 104.803017 
L 235.466886 104.803017 
L 235.744132 107.795537 
L 235.744132 107.795537 
L 236.021377 109.167922 
L 236.021377 109.167922 
L 237.407605 119.699969 
L 237.407605 119.699969 
L 239.071078 132.5925 
L 239.071078 132.5925 
L 239.348324 133.90325 
L 239.348324 133.90325 
L 239.902815 137.458842 
L 239.902815 137.458842 
L 240.734552 142.857228 
L 240.734552 142.857228 
L 241.566288 147.507786 
L 241.566288 147.507786 
L 242.398025 152.391889 
L 242.398025 152.391889 
L 243.229762 156.449008 
L 243.229762 156.449008 
L 243.507007 158.417063 
L 243.507007 158.417063 
L 243.784253 159.499002 
L 243.784253 159.499002 
L 244.061498 161.541267 
L 244.061498 161.541267 
L 244.615989 163.490114 
L 244.615989 163.490114 
L 246.833954 173.534383 
L 246.833954 173.534383 
L 247.111199 174.358713 
L 247.111199 174.358713 
L 247.388445 175.672449 
L 247.388445 175.672449 
L 247.665691 176.373086 
L 247.665691 176.373086 
L 247.942936 177.680881 
L 247.942936 177.680881 
L 248.497427 179.134381 
L 248.497427 179.134381 
L 248.774673 180.177813 
L 248.774673 180.177813 
L 249.051918 180.718903 
L 249.051918 180.718903 
L 249.606409 182.553163 
L 249.606409 182.553163 
L 249.883655 182.739517 
L 249.883655 182.739517 
L 250.160901 183.660462 
L 250.160901 183.660462 
L 250.715392 184.598383 
L 250.715392 184.598383 
L 251.824374 186.767447 
L 251.824374 186.767447 
L 252.101619 187.060759 
L 252.101619 187.060759 
L 252.378865 187.702595 
L 252.378865 187.702595 
L 253.210602 188.337676 
L 253.210602 188.337676 
L 255.705812 190.24699 
L 255.705812 190.24699 
L 255.983057 190.35823 
L 255.983057 190.35823 
L 256.260303 190.591082 
L 256.260303 190.591082 
L 256.814794 190.592228 
L 256.814794 190.592228 
L 257.369285 190.793629 
L 257.369285 190.793629 
L 258.755513 190.688058 
L 258.755513 190.688058 
L 259.310004 190.826135 
L 259.310004 190.826135 
L 259.587249 190.829723 
L 259.587249 190.829723 
L 259.864495 190.97558 
L 259.864495 190.97558 
L 260.973477 190.815611 
L 260.973477 190.815611 
L 263.191442 190.20975 
L 263.191442 190.20975 
L 265.132161 189.103778 
L 265.132161 189.103778 
L 265.686652 188.51432 
L 265.686652 188.51432 
L 265.963897 188.253063 
L 265.963897 188.253063 
L 266.518388 187.434944 
L 266.518388 187.434944 
L 267.072879 186.776976 
L 267.072879 186.776976 
L 267.627371 185.791863 
L 267.627371 185.791863 
L 267.904616 185.392438 
L 267.904616 185.392438 
L 268.459107 183.986853 
L 268.459107 183.986853 
L 268.736353 183.412472 
L 268.736353 183.412472 
L 269.290844 181.696809 
L 269.290844 181.696809 
L 269.845335 179.821057 
L 269.845335 179.821057 
L 270.122581 178.883407 
L 270.122581 178.883407 
L 273.172282 161.513073 
L 273.172282 161.513073 
L 273.726773 158.356121 
L 273.726773 158.356121 
L 274.558509 155.970278 
L 274.558509 155.970278 
L 274.835755 155.573808 
L 274.835755 155.573808 
L 275.113001 155.377292 
L 275.113001 155.377292 
L 275.667492 155.884669 
L 275.667492 155.884669 
L 276.499228 158.257094 
L 276.499228 158.257094 
L 278.162702 162.894233 
L 278.162702 162.894233 
L 279.548929 164.311881 
L 279.548929 164.311881 
L 280.103421 164.362932 
L 280.103421 164.362932 
L 280.380666 164.602237 
L 280.935157 164.587612 
L 280.935157 164.587612 
L 281.212403 164.744988 
L 281.212403 164.744988 
L 285.371086 164.706149 
L 285.371086 164.706149 
L 286.202823 164.564152 
L 286.202823 164.564152 
L 288.420787 164.034762 
L 288.420787 164.034762 
L 290.084261 163.303127 
L 290.084261 163.303127 
L 291.193243 162.257675 
L 291.193243 162.257675 
L 292.024979 161.295811 
L 292.024979 161.295811 
L 292.579471 160.427847 
L 292.579471 160.427847 
L 294.520189 156.094845 
L 294.520189 156.094845 
L 297.292645 146.971731 
L 297.292645 146.971731 
L 298.401627 142.361038 
L 298.401627 142.361038 
L 300.065101 133.47355 
L 300.065101 133.47355 
L 306.996239 87.853819 
L 306.996239 87.853819 
L 309.768695 69.523008 
L 309.768695 69.523008 
L 310.600432 65.653057 
L 310.600432 65.653057 
L 311.432168 62.755795 
L 311.432168 62.755795 
L 312.263905 60.608683 
L 312.263905 60.608683 
L 313.372887 58.541239 
L 313.372887 58.541239 
L 314.481869 57.19358 
L 314.481869 57.19358 
L 315.313606 56.506634 
L 315.313606 56.506634 
L 317.254325 55.484431 
L 317.254325 55.484431 
L 318.086062 55.086242 
L 318.086062 55.086242 
L 319.472289 54.782708 
L 319.472289 54.782708 
L 321.135763 54.569185 
L 321.135763 54.569185 
L 321.690254 54.554048 
L 321.690254 54.554048 
L 321.967499 54.521029 
L 321.967499 54.521029 
L 322.521991 54.585981 
L 322.521991 54.585981 
L 323.630973 54.476702 
L 323.630973 54.476702 
L 324.185464 54.475586 
L 324.185464 54.475586 
L 325.017201 54.574462 
L 325.017201 54.574462 
L 325.848937 54.484452 
L 325.848937 54.484452 
L 326.957919 54.400803 
L 326.957919 54.400803 
L 328.066902 54.356175 
L 328.066902 54.356175 
L 328.344147 54.667157 
L 328.344147 54.667157 
L 328.621393 54.793715 
L 328.621393 54.793715 
L 329.175884 57.762352 
L 329.175884 57.762352 
L 331.948339 83.258836 
L 331.948339 83.258836 
L 334.443549 99.060027 
L 334.443549 99.060027 
L 336.661514 109.178446 
L 336.661514 109.178446 
L 338.602233 116.576791 
L 338.602233 116.576791 
L 339.156724 118.915744 
L 339.156724 118.915744 
L 339.711215 121.146504 
L 339.711215 121.146504 
L 339.988461 122.089462 
L 339.988461 122.089462 
L 340.542952 124.365755 
L 340.542952 124.365755 
L 341.651934 128.864485 
L 341.651934 128.864485 
L 341.929179 129.995666 
L 341.929179 129.995666 
L 342.206425 131.925244 
L 342.206425 131.925244 
L 342.483671 132.694844 
L 342.483671 132.694844 
L 342.760916 134.563389 
L 342.760916 134.563389 
L 343.038162 135.476524 
L 343.038162 135.476524 
L 343.315407 136.995671 
L 343.315407 136.995671 
L 343.592653 137.829108 
L 343.592653 137.829108 
L 344.424389 142.585718 
L 344.424389 142.585718 
L 344.701635 143.759386 
L 344.701635 143.759386 
L 345.533372 148.394203 
L 345.533372 148.394203 
L 345.810617 149.778229 
L 345.810617 149.778229 
L 346.642354 155.169287 
L 346.642354 155.169287 
L 346.919599 156.248241 
L 346.919599 156.248241 
L 347.196845 158.342884 
L 347.196845 158.342884 
L 347.474091 159.543661 
L 347.474091 159.543661 
L 347.751336 161.616351 
L 347.751336 161.616351 
L 348.305827 163.718262 
L 348.305827 163.718262 
L 349.137564 167.850405 
L 349.137564 167.850405 
L 349.414809 168.810671 
L 349.414809 168.810671 
L 349.969301 171.356997 
L 349.969301 171.356997 
L 350.801037 174.346199 
L 350.801037 174.346199 
L 351.355528 176.521445 
L 351.355528 176.521445 
L 351.632774 177.246869 
L 351.632774 177.246869 
L 351.910019 178.436881 
L 351.910019 178.436881 
L 352.187265 179.136281 
L 352.187265 179.136281 
L 352.741756 180.887677 
L 352.741756 180.887677 
L 353.019002 181.322021 
L 353.019002 181.322021 
L 353.573493 183.069346 
L 353.573493 183.069346 
L 353.850738 184.382267 
L 353.850738 184.382267 
L 354.405229 185.106756 
L 354.405229 185.106756 
L 354.682475 186.007618 
L 354.682475 186.007618 
L 355.514212 187.540304 
L 355.514212 187.540304 
L 355.791457 188.024945 
L 355.791457 188.024945 
L 356.068703 188.267235 
L 356.068703 188.267235 
L 357.177685 190.091032 
L 357.177685 190.091032 
L 357.454931 190.14534 
L 357.454931 190.14534 
L 358.009422 190.607908 
L 358.009422 190.607908 
L 358.286667 190.700874 
L 358.286667 190.700874 
L 358.563913 190.92477 
L 358.563913 190.92477 
L 358.841158 191.30963 
L 358.841158 191.30963 
L 359.118404 191.306162 
L 359.118404 191.306162 
L 359.395649 191.447617 
L 359.395649 191.447617 
L 359.672895 191.432298 
L 359.672895 191.432298 
L 359.950141 191.558856 
L 359.950141 191.558856 
L 362.999842 191.429222 
L 362.999842 191.429222 
L 364.386069 190.906707 
L 364.386069 190.906707 
L 366.049543 188.769456 
L 366.049543 188.769456 
L 366.604034 187.440764 
L 366.604034 187.440764 
L 367.158525 186.354936 
L 367.158525 186.354936 
L 367.990262 184.145012 
L 367.990262 184.145012 
L 368.267507 294.353954 
L 368.267507 294.353954 
L 372.148945 273.668087 
L 372.148945 273.668087 
L 379.080084 235.119013 
L 379.080084 235.119013 
L 384.902241 201.188774 
L 384.902241 201.188774 
L 386.565714 191.644374 
L 386.565714 191.644374 
L 387.397451 188.548937 
L 387.397451 188.548937 
L 388.229187 186.545451 
L 388.229187 186.545451 
L 389.338169 184.958849 
L 389.338169 184.958849 
L 390.447152 183.913216 
L 390.447152 183.913216 
L 391.556134 183.262153 
L 391.556134 183.262153 
L 394.605835 181.913137 
L 394.605835 181.913137 
L 395.437572 181.1559 
L 395.437572 181.1559 
L 396.269308 179.902443 
L 396.269308 179.902443 
L 396.823799 179.017413 
L 396.823799 179.017413 
L 397.378291 177.594368 
L 397.378291 177.594368 
L 397.932782 176.416297 
L 397.932782 176.416297 
L 398.487273 174.888737 
L 398.487273 174.888737 
" clip-path="url(#p512008e463)" style="fill: none; stroke: #1f77b4; stroke-width: 1.5; stroke-linecap: square"/>
   </g>
   <g id="line2d_30">
    <path d="M 73.832727 54.399869 
L 73.832727 280.335822 
L 74.109973 274.34451 
L 74.664464 271.347075 
L 74.941709 269.582321 
L 74.941709 270.142077 
L 75.218955 268.670152 
L 75.496201 266.856728 
L 75.496201 267.180043 
L 76.050692 263.984434 
L 77.159674 257.603076 
L 77.159674 257.633954 
L 77.436919 256.498069 
L 77.436919 256.569052 
L 77.714165 254.627744 
L 77.714165 254.77725 
L 77.991411 253.175238 
L 78.545902 249.978513 
L 78.545902 250.008728 
L 78.823147 248.891629 
L 78.823147 248.39957 
L 79.100393 247.15911 
L 79.100393 247.160558 
L 79.377638 245.088591 
L 79.377638 245.705368 
L 79.932129 242.326903 
L 79.932129 242.328983 
L 80.209375 240.600595 
L 81.318357 234.907782 
L 81.595603 232.633781 
L 81.595603 233.066948 
L 82.427339 228.285249 
L 82.427339 227.885553 
L 83.813567 220.332818 
L 83.813567 220.334085 
L 84.645304 215.053783 
L 84.645304 215.292666 
L 86.308777 205.303278 
L 86.308777 205.874794 
L 86.586023 203.614482 
L 86.863268 202.322217 
L 89.081233 188.666781 
L 89.358478 187.543741 
L 89.358478 186.971261 
L 90.190215 182.039242 
L 94.903389 152.930898 
L 95.180635 150.790933 
L 95.180635 151.99165 
L 95.735126 147.472294 
L 95.735126 148.079331 
L 96.289617 144.310699 
L 96.289617 144.731593 
L 96.844108 140.606295 
L 97.398599 137.242816 
L 97.398599 137.029233 
L 99.062073 126.529813 
L 99.062073 126.666231 
L 99.339318 124.077991 
L 99.339318 124.867614 
L 99.893809 120.791165 
L 100.171055 119.622352 
L 100.171055 118.776341 
L 100.448301 117.25062 
L 101.002792 113.679679 
L 106.824948 74.457198 
L 106.824948 74.075142 
L 107.379439 70.27732 
L 107.379439 70.833487 
L 107.933931 66.534288 
L 107.933931 66.573157 
L 109.597404 55.312219 
L 109.874649 54.250273 
L 110.151895 54.222953 
L 110.151895 54.390189 
L 110.429141 54.299605 
L 110.429141 54.573739 
L 110.706386 54.157216 
L 110.983632 54.008224 
L 111.260877 54.156855 
L 111.260877 54.556159 
L 111.538123 54.250574 
L 111.538123 54.370197 
L 111.815368 54.320683 
L 112.369859 53.97035 
L 112.647105 55.551585 
L 112.924351 57.824772 
L 112.924351 57.421397 
L 113.201596 57.638719 
L 113.201596 58.02165 
L 113.478842 58.727805 
L 113.478842 59.087426 
L 113.756087 60.028001 
L 113.756087 60.530131 
L 114.310578 65.269976 
L 114.310578 64.984565 
L 114.587824 65.391257 
L 114.587824 65.055397 
L 115.142315 69.888449 
L 115.419561 74.39508 
L 115.696806 73.710365 
L 116.251297 81.597662 
L 116.528543 87.984086 
L 116.805788 86.751225 
L 117.083034 90.914669 
L 117.360279 97.476531 
L 117.637525 97.70887 
L 117.637525 97.343068 
L 117.914771 100.961381 
L 117.914771 100.749365 
L 118.192016 106.617798 
L 118.192016 106.590025 
L 118.469262 106.979318 
L 118.469262 106.54021 
L 118.746507 109.728251 
L 118.746507 109.251933 
L 119.023753 114.776605 
L 119.023753 114.662772 
L 119.300998 114.911244 
L 119.300998 114.175116 
L 119.578244 117.402297 
L 119.578244 117.169475 
L 119.855489 122.084667 
L 119.855489 121.900484 
L 120.132735 120.705436 
L 120.409981 124.235608 
L 120.687226 124.510043 
L 120.687226 124.125394 
L 120.964472 126.843811 
L 121.518963 129.421135 
L 121.796208 132.046042 
L 122.073454 131.987422 
L 122.073454 131.660217 
L 122.350699 133.842217 
L 122.350699 133.752056 
L 122.627945 133.676972 
L 122.905191 135.630191 
L 122.905191 135.433825 
L 123.182436 135.415793 
L 123.182436 135.280008 
L 123.459682 136.586687 
L 123.459682 136.324435 
L 124.291418 138.893979 
L 124.291418 138.635315 
L 124.568664 138.80635 
L 124.845909 139.540941 
L 124.845909 139.232462 
L 125.123155 139.068603 
L 125.123155 139.304742 
L 125.400401 139.921972 
L 125.400401 139.631917 
L 125.677646 139.406573 
L 125.677646 139.543142 
L 125.954892 139.583006 
L 125.954892 139.959755 
L 126.232137 140.367201 
L 126.232137 139.983939 
L 126.509383 140.051485 
L 126.509383 139.732662 
L 126.786628 139.748132 
L 126.786628 140.21655 
L 127.063874 139.365473 
L 127.063874 140.232984 
L 127.341119 140.024466 
L 127.341119 139.868387 
L 127.618365 139.726993 
L 127.618365 139.570975 
L 128.172856 139.980411 
L 128.172856 140.310782 
L 128.450102 140.253941 
L 128.450102 139.990211 
L 128.727347 140.147044 
L 128.727347 139.854335 
L 129.004593 139.813325 
L 129.004593 139.692708 
L 129.281838 139.595581 
L 129.281838 139.730129 
L 129.559084 139.566934 
L 129.559084 139.645124 
L 129.836329 139.263702 
L 129.836329 139.628992 
L 130.113575 139.584906 
L 130.113575 139.178003 
L 130.390821 138.584655 
L 130.668066 137.429411 
L 130.945312 138.086264 
L 130.945312 137.524036 
L 131.222557 136.288581 
L 131.222557 136.544109 
L 131.499803 137.12829 
L 131.499803 137.047416 
L 131.777048 134.701346 
L 132.054294 135.587582 
L 132.054294 135.441364 
L 132.331539 132.658236 
L 132.331539 132.859818 
L 132.608785 133.565913 
L 132.608785 133.305108 
L 132.886031 130.451298 
L 133.163276 130.613469 
L 133.163276 130.88326 
L 133.440522 127.508805 
L 133.717767 127.72869 
L 133.717767 127.036286 
L 133.995013 123.945222 
L 134.272258 123.233518 
L 134.549504 119.997713 
L 134.826749 118.529618 
L 135.103995 115.901453 
L 135.103995 115.966557 
L 135.381241 109.185502 
L 135.658486 109.33941 
L 135.658486 109.925521 
L 135.935732 106.046071 
L 137.599205 95.114087 
L 138.708187 87.739987 
L 138.985433 88.204454 
L 138.985433 87.714928 
L 139.262678 88.423465 
L 139.262678 88.140587 
L 139.539924 88.294917 
L 139.539924 88.540404 
L 139.817169 88.61389 
L 139.817169 88.450454 
L 140.648906 88.603125 
L 140.648906 88.460163 
L 140.926152 88.653091 
L 140.926152 88.555089 
L 141.203397 88.122495 
L 141.203397 88.169023 
L 141.480643 88.429044 
L 141.480643 88.68409 
L 141.757888 87.527971 
L 141.757888 88.108805 
L 142.035134 88.292234 
L 142.035134 87.963732 
L 142.312379 87.807683 
L 142.312379 87.539279 
L 142.589625 86.285279 
L 142.589625 86.86955 
L 142.866871 86.657716 
L 142.866871 86.510442 
L 143.144116 85.070842 
L 143.144116 85.78918 
L 143.421362 83.012565 
L 143.698607 83.466509 
L 143.698607 83.252866 
L 143.975853 81.702841 
L 143.975853 81.770386 
L 144.253098 77.743421 
L 144.530344 77.523475 
L 144.530344 76.847836 
L 144.807589 74.939457 
L 145.084835 69.834654 
L 145.084835 70.151395 
L 145.362081 68.743186 
L 145.639326 66.010235 
L 145.916572 60.624484 
L 146.748308 55.16003 
L 147.025554 56.301584 
L 147.025554 55.935058 
L 147.302799 56.745396 
L 147.302799 56.127744 
L 148.134536 60.788162 
L 148.134536 60.383852 
L 148.411782 60.846812 
L 148.411782 60.532513 
L 148.689027 60.858241 
L 148.689027 61.118624 
L 149.243518 61.623619 
L 149.243518 61.355698 
L 149.520764 61.276995 
L 149.520764 61.459127 
L 149.798009 61.691647 
L 149.798009 61.499654 
L 150.075255 61.766671 
L 150.352501 61.697558 
L 150.629746 60.824378 
L 150.629746 61.323794 
L 151.184237 61.763234 
L 151.184237 61.832257 
L 151.461483 60.942703 
L 151.461483 61.634414 
L 151.738728 60.448172 
L 151.738728 60.454806 
L 152.015974 60.610402 
L 152.015974 60.371007 
L 152.293219 60.372876 
L 152.293219 60.538454 
L 152.570465 58.98478 
L 152.847711 56.755437 
L 152.847711 56.794608 
L 153.124956 56.6328 
L 153.124956 57.104535 
L 153.402202 55.275129 
L 153.679447 54.722158 
L 153.679447 54.254283 
L 153.956693 54.178566 
L 153.956693 54.68136 
L 154.233938 53.952016 
L 154.233938 54.561586 
L 154.511184 54.256665 
L 154.788429 54.551274 
L 154.788429 54.180013 
L 155.065675 54.714107 
L 155.065675 53.977738 
L 155.342921 54.176967 
L 155.342921 54.553415 
L 155.897412 54.241438 
L 155.897412 54.433883 
L 156.174657 54.221113 
L 156.174657 54.377554 
L 156.451903 54.246715 
L 156.451903 54.49003 
L 156.729148 54.226421 
L 156.729148 53.933109 
L 157.006394 54.10321 
L 157.006394 54.326262 
L 157.283639 54.343299 
L 157.283639 54.326563 
L 157.560885 54.187582 
L 157.560885 54.731295 
L 157.838131 54.412714 
L 157.838131 54.041966 
L 158.115376 54.681601 
L 158.115376 54.248524 
L 158.392622 54.423841 
L 158.392622 54.287453 
L 158.669867 54.266375 
L 158.669867 54.142109 
L 158.947113 54.542469 
L 158.947113 54.379364 
L 159.224358 54.0173 
L 159.501604 54.351441 
L 159.501604 54.288448 
L 159.778849 54.388229 
L 159.778849 54.514968 
L 160.056095 54.293514 
L 160.333341 53.832665 
L 160.610586 54.143285 
L 160.887832 53.878771 
L 160.887832 54.39625 
L 161.165077 53.923279 
L 161.165077 54.254947 
L 161.442323 54.336575 
L 161.719568 53.778628 
L 161.996814 54.487648 
L 161.996814 54.334675 
L 162.274059 54.435089 
L 162.274059 54.180586 
L 162.551305 54.659347 
L 162.551305 54.549555 
L 162.828551 54.233959 
L 162.828551 54.303767 
L 163.105796 54.427068 
L 163.105796 54.083941 
L 163.383042 54.21855 
L 163.383042 53.888662 
L 163.660287 54.455684 
L 163.660287 54.181762 
L 164.214778 54.389737 
L 164.492024 54.372217 
L 164.492024 53.938416 
L 164.769269 53.808089 
L 164.769269 54.159779 
L 165.046515 54.307204 
L 165.046515 54.188637 
L 165.323761 53.965073 
L 165.323761 54.06021 
L 165.878252 54.492292 
L 165.878252 53.850667 
L 166.155497 54.192165 
L 166.155497 54.065577 
L 166.432743 54.177088 
L 166.432743 54.131314 
L 166.709988 54.128178 
L 166.709988 53.769009 
L 166.987234 54.555767 
L 166.987234 54.20284 
L 167.264479 54.240382 
L 167.264479 53.989558 
L 167.541725 54.489819 
L 167.541725 54.202116 
L 167.818971 54.228079 
L 167.818971 54.223918 
L 168.096216 53.928224 
L 168.096216 54.223707 
L 168.373462 53.905066 
L 168.373462 53.983557 
L 168.650707 54.262123 
L 168.650707 54.243036 
L 168.927953 53.999901 
L 168.927953 54.156915 
L 169.205198 54.121906 
L 169.205198 53.946226 
L 169.482444 54.730813 
L 169.482444 54.276236 
L 169.759689 53.980904 
L 169.759689 54.084786 
L 170.036935 54.311637 
L 170.036935 53.887516 
L 170.314181 54.018898 
L 170.314181 54.002464 
L 170.591426 53.879615 
L 170.591426 53.695553 
L 170.868672 53.998423 
L 170.868672 53.949 
L 171.145917 53.807576 
L 171.145917 54.729034 
L 171.423163 55.829276 
L 171.423163 55.791221 
L 171.700408 54.10324 
L 171.700408 54.184295 
L 171.977654 54.135023 
L 171.977654 53.945804 
L 172.254899 54.449382 
L 172.254899 54.216651 
L 172.532145 53.924998 
L 172.532145 54.137676 
L 172.809391 54.507188 
L 172.809391 54.206157 
L 173.086636 54.55058 
L 173.086636 54.366819 
L 173.363882 54.484572 
L 173.363882 54.435994 
L 173.641127 54.360909 
L 173.641127 53.987749 
L 173.918373 53.931149 
L 173.918373 54.55064 
L 174.195618 55.415679 
L 174.195618 55.118357 
L 174.472864 58.72488 
L 174.750109 58.510874 
L 175.304601 63.00873 
L 175.304601 62.783989 
L 175.859092 69.705171 
L 175.859092 69.3963 
L 176.136337 68.951794 
L 176.136337 68.957252 
L 176.968074 77.306213 
L 177.245319 76.923283 
L 177.245319 76.431344 
L 177.799811 81.994102 
L 177.799811 81.267623 
L 178.077056 81.991177 
L 178.077056 81.942628 
L 178.631547 85.930785 
L 178.631547 85.679026 
L 178.908793 88.895411 
L 178.908793 88.465742 
L 179.186038 88.213048 
L 179.186038 88.469149 
L 180.017775 92.765242 
L 180.017775 92.434087 
L 180.572266 95.873494 
L 180.572266 96.34541 
L 180.849512 96.035484 
L 180.849512 96.197744 
L 181.126757 97.360587 
L 181.404003 99.327466 
L 181.681248 99.190837 
L 181.681248 99.865149 
L 181.958494 100.108495 
L 181.958494 100.393152 
L 182.235739 101.821263 
L 182.235739 101.72501 
L 182.512985 101.817343 
L 182.512985 101.951379 
L 182.790231 103.06896 
L 182.790231 102.593034 
L 183.067476 104.288192 
L 183.344722 103.980587 
L 183.344722 104.063119 
L 183.621967 104.959941 
L 183.899213 105.995834 
L 183.899213 105.489331 
L 184.176458 105.294443 
L 184.176458 105.653973 
L 184.453704 106.198923 
L 184.453704 106.547568 
L 184.730949 106.19627 
L 184.730949 106.696229 
L 185.008195 106.844227 
L 185.008195 106.991501 
L 185.285441 107.002899 
L 185.285441 107.19839 
L 185.562686 107.546251 
L 185.562686 107.16519 
L 185.839932 107.275344 
L 185.839932 107.510186 
L 186.394423 107.877014 
L 186.394423 107.609816 
L 186.671668 107.639729 
L 186.671668 108.069489 
L 186.948914 108.244686 
L 186.948914 107.878582 
L 187.226159 107.250346 
L 187.226159 107.652726 
L 187.503405 107.313308 
L 187.503405 107.835129 
L 187.780651 107.553066 
L 188.057896 107.628361 
L 188.057896 107.369214 
L 188.335142 107.328657 
L 188.335142 107.510578 
L 188.612387 107.771745 
L 188.612387 107.515071 
L 188.889633 107.670366 
L 189.166878 108.336536 
L 189.444124 108.44473 
L 189.444124 107.972633 
L 189.998615 107.640393 
L 189.998615 108.338406 
L 190.553106 107.328928 
L 190.553106 107.50322 
L 190.830352 107.009684 
L 190.830352 107.21802 
L 191.107597 107.005764 
L 191.384843 107.462241 
L 191.384843 107.263312 
L 191.662088 107.211447 
L 191.662088 106.990687 
L 191.939334 106.461508 
L 191.939334 106.626663 
L 192.216579 106.737722 
L 192.216579 106.170337 
L 192.493825 105.607717 
L 192.493825 105.854138 
L 192.771071 105.891711 
L 192.771071 105.574999 
L 193.048316 106.191445 
L 193.048316 105.849464 
L 193.325562 105.549609 
L 193.325562 104.791167 
L 193.602807 104.754408 
L 193.602807 104.788965 
L 193.880053 104.406457 
L 194.157298 103.877067 
L 194.157298 103.512109 
L 194.434544 104.271154 
L 194.434544 103.754158 
L 194.711789 103.298314 
L 194.711789 102.690824 
L 194.989035 103.141481 
L 194.989035 102.502963 
L 195.266281 102.004662 
L 195.266281 102.246771 
L 195.543526 100.42204 
L 195.820772 100.948686 
L 195.820772 100.377472 
L 196.098017 100.016584 
L 196.098017 99.720438 
L 196.375263 97.770807 
L 196.652508 98.591097 
L 196.929754 96.830232 
L 196.929754 96.931491 
L 197.206999 96.392029 
L 197.206999 97.24009 
L 197.484245 95.840325 
L 197.484245 95.902985 
L 197.761491 93.748576 
L 197.761491 93.867807 
L 198.038736 92.932509 
L 198.038736 93.401349 
L 198.315982 92.289195 
L 198.593227 89.355688 
L 198.870473 89.794675 
L 198.870473 89.341153 
L 199.147718 87.552125 
L 199.424964 84.341318 
L 199.702209 84.7247 
L 199.702209 84.706578 
L 199.979455 82.502595 
L 200.256701 78.44445 
L 200.533946 79.525906 
L 200.533946 78.841643 
L 200.811192 76.39335 
L 201.088437 72.095689 
L 201.088437 72.476991 
L 201.365683 72.663767 
L 201.365683 72.973513 
L 201.642928 69.970439 
L 201.920174 65.085069 
L 202.197419 64.445616 
L 203.029156 57.440032 
L 203.029156 57.600755 
L 203.306402 55.1366 
L 203.306402 55.375785 
L 203.583647 53.979637 
L 203.583647 54.440004 
L 203.860893 53.79657 
L 203.860893 54.301867 
L 204.138138 53.891375 
L 204.138138 54.34342 
L 204.415384 54.324422 
L 204.415384 54.333378 
L 204.692629 54.520607 
L 204.692629 53.635033 
L 204.969875 54.127364 
L 204.969875 53.820422 
L 205.247121 54.04857 
L 205.247121 53.568 
L 205.524366 54.532156 
L 205.801612 54.20082 
L 205.801612 54.539694 
L 206.078857 54.424475 
L 206.078857 54.169127 
L 206.356103 54.058913 
L 206.356103 54.280759 
L 206.633348 54.148713 
L 206.910594 54.633957 
L 206.910594 54.097601 
L 207.187839 54.173801 
L 207.187839 54.307234 
L 207.465085 54.086414 
L 207.465085 54.346706 
L 207.742331 54.447633 
L 207.742331 54.277201 
L 208.019576 54.221505 
L 208.019576 54.491749 
L 208.296822 54.31423 
L 208.851313 54.615261 
L 208.851313 53.87464 
L 209.128558 54.30835 
L 209.128558 54.260736 
L 209.405804 53.960338 
L 209.405804 54.278889 
L 209.683049 54.522627 
L 209.683049 54.364105 
L 209.960295 54.265169 
L 209.960295 54.360306 
L 210.237541 54.415097 
L 210.237541 54.561556 
L 210.514786 54.058521 
L 210.792032 53.986 
L 210.792032 54.458971 
L 211.069277 54.754605 
L 211.069277 54.557003 
L 211.623768 54.198317 
L 211.623768 54.466691 
L 211.901014 54.668634 
L 211.901014 54.180013 
L 212.178259 54.324754 
L 212.178259 54.137827 
L 212.455505 54.053304 
L 212.455505 54.478511 
L 212.732751 54.254856 
L 212.732751 54.423057 
L 213.009996 53.985397 
L 213.009996 54.248283 
L 213.287242 54.464761 
L 213.287242 54.845822 
L 213.564487 54.065246 
L 213.841733 54.445824 
L 213.841733 54.411599 
L 214.118978 54.150613 
L 214.118978 54.58372 
L 214.396224 54.534719 
L 214.396224 54.28103 
L 214.673469 54.06033 
L 214.673469 54.600757 
L 214.950715 54.193462 
L 214.950715 54.273884 
L 215.227961 54.086293 
L 215.505206 54.272798 
L 215.505206 54.407467 
L 215.782452 53.992966 
L 215.782452 54.305757 
L 216.059697 54.286609 
L 216.059697 54.12085 
L 216.336943 54.125645 
L 216.336943 54.879383 
L 216.614188 54.162403 
L 216.614188 54.495518 
L 216.891434 54.060149 
L 216.891434 53.830856 
L 217.168679 54.364015 
L 217.168679 53.932808 
L 217.445925 54.178144 
L 217.445925 54.384731 
L 217.723171 54.252384 
L 217.723171 54.560712 
L 218.000416 54.477757 
L 218.000416 54.708921 
L 218.277662 54.475556 
L 218.277662 54.143406 
L 218.554907 54.307807 
L 218.832153 54.790187 
L 219.109398 54.522084 
L 219.109398 54.569035 
L 219.386644 54.423902 
L 219.386644 54.517652 
L 219.663889 53.796389 
L 219.663889 54.160021 
L 219.941135 54.275693 
L 219.941135 54.154925 
L 220.218381 53.883867 
L 220.218381 54.267069 
L 220.495626 53.880731 
L 220.772872 54.088404 
L 220.772872 54.525281 
L 221.050117 54.245478 
L 221.050117 53.972973 
L 221.327363 54.141204 
L 221.327363 54.103692 
L 221.604608 53.733095 
L 221.604608 54.323608 
L 221.881854 56.256172 
L 222.159099 54.33956 
L 222.159099 54.415187 
L 222.436345 54.076614 
L 222.436345 54.664232 
L 222.713591 54.397426 
L 222.713591 54.115061 
L 222.990836 54.268968 
L 222.990836 54.064492 
L 223.268082 54.343842 
L 223.268082 54.316401 
L 223.545327 54.352255 
L 223.545327 54.023964 
L 223.822573 54.172836 
L 223.822573 54.729757 
L 224.377064 54.050952 
L 224.377064 54.565024 
L 224.654309 54.619362 
L 224.654309 54.067025 
L 224.931555 54.689712 
L 224.931555 54.110568 
L 225.208801 54.907005 
L 225.208801 54.879715 
L 225.486046 55.354948 
L 225.486046 54.650874 
L 225.763292 56.709452 
L 225.763292 56.203582 
L 226.595028 59.920892 
L 226.595028 60.116715 
L 226.872274 59.850512 
L 226.872274 60.322458 
L 227.149519 61.055662 
L 227.426765 62.356823 
L 227.426765 62.078528 
L 227.704011 64.367757 
L 227.704011 64.138493 
L 227.981256 64.366038 
L 228.258502 65.810583 
L 228.258502 65.528369 
L 228.535747 66.58154 
L 228.535747 67.069166 
L 229.090238 71.534305 
L 229.090238 71.090825 
L 229.367484 70.625332 
L 229.367484 70.765519 
L 229.644729 72.392287 
L 230.199221 77.449868 
L 230.476466 77.523355 
L 230.476466 76.809872 
L 230.753712 78.574566 
L 231.030957 81.492785 
L 231.308203 81.470079 
L 231.308203 81.550923 
L 231.862694 85.520715 
L 231.862694 86.045944 
L 232.139939 89.363407 
L 232.417185 88.445388 
L 232.417185 89.113367 
L 232.694431 90.67859 
L 232.694431 90.385429 
L 232.971676 94.036339 
L 232.971676 93.865515 
L 233.248922 94.001632 
L 233.248922 93.870068 
L 233.526167 96.02309 
L 233.803413 100.022193 
L 233.803413 99.940505 
L 234.080658 100.09004 
L 234.080658 100.029731 
L 234.357904 101.966275 
L 234.635149 106.414738 
L 234.912395 106.348398 
L 234.912395 105.695737 
L 235.189641 108.249963 
L 235.189641 108.071811 
L 235.466886 113.496552 
L 235.466886 113.204326 
L 235.744132 111.782457 
L 235.744132 112.243276 
L 236.021377 115.794074 
L 236.021377 115.620596 
L 236.298623 116.755395 
L 236.298623 116.533187 
L 236.575868 118.805711 
L 236.575868 118.765063 
L 236.853114 123.797496 
L 237.130359 123.203454 
L 237.130359 122.76112 
L 237.407605 126.157829 
L 237.684851 127.1816 
L 237.684851 126.946245 
L 237.962096 129.176221 
L 237.962096 129.11157 
L 238.239342 134.434178 
L 238.239342 134.033517 
L 238.516587 133.378865 
L 238.516587 132.984024 
L 238.793833 137.141015 
L 239.071078 136.253813 
L 239.348324 140.293564 
L 239.348324 139.592354 
L 239.625569 140.041956 
L 239.625569 140.018646 
L 239.902815 143.388759 
L 239.902815 143.277761 
L 240.180061 143.597005 
L 240.180061 143.475604 
L 240.457306 146.566215 
L 240.457306 146.335203 
L 240.734552 147.036804 
L 240.734552 146.423495 
L 241.011797 149.623476 
L 241.011797 149.51079 
L 241.289043 150.267091 
L 241.566288 152.934336 
L 241.566288 152.620248 
L 241.843534 153.114538 
L 242.120779 155.720087 
L 242.120779 155.559002 
L 242.398025 156.30861 
L 242.398025 155.923749 
L 242.675271 158.909213 
L 242.675271 158.523689 
L 242.952516 158.219944 
L 242.952516 158.807261 
L 243.229762 162.175233 
L 243.507007 161.560144 
L 243.507007 161.884936 
L 243.784253 165.431965 
L 243.784253 164.962341 
L 244.061498 164.091362 
L 244.615989 167.202629 
L 244.615989 167.507972 
L 244.893235 168.243649 
L 245.170481 170.502181 
L 245.170481 170.125583 
L 245.447726 170.601177 
L 245.724972 173.252862 
L 246.002217 172.700344 
L 246.002217 172.904127 
L 246.279463 176.101425 
L 246.279463 175.986838 
L 246.556708 175.079644 
L 246.556708 174.551731 
L 246.833954 175.929153 
L 246.833954 175.71771 
L 247.111199 178.175201 
L 247.111199 177.812112 
L 247.388445 177.707869 
L 247.388445 177.996536 
L 247.665691 180.520759 
L 247.942936 179.49545 
L 247.942936 179.649599 
L 248.497427 182.165589 
L 248.497427 181.709353 
L 248.774673 181.846284 
L 249.051918 184.022555 
L 249.329164 183.961885 
L 249.329164 183.513881 
L 249.606409 183.094585 
L 249.606409 183.743869 
L 249.883655 185.414933 
L 249.883655 185.312891 
L 250.160901 184.827195 
L 250.160901 184.924473 
L 250.438146 185.620104 
L 250.438146 185.304297 
L 250.992637 186.883843 
L 250.992637 186.725412 
L 251.269883 187.704223 
L 251.547128 187.563945 
L 251.547128 187.707389 
L 251.824374 187.619519 
L 251.824374 187.481141 
L 252.101619 188.925354 
L 252.101619 188.442281 
L 252.378865 188.202373 
L 252.378865 187.960837 
L 252.656111 188.611297 
L 252.933356 188.752962 
L 252.933356 188.999323 
L 253.210602 188.990367 
L 253.210602 189.471691 
L 253.487847 188.81505 
L 253.765093 189.600541 
L 253.765093 190.11208 
L 254.042338 189.907754 
L 254.042338 189.200121 
L 254.319584 189.610522 
L 254.596829 190.258238 
L 254.596829 189.946381 
L 254.874075 190.049419 
L 254.874075 190.203598 
L 255.151321 190.744356 
L 255.151321 190.42285 
L 255.428566 190.44818 
L 255.428566 190.863587 
L 255.705812 190.570215 
L 255.705812 190.382745 
L 255.983057 191.034683 
L 255.983057 190.271868 
L 256.260303 190.345896 
L 256.260303 190.859214 
L 256.537548 190.637791 
L 256.537548 190.335433 
L 256.814794 191.005704 
L 256.814794 190.141902 
L 257.092039 190.906195 
L 257.092039 190.50867 
L 257.369285 190.388324 
L 257.369285 190.768721 
L 257.646531 190.680248 
L 257.646531 190.91494 
L 257.923776 190.240055 
L 257.923776 190.547599 
L 258.201022 190.055842 
L 258.201022 190.502669 
L 258.478267 190.77629 
L 258.478267 191.09861 
L 259.032758 190.874623 
L 259.032758 190.499111 
L 259.587249 191.253483 
L 259.587249 190.892022 
L 259.864495 190.78808 
L 260.141741 190.59078 
L 260.141741 190.246417 
L 260.418986 189.888455 
L 260.418986 190.69225 
L 260.696232 190.680158 
L 260.696232 190.840458 
L 260.973477 190.043629 
L 260.973477 190.418026 
L 261.250723 189.958564 
L 261.250723 190.289116 
L 261.805214 190.17073 
L 262.082459 188.951197 
L 262.359705 189.499011 
L 262.359705 189.402577 
L 262.636951 189.794343 
L 262.914196 189.256389 
L 262.914196 189.903562 
L 263.191442 188.437517 
L 263.191442 188.444211 
L 263.468687 188.777538 
L 263.745933 189.144727 
L 263.745933 188.744519 
L 264.023178 186.784153 
L 264.300424 187.520492 
L 264.300424 186.910952 
L 264.577669 187.952785 
L 264.577669 187.915515 
L 264.854915 187.669425 
L 265.132161 185.251286 
L 265.132161 185.396147 
L 265.409406 186.249214 
L 265.409406 186.148589 
L 265.686652 185.700345 
L 265.686652 185.827325 
L 265.963897 182.87672 
L 266.241143 184.067184 
L 266.241143 183.452758 
L 266.518388 183.918674 
L 266.518388 184.271781 
L 266.795634 183.323939 
L 267.072879 179.828233 
L 267.350125 181.786277 
L 267.350125 181.344636 
L 267.627371 181.489588 
L 267.627371 181.271512 
L 267.904616 176.699657 
L 267.904616 176.822235 
L 268.181862 178.429312 
L 268.459107 177.767996 
L 268.736353 172.810377 
L 268.736353 172.996882 
L 269.013598 174.766762 
L 269.290844 173.173647 
L 269.290844 173.726376 
L 269.568089 169.076844 
L 269.845335 169.721182 
L 269.845335 169.43743 
L 270.122581 162.360591 
L 270.122581 162.671302 
L 270.399826 164.892111 
L 270.399826 164.248526 
L 270.677072 162.183254 
L 270.677072 162.87804 
L 270.954317 157.623973 
L 270.954317 157.727252 
L 271.231563 156.931237 
L 271.231563 157.247647 
L 271.786054 151.8217 
L 271.786054 151.859966 
L 273.172282 142.670331 
L 273.172282 142.793874 
L 273.449527 144.60199 
L 273.449527 144.45161 
L 273.726773 148.931343 
L 274.004018 148.085634 
L 274.835755 153.457092 
L 274.835755 153.214832 
L 275.113001 156.162662 
L 275.113001 155.356123 
L 275.390246 156.336171 
L 275.390246 156.077175 
L 275.667492 158.415556 
L 275.944737 158.490308 
L 275.944737 158.611016 
L 276.221983 160.167042 
L 276.221983 159.962656 
L 276.499228 160.659011 
L 276.499228 161.129449 
L 277.053719 162.275677 
L 277.053719 161.733139 
L 277.330965 162.912688 
L 277.330965 163.427091 
L 277.608211 163.724413 
L 277.608211 163.285245 
L 277.885456 164.070555 
L 277.885456 164.043838 
L 278.162702 163.802483 
L 278.162702 164.112198 
L 278.439947 163.747481 
L 278.439947 163.840447 
L 278.717193 164.901489 
L 278.994438 164.308865 
L 278.994438 164.584054 
L 279.271684 164.880381 
L 279.271684 164.188459 
L 279.548929 164.478815 
L 279.548929 164.661159 
L 279.826175 164.300482 
L 279.826175 164.845251 
L 280.103421 165.058081 
L 280.103421 164.989268 
L 280.380666 164.59886 
L 280.380666 164.803729 
L 280.657912 164.447997 
L 280.657912 164.89389 
L 280.935157 165.044783 
L 280.935157 164.654525 
L 281.212403 164.740374 
L 281.212403 164.42707 
L 281.489648 164.599764 
L 281.489648 164.928538 
L 281.766894 164.736575 
L 282.044139 164.249069 
L 282.044139 164.77071 
L 282.321385 164.971658 
L 282.321385 164.75123 
L 282.598631 164.851855 
L 282.598631 164.445253 
L 282.875876 164.676115 
L 282.875876 164.507492 
L 283.153122 164.786149 
L 283.153122 164.664898 
L 283.430367 164.600187 
L 283.430367 165.16923 
L 283.707613 164.206521 
L 283.707613 164.990746 
L 283.984858 164.308443 
L 283.984858 164.714683 
L 284.262104 164.541235 
L 284.539349 164.823178 
L 284.539349 164.226303 
L 284.816595 164.705516 
L 284.816595 165.18099 
L 285.371086 163.832969 
L 285.371086 164.13991 
L 285.648332 164.3 
L 285.648332 164.579621 
L 285.925577 164.263513 
L 285.925577 164.568313 
L 286.202823 163.934258 
L 286.202823 164.00699 
L 286.480068 163.588206 
L 286.757314 164.348548 
L 287.034559 164.116722 
L 287.311805 163.115174 
L 287.311805 163.260277 
L 287.589051 163.543577 
L 287.589051 163.944842 
L 287.866296 163.656475 
L 288.143542 162.980053 
L 288.143542 163.562514 
L 288.420787 162.811972 
L 288.420787 163.153591 
L 288.698033 163.440902 
L 288.698033 162.840438 
L 288.975278 162.794091 
L 288.975278 162.55759 
L 289.252524 161.325482 
L 289.252524 161.442843 
L 289.529769 162.302605 
L 289.529769 162.28017 
L 289.807015 162.034834 
L 289.807015 161.307963 
L 290.084261 160.659342 
L 290.361506 160.789519 
L 290.361506 161.255072 
L 290.638752 158.800868 
L 290.915997 159.97321 
L 291.193243 159.327484 
L 291.193243 158.450444 
L 291.470488 158.407504 
L 291.470488 158.638969 
L 292.024979 156.925357 
L 292.024979 156.482902 
L 292.302225 155.911537 
L 292.302225 155.94139 
L 292.579471 154.044137 
L 292.856716 153.881092 
L 292.856716 154.191773 
L 293.133962 151.70654 
L 293.411207 152.449152 
L 293.688453 151.787294 
L 293.688453 151.310643 
L 293.965698 149.967176 
L 293.965698 150.069218 
L 294.242944 149.540582 
L 294.520189 146.521647 
L 294.797435 147.925243 
L 295.351926 144.15076 
L 295.629172 144.313171 
L 295.629172 144.509929 
L 295.906417 140.861612 
L 295.906417 141.104204 
L 296.183663 141.662361 
L 296.460908 136.888321 
L 296.460908 136.946007 
L 296.738154 138.947352 
L 296.738154 138.615835 
L 297.569891 133.931776 
L 297.847136 131.247916 
L 297.847136 131.280815 
L 298.124382 130.574449 
L 298.124382 130.257587 
L 298.401627 127.370215 
L 298.401627 127.758242 
L 298.678873 126.736883 
L 298.678873 126.821376 
L 298.956118 122.742937 
L 299.233364 122.717668 
L 299.233364 122.736092 
L 299.510609 117.782031 
L 299.787855 118.519787 
L 299.787855 118.501695 
L 300.065101 114.044065 
L 300.342346 114.239767 
L 300.342346 113.99823 
L 300.619592 110.753439 
L 300.619592 110.770115 
L 306.164503 73.392176 
L 306.996239 67.427642 
L 307.273485 65.772106 
L 308.382467 57.968397 
L 308.936958 54.07399 
L 309.214204 54.233205 
L 309.214204 54.201423 
L 309.491449 54.561617 
L 309.491449 54.420374 
L 309.768695 54.445372 
L 309.768695 54.033342 
L 310.045941 54.072332 
L 310.045941 54.503992 
L 310.600432 53.911127 
L 310.600432 54.670414 
L 310.877677 54.825226 
L 310.877677 53.968269 
L 311.154923 53.931209 
L 311.154923 54.357291 
L 311.432168 54.077488 
L 311.432168 54.222893 
L 311.709414 54.493015 
L 311.709414 54.702196 
L 311.986659 54.266074 
L 311.986659 53.778508 
L 312.263905 54.416755 
L 312.263905 54.199764 
L 312.541151 54.221566 
L 312.541151 54.044922 
L 312.818396 54.234261 
L 312.818396 54.434606 
L 313.095642 54.000715 
L 313.095642 54.401226 
L 313.372887 54.603169 
L 313.372887 54.841329 
L 313.650133 54.106286 
L 313.927378 54.005057 
L 313.927378 54.475496 
L 314.204624 54.580885 
L 314.204624 54.223797 
L 314.481869 54.343239 
L 314.481869 54.201061 
L 314.759115 54.090394 
L 314.759115 54.448146 
L 315.036361 54.954769 
L 315.036361 54.077157 
L 315.313606 54.739527 
L 315.313606 54.002464 
L 315.590852 54.323035 
L 315.868097 54.234924 
L 315.868097 54.39034 
L 316.145343 54.298671 
L 316.145343 54.517591 
L 316.422588 54.373815 
L 316.422588 53.992574 
L 316.699834 54.799746 
L 316.699834 54.426857 
L 316.977079 54.260827 
L 317.254325 53.840988 
L 317.254325 54.378851 
L 317.531571 54.01332 
L 317.531571 54.123534 
L 317.808816 53.88248 
L 317.808816 54.108788 
L 318.086062 54.204016 
L 318.086062 54.093832 
L 318.363307 54.25166 
L 318.640553 54.50568 
L 318.640553 54.504655 
L 318.917798 54.408071 
L 318.917798 53.902925 
L 319.195044 54.200759 
L 319.195044 54.5662 
L 319.472289 54.26137 
L 319.749535 54.402462 
L 319.749535 53.957233 
L 320.026781 53.889536 
L 320.026781 54.471455 
L 320.304026 54.35129 
L 320.304026 54.402492 
L 320.581272 54.617855 
L 320.581272 54.480351 
L 320.858517 54.188306 
L 320.858517 54.351471 
L 321.135763 54.671167 
L 321.135763 54.309255 
L 321.413008 54.063225 
L 321.413008 54.177118 
L 321.690254 54.239538 
L 321.967499 54.772335 
L 321.967499 54.593098 
L 322.244745 54.375323 
L 322.244745 54.559506 
L 322.521991 54.565476 
L 322.521991 54.474199 
L 322.799236 54.020888 
L 323.076482 54.272255 
L 323.076482 53.989166 
L 323.353727 54.101159 
L 323.353727 53.978793 
L 323.630973 53.940256 
L 323.630973 54.176274 
L 323.908218 54.568371 
L 323.908218 54.253891 
L 324.185464 54.61891 
L 324.185464 54.201724 
L 324.462709 54.853571 
L 324.462709 54.42945 
L 324.739955 53.952921 
L 324.739955 54.404573 
L 325.017201 53.874851 
L 325.017201 54.202297 
L 325.571692 54.439401 
L 325.571692 53.965435 
L 325.848937 54.047545 
L 325.848937 54.409639 
L 326.126183 54.416182 
L 326.126183 54.1931 
L 326.403428 54.192768 
L 326.403428 54.535895 
L 326.680674 54.180073 
L 326.957919 54.41971 
L 326.957919 54.651477 
L 327.235165 54.381716 
L 327.235165 53.735477 
L 327.512411 54.349903 
L 327.512411 54.053365 
L 327.789656 53.929611 
L 327.789656 54.025442 
L 328.066902 55.456628 
L 328.344147 55.034829 
L 328.344147 55.513047 
L 329.175884 65.317017 
L 329.175884 65.228363 
L 329.453129 69.584915 
L 329.453129 69.51755 
L 329.730375 69.97849 
L 329.730375 70.317666 
L 330.007621 72.563865 
L 330.007621 72.531419 
L 330.562112 79.56179 
L 330.562112 79.172316 
L 330.839357 79.966793 
L 331.116603 81.907408 
L 331.671094 88.594893 
L 331.948339 88.444091 
L 331.948339 88.246158 
L 332.225585 90.213549 
L 332.502831 93.958782 
L 332.780076 94.043637 
L 333.057322 95.436196 
L 333.057322 95.361714 
L 333.334567 98.367894 
L 333.611813 98.713041 
L 333.889058 100.061755 
L 333.889058 99.920934 
L 334.166304 102.453781 
L 334.443549 102.903051 
L 334.443549 102.768743 
L 334.998041 106.296865 
L 335.275286 106.791336 
L 335.275286 106.686278 
L 335.552532 107.565821 
L 335.552532 108.095844 
L 335.829777 110.481899 
L 336.107023 109.583721 
L 336.107023 109.777825 
L 336.384268 111.643325 
L 336.938759 112.984893 
L 336.938759 113.057746 
L 337.216005 115.484841 
L 337.216005 115.475342 
L 337.493251 115.051944 
L 337.493251 115.414038 
L 337.770496 116.944222 
L 337.770496 116.599316 
L 338.047742 117.406639 
L 338.324987 118.537518 
L 338.324987 118.243362 
L 338.602233 120.762639 
L 338.602233 120.671784 
L 338.879478 120.626673 
L 338.879478 120.417522 
L 339.156724 122.507522 
L 339.156724 122.236524 
L 339.433969 123.040862 
L 339.433969 122.450048 
L 339.711215 124.356256 
L 339.988461 126.258394 
L 340.265706 125.873141 
L 340.542952 128.367239 
L 340.820197 128.278254 
L 341.374688 131.046907 
L 341.374688 130.631139 
L 341.651934 132.433435 
L 341.929179 135.601242 
L 341.929179 135.384372 
L 342.206425 134.161009 
L 342.206425 134.557027 
L 342.483671 138.123173 
L 342.483671 137.804471 
L 342.760916 137.194931 
L 343.038162 139.889736 
L 343.038162 139.536659 
L 343.315407 139.416886 
L 343.315407 139.815677 
L 343.592653 143.038214 
L 343.592653 142.709954 
L 343.869898 142.858163 
L 343.869898 143.30695 
L 344.147144 146.109407 
L 344.147144 145.517597 
L 344.424389 145.995273 
L 344.424389 146.370242 
L 344.701635 148.632724 
L 344.701635 148.618823 
L 344.978881 148.888916 
L 344.978881 148.868682 
L 345.256126 152.178667 
L 345.533372 152.414896 
L 345.533372 152.639275 
L 345.810617 155.529632 
L 346.087863 155.679589 
L 346.087863 155.562018 
L 346.365108 159.125661 
L 346.365108 159.10407 
L 346.642354 158.303713 
L 346.642354 158.530444 
L 346.919599 162.650526 
L 347.196845 161.831262 
L 347.196845 161.24295 
L 347.474091 165.597965 
L 347.751336 164.535325 
L 348.028582 165.988735 
L 348.305827 167.976571 
L 348.305827 167.972892 
L 348.583073 168.105813 
L 348.583073 168.520285 
L 348.860318 171.013961 
L 348.860318 170.925488 
L 349.137564 170.640077 
L 349.137564 171.046919 
L 349.414809 173.70756 
L 349.692055 173.185467 
L 349.692055 173.736478 
L 349.969301 174.057592 
L 349.969301 174.478577 
L 350.246546 175.838117 
L 350.246546 175.785528 
L 350.523792 175.940883 
L 350.523792 176.277164 
L 350.801037 178.518056 
L 351.078283 178.086065 
L 351.355528 178.780882 
L 351.632774 180.704037 
L 351.632774 179.879375 
L 351.910019 180.468652 
L 351.910019 180.339229 
L 352.187265 182.593661 
L 352.464511 182.126358 
L 352.464511 181.827559 
L 352.741756 182.149517 
L 352.741756 182.456549 
L 353.019002 183.902601 
L 353.019002 184.708959 
L 353.296247 184.705884 
L 353.296247 184.128156 
L 353.573493 186.883451 
L 353.573493 186.390699 
L 353.850738 185.525449 
L 354.127984 185.6056 
L 354.405229 187.880264 
L 354.682475 187.313121 
L 354.682475 186.922531 
L 355.236966 188.76822 
L 355.514212 188.948241 
L 355.514212 188.775035 
L 355.791457 188.728778 
L 355.791457 189.462494 
L 356.345948 189.898406 
L 356.345948 189.827452 
L 356.623194 191.000126 
L 356.623194 190.732656 
L 356.900439 190.661794 
L 356.900439 190.139671 
L 357.177685 190.248769 
L 357.177685 190.523053 
L 357.454931 190.865517 
L 357.454931 191.265394 
L 358.009422 190.878 
L 358.009422 191.052353 
L 358.286667 191.380463 
L 358.563913 192.042834 
L 358.563913 191.497884 
L 358.841158 191.272178 
L 358.841158 191.555599 
L 359.118404 191.717136 
L 359.118404 191.126955 
L 359.395649 191.282552 
L 359.395649 191.173634 
L 359.672895 191.79994 
L 359.672895 191.412065 
L 359.950141 191.510398 
L 359.950141 191.832386 
L 360.227386 191.523334 
L 360.227386 191.735169 
L 360.504632 191.404134 
L 360.504632 191.100118 
L 360.781877 191.379618 
L 360.781877 191.547186 
L 361.059123 191.439294 
L 361.336368 191.652214 
L 361.336368 190.871095 
L 361.613614 191.273596 
L 361.613614 191.918537 
L 361.890859 191.043337 
L 361.890859 191.181474 
L 362.168105 191.033718 
L 362.168105 191.127347 
L 362.445351 191.517303 
L 362.445351 191.103977 
L 362.722596 190.998407 
L 362.722596 191.124754 
L 362.999842 190.208634 
L 363.277087 190.799207 
L 363.277087 191.135941 
L 363.554333 189.921233 
L 363.554333 190.279919 
L 363.831578 189.859507 
L 363.831578 189.377037 
L 364.108824 189.691577 
L 364.108824 189.169152 
L 364.386069 187.212918 
L 364.386069 187.224497 
L 364.663315 187.891451 
L 364.940561 187.449388 
L 364.940561 187.494771 
L 365.217806 184.401113 
L 365.217806 184.513288 
L 365.495052 185.648117 
L 365.495052 185.447651 
L 365.772297 184.832683 
L 366.049543 180.558452 
L 366.049543 180.959656 
L 366.326788 181.906503 
L 366.326788 181.851742 
L 366.604034 181.951584 
L 366.604034 182.120026 
L 366.881279 180.478904 
L 367.158525 176.71971 
L 367.435771 178.111877 
L 367.435771 177.997803 
L 367.713016 177.607545 
L 367.713016 177.9972 
L 367.990262 176.240286 
L 367.990262 176.349535 
L 368.267507 278.883708 
L 368.267507 278.290481 
L 368.544753 277.33513 
L 368.544753 277.408315 
L 369.099244 273.676802 
L 369.099244 274.560416 
L 370.208226 267.973827 
L 370.485472 266.888722 
L 370.762717 265.497882 
L 370.762717 264.828605 
L 371.871699 258.918048 
L 373.257927 251.177662 
L 373.535173 249.940217 
L 373.535173 249.242325 
L 374.089664 246.761103 
L 375.198646 240.430042 
L 375.198646 240.232832 
L 377.693856 225.963031 
L 377.971102 224.780136 
L 377.971102 224.206117 
L 378.802838 219.785155 
L 380.466312 209.761933 
L 380.466312 209.807134 
L 381.020803 206.983389 
L 381.020803 206.541989 
L 381.852539 201.351819 
L 381.852539 201.71135 
L 383.516013 191.578275 
L 383.793258 190.365437 
L 386.011223 177.479389 
L 386.011223 177.59099 
L 386.288468 178.271574 
L 386.288468 177.771313 
L 386.565714 179.585491 
L 386.565714 179.284912 
L 386.842959 179.123978 
L 387.120205 179.683884 
L 387.397451 180.954047 
L 387.397451 180.90975 
L 387.674696 180.477487 
L 387.674696 180.54253 
L 387.951942 180.541053 
L 387.951942 181.092727 
L 388.229187 181.990483 
L 388.229187 180.986734 
L 388.506433 181.831479 
L 388.783678 181.325911 
L 388.783678 181.477436 
L 389.338169 181.763842 
L 389.338169 181.38049 
L 389.892661 181.745207 
L 389.892661 181.582373 
L 390.447152 181.932737 
L 390.447152 181.843359 
L 390.724397 181.818663 
L 390.724397 181.455966 
L 391.001643 181.79855 
L 391.001643 181.461243 
L 391.278888 182.02115 
L 391.278888 181.863171 
L 391.556134 182.037131 
L 391.556134 181.492905 
L 391.833379 181.802229 
L 391.833379 181.755309 
L 392.110625 181.596848 
L 392.110625 181.786579 
L 392.387871 181.653085 
L 392.387871 181.766225 
L 392.665116 181.916725 
L 392.665116 181.10506 
L 392.942362 181.728833 
L 392.942362 181.611593 
L 393.219607 181.258696 
L 393.219607 181.892179 
L 393.496853 180.686216 
L 393.774098 181.394994 
L 393.774098 181.162052 
L 394.051344 179.729207 
L 394.328589 180.615896 
L 394.328589 180.075529 
L 394.605835 179.519332 
L 394.605835 179.810171 
L 394.883081 178.671331 
L 394.883081 178.695364 
L 395.160326 178.667622 
L 395.160326 178.754014 
L 395.437572 175.96561 
L 395.437572 176.754026 
L 395.714817 176.866622 
L 395.714817 176.744467 
L 396.269308 175.161875 
L 396.269308 174.106985 
L 396.546554 174.669937 
L 396.546554 173.892406 
L 396.823799 170.299513 
L 396.823799 170.593217 
L 397.101045 171.59796 
L 397.101045 171.589849 
L 397.378291 171.5998 
L 397.378291 172.12925 
L 397.655536 170.342815 
L 397.655536 170.839216 
L 397.932782 167.086565 
L 397.932782 167.493408 
L 398.210027 168.426143 
L 398.210027 168.278447 
L 398.487273 168.899717 
L 398.487273 168.426474 
L 398.487273 168.426474 
" clip-path="url(#p512008e463)" style="fill: none; stroke: #ff7f0e; stroke-width: 1.5; stroke-linecap: square"/>
   </g>
   <g id="patch_3">
    <path d="M 57.6 307.584 
L 57.6 41.472 
" style="fill: none; stroke: #000000; stroke-width: 0.8; stroke-linejoin: miter; stroke-linecap: square"/>
   </g>
   <g id="patch_4">
    <path d="M 414.72 307.584 
L 414.72 41.472 
" style="fill: none; stroke: #000000; stroke-width: 0.8; stroke-linejoin: miter; stroke-linecap: square"/>
   </g>
   <g id="patch_5">
    <path d="M 57.6 307.584 
L 414.72 307.584 
" style="fill: none; stroke: #000000; stroke-width: 0.8; stroke-linejoin: miter; stroke-linecap: square"/>
   </g>
   <g id="patch_6">
    <path d="M 57.6 41.472 
L 414.72 41.472 
" style="fill: none; stroke: #000000; stroke-width: 0.8; stroke-linejoin: miter; stroke-linecap: square"/>
   </g>
   <g id="text_17">
    <!-- Actual speed vs Expected speed -->
    <g transform="translate(138.808125 35.472) scale(0.12 -0.12)">
     <defs>
      <path id="DejaVuSans-41" d="M 2188 4044 
L 1331 1722 
L 3047 1722 
L 2188 4044 
z
M 1831 4666 
L 2547 4666 
L 4325 0 
L 3669 0 
L 3244 1197 
L 1141 1197 
L 716 0 
L 50 0 
L 1831 4666 
z
" transform="scale(0.015625)"/>
      <path id="DejaVuSans-75" d="M 544 1381 
L 544 3500 
L 1119 3500 
L 1119 1403 
Q 1119 906 1312 657 
Q 1506 409 1894 409 
Q 2359 409 2629 706 
Q 2900 1003 2900 1516 
L 2900 3500 
L 3475 3500 
L 3475 0 
L 2900 0 
L 2900 538 
Q 2691 219 2414 64 
Q 2138 -91 1772 -91 
Q 1169 -91 856 284 
Q 544 659 544 1381 
z
M 1991 3584 
L 1991 3584 
z
" transform="scale(0.015625)"/>
      <path id="DejaVuSans-61" d="M 2194 1759 
Q 1497 1759 1228 1600 
Q 959 1441 959 1056 
Q 959 750 1161 570 
Q 1363 391 1709 391 
Q 2188 391 2477 730 
Q 2766 1069 2766 1631 
L 2766 1759 
L 2194 1759 
z
M 3341 1997 
L 3341 0 
L 2766 0 
L 2766 531 
Q 2569 213 2275 61 
Q 1981 -91 1556 -91 
Q 1019 -91 701 211 
Q 384 513 384 1019 
Q 384 1609 779 1909 
Q 1175 2209 1959 2209 
L 2766 2209 
L 2766 2266 
Q 2766 2663 2505 2880 
Q 2244 3097 1772 3097 
Q 1472 3097 1187 3025 
Q 903 2953 641 2809 
L 641 3341 
Q 956 3463 1253 3523 
Q 1550 3584 1831 3584 
Q 2591 3584 2966 3190 
Q 3341 2797 3341 1997 
z
" transform="scale(0.015625)"/>
      <path id="DejaVuSans-20" transform="scale(0.015625)"/>
      <path id="DejaVuSans-70" d="M 1159 525 
L 1159 -1331 
L 581 -1331 
L 581 3500 
L 1159 3500 
L 1159 2969 
Q 1341 3281 1617 3432 
Q 1894 3584 2278 3584 
Q 2916 3584 3314 3078 
Q 3713 2572 3713 1747 
Q 3713 922 3314 415 
Q 2916 -91 2278 -91 
Q 1894 -91 1617 61 
Q 1341 213 1159 525 
z
M 3116 1747 
Q 3116 2381 2855 2742 
Q 2594 3103 2138 3103 
Q 1681 3103 1420 2742 
Q 1159 2381 1159 1747 
Q 1159 1113 1420 752 
Q 1681 391 2138 391 
Q 2594 391 2855 752 
Q 3116 1113 3116 1747 
z
" transform="scale(0.015625)"/>
      <path id="DejaVuSans-64" d="M 2906 2969 
L 2906 4863 
L 3481 4863 
L 3481 0 
L 2906 0 
L 2906 525 
Q 2725 213 2448 61 
Q 2172 -91 1784 -91 
Q 1150 -91 751 415 
Q 353 922 353 1747 
Q 353 2572 751 3078 
Q 1150 3584 1784 3584 
Q 2172 3584 2448 3432 
Q 2725 3281 2906 2969 
z
M 947 1747 
Q 947 1113 1208 752 
Q 1469 391 1925 391 
Q 2381 391 2643 752 
Q 2906 1113 2906 1747 
Q 2906 2381 2643 2742 
Q 2381 3103 1925 3103 
Q 1469 3103 1208 2742 
Q 947 2381 947 1747 
z
" transform="scale(0.015625)"/>
      <path id="DejaVuSans-76" d="M 191 3500 
L 800 3500 
L 1894 563 
L 2988 3500 
L 3597 3500 
L 2284 0 
L 1503 0 
L 191 3500 
z
" transform="scale(0.015625)"/>
      <path id="DejaVuSans-45" d="M 628 4666 
L 3578 4666 
L 3578 4134 
L 1259 4134 
L 1259 2753 
L 3481 2753 
L 3481 2222 
L 1259 2222 
L 1259 531 
L 3634 531 
L 3634 0 
L 628 0 
L 628 4666 
z
" transform="scale(0.015625)"/>
      <path id="DejaVuSans-78" d="M 3513 3500 
L 2247 1797 
L 3578 0 
L 2900 0 
L 1881 1375 
L 863 0 
L 184 0 
L 1544 1831 
L 300 3500 
L 978 3500 
L 1906 2253 
L 2834 3500 
L 3513 3500 
z
" transform="scale(0.015625)"/>
     </defs>
     <use xlink:href="#DejaVuSans-41"/>
     <use xlink:href="#DejaVuSans-63" x="66.658203"/>
     <use xlink:href="#DejaVuSans-74" x="121.638672"/>
     <use xlink:href="#DejaVuSans-75" x="160.847656"/>
     <use xlink:href="#DejaVuSans-61" x="224.226562"/>
     <use xlink:href="#DejaVuSans-6c" x="285.505859"/>
     <use xlink:href="#DejaVuSans-20" x="313.289062"/>
     <use xlink:href="#DejaVuSans-73" x="345.076172"/>
     <use xlink:href="#DejaVuSans-70" x="397.175781"/>
     <use xlink:href="#DejaVuSans-65" x="460.652344"/>
     <use xlink:href="#DejaVuSans-65" x="522.175781"/>
     <use xlink:href="#DejaVuSans-64" x="583.699219"/>
     <use xlink:href="#DejaVuSans-20" x="647.175781"/>
     <use xlink:href="#DejaVuSans-76" x="678.962891"/>
     <use xlink:href="#DejaVuSans-73" x="738.142578"/>
     <use xlink:href="#DejaVuSans-20" x="790.242188"/>
     <use xlink:href="#DejaVuSans-45" x="822.029297"/>
     <use xlink:href="#DejaVuSans-78" x="885.212891"/>
     <use xlink:href="#DejaVuSans-70" x="944.392578"/>
     <use xlink:href="#DejaVuSans-65" x="1007.869141"/>
     <use xlink:href="#DejaVuSans-63" x="1069.392578"/>
     <use xlink:href="#DejaVuSans-74" x="1124.373047"/>
     <use xlink:href="#DejaVuSans-65" x="1163.582031"/>
     <use xlink:href="#DejaVuSans-64" x="1225.105469"/>
     <use xlink:href="#DejaVuSans-20" x="1288.582031"/>
     <use xlink:href="#DejaVuSans-73" x="1320.369141"/>
     <use xlink:href="#DejaVuSans-70" x="1372.46875"/>
     <use xlink:href="#DejaVuSans-65" x="1435.945312"/>
     <use xlink:href="#DejaVuSans-65" x="1497.46875"/>
     <use xlink:href="#DejaVuSans-64" x="1558.992188"/>
    </g>
   </g>
   <g id="legend_1">
    <g id="patch_7">
     <path d="M 180.135 302.584 
L 292.185 302.584 
Q 294.185 302.584 294.185 300.584 
L 294.185 272.22775 
Q 294.185 270.22775 292.185 270.22775 
L 180.135 270.22775 
Q 178.135 270.22775 178.135 272.22775 
L 178.135 300.584 
Q 178.135 302.584 180.135 302.584 
z
" style="fill: #ffffff; opacity: 0.8; stroke: #cccccc; stroke-linejoin: miter"/>
    </g>
    <g id="line2d_31">
     <path d="M 182.135 278.326187 
L 192.135 278.326187 
L 202.135 278.326187 
" style="fill: none; stroke: #1f77b4; stroke-width: 1.5; stroke-linecap: square"/>
    </g>
    <g id="text_18">
     <!-- Actual speed -->
     <g transform="translate(210.135 281.826187) scale(0.1 -0.1)">
      <use xlink:href="#DejaVuSans-41"/>
      <use xlink:href="#DejaVuSans-63" x="66.658203"/>
      <use xlink:href="#DejaVuSans-74" x="121.638672"/>
      <use xlink:href="#DejaVuSans-75" x="160.847656"/>
      <use xlink:href="#DejaVuSans-61" x="224.226562"/>
      <use xlink:href="#DejaVuSans-6c" x="285.505859"/>
      <use xlink:href="#DejaVuSans-20" x="313.289062"/>
      <use xlink:href="#DejaVuSans-73" x="345.076172"/>
      <use xlink:href="#DejaVuSans-70" x="397.175781"/>
      <use xlink:href="#DejaVuSans-65" x="460.652344"/>
      <use xlink:href="#DejaVuSans-65" x="522.175781"/>
      <use xlink:href="#DejaVuSans-64" x="583.699219"/>
     </g>
    </g>
    <g id="line2d_32">
     <path d="M 182.135 293.004312 
L 192.135 293.004312 
L 202.135 293.004312 
" style="fill: none; stroke: #ff7f0e; stroke-width: 1.5; stroke-linecap: square"/>
    </g>
    <g id="text_19">
     <!-- Expected speed -->
     <g transform="translate(210.135 296.504312) scale(0.1 -0.1)">
      <use xlink:href="#DejaVuSans-45"/>
      <use xlink:href="#DejaVuSans-78" x="63.183594"/>
      <use xlink:href="#DejaVuSans-70" x="122.363281"/>
      <use xlink:href="#DejaVuSans-65" x="185.839844"/>
      <use xlink:href="#DejaVuSans-63" x="247.363281"/>
      <use xlink:href="#DejaVuSans-74" x="302.34375"/>
      <use xlink:href="#DejaVuSans-65" x="341.552734"/>
      <use xlink:href="#DejaVuSans-64" x="403.076172"/>
      <use xlink:href="#DejaVuSans-20" x="466.552734"/>
      <use xlink:href="#DejaVuSans-73" x="498.339844"/>
      <use xlink:href="#DejaVuSans-70" x="550.439453"/>
      <use xlink:href="#DejaVuSans-65" x="613.916016"/>
      <use xlink:href="#DejaVuSans-65" x="675.439453"/>
      <use xlink:href="#DejaVuSans-64" x="736.962891"/>
     </g>
    </g>
   </g>
  </g>
 </g>
 <defs>
  <clipPath id="p512008e463">
   <rect x="57.6" y="41.472" width="357.12" height="266.112"/>
  </clipPath>
 </defs>
</svg>
