<?xml version="1.0" encoding="utf-8" standalone="no"?>
<!DOCTYPE svg PUBLIC "-//W3C//DTD SVG 1.1//EN"
  "http://www.w3.org/Graphics/SVG/1.1/DTD/svg11.dtd">
<svg xmlns:xlink="http://www.w3.org/1999/xlink" width="460.8pt" height="345.6pt" viewBox="0 0 460.8 345.6" xmlns="http://www.w3.org/2000/svg" version="1.1">
 <metadata>
  <rdf:RDF xmlns:dc="http://purl.org/dc/elements/1.1/" xmlns:cc="http://creativecommons.org/ns#" xmlns:rdf="http://www.w3.org/1999/02/22-rdf-syntax-ns#">
   <cc:Work>
    <dc:type rdf:resource="http://purl.org/dc/dcmitype/StillImage"/>
    <dc:date>2024-01-30T20:58:39.658815</dc:date>
    <dc:format>image/svg+xml</dc:format>
    <dc:creator>
     <cc:Agent>
      <dc:title>Matplotlib v3.7.1, https://matplotlib.org/</dc:title>
     </cc:Agent>
    </dc:creator>
   </cc:Work>
  </rdf:RDF>
 </metadata>
 <defs>
  <style type="text/css">*{stroke-linejoin: round; stroke-linecap: butt}</style>
 </defs>
 <g id="figure_1">
  <g id="patch_1">
   <path d="M 0 345.6 
L 460.8 345.6 
L 460.8 0 
L 0 0 
z
" style="fill: #ffffff"/>
  </g>
  <g id="axes_1">
   <g id="patch_2">
    <path d="M 57.6 307.584 
L 414.72 307.584 
L 414.72 41.472 
L 57.6 41.472 
z
" style="fill: #ffffff"/>
   </g>
   <g id="matplotlib.axis_1">
    <g id="xtick_1">
     <g id="line2d_1">
      <path d="M 73.832727 307.584 
L 73.832727 41.472 
" clip-path="url(#pd8e0d7d6aa)" style="fill: none; stroke: #b0b0b0; stroke-width: 0.8; stroke-linecap: square"/>
     </g>
     <g id="line2d_2">
      <defs>
       <path id="m2d2cfd631a" d="M 0 0 
L 0 3.5 
" style="stroke: #000000; stroke-width: 0.8"/>
      </defs>
      <g>
       <use xlink:href="#m2d2cfd631a" x="73.832727" y="307.584" style="stroke: #000000; stroke-width: 0.8"/>
      </g>
     </g>
     <g id="text_1">
      <!-- 0 -->
      <g transform="translate(70.651477 322.182437) scale(0.1 -0.1)">
       <defs>
        <path id="DejaVuSans-30" d="M 2034 4250 
Q 1547 4250 1301 3770 
Q 1056 3291 1056 2328 
Q 1056 1369 1301 889 
Q 1547 409 2034 409 
Q 2525 409 2770 889 
Q 3016 1369 3016 2328 
Q 3016 3291 2770 3770 
Q 2525 4250 2034 4250 
z
M 2034 4750 
Q 2819 4750 3233 4129 
Q 3647 3509 3647 2328 
Q 3647 1150 3233 529 
Q 2819 -91 2034 -91 
Q 1250 -91 836 529 
Q 422 1150 422 2328 
Q 422 3509 836 4129 
Q 1250 4750 2034 4750 
z
" transform="scale(0.015625)"/>
       </defs>
       <use xlink:href="#DejaVuSans-30"/>
      </g>
     </g>
    </g>
    <g id="xtick_2">
     <g id="line2d_3">
      <path d="M 117.073876 307.584 
L 117.073876 41.472 
" clip-path="url(#pd8e0d7d6aa)" style="fill: none; stroke: #b0b0b0; stroke-width: 0.8; stroke-linecap: square"/>
     </g>
     <g id="line2d_4">
      <g>
       <use xlink:href="#m2d2cfd631a" x="117.073876" y="307.584" style="stroke: #000000; stroke-width: 0.8"/>
      </g>
     </g>
     <g id="text_2">
      <!-- 5 -->
      <g transform="translate(113.892626 322.182437) scale(0.1 -0.1)">
       <defs>
        <path id="DejaVuSans-35" d="M 691 4666 
L 3169 4666 
L 3169 4134 
L 1269 4134 
L 1269 2991 
Q 1406 3038 1543 3061 
Q 1681 3084 1819 3084 
Q 2600 3084 3056 2656 
Q 3513 2228 3513 1497 
Q 3513 744 3044 326 
Q 2575 -91 1722 -91 
Q 1428 -91 1123 -41 
Q 819 9 494 109 
L 494 744 
Q 775 591 1075 516 
Q 1375 441 1709 441 
Q 2250 441 2565 725 
Q 2881 1009 2881 1497 
Q 2881 1984 2565 2268 
Q 2250 2553 1709 2553 
Q 1456 2553 1204 2497 
Q 953 2441 691 2322 
L 691 4666 
z
" transform="scale(0.015625)"/>
       </defs>
       <use xlink:href="#DejaVuSans-35"/>
      </g>
     </g>
    </g>
    <g id="xtick_3">
     <g id="line2d_5">
      <path d="M 160.315025 307.584 
L 160.315025 41.472 
" clip-path="url(#pd8e0d7d6aa)" style="fill: none; stroke: #b0b0b0; stroke-width: 0.8; stroke-linecap: square"/>
     </g>
     <g id="line2d_6">
      <g>
       <use xlink:href="#m2d2cfd631a" x="160.315025" y="307.584" style="stroke: #000000; stroke-width: 0.8"/>
      </g>
     </g>
     <g id="text_3">
      <!-- 10 -->
      <g transform="translate(153.952525 322.182437) scale(0.1 -0.1)">
       <defs>
        <path id="DejaVuSans-31" d="M 794 531 
L 1825 531 
L 1825 4091 
L 703 3866 
L 703 4441 
L 1819 4666 
L 2450 4666 
L 2450 531 
L 3481 531 
L 3481 0 
L 794 0 
L 794 531 
z
" transform="scale(0.015625)"/>
       </defs>
       <use xlink:href="#DejaVuSans-31"/>
       <use xlink:href="#DejaVuSans-30" x="63.623047"/>
      </g>
     </g>
    </g>
    <g id="xtick_4">
     <g id="line2d_7">
      <path d="M 203.556174 307.584 
L 203.556174 41.472 
" clip-path="url(#pd8e0d7d6aa)" style="fill: none; stroke: #b0b0b0; stroke-width: 0.8; stroke-linecap: square"/>
     </g>
     <g id="line2d_8">
      <g>
       <use xlink:href="#m2d2cfd631a" x="203.556174" y="307.584" style="stroke: #000000; stroke-width: 0.8"/>
      </g>
     </g>
     <g id="text_4">
      <!-- 15 -->
      <g transform="translate(197.193674 322.182437) scale(0.1 -0.1)">
       <use xlink:href="#DejaVuSans-31"/>
       <use xlink:href="#DejaVuSans-35" x="63.623047"/>
      </g>
     </g>
    </g>
    <g id="xtick_5">
     <g id="line2d_9">
      <path d="M 246.797323 307.584 
L 246.797323 41.472 
" clip-path="url(#pd8e0d7d6aa)" style="fill: none; stroke: #b0b0b0; stroke-width: 0.8; stroke-linecap: square"/>
     </g>
     <g id="line2d_10">
      <g>
       <use xlink:href="#m2d2cfd631a" x="246.797323" y="307.584" style="stroke: #000000; stroke-width: 0.8"/>
      </g>
     </g>
     <g id="text_5">
      <!-- 20 -->
      <g transform="translate(240.434823 322.182437) scale(0.1 -0.1)">
       <defs>
        <path id="DejaVuSans-32" d="M 1228 531 
L 3431 531 
L 3431 0 
L 469 0 
L 469 531 
Q 828 903 1448 1529 
Q 2069 2156 2228 2338 
Q 2531 2678 2651 2914 
Q 2772 3150 2772 3378 
Q 2772 3750 2511 3984 
Q 2250 4219 1831 4219 
Q 1534 4219 1204 4116 
Q 875 4013 500 3803 
L 500 4441 
Q 881 4594 1212 4672 
Q 1544 4750 1819 4750 
Q 2544 4750 2975 4387 
Q 3406 4025 3406 3419 
Q 3406 3131 3298 2873 
Q 3191 2616 2906 2266 
Q 2828 2175 2409 1742 
Q 1991 1309 1228 531 
z
" transform="scale(0.015625)"/>
       </defs>
       <use xlink:href="#DejaVuSans-32"/>
       <use xlink:href="#DejaVuSans-30" x="63.623047"/>
      </g>
     </g>
    </g>
    <g id="xtick_6">
     <g id="line2d_11">
      <path d="M 290.038471 307.584 
L 290.038471 41.472 
" clip-path="url(#pd8e0d7d6aa)" style="fill: none; stroke: #b0b0b0; stroke-width: 0.8; stroke-linecap: square"/>
     </g>
     <g id="line2d_12">
      <g>
       <use xlink:href="#m2d2cfd631a" x="290.038471" y="307.584" style="stroke: #000000; stroke-width: 0.8"/>
      </g>
     </g>
     <g id="text_6">
      <!-- 25 -->
      <g transform="translate(283.675971 322.182437) scale(0.1 -0.1)">
       <use xlink:href="#DejaVuSans-32"/>
       <use xlink:href="#DejaVuSans-35" x="63.623047"/>
      </g>
     </g>
    </g>
    <g id="xtick_7">
     <g id="line2d_13">
      <path d="M 333.27962 307.584 
L 333.27962 41.472 
" clip-path="url(#pd8e0d7d6aa)" style="fill: none; stroke: #b0b0b0; stroke-width: 0.8; stroke-linecap: square"/>
     </g>
     <g id="line2d_14">
      <g>
       <use xlink:href="#m2d2cfd631a" x="333.27962" y="307.584" style="stroke: #000000; stroke-width: 0.8"/>
      </g>
     </g>
     <g id="text_7">
      <!-- 30 -->
      <g transform="translate(326.91712 322.182437) scale(0.1 -0.1)">
       <defs>
        <path id="DejaVuSans-33" d="M 2597 2516 
Q 3050 2419 3304 2112 
Q 3559 1806 3559 1356 
Q 3559 666 3084 287 
Q 2609 -91 1734 -91 
Q 1441 -91 1130 -33 
Q 819 25 488 141 
L 488 750 
Q 750 597 1062 519 
Q 1375 441 1716 441 
Q 2309 441 2620 675 
Q 2931 909 2931 1356 
Q 2931 1769 2642 2001 
Q 2353 2234 1838 2234 
L 1294 2234 
L 1294 2753 
L 1863 2753 
Q 2328 2753 2575 2939 
Q 2822 3125 2822 3475 
Q 2822 3834 2567 4026 
Q 2313 4219 1838 4219 
Q 1578 4219 1281 4162 
Q 984 4106 628 3988 
L 628 4550 
Q 988 4650 1302 4700 
Q 1616 4750 1894 4750 
Q 2613 4750 3031 4423 
Q 3450 4097 3450 3541 
Q 3450 3153 3228 2886 
Q 3006 2619 2597 2516 
z
" transform="scale(0.015625)"/>
       </defs>
       <use xlink:href="#DejaVuSans-33"/>
       <use xlink:href="#DejaVuSans-30" x="63.623047"/>
      </g>
     </g>
    </g>
    <g id="xtick_8">
     <g id="line2d_15">
      <path d="M 376.520769 307.584 
L 376.520769 41.472 
" clip-path="url(#pd8e0d7d6aa)" style="fill: none; stroke: #b0b0b0; stroke-width: 0.8; stroke-linecap: square"/>
     </g>
     <g id="line2d_16">
      <g>
       <use xlink:href="#m2d2cfd631a" x="376.520769" y="307.584" style="stroke: #000000; stroke-width: 0.8"/>
      </g>
     </g>
     <g id="text_8">
      <!-- 35 -->
      <g transform="translate(370.158269 322.182437) scale(0.1 -0.1)">
       <use xlink:href="#DejaVuSans-33"/>
       <use xlink:href="#DejaVuSans-35" x="63.623047"/>
      </g>
     </g>
    </g>
    <g id="text_9">
     <!-- Time(s) -->
     <g transform="translate(217.420156 335.860562) scale(0.1 -0.1)">
      <defs>
       <path id="DejaVuSans-54" d="M -19 4666 
L 3928 4666 
L 3928 4134 
L 2272 4134 
L 2272 0 
L 1638 0 
L 1638 4134 
L -19 4134 
L -19 4666 
z
" transform="scale(0.015625)"/>
       <path id="DejaVuSans-69" d="M 603 3500 
L 1178 3500 
L 1178 0 
L 603 0 
L 603 3500 
z
M 603 4863 
L 1178 4863 
L 1178 4134 
L 603 4134 
L 603 4863 
z
" transform="scale(0.015625)"/>
       <path id="DejaVuSans-6d" d="M 3328 2828 
Q 3544 3216 3844 3400 
Q 4144 3584 4550 3584 
Q 5097 3584 5394 3201 
Q 5691 2819 5691 2113 
L 5691 0 
L 5113 0 
L 5113 2094 
Q 5113 2597 4934 2840 
Q 4756 3084 4391 3084 
Q 3944 3084 3684 2787 
Q 3425 2491 3425 1978 
L 3425 0 
L 2847 0 
L 2847 2094 
Q 2847 2600 2669 2842 
Q 2491 3084 2119 3084 
Q 1678 3084 1418 2786 
Q 1159 2488 1159 1978 
L 1159 0 
L 581 0 
L 581 3500 
L 1159 3500 
L 1159 2956 
Q 1356 3278 1631 3431 
Q 1906 3584 2284 3584 
Q 2666 3584 2933 3390 
Q 3200 3197 3328 2828 
z
" transform="scale(0.015625)"/>
       <path id="DejaVuSans-65" d="M 3597 1894 
L 3597 1613 
L 953 1613 
Q 991 1019 1311 708 
Q 1631 397 2203 397 
Q 2534 397 2845 478 
Q 3156 559 3463 722 
L 3463 178 
Q 3153 47 2828 -22 
Q 2503 -91 2169 -91 
Q 1331 -91 842 396 
Q 353 884 353 1716 
Q 353 2575 817 3079 
Q 1281 3584 2069 3584 
Q 2775 3584 3186 3129 
Q 3597 2675 3597 1894 
z
M 3022 2063 
Q 3016 2534 2758 2815 
Q 2500 3097 2075 3097 
Q 1594 3097 1305 2825 
Q 1016 2553 972 2059 
L 3022 2063 
z
" transform="scale(0.015625)"/>
       <path id="DejaVuSans-28" d="M 1984 4856 
Q 1566 4138 1362 3434 
Q 1159 2731 1159 2009 
Q 1159 1288 1364 580 
Q 1569 -128 1984 -844 
L 1484 -844 
Q 1016 -109 783 600 
Q 550 1309 550 2009 
Q 550 2706 781 3412 
Q 1013 4119 1484 4856 
L 1984 4856 
z
" transform="scale(0.015625)"/>
       <path id="DejaVuSans-73" d="M 2834 3397 
L 2834 2853 
Q 2591 2978 2328 3040 
Q 2066 3103 1784 3103 
Q 1356 3103 1142 2972 
Q 928 2841 928 2578 
Q 928 2378 1081 2264 
Q 1234 2150 1697 2047 
L 1894 2003 
Q 2506 1872 2764 1633 
Q 3022 1394 3022 966 
Q 3022 478 2636 193 
Q 2250 -91 1575 -91 
Q 1294 -91 989 -36 
Q 684 19 347 128 
L 347 722 
Q 666 556 975 473 
Q 1284 391 1588 391 
Q 1994 391 2212 530 
Q 2431 669 2431 922 
Q 2431 1156 2273 1281 
Q 2116 1406 1581 1522 
L 1381 1569 
Q 847 1681 609 1914 
Q 372 2147 372 2553 
Q 372 3047 722 3315 
Q 1072 3584 1716 3584 
Q 2034 3584 2315 3537 
Q 2597 3491 2834 3397 
z
" transform="scale(0.015625)"/>
       <path id="DejaVuSans-29" d="M 513 4856 
L 1013 4856 
Q 1481 4119 1714 3412 
Q 1947 2706 1947 2009 
Q 1947 1309 1714 600 
Q 1481 -109 1013 -844 
L 513 -844 
Q 928 -128 1133 580 
Q 1338 1288 1338 2009 
Q 1338 2731 1133 3434 
Q 928 4138 513 4856 
z
" transform="scale(0.015625)"/>
      </defs>
      <use xlink:href="#DejaVuSans-54"/>
      <use xlink:href="#DejaVuSans-69" x="57.958984"/>
      <use xlink:href="#DejaVuSans-6d" x="85.742188"/>
      <use xlink:href="#DejaVuSans-65" x="183.154297"/>
      <use xlink:href="#DejaVuSans-28" x="244.677734"/>
      <use xlink:href="#DejaVuSans-73" x="283.691406"/>
      <use xlink:href="#DejaVuSans-29" x="335.791016"/>
     </g>
    </g>
   </g>
   <g id="matplotlib.axis_2">
    <g id="ytick_1">
     <g id="line2d_17">
      <path d="M 57.6 295.488 
L 414.72 295.488 
" clip-path="url(#pd8e0d7d6aa)" style="fill: none; stroke: #b0b0b0; stroke-width: 0.8; stroke-linecap: square"/>
     </g>
     <g id="line2d_18">
      <defs>
       <path id="m3aa8f27d46" d="M 0 0 
L -3.5 0 
" style="stroke: #000000; stroke-width: 0.8"/>
      </defs>
      <g>
       <use xlink:href="#m3aa8f27d46" x="57.6" y="295.488" style="stroke: #000000; stroke-width: 0.8"/>
      </g>
     </g>
     <g id="text_10">
      <!-- 0 -->
      <g transform="translate(44.2375 299.287219) scale(0.1 -0.1)">
       <use xlink:href="#DejaVuSans-30"/>
      </g>
     </g>
    </g>
    <g id="ytick_2">
     <g id="line2d_19">
      <path d="M 57.6 265.248 
L 414.72 265.248 
" clip-path="url(#pd8e0d7d6aa)" style="fill: none; stroke: #b0b0b0; stroke-width: 0.8; stroke-linecap: square"/>
     </g>
     <g id="line2d_20">
      <g>
       <use xlink:href="#m3aa8f27d46" x="57.6" y="265.248" style="stroke: #000000; stroke-width: 0.8"/>
      </g>
     </g>
     <g id="text_11">
      <!-- 1 -->
      <g transform="translate(44.2375 269.047219) scale(0.1 -0.1)">
       <use xlink:href="#DejaVuSans-31"/>
      </g>
     </g>
    </g>
    <g id="ytick_3">
     <g id="line2d_21">
      <path d="M 57.6 235.008 
L 414.72 235.008 
" clip-path="url(#pd8e0d7d6aa)" style="fill: none; stroke: #b0b0b0; stroke-width: 0.8; stroke-linecap: square"/>
     </g>
     <g id="line2d_22">
      <g>
       <use xlink:href="#m3aa8f27d46" x="57.6" y="235.008" style="stroke: #000000; stroke-width: 0.8"/>
      </g>
     </g>
     <g id="text_12">
      <!-- 2 -->
      <g transform="translate(44.2375 238.807219) scale(0.1 -0.1)">
       <use xlink:href="#DejaVuSans-32"/>
      </g>
     </g>
    </g>
    <g id="ytick_4">
     <g id="line2d_23">
      <path d="M 57.6 204.768 
L 414.72 204.768 
" clip-path="url(#pd8e0d7d6aa)" style="fill: none; stroke: #b0b0b0; stroke-width: 0.8; stroke-linecap: square"/>
     </g>
     <g id="line2d_24">
      <g>
       <use xlink:href="#m3aa8f27d46" x="57.6" y="204.768" style="stroke: #000000; stroke-width: 0.8"/>
      </g>
     </g>
     <g id="text_13">
      <!-- 3 -->
      <g transform="translate(44.2375 208.567219) scale(0.1 -0.1)">
       <use xlink:href="#DejaVuSans-33"/>
      </g>
     </g>
    </g>
    <g id="ytick_5">
     <g id="line2d_25">
      <path d="M 57.6 174.528 
L 414.72 174.528 
" clip-path="url(#pd8e0d7d6aa)" style="fill: none; stroke: #b0b0b0; stroke-width: 0.8; stroke-linecap: square"/>
     </g>
     <g id="line2d_26">
      <g>
       <use xlink:href="#m3aa8f27d46" x="57.6" y="174.528" style="stroke: #000000; stroke-width: 0.8"/>
      </g>
     </g>
     <g id="text_14">
      <!-- 4 -->
      <g transform="translate(44.2375 178.327219) scale(0.1 -0.1)">
       <defs>
        <path id="DejaVuSans-34" d="M 2419 4116 
L 825 1625 
L 2419 1625 
L 2419 4116 
z
M 2253 4666 
L 3047 4666 
L 3047 1625 
L 3713 1625 
L 3713 1100 
L 3047 1100 
L 3047 0 
L 2419 0 
L 2419 1100 
L 313 1100 
L 313 1709 
L 2253 4666 
z
" transform="scale(0.015625)"/>
       </defs>
       <use xlink:href="#DejaVuSans-34"/>
      </g>
     </g>
    </g>
    <g id="ytick_6">
     <g id="line2d_27">
      <path d="M 57.6 144.288 
L 414.72 144.288 
" clip-path="url(#pd8e0d7d6aa)" style="fill: none; stroke: #b0b0b0; stroke-width: 0.8; stroke-linecap: square"/>
     </g>
     <g id="line2d_28">
      <g>
       <use xlink:href="#m3aa8f27d46" x="57.6" y="144.288" style="stroke: #000000; stroke-width: 0.8"/>
      </g>
     </g>
     <g id="text_15">
      <!-- 5 -->
      <g transform="translate(44.2375 148.087219) scale(0.1 -0.1)">
       <use xlink:href="#DejaVuSans-35"/>
      </g>
     </g>
    </g>
    <g id="ytick_7">
     <g id="line2d_29">
      <path d="M 57.6 114.048 
L 414.72 114.048 
" clip-path="url(#pd8e0d7d6aa)" style="fill: none; stroke: #b0b0b0; stroke-width: 0.8; stroke-linecap: square"/>
     </g>
     <g id="line2d_30">
      <g>
       <use xlink:href="#m3aa8f27d46" x="57.6" y="114.048" style="stroke: #000000; stroke-width: 0.8"/>
      </g>
     </g>
     <g id="text_16">
      <!-- 6 -->
      <g transform="translate(44.2375 117.847219) scale(0.1 -0.1)">
       <defs>
        <path id="DejaVuSans-36" d="M 2113 2584 
Q 1688 2584 1439 2293 
Q 1191 2003 1191 1497 
Q 1191 994 1439 701 
Q 1688 409 2113 409 
Q 2538 409 2786 701 
Q 3034 994 3034 1497 
Q 3034 2003 2786 2293 
Q 2538 2584 2113 2584 
z
M 3366 4563 
L 3366 3988 
Q 3128 4100 2886 4159 
Q 2644 4219 2406 4219 
Q 1781 4219 1451 3797 
Q 1122 3375 1075 2522 
Q 1259 2794 1537 2939 
Q 1816 3084 2150 3084 
Q 2853 3084 3261 2657 
Q 3669 2231 3669 1497 
Q 3669 778 3244 343 
Q 2819 -91 2113 -91 
Q 1303 -91 875 529 
Q 447 1150 447 2328 
Q 447 3434 972 4092 
Q 1497 4750 2381 4750 
Q 2619 4750 2861 4703 
Q 3103 4656 3366 4563 
z
" transform="scale(0.015625)"/>
       </defs>
       <use xlink:href="#DejaVuSans-36"/>
      </g>
     </g>
    </g>
    <g id="ytick_8">
     <g id="line2d_31">
      <path d="M 57.6 83.808 
L 414.72 83.808 
" clip-path="url(#pd8e0d7d6aa)" style="fill: none; stroke: #b0b0b0; stroke-width: 0.8; stroke-linecap: square"/>
     </g>
     <g id="line2d_32">
      <g>
       <use xlink:href="#m3aa8f27d46" x="57.6" y="83.808" style="stroke: #000000; stroke-width: 0.8"/>
      </g>
     </g>
     <g id="text_17">
      <!-- 7 -->
      <g transform="translate(44.2375 87.607219) scale(0.1 -0.1)">
       <defs>
        <path id="DejaVuSans-37" d="M 525 4666 
L 3525 4666 
L 3525 4397 
L 1831 0 
L 1172 0 
L 2766 4134 
L 525 4134 
L 525 4666 
z
" transform="scale(0.015625)"/>
       </defs>
       <use xlink:href="#DejaVuSans-37"/>
      </g>
     </g>
    </g>
    <g id="ytick_9">
     <g id="line2d_33">
      <path d="M 57.6 53.568 
L 414.72 53.568 
" clip-path="url(#pd8e0d7d6aa)" style="fill: none; stroke: #b0b0b0; stroke-width: 0.8; stroke-linecap: square"/>
     </g>
     <g id="line2d_34">
      <g>
       <use xlink:href="#m3aa8f27d46" x="57.6" y="53.568" style="stroke: #000000; stroke-width: 0.8"/>
      </g>
     </g>
     <g id="text_18">
      <!-- 8 -->
      <g transform="translate(44.2375 57.367219) scale(0.1 -0.1)">
       <defs>
        <path id="DejaVuSans-38" d="M 2034 2216 
Q 1584 2216 1326 1975 
Q 1069 1734 1069 1313 
Q 1069 891 1326 650 
Q 1584 409 2034 409 
Q 2484 409 2743 651 
Q 3003 894 3003 1313 
Q 3003 1734 2745 1975 
Q 2488 2216 2034 2216 
z
M 1403 2484 
Q 997 2584 770 2862 
Q 544 3141 544 3541 
Q 544 4100 942 4425 
Q 1341 4750 2034 4750 
Q 2731 4750 3128 4425 
Q 3525 4100 3525 3541 
Q 3525 3141 3298 2862 
Q 3072 2584 2669 2484 
Q 3125 2378 3379 2068 
Q 3634 1759 3634 1313 
Q 3634 634 3220 271 
Q 2806 -91 2034 -91 
Q 1263 -91 848 271 
Q 434 634 434 1313 
Q 434 1759 690 2068 
Q 947 2378 1403 2484 
z
M 1172 3481 
Q 1172 3119 1398 2916 
Q 1625 2713 2034 2713 
Q 2441 2713 2670 2916 
Q 2900 3119 2900 3481 
Q 2900 3844 2670 4047 
Q 2441 4250 2034 4250 
Q 1625 4250 1398 4047 
Q 1172 3844 1172 3481 
z
" transform="scale(0.015625)"/>
       </defs>
       <use xlink:href="#DejaVuSans-38"/>
      </g>
     </g>
    </g>
    <g id="text_19">
     <!-- Velocity(m/s) -->
     <g transform="translate(38.157812 207.204563) rotate(-90) scale(0.1 -0.1)">
      <defs>
       <path id="DejaVuSans-56" d="M 1831 0 
L 50 4666 
L 709 4666 
L 2188 738 
L 3669 4666 
L 4325 4666 
L 2547 0 
L 1831 0 
z
" transform="scale(0.015625)"/>
       <path id="DejaVuSans-6c" d="M 603 4863 
L 1178 4863 
L 1178 0 
L 603 0 
L 603 4863 
z
" transform="scale(0.015625)"/>
       <path id="DejaVuSans-6f" d="M 1959 3097 
Q 1497 3097 1228 2736 
Q 959 2375 959 1747 
Q 959 1119 1226 758 
Q 1494 397 1959 397 
Q 2419 397 2687 759 
Q 2956 1122 2956 1747 
Q 2956 2369 2687 2733 
Q 2419 3097 1959 3097 
z
M 1959 3584 
Q 2709 3584 3137 3096 
Q 3566 2609 3566 1747 
Q 3566 888 3137 398 
Q 2709 -91 1959 -91 
Q 1206 -91 779 398 
Q 353 888 353 1747 
Q 353 2609 779 3096 
Q 1206 3584 1959 3584 
z
" transform="scale(0.015625)"/>
       <path id="DejaVuSans-63" d="M 3122 3366 
L 3122 2828 
Q 2878 2963 2633 3030 
Q 2388 3097 2138 3097 
Q 1578 3097 1268 2742 
Q 959 2388 959 1747 
Q 959 1106 1268 751 
Q 1578 397 2138 397 
Q 2388 397 2633 464 
Q 2878 531 3122 666 
L 3122 134 
Q 2881 22 2623 -34 
Q 2366 -91 2075 -91 
Q 1284 -91 818 406 
Q 353 903 353 1747 
Q 353 2603 823 3093 
Q 1294 3584 2113 3584 
Q 2378 3584 2631 3529 
Q 2884 3475 3122 3366 
z
" transform="scale(0.015625)"/>
       <path id="DejaVuSans-74" d="M 1172 4494 
L 1172 3500 
L 2356 3500 
L 2356 3053 
L 1172 3053 
L 1172 1153 
Q 1172 725 1289 603 
Q 1406 481 1766 481 
L 2356 481 
L 2356 0 
L 1766 0 
Q 1100 0 847 248 
Q 594 497 594 1153 
L 594 3053 
L 172 3053 
L 172 3500 
L 594 3500 
L 594 4494 
L 1172 4494 
z
" transform="scale(0.015625)"/>
       <path id="DejaVuSans-79" d="M 2059 -325 
Q 1816 -950 1584 -1140 
Q 1353 -1331 966 -1331 
L 506 -1331 
L 506 -850 
L 844 -850 
Q 1081 -850 1212 -737 
Q 1344 -625 1503 -206 
L 1606 56 
L 191 3500 
L 800 3500 
L 1894 763 
L 2988 3500 
L 3597 3500 
L 2059 -325 
z
" transform="scale(0.015625)"/>
       <path id="DejaVuSans-2f" d="M 1625 4666 
L 2156 4666 
L 531 -594 
L 0 -594 
L 1625 4666 
z
" transform="scale(0.015625)"/>
      </defs>
      <use xlink:href="#DejaVuSans-56"/>
      <use xlink:href="#DejaVuSans-65" x="60.658203"/>
      <use xlink:href="#DejaVuSans-6c" x="122.181641"/>
      <use xlink:href="#DejaVuSans-6f" x="149.964844"/>
      <use xlink:href="#DejaVuSans-63" x="211.146484"/>
      <use xlink:href="#DejaVuSans-69" x="266.126953"/>
      <use xlink:href="#DejaVuSans-74" x="293.910156"/>
      <use xlink:href="#DejaVuSans-79" x="333.119141"/>
      <use xlink:href="#DejaVuSans-28" x="392.298828"/>
      <use xlink:href="#DejaVuSans-6d" x="431.3125"/>
      <use xlink:href="#DejaVuSans-2f" x="528.724609"/>
      <use xlink:href="#DejaVuSans-73" x="562.416016"/>
      <use xlink:href="#DejaVuSans-29" x="614.515625"/>
     </g>
    </g>
   </g>
   <g id="line2d_35">
    <path d="M 73.832727 295.488 
L 74.005692 293.94582 
L 74.005692 293.94582 
L 76.427196 256.605983 
L 76.427196 256.605983 
L 78.848701 215.984802 
L 78.848701 215.984802 
L 81.270205 171.79385 
L 81.270205 171.79385 
L 83.691709 123.719478 
L 83.691709 123.719478 
L 85.940249 78.651505 
L 85.940249 78.651505 
L 86.632107 70.55535 
L 86.632107 70.55535 
L 87.323966 65.072385 
L 87.323966 65.072385 
L 88.015824 61.359124 
L 88.015824 61.359124 
L 88.707682 58.844396 
L 88.707682 58.844396 
L 89.399541 57.14134 
L 89.399541 57.14134 
L 90.091399 55.987986 
L 90.091399 55.987986 
L 90.783258 55.206887 
L 90.783258 55.206887 
L 91.648081 54.574871 
L 91.648081 54.574871 
L 92.685868 54.129133 
L 92.685868 54.129133 
L 94.069585 53.825373 
L 94.069585 53.825373 
L 96.14516 53.647924 
L 96.14516 53.647924 
L 98.912594 53.584813 
L 98.912594 53.584813 
L 99.085558 54.285535 
L 99.085558 54.285535 
L 100.469275 73.82505 
L 100.469275 73.82505 
L 100.988169 82.207246 
L 100.988169 82.207246 
L 101.852992 95.796739 
L 101.852992 95.796739 
L 102.198921 99.690108 
L 102.198921 99.690108 
L 102.54485 103.91255 
L 102.54485 103.91255 
L 103.409673 112.213853 
L 103.409673 112.213853 
L 104.447461 120.784262 
L 104.447461 120.784262 
L 105.831177 128.23437 
L 105.831177 128.23437 
L 106.523036 130.715532 
L 106.523036 130.715532 
L 107.04193 131.781522 
L 107.04193 131.781522 
L 107.560823 132.319643 
L 107.560823 132.319643 
L 108.598611 132.556513 
L 108.598611 132.556513 
L 109.463434 132.485782 
L 109.463434 132.485782 
L 110.155292 131.95761 
L 110.155292 131.95761 
L 110.847151 130.806675 
L 110.847151 130.806675 
L 111.366044 129.335167 
L 111.366044 129.335167 
L 112.403832 123.245194 
L 112.403832 123.245194 
L 112.922726 118.647958 
L 112.922726 118.647958 
L 113.787549 108.477732 
L 113.787549 108.477732 
L 114.306443 105.398846 
L 114.306443 105.398846 
L 114.825336 104.035173 
L 114.825336 104.035173 
L 115.171266 103.563127 
L 115.171266 103.563127 
L 115.690159 103.226223 
L 115.690159 103.226223 
L 116.554982 102.977015 
L 116.554982 102.977015 
L 117.59277 102.760255 
L 117.59277 102.760255 
L 118.111664 102.513557 
L 118.111664 102.513557 
L 118.976487 101.482978 
L 118.976487 101.482978 
L 119.49538 100.362676 
L 119.49538 100.362676 
L 120.187239 98.077923 
L 120.187239 98.077923 
L 120.533168 96.580287 
L 120.533168 96.580287 
L 121.397991 90.467392 
L 121.397991 90.467392 
L 121.74392 88.876466 
L 121.74392 88.876466 
L 121.916885 88.511651 
L 121.916885 88.511651 
L 122.089849 88.48767 
L 122.089849 88.48767 
L 124.165425 109.013917 
L 124.165425 109.013917 
L 124.511354 111.320927 
L 124.511354 111.320927 
L 125.030247 113.821321 
L 125.030247 113.821321 
L 125.549141 115.552803 
L 125.549141 115.552803 
L 126.241 116.680422 
L 126.241 116.680422 
L 126.586929 116.99014 
L 126.586929 116.99014 
L 126.759893 117.149142 
L 126.759893 117.149142 
L 127.105823 117.192658 
L 127.105823 117.192658 
L 127.624716 117.385831 
L 127.624716 117.385831 
L 128.14361 117.360822 
L 128.14361 117.360822 
L 129.700292 117.232423 
L 129.700292 117.232423 
L 130.39215 116.95482 
L 130.39215 116.95482 
L 130.738079 116.789044 
L 130.738079 116.789044 
L 131.775867 116.172995 
L 131.775867 116.172995 
L 133.505513 114.531417 
L 133.505513 114.531417 
L 136.099982 110.296849 
L 136.099982 110.296849 
L 138.002592 105.790908 
L 138.002592 105.790908 
L 141.115955 95.684639 
L 141.115955 95.684639 
L 141.980778 91.919699 
L 141.980778 91.919699 
L 142.845601 87.729644 
L 142.845601 87.729644 
L 144.229318 79.311312 
L 144.229318 79.311312 
L 145.267105 72.021869 
L 145.267105 72.021869 
L 146.131928 65.319597 
L 146.131928 65.319597 
L 146.823787 61.526563 
L 146.823787 61.526563 
L 147.515645 58.957796 
L 147.515645 58.957796 
L 148.207503 57.218149 
L 148.207503 57.218149 
L 148.899362 56.039999 
L 148.899362 56.039999 
L 149.59122 55.242117 
L 149.59122 55.242117 
L 150.456043 54.596493 
L 150.456043 54.596493 
L 151.493831 54.141199 
L 151.493831 54.141199 
L 152.877547 53.830907 
L 152.877547 53.830907 
L 154.953122 53.649648 
L 154.953122 53.649648 
L 156.163875 53.609278 
L 156.163875 53.609278 
L 156.336839 54.3605 
L 156.336839 54.3605 
L 156.682768 58.529688 
L 156.682768 58.529688 
L 157.201662 66.883942 
L 157.201662 66.883942 
L 159.796131 108.291362 
L 159.796131 108.291362 
L 162.3906 136.842821 
L 162.3906 136.842821 
L 162.909494 140.941611 
L 162.909494 140.941611 
L 164.466175 150.146909 
L 164.466175 150.146909 
L 164.985069 152.483342 
L 164.985069 152.483342 
L 166.195821 156.207459 
L 166.195821 156.207459 
L 166.714715 157.239913 
L 166.714715 157.239913 
L 167.579538 158.168765 
L 167.579538 158.168765 
L 169.309184 158.522361 
L 169.309184 158.522361 
L 170.519936 158.366897 
L 170.519936 158.366897 
L 171.211794 157.989502 
L 171.211794 157.989502 
L 172.076617 157.036942 
L 172.076617 157.036942 
L 172.595511 156.233314 
L 172.595511 156.233314 
L 173.28737 154.84427 
L 173.28737 154.84427 
L 173.979228 153.103867 
L 173.979228 153.103867 
L 174.671086 150.920509 
L 174.671086 150.920509 
L 175.362945 148.354282 
L 175.362945 148.354282 
L 176.227768 144.727478 
L 176.227768 144.727478 
L 178.476307 133.298905 
L 178.476307 133.298905 
L 179.68706 125.995582 
L 179.68706 125.995582 
L 181.243741 116.61338 
L 181.243741 116.61338 
L 182.281529 110.488359 
L 182.281529 110.488359 
L 183.492281 103.679188 
L 183.492281 103.679188 
L 185.221927 91.294426 
L 185.221927 91.294426 
L 185.913785 84.209617 
L 185.913785 84.209617 
L 186.778608 74.145292 
L 186.778608 74.145292 
L 187.124537 72.119907 
L 187.124537 72.119907 
L 187.297502 71.827487 
L 187.297502 71.827487 
L 187.816396 74.774163 
L 187.816396 74.774163 
L 189.027148 94.165593 
L 189.027148 94.165593 
L 189.373077 100.384419 
L 189.373077 100.384419 
L 190.410865 117.215035 
L 190.410865 117.215035 
L 190.929758 125.799324 
L 190.929758 125.799324 
L 191.275688 130.177441 
L 191.275688 130.177441 
L 191.621617 135.326769 
L 191.621617 135.326769 
L 191.967546 139.770265 
L 191.967546 139.770265 
L 192.48644 146.060548 
L 192.48644 146.060548 
L 192.659404 147.302626 
L 192.659404 147.302626 
L 193.178298 152.811053 
L 193.178298 152.811053 
L 193.351263 153.869272 
L 193.351263 153.869272 
L 193.697192 156.634176 
L 193.697192 156.634176 
L 194.562015 162.080732 
L 194.562015 162.080732 
L 195.080909 165.150788 
L 195.080909 165.150788 
L 196.464625 170.183087 
L 196.464625 170.183087 
L 196.983519 171.177771 
L 196.983519 171.177771 
L 197.502413 172.051798 
L 197.502413 172.051798 
L 198.021307 172.586108 
L 198.021307 172.586108 
L 198.367236 172.820831 
L 198.367236 172.820831 
L 199.405023 173.217338 
L 199.405023 173.217338 
L 200.961705 173.251812 
L 200.961705 173.251812 
L 202.172457 172.798665 
L 202.172457 172.798665 
L 202.691351 172.389216 
L 202.691351 172.389216 
L 203.902103 170.428152 
L 203.902103 170.428152 
L 205.458784 165.200321 
L 205.458784 165.200321 
L 206.150643 161.919462 
L 206.150643 161.919462 
L 206.669536 158.961658 
L 206.669536 158.961658 
L 208.572147 144.233054 
L 208.572147 144.233054 
L 209.782899 130.92576 
L 209.782899 130.92576 
L 213.761085 72.080595 
L 213.761085 72.080595 
L 214.452943 66.105323 
L 214.452943 66.105323 
L 215.144802 62.058666 
L 215.144802 62.058666 
L 215.83666 59.318166 
L 215.83666 59.318166 
L 216.528518 57.462186 
L 216.528518 57.462186 
L 217.220377 56.205261 
L 217.220377 56.205261 
L 217.912235 55.354035 
L 217.912235 55.354035 
L 218.777058 54.665258 
L 218.777058 54.665258 
L 218.950023 54.56341 
L 218.950023 54.56341 
L 219.295952 55.33075 
L 219.295952 55.33075 
L 219.641881 57.685599 
L 219.641881 57.685599 
L 224.138961 109.690507 
L 224.138961 109.690507 
L 225.349713 121.027392 
L 225.349713 121.027392 
L 227.252323 131.62376 
L 227.252323 131.62376 
L 228.117146 134.049976 
L 228.117146 134.049976 
L 228.809005 135.153827 
L 228.809005 135.153827 
L 229.327898 135.53857 
L 229.327898 135.53857 
L 230.538651 135.746379 
L 230.538651 135.746379 
L 231.576438 135.53987 
L 231.576438 135.53987 
L 232.268297 135.079134 
L 232.268297 135.079134 
L 232.78719 134.393623 
L 232.78719 134.393623 
L 233.13312 133.728888 
L 233.13312 133.728888 
L 234.170907 129.871896 
L 234.170907 129.871896 
L 234.862766 125.781241 
L 234.862766 125.781241 
L 235.381659 121.376936 
L 235.381659 121.376936 
L 236.419447 109.196355 
L 236.419447 109.196355 
L 237.28427 95.830366 
L 237.28427 95.830366 
L 238.840951 73.1119 
L 238.840951 73.1119 
L 239.53281 66.803776 
L 239.53281 66.803776 
L 240.224668 62.53168 
L 240.224668 62.53168 
L 240.916526 59.638499 
L 240.916526 59.638499 
L 241.608385 57.679128 
L 241.608385 57.679128 
L 242.300243 56.352197 
L 242.300243 56.352197 
L 242.992102 55.453555 
L 242.992102 55.453555 
L 243.856924 54.726404 
L 243.856924 54.726404 
L 244.548783 54.352516 
L 244.548783 54.352516 
L 244.894712 54.647356 
L 244.894712 54.647356 
L 245.240641 56.286999 
L 245.240641 56.286999 
L 247.489181 74.334262 
L 247.489181 74.334262 
L 248.181039 80.338293 
L 248.181039 80.338293 
L 250.429579 96.699766 
L 250.429579 96.699766 
L 251.467367 100.942528 
L 251.467367 100.942528 
L 252.159225 102.545974 
L 252.159225 102.545974 
L 252.851083 103.337355 
L 252.851083 103.337355 
L 253.369977 103.542503 
L 253.369977 103.542503 
L 254.407765 103.641902 
L 254.407765 103.641902 
L 254.926659 103.554115 
L 254.926659 103.554115 
L 255.445552 103.222231 
L 255.445552 103.222231 
L 255.791482 102.80256 
L 255.791482 102.80256 
L 256.137411 102.305808 
L 256.137411 102.305808 
L 257.348163 99.089875 
L 257.348163 99.089875 
L 257.867057 96.989676 
L 257.867057 96.989676 
L 258.558915 93.503942 
L 258.558915 93.503942 
L 260.115596 83.009362 
L 260.115596 83.009362 
L 261.499313 70.610085 
L 261.499313 70.610085 
L 262.191172 65.109429 
L 262.191172 65.109429 
L 262.88303 61.384224 
L 262.88303 61.384224 
L 263.574888 58.861391 
L 263.574888 58.861391 
L 264.266747 57.152861 
L 264.266747 57.152861 
L 264.958605 55.995788 
L 264.958605 55.995788 
L 265.650464 55.212179 
L 265.650464 55.212179 
L 266.515286 54.578107 
L 266.515286 54.578107 
L 267.553074 54.130948 
L 267.553074 54.130948 
L 268.936791 53.826189 
L 268.936791 53.826189 
L 271.012366 53.648196 
L 271.012366 53.648196 
L 275.163516 53.575741 
L 275.163516 53.575741 
L 278.968737 53.568907 
L 278.968737 53.568907 
L 279.314667 55.564354 
L 279.314667 55.564354 
L 279.660596 59.896113 
L 279.660596 59.896113 
L 282.0821 109.305037 
L 282.0821 109.305037 
L 282.428029 116.765669 
L 282.428029 116.765669 
L 283.119888 130.291991 
L 283.119888 130.291991 
L 283.292852 132.376555 
L 283.292852 132.376555 
L 283.811746 141.036293 
L 283.811746 141.036293 
L 284.33064 147.272325 
L 284.33064 147.272325 
L 284.849534 153.953279 
L 284.849534 153.953279 
L 285.022498 155.403952 
L 285.022498 155.403952 
L 285.541392 161.364437 
L 285.541392 161.364437 
L 286.23325 166.0595 
L 286.23325 166.0595 
L 286.752144 170.655133 
L 286.752144 170.655133 
L 287.444003 174.33023 
L 287.444003 174.33023 
L 287.789932 176.352651 
L 287.789932 176.352651 
L 289.173648 181.76667 
L 289.173648 181.76667 
L 289.519578 182.717052 
L 289.519578 182.717052 
L 290.038471 183.652043 
L 290.038471 183.652043 
L 290.557365 184.20852 
L 290.557365 184.20852 
L 291.249224 184.433172 
L 291.249224 184.433172 
L 291.768117 184.498793 
L 291.768117 184.498793 
L 292.97887 184.327151 
L 292.97887 184.327151 
L 293.324799 184.173502 
L 293.324799 184.173502 
L 293.843693 183.809321 
L 293.843693 183.809321 
L 294.189622 183.364612 
L 294.189622 183.364612 
L 294.708516 182.545047 
L 294.708516 182.545047 
L 295.227409 181.328069 
L 295.227409 181.328069 
L 296.957055 174.737382 
L 296.957055 174.737382 
L 299.03263 162.148833 
L 299.03263 162.148833 
L 302.664887 131.127401 
L 302.664887 131.127401 
L 305.259356 110.96346 
L 305.259356 110.96346 
L 305.605285 110.530634 
L 305.605285 110.530634 
L 305.951214 113.061299 
L 305.951214 113.061299 
L 306.124179 115.140148 
L 306.124179 115.140148 
L 306.643073 123.395668 
L 306.643073 123.395668 
L 306.989002 127.622585 
L 306.989002 127.622585 
L 307.334931 132.530748 
L 307.334931 132.530748 
L 307.68086 136.569573 
L 307.68086 136.569573 
L 308.199754 141.76674 
L 308.199754 141.76674 
L 309.9294 153.902596 
L 309.9294 153.902596 
L 311.313117 160.284234 
L 311.313117 160.284234 
L 312.004975 162.194556 
L 312.004975 162.194556 
L 312.523869 163.510661 
L 312.523869 163.510661 
L 313.734621 165.393131 
L 313.734621 165.393131 
L 314.253515 165.772885 
L 314.253515 165.772885 
L 314.772409 165.943257 
L 314.772409 165.943257 
L 315.291302 166.159322 
L 315.291302 166.159322 
L 315.810196 166.185298 
L 315.810196 166.185298 
L 317.193913 166.014503 
L 317.193913 166.014503 
L 317.712807 165.77733 
L 317.712807 165.77733 
L 318.2317 165.415388 
L 318.2317 165.415388 
L 318.923559 164.439301 
L 318.923559 164.439301 
L 320.307276 161.07876 
L 320.307276 161.07876 
L 320.999134 158.64438 
L 320.999134 158.64438 
L 321.863957 154.921503 
L 321.863957 154.921503 
L 322.555815 151.337307 
L 322.555815 151.337307 
L 323.074709 148.437654 
L 323.074709 148.437654 
L 326.015107 127.914824 
L 326.015107 127.914824 
L 326.87993 120.373059 
L 326.87993 120.373059 
L 327.744753 111.830773 
L 327.744753 111.830773 
L 328.955505 100.40598 
L 328.955505 100.40598 
L 329.301435 99.689201 
L 329.301435 99.689201 
L 329.474399 99.652611 
L 329.474399 99.652611 
L 330.858116 113.124833 
L 330.858116 113.124833 
L 331.37701 118.822956 
L 331.37701 118.822956 
L 332.933691 130.578152 
L 332.933691 130.578152 
L 333.971479 135.420574 
L 333.971479 135.420574 
L 334.490372 136.892112 
L 334.490372 136.892112 
L 335.009266 137.775967 
L 335.009266 137.775967 
L 335.701125 138.339217 
L 335.701125 138.339217 
L 336.738912 138.40003 
L 336.738912 138.40003 
L 337.430771 138.30045 
L 337.430771 138.30045 
L 337.949664 138.093669 
L 337.949664 138.093669 
L 338.468558 137.625947 
L 338.468558 137.625947 
L 338.814487 137.133367 
L 338.814487 137.133367 
L 339.67931 134.480684 
L 339.67931 134.480684 
L 340.02524 132.983774 
L 340.02524 132.983774 
L 340.544133 130.114089 
L 340.544133 130.114089 
L 341.235992 124.456487 
L 341.235992 124.456487 
L 341.581921 122.02631 
L 341.581921 122.02631 
L 341.92785 120.827112 
L 341.92785 120.827112 
L 342.100815 120.532454 
L 342.100815 120.532454 
L 342.273779 120.47406 
L 342.273779 120.47406 
L 342.792673 122.785243 
L 342.792673 122.785243 
L 343.657496 125.658164 
L 343.657496 125.658164 
L 344.003425 126.141762 
L 344.003425 126.141762 
L 344.695284 126.464272 
L 344.695284 126.464272 
L 345.560107 126.171246 
L 345.560107 126.171246 
L 345.906036 125.80888 
L 345.906036 125.80888 
L 346.597894 123.771067 
L 346.597894 123.771067 
L 347.116788 121.164198 
L 347.116788 121.164198 
L 347.808646 115.981576 
L 347.808646 115.981576 
L 348.154575 114.921452 
L 348.154575 114.921452 
L 348.32754 114.801672 
L 348.32754 114.801672 
L 348.846434 117.537726 
L 348.846434 117.537726 
L 349.192363 120.157871 
L 349.192363 120.157871 
L 349.711257 122.793559 
L 349.711257 122.793559 
L 350.057186 124.077731 
L 350.057186 124.077731 
L 350.403115 124.838328 
L 350.403115 124.838328 
L 350.922009 125.353405 
L 350.922009 125.353405 
L 351.959797 125.477117 
L 351.959797 125.477117 
L 352.82462 125.346299 
L 352.82462 125.346299 
L 353.689443 124.907063 
L 353.689443 124.907063 
L 355.246124 123.212353 
L 355.246124 123.212353 
L 356.802805 120.313093 
L 356.802805 120.313093 
L 358.013557 116.997549 
L 358.013557 116.997549 
L 359.22431 112.573407 
L 359.22431 112.573407 
L 360.435062 107.382046 
L 360.435062 107.382046 
L 362.856566 97.87338 
L 362.856566 97.87338 
L 364.413247 93.54156 
L 364.413247 93.54156 
L 365.27807 90.937927 
L 365.27807 90.937927 
L 365.796964 88.994069 
L 365.796964 88.994069 
L 366.834752 83.335016 
L 366.834752 83.335016 
L 368.045504 73.395854 
L 368.045504 73.395854 
L 368.737362 66.996042 
L 368.737362 66.996042 
L 369.429221 62.661894 
L 369.429221 62.661894 
L 370.121079 59.726678 
L 370.121079 59.726678 
L 370.812937 57.738852 
L 370.812937 57.738852 
L 371.504796 56.392628 
L 371.504796 56.392628 
L 372.196654 55.480922 
L 372.196654 55.480922 
L 373.061477 54.743217 
L 373.061477 54.743217 
L 373.9263 54.29001 
L 373.9263 54.29001 
L 375.137052 53.933027 
L 375.137052 53.933027 
L 376.866698 53.705773 
L 376.866698 53.705773 
L 379.807096 53.594279 
L 379.807096 53.594279 
L 389.493114 53.568121 
L 389.493114 53.568121 
L 397.276521 53.63229 
L 397.276521 53.63229 
L 397.795414 53.725399 
L 397.795414 53.725399 
L 398.487273 53.701026 
L 398.487273 53.701026 
" clip-path="url(#pd8e0d7d6aa)" style="fill: none; stroke: #1f77b4; stroke-width: 1.5; stroke-linecap: square"/>
   </g>
   <g id="line2d_36">
    <path d="M 73.832727 268.244784 
L 74.178656 263.596412 
L 74.178656 263.596412 
L 76.600161 223.589527 
L 76.600161 223.589527 
L 79.021665 180.06691 
L 79.021665 180.06691 
L 81.443169 132.719537 
L 81.443169 132.719537 
L 83.864674 81.211382 
L 83.864674 81.211382 
L 85.075426 53.783944 
L 85.075426 53.783944 
L 85.248391 53.568 
L 85.248391 53.568 
L 98.739629 53.568 
L 98.739629 53.568 
L 98.912594 55.620449 
L 98.912594 55.620449 
L 99.085558 60.853088 
L 99.085558 60.853088 
L 99.258523 59.936846 
L 99.258523 59.936846 
L 100.469275 84.002171 
L 100.469275 84.002171 
L 100.64224 84.167916 
L 100.64224 84.167916 
L 100.988169 90.822531 
L 100.988169 90.822531 
L 101.161133 95.087157 
L 101.161133 95.087157 
L 101.334098 94.2522 
L 101.334098 94.2522 
L 101.680027 101.41521 
L 101.680027 101.41521 
L 101.852992 100.933638 
L 101.852992 100.933638 
L 102.198921 107.524385 
L 102.198921 107.524385 
L 102.371886 106.819188 
L 102.371886 106.819188 
L 102.54485 109.310027 
L 102.54485 109.310027 
L 102.717815 110.149822 
L 102.717815 110.149822 
L 103.582638 119.53021 
L 103.582638 119.53021 
L 103.755602 119.192761 
L 103.755602 119.192761 
L 103.928567 121.467626 
L 103.928567 121.467626 
L 104.101531 121.649913 
L 104.101531 121.649913 
L 104.447461 123.721201 
L 104.447461 123.721201 
L 104.620425 124.852117 
L 104.620425 124.852117 
L 104.79339 126.806437 
L 104.79339 126.806437 
L 104.966354 126.723096 
L 104.966354 126.723096 
L 105.139319 128.016461 
L 105.139319 128.016461 
L 105.312284 128.108874 
L 105.312284 128.108874 
L 105.658213 129.476146 
L 105.658213 129.476146 
L 106.177107 131.16254 
L 106.177107 131.16254 
L 106.350071 131.782611 
L 106.350071 131.782611 
L 106.523036 131.886485 
L 106.523036 131.886485 
L 106.868965 132.357534 
L 106.868965 132.357534 
L 107.04193 132.412359 
L 107.04193 132.412359 
L 107.214894 132.596914 
L 107.214894 132.596914 
L 107.560823 132.473081 
L 107.560823 132.473081 
L 107.733788 132.59014 
L 107.733788 132.59014 
L 107.906753 132.494037 
L 107.906753 132.494037 
L 108.079717 132.612487 
L 108.252682 132.51587 
L 108.252682 132.51587 
L 108.425646 132.635288 
L 108.425646 132.635288 
L 108.598611 132.481699 
L 108.598611 132.481699 
L 108.771576 132.593859 
L 108.771576 132.593859 
L 108.94454 132.34193 
L 108.94454 132.34193 
L 109.117505 132.393338 
L 109.117505 132.393338 
L 109.290469 132.052654 
L 109.290469 132.052654 
L 109.463434 131.102271 
L 109.463434 131.102271 
L 109.636399 131.504977 
L 109.636399 131.504977 
L 109.809363 130.297162 
L 109.809363 130.297162 
L 109.982328 130.621879 
L 109.982328 130.621879 
L 110.155292 129.234982 
L 110.155292 129.234982 
L 110.328257 129.368007 
L 110.328257 129.368007 
L 110.501221 127.758514 
L 110.501221 127.758514 
L 110.674186 127.533377 
L 111.19308 123.835872 
L 111.19308 123.835872 
L 111.366044 119.19379 
L 111.366044 119.19379 
L 111.539009 120.606058 
L 111.539009 120.606058 
L 111.711974 116.039092 
L 111.711974 116.039092 
L 111.884938 116.637663 
L 111.884938 116.637663 
L 112.057903 112.260997 
L 112.057903 112.260997 
L 112.230867 111.744317 
L 112.230867 111.744317 
L 112.576797 105.609619 
L 112.576797 105.609619 
L 112.749761 102.534483 
L 112.749761 102.534483 
L 112.922726 94.125192 
L 112.922726 94.125192 
L 113.09569 95.246794 
L 113.09569 95.246794 
L 113.268655 90.222902 
L 113.268655 90.222902 
L 113.44162 90.650314 
L 113.44162 90.650314 
L 113.614584 91.96899 
L 113.787549 95.602598 
L 113.787549 95.602598 
L 113.960513 95.585119 
L 113.960513 95.585119 
L 114.306443 99.588744 
L 114.306443 99.588744 
L 114.479407 99.528808 
L 114.479407 99.528808 
L 114.652372 100.816669 
L 114.652372 100.816669 
L 114.825336 100.987284 
L 114.825336 100.987284 
L 115.171266 102.039817 
L 115.171266 102.039817 
L 115.517195 102.372759 
L 115.517195 102.372759 
L 115.863124 102.600799 
L 115.863124 102.600799 
L 116.036089 102.775496 
L 116.036089 102.775496 
L 116.209053 102.455889 
L 116.209053 102.455889 
L 116.554982 102.755416 
L 116.554982 102.755416 
L 116.727947 102.381045 
L 116.727947 102.381045 
L 116.900912 102.54918 
L 116.900912 102.54918 
L 117.073876 102.361177 
L 117.073876 102.361177 
L 117.419805 102.473307 
L 117.419805 102.473307 
L 117.765734 101.88145 
L 117.765734 101.88145 
L 117.938699 101.504508 
L 117.938699 101.504508 
L 118.111664 100.633173 
L 118.111664 100.633173 
L 118.284628 100.793748 
L 118.284628 100.793748 
L 118.457593 100.386022 
L 118.457593 100.386022 
L 118.630557 98.778766 
L 118.630557 98.778766 
L 118.803522 99.109168 
L 118.803522 99.109168 
L 118.976487 98.256158 
L 118.976487 98.256158 
L 119.149451 96.100227 
L 119.149451 96.100227 
L 119.322416 96.954477 
L 119.322416 96.954477 
L 119.49538 94.990419 
L 119.49538 94.990419 
L 119.668345 94.704016 
L 119.668345 94.704016 
L 119.84131 93.38401 
L 119.84131 93.38401 
L 120.014274 90.750741 
L 120.014274 90.750741 
L 120.187239 90.573746 
L 120.187239 90.573746 
L 120.360203 88.753994 
L 120.360203 88.753994 
L 120.533168 84.860715 
L 120.533168 84.860715 
L 120.706133 84.804075 
L 120.706133 84.804075 
L 120.879097 82.343749 
L 120.879097 82.343749 
L 121.052062 76.975 
L 121.052062 76.975 
L 121.225026 76.965384 
L 121.225026 76.965384 
L 121.397991 78.165246 
L 121.397991 78.165246 
L 121.570956 84.491001 
L 121.570956 84.491001 
L 121.74392 84.946899 
L 121.74392 84.946899 
L 122.608743 100.451098 
L 122.608743 100.451098 
L 122.781708 100.916582 
L 122.781708 100.916582 
L 123.300602 106.109879 
L 123.300602 106.109879 
L 123.646531 109.996112 
L 123.646531 109.996112 
L 123.819495 109.985075 
L 123.819495 109.985075 
L 124.165425 113.156132 
L 124.165425 113.156132 
L 124.338389 112.999609 
L 124.338389 112.999609 
L 124.511354 114.181419 
L 124.511354 114.181419 
L 124.684318 114.486934 
L 124.684318 114.486934 
L 125.030247 115.877913 
L 125.030247 115.877913 
L 125.203212 115.99086 
L 125.203212 115.99086 
L 125.376177 116.544282 
L 125.376177 116.544282 
L 125.549141 116.535754 
L 125.549141 116.535754 
L 125.722106 116.968307 
L 125.722106 116.968307 
L 125.89507 116.917746 
L 125.89507 116.917746 
L 126.068035 117.047627 
L 126.068035 117.047627 
L 126.241 117.331187 
L 126.241 117.331187 
L 126.413964 117.153406 
L 126.413964 117.153406 
L 126.586929 117.452117 
L 126.586929 117.452117 
L 126.759893 117.138316 
L 126.759893 117.138316 
L 127.278787 117.45635 
L 127.278787 117.45635 
L 127.451752 117.475916 
L 127.451752 117.475916 
L 127.624716 116.939307 
L 127.624716 116.939307 
L 127.970646 117.404852 
L 127.970646 117.404852 
L 128.14361 117.322599 
L 128.14361 117.322599 
L 128.316575 117.424871 
L 128.316575 117.424871 
L 128.489539 117.19169 
L 128.489539 117.19169 
L 128.662504 117.400346 
L 128.662504 117.400346 
L 128.835469 116.910791 
L 128.835469 116.910791 
L 129.008433 116.966523 
L 129.008433 116.966523 
L 129.181398 117.166137 
L 129.181398 117.166137 
L 129.354362 116.88173 
L 129.354362 116.88173 
L 129.527327 117.072091 
L 129.527327 117.072091 
L 129.700292 116.148773 
L 129.700292 116.148773 
L 129.873256 116.320264 
L 129.873256 116.320264 
L 130.046221 116.651966 
L 130.046221 116.651966 
L 130.219185 116.328489 
L 130.219185 116.328489 
L 130.39215 116.521269 
L 130.39215 116.521269 
L 130.565115 115.562691 
L 130.565115 115.562691 
L 130.738079 115.875101 
L 130.738079 115.875101 
L 130.911044 115.366978 
L 130.911044 115.366978 
L 131.084008 115.440733 
L 131.084008 115.440733 
L 131.256973 115.726713 
L 131.256973 115.726713 
L 131.429938 114.732452 
L 131.429938 114.732452 
L 131.602902 115.424464 
L 131.602902 115.424464 
L 131.775867 114.459476 
L 131.775867 114.459476 
L 131.948831 114.590233 
L 132.29476 114.061941 
L 132.29476 114.061941 
L 132.467725 114.290192 
L 132.467725 114.290192 
L 132.64069 113.272646 
L 132.64069 113.272646 
L 132.813654 113.457322 
L 132.813654 113.457322 
L 132.986619 112.976718 
L 132.986619 112.976718 
L 133.159583 112.837039 
L 133.159583 112.837039 
L 133.332548 112.895856 
L 133.332548 112.895856 
L 133.505513 111.57839 
L 133.505513 111.57839 
L 133.678477 111.791128 
L 133.678477 111.791128 
L 134.024406 111.04296 
L 134.024406 111.04296 
L 134.197371 111.030502 
L 134.197371 111.030502 
L 134.370336 110.179336 
L 134.370336 110.179336 
L 134.5433 110.506987 
L 134.5433 110.506987 
L 134.716265 109.537885 
L 134.716265 109.537885 
L 135.062194 109.143284 
L 135.062194 109.143284 
L 135.235159 108.311714 
L 135.235159 108.311714 
L 135.408123 108.495906 
L 135.408123 108.495906 
L 136.099982 106.08605 
L 136.272946 106.199934 
L 136.445911 105.762028 
L 136.445911 105.762028 
L 136.618875 104.17839 
L 136.618875 104.17839 
L 136.79184 104.541844 
L 136.79184 104.541844 
L 137.137769 103.617438 
L 137.137769 103.617438 
L 137.310734 103.455412 
L 137.310734 103.455412 
L 137.483698 101.836544 
L 137.483698 101.836544 
L 137.656663 102.290325 
L 137.656663 102.290325 
L 138.002592 99.949628 
L 138.002592 99.949628 
L 138.175557 100.63535 
L 138.175557 100.63535 
L 138.348521 99.324567 
L 138.348521 99.324567 
L 138.521486 99.312774 
L 138.521486 99.312774 
L 138.694451 98.633039 
L 138.694451 98.633039 
L 138.867415 97.273993 
L 138.867415 97.273993 
L 139.04038 97.456764 
L 139.04038 97.456764 
L 139.213344 96.830765 
L 139.213344 96.830765 
L 139.386309 95.071432 
L 139.386309 95.071432 
L 139.559274 95.450158 
L 139.732238 94.339261 
L 139.732238 94.339261 
L 139.905203 94.091808 
L 139.905203 94.091808 
L 140.597061 91.122572 
L 140.597061 91.122572 
L 140.770026 89.315188 
L 140.770026 89.315188 
L 140.94299 89.268376 
L 140.94299 89.268376 
L 141.115955 88.471915 
L 141.115955 88.471915 
L 141.288919 86.541242 
L 141.288919 86.541242 
L 141.461884 86.548833 
L 141.461884 86.548833 
L 141.634849 85.496602 
L 141.634849 85.496602 
L 141.807813 83.602277 
L 141.807813 83.602277 
L 141.980778 83.614524 
L 141.980778 83.614524 
L 142.153742 82.493739 
L 142.153742 82.493739 
L 142.326707 80.502828 
L 142.326707 80.502828 
L 142.499672 80.451602 
L 142.499672 80.451602 
L 142.672636 79.247354 
L 142.672636 79.247354 
L 142.845601 77.247583 
L 142.845601 77.247583 
L 143.19153 75.683843 
L 143.19153 75.683843 
L 143.537459 71.274095 
L 143.537459 71.274095 
L 143.710424 71.904024 
L 143.710424 71.904024 
L 144.056353 66.965348 
L 144.056353 66.965348 
L 144.229318 67.185435 
L 144.229318 67.185435 
L 144.402282 65.904166 
L 144.402282 65.904166 
L 144.575247 63.290735 
L 144.575247 63.290735 
L 144.748211 62.880983 
L 144.748211 62.880983 
L 145.094141 59.347197 
L 145.094141 59.347197 
L 145.267105 56.091921 
L 145.267105 56.091921 
L 145.44007 56.078555 
L 145.44007 56.078555 
L 145.785999 53.568 
L 145.785999 53.568 
L 155.99091 53.568 
L 155.99091 53.568 
L 156.336839 59.200321 
L 156.336839 59.200321 
L 156.682768 68.387535 
L 156.682768 68.387535 
L 156.855733 68.591232 
L 156.855733 68.591232 
L 158.066485 91.921725 
L 158.066485 91.921725 
L 158.23945 91.766896 
L 158.23945 91.766896 
L 158.412414 94.405729 
L 158.412414 94.405729 
L 158.585379 99.36394 
L 158.585379 99.36394 
L 158.758344 99.503497 
L 158.758344 99.503497 
L 158.931308 101.897749 
L 158.931308 101.897749 
L 159.104273 106.791247 
L 159.104273 106.791247 
L 159.277237 106.828442 
L 159.277237 106.828442 
L 159.450202 109.348069 
L 159.450202 109.348069 
L 159.623167 114.41714 
L 159.623167 114.41714 
L 159.796131 114.010472 
L 159.796131 114.010472 
L 159.969096 117.29883 
L 159.969096 117.29883 
L 160.14206 118.316951 
L 160.14206 118.316951 
L 160.315025 120.466803 
L 160.315025 120.466803 
L 160.48799 124.55891 
L 160.48799 124.55891 
L 160.660954 124.381704 
L 160.660954 124.381704 
L 160.833919 127.317614 
L 160.833919 127.317614 
L 161.006883 128.109328 
L 161.179848 129.928838 
L 161.179848 129.928838 
L 161.352813 134.028233 
L 161.352813 134.028233 
L 161.525777 133.100198 
L 161.525777 133.100198 
L 161.698742 136.694676 
L 161.698742 136.694676 
L 161.871706 136.206148 
L 161.871706 136.206148 
L 162.044671 139.081065 
L 162.044671 139.081065 
L 162.217635 139.081609 
L 162.217635 139.081609 
L 162.3906 141.393609 
L 162.3906 141.393609 
L 162.563565 141.721138 
L 162.563565 141.721138 
L 162.736529 143.594052 
L 162.736529 143.594052 
L 162.909494 144.126216 
L 162.909494 144.126216 
L 163.255423 146.30398 
L 163.255423 146.30398 
L 163.428388 147.770045 
L 163.428388 147.770045 
L 163.601352 148.2645 
L 163.601352 148.2645 
L 164.120246 151.342962 
L 164.120246 151.342962 
L 164.293211 151.586091 
L 164.293211 151.586091 
L 164.466175 152.830619 
L 164.466175 152.830619 
L 164.63914 152.966064 
L 164.63914 152.966064 
L 164.812104 153.931627 
L 164.812104 153.931627 
L 164.985069 154.174635 
L 164.985069 154.174635 
L 165.158034 155.065324 
L 165.158034 155.065324 
L 165.330998 155.216071 
L 165.330998 155.216071 
L 165.503963 156.226238 
L 165.503963 156.226238 
L 165.676927 156.300084 
L 165.676927 156.300084 
L 165.849892 156.792421 
L 165.849892 156.792421 
L 166.022857 156.826532 
L 166.022857 156.826532 
L 166.195821 157.387635 
L 166.195821 157.387635 
L 167.406573 158.53606 
L 167.406573 158.53606 
L 167.579538 158.303242 
L 167.579538 158.303242 
L 167.752503 158.520698 
L 168.271396 158.506183 
L 168.271396 158.506183 
L 168.444361 158.587317 
L 168.444361 158.587317 
L 168.617326 158.498078 
L 168.617326 158.498078 
L 168.79029 158.620006 
L 168.79029 158.620006 
L 169.136219 158.430643 
L 169.136219 158.430643 
L 170.001042 158.306871 
L 170.001042 158.306871 
L 170.174007 157.878068 
L 170.174007 157.878068 
L 170.346971 157.788708 
L 170.346971 157.788708 
L 170.519936 157.48903 
L 170.519936 157.48903 
L 170.692901 157.51676 
L 170.692901 157.51676 
L 170.865865 156.907817 
L 170.865865 156.907817 
L 171.03883 156.980272 
L 171.03883 156.980272 
L 171.211794 156.179699 
L 171.211794 156.179699 
L 171.384759 156.329175 
L 171.384759 156.329175 
L 171.557724 155.367996 
L 171.557724 155.367996 
L 171.730688 155.770551 
L 171.730688 155.770551 
L 171.903653 154.364664 
L 171.903653 154.364664 
L 172.076617 154.743057 
L 172.076617 154.743057 
L 172.249582 153.019891 
L 172.249582 153.019891 
L 172.422547 153.912696 
L 172.595511 151.762753 
L 172.595511 151.762753 
L 172.768476 152.589545 
L 172.768476 152.589545 
L 173.28737 150.738071 
L 173.28737 150.738071 
L 173.460334 149.669601 
L 173.460334 149.669601 
L 173.633299 149.401977 
L 173.633299 149.401977 
L 174.152193 146.540668 
L 174.152193 146.540668 
L 174.325157 146.45524 
L 174.325157 146.45524 
L 174.498122 144.848922 
L 174.498122 144.848922 
L 174.671086 144.851553 
L 174.671086 144.851553 
L 174.844051 143.091252 
L 174.844051 143.091252 
L 175.017016 143.167094 
L 175.017016 143.167094 
L 175.18998 141.286166 
L 175.18998 141.286166 
L 175.362945 141.409454 
L 175.362945 141.409454 
L 175.535909 139.429853 
L 175.535909 139.429853 
L 175.708874 139.578816 
L 175.708874 139.578816 
L 175.881839 137.542121 
L 175.881839 137.542121 
L 176.054803 137.684552 
L 176.054803 137.684552 
L 176.227768 135.629078 
L 176.227768 135.629078 
L 176.400732 135.731804 
L 176.400732 135.731804 
L 176.573697 133.696138 
L 176.573697 133.696138 
L 176.746662 133.726468 
L 176.746662 133.726468 
L 176.919626 131.756181 
L 176.919626 131.756181 
L 177.092591 131.669725 
L 177.092591 131.669725 
L 177.265555 129.748396 
L 177.265555 129.748396 
L 177.43852 129.573156 
L 177.43852 129.573156 
L 177.611484 127.808258 
L 177.611484 127.808258 
L 177.784449 127.442536 
L 177.784449 127.442536 
L 178.130378 125.174929 
L 178.130378 125.174929 
L 178.303343 124.037875 
L 178.303343 124.037875 
L 178.476307 121.042814 
L 178.476307 121.042814 
L 178.649272 121.904261 
L 178.822237 119.147522 
L 178.822237 119.147522 
L 178.995201 119.677599 
L 178.995201 119.677599 
L 179.168166 117.315795 
L 179.168166 117.315795 
L 179.34113 117.463729 
L 179.34113 117.463729 
L 179.514095 115.734122 
L 179.514095 115.734122 
L 179.68706 115.466891 
L 179.68706 115.466891 
L 179.860024 113.954468 
L 179.860024 113.954468 
L 180.032989 111.089167 
L 180.032989 111.089167 
L 180.205953 112.060416 
L 180.205953 112.060416 
L 180.378918 109.449071 
L 180.378918 109.449071 
L 180.551883 109.773576 
L 180.551883 109.773576 
L 180.724847 108.281716 
L 180.724847 108.281716 
L 180.897812 107.945054 
L 180.897812 107.945054 
L 181.070776 106.990649 
L 181.070776 106.990649 
L 181.243741 104.523096 
L 181.243741 104.523096 
L 181.416706 105.369906 
L 181.416706 105.369906 
L 181.58967 103.266079 
L 181.58967 103.266079 
L 181.762635 103.043513 
L 181.762635 103.043513 
L 181.935599 102.108522 
L 181.935599 102.108522 
L 182.108564 99.970675 
L 182.108564 99.970675 
L 182.281529 100.662899 
L 182.281529 100.662899 
L 182.454493 98.807312 
L 182.454493 98.807312 
L 182.627458 98.414797 
L 182.627458 98.414797 
L 182.800422 97.610534 
L 182.800422 97.610534 
L 182.973387 95.004783 
L 182.973387 95.004783 
L 183.146352 95.517926 
L 183.146352 95.517926 
L 183.319316 93.909672 
L 183.319316 93.909672 
L 183.492281 90.869766 
L 183.492281 90.869766 
L 183.665245 91.621169 
L 183.665245 91.621169 
L 183.83821 89.471529 
L 183.83821 89.471529 
L 184.011175 88.843776 
L 184.011175 88.843776 
L 184.184139 87.377711 
L 184.184139 87.377711 
L 184.357104 83.802406 
L 184.357104 83.802406 
L 184.530068 83.603547 
L 184.530068 83.603547 
L 184.703033 81.621013 
L 184.703033 81.621013 
L 184.875997 77.31647 
L 184.875997 77.31647 
L 185.048962 77.12121 
L 185.048962 77.12121 
L 185.221927 74.240397 
L 185.221927 74.240397 
L 185.394891 69.354671 
L 185.394891 69.354671 
L 185.567856 69.040538 
L 185.567856 69.040538 
L 185.74082 65.955967 
L 185.74082 65.955967 
L 185.913785 60.299152 
L 185.913785 60.299152 
L 186.08675 59.204555 
L 186.08675 59.204555 
L 186.259714 55.276227 
L 186.259714 55.276227 
L 186.432679 55.023119 
L 186.432679 55.023119 
L 186.605643 60.950794 
L 186.605643 60.950794 
L 186.778608 61.017775 
L 186.778608 61.017775 
L 187.124537 68.969928 
L 187.124537 68.969928 
L 187.297502 74.727019 
L 187.297502 74.727019 
L 187.470466 74.128448 
L 187.470466 74.128448 
L 188.508254 96.671189 
L 188.508254 96.671189 
L 188.681219 96.06282 
L 188.681219 96.06282 
L 188.854183 99.246548 
L 188.854183 99.246548 
L 189.027148 105.154053 
L 189.027148 105.154053 
L 189.200112 105.025896 
L 189.200112 105.025896 
L 189.373077 108.132481 
L 189.373077 108.132481 
L 189.546042 114.334705 
L 189.546042 114.334705 
L 189.719006 113.961695 
L 189.719006 113.961695 
L 190.064935 119.415177 
L 190.064935 119.415177 
L 190.2379 121.966465 
L 190.2379 121.966465 
L 190.410865 127.70508 
L 190.410865 127.70508 
L 190.583829 127.234908 
L 190.583829 127.234908 
L 190.756794 131.071154 
L 190.756794 131.071154 
L 190.929758 131.805019 
L 190.929758 131.805019 
L 191.102723 134.579781 
L 191.102723 134.579781 
L 191.275688 140.297651 
L 191.275688 140.297651 
L 191.448652 138.500064 
L 191.448652 138.500064 
L 191.621617 144.063619 
L 191.621617 144.063619 
L 191.794581 142.506108 
L 191.794581 142.506108 
L 191.967546 147.290106 
L 191.967546 147.290106 
L 192.14051 146.341961 
L 192.14051 146.341961 
L 192.313475 150.500627 
L 192.313475 150.500627 
L 192.48644 149.668875 
L 192.48644 149.668875 
L 192.659404 153.7002 
L 192.659404 153.7002 
L 192.832369 153.002896 
L 192.832369 153.002896 
L 193.005333 156.815706 
L 193.005333 156.815706 
L 193.178298 155.885342 
L 193.178298 155.885342 
L 193.351263 159.400319 
L 193.351263 159.400319 
L 193.524227 158.274454 
L 193.524227 158.274454 
L 194.562015 165.43459 
L 194.562015 165.43459 
L 194.734979 165.45978 
L 194.734979 165.45978 
L 194.907944 167.341252 
L 194.907944 167.341252 
L 195.080909 167.10535 
L 195.253873 169.013524 
L 195.253873 169.013524 
L 195.426838 168.568271 
L 195.426838 168.568271 
L 196.118696 170.942564 
L 196.118696 170.942564 
L 196.291661 170.997601 
L 196.291661 170.997601 
L 196.63759 171.638931 
L 196.63759 171.638931 
L 196.810555 171.601947 
L 196.810555 171.601947 
L 197.156484 172.409567 
L 197.156484 172.409567 
L 197.329448 172.466358 
L 197.329448 172.466358 
L 197.502413 172.738488 
L 197.502413 172.738488 
L 197.675378 172.592277 
L 197.675378 172.592277 
L 197.848342 172.95422 
L 197.848342 172.95422 
L 198.021307 172.769423 
L 198.021307 172.769423 
L 198.194271 173.147786 
L 198.194271 173.147786 
L 198.367236 173.04243 
L 198.367236 173.04243 
L 198.713165 173.284985 
L 198.713165 173.284985 
L 198.88613 173.357682 
L 198.88613 173.357682 
L 199.232059 173.171464 
L 199.232059 173.171464 
L 199.577988 173.334125 
L 199.577988 173.334125 
L 199.750953 173.210867 
L 199.750953 173.210867 
L 200.096882 173.359587 
L 200.096882 173.359587 
L 200.615776 173.06139 
L 200.615776 173.06139 
L 200.78874 173.179931 
L 200.78874 173.179931 
L 200.961705 172.690527 
L 201.134669 172.935773 
L 201.134669 172.935773 
L 201.307634 172.919141 
L 201.307634 172.919141 
L 201.480599 172.235506 
L 201.480599 172.235506 
L 201.653563 172.558106 
L 201.653563 172.558106 
L 201.826528 171.495049 
L 201.826528 171.495049 
L 201.999492 172.026336 
L 201.999492 172.026336 
L 202.518386 170.885925 
L 202.518386 170.885925 
L 202.691351 169.522312 
L 202.691351 169.522312 
L 202.864315 170.11547 
L 202.864315 170.11547 
L 203.210245 168.825976 
L 203.210245 168.825976 
L 203.383209 168.430225 
L 203.383209 168.430225 
L 203.556174 167.04732 
L 203.556174 167.04732 
L 203.729138 167.146537 
L 203.902103 164.491677 
L 203.902103 164.491677 
L 204.075068 165.704815 
L 204.075068 165.704815 
L 204.420997 163.371859 
L 204.420997 163.371859 
L 204.593961 162.922916 
L 204.593961 162.922916 
L 204.766926 160.627307 
L 204.766926 160.627307 
L 204.939891 160.873914 
L 204.939891 160.873914 
L 205.112855 157.733248 
L 205.112855 157.733248 
L 205.28582 158.637243 
L 205.28582 158.637243 
L 205.804714 154.866103 
L 205.804714 154.866103 
L 205.977678 152.552199 
L 205.977678 152.552199 
L 206.150643 152.201082 
L 206.150643 152.201082 
L 206.323607 149.259335 
L 206.323607 149.259335 
L 206.496572 149.542442 
L 206.496572 149.542442 
L 206.669536 145.340352 
L 206.669536 145.340352 
L 206.842501 146.403379 
L 206.842501 146.403379 
L 207.015466 141.340054 
L 207.015466 141.340054 
L 207.18843 142.897051 
L 207.18843 142.897051 
L 207.707324 137.457177 
L 207.707324 137.457177 
L 208.226218 130.151375 
L 208.226218 130.151375 
L 208.399182 128.936422 
L 208.399182 128.936422 
L 208.572147 125.178104 
L 208.572147 125.178104 
L 208.745112 124.121881 
L 208.745112 124.121881 
L 208.918076 120.144233 
L 208.918076 120.144233 
L 209.091041 118.971858 
L 209.091041 118.971858 
L 209.782899 102.76222 
L 209.782899 102.76222 
L 209.955864 104.746055 
L 209.955864 104.746055 
L 210.128828 98.19096 
L 210.128828 98.19096 
L 210.301793 99.049353 
L 210.301793 99.049353 
L 210.474758 93.488278 
L 210.474758 93.488278 
L 210.647722 92.926449 
L 210.647722 92.926449 
L 210.820687 89.326921 
L 210.820687 89.326921 
L 210.993651 82.386448 
L 210.993651 82.386448 
L 211.166616 83.852423 
L 211.166616 83.852423 
L 211.339581 78.352311 
L 211.339581 78.352311 
L 211.512545 77.535468 
L 211.512545 77.535468 
L 211.68551 75.018079 
L 211.68551 75.018079 
L 211.858474 68.738622 
L 211.858474 68.738622 
L 212.031439 68.935787 
L 212.031439 68.935787 
L 212.377368 60.035882 
L 212.550333 60.249256 
L 212.896262 53.568 
L 212.896262 53.568 
L 218.777058 53.568 
L 218.777058 53.568 
L 218.950023 55.763212 
L 218.950023 55.763212 
L 219.122987 56.005828 
L 219.122987 56.005828 
L 219.641881 63.630269 
L 219.641881 63.630269 
L 219.814846 66.937679 
L 219.814846 66.937679 
L 219.98781 66.621156 
L 219.98781 66.621156 
L 220.506704 74.809211 
L 220.506704 74.809211 
L 220.679669 74.938638 
L 220.679669 74.938638 
L 221.025598 80.216274 
L 221.025598 80.216274 
L 221.198563 83.931288 
L 221.198563 83.931288 
L 221.371527 83.625774 
L 221.371527 83.625774 
L 221.544492 85.659142 
L 221.544492 85.659142 
L 221.717456 89.378571 
L 221.717456 89.378571 
L 221.890421 89.703772 
L 221.890421 89.703772 
L 222.755244 100.831275 
L 222.755244 100.831275 
L 222.928208 104.930519 
L 222.928208 104.930519 
L 223.101173 103.863984 
L 223.101173 103.863984 
L 223.274138 106.958686 
L 223.274138 106.958686 
L 223.447102 107.425984 
L 223.447102 107.425984 
L 224.311925 117.812336 
L 224.311925 117.812336 
L 224.48489 117.263631 
L 224.48489 117.263631 
L 224.657854 119.986894 
L 224.657854 119.986894 
L 224.830819 120.284849 
L 224.830819 120.284849 
L 225.003784 121.781547 
L 225.003784 121.781547 
L 225.176748 124.457213 
L 225.176748 124.457213 
L 225.349713 123.97301 
L 225.349713 123.97301 
L 225.522677 126.22084 
L 225.522677 126.22084 
L 225.695642 126.203905 
L 225.695642 126.203905 
L 225.868607 127.723103 
L 225.868607 127.723103 
L 226.041571 128.20531 
L 226.041571 128.20531 
L 226.214536 129.113205 
L 226.214536 129.113205 
L 226.3875 130.848044 
L 226.3875 130.848044 
L 226.560465 130.640658 
L 226.560465 130.640658 
L 226.73343 132.13282 
L 226.73343 132.13282 
L 226.906394 132.037383 
L 226.906394 132.037383 
L 227.079359 133.05006 
L 227.079359 133.05006 
L 227.252323 133.196543 
L 227.252323 133.196543 
L 227.598253 134.125878 
L 227.598253 134.125878 
L 228.290111 135.377724 
L 228.290111 135.377724 
L 228.463076 135.384679 
L 228.463076 135.384679 
L 228.809005 135.63186 
L 228.809005 135.63186 
L 229.327898 135.670265 
L 229.327898 135.670265 
L 229.500863 135.789229 
L 229.673828 135.68856 
L 229.673828 135.68856 
L 229.846792 135.807041 
L 229.846792 135.807041 
L 230.019757 135.703983 
L 230.192721 135.822645 
L 230.192721 135.822645 
L 230.538651 135.46675 
L 230.538651 135.46675 
L 230.711615 135.632344 
L 230.711615 135.632344 
L 230.88458 135.269253 
L 230.88458 135.269253 
L 231.057544 135.446338 
L 231.057544 135.446338 
L 231.230509 134.941481 
L 231.230509 134.941481 
L 231.403474 135.104172 
L 231.403474 135.104172 
L 231.576438 134.457792 
L 231.576438 134.457792 
L 231.749403 134.559822 
L 231.749403 134.559822 
L 231.922367 133.796565 
L 231.922367 133.796565 
L 232.095332 133.773098 
L 232.095332 133.773098 
L 232.614226 131.730175 
L 232.614226 131.730175 
L 232.960155 130.260299 
L 232.960155 130.260299 
L 233.13312 127.482755 
L 233.13312 127.482755 
L 233.306084 128.17767 
L 233.306084 128.17767 
L 233.479049 125.207891 
L 233.479049 125.207891 
L 233.652013 125.694785 
L 233.652013 125.694785 
L 233.824978 122.727757 
L 233.824978 122.727757 
L 233.997943 122.733593 
L 233.997943 122.733593 
L 234.343872 118.764896 
L 234.343872 118.764896 
L 234.862766 112.503885 
L 234.862766 112.503885 
L 235.03573 106.024239 
L 235.208695 107.190143 
L 235.208695 107.190143 
L 235.381659 101.615671 
L 235.381659 101.615671 
L 235.554624 101.231713 
L 235.554624 101.231713 
L 236.246482 83.524349 
L 236.246482 83.524349 
L 236.419447 83.48044 
L 236.419447 83.48044 
L 236.592411 79.112272 
L 236.592411 79.112272 
L 236.765376 71.831085 
L 236.765376 71.831085 
L 236.938341 73.115529 
L 236.938341 73.115529 
L 237.111305 68.581827 
L 237.111305 68.581827 
L 237.28427 67.245945 
L 237.28427 67.245945 
L 237.630199 60.547634 
L 237.630199 60.547634 
L 237.803164 56.792642 
L 237.803164 56.792642 
L 237.976128 57.354864 
L 237.976128 57.354864 
L 238.322057 53.568 
L 238.322057 53.568 
L 244.375818 53.568 
L 244.375818 53.568 
L 244.548783 54.920968 
L 244.548783 54.920968 
L 244.721747 54.836266 
L 244.721747 54.836266 
L 245.58657 62.084461 
L 245.58657 62.084461 
L 245.9325 65.616826 
L 245.9325 65.616826 
L 246.105464 68.02015 
L 246.105464 68.02015 
L 246.278429 67.714605 
L 246.278429 67.714605 
L 246.797323 73.446869 
L 246.797323 73.446869 
L 246.970287 73.652954 
L 246.970287 73.652954 
L 248.008075 83.663634 
L 248.008075 83.663634 
L 248.181039 84.159026 
L 248.181039 84.159026 
L 248.526969 87.398063 
L 248.526969 87.398063 
L 248.699933 89.62158 
L 248.699933 89.62158 
L 248.872898 89.59902 
L 248.872898 89.59902 
L 249.045862 90.988881 
L 249.045862 90.988881 
L 249.218827 93.317149 
L 249.218827 93.317149 
L 249.391792 93.254311 
L 249.391792 93.254311 
L 250.256615 98.804984 
L 250.256615 98.804984 
L 250.429579 98.90148 
L 250.429579 98.90148 
L 250.775508 100.778779 
L 250.775508 100.778779 
L 250.948473 100.836295 
L 250.948473 100.836295 
L 251.640331 102.83277 
L 251.640331 102.83277 
L 252.505154 103.711605 
L 252.505154 103.711605 
L 252.678119 103.485743 
L 253.024048 103.750645 
L 253.024048 103.750645 
L 253.197013 103.487466 
L 253.197013 103.487466 
L 253.542942 103.729749 
L 253.542942 103.729749 
L 253.715906 103.445463 
L 253.715906 103.445463 
L 253.888871 103.83816 
L 253.888871 103.83816 
L 254.061836 103.696062 
L 254.061836 103.696062 
L 254.2348 103.154252 
L 254.2348 103.154252 
L 254.407765 103.608698 
L 254.407765 103.608698 
L 255.099623 101.974499 
L 255.099623 101.974499 
L 255.272588 102.086628 
L 255.272588 102.086628 
L 255.445552 101.528942 
L 255.445552 101.528942 
L 255.618517 100.237876 
L 255.618517 100.237876 
L 255.791482 100.503292 
L 255.791482 100.503292 
L 255.964446 99.537669 
L 255.964446 99.537669 
L 256.137411 97.798657 
L 256.137411 97.798657 
L 256.310375 98.322142 
L 256.310375 98.322142 
L 256.656305 96.63859 
L 256.656305 96.63859 
L 256.829269 95.826555 
L 256.829269 95.826555 
L 257.002234 93.636423 
L 257.002234 93.636423 
L 257.175198 93.576064 
L 257.175198 93.576064 
L 257.348163 92.614342 
L 257.348163 92.614342 
L 257.521128 89.958604 
L 257.521128 89.958604 
L 257.694092 90.080592 
L 257.694092 90.080592 
L 257.867057 88.669473 
L 257.867057 88.669473 
L 258.040021 85.934447 
L 258.040021 85.934447 
L 258.212986 86.19315 
L 258.212986 86.19315 
L 258.385951 84.547035 
L 258.385951 84.547035 
L 258.558915 81.642635 
L 258.558915 81.642635 
L 258.73188 81.951778 
L 258.73188 81.951778 
L 259.077809 76.929337 
L 259.077809 76.929337 
L 259.250773 77.369874 
L 259.250773 77.369874 
L 259.769667 72.343109 
L 259.769667 72.343109 
L 259.942632 70.557588 
L 259.942632 70.557588 
L 260.115596 67.497905 
L 260.115596 67.497905 
L 260.288561 66.600079 
L 260.288561 66.600079 
L 260.63449 62.202941 
L 260.63449 62.202941 
L 260.807455 58.517804 
L 260.807455 58.517804 
L 260.980419 58.922929 
L 260.980419 58.922929 
L 261.499313 53.568 
L 261.499313 53.568 
L 278.795773 53.568 
L 278.795773 53.568 
L 278.968737 56.501885 
L 278.968737 56.501885 
L 279.141702 57.44244 
L 279.141702 57.44244 
L 279.660596 69.970236 
L 279.660596 69.970236 
L 279.83356 75.923827 
L 279.83356 75.923827 
L 280.006525 75.821616 
L 280.006525 75.821616 
L 280.352454 84.698628 
L 280.352454 84.698628 
L 280.525419 91.357779 
L 280.525419 91.357779 
L 280.698383 90.27942 
L 280.698383 90.27942 
L 280.871348 94.003809 
L 280.871348 94.003809 
L 281.044312 101.331838 
L 281.044312 101.331838 
L 281.217277 101.314632 
L 281.217277 101.314632 
L 281.390242 104.832693 
L 281.390242 104.832693 
L 281.563206 111.855812 
L 281.563206 111.855812 
L 281.736171 111.618337 
L 281.736171 111.618337 
L 281.909135 115.297093 
L 281.909135 115.297093 
L 282.0821 123.462619 
L 282.0821 123.462619 
L 282.255065 121.694577 
L 282.255065 121.694577 
L 282.428029 127.189427 
L 282.428029 127.189427 
L 282.600994 127.997531 
L 282.600994 127.997531 
L 282.773958 131.247968 
L 282.946923 138.793876 
L 282.946923 138.793876 
L 283.119888 136.347823 
L 283.119888 136.347823 
L 283.292852 142.993032 
L 283.292852 142.993032 
L 283.465817 141.520647 
L 283.465817 141.520647 
L 283.638781 146.97186 
L 283.638781 146.97186 
L 283.811746 146.09236 
L 283.811746 146.09236 
L 283.984711 151.037568 
L 283.984711 151.037568 
L 284.157675 150.419614 
L 284.157675 150.419614 
L 284.33064 155.055859 
L 284.33064 155.055859 
L 284.503604 154.385862 
L 284.503604 154.385862 
L 284.676569 158.668934 
L 284.676569 158.668934 
L 284.849534 158.167616 
L 284.849534 158.167616 
L 285.022498 162.355553 
L 285.022498 162.355553 
L 285.195463 161.119009 
L 285.195463 161.119009 
L 285.368427 165.982357 
L 285.368427 165.982357 
L 285.541392 164.563769 
L 285.541392 164.563769 
L 285.714357 165.613611 
L 285.714357 165.613611 
L 285.887321 167.78953 
L 285.887321 167.78953 
L 286.060286 168.061025 
L 286.23325 171.091345 
L 286.23325 171.091345 
L 286.406215 170.766477 
L 286.406215 170.766477 
L 286.57918 174.159556 
L 286.57918 174.159556 
L 286.752144 173.121931 
L 286.752144 173.121931 
L 286.925109 173.963449 
L 286.925109 173.963449 
L 287.098073 175.71498 
L 287.098073 175.71498 
L 287.271038 175.89515 
L 287.271038 175.89515 
L 287.444003 178.29285 
L 287.444003 178.29285 
L 287.616967 177.606916 
L 287.616967 177.606916 
L 288.308825 181.448182 
L 288.308825 181.448182 
L 288.48179 181.181828 
L 288.48179 181.181828 
L 288.654755 181.589796 
L 288.654755 181.589796 
L 289.000684 182.736013 
L 289.000684 182.736013 
L 289.173648 183.482911 
L 289.173648 183.482911 
L 289.346613 183.40217 
L 289.346613 183.40217 
L 289.692542 183.982536 
L 289.692542 183.982536 
L 290.211436 184.354579 
L 290.211436 184.354579 
L 290.384401 184.51098 
L 290.384401 184.51098 
L 290.557365 184.452587 
L 290.557365 184.452587 
L 290.73033 184.536926 
L 290.73033 184.536926 
L 290.903294 184.433747 
L 290.903294 184.433747 
L 291.249224 184.575754 
L 291.249224 184.575754 
L 291.422188 184.461507 
L 291.422188 184.461507 
L 291.595153 184.533962 
L 291.595153 184.533962 
L 291.768117 184.375384 
L 291.768117 184.375384 
L 292.114047 184.52229 
L 292.114047 184.52229 
L 292.287011 184.232893 
L 292.287011 184.232893 
L 292.459976 184.323915 
L 292.459976 184.323915 
L 292.63294 183.476953 
L 292.63294 183.476953 
L 292.805905 183.92629 
L 292.805905 183.92629 
L 292.97887 183.886675 
L 292.97887 183.886675 
L 293.151834 183.071798 
L 293.324799 183.250758 
L 293.324799 183.250758 
L 293.843693 182.065532 
L 293.843693 182.065532 
L 294.016657 180.601039 
L 294.016657 180.601039 
L 294.189622 180.886444 
L 294.189622 180.886444 
L 294.362586 180.39586 
L 294.362586 180.39586 
L 294.535551 179.26942 
L 294.535551 179.26942 
L 294.708516 178.948483 
L 294.708516 178.948483 
L 294.88148 177.146361 
L 294.88148 177.146361 
L 295.054445 177.29369 
L 295.054445 177.29369 
L 295.227409 174.444084 
L 295.227409 174.444084 
L 295.400374 175.326124 
L 295.573338 174.558875 
L 295.573338 174.558875 
L 295.746303 172.772417 
L 295.746303 172.772417 
L 295.919268 172.822162 
L 295.919268 172.822162 
L 296.092232 169.496185 
L 296.092232 169.496185 
L 296.265197 170.55268 
L 296.265197 170.55268 
L 296.438161 169.649472 
L 296.611126 167.443947 
L 296.611126 167.443947 
L 296.784091 167.633824 
L 296.784091 167.633824 
L 296.957055 163.638667 
L 296.957055 163.638667 
L 297.13002 164.922506 
L 297.13002 164.922506 
L 297.302984 163.867372 
L 297.302984 163.867372 
L 297.475949 161.386059 
L 297.475949 161.386059 
L 297.648914 161.477898 
L 297.648914 161.477898 
L 297.821878 157.007488 
L 297.821878 157.007488 
L 297.994843 158.427528 
L 297.994843 158.427528 
L 298.513737 153.956303 
L 298.513737 153.956303 
L 298.686701 150.07769 
L 298.686701 150.07769 
L 298.859666 150.464066 
L 298.859666 150.464066 
L 299.03263 145.781886 
L 299.03263 145.781886 
L 299.205595 147.232711 
L 299.205595 147.232711 
L 300.243383 135.168553 
L 300.243383 135.168553 
L 300.416347 134.643103 
L 300.416347 134.643103 
L 300.589312 131.357316 
L 300.589312 131.357316 
L 300.762276 131.297954 
L 300.762276 131.297954 
L 300.935241 128.123117 
L 300.935241 128.123117 
L 301.108206 128.164123 
L 301.108206 128.164123 
L 301.28117 125.274993 
L 301.28117 125.274993 
L 301.454135 125.294407 
L 301.454135 125.294407 
L 301.627099 122.800696 
L 301.627099 122.800696 
L 301.800064 122.700722 
L 301.800064 122.700722 
L 301.973029 120.628345 
L 301.973029 120.628345 
L 302.145993 120.35183 
L 302.145993 120.35183 
L 302.318958 118.598515 
L 302.318958 118.598515 
L 302.491922 118.087127 
L 302.491922 118.087127 
L 302.664887 116.740902 
L 302.664887 116.740902 
L 302.837852 113.753493 
L 302.837852 113.753493 
L 303.010816 114.62377 
L 303.010816 114.62377 
L 303.183781 111.852576 
L 303.183781 111.852576 
L 303.356745 112.324834 
L 303.356745 112.324834 
L 303.52971 109.793655 
L 303.52971 109.793655 
L 303.702674 109.606046 
L 303.702674 109.606046 
L 304.740462 98.165105 
L 304.740462 98.165105 
L 304.913427 99.244945 
L 304.913427 99.244945 
L 305.086391 101.707177 
L 305.086391 101.707177 
L 305.259356 108.741303 
L 305.259356 108.741303 
L 305.43232 108.317187 
L 305.43232 108.317187 
L 305.605285 113.863385 
L 305.605285 113.863385 
L 305.77825 115.696866 
L 305.77825 115.696866 
L 305.951214 119.100529 
L 305.951214 119.100529 
L 306.124179 125.222738 
L 306.124179 125.222738 
L 306.297143 124.581136 
L 306.297143 124.581136 
L 306.470108 128.59601 
L 306.470108 128.59601 
L 306.643073 129.240092 
L 306.643073 129.240092 
L 306.816037 131.842607 
L 306.816037 131.842607 
L 306.989002 137.144828 
L 306.989002 137.144828 
L 307.161966 135.636699 
L 307.161966 135.636699 
L 307.334931 140.16399 
L 307.334931 140.16399 
L 307.507896 139.258241 
L 307.507896 139.258241 
L 307.68086 142.604237 
L 307.68086 142.604237 
L 307.853825 142.509979 
L 307.853825 142.509979 
L 308.026789 145.177026 
L 308.026789 145.177026 
L 308.199754 145.418069 
L 308.199754 145.418069 
L 308.372719 147.724534 
L 308.372719 147.724534 
L 308.545683 148.027116 
L 308.545683 148.027116 
L 308.718648 150.229223 
L 308.718648 150.229223 
L 308.891612 150.373528 
L 309.064577 152.274384 
L 309.064577 152.274384 
L 309.237542 152.494682 
L 309.237542 152.494682 
L 309.410506 154.059209 
L 309.410506 154.059209 
L 309.583471 154.412624 
L 309.583471 154.412624 
L 309.756435 156.145648 
L 309.756435 156.145648 
L 309.9294 156.346926 
L 309.9294 156.346926 
L 310.102365 157.778155 
L 310.102365 157.778155 
L 310.275329 157.886716 
L 310.275329 157.886716 
L 310.448294 159.340051 
L 310.448294 159.340051 
L 310.621258 159.309629 
L 310.621258 159.309629 
L 310.794223 160.621108 
L 310.794223 160.621108 
L 310.967187 160.591987 
L 311.140152 161.716522 
L 311.140152 161.716522 
L 311.313117 161.472878 
L 311.313117 161.472878 
L 311.486081 162.640354 
L 311.486081 162.640354 
L 311.659046 162.59448 
L 311.659046 162.59448 
L 311.83201 162.970393 
L 311.83201 162.970393 
L 312.004975 163.717109 
L 312.004975 163.717109 
L 312.523869 164.329711 
L 312.523869 164.329711 
L 312.696833 164.974549 
L 312.696833 164.974549 
L 313.042763 165.162521 
L 313.042763 165.162521 
L 313.215727 165.56435 
L 313.215727 165.56435 
L 313.388692 165.349041 
L 313.388692 165.349041 
L 313.561656 165.895901 
L 313.561656 165.895901 
L 313.734621 165.818517 
L 313.734621 165.818517 
L 314.08055 165.978577 
L 314.08055 165.978577 
L 314.253515 165.859492 
L 314.253515 165.859492 
L 314.426479 166.061919 
L 314.426479 166.061919 
L 314.599444 166.041023 
L 314.599444 166.041023 
L 314.772409 166.278468 
L 314.772409 166.278468 
L 314.945373 166.203805 
L 314.945373 166.203805 
L 315.291302 166.294979 
L 315.291302 166.294979 
L 315.464267 166.070658 
L 315.464267 166.070658 
L 315.983161 166.266523 
L 315.983161 166.266523 
L 316.156125 165.588844 
L 316.156125 165.588844 
L 316.32909 166.173535 
L 316.32909 166.173535 
L 316.502055 165.779477 
L 316.502055 165.779477 
L 316.675019 165.928046 
L 316.675019 165.928046 
L 316.847984 165.783983 
L 316.847984 165.783983 
L 317.020948 165.424218 
L 317.020948 165.424218 
L 317.193913 165.56568 
L 317.193913 165.56568 
L 317.366878 164.544566 
L 317.366878 164.544566 
L 317.539842 165.162702 
L 317.539842 165.162702 
L 317.885771 164.394878 
L 317.885771 164.394878 
L 318.058736 164.086914 
L 318.058736 164.086914 
L 318.2317 162.919499 
L 318.2317 162.919499 
L 318.404665 162.915296 
L 318.404665 162.915296 
L 318.57763 161.781568 
L 318.57763 161.781568 
L 318.750594 162.118744 
L 318.750594 162.118744 
L 318.923559 160.22318 
L 318.923559 160.22318 
L 319.096523 161.114867 
L 319.096523 161.114867 
L 319.269488 160.372958 
L 319.269488 160.372958 
L 319.442453 159.063476 
L 319.442453 159.063476 
L 319.615417 158.755028 
L 319.615417 158.755028 
L 319.788382 157.338465 
L 319.788382 157.338465 
L 319.961346 157.413914 
L 319.961346 157.413914 
L 320.134311 154.825249 
L 320.134311 154.825249 
L 320.307276 155.360255 
L 320.307276 155.360255 
L 320.48024 152.573155 
L 320.48024 152.573155 
L 320.653205 153.862044 
L 320.653205 153.862044 
L 321.690992 146.537584 
L 321.690992 146.537584 
L 321.863957 146.606017 
L 321.863957 146.606017 
L 322.036922 143.970178 
L 322.209886 144.315428 
L 322.209886 144.315428 
L 322.382851 141.156588 
L 322.382851 141.156588 
L 322.555815 141.934874 
L 322.555815 141.934874 
L 322.72878 138.51597 
L 322.72878 138.51597 
L 322.901745 139.472885 
L 322.901745 139.472885 
L 323.074709 135.835466 
L 323.074709 135.835466 
L 323.247674 136.936081 
L 323.247674 136.936081 
L 323.420638 133.19996 
L 323.420638 133.19996 
L 323.593603 134.107855 
L 323.593603 134.107855 
L 323.766568 130.582869 
L 323.766568 130.582869 
L 323.939532 131.654575 
L 323.939532 131.654575 
L 324.112497 127.941314 
L 324.112497 127.941314 
L 324.285461 128.650926 
L 324.285461 128.650926 
L 324.458426 125.319355 
L 324.458426 125.319355 
L 324.631391 125.903955 
L 324.631391 125.903955 
L 324.804355 122.707466 
L 324.804355 122.707466 
L 324.97732 123.02296 
L 324.97732 123.02296 
L 325.150284 120.048765 
L 325.150284 120.048765 
L 325.323249 120.042203 
L 325.323249 120.042203 
L 325.496213 117.383079 
L 325.496213 117.383079 
L 325.669178 116.905045 
L 325.669178 116.905045 
L 326.015107 113.357258 
L 326.015107 113.357258 
L 326.188072 111.51286 
L 326.188072 111.51286 
L 326.361036 107.187421 
L 326.361036 107.187421 
L 326.534001 108.085942 
L 326.534001 108.085942 
L 326.706966 103.829088 
L 326.706966 103.829088 
L 326.87993 103.779101 
L 326.87993 103.779101 
L 327.225859 99.349878 
L 327.225859 99.349878 
L 327.398824 97.457792 
L 327.398824 97.457792 
L 327.571789 92.154089 
L 327.571789 92.154089 
L 327.744753 92.53221 
L 327.744753 92.53221 
L 328.090682 87.428817 
L 328.090682 87.428817 
L 328.263647 85.914065 
L 328.263647 85.914065 
L 328.782541 90.99877 
L 328.782541 90.99877 
L 328.955505 96.382578 
L 328.955505 96.382578 
L 329.12847 96.335283 
L 329.12847 96.335283 
L 329.301435 99.295023 
L 329.301435 99.295023 
L 329.474399 104.320397 
L 329.474399 104.320397 
L 329.647364 103.837827 
L 329.647364 103.837827 
L 329.993293 111.771805 
L 329.993293 111.771805 
L 330.166258 110.477261 
L 330.166258 110.477261 
L 330.339222 113.867437 
L 330.339222 113.867437 
L 330.512187 114.280788 
L 330.512187 114.280788 
L 330.685151 116.29462 
L 330.685151 116.29462 
L 330.858116 120.051456 
L 330.858116 120.051456 
L 331.031081 119.55918 
L 331.031081 119.55918 
L 331.204045 122.480122 
L 331.204045 122.480122 
L 331.37701 122.870278 
L 331.37701 122.870278 
L 331.549974 124.495587 
L 331.549974 124.495587 
L 331.722939 127.670485 
L 331.895904 126.838159 
L 331.895904 126.838159 
L 332.068868 129.413095 
L 332.241833 129.218198 
L 332.241833 129.218198 
L 332.414797 131.040279 
L 332.414797 131.040279 
L 332.587762 131.328436 
L 332.587762 131.328436 
L 332.933691 133.159317 
L 332.933691 133.159317 
L 333.106656 133.872286 
L 333.106656 133.872286 
L 333.27962 135.614835 
L 333.27962 135.614835 
L 333.452585 135.265926 
L 333.452585 135.265926 
L 333.625549 136.495696 
L 333.625549 136.495696 
L 333.798514 136.406609 
L 333.798514 136.406609 
L 333.971479 137.197143 
L 333.971479 137.197143 
L 334.144443 137.272108 
L 334.144443 137.272108 
L 334.490372 137.880749 
L 334.490372 137.880749 
L 334.836302 138.261017 
L 334.836302 138.261017 
L 335.009266 138.286751 
L 335.009266 138.286751 
L 335.182231 138.454795 
L 335.182231 138.454795 
L 335.355195 138.389083 
L 335.355195 138.389083 
L 335.52816 138.574243 
L 335.52816 138.574243 
L 335.701125 138.421138 
L 335.701125 138.421138 
L 336.047054 138.43399 
L 336.047054 138.43399 
L 336.220018 138.315146 
L 336.220018 138.315146 
L 336.392983 138.433596 
L 336.565948 138.248195 
L 336.565948 138.248195 
L 336.738912 138.378892 
L 336.738912 138.378892 
L 336.911877 138.078095 
L 336.911877 138.078095 
L 337.084841 138.207673 
L 337.257806 137.78268 
L 337.257806 137.78268 
L 337.430771 137.87337 
L 337.430771 137.87337 
L 337.603735 137.313325 
L 337.603735 137.313325 
L 337.7767 137.32016 
L 337.7767 137.32016 
L 337.949664 136.623218 
L 337.949664 136.623218 
L 338.122629 136.50114 
L 338.122629 136.50114 
L 338.641523 134.472126 
L 338.641523 134.472126 
L 338.814487 131.850016 
L 338.814487 131.850016 
L 338.987452 132.666526 
L 338.987452 132.666526 
L 339.160417 129.926208 
L 339.160417 129.926208 
L 339.333381 130.506725 
L 339.333381 130.506725 
L 339.506346 127.415713 
L 339.506346 127.415713 
L 339.67931 127.740491 
L 339.67931 127.740491 
L 339.852275 124.471305 
L 340.02524 124.217863 
L 340.02524 124.217863 
L 340.198204 120.992011 
L 340.198204 120.992011 
L 340.371169 120.165854 
L 340.371169 120.165854 
L 341.063027 108.419943 
L 341.063027 108.419943 
L 341.235992 108.001754 
L 341.235992 108.001754 
L 341.408956 113.207147 
L 341.408956 113.207147 
L 341.581921 113.346311 
L 341.581921 113.346311 
L 341.754885 116.983608 
L 341.754885 116.983608 
L 341.92785 117.653062 
L 341.92785 117.653062 
L 342.273779 123.113589 
L 342.273779 123.113589 
L 342.446744 122.912947 
L 342.446744 122.912947 
L 342.619708 124.453765 
L 342.619708 124.453765 
L 342.792673 124.635478 
L 342.792673 124.635478 
L 342.965638 125.617703 
L 342.965638 125.617703 
L 343.138602 125.779003 
L 343.138602 125.779003 
L 343.484531 126.443648 
L 343.484531 126.443648 
L 343.657496 126.552694 
L 343.657496 126.552694 
L 344.003425 126.387523 
L 344.003425 126.387523 
L 344.349354 126.617831 
L 344.349354 126.617831 
L 344.522319 126.539146 
L 344.522319 126.539146 
L 344.695284 126.002235 
L 344.695284 126.002235 
L 344.868248 126.40476 
L 344.868248 126.40476 
L 345.041213 125.744288 
L 345.041213 125.744288 
L 345.214177 125.6249 
L 345.214177 125.6249 
L 345.733071 123.64285 
L 345.733071 123.64285 
L 345.906036 120.688916 
L 345.906036 120.688916 
L 346.079 121.33079 
L 346.079 121.33079 
L 346.251965 118.532562 
L 346.251965 118.532562 
L 346.42493 117.967195 
L 346.42493 117.967195 
L 346.943823 111.533453 
L 346.943823 111.533453 
L 347.116788 105.419591 
L 347.116788 105.419591 
L 347.289753 106.149977 
L 347.289753 106.149977 
L 347.462717 104.364608 
L 347.462717 104.364608 
L 347.635682 104.690353 
L 347.635682 104.690353 
L 347.981611 110.780175 
L 347.981611 110.780175 
L 348.500505 117.519975 
L 348.500505 117.519975 
L 348.846434 122.346854 
L 348.846434 122.346854 
L 349.019398 121.995707 
L 349.019398 121.995707 
L 349.192363 123.248339 
L 349.365328 123.483636 
L 349.365328 123.483636 
L 349.711257 125.050552 
L 349.711257 125.050552 
L 349.884221 125.044141 
L 349.884221 125.044141 
L 350.230151 125.460636 
L 350.230151 125.460636 
L 350.403115 125.481925 
L 350.403115 125.481925 
L 350.57608 125.623267 
L 350.57608 125.623267 
L 350.922009 125.449599 
L 350.922009 125.449599 
L 351.094974 125.575367 
L 351.094974 125.575367 
L 351.267938 125.243392 
L 351.267938 125.243392 
L 351.440903 125.602008 
L 351.440903 125.602008 
L 351.786832 125.360391 
L 351.786832 125.360391 
L 351.959797 125.418421 
L 351.959797 125.418421 
L 352.132761 125.257424 
L 352.132761 125.257424 
L 352.305726 125.28591 
L 352.305726 125.28591 
L 352.47869 124.81979 
L 352.47869 124.81979 
L 352.651655 125.025332 
L 352.651655 125.025332 
L 352.82462 124.537954 
L 352.997584 124.663661 
L 353.343513 123.996688 
L 353.343513 123.996688 
L 353.516478 123.834601 
L 353.516478 123.834601 
L 353.689443 123.021327 
L 353.862407 123.353785 
L 353.862407 123.353785 
L 354.035372 122.363214 
L 354.035372 122.363214 
L 354.208336 122.793106 
L 354.208336 122.793106 
L 354.381301 122.128037 
L 354.381301 122.128037 
L 354.554266 122.186461 
L 354.554266 122.186461 
L 354.900195 121.117628 
L 354.900195 121.117628 
L 355.073159 121.060475 
L 355.073159 121.060475 
L 355.246124 120.004131 
L 355.246124 120.004131 
L 355.419088 120.309252 
L 355.419088 120.309252 
L 355.592053 119.378919 
L 355.592053 119.378919 
L 355.765018 119.457664 
L 355.765018 119.457664 
L 356.110947 118.265089 
L 356.110947 118.265089 
L 356.283911 117.917329 
L 356.283911 117.917329 
L 356.456876 116.204384 
L 356.456876 116.204384 
L 356.629841 116.83259 
L 356.629841 116.83259 
L 356.802805 115.531726 
L 356.802805 115.531726 
L 356.97577 115.563024 
L 356.97577 115.563024 
L 357.321699 114.232252 
L 357.321699 114.232252 
L 357.494664 113.530503 
L 357.494664 113.530503 
L 357.667628 111.639384 
L 357.667628 111.639384 
L 357.840593 112.011003 
L 357.840593 112.011003 
L 358.013557 110.69765 
L 358.013557 110.69765 
L 358.186522 110.43048 
L 358.186522 110.43048 
L 358.359487 109.583971 
L 358.359487 109.583971 
L 358.532451 107.364869 
L 358.532451 107.364869 
L 358.705416 107.953672 
L 358.705416 107.953672 
L 358.87838 106.327668 
L 358.87838 106.327668 
L 359.051345 106.223098 
L 359.22431 105.275376 
L 359.22431 105.275376 
L 359.397274 103.046658 
L 359.397274 103.046658 
L 359.570239 103.666275 
L 359.570239 103.666275 
L 359.743203 102.233292 
L 359.743203 102.233292 
L 359.916168 101.918524 
L 359.916168 101.918524 
L 360.089133 101.050394 
L 360.089133 101.050394 
L 360.262097 99.548646 
L 360.262097 99.548646 
L 360.435062 99.799063 
L 360.435062 99.799063 
L 360.608026 98.718225 
L 360.608026 98.718225 
L 360.780991 96.929287 
L 360.780991 96.929287 
L 360.953956 97.666508 
L 360.953956 97.666508 
L 361.12692 96.255117 
L 361.12692 96.255117 
L 361.299885 96.253423 
L 361.299885 96.253423 
L 361.472849 95.601993 
L 361.472849 95.601993 
L 361.645814 94.490794 
L 361.645814 94.490794 
L 361.818779 94.653334 
L 361.818779 94.653334 
L 361.991743 94.282078 
L 361.991743 94.282078 
L 362.164708 93.117717 
L 362.164708 93.117717 
L 362.337672 93.368346 
L 362.337672 93.368346 
L 362.683601 92.013322 
L 362.683601 92.013322 
L 362.856566 92.307224 
L 362.856566 92.307224 
L 363.202495 90.962179 
L 363.202495 90.962179 
L 363.37546 91.296059 
L 363.37546 91.296059 
L 363.548424 90.647653 
L 363.548424 90.647653 
L 363.721389 90.632352 
L 363.721389 90.632352 
L 364.413247 88.499645 
L 364.413247 88.499645 
L 364.586212 87.455458 
L 364.586212 87.455458 
L 364.759177 87.326757 
L 364.759177 87.326757 
L 365.451035 83.554619 
L 365.451035 83.554619 
L 365.796964 79.233565 
L 365.796964 79.233565 
L 365.969929 79.950162 
L 365.969929 79.950162 
L 366.142893 77.91504 
L 366.142893 77.91504 
L 366.315858 74.38189 
L 366.315858 74.38189 
L 366.488823 75.200365 
L 366.488823 75.200365 
L 366.661787 72.968774 
L 366.661787 72.968774 
L 366.834752 69.199237 
L 366.834752 69.199237 
L 367.007716 69.363592 
L 367.007716 69.363592 
L 367.180681 67.37634 
L 367.180681 67.37634 
L 367.353646 63.287378 
L 367.353646 63.287378 
L 367.52661 62.26073 
L 367.52661 62.26073 
L 367.872539 56.907252 
L 367.872539 56.907252 
L 368.045504 53.568 
L 368.045504 53.568 
L 396.930591 53.568 
L 396.930591 53.568 
L 397.276521 53.803418 
L 397.276521 53.803418 
L 397.449485 53.837317 
L 397.449485 53.837317 
L 397.62245 53.568 
L 397.62245 53.568 
L 398.141344 53.612574 
L 398.141344 53.612574 
L 398.314308 53.722708 
L 398.314308 53.722708 
L 398.487273 53.568 
L 398.487273 53.568 
" clip-path="url(#pd8e0d7d6aa)" style="fill: none; stroke: #ff7f0e; stroke-width: 1.5; stroke-linecap: square"/>
   </g>
   <g id="patch_3">
    <path d="M 57.6 307.584 
L 57.6 41.472 
" style="fill: none; stroke: #000000; stroke-width: 0.8; stroke-linejoin: miter; stroke-linecap: square"/>
   </g>
   <g id="patch_4">
    <path d="M 414.72 307.584 
L 414.72 41.472 
" style="fill: none; stroke: #000000; stroke-width: 0.8; stroke-linejoin: miter; stroke-linecap: square"/>
   </g>
   <g id="patch_5">
    <path d="M 57.6 307.584 
L 414.72 307.584 
" style="fill: none; stroke: #000000; stroke-width: 0.8; stroke-linejoin: miter; stroke-linecap: square"/>
   </g>
   <g id="patch_6">
    <path d="M 57.6 41.472 
L 414.72 41.472 
" style="fill: none; stroke: #000000; stroke-width: 0.8; stroke-linejoin: miter; stroke-linecap: square"/>
   </g>
   <g id="text_20">
    <!-- Actual speed vs Expected speed -->
    <g transform="translate(138.808125 35.472) scale(0.12 -0.12)">
     <defs>
      <path id="DejaVuSans-41" d="M 2188 4044 
L 1331 1722 
L 3047 1722 
L 2188 4044 
z
M 1831 4666 
L 2547 4666 
L 4325 0 
L 3669 0 
L 3244 1197 
L 1141 1197 
L 716 0 
L 50 0 
L 1831 4666 
z
" transform="scale(0.015625)"/>
      <path id="DejaVuSans-75" d="M 544 1381 
L 544 3500 
L 1119 3500 
L 1119 1403 
Q 1119 906 1312 657 
Q 1506 409 1894 409 
Q 2359 409 2629 706 
Q 2900 1003 2900 1516 
L 2900 3500 
L 3475 3500 
L 3475 0 
L 2900 0 
L 2900 538 
Q 2691 219 2414 64 
Q 2138 -91 1772 -91 
Q 1169 -91 856 284 
Q 544 659 544 1381 
z
M 1991 3584 
L 1991 3584 
z
" transform="scale(0.015625)"/>
      <path id="DejaVuSans-61" d="M 2194 1759 
Q 1497 1759 1228 1600 
Q 959 1441 959 1056 
Q 959 750 1161 570 
Q 1363 391 1709 391 
Q 2188 391 2477 730 
Q 2766 1069 2766 1631 
L 2766 1759 
L 2194 1759 
z
M 3341 1997 
L 3341 0 
L 2766 0 
L 2766 531 
Q 2569 213 2275 61 
Q 1981 -91 1556 -91 
Q 1019 -91 701 211 
Q 384 513 384 1019 
Q 384 1609 779 1909 
Q 1175 2209 1959 2209 
L 2766 2209 
L 2766 2266 
Q 2766 2663 2505 2880 
Q 2244 3097 1772 3097 
Q 1472 3097 1187 3025 
Q 903 2953 641 2809 
L 641 3341 
Q 956 3463 1253 3523 
Q 1550 3584 1831 3584 
Q 2591 3584 2966 3190 
Q 3341 2797 3341 1997 
z
" transform="scale(0.015625)"/>
      <path id="DejaVuSans-20" transform="scale(0.015625)"/>
      <path id="DejaVuSans-70" d="M 1159 525 
L 1159 -1331 
L 581 -1331 
L 581 3500 
L 1159 3500 
L 1159 2969 
Q 1341 3281 1617 3432 
Q 1894 3584 2278 3584 
Q 2916 3584 3314 3078 
Q 3713 2572 3713 1747 
Q 3713 922 3314 415 
Q 2916 -91 2278 -91 
Q 1894 -91 1617 61 
Q 1341 213 1159 525 
z
M 3116 1747 
Q 3116 2381 2855 2742 
Q 2594 3103 2138 3103 
Q 1681 3103 1420 2742 
Q 1159 2381 1159 1747 
Q 1159 1113 1420 752 
Q 1681 391 2138 391 
Q 2594 391 2855 752 
Q 3116 1113 3116 1747 
z
" transform="scale(0.015625)"/>
      <path id="DejaVuSans-64" d="M 2906 2969 
L 2906 4863 
L 3481 4863 
L 3481 0 
L 2906 0 
L 2906 525 
Q 2725 213 2448 61 
Q 2172 -91 1784 -91 
Q 1150 -91 751 415 
Q 353 922 353 1747 
Q 353 2572 751 3078 
Q 1150 3584 1784 3584 
Q 2172 3584 2448 3432 
Q 2725 3281 2906 2969 
z
M 947 1747 
Q 947 1113 1208 752 
Q 1469 391 1925 391 
Q 2381 391 2643 752 
Q 2906 1113 2906 1747 
Q 2906 2381 2643 2742 
Q 2381 3103 1925 3103 
Q 1469 3103 1208 2742 
Q 947 2381 947 1747 
z
" transform="scale(0.015625)"/>
      <path id="DejaVuSans-76" d="M 191 3500 
L 800 3500 
L 1894 563 
L 2988 3500 
L 3597 3500 
L 2284 0 
L 1503 0 
L 191 3500 
z
" transform="scale(0.015625)"/>
      <path id="DejaVuSans-45" d="M 628 4666 
L 3578 4666 
L 3578 4134 
L 1259 4134 
L 1259 2753 
L 3481 2753 
L 3481 2222 
L 1259 2222 
L 1259 531 
L 3634 531 
L 3634 0 
L 628 0 
L 628 4666 
z
" transform="scale(0.015625)"/>
      <path id="DejaVuSans-78" d="M 3513 3500 
L 2247 1797 
L 3578 0 
L 2900 0 
L 1881 1375 
L 863 0 
L 184 0 
L 1544 1831 
L 300 3500 
L 978 3500 
L 1906 2253 
L 2834 3500 
L 3513 3500 
z
" transform="scale(0.015625)"/>
     </defs>
     <use xlink:href="#DejaVuSans-41"/>
     <use xlink:href="#DejaVuSans-63" x="66.658203"/>
     <use xlink:href="#DejaVuSans-74" x="121.638672"/>
     <use xlink:href="#DejaVuSans-75" x="160.847656"/>
     <use xlink:href="#DejaVuSans-61" x="224.226562"/>
     <use xlink:href="#DejaVuSans-6c" x="285.505859"/>
     <use xlink:href="#DejaVuSans-20" x="313.289062"/>
     <use xlink:href="#DejaVuSans-73" x="345.076172"/>
     <use xlink:href="#DejaVuSans-70" x="397.175781"/>
     <use xlink:href="#DejaVuSans-65" x="460.652344"/>
     <use xlink:href="#DejaVuSans-65" x="522.175781"/>
     <use xlink:href="#DejaVuSans-64" x="583.699219"/>
     <use xlink:href="#DejaVuSans-20" x="647.175781"/>
     <use xlink:href="#DejaVuSans-76" x="678.962891"/>
     <use xlink:href="#DejaVuSans-73" x="738.142578"/>
     <use xlink:href="#DejaVuSans-20" x="790.242188"/>
     <use xlink:href="#DejaVuSans-45" x="822.029297"/>
     <use xlink:href="#DejaVuSans-78" x="885.212891"/>
     <use xlink:href="#DejaVuSans-70" x="944.392578"/>
     <use xlink:href="#DejaVuSans-65" x="1007.869141"/>
     <use xlink:href="#DejaVuSans-63" x="1069.392578"/>
     <use xlink:href="#DejaVuSans-74" x="1124.373047"/>
     <use xlink:href="#DejaVuSans-65" x="1163.582031"/>
     <use xlink:href="#DejaVuSans-64" x="1225.105469"/>
     <use xlink:href="#DejaVuSans-20" x="1288.582031"/>
     <use xlink:href="#DejaVuSans-73" x="1320.369141"/>
     <use xlink:href="#DejaVuSans-70" x="1372.46875"/>
     <use xlink:href="#DejaVuSans-65" x="1435.945312"/>
     <use xlink:href="#DejaVuSans-65" x="1497.46875"/>
     <use xlink:href="#DejaVuSans-64" x="1558.992188"/>
    </g>
   </g>
   <g id="legend_1">
    <g id="patch_7">
     <path d="M 295.67 302.584 
L 407.72 302.584 
Q 409.72 302.584 409.72 300.584 
L 409.72 272.22775 
Q 409.72 270.22775 407.72 270.22775 
L 295.67 270.22775 
Q 293.67 270.22775 293.67 272.22775 
L 293.67 300.584 
Q 293.67 302.584 295.67 302.584 
z
" style="fill: #ffffff; opacity: 0.8; stroke: #cccccc; stroke-linejoin: miter"/>
    </g>
    <g id="line2d_37">
     <path d="M 297.67 278.326187 
L 307.67 278.326187 
L 317.67 278.326187 
" style="fill: none; stroke: #1f77b4; stroke-width: 1.5; stroke-linecap: square"/>
    </g>
    <g id="text_21">
     <!-- Actual speed -->
     <g transform="translate(325.67 281.826187) scale(0.1 -0.1)">
      <use xlink:href="#DejaVuSans-41"/>
      <use xlink:href="#DejaVuSans-63" x="66.658203"/>
      <use xlink:href="#DejaVuSans-74" x="121.638672"/>
      <use xlink:href="#DejaVuSans-75" x="160.847656"/>
      <use xlink:href="#DejaVuSans-61" x="224.226562"/>
      <use xlink:href="#DejaVuSans-6c" x="285.505859"/>
      <use xlink:href="#DejaVuSans-20" x="313.289062"/>
      <use xlink:href="#DejaVuSans-73" x="345.076172"/>
      <use xlink:href="#DejaVuSans-70" x="397.175781"/>
      <use xlink:href="#DejaVuSans-65" x="460.652344"/>
      <use xlink:href="#DejaVuSans-65" x="522.175781"/>
      <use xlink:href="#DejaVuSans-64" x="583.699219"/>
     </g>
    </g>
    <g id="line2d_38">
     <path d="M 297.67 293.004312 
L 307.67 293.004312 
L 317.67 293.004312 
" style="fill: none; stroke: #ff7f0e; stroke-width: 1.5; stroke-linecap: square"/>
    </g>
    <g id="text_22">
     <!-- Expected speed -->
     <g transform="translate(325.67 296.504312) scale(0.1 -0.1)">
      <use xlink:href="#DejaVuSans-45"/>
      <use xlink:href="#DejaVuSans-78" x="63.183594"/>
      <use xlink:href="#DejaVuSans-70" x="122.363281"/>
      <use xlink:href="#DejaVuSans-65" x="185.839844"/>
      <use xlink:href="#DejaVuSans-63" x="247.363281"/>
      <use xlink:href="#DejaVuSans-74" x="302.34375"/>
      <use xlink:href="#DejaVuSans-65" x="341.552734"/>
      <use xlink:href="#DejaVuSans-64" x="403.076172"/>
      <use xlink:href="#DejaVuSans-20" x="466.552734"/>
      <use xlink:href="#DejaVuSans-73" x="498.339844"/>
      <use xlink:href="#DejaVuSans-70" x="550.439453"/>
      <use xlink:href="#DejaVuSans-65" x="613.916016"/>
      <use xlink:href="#DejaVuSans-65" x="675.439453"/>
      <use xlink:href="#DejaVuSans-64" x="736.962891"/>
     </g>
    </g>
   </g>
  </g>
 </g>
 <defs>
  <clipPath id="pd8e0d7d6aa">
   <rect x="57.6" y="41.472" width="357.12" height="266.112"/>
  </clipPath>
 </defs>
</svg>
