<?xml version="1.0" encoding="utf-8" standalone="no"?>
<!DOCTYPE svg PUBLIC "-//W3C//DTD SVG 1.1//EN"
  "http://www.w3.org/Graphics/SVG/1.1/DTD/svg11.dtd">
<svg xmlns:xlink="http://www.w3.org/1999/xlink" width="460.8pt" height="345.6pt" viewBox="0 0 460.8 345.6" xmlns="http://www.w3.org/2000/svg" version="1.1">
 <metadata>
  <rdf:RDF xmlns:dc="http://purl.org/dc/elements/1.1/" xmlns:cc="http://creativecommons.org/ns#" xmlns:rdf="http://www.w3.org/1999/02/22-rdf-syntax-ns#">
   <cc:Work>
    <dc:type rdf:resource="http://purl.org/dc/dcmitype/StillImage"/>
    <dc:date>2024-01-30T20:58:40.178454</dc:date>
    <dc:format>image/svg+xml</dc:format>
    <dc:creator>
     <cc:Agent>
      <dc:title>Matplotlib v3.7.1, https://matplotlib.org/</dc:title>
     </cc:Agent>
    </dc:creator>
   </cc:Work>
  </rdf:RDF>
 </metadata>
 <defs>
  <style type="text/css">*{stroke-linejoin: round; stroke-linecap: butt}</style>
 </defs>
 <g id="figure_1">
  <g id="patch_1">
   <path d="M 0 345.6 
L 460.8 345.6 
L 460.8 0 
L 0 0 
z
" style="fill: #ffffff"/>
  </g>
  <g id="axes_1">
   <g id="patch_2">
    <path d="M 57.6 307.584 
L 414.72 307.584 
L 414.72 41.472 
L 57.6 41.472 
z
" style="fill: #ffffff"/>
   </g>
   <g id="matplotlib.axis_1">
    <g id="xtick_1">
     <g id="line2d_1">
      <path d="M 73.832727 307.584 
L 73.832727 41.472 
" clip-path="url(#p9cfcad3b20)" style="fill: none; stroke: #b0b0b0; stroke-width: 0.8; stroke-linecap: square"/>
     </g>
     <g id="line2d_2">
      <defs>
       <path id="ma827a585e9" d="M 0 0 
L 0 3.5 
" style="stroke: #000000; stroke-width: 0.8"/>
      </defs>
      <g>
       <use xlink:href="#ma827a585e9" x="73.832727" y="307.584" style="stroke: #000000; stroke-width: 0.8"/>
      </g>
     </g>
     <g id="text_1">
      <!-- 0 -->
      <g transform="translate(70.651477 322.182437) scale(0.1 -0.1)">
       <defs>
        <path id="DejaVuSans-30" d="M 2034 4250 
Q 1547 4250 1301 3770 
Q 1056 3291 1056 2328 
Q 1056 1369 1301 889 
Q 1547 409 2034 409 
Q 2525 409 2770 889 
Q 3016 1369 3016 2328 
Q 3016 3291 2770 3770 
Q 2525 4250 2034 4250 
z
M 2034 4750 
Q 2819 4750 3233 4129 
Q 3647 3509 3647 2328 
Q 3647 1150 3233 529 
Q 2819 -91 2034 -91 
Q 1250 -91 836 529 
Q 422 1150 422 2328 
Q 422 3509 836 4129 
Q 1250 4750 2034 4750 
z
" transform="scale(0.015625)"/>
       </defs>
       <use xlink:href="#DejaVuSans-30"/>
      </g>
     </g>
    </g>
    <g id="xtick_2">
     <g id="line2d_3">
      <path d="M 118.015436 307.584 
L 118.015436 41.472 
" clip-path="url(#p9cfcad3b20)" style="fill: none; stroke: #b0b0b0; stroke-width: 0.8; stroke-linecap: square"/>
     </g>
     <g id="line2d_4">
      <g>
       <use xlink:href="#ma827a585e9" x="118.015436" y="307.584" style="stroke: #000000; stroke-width: 0.8"/>
      </g>
     </g>
     <g id="text_2">
      <!-- 5 -->
      <g transform="translate(114.834186 322.182437) scale(0.1 -0.1)">
       <defs>
        <path id="DejaVuSans-35" d="M 691 4666 
L 3169 4666 
L 3169 4134 
L 1269 4134 
L 1269 2991 
Q 1406 3038 1543 3061 
Q 1681 3084 1819 3084 
Q 2600 3084 3056 2656 
Q 3513 2228 3513 1497 
Q 3513 744 3044 326 
Q 2575 -91 1722 -91 
Q 1428 -91 1123 -41 
Q 819 9 494 109 
L 494 744 
Q 775 591 1075 516 
Q 1375 441 1709 441 
Q 2250 441 2565 725 
Q 2881 1009 2881 1497 
Q 2881 1984 2565 2268 
Q 2250 2553 1709 2553 
Q 1456 2553 1204 2497 
Q 953 2441 691 2322 
L 691 4666 
z
" transform="scale(0.015625)"/>
       </defs>
       <use xlink:href="#DejaVuSans-35"/>
      </g>
     </g>
    </g>
    <g id="xtick_3">
     <g id="line2d_5">
      <path d="M 162.198145 307.584 
L 162.198145 41.472 
" clip-path="url(#p9cfcad3b20)" style="fill: none; stroke: #b0b0b0; stroke-width: 0.8; stroke-linecap: square"/>
     </g>
     <g id="line2d_6">
      <g>
       <use xlink:href="#ma827a585e9" x="162.198145" y="307.584" style="stroke: #000000; stroke-width: 0.8"/>
      </g>
     </g>
     <g id="text_3">
      <!-- 10 -->
      <g transform="translate(155.835645 322.182437) scale(0.1 -0.1)">
       <defs>
        <path id="DejaVuSans-31" d="M 794 531 
L 1825 531 
L 1825 4091 
L 703 3866 
L 703 4441 
L 1819 4666 
L 2450 4666 
L 2450 531 
L 3481 531 
L 3481 0 
L 794 0 
L 794 531 
z
" transform="scale(0.015625)"/>
       </defs>
       <use xlink:href="#DejaVuSans-31"/>
       <use xlink:href="#DejaVuSans-30" x="63.623047"/>
      </g>
     </g>
    </g>
    <g id="xtick_4">
     <g id="line2d_7">
      <path d="M 206.380854 307.584 
L 206.380854 41.472 
" clip-path="url(#p9cfcad3b20)" style="fill: none; stroke: #b0b0b0; stroke-width: 0.8; stroke-linecap: square"/>
     </g>
     <g id="line2d_8">
      <g>
       <use xlink:href="#ma827a585e9" x="206.380854" y="307.584" style="stroke: #000000; stroke-width: 0.8"/>
      </g>
     </g>
     <g id="text_4">
      <!-- 15 -->
      <g transform="translate(200.018354 322.182437) scale(0.1 -0.1)">
       <use xlink:href="#DejaVuSans-31"/>
       <use xlink:href="#DejaVuSans-35" x="63.623047"/>
      </g>
     </g>
    </g>
    <g id="xtick_5">
     <g id="line2d_9">
      <path d="M 250.563563 307.584 
L 250.563563 41.472 
" clip-path="url(#p9cfcad3b20)" style="fill: none; stroke: #b0b0b0; stroke-width: 0.8; stroke-linecap: square"/>
     </g>
     <g id="line2d_10">
      <g>
       <use xlink:href="#ma827a585e9" x="250.563563" y="307.584" style="stroke: #000000; stroke-width: 0.8"/>
      </g>
     </g>
     <g id="text_5">
      <!-- 20 -->
      <g transform="translate(244.201063 322.182437) scale(0.1 -0.1)">
       <defs>
        <path id="DejaVuSans-32" d="M 1228 531 
L 3431 531 
L 3431 0 
L 469 0 
L 469 531 
Q 828 903 1448 1529 
Q 2069 2156 2228 2338 
Q 2531 2678 2651 2914 
Q 2772 3150 2772 3378 
Q 2772 3750 2511 3984 
Q 2250 4219 1831 4219 
Q 1534 4219 1204 4116 
Q 875 4013 500 3803 
L 500 4441 
Q 881 4594 1212 4672 
Q 1544 4750 1819 4750 
Q 2544 4750 2975 4387 
Q 3406 4025 3406 3419 
Q 3406 3131 3298 2873 
Q 3191 2616 2906 2266 
Q 2828 2175 2409 1742 
Q 1991 1309 1228 531 
z
" transform="scale(0.015625)"/>
       </defs>
       <use xlink:href="#DejaVuSans-32"/>
       <use xlink:href="#DejaVuSans-30" x="63.623047"/>
      </g>
     </g>
    </g>
    <g id="xtick_6">
     <g id="line2d_11">
      <path d="M 294.746272 307.584 
L 294.746272 41.472 
" clip-path="url(#p9cfcad3b20)" style="fill: none; stroke: #b0b0b0; stroke-width: 0.8; stroke-linecap: square"/>
     </g>
     <g id="line2d_12">
      <g>
       <use xlink:href="#ma827a585e9" x="294.746272" y="307.584" style="stroke: #000000; stroke-width: 0.8"/>
      </g>
     </g>
     <g id="text_6">
      <!-- 25 -->
      <g transform="translate(288.383772 322.182437) scale(0.1 -0.1)">
       <use xlink:href="#DejaVuSans-32"/>
       <use xlink:href="#DejaVuSans-35" x="63.623047"/>
      </g>
     </g>
    </g>
    <g id="xtick_7">
     <g id="line2d_13">
      <path d="M 338.928981 307.584 
L 338.928981 41.472 
" clip-path="url(#p9cfcad3b20)" style="fill: none; stroke: #b0b0b0; stroke-width: 0.8; stroke-linecap: square"/>
     </g>
     <g id="line2d_14">
      <g>
       <use xlink:href="#ma827a585e9" x="338.928981" y="307.584" style="stroke: #000000; stroke-width: 0.8"/>
      </g>
     </g>
     <g id="text_7">
      <!-- 30 -->
      <g transform="translate(332.566481 322.182437) scale(0.1 -0.1)">
       <defs>
        <path id="DejaVuSans-33" d="M 2597 2516 
Q 3050 2419 3304 2112 
Q 3559 1806 3559 1356 
Q 3559 666 3084 287 
Q 2609 -91 1734 -91 
Q 1441 -91 1130 -33 
Q 819 25 488 141 
L 488 750 
Q 750 597 1062 519 
Q 1375 441 1716 441 
Q 2309 441 2620 675 
Q 2931 909 2931 1356 
Q 2931 1769 2642 2001 
Q 2353 2234 1838 2234 
L 1294 2234 
L 1294 2753 
L 1863 2753 
Q 2328 2753 2575 2939 
Q 2822 3125 2822 3475 
Q 2822 3834 2567 4026 
Q 2313 4219 1838 4219 
Q 1578 4219 1281 4162 
Q 984 4106 628 3988 
L 628 4550 
Q 988 4650 1302 4700 
Q 1616 4750 1894 4750 
Q 2613 4750 3031 4423 
Q 3450 4097 3450 3541 
Q 3450 3153 3228 2886 
Q 3006 2619 2597 2516 
z
" transform="scale(0.015625)"/>
       </defs>
       <use xlink:href="#DejaVuSans-33"/>
       <use xlink:href="#DejaVuSans-30" x="63.623047"/>
      </g>
     </g>
    </g>
    <g id="xtick_8">
     <g id="line2d_15">
      <path d="M 383.11169 307.584 
L 383.11169 41.472 
" clip-path="url(#p9cfcad3b20)" style="fill: none; stroke: #b0b0b0; stroke-width: 0.8; stroke-linecap: square"/>
     </g>
     <g id="line2d_16">
      <g>
       <use xlink:href="#ma827a585e9" x="383.11169" y="307.584" style="stroke: #000000; stroke-width: 0.8"/>
      </g>
     </g>
     <g id="text_8">
      <!-- 35 -->
      <g transform="translate(376.74919 322.182437) scale(0.1 -0.1)">
       <use xlink:href="#DejaVuSans-33"/>
       <use xlink:href="#DejaVuSans-35" x="63.623047"/>
      </g>
     </g>
    </g>
    <g id="text_9">
     <!-- Time(s) -->
     <g transform="translate(217.420156 335.860562) scale(0.1 -0.1)">
      <defs>
       <path id="DejaVuSans-54" d="M -19 4666 
L 3928 4666 
L 3928 4134 
L 2272 4134 
L 2272 0 
L 1638 0 
L 1638 4134 
L -19 4134 
L -19 4666 
z
" transform="scale(0.015625)"/>
       <path id="DejaVuSans-69" d="M 603 3500 
L 1178 3500 
L 1178 0 
L 603 0 
L 603 3500 
z
M 603 4863 
L 1178 4863 
L 1178 4134 
L 603 4134 
L 603 4863 
z
" transform="scale(0.015625)"/>
       <path id="DejaVuSans-6d" d="M 3328 2828 
Q 3544 3216 3844 3400 
Q 4144 3584 4550 3584 
Q 5097 3584 5394 3201 
Q 5691 2819 5691 2113 
L 5691 0 
L 5113 0 
L 5113 2094 
Q 5113 2597 4934 2840 
Q 4756 3084 4391 3084 
Q 3944 3084 3684 2787 
Q 3425 2491 3425 1978 
L 3425 0 
L 2847 0 
L 2847 2094 
Q 2847 2600 2669 2842 
Q 2491 3084 2119 3084 
Q 1678 3084 1418 2786 
Q 1159 2488 1159 1978 
L 1159 0 
L 581 0 
L 581 3500 
L 1159 3500 
L 1159 2956 
Q 1356 3278 1631 3431 
Q 1906 3584 2284 3584 
Q 2666 3584 2933 3390 
Q 3200 3197 3328 2828 
z
" transform="scale(0.015625)"/>
       <path id="DejaVuSans-65" d="M 3597 1894 
L 3597 1613 
L 953 1613 
Q 991 1019 1311 708 
Q 1631 397 2203 397 
Q 2534 397 2845 478 
Q 3156 559 3463 722 
L 3463 178 
Q 3153 47 2828 -22 
Q 2503 -91 2169 -91 
Q 1331 -91 842 396 
Q 353 884 353 1716 
Q 353 2575 817 3079 
Q 1281 3584 2069 3584 
Q 2775 3584 3186 3129 
Q 3597 2675 3597 1894 
z
M 3022 2063 
Q 3016 2534 2758 2815 
Q 2500 3097 2075 3097 
Q 1594 3097 1305 2825 
Q 1016 2553 972 2059 
L 3022 2063 
z
" transform="scale(0.015625)"/>
       <path id="DejaVuSans-28" d="M 1984 4856 
Q 1566 4138 1362 3434 
Q 1159 2731 1159 2009 
Q 1159 1288 1364 580 
Q 1569 -128 1984 -844 
L 1484 -844 
Q 1016 -109 783 600 
Q 550 1309 550 2009 
Q 550 2706 781 3412 
Q 1013 4119 1484 4856 
L 1984 4856 
z
" transform="scale(0.015625)"/>
       <path id="DejaVuSans-73" d="M 2834 3397 
L 2834 2853 
Q 2591 2978 2328 3040 
Q 2066 3103 1784 3103 
Q 1356 3103 1142 2972 
Q 928 2841 928 2578 
Q 928 2378 1081 2264 
Q 1234 2150 1697 2047 
L 1894 2003 
Q 2506 1872 2764 1633 
Q 3022 1394 3022 966 
Q 3022 478 2636 193 
Q 2250 -91 1575 -91 
Q 1294 -91 989 -36 
Q 684 19 347 128 
L 347 722 
Q 666 556 975 473 
Q 1284 391 1588 391 
Q 1994 391 2212 530 
Q 2431 669 2431 922 
Q 2431 1156 2273 1281 
Q 2116 1406 1581 1522 
L 1381 1569 
Q 847 1681 609 1914 
Q 372 2147 372 2553 
Q 372 3047 722 3315 
Q 1072 3584 1716 3584 
Q 2034 3584 2315 3537 
Q 2597 3491 2834 3397 
z
" transform="scale(0.015625)"/>
       <path id="DejaVuSans-29" d="M 513 4856 
L 1013 4856 
Q 1481 4119 1714 3412 
Q 1947 2706 1947 2009 
Q 1947 1309 1714 600 
Q 1481 -109 1013 -844 
L 513 -844 
Q 928 -128 1133 580 
Q 1338 1288 1338 2009 
Q 1338 2731 1133 3434 
Q 928 4138 513 4856 
z
" transform="scale(0.015625)"/>
      </defs>
      <use xlink:href="#DejaVuSans-54"/>
      <use xlink:href="#DejaVuSans-69" x="57.958984"/>
      <use xlink:href="#DejaVuSans-6d" x="85.742188"/>
      <use xlink:href="#DejaVuSans-65" x="183.154297"/>
      <use xlink:href="#DejaVuSans-28" x="244.677734"/>
      <use xlink:href="#DejaVuSans-73" x="283.691406"/>
      <use xlink:href="#DejaVuSans-29" x="335.791016"/>
     </g>
    </g>
   </g>
   <g id="matplotlib.axis_2">
    <g id="ytick_1">
     <g id="line2d_17">
      <path d="M 57.6 276.943067 
L 414.72 276.943067 
" clip-path="url(#p9cfcad3b20)" style="fill: none; stroke: #b0b0b0; stroke-width: 0.8; stroke-linecap: square"/>
     </g>
     <g id="line2d_18">
      <defs>
       <path id="m7746c00c3d" d="M 0 0 
L -3.5 0 
" style="stroke: #000000; stroke-width: 0.8"/>
      </defs>
      <g>
       <use xlink:href="#m7746c00c3d" x="57.6" y="276.943067" style="stroke: #000000; stroke-width: 0.8"/>
      </g>
     </g>
     <g id="text_10">
      <!-- 4 -->
      <g transform="translate(44.2375 280.742286) scale(0.1 -0.1)">
       <defs>
        <path id="DejaVuSans-34" d="M 2419 4116 
L 825 1625 
L 2419 1625 
L 2419 4116 
z
M 2253 4666 
L 3047 4666 
L 3047 1625 
L 3713 1625 
L 3713 1100 
L 3047 1100 
L 3047 0 
L 2419 0 
L 2419 1100 
L 313 1100 
L 313 1709 
L 2253 4666 
z
" transform="scale(0.015625)"/>
       </defs>
       <use xlink:href="#DejaVuSans-34"/>
      </g>
     </g>
    </g>
    <g id="ytick_2">
     <g id="line2d_19">
      <path d="M 57.6 221.0993 
L 414.72 221.0993 
" clip-path="url(#p9cfcad3b20)" style="fill: none; stroke: #b0b0b0; stroke-width: 0.8; stroke-linecap: square"/>
     </g>
     <g id="line2d_20">
      <g>
       <use xlink:href="#m7746c00c3d" x="57.6" y="221.0993" style="stroke: #000000; stroke-width: 0.8"/>
      </g>
     </g>
     <g id="text_11">
      <!-- 5 -->
      <g transform="translate(44.2375 224.898519) scale(0.1 -0.1)">
       <use xlink:href="#DejaVuSans-35"/>
      </g>
     </g>
    </g>
    <g id="ytick_3">
     <g id="line2d_21">
      <path d="M 57.6 165.255533 
L 414.72 165.255533 
" clip-path="url(#p9cfcad3b20)" style="fill: none; stroke: #b0b0b0; stroke-width: 0.8; stroke-linecap: square"/>
     </g>
     <g id="line2d_22">
      <g>
       <use xlink:href="#m7746c00c3d" x="57.6" y="165.255533" style="stroke: #000000; stroke-width: 0.8"/>
      </g>
     </g>
     <g id="text_12">
      <!-- 6 -->
      <g transform="translate(44.2375 169.054752) scale(0.1 -0.1)">
       <defs>
        <path id="DejaVuSans-36" d="M 2113 2584 
Q 1688 2584 1439 2293 
Q 1191 2003 1191 1497 
Q 1191 994 1439 701 
Q 1688 409 2113 409 
Q 2538 409 2786 701 
Q 3034 994 3034 1497 
Q 3034 2003 2786 2293 
Q 2538 2584 2113 2584 
z
M 3366 4563 
L 3366 3988 
Q 3128 4100 2886 4159 
Q 2644 4219 2406 4219 
Q 1781 4219 1451 3797 
Q 1122 3375 1075 2522 
Q 1259 2794 1537 2939 
Q 1816 3084 2150 3084 
Q 2853 3084 3261 2657 
Q 3669 2231 3669 1497 
Q 3669 778 3244 343 
Q 2819 -91 2113 -91 
Q 1303 -91 875 529 
Q 447 1150 447 2328 
Q 447 3434 972 4092 
Q 1497 4750 2381 4750 
Q 2619 4750 2861 4703 
Q 3103 4656 3366 4563 
z
" transform="scale(0.015625)"/>
       </defs>
       <use xlink:href="#DejaVuSans-36"/>
      </g>
     </g>
    </g>
    <g id="ytick_4">
     <g id="line2d_23">
      <path d="M 57.6 109.411767 
L 414.72 109.411767 
" clip-path="url(#p9cfcad3b20)" style="fill: none; stroke: #b0b0b0; stroke-width: 0.8; stroke-linecap: square"/>
     </g>
     <g id="line2d_24">
      <g>
       <use xlink:href="#m7746c00c3d" x="57.6" y="109.411767" style="stroke: #000000; stroke-width: 0.8"/>
      </g>
     </g>
     <g id="text_13">
      <!-- 7 -->
      <g transform="translate(44.2375 113.210985) scale(0.1 -0.1)">
       <defs>
        <path id="DejaVuSans-37" d="M 525 4666 
L 3525 4666 
L 3525 4397 
L 1831 0 
L 1172 0 
L 2766 4134 
L 525 4134 
L 525 4666 
z
" transform="scale(0.015625)"/>
       </defs>
       <use xlink:href="#DejaVuSans-37"/>
      </g>
     </g>
    </g>
    <g id="ytick_5">
     <g id="line2d_25">
      <path d="M 57.6 53.568 
L 414.72 53.568 
" clip-path="url(#p9cfcad3b20)" style="fill: none; stroke: #b0b0b0; stroke-width: 0.8; stroke-linecap: square"/>
     </g>
     <g id="line2d_26">
      <g>
       <use xlink:href="#m7746c00c3d" x="57.6" y="53.568" style="stroke: #000000; stroke-width: 0.8"/>
      </g>
     </g>
     <g id="text_14">
      <!-- 8 -->
      <g transform="translate(44.2375 57.367219) scale(0.1 -0.1)">
       <defs>
        <path id="DejaVuSans-38" d="M 2034 2216 
Q 1584 2216 1326 1975 
Q 1069 1734 1069 1313 
Q 1069 891 1326 650 
Q 1584 409 2034 409 
Q 2484 409 2743 651 
Q 3003 894 3003 1313 
Q 3003 1734 2745 1975 
Q 2488 2216 2034 2216 
z
M 1403 2484 
Q 997 2584 770 2862 
Q 544 3141 544 3541 
Q 544 4100 942 4425 
Q 1341 4750 2034 4750 
Q 2731 4750 3128 4425 
Q 3525 4100 3525 3541 
Q 3525 3141 3298 2862 
Q 3072 2584 2669 2484 
Q 3125 2378 3379 2068 
Q 3634 1759 3634 1313 
Q 3634 634 3220 271 
Q 2806 -91 2034 -91 
Q 1263 -91 848 271 
Q 434 634 434 1313 
Q 434 1759 690 2068 
Q 947 2378 1403 2484 
z
M 1172 3481 
Q 1172 3119 1398 2916 
Q 1625 2713 2034 2713 
Q 2441 2713 2670 2916 
Q 2900 3119 2900 3481 
Q 2900 3844 2670 4047 
Q 2441 4250 2034 4250 
Q 1625 4250 1398 4047 
Q 1172 3844 1172 3481 
z
" transform="scale(0.015625)"/>
       </defs>
       <use xlink:href="#DejaVuSans-38"/>
      </g>
     </g>
    </g>
    <g id="text_15">
     <!-- Velocity(m/s) -->
     <g transform="translate(38.157812 207.204563) rotate(-90) scale(0.1 -0.1)">
      <defs>
       <path id="DejaVuSans-56" d="M 1831 0 
L 50 4666 
L 709 4666 
L 2188 738 
L 3669 4666 
L 4325 4666 
L 2547 0 
L 1831 0 
z
" transform="scale(0.015625)"/>
       <path id="DejaVuSans-6c" d="M 603 4863 
L 1178 4863 
L 1178 0 
L 603 0 
L 603 4863 
z
" transform="scale(0.015625)"/>
       <path id="DejaVuSans-6f" d="M 1959 3097 
Q 1497 3097 1228 2736 
Q 959 2375 959 1747 
Q 959 1119 1226 758 
Q 1494 397 1959 397 
Q 2419 397 2687 759 
Q 2956 1122 2956 1747 
Q 2956 2369 2687 2733 
Q 2419 3097 1959 3097 
z
M 1959 3584 
Q 2709 3584 3137 3096 
Q 3566 2609 3566 1747 
Q 3566 888 3137 398 
Q 2709 -91 1959 -91 
Q 1206 -91 779 398 
Q 353 888 353 1747 
Q 353 2609 779 3096 
Q 1206 3584 1959 3584 
z
" transform="scale(0.015625)"/>
       <path id="DejaVuSans-63" d="M 3122 3366 
L 3122 2828 
Q 2878 2963 2633 3030 
Q 2388 3097 2138 3097 
Q 1578 3097 1268 2742 
Q 959 2388 959 1747 
Q 959 1106 1268 751 
Q 1578 397 2138 397 
Q 2388 397 2633 464 
Q 2878 531 3122 666 
L 3122 134 
Q 2881 22 2623 -34 
Q 2366 -91 2075 -91 
Q 1284 -91 818 406 
Q 353 903 353 1747 
Q 353 2603 823 3093 
Q 1294 3584 2113 3584 
Q 2378 3584 2631 3529 
Q 2884 3475 3122 3366 
z
" transform="scale(0.015625)"/>
       <path id="DejaVuSans-74" d="M 1172 4494 
L 1172 3500 
L 2356 3500 
L 2356 3053 
L 1172 3053 
L 1172 1153 
Q 1172 725 1289 603 
Q 1406 481 1766 481 
L 2356 481 
L 2356 0 
L 1766 0 
Q 1100 0 847 248 
Q 594 497 594 1153 
L 594 3053 
L 172 3053 
L 172 3500 
L 594 3500 
L 594 4494 
L 1172 4494 
z
" transform="scale(0.015625)"/>
       <path id="DejaVuSans-79" d="M 2059 -325 
Q 1816 -950 1584 -1140 
Q 1353 -1331 966 -1331 
L 506 -1331 
L 506 -850 
L 844 -850 
Q 1081 -850 1212 -737 
Q 1344 -625 1503 -206 
L 1606 56 
L 191 3500 
L 800 3500 
L 1894 763 
L 2988 3500 
L 3597 3500 
L 2059 -325 
z
" transform="scale(0.015625)"/>
       <path id="DejaVuSans-2f" d="M 1625 4666 
L 2156 4666 
L 531 -594 
L 0 -594 
L 1625 4666 
z
" transform="scale(0.015625)"/>
      </defs>
      <use xlink:href="#DejaVuSans-56"/>
      <use xlink:href="#DejaVuSans-65" x="60.658203"/>
      <use xlink:href="#DejaVuSans-6c" x="122.181641"/>
      <use xlink:href="#DejaVuSans-6f" x="149.964844"/>
      <use xlink:href="#DejaVuSans-63" x="211.146484"/>
      <use xlink:href="#DejaVuSans-69" x="266.126953"/>
      <use xlink:href="#DejaVuSans-74" x="293.910156"/>
      <use xlink:href="#DejaVuSans-79" x="333.119141"/>
      <use xlink:href="#DejaVuSans-28" x="392.298828"/>
      <use xlink:href="#DejaVuSans-6d" x="431.3125"/>
      <use xlink:href="#DejaVuSans-2f" x="528.724609"/>
      <use xlink:href="#DejaVuSans-73" x="562.416016"/>
      <use xlink:href="#DejaVuSans-29" x="614.515625"/>
     </g>
    </g>
   </g>
   <g id="line2d_27">
    <path d="M 73.832727 53.752899 
L 76.306959 53.615244 
L 76.306959 53.615244 
L 82.669269 53.569396 
L 82.669269 53.569396 
L 92.389465 53.568 
L 92.389465 53.568 
L 92.919658 58.97686 
L 92.919658 58.97686 
L 93.273119 69.246696 
L 93.273119 69.246696 
L 93.626581 80.216478 
L 93.626581 80.216478 
L 93.980043 90.992259 
L 93.980043 90.992259 
L 94.333504 101.600508 
L 94.333504 101.600508 
L 96.277543 148.849975 
L 96.277543 148.849975 
L 98.221583 179.402044 
L 98.221583 179.402044 
L 99.281968 190.276947 
L 99.281968 190.276947 
L 100.519083 197.33694 
L 100.519083 197.33694 
L 101.049276 198.710473 
L 101.049276 198.710473 
L 101.579469 199.272206 
L 101.579469 199.272206 
L 102.109661 199.346031 
L 102.109661 199.346031 
L 102.463123 199.395285 
L 102.463123 199.395285 
L 102.816584 199.378532 
L 102.816584 199.378532 
L 103.170046 199.268017 
L 103.170046 199.268017 
L 103.523508 199.01901 
L 103.523508 199.01901 
L 103.876969 198.56662 
L 103.876969 198.56662 
L 104.583893 196.387428 
L 104.583893 196.387428 
L 105.290816 192.430841 
L 105.290816 192.430841 
L 105.644278 188.895317 
L 105.644278 188.895317 
L 105.997739 184.735961 
L 105.997739 184.735961 
L 106.527932 177.141656 
L 106.527932 177.141656 
L 107.234855 162.833143 
L 107.234855 162.833143 
L 107.765048 153.155194 
L 107.765048 153.155194 
L 108.118509 149.588509 
L 108.118509 149.588509 
L 108.471971 147.338452 
L 108.471971 147.338452 
L 109.002164 145.812744 
L 109.002164 145.812744 
L 109.532356 145.199189 
L 109.532356 145.199189 
L 109.885818 145.016245 
L 109.885818 145.016245 
L 111.476395 144.41665 
L 111.476395 144.41665 
L 112.183319 143.582847 
L 112.183319 143.582847 
L 112.53678 143.043061 
L 112.53678 143.043061 
L 113.597165 139.260483 
L 113.597165 139.260483 
L 113.950627 137.360902 
L 113.950627 137.360902 
L 114.834281 129.279806 
L 114.834281 129.279806 
L 115.717935 118.960883 
L 115.717935 118.960883 
L 115.894666 118.182198 
L 115.894666 118.182198 
L 116.071397 118.123506 
L 116.071397 118.123506 
L 117.838705 151.681422 
L 117.838705 151.681422 
L 118.72236 161.776299 
L 118.72236 161.776299 
L 119.429283 166.972394 
L 119.429283 166.972394 
L 119.959475 169.224573 
L 119.959475 169.224573 
L 120.489668 170.321122 
L 120.489668 170.321122 
L 121.550053 171.282193 
L 121.550053 171.282193 
L 121.726784 171.374949 
L 121.726784 171.374949 
L 122.080245 171.286269 
L 122.080245 171.286269 
L 122.787169 171.342448 
L 122.787169 171.342448 
L 122.9639 171.370928 
L 122.9639 171.370928 
L 123.494092 171.180334 
L 123.494092 171.180334 
L 124.201015 170.827792 
L 124.201015 170.827792 
L 125.791593 169.432424 
L 125.791593 169.432424 
L 125.968324 169.283265 
L 125.968324 169.283265 
L 127.912363 165.647222 
L 127.912363 165.647222 
L 128.972748 162.898368 
L 128.972748 162.898368 
L 130.916787 156.347392 
L 130.916787 156.347392 
L 131.977172 151.741454 
L 131.977172 151.741454 
L 132.684096 148.482132 
L 132.684096 148.482132 
L 135.158327 134.066175 
L 135.158327 134.066175 
L 137.102367 118.267639 
L 137.102367 118.267639 
L 137.986021 109.405177 
L 137.986021 109.405177 
L 138.692944 101.310791 
L 138.692944 101.310791 
L 139.576598 90.347933 
L 139.576598 90.347933 
L 140.990445 71.539864 
L 140.990445 71.539864 
L 141.697368 65.739149 
L 141.697368 65.739149 
L 142.404292 61.810652 
L 142.404292 61.810652 
L 143.111215 59.150199 
L 143.111215 59.150199 
L 143.818138 57.348455 
L 143.818138 57.348455 
L 144.525062 56.128213 
L 144.525062 56.128213 
L 145.231985 55.301893 
L 145.231985 55.301893 
L 146.115639 54.63322 
L 146.115639 54.63322 
L 147.176024 54.161675 
L 147.176024 54.161675 
L 148.41314 53.86816 
L 148.41314 53.86816 
L 150.357179 53.670753 
L 150.357179 53.670753 
L 150.887372 53.644729 
L 150.887372 53.644729 
L 151.064103 54.755462 
L 151.064103 54.755462 
L 151.240833 57.723391 
L 151.240833 57.723391 
L 152.831411 104.99983 
L 152.831411 104.99983 
L 153.184873 115.847649 
L 153.184873 115.847649 
L 155.482373 175.160319 
L 155.482373 175.160319 
L 156.366028 191.502941 
L 156.366028 191.502941 
L 158.133336 219.292587 
L 158.133336 219.292587 
L 159.900644 236.296009 
L 159.900644 236.296009 
L 161.314491 243.822631 
L 161.314491 243.822631 
L 162.021414 245.76901 
L 162.021414 245.76901 
L 162.728338 246.88851 
L 162.728338 246.88851 
L 163.081799 247.132212 
L 163.081799 247.132212 
L 165.202569 247.241666 
L 165.202569 247.241666 
L 166.086224 246.484983 
L 166.086224 246.484983 
L 166.262954 246.313487 
L 166.262954 246.313487 
L 167.50007 243.709659 
L 167.50007 243.709659 
L 168.030263 242.116604 
L 168.030263 242.116604 
L 168.560455 240.118347 
L 168.560455 240.118347 
L 169.62084 234.642307 
L 169.62084 234.642307 
L 171.211418 223.253194 
L 171.211418 223.253194 
L 171.918341 217.321246 
L 171.918341 217.321246 
L 172.801995 209.405336 
L 172.801995 209.405336 
L 175.629689 180.027997 
L 175.629689 180.027997 
L 176.513343 170.296997 
L 176.513343 170.296997 
L 179.694498 136.568311 
L 179.694498 136.568311 
L 180.931614 116.896451 
L 180.931614 116.896451 
L 181.461806 106.029198 
L 181.461806 106.029198 
L 182.34546 88.747507 
L 182.34546 88.747507 
L 182.522191 87.331811 
L 182.522191 87.331811 
L 182.875653 86.685532 
L 182.875653 86.685532 
L 183.052384 87.971334 
L 183.052384 87.971334 
L 183.582576 101.075688 
L 183.582576 101.075688 
L 184.2895 121.322684 
L 184.2895 121.322684 
L 185.526616 161.128344 
L 185.526616 161.128344 
L 185.880077 170.522606 
L 185.880077 170.522606 
L 186.233539 181.38003 
L 186.233539 181.38003 
L 186.763731 195.197174 
L 186.763731 195.197174 
L 187.470655 210.325641 
L 187.470655 210.325641 
L 187.824116 219.052905 
L 187.824116 219.052905 
L 188.177578 226.15936 
L 188.177578 226.15936 
L 188.707771 236.82792 
L 188.707771 236.82792 
L 189.414694 244.961453 
L 189.414694 244.961453 
L 190.121617 253.750425 
L 190.121617 253.750425 
L 190.65181 259.553821 
L 190.65181 259.553821 
L 191.888926 267.978355 
L 191.888926 267.978355 
L 192.595849 270.698505 
L 192.595849 270.698505 
L 193.126041 272.365386 
L 193.126041 272.365386 
L 193.479503 272.994913 
L 193.479503 272.994913 
L 193.832965 273.46266 
L 193.832965 273.46266 
L 194.186426 273.917396 
L 194.186426 273.917396 
L 194.716619 274.462934 
L 194.716619 274.462934 
L 195.423542 274.597685 
L 195.423542 274.597685 
L 197.190851 274.438865 
L 197.190851 274.438865 
L 198.074505 273.573231 
L 198.074505 273.573231 
L 198.604697 272.523647 
L 198.604697 272.523647 
L 198.958159 271.724132 
L 198.958159 271.724132 
L 199.488352 270.004367 
L 199.488352 270.004367 
L 199.665082 269.387014 
L 199.665082 269.387014 
L 201.25566 259.707 
L 201.25566 259.707 
L 201.962583 253.603165 
L 201.962583 253.603165 
L 202.492776 248.170571 
L 202.492776 248.170571 
L 204.436815 220.968291 
L 204.436815 220.968291 
L 205.673931 196.372909 
L 205.673931 196.372909 
L 206.557585 174.425694 
L 206.557585 174.425694 
L 207.794701 140.808026 
L 207.794701 140.808026 
L 209.208548 99.68987 
L 209.208548 99.68987 
L 209.915471 84.803206 
L 209.915471 84.803206 
L 210.622394 74.721507 
L 210.622394 74.721507 
L 211.329318 67.893825 
L 211.329318 67.893825 
L 212.036241 63.269905 
L 212.036241 63.269905 
L 212.743164 60.13841 
L 212.743164 60.13841 
L 213.450088 58.017687 
L 213.450088 58.017687 
L 214.157011 56.581497 
L 214.157011 56.581497 
L 214.863934 55.60881 
L 214.863934 55.60881 
L 215.040665 55.419333 
L 215.040665 55.419333 
L 215.394127 56.811462 
L 215.394127 56.811462 
L 215.747588 61.127794 
L 215.747588 61.127794 
L 220.165859 154.346509 
L 220.165859 154.346509 
L 220.872783 165.708817 
L 220.872783 165.708817 
L 221.402975 174.589707 
L 221.402975 174.589707 
L 222.109899 183.950072 
L 222.109899 183.950072 
L 222.640091 189.779826 
L 222.640091 189.779826 
L 223.877207 199.69606 
L 223.877207 199.69606 
L 224.58413 202.747196 
L 224.58413 202.747196 
L 225.114323 204.184 
L 225.114323 204.184 
L 225.644515 204.907679 
L 225.644515 204.907679 
L 226.7049 205.308749 
L 226.7049 205.308749 
L 227.588554 205.187121 
L 227.588554 205.187121 
L 228.295478 204.627232 
L 228.295478 204.627232 
L 229.002401 203.356674 
L 229.002401 203.356674 
L 229.532594 201.656288 
L 229.532594 201.656288 
L 230.592979 194.498848 
L 230.592979 194.498848 
L 231.476633 184.714908 
L 231.476633 184.714908 
L 232.713749 161.297718 
L 232.713749 161.297718 
L 235.364711 90.241607 
L 235.364711 90.241607 
L 236.071635 78.404515 
L 236.071635 78.404515 
L 236.778558 70.388087 
L 236.778558 70.388087 
L 237.485481 64.959123 
L 237.485481 64.959123 
L 238.192405 61.282425 
L 238.192405 61.282425 
L 238.899328 58.792464 
L 238.899328 58.792464 
L 239.606251 57.106149 
L 239.606251 57.106149 
L 240.313175 55.964144 
L 240.313175 55.964144 
L 241.020098 55.190764 
L 241.020098 55.190764 
L 241.37356 54.903448 
L 241.37356 54.903448 
L 241.55029 55.116101 
L 241.55029 55.116101 
L 241.727021 56.285804 
L 241.727021 56.285804 
L 242.787406 70.397357 
L 242.787406 70.397357 
L 243.49433 80.836846 
L 243.49433 80.836846 
L 243.847791 86.290102 
L 243.847791 86.290102 
L 244.731446 99.374855 
L 244.731446 99.374855 
L 245.084907 105.199695 
L 245.084907 105.199695 
L 245.968561 117.893709 
L 245.968561 117.893709 
L 246.322023 123.029995 
L 246.322023 123.029995 
L 247.382408 134.557992 
L 247.382408 134.557992 
L 247.912601 138.811835 
L 247.912601 138.811835 
L 248.619524 142.678234 
L 248.619524 142.678234 
L 249.149716 144.370467 
L 249.149716 144.370467 
L 249.679909 145.412568 
L 249.679909 145.412568 
L 250.033371 145.697762 
L 250.033371 145.697762 
L 250.563563 145.811013 
L 250.563563 145.811013 
L 250.917025 146.141608 
L 250.917025 146.141608 
L 251.447217 146.097659 
L 251.447217 146.097659 
L 252.154141 145.468523 
L 252.154141 145.468523 
L 252.507602 144.988881 
L 252.507602 144.988881 
L 253.391256 142.422693 
L 253.391256 142.422693 
L 254.274911 137.752422 
L 254.274911 137.752422 
L 254.805103 133.807228 
L 254.805103 133.807228 
L 255.512027 127.253403 
L 255.512027 127.253403 
L 257.279335 105.030544 
L 257.279335 105.030544 
L 258.162989 91.558905 
L 258.162989 91.558905 
L 259.223374 75.071424 
L 259.223374 75.071424 
L 259.930297 68.13077 
L 259.930297 68.13077 
L 260.637221 63.4304 
L 260.637221 63.4304 
L 261.344144 60.247138 
L 261.344144 60.247138 
L 262.051067 58.091289 
L 262.051067 58.091289 
L 262.757991 56.63131 
L 262.757991 56.63131 
L 263.464914 55.642596 
L 263.464914 55.642596 
L 264.348568 54.842522 
L 264.348568 54.842522 
L 265.232222 54.351041 
L 265.232222 54.351041 
L 266.292608 54.004419 
L 266.292608 54.004419 
L 267.883185 53.749548 
L 267.883185 53.749548 
L 270.357417 53.614406 
L 270.357417 53.614406 
L 276.366265 53.569675 
L 276.366265 53.569675 
L 276.896458 60.339894 
L 276.896458 60.339894 
L 277.42665 76.959223 
L 277.42665 76.959223 
L 278.310304 108.794637 
L 278.310304 108.794637 
L 279.724151 162.328203 
L 279.724151 162.328203 
L 281.844921 226.458291 
L 281.844921 226.458291 
L 282.375114 239.043299 
L 282.375114 239.043299 
L 282.551844 241.500759 
L 282.551844 241.500759 
L 282.905306 248.148513 
L 282.905306 248.148513 
L 283.435499 255.709647 
L 283.435499 255.709647 
L 283.965691 264.321203 
L 283.965691 264.321203 
L 285.026076 276.218662 
L 285.026076 276.218662 
L 285.379538 280.188372 
L 285.379538 280.188372 
L 286.970115 291.363547 
L 286.970115 291.363547 
L 287.853769 294.203091 
L 287.853769 294.203091 
L 288.383962 294.95095 
L 288.383962 294.95095 
L 288.737424 295.146069 
L 288.737424 295.146069 
L 289.444347 295.344482 
L 289.444347 295.344482 
L 290.681463 295.126747 
L 290.681463 295.126747 
L 290.858194 295.044545 
L 290.858194 295.044545 
L 291.741848 293.83508 
L 291.741848 293.83508 
L 292.625502 291.165804 
L 292.625502 291.165804 
L 293.509156 286.47342 
L 293.509156 286.47342 
L 294.746272 277.344304 
L 294.746272 277.344304 
L 295.453195 270.499757 
L 295.453195 270.499757 
L 295.983388 264.802074 
L 295.983388 264.802074 
L 296.690311 256.251555 
L 296.690311 256.251555 
L 297.397235 246.572714 
L 297.397235 246.572714 
L 298.987812 221.3339 
L 298.987812 221.3339 
L 301.285313 186.940841 
L 301.285313 186.940841 
L 302.345698 172.438326 
L 302.345698 172.438326 
L 303.052621 161.440678 
L 303.052621 161.440678 
L 303.229352 159.645189 
L 303.229352 159.645189 
L 303.582814 158.818981 
L 303.582814 158.818981 
L 304.113006 167.034325 
L 304.113006 167.034325 
L 304.466468 177.304496 
L 304.466468 177.304496 
L 304.996661 190.324638 
L 304.996661 190.324638 
L 306.410507 218.611628 
L 306.410507 218.611628 
L 306.9407 226.544291 
L 306.9407 226.544291 
L 308.884739 246.631014 
L 308.884739 246.631014 
L 309.414931 250.637861 
L 309.414931 250.637861 
L 310.121855 253.91522 
L 310.121855 253.91522 
L 310.652047 256.518098 
L 310.652047 256.518098 
L 310.828778 257.011589 
L 310.828778 257.011589 
L 311.18224 258.461126 
L 311.18224 258.461126 
L 312.065894 260.379191 
L 312.065894 260.379191 
L 312.419356 260.775347 
L 312.419356 260.775347 
L 312.596087 260.811422 
L 312.596087 260.811422 
L 312.772817 261.103318 
L 312.772817 261.103318 
L 312.949548 261.142296 
L 312.949548 261.142296 
L 313.30301 261.414814 
L 313.30301 261.414814 
L 313.833202 261.541635 
L 313.833202 261.541635 
L 315.070318 261.433298 
L 315.070318 261.433298 
L 315.600511 261.184235 
L 315.600511 261.184235 
L 315.953972 260.808072 
L 315.953972 260.808072 
L 316.484165 260.122198 
L 316.484165 260.122198 
L 317.721281 256.698417 
L 317.721281 256.698417 
L 318.604935 252.192886 
L 318.604935 252.192886 
L 319.311858 248.028561 
L 319.311858 248.028561 
L 320.372243 239.539973 
L 320.372243 239.539973 
L 322.846475 213.018316 
L 322.846475 213.018316 
L 325.850899 168.521835 
L 325.850899 168.521835 
L 326.734553 151.073897 
L 326.734553 151.073897 
L 327.264746 142.113486 
L 327.264746 142.113486 
L 327.618208 139.701147 
L 327.618208 139.701147 
L 327.794938 138.950439 
L 327.794938 138.950439 
L 327.971669 138.937483 
L 327.971669 138.937483 
L 328.1484 139.681266 
L 328.1484 139.681266 
L 328.325131 141.755136 
L 328.325131 141.755136 
L 329.385516 163.113869 
L 329.385516 163.113869 
L 331.152824 191.93009 
L 331.152824 191.93009 
L 332.38994 203.413803 
L 332.38994 203.413803 
L 333.273594 207.980092 
L 333.273594 207.980092 
L 333.803787 209.356808 
L 333.803787 209.356808 
L 334.157248 209.847172 
L 334.157248 209.847172 
L 334.51071 210.10813 
L 334.51071 210.10813 
L 334.864172 210.301461 
L 334.864172 210.301461 
L 335.571095 210.261589 
L 335.571095 210.261589 
L 336.278019 209.985832 
L 336.278019 209.985832 
L 336.984942 209.162192 
L 336.984942 209.162192 
L 337.515134 207.893422 
L 337.515134 207.893422 
L 337.868596 206.633587 
L 337.868596 206.633587 
L 338.75225 200.362164 
L 338.75225 200.362164 
L 339.282443 195.080126 
L 339.282443 195.080126 
L 339.989366 184.623045 
L 339.989366 184.623045 
L 340.342828 180.195919 
L 340.342828 180.195919 
L 340.696289 177.89309 
L 340.696289 177.89309 
L 340.87302 177.287743 
L 340.87302 177.287743 
L 341.049751 177.215593 
L 341.049751 177.215593 
L 341.226482 177.637548 
L 341.226482 177.637548 
L 341.756674 182.164133 
L 341.756674 182.164133 
L 342.110136 184.80504 
L 342.110136 184.80504 
L 342.640329 187.187279 
L 342.640329 187.187279 
L 343.523983 188.160804 
L 343.523983 188.160804 
L 344.407637 187.624201 
L 344.407637 187.624201 
L 344.761099 186.981551 
L 344.761099 186.981551 
L 345.468022 183.156811 
L 345.468022 183.156811 
L 345.998214 178.347323 
L 345.998214 178.347323 
L 346.705138 168.798485 
L 346.705138 168.798485 
L 347.058599 166.837811 
L 347.058599 166.837811 
L 347.23533 166.579142 
L 347.23533 166.579142 
L 348.825908 182.491209 
L 348.825908 182.491209 
L 349.3561 185.075994 
L 349.3561 185.075994 
L 349.709562 185.902593 
L 349.709562 185.902593 
L 350.063024 186.172933 
L 350.063024 186.172933 
L 350.239755 186.299419 
L 350.239755 186.299419 
L 350.416485 186.264908 
L 350.416485 186.264908 
L 350.769947 186.37492 
L 350.769947 186.37492 
L 351.653601 186.177456 
L 351.653601 186.177456 
L 352.007063 185.979434 
L 352.007063 185.979434 
L 352.360525 185.703399 
L 352.360525 185.703399 
L 352.890717 184.986141 
L 352.890717 184.986141 
L 353.244179 184.366555 
L 353.244179 184.366555 
L 353.774371 183.409225 
L 353.774371 183.409225 
L 354.481295 181.6325 
L 354.481295 181.6325 
L 355.188218 179.540537 
L 355.188218 179.540537 
L 355.895141 176.827255 
L 355.895141 176.827255 
L 357.132257 170.702144 
L 357.132257 170.702144 
L 358.369373 162.531865 
L 358.369373 162.531865 
L 359.429758 154.425193 
L 359.429758 154.425193 
L 360.666874 144.791976 
L 360.666874 144.791976 
L 362.080721 135.38219 
L 362.080721 135.38219 
L 363.494567 128.278025 
L 363.494567 128.278025 
L 364.378221 123.747029 
L 364.378221 123.747029 
L 365.085145 119.018458 
L 365.085145 119.018458 
L 366.14553 108.546356 
L 366.14553 108.546356 
L 367.382646 90.225524 
L 367.382646 90.225524 
L 368.089569 78.393682 
L 368.089569 78.393682 
L 368.796492 70.380715 
L 368.796492 70.380715 
L 369.503416 64.954097 
L 369.503416 64.954097 
L 370.210339 61.279019 
L 370.210339 61.279019 
L 370.917262 58.790174 
L 370.917262 58.790174 
L 371.624186 57.104642 
L 371.624186 57.104642 
L 372.331109 55.963083 
L 372.331109 55.963083 
L 373.038032 55.190038 
L 373.038032 55.190038 
L 373.921687 54.564532 
L 373.921687 54.564532 
L 374.982072 54.123366 
L 374.982072 54.123366 
L 376.395918 53.822703 
L 376.395918 53.822703 
L 378.516688 53.647131 
L 378.516688 53.647131 
L 382.758228 53.575651 
L 382.758228 53.575651 
L 397.250157 53.601004 
L 397.250157 53.601004 
L 397.603619 53.852803 
L 397.603619 53.852803 
L 398.487273 53.759879 
L 398.487273 53.759879 
" clip-path="url(#p9cfcad3b20)" style="fill: none; stroke: #1f77b4; stroke-width: 1.5; stroke-linecap: square"/>
   </g>
   <g id="line2d_28">
    <path d="M 73.832727 53.568 
L 92.212734 53.568 
L 92.212734 53.568 
L 92.389465 58.380002 
L 92.389465 58.380002 
L 92.566196 58.166064 
L 92.919658 71.583534 
L 92.919658 71.583534 
L 93.273119 89.762914 
L 93.273119 89.762914 
L 93.44985 87.660787 
L 93.44985 87.660787 
L 93.803312 102.528464 
L 93.803312 102.528464 
L 93.980043 110.844103 
L 93.980043 110.844103 
L 94.156773 108.791678 
L 94.156773 108.791678 
L 94.686966 123.65014 
L 94.686966 123.65014 
L 95.57062 146.557588 
L 95.57062 146.557588 
L 95.747351 147.347275 
L 95.747351 147.347275 
L 96.631005 166.911301 
L 96.631005 166.911301 
L 96.807736 166.059907 
L 96.807736 166.059907 
L 96.984467 170.861689 
L 96.984467 170.861689 
L 97.161198 171.709398 
L 97.161198 171.709398 
L 97.337928 174.291278 
L 97.337928 174.291278 
L 97.514659 179.378199 
L 97.514659 179.378199 
L 97.69139 178.855445 
L 97.69139 178.855445 
L 97.868121 182.287547 
L 97.868121 182.287547 
L 98.044852 183.025802 
L 98.044852 183.025802 
L 98.221583 185.012611 
L 98.221583 185.012611 
L 98.398313 189.082226 
L 98.398313 189.082226 
L 98.575044 188.270313 
L 98.575044 188.270313 
L 98.751775 190.857611 
L 98.751775 190.857611 
L 98.928506 191.331389 
L 98.928506 191.331389 
L 99.105237 193.273636 
L 99.105237 193.273636 
L 99.281968 193.475623 
L 99.281968 193.475623 
L 99.635429 195.566301 
L 99.635429 195.566301 
L 99.988891 198.070671 
L 99.988891 198.070671 
L 100.165622 198.024153 
L 100.165622 198.024153 
L 100.342353 198.754031 
L 100.342353 198.754031 
L 101.226007 199.633124 
L 101.226007 199.633124 
L 101.579469 199.273546 
L 101.579469 199.273546 
L 101.756199 199.496362 
L 101.756199 199.496362 
L 101.93293 199.310738 
L 101.93293 199.310738 
L 102.109661 199.535174 
L 102.109661 199.535174 
L 102.286392 199.240039 
L 102.286392 199.240039 
L 102.463123 199.473131 
L 102.463123 199.473131 
L 102.639854 198.953058 
L 102.639854 198.953058 
L 102.816584 199.144993 
L 102.816584 199.144993 
L 102.993315 198.400038 
L 102.993315 198.400038 
L 103.170046 198.412826 
L 103.170046 198.412826 
L 103.346777 197.361623 
L 103.346777 197.361623 
L 103.523508 197.115128 
L 103.523508 197.115128 
L 103.700239 195.873219 
L 103.700239 195.873219 
L 103.876969 193.011561 
L 103.876969 193.011561 
L 104.0537 193.746967 
L 104.0537 193.746967 
L 104.230431 190.333461 
L 104.230431 190.333461 
L 104.407162 190.67623 
L 104.407162 190.67623 
L 104.583893 186.927215 
L 104.583893 186.927215 
L 104.760624 186.37425 
L 104.760624 186.37425 
L 105.290816 177.527704 
L 105.290816 177.527704 
L 105.467547 167.868184 
L 105.467547 167.868184 
L 105.644278 170.421975 
L 105.644278 170.421975 
L 105.821009 160.851415 
L 105.821009 160.851415 
L 105.997739 162.098294 
L 105.997739 162.098294 
L 106.17447 152.4739 
L 106.17447 152.4739 
L 106.351201 150.831814 
L 106.351201 150.831814 
L 107.058124 121.455089 
L 107.058124 121.455089 
L 107.234855 121.673494 
L 107.234855 121.673494 
L 108.118509 135.590487 
L 108.118509 135.590487 
L 108.471971 140.580072 
L 108.471971 140.580072 
L 108.648702 140.851137 
L 108.648702 140.851137 
L 109.002164 143.121689 
L 109.002164 143.121689 
L 109.532356 143.798962 
L 109.532356 143.798962 
L 109.709087 144.499243 
L 109.709087 144.499243 
L 109.885818 144.396435 
L 110.062549 143.810913 
L 110.062549 143.810913 
L 110.41601 144.361365 
L 110.41601 144.361365 
L 110.769472 143.997989 
L 110.769472 143.997989 
L 110.946203 143.609205 
L 111.122934 143.855532 
L 111.122934 143.855532 
L 111.299664 143.891663 
L 111.299664 143.891663 
L 111.476395 142.518185 
L 111.476395 142.518185 
L 111.653126 142.818011 
L 111.829857 142.031228 
L 111.829857 142.031228 
L 112.006588 140.332237 
L 112.006588 140.332237 
L 112.183319 141.287612 
L 112.183319 141.287612 
L 112.360049 139.850752 
L 112.360049 139.850752 
L 112.53678 136.857582 
L 112.53678 136.857582 
L 112.713511 137.796204 
L 112.713511 137.796204 
L 112.890242 135.861553 
L 112.890242 135.861553 
L 113.066973 135.214267 
L 113.066973 135.214267 
L 113.243704 133.886694 
L 113.243704 133.886694 
L 113.420435 129.763078 
L 113.420435 129.763078 
L 113.597165 129.771343 
L 113.597165 129.771343 
L 113.773896 127.4077 
L 113.773896 127.4077 
L 113.950627 121.829243 
L 113.950627 121.829243 
L 114.127358 122.230536 
L 114.127358 122.230536 
L 114.304089 118.503802 
L 114.304089 118.503802 
L 114.48082 110.816237 
L 114.48082 110.816237 
L 114.65755 111.729171 
L 114.65755 111.729171 
L 114.834281 106.20734 
L 114.834281 106.20734 
L 115.011012 96.082753 
L 115.011012 96.082753 
L 115.187743 97.413733 
L 115.187743 97.413733 
L 115.364474 99.684062 
L 115.364474 99.684062 
L 115.541205 111.611899 
L 115.541205 111.611899 
L 115.717935 110.573373 
L 115.717935 110.573373 
L 116.071397 128.336773 
L 116.248128 127.652351 
L 116.424859 132.565542 
L 116.424859 132.565542 
L 116.60159 140.696729 
L 116.60159 140.696729 
L 116.77832 140.388081 
L 116.77832 140.388081 
L 117.131782 150.535843 
L 117.131782 150.535843 
L 117.308513 150.262152 
L 117.308513 150.262152 
L 117.661975 158.560313 
L 117.661975 158.560313 
L 117.838705 157.929501 
L 118.192167 161.556386 
L 118.192167 161.556386 
L 119.075821 168.645027 
L 119.075821 168.645027 
L 119.252552 168.747779 
L 119.252552 168.747779 
L 119.429283 169.565835 
L 119.429283 169.565835 
L 119.606014 169.774467 
L 119.606014 169.774467 
L 119.782745 170.562367 
L 119.782745 170.562367 
L 119.959475 170.494237 
L 119.959475 170.494237 
L 120.312937 170.8594 
L 120.312937 170.8594 
L 120.489668 170.858115 
L 120.489668 170.858115 
L 120.666399 171.497861 
L 120.666399 171.497861 
L 120.84313 170.784122 
L 120.84313 170.784122 
L 121.196591 171.462568 
L 121.196591 171.462568 
L 121.550053 171.551583 
L 121.550053 171.551583 
L 121.726784 170.520205 
L 121.726784 170.520205 
L 121.903515 171.195356 
L 121.903515 171.195356 
L 122.080245 171.177542 
L 122.080245 171.177542 
L 122.256976 171.415492 
L 122.433707 171.446541 
L 122.433707 171.446541 
L 122.610438 171.109468 
L 122.610438 171.109468 
L 122.787169 171.425209 
L 122.787169 171.425209 
L 122.9639 170.342789 
L 122.9639 170.342789 
L 123.14063 170.982088 
L 123.14063 170.982088 
L 123.317361 170.516686 
L 123.317361 170.516686 
L 123.494092 170.511884 
L 123.494092 170.511884 
L 123.670823 170.819862 
L 123.670823 170.819862 
L 123.847554 169.036882 
L 124.024285 170.1231 
L 124.024285 170.1231 
L 124.201015 169.324534 
L 124.201015 169.324534 
L 124.554477 169.763968 
L 124.554477 169.763968 
L 124.731208 167.946365 
L 124.907939 169.404614 
L 124.907939 169.404614 
L 125.08467 167.581817 
L 125.08467 167.581817 
L 125.438131 168.267635 
L 125.438131 168.267635 
L 125.614862 167.659217 
L 125.614862 167.659217 
L 125.791593 167.825854 
L 125.791593 167.825854 
L 125.968324 165.897737 
L 125.968324 165.897737 
L 126.145055 166.317459 
L 126.145055 166.317459 
L 126.321786 165.461039 
L 126.321786 165.461039 
L 126.498516 165.448194 
L 126.498516 165.448194 
L 126.675247 165.732774 
L 126.675247 165.732774 
L 126.851978 163.693695 
L 126.851978 163.693695 
L 127.028709 164.22946 
L 127.028709 164.22946 
L 127.20544 163.142908 
L 127.20544 163.142908 
L 127.558901 163.121911 
L 127.558901 163.121911 
L 127.735632 160.355466 
L 127.735632 160.355466 
L 127.912363 161.156601 
L 127.912363 161.156601 
L 128.089094 159.999686 
L 128.089094 159.999686 
L 128.265825 159.760842 
L 128.265825 159.760842 
L 128.442556 160.028892 
L 128.442556 160.028892 
L 128.619286 157.653131 
L 128.619286 157.653131 
L 128.796017 158.891578 
L 128.796017 158.891578 
L 128.972748 156.784704 
L 128.972748 156.784704 
L 129.149479 156.836583 
L 129.149479 156.836583 
L 129.32621 156.229896 
L 129.32621 156.229896 
L 129.502941 154.200534 
L 129.502941 154.200534 
L 129.679671 155.295295 
L 129.679671 155.295295 
L 129.856402 153.666053 
L 130.033133 153.308262 
L 130.033133 153.308262 
L 130.209864 152.422803 
L 130.209864 152.422803 
L 130.386595 150.397517 
L 130.386595 150.397517 
L 130.563326 151.165202 
L 130.563326 151.165202 
L 131.270249 146.272674 
L 131.270249 146.272674 
L 131.44698 146.517883 
L 131.623711 145.583785 
L 131.623711 145.583785 
L 131.800441 142.524887 
L 131.800441 142.524887 
L 131.977172 143.642879 
L 131.977172 143.642879 
L 132.153903 141.429344 
L 132.153903 141.429344 
L 132.330634 141.341501 
L 132.330634 141.341501 
L 132.507365 140.60051 
L 132.507365 140.60051 
L 132.684096 137.865953 
L 132.684096 137.865953 
L 132.860826 138.164438 
L 132.860826 138.164438 
L 133.037557 136.686477 
L 133.037557 136.686477 
L 133.214288 134.06182 
L 133.214288 134.06182 
L 133.391019 134.751769 
L 133.391019 134.751769 
L 134.097942 128.614763 
L 134.097942 128.614763 
L 134.274673 128.565788 
L 134.274673 128.565788 
L 134.451404 127.044883 
L 134.451404 127.044883 
L 134.628135 124.112973 
L 134.628135 124.112973 
L 134.804866 124.315407 
L 134.804866 124.315407 
L 134.981596 123.066461 
L 134.981596 123.066461 
L 135.158327 119.288519 
L 135.158327 119.288519 
L 135.335058 119.697686 
L 135.335058 119.697686 
L 135.511789 118.012935 
L 135.511789 118.012935 
L 135.68852 114.1438 
L 135.68852 114.1438 
L 135.865251 114.700227 
L 135.865251 114.700227 
L 136.218712 108.696185 
L 136.218712 108.696185 
L 136.395443 109.296952 
L 136.395443 109.296952 
L 136.572174 106.920576 
L 136.572174 106.920576 
L 136.748905 102.956674 
L 136.748905 102.956674 
L 136.925636 103.47267 
L 136.925636 103.47267 
L 137.102367 101.103443 
L 137.102367 101.103443 
L 137.279097 96.564238 
L 137.279097 96.564238 
L 137.455828 96.815591 
L 137.455828 96.815591 
L 138.339482 83.826722 
L 138.339482 83.826722 
L 138.516213 77.852611 
L 138.516213 77.852611 
L 138.692944 79.931898 
L 138.692944 79.931898 
L 139.046406 71.040063 
L 139.223137 71.169788 
L 139.399867 68.673516 
L 139.399867 68.673516 
L 139.753329 57.726909 
L 139.753329 57.726909 
L 139.93006 58.619348 
L 139.93006 58.619348 
L 140.283522 53.568 
L 140.283522 53.568 
L 150.710641 53.568 
L 150.710641 53.568 
L 150.887372 56.871606 
L 150.887372 56.871606 
L 151.240833 72.346304 
L 151.240833 72.346304 
L 151.417564 81.735484 
L 151.417564 81.735484 
L 151.594295 79.896884 
L 151.594295 79.896884 
L 152.124488 102.77736 
L 152.124488 102.77736 
L 152.301218 102.011742 
L 152.301218 102.011742 
L 152.65468 116.441715 
L 152.65468 116.441715 
L 152.831411 125.34874 
L 152.831411 125.34874 
L 153.008142 123.169437 
L 153.008142 123.169437 
L 153.361603 139.21659 
L 153.361603 139.21659 
L 153.538334 137.715175 
L 153.538334 137.715175 
L 153.715065 143.376504 
L 153.715065 143.376504 
L 153.891796 153.037029 
L 153.891796 153.037029 
L 154.068527 151.059266 
L 154.068527 151.059266 
L 154.421988 166.64716 
L 154.421988 166.64716 
L 154.598719 164.360302 
L 154.598719 164.360302 
L 154.77545 171.717104 
L 154.77545 171.717104 
L 154.952181 172.356683 
L 154.952181 172.356683 
L 155.128912 176.850542 
L 155.128912 176.850542 
L 155.305643 185.301379 
L 155.305643 185.301379 
L 155.482373 183.598033 
L 155.482373 183.598033 
L 155.659104 190.386904 
L 155.659104 190.386904 
L 155.835835 190.517411 
L 155.835835 190.517411 
L 156.189297 197.032535 
L 156.189297 197.032535 
L 156.366028 199.979914 
L 156.366028 199.979914 
L 156.542758 207.190237 
L 156.542758 207.190237 
L 156.719489 205.649284 
L 156.719489 205.649284 
L 156.89622 212.311893 
L 156.89622 212.311893 
L 157.072951 210.96684 
L 157.072951 210.96684 
L 157.249682 216.181307 
L 157.249682 216.181307 
L 157.426413 215.874892 
L 157.426413 215.874892 
L 157.603143 220.197423 
L 157.603143 220.197423 
L 157.779874 220.354344 
L 157.956605 224.0574 
L 157.956605 224.0574 
L 158.133336 224.414298 
L 158.133336 224.414298 
L 158.310067 227.830373 
L 158.310067 227.830373 
L 158.486798 228.071953 
L 158.486798 228.071953 
L 158.663528 230.932103 
L 158.663528 230.932103 
L 158.840259 231.356013 
L 159.01699 233.966933 
L 159.01699 233.966933 
L 159.193721 234.280942 
L 159.193721 234.280942 
L 159.370452 237.075755 
L 159.370452 237.075755 
L 159.547183 237.247084 
L 159.547183 237.247084 
L 159.723913 239.073119 
L 159.723913 239.073119 
L 159.900644 239.122988 
L 159.900644 239.122988 
L 160.077375 241.313459 
L 160.077375 241.313459 
L 160.254106 241.075118 
L 160.254106 241.075118 
L 160.430837 242.867368 
L 160.430837 242.867368 
L 160.607568 243.118832 
L 160.607568 243.118832 
L 160.784299 244.26134 
L 160.784299 244.26134 
L 160.961029 244.12536 
L 160.961029 244.12536 
L 161.13776 245.336333 
L 161.13776 245.336333 
L 161.314491 245.50297 
L 161.314491 245.50297 
L 161.491222 246.10424 
L 161.491222 246.10424 
L 161.667953 246.161257 
L 161.667953 246.161257 
L 162.374876 247.383956 
L 162.374876 247.383956 
L 162.551607 247.201738 
L 162.551607 247.201738 
L 162.728338 247.339337 
L 162.728338 247.339337 
L 163.25853 247.30946 
L 163.25853 247.30946 
L 163.435261 247.427626 
L 163.435261 247.427626 
L 163.611992 247.292986 
L 163.611992 247.292986 
L 163.788723 247.401268 
L 163.788723 247.401268 
L 164.142184 247.046157 
L 164.142184 247.046157 
L 164.672377 247.364131 
L 164.672377 247.364131 
L 164.849108 246.850592 
L 164.849108 246.850592 
L 165.025839 247.009914 
L 165.025839 247.009914 
L 165.202569 245.875783 
L 165.202569 245.875783 
L 165.3793 246.081177 
L 165.3793 246.081177 
L 165.556031 245.320417 
L 165.556031 245.320417 
L 165.732762 245.606728 
L 165.732762 245.606728 
L 165.909493 243.946437 
L 165.909493 243.946437 
L 166.086224 244.638174 
L 166.086224 244.638174 
L 166.262954 242.589657 
L 166.262954 242.589657 
L 166.439685 243.456464 
L 166.439685 243.456464 
L 166.616416 240.970969 
L 166.616416 240.970969 
L 166.793147 242.619198 
L 166.793147 242.619198 
L 166.969878 239.098975 
L 166.969878 239.098975 
L 167.146609 240.736146 
L 167.146609 240.736146 
L 167.853532 236.159973 
L 167.853532 236.159973 
L 168.030263 235.484822 
L 168.030263 235.484822 
L 168.206994 233.793203 
L 168.206994 233.793203 
L 168.383724 233.600709 
L 168.383724 233.600709 
L 168.560455 230.747595 
L 168.560455 230.747595 
L 168.737186 230.765019 
L 168.737186 230.765019 
L 168.913917 228.309401 
L 168.913917 228.309401 
L 169.090648 228.529593 
L 169.090648 228.529593 
L 169.267379 224.935097 
L 169.267379 224.935097 
L 169.444109 225.351691 
L 169.444109 225.351691 
L 169.62084 221.792154 
L 169.62084 221.792154 
L 169.797571 222.404034 
L 169.797571 222.404034 
L 169.974302 218.529482 
L 169.974302 218.529482 
L 170.151033 219.307776 
L 170.151033 219.307776 
L 170.327764 215.180699 
L 170.327764 215.180699 
L 170.504494 216.07163 
L 170.504494 216.07163 
L 170.681225 211.739717 
L 170.681225 211.739717 
L 170.857956 212.708663 
L 170.857956 212.708663 
L 171.034687 208.237085 
L 171.034687 208.237085 
L 171.211418 209.214686 
L 171.211418 209.214686 
L 171.388149 204.695529 
L 171.388149 204.695529 
L 171.564879 205.605112 
L 171.564879 205.605112 
L 171.74161 201.12002 
L 171.74161 201.12002 
L 171.918341 201.908646 
L 171.918341 201.908646 
L 172.095072 197.534515 
L 172.095072 197.534515 
L 172.271803 198.131373 
L 172.271803 198.131373 
L 172.448534 193.942141 
L 172.448534 193.942141 
L 172.625265 194.266649 
L 172.625265 194.266649 
L 172.801995 190.358423 
L 172.801995 190.358423 
L 172.978726 190.338208 
L 172.978726 190.338208 
L 173.155457 186.799612 
L 173.155457 186.799612 
L 173.332188 186.351522 
L 173.332188 186.351522 
L 173.508919 183.180768 
L 173.508919 183.180768 
L 173.68565 182.13152 
L 173.68565 182.13152 
L 173.86238 179.840641 
L 173.86238 179.840641 
L 174.039111 174.270113 
L 174.039111 174.270113 
L 174.215842 175.779291 
L 174.215842 175.779291 
L 174.392573 171.112707 
L 174.392573 171.112707 
L 174.569304 172.132805 
L 174.569304 172.132805 
L 174.746035 167.939887 
L 174.746035 167.939887 
L 174.922765 168.186549 
L 174.922765 168.186549 
L 175.276227 163.560284 
L 175.276227 163.560284 
L 175.452958 161.759434 
L 175.452958 161.759434 
L 175.629689 156.358393 
L 175.629689 156.358393 
L 175.80642 158.571984 
L 175.80642 158.571984 
L 175.98315 154.203159 
L 175.98315 154.203159 
L 176.159881 154.520574 
L 176.159881 154.520574 
L 176.336612 151.651322 
L 176.336612 151.651322 
L 176.690074 149.54819 
L 176.690074 149.54819 
L 176.866805 144.616403 
L 176.866805 144.616403 
L 177.043535 145.558543 
L 177.043535 145.558543 
L 177.220266 142.777189 
L 177.220266 142.777189 
L 177.573728 140.880958 
L 177.573728 140.880958 
L 177.750459 136.669556 
L 177.750459 136.669556 
L 177.92719 137.147076 
L 177.92719 137.147076 
L 178.280651 133.140621 
L 178.280651 133.140621 
L 178.457382 131.452129 
L 178.457382 131.452129 
L 178.634113 127.495039 
L 178.634113 127.495039 
L 178.810844 126.871823 
L 178.987575 124.407773 
L 178.987575 124.407773 
L 179.164305 118.776934 
L 179.164305 118.776934 
L 179.341036 119.293377 
L 179.341036 119.293377 
L 179.517767 115.984187 
L 179.517767 115.984187 
L 179.694498 108.557916 
L 179.694498 108.557916 
L 179.871229 109.789494 
L 179.871229 109.789494 
L 180.04796 104.696877 
L 180.04796 104.696877 
L 180.22469 96.204325 
L 180.22469 96.204325 
L 180.401421 98.142383 
L 180.401421 98.142383 
L 180.754883 81.440182 
L 180.754883 81.440182 
L 180.931614 83.274818 
L 180.931614 83.274818 
L 181.108345 76.130836 
L 181.108345 76.130836 
L 181.285075 64.491376 
L 181.285075 64.491376 
L 181.461806 65.437537 
L 181.461806 65.437537 
L 181.638537 58.071576 
L 181.638537 58.071576 
L 181.815268 57.077446 
L 181.815268 57.077446 
L 181.991999 59.072353 
L 181.991999 59.072353 
L 183.229115 108.530049 
L 183.229115 108.530049 
L 183.405845 107.851604 
L 183.405845 107.851604 
L 184.2895 139.198999 
L 184.2895 139.198999 
L 184.466231 150.230991 
L 184.466231 150.230991 
L 184.642961 147.277582 
L 184.642961 147.277582 
L 184.996423 158.554784 
L 184.996423 158.554784 
L 185.173154 164.126037 
L 185.173154 164.126037 
L 185.349885 173.584855 
L 185.349885 173.584855 
L 185.526616 174.197628 
L 185.526616 174.197628 
L 185.703346 179.848906 
L 185.703346 179.848906 
L 185.880077 191.173631 
L 185.880077 191.173631 
L 186.056808 188.521945 
L 186.056808 188.521945 
L 186.233539 197.246975 
L 186.233539 197.246975 
L 186.41027 197.465213 
L 186.41027 197.465213 
L 186.587001 204.148316 
L 186.587001 204.148316 
L 186.763731 206.004227 
L 186.763731 206.004227 
L 187.293924 217.243176 
L 187.293924 217.243176 
L 187.470655 227.775534 
L 187.647386 224.235877 
L 187.647386 224.235877 
L 187.824116 233.275252 
L 187.824116 233.275252 
L 188.000847 230.371041 
L 188.000847 230.371041 
L 188.177578 239.065468 
L 188.177578 239.065468 
L 188.354309 236.609236 
L 188.354309 236.609236 
L 188.53104 244.749526 
L 188.53104 244.749526 
L 188.707771 242.178256 
L 189.768156 256.974564 
L 189.768156 256.974564 
L 189.944886 257.066483 
L 189.944886 257.066483 
L 190.121617 260.277556 
L 190.121617 260.277556 
L 190.298348 259.921105 
L 190.298348 259.921105 
L 190.475079 263.756231 
L 190.475079 263.756231 
L 190.65181 263.32791 
L 190.65181 263.32791 
L 190.828541 264.141944 
L 190.828541 264.141944 
L 191.005271 266.102675 
L 191.005271 266.102675 
L 191.182002 266.813454 
L 191.182002 266.813454 
L 191.358733 268.154319 
L 191.358733 268.154319 
L 191.535464 268.412987 
L 191.535464 268.412987 
L 191.712195 270.404599 
L 191.712195 270.404599 
L 191.888926 270.309609 
L 191.888926 270.309609 
L 192.065656 271.206237 
L 192.242387 271.526612 
L 192.242387 271.526612 
L 192.419118 271.508184 
L 192.419118 271.508184 
L 192.595849 272.714968 
L 192.595849 272.714968 
L 193.126041 273.620363 
L 193.126041 273.620363 
L 193.302772 273.3713 
L 193.302772 273.3713 
L 193.479503 274.022103 
L 193.479503 274.022103 
L 193.656234 273.680171 
L 193.656234 273.680171 
L 193.832965 274.384696 
L 193.832965 274.384696 
L 194.009696 274.179024 
L 194.009696 274.179024 
L 194.363157 274.633425 
L 194.363157 274.633425 
L 194.539888 274.782192 
L 194.539888 274.782192 
L 194.89335 274.418482 
L 194.89335 274.418482 
L 195.246812 274.723445 
L 195.246812 274.723445 
L 195.423542 274.47857 
L 195.423542 274.47857 
L 195.777004 274.780964 
L 195.777004 274.780964 
L 196.307197 274.206108 
L 196.307197 274.206108 
L 196.483927 274.458298 
L 196.483927 274.458298 
L 196.837389 273.977484 
L 196.837389 273.977484 
L 197.01412 273.996135 
L 197.01412 273.996135 
L 197.190851 272.666495 
L 197.190851 272.666495 
L 197.367582 273.328188 
L 197.367582 273.328188 
L 197.544312 271.28291 
L 197.544312 271.28291 
L 197.721043 272.286925 
L 197.721043 272.286925 
L 197.897774 271.693418 
L 197.897774 271.693418 
L 198.074505 270.521592 
L 198.074505 270.521592 
L 198.251236 270.618704 
L 198.251236 270.618704 
L 198.427967 267.459399 
L 198.427967 267.459399 
L 198.604697 268.830475 
L 198.604697 268.830475 
L 198.958159 266.360338 
L 198.958159 266.360338 
L 199.13489 265.726344 
L 199.13489 265.726344 
L 199.311621 263.055113 
L 199.311621 263.055113 
L 199.488352 263.354547 
L 199.488352 263.354547 
L 199.665082 258.294432 
L 199.665082 258.294432 
L 199.841813 260.404991 
L 199.841813 260.404991 
L 200.372006 255.622308 
L 200.372006 255.622308 
L 200.548737 251.092205 
L 200.548737 251.092205 
L 200.725467 251.882897 
L 200.725467 251.882897 
L 200.902198 245.715512 
L 200.902198 245.715512 
L 201.078929 247.767156 
L 201.078929 247.767156 
L 201.609122 240.830634 
L 201.609122 240.830634 
L 201.785852 236.11312 
L 201.785852 236.11312 
L 201.962583 235.92219 
L 201.962583 235.92219 
L 202.139314 230.032628 
L 202.139314 230.032628 
L 202.316045 231.019387 
L 202.316045 231.019387 
L 202.492776 222.791031 
L 202.492776 222.791031 
L 202.669507 225.230175 
L 202.669507 225.230175 
L 202.846237 215.394078 
L 202.846237 215.394078 
L 203.022968 218.520547 
L 203.022968 218.520547 
L 203.199699 215.678155 
L 203.199699 215.678155 
L 203.729892 203.244819 
L 203.729892 203.244819 
L 203.906622 201.072888 
L 203.906622 201.072888 
L 204.083353 194.482151 
L 204.083353 194.482151 
L 204.260084 193.013627 
L 204.260084 193.013627 
L 204.436815 185.506829 
L 204.436815 185.506829 
L 204.613546 184.131006 
L 204.613546 184.131006 
L 204.790277 176.194546 
L 204.790277 176.194546 
L 204.967007 174.877247 
L 204.967007 174.877247 
L 205.143738 167.411494 
L 205.143738 167.411494 
L 205.320469 164.847092 
L 205.320469 164.847092 
L 206.027392 135.696255 
L 206.027392 135.696255 
L 206.204123 137.957481 
L 206.204123 137.957481 
L 206.380854 126.979099 
L 206.380854 126.979099 
L 206.557585 126.431662 
L 206.557585 126.431662 
L 206.911047 115.161944 
L 206.911047 115.161944 
L 207.087778 109.932454 
L 207.087778 109.932454 
L 207.264508 99.035325 
L 207.264508 99.035325 
L 207.441239 98.263787 
L 207.441239 98.263787 
L 207.61797 92.8432 
L 207.61797 92.8432 
L 207.794701 81.259304 
L 207.794701 81.259304 
L 207.971432 82.352781 
L 207.971432 82.352781 
L 208.324893 65.1634 
L 208.324893 65.1634 
L 208.501624 66.303227 
L 208.501624 66.303227 
L 208.855086 53.568 
L 208.855086 53.568 
L 214.863934 53.568 
L 214.863934 53.568 
L 215.040665 57.561835 
L 215.040665 57.561835 
L 215.217396 58.058509 
L 215.217396 58.058509 
L 215.747588 72.186088 
L 215.747588 72.186088 
L 215.924319 78.582992 
L 215.924319 78.582992 
L 216.10105 77.298194 
L 216.10105 77.298194 
L 216.631243 93.100026 
L 216.631243 93.100026 
L 216.807973 92.528242 
L 216.807973 92.528242 
L 217.161435 103.11555 
L 217.161435 103.11555 
L 217.338166 110.196427 
L 217.338166 110.196427 
L 217.514897 108.657262 
L 217.514897 108.657262 
L 217.691628 112.794224 
L 217.691628 112.794224 
L 217.868358 120.046095 
L 217.868358 120.046095 
L 218.045089 120.27673 
L 218.045089 120.27673 
L 218.22182 124.161446 
L 218.398551 130.60805 
L 218.398551 130.60805 
L 218.575282 132.06708 
L 218.575282 132.06708 
L 218.752013 135.459924 
L 218.752013 135.459924 
L 218.928744 141.186982 
L 218.928744 141.186982 
L 219.105474 142.419677 
L 219.105474 142.419677 
L 219.989129 162.260576 
L 219.989129 162.260576 
L 220.165859 161.841636 
L 220.165859 161.841636 
L 220.519321 168.151033 
L 220.519321 168.151033 
L 220.696052 171.009563 
L 220.696052 171.009563 
L 220.872783 176.476947 
L 220.872783 176.476947 
L 221.049514 176.565739 
L 221.049514 176.565739 
L 221.226244 179.758048 
L 221.226244 179.758048 
L 221.402975 180.574484 
L 221.402975 180.574484 
L 222.109899 190.675839 
L 222.109899 190.675839 
L 222.286629 191.235226 
L 222.286629 191.235226 
L 222.640091 194.08136 
L 222.640091 194.08136 
L 222.816822 195.764491 
L 222.816822 195.764491 
L 222.993553 198.743365 
L 222.993553 198.743365 
L 223.170284 198.345199 
L 223.170284 198.345199 
L 223.347014 200.428897 
L 223.347014 200.428897 
L 223.523745 200.495296 
L 223.523745 200.495296 
L 223.700476 201.839623 
L 223.700476 201.839623 
L 223.877207 202.226229 
L 223.877207 202.226229 
L 224.230669 203.55263 
L 224.230669 203.55263 
L 225.114323 205.071804 
L 225.114323 205.071804 
L 225.291054 205.106148 
L 225.291054 205.106148 
L 225.467784 205.299814 
L 225.467784 205.299814 
L 225.644515 205.161545 
L 225.644515 205.161545 
L 225.821246 205.378107 
L 225.821246 205.378107 
L 225.997977 205.193488 
L 225.997977 205.193488 
L 226.174708 205.41206 
L 226.174708 205.41206 
L 226.351439 205.222917 
L 226.351439 205.222917 
L 226.528169 205.442495 
L 226.528169 205.442495 
L 226.7049 205.217333 
L 226.7049 205.217333 
L 226.881631 205.404521 
L 226.881631 205.404521 
L 227.058362 205.099503 
L 227.058362 205.099503 
L 227.235093 204.398496 
L 227.235093 204.398496 
L 227.411824 204.776614 
L 227.411824 204.776614 
L 227.588554 203.77567 
L 227.588554 203.77567 
L 227.765285 204.155966 
L 227.765285 204.155966 
L 227.942016 202.860838 
L 227.942016 202.860838 
L 228.118747 203.168928 
L 228.118747 203.168928 
L 228.295478 201.611054 
L 228.295478 201.611054 
L 228.472209 201.738936 
L 228.472209 201.738936 
L 228.648939 199.974441 
L 228.648939 199.974441 
L 228.82567 199.791106 
L 228.82567 199.791106 
L 229.002401 197.750742 
L 229.002401 197.750742 
L 229.179132 197.225476 
L 229.179132 197.225476 
L 229.355863 195.216552 
L 229.355863 195.216552 
L 229.532594 189.792559 
L 229.532594 189.792559 
L 229.709324 191.541418 
L 229.709324 191.541418 
L 229.886055 185.5615 
L 229.886055 185.5615 
L 230.062786 186.984287 
L 230.062786 186.984287 
L 230.239517 180.929259 
L 230.239517 180.929259 
L 230.416248 181.591957 
L 230.416248 181.591957 
L 230.592979 175.30931 
L 230.592979 175.30931 
L 230.76971 174.839497 
L 230.76971 174.839497 
L 230.94644 169.043863 
L 230.94644 169.043863 
L 231.123171 166.972897 
L 231.123171 166.972897 
L 231.299902 162.703417 
L 231.299902 162.703417 
L 231.476633 149.904026 
L 231.476633 149.904026 
L 231.653364 153.013016 
L 231.653364 153.013016 
L 231.830095 141.708004 
L 231.830095 141.708004 
L 232.006825 142.130797 
L 232.006825 142.130797 
L 232.183556 133.421012 
L 232.183556 133.421012 
L 232.360287 130.202513 
L 232.360287 130.202513 
L 232.537018 123.937345 
L 232.537018 123.937345 
L 232.713749 108.25312 
L 232.713749 108.25312 
L 232.89048 109.415955 
L 232.89048 109.415955 
L 233.243941 96.388219 
L 233.243941 96.388219 
L 234.127595 66.313725 
L 234.127595 66.313725 
L 234.304326 64.716705 
L 234.304326 64.716705 
L 234.834519 53.568 
L 234.834519 53.568 
L 241.196829 53.568 
L 241.196829 53.568 
L 241.55029 58.51425 
L 241.55029 58.51425 
L 241.903752 66.157698 
L 241.903752 66.157698 
L 242.080483 66.363706 
L 242.080483 66.363706 
L 242.433945 71.957743 
L 242.433945 71.957743 
L 242.610676 76.156636 
L 242.610676 76.156636 
L 242.787406 77.376543 
L 242.787406 77.376543 
L 243.317599 86.418878 
L 243.317599 86.418878 
L 243.49433 90.592752 
L 243.49433 90.592752 
L 243.671061 90.281368 
L 243.671061 90.281368 
L 244.731446 109.489836 
L 244.731446 109.489836 
L 244.908176 109.663343 
L 244.908176 109.663343 
L 245.084907 112.180445 
L 245.261638 116.36923 
L 245.261638 116.36923 
L 245.438369 117.007468 
L 245.438369 117.007468 
L 245.791831 122.990849 
L 245.791831 122.990849 
L 245.968561 127.478175 
L 245.968561 127.478175 
L 246.145292 126.52978 
L 246.145292 126.52978 
L 246.498754 132.974318 
L 246.498754 132.974318 
L 246.675485 132.323124 
L 246.675485 132.323124 
L 247.028946 137.266973 
L 247.028946 137.266973 
L 247.205677 137.044156 
L 247.205677 137.044156 
L 247.559139 140.962769 
L 247.559139 140.962769 
L 247.73587 140.665624 
L 247.73587 140.665624 
L 248.089331 142.670639 
L 248.089331 142.670639 
L 248.266062 143.259288 
L 248.266062 143.259288 
L 248.442793 144.583065 
L 248.442793 144.583065 
L 248.619524 144.585131 
L 248.619524 144.585131 
L 249.149716 145.627678 
L 249.149716 145.627678 
L 249.326447 146.114859 
L 249.326447 146.114859 
L 249.503178 145.713286 
L 249.503178 145.713286 
L 249.679909 145.985134 
L 249.679909 145.985134 
L 250.033371 145.709936 
L 250.033371 145.709936 
L 250.210101 145.988485 
L 250.210101 145.988485 
L 250.386832 145.830838 
L 250.386832 145.830838 
L 250.563563 146.434955 
L 250.563563 146.434955 
L 250.740294 146.362303 
L 250.740294 146.362303 
L 251.093756 145.874061 
L 251.093756 145.874061 
L 251.270486 145.968102 
L 251.270486 145.968102 
L 251.447217 144.760033 
L 251.447217 144.760033 
L 251.623948 145.018758 
L 251.623948 145.018758 
L 251.800679 144.357456 
L 251.800679 144.357456 
L 251.97741 142.786124 
L 251.97741 142.786124 
L 252.154141 143.675547 
L 252.154141 143.675547 
L 252.507602 139.509547 
L 252.507602 139.509547 
L 252.684333 140.384842 
L 252.684333 140.384842 
L 252.861064 138.180688 
L 252.861064 138.180688 
L 253.037795 138.010588 
L 253.037795 138.010588 
L 253.214526 136.428869 
L 253.214526 136.428869 
L 253.391256 133.190936 
L 253.391256 133.190936 
L 253.567987 133.349365 
L 253.567987 133.349365 
L 253.744718 131.77256 
L 253.744718 131.77256 
L 253.921449 127.161373 
L 253.921449 127.161373 
L 254.09818 127.752144 
L 254.09818 127.752144 
L 254.274911 125.437867 
L 254.274911 125.437867 
L 254.451642 120.317775 
L 254.451642 120.317775 
L 254.628372 121.207366 
L 254.628372 121.207366 
L 254.981834 112.84331 
L 254.981834 112.84331 
L 255.158565 114.051881 
L 255.158565 114.051881 
L 255.512027 104.622773 
L 255.512027 104.622773 
L 255.688757 106.367332 
L 255.688757 106.367332 
L 256.042219 96.12162 
L 256.042219 96.12162 
L 256.21895 97.942127 
L 256.21895 97.942127 
L 256.572412 87.269602 
L 256.572412 87.269602 
L 256.749142 88.74505 
L 256.749142 88.74505 
L 256.925873 84.843022 
L 256.925873 84.843022 
L 257.102604 77.954805 
L 257.102604 77.954805 
L 257.279335 78.305281 
L 257.279335 78.305281 
L 257.456066 74.995309 
L 257.456066 74.995309 
L 257.632797 68.86841 
L 257.632797 68.86841 
L 257.809527 67.434119 
L 257.809527 67.434119 
L 258.162989 59.358049 
L 258.162989 59.358049 
L 258.33972 53.568 
L 258.33972 53.568 
L 276.189534 53.568 
L 276.189534 53.568 
L 276.366265 60.269755 
L 276.366265 60.269755 
L 276.542996 59.245021 
L 276.542996 59.245021 
L 277.780112 111.967736 
L 277.780112 111.967736 
L 277.956843 113.623671 
L 277.956843 113.623671 
L 278.310304 129.603421 
L 278.310304 129.603421 
L 278.487035 143.177533 
L 278.487035 143.177533 
L 278.663766 140.53992 
L 278.663766 140.53992 
L 278.840497 148.509831 
L 278.840497 148.509831 
L 279.017228 162.555878 
L 279.017228 162.555878 
L 279.193959 160.199327 
L 279.193959 160.199327 
L 279.54742 172.472279 
L 279.54742 172.472279 
L 279.724151 178.626095 
L 279.724151 178.626095 
L 279.900882 191.054684 
L 279.900882 191.054684 
L 280.077613 189.855104 
L 280.077613 189.855104 
L 280.254344 198.614254 
L 280.254344 198.614254 
L 280.431074 200.573477 
L 280.431074 200.573477 
L 280.607805 206.251559 
L 280.607805 206.251559 
L 280.784536 219.688742 
L 280.784536 219.688742 
L 280.961267 215.322095 
L 280.961267 215.322095 
L 281.137998 227.266797 
L 281.137998 227.266797 
L 281.314729 223.739593 
L 281.314729 223.739593 
L 281.491459 234.234033 
L 281.491459 234.234033 
L 281.66819 232.071539 
L 281.66819 232.071539 
L 281.844921 241.65796 
L 281.844921 241.65796 
L 282.021652 239.102325 
L 282.021652 239.102325 
L 282.198383 248.190675 
L 282.198383 248.190675 
L 282.375114 246.182366 
L 282.375114 246.182366 
L 282.551844 254.969885 
L 282.551844 254.969885 
L 282.728575 251.980289 
L 282.728575 251.980289 
L 282.905306 254.464331 
L 282.905306 254.464331 
L 283.082037 259.088195 
L 283.082037 259.088195 
L 283.258768 260.224225 
L 283.258768 260.224225 
L 283.435499 264.892596 
L 283.435499 264.892596 
L 283.612229 264.65392 
L 283.612229 264.65392 
L 283.78896 270.912387 
L 283.78896 270.912387 
L 283.965691 269.652719 
L 283.965691 269.652719 
L 284.142422 271.43179 
L 284.142422 271.43179 
L 284.319153 274.731095 
L 284.319153 274.731095 
L 284.495884 275.677759 
L 284.495884 275.677759 
L 284.672614 279.371154 
L 284.672614 279.371154 
L 284.849345 279.233778 
L 284.849345 279.233778 
L 285.026076 284.077499 
L 285.026076 284.077499 
L 285.202807 282.59736 
L 285.202807 282.59736 
L 285.379538 284.021544 
L 285.379538 284.021544 
L 285.556269 286.591641 
L 285.556269 286.591641 
L 285.732999 286.779946 
L 285.732999 286.779946 
L 285.90973 289.454584 
L 285.90973 289.454584 
L 286.086461 289.07049 
L 286.263192 289.852191 
L 286.263192 289.852191 
L 286.439923 291.607975 
L 286.439923 291.607975 
L 286.616654 291.962304 
L 286.616654 291.962304 
L 286.793384 293.540225 
L 286.793384 293.540225 
L 286.970115 293.226327 
L 286.970115 293.226327 
L 287.323577 294.435513 
L 287.323577 294.435513 
L 287.500308 294.644368 
L 287.677039 295.074756 
L 287.677039 295.074756 
L 287.853769 295.043539 
L 287.853769 295.043539 
L 288.0305 295.351294 
L 288.0305 295.351294 
L 288.207231 295.261386 
L 288.207231 295.261386 
L 288.383962 295.39932 
L 288.383962 295.39932 
L 288.560693 295.223747 
L 288.560693 295.223747 
L 288.914155 295.488 
L 288.914155 295.488 
L 289.090885 295.282104 
L 289.090885 295.282104 
L 289.267616 295.414063 
L 289.267616 295.414063 
L 289.444347 295.109658 
L 289.444347 295.109658 
L 289.797809 295.394182 
L 289.797809 295.394182 
L 289.97454 294.843563 
L 289.97454 294.843563 
L 290.15127 295.037397 
L 290.15127 295.037397 
L 290.504732 294.260051 
L 290.504732 294.260051 
L 290.681463 294.240953 
L 290.681463 294.240953 
L 290.858194 292.673418 
L 290.858194 292.673418 
L 291.034925 293.077448 
L 291.565117 290.903283 
L 291.565117 290.903283 
L 291.741848 288.093671 
L 291.741848 288.093671 
L 291.918579 288.733026 
L 291.918579 288.733026 
L 292.09531 287.840866 
L 292.09531 287.840866 
L 292.27204 285.61834 
L 292.27204 285.61834 
L 292.448771 285.167346 
L 292.448771 285.167346 
L 292.625502 281.665216 
L 292.625502 281.665216 
L 292.802233 282.131232 
L 292.802233 282.131232 
L 292.978964 276.613142 
L 292.978964 276.613142 
L 293.155695 278.44264 
L 293.155695 278.44264 
L 293.332425 277.319007 
L 293.332425 277.319007 
L 293.509156 273.497171 
L 293.509156 273.497171 
L 293.685887 273.956542 
L 293.685887 273.956542 
L 293.862618 267.393448 
L 293.862618 267.393448 
L 294.039349 269.564653 
L 294.039349 269.564653 
L 294.21608 268.145161 
L 294.21608 268.145161 
L 294.39281 263.594396 
L 294.39281 263.594396 
L 294.569541 264.445399 
L 294.569541 264.445399 
L 294.746272 256.435672 
L 294.746272 256.435672 
L 294.923003 258.950596 
L 294.923003 258.950596 
L 295.099734 257.522392 
L 295.099734 257.522392 
L 295.276465 252.347071 
L 295.276465 252.347071 
L 295.453195 253.133016 
L 295.453195 253.133016 
L 295.629926 244.255365 
L 295.629926 244.255365 
L 295.806657 247.22804 
L 295.806657 247.22804 
L 295.983388 244.586686 
L 295.983388 244.586686 
L 296.160119 239.928311 
L 296.160119 239.928311 
L 296.33685 239.256063 
L 296.33685 239.256063 
L 296.51358 231.437266 
L 296.51358 231.437266 
L 296.690311 232.815546 
L 296.690311 232.815546 
L 296.867042 223.51136 
L 296.867042 223.51136 
L 297.043773 226.850929 
L 297.043773 226.850929 
L 298.104158 203.940074 
L 298.104158 203.940074 
L 298.280889 203.953924 
L 298.280889 203.953924 
L 298.45762 196.931682 
L 298.45762 196.931682 
L 298.63435 197.365197 
L 298.63435 197.365197 
L 298.811081 190.980802 
L 298.811081 190.980802 
L 298.987812 191.561131 
L 298.987812 191.561131 
L 299.164543 185.744835 
L 299.164543 185.744835 
L 299.341274 186.228051 
L 299.341274 186.228051 
L 299.518005 181.197198 
L 299.518005 181.197198 
L 299.694735 181.414877 
L 299.694735 181.414877 
L 299.871466 177.086426 
L 299.871466 177.086426 
L 300.048197 177.063754 
L 300.048197 177.063754 
L 300.224928 173.589657 
L 300.224928 173.589657 
L 300.401659 172.866927 
L 300.401659 172.866927 
L 300.755121 168.904756 
L 300.755121 168.904756 
L 300.931851 166.468069 
L 300.931851 166.468069 
L 301.108582 160.965392 
L 301.108582 160.965392 
L 301.285313 162.227517 
L 301.285313 162.227517 
L 301.462044 157.115299 
L 301.462044 157.115299 
L 301.638775 157.308016 
L 301.638775 157.308016 
L 301.992236 151.415438 
L 301.992236 151.415438 
L 302.168967 148.333476 
L 302.168967 148.333476 
L 302.345698 139.387025 
L 302.345698 139.387025 
L 302.522429 140.816961 
L 302.522429 140.816961 
L 302.69916 136.228502 
L 302.69916 136.228502 
L 302.875891 137.52391 
L 302.875891 137.52391 
L 303.052621 142.100586 
L 303.052621 142.100586 
L 303.229352 156.055273 
L 303.229352 156.055273 
L 303.406083 154.002624 
L 303.406083 154.002624 
L 303.582814 165.457855 
L 303.582814 165.457855 
L 303.759545 167.659384 
L 303.759545 167.659384 
L 303.936276 174.032833 
L 303.936276 174.032833 
L 304.113006 186.369782 
L 304.113006 186.369782 
L 304.289737 184.190424 
L 304.289737 184.190424 
L 304.466468 192.120015 
L 304.466468 192.120015 
L 304.643199 192.85799 
L 304.643199 192.85799 
L 304.996661 201.398457 
L 304.996661 201.398457 
L 305.173391 204.914045 
L 305.173391 204.914045 
L 305.350122 213.888585 
L 305.350122 213.888585 
L 305.526853 211.551971 
L 305.526853 211.551971 
L 305.703584 218.38775 
L 305.703584 218.38775 
L 305.880315 217.555678 
L 305.880315 217.555678 
L 306.057046 222.974255 
L 306.057046 222.974255 
L 306.233776 222.944099 
L 306.233776 222.944099 
L 306.410507 227.44829 
L 306.410507 227.44829 
L 306.587238 227.787708 
L 306.587238 227.787708 
L 306.763969 231.839118 
L 306.763969 231.839118 
L 306.9407 232.148436 
L 306.9407 232.148436 
L 307.117431 236.190911 
L 307.117431 236.190911 
L 307.294161 236.078888 
L 307.294161 236.078888 
L 307.470892 239.275609 
L 307.470892 239.275609 
L 307.647623 239.736487 
L 307.647623 239.736487 
L 307.824354 243.01742 
L 307.824354 243.01742 
L 308.001085 243.232028 
L 308.177816 246.100443 
L 308.177816 246.100443 
L 308.354546 246.461529 
L 308.354546 246.461529 
L 308.531277 248.877498 
L 308.531277 248.877498 
L 308.708008 248.750062 
L 308.708008 248.750062 
L 308.884739 251.316418 
L 308.884739 251.316418 
L 309.06147 251.216793 
L 309.06147 251.216793 
L 309.238201 253.249003 
L 309.238201 253.249003 
L 309.414931 252.760426 
L 309.414931 252.760426 
L 309.945124 255.44344 
L 309.945124 255.44344 
L 310.121855 257.003212 
L 310.121855 257.003212 
L 310.298586 257.299799 
L 310.298586 257.299799 
L 310.475316 257.92927 
L 310.475316 257.92927 
L 310.652047 257.95183 
L 310.652047 257.95183 
L 310.828778 259.561192 
L 310.828778 259.561192 
L 311.18224 259.632225 
L 311.18224 259.632225 
L 311.358971 260.350264 
L 311.358971 260.350264 
L 311.535701 260.303635 
L 311.535701 260.303635 
L 311.712432 261.000453 
L 311.712432 261.000453 
L 311.889163 260.826277 
L 311.889163 260.826277 
L 312.242625 261.13688 
L 312.242625 261.13688 
L 312.419356 260.880222 
L 312.419356 260.880222 
L 312.596087 261.659354 
L 312.596087 261.659354 
L 312.772817 261.21668 
L 312.772817 261.21668 
L 312.949548 261.684986 
L 312.949548 261.684986 
L 313.126279 261.578045 
L 313.126279 261.578045 
L 313.479741 261.738764 
L 313.479741 261.738764 
L 313.656472 261.192332 
L 313.656472 261.192332 
L 313.833202 261.492381 
L 313.833202 261.492381 
L 314.009933 261.304858 
L 314.009933 261.304858 
L 314.186664 261.68292 
L 314.186664 261.68292 
L 314.540126 261.487355 
L 314.540126 261.487355 
L 314.716857 260.818458 
L 314.716857 260.818458 
L 315.070318 260.819743 
L 315.070318 260.819743 
L 315.247049 260.043012 
L 315.247049 260.043012 
L 315.42378 260.51679 
L 315.42378 260.51679 
L 315.600511 258.382386 
L 315.600511 258.382386 
L 315.777242 259.673885 
L 315.777242 259.673885 
L 316.130703 257.973554 
L 316.130703 257.973554 
L 316.307434 257.742416 
L 316.307434 257.742416 
L 316.484165 255.301374 
L 316.484165 255.301374 
L 316.660896 255.625882 
L 316.660896 255.625882 
L 316.837627 253.175625 
L 316.837627 253.175625 
L 317.014357 254.326286 
L 317.014357 254.326286 
L 317.54455 251.013577 
L 317.54455 251.013577 
L 317.721281 248.090603 
L 317.721281 248.090603 
L 317.898012 248.06028 
L 317.898012 248.06028 
L 318.074742 244.878079 
L 318.074742 244.878079 
L 318.251473 245.606337 
L 318.251473 245.606337 
L 318.428204 240.236121 
L 318.428204 240.236121 
L 318.604935 242.029321 
L 318.604935 242.029321 
L 319.135127 237.263278 
L 319.135127 237.263278 
L 319.311858 233.950626 
L 319.311858 233.950626 
L 319.488589 233.222479 
L 319.488589 233.222479 
L 319.66532 229.162302 
L 319.66532 229.162302 
L 319.842051 229.372331 
L 319.842051 229.372331 
L 320.018782 224.869313 
L 320.018782 224.869313 
L 320.195512 225.717468 
L 320.195512 225.717468 
L 320.372243 219.725041 
L 320.372243 219.725041 
L 320.548974 221.496517 
L 320.548974 221.496517 
L 320.725705 214.906841 
L 320.902436 217.108816 
L 320.902436 217.108816 
L 321.079167 210.023136 
L 321.079167 210.023136 
L 321.255897 212.568383 
L 321.255897 212.568383 
L 322.316282 198.207265 
L 322.316282 198.207265 
L 322.493013 190.495352 
L 322.493013 190.495352 
L 322.669744 192.777464 
L 322.669744 192.777464 
L 322.846475 185.630914 
L 322.846475 185.630914 
L 323.023206 187.611692 
L 323.023206 187.611692 
L 323.199937 180.782669 
L 323.199937 180.782669 
L 323.376667 182.300056 
L 323.376667 182.300056 
L 323.553398 175.633483 
L 323.553398 175.633483 
L 323.730129 176.79414 
L 323.730129 176.79414 
L 323.90686 170.929819 
L 323.90686 170.929819 
L 324.083591 171.036257 
L 324.083591 171.036257 
L 324.260322 165.54916 
L 324.260322 165.54916 
L 324.437053 164.869206 
L 324.437053 164.869206 
L 324.790514 157.943462 
L 324.790514 157.943462 
L 324.967245 154.789518 
L 324.967245 154.789518 
L 325.143976 145.729034 
L 325.143976 145.729034 
L 325.320707 146.966086 
L 325.320707 146.966086 
L 325.497438 139.98796 
L 325.497438 139.98796 
L 325.674168 139.261544 
L 325.674168 139.261544 
L 325.850899 134.619587 
L 325.850899 134.619587 
L 326.02763 124.038589 
L 326.02763 124.038589 
L 326.204361 126.301993 
L 326.204361 126.301993 
L 326.381092 117.979652 
L 326.381092 117.979652 
L 326.557823 117.34644 
L 326.557823 117.34644 
L 326.734553 113.397727 
L 326.734553 113.397727 
L 326.911284 116.938222 
L 326.911284 116.938222 
L 327.088015 116.530451 
L 327.088015 116.530451 
L 327.441477 133.065343 
L 327.441477 133.065343 
L 327.618208 131.614578 
L 327.618208 131.614578 
L 327.794938 138.811164 
L 327.794938 138.811164 
L 327.971669 141.09819 
L 327.971669 141.09819 
L 328.855323 165.502642 
L 328.855323 165.502642 
L 329.032054 165.167244 
L 329.032054 165.167244 
L 329.385516 172.018102 
L 329.385516 172.018102 
L 329.562247 175.033442 
L 329.562247 175.033442 
L 329.738978 181.293305 
L 329.738978 181.293305 
L 329.915708 181.134709 
L 329.915708 181.134709 
L 330.092439 184.977151 
L 330.092439 184.977151 
L 330.26917 186.31768 
L 330.26917 186.31768 
L 330.445901 188.544618 
L 330.445901 188.544618 
L 330.622632 193.953422 
L 330.622632 193.953422 
L 330.799363 192.939969 
L 330.799363 192.939969 
L 330.976093 196.902754 
L 330.976093 196.902754 
L 331.152824 196.872543 
L 331.152824 196.872543 
L 331.329555 199.581971 
L 331.329555 199.581971 
L 331.506286 200.306544 
L 331.506286 200.306544 
L 331.859748 202.798069 
L 331.859748 202.798069 
L 332.036478 204.253916 
L 332.036478 204.253916 
L 332.213209 206.81681 
L 332.213209 206.81681 
L 332.38994 206.384412 
L 332.566671 208.0829 
L 332.566671 208.0829 
L 332.743402 208.011141 
L 332.743402 208.011141 
L 332.920133 209.010912 
L 332.920133 209.010912 
L 333.096863 209.165655 
L 333.096863 209.165655 
L 333.450325 209.895086 
L 333.450325 209.895086 
L 333.627056 210.010962 
L 333.627056 210.010962 
L 333.803787 210.275326 
L 333.803787 210.275326 
L 333.980518 210.178996 
L 333.980518 210.178996 
L 334.157248 210.415997 
L 334.333979 210.232215 
L 334.333979 210.232215 
L 334.51071 210.447102 
L 334.51071 210.447102 
L 334.687441 210.447548 
L 334.687441 210.447548 
L 335.040903 210.265665 
L 335.040903 210.265665 
L 335.217633 209.90525 
L 335.217633 209.90525 
L 335.394364 210.168776 
L 335.394364 210.168776 
L 335.571095 209.571304 
L 335.571095 209.571304 
L 335.747826 209.867276 
L 335.747826 209.867276 
L 335.924557 209.00382 
L 336.101288 209.272037 
L 336.101288 209.272037 
L 336.278019 208.111045 
L 336.278019 208.111045 
L 336.454749 208.27813 
L 336.454749 208.27813 
L 336.63148 206.811282 
L 336.63148 206.811282 
L 336.808211 206.799052 
L 336.808211 206.799052 
L 336.984942 205.102071 
L 336.984942 205.102071 
L 337.161673 204.742828 
L 337.161673 204.742828 
L 337.691865 199.855717 
L 337.691865 199.855717 
L 337.868596 194.236717 
L 337.868596 194.236717 
L 338.045327 195.916665 
L 338.045327 195.916665 
L 338.222058 189.553826 
L 338.222058 189.553826 
L 338.398789 190.880172 
L 338.398789 190.880172 
L 338.575519 183.824703 
L 338.575519 183.824703 
L 338.75225 184.667888 
L 338.928981 177.51983 
L 338.928981 177.51983 
L 339.105712 177.105022 
L 339.105712 177.105022 
L 339.282443 169.904974 
L 339.282443 169.904974 
L 339.459174 167.363245 
L 339.459174 167.363245 
L 339.812635 155.370461 
L 339.812635 155.370461 
L 339.989366 154.483494 
L 339.989366 154.483494 
L 340.166097 164.278323 
L 340.166097 164.278323 
L 340.342828 163.283858 
L 340.519559 170.733695 
L 340.519559 170.733695 
L 340.696289 171.372436 
L 340.696289 171.372436 
L 341.049751 178.441475 
L 341.049751 178.441475 
L 341.403213 184.63198 
L 341.403213 184.63198 
L 341.579944 184.630584 
L 341.579944 184.630584 
L 341.756674 186.766887 
L 341.756674 186.766887 
L 341.933405 186.817873 
L 341.933405 186.817873 
L 342.286867 188.127409 
L 342.286867 188.127409 
L 342.463598 188.296001 
L 342.463598 188.296001 
L 342.640329 187.79525 
L 342.640329 187.79525 
L 342.817059 188.399257 
L 342.817059 188.399257 
L 342.99379 188.239767 
L 342.99379 188.239767 
L 343.170521 188.451191 
L 343.170521 188.451191 
L 343.347252 188.279695 
L 343.347252 188.279695 
L 343.523983 187.103179 
L 343.523983 187.103179 
L 343.700714 188.065087 
L 343.700714 188.065087 
L 343.877444 186.722603 
L 343.877444 186.722603 
L 344.054175 187.023378 
L 344.054175 187.023378 
L 344.230906 185.379226 
L 344.230906 185.379226 
L 344.407637 185.024339 
L 344.407637 185.024339 
L 344.584368 183.060592 
L 344.584368 183.060592 
L 344.761099 177.175218 
L 344.761099 177.175218 
L 344.937829 178.956578 
L 344.937829 178.956578 
L 345.11456 172.499363 
L 345.291291 172.846321 
L 345.291291 172.846321 
L 345.468022 167.365423 
L 345.468022 167.365423 
L 345.644753 165.412622 
L 345.644753 165.412622 
L 345.821484 160.444593 
L 345.821484 160.444593 
L 345.998214 149.011754 
L 345.998214 149.011754 
L 346.174945 151.030507 
L 346.174945 151.030507 
L 346.351676 147.906439 
L 346.351676 147.906439 
L 346.528407 147.488504 
L 346.528407 147.488504 
L 346.705138 156.631301 
L 346.705138 156.631301 
L 346.881869 158.717066 
L 346.881869 158.717066 
L 347.23533 171.884915 
L 347.23533 171.884915 
L 347.412061 171.324634 
L 347.412061 171.324634 
L 347.588792 175.749527 
L 347.588792 175.749527 
L 347.765523 176.874555 
L 347.765523 176.874555 
L 348.118985 182.362099 
L 348.118985 182.362099 
L 348.295715 182.60809 
L 348.295715 182.60809 
L 348.649177 185.002392 
L 348.649177 185.002392 
L 349.17937 186.321589 
L 349.17937 186.321589 
L 349.3561 186.372798 
L 349.3561 186.372798 
L 349.532831 186.626943 
L 349.532831 186.626943 
L 349.886293 186.307126 
L 349.886293 186.307126 
L 350.063024 186.540273 
L 350.063024 186.540273 
L 350.239755 185.927891 
L 350.239755 185.927891 
L 350.416485 186.590645 
L 350.416485 186.590645 
L 350.769947 186.148585 
L 350.769947 186.148585 
L 350.946678 186.254633 
L 350.946678 186.254633 
L 351.123409 185.962346 
L 351.123409 185.962346 
L 351.30014 186.022323 
L 351.30014 186.022323 
L 351.47687 185.150657 
L 351.653601 185.531735 
L 351.653601 185.531735 
L 351.830332 184.630082 
L 351.830332 184.630082 
L 352.007063 184.863006 
L 352.007063 184.863006 
L 352.360525 183.631092 
L 352.360525 183.631092 
L 352.537255 183.33311 
L 352.537255 183.33311 
L 352.713986 181.833537 
L 352.713986 181.833537 
L 352.890717 182.441899 
L 352.890717 182.441899 
L 353.067448 180.620332 
L 353.067448 180.620332 
L 353.244179 181.405216 
L 353.244179 181.405216 
L 353.42091 180.187431 
L 353.42091 180.187431 
L 353.59764 180.282979 
L 353.59764 180.282979 
L 353.951102 178.307562 
L 353.951102 178.307562 
L 354.127833 178.202408 
L 354.127833 178.202408 
L 354.304564 176.273676 
L 354.481295 176.812736 
L 354.481295 176.812736 
L 354.658025 175.119832 
L 354.658025 175.119832 
L 354.834756 175.235764 
L 355.188218 173.028036 
L 355.188218 173.028036 
L 355.364949 172.389295 
L 355.364949 172.389295 
L 355.54168 169.26802 
L 355.54168 169.26802 
L 355.71841 170.380651 
L 355.71841 170.380651 
L 355.895141 168.03767 
L 355.895141 168.03767 
L 356.071872 168.029014 
L 356.071872 168.029014 
L 356.425334 165.569766 
L 356.425334 165.569766 
L 356.602065 164.278938 
L 356.602065 164.278938 
L 356.778795 160.833154 
L 356.778795 160.833154 
L 356.955526 161.467372 
L 356.955526 161.467372 
L 357.132257 159.092504 
L 357.132257 159.092504 
L 357.308988 158.551936 
L 357.308988 158.551936 
L 357.485719 157.027234 
L 357.485719 157.027234 
L 357.66245 152.925788 
L 357.66245 152.925788 
L 357.83918 153.983302 
L 357.83918 153.983302 
L 358.015911 151.004707 
L 358.015911 151.004707 
L 358.192642 150.791551 
L 358.192642 150.791551 
L 358.369373 149.0571 
L 358.369373 149.0571 
L 358.546104 144.937226 
L 358.546104 144.937226 
L 358.722835 146.078002 
L 358.722835 146.078002 
L 358.899565 143.434302 
L 358.899565 143.434302 
L 359.076296 142.855091 
L 359.076296 142.855091 
L 359.253027 141.255502 
L 359.253027 141.255502 
L 359.429758 138.474036 
L 359.429758 138.474036 
L 359.606489 138.946362 
L 359.606489 138.946362 
L 359.78322 136.937606 
L 359.78322 136.937606 
L 359.959951 133.632269 
L 359.959951 133.632269 
L 360.136681 135.009153 
L 360.136681 135.009153 
L 360.313412 132.385781 
L 360.313412 132.385781 
L 360.490143 132.399351 
L 360.490143 132.399351 
L 360.666874 131.195806 
L 360.666874 131.195806 
L 360.843605 129.128023 
L 360.843605 129.128023 
L 361.020336 129.443149 
L 361.020336 129.443149 
L 361.197066 128.743483 
L 361.197066 128.743483 
L 361.373797 126.593609 
L 361.373797 126.593609 
L 361.550528 127.069287 
L 361.550528 127.069287 
L 361.90399 124.555033 
L 361.90399 124.555033 
L 362.080721 125.108053 
L 362.080721 125.108053 
L 362.257451 124.044565 
L 362.257451 124.044565 
L 362.434182 124.027197 
L 362.434182 124.027197 
L 363.141106 121.07457 
L 363.141106 121.07457 
L 363.317836 119.512955 
L 363.317836 119.512955 
L 363.494567 119.433992 
L 363.494567 119.433992 
L 364.201491 114.287654 
L 364.201491 114.287654 
L 364.378221 111.599837 
L 364.378221 111.599837 
L 364.554952 111.184415 
L 364.554952 111.184415 
L 364.908414 105.633322 
L 364.908414 105.633322 
L 365.085145 100.924799 
L 365.085145 100.924799 
L 365.261876 102.318045 
L 365.261876 102.318045 
L 365.438606 98.479456 
L 365.438606 98.479456 
L 365.615337 91.94769 
L 365.615337 91.94769 
L 365.792068 93.568723 
L 365.792068 93.568723 
L 365.968799 89.343471 
L 365.968799 89.343471 
L 366.14553 82.369311 
L 366.14553 82.369311 
L 366.322261 83.361934 
L 366.322261 83.361934 
L 366.498991 79.124956 
L 366.498991 79.124956 
L 366.675722 71.461404 
L 366.675722 71.461404 
L 366.852453 69.683338 
L 366.852453 69.683338 
L 367.205915 59.690376 
L 367.205915 59.690376 
L 367.382646 53.568 
L 367.382646 53.568 
L 396.013041 53.5809 
L 396.013041 53.5809 
L 396.189772 53.697837 
L 396.189772 53.697837 
L 396.543234 53.568 
L 396.543234 53.568 
L 397.073426 53.602511 
L 397.073426 53.602511 
L 397.250157 53.994981 
L 397.250157 53.994981 
L 397.426888 54.074168 
L 397.426888 54.074168 
L 397.603619 53.568 
L 397.603619 53.568 
L 398.487273 53.568 
L 398.487273 53.568 
" clip-path="url(#p9cfcad3b20)" style="fill: none; stroke: #ff7f0e; stroke-width: 1.5; stroke-linecap: square"/>
   </g>
   <g id="patch_3">
    <path d="M 57.6 307.584 
L 57.6 41.472 
" style="fill: none; stroke: #000000; stroke-width: 0.8; stroke-linejoin: miter; stroke-linecap: square"/>
   </g>
   <g id="patch_4">
    <path d="M 414.72 307.584 
L 414.72 41.472 
" style="fill: none; stroke: #000000; stroke-width: 0.8; stroke-linejoin: miter; stroke-linecap: square"/>
   </g>
   <g id="patch_5">
    <path d="M 57.6 307.584 
L 414.72 307.584 
" style="fill: none; stroke: #000000; stroke-width: 0.8; stroke-linejoin: miter; stroke-linecap: square"/>
   </g>
   <g id="patch_6">
    <path d="M 57.6 41.472 
L 414.72 41.472 
" style="fill: none; stroke: #000000; stroke-width: 0.8; stroke-linejoin: miter; stroke-linecap: square"/>
   </g>
   <g id="text_16">
    <!-- Actual speed vs Expected speed -->
    <g transform="translate(138.808125 35.472) scale(0.12 -0.12)">
     <defs>
      <path id="DejaVuSans-41" d="M 2188 4044 
L 1331 1722 
L 3047 1722 
L 2188 4044 
z
M 1831 4666 
L 2547 4666 
L 4325 0 
L 3669 0 
L 3244 1197 
L 1141 1197 
L 716 0 
L 50 0 
L 1831 4666 
z
" transform="scale(0.015625)"/>
      <path id="DejaVuSans-75" d="M 544 1381 
L 544 3500 
L 1119 3500 
L 1119 1403 
Q 1119 906 1312 657 
Q 1506 409 1894 409 
Q 2359 409 2629 706 
Q 2900 1003 2900 1516 
L 2900 3500 
L 3475 3500 
L 3475 0 
L 2900 0 
L 2900 538 
Q 2691 219 2414 64 
Q 2138 -91 1772 -91 
Q 1169 -91 856 284 
Q 544 659 544 1381 
z
M 1991 3584 
L 1991 3584 
z
" transform="scale(0.015625)"/>
      <path id="DejaVuSans-61" d="M 2194 1759 
Q 1497 1759 1228 1600 
Q 959 1441 959 1056 
Q 959 750 1161 570 
Q 1363 391 1709 391 
Q 2188 391 2477 730 
Q 2766 1069 2766 1631 
L 2766 1759 
L 2194 1759 
z
M 3341 1997 
L 3341 0 
L 2766 0 
L 2766 531 
Q 2569 213 2275 61 
Q 1981 -91 1556 -91 
Q 1019 -91 701 211 
Q 384 513 384 1019 
Q 384 1609 779 1909 
Q 1175 2209 1959 2209 
L 2766 2209 
L 2766 2266 
Q 2766 2663 2505 2880 
Q 2244 3097 1772 3097 
Q 1472 3097 1187 3025 
Q 903 2953 641 2809 
L 641 3341 
Q 956 3463 1253 3523 
Q 1550 3584 1831 3584 
Q 2591 3584 2966 3190 
Q 3341 2797 3341 1997 
z
" transform="scale(0.015625)"/>
      <path id="DejaVuSans-20" transform="scale(0.015625)"/>
      <path id="DejaVuSans-70" d="M 1159 525 
L 1159 -1331 
L 581 -1331 
L 581 3500 
L 1159 3500 
L 1159 2969 
Q 1341 3281 1617 3432 
Q 1894 3584 2278 3584 
Q 2916 3584 3314 3078 
Q 3713 2572 3713 1747 
Q 3713 922 3314 415 
Q 2916 -91 2278 -91 
Q 1894 -91 1617 61 
Q 1341 213 1159 525 
z
M 3116 1747 
Q 3116 2381 2855 2742 
Q 2594 3103 2138 3103 
Q 1681 3103 1420 2742 
Q 1159 2381 1159 1747 
Q 1159 1113 1420 752 
Q 1681 391 2138 391 
Q 2594 391 2855 752 
Q 3116 1113 3116 1747 
z
" transform="scale(0.015625)"/>
      <path id="DejaVuSans-64" d="M 2906 2969 
L 2906 4863 
L 3481 4863 
L 3481 0 
L 2906 0 
L 2906 525 
Q 2725 213 2448 61 
Q 2172 -91 1784 -91 
Q 1150 -91 751 415 
Q 353 922 353 1747 
Q 353 2572 751 3078 
Q 1150 3584 1784 3584 
Q 2172 3584 2448 3432 
Q 2725 3281 2906 2969 
z
M 947 1747 
Q 947 1113 1208 752 
Q 1469 391 1925 391 
Q 2381 391 2643 752 
Q 2906 1113 2906 1747 
Q 2906 2381 2643 2742 
Q 2381 3103 1925 3103 
Q 1469 3103 1208 2742 
Q 947 2381 947 1747 
z
" transform="scale(0.015625)"/>
      <path id="DejaVuSans-76" d="M 191 3500 
L 800 3500 
L 1894 563 
L 2988 3500 
L 3597 3500 
L 2284 0 
L 1503 0 
L 191 3500 
z
" transform="scale(0.015625)"/>
      <path id="DejaVuSans-45" d="M 628 4666 
L 3578 4666 
L 3578 4134 
L 1259 4134 
L 1259 2753 
L 3481 2753 
L 3481 2222 
L 1259 2222 
L 1259 531 
L 3634 531 
L 3634 0 
L 628 0 
L 628 4666 
z
" transform="scale(0.015625)"/>
      <path id="DejaVuSans-78" d="M 3513 3500 
L 2247 1797 
L 3578 0 
L 2900 0 
L 1881 1375 
L 863 0 
L 184 0 
L 1544 1831 
L 300 3500 
L 978 3500 
L 1906 2253 
L 2834 3500 
L 3513 3500 
z
" transform="scale(0.015625)"/>
     </defs>
     <use xlink:href="#DejaVuSans-41"/>
     <use xlink:href="#DejaVuSans-63" x="66.658203"/>
     <use xlink:href="#DejaVuSans-74" x="121.638672"/>
     <use xlink:href="#DejaVuSans-75" x="160.847656"/>
     <use xlink:href="#DejaVuSans-61" x="224.226562"/>
     <use xlink:href="#DejaVuSans-6c" x="285.505859"/>
     <use xlink:href="#DejaVuSans-20" x="313.289062"/>
     <use xlink:href="#DejaVuSans-73" x="345.076172"/>
     <use xlink:href="#DejaVuSans-70" x="397.175781"/>
     <use xlink:href="#DejaVuSans-65" x="460.652344"/>
     <use xlink:href="#DejaVuSans-65" x="522.175781"/>
     <use xlink:href="#DejaVuSans-64" x="583.699219"/>
     <use xlink:href="#DejaVuSans-20" x="647.175781"/>
     <use xlink:href="#DejaVuSans-76" x="678.962891"/>
     <use xlink:href="#DejaVuSans-73" x="738.142578"/>
     <use xlink:href="#DejaVuSans-20" x="790.242188"/>
     <use xlink:href="#DejaVuSans-45" x="822.029297"/>
     <use xlink:href="#DejaVuSans-78" x="885.212891"/>
     <use xlink:href="#DejaVuSans-70" x="944.392578"/>
     <use xlink:href="#DejaVuSans-65" x="1007.869141"/>
     <use xlink:href="#DejaVuSans-63" x="1069.392578"/>
     <use xlink:href="#DejaVuSans-74" x="1124.373047"/>
     <use xlink:href="#DejaVuSans-65" x="1163.582031"/>
     <use xlink:href="#DejaVuSans-64" x="1225.105469"/>
     <use xlink:href="#DejaVuSans-20" x="1288.582031"/>
     <use xlink:href="#DejaVuSans-73" x="1320.369141"/>
     <use xlink:href="#DejaVuSans-70" x="1372.46875"/>
     <use xlink:href="#DejaVuSans-65" x="1435.945312"/>
     <use xlink:href="#DejaVuSans-65" x="1497.46875"/>
     <use xlink:href="#DejaVuSans-64" x="1558.992188"/>
    </g>
   </g>
   <g id="legend_1">
    <g id="patch_7">
     <path d="M 64.6 302.584 
L 176.65 302.584 
Q 178.65 302.584 178.65 300.584 
L 178.65 272.22775 
Q 178.65 270.22775 176.65 270.22775 
L 64.6 270.22775 
Q 62.6 270.22775 62.6 272.22775 
L 62.6 300.584 
Q 62.6 302.584 64.6 302.584 
z
" style="fill: #ffffff; opacity: 0.8; stroke: #cccccc; stroke-linejoin: miter"/>
    </g>
    <g id="line2d_29">
     <path d="M 66.6 278.326187 
L 76.6 278.326187 
L 86.6 278.326187 
" style="fill: none; stroke: #1f77b4; stroke-width: 1.5; stroke-linecap: square"/>
    </g>
    <g id="text_17">
     <!-- Actual speed -->
     <g transform="translate(94.6 281.826187) scale(0.1 -0.1)">
      <use xlink:href="#DejaVuSans-41"/>
      <use xlink:href="#DejaVuSans-63" x="66.658203"/>
      <use xlink:href="#DejaVuSans-74" x="121.638672"/>
      <use xlink:href="#DejaVuSans-75" x="160.847656"/>
      <use xlink:href="#DejaVuSans-61" x="224.226562"/>
      <use xlink:href="#DejaVuSans-6c" x="285.505859"/>
      <use xlink:href="#DejaVuSans-20" x="313.289062"/>
      <use xlink:href="#DejaVuSans-73" x="345.076172"/>
      <use xlink:href="#DejaVuSans-70" x="397.175781"/>
      <use xlink:href="#DejaVuSans-65" x="460.652344"/>
      <use xlink:href="#DejaVuSans-65" x="522.175781"/>
      <use xlink:href="#DejaVuSans-64" x="583.699219"/>
     </g>
    </g>
    <g id="line2d_30">
     <path d="M 66.6 293.004312 
L 76.6 293.004312 
L 86.6 293.004312 
" style="fill: none; stroke: #ff7f0e; stroke-width: 1.5; stroke-linecap: square"/>
    </g>
    <g id="text_18">
     <!-- Expected speed -->
     <g transform="translate(94.6 296.504312) scale(0.1 -0.1)">
      <use xlink:href="#DejaVuSans-45"/>
      <use xlink:href="#DejaVuSans-78" x="63.183594"/>
      <use xlink:href="#DejaVuSans-70" x="122.363281"/>
      <use xlink:href="#DejaVuSans-65" x="185.839844"/>
      <use xlink:href="#DejaVuSans-63" x="247.363281"/>
      <use xlink:href="#DejaVuSans-74" x="302.34375"/>
      <use xlink:href="#DejaVuSans-65" x="341.552734"/>
      <use xlink:href="#DejaVuSans-64" x="403.076172"/>
      <use xlink:href="#DejaVuSans-20" x="466.552734"/>
      <use xlink:href="#DejaVuSans-73" x="498.339844"/>
      <use xlink:href="#DejaVuSans-70" x="550.439453"/>
      <use xlink:href="#DejaVuSans-65" x="613.916016"/>
      <use xlink:href="#DejaVuSans-65" x="675.439453"/>
      <use xlink:href="#DejaVuSans-64" x="736.962891"/>
     </g>
    </g>
   </g>
  </g>
 </g>
 <defs>
  <clipPath id="p9cfcad3b20">
   <rect x="57.6" y="41.472" width="357.12" height="266.112"/>
  </clipPath>
 </defs>
</svg>
