<?xml version="1.0" encoding="utf-8" standalone="no"?>
<!DOCTYPE svg PUBLIC "-//W3C//DTD SVG 1.1//EN"
  "http://www.w3.org/Graphics/SVG/1.1/DTD/svg11.dtd">
<svg xmlns:xlink="http://www.w3.org/1999/xlink" width="460.8pt" height="345.6pt" viewBox="0 0 460.8 345.6" xmlns="http://www.w3.org/2000/svg" version="1.1">
 <metadata>
  <rdf:RDF xmlns:dc="http://purl.org/dc/elements/1.1/" xmlns:cc="http://creativecommons.org/ns#" xmlns:rdf="http://www.w3.org/1999/02/22-rdf-syntax-ns#">
   <cc:Work>
    <dc:type rdf:resource="http://purl.org/dc/dcmitype/StillImage"/>
    <dc:date>2024-01-30T20:58:40.655061</dc:date>
    <dc:format>image/svg+xml</dc:format>
    <dc:creator>
     <cc:Agent>
      <dc:title>Matplotlib v3.7.1, https://matplotlib.org/</dc:title>
     </cc:Agent>
    </dc:creator>
   </cc:Work>
  </rdf:RDF>
 </metadata>
 <defs>
  <style type="text/css">*{stroke-linejoin: round; stroke-linecap: butt}</style>
 </defs>
 <g id="figure_1">
  <g id="patch_1">
   <path d="M 0 345.6 
L 460.8 345.6 
L 460.8 0 
L 0 0 
z
" style="fill: #ffffff"/>
  </g>
  <g id="axes_1">
   <g id="patch_2">
    <path d="M 57.6 307.584 
L 414.72 307.584 
L 414.72 41.472 
L 57.6 41.472 
z
" style="fill: #ffffff"/>
   </g>
   <g id="matplotlib.axis_1">
    <g id="xtick_1">
     <g id="line2d_1">
      <path d="M 73.832727 307.584 
L 73.832727 41.472 
" clip-path="url(#p7c7a2b18c6)" style="fill: none; stroke: #b0b0b0; stroke-width: 0.8; stroke-linecap: square"/>
     </g>
     <g id="line2d_2">
      <defs>
       <path id="m477438578c" d="M 0 0 
L 0 3.5 
" style="stroke: #000000; stroke-width: 0.8"/>
      </defs>
      <g>
       <use xlink:href="#m477438578c" x="73.832727" y="307.584" style="stroke: #000000; stroke-width: 0.8"/>
      </g>
     </g>
     <g id="text_1">
      <!-- 0 -->
      <g transform="translate(70.651477 322.182437) scale(0.1 -0.1)">
       <defs>
        <path id="DejaVuSans-30" d="M 2034 4250 
Q 1547 4250 1301 3770 
Q 1056 3291 1056 2328 
Q 1056 1369 1301 889 
Q 1547 409 2034 409 
Q 2525 409 2770 889 
Q 3016 1369 3016 2328 
Q 3016 3291 2770 3770 
Q 2525 4250 2034 4250 
z
M 2034 4750 
Q 2819 4750 3233 4129 
Q 3647 3509 3647 2328 
Q 3647 1150 3233 529 
Q 2819 -91 2034 -91 
Q 1250 -91 836 529 
Q 422 1150 422 2328 
Q 422 3509 836 4129 
Q 1250 4750 2034 4750 
z
" transform="scale(0.015625)"/>
       </defs>
       <use xlink:href="#DejaVuSans-30"/>
      </g>
     </g>
    </g>
    <g id="xtick_2">
     <g id="line2d_3">
      <path d="M 117.991398 307.584 
L 117.991398 41.472 
" clip-path="url(#p7c7a2b18c6)" style="fill: none; stroke: #b0b0b0; stroke-width: 0.8; stroke-linecap: square"/>
     </g>
     <g id="line2d_4">
      <g>
       <use xlink:href="#m477438578c" x="117.991398" y="307.584" style="stroke: #000000; stroke-width: 0.8"/>
      </g>
     </g>
     <g id="text_2">
      <!-- 5 -->
      <g transform="translate(114.810148 322.182437) scale(0.1 -0.1)">
       <defs>
        <path id="DejaVuSans-35" d="M 691 4666 
L 3169 4666 
L 3169 4134 
L 1269 4134 
L 1269 2991 
Q 1406 3038 1543 3061 
Q 1681 3084 1819 3084 
Q 2600 3084 3056 2656 
Q 3513 2228 3513 1497 
Q 3513 744 3044 326 
Q 2575 -91 1722 -91 
Q 1428 -91 1123 -41 
Q 819 9 494 109 
L 494 744 
Q 775 591 1075 516 
Q 1375 441 1709 441 
Q 2250 441 2565 725 
Q 2881 1009 2881 1497 
Q 2881 1984 2565 2268 
Q 2250 2553 1709 2553 
Q 1456 2553 1204 2497 
Q 953 2441 691 2322 
L 691 4666 
z
" transform="scale(0.015625)"/>
       </defs>
       <use xlink:href="#DejaVuSans-35"/>
      </g>
     </g>
    </g>
    <g id="xtick_3">
     <g id="line2d_5">
      <path d="M 162.150068 307.584 
L 162.150068 41.472 
" clip-path="url(#p7c7a2b18c6)" style="fill: none; stroke: #b0b0b0; stroke-width: 0.8; stroke-linecap: square"/>
     </g>
     <g id="line2d_6">
      <g>
       <use xlink:href="#m477438578c" x="162.150068" y="307.584" style="stroke: #000000; stroke-width: 0.8"/>
      </g>
     </g>
     <g id="text_3">
      <!-- 10 -->
      <g transform="translate(155.787568 322.182437) scale(0.1 -0.1)">
       <defs>
        <path id="DejaVuSans-31" d="M 794 531 
L 1825 531 
L 1825 4091 
L 703 3866 
L 703 4441 
L 1819 4666 
L 2450 4666 
L 2450 531 
L 3481 531 
L 3481 0 
L 794 0 
L 794 531 
z
" transform="scale(0.015625)"/>
       </defs>
       <use xlink:href="#DejaVuSans-31"/>
       <use xlink:href="#DejaVuSans-30" x="63.623047"/>
      </g>
     </g>
    </g>
    <g id="xtick_4">
     <g id="line2d_7">
      <path d="M 206.308739 307.584 
L 206.308739 41.472 
" clip-path="url(#p7c7a2b18c6)" style="fill: none; stroke: #b0b0b0; stroke-width: 0.8; stroke-linecap: square"/>
     </g>
     <g id="line2d_8">
      <g>
       <use xlink:href="#m477438578c" x="206.308739" y="307.584" style="stroke: #000000; stroke-width: 0.8"/>
      </g>
     </g>
     <g id="text_4">
      <!-- 15 -->
      <g transform="translate(199.946239 322.182437) scale(0.1 -0.1)">
       <use xlink:href="#DejaVuSans-31"/>
       <use xlink:href="#DejaVuSans-35" x="63.623047"/>
      </g>
     </g>
    </g>
    <g id="xtick_5">
     <g id="line2d_9">
      <path d="M 250.467409 307.584 
L 250.467409 41.472 
" clip-path="url(#p7c7a2b18c6)" style="fill: none; stroke: #b0b0b0; stroke-width: 0.8; stroke-linecap: square"/>
     </g>
     <g id="line2d_10">
      <g>
       <use xlink:href="#m477438578c" x="250.467409" y="307.584" style="stroke: #000000; stroke-width: 0.8"/>
      </g>
     </g>
     <g id="text_5">
      <!-- 20 -->
      <g transform="translate(244.104909 322.182437) scale(0.1 -0.1)">
       <defs>
        <path id="DejaVuSans-32" d="M 1228 531 
L 3431 531 
L 3431 0 
L 469 0 
L 469 531 
Q 828 903 1448 1529 
Q 2069 2156 2228 2338 
Q 2531 2678 2651 2914 
Q 2772 3150 2772 3378 
Q 2772 3750 2511 3984 
Q 2250 4219 1831 4219 
Q 1534 4219 1204 4116 
Q 875 4013 500 3803 
L 500 4441 
Q 881 4594 1212 4672 
Q 1544 4750 1819 4750 
Q 2544 4750 2975 4387 
Q 3406 4025 3406 3419 
Q 3406 3131 3298 2873 
Q 3191 2616 2906 2266 
Q 2828 2175 2409 1742 
Q 1991 1309 1228 531 
z
" transform="scale(0.015625)"/>
       </defs>
       <use xlink:href="#DejaVuSans-32"/>
       <use xlink:href="#DejaVuSans-30" x="63.623047"/>
      </g>
     </g>
    </g>
    <g id="xtick_6">
     <g id="line2d_11">
      <path d="M 294.62608 307.584 
L 294.62608 41.472 
" clip-path="url(#p7c7a2b18c6)" style="fill: none; stroke: #b0b0b0; stroke-width: 0.8; stroke-linecap: square"/>
     </g>
     <g id="line2d_12">
      <g>
       <use xlink:href="#m477438578c" x="294.62608" y="307.584" style="stroke: #000000; stroke-width: 0.8"/>
      </g>
     </g>
     <g id="text_6">
      <!-- 25 -->
      <g transform="translate(288.26358 322.182437) scale(0.1 -0.1)">
       <use xlink:href="#DejaVuSans-32"/>
       <use xlink:href="#DejaVuSans-35" x="63.623047"/>
      </g>
     </g>
    </g>
    <g id="xtick_7">
     <g id="line2d_13">
      <path d="M 338.78475 307.584 
L 338.78475 41.472 
" clip-path="url(#p7c7a2b18c6)" style="fill: none; stroke: #b0b0b0; stroke-width: 0.8; stroke-linecap: square"/>
     </g>
     <g id="line2d_14">
      <g>
       <use xlink:href="#m477438578c" x="338.78475" y="307.584" style="stroke: #000000; stroke-width: 0.8"/>
      </g>
     </g>
     <g id="text_7">
      <!-- 30 -->
      <g transform="translate(332.42225 322.182437) scale(0.1 -0.1)">
       <defs>
        <path id="DejaVuSans-33" d="M 2597 2516 
Q 3050 2419 3304 2112 
Q 3559 1806 3559 1356 
Q 3559 666 3084 287 
Q 2609 -91 1734 -91 
Q 1441 -91 1130 -33 
Q 819 25 488 141 
L 488 750 
Q 750 597 1062 519 
Q 1375 441 1716 441 
Q 2309 441 2620 675 
Q 2931 909 2931 1356 
Q 2931 1769 2642 2001 
Q 2353 2234 1838 2234 
L 1294 2234 
L 1294 2753 
L 1863 2753 
Q 2328 2753 2575 2939 
Q 2822 3125 2822 3475 
Q 2822 3834 2567 4026 
Q 2313 4219 1838 4219 
Q 1578 4219 1281 4162 
Q 984 4106 628 3988 
L 628 4550 
Q 988 4650 1302 4700 
Q 1616 4750 1894 4750 
Q 2613 4750 3031 4423 
Q 3450 4097 3450 3541 
Q 3450 3153 3228 2886 
Q 3006 2619 2597 2516 
z
" transform="scale(0.015625)"/>
       </defs>
       <use xlink:href="#DejaVuSans-33"/>
       <use xlink:href="#DejaVuSans-30" x="63.623047"/>
      </g>
     </g>
    </g>
    <g id="xtick_8">
     <g id="line2d_15">
      <path d="M 382.943421 307.584 
L 382.943421 41.472 
" clip-path="url(#p7c7a2b18c6)" style="fill: none; stroke: #b0b0b0; stroke-width: 0.8; stroke-linecap: square"/>
     </g>
     <g id="line2d_16">
      <g>
       <use xlink:href="#m477438578c" x="382.943421" y="307.584" style="stroke: #000000; stroke-width: 0.8"/>
      </g>
     </g>
     <g id="text_8">
      <!-- 35 -->
      <g transform="translate(376.580921 322.182437) scale(0.1 -0.1)">
       <use xlink:href="#DejaVuSans-33"/>
       <use xlink:href="#DejaVuSans-35" x="63.623047"/>
      </g>
     </g>
    </g>
    <g id="text_9">
     <!-- Time(s) -->
     <g transform="translate(217.420156 335.860562) scale(0.1 -0.1)">
      <defs>
       <path id="DejaVuSans-54" d="M -19 4666 
L 3928 4666 
L 3928 4134 
L 2272 4134 
L 2272 0 
L 1638 0 
L 1638 4134 
L -19 4134 
L -19 4666 
z
" transform="scale(0.015625)"/>
       <path id="DejaVuSans-69" d="M 603 3500 
L 1178 3500 
L 1178 0 
L 603 0 
L 603 3500 
z
M 603 4863 
L 1178 4863 
L 1178 4134 
L 603 4134 
L 603 4863 
z
" transform="scale(0.015625)"/>
       <path id="DejaVuSans-6d" d="M 3328 2828 
Q 3544 3216 3844 3400 
Q 4144 3584 4550 3584 
Q 5097 3584 5394 3201 
Q 5691 2819 5691 2113 
L 5691 0 
L 5113 0 
L 5113 2094 
Q 5113 2597 4934 2840 
Q 4756 3084 4391 3084 
Q 3944 3084 3684 2787 
Q 3425 2491 3425 1978 
L 3425 0 
L 2847 0 
L 2847 2094 
Q 2847 2600 2669 2842 
Q 2491 3084 2119 3084 
Q 1678 3084 1418 2786 
Q 1159 2488 1159 1978 
L 1159 0 
L 581 0 
L 581 3500 
L 1159 3500 
L 1159 2956 
Q 1356 3278 1631 3431 
Q 1906 3584 2284 3584 
Q 2666 3584 2933 3390 
Q 3200 3197 3328 2828 
z
" transform="scale(0.015625)"/>
       <path id="DejaVuSans-65" d="M 3597 1894 
L 3597 1613 
L 953 1613 
Q 991 1019 1311 708 
Q 1631 397 2203 397 
Q 2534 397 2845 478 
Q 3156 559 3463 722 
L 3463 178 
Q 3153 47 2828 -22 
Q 2503 -91 2169 -91 
Q 1331 -91 842 396 
Q 353 884 353 1716 
Q 353 2575 817 3079 
Q 1281 3584 2069 3584 
Q 2775 3584 3186 3129 
Q 3597 2675 3597 1894 
z
M 3022 2063 
Q 3016 2534 2758 2815 
Q 2500 3097 2075 3097 
Q 1594 3097 1305 2825 
Q 1016 2553 972 2059 
L 3022 2063 
z
" transform="scale(0.015625)"/>
       <path id="DejaVuSans-28" d="M 1984 4856 
Q 1566 4138 1362 3434 
Q 1159 2731 1159 2009 
Q 1159 1288 1364 580 
Q 1569 -128 1984 -844 
L 1484 -844 
Q 1016 -109 783 600 
Q 550 1309 550 2009 
Q 550 2706 781 3412 
Q 1013 4119 1484 4856 
L 1984 4856 
z
" transform="scale(0.015625)"/>
       <path id="DejaVuSans-73" d="M 2834 3397 
L 2834 2853 
Q 2591 2978 2328 3040 
Q 2066 3103 1784 3103 
Q 1356 3103 1142 2972 
Q 928 2841 928 2578 
Q 928 2378 1081 2264 
Q 1234 2150 1697 2047 
L 1894 2003 
Q 2506 1872 2764 1633 
Q 3022 1394 3022 966 
Q 3022 478 2636 193 
Q 2250 -91 1575 -91 
Q 1294 -91 989 -36 
Q 684 19 347 128 
L 347 722 
Q 666 556 975 473 
Q 1284 391 1588 391 
Q 1994 391 2212 530 
Q 2431 669 2431 922 
Q 2431 1156 2273 1281 
Q 2116 1406 1581 1522 
L 1381 1569 
Q 847 1681 609 1914 
Q 372 2147 372 2553 
Q 372 3047 722 3315 
Q 1072 3584 1716 3584 
Q 2034 3584 2315 3537 
Q 2597 3491 2834 3397 
z
" transform="scale(0.015625)"/>
       <path id="DejaVuSans-29" d="M 513 4856 
L 1013 4856 
Q 1481 4119 1714 3412 
Q 1947 2706 1947 2009 
Q 1947 1309 1714 600 
Q 1481 -109 1013 -844 
L 513 -844 
Q 928 -128 1133 580 
Q 1338 1288 1338 2009 
Q 1338 2731 1133 3434 
Q 928 4138 513 4856 
z
" transform="scale(0.015625)"/>
      </defs>
      <use xlink:href="#DejaVuSans-54"/>
      <use xlink:href="#DejaVuSans-69" x="57.958984"/>
      <use xlink:href="#DejaVuSans-6d" x="85.742188"/>
      <use xlink:href="#DejaVuSans-65" x="183.154297"/>
      <use xlink:href="#DejaVuSans-28" x="244.677734"/>
      <use xlink:href="#DejaVuSans-73" x="283.691406"/>
      <use xlink:href="#DejaVuSans-29" x="335.791016"/>
     </g>
    </g>
   </g>
   <g id="matplotlib.axis_2">
    <g id="ytick_1">
     <g id="line2d_17">
      <path d="M 57.6 276.926052 
L 414.72 276.926052 
" clip-path="url(#p7c7a2b18c6)" style="fill: none; stroke: #b0b0b0; stroke-width: 0.8; stroke-linecap: square"/>
     </g>
     <g id="line2d_18">
      <defs>
       <path id="m5ad8cf8630" d="M 0 0 
L -3.5 0 
" style="stroke: #000000; stroke-width: 0.8"/>
      </defs>
      <g>
       <use xlink:href="#m5ad8cf8630" x="57.6" y="276.926052" style="stroke: #000000; stroke-width: 0.8"/>
      </g>
     </g>
     <g id="text_10">
      <!-- 4 -->
      <g transform="translate(44.2375 280.725271) scale(0.1 -0.1)">
       <defs>
        <path id="DejaVuSans-34" d="M 2419 4116 
L 825 1625 
L 2419 1625 
L 2419 4116 
z
M 2253 4666 
L 3047 4666 
L 3047 1625 
L 3713 1625 
L 3713 1100 
L 3047 1100 
L 3047 0 
L 2419 0 
L 2419 1100 
L 313 1100 
L 313 1709 
L 2253 4666 
z
" transform="scale(0.015625)"/>
       </defs>
       <use xlink:href="#DejaVuSans-34"/>
      </g>
     </g>
    </g>
    <g id="ytick_2">
     <g id="line2d_19">
      <path d="M 57.6 221.086539 
L 414.72 221.086539 
" clip-path="url(#p7c7a2b18c6)" style="fill: none; stroke: #b0b0b0; stroke-width: 0.8; stroke-linecap: square"/>
     </g>
     <g id="line2d_20">
      <g>
       <use xlink:href="#m5ad8cf8630" x="57.6" y="221.086539" style="stroke: #000000; stroke-width: 0.8"/>
      </g>
     </g>
     <g id="text_11">
      <!-- 5 -->
      <g transform="translate(44.2375 224.885758) scale(0.1 -0.1)">
       <use xlink:href="#DejaVuSans-35"/>
      </g>
     </g>
    </g>
    <g id="ytick_3">
     <g id="line2d_21">
      <path d="M 57.6 165.247026 
L 414.72 165.247026 
" clip-path="url(#p7c7a2b18c6)" style="fill: none; stroke: #b0b0b0; stroke-width: 0.8; stroke-linecap: square"/>
     </g>
     <g id="line2d_22">
      <g>
       <use xlink:href="#m5ad8cf8630" x="57.6" y="165.247026" style="stroke: #000000; stroke-width: 0.8"/>
      </g>
     </g>
     <g id="text_12">
      <!-- 6 -->
      <g transform="translate(44.2375 169.046245) scale(0.1 -0.1)">
       <defs>
        <path id="DejaVuSans-36" d="M 2113 2584 
Q 1688 2584 1439 2293 
Q 1191 2003 1191 1497 
Q 1191 994 1439 701 
Q 1688 409 2113 409 
Q 2538 409 2786 701 
Q 3034 994 3034 1497 
Q 3034 2003 2786 2293 
Q 2538 2584 2113 2584 
z
M 3366 4563 
L 3366 3988 
Q 3128 4100 2886 4159 
Q 2644 4219 2406 4219 
Q 1781 4219 1451 3797 
Q 1122 3375 1075 2522 
Q 1259 2794 1537 2939 
Q 1816 3084 2150 3084 
Q 2853 3084 3261 2657 
Q 3669 2231 3669 1497 
Q 3669 778 3244 343 
Q 2819 -91 2113 -91 
Q 1303 -91 875 529 
Q 447 1150 447 2328 
Q 447 3434 972 4092 
Q 1497 4750 2381 4750 
Q 2619 4750 2861 4703 
Q 3103 4656 3366 4563 
z
" transform="scale(0.015625)"/>
       </defs>
       <use xlink:href="#DejaVuSans-36"/>
      </g>
     </g>
    </g>
    <g id="ytick_4">
     <g id="line2d_23">
      <path d="M 57.6 109.407513 
L 414.72 109.407513 
" clip-path="url(#p7c7a2b18c6)" style="fill: none; stroke: #b0b0b0; stroke-width: 0.8; stroke-linecap: square"/>
     </g>
     <g id="line2d_24">
      <g>
       <use xlink:href="#m5ad8cf8630" x="57.6" y="109.407513" style="stroke: #000000; stroke-width: 0.8"/>
      </g>
     </g>
     <g id="text_13">
      <!-- 7 -->
      <g transform="translate(44.2375 113.206732) scale(0.1 -0.1)">
       <defs>
        <path id="DejaVuSans-37" d="M 525 4666 
L 3525 4666 
L 3525 4397 
L 1831 0 
L 1172 0 
L 2766 4134 
L 525 4134 
L 525 4666 
z
" transform="scale(0.015625)"/>
       </defs>
       <use xlink:href="#DejaVuSans-37"/>
      </g>
     </g>
    </g>
    <g id="ytick_5">
     <g id="line2d_25">
      <path d="M 57.6 53.568 
L 414.72 53.568 
" clip-path="url(#p7c7a2b18c6)" style="fill: none; stroke: #b0b0b0; stroke-width: 0.8; stroke-linecap: square"/>
     </g>
     <g id="line2d_26">
      <g>
       <use xlink:href="#m5ad8cf8630" x="57.6" y="53.568" style="stroke: #000000; stroke-width: 0.8"/>
      </g>
     </g>
     <g id="text_14">
      <!-- 8 -->
      <g transform="translate(44.2375 57.367219) scale(0.1 -0.1)">
       <defs>
        <path id="DejaVuSans-38" d="M 2034 2216 
Q 1584 2216 1326 1975 
Q 1069 1734 1069 1313 
Q 1069 891 1326 650 
Q 1584 409 2034 409 
Q 2484 409 2743 651 
Q 3003 894 3003 1313 
Q 3003 1734 2745 1975 
Q 2488 2216 2034 2216 
z
M 1403 2484 
Q 997 2584 770 2862 
Q 544 3141 544 3541 
Q 544 4100 942 4425 
Q 1341 4750 2034 4750 
Q 2731 4750 3128 4425 
Q 3525 4100 3525 3541 
Q 3525 3141 3298 2862 
Q 3072 2584 2669 2484 
Q 3125 2378 3379 2068 
Q 3634 1759 3634 1313 
Q 3634 634 3220 271 
Q 2806 -91 2034 -91 
Q 1263 -91 848 271 
Q 434 634 434 1313 
Q 434 1759 690 2068 
Q 947 2378 1403 2484 
z
M 1172 3481 
Q 1172 3119 1398 2916 
Q 1625 2713 2034 2713 
Q 2441 2713 2670 2916 
Q 2900 3119 2900 3481 
Q 2900 3844 2670 4047 
Q 2441 4250 2034 4250 
Q 1625 4250 1398 4047 
Q 1172 3844 1172 3481 
z
" transform="scale(0.015625)"/>
       </defs>
       <use xlink:href="#DejaVuSans-38"/>
      </g>
     </g>
    </g>
    <g id="text_15">
     <!-- Velocity(m/s) -->
     <g transform="translate(38.157812 207.204563) rotate(-90) scale(0.1 -0.1)">
      <defs>
       <path id="DejaVuSans-56" d="M 1831 0 
L 50 4666 
L 709 4666 
L 2188 738 
L 3669 4666 
L 4325 4666 
L 2547 0 
L 1831 0 
z
" transform="scale(0.015625)"/>
       <path id="DejaVuSans-6c" d="M 603 4863 
L 1178 4863 
L 1178 0 
L 603 0 
L 603 4863 
z
" transform="scale(0.015625)"/>
       <path id="DejaVuSans-6f" d="M 1959 3097 
Q 1497 3097 1228 2736 
Q 959 2375 959 1747 
Q 959 1119 1226 758 
Q 1494 397 1959 397 
Q 2419 397 2687 759 
Q 2956 1122 2956 1747 
Q 2956 2369 2687 2733 
Q 2419 3097 1959 3097 
z
M 1959 3584 
Q 2709 3584 3137 3096 
Q 3566 2609 3566 1747 
Q 3566 888 3137 398 
Q 2709 -91 1959 -91 
Q 1206 -91 779 398 
Q 353 888 353 1747 
Q 353 2609 779 3096 
Q 1206 3584 1959 3584 
z
" transform="scale(0.015625)"/>
       <path id="DejaVuSans-63" d="M 3122 3366 
L 3122 2828 
Q 2878 2963 2633 3030 
Q 2388 3097 2138 3097 
Q 1578 3097 1268 2742 
Q 959 2388 959 1747 
Q 959 1106 1268 751 
Q 1578 397 2138 397 
Q 2388 397 2633 464 
Q 2878 531 3122 666 
L 3122 134 
Q 2881 22 2623 -34 
Q 2366 -91 2075 -91 
Q 1284 -91 818 406 
Q 353 903 353 1747 
Q 353 2603 823 3093 
Q 1294 3584 2113 3584 
Q 2378 3584 2631 3529 
Q 2884 3475 3122 3366 
z
" transform="scale(0.015625)"/>
       <path id="DejaVuSans-74" d="M 1172 4494 
L 1172 3500 
L 2356 3500 
L 2356 3053 
L 1172 3053 
L 1172 1153 
Q 1172 725 1289 603 
Q 1406 481 1766 481 
L 2356 481 
L 2356 0 
L 1766 0 
Q 1100 0 847 248 
Q 594 497 594 1153 
L 594 3053 
L 172 3053 
L 172 3500 
L 594 3500 
L 594 4494 
L 1172 4494 
z
" transform="scale(0.015625)"/>
       <path id="DejaVuSans-79" d="M 2059 -325 
Q 1816 -950 1584 -1140 
Q 1353 -1331 966 -1331 
L 506 -1331 
L 506 -850 
L 844 -850 
Q 1081 -850 1212 -737 
Q 1344 -625 1503 -206 
L 1606 56 
L 191 3500 
L 800 3500 
L 1894 763 
L 2988 3500 
L 3597 3500 
L 2059 -325 
z
" transform="scale(0.015625)"/>
       <path id="DejaVuSans-2f" d="M 1625 4666 
L 2156 4666 
L 531 -594 
L 0 -594 
L 1625 4666 
z
" transform="scale(0.015625)"/>
      </defs>
      <use xlink:href="#DejaVuSans-56"/>
      <use xlink:href="#DejaVuSans-65" x="60.658203"/>
      <use xlink:href="#DejaVuSans-6c" x="122.181641"/>
      <use xlink:href="#DejaVuSans-6f" x="149.964844"/>
      <use xlink:href="#DejaVuSans-63" x="211.146484"/>
      <use xlink:href="#DejaVuSans-69" x="266.126953"/>
      <use xlink:href="#DejaVuSans-74" x="293.910156"/>
      <use xlink:href="#DejaVuSans-79" x="333.119141"/>
      <use xlink:href="#DejaVuSans-28" x="392.298828"/>
      <use xlink:href="#DejaVuSans-6d" x="431.3125"/>
      <use xlink:href="#DejaVuSans-2f" x="528.724609"/>
      <use xlink:href="#DejaVuSans-73" x="562.416016"/>
      <use xlink:href="#DejaVuSans-29" x="614.515625"/>
     </g>
    </g>
   </g>
   <g id="line2d_27">
    <path d="M 73.832727 53.750484 
L 76.305613 53.614626 
L 76.305613 53.614626 
L 82.664461 53.569396 
L 82.664461 53.569396 
L 92.379369 53.568 
L 92.379369 53.568 
L 92.909273 58.978905 
L 92.909273 58.978905 
L 93.615812 78.5793 
L 93.615812 78.5793 
L 95.382158 129.180229 
L 95.382158 129.180229 
L 96.971871 161.449102 
L 96.971871 161.449102 
L 97.678409 172.942772 
L 97.678409 172.942772 
L 99.268121 190.263072 
L 99.268121 190.263072 
L 100.504564 197.313369 
L 100.504564 197.313369 
L 101.034468 198.683559 
L 101.034468 198.683559 
L 101.564372 199.249102 
L 101.564372 199.249102 
L 101.917642 199.414498 
L 101.917642 199.414498 
L 102.270911 199.412935 
L 102.270911 199.412935 
L 103.154084 199.248655 
L 103.154084 199.248655 
L 103.507354 199.006926 
L 103.507354 199.006926 
L 103.860623 198.562611 
L 103.860623 198.562611 
L 104.567162 196.341985 
L 104.567162 196.341985 
L 105.273701 192.395974 
L 105.273701 192.395974 
L 105.803605 187.733431 
L 105.803605 187.733431 
L 106.863413 171.018319 
L 106.863413 171.018319 
L 107.923221 151.228237 
L 107.923221 151.228237 
L 108.453125 147.527474 
L 108.453125 147.527474 
L 108.983029 146.001826 
L 108.983029 146.001826 
L 109.512933 145.327732 
L 109.512933 145.327732 
L 109.866202 145.111465 
L 109.866202 145.111465 
L 111.455915 144.407664 
L 111.455915 144.407664 
L 112.339088 143.503678 
L 112.339088 143.503678 
L 113.045627 141.620658 
L 113.045627 141.620658 
L 113.398896 140.375269 
L 113.398896 140.375269 
L 114.458704 133.494557 
L 114.458704 133.494557 
L 114.811973 130.129668 
L 114.811973 130.129668 
L 115.695147 119.269497 
L 115.695147 119.269497 
L 115.871782 118.278402 
L 115.871782 118.278402 
L 116.048416 118.565305 
L 116.048416 118.565305 
L 116.225051 119.517927 
L 116.225051 119.517927 
L 116.401686 121.856207 
L 116.401686 121.856207 
L 117.284859 140.380183 
L 117.284859 140.380183 
L 118.344667 157.251366 
L 118.344667 157.251366 
L 119.051206 164.514356 
L 119.051206 164.514356 
L 119.58111 167.701452 
L 119.58111 167.701452 
L 120.287649 170.158558 
L 120.287649 170.158558 
L 120.640918 170.53285 
L 120.640918 170.53285 
L 120.994187 171.02005 
L 120.994187 171.02005 
L 121.170822 171.197173 
L 121.170822 171.197173 
L 121.347457 171.195833 
L 121.347457 171.195833 
L 121.524091 171.340904 
L 121.524091 171.340904 
L 121.877361 171.318624 
L 121.877361 171.318624 
L 122.407265 171.419582 
L 122.407265 171.419582 
L 122.937169 171.340066 
L 122.937169 171.340066 
L 123.290438 171.353859 
L 123.290438 171.353859 
L 123.820342 171.137201 
L 123.820342 171.137201 
L 124.173612 171.037472 
L 124.173612 171.037472 
L 124.526881 170.789656 
L 124.526881 170.789656 
L 125.763324 169.626687 
L 125.763324 169.626687 
L 126.823132 167.956583 
L 126.823132 167.956583 
L 127.88294 165.843113 
L 127.88294 165.843113 
L 128.942748 163.067666 
L 128.942748 163.067666 
L 129.649287 160.803485 
L 129.649287 160.803485 
L 130.179191 159.062688 
L 130.179191 159.062688 
L 131.945538 152.106034 
L 131.945538 152.106034 
L 133.005346 146.981586 
L 133.005346 146.981586 
L 135.124962 134.296413 
L 135.124962 134.296413 
L 136.008135 128.024072 
L 136.008135 128.024072 
L 137.951117 110.433676 
L 137.951117 110.433676 
L 138.83429 100.394904 
L 138.83429 100.394904 
L 141.307176 68.962004 
L 141.307176 68.962004 
L 142.013715 63.993293 
L 142.013715 63.993293 
L 142.720253 60.628348 
L 142.720253 60.628348 
L 143.426792 58.349482 
L 143.426792 58.349482 
L 144.133331 56.806189 
L 144.133331 56.806189 
L 144.839869 55.760985 
L 144.839869 55.760985 
L 145.546408 55.053164 
L 145.546408 55.053164 
L 146.429582 54.480418 
L 146.429582 54.480418 
L 147.48939 54.07653 
L 147.48939 54.07653 
L 148.902467 53.801242 
L 148.902467 53.801242 
L 150.845449 53.647851 
L 150.845449 53.647851 
L 151.022083 54.642911 
L 151.022083 54.642911 
L 151.728622 69.499851 
L 151.728622 69.499851 
L 152.78843 104.865639 
L 152.78843 104.865639 
L 153.141699 113.498651 
L 153.141699 113.498651 
L 153.494969 123.623862 
L 153.494969 123.623862 
L 154.201508 141.970381 
L 154.201508 141.970381 
L 154.554777 151.387603 
L 154.554777 151.387603 
L 155.79122 181.517879 
L 155.79122 181.517879 
L 156.321124 190.888531 
L 156.321124 190.888531 
L 156.851028 200.025159 
L 156.851028 200.025159 
L 158.794009 227.059134 
L 158.794009 227.059134 
L 158.970644 228.28375 
L 158.970644 228.28375 
L 159.500548 233.537187 
L 159.500548 233.537187 
L 160.913625 241.732306 
L 160.913625 241.732306 
L 161.620164 244.523109 
L 161.620164 244.523109 
L 162.150068 245.855384 
L 162.150068 245.855384 
L 162.856607 246.920969 
L 162.856607 246.920969 
L 163.386511 247.101331 
L 163.386511 247.101331 
L 164.09305 247.334461 
L 164.09305 247.334461 
L 164.622954 247.258184 
L 164.622954 247.258184 
L 164.799588 247.326141 
L 164.799588 247.326141 
L 164.976223 247.226691 
L 164.976223 247.226691 
L 165.329493 247.197263 
L 165.329493 247.197263 
L 165.859397 246.906898 
L 165.859397 246.906898 
L 166.389301 246.324436 
L 166.389301 246.324436 
L 167.095839 245.081951 
L 167.095839 245.081951 
L 167.802378 243.125111 
L 167.802378 243.125111 
L 169.038821 237.583821 
L 169.038821 237.583821 
L 169.74536 234.030138 
L 169.74536 234.030138 
L 170.805168 227.165731 
L 170.805168 227.165731 
L 172.218245 215.766709 
L 172.218245 215.766709 
L 173.454688 203.89735 
L 173.454688 203.89735 
L 174.691131 190.738378 
L 174.691131 190.738378 
L 176.280843 173.375082 
L 176.280843 173.375082 
L 177.340651 161.804409 
L 177.340651 161.804409 
L 179.283632 141.661086 
L 179.283632 141.661086 
L 179.990171 132.90009 
L 179.990171 132.90009 
L 181.226614 111.620042 
L 181.226614 111.620042 
L 181.756518 99.896034 
L 181.756518 99.896034 
L 182.286422 89.721963 
L 182.286422 89.721963 
L 182.816326 86.701213 
L 182.816326 86.701213 
L 182.992961 88.206032 
L 182.992961 88.206032 
L 183.34623 95.246948 
L 183.34623 95.246948 
L 183.522865 98.829108 
L 184.935942 144.406826 
L 184.935942 144.406826 
L 185.289212 153.816119 
L 185.289212 153.816119 
L 185.642481 162.536744 
L 185.642481 162.536744 
L 186.172385 178.694689 
L 186.172385 178.694689 
L 186.525654 187.17269 
L 186.525654 187.17269 
L 186.878924 197.203756 
L 186.878924 197.203756 
L 187.408828 210.357591 
L 187.408828 210.357591 
L 187.938732 220.321091 
L 187.938732 220.321091 
L 188.468636 230.616837 
L 188.468636 230.616837 
L 188.99854 238.93469 
L 188.99854 238.93469 
L 189.528444 247.203629 
L 189.528444 247.203629 
L 189.705079 248.863849 
L 190.058348 253.360382 
L 190.058348 253.360382 
L 191.64806 266.510252 
L 191.64806 266.510252 
L 193.061138 272.122849 
L 193.061138 272.122849 
L 193.414407 272.853007 
L 193.414407 272.853007 
L 194.29758 274.013687 
L 194.29758 274.013687 
L 194.65085 274.367374 
L 194.65085 274.367374 
L 194.827484 274.348165 
L 194.827484 274.348165 
L 195.004119 274.460905 
L 195.004119 274.460905 
L 195.357388 274.499323 
L 195.357388 274.499323 
L 195.710658 274.58889 
L 195.710658 274.58889 
L 195.887293 274.631439 
L 195.887293 274.631439 
L 196.240562 274.569011 
L 196.240562 274.569011 
L 197.653639 274.109787 
L 197.653639 274.109787 
L 198.360178 273.13293 
L 198.360178 273.13293 
L 198.890082 272.042049 
L 198.890082 272.042049 
L 200.126525 267.43166 
L 200.126525 267.43166 
L 201.539602 257.700899 
L 201.539602 257.700899 
L 202.246141 251.066941 
L 202.246141 251.066941 
L 203.129314 240.803806 
L 203.129314 240.803806 
L 203.659219 233.536182 
L 203.659219 233.536182 
L 205.248931 204.325081 
L 205.248931 204.325081 
L 205.955469 188.648138 
L 205.955469 188.648138 
L 206.838643 166.627546 
L 206.838643 166.627546 
L 208.075086 132.456221 
L 208.075086 132.456221 
L 209.311528 97.232936 
L 209.311528 97.232936 
L 210.018067 83.139322 
L 210.018067 83.139322 
L 210.724606 73.594618 
L 210.724606 73.594618 
L 211.431145 67.130692 
L 211.431145 67.130692 
L 212.137683 62.753097 
L 212.137683 62.753097 
L 212.844222 59.78841 
L 212.844222 59.78841 
L 213.550761 57.780645 
L 213.550761 57.780645 
L 214.257299 56.420952 
L 214.257299 56.420952 
L 214.963838 55.500103 
L 214.963838 55.500103 
L 215.140473 55.334874 
L 215.140473 55.334874 
L 215.317108 55.74803 
L 215.847012 63.474488 
L 215.847012 63.474488 
L 216.200281 69.874143 
L 216.200281 69.874143 
L 216.730185 81.063097 
L 216.730185 81.063097 
L 217.613358 100.164175 
L 217.613358 100.164175 
L 217.966628 108.463658 
L 217.966628 108.463658 
L 218.849801 127.698472 
L 218.849801 127.698472 
L 220.969417 167.583575 
L 220.969417 167.583575 
L 222.382495 187.314858 
L 222.382495 187.314858 
L 222.912399 192.712919 
L 222.912399 192.712919 
L 223.972207 200.042414 
L 223.972207 200.042414 
L 224.325476 201.818501 
L 224.325476 201.818501 
L 224.85538 203.631275 
L 224.85538 203.631275 
L 225.385284 204.682119 
L 225.385284 204.682119 
L 225.915188 205.127606 
L 225.915188 205.127606 
L 226.445092 205.177862 
L 226.445092 205.177862 
L 226.974997 205.248946 
L 226.974997 205.248946 
L 227.85817 205.027877 
L 227.85817 205.027877 
L 228.211439 204.782965 
L 228.211439 204.782965 
L 228.917978 203.406521 
L 228.917978 203.406521 
L 229.624517 200.965106 
L 229.624517 200.965106 
L 230.331055 196.866541 
L 230.331055 196.866541 
L 230.684325 193.441346 
L 230.684325 193.441346 
L 231.214229 187.639788 
L 231.214229 187.639788 
L 232.097402 174.185201 
L 232.097402 174.185201 
L 233.333845 144.176377 
L 233.333845 144.176377 
L 235.276827 91.536915 
L 235.276827 91.536915 
L 235.983365 79.281761 
L 235.983365 79.281761 
L 236.689904 70.982166 
L 236.689904 70.982166 
L 237.396443 65.361417 
L 237.396443 65.361417 
L 238.102982 61.554893 
L 238.102982 61.554893 
L 238.80952 58.977006 
L 238.80952 58.977006 
L 239.516059 57.231128 
L 239.516059 57.231128 
L 240.222598 56.048782 
L 240.222598 56.048782 
L 240.929136 55.248043 
L 240.929136 55.248043 
L 241.282406 54.950586 
L 241.282406 54.950586 
L 241.45904 54.939809 
L 241.45904 54.939809 
L 241.988945 60.186099 
L 241.988945 60.186099 
L 242.342214 64.234408 
L 242.342214 64.234408 
L 242.872118 71.618904 
L 242.872118 71.618904 
L 245.168369 106.8026 
L 245.168369 106.8026 
L 245.521638 112.347854 
L 245.521638 112.347854 
L 246.934716 130.657742 
L 246.934716 130.657742 
L 248.171158 140.477177 
L 248.171158 140.477177 
L 248.877697 143.742671 
L 248.877697 143.742671 
L 249.407601 145.209799 
L 249.407601 145.209799 
L 249.760871 145.699902 
L 249.760871 145.699902 
L 250.11414 145.822637 
L 250.11414 145.822637 
L 250.290775 145.951012 
L 250.644044 145.949393 
L 250.644044 145.949393 
L 250.820679 146.051077 
L 250.820679 146.051077 
L 250.997313 145.996745 
L 250.997313 145.996745 
L 251.350583 146.055041 
L 251.350583 146.055041 
L 251.703852 145.960338 
L 251.703852 145.960338 
L 252.410391 145.094323 
L 252.410391 145.094323 
L 252.76366 144.384491 
L 252.76366 144.384491 
L 253.823468 140.23997 
L 253.823468 140.23997 
L 254.353372 137.035397 
L 254.353372 137.035397 
L 254.883276 132.960173 
L 254.883276 132.960173 
L 255.589815 126.394116 
L 255.589815 126.394116 
L 256.472988 115.937386 
L 256.472988 115.937386 
L 257.356162 104.090586 
L 257.356162 104.090586 
L 259.475778 71.984877 
L 259.475778 71.984877 
L 260.182317 66.040481 
L 260.182317 66.040481 
L 260.888855 62.014787 
L 260.888855 62.014787 
L 261.595394 59.288423 
L 261.595394 59.288423 
L 262.301933 57.442034 
L 262.301933 57.442034 
L 263.008472 56.19162 
L 263.008472 56.19162 
L 263.71501 55.344813 
L 263.71501 55.344813 
L 264.598184 54.659607 
L 264.598184 54.659607 
L 265.657992 54.176371 
L 265.657992 54.176371 
L 266.894435 53.875564 
L 266.894435 53.875564 
L 268.837416 53.673313 
L 268.837416 53.673313 
L 272.37011 53.583021 
L 272.37011 53.583021 
L 276.432707 53.569619 
L 276.432707 53.569619 
L 276.609342 54.617671 
L 276.609342 54.617671 
L 277.139246 69.185809 
L 277.139246 69.185809 
L 277.492516 80.30435 
L 277.492516 80.30435 
L 278.02242 99.589028 
L 278.02242 99.589028 
L 279.965401 172.161745 
L 279.965401 172.161745 
L 281.555113 219.13104 
L 281.555113 219.13104 
L 282.438287 238.975397 
L 282.438287 238.975397 
L 284.027999 264.998174 
L 284.027999 264.998174 
L 284.557903 271.642015 
L 284.557903 271.642015 
L 284.911172 275.883138 
L 284.911172 275.883138 
L 285.441076 280.766527 
L 285.441076 280.766527 
L 285.794346 284.059215 
L 285.794346 284.059215 
L 286.854154 290.861696 
L 286.854154 290.861696 
L 287.384058 293.101643 
L 287.384058 293.101643 
L 287.913962 294.288567 
L 287.913962 294.288567 
L 288.267231 294.819657 
L 288.267231 294.819657 
L 288.620501 295.045584 
L 288.620501 295.045584 
L 289.503674 295.347675 
L 289.503674 295.347675 
L 290.386847 295.237671 
L 290.386847 295.237671 
L 290.916751 294.808936 
L 290.916751 294.808936 
L 291.270021 294.476021 
L 291.270021 294.476021 
L 291.799925 293.276532 
L 291.799925 293.276532 
L 292.329829 291.746194 
L 292.329829 291.746194 
L 292.683098 290.215186 
L 292.683098 290.215186 
L 293.213002 287.715475 
L 293.213002 287.715475 
L 293.742906 284.46461 
L 293.742906 284.46461 
L 294.27281 280.835321 
L 294.27281 280.835321 
L 296.392427 259.683593 
L 296.392427 259.683593 
L 297.452235 244.875791 
L 297.452235 244.875791 
L 298.335408 230.91636 
L 298.335408 230.91636 
L 299.571851 210.192809 
L 299.571851 210.192809 
L 301.868102 177.564999 
L 301.868102 177.564999 
L 302.751275 164.715769 
L 302.751275 164.715769 
L 303.104544 160.389324 
L 303.104544 160.389324 
L 303.457814 158.362573 
L 303.457814 158.362573 
L 304.340987 174.914074 
L 304.340987 174.914074 
L 304.694257 185.034595 
L 304.694257 185.034595 
L 305.224161 197.734678 
L 305.224161 197.734678 
L 306.813873 226.574279 
L 306.813873 226.574279 
L 307.343777 232.680051 
L 307.343777 232.680051 
L 307.873681 238.756227 
L 307.873681 238.756227 
L 309.463393 250.657638 
L 309.463393 250.657638 
L 310.87647 257.490942 
L 310.87647 257.490942 
L 311.22974 258.673232 
L 311.22974 258.673232 
L 312.466183 260.859126 
L 312.466183 260.859126 
L 313.525991 261.480229 
L 313.525991 261.480229 
L 313.702625 261.437791 
L 313.702625 261.437791 
L 314.055895 261.507423 
L 314.055895 261.507423 
L 314.585799 261.463756 
L 314.585799 261.463756 
L 315.292338 261.26279 
L 315.292338 261.26279 
L 315.645607 261.098454 
L 315.645607 261.098454 
L 316.352146 260.195976 
L 316.352146 260.195976 
L 316.705415 259.412101 
L 316.705415 259.412101 
L 317.235319 258.087308 
L 317.235319 258.087308 
L 318.118492 254.584272 
L 318.118492 254.584272 
L 318.825031 250.817506 
L 318.825031 250.817506 
L 320.238109 240.142387 
L 320.238109 240.142387 
L 321.121282 232.037896 
L 321.121282 232.037896 
L 322.710994 213.918868 
L 322.710994 213.918868 
L 323.947437 198.076919 
L 323.947437 198.076919 
L 324.83061 184.848706 
L 324.83061 184.848706 
L 326.067053 163.298227 
L 326.067053 163.298227 
L 327.303496 141.359888 
L 327.303496 141.359888 
L 327.656765 138.954154 
L 327.656765 138.954154 
L 327.8334 139.513833 
L 327.8334 139.513833 
L 328.010035 139.465923 
L 328.010035 139.465923 
L 328.539939 146.936803 
L 328.539939 146.936803 
L 329.246477 162.277202 
L 329.246477 162.277202 
L 329.953016 174.31849 
L 329.953016 174.31849 
L 330.48292 183.680599 
L 330.48292 183.680599 
L 331.895998 199.951786 
L 331.895998 199.951786 
L 332.425902 203.998587 
L 332.425902 203.998587 
L 333.13244 207.538924 
L 333.13244 207.538924 
L 333.48571 208.748185 
L 333.48571 208.748185 
L 333.838979 209.490348 
L 333.838979 209.490348 
L 334.368883 209.980674 
L 334.368883 209.980674 
L 334.722153 210.122618 
L 334.722153 210.122618 
L 335.252057 210.259369 
L 335.252057 210.259369 
L 336.13523 210.127812 
L 336.13523 210.127812 
L 336.841769 209.228572 
L 336.841769 209.228572 
L 337.548307 207.365989 
L 337.548307 207.365989 
L 338.254846 203.996075 
L 338.254846 203.996075 
L 338.78475 200.06944 
L 338.78475 200.06944 
L 340.021193 182.542478 
L 340.021193 182.542478 
L 340.374462 178.328158 
L 340.374462 178.328158 
L 340.727732 177.041895 
L 340.727732 177.041895 
L 341.081001 177.26838 
L 341.081001 177.26838 
L 342.140809 185.453392 
L 342.140809 185.453392 
L 342.670713 187.420562 
L 342.670713 187.420562 
L 343.023983 187.855328 
L 343.023983 187.855328 
L 343.377252 188.074833 
L 343.377252 188.074833 
L 343.553887 188.185731 
L 344.083791 188.007714 
L 344.083791 188.007714 
L 344.790329 186.530312 
L 344.790329 186.530312 
L 345.320233 184.078511 
L 345.320233 184.078511 
L 346.203407 174.484892 
L 346.203407 174.484892 
L 346.733311 168.731021 
L 346.733311 168.731021 
L 346.909946 167.575199 
L 346.909946 167.575199 
L 347.263215 167.262274 
L 347.263215 167.262274 
L 347.43985 168.499119 
L 347.43985 168.499119 
L 347.969754 175.310144 
L 347.969754 175.310144 
L 348.852927 183.273361 
L 348.852927 183.273361 
L 349.382831 185.37248 
L 349.382831 185.37248 
L 349.559466 185.730691 
L 349.559466 185.730691 
L 349.736101 185.792728 
L 349.736101 185.792728 
L 350.08937 186.168975 
L 350.08937 186.168975 
L 350.442639 186.358383 
L 350.442639 186.358383 
L 351.502447 186.19561 
L 351.502447 186.19561 
L 352.385621 185.680658 
L 352.385621 185.680658 
L 353.622064 183.711143 
L 353.622064 183.711143 
L 354.328602 181.904009 
L 354.328602 181.904009 
L 355.211776 179.185183 
L 355.211776 179.185183 
L 356.448218 173.984682 
L 356.448218 173.984682 
L 358.214565 163.32637 
L 358.214565 163.32637 
L 360.157547 148.406946 
L 360.157547 148.406946 
L 361.747259 137.250434 
L 361.747259 137.250434 
L 362.983702 130.66422 
L 362.983702 130.66422 
L 364.750048 121.018167 
L 364.750048 121.018167 
L 365.456587 115.576383 
L 365.456587 115.576383 
L 365.986491 110.266381 
L 365.986491 110.266381 
L 366.516395 103.346246 
L 366.516395 103.346246 
L 367.046299 95.217353 
L 367.046299 95.217353 
L 368.459377 73.464847 
L 368.459377 73.464847 
L 369.165916 67.042745 
L 369.165916 67.042745 
L 369.872454 62.693517 
L 369.872454 62.693517 
L 370.578993 59.748094 
L 370.578993 59.748094 
L 371.285532 57.753339 
L 371.285532 57.753339 
L 371.99207 56.40247 
L 371.99207 56.40247 
L 372.698609 55.487595 
L 372.698609 55.487595 
L 373.581783 54.747331 
L 373.581783 54.747331 
L 374.464956 54.292518 
L 374.464956 54.292518 
L 375.701399 53.934307 
L 375.701399 53.934307 
L 377.467746 53.706259 
L 377.467746 53.706259 
L 380.470535 53.594356 
L 380.470535 53.594356 
L 390.538712 53.568112 
L 390.538712 53.568112 
L 397.25083 53.631099 
L 397.25083 53.631099 
L 397.427465 53.76757 
L 397.427465 53.76757 
L 398.487273 53.748417 
L 398.487273 53.748417 
" clip-path="url(#p7c7a2b18c6)" style="fill: none; stroke: #1f77b4; stroke-width: 1.5; stroke-linecap: square"/>
   </g>
   <g id="line2d_28">
    <path d="M 73.832727 53.568 
L 92.202734 53.568 
L 92.202734 53.568 
L 92.379369 58.976224 
L 92.379369 58.976224 
L 92.556004 58.015841 
L 92.556004 58.015841 
L 92.909273 71.706628 
L 92.909273 71.706628 
L 93.085908 80.661499 
L 93.085908 80.661499 
L 93.262542 82.133987 
L 93.262542 82.133987 
L 93.792446 102.693761 
L 93.792446 102.693761 
L 93.969081 110.948516 
L 93.969081 110.948516 
L 94.145716 108.776415 
L 94.145716 108.776415 
L 94.67562 123.610907 
L 94.67562 123.610907 
L 95.558793 146.582725 
L 95.558793 146.582725 
L 95.735428 147.300374 
L 95.735428 147.300374 
L 96.618601 166.93243 
L 96.618601 166.93243 
L 96.795236 166.019398 
L 96.795236 166.019398 
L 96.971871 170.877939 
L 96.971871 170.877939 
L 97.148505 171.668849 
L 97.148505 171.668849 
L 97.32514 174.247071 
L 97.32514 174.247071 
L 97.501775 179.392627 
L 97.501775 179.392627 
L 97.678409 178.813348 
L 97.678409 178.813348 
L 97.855044 182.301642 
L 97.855044 182.301642 
L 98.031679 182.982717 
L 98.031679 182.982717 
L 98.208313 185.027615 
L 98.208313 185.027615 
L 98.384948 189.089493 
L 98.384948 189.089493 
L 98.561583 188.218732 
L 98.561583 188.218732 
L 98.738217 190.862565 
L 98.738217 190.862565 
L 98.914852 191.278235 
L 98.914852 191.278235 
L 99.091487 193.282426 
L 99.091487 193.282426 
L 99.268121 193.425487 
L 99.268121 193.425487 
L 99.444756 195.004852 
L 99.444756 195.004852 
L 99.621391 195.519301 
L 99.621391 195.519301 
L 99.97466 198.062065 
L 99.97466 198.062065 
L 100.151295 197.978529 
L 100.151295 197.978529 
L 100.32793 198.747216 
L 100.32793 198.747216 
L 100.681199 199.155291 
L 100.681199 199.155291 
L 100.857834 199.404615 
L 100.857834 199.404615 
L 101.034468 199.354359 
L 101.034468 199.354359 
L 101.211103 199.609434 
L 101.211103 199.609434 
L 101.387738 199.430859 
L 101.387738 199.430859 
L 101.564372 199.649918 
L 101.564372 199.649918 
L 101.741007 199.466764 
L 101.741007 199.466764 
L 101.917642 198.874195 
L 102.094276 199.505517 
L 102.094276 199.505517 
L 102.270911 199.204318 
L 102.270911 199.204318 
L 102.447546 199.443982 
L 102.447546 199.443982 
L 102.62418 198.907196 
L 102.62418 198.907196 
L 102.800815 199.124412 
L 102.800815 199.124412 
L 102.97745 198.33741 
L 102.97745 198.33741 
L 103.154084 198.417596 
L 103.154084 198.417596 
L 103.330719 197.398915 
L 103.330719 197.398915 
L 103.507354 197.148475 
L 103.507354 197.148475 
L 103.683989 195.907274 
L 103.683989 195.907274 
L 103.860623 192.848498 
L 103.860623 192.848498 
L 104.037258 193.802348 
L 104.037258 193.802348 
L 104.213893 189.92273 
L 104.213893 189.92273 
L 104.390527 190.664502 
L 104.390527 190.664502 
L 104.567162 186.706821 
L 104.743797 186.535506 
L 104.743797 186.535506 
L 104.920431 182.60284 
L 104.920431 182.60284 
L 105.097066 181.564672 
L 105.097066 181.564672 
L 105.62697 170.750178 
L 105.62697 170.750178 
L 105.803605 160.406969 
L 105.803605 160.406969 
L 105.980239 162.505585 
L 105.980239 162.505585 
L 106.156874 151.840741 
L 106.156874 151.840741 
L 106.333509 151.37839 
L 106.333509 151.37839 
L 106.686778 138.736994 
L 106.686778 138.736994 
L 106.863413 132.354426 
L 107.040047 121.531165 
L 107.040047 121.531165 
L 107.216682 121.508103 
L 107.216682 121.508103 
L 107.923221 135.652643 
L 107.923221 135.652643 
L 108.099856 135.974725 
L 108.099856 135.974725 
L 108.62976 141.324206 
L 108.62976 141.324206 
L 108.983029 143.118721 
L 108.983029 143.118721 
L 109.159664 143.242405 
L 109.159664 143.242405 
L 109.689568 144.432848 
L 109.689568 144.432848 
L 110.219472 144.023991 
L 110.219472 144.023991 
L 110.396106 143.85502 
L 110.396106 143.85502 
L 110.572741 144.132822 
L 110.572741 144.132822 
L 110.749376 143.936881 
L 110.749376 143.936881 
L 110.92601 143.500886 
L 110.92601 143.500886 
L 111.102645 143.811633 
L 111.102645 143.811633 
L 111.27928 143.780475 
L 111.27928 143.780475 
L 111.455915 142.347465 
L 111.455915 142.347465 
L 111.632549 143.262452 
L 111.632549 143.262452 
L 111.809184 141.818386 
L 111.809184 141.818386 
L 111.985819 141.83631 
L 111.985819 141.83631 
L 112.162453 141.383787 
L 112.162453 141.383787 
L 112.339088 139.108941 
L 112.339088 139.108941 
L 112.515723 139.250047 
L 112.515723 139.250047 
L 112.692357 137.990755 
L 112.692357 137.990755 
L 112.868992 135.003564 
L 112.868992 135.003564 
L 113.045627 135.484063 
L 113.045627 135.484063 
L 113.222261 133.773252 
L 113.222261 133.773252 
L 113.398896 129.160629 
L 113.398896 129.160629 
L 113.575531 130.208458 
L 113.575531 130.208458 
L 113.752165 126.741326 
L 113.752165 126.741326 
L 113.9288 125.895469 
L 114.105435 123.362198 
L 114.105435 123.362198 
L 114.282069 117.563488 
L 114.282069 117.563488 
L 114.458704 116.823782 
L 114.458704 116.823782 
L 115.165243 98.46241 
L 115.165243 98.46241 
L 115.518512 102.085166 
L 115.518512 102.085166 
L 116.401686 133.805472 
L 116.401686 133.805472 
L 116.754955 139.699388 
L 116.754955 139.699388 
L 116.93159 145.239003 
L 116.93159 145.239003 
L 117.108224 146.440781 
L 117.108224 146.440781 
L 117.284859 149.494923 
L 117.284859 149.494923 
L 117.461494 154.531424 
L 117.461494 154.531424 
L 117.638128 154.590223 
L 117.638128 154.590223 
L 117.991398 160.625636 
L 117.991398 160.625636 
L 118.168032 161.054428 
L 118.521302 165.757846 
L 118.521302 165.757846 
L 118.697936 165.603841 
L 118.697936 165.603841 
L 118.874571 167.59223 
L 118.874571 167.59223 
L 119.051206 168.002483 
L 119.051206 168.002483 
L 119.404475 169.443533 
L 119.404475 169.443533 
L 119.58111 169.747914 
L 119.58111 169.747914 
L 119.757745 170.547369 
L 119.757745 170.547369 
L 120.111014 171.056457 
L 120.111014 171.056457 
L 120.287649 170.522967 
L 120.287649 170.522967 
L 120.640918 171.408246 
L 120.640918 171.408246 
L 120.817553 171.374128 
L 120.817553 171.374128 
L 120.994187 171.534723 
L 120.994187 171.534723 
L 121.170822 171.182487 
L 121.170822 171.182487 
L 121.347457 171.61731 
L 121.347457 171.61731 
L 121.524091 171.10554 
L 121.524091 171.10554 
L 121.877361 171.518753 
L 121.877361 171.518753 
L 122.053995 170.867273 
L 122.053995 170.867273 
L 122.23063 171.572694 
L 122.23063 171.572694 
L 122.407265 170.849237 
L 122.407265 170.849237 
L 122.760534 171.307177 
L 122.760534 171.307177 
L 122.937169 171.410201 
L 122.937169 171.410201 
L 123.113804 171.252957 
L 123.113804 171.252957 
L 123.290438 170.165315 
L 123.290438 170.165315 
L 123.467073 170.655195 
L 123.467073 170.655195 
L 123.996977 170.480138 
L 123.996977 170.480138 
L 124.173612 169.022559 
L 124.173612 169.022559 
L 124.350246 170.195803 
L 124.350246 170.195803 
L 124.526881 169.16065 
L 124.526881 169.16065 
L 124.703516 169.434878 
L 124.703516 169.434878 
L 125.056785 168.368287 
L 125.056785 168.368287 
L 125.23342 168.919926 
L 125.23342 168.919926 
L 125.410054 167.361222 
L 125.410054 167.361222 
L 125.586689 167.784765 
L 125.586689 167.784765 
L 125.763324 166.914115 
L 125.763324 166.914115 
L 125.939958 166.964259 
L 125.939958 166.964259 
L 126.116593 167.154225 
L 126.116593 167.154225 
L 126.293228 165.044385 
L 126.293228 165.044385 
L 126.469862 165.62975 
L 126.469862 165.62975 
L 126.646497 164.34935 
L 126.646497 164.34935 
L 126.823132 164.489954 
L 126.823132 164.489954 
L 126.999767 164.829738 
L 126.999767 164.829738 
L 127.176401 162.594873 
L 127.176401 162.594873 
L 127.353036 163.406947 
L 127.353036 163.406947 
L 127.529671 162.202098 
L 127.529671 162.202098 
L 127.706305 162.405912 
L 127.706305 162.405912 
L 128.059575 159.25003 
L 128.059575 159.25003 
L 128.236209 160.317067 
L 128.236209 160.317067 
L 128.412844 159.076816 
L 128.412844 159.076816 
L 128.589479 159.301626 
L 128.589479 159.301626 
L 128.766113 158.915272 
L 128.766113 158.915272 
L 128.942748 156.02178 
L 128.942748 156.02178 
L 129.119383 157.068045 
L 129.119383 157.068045 
L 129.296017 155.535753 
L 129.296017 155.535753 
L 129.472652 155.709414 
L 129.472652 155.709414 
L 129.649287 155.381134 
L 129.649287 155.381134 
L 129.825921 152.459163 
L 129.825921 152.459163 
L 130.002556 154.084931 
L 130.002556 154.084931 
L 130.179191 151.991117 
L 130.179191 151.991117 
L 130.355826 152.041651 
L 130.355826 152.041651 
L 130.53246 151.43797 
L 130.53246 151.43797 
L 130.709095 148.98293 
L 130.709095 148.98293 
L 130.88573 149.805335 
L 130.88573 149.805335 
L 131.062364 147.566003 
L 131.062364 147.566003 
L 131.238999 147.394911 
L 131.238999 147.394911 
L 131.415634 146.788605 
L 131.415634 146.788605 
L 131.592268 144.765875 
L 131.592268 144.765875 
L 131.768903 145.018995 
L 131.768903 145.018995 
L 131.945538 143.721229 
L 131.945538 143.721229 
L 132.122172 140.939416 
L 132.122172 140.939416 
L 132.298807 141.618983 
L 132.298807 141.618983 
L 132.652076 139.684981 
L 132.652076 139.684981 
L 132.828711 138.468909 
L 132.828711 138.468909 
L 133.005346 136.154807 
L 133.005346 136.154807 
L 133.18198 136.383973 
L 133.18198 136.383973 
L 133.358615 134.945156 
L 133.358615 134.945156 
L 133.53525 132.229848 
L 133.53525 132.229848 
L 133.711884 133.259305 
L 133.711884 133.259305 
L 134.065154 128.003244 
L 134.065154 128.003244 
L 134.241789 128.955084 
L 134.241789 128.955084 
L 134.418423 126.59391 
L 134.418423 126.59391 
L 134.595058 126.339114 
L 134.595058 126.339114 
L 134.771693 124.755338 
L 134.771693 124.755338 
L 134.948327 121.952362 
L 134.948327 121.952362 
L 135.124962 121.895685 
L 135.124962 121.895685 
L 135.301597 120.18292 
L 135.478231 116.981138 
L 135.654866 117.075563 
L 135.654866 117.075563 
L 135.831501 115.540869 
L 135.831501 115.540869 
L 136.008135 111.700004 
L 136.18477 111.861381 
L 136.18477 111.861381 
L 136.361405 109.966578 
L 136.361405 109.966578 
L 136.538039 106.117672 
L 136.538039 106.117672 
L 136.714674 106.237281 
L 136.714674 106.237281 
L 136.891309 104.09483 
L 136.891309 104.09483 
L 137.067943 100.243411 
L 137.067943 100.243411 
L 137.244578 99.929649 
L 137.244578 99.929649 
L 138.127752 87.476265 
L 138.127752 87.476265 
L 138.304386 82.123043 
L 138.481021 83.775446 
L 138.481021 83.775446 
L 138.83429 75.094747 
L 138.83429 75.094747 
L 139.010925 75.231833 
L 139.010925 75.231833 
L 139.18756 72.700795 
L 139.18756 72.700795 
L 139.540829 61.920977 
L 139.540829 61.920977 
L 139.717464 63.020457 
L 139.717464 63.020457 
L 139.894098 60.280803 
L 139.894098 60.280803 
L 140.070733 54.986882 
L 140.070733 54.986882 
L 140.424002 53.568 
L 140.424002 53.568 
L 150.668814 53.568 
L 150.668814 53.568 
L 150.845449 56.538606 
L 150.845449 56.538606 
L 151.022083 65.40983 
L 151.022083 65.40983 
L 151.198718 66.202192 
L 151.198718 66.202192 
L 151.728622 87.603803 
L 151.728622 87.603803 
L 151.905257 95.981963 
L 151.905257 95.981963 
L 152.081891 95.106623 
L 152.081891 95.106623 
L 152.435161 108.71326 
L 152.435161 108.71326 
L 152.611795 118.766439 
L 152.611795 118.766439 
L 152.78843 116.349928 
L 152.78843 116.349928 
L 153.141699 131.637391 
L 153.318334 131.018298 
L 153.494969 135.909393 
L 153.494969 135.909393 
L 153.671604 145.115597 
L 153.671604 145.115597 
L 153.848238 145.13637 
L 153.848238 145.13637 
L 154.024873 150.107594 
L 154.024873 150.107594 
L 154.201508 159.289509 
L 154.201508 159.289509 
L 154.378142 157.970803 
L 154.378142 157.970803 
L 154.731412 172.962483 
L 154.731412 172.962483 
L 154.908046 171.012177 
L 154.908046 171.012177 
L 155.084681 178.342118 
L 155.084681 178.342118 
L 155.261316 178.652586 
L 155.261316 178.652586 
L 155.43795 183.243543 
L 155.43795 183.243543 
L 155.614585 191.426209 
L 155.614585 191.426209 
L 155.79122 189.10161 
L 155.79122 189.10161 
L 155.967854 196.471589 
L 155.967854 196.471589 
L 156.144489 195.672916 
L 156.321124 201.174057 
L 156.321124 201.174057 
L 156.497758 201.928617 
L 156.497758 201.928617 
L 156.851028 207.525746 
L 156.851028 207.525746 
L 157.557567 221.076097 
L 157.557567 221.076097 
L 157.734201 219.442792 
L 157.734201 219.442792 
L 157.910836 224.795009 
L 157.910836 224.795009 
L 158.087471 223.96166 
L 158.087471 223.96166 
L 158.264105 228.271577 
L 158.264105 228.271577 
L 158.44074 227.458442 
L 158.44074 227.458442 
L 158.617375 231.483019 
L 158.617375 231.483019 
L 158.794009 230.616725 
L 158.794009 230.616725 
L 158.970644 234.540177 
L 158.970644 234.540177 
L 159.147279 234.001325 
L 159.147279 234.001325 
L 159.323913 237.1055 
L 159.323913 237.1055 
L 159.500548 236.736903 
L 159.500548 236.736903 
L 159.677183 239.431439 
L 159.677183 239.431439 
L 159.853817 238.599821 
L 159.853817 238.599821 
L 160.560356 242.946201 
L 160.560356 242.946201 
L 160.736991 243.237739 
L 160.736991 243.237739 
L 161.266895 245.476569 
L 161.266895 245.476569 
L 161.44353 245.529337 
L 161.44353 245.529337 
L 161.796799 246.276358 
L 161.796799 246.276358 
L 162.503338 247.452952 
L 162.503338 247.452952 
L 162.679972 247.030806 
L 162.856607 247.214462 
L 162.856607 247.214462 
L 163.033242 247.043034 
L 163.033242 247.043034 
L 163.563146 247.501421 
L 163.563146 247.501421 
L 163.73978 246.986246 
L 163.73978 246.986246 
L 163.916415 247.485953 
L 163.916415 247.485953 
L 164.09305 246.891765 
L 164.09305 246.891765 
L 164.269684 247.150079 
L 164.269684 247.150079 
L 164.446319 247.043984 
L 164.446319 247.043984 
L 164.622954 247.455688 
L 164.622954 247.455688 
L 164.799588 246.254916 
L 164.799588 246.254916 
L 164.976223 247.323125 
L 164.976223 247.323125 
L 165.152858 246.585095 
L 165.152858 246.585095 
L 165.682762 245.8651 
L 165.682762 245.8651 
L 166.389301 243.328255 
L 166.389301 243.328255 
L 166.919205 241.812603 
L 166.919205 241.812603 
L 167.095839 240.018033 
L 167.095839 240.018033 
L 167.272474 240.157687 
L 167.272474 240.157687 
L 167.449109 237.949123 
L 167.449109 237.949123 
L 167.625743 238.307557 
L 167.625743 238.307557 
L 167.802378 235.268156 
L 167.802378 235.268156 
L 167.979013 236.172868 
L 167.979013 236.172868 
L 168.155647 232.762917 
L 168.155647 232.762917 
L 168.332282 234.332844 
L 168.332282 234.332844 
L 168.508917 230.057995 
L 168.508917 230.057995 
L 168.685551 231.256757 
L 168.685551 231.256757 
L 168.862186 227.189519 
L 168.862186 227.189519 
L 169.038821 229.048305 
L 169.038821 229.048305 
L 170.628533 215.333003 
L 170.628533 215.333003 
L 170.805168 212.675489 
L 170.805168 212.675489 
L 170.981802 211.938575 
L 170.981802 211.938575 
L 171.158437 209.201825 
L 171.158437 209.201825 
L 171.335072 208.427666 
L 171.335072 208.427666 
L 171.511706 205.669641 
L 171.511706 205.669641 
L 171.688341 204.81055 
L 171.688341 204.81055 
L 172.04161 201.098004 
L 172.04161 201.098004 
L 172.571514 194.947617 
L 172.571514 194.947617 
L 172.924784 191.222172 
L 172.924784 191.222172 
L 173.101419 185.542958 
L 173.101419 185.542958 
L 173.278053 187.259353 
L 173.278053 187.259353 
L 173.454688 181.994692 
L 173.454688 181.994692 
L 173.631323 183.152022 
L 173.631323 183.152022 
L 173.807957 178.744888 
L 173.807957 178.744888 
L 173.984592 179.261348 
L 173.984592 179.261348 
L 174.161227 175.372014 
L 174.161227 175.372014 
L 174.337861 175.142793 
L 174.337861 175.142793 
L 174.514496 172.09524 
L 174.514496 172.09524 
L 174.691131 171.308294 
L 174.691131 171.308294 
L 174.867765 168.439148 
L 174.867765 168.439148 
L 175.0444 163.027796 
L 175.0444 163.027796 
L 175.221035 165.017637 
L 175.221035 165.017637 
L 175.397669 160.463814 
L 175.397669 160.463814 
L 175.574304 161.276502 
L 175.574304 161.276502 
L 175.927573 156.90142 
L 175.927573 156.90142 
L 176.104208 155.113774 
L 176.104208 155.113774 
L 176.280843 150.365628 
L 176.280843 150.365628 
L 176.457477 151.794897 
L 176.457477 151.794897 
L 176.634112 148.477192 
L 176.634112 148.477192 
L 176.810747 148.601435 
L 176.810747 148.601435 
L 177.164016 141.447779 
L 177.164016 141.447779 
L 177.340651 143.060983 
L 177.340651 143.060983 
L 177.517286 139.72848 
L 177.517286 139.72848 
L 177.69392 139.836418 
L 177.69392 139.836418 
L 177.870555 137.93525 
L 177.870555 137.93525 
L 178.04719 132.958833 
L 178.04719 132.958833 
L 178.223824 134.41295 
L 178.223824 134.41295 
L 178.400459 131.066711 
L 178.400459 131.066711 
L 178.577094 130.16038 
L 178.577094 130.16038 
L 178.753728 128.30165 
L 178.753728 128.30165 
L 178.930363 123.085402 
L 178.930363 123.085402 
L 179.106998 123.276429 
L 179.106998 123.276429 
L 179.283632 120.650185 
L 179.283632 120.650185 
L 179.460267 113.872664 
L 179.460267 113.872664 
L 179.636902 114.726283 
L 179.636902 114.726283 
L 179.813536 110.281346 
L 179.813536 110.281346 
L 179.990171 102.796282 
L 179.990171 102.796282 
L 180.166806 104.330585 
L 180.166806 104.330585 
L 180.520075 88.946073 
L 180.520075 88.946073 
L 180.69671 90.584683 
L 180.69671 90.584683 
L 181.049979 73.50198 
L 181.049979 73.50198 
L 181.226614 74.949564 
L 181.226614 74.949564 
L 181.579883 55.583695 
L 181.756518 55.933808 
L 181.933153 56.359361 
L 181.933153 56.359361 
L 182.286422 75.98427 
L 182.286422 75.98427 
L 182.463057 75.174094 
L 182.816326 91.072832 
L 182.816326 91.072832 
L 182.992961 101.747169 
L 182.992961 101.747169 
L 183.169595 99.780614 
L 183.169595 99.780614 
L 183.34623 105.653311 
L 183.34623 105.653311 
L 183.522865 116.061517 
L 183.522865 116.061517 
L 183.699499 116.829645 
L 183.699499 116.829645 
L 184.052769 130.945539 
L 184.052769 130.945539 
L 184.229404 142.413579 
L 184.229404 142.413579 
L 184.406038 139.228214 
L 184.406038 139.228214 
L 184.759308 158.887408 
L 184.759308 158.887408 
L 184.935942 155.004384 
L 184.935942 155.004384 
L 185.112577 164.791934 
L 185.112577 164.791934 
L 185.289212 165.623608 
L 185.289212 165.623608 
L 185.465846 171.40713 
L 185.465846 171.40713 
L 185.642481 182.016246 
L 185.642481 182.016246 
L 185.819116 181.017892 
L 185.99575 188.980439 
L 185.99575 188.980439 
L 186.172385 190.858489 
L 186.172385 190.858489 
L 186.34902 195.347372 
L 186.34902 195.347372 
L 186.525654 206.703286 
L 186.525654 206.703286 
L 186.702289 203.506027 
L 186.702289 203.506027 
L 186.878924 212.996455 
L 186.878924 212.996455 
L 187.055558 211.434289 
L 187.055558 211.434289 
L 187.232193 219.293253 
L 187.232193 219.293253 
L 187.408828 218.831628 
L 187.408828 218.831628 
L 187.585462 225.595133 
L 187.762097 225.66577 
L 187.762097 225.66577 
L 187.938732 231.716652 
L 187.938732 231.716652 
L 188.115367 231.938669 
L 188.115367 231.938669 
L 188.292001 237.712084 
L 188.292001 237.712084 
L 188.468636 237.756421 
L 188.468636 237.756421 
L 188.645271 243.445071 
L 188.645271 243.445071 
L 188.821905 243.298157 
L 188.821905 243.298157 
L 188.99854 248.375254 
L 188.99854 248.375254 
L 189.175175 247.605618 
L 189.175175 247.605618 
L 189.351809 253.21062 
L 189.351809 253.21062 
L 189.528444 252.026711 
L 189.528444 252.026711 
L 189.705079 257.610774 
L 189.705079 257.610774 
L 189.881713 256.190663 
L 189.881713 256.190663 
L 190.941521 266.494059 
L 190.941521 266.494059 
L 191.118156 266.30158 
L 191.118156 266.30158 
L 191.294791 268.407679 
L 191.294791 268.407679 
L 191.471425 268.261826 
L 191.471425 268.261826 
L 191.64806 268.631539 
L 191.64806 268.631539 
L 191.824695 270.135912 
L 191.824695 270.135912 
L 192.354599 271.459699 
L 192.354599 271.459699 
L 192.531234 272.78505 
L 192.531234 272.78505 
L 192.707868 272.691016 
L 192.707868 272.691016 
L 192.884503 272.88115 
L 192.884503 272.88115 
L 193.061138 273.454175 
L 193.061138 273.454175 
L 193.237772 273.370974 
L 193.237772 273.370974 
L 193.414407 273.640902 
L 193.414407 273.640902 
L 193.591042 274.148986 
L 193.591042 274.148986 
L 193.767676 273.92278 
L 193.767676 273.92278 
L 193.944311 274.378877 
L 193.944311 274.378877 
L 194.120946 274.252959 
L 194.120946 274.252959 
L 194.474215 274.693645 
L 194.474215 274.693645 
L 194.65085 274.160265 
L 194.65085 274.160265 
L 194.827484 274.675608 
L 194.827484 274.675608 
L 195.004119 274.172048 
L 195.004119 274.172048 
L 195.180754 274.623566 
L 195.180754 274.623566 
L 195.357388 274.768414 
L 195.357388 274.768414 
L 195.534023 274.559406 
L 195.534023 274.559406 
L 195.710658 274.712407 
L 195.710658 274.712407 
L 195.887293 273.750738 
L 196.063927 274.605865 
L 196.063927 274.605865 
L 196.240562 274.037642 
L 196.593831 274.450352 
L 196.593831 274.450352 
L 196.770466 273.73287 
L 196.770466 273.73287 
L 196.947101 274.033175 
L 196.947101 274.033175 
L 197.123735 273.874535 
L 197.123735 273.874535 
L 197.653639 271.921994 
L 197.653639 271.921994 
L 197.830274 272.19706 
L 197.830274 272.19706 
L 198.006909 269.626767 
L 198.006909 269.626767 
L 198.183543 270.861993 
L 198.183543 270.861993 
L 198.713447 268.113516 
L 198.713447 268.113516 
L 198.890082 265.377771 
L 198.890082 265.377771 
L 199.066717 266.403878 
L 199.066717 266.403878 
L 199.596621 262.763253 
L 199.596621 262.763253 
L 199.773256 259.436223 
L 199.773256 259.436223 
L 199.94989 259.653495 
L 199.94989 259.653495 
L 200.126525 255.03043 
L 200.126525 255.03043 
L 200.30316 256.600302 
L 200.30316 256.600302 
L 200.833064 250.910256 
L 200.833064 250.910256 
L 201.009698 246.781315 
L 201.009698 246.781315 
L 201.186333 246.726257 
L 201.186333 246.726257 
L 201.362968 240.824802 
L 201.362968 240.824802 
L 201.539602 242.189576 
L 201.539602 242.189576 
L 201.716237 234.743321 
L 201.716237 234.743321 
L 201.892872 237.77496 
L 201.892872 237.77496 
L 202.776045 223.663365 
L 202.776045 223.663365 
L 202.95268 216.814537 
L 202.95268 216.814537 
L 203.129314 217.406995 
L 203.129314 217.406995 
L 203.305949 209.022245 
L 203.305949 209.022245 
L 203.482584 210.606635 
L 203.482584 210.606635 
L 203.659219 200.700929 
L 203.659219 200.700929 
L 203.835853 203.576999 
L 203.835853 203.576999 
L 204.012488 192.225943 
L 204.012488 192.225943 
L 204.189123 195.423481 
L 204.189123 195.423481 
L 204.365757 183.196638 
L 204.365757 183.196638 
L 204.542392 186.873949 
L 204.542392 186.873949 
L 204.719027 173.986803 
L 204.719027 173.986803 
L 204.895661 176.722772 
L 204.895661 176.722772 
L 205.072296 165.009373 
L 205.072296 165.009373 
L 205.248931 167.221623 
L 205.248931 167.221623 
L 205.425565 155.587628 
L 205.425565 155.587628 
L 205.6022 156.748867 
L 205.6022 156.748867 
L 205.778835 146.42978 
L 205.778835 146.42978 
L 205.955469 145.903884 
L 205.955469 145.903884 
L 206.132104 137.949489 
L 206.132104 137.949489 
L 206.308739 135.21581 
L 206.308739 135.21581 
L 206.485373 129.295817 
L 206.485373 129.295817 
L 206.662008 116.06738 
L 206.838643 117.669918 
L 206.838643 117.669918 
L 207.015277 108.960629 
L 207.015277 108.960629 
L 207.191912 107.19906 
L 207.191912 107.19906 
L 207.368547 100.952964 
L 207.368547 100.952964 
L 207.545182 89.42311 
L 207.545182 89.42311 
L 207.721816 89.907518 
L 207.721816 89.907518 
L 207.898451 83.677894 
L 207.898451 83.677894 
L 208.075086 72.943418 
L 208.075086 72.943418 
L 208.25172 73.988901 
L 208.25172 73.988901 
L 208.60499 58.082178 
L 208.60499 58.082178 
L 208.781624 58.689712 
L 208.781624 58.689712 
L 208.958259 54.087252 
L 208.958259 54.087252 
L 209.134894 53.568 
L 209.134894 53.568 
L 214.787203 53.568 
L 214.787203 53.568 
L 214.963838 53.720274 
L 214.963838 53.720274 
L 215.140473 56.5352 
L 215.140473 56.5352 
L 215.493742 67.721976 
L 215.493742 67.721976 
L 215.670377 67.683335 
L 215.670377 67.683335 
L 216.90682 97.826845 
L 216.90682 97.826845 
L 217.083454 98.879755 
L 217.083454 98.879755 
L 217.436724 107.783756 
L 217.436724 107.783756 
L 217.613358 114.814174 
L 217.613358 114.814174 
L 217.789993 114.667819 
L 217.789993 114.667819 
L 217.966628 118.392202 
L 217.966628 118.392202 
L 218.143262 125.189435 
L 218.143262 125.189435 
L 218.319897 126.521542 
L 218.319897 126.521542 
L 218.496532 129.849465 
L 218.496532 129.849465 
L 218.673166 135.999574 
L 218.673166 135.999574 
L 218.849801 137.702064 
L 218.849801 137.702064 
L 219.026436 140.681214 
L 219.026436 140.681214 
L 219.203071 146.653306 
L 219.203071 146.653306 
L 219.379705 148.050913 
L 219.379705 148.050913 
L 220.262879 167.433813 
L 220.262879 167.433813 
L 220.439513 166.858331 
L 220.439513 166.858331 
L 220.616148 171.232408 
L 220.616148 171.232408 
L 220.792783 172.227245 
L 220.792783 172.227245 
L 221.499321 183.906972 
L 221.499321 183.906972 
L 221.675956 184.628195 
L 221.675956 184.628195 
L 221.852591 186.891538 
L 221.852591 186.891538 
L 222.029225 191.417778 
L 222.029225 191.417778 
L 222.20586 190.277758 
L 222.20586 190.277758 
L 222.382495 193.47887 
L 222.382495 193.47887 
L 222.559129 193.664815 
L 222.559129 193.664815 
L 222.735764 196.181726 
L 222.735764 196.181726 
L 222.912399 196.598679 
L 222.912399 196.598679 
L 223.265668 199.059415 
L 223.265668 199.059415 
L 223.442303 199.97066 
L 223.442303 199.97066 
L 223.618938 201.692583 
L 223.618938 201.692583 
L 223.795572 201.721843 
L 223.795572 201.721843 
L 223.972207 203.188524 
L 223.972207 203.188524 
L 224.148842 203.138882 
L 224.148842 203.138882 
L 224.325476 204.010705 
L 224.502111 204.175822 
L 224.502111 204.175822 
L 224.85538 204.870577 
L 224.85538 204.870577 
L 225.032015 204.9712 
L 225.032015 204.9712 
L 225.20865 205.272398 
L 225.20865 205.272398 
L 225.385284 205.176522 
L 225.385284 205.176522 
L 225.561919 205.443937 
L 225.561919 205.443937 
L 225.915188 205.086062 
L 225.915188 205.086062 
L 226.091823 205.300206 
L 226.268458 205.113256 
L 226.268458 205.113256 
L 226.445092 205.329578 
L 226.445092 205.329578 
L 226.621727 205.086285 
L 226.621727 205.086285 
L 226.798362 205.310313 
L 226.798362 205.310313 
L 226.974997 204.945011 
L 226.974997 204.945011 
L 227.151631 205.152399 
L 227.151631 205.152399 
L 227.328266 204.631137 
L 227.328266 204.631137 
L 227.504901 204.763365 
L 227.504901 204.763365 
L 227.681535 204.094464 
L 227.681535 204.094464 
L 227.85817 204.06526 
L 227.85817 204.06526 
L 228.034805 203.263069 
L 228.034805 203.263069 
L 228.211439 201.156579 
L 228.211439 201.156579 
L 228.388074 201.852507 
L 228.388074 201.852507 
L 228.564709 199.209902 
L 228.564709 199.209902 
L 228.741343 200.131534 
L 228.741343 200.131534 
L 228.917978 197.19968 
L 228.917978 197.19968 
L 229.094613 197.698606 
L 229.094613 197.698606 
L 229.271247 194.443553 
L 229.447882 194.5707 
L 229.447882 194.5707 
L 229.624517 191.04946 
L 229.624517 191.04946 
L 229.801151 190.527081 
L 229.801151 190.527081 
L 230.331055 182.087162 
L 230.331055 182.087162 
L 230.50769 173.380163 
L 230.50769 173.380163 
L 230.684325 176.182357 
L 230.684325 176.182357 
L 230.86096 167.478038 
L 230.86096 167.478038 
L 231.037594 168.706898 
L 231.037594 168.706898 
L 231.214229 160.805775 
L 231.214229 160.805775 
L 231.390864 159.560665 
L 231.390864 159.560665 
L 231.744133 150.02685 
L 231.744133 150.02685 
L 231.920768 144.542852 
L 231.920768 144.542852 
L 232.097402 130.650818 
L 232.097402 130.650818 
L 232.274037 133.123615 
L 232.274037 133.123615 
L 232.450672 120.805698 
L 232.450672 120.805698 
L 232.627306 119.32059 
L 232.627306 119.32059 
L 232.803941 111.646398 
L 232.803941 111.646398 
L 232.980576 97.053579 
L 232.980576 97.053579 
L 233.15721 98.984845 
L 233.15721 98.984845 
L 233.333845 90.1029 
L 233.333845 90.1029 
L 233.51048 87.011904 
L 233.51048 87.011904 
L 234.040384 71.482153 
L 234.040384 71.482153 
L 234.570288 53.946871 
L 234.570288 53.946871 
L 234.746923 55.119724 
L 234.746923 55.119724 
L 234.923557 53.568 
L 234.923557 53.568 
L 241.105771 53.568 
L 241.105771 53.568 
L 241.282406 54.834496 
L 241.282406 54.834496 
L 241.635675 63.057814 
L 241.635675 63.057814 
L 241.81231 62.985781 
L 241.81231 62.985781 
L 242.165579 68.65109 
L 242.165579 68.65109 
L 242.342214 72.898076 
L 242.342214 72.898076 
L 242.518849 73.373661 
L 242.518849 73.373661 
L 242.872118 79.133395 
L 242.872118 79.133395 
L 243.048753 83.722454 
L 243.048753 83.722454 
L 243.225387 83.568728 
L 243.225387 83.568728 
L 244.46183 105.219047 
L 244.46183 105.219047 
L 244.638465 105.474345 
L 244.638465 105.474345 
L 244.991734 112.65285 
L 244.991734 112.65285 
L 245.168369 116.830204 
L 245.168369 116.830204 
L 245.345003 116.336136 
L 245.345003 116.336136 
L 245.698273 123.846718 
L 245.698273 123.846718 
L 245.874908 123.517879 
L 245.874908 123.517879 
L 246.051542 125.845381 
L 246.051542 125.845381 
L 246.228177 129.793291 
L 246.228177 129.793291 
L 246.404812 129.799992 
L 246.404812 129.799992 
L 246.758081 134.908358 
L 246.758081 134.908358 
L 246.934716 135.02227 
L 246.934716 135.02227 
L 247.287985 139.083757 
L 247.287985 139.083757 
L 247.46462 139.145795 
L 247.46462 139.145795 
L 247.817889 142.194297 
L 247.817889 142.194297 
L 247.994524 142.199379 
L 247.994524 142.199379 
L 248.524428 144.689319 
L 248.524428 144.689319 
L 248.701062 144.833105 
L 248.701062 144.833105 
L 249.230966 146.2545 
L 249.230966 146.2545 
L 249.407601 145.908072 
L 249.407601 145.908072 
L 249.584236 146.175766 
L 249.584236 146.175766 
L 249.760871 145.747254 
L 249.760871 145.747254 
L 250.11414 146.195589 
L 250.11414 146.195589 
L 250.290775 145.7104 
L 250.290775 145.7104 
L 250.644044 146.244784 
L 250.644044 146.244784 
L 250.820679 145.466214 
L 250.820679 145.466214 
L 250.997313 146.242941 
L 250.997313 146.242941 
L 251.350583 145.544166 
L 251.350583 145.544166 
L 251.527217 145.498545 
L 251.527217 145.498545 
L 251.703852 144.009249 
L 251.703852 144.009249 
L 251.880487 144.225851 
L 251.880487 144.225851 
L 252.057121 143.843908 
L 252.057121 143.843908 
L 252.233756 141.435829 
L 252.233756 141.435829 
L 252.410391 141.881317 
L 252.410391 141.881317 
L 252.587025 140.363487 
L 252.587025 140.363487 
L 252.76366 137.542587 
L 252.76366 137.542587 
L 252.940295 138.42675 
L 252.940295 138.42675 
L 253.116929 136.012417 
L 253.116929 136.012417 
L 253.293564 135.669785 
L 253.293564 135.669785 
L 253.470199 134.335947 
L 253.470199 134.335947 
L 253.646834 130.517864 
L 253.646834 130.517864 
L 253.823468 130.48531 
L 253.823468 130.48531 
L 254.000103 128.853679 
L 254.000103 128.853679 
L 254.176738 124.079457 
L 254.176738 124.079457 
L 254.353372 124.439007 
L 254.353372 124.439007 
L 254.530007 122.245241 
L 254.530007 122.245241 
L 254.706642 116.922562 
L 254.706642 116.922562 
L 254.883276 117.623795 
L 254.883276 117.623795 
L 255.059911 114.857785 
L 255.059911 114.857785 
L 255.236546 109.20945 
L 255.236546 109.20945 
L 255.41318 110.127284 
L 255.41318 110.127284 
L 255.76645 101.020251 
L 255.76645 101.020251 
L 255.943084 102.007996 
L 255.943084 102.007996 
L 256.296354 92.331287 
L 256.296354 92.331287 
L 256.472988 93.136158 
L 256.472988 93.136158 
L 257.356162 74.108788 
L 257.356162 74.108788 
L 257.532797 72.624574 
L 257.532797 72.624574 
L 257.886066 64.635168 
L 257.886066 64.635168 
L 258.062701 56.596735 
L 258.062701 56.596735 
L 258.239335 57.013354 
L 258.239335 57.013354 
L 258.41597 53.568 
L 258.41597 53.568 
L 276.256073 53.568 
L 276.256073 53.568 
L 276.432707 56.61438 
L 276.432707 56.61438 
L 276.785977 77.264558 
L 276.785977 77.264558 
L 276.962612 77.039134 
L 276.962612 77.039134 
L 277.315881 91.920532 
L 277.315881 91.920532 
L 277.492516 103.402197 
L 277.492516 103.402197 
L 277.66915 104.262069 
L 277.66915 104.262069 
L 278.02242 119.816724 
L 278.02242 119.816724 
L 278.199054 132.586327 
L 278.199054 132.586327 
L 278.375689 131.125622 
L 278.375689 131.125622 
L 278.552324 138.036041 
L 278.552324 138.036041 
L 278.728958 151.929246 
L 278.728958 151.929246 
L 278.905593 151.038327 
L 278.905593 151.038327 
L 279.082228 158.310083 
L 279.082228 158.310083 
L 279.258862 172.290176 
L 279.258862 172.290176 
L 279.435497 169.836364 
L 279.435497 169.836364 
L 279.612132 179.249119 
L 279.612132 179.249119 
L 279.788766 182.08465 
L 279.788766 182.08465 
L 279.965401 188.22292 
L 279.965401 188.22292 
L 280.142036 200.708188 
L 280.142036 200.708188 
L 280.31867 198.821874 
L 280.31867 198.821874 
L 280.495305 208.584352 
L 280.495305 208.584352 
L 280.67194 208.86031 
L 280.67194 208.86031 
L 280.848575 216.176794 
L 280.848575 216.176794 
L 281.025209 218.260278 
L 281.025209 218.260278 
L 281.555113 231.957208 
L 281.555113 231.957208 
L 281.731748 234.444859 
L 281.731748 234.444859 
L 282.261652 246.834474 
L 282.261652 246.834474 
L 282.438287 247.661457 
L 282.438287 247.661457 
L 282.614921 253.052148 
L 282.614921 253.052148 
L 282.791556 253.621543 
L 282.968191 259.955922 
L 282.968191 259.955922 
L 283.144825 259.396466 
L 283.144825 259.396466 
L 283.32146 265.444276 
L 283.32146 265.444276 
L 283.498095 264.499248 
L 283.674729 266.043211 
L 283.674729 266.043211 
L 283.851364 269.865425 
L 283.851364 269.865425 
L 284.027999 270.776335 
L 284.027999 270.776335 
L 284.204633 275.320834 
L 284.204633 275.320834 
L 284.381268 275.044931 
L 284.381268 275.044931 
L 284.557903 279.852601 
L 284.557903 279.852601 
L 284.734538 278.578399 
L 284.734538 278.578399 
L 284.911172 280.023694 
L 284.911172 280.023694 
L 285.087807 283.141549 
L 285.087807 283.141549 
L 285.264442 283.529354 
L 285.264442 283.529354 
L 285.441076 286.97884 
L 285.441076 286.97884 
L 285.617711 286.258231 
L 285.617711 286.258231 
L 286.32425 291.857762 
L 286.32425 291.857762 
L 286.500884 291.616758 
L 286.500884 291.616758 
L 287.030788 293.709456 
L 287.030788 293.709456 
L 287.207423 294.493833 
L 287.207423 294.493833 
L 287.384058 294.457482 
L 287.384058 294.457482 
L 287.560692 294.558495 
L 287.560692 294.558495 
L 287.913962 295.235103 
L 287.913962 295.235103 
L 288.090596 295.210757 
L 288.090596 295.210757 
L 288.267231 295.311826 
L 288.267231 295.311826 
L 288.443866 295.153242 
L 288.443866 295.153242 
L 288.797135 295.423896 
L 288.797135 295.423896 
L 288.97377 295.226001 
L 288.97377 295.226001 
L 289.327039 295.488 
L 289.327039 295.488 
L 289.503674 295.222036 
L 289.503674 295.222036 
L 289.680309 295.350858 
L 289.680309 295.350858 
L 289.856943 294.738355 
L 289.856943 294.738355 
L 290.033578 295.016044 
L 290.033578 295.016044 
L 290.210213 295.017775 
L 290.210213 295.017775 
L 290.386847 294.096926 
L 290.386847 294.096926 
L 290.563482 294.273714 
L 290.563482 294.273714 
L 290.740117 292.433132 
L 290.740117 292.433132 
L 290.916751 293.091368 
L 290.916751 293.091368 
L 291.093386 292.780845 
L 291.093386 292.780845 
L 291.270021 290.805131 
L 291.270021 290.805131 
L 291.446655 291.076958 
L 291.446655 291.076958 
L 291.62329 287.660138 
L 291.62329 287.660138 
L 291.799925 288.673178 
L 291.799925 288.673178 
L 291.97656 288.15817 
L 291.97656 288.15817 
L 292.153194 285.224362 
L 292.153194 285.224362 
L 292.329829 285.522769 
L 292.329829 285.522769 
L 292.506464 280.900709 
L 292.506464 280.900709 
L 292.683098 282.512126 
L 292.683098 282.512126 
L 292.859733 280.980894 
L 292.859733 280.980894 
L 293.036368 278.006324 
L 293.036368 278.006324 
L 293.213002 277.983988 
L 293.213002 277.983988 
L 293.389637 272.929842 
L 293.389637 272.929842 
L 293.566272 274.120564 
L 293.566272 274.120564 
L 293.742906 272.856469 
L 293.742906 272.856469 
L 293.919541 269.132587 
L 293.919541 269.132587 
L 294.096176 268.833846 
L 294.096176 268.833846 
L 294.27281 262.273094 
L 294.27281 262.273094 
L 294.449445 264.930273 
L 294.449445 264.930273 
L 294.802714 258.421117 
L 294.979349 258.538268 
L 295.155984 251.464965 
L 295.155984 251.464965 
L 295.332618 253.759132 
L 295.332618 253.759132 
L 295.509253 251.282705 
L 295.509253 251.282705 
L 295.685888 246.469842 
L 295.685888 246.469842 
L 295.862523 245.631802 
L 295.862523 245.631802 
L 296.039157 238.836078 
L 296.039157 238.836078 
L 296.215792 240.352176 
L 296.215792 240.352176 
L 296.392427 230.220153 
L 296.392427 230.220153 
L 296.569061 233.802313 
L 297.098965 224.463713 
L 297.098965 224.463713 
L 297.2756 217.370252 
L 297.2756 217.370252 
L 297.452235 217.540339 
L 297.452235 217.540339 
L 297.628869 210.170975 
L 297.628869 210.170975 
L 297.805504 211.354159 
L 297.805504 211.354159 
L 297.982139 202.601427 
L 297.982139 202.601427 
L 298.158773 204.871136 
L 298.158773 204.871136 
L 298.335408 196.040172 
L 298.335408 196.040172 
L 298.512043 198.614709 
L 298.512043 198.614709 
L 298.688677 190.145586 
L 298.688677 190.145586 
L 298.865312 192.708731 
L 298.865312 192.708731 
L 299.041947 184.978253 
L 299.041947 184.978253 
L 299.218581 187.286882 
L 299.218581 187.286882 
L 299.395216 180.496295 
L 299.395216 180.496295 
L 299.571851 182.004576 
L 299.571851 182.004576 
L 299.748486 176.538948 
L 299.748486 176.538948 
L 299.92512 177.584934 
L 299.92512 177.584934 
L 300.101755 172.95958 
L 300.101755 172.95958 
L 300.27839 173.371452 
L 300.27839 173.371452 
L 300.455024 169.473407 
L 300.455024 169.473407 
L 300.631659 169.383617 
L 300.631659 169.383617 
L 300.808294 165.9979 
L 300.808294 165.9979 
L 300.984928 165.179237 
L 300.984928 165.179237 
L 301.161563 162.534343 
L 301.161563 162.534343 
L 301.338198 156.209904 
L 301.338198 156.209904 
L 301.514832 157.972422 
L 301.691467 152.055723 
L 301.691467 152.055723 
L 301.868102 152.500652 
L 302.044736 147.531829 
L 302.044736 147.531829 
L 302.221371 145.765234 
L 302.221371 145.765234 
L 302.751275 136.512683 
L 302.751275 136.512683 
L 302.92791 143.698781 
L 302.92791 143.698781 
L 303.104544 145.804154 
L 303.104544 145.804154 
L 303.281179 151.789592 
L 303.281179 151.789592 
L 303.457814 167.395619 
L 303.457814 167.395619 
L 303.634449 165.548671 
L 303.634449 165.548671 
L 303.811083 175.619607 
L 303.811083 175.619607 
L 303.987718 177.587782 
L 303.987718 177.587782 
L 304.164353 182.720382 
L 304.164353 182.720382 
L 304.340987 193.912743 
L 304.340987 193.912743 
L 304.517622 191.856174 
L 304.517622 191.856174 
L 304.694257 200.053805 
L 304.694257 200.053805 
L 304.870891 200.152976 
L 304.870891 200.152976 
L 305.047526 205.556231 
L 305.047526 205.556231 
L 305.224161 207.489674 
L 305.224161 207.489674 
L 305.754065 216.858986 
L 305.754065 216.858986 
L 305.930699 224.297702 
L 305.930699 224.297702 
L 306.107334 222.237503 
L 306.107334 222.237503 
L 306.283969 228.202783 
L 306.283969 228.202783 
L 306.460603 227.527851 
L 306.460603 227.527851 
L 306.637238 232.389741 
L 306.637238 232.389741 
L 306.813873 231.924542 
L 306.813873 231.924542 
L 306.990507 236.184929 
L 306.990507 236.184929 
L 307.167142 235.70873 
L 307.167142 235.70873 
L 307.343777 239.815782 
L 307.343777 239.815782 
L 307.520412 239.000916 
L 307.520412 239.000916 
L 307.697046 243.118187 
L 307.697046 243.118187 
L 307.873681 242.857249 
L 307.873681 242.857249 
L 308.050316 246.257819 
L 308.050316 246.257819 
L 308.22695 245.878948 
L 308.22695 245.878948 
L 308.403585 246.640208 
L 308.403585 246.640208 
L 308.933489 251.152934 
L 308.933489 251.152934 
L 309.110124 251.536775 
L 309.110124 251.536775 
L 309.640028 255.19605 
L 309.640028 255.19605 
L 309.816662 255.211964 
L 309.816662 255.211964 
L 309.993297 257.118828 
L 309.993297 257.118828 
L 310.169932 257.023398 
L 310.169932 257.023398 
L 310.523201 258.328312 
L 310.523201 258.328312 
L 310.699836 258.321388 
L 310.699836 258.321388 
L 310.87647 259.489383 
L 310.87647 259.489383 
L 311.406375 259.79153 
L 311.406375 259.79153 
L 311.583009 260.555582 
L 311.583009 260.555582 
L 311.759644 260.793179 
L 311.759644 260.793179 
L 311.936279 260.828693 
L 311.936279 260.828693 
L 312.112913 261.39351 
L 312.112913 261.39351 
L 312.289548 261.155522 
L 312.289548 261.155522 
L 312.819452 261.39217 
L 312.819452 261.39217 
L 312.996087 261.567394 
L 312.996087 261.567394 
L 313.172721 261.48598 
L 313.172721 261.48598 
L 313.349356 261.706044 
L 313.349356 261.706044 
L 313.525991 261.022903 
L 313.525991 261.022903 
L 313.702625 261.675667 
L 313.702625 261.675667 
L 313.87926 261.387703 
L 313.87926 261.387703 
L 314.055895 261.573537 
L 314.055895 261.573537 
L 314.232529 261.58638 
L 314.232529 261.58638 
L 314.409164 260.625884 
L 314.409164 260.625884 
L 314.585799 261.147202 
L 314.585799 261.147202 
L 314.762433 260.430446 
L 314.762433 260.430446 
L 314.939068 261.166076 
L 314.939068 261.166076 
L 315.115703 260.655535 
L 315.115703 260.655535 
L 315.468972 260.193128 
L 315.468972 260.193128 
L 315.645607 258.82171 
L 315.645607 258.82171 
L 315.822242 258.91753 
L 315.822242 258.91753 
L 315.998876 257.451464 
L 315.998876 257.451464 
L 316.175511 258.180337 
L 316.175511 258.180337 
L 316.352146 254.735151 
L 316.352146 254.735151 
L 316.52878 256.706621 
L 316.52878 256.706621 
L 316.88205 253.872039 
L 316.88205 253.872039 
L 317.058684 253.651697 
L 317.058684 253.651697 
L 317.235319 251.21486 
L 317.235319 251.21486 
L 317.411954 251.73065 
L 317.411954 251.73065 
L 317.588588 247.347695 
L 317.588588 247.347695 
L 317.765223 248.729946 
L 318.648396 240.974452 
L 318.648396 240.974452 
L 318.825031 237.463431 
L 318.825031 237.463431 
L 319.001666 237.961854 
L 319.001666 237.961854 
L 319.178301 232.770399 
L 319.178301 232.770399 
L 319.354935 234.25707 
L 319.354935 234.25707 
L 319.53157 228.243099 
L 319.53157 228.243099 
L 319.708205 230.445186 
L 319.708205 230.445186 
L 320.591378 220.005263 
L 320.591378 220.005263 
L 320.768013 216.569737 
L 320.768013 216.569737 
L 320.944647 215.587297 
L 320.944647 215.587297 
L 321.121282 211.724766 
L 321.121282 211.724766 
L 321.297917 211.022807 
L 321.297917 211.022807 
L 321.474551 206.288566 
L 321.474551 206.288566 
L 321.651186 206.313917 
L 321.651186 206.313917 
L 321.827821 201.540197 
L 321.827821 201.540197 
L 322.004455 201.489048 
L 322.004455 201.489048 
L 322.18109 196.625091 
L 322.18109 196.625091 
L 322.357725 196.551048 
L 322.357725 196.551048 
L 322.534359 191.762419 
L 322.534359 191.762419 
L 322.710994 191.493496 
L 322.710994 191.493496 
L 322.887629 187.051128 
L 322.887629 187.051128 
L 323.064264 186.308127 
L 323.064264 186.308127 
L 323.417533 180.708317 
L 323.417533 180.708317 
L 323.770802 175.370283 
L 323.770802 175.370283 
L 323.947437 172.175146 
L 323.947437 172.175146 
L 324.124072 164.498888 
L 324.124072 164.498888 
L 324.300706 165.775547 
L 324.300706 165.775547 
L 324.477341 159.375836 
L 324.653976 159.890286 
L 324.653976 159.890286 
L 324.83061 153.971688 
L 324.83061 153.971688 
L 325.007245 152.930672 
L 325.007245 152.930672 
L 325.18388 148.242778 
L 325.18388 148.242778 
L 325.360514 137.975566 
L 325.360514 137.975566 
L 325.537149 141.289865 
L 325.713784 132.489167 
L 325.713784 132.489167 
L 325.890418 132.667295 
L 325.890418 132.667295 
L 326.243688 123.369681 
L 326.243688 123.369681 
L 326.773592 113.030548 
L 326.773592 113.030548 
L 326.950227 114.580039 
L 326.950227 114.580039 
L 327.126861 124.863779 
L 327.126861 124.863779 
L 327.303496 124.305384 
L 327.303496 124.305384 
L 327.656765 140.580033 
L 327.656765 140.580033 
L 327.8334 138.998155 
L 328.010035 145.951794 
L 328.186669 148.203858 
L 328.186669 148.203858 
L 329.069843 171.390824 
L 329.069843 171.390824 
L 329.246477 170.520566 
L 329.246477 170.520566 
L 329.423112 175.343815 
L 329.423112 175.343815 
L 329.599747 176.672014 
L 329.599747 176.672014 
L 329.776381 179.874522 
L 329.776381 179.874522 
L 329.953016 185.750737 
L 329.953016 185.750737 
L 330.129651 185.136391 
L 330.306285 189.505833 
L 330.306285 189.505833 
L 330.48292 189.903577 
L 330.48292 189.903577 
L 330.83619 194.182783 
L 330.83619 194.182783 
L 331.012824 195.934022 
L 331.012824 195.934022 
L 331.189459 200.274148 
L 331.189459 200.274148 
L 331.366094 199.44521 
L 331.542728 202.631859 
L 331.542728 202.631859 
L 331.719363 202.472773 
L 331.895998 204.652915 
L 331.895998 204.652915 
L 332.072632 205.004648 
L 332.072632 205.004648 
L 332.425902 207.019002 
L 332.425902 207.019002 
L 333.13244 209.672775 
L 333.13244 209.672775 
L 333.309075 209.652673 
L 333.309075 209.652673 
L 333.662344 210.101679 
L 333.662344 210.101679 
L 333.838979 210.093638 
L 333.838979 210.093638 
L 334.015614 210.290695 
L 334.015614 210.290695 
L 334.192248 210.130492 
L 334.192248 210.130492 
L 334.368883 210.342626 
L 334.368883 210.342626 
L 334.545518 210.15562 
L 334.545518 210.15562 
L 334.722153 210.367921 
L 334.722153 210.367921 
L 334.898787 210.159919 
L 334.898787 210.159919 
L 335.075422 210.367363 
L 335.075422 210.367363 
L 335.252057 210.069292 
L 335.252057 210.069292 
L 335.428691 210.237424 
L 335.428691 210.237424 
L 335.605326 209.807963 
L 335.605326 209.807963 
L 335.781961 209.870168 
L 335.781961 209.870168 
L 335.958595 209.711975 
L 335.958595 209.711975 
L 336.13523 207.779592 
L 336.13523 207.779592 
L 336.311865 208.40734 
L 336.311865 208.40734 
L 336.488499 206.372269 
L 336.488499 206.372269 
L 336.665134 207.017495 
L 336.665134 207.017495 
L 336.841769 204.549556 
L 336.841769 204.549556 
L 337.018403 205.074894 
L 337.018403 205.074894 
L 337.195038 202.185534 
L 337.195038 202.185534 
L 337.371673 202.466798 
L 337.371673 202.466798 
L 337.548307 199.050816 
L 337.548307 199.050816 
L 337.724942 199.093924 
L 337.724942 199.093924 
L 337.901577 195.526058 
L 337.901577 195.526058 
L 338.078211 194.823094 
L 338.078211 194.823094 
L 338.608116 185.486951 
L 338.608116 185.486951 
L 338.78475 175.219126 
L 338.78475 175.219126 
L 338.961385 178.756 
L 339.13802 167.774434 
L 339.13802 167.774434 
L 339.314654 169.896057 
L 339.314654 169.896057 
L 339.491289 158.707326 
L 339.491289 158.707326 
L 339.667924 159.158118 
L 339.667924 159.158118 
L 339.844558 153.772732 
L 339.844558 153.772732 
L 340.021193 155.147445 
L 340.021193 155.147445 
L 340.374462 171.86278 
L 340.374462 171.86278 
L 340.551097 170.338696 
L 340.551097 170.338696 
L 340.727732 177.382348 
L 340.727732 177.382348 
L 340.904366 177.47655 
L 340.904366 177.47655 
L 341.081001 181.604486 
L 341.081001 181.604486 
L 341.257636 182.198171 
L 341.257636 182.198171 
L 341.610905 186.544998 
L 341.610905 186.544998 
L 341.78754 186.752275 
L 341.78754 186.752275 
L 341.964174 187.42944 
L 341.964174 187.42944 
L 342.140809 187.651179 
L 342.140809 187.651179 
L 342.494079 188.433881 
L 342.494079 188.433881 
L 342.847348 188.12252 
L 342.847348 188.12252 
L 343.023983 188.341076 
L 343.200617 188.174507 
L 343.200617 188.174507 
L 343.377252 188.396972 
L 343.377252 188.396972 
L 343.907156 187.114059 
L 343.907156 187.114059 
L 344.083791 184.583635 
L 344.083791 184.583635 
L 344.260425 185.538547 
L 344.260425 185.538547 
L 344.43706 181.90708 
L 344.43706 181.90708 
L 344.613695 182.216319 
L 344.613695 182.216319 
L 344.790329 178.742264 
L 344.790329 178.742264 
L 344.966964 177.570416 
L 344.966964 177.570416 
L 345.143599 174.658329 
L 345.143599 174.658329 
L 345.320233 164.80394 
L 345.320233 164.80394 
L 345.496868 167.789678 
L 345.496868 167.789678 
L 345.673503 157.943888 
L 345.673503 157.943888 
L 345.850138 158.829168 
L 345.850138 158.829168 
L 346.026772 150.368811 
L 346.026772 150.368811 
L 346.203407 149.638375 
L 346.203407 149.638375 
L 346.380042 146.242941 
L 346.380042 146.242941 
L 346.556676 158.574874 
L 346.556676 158.574874 
L 346.733311 156.281378 
L 346.733311 156.281378 
L 346.909946 165.582342 
L 346.909946 165.582342 
L 347.08658 166.012809 
L 347.08658 166.012809 
L 347.43985 176.561061 
L 347.43985 176.561061 
L 347.616484 175.801867 
L 347.616484 175.801867 
L 347.793119 180.029867 
L 347.793119 180.029867 
L 347.969754 180.590943 
L 347.969754 180.590943 
L 348.323023 184.562696 
L 348.499658 184.496805 
L 348.676292 185.520678 
L 348.676292 185.520678 
L 349.206196 186.448005 
L 349.206196 186.448005 
L 349.382831 186.413049 
L 349.382831 186.413049 
L 349.559466 185.910885 
L 349.559466 185.910885 
L 349.736101 186.563258 
L 349.736101 186.563258 
L 349.912735 186.380383 
L 349.912735 186.380383 
L 350.08937 186.613904 
L 350.08937 186.613904 
L 350.442639 186.233749 
L 350.442639 186.233749 
L 350.619274 186.433878 
L 350.619274 186.433878 
L 350.795909 185.567695 
L 350.795909 185.567695 
L 350.972543 186.317676 
L 350.972543 186.317676 
L 351.149178 185.308879 
L 351.149178 185.308879 
L 351.325813 186.010949 
L 351.325813 186.010949 
L 351.502447 185.338362 
L 351.679082 185.481144 
L 351.679082 185.481144 
L 351.855717 184.831116 
L 351.855717 184.831116 
L 352.032351 184.776002 
L 352.032351 184.776002 
L 352.208986 184.173606 
L 352.208986 184.173606 
L 352.385621 182.837366 
L 352.385621 182.837366 
L 352.562255 183.297986 
L 352.562255 183.297986 
L 352.73889 182.090289 
L 352.73889 182.090289 
L 352.915525 182.326881 
L 352.915525 182.326881 
L 353.268794 180.853612 
L 353.268794 180.853612 
L 353.445429 180.440567 
L 353.445429 180.440567 
L 353.622064 177.908524 
L 353.622064 177.908524 
L 353.798698 179.337681 
L 353.798698 179.337681 
L 353.975333 177.238282 
L 353.975333 177.238282 
L 354.151968 178.048905 
L 354.151968 178.048905 
L 354.328602 176.603946 
L 354.328602 176.603946 
L 354.505237 176.612545 
L 354.505237 176.612545 
L 354.681872 175.436453 
L 354.681872 175.436453 
L 354.858506 172.544078 
L 354.858506 172.544078 
L 355.035141 173.971838 
L 355.035141 173.971838 
L 355.211776 171.620213 
L 355.211776 171.620213 
L 355.38841 172.14946 
L 355.38841 172.14946 
L 355.565045 170.185138 
L 355.565045 170.185138 
L 355.74168 169.619707 
L 355.74168 169.619707 
L 355.918314 168.484545 
L 355.918314 168.484545 
L 356.094949 165.218101 
L 356.094949 165.218101 
L 356.271584 166.419823 
L 356.271584 166.419823 
L 356.448218 162.916787 
L 356.448218 162.916787 
L 356.624853 163.297613 
L 356.624853 163.297613 
L 356.801488 161.537887 
L 356.801488 161.537887 
L 356.978122 160.910865 
L 357.154757 159.578478 
L 357.154757 159.578478 
L 357.331392 155.799986 
L 357.331392 155.799986 
L 357.508027 156.555829 
L 357.508027 156.555829 
L 357.684661 153.760671 
L 357.684661 153.760671 
L 357.861296 153.288548 
L 357.861296 153.288548 
L 358.037931 151.861122 
L 358.037931 151.861122 
L 358.214565 147.862622 
L 358.214565 147.862622 
L 358.3912 148.691727 
L 358.3912 148.691727 
L 358.567835 145.86703 
L 358.567835 145.86703 
L 358.744469 145.303665 
L 358.744469 145.303665 
L 358.921104 144.00333 
L 358.921104 144.00333 
L 359.097739 140.262697 
L 359.097739 140.262697 
L 359.274373 140.808082 
L 359.274373 140.808082 
L 359.627643 138.113881 
L 359.627643 138.113881 
L 359.804277 137.056392 
L 359.804277 137.056392 
L 359.980912 134.574382 
L 359.980912 134.574382 
L 360.157547 134.238004 
L 360.157547 134.238004 
L 360.334181 132.861002 
L 360.334181 132.861002 
L 360.510816 130.478498 
L 360.510816 130.478498 
L 360.687451 130.93761 
L 360.687451 130.93761 
L 361.04072 127.623144 
L 361.04072 127.623144 
L 361.217355 128.695151 
L 361.217355 128.695151 
L 361.39399 127.377171 
L 361.39399 127.377171 
L 361.570624 126.916383 
L 361.570624 126.916383 
L 361.923894 124.867855 
L 362.100528 124.983945 
L 362.277163 124.226817 
L 362.277163 124.226817 
L 362.453798 122.932346 
L 362.453798 122.932346 
L 362.630432 123.111311 
L 362.630432 123.111311 
L 362.807067 122.769964 
L 362.807067 122.769964 
L 362.983702 120.687597 
L 362.983702 120.687597 
L 363.160336 120.890797 
L 363.160336 120.890797 
L 363.336971 119.823816 
L 363.336971 119.823816 
L 363.513606 117.732012 
L 363.513606 117.732012 
L 363.69024 117.930242 
L 363.69024 117.930242 
L 363.866875 116.854271 
L 363.866875 116.854271 
L 364.04351 113.764056 
L 364.04351 113.764056 
L 364.220144 113.905833 
L 364.220144 113.905833 
L 364.396779 112.073515 
L 364.396779 112.073515 
L 364.573414 108.53329 
L 364.573414 108.53329 
L 364.750048 108.300886 
L 364.750048 108.300886 
L 364.926683 106.074955 
L 364.926683 106.074955 
L 365.103318 101.899444 
L 365.103318 101.899444 
L 365.279953 101.538162 
L 365.279953 101.538162 
L 365.456587 98.684149 
L 365.456587 98.684149 
L 365.633222 93.696117 
L 365.633222 93.696117 
L 365.809857 92.130656 
L 365.809857 92.130656 
L 365.986491 89.128333 
L 365.986491 89.128333 
L 366.339761 76.748266 
L 366.339761 76.748266 
L 366.516395 77.960933 
L 366.516395 77.960933 
L 366.69303 72.858542 
L 366.69303 72.858542 
L 366.869665 64.334975 
L 366.869665 64.334975 
L 367.046299 63.835044 
L 367.046299 63.835044 
L 367.576203 53.568 
L 367.576203 53.568 
L 396.897561 53.568 
L 396.897561 53.568 
L 397.25083 54.027559 
L 397.25083 54.027559 
L 397.427465 53.568 
L 397.427465 53.568 
L 397.957369 53.568 
L 397.957369 53.568 
L 398.134003 53.765895 
L 398.134003 53.765895 
L 398.310638 53.793536 
L 398.310638 53.793536 
L 398.487273 53.568 
L 398.487273 53.568 
" clip-path="url(#p7c7a2b18c6)" style="fill: none; stroke: #ff7f0e; stroke-width: 1.5; stroke-linecap: square"/>
   </g>
   <g id="patch_3">
    <path d="M 57.6 307.584 
L 57.6 41.472 
" style="fill: none; stroke: #000000; stroke-width: 0.8; stroke-linejoin: miter; stroke-linecap: square"/>
   </g>
   <g id="patch_4">
    <path d="M 414.72 307.584 
L 414.72 41.472 
" style="fill: none; stroke: #000000; stroke-width: 0.8; stroke-linejoin: miter; stroke-linecap: square"/>
   </g>
   <g id="patch_5">
    <path d="M 57.6 307.584 
L 414.72 307.584 
" style="fill: none; stroke: #000000; stroke-width: 0.8; stroke-linejoin: miter; stroke-linecap: square"/>
   </g>
   <g id="patch_6">
    <path d="M 57.6 41.472 
L 414.72 41.472 
" style="fill: none; stroke: #000000; stroke-width: 0.8; stroke-linejoin: miter; stroke-linecap: square"/>
   </g>
   <g id="text_16">
    <!-- Actual speed vs Expected speed -->
    <g transform="translate(138.808125 35.472) scale(0.12 -0.12)">
     <defs>
      <path id="DejaVuSans-41" d="M 2188 4044 
L 1331 1722 
L 3047 1722 
L 2188 4044 
z
M 1831 4666 
L 2547 4666 
L 4325 0 
L 3669 0 
L 3244 1197 
L 1141 1197 
L 716 0 
L 50 0 
L 1831 4666 
z
" transform="scale(0.015625)"/>
      <path id="DejaVuSans-75" d="M 544 1381 
L 544 3500 
L 1119 3500 
L 1119 1403 
Q 1119 906 1312 657 
Q 1506 409 1894 409 
Q 2359 409 2629 706 
Q 2900 1003 2900 1516 
L 2900 3500 
L 3475 3500 
L 3475 0 
L 2900 0 
L 2900 538 
Q 2691 219 2414 64 
Q 2138 -91 1772 -91 
Q 1169 -91 856 284 
Q 544 659 544 1381 
z
M 1991 3584 
L 1991 3584 
z
" transform="scale(0.015625)"/>
      <path id="DejaVuSans-61" d="M 2194 1759 
Q 1497 1759 1228 1600 
Q 959 1441 959 1056 
Q 959 750 1161 570 
Q 1363 391 1709 391 
Q 2188 391 2477 730 
Q 2766 1069 2766 1631 
L 2766 1759 
L 2194 1759 
z
M 3341 1997 
L 3341 0 
L 2766 0 
L 2766 531 
Q 2569 213 2275 61 
Q 1981 -91 1556 -91 
Q 1019 -91 701 211 
Q 384 513 384 1019 
Q 384 1609 779 1909 
Q 1175 2209 1959 2209 
L 2766 2209 
L 2766 2266 
Q 2766 2663 2505 2880 
Q 2244 3097 1772 3097 
Q 1472 3097 1187 3025 
Q 903 2953 641 2809 
L 641 3341 
Q 956 3463 1253 3523 
Q 1550 3584 1831 3584 
Q 2591 3584 2966 3190 
Q 3341 2797 3341 1997 
z
" transform="scale(0.015625)"/>
      <path id="DejaVuSans-20" transform="scale(0.015625)"/>
      <path id="DejaVuSans-70" d="M 1159 525 
L 1159 -1331 
L 581 -1331 
L 581 3500 
L 1159 3500 
L 1159 2969 
Q 1341 3281 1617 3432 
Q 1894 3584 2278 3584 
Q 2916 3584 3314 3078 
Q 3713 2572 3713 1747 
Q 3713 922 3314 415 
Q 2916 -91 2278 -91 
Q 1894 -91 1617 61 
Q 1341 213 1159 525 
z
M 3116 1747 
Q 3116 2381 2855 2742 
Q 2594 3103 2138 3103 
Q 1681 3103 1420 2742 
Q 1159 2381 1159 1747 
Q 1159 1113 1420 752 
Q 1681 391 2138 391 
Q 2594 391 2855 752 
Q 3116 1113 3116 1747 
z
" transform="scale(0.015625)"/>
      <path id="DejaVuSans-64" d="M 2906 2969 
L 2906 4863 
L 3481 4863 
L 3481 0 
L 2906 0 
L 2906 525 
Q 2725 213 2448 61 
Q 2172 -91 1784 -91 
Q 1150 -91 751 415 
Q 353 922 353 1747 
Q 353 2572 751 3078 
Q 1150 3584 1784 3584 
Q 2172 3584 2448 3432 
Q 2725 3281 2906 2969 
z
M 947 1747 
Q 947 1113 1208 752 
Q 1469 391 1925 391 
Q 2381 391 2643 752 
Q 2906 1113 2906 1747 
Q 2906 2381 2643 2742 
Q 2381 3103 1925 3103 
Q 1469 3103 1208 2742 
Q 947 2381 947 1747 
z
" transform="scale(0.015625)"/>
      <path id="DejaVuSans-76" d="M 191 3500 
L 800 3500 
L 1894 563 
L 2988 3500 
L 3597 3500 
L 2284 0 
L 1503 0 
L 191 3500 
z
" transform="scale(0.015625)"/>
      <path id="DejaVuSans-45" d="M 628 4666 
L 3578 4666 
L 3578 4134 
L 1259 4134 
L 1259 2753 
L 3481 2753 
L 3481 2222 
L 1259 2222 
L 1259 531 
L 3634 531 
L 3634 0 
L 628 0 
L 628 4666 
z
" transform="scale(0.015625)"/>
      <path id="DejaVuSans-78" d="M 3513 3500 
L 2247 1797 
L 3578 0 
L 2900 0 
L 1881 1375 
L 863 0 
L 184 0 
L 1544 1831 
L 300 3500 
L 978 3500 
L 1906 2253 
L 2834 3500 
L 3513 3500 
z
" transform="scale(0.015625)"/>
     </defs>
     <use xlink:href="#DejaVuSans-41"/>
     <use xlink:href="#DejaVuSans-63" x="66.658203"/>
     <use xlink:href="#DejaVuSans-74" x="121.638672"/>
     <use xlink:href="#DejaVuSans-75" x="160.847656"/>
     <use xlink:href="#DejaVuSans-61" x="224.226562"/>
     <use xlink:href="#DejaVuSans-6c" x="285.505859"/>
     <use xlink:href="#DejaVuSans-20" x="313.289062"/>
     <use xlink:href="#DejaVuSans-73" x="345.076172"/>
     <use xlink:href="#DejaVuSans-70" x="397.175781"/>
     <use xlink:href="#DejaVuSans-65" x="460.652344"/>
     <use xlink:href="#DejaVuSans-65" x="522.175781"/>
     <use xlink:href="#DejaVuSans-64" x="583.699219"/>
     <use xlink:href="#DejaVuSans-20" x="647.175781"/>
     <use xlink:href="#DejaVuSans-76" x="678.962891"/>
     <use xlink:href="#DejaVuSans-73" x="738.142578"/>
     <use xlink:href="#DejaVuSans-20" x="790.242188"/>
     <use xlink:href="#DejaVuSans-45" x="822.029297"/>
     <use xlink:href="#DejaVuSans-78" x="885.212891"/>
     <use xlink:href="#DejaVuSans-70" x="944.392578"/>
     <use xlink:href="#DejaVuSans-65" x="1007.869141"/>
     <use xlink:href="#DejaVuSans-63" x="1069.392578"/>
     <use xlink:href="#DejaVuSans-74" x="1124.373047"/>
     <use xlink:href="#DejaVuSans-65" x="1163.582031"/>
     <use xlink:href="#DejaVuSans-64" x="1225.105469"/>
     <use xlink:href="#DejaVuSans-20" x="1288.582031"/>
     <use xlink:href="#DejaVuSans-73" x="1320.369141"/>
     <use xlink:href="#DejaVuSans-70" x="1372.46875"/>
     <use xlink:href="#DejaVuSans-65" x="1435.945312"/>
     <use xlink:href="#DejaVuSans-65" x="1497.46875"/>
     <use xlink:href="#DejaVuSans-64" x="1558.992188"/>
    </g>
   </g>
   <g id="legend_1">
    <g id="patch_7">
     <path d="M 64.6 302.584 
L 176.65 302.584 
Q 178.65 302.584 178.65 300.584 
L 178.65 272.22775 
Q 178.65 270.22775 176.65 270.22775 
L 64.6 270.22775 
Q 62.6 270.22775 62.6 272.22775 
L 62.6 300.584 
Q 62.6 302.584 64.6 302.584 
z
" style="fill: #ffffff; opacity: 0.8; stroke: #cccccc; stroke-linejoin: miter"/>
    </g>
    <g id="line2d_29">
     <path d="M 66.6 278.326187 
L 76.6 278.326187 
L 86.6 278.326187 
" style="fill: none; stroke: #1f77b4; stroke-width: 1.5; stroke-linecap: square"/>
    </g>
    <g id="text_17">
     <!-- Actual speed -->
     <g transform="translate(94.6 281.826187) scale(0.1 -0.1)">
      <use xlink:href="#DejaVuSans-41"/>
      <use xlink:href="#DejaVuSans-63" x="66.658203"/>
      <use xlink:href="#DejaVuSans-74" x="121.638672"/>
      <use xlink:href="#DejaVuSans-75" x="160.847656"/>
      <use xlink:href="#DejaVuSans-61" x="224.226562"/>
      <use xlink:href="#DejaVuSans-6c" x="285.505859"/>
      <use xlink:href="#DejaVuSans-20" x="313.289062"/>
      <use xlink:href="#DejaVuSans-73" x="345.076172"/>
      <use xlink:href="#DejaVuSans-70" x="397.175781"/>
      <use xlink:href="#DejaVuSans-65" x="460.652344"/>
      <use xlink:href="#DejaVuSans-65" x="522.175781"/>
      <use xlink:href="#DejaVuSans-64" x="583.699219"/>
     </g>
    </g>
    <g id="line2d_30">
     <path d="M 66.6 293.004312 
L 76.6 293.004312 
L 86.6 293.004312 
" style="fill: none; stroke: #ff7f0e; stroke-width: 1.5; stroke-linecap: square"/>
    </g>
    <g id="text_18">
     <!-- Expected speed -->
     <g transform="translate(94.6 296.504312) scale(0.1 -0.1)">
      <use xlink:href="#DejaVuSans-45"/>
      <use xlink:href="#DejaVuSans-78" x="63.183594"/>
      <use xlink:href="#DejaVuSans-70" x="122.363281"/>
      <use xlink:href="#DejaVuSans-65" x="185.839844"/>
      <use xlink:href="#DejaVuSans-63" x="247.363281"/>
      <use xlink:href="#DejaVuSans-74" x="302.34375"/>
      <use xlink:href="#DejaVuSans-65" x="341.552734"/>
      <use xlink:href="#DejaVuSans-64" x="403.076172"/>
      <use xlink:href="#DejaVuSans-20" x="466.552734"/>
      <use xlink:href="#DejaVuSans-73" x="498.339844"/>
      <use xlink:href="#DejaVuSans-70" x="550.439453"/>
      <use xlink:href="#DejaVuSans-65" x="613.916016"/>
      <use xlink:href="#DejaVuSans-65" x="675.439453"/>
      <use xlink:href="#DejaVuSans-64" x="736.962891"/>
     </g>
    </g>
   </g>
  </g>
 </g>
 <defs>
  <clipPath id="p7c7a2b18c6">
   <rect x="57.6" y="41.472" width="357.12" height="266.112"/>
  </clipPath>
 </defs>
</svg>
