<?xml version="1.0" encoding="utf-8" standalone="no"?>
<!DOCTYPE svg PUBLIC "-//W3C//DTD SVG 1.1//EN"
  "http://www.w3.org/Graphics/SVG/1.1/DTD/svg11.dtd">
<svg xmlns:xlink="http://www.w3.org/1999/xlink" width="460.8pt" height="345.6pt" viewBox="0 0 460.8 345.6" xmlns="http://www.w3.org/2000/svg" version="1.1">
 <metadata>
  <rdf:RDF xmlns:dc="http://purl.org/dc/elements/1.1/" xmlns:cc="http://creativecommons.org/ns#" xmlns:rdf="http://www.w3.org/1999/02/22-rdf-syntax-ns#">
   <cc:Work>
    <dc:type rdf:resource="http://purl.org/dc/dcmitype/StillImage"/>
    <dc:date>2024-01-30T20:58:40.890385</dc:date>
    <dc:format>image/svg+xml</dc:format>
    <dc:creator>
     <cc:Agent>
      <dc:title>Matplotlib v3.7.1, https://matplotlib.org/</dc:title>
     </cc:Agent>
    </dc:creator>
   </cc:Work>
  </rdf:RDF>
 </metadata>
 <defs>
  <style type="text/css">*{stroke-linejoin: round; stroke-linecap: butt}</style>
 </defs>
 <g id="figure_1">
  <g id="patch_1">
   <path d="M 0 345.6 
L 460.8 345.6 
L 460.8 0 
L 0 0 
z
" style="fill: #ffffff"/>
  </g>
  <g id="axes_1">
   <g id="patch_2">
    <path d="M 57.6 307.584 
L 414.72 307.584 
L 414.72 41.472 
L 57.6 41.472 
z
" style="fill: #ffffff"/>
   </g>
   <g id="matplotlib.axis_1">
    <g id="xtick_1">
     <g id="line2d_1">
      <path d="M 73.832727 307.584 
L 73.832727 41.472 
" clip-path="url(#p91f1949bcf)" style="fill: none; stroke: #b0b0b0; stroke-width: 0.8; stroke-linecap: square"/>
     </g>
     <g id="line2d_2">
      <defs>
       <path id="mc4a97b4d9f" d="M 0 0 
L 0 3.5 
" style="stroke: #000000; stroke-width: 0.8"/>
      </defs>
      <g>
       <use xlink:href="#mc4a97b4d9f" x="73.832727" y="307.584" style="stroke: #000000; stroke-width: 0.8"/>
      </g>
     </g>
     <g id="text_1">
      <!-- 0 -->
      <g transform="translate(70.651477 322.182437) scale(0.1 -0.1)">
       <defs>
        <path id="DejaVuSans-30" d="M 2034 4250 
Q 1547 4250 1301 3770 
Q 1056 3291 1056 2328 
Q 1056 1369 1301 889 
Q 1547 409 2034 409 
Q 2525 409 2770 889 
Q 3016 1369 3016 2328 
Q 3016 3291 2770 3770 
Q 2525 4250 2034 4250 
z
M 2034 4750 
Q 2819 4750 3233 4129 
Q 3647 3509 3647 2328 
Q 3647 1150 3233 529 
Q 2819 -91 2034 -91 
Q 1250 -91 836 529 
Q 422 1150 422 2328 
Q 422 3509 836 4129 
Q 1250 4750 2034 4750 
z
" transform="scale(0.015625)"/>
       </defs>
       <use xlink:href="#DejaVuSans-30"/>
      </g>
     </g>
    </g>
    <g id="xtick_2">
     <g id="line2d_3">
      <path d="M 118.015436 307.584 
L 118.015436 41.472 
" clip-path="url(#p91f1949bcf)" style="fill: none; stroke: #b0b0b0; stroke-width: 0.8; stroke-linecap: square"/>
     </g>
     <g id="line2d_4">
      <g>
       <use xlink:href="#mc4a97b4d9f" x="118.015436" y="307.584" style="stroke: #000000; stroke-width: 0.8"/>
      </g>
     </g>
     <g id="text_2">
      <!-- 5 -->
      <g transform="translate(114.834186 322.182437) scale(0.1 -0.1)">
       <defs>
        <path id="DejaVuSans-35" d="M 691 4666 
L 3169 4666 
L 3169 4134 
L 1269 4134 
L 1269 2991 
Q 1406 3038 1543 3061 
Q 1681 3084 1819 3084 
Q 2600 3084 3056 2656 
Q 3513 2228 3513 1497 
Q 3513 744 3044 326 
Q 2575 -91 1722 -91 
Q 1428 -91 1123 -41 
Q 819 9 494 109 
L 494 744 
Q 775 591 1075 516 
Q 1375 441 1709 441 
Q 2250 441 2565 725 
Q 2881 1009 2881 1497 
Q 2881 1984 2565 2268 
Q 2250 2553 1709 2553 
Q 1456 2553 1204 2497 
Q 953 2441 691 2322 
L 691 4666 
z
" transform="scale(0.015625)"/>
       </defs>
       <use xlink:href="#DejaVuSans-35"/>
      </g>
     </g>
    </g>
    <g id="xtick_3">
     <g id="line2d_5">
      <path d="M 162.198145 307.584 
L 162.198145 41.472 
" clip-path="url(#p91f1949bcf)" style="fill: none; stroke: #b0b0b0; stroke-width: 0.8; stroke-linecap: square"/>
     </g>
     <g id="line2d_6">
      <g>
       <use xlink:href="#mc4a97b4d9f" x="162.198145" y="307.584" style="stroke: #000000; stroke-width: 0.8"/>
      </g>
     </g>
     <g id="text_3">
      <!-- 10 -->
      <g transform="translate(155.835645 322.182437) scale(0.1 -0.1)">
       <defs>
        <path id="DejaVuSans-31" d="M 794 531 
L 1825 531 
L 1825 4091 
L 703 3866 
L 703 4441 
L 1819 4666 
L 2450 4666 
L 2450 531 
L 3481 531 
L 3481 0 
L 794 0 
L 794 531 
z
" transform="scale(0.015625)"/>
       </defs>
       <use xlink:href="#DejaVuSans-31"/>
       <use xlink:href="#DejaVuSans-30" x="63.623047"/>
      </g>
     </g>
    </g>
    <g id="xtick_4">
     <g id="line2d_7">
      <path d="M 206.380854 307.584 
L 206.380854 41.472 
" clip-path="url(#p91f1949bcf)" style="fill: none; stroke: #b0b0b0; stroke-width: 0.8; stroke-linecap: square"/>
     </g>
     <g id="line2d_8">
      <g>
       <use xlink:href="#mc4a97b4d9f" x="206.380854" y="307.584" style="stroke: #000000; stroke-width: 0.8"/>
      </g>
     </g>
     <g id="text_4">
      <!-- 15 -->
      <g transform="translate(200.018354 322.182437) scale(0.1 -0.1)">
       <use xlink:href="#DejaVuSans-31"/>
       <use xlink:href="#DejaVuSans-35" x="63.623047"/>
      </g>
     </g>
    </g>
    <g id="xtick_5">
     <g id="line2d_9">
      <path d="M 250.563563 307.584 
L 250.563563 41.472 
" clip-path="url(#p91f1949bcf)" style="fill: none; stroke: #b0b0b0; stroke-width: 0.8; stroke-linecap: square"/>
     </g>
     <g id="line2d_10">
      <g>
       <use xlink:href="#mc4a97b4d9f" x="250.563563" y="307.584" style="stroke: #000000; stroke-width: 0.8"/>
      </g>
     </g>
     <g id="text_5">
      <!-- 20 -->
      <g transform="translate(244.201063 322.182437) scale(0.1 -0.1)">
       <defs>
        <path id="DejaVuSans-32" d="M 1228 531 
L 3431 531 
L 3431 0 
L 469 0 
L 469 531 
Q 828 903 1448 1529 
Q 2069 2156 2228 2338 
Q 2531 2678 2651 2914 
Q 2772 3150 2772 3378 
Q 2772 3750 2511 3984 
Q 2250 4219 1831 4219 
Q 1534 4219 1204 4116 
Q 875 4013 500 3803 
L 500 4441 
Q 881 4594 1212 4672 
Q 1544 4750 1819 4750 
Q 2544 4750 2975 4387 
Q 3406 4025 3406 3419 
Q 3406 3131 3298 2873 
Q 3191 2616 2906 2266 
Q 2828 2175 2409 1742 
Q 1991 1309 1228 531 
z
" transform="scale(0.015625)"/>
       </defs>
       <use xlink:href="#DejaVuSans-32"/>
       <use xlink:href="#DejaVuSans-30" x="63.623047"/>
      </g>
     </g>
    </g>
    <g id="xtick_6">
     <g id="line2d_11">
      <path d="M 294.746272 307.584 
L 294.746272 41.472 
" clip-path="url(#p91f1949bcf)" style="fill: none; stroke: #b0b0b0; stroke-width: 0.8; stroke-linecap: square"/>
     </g>
     <g id="line2d_12">
      <g>
       <use xlink:href="#mc4a97b4d9f" x="294.746272" y="307.584" style="stroke: #000000; stroke-width: 0.8"/>
      </g>
     </g>
     <g id="text_6">
      <!-- 25 -->
      <g transform="translate(288.383772 322.182437) scale(0.1 -0.1)">
       <use xlink:href="#DejaVuSans-32"/>
       <use xlink:href="#DejaVuSans-35" x="63.623047"/>
      </g>
     </g>
    </g>
    <g id="xtick_7">
     <g id="line2d_13">
      <path d="M 338.928981 307.584 
L 338.928981 41.472 
" clip-path="url(#p91f1949bcf)" style="fill: none; stroke: #b0b0b0; stroke-width: 0.8; stroke-linecap: square"/>
     </g>
     <g id="line2d_14">
      <g>
       <use xlink:href="#mc4a97b4d9f" x="338.928981" y="307.584" style="stroke: #000000; stroke-width: 0.8"/>
      </g>
     </g>
     <g id="text_7">
      <!-- 30 -->
      <g transform="translate(332.566481 322.182437) scale(0.1 -0.1)">
       <defs>
        <path id="DejaVuSans-33" d="M 2597 2516 
Q 3050 2419 3304 2112 
Q 3559 1806 3559 1356 
Q 3559 666 3084 287 
Q 2609 -91 1734 -91 
Q 1441 -91 1130 -33 
Q 819 25 488 141 
L 488 750 
Q 750 597 1062 519 
Q 1375 441 1716 441 
Q 2309 441 2620 675 
Q 2931 909 2931 1356 
Q 2931 1769 2642 2001 
Q 2353 2234 1838 2234 
L 1294 2234 
L 1294 2753 
L 1863 2753 
Q 2328 2753 2575 2939 
Q 2822 3125 2822 3475 
Q 2822 3834 2567 4026 
Q 2313 4219 1838 4219 
Q 1578 4219 1281 4162 
Q 984 4106 628 3988 
L 628 4550 
Q 988 4650 1302 4700 
Q 1616 4750 1894 4750 
Q 2613 4750 3031 4423 
Q 3450 4097 3450 3541 
Q 3450 3153 3228 2886 
Q 3006 2619 2597 2516 
z
" transform="scale(0.015625)"/>
       </defs>
       <use xlink:href="#DejaVuSans-33"/>
       <use xlink:href="#DejaVuSans-30" x="63.623047"/>
      </g>
     </g>
    </g>
    <g id="xtick_8">
     <g id="line2d_15">
      <path d="M 383.11169 307.584 
L 383.11169 41.472 
" clip-path="url(#p91f1949bcf)" style="fill: none; stroke: #b0b0b0; stroke-width: 0.8; stroke-linecap: square"/>
     </g>
     <g id="line2d_16">
      <g>
       <use xlink:href="#mc4a97b4d9f" x="383.11169" y="307.584" style="stroke: #000000; stroke-width: 0.8"/>
      </g>
     </g>
     <g id="text_8">
      <!-- 35 -->
      <g transform="translate(376.74919 322.182437) scale(0.1 -0.1)">
       <use xlink:href="#DejaVuSans-33"/>
       <use xlink:href="#DejaVuSans-35" x="63.623047"/>
      </g>
     </g>
    </g>
    <g id="text_9">
     <!-- Time(s) -->
     <g transform="translate(217.420156 335.860562) scale(0.1 -0.1)">
      <defs>
       <path id="DejaVuSans-54" d="M -19 4666 
L 3928 4666 
L 3928 4134 
L 2272 4134 
L 2272 0 
L 1638 0 
L 1638 4134 
L -19 4134 
L -19 4666 
z
" transform="scale(0.015625)"/>
       <path id="DejaVuSans-69" d="M 603 3500 
L 1178 3500 
L 1178 0 
L 603 0 
L 603 3500 
z
M 603 4863 
L 1178 4863 
L 1178 4134 
L 603 4134 
L 603 4863 
z
" transform="scale(0.015625)"/>
       <path id="DejaVuSans-6d" d="M 3328 2828 
Q 3544 3216 3844 3400 
Q 4144 3584 4550 3584 
Q 5097 3584 5394 3201 
Q 5691 2819 5691 2113 
L 5691 0 
L 5113 0 
L 5113 2094 
Q 5113 2597 4934 2840 
Q 4756 3084 4391 3084 
Q 3944 3084 3684 2787 
Q 3425 2491 3425 1978 
L 3425 0 
L 2847 0 
L 2847 2094 
Q 2847 2600 2669 2842 
Q 2491 3084 2119 3084 
Q 1678 3084 1418 2786 
Q 1159 2488 1159 1978 
L 1159 0 
L 581 0 
L 581 3500 
L 1159 3500 
L 1159 2956 
Q 1356 3278 1631 3431 
Q 1906 3584 2284 3584 
Q 2666 3584 2933 3390 
Q 3200 3197 3328 2828 
z
" transform="scale(0.015625)"/>
       <path id="DejaVuSans-65" d="M 3597 1894 
L 3597 1613 
L 953 1613 
Q 991 1019 1311 708 
Q 1631 397 2203 397 
Q 2534 397 2845 478 
Q 3156 559 3463 722 
L 3463 178 
Q 3153 47 2828 -22 
Q 2503 -91 2169 -91 
Q 1331 -91 842 396 
Q 353 884 353 1716 
Q 353 2575 817 3079 
Q 1281 3584 2069 3584 
Q 2775 3584 3186 3129 
Q 3597 2675 3597 1894 
z
M 3022 2063 
Q 3016 2534 2758 2815 
Q 2500 3097 2075 3097 
Q 1594 3097 1305 2825 
Q 1016 2553 972 2059 
L 3022 2063 
z
" transform="scale(0.015625)"/>
       <path id="DejaVuSans-28" d="M 1984 4856 
Q 1566 4138 1362 3434 
Q 1159 2731 1159 2009 
Q 1159 1288 1364 580 
Q 1569 -128 1984 -844 
L 1484 -844 
Q 1016 -109 783 600 
Q 550 1309 550 2009 
Q 550 2706 781 3412 
Q 1013 4119 1484 4856 
L 1984 4856 
z
" transform="scale(0.015625)"/>
       <path id="DejaVuSans-73" d="M 2834 3397 
L 2834 2853 
Q 2591 2978 2328 3040 
Q 2066 3103 1784 3103 
Q 1356 3103 1142 2972 
Q 928 2841 928 2578 
Q 928 2378 1081 2264 
Q 1234 2150 1697 2047 
L 1894 2003 
Q 2506 1872 2764 1633 
Q 3022 1394 3022 966 
Q 3022 478 2636 193 
Q 2250 -91 1575 -91 
Q 1294 -91 989 -36 
Q 684 19 347 128 
L 347 722 
Q 666 556 975 473 
Q 1284 391 1588 391 
Q 1994 391 2212 530 
Q 2431 669 2431 922 
Q 2431 1156 2273 1281 
Q 2116 1406 1581 1522 
L 1381 1569 
Q 847 1681 609 1914 
Q 372 2147 372 2553 
Q 372 3047 722 3315 
Q 1072 3584 1716 3584 
Q 2034 3584 2315 3537 
Q 2597 3491 2834 3397 
z
" transform="scale(0.015625)"/>
       <path id="DejaVuSans-29" d="M 513 4856 
L 1013 4856 
Q 1481 4119 1714 3412 
Q 1947 2706 1947 2009 
Q 1947 1309 1714 600 
Q 1481 -109 1013 -844 
L 513 -844 
Q 928 -128 1133 580 
Q 1338 1288 1338 2009 
Q 1338 2731 1133 3434 
Q 928 4138 513 4856 
z
" transform="scale(0.015625)"/>
      </defs>
      <use xlink:href="#DejaVuSans-54"/>
      <use xlink:href="#DejaVuSans-69" x="57.958984"/>
      <use xlink:href="#DejaVuSans-6d" x="85.742188"/>
      <use xlink:href="#DejaVuSans-65" x="183.154297"/>
      <use xlink:href="#DejaVuSans-28" x="244.677734"/>
      <use xlink:href="#DejaVuSans-73" x="283.691406"/>
      <use xlink:href="#DejaVuSans-29" x="335.791016"/>
     </g>
    </g>
   </g>
   <g id="matplotlib.axis_2">
    <g id="ytick_1">
     <g id="line2d_17">
      <path d="M 57.6 276.944562 
L 414.72 276.944562 
" clip-path="url(#p91f1949bcf)" style="fill: none; stroke: #b0b0b0; stroke-width: 0.8; stroke-linecap: square"/>
     </g>
     <g id="line2d_18">
      <defs>
       <path id="m1ba1fa14ca" d="M 0 0 
L -3.5 0 
" style="stroke: #000000; stroke-width: 0.8"/>
      </defs>
      <g>
       <use xlink:href="#m1ba1fa14ca" x="57.6" y="276.944562" style="stroke: #000000; stroke-width: 0.8"/>
      </g>
     </g>
     <g id="text_10">
      <!-- 4 -->
      <g transform="translate(44.2375 280.743781) scale(0.1 -0.1)">
       <defs>
        <path id="DejaVuSans-34" d="M 2419 4116 
L 825 1625 
L 2419 1625 
L 2419 4116 
z
M 2253 4666 
L 3047 4666 
L 3047 1625 
L 3713 1625 
L 3713 1100 
L 3047 1100 
L 3047 0 
L 2419 0 
L 2419 1100 
L 313 1100 
L 313 1709 
L 2253 4666 
z
" transform="scale(0.015625)"/>
       </defs>
       <use xlink:href="#DejaVuSans-34"/>
      </g>
     </g>
    </g>
    <g id="ytick_2">
     <g id="line2d_19">
      <path d="M 57.6 221.100422 
L 414.72 221.100422 
" clip-path="url(#p91f1949bcf)" style="fill: none; stroke: #b0b0b0; stroke-width: 0.8; stroke-linecap: square"/>
     </g>
     <g id="line2d_20">
      <g>
       <use xlink:href="#m1ba1fa14ca" x="57.6" y="221.100422" style="stroke: #000000; stroke-width: 0.8"/>
      </g>
     </g>
     <g id="text_11">
      <!-- 5 -->
      <g transform="translate(44.2375 224.89964) scale(0.1 -0.1)">
       <use xlink:href="#DejaVuSans-35"/>
      </g>
     </g>
    </g>
    <g id="ytick_3">
     <g id="line2d_21">
      <path d="M 57.6 165.256281 
L 414.72 165.256281 
" clip-path="url(#p91f1949bcf)" style="fill: none; stroke: #b0b0b0; stroke-width: 0.8; stroke-linecap: square"/>
     </g>
     <g id="line2d_22">
      <g>
       <use xlink:href="#m1ba1fa14ca" x="57.6" y="165.256281" style="stroke: #000000; stroke-width: 0.8"/>
      </g>
     </g>
     <g id="text_12">
      <!-- 6 -->
      <g transform="translate(44.2375 169.0555) scale(0.1 -0.1)">
       <defs>
        <path id="DejaVuSans-36" d="M 2113 2584 
Q 1688 2584 1439 2293 
Q 1191 2003 1191 1497 
Q 1191 994 1439 701 
Q 1688 409 2113 409 
Q 2538 409 2786 701 
Q 3034 994 3034 1497 
Q 3034 2003 2786 2293 
Q 2538 2584 2113 2584 
z
M 3366 4563 
L 3366 3988 
Q 3128 4100 2886 4159 
Q 2644 4219 2406 4219 
Q 1781 4219 1451 3797 
Q 1122 3375 1075 2522 
Q 1259 2794 1537 2939 
Q 1816 3084 2150 3084 
Q 2853 3084 3261 2657 
Q 3669 2231 3669 1497 
Q 3669 778 3244 343 
Q 2819 -91 2113 -91 
Q 1303 -91 875 529 
Q 447 1150 447 2328 
Q 447 3434 972 4092 
Q 1497 4750 2381 4750 
Q 2619 4750 2861 4703 
Q 3103 4656 3366 4563 
z
" transform="scale(0.015625)"/>
       </defs>
       <use xlink:href="#DejaVuSans-36"/>
      </g>
     </g>
    </g>
    <g id="ytick_4">
     <g id="line2d_23">
      <path d="M 57.6 109.412141 
L 414.72 109.412141 
" clip-path="url(#p91f1949bcf)" style="fill: none; stroke: #b0b0b0; stroke-width: 0.8; stroke-linecap: square"/>
     </g>
     <g id="line2d_24">
      <g>
       <use xlink:href="#m1ba1fa14ca" x="57.6" y="109.412141" style="stroke: #000000; stroke-width: 0.8"/>
      </g>
     </g>
     <g id="text_13">
      <!-- 7 -->
      <g transform="translate(44.2375 113.211359) scale(0.1 -0.1)">
       <defs>
        <path id="DejaVuSans-37" d="M 525 4666 
L 3525 4666 
L 3525 4397 
L 1831 0 
L 1172 0 
L 2766 4134 
L 525 4134 
L 525 4666 
z
" transform="scale(0.015625)"/>
       </defs>
       <use xlink:href="#DejaVuSans-37"/>
      </g>
     </g>
    </g>
    <g id="ytick_5">
     <g id="line2d_25">
      <path d="M 57.6 53.568 
L 414.72 53.568 
" clip-path="url(#p91f1949bcf)" style="fill: none; stroke: #b0b0b0; stroke-width: 0.8; stroke-linecap: square"/>
     </g>
     <g id="line2d_26">
      <g>
       <use xlink:href="#m1ba1fa14ca" x="57.6" y="53.568" style="stroke: #000000; stroke-width: 0.8"/>
      </g>
     </g>
     <g id="text_14">
      <!-- 8 -->
      <g transform="translate(44.2375 57.367219) scale(0.1 -0.1)">
       <defs>
        <path id="DejaVuSans-38" d="M 2034 2216 
Q 1584 2216 1326 1975 
Q 1069 1734 1069 1313 
Q 1069 891 1326 650 
Q 1584 409 2034 409 
Q 2484 409 2743 651 
Q 3003 894 3003 1313 
Q 3003 1734 2745 1975 
Q 2488 2216 2034 2216 
z
M 1403 2484 
Q 997 2584 770 2862 
Q 544 3141 544 3541 
Q 544 4100 942 4425 
Q 1341 4750 2034 4750 
Q 2731 4750 3128 4425 
Q 3525 4100 3525 3541 
Q 3525 3141 3298 2862 
Q 3072 2584 2669 2484 
Q 3125 2378 3379 2068 
Q 3634 1759 3634 1313 
Q 3634 634 3220 271 
Q 2806 -91 2034 -91 
Q 1263 -91 848 271 
Q 434 634 434 1313 
Q 434 1759 690 2068 
Q 947 2378 1403 2484 
z
M 1172 3481 
Q 1172 3119 1398 2916 
Q 1625 2713 2034 2713 
Q 2441 2713 2670 2916 
Q 2900 3119 2900 3481 
Q 2900 3844 2670 4047 
Q 2441 4250 2034 4250 
Q 1625 4250 1398 4047 
Q 1172 3844 1172 3481 
z
" transform="scale(0.015625)"/>
       </defs>
       <use xlink:href="#DejaVuSans-38"/>
      </g>
     </g>
    </g>
    <g id="text_15">
     <!-- Velocity(m/s) -->
     <g transform="translate(38.157812 207.204563) rotate(-90) scale(0.1 -0.1)">
      <defs>
       <path id="DejaVuSans-56" d="M 1831 0 
L 50 4666 
L 709 4666 
L 2188 738 
L 3669 4666 
L 4325 4666 
L 2547 0 
L 1831 0 
z
" transform="scale(0.015625)"/>
       <path id="DejaVuSans-6c" d="M 603 4863 
L 1178 4863 
L 1178 0 
L 603 0 
L 603 4863 
z
" transform="scale(0.015625)"/>
       <path id="DejaVuSans-6f" d="M 1959 3097 
Q 1497 3097 1228 2736 
Q 959 2375 959 1747 
Q 959 1119 1226 758 
Q 1494 397 1959 397 
Q 2419 397 2687 759 
Q 2956 1122 2956 1747 
Q 2956 2369 2687 2733 
Q 2419 3097 1959 3097 
z
M 1959 3584 
Q 2709 3584 3137 3096 
Q 3566 2609 3566 1747 
Q 3566 888 3137 398 
Q 2709 -91 1959 -91 
Q 1206 -91 779 398 
Q 353 888 353 1747 
Q 353 2609 779 3096 
Q 1206 3584 1959 3584 
z
" transform="scale(0.015625)"/>
       <path id="DejaVuSans-63" d="M 3122 3366 
L 3122 2828 
Q 2878 2963 2633 3030 
Q 2388 3097 2138 3097 
Q 1578 3097 1268 2742 
Q 959 2388 959 1747 
Q 959 1106 1268 751 
Q 1578 397 2138 397 
Q 2388 397 2633 464 
Q 2878 531 3122 666 
L 3122 134 
Q 2881 22 2623 -34 
Q 2366 -91 2075 -91 
Q 1284 -91 818 406 
Q 353 903 353 1747 
Q 353 2603 823 3093 
Q 1294 3584 2113 3584 
Q 2378 3584 2631 3529 
Q 2884 3475 3122 3366 
z
" transform="scale(0.015625)"/>
       <path id="DejaVuSans-74" d="M 1172 4494 
L 1172 3500 
L 2356 3500 
L 2356 3053 
L 1172 3053 
L 1172 1153 
Q 1172 725 1289 603 
Q 1406 481 1766 481 
L 2356 481 
L 2356 0 
L 1766 0 
Q 1100 0 847 248 
Q 594 497 594 1153 
L 594 3053 
L 172 3053 
L 172 3500 
L 594 3500 
L 594 4494 
L 1172 4494 
z
" transform="scale(0.015625)"/>
       <path id="DejaVuSans-79" d="M 2059 -325 
Q 1816 -950 1584 -1140 
Q 1353 -1331 966 -1331 
L 506 -1331 
L 506 -850 
L 844 -850 
Q 1081 -850 1212 -737 
Q 1344 -625 1503 -206 
L 1606 56 
L 191 3500 
L 800 3500 
L 1894 763 
L 2988 3500 
L 3597 3500 
L 2059 -325 
z
" transform="scale(0.015625)"/>
       <path id="DejaVuSans-2f" d="M 1625 4666 
L 2156 4666 
L 531 -594 
L 0 -594 
L 1625 4666 
z
" transform="scale(0.015625)"/>
      </defs>
      <use xlink:href="#DejaVuSans-56"/>
      <use xlink:href="#DejaVuSans-65" x="60.658203"/>
      <use xlink:href="#DejaVuSans-6c" x="122.181641"/>
      <use xlink:href="#DejaVuSans-6f" x="149.964844"/>
      <use xlink:href="#DejaVuSans-63" x="211.146484"/>
      <use xlink:href="#DejaVuSans-69" x="266.126953"/>
      <use xlink:href="#DejaVuSans-74" x="293.910156"/>
      <use xlink:href="#DejaVuSans-79" x="333.119141"/>
      <use xlink:href="#DejaVuSans-28" x="392.298828"/>
      <use xlink:href="#DejaVuSans-6d" x="431.3125"/>
      <use xlink:href="#DejaVuSans-2f" x="528.724609"/>
      <use xlink:href="#DejaVuSans-73" x="562.416016"/>
      <use xlink:href="#DejaVuSans-29" x="614.515625"/>
     </g>
    </g>
   </g>
   <g id="line2d_27">
    <path d="M 73.832727 53.731679 
L 76.48369 53.605974 
L 76.48369 53.605974 
L 83.906385 53.568614 
L 83.906385 53.568614 
L 92.389465 53.568 
L 92.389465 53.568 
L 92.566196 54.620997 
L 92.566196 54.620997 
L 93.44985 76.02237 
L 93.44985 76.02237 
L 93.803312 87.350187 
L 93.803312 87.350187 
L 94.156773 97.882392 
L 94.156773 97.882392 
L 94.510235 108.561523 
L 94.510235 108.561523 
L 96.100813 146.227725 
L 96.100813 146.227725 
L 96.984467 162.370423 
L 96.984467 162.370423 
L 98.221583 180.428073 
L 98.221583 180.428073 
L 99.458698 191.977591 
L 99.458698 191.977591 
L 100.342353 196.938672 
L 100.342353 196.938672 
L 100.872545 198.369399 
L 100.872545 198.369399 
L 101.226007 198.944482 
L 101.226007 198.944482 
L 101.93293 199.377721 
L 101.93293 199.377721 
L 102.816584 199.441439 
L 102.816584 199.441439 
L 103.876969 198.256036 
L 103.876969 198.256036 
L 104.407162 196.798392 
L 104.407162 196.798392 
L 104.760624 195.338514 
L 104.760624 195.338514 
L 105.644278 188.106977 
L 105.644278 188.106977 
L 106.17447 181.920173 
L 106.17447 181.920173 
L 106.704663 172.602019 
L 106.704663 172.602019 
L 107.588317 154.320211 
L 107.588317 154.320211 
L 108.118509 148.784717 
L 108.118509 148.784717 
L 108.648702 146.391851 
L 108.648702 146.391851 
L 109.178894 145.451492 
L 109.178894 145.451492 
L 109.709087 145.064157 
L 109.709087 145.064157 
L 111.829857 143.971175 
L 111.829857 143.971175 
L 112.360049 143.274855 
L 112.360049 143.274855 
L 112.53678 142.974134 
L 112.53678 142.974134 
L 113.243704 140.634041 
L 113.243704 140.634041 
L 113.597165 139.044047 
L 113.597165 139.044047 
L 114.65755 130.771407 
L 114.65755 130.771407 
L 115.187743 124.075527 
L 115.187743 124.075527 
L 115.541205 119.480169 
L 115.541205 119.480169 
L 115.894666 118.02945 
L 115.894666 118.02945 
L 116.071397 118.193129 
L 116.071397 118.193129 
L 116.248128 121.130196 
L 116.248128 121.130196 
L 116.60159 128.749403 
L 116.60159 128.749403 
L 117.485244 146.068011 
L 117.485244 146.068011 
L 118.368898 158.650869 
L 118.368898 158.650869 
L 119.252552 166.320782 
L 119.252552 166.320782 
L 119.959475 169.52121 
L 119.959475 169.52121 
L 120.666399 170.751903 
L 120.666399 170.751903 
L 120.84313 171.033637 
L 120.84313 171.033637 
L 121.196591 171.0567 
L 121.196591 171.0567 
L 121.373322 171.221105 
L 121.373322 171.221105 
L 121.550053 171.193909 
L 121.550053 171.193909 
L 121.726784 171.337373 
L 121.726784 171.337373 
L 122.080245 171.257404 
L 122.080245 171.257404 
L 122.610438 171.39774 
L 122.610438 171.39774 
L 123.847554 171.137898 
L 123.847554 171.137898 
L 124.377746 170.752015 
L 124.377746 170.752015 
L 125.08467 170.157721 
L 125.08467 170.157721 
L 126.675247 167.983709 
L 126.675247 167.983709 
L 127.382171 166.690917 
L 127.382171 166.690917 
L 130.033133 159.340376 
L 130.033133 159.340376 
L 130.740056 156.732008 
L 130.740056 156.732008 
L 131.270249 154.590162 
L 131.270249 154.590162 
L 132.507365 148.963697 
L 132.507365 148.963697 
L 133.214288 145.480028 
L 133.214288 145.480028 
L 134.804866 135.95648 
L 134.804866 135.95648 
L 137.279097 116.416783 
L 137.279097 116.416783 
L 138.516213 103.177812 
L 138.516213 103.177812 
L 140.106791 82.109661 
L 140.106791 82.109661 
L 140.990445 71.210672 
L 140.990445 71.210672 
L 141.697368 65.516189 
L 141.697368 65.516189 
L 142.404292 61.659704 
L 142.404292 61.659704 
L 143.111215 59.04793 
L 143.111215 59.04793 
L 143.818138 57.279178 
L 143.818138 57.279178 
L 144.525062 56.081321 
L 144.525062 56.081321 
L 145.231985 55.270129 
L 145.231985 55.270129 
L 146.115639 54.613682 
L 146.115639 54.613682 
L 147.176024 54.150789 
L 147.176024 54.150789 
L 148.41314 53.862634 
L 148.41314 53.862634 
L 150.357179 53.66891 
L 150.357179 53.66891 
L 150.710641 53.65104 
L 150.710641 53.65104 
L 151.240833 59.004595 
L 151.240833 59.004595 
L 151.594295 68.705783 
L 151.594295 68.705783 
L 151.947757 79.939167 
L 151.947757 79.939167 
L 152.301218 90.496892 
L 152.301218 90.496892 
L 152.65468 101.428662 
L 152.65468 101.428662 
L 155.835835 182.564837 
L 155.835835 182.564837 
L 157.779874 214.920039 
L 157.779874 214.920039 
L 159.01699 228.712983 
L 159.01699 228.712983 
L 159.723913 234.882644 
L 159.723913 234.882644 
L 160.607568 240.807707 
L 160.607568 240.807707 
L 161.314491 243.877013 
L 161.314491 243.877013 
L 161.844684 245.418199 
L 161.844684 245.418199 
L 162.551607 246.821842 
L 162.551607 246.821842 
L 162.728338 246.877519 
L 162.728338 246.877519 
L 162.905069 247.050356 
L 162.905069 247.050356 
L 163.25853 247.113683 
L 163.25853 247.113683 
L 163.965454 247.399605 
L 163.965454 247.399605 
L 165.202569 247.302213 
L 165.202569 247.302213 
L 165.909493 246.807155 
L 165.909493 246.807155 
L 166.616416 245.803077 
L 166.616416 245.803077 
L 167.50007 243.540943 
L 167.50007 243.540943 
L 168.030263 242.00897 
L 168.030263 242.00897 
L 168.737186 239.178789 
L 168.737186 239.178789 
L 169.444109 235.559363 
L 169.444109 235.559363 
L 170.151033 231.125618 
L 170.151033 231.125618 
L 170.857956 226.035089 
L 170.857956 226.035089 
L 171.74161 218.978288 
L 171.74161 218.978288 
L 174.215842 195.186172 
L 174.215842 195.186172 
L 175.98315 176.051289 
L 175.98315 176.051289 
L 177.750459 157.139279 
L 177.750459 157.139279 
L 179.871229 133.759404 
L 179.871229 133.759404 
L 180.578152 123.445103 
L 180.578152 123.445103 
L 181.285075 110.329995 
L 181.285075 110.329995 
L 182.16873 91.785217 
L 182.16873 91.785217 
L 182.522191 87.896678 
L 182.522191 87.896678 
L 182.875653 87.154286 
L 182.875653 87.154286 
L 183.052384 88.528163 
L 183.052384 88.528163 
L 183.229115 91.834918 
L 183.229115 91.834918 
L 186.056808 177.736553 
L 186.056808 177.736553 
L 187.117193 202.842571 
L 187.117193 202.842571 
L 187.470655 212.024353 
L 187.470655 212.024353 
L 187.824116 219.772448 
L 187.824116 219.772448 
L 188.354309 230.723987 
L 188.354309 230.723987 
L 188.53104 232.845115 
L 188.53104 232.845115 
L 188.884501 238.712267 
L 188.884501 238.712267 
L 191.005271 262.925952 
L 191.005271 262.925952 
L 192.242387 269.665223 
L 192.242387 269.665223 
L 192.949311 271.963823 
L 192.949311 271.963823 
L 193.656234 273.357414 
L 193.656234 273.357414 
L 193.832965 273.472453 
L 193.832965 273.472453 
L 194.186426 273.928867 
L 194.186426 273.928867 
L 194.716619 274.473347 
L 194.716619 274.473347 
L 195.423542 274.613572 
L 195.423542 274.613572 
L 197.01412 274.448162 
L 197.01412 274.448162 
L 197.367582 274.245224 
L 197.367582 274.245224 
L 197.544312 274.157381 
L 197.544312 274.157381 
L 198.781428 272.156597 
L 198.781428 272.156597 
L 199.311621 270.696385 
L 199.311621 270.696385 
L 200.195275 266.788747 
L 200.195275 266.788747 
L 200.902198 262.497069 
L 200.902198 262.497069 
L 202.492776 248.171316 
L 202.492776 248.171316 
L 204.436815 220.993759 
L 204.436815 220.993759 
L 205.673931 196.421667 
L 205.673931 196.421667 
L 206.557585 174.463249 
L 206.557585 174.463249 
L 207.794701 140.882994 
L 207.794701 140.882994 
L 209.208548 99.741667 
L 209.208548 99.741667 
L 209.915471 84.838317 
L 209.915471 84.838317 
L 210.622394 74.745271 
L 210.622394 74.745271 
L 211.329318 67.909892 
L 211.329318 67.909892 
L 212.036241 63.280804 
L 212.036241 63.280804 
L 212.743164 60.145825 
L 212.743164 60.145825 
L 213.450088 58.022687 
L 213.450088 58.022687 
L 214.157011 56.584868 
L 214.157011 56.584868 
L 214.863934 55.611114 
L 214.863934 55.611114 
L 215.040665 55.421411 
L 215.040665 55.421411 
L 215.394127 56.70443 
L 215.394127 56.70443 
L 215.747588 61.076468 
L 215.747588 61.076468 
L 220.165859 154.333502 
L 220.165859 154.333502 
L 220.519321 160.170276 
L 220.519321 160.170276 
L 220.872783 166.663274 
L 220.872783 166.663274 
L 221.402975 174.821266 
L 221.402975 174.821266 
L 221.756437 179.127184 
L 221.756437 179.127184 
L 222.286629 186.291094 
L 222.286629 186.291094 
L 223.523745 197.569097 
L 223.523745 197.569097 
L 224.407399 202.153566 
L 224.407399 202.153566 
L 224.937592 203.730213 
L 224.937592 203.730213 
L 225.291054 204.475174 
L 225.291054 204.475174 
L 225.821246 205.001003 
L 225.821246 205.001003 
L 226.174708 205.161443 
L 226.174708 205.161443 
L 226.7049 205.322107 
L 226.7049 205.322107 
L 227.588554 205.198188 
L 227.588554 205.198188 
L 228.295478 204.638463 
L 228.295478 204.638463 
L 229.002401 203.348519 
L 229.002401 203.348519 
L 229.532594 201.602217 
L 229.532594 201.602217 
L 230.592979 194.475164 
L 230.592979 194.475164 
L 231.476633 184.713497 
L 231.476633 184.713497 
L 232.713749 161.207525 
L 232.713749 161.207525 
L 235.364711 89.624384 
L 235.364711 89.624384 
L 236.071635 77.986521 
L 236.071635 77.986521 
L 236.778558 70.105014 
L 236.778558 70.105014 
L 237.485481 64.767375 
L 237.485481 64.767375 
L 238.192405 61.152584 
L 238.192405 61.152584 
L 238.899328 58.704544 
L 238.899328 58.704544 
L 239.606251 57.046643 
L 239.606251 57.046643 
L 240.313175 55.923841 
L 240.313175 55.923841 
L 241.020098 55.163467 
L 241.020098 55.163467 
L 241.37356 54.880952 
L 241.37356 54.880952 
L 241.55029 55.140906 
L 241.55029 55.140906 
L 241.903752 58.427725 
L 241.903752 58.427725 
L 246.675485 127.783467 
L 246.675485 127.783467 
L 248.089331 139.855518 
L 248.089331 139.855518 
L 248.442793 141.916111 
L 248.442793 141.916111 
L 248.796255 143.450764 
L 248.796255 143.450764 
L 249.503178 145.297306 
L 249.503178 145.297306 
L 250.210101 145.828049 
L 250.210101 145.828049 
L 250.563563 145.885959 
L 250.563563 145.885959 
L 250.740294 145.863677 
L 250.740294 145.863677 
L 251.093756 146.061533 
L 251.093756 146.061533 
L 251.623948 145.964644 
L 251.623948 145.964644 
L 251.97741 145.738642 
L 251.97741 145.738642 
L 252.507602 144.960678 
L 252.507602 144.960678 
L 253.391256 142.403016 
L 253.391256 142.403016 
L 254.274911 137.744777 
L 254.274911 137.744777 
L 254.805103 133.830661 
L 254.805103 133.830661 
L 255.512027 127.309462 
L 255.512027 127.309462 
L 257.279335 105.193004 
L 257.279335 105.193004 
L 258.162989 91.165403 
L 258.162989 91.165403 
L 259.223374 74.854725 
L 259.223374 74.854725 
L 259.930297 67.984053 
L 259.930297 67.984053 
L 260.637221 63.331008 
L 260.637221 63.331008 
L 261.344144 60.179835 
L 261.344144 60.179835 
L 262.051067 58.045751 
L 262.051067 58.045751 
L 262.757991 56.600449 
L 262.757991 56.600449 
L 263.464914 55.621668 
L 263.464914 55.621668 
L 264.348568 54.829687 
L 264.348568 54.829687 
L 265.232222 54.343117 
L 265.232222 54.343117 
L 266.292608 54.00001 
L 266.292608 54.00001 
L 267.883185 53.747762 
L 267.883185 53.747762 
L 270.357417 53.61396 
L 270.357417 53.61396 
L 276.366265 53.569675 
L 276.366265 53.569675 
L 276.896458 60.373446 
L 276.896458 60.373446 
L 277.249919 71.662507 
L 277.249919 71.662507 
L 277.603381 84.717415 
L 277.603381 84.717415 
L 277.956843 97.479476 
L 277.956843 97.479476 
L 278.310304 111.452406 
L 278.310304 111.452406 
L 279.017228 136.935484 
L 279.017228 136.935484 
L 279.370689 150.524876 
L 279.370689 150.524876 
L 280.961267 204.610205 
L 280.961267 204.610205 
L 281.137998 208.395098 
L 281.137998 208.395098 
L 281.491459 217.969855 
L 281.491459 217.969855 
L 282.021652 231.563938 
L 282.021652 231.563938 
L 282.198383 234.242502 
L 282.198383 234.242502 
L 282.728575 246.090507 
L 282.728575 246.090507 
L 283.082037 250.343764 
L 283.082037 250.343764 
L 283.965691 264.304297 
L 283.965691 264.304297 
L 285.026076 276.260081 
L 285.026076 276.260081 
L 285.379538 280.161408 
L 285.379538 280.161408 
L 286.793384 290.232564 
L 286.793384 290.232564 
L 287.146846 292.011311 
L 287.146846 292.011311 
L 287.677039 293.750298 
L 287.677039 293.750298 
L 288.0305 294.495985 
L 288.0305 294.495985 
L 288.383962 294.954186 
L 288.383962 294.954186 
L 288.737424 295.148859 
L 288.737424 295.148859 
L 289.444347 295.344257 
L 289.444347 295.344257 
L 290.681463 295.126409 
L 290.681463 295.126409 
L 290.858194 295.044765 
L 290.858194 295.044765 
L 291.741848 293.838252 
L 291.741848 293.838252 
L 292.625502 291.169349 
L 292.625502 291.169349 
L 293.509156 286.452641 
L 293.509156 286.452641 
L 294.569541 278.659703 
L 294.569541 278.659703 
L 295.099734 273.888101 
L 295.099734 273.888101 
L 295.629926 268.888542 
L 295.629926 268.888542 
L 298.104158 235.941672 
L 298.104158 235.941672 
L 300.401659 199.238893 
L 300.401659 199.238893 
L 303.229352 159.632497 
L 303.229352 159.632497 
L 303.582814 158.811253 
L 303.582814 158.811253 
L 303.936276 163.378745 
L 303.936276 163.378745 
L 304.113006 167.085288 
L 304.466468 177.340171 
L 304.466468 177.340171 
L 304.996661 190.315334 
L 304.996661 190.315334 
L 306.233776 216.314746 
L 306.233776 216.314746 
L 308.177816 240.388764 
L 308.177816 240.388764 
L 308.708008 245.436125 
L 308.708008 245.436125 
L 310.298586 255.164845 
L 310.298586 255.164845 
L 311.18224 258.469031 
L 311.18224 258.469031 
L 312.065894 260.381302 
L 312.065894 260.381302 
L 312.772817 261.107331 
L 312.772817 261.107331 
L 312.949548 261.153235 
L 312.949548 261.153235 
L 313.30301 261.423242 
L 313.30301 261.423242 
L 313.833202 261.549282 
L 313.833202 261.549282 
L 315.070318 261.453398 
L 315.070318 261.453398 
L 315.600511 261.198357 
L 315.600511 261.198357 
L 315.953972 260.819455 
L 315.953972 260.819455 
L 316.484165 260.131455 
L 316.484165 260.131455 
L 317.721281 256.704747 
L 317.721281 256.704747 
L 318.604935 252.193546 
L 318.604935 252.193546 
L 319.311858 248.031203 
L 319.311858 248.031203 
L 320.372243 239.540715 
L 320.372243 239.540715 
L 323.023206 210.860784 
L 323.023206 210.860784 
L 323.90686 198.996138 
L 323.90686 198.996138 
L 325.850899 168.666739 
L 325.850899 168.666739 
L 327.441477 140.444227 
L 327.441477 140.444227 
L 327.794938 138.99926 
L 327.794938 138.99926 
L 327.971669 138.993061 
L 327.971669 138.993061 
L 328.1484 139.665089 
L 328.1484 139.665089 
L 328.325131 141.696364 
L 328.325131 141.696364 
L 329.385516 163.114435 
L 329.385516 163.114435 
L 331.152824 191.928895 
L 331.152824 191.928895 
L 332.566671 204.419609 
L 332.566671 204.419609 
L 332.920133 206.476237 
L 332.920133 206.476237 
L 333.273594 207.968058 
L 333.273594 207.968058 
L 333.803787 209.349083 
L 333.803787 209.349083 
L 334.157248 209.838446 
L 334.157248 209.838446 
L 334.51071 210.098958 
L 334.51071 210.098958 
L 335.217633 210.448654 
L 335.217633 210.448654 
L 336.278019 210.05769 
L 336.278019 210.05769 
L 336.984942 209.205676 
L 336.984942 209.205676 
L 337.515134 207.913219 
L 337.515134 207.913219 
L 337.868596 206.662031 
L 337.868596 206.662031 
L 338.222058 204.950408 
L 338.222058 204.950408 
L 339.105712 197.107378 
L 339.105712 197.107378 
L 339.635904 190.603825 
L 339.635904 190.603825 
L 340.342828 180.533228 
L 340.342828 180.533228 
L 340.696289 178.152145 
L 340.696289 178.152145 
L 340.87302 177.488661 
L 340.87302 177.488661 
L 341.049751 177.425725 
L 341.049751 177.425725 
L 341.226482 177.679145 
L 341.226482 177.679145 
L 341.403213 178.824732 
L 341.403213 178.824732 
L 341.933405 183.816584 
L 341.933405 183.816584 
L 342.463598 186.516425 
L 342.463598 186.516425 
L 342.817059 187.340628 
L 342.817059 187.340628 
L 343.170521 187.87757 
L 343.170521 187.87757 
L 343.523983 188.139535 
L 343.523983 188.139535 
L 343.877444 188.203364 
L 343.877444 188.203364 
L 344.584368 187.460414 
L 344.584368 187.460414 
L 344.937829 186.538762 
L 344.937829 186.538762 
L 345.11456 185.876395 
L 345.11456 185.876395 
L 345.821484 180.55657 
L 345.821484 180.55657 
L 346.528407 171.904749 
L 346.528407 171.904749 
L 346.881869 168.403545 
L 346.881869 168.403545 
L 347.058599 167.446265 
L 347.058599 167.446265 
L 347.23533 167.156657 
L 347.23533 167.156657 
L 348.825908 182.449073 
L 348.825908 182.449073 
L 349.3561 185.016339 
L 349.3561 185.016339 
L 349.709562 185.859921 
L 349.709562 185.859921 
L 350.063024 186.137187 
L 350.063024 186.137187 
L 350.239755 186.265238 
L 350.239755 186.265238 
L 350.416485 186.230614 
L 350.416485 186.230614 
L 350.769947 186.340739 
L 350.769947 186.340739 
L 351.123409 186.393735 
L 351.123409 186.393735 
L 351.830332 186.140203 
L 351.830332 186.140203 
L 352.890717 185.104685 
L 352.890717 185.104685 
L 353.244179 184.453933 
L 353.244179 184.453933 
L 353.774371 183.47169 
L 353.774371 183.47169 
L 354.658025 181.228543 
L 354.658025 181.228543 
L 355.895141 176.828248 
L 355.895141 176.828248 
L 357.308988 169.578003 
L 357.308988 169.578003 
L 358.015911 165.242488 
L 358.015911 165.242488 
L 361.550528 138.89807 
L 361.550528 138.89807 
L 362.964375 131.059061 
L 362.964375 131.059061 
L 364.378221 123.943121 
L 364.378221 123.943121 
L 365.438606 116.374397 
L 365.438606 116.374397 
L 366.14553 109.239861 
L 366.14553 109.239861 
L 367.559376 87.363143 
L 367.559376 87.363143 
L 368.2663 76.455163 
L 368.2663 76.455163 
L 368.973223 69.067932 
L 368.973223 69.067932 
L 369.680146 64.065023 
L 369.680146 64.065023 
L 370.38707 60.676903 
L 370.38707 60.676903 
L 371.093993 58.382379 
L 371.093993 58.382379 
L 371.800917 56.82846 
L 371.800917 56.82846 
L 372.50784 55.776077 
L 372.50784 55.776077 
L 373.214763 55.063394 
L 373.214763 55.063394 
L 374.098417 54.486692 
L 374.098417 54.486692 
L 375.158802 54.080035 
L 375.158802 54.080035 
L 376.572649 53.802825 
L 376.572649 53.802825 
L 378.693419 53.640932 
L 378.693419 53.640932 
L 383.288421 53.573808 
L 383.288421 53.573808 
L 397.073426 53.609436 
L 397.073426 53.609436 
L 397.603619 53.734751 
L 397.603619 53.734751 
L 398.487273 53.750219 
L 398.487273 53.750219 
" clip-path="url(#p91f1949bcf)" style="fill: none; stroke: #1f77b4; stroke-width: 1.5; stroke-linecap: square"/>
   </g>
   <g id="line2d_28">
    <path d="M 73.832727 53.568 
L 92.212734 53.568 
L 92.212734 53.568 
L 92.389465 56.626974 
L 92.389465 56.626974 
L 92.566196 65.808198 
L 92.566196 65.808198 
L 92.742927 66.739287 
L 92.742927 66.739287 
L 93.273119 87.652918 
L 93.273119 87.652918 
L 93.44985 96.641926 
L 93.44985 96.641926 
L 93.626581 95.408831 
L 93.626581 95.408831 
L 93.980043 108.950421 
L 93.980043 108.950421 
L 94.156773 117.645856 
L 94.156773 117.645856 
L 94.333504 115.945737 
L 94.333504 115.945737 
L 94.510235 121.420585 
L 94.510235 121.420585 
L 94.686966 130.432824 
L 94.686966 130.432824 
L 94.863697 129.304047 
L 94.863697 129.304047 
L 95.040428 133.662068 
L 95.040428 133.662068 
L 95.217158 141.394638 
L 95.217158 141.394638 
L 95.393889 141.294342 
L 95.393889 141.294342 
L 96.277543 162.777974 
L 96.277543 162.777974 
L 96.454274 161.510089 
L 96.454274 161.510089 
L 96.631005 165.985661 
L 96.631005 165.985661 
L 96.807736 166.996775 
L 96.807736 166.996775 
L 97.514659 178.689031 
L 97.514659 178.689031 
L 97.69139 179.633355 
L 97.69139 179.633355 
L 97.868121 181.617218 
L 97.868121 181.617218 
L 98.044852 185.715564 
L 98.044852 185.715564 
L 98.221583 185.501234 
L 98.221583 185.501234 
L 98.398313 188.601086 
L 98.398313 188.601086 
L 98.575044 188.913702 
L 98.575044 188.913702 
L 98.751775 190.846077 
L 98.751775 190.846077 
L 98.928506 191.448747 
L 98.928506 191.448747 
L 99.635429 196.901257 
L 99.635429 196.901257 
L 99.81216 197.014565 
L 99.81216 197.014565 
L 100.165622 198.32249 
L 100.165622 198.32249 
L 100.342353 198.686203 
L 100.342353 198.686203 
L 100.519083 198.72468 
L 100.519083 198.72468 
L 100.695814 199.172438 
L 100.695814 199.172438 
L 101.049276 199.448029 
L 101.049276 199.448029 
L 101.226007 199.31646 
L 101.226007 199.31646 
L 101.402738 199.533805 
L 101.402738 199.533805 
L 101.579469 199.355328 
L 101.579469 199.355328 
L 101.756199 199.575354 
L 101.756199 199.575354 
L 101.93293 199.39682 
L 101.93293 199.39682 
L 102.109661 199.61813 
L 102.109661 199.61813 
L 102.286392 199.343489 
L 102.286392 199.343489 
L 102.463123 199.520738 
L 102.463123 199.520738 
L 102.639854 199.097439 
L 102.639854 199.097439 
L 102.816584 197.552567 
L 102.816584 197.552567 
L 102.993315 198.527885 
L 102.993315 198.527885 
L 103.170046 196.716915 
L 103.170046 196.716915 
L 103.346777 197.439706 
L 103.346777 197.439706 
L 103.523508 195.443781 
L 103.523508 195.443781 
L 103.700239 195.759579 
L 103.700239 195.759579 
L 103.876969 193.53715 
L 103.876969 193.53715 
L 104.0537 193.384975 
L 104.0537 193.384975 
L 104.407162 189.458071 
L 104.407162 189.458071 
L 104.583893 187.732431 
L 104.583893 187.732431 
L 104.760624 181.055929 
L 104.937354 182.925981 
L 104.937354 182.925981 
L 105.114085 175.563434 
L 105.114085 175.563434 
L 105.290816 176.624026 
L 105.290816 176.624026 
L 105.467547 169.635188 
L 105.467547 169.635188 
L 105.644278 169.244223 
L 105.644278 169.244223 
L 105.997739 160.123144 
L 105.997739 160.123144 
L 106.17447 154.170549 
L 106.17447 154.170549 
L 106.351201 139.264184 
L 106.351201 139.264184 
L 106.527932 143.083142 
L 106.527932 143.083142 
L 106.704663 129.787099 
L 106.704663 129.787099 
L 106.881394 129.06777 
L 106.881394 129.06777 
L 107.058124 121.409696 
L 107.058124 121.409696 
L 107.234855 122.381495 
L 107.234855 122.381495 
L 107.411586 124.86494 
L 107.411586 124.86494 
L 107.588317 130.987524 
L 107.588317 130.987524 
L 107.765048 131.544234 
L 107.765048 131.544234 
L 108.29524 138.824412 
L 108.29524 138.824412 
L 108.648702 142.228726 
L 108.648702 142.228726 
L 109.532356 144.308362 
L 109.532356 144.308362 
L 109.709087 144.182434 
L 109.709087 144.182434 
L 109.885818 144.489911 
L 109.885818 144.489911 
L 110.062549 143.899751 
L 110.062549 143.899751 
L 110.41601 144.453557 
L 110.41601 144.453557 
L 110.592741 143.774604 
L 110.769472 144.054606 
L 110.769472 144.054606 
L 110.946203 143.757125 
L 110.946203 143.757125 
L 111.122934 143.07443 
L 111.122934 143.07443 
L 111.299664 143.869595 
L 111.476395 143.187626 
L 111.476395 143.187626 
L 111.653126 141.40335 
L 111.653126 141.40335 
L 111.829857 142.019813 
L 111.829857 142.019813 
L 112.183319 140.677153 
L 112.183319 140.677153 
L 112.360049 140.035448 
L 112.360049 140.035448 
L 112.53678 137.314386 
L 112.53678 137.314386 
L 112.713511 137.497834 
L 112.713511 137.497834 
L 112.890242 136.422388 
L 112.890242 136.422388 
L 113.066973 132.443604 
L 113.066973 132.443604 
L 113.243704 133.002325 
L 113.243704 133.002325 
L 113.420435 130.431205 
L 113.420435 130.431205 
L 113.597165 125.571648 
L 113.597165 125.571648 
L 113.773896 126.744877 
L 113.773896 126.744877 
L 114.834281 106.039936 
L 114.834281 106.039936 
L 115.011012 97.602892 
L 115.011012 97.602892 
L 115.187743 96.010273 
L 115.187743 96.010273 
L 115.364474 100.037082 
L 115.364474 100.037082 
L 115.541205 109.702139 
L 115.541205 109.702139 
L 115.717935 112.723921 
L 115.717935 112.723921 
L 116.071397 126.725611 
L 116.071397 126.725611 
L 116.248128 136.152772 
L 116.248128 136.152772 
L 116.424859 133.41317 
L 116.424859 133.41317 
L 116.77832 146.761428 
L 116.77832 146.761428 
L 116.955051 145.45998 
L 116.955051 145.45998 
L 117.131782 149.735184 
L 117.131782 149.735184 
L 117.308513 151.005415 
L 117.308513 151.005415 
L 117.838705 158.06054 
L 117.838705 158.06054 
L 118.368898 163.503557 
L 118.368898 163.503557 
L 118.72236 167.058651 
L 118.72236 167.058651 
L 118.89909 167.637922 
L 118.89909 167.637922 
L 119.075821 168.615976 
L 119.075821 168.615976 
L 119.252552 168.920103 
L 119.252552 168.920103 
L 119.606014 170.398075 
L 119.606014 170.398075 
L 119.782745 170.69578 
L 119.782745 170.69578 
L 119.959475 170.588391 
L 119.959475 170.588391 
L 120.136206 170.820926 
L 120.136206 170.820926 
L 120.312937 171.332403 
L 120.312937 171.332403 
L 120.489668 171.048826 
L 120.489668 171.048826 
L 120.666399 171.570411 
L 120.666399 171.570411 
L 120.84313 171.006385 
L 120.84313 171.006385 
L 121.01986 171.105341 
L 121.01986 171.105341 
L 121.196591 171.534335 
L 121.196591 171.534335 
L 121.373322 170.92837 
L 121.373322 170.92837 
L 121.550053 171.610674 
L 121.550053 171.610674 
L 121.726784 170.753802 
L 121.726784 170.753802 
L 121.903515 171.005044 
L 121.903515 171.005044 
L 122.080245 171.492787 
L 122.080245 171.492787 
L 122.256976 171.297724 
L 122.256976 171.297724 
L 122.433707 171.517917 
L 122.433707 171.517917 
L 122.610438 171.129186 
L 122.610438 171.129186 
L 122.787169 171.449452 
L 122.787169 171.449452 
L 122.9639 170.817129 
L 122.9639 170.817129 
L 123.14063 170.632508 
L 123.14063 170.632508 
L 123.317361 171.056086 
L 123.317361 171.056086 
L 123.494092 170.288676 
L 123.494092 170.288676 
L 123.670823 170.841086 
L 123.670823 170.841086 
L 123.847554 169.211107 
L 124.024285 169.427503 
L 124.024285 169.427503 
L 124.201015 170.118351 
L 124.201015 170.118351 
L 124.377746 169.436885 
L 124.377746 169.436885 
L 124.554477 169.821707 
L 124.554477 169.821707 
L 124.731208 168.128736 
L 124.731208 168.128736 
L 124.907939 168.477762 
L 124.907939 168.477762 
L 125.08467 167.769212 
L 125.08467 167.769212 
L 125.261401 167.789706 
L 125.261401 167.789706 
L 125.438131 168.408906 
L 125.438131 168.408906 
L 125.614862 166.604582 
L 125.614862 166.604582 
L 125.791593 167.111535 
L 125.791593 167.111535 
L 125.968324 166.103716 
L 125.968324 166.103716 
L 126.321786 166.429455 
L 126.321786 166.429455 
L 126.498516 163.906137 
L 126.498516 163.906137 
L 126.675247 164.675949 
L 126.675247 164.675949 
L 126.851978 163.920657 
L 126.851978 163.920657 
L 127.028709 164.118959 
L 127.028709 164.118959 
L 127.20544 163.37774 
L 127.20544 163.37774 
L 127.382171 161.545773 
L 127.382171 161.545773 
L 127.558901 162.616919 
L 127.558901 162.616919 
L 127.735632 160.792101 
L 127.735632 160.792101 
L 127.912363 161.035748 
L 127.912363 161.035748 
L 128.089094 160.263815 
L 128.089094 160.263815 
L 128.265825 158.215061 
L 128.265825 158.215061 
L 128.442556 159.61781 
L 128.442556 159.61781 
L 128.619286 158.439443 
L 128.619286 158.439443 
L 128.796017 158.450667 
L 128.796017 158.450667 
L 129.149479 154.878485 
L 129.149479 154.878485 
L 129.32621 156.132745 
L 129.32621 156.132745 
L 129.502941 154.800303 
L 129.502941 154.800303 
L 129.679671 154.614007 
L 129.679671 154.614007 
L 129.856402 154.247726 
L 129.856402 154.247726 
L 130.033133 151.203159 
L 130.033133 151.203159 
L 130.209864 152.251018 
L 130.209864 152.251018 
L 130.386595 151.032667 
L 130.386595 151.032667 
L 130.740056 150.303231 
L 130.740056 150.303231 
L 130.916787 147.188859 
L 130.916787 147.188859 
L 131.093518 147.609309 
L 131.093518 147.609309 
L 131.44698 145.905505 
L 131.44698 145.905505 
L 131.623711 145.581664 
L 131.623711 145.581664 
L 131.800441 143.314951 
L 131.800441 143.314951 
L 131.977172 143.010153 
L 131.977172 143.010153 
L 132.153903 141.811068 
L 132.153903 141.811068 
L 132.330634 139.40547 
L 132.330634 139.40547 
L 132.507365 140.378219 
L 132.507365 140.378219 
L 132.684096 138.256644 
L 132.684096 138.256644 
L 132.860826 137.93057 
L 132.860826 137.93057 
L 133.037557 136.669107 
L 133.037557 136.669107 
L 133.214288 134.479123 
L 133.214288 134.479123 
L 133.391019 134.491465 
L 133.391019 134.491465 
L 133.56775 133.579865 
L 133.56775 133.579865 
L 133.744481 130.421376 
L 133.744481 130.421376 
L 133.921211 130.768224 
L 133.921211 130.768224 
L 134.097942 129.073355 
L 134.097942 129.073355 
L 134.274673 126.052187 
L 134.274673 126.052187 
L 134.451404 126.721925 
L 134.451404 126.721925 
L 134.804866 121.357537 
L 134.804866 121.357537 
L 134.981596 122.310182 
L 134.981596 122.310182 
L 135.158327 119.802222 
L 135.158327 119.802222 
L 135.335058 119.323135 
L 135.335058 119.323135 
L 137.279097 97.557602 
L 137.279097 97.557602 
L 137.455828 93.120115 
L 137.455828 93.120115 
L 137.632559 94.179534 
L 137.632559 94.179534 
L 137.986021 86.594057 
L 137.986021 86.594057 
L 138.162752 87.131278 
L 138.162752 87.131278 
L 139.223137 66.243782 
L 139.223137 66.243782 
L 139.399867 67.085689 
L 139.576598 64.463639 
L 139.576598 64.463639 
L 139.753329 58.637754 
L 139.753329 58.637754 
L 139.93006 57.859957 
L 139.93006 57.859957 
L 140.283522 53.568 
L 140.283522 53.568 
L 150.53391 53.568 
L 150.53391 53.568 
L 150.710641 58.427222 
L 150.710641 58.427222 
L 150.887372 58.283312 
L 150.887372 58.283312 
L 151.240833 70.431478 
L 151.240833 70.431478 
L 151.594295 89.025511 
L 151.594295 89.025511 
L 151.771026 88.01462 
L 151.771026 88.01462 
L 152.124488 101.748649 
L 152.124488 101.748649 
L 152.301218 110.996551 
L 152.301218 110.996551 
L 152.477949 108.811369 
L 152.477949 108.811369 
L 153.361603 137.791407 
L 153.361603 137.791407 
L 153.538334 139.256757 
L 153.538334 139.256757 
L 153.715065 143.732218 
L 153.715065 143.732218 
L 153.891796 151.358852 
L 153.891796 151.358852 
L 154.068527 152.852292 
L 154.068527 152.852292 
L 154.245258 156.925564 
L 154.245258 156.925564 
L 154.421988 165.127616 
L 154.421988 165.127616 
L 154.598719 165.648921 
L 154.598719 165.648921 
L 154.77545 170.851641 
L 154.77545 170.851641 
L 154.952181 179.541156 
L 154.952181 179.541156 
L 155.128912 177.367535 
L 155.128912 177.367535 
L 155.305643 184.534963 
L 155.482373 184.65648 
L 155.482373 184.65648 
L 155.835835 191.563283 
L 155.835835 191.563283 
L 156.012566 194.65448 
L 156.012566 194.65448 
L 156.189297 201.859658 
L 156.189297 201.859658 
L 156.366028 200.782871 
L 156.366028 200.782871 
L 156.542758 206.777796 
L 156.542758 206.777796 
L 156.719489 206.505946 
L 156.719489 206.505946 
L 156.89622 211.217014 
L 156.89622 211.217014 
L 157.072951 211.799245 
L 157.072951 211.799245 
L 157.249682 215.505956 
L 157.249682 215.505956 
L 157.426413 216.754351 
L 157.426413 216.754351 
L 157.956605 223.917368 
L 157.956605 223.917368 
L 158.133336 225.076245 
L 158.133336 225.076245 
L 158.663528 230.496757 
L 158.663528 230.496757 
L 160.077375 240.924533 
L 160.077375 240.924533 
L 160.254106 241.565847 
L 160.254106 241.565847 
L 160.430837 243.090169 
L 160.430837 243.090169 
L 160.607568 243.367379 
L 160.607568 243.367379 
L 160.784299 244.153888 
L 160.784299 244.153888 
L 160.961029 244.311983 
L 161.314491 245.639566 
L 161.314491 245.639566 
L 161.491222 246.06454 
L 161.491222 246.06454 
L 161.667953 246.16182 
L 161.667953 246.16182 
L 161.844684 246.585174 
L 161.844684 246.585174 
L 162.021414 246.710265 
L 162.198145 247.243968 
L 162.198145 247.243968 
L 162.374876 247.413846 
L 162.374876 247.413846 
L 162.551607 246.983678 
L 162.551607 246.983678 
L 162.728338 247.379557 
L 162.728338 247.379557 
L 162.905069 246.995461 
L 162.905069 246.995461 
L 163.25853 247.352361 
L 163.25853 247.352361 
L 163.435261 247.507105 
L 163.435261 247.507105 
L 163.611992 247.333598 
L 163.611992 247.333598 
L 163.788723 247.563675 
L 163.788723 247.563675 
L 164.142184 247.206552 
L 164.142184 247.206552 
L 164.495646 247.303051 
L 164.495646 247.303051 
L 164.672377 247.362748 
L 164.672377 247.362748 
L 165.025839 246.987029 
L 165.025839 246.987029 
L 165.202569 246.170364 
L 165.202569 246.170364 
L 165.3793 246.034942 
L 165.3793 246.034942 
L 165.556031 245.442715 
L 165.556031 245.442715 
L 165.732762 245.545021 
L 165.732762 245.545021 
L 165.909493 244.360511 
L 165.909493 244.360511 
L 166.086224 244.562444 
L 166.086224 244.562444 
L 166.262954 242.726344 
L 166.262954 242.726344 
L 166.439685 243.367323 
L 166.439685 243.367323 
L 166.616416 241.507099 
L 166.616416 241.507099 
L 166.793147 242.342528 
L 166.793147 242.342528 
L 166.969878 239.266353 
L 166.969878 239.266353 
L 167.146609 240.450249 
L 167.146609 240.450249 
L 167.323339 237.164771 
L 167.323339 237.164771 
L 167.50007 238.919896 
L 167.50007 238.919896 
L 168.030263 235.346541 
L 168.030263 235.346541 
L 168.383724 233.061622 
L 168.383724 233.061622 
L 168.560455 230.964284 
L 168.560455 230.964284 
L 168.737186 230.598281 
L 168.737186 230.598281 
L 168.913917 228.537577 
L 168.913917 228.537577 
L 169.090648 228.35519 
L 169.090648 228.35519 
L 169.267379 225.174363 
L 169.267379 225.174363 
L 169.444109 225.17051 
L 169.444109 225.17051 
L 169.62084 222.042289 
L 169.62084 222.042289 
L 169.797571 222.214791 
L 169.797571 222.214791 
L 169.974302 218.787302 
L 169.974302 218.787302 
L 170.151033 219.110248 
L 170.151033 219.110248 
L 170.327764 215.44475 
L 170.327764 215.44475 
L 170.504494 215.868943 
L 170.504494 215.868943 
L 170.681225 212.008158 
L 170.681225 212.008158 
L 170.857956 212.494449 
L 170.857956 212.494449 
L 171.034687 208.50969 
L 171.034687 208.50969 
L 171.211418 209.002682 
L 171.211418 209.002682 
L 171.388149 204.971238 
L 171.388149 204.971238 
L 171.564879 205.402578 
L 171.564879 205.402578 
L 171.74161 201.401345 
L 171.74161 201.401345 
L 171.918341 201.704635 
L 171.918341 201.704635 
L 172.095072 197.813248 
L 172.095072 197.813248 
L 172.271803 197.918067 
L 172.271803 197.918067 
L 172.448534 194.212641 
L 172.448534 194.212641 
L 172.625265 194.046951 
L 172.625265 194.046951 
L 172.801995 190.514698 
L 172.801995 190.514698 
L 172.978726 190.1153 
L 172.978726 190.1153 
L 173.332188 185.929112 
L 173.332188 185.929112 
L 173.86238 179.895543 
L 173.86238 179.895543 
L 174.039111 174.646082 
L 174.039111 174.646082 
L 174.215842 175.788263 
L 174.215842 175.788263 
L 174.392573 171.134603 
L 174.392573 171.134603 
L 174.569304 171.940434 
L 174.746035 168.213619 
L 174.746035 168.213619 
L 174.922765 168.016545 
L 174.922765 168.016545 
L 175.276227 163.34993 
L 175.276227 163.34993 
L 175.452958 161.787634 
L 175.452958 161.787634 
L 175.629689 156.59815 
L 175.629689 156.59815 
L 175.80642 158.400296 
L 175.80642 158.400296 
L 175.98315 154.437707 
L 175.98315 154.437707 
L 176.159881 154.346849 
L 176.159881 154.346849 
L 176.336612 151.987713 
L 176.336612 151.987713 
L 176.513343 147.495946 
L 176.513343 147.495946 
L 176.690074 149.376497 
L 176.866805 145.156244 
L 176.866805 145.156244 
L 177.043535 145.391403 
L 177.043535 145.391403 
L 177.220266 143.012555 
L 177.220266 143.012555 
L 177.396997 138.643421 
L 177.396997 138.643421 
L 177.573728 140.695302 
L 177.573728 140.695302 
L 177.750459 136.908288 
L 177.750459 136.908288 
L 177.92719 136.965249 
L 177.92719 136.965249 
L 178.10392 134.731483 
L 178.10392 134.731483 
L 178.280651 129.862991 
L 178.280651 129.862991 
L 178.457382 131.21844 
L 178.457382 131.21844 
L 178.634113 127.816917 
L 178.634113 127.816917 
L 178.810844 126.615319 
L 178.987575 124.100043 
L 178.987575 124.100043 
L 179.164305 119.162974 
L 179.164305 119.162974 
L 179.341036 118.96093 
L 179.341036 118.96093 
L 179.517767 116.318385 
L 179.517767 116.318385 
L 179.694498 109.05686 
L 179.694498 109.05686 
L 179.871229 109.3549 
L 179.871229 109.3549 
L 180.04796 105.372655 
L 180.04796 105.372655 
L 180.22469 96.974143 
L 180.22469 96.974143 
L 180.401421 97.610096 
L 180.401421 97.610096 
L 181.638537 57.326534 
L 181.638537 57.326534 
L 181.815268 56.338093 
L 181.815268 56.338093 
L 181.991999 67.729851 
L 181.991999 67.729851 
L 182.16873 66.683722 
L 182.16873 66.683722 
L 182.34546 72.671666 
L 182.34546 72.671666 
L 182.522191 82.565293 
L 182.522191 82.565293 
L 182.698922 84.736681 
L 182.698922 84.736681 
L 183.936038 133.405687 
L 183.936038 133.405687 
L 184.112769 131.416463 
L 184.112769 131.416463 
L 184.466231 149.435245 
L 184.642961 147.940353 
L 184.819692 154.55995 
L 184.819692 154.55995 
L 184.996423 166.374895 
L 184.996423 166.374895 
L 185.173154 164.461898 
L 185.173154 164.461898 
L 185.349885 172.834889 
L 185.349885 172.834889 
L 185.526616 174.321851 
L 185.526616 174.321851 
L 185.703346 179.768275 
L 185.703346 179.768275 
L 185.880077 190.66073 
L 185.880077 190.66073 
L 186.056808 189.041473 
L 186.056808 189.041473 
L 186.233539 197.219792 
L 186.233539 197.219792 
L 186.41027 197.499962 
L 186.41027 197.499962 
L 186.763731 206.383815 
L 186.763731 206.383815 
L 186.940462 210.180435 
L 186.940462 210.180435 
L 187.117193 221.223 
L 187.117193 221.223 
L 187.293924 217.462958 
L 187.293924 217.462958 
L 187.470655 227.26595 
L 187.470655 227.26595 
L 187.647386 224.538131 
L 187.647386 224.538131 
L 187.824116 232.916428 
L 187.824116 232.916428 
L 188.000847 230.682327 
L 188.000847 230.682327 
L 188.177578 238.780732 
L 188.177578 238.780732 
L 188.354309 236.886108 
L 188.354309 236.886108 
L 188.53104 244.498893 
L 188.53104 244.498893 
L 188.707771 242.247425 
L 188.707771 242.247425 
L 189.414694 252.158755 
L 189.414694 252.158755 
L 189.591425 253.229622 
L 189.591425 253.229622 
L 189.768156 256.846647 
L 189.768156 256.846647 
L 189.944886 257.224544 
L 189.944886 257.224544 
L 190.121617 260.251353 
L 190.121617 260.251353 
L 190.298348 260.059807 
L 190.298348 260.059807 
L 190.475079 263.753339 
L 190.475079 263.753339 
L 190.65181 263.453679 
L 190.65181 263.453679 
L 190.828541 266.740888 
L 190.828541 266.740888 
L 191.005271 265.987774 
L 191.005271 265.987774 
L 191.535464 268.473565 
L 191.535464 268.473565 
L 191.712195 270.373159 
L 191.712195 270.373159 
L 191.888926 270.361376 
L 191.888926 270.361376 
L 192.242387 271.56666 
L 192.242387 271.56666 
L 192.419118 271.529188 
L 192.419118 271.529188 
L 192.595849 272.69231 
L 192.595849 272.69231 
L 193.126041 273.635071 
L 193.126041 273.635071 
L 193.302772 273.373609 
L 193.302772 273.373609 
L 193.479503 274.032793 
L 193.479503 274.032793 
L 193.656234 273.691697 
L 193.656234 273.691697 
L 193.832965 274.391927 
L 193.832965 274.391927 
L 194.009696 274.195411 
L 194.009696 274.195411 
L 194.363157 274.649089 
L 194.363157 274.649089 
L 194.539888 274.785907 
L 194.539888 274.785907 
L 194.89335 274.438333 
L 194.89335 274.438333 
L 195.246812 274.740059 
L 195.246812 274.740059 
L 195.423542 274.515342 
L 195.423542 274.515342 
L 195.777004 274.789034 
L 195.777004 274.789034 
L 196.307197 274.242376 
L 196.307197 274.242376 
L 196.483927 274.456482 
L 196.483927 274.456482 
L 196.660658 273.552198 
L 196.660658 273.552198 
L 196.837389 273.99951 
L 196.837389 273.99951 
L 197.01412 273.966115 
L 197.01412 273.966115 
L 197.190851 272.699402 
L 197.190851 272.699402 
L 197.367582 273.298889 
L 197.367582 273.298889 
L 197.544312 271.328149 
L 197.544312 271.328149 
L 197.721043 272.318545 
L 198.251236 270.226903 
L 198.251236 270.226903 
L 198.427967 267.678902 
L 198.427967 267.678902 
L 198.604697 268.8093 
L 198.604697 268.8093 
L 198.958159 266.390243 
L 198.958159 266.390243 
L 199.13489 265.710508 
L 199.13489 265.710508 
L 199.311621 263.095718 
L 199.311621 263.095718 
L 199.488352 263.339869 
L 199.488352 263.339869 
L 199.665082 258.366278 
L 199.665082 258.366278 
L 199.841813 260.676773 
L 199.841813 260.676773 
L 200.195275 256.293232 
L 200.195275 256.293232 
L 200.372006 255.55056 
L 200.372006 255.55056 
L 200.548737 251.208511 
L 200.548737 251.208511 
L 200.725467 251.779294 
L 200.725467 251.779294 
L 200.902198 245.847082 
L 200.902198 245.847082 
L 201.078929 247.661123 
L 201.078929 247.661123 
L 201.609122 240.714057 
L 201.609122 240.714057 
L 201.785852 236.244459 
L 201.785852 236.244459 
L 201.962583 235.809601 
L 201.962583 235.809601 
L 202.139314 230.157169 
L 202.139314 230.157169 
L 202.316045 230.910059 
L 202.316045 230.910059 
L 202.492776 222.91826 
L 202.492776 222.91826 
L 202.669507 225.119636 
L 202.669507 225.119636 
L 202.846237 215.523212 
L 202.846237 215.523212 
L 203.022968 218.646798 
L 203.022968 218.646798 
L 203.553161 208.606635 
L 203.553161 208.606635 
L 204.083353 194.839603 
L 204.083353 194.839603 
L 204.260084 192.883774 
L 204.260084 192.883774 
L 204.436815 185.659608 
L 204.436815 185.659608 
L 204.613546 184.001037 
L 204.613546 184.001037 
L 204.790277 176.355248 
L 204.790277 176.355248 
L 204.967007 174.497649 
L 204.967007 174.497649 
L 205.320469 164.699683 
L 205.320469 164.699683 
L 205.850662 148.71681 
L 205.850662 148.71681 
L 206.027392 135.864449 
L 206.027392 135.864449 
L 206.204123 137.818324 
L 206.204123 137.818324 
L 206.380854 127.142264 
L 206.380854 127.142264 
L 206.557585 126.512957 
L 206.557585 126.512957 
L 206.911047 115.034808 
L 206.911047 115.034808 
L 207.087778 109.815894 
L 207.087778 109.815894 
L 207.264508 99.182499 
L 207.264508 99.182499 
L 207.441239 98.147037 
L 207.441239 98.147037 
L 207.61797 92.982627 
L 207.61797 92.982627 
L 207.794701 81.385307 
L 207.794701 81.385307 
L 207.971432 82.254577 
L 207.971432 82.254577 
L 208.324893 65.279354 
L 208.324893 65.279354 
L 208.501624 66.21022 
L 208.501624 66.21022 
L 208.855086 53.568 
L 208.855086 53.568 
L 214.863934 53.568 
L 214.863934 53.568 
L 215.040665 57.47977 
L 215.040665 57.47977 
L 215.217396 57.798864 
L 215.217396 57.798864 
L 215.747588 72.105072 
L 215.747588 72.105072 
L 215.924319 78.494591 
L 215.924319 78.494591 
L 216.10105 77.414006 
L 216.10105 77.414006 
L 216.631243 93.006919 
L 216.631243 93.006919 
L 216.807973 92.768744 
L 216.807973 92.768744 
L 217.161435 103.016144 
L 217.161435 103.016144 
L 217.338166 109.862691 
L 217.338166 109.862691 
L 217.514897 108.80411 
L 217.514897 108.80411 
L 217.691628 112.683881 
L 217.691628 112.683881 
L 217.868358 119.932339 
L 217.868358 119.932339 
L 218.045089 120.044977 
L 218.928744 141.057786 
L 218.928744 141.057786 
L 219.105474 142.577194 
L 219.105474 142.577194 
L 219.989129 162.143752 
L 219.989129 162.143752 
L 220.165859 161.975382 
L 220.165859 161.975382 
L 220.519321 172.347873 
L 220.519321 172.347873 
L 220.696052 171.047207 
L 220.696052 171.047207 
L 220.872783 176.342292 
L 220.872783 176.342292 
L 221.049514 176.632291 
L 221.049514 176.632291 
L 221.226244 179.663064 
L 221.226244 179.663064 
L 221.402975 180.649663 
L 221.402975 180.649663 
L 222.109899 190.617562 
L 222.109899 190.617562 
L 222.286629 191.300313 
L 222.286629 191.300313 
L 222.993553 198.716191 
L 222.993553 198.716191 
L 223.170284 198.396372 
L 223.170284 198.396372 
L 223.347014 200.401288 
L 223.347014 200.401288 
L 223.523745 200.539391 
L 223.523745 200.539391 
L 223.700476 201.818389 
L 224.053938 202.975703 
L 224.053938 202.975703 
L 224.407399 203.895345 
L 224.407399 203.895345 
L 225.114323 205.087729 
L 225.114323 205.087729 
L 225.291054 205.115986 
L 225.291054 205.115986 
L 225.467784 205.315238 
L 225.467784 205.315238 
L 225.644515 205.176297 
L 225.644515 205.176297 
L 225.821246 205.393587 
L 225.997977 205.209581 
L 225.997977 205.209581 
L 226.174708 205.427149 
L 226.351439 205.237949 
L 226.351439 205.237949 
L 226.528169 205.456579 
L 226.528169 205.456579 
L 226.7049 205.229796 
L 226.881631 205.412127 
L 226.881631 205.412127 
L 227.058362 205.109284 
L 227.058362 205.109284 
L 227.235093 204.422792 
L 227.235093 204.422792 
L 227.411824 204.774108 
L 227.411824 204.774108 
L 227.588554 203.807502 
L 227.588554 203.807502 
L 227.765285 204.148486 
L 227.765285 204.148486 
L 227.942016 202.904502 
L 227.942016 202.904502 
L 228.118747 203.151947 
L 228.118747 203.151947 
L 228.295478 201.668895 
L 228.295478 201.668895 
L 228.472209 201.709996 
L 228.472209 201.709996 
L 228.648939 200.044333 
L 228.648939 200.044333 
L 228.82567 199.538441 
L 228.82567 199.538441 
L 229.355863 195.267927 
L 229.355863 195.267927 
L 229.532594 189.929395 
L 229.532594 189.929395 
L 229.709324 191.442325 
L 229.709324 191.442325 
L 229.886055 185.718859 
L 229.886055 185.718859 
L 230.062786 186.879244 
L 230.062786 186.879244 
L 230.239517 181.128749 
L 230.239517 181.128749 
L 230.416248 181.432597 
L 230.416248 181.432597 
L 230.592979 175.758944 
L 230.592979 175.758944 
L 230.76971 174.633797 
L 230.76971 174.633797 
L 231.123171 166.72984 
L 231.123171 166.72984 
L 231.299902 162.718835 
L 231.299902 162.718835 
L 231.476633 150.230242 
L 231.476633 150.230242 
L 231.653364 152.776121 
L 231.653364 152.776121 
L 231.830095 142.071525 
L 231.830095 142.071525 
L 232.006825 141.807438 
L 232.006825 141.807438 
L 232.360287 129.861204 
L 232.360287 129.861204 
L 232.537018 122.921062 
L 232.537018 122.921062 
L 232.713749 108.640877 
L 232.713749 108.640877 
L 232.89048 109.06278 
L 232.89048 109.06278 
L 233.243941 87.093583 
L 233.243941 87.093583 
L 233.420672 89.871661 
L 233.420672 89.871661 
L 233.597403 80.661008 
L 233.597403 80.661008 
L 233.774134 78.992329 
L 233.774134 78.992329 
L 234.127595 66.533613 
L 234.127595 66.533613 
L 234.304326 58.907202 
L 234.304326 58.907202 
L 234.481057 60.671989 
L 234.481057 60.671989 
L 234.834519 53.568 
L 234.834519 53.568 
L 241.196829 53.568 
L 241.196829 53.568 
L 241.55029 58.765582 
L 241.55029 58.765582 
L 241.903752 65.962551 
L 241.903752 65.962551 
L 242.080483 66.970091 
L 242.080483 66.970091 
L 242.433945 71.85059 
L 242.433945 71.85059 
L 242.787406 80.412055 
L 242.787406 80.412055 
L 242.964137 79.495429 
L 242.964137 79.495429 
L 243.49433 90.418376 
L 243.49433 90.418376 
L 243.671061 90.47623 
L 244.731446 109.315865 
L 244.731446 109.315865 
L 244.908176 109.844151 
L 244.908176 109.844151 
L 245.261638 116.216861 
L 245.261638 116.216861 
L 245.438369 120.302809 
L 245.438369 120.302809 
L 245.6151 119.898944 
L 245.6151 119.898944 
L 245.968561 127.353355 
L 245.968561 127.353355 
L 246.145292 126.665635 
L 246.145292 126.665635 
L 246.498754 132.542951 
L 246.498754 132.542951 
L 246.675485 132.454773 
L 246.675485 132.454773 
L 247.028946 137.193539 
L 247.028946 137.193539 
L 247.205677 137.154784 
L 247.205677 137.154784 
L 247.559139 140.806376 
L 247.559139 140.806376 
L 247.73587 140.756563 
L 247.73587 140.756563 
L 248.089331 143.70156 
L 248.089331 143.70156 
L 248.266062 143.319474 
L 248.266062 143.319474 
L 248.442793 144.561615 
L 248.442793 144.561615 
L 248.619524 144.639574 
L 248.619524 144.639574 
L 249.149716 145.66571 
L 249.149716 145.66571 
L 249.326447 146.137146 
L 249.326447 146.137146 
L 249.503178 145.731438 
L 249.503178 145.731438 
L 249.85664 146.214267 
L 249.85664 146.214267 
L 250.033371 145.729037 
L 250.210101 146.007029 
L 250.210101 146.007029 
L 250.563563 145.646332 
L 250.563563 145.646332 
L 250.740294 146.379063 
L 250.740294 146.379063 
L 251.093756 145.885792 
L 251.093756 145.885792 
L 251.270486 145.971624 
L 251.270486 145.971624 
L 251.447217 145.243975 
L 251.447217 145.243975 
L 251.623948 145.013394 
L 251.623948 145.013394 
L 251.800679 144.393078 
L 251.800679 144.393078 
L 251.97741 142.861999 
L 251.97741 142.861999 
L 252.154141 143.210634 
L 252.154141 143.210634 
L 252.330871 142.019869 
L 252.330871 142.019869 
L 252.507602 139.616393 
L 252.507602 139.616393 
L 252.684333 140.326005 
L 252.684333 140.326005 
L 252.861064 138.30495 
L 252.861064 138.30495 
L 253.037795 137.936881 
L 253.037795 137.936881 
L 253.214526 136.339292 
L 253.214526 136.339292 
L 253.391256 133.350625 
L 253.391256 133.350625 
L 253.567987 133.24413 
L 253.567987 133.24413 
L 253.744718 131.759793 
L 253.744718 131.759793 
L 253.921449 127.342801 
L 253.921449 127.342801 
L 254.09818 127.616381 
L 254.09818 127.616381 
L 254.274911 125.630452 
L 254.274911 125.630452 
L 254.451642 120.522332 
L 254.451642 120.522332 
L 254.628372 121.177496 
L 254.628372 121.177496 
L 254.805103 118.114947 
L 254.805103 118.114947 
L 254.981834 113.065688 
L 254.981834 113.065688 
L 255.158565 113.895867 
L 255.335296 110.493339 
L 255.335296 110.493339 
L 255.512027 104.883628 
L 255.512027 104.883628 
L 255.688757 106.189878 
L 255.688757 106.189878 
L 256.042219 96.364436 
L 256.042219 96.364436 
L 256.21895 97.756296 
L 256.21895 97.756296 
L 256.572412 87.865349 
L 256.572412 87.865349 
L 256.749142 88.522579 
L 256.749142 88.522579 
L 256.925873 84.973572 
L 256.925873 84.973572 
L 257.102604 78.941958 
L 257.102604 78.941958 
L 257.279335 77.94715 
L 257.456066 74.796033 
L 257.456066 74.796033 
L 257.809527 62.307776 
L 257.809527 62.307776 
L 257.986258 63.794123 
L 257.986258 63.794123 
L 258.33972 53.568 
L 258.33972 53.568 
L 276.189534 53.568 
L 276.189534 53.568 
L 276.366265 59.498927 
L 276.366265 59.498927 
L 276.542996 59.966566 
L 276.542996 59.966566 
L 276.896458 73.673957 
L 276.896458 73.673957 
L 277.249919 95.433124 
L 277.249919 95.433124 
L 277.42665 93.99994 
L 277.42665 93.99994 
L 277.780112 111.087688 
L 277.780112 111.087688 
L 277.956843 124.020018 
L 277.956843 124.020018 
L 278.133574 120.66736 
L 278.310304 128.693112 
L 278.310304 128.693112 
L 278.487035 142.434121 
L 278.487035 142.434121 
L 278.663766 140.993733 
L 278.663766 140.993733 
L 278.840497 147.924885 
L 278.840497 147.924885 
L 279.017228 161.906303 
L 279.193959 160.038596 
L 279.193959 160.038596 
L 279.370689 168.646244 
L 279.370689 168.646244 
L 279.54742 183.141037 
L 279.54742 183.141037 
L 279.724151 178.648153 
L 279.724151 178.648153 
L 279.900882 190.376651 
L 279.900882 190.376651 
L 280.077613 190.294337 
L 280.077613 190.294337 
L 280.254344 198.141555 
L 280.254344 198.141555 
L 280.431074 200.847036 
L 280.431074 200.847036 
L 280.607805 206.049141 
L 280.607805 206.049141 
L 280.784536 219.421356 
L 280.784536 219.421356 
L 280.961267 215.605637 
L 280.961267 215.605637 
L 281.137998 227.006386 
L 281.137998 227.006386 
L 281.314729 224.005713 
L 281.314729 224.005713 
L 281.491459 234.000362 
L 281.491459 234.000362 
L 281.66819 232.327328 
L 281.66819 232.327328 
L 281.844921 241.152768 
L 281.844921 241.152768 
L 282.021652 239.345428 
L 282.021652 239.345428 
L 282.198383 247.991553 
L 282.198383 247.991553 
L 282.375114 246.386984 
L 282.375114 246.386984 
L 282.551844 254.785272 
L 282.551844 254.785272 
L 282.728575 251.856526 
L 282.728575 251.856526 
L 283.612229 264.810859 
L 283.612229 264.810859 
L 283.78896 270.791487 
L 283.78896 270.791487 
L 283.965691 269.808519 
L 283.965691 269.808519 
L 284.142422 271.567777 
L 284.672614 279.282254 
L 284.672614 279.282254 
L 284.849345 279.354851 
L 284.849345 279.354851 
L 285.026076 284.002647 
L 285.026076 284.002647 
L 285.202807 282.516355 
L 285.202807 282.516355 
L 285.90973 289.409589 
L 285.90973 289.409589 
L 286.086461 289.113224 
L 286.086461 289.113224 
L 286.263192 289.885046 
L 286.263192 289.885046 
L 286.439923 291.583154 
L 286.439923 291.583154 
L 286.616654 291.989756 
L 286.616654 291.989756 
L 286.793384 293.533232 
L 286.793384 293.533232 
L 286.970115 293.235415 
L 287.323577 294.43545 
L 287.323577 294.43545 
L 287.500308 294.649109 
L 287.677039 295.077434 
L 287.677039 295.077434 
L 287.853769 295.046217 
L 287.853769 295.046217 
L 288.0305 295.35336 
L 288.0305 295.35336 
L 288.207231 295.264903 
L 288.207231 295.264903 
L 288.383962 295.402112 
L 288.383962 295.402112 
L 288.560693 295.225979 
L 288.560693 295.225979 
L 288.914155 295.488 
L 288.914155 295.488 
L 289.090885 295.279757 
L 289.090885 295.279757 
L 289.267616 295.411382 
L 289.267616 295.411382 
L 289.444347 295.105188 
L 289.444347 295.105188 
L 289.797809 295.393568 
L 289.797809 295.393568 
L 289.97454 294.841716 
L 289.97454 294.841716 
L 290.15127 295.037785 
L 290.15127 295.037785 
L 290.504732 294.259987 
L 290.504732 294.259987 
L 290.681463 294.247199 
L 290.681463 294.247199 
L 290.858194 292.675298 
L 290.858194 292.675298 
L 291.034925 293.086758 
L 291.565117 290.908948 
L 291.565117 290.908948 
L 291.741848 288.111492 
L 291.741848 288.111492 
L 291.918579 288.729686 
L 291.918579 288.729686 
L 292.09531 287.833667 
L 292.09531 287.833667 
L 292.27204 285.656639 
L 292.27204 285.656639 
L 292.448771 285.145889 
L 292.448771 285.145889 
L 292.625502 281.732527 
L 292.625502 281.732527 
L 292.802233 282.087193 
L 292.802233 282.087193 
L 292.978964 276.718729 
L 292.978964 276.718729 
L 293.155695 278.343793 
L 293.155695 278.343793 
L 293.332425 277.06217 
L 293.332425 277.06217 
L 293.509156 273.603072 
L 293.509156 273.603072 
L 293.685887 273.875536 
L 293.685887 273.875536 
L 293.862618 267.517848 
L 293.862618 267.517848 
L 294.039349 269.482054 
L 294.039349 269.482054 
L 294.21608 268.049931 
L 294.21608 268.049931 
L 294.39281 263.71972 
L 294.39281 263.71972 
L 294.569541 264.347967 
L 294.569541 264.347967 
L 294.746272 256.577534 
L 294.746272 256.577534 
L 294.923003 259.072929 
L 294.923003 259.072929 
L 295.099734 257.396097 
L 295.099734 257.396097 
L 295.276465 252.505938 
L 295.276465 252.505938 
L 295.453195 253.005296 
L 295.453195 253.005296 
L 295.629926 244.417975 
L 295.629926 244.417975 
L 295.806657 247.3427 
L 295.806657 247.3427 
L 296.33685 239.110827 
L 296.33685 239.110827 
L 296.51358 231.607273 
L 296.51358 231.607273 
L 296.690311 232.667363 
L 296.690311 232.667363 
L 296.867042 223.677014 
L 296.867042 223.677014 
L 297.043773 226.703097 
L 297.043773 226.703097 
L 298.104158 204.090073 
L 298.104158 204.090073 
L 298.280889 203.432229 
L 298.280889 203.432229 
L 298.45762 197.068175 
L 298.63435 197.243861 
L 298.63435 197.243861 
L 298.811081 191.109717 
L 298.811081 191.109717 
L 298.987812 191.443497 
L 298.987812 191.443497 
L 299.164543 185.864891 
L 299.164543 185.864891 
L 299.341274 186.129425 
L 299.518005 181.308735 
L 299.518005 181.308735 
L 299.694735 181.326047 
L 299.694735 181.326047 
L 299.871466 177.19157 
L 299.871466 177.19157 
L 300.048197 176.979306 
L 300.048197 176.979306 
L 300.224928 173.580185 
L 300.224928 173.580185 
L 300.401659 172.786919 
L 300.401659 172.786919 
L 301.108582 161.095893 
L 301.108582 161.095893 
L 301.285313 162.162739 
L 301.285313 162.162739 
L 301.462044 157.280621 
L 301.462044 157.280621 
L 301.638775 157.183452 
L 301.638775 157.183452 
L 301.992236 151.289885 
L 301.992236 151.289885 
L 302.168967 148.224823 
L 302.168967 148.224823 
L 302.345698 139.546588 
L 302.345698 139.546588 
L 302.522429 140.665816 
L 302.522429 140.665816 
L 302.69916 136.116362 
L 302.69916 136.116362 
L 302.875891 137.656934 
L 302.875891 137.656934 
L 303.052621 142.075546 
L 303.052621 142.075546 
L 303.229352 155.893453 
L 303.229352 155.893453 
L 303.406083 154.178367 
L 303.406083 154.178367 
L 303.582814 165.332788 
L 303.582814 165.332788 
L 303.759545 167.803556 
L 303.759545 167.803556 
L 303.936276 174.146612 
L 303.936276 174.146612 
L 304.113006 186.279255 
L 304.113006 186.279255 
L 304.289737 184.289695 
L 304.289737 184.289695 
L 304.466468 192.042091 
L 304.466468 192.042091 
L 304.643199 192.953467 
L 304.996661 201.491254 
L 304.996661 201.491254 
L 305.173391 205.01541 
L 305.173391 205.01541 
L 305.350122 213.806954 
L 305.350122 213.806954 
L 305.526853 211.657903 
L 305.526853 211.657903 
L 305.703584 218.195745 
L 305.703584 218.195745 
L 305.880315 217.667571 
L 305.880315 217.667571 
L 306.057046 222.884307 
L 306.057046 222.884307 
L 306.233776 223.058708 
L 306.233776 223.058708 
L 306.410507 227.358037 
L 306.410507 227.358037 
L 306.587238 227.904081 
L 306.587238 227.904081 
L 306.763969 231.749341 
L 306.763969 231.749341 
L 306.9407 232.265006 
L 306.9407 232.265006 
L 307.117431 236.101833 
L 307.117431 236.101833 
L 307.294161 236.194032 
L 307.294161 236.194032 
L 307.470892 239.190461 
L 307.470892 239.190461 
L 307.647623 239.841157 
L 307.647623 239.841157 
L 307.824354 242.937156 
L 307.824354 242.937156 
L 308.001085 243.33203 
L 308.001085 243.33203 
L 308.177816 246.032988 
L 308.177816 246.032988 
L 308.354546 246.183041 
L 308.354546 246.183041 
L 308.531277 248.824804 
L 308.531277 248.824804 
L 308.708008 248.728417 
L 308.708008 248.728417 
L 308.884739 251.276194 
L 308.884739 251.276194 
L 309.06147 251.273067 
L 309.06147 251.273067 
L 309.238201 253.126031 
L 309.238201 253.126031 
L 309.414931 252.815147 
L 309.414931 252.815147 
L 309.591662 255.370854 
L 309.591662 255.370854 
L 309.768393 254.916953 
L 309.768393 254.916953 
L 309.945124 255.582336 
L 309.945124 255.582336 
L 310.121855 256.987709 
L 310.121855 256.987709 
L 310.298586 257.334055 
L 310.298586 257.334055 
L 310.475316 257.935719 
L 310.475316 257.935719 
L 310.652047 258.094038 
L 310.652047 258.094038 
L 310.828778 259.560281 
L 310.828778 259.560281 
L 311.005509 259.439044 
L 311.18224 259.630422 
L 311.18224 259.630422 
L 311.358971 260.374321 
L 311.358971 260.374321 
L 311.535701 260.315015 
L 311.535701 260.315015 
L 311.712432 260.995196 
L 311.712432 260.995196 
L 311.889163 260.821856 
L 311.889163 260.821856 
L 312.242625 261.125983 
L 312.242625 261.125983 
L 312.419356 261.452951 
L 312.419356 261.452951 
L 312.772817 261.240631 
L 312.772817 261.240631 
L 312.949548 261.69565 
L 312.949548 261.69565 
L 313.126279 261.581951 
L 313.126279 261.581951 
L 313.479741 261.739208 
L 313.479741 261.739208 
L 313.656472 261.20908 
L 313.656472 261.20908 
L 313.833202 261.49355 
L 313.833202 261.49355 
L 314.009933 261.316691 
L 314.009933 261.316691 
L 314.186664 261.687273 
L 314.186664 261.687273 
L 314.540126 261.493661 
L 314.540126 261.493661 
L 314.716857 260.799909 
L 314.716857 260.799909 
L 314.893587 261.00737 
L 314.893587 261.00737 
L 315.070318 260.8089 
L 315.070318 260.8089 
L 315.247049 260.04216 
L 315.247049 260.04216 
L 315.42378 260.516891 
L 315.42378 260.516891 
L 315.600511 258.375995 
L 315.600511 258.375995 
L 315.777242 259.677554 
L 315.777242 259.677554 
L 316.130703 257.963306 
L 316.130703 257.963306 
L 316.307434 257.754505 
L 316.307434 257.754505 
L 316.484165 255.28826 
L 316.484165 255.28826 
L 316.660896 255.642647 
L 316.660896 255.642647 
L 316.837627 253.16233 
L 316.837627 253.16233 
L 317.014357 254.341311 
L 317.014357 254.341311 
L 317.54455 251.02819 
L 317.54455 251.02819 
L 317.721281 248.073477 
L 317.721281 248.073477 
L 317.898012 248.073142 
L 317.898012 248.073142 
L 318.074742 244.856854 
L 318.074742 244.856854 
L 318.251473 245.621695 
L 318.251473 245.621695 
L 318.428204 240.206433 
L 318.428204 240.206433 
L 318.604935 242.048899 
L 318.604935 242.048899 
L 319.135127 237.291593 
L 319.135127 237.291593 
L 319.311858 233.906432 
L 319.311858 233.906432 
L 319.488589 233.258082 
L 319.488589 233.258082 
L 319.66532 229.114614 
L 319.66532 229.114614 
L 319.842051 229.413436 
L 319.842051 229.413436 
L 320.018782 224.816458 
L 320.018782 224.816458 
L 320.195512 225.762291 
L 320.195512 225.762291 
L 320.372243 219.667629 
L 320.372243 219.667629 
L 320.548974 221.544885 
L 320.548974 221.544885 
L 320.725705 214.84599 
L 320.725705 214.84599 
L 320.902436 217.160338 
L 320.902436 217.160338 
L 321.079167 209.959683 
L 321.079167 209.959683 
L 321.255897 212.622667 
L 321.255897 212.622667 
L 322.669744 192.750027 
L 322.669744 192.750027 
L 322.846475 185.582711 
L 322.846475 185.582711 
L 323.023206 187.690827 
L 323.023206 187.690827 
L 323.199937 180.500056 
L 323.199937 180.500056 
L 323.376667 182.378709 
L 323.376667 182.378709 
L 323.553398 175.56846 
L 323.730129 176.874319 
L 323.730129 176.874319 
L 323.90686 170.862865 
L 323.90686 170.862865 
L 324.083591 171.135496 
L 324.083591 171.135496 
L 324.260322 165.712863 
L 324.260322 165.712863 
L 324.437053 164.959637 
L 324.437053 164.959637 
L 324.790514 158.038538 
L 324.790514 158.038538 
L 324.967245 154.87681 
L 324.967245 154.87681 
L 325.143976 145.632483 
L 325.143976 145.632483 
L 325.320707 147.518507 
L 325.497438 139.996022 
L 325.497438 139.996022 
L 325.674168 139.372019 
L 325.674168 139.372019 
L 325.850899 134.511122 
L 325.850899 134.511122 
L 326.02763 123.923911 
L 326.02763 123.923911 
L 326.204361 126.426063 
L 326.204361 126.426063 
L 326.381092 117.858288 
L 326.381092 117.858288 
L 326.557823 117.462967 
L 326.557823 117.462967 
L 326.734553 113.381039 
L 326.734553 113.381039 
L 326.911284 117.049664 
L 326.911284 117.049664 
L 327.088015 116.386236 
L 327.088015 116.386236 
L 327.441477 133.190911 
L 327.441477 133.190911 
L 327.618208 131.459575 
L 327.618208 131.459575 
L 327.794938 138.932694 
L 327.794938 138.932694 
L 327.971669 140.945316 
L 327.971669 140.945316 
L 328.855323 165.603743 
L 328.855323 165.603743 
L 329.032054 165.052171 
L 329.032054 165.052171 
L 329.385516 171.907877 
L 329.385516 171.907877 
L 329.562247 174.938985 
L 329.562247 174.938985 
L 329.738978 181.366757 
L 329.915708 181.048111 
L 329.915708 181.048111 
L 330.092439 185.045713 
L 330.092439 185.045713 
L 330.26917 186.236534 
L 330.26917 186.236534 
L 330.445901 188.503694 
L 330.445901 188.503694 
L 330.622632 194.011434 
L 330.622632 194.011434 
L 330.799363 192.855516 
L 330.799363 192.855516 
L 330.976093 196.956598 
L 330.976093 196.956598 
L 331.152824 196.790797 
L 331.152824 196.790797 
L 331.329555 199.643986 
L 331.329555 199.643986 
L 331.506286 200.238782 
L 331.506286 200.238782 
L 331.683017 202.089848 
L 331.683017 202.089848 
L 331.859748 202.741437 
L 331.859748 202.741437 
L 332.036478 204.239065 
L 332.036478 204.239065 
L 332.213209 206.845423 
L 332.213209 206.845423 
L 332.38994 206.336292 
L 332.38994 206.336292 
L 332.566671 208.109902 
L 332.566671 208.109902 
L 332.743402 207.974256 
L 332.743402 207.974256 
L 332.920133 209.025746 
L 332.920133 209.025746 
L 333.096863 209.138216 
L 333.096863 209.138216 
L 333.450325 209.875917 
L 333.450325 209.875917 
L 334.157248 210.405766 
L 334.157248 210.405766 
L 334.333979 210.223212 
L 334.333979 210.223212 
L 334.51071 210.437541 
L 334.51071 210.437541 
L 334.687441 210.440725 
L 334.687441 210.440725 
L 334.864172 210.745354 
L 334.864172 210.745354 
L 335.040903 210.448096 
L 335.040903 210.448096 
L 335.217633 209.890883 
L 335.217633 209.890883 
L 335.394364 210.164855 
L 335.394364 210.164855 
L 335.571095 209.547553 
L 335.571095 209.547553 
L 335.747826 209.860057 
L 335.747826 209.860057 
L 335.924557 208.968506 
L 335.924557 208.968506 
L 336.101288 209.272186 
L 336.101288 209.272186 
L 336.278019 208.062267 
L 336.278019 208.062267 
L 336.454749 208.29173 
L 336.454749 208.29173 
L 336.63148 206.741497 
L 336.63148 206.741497 
L 336.808211 206.831462 
L 336.808211 206.831462 
L 336.984942 205.016304 
L 336.984942 205.016304 
L 337.161673 204.798456 
L 337.161673 204.798456 
L 337.338404 202.729766 
L 337.338404 202.729766 
L 337.515134 202.082085 
L 337.515134 202.082085 
L 338.045327 195.7765 
L 338.045327 195.7765 
L 338.222058 189.307124 
L 338.222058 189.307124 
L 338.398789 191.103071 
L 338.398789 191.103071 
L 338.575519 183.533957 
L 338.575519 183.533957 
L 338.75225 184.956474 
L 338.75225 184.956474 
L 338.928981 177.164039 
L 338.928981 177.164039 
L 339.105712 177.445549 
L 339.105712 177.445549 
L 339.282443 169.492953 
L 339.282443 169.492953 
L 339.459174 168.286719 
L 339.459174 168.286719 
L 339.635904 160.263815 
L 339.635904 160.263815 
L 339.989366 154.551127 
L 339.989366 154.551127 
L 340.166097 164.627979 
L 340.166097 164.627979 
L 340.342828 162.750275 
L 340.342828 162.750275 
L 340.519559 171.017889 
L 340.519559 171.017889 
L 340.696289 171.005882 
L 340.696289 171.005882 
L 340.87302 176.810601 
L 340.87302 176.810601 
L 341.049751 178.161974 
L 341.049751 178.161974 
L 341.403213 184.720142 
L 341.403213 184.720142 
L 341.579944 184.882313 
L 341.579944 184.882313 
L 341.756674 186.818765 
L 341.756674 186.818765 
L 341.933405 186.737344 
L 341.933405 186.737344 
L 342.110136 187.750245 
L 342.110136 187.750245 
L 342.286867 187.824239 
L 342.286867 187.824239 
L 342.463598 188.253848 
L 342.463598 188.253848 
L 342.640329 187.77141 
L 342.640329 187.77141 
L 342.817059 188.378548 
L 342.817059 188.378548 
L 342.99379 188.219783 
L 342.99379 188.219783 
L 343.170521 188.433163 
L 343.170521 188.433163 
L 343.347252 188.274286 
L 343.347252 188.274286 
L 343.523983 188.400048 
L 343.523983 188.400048 
L 343.700714 187.950893 
L 343.700714 187.950893 
L 343.877444 186.307121 
L 343.877444 186.307121 
L 344.054175 187.168852 
L 344.054175 187.168852 
L 344.230906 185.229831 
L 344.230906 185.229831 
L 344.407637 185.165108 
L 344.407637 185.165108 
L 344.937829 179.404338 
L 344.937829 179.404338 
L 345.11456 172.087416 
L 345.11456 172.087416 
L 345.291291 173.852761 
L 345.291291 173.852761 
L 345.468022 166.863922 
L 345.644753 166.010624 
L 345.998214 156.881726 
L 345.998214 156.881726 
L 346.351676 148.385599 
L 346.351676 148.385599 
L 346.528407 146.600317 
L 346.528407 146.600317 
L 346.705138 157.147321 
L 346.705138 157.147321 
L 346.881869 158.092483 
L 346.881869 158.092483 
L 347.23533 172.230823 
L 347.23533 172.230823 
L 347.412061 170.845777 
L 347.412061 170.845777 
L 347.588792 176.031855 
L 347.588792 176.031855 
L 347.765523 176.712874 
L 347.765523 176.712874 
L 348.118985 182.486376 
L 348.118985 182.486376 
L 348.295715 182.407804 
L 348.295715 182.407804 
L 348.472446 184.40842 
L 348.472446 184.40842 
L 349.17937 186.244799 
L 349.17937 186.244799 
L 349.709562 186.452539 
L 349.709562 186.452539 
L 349.886293 186.276686 
L 349.886293 186.276686 
L 350.063024 186.509165 
L 350.063024 186.509165 
L 350.239755 185.89259 
L 350.239755 185.89259 
L 350.416485 186.558978 
L 350.416485 186.558978 
L 350.593216 186.312147 
L 350.769947 186.550713 
L 350.769947 186.550713 
L 351.123409 185.954968 
L 351.123409 185.954968 
L 351.30014 185.984788 
L 351.30014 185.984788 
L 351.47687 185.056045 
L 351.47687 185.056045 
L 351.653601 185.540437 
L 351.653601 185.540437 
L 351.830332 184.528262 
L 351.830332 184.528262 
L 352.007063 184.884994 
L 352.007063 184.884994 
L 352.183794 183.917215 
L 352.183794 183.917215 
L 352.713986 183.169015 
L 352.713986 183.169015 
L 352.890717 182.474705 
L 352.890717 182.474705 
L 353.067448 180.481181 
L 353.067448 180.481181 
L 353.244179 181.45192 
L 353.244179 181.45192 
L 353.42091 180.046937 
L 353.42091 180.046937 
L 353.59764 180.342576 
L 353.59764 180.342576 
L 353.774371 179.139134 
L 353.774371 179.139134 
L 354.127833 178.15181 
L 354.127833 178.15181 
L 354.304564 176.075469 
L 354.304564 176.075469 
L 354.481295 176.891408 
L 354.481295 176.891408 
L 354.658025 174.906986 
L 354.658025 174.906986 
L 354.834756 175.357984 
L 354.834756 175.357984 
L 355.011487 173.658758 
L 355.011487 173.658758 
L 355.188218 173.200054 
L 355.188218 173.200054 
L 355.364949 172.293704 
L 355.364949 172.293704 
L 355.54168 168.981867 
L 355.54168 168.981867 
L 355.71841 170.543716 
L 355.71841 170.543716 
L 355.895141 167.725709 
L 355.895141 167.725709 
L 356.071872 168.241541 
L 356.071872 168.241541 
L 356.248603 166.111255 
L 356.248603 166.111255 
L 356.425334 165.796741 
L 356.425334 165.796741 
L 356.602065 164.302519 
L 356.602065 164.302519 
L 356.778795 160.522653 
L 356.778795 160.522653 
L 356.955526 161.716154 
L 356.955526 161.716154 
L 357.132257 158.654499 
L 357.132257 158.654499 
L 357.308988 158.782996 
L 357.308988 158.782996 
L 357.66245 155.586533 
L 357.66245 155.586533 
L 357.83918 154.224104 
L 357.83918 154.224104 
L 358.015911 150.69978 
L 358.015911 150.69978 
L 358.192642 151.023676 
L 358.192642 151.023676 
L 358.546104 147.633155 
L 358.546104 147.633155 
L 358.722835 146.311491 
L 358.722835 146.311491 
L 358.899565 142.843012 
L 359.076296 143.054885 
L 359.076296 143.054885 
L 359.253027 141.08716 
L 359.253027 141.08716 
L 359.429758 137.78962 
L 359.606489 139.119827 
L 359.606489 139.119827 
L 359.78322 136.700324 
L 359.78322 136.700324 
L 359.959951 136.133338 
L 359.959951 136.133338 
L 360.136681 135.15601 
L 360.136681 135.15601 
L 360.313412 132.186219 
L 360.313412 132.186219 
L 360.490143 132.527873 
L 360.490143 132.527873 
L 360.843605 128.957478 
L 360.843605 128.957478 
L 361.020336 129.535465 
L 361.020336 129.535465 
L 361.373797 128.017845 
L 361.373797 128.017845 
L 361.550528 127.572599 
L 361.550528 127.572599 
L 361.727259 125.862037 
L 361.727259 125.862037 
L 361.90399 125.928604 
L 361.90399 125.928604 
L 362.257451 123.906543 
L 362.434182 124.073014 
L 362.610913 123.737056 
L 362.610913 123.737056 
L 362.787644 121.874933 
L 362.787644 121.874933 
L 362.964375 122.080105 
L 362.964375 122.080105 
L 363.141106 121.635027 
L 363.141106 121.635027 
L 363.317836 119.317942 
L 363.317836 119.317942 
L 363.494567 119.535622 
L 363.494567 119.535622 
L 363.671298 118.757043 
L 363.671298 118.757043 
L 363.848029 115.882075 
L 363.848029 115.882075 
L 364.02476 116.082388 
L 364.02476 116.082388 
L 364.201491 114.479717 
L 364.201491 114.479717 
L 364.378221 111.300008 
L 364.378221 111.300008 
L 364.554952 111.419737 
L 365.792068 94.184002 
L 365.792068 94.184002 
L 366.14553 81.659613 
L 366.14553 81.659613 
L 366.322261 83.979937 
L 366.322261 83.979937 
L 366.498991 78.778446 
L 366.498991 78.778446 
L 366.675722 70.176885 
L 366.675722 70.176885 
L 366.852453 70.670882 
L 366.852453 70.670882 
L 367.029184 66.450126 
L 367.029184 66.450126 
L 367.205915 58.610614 
L 367.205915 58.610614 
L 367.382646 56.724869 
L 367.382646 56.724869 
L 367.559376 53.568 
L 367.559376 53.568 
L 396.013041 53.632835 
L 396.013041 53.632835 
L 396.189772 53.695045 
L 396.189772 53.695045 
L 396.543234 53.568 
L 396.543234 53.568 
L 396.896695 53.568 
L 396.896695 53.568 
L 397.250157 53.914066 
L 397.250157 53.914066 
L 397.426888 53.568 
L 397.426888 53.568 
L 398.133811 53.583413 
L 398.133811 53.583413 
L 398.310542 53.879554 
L 398.310542 53.879554 
L 398.487273 53.568 
L 398.487273 53.568 
" clip-path="url(#p91f1949bcf)" style="fill: none; stroke: #ff7f0e; stroke-width: 1.5; stroke-linecap: square"/>
   </g>
   <g id="patch_3">
    <path d="M 57.6 307.584 
L 57.6 41.472 
" style="fill: none; stroke: #000000; stroke-width: 0.8; stroke-linejoin: miter; stroke-linecap: square"/>
   </g>
   <g id="patch_4">
    <path d="M 414.72 307.584 
L 414.72 41.472 
" style="fill: none; stroke: #000000; stroke-width: 0.8; stroke-linejoin: miter; stroke-linecap: square"/>
   </g>
   <g id="patch_5">
    <path d="M 57.6 307.584 
L 414.72 307.584 
" style="fill: none; stroke: #000000; stroke-width: 0.8; stroke-linejoin: miter; stroke-linecap: square"/>
   </g>
   <g id="patch_6">
    <path d="M 57.6 41.472 
L 414.72 41.472 
" style="fill: none; stroke: #000000; stroke-width: 0.8; stroke-linejoin: miter; stroke-linecap: square"/>
   </g>
   <g id="text_16">
    <!-- Actual speed vs Expected speed -->
    <g transform="translate(138.808125 35.472) scale(0.12 -0.12)">
     <defs>
      <path id="DejaVuSans-41" d="M 2188 4044 
L 1331 1722 
L 3047 1722 
L 2188 4044 
z
M 1831 4666 
L 2547 4666 
L 4325 0 
L 3669 0 
L 3244 1197 
L 1141 1197 
L 716 0 
L 50 0 
L 1831 4666 
z
" transform="scale(0.015625)"/>
      <path id="DejaVuSans-75" d="M 544 1381 
L 544 3500 
L 1119 3500 
L 1119 1403 
Q 1119 906 1312 657 
Q 1506 409 1894 409 
Q 2359 409 2629 706 
Q 2900 1003 2900 1516 
L 2900 3500 
L 3475 3500 
L 3475 0 
L 2900 0 
L 2900 538 
Q 2691 219 2414 64 
Q 2138 -91 1772 -91 
Q 1169 -91 856 284 
Q 544 659 544 1381 
z
M 1991 3584 
L 1991 3584 
z
" transform="scale(0.015625)"/>
      <path id="DejaVuSans-61" d="M 2194 1759 
Q 1497 1759 1228 1600 
Q 959 1441 959 1056 
Q 959 750 1161 570 
Q 1363 391 1709 391 
Q 2188 391 2477 730 
Q 2766 1069 2766 1631 
L 2766 1759 
L 2194 1759 
z
M 3341 1997 
L 3341 0 
L 2766 0 
L 2766 531 
Q 2569 213 2275 61 
Q 1981 -91 1556 -91 
Q 1019 -91 701 211 
Q 384 513 384 1019 
Q 384 1609 779 1909 
Q 1175 2209 1959 2209 
L 2766 2209 
L 2766 2266 
Q 2766 2663 2505 2880 
Q 2244 3097 1772 3097 
Q 1472 3097 1187 3025 
Q 903 2953 641 2809 
L 641 3341 
Q 956 3463 1253 3523 
Q 1550 3584 1831 3584 
Q 2591 3584 2966 3190 
Q 3341 2797 3341 1997 
z
" transform="scale(0.015625)"/>
      <path id="DejaVuSans-20" transform="scale(0.015625)"/>
      <path id="DejaVuSans-70" d="M 1159 525 
L 1159 -1331 
L 581 -1331 
L 581 3500 
L 1159 3500 
L 1159 2969 
Q 1341 3281 1617 3432 
Q 1894 3584 2278 3584 
Q 2916 3584 3314 3078 
Q 3713 2572 3713 1747 
Q 3713 922 3314 415 
Q 2916 -91 2278 -91 
Q 1894 -91 1617 61 
Q 1341 213 1159 525 
z
M 3116 1747 
Q 3116 2381 2855 2742 
Q 2594 3103 2138 3103 
Q 1681 3103 1420 2742 
Q 1159 2381 1159 1747 
Q 1159 1113 1420 752 
Q 1681 391 2138 391 
Q 2594 391 2855 752 
Q 3116 1113 3116 1747 
z
" transform="scale(0.015625)"/>
      <path id="DejaVuSans-64" d="M 2906 2969 
L 2906 4863 
L 3481 4863 
L 3481 0 
L 2906 0 
L 2906 525 
Q 2725 213 2448 61 
Q 2172 -91 1784 -91 
Q 1150 -91 751 415 
Q 353 922 353 1747 
Q 353 2572 751 3078 
Q 1150 3584 1784 3584 
Q 2172 3584 2448 3432 
Q 2725 3281 2906 2969 
z
M 947 1747 
Q 947 1113 1208 752 
Q 1469 391 1925 391 
Q 2381 391 2643 752 
Q 2906 1113 2906 1747 
Q 2906 2381 2643 2742 
Q 2381 3103 1925 3103 
Q 1469 3103 1208 2742 
Q 947 2381 947 1747 
z
" transform="scale(0.015625)"/>
      <path id="DejaVuSans-76" d="M 191 3500 
L 800 3500 
L 1894 563 
L 2988 3500 
L 3597 3500 
L 2284 0 
L 1503 0 
L 191 3500 
z
" transform="scale(0.015625)"/>
      <path id="DejaVuSans-45" d="M 628 4666 
L 3578 4666 
L 3578 4134 
L 1259 4134 
L 1259 2753 
L 3481 2753 
L 3481 2222 
L 1259 2222 
L 1259 531 
L 3634 531 
L 3634 0 
L 628 0 
L 628 4666 
z
" transform="scale(0.015625)"/>
      <path id="DejaVuSans-78" d="M 3513 3500 
L 2247 1797 
L 3578 0 
L 2900 0 
L 1881 1375 
L 863 0 
L 184 0 
L 1544 1831 
L 300 3500 
L 978 3500 
L 1906 2253 
L 2834 3500 
L 3513 3500 
z
" transform="scale(0.015625)"/>
     </defs>
     <use xlink:href="#DejaVuSans-41"/>
     <use xlink:href="#DejaVuSans-63" x="66.658203"/>
     <use xlink:href="#DejaVuSans-74" x="121.638672"/>
     <use xlink:href="#DejaVuSans-75" x="160.847656"/>
     <use xlink:href="#DejaVuSans-61" x="224.226562"/>
     <use xlink:href="#DejaVuSans-6c" x="285.505859"/>
     <use xlink:href="#DejaVuSans-20" x="313.289062"/>
     <use xlink:href="#DejaVuSans-73" x="345.076172"/>
     <use xlink:href="#DejaVuSans-70" x="397.175781"/>
     <use xlink:href="#DejaVuSans-65" x="460.652344"/>
     <use xlink:href="#DejaVuSans-65" x="522.175781"/>
     <use xlink:href="#DejaVuSans-64" x="583.699219"/>
     <use xlink:href="#DejaVuSans-20" x="647.175781"/>
     <use xlink:href="#DejaVuSans-76" x="678.962891"/>
     <use xlink:href="#DejaVuSans-73" x="738.142578"/>
     <use xlink:href="#DejaVuSans-20" x="790.242188"/>
     <use xlink:href="#DejaVuSans-45" x="822.029297"/>
     <use xlink:href="#DejaVuSans-78" x="885.212891"/>
     <use xlink:href="#DejaVuSans-70" x="944.392578"/>
     <use xlink:href="#DejaVuSans-65" x="1007.869141"/>
     <use xlink:href="#DejaVuSans-63" x="1069.392578"/>
     <use xlink:href="#DejaVuSans-74" x="1124.373047"/>
     <use xlink:href="#DejaVuSans-65" x="1163.582031"/>
     <use xlink:href="#DejaVuSans-64" x="1225.105469"/>
     <use xlink:href="#DejaVuSans-20" x="1288.582031"/>
     <use xlink:href="#DejaVuSans-73" x="1320.369141"/>
     <use xlink:href="#DejaVuSans-70" x="1372.46875"/>
     <use xlink:href="#DejaVuSans-65" x="1435.945312"/>
     <use xlink:href="#DejaVuSans-65" x="1497.46875"/>
     <use xlink:href="#DejaVuSans-64" x="1558.992188"/>
    </g>
   </g>
   <g id="legend_1">
    <g id="patch_7">
     <path d="M 64.6 302.584 
L 176.65 302.584 
Q 178.65 302.584 178.65 300.584 
L 178.65 272.22775 
Q 178.65 270.22775 176.65 270.22775 
L 64.6 270.22775 
Q 62.6 270.22775 62.6 272.22775 
L 62.6 300.584 
Q 62.6 302.584 64.6 302.584 
z
" style="fill: #ffffff; opacity: 0.8; stroke: #cccccc; stroke-linejoin: miter"/>
    </g>
    <g id="line2d_29">
     <path d="M 66.6 278.326187 
L 76.6 278.326187 
L 86.6 278.326187 
" style="fill: none; stroke: #1f77b4; stroke-width: 1.5; stroke-linecap: square"/>
    </g>
    <g id="text_17">
     <!-- Actual speed -->
     <g transform="translate(94.6 281.826187) scale(0.1 -0.1)">
      <use xlink:href="#DejaVuSans-41"/>
      <use xlink:href="#DejaVuSans-63" x="66.658203"/>
      <use xlink:href="#DejaVuSans-74" x="121.638672"/>
      <use xlink:href="#DejaVuSans-75" x="160.847656"/>
      <use xlink:href="#DejaVuSans-61" x="224.226562"/>
      <use xlink:href="#DejaVuSans-6c" x="285.505859"/>
      <use xlink:href="#DejaVuSans-20" x="313.289062"/>
      <use xlink:href="#DejaVuSans-73" x="345.076172"/>
      <use xlink:href="#DejaVuSans-70" x="397.175781"/>
      <use xlink:href="#DejaVuSans-65" x="460.652344"/>
      <use xlink:href="#DejaVuSans-65" x="522.175781"/>
      <use xlink:href="#DejaVuSans-64" x="583.699219"/>
     </g>
    </g>
    <g id="line2d_30">
     <path d="M 66.6 293.004312 
L 76.6 293.004312 
L 86.6 293.004312 
" style="fill: none; stroke: #ff7f0e; stroke-width: 1.5; stroke-linecap: square"/>
    </g>
    <g id="text_18">
     <!-- Expected speed -->
     <g transform="translate(94.6 296.504312) scale(0.1 -0.1)">
      <use xlink:href="#DejaVuSans-45"/>
      <use xlink:href="#DejaVuSans-78" x="63.183594"/>
      <use xlink:href="#DejaVuSans-70" x="122.363281"/>
      <use xlink:href="#DejaVuSans-65" x="185.839844"/>
      <use xlink:href="#DejaVuSans-63" x="247.363281"/>
      <use xlink:href="#DejaVuSans-74" x="302.34375"/>
      <use xlink:href="#DejaVuSans-65" x="341.552734"/>
      <use xlink:href="#DejaVuSans-64" x="403.076172"/>
      <use xlink:href="#DejaVuSans-20" x="466.552734"/>
      <use xlink:href="#DejaVuSans-73" x="498.339844"/>
      <use xlink:href="#DejaVuSans-70" x="550.439453"/>
      <use xlink:href="#DejaVuSans-65" x="613.916016"/>
      <use xlink:href="#DejaVuSans-65" x="675.439453"/>
      <use xlink:href="#DejaVuSans-64" x="736.962891"/>
     </g>
    </g>
   </g>
  </g>
 </g>
 <defs>
  <clipPath id="p91f1949bcf">
   <rect x="57.6" y="41.472" width="357.12" height="266.112"/>
  </clipPath>
 </defs>
</svg>
