<?xml version="1.0" encoding="utf-8" standalone="no"?>
<!DOCTYPE svg PUBLIC "-//W3C//DTD SVG 1.1//EN"
  "http://www.w3.org/Graphics/SVG/1.1/DTD/svg11.dtd">
<svg xmlns:xlink="http://www.w3.org/1999/xlink" width="460.8pt" height="345.6pt" viewBox="0 0 460.8 345.6" xmlns="http://www.w3.org/2000/svg" version="1.1">
 <metadata>
  <rdf:RDF xmlns:dc="http://purl.org/dc/elements/1.1/" xmlns:cc="http://creativecommons.org/ns#" xmlns:rdf="http://www.w3.org/1999/02/22-rdf-syntax-ns#">
   <cc:Work>
    <dc:type rdf:resource="http://purl.org/dc/dcmitype/StillImage"/>
    <dc:date>2024-01-30T20:59:19.673621</dc:date>
    <dc:format>image/svg+xml</dc:format>
    <dc:creator>
     <cc:Agent>
      <dc:title>Matplotlib v3.7.1, https://matplotlib.org/</dc:title>
     </cc:Agent>
    </dc:creator>
   </cc:Work>
  </rdf:RDF>
 </metadata>
 <defs>
  <style type="text/css">*{stroke-linejoin: round; stroke-linecap: butt}</style>
 </defs>
 <g id="figure_1">
  <g id="patch_1">
   <path d="M 0 345.6 
L 460.8 345.6 
L 460.8 0 
L 0 0 
z
" style="fill: #ffffff"/>
  </g>
  <g id="axes_1">
   <g id="patch_2">
    <path d="M 57.6 307.584 
L 414.72 307.584 
L 414.72 41.472 
L 57.6 41.472 
z
" style="fill: #ffffff"/>
   </g>
   <g id="matplotlib.axis_1">
    <g id="xtick_1">
     <g id="line2d_1">
      <path d="M 73.832727 307.584 
L 73.832727 41.472 
" clip-path="url(#p61e3df927c)" style="fill: none; stroke: #b0b0b0; stroke-width: 0.8; stroke-linecap: square"/>
     </g>
     <g id="line2d_2">
      <defs>
       <path id="mfcdd6b58a1" d="M 0 0 
L 0 3.5 
" style="stroke: #000000; stroke-width: 0.8"/>
      </defs>
      <g>
       <use xlink:href="#mfcdd6b58a1" x="73.832727" y="307.584" style="stroke: #000000; stroke-width: 0.8"/>
      </g>
     </g>
     <g id="text_1">
      <!-- 0 -->
      <g transform="translate(70.651477 322.182437) scale(0.1 -0.1)">
       <defs>
        <path id="DejaVuSans-30" d="M 2034 4250 
Q 1547 4250 1301 3770 
Q 1056 3291 1056 2328 
Q 1056 1369 1301 889 
Q 1547 409 2034 409 
Q 2525 409 2770 889 
Q 3016 1369 3016 2328 
Q 3016 3291 2770 3770 
Q 2525 4250 2034 4250 
z
M 2034 4750 
Q 2819 4750 3233 4129 
Q 3647 3509 3647 2328 
Q 3647 1150 3233 529 
Q 2819 -91 2034 -91 
Q 1250 -91 836 529 
Q 422 1150 422 2328 
Q 422 3509 836 4129 
Q 1250 4750 2034 4750 
z
" transform="scale(0.015625)"/>
       </defs>
       <use xlink:href="#DejaVuSans-30"/>
      </g>
     </g>
    </g>
    <g id="xtick_2">
     <g id="line2d_3">
      <path d="M 131.93125 307.584 
L 131.93125 41.472 
" clip-path="url(#p61e3df927c)" style="fill: none; stroke: #b0b0b0; stroke-width: 0.8; stroke-linecap: square"/>
     </g>
     <g id="line2d_4">
      <g>
       <use xlink:href="#mfcdd6b58a1" x="131.93125" y="307.584" style="stroke: #000000; stroke-width: 0.8"/>
      </g>
     </g>
     <g id="text_2">
      <!-- 5 -->
      <g transform="translate(128.75 322.182437) scale(0.1 -0.1)">
       <defs>
        <path id="DejaVuSans-35" d="M 691 4666 
L 3169 4666 
L 3169 4134 
L 1269 4134 
L 1269 2991 
Q 1406 3038 1543 3061 
Q 1681 3084 1819 3084 
Q 2600 3084 3056 2656 
Q 3513 2228 3513 1497 
Q 3513 744 3044 326 
Q 2575 -91 1722 -91 
Q 1428 -91 1123 -41 
Q 819 9 494 109 
L 494 744 
Q 775 591 1075 516 
Q 1375 441 1709 441 
Q 2250 441 2565 725 
Q 2881 1009 2881 1497 
Q 2881 1984 2565 2268 
Q 2250 2553 1709 2553 
Q 1456 2553 1204 2497 
Q 953 2441 691 2322 
L 691 4666 
z
" transform="scale(0.015625)"/>
       </defs>
       <use xlink:href="#DejaVuSans-35"/>
      </g>
     </g>
    </g>
    <g id="xtick_3">
     <g id="line2d_5">
      <path d="M 190.029773 307.584 
L 190.029773 41.472 
" clip-path="url(#p61e3df927c)" style="fill: none; stroke: #b0b0b0; stroke-width: 0.8; stroke-linecap: square"/>
     </g>
     <g id="line2d_6">
      <g>
       <use xlink:href="#mfcdd6b58a1" x="190.029773" y="307.584" style="stroke: #000000; stroke-width: 0.8"/>
      </g>
     </g>
     <g id="text_3">
      <!-- 10 -->
      <g transform="translate(183.667273 322.182437) scale(0.1 -0.1)">
       <defs>
        <path id="DejaVuSans-31" d="M 794 531 
L 1825 531 
L 1825 4091 
L 703 3866 
L 703 4441 
L 1819 4666 
L 2450 4666 
L 2450 531 
L 3481 531 
L 3481 0 
L 794 0 
L 794 531 
z
" transform="scale(0.015625)"/>
       </defs>
       <use xlink:href="#DejaVuSans-31"/>
       <use xlink:href="#DejaVuSans-30" x="63.623047"/>
      </g>
     </g>
    </g>
    <g id="xtick_4">
     <g id="line2d_7">
      <path d="M 248.128296 307.584 
L 248.128296 41.472 
" clip-path="url(#p61e3df927c)" style="fill: none; stroke: #b0b0b0; stroke-width: 0.8; stroke-linecap: square"/>
     </g>
     <g id="line2d_8">
      <g>
       <use xlink:href="#mfcdd6b58a1" x="248.128296" y="307.584" style="stroke: #000000; stroke-width: 0.8"/>
      </g>
     </g>
     <g id="text_4">
      <!-- 15 -->
      <g transform="translate(241.765796 322.182437) scale(0.1 -0.1)">
       <use xlink:href="#DejaVuSans-31"/>
       <use xlink:href="#DejaVuSans-35" x="63.623047"/>
      </g>
     </g>
    </g>
    <g id="xtick_5">
     <g id="line2d_9">
      <path d="M 306.226819 307.584 
L 306.226819 41.472 
" clip-path="url(#p61e3df927c)" style="fill: none; stroke: #b0b0b0; stroke-width: 0.8; stroke-linecap: square"/>
     </g>
     <g id="line2d_10">
      <g>
       <use xlink:href="#mfcdd6b58a1" x="306.226819" y="307.584" style="stroke: #000000; stroke-width: 0.8"/>
      </g>
     </g>
     <g id="text_5">
      <!-- 20 -->
      <g transform="translate(299.864319 322.182437) scale(0.1 -0.1)">
       <defs>
        <path id="DejaVuSans-32" d="M 1228 531 
L 3431 531 
L 3431 0 
L 469 0 
L 469 531 
Q 828 903 1448 1529 
Q 2069 2156 2228 2338 
Q 2531 2678 2651 2914 
Q 2772 3150 2772 3378 
Q 2772 3750 2511 3984 
Q 2250 4219 1831 4219 
Q 1534 4219 1204 4116 
Q 875 4013 500 3803 
L 500 4441 
Q 881 4594 1212 4672 
Q 1544 4750 1819 4750 
Q 2544 4750 2975 4387 
Q 3406 4025 3406 3419 
Q 3406 3131 3298 2873 
Q 3191 2616 2906 2266 
Q 2828 2175 2409 1742 
Q 1991 1309 1228 531 
z
" transform="scale(0.015625)"/>
       </defs>
       <use xlink:href="#DejaVuSans-32"/>
       <use xlink:href="#DejaVuSans-30" x="63.623047"/>
      </g>
     </g>
    </g>
    <g id="xtick_6">
     <g id="line2d_11">
      <path d="M 364.325341 307.584 
L 364.325341 41.472 
" clip-path="url(#p61e3df927c)" style="fill: none; stroke: #b0b0b0; stroke-width: 0.8; stroke-linecap: square"/>
     </g>
     <g id="line2d_12">
      <g>
       <use xlink:href="#mfcdd6b58a1" x="364.325341" y="307.584" style="stroke: #000000; stroke-width: 0.8"/>
      </g>
     </g>
     <g id="text_6">
      <!-- 25 -->
      <g transform="translate(357.962841 322.182437) scale(0.1 -0.1)">
       <use xlink:href="#DejaVuSans-32"/>
       <use xlink:href="#DejaVuSans-35" x="63.623047"/>
      </g>
     </g>
    </g>
    <g id="text_7">
     <!-- Time(s) -->
     <g transform="translate(217.420156 335.860562) scale(0.1 -0.1)">
      <defs>
       <path id="DejaVuSans-54" d="M -19 4666 
L 3928 4666 
L 3928 4134 
L 2272 4134 
L 2272 0 
L 1638 0 
L 1638 4134 
L -19 4134 
L -19 4666 
z
" transform="scale(0.015625)"/>
       <path id="DejaVuSans-69" d="M 603 3500 
L 1178 3500 
L 1178 0 
L 603 0 
L 603 3500 
z
M 603 4863 
L 1178 4863 
L 1178 4134 
L 603 4134 
L 603 4863 
z
" transform="scale(0.015625)"/>
       <path id="DejaVuSans-6d" d="M 3328 2828 
Q 3544 3216 3844 3400 
Q 4144 3584 4550 3584 
Q 5097 3584 5394 3201 
Q 5691 2819 5691 2113 
L 5691 0 
L 5113 0 
L 5113 2094 
Q 5113 2597 4934 2840 
Q 4756 3084 4391 3084 
Q 3944 3084 3684 2787 
Q 3425 2491 3425 1978 
L 3425 0 
L 2847 0 
L 2847 2094 
Q 2847 2600 2669 2842 
Q 2491 3084 2119 3084 
Q 1678 3084 1418 2786 
Q 1159 2488 1159 1978 
L 1159 0 
L 581 0 
L 581 3500 
L 1159 3500 
L 1159 2956 
Q 1356 3278 1631 3431 
Q 1906 3584 2284 3584 
Q 2666 3584 2933 3390 
Q 3200 3197 3328 2828 
z
" transform="scale(0.015625)"/>
       <path id="DejaVuSans-65" d="M 3597 1894 
L 3597 1613 
L 953 1613 
Q 991 1019 1311 708 
Q 1631 397 2203 397 
Q 2534 397 2845 478 
Q 3156 559 3463 722 
L 3463 178 
Q 3153 47 2828 -22 
Q 2503 -91 2169 -91 
Q 1331 -91 842 396 
Q 353 884 353 1716 
Q 353 2575 817 3079 
Q 1281 3584 2069 3584 
Q 2775 3584 3186 3129 
Q 3597 2675 3597 1894 
z
M 3022 2063 
Q 3016 2534 2758 2815 
Q 2500 3097 2075 3097 
Q 1594 3097 1305 2825 
Q 1016 2553 972 2059 
L 3022 2063 
z
" transform="scale(0.015625)"/>
       <path id="DejaVuSans-28" d="M 1984 4856 
Q 1566 4138 1362 3434 
Q 1159 2731 1159 2009 
Q 1159 1288 1364 580 
Q 1569 -128 1984 -844 
L 1484 -844 
Q 1016 -109 783 600 
Q 550 1309 550 2009 
Q 550 2706 781 3412 
Q 1013 4119 1484 4856 
L 1984 4856 
z
" transform="scale(0.015625)"/>
       <path id="DejaVuSans-73" d="M 2834 3397 
L 2834 2853 
Q 2591 2978 2328 3040 
Q 2066 3103 1784 3103 
Q 1356 3103 1142 2972 
Q 928 2841 928 2578 
Q 928 2378 1081 2264 
Q 1234 2150 1697 2047 
L 1894 2003 
Q 2506 1872 2764 1633 
Q 3022 1394 3022 966 
Q 3022 478 2636 193 
Q 2250 -91 1575 -91 
Q 1294 -91 989 -36 
Q 684 19 347 128 
L 347 722 
Q 666 556 975 473 
Q 1284 391 1588 391 
Q 1994 391 2212 530 
Q 2431 669 2431 922 
Q 2431 1156 2273 1281 
Q 2116 1406 1581 1522 
L 1381 1569 
Q 847 1681 609 1914 
Q 372 2147 372 2553 
Q 372 3047 722 3315 
Q 1072 3584 1716 3584 
Q 2034 3584 2315 3537 
Q 2597 3491 2834 3397 
z
" transform="scale(0.015625)"/>
       <path id="DejaVuSans-29" d="M 513 4856 
L 1013 4856 
Q 1481 4119 1714 3412 
Q 1947 2706 1947 2009 
Q 1947 1309 1714 600 
Q 1481 -109 1013 -844 
L 513 -844 
Q 928 -128 1133 580 
Q 1338 1288 1338 2009 
Q 1338 2731 1133 3434 
Q 928 4138 513 4856 
z
" transform="scale(0.015625)"/>
      </defs>
      <use xlink:href="#DejaVuSans-54"/>
      <use xlink:href="#DejaVuSans-69" x="57.958984"/>
      <use xlink:href="#DejaVuSans-6d" x="85.742188"/>
      <use xlink:href="#DejaVuSans-65" x="183.154297"/>
      <use xlink:href="#DejaVuSans-28" x="244.677734"/>
      <use xlink:href="#DejaVuSans-73" x="283.691406"/>
      <use xlink:href="#DejaVuSans-29" x="335.791016"/>
     </g>
    </g>
   </g>
   <g id="matplotlib.axis_2">
    <g id="ytick_1">
     <g id="line2d_13">
      <path d="M 57.6 257.702939 
L 414.72 257.702939 
" clip-path="url(#p61e3df927c)" style="fill: none; stroke: #b0b0b0; stroke-width: 0.8; stroke-linecap: square"/>
     </g>
     <g id="line2d_14">
      <defs>
       <path id="m647a9c7ab8" d="M 0 0 
L -3.5 0 
" style="stroke: #000000; stroke-width: 0.8"/>
      </defs>
      <g>
       <use xlink:href="#m647a9c7ab8" x="57.6" y="257.702939" style="stroke: #000000; stroke-width: 0.8"/>
      </g>
     </g>
     <g id="text_8">
      <!-- 4 -->
      <g transform="translate(44.2375 261.502158) scale(0.1 -0.1)">
       <defs>
        <path id="DejaVuSans-34" d="M 2419 4116 
L 825 1625 
L 2419 1625 
L 2419 4116 
z
M 2253 4666 
L 3047 4666 
L 3047 1625 
L 3713 1625 
L 3713 1100 
L 3047 1100 
L 3047 0 
L 2419 0 
L 2419 1100 
L 313 1100 
L 313 1709 
L 2253 4666 
z
" transform="scale(0.015625)"/>
       </defs>
       <use xlink:href="#DejaVuSans-34"/>
      </g>
     </g>
    </g>
    <g id="ytick_2">
     <g id="line2d_15">
      <path d="M 57.6 206.824042 
L 414.72 206.824042 
" clip-path="url(#p61e3df927c)" style="fill: none; stroke: #b0b0b0; stroke-width: 0.8; stroke-linecap: square"/>
     </g>
     <g id="line2d_16">
      <g>
       <use xlink:href="#m647a9c7ab8" x="57.6" y="206.824042" style="stroke: #000000; stroke-width: 0.8"/>
      </g>
     </g>
     <g id="text_9">
      <!-- 5 -->
      <g transform="translate(44.2375 210.62326) scale(0.1 -0.1)">
       <use xlink:href="#DejaVuSans-35"/>
      </g>
     </g>
    </g>
    <g id="ytick_3">
     <g id="line2d_17">
      <path d="M 57.6 155.945144 
L 414.72 155.945144 
" clip-path="url(#p61e3df927c)" style="fill: none; stroke: #b0b0b0; stroke-width: 0.8; stroke-linecap: square"/>
     </g>
     <g id="line2d_18">
      <g>
       <use xlink:href="#m647a9c7ab8" x="57.6" y="155.945144" style="stroke: #000000; stroke-width: 0.8"/>
      </g>
     </g>
     <g id="text_10">
      <!-- 6 -->
      <g transform="translate(44.2375 159.744363) scale(0.1 -0.1)">
       <defs>
        <path id="DejaVuSans-36" d="M 2113 2584 
Q 1688 2584 1439 2293 
Q 1191 2003 1191 1497 
Q 1191 994 1439 701 
Q 1688 409 2113 409 
Q 2538 409 2786 701 
Q 3034 994 3034 1497 
Q 3034 2003 2786 2293 
Q 2538 2584 2113 2584 
z
M 3366 4563 
L 3366 3988 
Q 3128 4100 2886 4159 
Q 2644 4219 2406 4219 
Q 1781 4219 1451 3797 
Q 1122 3375 1075 2522 
Q 1259 2794 1537 2939 
Q 1816 3084 2150 3084 
Q 2853 3084 3261 2657 
Q 3669 2231 3669 1497 
Q 3669 778 3244 343 
Q 2819 -91 2113 -91 
Q 1303 -91 875 529 
Q 447 1150 447 2328 
Q 447 3434 972 4092 
Q 1497 4750 2381 4750 
Q 2619 4750 2861 4703 
Q 3103 4656 3366 4563 
z
" transform="scale(0.015625)"/>
       </defs>
       <use xlink:href="#DejaVuSans-36"/>
      </g>
     </g>
    </g>
    <g id="ytick_4">
     <g id="line2d_19">
      <path d="M 57.6 105.066246 
L 414.72 105.066246 
" clip-path="url(#p61e3df927c)" style="fill: none; stroke: #b0b0b0; stroke-width: 0.8; stroke-linecap: square"/>
     </g>
     <g id="line2d_20">
      <g>
       <use xlink:href="#m647a9c7ab8" x="57.6" y="105.066246" style="stroke: #000000; stroke-width: 0.8"/>
      </g>
     </g>
     <g id="text_11">
      <!-- 7 -->
      <g transform="translate(44.2375 108.865465) scale(0.1 -0.1)">
       <defs>
        <path id="DejaVuSans-37" d="M 525 4666 
L 3525 4666 
L 3525 4397 
L 1831 0 
L 1172 0 
L 2766 4134 
L 525 4134 
L 525 4666 
z
" transform="scale(0.015625)"/>
       </defs>
       <use xlink:href="#DejaVuSans-37"/>
      </g>
     </g>
    </g>
    <g id="ytick_5">
     <g id="line2d_21">
      <path d="M 57.6 54.187349 
L 414.72 54.187349 
" clip-path="url(#p61e3df927c)" style="fill: none; stroke: #b0b0b0; stroke-width: 0.8; stroke-linecap: square"/>
     </g>
     <g id="line2d_22">
      <g>
       <use xlink:href="#m647a9c7ab8" x="57.6" y="54.187349" style="stroke: #000000; stroke-width: 0.8"/>
      </g>
     </g>
     <g id="text_12">
      <!-- 8 -->
      <g transform="translate(44.2375 57.986568) scale(0.1 -0.1)">
       <defs>
        <path id="DejaVuSans-38" d="M 2034 2216 
Q 1584 2216 1326 1975 
Q 1069 1734 1069 1313 
Q 1069 891 1326 650 
Q 1584 409 2034 409 
Q 2484 409 2743 651 
Q 3003 894 3003 1313 
Q 3003 1734 2745 1975 
Q 2488 2216 2034 2216 
z
M 1403 2484 
Q 997 2584 770 2862 
Q 544 3141 544 3541 
Q 544 4100 942 4425 
Q 1341 4750 2034 4750 
Q 2731 4750 3128 4425 
Q 3525 4100 3525 3541 
Q 3525 3141 3298 2862 
Q 3072 2584 2669 2484 
Q 3125 2378 3379 2068 
Q 3634 1759 3634 1313 
Q 3634 634 3220 271 
Q 2806 -91 2034 -91 
Q 1263 -91 848 271 
Q 434 634 434 1313 
Q 434 1759 690 2068 
Q 947 2378 1403 2484 
z
M 1172 3481 
Q 1172 3119 1398 2916 
Q 1625 2713 2034 2713 
Q 2441 2713 2670 2916 
Q 2900 3119 2900 3481 
Q 2900 3844 2670 4047 
Q 2441 4250 2034 4250 
Q 1625 4250 1398 4047 
Q 1172 3844 1172 3481 
z
" transform="scale(0.015625)"/>
       </defs>
       <use xlink:href="#DejaVuSans-38"/>
      </g>
     </g>
    </g>
    <g id="text_13">
     <!-- Velocity(m/s) -->
     <g transform="translate(38.157812 207.204563) rotate(-90) scale(0.1 -0.1)">
      <defs>
       <path id="DejaVuSans-56" d="M 1831 0 
L 50 4666 
L 709 4666 
L 2188 738 
L 3669 4666 
L 4325 4666 
L 2547 0 
L 1831 0 
z
" transform="scale(0.015625)"/>
       <path id="DejaVuSans-6c" d="M 603 4863 
L 1178 4863 
L 1178 0 
L 603 0 
L 603 4863 
z
" transform="scale(0.015625)"/>
       <path id="DejaVuSans-6f" d="M 1959 3097 
Q 1497 3097 1228 2736 
Q 959 2375 959 1747 
Q 959 1119 1226 758 
Q 1494 397 1959 397 
Q 2419 397 2687 759 
Q 2956 1122 2956 1747 
Q 2956 2369 2687 2733 
Q 2419 3097 1959 3097 
z
M 1959 3584 
Q 2709 3584 3137 3096 
Q 3566 2609 3566 1747 
Q 3566 888 3137 398 
Q 2709 -91 1959 -91 
Q 1206 -91 779 398 
Q 353 888 353 1747 
Q 353 2609 779 3096 
Q 1206 3584 1959 3584 
z
" transform="scale(0.015625)"/>
       <path id="DejaVuSans-63" d="M 3122 3366 
L 3122 2828 
Q 2878 2963 2633 3030 
Q 2388 3097 2138 3097 
Q 1578 3097 1268 2742 
Q 959 2388 959 1747 
Q 959 1106 1268 751 
Q 1578 397 2138 397 
Q 2388 397 2633 464 
Q 2878 531 3122 666 
L 3122 134 
Q 2881 22 2623 -34 
Q 2366 -91 2075 -91 
Q 1284 -91 818 406 
Q 353 903 353 1747 
Q 353 2603 823 3093 
Q 1294 3584 2113 3584 
Q 2378 3584 2631 3529 
Q 2884 3475 3122 3366 
z
" transform="scale(0.015625)"/>
       <path id="DejaVuSans-74" d="M 1172 4494 
L 1172 3500 
L 2356 3500 
L 2356 3053 
L 1172 3053 
L 1172 1153 
Q 1172 725 1289 603 
Q 1406 481 1766 481 
L 2356 481 
L 2356 0 
L 1766 0 
Q 1100 0 847 248 
Q 594 497 594 1153 
L 594 3053 
L 172 3053 
L 172 3500 
L 594 3500 
L 594 4494 
L 1172 4494 
z
" transform="scale(0.015625)"/>
       <path id="DejaVuSans-79" d="M 2059 -325 
Q 1816 -950 1584 -1140 
Q 1353 -1331 966 -1331 
L 506 -1331 
L 506 -850 
L 844 -850 
Q 1081 -850 1212 -737 
Q 1344 -625 1503 -206 
L 1606 56 
L 191 3500 
L 800 3500 
L 1894 763 
L 2988 3500 
L 3597 3500 
L 2059 -325 
z
" transform="scale(0.015625)"/>
       <path id="DejaVuSans-2f" d="M 1625 4666 
L 2156 4666 
L 531 -594 
L 0 -594 
L 1625 4666 
z
" transform="scale(0.015625)"/>
      </defs>
      <use xlink:href="#DejaVuSans-56"/>
      <use xlink:href="#DejaVuSans-65" x="60.658203"/>
      <use xlink:href="#DejaVuSans-6c" x="122.181641"/>
      <use xlink:href="#DejaVuSans-6f" x="149.964844"/>
      <use xlink:href="#DejaVuSans-63" x="211.146484"/>
      <use xlink:href="#DejaVuSans-69" x="266.126953"/>
      <use xlink:href="#DejaVuSans-74" x="293.910156"/>
      <use xlink:href="#DejaVuSans-79" x="333.119141"/>
      <use xlink:href="#DejaVuSans-28" x="392.298828"/>
      <use xlink:href="#DejaVuSans-6d" x="431.3125"/>
      <use xlink:href="#DejaVuSans-2f" x="528.724609"/>
      <use xlink:href="#DejaVuSans-73" x="562.416016"/>
      <use xlink:href="#DejaVuSans-29" x="614.515625"/>
     </g>
    </g>
   </g>
   <g id="line2d_23">
    <path d="M 73.832727 54.680671 
L 80.107368 54.203325 
L 80.107368 54.203325 
L 81.036944 54.181549 
L 81.036944 54.181549 
L 81.269338 55.855821 
L 82.198915 55.330089 
L 82.198915 55.330089 
L 84.058067 54.712775 
L 84.058067 54.712775 
L 84.522855 54.632539 
L 84.522855 54.632539 
L 84.987644 54.701582 
L 84.987644 54.701582 
L 86.149614 54.527169 
L 86.149614 54.527169 
L 87.543979 54.443982 
L 87.543979 54.443982 
L 87.776373 55.414192 
L 87.776373 55.414192 
L 88.008767 57.414139 
L 88.008767 57.414139 
L 88.241161 58.439807 
L 88.241161 58.439807 
L 88.705949 62.421997 
L 88.705949 62.421997 
L 89.170737 67.173119 
L 89.170737 67.173119 
L 89.86792 74.401484 
L 89.86792 74.401484 
L 90.332708 79.58411 
L 90.332708 79.58411 
L 92.424255 101.524872 
L 92.424255 101.524872 
L 92.889043 106.142437 
L 92.889043 106.142437 
L 94.283407 117.974884 
L 94.283407 117.974884 
L 95.677772 126.386489 
L 95.677772 126.386489 
L 96.374954 129.221105 
L 96.374954 129.221105 
L 97.072136 131.180146 
L 97.072136 131.180146 
L 98.001713 132.33067 
L 98.001713 132.33067 
L 100.09326 132.843631 
L 100.09326 132.843631 
L 100.558048 132.859404 
L 100.558048 132.859404 
L 101.487624 132.069916 
L 101.487624 132.069916 
L 101.952412 131.429147 
L 101.952412 131.429147 
L 102.4172 130.574127 
L 102.4172 130.574127 
L 103.114383 128.541414 
L 103.114383 128.541414 
L 104.043959 123.808964 
L 104.043959 123.808964 
L 104.508747 120.892382 
L 104.508747 120.892382 
L 105.903112 107.884886 
L 105.903112 107.884886 
L 107.065082 91.808478 
L 107.065082 91.808478 
L 107.994659 79.6964 
L 107.994659 79.6964 
L 108.691841 73.231931 
L 108.691841 73.231931 
L 109.389023 68.389735 
L 109.389023 68.389735 
L 110.086206 64.800789 
L 110.086206 64.800789 
L 111.015782 61.398211 
L 111.015782 61.398211 
L 111.945358 59.043994 
L 111.945358 59.043994 
L 112.874935 57.409967 
L 112.874935 57.409967 
L 113.804511 56.434212 
L 113.804511 56.434212 
L 114.966481 55.518036 
L 114.966481 55.518036 
L 116.59324 54.879505 
L 116.59324 54.879505 
L 117.522816 54.624449 
L 117.522816 54.624449 
L 121.473516 54.231461 
L 121.473516 54.231461 
L 121.70591 54.379671 
L 121.70591 54.379671 
L 127.283368 54.361253 
L 127.283368 54.361253 
L 127.980551 54.321466 
L 127.980551 54.321466 
L 128.910127 54.293635 
L 128.910127 54.293635 
L 129.607309 54.244995 
L 129.607309 54.244995 
L 130.072097 54.21869 
L 130.072097 54.21869 
L 130.536886 54.320855 
L 130.536886 54.320855 
L 131.234068 54.288649 
L 131.234068 54.288649 
L 131.466462 54.379976 
L 131.466462 54.379976 
L 131.698856 56.618597 
L 131.698856 56.618597 
L 131.93125 57.654033 
L 131.93125 57.654033 
L 132.163644 60.594732 
L 132.163644 60.594732 
L 133.325615 85.266266 
L 133.325615 85.266266 
L 133.790403 96.194646 
L 133.790403 96.194646 
L 135.88195 137.106723 
L 135.88195 137.106723 
L 136.346738 143.378413 
L 136.346738 143.378413 
L 136.579132 147.919558 
L 136.579132 147.919558 
L 137.276314 155.665107 
L 137.276314 155.665107 
L 138.670679 169.701984 
L 138.670679 169.701984 
L 140.297437 181.378284 
L 140.297437 181.378284 
L 142.15659 190.489168 
L 142.15659 190.489168 
L 143.550955 196.018636 
L 143.550955 196.018636 
L 144.015743 197.534573 
L 144.015743 197.534573 
L 145.642501 200.865258 
L 145.642501 200.865258 
L 145.874896 201.251988 
L 145.874896 201.251988 
L 146.572078 201.597609 
L 146.572078 201.597609 
L 147.036866 202.172184 
L 147.036866 202.172184 
L 147.501654 202.618799 
L 147.501654 202.618799 
L 148.198836 202.622055 
L 148.198836 202.622055 
L 148.431231 202.684229 
L 148.431231 202.684229 
L 148.896019 202.609692 
L 148.896019 202.609692 
L 150.290383 202.536426 
L 150.290383 202.536426 
L 150.987566 202.137841 
L 150.987566 202.137841 
L 151.452354 201.738899 
L 151.452354 201.738899 
L 152.149536 200.744115 
L 152.149536 200.744115 
L 152.846718 199.047965 
L 152.846718 199.047965 
L 153.311506 197.523023 
L 153.311506 197.523023 
L 153.776295 195.459273 
L 153.776295 195.459273 
L 155.170659 184.046628 
L 155.170659 184.046628 
L 157.029812 162.596542 
L 157.029812 162.596542 
L 157.4946 160.584333 
L 157.4946 160.584333 
L 157.959388 159.717255 
L 157.959388 159.717255 
L 158.191782 160.215817 
L 158.191782 160.215817 
L 158.424176 160.437344 
L 158.424176 160.437344 
L 159.586147 164.853428 
L 159.586147 164.853428 
L 160.050935 166.500022 
L 160.050935 166.500022 
L 160.515723 167.382568 
L 160.515723 167.382568 
L 160.748117 167.749455 
L 160.748117 167.749455 
L 161.212906 167.980395 
L 161.212906 167.980395 
L 161.4453 168.264045 
L 161.4453 168.264045 
L 162.142482 168.300881 
L 162.142482 168.300881 
L 162.60727 168.354151 
L 162.60727 168.354151 
L 163.536846 168.258855 
L 163.536846 168.258855 
L 164.466423 167.783646 
L 164.466423 167.783646 
L 164.698817 167.592036 
L 164.698817 167.592036 
L 165.860787 165.424188 
L 165.860787 165.424188 
L 167.255152 159.860224 
L 167.255152 159.860224 
L 167.71994 156.998948 
L 167.71994 156.998948 
L 168.417122 152.220758 
L 168.417122 152.220758 
L 169.114305 146.16678 
L 169.114305 146.16678 
L 170.276275 133.632458 
L 170.276275 133.632458 
L 171.903034 112.895288 
L 171.903034 112.895288 
L 172.367822 111.470119 
L 172.367822 111.470119 
L 172.600216 111.436488 
L 172.600216 111.436488 
L 173.297398 122.473138 
L 173.297398 122.473138 
L 174.226975 145.640844 
L 174.226975 145.640844 
L 174.691763 155.462507 
L 174.691763 155.462507 
L 175.156551 167.118862 
L 175.156551 167.118862 
L 175.621339 176.881454 
L 175.621339 176.881454 
L 177.015704 204.95526 
L 177.015704 204.95526 
L 177.248098 207.717424 
L 177.248098 207.717424 
L 177.480492 212.616452 
L 177.480492 212.616452 
L 177.712886 214.898014 
L 177.712886 214.898014 
L 177.94528 219.613928 
L 177.94528 219.613928 
L 178.177674 221.748043 
L 178.177674 221.748043 
L 178.410068 226.300585 
L 178.410068 226.300585 
L 179.107251 233.058422 
L 179.107251 233.058422 
L 179.804433 240.268267 
L 179.804433 240.268267 
L 180.501615 248.258493 
L 180.501615 248.258493 
L 180.966403 251.033581 
L 180.966403 251.033581 
L 181.663586 256.455694 
L 181.663586 256.455694 
L 183.290344 264.92123 
L 183.290344 264.92123 
L 183.987527 266.96295 
L 183.987527 266.96295 
L 184.917103 268.736944 
L 184.917103 268.736944 
L 185.614285 269.46843 
L 185.614285 269.46843 
L 186.079073 269.910161 
L 186.079073 269.910161 
L 188.867802 269.753504 
L 188.867802 269.753504 
L 189.564985 269.37466 
L 189.564985 269.37466 
L 190.029773 269.061399 
L 190.029773 269.061399 
L 190.494561 268.50804 
L 190.494561 268.50804 
L 191.191743 266.872283 
L 191.191743 266.872283 
L 191.656532 265.728984 
L 191.656532 265.728984 
L 192.818502 260.756793 
L 192.818502 260.756793 
L 193.748078 254.387314 
L 193.748078 254.387314 
L 194.445261 248.416523 
L 194.445261 248.416523 
L 195.142443 241.129596 
L 195.142443 241.129596 
L 195.607231 237.511089 
L 195.607231 237.511089 
L 195.839625 236.836435 
L 195.839625 236.836435 
L 196.072019 236.521851 
L 196.072019 236.521851 
L 196.536807 240.366006 
L 196.536807 240.366006 
L 196.769202 245.410598 
L 196.769202 245.410598 
L 197.23399 250.269431 
L 197.23399 250.269431 
L 198.628354 269.983681 
L 198.628354 269.983681 
L 198.860748 271.76546 
L 198.860748 271.76546 
L 199.325537 276.504117 
L 199.325537 276.504117 
L 200.022719 282.013131 
L 200.022719 282.013131 
L 200.487507 285.676971 
L 200.487507 285.676971 
L 200.719901 286.668092 
L 200.952295 288.305579 
L 200.952295 288.305579 
L 201.417083 289.71294 
L 201.417083 289.71294 
L 201.881872 291.478845 
L 201.881872 291.478845 
L 202.811448 293.378866 
L 202.811448 293.378866 
L 203.276236 294.09458 
L 203.276236 294.09458 
L 203.741024 294.580829 
L 203.741024 294.580829 
L 204.438207 294.808868 
L 204.438207 294.808868 
L 204.902995 295.074863 
L 204.902995 295.074863 
L 206.297359 294.908896 
L 206.297359 294.908896 
L 206.762147 294.724155 
L 206.762147 294.724155 
L 207.45933 294.143932 
L 207.45933 294.143932 
L 207.924118 293.628834 
L 207.924118 293.628834 
L 208.388906 292.88585 
L 208.388906 292.88585 
L 208.853694 291.682055 
L 208.853694 291.682055 
L 209.086088 291.171485 
L 209.086088 291.171485 
L 209.550877 289.525858 
L 209.550877 289.525858 
L 209.783271 288.857004 
L 209.783271 288.857004 
L 211.410029 280.281162 
L 211.410029 280.281162 
L 211.874817 277.200801 
L 211.874817 277.200801 
L 212.804394 267.675916 
L 212.804394 267.675916 
L 213.269182 261.746285 
L 213.269182 261.746285 
L 214.198758 251.346333 
L 214.198758 251.346333 
L 214.895941 248.951769 
L 214.895941 248.951769 
L 215.128335 248.857083 
L 215.128335 248.857083 
L 215.360729 249.222445 
L 215.360729 249.222445 
L 215.593123 251.428147 
L 215.593123 251.428147 
L 215.825517 252.528861 
L 215.825517 252.528861 
L 216.057911 255.903861 
L 216.057911 255.903861 
L 216.522699 258.675286 
L 216.522699 258.675286 
L 217.219882 264.585175 
L 217.219882 264.585175 
L 218.614246 271.765409 
L 218.614246 271.765409 
L 219.543822 275.091871 
L 219.543822 275.091871 
L 220.705793 277.494169 
L 220.705793 277.494169 
L 221.635369 278.434106 
L 221.635369 278.434106 
L 222.79734 278.633042 
L 222.79734 278.633042 
L 223.029734 278.801553 
L 223.029734 278.801553 
L 223.726916 278.815799 
L 223.726916 278.815799 
L 224.424098 278.708089 
L 224.424098 278.708089 
L 226.050857 277.747749 
L 226.050857 277.747749 
L 226.283251 277.565857 
L 226.283251 277.565857 
L 227.677616 275.36097 
L 227.677616 275.36097 
L 228.142404 274.391676 
L 228.142404 274.391676 
L 229.304374 270.771642 
L 229.304374 270.771642 
L 230.466345 265.69637 
L 230.466345 265.69637 
L 231.628315 259.244519 
L 231.628315 259.244519 
L 232.557892 253.17543 
L 232.557892 253.17543 
L 233.487468 246.071209 
L 233.487468 246.071209 
L 234.18465 240.351709 
L 234.18465 240.351709 
L 235.114227 231.565127 
L 235.114227 231.565127 
L 235.811409 224.508376 
L 235.811409 224.508376 
L 237.670562 201.058191 
L 237.670562 201.058191 
L 242.086049 130.298771 
L 242.086049 130.298771 
L 243.712808 101.821801 
L 243.712808 101.821801 
L 244.874778 84.124187 
L 244.874778 84.124187 
L 245.804355 74.464319 
L 245.804355 74.464319 
L 246.501537 69.31741 
L 246.501537 69.31741 
L 247.198719 65.496151 
L 247.198719 65.496151 
L 247.895902 62.645966 
L 247.895902 62.645966 
L 248.825478 59.895707 
L 248.825478 59.895707 
L 249.755054 58.023109 
L 249.755054 58.023109 
L 250.917025 56.547366 
L 250.917025 56.547366 
L 251.614207 55.963073 
L 251.614207 55.963073 
L 252.543783 55.376287 
L 252.543783 55.376287 
L 254.402936 54.691966 
L 254.402936 54.691966 
L 256.959271 54.388168 
L 256.959271 54.388168 
L 261.142365 54.191368 
L 261.142365 54.191368 
L 261.374759 54.35067 
L 261.374759 54.35067 
L 267.881793 54.270383 
L 267.881793 54.270383 
L 268.346582 54.319787 
L 268.346582 54.319787 
L 268.81137 54.258376 
L 268.81137 54.258376 
L 269.043764 54.352044 
L 269.043764 54.352044 
L 269.740946 54.307779 
L 269.740946 54.307779 
L 270.205734 54.360693 
L 270.205734 54.360693 
L 271.600099 54.214722 
L 271.600099 54.214722 
L 271.832493 54.367715 
L 272.762069 54.313172 
L 272.762069 54.313172 
L 273.691646 54.311341 
L 273.691646 54.311341 
L 273.92404 54.45314 
L 273.92404 54.45314 
L 274.853616 54.382978 
L 274.853616 54.382978 
L 276.712769 54.328589 
L 276.712769 54.328589 
L 277.177557 54.386184 
L 277.177557 54.386184 
L 281.593045 54.219301 
L 281.593045 54.219301 
L 282.057833 54.303811 
L 282.057833 54.303811 
L 282.987409 54.360846 
L 282.987409 54.360846 
L 283.219803 55.384631 
L 283.219803 55.384631 
L 283.452198 57.978692 
L 283.452198 57.978692 
L 285.31135 90.107698 
L 285.31135 90.107698 
L 286.008533 98.200139 
L 286.008533 98.200139 
L 286.705715 103.318709 
L 286.705715 103.318709 
L 287.170503 105.250988 
L 287.170503 105.250988 
L 288.100079 106.485361 
L 288.100079 106.485361 
L 288.564868 106.910505 
L 288.564868 106.910505 
L 289.26205 106.682974 
L 289.26205 106.682974 
L 289.494444 106.50098 
L 289.494444 106.50098 
L 290.191626 105.32868 
L 290.191626 105.32868 
L 291.121203 101.965534 
L 291.121203 101.965534 
L 291.585991 99.616913 
L 291.585991 99.616913 
L 292.283173 94.099504 
L 292.283173 94.099504 
L 292.980355 87.396209 
L 292.980355 87.396209 
L 294.607114 71.33659 
L 294.607114 71.33659 
L 295.53669 65.797048 
L 295.53669 65.797048 
L 296.233873 62.832793 
L 296.233873 62.832793 
L 296.698661 61.630372 
L 296.698661 61.630372 
L 296.931055 61.316347 
L 297.163449 61.2615 
L 297.163449 61.2615 
L 297.395843 62.487885 
L 297.395843 62.487885 
L 298.325419 71.602381 
L 298.325419 71.602381 
L 300.881754 101.514543 
L 300.881754 101.514543 
L 301.811331 112.318677 
L 301.811331 112.318677 
L 302.276119 118.42908 
L 302.276119 118.42908 
L 302.973301 127.386514 
L 302.973301 127.386514 
L 303.902878 138.808775 
L 303.902878 138.808775 
L 304.367666 144.735709 
L 304.367666 144.735709 
L 305.297242 155.034259 
L 305.297242 155.034259 
L 305.76203 159.189284 
L 305.76203 159.189284 
L 305.994424 162.19231 
L 305.994424 162.19231 
L 308.085971 175.644995 
L 308.085971 175.644995 
L 309.247942 179.758656 
L 309.247942 179.758656 
L 310.177518 181.681624 
L 310.177518 181.681624 
L 310.642306 182.052124 
L 310.642306 182.052124 
L 310.8747 182.133785 
L 310.8747 182.133785 
L 311.107094 182.372101 
L 311.107094 182.372101 
L 311.804277 182.333128 
L 311.804277 182.333128 
L 312.036671 182.452948 
L 312.036671 182.452948 
L 313.198641 182.396472 
L 313.198641 182.396472 
L 313.895824 181.974483 
L 313.895824 181.974483 
L 314.128218 181.837517 
L 314.128218 181.837517 
L 315.057794 180.427103 
L 315.057794 180.427103 
L 315.754976 178.652447 
L 315.754976 178.652447 
L 317.149341 172.078486 
L 317.149341 172.078486 
L 317.614129 168.84269 
L 317.614129 168.84269 
L 318.311311 163.517807 
L 318.311311 163.517807 
L 319.473282 152.150443 
L 319.473282 152.150443 
L 320.635252 137.658047 
L 320.635252 137.658047 
L 321.564829 123.358686 
L 321.564829 123.358686 
L 323.423981 90.827685 
L 323.423981 90.827685 
L 324.121164 81.556482 
L 324.121164 81.556482 
L 324.818346 74.6282 
L 324.818346 74.6282 
L 325.515528 69.426698 
L 325.515528 69.426698 
L 326.21271 65.594449 
L 326.21271 65.594449 
L 326.909893 62.683158 
L 326.909893 62.683158 
L 327.839469 59.9416 
L 327.839469 59.9416 
L 328.536651 58.487786 
L 328.536651 58.487786 
L 329.466228 57.081188 
L 329.466228 57.081188 
L 330.395804 56.143134 
L 330.395804 56.143134 
L 331.092986 55.578836 
L 331.092986 55.578836 
L 331.32538 55.514983 
L 331.32538 55.514983 
L 332.022563 59.095687 
L 332.022563 59.095687 
L 332.254957 61.453313 
L 332.254957 61.453313 
L 333.184533 76.649568 
L 333.184533 76.649568 
L 335.27608 122.847607 
L 335.27608 122.847607 
L 336.43805 138.027479 
L 336.43805 138.027479 
L 337.135233 143.814801 
L 337.135233 143.814801 
L 338.064809 148.708231 
L 338.064809 148.708231 
L 338.761991 150.877555 
L 338.761991 150.877555 
L 339.459174 151.771548 
L 339.459174 151.771548 
L 340.156356 151.868065 
L 340.156356 151.868065 
L 340.853538 152.106179 
L 340.853538 152.106179 
L 341.55072 152.200355 
L 341.55072 152.200355 
L 342.247903 151.990684 
L 342.247903 151.990684 
L 342.480297 151.894217 
L 342.480297 151.894217 
L 343.409873 150.908693 
L 343.409873 150.908693 
L 343.874661 150.064968 
L 343.874661 150.064968 
L 344.339449 149.103357 
L 344.339449 149.103357 
L 344.804238 147.993993 
L 344.804238 147.993993 
L 345.50142 145.810983 
L 345.50142 145.810983 
L 345.966208 144.866671 
L 345.966208 144.866671 
L 346.430996 144.904627 
L 346.430996 144.904627 
L 346.66339 145.850109 
L 346.66339 145.850109 
L 347.360573 152.609574 
L 347.360573 152.609574 
L 347.825361 157.296589 
L 347.825361 157.296589 
L 348.057755 163.047228 
L 348.057755 163.047228 
L 348.290149 165.814836 
L 348.290149 165.814836 
L 349.219725 185.014497 
L 349.219725 185.014497 
L 349.452119 190.180486 
L 349.452119 190.180486 
L 349.684514 198.843788 
L 349.684514 198.843788 
L 349.916908 202.901177 
L 349.916908 202.901177 
L 350.149302 209.620244 
L 350.149302 209.620244 
L 350.381696 213.033862 
L 350.381696 213.033862 
L 350.61409 219.291101 
L 350.61409 219.291101 
L 350.846484 221.928918 
L 350.846484 221.928918 
L 351.078878 227.773123 
L 351.078878 227.773123 
L 351.77606 236.176841 
L 351.77606 236.176841 
L 352.473243 245.234251 
L 352.473243 245.234251 
L 352.705637 249.085021 
L 352.705637 249.085021 
L 353.170425 253.06314 
L 353.170425 253.06314 
L 354.100001 262.167257 
L 354.100001 262.167257 
L 354.797184 267.434241 
L 354.797184 267.434241 
L 355.261972 271.002734 
L 355.261972 271.002734 
L 355.72676 274.149696 
L 355.72676 274.149696 
L 356.423942 277.440594 
L 356.423942 277.440594 
L 356.88873 279.615412 
L 356.88873 279.615412 
L 357.818307 281.835106 
L 357.818307 281.835106 
L 358.050701 282.404949 
L 358.050701 282.404949 
L 358.283095 282.616453 
L 358.283095 282.616453 
L 358.515489 283.081537 
L 358.980277 283.425529 
L 358.980277 283.425529 
L 359.212671 283.610678 
L 359.212671 283.610678 
L 361.769006 283.483124 
L 361.769006 283.483124 
L 362.233794 283.224354 
L 362.233794 283.224354 
L 362.466189 283.101431 
L 363.163371 282.15722 
L 363.163371 282.15722 
L 363.628159 281.378366 
L 363.628159 281.378366 
L 364.325341 279.511314 
L 364.325341 279.511314 
L 365.022524 277.29625 
L 365.022524 277.29625 
L 365.487312 275.230872 
L 365.487312 275.230872 
L 365.9521 272.739536 
L 365.9521 272.739536 
L 366.881676 267.605143 
L 366.881676 267.605143 
L 367.578859 263.226607 
L 367.578859 263.226607 
L 370.135194 241.880721 
L 370.135194 241.880721 
L 370.832376 234.730812 
L 370.832376 234.730812 
L 371.994346 222.464317 
L 371.994346 222.464317 
L 373.156317 209.794962 
L 373.156317 209.794962 
L 373.621105 206.184138 
L 373.621105 206.184138 
L 374.085893 203.695244 
L 374.085893 203.695244 
L 374.550681 201.992582 
L 374.550681 201.992582 
L 375.01547 200.866123 
L 375.01547 200.866123 
L 375.480258 200.152546 
L 375.480258 200.152546 
L 375.945046 199.671028 
L 375.945046 199.671028 
L 376.874622 199.05631 
L 376.874622 199.05631 
L 377.571805 198.711351 
L 377.571805 198.711351 
L 378.733775 198.293991 
L 378.733775 198.293991 
L 379.198563 197.921659 
L 379.198563 197.921659 
L 380.12814 196.133622 
L 380.12814 196.133622 
L 381.057716 192.874981 
L 381.057716 192.874981 
L 381.987292 187.936421 
L 381.987292 187.936421 
L 382.916869 180.90455 
L 382.916869 180.90455 
L 383.381657 175.925847 
L 383.381657 175.925847 
L 384.078839 167.807712 
L 384.078839 167.807712 
L 385.008415 154.030724 
L 385.008415 154.030724 
L 385.937992 137.947853 
L 385.937992 137.947853 
L 388.261933 91.974343 
L 388.261933 91.974343 
L 388.959115 82.347445 
L 388.959115 82.347445 
L 389.656297 75.228826 
L 389.656297 75.228826 
L 390.35348 69.91773 
L 390.35348 69.91773 
L 391.050662 65.939 
L 391.050662 65.939 
L 391.747844 62.979171 
L 391.747844 62.979171 
L 392.67742 60.087724 
L 392.67742 60.087724 
L 393.606997 58.183988 
L 393.606997 58.183988 
L 394.304179 57.174093 
L 394.304179 57.174093 
L 395.698544 55.860043 
L 395.698544 55.860043 
L 396.62812 55.33421 
L 396.62812 55.33421 
L 397.325302 55.034075 
L 397.325302 55.034075 
L 398.487273 54.745541 
L 398.487273 54.745541 
" clip-path="url(#p61e3df927c)" style="fill: none; stroke: #1f77b4; stroke-width: 1.5; stroke-linecap: square"/>
   </g>
   <g id="line2d_24">
    <path d="M 73.832727 54.451003 
L 73.832727 54.098769 
L 74.065121 54.35011 
L 74.065121 54.170457 
L 74.297515 54.099634 
L 74.297515 54.495268 
L 74.52991 54.056997 
L 74.762304 54.244944 
L 74.762304 54.032168 
L 74.994698 54.169592 
L 75.227092 54.215892 
L 75.459486 54.128329 
L 75.459486 54.190249 
L 75.69188 54.597382 
L 75.69188 54.428413 
L 75.924274 54.154735 
L 75.924274 54.312765 
L 76.156668 54.289921 
L 76.156668 54.54172 
L 76.389062 54.108079 
L 76.389062 54.190707 
L 76.621456 54.237058 
L 76.621456 54.213958 
L 76.85385 53.809777 
L 76.85385 54.150156 
L 77.086245 54.298926 
L 77.086245 54.021127 
L 77.551033 54.035933 
L 77.783427 54.337849 
L 77.783427 53.936618 
L 78.015821 54.08956 
L 78.015821 53.897644 
L 78.248215 53.944148 
L 78.480609 54.364204 
L 78.713003 54.018024 
L 78.713003 54.129957 
L 78.945397 54.33154 
L 78.945397 54.239449 
L 79.177791 53.962718 
L 79.177791 54.371632 
L 79.410185 54.007238 
L 79.410185 54.497507 
L 79.64258 54.158246 
L 79.64258 54.222455 
L 80.107368 54.174578 
L 80.107368 54.270688 
L 80.339762 54.221794 
L 80.339762 54.506309 
L 80.572156 54.045244 
L 80.572156 54.179768 
L 80.80455 54.071599 
L 80.80455 53.901664 
L 81.036944 59.578477 
L 81.269338 54.155244 
L 81.269338 54.470032 
L 81.501732 54.059897 
L 81.734126 54.670749 
L 81.734126 53.888893 
L 81.96652 53.937279 
L 81.96652 53.896729 
L 82.198915 54.365272 
L 82.198915 54.294703 
L 82.431309 54.376974 
L 82.431309 53.979407 
L 82.663703 54.305286 
L 83.128491 54.010087 
L 83.128491 54.094698 
L 83.360885 54.006474 
L 83.360885 53.826516 
L 83.593279 54.170508 
L 83.593279 53.949185 
L 83.825673 54.361558 
L 83.825673 53.866914 
L 84.058067 54.281933 
L 84.058067 54.14863 
L 84.290461 54.239551 
L 84.290461 54.463011 
L 84.522855 54.867142 
L 84.522855 54.387303 
L 84.75525 54.587206 
L 84.75525 53.886756 
L 84.987644 54.319685 
L 85.220038 54.171983 
L 85.452432 54.452631 
L 85.452432 53.903801 
L 85.684826 54.515772 
L 85.684826 54.323246 
L 85.91722 53.930817 
L 85.91722 54.122682 
L 86.149614 54.491096 
L 86.149614 54.319685 
L 86.382008 54.104009 
L 86.382008 54.638034 
L 86.846796 53.894388 
L 87.07919 54.462044 
L 87.07919 53.77869 
L 87.311585 54.451461 
L 87.311585 53.737579 
L 87.776373 61.307851 
L 88.008767 60.39376 
L 88.008767 60.626429 
L 88.705949 70.574322 
L 88.705949 70.297032 
L 88.938343 70.878273 
L 88.938343 70.473887 
L 89.635525 80.033625 
L 89.86792 83.68037 
L 90.100314 83.560601 
L 90.100314 82.876535 
L 90.797496 93.805017 
L 91.02989 93.370155 
L 91.02989 93.121764 
L 91.959466 103.460915 
L 91.959466 102.98301 
L 92.424255 110.060723 
L 92.656649 109.385356 
L 92.656649 109.746291 
L 93.121437 115.339663 
L 93.353831 115.292854 
L 93.353831 115.6255 
L 93.586225 117.64295 
L 93.818619 120.491507 
L 93.818619 120.297353 
L 94.051013 121.36927 
L 94.051013 120.594791 
L 94.283407 122.345483 
L 94.515801 124.89009 
L 94.515801 124.77836 
L 94.748195 125.108513 
L 94.748195 125.782912 
L 94.98059 126.489569 
L 94.98059 126.173866 
L 95.212984 128.242042 
L 95.445378 128.347362 
L 95.910166 130.618697 
L 96.14256 130.876094 
L 96.14256 130.845821 
L 96.374954 131.364989 
L 96.374954 130.987366 
L 96.839742 132.305892 
L 96.839742 132.14598 
L 97.072136 132.069 
L 97.072136 132.194722 
L 97.30453 132.218177 
L 97.30453 132.365268 
L 97.536925 132.344204 
L 97.536925 132.397525 
L 97.769319 133.062004 
L 97.769319 132.740195 
L 98.001713 132.529607 
L 98.001713 132.216803 
L 98.234107 132.879094 
L 98.466501 132.244278 
L 98.466501 132.850958 
L 98.698895 133.146717 
L 98.931289 132.623478 
L 98.931289 132.957855 
L 99.163683 132.530319 
L 99.163683 132.664385 
L 99.396077 132.778914 
L 99.396077 133.286227 
L 99.628471 133.118327 
L 99.628471 132.342322 
L 99.860865 132.717706 
L 99.860865 131.873015 
L 100.09326 132.982429 
L 100.09326 132.535509 
L 100.325654 132.546702 
L 100.325654 132.108737 
L 100.558048 130.797638 
L 100.790442 131.695091 
L 100.790442 131.411187 
L 101.022836 130.453697 
L 101.022836 130.971441 
L 101.25523 128.892834 
L 101.25523 129.096197 
L 101.487624 129.228126 
L 101.487624 129.717225 
L 101.720018 127.746176 
L 101.720018 128.180733 
L 101.952412 127.494479 
L 101.952412 127.853938 
L 102.4172 123.195619 
L 102.4172 123.466396 
L 102.649595 123.149726 
L 102.649595 123.150031 
L 102.881989 121.038048 
L 103.114383 117.053366 
L 103.346777 116.484031 
L 103.346777 117.377362 
L 103.811565 109.201327 
L 103.811565 108.998219 
L 104.043959 109.106794 
L 104.043959 109.018214 
L 104.276353 105.311584 
L 104.508747 99.269461 
L 104.508747 99.746959 
L 104.741141 99.888606 
L 104.741141 99.826381 
L 104.973535 95.693132 
L 104.973535 95.840478 
L 105.20593 87.768184 
L 105.438324 88.089688 
L 105.438324 87.924077 
L 105.670718 83.611429 
L 105.903112 75.526315 
L 106.135506 74.61716 
L 106.3679 69.685061 
L 106.3679 69.955482 
L 106.832688 54.287071 
L 106.832688 54.849487 
L 107.065082 54.803187 
L 107.065082 54.621346 
L 107.297476 54.037867 
L 107.529871 54.265194 
L 107.529871 54.244791 
L 107.762265 53.96221 
L 107.762265 54.207548 
L 107.994659 54.529764 
L 108.459447 53.986479 
L 108.459447 54.116424 
L 108.691841 54.182668 
L 108.691841 53.989684 
L 108.924235 53.76541 
L 108.924235 54.213094 
L 109.156629 54.460518 
L 109.389023 54.131179 
L 109.389023 54.377941 
L 109.621417 54.332506 
L 109.621417 53.942214 
L 110.086206 54.497863 
L 110.086206 54.00683 
L 110.3186 54.240416 
L 110.550994 54.107418 
L 110.783388 54.240772 
L 110.783388 54.082335 
L 111.015782 54.22098 
L 111.015782 54.213806 
L 111.248176 53.861062 
L 111.248176 54.30437 
L 111.48057 54.310679 
L 111.48057 54.164199 
L 111.712964 54.030337 
L 111.712964 54.033796 
L 111.945358 54.25339 
L 111.945358 53.831807 
L 112.177752 54.018685 
L 112.177752 53.81807 
L 112.410146 54.057201 
L 112.410146 53.895304 
L 112.642541 53.67912 
L 112.642541 54.307016 
L 112.874935 54.386947 
L 112.874935 54.18801 
L 113.107329 54.220878 
L 113.107329 53.927205 
L 113.339723 54.362881 
L 113.339723 54.689117 
L 113.572117 54.545435 
L 113.572117 54.319176 
L 113.804511 54.129194 
L 114.036905 54.237312 
L 114.036905 53.791104 
L 114.269299 53.747348 
L 114.269299 54.260055 
L 114.734087 54.041123 
L 114.734087 54.07221 
L 114.966481 54.359981 
L 114.966481 54.246165 
L 115.198876 53.809166 
L 115.198876 53.972029 
L 115.43127 54.319685 
L 115.43127 53.957631 
L 115.896058 54.473695 
L 116.128452 54.499542 
L 116.128452 54.235531 
L 116.360846 54.011511 
L 116.360846 54.129398 
L 116.59324 53.961548 
L 116.59324 54.869024 
L 116.825634 54.179157 
L 116.825634 54.233903 
L 117.290422 54.059999 
L 117.290422 54.275166 
L 117.522816 54.390712 
L 117.522816 54.165522 
L 117.755211 54.078977 
L 117.755211 54.336577 
L 117.987605 54.290022 
L 117.987605 54.102737 
L 118.219999 54.334541 
L 118.219999 54.288852 
L 118.452393 54.150665 
L 118.452393 54.001437 
L 118.684787 54.415846 
L 118.684787 54.070175 
L 118.917181 54.382113 
L 118.917181 53.87424 
L 119.149575 53.932395 
L 119.381969 54.179615 
L 119.381969 54.446729 
L 119.614363 54.376262 
L 119.614363 54.208871 
L 119.846757 54.082131 
L 119.846757 53.952034 
L 120.079151 54.09943 
L 120.079151 53.873375 
L 120.311546 54.135198 
L 120.311546 54.57876 
L 120.776334 53.876988 
L 120.776334 54.05135 
L 121.008728 54.000114 
L 121.008728 53.796446 
L 121.473516 54.661998 
L 121.473516 54.267178 
L 121.70591 54.326045 
L 121.70591 54.577743 
L 121.938304 54.545689 
L 121.938304 54.219403 
L 122.170698 54.331183 
L 122.170698 54.026622 
L 122.403092 54.278117 
L 122.403092 54.525083 
L 122.635486 54.367867 
L 122.635486 54.077908 
L 122.867881 53.628953 
L 122.867881 54.117238 
L 123.100275 54.497863 
L 123.100275 54.250388 
L 123.332669 53.94776 
L 123.332669 54.148528 
L 123.565063 54.095105 
L 123.565063 53.950711 
L 123.797457 54.308034 
L 124.029851 54.093019 
L 124.029851 53.797973 
L 124.262245 54.305693 
L 124.494639 54.164809 
L 124.727033 54.443575 
L 124.727033 54.03227 
L 124.959427 54.221387 
L 124.959427 54.123547 
L 125.191821 54.035374 
L 125.191821 54.182159 
L 125.65661 54.07277 
L 125.65661 54.226373 
L 125.889004 54.408672 
L 125.889004 54.03517 
L 126.121398 53.758134 
L 126.121398 54.355402 
L 126.353792 54.359676 
L 126.353792 54.109606 
L 126.586186 54.376211 
L 126.586186 54.338714 
L 126.81858 53.932802 
L 126.81858 54.279796 
L 127.050974 54.501882 
L 127.050974 54.141609 
L 127.283368 54.401193 
L 127.283368 54.297502 
L 127.515762 54.05369 
L 127.515762 54.291294 
L 127.980551 54.013038 
L 127.980551 54.081266 
L 128.212945 54.411267 
L 128.212945 54.172747 
L 128.445339 54.175901 
L 128.445339 54.432382 
L 128.677733 54.046109 
L 128.677733 54.194574 
L 128.910127 54.350314 
L 128.910127 54.3466 
L 129.142521 53.982205 
L 129.142521 54.503866 
L 129.374915 53.728014 
L 129.607309 54.107469 
L 129.607309 54.338663 
L 129.839703 54.086252 
L 129.839703 54.341054 
L 130.072097 54.530425 
L 130.072097 54.121969 
L 130.304491 54.270892 
L 130.304491 54.414472 
L 130.536886 54.002709 
L 130.536886 54.207904 
L 130.76928 54.300961 
L 130.76928 54.071091 
L 131.001674 54.230087 
L 131.001674 54.225966 
L 131.234068 54.553982 
L 131.234068 54.810514 
L 131.466462 61.065463 
L 131.698856 59.626557 
L 131.698856 60.033283 
L 132.163644 74.029966 
L 132.163644 73.789716 
L 132.396038 83.23574 
L 132.628432 83.47019 
L 132.628432 83.84013 
L 133.093221 94.922673 
L 133.325615 104.066476 
L 133.558009 104.786005 
L 133.558009 104.741639 
L 134.022797 115.740843 
L 134.022797 115.492655 
L 134.255191 123.762054 
L 134.487585 122.907746 
L 134.719979 127.795529 
L 134.719979 127.441615 
L 134.952373 135.678655 
L 134.952373 135.086729 
L 135.184767 135.128399 
L 135.184767 135.108048 
L 135.417161 139.328554 
L 135.649556 146.661221 
L 135.88195 145.490446 
L 135.88195 145.863999 
L 136.114344 149.828585 
L 136.114344 149.501637 
L 136.346738 156.570802 
L 136.346738 156.363114 
L 136.579132 154.384943 
L 136.579132 154.812376 
L 136.811526 159.351435 
L 136.811526 158.924816 
L 137.04392 160.143976 
L 137.04392 159.980197 
L 137.276314 162.987292 
L 137.276314 162.742361 
L 137.508708 168.095534 
L 137.508708 168.029544 
L 137.741102 167.516328 
L 137.741102 167.589136 
L 137.973496 170.955335 
L 137.973496 170.796847 
L 138.205891 171.071746 
L 139.135467 179.902898 
L 139.367861 180.039507 
L 139.367861 179.987306 
L 139.600255 181.984455 
L 139.600255 181.828664 
L 139.832649 182.410464 
L 139.832649 182.209391 
L 140.065043 184.155152 
L 140.529831 185.779105 
L 140.762226 188.630715 
L 140.762226 188.339789 
L 140.99462 188.235386 
L 140.99462 188.446686 
L 141.227014 190.474006 
L 141.227014 190.160541 
L 141.459408 190.002054 
L 141.459408 190.031869 
L 141.691802 191.978851 
L 141.924196 192.07079 
L 141.924196 191.906044 
L 142.15659 193.366115 
L 142.15659 193.353396 
L 142.388984 193.822397 
L 142.388984 194.110423 
L 142.621378 195.570698 
L 142.853772 195.732951 
L 143.318561 197.905989 
L 143.318561 198.245351 
L 143.550955 198.456244 
L 143.550955 198.35296 
L 143.783349 198.823996 
L 143.783349 198.653247 
L 144.015743 199.132424 
L 144.248137 200.335354 
L 144.480531 200.120035 
L 144.480531 200.385673 
L 144.712925 200.985383 
L 144.945319 200.746303 
L 144.945319 201.110138 
L 145.177713 201.409713 
L 145.177713 201.278496 
L 145.410107 201.43963 
L 145.410107 201.702826 
L 145.642501 201.988715 
L 145.642501 201.966837 
L 146.10729 201.49636 
L 146.10729 201.739052 
L 146.339684 201.928474 
L 146.339684 202.217008 
L 146.572078 202.619206 
L 146.572078 202.416962 
L 147.26926 203.056256 
L 147.26926 202.792907 
L 147.501654 202.468757 
L 147.501654 202.608267 
L 147.734048 202.672883 
L 147.734048 202.392337 
L 147.966442 202.56095 
L 147.966442 202.751237 
L 148.198836 202.802726 
L 148.198836 202.657467 
L 148.431231 201.968363 
L 148.431231 202.164043 
L 148.663625 202.530677 
L 148.663625 202.368271 
L 148.896019 202.653855 
L 149.128413 202.423628 
L 149.128413 202.584151 
L 149.360807 202.826334 
L 149.360807 202.519789 
L 149.593201 201.975639 
L 149.825595 201.990903 
L 149.825595 202.396916 
L 150.057989 202.289562 
L 150.057989 201.757775 
L 150.290383 201.479875 
L 150.290383 201.601068 
L 150.522777 200.745794 
L 150.522777 201.347183 
L 151.21996 199.317878 
L 151.684748 197.520225 
L 151.684748 197.791918 
L 151.917142 197.45683 
L 151.917142 197.157713 
L 152.149536 195.216734 
L 152.149536 195.421725 
L 152.38193 194.245455 
L 153.079112 189.441317 
L 153.543901 184.937466 
L 153.543901 185.064969 
L 153.776295 175.879038 
L 153.776295 176.203595 
L 154.008689 179.082526 
L 154.008689 178.828081 
L 154.241083 169.531947 
L 154.241083 169.961619 
L 154.473477 172.65413 
L 154.473477 172.40401 
L 154.705871 161.901333 
L 154.938265 164.156947 
L 155.170659 153.384206 
L 155.403053 154.001011 
L 155.403053 153.919503 
L 155.635447 143.957821 
L 155.635447 144.04457 
L 155.867841 142.257143 
L 156.100236 137.448884 
L 156.100236 137.641308 
L 156.33263 138.800838 
L 156.33263 138.445398 
L 156.565024 141.168793 
L 156.565024 141.151799 
L 156.797418 148.917089 
L 157.029812 148.996664 
L 157.029812 148.569943 
L 157.262206 153.453554 
L 157.4946 154.60072 
L 157.4946 154.233476 
L 157.726994 156.672661 
L 157.726994 156.466958 
L 157.959388 161.372193 
L 158.191782 160.859384 
L 158.191782 160.922525 
L 158.424176 163.465859 
L 158.656571 163.568431 
L 158.656571 163.31597 
L 159.121359 166.6319 
L 159.353753 166.331918 
L 159.353753 166.643653 
L 159.586147 167.548535 
L 159.586147 167.041679 
L 159.818541 167.869479 
L 159.818541 167.760191 
L 160.050935 168.043535 
L 160.050935 167.883928 
L 160.283329 168.115783 
L 160.515723 168.448328 
L 160.515723 168.17577 
L 160.748117 168.085002 
L 160.748117 168.110543 
L 160.980511 168.200395 
L 160.980511 168.711168 
L 161.212906 168.804429 
L 161.212906 168.556853 
L 161.4453 168.227768 
L 161.4453 167.912471 
L 161.677694 168.336394 
L 161.677694 168.332222 
L 161.910088 168.264197 
L 162.142482 168.53126 
L 162.142482 168.091209 
L 162.374876 168.186251 
L 162.60727 168.32281 
L 162.60727 168.185488 
L 162.839664 168.141477 
L 162.839664 168.265774 
L 163.072058 167.741518 
L 163.072058 167.910284 
L 163.304452 168.081847 
L 163.304452 167.935316 
L 163.536846 167.293987 
L 163.536846 166.888432 
L 163.769241 167.474709 
L 163.769241 167.353668 
L 164.001635 166.347233 
L 164.001635 166.433727 
L 164.234029 166.109323 
L 164.466423 165.719794 
L 164.466423 165.820382 
L 164.698817 163.288953 
L 164.698817 163.452783 
L 164.931211 164.135833 
L 165.163605 161.850505 
L 165.395999 161.278474 
L 165.395999 161.549251 
L 165.628393 159.89121 
L 165.860787 155.793525 
L 165.860787 155.895893 
L 166.093181 157.6098 
L 166.325576 152.35981 
L 166.55797 153.380644 
L 166.790364 150.272401 
L 167.022758 149.466378 
L 167.022758 149.034976 
L 167.255152 146.64438 
L 167.487546 140.708084 
L 167.71994 141.70063 
L 167.952334 137.180243 
L 168.184728 135.886393 
L 168.417122 132.722794 
L 168.417122 132.962383 
L 168.649516 126.155702 
L 168.881911 126.67599 
L 168.881911 126.389491 
L 169.114305 121.227827 
L 169.114305 121.365556 
L 169.346699 119.482375 
L 169.346699 119.573957 
L 169.579093 115.498354 
L 169.579093 115.865852 
L 169.811487 107.973365 
L 170.043881 107.476125 
L 170.043881 107.55163 
L 170.276275 102.46491 
L 170.276275 102.926687 
L 170.508669 93.581353 
L 170.741063 94.267455 
L 170.741063 93.931807 
L 170.973457 88.117621 
L 171.205851 87.472425 
L 171.205851 86.966893 
L 171.438246 87.238433 
L 171.438246 87.786501 
L 171.67064 92.696314 
L 171.903034 104.754817 
L 171.903034 104.211023 
L 172.135428 104.92923 
L 172.135428 104.620344 
L 172.367822 111.364189 
L 172.600216 122.581765 
L 172.83261 124.228155 
L 173.065004 130.53261 
L 173.065004 130.193095 
L 173.297398 140.637058 
L 173.529792 142.614669 
L 173.762187 148.571011 
L 173.762187 148.278305 
L 173.994581 159.057508 
L 173.994581 159.044178 
L 174.226975 159.598503 
L 174.226975 159.106759 
L 174.459369 165.020617 
L 174.459369 165.019395 
L 174.691763 178.004301 
L 174.924157 174.775678 
L 174.924157 174.783056 
L 175.156551 184.233353 
L 175.388945 184.340352 
L 175.388945 184.594339 
L 175.621339 191.139909 
L 175.853733 192.984167 
L 176.086127 198.442914 
L 176.318522 208.738665 
L 176.550916 205.363461 
L 176.78331 215.404768 
L 176.78331 215.272076 
L 177.015704 212.733778 
L 177.248098 221.971911 
L 177.480492 219.244598 
L 177.480492 219.985751 
L 177.712886 228.598073 
L 177.712886 228.181884 
L 177.94528 225.813725 
L 177.94528 226.206612 
L 178.177674 234.973555 
L 178.177674 234.658157 
L 178.410068 231.988287 
L 178.410068 232.144994 
L 178.642462 234.40361 
L 178.874857 238.214032 
L 178.874857 238.200091 
L 179.107251 239.64495 
L 179.107251 239.525792 
L 179.339645 243.768685 
L 179.572039 244.156382 
L 179.572039 244.602844 
L 179.804433 249.528583 
L 180.036827 248.277166 
L 180.036827 248.289224 
L 180.269221 254.550585 
L 180.501615 252.058027 
L 180.501615 252.279401 
L 180.734009 253.940496 
L 180.966403 256.901546 
L 181.198797 257.44422 
L 181.198797 256.867304 
L 181.431192 260.642162 
L 181.663586 260.070233 
L 181.663586 260.470497 
L 181.89598 261.132482 
L 181.89598 261.698256 
L 182.360768 263.851705 
L 182.360768 263.345002 
L 182.593162 265.636944 
L 182.593162 265.241716 
L 182.825556 264.992664 
L 183.05795 267.313047 
L 183.05795 266.855646 
L 183.290344 267.029194 
L 183.290344 266.797644 
L 183.522738 267.399338 
L 183.755132 268.385371 
L 183.755132 268.234057 
L 183.987527 268.348178 
L 183.987527 268.341055 
L 184.219921 269.309128 
L 184.452315 269.386668 
L 184.452315 269.30577 
L 184.684709 269.171603 
L 184.684709 269.403865 
L 184.917103 269.563879 
L 184.917103 270.144509 
L 185.149497 269.614198 
L 185.149497 269.944707 
L 185.381891 269.909397 
L 185.846679 270.318922 
L 185.846679 270.28758 
L 186.079073 269.828653 
L 186.079073 270.12029 
L 186.311467 269.989176 
L 186.311467 270.247844 
L 186.543862 269.479623 
L 186.543862 270.028251 
L 186.776256 269.835776 
L 186.776256 270.056285 
L 187.00865 269.892048 
L 187.00865 270.278778 
L 187.241044 269.896271 
L 187.473438 270.044786 
L 187.705832 269.542154 
L 187.705832 269.586774 
L 187.938226 269.717533 
L 187.938226 269.883602 
L 188.17062 268.987777 
L 188.17062 269.097268 
L 188.403014 269.487967 
L 188.403014 269.842848 
L 188.867802 268.734604 
L 188.867802 268.652282 
L 189.100197 268.840737 
L 189.100197 269.075187 
L 189.332591 267.292289 
L 189.564985 268.042702 
L 189.564985 267.733256 
L 189.797379 267.208644 
L 189.797379 267.359856 
L 190.262167 265.64712 
L 190.262167 265.840866 
L 190.494561 263.104447 
L 190.726955 263.682685 
L 190.726955 263.284405 
L 190.959349 259.410079 
L 190.959349 259.563682 
L 191.191743 261.029453 
L 191.191743 260.87646 
L 191.424137 259.511837 
L 191.656532 255.54252 
L 191.888926 256.426897 
L 191.888926 256.081327 
L 192.12132 250.140046 
L 192.12132 250.417641 
L 192.353714 252.537561 
L 192.353714 252.347528 
L 192.586108 249.985425 
L 192.818502 245.338909 
L 192.818502 245.434867 
L 193.050896 245.15488 
L 193.050896 244.538635 
L 193.28329 236.677998 
L 193.515684 238.764847 
L 193.748078 235.443015 
L 193.980472 229.843385 
L 194.212867 227.71914 
L 194.212867 228.125968 
L 194.445261 218.305221 
L 194.677655 219.371439 
L 194.910049 221.170008 
L 194.910049 221.00745 
L 195.142443 219.227045 
L 195.142443 219.510339 
L 195.374837 222.02284 
L 195.374837 221.879616 
L 195.607231 230.244056 
L 195.607231 230.156392 
L 195.839625 233.662558 
L 196.072019 243.38633 
L 196.072019 243.310571 
L 196.304413 243.187851 
L 196.304413 243.014761 
L 196.536807 255.021062 
L 196.536807 254.263068 
L 196.769202 251.480705 
L 196.769202 252.031876 
L 197.466384 262.063363 
L 197.466384 261.958298 
L 197.698778 269.120317 
L 197.698778 268.930284 
L 197.931172 267.956157 
L 198.163566 276.929515 
L 198.39596 273.693465 
L 198.628354 275.159896 
L 198.628354 274.99805 
L 198.860748 280.833555 
L 199.093142 279.849404 
L 199.093142 279.856832 
L 199.325537 281.481752 
L 199.557931 285.042766 
L 199.557931 284.931697 
L 199.790325 284.817678 
L 199.790325 284.212626 
L 200.022719 288.686916 
L 200.255113 288.387138 
L 200.255113 287.658653 
L 200.487507 288.556259 
L 200.487507 288.363174 
L 200.719901 291.425117 
L 200.719901 290.672465 
L 200.952295 290.232108 
L 201.184689 291.103257 
L 201.184689 290.933219 
L 201.417083 293.049527 
L 201.649477 292.719832 
L 201.881872 292.725327 
L 201.881872 292.945581 
L 202.114266 293.665518 
L 202.114266 294.168863 
L 202.34666 293.773636 
L 202.34666 293.828585 
L 202.811448 294.77478 
L 202.811448 294.445288 
L 203.043842 294.542619 
L 203.043842 294.489196 
L 203.276236 294.879641 
L 203.276236 294.843212 
L 203.50863 295.012638 
L 203.741024 294.762314 
L 203.741024 295.488 
L 203.973418 294.867227 
L 203.973418 294.869363 
L 204.205812 294.97743 
L 204.205812 294.878471 
L 204.438207 295.230146 
L 204.438207 295.096487 
L 204.670601 295.305396 
L 204.670601 294.876487 
L 204.902995 294.919734 
L 204.902995 294.874502 
L 205.135389 294.804493 
L 205.135389 295.004498 
L 205.367783 295.162986 
L 205.367783 295.100964 
L 205.600177 294.600723 
L 205.600177 295.065145 
L 205.832571 294.472864 
L 206.064965 293.758168 
L 206.297359 294.12531 
L 206.762147 293.00684 
L 206.762147 293.296951 
L 206.994542 293.347067 
L 206.994542 293.06535 
L 207.226936 291.136837 
L 207.226936 291.397642 
L 207.45933 291.851533 
L 207.691724 290.710421 
L 207.691724 291.402781 
L 207.924118 289.231727 
L 207.924118 289.349715 
L 208.156512 289.615049 
L 208.156512 289.317763 
L 208.388906 285.158821 
L 208.388906 285.280574 
L 208.6213 286.928796 
L 208.6213 286.646163 
L 208.853694 286.182758 
L 208.853694 286.254803 
L 209.086088 281.062255 
L 209.086088 281.31553 
L 209.318482 282.982425 
L 209.550877 282.194667 
L 209.783271 276.04931 
L 210.015665 278.649578 
L 210.248059 276.621036 
L 210.480453 269.628037 
L 210.712847 272.6014 
L 210.712847 272.488449 
L 210.945241 269.698352 
L 210.945241 269.911127 
L 211.177635 262.890603 
L 211.410029 264.316789 
L 211.642423 261.266955 
L 211.874817 254.000329 
L 212.107212 254.265866 
L 212.107212 254.015288 
L 212.339606 239.832846 
L 212.339606 239.979937 
L 212.572 244.488621 
L 212.572 244.139592 
L 212.804394 240.937681 
L 213.036788 227.317197 
L 213.269182 230.832878 
L 213.501576 224.949445 
L 213.73397 230.172113 
L 213.966364 231.912426 
L 214.198758 241.955056 
L 214.198758 241.703866 
L 214.431152 239.68718 
L 214.431152 239.719132 
L 214.895941 247.931444 
L 214.895941 247.848613 
L 215.128335 249.918519 
L 215.128335 249.706506 
L 215.360729 255.699786 
L 215.593123 254.625733 
L 215.593123 255.442288 
L 215.825517 262.33353 
L 215.825517 261.53875 
L 216.057911 259.493012 
L 216.057911 259.518095 
L 216.522699 264.625827 
L 216.522699 264.760199 
L 216.755093 265.392165 
L 216.755093 264.848728 
L 216.987487 268.931047 
L 217.219882 268.321874 
L 217.219882 267.749436 
L 217.452276 269.314623 
L 217.68467 271.532536 
L 217.68467 271.267762 
L 217.917064 271.209709 
L 217.917064 271.620862 
L 218.149458 274.109247 
L 218.149458 274.103955 
L 218.381852 273.149976 
L 218.381852 273.626661 
L 218.84664 275.211335 
L 218.84664 275.594249 
L 219.079034 275.311668 
L 219.079034 275.706844 
L 219.311428 277.095329 
L 219.543822 276.446471 
L 220.008611 277.784993 
L 220.008611 277.589821 
L 220.241005 277.826815 
L 220.241005 277.463642 
L 220.473399 278.306807 
L 220.473399 278.122167 
L 220.705793 278.19294 
L 220.705793 277.954267 
L 220.938187 278.716942 
L 220.938187 278.384855 
L 221.170581 278.691757 
L 221.170581 278.457561 
L 221.402975 278.716585 
L 221.402975 278.366182 
L 221.867763 278.576312 
L 221.867763 279.209348 
L 222.100157 278.336367 
L 222.100157 278.744671 
L 222.332552 278.929463 
L 222.332552 278.622358 
L 222.564946 278.58252 
L 222.564946 278.650596 
L 222.79734 279.122497 
L 222.79734 278.584962 
L 223.029734 278.883723 
L 223.029734 278.820277 
L 223.262128 278.100747 
L 223.494522 278.904939 
L 223.494522 278.279994 
L 223.726916 278.550669 
L 223.726916 278.523907 
L 223.95931 278.193652 
L 224.191704 278.395234 
L 224.191704 278.649934 
L 224.424098 277.394446 
L 224.424098 277.630525 
L 224.656492 277.967139 
L 224.656492 278.259082 
L 225.121281 276.935722 
L 225.121281 277.166967 
L 225.353675 277.2239 
L 225.353675 277.338531 
L 225.586069 275.125655 
L 225.586069 275.23998 
L 225.818463 276.391878 
L 226.050857 275.788454 
L 226.050857 276.052465 
L 226.283251 273.923285 
L 226.283251 274.275926 
L 226.515645 274.582166 
L 226.748039 273.974011 
L 226.980433 272.424647 
L 226.980433 272.606437 
L 227.212827 272.283966 
L 227.212827 272.539531 
L 227.445222 269.418518 
L 227.677616 270.38252 
L 227.91001 269.363009 
L 228.142404 267.06832 
L 228.142404 267.527146 
L 228.374798 267.309282 
L 228.607192 263.078651 
L 228.839586 264.849695 
L 229.07198 263.261713 
L 229.304374 260.425774 
L 229.304374 260.701742 
L 229.536768 260.24953 
L 229.769162 255.793251 
L 230.001557 257.300131 
L 230.233951 255.647534 
L 230.233951 255.681317 
L 230.466345 252.206797 
L 230.698739 251.856038 
L 230.698739 252.225521 
L 230.931133 246.880082 
L 231.163527 248.629451 
L 231.395921 246.647311 
L 231.395921 246.664508 
L 231.628315 243.502792 
L 231.628315 243.635484 
L 231.860709 242.536754 
L 232.093103 237.751645 
L 232.325497 238.552631 
L 232.557892 231.666274 
L 232.557892 231.798763 
L 232.790286 233.848877 
L 233.02268 231.965391 
L 233.02268 232.159799 
L 233.255074 227.412646 
L 233.487468 227.350014 
L 233.487468 227.108186 
L 233.719862 220.938815 
L 233.952256 222.600214 
L 233.952256 221.855958 
L 234.18465 213.631486 
L 234.18465 213.685417 
L 234.417044 216.762166 
L 234.649438 214.199345 
L 234.649438 214.291588 
L 234.881832 209.289277 
L 234.881832 209.302862 
L 235.114227 207.968512 
L 235.114227 208.001837 
L 235.346621 201.543372 
L 235.579015 202.210649 
L 235.811409 193.751269 
L 236.043803 195.415772 
L 236.276197 185.878522 
L 236.276197 186.085549 
L 236.508591 188.118618 
L 236.508591 187.995186 
L 236.740985 177.433643 
L 236.973379 180.672136 
L 237.205773 169.583334 
L 237.438168 172.638816 
L 237.670562 161.697818 
L 237.670562 161.803137 
L 237.902956 164.523326 
L 237.902956 164.217391 
L 238.13535 153.817999 
L 238.367744 156.367999 
L 238.367744 156.110043 
L 238.600138 146.948483 
L 238.600138 147.144011 
L 238.832532 148.06731 
L 238.832532 147.460732 
L 239.064926 139.759295 
L 239.29732 138.925949 
L 239.29732 138.959173 
L 239.529714 133.151754 
L 239.529714 133.310496 
L 239.994503 126.172594 
L 240.226897 116.19916 
L 240.226897 116.568184 
L 240.459291 117.514939 
L 240.459291 117.376548 
L 240.691685 110.34768 
L 240.924079 109.134981 
L 240.924079 109.232312 
L 241.156473 104.906181 
L 241.156473 105.243458 
L 241.388867 96.070603 
L 241.388867 96.114206 
L 241.621261 96.425483 
L 241.621261 96.65454 
L 241.853655 91.329402 
L 242.086049 82.909809 
L 242.318443 84.53483 
L 242.318443 84.305723 
L 242.783232 71.404768 
L 243.015626 72.729909 
L 243.24802 68.107815 
L 243.24802 68.225803 
L 243.480414 60.597276 
L 243.480414 60.872785 
L 243.712808 61.344178 
L 243.712808 60.768076 
L 244.177596 54.124361 
L 244.642384 54.131229 
L 244.642384 53.978542 
L 244.874778 54.611526 
L 244.874778 54.218741 
L 245.107173 54.221031 
L 245.107173 54.409435 
L 245.339567 53.839235 
L 245.339567 54.192182 
L 245.804355 54.084065 
L 245.804355 54.062492 
L 246.036749 53.933921 
L 246.036749 54.173306 
L 246.269143 54.421494 
L 246.269143 54.098107 
L 246.501537 54.336017 
L 246.733931 54.195896 
L 246.733931 54.003065 
L 246.966325 54.287733 
L 246.966325 54.167455 
L 247.198719 54.250947 
L 247.431113 54.356369 
L 247.431113 54.04672 
L 247.663508 54.200577 
L 247.663508 54.048958 
L 247.895902 54.363237 
L 247.895902 54.321211 
L 248.128296 54.33042 
L 248.128296 53.87078 
L 248.36069 53.631039 
L 248.36069 54.390305 
L 248.593084 54.226373 
L 248.593084 54.394222 
L 248.825478 54.237872 
L 248.825478 54.095919 
L 249.057872 54.073431 
L 249.057872 54.308339 
L 249.290266 53.996044 
L 249.290266 54.091391 
L 249.52266 54.092561 
L 249.52266 54.340647 
L 249.755054 54.495828 
L 249.755054 53.964601 
L 250.219843 54.369037 
L 250.219843 54.031507 
L 250.452237 53.733662 
L 250.452237 54.205716 
L 250.684631 54.241637 
L 250.684631 53.958292 
L 250.917025 54.100346 
L 251.149419 54.554491 
L 251.149419 53.873477 
L 251.381813 54.094749 
L 251.381813 54.438487 
L 251.614207 54.093833 
L 251.614207 54.188977 
L 251.846601 54.00795 
L 251.846601 54.289412 
L 252.311389 54.170355 
L 252.543783 54.323094 
L 252.543783 54.112048 
L 253.008572 54.021484 
L 253.008572 53.727505 
L 253.240966 54.198237 
L 253.47336 53.98999 
L 253.47336 54.261123 
L 253.705754 53.993958 
L 253.705754 54.089814 
L 253.938148 54.125887 
L 253.938148 54.250846 
L 254.170542 54.241179 
L 254.170542 54.070633 
L 254.402936 54.300656 
L 254.402936 54.094139 
L 254.63533 54.312002 
L 254.63533 54.535768 
L 254.867724 54.115864 
L 254.867724 54.577793 
L 255.100118 54.02937 
L 255.100118 54.290531 
L 255.332513 54.423223 
L 255.332513 54.385217 
L 255.564907 54.077857 
L 255.797301 54.41895 
L 255.797301 54.404195 
L 256.029695 54.143695 
L 256.029695 54.253542 
L 256.262089 54.156262 
L 256.262089 54.220878 
L 256.494483 54.402719 
L 256.494483 54.120697 
L 256.726877 54.11098 
L 256.726877 54.11678 
L 257.191665 54.433348 
L 257.191665 53.75498 
L 257.424059 54.227543 
L 257.424059 54.222303 
L 257.656453 54.102585 
L 257.656453 54.149546 
L 257.888848 54.382011 
L 257.888848 54.231308 
L 258.121242 54.080808 
L 258.121242 53.887214 
L 258.353636 54.486466 
L 258.353636 54.35067 
L 258.58603 53.568 
L 258.58603 54.08203 
L 258.818424 54.483464 
L 258.818424 54.188621 
L 259.050818 54.343344 
L 259.050818 54.122326 
L 259.283212 54.050535 
L 259.283212 54.073533 
L 259.748 54.136216 
L 259.748 54.496438 
L 259.980394 54.217469 
L 259.980394 53.911331 
L 260.212788 54.29623 
L 260.445183 53.654291 
L 260.445183 54.319329 
L 260.677577 54.064273 
L 260.677577 54.230392 
L 260.909971 53.975235 
L 260.909971 53.750503 
L 261.142365 54.654061 
L 261.142365 54.379722 
L 261.374759 54.301368 
L 261.374759 54.320041 
L 261.607153 54.400328 
L 261.607153 53.944046 
L 261.839547 54.413302 
L 261.839547 54.269722 
L 262.071941 53.904004 
L 262.071941 54.130161 
L 262.304335 54.244028 
L 262.304335 54.136216 
L 262.536729 54.062187 
L 262.536729 53.860096 
L 262.769123 54.092104 
L 262.769123 54.330115 
L 263.001518 54.147154 
L 263.001518 54.387812 
L 263.233912 54.300402 
L 263.233912 54.046821 
L 263.6987 54.362118 
L 263.6987 53.973149 
L 263.931094 54.401905 
L 264.163488 54.205716 
L 264.163488 53.997316 
L 264.395882 53.938551 
L 264.395882 54.140744 
L 264.628276 54.006678 
L 264.628276 54.182515 
L 264.86067 53.806826 
L 264.86067 54.391271 
L 265.093064 54.268857 
L 265.325458 54.452326 
L 265.325458 54.056539 
L 265.557853 54.18918 
L 265.557853 54.351077 
L 266.022641 53.947964 
L 266.022641 54.203376 
L 266.255035 54.121868 
L 266.255035 54.257918 
L 266.487429 53.755692 
L 266.487429 53.916826 
L 266.719823 54.58339 
L 266.719823 54.433959 
L 266.952217 53.936821 
L 266.952217 54.426174 
L 267.184611 54.248353 
L 267.184611 54.013597 
L 267.417005 54.158297 
L 267.417005 54.510735 
L 267.649399 54.148833 
L 267.649399 54.267381 
L 267.881793 54.458686 
L 267.881793 53.883042 
L 268.114188 54.169338 
L 268.114188 53.977524 
L 268.346582 53.937025 
L 268.346582 54.107622 
L 268.578976 54.005151 
L 268.578976 54.512465 
L 268.81137 54.557696 
L 269.043764 53.914231 
L 269.043764 54.117848 
L 269.508552 54.303912 
L 269.508552 54.185924 
L 269.740946 54.540397 
L 269.740946 53.591201 
L 269.97334 54.239449 
L 270.670523 53.861113 
L 270.670523 54.321771 
L 270.902917 54.1064 
L 271.135311 54.158246 
L 271.135311 54.02301 
L 271.367705 53.957173 
L 271.367705 54.607761 
L 271.600099 54.659098 
L 271.600099 53.99813 
L 271.832493 54.393307 
L 271.832493 54.156262 
L 272.064887 54.022247 
L 272.064887 54.272266 
L 272.297281 54.313885 
L 272.297281 54.090323 
L 272.529675 54.015124 
L 272.762069 54.151835 
L 272.762069 54.125022 
L 272.994463 54.048093 
L 272.994463 54.277659 
L 273.226858 54.040716 
L 273.459252 54.407604 
L 273.459252 54.149088 
L 273.691646 54.723307 
L 273.691646 54.108944 
L 273.92404 53.981493 
L 273.92404 54.156262 
L 274.156434 54.382266 
L 274.156434 54.250795 
L 274.388828 54.428108 
L 274.388828 53.802196 
L 274.853616 54.328894 
L 275.318404 54.047025 
L 275.318404 54.193505 
L 275.550798 54.502442 
L 275.550798 54.343089 
L 275.783193 54.009374 
L 276.015587 54.197677 
L 276.015587 54.093681 
L 276.480375 54.329097 
L 276.480375 54.300758 
L 276.712769 54.526915 
L 276.712769 54.779783 
L 276.945163 54.281831 
L 276.945163 54.543552 
L 277.177557 54.128838 
L 277.409951 54.328741 
L 277.409951 54.051044 
L 277.642345 53.889249 
L 277.642345 54.217164 
L 277.874739 53.657445 
L 277.874739 54.244791 
L 278.107133 54.484431 
L 278.107133 54.066715 
L 278.339528 54.460619 
L 278.571922 54.2106 
L 278.804316 53.708375 
L 278.804316 54.019855 
L 279.03671 53.992076 
L 279.03671 54.49308 
L 279.269104 54.033033 
L 279.269104 54.218894 
L 279.501498 54.105841 
L 279.733892 54.381197 
L 279.733892 54.366086 
L 279.966286 54.383029 
L 279.966286 54.372548 
L 280.19868 53.883805 
L 280.19868 54.212636 
L 280.431074 54.238991 
L 280.431074 54.154023 
L 280.663468 54.124259 
L 280.663468 54.49018 
L 280.895863 54.007034 
L 280.895863 54.614884 
L 281.128257 54.089763 
L 281.360651 54.129143 
L 281.593045 54.491452 
L 281.593045 54.155397 
L 281.825439 54.214467 
L 281.825439 54.082538 
L 282.057833 54.414116 
L 282.290227 54.362169 
L 282.290227 54.030438 
L 282.522621 54.488603 
L 282.522621 54.454667 
L 282.755015 54.033338 
L 282.755015 54.396715 
L 282.987409 57.334972 
L 282.987409 57.110698 
L 283.452198 70.798088 
L 283.684592 78.439182 
L 283.684592 78.418576 
L 283.916986 78.767148 
L 283.916986 78.686963 
L 284.614168 92.65495 
L 284.614168 92.341383 
L 284.846562 93.161449 
L 284.846562 92.588044 
L 285.543744 101.867083 
L 285.776138 102.046126 
L 285.776138 102.186908 
L 286.473321 106.079144 
L 286.473321 105.907478 
L 286.705715 106.484343 
L 286.938109 106.970491 
L 286.938109 106.745148 
L 287.170503 106.247553 
L 287.170503 106.625227 
L 287.635291 107.115801 
L 287.635291 107.07408 
L 287.867685 106.657891 
L 287.867685 106.843599 
L 288.100079 107.197767 
L 288.100079 107.138391 
L 288.332473 107.253225 
L 288.332473 107.13834 
L 288.797262 105.702385 
L 288.797262 105.82307 
L 289.029656 106.021956 
L 289.029656 105.704573 
L 289.26205 104.722661 
L 289.26205 105.068332 
L 289.494444 101.939942 
L 289.726838 102.739147 
L 289.726838 102.607473 
L 289.959232 100.926281 
L 289.959232 101.199247 
L 290.191626 96.98683 
L 290.191626 97.197621 
L 290.42402 97.62592 
L 290.42402 97.28671 
L 290.656414 95.139774 
L 290.656414 95.31266 
L 290.888808 90.456066 
L 291.121203 89.985487 
L 291.121203 89.646125 
L 291.353597 87.235075 
L 291.585991 82.150391 
L 291.818385 75.092725 
L 292.050779 76.476325 
L 292.283173 72.616449 
L 292.515567 65.481854 
L 292.747961 65.227561 
L 292.747961 65.640443 
L 293.445143 53.791358 
L 293.677538 54.200069 
L 293.909932 54.13993 
L 293.909932 53.890623 
L 294.142326 54.255069 
L 294.142326 54.158246 
L 294.37472 54.149444 
L 294.37472 53.937228 
L 294.607114 54.424037 
L 294.607114 54.04326 
L 294.839508 54.009222 
L 294.839508 54.097191 
L 295.071902 54.138709 
L 295.071902 53.919217 
L 295.304296 54.154939 
L 295.304296 54.148121 
L 295.53669 54.098769 
L 295.53669 54.562886 
L 296.001478 54.008611 
L 296.001478 54.086405 
L 296.233873 54.580643 
L 296.466267 57.910107 
L 296.698661 58.247688 
L 296.698661 58.041934 
L 296.931055 60.743654 
L 297.628237 73.340506 
L 297.860631 72.96268 
L 298.093025 76.154974 
L 298.557813 83.368534 
L 298.790208 83.650504 
L 298.790208 83.012737 
L 299.48739 94.804634 
L 299.48739 94.698908 
L 299.719784 94.490406 
L 299.719784 94.533704 
L 299.952178 97.359315 
L 300.416966 106.548858 
L 300.64936 105.401538 
L 300.64936 105.595133 
L 300.881754 109.235874 
L 301.114149 114.355512 
L 301.346543 113.987658 
L 301.578937 117.476424 
L 301.811331 123.023648 
L 302.043725 123.092182 
L 302.043725 122.876405 
L 302.276119 125.974421 
L 302.276119 125.899018 
L 302.508513 131.732233 
L 302.508513 131.438 
L 302.740907 132.593155 
L 302.973301 135.171494 
L 302.973301 135.148446 
L 303.205695 140.859958 
L 303.438089 140.653237 
L 303.438089 140.833348 
L 303.670484 144.066143 
L 303.902878 149.428931 
L 303.902878 149.39703 
L 304.135272 148.948125 
L 304.367666 152.916374 
L 304.367666 152.590291 
L 304.60006 154.575993 
L 304.832454 156.699933 
L 304.832454 156.51163 
L 305.064848 160.466701 
L 305.064848 160.236067 
L 305.297242 160.950203 
L 305.297242 161.38476 
L 305.529636 163.225558 
L 305.529636 163.07455 
L 305.76203 167.913336 
L 305.76203 167.844497 
L 305.994424 166.727197 
L 305.994424 167.144607 
L 306.226819 170.138525 
L 306.459213 170.224917 
L 306.459213 169.872581 
L 306.691607 172.256105 
L 306.924001 172.780768 
L 307.156395 174.230715 
L 307.156395 174.0678 
L 307.388789 176.75268 
L 307.388789 176.587629 
L 307.621183 176.787583 
L 307.621183 176.612203 
L 307.853577 178.134551 
L 308.085971 178.166503 
L 308.085971 177.7727 
L 308.318365 179.58755 
L 308.550759 179.620418 
L 308.550759 179.892773 
L 309.015548 181.135083 
L 309.015548 180.938894 
L 309.480336 181.8684 
L 309.480336 181.589228 
L 309.71273 181.830139 
L 309.71273 182.193771 
L 309.945124 182.637689 
L 309.945124 182.388332 
L 310.177518 182.381768 
L 310.177518 182.528656 
L 310.409912 182.298836 
L 310.409912 182.738379 
L 310.642306 182.289321 
L 310.642306 182.457934 
L 310.8747 182.826196 
L 310.8747 183.111982 
L 311.107094 181.884885 
L 311.107094 182.151134 
L 311.339489 182.358161 
L 311.339489 182.302906 
L 311.571883 182.288965 
L 311.571883 182.445113 
L 311.804277 182.681242 
L 311.804277 182.898444 
L 312.036671 182.263933 
L 312.036671 182.59434 
L 312.501459 182.504641 
L 312.501459 182.308706 
L 312.733853 181.639344 
L 312.966247 182.266019 
L 312.966247 182.021851 
L 313.198641 180.472843 
L 313.198641 180.47961 
L 313.431035 181.728178 
L 313.431035 181.248899 
L 313.663429 179.929456 
L 313.895824 180.498842 
L 313.895824 180.350683 
L 314.128218 178.245874 
L 314.128218 178.611591 
L 314.360612 178.896717 
L 314.360612 178.425527 
L 314.8254 176.183192 
L 314.8254 176.47193 
L 315.057794 174.477325 
L 315.290188 173.822208 
L 315.522582 172.00924 
L 315.754976 167.393507 
L 315.754976 167.581199 
L 315.98737 169.313931 
L 316.219764 164.405185 
L 316.452159 164.72094 
L 316.452159 164.605699 
L 316.684553 160.239272 
L 316.684553 161.136623 
L 316.916947 160.002889 
L 317.149341 157.376418 
L 317.381735 150.261106 
L 317.381735 150.480394 
L 317.614129 152.589274 
L 317.846523 145.649646 
L 317.846523 145.840442 
L 318.078917 146.120429 
L 318.078917 146.681776 
L 318.311311 141.054519 
L 318.311311 141.38686 
L 318.543705 139.787278 
L 318.776099 136.117383 
L 319.008494 127.488424 
L 319.008494 128.010187 
L 319.240888 128.913898 
L 319.240888 128.856608 
L 319.473282 122.559226 
L 319.705676 120.773834 
L 319.93807 116.83942 
L 319.93807 116.847357 
L 320.170464 108.121677 
L 320.170464 108.488666 
L 320.402858 108.232033 
L 320.402858 108.31176 
L 320.635252 101.934396 
L 320.635252 102.069581 
L 320.867646 92.290301 
L 320.867646 92.532026 
L 321.10004 94.288264 
L 321.10004 93.957144 
L 321.564829 77.159425 
L 321.564829 77.175198 
L 321.797223 79.898898 
L 322.262011 62.294341 
L 322.494405 64.369234 
L 322.494405 64.006264 
L 322.959193 54.058269 
L 323.191587 54.113727 
L 323.191587 54.268348 
L 323.423981 54.187807 
L 323.423981 53.987751 
L 323.656375 54.340138 
L 324.121164 54.206632 
L 324.121164 54.376618 
L 324.353558 54.602673 
L 324.353558 54.474509 
L 324.585952 53.888283 
L 324.585952 54.057608 
L 324.818346 53.903292 
L 324.818346 54.048195 
L 325.283134 54.221285 
L 325.283134 54.203834 
L 325.515528 54.061118 
L 325.515528 54.450138 
L 325.747922 54.630199 
L 325.747922 54.049213 
L 325.980316 54.216095 
L 325.980316 54.133061 
L 326.21271 54.178598 
L 326.21271 54.332303 
L 326.445104 54.430499 
L 326.445104 54.206174 
L 326.677499 53.758236 
L 326.677499 54.076687 
L 326.909893 54.430499 
L 326.909893 54.278575 
L 327.374681 54.123852 
L 327.374681 54.319278 
L 327.607075 54.09999 
L 327.607075 54.185059 
L 327.839469 54.070938 
L 327.839469 53.744194 
L 328.071863 54.64475 
L 328.304257 54.008764 
L 328.536651 54.571383 
L 329.001439 54.038681 
L 329.001439 54.498677 
L 329.233834 53.923745 
L 329.233834 54.320753 
L 329.466228 54.193302 
L 329.466228 54.317039 
L 329.698622 54.210855 
L 329.698622 54.347261 
L 329.931016 54.108436 
L 329.931016 54.440827 
L 330.395804 53.951678 
L 330.395804 54.180887 
L 330.628198 54.050942 
L 330.628198 54.318158 
L 330.860592 53.766275 
L 330.860592 54.22449 
L 331.092986 55.031328 
L 331.32538 59.099605 
L 331.557774 58.984822 
L 331.557774 59.016672 
L 332.022563 65.944801 
L 332.022563 65.857238 
L 332.487351 79.363347 
L 332.487351 79.355053 
L 332.719745 78.689201 
L 332.719745 79.030141 
L 332.952139 83.741628 
L 333.416927 102.257884 
L 333.649321 100.780564 
L 333.649321 101.168414 
L 334.346504 116.737001 
L 334.811292 126.836207 
L 335.043686 132.942489 
L 335.043686 132.895223 
L 335.27608 132.042136 
L 335.740868 141.038899 
L 335.973262 139.321177 
L 335.973262 139.9767 
L 336.205656 143.115114 
L 336.43805 143.957923 
L 337.135233 147.808285 
L 337.135233 147.80274 
L 337.600021 150.423054 
L 337.600021 150.113863 
L 337.832415 150.316055 
L 337.832415 150.68854 
L 338.529597 152.034999 
L 338.529597 151.934462 
L 338.761991 151.82838 
L 338.994385 152.50975 
L 338.994385 152.299213 
L 339.226779 151.963514 
L 339.226779 152.206563 
L 339.459174 151.733287 
L 339.459174 151.816169 
L 339.691568 151.992973 
L 339.691568 152.323533 
L 339.923962 151.716192 
L 340.156356 152.200712 
L 340.156356 152.177918 
L 340.38875 151.962649 
L 340.621144 152.29845 
L 340.621144 151.988394 
L 340.853538 152.241008 
L 340.853538 151.934004 
L 341.085932 152.33549 
L 341.085932 152.568312 
L 341.55072 151.682968 
L 341.55072 151.895947 
L 341.783114 151.008568 
L 342.015509 151.240118 
L 342.015509 151.53201 
L 342.247903 150.951431 
L 342.247903 150.440454 
L 342.480297 149.121826 
L 342.712691 150.127397 
L 342.945085 147.870154 
L 342.945085 147.967384 
L 343.177479 148.325826 
L 343.177479 148.189012 
L 343.409873 147.257878 
L 343.409873 147.534252 
L 343.642267 144.670329 
L 343.874661 145.801876 
L 343.874661 145.486325 
L 344.107055 143.574602 
L 344.107055 144.165102 
L 344.339449 143.561678 
L 344.339449 143.815615 
L 344.571844 142.181436 
L 344.571844 142.576815 
L 344.804238 139.447051 
L 344.804238 139.630927 
L 345.036632 139.566209 
L 345.036632 139.85398 
L 345.269026 139.15872 
L 345.269026 139.530085 
L 345.50142 139.764993 
L 345.50142 139.566871 
L 345.733814 141.124376 
L 345.733814 140.973062 
L 345.966208 144.691139 
L 345.966208 144.406573 
L 346.198602 145.007962 
L 346.198602 144.985372 
L 346.430996 147.872291 
L 346.66339 153.551343 
L 346.66339 153.425977 
L 346.895784 152.497132 
L 347.128179 158.121896 
L 347.360573 158.554926 
L 347.360573 158.893831 
L 347.592967 162.491172 
L 347.825361 174.07706 
L 348.057755 171.087365 
L 348.057755 171.331381 
L 348.290149 181.606018 
L 348.290149 181.370245 
L 348.522543 182.119946 
L 348.754937 190.621301 
L 348.987331 194.483823 
L 349.219725 200.283356 
L 349.452119 215.348089 
L 349.452119 214.807755 
L 349.684514 210.261878 
L 349.916908 223.010909 
L 350.149302 219.536999 
L 350.149302 219.565237 
L 350.381696 231.250034 
L 350.61409 226.954125 
L 350.61409 227.654676 
L 350.846484 238.906901 
L 350.846484 238.887821 
L 351.078878 234.591302 
L 351.311272 238.167681 
L 351.543666 242.574252 
L 351.543666 242.572624 
L 351.77606 244.12906 
L 352.008454 249.91104 
L 352.240849 250.112469 
L 352.240849 249.36399 
L 352.473243 256.421147 
L 352.473243 256.329921 
L 352.705637 254.15088 
L 352.705637 254.654785 
L 353.170425 261.063898 
L 353.402819 261.143625 
L 353.402819 261.092949 
L 353.635213 266.228106 
L 353.635213 266.099433 
L 353.867607 264.980148 
L 354.564789 270.860782 
L 354.564789 270.564718 
L 354.797184 274.005912 
L 354.797184 273.905782 
L 355.029578 273.491475 
L 355.029578 273.521189 
L 355.261972 277.341074 
L 355.494366 276.229828 
L 355.72676 277.077725 
L 355.72676 277.036971 
L 355.959154 279.536092 
L 356.191548 279.137608 
L 356.191548 279.233719 
L 356.423942 281.505512 
L 356.423942 281.352112 
L 356.656336 281.092935 
L 356.656336 281.211483 
L 356.88873 281.429194 
L 356.88873 281.595263 
L 357.121124 282.470074 
L 357.353519 282.094334 
L 357.353519 282.388617 
L 357.585913 282.764307 
L 357.818307 283.490502 
L 357.818307 283.222624 
L 358.050701 283.019363 
L 358.050701 283.379789 
L 358.283095 283.967644 
L 358.283095 283.664406 
L 358.515489 283.329114 
L 358.747883 283.852505 
L 358.747883 283.725562 
L 358.980277 283.963472 
L 358.980277 283.732685 
L 359.212671 283.533647 
L 359.212671 283.731362 
L 359.677459 283.276556 
L 359.677459 283.546316 
L 359.909854 283.539498 
L 359.909854 283.722204 
L 360.142248 282.941722 
L 360.142248 283.792315 
L 360.374642 283.820604 
L 360.374642 283.742047 
L 360.607036 283.140099 
L 360.607036 283.34397 
L 360.83943 283.594956 
L 360.83943 283.473762 
L 361.071824 283.597093 
L 361.071824 283.770641 
L 361.304218 283.038188 
L 361.304218 282.43797 
L 361.536612 282.988988 
L 361.536612 282.778044 
L 361.769006 281.600503 
L 361.769006 281.606456 
L 362.0014 282.403525 
L 362.0014 282.383733 
L 362.233794 281.900129 
L 362.233794 281.108657 
L 362.466189 280.182407 
L 362.466189 280.319322 
L 362.698583 280.456237 
L 362.698583 280.343336 
L 362.930977 277.732842 
L 362.930977 277.842333 
L 363.163371 278.283403 
L 363.163371 278.9982 
L 363.628159 275.481247 
L 363.628159 275.492848 
L 363.860553 274.96213 
L 364.092947 271.582499 
L 364.325341 272.591071 
L 364.325341 272.350211 
L 364.557735 271.207929 
L 364.790129 268.832088 
L 364.790129 268.944581 
L 365.022524 267.855772 
L 365.022524 268.141661 
L 365.254918 263.613541 
L 365.254918 264.292723 
L 365.487312 264.125484 
L 365.487312 264.472478 
L 365.719706 258.452233 
L 365.9521 260.174076 
L 365.9521 260.104169 
L 366.184494 259.005541 
L 366.416888 253.667225 
L 366.649282 255.149684 
L 366.649282 254.869239 
L 366.881676 252.928769 
L 366.881676 253.705639 
L 367.11407 249.250988 
L 367.346465 248.81465 
L 367.346465 248.827268 
L 367.578859 242.57125 
L 367.811253 244.799695 
L 367.811253 244.686591 
L 368.043647 242.39409 
L 368.043647 242.938901 
L 368.276041 237.566445 
L 368.276041 237.623837 
L 368.508435 237.984823 
L 368.508435 237.798199 
L 368.740829 230.125661 
L 368.740829 230.230014 
L 368.973223 232.379698 
L 369.205617 229.960101 
L 369.438011 225.173771 
L 369.670405 224.487974 
L 369.670405 224.729954 
L 369.9028 217.519397 
L 370.135194 219.218701 
L 370.135194 218.923145 
L 370.367588 209.731058 
L 370.367588 209.740573 
L 370.599982 212.681068 
L 370.599982 212.630799 
L 370.832376 209.983774 
L 371.06477 205.496204 
L 371.297164 204.160226 
L 371.529558 198.815703 
L 371.529558 198.917868 
L 371.761952 198.66561 
L 371.761952 198.49135 
L 371.994346 192.35851 
L 371.994346 193.0642 
L 372.22674 193.540579 
L 372.22674 193.327244 
L 372.459135 187.531171 
L 372.459135 187.907827 
L 372.691529 188.118211 
L 372.691529 188.600086 
L 372.923923 187.809834 
L 373.156317 187.798285 
L 373.156317 188.042555 
L 373.388711 190.856158 
L 373.388711 190.552207 
L 373.621105 190.907087 
L 373.853499 193.357364 
L 373.853499 193.127544 
L 374.085893 193.483137 
L 374.085893 193.40982 
L 374.318287 194.627251 
L 374.550681 195.191141 
L 374.783075 196.323197 
L 375.01547 196.43976 
L 375.01547 195.938858 
L 375.247864 197.195821 
L 375.247864 197.072134 
L 375.480258 197.088059 
L 375.480258 197.564438 
L 375.712652 197.746025 
L 375.712652 197.484253 
L 375.945046 197.728726 
L 375.945046 197.576904 
L 376.17744 197.48929 
L 376.17744 197.163207 
L 376.409834 197.594152 
L 376.409834 197.347236 
L 376.642228 198.178801 
L 376.642228 197.668333 
L 376.874622 197.540017 
L 376.874622 197.591608 
L 377.107016 197.631192 
L 377.107016 198.021585 
L 377.33941 197.88116 
L 377.33941 198.0861 
L 377.571805 197.829009 
L 377.804199 197.279415 
L 377.804199 197.359498 
L 378.036593 198.422816 
L 378.036593 197.731932 
L 378.268987 197.269137 
L 378.268987 197.320779 
L 378.501381 197.415669 
L 378.501381 196.975413 
L 378.733775 196.291041 
L 378.733775 196.504733 
L 378.966169 196.100602 
L 378.966169 195.85679 
L 379.198563 192.925708 
L 379.198563 192.979232 
L 379.430957 194.209484 
L 379.430957 194.181043 
L 379.663351 190.754654 
L 379.895745 192.141867 
L 380.12814 187.542975 
L 380.360534 188.350626 
L 380.592928 184.212646 
L 380.592928 184.587623 
L 380.825322 184.727387 
L 381.057716 179.867639 
L 381.29011 180.299448 
L 381.29011 179.931288 
L 381.522504 175.194564 
L 381.754898 175.689311 
L 381.754898 175.088991 
L 381.987292 169.694861 
L 382.219686 168.914633 
L 382.684475 161.997342 
L 382.916869 158.407784 
L 383.149263 147.492785 
L 383.149263 147.944132 
L 383.381657 150.661371 
L 383.381657 150.617767 
L 383.614051 140.464171 
L 383.846445 141.292479 
L 383.846445 141.26185 
L 384.078839 133.649451 
L 384.078839 133.76978 
L 384.311233 131.199785 
L 384.311233 131.50689 
L 384.543627 125.875105 
L 384.543627 126.160332 
L 384.776021 113.033831 
L 385.008415 114.792969 
L 385.24081 104.96454 
L 385.473204 103.117025 
L 385.473204 103.5295 
L 386.40278 77.746873 
L 387.332356 57.465476 
L 387.56475 53.836946 
L 387.797145 54.374634 
L 387.797145 53.912552 
L 388.029539 54.593413 
L 388.261933 53.911026 
L 388.261933 54.155957 
L 388.494327 54.149139 
L 388.494327 54.223473 
L 388.726721 53.917385 
L 388.726721 54.085438 
L 388.959115 54.187756 
L 388.959115 54.310578 
L 389.191509 54.304167 
L 389.191509 54.179005 
L 389.656297 54.367053 
L 389.656297 54.311442 
L 389.888691 54.149698 
L 390.121085 54.295874 
L 390.121085 54.862054 
L 390.35348 53.946692 
L 390.35348 54.232326 
L 390.585874 54.592854 
L 390.585874 54.268246 
L 390.818268 54.106655 
L 390.818268 54.646531 
L 391.050662 54.212229 
L 391.050662 54.504477 
L 391.283056 54.209278 
L 391.283056 54.231003 
L 391.51545 54.34894 
L 391.51545 54.085489 
L 391.980238 54.090119 
L 391.980238 54.331947 
L 392.212632 53.793394 
L 392.212632 54.340036 
L 392.445026 54.079842 
L 392.445026 54.388727 
L 392.909815 54.291803 
L 393.142209 53.810133 
L 393.142209 54.47746 
L 393.839391 54.082691 
L 393.839391 54.271248 
L 394.071785 54.360337 
L 394.071785 54.119782 
L 394.304179 54.638085 
L 394.304179 54.167659 
L 394.536573 54.181396 
L 394.536573 53.787695 
L 394.768967 54.266567 
L 394.768967 53.889504 
L 395.001361 53.85572 
L 395.46615 54.260106 
L 395.46615 53.998079 
L 395.930938 54.110267 
L 395.930938 54.299232 
L 396.163332 54.226475 
L 396.395726 54.401702 
L 396.395726 53.786118 
L 397.092908 54.33907 
L 397.092908 54.071345 
L 397.325302 54.547571 
L 397.325302 54.344921 
L 397.557696 53.981747 
L 397.79009 54.472576 
L 397.79009 54.4537 
L 398.022485 54.23548 
L 398.022485 54.519079 
L 398.254879 54.179513 
L 398.254879 54.415642 
L 398.487273 54.009985 
L 398.487273 54.009985 
" clip-path="url(#p61e3df927c)" style="fill: none; stroke: #ff7f0e; stroke-width: 1.5; stroke-linecap: square"/>
   </g>
   <g id="patch_3">
    <path d="M 57.6 307.584 
L 57.6 41.472 
" style="fill: none; stroke: #000000; stroke-width: 0.8; stroke-linejoin: miter; stroke-linecap: square"/>
   </g>
   <g id="patch_4">
    <path d="M 414.72 307.584 
L 414.72 41.472 
" style="fill: none; stroke: #000000; stroke-width: 0.8; stroke-linejoin: miter; stroke-linecap: square"/>
   </g>
   <g id="patch_5">
    <path d="M 57.6 307.584 
L 414.72 307.584 
" style="fill: none; stroke: #000000; stroke-width: 0.8; stroke-linejoin: miter; stroke-linecap: square"/>
   </g>
   <g id="patch_6">
    <path d="M 57.6 41.472 
L 414.72 41.472 
" style="fill: none; stroke: #000000; stroke-width: 0.8; stroke-linejoin: miter; stroke-linecap: square"/>
   </g>
   <g id="text_14">
    <!-- Actual speed vs Expected speed -->
    <g transform="translate(138.808125 35.472) scale(0.12 -0.12)">
     <defs>
      <path id="DejaVuSans-41" d="M 2188 4044 
L 1331 1722 
L 3047 1722 
L 2188 4044 
z
M 1831 4666 
L 2547 4666 
L 4325 0 
L 3669 0 
L 3244 1197 
L 1141 1197 
L 716 0 
L 50 0 
L 1831 4666 
z
" transform="scale(0.015625)"/>
      <path id="DejaVuSans-75" d="M 544 1381 
L 544 3500 
L 1119 3500 
L 1119 1403 
Q 1119 906 1312 657 
Q 1506 409 1894 409 
Q 2359 409 2629 706 
Q 2900 1003 2900 1516 
L 2900 3500 
L 3475 3500 
L 3475 0 
L 2900 0 
L 2900 538 
Q 2691 219 2414 64 
Q 2138 -91 1772 -91 
Q 1169 -91 856 284 
Q 544 659 544 1381 
z
M 1991 3584 
L 1991 3584 
z
" transform="scale(0.015625)"/>
      <path id="DejaVuSans-61" d="M 2194 1759 
Q 1497 1759 1228 1600 
Q 959 1441 959 1056 
Q 959 750 1161 570 
Q 1363 391 1709 391 
Q 2188 391 2477 730 
Q 2766 1069 2766 1631 
L 2766 1759 
L 2194 1759 
z
M 3341 1997 
L 3341 0 
L 2766 0 
L 2766 531 
Q 2569 213 2275 61 
Q 1981 -91 1556 -91 
Q 1019 -91 701 211 
Q 384 513 384 1019 
Q 384 1609 779 1909 
Q 1175 2209 1959 2209 
L 2766 2209 
L 2766 2266 
Q 2766 2663 2505 2880 
Q 2244 3097 1772 3097 
Q 1472 3097 1187 3025 
Q 903 2953 641 2809 
L 641 3341 
Q 956 3463 1253 3523 
Q 1550 3584 1831 3584 
Q 2591 3584 2966 3190 
Q 3341 2797 3341 1997 
z
" transform="scale(0.015625)"/>
      <path id="DejaVuSans-20" transform="scale(0.015625)"/>
      <path id="DejaVuSans-70" d="M 1159 525 
L 1159 -1331 
L 581 -1331 
L 581 3500 
L 1159 3500 
L 1159 2969 
Q 1341 3281 1617 3432 
Q 1894 3584 2278 3584 
Q 2916 3584 3314 3078 
Q 3713 2572 3713 1747 
Q 3713 922 3314 415 
Q 2916 -91 2278 -91 
Q 1894 -91 1617 61 
Q 1341 213 1159 525 
z
M 3116 1747 
Q 3116 2381 2855 2742 
Q 2594 3103 2138 3103 
Q 1681 3103 1420 2742 
Q 1159 2381 1159 1747 
Q 1159 1113 1420 752 
Q 1681 391 2138 391 
Q 2594 391 2855 752 
Q 3116 1113 3116 1747 
z
" transform="scale(0.015625)"/>
      <path id="DejaVuSans-64" d="M 2906 2969 
L 2906 4863 
L 3481 4863 
L 3481 0 
L 2906 0 
L 2906 525 
Q 2725 213 2448 61 
Q 2172 -91 1784 -91 
Q 1150 -91 751 415 
Q 353 922 353 1747 
Q 353 2572 751 3078 
Q 1150 3584 1784 3584 
Q 2172 3584 2448 3432 
Q 2725 3281 2906 2969 
z
M 947 1747 
Q 947 1113 1208 752 
Q 1469 391 1925 391 
Q 2381 391 2643 752 
Q 2906 1113 2906 1747 
Q 2906 2381 2643 2742 
Q 2381 3103 1925 3103 
Q 1469 3103 1208 2742 
Q 947 2381 947 1747 
z
" transform="scale(0.015625)"/>
      <path id="DejaVuSans-76" d="M 191 3500 
L 800 3500 
L 1894 563 
L 2988 3500 
L 3597 3500 
L 2284 0 
L 1503 0 
L 191 3500 
z
" transform="scale(0.015625)"/>
      <path id="DejaVuSans-45" d="M 628 4666 
L 3578 4666 
L 3578 4134 
L 1259 4134 
L 1259 2753 
L 3481 2753 
L 3481 2222 
L 1259 2222 
L 1259 531 
L 3634 531 
L 3634 0 
L 628 0 
L 628 4666 
z
" transform="scale(0.015625)"/>
      <path id="DejaVuSans-78" d="M 3513 3500 
L 2247 1797 
L 3578 0 
L 2900 0 
L 1881 1375 
L 863 0 
L 184 0 
L 1544 1831 
L 300 3500 
L 978 3500 
L 1906 2253 
L 2834 3500 
L 3513 3500 
z
" transform="scale(0.015625)"/>
     </defs>
     <use xlink:href="#DejaVuSans-41"/>
     <use xlink:href="#DejaVuSans-63" x="66.658203"/>
     <use xlink:href="#DejaVuSans-74" x="121.638672"/>
     <use xlink:href="#DejaVuSans-75" x="160.847656"/>
     <use xlink:href="#DejaVuSans-61" x="224.226562"/>
     <use xlink:href="#DejaVuSans-6c" x="285.505859"/>
     <use xlink:href="#DejaVuSans-20" x="313.289062"/>
     <use xlink:href="#DejaVuSans-73" x="345.076172"/>
     <use xlink:href="#DejaVuSans-70" x="397.175781"/>
     <use xlink:href="#DejaVuSans-65" x="460.652344"/>
     <use xlink:href="#DejaVuSans-65" x="522.175781"/>
     <use xlink:href="#DejaVuSans-64" x="583.699219"/>
     <use xlink:href="#DejaVuSans-20" x="647.175781"/>
     <use xlink:href="#DejaVuSans-76" x="678.962891"/>
     <use xlink:href="#DejaVuSans-73" x="738.142578"/>
     <use xlink:href="#DejaVuSans-20" x="790.242188"/>
     <use xlink:href="#DejaVuSans-45" x="822.029297"/>
     <use xlink:href="#DejaVuSans-78" x="885.212891"/>
     <use xlink:href="#DejaVuSans-70" x="944.392578"/>
     <use xlink:href="#DejaVuSans-65" x="1007.869141"/>
     <use xlink:href="#DejaVuSans-63" x="1069.392578"/>
     <use xlink:href="#DejaVuSans-74" x="1124.373047"/>
     <use xlink:href="#DejaVuSans-65" x="1163.582031"/>
     <use xlink:href="#DejaVuSans-64" x="1225.105469"/>
     <use xlink:href="#DejaVuSans-20" x="1288.582031"/>
     <use xlink:href="#DejaVuSans-73" x="1320.369141"/>
     <use xlink:href="#DejaVuSans-70" x="1372.46875"/>
     <use xlink:href="#DejaVuSans-65" x="1435.945312"/>
     <use xlink:href="#DejaVuSans-65" x="1497.46875"/>
     <use xlink:href="#DejaVuSans-64" x="1558.992188"/>
    </g>
   </g>
   <g id="legend_1">
    <g id="patch_7">
     <path d="M 64.6 302.584 
L 176.65 302.584 
Q 178.65 302.584 178.65 300.584 
L 178.65 272.22775 
Q 178.65 270.22775 176.65 270.22775 
L 64.6 270.22775 
Q 62.6 270.22775 62.6 272.22775 
L 62.6 300.584 
Q 62.6 302.584 64.6 302.584 
z
" style="fill: #ffffff; opacity: 0.8; stroke: #cccccc; stroke-linejoin: miter"/>
    </g>
    <g id="line2d_25">
     <path d="M 66.6 278.326187 
L 76.6 278.326187 
L 86.6 278.326187 
" style="fill: none; stroke: #1f77b4; stroke-width: 1.5; stroke-linecap: square"/>
    </g>
    <g id="text_15">
     <!-- Actual speed -->
     <g transform="translate(94.6 281.826187) scale(0.1 -0.1)">
      <use xlink:href="#DejaVuSans-41"/>
      <use xlink:href="#DejaVuSans-63" x="66.658203"/>
      <use xlink:href="#DejaVuSans-74" x="121.638672"/>
      <use xlink:href="#DejaVuSans-75" x="160.847656"/>
      <use xlink:href="#DejaVuSans-61" x="224.226562"/>
      <use xlink:href="#DejaVuSans-6c" x="285.505859"/>
      <use xlink:href="#DejaVuSans-20" x="313.289062"/>
      <use xlink:href="#DejaVuSans-73" x="345.076172"/>
      <use xlink:href="#DejaVuSans-70" x="397.175781"/>
      <use xlink:href="#DejaVuSans-65" x="460.652344"/>
      <use xlink:href="#DejaVuSans-65" x="522.175781"/>
      <use xlink:href="#DejaVuSans-64" x="583.699219"/>
     </g>
    </g>
    <g id="line2d_26">
     <path d="M 66.6 293.004312 
L 76.6 293.004312 
L 86.6 293.004312 
" style="fill: none; stroke: #ff7f0e; stroke-width: 1.5; stroke-linecap: square"/>
    </g>
    <g id="text_16">
     <!-- Expected speed -->
     <g transform="translate(94.6 296.504312) scale(0.1 -0.1)">
      <use xlink:href="#DejaVuSans-45"/>
      <use xlink:href="#DejaVuSans-78" x="63.183594"/>
      <use xlink:href="#DejaVuSans-70" x="122.363281"/>
      <use xlink:href="#DejaVuSans-65" x="185.839844"/>
      <use xlink:href="#DejaVuSans-63" x="247.363281"/>
      <use xlink:href="#DejaVuSans-74" x="302.34375"/>
      <use xlink:href="#DejaVuSans-65" x="341.552734"/>
      <use xlink:href="#DejaVuSans-64" x="403.076172"/>
      <use xlink:href="#DejaVuSans-20" x="466.552734"/>
      <use xlink:href="#DejaVuSans-73" x="498.339844"/>
      <use xlink:href="#DejaVuSans-70" x="550.439453"/>
      <use xlink:href="#DejaVuSans-65" x="613.916016"/>
      <use xlink:href="#DejaVuSans-65" x="675.439453"/>
      <use xlink:href="#DejaVuSans-64" x="736.962891"/>
     </g>
    </g>
   </g>
  </g>
 </g>
 <defs>
  <clipPath id="p61e3df927c">
   <rect x="57.6" y="41.472" width="357.12" height="266.112"/>
  </clipPath>
 </defs>
</svg>
