<?xml version="1.0" encoding="utf-8" standalone="no"?>
<!DOCTYPE svg PUBLIC "-//W3C//DTD SVG 1.1//EN"
  "http://www.w3.org/Graphics/SVG/1.1/DTD/svg11.dtd">
<svg xmlns:xlink="http://www.w3.org/1999/xlink" width="460.8pt" height="345.6pt" viewBox="0 0 460.8 345.6" xmlns="http://www.w3.org/2000/svg" version="1.1">
 <metadata>
  <rdf:RDF xmlns:dc="http://purl.org/dc/elements/1.1/" xmlns:cc="http://creativecommons.org/ns#" xmlns:rdf="http://www.w3.org/1999/02/22-rdf-syntax-ns#">
   <cc:Work>
    <dc:type rdf:resource="http://purl.org/dc/dcmitype/StillImage"/>
    <dc:date>2024-01-30T20:59:20.765959</dc:date>
    <dc:format>image/svg+xml</dc:format>
    <dc:creator>
     <cc:Agent>
      <dc:title>Matplotlib v3.7.1, https://matplotlib.org/</dc:title>
     </cc:Agent>
    </dc:creator>
   </cc:Work>
  </rdf:RDF>
 </metadata>
 <defs>
  <style type="text/css">*{stroke-linejoin: round; stroke-linecap: butt}</style>
 </defs>
 <g id="figure_1">
  <g id="patch_1">
   <path d="M 0 345.6 
L 460.8 345.6 
L 460.8 0 
L 0 0 
z
" style="fill: #ffffff"/>
  </g>
  <g id="axes_1">
   <g id="patch_2">
    <path d="M 57.6 307.584 
L 414.72 307.584 
L 414.72 41.472 
L 57.6 41.472 
z
" style="fill: #ffffff"/>
   </g>
   <g id="matplotlib.axis_1">
    <g id="xtick_1">
     <g id="line2d_1">
      <path d="M 73.832727 307.584 
L 73.832727 41.472 
" clip-path="url(#pf018d994dc)" style="fill: none; stroke: #b0b0b0; stroke-width: 0.8; stroke-linecap: square"/>
     </g>
     <g id="line2d_2">
      <defs>
       <path id="mfd20953cdd" d="M 0 0 
L 0 3.5 
" style="stroke: #000000; stroke-width: 0.8"/>
      </defs>
      <g>
       <use xlink:href="#mfd20953cdd" x="73.832727" y="307.584" style="stroke: #000000; stroke-width: 0.8"/>
      </g>
     </g>
     <g id="text_1">
      <!-- 0 -->
      <g transform="translate(70.651477 322.182437) scale(0.1 -0.1)">
       <defs>
        <path id="DejaVuSans-30" d="M 2034 4250 
Q 1547 4250 1301 3770 
Q 1056 3291 1056 2328 
Q 1056 1369 1301 889 
Q 1547 409 2034 409 
Q 2525 409 2770 889 
Q 3016 1369 3016 2328 
Q 3016 3291 2770 3770 
Q 2525 4250 2034 4250 
z
M 2034 4750 
Q 2819 4750 3233 4129 
Q 3647 3509 3647 2328 
Q 3647 1150 3233 529 
Q 2819 -91 2034 -91 
Q 1250 -91 836 529 
Q 422 1150 422 2328 
Q 422 3509 836 4129 
Q 1250 4750 2034 4750 
z
" transform="scale(0.015625)"/>
       </defs>
       <use xlink:href="#DejaVuSans-30"/>
      </g>
     </g>
    </g>
    <g id="xtick_2">
     <g id="line2d_3">
      <path d="M 131.972868 307.584 
L 131.972868 41.472 
" clip-path="url(#pf018d994dc)" style="fill: none; stroke: #b0b0b0; stroke-width: 0.8; stroke-linecap: square"/>
     </g>
     <g id="line2d_4">
      <g>
       <use xlink:href="#mfd20953cdd" x="131.972868" y="307.584" style="stroke: #000000; stroke-width: 0.8"/>
      </g>
     </g>
     <g id="text_2">
      <!-- 5 -->
      <g transform="translate(128.791618 322.182437) scale(0.1 -0.1)">
       <defs>
        <path id="DejaVuSans-35" d="M 691 4666 
L 3169 4666 
L 3169 4134 
L 1269 4134 
L 1269 2991 
Q 1406 3038 1543 3061 
Q 1681 3084 1819 3084 
Q 2600 3084 3056 2656 
Q 3513 2228 3513 1497 
Q 3513 744 3044 326 
Q 2575 -91 1722 -91 
Q 1428 -91 1123 -41 
Q 819 9 494 109 
L 494 744 
Q 775 591 1075 516 
Q 1375 441 1709 441 
Q 2250 441 2565 725 
Q 2881 1009 2881 1497 
Q 2881 1984 2565 2268 
Q 2250 2553 1709 2553 
Q 1456 2553 1204 2497 
Q 953 2441 691 2322 
L 691 4666 
z
" transform="scale(0.015625)"/>
       </defs>
       <use xlink:href="#DejaVuSans-35"/>
      </g>
     </g>
    </g>
    <g id="xtick_3">
     <g id="line2d_5">
      <path d="M 190.113009 307.584 
L 190.113009 41.472 
" clip-path="url(#pf018d994dc)" style="fill: none; stroke: #b0b0b0; stroke-width: 0.8; stroke-linecap: square"/>
     </g>
     <g id="line2d_6">
      <g>
       <use xlink:href="#mfd20953cdd" x="190.113009" y="307.584" style="stroke: #000000; stroke-width: 0.8"/>
      </g>
     </g>
     <g id="text_3">
      <!-- 10 -->
      <g transform="translate(183.750509 322.182437) scale(0.1 -0.1)">
       <defs>
        <path id="DejaVuSans-31" d="M 794 531 
L 1825 531 
L 1825 4091 
L 703 3866 
L 703 4441 
L 1819 4666 
L 2450 4666 
L 2450 531 
L 3481 531 
L 3481 0 
L 794 0 
L 794 531 
z
" transform="scale(0.015625)"/>
       </defs>
       <use xlink:href="#DejaVuSans-31"/>
       <use xlink:href="#DejaVuSans-30" x="63.623047"/>
      </g>
     </g>
    </g>
    <g id="xtick_4">
     <g id="line2d_7">
      <path d="M 248.253149 307.584 
L 248.253149 41.472 
" clip-path="url(#pf018d994dc)" style="fill: none; stroke: #b0b0b0; stroke-width: 0.8; stroke-linecap: square"/>
     </g>
     <g id="line2d_8">
      <g>
       <use xlink:href="#mfd20953cdd" x="248.253149" y="307.584" style="stroke: #000000; stroke-width: 0.8"/>
      </g>
     </g>
     <g id="text_4">
      <!-- 15 -->
      <g transform="translate(241.890649 322.182437) scale(0.1 -0.1)">
       <use xlink:href="#DejaVuSans-31"/>
       <use xlink:href="#DejaVuSans-35" x="63.623047"/>
      </g>
     </g>
    </g>
    <g id="xtick_5">
     <g id="line2d_9">
      <path d="M 306.39329 307.584 
L 306.39329 41.472 
" clip-path="url(#pf018d994dc)" style="fill: none; stroke: #b0b0b0; stroke-width: 0.8; stroke-linecap: square"/>
     </g>
     <g id="line2d_10">
      <g>
       <use xlink:href="#mfd20953cdd" x="306.39329" y="307.584" style="stroke: #000000; stroke-width: 0.8"/>
      </g>
     </g>
     <g id="text_5">
      <!-- 20 -->
      <g transform="translate(300.03079 322.182437) scale(0.1 -0.1)">
       <defs>
        <path id="DejaVuSans-32" d="M 1228 531 
L 3431 531 
L 3431 0 
L 469 0 
L 469 531 
Q 828 903 1448 1529 
Q 2069 2156 2228 2338 
Q 2531 2678 2651 2914 
Q 2772 3150 2772 3378 
Q 2772 3750 2511 3984 
Q 2250 4219 1831 4219 
Q 1534 4219 1204 4116 
Q 875 4013 500 3803 
L 500 4441 
Q 881 4594 1212 4672 
Q 1544 4750 1819 4750 
Q 2544 4750 2975 4387 
Q 3406 4025 3406 3419 
Q 3406 3131 3298 2873 
Q 3191 2616 2906 2266 
Q 2828 2175 2409 1742 
Q 1991 1309 1228 531 
z
" transform="scale(0.015625)"/>
       </defs>
       <use xlink:href="#DejaVuSans-32"/>
       <use xlink:href="#DejaVuSans-30" x="63.623047"/>
      </g>
     </g>
    </g>
    <g id="xtick_6">
     <g id="line2d_11">
      <path d="M 364.533431 307.584 
L 364.533431 41.472 
" clip-path="url(#pf018d994dc)" style="fill: none; stroke: #b0b0b0; stroke-width: 0.8; stroke-linecap: square"/>
     </g>
     <g id="line2d_12">
      <g>
       <use xlink:href="#mfd20953cdd" x="364.533431" y="307.584" style="stroke: #000000; stroke-width: 0.8"/>
      </g>
     </g>
     <g id="text_6">
      <!-- 25 -->
      <g transform="translate(358.170931 322.182437) scale(0.1 -0.1)">
       <use xlink:href="#DejaVuSans-32"/>
       <use xlink:href="#DejaVuSans-35" x="63.623047"/>
      </g>
     </g>
    </g>
    <g id="text_7">
     <!-- Time(s) -->
     <g transform="translate(217.420156 335.860562) scale(0.1 -0.1)">
      <defs>
       <path id="DejaVuSans-54" d="M -19 4666 
L 3928 4666 
L 3928 4134 
L 2272 4134 
L 2272 0 
L 1638 0 
L 1638 4134 
L -19 4134 
L -19 4666 
z
" transform="scale(0.015625)"/>
       <path id="DejaVuSans-69" d="M 603 3500 
L 1178 3500 
L 1178 0 
L 603 0 
L 603 3500 
z
M 603 4863 
L 1178 4863 
L 1178 4134 
L 603 4134 
L 603 4863 
z
" transform="scale(0.015625)"/>
       <path id="DejaVuSans-6d" d="M 3328 2828 
Q 3544 3216 3844 3400 
Q 4144 3584 4550 3584 
Q 5097 3584 5394 3201 
Q 5691 2819 5691 2113 
L 5691 0 
L 5113 0 
L 5113 2094 
Q 5113 2597 4934 2840 
Q 4756 3084 4391 3084 
Q 3944 3084 3684 2787 
Q 3425 2491 3425 1978 
L 3425 0 
L 2847 0 
L 2847 2094 
Q 2847 2600 2669 2842 
Q 2491 3084 2119 3084 
Q 1678 3084 1418 2786 
Q 1159 2488 1159 1978 
L 1159 0 
L 581 0 
L 581 3500 
L 1159 3500 
L 1159 2956 
Q 1356 3278 1631 3431 
Q 1906 3584 2284 3584 
Q 2666 3584 2933 3390 
Q 3200 3197 3328 2828 
z
" transform="scale(0.015625)"/>
       <path id="DejaVuSans-65" d="M 3597 1894 
L 3597 1613 
L 953 1613 
Q 991 1019 1311 708 
Q 1631 397 2203 397 
Q 2534 397 2845 478 
Q 3156 559 3463 722 
L 3463 178 
Q 3153 47 2828 -22 
Q 2503 -91 2169 -91 
Q 1331 -91 842 396 
Q 353 884 353 1716 
Q 353 2575 817 3079 
Q 1281 3584 2069 3584 
Q 2775 3584 3186 3129 
Q 3597 2675 3597 1894 
z
M 3022 2063 
Q 3016 2534 2758 2815 
Q 2500 3097 2075 3097 
Q 1594 3097 1305 2825 
Q 1016 2553 972 2059 
L 3022 2063 
z
" transform="scale(0.015625)"/>
       <path id="DejaVuSans-28" d="M 1984 4856 
Q 1566 4138 1362 3434 
Q 1159 2731 1159 2009 
Q 1159 1288 1364 580 
Q 1569 -128 1984 -844 
L 1484 -844 
Q 1016 -109 783 600 
Q 550 1309 550 2009 
Q 550 2706 781 3412 
Q 1013 4119 1484 4856 
L 1984 4856 
z
" transform="scale(0.015625)"/>
       <path id="DejaVuSans-73" d="M 2834 3397 
L 2834 2853 
Q 2591 2978 2328 3040 
Q 2066 3103 1784 3103 
Q 1356 3103 1142 2972 
Q 928 2841 928 2578 
Q 928 2378 1081 2264 
Q 1234 2150 1697 2047 
L 1894 2003 
Q 2506 1872 2764 1633 
Q 3022 1394 3022 966 
Q 3022 478 2636 193 
Q 2250 -91 1575 -91 
Q 1294 -91 989 -36 
Q 684 19 347 128 
L 347 722 
Q 666 556 975 473 
Q 1284 391 1588 391 
Q 1994 391 2212 530 
Q 2431 669 2431 922 
Q 2431 1156 2273 1281 
Q 2116 1406 1581 1522 
L 1381 1569 
Q 847 1681 609 1914 
Q 372 2147 372 2553 
Q 372 3047 722 3315 
Q 1072 3584 1716 3584 
Q 2034 3584 2315 3537 
Q 2597 3491 2834 3397 
z
" transform="scale(0.015625)"/>
       <path id="DejaVuSans-29" d="M 513 4856 
L 1013 4856 
Q 1481 4119 1714 3412 
Q 1947 2706 1947 2009 
Q 1947 1309 1714 600 
Q 1481 -109 1013 -844 
L 513 -844 
Q 928 -128 1133 580 
Q 1338 1288 1338 2009 
Q 1338 2731 1133 3434 
Q 928 4138 513 4856 
z
" transform="scale(0.015625)"/>
      </defs>
      <use xlink:href="#DejaVuSans-54"/>
      <use xlink:href="#DejaVuSans-69" x="57.958984"/>
      <use xlink:href="#DejaVuSans-6d" x="85.742188"/>
      <use xlink:href="#DejaVuSans-65" x="183.154297"/>
      <use xlink:href="#DejaVuSans-28" x="244.677734"/>
      <use xlink:href="#DejaVuSans-73" x="283.691406"/>
      <use xlink:href="#DejaVuSans-29" x="335.791016"/>
     </g>
    </g>
   </g>
   <g id="matplotlib.axis_2">
    <g id="ytick_1">
     <g id="line2d_13">
      <path d="M 57.6 257.821774 
L 414.72 257.821774 
" clip-path="url(#pf018d994dc)" style="fill: none; stroke: #b0b0b0; stroke-width: 0.8; stroke-linecap: square"/>
     </g>
     <g id="line2d_14">
      <defs>
       <path id="md3da49e70d" d="M 0 0 
L -3.5 0 
" style="stroke: #000000; stroke-width: 0.8"/>
      </defs>
      <g>
       <use xlink:href="#md3da49e70d" x="57.6" y="257.821774" style="stroke: #000000; stroke-width: 0.8"/>
      </g>
     </g>
     <g id="text_8">
      <!-- 4 -->
      <g transform="translate(44.2375 261.620992) scale(0.1 -0.1)">
       <defs>
        <path id="DejaVuSans-34" d="M 2419 4116 
L 825 1625 
L 2419 1625 
L 2419 4116 
z
M 2253 4666 
L 3047 4666 
L 3047 1625 
L 3713 1625 
L 3713 1100 
L 3047 1100 
L 3047 0 
L 2419 0 
L 2419 1100 
L 313 1100 
L 313 1709 
L 2253 4666 
z
" transform="scale(0.015625)"/>
       </defs>
       <use xlink:href="#DejaVuSans-34"/>
      </g>
     </g>
    </g>
    <g id="ytick_2">
     <g id="line2d_15">
      <path d="M 57.6 206.931852 
L 414.72 206.931852 
" clip-path="url(#pf018d994dc)" style="fill: none; stroke: #b0b0b0; stroke-width: 0.8; stroke-linecap: square"/>
     </g>
     <g id="line2d_16">
      <g>
       <use xlink:href="#md3da49e70d" x="57.6" y="206.931852" style="stroke: #000000; stroke-width: 0.8"/>
      </g>
     </g>
     <g id="text_9">
      <!-- 5 -->
      <g transform="translate(44.2375 210.731071) scale(0.1 -0.1)">
       <use xlink:href="#DejaVuSans-35"/>
      </g>
     </g>
    </g>
    <g id="ytick_3">
     <g id="line2d_17">
      <path d="M 57.6 156.041931 
L 414.72 156.041931 
" clip-path="url(#pf018d994dc)" style="fill: none; stroke: #b0b0b0; stroke-width: 0.8; stroke-linecap: square"/>
     </g>
     <g id="line2d_18">
      <g>
       <use xlink:href="#md3da49e70d" x="57.6" y="156.041931" style="stroke: #000000; stroke-width: 0.8"/>
      </g>
     </g>
     <g id="text_10">
      <!-- 6 -->
      <g transform="translate(44.2375 159.841149) scale(0.1 -0.1)">
       <defs>
        <path id="DejaVuSans-36" d="M 2113 2584 
Q 1688 2584 1439 2293 
Q 1191 2003 1191 1497 
Q 1191 994 1439 701 
Q 1688 409 2113 409 
Q 2538 409 2786 701 
Q 3034 994 3034 1497 
Q 3034 2003 2786 2293 
Q 2538 2584 2113 2584 
z
M 3366 4563 
L 3366 3988 
Q 3128 4100 2886 4159 
Q 2644 4219 2406 4219 
Q 1781 4219 1451 3797 
Q 1122 3375 1075 2522 
Q 1259 2794 1537 2939 
Q 1816 3084 2150 3084 
Q 2853 3084 3261 2657 
Q 3669 2231 3669 1497 
Q 3669 778 3244 343 
Q 2819 -91 2113 -91 
Q 1303 -91 875 529 
Q 447 1150 447 2328 
Q 447 3434 972 4092 
Q 1497 4750 2381 4750 
Q 2619 4750 2861 4703 
Q 3103 4656 3366 4563 
z
" transform="scale(0.015625)"/>
       </defs>
       <use xlink:href="#DejaVuSans-36"/>
      </g>
     </g>
    </g>
    <g id="ytick_4">
     <g id="line2d_19">
      <path d="M 57.6 105.152009 
L 414.72 105.152009 
" clip-path="url(#pf018d994dc)" style="fill: none; stroke: #b0b0b0; stroke-width: 0.8; stroke-linecap: square"/>
     </g>
     <g id="line2d_20">
      <g>
       <use xlink:href="#md3da49e70d" x="57.6" y="105.152009" style="stroke: #000000; stroke-width: 0.8"/>
      </g>
     </g>
     <g id="text_11">
      <!-- 7 -->
      <g transform="translate(44.2375 108.951228) scale(0.1 -0.1)">
       <defs>
        <path id="DejaVuSans-37" d="M 525 4666 
L 3525 4666 
L 3525 4397 
L 1831 0 
L 1172 0 
L 2766 4134 
L 525 4134 
L 525 4666 
z
" transform="scale(0.015625)"/>
       </defs>
       <use xlink:href="#DejaVuSans-37"/>
      </g>
     </g>
    </g>
    <g id="ytick_5">
     <g id="line2d_21">
      <path d="M 57.6 54.262088 
L 414.72 54.262088 
" clip-path="url(#pf018d994dc)" style="fill: none; stroke: #b0b0b0; stroke-width: 0.8; stroke-linecap: square"/>
     </g>
     <g id="line2d_22">
      <g>
       <use xlink:href="#md3da49e70d" x="57.6" y="54.262088" style="stroke: #000000; stroke-width: 0.8"/>
      </g>
     </g>
     <g id="text_12">
      <!-- 8 -->
      <g transform="translate(44.2375 58.061306) scale(0.1 -0.1)">
       <defs>
        <path id="DejaVuSans-38" d="M 2034 2216 
Q 1584 2216 1326 1975 
Q 1069 1734 1069 1313 
Q 1069 891 1326 650 
Q 1584 409 2034 409 
Q 2484 409 2743 651 
Q 3003 894 3003 1313 
Q 3003 1734 2745 1975 
Q 2488 2216 2034 2216 
z
M 1403 2484 
Q 997 2584 770 2862 
Q 544 3141 544 3541 
Q 544 4100 942 4425 
Q 1341 4750 2034 4750 
Q 2731 4750 3128 4425 
Q 3525 4100 3525 3541 
Q 3525 3141 3298 2862 
Q 3072 2584 2669 2484 
Q 3125 2378 3379 2068 
Q 3634 1759 3634 1313 
Q 3634 634 3220 271 
Q 2806 -91 2034 -91 
Q 1263 -91 848 271 
Q 434 634 434 1313 
Q 434 1759 690 2068 
Q 947 2378 1403 2484 
z
M 1172 3481 
Q 1172 3119 1398 2916 
Q 1625 2713 2034 2713 
Q 2441 2713 2670 2916 
Q 2900 3119 2900 3481 
Q 2900 3844 2670 4047 
Q 2441 4250 2034 4250 
Q 1625 4250 1398 4047 
Q 1172 3844 1172 3481 
z
" transform="scale(0.015625)"/>
       </defs>
       <use xlink:href="#DejaVuSans-38"/>
      </g>
     </g>
    </g>
    <g id="text_13">
     <!-- Velocity(m/s) -->
     <g transform="translate(38.157812 207.204563) rotate(-90) scale(0.1 -0.1)">
      <defs>
       <path id="DejaVuSans-56" d="M 1831 0 
L 50 4666 
L 709 4666 
L 2188 738 
L 3669 4666 
L 4325 4666 
L 2547 0 
L 1831 0 
z
" transform="scale(0.015625)"/>
       <path id="DejaVuSans-6c" d="M 603 4863 
L 1178 4863 
L 1178 0 
L 603 0 
L 603 4863 
z
" transform="scale(0.015625)"/>
       <path id="DejaVuSans-6f" d="M 1959 3097 
Q 1497 3097 1228 2736 
Q 959 2375 959 1747 
Q 959 1119 1226 758 
Q 1494 397 1959 397 
Q 2419 397 2687 759 
Q 2956 1122 2956 1747 
Q 2956 2369 2687 2733 
Q 2419 3097 1959 3097 
z
M 1959 3584 
Q 2709 3584 3137 3096 
Q 3566 2609 3566 1747 
Q 3566 888 3137 398 
Q 2709 -91 1959 -91 
Q 1206 -91 779 398 
Q 353 888 353 1747 
Q 353 2609 779 3096 
Q 1206 3584 1959 3584 
z
" transform="scale(0.015625)"/>
       <path id="DejaVuSans-63" d="M 3122 3366 
L 3122 2828 
Q 2878 2963 2633 3030 
Q 2388 3097 2138 3097 
Q 1578 3097 1268 2742 
Q 959 2388 959 1747 
Q 959 1106 1268 751 
Q 1578 397 2138 397 
Q 2388 397 2633 464 
Q 2878 531 3122 666 
L 3122 134 
Q 2881 22 2623 -34 
Q 2366 -91 2075 -91 
Q 1284 -91 818 406 
Q 353 903 353 1747 
Q 353 2603 823 3093 
Q 1294 3584 2113 3584 
Q 2378 3584 2631 3529 
Q 2884 3475 3122 3366 
z
" transform="scale(0.015625)"/>
       <path id="DejaVuSans-74" d="M 1172 4494 
L 1172 3500 
L 2356 3500 
L 2356 3053 
L 1172 3053 
L 1172 1153 
Q 1172 725 1289 603 
Q 1406 481 1766 481 
L 2356 481 
L 2356 0 
L 1766 0 
Q 1100 0 847 248 
Q 594 497 594 1153 
L 594 3053 
L 172 3053 
L 172 3500 
L 594 3500 
L 594 4494 
L 1172 4494 
z
" transform="scale(0.015625)"/>
       <path id="DejaVuSans-79" d="M 2059 -325 
Q 1816 -950 1584 -1140 
Q 1353 -1331 966 -1331 
L 506 -1331 
L 506 -850 
L 844 -850 
Q 1081 -850 1212 -737 
Q 1344 -625 1503 -206 
L 1606 56 
L 191 3500 
L 800 3500 
L 1894 763 
L 2988 3500 
L 3597 3500 
L 2059 -325 
z
" transform="scale(0.015625)"/>
       <path id="DejaVuSans-2f" d="M 1625 4666 
L 2156 4666 
L 531 -594 
L 0 -594 
L 1625 4666 
z
" transform="scale(0.015625)"/>
      </defs>
      <use xlink:href="#DejaVuSans-56"/>
      <use xlink:href="#DejaVuSans-65" x="60.658203"/>
      <use xlink:href="#DejaVuSans-6c" x="122.181641"/>
      <use xlink:href="#DejaVuSans-6f" x="149.964844"/>
      <use xlink:href="#DejaVuSans-63" x="211.146484"/>
      <use xlink:href="#DejaVuSans-69" x="266.126953"/>
      <use xlink:href="#DejaVuSans-74" x="293.910156"/>
      <use xlink:href="#DejaVuSans-79" x="333.119141"/>
      <use xlink:href="#DejaVuSans-28" x="392.298828"/>
      <use xlink:href="#DejaVuSans-6d" x="431.3125"/>
      <use xlink:href="#DejaVuSans-2f" x="528.724609"/>
      <use xlink:href="#DejaVuSans-73" x="562.416016"/>
      <use xlink:href="#DejaVuSans-29" x="614.515625"/>
     </g>
    </g>
   </g>
   <g id="line2d_23">
    <path d="M 73.832727 54.671752 
L 74.99553 54.526512 
L 74.99553 54.526512 
L 76.390893 54.503051 
L 76.390893 54.503051 
L 76.856015 54.542135 
L 76.856015 54.542135 
L 77.088575 54.508344 
L 77.088575 54.508344 
L 77.321136 54.606256 
L 77.321136 54.606256 
L 78.94906 54.496639 
L 78.94906 54.496639 
L 81.274665 54.370025 
L 81.274665 54.370025 
L 81.739786 54.334809 
L 81.739786 54.334809 
L 83.13515 54.261833 
L 83.13515 54.261833 
L 83.36771 55.859471 
L 83.36771 55.859471 
L 84.530513 55.226299 
L 84.530513 55.226299 
L 85.925877 54.751292 
L 85.925877 54.751292 
L 86.623558 54.591142 
L 86.623558 54.591142 
L 87.5538 54.637299 
L 87.5538 54.637299 
L 87.786361 55.46309 
L 87.786361 55.46309 
L 88.949164 65.356091 
L 88.949164 65.356091 
L 89.414285 70.357908 
L 89.414285 70.357908 
L 89.879406 74.931945 
L 89.879406 74.931945 
L 90.577088 82.091038 
L 90.577088 82.091038 
L 92.902693 106.404715 
L 92.902693 106.404715 
L 94.530617 120.326875 
L 94.530617 120.326875 
L 95.69342 127.050146 
L 95.69342 127.050146 
L 97.088784 131.479248 
L 97.088784 131.479248 
L 97.553905 132.021226 
L 97.553905 132.021226 
L 98.019026 132.439745 
L 98.019026 132.439745 
L 98.251586 132.504375 
L 98.251586 132.504375 
L 98.484147 132.739894 
L 98.484147 132.739894 
L 98.949268 132.781674 
L 98.949268 132.781674 
L 100.577192 132.684271 
L 100.577192 132.684271 
L 101.507434 132.012066 
L 101.507434 132.012066 
L 101.972555 131.409682 
L 101.972555 131.409682 
L 102.670237 129.75464 
L 102.670237 129.75464 
L 103.600479 125.794335 
L 103.600479 125.794335 
L 104.0656 123.322815 
L 104.0656 123.322815 
L 105.460964 111.638337 
L 105.460964 111.638337 
L 107.088888 90.520597 
L 107.088888 90.520597 
L 107.786569 81.358528 
L 107.786569 81.358528 
L 108.484251 74.494648 
L 108.484251 74.494648 
L 109.181933 69.368914 
L 109.181933 69.368914 
L 109.879614 65.533289 
L 109.879614 65.533289 
L 110.577296 62.663301 
L 110.577296 62.663301 
L 111.507538 59.965576 
L 111.507538 59.965576 
L 112.20522 58.531803 
L 112.20522 58.531803 
L 112.902902 57.44398 
L 112.902902 57.44398 
L 113.600583 56.652235 
L 113.600583 56.652235 
L 114.995947 55.576371 
L 114.995947 55.576371 
L 116.15875 55.049609 
L 116.15875 55.049609 
L 117.786674 54.679029 
L 117.786674 54.679029 
L 118.484355 54.620811 
L 118.484355 54.620811 
L 118.949476 54.676688 
L 118.949476 54.676688 
L 120.112279 54.528293 
L 120.112279 54.528293 
L 121.972764 54.46407 
L 121.972764 54.46407 
L 122.205324 54.438676 
L 122.205324 54.438676 
L 122.437885 54.563763 
L 122.437885 54.563763 
L 122.670445 54.515265 
L 122.670445 54.515265 
L 123.135567 54.58417 
L 123.135567 54.58417 
L 124.53093 54.416233 
L 124.53093 54.416233 
L 127.321657 54.373944 
L 127.321657 54.373944 
L 127.786778 54.389312 
L 127.786778 54.389312 
L 130.810065 54.24677 
L 130.810065 54.24677 
L 131.042626 54.771699 
L 131.042626 54.771699 
L 131.507747 54.722285 
L 131.507747 54.722285 
L 131.740307 56.303333 
L 131.740307 56.303333 
L 132.205428 62.986198 
L 132.205428 62.986198 
L 132.67055 71.857685 
L 132.67055 71.857685 
L 133.135671 82.308999 
L 133.135671 82.308999 
L 135.693837 133.940998 
L 135.693837 133.940998 
L 136.624079 147.939848 
L 136.624079 147.939848 
L 137.0892 153.461964 
L 137.0892 153.461964 
L 137.554321 159.541122 
L 137.554321 159.541122 
L 138.484564 169.275753 
L 138.484564 169.275753 
L 139.182245 174.346628 
L 139.182245 174.346628 
L 140.112488 180.898909 
L 140.112488 180.898909 
L 143.135775 194.94865 
L 143.135775 194.94865 
L 143.600896 196.461963 
L 143.600896 196.461963 
L 144.531138 199.092972 
L 144.531138 199.092972 
L 145.461381 200.740533 
L 145.461381 200.740533 
L 146.624183 201.834158 
L 146.624183 201.834158 
L 147.786986 202.572876 
L 147.786986 202.572876 
L 148.484668 202.662849 
L 148.484668 202.662849 
L 149.18235 202.642595 
L 149.18235 202.642595 
L 150.810274 202.013799 
L 150.810274 202.013799 
L 151.042834 201.882402 
L 151.042834 201.882402 
L 151.973076 200.753001 
L 151.973076 200.753001 
L 152.903319 198.354509 
L 152.903319 198.354509 
L 154.066121 192.635296 
L 154.066121 192.635296 
L 154.531243 189.361751 
L 154.531243 189.361751 
L 154.996364 185.44684 
L 154.996364 185.44684 
L 155.694045 178.122253 
L 155.694045 178.122253 
L 156.856848 164.052971 
L 156.856848 164.052971 
L 157.321969 161.418553 
L 157.321969 161.418553 
L 157.55453 160.623652 
L 157.55453 160.623652 
L 158.019651 160.094702 
L 158.019651 160.094702 
L 158.252212 160.199535 
L 158.252212 160.199535 
L 158.484772 160.619734 
L 158.484772 160.619734 
L 160.112696 166.499453 
L 160.112696 166.499453 
L 160.577817 167.521679 
L 160.577817 167.521679 
L 161.042938 168.112816 
L 161.042938 168.112816 
L 161.275499 168.12218 
L 161.275499 168.12218 
L 161.508059 168.411795 
L 161.508059 168.411795 
L 161.973181 168.534083 
L 161.973181 168.534083 
L 163.368544 168.37378 
L 163.368544 168.37378 
L 164.298786 167.849919 
L 164.298786 167.849919 
L 165.229028 166.734921 
L 165.229028 166.734921 
L 165.461589 166.378997 
L 165.461589 166.378997 
L 166.856952 161.685776 
L 166.856952 161.685776 
L 167.322073 159.296494 
L 167.322073 159.296494 
L 168.019755 155.171153 
L 168.019755 155.171153 
L 168.717437 149.782979 
L 168.717437 149.782979 
L 169.88024 138.314274 
L 169.88024 138.314274 
L 170.577921 129.605889 
L 170.577921 129.605889 
L 171.740724 114.461099 
L 171.740724 114.461099 
L 172.205845 111.725817 
L 172.205845 111.725817 
L 172.438406 112.591403 
L 172.438406 112.591403 
L 172.670966 112.968854 
L 172.670966 112.968854 
L 172.903527 115.569329 
L 172.903527 115.569329 
L 173.368648 125.245488 
L 173.368648 125.245488 
L 173.601209 129.915198 
L 173.601209 129.915198 
L 174.06633 141.52385 
L 174.06633 141.52385 
L 175.694254 177.826023 
L 175.694254 177.826023 
L 175.926814 182.170547 
L 175.926814 182.170547 
L 176.391935 192.242069 
L 176.391935 192.242069 
L 176.857057 200.69117 
L 176.857057 200.69117 
L 177.322178 208.497023 
L 177.322178 208.497023 
L 178.019859 219.866849 
L 178.019859 219.866849 
L 178.25242 222.254604 
L 178.25242 222.254604 
L 178.950102 232.240479 
L 178.950102 232.240479 
L 179.880344 240.918432 
L 179.880344 240.918432 
L 180.578026 248.590749 
L 180.578026 248.590749 
L 180.810586 250.103656 
L 180.810586 250.103656 
L 181.275707 254.097802 
L 181.275707 254.097802 
L 181.973389 258.189402 
L 181.973389 258.189402 
L 182.205949 260.171005 
L 182.205949 260.171005 
L 183.601313 266.014491 
L 183.601313 266.014491 
L 184.996676 268.94173 
L 184.996676 268.94173 
L 185.461797 269.417449 
L 185.461797 269.417449 
L 186.159479 269.975101 
L 186.159479 269.975101 
L 186.39204 270.024566 
L 186.39204 270.024566 
L 186.6246 270.213775 
L 186.6246 270.213775 
L 187.322282 270.170417 
L 187.322282 270.170417 
L 188.950206 269.911489 
L 188.950206 269.911489 
L 189.415327 269.746809 
L 189.415327 269.746809 
L 190.113009 269.041882 
L 190.113009 269.041882 
L 190.57813 268.493848 
L 190.57813 268.493848 
L 191.508372 266.363647 
L 191.508372 266.363647 
L 191.973493 264.916439 
L 191.973493 264.916439 
L 192.438614 262.873056 
L 192.438614 262.873056 
L 193.136296 259.333306 
L 193.136296 259.333306 
L 193.601417 256.055843 
L 193.601417 256.055843 
L 193.833978 254.397136 
L 193.833978 254.397136 
L 194.99678 242.642939 
L 194.99678 242.642939 
L 195.461902 238.69556 
L 195.461902 238.69556 
L 195.694462 238.289408 
L 195.694462 238.289408 
L 195.927023 237.44494 
L 195.927023 237.44494 
L 196.159583 237.18245 
L 196.159583 237.18245 
L 196.624704 240.898737 
L 196.624704 240.898737 
L 197.322386 253.04092 
L 197.322386 253.04092 
L 197.787507 257.781927 
L 197.787507 257.781927 
L 198.485189 268.179857 
L 198.485189 268.179857 
L 200.578234 285.690621 
L 200.578234 285.690621 
L 202.206158 292.223055 
L 202.206158 292.223055 
L 202.671279 293.067981 
L 202.671279 293.067981 
L 203.1364 293.837538 
L 203.1364 293.837538 
L 203.834082 294.602159 
L 203.834082 294.602159 
L 204.066642 294.797017 
L 204.066642 294.797017 
L 204.299203 294.781801 
L 204.299203 294.781801 
L 205.462006 295.275993 
L 205.462006 295.275993 
L 206.392248 295.035792 
L 206.392248 295.035792 
L 207.32249 294.497122 
L 207.32249 294.497122 
L 207.787611 293.9669 
L 207.787611 293.9669 
L 208.950414 291.693597 
L 208.950414 291.693597 
L 210.810899 283.642455 
L 210.810899 283.642455 
L 211.27602 280.615726 
L 211.27602 280.615726 
L 211.973701 275.314116 
L 211.973701 275.314116 
L 212.206262 273.321368 
L 212.206262 273.321368 
L 213.369065 259.049798 
L 213.369065 259.049798 
L 214.066747 252.162865 
L 214.066747 252.162865 
L 214.531868 250.143553 
L 214.531868 250.143553 
L 214.764428 250.352405 
L 214.764428 250.352405 
L 214.996989 250.150169 
L 214.996989 250.150169 
L 215.229549 250.209201 
L 215.229549 250.209201 
L 217.555155 267.069541 
L 217.555155 267.069541 
L 218.485397 271.99477 
L 218.485397 271.99477 
L 219.415639 275.371825 
L 219.415639 275.371825 
L 219.880761 276.213646 
L 219.880761 276.213646 
L 220.345882 277.021676 
L 220.345882 277.021676 
L 221.043563 277.989093 
L 221.043563 277.989093 
L 221.508685 278.458553 
L 221.508685 278.458553 
L 221.973806 278.809337 
L 221.973806 278.809337 
L 222.438927 278.715801 
L 222.438927 278.715801 
L 222.904048 278.781348 
L 222.904048 278.781348 
L 224.531972 278.663996 
L 224.531972 278.663996 
L 225.462214 278.365373 
L 225.462214 278.365373 
L 225.927335 277.934488 
L 225.927335 277.934488 
L 226.159896 277.765636 
L 226.159896 277.765636 
L 227.78782 275.115747 
L 227.78782 275.115747 
L 228.252941 273.971538 
L 228.252941 273.971538 
L 228.718062 272.433288 
L 228.718062 272.433288 
L 229.415744 269.945636 
L 229.415744 269.945636 
L 229.880865 267.832228 
L 229.880865 267.832228 
L 230.811107 263.454219 
L 230.811107 263.454219 
L 233.136713 248.126175 
L 233.136713 248.126175 
L 234.764637 234.011957 
L 234.764637 234.011957 
L 236.16 219.407415 
L 236.16 219.407415 
L 238.950727 180.362886 
L 238.950727 180.362886 
L 241.974014 130.413308 
L 241.974014 130.413308 
L 243.601938 101.928642 
L 243.601938 101.928642 
L 244.764741 84.229483 
L 244.764741 84.229483 
L 245.462423 76.573858 
L 245.462423 76.573858 
L 246.160104 70.924669 
L 246.160104 70.924669 
L 246.857786 66.712154 
L 246.857786 66.712154 
L 247.555468 63.575707 
L 247.555468 63.575707 
L 248.48571 60.576967 
L 248.48571 60.576967 
L 249.183392 58.997293 
L 249.183392 58.997293 
L 250.113634 57.509577 
L 250.113634 57.509577 
L 251.043876 56.441398 
L 251.043876 56.441398 
L 252.206679 55.626548 
L 252.206679 55.626548 
L 253.602042 54.947371 
L 253.602042 54.947371 
L 255.229966 54.64366 
L 255.229966 54.64366 
L 260.578859 54.330738 
L 260.578859 54.330738 
L 260.81142 54.259899 
L 260.81142 54.259899 
L 261.04398 54.921112 
L 261.04398 54.921112 
L 261.741662 54.720453 
L 261.741662 54.720453 
L 265.462631 54.284886 
L 265.462631 54.284886 
L 267.555676 54.315827 
L 267.555676 54.315827 
L 268.020797 54.380916 
L 268.020797 54.380916 
L 268.485918 54.367124 
L 268.485918 54.367124 
L 268.718479 54.318372 
L 268.718479 54.318372 
L 269.1836 54.391755 
L 269.1836 54.391755 
L 269.881282 54.304784 
L 269.881282 54.304784 
L 270.346403 54.251045 
L 270.346403 54.251045 
L 270.578963 55.508891 
L 270.578963 55.508891 
L 271.974327 54.969865 
L 271.974327 54.969865 
L 274.997614 54.497148 
L 274.997614 54.497148 
L 278.020901 54.400305 
L 278.020901 54.400305 
L 278.253462 54.551142 
L 278.253462 54.551142 
L 280.113946 54.376081 
L 280.113946 54.376081 
L 280.346507 54.474299 
L 280.346507 54.474299 
L 281.50931 54.396183 
L 281.50931 54.396183 
L 281.74187 54.563509 
L 281.74187 54.563509 
L 282.904673 54.416742 
L 282.904673 54.416742 
L 283.137234 55.418968 
L 283.137234 55.418968 
L 283.369794 57.990182 
L 283.369794 57.990182 
L 284.997718 87.091532 
L 284.997718 87.091532 
L 285.92796 98.286195 
L 285.92796 98.286195 
L 286.625642 103.349743 
L 286.625642 103.349743 
L 287.090763 105.360963 
L 287.090763 105.360963 
L 287.555884 106.21342 
L 287.555884 106.21342 
L 288.718687 106.804863 
L 288.718687 106.804863 
L 289.416369 106.460898 
L 289.416369 106.460898 
L 290.114051 105.321371 
L 290.114051 105.321371 
L 290.811732 103.114377 
L 290.811732 103.114377 
L 291.741974 97.915411 
L 291.741974 97.915411 
L 293.137338 84.831562 
L 293.137338 84.831562 
L 293.83502 77.122604 
L 293.83502 77.122604 
L 294.765262 69.680258 
L 294.765262 69.680258 
L 295.462943 65.772726 
L 295.462943 65.772726 
L 296.160625 62.826353 
L 296.160625 62.826353 
L 296.625746 61.685706 
L 296.625746 61.685706 
L 296.858307 61.361639 
L 296.858307 61.361639 
L 297.090867 61.335532 
L 297.090867 61.335532 
L 297.323428 62.505186 
L 297.323428 62.505186 
L 298.25367 71.70929 
L 298.25367 71.70929 
L 300.811836 101.613887 
L 300.811836 101.613887 
L 301.509518 109.906095 
L 301.509518 109.906095 
L 302.43976 121.167475 
L 302.43976 121.167475 
L 303.370003 133.802984 
L 303.370003 133.802984 
L 303.835124 138.8533 
L 303.835124 138.8533 
L 304.300245 144.892407 
L 304.300245 144.892407 
L 305.463048 157.546847 
L 305.463048 157.546847 
L 307.090972 170.513752 
L 307.090972 170.513752 
L 308.486335 177.712742 
L 308.486335 177.712742 
L 309.649138 180.884202 
L 309.649138 180.884202 
L 310.346819 182.037571 
L 310.346819 182.037571 
L 311.509622 182.400773 
L 311.509622 182.400773 
L 313.370107 182.173396 
L 313.370107 182.173396 
L 313.602667 182.113957 
L 313.602667 182.113957 
L 314.76547 180.851938 
L 314.76547 180.851938 
L 315.230591 179.940143 
L 315.230591 179.940143 
L 316.625955 174.506932 
L 316.625955 174.506932 
L 317.323636 170.724233 
L 317.323636 170.724233 
L 318.95156 157.24049 
L 318.95156 157.24049 
L 320.812045 134.314835 
L 320.812045 134.314835 
L 324.067893 81.724732 
L 324.067893 81.724732 
L 324.765574 74.755357 
L 324.765574 74.755357 
L 325.463256 69.564738 
L 325.463256 69.564738 
L 326.160938 65.701175 
L 326.160938 65.701175 
L 326.858619 62.779432 
L 326.858619 62.779432 
L 327.556301 60.613659 
L 327.556301 60.613659 
L 328.253983 59.016224 
L 328.253983 59.016224 
L 328.951664 57.777513 
L 328.951664 57.777513 
L 329.881907 56.615238 
L 329.881907 56.615238 
L 330.812149 55.804917 
L 330.812149 55.804917 
L 331.27727 55.604513 
L 331.27727 55.604513 
L 331.974952 59.302683 
L 331.974952 59.302683 
L 332.440073 65.13131 
L 332.440073 65.13131 
L 332.905194 73.111613 
L 332.905194 73.111613 
L 333.370315 81.864679 
L 333.370315 81.864679 
L 333.835436 93.401374 
L 333.835436 93.401374 
L 334.300557 104.170495 
L 334.300557 104.170495 
L 334.765679 114.472244 
L 334.765679 114.472244 
L 335.928481 133.63637 
L 335.928481 133.63637 
L 337.091284 144.219693 
L 337.091284 144.219693 
L 337.788966 148.032468 
L 337.788966 148.032468 
L 338.486648 150.1873 
L 338.486648 150.1873 
L 338.951769 151.186116 
L 338.951769 151.186116 
L 339.41689 151.744531 
L 339.41689 151.744531 
L 339.882011 151.90056 
L 339.882011 151.90056 
L 340.347132 152.105086 
L 340.347132 152.105086 
L 341.742495 152.028344 
L 341.742495 152.028344 
L 342.440177 151.799085 
L 342.440177 151.799085 
L 343.370419 150.855637 
L 343.370419 150.855637 
L 343.835541 150.029083 
L 343.835541 150.029083 
L 344.533222 148.616684 
L 344.533222 148.616684 
L 345.230904 146.513963 
L 345.230904 146.513963 
L 345.463464 145.855244 
L 345.463464 145.855244 
L 345.928586 145.164719 
L 345.928586 145.164719 
L 346.161146 145.110419 
L 346.161146 145.110419 
L 346.393707 145.247313 
L 346.393707 145.247313 
L 346.626267 146.08547 
L 346.626267 146.08547 
L 347.78907 157.661146 
L 347.78907 157.661146 
L 348.254191 166.157677 
L 348.254191 166.157677 
L 351.044918 227.755245 
L 351.044918 227.755245 
L 351.510039 233.052936 
L 351.510039 233.052936 
L 353.137963 255.010665 
L 353.137963 255.010665 
L 353.603084 258.492554 
L 353.603084 258.492554 
L 353.835645 261.266462 
L 353.835645 261.266462 
L 354.068205 262.670973 
L 354.068205 262.670973 
L 354.300766 265.358978 
L 354.300766 265.358978 
L 354.765887 267.928054 
L 354.765887 267.928054 
L 355.463569 273.131599 
L 355.463569 273.131599 
L 356.626371 278.956358 
L 356.626371 278.956358 
L 357.324053 281.081369 
L 357.324053 281.081369 
L 358.021735 282.681958 
L 358.021735 282.681958 
L 358.254295 282.79183 
L 358.254295 282.79183 
L 358.719417 283.197728 
L 358.719417 283.197728 
L 359.417098 283.772682 
L 359.417098 283.772682 
L 361.510143 283.644999 
L 361.510143 283.644999 
L 361.975264 283.430142 
L 361.975264 283.430142 
L 362.207825 283.341644 
L 362.207825 283.341644 
L 362.672946 282.801855 
L 362.672946 282.801855 
L 362.905507 282.579771 
L 362.905507 282.579771 
L 363.603188 281.199586 
L 363.603188 281.199586 
L 364.068309 280.159294 
L 364.068309 280.159294 
L 364.998552 276.95445 
L 364.998552 276.95445 
L 365.463673 274.956156 
L 365.463673 274.956156 
L 365.928794 272.573133 
L 365.928794 272.573133 
L 366.859036 267.52068 
L 366.859036 267.52068 
L 367.556718 263.232339 
L 367.556718 263.232339 
L 368.48696 256.27243 
L 368.48696 256.27243 
L 369.184642 250.440292 
L 369.184642 250.440292 
L 370.114884 241.904933 
L 370.114884 241.904933 
L 371.045126 232.446736 
L 371.045126 232.446736 
L 373.603293 206.316288 
L 373.603293 206.316288 
L 374.068414 203.81688 
L 374.068414 203.81688 
L 374.533535 202.010237 
L 374.533535 202.010237 
L 374.998656 200.945772 
L 374.998656 200.945772 
L 375.463777 200.218657 
L 375.463777 200.218657 
L 376.394019 199.346099 
L 376.394019 199.346099 
L 377.556822 198.842594 
L 377.556822 198.842594 
L 378.021943 198.678067 
L 378.021943 198.678067 
L 378.719625 198.442192 
L 378.719625 198.442192 
L 379.417307 197.487548 
L 379.417307 197.487548 
L 379.649867 197.208671 
L 379.649867 197.208671 
L 380.580109 194.72107 
L 380.580109 194.72107 
L 381.510352 190.678731 
L 381.510352 190.678731 
L 382.440594 184.687511 
L 382.440594 184.687511 
L 383.138276 178.850437 
L 383.138276 178.850437 
L 384.7662 158.302359 
L 384.7662 158.302359 
L 387.091805 114.466493 
L 387.091805 114.466493 
L 388.254608 91.975692 
L 388.254608 91.975692 
L 388.95229 82.413374 
L 388.95229 82.413374 
L 389.649971 75.279829 
L 389.649971 75.279829 
L 390.347653 70.012875 
L 390.347653 70.012875 
L 391.045335 66.058219 
L 391.045335 66.058219 
L 391.743016 63.056121 
L 391.743016 63.056121 
L 392.673259 60.268422 
L 392.673259 60.268422 
L 393.37094 58.725134 
L 393.37094 58.725134 
L 394.301183 57.289275 
L 394.301183 57.289275 
L 395.231425 56.298346 
L 395.231425 56.298346 
L 396.161667 55.608024 
L 396.161667 55.608024 
L 398.022152 54.853988 
L 398.022152 54.853988 
L 398.487273 54.755058 
L 398.487273 54.755058 
" clip-path="url(#pf018d994dc)" style="fill: none; stroke: #1f77b4; stroke-width: 1.5; stroke-linecap: square"/>
   </g>
   <g id="line2d_24">
    <path d="M 73.832727 54.168043 
L 73.832727 54.214404 
L 74.065288 54.011607 
L 74.065288 54.327074 
L 74.297848 54.361119 
L 74.297848 54.148959 
L 74.530409 54.180053 
L 74.530409 53.948657 
L 74.76297 54.549209 
L 74.76297 54.134303 
L 74.99553 54.365038 
L 74.99553 54.139748 
L 75.228091 54.17985 
L 75.460651 54.412925 
L 75.460651 53.958071 
L 75.693212 54.090029 
L 75.693212 54.497657 
L 75.925772 54.081428 
L 75.925772 54.231503 
L 76.158333 54.715771 
L 76.390893 54.652719 
L 76.390893 54.272673 
L 76.623454 54.42061 
L 76.623454 53.943568 
L 76.856015 54.206923 
L 77.088575 54.792717 
L 77.088575 54.448905 
L 77.321136 54.277914 
L 77.321136 54.032981 
L 77.553696 54.283919 
L 77.553696 53.748965 
L 77.786257 54.452976 
L 77.786257 53.893746 
L 78.018817 54.437658 
L 78.018817 54.375063 
L 78.483939 54.441169 
L 78.483939 54.345038 
L 78.716499 54.300815 
L 78.716499 54.168857 
L 78.94906 54.443052 
L 78.94906 54.368855 
L 79.18162 54.384987 
L 79.18162 54.250179 
L 79.414181 54.510329 
L 79.414181 54.276388 
L 79.646741 54.391602 
L 79.646741 54.310484 
L 80.111862 53.930438 
L 80.111862 54.625136 
L 80.576984 54.23308 
L 80.576984 54.272062 
L 80.809544 54.354148 
L 80.809544 54.008401 
L 81.042105 54.244429 
L 81.042105 54.417251 
L 81.274665 53.71039 
L 81.274665 54.271299 
L 81.507226 54.384376 
L 81.507226 54.310026 
L 81.739786 54.092014 
L 81.739786 54.512364 
L 81.972347 53.959852 
L 81.972347 54.513128 
L 82.204908 54.123311 
L 82.204908 54.245243 
L 82.437468 54.31598 
L 82.437468 54.011302 
L 82.902589 54.283869 
L 83.13515 58.903096 
L 83.13515 58.883351 
L 83.36771 54.215065 
L 83.36771 54.548038 
L 83.832831 53.985145 
L 83.832831 54.256948 
L 84.065392 54.383409 
L 84.065392 54.313995 
L 84.530513 54.15873 
L 84.530513 54.490532 
L 84.763074 54.458675 
L 84.763074 54.714245 
L 84.995634 54.119596 
L 84.995634 54.292469 
L 85.228195 53.968809 
L 85.228195 54.271095 
L 85.460755 54.330993 
L 85.460755 54.250637 
L 85.693316 53.958682 
L 85.693316 54.151199 
L 85.925877 53.892474 
L 86.158437 54.263869 
L 86.158437 54.028808 
L 86.390998 54.133845 
L 86.390998 54.321018 
L 86.623558 54.591956 
L 86.623558 54.557198 
L 86.856119 54.203259 
L 86.856119 53.803468 
L 87.088679 54.321273 
L 87.088679 53.928962 
L 87.32124 54.834752 
L 87.32124 54.714143 
L 87.5538 57.180726 
L 88.018922 64.559154 
L 88.018922 64.056311 
L 88.251482 63.909952 
L 88.251482 64.219769 
L 88.716603 69.947379 
L 88.949164 74.029718 
L 89.181724 74.310528 
L 89.181724 73.831909 
L 89.646846 79.739974 
L 89.879406 83.159522 
L 89.879406 83.085936 
L 90.111967 83.983481 
L 90.577088 89.828087 
L 90.809648 93.364275 
L 91.042209 94.01989 
L 91.50733 99.590809 
L 91.50733 99.909737 
L 91.739891 103.726124 
L 91.739891 103.406638 
L 91.972451 103.426128 
L 91.972451 103.40852 
L 92.205012 106.104974 
L 92.437572 109.563351 
L 92.437572 109.551545 
L 92.670133 110.282273 
L 93.135254 115.044806 
L 93.367815 118.3354 
L 93.600375 118.060543 
L 93.600375 118.296723 
L 94.065496 123.102971 
L 94.298057 123.028672 
L 94.298057 123.167041 
L 94.530617 124.439239 
L 94.763178 126.628981 
L 94.995738 126.854932 
L 94.995738 126.52944 
L 95.46086 129.597746 
L 95.46086 130.002576 
L 95.69342 129.29831 
L 95.69342 129.727414 
L 96.158541 131.526983 
L 96.391102 131.779041 
L 96.391102 131.317419 
L 96.856223 132.525494 
L 96.856223 132.340153 
L 97.088784 132.461729 
L 97.088784 132.080869 
L 97.553905 132.704016 
L 97.553905 133.081161 
L 98.019026 132.62758 
L 98.019026 133.03419 
L 98.251586 133.188488 
L 98.251586 133.103807 
L 98.484147 132.888187 
L 98.484147 132.662439 
L 98.716707 132.691243 
L 98.716707 132.467887 
L 98.949268 132.673075 
L 98.949268 132.892207 
L 99.414389 132.678266 
L 99.414389 132.792972 
L 99.64695 132.742184 
L 99.64695 132.541576 
L 99.87951 132.351909 
L 100.112071 131.754919 
L 100.112071 131.779703 
L 100.344631 132.777043 
L 100.344631 132.491042 
L 100.577192 131.212178 
L 100.577192 131.553446 
L 100.809753 131.434618 
L 100.809753 131.494719 
L 101.042313 130.716205 
L 101.042313 130.729436 
L 101.274874 129.133376 
L 101.507434 129.531081 
L 101.507434 129.234392 
L 101.739995 127.774208 
L 101.739995 128.064993 
L 101.972555 125.471744 
L 101.972555 125.631946 
L 102.205116 125.664617 
L 102.205116 125.818355 
L 102.437676 123.681233 
L 102.437676 123.880416 
L 102.670237 120.044181 
L 102.670237 120.053189 
L 102.902798 120.703766 
L 103.135358 117.819681 
L 103.135358 117.952351 
L 103.367919 112.690282 
L 103.367919 112.998523 
L 103.600479 113.932098 
L 103.600479 113.806298 
L 103.83304 109.685182 
L 104.0656 103.490555 
L 104.0656 103.494524 
L 104.298161 105.640552 
L 104.763282 93.38056 
L 104.995843 94.838301 
L 105.228403 89.351808 
L 105.460964 80.993393 
L 105.460964 80.993851 
L 105.693524 82.886549 
L 105.926085 77.024386 
L 106.158645 68.154833 
L 106.391206 68.00028 
L 106.391206 68.348469 
L 106.623767 63.066349 
L 106.623767 63.135661 
L 106.856327 54.488192 
L 107.088888 54.704983 
L 107.321448 54.202597 
L 107.321448 54.335115 
L 107.554009 54.292876 
L 107.554009 54.439388 
L 107.786569 54.235574 
L 107.786569 54.611549 
L 108.01913 54.457403 
L 108.01913 53.950692 
L 108.484251 54.387531 
L 108.484251 54.371196 
L 108.716812 54.267482 
L 108.949372 54.106772 
L 108.949372 54.421271 
L 109.181933 54.113082 
L 109.414493 54.381679 
L 109.414493 54.327379 
L 109.647054 54.02774 
L 109.879614 54.087688 
L 109.879614 54.422493 
L 110.112175 54.476182 
L 110.112175 54.108247 
L 110.344736 54.069062 
L 110.344736 54.121682 
L 110.577296 54.645543 
L 110.577296 54.324937 
L 110.809857 54.168806 
L 110.809857 54.345547 
L 111.042417 54.37776 
L 111.042417 54.224175 
L 111.274978 54.082141 
L 111.507538 54.16784 
L 111.507538 54.294505 
L 111.740099 54.435419 
L 111.740099 54.22962 
L 111.97266 54.309873 
L 111.97266 53.900362 
L 112.20522 54.103973 
L 112.20522 54.444274 
L 112.437781 54.315573 
L 112.670341 54.200002 
L 112.670341 54.488446 
L 112.902902 54.198933 
L 112.902902 54.010895 
L 113.135462 54.468039 
L 113.135462 54.142089 
L 113.368023 54.285955 
L 113.368023 54.02947 
L 113.600583 54.502899 
L 113.600583 54.334606 
L 113.833144 54.144023 
L 113.833144 54.358778 
L 114.298265 53.87222 
L 114.298265 54.031251 
L 114.530826 54.527784 
L 114.530826 54.140155 
L 115.228507 54.294454 
L 115.228507 54.220511 
L 115.461068 54.25705 
L 115.461068 54.550888 
L 115.693629 54.010641 
L 115.693629 54.256032 
L 115.926189 54.255879 
L 115.926189 54.558572 
L 116.15875 54.338219 
L 116.15875 54.338524 
L 116.39131 54.35659 
L 116.39131 54.592872 
L 116.623871 53.781941 
L 116.623871 54.305904 
L 116.856431 54.516028 
L 116.856431 54.450075 
L 117.088992 54.038121 
L 117.321552 54.53099 
L 117.554113 54.539489 
L 117.554113 54.424732 
L 117.786674 54.322138 
L 117.786674 54.592821 
L 118.019234 54.353842 
L 118.484355 54.86437 
L 118.484355 54.044635 
L 118.716916 54.403765 
L 118.716916 54.035882 
L 118.949476 54.250434 
L 119.182037 54.027231 
L 119.182037 54.086874 
L 119.414598 54.403104 
L 119.647158 54.458472 
L 119.647158 54.134303 
L 120.112279 54.537606 
L 120.112279 54.006569 
L 120.34484 54.125855 
L 120.34484 54.621218 
L 120.5774 54.479337 
L 120.5774 53.990539 
L 121.042521 54.365852 
L 121.042521 54.458574 
L 121.275082 54.684067 
L 121.275082 54.351043 
L 121.507643 54.068401 
L 121.507643 54.218271 
L 121.740203 54.226923 
L 121.740203 54.372417 
L 121.972764 54.19018 
L 121.972764 54.007434 
L 122.205324 54.802131 
L 122.205324 54.288245 
L 122.437885 54.041022 
L 122.437885 54.044737 
L 122.670445 54.741165 
L 122.670445 54.507733 
L 122.903006 54.497708 
L 122.903006 54.051556 
L 123.135567 54.129723 
L 123.135567 54.039393 
L 123.368127 54.456284 
L 123.368127 53.974203 
L 123.600688 53.969572 
L 123.600688 54.344987 
L 124.065809 54.371959 
L 124.298369 54.053235 
L 124.298369 54.299085 
L 124.53093 54.318932 
L 124.53093 54.460049 
L 124.76349 54.473383 
L 124.76349 54.137764 
L 124.996051 53.958631 
L 125.228612 54.431195 
L 125.693733 53.917919 
L 125.693733 54.152064 
L 125.926293 54.199035 
L 125.926293 54.000361 
L 126.158854 54.420152 
L 126.158854 54.022345 
L 126.391414 54.485036 
L 126.391414 54.419694 
L 126.856536 54.367277 
L 126.856536 54.572313 
L 127.089096 54.16616 
L 127.089096 54.219747 
L 127.321657 54.541117 
L 127.554217 54.027332 
L 127.786778 54.272367 
L 127.786778 54.607121 
L 128.019338 54.174303 
L 128.251899 54.277253 
L 128.251899 54.594246 
L 128.484459 54.239085 
L 128.71702 54.343512 
L 128.71702 54.1656 
L 129.414702 54.215523 
L 129.414702 54.368702 
L 129.879823 53.94143 
L 130.112383 54.260714 
L 130.112383 54.09125 
L 130.344944 54.050945 
L 130.344944 54.303461 
L 130.577505 54.143819 
L 130.577505 54.164277 
L 130.810065 56.09443 
L 131.042626 53.974407 
L 131.275186 54.458319 
L 131.275186 54.28565 
L 131.507747 59.409807 
L 131.740307 68.598033 
L 131.740307 68.56526 
L 131.972868 67.654941 
L 131.972868 68.383176 
L 132.67055 89.661575 
L 132.67055 89.846 
L 132.90311 90.835656 
L 133.368231 102.38772 
L 133.600792 111.054935 
L 133.833352 111.33432 
L 133.833352 111.0901 
L 135.228716 141.740387 
L 135.461276 139.573036 
L 135.461276 139.779802 
L 135.693837 145.093269 
L 136.158958 149.979872 
L 136.158958 149.92939 
L 136.391519 155.324892 
L 136.391519 155.275732 
L 136.624079 155.573693 
L 136.624079 155.869058 
L 136.85664 159.283619 
L 137.0892 164.601565 
L 137.0892 164.218821 
L 137.321761 163.812415 
L 137.554321 167.516438 
L 137.786882 168.051698 
L 137.786882 167.827222 
L 138.252003 174.596396 
L 138.484564 173.674169 
L 138.484564 173.751267 
L 138.717124 177.534271 
L 138.949685 177.060282 
L 138.949685 177.070715 
L 139.182245 179.806252 
L 139.414806 180.046656 
L 139.414806 180.363496 
L 139.647367 181.910703 
L 139.879927 184.692244 
L 139.879927 184.596062 
L 140.112488 184.118969 
L 140.112488 184.261105 
L 140.345048 186.634356 
L 140.345048 186.24398 
L 140.577609 186.586265 
L 140.810169 188.170265 
L 141.04273 188.243903 
L 141.04273 188.229043 
L 141.27529 190.216141 
L 141.27529 189.769837 
L 142.205533 193.985914 
L 142.205533 193.93533 
L 142.438093 195.980646 
L 142.438093 195.607674 
L 142.670654 195.315362 
L 142.670654 195.547166 
L 142.903214 197.151165 
L 143.135775 196.626185 
L 143.368336 198.260922 
L 143.600896 198.514303 
L 143.600896 198.093647 
L 143.833457 199.174854 
L 144.066017 199.329661 
L 144.298578 200.526185 
L 144.298578 200.206953 
L 144.531138 200.467356 
L 144.531138 201.013558 
L 144.763699 200.596006 
L 144.763699 201.55462 
L 144.996259 201.378846 
L 144.996259 201.125974 
L 145.22882 201.346276 
L 145.22882 201.857618 
L 145.461381 201.469175 
L 145.461381 201.861791 
L 145.693941 201.617723 
L 145.693941 201.818586 
L 145.926502 202.223975 
L 145.926502 202.001229 
L 146.159062 202.135375 
L 146.159062 202.293185 
L 146.391623 201.982858 
L 146.391623 202.491961 
L 146.624183 202.303312 
L 146.624183 202.669058 
L 146.856744 202.445244 
L 147.089305 202.520205 
L 147.089305 202.854094 
L 147.321865 203.157856 
L 147.321865 203.072564 
L 147.554426 202.478628 
L 147.554426 202.521884 
L 147.786986 202.513182 
L 147.786986 202.154154 
L 148.252107 202.820099 
L 148.252107 202.519085 
L 148.484668 202.741678 
L 148.484668 202.640865 
L 148.717228 202.564326 
L 148.717228 202.408196 
L 148.949789 202.293287 
L 148.949789 202.623664 
L 149.18235 201.798128 
L 149.41491 201.896345 
L 149.41491 202.325602 
L 149.647471 201.892579 
L 149.880031 202.197207 
L 150.112592 200.820583 
L 150.345152 201.364139 
L 150.345152 201.742861 
L 150.577713 200.1353 
L 150.577713 200.28059 
L 150.810274 200.598805 
L 150.810274 200.833662 
L 151.042834 198.750585 
L 151.042834 198.811195 
L 151.275395 200.025683 
L 151.275395 199.523247 
L 151.507955 196.849439 
L 151.507955 196.919158 
L 151.740516 198.148964 
L 151.740516 197.800572 
L 151.973076 194.077363 
L 151.973076 194.208659 
L 152.205637 195.762227 
L 152.438197 191.392055 
L 152.670758 192.608833 
L 152.670758 192.598808 
L 152.903319 186.999135 
L 153.135879 189.019923 
L 153.135879 188.533517 
L 153.36844 182.778427 
L 153.601 184.103651 
L 153.833561 176.868733 
L 153.833561 177.202978 
L 154.066121 177.930042 
L 154.298682 170.862908 
L 154.298682 170.95395 
L 154.531243 171.246974 
L 154.531243 171.053541 
L 154.763803 163.626056 
L 154.763803 164.128492 
L 154.996364 162.028163 
L 155.461485 152.12473 
L 155.694045 146.52862 
L 155.926606 138.261705 
L 156.159166 137.511791 
L 156.159166 137.719523 
L 156.391727 143.115178 
L 156.624288 142.917878 
L 156.624288 143.454207 
L 156.856848 148.459638 
L 156.856848 147.815015 
L 157.089409 149.827406 
L 157.321969 153.09744 
L 157.55453 158.170707 
L 157.78709 157.526695 
L 157.78709 158.026943 
L 158.019651 160.456173 
L 158.252212 161.647964 
L 158.717333 165.090871 
L 158.717333 164.815913 
L 158.949893 165.00904 
L 158.949893 165.265474 
L 159.182454 166.658332 
L 159.182454 165.870708 
L 159.415014 166.97619 
L 159.415014 166.469276 
L 159.647575 166.916445 
L 159.647575 167.212014 
L 159.880135 167.573078 
L 159.880135 168.159533 
L 160.112696 168.305537 
L 160.345257 168.35434 
L 160.345257 168.016329 
L 160.577817 168.485178 
L 160.577817 167.944982 
L 160.810378 168.607059 
L 160.810378 168.528689 
L 161.042938 168.140043 
L 161.042938 168.271288 
L 161.275499 168.963543 
L 161.275499 168.521157 
L 161.508059 168.681562 
L 161.508059 168.269201 
L 161.74062 168.590062 
L 161.74062 168.306962 
L 161.973181 168.422634 
L 161.973181 168.098567 
L 162.205741 168.833723 
L 162.438302 167.980554 
L 162.438302 168.354187 
L 162.670862 167.97979 
L 162.903423 168.164928 
L 163.368544 167.213083 
L 163.368544 168.139025 
L 163.601104 167.387126 
L 163.601104 167.618726 
L 163.833665 166.103937 
L 164.066226 166.458996 
L 164.066226 166.766727 
L 164.298786 164.856116 
L 164.531347 165.557888 
L 164.531347 165.349646 
L 164.763907 163.802287 
L 164.763907 164.355512 
L 165.229028 162.901078 
L 165.229028 162.957006 
L 165.461589 158.470245 
L 165.461589 158.796551 
L 165.69415 159.572063 
L 165.69415 160.170274 
L 165.92671 156.029106 
L 165.92671 156.327321 
L 166.159271 156.014908 
L 166.159271 156.458872 
L 166.391831 153.872697 
L 166.391831 154.476658 
L 166.856952 150.950394 
L 166.856952 150.552842 
L 167.089513 145.688478 
L 167.089513 145.756111 
L 167.322073 146.013156 
L 167.554634 142.49366 
L 167.787195 140.88223 
L 168.019755 138.026491 
L 168.019755 138.150663 
L 168.252316 131.355026 
L 168.484876 132.792056 
L 168.484876 132.277253 
L 168.717437 127.165361 
L 168.717437 127.273909 
L 168.949997 125.556527 
L 169.182558 121.773574 
L 169.182558 122.332752 
L 169.415119 114.542319 
L 169.415119 114.693157 
L 169.647679 114.50863 
L 169.647679 114.253468 
L 169.88024 109.743094 
L 169.88024 109.793068 
L 170.1128 100.50525 
L 170.345361 102.175814 
L 170.345361 101.93139 
L 170.810482 85.933278 
L 171.043042 87.205627 
L 171.275603 86.949091 
L 171.275603 87.075502 
L 171.508164 96.336501 
L 171.508164 96.182101 
L 171.740724 95.349592 
L 171.740724 94.899217 
L 171.973285 102.66736 
L 172.205845 114.533312 
L 172.438406 113.687979 
L 172.438406 113.918969 
L 172.670966 120.523514 
L 172.670966 120.078176 
L 172.903527 133.210116 
L 172.903527 132.89811 
L 173.136088 132.110894 
L 173.136088 132.173896 
L 173.368648 138.811367 
L 173.368648 138.602158 
L 173.601209 151.243164 
L 173.833769 149.909339 
L 173.833769 149.986284 
L 174.06633 157.414025 
L 174.06633 157.078965 
L 174.29889 169.798545 
L 174.29889 169.78338 
L 174.531451 166.069128 
L 174.531451 166.278489 
L 174.764011 175.817296 
L 174.764011 175.523 
L 174.996572 176.294949 
L 175.229133 183.159541 
L 175.229133 182.868756 
L 175.461693 185.836351 
L 175.461693 185.679814 
L 175.694254 190.794047 
L 175.926814 201.238848 
L 176.159375 199.111445 
L 176.159375 199.340094 
L 176.391935 207.786192 
L 176.624496 206.74244 
L 176.624496 207.107728 
L 176.857057 214.844166 
L 177.089617 214.192165 
L 177.089617 213.72011 
L 177.322178 221.119911 
L 177.554738 220.943222 
L 177.554738 221.103678 
L 177.787299 227.97056 
L 177.787299 227.632346 
L 178.019859 226.803451 
L 178.019859 226.871338 
L 178.25242 233.936284 
L 178.48498 232.847087 
L 178.717541 240.084448 
L 178.950102 237.978877 
L 179.647783 245.17344 
L 179.880344 249.108096 
L 179.880344 248.732325 
L 180.112904 249.703152 
L 180.345465 253.955056 
L 180.345465 253.911392 
L 180.578026 252.985908 
L 180.578026 253.092217 
L 180.810586 258.327009 
L 181.043147 256.788861 
L 181.275707 257.771291 
L 181.275707 257.689714 
L 181.508268 260.548456 
L 181.508268 260.177366 
L 181.740828 260.174262 
L 181.740828 260.555784 
L 181.973389 263.946121 
L 181.973389 263.645515 
L 182.205949 263.06995 
L 182.205949 262.707613 
L 182.43851 264.10617 
L 182.671071 265.593123 
L 182.671071 265.000001 
L 182.903631 265.649509 
L 182.903631 265.612868 
L 183.136192 267.519612 
L 183.136192 267.243483 
L 183.368752 267.412387 
L 183.368752 267.084452 
L 183.601313 267.556252 
L 183.601313 267.826325 
L 183.833873 268.015279 
L 183.833873 268.425758 
L 184.298995 269.239691 
L 184.298995 269.252363 
L 184.531555 269.47755 
L 184.531555 269.643095 
L 184.764116 269.521061 
L 184.996676 269.886858 
L 184.996676 270.4983 
L 185.229237 269.703909 
L 185.229237 269.879784 
L 185.461797 270.0122 
L 185.461797 270.218457 
L 185.694358 270.369295 
L 185.694358 270.186752 
L 185.926918 270.157542 
L 185.926918 270.309143 
L 186.159479 270.031996 
L 186.39204 270.574228 
L 186.39204 270.453314 
L 186.6246 269.689914 
L 186.6246 270.254334 
L 186.857161 270.244869 
L 186.857161 269.926247 
L 187.089721 269.954033 
L 187.089721 269.803755 
L 187.322282 269.912252 
L 187.322282 270.259321 
L 187.787403 270.234589 
L 187.787403 270.259576 
L 188.252524 269.420147 
L 188.252524 269.471545 
L 188.485085 269.838564 
L 188.717645 268.405147 
L 188.950206 269.332412 
L 188.950206 269.225289 
L 189.182766 268.66321 
L 189.182766 268.705092 
L 189.415327 267.61732 
L 189.415327 267.913703 
L 189.647887 267.830498 
L 189.647887 267.878233 
L 189.880448 265.57811 
L 190.113009 266.274081 
L 190.345569 265.653682 
L 190.345569 265.816122 
L 190.57813 263.260889 
L 190.57813 263.6647 
L 190.81069 263.602665 
L 190.81069 263.174274 
L 191.043251 259.936453 
L 191.275811 261.23323 
L 191.275811 260.796951 
L 191.508372 259.837015 
L 191.508372 259.940474 
L 191.740933 256.48057 
L 191.973493 256.074774 
L 191.973493 256.189734 
L 192.206054 250.735149 
L 192.438614 251.813659 
L 192.438614 251.643381 
L 192.671175 249.627275 
L 192.671175 249.717096 
L 192.903735 245.788903 
L 193.136296 244.399099 
L 193.368856 237.405908 
L 193.601417 238.189205 
L 193.601417 238.653576 
L 193.833978 227.08935 
L 193.833978 227.144667 
L 194.066538 230.30997 
L 194.299099 227.267414 
L 194.299099 227.738655 
L 194.531659 219.103246 
L 194.531659 219.302174 
L 194.76422 218.617247 
L 194.76422 218.631496 
L 194.99678 220.88195 
L 195.229341 219.748123 
L 195.461902 234.320553 
L 195.461902 234.145645 
L 195.694462 229.193699 
L 195.694462 229.529369 
L 195.927023 234.72238 
L 196.159583 243.08105 
L 196.159583 242.904157 
L 196.392144 244.110349 
L 196.392144 244.022208 
L 196.624704 253.772972 
L 196.624704 253.771445 
L 196.857265 252.234162 
L 196.857265 252.547491 
L 197.089825 263.320684 
L 197.322386 259.424246 
L 197.554947 262.623594 
L 197.787507 268.932468 
L 198.020068 268.460261 
L 198.020068 268.584992 
L 198.252628 276.351659 
L 198.252628 275.831615 
L 198.485189 273.90477 
L 198.717749 275.846424 
L 198.717749 275.799249 
L 198.95031 280.798828 
L 198.95031 280.635827 
L 199.182871 280.027693 
L 199.647992 284.828648 
L 199.880552 285.096176 
L 200.113113 288.569617 
L 200.113113 288.560304 
L 200.345673 288.131811 
L 200.578234 288.563663 
L 200.578234 288.887628 
L 200.810794 291.298843 
L 201.043355 290.431323 
L 201.508476 293.234136 
L 201.508476 292.939229 
L 201.741037 292.587732 
L 201.741037 293.063044 
L 202.206158 293.876316 
L 202.438718 293.629246 
L 202.438718 293.973618 
L 202.671279 294.666993 
L 202.90384 294.362824 
L 202.90384 294.678545 
L 203.1364 294.744905 
L 203.1364 294.868771 
L 203.368961 294.712539 
L 203.368961 295.147648 
L 203.601521 295.094774 
L 203.601521 294.91956 
L 203.834082 295.168259 
L 203.834082 295.439044 
L 204.066642 294.633151 
L 204.066642 295.269275 
L 204.531763 294.944699 
L 204.531763 294.98363 
L 204.764324 295.42281 
L 204.764324 295.260827 
L 204.996885 295.319707 
L 204.996885 294.903784 
L 205.229445 295.488 
L 205.229445 294.990297 
L 205.462006 294.899051 
L 205.462006 295.079252 
L 205.927127 294.618851 
L 205.927127 294.915641 
L 206.159687 293.98349 
L 206.159687 294.060843 
L 206.392248 293.867461 
L 206.392248 293.889751 
L 206.624809 293.212152 
L 206.624809 293.435508 
L 206.857369 293.248436 
L 206.857369 293.373676 
L 207.08993 293.227826 
L 207.08993 292.73801 
L 207.32249 291.675327 
L 207.32249 292.16102 
L 207.555051 291.260778 
L 207.787611 289.313577 
L 207.787611 289.354289 
L 208.020172 289.423346 
L 208.252732 288.535063 
L 208.252732 288.578065 
L 208.485293 286.638701 
L 208.717854 286.722771 
L 208.717854 286.345778 
L 208.950414 281.355818 
L 208.950414 281.777085 
L 209.182975 282.826282 
L 209.182975 283.365715 
L 209.415535 282.149853 
L 209.415535 282.287612 
L 209.648096 276.507382 
L 209.880656 278.720382 
L 210.113217 276.628093 
L 210.345778 270.817686 
L 210.345778 270.884046 
L 210.578338 272.258786 
L 210.810899 269.678108 
L 211.043459 263.43483 
L 211.043459 263.665667 
L 211.27602 263.937826 
L 211.27602 264.256397 
L 211.50858 261.280202 
L 211.741141 254.664258 
L 211.741141 254.70955 
L 211.973701 253.849663 
L 211.973701 253.887932 
L 212.206262 240.565408 
L 212.438823 245.25181 
L 212.438823 244.945402 
L 212.671383 241.048303 
L 212.671383 241.134968 
L 212.903944 228.287044 
L 213.136504 229.978778 
L 213.369065 233.715371 
L 213.601625 229.604025 
L 213.834186 232.579711 
L 214.066747 241.269572 
L 214.299307 240.062616 
L 214.531868 250.983797 
L 214.764428 248.174062 
L 214.764428 248.196861 
L 214.996989 250.321566 
L 214.996989 250.142332 
L 215.229549 255.668723 
L 215.46211 255.20878 
L 215.46211 255.393103 
L 215.69467 261.872103 
L 215.927231 259.785361 
L 215.927231 259.983221 
L 216.159792 262.111998 
L 216.392352 264.94163 
L 216.624913 265.391802 
L 216.624913 265.125343 
L 216.857473 269.338214 
L 217.090034 268.078739 
L 218.020276 273.675257 
L 218.020276 274.022886 
L 218.252837 273.962683 
L 218.252837 273.368085 
L 218.717958 276.050594 
L 218.717958 275.956194 
L 218.950518 275.409534 
L 218.950518 275.662661 
L 219.183079 277.046663 
L 219.415639 276.431811 
L 219.415639 276.804936 
L 219.6482 277.122234 
L 219.6482 277.611592 
L 220.113321 277.738104 
L 220.345882 278.151839 
L 220.345882 278.401505 
L 220.578442 278.637431 
L 220.578442 278.421403 
L 220.811003 278.286545 
L 220.811003 278.64369 
L 221.043563 278.935849 
L 221.043563 278.433362 
L 221.276124 278.732086 
L 221.276124 278.532852 
L 221.508685 279.0274 
L 221.508685 279.006078 
L 221.741245 279.10455 
L 221.741245 278.658347 
L 221.973806 278.286189 
L 222.206366 278.249752 
L 222.206366 278.542521 
L 222.438927 278.91931 
L 222.438927 278.717735 
L 222.671487 278.737582 
L 222.671487 278.518807 
L 222.904048 278.733358 
L 222.904048 278.58878 
L 223.136608 278.296927 
L 223.136608 278.679771 
L 223.369169 278.422268 
L 223.369169 278.85356 
L 223.60173 279.076255 
L 223.60173 278.659059 
L 223.83429 278.87071 
L 223.83429 278.243645 
L 224.066851 278.117743 
L 224.066851 278.395399 
L 224.299411 277.553119 
L 224.299411 278.009704 
L 224.531972 277.87454 
L 224.764532 278.109906 
L 224.764532 278.084665 
L 224.997093 277.587623 
L 224.997093 277.321112 
L 225.229654 277.489761 
L 225.462214 275.538133 
L 225.462214 275.781947 
L 225.694775 276.357104 
L 225.927335 276.115683 
L 225.927335 276.17329 
L 226.159896 273.958103 
L 226.159896 274.04543 
L 226.392456 274.618145 
L 226.392456 274.329345 
L 226.625017 274.350973 
L 226.625017 274.088635 
L 226.857577 273.096333 
L 227.090138 272.529317 
L 227.322699 269.668082 
L 227.555259 270.485018 
L 227.555259 270.28441 
L 227.78782 269.717904 
L 228.02038 267.553097 
L 228.252941 267.260582 
L 228.252941 267.585667 
L 228.485501 263.490249 
L 228.485501 263.87915 
L 228.718062 264.643008 
L 228.718062 264.512424 
L 228.950623 263.029441 
L 228.950623 263.164299 
L 229.183183 260.5796 
L 229.183183 261.090535 
L 229.415744 260.353395 
L 229.415744 259.96144 
L 229.648304 255.883427 
L 229.648304 256.215942 
L 229.880865 257.426919 
L 230.345986 253.06036 
L 230.345986 252.444999 
L 230.578546 252.294518 
L 230.578546 252.114571 
L 230.811107 247.395345 
L 231.043668 248.885961 
L 231.276228 246.679222 
L 231.741349 242.728027 
L 231.97391 238.012159 
L 231.97391 238.069868 
L 232.20647 238.781004 
L 232.439031 231.8357 
L 232.671592 234.28661 
L 232.904152 231.759824 
L 232.904152 232.207909 
L 233.136713 227.460032 
L 233.136713 227.731072 
L 233.369273 227.310009 
L 233.369273 227.570005 
L 233.601834 220.91854 
L 233.834394 222.234859 
L 234.066955 213.763213 
L 234.299515 216.887091 
L 234.299515 216.723938 
L 234.532076 214.483255 
L 234.764637 209.300931 
L 234.997197 208.326694 
L 234.997197 208.347152 
L 235.229758 201.747747 
L 235.462318 202.070084 
L 235.462318 201.696348 
L 235.694879 194.188812 
L 235.694879 194.452778 
L 235.927439 195.593578 
L 235.927439 195.381926 
L 236.16 185.699915 
L 236.16 185.954263 
L 236.392561 188.081106 
L 236.392561 188.054083 
L 236.625121 177.476308 
L 236.857682 180.604308 
L 237.090242 169.680888 
L 237.322803 172.852398 
L 237.555363 162.107958 
L 237.787924 164.751181 
L 237.787924 164.468691 
L 238.020485 154.132439 
L 238.020485 154.387092 
L 238.253045 155.968395 
L 238.253045 155.959387 
L 238.485606 146.939658 
L 238.718166 147.232224 
L 238.718166 148.20132 
L 238.950727 140.141324 
L 239.183287 139.191005 
L 239.415848 132.923352 
L 239.415848 133.357036 
L 239.880969 126.519313 
L 240.11353 116.332983 
L 240.11353 116.556237 
L 240.34609 117.590982 
L 240.34609 117.498718 
L 240.578651 110.472398 
L 240.811211 109.219844 
L 240.811211 109.230989 
L 241.043772 104.989619 
L 241.276332 96.694613 
L 241.508893 96.563775 
L 241.508893 96.815731 
L 241.974014 83.450358 
L 242.206575 84.473602 
L 242.671696 71.350414 
L 242.671696 71.879568 
L 242.904256 72.904694 
L 243.136817 68.263635 
L 243.369377 60.555848 
L 243.369377 61.28281 
L 243.601938 61.121286 
L 243.601938 61.138079 
L 244.067059 54.062803 
L 244.53218 54.340153 
L 244.53218 54.240409 
L 244.764741 53.867182 
L 244.764741 54.221935 
L 244.997301 54.180511 
L 244.997301 53.999292 
L 245.229862 54.013643 
L 245.229862 54.006315 
L 245.462423 54.390432 
L 245.694983 54.166974 
L 245.927544 54.324784 
L 245.927544 54.580099 
L 246.160104 54.138222 
L 246.160104 53.874205 
L 246.392665 54.43949 
L 246.392665 54.109672 
L 246.625225 54.319491 
L 246.625225 53.960412 
L 247.090346 54.459541 
L 247.090346 54.041989 
L 247.322907 54.277558 
L 247.322907 53.791661 
L 247.555468 54.450737 
L 247.555468 54.239085 
L 247.788028 54.117204 
L 247.788028 54.175931 
L 248.020589 54.687629 
L 248.020589 54.041887 
L 248.253149 53.934051 
L 248.253149 53.96031 
L 248.48571 54.225803 
L 248.48571 54.449515 
L 248.71827 54.211249 
L 248.71827 54.479388 
L 248.950831 54.563051 
L 248.950831 54.37089 
L 249.183392 54.617096 
L 249.183392 54.17415 
L 249.415952 54.137153 
L 249.415952 54.207788 
L 249.648513 54.544781 
L 249.881073 54.289416 
L 249.881073 54.076797 
L 250.346194 54.385954 
L 250.346194 54.339644 
L 250.578755 54.269212 
L 250.578755 53.991811 
L 250.811315 53.944942 
L 250.811315 54.352519 
L 251.043876 54.473841 
L 251.043876 54.381781 
L 251.508997 54.146975 
L 251.508997 54.674398 
L 251.741558 54.185549 
L 251.974118 54.444782 
L 251.974118 54.23705 
L 252.206679 54.252927 
L 252.206679 54.25191 
L 252.439239 53.911965 
L 252.6718 54.038121 
L 252.6718 54.594144 
L 252.904361 53.921939 
L 252.904361 54.032218 
L 253.136921 54.267838 
L 253.136921 54.569819 
L 253.369482 53.992727 
L 253.602042 54.317659 
L 253.602042 54.101784 
L 253.834603 54.497912 
L 253.834603 54.063617 
L 254.067163 54.370636 
L 254.067163 54.145092 
L 254.532284 54.442543 
L 254.532284 54.005653 
L 254.764845 54.238373 
L 254.764845 54.4229 
L 254.997406 54.208806 
L 255.229966 54.560201 
L 255.462527 54.448803 
L 255.462527 54.466614 
L 255.695087 54.502593 
L 255.695087 54.328346 
L 255.927648 54.202597 
L 256.160208 54.041531 
L 256.160208 54.215065 
L 256.392769 54.305599 
L 256.392769 53.884434 
L 256.85789 54.611396 
L 256.85789 54.46921 
L 257.090451 54.587936 
L 257.090451 54.043159 
L 257.323011 54.137764 
L 257.323011 54.568699 
L 257.788132 54.060106 
L 257.788132 54.229976 
L 258.020693 54.613991 
L 258.020693 54.212165 
L 258.253253 54.088858 
L 258.253253 54.431704 
L 258.485814 54.107128 
L 258.485814 54.484477 
L 258.718375 54.18331 
L 258.718375 53.938733 
L 258.950935 54.625849 
L 259.416056 54.004279 
L 259.416056 54.198781 
L 259.648617 54.314097 
L 259.881177 54.12957 
L 259.881177 54.523916 
L 260.113738 54.388549 
L 260.113738 54.063362 
L 260.346299 53.82591 
L 260.346299 54.391348 
L 260.578859 53.568 
L 260.578859 53.992575 
L 260.81142 56.18079 
L 260.81142 56.107611 
L 261.04398 53.947283 
L 261.04398 53.994 
L 261.276541 54.305344 
L 261.276541 54.191147 
L 261.509101 54.119901 
L 261.509101 53.732018 
L 261.741662 54.3657 
L 261.741662 54.089062 
L 261.974222 53.997104 
L 261.974222 54.362137 
L 262.439344 54.254098 
L 262.439344 54.285243 
L 262.671904 54.373231 
L 262.904465 54.160104 
L 262.904465 54.436844 
L 263.137025 54.216592 
L 263.137025 54.253691 
L 263.369586 54.274352 
L 263.602146 53.908861 
L 263.602146 54.076187 
L 263.834707 53.994101 
L 263.834707 54.345089 
L 264.067268 54.327837 
L 264.067268 53.98087 
L 264.299828 53.961735 
L 264.299828 54.313232 
L 264.532389 54.285904 
L 264.532389 54.397862 
L 264.764949 54.201529 
L 264.764949 54.360967 
L 264.99751 54.234963 
L 264.99751 54.478421 
L 265.23007 54.084685 
L 265.23007 54.315318 
L 265.695191 54.116186 
L 265.695191 54.320611 
L 265.927752 54.20387 
L 266.160313 54.495825 
L 266.392873 54.008809 
L 266.392873 54.301069 
L 266.625434 54.367328 
L 266.625434 54.037358 
L 267.090555 54.364224 
L 267.090555 54.309822 
L 267.323115 54.168705 
L 267.323115 54.643355 
L 267.555676 54.526308 
L 267.555676 54.302749 
L 267.788237 54.30911 
L 267.788237 54.123209 
L 268.020797 54.459388 
L 268.020797 54.361425 
L 268.253358 53.968198 
L 268.253358 54.532415 
L 268.485918 53.84194 
L 268.485918 54.315318 
L 268.718479 54.58534 
L 268.718479 53.985399 
L 268.951039 54.21074 
L 268.951039 54.474706 
L 269.1836 53.671917 
L 269.1836 54.550939 
L 269.41616 54.020666 
L 269.41616 54.401424 
L 269.648721 54.320255 
L 269.648721 54.322087 
L 269.881282 54.040004 
L 269.881282 54.303105 
L 270.113842 53.965959 
L 270.113842 54.175829 
L 270.346403 58.354655 
L 270.578963 54.1913 
L 270.811524 54.373638 
L 270.811524 54.280866 
L 271.044084 54.278576 
L 271.044084 54.395012 
L 271.276645 54.488548 
L 271.276645 54.014356 
L 271.509206 53.865299 
L 271.509206 54.294301 
L 271.741766 54.424986 
L 271.741766 54.11242 
L 271.974327 54.493281 
L 271.974327 54.333842 
L 272.206887 54.219849 
L 272.439448 54.404478 
L 272.439448 54.287024 
L 272.672008 54.064533 
L 272.672008 54.145957 
L 272.904569 54.316591 
L 272.904569 54.228653 
L 273.137129 54.281935 
L 273.137129 54.493077 
L 273.36969 54.42178 
L 273.36969 54.166974 
L 273.834811 54.574806 
L 273.834811 54.306616 
L 274.067372 54.138527 
L 274.067372 54.275115 
L 274.299932 54.163819 
L 274.532493 54.273487 
L 274.532493 54.434757 
L 274.997614 54.360661 
L 274.997614 54.040055 
L 275.230175 54.31023 
L 275.230175 54.02433 
L 275.462735 54.549667 
L 275.462735 54.305649 
L 275.695296 54.16784 
L 275.695296 54.378778 
L 275.927856 54.210536 
L 275.927856 54.717044 
L 276.160417 54.342799 
L 276.160417 53.912321 
L 276.392977 54.603457 
L 276.392977 54.304937 
L 276.625538 53.937512 
L 276.625538 54.235218 
L 276.858098 54.569361 
L 276.858098 54.231706 
L 277.32322 54.257151 
L 277.32322 54.564068 
L 277.55578 54.075932 
L 277.55578 54.221783 
L 277.788341 54.276744 
L 277.788341 54.198882 
L 278.020901 54.838518 
L 278.020901 54.16387 
L 278.486022 54.360814 
L 278.486022 53.918377 
L 278.718583 54.208653 
L 278.718583 54.555977 
L 278.951144 54.333842 
L 278.951144 54.002244 
L 279.183704 54.394503 
L 279.183704 54.095372 
L 279.416265 54.164939 
L 279.416265 54.038274 
L 279.648825 54.179646 
L 279.648825 54.703812 
L 279.881386 54.051505 
L 279.881386 54.292113 
L 280.113946 54.66137 
L 280.113946 54.408498 
L 280.346507 54.154913 
L 280.346507 54.197814 
L 280.579067 54.134405 
L 280.579067 54.47094 
L 280.811628 54.24962 
L 280.811628 54.359491 
L 281.044189 54.45206 
L 281.044189 54.260968 
L 281.276749 54.180969 
L 281.276749 54.226312 
L 281.50931 54.882232 
L 281.50931 54.346667 
L 281.74187 54.221223 
L 281.74187 54.015017 
L 281.974431 54.37715 
L 281.974431 54.352926 
L 282.206991 54.070996 
L 282.206991 54.374961 
L 282.439552 54.30051 
L 282.439552 54.174099 
L 282.672113 53.997867 
L 282.672113 54.293538 
L 282.904673 57.328205 
L 282.904673 57.074621 
L 283.369794 70.444726 
L 283.369794 71.548885 
L 283.602355 78.910468 
L 283.602355 78.591083 
L 283.834915 78.116229 
L 283.834915 78.272004 
L 284.532597 93.161326 
L 284.532597 92.651765 
L 284.765158 92.409275 
L 284.765158 92.827284 
L 285.462839 101.811086 
L 285.6954 102.298662 
L 285.6954 102.176679 
L 286.393082 106.129401 
L 286.393082 105.836275 
L 286.858203 107.074274 
L 286.858203 106.495249 
L 287.090763 106.601252 
L 287.090763 106.903589 
L 287.323324 107.024046 
L 287.323324 106.697129 
L 287.555884 106.630768 
L 287.555884 107.129083 
L 287.788445 106.773769 
L 288.021005 107.144858 
L 288.021005 106.980993 
L 288.253566 106.983945 
L 288.253566 107.184451 
L 288.486127 106.633618 
L 288.486127 106.881045 
L 288.718687 105.309106 
L 288.718687 105.607678 
L 288.951248 106.364309 
L 288.951248 106.150724 
L 289.183808 104.704381 
L 289.416369 102.058156 
L 289.648929 102.634027 
L 289.648929 103.037838 
L 289.88149 101.088144 
L 289.88149 101.314655 
L 290.114051 97.353892 
L 290.114051 97.427835 
L 290.346611 97.609309 
L 290.346611 97.781978 
L 290.579172 95.102064 
L 290.579172 95.62506 
L 290.811732 90.189863 
L 290.811732 90.322432 
L 291.044293 89.575673 
L 291.276853 87.021762 
L 291.509414 82.335615 
L 291.509414 82.769248 
L 291.741974 75.012555 
L 291.741974 75.295859 
L 291.974535 76.734823 
L 292.207096 72.483428 
L 292.207096 72.859097 
L 292.439656 65.649267 
L 292.439656 66.001171 
L 292.672217 65.098231 
L 293.137338 54.42407 
L 293.137338 54.945539 
L 293.369898 54.237253 
L 293.602459 54.389211 
L 293.602459 54.260052 
L 293.83502 54.394249 
L 293.83502 54.121733 
L 294.06758 53.882958 
L 294.06758 54.304733 
L 294.300141 53.847335 
L 294.300141 54.183564 
L 294.532701 54.165549 
L 294.532701 54.52641 
L 294.765262 54.134507 
L 294.765262 54.272469 
L 294.997822 54.601981 
L 294.997822 53.886469 
L 295.230383 54.062497 
L 295.230383 53.987333 
L 295.462943 54.011251 
L 295.462943 54.501932 
L 295.695504 54.168348 
L 295.695504 54.354962 
L 295.928065 54.242241 
L 295.928065 53.935171 
L 296.160625 54.690835 
L 296.160625 54.410483 
L 296.393186 57.920361 
L 296.393186 57.399553 
L 296.625746 58.284783 
L 297.090867 65.128765 
L 297.555989 73.499648 
L 297.555989 73.109984 
L 297.788549 72.979655 
L 297.788549 73.074768 
L 298.25367 79.92618 
L 298.25367 80.177729 
L 298.486231 83.553614 
L 298.486231 83.309953 
L 298.718791 83.921701 
L 298.718791 83.500688 
L 299.183912 90.362482 
L 299.183912 90.228234 
L 299.416473 94.896163 
L 299.416473 94.663851 
L 299.649034 94.987969 
L 300.114155 101.669714 
L 300.114155 101.976325 
L 300.346715 106.398303 
L 300.346715 106.178306 
L 300.579276 105.446509 
L 300.579276 105.896732 
L 300.811836 109.034757 
L 301.044397 114.326546 
L 301.276958 114.556823 
L 301.276958 114.463491 
L 301.509518 117.946651 
L 301.742079 122.780889 
L 301.974639 123.195082 
L 301.974639 123.554823 
L 302.2072 126.350715 
L 302.43976 131.727184 
L 302.672321 132.319034 
L 302.672321 132.717706 
L 302.904881 135.605709 
L 302.904881 135.190396 
L 303.137442 140.822842 
L 303.370003 141.020091 
L 303.370003 141.177697 
L 303.602563 143.8427 
L 303.835124 149.828475 
L 304.067684 149.258609 
L 304.067684 149.259169 
L 304.300245 152.75378 
L 304.532805 158.202819 
L 304.532805 158.0216 
L 304.765366 156.684263 
L 304.765366 156.974183 
L 304.997927 160.923954 
L 304.997927 160.799629 
L 305.230487 160.881002 
L 305.230487 161.206291 
L 305.463048 163.668396 
L 305.695608 167.770633 
L 305.928169 167.317458 
L 305.928169 167.053187 
L 306.160729 170.276656 
L 306.39329 170.264748 
L 306.39329 169.984904 
L 306.62585 172.552962 
L 306.858411 173.133565 
L 306.858411 172.891787 
L 307.090972 174.227088 
L 307.323532 176.879725 
L 307.556093 176.543699 
L 307.556093 176.645224 
L 307.788653 178.096249 
L 308.021214 178.517465 
L 308.021214 178.030448 
L 308.253774 179.683098 
L 308.253774 179.520861 
L 308.486335 179.652157 
L 308.486335 179.81185 
L 308.718896 180.621356 
L 308.718896 180.567514 
L 309.184017 181.316919 
L 309.184017 181.306334 
L 309.416577 181.986325 
L 309.416577 181.762053 
L 309.881698 182.471968 
L 309.881698 182.828502 
L 310.114259 182.674102 
L 310.346819 182.31543 
L 310.346819 182.531916 
L 310.57938 182.412477 
L 310.57938 182.130394 
L 310.811941 182.99934 
L 311.044501 181.894062 
L 311.044501 182.419653 
L 311.277062 182.416294 
L 311.277062 182.247238 
L 311.509622 182.241182 
L 311.509622 182.682906 
L 311.742183 182.534511 
L 311.742183 182.984124 
L 311.974743 182.413495 
L 311.974743 182.594765 
L 312.207304 182.460517 
L 312.207304 182.697919 
L 312.439865 182.337415 
L 312.439865 182.678784 
L 312.672425 181.930448 
L 312.904986 181.940524 
L 312.904986 181.845156 
L 313.137546 180.3437 
L 313.370107 181.536509 
L 313.602667 179.566051 
L 313.602667 180.021465 
L 313.835228 180.550262 
L 314.067788 178.766978 
L 314.067788 178.806112 
L 314.300349 178.966823 
L 314.300349 178.470849 
L 314.53291 177.038044 
L 314.76547 176.414489 
L 314.76547 176.589958 
L 314.998031 174.771152 
L 315.230591 170.556143 
L 315.230591 170.910185 
L 315.463152 172.327672 
L 315.463152 171.94839 
L 315.695712 167.710226 
L 315.695712 167.85628 
L 315.928273 168.886292 
L 315.928273 168.857387 
L 316.160834 164.683854 
L 316.393394 164.355614 
L 316.393394 164.485281 
L 316.625955 161.210616 
L 316.858515 159.900201 
L 316.858515 160.400144 
L 317.091076 157.891423 
L 317.091076 157.955188 
L 317.323636 150.485464 
L 317.323636 150.566837 
L 317.556197 152.296382 
L 317.556197 152.055876 
L 317.788757 145.975141 
L 318.021318 145.962724 
L 318.021318 146.530706 
L 318.253879 141.395353 
L 318.253879 141.914939 
L 318.719 135.923313 
L 318.719 136.098272 
L 318.95156 127.752783 
L 318.95156 128.072524 
L 319.184121 128.645799 
L 319.184121 128.960859 
L 319.416681 122.866638 
L 319.416681 122.889742 
L 319.649242 121.047781 
L 319.649242 121.222181 
L 319.881803 116.04347 
L 319.881803 116.67079 
L 320.114363 108.112276 
L 320.346924 107.962812 
L 320.346924 108.286777 
L 320.579484 102.308687 
L 320.812045 92.606371 
L 320.812045 92.682197 
L 321.044605 94.435253 
L 321.044605 94.355661 
L 321.509726 77.80234 
L 321.742287 79.601757 
L 321.742287 79.573869 
L 322.207408 62.575007 
L 322.439969 64.105471 
L 322.439969 63.919926 
L 322.90509 54.065347 
L 322.90509 54.292062 
L 323.13765 54.509158 
L 323.13765 54.407022 
L 323.370211 54.212674 
L 323.370211 54.524527 
L 323.602772 54.074304 
L 323.835332 54.392366 
L 323.835332 54.290077 
L 324.067893 54.29308 
L 324.067893 54.012218 
L 324.300453 54.476487 
L 324.300453 54.152267 
L 324.533014 53.948402 
L 324.533014 54.386768 
L 325.230695 54.289008 
L 325.463256 54.384987 
L 325.463256 54.139494 
L 325.695817 54.433434 
L 325.695817 54.251655 
L 325.928377 54.167534 
L 325.928377 54.552771 
L 326.160938 54.109723 
L 326.160938 54.334758 
L 326.393498 54.536639 
L 326.393498 54.214455 
L 326.626059 53.897207 
L 326.626059 54.281986 
L 327.09118 54.136339 
L 327.09118 54.36 
L 327.323741 54.364122 
L 327.323741 54.20163 
L 327.556301 54.183921 
L 327.556301 54.294199 
L 328.021422 54.420508 
L 328.021422 53.924738 
L 328.253983 53.823162 
L 328.253983 54.390076 
L 328.486543 54.384732 
L 328.486543 54.425699 
L 328.719104 54.148603 
L 328.719104 54.251299 
L 328.951664 54.249111 
L 328.951664 54.439439 
L 329.184225 54.226261 
L 329.184225 54.38117 
L 329.416786 54.273996 
L 329.416786 54.404071 
L 329.649346 53.992982 
L 329.649346 54.039037 
L 329.881907 54.195473 
L 329.881907 54.060309 
L 330.114467 54.292214 
L 330.114467 54.244327 
L 330.347028 53.93283 
L 330.347028 54.564476 
L 330.579588 54.03863 
L 330.579588 54.099545 
L 330.812149 54.135932 
L 330.812149 54.395012 
L 331.04471 55.160142 
L 331.04471 55.108082 
L 331.27727 58.883656 
L 331.27727 58.484119 
L 331.509831 59.745426 
L 331.742391 62.488036 
L 332.207512 71.782419 
L 332.440073 79.199829 
L 332.672633 79.023851 
L 333.137755 91.411018 
L 333.370315 102.124008 
L 333.370315 101.669256 
L 333.602876 102.094085 
L 333.602876 101.596381 
L 334.067997 115.75182 
L 334.300557 123.469633 
L 334.533118 121.49144 
L 334.998239 133.181822 
L 334.998239 132.99414 
L 335.2308 132.225956 
L 335.46336 135.843161 
L 335.695921 141.171336 
L 335.695921 140.814241 
L 335.928481 140.029977 
L 335.928481 140.129619 
L 336.393603 146.367757 
L 336.626163 145.354029 
L 336.626163 145.502068 
L 336.858724 147.468862 
L 336.858724 147.195837 
L 337.556405 150.666174 
L 337.788966 150.327196 
L 337.788966 150.672281 
L 338.021526 150.892074 
L 338.021526 151.421533 
L 338.254087 151.430337 
L 338.254087 151.715829 
L 338.719208 151.974706 
L 338.719208 151.859746 
L 338.951769 152.388899 
L 339.41689 151.89944 
L 339.41689 152.224067 
L 339.64945 152.096181 
L 339.64945 152.390782 
L 340.114572 152.21679 
L 340.114572 152.101575 
L 340.347132 152.113076 
L 340.347132 152.433428 
L 340.579693 151.791045 
L 340.579693 152.109514 
L 340.812253 152.120201 
L 340.812253 152.261776 
L 341.044814 152.168648 
L 341.044814 152.295516 
L 341.277374 151.111512 
L 341.509935 151.945343 
L 341.509935 151.731198 
L 341.742495 151.450693 
L 341.742495 151.082352 
L 341.975056 150.845306 
L 341.975056 151.140926 
L 342.207617 151.107542 
L 342.207617 150.945763 
L 342.440177 149.497894 
L 342.672738 149.553822 
L 342.672738 149.878042 
L 342.905298 148.020559 
L 342.905298 148.516227 
L 343.137859 148.577601 
L 343.137859 148.379232 
L 343.370419 147.306828 
L 343.60298 144.967571 
L 343.835541 145.762268 
L 344.068101 143.588149 
L 344.300662 143.777409 
L 344.533222 142.079924 
L 344.533222 142.317021 
L 344.765783 139.328612 
L 344.765783 139.523978 
L 344.998343 139.934507 
L 345.230904 139.186476 
L 345.463464 142.428317 
L 345.696025 141.564359 
L 345.696025 141.607717 
L 345.928586 144.781314 
L 346.161146 145.508226 
L 346.161146 145.411637 
L 346.393707 147.685042 
L 346.626267 153.312704 
L 346.858828 152.618922 
L 347.091388 157.868574 
L 347.091388 157.633767 
L 347.323949 159.200617 
L 347.323949 159.041128 
L 347.55651 163.042959 
L 347.78907 173.521296 
L 347.78907 173.514476 
L 348.021631 171.943606 
L 348.021631 172.097192 
L 348.254191 181.319006 
L 348.254191 181.106591 
L 348.486752 183.084377 
L 349.184433 201.013202 
L 349.416994 214.583813 
L 349.649555 211.163654 
L 349.649555 211.352405 
L 349.882115 222.576381 
L 349.882115 222.558722 
L 350.114676 220.305215 
L 350.347236 231.118 
L 350.347236 230.92416 
L 350.579797 227.744252 
L 350.579797 227.905472 
L 350.812357 238.687774 
L 351.044918 234.486862 
L 351.044918 234.910673 
L 351.510039 242.606959 
L 351.7426 244.568257 
L 351.97516 249.824015 
L 352.207721 250.221975 
L 352.207721 250.186759 
L 352.440281 256.672476 
L 352.440281 256.630797 
L 352.672842 254.599017 
L 352.905402 262.437846 
L 352.905402 261.906657 
L 353.137963 260.227239 
L 353.137963 260.540161 
L 353.370524 261.804266 
L 353.603084 266.551075 
L 353.603084 265.861669 
L 353.835645 265.346714 
L 353.835645 264.958118 
L 354.068205 270.931832 
L 354.300766 269.051347 
L 354.300766 269.606862 
L 354.533326 270.702725 
L 354.765887 273.659124 
L 354.998448 273.479279 
L 354.998448 273.590525 
L 355.231008 277.481365 
L 355.463569 276.570893 
L 355.92869 279.182818 
L 355.92869 279.44312 
L 356.16125 279.409278 
L 356.16125 279.521542 
L 356.393811 281.41882 
L 356.393811 281.064168 
L 356.626371 281.292562 
L 356.626371 280.980963 
L 356.858932 281.577138 
L 357.091493 282.504505 
L 357.091493 282.415601 
L 357.324053 282.748013 
L 357.324053 282.534327 
L 357.556614 283.248567 
L 357.556614 283.67935 
L 357.789174 283.593295 
L 357.789174 283.683879 
L 358.021735 283.001089 
L 358.021735 283.762657 
L 358.486856 283.469531 
L 358.486856 284.11624 
L 358.719417 283.782402 
L 358.719417 283.555229 
L 358.951977 284.248706 
L 358.951977 284.210692 
L 359.184538 283.927387 
L 359.184538 283.589275 
L 359.417098 283.690139 
L 359.417098 283.560827 
L 359.649659 283.341695 
L 359.649659 283.532075 
L 359.882219 284.017971 
L 360.11478 283.908914 
L 360.11478 283.59416 
L 360.34734 283.829272 
L 360.579901 283.261544 
L 360.579901 283.350448 
L 360.812462 283.603829 
L 360.812462 283.598079 
L 361.045022 282.80669 
L 361.277583 283.229788 
L 361.277583 282.960581 
L 361.510143 282.989435 
L 361.510143 283.190349 
L 361.742704 281.925531 
L 361.742704 282.176571 
L 361.975264 282.588219 
L 362.207825 279.695229 
L 362.207825 279.77421 
L 362.440386 280.835316 
L 362.440386 280.759032 
L 362.672946 280.409672 
L 362.672946 280.057769 
L 362.905507 278.116115 
L 363.138067 278.329547 
L 363.138067 278.589493 
L 363.370628 274.863536 
L 363.603188 275.935685 
L 363.835749 274.790255 
L 363.835749 275.048165 
L 364.068309 272.184843 
L 364.30087 272.284282 
L 364.30087 272.463924 
L 364.533431 267.504039 
L 364.765991 269.207071 
L 364.765991 268.851706 
L 364.998552 267.702968 
L 365.231112 263.491674 
L 365.231112 263.91004 
L 365.463673 264.644738 
L 365.696233 258.774993 
L 365.928794 260.343013 
L 365.928794 260.033093 
L 366.161355 258.750718 
L 366.161355 258.943337 
L 366.393915 254.315458 
L 366.393915 254.546651 
L 366.626476 255.219518 
L 366.626476 255.074532 
L 366.859036 253.34972 
L 366.859036 253.559234 
L 367.091597 249.565138 
L 367.324157 249.139495 
L 367.324157 249.539337 
L 367.556718 242.533474 
L 367.556718 243.151685 
L 367.789278 244.967285 
L 367.789278 244.867693 
L 368.021839 242.308948 
L 368.021839 242.547469 
L 368.2544 237.729466 
L 368.2544 237.732265 
L 368.48696 237.709212 
L 368.48696 237.955926 
L 368.719521 230.288596 
L 368.952081 232.073713 
L 368.952081 232.058802 
L 369.184642 229.877914 
L 369.417202 225.451407 
L 369.649763 224.587347 
L 369.649763 224.913552 
L 369.882324 217.76479 
L 369.882324 218.006517 
L 370.114884 218.777347 
L 370.347445 210.049725 
L 370.347445 210.220054 
L 370.580005 212.740377 
L 370.580005 212.421908 
L 370.812566 210.091455 
L 370.812566 210.248857 
L 371.045126 205.918837 
L 371.045126 205.954817 
L 371.277687 203.927566 
L 371.277687 204.686742 
L 371.510247 199.058164 
L 371.510247 199.398566 
L 371.742808 198.424838 
L 371.975369 193.041855 
L 371.975369 193.095799 
L 372.207929 193.337526 
L 372.44049 187.750321 
L 372.44049 187.754189 
L 372.67305 188.481253 
L 372.905611 187.85602 
L 373.138171 188.521711 
L 373.138171 188.018969 
L 373.370732 190.889568 
L 373.370732 190.832164 
L 373.603293 191.129972 
L 373.835853 193.218545 
L 373.835853 192.894274 
L 374.068414 192.743233 
L 374.068414 193.249842 
L 374.300974 194.402754 
L 374.300974 195.01557 
L 374.533535 195.365743 
L 374.533535 195.049056 
L 374.766095 196.572089 
L 374.766095 196.113571 
L 374.998656 196.568476 
L 375.231216 197.214574 
L 375.231216 197.089996 
L 375.696338 197.732227 
L 375.696338 197.556453 
L 375.928898 197.48882 
L 375.928898 197.786017 
L 376.161459 197.365259 
L 376.161459 197.696909 
L 376.394019 198.051256 
L 376.394019 197.914158 
L 376.85914 198.147641 
L 376.85914 197.571567 
L 377.091701 198.018126 
L 377.324262 198.045607 
L 377.324262 198.176903 
L 377.556822 198.421174 
L 377.556822 198.632469 
L 377.789383 197.452841 
L 377.789383 197.567191 
L 378.021943 197.943064 
L 378.021943 198.356239 
L 378.487064 197.517827 
L 378.487064 197.852938 
L 378.719625 194.453593 
L 378.719625 194.59756 
L 378.952185 196.175911 
L 379.184746 193.34119 
L 379.417307 194.483465 
L 379.417307 194.471811 
L 379.649867 190.837965 
L 379.649867 190.959491 
L 379.882428 191.810777 
L 379.882428 191.539788 
L 380.114988 187.456686 
L 380.114988 187.982583 
L 380.347549 188.458505 
L 380.347549 188.939161 
L 380.580109 184.55937 
L 380.81267 185.462921 
L 380.81267 185.002011 
L 381.045231 179.660808 
L 381.045231 179.830068 
L 381.277791 180.013679 
L 381.277791 180.289859 
L 381.510352 175.232266 
L 381.742912 175.387734 
L 381.975473 169.969841 
L 381.975473 170.356604 
L 382.208033 168.692453 
L 382.208033 168.833214 
L 382.905715 158.458947 
L 382.905715 158.659301 
L 383.138276 147.669673 
L 383.370836 150.961284 
L 383.603397 140.57516 
L 383.603397 140.758822 
L 383.835957 141.301003 
L 383.835957 141.273777 
L 384.068518 133.512555 
L 384.068518 134.338346 
L 384.301078 131.619908 
L 384.301078 132.014916 
L 384.533639 126.125578 
L 384.7662 113.085544 
L 384.99876 115.143533 
L 385.231321 105.538823 
L 385.463881 103.475237 
L 386.394123 78.113736 
L 386.394123 78.245795 
L 387.091805 62.174453 
L 387.556926 54.200714 
L 387.556926 54.49496 
L 387.789487 54.167687 
L 387.789487 53.946977 
L 388.022047 54.305649 
L 388.022047 53.909319 
L 388.254608 54.552771 
L 388.254608 54.188959 
L 388.719729 54.126822 
L 388.719729 54.15186 
L 388.95229 54.541422 
L 388.95229 54.255879 
L 389.18485 53.934458 
L 389.18485 54.142547 
L 389.417411 54.347379 
L 389.417411 53.975374 
L 389.649971 54.628597 
L 389.882532 54.160511 
L 390.115092 54.647782 
L 390.115092 54.615569 
L 390.347653 54.295064 
L 390.580214 54.481423 
L 390.580214 54.201376 
L 390.812774 54.369516 
L 390.812774 53.76357 
L 391.045335 54.287227 
L 391.045335 54.064991 
L 391.277895 54.005602 
L 391.277895 54.258424 
L 391.510456 54.342036 
L 391.510456 54.304377 
L 391.743016 54.628546 
L 391.743016 54.855973 
L 391.975577 54.118934 
L 392.208138 54.65338 
L 392.208138 54.089367 
L 392.440698 54.144837 
L 392.440698 54.286769 
L 392.673259 53.995526 
L 392.673259 54.220663 
L 393.603501 54.294097 
L 393.603501 54.181987 
L 393.836061 54.065703 
L 394.068622 54.504273 
L 394.533743 53.849625 
L 394.533743 54.287075 
L 394.766304 54.378626 
L 394.766304 54.507479 
L 394.998864 54.361781 
L 394.998864 53.909064 
L 395.231425 54.292672 
L 395.463985 54.262088 
L 395.696546 54.054406 
L 395.696546 54.68427 
L 395.929107 54.078782 
L 395.929107 54.221885 
L 396.161667 54.445393 
L 396.161667 54.290688 
L 396.394228 54.380559 
L 396.626788 54.121173 
L 396.859349 54.366208 
L 396.859349 54.670072 
L 397.091909 54.185549 
L 397.091909 54.602236 
L 397.32447 54.205803 
L 397.32447 54.399032 
L 397.55703 54.035577 
L 397.55703 54.211452 
L 397.789591 54.184073 
L 397.789591 54.692006 
L 398.022152 54.505698 
L 398.022152 54.57562 
L 398.254712 54.104125 
L 398.254712 54.397251 
L 398.487273 53.925807 
L 398.487273 54.418574 
L 398.487273 54.418574 
" clip-path="url(#pf018d994dc)" style="fill: none; stroke: #ff7f0e; stroke-width: 1.5; stroke-linecap: square"/>
   </g>
   <g id="patch_3">
    <path d="M 57.6 307.584 
L 57.6 41.472 
" style="fill: none; stroke: #000000; stroke-width: 0.8; stroke-linejoin: miter; stroke-linecap: square"/>
   </g>
   <g id="patch_4">
    <path d="M 414.72 307.584 
L 414.72 41.472 
" style="fill: none; stroke: #000000; stroke-width: 0.8; stroke-linejoin: miter; stroke-linecap: square"/>
   </g>
   <g id="patch_5">
    <path d="M 57.6 307.584 
L 414.72 307.584 
" style="fill: none; stroke: #000000; stroke-width: 0.8; stroke-linejoin: miter; stroke-linecap: square"/>
   </g>
   <g id="patch_6">
    <path d="M 57.6 41.472 
L 414.72 41.472 
" style="fill: none; stroke: #000000; stroke-width: 0.8; stroke-linejoin: miter; stroke-linecap: square"/>
   </g>
   <g id="text_14">
    <!-- Actual speed vs Expected speed -->
    <g transform="translate(138.808125 35.472) scale(0.12 -0.12)">
     <defs>
      <path id="DejaVuSans-41" d="M 2188 4044 
L 1331 1722 
L 3047 1722 
L 2188 4044 
z
M 1831 4666 
L 2547 4666 
L 4325 0 
L 3669 0 
L 3244 1197 
L 1141 1197 
L 716 0 
L 50 0 
L 1831 4666 
z
" transform="scale(0.015625)"/>
      <path id="DejaVuSans-75" d="M 544 1381 
L 544 3500 
L 1119 3500 
L 1119 1403 
Q 1119 906 1312 657 
Q 1506 409 1894 409 
Q 2359 409 2629 706 
Q 2900 1003 2900 1516 
L 2900 3500 
L 3475 3500 
L 3475 0 
L 2900 0 
L 2900 538 
Q 2691 219 2414 64 
Q 2138 -91 1772 -91 
Q 1169 -91 856 284 
Q 544 659 544 1381 
z
M 1991 3584 
L 1991 3584 
z
" transform="scale(0.015625)"/>
      <path id="DejaVuSans-61" d="M 2194 1759 
Q 1497 1759 1228 1600 
Q 959 1441 959 1056 
Q 959 750 1161 570 
Q 1363 391 1709 391 
Q 2188 391 2477 730 
Q 2766 1069 2766 1631 
L 2766 1759 
L 2194 1759 
z
M 3341 1997 
L 3341 0 
L 2766 0 
L 2766 531 
Q 2569 213 2275 61 
Q 1981 -91 1556 -91 
Q 1019 -91 701 211 
Q 384 513 384 1019 
Q 384 1609 779 1909 
Q 1175 2209 1959 2209 
L 2766 2209 
L 2766 2266 
Q 2766 2663 2505 2880 
Q 2244 3097 1772 3097 
Q 1472 3097 1187 3025 
Q 903 2953 641 2809 
L 641 3341 
Q 956 3463 1253 3523 
Q 1550 3584 1831 3584 
Q 2591 3584 2966 3190 
Q 3341 2797 3341 1997 
z
" transform="scale(0.015625)"/>
      <path id="DejaVuSans-20" transform="scale(0.015625)"/>
      <path id="DejaVuSans-70" d="M 1159 525 
L 1159 -1331 
L 581 -1331 
L 581 3500 
L 1159 3500 
L 1159 2969 
Q 1341 3281 1617 3432 
Q 1894 3584 2278 3584 
Q 2916 3584 3314 3078 
Q 3713 2572 3713 1747 
Q 3713 922 3314 415 
Q 2916 -91 2278 -91 
Q 1894 -91 1617 61 
Q 1341 213 1159 525 
z
M 3116 1747 
Q 3116 2381 2855 2742 
Q 2594 3103 2138 3103 
Q 1681 3103 1420 2742 
Q 1159 2381 1159 1747 
Q 1159 1113 1420 752 
Q 1681 391 2138 391 
Q 2594 391 2855 752 
Q 3116 1113 3116 1747 
z
" transform="scale(0.015625)"/>
      <path id="DejaVuSans-64" d="M 2906 2969 
L 2906 4863 
L 3481 4863 
L 3481 0 
L 2906 0 
L 2906 525 
Q 2725 213 2448 61 
Q 2172 -91 1784 -91 
Q 1150 -91 751 415 
Q 353 922 353 1747 
Q 353 2572 751 3078 
Q 1150 3584 1784 3584 
Q 2172 3584 2448 3432 
Q 2725 3281 2906 2969 
z
M 947 1747 
Q 947 1113 1208 752 
Q 1469 391 1925 391 
Q 2381 391 2643 752 
Q 2906 1113 2906 1747 
Q 2906 2381 2643 2742 
Q 2381 3103 1925 3103 
Q 1469 3103 1208 2742 
Q 947 2381 947 1747 
z
" transform="scale(0.015625)"/>
      <path id="DejaVuSans-76" d="M 191 3500 
L 800 3500 
L 1894 563 
L 2988 3500 
L 3597 3500 
L 2284 0 
L 1503 0 
L 191 3500 
z
" transform="scale(0.015625)"/>
      <path id="DejaVuSans-45" d="M 628 4666 
L 3578 4666 
L 3578 4134 
L 1259 4134 
L 1259 2753 
L 3481 2753 
L 3481 2222 
L 1259 2222 
L 1259 531 
L 3634 531 
L 3634 0 
L 628 0 
L 628 4666 
z
" transform="scale(0.015625)"/>
      <path id="DejaVuSans-78" d="M 3513 3500 
L 2247 1797 
L 3578 0 
L 2900 0 
L 1881 1375 
L 863 0 
L 184 0 
L 1544 1831 
L 300 3500 
L 978 3500 
L 1906 2253 
L 2834 3500 
L 3513 3500 
z
" transform="scale(0.015625)"/>
     </defs>
     <use xlink:href="#DejaVuSans-41"/>
     <use xlink:href="#DejaVuSans-63" x="66.658203"/>
     <use xlink:href="#DejaVuSans-74" x="121.638672"/>
     <use xlink:href="#DejaVuSans-75" x="160.847656"/>
     <use xlink:href="#DejaVuSans-61" x="224.226562"/>
     <use xlink:href="#DejaVuSans-6c" x="285.505859"/>
     <use xlink:href="#DejaVuSans-20" x="313.289062"/>
     <use xlink:href="#DejaVuSans-73" x="345.076172"/>
     <use xlink:href="#DejaVuSans-70" x="397.175781"/>
     <use xlink:href="#DejaVuSans-65" x="460.652344"/>
     <use xlink:href="#DejaVuSans-65" x="522.175781"/>
     <use xlink:href="#DejaVuSans-64" x="583.699219"/>
     <use xlink:href="#DejaVuSans-20" x="647.175781"/>
     <use xlink:href="#DejaVuSans-76" x="678.962891"/>
     <use xlink:href="#DejaVuSans-73" x="738.142578"/>
     <use xlink:href="#DejaVuSans-20" x="790.242188"/>
     <use xlink:href="#DejaVuSans-45" x="822.029297"/>
     <use xlink:href="#DejaVuSans-78" x="885.212891"/>
     <use xlink:href="#DejaVuSans-70" x="944.392578"/>
     <use xlink:href="#DejaVuSans-65" x="1007.869141"/>
     <use xlink:href="#DejaVuSans-63" x="1069.392578"/>
     <use xlink:href="#DejaVuSans-74" x="1124.373047"/>
     <use xlink:href="#DejaVuSans-65" x="1163.582031"/>
     <use xlink:href="#DejaVuSans-64" x="1225.105469"/>
     <use xlink:href="#DejaVuSans-20" x="1288.582031"/>
     <use xlink:href="#DejaVuSans-73" x="1320.369141"/>
     <use xlink:href="#DejaVuSans-70" x="1372.46875"/>
     <use xlink:href="#DejaVuSans-65" x="1435.945312"/>
     <use xlink:href="#DejaVuSans-65" x="1497.46875"/>
     <use xlink:href="#DejaVuSans-64" x="1558.992188"/>
    </g>
   </g>
   <g id="legend_1">
    <g id="patch_7">
     <path d="M 64.6 302.584 
L 176.65 302.584 
Q 178.65 302.584 178.65 300.584 
L 178.65 272.22775 
Q 178.65 270.22775 176.65 270.22775 
L 64.6 270.22775 
Q 62.6 270.22775 62.6 272.22775 
L 62.6 300.584 
Q 62.6 302.584 64.6 302.584 
z
" style="fill: #ffffff; opacity: 0.8; stroke: #cccccc; stroke-linejoin: miter"/>
    </g>
    <g id="line2d_25">
     <path d="M 66.6 278.326187 
L 76.6 278.326187 
L 86.6 278.326187 
" style="fill: none; stroke: #1f77b4; stroke-width: 1.5; stroke-linecap: square"/>
    </g>
    <g id="text_15">
     <!-- Actual speed -->
     <g transform="translate(94.6 281.826187) scale(0.1 -0.1)">
      <use xlink:href="#DejaVuSans-41"/>
      <use xlink:href="#DejaVuSans-63" x="66.658203"/>
      <use xlink:href="#DejaVuSans-74" x="121.638672"/>
      <use xlink:href="#DejaVuSans-75" x="160.847656"/>
      <use xlink:href="#DejaVuSans-61" x="224.226562"/>
      <use xlink:href="#DejaVuSans-6c" x="285.505859"/>
      <use xlink:href="#DejaVuSans-20" x="313.289062"/>
      <use xlink:href="#DejaVuSans-73" x="345.076172"/>
      <use xlink:href="#DejaVuSans-70" x="397.175781"/>
      <use xlink:href="#DejaVuSans-65" x="460.652344"/>
      <use xlink:href="#DejaVuSans-65" x="522.175781"/>
      <use xlink:href="#DejaVuSans-64" x="583.699219"/>
     </g>
    </g>
    <g id="line2d_26">
     <path d="M 66.6 293.004312 
L 76.6 293.004312 
L 86.6 293.004312 
" style="fill: none; stroke: #ff7f0e; stroke-width: 1.5; stroke-linecap: square"/>
    </g>
    <g id="text_16">
     <!-- Expected speed -->
     <g transform="translate(94.6 296.504312) scale(0.1 -0.1)">
      <use xlink:href="#DejaVuSans-45"/>
      <use xlink:href="#DejaVuSans-78" x="63.183594"/>
      <use xlink:href="#DejaVuSans-70" x="122.363281"/>
      <use xlink:href="#DejaVuSans-65" x="185.839844"/>
      <use xlink:href="#DejaVuSans-63" x="247.363281"/>
      <use xlink:href="#DejaVuSans-74" x="302.34375"/>
      <use xlink:href="#DejaVuSans-65" x="341.552734"/>
      <use xlink:href="#DejaVuSans-64" x="403.076172"/>
      <use xlink:href="#DejaVuSans-20" x="466.552734"/>
      <use xlink:href="#DejaVuSans-73" x="498.339844"/>
      <use xlink:href="#DejaVuSans-70" x="550.439453"/>
      <use xlink:href="#DejaVuSans-65" x="613.916016"/>
      <use xlink:href="#DejaVuSans-65" x="675.439453"/>
      <use xlink:href="#DejaVuSans-64" x="736.962891"/>
     </g>
    </g>
   </g>
  </g>
 </g>
 <defs>
  <clipPath id="pf018d994dc">
   <rect x="57.6" y="41.472" width="357.12" height="266.112"/>
  </clipPath>
 </defs>
</svg>
