<?xml version="1.0" encoding="utf-8" standalone="no"?>
<!DOCTYPE svg PUBLIC "-//W3C//DTD SVG 1.1//EN"
  "http://www.w3.org/Graphics/SVG/1.1/DTD/svg11.dtd">
<svg xmlns:xlink="http://www.w3.org/1999/xlink" width="460.8pt" height="345.6pt" viewBox="0 0 460.8 345.6" xmlns="http://www.w3.org/2000/svg" version="1.1">
 <metadata>
  <rdf:RDF xmlns:dc="http://purl.org/dc/elements/1.1/" xmlns:cc="http://creativecommons.org/ns#" xmlns:rdf="http://www.w3.org/1999/02/22-rdf-syntax-ns#">
   <cc:Work>
    <dc:type rdf:resource="http://purl.org/dc/dcmitype/StillImage"/>
    <dc:date>2024-01-30T20:59:21.652632</dc:date>
    <dc:format>image/svg+xml</dc:format>
    <dc:creator>
     <cc:Agent>
      <dc:title>Matplotlib v3.7.1, https://matplotlib.org/</dc:title>
     </cc:Agent>
    </dc:creator>
   </cc:Work>
  </rdf:RDF>
 </metadata>
 <defs>
  <style type="text/css">*{stroke-linejoin: round; stroke-linecap: butt}</style>
 </defs>
 <g id="figure_1">
  <g id="patch_1">
   <path d="M 0 345.6 
L 460.8 345.6 
L 460.8 0 
L 0 0 
z
" style="fill: #ffffff"/>
  </g>
  <g id="axes_1">
   <g id="patch_2">
    <path d="M 57.6 307.584 
L 414.72 307.584 
L 414.72 41.472 
L 57.6 41.472 
z
" style="fill: #ffffff"/>
   </g>
   <g id="matplotlib.axis_1">
    <g id="xtick_1">
     <g id="line2d_1">
      <path d="M 73.832727 307.584 
L 73.832727 41.472 
" clip-path="url(#pf3e6f95bfd)" style="fill: none; stroke: #b0b0b0; stroke-width: 0.8; stroke-linecap: square"/>
     </g>
     <g id="line2d_2">
      <defs>
       <path id="m140e0a4fc1" d="M 0 0 
L 0 3.5 
" style="stroke: #000000; stroke-width: 0.8"/>
      </defs>
      <g>
       <use xlink:href="#m140e0a4fc1" x="73.832727" y="307.584" style="stroke: #000000; stroke-width: 0.8"/>
      </g>
     </g>
     <g id="text_1">
      <!-- 0 -->
      <g transform="translate(70.651477 322.182437) scale(0.1 -0.1)">
       <defs>
        <path id="DejaVuSans-30" d="M 2034 4250 
Q 1547 4250 1301 3770 
Q 1056 3291 1056 2328 
Q 1056 1369 1301 889 
Q 1547 409 2034 409 
Q 2525 409 2770 889 
Q 3016 1369 3016 2328 
Q 3016 3291 2770 3770 
Q 2525 4250 2034 4250 
z
M 2034 4750 
Q 2819 4750 3233 4129 
Q 3647 3509 3647 2328 
Q 3647 1150 3233 529 
Q 2819 -91 2034 -91 
Q 1250 -91 836 529 
Q 422 1150 422 2328 
Q 422 3509 836 4129 
Q 1250 4750 2034 4750 
z
" transform="scale(0.015625)"/>
       </defs>
       <use xlink:href="#DejaVuSans-30"/>
      </g>
     </g>
    </g>
    <g id="xtick_2">
     <g id="line2d_3">
      <path d="M 131.93125 307.584 
L 131.93125 41.472 
" clip-path="url(#pf3e6f95bfd)" style="fill: none; stroke: #b0b0b0; stroke-width: 0.8; stroke-linecap: square"/>
     </g>
     <g id="line2d_4">
      <g>
       <use xlink:href="#m140e0a4fc1" x="131.93125" y="307.584" style="stroke: #000000; stroke-width: 0.8"/>
      </g>
     </g>
     <g id="text_2">
      <!-- 5 -->
      <g transform="translate(128.75 322.182437) scale(0.1 -0.1)">
       <defs>
        <path id="DejaVuSans-35" d="M 691 4666 
L 3169 4666 
L 3169 4134 
L 1269 4134 
L 1269 2991 
Q 1406 3038 1543 3061 
Q 1681 3084 1819 3084 
Q 2600 3084 3056 2656 
Q 3513 2228 3513 1497 
Q 3513 744 3044 326 
Q 2575 -91 1722 -91 
Q 1428 -91 1123 -41 
Q 819 9 494 109 
L 494 744 
Q 775 591 1075 516 
Q 1375 441 1709 441 
Q 2250 441 2565 725 
Q 2881 1009 2881 1497 
Q 2881 1984 2565 2268 
Q 2250 2553 1709 2553 
Q 1456 2553 1204 2497 
Q 953 2441 691 2322 
L 691 4666 
z
" transform="scale(0.015625)"/>
       </defs>
       <use xlink:href="#DejaVuSans-35"/>
      </g>
     </g>
    </g>
    <g id="xtick_3">
     <g id="line2d_5">
      <path d="M 190.029773 307.584 
L 190.029773 41.472 
" clip-path="url(#pf3e6f95bfd)" style="fill: none; stroke: #b0b0b0; stroke-width: 0.8; stroke-linecap: square"/>
     </g>
     <g id="line2d_6">
      <g>
       <use xlink:href="#m140e0a4fc1" x="190.029773" y="307.584" style="stroke: #000000; stroke-width: 0.8"/>
      </g>
     </g>
     <g id="text_3">
      <!-- 10 -->
      <g transform="translate(183.667273 322.182437) scale(0.1 -0.1)">
       <defs>
        <path id="DejaVuSans-31" d="M 794 531 
L 1825 531 
L 1825 4091 
L 703 3866 
L 703 4441 
L 1819 4666 
L 2450 4666 
L 2450 531 
L 3481 531 
L 3481 0 
L 794 0 
L 794 531 
z
" transform="scale(0.015625)"/>
       </defs>
       <use xlink:href="#DejaVuSans-31"/>
       <use xlink:href="#DejaVuSans-30" x="63.623047"/>
      </g>
     </g>
    </g>
    <g id="xtick_4">
     <g id="line2d_7">
      <path d="M 248.128296 307.584 
L 248.128296 41.472 
" clip-path="url(#pf3e6f95bfd)" style="fill: none; stroke: #b0b0b0; stroke-width: 0.8; stroke-linecap: square"/>
     </g>
     <g id="line2d_8">
      <g>
       <use xlink:href="#m140e0a4fc1" x="248.128296" y="307.584" style="stroke: #000000; stroke-width: 0.8"/>
      </g>
     </g>
     <g id="text_4">
      <!-- 15 -->
      <g transform="translate(241.765796 322.182437) scale(0.1 -0.1)">
       <use xlink:href="#DejaVuSans-31"/>
       <use xlink:href="#DejaVuSans-35" x="63.623047"/>
      </g>
     </g>
    </g>
    <g id="xtick_5">
     <g id="line2d_9">
      <path d="M 306.226819 307.584 
L 306.226819 41.472 
" clip-path="url(#pf3e6f95bfd)" style="fill: none; stroke: #b0b0b0; stroke-width: 0.8; stroke-linecap: square"/>
     </g>
     <g id="line2d_10">
      <g>
       <use xlink:href="#m140e0a4fc1" x="306.226819" y="307.584" style="stroke: #000000; stroke-width: 0.8"/>
      </g>
     </g>
     <g id="text_5">
      <!-- 20 -->
      <g transform="translate(299.864319 322.182437) scale(0.1 -0.1)">
       <defs>
        <path id="DejaVuSans-32" d="M 1228 531 
L 3431 531 
L 3431 0 
L 469 0 
L 469 531 
Q 828 903 1448 1529 
Q 2069 2156 2228 2338 
Q 2531 2678 2651 2914 
Q 2772 3150 2772 3378 
Q 2772 3750 2511 3984 
Q 2250 4219 1831 4219 
Q 1534 4219 1204 4116 
Q 875 4013 500 3803 
L 500 4441 
Q 881 4594 1212 4672 
Q 1544 4750 1819 4750 
Q 2544 4750 2975 4387 
Q 3406 4025 3406 3419 
Q 3406 3131 3298 2873 
Q 3191 2616 2906 2266 
Q 2828 2175 2409 1742 
Q 1991 1309 1228 531 
z
" transform="scale(0.015625)"/>
       </defs>
       <use xlink:href="#DejaVuSans-32"/>
       <use xlink:href="#DejaVuSans-30" x="63.623047"/>
      </g>
     </g>
    </g>
    <g id="xtick_6">
     <g id="line2d_11">
      <path d="M 364.325341 307.584 
L 364.325341 41.472 
" clip-path="url(#pf3e6f95bfd)" style="fill: none; stroke: #b0b0b0; stroke-width: 0.8; stroke-linecap: square"/>
     </g>
     <g id="line2d_12">
      <g>
       <use xlink:href="#m140e0a4fc1" x="364.325341" y="307.584" style="stroke: #000000; stroke-width: 0.8"/>
      </g>
     </g>
     <g id="text_6">
      <!-- 25 -->
      <g transform="translate(357.962841 322.182437) scale(0.1 -0.1)">
       <use xlink:href="#DejaVuSans-32"/>
       <use xlink:href="#DejaVuSans-35" x="63.623047"/>
      </g>
     </g>
    </g>
    <g id="text_7">
     <!-- Time(s) -->
     <g transform="translate(217.420156 335.860562) scale(0.1 -0.1)">
      <defs>
       <path id="DejaVuSans-54" d="M -19 4666 
L 3928 4666 
L 3928 4134 
L 2272 4134 
L 2272 0 
L 1638 0 
L 1638 4134 
L -19 4134 
L -19 4666 
z
" transform="scale(0.015625)"/>
       <path id="DejaVuSans-69" d="M 603 3500 
L 1178 3500 
L 1178 0 
L 603 0 
L 603 3500 
z
M 603 4863 
L 1178 4863 
L 1178 4134 
L 603 4134 
L 603 4863 
z
" transform="scale(0.015625)"/>
       <path id="DejaVuSans-6d" d="M 3328 2828 
Q 3544 3216 3844 3400 
Q 4144 3584 4550 3584 
Q 5097 3584 5394 3201 
Q 5691 2819 5691 2113 
L 5691 0 
L 5113 0 
L 5113 2094 
Q 5113 2597 4934 2840 
Q 4756 3084 4391 3084 
Q 3944 3084 3684 2787 
Q 3425 2491 3425 1978 
L 3425 0 
L 2847 0 
L 2847 2094 
Q 2847 2600 2669 2842 
Q 2491 3084 2119 3084 
Q 1678 3084 1418 2786 
Q 1159 2488 1159 1978 
L 1159 0 
L 581 0 
L 581 3500 
L 1159 3500 
L 1159 2956 
Q 1356 3278 1631 3431 
Q 1906 3584 2284 3584 
Q 2666 3584 2933 3390 
Q 3200 3197 3328 2828 
z
" transform="scale(0.015625)"/>
       <path id="DejaVuSans-65" d="M 3597 1894 
L 3597 1613 
L 953 1613 
Q 991 1019 1311 708 
Q 1631 397 2203 397 
Q 2534 397 2845 478 
Q 3156 559 3463 722 
L 3463 178 
Q 3153 47 2828 -22 
Q 2503 -91 2169 -91 
Q 1331 -91 842 396 
Q 353 884 353 1716 
Q 353 2575 817 3079 
Q 1281 3584 2069 3584 
Q 2775 3584 3186 3129 
Q 3597 2675 3597 1894 
z
M 3022 2063 
Q 3016 2534 2758 2815 
Q 2500 3097 2075 3097 
Q 1594 3097 1305 2825 
Q 1016 2553 972 2059 
L 3022 2063 
z
" transform="scale(0.015625)"/>
       <path id="DejaVuSans-28" d="M 1984 4856 
Q 1566 4138 1362 3434 
Q 1159 2731 1159 2009 
Q 1159 1288 1364 580 
Q 1569 -128 1984 -844 
L 1484 -844 
Q 1016 -109 783 600 
Q 550 1309 550 2009 
Q 550 2706 781 3412 
Q 1013 4119 1484 4856 
L 1984 4856 
z
" transform="scale(0.015625)"/>
       <path id="DejaVuSans-73" d="M 2834 3397 
L 2834 2853 
Q 2591 2978 2328 3040 
Q 2066 3103 1784 3103 
Q 1356 3103 1142 2972 
Q 928 2841 928 2578 
Q 928 2378 1081 2264 
Q 1234 2150 1697 2047 
L 1894 2003 
Q 2506 1872 2764 1633 
Q 3022 1394 3022 966 
Q 3022 478 2636 193 
Q 2250 -91 1575 -91 
Q 1294 -91 989 -36 
Q 684 19 347 128 
L 347 722 
Q 666 556 975 473 
Q 1284 391 1588 391 
Q 1994 391 2212 530 
Q 2431 669 2431 922 
Q 2431 1156 2273 1281 
Q 2116 1406 1581 1522 
L 1381 1569 
Q 847 1681 609 1914 
Q 372 2147 372 2553 
Q 372 3047 722 3315 
Q 1072 3584 1716 3584 
Q 2034 3584 2315 3537 
Q 2597 3491 2834 3397 
z
" transform="scale(0.015625)"/>
       <path id="DejaVuSans-29" d="M 513 4856 
L 1013 4856 
Q 1481 4119 1714 3412 
Q 1947 2706 1947 2009 
Q 1947 1309 1714 600 
Q 1481 -109 1013 -844 
L 513 -844 
Q 928 -128 1133 580 
Q 1338 1288 1338 2009 
Q 1338 2731 1133 3434 
Q 928 4138 513 4856 
z
" transform="scale(0.015625)"/>
      </defs>
      <use xlink:href="#DejaVuSans-54"/>
      <use xlink:href="#DejaVuSans-69" x="57.958984"/>
      <use xlink:href="#DejaVuSans-6d" x="85.742188"/>
      <use xlink:href="#DejaVuSans-65" x="183.154297"/>
      <use xlink:href="#DejaVuSans-28" x="244.677734"/>
      <use xlink:href="#DejaVuSans-73" x="283.691406"/>
      <use xlink:href="#DejaVuSans-29" x="335.791016"/>
     </g>
    </g>
   </g>
   <g id="matplotlib.axis_2">
    <g id="ytick_1">
     <g id="line2d_13">
      <path d="M 57.6 257.882353 
L 414.72 257.882353 
" clip-path="url(#pf3e6f95bfd)" style="fill: none; stroke: #b0b0b0; stroke-width: 0.8; stroke-linecap: square"/>
     </g>
     <g id="line2d_14">
      <defs>
       <path id="m49fa84beb3" d="M 0 0 
L -3.5 0 
" style="stroke: #000000; stroke-width: 0.8"/>
      </defs>
      <g>
       <use xlink:href="#m49fa84beb3" x="57.6" y="257.882353" style="stroke: #000000; stroke-width: 0.8"/>
      </g>
     </g>
     <g id="text_8">
      <!-- 4 -->
      <g transform="translate(44.2375 261.681572) scale(0.1 -0.1)">
       <defs>
        <path id="DejaVuSans-34" d="M 2419 4116 
L 825 1625 
L 2419 1625 
L 2419 4116 
z
M 2253 4666 
L 3047 4666 
L 3047 1625 
L 3713 1625 
L 3713 1100 
L 3047 1100 
L 3047 0 
L 2419 0 
L 2419 1100 
L 313 1100 
L 313 1709 
L 2253 4666 
z
" transform="scale(0.015625)"/>
       </defs>
       <use xlink:href="#DejaVuSans-34"/>
      </g>
     </g>
    </g>
    <g id="ytick_2">
     <g id="line2d_15">
      <path d="M 57.6 206.979165 
L 414.72 206.979165 
" clip-path="url(#pf3e6f95bfd)" style="fill: none; stroke: #b0b0b0; stroke-width: 0.8; stroke-linecap: square"/>
     </g>
     <g id="line2d_16">
      <g>
       <use xlink:href="#m49fa84beb3" x="57.6" y="206.979165" style="stroke: #000000; stroke-width: 0.8"/>
      </g>
     </g>
     <g id="text_9">
      <!-- 5 -->
      <g transform="translate(44.2375 210.778383) scale(0.1 -0.1)">
       <use xlink:href="#DejaVuSans-35"/>
      </g>
     </g>
    </g>
    <g id="ytick_3">
     <g id="line2d_17">
      <path d="M 57.6 156.075976 
L 414.72 156.075976 
" clip-path="url(#pf3e6f95bfd)" style="fill: none; stroke: #b0b0b0; stroke-width: 0.8; stroke-linecap: square"/>
     </g>
     <g id="line2d_18">
      <g>
       <use xlink:href="#m49fa84beb3" x="57.6" y="156.075976" style="stroke: #000000; stroke-width: 0.8"/>
      </g>
     </g>
     <g id="text_10">
      <!-- 6 -->
      <g transform="translate(44.2375 159.875195) scale(0.1 -0.1)">
       <defs>
        <path id="DejaVuSans-36" d="M 2113 2584 
Q 1688 2584 1439 2293 
Q 1191 2003 1191 1497 
Q 1191 994 1439 701 
Q 1688 409 2113 409 
Q 2538 409 2786 701 
Q 3034 994 3034 1497 
Q 3034 2003 2786 2293 
Q 2538 2584 2113 2584 
z
M 3366 4563 
L 3366 3988 
Q 3128 4100 2886 4159 
Q 2644 4219 2406 4219 
Q 1781 4219 1451 3797 
Q 1122 3375 1075 2522 
Q 1259 2794 1537 2939 
Q 1816 3084 2150 3084 
Q 2853 3084 3261 2657 
Q 3669 2231 3669 1497 
Q 3669 778 3244 343 
Q 2819 -91 2113 -91 
Q 1303 -91 875 529 
Q 447 1150 447 2328 
Q 447 3434 972 4092 
Q 1497 4750 2381 4750 
Q 2619 4750 2861 4703 
Q 3103 4656 3366 4563 
z
" transform="scale(0.015625)"/>
       </defs>
       <use xlink:href="#DejaVuSans-36"/>
      </g>
     </g>
    </g>
    <g id="ytick_4">
     <g id="line2d_19">
      <path d="M 57.6 105.172787 
L 414.72 105.172787 
" clip-path="url(#pf3e6f95bfd)" style="fill: none; stroke: #b0b0b0; stroke-width: 0.8; stroke-linecap: square"/>
     </g>
     <g id="line2d_20">
      <g>
       <use xlink:href="#m49fa84beb3" x="57.6" y="105.172787" style="stroke: #000000; stroke-width: 0.8"/>
      </g>
     </g>
     <g id="text_11">
      <!-- 7 -->
      <g transform="translate(44.2375 108.972006) scale(0.1 -0.1)">
       <defs>
        <path id="DejaVuSans-37" d="M 525 4666 
L 3525 4666 
L 3525 4397 
L 1831 0 
L 1172 0 
L 2766 4134 
L 525 4134 
L 525 4666 
z
" transform="scale(0.015625)"/>
       </defs>
       <use xlink:href="#DejaVuSans-37"/>
      </g>
     </g>
    </g>
    <g id="ytick_5">
     <g id="line2d_21">
      <path d="M 57.6 54.269599 
L 414.72 54.269599 
" clip-path="url(#pf3e6f95bfd)" style="fill: none; stroke: #b0b0b0; stroke-width: 0.8; stroke-linecap: square"/>
     </g>
     <g id="line2d_22">
      <g>
       <use xlink:href="#m49fa84beb3" x="57.6" y="54.269599" style="stroke: #000000; stroke-width: 0.8"/>
      </g>
     </g>
     <g id="text_12">
      <!-- 8 -->
      <g transform="translate(44.2375 58.068817) scale(0.1 -0.1)">
       <defs>
        <path id="DejaVuSans-38" d="M 2034 2216 
Q 1584 2216 1326 1975 
Q 1069 1734 1069 1313 
Q 1069 891 1326 650 
Q 1584 409 2034 409 
Q 2484 409 2743 651 
Q 3003 894 3003 1313 
Q 3003 1734 2745 1975 
Q 2488 2216 2034 2216 
z
M 1403 2484 
Q 997 2584 770 2862 
Q 544 3141 544 3541 
Q 544 4100 942 4425 
Q 1341 4750 2034 4750 
Q 2731 4750 3128 4425 
Q 3525 4100 3525 3541 
Q 3525 3141 3298 2862 
Q 3072 2584 2669 2484 
Q 3125 2378 3379 2068 
Q 3634 1759 3634 1313 
Q 3634 634 3220 271 
Q 2806 -91 2034 -91 
Q 1263 -91 848 271 
Q 434 634 434 1313 
Q 434 1759 690 2068 
Q 947 2378 1403 2484 
z
M 1172 3481 
Q 1172 3119 1398 2916 
Q 1625 2713 2034 2713 
Q 2441 2713 2670 2916 
Q 2900 3119 2900 3481 
Q 2900 3844 2670 4047 
Q 2441 4250 2034 4250 
Q 1625 4250 1398 4047 
Q 1172 3844 1172 3481 
z
" transform="scale(0.015625)"/>
       </defs>
       <use xlink:href="#DejaVuSans-38"/>
      </g>
     </g>
    </g>
    <g id="text_13">
     <!-- Velocity(m/s) -->
     <g transform="translate(38.157812 207.204563) rotate(-90) scale(0.1 -0.1)">
      <defs>
       <path id="DejaVuSans-56" d="M 1831 0 
L 50 4666 
L 709 4666 
L 2188 738 
L 3669 4666 
L 4325 4666 
L 2547 0 
L 1831 0 
z
" transform="scale(0.015625)"/>
       <path id="DejaVuSans-6c" d="M 603 4863 
L 1178 4863 
L 1178 0 
L 603 0 
L 603 4863 
z
" transform="scale(0.015625)"/>
       <path id="DejaVuSans-6f" d="M 1959 3097 
Q 1497 3097 1228 2736 
Q 959 2375 959 1747 
Q 959 1119 1226 758 
Q 1494 397 1959 397 
Q 2419 397 2687 759 
Q 2956 1122 2956 1747 
Q 2956 2369 2687 2733 
Q 2419 3097 1959 3097 
z
M 1959 3584 
Q 2709 3584 3137 3096 
Q 3566 2609 3566 1747 
Q 3566 888 3137 398 
Q 2709 -91 1959 -91 
Q 1206 -91 779 398 
Q 353 888 353 1747 
Q 353 2609 779 3096 
Q 1206 3584 1959 3584 
z
" transform="scale(0.015625)"/>
       <path id="DejaVuSans-63" d="M 3122 3366 
L 3122 2828 
Q 2878 2963 2633 3030 
Q 2388 3097 2138 3097 
Q 1578 3097 1268 2742 
Q 959 2388 959 1747 
Q 959 1106 1268 751 
Q 1578 397 2138 397 
Q 2388 397 2633 464 
Q 2878 531 3122 666 
L 3122 134 
Q 2881 22 2623 -34 
Q 2366 -91 2075 -91 
Q 1284 -91 818 406 
Q 353 903 353 1747 
Q 353 2603 823 3093 
Q 1294 3584 2113 3584 
Q 2378 3584 2631 3529 
Q 2884 3475 3122 3366 
z
" transform="scale(0.015625)"/>
       <path id="DejaVuSans-74" d="M 1172 4494 
L 1172 3500 
L 2356 3500 
L 2356 3053 
L 1172 3053 
L 1172 1153 
Q 1172 725 1289 603 
Q 1406 481 1766 481 
L 2356 481 
L 2356 0 
L 1766 0 
Q 1100 0 847 248 
Q 594 497 594 1153 
L 594 3053 
L 172 3053 
L 172 3500 
L 594 3500 
L 594 4494 
L 1172 4494 
z
" transform="scale(0.015625)"/>
       <path id="DejaVuSans-79" d="M 2059 -325 
Q 1816 -950 1584 -1140 
Q 1353 -1331 966 -1331 
L 506 -1331 
L 506 -850 
L 844 -850 
Q 1081 -850 1212 -737 
Q 1344 -625 1503 -206 
L 1606 56 
L 191 3500 
L 800 3500 
L 1894 763 
L 2988 3500 
L 3597 3500 
L 2059 -325 
z
" transform="scale(0.015625)"/>
       <path id="DejaVuSans-2f" d="M 1625 4666 
L 2156 4666 
L 531 -594 
L 0 -594 
L 1625 4666 
z
" transform="scale(0.015625)"/>
      </defs>
      <use xlink:href="#DejaVuSans-56"/>
      <use xlink:href="#DejaVuSans-65" x="60.658203"/>
      <use xlink:href="#DejaVuSans-6c" x="122.181641"/>
      <use xlink:href="#DejaVuSans-6f" x="149.964844"/>
      <use xlink:href="#DejaVuSans-63" x="211.146484"/>
      <use xlink:href="#DejaVuSans-69" x="266.126953"/>
      <use xlink:href="#DejaVuSans-74" x="293.910156"/>
      <use xlink:href="#DejaVuSans-79" x="333.119141"/>
      <use xlink:href="#DejaVuSans-28" x="392.298828"/>
      <use xlink:href="#DejaVuSans-6d" x="431.3125"/>
      <use xlink:href="#DejaVuSans-2f" x="528.724609"/>
      <use xlink:href="#DejaVuSans-73" x="562.416016"/>
      <use xlink:href="#DejaVuSans-29" x="614.515625"/>
     </g>
    </g>
   </g>
   <g id="line2d_23">
    <path d="M 73.832727 54.724368 
L 75.69188 54.466747 
L 75.69188 54.466747 
L 76.85385 54.394464 
L 76.85385 54.394464 
L 77.783427 54.349211 
L 77.783427 54.349211 
L 78.945397 54.282019 
L 78.945397 54.282019 
L 79.64258 54.416047 
L 79.64258 54.416047 
L 80.572156 54.329155 
L 80.572156 54.329155 
L 81.036944 54.418745 
L 81.036944 54.418745 
L 82.896097 54.282884 
L 82.896097 54.282884 
L 83.128491 54.403016 
L 83.128491 54.403016 
L 84.75525 54.319331 
L 84.75525 54.319331 
L 85.220038 54.353029 
L 85.220038 54.353029 
L 85.91722 54.51032 
L 85.91722 54.51032 
L 86.382008 54.485734 
L 86.382008 54.485734 
L 87.311585 54.479065 
L 87.311585 54.479065 
L 87.543979 54.460944 
L 87.543979 54.460944 
L 87.776373 55.316117 
L 87.776373 55.316117 
L 88.705949 63.064244 
L 88.705949 63.064244 
L 90.565102 82.240392 
L 90.565102 82.240392 
L 92.889043 106.565549 
L 92.889043 106.565549 
L 93.353831 110.749384 
L 93.353831 110.749384 
L 93.818619 115.178471 
L 93.818619 115.178471 
L 94.98059 123.567418 
L 94.98059 123.567418 
L 95.910166 128.115618 
L 95.910166 128.115618 
L 96.607348 130.233445 
L 96.607348 130.233445 
L 97.30453 131.689531 
L 97.30453 131.689531 
L 97.769319 132.084743 
L 97.769319 132.084743 
L 98.001713 132.439131 
L 98.001713 132.439131 
L 98.931289 132.770206 
L 98.931289 132.770206 
L 99.396077 132.865802 
L 99.396077 132.865802 
L 99.860865 132.857199 
L 99.860865 132.857199 
L 100.558048 132.701333 
L 100.558048 132.701333 
L 101.25523 132.328213 
L 101.25523 132.328213 
L 101.952412 131.503174 
L 101.952412 131.503174 
L 102.881989 128.972828 
L 102.881989 128.972828 
L 103.346777 127.204349 
L 103.346777 127.204349 
L 104.508747 120.045426 
L 104.508747 120.045426 
L 105.20593 113.931088 
L 105.20593 113.931088 
L 106.135506 103.616779 
L 106.135506 103.616779 
L 107.762265 81.28163 
L 107.762265 81.28163 
L 108.459447 74.4238 
L 108.459447 74.4238 
L 109.156629 69.320653 
L 109.156629 69.320653 
L 109.853811 65.57255 
L 109.853811 65.57255 
L 110.783388 61.943203 
L 110.783388 61.943203 
L 111.712964 59.459637 
L 111.712964 59.459637 
L 112.410146 58.13987 
L 112.410146 58.13987 
L 113.339723 56.922927 
L 113.339723 56.922927 
L 114.501693 55.934082 
L 114.501693 55.934082 
L 115.663664 55.248569 
L 115.663664 55.248569 
L 118.452393 54.557049 
L 118.452393 54.557049 
L 121.008728 54.376139 
L 121.008728 54.376139 
L 124.494639 54.258502 
L 124.494639 54.258502 
L 124.727033 54.910673 
L 124.727033 54.910673 
L 127.283368 54.504822 
L 127.283368 54.504822 
L 128.677733 54.330275 
L 128.677733 54.330275 
L 129.142521 54.320095 
L 129.142521 54.320095 
L 130.072097 54.3993 
L 130.072097 54.3993 
L 130.304491 54.565702 
L 130.304491 54.565702 
L 131.466462 54.436816 
L 131.466462 54.436816 
L 131.698856 55.960806 
L 131.698856 55.960806 
L 133.558009 92.298862 
L 133.558009 92.298862 
L 134.022797 103.081633 
L 134.022797 103.081633 
L 134.487585 112.694141 
L 134.487585 112.694141 
L 134.952373 122.24928 
L 134.952373 122.24928 
L 136.114344 141.271089 
L 136.114344 141.271089 
L 137.973496 164.19254 
L 137.973496 164.19254 
L 139.367861 176.308212 
L 139.367861 176.308212 
L 139.832649 179.014938 
L 139.832649 179.014938 
L 140.065043 181.008052 
L 140.297437 181.98351 
L 140.297437 181.98351 
L 140.762226 184.67634 
L 140.762226 184.67634 
L 141.691802 188.982291 
L 141.691802 188.982291 
L 143.086166 195.102891 
L 143.086166 195.102891 
L 143.318561 195.655648 
L 143.318561 195.655648 
L 143.783349 197.015578 
L 143.783349 197.015578 
L 144.480531 199.045597 
L 144.480531 199.045597 
L 144.712925 199.448445 
L 144.712925 199.448445 
L 144.945319 200.163584 
L 144.945319 200.163584 
L 145.874896 201.438811 
L 145.874896 201.438811 
L 146.10729 201.549016 
L 146.10729 201.549016 
L 146.339684 202.018191 
L 146.339684 202.018191 
L 146.804472 202.315873 
L 146.804472 202.315873 
L 147.734048 202.744885 
L 147.734048 202.744885 
L 150.057989 202.52198 
L 150.057989 202.52198 
L 150.522777 202.29546 
L 150.522777 202.29546 
L 151.452354 201.539497 
L 151.452354 201.539497 
L 152.38193 199.812708 
L 152.38193 199.812708 
L 153.311506 196.596339 
L 153.311506 196.596339 
L 154.241083 191.302051 
L 154.241083 191.302051 
L 155.170659 183.338248 
L 155.170659 183.338248 
L 155.867841 175.232271 
L 155.867841 175.232271 
L 156.565024 166.205965 
L 156.565024 166.205965 
L 157.029812 162.536863 
L 157.029812 162.536863 
L 157.4946 160.625092 
L 157.4946 160.625092 
L 157.959388 160.154034 
L 157.959388 160.154034 
L 158.191782 160.319317 
L 158.424176 160.69936 
L 158.424176 160.69936 
L 160.050935 166.781222 
L 160.050935 166.781222 
L 160.515723 167.606719 
L 160.515723 167.606719 
L 160.980511 168.120943 
L 160.980511 168.120943 
L 162.374876 168.635421 
L 162.374876 168.635421 
L 163.769241 168.320891 
L 163.769241 168.320891 
L 164.931211 167.166203 
L 164.931211 167.166203 
L 165.395999 166.414973 
L 165.395999 166.414973 
L 166.790364 161.878583 
L 166.790364 161.878583 
L 167.255152 159.420315 
L 167.255152 159.420315 
L 167.952334 155.261219 
L 167.952334 155.261219 
L 168.649516 149.822163 
L 168.649516 149.822163 
L 169.811487 138.392666 
L 169.811487 138.392666 
L 170.508669 129.625916 
L 170.508669 129.625916 
L 171.67064 114.543352 
L 171.67064 114.543352 
L 171.903034 112.767289 
L 171.903034 112.767289 
L 172.135428 111.849097 
L 172.135428 111.849097 
L 172.367822 112.627305 
L 172.367822 112.627305 
L 172.600216 113.009995 
L 172.600216 113.009995 
L 172.83261 115.493307 
L 172.83261 115.493307 
L 173.297398 125.083519 
L 173.297398 125.083519 
L 173.529792 129.843476 
L 173.529792 129.843476 
L 173.994581 141.61158 
L 173.994581 141.61158 
L 174.226975 146.901134 
L 174.226975 146.901134 
L 174.459369 154.861273 
L 174.459369 154.861273 
L 174.691763 158.808459 
L 174.691763 158.808459 
L 175.621339 180.672091 
L 175.621339 180.672091 
L 175.853733 184.029309 
L 175.853733 184.029309 
L 176.318522 193.062844 
L 176.318522 193.062844 
L 177.015704 205.698338 
L 177.015704 205.698338 
L 177.712886 215.702342 
L 177.712886 215.702342 
L 178.410068 226.423317 
L 178.410068 226.423317 
L 178.642462 228.617041 
L 178.642462 228.617041 
L 178.874857 232.627143 
L 178.874857 232.627143 
L 179.572039 238.74647 
L 179.572039 238.74647 
L 181.431192 255.344626 
L 181.431192 255.344626 
L 182.128374 260.104532 
L 182.128374 260.104532 
L 183.755132 266.499194 
L 183.755132 266.499194 
L 184.219921 267.786078 
L 184.219921 267.786078 
L 184.917103 269.212385 
L 184.917103 269.212385 
L 185.381891 269.665474 
L 185.381891 269.665474 
L 185.614285 269.660537 
L 185.614285 269.660537 
L 185.846679 270.053815 
L 185.846679 270.053815 
L 187.705832 270.093112 
L 187.705832 270.093112 
L 188.17062 270.108739 
L 188.17062 270.108739 
L 188.635408 269.981736 
L 188.635408 269.981736 
L 188.867802 270.050913 
L 188.867802 270.050913 
L 189.332591 269.882016 
L 189.332591 269.882016 
L 190.494561 268.782864 
L 190.494561 268.782864 
L 191.424137 266.539357 
L 191.424137 266.539357 
L 191.888926 265.05278 
L 191.888926 265.05278 
L 192.12132 264.253345 
L 192.586108 261.983419 
L 192.586108 261.983419 
L 193.050896 259.530089 
L 193.050896 259.530089 
L 193.28329 258.201313 
L 195.607231 237.763275 
L 195.607231 237.763275 
L 196.072019 236.769289 
L 196.072019 236.769289 
L 196.536807 240.629685 
L 196.536807 240.629685 
L 196.769202 245.48819 
L 196.769202 245.48819 
L 197.23399 250.202284 
L 197.23399 250.202284 
L 198.163566 263.465568 
L 198.163566 263.465568 
L 198.860748 271.137594 
L 198.860748 271.137594 
L 199.093142 274.7111 
L 199.093142 274.7111 
L 200.952295 288.043663 
L 200.952295 288.043663 
L 202.114266 292.144119 
L 202.114266 292.144119 
L 202.811448 293.758564 
L 202.811448 293.758564 
L 203.50863 294.548327 
L 203.50863 294.548327 
L 203.973418 295.018367 
L 203.973418 295.018367 
L 205.135389 295.220962 
L 205.135389 295.220962 
L 206.994542 294.748428 
L 206.994542 294.748428 
L 207.226936 294.63191 
L 207.226936 294.63191 
L 208.388906 293.109243 
L 208.388906 293.109243 
L 209.783271 289.162922 
L 209.783271 289.162922 
L 210.945241 283.590245 
L 210.945241 283.590245 
L 212.804394 267.057398 
L 212.804394 267.057398 
L 213.501576 257.128579 
L 213.501576 257.128579 
L 214.198758 250.827324 
L 214.198758 250.827324 
L 214.663547 249.105167 
L 214.663547 249.105167 
L 214.895941 249.230084 
L 214.895941 249.230084 
L 215.128335 249.171341 
L 215.128335 249.171341 
L 215.360729 251.985219 
L 215.360729 251.985219 
L 215.593123 252.884627 
L 215.593123 252.884627 
L 215.825517 254.250971 
L 215.825517 254.250971 
L 216.522699 260.662991 
L 216.522699 260.662991 
L 216.987487 263.235383 
L 216.987487 263.235383 
L 217.68467 268.278006 
L 217.68467 268.278006 
L 219.079034 274.212707 
L 219.079034 274.212707 
L 220.008611 276.661252 
L 220.008611 276.661252 
L 221.402975 278.483026 
L 221.402975 278.483026 
L 222.100157 278.855892 
L 222.100157 278.855892 
L 224.888887 278.733826 
L 224.888887 278.733826 
L 226.515645 277.401435 
L 226.515645 277.401435 
L 226.980433 276.667055 
L 226.980433 276.667055 
L 227.445222 275.903507 
L 227.445222 275.903507 
L 228.142404 274.204104 
L 228.142404 274.204104 
L 228.839586 272.19241 
L 228.839586 272.19241 
L 229.304374 270.39059 
L 229.304374 270.39059 
L 230.233951 266.57112 
L 230.233951 266.57112 
L 232.557892 252.391528 
L 232.557892 252.391528 
L 234.649438 235.329135 
L 234.649438 235.329135 
L 237.438168 203.465877 
L 237.438168 203.465877 
L 238.600138 186.979047 
L 238.600138 186.979047 
L 239.994503 164.471286 
L 239.994503 164.471286 
L 242.086049 128.643128 
L 242.086049 128.643128 
L 244.642384 85.792467 
L 244.642384 85.792467 
L 245.339567 77.793795 
L 245.339567 77.793795 
L 246.269143 70.16753 
L 246.269143 70.16753 
L 246.966325 66.191889 
L 246.966325 66.191889 
L 247.663508 63.198069 
L 247.663508 63.198069 
L 248.36069 60.907527 
L 248.36069 60.907527 
L 249.057872 59.219323 
L 249.057872 59.219323 
L 249.987448 57.59994 
L 249.987448 57.59994 
L 251.381813 56.092696 
L 251.381813 56.092696 
L 252.776178 55.295094 
L 252.776178 55.295094 
L 254.63533 54.81523 
L 254.63533 54.81523 
L 256.029695 54.613602 
L 256.029695 54.613602 
L 256.726877 54.478862 
L 256.726877 54.478862 
L 257.191665 54.517548 
L 257.191665 54.517548 
L 260.212788 54.337147 
L 260.212788 54.337147 
L 260.677577 54.459162 
L 260.677577 54.459162 
L 261.839547 54.292861 
L 261.839547 54.292861 
L 262.536729 54.27927 
L 262.536729 54.27927 
L 262.769123 54.251223 
L 262.769123 54.251223 
L 263.001518 55.37094 
L 263.001518 55.37094 
L 263.931094 55.010596 
L 263.931094 55.010596 
L 266.719823 54.414927 
L 266.719823 54.414927 
L 269.043764 54.331904 
L 269.043764 54.331904 
L 269.508552 54.38693 
L 269.508552 54.38693 
L 270.902917 54.406121 
L 270.902917 54.406121 
L 273.226858 54.315462 
L 273.226858 54.315462 
L 273.459252 54.452494 
L 273.459252 54.452494 
L 274.853616 54.322843 
L 274.853616 54.322843 
L 275.783193 54.343765 
L 275.783193 54.343765 
L 276.945163 54.353131 
L 276.945163 54.353131 
L 277.874739 54.385302 
L 277.874739 54.385302 
L 278.339528 54.325338 
L 278.339528 54.325338 
L 278.571922 54.436052 
L 278.571922 54.436052 
L 280.431074 54.384487 
L 280.431074 54.384487 
L 281.593045 54.322487 
L 281.593045 54.322487 
L 282.290227 54.253971 
L 282.290227 54.253971 
L 282.522621 54.784586 
L 282.522621 54.784586 
L 282.755015 54.711133 
L 282.755015 54.711133 
L 282.987409 55.395984 
L 282.987409 55.395984 
L 283.916986 68.779502 
L 283.916986 68.779502 
L 284.381774 77.758671 
L 284.381774 77.758671 
L 285.543744 94.341301 
L 285.543744 94.341301 
L 286.240927 101.037921 
L 286.240927 101.037921 
L 286.938109 104.843953 
L 286.938109 104.843953 
L 287.402897 106.098818 
L 287.402897 106.098818 
L 287.635291 106.228876 
L 287.635291 106.228876 
L 287.867685 106.595888 
L 287.867685 106.595888 
L 288.100079 106.643482 
L 288.100079 106.643482 
L 288.332473 106.89754 
L 288.332473 106.89754 
L 288.797262 106.907822 
L 288.797262 106.907822 
L 289.029656 106.816146 
L 289.029656 106.816146 
L 289.726838 106.083038 
L 289.726838 106.083038 
L 290.656414 103.449002 
L 290.656414 103.449002 
L 291.121203 101.545986 
L 291.121203 101.545986 
L 292.050779 95.396015 
L 292.050779 95.396015 
L 294.607114 70.614358 
L 294.607114 70.614358 
L 295.304296 66.517262 
L 295.304296 66.517262 
L 296.001478 63.413746 
L 296.001478 63.413746 
L 296.466267 61.841295 
L 296.466267 61.841295 
L 296.698661 61.385763 
L 296.698661 61.385763 
L 296.931055 61.384999 
L 296.931055 61.384999 
L 297.395843 64.011705 
L 297.395843 64.011705 
L 297.628237 65.425389 
L 297.628237 65.425389 
L 299.48739 85.866226 
L 299.48739 85.866226 
L 304.832454 151.784481 
L 304.832454 151.784481 
L 305.297242 155.983027 
L 305.297242 155.983027 
L 305.76203 160.7016 
L 305.76203 160.7016 
L 306.226819 164.545045 
L 306.226819 164.545045 
L 307.388789 172.424044 
L 307.388789 172.424044 
L 307.853577 174.86363 
L 307.853577 174.86363 
L 308.783154 178.806795 
L 308.783154 178.806795 
L 309.480336 180.704058 
L 309.480336 180.704058 
L 309.71273 181.279061 
L 309.71273 181.279061 
L 309.945124 181.483946 
L 309.945124 181.483946 
L 310.177518 182.031715 
L 310.177518 182.031715 
L 310.8747 182.432171 
L 310.8747 182.432171 
L 311.107094 182.602544 
L 311.107094 182.602544 
L 311.339489 182.576736 
L 311.571883 182.742171 
L 311.571883 182.742171 
L 312.269065 182.750672 
L 312.269065 182.750672 
L 312.501459 182.627385 
L 312.733853 182.661642 
L 312.733853 182.661642 
L 313.895824 182.191806 
L 313.895824 182.191806 
L 314.360612 181.727162 
L 314.360612 181.727162 
L 315.754976 178.21871 
L 315.754976 178.21871 
L 316.452159 175.494524 
L 316.452159 175.494524 
L 318.078917 164.962196 
L 318.078917 164.962196 
L 320.170464 142.603582 
L 320.170464 142.603582 
L 321.10004 129.189879 
L 321.10004 129.189879 
L 322.262011 110.517164 
L 322.262011 110.517164 
L 323.656375 86.500021 
L 323.656375 86.500021 
L 324.353558 78.373633 
L 324.353558 78.373633 
L 325.05074 72.257208 
L 325.05074 72.257208 
L 325.747922 67.723668 
L 325.747922 67.723668 
L 326.445104 64.366755 
L 326.445104 64.366755 
L 327.142287 61.806019 
L 327.142287 61.806019 
L 328.071863 59.387202 
L 328.071863 59.387202 
L 329.001439 57.688511 
L 329.001439 57.688511 
L 329.931016 56.630743 
L 329.931016 56.630743 
L 330.395804 56.207687 
L 330.395804 56.207687 
L 331.32538 55.677021 
L 331.32538 55.677021 
L 331.557774 56.52008 
L 331.557774 56.52008 
L 331.790169 58.496701 
L 331.790169 58.496701 
L 332.254957 63.773478 
L 332.254957 63.773478 
L 332.719745 70.148543 
L 332.719745 70.148543 
L 333.184533 79.297322 
L 333.184533 79.297322 
L 333.649321 89.099036 
L 333.649321 89.099036 
L 334.114109 100.667804 
L 334.114109 100.667804 
L 335.27608 123.664745 
L 335.27608 123.664745 
L 336.43805 138.663573 
L 336.43805 138.663573 
L 336.902839 142.65927 
L 336.902839 142.65927 
L 337.600021 147.229002 
L 337.600021 147.229002 
L 338.297203 149.987089 
L 338.297203 149.987089 
L 338.761991 151.141421 
L 338.761991 151.141421 
L 339.459174 151.91912 
L 339.459174 151.91912 
L 339.691568 152.039964 
L 339.691568 152.039964 
L 340.156356 152.392418 
L 340.156356 152.392418 
L 340.621144 152.365642 
L 340.621144 152.365642 
L 340.853538 152.466482 
L 340.853538 152.466482 
L 341.783114 152.25732 
L 341.783114 152.25732 
L 342.015509 152.218176 
L 342.015509 152.218176 
L 342.945085 151.505226 
L 342.945085 151.505226 
L 343.177479 151.268119 
L 343.177479 151.268119 
L 344.339449 149.208678 
L 344.339449 149.208678 
L 345.50142 145.798062 
L 345.50142 145.798062 
L 345.966208 145.132401 
L 345.966208 145.132401 
L 346.198602 145.029068 
L 346.198602 145.029068 
L 346.430996 146.440664 
L 346.430996 146.440664 
L 346.66339 146.970566 
L 346.66339 146.970566 
L 347.360573 152.794095 
L 347.360573 152.794095 
L 348.057755 163.851387 
L 348.057755 163.851387 
L 348.522543 171.274345 
L 348.522543 171.274345 
L 348.754937 179.333388 
L 348.754937 179.333388 
L 348.987331 183.159628 
L 348.987331 183.159628 
L 349.452119 194.283502 
L 349.452119 194.283502 
L 350.149302 210.423325 
L 350.149302 210.423325 
L 350.381696 214.029612 
L 350.381696 214.029612 
L 351.078878 227.930357 
L 351.078878 227.930357 
L 351.311272 230.774064 
L 351.311272 230.774064 
L 351.543666 235.541707 
L 351.543666 235.541707 
L 351.77606 237.926776 
L 351.77606 237.926776 
L 352.008454 242.484189 
L 352.008454 242.484189 
L 352.938031 251.8658 
L 352.938031 251.8658 
L 353.170425 255.24231 
L 354.100001 262.935258 
L 354.100001 262.935258 
L 354.564789 266.937318 
L 354.564789 266.937318 
L 355.959154 275.707225 
L 355.959154 275.707225 
L 356.656336 279.226976 
L 356.656336 279.226976 
L 358.050701 282.819622 
L 358.050701 282.819622 
L 358.980277 283.58546 
L 358.980277 283.58546 
L 360.142248 283.745143 
L 360.142248 283.745143 
L 362.0014 283.412389 
L 362.0014 283.412389 
L 362.233794 283.289611 
L 363.395765 281.804968 
L 363.395765 281.804968 
L 364.557735 278.777959 
L 364.557735 278.777959 
L 366.416888 270.246738 
L 366.416888 270.246738 
L 367.811253 261.048786 
L 367.811253 261.048786 
L 368.276041 257.324098 
L 368.276041 257.324098 
L 369.205617 249.835272 
L 369.205617 249.835272 
L 370.135194 241.131946 
L 370.135194 241.131946 
L 370.832376 234.163402 
L 370.832376 234.163402 
L 371.761952 224.192129 
L 371.761952 224.192129 
L 373.388711 207.397182 
L 373.388711 207.397182 
L 374.085893 203.36794 
L 374.085893 203.36794 
L 374.550681 201.75945 
L 374.550681 201.75945 
L 375.01547 200.77544 
L 375.01547 200.77544 
L 375.480258 200.146939 
L 375.480258 200.146939 
L 375.945046 199.72546 
L 375.945046 199.72546 
L 376.874622 199.22101 
L 376.874622 199.22101 
L 378.036593 198.729387 
L 378.036593 198.729387 
L 378.501381 198.545626 
L 378.501381 198.545626 
L 378.733775 198.421829 
L 379.663351 197.176076 
L 379.663351 197.176076 
L 380.592928 194.710936 
L 380.592928 194.710936 
L 381.29011 191.764201 
L 381.29011 191.764201 
L 381.987292 187.885938 
L 381.987292 187.885938 
L 382.45208 184.123327 
L 382.45208 184.123327 
L 382.916869 179.910121 
L 382.916869 179.910121 
L 383.614051 172.754507 
L 383.614051 172.754507 
L 384.543627 160.3381 
L 384.543627 160.3381 
L 385.24081 149.393405 
L 385.24081 149.393405 
L 385.937992 136.487309 
L 385.937992 136.487309 
L 388.494327 87.342571 
L 388.494327 87.342571 
L 389.191509 78.980246 
L 389.191509 78.980246 
L 389.888691 72.677362 
L 389.888691 72.677362 
L 390.585874 68.024964 
L 390.585874 68.024964 
L 391.283056 64.510149 
L 391.283056 64.510149 
L 392.212632 61.209179 
L 392.212632 61.209179 
L 392.909815 59.444213 
L 392.909815 59.444213 
L 393.606997 58.135747 
L 393.606997 58.135747 
L 394.304179 57.217657 
L 394.304179 57.217657 
L 395.001361 56.497784 
L 395.001361 56.497784 
L 396.395726 55.539735 
L 396.395726 55.539735 
L 397.79009 54.958879 
L 397.79009 54.958879 
L 398.487273 54.765141 
L 398.487273 54.765141 
" clip-path="url(#pf3e6f95bfd)" style="fill: none; stroke: #1f77b4; stroke-width: 1.5; stroke-linecap: square"/>
   </g>
   <g id="line2d_24">
    <path d="M 73.832727 54.523555 
L 73.832727 54.361479 
L 74.065121 54.484868 
L 74.065121 54.366569 
L 74.297515 54.268428 
L 74.297515 54.478862 
L 74.52991 54.214725 
L 74.52991 54.239209 
L 74.762304 54.440023 
L 74.762304 54.250255 
L 74.994698 54.308031 
L 74.994698 54.118263 
L 75.227092 53.851225 
L 75.227092 54.232439 
L 75.69188 54.068277 
L 75.924274 54.381484 
L 75.924274 53.846033 
L 76.156668 54.361683 
L 76.156668 54.134145 
L 76.85385 54.438241 
L 76.85385 54.591867 
L 77.318639 54.127121 
L 77.318639 54.754604 
L 77.551033 54.046134 
L 77.551033 54.107065 
L 77.783427 54.098615 
L 77.783427 54.25275 
L 78.015821 54.22516 
L 78.015821 54.576443 
L 78.248215 53.959293 
L 78.248215 54.28151 
L 78.480609 54.350637 
L 78.480609 54.218492 
L 78.713003 54.042469 
L 78.713003 54.41055 
L 78.945397 54.506909 
L 78.945397 54.246081 
L 79.177791 54.528696 
L 79.177791 54.191819 
L 79.410185 54.400064 
L 79.410185 53.914243 
L 79.64258 53.984235 
L 79.64258 54.215081 
L 79.874974 54.322334 
L 79.874974 54.256822 
L 80.339762 54.099887 
L 80.339762 54.280594 
L 80.572156 54.56331 
L 80.80455 54.453206 
L 80.80455 54.052547 
L 81.036944 54.157001 
L 81.036944 54.430453 
L 81.269338 54.280288 
L 81.269338 54.506197 
L 81.501732 53.992278 
L 81.501732 54.650609 
L 81.734126 54.25331 
L 81.734126 54.417676 
L 81.96652 54.0358 
L 82.198915 54.308794 
L 82.663703 54.156848 
L 82.663703 54.384487 
L 82.896097 54.631928 
L 82.896097 54.294134 
L 83.128491 54.061659 
L 83.360885 54.422461 
L 83.360885 54.404034 
L 83.593279 54.345801 
L 83.593279 53.999048 
L 83.825673 54.075607 
L 83.825673 53.839569 
L 84.058067 54.071229 
L 84.058067 54.001746 
L 84.290461 54.005513 
L 84.290461 54.477894 
L 84.522855 54.352011 
L 84.522855 54.603524 
L 84.75525 54.132516 
L 84.987644 54.430351 
L 84.987644 54.67377 
L 85.220038 54.540607 
L 85.220038 54.381433 
L 85.684826 54.621187 
L 85.684826 54.131906 
L 85.91722 54.045726 
L 85.91722 54.447862 
L 86.382008 54.538011 
L 86.382008 54.269751 
L 86.614402 54.271126 
L 86.614402 54.034935 
L 87.07919 54.495303 
L 87.07919 54.299733 
L 87.311585 54.283953 
L 87.311585 54.446589 
L 87.776373 60.62756 
L 88.008767 64.41379 
L 88.008767 64.342627 
L 88.241161 63.910815 
L 88.241161 64.166757 
L 88.705949 69.76794 
L 88.938343 73.784354 
L 89.170737 74.431079 
L 89.170737 74.001456 
L 89.635525 79.770315 
L 89.635525 79.582075 
L 89.86792 83.149065 
L 90.100314 83.777363 
L 90.100314 83.736946 
L 90.797496 93.738149 
L 90.797496 93.06353 
L 91.02989 94.156625 
L 91.262284 96.609089 
L 91.727072 103.618306 
L 91.959466 103.729733 
L 91.959466 103.44554 
L 92.656649 110.401003 
L 92.889043 112.327943 
L 93.353831 118.800742 
L 93.353831 118.479492 
L 93.586225 118.336301 
L 93.586225 118.125867 
L 94.051013 122.761468 
L 94.283407 123.288469 
L 94.283407 122.96844 
L 94.515801 124.654048 
L 94.748195 127.209847 
L 94.98059 127.157722 
L 94.98059 126.873478 
L 95.445378 129.914435 
L 95.677772 129.665315 
L 95.677772 129.850144 
L 95.910166 130.56401 
L 96.14256 131.466219 
L 96.14256 132.038523 
L 96.374954 131.081187 
L 96.374954 131.159781 
L 96.839742 132.444934 
L 97.072136 132.340277 
L 97.30453 132.137173 
L 97.30453 132.797286 
L 97.536925 132.544094 
L 97.536925 132.717572 
L 97.769319 133.11426 
L 97.769319 133.050733 
L 98.001713 132.658982 
L 98.234107 132.792857 
L 98.234107 133.207515 
L 98.466501 132.651754 
L 98.698895 132.999575 
L 98.698895 132.856334 
L 98.931289 132.99591 
L 98.931289 132.953304 
L 99.163683 132.899805 
L 99.163683 132.518896 
L 99.396077 132.260512 
L 99.396077 132.788683 
L 99.628471 132.947909 
L 99.628471 132.705915 
L 99.860865 132.374077 
L 100.09326 131.958656 
L 100.325654 132.27843 
L 100.325654 132.741547 
L 100.558048 131.660821 
L 100.558048 131.768685 
L 100.790442 131.610834 
L 100.790442 131.66861 
L 101.25523 129.028974 
L 101.487624 129.722173 
L 101.487624 129.113219 
L 101.720018 128.194365 
L 101.952412 125.376365 
L 101.952412 125.583032 
L 102.184806 125.852818 
L 102.184806 125.774224 
L 102.4172 123.740285 
L 102.649595 119.80216 
L 102.881989 120.81549 
L 103.114383 117.629307 
L 103.114383 117.767763 
L 103.346777 112.498112 
L 103.346777 112.622927 
L 103.579171 114.08955 
L 103.579171 113.762395 
L 103.811565 109.905664 
L 104.043959 103.261423 
L 104.276353 105.380167 
L 104.741141 93.334844 
L 104.741141 93.410435 
L 104.973535 94.907243 
L 105.438324 80.756717 
L 105.438324 81.001917 
L 105.670718 82.535223 
L 105.670718 82.52545 
L 105.903112 77.151345 
L 105.903112 77.301052 
L 106.135506 67.729878 
L 106.3679 68.265888 
L 106.600294 62.902983 
L 106.832688 54.616707 
L 106.832688 54.711337 
L 107.065082 54.219866 
L 107.065082 54.356236 
L 107.297476 54.276318 
L 107.297476 54.498307 
L 107.529871 54.295814 
L 107.529871 54.466289 
L 107.762265 54.31984 
L 107.762265 54.60673 
L 107.994659 54.110424 
L 107.994659 54.418134 
L 108.227053 54.250154 
L 108.227053 54.753128 
L 108.459447 54.139185 
L 108.459447 54.574051 
L 108.691841 54.05494 
L 108.691841 54.210602 
L 108.924235 54.626837 
L 108.924235 54.506197 
L 109.156629 54.444197 
L 109.156629 54.288942 
L 109.389023 54.533837 
L 109.389023 54.266799 
L 109.621417 54.605458 
L 109.621417 54.353436 
L 109.853811 54.462624 
L 109.853811 54.152318 
L 110.086206 54.356439 
L 110.086206 53.938117 
L 110.3186 54.347786 
L 110.3186 54.246132 
L 110.550994 54.129106 
L 110.783388 54.346208 
L 110.783388 54.037073 
L 111.015782 54.378379 
L 111.015782 54.046999 
L 111.248176 54.289909 
L 111.248176 54.132109 
L 111.48057 54.031881 
L 111.48057 54.456413 
L 111.712964 53.990293 
L 111.712964 54.299581 
L 111.945358 54.156034 
L 111.945358 54.266137 
L 112.177752 54.556184 
L 112.177752 54.192989 
L 112.410146 54.435238 
L 112.410146 54.173137 
L 112.642541 54.35084 
L 112.642541 54.30009 
L 112.874935 54.686089 
L 112.874935 54.545443 
L 113.107329 54.048475 
L 113.107329 54.144682 
L 113.339723 54.533735 
L 113.339723 54.477335 
L 113.572117 54.638647 
L 113.572117 53.927224 
L 113.804511 54.589322 
L 114.036905 54.411975 
L 114.036905 53.644711 
L 114.269299 53.978992 
L 114.269299 54.196044 
L 114.501693 54.186525 
L 114.501693 54.034884 
L 114.734087 54.297595 
L 114.734087 54.002306 
L 114.966481 54.198334 
L 114.966481 54.389577 
L 115.198876 54.153081 
L 115.198876 54.771453 
L 115.43127 53.999557 
L 115.43127 54.264966 
L 115.663664 54.533023 
L 115.663664 54.201337 
L 115.896058 54.334042 
L 115.896058 54.695964 
L 116.360846 54.123303 
L 116.360846 54.592528 
L 116.59324 54.168963 
L 116.59324 54.224753 
L 116.825634 54.355371 
L 117.290422 53.9259 
L 117.290422 54.007447 
L 117.522816 54.052446 
L 117.522816 54.636051 
L 117.755211 54.154965 
L 117.755211 54.361123 
L 117.987605 54.460587 
L 117.987605 54.181282 
L 118.219999 54.446233 
L 118.219999 54.28487 
L 118.452393 54.279219 
L 118.452393 54.145497 
L 118.684787 54.042316 
L 118.684787 54.642821 
L 118.917181 54.387541 
L 118.917181 54.9516 
L 119.149575 53.960514 
L 119.149575 54.223786 
L 119.381969 54.115158 
L 119.381969 53.964587 
L 119.614363 54.394362 
L 119.614363 54.148907 
L 119.846757 54.547734 
L 119.846757 54.057485 
L 120.079151 54.420068 
L 120.079151 54.40322 
L 120.311546 54.086093 
L 120.311546 54.581024 
L 120.54394 54.102636 
L 120.54394 54.255906 
L 121.008728 54.363464 
L 121.008728 54.485581 
L 121.241122 54.261963 
L 121.241122 54.823222 
L 121.473516 54.284971 
L 121.70591 54.427602 
L 121.70591 54.284259 
L 121.938304 54.078712 
L 121.938304 54.282884 
L 122.170698 54.445673 
L 122.170698 54.702785 
L 122.403092 54.477844 
L 122.403092 54.041705 
L 122.635486 54.265119 
L 122.635486 54.165043 
L 122.867881 53.882938 
L 122.867881 53.988104 
L 123.100275 54.321265 
L 123.332669 54.354403 
L 123.332669 54.137556 
L 123.565063 54.112868 
L 123.565063 54.273264 
L 123.797457 54.389577 
L 123.797457 54.191869 
L 124.029851 54.13384 
L 124.029851 54.579395 
L 124.262245 53.568 
L 124.262245 53.98902 
L 124.494639 56.153118 
L 124.494639 56.107815 
L 124.727033 54.114344 
L 124.959427 54.449491 
L 124.959427 54.189579 
L 125.191821 54.602455 
L 125.191821 54.126357 
L 125.424216 54.23249 
L 125.65661 54.062321 
L 125.65661 54.219103 
L 125.889004 53.993042 
L 125.889004 54.220935 
L 126.121398 54.304875 
L 126.121398 53.988511 
L 126.586186 54.624954 
L 126.586186 54.62363 
L 126.81858 54.186423 
L 126.81858 54.249594 
L 127.050974 54.08538 
L 127.050974 54.402507 
L 127.283368 54.028674 
L 127.283368 54.332719 
L 127.515762 54.172374 
L 127.515762 53.849851 
L 127.748156 54.051682 
L 127.980551 53.979807 
L 127.980551 54.279321 
L 128.212945 54.285073 
L 128.212945 54.272398 
L 128.445339 54.159291 
L 128.445339 54.024143 
L 128.677733 54.42806 
L 128.677733 54.231116 
L 128.910127 53.89149 
L 128.910127 53.999048 
L 129.374915 54.476622 
L 129.607309 54.497645 
L 129.607309 54.226331 
L 129.839703 54.389527 
L 129.839703 54.574203 
L 130.072097 54.882728 
L 130.072097 54.247863 
L 130.304491 54.207853 
L 130.304491 54.504619 
L 130.536886 54.247965 
L 130.536886 54.423734 
L 130.76928 53.900449 
L 130.76928 54.181536 
L 131.001674 54.416811 
L 131.001674 54.078304 
L 131.234068 54.339285 
L 131.234068 54.250663 
L 131.466462 59.155338 
L 131.698856 68.481311 
L 131.698856 68.38999 
L 131.93125 68.026745 
L 131.93125 68.202718 
L 132.860826 90.829032 
L 132.860826 90.720812 
L 133.325615 102.271255 
L 133.325615 102.020709 
L 133.558009 110.772189 
L 133.558009 110.763943 
L 133.790403 111.509369 
L 133.790403 111.080917 
L 134.022797 115.680223 
L 134.022797 115.465717 
L 134.487585 130.643063 
L 134.487585 130.388343 
L 134.719979 128.659162 
L 135.184767 141.489005 
L 135.417161 139.781713 
L 135.649556 145.20672 
L 135.649556 144.756328 
L 136.114344 149.997881 
L 136.114344 149.518373 
L 136.346738 155.551978 
L 136.346738 155.232815 
L 136.579132 155.878217 
L 136.579132 155.795652 
L 136.811526 159.374706 
L 136.811526 158.897947 
L 137.04392 164.700503 
L 137.04392 164.238353 
L 137.276314 163.698118 
L 137.276314 163.879537 
L 137.508708 167.244085 
L 137.741102 167.914021 
L 137.741102 167.906742 
L 137.973496 170.445742 
L 138.205891 175.028506 
L 138.205891 174.955103 
L 138.438285 173.447147 
L 138.670679 177.097211 
L 138.903073 177.327752 
L 138.903073 177.061121 
L 139.135467 179.77645 
L 139.135467 179.629899 
L 139.367861 180.116279 
L 139.367861 179.765709 
L 139.600255 181.674273 
L 139.600255 181.443376 
L 139.832649 184.805125 
L 139.832649 184.664377 
L 140.065043 183.841833 
L 140.065043 184.198308 
L 140.297437 187.088438 
L 140.297437 186.557569 
L 140.529831 186.458664 
L 140.529831 186.501321 
L 140.762226 188.41411 
L 140.99462 188.76972 
L 141.227014 190.525778 
L 141.227014 190.456091 
L 141.459408 190.633387 
L 141.459408 190.537485 
L 141.691802 192.196828 
L 141.691802 191.953816 
L 141.924196 192.592396 
L 142.388984 195.400573 
L 142.621378 195.604694 
L 142.853772 197.204683 
L 142.853772 196.86124 
L 143.086166 196.708784 
L 143.086166 197.044796 
L 143.318561 198.094726 
L 143.318561 197.854157 
L 143.550955 198.006867 
L 143.550955 198.231044 
L 143.783349 199.088661 
L 143.783349 199.056949 
L 144.015743 198.918899 
L 144.015743 199.548419 
L 144.248137 200.773251 
L 144.248137 200.547445 
L 144.480531 200.215861 
L 144.480531 200.298376 
L 144.712925 201.52611 
L 144.712925 201.219163 
L 144.945319 201.042886 
L 145.177713 201.747895 
L 145.177713 201.533694 
L 145.410107 201.654844 
L 145.410107 201.234434 
L 145.642501 202.203529 
L 145.874896 201.758941 
L 145.874896 202.055095 
L 146.10729 202.911949 
L 146.10729 202.625873 
L 146.339684 202.289097 
L 146.339684 202.090117 
L 146.572078 202.826075 
L 146.804472 202.659011 
L 146.804472 202.838445 
L 147.036866 202.479984 
L 147.501654 203.066491 
L 147.501654 202.911949 
L 147.734048 202.457587 
L 148.198836 202.548856 
L 148.198836 202.695152 
L 148.431231 202.872041 
L 148.431231 202.654481 
L 148.663625 202.65784 
L 148.663625 202.575937 
L 148.896019 202.496579 
L 148.896019 202.530379 
L 149.128413 201.801445 
L 149.128413 201.815494 
L 149.360807 202.707827 
L 149.360807 202.435546 
L 149.593201 201.585208 
L 149.593201 201.640133 
L 149.825595 202.143871 
L 149.825595 202.448781 
L 150.057989 200.64243 
L 150.057989 200.968974 
L 150.290383 201.787039 
L 150.290383 201.59997 
L 150.522777 200.299037 
L 150.755171 201.047161 
L 150.755171 200.914966 
L 150.987566 198.420862 
L 150.987566 198.525265 
L 151.21996 199.959208 
L 151.21996 199.728718 
L 151.452354 197.063834 
L 151.684748 197.905468 
L 151.684748 197.706996 
L 151.917142 194.265635 
L 152.149536 195.668221 
L 152.38193 191.616837 
L 152.614324 192.121898 
L 152.614324 192.890231 
L 152.846718 187.519232 
L 153.079112 188.722481 
L 153.311506 183.035272 
L 153.311506 183.072838 
L 153.543901 184.033941 
L 153.776295 177.24875 
L 153.776295 177.571374 
L 154.008689 177.751928 
L 154.008689 178.026754 
L 154.241083 171.31751 
L 154.473477 170.790255 
L 154.473477 170.871293 
L 154.705871 163.776152 
L 154.705871 164.404501 
L 154.938265 161.972347 
L 154.938265 162.039183 
L 155.867841 137.928327 
L 155.867841 138.436443 
L 156.100236 137.539682 
L 156.33263 142.835242 
L 156.565024 142.65362 
L 156.797418 148.176921 
L 157.262206 153.009568 
L 157.262206 152.944005 
L 157.4946 157.975428 
L 157.4946 157.929157 
L 157.726994 157.954914 
L 157.726994 158.155371 
L 157.959388 160.634153 
L 157.959388 160.563245 
L 158.191782 161.636437 
L 158.656571 165.04919 
L 158.656571 164.983678 
L 158.888965 165.400575 
L 158.888965 165.257893 
L 159.121359 166.529047 
L 159.121359 166.496113 
L 159.353753 166.774146 
L 159.586147 167.492543 
L 159.586147 167.023623 
L 159.818541 168.065662 
L 159.818541 167.514686 
L 160.050935 168.341863 
L 160.050935 168.029419 
L 160.283329 168.155913 
L 160.283329 168.38681 
L 160.515723 168.563241 
L 160.748117 168.495692 
L 160.748117 169.028598 
L 160.980511 168.398213 
L 161.212906 168.622594 
L 161.212906 168.937532 
L 161.4453 168.492383 
L 161.677694 168.933256 
L 161.677694 168.565837 
L 161.910088 168.664436 
L 161.910088 168.533971 
L 162.142482 168.670646 
L 162.142482 168.524554 
L 162.374876 168.181263 
L 162.374876 168.54232 
L 162.60727 167.908371 
L 162.60727 168.181874 
L 162.839664 167.765588 
L 162.839664 168.348378 
L 163.072058 167.747924 
L 163.072058 167.800406 
L 163.304452 167.994805 
L 163.304452 167.877015 
L 163.536846 167.979687 
L 163.536846 167.408196 
L 163.769241 166.139893 
L 164.001635 166.702882 
L 164.234029 165.123865 
L 164.466423 165.258453 
L 164.466423 165.477388 
L 164.698817 163.941537 
L 164.698817 164.048688 
L 165.163605 162.530551 
L 165.163605 162.816373 
L 165.395999 158.433659 
L 165.628393 159.98697 
L 165.860787 156.978744 
L 166.093181 156.328914 
L 166.093181 156.526469 
L 166.790364 150.704519 
L 166.790364 150.759138 
L 167.022758 145.360549 
L 167.255152 146.091723 
L 167.487546 141.98862 
L 167.71994 140.841822 
L 167.952334 137.959327 
L 168.184728 131.40488 
L 168.184728 131.494266 
L 168.417122 132.281128 
L 168.417122 132.025746 
L 168.649516 127.340719 
L 168.649516 127.520509 
L 168.881911 125.269722 
L 169.114305 122.178168 
L 169.114305 122.24251 
L 169.346699 114.711892 
L 169.346699 114.716372 
L 169.579093 114.753276 
L 169.579093 114.271936 
L 169.811487 109.766393 
L 170.043881 100.465566 
L 170.276275 101.913303 
L 170.741063 86.093101 
L 170.741063 85.70018 
L 170.973457 87.28617 
L 170.973457 87.004981 
L 171.205851 87.337939 
L 171.205851 87.143591 
L 171.438246 96.02691 
L 171.67064 95.412763 
L 171.67064 95.507086 
L 171.903034 102.877562 
L 171.903034 102.434654 
L 172.135428 114.303852 
L 172.367822 113.73903 
L 172.367822 113.421344 
L 172.600216 120.46436 
L 172.83261 132.596167 
L 172.83261 132.540327 
L 173.065004 132.137988 
L 173.065004 132.449719 
L 173.297398 138.911675 
L 173.297398 138.704397 
L 173.529792 151.164327 
L 173.762187 150.326664 
L 173.762187 150.465172 
L 173.994581 156.978133 
L 173.994581 156.876174 
L 174.226975 170.025995 
L 174.226975 169.441881 
L 174.459369 166.328285 
L 174.459369 166.336226 
L 174.691763 175.881948 
L 174.691763 175.273248 
L 174.924157 176.672322 
L 174.924157 176.323941 
L 175.156551 183.345221 
L 175.388945 193.934663 
L 175.388945 193.848891 
L 175.621339 190.425091 
L 175.621339 190.483579 
L 175.853733 201.158538 
L 176.086127 198.799684 
L 176.318522 207.78822 
L 176.550916 206.838112 
L 176.550916 206.979928 
L 176.78331 214.566794 
L 177.015704 214.148879 
L 177.015704 213.710348 
L 177.248098 221.17418 
L 177.480492 221.042901 
L 177.712886 227.861536 
L 177.94528 227.191446 
L 177.94528 226.767219 
L 178.177674 234.205804 
L 178.177674 233.534187 
L 178.410068 232.796244 
L 178.410068 233.070408 
L 178.642462 240.266694 
L 178.642462 240.143712 
L 178.874857 237.753603 
L 178.874857 237.820999 
L 179.804433 248.872438 
L 179.804433 249.200814 
L 180.036827 249.059914 
L 180.036827 249.431762 
L 180.269221 253.901622 
L 180.501615 252.687174 
L 180.501615 253.006133 
L 180.734009 258.066165 
L 180.966403 256.573734 
L 180.966403 256.95225 
L 181.198797 257.967412 
L 181.198797 257.586097 
L 181.431192 260.408729 
L 181.663586 260.488647 
L 181.663586 260.368312 
L 181.89598 263.653146 
L 181.89598 263.605755 
L 182.128374 262.900644 
L 182.128374 263.259359 
L 182.360768 264.031357 
L 182.360768 263.886333 
L 182.593162 265.6316 
L 182.593162 265.450639 
L 182.825556 265.531423 
L 182.825556 265.861479 
L 183.05795 267.54948 
L 183.290344 267.056635 
L 183.290344 267.365363 
L 183.522738 267.722601 
L 183.522738 267.938685 
L 183.755132 268.704371 
L 183.987527 268.961279 
L 184.452315 269.714138 
L 184.452315 269.416405 
L 184.684709 270.011565 
L 184.684709 269.474689 
L 184.917103 269.798637 
L 184.917103 270.099475 
L 185.149497 270.144219 
L 185.149497 269.840683 
L 185.381891 269.612179 
L 185.381891 269.975882 
L 185.614285 270.803059 
L 185.614285 270.56081 
L 185.846679 269.973184 
L 185.846679 270.310316 
L 186.311467 270.055087 
L 186.311467 270.250403 
L 186.543862 270.112404 
L 186.543862 270.123806 
L 186.776256 270.151956 
L 186.776256 270.07443 
L 187.00865 269.854325 
L 187.00865 270.310163 
L 187.241044 270.070104 
L 187.241044 270.60703 
L 187.473438 270.072191 
L 187.705832 270.178782 
L 187.705832 270.025411 
L 187.938226 269.973337 
L 187.938226 269.800826 
L 188.17062 269.412994 
L 188.17062 269.038958 
L 188.403014 269.371712 
L 188.403014 269.687159 
L 188.635408 270.182752 
L 188.635408 269.866135 
L 188.867802 269.115923 
L 189.100197 269.035344 
L 189.100197 268.755732 
L 189.332591 267.48753 
L 189.564985 267.854084 
L 189.564985 267.507332 
L 189.797379 267.386895 
L 189.797379 267.174985 
L 190.029773 266.001106 
L 190.262167 266.486672 
L 190.262167 265.760182 
L 190.494561 263.247244 
L 190.494561 263.250247 
L 190.726955 264.19557 
L 190.726955 263.817156 
L 190.959349 259.575546 
L 191.191743 260.750951 
L 191.191743 260.666045 
L 191.424137 259.857193 
L 191.424137 260.444311 
L 191.656532 256.242863 
L 191.888926 256.441895 
L 191.888926 256.630389 
L 192.12132 250.078131 
L 192.12132 250.086632 
L 192.353714 252.694249 
L 192.586108 250.432621 
L 192.818502 245.052306 
L 193.050896 245.217385 
L 193.050896 245.171216 
L 193.28329 236.459135 
L 193.515684 238.996863 
L 193.515684 238.565815 
L 193.748078 236.001363 
L 193.980472 229.781146 
L 194.212867 228.369601 
L 194.445261 218.368397 
L 194.910049 221.37311 
L 194.910049 221.28464 
L 195.142443 219.095091 
L 195.374837 221.882804 
L 195.374837 221.855927 
L 195.607231 231.060649 
L 195.607231 230.4802 
L 195.839625 233.137142 
L 195.839625 232.906653 
L 196.072019 243.819686 
L 196.304413 243.479805 
L 196.304413 243.117222 
L 196.536807 255.308433 
L 196.769202 251.083621 
L 197.698778 269.547124 
L 197.931172 267.818452 
L 198.628354 275.449756 
L 198.628354 275.274293 
L 198.860748 281.518892 
L 198.860748 280.8768 
L 199.093142 279.572405 
L 199.325537 281.379061 
L 199.325537 281.296191 
L 199.557931 285.261906 
L 199.790325 284.628619 
L 199.790325 284.889905 
L 200.487507 288.67583 
L 200.487507 288.288202 
L 200.719901 291.398947 
L 200.719901 291.147027 
L 200.952295 290.547947 
L 200.952295 290.813255 
L 201.184689 291.458605 
L 201.184689 291.875452 
L 201.417083 293.226982 
L 201.417083 292.928791 
L 201.649477 293.133575 
L 201.649477 292.876666 
L 201.881872 293.073102 
L 202.34666 294.501191 
L 202.34666 294.09142 
L 202.811448 294.780497 
L 203.043842 294.775304 
L 203.043842 294.574135 
L 203.50863 295.488 
L 203.741024 295.346082 
L 203.741024 295.049774 
L 203.973418 295.18762 
L 203.973418 294.812209 
L 204.205812 295.440406 
L 204.205812 295.076957 
L 204.438207 295.16899 
L 204.438207 294.786809 
L 204.670601 295.399785 
L 205.135389 294.658685 
L 205.367783 294.934479 
L 205.600177 294.516411 
L 205.600177 294.964053 
L 205.832571 295.016484 
L 205.832571 294.887648 
L 206.064965 294.908213 
L 206.064965 294.395872 
L 206.297359 293.955916 
L 206.297359 294.683068 
L 206.529753 294.015167 
L 206.529753 294.556879 
L 206.762147 293.175315 
L 206.994542 293.493257 
L 206.994542 293.398831 
L 207.226936 291.492303 
L 207.226936 291.630149 
L 207.45933 292.296777 
L 207.45933 292.020169 
L 207.691724 290.970037 
L 207.691724 291.682376 
L 207.924118 289.794987 
L 207.924118 289.842785 
L 208.156512 289.501581 
L 208.156512 289.232049 
L 208.388906 286.140291 
L 208.388906 286.157649 
L 208.6213 287.342268 
L 208.6213 287.095337 
L 208.853694 285.838944 
L 209.086088 282.197941 
L 209.086088 282.253222 
L 209.318482 283.366067 
L 209.318482 282.905903 
L 209.550877 281.706522 
L 209.783271 277.672138 
L 209.783271 277.708127 
L 210.015665 278.120596 
L 210.015665 278.039507 
L 210.248059 276.168204 
L 210.480453 272.021325 
L 210.480453 272.090706 
L 210.712847 271.334284 
L 210.712847 271.694373 
L 210.945241 261.993855 
L 211.177635 264.937179 
L 211.410029 262.777764 
L 211.642423 252.869 
L 211.874817 256.255436 
L 212.107212 252.361953 
L 212.107212 252.423088 
L 212.339606 242.47635 
L 212.339606 242.533057 
L 212.572 244.052211 
L 212.572 243.849515 
L 212.804394 225.35603 
L 213.036788 230.125303 
L 213.036788 230.037189 
L 213.269182 227.566756 
L 213.269182 228.300525 
L 213.501576 232.295255 
L 213.73397 229.549893 
L 214.198758 240.283543 
L 214.198758 240.04725 
L 214.431152 242.349703 
L 214.663547 249.468056 
L 214.663547 249.177755 
L 214.895941 248.597153 
L 214.895941 248.86862 
L 215.128335 257.345935 
L 215.128335 256.709798 
L 215.360729 254.598079 
L 215.360729 254.72269 
L 215.593123 256.854007 
L 215.593123 256.6282 
L 215.825517 260.863498 
L 215.825517 260.400228 
L 216.057911 260.994574 
L 216.057911 260.799259 
L 216.290305 265.943229 
L 216.522699 264.320996 
L 216.522699 264.473654 
L 216.755093 266.187565 
L 216.987487 268.775788 
L 216.987487 268.326517 
L 217.219882 268.999202 
L 217.452276 271.831354 
L 217.452276 271.517485 
L 217.68467 271.402495 
L 217.68467 271.2168 
L 218.149458 273.707136 
L 218.149458 274.366944 
L 218.381852 273.984101 
L 218.381852 274.119758 
L 218.614246 275.482436 
L 218.614246 275.359861 
L 218.84664 275.680602 
L 218.84664 275.530031 
L 219.079034 276.200629 
L 219.079034 275.810762 
L 219.543822 277.160969 
L 219.543822 277.068427 
L 219.776217 277.789114 
L 219.776217 278.195525 
L 220.008611 277.611818 
L 220.008611 277.792677 
L 220.241005 277.829735 
L 220.241005 278.078804 
L 220.473399 278.68333 
L 220.473399 278.398934 
L 220.705793 278.560399 
L 220.705793 278.444187 
L 220.938187 278.418379 
L 220.938187 278.711073 
L 221.170581 279.214251 
L 221.402975 278.916111 
L 221.402975 278.958869 
L 221.635369 279.289333 
L 221.635369 279.132144 
L 221.867763 278.820565 
L 222.100157 278.76447 
L 222.100157 278.593079 
L 222.332552 278.751235 
L 222.332552 279.06037 
L 222.564946 278.40769 
L 222.79734 278.869585 
L 222.79734 278.694885 
L 223.029734 278.543856 
L 223.029734 278.996843 
L 223.262128 278.529959 
L 223.494522 279.089589 
L 223.494522 278.508885 
L 223.726916 278.591043 
L 223.726916 278.538969 
L 223.95931 278.395066 
L 223.95931 278.183461 
L 224.191704 278.749657 
L 224.191704 278.598067 
L 224.424098 277.99405 
L 224.656492 278.493869 
L 224.656492 277.85763 
L 224.888887 276.803221 
L 224.888887 277.174305 
L 225.121281 277.492908 
L 225.353675 276.881256 
L 225.353675 276.985047 
L 225.586069 275.520715 
L 225.586069 276.185664 
L 225.818463 276.365912 
L 226.050857 275.695822 
L 226.050857 275.767698 
L 226.283251 274.62996 
L 226.283251 274.693029 
L 226.515645 274.328664 
L 226.515645 274.710693 
L 226.748039 272.23975 
L 226.980433 273.11442 
L 226.980433 273.08454 
L 227.445222 270.019811 
L 227.677616 270.42612 
L 227.677616 269.984586 
L 227.91001 266.916447 
L 228.142404 268.089562 
L 228.374798 266.825891 
L 228.607192 264.571338 
L 228.607192 265.090041 
L 228.839586 264.417864 
L 228.839586 263.726141 
L 229.07198 259.837188 
L 229.07198 260.039223 
L 229.304374 260.791878 
L 229.304374 260.652403 
L 229.536768 259.672771 
L 229.769162 256.925475 
L 230.001557 256.763705 
L 230.001557 256.389159 
L 230.233951 251.740985 
L 230.233951 252.326321 
L 230.466345 252.589287 
L 230.466345 252.82731 
L 230.698739 251.313398 
L 230.931133 248.393388 
L 230.931133 248.571905 
L 231.163527 247.674075 
L 231.163527 247.806423 
L 231.395921 242.971944 
L 231.395921 243.023814 
L 231.628315 243.876137 
L 231.628315 243.457713 
L 231.860709 236.872113 
L 231.860709 236.914668 
L 232.093103 239.429336 
L 232.093103 239.032088 
L 232.325497 237.483155 
L 232.557892 232.804541 
L 232.557892 233.377202 
L 232.790286 233.096216 
L 232.790286 233.273919 
L 233.02268 226.298706 
L 233.02268 226.618887 
L 233.255074 228.523074 
L 233.487468 226.062108 
L 233.719862 221.82849 
L 233.952256 221.09411 
L 233.952256 221.36242 
L 234.18465 215.484629 
L 234.18465 215.59911 
L 234.417044 215.864622 
L 234.649438 207.637088 
L 234.649438 207.6772 
L 234.881832 209.666344 
L 234.881832 209.385765 
L 235.114227 200.325303 
L 235.346621 203.478552 
L 236.043803 193.263911 
L 236.043803 193.423798 
L 236.276197 188.034219 
L 236.276197 188.390287 
L 236.508591 186.155383 
L 236.740985 180.202509 
L 236.973379 178.301428 
L 237.205773 171.943823 
L 237.205773 172.379809 
L 237.438168 170.56282 
L 237.438168 170.629757 
L 237.670562 164.198903 
L 237.670562 164.315624 
L 237.902956 162.187667 
L 237.902956 162.718537 
L 238.13535 156.358387 
L 238.367744 153.992203 
L 239.064926 141.168417 
L 239.064926 141.367296 
L 239.29732 131.054514 
L 239.529714 132.93167 
L 239.762108 124.776827 
L 239.762108 124.816379 
L 239.994503 123.744408 
L 239.994503 123.897016 
L 240.924079 103.099042 
L 240.924079 103.553302 
L 241.156473 103.151473 
L 241.156473 103.272775 
L 241.388867 97.903659 
L 241.388867 97.906306 
L 241.621261 89.626801 
L 241.621261 89.809187 
L 241.853655 90.355785 
L 241.853655 90.640029 
L 242.086049 85.169158 
L 242.318443 76.750025 
L 242.318443 77.283643 
L 242.550838 78.642554 
L 243.015626 65.810777 
L 243.24802 67.421812 
L 243.712808 56.334894 
L 243.712808 56.537387 
L 243.945202 56.339577 
L 243.945202 56.643011 
L 244.177596 54.23249 
L 244.177596 54.236461 
L 244.40999 54.51317 
L 244.40999 54.31363 
L 244.642384 54.232592 
L 244.642384 53.823178 
L 244.874778 54.301922 
L 244.874778 54.211467 
L 245.107173 54.175173 
L 245.107173 54.304366 
L 245.339567 54.584333 
L 245.339567 54.174257 
L 245.571961 54.238548 
L 245.804355 54.163313 
L 245.804355 54.174206 
L 246.036749 53.797421 
L 246.036749 54.243791 
L 246.269143 54.505688 
L 246.269143 54.177769 
L 246.501537 54.308896 
L 246.733931 54.626226 
L 246.733931 54.432591 
L 246.966325 54.27698 
L 246.966325 54.098615 
L 247.431113 54.481101 
L 247.431113 54.086653 
L 247.663508 54.147075 
L 247.663508 54.136945 
L 247.895902 54.060183 
L 247.895902 53.877695 
L 248.128296 54.385658 
L 248.36069 54.09047 
L 248.36069 54.095052 
L 248.593084 54.386727 
L 248.593084 54.140457 
L 248.825478 54.24883 
L 248.825478 54.066749 
L 249.057872 54.222819 
L 249.057872 54.491333 
L 249.290266 53.934045 
L 249.290266 54.282274 
L 249.52266 54.279168 
L 249.52266 54.663538 
L 249.755054 54.310678 
L 249.987448 54.608207 
L 249.987448 53.931754 
L 250.219843 54.457024 
L 250.219843 54.387541 
L 250.684631 54.054584 
L 250.684631 54.258807 
L 250.917025 54.033204 
L 250.917025 54.393802 
L 251.149419 54.03239 
L 251.149419 54.341474 
L 251.381813 54.463336 
L 251.381813 54.141679 
L 251.614207 54.220273 
L 251.614207 54.048882 
L 251.846601 54.277285 
L 252.078995 54.62307 
L 252.078995 53.873674 
L 252.311389 54.475757 
L 252.543783 54.001237 
L 252.543783 54.690517 
L 252.776178 54.508691 
L 252.776178 54.182096 
L 253.008572 54.209126 
L 253.008572 54.111035 
L 253.240966 54.616657 
L 253.240966 53.811572 
L 253.47336 54.590543 
L 253.705754 54.345699 
L 253.705754 54.353742 
L 254.170542 54.429231 
L 254.170542 54.818997 
L 254.402936 54.364686 
L 254.402936 54.433201 
L 254.63533 54.628721 
L 254.63533 54.006887 
L 254.867724 54.207446 
L 254.867724 53.910222 
L 255.100118 54.080086 
L 255.100118 53.941426 
L 255.564907 54.550737 
L 255.564907 54.284971 
L 255.797301 54.440888 
L 255.797301 54.28431 
L 256.029695 54.043079 
L 256.029695 54.673974 
L 256.262089 53.922795 
L 256.494483 54.076217 
L 256.494483 53.993907 
L 256.726877 54.618642 
L 256.726877 54.314444 
L 256.959271 54.425464 
L 256.959271 54.346513 
L 257.191665 54.31643 
L 257.191665 54.376648 
L 257.424059 54.473008 
L 257.424059 54.143511 
L 257.656453 54.25219 
L 257.888848 54.064153 
L 257.888848 54.206326 
L 258.121242 54.239617 
L 258.121242 54.412178 
L 258.353636 53.960565 
L 258.353636 54.463387 
L 258.58603 54.30238 
L 258.58603 54.602353 
L 258.818424 54.608308 
L 258.818424 54.514341 
L 259.050818 54.388508 
L 259.050818 54.499274 
L 259.283212 54.064052 
L 259.283212 54.447098 
L 259.515606 54.109661 
L 259.515606 54.20373 
L 259.748 54.16204 
L 259.748 54.511592 
L 259.980394 54.120096 
L 259.980394 54.181943 
L 260.212788 54.616962 
L 260.212788 54.246947 
L 260.445183 54.508182 
L 260.445183 54.235646 
L 260.677577 53.862628 
L 260.677577 54.344223 
L 260.909971 54.213249 
L 260.909971 54.500597 
L 261.142365 54.194924 
L 261.142365 53.842725 
L 261.374759 53.847815 
L 261.374759 54.149874 
L 261.607153 54.027554 
L 261.607153 53.817629 
L 261.839547 54.359392 
L 261.839547 54.195636 
L 262.071941 54.066139 
L 262.071941 54.067666 
L 262.304335 54.23361 
L 262.536729 53.976905 
L 262.536729 54.374612 
L 262.769123 57.504089 
L 262.769123 57.117785 
L 263.001518 54.134349 
L 263.233912 54.513221 
L 263.233912 54.117296 
L 263.466306 54.19696 
L 263.466306 54.352825 
L 263.6987 54.144224 
L 263.931094 54.410957 
L 263.931094 54.336333 
L 264.163488 53.870619 
L 264.395882 54.349924 
L 264.395882 54.285379 
L 264.628276 54.127681 
L 264.628276 54.609734 
L 264.86067 53.983166 
L 264.86067 54.343103 
L 265.093064 54.242111 
L 265.093064 54.089961 
L 265.325458 54.163466 
L 265.325458 54.446284 
L 265.557853 53.659219 
L 265.557853 54.104061 
L 266.022641 54.30182 
L 266.022641 53.7709 
L 266.255035 54.411262 
L 266.255035 54.058809 
L 266.487429 53.984541 
L 266.487429 54.639003 
L 266.719823 54.277845 
L 266.719823 54.002408 
L 266.952217 54.079628 
L 266.952217 54.696473 
L 267.184611 54.418134 
L 267.184611 54.167538 
L 267.417005 54.453563 
L 267.417005 54.716223 
L 267.649399 54.104011 
L 267.649399 54.117704 
L 267.881793 54.460791 
L 267.881793 54.169625 
L 268.114188 54.429384 
L 268.114188 54.650456 
L 268.346582 54.12763 
L 268.346582 53.847968 
L 268.578976 54.035495 
L 268.578976 54.476316 
L 268.81137 54.05158 
L 269.043764 54.547479 
L 269.043764 54.303958 
L 269.276158 54.199658 
L 269.276158 54.546156 
L 269.508552 54.447556 
L 269.508552 54.26909 
L 269.740946 54.013505 
L 269.740946 54.174461 
L 269.97334 54.504466 
L 270.205734 54.458042 
L 270.205734 54.511389 
L 270.438128 54.035749 
L 270.438128 54.433863 
L 270.670523 54.450101 
L 270.670523 54.20938 
L 270.902917 54.316684 
L 270.902917 54.272449 
L 271.135311 54.260589 
L 271.135311 54.293014 
L 271.367705 54.431216 
L 271.367705 54.216456 
L 271.600099 54.314699 
L 271.600099 54.029437 
L 271.832493 54.063084 
L 271.832493 54.008771 
L 272.064887 54.279779 
L 272.064887 54.451578 
L 272.297281 54.247354 
L 272.529675 54.348702 
L 272.529675 54.217117 
L 272.762069 54.155372 
L 272.762069 54.328697 
L 272.994463 54.162702 
L 272.994463 54.340558 
L 273.226858 54.713576 
L 273.226858 53.974157 
L 273.459252 54.033102 
L 273.459252 54.155677 
L 273.691646 54.262981 
L 273.691646 54.229334 
L 274.156434 54.073927 
L 274.156434 54.491333 
L 274.388828 54.126764 
L 274.388828 53.759243 
L 274.621222 54.283801 
L 274.621222 54.01096 
L 274.853616 54.403067 
L 274.853616 54.188866 
L 275.08601 54.168199 
L 275.08601 53.86614 
L 275.318404 54.025976 
L 275.318404 54.282426 
L 275.550798 54.417625 
L 275.550798 54.376444 
L 275.783193 54.217168 
L 275.783193 54.445622 
L 276.015587 54.308845 
L 276.015587 54.449898 
L 276.247981 54.297799 
L 276.247981 54.342747 
L 276.480375 54.407088 
L 276.480375 54.039211 
L 276.712769 54.403169 
L 276.945163 54.448472 
L 276.945163 54.097953 
L 277.409951 54.379906 
L 277.409951 54.298308 
L 277.642345 54.400114 
L 277.642345 54.694437 
L 277.874739 53.93206 
L 277.874739 54.051224 
L 278.107133 54.150485 
L 278.107133 54.380008 
L 278.339528 54.647046 
L 278.339528 53.981843 
L 278.804316 54.472906 
L 278.804316 53.882836 
L 279.03671 54.476164 
L 279.03671 54.415996 
L 279.269104 54.201999 
L 279.269104 54.672192 
L 279.501498 54.159393 
L 279.501498 54.419967 
L 279.733892 54.373339 
L 279.733892 53.971968 
L 279.966286 54.433863 
L 279.966286 54.242162 
L 280.19868 54.118925 
L 280.19868 54.203883 
L 280.431074 54.407597 
L 280.431074 54.328697 
L 280.663468 54.181434 
L 280.663468 54.465372 
L 280.895863 54.206835 
L 281.128257 54.340965 
L 281.360651 53.949876 
L 281.360651 54.391155 
L 281.593045 54.224549 
L 281.593045 54.45733 
L 281.825439 54.053973 
L 281.825439 54.143715 
L 282.057833 53.908695 
L 282.057833 54.484359 
L 282.290227 55.795422 
L 282.290227 55.619449 
L 282.522621 53.993703 
L 282.522621 54.15242 
L 282.755015 56.700684 
L 282.755015 56.375158 
L 282.987409 65.429614 
L 283.219803 65.002231 
L 283.219803 65.180443 
L 283.916986 84.104772 
L 283.916986 83.676065 
L 284.14938 84.81477 
L 284.14938 84.568602 
L 284.846562 96.689109 
L 284.846562 96.238972 
L 285.078956 96.934564 
L 285.776138 104.150957 
L 286.008533 104.22497 
L 286.008533 104.18104 
L 286.240927 105.014224 
L 286.473321 106.420475 
L 286.473321 105.821243 
L 286.705715 106.933274 
L 286.705715 106.551398 
L 286.938109 106.663487 
L 286.938109 107.3687 
L 287.170503 107.296316 
L 287.170503 106.807798 
L 287.402897 106.476622 
L 287.402897 106.750684 
L 287.635291 107.295094 
L 287.635291 107.15623 
L 287.867685 106.73409 
L 287.867685 106.945694 
L 288.100079 107.53495 
L 288.797262 105.771307 
L 289.029656 103.805986 
L 289.029656 104.085801 
L 289.26205 104.932473 
L 289.26205 104.920664 
L 289.494444 103.10566 
L 289.494444 103.378399 
L 289.726838 99.49245 
L 289.959232 100.551745 
L 290.191626 98.165556 
L 290.42402 93.97938 
L 290.42402 94.183552 
L 290.656414 94.41221 
L 290.656414 94.576372 
L 290.888808 91.081207 
L 291.121203 86.033392 
L 291.121203 86.295187 
L 291.353597 85.520288 
L 291.353597 85.970577 
L 291.818385 77.208917 
L 292.050779 70.009475 
L 292.283173 71.799079 
L 292.515567 67.39183 
L 292.747961 59.220086 
L 292.980355 58.552542 
L 293.212749 54.594361 
L 293.212749 54.801079 
L 293.445143 53.830762 
L 293.445143 54.151401 
L 293.677538 54.634676 
L 293.677538 54.472651 
L 293.909932 54.200981 
L 293.909932 54.569011 
L 294.142326 54.105232 
L 294.142326 54.437681 
L 294.607114 54.3542 
L 294.607114 54.31704 
L 294.839508 54.439615 
L 294.839508 53.970186 
L 295.071902 54.537095 
L 295.071902 54.044963 
L 295.304296 54.325898 
L 295.53669 54.181892 
L 295.53669 54.250612 
L 296.001478 54.423734 
L 296.001478 53.97095 
L 296.233873 54.63152 
L 296.233873 54.459977 
L 296.466267 56.934737 
L 296.466267 56.598623 
L 296.931055 66.424517 
L 297.163449 65.785427 
L 297.395843 68.504879 
L 297.860631 76.996905 
L 298.093025 77.047656 
L 298.093025 77.039358 
L 298.790208 86.981769 
L 299.022602 87.856846 
L 299.48739 94.252221 
L 299.48739 93.971846 
L 299.719784 98.233156 
L 299.719784 98.027558 
L 299.952178 98.404852 
L 300.184572 101.685257 
L 300.64936 111.055414 
L 300.64936 110.3642 
L 300.881754 110.209403 
L 300.881754 109.720275 
L 301.346543 118.783485 
L 301.346543 118.584403 
L 301.578937 118.489367 
L 301.578937 118.175752 
L 301.811331 121.646892 
L 301.811331 121.347021 
L 302.043725 127.684824 
L 302.276119 127.459476 
L 302.276119 127.543873 
L 302.508513 130.626112 
L 302.740907 136.419659 
L 302.973301 136.384281 
L 302.973301 136.460839 
L 303.205695 139.74776 
L 303.205695 139.713859 
L 303.438089 145.745225 
L 303.438089 145.644487 
L 303.670484 144.943092 
L 303.902878 148.582365 
L 303.902878 148.521026 
L 304.135272 154.434704 
L 304.135272 154.050284 
L 304.367666 152.217667 
L 304.367666 153.034612 
L 304.60006 157.429746 
L 304.832454 157.24059 
L 304.832454 157.512871 
L 305.297242 164.611473 
L 305.529636 164.033417 
L 305.529636 163.635354 
L 305.76203 167.364471 
L 305.76203 167.015326 
L 305.994424 167.497735 
L 305.994424 167.359075 
L 306.459213 171.118275 
L 306.691607 171.987244 
L 306.691607 171.949728 
L 306.924001 174.801834 
L 307.156395 174.994604 
L 307.156395 174.435483 
L 307.388789 176.886879 
L 307.621183 176.767104 
L 307.621183 176.639235 
L 308.085971 178.861872 
L 308.550759 180.511237 
L 308.550759 180.260386 
L 309.015548 181.337294 
L 309.480336 182.374497 
L 309.480336 182.439908 
L 309.71273 181.874272 
L 309.71273 182.142124 
L 309.945124 183.075282 
L 309.945124 183.041584 
L 310.177518 182.132402 
L 310.409912 182.710764 
L 310.642306 182.636852 
L 310.642306 182.759987 
L 310.8747 182.927153 
L 310.8747 182.681393 
L 311.107094 182.278698 
L 311.339489 183.057364 
L 311.339489 182.667598 
L 311.571883 182.744106 
L 311.571883 182.927052 
L 311.804277 182.386154 
L 311.804277 182.641485 
L 312.036671 182.828707 
L 312.036671 182.972203 
L 312.269065 181.410187 
L 312.501459 182.726951 
L 312.501459 182.283228 
L 312.733853 181.727213 
L 312.966247 182.145433 
L 313.198641 181.83131 
L 313.198641 181.236658 
L 313.431035 181.234419 
L 313.431035 181.424288 
L 314.128218 179.163779 
L 314.128218 179.216667 
L 314.360612 175.61771 
L 314.360612 176.129592 
L 314.593006 177.66244 
L 314.593006 177.394791 
L 314.8254 173.734699 
L 315.057794 174.578318 
L 315.057794 174.408352 
L 315.290188 171.25439 
L 315.522582 171.414023 
L 315.522582 171.876275 
L 315.754976 168.906634 
L 315.754976 168.959369 
L 315.98737 167.947516 
L 315.98737 168.163243 
L 316.219764 165.856718 
L 316.219764 166.253254 
L 316.452159 159.41553 
L 316.684553 161.73865 
L 316.916947 155.776512 
L 317.149341 157.035399 
L 317.149341 157.034178 
L 317.381735 151.84022 
L 317.614129 151.251168 
L 317.846523 147.450431 
L 317.846523 147.50734 
L 318.078917 139.523124 
L 318.078917 139.751781 
L 318.311311 141.850265 
L 318.311311 141.804249 
L 318.543705 134.128659 
L 318.543705 134.60893 
L 318.776099 135.073269 
L 318.776099 134.676021 
L 319.008494 129.390896 
L 319.240888 127.177523 
L 319.240888 127.540056 
L 319.473282 122.974345 
L 319.473282 123.601727 
L 319.705676 114.866892 
L 319.93807 115.044239 
L 319.93807 114.93663 
L 320.170464 109.82824 
L 320.170464 109.898079 
L 320.402858 100.291121 
L 320.635252 101.388899 
L 320.635252 101.128987 
L 320.867646 94.25273 
L 321.10004 92.090057 
L 321.332434 87.135497 
L 321.564829 79.699915 
L 321.564829 80.09355 
L 322.029617 72.564306 
L 322.029617 71.633542 
L 322.494405 56.172207 
L 322.494405 56.472638 
L 322.726799 57.068816 
L 322.959193 54.028877 
L 322.959193 54.260589 
L 323.191587 54.03468 
L 323.191587 54.429944 
L 323.423981 54.394057 
L 323.423981 53.935623 
L 323.656375 54.536382 
L 323.656375 54.33954 
L 323.888769 54.739486 
L 323.888769 54.436459 
L 324.121164 54.083751 
L 324.121164 54.359392 
L 324.353558 53.886399 
L 324.353558 54.212078 
L 324.585952 54.433609 
L 324.585952 54.326356 
L 324.818346 54.404645 
L 325.05074 54.231421 
L 325.05074 54.256517 
L 325.283134 54.358679 
L 325.283134 54.187186 
L 325.515528 54.496067 
L 325.515528 54.33674 
L 325.747922 54.292403 
L 325.747922 54.60332 
L 325.980316 54.408259 
L 326.21271 54.596652 
L 326.21271 54.190037 
L 326.677499 54.214012 
L 326.909893 54.347328 
L 326.909893 54.579701 
L 327.142287 54.587387 
L 327.142287 54.514545 
L 327.374681 54.33898 
L 327.374681 54.121827 
L 327.607075 54.195484 
L 327.607075 54.515054 
L 327.839469 54.069091 
L 328.071863 54.177057 
L 328.071863 54.408819 
L 328.304257 54.32941 
L 328.304257 53.92473 
L 328.536651 54.116635 
L 328.536651 54.046032 
L 328.769045 53.922948 
L 328.769045 54.42241 
L 329.001439 54.384131 
L 329.001439 54.258298 
L 329.233834 54.558525 
L 329.233834 53.952574 
L 329.466228 54.402558 
L 329.466228 54.260996 
L 329.698622 54.318313 
L 329.698622 54.513374 
L 329.931016 53.924628 
L 329.931016 54.530579 
L 330.395804 54.570233 
L 330.395804 54.015744 
L 330.628198 54.432133 
L 330.628198 54.301769 
L 330.860592 54.36321 
L 331.092986 54.89866 
L 331.092986 55.390334 
L 331.32538 58.143739 
L 331.790169 68.275102 
L 331.790169 68.413559 
L 332.022563 67.008529 
L 332.487351 77.730726 
L 332.719745 86.113717 
L 332.952139 86.282156 
L 332.952139 86.433644 
L 333.416927 99.583973 
L 333.416927 99.364784 
L 333.649321 109.944859 
L 333.881715 109.214704 
L 333.881715 109.416739 
L 334.578898 123.365434 
L 334.578898 123.216746 
L 335.27608 133.23541 
L 335.27608 132.918945 
L 335.973262 141.65836 
L 336.205656 143.01096 
L 336.205656 142.829083 
L 336.43805 145.766451 
L 336.670444 145.758765 
L 336.670444 146.252322 
L 337.135233 149.700759 
L 337.367627 149.372026 
L 337.367627 149.392947 
L 337.832415 151.153739 
L 337.832415 151.602298 
L 338.064809 151.304311 
L 338.529597 152.190688 
L 338.529597 152.487759 
L 338.761991 152.046429 
L 338.761991 152.177097 
L 338.994385 151.982087 
L 338.994385 152.160044 
L 339.226779 152.595979 
L 339.459174 152.270148 
L 339.459174 152.543498 
L 339.691568 152.76284 
L 339.691568 152.263989 
L 339.923962 152.661237 
L 340.156356 151.943401 
L 340.621144 152.658641 
L 340.621144 152.557446 
L 340.853538 151.67962 
L 340.853538 152.016447 
L 341.085932 152.460373 
L 341.318326 151.602858 
L 341.318326 151.798072 
L 341.55072 151.577559 
L 341.55072 151.827036 
L 341.783114 151.835486 
L 341.783114 151.53195 
L 342.015509 150.271078 
L 342.247903 150.583471 
L 342.247903 150.325137 
L 342.480297 149.382512 
L 342.480297 149.793148 
L 342.712691 149.741685 
L 342.712691 149.175183 
L 342.945085 148.902699 
L 343.177479 146.692482 
L 343.409873 147.508409 
L 343.409873 147.152901 
L 343.642267 145.83909 
L 343.642267 145.89376 
L 343.874661 145.625704 
L 344.107055 144.453913 
L 344.107055 144.744519 
L 344.339449 141.595546 
L 344.571844 141.825628 
L 344.571844 142.097197 
L 344.804238 140.139664 
L 344.804238 140.329431 
L 345.036632 139.364255 
L 345.036632 139.590622 
L 345.269026 139.371484 
L 345.50142 141.768311 
L 345.50142 141.575235 
L 345.733814 142.283553 
L 345.733814 142.065789 
L 345.966208 144.077789 
L 346.198602 149.129829 
L 346.198602 148.583128 
L 346.430996 147.980078 
L 346.430996 148.032305 
L 346.66339 152.53907 
L 346.66339 152.354444 
L 346.895784 153.66118 
L 346.895784 153.562733 
L 347.128179 157.106155 
L 347.128179 156.938785 
L 347.360573 165.892758 
L 347.592967 164.442577 
L 347.825361 171.827662 
L 347.825361 171.528657 
L 348.057755 173.558014 
L 348.290149 179.235043 
L 348.290149 179.134204 
L 348.522543 194.686503 
L 348.522543 194.664767 
L 348.754937 190.449016 
L 348.754937 190.67411 
L 348.987331 203.968852 
L 349.219725 201.959448 
L 349.219725 202.434375 
L 349.452119 213.274718 
L 349.684514 212.537538 
L 349.684514 212.744103 
L 349.916908 221.328824 
L 349.916908 220.809561 
L 350.149302 220.899965 
L 350.149302 221.496703 
L 350.381696 229.813673 
L 350.61409 229.242539 
L 350.61409 229.547602 
L 350.846484 237.956096 
L 351.078878 236.191537 
L 351.078878 236.303015 
L 351.311272 244.727086 
L 351.543666 242.392309 
L 351.77606 251.352645 
L 352.008454 248.509804 
L 352.240849 251.102557 
L 352.473243 255.594408 
L 352.705637 255.712503 
L 352.705637 255.543912 
L 352.938031 261.719028 
L 353.170425 260.028737 
L 353.402819 262.141474 
L 353.402819 261.909508 
L 353.635213 265.621623 
L 353.635213 265.205133 
L 353.867607 266.404565 
L 353.867607 265.791945 
L 354.100001 270.582037 
L 354.100001 270.427342 
L 354.332395 269.189478 
L 354.797184 273.740223 
L 355.029578 274.239584 
L 355.029578 274.239278 
L 355.261972 277.362698 
L 355.494366 276.751605 
L 356.191548 279.760035 
L 356.191548 279.499461 
L 356.423942 281.647932 
L 356.423942 281.292424 
L 356.656336 281.033887 
L 356.88873 281.7391 
L 357.353519 282.808576 
L 357.353519 282.51013 
L 357.818307 283.891897 
L 357.818307 283.564233 
L 358.050701 283.444 
L 358.050701 283.299333 
L 358.515489 283.754611 
L 358.515489 284.094237 
L 358.747883 283.93094 
L 358.747883 283.490831 
L 358.980277 283.71562 
L 358.980277 283.910172 
L 359.212671 284.00592 
L 359.212671 283.866038 
L 359.445065 283.656216 
L 359.445065 283.792127 
L 359.677459 283.774922 
L 359.677459 283.588769 
L 359.909854 283.641454 
L 360.142248 283.434227 
L 360.142248 283.74438 
L 360.607036 283.509971 
L 360.83943 283.740918 
L 360.83943 283.662986 
L 361.071824 283.008116 
L 361.071824 282.650012 
L 361.304218 283.220993 
L 361.304218 282.931863 
L 361.536612 282.671442 
L 361.536612 283.149932 
L 361.769006 282.317105 
L 361.769006 282.333802 
L 362.0014 281.935637 
L 362.233794 279.690603 
L 362.466189 280.966135 
L 362.466189 280.826151 
L 362.698583 279.932647 
L 362.930977 278.559381 
L 363.163371 277.996443 
L 363.163371 278.061039 
L 363.395765 275.008782 
L 363.628159 276.020279 
L 363.860553 274.967296 
L 364.092947 272.727708 
L 364.092947 272.778153 
L 364.325341 271.934535 
L 364.325341 271.971643 
L 364.557735 267.507281 
L 364.557735 267.855 
L 364.790129 269.430912 
L 365.254918 264.440007 
L 365.254918 264.535604 
L 365.487312 264.216644 
L 365.487312 263.985696 
L 365.719706 258.845441 
L 365.9521 260.440493 
L 366.184494 258.480211 
L 366.416888 254.816912 
L 366.416888 255.05743 
L 366.649282 254.507421 
L 366.881676 248.146609 
L 367.11407 250.793881 
L 367.346465 248.525125 
L 367.346465 248.609472 
L 367.578859 243.439082 
L 367.578859 243.521138 
L 367.811253 244.182422 
L 368.043647 236.235365 
L 368.043647 236.491103 
L 368.276041 238.878259 
L 368.508435 236.959921 
L 368.508435 237.09797 
L 368.740829 230.707024 
L 368.740829 231.485792 
L 368.973223 231.626081 
L 369.205617 223.64833 
L 369.205617 223.762353 
L 369.438011 226.340803 
L 369.670405 223.698928 
L 369.9028 218.749102 
L 370.135194 217.954248 
L 370.367588 211.059361 
L 370.367588 211.211866 
L 370.599982 212.375717 
L 370.599982 212.137541 
L 370.832376 203.788247 
L 371.06477 206.371024 
L 371.297164 203.545388 
L 371.529558 199.374279 
L 371.529558 200.038667 
L 371.761952 197.693914 
L 371.994346 193.410767 
L 371.994346 193.489158 
L 372.22674 192.305048 
L 372.459135 188.496369 
L 372.459135 188.804588 
L 372.691529 187.696528 
L 372.691529 188.137604 
L 372.923923 187.778838 
L 372.923923 187.965806 
L 373.156317 188.168298 
L 373.156317 187.900853 
L 373.388711 190.505824 
L 373.621105 190.686785 
L 373.621105 190.545019 
L 373.853499 193.097967 
L 373.853499 193.035254 
L 374.085893 193.220745 
L 374.085893 193.625782 
L 374.318287 195.485784 
L 374.550681 195.381789 
L 374.550681 194.837023 
L 374.783075 196.946095 
L 374.783075 196.503085 
L 375.01547 196.487712 
L 375.01547 196.982847 
L 375.247864 197.895389 
L 375.247864 197.507863 
L 375.480258 197.410281 
L 375.480258 197.519927 
L 375.712652 198.089686 
L 375.712652 197.954742 
L 375.945046 198.038427 
L 375.945046 197.965788 
L 376.17744 198.403453 
L 376.409834 197.874824 
L 376.642228 198.456902 
L 376.874622 197.937638 
L 376.874622 197.185747 
L 377.107016 198.581665 
L 377.33941 197.373275 
L 377.33941 197.749602 
L 377.571805 198.193325 
L 377.571805 197.977343 
L 377.804199 197.785387 
L 377.804199 197.055232 
L 378.036593 198.16263 
L 378.036593 197.812824 
L 378.268987 197.263935 
L 378.268987 196.628154 
L 378.501381 197.239399 
L 378.733775 195.126713 
L 378.966169 195.346004 
L 378.966169 195.022973 
L 379.198563 193.740009 
L 379.430957 194.044461 
L 379.430957 194.259272 
L 379.663351 191.179477 
L 379.663351 191.396273 
L 379.895745 191.311723 
L 379.895745 191.74155 
L 380.12814 187.843231 
L 380.360534 188.188202 
L 380.592928 185.18023 
L 380.592928 185.660451 
L 380.825322 183.97861 
L 380.825322 184.324242 
L 381.057716 180.549618 
L 381.057716 181.092195 
L 381.522504 176.734119 
L 381.987292 170.957065 
L 382.219686 162.220449 
L 382.219686 162.920113 
L 382.45208 164.949216 
L 382.45208 164.848071 
L 382.684475 156.135482 
L 382.684475 156.195598 
L 382.916869 157.322442 
L 383.149263 149.673322 
L 383.149263 149.719746 
L 383.381657 148.90107 
L 383.614051 142.387447 
L 383.846445 140.049463 
L 384.078839 135.071488 
L 384.078839 135.194979 
L 384.311233 122.498807 
L 384.311233 122.971393 
L 384.543627 124.814343 
L 384.543627 124.806503 
L 384.776021 114.869997 
L 384.776021 115.12884 
L 385.008415 112.930077 
L 385.008415 113.098312 
L 385.24081 107.032077 
L 385.473204 94.195922 
L 385.705598 94.688003 
L 386.170386 80.053896 
L 386.40278 76.756795 
L 387.099962 60.545249 
L 387.099962 60.7679 
L 387.332356 55.371296 
L 387.332356 55.637978 
L 387.56475 54.343917 
L 387.56475 54.389883 
L 387.797145 54.480185 
L 387.797145 54.311085 
L 388.029539 54.454174 
L 388.029539 54.110221 
L 388.261933 54.40551 
L 388.261933 54.21498 
L 388.494327 54.390188 
L 388.494327 54.543916 
L 388.726721 54.468376 
L 388.726721 54.126357 
L 388.959115 54.20938 
L 388.959115 54.401591 
L 389.191509 54.320196 
L 389.191509 53.898922 
L 389.423903 53.746568 
L 389.423903 54.090623 
L 389.656297 54.296934 
L 389.888691 54.185252 
L 390.121085 54.066291 
L 390.121085 54.267919 
L 390.35348 54.580872 
L 390.35348 54.407546 
L 390.818268 54.089656 
L 390.818268 54.409379 
L 391.050662 54.161022 
L 391.050662 53.922083 
L 391.51545 54.700443 
L 391.51545 54.209482 
L 391.747844 53.822312 
L 391.747844 54.533226 
L 392.212632 54.015083 
L 392.212632 54.0978 
L 392.445026 54.329563 
L 392.445026 53.951505 
L 392.67742 54.359545 
L 392.67742 54.202254 
L 392.909815 54.165298 
L 392.909815 54.202101 
L 393.142209 54.358476 
L 393.142209 54.034782 
L 393.374603 54.308234 
L 393.374603 54.290367 
L 393.606997 54.194975 
L 394.071785 54.752517 
L 394.071785 54.470972 
L 394.304179 54.134196 
L 394.536573 54.255142 
L 394.536573 54.491078 
L 394.768967 54.598026 
L 394.768967 53.909866 
L 395.001361 54.5571 
L 395.001361 54.390748 
L 395.233755 54.482272 
L 395.233755 54.265374 
L 395.46615 54.540404 
L 395.46615 54.40271 
L 395.698544 54.24206 
L 395.698544 54.519839 
L 395.930938 54.212333 
L 395.930938 54.590441 
L 396.163332 54.126306 
L 396.163332 54.276878 
L 396.395726 54.359646 
L 396.395726 54.209177 
L 396.62812 54.113326 
L 396.62812 54.230403 
L 396.860514 54.167181 
L 396.860514 54.011927 
L 397.092908 54.268224 
L 397.325302 54.529358 
L 397.325302 54.376495 
L 397.557696 54.020682 
L 397.557696 54.187899 
L 397.79009 54.289756 
L 397.79009 54.549719 
L 398.022485 53.9259 
L 398.022485 54.21498 
L 398.254879 54.359901 
L 398.254879 54.188968 
L 398.487273 54.404899 
L 398.487273 54.130022 
L 398.487273 54.130022 
" clip-path="url(#pf3e6f95bfd)" style="fill: none; stroke: #ff7f0e; stroke-width: 1.5; stroke-linecap: square"/>
   </g>
   <g id="patch_3">
    <path d="M 57.6 307.584 
L 57.6 41.472 
" style="fill: none; stroke: #000000; stroke-width: 0.8; stroke-linejoin: miter; stroke-linecap: square"/>
   </g>
   <g id="patch_4">
    <path d="M 414.72 307.584 
L 414.72 41.472 
" style="fill: none; stroke: #000000; stroke-width: 0.8; stroke-linejoin: miter; stroke-linecap: square"/>
   </g>
   <g id="patch_5">
    <path d="M 57.6 307.584 
L 414.72 307.584 
" style="fill: none; stroke: #000000; stroke-width: 0.8; stroke-linejoin: miter; stroke-linecap: square"/>
   </g>
   <g id="patch_6">
    <path d="M 57.6 41.472 
L 414.72 41.472 
" style="fill: none; stroke: #000000; stroke-width: 0.8; stroke-linejoin: miter; stroke-linecap: square"/>
   </g>
   <g id="text_14">
    <!-- Actual speed vs Expected speed -->
    <g transform="translate(138.808125 35.472) scale(0.12 -0.12)">
     <defs>
      <path id="DejaVuSans-41" d="M 2188 4044 
L 1331 1722 
L 3047 1722 
L 2188 4044 
z
M 1831 4666 
L 2547 4666 
L 4325 0 
L 3669 0 
L 3244 1197 
L 1141 1197 
L 716 0 
L 50 0 
L 1831 4666 
z
" transform="scale(0.015625)"/>
      <path id="DejaVuSans-75" d="M 544 1381 
L 544 3500 
L 1119 3500 
L 1119 1403 
Q 1119 906 1312 657 
Q 1506 409 1894 409 
Q 2359 409 2629 706 
Q 2900 1003 2900 1516 
L 2900 3500 
L 3475 3500 
L 3475 0 
L 2900 0 
L 2900 538 
Q 2691 219 2414 64 
Q 2138 -91 1772 -91 
Q 1169 -91 856 284 
Q 544 659 544 1381 
z
M 1991 3584 
L 1991 3584 
z
" transform="scale(0.015625)"/>
      <path id="DejaVuSans-61" d="M 2194 1759 
Q 1497 1759 1228 1600 
Q 959 1441 959 1056 
Q 959 750 1161 570 
Q 1363 391 1709 391 
Q 2188 391 2477 730 
Q 2766 1069 2766 1631 
L 2766 1759 
L 2194 1759 
z
M 3341 1997 
L 3341 0 
L 2766 0 
L 2766 531 
Q 2569 213 2275 61 
Q 1981 -91 1556 -91 
Q 1019 -91 701 211 
Q 384 513 384 1019 
Q 384 1609 779 1909 
Q 1175 2209 1959 2209 
L 2766 2209 
L 2766 2266 
Q 2766 2663 2505 2880 
Q 2244 3097 1772 3097 
Q 1472 3097 1187 3025 
Q 903 2953 641 2809 
L 641 3341 
Q 956 3463 1253 3523 
Q 1550 3584 1831 3584 
Q 2591 3584 2966 3190 
Q 3341 2797 3341 1997 
z
" transform="scale(0.015625)"/>
      <path id="DejaVuSans-20" transform="scale(0.015625)"/>
      <path id="DejaVuSans-70" d="M 1159 525 
L 1159 -1331 
L 581 -1331 
L 581 3500 
L 1159 3500 
L 1159 2969 
Q 1341 3281 1617 3432 
Q 1894 3584 2278 3584 
Q 2916 3584 3314 3078 
Q 3713 2572 3713 1747 
Q 3713 922 3314 415 
Q 2916 -91 2278 -91 
Q 1894 -91 1617 61 
Q 1341 213 1159 525 
z
M 3116 1747 
Q 3116 2381 2855 2742 
Q 2594 3103 2138 3103 
Q 1681 3103 1420 2742 
Q 1159 2381 1159 1747 
Q 1159 1113 1420 752 
Q 1681 391 2138 391 
Q 2594 391 2855 752 
Q 3116 1113 3116 1747 
z
" transform="scale(0.015625)"/>
      <path id="DejaVuSans-64" d="M 2906 2969 
L 2906 4863 
L 3481 4863 
L 3481 0 
L 2906 0 
L 2906 525 
Q 2725 213 2448 61 
Q 2172 -91 1784 -91 
Q 1150 -91 751 415 
Q 353 922 353 1747 
Q 353 2572 751 3078 
Q 1150 3584 1784 3584 
Q 2172 3584 2448 3432 
Q 2725 3281 2906 2969 
z
M 947 1747 
Q 947 1113 1208 752 
Q 1469 391 1925 391 
Q 2381 391 2643 752 
Q 2906 1113 2906 1747 
Q 2906 2381 2643 2742 
Q 2381 3103 1925 3103 
Q 1469 3103 1208 2742 
Q 947 2381 947 1747 
z
" transform="scale(0.015625)"/>
      <path id="DejaVuSans-76" d="M 191 3500 
L 800 3500 
L 1894 563 
L 2988 3500 
L 3597 3500 
L 2284 0 
L 1503 0 
L 191 3500 
z
" transform="scale(0.015625)"/>
      <path id="DejaVuSans-45" d="M 628 4666 
L 3578 4666 
L 3578 4134 
L 1259 4134 
L 1259 2753 
L 3481 2753 
L 3481 2222 
L 1259 2222 
L 1259 531 
L 3634 531 
L 3634 0 
L 628 0 
L 628 4666 
z
" transform="scale(0.015625)"/>
      <path id="DejaVuSans-78" d="M 3513 3500 
L 2247 1797 
L 3578 0 
L 2900 0 
L 1881 1375 
L 863 0 
L 184 0 
L 1544 1831 
L 300 3500 
L 978 3500 
L 1906 2253 
L 2834 3500 
L 3513 3500 
z
" transform="scale(0.015625)"/>
     </defs>
     <use xlink:href="#DejaVuSans-41"/>
     <use xlink:href="#DejaVuSans-63" x="66.658203"/>
     <use xlink:href="#DejaVuSans-74" x="121.638672"/>
     <use xlink:href="#DejaVuSans-75" x="160.847656"/>
     <use xlink:href="#DejaVuSans-61" x="224.226562"/>
     <use xlink:href="#DejaVuSans-6c" x="285.505859"/>
     <use xlink:href="#DejaVuSans-20" x="313.289062"/>
     <use xlink:href="#DejaVuSans-73" x="345.076172"/>
     <use xlink:href="#DejaVuSans-70" x="397.175781"/>
     <use xlink:href="#DejaVuSans-65" x="460.652344"/>
     <use xlink:href="#DejaVuSans-65" x="522.175781"/>
     <use xlink:href="#DejaVuSans-64" x="583.699219"/>
     <use xlink:href="#DejaVuSans-20" x="647.175781"/>
     <use xlink:href="#DejaVuSans-76" x="678.962891"/>
     <use xlink:href="#DejaVuSans-73" x="738.142578"/>
     <use xlink:href="#DejaVuSans-20" x="790.242188"/>
     <use xlink:href="#DejaVuSans-45" x="822.029297"/>
     <use xlink:href="#DejaVuSans-78" x="885.212891"/>
     <use xlink:href="#DejaVuSans-70" x="944.392578"/>
     <use xlink:href="#DejaVuSans-65" x="1007.869141"/>
     <use xlink:href="#DejaVuSans-63" x="1069.392578"/>
     <use xlink:href="#DejaVuSans-74" x="1124.373047"/>
     <use xlink:href="#DejaVuSans-65" x="1163.582031"/>
     <use xlink:href="#DejaVuSans-64" x="1225.105469"/>
     <use xlink:href="#DejaVuSans-20" x="1288.582031"/>
     <use xlink:href="#DejaVuSans-73" x="1320.369141"/>
     <use xlink:href="#DejaVuSans-70" x="1372.46875"/>
     <use xlink:href="#DejaVuSans-65" x="1435.945312"/>
     <use xlink:href="#DejaVuSans-65" x="1497.46875"/>
     <use xlink:href="#DejaVuSans-64" x="1558.992188"/>
    </g>
   </g>
   <g id="legend_1">
    <g id="patch_7">
     <path d="M 64.6 302.584 
L 176.65 302.584 
Q 178.65 302.584 178.65 300.584 
L 178.65 272.22775 
Q 178.65 270.22775 176.65 270.22775 
L 64.6 270.22775 
Q 62.6 270.22775 62.6 272.22775 
L 62.6 300.584 
Q 62.6 302.584 64.6 302.584 
z
" style="fill: #ffffff; opacity: 0.8; stroke: #cccccc; stroke-linejoin: miter"/>
    </g>
    <g id="line2d_25">
     <path d="M 66.6 278.326187 
L 76.6 278.326187 
L 86.6 278.326187 
" style="fill: none; stroke: #1f77b4; stroke-width: 1.5; stroke-linecap: square"/>
    </g>
    <g id="text_15">
     <!-- Actual speed -->
     <g transform="translate(94.6 281.826187) scale(0.1 -0.1)">
      <use xlink:href="#DejaVuSans-41"/>
      <use xlink:href="#DejaVuSans-63" x="66.658203"/>
      <use xlink:href="#DejaVuSans-74" x="121.638672"/>
      <use xlink:href="#DejaVuSans-75" x="160.847656"/>
      <use xlink:href="#DejaVuSans-61" x="224.226562"/>
      <use xlink:href="#DejaVuSans-6c" x="285.505859"/>
      <use xlink:href="#DejaVuSans-20" x="313.289062"/>
      <use xlink:href="#DejaVuSans-73" x="345.076172"/>
      <use xlink:href="#DejaVuSans-70" x="397.175781"/>
      <use xlink:href="#DejaVuSans-65" x="460.652344"/>
      <use xlink:href="#DejaVuSans-65" x="522.175781"/>
      <use xlink:href="#DejaVuSans-64" x="583.699219"/>
     </g>
    </g>
    <g id="line2d_26">
     <path d="M 66.6 293.004312 
L 76.6 293.004312 
L 86.6 293.004312 
" style="fill: none; stroke: #ff7f0e; stroke-width: 1.5; stroke-linecap: square"/>
    </g>
    <g id="text_16">
     <!-- Expected speed -->
     <g transform="translate(94.6 296.504312) scale(0.1 -0.1)">
      <use xlink:href="#DejaVuSans-45"/>
      <use xlink:href="#DejaVuSans-78" x="63.183594"/>
      <use xlink:href="#DejaVuSans-70" x="122.363281"/>
      <use xlink:href="#DejaVuSans-65" x="185.839844"/>
      <use xlink:href="#DejaVuSans-63" x="247.363281"/>
      <use xlink:href="#DejaVuSans-74" x="302.34375"/>
      <use xlink:href="#DejaVuSans-65" x="341.552734"/>
      <use xlink:href="#DejaVuSans-64" x="403.076172"/>
      <use xlink:href="#DejaVuSans-20" x="466.552734"/>
      <use xlink:href="#DejaVuSans-73" x="498.339844"/>
      <use xlink:href="#DejaVuSans-70" x="550.439453"/>
      <use xlink:href="#DejaVuSans-65" x="613.916016"/>
      <use xlink:href="#DejaVuSans-65" x="675.439453"/>
      <use xlink:href="#DejaVuSans-64" x="736.962891"/>
     </g>
    </g>
   </g>
  </g>
 </g>
 <defs>
  <clipPath id="pf3e6f95bfd">
   <rect x="57.6" y="41.472" width="357.12" height="266.112"/>
  </clipPath>
 </defs>
</svg>
