<?xml version="1.0" encoding="utf-8" standalone="no"?>
<!DOCTYPE svg PUBLIC "-//W3C//DTD SVG 1.1//EN"
  "http://www.w3.org/Graphics/SVG/1.1/DTD/svg11.dtd">
<svg xmlns:xlink="http://www.w3.org/1999/xlink" width="460.8pt" height="345.6pt" viewBox="0 0 460.8 345.6" xmlns="http://www.w3.org/2000/svg" version="1.1">
 <metadata>
  <rdf:RDF xmlns:dc="http://purl.org/dc/elements/1.1/" xmlns:cc="http://creativecommons.org/ns#" xmlns:rdf="http://www.w3.org/1999/02/22-rdf-syntax-ns#">
   <cc:Work>
    <dc:type rdf:resource="http://purl.org/dc/dcmitype/StillImage"/>
    <dc:date>2024-01-30T20:59:18.552250</dc:date>
    <dc:format>image/svg+xml</dc:format>
    <dc:creator>
     <cc:Agent>
      <dc:title>Matplotlib v3.7.1, https://matplotlib.org/</dc:title>
     </cc:Agent>
    </dc:creator>
   </cc:Work>
  </rdf:RDF>
 </metadata>
 <defs>
  <style type="text/css">*{stroke-linejoin: round; stroke-linecap: butt}</style>
 </defs>
 <g id="figure_1">
  <g id="patch_1">
   <path d="M 0 345.6 
L 460.8 345.6 
L 460.8 0 
L 0 0 
z
" style="fill: #ffffff"/>
  </g>
  <g id="axes_1">
   <g id="patch_2">
    <path d="M 57.6 307.584 
L 414.72 307.584 
L 414.72 41.472 
L 57.6 41.472 
z
" style="fill: #ffffff"/>
   </g>
   <g id="matplotlib.axis_1">
    <g id="xtick_1">
     <g id="line2d_1">
      <path d="M 73.832727 307.584 
L 73.832727 41.472 
" clip-path="url(#pebfa5c7086)" style="fill: none; stroke: #b0b0b0; stroke-width: 0.8; stroke-linecap: square"/>
     </g>
     <g id="line2d_2">
      <defs>
       <path id="ma8b23047bd" d="M 0 0 
L 0 3.5 
" style="stroke: #000000; stroke-width: 0.8"/>
      </defs>
      <g>
       <use xlink:href="#ma8b23047bd" x="73.832727" y="307.584" style="stroke: #000000; stroke-width: 0.8"/>
      </g>
     </g>
     <g id="text_1">
      <!-- 0 -->
      <g transform="translate(70.651477 322.182437) scale(0.1 -0.1)">
       <defs>
        <path id="DejaVuSans-30" d="M 2034 4250 
Q 1547 4250 1301 3770 
Q 1056 3291 1056 2328 
Q 1056 1369 1301 889 
Q 1547 409 2034 409 
Q 2525 409 2770 889 
Q 3016 1369 3016 2328 
Q 3016 3291 2770 3770 
Q 2525 4250 2034 4250 
z
M 2034 4750 
Q 2819 4750 3233 4129 
Q 3647 3509 3647 2328 
Q 3647 1150 3233 529 
Q 2819 -91 2034 -91 
Q 1250 -91 836 529 
Q 422 1150 422 2328 
Q 422 3509 836 4129 
Q 1250 4750 2034 4750 
z
" transform="scale(0.015625)"/>
       </defs>
       <use xlink:href="#DejaVuSans-30"/>
      </g>
     </g>
    </g>
    <g id="xtick_2">
     <g id="line2d_3">
      <path d="M 131.848193 307.584 
L 131.848193 41.472 
" clip-path="url(#pebfa5c7086)" style="fill: none; stroke: #b0b0b0; stroke-width: 0.8; stroke-linecap: square"/>
     </g>
     <g id="line2d_4">
      <g>
       <use xlink:href="#ma8b23047bd" x="131.848193" y="307.584" style="stroke: #000000; stroke-width: 0.8"/>
      </g>
     </g>
     <g id="text_2">
      <!-- 5 -->
      <g transform="translate(128.666943 322.182437) scale(0.1 -0.1)">
       <defs>
        <path id="DejaVuSans-35" d="M 691 4666 
L 3169 4666 
L 3169 4134 
L 1269 4134 
L 1269 2991 
Q 1406 3038 1543 3061 
Q 1681 3084 1819 3084 
Q 2600 3084 3056 2656 
Q 3513 2228 3513 1497 
Q 3513 744 3044 326 
Q 2575 -91 1722 -91 
Q 1428 -91 1123 -41 
Q 819 9 494 109 
L 494 744 
Q 775 591 1075 516 
Q 1375 441 1709 441 
Q 2250 441 2565 725 
Q 2881 1009 2881 1497 
Q 2881 1984 2565 2268 
Q 2250 2553 1709 2553 
Q 1456 2553 1204 2497 
Q 953 2441 691 2322 
L 691 4666 
z
" transform="scale(0.015625)"/>
       </defs>
       <use xlink:href="#DejaVuSans-35"/>
      </g>
     </g>
    </g>
    <g id="xtick_3">
     <g id="line2d_5">
      <path d="M 189.863658 307.584 
L 189.863658 41.472 
" clip-path="url(#pebfa5c7086)" style="fill: none; stroke: #b0b0b0; stroke-width: 0.8; stroke-linecap: square"/>
     </g>
     <g id="line2d_6">
      <g>
       <use xlink:href="#ma8b23047bd" x="189.863658" y="307.584" style="stroke: #000000; stroke-width: 0.8"/>
      </g>
     </g>
     <g id="text_3">
      <!-- 10 -->
      <g transform="translate(183.501158 322.182437) scale(0.1 -0.1)">
       <defs>
        <path id="DejaVuSans-31" d="M 794 531 
L 1825 531 
L 1825 4091 
L 703 3866 
L 703 4441 
L 1819 4666 
L 2450 4666 
L 2450 531 
L 3481 531 
L 3481 0 
L 794 0 
L 794 531 
z
" transform="scale(0.015625)"/>
       </defs>
       <use xlink:href="#DejaVuSans-31"/>
       <use xlink:href="#DejaVuSans-30" x="63.623047"/>
      </g>
     </g>
    </g>
    <g id="xtick_4">
     <g id="line2d_7">
      <path d="M 247.879124 307.584 
L 247.879124 41.472 
" clip-path="url(#pebfa5c7086)" style="fill: none; stroke: #b0b0b0; stroke-width: 0.8; stroke-linecap: square"/>
     </g>
     <g id="line2d_8">
      <g>
       <use xlink:href="#ma8b23047bd" x="247.879124" y="307.584" style="stroke: #000000; stroke-width: 0.8"/>
      </g>
     </g>
     <g id="text_4">
      <!-- 15 -->
      <g transform="translate(241.516624 322.182437) scale(0.1 -0.1)">
       <use xlink:href="#DejaVuSans-31"/>
       <use xlink:href="#DejaVuSans-35" x="63.623047"/>
      </g>
     </g>
    </g>
    <g id="xtick_5">
     <g id="line2d_9">
      <path d="M 305.89459 307.584 
L 305.89459 41.472 
" clip-path="url(#pebfa5c7086)" style="fill: none; stroke: #b0b0b0; stroke-width: 0.8; stroke-linecap: square"/>
     </g>
     <g id="line2d_10">
      <g>
       <use xlink:href="#ma8b23047bd" x="305.89459" y="307.584" style="stroke: #000000; stroke-width: 0.8"/>
      </g>
     </g>
     <g id="text_5">
      <!-- 20 -->
      <g transform="translate(299.53209 322.182437) scale(0.1 -0.1)">
       <defs>
        <path id="DejaVuSans-32" d="M 1228 531 
L 3431 531 
L 3431 0 
L 469 0 
L 469 531 
Q 828 903 1448 1529 
Q 2069 2156 2228 2338 
Q 2531 2678 2651 2914 
Q 2772 3150 2772 3378 
Q 2772 3750 2511 3984 
Q 2250 4219 1831 4219 
Q 1534 4219 1204 4116 
Q 875 4013 500 3803 
L 500 4441 
Q 881 4594 1212 4672 
Q 1544 4750 1819 4750 
Q 2544 4750 2975 4387 
Q 3406 4025 3406 3419 
Q 3406 3131 3298 2873 
Q 3191 2616 2906 2266 
Q 2828 2175 2409 1742 
Q 1991 1309 1228 531 
z
" transform="scale(0.015625)"/>
       </defs>
       <use xlink:href="#DejaVuSans-32"/>
       <use xlink:href="#DejaVuSans-30" x="63.623047"/>
      </g>
     </g>
    </g>
    <g id="xtick_6">
     <g id="line2d_11">
      <path d="M 363.910055 307.584 
L 363.910055 41.472 
" clip-path="url(#pebfa5c7086)" style="fill: none; stroke: #b0b0b0; stroke-width: 0.8; stroke-linecap: square"/>
     </g>
     <g id="line2d_12">
      <g>
       <use xlink:href="#ma8b23047bd" x="363.910055" y="307.584" style="stroke: #000000; stroke-width: 0.8"/>
      </g>
     </g>
     <g id="text_6">
      <!-- 25 -->
      <g transform="translate(357.547555 322.182437) scale(0.1 -0.1)">
       <use xlink:href="#DejaVuSans-32"/>
       <use xlink:href="#DejaVuSans-35" x="63.623047"/>
      </g>
     </g>
    </g>
    <g id="text_7">
     <!-- Time(s) -->
     <g transform="translate(217.420156 335.860562) scale(0.1 -0.1)">
      <defs>
       <path id="DejaVuSans-54" d="M -19 4666 
L 3928 4666 
L 3928 4134 
L 2272 4134 
L 2272 0 
L 1638 0 
L 1638 4134 
L -19 4134 
L -19 4666 
z
" transform="scale(0.015625)"/>
       <path id="DejaVuSans-69" d="M 603 3500 
L 1178 3500 
L 1178 0 
L 603 0 
L 603 3500 
z
M 603 4863 
L 1178 4863 
L 1178 4134 
L 603 4134 
L 603 4863 
z
" transform="scale(0.015625)"/>
       <path id="DejaVuSans-6d" d="M 3328 2828 
Q 3544 3216 3844 3400 
Q 4144 3584 4550 3584 
Q 5097 3584 5394 3201 
Q 5691 2819 5691 2113 
L 5691 0 
L 5113 0 
L 5113 2094 
Q 5113 2597 4934 2840 
Q 4756 3084 4391 3084 
Q 3944 3084 3684 2787 
Q 3425 2491 3425 1978 
L 3425 0 
L 2847 0 
L 2847 2094 
Q 2847 2600 2669 2842 
Q 2491 3084 2119 3084 
Q 1678 3084 1418 2786 
Q 1159 2488 1159 1978 
L 1159 0 
L 581 0 
L 581 3500 
L 1159 3500 
L 1159 2956 
Q 1356 3278 1631 3431 
Q 1906 3584 2284 3584 
Q 2666 3584 2933 3390 
Q 3200 3197 3328 2828 
z
" transform="scale(0.015625)"/>
       <path id="DejaVuSans-65" d="M 3597 1894 
L 3597 1613 
L 953 1613 
Q 991 1019 1311 708 
Q 1631 397 2203 397 
Q 2534 397 2845 478 
Q 3156 559 3463 722 
L 3463 178 
Q 3153 47 2828 -22 
Q 2503 -91 2169 -91 
Q 1331 -91 842 396 
Q 353 884 353 1716 
Q 353 2575 817 3079 
Q 1281 3584 2069 3584 
Q 2775 3584 3186 3129 
Q 3597 2675 3597 1894 
z
M 3022 2063 
Q 3016 2534 2758 2815 
Q 2500 3097 2075 3097 
Q 1594 3097 1305 2825 
Q 1016 2553 972 2059 
L 3022 2063 
z
" transform="scale(0.015625)"/>
       <path id="DejaVuSans-28" d="M 1984 4856 
Q 1566 4138 1362 3434 
Q 1159 2731 1159 2009 
Q 1159 1288 1364 580 
Q 1569 -128 1984 -844 
L 1484 -844 
Q 1016 -109 783 600 
Q 550 1309 550 2009 
Q 550 2706 781 3412 
Q 1013 4119 1484 4856 
L 1984 4856 
z
" transform="scale(0.015625)"/>
       <path id="DejaVuSans-73" d="M 2834 3397 
L 2834 2853 
Q 2591 2978 2328 3040 
Q 2066 3103 1784 3103 
Q 1356 3103 1142 2972 
Q 928 2841 928 2578 
Q 928 2378 1081 2264 
Q 1234 2150 1697 2047 
L 1894 2003 
Q 2506 1872 2764 1633 
Q 3022 1394 3022 966 
Q 3022 478 2636 193 
Q 2250 -91 1575 -91 
Q 1294 -91 989 -36 
Q 684 19 347 128 
L 347 722 
Q 666 556 975 473 
Q 1284 391 1588 391 
Q 1994 391 2212 530 
Q 2431 669 2431 922 
Q 2431 1156 2273 1281 
Q 2116 1406 1581 1522 
L 1381 1569 
Q 847 1681 609 1914 
Q 372 2147 372 2553 
Q 372 3047 722 3315 
Q 1072 3584 1716 3584 
Q 2034 3584 2315 3537 
Q 2597 3491 2834 3397 
z
" transform="scale(0.015625)"/>
       <path id="DejaVuSans-29" d="M 513 4856 
L 1013 4856 
Q 1481 4119 1714 3412 
Q 1947 2706 1947 2009 
Q 1947 1309 1714 600 
Q 1481 -109 1013 -844 
L 513 -844 
Q 928 -128 1133 580 
Q 1338 1288 1338 2009 
Q 1338 2731 1133 3434 
Q 928 4138 513 4856 
z
" transform="scale(0.015625)"/>
      </defs>
      <use xlink:href="#DejaVuSans-54"/>
      <use xlink:href="#DejaVuSans-69" x="57.958984"/>
      <use xlink:href="#DejaVuSans-6d" x="85.742188"/>
      <use xlink:href="#DejaVuSans-65" x="183.154297"/>
      <use xlink:href="#DejaVuSans-28" x="244.677734"/>
      <use xlink:href="#DejaVuSans-73" x="283.691406"/>
      <use xlink:href="#DejaVuSans-29" x="335.791016"/>
     </g>
    </g>
   </g>
   <g id="matplotlib.axis_2">
    <g id="ytick_1">
     <g id="line2d_13">
      <path d="M 57.6 257.849449 
L 414.72 257.849449 
" clip-path="url(#pebfa5c7086)" style="fill: none; stroke: #b0b0b0; stroke-width: 0.8; stroke-linecap: square"/>
     </g>
     <g id="line2d_14">
      <defs>
       <path id="m15412298ca" d="M 0 0 
L -3.5 0 
" style="stroke: #000000; stroke-width: 0.8"/>
      </defs>
      <g>
       <use xlink:href="#m15412298ca" x="57.6" y="257.849449" style="stroke: #000000; stroke-width: 0.8"/>
      </g>
     </g>
     <g id="text_8">
      <!-- 4 -->
      <g transform="translate(44.2375 261.648668) scale(0.1 -0.1)">
       <defs>
        <path id="DejaVuSans-34" d="M 2419 4116 
L 825 1625 
L 2419 1625 
L 2419 4116 
z
M 2253 4666 
L 3047 4666 
L 3047 1625 
L 3713 1625 
L 3713 1100 
L 3047 1100 
L 3047 0 
L 2419 0 
L 2419 1100 
L 313 1100 
L 313 1709 
L 2253 4666 
z
" transform="scale(0.015625)"/>
       </defs>
       <use xlink:href="#DejaVuSans-34"/>
      </g>
     </g>
    </g>
    <g id="ytick_2">
     <g id="line2d_15">
      <path d="M 57.6 206.779087 
L 414.72 206.779087 
" clip-path="url(#pebfa5c7086)" style="fill: none; stroke: #b0b0b0; stroke-width: 0.8; stroke-linecap: square"/>
     </g>
     <g id="line2d_16">
      <g>
       <use xlink:href="#m15412298ca" x="57.6" y="206.779087" style="stroke: #000000; stroke-width: 0.8"/>
      </g>
     </g>
     <g id="text_9">
      <!-- 5 -->
      <g transform="translate(44.2375 210.578306) scale(0.1 -0.1)">
       <use xlink:href="#DejaVuSans-35"/>
      </g>
     </g>
    </g>
    <g id="ytick_3">
     <g id="line2d_17">
      <path d="M 57.6 155.708725 
L 414.72 155.708725 
" clip-path="url(#pebfa5c7086)" style="fill: none; stroke: #b0b0b0; stroke-width: 0.8; stroke-linecap: square"/>
     </g>
     <g id="line2d_18">
      <g>
       <use xlink:href="#m15412298ca" x="57.6" y="155.708725" style="stroke: #000000; stroke-width: 0.8"/>
      </g>
     </g>
     <g id="text_10">
      <!-- 6 -->
      <g transform="translate(44.2375 159.507943) scale(0.1 -0.1)">
       <defs>
        <path id="DejaVuSans-36" d="M 2113 2584 
Q 1688 2584 1439 2293 
Q 1191 2003 1191 1497 
Q 1191 994 1439 701 
Q 1688 409 2113 409 
Q 2538 409 2786 701 
Q 3034 994 3034 1497 
Q 3034 2003 2786 2293 
Q 2538 2584 2113 2584 
z
M 3366 4563 
L 3366 3988 
Q 3128 4100 2886 4159 
Q 2644 4219 2406 4219 
Q 1781 4219 1451 3797 
Q 1122 3375 1075 2522 
Q 1259 2794 1537 2939 
Q 1816 3084 2150 3084 
Q 2853 3084 3261 2657 
Q 3669 2231 3669 1497 
Q 3669 778 3244 343 
Q 2819 -91 2113 -91 
Q 1303 -91 875 529 
Q 447 1150 447 2328 
Q 447 3434 972 4092 
Q 1497 4750 2381 4750 
Q 2619 4750 2861 4703 
Q 3103 4656 3366 4563 
z
" transform="scale(0.015625)"/>
       </defs>
       <use xlink:href="#DejaVuSans-36"/>
      </g>
     </g>
    </g>
    <g id="ytick_4">
     <g id="line2d_19">
      <path d="M 57.6 104.638362 
L 414.72 104.638362 
" clip-path="url(#pebfa5c7086)" style="fill: none; stroke: #b0b0b0; stroke-width: 0.8; stroke-linecap: square"/>
     </g>
     <g id="line2d_20">
      <g>
       <use xlink:href="#m15412298ca" x="57.6" y="104.638362" style="stroke: #000000; stroke-width: 0.8"/>
      </g>
     </g>
     <g id="text_11">
      <!-- 7 -->
      <g transform="translate(44.2375 108.437581) scale(0.1 -0.1)">
       <defs>
        <path id="DejaVuSans-37" d="M 525 4666 
L 3525 4666 
L 3525 4397 
L 1831 0 
L 1172 0 
L 2766 4134 
L 525 4134 
L 525 4666 
z
" transform="scale(0.015625)"/>
       </defs>
       <use xlink:href="#DejaVuSans-37"/>
      </g>
     </g>
    </g>
    <g id="ytick_5">
     <g id="line2d_21">
      <path d="M 57.6 53.568 
L 414.72 53.568 
" clip-path="url(#pebfa5c7086)" style="fill: none; stroke: #b0b0b0; stroke-width: 0.8; stroke-linecap: square"/>
     </g>
     <g id="line2d_22">
      <g>
       <use xlink:href="#m15412298ca" x="57.6" y="53.568" style="stroke: #000000; stroke-width: 0.8"/>
      </g>
     </g>
     <g id="text_12">
      <!-- 8 -->
      <g transform="translate(44.2375 57.367219) scale(0.1 -0.1)">
       <defs>
        <path id="DejaVuSans-38" d="M 2034 2216 
Q 1584 2216 1326 1975 
Q 1069 1734 1069 1313 
Q 1069 891 1326 650 
Q 1584 409 2034 409 
Q 2484 409 2743 651 
Q 3003 894 3003 1313 
Q 3003 1734 2745 1975 
Q 2488 2216 2034 2216 
z
M 1403 2484 
Q 997 2584 770 2862 
Q 544 3141 544 3541 
Q 544 4100 942 4425 
Q 1341 4750 2034 4750 
Q 2731 4750 3128 4425 
Q 3525 4100 3525 3541 
Q 3525 3141 3298 2862 
Q 3072 2584 2669 2484 
Q 3125 2378 3379 2068 
Q 3634 1759 3634 1313 
Q 3634 634 3220 271 
Q 2806 -91 2034 -91 
Q 1263 -91 848 271 
Q 434 634 434 1313 
Q 434 1759 690 2068 
Q 947 2378 1403 2484 
z
M 1172 3481 
Q 1172 3119 1398 2916 
Q 1625 2713 2034 2713 
Q 2441 2713 2670 2916 
Q 2900 3119 2900 3481 
Q 2900 3844 2670 4047 
Q 2441 4250 2034 4250 
Q 1625 4250 1398 4047 
Q 1172 3844 1172 3481 
z
" transform="scale(0.015625)"/>
       </defs>
       <use xlink:href="#DejaVuSans-38"/>
      </g>
     </g>
    </g>
    <g id="text_13">
     <!-- Velocity(m/s) -->
     <g transform="translate(38.157812 207.204563) rotate(-90) scale(0.1 -0.1)">
      <defs>
       <path id="DejaVuSans-56" d="M 1831 0 
L 50 4666 
L 709 4666 
L 2188 738 
L 3669 4666 
L 4325 4666 
L 2547 0 
L 1831 0 
z
" transform="scale(0.015625)"/>
       <path id="DejaVuSans-6c" d="M 603 4863 
L 1178 4863 
L 1178 0 
L 603 0 
L 603 4863 
z
" transform="scale(0.015625)"/>
       <path id="DejaVuSans-6f" d="M 1959 3097 
Q 1497 3097 1228 2736 
Q 959 2375 959 1747 
Q 959 1119 1226 758 
Q 1494 397 1959 397 
Q 2419 397 2687 759 
Q 2956 1122 2956 1747 
Q 2956 2369 2687 2733 
Q 2419 3097 1959 3097 
z
M 1959 3584 
Q 2709 3584 3137 3096 
Q 3566 2609 3566 1747 
Q 3566 888 3137 398 
Q 2709 -91 1959 -91 
Q 1206 -91 779 398 
Q 353 888 353 1747 
Q 353 2609 779 3096 
Q 1206 3584 1959 3584 
z
" transform="scale(0.015625)"/>
       <path id="DejaVuSans-63" d="M 3122 3366 
L 3122 2828 
Q 2878 2963 2633 3030 
Q 2388 3097 2138 3097 
Q 1578 3097 1268 2742 
Q 959 2388 959 1747 
Q 959 1106 1268 751 
Q 1578 397 2138 397 
Q 2388 397 2633 464 
Q 2878 531 3122 666 
L 3122 134 
Q 2881 22 2623 -34 
Q 2366 -91 2075 -91 
Q 1284 -91 818 406 
Q 353 903 353 1747 
Q 353 2603 823 3093 
Q 1294 3584 2113 3584 
Q 2378 3584 2631 3529 
Q 2884 3475 3122 3366 
z
" transform="scale(0.015625)"/>
       <path id="DejaVuSans-74" d="M 1172 4494 
L 1172 3500 
L 2356 3500 
L 2356 3053 
L 1172 3053 
L 1172 1153 
Q 1172 725 1289 603 
Q 1406 481 1766 481 
L 2356 481 
L 2356 0 
L 1766 0 
Q 1100 0 847 248 
Q 594 497 594 1153 
L 594 3053 
L 172 3053 
L 172 3500 
L 594 3500 
L 594 4494 
L 1172 4494 
z
" transform="scale(0.015625)"/>
       <path id="DejaVuSans-79" d="M 2059 -325 
Q 1816 -950 1584 -1140 
Q 1353 -1331 966 -1331 
L 506 -1331 
L 506 -850 
L 844 -850 
Q 1081 -850 1212 -737 
Q 1344 -625 1503 -206 
L 1606 56 
L 191 3500 
L 800 3500 
L 1894 763 
L 2988 3500 
L 3597 3500 
L 2059 -325 
z
" transform="scale(0.015625)"/>
       <path id="DejaVuSans-2f" d="M 1625 4666 
L 2156 4666 
L 531 -594 
L 0 -594 
L 1625 4666 
z
" transform="scale(0.015625)"/>
      </defs>
      <use xlink:href="#DejaVuSans-56"/>
      <use xlink:href="#DejaVuSans-65" x="60.658203"/>
      <use xlink:href="#DejaVuSans-6c" x="122.181641"/>
      <use xlink:href="#DejaVuSans-6f" x="149.964844"/>
      <use xlink:href="#DejaVuSans-63" x="211.146484"/>
      <use xlink:href="#DejaVuSans-69" x="266.126953"/>
      <use xlink:href="#DejaVuSans-74" x="293.910156"/>
      <use xlink:href="#DejaVuSans-79" x="333.119141"/>
      <use xlink:href="#DejaVuSans-28" x="392.298828"/>
      <use xlink:href="#DejaVuSans-6d" x="431.3125"/>
      <use xlink:href="#DejaVuSans-2f" x="528.724609"/>
      <use xlink:href="#DejaVuSans-73" x="562.416016"/>
      <use xlink:href="#DejaVuSans-29" x="614.515625"/>
     </g>
    </g>
   </g>
   <g id="line2d_23">
    <path d="M 73.832727 54.054905 
L 75.689222 53.791331 
L 75.689222 53.791331 
L 78.706026 53.630919 
L 78.706026 53.630919 
L 85.43582 53.571728 
L 85.43582 53.571728 
L 87.060253 53.56989 
L 87.060253 53.56989 
L 87.292315 53.940763 
L 87.292315 53.940763 
L 87.524377 54.084372 
L 87.524377 54.084372 
L 87.756439 54.852573 
L 87.756439 54.852573 
L 88.452625 60.586855 
L 88.452625 60.586855 
L 89.14881 67.527266 
L 89.14881 67.527266 
L 89.612934 72.531651 
L 89.612934 72.531651 
L 91.005305 87.407529 
L 91.005305 87.407529 
L 91.469429 92.421055 
L 91.469429 92.421055 
L 94.022109 116.531322 
L 94.022109 116.531322 
L 94.486233 119.951657 
L 94.486233 119.951657 
L 95.646542 126.70607 
L 95.646542 126.70607 
L 96.342728 129.320873 
L 96.342728 129.320873 
L 97.038914 130.991333 
L 97.038914 130.991333 
L 97.503037 131.670671 
L 97.503037 131.670671 
L 98.199223 132.198432 
L 98.199223 132.198432 
L 100.055718 132.412366 
L 100.055718 132.412366 
L 100.751903 132.188269 
L 100.751903 132.188269 
L 101.448089 131.565824 
L 101.448089 131.565824 
L 102.608398 129.209182 
L 102.608398 129.209182 
L 103.304584 126.655051 
L 103.304584 126.655051 
L 104.232831 121.161157 
L 104.232831 121.161157 
L 104.696955 117.805885 
L 104.696955 117.805885 
L 106.089326 103.213499 
L 106.089326 103.213499 
L 107.945821 78.211442 
L 107.945821 78.211442 
L 108.642007 71.965332 
L 108.642007 71.965332 
L 109.338192 67.302353 
L 109.338192 67.302353 
L 110.034378 63.821243 
L 110.034378 63.821243 
L 110.730563 61.222426 
L 110.730563 61.222426 
L 111.426749 59.282365 
L 111.426749 59.282365 
L 112.122935 57.83401 
L 112.122935 57.83401 
L 113.051182 56.45705 
L 113.051182 56.45705 
L 113.979429 55.524557 
L 113.979429 55.524557 
L 114.907677 54.893072 
L 114.907677 54.893072 
L 116.067986 54.382062 
L 116.067986 54.382062 
L 117.460357 54.021709 
L 117.460357 54.021709 
L 119.316852 53.776061 
L 119.316852 53.776061 
L 122.333657 53.626629 
L 122.333657 53.626629 
L 129.295512 53.571166 
L 129.295512 53.571166 
L 131.384069 53.639039 
L 131.384069 53.639039 
L 131.616131 54.912836 
L 131.616131 54.912836 
L 132.544378 72.416641 
L 132.544378 72.416641 
L 134.632935 118.795373 
L 134.632935 118.795373 
L 135.097059 125.936031 
L 135.097059 125.936031 
L 135.561183 134.145643 
L 135.561183 134.145643 
L 137.185616 157.035328 
L 137.185616 157.035328 
L 139.274172 175.974415 
L 139.274172 175.974415 
L 140.898605 185.635855 
L 140.898605 185.635855 
L 141.826853 189.800183 
L 141.826853 189.800183 
L 142.523039 193.031252 
L 142.523039 193.031252 
L 143.91541 197.532645 
L 143.91541 197.532645 
L 144.611595 199.312447 
L 144.611595 199.312447 
L 145.307781 200.7559 
L 145.307781 200.7559 
L 146.46809 201.933735 
L 146.46809 201.933735 
L 146.932214 202.208392 
L 146.932214 202.208392 
L 147.164276 202.33045 
L 147.164276 202.33045 
L 147.396338 202.306243 
L 147.396338 202.306243 
L 147.860461 202.395156 
L 147.860461 202.395156 
L 148.556647 202.475337 
L 148.556647 202.475337 
L 149.949018 202.291841 
L 149.949018 202.291841 
L 150.877266 201.768472 
L 150.877266 201.768472 
L 151.805513 200.554172 
L 151.805513 200.554172 
L 152.73376 198.155907 
L 152.73376 198.155907 
L 153.662008 194.008024 
L 153.662008 194.008024 
L 154.590255 187.486134 
L 154.590255 187.486134 
L 154.822317 185.4233 
L 154.822317 185.4233 
L 156.44675 164.652728 
L 156.44675 164.652728 
L 156.910874 161.267989 
L 156.910874 161.267989 
L 157.374998 159.905483 
L 157.374998 159.905483 
L 157.839121 159.502027 
L 157.839121 159.502027 
L 158.071183 159.638181 
L 158.071183 159.638181 
L 158.767369 162.708735 
L 158.767369 162.708735 
L 159.695616 165.871982 
L 159.695616 165.871982 
L 160.15974 166.948137 
L 160.15974 166.948137 
L 160.623864 167.534118 
L 160.623864 167.534118 
L 161.320049 168.000186 
L 161.320049 168.000186 
L 162.016235 168.229186 
L 162.016235 168.229186 
L 163.408606 167.960964 
L 163.408606 167.960964 
L 163.87273 167.705664 
L 163.87273 167.705664 
L 164.336854 167.328611 
L 164.336854 167.328611 
L 164.800977 166.836191 
L 164.800977 166.836191 
L 165.961287 163.961082 
L 165.961287 163.961082 
L 167.58572 155.863468 
L 167.58572 155.863468 
L 168.978091 144.195371 
L 168.978091 144.195371 
L 169.442215 139.513853 
L 169.442215 139.513853 
L 171.530771 113.105675 
L 171.530771 113.105675 
L 171.994895 110.732282 
L 171.994895 110.732282 
L 172.226957 111.076752 
L 172.226957 111.076752 
L 172.459019 115.470437 
L 172.459019 115.470437 
L 172.691081 117.596037 
L 172.691081 117.596037 
L 172.923143 121.844376 
L 172.923143 121.844376 
L 173.387266 132.746009 
L 173.387266 132.746009 
L 175.939947 189.950483 
L 175.939947 189.950483 
L 177.100256 208.664707 
L 177.100256 208.664707 
L 177.796442 219.575328 
L 177.796442 219.575328 
L 178.492627 228.772283 
L 178.492627 228.772283 
L 179.188813 238.192416 
L 179.188813 238.192416 
L 179.420875 240.030387 
L 179.420875 240.030387 
L 179.652937 243.529064 
L 180.349122 248.969794 
L 180.349122 248.969794 
L 180.581184 250.544089 
L 180.581184 250.544089 
L 181.27737 256.670337 
L 181.27737 256.670337 
L 182.901803 264.471233 
L 182.901803 264.471233 
L 183.597988 266.948809 
L 183.597988 266.948809 
L 184.294174 268.446039 
L 184.294174 268.446039 
L 185.222421 269.686283 
L 185.222421 269.686283 
L 185.918607 269.989385 
L 185.918607 269.989385 
L 186.846854 270.175843 
L 186.846854 270.175843 
L 188.471287 270.088972 
L 188.471287 270.088972 
L 189.399535 269.504523 
L 189.399535 269.504523 
L 189.631597 269.330884 
L 189.631597 269.330884 
L 190.327782 268.211013 
L 190.327782 268.211013 
L 190.791906 267.395522 
L 190.791906 267.395522 
L 191.488091 265.182745 
L 191.488091 265.182745 
L 191.952215 263.578216 
L 191.952215 263.578216 
L 192.648401 259.82863 
L 192.648401 259.82863 
L 193.344586 255.386939 
L 193.344586 255.386939 
L 193.80871 251.35238 
L 193.80871 251.35238 
L 194.272834 246.305556 
L 194.272834 246.305556 
L 195.201081 237.670477 
L 195.201081 237.670477 
L 195.665205 236.655402 
L 195.665205 236.655402 
L 195.897267 239.634898 
L 195.897267 239.634898 
L 196.129329 240.220624 
L 196.129329 240.220624 
L 196.361391 242.26921 
L 196.361391 242.26921 
L 197.289638 255.801681 
L 197.289638 255.801681 
L 197.5217 260.875675 
L 197.5217 260.875675 
L 197.985824 265.398875 
L 197.985824 265.398875 
L 198.682009 274.622131 
L 198.682009 274.622131 
L 200.07438 285.046562 
L 200.07438 285.046562 
L 201.466752 291.4658 
L 201.466752 291.4658 
L 202.162937 293.313628 
L 202.162937 293.313628 
L 202.859123 294.370836 
L 202.859123 294.370836 
L 203.555308 295.065648 
L 203.555308 295.065648 
L 204.251494 295.2423 
L 204.251494 295.2423 
L 204.94768 295.335402 
L 204.94768 295.335402 
L 205.875927 295.184795 
L 205.875927 295.184795 
L 206.804174 294.726949 
L 206.804174 294.726949 
L 207.268298 294.292954 
L 207.268298 294.292954 
L 207.732422 293.783169 
L 207.732422 293.783169 
L 208.196546 293.023804 
L 208.196546 293.023804 
L 208.660669 291.805674 
L 208.660669 291.805674 
L 208.892731 291.333988 
L 208.892731 291.333988 
L 209.356855 289.668532 
L 209.356855 289.668532 
L 209.588917 289.002983 
L 209.588917 289.002983 
L 210.05304 286.895565 
L 210.05304 286.895565 
L 210.285102 286.035999 
L 210.285102 286.035999 
L 210.749226 283.380494 
L 210.749226 283.380494 
L 210.981288 282.212106 
L 210.981288 282.212106 
L 212.605721 268.661454 
L 212.605721 268.661454 
L 212.837783 266.25272 
L 212.837783 266.25272 
L 213.533968 256.571873 
L 213.533968 256.571873 
L 213.998092 252.026815 
L 213.998092 252.026815 
L 214.694278 249.357163 
L 214.694278 249.357163 
L 215.158401 249.290363 
L 215.158401 249.290363 
L 215.390463 251.751444 
L 215.390463 251.751444 
L 215.622525 252.715193 
L 215.622525 252.715193 
L 216.318711 257.987901 
L 216.318711 257.987901 
L 216.782834 261.980225 
L 216.782834 261.980225 
L 217.943144 269.45238 
L 217.943144 269.45238 
L 218.871391 273.602052 
L 218.871391 273.602052 
L 219.567577 275.612896 
L 219.567577 275.612896 
L 220.495824 277.408019 
L 220.495824 277.408019 
L 221.19201 278.187251 
L 221.19201 278.187251 
L 222.120257 278.802802 
L 222.120257 278.802802 
L 222.816443 278.819349 
L 222.816443 278.819349 
L 223.280567 278.864546 
L 223.280567 278.864546 
L 225.137062 278.562261 
L 225.137062 278.562261 
L 226.529433 277.675373 
L 226.529433 277.675373 
L 227.225618 276.675211 
L 227.225618 276.675211 
L 227.689742 275.984126 
L 227.689742 275.984126 
L 228.617989 273.599192 
L 228.617989 273.599192 
L 229.082113 272.14481 
L 229.082113 272.14481 
L 229.314175 271.438966 
L 229.314175 271.438966 
L 230.242423 267.468552 
L 230.242423 267.468552 
L 230.706546 265.075957 
L 230.706546 265.075957 
L 231.634794 260.194856 
L 231.634794 260.194856 
L 232.563041 254.204353 
L 232.563041 254.204353 
L 233.491289 247.575216 
L 233.491289 247.575216 
L 234.651598 237.655411 
L 234.651598 237.655411 
L 235.347783 230.853503 
L 235.347783 230.853503 
L 236.276031 221.224084 
L 236.276031 221.224084 
L 236.972217 213.105224 
L 236.972217 213.105224 
L 239.524897 176.298507 
L 239.524897 176.298507 
L 240.917268 153.210414 
L 240.917268 153.210414 
L 245.326444 80.586877 
L 245.326444 80.586877 
L 246.022629 73.738648 
L 246.022629 73.738648 
L 246.718815 68.626198 
L 246.718815 68.626198 
L 247.415 64.809557 
L 247.415 64.809557 
L 248.111186 61.960291 
L 248.111186 61.960291 
L 248.807371 59.833159 
L 248.807371 59.833159 
L 249.503557 58.245177 
L 249.503557 58.245177 
L 250.431805 56.735537 
L 250.431805 56.735537 
L 251.360052 55.713159 
L 251.360052 55.713159 
L 252.288299 55.020748 
L 252.288299 55.020748 
L 253.448609 54.460506 
L 253.448609 54.460506 
L 254.84098 54.065425 
L 254.84098 54.065425 
L 256.697475 53.796131 
L 256.697475 53.796131 
L 259.482217 53.638835 
L 259.482217 53.638835 
L 265.747887 53.573107 
L 265.747887 53.573107 
L 282.920465 53.568 
L 282.920465 53.568 
L 283.384589 55.77521 
L 283.384589 55.77521 
L 283.848713 62.14251 
L 283.848713 62.14251 
L 284.544898 76.579846 
L 284.544898 76.579846 
L 285.937269 96.12958 
L 285.937269 96.12958 
L 286.633455 101.527258 
L 286.633455 101.527258 
L 287.097579 103.873941 
L 287.097579 103.873941 
L 287.561703 105.328425 
L 287.561703 105.328425 
L 288.48995 106.211125 
L 288.48995 106.211125 
L 288.722012 106.344419 
L 288.722012 106.344419 
L 289.186136 106.245955 
L 289.186136 106.245955 
L 289.650259 106.021348 
L 289.650259 106.021348 
L 290.346445 104.864247 
L 290.346445 104.864247 
L 290.810569 103.113708 
L 290.810569 103.113708 
L 291.274692 101.213533 
L 291.274692 101.213533 
L 292.435002 93.114437 
L 292.435002 93.114437 
L 292.899125 88.817071 
L 292.899125 88.817071 
L 293.827373 78.165887 
L 293.827373 78.165887 
L 294.523558 71.931319 
L 294.523558 71.931319 
L 295.219744 67.276971 
L 295.219744 67.276971 
L 295.91593 63.802296 
L 295.91593 63.802296 
L 296.612115 61.220996 
L 296.612115 61.220996 
L 296.844177 60.80467 
L 296.844177 60.80467 
L 297.308301 61.1544 
L 297.308301 61.1544 
L 297.772424 64.190942 
L 297.772424 64.190942 
L 299.396857 82.530513 
L 299.396857 82.530513 
L 299.860981 87.987279 
L 299.860981 87.987279 
L 300.325105 93.498537 
L 300.325105 93.498537 
L 301.253352 104.005294 
L 301.253352 104.005294 
L 302.645724 122.064234 
L 302.645724 122.064234 
L 304.966342 150.687231 
L 304.966342 150.687231 
L 305.89459 159.308215 
L 305.89459 159.308215 
L 306.358713 163.756648 
L 306.358713 163.756648 
L 307.286961 170.786432 
L 307.286961 170.786432 
L 308.911394 178.522571 
L 308.911394 178.522571 
L 309.607579 180.307633 
L 309.607579 180.307633 
L 310.071703 181.316119 
L 310.071703 181.316119 
L 310.303765 181.712579 
L 310.303765 181.712579 
L 310.999951 182.001739 
L 310.999951 182.001739 
L 311.232012 182.234007 
L 311.232012 182.234007 
L 311.696136 182.212608 
L 311.696136 182.212608 
L 312.392322 182.341714 
L 312.392322 182.341714 
L 313.320569 182.14157 
L 313.320569 182.14157 
L 314.248817 181.60625 
L 314.248817 181.60625 
L 314.945002 180.669262 
L 314.945002 180.669262 
L 315.409126 179.732478 
L 315.409126 179.732478 
L 316.801497 174.282352 
L 316.801497 174.282352 
L 317.497683 170.466272 
L 317.497683 170.466272 
L 318.890054 158.675249 
L 318.890054 158.675249 
L 319.58624 151.43914 
L 319.58624 151.43914 
L 320.282425 142.725464 
L 320.282425 142.725464 
L 321.674796 122.569218 
L 321.674796 122.569218 
L 323.763353 86.806532 
L 323.763353 86.806532 
L 324.459539 78.381863 
L 324.459539 78.381863 
L 325.155724 72.092548 
L 325.155724 72.092548 
L 325.85191 67.397343 
L 325.85191 67.397343 
L 326.548095 63.892129 
L 326.548095 63.892129 
L 327.244281 61.275386 
L 327.244281 61.275386 
L 327.940467 59.321893 
L 327.940467 59.321893 
L 328.636652 57.863477 
L 328.636652 57.863477 
L 329.5649 56.47707 
L 329.5649 56.47707 
L 330.493147 55.53809 
L 330.493147 55.53809 
L 331.189333 55.038775 
L 331.189333 55.038775 
L 331.421395 54.951139 
L 331.421395 54.951139 
L 331.653456 55.970554 
L 331.653456 55.970554 
L 331.885518 58.393536 
L 331.885518 58.393536 
L 332.11758 59.649203 
L 332.11758 59.649203 
L 332.581704 64.827125 
L 332.581704 64.827125 
L 334.438199 103.593616 
L 334.438199 103.593616 
L 334.902322 114.100883 
L 334.902322 114.100883 
L 336.062632 132.995896 
L 336.062632 132.995896 
L 336.990879 142.151025 
L 336.990879 142.151025 
L 337.687065 146.451762 
L 337.687065 146.451762 
L 338.151189 148.574501 
L 338.151189 148.574501 
L 338.847374 150.519414 
L 338.847374 150.519414 
L 339.311498 151.249618 
L 339.311498 151.249618 
L 339.775622 151.565335 
L 339.775622 151.565335 
L 340.239745 151.85327 
L 340.239745 151.85327 
L 341.167993 151.868693 
L 341.167993 151.868693 
L 341.400055 151.91338 
L 341.400055 151.91338 
L 342.560364 151.544703 
L 342.560364 151.544703 
L 343.720673 150.267433 
L 343.720673 150.267433 
L 344.880983 147.730666 
L 344.880983 147.730666 
L 345.577168 145.565895 
L 345.577168 145.565895 
L 346.041292 144.844527 
L 346.041292 144.844527 
L 346.273354 144.780689 
L 346.273354 144.780689 
L 346.505416 144.892788 
L 346.505416 144.892788 
L 346.737477 145.775999 
L 346.737477 145.775999 
L 347.897787 157.476832 
L 347.897787 157.476832 
L 348.593972 171.041222 
L 348.593972 171.041222 
L 349.058096 180.0508 
L 349.058096 180.0508 
L 349.290158 188.685879 
L 349.290158 188.685879 
L 349.52222 192.837593 
L 349.52222 192.837593 
L 349.986343 203.91547 
L 349.986343 203.91547 
L 350.450467 213.613476 
L 350.450467 213.613476 
L 350.682529 219.40174 
L 350.682529 219.40174 
L 350.914591 222.404575 
L 350.914591 222.404575 
L 351.146653 227.81977 
L 351.146653 227.81977 
L 351.378715 230.346272 
L 351.378715 230.346272 
L 351.610777 235.534765 
L 351.610777 235.534765 
L 352.0749 240.152496 
L 352.0749 240.152496 
L 352.771086 249.305276 
L 352.771086 249.305276 
L 353.003148 251.251363 
L 353.003148 251.251363 
L 353.23521 255.083223 
L 353.23521 255.083223 
L 354.163457 262.561865 
L 354.163457 262.561865 
L 354.395519 265.449587 
L 354.395519 265.449587 
L 354.859643 268.136348 
L 354.859643 268.136348 
L 355.555828 273.403847 
L 355.555828 273.403847 
L 356.948199 279.772935 
L 356.948199 279.772935 
L 357.876447 282.273952 
L 357.876447 282.273952 
L 358.340571 283.004003 
L 358.340571 283.004003 
L 358.804694 283.419256 
L 358.804694 283.419256 
L 359.965004 283.807646 
L 359.965004 283.807646 
L 360.661189 283.86602 
L 360.661189 283.86602 
L 361.821498 283.700807 
L 361.821498 283.700807 
L 362.749746 283.062989 
L 362.749746 283.062989 
L 363.21387 282.39024 
L 363.21387 282.39024 
L 363.677993 281.634092 
L 363.677993 281.634092 
L 364.374179 279.743671 
L 364.374179 279.743671 
L 365.070365 277.508832 
L 365.070365 277.508832 
L 365.76655 274.438993 
L 365.76655 274.438993 
L 366.462736 270.954973 
L 366.462736 270.954973 
L 368.783354 254.852896 
L 368.783354 254.852896 
L 369.711602 246.590273 
L 369.711602 246.590273 
L 370.407787 239.90169 
L 370.407787 239.90169 
L 371.336035 230.015744 
L 371.336035 230.015744 
L 372.496344 217.315924 
L 372.496344 217.315924 
L 373.19253 209.835086 
L 373.19253 209.835086 
L 373.656653 206.167213 
L 373.656653 206.167213 
L 374.120777 203.63826 
L 374.120777 203.63826 
L 374.584901 201.948393 
L 374.584901 201.948393 
L 375.049025 200.814784 
L 375.049025 200.814784 
L 375.74521 199.814775 
L 375.74521 199.814775 
L 376.673458 199.055001 
L 376.673458 199.055001 
L 377.601705 198.642199 
L 377.601705 198.642199 
L 378.994076 198.047791 
L 378.994076 198.047791 
L 379.226138 197.868177 
L 379.226138 197.868177 
L 380.154386 196.089141 
L 380.154386 196.089141 
L 381.082633 192.857817 
L 381.082633 192.857817 
L 382.242942 186.135119 
L 382.242942 186.135119 
L 382.939128 180.732487 
L 382.939128 180.732487 
L 383.403252 175.724987 
L 383.403252 175.724987 
L 384.099437 167.5929 
L 384.099437 167.5929 
L 385.259747 150.15324 
L 385.259747 150.15324 
L 386.88418 118.887657 
L 386.88418 118.887657 
L 388.276551 91.477172 
L 388.276551 91.477172 
L 388.972736 81.868692 
L 388.972736 81.868692 
L 389.668922 74.695605 
L 389.668922 74.695605 
L 390.365108 69.340622 
L 390.365108 69.340622 
L 391.061293 65.342885 
L 391.061293 65.342885 
L 391.757479 62.358435 
L 391.757479 62.358435 
L 392.453664 60.130388 
L 392.453664 60.130388 
L 393.14985 58.467078 
L 393.14985 58.467078 
L 394.078097 56.885837 
L 394.078097 56.885837 
L 395.006345 55.814943 
L 395.006345 55.814943 
L 395.934592 55.089693 
L 395.934592 55.089693 
L 397.094902 54.508103 
L 397.094902 54.508103 
L 398.487273 54.107303 
L 398.487273 54.107303 
" clip-path="url(#pebfa5c7086)" style="fill: none; stroke: #1f77b4; stroke-width: 1.5; stroke-linecap: square"/>
   </g>
   <g id="line2d_24">
    <path d="M 73.832727 53.568 
L 86.828192 53.568 
L 86.828192 53.568 
L 87.060253 54.647372 
L 87.060253 54.647372 
L 87.292315 54.357905 
L 87.292315 54.357905 
L 87.524377 56.316045 
L 87.524377 56.316045 
L 87.988501 63.181945 
L 87.988501 63.181945 
L 88.220563 63.945753 
L 88.220563 63.945753 
L 89.14881 76.270615 
L 89.14881 76.270615 
L 89.380872 76.331797 
L 89.380872 76.331797 
L 90.077058 86.23577 
L 90.077058 86.23577 
L 90.30912 86.492552 
L 90.30912 86.492552 
L 90.773243 92.375194 
L 90.773243 92.375194 
L 91.005305 96.230393 
L 91.005305 96.230393 
L 91.237367 96.186422 
L 91.237367 96.186422 
L 91.701491 102.444073 
L 91.701491 102.444073 
L 91.933553 103.242252 
L 92.629738 112.481493 
L 92.629738 112.481493 
L 92.8618 112.417808 
L 92.8618 112.417808 
L 93.093862 114.29827 
L 93.093862 114.29827 
L 93.325924 117.770187 
L 93.557986 118.124921 
L 93.790047 119.714231 
L 93.790047 119.714231 
L 94.022109 122.417437 
L 94.022109 122.417437 
L 94.254171 122.607674 
L 94.254171 122.607674 
L 94.950357 126.71179 
L 94.950357 126.71179 
L 95.182419 127.604858 
L 95.182419 127.604858 
L 95.41448 129.093712 
L 95.41448 129.093712 
L 95.646542 129.444157 
L 95.646542 129.444157 
L 95.878604 130.0021 
L 95.878604 130.0021 
L 96.110666 130.963347 
L 96.110666 130.963347 
L 96.57479 131.472314 
L 96.57479 131.472314 
L 96.806852 131.956716 
L 96.806852 131.956716 
L 97.270975 132.21646 
L 97.270975 132.21646 
L 97.967161 132.407055 
L 97.967161 132.407055 
L 98.199223 132.306089 
L 98.199223 132.306089 
L 98.431285 132.505467 
L 98.431285 132.505467 
L 98.663347 132.393776 
L 98.663347 132.393776 
L 98.895408 132.594892 
L 99.359532 132.260994 
L 99.359532 132.260994 
L 99.591594 132.447605 
L 99.591594 132.447605 
L 99.823656 132.190516 
L 99.823656 132.190516 
L 100.055718 131.59284 
L 100.055718 131.59284 
L 100.28778 131.800901 
L 100.519841 131.227483 
L 100.519841 131.227483 
L 100.751903 129.911195 
L 100.751903 129.911195 
L 100.983965 130.27594 
L 100.983965 130.27594 
L 101.216027 129.092384 
L 101.216027 129.092384 
L 101.448089 126.83252 
L 101.448089 126.83252 
L 101.680151 127.559711 
L 101.680151 127.559711 
L 101.912213 125.45265 
L 101.912213 125.45265 
L 102.144274 124.949505 
L 102.144274 124.949505 
L 102.376336 123.41101 
L 102.376336 123.41101 
L 102.608398 120.106656 
L 102.608398 120.106656 
L 102.84046 119.897063 
L 102.84046 119.897063 
L 103.072522 117.636178 
L 103.072522 117.636178 
L 103.304584 112.953128 
L 103.304584 112.953128 
L 103.536646 112.978867 
L 103.536646 112.978867 
L 103.768708 110.135729 
L 103.768708 110.135729 
L 104.000769 103.947687 
L 104.000769 103.947687 
L 104.232831 104.177452 
L 104.232831 104.177452 
L 104.464893 100.427458 
L 104.464893 100.427458 
L 104.696955 93.484544 
L 104.929017 93.686578 
L 104.929017 93.686578 
L 105.161079 89.427157 
L 105.161079 89.427157 
L 105.393141 81.564926 
L 105.393141 81.564926 
L 105.625202 80.842229 
L 105.625202 80.842229 
L 105.857264 76.44502 
L 105.857264 76.44502 
L 106.089326 68.524926 
L 106.089326 68.524926 
L 106.321388 66.346724 
L 106.321388 66.346724 
L 106.55345 61.617762 
L 106.55345 61.617762 
L 106.785512 54.38722 
L 107.017574 53.568 
L 107.017574 53.568 
L 130.919945 53.568 
L 130.919945 53.568 
L 131.152007 53.771618 
L 131.152007 53.771618 
L 131.384069 57.339495 
L 131.384069 57.339495 
L 131.848193 76.14825 
L 131.848193 76.14825 
L 132.080255 74.567418 
L 132.080255 74.567418 
L 132.544378 88.073844 
L 132.544378 88.073844 
L 132.77644 96.882868 
L 132.77644 96.882868 
L 133.008502 96.262772 
L 133.008502 96.262772 
L 133.472626 109.461856 
L 133.472626 109.461856 
L 133.704688 117.666718 
L 133.704688 117.666718 
L 133.93675 115.997586 
L 133.93675 115.997586 
L 134.168811 121.320445 
L 134.168811 121.320445 
L 134.400873 129.441399 
L 134.400873 129.441399 
L 134.632935 128.713799 
L 134.632935 128.713799 
L 134.864997 133.035373 
L 134.864997 133.035373 
L 135.097059 140.905418 
L 135.097059 140.905418 
L 135.329121 139.969043 
L 135.329121 139.969043 
L 135.561183 144.201959 
L 135.561183 144.201959 
L 135.793245 151.446443 
L 135.793245 151.446443 
L 136.025306 149.7959 
L 136.025306 149.7959 
L 136.257368 154.507192 
L 136.257368 154.507192 
L 136.48943 155.775167 
L 136.48943 155.775167 
L 136.721492 158.674278 
L 136.721492 158.674278 
L 136.953554 163.720796 
L 136.953554 163.720796 
L 137.185616 163.414017 
L 137.185616 163.414017 
L 137.417678 167.044711 
L 137.417678 167.044711 
L 137.649739 167.978022 
L 137.649739 167.978022 
L 137.881801 170.150197 
L 137.881801 170.150197 
L 138.113863 174.166626 
L 138.113863 174.166626 
L 138.345925 173.705205 
L 138.345925 173.705205 
L 138.577987 176.682659 
L 138.577987 176.682659 
L 138.810049 177.160166 
L 138.810049 177.160166 
L 139.042111 179.338062 
L 139.042111 179.338062 
L 139.506234 181.413817 
L 139.506234 181.413817 
L 139.738296 184.370127 
L 139.738296 184.370127 
L 139.970358 184.083622 
L 139.970358 184.083622 
L 140.20242 186.230876 
L 140.20242 186.230876 
L 140.434482 186.395629 
L 140.434482 186.395629 
L 140.666544 187.963948 
L 140.666544 187.963948 
L 140.898605 188.463059 
L 141.362729 190.683649 
L 141.362729 190.683649 
L 141.594791 191.785748 
L 141.594791 191.785748 
L 141.826853 193.530107 
L 141.826853 193.530107 
L 142.058915 193.346662 
L 142.290977 195.256949 
L 142.290977 195.256949 
L 142.523039 195.289941 
L 142.523039 195.289941 
L 142.7551 196.594329 
L 142.7551 196.594329 
L 142.987162 196.71511 
L 143.219224 197.680493 
L 143.219224 197.680493 
L 143.451286 197.91363 
L 143.451286 197.91363 
L 143.683348 198.935394 
L 143.683348 198.935394 
L 143.91541 199.022163 
L 143.91541 199.022163 
L 144.147472 200.202195 
L 144.147472 200.202195 
L 144.379533 200.311945 
L 144.379533 200.311945 
L 144.611595 200.996696 
L 144.611595 200.996696 
L 144.843657 201.094036 
L 144.843657 201.094036 
L 145.075719 201.613116 
L 145.075719 201.613116 
L 145.307781 201.526602 
L 145.307781 201.526602 
L 145.539843 202.057632 
L 145.539843 202.057632 
L 145.771905 201.981588 
L 145.771905 201.981588 
L 146.003966 202.34955 
L 146.003966 202.34955 
L 146.236028 202.095833 
L 146.236028 202.095833 
L 146.46809 202.50603 
L 146.46809 202.50603 
L 146.700152 202.356343 
L 146.700152 202.356343 
L 146.932214 202.562922 
L 146.932214 202.562922 
L 147.164276 202.06994 
L 147.396338 202.570021 
L 147.396338 202.570021 
L 147.6284 202.376669 
L 147.6284 202.376669 
L 147.860461 202.576507 
L 147.860461 202.576507 
L 148.092523 202.069838 
L 148.092523 202.069838 
L 148.324585 202.577682 
L 148.324585 202.577682 
L 148.556647 202.286274 
L 148.556647 202.286274 
L 148.788709 202.518491 
L 148.788709 202.518491 
L 149.020771 201.793292 
L 149.020771 201.793292 
L 149.252833 202.0561 
L 149.252833 202.0561 
L 149.484894 201.725113 
L 149.484894 201.725113 
L 149.716956 202.009524 
L 149.716956 202.009524 
L 149.949018 200.831024 
L 149.949018 200.831024 
L 150.18108 201.146281 
L 150.413142 200.23253 
L 150.413142 200.23253 
L 150.645204 200.555397 
L 150.645204 200.555397 
L 150.877266 198.652975 
L 150.877266 198.652975 
L 151.109327 198.961542 
L 151.109327 198.961542 
L 151.341389 197.211157 
L 151.341389 197.211157 
L 151.573451 197.459206 
L 151.573451 197.459206 
L 151.805513 194.545335 
L 151.805513 194.545335 
L 152.037575 194.673675 
L 152.037575 194.673675 
L 152.269637 191.938806 
L 152.269637 191.938806 
L 152.501699 191.862098 
L 152.501699 191.862098 
L 152.73376 187.885709 
L 152.73376 187.885709 
L 152.965822 187.496399 
L 152.965822 187.496399 
L 153.197884 183.81678 
L 153.197884 183.81678 
L 153.429946 182.925091 
L 153.429946 182.925091 
L 153.662008 178.254911 
L 153.662008 178.254911 
L 153.89407 176.441555 
L 154.590255 165.266952 
L 154.590255 165.266952 
L 154.822317 151.732948 
L 154.822317 151.732948 
L 155.054379 155.826544 
L 155.054379 155.826544 
L 155.286441 142.039487 
L 155.286441 142.039487 
L 155.518503 144.136691 
L 155.518503 144.136691 
L 155.750565 137.598051 
L 155.750565 137.598051 
L 155.982627 137.932664 
L 156.678812 147.36107 
L 156.678812 147.36107 
L 156.910874 153.630008 
L 156.910874 153.630008 
L 157.142936 153.520819 
L 157.142936 153.520819 
L 157.374998 157.144772 
L 157.374998 157.144772 
L 157.60706 158.064192 
L 157.839121 159.897567 
L 157.839121 159.897567 
L 158.071183 163.162342 
L 158.071183 163.162342 
L 158.303245 163.284553 
L 158.303245 163.284553 
L 158.535307 164.651605 
L 158.535307 164.651605 
L 158.999431 165.873412 
L 158.999431 165.873412 
L 159.231493 166.992772 
L 159.231493 166.992772 
L 159.463554 167.029798 
L 159.463554 167.029798 
L 159.695616 167.793658 
L 159.695616 167.793658 
L 159.927678 167.738093 
L 159.927678 167.738093 
L 160.15974 168.06857 
L 160.15974 168.06857 
L 160.391802 167.915716 
L 160.391802 167.915716 
L 160.855926 168.290572 
L 160.855926 168.290572 
L 161.087988 168.161671 
L 161.087988 168.161671 
L 161.320049 168.3372 
L 161.552111 168.207634 
L 161.552111 168.207634 
L 161.784173 168.38444 
L 162.016235 167.901978 
L 162.016235 167.901978 
L 162.248297 168.085065 
L 162.248297 168.085065 
L 162.480359 167.824453 
L 162.480359 167.824453 
L 162.712421 167.949218 
L 162.712421 167.949218 
L 162.944482 167.64203 
L 162.944482 167.64203 
L 163.176544 166.704072 
L 163.176544 166.704072 
L 163.408606 167.104106 
L 163.408606 167.104106 
L 163.640668 165.988167 
L 163.640668 165.988167 
L 163.87273 166.173757 
L 163.87273 166.173757 
L 164.104792 165.034275 
L 164.104792 165.034275 
L 164.336854 164.788678 
L 164.336854 164.788678 
L 164.568915 164.328687 
L 164.568915 164.328687 
L 164.800977 160.927452 
L 165.033039 161.88257 
L 165.033039 161.88257 
L 165.265101 159.258319 
L 165.265101 159.258319 
L 165.497163 158.87187 
L 165.497163 158.87187 
L 165.729225 157.028025 
L 165.729225 157.028025 
L 165.961287 152.134719 
L 165.961287 152.134719 
L 166.193348 153.915746 
L 166.193348 153.915746 
L 166.42541 149.174323 
L 166.42541 149.174323 
L 166.657472 149.503318 
L 166.657472 149.503318 
L 166.889534 145.986409 
L 166.889534 145.986409 
L 167.121596 144.84279 
L 167.121596 144.84279 
L 167.353658 142.444322 
L 167.353658 142.444322 
L 167.58572 136.028914 
L 167.58572 136.028914 
L 167.817782 136.636345 
L 167.817782 136.636345 
L 168.049843 131.960393 
L 168.049843 131.960393 
L 168.281905 130.604782 
L 168.281905 130.604782 
L 168.513967 127.117084 
L 168.746029 120.097667 
L 168.746029 120.097667 
L 168.978091 120.281419 
L 168.978091 120.281419 
L 169.210153 115.463083 
L 169.210153 115.463083 
L 169.442215 106.535473 
L 169.442215 106.535473 
L 169.674276 108.429979 
L 169.674276 108.429979 
L 169.906338 101.385078 
L 170.1384 99.742298 
L 170.370462 94.621677 
L 170.370462 94.621677 
L 170.602524 86.39179 
L 170.602524 86.39179 
L 170.834586 85.5525 
L 170.834586 85.5525 
L 171.066648 86.594488 
L 171.066648 86.594488 
L 171.298709 94.061077 
L 171.298709 94.061077 
L 171.530771 96.376352 
L 171.530771 96.376352 
L 171.994895 111.732955 
L 171.994895 111.732955 
L 172.226957 123.840768 
L 172.226957 123.840768 
L 172.459019 121.645508 
L 172.459019 121.645508 
L 172.691081 129.937854 
L 172.691081 129.937854 
L 172.923143 142.483493 
L 172.923143 142.483493 
L 173.155204 139.97987 
L 173.155204 139.97987 
L 173.387266 148.46087 
L 173.387266 148.46087 
L 173.619328 161.231525 
L 173.619328 161.231525 
L 173.85139 156.977261 
L 173.85139 156.977261 
L 174.083452 166.986797 
L 174.083452 166.986797 
L 174.315514 167.713426 
L 174.315514 167.713426 
L 174.547576 173.812351 
L 174.547576 173.812351 
L 174.779637 185.762509 
L 174.779637 185.762509 
L 175.011699 182.840416 
L 175.011699 182.840416 
L 175.243761 192.581475 
L 175.243761 192.581475 
L 175.475823 191.655161 
L 175.707885 199.389103 
L 175.707885 199.389103 
L 175.939947 200.004808 
L 175.939947 200.004808 
L 176.172009 206.333345 
L 176.172009 206.333345 
L 176.40407 207.602801 
L 176.40407 207.602801 
L 176.636132 213.489528 
L 176.636132 213.489528 
L 176.868194 214.809646 
L 176.868194 214.809646 
L 177.100256 220.235157 
L 177.100256 220.235157 
L 177.332318 221.712112 
L 177.332318 221.712112 
L 177.56438 226.829056 
L 177.56438 226.829056 
L 177.796442 227.849697 
L 177.796442 227.849697 
L 178.028503 233.210093 
L 178.028503 233.210093 
L 178.260565 233.793623 
L 178.260565 233.793623 
L 178.492627 239.284964 
L 178.492627 239.284964 
L 178.724689 238.886564 
L 178.724689 238.886564 
L 178.956751 244.984978 
L 178.956751 244.984978 
L 179.188813 243.531924 
L 179.188813 243.531924 
L 179.420875 250.194308 
L 179.420875 250.194308 
L 179.652937 248.070547 
L 179.652937 248.070547 
L 179.884998 250.008412 
L 179.884998 250.008412 
L 180.11706 253.132795 
L 180.11706 253.132795 
L 180.349122 253.543247 
L 180.349122 253.543247 
L 180.581184 257.533681 
L 180.581184 257.533681 
L 180.813246 256.7497 
L 180.813246 256.7497 
L 181.045308 261.266108 
L 181.045308 261.266108 
L 181.27737 260.113041 
L 181.27737 260.113041 
L 181.509431 260.969082 
L 181.741493 263.291303 
L 181.741493 263.291303 
L 181.973555 263.197793 
L 181.973555 263.197793 
L 182.205617 265.85432 
L 182.205617 265.85432 
L 182.437679 265.109255 
L 182.437679 265.109255 
L 183.365926 268.63122 
L 183.365926 268.63122 
L 183.597988 268.599199 
L 183.597988 268.599199 
L 183.83005 268.863079 
L 183.83005 268.863079 
L 184.062112 269.333335 
L 184.062112 269.333335 
L 184.294174 269.460194 
L 184.294174 269.460194 
L 184.758297 270.092139 
L 184.758297 270.092139 
L 185.222421 270.066757 
L 185.222421 270.066757 
L 185.454483 270.181716 
L 185.454483 270.181716 
L 185.686545 270.078299 
L 185.686545 270.078299 
L 186.150669 270.292386 
L 186.150669 270.292386 
L 186.382731 270.139328 
L 186.382731 270.139328 
L 186.614792 270.247546 
L 186.614792 270.247546 
L 186.846854 270.073958 
L 186.846854 270.073958 
L 187.078916 270.181205 
L 187.078916 270.181205 
L 187.310978 269.871311 
L 187.310978 269.871311 
L 187.54304 270.293816 
L 187.54304 270.293816 
L 187.775102 270.066757 
L 187.775102 270.066757 
L 188.007164 269.640881 
L 188.007164 269.640881 
L 188.239225 269.658705 
L 188.239225 269.658705 
L 188.471287 268.787751 
L 188.471287 268.787751 
L 188.703349 269.263931 
L 188.703349 269.263931 
L 188.935411 267.324942 
L 188.935411 267.324942 
L 189.167473 267.951269 
L 189.167473 267.951269 
L 189.399535 267.634224 
L 189.399535 267.634224 
L 189.631597 265.932509 
L 189.863658 266.089652 
L 189.863658 266.089652 
L 190.09572 263.00536 
L 190.09572 263.00536 
L 190.327782 264.092035 
L 190.327782 264.092035 
L 190.559844 263.163729 
L 190.559844 263.163729 
L 190.791906 260.46512 
L 190.791906 260.46512 
L 191.023968 260.354502 
L 191.023968 260.354502 
L 191.25603 255.651534 
L 191.25603 255.651534 
L 191.488091 256.95771 
L 191.720153 255.361403 
L 191.720153 255.361403 
L 191.952215 251.591287 
L 191.952215 251.591287 
L 192.184277 250.951478 
L 192.184277 250.951478 
L 192.416339 244.509411 
L 192.416339 244.509411 
L 192.648401 245.79378 
L 192.648401 245.79378 
L 192.880463 243.318706 
L 192.880463 243.318706 
L 193.112525 238.512321 
L 193.112525 238.512321 
L 193.344586 236.856262 
L 193.576648 228.739598 
L 193.576648 228.739598 
L 193.80871 229.421541 
L 193.80871 229.421541 
L 194.040772 216.886422 
L 194.040772 216.886422 
L 194.272834 220.589688 
L 194.272834 220.589688 
L 194.504896 216.521218 
L 194.504896 216.521218 
L 194.736958 219.926999 
L 194.736958 219.926999 
L 194.969019 220.932217 
L 194.969019 220.932217 
L 195.201081 232.437195 
L 195.201081 232.437195 
L 195.433143 231.48463 
L 195.433143 231.48463 
L 195.665205 245.311012 
L 195.665205 245.311012 
L 195.897267 241.336563 
L 195.897267 241.336563 
L 196.825514 261.745607 
L 196.825514 261.745607 
L 197.057576 260.966989 
L 197.289638 270.542018 
L 197.289638 270.542018 
L 197.5217 267.270042 
L 197.5217 267.270042 
L 197.753762 269.822794 
L 197.753762 269.822794 
L 197.985824 275.178951 
L 197.985824 275.178951 
L 198.217886 274.674938 
L 198.217886 274.674938 
L 198.449947 281.904407 
L 198.449947 281.904407 
L 198.682009 279.994325 
L 198.682009 279.994325 
L 198.914071 280.831112 
L 198.914071 280.831112 
L 199.146133 285.314222 
L 199.146133 285.314222 
L 199.378195 284.424474 
L 199.378195 284.424474 
L 199.610257 285.66482 
L 199.610257 285.66482 
L 199.842319 288.633949 
L 199.842319 288.633949 
L 200.07438 288.419811 
L 200.07438 288.419811 
L 200.306442 289.310529 
L 200.306442 289.310529 
L 200.538504 290.846215 
L 200.538504 290.846215 
L 200.770566 291.110606 
L 200.770566 291.110606 
L 201.002628 293.137027 
L 201.002628 293.137027 
L 201.23469 292.948475 
L 201.466752 293.370572 
L 201.466752 293.370572 
L 201.698813 294.22503 
L 201.698813 294.22503 
L 201.930875 294.205317 
L 201.930875 294.205317 
L 202.162937 294.419863 
L 202.162937 294.419863 
L 202.394999 294.866729 
L 202.394999 294.866729 
L 202.627061 294.890681 
L 202.627061 294.890681 
L 203.323246 295.43744 
L 203.323246 295.43744 
L 203.78737 295.266814 
L 203.78737 295.266814 
L 204.483556 295.488 
L 204.483556 295.488 
L 204.715618 295.031942 
L 204.715618 295.031942 
L 204.94768 295.096903 
L 204.94768 295.096903 
L 205.179741 294.668065 
L 205.179741 294.668065 
L 205.411803 294.995018 
L 205.411803 294.995018 
L 205.643865 294.749114 
L 205.643865 294.749114 
L 205.875927 294.246173 
L 205.875927 294.246173 
L 206.107989 294.138006 
L 206.107989 294.138006 
L 206.340051 293.273998 
L 206.340051 293.273998 
L 206.572113 293.548858 
L 206.572113 293.548858 
L 206.804174 292.969874 
L 206.804174 292.969874 
L 207.036236 291.645823 
L 207.036236 291.645823 
L 207.268298 291.683054 
L 207.268298 291.683054 
L 207.50036 291.16949 
L 207.50036 291.16949 
L 207.732422 289.548976 
L 207.732422 289.548976 
L 207.964484 289.444895 
L 207.964484 289.444895 
L 208.196546 285.382963 
L 208.196546 285.382963 
L 208.428607 286.834587 
L 208.428607 286.834587 
L 208.660669 286.724939 
L 208.660669 286.724939 
L 208.892731 281.116443 
L 208.892731 281.116443 
L 209.124793 282.663415 
L 209.124793 282.663415 
L 209.356855 282.500194 
L 209.356855 282.500194 
L 209.588917 275.938521 
L 209.588917 275.938521 
L 209.820979 278.154617 
L 209.820979 278.154617 
L 210.05304 277.637172 
L 210.05304 277.637172 
L 210.285102 269.648644 
L 210.285102 269.648644 
L 210.517164 272.29843 
L 210.517164 272.29843 
L 210.749226 270.795276 
L 210.749226 270.795276 
L 210.981288 262.086655 
L 210.981288 262.086655 
L 211.21335 264.990771 
L 211.21335 264.990771 
L 211.445412 262.393384 
L 211.445412 262.393384 
L 211.677474 253.200923 
L 211.677474 253.200923 
L 211.909535 255.361046 
L 211.909535 255.361046 
L 212.141597 251.679332 
L 212.141597 251.679332 
L 212.373659 242.924749 
L 212.373659 242.924749 
L 212.605721 242.716331 
L 212.837783 226.176836 
L 212.837783 226.176836 
L 213.069845 231.262781 
L 213.069845 231.262781 
L 213.301907 226.698775 
L 213.301907 226.698775 
L 213.533968 231.277387 
L 213.533968 231.277387 
L 213.76603 230.561636 
L 213.76603 230.561636 
L 213.998092 242.886242 
L 213.998092 242.886242 
L 214.230154 238.964804 
L 214.230154 238.964804 
L 214.462216 242.642585 
L 214.462216 242.642585 
L 214.694278 248.890278 
L 214.694278 248.890278 
L 214.92634 249.061312 
L 214.92634 249.061312 
L 215.158401 256.439958 
L 215.158401 256.439958 
L 215.390463 254.551274 
L 215.390463 254.551274 
L 215.854587 260.304248 
L 215.854587 260.304248 
L 216.086649 261.102631 
L 216.086649 261.102631 
L 216.318711 265.425074 
L 216.318711 265.425074 
L 216.550773 264.708863 
L 216.550773 264.708863 
L 217.014896 268.585308 
L 217.014896 268.585308 
L 217.246958 269.020887 
L 217.246958 269.020887 
L 217.47902 271.70157 
L 217.47902 271.70157 
L 217.711082 271.584364 
L 217.711082 271.584364 
L 218.175206 273.638414 
L 218.175206 273.638414 
L 218.407268 274.11822 
L 218.407268 274.11822 
L 218.639329 275.749611 
L 218.639329 275.749611 
L 218.871391 275.736486 
L 218.871391 275.736486 
L 219.103453 276.144947 
L 219.103453 276.144947 
L 219.335515 276.858298 
L 219.335515 276.858298 
L 219.567577 277.043632 
L 219.567577 277.043632 
L 219.799639 277.856264 
L 219.799639 277.856264 
L 220.031701 277.720978 
L 220.031701 277.720978 
L 220.495824 278.337959 
L 220.495824 278.337959 
L 221.424072 278.799074 
L 221.424072 278.799074 
L 221.888195 279.069645 
L 221.888195 279.069645 
L 222.120257 278.677628 
L 222.120257 278.677628 
L 222.816443 278.970977 
L 222.816443 278.970977 
L 223.280567 278.576458 
L 223.280567 278.576458 
L 223.74469 278.758422 
L 223.74469 278.758422 
L 223.976752 278.427945 
L 223.976752 278.427945 
L 224.208814 278.524315 
L 224.208814 278.524315 
L 224.440876 277.779658 
L 224.440876 277.779658 
L 224.672938 278.084344 
L 224.672938 278.084344 
L 224.905 278.06601 
L 224.905 278.06601 
L 225.137062 277.041896 
L 225.137062 277.041896 
L 225.369123 277.447292 
L 225.369123 277.447292 
L 225.601185 277.210479 
L 225.601185 277.210479 
L 225.833247 276.012981 
L 225.833247 276.012981 
L 226.065309 276.268333 
L 226.065309 276.268333 
L 226.297371 275.886378 
L 226.297371 275.886378 
L 226.529433 274.682445 
L 226.529433 274.682445 
L 226.761495 274.581121 
L 226.761495 274.581121 
L 226.993556 272.172132 
L 226.993556 272.172132 
L 227.225618 273.273465 
L 227.225618 273.273465 
L 227.45768 272.317479 
L 227.45768 272.317479 
L 227.689742 270.134476 
L 227.689742 270.134476 
L 227.921804 270.300353 
L 228.153866 266.630794 
L 228.153866 266.630794 
L 228.385928 267.824359 
L 228.385928 267.824359 
L 228.617989 266.977408 
L 228.617989 266.977408 
L 228.850051 263.940867 
L 228.850051 263.940867 
L 229.082113 264.541505 
L 229.082113 264.541505 
L 229.314175 259.595596 
L 229.314175 259.595596 
L 229.546237 261.039866 
L 229.546237 261.039866 
L 229.778299 260.060949 
L 229.778299 260.060949 
L 230.010361 256.393331 
L 230.010361 256.393331 
L 230.242423 256.817215 
L 230.474484 251.359887 
L 230.474484 251.359887 
L 230.706546 253.044903 
L 230.706546 253.044903 
L 230.938608 251.822227 
L 230.938608 251.822227 
L 231.17067 247.789558 
L 231.17067 247.789558 
L 231.402732 248.070292 
L 231.402732 248.070292 
L 231.634794 242.199499 
L 231.634794 242.199499 
L 231.866856 244.385361 
L 231.866856 244.385361 
L 232.098917 242.321659 
L 232.098917 242.321659 
L 232.330979 238.327548 
L 232.330979 238.327548 
L 232.563041 238.087619 
L 232.563041 238.087619 
L 232.795103 232.219737 
L 232.795103 232.219737 
L 233.027165 233.645673 
L 233.027165 233.645673 
L 233.259227 231.57339 
L 233.259227 231.57339 
L 233.491289 228.074764 
L 233.491289 228.074764 
L 233.72335 226.799844 
L 233.955412 221.450325 
L 233.955412 221.450325 
L 234.187474 221.654351 
L 234.187474 221.654351 
L 234.419536 214.455575 
L 234.419536 214.455575 
L 234.651598 216.321533 
L 234.651598 216.321533 
L 234.88366 207.062017 
L 234.88366 207.062017 
L 235.115722 209.699188 
L 235.115722 209.699188 
L 235.347783 207.662911 
L 235.347783 207.662911 
L 235.579845 202.414154 
L 235.579845 202.414154 
L 235.811907 201.174779 
L 235.811907 201.174779 
L 236.043969 194.771985 
L 236.043969 194.771985 
L 236.276031 194.456983 
L 236.276031 194.456983 
L 236.508093 186.716504 
L 236.508093 186.716504 
L 236.740155 187.104843 
L 236.972217 178.273603 
L 236.972217 178.273603 
L 237.204278 179.61471 
L 237.204278 179.61471 
L 237.43634 170.452023 
L 237.43634 170.452023 
L 237.668402 171.526084 
L 237.668402 171.526084 
L 237.900464 162.828189 
L 237.900464 162.828189 
L 238.132526 163.46427 
L 238.132526 163.46427 
L 238.364588 154.66357 
L 238.364588 154.66357 
L 238.59665 154.620671 
L 238.59665 154.620671 
L 238.828711 147.556567 
L 238.828711 147.556567 
L 239.060773 146.46744 
L 239.060773 146.46744 
L 239.292835 140.464119 
L 239.292835 140.464119 
L 239.756959 133.63208 
L 239.756959 133.63208 
L 239.989021 122.92099 
L 239.989021 122.92099 
L 240.221083 124.97167 
L 240.221083 124.97167 
L 240.453144 116.889938 
L 240.453144 116.889938 
L 240.685206 116.213409 
L 240.685206 116.213409 
L 240.917268 111.140539 
L 241.14933 101.828931 
L 241.14933 101.828931 
L 241.381392 103.378865 
L 241.381392 103.378865 
L 241.613454 96.483702 
L 241.613454 96.483702 
L 241.845516 95.41577 
L 241.845516 95.41577 
L 242.077577 90.93026 
L 242.077577 90.93026 
L 242.309639 83.392274 
L 242.309639 83.392274 
L 242.541701 83.255253 
L 242.541701 83.255253 
L 242.773763 78.670615 
L 242.773763 78.670615 
L 243.005825 71.854714 
L 243.005825 71.854714 
L 243.237887 71.238958 
L 243.237887 71.238958 
L 243.469949 67.562709 
L 243.469949 67.562709 
L 243.702011 61.335189 
L 243.702011 61.335189 
L 243.934072 59.552476 
L 243.934072 59.552476 
L 244.398196 53.568 
L 244.398196 53.568 
L 282.688403 53.568 
L 282.688403 53.568 
L 282.920465 56.992881 
L 282.920465 56.992881 
L 283.152527 57.734167 
L 283.152527 57.734167 
L 283.848713 77.163682 
L 283.848713 77.163682 
L 284.080775 83.835872 
L 284.080775 83.835872 
L 284.312836 83.398454 
L 284.312836 83.398454 
L 284.77696 91.689217 
L 284.77696 91.689217 
L 285.009022 96.386924 
L 285.009022 96.386924 
L 285.241084 95.840318 
L 285.241084 95.840318 
L 285.937269 101.746401 
L 285.937269 101.746401 
L 286.401393 104.600672 
L 286.401393 104.600672 
L 286.633455 105.479798 
L 286.633455 105.479798 
L 286.865517 105.752513 
L 286.865517 105.752513 
L 287.097579 106.351824 
L 287.097579 106.351824 
L 287.329641 106.474444 
L 287.329641 106.474444 
L 287.561703 106.07727 
L 287.561703 106.07727 
L 287.793764 106.61356 
L 287.793764 106.61356 
L 288.257888 106.350445 
L 288.257888 106.350445 
L 288.48995 106.598341 
L 288.48995 106.598341 
L 288.722012 106.289569 
L 288.954074 105.333685 
L 288.954074 105.333685 
L 289.186136 105.488939 
L 289.186136 105.488939 
L 289.418197 104.513546 
L 289.418197 104.513546 
L 289.650259 102.345865 
L 289.650259 102.345865 
L 289.882321 101.742724 
L 289.882321 101.742724 
L 290.114383 100.463922 
L 290.114383 100.463922 
L 290.578507 92.861281 
L 290.578507 92.861281 
L 290.810569 94.229354 
L 290.810569 94.229354 
L 291.04263 90.706265 
L 291.04263 90.706265 
L 291.274692 84.935417 
L 291.274692 84.935417 
L 291.506754 85.902689 
L 291.506754 85.902689 
L 291.738816 82.466267 
L 291.738816 82.466267 
L 291.970878 75.506398 
L 291.970878 75.506398 
L 292.20294 75.178015 
L 292.20294 75.178015 
L 292.435002 71.934741 
L 292.899125 57.537955 
L 292.899125 57.537955 
L 293.131187 58.639593 
L 293.131187 58.639593 
L 293.363249 54.322003 
L 293.363249 54.322003 
L 293.595311 53.568 
L 293.595311 53.568 
L 296.147991 53.568 
L 296.147991 53.568 
L 296.380053 53.704613 
L 296.380053 53.704613 
L 296.612115 56.736763 
L 296.612115 56.736763 
L 296.844177 61.466798 
L 296.844177 61.466798 
L 297.076239 61.386413 
L 297.076239 61.386413 
L 297.772424 72.236362 
L 297.772424 72.236362 
L 298.004486 72.908653 
L 298.004486 72.908653 
L 298.700672 82.389253 
L 298.700672 82.389253 
L 298.932734 87.016789 
L 298.932734 87.016789 
L 299.164796 86.66231 
L 299.164796 86.66231 
L 299.628919 93.731929 
L 299.628919 93.731929 
L 299.860981 98.067496 
L 299.860981 98.067496 
L 300.093043 97.387648 
L 300.093043 97.387648 
L 300.557167 105.448951 
L 300.557167 105.448951 
L 300.789229 105.733107 
L 300.789229 105.733107 
L 301.021291 108.807338 
L 301.021291 108.807338 
L 301.253352 113.434109 
L 301.253352 113.434109 
L 301.485414 114.383047 
L 301.485414 114.383047 
L 301.949538 121.723901 
L 301.949538 121.723901 
L 302.1816 127.628248 
L 302.1816 127.628248 
L 302.413662 126.472525 
L 302.413662 126.472525 
L 302.645724 130.551668 
L 302.645724 130.551668 
L 302.877785 136.646406 
L 302.877785 136.646406 
L 303.109847 135.375009 
L 303.109847 135.375009 
L 303.341909 139.691272 
L 303.341909 139.691272 
L 303.573971 141.29294 
L 303.573971 141.29294 
L 303.806033 144.110186 
L 303.806033 144.110186 
L 304.038095 148.738182 
L 304.038095 148.738182 
L 304.270157 149.477885 
L 304.270157 149.477885 
L 304.502218 151.824466 
L 304.502218 151.824466 
L 304.73428 157.194719 
L 304.73428 157.194719 
L 304.966342 156.679777 
L 304.966342 156.679777 
L 305.198404 160.314505 
L 305.198404 160.314505 
L 305.430466 161.147565 
L 305.430466 161.147565 
L 305.662528 163.042224 
L 305.662528 163.042224 
L 305.89459 167.121929 
L 305.89459 167.121929 
L 306.126652 167.107221 
L 306.126652 167.107221 
L 306.358713 169.429135 
L 306.358713 169.429135 
L 306.590775 170.118432 
L 306.590775 170.118432 
L 306.822837 171.557646 
L 306.822837 171.557646 
L 307.054899 174.727481 
L 307.054899 174.727481 
L 307.286961 174.114483 
L 307.519023 176.563614 
L 307.519023 176.563614 
L 307.751085 176.630669 
L 307.751085 176.630669 
L 307.983146 177.698959 
L 307.983146 177.698959 
L 308.215208 178.163188 
L 308.215208 178.163188 
L 308.679332 180.493887 
L 308.679332 180.493887 
L 308.911394 180.553537 
L 308.911394 180.553537 
L 309.375518 181.246 
L 309.375518 181.246 
L 309.607579 181.967879 
L 309.607579 181.967879 
L 310.071703 182.467858 
L 310.071703 182.467858 
L 310.303765 181.993925 
L 310.303765 181.993925 
L 310.535827 182.404991 
L 310.535827 182.404991 
L 310.767889 181.877536 
L 310.767889 181.877536 
L 310.999951 182.67643 
L 310.999951 182.67643 
L 311.232012 181.90491 
L 311.232012 181.90491 
L 311.696136 182.390384 
L 311.696136 182.390384 
L 312.16026 182.399015 
L 312.16026 182.399015 
L 312.392322 182.027223 
L 312.624384 182.238808 
L 312.624384 182.238808 
L 312.856446 181.03845 
L 312.856446 181.03845 
L 313.088507 181.687707 
L 313.088507 181.687707 
L 313.320569 180.688107 
L 313.552631 181.261729 
L 313.552631 181.261729 
L 313.784693 179.994623 
L 313.784693 179.994623 
L 314.016755 180.132053 
L 314.016755 180.132053 
L 314.248817 178.55117 
L 314.248817 178.55117 
L 314.480879 178.327124 
L 314.480879 178.327124 
L 315.177064 174.864707 
L 315.177064 174.864707 
L 315.409126 170.696038 
L 315.409126 170.696038 
L 315.641188 171.660348 
L 315.641188 171.660348 
L 315.87325 167.848456 
L 315.87325 167.848456 
L 316.105312 168.154623 
L 316.105312 168.154623 
L 316.337373 164.676834 
L 316.337373 164.676834 
L 316.569435 164.103058 
L 316.569435 164.103058 
L 317.265621 157.157131 
L 317.265621 157.157131 
L 317.497683 150.500058 
L 317.497683 150.500058 
L 317.729745 151.703889 
L 317.729745 151.703889 
L 317.961806 146.353809 
L 317.961806 146.353809 
L 318.193868 145.419987 
L 318.193868 145.419987 
L 318.42593 141.734699 
L 318.42593 141.734699 
L 318.657992 133.111111 
L 318.657992 133.111111 
L 318.890054 135.256423 
L 318.890054 135.256423 
L 319.122116 127.927469 
L 319.122116 127.927469 
L 319.354178 127.897899 
L 319.354178 127.897899 
L 319.58624 122.839993 
L 319.58624 122.839993 
L 319.818301 113.572663 
L 319.818301 113.572663 
L 320.050363 115.467935 
L 320.050363 115.467935 
L 320.282425 108.170797 
L 320.282425 108.170797 
L 320.514487 107.097043 
L 320.514487 107.097043 
L 320.746549 101.917078 
L 320.746549 101.917078 
L 320.978611 93.007496 
L 320.978611 93.007496 
L 321.210673 93.063214 
L 321.210673 93.063214 
L 321.442734 87.405281 
L 321.442734 87.405281 
L 321.674796 77.84685 
L 321.674796 77.84685 
L 321.906858 78.262869 
L 321.906858 78.262869 
L 322.13892 72.334469 
L 322.13892 72.334469 
L 322.370982 63.030572 
L 322.370982 63.030572 
L 322.603044 62.410067 
L 322.603044 62.410067 
L 323.067167 53.568 
L 323.067167 53.568 
L 330.957271 53.568 
L 330.957271 53.568 
L 331.189333 54.095148 
L 331.189333 54.095148 
L 331.653456 63.009531 
L 331.653456 63.009531 
L 331.885518 62.041339 
L 331.885518 62.041339 
L 332.349642 70.714006 
L 332.349642 70.714006 
L 332.581704 78.205875 
L 332.581704 78.205875 
L 332.813766 78.944352 
L 332.813766 78.944352 
L 333.277889 90.211751 
L 333.277889 90.211751 
L 333.509951 100.71815 
L 333.509951 100.71815 
L 333.742013 101.910081 
L 333.742013 101.910081 
L 334.438199 122.464319 
L 334.438199 122.464319 
L 334.670261 121.743206 
L 334.670261 121.743206 
L 334.902322 125.649578 
L 334.902322 125.649578 
L 335.134384 132.455572 
L 335.134384 132.455572 
L 335.366446 132.327742 
L 335.366446 132.327742 
L 335.598508 135.073796 
L 335.598508 135.073796 
L 335.83057 140.088701 
L 335.83057 140.088701 
L 336.062632 140.014241 
L 336.526755 145.611654 
L 336.526755 145.611654 
L 336.758817 145.316315 
L 336.758817 145.316315 
L 336.990879 147.075944 
L 336.990879 147.075944 
L 337.919127 150.296186 
L 337.919127 150.296186 
L 338.151189 150.708477 
L 338.151189 150.708477 
L 338.38325 151.359675 
L 338.847374 151.644239 
L 338.847374 151.644239 
L 339.079436 151.903063 
L 339.079436 151.903063 
L 339.54356 151.77171 
L 339.54356 151.77171 
L 340.007683 152.14432 
L 340.007683 152.14432 
L 340.239745 151.712162 
L 340.239745 151.712162 
L 340.471807 151.899897 
L 340.471807 151.899897 
L 340.703869 151.729628 
L 340.703869 151.729628 
L 341.167993 151.998514 
L 341.167993 151.998514 
L 341.400055 151.147528 
L 341.632116 151.422185 
L 341.632116 151.422185 
L 341.864178 150.812303 
L 341.864178 150.812303 
L 342.09624 150.891308 
L 342.09624 150.891308 
L 342.328302 150.66093 
L 342.328302 150.66093 
L 342.560364 149.003339 
L 342.560364 149.003339 
L 342.792426 149.356236 
L 342.792426 149.356236 
L 343.024488 148.173803 
L 343.024488 148.173803 
L 343.256549 148.040459 
L 343.256549 148.040459 
L 343.488611 147.094636 
L 343.488611 147.094636 
L 343.720673 144.96158 
L 343.720673 144.96158 
L 343.952735 145.286796 
L 343.952735 145.286796 
L 344.648921 141.858902 
L 344.648921 141.858902 
L 344.880983 139.220199 
L 344.880983 139.220199 
L 345.113044 139.331634 
L 345.113044 139.331634 
L 345.345106 139.036039 
L 345.577168 141.814573 
L 345.577168 141.814573 
L 345.80923 141.198818 
L 345.80923 141.198818 
L 346.041292 144.157119 
L 346.041292 144.157119 
L 346.273354 145.106262 
L 346.273354 145.106262 
L 346.505416 147.458614 
L 346.505416 147.458614 
L 346.737477 152.793884 
L 346.737477 152.793884 
L 346.969539 152.536847 
L 346.969539 152.536847 
L 347.201601 157.076134 
L 347.201601 157.076134 
L 347.433663 159.096835 
L 347.433663 159.096835 
L 347.665725 162.968377 
L 347.665725 162.968377 
L 347.897787 172.834149 
L 347.897787 172.834149 
L 348.129849 172.234379 
L 348.129849 172.234379 
L 348.36191 180.600573 
L 348.36191 180.600573 
L 348.593972 183.423793 
L 348.593972 183.423793 
L 348.826034 189.094697 
L 348.826034 189.094697 
L 349.058096 205.13646 
L 349.058096 205.13646 
L 349.290158 200.746962 
L 349.290158 200.746962 
L 349.52222 213.933483 
L 349.754282 211.18554 
L 349.754282 211.18554 
L 349.986343 222.018585 
L 349.986343 222.018585 
L 350.218405 220.217385 
L 350.218405 220.217385 
L 350.450467 230.428853 
L 350.682529 228.125171 
L 350.682529 228.125171 
L 350.914591 238.136238 
L 350.914591 238.136238 
L 351.146653 235.1595 
L 351.146653 235.1595 
L 351.378715 245.419281 
L 351.378715 245.419281 
L 351.610777 242.054101 
L 351.610777 242.054101 
L 351.842838 244.674471 
L 351.842838 244.674471 
L 352.0749 249.459406 
L 352.0749 249.459406 
L 352.306962 250.101871 
L 352.539024 256.215096 
L 352.539024 256.215096 
L 352.771086 254.958816 
L 352.771086 254.958816 
L 353.003148 262.383323 
L 353.003148 262.383323 
L 353.23521 260.212935 
L 353.23521 260.212935 
L 353.467271 261.586472 
L 353.467271 261.586472 
L 353.699333 265.934347 
L 353.699333 265.934347 
L 353.931395 265.450047 
L 353.931395 265.450047 
L 354.163457 270.95104 
L 354.163457 270.95104 
L 354.395519 269.235025 
L 354.395519 269.235025 
L 354.627581 270.772447 
L 354.627581 270.772447 
L 354.859643 273.696225 
L 354.859643 273.696225 
L 355.091704 273.834115 
L 355.091704 273.834115 
L 355.323766 277.311445 
L 355.323766 277.311445 
L 355.555828 276.728068 
L 355.555828 276.728068 
L 355.78789 277.637887 
L 355.78789 277.637887 
L 356.019952 279.319276 
L 356.252014 279.578152 
L 356.252014 279.578152 
L 356.484076 281.481493 
L 356.484076 281.481493 
L 356.716138 281.099794 
L 356.716138 281.099794 
L 357.180261 282.557393 
L 357.180261 282.557393 
L 357.412323 282.681902 
L 357.644385 283.373344 
L 357.644385 283.373344 
L 357.876447 283.544328 
L 357.876447 283.544328 
L 358.340571 283.676651 
L 358.340571 283.676651 
L 358.572632 283.769344 
L 358.572632 283.769344 
L 358.804694 283.714085 
L 358.804694 283.714085 
L 359.036756 284.061466 
L 359.036756 284.061466 
L 359.50088 283.766075 
L 359.50088 283.766075 
L 359.965004 283.967701 
L 359.965004 283.967701 
L 360.197065 283.80402 
L 360.197065 283.80402 
L 360.429127 283.882669 
L 360.429127 283.882669 
L 360.661189 283.553469 
L 360.661189 283.553469 
L 361.125313 283.825317 
L 361.125313 283.825317 
L 361.357375 283.195517 
L 361.357375 283.195517 
L 361.589437 283.075859 
L 361.589437 283.075859 
L 361.821498 282.22615 
L 361.821498 282.22615 
L 362.05356 282.405765 
L 362.05356 282.405765 
L 362.285622 281.792563 
L 362.285622 281.792563 
L 362.517684 280.728257 
L 362.517684 280.728257 
L 362.749746 280.290124 
L 362.749746 280.290124 
L 362.981808 278.33224 
L 362.981808 278.33224 
L 363.21387 278.668589 
L 363.21387 278.668589 
L 363.445932 277.621698 
L 363.445932 277.621698 
L 363.677993 275.813654 
L 363.677993 275.813654 
L 363.910055 275.190902 
L 363.910055 275.190902 
L 364.142117 271.906618 
L 364.142117 271.906618 
L 364.374179 272.699843 
L 364.374179 272.699843 
L 364.606241 271.27309 
L 364.606241 271.27309 
L 365.302426 263.940356 
L 365.302426 263.940356 
L 365.534488 264.544212 
L 365.534488 264.544212 
L 365.76655 263.053111 
L 365.76655 263.053111 
L 365.998612 260.15354 
L 365.998612 260.15354 
L 366.230674 259.240657 
L 366.230674 259.240657 
L 366.462736 254.136532 
L 366.462736 254.136532 
L 366.694798 255.301243 
L 366.694798 255.301243 
L 366.926859 253.491309 
L 366.926859 253.491309 
L 367.158921 249.506442 
L 367.158921 249.506442 
L 367.390983 249.268199 
L 367.390983 249.268199 
L 367.623045 242.634669 
L 367.855107 245.020625 
L 367.855107 245.020625 
L 368.087169 242.674555 
L 368.087169 242.674555 
L 368.319231 237.660518 
L 368.319231 237.660518 
L 368.551292 237.814648 
L 368.551292 237.814648 
L 368.783354 230.157924 
L 368.783354 230.157924 
L 369.015416 232.443323 
L 369.015416 232.443323 
L 369.247478 230.188771 
L 369.247478 230.188771 
L 369.47954 225.105125 
L 369.47954 225.105125 
L 369.711602 224.68262 
L 369.711602 224.68262 
L 369.943664 217.486806 
L 369.943664 217.486806 
L 370.175726 218.975456 
L 370.175726 218.975456 
L 370.407787 209.696737 
L 370.407787 209.696737 
L 370.639849 212.513676 
L 370.639849 212.513676 
L 370.871911 210.074096 
L 370.871911 210.074096 
L 371.103973 205.563357 
L 371.103973 205.563357 
L 371.336035 204.450483 
L 371.336035 204.450483 
L 371.568097 198.820486 
L 371.568097 198.820486 
L 371.800159 198.694802 
L 371.800159 198.694802 
L 372.03222 192.718191 
L 372.03222 192.718191 
L 372.264282 193.433942 
L 372.264282 193.433942 
L 372.496344 187.496859 
L 372.496344 187.496859 
L 372.728406 188.246827 
L 372.728406 188.246827 
L 372.960468 187.647006 
L 372.960468 187.647006 
L 373.19253 187.665953 
L 373.424592 190.43795 
L 373.424592 190.43795 
L 373.656653 190.707806 
L 373.656653 190.707806 
L 373.888715 192.95148 
L 373.888715 192.95148 
L 374.120777 193.330831 
L 374.120777 193.330831 
L 374.352839 194.786642 
L 374.352839 194.786642 
L 374.584901 195.046131 
L 374.584901 195.046131 
L 374.816963 195.999104 
L 374.816963 195.999104 
L 375.281086 196.936041 
L 375.281086 196.936041 
L 375.977272 197.579017 
L 375.977272 197.579017 
L 376.209334 197.34634 
L 376.209334 197.34634 
L 376.90552 197.725844 
L 376.90552 197.725844 
L 377.369643 197.859342 
L 377.369643 197.859342 
L 377.601705 197.785086 
L 377.601705 197.785086 
L 377.833767 197.451136 
L 377.833767 197.451136 
L 378.065829 197.793461 
L 378.065829 197.793461 
L 378.297891 197.309978 
L 378.529953 197.181383 
L 378.529953 197.181383 
L 378.994076 196.113553 
L 378.994076 196.113553 
L 379.226138 192.85368 
L 379.226138 192.85368 
L 379.4582 194.300197 
L 379.4582 194.300197 
L 379.690262 190.680126 
L 379.690262 190.680126 
L 379.922324 191.906172 
L 379.922324 191.906172 
L 380.154386 187.399263 
L 380.154386 187.399263 
L 380.386447 188.465919 
L 380.386447 188.465919 
L 380.618509 184.114775 
L 380.618509 184.114775 
L 380.850571 184.90657 
L 380.850571 184.90657 
L 381.082633 179.52978 
L 381.082633 179.52978 
L 381.314695 180.007799 
L 381.314695 180.007799 
L 381.546757 175.150139 
L 381.546757 175.150139 
L 381.778819 175.12491 
L 381.778819 175.12491 
L 382.01088 169.723658 
L 382.01088 169.723658 
L 382.242942 168.697041 
L 382.242942 168.697041 
L 382.707066 161.991094 
L 382.707066 161.991094 
L 382.939128 158.125834 
L 382.939128 158.125834 
L 383.17119 147.302952 
L 383.17119 147.302952 
L 383.403252 150.429173 
L 383.403252 150.429173 
L 383.635314 140.239512 
L 383.635314 140.239512 
L 383.867375 141.139882 
L 383.867375 141.139882 
L 384.099437 133.237714 
L 384.099437 133.237714 
L 384.331499 131.260934 
L 384.331499 131.260934 
L 384.563561 125.799214 
L 384.563561 125.799214 
L 384.795623 112.52235 
L 384.795623 112.52235 
L 385.027685 114.485392 
L 385.027685 114.485392 
L 385.259747 104.81144 
L 385.259747 104.81144 
L 385.491808 103.014733 
L 385.491808 103.014733 
L 385.72387 96.403777 
L 385.72387 96.403777 
L 385.955932 86.140115 
L 386.187994 84.557241 
L 386.187994 84.557241 
L 386.652118 71.757578 
L 386.652118 71.757578 
L 387.580365 53.568 
L 387.580365 53.568 
L 397.094902 53.626578 
L 397.094902 53.626578 
L 397.326963 53.759361 
L 397.326963 53.759361 
L 397.559025 53.568 
L 397.559025 53.568 
L 398.487273 53.568 
L 398.487273 53.568 
" clip-path="url(#pebfa5c7086)" style="fill: none; stroke: #ff7f0e; stroke-width: 1.5; stroke-linecap: square"/>
   </g>
   <g id="patch_3">
    <path d="M 57.6 307.584 
L 57.6 41.472 
" style="fill: none; stroke: #000000; stroke-width: 0.8; stroke-linejoin: miter; stroke-linecap: square"/>
   </g>
   <g id="patch_4">
    <path d="M 414.72 307.584 
L 414.72 41.472 
" style="fill: none; stroke: #000000; stroke-width: 0.8; stroke-linejoin: miter; stroke-linecap: square"/>
   </g>
   <g id="patch_5">
    <path d="M 57.6 307.584 
L 414.72 307.584 
" style="fill: none; stroke: #000000; stroke-width: 0.8; stroke-linejoin: miter; stroke-linecap: square"/>
   </g>
   <g id="patch_6">
    <path d="M 57.6 41.472 
L 414.72 41.472 
" style="fill: none; stroke: #000000; stroke-width: 0.8; stroke-linejoin: miter; stroke-linecap: square"/>
   </g>
   <g id="text_14">
    <!-- Actual speed vs Expected speed -->
    <g transform="translate(138.808125 35.472) scale(0.12 -0.12)">
     <defs>
      <path id="DejaVuSans-41" d="M 2188 4044 
L 1331 1722 
L 3047 1722 
L 2188 4044 
z
M 1831 4666 
L 2547 4666 
L 4325 0 
L 3669 0 
L 3244 1197 
L 1141 1197 
L 716 0 
L 50 0 
L 1831 4666 
z
" transform="scale(0.015625)"/>
      <path id="DejaVuSans-75" d="M 544 1381 
L 544 3500 
L 1119 3500 
L 1119 1403 
Q 1119 906 1312 657 
Q 1506 409 1894 409 
Q 2359 409 2629 706 
Q 2900 1003 2900 1516 
L 2900 3500 
L 3475 3500 
L 3475 0 
L 2900 0 
L 2900 538 
Q 2691 219 2414 64 
Q 2138 -91 1772 -91 
Q 1169 -91 856 284 
Q 544 659 544 1381 
z
M 1991 3584 
L 1991 3584 
z
" transform="scale(0.015625)"/>
      <path id="DejaVuSans-61" d="M 2194 1759 
Q 1497 1759 1228 1600 
Q 959 1441 959 1056 
Q 959 750 1161 570 
Q 1363 391 1709 391 
Q 2188 391 2477 730 
Q 2766 1069 2766 1631 
L 2766 1759 
L 2194 1759 
z
M 3341 1997 
L 3341 0 
L 2766 0 
L 2766 531 
Q 2569 213 2275 61 
Q 1981 -91 1556 -91 
Q 1019 -91 701 211 
Q 384 513 384 1019 
Q 384 1609 779 1909 
Q 1175 2209 1959 2209 
L 2766 2209 
L 2766 2266 
Q 2766 2663 2505 2880 
Q 2244 3097 1772 3097 
Q 1472 3097 1187 3025 
Q 903 2953 641 2809 
L 641 3341 
Q 956 3463 1253 3523 
Q 1550 3584 1831 3584 
Q 2591 3584 2966 3190 
Q 3341 2797 3341 1997 
z
" transform="scale(0.015625)"/>
      <path id="DejaVuSans-20" transform="scale(0.015625)"/>
      <path id="DejaVuSans-70" d="M 1159 525 
L 1159 -1331 
L 581 -1331 
L 581 3500 
L 1159 3500 
L 1159 2969 
Q 1341 3281 1617 3432 
Q 1894 3584 2278 3584 
Q 2916 3584 3314 3078 
Q 3713 2572 3713 1747 
Q 3713 922 3314 415 
Q 2916 -91 2278 -91 
Q 1894 -91 1617 61 
Q 1341 213 1159 525 
z
M 3116 1747 
Q 3116 2381 2855 2742 
Q 2594 3103 2138 3103 
Q 1681 3103 1420 2742 
Q 1159 2381 1159 1747 
Q 1159 1113 1420 752 
Q 1681 391 2138 391 
Q 2594 391 2855 752 
Q 3116 1113 3116 1747 
z
" transform="scale(0.015625)"/>
      <path id="DejaVuSans-64" d="M 2906 2969 
L 2906 4863 
L 3481 4863 
L 3481 0 
L 2906 0 
L 2906 525 
Q 2725 213 2448 61 
Q 2172 -91 1784 -91 
Q 1150 -91 751 415 
Q 353 922 353 1747 
Q 353 2572 751 3078 
Q 1150 3584 1784 3584 
Q 2172 3584 2448 3432 
Q 2725 3281 2906 2969 
z
M 947 1747 
Q 947 1113 1208 752 
Q 1469 391 1925 391 
Q 2381 391 2643 752 
Q 2906 1113 2906 1747 
Q 2906 2381 2643 2742 
Q 2381 3103 1925 3103 
Q 1469 3103 1208 2742 
Q 947 2381 947 1747 
z
" transform="scale(0.015625)"/>
      <path id="DejaVuSans-76" d="M 191 3500 
L 800 3500 
L 1894 563 
L 2988 3500 
L 3597 3500 
L 2284 0 
L 1503 0 
L 191 3500 
z
" transform="scale(0.015625)"/>
      <path id="DejaVuSans-45" d="M 628 4666 
L 3578 4666 
L 3578 4134 
L 1259 4134 
L 1259 2753 
L 3481 2753 
L 3481 2222 
L 1259 2222 
L 1259 531 
L 3634 531 
L 3634 0 
L 628 0 
L 628 4666 
z
" transform="scale(0.015625)"/>
      <path id="DejaVuSans-78" d="M 3513 3500 
L 2247 1797 
L 3578 0 
L 2900 0 
L 1881 1375 
L 863 0 
L 184 0 
L 1544 1831 
L 300 3500 
L 978 3500 
L 1906 2253 
L 2834 3500 
L 3513 3500 
z
" transform="scale(0.015625)"/>
     </defs>
     <use xlink:href="#DejaVuSans-41"/>
     <use xlink:href="#DejaVuSans-63" x="66.658203"/>
     <use xlink:href="#DejaVuSans-74" x="121.638672"/>
     <use xlink:href="#DejaVuSans-75" x="160.847656"/>
     <use xlink:href="#DejaVuSans-61" x="224.226562"/>
     <use xlink:href="#DejaVuSans-6c" x="285.505859"/>
     <use xlink:href="#DejaVuSans-20" x="313.289062"/>
     <use xlink:href="#DejaVuSans-73" x="345.076172"/>
     <use xlink:href="#DejaVuSans-70" x="397.175781"/>
     <use xlink:href="#DejaVuSans-65" x="460.652344"/>
     <use xlink:href="#DejaVuSans-65" x="522.175781"/>
     <use xlink:href="#DejaVuSans-64" x="583.699219"/>
     <use xlink:href="#DejaVuSans-20" x="647.175781"/>
     <use xlink:href="#DejaVuSans-76" x="678.962891"/>
     <use xlink:href="#DejaVuSans-73" x="738.142578"/>
     <use xlink:href="#DejaVuSans-20" x="790.242188"/>
     <use xlink:href="#DejaVuSans-45" x="822.029297"/>
     <use xlink:href="#DejaVuSans-78" x="885.212891"/>
     <use xlink:href="#DejaVuSans-70" x="944.392578"/>
     <use xlink:href="#DejaVuSans-65" x="1007.869141"/>
     <use xlink:href="#DejaVuSans-63" x="1069.392578"/>
     <use xlink:href="#DejaVuSans-74" x="1124.373047"/>
     <use xlink:href="#DejaVuSans-65" x="1163.582031"/>
     <use xlink:href="#DejaVuSans-64" x="1225.105469"/>
     <use xlink:href="#DejaVuSans-20" x="1288.582031"/>
     <use xlink:href="#DejaVuSans-73" x="1320.369141"/>
     <use xlink:href="#DejaVuSans-70" x="1372.46875"/>
     <use xlink:href="#DejaVuSans-65" x="1435.945312"/>
     <use xlink:href="#DejaVuSans-65" x="1497.46875"/>
     <use xlink:href="#DejaVuSans-64" x="1558.992188"/>
    </g>
   </g>
   <g id="legend_1">
    <g id="patch_7">
     <path d="M 64.6 302.584 
L 176.65 302.584 
Q 178.65 302.584 178.65 300.584 
L 178.65 272.22775 
Q 178.65 270.22775 176.65 270.22775 
L 64.6 270.22775 
Q 62.6 270.22775 62.6 272.22775 
L 62.6 300.584 
Q 62.6 302.584 64.6 302.584 
z
" style="fill: #ffffff; opacity: 0.8; stroke: #cccccc; stroke-linejoin: miter"/>
    </g>
    <g id="line2d_25">
     <path d="M 66.6 278.326187 
L 76.6 278.326187 
L 86.6 278.326187 
" style="fill: none; stroke: #1f77b4; stroke-width: 1.5; stroke-linecap: square"/>
    </g>
    <g id="text_15">
     <!-- Actual speed -->
     <g transform="translate(94.6 281.826187) scale(0.1 -0.1)">
      <use xlink:href="#DejaVuSans-41"/>
      <use xlink:href="#DejaVuSans-63" x="66.658203"/>
      <use xlink:href="#DejaVuSans-74" x="121.638672"/>
      <use xlink:href="#DejaVuSans-75" x="160.847656"/>
      <use xlink:href="#DejaVuSans-61" x="224.226562"/>
      <use xlink:href="#DejaVuSans-6c" x="285.505859"/>
      <use xlink:href="#DejaVuSans-20" x="313.289062"/>
      <use xlink:href="#DejaVuSans-73" x="345.076172"/>
      <use xlink:href="#DejaVuSans-70" x="397.175781"/>
      <use xlink:href="#DejaVuSans-65" x="460.652344"/>
      <use xlink:href="#DejaVuSans-65" x="522.175781"/>
      <use xlink:href="#DejaVuSans-64" x="583.699219"/>
     </g>
    </g>
    <g id="line2d_26">
     <path d="M 66.6 293.004312 
L 76.6 293.004312 
L 86.6 293.004312 
" style="fill: none; stroke: #ff7f0e; stroke-width: 1.5; stroke-linecap: square"/>
    </g>
    <g id="text_16">
     <!-- Expected speed -->
     <g transform="translate(94.6 296.504312) scale(0.1 -0.1)">
      <use xlink:href="#DejaVuSans-45"/>
      <use xlink:href="#DejaVuSans-78" x="63.183594"/>
      <use xlink:href="#DejaVuSans-70" x="122.363281"/>
      <use xlink:href="#DejaVuSans-65" x="185.839844"/>
      <use xlink:href="#DejaVuSans-63" x="247.363281"/>
      <use xlink:href="#DejaVuSans-74" x="302.34375"/>
      <use xlink:href="#DejaVuSans-65" x="341.552734"/>
      <use xlink:href="#DejaVuSans-64" x="403.076172"/>
      <use xlink:href="#DejaVuSans-20" x="466.552734"/>
      <use xlink:href="#DejaVuSans-73" x="498.339844"/>
      <use xlink:href="#DejaVuSans-70" x="550.439453"/>
      <use xlink:href="#DejaVuSans-65" x="613.916016"/>
      <use xlink:href="#DejaVuSans-65" x="675.439453"/>
      <use xlink:href="#DejaVuSans-64" x="736.962891"/>
     </g>
    </g>
   </g>
  </g>
 </g>
 <defs>
  <clipPath id="pebfa5c7086">
   <rect x="57.6" y="41.472" width="357.12" height="266.112"/>
  </clipPath>
 </defs>
</svg>
