<?xml version="1.0" encoding="utf-8" standalone="no"?>
<!DOCTYPE svg PUBLIC "-//W3C//DTD SVG 1.1//EN"
  "http://www.w3.org/Graphics/SVG/1.1/DTD/svg11.dtd">
<svg xmlns:xlink="http://www.w3.org/1999/xlink" width="460.8pt" height="345.6pt" viewBox="0 0 460.8 345.6" xmlns="http://www.w3.org/2000/svg" version="1.1">
 <metadata>
  <rdf:RDF xmlns:dc="http://purl.org/dc/elements/1.1/" xmlns:cc="http://creativecommons.org/ns#" xmlns:rdf="http://www.w3.org/1999/02/22-rdf-syntax-ns#">
   <cc:Work>
    <dc:type rdf:resource="http://purl.org/dc/dcmitype/StillImage"/>
    <dc:date>2024-01-30T20:59:09.291733</dc:date>
    <dc:format>image/svg+xml</dc:format>
    <dc:creator>
     <cc:Agent>
      <dc:title>Matplotlib v3.7.1, https://matplotlib.org/</dc:title>
     </cc:Agent>
    </dc:creator>
   </cc:Work>
  </rdf:RDF>
 </metadata>
 <defs>
  <style type="text/css">*{stroke-linejoin: round; stroke-linecap: butt}</style>
 </defs>
 <g id="figure_1">
  <g id="patch_1">
   <path d="M 0 345.6 
L 460.8 345.6 
L 460.8 0 
L 0 0 
z
" style="fill: #ffffff"/>
  </g>
  <g id="axes_1">
   <g id="patch_2">
    <path d="M 57.6 307.584 
L 414.72 307.584 
L 414.72 41.472 
L 57.6 41.472 
z
" style="fill: #ffffff"/>
   </g>
   <g id="matplotlib.axis_1">
    <g id="xtick_1">
     <g id="line2d_1">
      <path d="M 73.832727 307.584 
L 73.832727 41.472 
" clip-path="url(#pe736f52a7e)" style="fill: none; stroke: #b0b0b0; stroke-width: 0.8; stroke-linecap: square"/>
     </g>
     <g id="line2d_2">
      <defs>
       <path id="m628f897aca" d="M 0 0 
L 0 3.5 
" style="stroke: #000000; stroke-width: 0.8"/>
      </defs>
      <g>
       <use xlink:href="#m628f897aca" x="73.832727" y="307.584" style="stroke: #000000; stroke-width: 0.8"/>
      </g>
     </g>
     <g id="text_1">
      <!-- 0 -->
      <g transform="translate(70.651477 322.182437) scale(0.1 -0.1)">
       <defs>
        <path id="DejaVuSans-30" d="M 2034 4250 
Q 1547 4250 1301 3770 
Q 1056 3291 1056 2328 
Q 1056 1369 1301 889 
Q 1547 409 2034 409 
Q 2525 409 2770 889 
Q 3016 1369 3016 2328 
Q 3016 3291 2770 3770 
Q 2525 4250 2034 4250 
z
M 2034 4750 
Q 2819 4750 3233 4129 
Q 3647 3509 3647 2328 
Q 3647 1150 3233 529 
Q 2819 -91 2034 -91 
Q 1250 -91 836 529 
Q 422 1150 422 2328 
Q 422 3509 836 4129 
Q 1250 4750 2034 4750 
z
" transform="scale(0.015625)"/>
       </defs>
       <use xlink:href="#DejaVuSans-30"/>
      </g>
     </g>
    </g>
    <g id="xtick_2">
     <g id="line2d_3">
      <path d="M 131.972868 307.584 
L 131.972868 41.472 
" clip-path="url(#pe736f52a7e)" style="fill: none; stroke: #b0b0b0; stroke-width: 0.8; stroke-linecap: square"/>
     </g>
     <g id="line2d_4">
      <g>
       <use xlink:href="#m628f897aca" x="131.972868" y="307.584" style="stroke: #000000; stroke-width: 0.8"/>
      </g>
     </g>
     <g id="text_2">
      <!-- 5 -->
      <g transform="translate(128.791618 322.182437) scale(0.1 -0.1)">
       <defs>
        <path id="DejaVuSans-35" d="M 691 4666 
L 3169 4666 
L 3169 4134 
L 1269 4134 
L 1269 2991 
Q 1406 3038 1543 3061 
Q 1681 3084 1819 3084 
Q 2600 3084 3056 2656 
Q 3513 2228 3513 1497 
Q 3513 744 3044 326 
Q 2575 -91 1722 -91 
Q 1428 -91 1123 -41 
Q 819 9 494 109 
L 494 744 
Q 775 591 1075 516 
Q 1375 441 1709 441 
Q 2250 441 2565 725 
Q 2881 1009 2881 1497 
Q 2881 1984 2565 2268 
Q 2250 2553 1709 2553 
Q 1456 2553 1204 2497 
Q 953 2441 691 2322 
L 691 4666 
z
" transform="scale(0.015625)"/>
       </defs>
       <use xlink:href="#DejaVuSans-35"/>
      </g>
     </g>
    </g>
    <g id="xtick_3">
     <g id="line2d_5">
      <path d="M 190.113009 307.584 
L 190.113009 41.472 
" clip-path="url(#pe736f52a7e)" style="fill: none; stroke: #b0b0b0; stroke-width: 0.8; stroke-linecap: square"/>
     </g>
     <g id="line2d_6">
      <g>
       <use xlink:href="#m628f897aca" x="190.113009" y="307.584" style="stroke: #000000; stroke-width: 0.8"/>
      </g>
     </g>
     <g id="text_3">
      <!-- 10 -->
      <g transform="translate(183.750509 322.182437) scale(0.1 -0.1)">
       <defs>
        <path id="DejaVuSans-31" d="M 794 531 
L 1825 531 
L 1825 4091 
L 703 3866 
L 703 4441 
L 1819 4666 
L 2450 4666 
L 2450 531 
L 3481 531 
L 3481 0 
L 794 0 
L 794 531 
z
" transform="scale(0.015625)"/>
       </defs>
       <use xlink:href="#DejaVuSans-31"/>
       <use xlink:href="#DejaVuSans-30" x="63.623047"/>
      </g>
     </g>
    </g>
    <g id="xtick_4">
     <g id="line2d_7">
      <path d="M 248.253149 307.584 
L 248.253149 41.472 
" clip-path="url(#pe736f52a7e)" style="fill: none; stroke: #b0b0b0; stroke-width: 0.8; stroke-linecap: square"/>
     </g>
     <g id="line2d_8">
      <g>
       <use xlink:href="#m628f897aca" x="248.253149" y="307.584" style="stroke: #000000; stroke-width: 0.8"/>
      </g>
     </g>
     <g id="text_4">
      <!-- 15 -->
      <g transform="translate(241.890649 322.182437) scale(0.1 -0.1)">
       <use xlink:href="#DejaVuSans-31"/>
       <use xlink:href="#DejaVuSans-35" x="63.623047"/>
      </g>
     </g>
    </g>
    <g id="xtick_5">
     <g id="line2d_9">
      <path d="M 306.39329 307.584 
L 306.39329 41.472 
" clip-path="url(#pe736f52a7e)" style="fill: none; stroke: #b0b0b0; stroke-width: 0.8; stroke-linecap: square"/>
     </g>
     <g id="line2d_10">
      <g>
       <use xlink:href="#m628f897aca" x="306.39329" y="307.584" style="stroke: #000000; stroke-width: 0.8"/>
      </g>
     </g>
     <g id="text_5">
      <!-- 20 -->
      <g transform="translate(300.03079 322.182437) scale(0.1 -0.1)">
       <defs>
        <path id="DejaVuSans-32" d="M 1228 531 
L 3431 531 
L 3431 0 
L 469 0 
L 469 531 
Q 828 903 1448 1529 
Q 2069 2156 2228 2338 
Q 2531 2678 2651 2914 
Q 2772 3150 2772 3378 
Q 2772 3750 2511 3984 
Q 2250 4219 1831 4219 
Q 1534 4219 1204 4116 
Q 875 4013 500 3803 
L 500 4441 
Q 881 4594 1212 4672 
Q 1544 4750 1819 4750 
Q 2544 4750 2975 4387 
Q 3406 4025 3406 3419 
Q 3406 3131 3298 2873 
Q 3191 2616 2906 2266 
Q 2828 2175 2409 1742 
Q 1991 1309 1228 531 
z
" transform="scale(0.015625)"/>
       </defs>
       <use xlink:href="#DejaVuSans-32"/>
       <use xlink:href="#DejaVuSans-30" x="63.623047"/>
      </g>
     </g>
    </g>
    <g id="xtick_6">
     <g id="line2d_11">
      <path d="M 364.533431 307.584 
L 364.533431 41.472 
" clip-path="url(#pe736f52a7e)" style="fill: none; stroke: #b0b0b0; stroke-width: 0.8; stroke-linecap: square"/>
     </g>
     <g id="line2d_12">
      <g>
       <use xlink:href="#m628f897aca" x="364.533431" y="307.584" style="stroke: #000000; stroke-width: 0.8"/>
      </g>
     </g>
     <g id="text_6">
      <!-- 25 -->
      <g transform="translate(358.170931 322.182437) scale(0.1 -0.1)">
       <use xlink:href="#DejaVuSans-32"/>
       <use xlink:href="#DejaVuSans-35" x="63.623047"/>
      </g>
     </g>
    </g>
    <g id="text_7">
     <!-- Time(s) -->
     <g transform="translate(217.420156 335.860562) scale(0.1 -0.1)">
      <defs>
       <path id="DejaVuSans-54" d="M -19 4666 
L 3928 4666 
L 3928 4134 
L 2272 4134 
L 2272 0 
L 1638 0 
L 1638 4134 
L -19 4134 
L -19 4666 
z
" transform="scale(0.015625)"/>
       <path id="DejaVuSans-69" d="M 603 3500 
L 1178 3500 
L 1178 0 
L 603 0 
L 603 3500 
z
M 603 4863 
L 1178 4863 
L 1178 4134 
L 603 4134 
L 603 4863 
z
" transform="scale(0.015625)"/>
       <path id="DejaVuSans-6d" d="M 3328 2828 
Q 3544 3216 3844 3400 
Q 4144 3584 4550 3584 
Q 5097 3584 5394 3201 
Q 5691 2819 5691 2113 
L 5691 0 
L 5113 0 
L 5113 2094 
Q 5113 2597 4934 2840 
Q 4756 3084 4391 3084 
Q 3944 3084 3684 2787 
Q 3425 2491 3425 1978 
L 3425 0 
L 2847 0 
L 2847 2094 
Q 2847 2600 2669 2842 
Q 2491 3084 2119 3084 
Q 1678 3084 1418 2786 
Q 1159 2488 1159 1978 
L 1159 0 
L 581 0 
L 581 3500 
L 1159 3500 
L 1159 2956 
Q 1356 3278 1631 3431 
Q 1906 3584 2284 3584 
Q 2666 3584 2933 3390 
Q 3200 3197 3328 2828 
z
" transform="scale(0.015625)"/>
       <path id="DejaVuSans-65" d="M 3597 1894 
L 3597 1613 
L 953 1613 
Q 991 1019 1311 708 
Q 1631 397 2203 397 
Q 2534 397 2845 478 
Q 3156 559 3463 722 
L 3463 178 
Q 3153 47 2828 -22 
Q 2503 -91 2169 -91 
Q 1331 -91 842 396 
Q 353 884 353 1716 
Q 353 2575 817 3079 
Q 1281 3584 2069 3584 
Q 2775 3584 3186 3129 
Q 3597 2675 3597 1894 
z
M 3022 2063 
Q 3016 2534 2758 2815 
Q 2500 3097 2075 3097 
Q 1594 3097 1305 2825 
Q 1016 2553 972 2059 
L 3022 2063 
z
" transform="scale(0.015625)"/>
       <path id="DejaVuSans-28" d="M 1984 4856 
Q 1566 4138 1362 3434 
Q 1159 2731 1159 2009 
Q 1159 1288 1364 580 
Q 1569 -128 1984 -844 
L 1484 -844 
Q 1016 -109 783 600 
Q 550 1309 550 2009 
Q 550 2706 781 3412 
Q 1013 4119 1484 4856 
L 1984 4856 
z
" transform="scale(0.015625)"/>
       <path id="DejaVuSans-73" d="M 2834 3397 
L 2834 2853 
Q 2591 2978 2328 3040 
Q 2066 3103 1784 3103 
Q 1356 3103 1142 2972 
Q 928 2841 928 2578 
Q 928 2378 1081 2264 
Q 1234 2150 1697 2047 
L 1894 2003 
Q 2506 1872 2764 1633 
Q 3022 1394 3022 966 
Q 3022 478 2636 193 
Q 2250 -91 1575 -91 
Q 1294 -91 989 -36 
Q 684 19 347 128 
L 347 722 
Q 666 556 975 473 
Q 1284 391 1588 391 
Q 1994 391 2212 530 
Q 2431 669 2431 922 
Q 2431 1156 2273 1281 
Q 2116 1406 1581 1522 
L 1381 1569 
Q 847 1681 609 1914 
Q 372 2147 372 2553 
Q 372 3047 722 3315 
Q 1072 3584 1716 3584 
Q 2034 3584 2315 3537 
Q 2597 3491 2834 3397 
z
" transform="scale(0.015625)"/>
       <path id="DejaVuSans-29" d="M 513 4856 
L 1013 4856 
Q 1481 4119 1714 3412 
Q 1947 2706 1947 2009 
Q 1947 1309 1714 600 
Q 1481 -109 1013 -844 
L 513 -844 
Q 928 -128 1133 580 
Q 1338 1288 1338 2009 
Q 1338 2731 1133 3434 
Q 928 4138 513 4856 
z
" transform="scale(0.015625)"/>
      </defs>
      <use xlink:href="#DejaVuSans-54"/>
      <use xlink:href="#DejaVuSans-69" x="57.958984"/>
      <use xlink:href="#DejaVuSans-6d" x="85.742188"/>
      <use xlink:href="#DejaVuSans-65" x="183.154297"/>
      <use xlink:href="#DejaVuSans-28" x="244.677734"/>
      <use xlink:href="#DejaVuSans-73" x="283.691406"/>
      <use xlink:href="#DejaVuSans-29" x="335.791016"/>
     </g>
    </g>
   </g>
   <g id="matplotlib.axis_2">
    <g id="ytick_1">
     <g id="line2d_13">
      <path d="M 57.6 257.871877 
L 414.72 257.871877 
" clip-path="url(#pe736f52a7e)" style="fill: none; stroke: #b0b0b0; stroke-width: 0.8; stroke-linecap: square"/>
     </g>
     <g id="line2d_14">
      <defs>
       <path id="m65ea42f903" d="M 0 0 
L -3.5 0 
" style="stroke: #000000; stroke-width: 0.8"/>
      </defs>
      <g>
       <use xlink:href="#m65ea42f903" x="57.6" y="257.871877" style="stroke: #000000; stroke-width: 0.8"/>
      </g>
     </g>
     <g id="text_8">
      <!-- 4 -->
      <g transform="translate(44.2375 261.671095) scale(0.1 -0.1)">
       <defs>
        <path id="DejaVuSans-34" d="M 2419 4116 
L 825 1625 
L 2419 1625 
L 2419 4116 
z
M 2253 4666 
L 3047 4666 
L 3047 1625 
L 3713 1625 
L 3713 1100 
L 3047 1100 
L 3047 0 
L 2419 0 
L 2419 1100 
L 313 1100 
L 313 1709 
L 2253 4666 
z
" transform="scale(0.015625)"/>
       </defs>
       <use xlink:href="#DejaVuSans-34"/>
      </g>
     </g>
    </g>
    <g id="ytick_2">
     <g id="line2d_15">
      <path d="M 57.6 206.795908 
L 414.72 206.795908 
" clip-path="url(#pe736f52a7e)" style="fill: none; stroke: #b0b0b0; stroke-width: 0.8; stroke-linecap: square"/>
     </g>
     <g id="line2d_16">
      <g>
       <use xlink:href="#m65ea42f903" x="57.6" y="206.795908" style="stroke: #000000; stroke-width: 0.8"/>
      </g>
     </g>
     <g id="text_9">
      <!-- 5 -->
      <g transform="translate(44.2375 210.595126) scale(0.1 -0.1)">
       <use xlink:href="#DejaVuSans-35"/>
      </g>
     </g>
    </g>
    <g id="ytick_3">
     <g id="line2d_17">
      <path d="M 57.6 155.719938 
L 414.72 155.719938 
" clip-path="url(#pe736f52a7e)" style="fill: none; stroke: #b0b0b0; stroke-width: 0.8; stroke-linecap: square"/>
     </g>
     <g id="line2d_18">
      <g>
       <use xlink:href="#m65ea42f903" x="57.6" y="155.719938" style="stroke: #000000; stroke-width: 0.8"/>
      </g>
     </g>
     <g id="text_10">
      <!-- 6 -->
      <g transform="translate(44.2375 159.519157) scale(0.1 -0.1)">
       <defs>
        <path id="DejaVuSans-36" d="M 2113 2584 
Q 1688 2584 1439 2293 
Q 1191 2003 1191 1497 
Q 1191 994 1439 701 
Q 1688 409 2113 409 
Q 2538 409 2786 701 
Q 3034 994 3034 1497 
Q 3034 2003 2786 2293 
Q 2538 2584 2113 2584 
z
M 3366 4563 
L 3366 3988 
Q 3128 4100 2886 4159 
Q 2644 4219 2406 4219 
Q 1781 4219 1451 3797 
Q 1122 3375 1075 2522 
Q 1259 2794 1537 2939 
Q 1816 3084 2150 3084 
Q 2853 3084 3261 2657 
Q 3669 2231 3669 1497 
Q 3669 778 3244 343 
Q 2819 -91 2113 -91 
Q 1303 -91 875 529 
Q 447 1150 447 2328 
Q 447 3434 972 4092 
Q 1497 4750 2381 4750 
Q 2619 4750 2861 4703 
Q 3103 4656 3366 4563 
z
" transform="scale(0.015625)"/>
       </defs>
       <use xlink:href="#DejaVuSans-36"/>
      </g>
     </g>
    </g>
    <g id="ytick_4">
     <g id="line2d_19">
      <path d="M 57.6 104.643969 
L 414.72 104.643969 
" clip-path="url(#pe736f52a7e)" style="fill: none; stroke: #b0b0b0; stroke-width: 0.8; stroke-linecap: square"/>
     </g>
     <g id="line2d_20">
      <g>
       <use xlink:href="#m65ea42f903" x="57.6" y="104.643969" style="stroke: #000000; stroke-width: 0.8"/>
      </g>
     </g>
     <g id="text_11">
      <!-- 7 -->
      <g transform="translate(44.2375 108.443188) scale(0.1 -0.1)">
       <defs>
        <path id="DejaVuSans-37" d="M 525 4666 
L 3525 4666 
L 3525 4397 
L 1831 0 
L 1172 0 
L 2766 4134 
L 525 4134 
L 525 4666 
z
" transform="scale(0.015625)"/>
       </defs>
       <use xlink:href="#DejaVuSans-37"/>
      </g>
     </g>
    </g>
    <g id="ytick_5">
     <g id="line2d_21">
      <path d="M 57.6 53.568 
L 414.72 53.568 
" clip-path="url(#pe736f52a7e)" style="fill: none; stroke: #b0b0b0; stroke-width: 0.8; stroke-linecap: square"/>
     </g>
     <g id="line2d_22">
      <g>
       <use xlink:href="#m65ea42f903" x="57.6" y="53.568" style="stroke: #000000; stroke-width: 0.8"/>
      </g>
     </g>
     <g id="text_12">
      <!-- 8 -->
      <g transform="translate(44.2375 57.367219) scale(0.1 -0.1)">
       <defs>
        <path id="DejaVuSans-38" d="M 2034 2216 
Q 1584 2216 1326 1975 
Q 1069 1734 1069 1313 
Q 1069 891 1326 650 
Q 1584 409 2034 409 
Q 2484 409 2743 651 
Q 3003 894 3003 1313 
Q 3003 1734 2745 1975 
Q 2488 2216 2034 2216 
z
M 1403 2484 
Q 997 2584 770 2862 
Q 544 3141 544 3541 
Q 544 4100 942 4425 
Q 1341 4750 2034 4750 
Q 2731 4750 3128 4425 
Q 3525 4100 3525 3541 
Q 3525 3141 3298 2862 
Q 3072 2584 2669 2484 
Q 3125 2378 3379 2068 
Q 3634 1759 3634 1313 
Q 3634 634 3220 271 
Q 2806 -91 2034 -91 
Q 1263 -91 848 271 
Q 434 634 434 1313 
Q 434 1759 690 2068 
Q 947 2378 1403 2484 
z
M 1172 3481 
Q 1172 3119 1398 2916 
Q 1625 2713 2034 2713 
Q 2441 2713 2670 2916 
Q 2900 3119 2900 3481 
Q 2900 3844 2670 4047 
Q 2441 4250 2034 4250 
Q 1625 4250 1398 4047 
Q 1172 3844 1172 3481 
z
" transform="scale(0.015625)"/>
       </defs>
       <use xlink:href="#DejaVuSans-38"/>
      </g>
     </g>
    </g>
    <g id="text_13">
     <!-- Velocity(m/s) -->
     <g transform="translate(38.157812 207.204563) rotate(-90) scale(0.1 -0.1)">
      <defs>
       <path id="DejaVuSans-56" d="M 1831 0 
L 50 4666 
L 709 4666 
L 2188 738 
L 3669 4666 
L 4325 4666 
L 2547 0 
L 1831 0 
z
" transform="scale(0.015625)"/>
       <path id="DejaVuSans-6c" d="M 603 4863 
L 1178 4863 
L 1178 0 
L 603 0 
L 603 4863 
z
" transform="scale(0.015625)"/>
       <path id="DejaVuSans-6f" d="M 1959 3097 
Q 1497 3097 1228 2736 
Q 959 2375 959 1747 
Q 959 1119 1226 758 
Q 1494 397 1959 397 
Q 2419 397 2687 759 
Q 2956 1122 2956 1747 
Q 2956 2369 2687 2733 
Q 2419 3097 1959 3097 
z
M 1959 3584 
Q 2709 3584 3137 3096 
Q 3566 2609 3566 1747 
Q 3566 888 3137 398 
Q 2709 -91 1959 -91 
Q 1206 -91 779 398 
Q 353 888 353 1747 
Q 353 2609 779 3096 
Q 1206 3584 1959 3584 
z
" transform="scale(0.015625)"/>
       <path id="DejaVuSans-63" d="M 3122 3366 
L 3122 2828 
Q 2878 2963 2633 3030 
Q 2388 3097 2138 3097 
Q 1578 3097 1268 2742 
Q 959 2388 959 1747 
Q 959 1106 1268 751 
Q 1578 397 2138 397 
Q 2388 397 2633 464 
Q 2878 531 3122 666 
L 3122 134 
Q 2881 22 2623 -34 
Q 2366 -91 2075 -91 
Q 1284 -91 818 406 
Q 353 903 353 1747 
Q 353 2603 823 3093 
Q 1294 3584 2113 3584 
Q 2378 3584 2631 3529 
Q 2884 3475 3122 3366 
z
" transform="scale(0.015625)"/>
       <path id="DejaVuSans-74" d="M 1172 4494 
L 1172 3500 
L 2356 3500 
L 2356 3053 
L 1172 3053 
L 1172 1153 
Q 1172 725 1289 603 
Q 1406 481 1766 481 
L 2356 481 
L 2356 0 
L 1766 0 
Q 1100 0 847 248 
Q 594 497 594 1153 
L 594 3053 
L 172 3053 
L 172 3500 
L 594 3500 
L 594 4494 
L 1172 4494 
z
" transform="scale(0.015625)"/>
       <path id="DejaVuSans-79" d="M 2059 -325 
Q 1816 -950 1584 -1140 
Q 1353 -1331 966 -1331 
L 506 -1331 
L 506 -850 
L 844 -850 
Q 1081 -850 1212 -737 
Q 1344 -625 1503 -206 
L 1606 56 
L 191 3500 
L 800 3500 
L 1894 763 
L 2988 3500 
L 3597 3500 
L 2059 -325 
z
" transform="scale(0.015625)"/>
       <path id="DejaVuSans-2f" d="M 1625 4666 
L 2156 4666 
L 531 -594 
L 0 -594 
L 1625 4666 
z
" transform="scale(0.015625)"/>
      </defs>
      <use xlink:href="#DejaVuSans-56"/>
      <use xlink:href="#DejaVuSans-65" x="60.658203"/>
      <use xlink:href="#DejaVuSans-6c" x="122.181641"/>
      <use xlink:href="#DejaVuSans-6f" x="149.964844"/>
      <use xlink:href="#DejaVuSans-63" x="211.146484"/>
      <use xlink:href="#DejaVuSans-69" x="266.126953"/>
      <use xlink:href="#DejaVuSans-74" x="293.910156"/>
      <use xlink:href="#DejaVuSans-79" x="333.119141"/>
      <use xlink:href="#DejaVuSans-28" x="392.298828"/>
      <use xlink:href="#DejaVuSans-6d" x="431.3125"/>
      <use xlink:href="#DejaVuSans-2f" x="528.724609"/>
      <use xlink:href="#DejaVuSans-73" x="562.416016"/>
      <use xlink:href="#DejaVuSans-29" x="614.515625"/>
     </g>
    </g>
   </g>
   <g id="line2d_23">
    <path d="M 73.832727 54.058585 
L 75.693212 53.79299 
L 75.693212 53.79299 
L 78.716499 53.631385 
L 78.716499 53.631385 
L 85.460755 53.57178 
L 85.460755 53.57178 
L 87.32124 53.569737 
L 87.32124 53.569737 
L 87.5538 53.708255 
L 87.5538 53.708255 
L 87.786361 54.519647 
L 87.786361 54.519647 
L 88.949164 64.672426 
L 88.949164 64.672426 
L 89.414285 69.615252 
L 89.414285 69.615252 
L 90.111967 77.081027 
L 90.111967 77.081027 
L 90.577088 82.312789 
L 90.577088 82.312789 
L 94.298057 118.443215 
L 94.298057 118.443215 
L 95.69342 126.708532 
L 95.69342 126.708532 
L 96.623662 129.914878 
L 96.623662 129.914878 
L 97.321344 131.350265 
L 97.321344 131.350265 
L 98.019026 132.103125 
L 98.019026 132.103125 
L 98.949268 132.379548 
L 98.949268 132.379548 
L 99.414389 132.443189 
L 99.414389 132.443189 
L 100.577192 132.271267 
L 100.577192 132.271267 
L 101.274874 131.907862 
L 101.274874 131.907862 
L 101.972555 131.03574 
L 101.972555 131.03574 
L 102.670237 129.403965 
L 102.670237 129.403965 
L 103.600479 125.434851 
L 103.600479 125.434851 
L 104.0656 122.951435 
L 104.0656 122.951435 
L 105.460964 111.188793 
L 105.460964 111.188793 
L 107.088888 89.924794 
L 107.088888 89.924794 
L 107.786569 80.720854 
L 107.786569 80.720854 
L 108.484251 73.838673 
L 108.484251 73.838673 
L 109.181933 68.70089 
L 109.181933 68.70089 
L 109.879614 64.865289 
L 109.879614 64.865289 
L 110.577296 62.001868 
L 110.577296 62.001868 
L 111.274978 59.864237 
L 111.274978 59.864237 
L 111.97266 58.268368 
L 111.97266 58.268368 
L 112.902902 56.751259 
L 112.902902 56.751259 
L 113.833144 55.723815 
L 113.833144 55.723815 
L 114.763386 55.027956 
L 114.763386 55.027956 
L 115.926189 54.464945 
L 115.926189 54.464945 
L 117.321552 54.067881 
L 117.321552 54.067881 
L 119.182037 53.79728 
L 119.182037 53.79728 
L 121.972764 53.6392 
L 121.972764 53.6392 
L 128.019338 53.573669 
L 128.019338 53.573669 
L 131.507747 53.569328 
L 131.507747 53.569328 
L 131.740307 55.212289 
L 131.740307 55.212289 
L 133.600792 91.632775 
L 133.600792 91.632775 
L 134.065913 102.484324 
L 134.065913 102.484324 
L 134.531034 112.154384 
L 134.531034 112.154384 
L 134.996155 121.697163 
L 134.996155 121.697163 
L 136.158958 140.759429 
L 136.158958 140.759429 
L 138.019443 163.874983 
L 138.019443 163.874983 
L 139.414806 175.950057 
L 139.414806 175.950057 
L 141.507851 187.755808 
L 141.507851 187.755808 
L 143.600896 196.216746 
L 143.600896 196.216746 
L 144.298578 198.018196 
L 144.298578 198.018196 
L 144.763699 199.318794 
L 144.763699 199.318794 
L 145.22882 200.305276 
L 145.22882 200.305276 
L 145.693941 201.020901 
L 145.693941 201.020901 
L 146.159062 201.588764 
L 146.159062 201.588764 
L 146.391623 201.853592 
L 146.391623 201.853592 
L 146.624183 201.90094 
L 146.624183 201.90094 
L 147.089305 202.2076 
L 147.089305 202.2076 
L 147.786986 202.479426 
L 147.786986 202.479426 
L 150.112592 202.308424 
L 150.112592 202.308424 
L 151.507955 201.293544 
L 151.507955 201.293544 
L 152.438197 199.534743 
L 152.438197 199.534743 
L 153.36844 196.32421 
L 153.36844 196.32421 
L 154.298682 191.056184 
L 154.298682 191.056184 
L 155.228924 183.086698 
L 155.228924 183.086698 
L 155.694045 176.898231 
L 155.694045 176.898231 
L 156.856848 163.0949 
L 156.856848 163.0949 
L 157.089409 161.644342 
L 157.089409 161.644342 
L 157.55453 160.20354 
L 157.55453 160.20354 
L 158.019651 159.725316 
L 158.019651 159.725316 
L 158.252212 159.850248 
L 158.252212 159.850248 
L 158.484772 160.380774 
L 158.484772 160.380774 
L 160.112696 166.317078 
L 160.112696 166.317078 
L 160.577817 167.213564 
L 160.577817 167.213564 
L 161.042938 167.772846 
L 161.042938 167.772846 
L 161.275499 167.838427 
L 161.74062 168.13763 
L 161.74062 168.13763 
L 163.135983 168.125474 
L 163.135983 168.125474 
L 163.833665 167.971276 
L 163.833665 167.971276 
L 164.996468 166.844284 
L 164.996468 166.844284 
L 165.461589 166.091322 
L 165.461589 166.091322 
L 166.624392 162.472284 
L 166.624392 162.472284 
L 168.019755 154.212431 
L 168.019755 154.212431 
L 168.717437 148.860334 
L 168.717437 148.860334 
L 169.415119 142.121574 
L 169.415119 142.121574 
L 170.577921 128.565093 
L 170.577921 128.565093 
L 171.740724 113.596974 
L 171.740724 113.596974 
L 172.205845 110.923453 
L 172.205845 110.923453 
L 172.670966 112.503284 
L 172.670966 112.503284 
L 172.903527 115.246472 
L 172.903527 115.246472 
L 175.229133 168.593432 
L 175.229133 168.593432 
L 177.089617 205.325941 
L 177.089617 205.325941 
L 177.787299 215.555028 
L 177.787299 215.555028 
L 178.48498 226.283075 
L 178.48498 226.283075 
L 178.717541 228.69095 
L 178.717541 228.69095 
L 179.182662 234.531334 
L 179.182662 234.531334 
L 179.415223 238.2656 
L 179.415223 238.2656 
L 179.880344 241.848988 
L 179.880344 241.848988 
L 181.043147 252.817297 
L 181.043147 252.817297 
L 181.973389 258.389327 
L 181.973389 258.389327 
L 182.43851 261.13747 
L 182.43851 261.13747 
L 183.368752 265.273959 
L 183.368752 265.273959 
L 184.531555 268.438065 
L 184.531555 268.438065 
L 185.461797 269.677627 
L 185.461797 269.677627 
L 186.159479 269.985718 
L 186.159479 269.985718 
L 187.089721 270.176537 
L 187.089721 270.176537 
L 188.950206 269.998129 
L 188.950206 269.998129 
L 189.415327 269.83443 
L 189.415327 269.83443 
L 189.880448 269.472149 
L 189.880448 269.472149 
L 191.043251 267.687044 
L 191.043251 267.687044 
L 191.973493 264.586221 
L 191.973493 264.586221 
L 192.438614 262.598651 
L 192.438614 262.598651 
L 192.671175 261.56472 
L 192.671175 261.56472 
L 194.299099 249.448275 
L 194.299099 249.448275 
L 195.461902 238.373268 
L 195.461902 238.373268 
L 195.694462 237.926762 
L 195.694462 237.926762 
L 195.927023 237.206591 
L 195.927023 237.206591 
L 196.159583 240.288464 
L 196.159583 240.288464 
L 196.392144 240.621223 
L 196.392144 240.621223 
L 196.624704 242.187723 
L 196.624704 242.187723 
L 197.554947 255.656354 
L 197.554947 255.656354 
L 198.252628 264.302494 
L 198.252628 264.302494 
L 198.485189 268.271455 
L 198.485189 268.271455 
L 199.415431 277.032107 
L 199.415431 277.032107 
L 199.647992 280.027049 
L 199.647992 280.027049 
L 200.810794 287.074051 
L 200.810794 287.074051 
L 201.275916 289.300657 
L 201.275916 289.300657 
L 202.438718 293.24459 
L 202.438718 293.24459 
L 203.368961 294.586969 
L 203.368961 294.586969 
L 203.834082 295.050381 
L 203.834082 295.050381 
L 204.531763 295.206878 
L 204.531763 295.206878 
L 205.229445 295.342842 
L 205.229445 295.342842 
L 206.392248 295.14763 
L 206.392248 295.14763 
L 207.08993 294.858335 
L 207.08993 294.858335 
L 207.555051 294.417192 
L 207.555051 294.417192 
L 208.252732 293.517796 
L 208.252732 293.517796 
L 208.485293 293.12543 
L 209.880656 289.122811 
L 209.880656 289.122811 
L 211.043459 283.587248 
L 211.043459 283.587248 
L 213.136504 264.427579 
L 213.136504 264.427579 
L 213.834186 255.75013 
L 213.834186 255.75013 
L 214.299307 251.46598 
L 214.299307 251.46598 
L 214.764428 249.603648 
L 214.764428 249.603648 
L 214.996989 249.649003 
L 215.229549 249.510179 
L 215.229549 249.510179 
L 215.46211 252.206581 
L 215.46211 252.206581 
L 215.927231 254.168358 
L 215.927231 254.168358 
L 216.624913 260.638662 
L 216.624913 260.638662 
L 216.857473 257.763187 
L 216.857473 257.763187 
L 217.555155 265.219921 
L 217.555155 265.219921 
L 218.020276 268.87599 
L 218.020276 268.87599 
L 219.183079 274.284578 
L 219.183079 274.284578 
L 220.113321 276.736479 
L 220.113321 276.736479 
L 221.043563 278.043565 
L 221.043563 278.043565 
L 221.973806 278.730281 
L 221.973806 278.730281 
L 222.671487 278.80383 
L 222.671487 278.80383 
L 223.136608 278.882181 
L 223.136608 278.882181 
L 224.299411 278.80051 
L 224.299411 278.80051 
L 224.997093 278.664751 
L 224.997093 278.664751 
L 226.159896 277.941566 
L 226.159896 277.941566 
L 228.02038 274.924866 
L 228.02038 274.924866 
L 229.648304 269.492017 
L 229.648304 269.492017 
L 230.345986 266.489874 
L 230.345986 266.489874 
L 232.439031 253.805157 
L 232.439031 253.805157 
L 233.136713 248.869124 
L 233.136713 248.869124 
L 235.927439 223.102421 
L 235.927439 223.102421 
L 237.322803 206.499003 
L 237.322803 206.499003 
L 238.950727 183.267303 
L 238.950727 183.267303 
L 240.11353 163.663937 
L 240.11353 163.663937 
L 241.741454 135.906293 
L 241.741454 135.906293 
L 243.369377 107.227392 
L 243.369377 107.227392 
L 244.997301 82.144494 
L 244.997301 82.144494 
L 245.694983 74.901513 
L 245.694983 74.901513 
L 246.392665 69.494304 
L 246.392665 69.494304 
L 247.090346 65.457617 
L 247.090346 65.457617 
L 247.788028 62.444084 
L 247.788028 62.444084 
L 248.48571 60.194341 
L 248.48571 60.194341 
L 249.183392 58.51481 
L 249.183392 58.51481 
L 250.113634 56.918175 
L 250.113634 56.918175 
L 251.043876 55.836846 
L 251.043876 55.836846 
L 251.974118 55.104518 
L 251.974118 55.104518 
L 253.136921 54.511986 
L 253.136921 54.511986 
L 254.532284 54.094082 
L 254.532284 54.094082 
L 256.392769 53.809283 
L 256.392769 53.809283 
L 259.183496 53.642928 
L 259.183496 53.642928 
L 264.99751 53.574538 
L 264.99751 53.574538 
L 282.904673 53.568 
L 282.904673 53.568 
L 283.137234 54.130551 
L 283.137234 54.130551 
L 283.369794 57.474852 
L 283.369794 57.474852 
L 283.834915 65.49051 
L 283.834915 65.49051 
L 284.300036 73.867429 
L 284.300036 73.867429 
L 284.765158 81.902292 
L 284.765158 81.902292 
L 285.92796 96.757737 
L 285.92796 96.757737 
L 286.393082 100.705093 
L 286.393082 100.705093 
L 287.090763 104.377966 
L 287.090763 104.377966 
L 287.555884 105.606343 
L 287.555884 105.606343 
L 288.021005 106.069091 
L 288.021005 106.069091 
L 288.486127 106.328659 
L 288.486127 106.328659 
L 289.416369 106.002999 
L 289.416369 106.002999 
L 289.88149 105.565584 
L 289.88149 105.565584 
L 290.579172 103.875174 
L 290.579172 103.875174 
L 291.276853 101.009148 
L 291.276853 101.009148 
L 291.974535 96.31307 
L 291.974535 96.31307 
L 292.672217 90.238911 
L 292.672217 90.238911 
L 293.137338 85.392721 
L 293.137338 85.392721 
L 293.83502 77.345192 
L 293.83502 77.345192 
L 294.532701 71.318636 
L 294.532701 71.318636 
L 295.230383 66.819558 
L 295.230383 66.819558 
L 295.928065 63.460802 
L 295.928065 63.460802 
L 296.625746 61.023151 
L 296.625746 61.023151 
L 296.858307 60.571179 
L 296.858307 60.571179 
L 297.090867 60.539563 
L 297.090867 60.539563 
L 298.02111 67.126933 
L 298.02111 67.126933 
L 299.416473 84.236464 
L 299.416473 84.236464 
L 300.346715 93.973127 
L 300.346715 93.973127 
L 301.509518 107.808125 
L 301.509518 107.808125 
L 301.974639 113.730588 
L 301.974639 113.730588 
L 302.904881 125.364826 
L 302.904881 125.364826 
L 303.835124 137.826443 
L 303.835124 137.826443 
L 306.39329 164.340847 
L 306.39329 164.340847 
L 307.788653 173.788522 
L 307.788653 173.788522 
L 308.951456 178.737222 
L 308.951456 178.737222 
L 309.881698 180.939311 
L 309.881698 180.939311 
L 310.114259 181.218748 
L 310.114259 181.218748 
L 310.346819 181.675775 
L 310.346819 181.675775 
L 311.277062 182.275867 
L 311.277062 182.275867 
L 311.742183 182.263711 
L 311.742183 182.263711 
L 311.974743 182.383382 
L 311.974743 182.383382 
L 313.602667 182.095518 
L 313.602667 182.095518 
L 314.067788 181.817052 
L 314.067788 181.817052 
L 315.230591 179.774524 
L 315.230591 179.774524 
L 315.695712 178.529291 
L 315.695712 178.529291 
L 316.160834 177.023776 
L 316.160834 177.023776 
L 317.788757 167.777136 
L 317.788757 167.777136 
L 319.649242 149.8485 
L 319.649242 149.8485 
L 320.579484 138.451409 
L 320.579484 138.451409 
L 322.207408 112.659066 
L 322.207408 112.659066 
L 324.067893 82.343384 
L 324.067893 82.343384 
L 324.765574 75.04994 
L 324.765574 75.04994 
L 325.463256 69.605139 
L 325.463256 69.605139 
L 326.160938 65.54036 
L 326.160938 65.54036 
L 326.858619 62.505835 
L 326.858619 62.505835 
L 327.556301 60.240462 
L 327.556301 60.240462 
L 328.253983 58.549286 
L 328.253983 58.549286 
L 329.184225 56.941466 
L 329.184225 56.941466 
L 330.114467 55.852628 
L 330.114467 55.852628 
L 331.04471 55.115193 
L 331.04471 55.115193 
L 331.509831 55.043687 
L 331.509831 55.043687 
L 331.742391 55.922653 
L 331.742391 55.922653 
L 331.974952 57.79898 
L 331.974952 57.79898 
L 332.905194 70.492789 
L 332.905194 70.492789 
L 333.835436 90.160867 
L 333.835436 90.160867 
L 334.765679 111.719217 
L 334.765679 111.719217 
L 335.2308 120.724727 
L 335.2308 120.724727 
L 336.393603 137.051161 
L 336.393603 137.051161 
L 337.323845 144.680327 
L 337.323845 144.680327 
L 338.021526 148.224029 
L 338.021526 148.224029 
L 338.486648 149.78154 
L 338.486648 149.78154 
L 338.951769 150.836718 
L 338.951769 150.836718 
L 339.41689 151.368981 
L 339.41689 151.368981 
L 339.882011 151.78714 
L 339.882011 151.78714 
L 340.579693 151.835611 
L 340.579693 151.835611 
L 341.277374 151.942104 
L 341.277374 151.942104 
L 342.207617 151.778355 
L 342.207617 151.778355 
L 342.905298 151.322808 
L 342.905298 151.322808 
L 344.068101 149.636331 
L 344.068101 149.636331 
L 345.928586 144.921304 
L 345.928586 144.921304 
L 346.161146 144.670112 
L 346.161146 144.670112 
L 346.393707 144.598555 
L 346.393707 144.598555 
L 347.091388 148.341964 
L 347.091388 148.341964 
L 347.323949 151.933932 
L 347.323949 151.933932 
L 347.55651 153.786713 
L 347.55651 153.786713 
L 348.254191 163.474496 
L 348.254191 163.474496 
L 348.486752 170.600769 
L 348.486752 170.600769 
L 348.719312 173.852725 
L 348.719312 173.852725 
L 349.416994 190.419726 
L 349.416994 190.419726 
L 350.114676 205.031846 
L 350.114676 205.031846 
L 350.812357 219.234285 
L 350.812357 219.234285 
L 352.440281 244.661128 
L 352.440281 244.661128 
L 353.137963 251.971836 
L 353.137963 251.971836 
L 353.835645 260.428229 
L 353.835645 260.428229 
L 354.765887 267.273788 
L 354.765887 267.273788 
L 354.998448 269.705106 
L 354.998448 269.705106 
L 355.92869 274.990141 
L 355.92869 274.990141 
L 356.393811 277.49935 
L 356.393811 277.49935 
L 357.324053 280.996573 
L 357.324053 280.996573 
L 358.254295 282.961414 
L 358.254295 282.961414 
L 358.951977 283.560842 
L 358.951977 283.560842 
L 359.417098 283.867859 
L 359.417098 283.867859 
L 361.975264 283.650838 
L 361.975264 283.650838 
L 362.440386 283.401587 
L 362.440386 283.401587 
L 363.603188 281.88601 
L 363.603188 281.88601 
L 364.765991 278.813177 
L 364.765991 278.813177 
L 366.393915 271.484899 
L 366.393915 271.484899 
L 367.091597 267.524009 
L 367.091597 267.524009 
L 369.882324 245.46108 
L 369.882324 245.46108 
L 370.812566 236.379517 
L 370.812566 236.379517 
L 371.510247 228.95251 
L 371.510247 228.95251 
L 372.207929 221.100499 
L 372.207929 221.100499 
L 373.603293 206.967318 
L 373.603293 206.967318 
L 374.300974 203.08391 
L 374.300974 203.08391 
L 374.766095 201.524867 
L 374.766095 201.524867 
L 375.231216 200.529959 
L 375.231216 200.529959 
L 375.696338 199.897638 
L 375.696338 199.897638 
L 376.394019 199.287944 
L 376.394019 199.287944 
L 378.952185 198.058495 
L 378.952185 198.058495 
L 379.882428 196.848607 
L 379.882428 196.848607 
L 380.580109 195.201663 
L 380.580109 195.201663 
L 381.277791 192.697714 
L 381.277791 192.697714 
L 381.510352 191.638909 
L 381.510352 191.638909 
L 382.905715 181.39593 
L 382.905715 181.39593 
L 384.068518 169.235559 
L 384.068518 169.235559 
L 385.696442 143.452308 
L 385.696442 143.452308 
L 388.719729 85.989544 
L 388.719729 85.989544 
L 389.417411 77.771982 
L 389.417411 77.771982 
L 390.115092 71.637248 
L 390.115092 71.637248 
L 390.812774 67.057419 
L 390.812774 67.057419 
L 391.510456 63.638393 
L 391.510456 63.638393 
L 392.208138 61.085923 
L 392.208138 61.085923 
L 392.905819 59.180432 
L 392.905819 59.180432 
L 393.836061 57.36892 
L 393.836061 57.36892 
L 394.766304 56.142127 
L 394.766304 56.142127 
L 395.696546 55.311274 
L 395.696546 55.311274 
L 396.626788 54.74857 
L 396.626788 54.74857 
L 397.789591 54.29333 
L 397.789591 54.29333 
L 398.487273 54.110784 
L 398.487273 54.110784 
" clip-path="url(#pe736f52a7e)" style="fill: none; stroke: #1f77b4; stroke-width: 1.5; stroke-linecap: square"/>
   </g>
   <g id="line2d_24">
    <path d="M 73.832727 53.568 
L 87.088679 53.568 
L 87.088679 53.568 
L 87.32124 53.972164 
L 87.32124 53.972164 
L 87.5538 56.065462 
L 87.5538 56.065462 
L 88.018922 63.587522 
L 88.018922 63.587522 
L 88.251482 63.441904 
L 88.251482 63.441904 
L 88.716603 68.913928 
L 88.716603 68.913928 
L 88.949164 73.094394 
L 88.949164 73.094394 
L 89.181724 73.508773 
L 89.181724 73.508773 
L 89.646846 78.971706 
L 89.646846 78.971706 
L 90.111967 86.665177 
L 90.111967 86.665177 
L 90.344527 85.994805 
L 90.344527 85.994805 
L 90.809648 92.801444 
L 90.809648 92.801444 
L 91.042209 93.593836 
L 91.042209 93.593836 
L 91.50733 99.105598 
L 91.50733 99.105598 
L 91.739891 102.879448 
L 91.739891 102.879448 
L 91.972451 103.004226 
L 91.972451 103.004226 
L 93.367815 118.101823 
L 93.367815 118.101823 
L 93.600375 117.715842 
L 93.600375 117.715842 
L 94.065496 122.380151 
L 94.065496 122.380151 
L 94.298057 122.572656 
L 94.298057 122.572656 
L 94.530617 124.090787 
L 94.530617 124.090787 
L 94.763178 126.459793 
L 94.763178 126.459793 
L 94.995738 126.41791 
L 94.995738 126.41791 
L 95.46086 129.243688 
L 95.46086 129.243688 
L 95.69342 129.223156 
L 95.69342 129.223156 
L 96.158541 131.041971 
L 96.158541 131.041971 
L 96.391102 131.047947 
L 96.391102 131.047947 
L 96.856223 131.972984 
L 96.856223 131.972984 
L 97.321344 132.215952 
L 97.321344 132.215952 
L 97.553905 132.471434 
L 97.553905 132.471434 
L 98.019026 132.380621 
L 98.019026 132.380621 
L 98.251586 132.584721 
L 98.716707 132.365247 
L 98.716707 132.365247 
L 98.949268 132.565618 
L 98.949268 132.565618 
L 99.414389 132.218302 
L 99.414389 132.218302 
L 99.64695 132.432208 
L 99.87951 132.144241 
L 99.87951 132.144241 
L 100.112071 131.508141 
L 100.112071 131.508141 
L 100.344631 131.826242 
L 100.344631 131.826242 
L 100.577192 131.1122 
L 100.577192 131.1122 
L 100.809753 131.102905 
L 100.809753 131.102905 
L 101.042313 130.370424 
L 101.042313 130.370424 
L 101.274874 128.895503 
L 101.274874 128.895503 
L 101.507434 128.891724 
L 101.507434 128.891724 
L 101.739995 127.729184 
L 101.739995 127.729184 
L 101.972555 125.162514 
L 101.972555 125.162514 
L 102.205116 125.339339 
L 102.205116 125.339339 
L 102.437676 123.460152 
L 102.437676 123.460152 
L 102.670237 119.7052 
L 102.670237 119.7052 
L 102.902798 120.240782 
L 102.902798 120.240782 
L 103.135358 117.454639 
L 103.135358 117.454639 
L 103.367919 112.272778 
L 103.367919 112.272778 
L 103.600479 113.435216 
L 103.600479 113.435216 
L 103.83304 109.570604 
L 103.83304 109.570604 
L 104.0656 103.051114 
L 104.0656 103.051114 
L 104.298161 104.737387 
L 104.530722 99.99861 
L 104.530722 99.99861 
L 104.763282 92.73101 
L 104.763282 92.73101 
L 104.995843 94.364828 
L 105.228403 88.750456 
L 105.228403 88.750456 
L 105.460964 80.281089 
L 105.460964 80.281089 
L 105.693524 82.001175 
L 105.693524 82.001175 
L 105.926085 76.447276 
L 105.926085 76.447276 
L 106.158645 67.213916 
L 106.158645 67.213916 
L 106.391206 67.367092 
L 106.391206 67.367092 
L 106.623767 62.361545 
L 106.623767 62.361545 
L 106.856327 54.018388 
L 106.856327 54.018388 
L 107.321448 53.568 
L 107.321448 53.568 
L 131.275186 53.568 
L 131.275186 53.568 
L 131.507747 58.342275 
L 131.507747 58.342275 
L 131.740307 67.710016 
L 131.740307 67.710016 
L 131.972868 67.498153 
L 131.972868 67.498153 
L 132.90311 90.345762 
L 132.90311 90.345762 
L 133.368231 101.431291 
L 133.368231 101.431291 
L 133.600792 110.261509 
L 133.600792 110.261509 
L 133.833352 110.941228 
L 133.833352 110.941228 
L 134.298474 122.062049 
L 134.298474 122.062049 
L 134.531034 130.047981 
L 134.531034 130.047981 
L 134.763595 128.142797 
L 134.763595 128.142797 
L 135.228716 141.402067 
L 135.228716 141.402067 
L 135.461276 139.429207 
L 135.461276 139.429207 
L 135.693837 144.683239 
L 135.693837 144.683239 
L 136.158958 149.409349 
L 136.158958 149.409349 
L 136.391519 154.954667 
L 136.391519 154.954667 
L 136.624079 155.381969 
L 136.624079 155.381969 
L 136.85664 158.615946 
L 136.85664 158.615946 
L 137.0892 164.059112 
L 137.0892 164.059112 
L 137.321761 163.546564 
L 137.321761 163.546564 
L 137.554321 167.016002 
L 137.786882 167.66768 
L 137.786882 167.66768 
L 138.019443 170.154263 
L 138.019443 170.154263 
L 138.252003 174.400872 
L 138.252003 174.400872 
L 138.484564 173.462913 
L 138.484564 173.462913 
L 138.717124 176.887199 
L 138.717124 176.887199 
L 138.949685 176.858443 
L 138.949685 176.858443 
L 139.182245 179.432008 
L 139.182245 179.432008 
L 139.414806 179.88684 
L 139.414806 179.88684 
L 139.647367 181.35318 
L 139.647367 181.35318 
L 139.879927 184.383874 
L 139.879927 184.383874 
L 140.112488 183.927562 
L 140.112488 183.927562 
L 140.345048 186.360004 
L 140.345048 186.360004 
L 140.577609 186.248556 
L 140.577609 186.248556 
L 140.810169 188.085248 
L 140.810169 188.085248 
L 141.04273 188.324641 
L 141.04273 188.324641 
L 141.27529 190.029046 
L 141.27529 190.029046 
L 141.507851 190.547365 
L 141.507851 190.547365 
L 142.438093 195.343909 
L 142.438093 195.343909 
L 142.670654 195.187719 
L 142.670654 195.187719 
L 142.903214 196.667798 
L 142.903214 196.667798 
L 143.135775 196.704471 
L 143.135775 196.704471 
L 143.368336 197.739015 
L 143.368336 197.739015 
L 143.600896 197.839328 
L 143.600896 197.839328 
L 143.833457 198.841183 
L 143.833457 198.841183 
L 144.066017 199.031288 
L 144.066017 199.031288 
L 144.298578 200.243627 
L 144.298578 200.243627 
L 144.531138 200.337147 
L 144.531138 200.337147 
L 144.763699 201.035968 
L 144.763699 201.035968 
L 144.996259 201.058544 
L 144.996259 201.058544 
L 145.22882 201.645866 
L 145.22882 201.645866 
L 145.461381 201.505101 
L 145.461381 201.505101 
L 145.693941 202.081596 
L 145.693941 202.081596 
L 145.926502 201.975051 
L 145.926502 201.975051 
L 146.159062 202.35807 
L 146.391623 201.99114 
L 146.391623 201.99114 
L 146.624183 202.503023 
L 146.624183 202.503023 
L 146.856744 202.39699 
L 146.856744 202.39699 
L 147.321865 202.641644 
L 147.321865 202.641644 
L 147.554426 202.562987 
L 147.554426 202.562987 
L 147.786986 202.34714 
L 148.019547 202.565745 
L 148.019547 202.565745 
L 148.252107 202.02531 
L 148.252107 202.02531 
L 148.484668 202.564774 
L 148.484668 202.564774 
L 148.717228 202.22946 
L 148.717228 202.22946 
L 148.949789 202.512064 
L 148.949789 202.512064 
L 149.18235 201.718496 
L 149.18235 201.718496 
L 149.41491 202.355516 
L 149.41491 202.355516 
L 149.647471 201.631208 
L 149.647471 201.631208 
L 149.880031 202.042369 
L 149.880031 202.042369 
L 150.112592 200.706324 
L 150.112592 200.706324 
L 150.345152 201.510413 
L 150.345152 201.510413 
L 150.577713 200.067108 
L 150.577713 200.067108 
L 150.810274 200.670367 
L 150.810274 200.670367 
L 151.042834 198.437529 
L 151.042834 198.437529 
L 151.275395 199.434226 
L 151.275395 199.434226 
L 151.507955 196.938603 
L 151.507955 196.938603 
L 151.740516 197.705815 
L 151.740516 197.705815 
L 151.973076 194.207111 
L 151.973076 194.207111 
L 152.205637 194.98127 
L 152.205637 194.98127 
L 152.438197 191.526644 
L 152.438197 191.526644 
L 152.670758 192.239767 
L 152.670758 192.239767 
L 152.903319 187.404507 
L 152.903319 187.404507 
L 153.135879 187.938506 
L 153.135879 187.938506 
L 153.36844 183.237117 
L 153.36844 183.237117 
L 153.601 183.464558 
L 153.601 183.464558 
L 153.833561 177.411596 
L 153.833561 177.411596 
L 154.066121 177.090379 
L 154.066121 177.090379 
L 154.298682 171.485507 
L 154.298682 171.485507 
L 154.531243 170.278122 
L 154.531243 170.278122 
L 154.763803 164.01774 
L 154.763803 164.01774 
L 154.996364 161.451581 
L 154.996364 161.451581 
L 155.228924 156.116901 
L 155.228924 156.116901 
L 155.461485 140.894934 
L 155.461485 140.894934 
L 155.694045 145.366431 
L 155.694045 145.366431 
L 155.926606 137.806626 
L 155.926606 137.806626 
L 156.159166 137.497309 
L 156.159166 137.497309 
L 156.391727 142.139758 
L 156.391727 142.139758 
L 156.624288 142.711911 
L 156.624288 142.711911 
L 157.089409 154.116102 
L 157.089409 154.116102 
L 157.321969 152.954175 
L 157.321969 152.954175 
L 157.55453 157.392625 
L 157.55453 157.392625 
L 157.78709 157.602088 
L 157.78709 157.602088 
L 158.252212 161.391363 
L 158.252212 161.391363 
L 158.717333 164.820093 
L 158.717333 164.820093 
L 158.949893 164.983689 
L 159.415014 166.529963 
L 159.415014 166.529963 
L 159.880135 167.518589 
L 159.880135 167.518589 
L 160.112696 167.971174 
L 160.112696 167.971174 
L 160.345257 167.836639 
L 160.810378 168.273033 
L 160.810378 168.273033 
L 161.042938 167.96341 
L 161.042938 167.96341 
L 161.275499 168.441634 
L 161.275499 168.441634 
L 161.74062 168.182475 
L 161.74062 168.182475 
L 161.973181 168.364918 
L 161.973181 168.364918 
L 162.205741 167.867387 
L 162.205741 167.867387 
L 162.438302 168.07021 
L 162.438302 168.07021 
L 162.670862 167.771313 
L 162.670862 167.771313 
L 162.903423 167.951458 
L 162.903423 167.951458 
L 163.135983 167.552708 
L 163.135983 167.552708 
L 163.368544 167.602507 
L 163.368544 167.602507 
L 163.601104 167.410666 
L 163.601104 167.410666 
L 163.833665 165.835381 
L 163.833665 165.835381 
L 164.066226 166.27586 
L 164.066226 166.27586 
L 164.298786 164.833781 
L 164.298786 164.833781 
L 164.531347 164.935422 
L 164.531347 164.935422 
L 165.229028 162.131607 
L 165.229028 162.131607 
L 165.461589 158.609255 
L 165.461589 158.609255 
L 165.69415 159.47106 
L 165.69415 159.47106 
L 165.92671 156.624749 
L 165.92671 156.624749 
L 166.159271 155.974705 
L 166.159271 155.974705 
L 166.391831 154.086937 
L 166.391831 154.086937 
L 166.624392 148.672016 
L 166.624392 148.672016 
L 166.856952 150.269775 
L 166.856952 150.269775 
L 167.089513 145.431655 
L 167.089513 145.431655 
L 167.322073 145.362549 
L 167.322073 145.362549 
L 167.554634 142.275058 
L 167.554634 142.275058 
L 167.787195 135.368974 
L 167.787195 135.368974 
L 168.019755 137.249131 
L 168.019755 137.249131 
L 168.252316 131.348835 
L 168.252316 131.348835 
L 168.484876 131.263538 
L 168.484876 131.263538 
L 168.717437 127.095075 
L 168.717437 127.095075 
L 168.949997 119.294089 
L 168.949997 119.294089 
L 169.182558 121.007892 
L 169.415119 114.633254 
L 169.415119 114.633254 
L 169.647679 113.501921 
L 169.647679 113.501921 
L 169.88024 109.275181 
L 169.88024 109.275181 
L 170.1128 100.718577 
L 170.1128 100.718577 
L 170.345361 100.671536 
L 170.345361 100.671536 
L 170.577921 95.284349 
L 170.577921 95.284349 
L 170.810482 85.612093 
L 170.810482 85.612093 
L 171.275603 86.381961 
L 171.275603 86.381961 
L 171.508164 95.180409 
L 171.508164 95.180409 
L 171.740724 95.354527 
L 171.740724 95.354527 
L 171.973285 101.348599 
L 171.973285 101.348599 
L 172.205845 113.128913 
L 172.205845 113.128913 
L 172.438406 114.066617 
L 172.438406 114.066617 
L 172.670966 120.472514 
L 172.670966 120.472514 
L 172.903527 131.50334 
L 172.903527 131.50334 
L 173.136088 133.044915 
L 173.136088 133.044915 
L 173.368648 139.165042 
L 173.368648 139.165042 
L 173.601209 149.752835 
L 173.601209 149.752835 
L 173.833769 150.719346 
L 173.833769 150.719346 
L 174.06633 156.242956 
L 174.06633 156.242956 
L 174.29889 168.479277 
L 174.29889 168.479277 
L 174.531451 166.87682 
L 174.531451 166.87682 
L 174.764011 174.595012 
L 174.764011 174.595012 
L 174.996572 177.240236 
L 174.996572 177.240236 
L 175.229133 182.273569 
L 175.229133 182.273569 
L 175.461693 193.196573 
L 175.694254 191.032944 
L 175.694254 191.032944 
L 175.926814 200.113383 
L 175.926814 200.113383 
L 176.159375 199.535663 
L 176.159375 199.535663 
L 176.391935 206.729662 
L 176.391935 206.729662 
L 176.624496 207.004297 
L 176.624496 207.004297 
L 176.857057 213.768646 
L 176.857057 213.768646 
L 177.089617 214.475486 
L 177.089617 214.475486 
L 177.322178 220.484931 
L 177.322178 220.484931 
L 177.554738 221.166693 
L 177.554738 221.166693 
L 177.787299 227.370636 
L 177.787299 227.370636 
L 178.019859 227.645986 
L 178.019859 227.645986 
L 178.25242 233.710798 
L 178.25242 233.710798 
L 178.48498 233.278082 
L 178.48498 233.278082 
L 178.717541 239.742206 
L 178.950102 238.410656 
L 178.950102 238.410656 
L 179.182662 245.379614 
L 179.182662 245.379614 
L 179.415223 243.096978 
L 179.415223 243.096978 
L 180.345465 253.480161 
L 180.345465 253.480161 
L 180.578026 253.246539 
L 180.578026 253.246539 
L 180.810586 257.815438 
L 180.810586 257.815438 
L 181.043147 256.623222 
L 181.043147 256.623222 
L 181.740828 260.775546 
L 181.740828 260.775546 
L 181.973389 263.484411 
L 181.973389 263.484411 
L 182.205949 263.031622 
L 182.205949 263.031622 
L 182.671071 265.387961 
L 182.671071 265.387961 
L 182.903631 265.861997 
L 182.903631 265.861997 
L 183.136192 267.312963 
L 183.136192 267.312963 
L 183.368752 267.213212 
L 183.368752 267.213212 
L 183.601313 268.709227 
L 183.601313 268.709227 
L 183.833873 268.646046 
L 183.833873 268.646046 
L 184.066434 268.789161 
L 184.066434 268.789161 
L 184.298995 269.383225 
L 184.298995 269.383225 
L 184.531555 269.410909 
L 184.531555 269.410909 
L 184.996676 270.10544 
L 184.996676 270.10544 
L 185.461797 270.075152 
L 185.461797 270.075152 
L 185.694358 270.171174 
L 185.694358 270.171174 
L 185.926918 270.078114 
L 185.926918 270.078114 
L 186.39204 270.292888 
L 186.39204 270.292888 
L 186.6246 270.141601 
L 186.6246 270.141601 
L 186.857161 270.249729 
L 186.857161 270.249729 
L 187.089721 270.076786 
L 187.787403 270.30387 
L 187.787403 270.30387 
L 188.019964 270.087563 
L 188.019964 270.087563 
L 188.252524 269.611382 
L 188.485085 269.696423 
L 188.485085 269.696423 
L 188.717645 268.727308 
L 188.717645 268.727308 
L 188.950206 269.328523 
L 188.950206 269.328523 
L 189.182766 268.842688 
L 189.182766 268.842688 
L 189.415327 267.845788 
L 189.415327 267.845788 
L 189.647887 267.736332 
L 189.647887 267.736332 
L 189.880448 265.771541 
L 189.880448 265.771541 
L 190.113009 266.247365 
L 190.113009 266.247365 
L 190.345569 265.598649 
L 190.345569 265.598649 
L 190.57813 263.900731 
L 190.57813 263.900731 
L 190.81069 263.399676 
L 190.81069 263.399676 
L 191.043251 260.14251 
L 191.275811 260.678246 
L 191.275811 260.678246 
L 191.508372 255.232271 
L 191.508372 255.232271 
L 191.740933 256.98576 
L 191.973493 255.779856 
L 191.973493 255.779856 
L 192.206054 251.166062 
L 192.206054 251.166062 
L 192.438614 251.461791 
L 192.438614 251.461791 
L 192.671175 243.904898 
L 192.671175 243.904898 
L 192.903735 246.393574 
L 192.903735 246.393574 
L 193.136296 243.918075 
L 193.136296 243.918075 
L 193.368856 238.077487 
L 193.368856 238.077487 
L 193.601417 237.541955 
L 193.601417 237.541955 
L 193.833978 227.968838 
L 193.833978 227.968838 
L 194.066538 229.948185 
L 194.066538 229.948185 
L 194.299099 226.548415 
L 194.299099 226.548415 
L 194.531659 219.91288 
L 194.531659 219.91288 
L 194.76422 217.489887 
L 194.76422 217.489887 
L 194.99678 220.335432 
L 194.99678 220.335432 
L 195.229341 220.423589 
L 195.229341 220.423589 
L 195.461902 233.563801 
L 195.461902 233.563801 
L 195.694462 230.169344 
L 195.694462 230.169344 
L 195.927023 246.159697 
L 195.927023 246.159697 
L 196.159583 241.255229 
L 196.159583 241.255229 
L 196.392144 245.17199 
L 196.392144 245.17199 
L 196.624704 252.825724 
L 196.624704 252.825724 
L 196.857265 253.129422 
L 196.857265 253.129422 
L 197.089825 262.658053 
L 197.089825 262.658053 
L 197.322386 260.185925 
L 197.322386 260.185925 
L 198.020068 269.174427 
L 198.020068 269.174427 
L 198.252628 275.832639 
L 198.252628 275.832639 
L 198.485189 274.114137 
L 198.485189 274.114137 
L 198.717749 276.518232 
L 198.717749 276.518232 
L 198.95031 280.393417 
L 198.95031 280.393417 
L 199.182871 280.578465 
L 199.182871 280.578465 
L 199.415431 285.732643 
L 199.415431 285.732643 
L 199.647992 284.475561 
L 199.647992 284.475561 
L 199.880552 285.3556 
L 199.880552 285.3556 
L 200.113113 288.637027 
L 200.113113 288.637027 
L 200.345673 288.245325 
L 200.345673 288.245325 
L 200.578234 289.081745 
L 200.578234 289.081745 
L 200.810794 291.022581 
L 200.810794 291.022581 
L 201.043355 290.953169 
L 201.043355 290.953169 
L 201.275916 291.790508 
L 201.275916 291.790508 
L 201.508476 293.065875 
L 201.508476 293.065875 
L 201.741037 293.278862 
L 201.741037 293.278862 
L 201.973597 294.299462 
L 201.973597 294.299462 
L 202.206158 294.247007 
L 202.206158 294.247007 
L 202.438718 294.368159 
L 202.438718 294.368159 
L 202.671279 294.889594 
L 202.671279 294.889594 
L 202.90384 294.871002 
L 202.90384 294.871002 
L 203.601521 295.433553 
L 203.601521 295.433553 
L 204.066642 295.204733 
L 204.066642 295.204733 
L 204.764324 295.488 
L 204.764324 295.488 
L 205.229445 295.153759 
L 205.229445 295.153759 
L 205.462006 295.180472 
L 205.462006 295.180472 
L 205.927127 294.844443 
L 205.927127 294.844443 
L 206.159687 294.175858 
L 206.159687 294.175858 
L 206.392248 294.272034 
L 206.392248 294.272034 
L 206.624809 294.104301 
L 206.624809 294.104301 
L 207.08993 293.10168 
L 207.08993 293.10168 
L 207.32249 291.700053 
L 207.32249 291.700053 
L 207.555051 291.740148 
L 207.555051 291.740148 
L 207.787611 291.215138 
L 207.787611 291.215138 
L 208.020172 289.837466 
L 208.020172 289.837466 
L 208.252732 289.291617 
L 208.252732 289.291617 
L 208.485293 285.941697 
L 208.485293 285.941697 
L 208.717854 287.379486 
L 208.717854 287.379486 
L 208.950414 286.028628 
L 208.950414 286.028628 
L 209.182975 282.072795 
L 209.182975 282.072795 
L 209.415535 283.169447 
L 209.415535 283.169447 
L 209.648096 281.741822 
L 209.648096 281.741822 
L 209.880656 277.582757 
L 209.880656 277.582757 
L 210.113217 278.315851 
L 210.113217 278.315851 
L 210.345778 276.209427 
L 210.345778 276.209427 
L 210.578338 271.763825 
L 210.578338 271.763825 
L 210.810899 271.754785 
L 210.810899 271.754785 
L 211.043459 261.552053 
L 211.043459 261.552053 
L 211.27602 264.423442 
L 211.27602 264.423442 
L 211.50858 263.125091 
L 211.50858 263.125091 
L 211.741141 252.505171 
L 211.741141 252.505171 
L 211.973701 255.986765 
L 211.973701 255.986765 
L 212.206262 252.604106 
L 212.206262 252.604106 
L 212.438823 241.920545 
L 212.438823 241.920545 
L 212.671383 244.192966 
L 212.671383 244.192966 
L 212.903944 239.355255 
L 212.903944 239.355255 
L 213.136504 229.747201 
L 213.136504 229.747201 
L 213.369065 228.302108 
L 213.369065 228.302108 
L 213.601625 232.271324 
L 213.601625 232.271324 
L 213.834186 229.014516 
L 213.834186 229.014516 
L 214.764428 249.735373 
L 214.764428 249.735373 
L 214.996989 248.153805 
L 214.996989 248.153805 
L 215.229549 257.343496 
L 215.229549 257.343496 
L 215.46211 254.681876 
L 215.46211 254.681876 
L 215.69467 256.282495 
L 215.69467 256.282495 
L 215.927231 260.913808 
L 215.927231 260.913808 
L 216.159792 260.47956 
L 216.159792 260.47956 
L 216.392352 265.925587 
L 216.392352 265.925587 
L 216.624913 229.665786 
L 216.624913 229.665786 
L 216.857473 265.983149 
L 216.857473 265.983149 
L 217.090034 268.635626 
L 217.090034 268.635626 
L 217.322594 268.760763 
L 217.322594 268.760763 
L 217.555155 271.979928 
L 217.555155 271.979928 
L 217.787716 271.408081 
L 217.787716 271.408081 
L 218.020276 272.277854 
L 218.020276 272.277854 
L 218.252837 273.80998 
L 218.252837 273.80998 
L 218.485397 274.066892 
L 218.485397 274.066892 
L 218.717958 275.84551 
L 218.717958 275.84551 
L 218.950518 275.765015 
L 218.950518 275.765015 
L 219.183079 276.187157 
L 219.183079 276.187157 
L 219.415639 276.899463 
L 219.415639 276.899463 
L 219.6482 277.14238 
L 219.6482 277.14238 
L 219.880761 277.872409 
L 219.880761 277.872409 
L 220.113321 277.834562 
L 220.113321 277.834562 
L 220.578442 278.355332 
L 220.578442 278.355332 
L 221.043563 278.632368 
L 221.043563 278.632368 
L 221.508685 278.88356 
L 221.508685 278.88356 
L 221.741245 279.031425 
L 221.741245 279.031425 
L 222.206366 278.743867 
L 222.206366 278.743867 
L 222.438927 278.847245 
L 222.438927 278.847245 
L 222.671487 278.689471 
L 222.671487 278.689471 
L 222.904048 279.051753 
L 222.904048 279.051753 
L 223.369169 278.700504 
L 223.369169 278.700504 
L 223.60173 278.792594 
L 223.60173 278.792594 
L 223.83429 278.427247 
L 223.83429 278.427247 
L 224.066851 278.591201 
L 224.066851 278.591201 
L 224.299411 278.592172 
L 224.299411 278.592172 
L 224.531972 278.107767 
L 224.531972 278.107767 
L 224.764532 278.138259 
L 224.764532 278.138259 
L 224.997093 277.102847 
L 224.997093 277.102847 
L 225.229654 277.496541 
L 225.229654 277.496541 
L 225.462214 277.257097 
L 225.462214 277.257097 
L 225.694775 276.115753 
L 225.694775 276.115753 
L 225.927335 276.275774 
L 225.927335 276.275774 
L 226.159896 274.109336 
L 226.159896 274.109336 
L 226.392456 274.848609 
L 226.392456 274.848609 
L 226.625017 274.519118 
L 226.625017 274.519118 
L 226.857577 272.432154 
L 226.857577 272.432154 
L 227.090138 273.119126 
L 227.090138 273.119126 
L 227.322699 272.161145 
L 227.322699 272.161145 
L 227.555259 270.485751 
L 227.555259 270.485751 
L 227.78782 270.063149 
L 227.78782 270.063149 
L 228.02038 267.052322 
L 228.02038 267.052322 
L 228.252941 267.692815 
L 228.252941 267.692815 
L 228.485501 266.676608 
L 228.485501 266.676608 
L 228.718062 264.688578 
L 228.718062 264.688578 
L 228.950623 263.919016 
L 228.950623 263.919016 
L 229.183183 260.132397 
L 229.183183 260.132397 
L 229.415744 260.940419 
L 229.415744 260.940419 
L 229.648304 259.649525 
L 229.648304 259.649525 
L 229.880865 257.260651 
L 229.880865 257.260651 
L 230.113425 256.350579 
L 230.113425 256.350579 
L 230.345986 252.005393 
L 230.345986 252.005393 
L 230.578546 252.848044 
L 230.811107 251.305448 
L 230.811107 251.305448 
L 231.043668 248.453825 
L 231.043668 248.453825 
L 231.276228 247.515662 
L 231.276228 247.515662 
L 231.508789 242.901919 
L 231.508789 242.901919 
L 231.741349 243.537968 
L 231.741349 243.537968 
L 231.97391 237.012911 
L 231.97391 237.012911 
L 232.20647 239.029901 
L 232.20647 239.029901 
L 232.439031 237.460234 
L 232.439031 237.460234 
L 232.671592 232.960696 
L 232.671592 232.960696 
L 232.904152 232.997573 
L 232.904152 232.997573 
L 233.136713 226.553676 
L 233.136713 226.553676 
L 233.369273 228.296388 
L 233.601834 226.063244 
L 233.601834 226.063244 
L 233.834394 222.27969 
L 234.066955 220.959376 
L 234.299515 215.369622 
L 234.299515 215.369622 
L 234.532076 215.490417 
L 234.532076 215.490417 
L 234.764637 207.846029 
L 234.997197 209.620817 
L 234.997197 209.620817 
L 235.229758 200.355739 
L 235.229758 200.355739 
L 235.462318 203.219875 
L 235.462318 203.219875 
L 235.694879 200.121147 
L 235.694879 200.121147 
L 236.392561 187.82619 
L 236.392561 187.82619 
L 236.625121 185.854505 
L 236.625121 185.854505 
L 236.857682 179.99604 
L 236.857682 179.99604 
L 237.090242 177.774746 
L 237.090242 177.774746 
L 237.322803 171.861783 
L 237.322803 171.861783 
L 237.555363 170.176276 
L 237.555363 170.176276 
L 237.787924 164.102271 
L 237.787924 164.102271 
L 238.020485 162.041713 
L 238.020485 162.041713 
L 238.253045 156.166547 
L 238.253045 156.166547 
L 238.485606 153.437966 
L 238.485606 153.437966 
L 238.718166 149.339273 
L 238.718166 149.339273 
L 238.950727 137.455734 
L 238.950727 137.455734 
L 239.183287 140.858925 
L 239.183287 140.858925 
L 239.415848 130.546176 
L 239.415848 130.546176 
L 239.648408 132.334704 
L 239.880969 124.387794 
L 239.880969 124.387794 
L 240.11353 123.445953 
L 240.11353 123.445953 
L 240.34609 118.312256 
L 240.34609 118.312256 
L 240.578651 108.411537 
L 240.578651 108.411537 
L 240.811211 110.496254 
L 240.811211 110.496254 
L 241.043772 102.745271 
L 241.043772 102.745271 
L 241.276332 102.411439 
L 241.276332 102.411439 
L 241.508893 97.762504 
L 241.508893 97.762504 
L 241.741454 89.232153 
L 241.741454 89.232153 
L 241.974014 89.81636 
L 241.974014 89.81636 
L 242.439135 76.879123 
L 242.439135 76.879123 
L 242.671696 77.658287 
L 242.671696 77.658287 
L 242.904256 72.813885 
L 242.904256 72.813885 
L 243.136817 65.387081 
L 243.136817 65.387081 
L 243.369377 66.576488 
L 243.369377 66.576488 
L 243.601938 62.296577 
L 243.601938 62.296577 
L 243.834499 55.831993 
L 243.834499 55.831993 
L 244.067059 55.5024 
L 244.067059 55.5024 
L 244.29962 53.568 
L 244.29962 53.568 
L 282.672113 53.568 
L 282.672113 53.568 
L 282.904673 55.202278 
L 282.904673 55.202278 
L 283.369794 72.540884 
L 283.369794 72.540884 
L 283.602355 70.881068 
L 283.602355 70.881068 
L 284.300036 88.326985 
L 284.300036 88.326985 
L 284.532597 87.7272 
L 284.532597 87.7272 
L 285.230279 99.33641 
L 285.230279 99.33641 
L 285.462839 98.898587 
L 285.462839 98.898587 
L 286.160521 103.877727 
L 286.160521 103.877727 
L 286.625642 105.691895 
L 286.625642 105.691895 
L 286.858203 106.291425 
L 286.858203 106.291425 
L 287.090763 106.514933 
L 287.090763 106.514933 
L 287.555884 106.476932 
L 287.555884 106.476932 
L 287.788445 106.379786 
L 287.788445 106.379786 
L 288.021005 106.597472 
L 288.021005 106.597472 
L 288.253566 106.476626 
L 288.486127 105.5426 
L 288.486127 105.5426 
L 288.718687 106.325237 
L 288.718687 106.325237 
L 288.951248 105.62851 
L 288.951248 105.62851 
L 289.183808 103.890854 
L 289.183808 103.890854 
L 289.416369 104.266518 
L 289.416369 104.266518 
L 289.648929 102.866525 
L 289.648929 102.866525 
L 289.88149 99.4902 
L 289.88149 99.4902 
L 290.114051 99.588878 
L 290.114051 99.588878 
L 290.346611 97.779052 
L 290.346611 97.779052 
L 290.579172 93.882875 
L 290.579172 93.882875 
L 290.811732 93.39367 
L 290.811732 93.39367 
L 291.044293 90.735778 
L 291.509414 80.093845 
L 291.509414 80.093845 
L 291.741974 81.616726 
L 291.741974 81.616726 
L 292.207096 70.287055 
L 292.207096 70.287055 
L 292.439656 70.376437 
L 292.439656 70.376437 
L 292.672217 66.680631 
L 292.672217 66.680631 
L 293.137338 53.568 
L 293.137338 53.568 
L 293.369898 53.790998 
L 293.369898 53.790998 
L 293.602459 53.568 
L 293.602459 53.568 
L 296.160625 53.568 
L 296.160625 53.568 
L 296.393186 54.319583 
L 296.393186 54.319583 
L 296.625746 56.154947 
L 296.625746 56.154947 
L 297.090867 65.023318 
L 297.090867 65.023318 
L 297.323428 65.402915 
L 297.323428 65.402915 
L 297.788549 71.371551 
L 297.788549 71.371551 
L 298.25367 79.831978 
L 298.25367 79.831978 
L 298.486231 79.832949 
L 298.486231 79.832949 
L 298.718791 82.000153 
L 298.718791 82.000153 
L 299.183912 90.895595 
L 299.183912 90.895595 
L 299.416473 90.633116 
L 299.416473 90.633116 
L 299.649034 93.258778 
L 299.649034 93.258778 
L 299.881594 97.375348 
L 299.881594 97.375348 
L 300.114155 98.222188 
L 300.114155 98.222188 
L 300.811836 109.596244 
L 300.811836 109.596244 
L 301.044397 109.618973 
L 301.044397 109.618973 
L 301.276958 112.752943 
L 301.276958 112.752943 
L 301.509518 117.888019 
L 301.509518 117.888019 
L 301.742079 118.403273 
L 301.742079 118.403273 
L 301.974639 121.623307 
L 301.974639 121.623307 
L 302.2072 126.49289 
L 302.2072 126.49289 
L 302.43976 127.732912 
L 302.43976 127.732912 
L 302.672321 130.632444 
L 302.672321 130.632444 
L 302.904881 135.523223 
L 302.904881 135.523223 
L 303.137442 136.665588 
L 303.137442 136.665588 
L 303.370003 139.4289 
L 303.370003 139.4289 
L 303.602563 144.619445 
L 303.602563 144.619445 
L 303.835124 145.118048 
L 303.835124 145.118048 
L 304.067684 147.699683 
L 304.067684 147.699683 
L 304.300245 153.36554 
L 304.300245 153.36554 
L 304.532805 152.858407 
L 304.532805 152.858407 
L 304.765366 156.283255 
L 304.765366 156.283255 
L 305.230487 160.058382 
L 305.230487 160.058382 
L 305.463048 163.948941 
L 305.463048 163.948941 
L 305.695608 163.868241 
L 305.695608 163.868241 
L 305.928169 166.779265 
L 305.928169 166.779265 
L 306.160729 167.64061 
L 306.39329 169.218959 
L 306.39329 169.218959 
L 306.62585 172.386895 
L 306.62585 172.386895 
L 306.858411 172.07763 
L 307.090972 174.25408 
L 307.090972 174.25408 
L 307.323532 174.791143 
L 307.323532 174.791143 
L 307.556093 176.409588 
L 307.556093 176.409588 
L 307.788653 176.802106 
L 307.788653 176.802106 
L 308.021214 177.766983 
L 308.021214 177.766983 
L 308.253774 179.232556 
L 308.253774 179.232556 
L 308.486335 179.52941 
L 308.718896 180.379774 
L 308.718896 180.379774 
L 308.951456 180.354287 
L 308.951456 180.354287 
L 309.184017 181.134115 
L 309.416577 181.225745 
L 309.416577 181.225745 
L 309.649138 182.015686 
L 309.649138 182.015686 
L 309.881698 181.751164 
L 309.881698 181.751164 
L 310.114259 182.546467 
L 310.346819 182.199202 
L 310.346819 182.199202 
L 310.811941 182.505709 
L 310.811941 182.505709 
L 311.509622 182.156962 
L 311.509622 182.156962 
L 311.742183 182.611385 
L 311.742183 182.611385 
L 311.974743 182.094547 
L 311.974743 182.094547 
L 312.207304 182.485381 
L 312.207304 182.485381 
L 312.439865 181.854337 
L 312.439865 181.854337 
L 312.672425 182.208549 
L 312.672425 182.208549 
L 312.904986 181.52648 
L 312.904986 181.52648 
L 313.370107 181.276259 
L 313.370107 181.276259 
L 313.602667 180.579838 
L 313.602667 180.579838 
L 313.835228 180.471353 
L 313.835228 180.471353 
L 314.067788 177.684188 
L 314.067788 177.684188 
L 314.300349 178.771443 
L 314.300349 178.771443 
L 314.53291 176.305852 
L 314.53291 176.305852 
L 314.76547 176.784383 
L 314.76547 176.784383 
L 314.998031 173.989404 
L 314.998031 173.989404 
L 315.230591 173.969178 
L 315.230591 173.969178 
L 315.463152 171.628264 
L 315.463152 171.628264 
L 315.695712 170.907531 
L 315.695712 170.907531 
L 315.928273 169.227234 
L 315.928273 169.227234 
L 316.160834 163.560151 
L 316.160834 163.560151 
L 316.393394 165.345511 
L 316.393394 165.345511 
L 316.625955 159.972115 
L 316.625955 159.972115 
L 316.858515 160.621648 
L 316.858515 160.621648 
L 317.091076 156.40926 
L 317.091076 156.40926 
L 317.323636 155.586221 
L 317.323636 155.586221 
L 317.556197 152.307808 
L 317.788757 144.530828 
L 317.788757 144.530828 
L 318.021318 147.148522 
L 318.021318 147.148522 
L 318.253879 139.810898 
L 318.253879 139.810898 
L 318.486439 140.340606 
L 318.486439 140.340606 
L 318.719 134.945094 
L 318.719 134.945094 
L 318.95156 133.474975 
L 318.95156 133.474975 
L 319.184121 129.652807 
L 319.184121 129.652807 
L 319.416681 120.997831 
L 319.416681 120.997831 
L 319.649242 121.861321 
L 319.649242 121.861321 
L 319.881803 115.458948 
L 319.881803 115.458948 
L 320.114363 113.629662 
L 320.114363 113.629662 
L 320.346924 109.136969 
L 320.346924 109.136969 
L 320.579484 100.773943 
L 320.579484 100.773943 
L 320.812045 100.170634 
L 320.812045 100.170634 
L 321.044605 94.969108 
L 321.044605 94.969108 
L 321.277166 85.519083 
L 321.277166 85.519083 
L 321.509726 85.689064 
L 321.509726 85.689064 
L 321.742287 80.234355 
L 321.742287 80.234355 
L 321.974848 70.346303 
L 321.974848 70.346303 
L 322.207408 70.428688 
L 322.207408 70.428688 
L 322.439969 65.132876 
L 322.439969 65.132876 
L 322.672529 56.108365 
L 322.672529 56.108365 
L 322.90509 55.778517 
L 322.90509 55.778517 
L 323.13765 53.568 
L 323.13765 53.568 
L 330.812149 53.568 
L 330.812149 53.568 
L 331.04471 54.807409 
L 331.04471 54.807409 
L 331.27727 54.624149 
L 331.27727 54.624149 
L 331.742391 61.373583 
L 331.742391 61.373583 
L 332.207512 72.806887 
L 332.207512 72.806887 
L 332.440073 71.769177 
L 332.440073 71.769177 
L 332.672633 76.604284 
L 332.672633 76.604284 
L 333.137755 93.350817 
L 333.137755 93.350817 
L 333.370315 92.799197 
L 333.370315 92.799197 
L 333.835436 107.816298 
L 333.835436 107.816298 
L 334.067997 116.392361 
L 334.067997 116.392361 
L 334.300557 115.176447 
L 334.300557 115.176447 
L 334.533118 120.125504 
L 334.533118 120.125504 
L 334.765679 127.661508 
L 334.765679 127.661508 
L 334.998239 127.426456 
L 334.998239 127.426456 
L 335.2308 130.643119 
L 335.2308 130.643119 
L 335.46336 136.517723 
L 335.46336 136.517723 
L 335.695921 136.504699 
L 335.695921 136.504699 
L 335.928481 138.944343 
L 335.928481 138.944343 
L 336.161042 143.132266 
L 336.161042 143.132266 
L 336.393603 142.938075 
L 336.393603 142.938075 
L 336.858724 147.614642 
L 336.858724 147.614642 
L 337.091284 147.243575 
L 337.091284 147.243575 
L 337.323845 148.765281 
L 337.323845 148.765281 
L 337.556405 149.28835 
L 337.556405 149.28835 
L 338.021526 150.850407 
L 338.021526 150.850407 
L 338.254087 151.026414 
L 338.254087 151.026414 
L 338.486648 151.633299 
L 338.486648 151.633299 
L 338.719208 151.632635 
L 338.719208 151.632635 
L 339.64945 152.183285 
L 339.64945 152.183285 
L 339.882011 151.753532 
L 339.882011 151.753532 
L 340.114572 151.939806 
L 340.114572 151.939806 
L 340.347132 151.815896 
L 340.347132 151.815896 
L 340.812253 152.155295 
L 340.812253 152.155295 
L 341.044814 151.539319 
L 341.044814 151.539319 
L 341.277374 151.73729 
L 341.277374 151.73729 
L 341.509935 151.364844 
L 341.742495 151.412242 
L 341.742495 151.412242 
L 341.975056 151.286749 
L 341.975056 151.286749 
L 342.207617 150.042691 
L 342.207617 150.042691 
L 342.440177 150.22253 
L 342.440177 150.22253 
L 342.672738 149.711668 
L 342.672738 149.711668 
L 342.905298 147.715976 
L 342.905298 147.715976 
L 343.137859 148.637642 
L 343.137859 148.637642 
L 343.370419 146.692261 
L 343.370419 146.692261 
L 343.60298 146.764125 
L 343.60298 146.764125 
L 343.835541 145.550509 
L 343.835541 145.550509 
L 344.068101 142.997374 
L 344.068101 142.997374 
L 344.300662 143.668461 
L 344.300662 143.668461 
L 344.533222 141.525875 
L 344.533222 141.525875 
L 344.765783 141.353085 
L 344.765783 141.353085 
L 345.230904 139.260809 
L 345.230904 139.260809 
L 345.463464 139.321437 
L 345.463464 139.321437 
L 346.161146 143.89912 
L 346.161146 143.89912 
L 346.393707 148.040717 
L 346.393707 148.040717 
L 346.626267 148.354426 
L 346.626267 148.354426 
L 346.858828 151.530177 
L 346.858828 151.530177 
L 347.091388 158.776988 
L 347.091388 158.776988 
L 347.323949 157.316471 
L 347.323949 157.316471 
L 347.55651 163.984643 
L 347.55651 163.984643 
L 347.78907 164.952379 
L 347.78907 164.952379 
L 348.021631 170.222807 
L 348.021631 170.222807 
L 348.254191 184.176915 
L 348.254191 184.176915 
L 348.486752 180.047933 
L 348.486752 180.047933 
L 348.719312 192.708389 
L 348.719312 192.708389 
L 348.951873 191.467294 
L 348.951873 191.467294 
L 349.184433 202.321295 
L 349.184433 202.321295 
L 349.416994 203.207667 
L 349.416994 203.207667 
L 349.649555 211.591941 
L 349.649555 211.591941 
L 349.882115 213.485583 
L 349.882115 213.485583 
L 350.114676 220.293039 
L 350.114676 220.293039 
L 350.347236 222.021807 
L 350.347236 222.021807 
L 350.579797 228.586653 
L 350.579797 228.586653 
L 350.812357 230.152999 
L 350.812357 230.152999 
L 351.044918 236.468798 
L 351.044918 236.468798 
L 351.277479 237.093611 
L 351.277479 237.093611 
L 351.510039 243.929056 
L 351.510039 243.929056 
L 351.7426 243.215168 
L 351.7426 243.215168 
L 351.97516 251.012629 
L 351.97516 251.012629 
L 352.207721 248.723558 
L 352.207721 248.723558 
L 352.905402 256.332856 
L 352.905402 256.332856 
L 353.137963 261.255404 
L 353.137963 261.255404 
L 353.370524 260.600968 
L 353.370524 260.600968 
L 353.603084 266.887347 
L 353.603084 266.887347 
L 353.835645 265.305014 
L 354.068205 266.495237 
L 354.068205 266.495237 
L 354.300766 270.060748 
L 354.300766 270.060748 
L 354.533326 270.014065 
L 354.533326 270.014065 
L 354.765887 274.336981 
L 354.765887 274.336981 
L 354.998448 273.197936 
L 354.998448 273.197936 
L 355.231008 274.641496 
L 355.231008 274.641496 
L 355.463569 277.01847 
L 355.463569 277.01847 
L 355.696129 277.154741 
L 355.696129 277.154741 
L 355.92869 279.66538 
L 355.92869 279.66538 
L 356.16125 279.213715 
L 356.16125 279.213715 
L 357.091493 282.691478 
L 357.091493 282.691478 
L 357.324053 282.518432 
L 357.324053 282.518432 
L 358.021735 283.719024 
L 358.021735 283.719024 
L 358.486856 283.733019 
L 358.486856 283.733019 
L 359.184538 284.137592 
L 359.184538 284.137592 
L 359.417098 283.738791 
L 359.882219 283.931653 
L 359.882219 283.931653 
L 360.11478 283.746707 
L 360.11478 283.746707 
L 360.579901 283.927363 
L 360.579901 283.927363 
L 360.812462 283.654873 
L 360.812462 283.654873 
L 361.045022 283.672698 
L 361.045022 283.672698 
L 361.277583 282.978371 
L 361.277583 282.978371 
L 361.510143 283.198713 
L 361.510143 283.198713 
L 361.742704 283.029805 
L 361.742704 283.029805 
L 362.207825 282.062988 
L 362.207825 282.062988 
L 362.440386 280.23738 
L 362.440386 280.23738 
L 362.672946 280.718056 
L 362.672946 280.718056 
L 362.905507 280.13533 
L 362.905507 280.13533 
L 363.138067 278.708267 
L 363.138067 278.708267 
L 363.370628 278.168701 
L 363.370628 278.168701 
L 363.603188 275.179173 
L 363.603188 275.179173 
L 363.835749 275.796579 
L 363.835749 275.796579 
L 364.068309 274.811835 
L 364.068309 274.811835 
L 364.30087 272.832283 
L 364.30087 272.832283 
L 364.533431 271.910566 
L 364.533431 271.910566 
L 364.765991 268.16915 
L 364.765991 268.16915 
L 364.998552 268.993975 
L 365.231112 267.406688 
L 365.231112 267.406688 
L 365.463673 264.742667 
L 365.463673 264.742667 
L 365.696233 263.85798 
L 365.696233 263.85798 
L 365.928794 259.215328 
L 365.928794 259.215328 
L 366.161355 260.15722 
L 366.161355 260.15722 
L 366.393915 258.51288 
L 366.626476 254.917796 
L 366.626476 254.917796 
L 366.859036 254.524868 
L 366.859036 254.524868 
L 367.091597 248.460057 
L 367.091597 248.460057 
L 367.324157 250.647283 
L 367.324157 250.647283 
L 367.556718 248.385179 
L 367.556718 248.385179 
L 367.789278 243.671174 
L 367.789278 243.671174 
L 368.021839 243.854996 
L 368.021839 243.854996 
L 368.2544 236.410316 
L 368.2544 236.410316 
L 368.48696 238.770281 
L 368.48696 238.770281 
L 368.719521 236.736743 
L 368.719521 236.736743 
L 368.952081 231.356247 
L 368.952081 231.356247 
L 369.184642 231.531642 
L 369.184642 231.531642 
L 369.417202 223.715231 
L 369.417202 223.715231 
L 369.649763 225.861035 
L 369.649763 225.861035 
L 369.882324 223.307287 
L 369.882324 223.307287 
L 370.114884 218.77312 
L 370.114884 218.77312 
L 370.347445 217.724428 
L 370.347445 217.724428 
L 370.580005 211.303464 
L 370.580005 211.303464 
L 370.812566 211.811466 
L 370.812566 211.811466 
L 371.045126 204.022789 
L 371.045126 204.022789 
L 371.277687 205.951775 
L 371.277687 205.951775 
L 371.510247 196.976859 
L 371.510247 196.976859 
L 371.742808 199.822557 
L 371.742808 199.822557 
L 372.67305 188.124678 
L 372.67305 188.124678 
L 372.905611 187.700595 
L 372.905611 187.700595 
L 373.138171 187.588943 
L 373.138171 187.588943 
L 373.370732 187.872976 
L 373.370732 187.872976 
L 373.603293 190.738185 
L 373.603293 190.738185 
L 373.835853 190.64257 
L 373.835853 190.64257 
L 374.068414 193.302556 
L 374.068414 193.302556 
L 374.300974 193.199791 
L 374.300974 193.199791 
L 374.533535 195.257284 
L 374.533535 195.257284 
L 374.766095 195.083983 
L 374.998656 196.651403 
L 374.998656 196.651403 
L 375.231216 196.316344 
L 375.231216 196.316344 
L 375.463777 197.541657 
L 375.463777 197.541657 
L 375.696338 197.229889 
L 375.696338 197.229889 
L 375.928898 198.009155 
L 375.928898 198.009155 
L 376.161459 197.238725 
L 376.161459 197.238725 
L 376.394019 198.195021 
L 376.394019 198.195021 
L 376.62658 197.474747 
L 376.62658 197.474747 
L 376.85914 198.212284 
L 376.85914 198.212284 
L 377.091701 197.620263 
L 377.091701 197.620263 
L 377.324262 197.935606 
L 377.324262 197.935606 
L 377.556822 197.223658 
L 377.556822 197.223658 
L 377.789383 197.872118 
L 377.789383 197.872118 
L 378.021943 197.156187 
L 378.021943 197.156187 
L 378.254504 197.608209 
L 378.254504 197.608209 
L 378.487064 196.642465 
L 378.487064 196.642465 
L 378.719625 196.903156 
L 378.719625 196.903156 
L 378.952185 195.070346 
L 378.952185 195.070346 
L 379.184746 195.214329 
L 379.184746 195.214329 
L 379.417307 193.664225 
L 379.417307 193.664225 
L 379.649867 193.583678 
L 379.649867 193.583678 
L 379.882428 191.637684 
L 379.882428 191.637684 
L 380.114988 191.198788 
L 380.114988 191.198788 
L 380.347549 188.522458 
L 380.347549 188.522458 
L 380.580109 187.393628 
L 380.580109 187.393628 
L 381.277791 181.292757 
L 381.277791 181.292757 
L 381.510352 173.650362 
L 381.510352 173.650362 
L 381.742912 176.550302 
L 381.742912 176.550302 
L 381.975473 168.07067 
L 381.975473 168.07067 
L 382.208033 170.334459 
L 382.208033 170.334459 
L 382.440594 162.590371 
L 382.440594 162.590371 
L 382.673154 164.057069 
L 382.673154 164.057069 
L 382.905715 156.115828 
L 382.905715 156.115828 
L 383.138276 156.15817 
L 383.370836 149.859431 
L 383.370836 149.859431 
L 383.603397 147.873648 
L 383.603397 147.873648 
L 383.835957 142.736836 
L 383.835957 142.736836 
L 384.068518 130.790166 
L 384.068518 130.790166 
L 384.301078 133.799767 
L 384.301078 133.799767 
L 384.533639 123.080504 
L 384.533639 123.080504 
L 384.7662 122.861899 
L 384.7662 122.861899 
L 384.99876 115.405982 
L 384.99876 115.405982 
L 385.231321 102.35454 
L 385.231321 102.35454 
L 385.463881 105.560068 
L 385.696442 94.305018 
L 385.696442 94.305018 
L 385.929002 93.501236 
L 385.929002 93.501236 
L 387.091805 63.800253 
L 387.091805 63.800253 
L 387.556926 54.317795 
L 387.556926 54.317795 
L 387.789487 53.568 
L 387.789487 53.568 
L 398.487273 53.568 
L 398.487273 53.568 
" clip-path="url(#pe736f52a7e)" style="fill: none; stroke: #ff7f0e; stroke-width: 1.5; stroke-linecap: square"/>
   </g>
   <g id="patch_3">
    <path d="M 57.6 307.584 
L 57.6 41.472 
" style="fill: none; stroke: #000000; stroke-width: 0.8; stroke-linejoin: miter; stroke-linecap: square"/>
   </g>
   <g id="patch_4">
    <path d="M 414.72 307.584 
L 414.72 41.472 
" style="fill: none; stroke: #000000; stroke-width: 0.8; stroke-linejoin: miter; stroke-linecap: square"/>
   </g>
   <g id="patch_5">
    <path d="M 57.6 307.584 
L 414.72 307.584 
" style="fill: none; stroke: #000000; stroke-width: 0.8; stroke-linejoin: miter; stroke-linecap: square"/>
   </g>
   <g id="patch_6">
    <path d="M 57.6 41.472 
L 414.72 41.472 
" style="fill: none; stroke: #000000; stroke-width: 0.8; stroke-linejoin: miter; stroke-linecap: square"/>
   </g>
   <g id="text_14">
    <!-- Actual speed vs Expected speed -->
    <g transform="translate(138.808125 35.472) scale(0.12 -0.12)">
     <defs>
      <path id="DejaVuSans-41" d="M 2188 4044 
L 1331 1722 
L 3047 1722 
L 2188 4044 
z
M 1831 4666 
L 2547 4666 
L 4325 0 
L 3669 0 
L 3244 1197 
L 1141 1197 
L 716 0 
L 50 0 
L 1831 4666 
z
" transform="scale(0.015625)"/>
      <path id="DejaVuSans-75" d="M 544 1381 
L 544 3500 
L 1119 3500 
L 1119 1403 
Q 1119 906 1312 657 
Q 1506 409 1894 409 
Q 2359 409 2629 706 
Q 2900 1003 2900 1516 
L 2900 3500 
L 3475 3500 
L 3475 0 
L 2900 0 
L 2900 538 
Q 2691 219 2414 64 
Q 2138 -91 1772 -91 
Q 1169 -91 856 284 
Q 544 659 544 1381 
z
M 1991 3584 
L 1991 3584 
z
" transform="scale(0.015625)"/>
      <path id="DejaVuSans-61" d="M 2194 1759 
Q 1497 1759 1228 1600 
Q 959 1441 959 1056 
Q 959 750 1161 570 
Q 1363 391 1709 391 
Q 2188 391 2477 730 
Q 2766 1069 2766 1631 
L 2766 1759 
L 2194 1759 
z
M 3341 1997 
L 3341 0 
L 2766 0 
L 2766 531 
Q 2569 213 2275 61 
Q 1981 -91 1556 -91 
Q 1019 -91 701 211 
Q 384 513 384 1019 
Q 384 1609 779 1909 
Q 1175 2209 1959 2209 
L 2766 2209 
L 2766 2266 
Q 2766 2663 2505 2880 
Q 2244 3097 1772 3097 
Q 1472 3097 1187 3025 
Q 903 2953 641 2809 
L 641 3341 
Q 956 3463 1253 3523 
Q 1550 3584 1831 3584 
Q 2591 3584 2966 3190 
Q 3341 2797 3341 1997 
z
" transform="scale(0.015625)"/>
      <path id="DejaVuSans-20" transform="scale(0.015625)"/>
      <path id="DejaVuSans-70" d="M 1159 525 
L 1159 -1331 
L 581 -1331 
L 581 3500 
L 1159 3500 
L 1159 2969 
Q 1341 3281 1617 3432 
Q 1894 3584 2278 3584 
Q 2916 3584 3314 3078 
Q 3713 2572 3713 1747 
Q 3713 922 3314 415 
Q 2916 -91 2278 -91 
Q 1894 -91 1617 61 
Q 1341 213 1159 525 
z
M 3116 1747 
Q 3116 2381 2855 2742 
Q 2594 3103 2138 3103 
Q 1681 3103 1420 2742 
Q 1159 2381 1159 1747 
Q 1159 1113 1420 752 
Q 1681 391 2138 391 
Q 2594 391 2855 752 
Q 3116 1113 3116 1747 
z
" transform="scale(0.015625)"/>
      <path id="DejaVuSans-64" d="M 2906 2969 
L 2906 4863 
L 3481 4863 
L 3481 0 
L 2906 0 
L 2906 525 
Q 2725 213 2448 61 
Q 2172 -91 1784 -91 
Q 1150 -91 751 415 
Q 353 922 353 1747 
Q 353 2572 751 3078 
Q 1150 3584 1784 3584 
Q 2172 3584 2448 3432 
Q 2725 3281 2906 2969 
z
M 947 1747 
Q 947 1113 1208 752 
Q 1469 391 1925 391 
Q 2381 391 2643 752 
Q 2906 1113 2906 1747 
Q 2906 2381 2643 2742 
Q 2381 3103 1925 3103 
Q 1469 3103 1208 2742 
Q 947 2381 947 1747 
z
" transform="scale(0.015625)"/>
      <path id="DejaVuSans-76" d="M 191 3500 
L 800 3500 
L 1894 563 
L 2988 3500 
L 3597 3500 
L 2284 0 
L 1503 0 
L 191 3500 
z
" transform="scale(0.015625)"/>
      <path id="DejaVuSans-45" d="M 628 4666 
L 3578 4666 
L 3578 4134 
L 1259 4134 
L 1259 2753 
L 3481 2753 
L 3481 2222 
L 1259 2222 
L 1259 531 
L 3634 531 
L 3634 0 
L 628 0 
L 628 4666 
z
" transform="scale(0.015625)"/>
      <path id="DejaVuSans-78" d="M 3513 3500 
L 2247 1797 
L 3578 0 
L 2900 0 
L 1881 1375 
L 863 0 
L 184 0 
L 1544 1831 
L 300 3500 
L 978 3500 
L 1906 2253 
L 2834 3500 
L 3513 3500 
z
" transform="scale(0.015625)"/>
     </defs>
     <use xlink:href="#DejaVuSans-41"/>
     <use xlink:href="#DejaVuSans-63" x="66.658203"/>
     <use xlink:href="#DejaVuSans-74" x="121.638672"/>
     <use xlink:href="#DejaVuSans-75" x="160.847656"/>
     <use xlink:href="#DejaVuSans-61" x="224.226562"/>
     <use xlink:href="#DejaVuSans-6c" x="285.505859"/>
     <use xlink:href="#DejaVuSans-20" x="313.289062"/>
     <use xlink:href="#DejaVuSans-73" x="345.076172"/>
     <use xlink:href="#DejaVuSans-70" x="397.175781"/>
     <use xlink:href="#DejaVuSans-65" x="460.652344"/>
     <use xlink:href="#DejaVuSans-65" x="522.175781"/>
     <use xlink:href="#DejaVuSans-64" x="583.699219"/>
     <use xlink:href="#DejaVuSans-20" x="647.175781"/>
     <use xlink:href="#DejaVuSans-76" x="678.962891"/>
     <use xlink:href="#DejaVuSans-73" x="738.142578"/>
     <use xlink:href="#DejaVuSans-20" x="790.242188"/>
     <use xlink:href="#DejaVuSans-45" x="822.029297"/>
     <use xlink:href="#DejaVuSans-78" x="885.212891"/>
     <use xlink:href="#DejaVuSans-70" x="944.392578"/>
     <use xlink:href="#DejaVuSans-65" x="1007.869141"/>
     <use xlink:href="#DejaVuSans-63" x="1069.392578"/>
     <use xlink:href="#DejaVuSans-74" x="1124.373047"/>
     <use xlink:href="#DejaVuSans-65" x="1163.582031"/>
     <use xlink:href="#DejaVuSans-64" x="1225.105469"/>
     <use xlink:href="#DejaVuSans-20" x="1288.582031"/>
     <use xlink:href="#DejaVuSans-73" x="1320.369141"/>
     <use xlink:href="#DejaVuSans-70" x="1372.46875"/>
     <use xlink:href="#DejaVuSans-65" x="1435.945312"/>
     <use xlink:href="#DejaVuSans-65" x="1497.46875"/>
     <use xlink:href="#DejaVuSans-64" x="1558.992188"/>
    </g>
   </g>
   <g id="legend_1">
    <g id="patch_7">
     <path d="M 64.6 302.584 
L 176.65 302.584 
Q 178.65 302.584 178.65 300.584 
L 178.65 272.22775 
Q 178.65 270.22775 176.65 270.22775 
L 64.6 270.22775 
Q 62.6 270.22775 62.6 272.22775 
L 62.6 300.584 
Q 62.6 302.584 64.6 302.584 
z
" style="fill: #ffffff; opacity: 0.8; stroke: #cccccc; stroke-linejoin: miter"/>
    </g>
    <g id="line2d_25">
     <path d="M 66.6 278.326187 
L 76.6 278.326187 
L 86.6 278.326187 
" style="fill: none; stroke: #1f77b4; stroke-width: 1.5; stroke-linecap: square"/>
    </g>
    <g id="text_15">
     <!-- Actual speed -->
     <g transform="translate(94.6 281.826187) scale(0.1 -0.1)">
      <use xlink:href="#DejaVuSans-41"/>
      <use xlink:href="#DejaVuSans-63" x="66.658203"/>
      <use xlink:href="#DejaVuSans-74" x="121.638672"/>
      <use xlink:href="#DejaVuSans-75" x="160.847656"/>
      <use xlink:href="#DejaVuSans-61" x="224.226562"/>
      <use xlink:href="#DejaVuSans-6c" x="285.505859"/>
      <use xlink:href="#DejaVuSans-20" x="313.289062"/>
      <use xlink:href="#DejaVuSans-73" x="345.076172"/>
      <use xlink:href="#DejaVuSans-70" x="397.175781"/>
      <use xlink:href="#DejaVuSans-65" x="460.652344"/>
      <use xlink:href="#DejaVuSans-65" x="522.175781"/>
      <use xlink:href="#DejaVuSans-64" x="583.699219"/>
     </g>
    </g>
    <g id="line2d_26">
     <path d="M 66.6 293.004312 
L 76.6 293.004312 
L 86.6 293.004312 
" style="fill: none; stroke: #ff7f0e; stroke-width: 1.5; stroke-linecap: square"/>
    </g>
    <g id="text_16">
     <!-- Expected speed -->
     <g transform="translate(94.6 296.504312) scale(0.1 -0.1)">
      <use xlink:href="#DejaVuSans-45"/>
      <use xlink:href="#DejaVuSans-78" x="63.183594"/>
      <use xlink:href="#DejaVuSans-70" x="122.363281"/>
      <use xlink:href="#DejaVuSans-65" x="185.839844"/>
      <use xlink:href="#DejaVuSans-63" x="247.363281"/>
      <use xlink:href="#DejaVuSans-74" x="302.34375"/>
      <use xlink:href="#DejaVuSans-65" x="341.552734"/>
      <use xlink:href="#DejaVuSans-64" x="403.076172"/>
      <use xlink:href="#DejaVuSans-20" x="466.552734"/>
      <use xlink:href="#DejaVuSans-73" x="498.339844"/>
      <use xlink:href="#DejaVuSans-70" x="550.439453"/>
      <use xlink:href="#DejaVuSans-65" x="613.916016"/>
      <use xlink:href="#DejaVuSans-65" x="675.439453"/>
      <use xlink:href="#DejaVuSans-64" x="736.962891"/>
     </g>
    </g>
   </g>
  </g>
 </g>
 <defs>
  <clipPath id="pe736f52a7e">
   <rect x="57.6" y="41.472" width="357.12" height="266.112"/>
  </clipPath>
 </defs>
</svg>
