<?xml version="1.0" encoding="utf-8" standalone="no"?>
<!DOCTYPE svg PUBLIC "-//W3C//DTD SVG 1.1//EN"
  "http://www.w3.org/Graphics/SVG/1.1/DTD/svg11.dtd">
<svg xmlns:xlink="http://www.w3.org/1999/xlink" width="460.8pt" height="345.6pt" viewBox="0 0 460.8 345.6" xmlns="http://www.w3.org/2000/svg" version="1.1">
 <metadata>
  <rdf:RDF xmlns:dc="http://purl.org/dc/elements/1.1/" xmlns:cc="http://creativecommons.org/ns#" xmlns:rdf="http://www.w3.org/1999/02/22-rdf-syntax-ns#">
   <cc:Work>
    <dc:type rdf:resource="http://purl.org/dc/dcmitype/StillImage"/>
    <dc:date>2024-01-30T20:58:08.563705</dc:date>
    <dc:format>image/svg+xml</dc:format>
    <dc:creator>
     <cc:Agent>
      <dc:title>Matplotlib v3.7.1, https://matplotlib.org/</dc:title>
     </cc:Agent>
    </dc:creator>
   </cc:Work>
  </rdf:RDF>
 </metadata>
 <defs>
  <style type="text/css">*{stroke-linejoin: round; stroke-linecap: butt}</style>
 </defs>
 <g id="figure_1">
  <g id="patch_1">
   <path d="M 0 345.6 
L 460.8 345.6 
L 460.8 0 
L 0 0 
z
" style="fill: #ffffff"/>
  </g>
  <g id="axes_1">
   <g id="patch_2">
    <path d="M 57.6 307.584 
L 414.72 307.584 
L 414.72 41.472 
L 57.6 41.472 
z
" style="fill: #ffffff"/>
   </g>
   <g id="matplotlib.axis_1">
    <g id="xtick_1">
     <g id="line2d_1">
      <path d="M 73.832727 307.584 
L 73.832727 41.472 
" clip-path="url(#p8a7d2fcfb7)" style="fill: none; stroke: #b0b0b0; stroke-width: 0.8; stroke-linecap: square"/>
     </g>
     <g id="line2d_2">
      <defs>
       <path id="m0302509431" d="M 0 0 
L 0 3.5 
" style="stroke: #000000; stroke-width: 0.8"/>
      </defs>
      <g>
       <use xlink:href="#m0302509431" x="73.832727" y="307.584" style="stroke: #000000; stroke-width: 0.8"/>
      </g>
     </g>
     <g id="text_1">
      <!-- 0 -->
      <g transform="translate(70.651477 322.182437) scale(0.1 -0.1)">
       <defs>
        <path id="DejaVuSans-30" d="M 2034 4250 
Q 1547 4250 1301 3770 
Q 1056 3291 1056 2328 
Q 1056 1369 1301 889 
Q 1547 409 2034 409 
Q 2525 409 2770 889 
Q 3016 1369 3016 2328 
Q 3016 3291 2770 3770 
Q 2525 4250 2034 4250 
z
M 2034 4750 
Q 2819 4750 3233 4129 
Q 3647 3509 3647 2328 
Q 3647 1150 3233 529 
Q 2819 -91 2034 -91 
Q 1250 -91 836 529 
Q 422 1150 422 2328 
Q 422 3509 836 4129 
Q 1250 4750 2034 4750 
z
" transform="scale(0.015625)"/>
       </defs>
       <use xlink:href="#DejaVuSans-30"/>
      </g>
     </g>
    </g>
    <g id="xtick_2">
     <g id="line2d_3">
      <path d="M 125.29984 307.584 
L 125.29984 41.472 
" clip-path="url(#p8a7d2fcfb7)" style="fill: none; stroke: #b0b0b0; stroke-width: 0.8; stroke-linecap: square"/>
     </g>
     <g id="line2d_4">
      <g>
       <use xlink:href="#m0302509431" x="125.29984" y="307.584" style="stroke: #000000; stroke-width: 0.8"/>
      </g>
     </g>
     <g id="text_2">
      <!-- 5 -->
      <g transform="translate(122.11859 322.182437) scale(0.1 -0.1)">
       <defs>
        <path id="DejaVuSans-35" d="M 691 4666 
L 3169 4666 
L 3169 4134 
L 1269 4134 
L 1269 2991 
Q 1406 3038 1543 3061 
Q 1681 3084 1819 3084 
Q 2600 3084 3056 2656 
Q 3513 2228 3513 1497 
Q 3513 744 3044 326 
Q 2575 -91 1722 -91 
Q 1428 -91 1123 -41 
Q 819 9 494 109 
L 494 744 
Q 775 591 1075 516 
Q 1375 441 1709 441 
Q 2250 441 2565 725 
Q 2881 1009 2881 1497 
Q 2881 1984 2565 2268 
Q 2250 2553 1709 2553 
Q 1456 2553 1204 2497 
Q 953 2441 691 2322 
L 691 4666 
z
" transform="scale(0.015625)"/>
       </defs>
       <use xlink:href="#DejaVuSans-35"/>
      </g>
     </g>
    </g>
    <g id="xtick_3">
     <g id="line2d_5">
      <path d="M 176.766952 307.584 
L 176.766952 41.472 
" clip-path="url(#p8a7d2fcfb7)" style="fill: none; stroke: #b0b0b0; stroke-width: 0.8; stroke-linecap: square"/>
     </g>
     <g id="line2d_6">
      <g>
       <use xlink:href="#m0302509431" x="176.766952" y="307.584" style="stroke: #000000; stroke-width: 0.8"/>
      </g>
     </g>
     <g id="text_3">
      <!-- 10 -->
      <g transform="translate(170.404452 322.182437) scale(0.1 -0.1)">
       <defs>
        <path id="DejaVuSans-31" d="M 794 531 
L 1825 531 
L 1825 4091 
L 703 3866 
L 703 4441 
L 1819 4666 
L 2450 4666 
L 2450 531 
L 3481 531 
L 3481 0 
L 794 0 
L 794 531 
z
" transform="scale(0.015625)"/>
       </defs>
       <use xlink:href="#DejaVuSans-31"/>
       <use xlink:href="#DejaVuSans-30" x="63.623047"/>
      </g>
     </g>
    </g>
    <g id="xtick_4">
     <g id="line2d_7">
      <path d="M 228.234065 307.584 
L 228.234065 41.472 
" clip-path="url(#p8a7d2fcfb7)" style="fill: none; stroke: #b0b0b0; stroke-width: 0.8; stroke-linecap: square"/>
     </g>
     <g id="line2d_8">
      <g>
       <use xlink:href="#m0302509431" x="228.234065" y="307.584" style="stroke: #000000; stroke-width: 0.8"/>
      </g>
     </g>
     <g id="text_4">
      <!-- 15 -->
      <g transform="translate(221.871565 322.182437) scale(0.1 -0.1)">
       <use xlink:href="#DejaVuSans-31"/>
       <use xlink:href="#DejaVuSans-35" x="63.623047"/>
      </g>
     </g>
    </g>
    <g id="xtick_5">
     <g id="line2d_9">
      <path d="M 279.701177 307.584 
L 279.701177 41.472 
" clip-path="url(#p8a7d2fcfb7)" style="fill: none; stroke: #b0b0b0; stroke-width: 0.8; stroke-linecap: square"/>
     </g>
     <g id="line2d_10">
      <g>
       <use xlink:href="#m0302509431" x="279.701177" y="307.584" style="stroke: #000000; stroke-width: 0.8"/>
      </g>
     </g>
     <g id="text_5">
      <!-- 20 -->
      <g transform="translate(273.338677 322.182437) scale(0.1 -0.1)">
       <defs>
        <path id="DejaVuSans-32" d="M 1228 531 
L 3431 531 
L 3431 0 
L 469 0 
L 469 531 
Q 828 903 1448 1529 
Q 2069 2156 2228 2338 
Q 2531 2678 2651 2914 
Q 2772 3150 2772 3378 
Q 2772 3750 2511 3984 
Q 2250 4219 1831 4219 
Q 1534 4219 1204 4116 
Q 875 4013 500 3803 
L 500 4441 
Q 881 4594 1212 4672 
Q 1544 4750 1819 4750 
Q 2544 4750 2975 4387 
Q 3406 4025 3406 3419 
Q 3406 3131 3298 2873 
Q 3191 2616 2906 2266 
Q 2828 2175 2409 1742 
Q 1991 1309 1228 531 
z
" transform="scale(0.015625)"/>
       </defs>
       <use xlink:href="#DejaVuSans-32"/>
       <use xlink:href="#DejaVuSans-30" x="63.623047"/>
      </g>
     </g>
    </g>
    <g id="xtick_6">
     <g id="line2d_11">
      <path d="M 331.16829 307.584 
L 331.16829 41.472 
" clip-path="url(#p8a7d2fcfb7)" style="fill: none; stroke: #b0b0b0; stroke-width: 0.8; stroke-linecap: square"/>
     </g>
     <g id="line2d_12">
      <g>
       <use xlink:href="#m0302509431" x="331.16829" y="307.584" style="stroke: #000000; stroke-width: 0.8"/>
      </g>
     </g>
     <g id="text_6">
      <!-- 25 -->
      <g transform="translate(324.80579 322.182437) scale(0.1 -0.1)">
       <use xlink:href="#DejaVuSans-32"/>
       <use xlink:href="#DejaVuSans-35" x="63.623047"/>
      </g>
     </g>
    </g>
    <g id="xtick_7">
     <g id="line2d_13">
      <path d="M 382.635402 307.584 
L 382.635402 41.472 
" clip-path="url(#p8a7d2fcfb7)" style="fill: none; stroke: #b0b0b0; stroke-width: 0.8; stroke-linecap: square"/>
     </g>
     <g id="line2d_14">
      <g>
       <use xlink:href="#m0302509431" x="382.635402" y="307.584" style="stroke: #000000; stroke-width: 0.8"/>
      </g>
     </g>
     <g id="text_7">
      <!-- 30 -->
      <g transform="translate(376.272902 322.182437) scale(0.1 -0.1)">
       <defs>
        <path id="DejaVuSans-33" d="M 2597 2516 
Q 3050 2419 3304 2112 
Q 3559 1806 3559 1356 
Q 3559 666 3084 287 
Q 2609 -91 1734 -91 
Q 1441 -91 1130 -33 
Q 819 25 488 141 
L 488 750 
Q 750 597 1062 519 
Q 1375 441 1716 441 
Q 2309 441 2620 675 
Q 2931 909 2931 1356 
Q 2931 1769 2642 2001 
Q 2353 2234 1838 2234 
L 1294 2234 
L 1294 2753 
L 1863 2753 
Q 2328 2753 2575 2939 
Q 2822 3125 2822 3475 
Q 2822 3834 2567 4026 
Q 2313 4219 1838 4219 
Q 1578 4219 1281 4162 
Q 984 4106 628 3988 
L 628 4550 
Q 988 4650 1302 4700 
Q 1616 4750 1894 4750 
Q 2613 4750 3031 4423 
Q 3450 4097 3450 3541 
Q 3450 3153 3228 2886 
Q 3006 2619 2597 2516 
z
" transform="scale(0.015625)"/>
       </defs>
       <use xlink:href="#DejaVuSans-33"/>
       <use xlink:href="#DejaVuSans-30" x="63.623047"/>
      </g>
     </g>
    </g>
    <g id="text_8">
     <!-- Time(s) -->
     <g transform="translate(217.420156 335.860562) scale(0.1 -0.1)">
      <defs>
       <path id="DejaVuSans-54" d="M -19 4666 
L 3928 4666 
L 3928 4134 
L 2272 4134 
L 2272 0 
L 1638 0 
L 1638 4134 
L -19 4134 
L -19 4666 
z
" transform="scale(0.015625)"/>
       <path id="DejaVuSans-69" d="M 603 3500 
L 1178 3500 
L 1178 0 
L 603 0 
L 603 3500 
z
M 603 4863 
L 1178 4863 
L 1178 4134 
L 603 4134 
L 603 4863 
z
" transform="scale(0.015625)"/>
       <path id="DejaVuSans-6d" d="M 3328 2828 
Q 3544 3216 3844 3400 
Q 4144 3584 4550 3584 
Q 5097 3584 5394 3201 
Q 5691 2819 5691 2113 
L 5691 0 
L 5113 0 
L 5113 2094 
Q 5113 2597 4934 2840 
Q 4756 3084 4391 3084 
Q 3944 3084 3684 2787 
Q 3425 2491 3425 1978 
L 3425 0 
L 2847 0 
L 2847 2094 
Q 2847 2600 2669 2842 
Q 2491 3084 2119 3084 
Q 1678 3084 1418 2786 
Q 1159 2488 1159 1978 
L 1159 0 
L 581 0 
L 581 3500 
L 1159 3500 
L 1159 2956 
Q 1356 3278 1631 3431 
Q 1906 3584 2284 3584 
Q 2666 3584 2933 3390 
Q 3200 3197 3328 2828 
z
" transform="scale(0.015625)"/>
       <path id="DejaVuSans-65" d="M 3597 1894 
L 3597 1613 
L 953 1613 
Q 991 1019 1311 708 
Q 1631 397 2203 397 
Q 2534 397 2845 478 
Q 3156 559 3463 722 
L 3463 178 
Q 3153 47 2828 -22 
Q 2503 -91 2169 -91 
Q 1331 -91 842 396 
Q 353 884 353 1716 
Q 353 2575 817 3079 
Q 1281 3584 2069 3584 
Q 2775 3584 3186 3129 
Q 3597 2675 3597 1894 
z
M 3022 2063 
Q 3016 2534 2758 2815 
Q 2500 3097 2075 3097 
Q 1594 3097 1305 2825 
Q 1016 2553 972 2059 
L 3022 2063 
z
" transform="scale(0.015625)"/>
       <path id="DejaVuSans-28" d="M 1984 4856 
Q 1566 4138 1362 3434 
Q 1159 2731 1159 2009 
Q 1159 1288 1364 580 
Q 1569 -128 1984 -844 
L 1484 -844 
Q 1016 -109 783 600 
Q 550 1309 550 2009 
Q 550 2706 781 3412 
Q 1013 4119 1484 4856 
L 1984 4856 
z
" transform="scale(0.015625)"/>
       <path id="DejaVuSans-73" d="M 2834 3397 
L 2834 2853 
Q 2591 2978 2328 3040 
Q 2066 3103 1784 3103 
Q 1356 3103 1142 2972 
Q 928 2841 928 2578 
Q 928 2378 1081 2264 
Q 1234 2150 1697 2047 
L 1894 2003 
Q 2506 1872 2764 1633 
Q 3022 1394 3022 966 
Q 3022 478 2636 193 
Q 2250 -91 1575 -91 
Q 1294 -91 989 -36 
Q 684 19 347 128 
L 347 722 
Q 666 556 975 473 
Q 1284 391 1588 391 
Q 1994 391 2212 530 
Q 2431 669 2431 922 
Q 2431 1156 2273 1281 
Q 2116 1406 1581 1522 
L 1381 1569 
Q 847 1681 609 1914 
Q 372 2147 372 2553 
Q 372 3047 722 3315 
Q 1072 3584 1716 3584 
Q 2034 3584 2315 3537 
Q 2597 3491 2834 3397 
z
" transform="scale(0.015625)"/>
       <path id="DejaVuSans-29" d="M 513 4856 
L 1013 4856 
Q 1481 4119 1714 3412 
Q 1947 2706 1947 2009 
Q 1947 1309 1714 600 
Q 1481 -109 1013 -844 
L 513 -844 
Q 928 -128 1133 580 
Q 1338 1288 1338 2009 
Q 1338 2731 1133 3434 
Q 928 4138 513 4856 
z
" transform="scale(0.015625)"/>
      </defs>
      <use xlink:href="#DejaVuSans-54"/>
      <use xlink:href="#DejaVuSans-69" x="57.958984"/>
      <use xlink:href="#DejaVuSans-6d" x="85.742188"/>
      <use xlink:href="#DejaVuSans-65" x="183.154297"/>
      <use xlink:href="#DejaVuSans-28" x="244.677734"/>
      <use xlink:href="#DejaVuSans-73" x="283.691406"/>
      <use xlink:href="#DejaVuSans-29" x="335.791016"/>
     </g>
    </g>
   </g>
   <g id="matplotlib.axis_2">
    <g id="ytick_1">
     <g id="line2d_15">
      <path d="M 57.6 266.022896 
L 414.72 266.022896 
" clip-path="url(#p8a7d2fcfb7)" style="fill: none; stroke: #b0b0b0; stroke-width: 0.8; stroke-linecap: square"/>
     </g>
     <g id="line2d_16">
      <defs>
       <path id="m0f06b2fba8" d="M 0 0 
L -3.5 0 
" style="stroke: #000000; stroke-width: 0.8"/>
      </defs>
      <g>
       <use xlink:href="#m0f06b2fba8" x="57.6" y="266.022896" style="stroke: #000000; stroke-width: 0.8"/>
      </g>
     </g>
     <g id="text_9">
      <!-- 4 -->
      <g transform="translate(44.2375 269.822115) scale(0.1 -0.1)">
       <defs>
        <path id="DejaVuSans-34" d="M 2419 4116 
L 825 1625 
L 2419 1625 
L 2419 4116 
z
M 2253 4666 
L 3047 4666 
L 3047 1625 
L 3713 1625 
L 3713 1100 
L 3047 1100 
L 3047 0 
L 2419 0 
L 2419 1100 
L 313 1100 
L 313 1709 
L 2253 4666 
z
" transform="scale(0.015625)"/>
       </defs>
       <use xlink:href="#DejaVuSans-34"/>
      </g>
     </g>
    </g>
    <g id="ytick_2">
     <g id="line2d_17">
      <path d="M 57.6 212.909172 
L 414.72 212.909172 
" clip-path="url(#p8a7d2fcfb7)" style="fill: none; stroke: #b0b0b0; stroke-width: 0.8; stroke-linecap: square"/>
     </g>
     <g id="line2d_18">
      <g>
       <use xlink:href="#m0f06b2fba8" x="57.6" y="212.909172" style="stroke: #000000; stroke-width: 0.8"/>
      </g>
     </g>
     <g id="text_10">
      <!-- 5 -->
      <g transform="translate(44.2375 216.708391) scale(0.1 -0.1)">
       <use xlink:href="#DejaVuSans-35"/>
      </g>
     </g>
    </g>
    <g id="ytick_3">
     <g id="line2d_19">
      <path d="M 57.6 159.795448 
L 414.72 159.795448 
" clip-path="url(#p8a7d2fcfb7)" style="fill: none; stroke: #b0b0b0; stroke-width: 0.8; stroke-linecap: square"/>
     </g>
     <g id="line2d_20">
      <g>
       <use xlink:href="#m0f06b2fba8" x="57.6" y="159.795448" style="stroke: #000000; stroke-width: 0.8"/>
      </g>
     </g>
     <g id="text_11">
      <!-- 6 -->
      <g transform="translate(44.2375 163.594667) scale(0.1 -0.1)">
       <defs>
        <path id="DejaVuSans-36" d="M 2113 2584 
Q 1688 2584 1439 2293 
Q 1191 2003 1191 1497 
Q 1191 994 1439 701 
Q 1688 409 2113 409 
Q 2538 409 2786 701 
Q 3034 994 3034 1497 
Q 3034 2003 2786 2293 
Q 2538 2584 2113 2584 
z
M 3366 4563 
L 3366 3988 
Q 3128 4100 2886 4159 
Q 2644 4219 2406 4219 
Q 1781 4219 1451 3797 
Q 1122 3375 1075 2522 
Q 1259 2794 1537 2939 
Q 1816 3084 2150 3084 
Q 2853 3084 3261 2657 
Q 3669 2231 3669 1497 
Q 3669 778 3244 343 
Q 2819 -91 2113 -91 
Q 1303 -91 875 529 
Q 447 1150 447 2328 
Q 447 3434 972 4092 
Q 1497 4750 2381 4750 
Q 2619 4750 2861 4703 
Q 3103 4656 3366 4563 
z
" transform="scale(0.015625)"/>
       </defs>
       <use xlink:href="#DejaVuSans-36"/>
      </g>
     </g>
    </g>
    <g id="ytick_4">
     <g id="line2d_21">
      <path d="M 57.6 106.681724 
L 414.72 106.681724 
" clip-path="url(#p8a7d2fcfb7)" style="fill: none; stroke: #b0b0b0; stroke-width: 0.8; stroke-linecap: square"/>
     </g>
     <g id="line2d_22">
      <g>
       <use xlink:href="#m0f06b2fba8" x="57.6" y="106.681724" style="stroke: #000000; stroke-width: 0.8"/>
      </g>
     </g>
     <g id="text_12">
      <!-- 7 -->
      <g transform="translate(44.2375 110.480943) scale(0.1 -0.1)">
       <defs>
        <path id="DejaVuSans-37" d="M 525 4666 
L 3525 4666 
L 3525 4397 
L 1831 0 
L 1172 0 
L 2766 4134 
L 525 4134 
L 525 4666 
z
" transform="scale(0.015625)"/>
       </defs>
       <use xlink:href="#DejaVuSans-37"/>
      </g>
     </g>
    </g>
    <g id="ytick_5">
     <g id="line2d_23">
      <path d="M 57.6 53.568 
L 414.72 53.568 
" clip-path="url(#p8a7d2fcfb7)" style="fill: none; stroke: #b0b0b0; stroke-width: 0.8; stroke-linecap: square"/>
     </g>
     <g id="line2d_24">
      <g>
       <use xlink:href="#m0f06b2fba8" x="57.6" y="53.568" style="stroke: #000000; stroke-width: 0.8"/>
      </g>
     </g>
     <g id="text_13">
      <!-- 8 -->
      <g transform="translate(44.2375 57.367219) scale(0.1 -0.1)">
       <defs>
        <path id="DejaVuSans-38" d="M 2034 2216 
Q 1584 2216 1326 1975 
Q 1069 1734 1069 1313 
Q 1069 891 1326 650 
Q 1584 409 2034 409 
Q 2484 409 2743 651 
Q 3003 894 3003 1313 
Q 3003 1734 2745 1975 
Q 2488 2216 2034 2216 
z
M 1403 2484 
Q 997 2584 770 2862 
Q 544 3141 544 3541 
Q 544 4100 942 4425 
Q 1341 4750 2034 4750 
Q 2731 4750 3128 4425 
Q 3525 4100 3525 3541 
Q 3525 3141 3298 2862 
Q 3072 2584 2669 2484 
Q 3125 2378 3379 2068 
Q 3634 1759 3634 1313 
Q 3634 634 3220 271 
Q 2806 -91 2034 -91 
Q 1263 -91 848 271 
Q 434 634 434 1313 
Q 434 1759 690 2068 
Q 947 2378 1403 2484 
z
M 1172 3481 
Q 1172 3119 1398 2916 
Q 1625 2713 2034 2713 
Q 2441 2713 2670 2916 
Q 2900 3119 2900 3481 
Q 2900 3844 2670 4047 
Q 2441 4250 2034 4250 
Q 1625 4250 1398 4047 
Q 1172 3844 1172 3481 
z
" transform="scale(0.015625)"/>
       </defs>
       <use xlink:href="#DejaVuSans-38"/>
      </g>
     </g>
    </g>
    <g id="text_14">
     <!-- Velocity(m/s) -->
     <g transform="translate(38.157812 207.204563) rotate(-90) scale(0.1 -0.1)">
      <defs>
       <path id="DejaVuSans-56" d="M 1831 0 
L 50 4666 
L 709 4666 
L 2188 738 
L 3669 4666 
L 4325 4666 
L 2547 0 
L 1831 0 
z
" transform="scale(0.015625)"/>
       <path id="DejaVuSans-6c" d="M 603 4863 
L 1178 4863 
L 1178 0 
L 603 0 
L 603 4863 
z
" transform="scale(0.015625)"/>
       <path id="DejaVuSans-6f" d="M 1959 3097 
Q 1497 3097 1228 2736 
Q 959 2375 959 1747 
Q 959 1119 1226 758 
Q 1494 397 1959 397 
Q 2419 397 2687 759 
Q 2956 1122 2956 1747 
Q 2956 2369 2687 2733 
Q 2419 3097 1959 3097 
z
M 1959 3584 
Q 2709 3584 3137 3096 
Q 3566 2609 3566 1747 
Q 3566 888 3137 398 
Q 2709 -91 1959 -91 
Q 1206 -91 779 398 
Q 353 888 353 1747 
Q 353 2609 779 3096 
Q 1206 3584 1959 3584 
z
" transform="scale(0.015625)"/>
       <path id="DejaVuSans-63" d="M 3122 3366 
L 3122 2828 
Q 2878 2963 2633 3030 
Q 2388 3097 2138 3097 
Q 1578 3097 1268 2742 
Q 959 2388 959 1747 
Q 959 1106 1268 751 
Q 1578 397 2138 397 
Q 2388 397 2633 464 
Q 2878 531 3122 666 
L 3122 134 
Q 2881 22 2623 -34 
Q 2366 -91 2075 -91 
Q 1284 -91 818 406 
Q 353 903 353 1747 
Q 353 2603 823 3093 
Q 1294 3584 2113 3584 
Q 2378 3584 2631 3529 
Q 2884 3475 3122 3366 
z
" transform="scale(0.015625)"/>
       <path id="DejaVuSans-74" d="M 1172 4494 
L 1172 3500 
L 2356 3500 
L 2356 3053 
L 1172 3053 
L 1172 1153 
Q 1172 725 1289 603 
Q 1406 481 1766 481 
L 2356 481 
L 2356 0 
L 1766 0 
Q 1100 0 847 248 
Q 594 497 594 1153 
L 594 3053 
L 172 3053 
L 172 3500 
L 594 3500 
L 594 4494 
L 1172 4494 
z
" transform="scale(0.015625)"/>
       <path id="DejaVuSans-79" d="M 2059 -325 
Q 1816 -950 1584 -1140 
Q 1353 -1331 966 -1331 
L 506 -1331 
L 506 -850 
L 844 -850 
Q 1081 -850 1212 -737 
Q 1344 -625 1503 -206 
L 1606 56 
L 191 3500 
L 800 3500 
L 1894 763 
L 2988 3500 
L 3597 3500 
L 2059 -325 
z
" transform="scale(0.015625)"/>
       <path id="DejaVuSans-2f" d="M 1625 4666 
L 2156 4666 
L 531 -594 
L 0 -594 
L 1625 4666 
z
" transform="scale(0.015625)"/>
      </defs>
      <use xlink:href="#DejaVuSans-56"/>
      <use xlink:href="#DejaVuSans-65" x="60.658203"/>
      <use xlink:href="#DejaVuSans-6c" x="122.181641"/>
      <use xlink:href="#DejaVuSans-6f" x="149.964844"/>
      <use xlink:href="#DejaVuSans-63" x="211.146484"/>
      <use xlink:href="#DejaVuSans-69" x="266.126953"/>
      <use xlink:href="#DejaVuSans-74" x="293.910156"/>
      <use xlink:href="#DejaVuSans-79" x="333.119141"/>
      <use xlink:href="#DejaVuSans-28" x="392.298828"/>
      <use xlink:href="#DejaVuSans-6d" x="431.3125"/>
      <use xlink:href="#DejaVuSans-2f" x="528.724609"/>
      <use xlink:href="#DejaVuSans-73" x="562.416016"/>
      <use xlink:href="#DejaVuSans-29" x="614.515625"/>
     </g>
    </g>
   </g>
   <g id="line2d_25">
    <path d="M 73.832727 54.356261 
L 75.067938 54.007304 
L 75.067938 54.007304 
L 76.920754 53.750764 
L 76.920754 53.750764 
L 79.802912 53.61474 
L 79.802912 53.61474 
L 86.80244 53.5697 
L 86.80244 53.5697 
L 87.008308 54.205099 
L 87.008308 54.205099 
L 88.03765 62.677163 
L 88.03765 62.677163 
L 89.066993 76.084448 
L 89.066993 76.084448 
L 89.478729 83.594941 
L 89.478729 83.594941 
L 89.890466 92.411713 
L 89.890466 92.411713 
L 90.302203 102.64848 
L 90.302203 102.64848 
L 90.508072 107.05591 
L 90.508072 107.05591 
L 90.919809 117.96122 
L 90.919809 117.96122 
L 91.743282 136.905929 
L 91.743282 136.905929 
L 92.155019 146.002292 
L 92.155019 146.002292 
L 93.596098 171.998007 
L 93.596098 171.998007 
L 95.243046 190.978781 
L 95.243046 190.978781 
L 95.654783 194.353415 
L 95.654783 194.353415 
L 96.272388 198.266993 
L 96.272388 198.266993 
L 97.095862 201.799162 
L 97.095862 201.799162 
L 97.713467 203.242049 
L 97.713467 203.242049 
L 97.919336 203.654265 
L 97.919336 203.654265 
L 99.154547 204.082574 
L 99.154547 204.082574 
L 99.566284 204.13181 
L 99.566284 204.13181 
L 99.97802 204.208082 
L 99.97802 204.208082 
L 100.183889 204.202027 
L 100.183889 204.202027 
L 101.007363 203.593822 
L 101.007363 203.593822 
L 101.830836 202.151625 
L 101.830836 202.151625 
L 102.448442 200.245957 
L 102.448442 200.245957 
L 103.477784 193.114324 
L 103.477784 193.114324 
L 103.889521 189.06998 
L 103.889521 189.06998 
L 104.507126 181.318351 
L 104.507126 181.318351 
L 104.918863 173.856616 
L 104.918863 173.856616 
L 106.977548 137.404933 
L 106.977548 137.404933 
L 107.801022 129.645708 
L 107.801022 129.645708 
L 108.624495 124.291261 
L 108.624495 124.291261 
L 110.477311 113.101474 
L 110.477311 113.101474 
L 111.094917 105.932396 
L 111.094917 105.932396 
L 111.712522 96.049366 
L 111.712522 96.049366 
L 112.535996 82.973404 
L 112.535996 82.973404 
L 113.153601 77.720085 
L 113.153601 77.720085 
L 113.771207 74.567786 
L 113.771207 74.567786 
L 114.59468 71.869608 
L 114.59468 71.869608 
L 115.212286 70.469902 
L 115.212286 70.469902 
L 115.829891 69.024519 
L 115.829891 69.024519 
L 116.447496 67.302625 
L 116.447496 67.302625 
L 118.300312 59.444396 
L 118.300312 59.444396 
L 119.123786 57.547705 
L 119.123786 57.547705 
L 119.94726 56.26315 
L 119.94726 56.26315 
L 120.770734 55.393253 
L 120.770734 55.393253 
L 121.800076 54.689337 
L 121.800076 54.689337 
L 122.829418 54.256938 
L 122.829418 54.256938 
L 124.270497 53.91632 
L 124.270497 53.91632 
L 126.123314 53.720968 
L 126.123314 53.720968 
L 129.417209 53.600187 
L 129.417209 53.600187 
L 131.88763 53.577985 
L 131.88763 53.577985 
L 132.299367 55.004567 
L 132.299367 55.004567 
L 132.505235 56.54274 
L 132.505235 56.54274 
L 132.916972 62.29979 
L 132.916972 62.29979 
L 133.328709 68.608638 
L 133.328709 68.608638 
L 133.946315 78.328768 
L 133.946315 78.328768 
L 134.358052 85.060508 
L 134.358052 85.060508 
L 135.387394 99.04089 
L 135.387394 99.04089 
L 135.799131 104.763416 
L 135.799131 104.763416 
L 136.210868 109.979449 
L 136.210868 109.979449 
L 136.622604 115.222251 
L 136.622604 115.222251 
L 137.651947 125.782641 
L 137.651947 125.782641 
L 139.504763 139.736094 
L 139.504763 139.736094 
L 140.328237 143.418097 
L 140.328237 143.418097 
L 140.945842 145.333378 
L 140.945842 145.333378 
L 141.563447 146.531995 
L 141.563447 146.531995 
L 142.386921 147.33619 
L 142.386921 147.33619 
L 143.210395 147.497125 
L 143.210395 147.497125 
L 143.828 147.507535 
L 143.828 147.507535 
L 144.239737 147.55948 
L 144.239737 147.55948 
L 145.269079 147.237027 
L 145.269079 147.237027 
L 145.886685 146.773025 
L 145.886685 146.773025 
L 146.710159 145.799557 
L 146.710159 145.799557 
L 147.121895 145.176798 
L 147.121895 145.176798 
L 147.739501 143.724032 
L 147.739501 143.724032 
L 148.151238 142.750564 
L 148.151238 142.750564 
L 149.18058 138.845696 
L 149.18058 138.845696 
L 150.004054 134.537854 
L 150.004054 134.537854 
L 150.621659 130.33215 
L 150.621659 130.33215 
L 151.239264 125.023327 
L 151.239264 125.023327 
L 151.85687 118.44174 
L 151.85687 118.44174 
L 152.474475 110.545907 
L 152.474475 110.545907 
L 153.09208 101.240011 
L 153.09208 101.240011 
L 154.739028 76.369297 
L 154.739028 76.369297 
L 155.562502 69.009753 
L 155.562502 69.009753 
L 156.385976 64.025667 
L 156.385976 64.025667 
L 157.209449 60.650237 
L 157.209449 60.650237 
L 158.032923 58.364329 
L 158.032923 58.364329 
L 158.856397 56.816223 
L 158.856397 56.816223 
L 159.679871 55.767811 
L 159.679871 55.767811 
L 160.503345 55.058849 
L 160.503345 55.058849 
L 161.532687 54.486071 
L 161.532687 54.486071 
L 162.767898 54.082406 
L 162.767898 54.082406 
L 164.620714 53.788475 
L 164.620714 53.788475 
L 167.091135 53.647671 
L 167.091135 53.647671 
L 169.767425 53.590467 
L 169.767425 53.590467 
L 169.973293 53.838933 
L 169.973293 53.838933 
L 170.38503 56.078208 
L 170.38503 56.078208 
L 171.002636 60.329324 
L 171.002636 60.329324 
L 171.414373 63.557895 
L 171.414373 63.557895 
L 171.826109 67.171009 
L 171.826109 67.171009 
L 172.237846 70.563383 
L 172.237846 70.563383 
L 174.708268 98.656293 
L 174.708268 98.656293 
L 175.120005 104.401977 
L 175.120005 104.401977 
L 175.943478 115.187568 
L 175.943478 115.187568 
L 176.972821 130.496059 
L 176.972821 130.496059 
L 177.796294 143.483055 
L 177.796294 143.483055 
L 178.208031 150.588662 
L 178.208031 150.588662 
L 179.854979 176.672759 
L 179.854979 176.672759 
L 180.266716 184.004259 
L 180.266716 184.004259 
L 180.884321 193.385098 
L 180.884321 193.385098 
L 181.707795 204.292745 
L 181.707795 204.292745 
L 181.913663 208.672768 
L 181.913663 208.672768 
L 182.119532 210.685566 
L 182.119532 210.685566 
L 182.531269 216.449308 
L 182.531269 216.449308 
L 183.148874 225.216631 
L 183.148874 225.216631 
L 183.354743 226.89853 
L 183.354743 226.89853 
L 183.560611 230.348426 
L 183.560611 230.348426 
L 183.972348 233.541039 
L 183.972348 233.541039 
L 186.442769 259.343367 
L 186.442769 259.343367 
L 187.060375 264.987285 
L 187.060375 264.987285 
L 187.472112 268.550844 
L 187.472112 268.550844 
L 188.089717 273.034598 
L 188.089717 273.034598 
L 188.501454 276.365944 
L 188.501454 276.365944 
L 190.148401 285.17682 
L 190.148401 285.17682 
L 190.560138 286.893084 
L 190.560138 286.893084 
L 192.412954 291.731001 
L 192.412954 291.731001 
L 193.03056 292.639883 
L 193.03056 292.639883 
L 193.442297 293.068033 
L 193.442297 293.068033 
L 193.648165 293.111851 
L 194.059902 293.336522 
L 194.059902 293.336522 
L 194.677507 293.583767 
L 194.677507 293.583767 
L 195.500981 293.747729 
L 195.500981 293.747729 
L 197.147929 293.577871 
L 197.147929 293.577871 
L 197.559666 293.288083 
L 197.559666 293.288083 
L 197.765534 293.195452 
L 198.794876 291.907551 
L 198.794876 291.907551 
L 200.441824 286.163089 
L 200.441824 286.163089 
L 201.882903 274.637623 
L 201.882903 274.637623 
L 202.500508 267.697837 
L 202.500508 267.697837 
L 204.147456 240.479125 
L 204.147456 240.479125 
L 204.559193 236.118701 
L 204.559193 236.118701 
L 204.97093 234.013379 
L 204.97093 234.013379 
L 205.382667 233.414841 
L 205.382667 233.414841 
L 205.588535 234.206713 
L 205.588535 234.206713 
L 205.794404 234.52821 
L 205.794404 234.52821 
L 206.412009 238.999855 
L 206.412009 238.999855 
L 208.058957 246.34304 
L 208.058957 246.34304 
L 208.470693 247.262173 
L 208.470693 247.262173 
L 208.88243 247.802817 
L 208.88243 247.802817 
L 210.117641 248.492499 
L 210.117641 248.492499 
L 211.146983 248.375808 
L 211.146983 248.375808 
L 211.970457 247.945428 
L 211.970457 247.945428 
L 212.382194 247.550474 
L 212.382194 247.550474 
L 212.793931 247.063793 
L 212.793931 247.063793 
L 213.205668 246.366835 
L 213.205668 246.366835 
L 213.617405 245.42141 
L 213.617405 245.42141 
L 214.029142 244.207815 
L 214.029142 244.207815 
L 214.440879 242.690834 
L 214.440879 242.690834 
L 215.058484 240.311233 
L 215.058484 240.311233 
L 215.676089 237.305686 
L 215.676089 237.305686 
L 216.499563 232.033299 
L 216.499563 232.033299 
L 217.734774 221.160708 
L 217.734774 221.160708 
L 219.175853 203.294898 
L 219.175853 203.294898 
L 219.793458 194.186159 
L 219.793458 194.186159 
L 221.234537 167.730904 
L 221.234537 167.730904 
L 223.087353 119.083035 
L 223.087353 119.083035 
L 223.910827 98.097696 
L 223.910827 98.097696 
L 224.734301 83.72491 
L 224.734301 83.72491 
L 225.557775 73.991236 
L 225.557775 73.991236 
L 226.381249 67.399292 
L 226.381249 67.399292 
L 227.204722 62.934977 
L 227.204722 62.934977 
L 228.028196 59.911638 
L 228.028196 59.911638 
L 228.85167 57.864104 
L 228.85167 57.864104 
L 229.675144 56.477623 
L 229.675144 56.477623 
L 230.498618 55.541387 
L 230.498618 55.541387 
L 231.322091 54.904448 
L 231.322091 54.904448 
L 232.351434 54.392059 
L 232.351434 54.392059 
L 233.792513 53.993388 
L 233.792513 53.993388 
L 235.43946 53.767601 
L 235.43946 53.767601 
L 239.350961 53.60348 
L 239.350961 53.60348 
L 239.556829 53.693083 
L 239.556829 53.693083 
L 239.762698 55.290956 
L 240.79204 73.699482 
L 240.79204 73.699482 
L 241.409645 86.108601 
L 241.409645 86.108601 
L 243.262462 117.605624 
L 243.262462 117.605624 
L 243.674198 122.464945 
L 243.674198 122.464945 
L 244.085935 128.255085 
L 244.085935 128.255085 
L 245.732883 146.630096 
L 245.732883 146.630096 
L 246.556357 153.533393 
L 246.556357 153.533393 
L 247.379831 161.57582 
L 247.379831 161.57582 
L 247.585699 162.843538 
L 247.585699 162.843538 
L 251.085463 195.752218 
L 251.085463 195.752218 
L 251.4972 201.006918 
L 251.4972 201.006918 
L 252.114805 209.00218 
L 252.114805 209.00218 
L 252.320673 210.744469 
L 252.320673 210.744469 
L 252.938279 219.155134 
L 252.938279 219.155134 
L 253.144147 221.037431 
L 253.144147 221.037431 
L 253.761752 229.570522 
L 253.761752 229.570522 
L 253.967621 231.520221 
L 253.967621 231.520221 
L 254.585226 240.354839 
L 254.585226 240.354839 
L 254.996963 243.694258 
L 254.996963 243.694258 
L 256.643911 261.036792 
L 256.643911 261.036792 
L 256.849779 262.427097 
L 256.849779 262.427097 
L 257.467385 268.232215 
L 257.467385 268.232215 
L 257.879121 270.506544 
L 257.879121 270.506544 
L 258.702595 276.876951 
L 258.702595 276.876951 
L 259.320201 280.441997 
L 259.320201 280.441997 
L 259.731938 283.256972 
L 259.731938 283.256972 
L 259.937806 284.123097 
L 259.937806 284.123097 
L 260.555411 287.712363 
L 260.555411 287.712363 
L 262.202359 293.4709 
L 262.202359 293.4709 
L 263.025833 294.693631 
L 263.025833 294.693631 
L 263.231701 294.742814 
L 263.231701 294.742814 
L 263.849307 295.156517 
L 263.849307 295.156517 
L 264.67278 295.354366 
L 264.67278 295.354366 
L 265.907991 295.104094 
L 265.907991 295.104094 
L 266.319728 294.848139 
L 266.319728 294.848139 
L 267.34907 293.022036 
L 267.34907 293.022036 
L 268.790149 286.028074 
L 268.790149 286.028074 
L 269.201886 282.358287 
L 269.201886 282.358287 
L 269.819492 276.144619 
L 269.819492 276.144619 
L 270.437097 267.161017 
L 270.437097 267.161017 
L 271.054702 257.935269 
L 271.054702 257.935269 
L 271.466439 254.743453 
L 271.466439 254.743453 
L 271.672308 254.418557 
L 271.672308 254.418557 
L 271.878176 253.855498 
L 271.878176 253.855498 
L 272.084045 253.661208 
L 272.084045 253.661208 
L 272.495781 256.016536 
L 272.495781 256.016536 
L 272.907518 260.31572 
L 272.907518 260.31572 
L 273.525124 265.710056 
L 273.525124 265.710056 
L 274.142729 271.210885 
L 274.142729 271.210885 
L 274.966203 275.900933 
L 274.966203 275.900933 
L 275.583808 277.436079 
L 275.583808 277.436079 
L 275.995545 277.869859 
L 275.995545 277.869859 
L 276.407282 277.856156 
L 276.407282 277.856156 
L 276.819019 277.998819 
L 276.819019 277.998819 
L 278.260098 277.565942 
L 278.260098 277.565942 
L 278.671835 276.986047 
L 278.671835 276.986047 
L 278.877703 276.700614 
L 278.877703 276.700614 
L 279.907046 274.151261 
L 279.907046 274.151261 
L 281.142256 267.561016 
L 281.142256 267.561016 
L 281.553993 264.18633 
L 281.553993 264.18633 
L 282.171599 258.944483 
L 282.171599 258.944483 
L 282.789204 252.487554 
L 282.789204 252.487554 
L 283.406809 245.318795 
L 283.406809 245.318795 
L 284.64202 225.82558 
L 284.64202 225.82558 
L 286.700704 179.192739 
L 286.700704 179.192739 
L 287.935915 148.603005 
L 287.935915 148.603005 
L 288.55352 137.014812 
L 288.55352 137.014812 
L 289.171126 129.395118 
L 289.171126 129.395118 
L 289.788731 124.519809 
L 289.788731 124.519809 
L 290.406337 121.300905 
L 290.406337 121.300905 
L 291.22981 118.504042 
L 291.22981 118.504042 
L 291.847416 116.915251 
L 291.847416 116.915251 
L 293.700232 113.394874 
L 293.700232 113.394874 
L 294.111969 112.147126 
L 294.111969 112.147126 
L 295.141311 106.62229 
L 295.141311 106.62229 
L 295.758916 101.339917 
L 295.758916 101.339917 
L 296.376522 93.832027 
L 296.376522 93.832027 
L 296.994127 86.640269 
L 296.994127 86.640269 
L 297.405864 84.686109 
L 297.405864 84.686109 
L 297.611732 84.676708 
L 297.611732 84.676708 
L 298.846943 98.50646 
L 298.846943 98.50646 
L 299.670417 107.390952 
L 299.670417 107.390952 
L 300.288022 112.129917 
L 300.288022 112.129917 
L 301.111496 115.577848 
L 301.111496 115.577848 
L 301.93497 117.010856 
L 301.93497 117.010856 
L 302.140838 117.003686 
L 302.552575 117.138542 
L 302.552575 117.138542 
L 302.964312 117.221293 
L 302.964312 117.221293 
L 303.17018 117.424028 
L 303.17018 117.424028 
L 304.405391 117.050267 
L 304.405391 117.050267 
L 304.817128 116.649789 
L 304.817128 116.649789 
L 305.228865 116.235555 
L 305.228865 116.235555 
L 306.052339 114.190411 
L 306.052339 114.190411 
L 306.464076 112.862515 
L 306.464076 112.862515 
L 307.287549 108.541767 
L 307.287549 108.541767 
L 308.52276 98.245353 
L 308.52276 98.245353 
L 309.757971 82.881146 
L 309.757971 82.881146 
L 310.581445 73.419785 
L 310.581445 73.419785 
L 311.404918 67.012305 
L 311.404918 67.012305 
L 312.228392 62.672914 
L 312.228392 62.672914 
L 313.051866 59.734132 
L 313.051866 59.734132 
L 313.87534 57.743907 
L 313.87534 57.743907 
L 314.698814 56.396093 
L 314.698814 56.396093 
L 315.522287 55.486202 
L 315.522287 55.486202 
L 316.345761 54.867055 
L 316.345761 54.867055 
L 317.375103 54.366087 
L 317.375103 54.366087 
L 318.610314 54.012774 
L 318.610314 54.012774 
L 319.639656 53.84127 
L 319.639656 53.84127 
L 319.845525 55.578726 
L 319.845525 55.578726 
L 320.874867 74.355702 
L 320.874867 74.355702 
L 321.286604 83.190214 
L 321.286604 83.190214 
L 322.110078 99.065906 
L 322.110078 99.065906 
L 323.345289 122.080774 
L 323.345289 122.080774 
L 324.168762 135.548927 
L 324.168762 135.548927 
L 324.580499 142.255862 
L 324.580499 142.255862 
L 325.403973 153.979017 
L 325.403973 153.979017 
L 325.81571 159.839054 
L 325.81571 159.839054 
L 326.639184 170.195912 
L 326.639184 170.195912 
L 329.109605 193.460838 
L 329.109605 193.460838 
L 330.550684 203.553774 
L 330.550684 203.553774 
L 331.16829 207.009034 
L 331.16829 207.009034 
L 333.226974 216.356784 
L 333.226974 216.356784 
L 333.844579 219.162782 
L 333.844579 219.162782 
L 334.668053 222.978525 
L 334.668053 222.978525 
L 335.697396 227.380165 
L 335.697396 227.380165 
L 336.932606 230.875951 
L 336.932606 230.875951 
L 337.961948 231.843843 
L 337.961948 231.843843 
L 338.167817 231.809425 
L 338.167817 231.809425 
L 338.373685 231.907314 
L 338.579554 231.852341 
L 338.579554 231.852341 
L 338.785422 231.931587 
L 338.785422 231.931587 
L 339.197159 231.852819 
L 339.197159 231.852819 
L 339.814765 231.700223 
L 339.814765 231.700223 
L 340.226501 231.38186 
L 340.226501 231.38186 
L 340.844107 230.178462 
L 340.844107 230.178462 
L 341.049975 229.689391 
L 341.049975 229.689391 
L 341.667581 226.83097 
L 341.667581 226.83097 
L 342.079317 224.113725 
L 342.079317 224.113725 
L 342.491054 220.564294 
L 342.491054 220.564294 
L 342.902791 215.969585 
L 342.902791 215.969585 
L 343.520397 207.115421 
L 343.520397 207.115421 
L 344.138002 199.458068 
L 344.138002 199.458068 
L 344.549739 197.091958 
L 344.549739 197.091958 
L 344.755607 196.484868 
L 344.755607 196.484868 
L 344.961476 196.277619 
L 344.961476 196.277619 
L 345.167344 196.248831 
L 345.167344 196.248831 
L 345.373213 196.907388 
L 345.373213 196.907388 
L 345.78495 199.421579 
L 345.78495 199.421579 
L 346.196686 201.352688 
L 346.196686 201.352688 
L 346.814292 203.199983 
L 346.814292 203.199983 
L 347.843634 203.79985 
L 347.843634 203.79985 
L 348.255371 203.791458 
L 348.255371 203.791458 
L 349.078845 202.898244 
L 349.078845 202.898244 
L 349.902319 200.508498 
L 349.902319 200.508498 
L 350.725792 196.068935 
L 350.725792 196.068935 
L 351.343398 191.044483 
L 351.343398 191.044483 
L 352.784477 171.745345 
L 352.784477 171.745345 
L 353.607951 157.218848 
L 353.607951 157.218848 
L 355.04903 125.840747 
L 355.04903 125.840747 
L 356.901846 85.962804 
L 356.901846 85.962804 
L 357.72532 75.506783 
L 357.72532 75.506783 
L 358.548793 68.425661 
L 358.548793 68.425661 
L 358.96053 67.197141 
L 358.96053 67.197141 
L 359.166399 67.609569 
L 359.166399 67.609569 
L 359.372267 70.755176 
L 359.372267 70.755176 
L 359.784004 80.243093 
L 359.784004 80.243093 
L 360.195741 89.475692 
L 360.195741 89.475692 
L 360.607478 100.260487 
L 360.607478 100.260487 
L 361.019215 110.33547 
L 361.019215 110.33547 
L 361.430952 120.266727 
L 361.430952 120.266727 
L 362.872031 149.0413 
L 362.872031 149.0413 
L 365.136584 178.614596 
L 365.136584 178.614596 
L 366.165926 187.040717 
L 366.165926 187.040717 
L 366.783531 190.940539 
L 366.783531 190.940539 
L 367.812874 196.070581 
L 367.812874 196.070581 
L 369.253953 200.45018 
L 369.253953 200.45018 
L 370.489164 202.763601 
L 370.489164 202.763601 
L 371.312637 203.420352 
L 371.312637 203.420352 
L 372.34198 204.138768 
L 372.34198 204.138768 
L 372.753716 204.280848 
L 372.753716 204.280848 
L 372.959585 204.379852 
L 372.959585 204.379852 
L 373.165453 204.331677 
L 373.165453 204.331677 
L 373.371322 204.424573 
L 373.371322 204.424573 
L 373.57719 204.3747 
L 373.57719 204.3747 
L 373.783059 204.463187 
L 373.783059 204.463187 
L 374.812401 204.31654 
L 374.812401 204.31654 
L 375.430006 204.174355 
L 375.430006 204.174355 
L 376.047612 203.915319 
L 376.047612 203.915319 
L 377.076954 202.406677 
L 377.076954 202.406677 
L 377.488691 201.478143 
L 377.488691 201.478143 
L 377.900428 200.297212 
L 377.900428 200.297212 
L 378.312165 198.825165 
L 378.312165 198.825165 
L 378.723902 196.973568 
L 378.723902 196.973568 
L 380.164981 186.050996 
L 380.164981 186.050996 
L 380.782586 179.8795 
L 380.782586 179.8795 
L 381.400191 171.882857 
L 381.400191 171.882857 
L 382.635402 151.752915 
L 382.635402 151.752915 
L 383.458876 135.887899 
L 383.458876 135.887899 
L 385.929297 84.265395 
L 385.929297 84.265395 
L 386.752771 74.357243 
L 386.752771 74.357243 
L 387.576245 67.647174 
L 387.576245 67.647174 
L 388.399719 63.10287 
L 388.399719 63.10287 
L 389.223192 60.025301 
L 389.223192 60.025301 
L 390.046666 57.955831 
L 390.046666 57.955831 
L 390.87014 56.539607 
L 390.87014 56.539607 
L 391.693614 55.580479 
L 391.693614 55.580479 
L 393.134693 54.602443 
L 393.134693 54.602443 
L 393.958167 54.333316 
L 393.958167 54.333316 
L 395.399246 54.000399 
L 395.399246 54.000399 
L 395.605114 54.052238 
L 396.016851 54.308458 
L 396.016851 54.308458 
L 396.22272 54.377188 
L 396.22272 54.377188 
L 396.428588 54.302085 
L 396.428588 54.302085 
L 396.634457 54.442517 
L 396.634457 54.442517 
L 397.45793 54.196601 
L 397.45793 54.196601 
L 398.487273 54.306865 
L 398.487273 54.306865 
" clip-path="url(#p8a7d2fcfb7)" style="fill: none; stroke: #1f77b4; stroke-width: 1.5; stroke-linecap: square"/>
   </g>
   <g id="line2d_26">
    <path d="M 73.832727 53.568 
L 86.596571 53.568 
L 86.596571 53.568 
L 86.80244 55.415561 
L 86.80244 55.415561 
L 87.214177 60.743345 
L 87.214177 60.743345 
L 87.420045 60.938591 
L 87.420045 60.938591 
L 88.655256 77.361355 
L 88.655256 77.361355 
L 89.066993 90.089687 
L 89.066993 90.089687 
L 89.272861 88.718769 
L 89.272861 88.718769 
L 89.684598 102.212363 
L 89.684598 102.212363 
L 89.890466 112.292605 
L 89.890466 112.292605 
L 90.096335 109.112952 
L 90.096335 109.112952 
L 90.302203 115.452553 
L 90.302203 115.452553 
L 90.508072 127.04287 
L 90.508072 127.04287 
L 90.71394 125.629833 
L 90.71394 125.629833 
L 90.919809 130.237926 
L 90.919809 130.237926 
L 91.125677 140.648429 
L 91.125677 140.648429 
L 91.331546 140.203123 
L 91.331546 140.203123 
L 91.537414 145.192786 
L 91.537414 145.192786 
L 91.743282 152.93597 
L 91.743282 152.93597 
L 91.949151 152.819598 
L 91.949151 152.819598 
L 92.155019 157.190485 
L 92.155019 157.190485 
L 92.360888 165.930242 
L 92.360888 165.930242 
L 92.566756 163.173587 
L 92.566756 163.173587 
L 92.772625 169.375252 
L 92.772625 169.375252 
L 92.978493 169.974321 
L 92.978493 169.974321 
L 93.184362 173.685271 
L 93.184362 173.685271 
L 93.39023 179.985621 
L 93.39023 179.985621 
L 93.596098 179.296683 
L 93.596098 179.296683 
L 93.801967 184.258461 
L 93.801967 184.258461 
L 94.007835 184.219369 
L 94.007835 184.219369 
L 94.213704 187.470991 
L 94.213704 187.470991 
L 94.419572 188.625259 
L 94.419572 188.625259 
L 94.625441 190.423371 
L 94.625441 190.423371 
L 94.831309 194.83744 
L 94.831309 194.83744 
L 95.037178 193.8491 
L 95.037178 193.8491 
L 95.243046 197.013775 
L 95.243046 197.013775 
L 95.448915 196.824743 
L 95.448915 196.824743 
L 95.654783 198.924435 
L 95.654783 198.924435 
L 95.860651 199.269302 
L 95.860651 199.269302 
L 96.272388 201.178316 
L 96.272388 201.178316 
L 97.095862 203.509849 
L 97.095862 203.509849 
L 97.301731 204.055592 
L 97.301731 204.055592 
L 97.507599 203.775524 
L 97.507599 203.775524 
L 97.713467 204.439551 
L 97.713467 204.439551 
L 97.919336 203.891418 
L 97.919336 203.891418 
L 98.125204 204.139671 
L 98.125204 204.139671 
L 98.331073 203.942035 
L 98.536941 204.198521 
L 98.536941 204.198521 
L 98.74281 203.97948 
L 98.74281 203.97948 
L 98.948678 204.241065 
L 98.948678 204.241065 
L 99.154547 203.992599 
L 99.154547 203.992599 
L 99.566284 204.387341 
L 99.566284 204.387341 
L 99.772152 204.094153 
L 99.772152 204.094153 
L 99.97802 204.142699 
L 100.183889 202.52836 
L 100.183889 202.52836 
L 100.389757 203.52488 
L 100.389757 203.52488 
L 100.595626 201.585114 
L 100.595626 201.585114 
L 100.801494 201.831721 
L 100.801494 201.831721 
L 101.007363 200.105206 
L 101.007363 200.105206 
L 101.213231 200.227421 
L 101.213231 200.227421 
L 101.4191 198.472809 
L 101.4191 198.472809 
L 101.624968 198.079927 
L 101.624968 198.079927 
L 102.242573 193.110288 
L 102.242573 193.110288 
L 102.448442 186.145379 
L 102.448442 186.145379 
L 102.65431 187.785318 
L 102.65431 187.785318 
L 102.860179 181.131921 
L 102.860179 181.131921 
L 103.066047 181.82957 
L 103.066047 181.82957 
L 103.271916 174.717218 
L 103.271916 174.717218 
L 103.477784 174.443948 
L 103.477784 174.443948 
L 103.683653 166.488202 
L 103.683653 166.488202 
L 103.889521 165.385455 
L 103.889521 165.385455 
L 104.301258 153.580452 
L 104.301258 153.580452 
L 104.507126 147.535791 
L 104.507126 147.535791 
L 104.712995 131.592007 
L 104.712995 131.592007 
L 104.918863 133.574583 
L 104.918863 133.574583 
L 105.124732 122.752715 
L 105.124732 122.752715 
L 105.3306 122.002431 
L 105.3306 122.002431 
L 105.536469 116.513605 
L 105.536469 116.513605 
L 106.154074 110.887269 
L 106.154074 110.887269 
L 106.565811 112.077282 
L 106.565811 112.077282 
L 106.771679 112.343541 
L 106.771679 112.343541 
L 106.977548 113.770653 
L 106.977548 113.770653 
L 107.389285 112.944576 
L 107.389285 112.944576 
L 107.595153 113.415482 
L 107.595153 113.415482 
L 107.801022 113.133979 
L 107.801022 113.133979 
L 108.00689 112.436968 
L 108.00689 112.436968 
L 108.212758 112.883123 
L 108.212758 112.883123 
L 108.418627 113.666126 
L 108.418627 113.666126 
L 108.624495 111.441776 
L 108.624495 111.441776 
L 108.830364 111.738841 
L 108.830364 111.738841 
L 109.036232 110.692023 
L 109.036232 110.692023 
L 109.242101 108.166412 
L 109.242101 108.166412 
L 109.447969 108.013126 
L 109.447969 108.013126 
L 109.653838 106.463427 
L 109.653838 106.463427 
L 109.859706 102.620011 
L 109.859706 102.620011 
L 110.065574 100.923187 
L 110.065574 100.923187 
L 110.271443 96.853401 
L 110.271443 96.853401 
L 110.68318 81.401397 
L 110.68318 81.401397 
L 110.889048 83.268398 
L 111.300785 63.091875 
L 111.300785 63.091875 
L 111.506654 63.709375 
L 111.91839 53.568 
L 111.91839 53.568 
L 112.124259 54.572805 
L 112.124259 54.572805 
L 112.330127 56.923672 
L 112.330127 56.923672 
L 112.741864 62.671055 
L 112.741864 62.671055 
L 112.947733 63.258652 
L 112.947733 63.258652 
L 113.153601 64.831403 
L 113.153601 64.831403 
L 113.35947 65.157096 
L 113.35947 65.157096 
L 113.771207 66.303768 
L 113.771207 66.303768 
L 113.977075 66.140337 
L 113.977075 66.140337 
L 114.182943 66.234242 
L 114.182943 66.234242 
L 114.59468 66.036181 
L 114.59468 66.036181 
L 114.800549 66.583093 
L 114.800549 66.583093 
L 115.006417 66.389016 
L 115.006417 66.389016 
L 115.212286 65.99454 
L 115.418154 65.165966 
L 115.418154 65.165966 
L 115.624023 63.395632 
L 115.829891 63.848214 
L 115.829891 63.848214 
L 116.035759 62.594571 
L 116.035759 62.594571 
L 116.241628 60.570195 
L 116.241628 60.570195 
L 116.653365 53.568 
L 116.653365 53.568 
L 125.093971 53.568 
L 125.093971 53.568 
L 125.29984 53.684053 
L 125.29984 53.684053 
L 125.711577 53.568 
L 125.711577 53.568 
L 131.681762 53.568 
L 131.681762 53.568 
L 131.88763 55.568316 
L 131.88763 55.568316 
L 132.093499 56.417179 
L 132.093499 56.417179 
L 132.505235 64.046594 
L 132.505235 64.046594 
L 132.916972 73.267721 
L 132.916972 73.267721 
L 133.122841 73.434976 
L 133.122841 73.434976 
L 133.740446 85.402454 
L 133.740446 85.402454 
L 133.946315 90.802686 
L 133.946315 90.802686 
L 134.152183 89.704878 
L 134.152183 89.704878 
L 134.358052 92.426054 
L 134.358052 92.426054 
L 134.56392 97.863943 
L 134.56392 97.863943 
L 134.769788 99.000417 
L 134.769788 99.000417 
L 134.975657 100.836984 
L 134.975657 100.836984 
L 135.387394 108.906445 
L 135.387394 108.906445 
L 135.593262 109.195703 
L 135.593262 109.195703 
L 135.799131 111.583112 
L 135.799131 111.583112 
L 136.210868 120.051298 
L 136.210868 120.051298 
L 136.416736 118.605436 
L 136.416736 118.605436 
L 136.828473 124.792282 
L 136.828473 124.792282 
L 137.034341 124.484329 
L 137.034341 124.484329 
L 137.446078 130.094678 
L 137.446078 130.094678 
L 137.651947 130.558839 
L 137.651947 130.558839 
L 138.063684 135.849391 
L 138.063684 135.849391 
L 138.269552 135.847851 
L 138.269552 135.847851 
L 138.681289 139.135909 
L 138.681289 139.135909 
L 138.887157 139.111264 
L 138.887157 139.111264 
L 139.298894 142.1661 
L 139.298894 142.1661 
L 139.504763 142.659261 
L 139.504763 142.659261 
L 139.9165 144.385245 
L 139.9165 144.385245 
L 140.122368 144.846537 
L 140.122368 144.846537 
L 140.534105 146.08908 
L 140.534105 146.08908 
L 140.739973 146.274553 
L 140.739973 146.274553 
L 141.15171 147.055696 
L 141.15171 147.055696 
L 141.563447 147.162667 
L 141.563447 147.162667 
L 141.769316 147.47078 
L 141.769316 147.47078 
L 141.975184 147.361472 
L 141.975184 147.361472 
L 142.181053 147.742776 
L 142.181053 147.742776 
L 142.59279 147.334065 
L 142.59279 147.334065 
L 142.798658 147.69253 
L 142.798658 147.69253 
L 143.210395 147.254554 
L 143.210395 147.254554 
L 143.416263 147.613497 
L 143.416263 147.613497 
L 143.622132 147.362109 
L 143.622132 147.362109 
L 143.828 147.703578 
L 143.828 147.703578 
L 144.239737 146.983356 
L 144.239737 146.983356 
L 144.445606 147.319087 
L 144.445606 147.319087 
L 144.857342 146.170025 
L 144.857342 146.170025 
L 145.063211 146.582931 
L 145.063211 146.582931 
L 145.269079 145.930854 
L 145.269079 145.930854 
L 145.474948 144.862949 
L 145.474948 144.862949 
L 145.680816 145.467702 
L 145.680816 145.467702 
L 145.886685 144.449565 
L 145.886685 144.449565 
L 146.092553 144.715665 
L 146.092553 144.715665 
L 146.50429 142.436661 
L 146.50429 142.436661 
L 146.710159 142.914897 
L 146.710159 142.914897 
L 146.916027 141.708791 
L 146.916027 141.708791 
L 147.121895 139.149241 
L 147.121895 139.149241 
L 147.327764 140.430609 
L 147.327764 140.430609 
L 147.533632 138.794335 
L 147.739501 138.890577 
L 147.739501 138.890577 
L 147.945369 137.623336 
L 148.151238 134.801245 
L 148.151238 134.801245 
L 148.357106 135.310234 
L 148.357106 135.310234 
L 148.562975 133.611285 
L 148.562975 133.611285 
L 148.768843 129.897573 
L 148.768843 129.897573 
L 148.974711 130.808899 
L 149.18058 128.35462 
L 149.18058 128.35462 
L 149.386448 127.968961 
L 149.798185 121.559091 
L 149.798185 121.559091 
L 150.004054 121.576459 
L 150.004054 121.576459 
L 150.209922 119.333944 
L 150.209922 119.333944 
L 150.415791 113.695657 
L 150.415791 113.695657 
L 150.621659 114.142503 
L 150.621659 114.142503 
L 150.827528 111.375065 
L 150.827528 111.375065 
L 151.033396 103.669432 
L 151.033396 103.669432 
L 151.239264 104.445105 
L 151.239264 104.445105 
L 151.445133 100.855414 
L 151.445133 100.855414 
L 151.651001 92.989696 
L 151.651001 92.989696 
L 151.85687 93.692285 
L 151.85687 93.692285 
L 152.062738 88.639948 
L 152.062738 88.639948 
L 152.268607 80.795423 
L 152.268607 80.795423 
L 152.474475 81.392368 
L 152.474475 81.392368 
L 153.09208 65.684728 
L 153.09208 65.684728 
L 153.503817 53.568 
L 153.503817 53.568 
L 169.561556 53.568 
L 169.561556 53.568 
L 169.767425 54.312283 
L 169.767425 54.312283 
L 170.38503 60.857434 
L 170.38503 60.857434 
L 170.590899 61.289089 
L 170.590899 61.289089 
L 171.208504 66.995096 
L 171.208504 66.995096 
L 171.414373 69.870567 
L 171.414373 69.870567 
L 171.620241 69.914651 
L 171.620241 69.914651 
L 172.031978 74.099694 
L 172.031978 74.099694 
L 172.237846 77.293369 
L 172.237846 77.293369 
L 172.443715 78.261686 
L 172.443715 78.261686 
L 172.855452 82.49469 
L 172.855452 82.49469 
L 173.06132 86.096172 
L 173.06132 86.096172 
L 173.267189 87.388429 
L 173.267189 87.388429 
L 173.884794 97.056721 
L 173.884794 97.056721 
L 174.090662 97.264555 
L 174.090662 97.264555 
L 174.502399 104.299361 
L 174.502399 104.299361 
L 174.708268 109.643345 
L 174.708268 109.643345 
L 174.914136 108.142883 
L 174.914136 108.142883 
L 175.120005 111.34394 
L 175.120005 111.34394 
L 175.325873 117.296767 
L 175.325873 117.296767 
L 175.531742 117.099131 
L 175.531742 117.099131 
L 175.73761 119.905501 
L 175.73761 119.905501 
L 175.943478 125.069961 
L 175.943478 125.069961 
L 176.149347 126.500845 
L 176.149347 126.500845 
L 176.355215 129.378227 
L 176.355215 129.378227 
L 176.561084 134.853881 
L 176.561084 134.853881 
L 176.766952 135.642673 
L 176.766952 135.642673 
L 176.972821 139.322763 
L 176.972821 139.322763 
L 177.178689 145.69572 
L 177.178689 145.69572 
L 177.384558 146.034798 
L 177.384558 146.034798 
L 177.590426 149.008688 
L 177.590426 149.008688 
L 177.796294 156.610749 
L 177.796294 156.610749 
L 178.002163 155.516606 
L 178.002163 155.516606 
L 178.208031 159.904969 
L 178.208031 159.904969 
L 178.4139 167.904639 
L 178.4139 167.904639 
L 178.619768 165.744238 
L 178.619768 165.744238 
L 178.825637 172.045013 
L 178.825637 172.045013 
L 179.031505 172.40624 
L 179.031505 172.40624 
L 179.854979 190.299456 
L 179.854979 190.299456 
L 180.060847 189.035297 
L 180.060847 189.035297 
L 180.266716 194.565391 
L 180.266716 194.565391 
L 180.472584 195.093129 
L 180.472584 195.093129 
L 180.678453 199.442878 
L 180.678453 199.442878 
L 180.884321 200.847789 
L 180.884321 200.847789 
L 181.296058 206.629643 
L 181.296058 206.629643 
L 181.501927 209.390972 
L 181.501927 209.390972 
L 181.707795 217.017147 
L 181.707795 217.017147 
L 181.913663 214.520111 
L 181.913663 214.520111 
L 182.119532 222.067147 
L 182.119532 222.067147 
L 182.3254 219.965861 
L 182.3254 219.965861 
L 182.531269 226.538366 
L 182.531269 226.538366 
L 182.737137 224.904322 
L 182.943006 232.035849 
L 182.943006 232.035849 
L 183.148874 230.102669 
L 183.148874 230.102669 
L 183.354743 236.920771 
L 183.560611 234.711825 
L 183.560611 234.711825 
L 183.76648 236.761802 
L 183.76648 236.761802 
L 184.384085 245.172519 
L 184.384085 245.172519 
L 184.589953 246.09638 
L 184.589953 246.09638 
L 184.795822 250.241693 
L 184.795822 250.241693 
L 185.00169 250.260071 
L 185.00169 250.260071 
L 185.207559 255.337265 
L 185.207559 255.337265 
L 185.413427 254.48856 
L 185.413427 254.48856 
L 185.619296 260.092855 
L 185.619296 260.092855 
L 185.825164 258.608326 
L 185.825164 258.608326 
L 186.031032 260.270892 
L 186.031032 260.270892 
L 186.236901 263.110564 
L 186.236901 263.110564 
L 186.442769 264.139696 
L 186.442769 264.139696 
L 186.648638 268.170656 
L 186.648638 268.170656 
L 186.854506 267.888091 
L 186.854506 267.888091 
L 187.060375 271.942899 
L 187.060375 271.942899 
L 187.266243 270.778433 
L 187.266243 270.778433 
L 187.472112 272.3344 
L 187.472112 272.3344 
L 187.67798 275.090046 
L 187.67798 275.090046 
L 187.883849 275.661125 
L 187.883849 275.661125 
L 188.089717 279.048081 
L 188.089717 279.048081 
L 188.295585 278.768968 
L 188.295585 278.768968 
L 188.913191 281.623459 
L 188.913191 281.623459 
L 189.119059 284.301241 
L 189.119059 284.301241 
L 189.324928 284.262839 
L 189.530796 284.907374 
L 189.530796 284.907374 
L 189.736665 286.397533 
L 189.736665 286.397533 
L 189.942533 286.812192 
L 189.942533 286.812192 
L 190.148401 288.225867 
L 190.148401 288.225867 
L 190.35427 288.163299 
L 190.560138 288.530208 
L 190.560138 288.530208 
L 190.766007 289.966138 
L 190.766007 289.966138 
L 190.971875 289.967625 
L 190.971875 289.967625 
L 191.795349 292.165259 
L 191.795349 292.165259 
L 192.001218 291.98361 
L 192.001218 291.98361 
L 192.412954 292.825409 
L 192.412954 292.825409 
L 192.618823 292.851966 
L 192.618823 292.851966 
L 193.03056 293.288932 
L 193.03056 293.288932 
L 193.236428 293.458047 
L 193.236428 293.458047 
L 193.442297 293.195346 
L 193.442297 293.195346 
L 193.648165 293.595292 
L 193.648165 293.595292 
L 193.854034 293.447424 
L 193.854034 293.447424 
L 194.26577 293.801799 
L 194.26577 293.801799 
L 194.471639 293.600604 
L 194.883376 293.878017 
L 194.883376 293.878017 
L 195.089244 293.672042 
L 195.089244 293.672042 
L 195.295113 293.807641 
L 195.295113 293.807641 
L 195.500981 293.593593 
L 195.912718 293.852416 
L 195.912718 293.852416 
L 196.118586 293.075097 
L 196.118586 293.075097 
L 196.324455 293.64113 
L 196.324455 293.64113 
L 196.736192 293.08317 
L 196.736192 293.08317 
L 196.94206 293.224665 
L 196.94206 293.224665 
L 197.147929 291.533789 
L 197.147929 291.533789 
L 197.353797 292.310578 
L 197.353797 292.310578 
L 197.559666 292.290341 
L 197.559666 292.290341 
L 197.765534 290.693583 
L 197.765534 290.693583 
L 197.971403 291.067823 
L 198.177271 290.579017 
L 198.177271 290.579017 
L 198.383139 288.883362 
L 198.589008 288.670535 
L 198.589008 288.670535 
L 198.794876 284.653703 
L 198.794876 284.653703 
L 199.000745 286.354989 
L 199.000745 286.354989 
L 199.206613 285.046692 
L 199.206613 285.046692 
L 199.412482 281.772974 
L 199.61835 282.381339 
L 199.61835 282.381339 
L 199.824219 280.684143 
L 200.030087 277.684386 
L 200.030087 277.684386 
L 200.235955 277.123133 
L 200.235955 277.123133 
L 200.441824 269.674093 
L 200.441824 269.674093 
L 200.647692 272.079082 
L 200.647692 272.079082 
L 200.853561 269.393121 
L 200.853561 269.393121 
L 201.059429 263.956453 
L 201.059429 263.956453 
L 201.265298 264.25968 
L 201.265298 264.25968 
L 201.471166 252.782813 
L 201.471166 252.782813 
L 201.677035 256.102262 
L 201.677035 256.102262 
L 201.882903 253.472176 
L 201.882903 253.472176 
L 202.088772 244.137705 
L 202.088772 244.137705 
L 202.29464 244.973343 
L 202.29464 244.973343 
L 202.500508 229.502537 
L 202.500508 229.502537 
L 202.706377 233.72614 
L 202.706377 233.72614 
L 202.912245 229.982047 
L 202.912245 229.982047 
L 203.118114 217.539414 
L 203.118114 217.539414 
L 203.323982 217.6185 
L 203.323982 217.6185 
L 203.529851 208.68456 
L 203.529851 208.68456 
L 203.735719 209.561786 
L 203.735719 209.561786 
L 203.941588 208.589061 
L 203.941588 208.589061 
L 204.559193 223.820962 
L 204.559193 223.820962 
L 204.765061 224.597591 
L 204.765061 224.597591 
L 204.97093 230.839409 
L 204.97093 230.839409 
L 205.176798 230.445252 
L 205.176798 230.445252 
L 205.382667 235.715302 
L 205.382667 235.715302 
L 205.588535 235.140771 
L 205.588535 235.140771 
L 205.794404 239.632068 
L 205.794404 239.632068 
L 206.000272 238.839929 
L 206.000272 238.839929 
L 206.206141 242.496278 
L 206.206141 242.496278 
L 206.412009 241.744347 
L 206.412009 241.744347 
L 207.441351 246.552148 
L 207.441351 246.552148 
L 207.853088 247.482435 
L 207.853088 247.482435 
L 208.264825 248.026692 
L 208.264825 248.026692 
L 208.676562 248.275795 
L 208.676562 248.275795 
L 208.88243 248.15273 
L 208.88243 248.15273 
L 209.088299 248.336451 
L 209.088299 248.336451 
L 209.294167 248.121393 
L 209.294167 248.121393 
L 209.500036 248.314409 
L 209.705904 248.81065 
L 209.705904 248.81065 
L 210.117641 248.475556 
L 210.117641 248.475556 
L 210.32351 248.194053 
L 210.32351 248.194053 
L 210.529378 248.361574 
L 210.529378 248.361574 
L 210.735246 247.928219 
L 210.735246 247.928219 
L 210.941115 248.08926 
L 210.941115 248.08926 
L 211.146983 247.37573 
L 211.146983 247.37573 
L 211.352852 247.60295 
L 211.352852 247.60295 
L 211.55872 246.45495 
L 211.55872 246.45495 
L 211.764589 246.865201 
L 211.764589 246.865201 
L 211.970457 245.122911 
L 211.970457 245.122911 
L 212.176326 246.252056 
L 212.176326 246.252056 
L 212.382194 245.505383 
L 212.382194 245.505383 
L 212.588062 244.163571 
L 212.588062 244.163571 
L 212.793931 244.041675 
L 212.793931 244.041675 
L 212.999799 242.298005 
L 212.999799 242.298005 
L 213.205668 242.286585 
L 213.205668 242.286585 
L 213.411536 239.88473 
L 213.411536 239.88473 
L 213.617405 240.229225 
L 213.617405 240.229225 
L 213.823273 237.059557 
L 213.823273 237.059557 
L 214.029142 237.838789 
L 214.029142 237.838789 
L 214.23501 233.645779 
L 214.23501 233.645779 
L 214.440879 235.042245 
L 214.440879 235.042245 
L 214.646747 233.815584 
L 214.646747 233.815584 
L 214.852615 231.404645 
L 214.852615 231.404645 
L 215.058484 230.532359 
L 215.058484 230.532359 
L 215.264352 227.88942 
L 215.264352 227.88942 
L 215.470221 227.253861 
L 215.470221 227.253861 
L 215.676089 223.811348 
L 215.676089 223.811348 
L 215.881958 223.282495 
L 215.881958 223.282495 
L 216.087826 218.780363 
L 216.087826 218.780363 
L 216.293695 218.934924 
L 216.293695 218.934924 
L 216.499563 213.679905 
L 216.499563 213.679905 
L 216.705431 214.331611 
L 216.705431 214.331611 
L 216.9113 207.29707 
L 217.117168 209.182872 
L 217.117168 209.182872 
L 217.323037 201.325547 
L 217.323037 201.325547 
L 217.528905 203.312266 
L 217.528905 203.312266 
L 217.734774 195.312648 
L 217.734774 195.312648 
L 217.940642 197.230532 
L 217.940642 197.230532 
L 218.146511 187.911198 
L 218.146511 187.911198 
L 218.352379 189.573976 
L 218.352379 189.573976 
L 218.558248 180.386205 
L 218.558248 180.386205 
L 218.764116 182.486481 
L 218.764116 182.486481 
L 218.969984 172.566696 
L 218.969984 172.566696 
L 219.175853 174.440389 
L 219.175853 174.440389 
L 219.381721 163.810474 
L 219.381721 163.810474 
L 219.58759 164.7457 
L 219.58759 164.7457 
L 219.793458 155.030297 
L 219.793458 155.030297 
L 219.999327 155.291139 
L 219.999327 155.291139 
L 220.205195 146.63408 
L 220.205195 146.63408 
L 220.411064 144.324217 
L 220.411064 144.324217 
L 220.8228 133.054706 
L 220.8228 133.054706 
L 221.028669 126.852139 
L 221.028669 126.852139 
L 221.234537 112.305352 
L 221.234537 112.305352 
L 221.440406 113.523197 
L 221.440406 113.523197 
L 221.646274 102.166951 
L 221.646274 102.166951 
L 221.852143 99.600443 
L 221.852143 99.600443 
L 222.058011 92.271174 
L 222.058011 92.271174 
L 222.26388 78.059269 
L 222.26388 78.059269 
L 222.469748 77.892705 
L 222.469748 77.892705 
L 222.675617 69.413045 
L 222.675617 69.413045 
L 222.881485 56.120752 
L 222.881485 56.120752 
L 223.087353 55.888379 
L 223.293222 53.568 
L 223.293222 53.568 
L 239.145093 53.568 
L 239.145093 53.568 
L 239.350961 53.86379 
L 239.350961 53.86379 
L 239.762698 65.124219 
L 239.762698 65.124219 
L 239.968566 72.176712 
L 239.968566 72.176712 
L 240.174435 71.273832 
L 240.997909 89.196527 
L 240.997909 89.196527 
L 241.615514 102.542571 
L 241.615514 102.542571 
L 241.821382 102.887758 
L 241.821382 102.887758 
L 242.438988 116.388841 
L 242.438988 116.388841 
L 242.644856 116.307843 
L 242.644856 116.307843 
L 242.850725 119.4398 
L 242.850725 119.4398 
L 243.056593 124.437642 
L 243.056593 124.437642 
L 243.262462 124.258011 
L 243.262462 124.258011 
L 243.46833 127.359906 
L 243.46833 127.359906 
L 243.674198 132.522772 
L 243.880067 132.690027 
L 243.880067 132.690027 
L 244.909409 145.056124 
L 244.909409 145.056124 
L 245.115278 145.779108 
L 245.115278 145.779108 
L 245.321146 147.685147 
L 245.321146 147.685147 
L 245.527014 151.648175 
L 245.527014 151.648175 
L 245.732883 151.071838 
L 245.732883 151.071838 
L 245.938751 153.880013 
L 245.938751 153.880013 
L 246.14462 154.999916 
L 246.14462 154.999916 
L 246.350488 156.825647 
L 246.350488 156.825647 
L 246.556357 159.991385 
L 246.556357 159.991385 
L 246.762225 160.382036 
L 246.762225 160.382036 
L 247.173962 166.114866 
L 247.173962 166.114866 
L 247.379831 165.258726 
L 247.379831 165.258726 
L 247.585699 168.551086 
L 247.585699 168.551086 
L 247.791567 169.160247 
L 247.791567 169.160247 
L 247.997436 171.267906 
L 247.997436 171.267906 
L 248.203304 176.025515 
L 248.203304 176.025515 
L 248.409173 175.421665 
L 248.409173 175.421665 
L 248.615041 178.610985 
L 248.615041 178.610985 
L 248.82091 179.148389 
L 248.82091 179.148389 
L 249.026778 181.281118 
L 249.026778 181.281118 
L 249.232647 185.655511 
L 249.232647 185.655511 
L 249.438515 184.672482 
L 249.438515 184.672482 
L 249.644383 189.18768 
L 249.644383 189.18768 
L 249.850252 188.805049 
L 249.850252 188.805049 
L 250.05612 192.232637 
L 250.05612 192.232637 
L 250.261989 192.882324 
L 250.261989 192.882324 
L 250.673726 197.644925 
L 250.673726 197.644925 
L 250.879594 199.465504 
L 250.879594 199.465504 
L 251.085463 206.176051 
L 251.085463 206.176051 
L 251.291331 204.18195 
L 251.291331 204.18195 
L 251.4972 210.067906 
L 251.4972 210.067906 
L 251.703068 209.473829 
L 251.703068 209.473829 
L 251.908936 214.78483 
L 251.908936 214.78483 
L 252.114805 214.063705 
L 252.114805 214.063705 
L 252.320673 220.196481 
L 252.320673 220.196481 
L 252.526542 219.33896 
L 252.526542 219.33896 
L 252.73241 225.477366 
L 252.73241 225.477366 
L 252.938279 224.623404 
L 252.938279 224.623404 
L 253.144147 230.355649 
L 253.144147 230.355649 
L 253.350016 229.757536 
L 253.350016 229.757536 
L 253.555884 236.101067 
L 253.555884 236.101067 
L 253.761752 235.234623 
L 253.761752 235.234623 
L 253.967621 241.509691 
L 253.967621 241.509691 
L 254.173489 240.037166 
L 254.173489 240.037166 
L 254.379358 247.304451 
L 254.585226 244.643135 
L 254.585226 244.643135 
L 255.4087 255.463994 
L 255.4087 255.463994 
L 255.614569 255.662214 
L 255.614569 255.662214 
L 255.820437 260.494979 
L 255.820437 260.494979 
L 256.026305 259.463723 
L 256.026305 259.463723 
L 256.232174 265.292848 
L 256.232174 265.292848 
L 256.438042 263.77592 
L 256.438042 263.77592 
L 256.643911 265.075719 
L 256.643911 265.075719 
L 256.849779 268.699668 
L 256.849779 268.699668 
L 257.055648 268.558067 
L 257.055648 268.558067 
L 257.261516 272.573412 
L 257.261516 272.573412 
L 257.467385 271.306118 
L 257.467385 271.306118 
L 257.673253 272.823524 
L 257.673253 272.823524 
L 257.879121 275.700641 
L 257.879121 275.700641 
L 258.08499 275.898968 
L 258.08499 275.898968 
L 258.290858 279.961478 
L 258.290858 279.961478 
L 258.496727 279.029013 
L 258.496727 279.029013 
L 258.702595 280.099626 
L 258.702595 280.099626 
L 258.908464 282.166441 
L 258.908464 282.166441 
L 259.114332 282.379055 
L 259.114332 282.379055 
L 259.320201 285.825392 
L 259.320201 285.825392 
L 259.526069 285.089448 
L 259.526069 285.089448 
L 259.731938 285.773075 
L 259.731938 285.773075 
L 259.937806 288.120755 
L 259.937806 288.120755 
L 260.143674 288.040394 
L 260.143674 288.040394 
L 260.349543 290.262194 
L 260.349543 290.262194 
L 260.555411 289.934588 
L 260.555411 289.934588 
L 260.76128 290.363429 
L 260.76128 290.363429 
L 260.967148 292.169508 
L 260.967148 292.169508 
L 261.173017 292.176094 
L 261.173017 292.176094 
L 261.378885 293.702635 
L 261.378885 293.702635 
L 261.584754 293.386077 
L 261.584754 293.386077 
L 261.99649 294.578215 
L 261.99649 294.578215 
L 262.408227 294.558085 
L 262.408227 294.558085 
L 262.614096 295.066011 
L 262.614096 295.066011 
L 262.819964 295.213933 
L 262.819964 295.213933 
L 263.025833 294.836507 
L 263.025833 294.836507 
L 263.231701 295.287071 
L 263.231701 295.287071 
L 263.43757 295.44928 
L 263.43757 295.44928 
L 263.643438 295.247342 
L 264.055175 295.488 
L 264.055175 295.488 
L 264.261043 295.302952 
L 264.261043 295.302952 
L 264.466912 295.423573 
L 264.466912 295.423573 
L 264.67278 295.065427 
L 264.67278 295.065427 
L 264.878649 295.245058 
L 264.878649 295.245058 
L 265.290386 294.634038 
L 265.290386 294.634038 
L 265.496254 294.805011 
L 265.496254 294.805011 
L 265.907991 293.705981 
L 265.907991 293.705981 
L 266.113859 293.615635 
L 266.113859 293.615635 
L 266.319728 291.179999 
L 266.319728 291.179999 
L 266.525596 291.858155 
L 266.525596 291.858155 
L 266.731465 290.938278 
L 266.731465 290.938278 
L 266.937333 288.622361 
L 266.937333 288.622361 
L 267.143202 288.76035 
L 267.143202 288.76035 
L 267.34907 283.021518 
L 267.34907 283.021518 
L 267.554939 284.802103 
L 267.554939 284.802103 
L 267.760807 283.676039 
L 267.760807 283.676039 
L 267.966676 277.938854 
L 267.966676 277.938854 
L 268.172544 279.241627 
L 268.172544 279.241627 
L 268.378412 276.84572 
L 268.378412 276.84572 
L 268.584281 271.915864 
L 268.584281 271.915864 
L 268.790149 270.139369 
L 268.790149 270.139369 
L 268.996018 260.913037 
L 268.996018 260.913037 
L 269.201886 262.972575 
L 269.201886 262.972575 
L 269.407755 258.962542 
L 269.407755 258.962542 
L 270.02536 236.891612 
L 270.02536 236.891612 
L 270.231228 237.474641 
L 270.231228 237.474641 
L 270.437097 231.037045 
L 270.437097 231.037045 
L 270.642965 229.114382 
L 270.642965 229.114382 
L 270.848834 232.029528 
L 270.848834 232.029528 
L 271.054702 239.771013 
L 271.054702 239.771013 
L 271.260571 240.033235 
L 271.260571 240.033235 
L 271.466439 251.244109 
L 271.466439 251.244109 
L 271.672308 248.353553 
L 271.672308 248.353553 
L 271.878176 251.762499 
L 271.878176 251.762499 
L 272.084045 257.598156 
L 272.084045 257.598156 
L 272.289913 257.921938 
L 272.289913 257.921938 
L 272.495781 264.26924 
L 272.495781 264.26924 
L 272.70165 263.094099 
L 272.70165 263.094099 
L 273.936861 274.801373 
L 273.936861 274.801373 
L 274.142729 275.029337 
L 274.142729 275.029337 
L 274.348597 276.872861 
L 274.348597 276.872861 
L 274.554466 276.936704 
L 274.554466 276.936704 
L 274.760334 277.569288 
L 274.760334 277.569288 
L 274.966203 277.689697 
L 274.966203 277.689697 
L 275.37794 278.235388 
L 275.37794 278.235388 
L 275.789677 278.201076 
L 275.789677 278.201076 
L 275.995545 277.76634 
L 275.995545 277.76634 
L 276.201414 277.816055 
L 276.201414 277.816055 
L 276.407282 278.225562 
L 276.407282 278.225562 
L 276.61315 278.028457 
L 276.61315 278.028457 
L 276.819019 277.280137 
L 276.819019 277.280137 
L 277.024887 277.342652 
L 277.024887 277.342652 
L 277.230756 276.927037 
L 277.436624 277.915696 
L 277.436624 277.915696 
L 277.848361 276.471322 
L 277.848361 276.471322 
L 278.05423 276.709112 
L 278.05423 276.709112 
L 278.260098 273.274247 
L 278.260098 273.274247 
L 278.465966 275.21327 
L 278.465966 275.21327 
L 278.671835 273.911346 
L 278.671835 273.911346 
L 278.877703 271.458342 
L 278.877703 271.458342 
L 279.083572 272.217497 
L 279.083572 272.217497 
L 279.701177 268.063313 
L 279.701177 268.063313 
L 279.907046 263.228955 
L 279.907046 263.228955 
L 280.112914 264.212727 
L 280.112914 264.212727 
L 280.730519 258.076764 
L 280.730519 258.076764 
L 280.936388 252.1975 
L 280.936388 252.1975 
L 281.142256 252.80443 
L 281.142256 252.80443 
L 281.348125 244.597616 
L 281.348125 244.597616 
L 281.553993 247.593921 
L 281.553993 247.593921 
L 281.759862 244.89516 
L 281.759862 244.89516 
L 281.96573 238.879605 
L 281.96573 238.879605 
L 282.171599 238.696629 
L 282.171599 238.696629 
L 282.377467 230.099588 
L 282.377467 230.099588 
L 282.583335 232.224668 
L 282.583335 232.224668 
L 282.789204 228.998328 
L 282.995072 222.938265 
L 282.995072 222.938265 
L 283.200941 221.406359 
L 283.200941 221.406359 
L 283.406809 213.20714 
L 283.406809 213.20714 
L 283.612678 212.984753 
L 283.612678 212.984753 
L 283.818546 202.42856 
L 283.818546 202.42856 
L 284.024415 203.885947 
L 284.024415 203.885947 
L 284.230283 189.350845 
L 284.230283 189.350845 
L 284.436151 193.864715 
L 284.436151 193.864715 
L 284.64202 177.239695 
L 284.64202 177.239695 
L 284.847888 181.821072 
L 284.847888 181.821072 
L 285.671362 155.923564 
L 285.671362 155.923564 
L 285.877231 138.126376 
L 285.877231 138.126376 
L 286.083099 141.814753 
L 286.083099 141.814753 
L 286.288968 128.429404 
L 286.288968 128.429404 
L 286.494836 129.709338 
L 286.700704 119.178109 
L 286.700704 119.178109 
L 286.906573 119.258045 
L 286.906573 119.258045 
L 287.112441 112.415297 
L 287.112441 112.415297 
L 287.524178 106.227708 
L 287.524178 106.227708 
L 287.730047 100.164405 
L 287.730047 100.164405 
L 287.935915 100.617943 
L 287.935915 100.617943 
L 288.141784 102.30988 
L 288.141784 102.30988 
L 288.347652 105.26704 
L 288.347652 105.26704 
L 288.55352 105.622689 
L 288.55352 105.622689 
L 288.759389 107.202876 
L 288.759389 107.202876 
L 288.965257 107.818783 
L 288.965257 107.818783 
L 289.376994 110.031394 
L 289.376994 110.031394 
L 289.788731 111.728378 
L 289.788731 111.728378 
L 289.9946 111.577588 
L 289.9946 111.577588 
L 290.406337 112.748427 
L 290.406337 112.748427 
L 290.612205 112.119401 
L 290.612205 112.119401 
L 291.023942 113.027168 
L 291.023942 113.027168 
L 291.22981 112.26626 
L 291.22981 112.26626 
L 291.435679 112.087267 
L 291.435679 112.087267 
L 291.641547 112.3454 
L 291.641547 112.3454 
L 291.847416 112.926889 
L 291.847416 112.926889 
L 292.053284 111.915232 
L 292.053284 111.915232 
L 292.465021 112.557483 
L 292.465021 112.557483 
L 292.670889 110.987122 
L 292.670889 110.987122 
L 292.876758 111.403162 
L 292.876758 111.403162 
L 293.082626 111.148216 
L 293.082626 111.148216 
L 293.288495 108.906764 
L 293.288495 108.906764 
L 293.494363 108.71189 
L 293.700232 107.609249 
L 293.700232 107.609249 
L 293.9061 105.203675 
L 293.9061 105.203675 
L 294.111969 101.20947 
L 294.111969 101.20947 
L 294.317837 102.517236 
L 294.523706 99.41582 
L 294.523706 99.41582 
L 294.729574 93.68777 
L 294.729574 93.68777 
L 294.935442 94.456166 
L 294.935442 94.456166 
L 295.141311 90.522245 
L 295.141311 90.522245 
L 295.347179 83.837033 
L 295.347179 83.837033 
L 295.553048 83.643487 
L 295.553048 83.643487 
L 295.758916 78.459269 
L 295.964785 70.233281 
L 295.964785 70.233281 
L 296.170653 67.517842 
L 296.170653 67.517842 
L 296.376522 62.581187 
L 296.376522 62.581187 
L 296.58239 61.528844 
L 296.58239 61.528844 
L 296.788258 71.389301 
L 296.788258 71.389301 
L 296.994127 72.317782 
L 296.994127 72.317782 
L 297.611732 90.828818 
L 297.611732 90.828818 
L 297.817601 91.208262 
L 297.817601 91.208262 
L 298.229338 99.29318 
L 298.229338 99.29318 
L 298.435206 100.364696 
L 298.435206 100.364696 
L 299.052811 109.0157 
L 299.052811 109.0157 
L 299.25868 109.327797 
L 299.25868 109.327797 
L 299.670417 112.531616 
L 299.670417 112.531616 
L 299.876285 114.674012 
L 299.876285 114.674012 
L 300.082154 114.171343 
L 300.082154 114.171343 
L 300.905627 117.047664 
L 300.905627 117.047664 
L 301.111496 116.738808 
L 301.111496 116.738808 
L 301.317364 117.205996 
L 301.317364 117.205996 
L 301.523233 117.155857 
L 301.523233 117.155857 
L 301.729101 117.678443 
L 301.93497 116.933682 
L 301.93497 116.933682 
L 302.140838 117.349722 
L 302.140838 117.349722 
L 302.552575 116.984618 
L 302.552575 116.984618 
L 302.964312 117.810377 
L 302.964312 117.810377 
L 303.17018 116.940374 
L 303.17018 116.940374 
L 303.376049 117.344782 
L 303.376049 117.344782 
L 303.787786 116.560133 
L 303.787786 116.560133 
L 303.993654 115.737189 
L 303.993654 115.737189 
L 304.199523 116.28203 
L 304.199523 116.28203 
L 304.405391 115.536738 
L 304.405391 115.536738 
L 304.61126 114.109466 
L 304.61126 114.109466 
L 304.817128 114.451146 
L 304.817128 114.451146 
L 305.022996 114.18255 
L 305.022996 114.18255 
L 305.228865 111.220876 
L 305.228865 111.220876 
L 305.434733 111.605207 
L 305.434733 111.605207 
L 305.640602 110.130026 
L 305.640602 110.130026 
L 305.84647 107.299596 
L 305.84647 107.299596 
L 306.052339 107.397538 
L 306.052339 107.397538 
L 306.258207 106.049458 
L 306.258207 106.049458 
L 306.464076 102.20036 
L 306.464076 102.20036 
L 306.669944 101.439453 
L 306.669944 101.439453 
L 306.875813 99.611066 
L 306.875813 99.611066 
L 307.287549 90.544712 
L 307.287549 90.544712 
L 307.493418 91.707425 
L 307.493418 91.707425 
L 307.905155 82.948016 
L 307.905155 82.948016 
L 308.111023 83.454986 
L 308.111023 83.454986 
L 309.346234 55.834416 
L 309.346234 55.834416 
L 309.552102 56.358808 
L 309.552102 56.358808 
L 309.757971 53.568 
L 309.757971 53.568 
L 319.433788 53.568 
L 319.433788 53.568 
L 320.051393 67.502917 
L 320.051393 67.502917 
L 320.46313 76.990621 
L 320.46313 76.990621 
L 320.874867 91.203269 
L 320.874867 91.203269 
L 321.080736 88.972493 
L 321.080736 88.972493 
L 321.286604 93.600292 
L 321.286604 93.600292 
L 321.492472 101.34406 
L 321.492472 101.34406 
L 321.698341 102.354708 
L 321.698341 102.354708 
L 322.110078 111.140515 
L 322.110078 111.140515 
L 322.315946 118.561671 
L 322.315946 118.561671 
L 322.521815 117.368736 
L 322.521815 117.368736 
L 322.727683 120.775876 
L 322.727683 120.775876 
L 322.933552 127.255591 
L 322.933552 127.255591 
L 323.13942 127.872241 
L 323.13942 127.872241 
L 323.345289 131.075158 
L 323.551157 137.47568 
L 323.551157 137.47568 
L 323.757025 138.119365 
L 323.757025 138.119365 
L 323.962894 141.532188 
L 323.962894 141.532188 
L 324.168762 147.126019 
L 324.168762 147.126019 
L 324.374631 147.441249 
L 324.374631 147.441249 
L 324.580499 150.405207 
L 324.580499 150.405207 
L 324.786368 156.465696 
L 324.786368 156.465696 
L 324.992236 155.465617 
L 324.992236 155.465617 
L 325.198105 159.240888 
L 325.198105 159.240888 
L 325.403973 165.502305 
L 325.403973 165.502305 
L 325.609841 163.446326 
L 325.609841 163.446326 
L 325.81571 168.052401 
L 325.81571 168.052401 
L 326.021578 168.392223 
L 326.021578 168.392223 
L 326.433315 176.142312 
L 326.433315 176.142312 
L 326.639184 176.019513 
L 326.639184 176.019513 
L 326.845052 179.845029 
L 326.845052 179.845029 
L 327.050921 179.863353 
L 327.050921 179.863353 
L 327.256789 183.151571 
L 327.256789 183.151571 
L 327.668526 185.94992 
L 327.668526 185.94992 
L 327.874394 190.482646 
L 327.874394 190.482646 
L 328.080263 189.51741 
L 328.080263 189.51741 
L 328.286131 193.048198 
L 328.492 192.908243 
L 328.492 192.908243 
L 328.697868 195.521598 
L 328.697868 195.521598 
L 328.903737 196.084869 
L 328.903737 196.084869 
L 329.72721 203.567318 
L 329.72721 203.567318 
L 329.933079 203.432356 
L 329.933079 203.432356 
L 330.138947 205.599183 
L 330.138947 205.599183 
L 330.344816 205.30164 
L 330.344816 205.30164 
L 330.550684 207.334462 
L 330.550684 207.334462 
L 330.756553 207.369198 
L 330.962421 209.463685 
L 330.962421 209.463685 
L 331.16829 209.87845 
L 331.16829 209.87845 
L 331.374158 210.936635 
L 331.374158 210.936635 
L 331.580027 211.301048 
L 331.580027 211.301048 
L 331.785895 212.977051 
L 331.785895 212.977051 
L 331.991763 213.350494 
L 331.991763 213.350494 
L 332.815237 217.264869 
L 332.815237 217.264869 
L 333.226974 218.68428 
L 333.226974 218.68428 
L 333.638711 220.976084 
L 333.638711 220.976084 
L 333.844579 222.298191 
L 333.844579 222.298191 
L 334.050448 222.357572 
L 334.050448 222.357572 
L 334.256316 224.089611 
L 334.256316 224.089611 
L 334.462185 224.758844 
L 334.462185 224.758844 
L 334.668053 225.830838 
L 334.668053 225.830838 
L 334.873922 226.218409 
L 334.873922 226.218409 
L 335.285659 228.235987 
L 335.285659 228.235987 
L 335.491527 228.943196 
L 335.491527 228.943196 
L 335.697396 229.237818 
L 335.697396 229.237818 
L 336.109132 230.654892 
L 336.109132 230.654892 
L 336.520869 231.416702 
L 336.520869 231.416702 
L 336.726738 231.638399 
L 336.726738 231.638399 
L 336.932606 231.440072 
L 336.932606 231.440072 
L 337.344343 232.089069 
L 337.344343 232.089069 
L 337.550212 231.902958 
L 337.550212 231.902958 
L 337.75608 232.104737 
L 337.75608 232.104737 
L 337.961948 231.472843 
L 337.961948 231.472843 
L 338.167817 232.093902 
L 338.167817 232.093902 
L 338.373685 231.314936 
L 338.373685 231.314936 
L 338.579554 232.082642 
L 338.579554 232.082642 
L 338.785422 231.112998 
L 338.785422 231.112998 
L 338.991291 231.825519 
L 338.991291 231.825519 
L 339.608896 230.8819 
L 339.608896 230.8819 
L 340.020633 229.62337 
L 340.020633 229.62337 
L 340.226501 227.79833 
L 340.226501 227.79833 
L 340.43237 227.443583 
L 340.43237 227.443583 
L 340.638238 224.940971 
L 340.638238 224.940971 
L 340.844107 224.910749 
L 340.844107 224.910749 
L 341.049975 220.770056 
L 341.049975 220.770056 
L 341.255844 220.401925 
L 341.255844 220.401925 
L 341.461712 214.665696 
L 341.461712 214.665696 
L 341.667581 214.745313 
L 341.667581 214.745313 
L 341.873449 208.526121 
L 341.873449 208.526121 
L 342.079317 208.281533 
L 342.079317 208.281533 
L 342.285186 200.244151 
L 342.285186 200.244151 
L 342.491054 199.345839 
L 342.696923 190.321605 
L 342.696923 190.321605 
L 342.902791 188.58776 
L 342.902791 188.58776 
L 343.10866 179.395952 
L 343.10866 179.395952 
L 343.520397 173.590198 
L 343.520397 173.590198 
L 343.726265 175.300884 
L 343.726265 175.300884 
L 343.932134 181.0855 
L 343.932134 181.0855 
L 344.138002 183.388139 
L 344.138002 183.388139 
L 344.34387 188.55005 
L 344.34387 188.55005 
L 344.549739 190.552809 
L 344.549739 190.552809 
L 344.961476 195.9677 
L 344.961476 195.9677 
L 345.167344 198.161934 
L 345.167344 198.161934 
L 345.373213 201.562381 
L 345.373213 201.562381 
L 345.579081 201.15877 
L 345.78495 202.721535 
L 345.78495 202.721535 
L 345.990818 202.867544 
L 345.990818 202.867544 
L 346.608423 204.232249 
L 346.608423 204.232249 
L 346.814292 203.573373 
L 346.814292 203.573373 
L 347.02016 203.841916 
L 347.02016 203.841916 
L 347.226029 203.619847 
L 347.226029 203.619847 
L 347.637766 204.060744 
L 347.637766 204.060744 
L 347.843634 203.763361 
L 347.843634 203.763361 
L 348.049503 203.74254 
L 348.049503 203.74254 
L 348.255371 201.490837 
L 348.255371 201.490837 
L 348.461239 202.757705 
L 348.461239 202.757705 
L 348.667108 199.734578 
L 348.667108 199.734578 
L 348.872976 200.418949 
L 348.872976 200.418949 
L 349.078845 197.230691 
L 349.078845 197.230691 
L 349.284713 197.690762 
L 349.284713 197.690762 
L 349.490582 193.829235 
L 349.490582 193.829235 
L 349.69645 193.900726 
L 349.69645 193.900726 
L 349.902319 189.939717 
L 349.902319 189.939717 
L 350.108187 189.43349 
L 350.108187 189.43349 
L 350.314055 185.042844 
L 350.314055 185.042844 
L 350.519924 183.722437 
L 350.519924 183.722437 
L 350.725792 178.883777 
L 350.725792 178.883777 
L 350.931661 177.350543 
L 350.931661 177.350543 
L 351.137529 173.071648 
L 351.137529 173.071648 
L 351.343398 163.221336 
L 351.343398 163.221336 
L 351.549266 165.367343 
L 351.549266 165.367343 
L 351.755135 155.574129 
L 351.755135 155.574129 
L 351.961003 156.958803 
L 351.961003 156.958803 
L 352.166872 147.271232 
L 352.166872 147.271232 
L 352.37274 146.829326 
L 352.37274 146.829326 
L 352.784477 136.805757 
L 352.784477 136.805757 
L 352.990345 132.05091 
L 352.990345 132.05091 
L 353.196214 119.541884 
L 353.196214 119.541884 
L 353.402082 121.382541 
L 353.402082 121.382541 
L 353.607951 112.166831 
L 353.607951 112.166831 
L 353.813819 110.154034 
L 353.813819 110.154034 
L 354.019688 104.148306 
L 354.019688 104.148306 
L 354.225556 93.092312 
L 354.225556 93.092312 
L 354.431424 93.262435 
L 354.431424 93.262435 
L 354.843161 74.458053 
L 354.843161 74.458053 
L 355.04903 75.561225 
L 355.04903 75.561225 
L 355.254898 69.022713 
L 355.254898 69.022713 
L 355.460767 58.815105 
L 355.460767 58.815105 
L 355.666635 59.719207 
L 355.666635 59.719207 
L 355.872504 54.213066 
L 355.872504 54.213066 
L 356.078372 53.568 
L 356.078372 53.568 
L 358.342925 53.568 
L 358.342925 53.568 
L 358.548793 61.304173 
L 358.548793 61.304173 
L 358.754662 61.653184 
L 358.754662 61.653184 
L 359.166399 76.747785 
L 359.166399 76.747785 
L 359.372267 87.438038 
L 359.372267 87.438038 
L 359.578136 87.378178 
L 359.578136 87.378178 
L 359.989873 99.133626 
L 359.989873 99.133626 
L 360.195741 108.415993 
L 360.195741 108.415993 
L 360.40161 108.385878 
L 360.40161 108.385878 
L 360.813346 120.680377 
L 360.813346 120.680377 
L 361.019215 129.674071 
L 361.019215 129.674071 
L 361.225083 126.504775 
L 361.225083 126.504775 
L 361.63682 140.733942 
L 361.63682 140.733942 
L 361.842689 139.634381 
L 361.842689 139.634381 
L 362.254426 152.304926 
L 362.254426 152.304926 
L 362.460294 150.535123 
L 362.666162 156.118385 
L 362.666162 156.118385 
L 362.872031 157.250876 
L 362.872031 157.250876 
L 363.077899 159.703933 
L 363.077899 159.703933 
L 363.283768 166.212861 
L 363.489636 165.465338 
L 363.489636 165.465338 
L 363.695505 169.685011 
L 363.695505 169.685011 
L 363.901373 171.025336 
L 363.901373 171.025336 
L 364.107242 173.511908 
L 364.107242 173.511908 
L 364.31311 178.907466 
L 364.31311 178.907466 
L 364.518978 178.217996 
L 364.518978 178.217996 
L 364.724847 181.559062 
L 364.724847 181.559062 
L 364.930715 182.022904 
L 364.930715 182.022904 
L 365.136584 184.044731 
L 365.136584 184.044731 
L 365.342452 184.916221 
L 365.342452 184.916221 
L 365.548321 186.759692 
L 365.548321 186.759692 
L 365.754189 189.75759 
L 365.754189 189.75759 
L 365.960058 189.501741 
L 365.960058 189.501741 
L 366.165926 191.55379 
L 366.165926 191.55379 
L 366.371795 191.930685 
L 366.371795 191.930685 
L 366.783531 194.065697 
L 366.783531 194.065697 
L 366.9894 195.013777 
L 366.9894 195.013777 
L 367.195268 196.894588 
L 367.195268 196.894588 
L 367.401137 196.460755 
L 367.401137 196.460755 
L 367.607005 197.936626 
L 367.607005 197.936626 
L 367.812874 197.970672 
L 367.812874 197.970672 
L 368.018742 199.014144 
L 368.018742 199.014144 
L 368.224611 199.296125 
L 368.224611 199.296125 
L 368.842216 201.082074 
L 368.842216 201.082074 
L 369.459821 202.297422 
L 369.459821 202.297422 
L 369.66569 202.804764 
L 369.66569 202.804764 
L 369.871558 202.74602 
L 369.871558 202.74602 
L 370.077427 203.375152 
L 370.077427 203.375152 
L 370.283295 203.119835 
L 370.283295 203.119835 
L 370.9009 203.669562 
L 370.9009 203.669562 
L 371.106769 203.636206 
L 371.106769 203.636206 
L 371.518506 204.29317 
L 371.518506 204.29317 
L 371.724374 204.093569 
L 371.724374 204.093569 
L 371.930243 204.420165 
L 371.930243 204.420165 
L 372.136111 204.224441 
L 372.136111 204.224441 
L 372.34198 204.51237 
L 372.34198 204.51237 
L 372.547848 204.306555 
L 372.547848 204.306555 
L 372.753716 204.568458 
L 372.753716 204.568458 
L 372.959585 203.861196 
L 372.959585 203.861196 
L 373.165453 204.601548 
L 373.165453 204.601548 
L 373.371322 203.887328 
L 373.371322 203.887328 
L 373.57719 204.631717 
L 373.57719 204.631717 
L 373.783059 203.901403 
L 373.783059 203.901403 
L 373.988927 204.167184 
L 373.988927 204.167184 
L 374.194796 203.87628 
L 374.194796 203.87628 
L 374.606533 204.263532 
L 374.606533 204.263532 
L 374.812401 204.00779 
L 374.812401 204.00779 
L 375.018269 203.567796 
L 375.018269 203.567796 
L 375.224138 203.718479 
L 375.224138 203.718479 
L 375.430006 203.201524 
L 375.430006 203.201524 
L 375.635875 203.206091 
L 375.635875 203.206091 
L 375.841743 203.063109 
L 375.841743 203.063109 
L 376.047612 201.000172 
L 376.047612 201.000172 
L 376.25348 201.597277 
L 376.25348 201.597277 
L 376.459349 199.740793 
L 376.459349 199.740793 
L 376.665217 200.231085 
L 376.871085 198.147487 
L 376.871085 198.147487 
L 377.076954 198.428937 
L 377.076954 198.428937 
L 377.282822 196.013537 
L 377.282822 196.013537 
L 377.488691 196.124226 
L 377.488691 196.124226 
L 377.694559 193.615134 
L 377.694559 193.615134 
L 377.900428 193.276003 
L 377.900428 193.276003 
L 378.312165 189.434393 
L 378.312165 189.434393 
L 378.518033 187.399925 
L 378.518033 187.399925 
L 378.723902 181.33779 
L 378.723902 181.33779 
L 378.92977 183.192415 
L 378.92977 183.192415 
L 379.135638 176.847662 
L 379.135638 176.847662 
L 379.341507 178.257354 
L 379.341507 178.257354 
L 379.547375 172.149275 
L 379.547375 172.149275 
L 379.753244 172.275845 
L 379.753244 172.275845 
L 379.959112 166.939456 
L 379.959112 166.939456 
L 380.164981 166.128144 
L 380.164981 166.128144 
L 380.576718 158.671084 
L 380.576718 158.671084 
L 380.782586 154.795694 
L 380.782586 154.795694 
L 380.988454 144.715346 
L 380.988454 144.715346 
L 381.194323 146.287035 
L 381.194323 146.287035 
L 381.400191 138.63494 
L 381.400191 138.63494 
L 381.60606 138.013828 
L 381.60606 138.013828 
L 381.811928 131.820662 
L 381.811928 131.820662 
L 382.017797 120.9861 
L 382.017797 120.9861 
L 382.223665 123.485366 
L 382.223665 123.485366 
L 382.429534 114.11738 
L 382.429534 114.11738 
L 382.635402 113.646208 
L 382.635402 113.646208 
L 383.047139 95.731746 
L 383.047139 95.731746 
L 383.253007 97.316394 
L 383.253007 97.316394 
L 383.458876 88.461805 
L 383.458876 88.461805 
L 383.664744 85.878459 
L 383.664744 85.878459 
L 384.694087 54.174028 
L 384.694087 54.174028 
L 384.899955 53.568 
L 384.899955 53.568 
L 391.487745 53.568 
L 391.487745 53.568 
L 391.693614 53.895924 
L 391.693614 53.895924 
L 391.899482 53.568 
L 391.899482 53.568 
L 393.340561 53.568 
L 393.340561 53.568 
L 393.54643 54.034179 
L 393.54643 54.034179 
L 393.958167 53.738336 
L 393.958167 53.738336 
L 394.369904 53.847166 
L 394.369904 53.847166 
L 394.575772 53.568 
L 394.575772 53.568 
L 395.193378 53.650857 
L 395.193378 53.650857 
L 395.605114 54.627088 
L 395.605114 54.627088 
L 395.810983 54.419679 
L 395.810983 54.419679 
L 396.016851 54.50806 
L 396.016851 54.50806 
L 396.22272 53.568 
L 396.22272 53.568 
L 396.428588 54.710051 
L 396.428588 54.710051 
L 396.634457 53.568 
L 396.634457 53.568 
L 397.046194 53.568 
L 397.046194 53.568 
L 397.45793 54.286044 
L 397.45793 54.286044 
L 398.075536 54.498287 
L 398.075536 54.498287 
L 398.281404 53.568 
L 398.281404 53.568 
L 398.487273 53.568 
L 398.487273 53.568 
" clip-path="url(#p8a7d2fcfb7)" style="fill: none; stroke: #ff7f0e; stroke-width: 1.5; stroke-linecap: square"/>
   </g>
   <g id="patch_3">
    <path d="M 57.6 307.584 
L 57.6 41.472 
" style="fill: none; stroke: #000000; stroke-width: 0.8; stroke-linejoin: miter; stroke-linecap: square"/>
   </g>
   <g id="patch_4">
    <path d="M 414.72 307.584 
L 414.72 41.472 
" style="fill: none; stroke: #000000; stroke-width: 0.8; stroke-linejoin: miter; stroke-linecap: square"/>
   </g>
   <g id="patch_5">
    <path d="M 57.6 307.584 
L 414.72 307.584 
" style="fill: none; stroke: #000000; stroke-width: 0.8; stroke-linejoin: miter; stroke-linecap: square"/>
   </g>
   <g id="patch_6">
    <path d="M 57.6 41.472 
L 414.72 41.472 
" style="fill: none; stroke: #000000; stroke-width: 0.8; stroke-linejoin: miter; stroke-linecap: square"/>
   </g>
   <g id="text_15">
    <!-- Actual speed vs Expected speed -->
    <g transform="translate(138.808125 35.472) scale(0.12 -0.12)">
     <defs>
      <path id="DejaVuSans-41" d="M 2188 4044 
L 1331 1722 
L 3047 1722 
L 2188 4044 
z
M 1831 4666 
L 2547 4666 
L 4325 0 
L 3669 0 
L 3244 1197 
L 1141 1197 
L 716 0 
L 50 0 
L 1831 4666 
z
" transform="scale(0.015625)"/>
      <path id="DejaVuSans-75" d="M 544 1381 
L 544 3500 
L 1119 3500 
L 1119 1403 
Q 1119 906 1312 657 
Q 1506 409 1894 409 
Q 2359 409 2629 706 
Q 2900 1003 2900 1516 
L 2900 3500 
L 3475 3500 
L 3475 0 
L 2900 0 
L 2900 538 
Q 2691 219 2414 64 
Q 2138 -91 1772 -91 
Q 1169 -91 856 284 
Q 544 659 544 1381 
z
M 1991 3584 
L 1991 3584 
z
" transform="scale(0.015625)"/>
      <path id="DejaVuSans-61" d="M 2194 1759 
Q 1497 1759 1228 1600 
Q 959 1441 959 1056 
Q 959 750 1161 570 
Q 1363 391 1709 391 
Q 2188 391 2477 730 
Q 2766 1069 2766 1631 
L 2766 1759 
L 2194 1759 
z
M 3341 1997 
L 3341 0 
L 2766 0 
L 2766 531 
Q 2569 213 2275 61 
Q 1981 -91 1556 -91 
Q 1019 -91 701 211 
Q 384 513 384 1019 
Q 384 1609 779 1909 
Q 1175 2209 1959 2209 
L 2766 2209 
L 2766 2266 
Q 2766 2663 2505 2880 
Q 2244 3097 1772 3097 
Q 1472 3097 1187 3025 
Q 903 2953 641 2809 
L 641 3341 
Q 956 3463 1253 3523 
Q 1550 3584 1831 3584 
Q 2591 3584 2966 3190 
Q 3341 2797 3341 1997 
z
" transform="scale(0.015625)"/>
      <path id="DejaVuSans-20" transform="scale(0.015625)"/>
      <path id="DejaVuSans-70" d="M 1159 525 
L 1159 -1331 
L 581 -1331 
L 581 3500 
L 1159 3500 
L 1159 2969 
Q 1341 3281 1617 3432 
Q 1894 3584 2278 3584 
Q 2916 3584 3314 3078 
Q 3713 2572 3713 1747 
Q 3713 922 3314 415 
Q 2916 -91 2278 -91 
Q 1894 -91 1617 61 
Q 1341 213 1159 525 
z
M 3116 1747 
Q 3116 2381 2855 2742 
Q 2594 3103 2138 3103 
Q 1681 3103 1420 2742 
Q 1159 2381 1159 1747 
Q 1159 1113 1420 752 
Q 1681 391 2138 391 
Q 2594 391 2855 752 
Q 3116 1113 3116 1747 
z
" transform="scale(0.015625)"/>
      <path id="DejaVuSans-64" d="M 2906 2969 
L 2906 4863 
L 3481 4863 
L 3481 0 
L 2906 0 
L 2906 525 
Q 2725 213 2448 61 
Q 2172 -91 1784 -91 
Q 1150 -91 751 415 
Q 353 922 353 1747 
Q 353 2572 751 3078 
Q 1150 3584 1784 3584 
Q 2172 3584 2448 3432 
Q 2725 3281 2906 2969 
z
M 947 1747 
Q 947 1113 1208 752 
Q 1469 391 1925 391 
Q 2381 391 2643 752 
Q 2906 1113 2906 1747 
Q 2906 2381 2643 2742 
Q 2381 3103 1925 3103 
Q 1469 3103 1208 2742 
Q 947 2381 947 1747 
z
" transform="scale(0.015625)"/>
      <path id="DejaVuSans-76" d="M 191 3500 
L 800 3500 
L 1894 563 
L 2988 3500 
L 3597 3500 
L 2284 0 
L 1503 0 
L 191 3500 
z
" transform="scale(0.015625)"/>
      <path id="DejaVuSans-45" d="M 628 4666 
L 3578 4666 
L 3578 4134 
L 1259 4134 
L 1259 2753 
L 3481 2753 
L 3481 2222 
L 1259 2222 
L 1259 531 
L 3634 531 
L 3634 0 
L 628 0 
L 628 4666 
z
" transform="scale(0.015625)"/>
      <path id="DejaVuSans-78" d="M 3513 3500 
L 2247 1797 
L 3578 0 
L 2900 0 
L 1881 1375 
L 863 0 
L 184 0 
L 1544 1831 
L 300 3500 
L 978 3500 
L 1906 2253 
L 2834 3500 
L 3513 3500 
z
" transform="scale(0.015625)"/>
     </defs>
     <use xlink:href="#DejaVuSans-41"/>
     <use xlink:href="#DejaVuSans-63" x="66.658203"/>
     <use xlink:href="#DejaVuSans-74" x="121.638672"/>
     <use xlink:href="#DejaVuSans-75" x="160.847656"/>
     <use xlink:href="#DejaVuSans-61" x="224.226562"/>
     <use xlink:href="#DejaVuSans-6c" x="285.505859"/>
     <use xlink:href="#DejaVuSans-20" x="313.289062"/>
     <use xlink:href="#DejaVuSans-73" x="345.076172"/>
     <use xlink:href="#DejaVuSans-70" x="397.175781"/>
     <use xlink:href="#DejaVuSans-65" x="460.652344"/>
     <use xlink:href="#DejaVuSans-65" x="522.175781"/>
     <use xlink:href="#DejaVuSans-64" x="583.699219"/>
     <use xlink:href="#DejaVuSans-20" x="647.175781"/>
     <use xlink:href="#DejaVuSans-76" x="678.962891"/>
     <use xlink:href="#DejaVuSans-73" x="738.142578"/>
     <use xlink:href="#DejaVuSans-20" x="790.242188"/>
     <use xlink:href="#DejaVuSans-45" x="822.029297"/>
     <use xlink:href="#DejaVuSans-78" x="885.212891"/>
     <use xlink:href="#DejaVuSans-70" x="944.392578"/>
     <use xlink:href="#DejaVuSans-65" x="1007.869141"/>
     <use xlink:href="#DejaVuSans-63" x="1069.392578"/>
     <use xlink:href="#DejaVuSans-74" x="1124.373047"/>
     <use xlink:href="#DejaVuSans-65" x="1163.582031"/>
     <use xlink:href="#DejaVuSans-64" x="1225.105469"/>
     <use xlink:href="#DejaVuSans-20" x="1288.582031"/>
     <use xlink:href="#DejaVuSans-73" x="1320.369141"/>
     <use xlink:href="#DejaVuSans-70" x="1372.46875"/>
     <use xlink:href="#DejaVuSans-65" x="1435.945312"/>
     <use xlink:href="#DejaVuSans-65" x="1497.46875"/>
     <use xlink:href="#DejaVuSans-64" x="1558.992188"/>
    </g>
   </g>
   <g id="legend_1">
    <g id="patch_7">
     <path d="M 64.6 302.584 
L 176.65 302.584 
Q 178.65 302.584 178.65 300.584 
L 178.65 272.22775 
Q 178.65 270.22775 176.65 270.22775 
L 64.6 270.22775 
Q 62.6 270.22775 62.6 272.22775 
L 62.6 300.584 
Q 62.6 302.584 64.6 302.584 
z
" style="fill: #ffffff; opacity: 0.8; stroke: #cccccc; stroke-linejoin: miter"/>
    </g>
    <g id="line2d_27">
     <path d="M 66.6 278.326187 
L 76.6 278.326187 
L 86.6 278.326187 
" style="fill: none; stroke: #1f77b4; stroke-width: 1.5; stroke-linecap: square"/>
    </g>
    <g id="text_16">
     <!-- Actual speed -->
     <g transform="translate(94.6 281.826187) scale(0.1 -0.1)">
      <use xlink:href="#DejaVuSans-41"/>
      <use xlink:href="#DejaVuSans-63" x="66.658203"/>
      <use xlink:href="#DejaVuSans-74" x="121.638672"/>
      <use xlink:href="#DejaVuSans-75" x="160.847656"/>
      <use xlink:href="#DejaVuSans-61" x="224.226562"/>
      <use xlink:href="#DejaVuSans-6c" x="285.505859"/>
      <use xlink:href="#DejaVuSans-20" x="313.289062"/>
      <use xlink:href="#DejaVuSans-73" x="345.076172"/>
      <use xlink:href="#DejaVuSans-70" x="397.175781"/>
      <use xlink:href="#DejaVuSans-65" x="460.652344"/>
      <use xlink:href="#DejaVuSans-65" x="522.175781"/>
      <use xlink:href="#DejaVuSans-64" x="583.699219"/>
     </g>
    </g>
    <g id="line2d_28">
     <path d="M 66.6 293.004312 
L 76.6 293.004312 
L 86.6 293.004312 
" style="fill: none; stroke: #ff7f0e; stroke-width: 1.5; stroke-linecap: square"/>
    </g>
    <g id="text_17">
     <!-- Expected speed -->
     <g transform="translate(94.6 296.504312) scale(0.1 -0.1)">
      <use xlink:href="#DejaVuSans-45"/>
      <use xlink:href="#DejaVuSans-78" x="63.183594"/>
      <use xlink:href="#DejaVuSans-70" x="122.363281"/>
      <use xlink:href="#DejaVuSans-65" x="185.839844"/>
      <use xlink:href="#DejaVuSans-63" x="247.363281"/>
      <use xlink:href="#DejaVuSans-74" x="302.34375"/>
      <use xlink:href="#DejaVuSans-65" x="341.552734"/>
      <use xlink:href="#DejaVuSans-64" x="403.076172"/>
      <use xlink:href="#DejaVuSans-20" x="466.552734"/>
      <use xlink:href="#DejaVuSans-73" x="498.339844"/>
      <use xlink:href="#DejaVuSans-70" x="550.439453"/>
      <use xlink:href="#DejaVuSans-65" x="613.916016"/>
      <use xlink:href="#DejaVuSans-65" x="675.439453"/>
      <use xlink:href="#DejaVuSans-64" x="736.962891"/>
     </g>
    </g>
   </g>
  </g>
 </g>
 <defs>
  <clipPath id="p8a7d2fcfb7">
   <rect x="57.6" y="41.472" width="357.12" height="266.112"/>
  </clipPath>
 </defs>
</svg>
