<?xml version="1.0" encoding="utf-8" standalone="no"?>
<!DOCTYPE svg PUBLIC "-//W3C//DTD SVG 1.1//EN"
  "http://www.w3.org/Graphics/SVG/1.1/DTD/svg11.dtd">
<svg xmlns:xlink="http://www.w3.org/1999/xlink" width="460.8pt" height="345.6pt" viewBox="0 0 460.8 345.6" xmlns="http://www.w3.org/2000/svg" version="1.1">
 <metadata>
  <rdf:RDF xmlns:dc="http://purl.org/dc/elements/1.1/" xmlns:cc="http://creativecommons.org/ns#" xmlns:rdf="http://www.w3.org/1999/02/22-rdf-syntax-ns#">
   <cc:Work>
    <dc:type rdf:resource="http://purl.org/dc/dcmitype/StillImage"/>
    <dc:date>2024-01-30T20:58:36.433124</dc:date>
    <dc:format>image/svg+xml</dc:format>
    <dc:creator>
     <cc:Agent>
      <dc:title>Matplotlib v3.7.1, https://matplotlib.org/</dc:title>
     </cc:Agent>
    </dc:creator>
   </cc:Work>
  </rdf:RDF>
 </metadata>
 <defs>
  <style type="text/css">*{stroke-linejoin: round; stroke-linecap: butt}</style>
 </defs>
 <g id="figure_1">
  <g id="patch_1">
   <path d="M 0 345.6 
L 460.8 345.6 
L 460.8 0 
L 0 0 
z
" style="fill: #ffffff"/>
  </g>
  <g id="axes_1">
   <g id="patch_2">
    <path d="M 57.6 307.584 
L 414.72 307.584 
L 414.72 41.472 
L 57.6 41.472 
z
" style="fill: #ffffff"/>
   </g>
   <g id="matplotlib.axis_1">
    <g id="xtick_1">
     <g id="line2d_1">
      <path d="M 73.832727 307.584 
L 73.832727 41.472 
" clip-path="url(#p81a5023661)" style="fill: none; stroke: #b0b0b0; stroke-width: 0.8; stroke-linecap: square"/>
     </g>
     <g id="line2d_2">
      <defs>
       <path id="m20057ec3db" d="M 0 0 
L 0 3.5 
" style="stroke: #000000; stroke-width: 0.8"/>
      </defs>
      <g>
       <use xlink:href="#m20057ec3db" x="73.832727" y="307.584" style="stroke: #000000; stroke-width: 0.8"/>
      </g>
     </g>
     <g id="text_1">
      <!-- 0 -->
      <g transform="translate(70.651477 322.182437) scale(0.1 -0.1)">
       <defs>
        <path id="DejaVuSans-30" d="M 2034 4250 
Q 1547 4250 1301 3770 
Q 1056 3291 1056 2328 
Q 1056 1369 1301 889 
Q 1547 409 2034 409 
Q 2525 409 2770 889 
Q 3016 1369 3016 2328 
Q 3016 3291 2770 3770 
Q 2525 4250 2034 4250 
z
M 2034 4750 
Q 2819 4750 3233 4129 
Q 3647 3509 3647 2328 
Q 3647 1150 3233 529 
Q 2819 -91 2034 -91 
Q 1250 -91 836 529 
Q 422 1150 422 2328 
Q 422 3509 836 4129 
Q 1250 4750 2034 4750 
z
" transform="scale(0.015625)"/>
       </defs>
       <use xlink:href="#DejaVuSans-30"/>
      </g>
     </g>
    </g>
    <g id="xtick_2">
     <g id="line2d_3">
      <path d="M 124.814911 307.584 
L 124.814911 41.472 
" clip-path="url(#p81a5023661)" style="fill: none; stroke: #b0b0b0; stroke-width: 0.8; stroke-linecap: square"/>
     </g>
     <g id="line2d_4">
      <g>
       <use xlink:href="#m20057ec3db" x="124.814911" y="307.584" style="stroke: #000000; stroke-width: 0.8"/>
      </g>
     </g>
     <g id="text_2">
      <!-- 5 -->
      <g transform="translate(121.633661 322.182437) scale(0.1 -0.1)">
       <defs>
        <path id="DejaVuSans-35" d="M 691 4666 
L 3169 4666 
L 3169 4134 
L 1269 4134 
L 1269 2991 
Q 1406 3038 1543 3061 
Q 1681 3084 1819 3084 
Q 2600 3084 3056 2656 
Q 3513 2228 3513 1497 
Q 3513 744 3044 326 
Q 2575 -91 1722 -91 
Q 1428 -91 1123 -41 
Q 819 9 494 109 
L 494 744 
Q 775 591 1075 516 
Q 1375 441 1709 441 
Q 2250 441 2565 725 
Q 2881 1009 2881 1497 
Q 2881 1984 2565 2268 
Q 2250 2553 1709 2553 
Q 1456 2553 1204 2497 
Q 953 2441 691 2322 
L 691 4666 
z
" transform="scale(0.015625)"/>
       </defs>
       <use xlink:href="#DejaVuSans-35"/>
      </g>
     </g>
    </g>
    <g id="xtick_3">
     <g id="line2d_5">
      <path d="M 175.797095 307.584 
L 175.797095 41.472 
" clip-path="url(#p81a5023661)" style="fill: none; stroke: #b0b0b0; stroke-width: 0.8; stroke-linecap: square"/>
     </g>
     <g id="line2d_6">
      <g>
       <use xlink:href="#m20057ec3db" x="175.797095" y="307.584" style="stroke: #000000; stroke-width: 0.8"/>
      </g>
     </g>
     <g id="text_3">
      <!-- 10 -->
      <g transform="translate(169.434595 322.182437) scale(0.1 -0.1)">
       <defs>
        <path id="DejaVuSans-31" d="M 794 531 
L 1825 531 
L 1825 4091 
L 703 3866 
L 703 4441 
L 1819 4666 
L 2450 4666 
L 2450 531 
L 3481 531 
L 3481 0 
L 794 0 
L 794 531 
z
" transform="scale(0.015625)"/>
       </defs>
       <use xlink:href="#DejaVuSans-31"/>
       <use xlink:href="#DejaVuSans-30" x="63.623047"/>
      </g>
     </g>
    </g>
    <g id="xtick_4">
     <g id="line2d_7">
      <path d="M 226.779278 307.584 
L 226.779278 41.472 
" clip-path="url(#p81a5023661)" style="fill: none; stroke: #b0b0b0; stroke-width: 0.8; stroke-linecap: square"/>
     </g>
     <g id="line2d_8">
      <g>
       <use xlink:href="#m20057ec3db" x="226.779278" y="307.584" style="stroke: #000000; stroke-width: 0.8"/>
      </g>
     </g>
     <g id="text_4">
      <!-- 15 -->
      <g transform="translate(220.416778 322.182437) scale(0.1 -0.1)">
       <use xlink:href="#DejaVuSans-31"/>
       <use xlink:href="#DejaVuSans-35" x="63.623047"/>
      </g>
     </g>
    </g>
    <g id="xtick_5">
     <g id="line2d_9">
      <path d="M 277.761462 307.584 
L 277.761462 41.472 
" clip-path="url(#p81a5023661)" style="fill: none; stroke: #b0b0b0; stroke-width: 0.8; stroke-linecap: square"/>
     </g>
     <g id="line2d_10">
      <g>
       <use xlink:href="#m20057ec3db" x="277.761462" y="307.584" style="stroke: #000000; stroke-width: 0.8"/>
      </g>
     </g>
     <g id="text_5">
      <!-- 20 -->
      <g transform="translate(271.398962 322.182437) scale(0.1 -0.1)">
       <defs>
        <path id="DejaVuSans-32" d="M 1228 531 
L 3431 531 
L 3431 0 
L 469 0 
L 469 531 
Q 828 903 1448 1529 
Q 2069 2156 2228 2338 
Q 2531 2678 2651 2914 
Q 2772 3150 2772 3378 
Q 2772 3750 2511 3984 
Q 2250 4219 1831 4219 
Q 1534 4219 1204 4116 
Q 875 4013 500 3803 
L 500 4441 
Q 881 4594 1212 4672 
Q 1544 4750 1819 4750 
Q 2544 4750 2975 4387 
Q 3406 4025 3406 3419 
Q 3406 3131 3298 2873 
Q 3191 2616 2906 2266 
Q 2828 2175 2409 1742 
Q 1991 1309 1228 531 
z
" transform="scale(0.015625)"/>
       </defs>
       <use xlink:href="#DejaVuSans-32"/>
       <use xlink:href="#DejaVuSans-30" x="63.623047"/>
      </g>
     </g>
    </g>
    <g id="xtick_6">
     <g id="line2d_11">
      <path d="M 328.743646 307.584 
L 328.743646 41.472 
" clip-path="url(#p81a5023661)" style="fill: none; stroke: #b0b0b0; stroke-width: 0.8; stroke-linecap: square"/>
     </g>
     <g id="line2d_12">
      <g>
       <use xlink:href="#m20057ec3db" x="328.743646" y="307.584" style="stroke: #000000; stroke-width: 0.8"/>
      </g>
     </g>
     <g id="text_6">
      <!-- 25 -->
      <g transform="translate(322.381146 322.182437) scale(0.1 -0.1)">
       <use xlink:href="#DejaVuSans-32"/>
       <use xlink:href="#DejaVuSans-35" x="63.623047"/>
      </g>
     </g>
    </g>
    <g id="xtick_7">
     <g id="line2d_13">
      <path d="M 379.725829 307.584 
L 379.725829 41.472 
" clip-path="url(#p81a5023661)" style="fill: none; stroke: #b0b0b0; stroke-width: 0.8; stroke-linecap: square"/>
     </g>
     <g id="line2d_14">
      <g>
       <use xlink:href="#m20057ec3db" x="379.725829" y="307.584" style="stroke: #000000; stroke-width: 0.8"/>
      </g>
     </g>
     <g id="text_7">
      <!-- 30 -->
      <g transform="translate(373.363329 322.182437) scale(0.1 -0.1)">
       <defs>
        <path id="DejaVuSans-33" d="M 2597 2516 
Q 3050 2419 3304 2112 
Q 3559 1806 3559 1356 
Q 3559 666 3084 287 
Q 2609 -91 1734 -91 
Q 1441 -91 1130 -33 
Q 819 25 488 141 
L 488 750 
Q 750 597 1062 519 
Q 1375 441 1716 441 
Q 2309 441 2620 675 
Q 2931 909 2931 1356 
Q 2931 1769 2642 2001 
Q 2353 2234 1838 2234 
L 1294 2234 
L 1294 2753 
L 1863 2753 
Q 2328 2753 2575 2939 
Q 2822 3125 2822 3475 
Q 2822 3834 2567 4026 
Q 2313 4219 1838 4219 
Q 1578 4219 1281 4162 
Q 984 4106 628 3988 
L 628 4550 
Q 988 4650 1302 4700 
Q 1616 4750 1894 4750 
Q 2613 4750 3031 4423 
Q 3450 4097 3450 3541 
Q 3450 3153 3228 2886 
Q 3006 2619 2597 2516 
z
" transform="scale(0.015625)"/>
       </defs>
       <use xlink:href="#DejaVuSans-33"/>
       <use xlink:href="#DejaVuSans-30" x="63.623047"/>
      </g>
     </g>
    </g>
    <g id="text_8">
     <!-- Time(s) -->
     <g transform="translate(217.420156 335.860562) scale(0.1 -0.1)">
      <defs>
       <path id="DejaVuSans-54" d="M -19 4666 
L 3928 4666 
L 3928 4134 
L 2272 4134 
L 2272 0 
L 1638 0 
L 1638 4134 
L -19 4134 
L -19 4666 
z
" transform="scale(0.015625)"/>
       <path id="DejaVuSans-69" d="M 603 3500 
L 1178 3500 
L 1178 0 
L 603 0 
L 603 3500 
z
M 603 4863 
L 1178 4863 
L 1178 4134 
L 603 4134 
L 603 4863 
z
" transform="scale(0.015625)"/>
       <path id="DejaVuSans-6d" d="M 3328 2828 
Q 3544 3216 3844 3400 
Q 4144 3584 4550 3584 
Q 5097 3584 5394 3201 
Q 5691 2819 5691 2113 
L 5691 0 
L 5113 0 
L 5113 2094 
Q 5113 2597 4934 2840 
Q 4756 3084 4391 3084 
Q 3944 3084 3684 2787 
Q 3425 2491 3425 1978 
L 3425 0 
L 2847 0 
L 2847 2094 
Q 2847 2600 2669 2842 
Q 2491 3084 2119 3084 
Q 1678 3084 1418 2786 
Q 1159 2488 1159 1978 
L 1159 0 
L 581 0 
L 581 3500 
L 1159 3500 
L 1159 2956 
Q 1356 3278 1631 3431 
Q 1906 3584 2284 3584 
Q 2666 3584 2933 3390 
Q 3200 3197 3328 2828 
z
" transform="scale(0.015625)"/>
       <path id="DejaVuSans-65" d="M 3597 1894 
L 3597 1613 
L 953 1613 
Q 991 1019 1311 708 
Q 1631 397 2203 397 
Q 2534 397 2845 478 
Q 3156 559 3463 722 
L 3463 178 
Q 3153 47 2828 -22 
Q 2503 -91 2169 -91 
Q 1331 -91 842 396 
Q 353 884 353 1716 
Q 353 2575 817 3079 
Q 1281 3584 2069 3584 
Q 2775 3584 3186 3129 
Q 3597 2675 3597 1894 
z
M 3022 2063 
Q 3016 2534 2758 2815 
Q 2500 3097 2075 3097 
Q 1594 3097 1305 2825 
Q 1016 2553 972 2059 
L 3022 2063 
z
" transform="scale(0.015625)"/>
       <path id="DejaVuSans-28" d="M 1984 4856 
Q 1566 4138 1362 3434 
Q 1159 2731 1159 2009 
Q 1159 1288 1364 580 
Q 1569 -128 1984 -844 
L 1484 -844 
Q 1016 -109 783 600 
Q 550 1309 550 2009 
Q 550 2706 781 3412 
Q 1013 4119 1484 4856 
L 1984 4856 
z
" transform="scale(0.015625)"/>
       <path id="DejaVuSans-73" d="M 2834 3397 
L 2834 2853 
Q 2591 2978 2328 3040 
Q 2066 3103 1784 3103 
Q 1356 3103 1142 2972 
Q 928 2841 928 2578 
Q 928 2378 1081 2264 
Q 1234 2150 1697 2047 
L 1894 2003 
Q 2506 1872 2764 1633 
Q 3022 1394 3022 966 
Q 3022 478 2636 193 
Q 2250 -91 1575 -91 
Q 1294 -91 989 -36 
Q 684 19 347 128 
L 347 722 
Q 666 556 975 473 
Q 1284 391 1588 391 
Q 1994 391 2212 530 
Q 2431 669 2431 922 
Q 2431 1156 2273 1281 
Q 2116 1406 1581 1522 
L 1381 1569 
Q 847 1681 609 1914 
Q 372 2147 372 2553 
Q 372 3047 722 3315 
Q 1072 3584 1716 3584 
Q 2034 3584 2315 3537 
Q 2597 3491 2834 3397 
z
" transform="scale(0.015625)"/>
       <path id="DejaVuSans-29" d="M 513 4856 
L 1013 4856 
Q 1481 4119 1714 3412 
Q 1947 2706 1947 2009 
Q 1947 1309 1714 600 
Q 1481 -109 1013 -844 
L 513 -844 
Q 928 -128 1133 580 
Q 1338 1288 1338 2009 
Q 1338 2731 1133 3434 
Q 928 4138 513 4856 
z
" transform="scale(0.015625)"/>
      </defs>
      <use xlink:href="#DejaVuSans-54"/>
      <use xlink:href="#DejaVuSans-69" x="57.958984"/>
      <use xlink:href="#DejaVuSans-6d" x="85.742188"/>
      <use xlink:href="#DejaVuSans-65" x="183.154297"/>
      <use xlink:href="#DejaVuSans-28" x="244.677734"/>
      <use xlink:href="#DejaVuSans-73" x="283.691406"/>
      <use xlink:href="#DejaVuSans-29" x="335.791016"/>
     </g>
    </g>
   </g>
   <g id="matplotlib.axis_2">
    <g id="ytick_1">
     <g id="line2d_15">
      <path d="M 57.6 295.488 
L 414.72 295.488 
" clip-path="url(#p81a5023661)" style="fill: none; stroke: #b0b0b0; stroke-width: 0.8; stroke-linecap: square"/>
     </g>
     <g id="line2d_16">
      <defs>
       <path id="m01178a362c" d="M 0 0 
L -3.5 0 
" style="stroke: #000000; stroke-width: 0.8"/>
      </defs>
      <g>
       <use xlink:href="#m01178a362c" x="57.6" y="295.488" style="stroke: #000000; stroke-width: 0.8"/>
      </g>
     </g>
     <g id="text_9">
      <!-- 0.00 -->
      <g transform="translate(28.334375 299.287219) scale(0.1 -0.1)">
       <defs>
        <path id="DejaVuSans-2e" d="M 684 794 
L 1344 794 
L 1344 0 
L 684 0 
L 684 794 
z
" transform="scale(0.015625)"/>
       </defs>
       <use xlink:href="#DejaVuSans-30"/>
       <use xlink:href="#DejaVuSans-2e" x="63.623047"/>
       <use xlink:href="#DejaVuSans-30" x="95.410156"/>
       <use xlink:href="#DejaVuSans-30" x="159.033203"/>
      </g>
     </g>
    </g>
    <g id="ytick_2">
     <g id="line2d_17">
      <path d="M 57.6 262.333377 
L 414.72 262.333377 
" clip-path="url(#p81a5023661)" style="fill: none; stroke: #b0b0b0; stroke-width: 0.8; stroke-linecap: square"/>
     </g>
     <g id="line2d_18">
      <g>
       <use xlink:href="#m01178a362c" x="57.6" y="262.333377" style="stroke: #000000; stroke-width: 0.8"/>
      </g>
     </g>
     <g id="text_10">
      <!-- 0.05 -->
      <g transform="translate(28.334375 266.132596) scale(0.1 -0.1)">
       <use xlink:href="#DejaVuSans-30"/>
       <use xlink:href="#DejaVuSans-2e" x="63.623047"/>
       <use xlink:href="#DejaVuSans-30" x="95.410156"/>
       <use xlink:href="#DejaVuSans-35" x="159.033203"/>
      </g>
     </g>
    </g>
    <g id="ytick_3">
     <g id="line2d_19">
      <path d="M 57.6 229.178754 
L 414.72 229.178754 
" clip-path="url(#p81a5023661)" style="fill: none; stroke: #b0b0b0; stroke-width: 0.8; stroke-linecap: square"/>
     </g>
     <g id="line2d_20">
      <g>
       <use xlink:href="#m01178a362c" x="57.6" y="229.178754" style="stroke: #000000; stroke-width: 0.8"/>
      </g>
     </g>
     <g id="text_11">
      <!-- 0.10 -->
      <g transform="translate(28.334375 232.977973) scale(0.1 -0.1)">
       <use xlink:href="#DejaVuSans-30"/>
       <use xlink:href="#DejaVuSans-2e" x="63.623047"/>
       <use xlink:href="#DejaVuSans-31" x="95.410156"/>
       <use xlink:href="#DejaVuSans-30" x="159.033203"/>
      </g>
     </g>
    </g>
    <g id="ytick_4">
     <g id="line2d_21">
      <path d="M 57.6 196.024131 
L 414.72 196.024131 
" clip-path="url(#p81a5023661)" style="fill: none; stroke: #b0b0b0; stroke-width: 0.8; stroke-linecap: square"/>
     </g>
     <g id="line2d_22">
      <g>
       <use xlink:href="#m01178a362c" x="57.6" y="196.024131" style="stroke: #000000; stroke-width: 0.8"/>
      </g>
     </g>
     <g id="text_12">
      <!-- 0.15 -->
      <g transform="translate(28.334375 199.82335) scale(0.1 -0.1)">
       <use xlink:href="#DejaVuSans-30"/>
       <use xlink:href="#DejaVuSans-2e" x="63.623047"/>
       <use xlink:href="#DejaVuSans-31" x="95.410156"/>
       <use xlink:href="#DejaVuSans-35" x="159.033203"/>
      </g>
     </g>
    </g>
    <g id="ytick_5">
     <g id="line2d_23">
      <path d="M 57.6 162.869508 
L 414.72 162.869508 
" clip-path="url(#p81a5023661)" style="fill: none; stroke: #b0b0b0; stroke-width: 0.8; stroke-linecap: square"/>
     </g>
     <g id="line2d_24">
      <g>
       <use xlink:href="#m01178a362c" x="57.6" y="162.869508" style="stroke: #000000; stroke-width: 0.8"/>
      </g>
     </g>
     <g id="text_13">
      <!-- 0.20 -->
      <g transform="translate(28.334375 166.668727) scale(0.1 -0.1)">
       <use xlink:href="#DejaVuSans-30"/>
       <use xlink:href="#DejaVuSans-2e" x="63.623047"/>
       <use xlink:href="#DejaVuSans-32" x="95.410156"/>
       <use xlink:href="#DejaVuSans-30" x="159.033203"/>
      </g>
     </g>
    </g>
    <g id="ytick_6">
     <g id="line2d_25">
      <path d="M 57.6 129.714886 
L 414.72 129.714886 
" clip-path="url(#p81a5023661)" style="fill: none; stroke: #b0b0b0; stroke-width: 0.8; stroke-linecap: square"/>
     </g>
     <g id="line2d_26">
      <g>
       <use xlink:href="#m01178a362c" x="57.6" y="129.714886" style="stroke: #000000; stroke-width: 0.8"/>
      </g>
     </g>
     <g id="text_14">
      <!-- 0.25 -->
      <g transform="translate(28.334375 133.514104) scale(0.1 -0.1)">
       <use xlink:href="#DejaVuSans-30"/>
       <use xlink:href="#DejaVuSans-2e" x="63.623047"/>
       <use xlink:href="#DejaVuSans-32" x="95.410156"/>
       <use xlink:href="#DejaVuSans-35" x="159.033203"/>
      </g>
     </g>
    </g>
    <g id="ytick_7">
     <g id="line2d_27">
      <path d="M 57.6 96.560263 
L 414.72 96.560263 
" clip-path="url(#p81a5023661)" style="fill: none; stroke: #b0b0b0; stroke-width: 0.8; stroke-linecap: square"/>
     </g>
     <g id="line2d_28">
      <g>
       <use xlink:href="#m01178a362c" x="57.6" y="96.560263" style="stroke: #000000; stroke-width: 0.8"/>
      </g>
     </g>
     <g id="text_15">
      <!-- 0.30 -->
      <g transform="translate(28.334375 100.359481) scale(0.1 -0.1)">
       <use xlink:href="#DejaVuSans-30"/>
       <use xlink:href="#DejaVuSans-2e" x="63.623047"/>
       <use xlink:href="#DejaVuSans-33" x="95.410156"/>
       <use xlink:href="#DejaVuSans-30" x="159.033203"/>
      </g>
     </g>
    </g>
    <g id="ytick_8">
     <g id="line2d_29">
      <path d="M 57.6 63.40564 
L 414.72 63.40564 
" clip-path="url(#p81a5023661)" style="fill: none; stroke: #b0b0b0; stroke-width: 0.8; stroke-linecap: square"/>
     </g>
     <g id="line2d_30">
      <g>
       <use xlink:href="#m01178a362c" x="57.6" y="63.40564" style="stroke: #000000; stroke-width: 0.8"/>
      </g>
     </g>
     <g id="text_16">
      <!-- 0.35 -->
      <g transform="translate(28.334375 67.204858) scale(0.1 -0.1)">
       <use xlink:href="#DejaVuSans-30"/>
       <use xlink:href="#DejaVuSans-2e" x="63.623047"/>
       <use xlink:href="#DejaVuSans-33" x="95.410156"/>
       <use xlink:href="#DejaVuSans-35" x="159.033203"/>
      </g>
     </g>
    </g>
    <g id="text_17">
     <!-- Tracking error(m) -->
     <g transform="translate(22.254687 217.803781) rotate(-90) scale(0.1 -0.1)">
      <defs>
       <path id="DejaVuSans-72" d="M 2631 2963 
Q 2534 3019 2420 3045 
Q 2306 3072 2169 3072 
Q 1681 3072 1420 2755 
Q 1159 2438 1159 1844 
L 1159 0 
L 581 0 
L 581 3500 
L 1159 3500 
L 1159 2956 
Q 1341 3275 1631 3429 
Q 1922 3584 2338 3584 
Q 2397 3584 2469 3576 
Q 2541 3569 2628 3553 
L 2631 2963 
z
" transform="scale(0.015625)"/>
       <path id="DejaVuSans-61" d="M 2194 1759 
Q 1497 1759 1228 1600 
Q 959 1441 959 1056 
Q 959 750 1161 570 
Q 1363 391 1709 391 
Q 2188 391 2477 730 
Q 2766 1069 2766 1631 
L 2766 1759 
L 2194 1759 
z
M 3341 1997 
L 3341 0 
L 2766 0 
L 2766 531 
Q 2569 213 2275 61 
Q 1981 -91 1556 -91 
Q 1019 -91 701 211 
Q 384 513 384 1019 
Q 384 1609 779 1909 
Q 1175 2209 1959 2209 
L 2766 2209 
L 2766 2266 
Q 2766 2663 2505 2880 
Q 2244 3097 1772 3097 
Q 1472 3097 1187 3025 
Q 903 2953 641 2809 
L 641 3341 
Q 956 3463 1253 3523 
Q 1550 3584 1831 3584 
Q 2591 3584 2966 3190 
Q 3341 2797 3341 1997 
z
" transform="scale(0.015625)"/>
       <path id="DejaVuSans-63" d="M 3122 3366 
L 3122 2828 
Q 2878 2963 2633 3030 
Q 2388 3097 2138 3097 
Q 1578 3097 1268 2742 
Q 959 2388 959 1747 
Q 959 1106 1268 751 
Q 1578 397 2138 397 
Q 2388 397 2633 464 
Q 2878 531 3122 666 
L 3122 134 
Q 2881 22 2623 -34 
Q 2366 -91 2075 -91 
Q 1284 -91 818 406 
Q 353 903 353 1747 
Q 353 2603 823 3093 
Q 1294 3584 2113 3584 
Q 2378 3584 2631 3529 
Q 2884 3475 3122 3366 
z
" transform="scale(0.015625)"/>
       <path id="DejaVuSans-6b" d="M 581 4863 
L 1159 4863 
L 1159 1991 
L 2875 3500 
L 3609 3500 
L 1753 1863 
L 3688 0 
L 2938 0 
L 1159 1709 
L 1159 0 
L 581 0 
L 581 4863 
z
" transform="scale(0.015625)"/>
       <path id="DejaVuSans-6e" d="M 3513 2113 
L 3513 0 
L 2938 0 
L 2938 2094 
Q 2938 2591 2744 2837 
Q 2550 3084 2163 3084 
Q 1697 3084 1428 2787 
Q 1159 2491 1159 1978 
L 1159 0 
L 581 0 
L 581 3500 
L 1159 3500 
L 1159 2956 
Q 1366 3272 1645 3428 
Q 1925 3584 2291 3584 
Q 2894 3584 3203 3211 
Q 3513 2838 3513 2113 
z
" transform="scale(0.015625)"/>
       <path id="DejaVuSans-67" d="M 2906 1791 
Q 2906 2416 2648 2759 
Q 2391 3103 1925 3103 
Q 1463 3103 1205 2759 
Q 947 2416 947 1791 
Q 947 1169 1205 825 
Q 1463 481 1925 481 
Q 2391 481 2648 825 
Q 2906 1169 2906 1791 
z
M 3481 434 
Q 3481 -459 3084 -895 
Q 2688 -1331 1869 -1331 
Q 1566 -1331 1297 -1286 
Q 1028 -1241 775 -1147 
L 775 -588 
Q 1028 -725 1275 -790 
Q 1522 -856 1778 -856 
Q 2344 -856 2625 -561 
Q 2906 -266 2906 331 
L 2906 616 
Q 2728 306 2450 153 
Q 2172 0 1784 0 
Q 1141 0 747 490 
Q 353 981 353 1791 
Q 353 2603 747 3093 
Q 1141 3584 1784 3584 
Q 2172 3584 2450 3431 
Q 2728 3278 2906 2969 
L 2906 3500 
L 3481 3500 
L 3481 434 
z
" transform="scale(0.015625)"/>
       <path id="DejaVuSans-20" transform="scale(0.015625)"/>
       <path id="DejaVuSans-6f" d="M 1959 3097 
Q 1497 3097 1228 2736 
Q 959 2375 959 1747 
Q 959 1119 1226 758 
Q 1494 397 1959 397 
Q 2419 397 2687 759 
Q 2956 1122 2956 1747 
Q 2956 2369 2687 2733 
Q 2419 3097 1959 3097 
z
M 1959 3584 
Q 2709 3584 3137 3096 
Q 3566 2609 3566 1747 
Q 3566 888 3137 398 
Q 2709 -91 1959 -91 
Q 1206 -91 779 398 
Q 353 888 353 1747 
Q 353 2609 779 3096 
Q 1206 3584 1959 3584 
z
" transform="scale(0.015625)"/>
      </defs>
      <use xlink:href="#DejaVuSans-54"/>
      <use xlink:href="#DejaVuSans-72" x="46.333984"/>
      <use xlink:href="#DejaVuSans-61" x="87.447266"/>
      <use xlink:href="#DejaVuSans-63" x="148.726562"/>
      <use xlink:href="#DejaVuSans-6b" x="203.707031"/>
      <use xlink:href="#DejaVuSans-69" x="261.617188"/>
      <use xlink:href="#DejaVuSans-6e" x="289.400391"/>
      <use xlink:href="#DejaVuSans-67" x="352.779297"/>
      <use xlink:href="#DejaVuSans-20" x="416.255859"/>
      <use xlink:href="#DejaVuSans-65" x="448.042969"/>
      <use xlink:href="#DejaVuSans-72" x="509.566406"/>
      <use xlink:href="#DejaVuSans-72" x="548.929688"/>
      <use xlink:href="#DejaVuSans-6f" x="587.792969"/>
      <use xlink:href="#DejaVuSans-72" x="648.974609"/>
      <use xlink:href="#DejaVuSans-28" x="690.087891"/>
      <use xlink:href="#DejaVuSans-6d" x="729.101562"/>
      <use xlink:href="#DejaVuSans-29" x="826.513672"/>
     </g>
    </g>
   </g>
   <g id="line2d_31">
    <path d="M 73.832727 295.488 
L 74.036656 295.488 
L 74.444513 282.061041 
L 74.648442 266.987623 
L 74.852371 265.430019 
L 75.0563 266.416037 
L 75.464157 274.475926 
L 75.872015 292.703675 
L 76.075943 286.365837 
L 77.707373 186.009446 
L 78.115231 173.063892 
L 78.523088 167.489937 
L 78.727017 167.337425 
L 78.930946 168.677535 
L 79.338803 175.254749 
L 79.950589 192.532286 
L 81.37809 236.901129 
L 81.989877 250.335382 
L 82.601663 259.557672 
L 83.417378 267.836381 
L 85.252736 289.41341 
L 85.660594 295.37859 
L 86.680238 282.354128 
L 87.088095 278.90671 
L 87.699881 275.627718 
L 87.90381 275.257049 
L 88.107739 275.142334 
L 88.311667 275.295508 
L 88.515596 275.703973 
L 88.719525 275.035576 
L 89.127382 275.916826 
L 89.331311 276.607768 
L 89.53524 276.185379 
L 89.943097 277.059998 
L 90.147026 277.69524 
L 90.350955 277.004298 
L 90.554884 277.235717 
L 90.962741 278.112325 
L 91.16667 276.371044 
L 91.574527 275.498415 
L 91.982385 271.85008 
L 92.594171 266.174009 
L 93.409886 257.458321 
L 94.429529 241.185369 
L 95.041316 230.133607 
L 95.245244 227.795543 
L 95.653102 219.762841 
L 95.857031 219.406098 
L 96.060959 216.090635 
L 96.264888 216.482523 
L 96.468817 214.291665 
L 96.672746 215.385105 
L 96.876674 214.147111 
L 97.080603 215.638406 
L 97.284532 215.072125 
L 97.48846 216.668189 
L 97.692389 216.430139 
L 97.896318 217.791467 
L 98.100247 217.531535 
L 98.304175 216.095277 
L 98.508104 217.936022 
L 98.712033 216.105223 
L 98.915962 216.980505 
L 99.11989 214.04168 
L 99.323819 213.547013 
L 99.527748 209.180549 
L 99.731677 207.595095 
L 99.935605 202.076839 
L 100.139534 200.023242 
L 100.343463 194.310037 
L 100.547392 192.803491 
L 100.955249 183.127646 
L 101.159178 186.279988 
L 101.363106 183.890866 
L 101.567035 188.320986 
L 101.770964 188.385969 
L 101.974893 193.766301 
L 102.178821 195.833161 
L 102.994536 218.187334 
L 103.198465 222.936402 
L 103.810251 247.728103 
L 104.422037 272.329496 
L 104.829895 290.561886 
L 105.033824 290.888791 
L 106.461325 231.638827 
L 107.27704 213.304984 
L 107.480968 210.059146 
L 107.684897 210.366821 
L 107.888826 210.264042 
L 108.092755 210.838943 
L 108.90847 232.608268 
L 109.724185 274.607218 
L 110.132042 292.467614 
L 110.335971 288.440653 
L 112.171329 210.837617 
L 114.006688 126.889449 
L 114.618474 110.263068 
L 115.026332 109.411658 
L 115.23026 110.796858 
L 115.434189 114.213773 
L 115.638118 119.942229 
L 116.453833 173.079806 
L 117.881334 294.702899 
L 119.308835 200.917091 
L 119.920621 173.364273 
L 120.328479 160.283448 
L 120.736336 152.943014 
L 120.940265 151.260086 
L 121.144194 150.856262 
L 121.348122 151.522007 
L 121.75598 154.812935 
L 122.775624 164.356162 
L 123.591339 171.538116 
L 124.203125 179.589385 
L 124.610982 188.148582 
L 125.222768 204.548185 
L 125.834555 226.170967 
L 127.465984 291.343009 
L 127.669913 291.34102 
L 128.689557 257.356868 
L 129.505272 237.134538 
L 130.117058 226.612586 
L 130.728844 219.995587 
L 131.136702 217.302105 
L 131.544559 215.587348 
L 132.156345 215.022393 
L 132.360274 215.057537 
L 132.564203 215.218006 
L 133.583847 219.141524 
L 133.991704 222.119472 
L 134.399561 224.503289 
L 134.807419 227.891029 
L 136.23492 236.093482 
L 136.642778 236.799676 
L 136.846706 238.217367 
L 137.050635 238.518411 
L 137.254564 238.450776 
L 137.458492 239.418228 
L 137.662421 239.119173 
L 137.86635 238.285666 
L 138.070279 238.666281 
L 138.274207 237.628541 
L 138.478136 235.994682 
L 138.682065 236.027836 
L 139.089922 232.836372 
L 139.293851 233.276002 
L 139.701709 230.300707 
L 139.905637 231.591748 
L 140.109566 230.85903 
L 140.313495 232.093709 
L 140.721352 232.499521 
L 140.925281 234.966888 
L 141.333138 236.46813 
L 141.537067 239.878414 
L 141.944925 241.945936 
L 142.148853 246.071035 
L 142.352782 247.429048 
L 142.76064 252.848503 
L 142.964568 254.130923 
L 143.168497 258.126719 
L 143.576354 261.109308 
L 143.780283 265.599771 
L 143.984212 267.328453 
L 144.392069 273.383813 
L 144.595998 274.992475 
L 145.003856 281.441712 
L 145.207784 282.940301 
L 145.411713 287.720535 
L 145.615642 289.756892 
L 145.819571 293.886632 
L 146.023499 294.432357 
L 146.227428 292.383401 
L 146.635286 284.637818 
L 146.839214 282.255327 
L 147.247072 274.964625 
L 147.654929 269.368125 
L 147.858858 268.236889 
L 148.062787 265.660112 
L 148.266715 265.02288 
L 148.470644 265.302705 
L 148.674573 263.562087 
L 148.878502 264.153566 
L 149.08243 263.533574 
L 149.286359 264.115107 
L 149.490288 265.326576 
L 149.694217 264.706585 
L 150.102074 266.410733 
L 150.306003 265.162793 
L 150.71386 265.475109 
L 150.917789 263.180809 
L 151.325646 261.174291 
L 151.733504 255.575139 
L 151.937433 253.245695 
L 152.957076 234.141338 
L 154.588506 205.236475 
L 154.996364 201.838126 
L 155.200292 201.096126 
L 155.404221 201.021196 
L 155.60815 201.600076 
L 156.016007 204.801486 
L 156.423865 210.034612 
L 157.035651 221.588998 
L 158.259223 252.184084 
L 159.074938 270.431725 
L 159.686725 279.478959 
L 160.298511 284.729988 
L 160.706368 286.430157 
L 161.318154 287.915484 
L 161.522083 288.312013 
L 161.726012 288.355778 
L 162.541727 289.501601 
L 162.745656 289.363015 
L 162.949584 289.530777 
L 163.153513 295.488 
L 163.357442 289.857682 
L 163.56137 290.00091 
L 163.765299 289.517516 
L 163.969228 289.351742 
L 164.173157 295.488 
L 164.377085 288.880284 
L 164.581014 288.553379 
L 164.988872 286.599246 
L 165.804587 282.795084 
L 166.212444 281.106851 
L 167.028159 279.120889 
L 167.232088 279.236267 
L 167.639945 280.245494 
L 167.843874 279.882119 
L 168.659589 282.256653 
L 168.863518 281.443039 
L 169.271375 281.073696 
L 169.679233 280.228253 
L 170.08709 276.937325 
L 170.698876 272.853339 
L 171.106734 268.377465 
L 171.922449 263.522302 
L 172.126377 263.432121 
L 172.330306 263.782897 
L 172.534235 263.489147 
L 172.738164 264.365092 
L 173.34995 269.224234 
L 174.165665 280.398668 
L 174.98138 294.138607 
L 175.185308 293.342896 
L 175.797095 284.333459 
L 176.204952 279.2734 
L 176.816738 272.71409 
L 177.224596 268.428523 
L 177.428524 267.611593 
L 177.836382 263.914853 
L 178.040311 263.589937 
L 178.244239 262.003157 
L 178.448168 261.548276 
L 178.856026 258.677085 
L 179.059954 258.680401 
L 179.263883 257.338965 
L 179.467812 257.224913 
L 179.671741 255.917294 
L 179.875669 255.522754 
L 180.283527 252.733124 
L 180.487455 252.778878 
L 180.691384 251.033619 
L 180.895313 250.794905 
L 181.099242 248.916364 
L 181.30317 248.373955 
L 181.507099 246.454302 
L 181.711028 245.728216 
L 182.9346 232.506815 
L 183.138529 228.277612 
L 183.342458 226.380504 
L 183.546386 222.054489 
L 183.750315 220.992215 
L 183.954244 216.491143 
L 184.158173 216.389027 
L 184.362101 215.436826 
L 184.56603 212.777825 
L 184.769959 212.591496 
L 184.973888 209.838336 
L 185.177816 210.756056 
L 185.381745 207.800653 
L 185.585674 209.506127 
L 185.789603 205.93007 
L 185.993531 207.882877 
L 186.19746 207.995603 
L 186.401389 204.84724 
L 186.605317 204.871774 
L 186.809246 200.187026 
L 187.013175 200.324949 
L 187.217104 198.426515 
L 187.421032 193.859798 
L 187.624961 192.034304 
L 187.82889 186.372821 
L 188.032819 185.608275 
L 188.236747 179.84998 
L 188.644605 182.616402 
L 188.848534 180.917559 
L 189.868177 198.287266 
L 191.295678 258.941659 
L 191.499607 260.681614 
L 191.907465 275.408234 
L 192.111393 272.735308 
L 192.315322 277.701871 
L 192.519251 279.3291 
L 192.72318 272.62192 
L 192.927108 273.357289 
L 193.131037 270.583573 
L 193.334966 260.440248 
L 193.538894 257.199052 
L 193.742823 250.526353 
L 194.354609 215.050906 
L 194.558538 211.124073 
L 194.762467 204.997098 
L 194.966396 192.074753 
L 195.170324 190.375247 
L 195.374253 179.326137 
L 195.782111 184.325854 
L 195.986039 181.603197 
L 196.189968 187.479522 
L 196.393897 185.745535 
L 196.801754 200.809006 
L 197.005683 201.004619 
L 197.41354 215.08605 
L 197.617469 215.642385 
L 197.821398 221.852909 
L 198.025327 219.010894 
L 198.433184 228.269654 
L 198.637113 224.320939 
L 198.841042 227.01442 
L 199.04497 226.968004 
L 199.248899 221.598281 
L 199.452828 221.752119 
L 199.656757 214.03969 
L 199.860685 215.113237 
L 200.064614 214.977303 
L 200.268543 210.427163 
L 200.6764 215.071462 
L 200.880329 214.692836 
L 201.084258 219.409413 
L 201.288186 220.608947 
L 203.327474 294.530494 
L 204.347117 260.594749 
L 205.978547 219.359681 
L 206.182476 218.973098 
L 206.386405 212.346815 
L 206.590333 212.90315 
L 206.794262 206.250343 
L 206.998191 207.64549 
L 207.20212 206.721139 
L 207.406048 203.052911 
L 207.609977 202.700146 
L 207.813906 198.632737 
L 208.017835 198.988155 
L 208.221763 195.363691 
L 208.425692 197.035347 
L 208.629621 193.786857 
L 208.83355 196.90936 
L 209.037478 194.810009 
L 209.241407 199.069052 
L 209.445336 197.667274 
L 209.649265 202.239297 
L 209.853193 200.819616 
L 210.261051 207.595095 
L 210.464979 207.18663 
L 210.668908 209.163308 
L 210.872837 207.708484 
L 211.076766 209.758102 
L 211.280694 207.573213 
L 211.484623 209.679857 
L 211.688552 206.884923 
L 211.892481 209.197789 
L 212.096409 205.898904 
L 212.300338 208.540001 
L 212.504267 209.487561 
L 212.708196 207.896802 
L 212.912124 209.273382 
L 213.116053 207.312617 
L 213.319982 209.029364 
L 213.52391 206.894206 
L 213.727839 208.997535 
L 213.931768 206.784133 
L 214.135697 209.621505 
L 214.339625 207.669361 
L 214.543554 211.268627 
L 214.747483 209.781311 
L 215.15534 217.197337 
L 215.359269 218.258948 
L 215.563198 221.924523 
L 215.767127 223.189703 
L 215.971055 227.140408 
L 216.174984 228.535555 
L 216.378913 232.687176 
L 216.582841 234.10752 
L 216.78677 238.207421 
L 216.990699 239.705347 
L 217.194628 243.845696 
L 217.398556 245.5147 
L 217.806414 251.370469 
L 218.4182 261.447486 
L 218.826058 268.095651 
L 219.437844 278.713087 
L 220.253559 293.539834 
L 220.457487 293.936364 
L 221.477131 277.960477 
L 222.088917 271.192292 
L 222.496775 268.969606 
L 222.700704 268.677846 
L 222.904632 268.709011 
L 223.108561 269.212961 
L 223.31249 270.12405 
L 224.128205 276.758954 
L 225.147848 285.16564 
L 226.167492 291.247524 
L 226.779278 294.938296 
L 226.983207 294.607413 
L 227.187136 295.488 
L 227.391064 291.31317 
L 228.206779 285.076785 
L 228.614637 282.923061 
L 228.818566 282.625996 
L 229.022494 282.528521 
L 229.226423 282.893222 
L 229.63428 285.082753 
L 230.246067 291.219674 
L 230.449995 293.665159 
L 230.653924 294.742021 
L 231.469639 285.695451 
L 231.877497 283.024514 
L 232.285354 281.764638 
L 232.489283 281.580962 
L 232.89714 282.186365 
L 233.508926 284.122595 
L 234.120713 286.353901 
L 234.52857 287.117784 
L 234.732499 287.356497 
L 235.140356 287.2756 
L 235.548214 287.060758 
L 235.956071 287.262338 
L 236.16 287.560067 
L 236.567857 288.942614 
L 236.975715 291.762747 
L 237.383572 294.940286 
L 239.218931 272.635182 
L 239.626788 269.925786 
L 240.238575 267.707078 
L 241.05429 265.296074 
L 241.666076 261.901041 
L 242.481791 254.524137 
L 242.889648 250.947417 
L 243.909292 240.457957 
L 244.113221 239.774309 
L 244.317149 237.464094 
L 244.521078 236.429007 
L 245.132864 231.738291 
L 245.540722 227.99646 
L 245.744651 228.017016 
L 246.152508 224.944246 
L 246.356437 226.056252 
L 246.560365 225.194232 
L 246.764294 226.525721 
L 246.968223 226.5297 
L 247.172152 226.116593 
L 247.37608 228.538207 
L 247.580009 228.82201 
L 247.783938 231.224394 
L 247.987867 232.003528 
L 248.395724 235.324958 
L 248.599653 235.820288 
L 248.803582 239.019709 
L 249.00751 239.988487 
L 249.211439 243.01882 
L 249.415368 244.230953 
L 249.619296 246.738106 
L 249.823225 247.846133 
L 250.027154 247.920399 
L 250.231083 250.442803 
L 250.435011 249.923602 
L 250.63894 251.411581 
L 250.842869 250.021076 
L 251.046798 250.473968 
L 251.250726 248.22078 
L 251.454655 247.673729 
L 251.658584 244.599632 
L 251.862513 243.518792 
L 252.066441 239.98053 
L 252.27037 238.56947 
L 252.474299 234.91583 
L 252.678228 233.628768 
L 252.882156 229.89622 
L 253.086085 228.8797 
L 253.290014 225.494613 
L 253.493942 225.131901 
L 253.697871 221.98619 
L 253.9018 222.401949 
L 254.105729 222.324367 
L 254.309657 221.42654 
L 254.513586 222.362827 
L 254.717515 221.863518 
L 254.921444 223.867384 
L 255.125372 224.14323 
L 255.329301 227.166932 
L 255.53323 227.50113 
L 255.941087 232.839025 
L 256.145016 232.922574 
L 256.348945 234.395303 
L 256.552873 232.703091 
L 256.756802 232.739561 
L 256.960731 230.965125 
L 257.368588 222.012051 
L 258.388232 184.272807 
L 259.203947 158.512991 
L 259.407876 160.719763 
L 259.611804 155.464755 
L 260.631448 197.661307 
L 261.039306 232.180574 
L 261.243234 239.974563 
L 261.651092 272.934899 
L 261.855021 278.783375 
L 262.058949 295.488 
L 262.262878 284.452152 
L 262.466807 282.062367 
L 262.874664 261.054935 
L 263.078593 261.411679 
L 263.48645 250.223983 
L 263.690379 254.887512 
L 263.894308 253.292111 
L 264.098237 255.175294 
L 264.302165 266.271483 
L 264.506094 269.791841 
L 264.710023 276.768237 
L 264.913952 293.287859 
L 265.11788 295.488 
L 266.137524 221.362883 
L 267.157168 169.538892 
L 267.361096 170.34256 
L 267.565025 172.104397 
L 267.768954 171.140924 
L 267.972883 181.304142 
L 268.176811 184.902745 
L 269.400384 287.787507 
L 270.420027 163.549178 
L 271.235742 93.633372 
L 271.6436 76.135026 
L 272.051457 74.344676 
L 272.459315 89.746325 
L 273.071101 148.23771 
L 274.090745 281.216261 
L 274.294673 279.297271 
L 274.498602 261.74654 
L 275.110388 179.487932 
L 275.314317 164.901224 
L 275.722175 121.812813 
L 275.926103 114.475695 
L 276.333961 80.852928 
L 276.537889 78.120988 
L 276.945747 57.648671 
L 277.149676 53.568 
L 277.353604 55.743606 
L 277.557533 55.84307 
L 277.761462 60.070285 
L 278.373248 91.408034 
L 279.59682 211.098875 
L 280.208607 279.488905 
L 280.412535 286.688763 
L 281.024322 240.378386 
L 281.432179 223.423112 
L 281.636108 224.670389 
L 282.043965 230.589815 
L 282.655751 262.595299 
L 283.063609 289.813918 
L 283.267538 285.859234 
L 284.083253 242.610355 
L 284.49111 233.571079 
L 284.695039 232.268765 
L 284.898968 234.08166 
L 285.102896 236.958818 
L 285.510754 247.787781 
L 286.938255 290.173314 
L 287.142184 293.645266 
L 287.346112 294.801699 
L 287.75397 292.456341 
L 287.957899 292.539891 
L 288.161827 293.067049 
L 288.365756 295.488 
L 288.569685 294.701572 
L 288.773614 293.427109 
L 289.589328 286.015061 
L 289.793257 285.462705 
L 289.997186 284.059601 
L 290.201115 283.832824 
L 290.608972 282.545761 
L 290.812901 283.247313 
L 291.01683 283.38391 
L 291.220758 283.314286 
L 291.424687 284.67031 
L 291.628616 285.162987 
L 291.832545 285.353295 
L 292.036473 286.90891 
L 292.240402 287.457287 
L 292.444331 287.587253 
L 292.648259 287.236477 
L 292.852188 289.43264 
L 293.056117 289.368983 
L 293.260046 288.786788 
L 293.463974 291.015441 
L 293.667903 290.996875 
L 293.871832 290.581116 
L 294.279689 295.488 
L 294.687547 293.242106 
L 294.891476 295.488 
L 295.503262 282.659813 
L 295.70719 279.421933 
L 298.154335 209.808497 
L 299.581836 169.534251 
L 300.193623 158.703962 
L 300.60148 154.675012 
L 300.805409 153.540461 
L 301.213266 154.974067 
L 301.417195 156.116575 
L 302.23291 167.548289 
L 302.640767 176.559715 
L 303.048625 185.724316 
L 304.272197 210.391356 
L 304.680055 221.413942 
L 304.883984 225.544344 
L 305.699698 252.877679 
L 306.719342 283.143871 
L 307.1272 294.043785 
L 307.331128 292.622114 
L 308.146843 275.329326 
L 308.962558 255.401409 
L 309.778273 233.48355 
L 310.797917 201.603391 
L 311.817561 167.830766 
L 312.633275 146.669497 
L 313.041133 139.605573 
L 313.44899 135.348519 
L 313.652919 134.003768 
L 313.856848 133.51109 
L 314.060777 133.708691 
L 314.264705 134.584637 
L 314.672563 138.38283 
L 315.08042 144.867874 
L 315.692206 159.184041 
L 316.507921 184.508205 
L 318.955066 265.982375 
L 319.566852 277.876927 
L 320.382567 289.08319 
L 320.994354 295.488 
L 321.810069 280.628761 
L 323.645427 245.657265 
L 324.257213 240.65158 
L 324.461142 239.766351 
L 324.665071 240.464588 
L 325.072928 240.938036 
L 325.480786 243.490942 
L 325.888643 246.09159 
L 326.092572 246.626706 
L 326.296501 247.953554 
L 326.500429 248.127284 
L 326.704358 247.56233 
L 326.908287 248.022516 
L 327.112216 246.92775 
L 327.316144 246.519948 
L 327.927931 241.422093 
L 328.335788 237.408395 
L 328.743646 232.013474 
L 328.947574 231.637501 
L 329.151503 229.343201 
L 329.355432 229.670769 
L 329.55936 228.222575 
L 329.763289 229.018286 
L 329.967218 228.320049 
L 330.171147 229.465873 
L 330.375075 229.318667 
L 330.579004 230.697899 
L 330.782933 230.832507 
L 330.986862 229.678063 
L 331.19079 232.024084 
L 331.394719 230.872955 
L 331.598648 233.120839 
L 331.802577 232.109623 
L 332.006505 233.890689 
L 332.210434 232.374197 
L 332.414363 233.403979 
L 332.618291 231.325184 
L 332.82222 231.738291 
L 333.026149 229.175439 
L 333.230078 228.784877 
L 333.434006 225.580151 
L 333.637935 224.6127 
L 333.841864 220.974311 
L 334.045793 219.53739 
L 334.249721 215.84927 
L 334.45365 214.575469 
L 334.657579 211.223537 
L 334.861508 210.187123 
L 335.065436 207.299355 
L 335.269365 207.203207 
L 335.473294 205.487787 
L 335.677222 206.421421 
L 335.881151 205.761644 
L 336.08508 208.018811 
L 336.289009 208.948466 
L 337.104724 224.657127 
L 337.71651 243.233662 
L 337.920439 247.759931 
L 338.328296 259.298403 
L 338.532225 266.009562 
L 338.736153 268.398684 
L 338.940082 273.417631 
L 339.144011 273.889752 
L 339.34794 277.044746 
L 339.551868 275.174826 
L 339.755797 275.747074 
L 339.959726 273.807529 
L 340.775441 253.758929 
L 341.387227 232.423266 
L 341.591156 228.824663 
L 341.795085 221.283975 
L 341.999013 220.260161 
L 342.202942 214.539662 
L 342.406871 216.99642 
L 342.610799 214.300286 
L 342.814728 220.541975 
L 343.018657 221.201752 
L 343.222586 230.887543 
L 343.426514 235.212896 
L 344.446158 292.632061 
L 344.650087 286.652956 
L 345.66973 224.48207 
L 346.485445 183.199923 
L 346.689374 182.235124 
L 346.893303 175.220269 
L 347.097232 177.632599 
L 347.30116 175.543195 
L 347.505089 179.788312 
L 347.709018 180.870479 
L 347.912947 180.881752 
L 348.116875 188.238763 
L 348.320804 189.442939 
L 348.524733 195.931961 
L 348.728661 197.343685 
L 348.93259 202.781043 
L 349.136519 204.282948 
L 349.340448 209.118881 
L 349.544376 211.069699 
L 349.952234 218.281493 
L 350.156163 219.990282 
L 350.360091 226.853289 
L 350.56402 229.882295 
L 351.175806 249.047657 
L 351.787593 268.329059 
L 352.603307 293.764623 
L 352.807236 292.213649 
L 353.419022 281.573668 
L 353.82688 277.764865 
L 354.234737 275.975178 
L 354.438666 275.635675 
L 354.642595 275.668166 
L 354.846524 275.446694 
L 355.050452 275.686733 
L 355.254381 275.659546 
L 355.662238 276.041487 
L 356.070096 275.470565 
L 356.274025 275.189414 
L 356.885811 272.063596 
L 357.701526 263.467265 
L 360.148671 225.556943 
L 360.760457 219.626907 
L 361.168314 218.025539 
L 361.372243 218.091185 
L 361.576172 218.668076 
L 361.984029 221.178544 
L 362.595815 227.979883 
L 363.615459 241.860397 
L 364.023317 244.924548 
L 364.227245 245.510721 
L 364.431174 245.378766 
L 364.839032 243.015505 
L 365.450818 234.289871 
L 365.858675 227.241861 
L 366.062604 223.144613 
L 366.266533 221.341001 
L 366.470461 218.27022 
L 366.67439 217.164845 
L 367.082248 213.213477 
L 367.286176 215.353276 
L 367.490105 214.885133 
L 367.694034 218.276851 
L 367.897963 219.242977 
L 368.509749 229.241085 
L 368.713677 231.441889 
L 368.917606 232.067185 
L 369.121535 237.085469 
L 369.325464 237.314236 
L 369.529392 241.245048 
L 369.733321 240.668157 
L 369.93725 243.323179 
L 370.141179 242.03678 
L 370.345107 243.524096 
L 370.549036 241.611738 
L 370.752965 242.140886 
L 370.956894 239.96329 
L 371.160822 239.806137 
L 371.364751 237.576157 
L 371.56868 237.052977 
L 371.976537 232.282027 
L 372.180466 232.29993 
L 372.384395 229.5103 
L 372.588323 229.434708 
L 372.792252 226.166325 
L 372.996181 226.204121 
L 373.20011 223.514618 
L 373.404038 224.137262 
L 373.607967 221.817765 
L 373.811896 222.586289 
L 374.015825 220.553911 
L 374.219753 221.40068 
L 374.423682 219.56325 
L 374.627611 220.122901 
L 374.83154 218.53612 
L 375.035468 215.196124 
L 375.239397 217.365762 
L 375.443326 214.174298 
L 375.647254 215.938124 
L 375.851183 212.710853 
L 376.055112 213.944205 
L 376.259041 210.922493 
L 376.462969 211.874693 
L 376.666898 209.22365 
L 376.870827 210.103573 
L 377.074756 208.032736 
L 377.278684 208.969685 
L 377.482613 207.80198 
L 377.686542 209.068486 
L 377.890471 208.886799 
L 378.094399 207.853038 
L 378.298328 211.741412 
L 378.502257 212.036488 
L 378.706185 216.550158 
L 378.910114 218.081239 
L 379.5219 230.913404 
L 379.725829 234.342255 
L 380.133687 243.73496 
L 380.337615 247.096176 
L 380.949402 262.626464 
L 381.561188 275.381047 
L 382.172974 286.879071 
L 382.580831 293.510658 
L 382.78476 294.378646 
L 384.008333 280.724246 
L 384.824048 271.921031 
L 387.475121 237.326171 
L 388.290836 230.66806 
L 388.902622 227.678839 
L 389.31048 226.826765 
L 389.514408 226.766424 
L 389.718337 226.83207 
L 389.922266 227.267059 
L 390.330123 228.971206 
L 390.94191 233.206378 
L 391.553696 239.704684 
L 392.165482 247.820272 
L 394.204769 278.929255 
L 394.612627 281.901236 
L 394.816556 282.651856 
L 395.020484 282.950248 
L 395.224413 282.773865 
L 396.040128 279.937819 
L 396.447985 278.656061 
L 396.651914 278.3643 
L 396.855843 278.786027 
L 397.2637 282.417121 
L 398.079415 295.488 
L 398.283344 287.153591 
L 398.487273 265.052056 
L 398.487273 265.052056 
" clip-path="url(#p81a5023661)" style="fill: none; stroke: #1f77b4; stroke-width: 1.5; stroke-linecap: square"/>
   </g>
   <g id="patch_3">
    <path d="M 57.6 307.584 
L 57.6 41.472 
" style="fill: none; stroke: #000000; stroke-width: 0.8; stroke-linejoin: miter; stroke-linecap: square"/>
   </g>
   <g id="patch_4">
    <path d="M 414.72 307.584 
L 414.72 41.472 
" style="fill: none; stroke: #000000; stroke-width: 0.8; stroke-linejoin: miter; stroke-linecap: square"/>
   </g>
   <g id="patch_5">
    <path d="M 57.6 307.584 
L 414.72 307.584 
" style="fill: none; stroke: #000000; stroke-width: 0.8; stroke-linejoin: miter; stroke-linecap: square"/>
   </g>
   <g id="patch_6">
    <path d="M 57.6 41.472 
L 414.72 41.472 
" style="fill: none; stroke: #000000; stroke-width: 0.8; stroke-linejoin: miter; stroke-linecap: square"/>
   </g>
   <g id="text_18">
    <!-- Tracking error vs Time -->
    <g transform="translate(169.584375 35.472) scale(0.12 -0.12)">
     <defs>
      <path id="DejaVuSans-76" d="M 191 3500 
L 800 3500 
L 1894 563 
L 2988 3500 
L 3597 3500 
L 2284 0 
L 1503 0 
L 191 3500 
z
" transform="scale(0.015625)"/>
     </defs>
     <use xlink:href="#DejaVuSans-54"/>
     <use xlink:href="#DejaVuSans-72" x="46.333984"/>
     <use xlink:href="#DejaVuSans-61" x="87.447266"/>
     <use xlink:href="#DejaVuSans-63" x="148.726562"/>
     <use xlink:href="#DejaVuSans-6b" x="203.707031"/>
     <use xlink:href="#DejaVuSans-69" x="261.617188"/>
     <use xlink:href="#DejaVuSans-6e" x="289.400391"/>
     <use xlink:href="#DejaVuSans-67" x="352.779297"/>
     <use xlink:href="#DejaVuSans-20" x="416.255859"/>
     <use xlink:href="#DejaVuSans-65" x="448.042969"/>
     <use xlink:href="#DejaVuSans-72" x="509.566406"/>
     <use xlink:href="#DejaVuSans-72" x="548.929688"/>
     <use xlink:href="#DejaVuSans-6f" x="587.792969"/>
     <use xlink:href="#DejaVuSans-72" x="648.974609"/>
     <use xlink:href="#DejaVuSans-20" x="690.087891"/>
     <use xlink:href="#DejaVuSans-76" x="721.875"/>
     <use xlink:href="#DejaVuSans-73" x="781.054688"/>
     <use xlink:href="#DejaVuSans-20" x="833.154297"/>
     <use xlink:href="#DejaVuSans-54" x="864.941406"/>
     <use xlink:href="#DejaVuSans-69" x="922.900391"/>
     <use xlink:href="#DejaVuSans-6d" x="950.683594"/>
     <use xlink:href="#DejaVuSans-65" x="1048.095703"/>
    </g>
   </g>
   <g id="legend_1">
    <g id="patch_7">
     <path d="M 311.00125 64.150125 
L 407.72 64.150125 
Q 409.72 64.150125 409.72 62.150125 
L 409.72 48.472 
Q 409.72 46.472 407.72 46.472 
L 311.00125 46.472 
Q 309.00125 46.472 309.00125 48.472 
L 309.00125 62.150125 
Q 309.00125 64.150125 311.00125 64.150125 
z
" style="fill: #ffffff; opacity: 0.8; stroke: #cccccc; stroke-linejoin: miter"/>
    </g>
    <g id="line2d_32">
     <path d="M 313.00125 54.570438 
L 323.00125 54.570438 
L 333.00125 54.570438 
" style="fill: none; stroke: #1f77b4; stroke-width: 1.5; stroke-linecap: square"/>
    </g>
    <g id="text_19">
     <!-- Actual speed -->
     <g transform="translate(341.00125 58.070438) scale(0.1 -0.1)">
      <defs>
       <path id="DejaVuSans-41" d="M 2188 4044 
L 1331 1722 
L 3047 1722 
L 2188 4044 
z
M 1831 4666 
L 2547 4666 
L 4325 0 
L 3669 0 
L 3244 1197 
L 1141 1197 
L 716 0 
L 50 0 
L 1831 4666 
z
" transform="scale(0.015625)"/>
       <path id="DejaVuSans-74" d="M 1172 4494 
L 1172 3500 
L 2356 3500 
L 2356 3053 
L 1172 3053 
L 1172 1153 
Q 1172 725 1289 603 
Q 1406 481 1766 481 
L 2356 481 
L 2356 0 
L 1766 0 
Q 1100 0 847 248 
Q 594 497 594 1153 
L 594 3053 
L 172 3053 
L 172 3500 
L 594 3500 
L 594 4494 
L 1172 4494 
z
" transform="scale(0.015625)"/>
       <path id="DejaVuSans-75" d="M 544 1381 
L 544 3500 
L 1119 3500 
L 1119 1403 
Q 1119 906 1312 657 
Q 1506 409 1894 409 
Q 2359 409 2629 706 
Q 2900 1003 2900 1516 
L 2900 3500 
L 3475 3500 
L 3475 0 
L 2900 0 
L 2900 538 
Q 2691 219 2414 64 
Q 2138 -91 1772 -91 
Q 1169 -91 856 284 
Q 544 659 544 1381 
z
M 1991 3584 
L 1991 3584 
z
" transform="scale(0.015625)"/>
       <path id="DejaVuSans-6c" d="M 603 4863 
L 1178 4863 
L 1178 0 
L 603 0 
L 603 4863 
z
" transform="scale(0.015625)"/>
       <path id="DejaVuSans-70" d="M 1159 525 
L 1159 -1331 
L 581 -1331 
L 581 3500 
L 1159 3500 
L 1159 2969 
Q 1341 3281 1617 3432 
Q 1894 3584 2278 3584 
Q 2916 3584 3314 3078 
Q 3713 2572 3713 1747 
Q 3713 922 3314 415 
Q 2916 -91 2278 -91 
Q 1894 -91 1617 61 
Q 1341 213 1159 525 
z
M 3116 1747 
Q 3116 2381 2855 2742 
Q 2594 3103 2138 3103 
Q 1681 3103 1420 2742 
Q 1159 2381 1159 1747 
Q 1159 1113 1420 752 
Q 1681 391 2138 391 
Q 2594 391 2855 752 
Q 3116 1113 3116 1747 
z
" transform="scale(0.015625)"/>
       <path id="DejaVuSans-64" d="M 2906 2969 
L 2906 4863 
L 3481 4863 
L 3481 0 
L 2906 0 
L 2906 525 
Q 2725 213 2448 61 
Q 2172 -91 1784 -91 
Q 1150 -91 751 415 
Q 353 922 353 1747 
Q 353 2572 751 3078 
Q 1150 3584 1784 3584 
Q 2172 3584 2448 3432 
Q 2725 3281 2906 2969 
z
M 947 1747 
Q 947 1113 1208 752 
Q 1469 391 1925 391 
Q 2381 391 2643 752 
Q 2906 1113 2906 1747 
Q 2906 2381 2643 2742 
Q 2381 3103 1925 3103 
Q 1469 3103 1208 2742 
Q 947 2381 947 1747 
z
" transform="scale(0.015625)"/>
      </defs>
      <use xlink:href="#DejaVuSans-41"/>
      <use xlink:href="#DejaVuSans-63" x="66.658203"/>
      <use xlink:href="#DejaVuSans-74" x="121.638672"/>
      <use xlink:href="#DejaVuSans-75" x="160.847656"/>
      <use xlink:href="#DejaVuSans-61" x="224.226562"/>
      <use xlink:href="#DejaVuSans-6c" x="285.505859"/>
      <use xlink:href="#DejaVuSans-20" x="313.289062"/>
      <use xlink:href="#DejaVuSans-73" x="345.076172"/>
      <use xlink:href="#DejaVuSans-70" x="397.175781"/>
      <use xlink:href="#DejaVuSans-65" x="460.652344"/>
      <use xlink:href="#DejaVuSans-65" x="522.175781"/>
      <use xlink:href="#DejaVuSans-64" x="583.699219"/>
     </g>
    </g>
   </g>
  </g>
 </g>
 <defs>
  <clipPath id="p81a5023661">
   <rect x="57.6" y="41.472" width="357.12" height="266.112"/>
  </clipPath>
 </defs>
</svg>
