<?xml version="1.0" encoding="utf-8" standalone="no"?>
<!DOCTYPE svg PUBLIC "-//W3C//DTD SVG 1.1//EN"
  "http://www.w3.org/Graphics/SVG/1.1/DTD/svg11.dtd">
<svg xmlns:xlink="http://www.w3.org/1999/xlink" width="460.8pt" height="345.6pt" viewBox="0 0 460.8 345.6" xmlns="http://www.w3.org/2000/svg" version="1.1">
 <metadata>
  <rdf:RDF xmlns:dc="http://purl.org/dc/elements/1.1/" xmlns:cc="http://creativecommons.org/ns#" xmlns:rdf="http://www.w3.org/1999/02/22-rdf-syntax-ns#">
   <cc:Work>
    <dc:type rdf:resource="http://purl.org/dc/dcmitype/StillImage"/>
    <dc:date>2024-01-30T20:59:33.351230</dc:date>
    <dc:format>image/svg+xml</dc:format>
    <dc:creator>
     <cc:Agent>
      <dc:title>Matplotlib v3.7.1, https://matplotlib.org/</dc:title>
     </cc:Agent>
    </dc:creator>
   </cc:Work>
  </rdf:RDF>
 </metadata>
 <defs>
  <style type="text/css">*{stroke-linejoin: round; stroke-linecap: butt}</style>
 </defs>
 <g id="figure_1">
  <g id="patch_1">
   <path d="M 0 345.6 
L 460.8 345.6 
L 460.8 0 
L 0 0 
z
" style="fill: #ffffff"/>
  </g>
  <g id="axes_1">
   <g id="patch_2">
    <path d="M 57.6 307.584 
L 414.72 307.584 
L 414.72 41.472 
L 57.6 41.472 
z
" style="fill: #ffffff"/>
   </g>
   <g id="matplotlib.axis_1">
    <g id="xtick_1">
     <g id="line2d_1">
      <path d="M 73.832727 307.584 
L 73.832727 41.472 
" clip-path="url(#p7f9ac14cd2)" style="fill: none; stroke: #b0b0b0; stroke-width: 0.8; stroke-linecap: square"/>
     </g>
     <g id="line2d_2">
      <defs>
       <path id="m769d55b96b" d="M 0 0 
L 0 3.5 
" style="stroke: #000000; stroke-width: 0.8"/>
      </defs>
      <g>
       <use xlink:href="#m769d55b96b" x="73.832727" y="307.584" style="stroke: #000000; stroke-width: 0.8"/>
      </g>
     </g>
     <g id="text_1">
      <!-- 0 -->
      <g transform="translate(70.651477 322.182437) scale(0.1 -0.1)">
       <defs>
        <path id="DejaVuSans-30" d="M 2034 4250 
Q 1547 4250 1301 3770 
Q 1056 3291 1056 2328 
Q 1056 1369 1301 889 
Q 1547 409 2034 409 
Q 2525 409 2770 889 
Q 3016 1369 3016 2328 
Q 3016 3291 2770 3770 
Q 2525 4250 2034 4250 
z
M 2034 4750 
Q 2819 4750 3233 4129 
Q 3647 3509 3647 2328 
Q 3647 1150 3233 529 
Q 2819 -91 2034 -91 
Q 1250 -91 836 529 
Q 422 1150 422 2328 
Q 422 3509 836 4129 
Q 1250 4750 2034 4750 
z
" transform="scale(0.015625)"/>
       </defs>
       <use xlink:href="#DejaVuSans-30"/>
      </g>
     </g>
    </g>
    <g id="xtick_2">
     <g id="line2d_3">
      <path d="M 117.883548 307.584 
L 117.883548 41.472 
" clip-path="url(#p7f9ac14cd2)" style="fill: none; stroke: #b0b0b0; stroke-width: 0.8; stroke-linecap: square"/>
     </g>
     <g id="line2d_4">
      <g>
       <use xlink:href="#m769d55b96b" x="117.883548" y="307.584" style="stroke: #000000; stroke-width: 0.8"/>
      </g>
     </g>
     <g id="text_2">
      <!-- 2 -->
      <g transform="translate(114.702298 322.182437) scale(0.1 -0.1)">
       <defs>
        <path id="DejaVuSans-32" d="M 1228 531 
L 3431 531 
L 3431 0 
L 469 0 
L 469 531 
Q 828 903 1448 1529 
Q 2069 2156 2228 2338 
Q 2531 2678 2651 2914 
Q 2772 3150 2772 3378 
Q 2772 3750 2511 3984 
Q 2250 4219 1831 4219 
Q 1534 4219 1204 4116 
Q 875 4013 500 3803 
L 500 4441 
Q 881 4594 1212 4672 
Q 1544 4750 1819 4750 
Q 2544 4750 2975 4387 
Q 3406 4025 3406 3419 
Q 3406 3131 3298 2873 
Q 3191 2616 2906 2266 
Q 2828 2175 2409 1742 
Q 1991 1309 1228 531 
z
" transform="scale(0.015625)"/>
       </defs>
       <use xlink:href="#DejaVuSans-32"/>
      </g>
     </g>
    </g>
    <g id="xtick_3">
     <g id="line2d_5">
      <path d="M 161.934368 307.584 
L 161.934368 41.472 
" clip-path="url(#p7f9ac14cd2)" style="fill: none; stroke: #b0b0b0; stroke-width: 0.8; stroke-linecap: square"/>
     </g>
     <g id="line2d_6">
      <g>
       <use xlink:href="#m769d55b96b" x="161.934368" y="307.584" style="stroke: #000000; stroke-width: 0.8"/>
      </g>
     </g>
     <g id="text_3">
      <!-- 4 -->
      <g transform="translate(158.753118 322.182437) scale(0.1 -0.1)">
       <defs>
        <path id="DejaVuSans-34" d="M 2419 4116 
L 825 1625 
L 2419 1625 
L 2419 4116 
z
M 2253 4666 
L 3047 4666 
L 3047 1625 
L 3713 1625 
L 3713 1100 
L 3047 1100 
L 3047 0 
L 2419 0 
L 2419 1100 
L 313 1100 
L 313 1709 
L 2253 4666 
z
" transform="scale(0.015625)"/>
       </defs>
       <use xlink:href="#DejaVuSans-34"/>
      </g>
     </g>
    </g>
    <g id="xtick_4">
     <g id="line2d_7">
      <path d="M 205.985188 307.584 
L 205.985188 41.472 
" clip-path="url(#p7f9ac14cd2)" style="fill: none; stroke: #b0b0b0; stroke-width: 0.8; stroke-linecap: square"/>
     </g>
     <g id="line2d_8">
      <g>
       <use xlink:href="#m769d55b96b" x="205.985188" y="307.584" style="stroke: #000000; stroke-width: 0.8"/>
      </g>
     </g>
     <g id="text_4">
      <!-- 6 -->
      <g transform="translate(202.803938 322.182437) scale(0.1 -0.1)">
       <defs>
        <path id="DejaVuSans-36" d="M 2113 2584 
Q 1688 2584 1439 2293 
Q 1191 2003 1191 1497 
Q 1191 994 1439 701 
Q 1688 409 2113 409 
Q 2538 409 2786 701 
Q 3034 994 3034 1497 
Q 3034 2003 2786 2293 
Q 2538 2584 2113 2584 
z
M 3366 4563 
L 3366 3988 
Q 3128 4100 2886 4159 
Q 2644 4219 2406 4219 
Q 1781 4219 1451 3797 
Q 1122 3375 1075 2522 
Q 1259 2794 1537 2939 
Q 1816 3084 2150 3084 
Q 2853 3084 3261 2657 
Q 3669 2231 3669 1497 
Q 3669 778 3244 343 
Q 2819 -91 2113 -91 
Q 1303 -91 875 529 
Q 447 1150 447 2328 
Q 447 3434 972 4092 
Q 1497 4750 2381 4750 
Q 2619 4750 2861 4703 
Q 3103 4656 3366 4563 
z
" transform="scale(0.015625)"/>
       </defs>
       <use xlink:href="#DejaVuSans-36"/>
      </g>
     </g>
    </g>
    <g id="xtick_5">
     <g id="line2d_9">
      <path d="M 250.036008 307.584 
L 250.036008 41.472 
" clip-path="url(#p7f9ac14cd2)" style="fill: none; stroke: #b0b0b0; stroke-width: 0.8; stroke-linecap: square"/>
     </g>
     <g id="line2d_10">
      <g>
       <use xlink:href="#m769d55b96b" x="250.036008" y="307.584" style="stroke: #000000; stroke-width: 0.8"/>
      </g>
     </g>
     <g id="text_5">
      <!-- 8 -->
      <g transform="translate(246.854758 322.182437) scale(0.1 -0.1)">
       <defs>
        <path id="DejaVuSans-38" d="M 2034 2216 
Q 1584 2216 1326 1975 
Q 1069 1734 1069 1313 
Q 1069 891 1326 650 
Q 1584 409 2034 409 
Q 2484 409 2743 651 
Q 3003 894 3003 1313 
Q 3003 1734 2745 1975 
Q 2488 2216 2034 2216 
z
M 1403 2484 
Q 997 2584 770 2862 
Q 544 3141 544 3541 
Q 544 4100 942 4425 
Q 1341 4750 2034 4750 
Q 2731 4750 3128 4425 
Q 3525 4100 3525 3541 
Q 3525 3141 3298 2862 
Q 3072 2584 2669 2484 
Q 3125 2378 3379 2068 
Q 3634 1759 3634 1313 
Q 3634 634 3220 271 
Q 2806 -91 2034 -91 
Q 1263 -91 848 271 
Q 434 634 434 1313 
Q 434 1759 690 2068 
Q 947 2378 1403 2484 
z
M 1172 3481 
Q 1172 3119 1398 2916 
Q 1625 2713 2034 2713 
Q 2441 2713 2670 2916 
Q 2900 3119 2900 3481 
Q 2900 3844 2670 4047 
Q 2441 4250 2034 4250 
Q 1625 4250 1398 4047 
Q 1172 3844 1172 3481 
z
" transform="scale(0.015625)"/>
       </defs>
       <use xlink:href="#DejaVuSans-38"/>
      </g>
     </g>
    </g>
    <g id="xtick_6">
     <g id="line2d_11">
      <path d="M 294.086829 307.584 
L 294.086829 41.472 
" clip-path="url(#p7f9ac14cd2)" style="fill: none; stroke: #b0b0b0; stroke-width: 0.8; stroke-linecap: square"/>
     </g>
     <g id="line2d_12">
      <g>
       <use xlink:href="#m769d55b96b" x="294.086829" y="307.584" style="stroke: #000000; stroke-width: 0.8"/>
      </g>
     </g>
     <g id="text_6">
      <!-- 10 -->
      <g transform="translate(287.724329 322.182437) scale(0.1 -0.1)">
       <defs>
        <path id="DejaVuSans-31" d="M 794 531 
L 1825 531 
L 1825 4091 
L 703 3866 
L 703 4441 
L 1819 4666 
L 2450 4666 
L 2450 531 
L 3481 531 
L 3481 0 
L 794 0 
L 794 531 
z
" transform="scale(0.015625)"/>
       </defs>
       <use xlink:href="#DejaVuSans-31"/>
       <use xlink:href="#DejaVuSans-30" x="63.623047"/>
      </g>
     </g>
    </g>
    <g id="xtick_7">
     <g id="line2d_13">
      <path d="M 338.137649 307.584 
L 338.137649 41.472 
" clip-path="url(#p7f9ac14cd2)" style="fill: none; stroke: #b0b0b0; stroke-width: 0.8; stroke-linecap: square"/>
     </g>
     <g id="line2d_14">
      <g>
       <use xlink:href="#m769d55b96b" x="338.137649" y="307.584" style="stroke: #000000; stroke-width: 0.8"/>
      </g>
     </g>
     <g id="text_7">
      <!-- 12 -->
      <g transform="translate(331.775149 322.182437) scale(0.1 -0.1)">
       <use xlink:href="#DejaVuSans-31"/>
       <use xlink:href="#DejaVuSans-32" x="63.623047"/>
      </g>
     </g>
    </g>
    <g id="xtick_8">
     <g id="line2d_15">
      <path d="M 382.188469 307.584 
L 382.188469 41.472 
" clip-path="url(#p7f9ac14cd2)" style="fill: none; stroke: #b0b0b0; stroke-width: 0.8; stroke-linecap: square"/>
     </g>
     <g id="line2d_16">
      <g>
       <use xlink:href="#m769d55b96b" x="382.188469" y="307.584" style="stroke: #000000; stroke-width: 0.8"/>
      </g>
     </g>
     <g id="text_8">
      <!-- 14 -->
      <g transform="translate(375.825969 322.182437) scale(0.1 -0.1)">
       <use xlink:href="#DejaVuSans-31"/>
       <use xlink:href="#DejaVuSans-34" x="63.623047"/>
      </g>
     </g>
    </g>
    <g id="text_9">
     <!-- Time(s) -->
     <g transform="translate(217.420156 335.860562) scale(0.1 -0.1)">
      <defs>
       <path id="DejaVuSans-54" d="M -19 4666 
L 3928 4666 
L 3928 4134 
L 2272 4134 
L 2272 0 
L 1638 0 
L 1638 4134 
L -19 4134 
L -19 4666 
z
" transform="scale(0.015625)"/>
       <path id="DejaVuSans-69" d="M 603 3500 
L 1178 3500 
L 1178 0 
L 603 0 
L 603 3500 
z
M 603 4863 
L 1178 4863 
L 1178 4134 
L 603 4134 
L 603 4863 
z
" transform="scale(0.015625)"/>
       <path id="DejaVuSans-6d" d="M 3328 2828 
Q 3544 3216 3844 3400 
Q 4144 3584 4550 3584 
Q 5097 3584 5394 3201 
Q 5691 2819 5691 2113 
L 5691 0 
L 5113 0 
L 5113 2094 
Q 5113 2597 4934 2840 
Q 4756 3084 4391 3084 
Q 3944 3084 3684 2787 
Q 3425 2491 3425 1978 
L 3425 0 
L 2847 0 
L 2847 2094 
Q 2847 2600 2669 2842 
Q 2491 3084 2119 3084 
Q 1678 3084 1418 2786 
Q 1159 2488 1159 1978 
L 1159 0 
L 581 0 
L 581 3500 
L 1159 3500 
L 1159 2956 
Q 1356 3278 1631 3431 
Q 1906 3584 2284 3584 
Q 2666 3584 2933 3390 
Q 3200 3197 3328 2828 
z
" transform="scale(0.015625)"/>
       <path id="DejaVuSans-65" d="M 3597 1894 
L 3597 1613 
L 953 1613 
Q 991 1019 1311 708 
Q 1631 397 2203 397 
Q 2534 397 2845 478 
Q 3156 559 3463 722 
L 3463 178 
Q 3153 47 2828 -22 
Q 2503 -91 2169 -91 
Q 1331 -91 842 396 
Q 353 884 353 1716 
Q 353 2575 817 3079 
Q 1281 3584 2069 3584 
Q 2775 3584 3186 3129 
Q 3597 2675 3597 1894 
z
M 3022 2063 
Q 3016 2534 2758 2815 
Q 2500 3097 2075 3097 
Q 1594 3097 1305 2825 
Q 1016 2553 972 2059 
L 3022 2063 
z
" transform="scale(0.015625)"/>
       <path id="DejaVuSans-28" d="M 1984 4856 
Q 1566 4138 1362 3434 
Q 1159 2731 1159 2009 
Q 1159 1288 1364 580 
Q 1569 -128 1984 -844 
L 1484 -844 
Q 1016 -109 783 600 
Q 550 1309 550 2009 
Q 550 2706 781 3412 
Q 1013 4119 1484 4856 
L 1984 4856 
z
" transform="scale(0.015625)"/>
       <path id="DejaVuSans-73" d="M 2834 3397 
L 2834 2853 
Q 2591 2978 2328 3040 
Q 2066 3103 1784 3103 
Q 1356 3103 1142 2972 
Q 928 2841 928 2578 
Q 928 2378 1081 2264 
Q 1234 2150 1697 2047 
L 1894 2003 
Q 2506 1872 2764 1633 
Q 3022 1394 3022 966 
Q 3022 478 2636 193 
Q 2250 -91 1575 -91 
Q 1294 -91 989 -36 
Q 684 19 347 128 
L 347 722 
Q 666 556 975 473 
Q 1284 391 1588 391 
Q 1994 391 2212 530 
Q 2431 669 2431 922 
Q 2431 1156 2273 1281 
Q 2116 1406 1581 1522 
L 1381 1569 
Q 847 1681 609 1914 
Q 372 2147 372 2553 
Q 372 3047 722 3315 
Q 1072 3584 1716 3584 
Q 2034 3584 2315 3537 
Q 2597 3491 2834 3397 
z
" transform="scale(0.015625)"/>
       <path id="DejaVuSans-29" d="M 513 4856 
L 1013 4856 
Q 1481 4119 1714 3412 
Q 1947 2706 1947 2009 
Q 1947 1309 1714 600 
Q 1481 -109 1013 -844 
L 513 -844 
Q 928 -128 1133 580 
Q 1338 1288 1338 2009 
Q 1338 2731 1133 3434 
Q 928 4138 513 4856 
z
" transform="scale(0.015625)"/>
      </defs>
      <use xlink:href="#DejaVuSans-54"/>
      <use xlink:href="#DejaVuSans-69" x="57.958984"/>
      <use xlink:href="#DejaVuSans-6d" x="85.742188"/>
      <use xlink:href="#DejaVuSans-65" x="183.154297"/>
      <use xlink:href="#DejaVuSans-28" x="244.677734"/>
      <use xlink:href="#DejaVuSans-73" x="283.691406"/>
      <use xlink:href="#DejaVuSans-29" x="335.791016"/>
     </g>
    </g>
   </g>
   <g id="matplotlib.axis_2">
    <g id="ytick_1">
     <g id="line2d_17">
      <path d="M 57.6 257.875931 
L 414.72 257.875931 
" clip-path="url(#p7f9ac14cd2)" style="fill: none; stroke: #b0b0b0; stroke-width: 0.8; stroke-linecap: square"/>
     </g>
     <g id="line2d_18">
      <defs>
       <path id="mc3f4c30023" d="M 0 0 
L -3.5 0 
" style="stroke: #000000; stroke-width: 0.8"/>
      </defs>
      <g>
       <use xlink:href="#mc3f4c30023" x="57.6" y="257.875931" style="stroke: #000000; stroke-width: 0.8"/>
      </g>
     </g>
     <g id="text_10">
      <!-- 4 -->
      <g transform="translate(44.2375 261.67515) scale(0.1 -0.1)">
       <use xlink:href="#DejaVuSans-34"/>
      </g>
     </g>
    </g>
    <g id="ytick_2">
     <g id="line2d_19">
      <path d="M 57.6 206.798949 
L 414.72 206.798949 
" clip-path="url(#p7f9ac14cd2)" style="fill: none; stroke: #b0b0b0; stroke-width: 0.8; stroke-linecap: square"/>
     </g>
     <g id="line2d_20">
      <g>
       <use xlink:href="#mc3f4c30023" x="57.6" y="206.798949" style="stroke: #000000; stroke-width: 0.8"/>
      </g>
     </g>
     <g id="text_11">
      <!-- 5 -->
      <g transform="translate(44.2375 210.598167) scale(0.1 -0.1)">
       <defs>
        <path id="DejaVuSans-35" d="M 691 4666 
L 3169 4666 
L 3169 4134 
L 1269 4134 
L 1269 2991 
Q 1406 3038 1543 3061 
Q 1681 3084 1819 3084 
Q 2600 3084 3056 2656 
Q 3513 2228 3513 1497 
Q 3513 744 3044 326 
Q 2575 -91 1722 -91 
Q 1428 -91 1123 -41 
Q 819 9 494 109 
L 494 744 
Q 775 591 1075 516 
Q 1375 441 1709 441 
Q 2250 441 2565 725 
Q 2881 1009 2881 1497 
Q 2881 1984 2565 2268 
Q 2250 2553 1709 2553 
Q 1456 2553 1204 2497 
Q 953 2441 691 2322 
L 691 4666 
z
" transform="scale(0.015625)"/>
       </defs>
       <use xlink:href="#DejaVuSans-35"/>
      </g>
     </g>
    </g>
    <g id="ytick_3">
     <g id="line2d_21">
      <path d="M 57.6 155.721966 
L 414.72 155.721966 
" clip-path="url(#p7f9ac14cd2)" style="fill: none; stroke: #b0b0b0; stroke-width: 0.8; stroke-linecap: square"/>
     </g>
     <g id="line2d_22">
      <g>
       <use xlink:href="#mc3f4c30023" x="57.6" y="155.721966" style="stroke: #000000; stroke-width: 0.8"/>
      </g>
     </g>
     <g id="text_12">
      <!-- 6 -->
      <g transform="translate(44.2375 159.521184) scale(0.1 -0.1)">
       <use xlink:href="#DejaVuSans-36"/>
      </g>
     </g>
    </g>
    <g id="ytick_4">
     <g id="line2d_23">
      <path d="M 57.6 104.644983 
L 414.72 104.644983 
" clip-path="url(#p7f9ac14cd2)" style="fill: none; stroke: #b0b0b0; stroke-width: 0.8; stroke-linecap: square"/>
     </g>
     <g id="line2d_24">
      <g>
       <use xlink:href="#mc3f4c30023" x="57.6" y="104.644983" style="stroke: #000000; stroke-width: 0.8"/>
      </g>
     </g>
     <g id="text_13">
      <!-- 7 -->
      <g transform="translate(44.2375 108.444202) scale(0.1 -0.1)">
       <defs>
        <path id="DejaVuSans-37" d="M 525 4666 
L 3525 4666 
L 3525 4397 
L 1831 0 
L 1172 0 
L 2766 4134 
L 525 4134 
L 525 4666 
z
" transform="scale(0.015625)"/>
       </defs>
       <use xlink:href="#DejaVuSans-37"/>
      </g>
     </g>
    </g>
    <g id="ytick_5">
     <g id="line2d_25">
      <path d="M 57.6 53.568 
L 414.72 53.568 
" clip-path="url(#p7f9ac14cd2)" style="fill: none; stroke: #b0b0b0; stroke-width: 0.8; stroke-linecap: square"/>
     </g>
     <g id="line2d_26">
      <g>
       <use xlink:href="#mc3f4c30023" x="57.6" y="53.568" style="stroke: #000000; stroke-width: 0.8"/>
      </g>
     </g>
     <g id="text_14">
      <!-- 8 -->
      <g transform="translate(44.2375 57.367219) scale(0.1 -0.1)">
       <use xlink:href="#DejaVuSans-38"/>
      </g>
     </g>
    </g>
    <g id="text_15">
     <!-- Velocity(m/s) -->
     <g transform="translate(38.157812 207.204563) rotate(-90) scale(0.1 -0.1)">
      <defs>
       <path id="DejaVuSans-56" d="M 1831 0 
L 50 4666 
L 709 4666 
L 2188 738 
L 3669 4666 
L 4325 4666 
L 2547 0 
L 1831 0 
z
" transform="scale(0.015625)"/>
       <path id="DejaVuSans-6c" d="M 603 4863 
L 1178 4863 
L 1178 0 
L 603 0 
L 603 4863 
z
" transform="scale(0.015625)"/>
       <path id="DejaVuSans-6f" d="M 1959 3097 
Q 1497 3097 1228 2736 
Q 959 2375 959 1747 
Q 959 1119 1226 758 
Q 1494 397 1959 397 
Q 2419 397 2687 759 
Q 2956 1122 2956 1747 
Q 2956 2369 2687 2733 
Q 2419 3097 1959 3097 
z
M 1959 3584 
Q 2709 3584 3137 3096 
Q 3566 2609 3566 1747 
Q 3566 888 3137 398 
Q 2709 -91 1959 -91 
Q 1206 -91 779 398 
Q 353 888 353 1747 
Q 353 2609 779 3096 
Q 1206 3584 1959 3584 
z
" transform="scale(0.015625)"/>
       <path id="DejaVuSans-63" d="M 3122 3366 
L 3122 2828 
Q 2878 2963 2633 3030 
Q 2388 3097 2138 3097 
Q 1578 3097 1268 2742 
Q 959 2388 959 1747 
Q 959 1106 1268 751 
Q 1578 397 2138 397 
Q 2388 397 2633 464 
Q 2878 531 3122 666 
L 3122 134 
Q 2881 22 2623 -34 
Q 2366 -91 2075 -91 
Q 1284 -91 818 406 
Q 353 903 353 1747 
Q 353 2603 823 3093 
Q 1294 3584 2113 3584 
Q 2378 3584 2631 3529 
Q 2884 3475 3122 3366 
z
" transform="scale(0.015625)"/>
       <path id="DejaVuSans-74" d="M 1172 4494 
L 1172 3500 
L 2356 3500 
L 2356 3053 
L 1172 3053 
L 1172 1153 
Q 1172 725 1289 603 
Q 1406 481 1766 481 
L 2356 481 
L 2356 0 
L 1766 0 
Q 1100 0 847 248 
Q 594 497 594 1153 
L 594 3053 
L 172 3053 
L 172 3500 
L 594 3500 
L 594 4494 
L 1172 4494 
z
" transform="scale(0.015625)"/>
       <path id="DejaVuSans-79" d="M 2059 -325 
Q 1816 -950 1584 -1140 
Q 1353 -1331 966 -1331 
L 506 -1331 
L 506 -850 
L 844 -850 
Q 1081 -850 1212 -737 
Q 1344 -625 1503 -206 
L 1606 56 
L 191 3500 
L 800 3500 
L 1894 763 
L 2988 3500 
L 3597 3500 
L 2059 -325 
z
" transform="scale(0.015625)"/>
       <path id="DejaVuSans-2f" d="M 1625 4666 
L 2156 4666 
L 531 -594 
L 0 -594 
L 1625 4666 
z
" transform="scale(0.015625)"/>
      </defs>
      <use xlink:href="#DejaVuSans-56"/>
      <use xlink:href="#DejaVuSans-65" x="60.658203"/>
      <use xlink:href="#DejaVuSans-6c" x="122.181641"/>
      <use xlink:href="#DejaVuSans-6f" x="149.964844"/>
      <use xlink:href="#DejaVuSans-63" x="211.146484"/>
      <use xlink:href="#DejaVuSans-69" x="266.126953"/>
      <use xlink:href="#DejaVuSans-74" x="293.910156"/>
      <use xlink:href="#DejaVuSans-79" x="333.119141"/>
      <use xlink:href="#DejaVuSans-28" x="392.298828"/>
      <use xlink:href="#DejaVuSans-6d" x="431.3125"/>
      <use xlink:href="#DejaVuSans-2f" x="528.724609"/>
      <use xlink:href="#DejaVuSans-73" x="562.416016"/>
      <use xlink:href="#DejaVuSans-29" x="614.515625"/>
     </g>
    </g>
   </g>
   <g id="line2d_27">
    <path d="M 73.832727 54.052005 
L 77.356793 53.789981 
L 77.356793 53.789981 
L 83.0834 53.630518 
L 83.0834 53.630518 
L 95.858137 53.571729 
L 95.858137 53.571729 
L 99.822711 53.569532 
L 99.822711 53.569532 
L 100.263219 54.625753 
L 100.263219 54.625753 
L 100.703728 56.614333 
L 100.703728 56.614333 
L 101.144236 57.886916 
L 101.144236 57.886916 
L 102.025252 61.902078 
L 102.025252 61.902078 
L 102.906269 66.511929 
L 102.906269 66.511929 
L 103.787285 71.018911 
L 103.787285 71.018911 
L 105.10881 79.016187 
L 105.10881 79.016187 
L 105.989826 83.953442 
L 105.989826 83.953442 
L 106.430334 87.136304 
L 107.311351 91.369871 
L 107.311351 91.369871 
L 108.192367 96.184336 
L 108.192367 96.184336 
L 109.073383 100.901806 
L 109.073383 100.901806 
L 109.513892 103.770851 
L 109.513892 103.770851 
L 110.394908 107.594934 
L 110.394908 107.594934 
L 110.835416 110.184639 
L 110.835416 110.184639 
L 111.716433 113.723457 
L 111.716433 113.723457 
L 112.597449 117.579463 
L 112.597449 117.579463 
L 114.79999 125.015505 
L 114.79999 125.015505 
L 116.121515 128.15582 
L 116.121515 128.15582 
L 117.002531 129.617695 
L 117.002531 129.617695 
L 117.883548 130.797062 
L 117.883548 130.797062 
L 119.205072 131.819368 
L 119.205072 131.819368 
L 120.086089 132.114082 
L 120.086089 132.114082 
L 120.967105 132.309094 
L 120.967105 132.309094 
L 122.28863 132.376975 
L 122.28863 132.376975 
L 123.169646 132.439289 
L 123.169646 132.439289 
L 124.931679 132.205663 
L 124.931679 132.205663 
L 125.812695 131.948235 
L 125.812695 131.948235 
L 127.13422 131.041006 
L 127.13422 131.041006 
L 129.336761 127.969645 
L 129.336761 127.969645 
L 130.658285 124.853234 
L 130.658285 124.853234 
L 131.97981 120.463065 
L 131.97981 120.463065 
L 133.741843 112.185274 
L 133.741843 112.185274 
L 134.622859 107.390013 
L 134.622859 107.390013 
L 136.384892 95.143694 
L 136.384892 95.143694 
L 137.265908 87.84704 
L 137.265908 87.84704 
L 138.146925 81.777613 
L 138.146925 81.777613 
L 139.027941 76.782846 
L 139.027941 76.782846 
L 139.908958 72.672477 
L 139.908958 72.672477 
L 140.789974 69.289853 
L 140.789974 69.289853 
L 141.670991 66.506157 
L 141.670991 66.506157 
L 142.552007 64.215355 
L 142.552007 64.215355 
L 143.873532 61.516651 
L 143.873532 61.516651 
L 145.195056 59.501971 
L 145.195056 59.501971 
L 146.516581 57.997958 
L 146.516581 57.997958 
L 147.838105 56.875132 
L 147.838105 56.875132 
L 149.15963 56.036908 
L 149.15963 56.036908 
L 150.921663 55.240005 
L 150.921663 55.240005 
L 152.683696 54.700326 
L 152.683696 54.700326 
L 154.886237 54.263669 
L 154.886237 54.263669 
L 157.969794 53.919716 
L 157.969794 53.919716 
L 162.374876 53.700749 
L 162.374876 53.700749 
L 169.863515 53.593334 
L 169.863515 53.593334 
L 182.638253 53.569481 
L 182.638253 53.569481 
L 183.078762 53.688899 
L 183.078762 53.688899 
L 183.51927 55.923262 
L 183.51927 55.923262 
L 183.959778 57.160346 
L 183.959778 57.160346 
L 184.400286 60.092012 
L 184.400286 60.092012 
L 184.840794 64.540664 
L 184.840794 64.540664 
L 185.281303 70.594461 
L 185.281303 70.594461 
L 186.602827 84.849536 
L 186.602827 84.849536 
L 187.043335 91.194779 
L 187.043335 91.194779 
L 188.36486 105.55446 
L 188.36486 105.55446 
L 188.805368 111.603864 
L 188.805368 111.603864 
L 189.686385 119.450821 
L 189.686385 119.450821 
L 190.126893 124.774677 
L 190.126893 124.774677 
L 191.007909 131.802615 
L 191.007909 131.802615 
L 191.448417 136.646194 
L 191.448417 136.646194 
L 192.329434 142.956449 
L 192.329434 142.956449 
L 192.769942 147.471501 
L 192.769942 147.471501 
L 193.21045 149.868799 
L 193.21045 149.868799 
L 193.650958 153.096966 
L 193.650958 153.096966 
L 194.531975 157.936204 
L 194.531975 157.936204 
L 194.972483 161.303454 
L 194.972483 161.303454 
L 196.734516 169.565718 
L 196.734516 169.565718 
L 197.175024 172.254717 
L 197.175024 172.254717 
L 197.615532 173.683902 
L 197.615532 173.683902 
L 198.05604 175.799255 
L 198.05604 175.799255 
L 200.258581 182.421794 
L 200.258581 182.421794 
L 200.69909 183.625117 
L 200.69909 183.625117 
L 201.139598 185.238843 
L 201.139598 185.238843 
L 201.580106 186.191071 
L 202.020614 187.582511 
L 202.020614 187.582511 
L 206.866205 197.438479 
L 206.866205 197.438479 
L 207.306713 197.974327 
L 207.306713 197.974327 
L 208.187729 199.262948 
L 208.187729 199.262948 
L 209.068746 200.196533 
L 209.068746 200.196533 
L 209.949762 200.941032 
L 209.949762 200.941032 
L 210.830778 201.455785 
L 210.830778 201.455785 
L 212.152303 201.881257 
L 212.152303 201.881257 
L 213.473828 202.355609 
L 213.473828 202.355609 
L 214.795352 202.408524 
L 214.795352 202.408524 
L 215.676369 202.464147 
L 215.676369 202.464147 
L 218.759926 202.341971 
L 218.759926 202.341971 
L 220.081451 201.985249 
L 220.081451 201.985249 
L 220.962467 201.583529 
L 220.962467 201.583529 
L 221.843483 200.948131 
L 221.843483 200.948131 
L 222.283992 200.591818 
L 223.605516 198.809947 
L 223.605516 198.809947 
L 224.046024 198.163363 
L 224.046024 198.163363 
L 225.808057 194.001406 
L 225.808057 194.001406 
L 227.57009 187.458955 
L 227.57009 187.458955 
L 229.332123 177.85684 
L 229.332123 177.85684 
L 231.094156 166.094986 
L 231.094156 166.094986 
L 231.534664 163.79218 
L 231.534664 163.79218 
L 232.41568 161.056344 
L 232.41568 161.056344 
L 233.296697 159.742082 
L 233.296697 159.742082 
L 233.737205 159.432657 
L 234.177713 159.928768 
L 234.177713 159.928768 
L 234.618221 160.058248 
L 234.618221 160.058248 
L 235.499238 161.796347 
L 235.499238 161.796347 
L 237.261271 165.342673 
L 237.261271 165.342673 
L 238.582795 166.980865 
L 238.582795 166.980865 
L 239.023303 167.350713 
L 239.023303 167.350713 
L 240.785336 167.975232 
L 240.785336 167.975232 
L 242.106861 168.206508 
L 242.106861 168.206508 
L 245.190418 167.960113 
L 245.190418 167.960113 
L 246.952451 167.14426 
L 246.952451 167.14426 
L 247.392959 166.848371 
L 247.392959 166.848371 
L 249.5955 163.948169 
L 249.5955 163.948169 
L 250.476517 162.349919 
L 250.476517 162.349919 
L 252.679058 156.067961 
L 252.679058 156.067961 
L 255.322107 144.227397 
L 255.322107 144.227397 
L 256.203123 139.518099 
L 256.203123 139.518099 
L 257.08414 134.531964 
L 257.08414 134.531964 
L 259.727189 115.458644 
L 259.727189 115.458644 
L 260.608205 111.881212 
L 260.608205 111.881212 
L 261.048713 110.897163 
L 261.048713 110.897163 
L 261.92973 112.456186 
L 261.92973 112.456186 
L 262.370238 115.133692 
L 262.370238 115.133692 
L 262.810746 120.85268 
L 262.810746 120.85268 
L 263.691763 129.776544 
L 263.691763 129.776544 
L 264.132271 136.732923 
L 264.132271 136.732923 
L 265.013287 146.476725 
L 265.013287 146.476725 
L 265.453795 154.122745 
L 265.453795 154.122745 
L 265.894304 158.433081 
L 265.894304 158.433081 
L 266.77532 168.509701 
L 266.77532 168.509701 
L 267.215828 173.202654 
L 267.215828 173.202654 
L 267.656336 180.170883 
L 267.656336 180.170883 
L 268.096845 183.815072 
L 268.096845 183.815072 
L 268.537353 189.513527 
L 268.537353 189.513527 
L 268.977861 192.870562 
L 269.418369 197.724918 
L 269.418369 197.724918 
L 269.858878 200.831063 
L 269.858878 200.831063 
L 270.299386 205.359497 
L 270.299386 205.359497 
L 270.739894 208.406903 
L 270.739894 208.406903 
L 271.180402 212.632962 
L 271.180402 212.632962 
L 271.62091 215.464108 
L 271.62091 215.464108 
L 272.061419 219.532185 
L 272.061419 219.532185 
L 272.501927 222.198097 
L 272.501927 222.198097 
L 272.942435 226.147523 
L 272.942435 226.147523 
L 273.382943 228.452371 
L 273.382943 228.452371 
L 273.823451 232.341781 
L 273.823451 232.341781 
L 274.704468 236.347443 
L 274.704468 236.347443 
L 276.907009 248.471944 
L 276.907009 248.471944 
L 277.788025 251.463982 
L 277.788025 251.463982 
L 278.228533 253.342032 
L 278.228533 253.342032 
L 278.669042 254.718812 
L 278.669042 254.718812 
L 279.10955 256.830079 
L 279.10955 256.830079 
L 280.871583 261.559042 
L 280.871583 261.559042 
L 281.312091 262.939959 
L 281.312091 262.939959 
L 281.752599 263.843613 
L 281.752599 263.843613 
L 282.193107 265.081617 
L 282.193107 265.081617 
L 283.074124 266.493844 
L 283.074124 266.493844 
L 283.95514 267.625148 
L 283.95514 267.625148 
L 284.836156 268.611036 
L 284.836156 268.611036 
L 286.598189 269.52036 
L 286.598189 269.52036 
L 288.360222 269.886531 
L 288.360222 269.886531 
L 295.408353 269.691978 
L 295.408353 269.691978 
L 296.28937 269.444051 
L 296.28937 269.444051 
L 297.170386 269.339598 
L 297.170386 269.339598 
L 298.051402 269.0243 
L 298.051402 269.0243 
L 298.491911 268.884502 
L 298.491911 268.884502 
L 299.372927 268.329296 
L 299.372927 268.329296 
L 299.813435 268.101288 
L 299.813435 268.101288 
L 300.694452 267.249681 
L 300.694452 267.249681 
L 301.13496 266.898323 
L 301.13496 266.898323 
L 302.015976 265.73484 
L 302.015976 265.73484 
L 302.456485 265.19654 
L 302.456485 265.19654 
L 303.337501 263.629141 
L 303.337501 263.629141 
L 303.778009 262.3799 
L 303.778009 262.3799 
L 304.659026 260.435501 
L 304.659026 260.435501 
L 305.540042 257.731128 
L 305.540042 257.731128 
L 306.421058 254.195886 
L 306.421058 254.195886 
L 306.861567 252.544005 
L 306.861567 252.544005 
L 309.504616 239.552472 
L 309.504616 239.552472 
L 310.385632 236.246821 
L 310.385632 236.246821 
L 310.82614 235.758474 
L 310.82614 235.758474 
L 311.266649 235.528832 
L 311.266649 235.528832 
L 311.707157 238.457229 
L 311.707157 238.457229 
L 312.147665 240.002512 
L 312.147665 240.002512 
L 312.588173 245.120017 
L 312.588173 245.120017 
L 313.028681 247.297684 
L 313.028681 247.297684 
L 313.46919 250.090267 
L 313.46919 250.090267 
L 314.790714 260.983506 
L 314.790714 260.983506 
L 315.671731 265.312383 
L 315.671731 265.312383 
L 316.112239 268.902941 
L 316.112239 268.902941 
L 316.993255 272.148322 
L 316.993255 272.148322 
L 317.433763 275.521446 
L 317.433763 275.521446 
L 317.874272 277.177719 
L 317.874272 277.177719 
L 318.755288 279.109399 
L 318.755288 279.109399 
L 319.195796 281.328847 
L 319.195796 281.328847 
L 320.076813 283.236266 
L 320.076813 283.236266 
L 320.517321 285.418888 
L 320.517321 285.418888 
L 320.957829 286.437056 
L 320.957829 286.437056 
L 321.838845 287.413751 
L 321.838845 287.413751 
L 322.279354 288.768772 
L 322.279354 288.768772 
L 322.719862 289.412853 
L 322.719862 289.412853 
L 323.16037 289.799965 
L 323.600878 290.335507 
L 323.600878 290.335507 
L 324.041386 291.194673 
L 324.041386 291.194673 
L 325.803419 293.26181 
L 325.803419 293.26181 
L 328.446468 294.499558 
L 328.446468 294.499558 
L 330.649009 295.036122 
L 330.649009 295.036122 
L 332.411042 295.260248 
L 332.411042 295.260248 
L 333.292059 295.348253 
L 333.292059 295.348253 
L 335.054092 295.255753 
L 335.054092 295.255753 
L 337.697141 294.563302 
L 337.697141 294.563302 
L 338.578157 293.971473 
L 338.578157 293.971473 
L 339.899682 293.37612 
L 339.899682 293.37612 
L 340.780698 292.541062 
L 340.780698 292.541062 
L 342.102223 291.688536 
L 342.102223 291.688536 
L 342.983239 290.624756 
L 342.983239 290.624756 
L 343.864256 289.861104 
L 343.864256 289.861104 
L 344.745272 288.348408 
L 344.745272 288.348408 
L 345.626288 287.227268 
L 345.626288 287.227268 
L 346.066797 286.147195 
L 346.066797 286.147195 
L 346.947813 284.620197 
L 346.947813 284.620197 
L 347.828829 281.888089 
L 347.828829 281.888089 
L 348.709846 279.886433 
L 348.709846 279.886433 
L 349.590862 276.944093 
L 349.590862 276.944093 
L 350.03137 275.567517 
L 350.03137 275.567517 
L 350.912387 271.617172 
L 350.912387 271.617172 
L 351.352895 269.912631 
L 351.352895 269.912631 
L 352.233911 264.801459 
L 352.233911 264.801459 
L 353.114928 260.506702 
L 353.114928 260.506702 
L 354.436452 252.183248 
L 354.436452 252.183248 
L 355.317469 248.368717 
L 355.317469 248.368717 
L 355.757977 246.995768 
L 355.757977 246.995768 
L 356.638993 245.906143 
L 356.638993 245.906143 
L 357.079502 245.688248 
L 357.079502 245.688248 
L 357.52001 246.782777 
L 357.52001 246.782777 
L 357.960518 247.544743 
L 357.960518 247.544743 
L 358.401026 250.802791 
L 358.401026 250.802791 
L 359.282043 253.512578 
L 359.282043 253.512578 
L 359.722551 256.076489 
L 359.722551 256.076489 
L 360.163059 257.446885 
L 360.163059 257.446885 
L 360.603567 260.588272 
L 360.603567 260.588272 
L 361.044075 262.007089 
L 361.044075 262.007089 
L 361.484584 262.997165 
L 361.484584 262.997165 
L 361.925092 265.226573 
L 361.925092 265.226573 
L 362.806108 267.06274 
L 362.806108 267.06274 
L 363.246617 268.890632 
L 363.246617 268.890632 
L 364.127633 270.325078 
L 364.127633 270.325078 
L 364.568141 271.72474 
L 364.568141 271.72474 
L 365.008649 272.420664 
L 365.008649 272.420664 
L 365.889666 273.509779 
L 365.889666 273.509779 
L 366.330174 274.311279 
L 366.330174 274.311279 
L 366.770682 274.805653 
L 367.21119 275.607357 
L 367.21119 275.607357 
L 369.413731 277.671123 
L 369.413731 277.671123 
L 370.735256 278.274904 
L 370.735256 278.274904 
L 372.056781 278.579578 
L 372.056781 278.579578 
L 374.259322 278.628152 
L 374.259322 278.628152 
L 379.104912 278.4099 
L 379.104912 278.4099 
L 381.747961 277.944282 
L 381.747961 277.944282 
L 382.628977 277.577498 
L 382.628977 277.577498 
L 383.069486 277.419262 
L 383.069486 277.419262 
L 383.950502 276.855168 
L 383.950502 276.855168 
L 384.39101 276.63191 
L 384.39101 276.63191 
L 385.272027 275.813963 
L 385.272027 275.813963 
L 386.153043 275.23756 
L 386.153043 275.23756 
L 387.034059 274.345858 
L 387.034059 274.345858 
L 387.474568 273.926975 
L 387.474568 273.926975 
L 388.355584 272.766915 
L 388.355584 272.766915 
L 388.796092 272.216254 
L 388.796092 272.216254 
L 390.558125 268.969341 
L 390.558125 268.969341 
L 391.439141 267.058041 
L 391.439141 267.058041 
L 391.87965 266.093145 
L 391.87965 266.093145 
L 392.760666 263.624033 
L 392.760666 263.624033 
L 393.201174 262.543091 
L 393.201174 262.543091 
L 394.082191 259.929839 
L 394.082191 259.929839 
L 394.522699 258.763854 
L 394.522699 258.763854 
L 395.403715 255.949359 
L 395.403715 255.949359 
L 395.844224 254.716411 
L 395.844224 254.716411 
L 396.72524 251.711706 
L 396.72524 251.711706 
L 397.165748 250.397086 
L 397.165748 250.397086 
L 398.046765 247.27996 
L 398.046765 247.27996 
L 398.487273 245.83913 
L 398.487273 245.83913 
" clip-path="url(#p7f9ac14cd2)" style="fill: none; stroke: #1f77b4; stroke-width: 1.5; stroke-linecap: square"/>
   </g>
   <g id="line2d_28">
    <path d="M 73.832727 53.568 
L 99.382203 53.568 
L 99.382203 53.568 
L 100.263219 60.402815 
L 100.263219 60.402815 
L 100.703728 60.311183 
L 100.703728 60.311183 
L 102.025252 69.491505 
L 102.025252 69.491505 
L 102.46576 70.317062 
L 102.46576 70.317062 
L 103.346777 75.307437 
L 103.346777 75.307437 
L 104.227793 83.043965 
L 104.227793 83.043965 
L 104.668301 82.758036 
L 104.668301 82.758036 
L 105.549318 89.03887 
L 105.549318 89.03887 
L 105.989826 93.199959 
L 105.989826 93.199959 
L 106.430334 92.950244 
L 106.430334 92.950244 
L 106.870842 95.622591 
L 106.870842 95.622591 
L 107.311351 99.327256 
L 107.311351 99.327256 
L 107.751859 100.138103 
L 107.751859 100.138103 
L 108.632875 105.600633 
L 108.632875 105.600633 
L 109.073383 109.236599 
L 109.073383 109.236599 
L 109.513892 109.071314 
L 109.513892 109.071314 
L 109.9544 111.404255 
L 109.9544 111.404255 
L 110.394908 115.118216 
L 110.394908 115.118216 
L 110.835416 115.150037 
L 111.275925 117.209052 
L 111.275925 117.209052 
L 111.716433 120.138981 
L 111.716433 120.138981 
L 112.156941 120.718399 
L 112.156941 120.718399 
L 112.597449 122.138492 
L 112.597449 122.138492 
L 113.037957 124.412337 
L 113.037957 124.412337 
L 113.478466 124.688766 
L 113.478466 124.688766 
L 114.359482 127.78066 
L 114.359482 127.78066 
L 114.79999 128.26017 
L 114.79999 128.26017 
L 115.240498 128.980049 
L 115.240498 128.980049 
L 115.681007 130.143175 
L 115.681007 130.143175 
L 116.562023 130.879602 
L 116.562023 130.879602 
L 117.002531 131.548149 
L 117.002531 131.548149 
L 118.764564 132.372991 
L 118.764564 132.372991 
L 119.64558 132.320535 
L 119.64558 132.320535 
L 120.086089 132.518561 
L 120.086089 132.518561 
L 120.967105 132.305927 
L 120.967105 132.305927 
L 121.407613 132.506915 
L 121.407613 132.506915 
L 121.848121 132.376771 
L 121.848121 132.376771 
L 122.28863 132.571425 
L 122.28863 132.571425 
L 122.729138 132.394444 
L 122.729138 132.394444 
L 123.169646 132.040838 
L 123.169646 132.040838 
L 123.610154 132.224613 
L 123.610154 132.224613 
L 124.050662 131.852108 
L 124.050662 131.852108 
L 124.491171 130.929556 
L 124.491171 130.929556 
L 124.931679 131.183408 
L 124.931679 131.183408 
L 125.372187 130.359996 
L 125.372187 130.359996 
L 125.812695 128.606472 
L 125.812695 128.606472 
L 126.253203 129.080518 
L 126.253203 129.080518 
L 126.693712 127.528084 
L 126.693712 127.528084 
L 127.13422 124.585284 
L 127.13422 124.585284 
L 127.574728 125.642577 
L 127.574728 125.642577 
L 128.015236 123.08122 
L 128.015236 123.08122 
L 128.455744 122.494652 
L 128.455744 122.494652 
L 128.896253 120.663542 
L 128.896253 120.663542 
L 129.336761 116.857387 
L 129.777269 116.426349 
L 129.777269 116.426349 
L 130.217777 114.018375 
L 130.217777 114.018375 
L 130.658285 108.830691 
L 130.658285 108.830691 
L 131.098794 108.74437 
L 131.098794 108.74437 
L 131.539302 105.363891 
L 131.539302 105.363891 
L 131.97981 99.082597 
L 131.97981 99.082597 
L 132.420318 99.083466 
L 132.420318 99.083466 
L 132.860826 95.303258 
L 132.860826 95.303258 
L 133.301335 87.680018 
L 133.301335 87.680018 
L 133.741843 87.254854 
L 133.741843 87.254854 
L 134.182351 83.149541 
L 134.182351 83.149541 
L 134.622859 75.274543 
L 134.622859 75.274543 
L 135.063367 74.001296 
L 135.063367 74.001296 
L 135.503876 68.902689 
L 135.503876 68.902689 
L 136.384892 53.741355 
L 136.384892 53.741355 
L 136.8254 54.107373 
L 136.8254 54.107373 
L 137.265908 53.568 
L 137.265908 53.568 
L 182.197745 53.568 
L 182.197745 53.568 
L 182.638253 53.916345 
L 183.078762 60.179915 
L 183.078762 60.179915 
L 183.51927 59.517192 
L 183.51927 59.517192 
L 184.400286 73.015663 
L 184.400286 73.015663 
L 184.840794 82.127388 
L 184.840794 82.127388 
L 185.281303 83.532516 
L 185.281303 83.532516 
L 186.162319 94.555849 
L 186.162319 94.555849 
L 186.602827 103.283015 
L 186.602827 103.283015 
L 187.043335 104.474232 
L 187.043335 104.474232 
L 187.924352 115.193146 
L 187.924352 115.193146 
L 188.36486 123.128517 
L 188.36486 123.128517 
L 188.805368 122.958278 
L 188.805368 122.958278 
L 189.245876 126.953928 
L 189.245876 126.953928 
L 189.686385 134.917085 
L 189.686385 134.917085 
L 190.126893 134.836536 
L 190.126893 134.836536 
L 190.567401 138.593146 
L 190.567401 138.593146 
L 191.007909 145.873608 
L 191.007909 145.873608 
L 191.448417 145.333061 
L 191.448417 145.333061 
L 191.888926 149.281465 
L 191.888926 149.281465 
L 192.329434 156.072967 
L 192.329434 156.072967 
L 192.769942 154.435847 
L 192.769942 154.435847 
L 193.21045 159.24689 
L 193.21045 159.24689 
L 193.650958 159.929994 
L 194.091467 162.674411 
L 194.091467 162.674411 
L 194.531975 167.718366 
L 194.531975 167.718366 
L 194.972483 167.247027 
L 195.412991 170.523258 
L 195.412991 170.523258 
L 195.853499 171.090417 
L 195.853499 171.090417 
L 196.294008 173.246938 
L 196.294008 173.246938 
L 196.734516 177.377534 
L 196.734516 177.377534 
L 197.175024 176.40656 
L 197.175024 176.40656 
L 197.615532 179.829178 
L 197.615532 179.829178 
L 198.05604 179.773606 
L 198.05604 179.773606 
L 198.496549 181.656355 
L 198.496549 181.656355 
L 198.937057 182.144906 
L 198.937057 182.144906 
L 199.377565 183.858539 
L 199.377565 183.858539 
L 199.818073 184.637463 
L 199.818073 184.637463 
L 200.258581 185.917554 
L 200.258581 185.917554 
L 200.69909 188.313116 
L 200.69909 188.313116 
L 201.139598 188.005224 
L 201.139598 188.005224 
L 201.580106 190.233202 
L 201.580106 190.233202 
L 202.020614 190.241221 
L 202.020614 190.241221 
L 202.461122 191.863834 
L 202.901631 192.118964 
L 202.901631 192.118964 
L 203.342139 193.346855 
L 203.782647 193.718031 
L 203.782647 193.718031 
L 204.223155 195.320418 
L 204.223155 195.320418 
L 204.663664 195.625399 
L 204.663664 195.625399 
L 205.54468 197.862673 
L 205.54468 197.862673 
L 205.985188 198.047418 
L 205.985188 198.047418 
L 206.425696 198.863475 
L 206.425696 198.863475 
L 206.866205 198.995152 
L 206.866205 198.995152 
L 207.306713 200.087382 
L 207.306713 200.087382 
L 207.747221 200.332194 
L 207.747221 200.332194 
L 208.187729 200.842913 
L 208.187729 200.842913 
L 208.628237 200.938988 
L 208.628237 200.938988 
L 209.068746 201.420338 
L 209.068746 201.420338 
L 210.39027 201.904037 
L 210.39027 201.904037 
L 210.830778 201.789676 
L 210.830778 201.789676 
L 211.271287 201.943673 
L 211.271287 201.943673 
L 211.711795 202.228274 
L 211.711795 202.228274 
L 213.033319 202.636379 
L 213.033319 202.636379 
L 213.473828 202.224239 
L 213.473828 202.224239 
L 214.795352 202.636072 
L 214.795352 202.636072 
L 215.23586 202.242371 
L 215.23586 202.242371 
L 216.557385 202.53826 
L 216.557385 202.53826 
L 217.87891 201.99858 
L 217.87891 201.99858 
L 218.319418 201.87385 
L 218.319418 201.87385 
L 220.081451 200.18402 
L 220.081451 200.18402 
L 221.402975 197.483988 
L 221.402975 197.483988 
L 221.843483 197.110309 
L 221.843483 197.110309 
L 222.283992 194.658154 
L 222.283992 194.658154 
L 222.7245 194.462274 
L 222.7245 194.462274 
L 223.165008 191.842433 
L 223.165008 191.842433 
L 223.605516 191.845191 
L 223.605516 191.845191 
L 224.046024 187.55069 
L 224.046024 187.55069 
L 224.486533 187.718988 
L 224.927041 183.180339 
L 224.927041 183.180339 
L 225.367549 183.443385 
L 225.367549 183.443385 
L 225.808057 177.077303 
L 225.808057 177.077303 
L 226.248565 177.355213 
L 226.248565 177.355213 
L 226.689074 170.764495 
L 227.129582 170.943213 
L 227.129582 170.943213 
L 227.57009 162.885564 
L 227.57009 162.885564 
L 228.010598 162.700001 
L 228.010598 162.700001 
L 228.451106 154.099403 
L 228.451106 154.099403 
L 228.891615 153.014171 
L 228.891615 153.014171 
L 229.332123 144.46705 
L 229.332123 144.46705 
L 229.772631 141.536151 
L 229.772631 141.536151 
L 230.213139 137.005878 
L 230.213139 137.005878 
L 230.653647 143.040777 
L 230.653647 143.040777 
L 231.094156 141.290726 
L 231.094156 141.290726 
L 231.534664 148.352885 
L 231.534664 148.352885 
L 231.975172 148.329492 
L 232.41568 153.034244 
L 232.41568 153.034244 
L 232.856188 154.177398 
L 232.856188 154.177398 
L 233.296697 156.408951 
L 233.296697 156.408951 
L 233.737205 160.873897 
L 233.737205 160.873897 
L 234.177713 160.30495 
L 234.177713 160.30495 
L 234.618221 162.93802 
L 234.618221 162.93802 
L 235.058729 163.219096 
L 235.058729 163.219096 
L 235.499238 164.560378 
L 235.499238 164.560378 
L 235.939746 165.539728 
L 236.380254 165.953707 
L 236.380254 165.953707 
L 236.820762 166.983163 
L 236.820762 166.983163 
L 237.261271 167.078269 
L 237.261271 167.078269 
L 237.701779 167.785532 
L 237.701779 167.785532 
L 238.142287 167.753404 
L 238.142287 167.753404 
L 238.582795 168.055372 
L 238.582795 168.055372 
L 239.023303 167.883651 
L 239.023303 167.883651 
L 239.90432 168.255849 
L 239.90432 168.255849 
L 240.344828 168.125602 
L 240.785336 168.306466 
L 240.785336 168.306466 
L 241.225844 168.181123 
L 241.225844 168.181123 
L 241.666353 168.369597 
L 242.106861 167.879054 
L 242.106861 167.879054 
L 242.547369 168.07427 
L 242.547369 168.07427 
L 242.987877 167.792427 
L 242.987877 167.792427 
L 243.428385 167.947293 
L 243.428385 167.947293 
L 243.868894 167.577955 
L 243.868894 167.577955 
L 244.309402 167.585974 
L 244.309402 167.585974 
L 244.74991 167.370276 
L 244.74991 167.370276 
L 245.190418 165.877398 
L 245.630926 166.25169 
L 246.071435 164.892225 
L 246.071435 164.892225 
L 246.511943 164.916384 
L 246.511943 164.916384 
L 246.952451 163.957108 
L 246.952451 163.957108 
L 247.392959 160.734405 
L 247.392959 160.734405 
L 247.833467 162.065931 
L 247.833467 162.065931 
L 248.273976 158.745417 
L 248.273976 158.745417 
L 248.714484 159.353437 
L 248.714484 159.353437 
L 249.154992 156.787738 
L 249.154992 156.787738 
L 249.5955 155.802514 
L 249.5955 155.802514 
L 250.036008 154.122081 
L 250.036008 154.122081 
L 250.476517 148.845369 
L 250.476517 148.845369 
L 250.917025 150.07091 
L 250.917025 150.07091 
L 251.357533 145.563111 
L 251.357533 145.563111 
L 251.798041 145.212774 
L 252.238549 142.357929 
L 252.238549 142.357929 
L 252.679058 135.409569 
L 252.679058 135.409569 
L 253.119566 137.203188 
L 253.119566 137.203188 
L 253.560074 131.337405 
L 253.560074 131.337405 
L 254.000582 131.25604 
L 254.000582 131.25604 
L 254.44109 127.041831 
L 254.44109 127.041831 
L 254.881599 119.209431 
L 254.881599 119.209431 
L 255.322107 121.047845 
L 255.322107 121.047845 
L 255.762615 114.529452 
L 256.203123 113.566651 
L 256.203123 113.566651 
L 256.643631 109.352902 
L 256.643631 109.352902 
L 257.08414 100.59892 
L 257.08414 100.59892 
L 257.524648 100.774216 
L 257.524648 100.774216 
L 257.965156 95.160958 
L 257.965156 95.160958 
L 258.405664 85.47145 
L 258.405664 85.47145 
L 258.846172 86.195057 
L 258.846172 86.195057 
L 259.286681 86.411113 
L 259.286681 86.411113 
L 259.727189 95.357962 
L 259.727189 95.357962 
L 260.167697 95.15917 
L 260.167697 95.15917 
L 260.608205 101.281972 
L 260.608205 101.281972 
L 261.048713 113.344568 
L 261.048713 113.344568 
L 261.489222 113.821371 
L 261.92973 120.234597 
L 261.92973 120.234597 
L 262.370238 131.74786 
L 262.370238 131.74786 
L 262.810746 132.804183 
L 262.810746 132.804183 
L 263.251254 138.939806 
L 263.251254 138.939806 
L 263.691763 149.985459 
L 263.691763 149.985459 
L 264.132271 150.487188 
L 264.132271 150.487188 
L 264.572779 156.019744 
L 264.572779 156.019744 
L 265.013287 168.689135 
L 265.013287 168.689135 
L 265.453795 166.644676 
L 265.453795 166.644676 
L 265.894304 174.807902 
L 265.894304 174.807902 
L 266.334812 176.968356 
L 266.334812 176.968356 
L 266.77532 182.143118 
L 266.77532 182.143118 
L 267.215828 193.445995 
L 267.215828 193.445995 
L 267.656336 190.757456 
L 267.656336 190.757456 
L 268.096845 200.369582 
L 268.096845 200.369582 
L 268.537353 199.266013 
L 268.537353 199.266013 
L 268.977861 206.972866 
L 268.977861 206.972866 
L 269.418369 206.748587 
L 269.418369 206.748587 
L 269.858878 213.986502 
L 269.858878 213.986502 
L 270.299386 214.212517 
L 270.299386 214.212517 
L 270.739894 220.683869 
L 270.739894 220.683869 
L 271.180402 220.857786 
L 271.180402 220.857786 
L 271.62091 227.282147 
L 271.62091 227.282147 
L 272.061419 227.276835 
L 272.501927 233.67152 
L 272.501927 233.67152 
L 272.942435 232.843306 
L 272.942435 232.843306 
L 273.382943 239.751417 
L 273.823451 237.960403 
L 274.26396 240.293957 
L 274.26396 240.293957 
L 274.704468 243.43325 
L 274.704468 243.43325 
L 275.144976 245.13299 
L 275.585484 248.987975 
L 275.585484 248.987975 
L 276.025992 249.077359 
L 276.025992 249.077359 
L 276.466501 253.998218 
L 276.466501 253.998218 
L 276.907009 252.580372 
L 276.907009 252.580372 
L 277.347517 254.469761 
L 277.347517 254.469761 
L 277.788025 256.919872 
L 277.788025 256.919872 
L 278.228533 257.341768 
L 278.669042 260.852289 
L 278.669042 260.852289 
L 279.10955 260.148142 
L 279.10955 260.148142 
L 279.550058 261.364081 
L 279.550058 261.364081 
L 279.990566 263.005388 
L 280.431074 263.632971 
L 280.431074 263.632971 
L 280.871583 265.570628 
L 280.871583 265.570628 
L 281.312091 265.565214 
L 281.312091 265.565214 
L 281.752599 267.440096 
L 281.752599 267.440096 
L 282.193107 267.313323 
L 282.193107 267.313323 
L 282.633615 267.720816 
L 283.074124 268.386144 
L 283.074124 268.386144 
L 283.514632 268.539426 
L 283.514632 268.539426 
L 283.95514 269.304355 
L 283.95514 269.304355 
L 284.395648 269.388019 
L 284.395648 269.388019 
L 284.836156 269.34915 
L 284.836156 269.34915 
L 285.276665 269.689322 
L 285.276665 269.689322 
L 285.717173 269.884028 
L 285.717173 269.884028 
L 286.157681 269.746018 
L 286.157681 269.746018 
L 287.038697 269.826566 
L 287.038697 269.826566 
L 287.479206 270.128125 
L 288.360222 269.798065 
L 288.360222 269.798065 
L 289.681747 269.919067 
L 289.681747 269.919067 
L 290.122255 269.787595 
L 290.122255 269.787595 
L 290.562763 269.859409 
L 290.562763 269.859409 
L 291.003271 269.635743 
L 291.003271 269.635743 
L 292.324796 269.8685 
L 292.324796 269.8685 
L 292.765304 269.499061 
L 293.205812 269.940774 
L 293.205812 269.940774 
L 293.64632 269.720684 
L 293.64632 269.720684 
L 294.086829 268.998711 
L 294.967845 269.392821 
L 294.967845 269.392821 
L 295.408353 268.05823 
L 295.408353 268.05823 
L 295.848861 268.503519 
L 295.848861 268.503519 
L 296.28937 269.10965 
L 296.28937 269.10965 
L 296.729878 268.622426 
L 296.729878 268.622426 
L 297.170386 267.245646 
L 297.170386 267.245646 
L 297.610894 267.843094 
L 297.610894 267.843094 
L 298.051402 267.518551 
L 298.051402 267.518551 
L 298.491911 265.336797 
L 298.491911 265.336797 
L 298.932419 266.122208 
L 298.932419 266.122208 
L 299.372927 265.87331 
L 299.372927 265.87331 
L 299.813435 262.749237 
L 299.813435 262.749237 
L 300.253944 263.783802 
L 300.253944 263.783802 
L 300.694452 263.465081 
L 301.13496 259.613621 
L 301.13496 259.613621 
L 301.575468 260.97421 
L 301.575468 260.97421 
L 302.015976 259.937041 
L 302.015976 259.937041 
L 302.456485 256.138446 
L 302.456485 256.138446 
L 302.896993 256.530666 
L 302.896993 256.530666 
L 303.337501 250.173216 
L 303.337501 250.173216 
L 303.778009 252.577614 
L 303.778009 252.577614 
L 304.218517 250.328235 
L 304.218517 250.328235 
L 304.659026 245.29184 
L 304.659026 245.29184 
L 305.099534 245.043299 
L 305.099534 245.043299 
L 305.540042 236.425386 
L 305.540042 236.425386 
L 305.98055 238.979746 
L 305.98055 238.979746 
L 306.421058 236.403168 
L 306.421058 236.403168 
L 306.861567 228.603202 
L 306.861567 228.603202 
L 307.302075 229.649207 
L 307.302075 229.649207 
L 307.742583 226.269494 
L 307.742583 226.269494 
L 308.183091 219.241404 
L 308.623599 218.201323 
L 308.623599 218.201323 
L 309.064108 220.99646 
L 309.064108 220.99646 
L 309.504616 219.519722 
L 309.504616 219.519722 
L 309.945124 222.119183 
L 309.945124 222.119183 
L 310.385632 230.98676 
L 310.385632 230.98676 
L 310.82614 233.284918 
L 310.82614 233.284918 
L 311.266649 244.03601 
L 311.266649 244.03601 
L 311.707157 242.946385 
L 311.707157 242.946385 
L 312.147665 254.869336 
L 312.147665 254.869336 
L 312.588173 251.446259 
L 312.588173 251.446259 
L 313.028681 255.410496 
L 313.028681 255.410496 
L 313.46919 260.485301 
L 313.46919 260.485301 
L 313.909698 261.817082 
L 313.909698 261.817082 
L 314.350206 269.575523 
L 314.350206 269.575523 
L 314.790714 267.197685 
L 314.790714 267.197685 
L 315.231222 269.484095 
L 315.231222 269.484095 
L 315.671731 275.743273 
L 315.671731 275.743273 
L 316.112239 273.746265 
L 316.112239 273.746265 
L 316.552747 275.154968 
L 316.552747 275.154968 
L 316.993255 281.947543 
L 316.993255 281.947543 
L 317.433763 280.333051 
L 317.433763 280.333051 
L 317.874272 279.7805 
L 317.874272 279.7805 
L 318.31478 281.082554 
L 318.31478 281.082554 
L 318.755288 285.557051 
L 318.755288 285.557051 
L 319.195796 284.495518 
L 319.195796 284.495518 
L 319.636304 284.793399 
L 319.636304 284.793399 
L 320.076813 289.577014 
L 320.076813 289.577014 
L 320.517321 288.376705 
L 320.517321 288.376705 
L 320.957829 287.673324 
L 320.957829 287.673324 
L 321.398337 288.46374 
L 321.398337 288.46374 
L 321.838845 291.350203 
L 321.838845 291.350203 
L 322.279354 290.639926 
L 322.279354 290.639926 
L 322.719862 290.537415 
L 322.719862 290.537415 
L 323.16037 291.355719 
L 323.16037 291.355719 
L 323.600878 292.831486 
L 323.600878 292.831486 
L 324.041386 292.727187 
L 324.041386 292.727187 
L 324.481895 292.968424 
L 324.481895 292.968424 
L 324.922403 294.278906 
L 324.922403 294.278906 
L 325.362911 293.982404 
L 325.362911 293.982404 
L 325.803419 293.90206 
L 325.803419 293.90206 
L 326.243927 294.057793 
L 326.243927 294.057793 
L 326.684436 294.557173 
L 327.565452 294.627046 
L 327.565452 294.627046 
L 328.00596 294.82165 
L 328.00596 294.82165 
L 328.446468 294.869713 
L 328.446468 294.869713 
L 328.886977 295.183939 
L 328.886977 295.183939 
L 329.327485 295.276184 
L 329.327485 295.276184 
L 330.208501 295.042507 
L 330.208501 295.042507 
L 332.411042 295.488 
L 332.411042 295.488 
L 334.613583 294.819351 
L 334.613583 294.819351 
L 335.054092 294.060603 
L 335.054092 294.060603 
L 335.4946 294.230536 
L 335.4946 294.230536 
L 335.935108 294.058406 
L 335.935108 294.058406 
L 336.375616 293.258081 
L 336.375616 293.258081 
L 336.816124 293.559997 
L 336.816124 293.559997 
L 337.256633 293.302058 
L 337.256633 293.302058 
L 337.697141 291.004667 
L 337.697141 291.004667 
L 338.137649 291.416807 
L 338.137649 291.416807 
L 338.578157 292.024776 
L 338.578157 292.024776 
L 339.459174 291.251369 
L 339.459174 291.251369 
L 339.899682 288.347846 
L 339.899682 288.347846 
L 340.780698 289.587485 
L 340.780698 289.587485 
L 341.221206 289.352326 
L 341.221206 289.352326 
L 341.661715 288.681686 
L 341.661715 288.681686 
L 342.102223 285.038824 
L 342.102223 285.038824 
L 342.542731 286.262629 
L 342.542731 286.262629 
L 342.983239 286.975714 
L 342.983239 286.975714 
L 343.423747 285.709618 
L 343.423747 285.709618 
L 343.864256 280.676748 
L 343.864256 280.676748 
L 344.304764 281.898969 
L 344.304764 281.898969 
L 344.745272 282.762527 
L 344.745272 282.762527 
L 345.18578 281.339625 
L 345.18578 281.339625 
L 345.626288 275.593311 
L 345.626288 275.593311 
L 346.066797 277.737829 
L 346.066797 277.737829 
L 346.507305 277.327681 
L 346.507305 277.327681 
L 346.947813 267.944635 
L 346.947813 267.944635 
L 347.388321 270.31951 
L 347.388321 270.31951 
L 347.828829 271.949632 
L 347.828829 271.949632 
L 348.269338 269.343429 
L 348.269338 269.343429 
L 348.709846 261.742612 
L 348.709846 261.742612 
L 349.150354 264.652723 
L 349.150354 264.652723 
L 349.590862 262.116342 
L 349.590862 262.116342 
L 350.03137 251.497897 
L 350.03137 251.497897 
L 350.471879 254.852225 
L 350.471879 254.852225 
L 350.912387 253.256836 
L 350.912387 253.256836 
L 351.352895 239.103199 
L 351.352895 239.103199 
L 351.793403 242.807609 
L 351.793403 242.807609 
L 352.233911 242.555186 
L 352.233911 242.555186 
L 352.67442 238.722165 
L 352.67442 238.722165 
L 353.114928 228.381272 
L 353.555436 229.63797 
L 353.555436 229.63797 
L 353.995944 225.292443 
L 353.995944 225.292443 
L 354.436452 231.786319 
L 354.436452 231.786319 
L 354.876961 229.598692 
L 354.876961 229.598692 
L 355.317469 233.580654 
L 355.317469 233.580654 
L 355.757977 241.566285 
L 355.757977 241.566285 
L 356.198485 240.184397 
L 356.198485 240.184397 
L 356.638993 243.558798 
L 356.638993 243.558798 
L 357.079502 248.867893 
L 357.079502 248.867893 
L 357.52001 248.996453 
L 357.52001 248.996453 
L 357.960518 257.009615 
L 357.960518 257.009615 
L 358.401026 254.39764 
L 358.401026 254.39764 
L 358.841534 256.317573 
L 358.841534 256.317573 
L 359.282043 260.960879 
L 359.282043 260.960879 
L 359.722551 260.057583 
L 359.722551 260.057583 
L 360.163059 266.572962 
L 360.603567 264.710032 
L 360.603567 264.710032 
L 361.044075 264.883336 
L 361.044075 264.883336 
L 361.484584 269.473778 
L 361.484584 269.473778 
L 361.925092 268.198692 
L 362.3656 268.611802 
L 362.806108 272.372856 
L 362.806108 272.372856 
L 363.246617 271.253913 
L 363.246617 271.253913 
L 363.687125 271.508021 
L 363.687125 271.508021 
L 364.127633 274.391265 
L 364.127633 274.391265 
L 364.568141 273.74652 
L 364.568141 273.74652 
L 365.008649 273.82666 
L 365.008649 273.82666 
L 365.449158 274.662586 
L 365.449158 274.662586 
L 365.889666 275.838276 
L 365.889666 275.838276 
L 366.330174 275.747512 
L 366.330174 275.747512 
L 366.770682 277.134661 
L 366.770682 277.134661 
L 367.21119 276.845923 
L 367.21119 276.845923 
L 368.092207 277.859494 
L 368.092207 277.859494 
L 368.532715 277.968697 
L 368.532715 277.968697 
L 368.973223 278.384566 
L 368.973223 278.384566 
L 369.413731 278.363267 
L 369.413731 278.363267 
L 369.85424 278.559402 
L 369.85424 278.559402 
L 371.175764 278.542751 
L 371.175764 278.542751 
L 371.616272 278.836597 
L 371.616272 278.836597 
L 372.497289 278.505465 
L 372.497289 278.505465 
L 373.818813 278.675194 
L 373.818813 278.675194 
L 374.259322 278.482889 
L 374.259322 278.482889 
L 374.69983 278.796144 
L 375.580846 278.341712 
L 375.580846 278.341712 
L 376.902371 278.536367 
L 376.902371 278.536367 
L 377.342879 278.102672 
L 377.342879 278.102672 
L 377.783387 278.272554 
L 377.783387 278.272554 
L 378.223895 278.305652 
L 378.223895 278.305652 
L 378.664404 277.456548 
L 378.664404 277.456548 
L 379.54542 277.907405 
L 379.54542 277.907405 
L 379.985928 277.782011 
L 379.985928 277.782011 
L 380.426436 276.829425 
L 380.426436 276.829425 
L 380.866945 277.233137 
L 380.866945 277.233137 
L 381.307453 276.987559 
L 381.307453 276.987559 
L 381.747961 275.565219 
L 381.747961 275.565219 
L 382.188469 276.151531 
L 382.188469 276.151531 
L 382.628977 275.873264 
L 382.628977 275.873264 
L 383.069486 273.863487 
L 383.069486 273.863487 
L 383.509994 274.568451 
L 383.509994 274.568451 
L 383.950502 274.450361 
L 383.950502 274.450361 
L 384.39101 271.587496 
L 384.39101 271.587496 
L 385.272027 273.013361 
L 385.272027 273.013361 
L 385.712535 272.145819 
L 385.712535 272.145819 
L 386.153043 269.780699 
L 386.153043 269.780699 
L 386.593551 270.582761 
L 386.593551 270.582761 
L 387.034059 269.834177 
L 387.034059 269.834177 
L 387.474568 266.921563 
L 387.474568 266.921563 
L 387.915076 267.786654 
L 387.915076 267.786654 
L 388.355584 266.835396 
L 388.355584 266.835396 
L 388.796092 264.066411 
L 388.796092 264.066411 
L 389.2366 264.209477 
L 389.2366 264.209477 
L 389.677109 259.76057 
L 389.677109 259.76057 
L 390.117617 261.21514 
L 390.117617 261.21514 
L 390.558125 259.930656 
L 390.558125 259.930656 
L 390.998633 256.581794 
L 390.998633 256.581794 
L 391.439141 256.664641 
L 391.439141 256.664641 
L 391.87965 251.362441 
L 391.87965 251.362441 
L 392.320158 252.860682 
L 392.320158 252.860682 
L 392.760666 251.980728 
L 393.201174 246.996176 
L 393.201174 246.996176 
L 393.641682 248.498606 
L 393.641682 248.498606 
L 394.082191 247.370826 
L 394.082191 247.370826 
L 394.522699 242.040177 
L 394.522699 242.040177 
L 394.963207 243.618609 
L 394.963207 243.618609 
L 395.403715 242.669343 
L 395.403715 242.669343 
L 395.844224 236.814389 
L 395.844224 236.814389 
L 396.284732 238.591306 
L 396.284732 238.591306 
L 396.72524 237.551889 
L 397.165748 231.726815 
L 397.165748 231.726815 
L 397.606256 233.758351 
L 397.606256 233.758351 
L 398.046765 231.76027 
L 398.046765 231.76027 
L 398.487273 226.946264 
L 398.487273 226.946264 
" clip-path="url(#p7f9ac14cd2)" style="fill: none; stroke: #ff7f0e; stroke-width: 1.5; stroke-linecap: square"/>
   </g>
   <g id="patch_3">
    <path d="M 57.6 307.584 
L 57.6 41.472 
" style="fill: none; stroke: #000000; stroke-width: 0.8; stroke-linejoin: miter; stroke-linecap: square"/>
   </g>
   <g id="patch_4">
    <path d="M 414.72 307.584 
L 414.72 41.472 
" style="fill: none; stroke: #000000; stroke-width: 0.8; stroke-linejoin: miter; stroke-linecap: square"/>
   </g>
   <g id="patch_5">
    <path d="M 57.6 307.584 
L 414.72 307.584 
" style="fill: none; stroke: #000000; stroke-width: 0.8; stroke-linejoin: miter; stroke-linecap: square"/>
   </g>
   <g id="patch_6">
    <path d="M 57.6 41.472 
L 414.72 41.472 
" style="fill: none; stroke: #000000; stroke-width: 0.8; stroke-linejoin: miter; stroke-linecap: square"/>
   </g>
   <g id="text_16">
    <!-- Actual speed vs Expected speed -->
    <g transform="translate(138.808125 35.472) scale(0.12 -0.12)">
     <defs>
      <path id="DejaVuSans-41" d="M 2188 4044 
L 1331 1722 
L 3047 1722 
L 2188 4044 
z
M 1831 4666 
L 2547 4666 
L 4325 0 
L 3669 0 
L 3244 1197 
L 1141 1197 
L 716 0 
L 50 0 
L 1831 4666 
z
" transform="scale(0.015625)"/>
      <path id="DejaVuSans-75" d="M 544 1381 
L 544 3500 
L 1119 3500 
L 1119 1403 
Q 1119 906 1312 657 
Q 1506 409 1894 409 
Q 2359 409 2629 706 
Q 2900 1003 2900 1516 
L 2900 3500 
L 3475 3500 
L 3475 0 
L 2900 0 
L 2900 538 
Q 2691 219 2414 64 
Q 2138 -91 1772 -91 
Q 1169 -91 856 284 
Q 544 659 544 1381 
z
M 1991 3584 
L 1991 3584 
z
" transform="scale(0.015625)"/>
      <path id="DejaVuSans-61" d="M 2194 1759 
Q 1497 1759 1228 1600 
Q 959 1441 959 1056 
Q 959 750 1161 570 
Q 1363 391 1709 391 
Q 2188 391 2477 730 
Q 2766 1069 2766 1631 
L 2766 1759 
L 2194 1759 
z
M 3341 1997 
L 3341 0 
L 2766 0 
L 2766 531 
Q 2569 213 2275 61 
Q 1981 -91 1556 -91 
Q 1019 -91 701 211 
Q 384 513 384 1019 
Q 384 1609 779 1909 
Q 1175 2209 1959 2209 
L 2766 2209 
L 2766 2266 
Q 2766 2663 2505 2880 
Q 2244 3097 1772 3097 
Q 1472 3097 1187 3025 
Q 903 2953 641 2809 
L 641 3341 
Q 956 3463 1253 3523 
Q 1550 3584 1831 3584 
Q 2591 3584 2966 3190 
Q 3341 2797 3341 1997 
z
" transform="scale(0.015625)"/>
      <path id="DejaVuSans-20" transform="scale(0.015625)"/>
      <path id="DejaVuSans-70" d="M 1159 525 
L 1159 -1331 
L 581 -1331 
L 581 3500 
L 1159 3500 
L 1159 2969 
Q 1341 3281 1617 3432 
Q 1894 3584 2278 3584 
Q 2916 3584 3314 3078 
Q 3713 2572 3713 1747 
Q 3713 922 3314 415 
Q 2916 -91 2278 -91 
Q 1894 -91 1617 61 
Q 1341 213 1159 525 
z
M 3116 1747 
Q 3116 2381 2855 2742 
Q 2594 3103 2138 3103 
Q 1681 3103 1420 2742 
Q 1159 2381 1159 1747 
Q 1159 1113 1420 752 
Q 1681 391 2138 391 
Q 2594 391 2855 752 
Q 3116 1113 3116 1747 
z
" transform="scale(0.015625)"/>
      <path id="DejaVuSans-64" d="M 2906 2969 
L 2906 4863 
L 3481 4863 
L 3481 0 
L 2906 0 
L 2906 525 
Q 2725 213 2448 61 
Q 2172 -91 1784 -91 
Q 1150 -91 751 415 
Q 353 922 353 1747 
Q 353 2572 751 3078 
Q 1150 3584 1784 3584 
Q 2172 3584 2448 3432 
Q 2725 3281 2906 2969 
z
M 947 1747 
Q 947 1113 1208 752 
Q 1469 391 1925 391 
Q 2381 391 2643 752 
Q 2906 1113 2906 1747 
Q 2906 2381 2643 2742 
Q 2381 3103 1925 3103 
Q 1469 3103 1208 2742 
Q 947 2381 947 1747 
z
" transform="scale(0.015625)"/>
      <path id="DejaVuSans-76" d="M 191 3500 
L 800 3500 
L 1894 563 
L 2988 3500 
L 3597 3500 
L 2284 0 
L 1503 0 
L 191 3500 
z
" transform="scale(0.015625)"/>
      <path id="DejaVuSans-45" d="M 628 4666 
L 3578 4666 
L 3578 4134 
L 1259 4134 
L 1259 2753 
L 3481 2753 
L 3481 2222 
L 1259 2222 
L 1259 531 
L 3634 531 
L 3634 0 
L 628 0 
L 628 4666 
z
" transform="scale(0.015625)"/>
      <path id="DejaVuSans-78" d="M 3513 3500 
L 2247 1797 
L 3578 0 
L 2900 0 
L 1881 1375 
L 863 0 
L 184 0 
L 1544 1831 
L 300 3500 
L 978 3500 
L 1906 2253 
L 2834 3500 
L 3513 3500 
z
" transform="scale(0.015625)"/>
     </defs>
     <use xlink:href="#DejaVuSans-41"/>
     <use xlink:href="#DejaVuSans-63" x="66.658203"/>
     <use xlink:href="#DejaVuSans-74" x="121.638672"/>
     <use xlink:href="#DejaVuSans-75" x="160.847656"/>
     <use xlink:href="#DejaVuSans-61" x="224.226562"/>
     <use xlink:href="#DejaVuSans-6c" x="285.505859"/>
     <use xlink:href="#DejaVuSans-20" x="313.289062"/>
     <use xlink:href="#DejaVuSans-73" x="345.076172"/>
     <use xlink:href="#DejaVuSans-70" x="397.175781"/>
     <use xlink:href="#DejaVuSans-65" x="460.652344"/>
     <use xlink:href="#DejaVuSans-65" x="522.175781"/>
     <use xlink:href="#DejaVuSans-64" x="583.699219"/>
     <use xlink:href="#DejaVuSans-20" x="647.175781"/>
     <use xlink:href="#DejaVuSans-76" x="678.962891"/>
     <use xlink:href="#DejaVuSans-73" x="738.142578"/>
     <use xlink:href="#DejaVuSans-20" x="790.242188"/>
     <use xlink:href="#DejaVuSans-45" x="822.029297"/>
     <use xlink:href="#DejaVuSans-78" x="885.212891"/>
     <use xlink:href="#DejaVuSans-70" x="944.392578"/>
     <use xlink:href="#DejaVuSans-65" x="1007.869141"/>
     <use xlink:href="#DejaVuSans-63" x="1069.392578"/>
     <use xlink:href="#DejaVuSans-74" x="1124.373047"/>
     <use xlink:href="#DejaVuSans-65" x="1163.582031"/>
     <use xlink:href="#DejaVuSans-64" x="1225.105469"/>
     <use xlink:href="#DejaVuSans-20" x="1288.582031"/>
     <use xlink:href="#DejaVuSans-73" x="1320.369141"/>
     <use xlink:href="#DejaVuSans-70" x="1372.46875"/>
     <use xlink:href="#DejaVuSans-65" x="1435.945312"/>
     <use xlink:href="#DejaVuSans-65" x="1497.46875"/>
     <use xlink:href="#DejaVuSans-64" x="1558.992188"/>
    </g>
   </g>
   <g id="legend_1">
    <g id="patch_7">
     <path d="M 295.67 78.82825 
L 407.72 78.82825 
Q 409.72 78.82825 409.72 76.82825 
L 409.72 48.472 
Q 409.72 46.472 407.72 46.472 
L 295.67 46.472 
Q 293.67 46.472 293.67 48.472 
L 293.67 76.82825 
Q 293.67 78.82825 295.67 78.82825 
z
" style="fill: #ffffff; opacity: 0.8; stroke: #cccccc; stroke-linejoin: miter"/>
    </g>
    <g id="line2d_29">
     <path d="M 297.67 54.570437 
L 307.67 54.570437 
L 317.67 54.570437 
" style="fill: none; stroke: #1f77b4; stroke-width: 1.5; stroke-linecap: square"/>
    </g>
    <g id="text_17">
     <!-- Actual speed -->
     <g transform="translate(325.67 58.070437) scale(0.1 -0.1)">
      <use xlink:href="#DejaVuSans-41"/>
      <use xlink:href="#DejaVuSans-63" x="66.658203"/>
      <use xlink:href="#DejaVuSans-74" x="121.638672"/>
      <use xlink:href="#DejaVuSans-75" x="160.847656"/>
      <use xlink:href="#DejaVuSans-61" x="224.226562"/>
      <use xlink:href="#DejaVuSans-6c" x="285.505859"/>
      <use xlink:href="#DejaVuSans-20" x="313.289062"/>
      <use xlink:href="#DejaVuSans-73" x="345.076172"/>
      <use xlink:href="#DejaVuSans-70" x="397.175781"/>
      <use xlink:href="#DejaVuSans-65" x="460.652344"/>
      <use xlink:href="#DejaVuSans-65" x="522.175781"/>
      <use xlink:href="#DejaVuSans-64" x="583.699219"/>
     </g>
    </g>
    <g id="line2d_30">
     <path d="M 297.67 69.248562 
L 307.67 69.248562 
L 317.67 69.248562 
" style="fill: none; stroke: #ff7f0e; stroke-width: 1.5; stroke-linecap: square"/>
    </g>
    <g id="text_18">
     <!-- Expected speed -->
     <g transform="translate(325.67 72.748562) scale(0.1 -0.1)">
      <use xlink:href="#DejaVuSans-45"/>
      <use xlink:href="#DejaVuSans-78" x="63.183594"/>
      <use xlink:href="#DejaVuSans-70" x="122.363281"/>
      <use xlink:href="#DejaVuSans-65" x="185.839844"/>
      <use xlink:href="#DejaVuSans-63" x="247.363281"/>
      <use xlink:href="#DejaVuSans-74" x="302.34375"/>
      <use xlink:href="#DejaVuSans-65" x="341.552734"/>
      <use xlink:href="#DejaVuSans-64" x="403.076172"/>
      <use xlink:href="#DejaVuSans-20" x="466.552734"/>
      <use xlink:href="#DejaVuSans-73" x="498.339844"/>
      <use xlink:href="#DejaVuSans-70" x="550.439453"/>
      <use xlink:href="#DejaVuSans-65" x="613.916016"/>
      <use xlink:href="#DejaVuSans-65" x="675.439453"/>
      <use xlink:href="#DejaVuSans-64" x="736.962891"/>
     </g>
    </g>
   </g>
  </g>
 </g>
 <defs>
  <clipPath id="p7f9ac14cd2">
   <rect x="57.6" y="41.472" width="357.12" height="266.112"/>
  </clipPath>
 </defs>
</svg>
