<?xml version="1.0" encoding="utf-8" standalone="no"?>
<!DOCTYPE svg PUBLIC "-//W3C//DTD SVG 1.1//EN"
  "http://www.w3.org/Graphics/SVG/1.1/DTD/svg11.dtd">
<svg xmlns:xlink="http://www.w3.org/1999/xlink" width="460.8pt" height="345.6pt" viewBox="0 0 460.8 345.6" xmlns="http://www.w3.org/2000/svg" version="1.1">
 <metadata>
  <rdf:RDF xmlns:dc="http://purl.org/dc/elements/1.1/" xmlns:cc="http://creativecommons.org/ns#" xmlns:rdf="http://www.w3.org/1999/02/22-rdf-syntax-ns#">
   <cc:Work>
    <dc:type rdf:resource="http://purl.org/dc/dcmitype/StillImage"/>
    <dc:date>2024-01-30T20:59:20.448410</dc:date>
    <dc:format>image/svg+xml</dc:format>
    <dc:creator>
     <cc:Agent>
      <dc:title>Matplotlib v3.7.1, https://matplotlib.org/</dc:title>
     </cc:Agent>
    </dc:creator>
   </cc:Work>
  </rdf:RDF>
 </metadata>
 <defs>
  <style type="text/css">*{stroke-linejoin: round; stroke-linecap: butt}</style>
 </defs>
 <g id="figure_1">
  <g id="patch_1">
   <path d="M 0 345.6 
L 460.8 345.6 
L 460.8 0 
L 0 0 
z
" style="fill: #ffffff"/>
  </g>
  <g id="axes_1">
   <g id="patch_2">
    <path d="M 57.6 307.584 
L 414.72 307.584 
L 414.72 41.472 
L 57.6 41.472 
z
" style="fill: #ffffff"/>
   </g>
   <g id="matplotlib.axis_1">
    <g id="xtick_1">
     <g id="line2d_1">
      <path d="M 73.832727 307.584 
L 73.832727 41.472 
" clip-path="url(#p424e6d6bdb)" style="fill: none; stroke: #b0b0b0; stroke-width: 0.8; stroke-linecap: square"/>
     </g>
     <g id="line2d_2">
      <defs>
       <path id="m958e5d4b65" d="M 0 0 
L 0 3.5 
" style="stroke: #000000; stroke-width: 0.8"/>
      </defs>
      <g>
       <use xlink:href="#m958e5d4b65" x="73.832727" y="307.584" style="stroke: #000000; stroke-width: 0.8"/>
      </g>
     </g>
     <g id="text_1">
      <!-- 0 -->
      <g transform="translate(70.651477 322.182437) scale(0.1 -0.1)">
       <defs>
        <path id="DejaVuSans-30" d="M 2034 4250 
Q 1547 4250 1301 3770 
Q 1056 3291 1056 2328 
Q 1056 1369 1301 889 
Q 1547 409 2034 409 
Q 2525 409 2770 889 
Q 3016 1369 3016 2328 
Q 3016 3291 2770 3770 
Q 2525 4250 2034 4250 
z
M 2034 4750 
Q 2819 4750 3233 4129 
Q 3647 3509 3647 2328 
Q 3647 1150 3233 529 
Q 2819 -91 2034 -91 
Q 1250 -91 836 529 
Q 422 1150 422 2328 
Q 422 3509 836 4129 
Q 1250 4750 2034 4750 
z
" transform="scale(0.015625)"/>
       </defs>
       <use xlink:href="#DejaVuSans-30"/>
      </g>
     </g>
    </g>
    <g id="xtick_2">
     <g id="line2d_3">
      <path d="M 131.972868 307.584 
L 131.972868 41.472 
" clip-path="url(#p424e6d6bdb)" style="fill: none; stroke: #b0b0b0; stroke-width: 0.8; stroke-linecap: square"/>
     </g>
     <g id="line2d_4">
      <g>
       <use xlink:href="#m958e5d4b65" x="131.972868" y="307.584" style="stroke: #000000; stroke-width: 0.8"/>
      </g>
     </g>
     <g id="text_2">
      <!-- 5 -->
      <g transform="translate(128.791618 322.182437) scale(0.1 -0.1)">
       <defs>
        <path id="DejaVuSans-35" d="M 691 4666 
L 3169 4666 
L 3169 4134 
L 1269 4134 
L 1269 2991 
Q 1406 3038 1543 3061 
Q 1681 3084 1819 3084 
Q 2600 3084 3056 2656 
Q 3513 2228 3513 1497 
Q 3513 744 3044 326 
Q 2575 -91 1722 -91 
Q 1428 -91 1123 -41 
Q 819 9 494 109 
L 494 744 
Q 775 591 1075 516 
Q 1375 441 1709 441 
Q 2250 441 2565 725 
Q 2881 1009 2881 1497 
Q 2881 1984 2565 2268 
Q 2250 2553 1709 2553 
Q 1456 2553 1204 2497 
Q 953 2441 691 2322 
L 691 4666 
z
" transform="scale(0.015625)"/>
       </defs>
       <use xlink:href="#DejaVuSans-35"/>
      </g>
     </g>
    </g>
    <g id="xtick_3">
     <g id="line2d_5">
      <path d="M 190.113009 307.584 
L 190.113009 41.472 
" clip-path="url(#p424e6d6bdb)" style="fill: none; stroke: #b0b0b0; stroke-width: 0.8; stroke-linecap: square"/>
     </g>
     <g id="line2d_6">
      <g>
       <use xlink:href="#m958e5d4b65" x="190.113009" y="307.584" style="stroke: #000000; stroke-width: 0.8"/>
      </g>
     </g>
     <g id="text_3">
      <!-- 10 -->
      <g transform="translate(183.750509 322.182437) scale(0.1 -0.1)">
       <defs>
        <path id="DejaVuSans-31" d="M 794 531 
L 1825 531 
L 1825 4091 
L 703 3866 
L 703 4441 
L 1819 4666 
L 2450 4666 
L 2450 531 
L 3481 531 
L 3481 0 
L 794 0 
L 794 531 
z
" transform="scale(0.015625)"/>
       </defs>
       <use xlink:href="#DejaVuSans-31"/>
       <use xlink:href="#DejaVuSans-30" x="63.623047"/>
      </g>
     </g>
    </g>
    <g id="xtick_4">
     <g id="line2d_7">
      <path d="M 248.253149 307.584 
L 248.253149 41.472 
" clip-path="url(#p424e6d6bdb)" style="fill: none; stroke: #b0b0b0; stroke-width: 0.8; stroke-linecap: square"/>
     </g>
     <g id="line2d_8">
      <g>
       <use xlink:href="#m958e5d4b65" x="248.253149" y="307.584" style="stroke: #000000; stroke-width: 0.8"/>
      </g>
     </g>
     <g id="text_4">
      <!-- 15 -->
      <g transform="translate(241.890649 322.182437) scale(0.1 -0.1)">
       <use xlink:href="#DejaVuSans-31"/>
       <use xlink:href="#DejaVuSans-35" x="63.623047"/>
      </g>
     </g>
    </g>
    <g id="xtick_5">
     <g id="line2d_9">
      <path d="M 306.39329 307.584 
L 306.39329 41.472 
" clip-path="url(#p424e6d6bdb)" style="fill: none; stroke: #b0b0b0; stroke-width: 0.8; stroke-linecap: square"/>
     </g>
     <g id="line2d_10">
      <g>
       <use xlink:href="#m958e5d4b65" x="306.39329" y="307.584" style="stroke: #000000; stroke-width: 0.8"/>
      </g>
     </g>
     <g id="text_5">
      <!-- 20 -->
      <g transform="translate(300.03079 322.182437) scale(0.1 -0.1)">
       <defs>
        <path id="DejaVuSans-32" d="M 1228 531 
L 3431 531 
L 3431 0 
L 469 0 
L 469 531 
Q 828 903 1448 1529 
Q 2069 2156 2228 2338 
Q 2531 2678 2651 2914 
Q 2772 3150 2772 3378 
Q 2772 3750 2511 3984 
Q 2250 4219 1831 4219 
Q 1534 4219 1204 4116 
Q 875 4013 500 3803 
L 500 4441 
Q 881 4594 1212 4672 
Q 1544 4750 1819 4750 
Q 2544 4750 2975 4387 
Q 3406 4025 3406 3419 
Q 3406 3131 3298 2873 
Q 3191 2616 2906 2266 
Q 2828 2175 2409 1742 
Q 1991 1309 1228 531 
z
" transform="scale(0.015625)"/>
       </defs>
       <use xlink:href="#DejaVuSans-32"/>
       <use xlink:href="#DejaVuSans-30" x="63.623047"/>
      </g>
     </g>
    </g>
    <g id="xtick_6">
     <g id="line2d_11">
      <path d="M 364.533431 307.584 
L 364.533431 41.472 
" clip-path="url(#p424e6d6bdb)" style="fill: none; stroke: #b0b0b0; stroke-width: 0.8; stroke-linecap: square"/>
     </g>
     <g id="line2d_12">
      <g>
       <use xlink:href="#m958e5d4b65" x="364.533431" y="307.584" style="stroke: #000000; stroke-width: 0.8"/>
      </g>
     </g>
     <g id="text_6">
      <!-- 25 -->
      <g transform="translate(358.170931 322.182437) scale(0.1 -0.1)">
       <use xlink:href="#DejaVuSans-32"/>
       <use xlink:href="#DejaVuSans-35" x="63.623047"/>
      </g>
     </g>
    </g>
    <g id="text_7">
     <!-- Time(s) -->
     <g transform="translate(217.420156 335.860562) scale(0.1 -0.1)">
      <defs>
       <path id="DejaVuSans-54" d="M -19 4666 
L 3928 4666 
L 3928 4134 
L 2272 4134 
L 2272 0 
L 1638 0 
L 1638 4134 
L -19 4134 
L -19 4666 
z
" transform="scale(0.015625)"/>
       <path id="DejaVuSans-69" d="M 603 3500 
L 1178 3500 
L 1178 0 
L 603 0 
L 603 3500 
z
M 603 4863 
L 1178 4863 
L 1178 4134 
L 603 4134 
L 603 4863 
z
" transform="scale(0.015625)"/>
       <path id="DejaVuSans-6d" d="M 3328 2828 
Q 3544 3216 3844 3400 
Q 4144 3584 4550 3584 
Q 5097 3584 5394 3201 
Q 5691 2819 5691 2113 
L 5691 0 
L 5113 0 
L 5113 2094 
Q 5113 2597 4934 2840 
Q 4756 3084 4391 3084 
Q 3944 3084 3684 2787 
Q 3425 2491 3425 1978 
L 3425 0 
L 2847 0 
L 2847 2094 
Q 2847 2600 2669 2842 
Q 2491 3084 2119 3084 
Q 1678 3084 1418 2786 
Q 1159 2488 1159 1978 
L 1159 0 
L 581 0 
L 581 3500 
L 1159 3500 
L 1159 2956 
Q 1356 3278 1631 3431 
Q 1906 3584 2284 3584 
Q 2666 3584 2933 3390 
Q 3200 3197 3328 2828 
z
" transform="scale(0.015625)"/>
       <path id="DejaVuSans-65" d="M 3597 1894 
L 3597 1613 
L 953 1613 
Q 991 1019 1311 708 
Q 1631 397 2203 397 
Q 2534 397 2845 478 
Q 3156 559 3463 722 
L 3463 178 
Q 3153 47 2828 -22 
Q 2503 -91 2169 -91 
Q 1331 -91 842 396 
Q 353 884 353 1716 
Q 353 2575 817 3079 
Q 1281 3584 2069 3584 
Q 2775 3584 3186 3129 
Q 3597 2675 3597 1894 
z
M 3022 2063 
Q 3016 2534 2758 2815 
Q 2500 3097 2075 3097 
Q 1594 3097 1305 2825 
Q 1016 2553 972 2059 
L 3022 2063 
z
" transform="scale(0.015625)"/>
       <path id="DejaVuSans-28" d="M 1984 4856 
Q 1566 4138 1362 3434 
Q 1159 2731 1159 2009 
Q 1159 1288 1364 580 
Q 1569 -128 1984 -844 
L 1484 -844 
Q 1016 -109 783 600 
Q 550 1309 550 2009 
Q 550 2706 781 3412 
Q 1013 4119 1484 4856 
L 1984 4856 
z
" transform="scale(0.015625)"/>
       <path id="DejaVuSans-73" d="M 2834 3397 
L 2834 2853 
Q 2591 2978 2328 3040 
Q 2066 3103 1784 3103 
Q 1356 3103 1142 2972 
Q 928 2841 928 2578 
Q 928 2378 1081 2264 
Q 1234 2150 1697 2047 
L 1894 2003 
Q 2506 1872 2764 1633 
Q 3022 1394 3022 966 
Q 3022 478 2636 193 
Q 2250 -91 1575 -91 
Q 1294 -91 989 -36 
Q 684 19 347 128 
L 347 722 
Q 666 556 975 473 
Q 1284 391 1588 391 
Q 1994 391 2212 530 
Q 2431 669 2431 922 
Q 2431 1156 2273 1281 
Q 2116 1406 1581 1522 
L 1381 1569 
Q 847 1681 609 1914 
Q 372 2147 372 2553 
Q 372 3047 722 3315 
Q 1072 3584 1716 3584 
Q 2034 3584 2315 3537 
Q 2597 3491 2834 3397 
z
" transform="scale(0.015625)"/>
       <path id="DejaVuSans-29" d="M 513 4856 
L 1013 4856 
Q 1481 4119 1714 3412 
Q 1947 2706 1947 2009 
Q 1947 1309 1714 600 
Q 1481 -109 1013 -844 
L 513 -844 
Q 928 -128 1133 580 
Q 1338 1288 1338 2009 
Q 1338 2731 1133 3434 
Q 928 4138 513 4856 
z
" transform="scale(0.015625)"/>
      </defs>
      <use xlink:href="#DejaVuSans-54"/>
      <use xlink:href="#DejaVuSans-69" x="57.958984"/>
      <use xlink:href="#DejaVuSans-6d" x="85.742188"/>
      <use xlink:href="#DejaVuSans-65" x="183.154297"/>
      <use xlink:href="#DejaVuSans-28" x="244.677734"/>
      <use xlink:href="#DejaVuSans-73" x="283.691406"/>
      <use xlink:href="#DejaVuSans-29" x="335.791016"/>
     </g>
    </g>
   </g>
   <g id="matplotlib.axis_2">
    <g id="ytick_1">
     <g id="line2d_13">
      <path d="M 57.6 295.488 
L 414.72 295.488 
" clip-path="url(#p424e6d6bdb)" style="fill: none; stroke: #b0b0b0; stroke-width: 0.8; stroke-linecap: square"/>
     </g>
     <g id="line2d_14">
      <defs>
       <path id="m8bea9dd5f5" d="M 0 0 
L -3.5 0 
" style="stroke: #000000; stroke-width: 0.8"/>
      </defs>
      <g>
       <use xlink:href="#m8bea9dd5f5" x="57.6" y="295.488" style="stroke: #000000; stroke-width: 0.8"/>
      </g>
     </g>
     <g id="text_8">
      <!-- 0.00 -->
      <g transform="translate(28.334375 299.287219) scale(0.1 -0.1)">
       <defs>
        <path id="DejaVuSans-2e" d="M 684 794 
L 1344 794 
L 1344 0 
L 684 0 
L 684 794 
z
" transform="scale(0.015625)"/>
       </defs>
       <use xlink:href="#DejaVuSans-30"/>
       <use xlink:href="#DejaVuSans-2e" x="63.623047"/>
       <use xlink:href="#DejaVuSans-30" x="95.410156"/>
       <use xlink:href="#DejaVuSans-30" x="159.033203"/>
      </g>
     </g>
    </g>
    <g id="ytick_2">
     <g id="line2d_15">
      <path d="M 57.6 244.366332 
L 414.72 244.366332 
" clip-path="url(#p424e6d6bdb)" style="fill: none; stroke: #b0b0b0; stroke-width: 0.8; stroke-linecap: square"/>
     </g>
     <g id="line2d_16">
      <g>
       <use xlink:href="#m8bea9dd5f5" x="57.6" y="244.366332" style="stroke: #000000; stroke-width: 0.8"/>
      </g>
     </g>
     <g id="text_9">
      <!-- 0.05 -->
      <g transform="translate(28.334375 248.165551) scale(0.1 -0.1)">
       <use xlink:href="#DejaVuSans-30"/>
       <use xlink:href="#DejaVuSans-2e" x="63.623047"/>
       <use xlink:href="#DejaVuSans-30" x="95.410156"/>
       <use xlink:href="#DejaVuSans-35" x="159.033203"/>
      </g>
     </g>
    </g>
    <g id="ytick_3">
     <g id="line2d_17">
      <path d="M 57.6 193.244665 
L 414.72 193.244665 
" clip-path="url(#p424e6d6bdb)" style="fill: none; stroke: #b0b0b0; stroke-width: 0.8; stroke-linecap: square"/>
     </g>
     <g id="line2d_18">
      <g>
       <use xlink:href="#m8bea9dd5f5" x="57.6" y="193.244665" style="stroke: #000000; stroke-width: 0.8"/>
      </g>
     </g>
     <g id="text_10">
      <!-- 0.10 -->
      <g transform="translate(28.334375 197.043884) scale(0.1 -0.1)">
       <use xlink:href="#DejaVuSans-30"/>
       <use xlink:href="#DejaVuSans-2e" x="63.623047"/>
       <use xlink:href="#DejaVuSans-31" x="95.410156"/>
       <use xlink:href="#DejaVuSans-30" x="159.033203"/>
      </g>
     </g>
    </g>
    <g id="ytick_4">
     <g id="line2d_19">
      <path d="M 57.6 142.122997 
L 414.72 142.122997 
" clip-path="url(#p424e6d6bdb)" style="fill: none; stroke: #b0b0b0; stroke-width: 0.8; stroke-linecap: square"/>
     </g>
     <g id="line2d_20">
      <g>
       <use xlink:href="#m8bea9dd5f5" x="57.6" y="142.122997" style="stroke: #000000; stroke-width: 0.8"/>
      </g>
     </g>
     <g id="text_11">
      <!-- 0.15 -->
      <g transform="translate(28.334375 145.922216) scale(0.1 -0.1)">
       <use xlink:href="#DejaVuSans-30"/>
       <use xlink:href="#DejaVuSans-2e" x="63.623047"/>
       <use xlink:href="#DejaVuSans-31" x="95.410156"/>
       <use xlink:href="#DejaVuSans-35" x="159.033203"/>
      </g>
     </g>
    </g>
    <g id="ytick_5">
     <g id="line2d_21">
      <path d="M 57.6 91.00133 
L 414.72 91.00133 
" clip-path="url(#p424e6d6bdb)" style="fill: none; stroke: #b0b0b0; stroke-width: 0.8; stroke-linecap: square"/>
     </g>
     <g id="line2d_22">
      <g>
       <use xlink:href="#m8bea9dd5f5" x="57.6" y="91.00133" style="stroke: #000000; stroke-width: 0.8"/>
      </g>
     </g>
     <g id="text_12">
      <!-- 0.20 -->
      <g transform="translate(28.334375 94.800549) scale(0.1 -0.1)">
       <use xlink:href="#DejaVuSans-30"/>
       <use xlink:href="#DejaVuSans-2e" x="63.623047"/>
       <use xlink:href="#DejaVuSans-32" x="95.410156"/>
       <use xlink:href="#DejaVuSans-30" x="159.033203"/>
      </g>
     </g>
    </g>
    <g id="text_13">
     <!-- Tracking error(m) -->
     <g transform="translate(22.254687 217.803781) rotate(-90) scale(0.1 -0.1)">
      <defs>
       <path id="DejaVuSans-72" d="M 2631 2963 
Q 2534 3019 2420 3045 
Q 2306 3072 2169 3072 
Q 1681 3072 1420 2755 
Q 1159 2438 1159 1844 
L 1159 0 
L 581 0 
L 581 3500 
L 1159 3500 
L 1159 2956 
Q 1341 3275 1631 3429 
Q 1922 3584 2338 3584 
Q 2397 3584 2469 3576 
Q 2541 3569 2628 3553 
L 2631 2963 
z
" transform="scale(0.015625)"/>
       <path id="DejaVuSans-61" d="M 2194 1759 
Q 1497 1759 1228 1600 
Q 959 1441 959 1056 
Q 959 750 1161 570 
Q 1363 391 1709 391 
Q 2188 391 2477 730 
Q 2766 1069 2766 1631 
L 2766 1759 
L 2194 1759 
z
M 3341 1997 
L 3341 0 
L 2766 0 
L 2766 531 
Q 2569 213 2275 61 
Q 1981 -91 1556 -91 
Q 1019 -91 701 211 
Q 384 513 384 1019 
Q 384 1609 779 1909 
Q 1175 2209 1959 2209 
L 2766 2209 
L 2766 2266 
Q 2766 2663 2505 2880 
Q 2244 3097 1772 3097 
Q 1472 3097 1187 3025 
Q 903 2953 641 2809 
L 641 3341 
Q 956 3463 1253 3523 
Q 1550 3584 1831 3584 
Q 2591 3584 2966 3190 
Q 3341 2797 3341 1997 
z
" transform="scale(0.015625)"/>
       <path id="DejaVuSans-63" d="M 3122 3366 
L 3122 2828 
Q 2878 2963 2633 3030 
Q 2388 3097 2138 3097 
Q 1578 3097 1268 2742 
Q 959 2388 959 1747 
Q 959 1106 1268 751 
Q 1578 397 2138 397 
Q 2388 397 2633 464 
Q 2878 531 3122 666 
L 3122 134 
Q 2881 22 2623 -34 
Q 2366 -91 2075 -91 
Q 1284 -91 818 406 
Q 353 903 353 1747 
Q 353 2603 823 3093 
Q 1294 3584 2113 3584 
Q 2378 3584 2631 3529 
Q 2884 3475 3122 3366 
z
" transform="scale(0.015625)"/>
       <path id="DejaVuSans-6b" d="M 581 4863 
L 1159 4863 
L 1159 1991 
L 2875 3500 
L 3609 3500 
L 1753 1863 
L 3688 0 
L 2938 0 
L 1159 1709 
L 1159 0 
L 581 0 
L 581 4863 
z
" transform="scale(0.015625)"/>
       <path id="DejaVuSans-6e" d="M 3513 2113 
L 3513 0 
L 2938 0 
L 2938 2094 
Q 2938 2591 2744 2837 
Q 2550 3084 2163 3084 
Q 1697 3084 1428 2787 
Q 1159 2491 1159 1978 
L 1159 0 
L 581 0 
L 581 3500 
L 1159 3500 
L 1159 2956 
Q 1366 3272 1645 3428 
Q 1925 3584 2291 3584 
Q 2894 3584 3203 3211 
Q 3513 2838 3513 2113 
z
" transform="scale(0.015625)"/>
       <path id="DejaVuSans-67" d="M 2906 1791 
Q 2906 2416 2648 2759 
Q 2391 3103 1925 3103 
Q 1463 3103 1205 2759 
Q 947 2416 947 1791 
Q 947 1169 1205 825 
Q 1463 481 1925 481 
Q 2391 481 2648 825 
Q 2906 1169 2906 1791 
z
M 3481 434 
Q 3481 -459 3084 -895 
Q 2688 -1331 1869 -1331 
Q 1566 -1331 1297 -1286 
Q 1028 -1241 775 -1147 
L 775 -588 
Q 1028 -725 1275 -790 
Q 1522 -856 1778 -856 
Q 2344 -856 2625 -561 
Q 2906 -266 2906 331 
L 2906 616 
Q 2728 306 2450 153 
Q 2172 0 1784 0 
Q 1141 0 747 490 
Q 353 981 353 1791 
Q 353 2603 747 3093 
Q 1141 3584 1784 3584 
Q 2172 3584 2450 3431 
Q 2728 3278 2906 2969 
L 2906 3500 
L 3481 3500 
L 3481 434 
z
" transform="scale(0.015625)"/>
       <path id="DejaVuSans-20" transform="scale(0.015625)"/>
       <path id="DejaVuSans-6f" d="M 1959 3097 
Q 1497 3097 1228 2736 
Q 959 2375 959 1747 
Q 959 1119 1226 758 
Q 1494 397 1959 397 
Q 2419 397 2687 759 
Q 2956 1122 2956 1747 
Q 2956 2369 2687 2733 
Q 2419 3097 1959 3097 
z
M 1959 3584 
Q 2709 3584 3137 3096 
Q 3566 2609 3566 1747 
Q 3566 888 3137 398 
Q 2709 -91 1959 -91 
Q 1206 -91 779 398 
Q 353 888 353 1747 
Q 353 2609 779 3096 
Q 1206 3584 1959 3584 
z
" transform="scale(0.015625)"/>
      </defs>
      <use xlink:href="#DejaVuSans-54"/>
      <use xlink:href="#DejaVuSans-72" x="46.333984"/>
      <use xlink:href="#DejaVuSans-61" x="87.447266"/>
      <use xlink:href="#DejaVuSans-63" x="148.726562"/>
      <use xlink:href="#DejaVuSans-6b" x="203.707031"/>
      <use xlink:href="#DejaVuSans-69" x="261.617188"/>
      <use xlink:href="#DejaVuSans-6e" x="289.400391"/>
      <use xlink:href="#DejaVuSans-67" x="352.779297"/>
      <use xlink:href="#DejaVuSans-20" x="416.255859"/>
      <use xlink:href="#DejaVuSans-65" x="448.042969"/>
      <use xlink:href="#DejaVuSans-72" x="509.566406"/>
      <use xlink:href="#DejaVuSans-72" x="548.929688"/>
      <use xlink:href="#DejaVuSans-6f" x="587.792969"/>
      <use xlink:href="#DejaVuSans-72" x="648.974609"/>
      <use xlink:href="#DejaVuSans-28" x="690.087891"/>
      <use xlink:href="#DejaVuSans-6d" x="729.101562"/>
      <use xlink:href="#DejaVuSans-29" x="826.513672"/>
     </g>
    </g>
   </g>
   <g id="line2d_23">
    <path d="M 73.832727 260.341854 
L 74.065288 274.7735 
L 74.065288 274.7735 
L 74.530409 187.818611 
L 74.530409 187.818611 
L 75.228091 105.058766 
L 75.228091 105.058766 
L 75.693212 76.753721 
L 75.693212 76.753721 
L 75.925772 70.012818 
L 75.925772 70.012818 
L 76.158333 67.844237 
L 76.158333 67.844237 
L 76.390893 69.636563 
L 76.390893 69.636563 
L 76.623454 74.84995 
L 76.623454 74.84995 
L 77.088575 93.073802 
L 77.088575 93.073802 
L 79.646741 216.192159 
L 79.646741 216.192159 
L 80.576984 246.296687 
L 80.576984 246.296687 
L 81.507226 271.534431 
L 81.507226 271.534431 
L 82.437468 292.317434 
L 82.437468 292.317434 
L 82.670029 294.011606 
L 83.36771 281.813976 
L 83.36771 281.813976 
L 84.297953 274.289889 
L 84.297953 274.289889 
L 84.530513 273.511818 
L 85.228195 277.106693 
L 85.228195 277.106693 
L 85.693316 282.182052 
L 85.693316 282.182052 
L 86.390998 294.800925 
L 86.390998 294.800925 
L 87.32124 272.585493 
L 87.32124 272.585493 
L 88.251482 252.81061 
L 88.251482 252.81061 
L 88.716603 246.869249 
L 88.716603 246.869249 
L 88.949164 245.373429 
L 88.949164 245.373429 
L 89.181724 244.704758 
L 89.181724 244.704758 
L 89.414285 242.802009 
L 89.414285 242.802009 
L 89.646846 243.141457 
L 89.646846 243.141457 
L 89.879406 244.388826 
L 89.879406 244.388826 
L 90.111967 246.334517 
L 90.111967 246.334517 
L 90.344527 246.754737 
L 90.344527 246.754737 
L 90.809648 252.203284 
L 90.809648 252.203284 
L 91.042209 255.412702 
L 91.042209 255.412702 
L 91.274769 256.343117 
L 91.274769 256.343117 
L 91.739891 261.747699 
L 91.739891 261.747699 
L 91.972451 262.74355 
L 91.972451 262.74355 
L 92.670133 268.474288 
L 92.670133 268.474288 
L 92.902693 267.721777 
L 92.902693 267.721777 
L 93.367815 269.493654 
L 93.367815 269.493654 
L 93.600375 268.429301 
L 93.600375 268.429301 
L 93.832936 269.042761 
L 93.832936 269.042761 
L 94.065496 270.159259 
L 94.065496 270.159259 
L 94.298057 269.428219 
L 94.298057 269.428219 
L 94.530617 270.560052 
L 94.530617 270.560052 
L 94.763178 272.486317 
L 94.763178 272.486317 
L 94.995738 272.610031 
L 95.925981 281.530762 
L 95.925981 281.530762 
L 96.158541 285.102122 
L 96.158541 285.102122 
L 96.391102 285.35773 
L 96.391102 285.35773 
L 96.856223 291.15186 
L 96.856223 291.15186 
L 97.088784 290.178504 
L 97.088784 290.178504 
L 97.553905 294.923617 
L 97.553905 294.923617 
L 97.786465 292.319479 
L 97.786465 292.319479 
L 98.019026 293.527995 
L 98.019026 293.527995 
L 98.251586 291.440186 
L 98.251586 291.440186 
L 98.484147 291.143681 
L 98.484147 291.143681 
L 98.716707 291.703974 
L 98.716707 291.703974 
L 98.949268 287.572321 
L 98.949268 287.572321 
L 99.414389 284.915017 
L 99.414389 284.915017 
L 99.64695 278.853009 
L 99.64695 278.853009 
L 100.112071 274.011787 
L 100.112071 274.011787 
L 100.344631 267.152282 
L 100.809753 261.92458 
L 100.809753 261.92458 
L 101.042313 255.125399 
L 101.042313 255.125399 
L 101.274874 252.52944 
L 101.274874 252.52944 
L 101.739995 244.914357 
L 101.739995 244.914357 
L 101.972555 243.225297 
L 101.972555 243.225297 
L 102.205116 238.920852 
L 102.205116 238.920852 
L 102.670237 235.741085 
L 102.670237 235.741085 
L 102.902798 231.882421 
L 102.902798 231.882421 
L 103.367919 229.357011 
L 103.367919 229.357011 
L 103.600479 225.781561 
L 103.600479 225.781561 
L 104.0656 223.360439 
L 104.0656 223.360439 
L 104.298161 220.063092 
L 104.298161 220.063092 
L 104.763282 217.729899 
L 104.763282 217.729899 
L 104.995843 214.987733 
L 104.995843 214.987733 
L 105.693524 211.645398 
L 105.693524 211.645398 
L 105.926085 211.398991 
L 105.926085 211.398991 
L 106.158645 211.433754 
L 106.158645 211.433754 
L 106.391206 210.928672 
L 106.391206 210.928672 
L 106.623767 211.284479 
L 106.623767 211.284479 
L 107.088888 212.902991 
L 107.088888 212.902991 
L 107.554009 216.045951 
L 107.554009 216.045951 
L 108.01913 220.492514 
L 108.01913 220.492514 
L 108.716812 231.541951 
L 108.716812 231.541951 
L 109.414493 246.891743 
L 109.414493 246.891743 
L 111.042417 283.544956 
L 111.042417 283.544956 
L 111.740099 295.488 
L 111.740099 295.488 
L 113.600583 279.434774 
L 113.600583 279.434774 
L 114.298265 274.589462 
L 114.298265 274.589462 
L 114.763386 272.410657 
L 114.763386 272.410657 
L 114.995947 271.808444 
L 114.995947 271.808444 
L 115.228507 271.660191 
L 115.461068 272.048715 
L 115.461068 272.048715 
L 115.926189 274.304203 
L 115.926189 274.304203 
L 116.39131 277.827509 
L 116.39131 277.827509 
L 118.251795 294.386839 
L 118.251795 294.386839 
L 118.484355 295.107655 
L 118.484355 295.107655 
L 120.5774 283.035784 
L 120.5774 283.035784 
L 120.809961 282.542971 
L 120.809961 282.542971 
L 121.042521 282.37427 
L 121.042521 282.37427 
L 121.275082 282.485715 
L 121.275082 282.485715 
L 121.740203 284.016298 
L 121.740203 284.016298 
L 123.368127 290.669272 
L 123.368127 290.669272 
L 124.065809 292.440126 
L 124.065809 292.440126 
L 124.996051 295.466529 
L 124.996051 295.466529 
L 126.158854 291.907438 
L 126.158854 291.907438 
L 126.623975 291.400311 
L 126.623975 291.400311 
L 127.089096 291.031213 
L 127.089096 291.031213 
L 127.786778 289.85746 
L 127.786778 289.85746 
L 128.251899 288.131592 
L 128.251899 288.131592 
L 129.182141 284.031634 
L 129.182141 284.031634 
L 129.414702 283.458049 
L 129.414702 283.458049 
L 129.647262 283.669693 
L 129.647262 283.669693 
L 129.879823 284.193179 
L 129.879823 284.193179 
L 130.344944 286.278943 
L 130.344944 286.278943 
L 131.740307 294.058638 
L 131.740307 294.058638 
L 132.205428 295.318276 
L 132.205428 295.318276 
L 132.437989 295.488 
L 132.437989 295.488 
L 132.67055 293.990135 
L 132.67055 293.990135 
L 133.135671 292.603716 
L 133.135671 292.603716 
L 133.368231 295.488 
L 133.368231 295.488 
L 133.600792 290.335958 
L 133.600792 290.335958 
L 135.926397 277.367414 
L 135.926397 277.367414 
L 136.158958 277.415468 
L 136.391519 276.024959 
L 136.391519 276.024959 
L 136.624079 275.809225 
L 136.624079 275.809225 
L 136.85664 274.330787 
L 136.85664 274.330787 
L 137.0892 271.870812 
L 137.0892 271.870812 
L 137.321761 271.66428 
L 137.321761 271.66428 
L 137.554321 268.862813 
L 137.554321 268.862813 
L 137.786882 267.498887 
L 137.786882 267.498887 
L 139.647367 240.424852 
L 139.647367 240.424852 
L 139.879927 235.122513 
L 139.879927 235.122513 
L 140.112488 235.181814 
L 140.112488 235.181814 
L 140.345048 230.489867 
L 140.345048 230.489867 
L 140.577609 230.686174 
L 140.577609 230.686174 
L 140.810169 227.049379 
L 140.810169 227.049379 
L 141.04273 227.502317 
L 141.04273 227.502317 
L 141.27529 224.690625 
L 141.27529 224.690625 
L 141.507851 225.015759 
L 141.507851 225.015759 
L 141.740412 222.962713 
L 141.740412 222.962713 
L 141.972972 219.44043 
L 141.972972 219.44043 
L 142.205533 223.264331 
L 142.205533 223.264331 
L 142.438093 221.470982 
L 142.438093 221.470982 
L 142.670654 226.366393 
L 142.670654 226.366393 
L 142.903214 225.840863 
L 142.903214 225.840863 
L 143.135775 231.367115 
L 143.135775 231.367115 
L 143.368336 232.412042 
L 143.368336 232.412042 
L 143.600896 239.006737 
L 143.600896 239.006737 
L 143.833457 241.211103 
L 143.833457 241.211103 
L 144.066017 247.803753 
L 144.066017 247.803753 
L 144.298578 249.973357 
L 144.298578 249.973357 
L 144.531138 255.79816 
L 144.531138 255.79816 
L 144.763699 257.375774 
L 144.763699 257.375774 
L 144.996259 262.248692 
L 144.996259 262.248692 
L 145.22882 263.595236 
L 145.22882 263.595236 
L 145.461381 268.023395 
L 145.461381 268.023395 
L 145.693941 269.67667 
L 145.693941 269.67667 
L 145.926502 274.171287 
L 145.926502 274.171287 
L 146.159062 275.997353 
L 146.159062 275.997353 
L 146.391623 280.238407 
L 146.391623 280.238407 
L 146.624183 282.288385 
L 146.624183 282.288385 
L 146.856744 282.879352 
L 146.856744 282.879352 
L 147.089305 295.488 
L 147.089305 295.488 
L 147.321865 288.535453 
L 147.321865 288.535453 
L 147.554426 295.488 
L 147.554426 295.488 
L 147.786986 291.4545 
L 147.786986 291.4545 
L 148.019547 295.228302 
L 148.019547 295.228302 
L 148.252107 292.422745 
L 148.252107 292.422745 
L 148.484668 293.899139 
L 148.484668 293.899139 
L 148.717228 293.522883 
L 148.949789 292.129306 
L 148.949789 292.129306 
L 149.18235 295.203764 
L 149.18235 295.203764 
L 149.41491 290.158055 
L 149.41491 290.158055 
L 149.647471 293.624104 
L 149.880031 288.402537 
L 149.880031 288.402537 
L 150.112592 292.101701 
L 150.112592 292.101701 
L 150.345152 287.341251 
L 150.345152 287.341251 
L 150.577713 290.909543 
L 150.577713 290.909543 
L 150.810274 286.733926 
L 150.810274 286.733926 
L 151.042834 290.733685 
L 151.042834 290.733685 
L 151.275395 287.08462 
L 151.275395 287.08462 
L 151.507955 290.293016 
L 151.507955 290.293016 
L 151.740516 286.312683 
L 151.740516 286.312683 
L 151.973076 288.888193 
L 151.973076 288.888193 
L 152.205637 284.51729 
L 152.205637 284.51729 
L 152.438197 285.574486 
L 152.438197 285.574486 
L 152.670758 280.37848 
L 152.670758 280.37848 
L 152.903319 280.400973 
L 152.903319 280.400973 
L 153.135879 275.026041 
L 153.135879 275.026041 
L 153.36844 274.257171 
L 153.36844 274.257171 
L 153.601 269.308594 
L 153.601 269.308594 
L 153.833561 268.430324 
L 153.833561 268.430324 
L 154.066121 264.294581 
L 154.066121 264.294581 
L 154.298682 263.53798 
L 154.298682 263.53798 
L 154.531243 260.165995 
L 154.531243 260.165995 
L 154.763803 259.032116 
L 154.763803 259.032116 
L 155.228924 254.318699 
L 155.228924 254.318699 
L 155.461485 252.57136 
L 155.461485 252.57136 
L 156.856848 228.328443 
L 156.856848 228.328443 
L 157.089409 223.034283 
L 157.321969 220.414809 
L 157.321969 220.414809 
L 157.55453 216.084804 
L 157.55453 216.084804 
L 157.78709 214.499009 
L 157.78709 214.499009 
L 158.252212 208.192641 
L 158.252212 208.192641 
L 158.484772 210.435859 
L 158.484772 210.435859 
L 158.717333 208.668072 
L 158.717333 208.668072 
L 158.949893 211.276299 
L 158.949893 211.276299 
L 159.182454 210.928672 
L 159.182454 210.928672 
L 159.415014 209.225298 
L 159.415014 209.225298 
L 159.647575 214.697361 
L 159.647575 214.697361 
L 159.880135 213.887594 
L 160.112696 218.225779 
L 160.112696 218.225779 
L 160.345257 218.166478 
L 160.345257 218.166478 
L 160.577817 221.904494 
L 160.577817 221.904494 
L 160.810378 223.132437 
L 160.810378 223.132437 
L 161.042938 222.799123 
L 161.042938 222.799123 
L 161.275499 229.366213 
L 161.275499 229.366213 
L 161.508059 230.833405 
L 161.508059 230.833405 
L 161.973181 240.941181 
L 161.973181 240.941181 
L 162.205741 243.666988 
L 162.205741 243.666988 
L 162.670862 260.150659 
L 162.670862 260.150659 
L 163.135983 276.796896 
L 163.135983 276.796896 
L 163.601104 289.780777 
L 163.601104 289.780777 
L 163.833665 292.728452 
L 163.833665 292.728452 
L 164.066226 293.222288 
L 164.066226 293.222288 
L 164.298786 292.30721 
L 164.298786 292.30721 
L 164.531347 289.758284 
L 164.531347 289.758284 
L 164.763907 295.488 
L 164.763907 295.488 
L 165.229028 291.212184 
L 165.229028 291.212184 
L 165.461589 294.089311 
L 165.461589 294.089311 
L 165.69415 293.190592 
L 165.69415 293.190592 
L 165.92671 295.304984 
L 165.92671 295.304984 
L 166.159271 295.224212 
L 166.159271 295.224212 
L 166.391831 295.488 
L 166.391831 295.488 
L 166.624392 291.852227 
L 166.624392 291.852227 
L 166.856952 294.952245 
L 166.856952 294.952245 
L 167.089513 294.451253 
L 167.089513 294.451253 
L 167.322073 292.987128 
L 167.322073 292.987128 
L 167.554634 295.488 
L 167.554634 295.488 
L 168.717437 272.342154 
L 168.717437 272.342154 
L 168.949997 268.717628 
L 168.949997 268.717628 
L 169.415119 258.181452 
L 169.415119 258.181452 
L 170.1128 244.219102 
L 170.1128 244.219102 
L 170.577921 236.782944 
L 170.577921 236.782944 
L 170.810482 233.933423 
L 170.810482 233.933423 
L 171.275603 231.768931 
L 171.275603 231.768931 
L 171.508164 231.956036 
L 171.508164 231.956036 
L 171.973285 235.73086 
L 171.973285 235.73086 
L 172.438406 242.443135 
L 172.438406 242.443135 
L 174.531451 278.31112 
L 174.531451 278.31112 
L 175.461693 288.625427 
L 175.461693 288.625427 
L 176.159375 294.920549 
L 176.159375 294.920549 
L 176.391935 293.687495 
L 176.391935 293.687495 
L 177.089617 286.511035 
L 177.089617 286.511035 
L 178.48498 268.651169 
L 178.48498 268.651169 
L 179.182662 255.308414 
L 179.182662 255.308414 
L 179.415223 253.598906 
L 179.415223 253.598906 
L 179.647783 246.506285 
L 179.647783 246.506285 
L 179.880344 245.97871 
L 179.880344 245.97871 
L 180.112904 243.616889 
L 180.112904 243.616889 
L 180.345465 236.775787 
L 180.345465 236.775787 
L 180.578026 234.805558 
L 180.578026 234.805558 
L 180.810586 226.161907 
L 180.810586 226.161907 
L 181.043147 225.095509 
L 181.043147 225.095509 
L 181.275707 221.580383 
L 181.275707 221.580383 
L 181.508268 214.26385 
L 181.740828 211.830458 
L 181.740828 211.830458 
L 181.973389 203.256332 
L 181.973389 203.256332 
L 182.205949 202.623446 
L 182.205949 202.623446 
L 182.43851 192.925666 
L 182.43851 192.925666 
L 182.671071 194.423531 
L 182.671071 194.423531 
L 182.903631 193.518677 
L 182.903631 193.518677 
L 183.136192 186.243041 
L 183.136192 186.243041 
L 183.368752 186.436281 
L 183.601313 177.306974 
L 183.601313 177.306974 
L 183.833873 178.852893 
L 183.833873 178.852893 
L 184.066434 177.412284 
L 184.066434 177.412284 
L 184.298995 169.016062 
L 184.298995 169.016062 
L 184.531555 167.890363 
L 184.531555 167.890363 
L 184.764116 157.076085 
L 184.764116 157.076085 
L 184.996676 157.228428 
L 184.996676 157.228428 
L 185.229237 154.69995 
L 185.229237 154.69995 
L 185.461797 145.583934 
L 185.461797 145.583934 
L 185.694358 144.932644 
L 185.694358 144.932644 
L 185.926918 133.544782 
L 185.926918 133.544782 
L 186.159479 135.889221 
L 186.159479 135.889221 
L 186.39204 135.156137 
L 186.39204 135.156137 
L 186.6246 127.244547 
L 186.6246 127.244547 
L 186.857161 129.444824 
L 186.857161 129.444824 
L 187.089721 119.966867 
L 187.089721 119.966867 
L 187.322282 125.616833 
L 187.322282 125.616833 
L 187.554842 116.248277 
L 187.554842 116.248277 
L 187.787403 124.259042 
L 187.787403 124.259042 
L 188.019964 128.130997 
L 188.019964 128.130997 
L 188.252524 123.645582 
L 188.252524 123.645582 
L 188.485085 128.454086 
L 188.485085 128.454086 
L 188.717645 122.535219 
L 188.717645 122.535219 
L 188.950206 128.338551 
L 188.950206 128.338551 
L 189.182766 130.469302 
L 189.182766 130.469302 
L 189.415327 126.922481 
L 189.415327 126.922481 
L 189.647887 129.989781 
L 189.647887 129.989781 
L 189.880448 125.096415 
L 189.880448 125.096415 
L 190.113009 130.278107 
L 190.113009 130.278107 
L 190.345569 124.840806 
L 190.345569 124.840806 
L 190.81069 136.295127 
L 190.81069 136.295127 
L 191.043251 134.346369 
L 191.043251 134.346369 
L 191.275811 140.882786 
L 191.275811 140.882786 
L 191.508372 138.630365 
L 191.508372 138.630365 
L 191.973493 153.318643 
L 191.973493 153.318643 
L 192.206054 154.447409 
L 192.206054 154.447409 
L 192.438614 162.480668 
L 192.438614 162.480668 
L 192.671175 163.44789 
L 192.671175 163.44789 
L 193.136296 180.061409 
L 193.136296 180.061409 
L 193.368856 183.955858 
L 193.368856 183.955858 
L 193.601417 192.513625 
L 193.601417 192.513625 
L 193.833978 196.607448 
L 193.833978 196.607448 
L 194.066538 206.127325 
L 194.066538 206.127325 
L 194.299099 210.631144 
L 194.299099 210.631144 
L 195.229341 246.74758 
L 195.229341 246.74758 
L 195.927023 273.12636 
L 195.927023 273.12636 
L 196.392144 291.240812 
L 196.392144 291.240812 
L 196.624704 290.828771 
L 197.787507 255.268539 
L 197.787507 255.268539 
L 198.020068 250.174776 
L 198.020068 250.174776 
L 198.252628 241.189632 
L 198.252628 241.189632 
L 198.485189 237.411741 
L 198.485189 237.411741 
L 198.717749 225.489146 
L 198.717749 225.489146 
L 198.95031 222.568053 
L 198.95031 222.568053 
L 199.182871 217.692069 
L 199.182871 217.692069 
L 199.415431 205.651894 
L 199.415431 205.651894 
L 199.647992 202.761475 
L 199.647992 202.761475 
L 199.880552 197.69634 
L 199.880552 197.69634 
L 200.113113 185.979254 
L 200.113113 185.979254 
L 200.345673 182.488666 
L 200.345673 182.488666 
L 200.578234 177.1669 
L 200.578234 177.1669 
L 200.810794 167.523309 
L 200.810794 167.523309 
L 201.043355 166.379206 
L 201.043355 166.379206 
L 201.275916 155.360442 
L 201.275916 155.360442 
L 201.508476 157.955378 
L 201.741037 158.216098 
L 201.741037 158.216098 
L 201.973597 149.121554 
L 201.973597 149.121554 
L 202.206158 151.133703 
L 202.206158 151.133703 
L 202.438718 151.265596 
L 202.438718 151.265596 
L 202.671279 145.533835 
L 202.671279 145.533835 
L 202.90384 144.961272 
L 202.90384 144.961272 
L 203.1364 141.441034 
L 203.1364 141.441034 
L 203.368961 130.116563 
L 203.368961 130.116563 
L 203.601521 125.026889 
L 203.601521 125.026889 
L 203.834082 115.848505 
L 203.834082 115.848505 
L 204.066642 97.824028 
L 204.066642 97.824028 
L 204.299203 93.246593 
L 204.299203 93.246593 
L 204.531763 71.760157 
L 204.531763 71.760157 
L 204.764324 73.461486 
L 204.764324 73.461486 
L 204.996885 53.568 
L 204.996885 53.568 
L 205.229445 61.750534 
L 205.229445 61.750534 
L 205.462006 65.362791 
L 205.462006 65.362791 
L 205.694566 59.020637 
L 205.694566 59.020637 
L 205.927127 67.595786 
L 205.927127 67.595786 
L 206.159687 61.813925 
L 206.159687 61.813925 
L 206.392248 74.611723 
L 206.392248 74.611723 
L 206.624809 67.857529 
L 206.624809 67.857529 
L 207.08993 96.832267 
L 207.08993 96.832267 
L 207.32249 96.741271 
L 207.32249 96.741271 
L 207.555051 113.015342 
L 207.555051 113.015342 
L 207.787611 111.794557 
L 207.787611 111.794557 
L 208.252732 143.887717 
L 208.252732 143.887717 
L 208.485293 146.584897 
L 208.485293 146.584897 
L 208.950414 165.755522 
L 208.950414 165.755522 
L 209.182975 165.486622 
L 209.182975 165.486622 
L 209.415535 170.605946 
L 209.415535 170.605946 
L 209.648096 172.708069 
L 209.648096 172.708069 
L 209.880656 169.944431 
L 209.880656 169.944431 
L 210.113217 171.557831 
L 210.113217 171.557831 
L 210.345778 166.405789 
L 210.345778 166.405789 
L 210.810899 172.27149 
L 210.810899 172.27149 
L 211.043459 170.908586 
L 211.043459 170.908586 
L 211.973701 194.558492 
L 211.973701 194.558492 
L 214.764428 294.707883 
L 214.764428 294.707883 
L 214.996989 289.077343 
L 214.996989 289.077343 
L 215.46211 272.390208 
L 215.46211 272.390208 
L 216.159792 244.90311 
L 216.159792 244.90311 
L 216.392352 230.760812 
L 216.624913 225.201842 
L 216.624913 225.201842 
L 216.857473 208.289772 
L 216.857473 208.289772 
L 217.090034 205.490349 
L 217.090034 205.490349 
L 217.322594 200.270827 
L 217.322594 200.270827 
L 217.555155 186.758348 
L 217.555155 186.758348 
L 217.787716 184.037653 
L 217.787716 184.037653 
L 218.020276 168.730803 
L 218.020276 168.730803 
L 218.252837 168.738982 
L 218.252837 168.738982 
L 218.485397 165.70031 
L 218.485397 165.70031 
L 218.717958 152.909669 
L 218.717958 152.909669 
L 218.950518 151.531429 
L 218.950518 151.531429 
L 219.183079 135.884109 
L 219.183079 135.884109 
L 219.415639 136.677517 
L 219.415639 136.677517 
L 219.6482 134.14904 
L 219.6482 134.14904 
L 219.880761 121.316479 
L 219.880761 121.316479 
L 220.113321 120.995435 
L 220.113321 120.995435 
L 220.345882 105.819456 
L 220.345882 105.819456 
L 220.578442 108.40519 
L 220.578442 108.40519 
L 220.811003 107.672106 
L 220.811003 107.672106 
L 221.043563 97.061292 
L 221.043563 97.061292 
L 221.276124 99.080598 
L 221.276124 99.080598 
L 221.508685 87.42588 
L 221.508685 87.42588 
L 221.741245 92.864203 
L 221.741245 92.864203 
L 221.973806 94.621766 
L 221.973806 94.621766 
L 222.206366 88.095574 
L 222.206366 88.095574 
L 222.438927 92.253811 
L 222.438927 92.253811 
L 222.671487 85.094732 
L 222.671487 85.094732 
L 223.136608 95.916167 
L 223.136608 95.916167 
L 223.369169 93.824268 
L 223.369169 93.824268 
L 223.60173 100.244127 
L 223.60173 100.244127 
L 223.83429 97.43448 
L 223.83429 97.43448 
L 224.066851 105.932946 
L 224.066851 105.932946 
L 224.299411 101.882066 
L 224.299411 101.882066 
L 224.764532 118.199079 
L 224.764532 118.199079 
L 224.997093 116.495705 
L 224.997093 116.495705 
L 225.462214 127.376441 
L 225.462214 127.376441 
L 225.694775 126.890785 
L 225.694775 126.890785 
L 225.927335 130.373193 
L 225.927335 130.373193 
L 226.159896 126.333559 
L 226.159896 126.333559 
L 226.392456 129.865044 
L 226.392456 129.865044 
L 226.625017 131.068448 
L 226.625017 131.068448 
L 226.857577 125.850971 
L 226.857577 125.850971 
L 227.090138 128.759793 
L 227.090138 128.759793 
L 227.322699 121.784753 
L 227.322699 121.784753 
L 227.78782 132.279009 
L 227.78782 132.279009 
L 228.02038 129.457093 
L 228.02038 129.457093 
L 228.252941 135.761417 
L 228.252941 135.761417 
L 228.485501 131.457995 
L 228.485501 131.457995 
L 228.950623 144.015522 
L 228.950623 144.015522 
L 229.183183 141.026949 
L 229.183183 141.026949 
L 229.415744 146.697364 
L 229.415744 146.697364 
L 229.648304 141.85921 
L 229.648304 141.85921 
L 230.113425 152.890243 
L 230.113425 152.890243 
L 230.345986 150.622486 
L 230.345986 150.622486 
L 230.578546 156.516814 
L 230.578546 156.516814 
L 230.811107 154.224519 
L 230.811107 154.224519 
L 231.276228 169.056959 
L 231.276228 169.056959 
L 231.508789 171.315514 
L 231.508789 171.315514 
L 231.741349 179.915201 
L 231.741349 179.915201 
L 231.97391 182.957963 
L 231.97391 182.957963 
L 232.439031 201.592833 
L 232.439031 201.592833 
L 232.671592 207.300056 
L 232.671592 207.300056 
L 233.369273 229.697481 
L 233.369273 229.697481 
L 233.601834 234.391473 
L 233.601834 234.391473 
L 234.066955 247.590065 
L 234.066955 247.590065 
L 235.927439 279.172009 
L 235.927439 279.172009 
L 236.16 281.038972 
L 236.392561 284.936488 
L 236.392561 284.936488 
L 236.625121 286.062187 
L 236.625121 286.062187 
L 236.857682 295.488 
L 236.857682 295.488 
L 237.090242 291.184578 
L 237.090242 291.184578 
L 237.322803 295.488 
L 237.322803 295.488 
L 237.555363 293.808142 
L 237.555363 293.808142 
L 237.787924 295.488 
L 237.787924 295.488 
L 238.020485 294.693569 
L 238.020485 294.693569 
L 238.253045 294.579057 
L 238.253045 294.579057 
L 238.485606 294.280506 
L 238.718166 292.883862 
L 238.718166 292.883862 
L 238.950727 292.634389 
L 238.950727 292.634389 
L 239.183287 291.449388 
L 239.183287 291.449388 
L 239.415848 291.401334 
L 239.648408 290.647801 
L 239.648408 290.647801 
L 239.880969 290.626329 
L 239.880969 290.626329 
L 240.11353 290.993383 
L 240.34609 290.027183 
L 240.34609 290.027183 
L 240.578651 290.177481 
L 240.578651 290.177481 
L 240.811211 289.176519 
L 240.811211 289.176519 
L 241.276332 288.506825 
L 241.276332 288.506825 
L 241.508893 286.704275 
L 241.508893 286.704275 
L 241.741454 285.940517 
L 241.741454 285.940517 
L 242.206575 283.231069 
L 242.206575 283.231069 
L 242.439135 282.36609 
L 242.439135 282.36609 
L 242.904256 279.694472 
L 242.904256 279.694472 
L 243.369377 278.586154 
L 243.369377 278.586154 
L 243.601938 276.686473 
L 243.601938 276.686473 
L 244.067059 275.219281 
L 244.067059 275.219281 
L 244.53218 272.161183 
L 244.53218 272.161183 
L 244.997301 270.243098 
L 244.997301 270.243098 
L 245.462423 266.876225 
L 245.462423 266.876225 
L 245.927544 265.02971 
L 245.927544 265.02971 
L 246.392665 261.340771 
L 246.392665 261.340771 
L 246.857786 258.195766 
L 246.857786 258.195766 
L 247.322907 253.214471 
L 247.322907 253.214471 
L 248.71827 241.595538 
L 248.71827 241.595538 
L 248.950831 240.840982 
L 248.950831 240.840982 
L 249.183392 239.37379 
L 249.183392 239.37379 
L 249.415952 238.875865 
L 249.415952 238.875865 
L 249.648513 238.679558 
L 249.648513 238.679558 
L 249.881073 238.741927 
L 249.881073 238.741927 
L 250.113634 238.993445 
L 250.113634 238.993445 
L 250.346194 238.104951 
L 250.346194 238.104951 
L 250.811315 237.874903 
L 250.811315 237.874903 
L 251.276437 237.472064 
L 251.276437 237.472064 
L 251.508997 236.017142 
L 251.508997 236.017142 
L 251.974118 235.23498 
L 251.974118 235.23498 
L 252.206679 235.16341 
L 252.206679 235.16341 
L 252.439239 235.420041 
L 252.439239 235.420041 
L 252.6718 234.491671 
L 252.6718 234.491671 
L 252.904361 234.699225 
L 252.904361 234.699225 
L 253.369482 235.65929 
L 253.369482 235.65929 
L 253.602042 236.323872 
L 253.602042 236.323872 
L 253.834603 235.54171 
L 253.834603 235.54171 
L 254.299724 235.947616 
L 254.299724 235.947616 
L 254.532284 235.985446 
L 254.532284 235.985446 
L 254.764845 235.840261 
L 254.764845 235.840261 
L 254.997406 234.182896 
L 254.997406 234.182896 
L 255.462527 233.152283 
L 255.462527 233.152283 
L 255.695087 232.859868 
L 255.695087 232.859868 
L 255.927648 232.834307 
L 255.927648 232.834307 
L 256.160208 231.692249 
L 256.160208 231.692249 
L 256.392769 231.797559 
L 256.392769 231.797559 
L 256.62533 232.142119 
L 256.62533 232.142119 
L 257.090451 233.607266 
L 257.090451 233.607266 
L 257.323011 233.284177 
L 257.323011 233.284177 
L 258.020693 236.063151 
L 258.020693 236.063151 
L 258.253253 236.053949 
L 258.253253 236.053949 
L 258.718375 236.996633 
L 258.718375 236.996633 
L 258.950935 237.258376 
L 258.950935 237.258376 
L 259.183496 237.329946 
L 259.183496 237.329946 
L 259.416056 236.328984 
L 259.416056 236.328984 
L 259.881177 235.840261 
L 259.881177 235.840261 
L 260.113738 235.85662 
L 260.113738 235.85662 
L 260.346299 236.174596 
L 260.346299 236.174596 
L 260.578859 235.702232 
L 260.81142 236.053949 
L 260.81142 236.053949 
L 261.276541 237.47002 
L 261.276541 237.47002 
L 261.509101 238.507789 
L 261.509101 238.507789 
L 261.741662 238.61719 
L 261.741662 238.61719 
L 262.671904 242.075059 
L 262.671904 242.075059 
L 262.904465 241.549529 
L 262.904465 241.549529 
L 263.369586 241.897156 
L 263.369586 241.897156 
L 263.834707 242.632285 
L 263.834707 242.632285 
L 264.067268 242.06279 
L 264.067268 242.06279 
L 264.532389 243.346966 
L 264.532389 243.346966 
L 264.99751 245.404102 
L 264.99751 245.404102 
L 265.23007 245.366272 
L 265.23007 245.366272 
L 266.160313 248.916161 
L 266.160313 248.916161 
L 266.392873 248.043003 
L 266.392873 248.043003 
L 266.625434 247.790462 
L 266.625434 247.790462 
L 267.090555 246.263969 
L 267.090555 246.263969 
L 267.323115 245.225176 
L 267.323115 245.225176 
L 267.788237 241.133398 
L 267.788237 241.133398 
L 268.253358 238.504722 
L 268.253358 238.504722 
L 268.485918 237.539545 
L 268.485918 237.539545 
L 268.718479 235.464005 
L 268.718479 235.464005 
L 269.1836 233.826067 
L 269.1836 233.826067 
L 269.648721 233.152283 
L 269.648721 233.152283 
L 269.881282 231.905937 
L 269.881282 231.905937 
L 270.346403 231.403922 
L 270.346403 231.403922 
L 270.811524 231.097192 
L 270.811524 231.097192 
L 271.044084 229.853913 
L 271.044084 229.853913 
L 271.741766 228.129068 
L 271.741766 228.129068 
L 271.974327 227.433814 
L 271.974327 227.433814 
L 272.439448 224.619055 
L 272.439448 224.619055 
L 273.834811 218.365852 
L 273.834811 218.365852 
L 274.532493 216.619536 
L 274.532493 216.619536 
L 274.765053 216.539786 
L 274.765053 216.539786 
L 274.997614 216.7136 
L 274.997614 216.7136 
L 275.230175 217.148134 
L 275.230175 217.148134 
L 276.392977 220.778795 
L 276.392977 220.778795 
L 276.858098 222.764361 
L 276.858098 222.764361 
L 277.788341 227.691467 
L 277.788341 227.691467 
L 278.253462 230.762857 
L 278.253462 230.762857 
L 278.718583 232.395683 
L 278.718583 232.395683 
L 278.951144 232.886451 
L 278.951144 232.886451 
L 279.416265 237.765503 
L 279.416265 237.765503 
L 279.881386 243.013653 
L 279.881386 243.013653 
L 280.113946 246.613641 
L 280.113946 246.613641 
L 281.50931 293.330666 
L 281.50931 293.330666 
L 283.369794 205.030254 
L 283.369794 205.030254 
L 283.602355 198.513264 
L 283.602355 198.513264 
L 284.067476 180.003131 
L 284.067476 180.003131 
L 285.230279 139.74175 
L 285.230279 139.74175 
L 285.462839 138.490292 
L 285.462839 138.490292 
L 285.6954 139.172255 
L 285.6954 139.172255 
L 285.92796 142.508455 
L 285.92796 142.508455 
L 286.160521 148.270889 
L 286.160521 148.270889 
L 287.090763 206.285802 
L 287.090763 206.285802 
L 287.788445 283.463161 
L 287.788445 283.463161 
L 288.021005 278.427677 
L 288.021005 278.427677 
L 288.486127 234.001926 
L 288.486127 234.001926 
L 288.951248 211.216998 
L 288.951248 211.216998 
L 289.648929 197.973419 
L 289.648929 197.973419 
L 290.114051 194.252784 
L 290.114051 194.252784 
L 290.346611 188.464789 
L 290.346611 188.464789 
L 290.811732 182.877191 
L 290.811732 182.877191 
L 291.276853 174.020873 
L 291.276853 174.020873 
L 291.509414 171.530225 
L 291.509414 171.530225 
L 291.741974 167.716549 
L 291.741974 167.716549 
L 291.974535 166.161428 
L 291.974535 166.161428 
L 292.207096 165.689064 
L 292.207096 165.689064 
L 292.672217 167.156256 
L 292.672217 167.156256 
L 293.137338 174.262167 
L 293.137338 174.262167 
L 293.83502 192.437965 
L 293.83502 192.437965 
L 294.300141 203.86468 
L 294.300141 203.86468 
L 294.765262 212.387685 
L 294.765262 212.387685 
L 295.462943 220.263489 
L 295.462943 220.263489 
L 296.160625 227.128106 
L 296.160625 227.128106 
L 297.090867 245.185302 
L 297.090867 245.185302 
L 297.555989 258.922716 
L 297.555989 258.922716 
L 298.718791 294.355144 
L 298.718791 294.355144 
L 298.951352 295.488 
L 298.951352 295.488 
L 299.183912 281.457147 
L 299.183912 281.457147 
L 299.649034 269.551933 
L 299.649034 269.551933 
L 300.346715 258.057737 
L 300.346715 258.057737 
L 300.811836 254.561015 
L 300.811836 254.561015 
L 301.044397 254.080472 
L 301.044397 254.080472 
L 301.276958 252.628616 
L 301.276958 252.628616 
L 301.509518 252.996692 
L 301.509518 252.996692 
L 301.742079 254.185782 
L 301.742079 254.185782 
L 301.974639 253.767607 
L 301.974639 253.767607 
L 302.2072 254.858544 
L 302.2072 254.858544 
L 302.43976 256.575209 
L 302.43976 256.575209 
L 302.672321 256.36561 
L 302.672321 256.36561 
L 303.602563 263.361099 
L 303.602563 263.361099 
L 303.835124 267.108317 
L 303.835124 267.108317 
L 304.067684 268.541769 
L 304.067684 268.541769 
L 304.997927 284.856738 
L 304.997927 284.856738 
L 305.230487 287.301376 
L 305.230487 287.301376 
L 305.695608 294.44614 
L 305.695608 294.44614 
L 305.928169 295.488 
L 305.928169 295.488 
L 306.160729 288.176579 
L 306.160729 288.176579 
L 306.39329 286.481385 
L 306.39329 286.481385 
L 307.090972 275.331749 
L 307.090972 275.331749 
L 307.323532 271.958741 
L 307.323532 271.958741 
L 309.416577 223.134481 
L 309.416577 223.134481 
L 309.649138 223.237747 
L 309.649138 223.237747 
L 309.881698 217.512121 
L 309.881698 217.512121 
L 310.114259 218.958864 
L 310.114259 218.958864 
L 310.346819 215.731042 
L 310.57938 219.212427 
L 310.57938 219.212427 
L 310.811941 219.973118 
L 310.811941 219.973118 
L 311.277062 229.761894 
L 311.277062 229.761894 
L 311.509622 232.731041 
L 311.509622 232.731041 
L 311.742183 243.508511 
L 311.742183 243.508511 
L 311.974743 247.760811 
L 311.974743 247.760811 
L 312.207304 257.597642 
L 312.207304 257.597642 
L 312.439865 262.129067 
L 312.439865 262.129067 
L 312.672425 270.59277 
L 312.672425 270.59277 
L 312.904986 274.16413 
L 312.904986 274.16413 
L 313.137546 280.292596 
L 313.137546 280.292596 
L 313.370107 282.648282 
L 313.370107 282.648282 
L 313.602667 282.264869 
L 313.602667 282.264869 
L 313.835228 287.537558 
L 313.835228 287.537558 
L 314.067788 286.131712 
L 314.067788 286.131712 
L 314.300349 289.690803 
L 314.300349 289.690803 
L 314.53291 288.426053 
L 314.53291 288.426053 
L 314.76547 291.358392 
L 314.76547 291.358392 
L 314.998031 290.640643 
L 314.998031 290.640643 
L 315.463152 295.488 
L 315.463152 295.488 
L 315.695712 292.672219 
L 315.695712 292.672219 
L 315.928273 293.809164 
L 315.928273 293.809164 
L 316.160834 293.831658 
L 316.160834 293.831658 
L 316.393394 289.701027 
L 316.393394 289.701027 
L 316.625955 289.090635 
L 316.625955 289.090635 
L 316.858515 285.594935 
L 316.858515 285.594935 
L 317.091076 284.759607 
L 317.091076 284.759607 
L 317.323636 282.093101 
L 317.323636 282.093101 
L 317.556197 281.034882 
L 317.556197 281.034882 
L 317.788757 280.767005 
L 317.788757 280.767005 
L 318.021318 277.947133 
L 318.021318 277.947133 
L 318.253879 277.598484 
L 318.253879 277.598484 
L 318.486439 275.443194 
L 318.486439 275.443194 
L 318.95156 274.013832 
L 318.95156 274.013832 
L 319.184121 271.491489 
L 319.184121 271.491489 
L 319.416681 270.33614 
L 319.416681 270.33614 
L 319.881803 266.313887 
L 319.881803 266.313887 
L 321.044605 258.28983 
L 321.044605 258.28983 
L 321.277166 258.001504 
L 321.277166 258.001504 
L 321.509726 257.918687 
L 321.509726 257.918687 
L 321.742287 258.531124 
L 321.742287 258.531124 
L 322.207408 260.822397 
L 322.207408 260.822397 
L 326.393498 293.494255 
L 326.393498 293.494255 
L 326.626059 295.481865 
L 326.626059 295.481865 
L 327.09118 293.87051 
L 327.09118 293.87051 
L 327.323741 295.488 
L 327.323741 295.488 
L 327.556301 294.203824 
L 327.556301 294.203824 
L 327.788862 295.439946 
L 327.788862 295.439946 
L 328.486543 286.208395 
L 328.486543 286.208395 
L 329.184225 272.125398 
L 329.184225 272.125398 
L 330.114467 253.259458 
L 330.114467 253.259458 
L 330.579588 247.355928 
L 330.579588 247.355928 
L 330.812149 245.480785 
L 330.812149 245.480785 
L 331.04471 244.671018 
L 331.04471 244.671018 
L 331.742391 252.23089 
L 331.742391 252.23089 
L 332.207512 262.035003 
L 332.207512 262.035003 
L 332.905194 295.488 
L 332.905194 295.488 
L 333.137755 290.443314 
L 333.835436 258.414567 
L 333.835436 258.414567 
L 334.533118 236.544717 
L 334.533118 236.544717 
L 334.998239 229.527757 
L 334.998239 229.527757 
L 335.46336 227.055513 
L 335.46336 227.055513 
L 335.928481 228.605522 
L 335.928481 228.605522 
L 336.161042 228.738439 
L 336.161042 228.738439 
L 336.393603 230.706623 
L 336.393603 230.706623 
L 336.626163 230.914177 
L 336.626163 230.914177 
L 336.858724 229.949 
L 336.858724 229.949 
L 337.091284 232.101222 
L 337.091284 232.101222 
L 337.323845 231.215795 
L 337.323845 231.215795 
L 337.556405 228.878512 
L 337.556405 228.878512 
L 337.788966 231.749505 
L 337.788966 231.749505 
L 338.021526 230.534854 
L 338.021526 230.534854 
L 338.254087 233.434475 
L 338.254087 233.434475 
L 338.486648 234.12564 
L 338.486648 234.12564 
L 338.719208 234.021352 
L 338.719208 234.021352 
L 338.951769 240.826668 
L 338.951769 240.826668 
L 339.41689 247.183136 
L 339.41689 247.183136 
L 339.64945 257.119144 
L 339.64945 257.119144 
L 339.882011 261.910266 
L 339.882011 261.910266 
L 340.347132 276.486076 
L 340.347132 276.486076 
L 340.579693 280.72713 
L 340.579693 280.72713 
L 340.812253 289.304323 
L 340.812253 289.304323 
L 341.044814 292.952365 
L 341.044814 292.952365 
L 341.277374 291.946291 
L 341.277374 291.946291 
L 341.509935 295.488 
L 341.509935 295.488 
L 341.975056 282.99182 
L 341.975056 282.99182 
L 342.207617 282.508209 
L 342.207617 282.508209 
L 342.440177 279.626991 
L 342.440177 279.626991 
L 342.672738 279.195525 
L 342.672738 279.195525 
L 342.905298 279.935766 
L 342.905298 279.935766 
L 343.137859 276.788716 
L 343.137859 276.788716 
L 343.370419 277.07193 
L 343.370419 277.07193 
L 343.60298 275.05058 
L 343.60298 275.05058 
L 343.835541 274.953449 
L 343.835541 274.953449 
L 344.068101 275.876706 
L 344.300662 273.36152 
L 344.300662 273.36152 
L 344.533222 273.817525 
L 344.533222 273.817525 
L 344.765783 275.276538 
L 344.765783 275.276538 
L 344.998343 272.463823 
L 344.998343 272.463823 
L 345.230904 273.610994 
L 345.230904 273.610994 
L 345.463464 271.906597 
L 345.696025 272.417814 
L 345.696025 272.417814 
L 345.928586 273.631442 
L 345.928586 273.631442 
L 346.161146 271.181692 
L 346.161146 271.181692 
L 346.393707 271.594755 
L 346.393707 271.594755 
L 346.626267 269.778913 
L 346.626267 269.778913 
L 346.858828 269.433331 
L 346.858828 269.433331 
L 347.091388 269.741083 
L 347.091388 269.741083 
L 347.323949 267.398689 
L 347.323949 267.398689 
L 347.55651 267.410958 
L 347.55651 267.410958 
L 347.78907 268.337282 
L 347.78907 268.337282 
L 348.021631 266.444758 
L 348.021631 266.444758 
L 348.254191 267.979431 
L 348.254191 267.979431 
L 348.486752 267.63896 
L 348.486752 267.63896 
L 348.719312 269.90365 
L 348.719312 269.90365 
L 348.951873 271.034462 
L 348.951873 271.034462 
L 350.347236 287.496661 
L 350.347236 287.496661 
L 350.579797 295.488 
L 350.579797 295.488 
L 350.812357 288.420941 
L 350.812357 288.420941 
L 351.044918 288.912731 
L 351.044918 288.912731 
L 351.510039 287.082575 
L 351.510039 287.082575 
L 352.207721 278.451193 
L 352.207721 278.451193 
L 352.440281 274.762254 
L 352.440281 274.762254 
L 353.137963 255.024178 
L 353.137963 255.024178 
L 353.370524 247.915199 
L 353.370524 247.915199 
L 353.603084 234.792267 
L 354.068205 221.036448 
L 354.068205 221.036448 
L 354.300766 206.650811 
L 354.300766 206.650811 
L 354.533326 202.437363 
L 354.533326 202.437363 
L 354.765887 186.126484 
L 354.765887 186.126484 
L 354.998448 184.789141 
L 354.998448 184.789141 
L 355.231008 179.416254 
L 355.231008 179.416254 
L 355.463569 166.693093 
L 355.463569 166.693093 
L 355.696129 162.614607 
L 355.696129 162.614607 
L 355.92869 147.666631 
L 355.92869 147.666631 
L 356.16125 146.049141 
L 356.16125 146.049141 
L 356.393811 141.805021 
L 356.393811 141.805021 
L 356.626371 131.948763 
L 356.626371 131.948763 
L 356.858932 130.862939 
L 356.858932 130.862939 
L 357.091493 120.444343 
L 357.091493 120.444343 
L 357.324053 122.990202 
L 357.324053 122.990202 
L 357.556614 123.133343 
L 357.556614 123.133343 
L 357.789174 116.928195 
L 357.789174 116.928195 
L 358.021735 119.389192 
L 358.021735 119.389192 
L 358.254295 110.918332 
L 358.254295 110.918332 
L 358.486856 116.353587 
L 358.486856 116.353587 
L 358.719417 118.529325 
L 358.719417 118.529325 
L 358.951977 111.960191 
L 358.951977 111.960191 
L 359.184538 115.040783 
L 359.184538 115.040783 
L 359.417098 104.35022 
L 359.417098 104.35022 
L 359.649659 109.117826 
L 359.649659 109.117826 
L 359.882219 110.761899 
L 359.882219 110.761899 
L 360.11478 102.908589 
L 360.11478 102.908589 
L 360.34734 105.981001 
L 360.34734 105.981001 
L 360.579901 95.135028 
L 360.812462 99.20329 
L 360.812462 99.20329 
L 361.045022 99.548873 
L 361.045022 99.548873 
L 361.277583 89.830644 
L 361.277583 89.830644 
L 361.510143 91.215018 
L 361.510143 91.215018 
L 361.742704 78.691232 
L 361.742704 78.691232 
L 361.975264 82.278951 
L 362.207825 82.689969 
L 362.207825 82.689969 
L 362.440386 73.601559 
L 362.440386 73.601559 
L 362.672946 76.578885 
L 362.672946 76.578885 
L 362.905507 66.665371 
L 362.905507 66.665371 
L 363.370628 76.744519 
L 363.370628 76.744519 
L 363.603188 71.530109 
L 363.603188 71.530109 
L 363.835749 78.263855 
L 363.835749 78.263855 
L 364.068309 72.153793 
L 364.068309 72.153793 
L 364.533431 89.417581 
L 364.533431 89.417581 
L 364.765991 88.151808 
L 364.765991 88.151808 
L 364.998552 97.97228 
L 364.998552 97.97228 
L 365.231112 96.880322 
L 365.231112 96.880322 
L 365.696233 121.369645 
L 365.696233 121.369645 
L 365.928794 126.782407 
L 365.928794 126.782407 
L 366.161355 139.755042 
L 366.393915 146.502079 
L 366.393915 146.502079 
L 367.091597 180.290434 
L 367.091597 180.290434 
L 367.789278 209.237567 
L 367.789278 209.237567 
L 368.719521 239.906478 
L 368.719521 239.906478 
L 369.417202 258.89511 
L 369.417202 258.89511 
L 370.114884 271.973055 
L 370.114884 271.973055 
L 370.580005 277.566788 
L 370.580005 277.566788 
L 371.045126 280.313044 
L 371.045126 280.313044 
L 371.277687 280.76087 
L 371.277687 280.76087 
L 371.510247 280.300775 
L 371.510247 280.300775 
L 371.742808 280.536957 
L 371.742808 280.536957 
L 371.975369 279.276297 
L 371.975369 279.276297 
L 372.207929 279.819209 
L 372.207929 279.819209 
L 372.44049 278.206832 
L 372.44049 278.206832 
L 372.67305 279.757863 
L 372.67305 279.757863 
L 372.905611 278.103566 
L 372.905611 278.103566 
L 373.138171 280.178083 
L 373.138171 280.178083 
L 373.370732 277.657785 
L 373.370732 277.657785 
L 373.603293 279.331508 
L 373.603293 279.331508 
L 373.835853 275.188608 
L 373.835853 275.188608 
L 374.068414 275.545437 
L 374.068414 275.545437 
L 374.300974 269.694051 
L 374.300974 269.694051 
L 374.533535 268.674685 
L 374.533535 268.674685 
L 374.766095 260.948157 
L 374.766095 260.948157 
L 374.998656 258.59247 
L 374.998656 258.59247 
L 375.231216 249.925303 
L 375.231216 249.925303 
L 375.463777 246.889698 
L 375.463777 246.889698 
L 375.696338 237.799243 
L 375.696338 237.799243 
L 375.928898 234.850545 
L 375.928898 234.850545 
L 376.161459 226.516691 
L 376.161459 226.516691 
L 376.394019 224.34402 
L 376.394019 224.34402 
L 376.62658 217.463044 
L 376.62658 217.463044 
L 376.85914 216.188069 
L 376.85914 216.188069 
L 377.091701 210.540147 
L 377.091701 210.540147 
L 377.324262 210.365311 
L 377.324262 210.365311 
L 377.556822 206.450414 
L 377.556822 206.450414 
L 377.789383 207.487161 
L 377.789383 207.487161 
L 378.021943 205.853313 
L 378.021943 205.853313 
L 378.254504 209.215074 
L 378.254504 209.215074 
L 378.487064 210.844833 
L 378.487064 210.844833 
L 378.719625 211.317197 
L 378.952185 222.721418 
L 378.952185 222.721418 
L 379.184746 227.231372 
L 379.184746 227.231372 
L 379.417307 243.080111 
L 379.417307 243.080111 
L 379.649867 251.331148 
L 379.649867 251.331148 
L 380.114988 281.387622 
L 380.114988 281.387622 
L 380.347549 289.66013 
L 380.347549 289.66013 
L 380.580109 278.218078 
L 380.580109 278.218078 
L 381.045231 251.011127 
L 381.045231 251.011127 
L 381.277791 237.956698 
L 381.277791 237.956698 
L 381.975473 221.296146 
L 381.975473 221.296146 
L 382.208033 217.570399 
L 382.208033 217.570399 
L 382.440594 217.014195 
L 382.440594 217.014195 
L 382.673154 216.10014 
L 382.673154 216.10014 
L 382.905715 216.494799 
L 382.905715 216.494799 
L 383.138276 216.239191 
L 383.138276 216.239191 
L 383.370836 217.820895 
L 383.370836 217.820895 
L 383.603397 217.800447 
L 383.603397 217.800447 
L 383.835957 220.843208 
L 383.835957 220.843208 
L 384.068518 222.420823 
L 384.99876 238.477116 
L 384.99876 238.477116 
L 385.463881 250.217719 
L 385.463881 250.217719 
L 386.394123 279.07999 
L 386.394123 279.07999 
L 386.859245 294.837732 
L 386.859245 294.837732 
L 387.091805 295.488 
L 387.091805 295.488 
L 387.324366 280.825283 
L 387.324366 280.825283 
L 388.254608 257.578216 
L 388.254608 257.578216 
L 388.95229 251.020329 
L 388.95229 251.020329 
L 389.18485 251.692067 
L 389.18485 251.692067 
L 389.417411 252.813677 
L 389.417411 252.813677 
L 389.882532 257.928911 
L 389.882532 257.928911 
L 390.115092 261.649546 
L 390.115092 261.649546 
L 391.277895 293.668069 
L 391.277895 293.668069 
L 391.510456 290.455583 
L 392.905819 252.952728 
L 392.905819 252.952728 
L 393.603501 239.944308 
L 393.603501 239.944308 
L 394.068622 233.895593 
L 394.068622 233.895593 
L 394.301183 231.788357 
L 394.301183 231.788357 
L 394.766304 230.068624 
L 394.766304 230.068624 
L 394.998864 230.008301 
L 394.998864 230.008301 
L 395.231425 230.734229 
L 395.231425 230.734229 
L 395.463985 232.260722 
L 395.463985 232.260722 
L 395.929107 239.76436 
L 395.929107 239.76436 
L 396.394228 251.269802 
L 396.394228 251.269802 
L 396.859349 268.243219 
L 396.859349 268.243219 
L 397.091909 278.188428 
L 397.091909 278.188428 
L 397.32447 295.488 
L 397.32447 295.488 
L 397.789591 279.225175 
L 397.789591 279.225175 
L 398.254712 237.513984 
L 398.254712 237.513984 
L 398.487273 192.789682 
L 398.487273 192.789682 
" clip-path="url(#p424e6d6bdb)" style="fill: none; stroke: #1f77b4; stroke-width: 1.5; stroke-linecap: square"/>
   </g>
   <g id="patch_3">
    <path d="M 57.6 307.584 
L 57.6 41.472 
" style="fill: none; stroke: #000000; stroke-width: 0.8; stroke-linejoin: miter; stroke-linecap: square"/>
   </g>
   <g id="patch_4">
    <path d="M 414.72 307.584 
L 414.72 41.472 
" style="fill: none; stroke: #000000; stroke-width: 0.8; stroke-linejoin: miter; stroke-linecap: square"/>
   </g>
   <g id="patch_5">
    <path d="M 57.6 307.584 
L 414.72 307.584 
" style="fill: none; stroke: #000000; stroke-width: 0.8; stroke-linejoin: miter; stroke-linecap: square"/>
   </g>
   <g id="patch_6">
    <path d="M 57.6 41.472 
L 414.72 41.472 
" style="fill: none; stroke: #000000; stroke-width: 0.8; stroke-linejoin: miter; stroke-linecap: square"/>
   </g>
   <g id="text_14">
    <!-- Tracking error vs Time -->
    <g transform="translate(169.584375 35.472) scale(0.12 -0.12)">
     <defs>
      <path id="DejaVuSans-76" d="M 191 3500 
L 800 3500 
L 1894 563 
L 2988 3500 
L 3597 3500 
L 2284 0 
L 1503 0 
L 191 3500 
z
" transform="scale(0.015625)"/>
     </defs>
     <use xlink:href="#DejaVuSans-54"/>
     <use xlink:href="#DejaVuSans-72" x="46.333984"/>
     <use xlink:href="#DejaVuSans-61" x="87.447266"/>
     <use xlink:href="#DejaVuSans-63" x="148.726562"/>
     <use xlink:href="#DejaVuSans-6b" x="203.707031"/>
     <use xlink:href="#DejaVuSans-69" x="261.617188"/>
     <use xlink:href="#DejaVuSans-6e" x="289.400391"/>
     <use xlink:href="#DejaVuSans-67" x="352.779297"/>
     <use xlink:href="#DejaVuSans-20" x="416.255859"/>
     <use xlink:href="#DejaVuSans-65" x="448.042969"/>
     <use xlink:href="#DejaVuSans-72" x="509.566406"/>
     <use xlink:href="#DejaVuSans-72" x="548.929688"/>
     <use xlink:href="#DejaVuSans-6f" x="587.792969"/>
     <use xlink:href="#DejaVuSans-72" x="648.974609"/>
     <use xlink:href="#DejaVuSans-20" x="690.087891"/>
     <use xlink:href="#DejaVuSans-76" x="721.875"/>
     <use xlink:href="#DejaVuSans-73" x="781.054688"/>
     <use xlink:href="#DejaVuSans-20" x="833.154297"/>
     <use xlink:href="#DejaVuSans-54" x="864.941406"/>
     <use xlink:href="#DejaVuSans-69" x="922.900391"/>
     <use xlink:href="#DejaVuSans-6d" x="950.683594"/>
     <use xlink:href="#DejaVuSans-65" x="1048.095703"/>
    </g>
   </g>
   <g id="legend_1">
    <g id="patch_7">
     <path d="M 311.00125 64.150125 
L 407.72 64.150125 
Q 409.72 64.150125 409.72 62.150125 
L 409.72 48.472 
Q 409.72 46.472 407.72 46.472 
L 311.00125 46.472 
Q 309.00125 46.472 309.00125 48.472 
L 309.00125 62.150125 
Q 309.00125 64.150125 311.00125 64.150125 
z
" style="fill: #ffffff; opacity: 0.8; stroke: #cccccc; stroke-linejoin: miter"/>
    </g>
    <g id="line2d_24">
     <path d="M 313.00125 54.570438 
L 323.00125 54.570438 
L 333.00125 54.570438 
" style="fill: none; stroke: #1f77b4; stroke-width: 1.5; stroke-linecap: square"/>
    </g>
    <g id="text_15">
     <!-- Actual speed -->
     <g transform="translate(341.00125 58.070438) scale(0.1 -0.1)">
      <defs>
       <path id="DejaVuSans-41" d="M 2188 4044 
L 1331 1722 
L 3047 1722 
L 2188 4044 
z
M 1831 4666 
L 2547 4666 
L 4325 0 
L 3669 0 
L 3244 1197 
L 1141 1197 
L 716 0 
L 50 0 
L 1831 4666 
z
" transform="scale(0.015625)"/>
       <path id="DejaVuSans-74" d="M 1172 4494 
L 1172 3500 
L 2356 3500 
L 2356 3053 
L 1172 3053 
L 1172 1153 
Q 1172 725 1289 603 
Q 1406 481 1766 481 
L 2356 481 
L 2356 0 
L 1766 0 
Q 1100 0 847 248 
Q 594 497 594 1153 
L 594 3053 
L 172 3053 
L 172 3500 
L 594 3500 
L 594 4494 
L 1172 4494 
z
" transform="scale(0.015625)"/>
       <path id="DejaVuSans-75" d="M 544 1381 
L 544 3500 
L 1119 3500 
L 1119 1403 
Q 1119 906 1312 657 
Q 1506 409 1894 409 
Q 2359 409 2629 706 
Q 2900 1003 2900 1516 
L 2900 3500 
L 3475 3500 
L 3475 0 
L 2900 0 
L 2900 538 
Q 2691 219 2414 64 
Q 2138 -91 1772 -91 
Q 1169 -91 856 284 
Q 544 659 544 1381 
z
M 1991 3584 
L 1991 3584 
z
" transform="scale(0.015625)"/>
       <path id="DejaVuSans-6c" d="M 603 4863 
L 1178 4863 
L 1178 0 
L 603 0 
L 603 4863 
z
" transform="scale(0.015625)"/>
       <path id="DejaVuSans-70" d="M 1159 525 
L 1159 -1331 
L 581 -1331 
L 581 3500 
L 1159 3500 
L 1159 2969 
Q 1341 3281 1617 3432 
Q 1894 3584 2278 3584 
Q 2916 3584 3314 3078 
Q 3713 2572 3713 1747 
Q 3713 922 3314 415 
Q 2916 -91 2278 -91 
Q 1894 -91 1617 61 
Q 1341 213 1159 525 
z
M 3116 1747 
Q 3116 2381 2855 2742 
Q 2594 3103 2138 3103 
Q 1681 3103 1420 2742 
Q 1159 2381 1159 1747 
Q 1159 1113 1420 752 
Q 1681 391 2138 391 
Q 2594 391 2855 752 
Q 3116 1113 3116 1747 
z
" transform="scale(0.015625)"/>
       <path id="DejaVuSans-64" d="M 2906 2969 
L 2906 4863 
L 3481 4863 
L 3481 0 
L 2906 0 
L 2906 525 
Q 2725 213 2448 61 
Q 2172 -91 1784 -91 
Q 1150 -91 751 415 
Q 353 922 353 1747 
Q 353 2572 751 3078 
Q 1150 3584 1784 3584 
Q 2172 3584 2448 3432 
Q 2725 3281 2906 2969 
z
M 947 1747 
Q 947 1113 1208 752 
Q 1469 391 1925 391 
Q 2381 391 2643 752 
Q 2906 1113 2906 1747 
Q 2906 2381 2643 2742 
Q 2381 3103 1925 3103 
Q 1469 3103 1208 2742 
Q 947 2381 947 1747 
z
" transform="scale(0.015625)"/>
      </defs>
      <use xlink:href="#DejaVuSans-41"/>
      <use xlink:href="#DejaVuSans-63" x="66.658203"/>
      <use xlink:href="#DejaVuSans-74" x="121.638672"/>
      <use xlink:href="#DejaVuSans-75" x="160.847656"/>
      <use xlink:href="#DejaVuSans-61" x="224.226562"/>
      <use xlink:href="#DejaVuSans-6c" x="285.505859"/>
      <use xlink:href="#DejaVuSans-20" x="313.289062"/>
      <use xlink:href="#DejaVuSans-73" x="345.076172"/>
      <use xlink:href="#DejaVuSans-70" x="397.175781"/>
      <use xlink:href="#DejaVuSans-65" x="460.652344"/>
      <use xlink:href="#DejaVuSans-65" x="522.175781"/>
      <use xlink:href="#DejaVuSans-64" x="583.699219"/>
     </g>
    </g>
   </g>
  </g>
 </g>
 <defs>
  <clipPath id="p424e6d6bdb">
   <rect x="57.6" y="41.472" width="357.12" height="266.112"/>
  </clipPath>
 </defs>
</svg>
