<?xml version="1.0" encoding="utf-8" standalone="no"?>
<!DOCTYPE svg PUBLIC "-//W3C//DTD SVG 1.1//EN"
  "http://www.w3.org/Graphics/SVG/1.1/DTD/svg11.dtd">
<svg xmlns:xlink="http://www.w3.org/1999/xlink" width="460.8pt" height="345.6pt" viewBox="0 0 460.8 345.6" xmlns="http://www.w3.org/2000/svg" version="1.1">
 <metadata>
  <rdf:RDF xmlns:dc="http://purl.org/dc/elements/1.1/" xmlns:cc="http://creativecommons.org/ns#" xmlns:rdf="http://www.w3.org/1999/02/22-rdf-syntax-ns#">
   <cc:Work>
    <dc:type rdf:resource="http://purl.org/dc/dcmitype/StillImage"/>
    <dc:date>2024-01-30T20:59:20.875367</dc:date>
    <dc:format>image/svg+xml</dc:format>
    <dc:creator>
     <cc:Agent>
      <dc:title>Matplotlib v3.7.1, https://matplotlib.org/</dc:title>
     </cc:Agent>
    </dc:creator>
   </cc:Work>
  </rdf:RDF>
 </metadata>
 <defs>
  <style type="text/css">*{stroke-linejoin: round; stroke-linecap: butt}</style>
 </defs>
 <g id="figure_1">
  <g id="patch_1">
   <path d="M 0 345.6 
L 460.8 345.6 
L 460.8 0 
L 0 0 
z
" style="fill: #ffffff"/>
  </g>
  <g id="axes_1">
   <g id="patch_2">
    <path d="M 57.6 307.584 
L 414.72 307.584 
L 414.72 41.472 
L 57.6 41.472 
z
" style="fill: #ffffff"/>
   </g>
   <g id="matplotlib.axis_1">
    <g id="xtick_1">
     <g id="line2d_1">
      <path d="M 73.832727 307.584 
L 73.832727 41.472 
" clip-path="url(#pb7bb9e2c72)" style="fill: none; stroke: #b0b0b0; stroke-width: 0.8; stroke-linecap: square"/>
     </g>
     <g id="line2d_2">
      <defs>
       <path id="m06e886f61a" d="M 0 0 
L 0 3.5 
" style="stroke: #000000; stroke-width: 0.8"/>
      </defs>
      <g>
       <use xlink:href="#m06e886f61a" x="73.832727" y="307.584" style="stroke: #000000; stroke-width: 0.8"/>
      </g>
     </g>
     <g id="text_1">
      <!-- 0 -->
      <g transform="translate(70.651477 322.182437) scale(0.1 -0.1)">
       <defs>
        <path id="DejaVuSans-30" d="M 2034 4250 
Q 1547 4250 1301 3770 
Q 1056 3291 1056 2328 
Q 1056 1369 1301 889 
Q 1547 409 2034 409 
Q 2525 409 2770 889 
Q 3016 1369 3016 2328 
Q 3016 3291 2770 3770 
Q 2525 4250 2034 4250 
z
M 2034 4750 
Q 2819 4750 3233 4129 
Q 3647 3509 3647 2328 
Q 3647 1150 3233 529 
Q 2819 -91 2034 -91 
Q 1250 -91 836 529 
Q 422 1150 422 2328 
Q 422 3509 836 4129 
Q 1250 4750 2034 4750 
z
" transform="scale(0.015625)"/>
       </defs>
       <use xlink:href="#DejaVuSans-30"/>
      </g>
     </g>
    </g>
    <g id="xtick_2">
     <g id="line2d_3">
      <path d="M 131.972868 307.584 
L 131.972868 41.472 
" clip-path="url(#pb7bb9e2c72)" style="fill: none; stroke: #b0b0b0; stroke-width: 0.8; stroke-linecap: square"/>
     </g>
     <g id="line2d_4">
      <g>
       <use xlink:href="#m06e886f61a" x="131.972868" y="307.584" style="stroke: #000000; stroke-width: 0.8"/>
      </g>
     </g>
     <g id="text_2">
      <!-- 5 -->
      <g transform="translate(128.791618 322.182437) scale(0.1 -0.1)">
       <defs>
        <path id="DejaVuSans-35" d="M 691 4666 
L 3169 4666 
L 3169 4134 
L 1269 4134 
L 1269 2991 
Q 1406 3038 1543 3061 
Q 1681 3084 1819 3084 
Q 2600 3084 3056 2656 
Q 3513 2228 3513 1497 
Q 3513 744 3044 326 
Q 2575 -91 1722 -91 
Q 1428 -91 1123 -41 
Q 819 9 494 109 
L 494 744 
Q 775 591 1075 516 
Q 1375 441 1709 441 
Q 2250 441 2565 725 
Q 2881 1009 2881 1497 
Q 2881 1984 2565 2268 
Q 2250 2553 1709 2553 
Q 1456 2553 1204 2497 
Q 953 2441 691 2322 
L 691 4666 
z
" transform="scale(0.015625)"/>
       </defs>
       <use xlink:href="#DejaVuSans-35"/>
      </g>
     </g>
    </g>
    <g id="xtick_3">
     <g id="line2d_5">
      <path d="M 190.113009 307.584 
L 190.113009 41.472 
" clip-path="url(#pb7bb9e2c72)" style="fill: none; stroke: #b0b0b0; stroke-width: 0.8; stroke-linecap: square"/>
     </g>
     <g id="line2d_6">
      <g>
       <use xlink:href="#m06e886f61a" x="190.113009" y="307.584" style="stroke: #000000; stroke-width: 0.8"/>
      </g>
     </g>
     <g id="text_3">
      <!-- 10 -->
      <g transform="translate(183.750509 322.182437) scale(0.1 -0.1)">
       <defs>
        <path id="DejaVuSans-31" d="M 794 531 
L 1825 531 
L 1825 4091 
L 703 3866 
L 703 4441 
L 1819 4666 
L 2450 4666 
L 2450 531 
L 3481 531 
L 3481 0 
L 794 0 
L 794 531 
z
" transform="scale(0.015625)"/>
       </defs>
       <use xlink:href="#DejaVuSans-31"/>
       <use xlink:href="#DejaVuSans-30" x="63.623047"/>
      </g>
     </g>
    </g>
    <g id="xtick_4">
     <g id="line2d_7">
      <path d="M 248.253149 307.584 
L 248.253149 41.472 
" clip-path="url(#pb7bb9e2c72)" style="fill: none; stroke: #b0b0b0; stroke-width: 0.8; stroke-linecap: square"/>
     </g>
     <g id="line2d_8">
      <g>
       <use xlink:href="#m06e886f61a" x="248.253149" y="307.584" style="stroke: #000000; stroke-width: 0.8"/>
      </g>
     </g>
     <g id="text_4">
      <!-- 15 -->
      <g transform="translate(241.890649 322.182437) scale(0.1 -0.1)">
       <use xlink:href="#DejaVuSans-31"/>
       <use xlink:href="#DejaVuSans-35" x="63.623047"/>
      </g>
     </g>
    </g>
    <g id="xtick_5">
     <g id="line2d_9">
      <path d="M 306.39329 307.584 
L 306.39329 41.472 
" clip-path="url(#pb7bb9e2c72)" style="fill: none; stroke: #b0b0b0; stroke-width: 0.8; stroke-linecap: square"/>
     </g>
     <g id="line2d_10">
      <g>
       <use xlink:href="#m06e886f61a" x="306.39329" y="307.584" style="stroke: #000000; stroke-width: 0.8"/>
      </g>
     </g>
     <g id="text_5">
      <!-- 20 -->
      <g transform="translate(300.03079 322.182437) scale(0.1 -0.1)">
       <defs>
        <path id="DejaVuSans-32" d="M 1228 531 
L 3431 531 
L 3431 0 
L 469 0 
L 469 531 
Q 828 903 1448 1529 
Q 2069 2156 2228 2338 
Q 2531 2678 2651 2914 
Q 2772 3150 2772 3378 
Q 2772 3750 2511 3984 
Q 2250 4219 1831 4219 
Q 1534 4219 1204 4116 
Q 875 4013 500 3803 
L 500 4441 
Q 881 4594 1212 4672 
Q 1544 4750 1819 4750 
Q 2544 4750 2975 4387 
Q 3406 4025 3406 3419 
Q 3406 3131 3298 2873 
Q 3191 2616 2906 2266 
Q 2828 2175 2409 1742 
Q 1991 1309 1228 531 
z
" transform="scale(0.015625)"/>
       </defs>
       <use xlink:href="#DejaVuSans-32"/>
       <use xlink:href="#DejaVuSans-30" x="63.623047"/>
      </g>
     </g>
    </g>
    <g id="xtick_6">
     <g id="line2d_11">
      <path d="M 364.533431 307.584 
L 364.533431 41.472 
" clip-path="url(#pb7bb9e2c72)" style="fill: none; stroke: #b0b0b0; stroke-width: 0.8; stroke-linecap: square"/>
     </g>
     <g id="line2d_12">
      <g>
       <use xlink:href="#m06e886f61a" x="364.533431" y="307.584" style="stroke: #000000; stroke-width: 0.8"/>
      </g>
     </g>
     <g id="text_6">
      <!-- 25 -->
      <g transform="translate(358.170931 322.182437) scale(0.1 -0.1)">
       <use xlink:href="#DejaVuSans-32"/>
       <use xlink:href="#DejaVuSans-35" x="63.623047"/>
      </g>
     </g>
    </g>
    <g id="text_7">
     <!-- Time(s) -->
     <g transform="translate(217.420156 335.860562) scale(0.1 -0.1)">
      <defs>
       <path id="DejaVuSans-54" d="M -19 4666 
L 3928 4666 
L 3928 4134 
L 2272 4134 
L 2272 0 
L 1638 0 
L 1638 4134 
L -19 4134 
L -19 4666 
z
" transform="scale(0.015625)"/>
       <path id="DejaVuSans-69" d="M 603 3500 
L 1178 3500 
L 1178 0 
L 603 0 
L 603 3500 
z
M 603 4863 
L 1178 4863 
L 1178 4134 
L 603 4134 
L 603 4863 
z
" transform="scale(0.015625)"/>
       <path id="DejaVuSans-6d" d="M 3328 2828 
Q 3544 3216 3844 3400 
Q 4144 3584 4550 3584 
Q 5097 3584 5394 3201 
Q 5691 2819 5691 2113 
L 5691 0 
L 5113 0 
L 5113 2094 
Q 5113 2597 4934 2840 
Q 4756 3084 4391 3084 
Q 3944 3084 3684 2787 
Q 3425 2491 3425 1978 
L 3425 0 
L 2847 0 
L 2847 2094 
Q 2847 2600 2669 2842 
Q 2491 3084 2119 3084 
Q 1678 3084 1418 2786 
Q 1159 2488 1159 1978 
L 1159 0 
L 581 0 
L 581 3500 
L 1159 3500 
L 1159 2956 
Q 1356 3278 1631 3431 
Q 1906 3584 2284 3584 
Q 2666 3584 2933 3390 
Q 3200 3197 3328 2828 
z
" transform="scale(0.015625)"/>
       <path id="DejaVuSans-65" d="M 3597 1894 
L 3597 1613 
L 953 1613 
Q 991 1019 1311 708 
Q 1631 397 2203 397 
Q 2534 397 2845 478 
Q 3156 559 3463 722 
L 3463 178 
Q 3153 47 2828 -22 
Q 2503 -91 2169 -91 
Q 1331 -91 842 396 
Q 353 884 353 1716 
Q 353 2575 817 3079 
Q 1281 3584 2069 3584 
Q 2775 3584 3186 3129 
Q 3597 2675 3597 1894 
z
M 3022 2063 
Q 3016 2534 2758 2815 
Q 2500 3097 2075 3097 
Q 1594 3097 1305 2825 
Q 1016 2553 972 2059 
L 3022 2063 
z
" transform="scale(0.015625)"/>
       <path id="DejaVuSans-28" d="M 1984 4856 
Q 1566 4138 1362 3434 
Q 1159 2731 1159 2009 
Q 1159 1288 1364 580 
Q 1569 -128 1984 -844 
L 1484 -844 
Q 1016 -109 783 600 
Q 550 1309 550 2009 
Q 550 2706 781 3412 
Q 1013 4119 1484 4856 
L 1984 4856 
z
" transform="scale(0.015625)"/>
       <path id="DejaVuSans-73" d="M 2834 3397 
L 2834 2853 
Q 2591 2978 2328 3040 
Q 2066 3103 1784 3103 
Q 1356 3103 1142 2972 
Q 928 2841 928 2578 
Q 928 2378 1081 2264 
Q 1234 2150 1697 2047 
L 1894 2003 
Q 2506 1872 2764 1633 
Q 3022 1394 3022 966 
Q 3022 478 2636 193 
Q 2250 -91 1575 -91 
Q 1294 -91 989 -36 
Q 684 19 347 128 
L 347 722 
Q 666 556 975 473 
Q 1284 391 1588 391 
Q 1994 391 2212 530 
Q 2431 669 2431 922 
Q 2431 1156 2273 1281 
Q 2116 1406 1581 1522 
L 1381 1569 
Q 847 1681 609 1914 
Q 372 2147 372 2553 
Q 372 3047 722 3315 
Q 1072 3584 1716 3584 
Q 2034 3584 2315 3537 
Q 2597 3491 2834 3397 
z
" transform="scale(0.015625)"/>
       <path id="DejaVuSans-29" d="M 513 4856 
L 1013 4856 
Q 1481 4119 1714 3412 
Q 1947 2706 1947 2009 
Q 1947 1309 1714 600 
Q 1481 -109 1013 -844 
L 513 -844 
Q 928 -128 1133 580 
Q 1338 1288 1338 2009 
Q 1338 2731 1133 3434 
Q 928 4138 513 4856 
z
" transform="scale(0.015625)"/>
      </defs>
      <use xlink:href="#DejaVuSans-54"/>
      <use xlink:href="#DejaVuSans-69" x="57.958984"/>
      <use xlink:href="#DejaVuSans-6d" x="85.742188"/>
      <use xlink:href="#DejaVuSans-65" x="183.154297"/>
      <use xlink:href="#DejaVuSans-28" x="244.677734"/>
      <use xlink:href="#DejaVuSans-73" x="283.691406"/>
      <use xlink:href="#DejaVuSans-29" x="335.791016"/>
     </g>
    </g>
   </g>
   <g id="matplotlib.axis_2">
    <g id="ytick_1">
     <g id="line2d_13">
      <path d="M 57.6 295.488 
L 414.72 295.488 
" clip-path="url(#pb7bb9e2c72)" style="fill: none; stroke: #b0b0b0; stroke-width: 0.8; stroke-linecap: square"/>
     </g>
     <g id="line2d_14">
      <defs>
       <path id="me627abd422" d="M 0 0 
L -3.5 0 
" style="stroke: #000000; stroke-width: 0.8"/>
      </defs>
      <g>
       <use xlink:href="#me627abd422" x="57.6" y="295.488" style="stroke: #000000; stroke-width: 0.8"/>
      </g>
     </g>
     <g id="text_8">
      <!-- 0.00 -->
      <g transform="translate(28.334375 299.287219) scale(0.1 -0.1)">
       <defs>
        <path id="DejaVuSans-2e" d="M 684 794 
L 1344 794 
L 1344 0 
L 684 0 
L 684 794 
z
" transform="scale(0.015625)"/>
       </defs>
       <use xlink:href="#DejaVuSans-30"/>
       <use xlink:href="#DejaVuSans-2e" x="63.623047"/>
       <use xlink:href="#DejaVuSans-30" x="95.410156"/>
       <use xlink:href="#DejaVuSans-30" x="159.033203"/>
      </g>
     </g>
    </g>
    <g id="ytick_2">
     <g id="line2d_15">
      <path d="M 57.6 253.841561 
L 414.72 253.841561 
" clip-path="url(#pb7bb9e2c72)" style="fill: none; stroke: #b0b0b0; stroke-width: 0.8; stroke-linecap: square"/>
     </g>
     <g id="line2d_16">
      <g>
       <use xlink:href="#me627abd422" x="57.6" y="253.841561" style="stroke: #000000; stroke-width: 0.8"/>
      </g>
     </g>
     <g id="text_9">
      <!-- 0.05 -->
      <g transform="translate(28.334375 257.64078) scale(0.1 -0.1)">
       <use xlink:href="#DejaVuSans-30"/>
       <use xlink:href="#DejaVuSans-2e" x="63.623047"/>
       <use xlink:href="#DejaVuSans-30" x="95.410156"/>
       <use xlink:href="#DejaVuSans-35" x="159.033203"/>
      </g>
     </g>
    </g>
    <g id="ytick_3">
     <g id="line2d_17">
      <path d="M 57.6 212.195122 
L 414.72 212.195122 
" clip-path="url(#pb7bb9e2c72)" style="fill: none; stroke: #b0b0b0; stroke-width: 0.8; stroke-linecap: square"/>
     </g>
     <g id="line2d_18">
      <g>
       <use xlink:href="#me627abd422" x="57.6" y="212.195122" style="stroke: #000000; stroke-width: 0.8"/>
      </g>
     </g>
     <g id="text_10">
      <!-- 0.10 -->
      <g transform="translate(28.334375 215.994341) scale(0.1 -0.1)">
       <use xlink:href="#DejaVuSans-30"/>
       <use xlink:href="#DejaVuSans-2e" x="63.623047"/>
       <use xlink:href="#DejaVuSans-31" x="95.410156"/>
       <use xlink:href="#DejaVuSans-30" x="159.033203"/>
      </g>
     </g>
    </g>
    <g id="ytick_4">
     <g id="line2d_19">
      <path d="M 57.6 170.548683 
L 414.72 170.548683 
" clip-path="url(#pb7bb9e2c72)" style="fill: none; stroke: #b0b0b0; stroke-width: 0.8; stroke-linecap: square"/>
     </g>
     <g id="line2d_20">
      <g>
       <use xlink:href="#me627abd422" x="57.6" y="170.548683" style="stroke: #000000; stroke-width: 0.8"/>
      </g>
     </g>
     <g id="text_11">
      <!-- 0.15 -->
      <g transform="translate(28.334375 174.347901) scale(0.1 -0.1)">
       <use xlink:href="#DejaVuSans-30"/>
       <use xlink:href="#DejaVuSans-2e" x="63.623047"/>
       <use xlink:href="#DejaVuSans-31" x="95.410156"/>
       <use xlink:href="#DejaVuSans-35" x="159.033203"/>
      </g>
     </g>
    </g>
    <g id="ytick_5">
     <g id="line2d_21">
      <path d="M 57.6 128.902244 
L 414.72 128.902244 
" clip-path="url(#pb7bb9e2c72)" style="fill: none; stroke: #b0b0b0; stroke-width: 0.8; stroke-linecap: square"/>
     </g>
     <g id="line2d_22">
      <g>
       <use xlink:href="#me627abd422" x="57.6" y="128.902244" style="stroke: #000000; stroke-width: 0.8"/>
      </g>
     </g>
     <g id="text_12">
      <!-- 0.20 -->
      <g transform="translate(28.334375 132.701462) scale(0.1 -0.1)">
       <use xlink:href="#DejaVuSans-30"/>
       <use xlink:href="#DejaVuSans-2e" x="63.623047"/>
       <use xlink:href="#DejaVuSans-32" x="95.410156"/>
       <use xlink:href="#DejaVuSans-30" x="159.033203"/>
      </g>
     </g>
    </g>
    <g id="ytick_6">
     <g id="line2d_23">
      <path d="M 57.6 87.255805 
L 414.72 87.255805 
" clip-path="url(#pb7bb9e2c72)" style="fill: none; stroke: #b0b0b0; stroke-width: 0.8; stroke-linecap: square"/>
     </g>
     <g id="line2d_24">
      <g>
       <use xlink:href="#me627abd422" x="57.6" y="87.255805" style="stroke: #000000; stroke-width: 0.8"/>
      </g>
     </g>
     <g id="text_13">
      <!-- 0.25 -->
      <g transform="translate(28.334375 91.055023) scale(0.1 -0.1)">
       <use xlink:href="#DejaVuSans-30"/>
       <use xlink:href="#DejaVuSans-2e" x="63.623047"/>
       <use xlink:href="#DejaVuSans-32" x="95.410156"/>
       <use xlink:href="#DejaVuSans-35" x="159.033203"/>
      </g>
     </g>
    </g>
    <g id="ytick_7">
     <g id="line2d_25">
      <path d="M 57.6 45.609365 
L 414.72 45.609365 
" clip-path="url(#pb7bb9e2c72)" style="fill: none; stroke: #b0b0b0; stroke-width: 0.8; stroke-linecap: square"/>
     </g>
     <g id="line2d_26">
      <g>
       <use xlink:href="#me627abd422" x="57.6" y="45.609365" style="stroke: #000000; stroke-width: 0.8"/>
      </g>
     </g>
     <g id="text_14">
      <!-- 0.30 -->
      <g transform="translate(28.334375 49.408584) scale(0.1 -0.1)">
       <defs>
        <path id="DejaVuSans-33" d="M 2597 2516 
Q 3050 2419 3304 2112 
Q 3559 1806 3559 1356 
Q 3559 666 3084 287 
Q 2609 -91 1734 -91 
Q 1441 -91 1130 -33 
Q 819 25 488 141 
L 488 750 
Q 750 597 1062 519 
Q 1375 441 1716 441 
Q 2309 441 2620 675 
Q 2931 909 2931 1356 
Q 2931 1769 2642 2001 
Q 2353 2234 1838 2234 
L 1294 2234 
L 1294 2753 
L 1863 2753 
Q 2328 2753 2575 2939 
Q 2822 3125 2822 3475 
Q 2822 3834 2567 4026 
Q 2313 4219 1838 4219 
Q 1578 4219 1281 4162 
Q 984 4106 628 3988 
L 628 4550 
Q 988 4650 1302 4700 
Q 1616 4750 1894 4750 
Q 2613 4750 3031 4423 
Q 3450 4097 3450 3541 
Q 3450 3153 3228 2886 
Q 3006 2619 2597 2516 
z
" transform="scale(0.015625)"/>
       </defs>
       <use xlink:href="#DejaVuSans-30"/>
       <use xlink:href="#DejaVuSans-2e" x="63.623047"/>
       <use xlink:href="#DejaVuSans-33" x="95.410156"/>
       <use xlink:href="#DejaVuSans-30" x="159.033203"/>
      </g>
     </g>
    </g>
    <g id="text_15">
     <!-- Tracking error(m) -->
     <g transform="translate(22.254687 217.803781) rotate(-90) scale(0.1 -0.1)">
      <defs>
       <path id="DejaVuSans-72" d="M 2631 2963 
Q 2534 3019 2420 3045 
Q 2306 3072 2169 3072 
Q 1681 3072 1420 2755 
Q 1159 2438 1159 1844 
L 1159 0 
L 581 0 
L 581 3500 
L 1159 3500 
L 1159 2956 
Q 1341 3275 1631 3429 
Q 1922 3584 2338 3584 
Q 2397 3584 2469 3576 
Q 2541 3569 2628 3553 
L 2631 2963 
z
" transform="scale(0.015625)"/>
       <path id="DejaVuSans-61" d="M 2194 1759 
Q 1497 1759 1228 1600 
Q 959 1441 959 1056 
Q 959 750 1161 570 
Q 1363 391 1709 391 
Q 2188 391 2477 730 
Q 2766 1069 2766 1631 
L 2766 1759 
L 2194 1759 
z
M 3341 1997 
L 3341 0 
L 2766 0 
L 2766 531 
Q 2569 213 2275 61 
Q 1981 -91 1556 -91 
Q 1019 -91 701 211 
Q 384 513 384 1019 
Q 384 1609 779 1909 
Q 1175 2209 1959 2209 
L 2766 2209 
L 2766 2266 
Q 2766 2663 2505 2880 
Q 2244 3097 1772 3097 
Q 1472 3097 1187 3025 
Q 903 2953 641 2809 
L 641 3341 
Q 956 3463 1253 3523 
Q 1550 3584 1831 3584 
Q 2591 3584 2966 3190 
Q 3341 2797 3341 1997 
z
" transform="scale(0.015625)"/>
       <path id="DejaVuSans-63" d="M 3122 3366 
L 3122 2828 
Q 2878 2963 2633 3030 
Q 2388 3097 2138 3097 
Q 1578 3097 1268 2742 
Q 959 2388 959 1747 
Q 959 1106 1268 751 
Q 1578 397 2138 397 
Q 2388 397 2633 464 
Q 2878 531 3122 666 
L 3122 134 
Q 2881 22 2623 -34 
Q 2366 -91 2075 -91 
Q 1284 -91 818 406 
Q 353 903 353 1747 
Q 353 2603 823 3093 
Q 1294 3584 2113 3584 
Q 2378 3584 2631 3529 
Q 2884 3475 3122 3366 
z
" transform="scale(0.015625)"/>
       <path id="DejaVuSans-6b" d="M 581 4863 
L 1159 4863 
L 1159 1991 
L 2875 3500 
L 3609 3500 
L 1753 1863 
L 3688 0 
L 2938 0 
L 1159 1709 
L 1159 0 
L 581 0 
L 581 4863 
z
" transform="scale(0.015625)"/>
       <path id="DejaVuSans-6e" d="M 3513 2113 
L 3513 0 
L 2938 0 
L 2938 2094 
Q 2938 2591 2744 2837 
Q 2550 3084 2163 3084 
Q 1697 3084 1428 2787 
Q 1159 2491 1159 1978 
L 1159 0 
L 581 0 
L 581 3500 
L 1159 3500 
L 1159 2956 
Q 1366 3272 1645 3428 
Q 1925 3584 2291 3584 
Q 2894 3584 3203 3211 
Q 3513 2838 3513 2113 
z
" transform="scale(0.015625)"/>
       <path id="DejaVuSans-67" d="M 2906 1791 
Q 2906 2416 2648 2759 
Q 2391 3103 1925 3103 
Q 1463 3103 1205 2759 
Q 947 2416 947 1791 
Q 947 1169 1205 825 
Q 1463 481 1925 481 
Q 2391 481 2648 825 
Q 2906 1169 2906 1791 
z
M 3481 434 
Q 3481 -459 3084 -895 
Q 2688 -1331 1869 -1331 
Q 1566 -1331 1297 -1286 
Q 1028 -1241 775 -1147 
L 775 -588 
Q 1028 -725 1275 -790 
Q 1522 -856 1778 -856 
Q 2344 -856 2625 -561 
Q 2906 -266 2906 331 
L 2906 616 
Q 2728 306 2450 153 
Q 2172 0 1784 0 
Q 1141 0 747 490 
Q 353 981 353 1791 
Q 353 2603 747 3093 
Q 1141 3584 1784 3584 
Q 2172 3584 2450 3431 
Q 2728 3278 2906 2969 
L 2906 3500 
L 3481 3500 
L 3481 434 
z
" transform="scale(0.015625)"/>
       <path id="DejaVuSans-20" transform="scale(0.015625)"/>
       <path id="DejaVuSans-6f" d="M 1959 3097 
Q 1497 3097 1228 2736 
Q 959 2375 959 1747 
Q 959 1119 1226 758 
Q 1494 397 1959 397 
Q 2419 397 2687 759 
Q 2956 1122 2956 1747 
Q 2956 2369 2687 2733 
Q 2419 3097 1959 3097 
z
M 1959 3584 
Q 2709 3584 3137 3096 
Q 3566 2609 3566 1747 
Q 3566 888 3137 398 
Q 2709 -91 1959 -91 
Q 1206 -91 779 398 
Q 353 888 353 1747 
Q 353 2609 779 3096 
Q 1206 3584 1959 3584 
z
" transform="scale(0.015625)"/>
      </defs>
      <use xlink:href="#DejaVuSans-54"/>
      <use xlink:href="#DejaVuSans-72" x="46.333984"/>
      <use xlink:href="#DejaVuSans-61" x="87.447266"/>
      <use xlink:href="#DejaVuSans-63" x="148.726562"/>
      <use xlink:href="#DejaVuSans-6b" x="203.707031"/>
      <use xlink:href="#DejaVuSans-69" x="261.617188"/>
      <use xlink:href="#DejaVuSans-6e" x="289.400391"/>
      <use xlink:href="#DejaVuSans-67" x="352.779297"/>
      <use xlink:href="#DejaVuSans-20" x="416.255859"/>
      <use xlink:href="#DejaVuSans-65" x="448.042969"/>
      <use xlink:href="#DejaVuSans-72" x="509.566406"/>
      <use xlink:href="#DejaVuSans-72" x="548.929688"/>
      <use xlink:href="#DejaVuSans-6f" x="587.792969"/>
      <use xlink:href="#DejaVuSans-72" x="648.974609"/>
      <use xlink:href="#DejaVuSans-28" x="690.087891"/>
      <use xlink:href="#DejaVuSans-6d" x="729.101562"/>
      <use xlink:href="#DejaVuSans-29" x="826.513672"/>
     </g>
    </g>
   </g>
   <g id="line2d_27">
    <path d="M 73.832727 252.43058 
L 74.065288 294.329396 
L 74.065288 294.329396 
L 74.76297 200.907271 
L 74.76297 200.907271 
L 75.228091 160.913363 
L 75.228091 160.913363 
L 75.693212 138.833254 
L 75.693212 138.833254 
L 75.925772 133.399226 
L 76.158333 131.495984 
L 76.158333 131.495984 
L 76.390893 132.878646 
L 76.390893 132.878646 
L 76.856015 143.499321 
L 76.856015 143.499321 
L 77.553696 170.879355 
L 77.553696 170.879355 
L 78.94906 227.653447 
L 78.94906 227.653447 
L 79.879302 254.182229 
L 79.879302 254.182229 
L 81.274665 282.527628 
L 81.274665 282.527628 
L 81.507226 286.718093 
L 81.507226 286.718093 
L 81.739786 295.488 
L 81.739786 295.488 
L 82.204908 293.12748 
L 82.204908 293.12748 
L 83.36771 283.014891 
L 83.36771 283.014891 
L 83.600271 283.208964 
L 83.600271 283.208964 
L 83.832831 283.054872 
L 83.832831 283.054872 
L 84.065392 283.34723 
L 84.297953 284.094367 
L 84.297953 284.094367 
L 84.530513 285.308777 
L 84.530513 285.308777 
L 85.228195 295.488 
L 85.228195 295.488 
L 85.460755 294.391866 
L 85.460755 294.391866 
L 85.925877 286.733919 
L 85.925877 286.733919 
L 87.32124 266.729468 
L 87.32124 266.729468 
L 87.786361 262.834693 
L 87.786361 262.834693 
L 88.018922 261.424545 
L 88.018922 261.424545 
L 88.251482 259.004886 
L 88.251482 259.004886 
L 88.716603 257.15745 
L 88.716603 257.15745 
L 88.949164 256.692676 
L 89.181724 255.116775 
L 89.181724 255.116775 
L 89.414285 254.734461 
L 89.414285 254.734461 
L 89.646846 254.567042 
L 89.646846 254.567042 
L 89.879406 254.846073 
L 89.879406 254.846073 
L 90.111967 254.229706 
L 90.111967 254.229706 
L 90.344527 254.61202 
L 90.344527 254.61202 
L 90.577088 255.337501 
L 90.577088 255.337501 
L 90.809648 256.444463 
L 90.809648 256.444463 
L 91.042209 256.452793 
L 91.042209 256.452793 
L 91.50733 259.236441 
L 91.50733 259.236441 
L 91.739891 261.236303 
L 91.739891 261.236303 
L 91.972451 261.802694 
L 91.972451 261.802694 
L 93.367815 274.163357 
L 93.367815 274.163357 
L 93.600375 274.686437 
L 93.600375 274.686437 
L 94.065496 278.8794 
L 94.065496 278.8794 
L 94.298057 278.906887 
L 94.298057 278.906887 
L 94.763178 281.98206 
L 94.763178 281.98206 
L 94.995738 281.523949 
L 94.995738 281.523949 
L 95.46086 284.189321 
L 95.46086 284.189321 
L 95.69342 283.242281 
L 95.69342 283.242281 
L 95.925981 284.321757 
L 95.925981 284.321757 
L 96.158541 286.008438 
L 96.158541 286.008438 
L 96.391102 284.869824 
L 96.391102 284.869824 
L 96.623662 286.349105 
L 96.623662 286.349105 
L 96.856223 288.702962 
L 96.856223 288.702962 
L 97.088784 287.639312 
L 97.088784 287.639312 
L 97.321344 289.847406 
L 97.321344 289.847406 
L 97.553905 289.769944 
L 97.553905 289.769944 
L 98.019026 293.735518 
L 98.019026 293.735518 
L 98.251586 292.628555 
L 98.251586 292.628555 
L 98.484147 295.488 
L 98.484147 295.488 
L 98.716707 295.036553 
L 98.716707 295.036553 
L 98.949268 291.95305 
L 98.949268 291.95305 
L 99.181829 295.488 
L 99.181829 295.488 
L 99.87951 283.521312 
L 99.87951 283.521312 
L 100.112071 281.827968 
L 100.112071 281.827968 
L 100.344631 275.568508 
L 100.344631 275.568508 
L 100.577192 272.809848 
L 100.577192 272.809848 
L 101.042313 264.249006 
L 101.042313 264.249006 
L 101.274874 261.698578 
L 101.274874 261.698578 
L 101.739995 254.178064 
L 101.739995 254.178064 
L 101.972555 252.485553 
L 101.972555 252.485553 
L 102.205116 248.41503 
L 102.205116 248.41503 
L 102.670237 245.627217 
L 102.670237 245.627217 
L 102.902798 242.148074 
L 102.902798 242.148074 
L 103.367919 240.322294 
L 103.367919 240.322294 
L 103.600479 237.31792 
L 103.600479 237.31792 
L 104.0656 235.886115 
L 104.0656 235.886115 
L 104.298161 233.261557 
L 104.298161 233.261557 
L 104.763282 232.018827 
L 104.763282 232.018827 
L 104.995843 229.91818 
L 104.995843 229.91818 
L 105.228403 229.406762 
L 105.228403 229.406762 
L 105.460964 229.207692 
L 105.460964 229.207692 
L 105.693524 228.009108 
L 105.693524 228.009108 
L 105.926085 228.113224 
L 105.926085 228.113224 
L 106.158645 228.443897 
L 106.158645 228.443897 
L 106.391206 228.421407 
L 106.391206 228.421407 
L 106.856327 230.343807 
L 106.856327 230.343807 
L 107.321448 233.081644 
L 107.321448 233.081644 
L 108.01913 238.940465 
L 108.01913 238.940465 
L 108.716812 247.207283 
L 108.716812 247.207283 
L 111.274978 286.261648 
L 111.274978 286.261648 
L 112.20522 295.470508 
L 112.20522 295.470508 
L 112.437781 293.285736 
L 112.437781 293.285736 
L 112.670341 295.488 
L 112.670341 295.488 
L 112.902902 288.98116 
L 112.902902 288.98116 
L 113.833144 281.419 
L 113.833144 281.419 
L 114.298265 278.945201 
L 114.298265 278.945201 
L 114.763386 278.054801 
L 114.763386 278.054801 
L 114.995947 278.007324 
L 114.995947 278.007324 
L 115.228507 278.214723 
L 115.461068 278.644514 
L 115.461068 278.644514 
L 117.321552 284.813185 
L 117.321552 284.813185 
L 117.786674 286.83387 
L 117.786674 286.83387 
L 118.251795 289.631678 
L 118.251795 289.631678 
L 118.484355 295.488 
L 118.484355 295.488 
L 118.716916 292.620226 
L 118.716916 292.620226 
L 119.182037 295.3514 
L 119.182037 295.3514 
L 119.414598 294.022045 
L 119.414598 294.022045 
L 119.647158 295.488 
L 119.647158 295.488 
L 119.879719 291.969709 
L 119.879719 291.969709 
L 120.34484 290.635357 
L 120.34484 290.635357 
L 120.5774 290.204733 
L 120.5774 290.204733 
L 120.809961 295.488 
L 120.809961 295.488 
L 121.042521 289.749954 
L 121.042521 289.749954 
L 121.275082 289.67499 
L 121.275082 289.67499 
L 121.507643 289.92237 
L 121.507643 289.92237 
L 121.740203 289.946525 
L 121.740203 289.946525 
L 121.972764 295.488 
L 121.972764 295.488 
L 122.205324 290.1356 
L 122.205324 290.1356 
L 122.437885 290.352994 
L 122.437885 290.352994 
L 122.903006 291.312528 
L 122.903006 291.312528 
L 123.135567 295.488 
L 123.135567 295.488 
L 123.368127 292.792642 
L 123.368127 292.792642 
L 124.065809 295.294761 
L 124.065809 295.294761 
L 124.298369 295.488 
L 124.53093 293.338211 
L 124.53093 293.338211 
L 125.228612 291.131782 
L 125.228612 291.131782 
L 125.461172 295.488 
L 125.461172 295.488 
L 125.693733 290.723647 
L 125.693733 290.723647 
L 125.926293 290.644519 
L 125.926293 290.644519 
L 126.391414 290.27803 
L 126.391414 290.27803 
L 126.623975 295.488 
L 126.623975 295.488 
L 126.856536 289.639174 
L 126.856536 289.639174 
L 127.321657 288.009965 
L 127.321657 288.009965 
L 128.949581 281.590583 
L 128.949581 281.590583 
L 129.182141 281.518118 
L 129.182141 281.518118 
L 129.414702 281.772162 
L 129.414702 281.772162 
L 129.879823 283.812837 
L 129.879823 283.812837 
L 131.042626 290.776122 
L 131.042626 290.776122 
L 131.275186 295.488 
L 131.275186 295.488 
L 131.507747 292.318706 
L 131.507747 292.318706 
L 131.740307 292.495287 
L 131.740307 292.495287 
L 131.972868 292.397001 
L 131.972868 292.397001 
L 132.205428 292.098813 
L 132.67055 290.891899 
L 132.67055 290.891899 
L 133.600792 287.687622 
L 133.600792 287.687622 
L 134.065913 286.753076 
L 134.065913 286.753076 
L 134.531034 286.815546 
L 134.531034 286.815546 
L 134.763595 287.321966 
L 134.763595 287.321966 
L 134.996155 288.250682 
L 134.996155 288.250682 
L 135.926397 294.543459 
L 135.926397 294.543459 
L 136.158958 293.903769 
L 136.158958 293.903769 
L 137.0892 282.707541 
L 137.0892 282.707541 
L 137.321761 281.45315 
L 137.321761 281.45315 
L 137.554321 278.298016 
L 137.554321 278.298016 
L 137.786882 277.101097 
L 137.786882 277.101097 
L 138.252003 270.941589 
L 138.252003 270.941589 
L 138.484564 270.865792 
L 138.484564 270.865792 
L 138.717124 267.767297 
L 138.717124 267.767297 
L 138.949685 267.481603 
L 138.949685 267.481603 
L 139.182245 264.418924 
L 139.182245 264.418924 
L 139.414806 263.61598 
L 139.879927 256.043825 
L 139.879927 256.043825 
L 140.112488 256.274546 
L 140.112488 256.274546 
L 140.345048 251.880847 
L 140.345048 251.880847 
L 140.577609 251.560169 
L 140.577609 251.560169 
L 140.810169 247.373036 
L 140.810169 247.373036 
L 141.04273 246.815807 
L 141.04273 246.815807 
L 141.27529 243.017651 
L 141.27529 243.017651 
L 141.507851 242.413778 
L 141.507851 242.413778 
L 141.740412 239.276968 
L 141.740412 239.276968 
L 141.972972 239.104552 
L 141.972972 239.104552 
L 142.205533 237.11052 
L 142.438093 233.973711 
L 142.438093 233.973711 
L 142.670654 237.247121 
L 142.670654 237.247121 
L 142.903214 236.267597 
L 142.903214 236.267597 
L 143.135775 241.513382 
L 143.135775 241.513382 
L 143.368336 243.190901 
L 143.368336 243.190901 
L 143.600896 250.714746 
L 143.600896 250.714746 
L 143.833457 254.46126 
L 143.833457 254.46126 
L 144.066017 262.809705 
L 144.066017 262.809705 
L 144.298578 267.090959 
L 144.298578 267.090959 
L 144.531138 274.989623 
L 144.531138 274.989623 
L 144.763699 278.511246 
L 144.763699 278.511246 
L 144.996259 284.976439 
L 145.22882 287.16371 
L 145.22882 287.16371 
L 145.461381 291.718164 
L 145.461381 291.718164 
L 145.693941 292.3995 
L 145.693941 292.3995 
L 145.926502 295.470508 
L 145.926502 295.470508 
L 146.159062 295.082364 
L 146.159062 295.082364 
L 146.391623 294.442674 
L 146.391623 294.442674 
L 146.856744 295.466344 
L 146.856744 295.466344 
L 147.089305 293.290734 
L 147.089305 293.290734 
L 147.321865 292.766822 
L 147.321865 292.766822 
L 147.554426 290.310515 
L 147.554426 290.310515 
L 147.786986 290.089789 
L 147.786986 290.089789 
L 148.019547 288.555534 
L 148.019547 288.555534 
L 148.252107 290.00483 
L 148.252107 290.00483 
L 148.484668 295.488 
L 148.484668 295.488 
L 148.717228 292.879267 
L 148.717228 292.879267 
L 148.949789 295.488 
L 148.949789 295.488 
L 149.18235 293.637232 
L 149.18235 293.637232 
L 149.41491 295.488 
L 149.41491 295.488 
L 149.880031 281.915426 
L 149.880031 281.915426 
L 150.112592 283.098184 
L 150.112592 283.098184 
L 150.345152 276.756265 
L 150.345152 276.756265 
L 150.577713 279.36 
L 150.577713 279.36 
L 150.810274 275.237835 
L 150.810274 275.237835 
L 151.042834 279.712329 
L 151.042834 279.712329 
L 151.275395 277.28101 
L 151.275395 277.28101 
L 151.507955 282.334389 
L 151.507955 282.334389 
L 151.740516 280.688521 
L 151.740516 280.688521 
L 151.973076 285.779382 
L 152.205637 283.987752 
L 152.205637 283.987752 
L 152.438197 287.552687 
L 152.438197 287.552687 
L 152.670758 284.449195 
L 152.670758 284.449195 
L 152.903319 286.155033 
L 153.135879 281.898767 
L 153.135879 281.898767 
L 153.36844 281.934583 
L 153.36844 281.934583 
L 153.601 277.211877 
L 153.601 277.211877 
L 153.833561 276.500555 
L 153.833561 276.500555 
L 154.066121 272.151001 
L 154.066121 272.151001 
L 154.298682 271.395535 
L 154.298682 271.395535 
L 154.531243 267.9672 
L 154.531243 267.9672 
L 154.763803 267.282533 
L 154.763803 267.282533 
L 154.996364 264.67963 
L 154.996364 264.67963 
L 155.228924 263.819215 
L 155.694045 260.295926 
L 155.694045 260.295926 
L 155.926606 258.664219 
L 155.926606 258.664219 
L 157.089409 245.07332 
L 157.089409 245.07332 
L 158.019651 232.4178 
L 158.019651 232.4178 
L 158.252212 231.520735 
L 158.252212 231.520735 
L 158.717333 226.942126 
L 158.717333 226.942126 
L 158.949893 229.321803 
L 158.949893 229.321803 
L 159.182454 228.48471 
L 159.182454 228.48471 
L 159.415014 231.165075 
L 159.415014 231.165075 
L 159.647575 231.367477 
L 159.647575 231.367477 
L 159.880135 230.246354 
L 159.880135 230.246354 
L 160.112696 234.879937 
L 160.112696 234.879937 
L 160.345257 234.510117 
L 160.345257 234.510117 
L 160.577817 238.086713 
L 160.810378 238.116698 
L 160.810378 238.116698 
L 161.042938 236.617427 
L 161.042938 236.617427 
L 161.275499 241.623329 
L 161.275499 241.623329 
L 161.508059 241.258506 
L 161.508059 241.258506 
L 161.74062 246.029522 
L 161.74062 246.029522 
L 161.973181 247.15814 
L 161.973181 247.15814 
L 162.438302 255.913055 
L 162.438302 255.913055 
L 162.670862 259.422184 
L 162.670862 259.422184 
L 163.135983 272.606613 
L 163.135983 272.606613 
L 163.601104 283.749535 
L 163.601104 283.749535 
L 163.833665 286.354936 
L 163.833665 286.354936 
L 164.066226 291.31586 
L 164.066226 291.31586 
L 164.298786 292.313708 
L 164.298786 292.313708 
L 164.531347 295.248117 
L 164.531347 295.248117 
L 164.996468 294.685057 
L 164.996468 294.685057 
L 165.229028 295.488 
L 165.229028 295.488 
L 165.461589 292.96256 
L 165.461589 292.96256 
L 165.69415 294.784175 
L 165.69415 294.784175 
L 165.92671 293.185785 
L 165.92671 293.185785 
L 166.159271 294.792504 
L 166.159271 294.792504 
L 166.391831 294.071188 
L 166.391831 294.071188 
L 166.624392 295.177318 
L 166.624392 295.177318 
L 166.856952 294.787507 
L 166.856952 294.787507 
L 167.089513 295.004901 
L 167.322073 291.296702 
L 167.322073 291.296702 
L 167.554634 290.241382 
L 167.554634 290.241382 
L 168.019755 284.395054 
L 168.019755 284.395054 
L 168.252316 282.740858 
L 168.252316 282.740858 
L 168.717437 275.497709 
L 168.717437 275.497709 
L 169.182558 268.072149 
L 169.182558 268.072149 
L 169.647679 261.165504 
L 169.647679 261.165504 
L 170.577921 250.185836 
L 170.577921 250.185836 
L 170.810482 248.251776 
L 170.810482 248.251776 
L 171.043042 247.639573 
L 171.043042 247.639573 
L 171.275603 247.38553 
L 171.275603 247.38553 
L 171.508164 247.955253 
L 171.508164 247.955253 
L 171.973285 252.020779 
L 171.973285 252.020779 
L 172.438406 258.017033 
L 172.438406 258.017033 
L 174.06633 280.466129 
L 174.06633 280.466129 
L 174.764011 285.937639 
L 174.764011 285.937639 
L 175.694254 290.150592 
L 175.694254 290.150592 
L 176.857057 294.918277 
L 176.857057 294.918277 
L 177.322178 291.060984 
L 177.322178 291.060984 
L 177.787299 286.276641 
L 177.787299 286.276641 
L 178.48498 277.935692 
L 178.48498 277.935692 
L 178.950102 271.869471 
L 178.950102 271.869471 
L 179.647783 262.912155 
L 179.647783 262.912155 
L 179.880344 257.738835 
L 179.880344 257.738835 
L 180.112904 255.717317 
L 180.112904 255.717317 
L 180.345465 249.329586 
L 180.345465 249.329586 
L 180.578026 247.932764 
L 180.578026 247.932764 
L 180.810586 239.850856 
L 180.810586 239.850856 
L 181.043147 239.164523 
L 181.043147 239.164523 
L 181.275707 236.579945 
L 181.275707 236.579945 
L 181.508268 229.324302 
L 181.740828 227.615132 
L 181.973389 219.222542 
L 181.973389 219.222542 
L 182.205949 218.97183 
L 182.205949 218.97183 
L 182.43851 216.917828 
L 182.43851 216.917828 
L 182.671071 210.686688 
L 182.671071 210.686688 
L 182.903631 210.13279 
L 182.903631 210.13279 
L 183.136192 203.28445 
L 183.136192 203.28445 
L 183.368752 204.415567 
L 183.368752 204.415567 
L 183.601313 203.808362 
L 183.601313 203.808362 
L 183.833873 199.427157 
L 183.833873 199.427157 
L 184.066434 200.581596 
L 184.066434 200.581596 
L 184.298995 195.083433 
L 184.298995 195.083433 
L 184.531555 197.246549 
L 184.531555 197.246549 
L 184.764116 196.876729 
L 184.764116 196.876729 
L 184.996676 191.688415 
L 184.996676 191.688415 
L 185.229237 191.39689 
L 185.229237 191.39689 
L 185.461797 183.531544 
L 185.461797 183.531544 
L 185.694358 184.226206 
L 185.694358 184.226206 
L 185.926918 182.098073 
L 185.926918 182.098073 
L 186.159479 174.692503 
L 186.159479 174.692503 
L 186.39204 173.549725 
L 186.39204 173.549725 
L 186.6246 163.436304 
L 186.6246 163.436304 
L 186.857161 164.63822 
L 186.857161 164.63822 
L 187.089721 152.858941 
L 187.089721 152.858941 
L 187.322282 156.987769 
L 187.322282 156.987769 
L 187.554842 158.046422 
L 187.554842 158.046422 
L 187.787403 152.177606 
L 187.787403 152.177606 
L 188.019964 155.674241 
L 188.019964 155.674241 
L 188.252524 150.607535 
L 188.252524 150.607535 
L 188.485085 157.11604 
L 188.485085 157.11604 
L 188.717645 152.804801 
L 188.717645 152.804801 
L 189.182766 166.459002 
L 189.182766 166.459002 
L 189.415327 164.737339 
L 189.415327 164.737339 
L 189.647887 170.880188 
L 189.647887 170.880188 
L 189.880448 167.4252 
L 189.880448 167.4252 
L 190.345569 177.261256 
L 190.345569 177.261256 
L 190.57813 174.371826 
L 190.57813 174.371826 
L 190.81069 177.710204 
L 190.81069 177.710204 
L 191.043251 172.86006 
L 191.043251 172.86006 
L 191.275811 176.935581 
L 191.275811 176.935581 
L 191.508372 178.922116 
L 191.508372 178.922116 
L 191.740933 176.396676 
L 191.740933 176.396676 
L 191.973493 179.96994 
L 191.973493 179.96994 
L 192.206054 177.681885 
L 192.206054 177.681885 
L 192.671175 188.644061 
L 192.671175 188.644061 
L 192.903735 190.872978 
L 192.903735 190.872978 
L 193.136296 198.085308 
L 193.136296 198.085308 
L 193.368856 201.083852 
L 193.368856 201.083852 
L 193.601417 209.947047 
L 193.601417 209.947047 
L 193.833978 213.570287 
L 193.833978 213.570287 
L 194.299099 231.474924 
L 194.299099 231.474924 
L 194.531659 236.807334 
L 194.531659 236.807334 
L 195.229341 258.358534 
L 195.229341 258.358534 
L 195.694462 271.582944 
L 195.694462 271.582944 
L 196.392144 291.189255 
L 196.392144 291.189255 
L 196.624704 293.034192 
L 196.624704 293.034192 
L 198.020068 258.377691 
L 198.020068 258.377691 
L 198.252628 248.745703 
L 198.252628 248.745703 
L 198.717749 239.426895 
L 198.717749 239.426895 
L 198.95031 229.317639 
L 198.95031 229.317639 
L 199.415431 219.194222 
L 199.415431 219.194222 
L 199.647992 210.321865 
L 199.647992 210.321865 
L 199.880552 206.946838 
L 199.880552 206.946838 
L 200.113113 197.393977 
L 200.113113 197.393977 
L 200.345673 197.92372 
L 200.345673 197.92372 
L 200.578234 197.657183 
L 200.578234 197.657183 
L 200.810794 191.677587 
L 200.810794 191.677587 
L 201.275916 197.445619 
L 201.275916 197.445619 
L 201.508476 194.49955 
L 201.508476 194.49955 
L 201.741037 199.101481 
L 201.741037 199.101481 
L 201.973597 201.27959 
L 201.973597 201.27959 
L 202.206158 197.906229 
L 202.206158 197.906229 
L 202.438718 199.593742 
L 202.438718 199.593742 
L 202.671279 193.20851 
L 202.90384 191.282779 
L 202.90384 191.282779 
L 203.1364 185.70049 
L 203.1364 185.70049 
L 203.601521 161.972848 
L 203.601521 161.972848 
L 203.834082 150.129434 
L 203.834082 150.129434 
L 204.066642 124.481891 
L 204.066642 124.481891 
L 204.531763 103.052299 
L 204.531763 103.052299 
L 204.764324 82.523936 
L 204.764324 82.523936 
L 204.996885 76.030423 
L 205.229445 60.451323 
L 205.229445 60.451323 
L 205.462006 61.822324 
L 205.462006 61.822324 
L 205.694566 53.568 
L 205.694566 53.568 
L 205.927127 61.190131 
L 205.927127 61.190131 
L 206.159687 57.080461 
L 206.159687 57.080461 
L 206.392248 69.000504 
L 206.392248 69.000504 
L 206.624809 66.570851 
L 206.624809 66.570851 
L 207.08993 94.563922 
L 207.08993 94.563922 
L 207.32249 99.673107 
L 207.32249 99.673107 
L 207.555051 115.519577 
L 207.555051 115.519577 
L 207.787611 120.334738 
L 207.787611 120.334738 
L 208.252732 152.040172 
L 208.252732 152.040172 
L 208.485293 159.312473 
L 208.485293 159.312473 
L 208.717854 171.918018 
L 208.717854 171.918018 
L 208.950414 174.975699 
L 208.950414 174.975699 
L 209.415535 191.176164 
L 209.415535 191.176164 
L 209.648096 190.064204 
L 209.648096 190.064204 
L 209.880656 193.780732 
L 209.880656 193.780732 
L 210.113217 194.881864 
L 210.113217 194.881864 
L 210.345778 190.797181 
L 210.345778 190.797181 
L 210.578338 191.457694 
L 210.578338 191.457694 
L 210.810899 190.996251 
L 210.810899 190.996251 
L 211.043459 188.046851 
L 211.043459 188.046851 
L 211.741141 194.370446 
L 211.741141 194.370446 
L 212.438823 213.363721 
L 212.438823 213.363721 
L 214.531868 292.755161 
L 214.531868 292.755161 
L 214.764428 291.555743 
L 214.764428 291.555743 
L 216.159792 249.963445 
L 216.159792 249.963445 
L 216.392352 239.626798 
L 216.624913 234.504286 
L 216.624913 234.504286 
L 216.857473 221.952883 
L 216.857473 221.952883 
L 217.090034 218.622 
L 217.090034 218.622 
L 217.322594 212.980574 
L 217.322594 212.980574 
L 217.555155 202.295763 
L 217.555155 202.295763 
L 217.787716 198.06865 
L 217.787716 198.06865 
L 218.020276 185.932877 
L 218.020276 185.932877 
L 218.252837 184.098768 
L 218.252837 184.098768 
L 218.485397 180.264797 
L 218.485397 180.264797 
L 218.717958 171.504885 
L 218.717958 171.504885 
L 218.950518 170.123056 
L 218.950518 170.123056 
L 219.183079 160.474409 
L 219.183079 160.474409 
L 219.415639 162.521748 
L 219.415639 162.521748 
L 219.6482 162.441787 
L 219.6482 162.441787 
L 219.880761 157.288457 
L 219.880761 157.288457 
L 220.113321 159.432415 
L 220.113321 159.432415 
L 220.345882 152.211756 
L 220.345882 152.211756 
L 220.578442 155.944942 
L 220.578442 155.944942 
L 220.811003 156.062385 
L 220.811003 156.062385 
L 221.043563 150.060301 
L 221.043563 150.060301 
L 221.276124 150.624193 
L 221.276124 150.624193 
L 221.508685 141.790151 
L 221.508685 141.790151 
L 221.741245 143.216125 
L 221.741245 143.216125 
L 221.973806 131.852477 
L 221.973806 131.852477 
L 222.206366 134.812706 
L 222.206366 134.812706 
L 222.438927 134.996784 
L 222.438927 134.996784 
L 222.671487 127.937712 
L 222.671487 127.937712 
L 222.904048 130.65889 
L 223.136608 124.19453 
L 223.136608 124.19453 
L 223.60173 136.095417 
L 223.60173 136.095417 
L 223.83429 136.084589 
L 223.83429 136.084589 
L 224.066851 143.817499 
L 224.066851 143.817499 
L 224.299411 143.239447 
L 224.299411 143.239447 
L 224.764532 158.328785 
L 224.764532 158.328785 
L 224.997093 158.48954 
L 224.997093 158.48954 
L 225.229654 163.569572 
L 225.229654 163.569572 
L 225.462214 161.456432 
L 225.462214 161.456432 
L 225.694775 164.98805 
L 225.694775 164.98805 
L 225.927335 166.105841 
L 225.927335 166.105841 
L 226.159896 161.473924 
L 226.159896 161.473924 
L 226.392456 161.895386 
L 226.392456 161.895386 
L 226.625017 160.441092 
L 226.625017 160.441092 
L 226.857577 155.156159 
L 226.857577 155.156159 
L 227.090138 155.607606 
L 227.090138 155.607606 
L 227.322699 150.061966 
L 227.322699 150.061966 
L 227.78782 158.200514 
L 227.78782 158.200514 
L 228.02038 158.383758 
L 228.02038 158.383758 
L 228.252941 164.980554 
L 228.252941 164.980554 
L 228.485501 164.409998 
L 228.485501 164.409998 
L 228.950623 177.461159 
L 228.950623 177.461159 
L 229.183183 177.292074 
L 229.183183 177.292074 
L 229.415744 182.273821 
L 229.415744 182.273821 
L 229.648304 179.540982 
L 229.648304 179.540982 
L 230.113425 187.484624 
L 230.113425 187.484624 
L 230.345986 185.953701 
L 230.345986 185.953701 
L 230.578546 190.010064 
L 230.578546 190.010064 
L 230.811107 188.455819 
L 230.811107 188.455819 
L 231.276228 199.603737 
L 231.276228 199.603737 
L 231.508789 202.023396 
L 231.508789 202.023396 
L 231.741349 208.896724 
L 231.741349 208.896724 
L 231.97391 211.888604 
L 231.97391 211.888604 
L 232.20647 219.908042 
L 232.20647 219.908042 
L 232.439031 223.332213 
L 232.904152 238.378238 
L 232.904152 238.378238 
L 234.532076 268.316197 
L 234.532076 268.316197 
L 234.764637 270.248592 
L 234.764637 270.248592 
L 234.997197 273.535329 
L 234.997197 273.535329 
L 235.229758 275.243666 
L 235.229758 275.243666 
L 235.462318 278.487091 
L 235.462318 278.487091 
L 235.694879 279.959709 
L 235.694879 279.959709 
L 235.927439 283.116509 
L 235.927439 283.116509 
L 236.16 284.486677 
L 236.16 284.486677 
L 236.392561 287.551855 
L 236.392561 287.551855 
L 236.625121 288.843727 
L 236.625121 288.843727 
L 236.857682 291.543249 
L 236.857682 291.543249 
L 237.090242 292.521108 
L 237.090242 292.521108 
L 237.322803 294.68589 
L 237.322803 294.68589 
L 237.555363 295.229792 
L 237.555363 295.229792 
L 237.787924 294.126994 
L 237.787924 294.126994 
L 238.020485 293.980399 
L 238.020485 293.980399 
L 238.253045 292.937572 
L 238.253045 292.937572 
L 238.485606 293.086666 
L 238.485606 293.086666 
L 238.718166 292.543597 
L 238.718166 292.543597 
L 238.950727 292.876768 
L 238.950727 292.876768 
L 239.183287 292.506115 
L 239.183287 292.506115 
L 239.415848 292.750996 
L 239.415848 292.750996 
L 239.648408 292.372013 
L 239.648408 292.372013 
L 239.880969 295.488 
L 239.880969 295.488 
L 240.11353 292.323704 
L 240.11353 292.323704 
L 240.34609 291.165933 
L 240.34609 291.165933 
L 240.578651 290.692829 
L 240.578651 290.692829 
L 241.043772 288.803747 
L 241.043772 288.803747 
L 241.276332 288.30982 
L 241.508893 286.946315 
L 241.508893 286.946315 
L 241.741454 286.38159 
L 241.741454 286.38159 
L 241.974014 286.114219 
L 241.974014 286.114219 
L 242.206575 284.943955 
L 242.206575 284.943955 
L 242.671696 284.456691 
L 242.671696 284.456691 
L 242.904256 283.155656 
L 242.904256 283.155656 
L 243.369377 281.960404 
L 243.369377 281.960404 
L 243.834499 279.083468 
L 243.834499 279.083468 
L 244.067059 277.961513 
L 244.067059 277.961513 
L 244.764741 272.94395 
L 244.764741 272.94395 
L 244.997301 271.534634 
L 244.997301 271.534634 
L 245.462423 267.779791 
L 245.462423 267.779791 
L 246.392665 262.761395 
L 246.392665 262.761395 
L 246.857786 261.545319 
L 246.857786 261.545319 
L 247.090346 261.103867 
L 247.090346 261.103867 
L 247.322907 259.5946 
L 247.322907 259.5946 
L 248.020589 257.055833 
L 248.020589 257.055833 
L 248.48571 253.765764 
L 248.48571 253.765764 
L 249.881073 246.394345 
L 249.881073 246.394345 
L 250.113634 246.024524 
L 250.113634 246.024524 
L 250.346194 245.877096 
L 250.346194 245.877096 
L 250.578755 244.81178 
L 250.578755 244.81178 
L 250.811315 244.721824 
L 250.811315 244.721824 
L 251.276437 244.936719 
L 251.276437 244.936719 
L 251.508997 245.112467 
L 251.741558 244.006338 
L 251.741558 244.006338 
L 252.206679 243.639016 
L 252.206679 243.639016 
L 252.439239 243.600702 
L 252.439239 243.600702 
L 252.6718 243.691491 
L 252.6718 243.691491 
L 252.904361 242.641168 
L 252.904361 242.641168 
L 253.136921 242.760276 
L 253.602042 243.458271 
L 253.602042 243.458271 
L 253.834603 243.019317 
L 253.834603 243.019317 
L 254.299724 243.67983 
L 254.299724 243.67983 
L 254.764845 244.585223 
L 254.764845 244.585223 
L 254.997406 244.072139 
L 254.997406 244.072139 
L 255.462527 243.983016 
L 255.462527 243.983016 
L 255.927648 243.837253 
L 255.927648 243.837253 
L 256.160208 242.991831 
L 256.160208 242.991831 
L 256.392769 242.914368 
L 256.392769 242.914368 
L 256.62533 243.08845 
L 256.62533 243.08845 
L 257.090451 244.003839 
L 257.090451 244.003839 
L 257.323011 243.809767 
L 257.323011 243.809767 
L 257.788132 245.193261 
L 257.788132 245.193261 
L 258.253253 247.148978 
L 258.253253 247.148978 
L 258.485814 247.305569 
L 258.485814 247.305569 
L 259.416056 250.017585 
L 259.416056 250.017585 
L 259.648617 249.474515 
L 259.648617 249.474515 
L 260.113738 249.612781 
L 260.113738 249.612781 
L 260.346299 249.821014 
L 260.346299 249.821014 
L 260.578859 250.193333 
L 260.578859 250.193333 
L 260.81142 249.832675 
L 260.81142 249.832675 
L 261.276541 250.934639 
L 261.276541 250.934639 
L 261.741662 252.767916 
L 261.741662 252.767916 
L 261.974222 252.924506 
L 262.904465 256.971707 
L 262.904465 256.971707 
L 263.137025 256.798458 
L 263.137025 256.798458 
L 263.602146 257.409828 
L 263.602146 257.409828 
L 264.067268 257.609731 
L 264.067268 257.609731 
L 264.299828 256.558575 
L 264.299828 256.558575 
L 264.764949 256.253723 
L 264.764949 256.253723 
L 264.99751 256.367001 
L 264.99751 256.367001 
L 265.23007 256.632705 
L 265.23007 256.632705 
L 265.462631 255.735641 
L 265.462631 255.735641 
L 265.927752 255.913888 
L 265.927752 255.913888 
L 266.392873 256.241229 
L 266.392873 256.241229 
L 266.625434 254.972678 
L 266.625434 254.972678 
L 267.090555 253.749939 
L 267.090555 253.749939 
L 267.555676 252.059093 
L 267.555676 252.059093 
L 268.020797 248.882303 
L 268.020797 248.882303 
L 268.485918 247.319729 
L 268.485918 247.319729 
L 268.718479 246.913259 
L 268.718479 246.913259 
L 268.951039 245.548922 
L 268.951039 245.548922 
L 269.1836 245.261562 
L 269.1836 245.261562 
L 269.41616 245.22991 
L 269.41616 245.22991 
L 269.648721 245.434811 
L 269.648721 245.434811 
L 269.881282 245.842113 
L 269.881282 245.842113 
L 270.113842 245.363179 
L 270.578963 246.301057 
L 270.578963 246.301057 
L 270.811524 246.892436 
L 270.811524 246.892436 
L 271.044084 246.832465 
L 271.044084 246.832465 
L 271.974327 248.544134 
L 271.974327 248.544134 
L 272.206887 248.319243 
L 272.206887 248.319243 
L 273.137129 248.951436 
L 273.137129 248.951436 
L 273.36969 248.5458 
L 273.36969 248.5458 
L 273.834811 248.559127 
L 273.834811 248.559127 
L 274.299932 248.789848 
L 274.299932 248.789848 
L 274.532493 248.53747 
L 274.532493 248.53747 
L 274.997614 249.018903 
L 274.997614 249.018903 
L 275.695296 250.448209 
L 275.695296 250.448209 
L 276.858098 253.836563 
L 276.858098 253.836563 
L 278.253462 258.933255 
L 278.253462 258.933255 
L 278.486022 259.262261 
L 278.486022 259.262261 
L 278.718583 259.320566 
L 278.718583 259.320566 
L 278.951144 259.189797 
L 278.951144 259.189797 
L 279.416265 261.535324 
L 279.416265 261.535324 
L 279.881386 264.331466 
L 279.881386 264.331466 
L 280.113946 266.456267 
L 280.113946 266.456267 
L 281.276749 292.296217 
L 281.276749 292.296217 
L 281.50931 289.668327 
L 281.50931 289.668327 
L 282.439552 254.741124 
L 282.439552 254.741124 
L 283.137234 226.623947 
L 283.137234 226.623947 
L 284.300036 185.546398 
L 284.300036 185.546398 
L 284.997718 158.322954 
L 284.997718 158.322954 
L 285.462839 147.724768 
L 285.462839 147.724768 
L 285.92796 152.818961 
L 285.92796 152.818961 
L 286.393082 165.879284 
L 286.393082 165.879284 
L 287.323324 237.528651 
L 287.323324 237.528651 
L 287.788445 283.018223 
L 287.788445 283.018223 
L 288.021005 282.640906 
L 288.021005 282.640906 
L 288.486127 243.838086 
L 288.486127 243.838086 
L 288.951248 222.81663 
L 288.951248 222.81663 
L 289.416369 214.314093 
L 289.416369 214.314093 
L 289.648929 209.329847 
L 289.648929 209.329847 
L 290.114051 205.176864 
L 290.114051 205.176864 
L 290.579172 198.242732 
L 290.579172 198.242732 
L 290.811732 196.189562 
L 290.811732 196.189562 
L 291.276853 190.195807 
L 291.276853 190.195807 
L 291.974535 185.648849 
L 291.974535 185.648849 
L 292.207096 185.635522 
L 292.207096 185.635522 
L 292.672217 186.693341 
L 292.672217 186.693341 
L 293.137338 191.542653 
L 293.137338 191.542653 
L 294.300141 211.024857 
L 294.300141 211.024857 
L 294.997822 217.699115 
L 294.997822 217.699115 
L 295.695504 223.88028 
L 295.695504 223.88028 
L 296.160625 229.293484 
L 296.160625 229.293484 
L 296.393186 232.671843 
L 296.393186 232.671843 
L 297.555989 258.694204 
L 297.555989 258.694204 
L 298.25367 278.755294 
L 298.25367 278.755294 
L 298.951352 293.675547 
L 298.951352 293.675547 
L 299.881594 275.277816 
L 299.881594 275.277816 
L 300.811836 264.972821 
L 300.811836 264.972821 
L 301.276958 262.93048 
L 301.276958 262.93048 
L 301.509518 263.074576 
L 301.509518 263.074576 
L 301.742079 263.901675 
L 301.742079 263.901675 
L 301.974639 263.799225 
L 301.974639 263.799225 
L 302.43976 266.097275 
L 302.43976 266.097275 
L 302.672321 266.070621 
L 303.137442 268.691848 
L 303.137442 268.691848 
L 303.370003 268.722667 
L 303.370003 268.722667 
L 304.300245 274.587318 
L 304.300245 274.587318 
L 304.532805 277.188555 
L 304.532805 277.188555 
L 304.765366 277.655828 
L 304.765366 277.655828 
L 304.997927 280.281219 
L 304.997927 280.281219 
L 305.230487 281.389015 
L 305.230487 281.389015 
L 306.39329 295.108184 
L 306.39329 295.108184 
L 307.090972 284.714899 
L 307.090972 284.714899 
L 307.323532 279.379157 
L 307.323532 279.379157 
L 307.556093 276.758763 
L 307.556093 276.758763 
L 308.253774 262.706422 
L 308.253774 262.706422 
L 308.486335 259.317235 
L 308.486335 259.317235 
L 308.951456 247.265588 
L 308.951456 247.265588 
L 309.184017 246.030355 
L 309.184017 246.030355 
L 309.416577 240.290643 
L 309.416577 240.290643 
L 309.649138 240.051592 
L 309.649138 240.051592 
L 309.881698 235.682881 
L 309.881698 235.682881 
L 310.114259 236.52164 
L 310.114259 236.52164 
L 310.346819 234.581749 
L 310.346819 234.581749 
L 310.57938 237.435363 
L 310.57938 237.435363 
L 310.811941 238.664766 
L 310.811941 238.664766 
L 311.044501 239.12954 
L 311.044501 239.12954 
L 311.277062 246.47264 
L 311.277062 246.47264 
L 311.509622 248.768192 
L 311.509622 248.768192 
L 311.742183 256.396153 
L 311.742183 256.396153 
L 311.974743 259.364712 
L 311.974743 259.364712 
L 312.207304 266.226379 
L 312.207304 266.226379 
L 312.439865 269.317378 
L 312.439865 269.317378 
L 312.672425 275.024606 
L 312.672425 275.024606 
L 312.904986 277.606685 
L 313.137546 278.137261 
L 313.137546 278.137261 
L 313.370107 283.586281 
L 313.370107 283.586281 
L 313.602667 283.228121 
L 313.602667 283.228121 
L 313.835228 287.06709 
L 313.835228 287.06709 
L 314.067788 286.483207 
L 314.067788 286.483207 
L 314.300349 289.320162 
L 314.300349 289.320162 
L 314.53291 288.781257 
L 314.53291 288.781257 
L 314.76547 291.078475 
L 314.76547 291.078475 
L 314.998031 295.488 
L 314.998031 295.488 
L 315.230591 290.018157 
L 315.230591 290.018157 
L 315.463152 293.698036 
L 315.463152 293.698036 
L 315.695712 293.220768 
L 315.695712 293.220768 
L 315.928273 294.432679 
L 315.928273 294.432679 
L 316.160834 294.356883 
L 316.160834 294.356883 
L 316.393394 291.479947 
L 316.393394 291.479947 
L 316.625955 291.069313 
L 316.625955 291.069313 
L 316.858515 288.715456 
L 316.858515 288.715456 
L 317.091076 295.488 
L 317.091076 295.488 
L 317.323636 287.701782 
L 317.323636 287.701782 
L 317.556197 284.778202 
L 317.556197 284.778202 
L 317.788757 284.244294 
L 317.788757 284.244294 
L 318.021318 281.873779 
L 318.021318 281.873779 
L 318.253879 281.129141 
L 318.253879 281.129141 
L 318.486439 279.347506 
L 318.95156 277.988999 
L 318.95156 277.988999 
L 319.184121 276.145728 
L 319.184121 276.145728 
L 319.416681 275.314465 
L 319.416681 275.314465 
L 319.881803 272.74488 
L 319.881803 272.74488 
L 320.114363 271.796174 
L 320.114363 271.796174 
L 320.579484 269.121639 
L 320.579484 269.121639 
L 321.509726 265.403445 
L 321.509726 265.403445 
L 321.742287 264.768754 
L 321.742287 264.768754 
L 321.974848 264.662972 
L 321.974848 264.662972 
L 322.207408 264.806235 
L 322.207408 264.806235 
L 322.439969 264.702119 
L 322.439969 264.702119 
L 323.13765 265.934021 
L 323.13765 265.934021 
L 323.602772 267.353332 
L 323.602772 267.353332 
L 324.533014 271.353889 
L 324.533014 271.353889 
L 325.463256 277.434269 
L 325.463256 277.434269 
L 326.626059 285.924312 
L 326.626059 285.924312 
L 326.858619 287.473559 
L 326.858619 287.473559 
L 327.323741 288.409771 
L 327.323741 288.409771 
L 327.556301 288.427263 
L 327.556301 288.427263 
L 327.788862 287.910014 
L 327.788862 287.910014 
L 328.253983 284.872323 
L 328.253983 284.872323 
L 328.719104 279.978866 
L 328.719104 279.978866 
L 329.649346 265.874883 
L 329.649346 265.874883 
L 330.114467 258.711696 
L 330.114467 258.711696 
L 330.812149 253.71912 
L 330.812149 253.71912 
L 331.04471 253.056942 
L 331.04471 253.056942 
L 331.27727 253.095257 
L 331.27727 253.095257 
L 331.974952 261.880157 
L 331.974952 261.880157 
L 332.440073 271.255603 
L 332.440073 271.255603 
L 333.137755 295.446354 
L 333.137755 295.446354 
L 334.300557 258.782494 
L 334.300557 258.782494 
L 334.765679 250.50818 
L 334.765679 250.50818 
L 334.998239 247.838643 
L 334.998239 247.838643 
L 335.695921 244.3595 
L 335.695921 244.3595 
L 335.928481 245.104138 
L 335.928481 245.104138 
L 336.161042 244.177088 
L 336.161042 244.177088 
L 336.393603 242.397952 
L 336.393603 242.397952 
L 336.626163 243.382474 
L 336.626163 243.382474 
L 336.858724 241.297653 
L 336.858724 241.297653 
L 337.091284 241.171048 
L 337.091284 241.171048 
L 337.323845 238.989608 
L 337.323845 238.989608 
L 337.556405 235.662057 
L 337.556405 235.662057 
L 337.788966 236.349224 
L 337.788966 236.349224 
L 338.254087 231.974682 
L 338.254087 231.974682 
L 338.486648 236.025214 
L 338.486648 236.025214 
L 338.719208 236.295916 
L 338.719208 236.295916 
L 339.184329 244.915063 
L 339.184329 244.915063 
L 339.41689 248.254275 
L 339.41689 248.254275 
L 339.882011 261.70191 
L 339.882011 261.70191 
L 340.347132 274.921323 
L 340.347132 274.921323 
L 340.579693 279.316688 
L 340.579693 279.316688 
L 341.044814 290.315512 
L 341.044814 290.315512 
L 341.277374 292.513611 
L 341.277374 292.513611 
L 341.509935 292.660207 
L 341.509935 292.660207 
L 341.742495 291.172596 
L 341.742495 291.172596 
L 341.975056 287.396097 
L 341.975056 287.396097 
L 342.207617 286.618141 
L 342.440177 287.093744 
L 342.672738 283.99275 
L 342.672738 283.99275 
L 342.905298 284.385059 
L 342.905298 284.385059 
L 343.137859 282.289411 
L 343.137859 282.289411 
L 343.370419 282.311067 
L 343.370419 282.311067 
L 343.60298 283.072364 
L 343.60298 283.072364 
L 343.835541 280.332028 
L 343.835541 280.332028 
L 344.068101 280.519437 
L 344.068101 280.519437 
L 344.300662 278.452108 
L 344.300662 278.452108 
L 344.533222 278.07729 
L 344.533222 278.07729 
L 344.765783 278.427953 
L 344.765783 278.427953 
L 344.998343 275.825883 
L 344.998343 275.825883 
L 345.230904 275.757583 
L 345.230904 275.757583 
L 345.463464 276.449747 
L 345.463464 276.449747 
L 345.696025 273.722738 
L 345.696025 273.722738 
L 345.928586 274.259977 
L 345.928586 274.259977 
L 346.161146 272.587456 
L 346.161146 272.587456 
L 346.393707 272.839833 
L 346.393707 272.839833 
L 346.626267 273.768549 
L 346.626267 273.768549 
L 346.858828 272.061045 
L 347.091388 272.890642 
L 347.091388 272.890642 
L 347.323949 272.233461 
L 347.323949 272.233461 
L 347.55651 272.98393 
L 347.55651 272.98393 
L 347.78907 274.394079 
L 347.78907 274.394079 
L 348.021631 273.720239 
L 348.021631 273.720239 
L 348.254191 275.175366 
L 348.254191 275.175366 
L 348.486752 275.361109 
L 348.486752 275.361109 
L 349.416994 282.298573 
L 349.416994 282.298573 
L 349.649555 282.956586 
L 349.649555 282.956586 
L 349.882115 285.133029 
L 349.882115 285.133029 
L 350.114676 285.722743 
L 350.114676 285.722743 
L 350.347236 287.56185 
L 350.347236 287.56185 
L 350.579797 287.556852 
L 350.579797 287.556852 
L 350.812357 288.842061 
L 350.812357 288.842061 
L 351.044918 295.488 
L 351.044918 295.488 
L 351.277479 287.868368 
L 351.277479 287.868368 
L 351.510039 287.316969 
L 351.510039 287.316969 
L 351.97516 284.0952 
L 351.97516 284.0952 
L 352.672842 273.275455 
L 352.672842 273.275455 
L 353.370524 253.156893 
L 353.370524 253.156893 
L 354.068205 215.700086 
L 354.068205 215.700086 
L 354.300766 211.865282 
L 354.300766 211.865282 
L 354.533326 205.500873 
L 354.533326 205.500873 
L 354.765887 191.04123 
L 354.765887 191.04123 
L 354.998448 187.974386 
L 354.998448 187.974386 
L 355.231008 173.900388 
L 355.231008 173.900388 
L 355.463569 173.929541 
L 355.696129 171.585679 
L 355.696129 171.585679 
L 355.92869 162.589215 
L 355.92869 162.589215 
L 356.16125 162.987355 
L 356.16125 162.987355 
L 356.393811 153.895105 
L 356.393811 153.895105 
L 356.626371 156.731227 
L 356.626371 156.731227 
L 356.858932 157.111043 
L 357.091493 150.737472 
L 357.091493 150.737472 
L 357.324053 152.374177 
L 357.324053 152.374177 
L 357.556614 143.865809 
L 357.556614 143.865809 
L 357.789174 146.886842 
L 357.789174 146.886842 
L 358.021735 147.035936 
L 358.021735 147.035936 
L 358.254295 139.184749 
L 358.254295 139.184749 
L 358.486856 140.044332 
L 358.486856 140.044332 
L 358.719417 129.591076 
L 358.719417 129.591076 
L 358.951977 132.122346 
L 358.951977 132.122346 
L 359.184538 132.079867 
L 359.184538 132.079867 
L 359.417098 123.714763 
L 359.417098 123.714763 
L 359.649659 125.777928 
L 359.649659 125.777928 
L 359.882219 125.452253 
L 359.882219 125.452253 
L 360.11478 120.573789 
L 360.11478 120.573789 
L 360.34734 122.608634 
L 360.34734 122.608634 
L 360.579901 117.086316 
L 360.579901 117.086316 
L 360.812462 121.255125 
L 360.812462 121.255125 
L 361.045022 114.350145 
L 361.045022 114.350145 
L 361.510143 123.647296 
L 361.510143 123.647296 
L 361.742704 118.419835 
L 361.742704 118.419835 
L 361.975264 122.518677 
L 361.975264 122.518677 
L 362.207825 115.062299 
L 362.207825 115.062299 
L 362.672946 125.255681 
L 362.672946 125.255681 
L 362.905507 121.669923 
L 362.905507 121.669923 
L 363.138067 127.711156 
L 363.138067 127.711156 
L 363.370628 122.153855 
L 363.370628 122.153855 
L 363.835749 137.2282 
L 363.835749 137.2282 
L 364.068309 136.314477 
L 364.068309 136.314477 
L 364.30087 145.652441 
L 364.30087 145.652441 
L 364.533431 142.967912 
L 364.533431 142.967912 
L 364.998552 164.056836 
L 364.998552 164.056836 
L 365.231112 166.122499 
L 365.231112 166.122499 
L 365.463673 177.878456 
L 365.463673 177.878456 
L 365.696233 180.189 
L 365.696233 180.189 
L 366.161355 201.666069 
L 366.161355 201.666069 
L 366.393915 205.738258 
L 366.393915 205.738258 
L 366.859036 220.076294 
L 366.859036 220.076294 
L 367.556718 234.069497 
L 367.556718 234.069497 
L 369.417202 273.764384 
L 369.417202 273.764384 
L 369.882324 281.05501 
L 369.882324 281.05501 
L 370.347445 285.846849 
L 370.347445 285.846849 
L 370.812566 287.858372 
L 370.812566 287.858372 
L 371.045126 287.923341 
L 371.045126 287.923341 
L 371.277687 287.450237 
L 371.277687 287.450237 
L 372.44049 281.190777 
L 372.44049 281.190777 
L 372.67305 281.394845 
L 372.67305 281.394845 
L 372.905611 279.693172 
L 372.905611 279.693172 
L 373.138171 281.247417 
L 373.138171 281.247417 
L 373.370732 280.521936 
L 373.370732 280.521936 
L 373.603293 283.757864 
L 373.603293 283.757864 
L 373.835853 283.974425 
L 373.835853 283.974425 
L 374.068414 288.428096 
L 374.068414 288.428096 
L 374.300974 289.192724 
L 374.300974 289.192724 
L 374.533535 293.874617 
L 374.533535 293.874617 
L 374.766095 293.553939 
L 374.766095 293.553939 
L 374.998656 294.381871 
L 374.998656 294.381871 
L 375.231216 294.183634 
L 375.231216 294.183634 
L 375.463777 294.834984 
L 375.463777 294.834984 
L 375.696338 289.885721 
L 375.696338 289.885721 
L 375.928898 288.036619 
L 375.928898 288.036619 
L 376.161459 280.907582 
L 376.161459 280.907582 
L 376.394019 277.452593 
L 376.394019 277.452593 
L 377.091701 257.142458 
L 377.091701 257.142458 
L 377.324262 253.314317 
L 377.324262 253.314317 
L 377.556822 246.774993 
L 377.556822 246.774993 
L 377.789383 244.561901 
L 377.789383 244.561901 
L 378.021943 240.678787 
L 378.021943 240.678787 
L 378.254504 241.637488 
L 378.254504 241.637488 
L 378.487064 241.954001 
L 378.487064 241.954001 
L 378.719625 241.904859 
L 378.719625 241.904859 
L 378.952185 251.3586 
L 378.952185 251.3586 
L 379.184746 255.04431 
L 379.184746 255.04431 
L 379.417307 268.219578 
L 379.417307 268.219578 
L 379.649867 274.672277 
L 379.649867 274.672277 
L 379.882428 290.110612 
L 379.882428 290.110612 
L 380.114988 293.217436 
L 380.114988 293.217436 
L 380.347549 278.032312 
L 380.347549 278.032312 
L 380.580109 270.839139 
L 380.580109 270.839139 
L 380.81267 258.775831 
L 380.81267 258.775831 
L 381.045231 253.856554 
L 381.045231 253.856554 
L 381.277791 245.92957 
L 381.277791 245.92957 
L 381.510352 243.846416 
L 381.510352 243.846416 
L 381.742912 239.831699 
L 381.742912 239.831699 
L 381.975473 239.768396 
L 381.975473 239.768396 
L 382.208033 238.290781 
L 382.208033 238.290781 
L 382.440594 238.923806 
L 382.440594 238.923806 
L 382.673154 238.46986 
L 382.673154 238.46986 
L 382.905715 238.473192 
L 382.905715 238.473192 
L 383.138276 237.394549 
L 383.138276 237.394549 
L 383.370836 237.693571 
L 383.370836 237.693571 
L 383.603397 236.405863 
L 383.603397 236.405863 
L 383.835957 237.568631 
L 383.835957 237.568631 
L 384.068518 237.451188 
L 384.068518 237.451188 
L 384.7662 243.176741 
L 384.7662 243.176741 
L 385.696442 261.22714 
L 385.696442 261.22714 
L 386.626684 285.356254 
L 386.626684 285.356254 
L 387.091805 295.488 
L 387.091805 295.488 
L 387.556926 282.083677 
L 387.556926 282.083677 
L 388.022047 272.825674 
L 388.022047 272.825674 
L 388.719729 264.934506 
L 388.719729 264.934506 
L 388.95229 263.548513 
L 388.95229 263.548513 
L 389.18485 263.970808 
L 389.18485 263.970808 
L 389.417411 264.623824 
L 389.417411 264.623824 
L 389.649971 266.072287 
L 389.649971 266.072287 
L 389.882532 268.310367 
L 389.882532 268.310367 
L 390.812774 285.671934 
L 390.812774 285.671934 
L 391.277895 294.012883 
L 391.277895 294.012883 
L 392.673259 263.359438 
L 392.673259 263.359438 
L 393.37094 252.575509 
L 393.37094 252.575509 
L 394.068622 245.176603 
L 394.068622 245.176603 
L 394.301183 243.529903 
L 394.301183 243.529903 
L 394.766304 242.446262 
L 394.766304 242.446262 
L 394.998864 242.531221 
L 394.998864 242.531221 
L 395.231425 243.254203 
L 395.231425 243.254203 
L 395.463985 244.649359 
L 395.463985 244.649359 
L 395.929107 251.241157 
L 395.929107 251.241157 
L 396.394228 260.816507 
L 396.394228 260.816507 
L 396.859349 274.768897 
L 396.859349 274.768897 
L 397.091909 282.82665 
L 397.091909 282.82665 
L 397.32447 295.488 
L 397.32447 295.488 
L 397.789591 281.573092 
L 397.789591 281.573092 
L 398.254712 248.015224 
L 398.254712 248.015224 
L 398.487273 209.317353 
L 398.487273 209.317353 
" clip-path="url(#pb7bb9e2c72)" style="fill: none; stroke: #1f77b4; stroke-width: 1.5; stroke-linecap: square"/>
   </g>
   <g id="patch_3">
    <path d="M 57.6 307.584 
L 57.6 41.472 
" style="fill: none; stroke: #000000; stroke-width: 0.8; stroke-linejoin: miter; stroke-linecap: square"/>
   </g>
   <g id="patch_4">
    <path d="M 414.72 307.584 
L 414.72 41.472 
" style="fill: none; stroke: #000000; stroke-width: 0.8; stroke-linejoin: miter; stroke-linecap: square"/>
   </g>
   <g id="patch_5">
    <path d="M 57.6 307.584 
L 414.72 307.584 
" style="fill: none; stroke: #000000; stroke-width: 0.8; stroke-linejoin: miter; stroke-linecap: square"/>
   </g>
   <g id="patch_6">
    <path d="M 57.6 41.472 
L 414.72 41.472 
" style="fill: none; stroke: #000000; stroke-width: 0.8; stroke-linejoin: miter; stroke-linecap: square"/>
   </g>
   <g id="text_16">
    <!-- Tracking error vs Time -->
    <g transform="translate(169.584375 35.472) scale(0.12 -0.12)">
     <defs>
      <path id="DejaVuSans-76" d="M 191 3500 
L 800 3500 
L 1894 563 
L 2988 3500 
L 3597 3500 
L 2284 0 
L 1503 0 
L 191 3500 
z
" transform="scale(0.015625)"/>
     </defs>
     <use xlink:href="#DejaVuSans-54"/>
     <use xlink:href="#DejaVuSans-72" x="46.333984"/>
     <use xlink:href="#DejaVuSans-61" x="87.447266"/>
     <use xlink:href="#DejaVuSans-63" x="148.726562"/>
     <use xlink:href="#DejaVuSans-6b" x="203.707031"/>
     <use xlink:href="#DejaVuSans-69" x="261.617188"/>
     <use xlink:href="#DejaVuSans-6e" x="289.400391"/>
     <use xlink:href="#DejaVuSans-67" x="352.779297"/>
     <use xlink:href="#DejaVuSans-20" x="416.255859"/>
     <use xlink:href="#DejaVuSans-65" x="448.042969"/>
     <use xlink:href="#DejaVuSans-72" x="509.566406"/>
     <use xlink:href="#DejaVuSans-72" x="548.929688"/>
     <use xlink:href="#DejaVuSans-6f" x="587.792969"/>
     <use xlink:href="#DejaVuSans-72" x="648.974609"/>
     <use xlink:href="#DejaVuSans-20" x="690.087891"/>
     <use xlink:href="#DejaVuSans-76" x="721.875"/>
     <use xlink:href="#DejaVuSans-73" x="781.054688"/>
     <use xlink:href="#DejaVuSans-20" x="833.154297"/>
     <use xlink:href="#DejaVuSans-54" x="864.941406"/>
     <use xlink:href="#DejaVuSans-69" x="922.900391"/>
     <use xlink:href="#DejaVuSans-6d" x="950.683594"/>
     <use xlink:href="#DejaVuSans-65" x="1048.095703"/>
    </g>
   </g>
   <g id="legend_1">
    <g id="patch_7">
     <path d="M 311.00125 64.150125 
L 407.72 64.150125 
Q 409.72 64.150125 409.72 62.150125 
L 409.72 48.472 
Q 409.72 46.472 407.72 46.472 
L 311.00125 46.472 
Q 309.00125 46.472 309.00125 48.472 
L 309.00125 62.150125 
Q 309.00125 64.150125 311.00125 64.150125 
z
" style="fill: #ffffff; opacity: 0.8; stroke: #cccccc; stroke-linejoin: miter"/>
    </g>
    <g id="line2d_28">
     <path d="M 313.00125 54.570438 
L 323.00125 54.570438 
L 333.00125 54.570438 
" style="fill: none; stroke: #1f77b4; stroke-width: 1.5; stroke-linecap: square"/>
    </g>
    <g id="text_17">
     <!-- Actual speed -->
     <g transform="translate(341.00125 58.070438) scale(0.1 -0.1)">
      <defs>
       <path id="DejaVuSans-41" d="M 2188 4044 
L 1331 1722 
L 3047 1722 
L 2188 4044 
z
M 1831 4666 
L 2547 4666 
L 4325 0 
L 3669 0 
L 3244 1197 
L 1141 1197 
L 716 0 
L 50 0 
L 1831 4666 
z
" transform="scale(0.015625)"/>
       <path id="DejaVuSans-74" d="M 1172 4494 
L 1172 3500 
L 2356 3500 
L 2356 3053 
L 1172 3053 
L 1172 1153 
Q 1172 725 1289 603 
Q 1406 481 1766 481 
L 2356 481 
L 2356 0 
L 1766 0 
Q 1100 0 847 248 
Q 594 497 594 1153 
L 594 3053 
L 172 3053 
L 172 3500 
L 594 3500 
L 594 4494 
L 1172 4494 
z
" transform="scale(0.015625)"/>
       <path id="DejaVuSans-75" d="M 544 1381 
L 544 3500 
L 1119 3500 
L 1119 1403 
Q 1119 906 1312 657 
Q 1506 409 1894 409 
Q 2359 409 2629 706 
Q 2900 1003 2900 1516 
L 2900 3500 
L 3475 3500 
L 3475 0 
L 2900 0 
L 2900 538 
Q 2691 219 2414 64 
Q 2138 -91 1772 -91 
Q 1169 -91 856 284 
Q 544 659 544 1381 
z
M 1991 3584 
L 1991 3584 
z
" transform="scale(0.015625)"/>
       <path id="DejaVuSans-6c" d="M 603 4863 
L 1178 4863 
L 1178 0 
L 603 0 
L 603 4863 
z
" transform="scale(0.015625)"/>
       <path id="DejaVuSans-70" d="M 1159 525 
L 1159 -1331 
L 581 -1331 
L 581 3500 
L 1159 3500 
L 1159 2969 
Q 1341 3281 1617 3432 
Q 1894 3584 2278 3584 
Q 2916 3584 3314 3078 
Q 3713 2572 3713 1747 
Q 3713 922 3314 415 
Q 2916 -91 2278 -91 
Q 1894 -91 1617 61 
Q 1341 213 1159 525 
z
M 3116 1747 
Q 3116 2381 2855 2742 
Q 2594 3103 2138 3103 
Q 1681 3103 1420 2742 
Q 1159 2381 1159 1747 
Q 1159 1113 1420 752 
Q 1681 391 2138 391 
Q 2594 391 2855 752 
Q 3116 1113 3116 1747 
z
" transform="scale(0.015625)"/>
       <path id="DejaVuSans-64" d="M 2906 2969 
L 2906 4863 
L 3481 4863 
L 3481 0 
L 2906 0 
L 2906 525 
Q 2725 213 2448 61 
Q 2172 -91 1784 -91 
Q 1150 -91 751 415 
Q 353 922 353 1747 
Q 353 2572 751 3078 
Q 1150 3584 1784 3584 
Q 2172 3584 2448 3432 
Q 2725 3281 2906 2969 
z
M 947 1747 
Q 947 1113 1208 752 
Q 1469 391 1925 391 
Q 2381 391 2643 752 
Q 2906 1113 2906 1747 
Q 2906 2381 2643 2742 
Q 2381 3103 1925 3103 
Q 1469 3103 1208 2742 
Q 947 2381 947 1747 
z
" transform="scale(0.015625)"/>
      </defs>
      <use xlink:href="#DejaVuSans-41"/>
      <use xlink:href="#DejaVuSans-63" x="66.658203"/>
      <use xlink:href="#DejaVuSans-74" x="121.638672"/>
      <use xlink:href="#DejaVuSans-75" x="160.847656"/>
      <use xlink:href="#DejaVuSans-61" x="224.226562"/>
      <use xlink:href="#DejaVuSans-6c" x="285.505859"/>
      <use xlink:href="#DejaVuSans-20" x="313.289062"/>
      <use xlink:href="#DejaVuSans-73" x="345.076172"/>
      <use xlink:href="#DejaVuSans-70" x="397.175781"/>
      <use xlink:href="#DejaVuSans-65" x="460.652344"/>
      <use xlink:href="#DejaVuSans-65" x="522.175781"/>
      <use xlink:href="#DejaVuSans-64" x="583.699219"/>
     </g>
    </g>
   </g>
  </g>
 </g>
 <defs>
  <clipPath id="pb7bb9e2c72">
   <rect x="57.6" y="41.472" width="357.12" height="266.112"/>
  </clipPath>
 </defs>
</svg>
