<?xml version="1.0" encoding="utf-8" standalone="no"?>
<!DOCTYPE svg PUBLIC "-//W3C//DTD SVG 1.1//EN"
  "http://www.w3.org/Graphics/SVG/1.1/DTD/svg11.dtd">
<svg xmlns:xlink="http://www.w3.org/1999/xlink" width="460.8pt" height="345.6pt" viewBox="0 0 460.8 345.6" xmlns="http://www.w3.org/2000/svg" version="1.1">
 <metadata>
  <rdf:RDF xmlns:dc="http://purl.org/dc/elements/1.1/" xmlns:cc="http://creativecommons.org/ns#" xmlns:rdf="http://www.w3.org/1999/02/22-rdf-syntax-ns#">
   <cc:Work>
    <dc:type rdf:resource="http://purl.org/dc/dcmitype/StillImage"/>
    <dc:date>2024-01-30T20:59:22.418980</dc:date>
    <dc:format>image/svg+xml</dc:format>
    <dc:creator>
     <cc:Agent>
      <dc:title>Matplotlib v3.7.1, https://matplotlib.org/</dc:title>
     </cc:Agent>
    </dc:creator>
   </cc:Work>
  </rdf:RDF>
 </metadata>
 <defs>
  <style type="text/css">*{stroke-linejoin: round; stroke-linecap: butt}</style>
 </defs>
 <g id="figure_1">
  <g id="patch_1">
   <path d="M 0 345.6 
L 460.8 345.6 
L 460.8 0 
L 0 0 
z
" style="fill: #ffffff"/>
  </g>
  <g id="axes_1">
   <g id="patch_2">
    <path d="M 57.6 307.584 
L 414.72 307.584 
L 414.72 41.472 
L 57.6 41.472 
z
" style="fill: #ffffff"/>
   </g>
   <g id="matplotlib.axis_1">
    <g id="xtick_1">
     <g id="line2d_1">
      <path d="M 73.832727 307.584 
L 73.832727 41.472 
" clip-path="url(#p1647ba21c1)" style="fill: none; stroke: #b0b0b0; stroke-width: 0.8; stroke-linecap: square"/>
     </g>
     <g id="line2d_2">
      <defs>
       <path id="m80f4368b28" d="M 0 0 
L 0 3.5 
" style="stroke: #000000; stroke-width: 0.8"/>
      </defs>
      <g>
       <use xlink:href="#m80f4368b28" x="73.832727" y="307.584" style="stroke: #000000; stroke-width: 0.8"/>
      </g>
     </g>
     <g id="text_1">
      <!-- 0 -->
      <g transform="translate(70.651477 322.182437) scale(0.1 -0.1)">
       <defs>
        <path id="DejaVuSans-30" d="M 2034 4250 
Q 1547 4250 1301 3770 
Q 1056 3291 1056 2328 
Q 1056 1369 1301 889 
Q 1547 409 2034 409 
Q 2525 409 2770 889 
Q 3016 1369 3016 2328 
Q 3016 3291 2770 3770 
Q 2525 4250 2034 4250 
z
M 2034 4750 
Q 2819 4750 3233 4129 
Q 3647 3509 3647 2328 
Q 3647 1150 3233 529 
Q 2819 -91 2034 -91 
Q 1250 -91 836 529 
Q 422 1150 422 2328 
Q 422 3509 836 4129 
Q 1250 4750 2034 4750 
z
" transform="scale(0.015625)"/>
       </defs>
       <use xlink:href="#DejaVuSans-30"/>
      </g>
     </g>
    </g>
    <g id="xtick_2">
     <g id="line2d_3">
      <path d="M 131.93125 307.584 
L 131.93125 41.472 
" clip-path="url(#p1647ba21c1)" style="fill: none; stroke: #b0b0b0; stroke-width: 0.8; stroke-linecap: square"/>
     </g>
     <g id="line2d_4">
      <g>
       <use xlink:href="#m80f4368b28" x="131.93125" y="307.584" style="stroke: #000000; stroke-width: 0.8"/>
      </g>
     </g>
     <g id="text_2">
      <!-- 5 -->
      <g transform="translate(128.75 322.182437) scale(0.1 -0.1)">
       <defs>
        <path id="DejaVuSans-35" d="M 691 4666 
L 3169 4666 
L 3169 4134 
L 1269 4134 
L 1269 2991 
Q 1406 3038 1543 3061 
Q 1681 3084 1819 3084 
Q 2600 3084 3056 2656 
Q 3513 2228 3513 1497 
Q 3513 744 3044 326 
Q 2575 -91 1722 -91 
Q 1428 -91 1123 -41 
Q 819 9 494 109 
L 494 744 
Q 775 591 1075 516 
Q 1375 441 1709 441 
Q 2250 441 2565 725 
Q 2881 1009 2881 1497 
Q 2881 1984 2565 2268 
Q 2250 2553 1709 2553 
Q 1456 2553 1204 2497 
Q 953 2441 691 2322 
L 691 4666 
z
" transform="scale(0.015625)"/>
       </defs>
       <use xlink:href="#DejaVuSans-35"/>
      </g>
     </g>
    </g>
    <g id="xtick_3">
     <g id="line2d_5">
      <path d="M 190.029773 307.584 
L 190.029773 41.472 
" clip-path="url(#p1647ba21c1)" style="fill: none; stroke: #b0b0b0; stroke-width: 0.8; stroke-linecap: square"/>
     </g>
     <g id="line2d_6">
      <g>
       <use xlink:href="#m80f4368b28" x="190.029773" y="307.584" style="stroke: #000000; stroke-width: 0.8"/>
      </g>
     </g>
     <g id="text_3">
      <!-- 10 -->
      <g transform="translate(183.667273 322.182437) scale(0.1 -0.1)">
       <defs>
        <path id="DejaVuSans-31" d="M 794 531 
L 1825 531 
L 1825 4091 
L 703 3866 
L 703 4441 
L 1819 4666 
L 2450 4666 
L 2450 531 
L 3481 531 
L 3481 0 
L 794 0 
L 794 531 
z
" transform="scale(0.015625)"/>
       </defs>
       <use xlink:href="#DejaVuSans-31"/>
       <use xlink:href="#DejaVuSans-30" x="63.623047"/>
      </g>
     </g>
    </g>
    <g id="xtick_4">
     <g id="line2d_7">
      <path d="M 248.128296 307.584 
L 248.128296 41.472 
" clip-path="url(#p1647ba21c1)" style="fill: none; stroke: #b0b0b0; stroke-width: 0.8; stroke-linecap: square"/>
     </g>
     <g id="line2d_8">
      <g>
       <use xlink:href="#m80f4368b28" x="248.128296" y="307.584" style="stroke: #000000; stroke-width: 0.8"/>
      </g>
     </g>
     <g id="text_4">
      <!-- 15 -->
      <g transform="translate(241.765796 322.182437) scale(0.1 -0.1)">
       <use xlink:href="#DejaVuSans-31"/>
       <use xlink:href="#DejaVuSans-35" x="63.623047"/>
      </g>
     </g>
    </g>
    <g id="xtick_5">
     <g id="line2d_9">
      <path d="M 306.226819 307.584 
L 306.226819 41.472 
" clip-path="url(#p1647ba21c1)" style="fill: none; stroke: #b0b0b0; stroke-width: 0.8; stroke-linecap: square"/>
     </g>
     <g id="line2d_10">
      <g>
       <use xlink:href="#m80f4368b28" x="306.226819" y="307.584" style="stroke: #000000; stroke-width: 0.8"/>
      </g>
     </g>
     <g id="text_5">
      <!-- 20 -->
      <g transform="translate(299.864319 322.182437) scale(0.1 -0.1)">
       <defs>
        <path id="DejaVuSans-32" d="M 1228 531 
L 3431 531 
L 3431 0 
L 469 0 
L 469 531 
Q 828 903 1448 1529 
Q 2069 2156 2228 2338 
Q 2531 2678 2651 2914 
Q 2772 3150 2772 3378 
Q 2772 3750 2511 3984 
Q 2250 4219 1831 4219 
Q 1534 4219 1204 4116 
Q 875 4013 500 3803 
L 500 4441 
Q 881 4594 1212 4672 
Q 1544 4750 1819 4750 
Q 2544 4750 2975 4387 
Q 3406 4025 3406 3419 
Q 3406 3131 3298 2873 
Q 3191 2616 2906 2266 
Q 2828 2175 2409 1742 
Q 1991 1309 1228 531 
z
" transform="scale(0.015625)"/>
       </defs>
       <use xlink:href="#DejaVuSans-32"/>
       <use xlink:href="#DejaVuSans-30" x="63.623047"/>
      </g>
     </g>
    </g>
    <g id="xtick_6">
     <g id="line2d_11">
      <path d="M 364.325341 307.584 
L 364.325341 41.472 
" clip-path="url(#p1647ba21c1)" style="fill: none; stroke: #b0b0b0; stroke-width: 0.8; stroke-linecap: square"/>
     </g>
     <g id="line2d_12">
      <g>
       <use xlink:href="#m80f4368b28" x="364.325341" y="307.584" style="stroke: #000000; stroke-width: 0.8"/>
      </g>
     </g>
     <g id="text_6">
      <!-- 25 -->
      <g transform="translate(357.962841 322.182437) scale(0.1 -0.1)">
       <use xlink:href="#DejaVuSans-32"/>
       <use xlink:href="#DejaVuSans-35" x="63.623047"/>
      </g>
     </g>
    </g>
    <g id="text_7">
     <!-- Time(s) -->
     <g transform="translate(217.420156 335.860562) scale(0.1 -0.1)">
      <defs>
       <path id="DejaVuSans-54" d="M -19 4666 
L 3928 4666 
L 3928 4134 
L 2272 4134 
L 2272 0 
L 1638 0 
L 1638 4134 
L -19 4134 
L -19 4666 
z
" transform="scale(0.015625)"/>
       <path id="DejaVuSans-69" d="M 603 3500 
L 1178 3500 
L 1178 0 
L 603 0 
L 603 3500 
z
M 603 4863 
L 1178 4863 
L 1178 4134 
L 603 4134 
L 603 4863 
z
" transform="scale(0.015625)"/>
       <path id="DejaVuSans-6d" d="M 3328 2828 
Q 3544 3216 3844 3400 
Q 4144 3584 4550 3584 
Q 5097 3584 5394 3201 
Q 5691 2819 5691 2113 
L 5691 0 
L 5113 0 
L 5113 2094 
Q 5113 2597 4934 2840 
Q 4756 3084 4391 3084 
Q 3944 3084 3684 2787 
Q 3425 2491 3425 1978 
L 3425 0 
L 2847 0 
L 2847 2094 
Q 2847 2600 2669 2842 
Q 2491 3084 2119 3084 
Q 1678 3084 1418 2786 
Q 1159 2488 1159 1978 
L 1159 0 
L 581 0 
L 581 3500 
L 1159 3500 
L 1159 2956 
Q 1356 3278 1631 3431 
Q 1906 3584 2284 3584 
Q 2666 3584 2933 3390 
Q 3200 3197 3328 2828 
z
" transform="scale(0.015625)"/>
       <path id="DejaVuSans-65" d="M 3597 1894 
L 3597 1613 
L 953 1613 
Q 991 1019 1311 708 
Q 1631 397 2203 397 
Q 2534 397 2845 478 
Q 3156 559 3463 722 
L 3463 178 
Q 3153 47 2828 -22 
Q 2503 -91 2169 -91 
Q 1331 -91 842 396 
Q 353 884 353 1716 
Q 353 2575 817 3079 
Q 1281 3584 2069 3584 
Q 2775 3584 3186 3129 
Q 3597 2675 3597 1894 
z
M 3022 2063 
Q 3016 2534 2758 2815 
Q 2500 3097 2075 3097 
Q 1594 3097 1305 2825 
Q 1016 2553 972 2059 
L 3022 2063 
z
" transform="scale(0.015625)"/>
       <path id="DejaVuSans-28" d="M 1984 4856 
Q 1566 4138 1362 3434 
Q 1159 2731 1159 2009 
Q 1159 1288 1364 580 
Q 1569 -128 1984 -844 
L 1484 -844 
Q 1016 -109 783 600 
Q 550 1309 550 2009 
Q 550 2706 781 3412 
Q 1013 4119 1484 4856 
L 1984 4856 
z
" transform="scale(0.015625)"/>
       <path id="DejaVuSans-73" d="M 2834 3397 
L 2834 2853 
Q 2591 2978 2328 3040 
Q 2066 3103 1784 3103 
Q 1356 3103 1142 2972 
Q 928 2841 928 2578 
Q 928 2378 1081 2264 
Q 1234 2150 1697 2047 
L 1894 2003 
Q 2506 1872 2764 1633 
Q 3022 1394 3022 966 
Q 3022 478 2636 193 
Q 2250 -91 1575 -91 
Q 1294 -91 989 -36 
Q 684 19 347 128 
L 347 722 
Q 666 556 975 473 
Q 1284 391 1588 391 
Q 1994 391 2212 530 
Q 2431 669 2431 922 
Q 2431 1156 2273 1281 
Q 2116 1406 1581 1522 
L 1381 1569 
Q 847 1681 609 1914 
Q 372 2147 372 2553 
Q 372 3047 722 3315 
Q 1072 3584 1716 3584 
Q 2034 3584 2315 3537 
Q 2597 3491 2834 3397 
z
" transform="scale(0.015625)"/>
       <path id="DejaVuSans-29" d="M 513 4856 
L 1013 4856 
Q 1481 4119 1714 3412 
Q 1947 2706 1947 2009 
Q 1947 1309 1714 600 
Q 1481 -109 1013 -844 
L 513 -844 
Q 928 -128 1133 580 
Q 1338 1288 1338 2009 
Q 1338 2731 1133 3434 
Q 928 4138 513 4856 
z
" transform="scale(0.015625)"/>
      </defs>
      <use xlink:href="#DejaVuSans-54"/>
      <use xlink:href="#DejaVuSans-69" x="57.958984"/>
      <use xlink:href="#DejaVuSans-6d" x="85.742188"/>
      <use xlink:href="#DejaVuSans-65" x="183.154297"/>
      <use xlink:href="#DejaVuSans-28" x="244.677734"/>
      <use xlink:href="#DejaVuSans-73" x="283.691406"/>
      <use xlink:href="#DejaVuSans-29" x="335.791016"/>
     </g>
    </g>
   </g>
   <g id="matplotlib.axis_2">
    <g id="ytick_1">
     <g id="line2d_13">
      <path d="M 57.6 295.488 
L 414.72 295.488 
" clip-path="url(#p1647ba21c1)" style="fill: none; stroke: #b0b0b0; stroke-width: 0.8; stroke-linecap: square"/>
     </g>
     <g id="line2d_14">
      <defs>
       <path id="m4a69593041" d="M 0 0 
L -3.5 0 
" style="stroke: #000000; stroke-width: 0.8"/>
      </defs>
      <g>
       <use xlink:href="#m4a69593041" x="57.6" y="295.488" style="stroke: #000000; stroke-width: 0.8"/>
      </g>
     </g>
     <g id="text_8">
      <!-- 0.00 -->
      <g transform="translate(28.334375 299.287219) scale(0.1 -0.1)">
       <defs>
        <path id="DejaVuSans-2e" d="M 684 794 
L 1344 794 
L 1344 0 
L 684 0 
L 684 794 
z
" transform="scale(0.015625)"/>
       </defs>
       <use xlink:href="#DejaVuSans-30"/>
       <use xlink:href="#DejaVuSans-2e" x="63.623047"/>
       <use xlink:href="#DejaVuSans-30" x="95.410156"/>
       <use xlink:href="#DejaVuSans-30" x="159.033203"/>
      </g>
     </g>
    </g>
    <g id="ytick_2">
     <g id="line2d_15">
      <path d="M 57.6 252.151179 
L 414.72 252.151179 
" clip-path="url(#p1647ba21c1)" style="fill: none; stroke: #b0b0b0; stroke-width: 0.8; stroke-linecap: square"/>
     </g>
     <g id="line2d_16">
      <g>
       <use xlink:href="#m4a69593041" x="57.6" y="252.151179" style="stroke: #000000; stroke-width: 0.8"/>
      </g>
     </g>
     <g id="text_9">
      <!-- 0.05 -->
      <g transform="translate(28.334375 255.950398) scale(0.1 -0.1)">
       <use xlink:href="#DejaVuSans-30"/>
       <use xlink:href="#DejaVuSans-2e" x="63.623047"/>
       <use xlink:href="#DejaVuSans-30" x="95.410156"/>
       <use xlink:href="#DejaVuSans-35" x="159.033203"/>
      </g>
     </g>
    </g>
    <g id="ytick_3">
     <g id="line2d_17">
      <path d="M 57.6 208.814359 
L 414.72 208.814359 
" clip-path="url(#p1647ba21c1)" style="fill: none; stroke: #b0b0b0; stroke-width: 0.8; stroke-linecap: square"/>
     </g>
     <g id="line2d_18">
      <g>
       <use xlink:href="#m4a69593041" x="57.6" y="208.814359" style="stroke: #000000; stroke-width: 0.8"/>
      </g>
     </g>
     <g id="text_10">
      <!-- 0.10 -->
      <g transform="translate(28.334375 212.613578) scale(0.1 -0.1)">
       <use xlink:href="#DejaVuSans-30"/>
       <use xlink:href="#DejaVuSans-2e" x="63.623047"/>
       <use xlink:href="#DejaVuSans-31" x="95.410156"/>
       <use xlink:href="#DejaVuSans-30" x="159.033203"/>
      </g>
     </g>
    </g>
    <g id="ytick_4">
     <g id="line2d_19">
      <path d="M 57.6 165.477538 
L 414.72 165.477538 
" clip-path="url(#p1647ba21c1)" style="fill: none; stroke: #b0b0b0; stroke-width: 0.8; stroke-linecap: square"/>
     </g>
     <g id="line2d_20">
      <g>
       <use xlink:href="#m4a69593041" x="57.6" y="165.477538" style="stroke: #000000; stroke-width: 0.8"/>
      </g>
     </g>
     <g id="text_11">
      <!-- 0.15 -->
      <g transform="translate(28.334375 169.276757) scale(0.1 -0.1)">
       <use xlink:href="#DejaVuSans-30"/>
       <use xlink:href="#DejaVuSans-2e" x="63.623047"/>
       <use xlink:href="#DejaVuSans-31" x="95.410156"/>
       <use xlink:href="#DejaVuSans-35" x="159.033203"/>
      </g>
     </g>
    </g>
    <g id="ytick_5">
     <g id="line2d_21">
      <path d="M 57.6 122.140718 
L 414.72 122.140718 
" clip-path="url(#p1647ba21c1)" style="fill: none; stroke: #b0b0b0; stroke-width: 0.8; stroke-linecap: square"/>
     </g>
     <g id="line2d_22">
      <g>
       <use xlink:href="#m4a69593041" x="57.6" y="122.140718" style="stroke: #000000; stroke-width: 0.8"/>
      </g>
     </g>
     <g id="text_12">
      <!-- 0.20 -->
      <g transform="translate(28.334375 125.939937) scale(0.1 -0.1)">
       <use xlink:href="#DejaVuSans-30"/>
       <use xlink:href="#DejaVuSans-2e" x="63.623047"/>
       <use xlink:href="#DejaVuSans-32" x="95.410156"/>
       <use xlink:href="#DejaVuSans-30" x="159.033203"/>
      </g>
     </g>
    </g>
    <g id="ytick_6">
     <g id="line2d_23">
      <path d="M 57.6 78.803897 
L 414.72 78.803897 
" clip-path="url(#p1647ba21c1)" style="fill: none; stroke: #b0b0b0; stroke-width: 0.8; stroke-linecap: square"/>
     </g>
     <g id="line2d_24">
      <g>
       <use xlink:href="#m4a69593041" x="57.6" y="78.803897" style="stroke: #000000; stroke-width: 0.8"/>
      </g>
     </g>
     <g id="text_13">
      <!-- 0.25 -->
      <g transform="translate(28.334375 82.603116) scale(0.1 -0.1)">
       <use xlink:href="#DejaVuSans-30"/>
       <use xlink:href="#DejaVuSans-2e" x="63.623047"/>
       <use xlink:href="#DejaVuSans-32" x="95.410156"/>
       <use xlink:href="#DejaVuSans-35" x="159.033203"/>
      </g>
     </g>
    </g>
    <g id="text_14">
     <!-- Tracking error(m) -->
     <g transform="translate(22.254687 217.803781) rotate(-90) scale(0.1 -0.1)">
      <defs>
       <path id="DejaVuSans-72" d="M 2631 2963 
Q 2534 3019 2420 3045 
Q 2306 3072 2169 3072 
Q 1681 3072 1420 2755 
Q 1159 2438 1159 1844 
L 1159 0 
L 581 0 
L 581 3500 
L 1159 3500 
L 1159 2956 
Q 1341 3275 1631 3429 
Q 1922 3584 2338 3584 
Q 2397 3584 2469 3576 
Q 2541 3569 2628 3553 
L 2631 2963 
z
" transform="scale(0.015625)"/>
       <path id="DejaVuSans-61" d="M 2194 1759 
Q 1497 1759 1228 1600 
Q 959 1441 959 1056 
Q 959 750 1161 570 
Q 1363 391 1709 391 
Q 2188 391 2477 730 
Q 2766 1069 2766 1631 
L 2766 1759 
L 2194 1759 
z
M 3341 1997 
L 3341 0 
L 2766 0 
L 2766 531 
Q 2569 213 2275 61 
Q 1981 -91 1556 -91 
Q 1019 -91 701 211 
Q 384 513 384 1019 
Q 384 1609 779 1909 
Q 1175 2209 1959 2209 
L 2766 2209 
L 2766 2266 
Q 2766 2663 2505 2880 
Q 2244 3097 1772 3097 
Q 1472 3097 1187 3025 
Q 903 2953 641 2809 
L 641 3341 
Q 956 3463 1253 3523 
Q 1550 3584 1831 3584 
Q 2591 3584 2966 3190 
Q 3341 2797 3341 1997 
z
" transform="scale(0.015625)"/>
       <path id="DejaVuSans-63" d="M 3122 3366 
L 3122 2828 
Q 2878 2963 2633 3030 
Q 2388 3097 2138 3097 
Q 1578 3097 1268 2742 
Q 959 2388 959 1747 
Q 959 1106 1268 751 
Q 1578 397 2138 397 
Q 2388 397 2633 464 
Q 2878 531 3122 666 
L 3122 134 
Q 2881 22 2623 -34 
Q 2366 -91 2075 -91 
Q 1284 -91 818 406 
Q 353 903 353 1747 
Q 353 2603 823 3093 
Q 1294 3584 2113 3584 
Q 2378 3584 2631 3529 
Q 2884 3475 3122 3366 
z
" transform="scale(0.015625)"/>
       <path id="DejaVuSans-6b" d="M 581 4863 
L 1159 4863 
L 1159 1991 
L 2875 3500 
L 3609 3500 
L 1753 1863 
L 3688 0 
L 2938 0 
L 1159 1709 
L 1159 0 
L 581 0 
L 581 4863 
z
" transform="scale(0.015625)"/>
       <path id="DejaVuSans-6e" d="M 3513 2113 
L 3513 0 
L 2938 0 
L 2938 2094 
Q 2938 2591 2744 2837 
Q 2550 3084 2163 3084 
Q 1697 3084 1428 2787 
Q 1159 2491 1159 1978 
L 1159 0 
L 581 0 
L 581 3500 
L 1159 3500 
L 1159 2956 
Q 1366 3272 1645 3428 
Q 1925 3584 2291 3584 
Q 2894 3584 3203 3211 
Q 3513 2838 3513 2113 
z
" transform="scale(0.015625)"/>
       <path id="DejaVuSans-67" d="M 2906 1791 
Q 2906 2416 2648 2759 
Q 2391 3103 1925 3103 
Q 1463 3103 1205 2759 
Q 947 2416 947 1791 
Q 947 1169 1205 825 
Q 1463 481 1925 481 
Q 2391 481 2648 825 
Q 2906 1169 2906 1791 
z
M 3481 434 
Q 3481 -459 3084 -895 
Q 2688 -1331 1869 -1331 
Q 1566 -1331 1297 -1286 
Q 1028 -1241 775 -1147 
L 775 -588 
Q 1028 -725 1275 -790 
Q 1522 -856 1778 -856 
Q 2344 -856 2625 -561 
Q 2906 -266 2906 331 
L 2906 616 
Q 2728 306 2450 153 
Q 2172 0 1784 0 
Q 1141 0 747 490 
Q 353 981 353 1791 
Q 353 2603 747 3093 
Q 1141 3584 1784 3584 
Q 2172 3584 2450 3431 
Q 2728 3278 2906 2969 
L 2906 3500 
L 3481 3500 
L 3481 434 
z
" transform="scale(0.015625)"/>
       <path id="DejaVuSans-20" transform="scale(0.015625)"/>
       <path id="DejaVuSans-6f" d="M 1959 3097 
Q 1497 3097 1228 2736 
Q 959 2375 959 1747 
Q 959 1119 1226 758 
Q 1494 397 1959 397 
Q 2419 397 2687 759 
Q 2956 1122 2956 1747 
Q 2956 2369 2687 2733 
Q 2419 3097 1959 3097 
z
M 1959 3584 
Q 2709 3584 3137 3096 
Q 3566 2609 3566 1747 
Q 3566 888 3137 398 
Q 2709 -91 1959 -91 
Q 1206 -91 779 398 
Q 353 888 353 1747 
Q 353 2609 779 3096 
Q 1206 3584 1959 3584 
z
" transform="scale(0.015625)"/>
      </defs>
      <use xlink:href="#DejaVuSans-54"/>
      <use xlink:href="#DejaVuSans-72" x="46.333984"/>
      <use xlink:href="#DejaVuSans-61" x="87.447266"/>
      <use xlink:href="#DejaVuSans-63" x="148.726562"/>
      <use xlink:href="#DejaVuSans-6b" x="203.707031"/>
      <use xlink:href="#DejaVuSans-69" x="261.617188"/>
      <use xlink:href="#DejaVuSans-6e" x="289.400391"/>
      <use xlink:href="#DejaVuSans-67" x="352.779297"/>
      <use xlink:href="#DejaVuSans-20" x="416.255859"/>
      <use xlink:href="#DejaVuSans-65" x="448.042969"/>
      <use xlink:href="#DejaVuSans-72" x="509.566406"/>
      <use xlink:href="#DejaVuSans-72" x="548.929688"/>
      <use xlink:href="#DejaVuSans-6f" x="587.792969"/>
      <use xlink:href="#DejaVuSans-72" x="648.974609"/>
      <use xlink:href="#DejaVuSans-28" x="690.087891"/>
      <use xlink:href="#DejaVuSans-6d" x="729.101562"/>
      <use xlink:href="#DejaVuSans-29" x="826.513672"/>
     </g>
    </g>
   </g>
   <g id="line2d_25">
    <path d="M 73.832727 231.633795 
L 74.065121 277.30647 
L 74.065121 277.30647 
L 74.297515 271.000963 
L 74.297515 271.000963 
L 74.762304 205.493892 
L 74.762304 205.493892 
L 75.227092 159.417317 
L 75.227092 159.417317 
L 75.69188 129.994216 
L 75.69188 129.994216 
L 76.156668 116.788621 
L 76.156668 116.788621 
L 76.389062 116.024159 
L 76.389062 116.024159 
L 76.621456 118.056656 
L 76.621456 118.056656 
L 77.086245 129.029539 
L 77.086245 129.029539 
L 77.783427 155.354924 
L 77.783427 155.354924 
L 79.177791 209.928982 
L 79.177791 209.928982 
L 79.874974 230.62318 
L 79.874974 230.62318 
L 80.80455 252.256055 
L 80.80455 252.256055 
L 81.96652 269.908875 
L 81.96652 269.908875 
L 83.128491 277.684367 
L 83.128491 277.684367 
L 83.360885 277.068118 
L 83.360885 277.068118 
L 83.593279 276.991845 
L 84.058067 276.446668 
L 84.058067 276.446668 
L 84.290461 276.090439 
L 84.290461 276.090439 
L 84.522855 274.49131 
L 84.522855 274.49131 
L 84.987644 273.496297 
L 84.987644 273.496297 
L 85.452432 272.845378 
L 85.452432 272.845378 
L 85.684826 271.288719 
L 85.684826 271.288719 
L 86.382008 269.440837 
L 86.382008 269.440837 
L 86.614402 268.609637 
L 86.614402 268.609637 
L 87.07919 264.941609 
L 87.07919 264.941609 
L 87.776373 261.23371 
L 87.776373 261.23371 
L 88.008767 258.917791 
L 88.008767 258.917791 
L 88.241161 257.965247 
L 88.241161 257.965247 
L 88.473555 257.50241 
L 88.473555 257.50241 
L 88.705949 257.488542 
L 88.938343 256.533399 
L 88.938343 256.533399 
L 89.170737 256.738815 
L 89.170737 256.738815 
L 89.403131 257.370666 
L 89.403131 257.370666 
L 89.86792 259.852999 
L 89.86792 259.852999 
L 90.100314 259.679652 
L 90.100314 259.679652 
L 90.565102 262.949848 
L 90.565102 262.949848 
L 90.797496 265.060352 
L 90.797496 265.060352 
L 91.02989 265.111489 
L 91.02989 265.111489 
L 91.494678 268.687643 
L 91.494678 268.687643 
L 91.727072 269.154814 
L 92.424255 273.964335 
L 92.424255 273.964335 
L 92.656649 273.705181 
L 92.656649 273.705181 
L 93.121437 276.06357 
L 93.121437 276.06357 
L 93.353831 275.499325 
L 93.353831 275.499325 
L 93.586225 276.165845 
L 93.586225 276.165845 
L 93.818619 277.212863 
L 93.818619 277.212863 
L 94.051013 276.810697 
L 94.051013 276.810697 
L 94.515801 278.946336 
L 94.515801 278.946336 
L 94.748195 278.724451 
L 94.748195 278.724451 
L 95.212984 281.556946 
L 95.212984 281.556946 
L 95.445378 281.565613 
L 95.445378 281.565613 
L 95.910166 285.172103 
L 95.910166 285.172103 
L 96.14256 285.278712 
L 96.14256 285.278712 
L 96.607348 289.31337 
L 96.607348 289.31337 
L 96.839742 288.889536 
L 96.839742 288.889536 
L 97.072136 295.488 
L 97.072136 295.488 
L 97.30453 292.541963 
L 97.30453 292.541963 
L 97.536925 291.032108 
L 97.536925 291.032108 
L 97.769319 292.063524 
L 97.769319 292.063524 
L 98.001713 293.71119 
L 98.001713 293.71119 
L 98.234107 290.693214 
L 98.234107 290.693214 
L 98.466501 290.996572 
L 98.466501 290.996572 
L 98.698895 291.974251 
L 98.698895 291.974251 
L 98.931289 287.108392 
L 98.931289 287.108392 
L 99.163683 286.525946 
L 99.163683 286.525946 
L 99.396077 282.274603 
L 99.396077 282.274603 
L 99.860865 278.494766 
L 99.860865 278.494766 
L 100.09326 273.282213 
L 100.09326 273.282213 
L 100.558048 269.085475 
L 100.558048 269.085475 
L 100.790442 263.859055 
L 100.790442 263.859055 
L 101.25523 260.555922 
L 101.25523 260.555922 
L 101.487624 255.912815 
L 101.487624 255.912815 
L 101.720018 254.68985 
L 101.720018 254.68985 
L 101.952412 251.810552 
L 101.952412 251.810552 
L 102.184806 250.547717 
L 102.184806 250.547717 
L 102.4172 250.025942 
L 102.4172 250.025942 
L 102.649595 247.573944 
L 102.649595 247.573944 
L 102.881989 246.856287 
L 103.114383 246.716742 
L 103.114383 246.716742 
L 103.346777 244.594105 
L 103.346777 244.594105 
L 103.579171 244.142535 
L 103.579171 244.142535 
L 103.811565 244.102665 
L 103.811565 244.102665 
L 104.043959 242.197579 
L 104.043959 242.197579 
L 104.276353 241.835283 
L 104.276353 241.835283 
L 104.508747 241.800613 
L 104.508747 241.800613 
L 104.741141 240.22922 
L 104.741141 240.22922 
L 104.973535 240.038538 
L 104.973535 240.038538 
L 105.20593 240.179816 
L 105.20593 240.179816 
L 105.438324 239.291411 
L 105.438324 239.291411 
L 105.670718 239.478626 
L 105.670718 239.478626 
L 105.903112 239.828788 
L 105.903112 239.828788 
L 106.135506 239.470826 
L 106.600294 240.250022 
L 106.600294 240.250022 
L 106.832688 240.789132 
L 106.832688 240.789132 
L 107.065082 241.028351 
L 107.065082 241.028351 
L 107.529871 242.753157 
L 107.529871 242.753157 
L 107.994659 245.699194 
L 107.994659 245.699194 
L 108.459447 249.884664 
L 108.459447 249.884664 
L 108.924235 256.233508 
L 108.924235 256.233508 
L 109.853811 272.398142 
L 109.853811 272.398142 
L 111.015782 292.316611 
L 111.015782 292.316611 
L 111.248176 295.416928 
L 111.248176 295.416928 
L 111.945358 287.840785 
L 111.945358 287.840785 
L 112.642541 283.454232 
L 112.642541 283.454232 
L 114.036905 277.055117 
L 114.036905 277.055117 
L 114.501693 275.593799 
L 114.501693 275.593799 
L 114.734087 275.122295 
L 114.734087 275.122295 
L 114.966481 274.923812 
L 114.966481 274.923812 
L 115.198876 275.072024 
L 115.198876 275.072024 
L 115.663664 276.610481 
L 115.663664 276.610481 
L 116.128452 279.031276 
L 116.128452 279.031276 
L 117.058028 285.810021 
L 117.058028 285.810021 
L 117.755211 290.119435 
L 117.755211 290.119435 
L 118.917181 295.189843 
L 118.917181 295.189843 
L 119.149575 294.730472 
L 119.149575 294.730472 
L 120.54394 287.839918 
L 120.54394 287.839918 
L 120.776334 287.82605 
L 121.008728 288.314023 
L 121.008728 288.314023 
L 121.473516 291.192454 
L 121.473516 291.192454 
L 121.70591 295.488 
L 121.70591 295.488 
L 121.938304 295.079767 
L 123.100275 282.51989 
L 123.100275 282.51989 
L 123.565063 279.592054 
L 123.565063 279.592054 
L 123.797457 278.983605 
L 123.797457 278.983605 
L 124.029851 278.744386 
L 124.029851 278.744386 
L 124.262245 278.847528 
L 124.262245 278.847528 
L 124.727033 279.683928 
L 124.727033 279.683928 
L 125.424216 281.315126 
L 125.424216 281.315126 
L 125.65661 281.498008 
L 125.65661 281.498008 
L 126.121398 281.193783 
L 126.121398 281.193783 
L 126.586186 280.345248 
L 126.586186 280.345248 
L 127.050974 278.938535 
L 127.050974 278.938535 
L 127.748156 276.653818 
L 127.748156 276.653818 
L 127.980551 276.212649 
L 127.980551 276.212649 
L 128.212945 276.047969 
L 128.445339 276.026301 
L 128.445339 276.026301 
L 128.677733 276.160645 
L 128.677733 276.160645 
L 129.142521 276.92684 
L 129.142521 276.92684 
L 131.93125 289.284768 
L 131.93125 289.284768 
L 132.628432 293.490173 
L 132.628432 293.490173 
L 132.860826 295.014762 
L 132.860826 295.014762 
L 133.093221 295.488 
L 133.093221 295.488 
L 133.558009 291.145651 
L 133.558009 291.145651 
L 134.255191 286.954113 
L 134.255191 286.954113 
L 134.952373 285.37492 
L 134.952373 285.37492 
L 135.184767 285.620206 
L 135.184767 285.620206 
L 135.417161 285.519665 
L 135.417161 285.519665 
L 135.649556 285.225841 
L 135.649556 285.225841 
L 135.88195 285.705146 
L 136.114344 285.325516 
L 136.346738 284.300166 
L 136.346738 284.300166 
L 136.579132 284.663329 
L 136.579132 284.663329 
L 136.811526 283.215012 
L 136.811526 283.215012 
L 137.04392 282.730507 
L 137.04392 282.730507 
L 137.276314 280.737013 
L 137.508708 277.623696 
L 137.508708 277.623696 
L 137.741102 276.811564 
L 137.741102 276.811564 
L 137.973496 273.434759 
L 137.973496 273.434759 
L 138.205891 271.950039 
L 138.205891 271.950039 
L 139.135467 258.619633 
L 139.135467 258.619633 
L 139.367861 257.381934 
L 139.367861 257.381934 
L 139.600255 253.065586 
L 139.600255 253.065586 
L 139.832649 251.540997 
L 139.832649 251.540997 
L 140.065043 247.588679 
L 140.065043 247.588679 
L 140.297437 245.870807 
L 140.297437 245.870807 
L 140.762226 237.333454 
L 140.762226 237.333454 
L 140.99462 237.463464 
L 140.99462 237.463464 
L 141.227014 233.259793 
L 141.227014 233.259793 
L 141.459408 233.548416 
L 141.459408 233.548416 
L 141.691802 229.921991 
L 141.691802 229.921991 
L 141.924196 230.518305 
L 141.924196 230.518305 
L 142.15659 228.077576 
L 142.15659 228.077576 
L 142.388984 229.38028 
L 142.388984 229.38028 
L 142.621378 228.328062 
L 142.621378 228.328062 
L 142.853772 230.338024 
L 142.853772 230.338024 
L 143.086166 230.481036 
L 143.086166 230.481036 
L 143.318561 229.535426 
L 143.318561 229.535426 
L 143.550955 235.469104 
L 143.550955 235.469104 
L 143.783349 236.922621 
L 143.783349 236.922621 
L 144.015743 245.000604 
L 144.015743 245.000604 
L 144.248137 249.208609 
L 144.248137 249.208609 
L 144.945319 277.111455 
L 144.945319 277.111455 
L 145.177713 283.772324 
L 145.410107 294.187895 
L 145.410107 294.187895 
L 145.642501 291.585953 
L 145.642501 291.585953 
L 145.874896 283.97774 
L 145.874896 283.97774 
L 146.10729 281.814366 
L 146.10729 281.814366 
L 146.339684 277.961723 
L 146.339684 277.961723 
L 146.572078 279.345034 
L 146.572078 279.345034 
L 146.804472 279.546117 
L 146.804472 279.546117 
L 147.501654 294.49992 
L 147.501654 294.49992 
L 147.734048 292.822786 
L 147.734048 292.822786 
L 147.966442 287.022585 
L 147.966442 287.022585 
L 148.198836 286.007637 
L 148.198836 286.007637 
L 148.431231 282.758242 
L 148.431231 282.758242 
L 148.663625 285.398321 
L 148.663625 285.398321 
L 148.896019 285.877627 
L 149.128413 292.658106 
L 149.128413 292.658106 
L 149.360807 294.401979 
L 149.360807 294.401979 
L 150.057989 270.649068 
L 150.057989 270.649068 
L 150.290383 266.792958 
L 150.290383 266.792958 
L 150.522777 260.169358 
L 150.522777 260.169358 
L 150.755171 259.431765 
L 150.755171 259.431765 
L 150.987566 256.260377 
L 151.21996 258.969795 
L 151.21996 258.969795 
L 151.452354 259.436099 
L 151.452354 259.436099 
L 151.684748 264.958943 
L 151.684748 264.958943 
L 151.917142 267.478546 
L 151.917142 267.478546 
L 152.149536 273.892396 
L 152.149536 273.892396 
L 152.38193 276.607881 
L 152.38193 276.607881 
L 152.614324 281.550879 
L 152.614324 281.550879 
L 152.846718 282.469619 
L 152.846718 282.469619 
L 153.079112 285.147835 
L 153.079112 285.147835 
L 153.311506 284.088683 
L 153.311506 284.088683 
L 153.543901 284.154555 
L 153.543901 284.154555 
L 153.776295 284.750003 
L 153.776295 284.750003 
L 154.008689 279.451643 
L 154.008689 279.451643 
L 154.241083 278.460096 
L 154.473477 273.013525 
L 154.473477 273.013525 
L 154.705871 270.988829 
L 154.705871 270.988829 
L 154.938265 265.861216 
L 154.938265 265.861216 
L 155.170659 263.453422 
L 155.170659 263.453422 
L 155.635447 256.317581 
L 155.635447 256.317581 
L 157.4946 226.633593 
L 157.4946 226.633593 
L 157.959388 219.504686 
L 157.959388 219.504686 
L 158.191782 219.782041 
L 158.191782 219.782041 
L 158.424176 217.57013 
L 158.424176 217.57013 
L 158.656571 218.559943 
L 158.888965 217.980096 
L 158.888965 217.980096 
L 159.121359 216.673058 
L 159.121359 216.673058 
L 159.353753 220.815191 
L 159.353753 220.815191 
L 159.586147 220.729384 
L 159.586147 220.729384 
L 159.818541 224.478886 
L 159.818541 224.478886 
L 160.050935 225.117671 
L 160.050935 225.117671 
L 160.283329 224.096655 
L 160.283329 224.096655 
L 160.515723 229.254604 
L 160.515723 229.254604 
L 160.748117 229.087324 
L 160.748117 229.087324 
L 160.980511 233.448741 
L 160.980511 233.448741 
L 161.212906 234.155998 
L 161.212906 234.155998 
L 161.4453 233.47561 
L 161.4453 233.47561 
L 161.677694 239.922395 
L 161.910088 240.822935 
L 161.910088 240.822935 
L 162.142482 247.583479 
L 162.142482 247.583479 
L 162.374876 250.656059 
L 162.374876 250.656059 
L 162.839664 263.655372 
L 162.839664 263.655372 
L 163.072058 268.860991 
L 163.072058 268.860991 
L 163.536846 281.830834 
L 163.536846 281.830834 
L 163.769241 287.847719 
L 163.769241 287.847719 
L 164.234029 294.460051 
L 164.234029 294.460051 
L 164.466423 295.318986 
L 164.466423 295.318986 
L 164.931211 294.268502 
L 164.931211 294.268502 
L 165.163605 295.097102 
L 165.163605 295.097102 
L 165.395999 295.382258 
L 165.395999 295.382258 
L 165.628393 295.488 
L 165.628393 295.488 
L 165.860787 290.675879 
L 165.860787 290.675879 
L 166.093181 292.345214 
L 166.093181 292.345214 
L 166.325576 290.449661 
L 166.325576 290.449661 
L 166.55797 292.240339 
L 166.55797 292.240339 
L 166.790364 291.672626 
L 166.790364 291.672626 
L 167.022758 293.87327 
L 167.022758 293.87327 
L 167.255152 294.768609 
L 167.255152 294.768609 
L 167.487546 295.204577 
L 167.487546 295.204577 
L 167.71994 291.356268 
L 167.71994 291.356268 
L 167.952334 289.505785 
L 167.952334 289.505785 
L 168.417122 282.242534 
L 168.417122 282.242534 
L 168.649516 279.78707 
L 168.649516 279.78707 
L 169.114305 271.405729 
L 169.114305 271.405729 
L 169.346699 268.339215 
L 169.346699 268.339215 
L 169.811487 260.184093 
L 169.811487 260.184093 
L 170.276275 253.31954 
L 170.276275 253.31954 
L 170.741063 248.452815 
L 170.741063 248.452815 
L 171.205851 246.083158 
L 171.205851 246.083158 
L 171.438246 246.673405 
L 171.438246 246.673405 
L 171.67064 247.713489 
L 171.67064 247.713489 
L 171.903034 249.523235 
L 171.903034 249.523235 
L 172.83261 261.840426 
L 172.83261 261.840426 
L 173.762187 274.180152 
L 173.762187 274.180152 
L 174.459369 280.497794 
L 174.459369 280.497794 
L 174.924157 283.505369 
L 174.924157 283.505369 
L 175.621339 286.918577 
L 175.621339 286.918577 
L 175.853733 287.922258 
L 175.853733 287.922258 
L 176.086127 295.488 
L 176.086127 295.488 
L 176.318522 290.522467 
L 176.318522 290.522467 
L 176.550916 291.670893 
L 176.550916 291.670893 
L 177.015704 295.250514 
L 177.015704 295.250514 
L 177.712886 289.430379 
L 177.712886 289.430379 
L 178.410068 283.052933 
L 178.410068 283.052933 
L 178.874857 277.248399 
L 178.874857 277.248399 
L 179.107251 274.57365 
L 179.107251 274.57365 
L 179.804433 261.784955 
L 179.804433 261.784955 
L 180.036827 259.931005 
L 180.036827 259.931005 
L 180.269221 252.380865 
L 180.269221 252.380865 
L 180.501615 251.079893 
L 180.501615 251.079893 
L 180.734009 247.97871 
L 180.734009 247.97871 
L 180.966403 240.987614 
L 180.966403 240.987614 
L 181.198797 238.623158 
L 181.198797 238.623158 
L 181.431192 230.440299 
L 181.431192 230.440299 
L 181.663586 229.415817 
L 181.663586 229.415817 
L 181.89598 226.511383 
L 181.89598 226.511383 
L 182.128374 220.293416 
L 182.128374 220.293416 
L 182.360768 218.746291 
L 182.360768 218.746291 
L 182.593162 211.940677 
L 182.593162 211.940677 
L 182.825556 212.461586 
L 182.825556 212.461586 
L 183.05795 204.842973 
L 183.05795 204.842973 
L 183.290344 206.886737 
L 183.290344 206.886737 
L 183.522738 206.637984 
L 183.522738 206.637984 
L 183.755132 200.437352 
L 183.755132 200.437352 
L 183.987527 200.991196 
L 183.987527 200.991196 
L 184.219921 192.806604 
L 184.219921 192.806604 
L 184.452315 194.017435 
L 184.452315 194.017435 
L 184.684709 192.765001 
L 184.684709 192.765001 
L 184.917103 185.202726 
L 184.917103 185.202726 
L 185.149497 184.59861 
L 185.149497 184.59861 
L 185.381891 174.558336 
L 185.381891 174.558336 
L 185.614285 174.968302 
L 185.614285 174.968302 
L 185.846679 172.50157 
L 185.846679 172.50157 
L 186.079073 162.679713 
L 186.079073 162.679713 
L 186.311467 161.377875 
L 186.311467 161.377875 
L 186.543862 148.928073 
L 186.543862 148.928073 
L 186.776256 150.993506 
L 186.776256 150.993506 
L 187.00865 150.087767 
L 187.00865 150.087767 
L 187.241044 142.853985 
L 187.473438 145.332851 
L 187.473438 145.332851 
L 187.705832 139.393106 
L 187.705832 139.393106 
L 187.938226 145.416057 
L 187.938226 145.416057 
L 188.17062 140.412388 
L 188.17062 140.412388 
L 188.635408 152.844855 
L 188.635408 152.844855 
L 188.867802 151.269128 
L 188.867802 151.269128 
L 189.100197 156.63596 
L 189.100197 156.63596 
L 189.332591 153.338028 
L 189.332591 153.338028 
L 189.797379 163.390437 
L 189.797379 163.390437 
L 190.029773 162.166605 
L 190.029773 162.166605 
L 190.262167 166.367677 
L 190.262167 166.367677 
L 190.494561 163.505713 
L 190.494561 163.505713 
L 190.726955 168.510249 
L 190.726955 168.510249 
L 190.959349 164.006687 
L 190.959349 164.006687 
L 191.424137 172.923671 
L 191.424137 172.923671 
L 191.656532 170.352064 
L 191.888926 174.864294 
L 191.888926 174.864294 
L 192.12132 171.799514 
L 192.12132 171.799514 
L 192.586108 182.934476 
L 192.586108 182.934476 
L 192.818502 183.862751 
L 192.818502 183.862751 
L 193.050896 191.045396 
L 193.050896 191.045396 
L 193.28329 193.298044 
L 193.28329 193.298044 
L 193.748078 210.656174 
L 193.748078 210.656174 
L 193.980472 216.182485 
L 193.980472 216.182485 
L 194.677655 239.384152 
L 194.677655 239.384152 
L 194.910049 244.978069 
L 194.910049 244.978069 
L 195.607231 267.464678 
L 195.607231 267.464678 
L 196.536807 295.160374 
L 196.536807 295.160374 
L 197.001596 284.379906 
L 197.001596 284.379906 
L 197.698778 265.483319 
L 197.698778 265.483319 
L 197.931172 261.920166 
L 197.931172 261.920166 
L 198.163566 252.701557 
L 198.163566 252.701557 
L 198.39596 250.075346 
L 198.39596 250.075346 
L 198.628354 246.072757 
L 198.628354 246.072757 
L 198.860748 236.859349 
L 198.860748 236.859349 
L 199.093142 233.811904 
L 199.093142 233.811904 
L 199.325537 229.131527 
L 199.325537 229.131527 
L 199.557931 219.892117 
L 199.557931 219.892117 
L 199.790325 216.472842 
L 199.790325 216.472842 
L 200.022719 204.793569 
L 200.022719 204.793569 
L 200.255113 204.10798 
L 200.255113 204.10798 
L 200.487507 202.786207 
L 200.487507 202.786207 
L 200.719901 194.465538 
L 200.719901 194.465538 
L 201.184689 197.841476 
L 201.184689 197.841476 
L 201.417083 192.665326 
L 201.417083 192.665326 
L 201.881872 199.317528 
L 201.881872 199.317528 
L 202.114266 194.937042 
L 202.114266 194.937042 
L 202.34666 197.172355 
L 202.34666 197.172355 
L 202.579054 195.940723 
L 202.579054 195.940723 
L 203.276236 175.779567 
L 203.276236 175.779567 
L 203.741024 149.500986 
L 203.741024 149.500986 
L 203.973418 121.702149 
L 203.973418 121.702149 
L 204.438207 103.887249 
L 204.438207 103.887249 
L 204.670601 82.169435 
L 204.670601 82.169435 
L 204.902995 77.983098 
L 204.902995 77.983098 
L 205.135389 60.274806 
L 205.135389 60.274806 
L 205.367783 63.703616 
L 205.367783 63.703616 
L 205.600177 53.568 
L 205.600177 53.568 
L 206.064965 72.2063 
L 206.064965 72.2063 
L 206.297359 74.86458 
L 206.297359 74.86458 
L 206.529753 87.261511 
L 206.529753 87.261511 
L 206.762147 90.495305 
L 206.994542 106.941628 
L 206.994542 106.941628 
L 207.226936 109.15874 
L 207.226936 109.15874 
L 207.691724 145.996771 
L 207.691724 145.996771 
L 207.924118 153.518309 
L 207.924118 153.518309 
L 208.156512 172.010131 
L 208.156512 172.010131 
L 208.388906 178.139691 
L 208.388906 178.139691 
L 208.853694 208.482399 
L 208.853694 208.482399 
L 209.086088 212.109691 
L 209.086088 212.109691 
L 209.550877 228.069775 
L 209.550877 228.069775 
L 209.783271 226.204558 
L 209.783271 226.204558 
L 210.015665 229.217334 
L 210.015665 229.217334 
L 210.248059 229.430551 
L 210.248059 229.430551 
L 210.480453 224.134792 
L 210.480453 224.134792 
L 210.712847 223.746494 
L 210.712847 223.746494 
L 210.945241 222.134364 
L 210.945241 222.134364 
L 211.177635 217.77988 
L 211.177635 217.77988 
L 211.874817 219.93372 
L 211.874817 219.93372 
L 212.572 234.150798 
L 212.572 234.150798 
L 214.431152 292.748246 
L 214.431152 292.748246 
L 214.663547 289.940887 
L 214.663547 289.940887 
L 216.755093 239.612104 
L 216.755093 239.612104 
L 216.987487 226.732401 
L 217.219882 223.220385 
L 217.219882 223.220385 
L 217.452276 217.089958 
L 217.452276 217.089958 
L 217.68467 205.339613 
L 217.68467 205.339613 
L 217.917064 200.2172 
L 217.917064 200.2172 
L 218.149458 186.446492 
L 218.149458 186.446492 
L 218.381852 183.451918 
L 218.381852 183.451918 
L 218.614246 178.2515 
L 218.614246 178.2515 
L 218.84664 167.64698 
L 218.84664 167.64698 
L 219.079034 165.088374 
L 219.079034 165.088374 
L 219.311428 153.919608 
L 219.311428 153.919608 
L 219.543822 155.746689 
L 219.543822 155.746689 
L 219.776217 155.878433 
L 220.008611 150.96317 
L 220.008611 150.96317 
L 220.241005 154.424916 
L 220.241005 154.424916 
L 220.473399 147.932193 
L 220.705793 153.280824 
L 220.705793 153.280824 
L 220.938187 154.955358 
L 220.938187 154.955358 
L 221.170581 149.934354 
L 221.170581 149.934354 
L 221.402975 151.985053 
L 221.402975 151.985053 
L 221.635369 143.267418 
L 221.635369 143.267418 
L 221.867763 145.755818 
L 221.867763 145.755818 
L 222.100157 134.003739 
L 222.100157 134.003739 
L 222.332552 136.993113 
L 222.332552 136.993113 
L 222.564946 136.187915 
L 222.79734 126.376459 
L 222.79734 126.376459 
L 223.029734 126.899967 
L 223.029734 126.899967 
L 223.262128 116.266845 
L 223.262128 116.266845 
L 223.494522 119.705189 
L 223.494522 119.705189 
L 223.726916 121.423927 
L 223.726916 121.423927 
L 223.95931 117.369334 
L 223.95931 117.369334 
L 224.191704 122.686762 
L 224.191704 122.686762 
L 224.424098 119.779728 
L 224.424098 119.779728 
L 224.888887 134.634723 
L 224.888887 134.634723 
L 225.121281 135.74848 
L 225.121281 135.74848 
L 225.353675 142.934591 
L 225.353675 142.934591 
L 225.586069 143.023865 
L 225.586069 143.023865 
L 226.050857 152.543231 
L 226.050857 152.543231 
L 226.283251 149.747139 
L 226.283251 149.747139 
L 226.515645 151.975519 
L 226.515645 151.975519 
L 226.748039 151.848108 
L 226.748039 151.848108 
L 226.980433 147.1816 
L 226.980433 147.1816 
L 227.212827 147.965129 
L 227.212827 147.965129 
L 227.445222 141.839036 
L 227.445222 141.839036 
L 227.91001 147.618435 
L 227.91001 147.618435 
L 228.142404 145.548668 
L 228.142404 145.548668 
L 228.374798 150.040096 
L 228.374798 150.040096 
L 228.607192 147.764046 
L 228.607192 147.764046 
L 229.07198 160.061303 
L 229.07198 160.061303 
L 229.304374 160.885569 
L 229.536768 167.782191 
L 229.536768 167.782191 
L 229.769162 167.32282 
L 229.769162 167.32282 
L 230.233951 179.670347 
L 230.233951 179.670347 
L 230.466345 179.764821 
L 230.466345 179.764821 
L 230.698739 184.628079 
L 230.698739 184.628079 
L 230.931133 183.10609 
L 230.931133 183.10609 
L 231.163527 188.779747 
L 231.163527 188.779747 
L 231.395921 186.748983 
L 231.395921 186.748983 
L 231.860709 198.880693 
L 231.860709 198.880693 
L 232.093103 200.360212 
L 232.093103 200.360212 
L 232.325497 207.261167 
L 232.325497 207.261167 
L 232.557892 209.973186 
L 232.557892 209.973186 
L 233.255074 230.097938 
L 233.255074 230.097938 
L 233.952256 248.935587 
L 233.952256 248.935587 
L 234.18465 252.826367 
L 234.18465 252.826367 
L 234.649438 263.400551 
L 234.649438 263.400551 
L 236.043803 280.092161 
L 236.043803 280.092161 
L 236.276197 281.429535 
L 236.276197 281.429535 
L 236.508591 284.444911 
L 236.508591 284.444911 
L 236.740985 285.827356 
L 236.740985 285.827356 
L 236.973379 288.765592 
L 236.973379 288.765592 
L 237.205773 290.085632 
L 237.205773 290.085632 
L 237.438168 292.616502 
L 237.670562 293.647052 
L 237.670562 293.647052 
L 237.902956 295.186376 
L 237.902956 295.186376 
L 238.13535 294.416714 
L 238.13535 294.416714 
L 238.367744 292.850521 
L 238.367744 292.850521 
L 238.600138 292.519428 
L 238.600138 292.519428 
L 238.832532 291.537415 
L 239.064926 291.410005 
L 239.064926 291.410005 
L 239.29732 290.652478 
L 239.29732 290.652478 
L 239.529714 290.492131 
L 239.762108 290.572738 
L 239.762108 290.572738 
L 239.994503 289.349773 
L 239.994503 289.349773 
L 240.226897 289.133955 
L 240.226897 289.133955 
L 240.459291 288.021066 
L 240.459291 288.021066 
L 240.691685 287.709041 
L 240.691685 287.709041 
L 240.924079 286.837971 
L 240.924079 286.837971 
L 241.156473 286.486942 
L 241.156473 286.486942 
L 241.388867 286.471341 
L 241.388867 286.471341 
L 241.621261 285.74935 
L 241.621261 285.74935 
L 241.853655 285.740682 
L 241.853655 285.740682 
L 242.086049 285.872426 
L 242.086049 285.872426 
L 242.318443 284.938951 
L 242.318443 284.938951 
L 242.783232 284.309701 
L 242.783232 284.309701 
L 243.24802 282.021516 
L 243.24802 282.021516 
L 243.480414 281.257055 
L 243.480414 281.257055 
L 243.945202 278.337887 
L 243.945202 278.337887 
L 244.40999 276.281121 
L 244.40999 276.281121 
L 244.874778 273.056862 
L 244.874778 273.056862 
L 245.339567 271.240182 
L 245.339567 271.240182 
L 245.804355 267.825241 
L 245.804355 267.825241 
L 246.269143 265.727739 
L 246.269143 265.727739 
L 246.733931 262.283328 
L 246.733931 262.283328 
L 247.663508 258.038053 
L 247.663508 258.038053 
L 248.128296 257.264058 
L 248.128296 257.264058 
L 248.36069 257.082043 
L 248.593084 255.774138 
L 248.593084 255.774138 
L 249.290266 254.43243 
L 249.290266 254.43243 
L 249.755054 252.165914 
L 249.755054 252.165914 
L 250.219843 250.865809 
L 250.219843 250.865809 
L 250.452237 250.462777 
L 250.452237 250.462777 
L 250.684631 249.249346 
L 250.684631 249.249346 
L 250.917025 249.043063 
L 250.917025 249.043063 
L 251.149419 249.105468 
L 251.149419 249.105468 
L 251.381813 249.362888 
L 251.381813 249.362888 
L 251.614207 249.829193 
L 251.614207 249.829193 
L 251.846601 249.328219 
L 251.846601 249.328219 
L 252.776178 251.039157 
L 252.776178 251.039157 
L 253.008572 250.072746 
L 253.008572 250.072746 
L 253.938148 248.898318 
L 253.938148 248.898318 
L 254.170542 247.487271 
L 254.170542 247.487271 
L 254.63533 246.94296 
L 254.63533 246.94296 
L 254.867724 246.853687 
L 254.867724 246.853687 
L 255.100118 246.910024 
L 255.100118 246.910024 
L 255.332513 245.905477 
L 255.332513 245.905477 
L 255.797301 245.954881 
L 255.797301 245.954881 
L 256.262089 246.208835 
L 256.262089 246.208835 
L 256.494483 245.112413 
L 256.494483 245.112413 
L 256.959271 244.319349 
L 256.959271 244.319349 
L 257.424059 243.478615 
L 257.424059 243.478615 
L 257.656453 242.064101 
L 257.656453 242.064101 
L 257.888848 241.678403 
L 257.888848 241.678403 
L 258.121242 241.567461 
L 258.121242 241.567461 
L 258.353636 241.687938 
L 258.353636 241.687938 
L 258.58603 241.144494 
L 258.58603 241.144494 
L 258.818424 241.322175 
L 258.818424 241.322175 
L 259.283212 242.311988 
L 259.283212 242.311988 
L 259.515606 243.073849 
L 259.515606 243.073849 
L 259.748 243.101585 
L 259.748 243.101585 
L 260.677577 245.650656 
L 260.677577 245.650656 
L 260.909971 245.225956 
L 260.909971 245.225956 
L 261.374759 245.566583 
L 261.374759 245.566583 
L 261.839547 246.423785 
L 261.839547 246.423785 
L 262.071941 246.233103 
L 262.071941 246.233103 
L 262.536729 247.575678 
L 262.536729 247.575678 
L 263.001518 249.547503 
L 263.001518 249.547503 
L 263.233912 249.71825 
L 263.233912 249.71825 
L 264.163488 253.186063 
L 264.163488 253.186063 
L 264.395882 252.711958 
L 264.395882 252.711958 
L 265.093064 253.227666 
L 265.093064 253.227666 
L 265.325458 253.496354 
L 265.325458 253.496354 
L 265.557853 252.712825 
L 265.557853 252.712825 
L 266.022641 253.215532 
L 266.022641 253.215532 
L 266.487429 254.071867 
L 266.487429 254.071867 
L 266.719823 253.320407 
L 266.719823 253.320407 
L 267.184611 253.460818 
L 267.184611 253.460818 
L 267.417005 253.416615 
L 267.649399 253.251935 
L 267.649399 253.251935 
L 268.114188 250.877077 
L 268.114188 250.877077 
L 268.81137 247.557476 
L 268.81137 247.557476 
L 269.276158 244.180671 
L 269.276158 244.180671 
L 269.740946 242.442865 
L 269.740946 242.442865 
L 269.97334 241.850017 
L 269.97334 241.850017 
L 270.205734 240.459772 
L 270.205734 240.459772 
L 270.438128 240.044605 
L 270.438128 240.044605 
L 270.670523 239.878192 
L 270.670523 239.878192 
L 270.902917 239.93453 
L 271.135311 240.185017 
L 271.135311 240.185017 
L 271.367705 239.671042 
L 271.367705 239.671042 
L 271.832493 240.367031 
L 271.832493 240.367031 
L 272.297281 241.426183 
L 272.297281 241.426183 
L 272.529675 241.219033 
L 272.529675 241.219033 
L 273.226858 242.693352 
L 273.226858 242.693352 
L 273.459252 243.277532 
L 273.459252 243.277532 
L 273.691646 243.192592 
L 273.691646 243.192592 
L 274.388828 244.976335 
L 274.388828 244.976335 
L 274.621222 245.758998 
L 274.621222 245.758998 
L 274.853616 246.045888 
L 274.853616 246.045888 
L 275.318404 247.965709 
L 275.318404 247.965709 
L 276.945163 256.705013 
L 276.945163 256.705013 
L 277.409951 259.52884 
L 277.409951 259.52884 
L 277.874739 261.220709 
L 277.874739 261.220709 
L 278.107133 261.484197 
L 278.107133 261.484197 
L 278.339528 262.241725 
L 278.339528 262.241725 
L 278.571922 261.973903 
L 278.571922 261.973903 
L 279.03671 260.593192 
L 279.03671 260.593192 
L 279.269104 259.650183 
L 279.269104 259.650183 
L 279.501498 261.251912 
L 279.501498 261.251912 
L 279.733892 261.623742 
L 279.733892 261.623742 
L 279.966286 262.441941 
L 279.966286 262.441941 
L 280.431074 265.800544 
L 280.431074 265.800544 
L 281.593045 293.112275 
L 281.593045 293.112275 
L 281.825439 288.0306 
L 281.825439 288.0306 
L 284.381774 193.277242 
L 284.381774 193.277242 
L 285.078956 166.390212 
L 285.078956 166.390212 
L 285.543744 158.658056 
L 285.543744 158.658056 
L 286.008533 167.116537 
L 286.008533 167.116537 
L 286.473321 183.450185 
L 286.473321 183.450185 
L 287.867685 292.33828 
L 287.867685 292.33828 
L 288.332473 251.014021 
L 288.332473 251.014021 
L 288.797262 228.258724 
L 288.797262 228.258724 
L 289.029656 222.904893 
L 289.029656 222.904893 
L 289.26205 220.83946 
L 289.26205 220.83946 
L 289.494444 220.730251 
L 289.494444 220.730251 
L 289.726838 217.934159 
L 289.726838 217.934159 
L 290.191626 216.314229 
L 290.191626 216.314229 
L 290.656414 209.642959 
L 290.656414 209.642959 
L 290.888808 206.997679 
L 290.888808 206.997679 
L 291.353597 198.709946 
L 291.353597 198.709946 
L 292.283173 188.198167 
L 292.283173 188.198167 
L 292.747961 187.295894 
L 292.747961 187.295894 
L 292.980355 188.583864 
L 292.980355 188.583864 
L 293.212749 191.051463 
L 293.212749 191.051463 
L 294.607114 213.21738 
L 294.607114 213.21738 
L 295.071902 217.044888 
L 295.071902 217.044888 
L 296.001478 223.359063 
L 296.001478 223.359063 
L 296.466267 227.745616 
L 296.466267 227.745616 
L 297.628237 249.807524 
L 297.628237 249.807524 
L 299.022602 292.235138 
L 299.022602 292.235138 
L 299.254996 292.180534 
L 300.184572 269.3897 
L 300.184572 269.3897 
L 300.881754 259.091138 
L 300.881754 259.091138 
L 301.346543 256.560268 
L 301.346543 256.560268 
L 301.578937 256.653875 
L 301.578937 256.653875 
L 301.811331 257.70436 
L 301.811331 257.70436 
L 302.043725 258.127327 
L 302.043725 258.127327 
L 302.973301 264.671187 
L 302.973301 264.671187 
L 303.205695 266.962838 
L 303.205695 266.962838 
L 303.438089 267.7299 
L 303.438089 267.7299 
L 303.902878 271.781892 
L 303.902878 271.781892 
L 304.135272 272.15979 
L 305.297242 281.869838 
L 305.297242 281.869838 
L 306.226819 295.12137 
L 306.226819 295.12137 
L 306.459213 293.4191 
L 306.459213 293.4191 
L 309.480336 239.097262 
L 309.480336 239.097262 
L 309.71273 238.934316 
L 309.71273 238.934316 
L 309.945124 235.034002 
L 309.945124 235.034002 
L 310.177518 236.182428 
L 310.177518 236.182428 
L 310.409912 234.905725 
L 310.409912 234.905725 
L 310.642306 238.156853 
L 310.642306 238.156853 
L 310.8747 239.835722 
L 310.8747 239.835722 
L 311.107094 240.554246 
L 311.107094 240.554246 
L 311.339489 247.996045 
L 311.339489 247.996045 
L 311.571883 250.473178 
L 311.571883 250.473178 
L 311.804277 258.048454 
L 311.804277 258.048454 
L 312.036671 261.011826 
L 312.036671 261.011826 
L 312.269065 267.482013 
L 312.269065 267.482013 
L 312.501459 270.122959 
L 312.501459 270.122959 
L 312.733853 275.095426 
L 312.733853 275.095426 
L 312.966247 276.990978 
L 313.198641 276.658151 
L 313.198641 276.658151 
L 313.431035 281.435603 
L 313.431035 281.435603 
L 313.663429 280.643405 
L 313.663429 280.643405 
L 313.895824 284.108618 
L 313.895824 284.108618 
L 314.128218 283.314687 
L 314.128218 283.314687 
L 314.360612 286.335264 
L 314.360612 286.335264 
L 314.593006 286.368199 
L 314.593006 286.368199 
L 314.8254 289.192027 
L 314.8254 289.192027 
L 315.057794 295.488 
L 315.057794 295.488 
L 315.290188 289.825611 
L 315.290188 289.825611 
L 315.522582 294.553658 
L 315.522582 294.553658 
L 315.754976 295.104903 
L 315.754976 295.104903 
L 315.98737 291.696028 
L 315.98737 291.696028 
L 316.219764 290.993105 
L 316.219764 290.993105 
L 316.452159 287.683039 
L 316.452159 287.683039 
L 316.684553 286.940246 
L 316.684553 286.940246 
L 316.916947 284.548053 
L 316.916947 284.548053 
L 317.149341 283.845997 
L 317.149341 283.845997 
L 317.381735 283.973407 
L 317.381735 283.973407 
L 317.614129 281.387065 
L 317.614129 281.387065 
L 317.846523 281.170381 
L 318.078917 279.008741 
L 318.078917 279.008741 
L 318.311311 278.25208 
L 318.311311 278.25208 
L 318.776099 274.833671 
L 318.776099 274.833671 
L 319.008494 273.777986 
L 319.008494 273.777986 
L 319.240888 271.472468 
L 319.240888 271.472468 
L 320.170464 267.157854 
L 320.170464 267.157854 
L 320.402858 266.379524 
L 320.402858 266.379524 
L 320.635252 266.337054 
L 320.635252 266.337054 
L 320.867646 266.646479 
L 320.867646 266.646479 
L 321.10004 266.743554 
L 321.10004 266.743554 
L 321.797223 269.331629 
L 321.797223 269.331629 
L 323.423981 278.896932 
L 323.423981 278.896932 
L 324.585952 287.205467 
L 324.585952 287.205467 
L 325.515528 295.180309 
L 325.515528 295.180309 
L 325.980316 291.833839 
L 325.980316 291.833839 
L 326.21271 290.676746 
L 326.21271 290.676746 
L 326.445104 295.488 
L 326.445104 295.488 
L 326.677499 289.374908 
L 326.677499 289.374908 
L 326.909893 289.399177 
L 326.909893 289.399177 
L 327.839469 294.726139 
L 327.839469 294.726139 
L 330.16341 266.016362 
L 330.16341 266.016362 
L 331.32538 260.092218 
L 331.32538 260.092218 
L 332.254957 269.483307 
L 332.254957 269.483307 
L 332.487351 273.757185 
L 332.487351 273.757185 
L 332.952139 289.625395 
L 332.952139 289.625395 
L 333.184533 293.230152 
L 333.184533 293.230152 
L 334.578898 246.260839 
L 334.578898 246.260839 
L 335.043686 238.006041 
L 335.043686 238.006041 
L 335.740868 233.587419 
L 335.740868 233.587419 
L 335.973262 234.734978 
L 335.973262 234.734978 
L 336.205656 234.669973 
L 336.205656 234.669973 
L 336.43805 234.151664 
L 336.43805 234.151664 
L 336.670444 236.883618 
L 336.670444 236.883618 
L 336.902839 236.75274 
L 336.902839 236.75274 
L 337.135233 238.724566 
L 337.135233 238.724566 
L 337.367627 238.664761 
L 337.367627 238.664761 
L 337.600021 237.36379 
L 337.600021 237.36379 
L 337.832415 240.007336 
L 337.832415 240.007336 
L 338.064809 239.801052 
L 338.064809 239.801052 
L 338.297203 238.400406 
L 338.297203 238.400406 
L 338.529597 243.333003 
L 338.529597 243.333003 
L 338.761991 243.882514 
L 338.761991 243.882514 
L 339.226779 252.000367 
L 339.226779 252.000367 
L 339.459174 254.454098 
L 339.459174 254.454098 
L 339.691568 261.960902 
L 339.691568 261.960902 
L 339.923962 265.70607 
L 339.923962 265.70607 
L 340.38875 276.636483 
L 340.38875 276.636483 
L 340.621144 280.03409 
L 340.621144 280.03409 
L 340.853538 286.70016 
L 340.853538 286.70016 
L 341.318326 292.080859 
L 341.318326 292.080859 
L 341.55072 292.779449 
L 341.55072 292.779449 
L 341.783114 290.88563 
L 341.783114 290.88563 
L 342.015509 286.269392 
L 342.015509 286.269392 
L 342.247903 284.536785 
L 342.247903 284.536785 
L 342.480297 283.997675 
L 342.480297 283.997675 
L 342.712691 279.741133 
L 342.712691 279.741133 
L 342.945085 279.304298 
L 342.945085 279.304298 
L 343.177479 276.434533 
L 343.177479 276.434533 
L 343.409873 276.088706 
L 343.409873 276.088706 
L 343.642267 276.867035 
L 343.642267 276.867035 
L 343.874661 274.27636 
L 343.874661 274.27636 
L 344.107055 275.100626 
L 344.107055 275.100626 
L 344.339449 273.775386 
L 344.339449 273.775386 
L 344.571844 274.3587 
L 344.571844 274.3587 
L 344.804238 275.687407 
L 344.804238 275.687407 
L 345.036632 273.757185 
L 345.036632 273.757185 
L 345.269026 274.359567 
L 345.269026 274.359567 
L 345.50142 272.836711 
L 345.50142 272.836711 
L 345.733814 272.486549 
L 345.733814 272.486549 
L 345.966208 272.74657 
L 345.966208 272.74657 
L 346.198602 270.445385 
L 346.430996 270.18103 
L 346.430996 270.18103 
L 346.66339 270.620466 
L 346.66339 270.620466 
L 346.895784 268.313213 
L 346.895784 268.313213 
L 347.128179 268.672909 
L 347.360573 267.449944 
L 347.360573 267.449944 
L 347.592967 267.964785 
L 347.592967 267.964785 
L 347.825361 269.268357 
L 347.825361 269.268357 
L 348.057755 268.463159 
L 348.057755 268.463159 
L 348.290149 270.091756 
L 348.290149 270.091756 
L 348.522543 270.454919 
L 349.452119 278.227811 
L 349.452119 278.227811 
L 349.684514 278.943735 
L 349.684514 278.943735 
L 349.916908 281.393132 
L 349.916908 281.393132 
L 350.149302 282.139393 
L 350.149302 282.139393 
L 350.381696 284.314901 
L 350.381696 284.314901 
L 350.61409 284.618259 
L 350.61409 284.618259 
L 350.846484 286.308395 
L 350.846484 286.308395 
L 351.543666 285.688678 
L 351.543666 285.688678 
L 352.008454 283.123138 
L 352.008454 283.123138 
L 352.473243 277.21893 
L 352.473243 277.21893 
L 352.938031 266.213978 
L 352.938031 266.213978 
L 353.402819 250.213157 
L 353.402819 250.213157 
L 354.100001 210.913595 
L 354.100001 210.913595 
L 354.332395 207.333973 
L 354.564789 201.53204 
L 354.564789 201.53204 
L 354.797184 187.507378 
L 354.797184 187.507378 
L 355.029578 185.449746 
L 355.029578 185.449746 
L 355.261972 171.581963 
L 355.261972 171.581963 
L 355.494366 172.465167 
L 355.494366 172.465167 
L 355.72676 170.715227 
L 355.72676 170.715227 
L 355.959154 161.571157 
L 355.959154 161.571157 
L 356.191548 162.220343 
L 356.191548 162.220343 
L 356.423942 152.404553 
L 356.423942 152.404553 
L 356.656336 155.017763 
L 356.656336 155.017763 
L 356.88873 155.113104 
L 356.88873 155.113104 
L 357.121124 147.830785 
L 357.121124 147.830785 
L 357.353519 149.261767 
L 357.353519 149.261767 
L 357.585913 139.930483 
L 357.585913 139.930483 
L 357.818307 143.180744 
L 358.050701 143.679984 
L 358.050701 143.679984 
L 358.283095 135.732012 
L 358.283095 135.732012 
L 358.515489 137.529623 
L 358.515489 137.529623 
L 358.747883 136.616949 
L 358.747883 136.616949 
L 358.980277 130.405916 
L 358.980277 130.405916 
L 359.212671 131.070703 
L 359.212671 131.070703 
L 359.445065 123.212004 
L 359.445065 123.212004 
L 359.677459 127.310801 
L 359.677459 127.310801 
L 359.909854 129.196819 
L 359.909854 129.196819 
L 360.142248 125.774944 
L 360.142248 125.774944 
L 360.374642 129.758464 
L 360.374642 129.758464 
L 360.607036 124.720992 
L 360.607036 124.720992 
L 360.83943 130.357379 
L 360.83943 130.357379 
L 361.071824 132.824978 
L 361.071824 132.824978 
L 361.304218 128.884794 
L 361.304218 128.884794 
L 361.536612 131.70082 
L 361.536612 131.70082 
L 361.769006 124.199217 
L 361.769006 124.199217 
L 362.0014 127.55002 
L 362.233794 127.435611 
L 362.233794 127.435611 
L 362.466189 120.298903 
L 362.466189 120.298903 
L 362.698583 120.590993 
L 362.698583 120.590993 
L 362.930977 110.7284 
L 362.930977 110.7284 
L 363.163371 112.566747 
L 363.163371 112.566747 
L 363.395765 111.839556 
L 363.395765 111.839556 
L 363.628159 105.296562 
L 363.628159 105.296562 
L 363.860553 107.304791 
L 363.860553 107.304791 
L 364.092947 100.815535 
L 364.092947 100.815535 
L 364.557735 111.022223 
L 364.557735 111.022223 
L 364.790129 110.993621 
L 364.790129 110.993621 
L 365.022524 119.113208 
L 365.022524 119.113208 
L 365.254918 120.657732 
L 365.254918 120.657732 
L 365.487312 133.109267 
L 365.487312 133.109267 
L 365.719706 137.156059 
L 365.719706 137.156059 
L 366.184494 163.660859 
L 366.184494 163.660859 
L 366.416888 171.064521 
L 366.416888 171.064521 
L 366.881676 190.573024 
L 366.881676 190.573024 
L 367.346465 209.075247 
L 367.346465 209.075247 
L 368.740829 245.580451 
L 368.740829 245.580451 
L 369.670405 265.921888 
L 369.670405 265.921888 
L 370.367588 277.060317 
L 370.367588 277.060317 
L 370.832376 281.146979 
L 370.832376 281.146979 
L 371.06477 282.424549 
L 371.06477 282.424549 
L 371.297164 283.048599 
L 371.297164 283.048599 
L 371.529558 282.80678 
L 371.529558 282.80678 
L 371.761952 282.825848 
L 371.761952 282.825848 
L 371.994346 282.044918 
L 371.994346 282.044918 
L 372.22674 282.479153 
L 372.22674 282.479153 
L 372.459135 281.327261 
L 372.459135 281.327261 
L 372.691529 282.436683 
L 372.691529 282.436683 
L 372.923923 281.673955 
L 372.923923 281.673955 
L 373.156317 283.813927 
L 373.388711 283.589443 
L 373.388711 283.589443 
L 373.621105 286.874374 
L 373.621105 286.874374 
L 373.853499 286.62042 
L 373.853499 286.62042 
L 374.085893 289.52312 
L 374.085893 289.52312 
L 374.318287 287.929192 
L 374.318287 287.929192 
L 374.550681 289.377508 
L 374.550681 289.377508 
L 374.783075 285.880227 
L 374.783075 285.880227 
L 375.01547 285.316848 
L 375.01547 285.316848 
L 375.247864 279.742866 
L 375.247864 279.742866 
L 375.480258 277.34114 
L 375.480258 277.34114 
L 375.712652 270.339643 
L 375.712652 270.339643 
L 375.945046 266.903033 
L 375.945046 266.903033 
L 376.17744 259.558309 
L 376.409834 256.198839 
L 376.409834 256.198839 
L 376.642228 249.859528 
L 376.642228 249.859528 
L 376.874622 247.608614 
L 376.874622 247.608614 
L 377.107016 242.739289 
L 377.107016 242.739289 
L 377.33941 241.854351 
L 377.33941 241.854351 
L 377.804199 235.272355 
L 377.804199 235.272355 
L 378.036593 239.900727 
L 378.036593 239.900727 
L 378.268987 238.655227 
L 378.268987 238.655227 
L 378.501381 245.73213 
L 378.501381 245.73213 
L 378.733775 247.261053 
L 378.733775 247.261053 
L 378.966169 257.145315 
L 378.966169 257.145315 
L 379.198563 261.302182 
L 379.198563 261.302182 
L 379.430957 273.49283 
L 379.430957 273.49283 
L 379.663351 278.952403 
L 379.663351 278.952403 
L 379.895745 291.858975 
L 379.895745 291.858975 
L 380.12814 293.573379 
L 380.12814 293.573379 
L 380.360534 281.485007 
L 380.360534 281.485007 
L 380.592928 276.300189 
L 380.592928 276.300189 
L 380.825322 266.661214 
L 380.825322 266.661214 
L 381.057716 262.805103 
L 381.057716 262.805103 
L 381.29011 256.208373 
L 381.522504 254.269483 
L 381.522504 254.269483 
L 381.754898 250.37177 
L 381.754898 250.37177 
L 381.987292 249.334286 
L 381.987292 249.334286 
L 382.219686 246.957695 
L 382.219686 246.957695 
L 382.45208 246.015552 
L 382.45208 246.015552 
L 382.916869 242.497469 
L 382.916869 242.497469 
L 383.149263 240.077541 
L 383.149263 240.077541 
L 383.381657 239.072994 
L 383.381657 239.072994 
L 383.614051 237.101168 
L 383.614051 237.101168 
L 383.846445 237.635078 
L 383.846445 237.635078 
L 384.078839 237.694883 
L 384.078839 237.694883 
L 384.311233 238.329334 
L 384.311233 238.329334 
L 385.24081 254.115204 
L 385.24081 254.115204 
L 385.937992 271.474201 
L 385.937992 271.474201 
L 386.635174 291.065911 
L 386.635174 291.065911 
L 386.867568 293.545644 
L 386.867568 293.545644 
L 387.797145 271.766291 
L 387.797145 271.766291 
L 388.261933 264.466637 
L 388.261933 264.466637 
L 388.726721 261.466862 
L 388.726721 261.466862 
L 388.959115 260.871414 
L 388.959115 260.871414 
L 389.191509 260.964155 
L 389.191509 260.964155 
L 389.888691 267.872911 
L 389.888691 267.872911 
L 390.121085 271.033032 
L 390.121085 271.033032 
L 391.283056 295.372724 
L 391.283056 295.372724 
L 392.212632 272.895649 
L 392.212632 272.895649 
L 392.909815 257.817902 
L 392.909815 257.817902 
L 393.606997 246.417718 
L 393.606997 246.417718 
L 394.071785 241.558794 
L 394.071785 241.558794 
L 394.536573 238.656094 
L 394.536573 238.656094 
L 394.768967 238.682096 
L 394.768967 238.682096 
L 395.001361 238.933449 
L 395.001361 238.933449 
L 395.233755 239.775917 
L 395.233755 239.775917 
L 395.46615 241.223367 
L 395.46615 241.223367 
L 395.698544 243.504617 
L 395.698544 243.504617 
L 396.395726 257.728628 
L 396.395726 257.728628 
L 397.092908 278.512101 
L 397.092908 278.512101 
L 397.557696 294.508588 
L 397.557696 294.508588 
L 397.79009 287.36408 
L 397.79009 287.36408 
L 398.487273 229.515491 
L 398.487273 229.515491 
" clip-path="url(#p1647ba21c1)" style="fill: none; stroke: #1f77b4; stroke-width: 1.5; stroke-linecap: square"/>
   </g>
   <g id="patch_3">
    <path d="M 57.6 307.584 
L 57.6 41.472 
" style="fill: none; stroke: #000000; stroke-width: 0.8; stroke-linejoin: miter; stroke-linecap: square"/>
   </g>
   <g id="patch_4">
    <path d="M 414.72 307.584 
L 414.72 41.472 
" style="fill: none; stroke: #000000; stroke-width: 0.8; stroke-linejoin: miter; stroke-linecap: square"/>
   </g>
   <g id="patch_5">
    <path d="M 57.6 307.584 
L 414.72 307.584 
" style="fill: none; stroke: #000000; stroke-width: 0.8; stroke-linejoin: miter; stroke-linecap: square"/>
   </g>
   <g id="patch_6">
    <path d="M 57.6 41.472 
L 414.72 41.472 
" style="fill: none; stroke: #000000; stroke-width: 0.8; stroke-linejoin: miter; stroke-linecap: square"/>
   </g>
   <g id="text_15">
    <!-- Tracking error vs Time -->
    <g transform="translate(169.584375 35.472) scale(0.12 -0.12)">
     <defs>
      <path id="DejaVuSans-76" d="M 191 3500 
L 800 3500 
L 1894 563 
L 2988 3500 
L 3597 3500 
L 2284 0 
L 1503 0 
L 191 3500 
z
" transform="scale(0.015625)"/>
     </defs>
     <use xlink:href="#DejaVuSans-54"/>
     <use xlink:href="#DejaVuSans-72" x="46.333984"/>
     <use xlink:href="#DejaVuSans-61" x="87.447266"/>
     <use xlink:href="#DejaVuSans-63" x="148.726562"/>
     <use xlink:href="#DejaVuSans-6b" x="203.707031"/>
     <use xlink:href="#DejaVuSans-69" x="261.617188"/>
     <use xlink:href="#DejaVuSans-6e" x="289.400391"/>
     <use xlink:href="#DejaVuSans-67" x="352.779297"/>
     <use xlink:href="#DejaVuSans-20" x="416.255859"/>
     <use xlink:href="#DejaVuSans-65" x="448.042969"/>
     <use xlink:href="#DejaVuSans-72" x="509.566406"/>
     <use xlink:href="#DejaVuSans-72" x="548.929688"/>
     <use xlink:href="#DejaVuSans-6f" x="587.792969"/>
     <use xlink:href="#DejaVuSans-72" x="648.974609"/>
     <use xlink:href="#DejaVuSans-20" x="690.087891"/>
     <use xlink:href="#DejaVuSans-76" x="721.875"/>
     <use xlink:href="#DejaVuSans-73" x="781.054688"/>
     <use xlink:href="#DejaVuSans-20" x="833.154297"/>
     <use xlink:href="#DejaVuSans-54" x="864.941406"/>
     <use xlink:href="#DejaVuSans-69" x="922.900391"/>
     <use xlink:href="#DejaVuSans-6d" x="950.683594"/>
     <use xlink:href="#DejaVuSans-65" x="1048.095703"/>
    </g>
   </g>
   <g id="legend_1">
    <g id="patch_7">
     <path d="M 311.00125 64.150125 
L 407.72 64.150125 
Q 409.72 64.150125 409.72 62.150125 
L 409.72 48.472 
Q 409.72 46.472 407.72 46.472 
L 311.00125 46.472 
Q 309.00125 46.472 309.00125 48.472 
L 309.00125 62.150125 
Q 309.00125 64.150125 311.00125 64.150125 
z
" style="fill: #ffffff; opacity: 0.8; stroke: #cccccc; stroke-linejoin: miter"/>
    </g>
    <g id="line2d_26">
     <path d="M 313.00125 54.570438 
L 323.00125 54.570438 
L 333.00125 54.570438 
" style="fill: none; stroke: #1f77b4; stroke-width: 1.5; stroke-linecap: square"/>
    </g>
    <g id="text_16">
     <!-- Actual speed -->
     <g transform="translate(341.00125 58.070438) scale(0.1 -0.1)">
      <defs>
       <path id="DejaVuSans-41" d="M 2188 4044 
L 1331 1722 
L 3047 1722 
L 2188 4044 
z
M 1831 4666 
L 2547 4666 
L 4325 0 
L 3669 0 
L 3244 1197 
L 1141 1197 
L 716 0 
L 50 0 
L 1831 4666 
z
" transform="scale(0.015625)"/>
       <path id="DejaVuSans-74" d="M 1172 4494 
L 1172 3500 
L 2356 3500 
L 2356 3053 
L 1172 3053 
L 1172 1153 
Q 1172 725 1289 603 
Q 1406 481 1766 481 
L 2356 481 
L 2356 0 
L 1766 0 
Q 1100 0 847 248 
Q 594 497 594 1153 
L 594 3053 
L 172 3053 
L 172 3500 
L 594 3500 
L 594 4494 
L 1172 4494 
z
" transform="scale(0.015625)"/>
       <path id="DejaVuSans-75" d="M 544 1381 
L 544 3500 
L 1119 3500 
L 1119 1403 
Q 1119 906 1312 657 
Q 1506 409 1894 409 
Q 2359 409 2629 706 
Q 2900 1003 2900 1516 
L 2900 3500 
L 3475 3500 
L 3475 0 
L 2900 0 
L 2900 538 
Q 2691 219 2414 64 
Q 2138 -91 1772 -91 
Q 1169 -91 856 284 
Q 544 659 544 1381 
z
M 1991 3584 
L 1991 3584 
z
" transform="scale(0.015625)"/>
       <path id="DejaVuSans-6c" d="M 603 4863 
L 1178 4863 
L 1178 0 
L 603 0 
L 603 4863 
z
" transform="scale(0.015625)"/>
       <path id="DejaVuSans-70" d="M 1159 525 
L 1159 -1331 
L 581 -1331 
L 581 3500 
L 1159 3500 
L 1159 2969 
Q 1341 3281 1617 3432 
Q 1894 3584 2278 3584 
Q 2916 3584 3314 3078 
Q 3713 2572 3713 1747 
Q 3713 922 3314 415 
Q 2916 -91 2278 -91 
Q 1894 -91 1617 61 
Q 1341 213 1159 525 
z
M 3116 1747 
Q 3116 2381 2855 2742 
Q 2594 3103 2138 3103 
Q 1681 3103 1420 2742 
Q 1159 2381 1159 1747 
Q 1159 1113 1420 752 
Q 1681 391 2138 391 
Q 2594 391 2855 752 
Q 3116 1113 3116 1747 
z
" transform="scale(0.015625)"/>
       <path id="DejaVuSans-64" d="M 2906 2969 
L 2906 4863 
L 3481 4863 
L 3481 0 
L 2906 0 
L 2906 525 
Q 2725 213 2448 61 
Q 2172 -91 1784 -91 
Q 1150 -91 751 415 
Q 353 922 353 1747 
Q 353 2572 751 3078 
Q 1150 3584 1784 3584 
Q 2172 3584 2448 3432 
Q 2725 3281 2906 2969 
z
M 947 1747 
Q 947 1113 1208 752 
Q 1469 391 1925 391 
Q 2381 391 2643 752 
Q 2906 1113 2906 1747 
Q 2906 2381 2643 2742 
Q 2381 3103 1925 3103 
Q 1469 3103 1208 2742 
Q 947 2381 947 1747 
z
" transform="scale(0.015625)"/>
      </defs>
      <use xlink:href="#DejaVuSans-41"/>
      <use xlink:href="#DejaVuSans-63" x="66.658203"/>
      <use xlink:href="#DejaVuSans-74" x="121.638672"/>
      <use xlink:href="#DejaVuSans-75" x="160.847656"/>
      <use xlink:href="#DejaVuSans-61" x="224.226562"/>
      <use xlink:href="#DejaVuSans-6c" x="285.505859"/>
      <use xlink:href="#DejaVuSans-20" x="313.289062"/>
      <use xlink:href="#DejaVuSans-73" x="345.076172"/>
      <use xlink:href="#DejaVuSans-70" x="397.175781"/>
      <use xlink:href="#DejaVuSans-65" x="460.652344"/>
      <use xlink:href="#DejaVuSans-65" x="522.175781"/>
      <use xlink:href="#DejaVuSans-64" x="583.699219"/>
     </g>
    </g>
   </g>
  </g>
 </g>
 <defs>
  <clipPath id="p1647ba21c1">
   <rect x="57.6" y="41.472" width="357.12" height="266.112"/>
  </clipPath>
 </defs>
</svg>
