<?xml version="1.0" encoding="utf-8" standalone="no"?>
<!DOCTYPE svg PUBLIC "-//W3C//DTD SVG 1.1//EN"
  "http://www.w3.org/Graphics/SVG/1.1/DTD/svg11.dtd">
<svg xmlns:xlink="http://www.w3.org/1999/xlink" width="460.8pt" height="345.6pt" viewBox="0 0 460.8 345.6" xmlns="http://www.w3.org/2000/svg" version="1.1">
 <metadata>
  <rdf:RDF xmlns:dc="http://purl.org/dc/elements/1.1/" xmlns:cc="http://creativecommons.org/ns#" xmlns:rdf="http://www.w3.org/1999/02/22-rdf-syntax-ns#">
   <cc:Work>
    <dc:type rdf:resource="http://purl.org/dc/dcmitype/StillImage"/>
    <dc:date>2024-01-30T20:59:18.232308</dc:date>
    <dc:format>image/svg+xml</dc:format>
    <dc:creator>
     <cc:Agent>
      <dc:title>Matplotlib v3.7.1, https://matplotlib.org/</dc:title>
     </cc:Agent>
    </dc:creator>
   </cc:Work>
  </rdf:RDF>
 </metadata>
 <defs>
  <style type="text/css">*{stroke-linejoin: round; stroke-linecap: butt}</style>
 </defs>
 <g id="figure_1">
  <g id="patch_1">
   <path d="M 0 345.6 
L 460.8 345.6 
L 460.8 0 
L 0 0 
z
" style="fill: #ffffff"/>
  </g>
  <g id="axes_1">
   <g id="patch_2">
    <path d="M 57.6 307.584 
L 414.72 307.584 
L 414.72 41.472 
L 57.6 41.472 
z
" style="fill: #ffffff"/>
   </g>
   <g id="matplotlib.axis_1">
    <g id="xtick_1">
     <g id="line2d_1">
      <path d="M 73.832727 307.584 
L 73.832727 41.472 
" clip-path="url(#p52fbc84530)" style="fill: none; stroke: #b0b0b0; stroke-width: 0.8; stroke-linecap: square"/>
     </g>
     <g id="line2d_2">
      <defs>
       <path id="m29a5bd87bc" d="M 0 0 
L 0 3.5 
" style="stroke: #000000; stroke-width: 0.8"/>
      </defs>
      <g>
       <use xlink:href="#m29a5bd87bc" x="73.832727" y="307.584" style="stroke: #000000; stroke-width: 0.8"/>
      </g>
     </g>
     <g id="text_1">
      <!-- 0 -->
      <g transform="translate(70.651477 322.182437) scale(0.1 -0.1)">
       <defs>
        <path id="DejaVuSans-30" d="M 2034 4250 
Q 1547 4250 1301 3770 
Q 1056 3291 1056 2328 
Q 1056 1369 1301 889 
Q 1547 409 2034 409 
Q 2525 409 2770 889 
Q 3016 1369 3016 2328 
Q 3016 3291 2770 3770 
Q 2525 4250 2034 4250 
z
M 2034 4750 
Q 2819 4750 3233 4129 
Q 3647 3509 3647 2328 
Q 3647 1150 3233 529 
Q 2819 -91 2034 -91 
Q 1250 -91 836 529 
Q 422 1150 422 2328 
Q 422 3509 836 4129 
Q 1250 4750 2034 4750 
z
" transform="scale(0.015625)"/>
       </defs>
       <use xlink:href="#DejaVuSans-30"/>
      </g>
     </g>
    </g>
    <g id="xtick_2">
     <g id="line2d_3">
      <path d="M 131.972868 307.584 
L 131.972868 41.472 
" clip-path="url(#p52fbc84530)" style="fill: none; stroke: #b0b0b0; stroke-width: 0.8; stroke-linecap: square"/>
     </g>
     <g id="line2d_4">
      <g>
       <use xlink:href="#m29a5bd87bc" x="131.972868" y="307.584" style="stroke: #000000; stroke-width: 0.8"/>
      </g>
     </g>
     <g id="text_2">
      <!-- 5 -->
      <g transform="translate(128.791618 322.182437) scale(0.1 -0.1)">
       <defs>
        <path id="DejaVuSans-35" d="M 691 4666 
L 3169 4666 
L 3169 4134 
L 1269 4134 
L 1269 2991 
Q 1406 3038 1543 3061 
Q 1681 3084 1819 3084 
Q 2600 3084 3056 2656 
Q 3513 2228 3513 1497 
Q 3513 744 3044 326 
Q 2575 -91 1722 -91 
Q 1428 -91 1123 -41 
Q 819 9 494 109 
L 494 744 
Q 775 591 1075 516 
Q 1375 441 1709 441 
Q 2250 441 2565 725 
Q 2881 1009 2881 1497 
Q 2881 1984 2565 2268 
Q 2250 2553 1709 2553 
Q 1456 2553 1204 2497 
Q 953 2441 691 2322 
L 691 4666 
z
" transform="scale(0.015625)"/>
       </defs>
       <use xlink:href="#DejaVuSans-35"/>
      </g>
     </g>
    </g>
    <g id="xtick_3">
     <g id="line2d_5">
      <path d="M 190.113009 307.584 
L 190.113009 41.472 
" clip-path="url(#p52fbc84530)" style="fill: none; stroke: #b0b0b0; stroke-width: 0.8; stroke-linecap: square"/>
     </g>
     <g id="line2d_6">
      <g>
       <use xlink:href="#m29a5bd87bc" x="190.113009" y="307.584" style="stroke: #000000; stroke-width: 0.8"/>
      </g>
     </g>
     <g id="text_3">
      <!-- 10 -->
      <g transform="translate(183.750509 322.182437) scale(0.1 -0.1)">
       <defs>
        <path id="DejaVuSans-31" d="M 794 531 
L 1825 531 
L 1825 4091 
L 703 3866 
L 703 4441 
L 1819 4666 
L 2450 4666 
L 2450 531 
L 3481 531 
L 3481 0 
L 794 0 
L 794 531 
z
" transform="scale(0.015625)"/>
       </defs>
       <use xlink:href="#DejaVuSans-31"/>
       <use xlink:href="#DejaVuSans-30" x="63.623047"/>
      </g>
     </g>
    </g>
    <g id="xtick_4">
     <g id="line2d_7">
      <path d="M 248.253149 307.584 
L 248.253149 41.472 
" clip-path="url(#p52fbc84530)" style="fill: none; stroke: #b0b0b0; stroke-width: 0.8; stroke-linecap: square"/>
     </g>
     <g id="line2d_8">
      <g>
       <use xlink:href="#m29a5bd87bc" x="248.253149" y="307.584" style="stroke: #000000; stroke-width: 0.8"/>
      </g>
     </g>
     <g id="text_4">
      <!-- 15 -->
      <g transform="translate(241.890649 322.182437) scale(0.1 -0.1)">
       <use xlink:href="#DejaVuSans-31"/>
       <use xlink:href="#DejaVuSans-35" x="63.623047"/>
      </g>
     </g>
    </g>
    <g id="xtick_5">
     <g id="line2d_9">
      <path d="M 306.39329 307.584 
L 306.39329 41.472 
" clip-path="url(#p52fbc84530)" style="fill: none; stroke: #b0b0b0; stroke-width: 0.8; stroke-linecap: square"/>
     </g>
     <g id="line2d_10">
      <g>
       <use xlink:href="#m29a5bd87bc" x="306.39329" y="307.584" style="stroke: #000000; stroke-width: 0.8"/>
      </g>
     </g>
     <g id="text_5">
      <!-- 20 -->
      <g transform="translate(300.03079 322.182437) scale(0.1 -0.1)">
       <defs>
        <path id="DejaVuSans-32" d="M 1228 531 
L 3431 531 
L 3431 0 
L 469 0 
L 469 531 
Q 828 903 1448 1529 
Q 2069 2156 2228 2338 
Q 2531 2678 2651 2914 
Q 2772 3150 2772 3378 
Q 2772 3750 2511 3984 
Q 2250 4219 1831 4219 
Q 1534 4219 1204 4116 
Q 875 4013 500 3803 
L 500 4441 
Q 881 4594 1212 4672 
Q 1544 4750 1819 4750 
Q 2544 4750 2975 4387 
Q 3406 4025 3406 3419 
Q 3406 3131 3298 2873 
Q 3191 2616 2906 2266 
Q 2828 2175 2409 1742 
Q 1991 1309 1228 531 
z
" transform="scale(0.015625)"/>
       </defs>
       <use xlink:href="#DejaVuSans-32"/>
       <use xlink:href="#DejaVuSans-30" x="63.623047"/>
      </g>
     </g>
    </g>
    <g id="xtick_6">
     <g id="line2d_11">
      <path d="M 364.533431 307.584 
L 364.533431 41.472 
" clip-path="url(#p52fbc84530)" style="fill: none; stroke: #b0b0b0; stroke-width: 0.8; stroke-linecap: square"/>
     </g>
     <g id="line2d_12">
      <g>
       <use xlink:href="#m29a5bd87bc" x="364.533431" y="307.584" style="stroke: #000000; stroke-width: 0.8"/>
      </g>
     </g>
     <g id="text_6">
      <!-- 25 -->
      <g transform="translate(358.170931 322.182437) scale(0.1 -0.1)">
       <use xlink:href="#DejaVuSans-32"/>
       <use xlink:href="#DejaVuSans-35" x="63.623047"/>
      </g>
     </g>
    </g>
    <g id="text_7">
     <!-- Time(s) -->
     <g transform="translate(217.420156 335.860562) scale(0.1 -0.1)">
      <defs>
       <path id="DejaVuSans-54" d="M -19 4666 
L 3928 4666 
L 3928 4134 
L 2272 4134 
L 2272 0 
L 1638 0 
L 1638 4134 
L -19 4134 
L -19 4666 
z
" transform="scale(0.015625)"/>
       <path id="DejaVuSans-69" d="M 603 3500 
L 1178 3500 
L 1178 0 
L 603 0 
L 603 3500 
z
M 603 4863 
L 1178 4863 
L 1178 4134 
L 603 4134 
L 603 4863 
z
" transform="scale(0.015625)"/>
       <path id="DejaVuSans-6d" d="M 3328 2828 
Q 3544 3216 3844 3400 
Q 4144 3584 4550 3584 
Q 5097 3584 5394 3201 
Q 5691 2819 5691 2113 
L 5691 0 
L 5113 0 
L 5113 2094 
Q 5113 2597 4934 2840 
Q 4756 3084 4391 3084 
Q 3944 3084 3684 2787 
Q 3425 2491 3425 1978 
L 3425 0 
L 2847 0 
L 2847 2094 
Q 2847 2600 2669 2842 
Q 2491 3084 2119 3084 
Q 1678 3084 1418 2786 
Q 1159 2488 1159 1978 
L 1159 0 
L 581 0 
L 581 3500 
L 1159 3500 
L 1159 2956 
Q 1356 3278 1631 3431 
Q 1906 3584 2284 3584 
Q 2666 3584 2933 3390 
Q 3200 3197 3328 2828 
z
" transform="scale(0.015625)"/>
       <path id="DejaVuSans-65" d="M 3597 1894 
L 3597 1613 
L 953 1613 
Q 991 1019 1311 708 
Q 1631 397 2203 397 
Q 2534 397 2845 478 
Q 3156 559 3463 722 
L 3463 178 
Q 3153 47 2828 -22 
Q 2503 -91 2169 -91 
Q 1331 -91 842 396 
Q 353 884 353 1716 
Q 353 2575 817 3079 
Q 1281 3584 2069 3584 
Q 2775 3584 3186 3129 
Q 3597 2675 3597 1894 
z
M 3022 2063 
Q 3016 2534 2758 2815 
Q 2500 3097 2075 3097 
Q 1594 3097 1305 2825 
Q 1016 2553 972 2059 
L 3022 2063 
z
" transform="scale(0.015625)"/>
       <path id="DejaVuSans-28" d="M 1984 4856 
Q 1566 4138 1362 3434 
Q 1159 2731 1159 2009 
Q 1159 1288 1364 580 
Q 1569 -128 1984 -844 
L 1484 -844 
Q 1016 -109 783 600 
Q 550 1309 550 2009 
Q 550 2706 781 3412 
Q 1013 4119 1484 4856 
L 1984 4856 
z
" transform="scale(0.015625)"/>
       <path id="DejaVuSans-73" d="M 2834 3397 
L 2834 2853 
Q 2591 2978 2328 3040 
Q 2066 3103 1784 3103 
Q 1356 3103 1142 2972 
Q 928 2841 928 2578 
Q 928 2378 1081 2264 
Q 1234 2150 1697 2047 
L 1894 2003 
Q 2506 1872 2764 1633 
Q 3022 1394 3022 966 
Q 3022 478 2636 193 
Q 2250 -91 1575 -91 
Q 1294 -91 989 -36 
Q 684 19 347 128 
L 347 722 
Q 666 556 975 473 
Q 1284 391 1588 391 
Q 1994 391 2212 530 
Q 2431 669 2431 922 
Q 2431 1156 2273 1281 
Q 2116 1406 1581 1522 
L 1381 1569 
Q 847 1681 609 1914 
Q 372 2147 372 2553 
Q 372 3047 722 3315 
Q 1072 3584 1716 3584 
Q 2034 3584 2315 3537 
Q 2597 3491 2834 3397 
z
" transform="scale(0.015625)"/>
       <path id="DejaVuSans-29" d="M 513 4856 
L 1013 4856 
Q 1481 4119 1714 3412 
Q 1947 2706 1947 2009 
Q 1947 1309 1714 600 
Q 1481 -109 1013 -844 
L 513 -844 
Q 928 -128 1133 580 
Q 1338 1288 1338 2009 
Q 1338 2731 1133 3434 
Q 928 4138 513 4856 
z
" transform="scale(0.015625)"/>
      </defs>
      <use xlink:href="#DejaVuSans-54"/>
      <use xlink:href="#DejaVuSans-69" x="57.958984"/>
      <use xlink:href="#DejaVuSans-6d" x="85.742188"/>
      <use xlink:href="#DejaVuSans-65" x="183.154297"/>
      <use xlink:href="#DejaVuSans-28" x="244.677734"/>
      <use xlink:href="#DejaVuSans-73" x="283.691406"/>
      <use xlink:href="#DejaVuSans-29" x="335.791016"/>
     </g>
    </g>
   </g>
   <g id="matplotlib.axis_2">
    <g id="ytick_1">
     <g id="line2d_13">
      <path d="M 57.6 295.488 
L 414.72 295.488 
" clip-path="url(#p52fbc84530)" style="fill: none; stroke: #b0b0b0; stroke-width: 0.8; stroke-linecap: square"/>
     </g>
     <g id="line2d_14">
      <defs>
       <path id="m79dd80a46d" d="M 0 0 
L -3.5 0 
" style="stroke: #000000; stroke-width: 0.8"/>
      </defs>
      <g>
       <use xlink:href="#m79dd80a46d" x="57.6" y="295.488" style="stroke: #000000; stroke-width: 0.8"/>
      </g>
     </g>
     <g id="text_8">
      <!-- 0.00 -->
      <g transform="translate(28.334375 299.287219) scale(0.1 -0.1)">
       <defs>
        <path id="DejaVuSans-2e" d="M 684 794 
L 1344 794 
L 1344 0 
L 684 0 
L 684 794 
z
" transform="scale(0.015625)"/>
       </defs>
       <use xlink:href="#DejaVuSans-30"/>
       <use xlink:href="#DejaVuSans-2e" x="63.623047"/>
       <use xlink:href="#DejaVuSans-30" x="95.410156"/>
       <use xlink:href="#DejaVuSans-30" x="159.033203"/>
      </g>
     </g>
    </g>
    <g id="ytick_2">
     <g id="line2d_15">
      <path d="M 57.6 253.901411 
L 414.72 253.901411 
" clip-path="url(#p52fbc84530)" style="fill: none; stroke: #b0b0b0; stroke-width: 0.8; stroke-linecap: square"/>
     </g>
     <g id="line2d_16">
      <g>
       <use xlink:href="#m79dd80a46d" x="57.6" y="253.901411" style="stroke: #000000; stroke-width: 0.8"/>
      </g>
     </g>
     <g id="text_9">
      <!-- 0.05 -->
      <g transform="translate(28.334375 257.70063) scale(0.1 -0.1)">
       <use xlink:href="#DejaVuSans-30"/>
       <use xlink:href="#DejaVuSans-2e" x="63.623047"/>
       <use xlink:href="#DejaVuSans-30" x="95.410156"/>
       <use xlink:href="#DejaVuSans-35" x="159.033203"/>
      </g>
     </g>
    </g>
    <g id="ytick_3">
     <g id="line2d_17">
      <path d="M 57.6 212.314822 
L 414.72 212.314822 
" clip-path="url(#p52fbc84530)" style="fill: none; stroke: #b0b0b0; stroke-width: 0.8; stroke-linecap: square"/>
     </g>
     <g id="line2d_18">
      <g>
       <use xlink:href="#m79dd80a46d" x="57.6" y="212.314822" style="stroke: #000000; stroke-width: 0.8"/>
      </g>
     </g>
     <g id="text_10">
      <!-- 0.10 -->
      <g transform="translate(28.334375 216.114041) scale(0.1 -0.1)">
       <use xlink:href="#DejaVuSans-30"/>
       <use xlink:href="#DejaVuSans-2e" x="63.623047"/>
       <use xlink:href="#DejaVuSans-31" x="95.410156"/>
       <use xlink:href="#DejaVuSans-30" x="159.033203"/>
      </g>
     </g>
    </g>
    <g id="ytick_4">
     <g id="line2d_19">
      <path d="M 57.6 170.728233 
L 414.72 170.728233 
" clip-path="url(#p52fbc84530)" style="fill: none; stroke: #b0b0b0; stroke-width: 0.8; stroke-linecap: square"/>
     </g>
     <g id="line2d_20">
      <g>
       <use xlink:href="#m79dd80a46d" x="57.6" y="170.728233" style="stroke: #000000; stroke-width: 0.8"/>
      </g>
     </g>
     <g id="text_11">
      <!-- 0.15 -->
      <g transform="translate(28.334375 174.527452) scale(0.1 -0.1)">
       <use xlink:href="#DejaVuSans-30"/>
       <use xlink:href="#DejaVuSans-2e" x="63.623047"/>
       <use xlink:href="#DejaVuSans-31" x="95.410156"/>
       <use xlink:href="#DejaVuSans-35" x="159.033203"/>
      </g>
     </g>
    </g>
    <g id="ytick_5">
     <g id="line2d_21">
      <path d="M 57.6 129.141644 
L 414.72 129.141644 
" clip-path="url(#p52fbc84530)" style="fill: none; stroke: #b0b0b0; stroke-width: 0.8; stroke-linecap: square"/>
     </g>
     <g id="line2d_22">
      <g>
       <use xlink:href="#m79dd80a46d" x="57.6" y="129.141644" style="stroke: #000000; stroke-width: 0.8"/>
      </g>
     </g>
     <g id="text_12">
      <!-- 0.20 -->
      <g transform="translate(28.334375 132.940863) scale(0.1 -0.1)">
       <use xlink:href="#DejaVuSans-30"/>
       <use xlink:href="#DejaVuSans-2e" x="63.623047"/>
       <use xlink:href="#DejaVuSans-32" x="95.410156"/>
       <use xlink:href="#DejaVuSans-30" x="159.033203"/>
      </g>
     </g>
    </g>
    <g id="ytick_6">
     <g id="line2d_23">
      <path d="M 57.6 87.555056 
L 414.72 87.555056 
" clip-path="url(#p52fbc84530)" style="fill: none; stroke: #b0b0b0; stroke-width: 0.8; stroke-linecap: square"/>
     </g>
     <g id="line2d_24">
      <g>
       <use xlink:href="#m79dd80a46d" x="57.6" y="87.555056" style="stroke: #000000; stroke-width: 0.8"/>
      </g>
     </g>
     <g id="text_13">
      <!-- 0.25 -->
      <g transform="translate(28.334375 91.354274) scale(0.1 -0.1)">
       <use xlink:href="#DejaVuSans-30"/>
       <use xlink:href="#DejaVuSans-2e" x="63.623047"/>
       <use xlink:href="#DejaVuSans-32" x="95.410156"/>
       <use xlink:href="#DejaVuSans-35" x="159.033203"/>
      </g>
     </g>
    </g>
    <g id="ytick_7">
     <g id="line2d_25">
      <path d="M 57.6 45.968467 
L 414.72 45.968467 
" clip-path="url(#p52fbc84530)" style="fill: none; stroke: #b0b0b0; stroke-width: 0.8; stroke-linecap: square"/>
     </g>
     <g id="line2d_26">
      <g>
       <use xlink:href="#m79dd80a46d" x="57.6" y="45.968467" style="stroke: #000000; stroke-width: 0.8"/>
      </g>
     </g>
     <g id="text_14">
      <!-- 0.30 -->
      <g transform="translate(28.334375 49.767685) scale(0.1 -0.1)">
       <defs>
        <path id="DejaVuSans-33" d="M 2597 2516 
Q 3050 2419 3304 2112 
Q 3559 1806 3559 1356 
Q 3559 666 3084 287 
Q 2609 -91 1734 -91 
Q 1441 -91 1130 -33 
Q 819 25 488 141 
L 488 750 
Q 750 597 1062 519 
Q 1375 441 1716 441 
Q 2309 441 2620 675 
Q 2931 909 2931 1356 
Q 2931 1769 2642 2001 
Q 2353 2234 1838 2234 
L 1294 2234 
L 1294 2753 
L 1863 2753 
Q 2328 2753 2575 2939 
Q 2822 3125 2822 3475 
Q 2822 3834 2567 4026 
Q 2313 4219 1838 4219 
Q 1578 4219 1281 4162 
Q 984 4106 628 3988 
L 628 4550 
Q 988 4650 1302 4700 
Q 1616 4750 1894 4750 
Q 2613 4750 3031 4423 
Q 3450 4097 3450 3541 
Q 3450 3153 3228 2886 
Q 3006 2619 2597 2516 
z
" transform="scale(0.015625)"/>
       </defs>
       <use xlink:href="#DejaVuSans-30"/>
       <use xlink:href="#DejaVuSans-2e" x="63.623047"/>
       <use xlink:href="#DejaVuSans-33" x="95.410156"/>
       <use xlink:href="#DejaVuSans-30" x="159.033203"/>
      </g>
     </g>
    </g>
    <g id="text_15">
     <!-- Tracking error(m) -->
     <g transform="translate(22.254687 217.803781) rotate(-90) scale(0.1 -0.1)">
      <defs>
       <path id="DejaVuSans-72" d="M 2631 2963 
Q 2534 3019 2420 3045 
Q 2306 3072 2169 3072 
Q 1681 3072 1420 2755 
Q 1159 2438 1159 1844 
L 1159 0 
L 581 0 
L 581 3500 
L 1159 3500 
L 1159 2956 
Q 1341 3275 1631 3429 
Q 1922 3584 2338 3584 
Q 2397 3584 2469 3576 
Q 2541 3569 2628 3553 
L 2631 2963 
z
" transform="scale(0.015625)"/>
       <path id="DejaVuSans-61" d="M 2194 1759 
Q 1497 1759 1228 1600 
Q 959 1441 959 1056 
Q 959 750 1161 570 
Q 1363 391 1709 391 
Q 2188 391 2477 730 
Q 2766 1069 2766 1631 
L 2766 1759 
L 2194 1759 
z
M 3341 1997 
L 3341 0 
L 2766 0 
L 2766 531 
Q 2569 213 2275 61 
Q 1981 -91 1556 -91 
Q 1019 -91 701 211 
Q 384 513 384 1019 
Q 384 1609 779 1909 
Q 1175 2209 1959 2209 
L 2766 2209 
L 2766 2266 
Q 2766 2663 2505 2880 
Q 2244 3097 1772 3097 
Q 1472 3097 1187 3025 
Q 903 2953 641 2809 
L 641 3341 
Q 956 3463 1253 3523 
Q 1550 3584 1831 3584 
Q 2591 3584 2966 3190 
Q 3341 2797 3341 1997 
z
" transform="scale(0.015625)"/>
       <path id="DejaVuSans-63" d="M 3122 3366 
L 3122 2828 
Q 2878 2963 2633 3030 
Q 2388 3097 2138 3097 
Q 1578 3097 1268 2742 
Q 959 2388 959 1747 
Q 959 1106 1268 751 
Q 1578 397 2138 397 
Q 2388 397 2633 464 
Q 2878 531 3122 666 
L 3122 134 
Q 2881 22 2623 -34 
Q 2366 -91 2075 -91 
Q 1284 -91 818 406 
Q 353 903 353 1747 
Q 353 2603 823 3093 
Q 1294 3584 2113 3584 
Q 2378 3584 2631 3529 
Q 2884 3475 3122 3366 
z
" transform="scale(0.015625)"/>
       <path id="DejaVuSans-6b" d="M 581 4863 
L 1159 4863 
L 1159 1991 
L 2875 3500 
L 3609 3500 
L 1753 1863 
L 3688 0 
L 2938 0 
L 1159 1709 
L 1159 0 
L 581 0 
L 581 4863 
z
" transform="scale(0.015625)"/>
       <path id="DejaVuSans-6e" d="M 3513 2113 
L 3513 0 
L 2938 0 
L 2938 2094 
Q 2938 2591 2744 2837 
Q 2550 3084 2163 3084 
Q 1697 3084 1428 2787 
Q 1159 2491 1159 1978 
L 1159 0 
L 581 0 
L 581 3500 
L 1159 3500 
L 1159 2956 
Q 1366 3272 1645 3428 
Q 1925 3584 2291 3584 
Q 2894 3584 3203 3211 
Q 3513 2838 3513 2113 
z
" transform="scale(0.015625)"/>
       <path id="DejaVuSans-67" d="M 2906 1791 
Q 2906 2416 2648 2759 
Q 2391 3103 1925 3103 
Q 1463 3103 1205 2759 
Q 947 2416 947 1791 
Q 947 1169 1205 825 
Q 1463 481 1925 481 
Q 2391 481 2648 825 
Q 2906 1169 2906 1791 
z
M 3481 434 
Q 3481 -459 3084 -895 
Q 2688 -1331 1869 -1331 
Q 1566 -1331 1297 -1286 
Q 1028 -1241 775 -1147 
L 775 -588 
Q 1028 -725 1275 -790 
Q 1522 -856 1778 -856 
Q 2344 -856 2625 -561 
Q 2906 -266 2906 331 
L 2906 616 
Q 2728 306 2450 153 
Q 2172 0 1784 0 
Q 1141 0 747 490 
Q 353 981 353 1791 
Q 353 2603 747 3093 
Q 1141 3584 1784 3584 
Q 2172 3584 2450 3431 
Q 2728 3278 2906 2969 
L 2906 3500 
L 3481 3500 
L 3481 434 
z
" transform="scale(0.015625)"/>
       <path id="DejaVuSans-20" transform="scale(0.015625)"/>
       <path id="DejaVuSans-6f" d="M 1959 3097 
Q 1497 3097 1228 2736 
Q 959 2375 959 1747 
Q 959 1119 1226 758 
Q 1494 397 1959 397 
Q 2419 397 2687 759 
Q 2956 1122 2956 1747 
Q 2956 2369 2687 2733 
Q 2419 3097 1959 3097 
z
M 1959 3584 
Q 2709 3584 3137 3096 
Q 3566 2609 3566 1747 
Q 3566 888 3137 398 
Q 2709 -91 1959 -91 
Q 1206 -91 779 398 
Q 353 888 353 1747 
Q 353 2609 779 3096 
Q 1206 3584 1959 3584 
z
" transform="scale(0.015625)"/>
      </defs>
      <use xlink:href="#DejaVuSans-54"/>
      <use xlink:href="#DejaVuSans-72" x="46.333984"/>
      <use xlink:href="#DejaVuSans-61" x="87.447266"/>
      <use xlink:href="#DejaVuSans-63" x="148.726562"/>
      <use xlink:href="#DejaVuSans-6b" x="203.707031"/>
      <use xlink:href="#DejaVuSans-69" x="261.617188"/>
      <use xlink:href="#DejaVuSans-6e" x="289.400391"/>
      <use xlink:href="#DejaVuSans-67" x="352.779297"/>
      <use xlink:href="#DejaVuSans-20" x="416.255859"/>
      <use xlink:href="#DejaVuSans-65" x="448.042969"/>
      <use xlink:href="#DejaVuSans-72" x="509.566406"/>
      <use xlink:href="#DejaVuSans-72" x="548.929688"/>
      <use xlink:href="#DejaVuSans-6f" x="587.792969"/>
      <use xlink:href="#DejaVuSans-72" x="648.974609"/>
      <use xlink:href="#DejaVuSans-28" x="690.087891"/>
      <use xlink:href="#DejaVuSans-6d" x="729.101562"/>
      <use xlink:href="#DejaVuSans-29" x="826.513672"/>
     </g>
    </g>
   </g>
   <g id="line2d_27">
    <path d="M 73.832727 263.066264 
L 74.065288 282.116248 
L 74.065288 282.116248 
L 74.76297 186.729089 
L 74.76297 186.729089 
L 75.228091 147.824004 
L 75.228091 147.824004 
L 75.693212 127.29021 
L 75.693212 127.29021 
L 75.925772 122.659959 
L 75.925772 122.659959 
L 76.158333 121.593679 
L 76.158333 121.593679 
L 76.390893 123.517474 
L 76.390893 123.517474 
L 76.856015 134.519622 
L 76.856015 134.519622 
L 77.553696 160.318278 
L 77.553696 160.318278 
L 78.94906 214.020704 
L 78.94906 214.020704 
L 79.879302 241.872074 
L 79.879302 241.872074 
L 81.042105 267.171692 
L 81.042105 267.171692 
L 82.204908 283.704024 
L 82.204908 283.704024 
L 83.36771 290.44022 
L 83.36771 290.44022 
L 83.600271 289.592685 
L 83.832831 289.172661 
L 83.832831 289.172661 
L 84.065392 288.322631 
L 84.065392 288.322631 
L 84.530513 285.309267 
L 84.530513 285.309267 
L 85.228195 276.932896 
L 85.228195 276.932896 
L 87.088679 256.899804 
L 87.088679 256.899804 
L 87.5538 254.511071 
L 87.5538 254.511071 
L 88.018922 253.03641 
L 88.018922 253.03641 
L 88.251482 251.136735 
L 88.251482 251.136735 
L 88.484043 250.616902 
L 88.484043 250.616902 
L 88.716603 250.479667 
L 88.716603 250.479667 
L 88.949164 250.744989 
L 88.949164 250.744989 
L 89.181724 250.032195 
L 89.181724 250.032195 
L 89.414285 250.671797 
L 89.414285 250.671797 
L 90.111967 254.329753 
L 90.111967 254.329753 
L 90.577088 259.038187 
L 90.577088 259.038187 
L 91.042209 263.853914 
L 91.042209 263.853914 
L 91.739891 272.463169 
L 91.739891 272.463169 
L 91.972451 273.338151 
L 91.972451 273.338151 
L 92.437572 276.897963 
L 92.437572 276.897963 
L 92.670133 276.85305 
L 92.670133 276.85305 
L 93.367815 278.266162 
L 93.367815 278.266162 
L 93.600375 276.57941 
L 93.600375 276.57941 
L 93.832936 276.469621 
L 93.832936 276.469621 
L 94.065496 276.688367 
L 94.065496 276.688367 
L 94.298057 275.004942 
L 94.298057 275.004942 
L 94.530617 275.276918 
L 94.530617 275.276918 
L 94.763178 276.314087 
L 94.763178 276.314087 
L 94.995738 275.53725 
L 94.995738 275.53725 
L 95.228299 276.915429 
L 95.228299 276.915429 
L 95.46086 279.150293 
L 95.46086 279.150293 
L 95.69342 279.104547 
L 95.69342 279.104547 
L 96.158541 284.626415 
L 96.158541 284.626415 
L 96.391102 284.773631 
L 96.391102 284.773631 
L 96.623662 287.504207 
L 96.623662 287.504207 
L 96.856223 288.339265 
L 96.856223 288.339265 
L 97.321344 292.646804 
L 97.321344 292.646804 
L 97.553905 292.247573 
L 97.553905 292.247573 
L 98.019026 294.996447 
L 98.019026 294.996447 
L 98.251586 292.911295 
L 98.251586 292.911295 
L 98.484147 295.488 
L 98.484147 295.488 
L 98.716707 293.432791 
L 98.716707 293.432791 
L 98.949268 289.233377 
L 98.949268 289.233377 
L 99.414389 287.211437 
L 99.414389 287.211437 
L 99.64695 281.565642 
L 99.64695 281.565642 
L 100.112071 277.678127 
L 100.112071 277.678127 
L 100.344631 271.490043 
L 100.344631 271.490043 
L 100.577192 269.150382 
L 100.577192 269.150382 
L 101.042313 261.637348 
L 101.042313 261.637348 
L 101.274874 259.819183 
L 101.274874 259.819183 
L 101.507434 255.540754 
L 101.507434 255.540754 
L 101.972555 252.786059 
L 101.972555 252.786059 
L 102.205116 249.181333 
L 102.205116 249.181333 
L 102.437676 248.021899 
L 102.437676 248.021899 
L 102.670237 247.481274 
L 102.670237 247.481274 
L 102.902798 244.325683 
L 102.902798 244.325683 
L 103.135358 243.524725 
L 103.135358 243.524725 
L 103.367919 243.156268 
L 103.367919 243.156268 
L 103.600479 240.273486 
L 103.600479 240.273486 
L 104.0656 239.114052 
L 104.0656 239.114052 
L 104.298161 236.472472 
L 104.298161 236.472472 
L 104.530722 235.738884 
L 104.530722 235.738884 
L 104.763282 233.958978 
L 104.763282 233.958978 
L 105.228403 232.5284 
L 105.228403 232.5284 
L 105.460964 232.290524 
L 105.460964 232.290524 
L 105.693524 230.998845 
L 105.693524 230.998845 
L 105.926085 231.062888 
L 105.926085 231.062888 
L 106.158645 231.348172 
L 106.158645 231.348172 
L 106.391206 231.240047 
L 106.391206 231.240047 
L 106.856327 233.049895 
L 106.856327 233.049895 
L 107.321448 235.627432 
L 107.321448 235.627432 
L 108.01913 241.203362 
L 108.01913 241.203362 
L 108.716812 249.095665 
L 108.716812 249.095665 
L 111.274978 286.877913 
L 111.274978 286.877913 
L 111.97266 293.97009 
L 111.97266 293.97009 
L 112.20522 294.608028 
L 112.20522 294.608028 
L 112.437781 292.339063 
L 112.437781 292.339063 
L 112.670341 295.488 
L 112.670341 295.488 
L 112.902902 288.121352 
L 112.902902 288.121352 
L 113.600583 282.634417 
L 113.600583 282.634417 
L 114.065705 280.193284 
L 114.065705 280.193284 
L 114.298265 279.524572 
L 114.298265 279.524572 
L 114.530826 279.270062 
L 114.530826 279.270062 
L 114.763386 279.214336 
L 114.763386 279.214336 
L 114.995947 279.407298 
L 114.995947 279.407298 
L 115.461068 280.378761 
L 115.461068 280.378761 
L 117.088992 286.133513 
L 117.088992 286.133513 
L 117.786674 290.155768 
L 117.786674 290.155768 
L 118.484355 295.045519 
L 118.484355 295.045519 
L 118.716916 294.323576 
L 118.716916 294.323576 
L 119.414598 290.458518 
L 119.414598 290.458518 
L 119.879719 288.966391 
L 119.879719 288.966391 
L 120.112279 288.468184 
L 120.5774 288.241953 
L 120.5774 288.241953 
L 121.042521 288.38002 
L 121.042521 288.38002 
L 121.275082 288.537218 
L 121.275082 288.537218 
L 121.507643 288.987184 
L 121.507643 288.987184 
L 122.437885 289.772339 
L 122.437885 289.772339 
L 123.135567 291.370096 
L 123.135567 291.370096 
L 123.833248 293.868618 
L 123.833248 293.868618 
L 124.298369 295.291711 
L 124.298369 295.291711 
L 124.996051 292.972011 
L 124.996051 292.972011 
L 125.228612 292.550323 
L 125.228612 292.550323 
L 125.461172 292.381482 
L 125.461172 292.381482 
L 126.391414 292.265039 
L 126.391414 292.265039 
L 126.623975 292.15026 
L 126.623975 292.15026 
L 126.856536 291.860818 
L 126.856536 291.860818 
L 127.089096 291.316865 
L 127.089096 291.316865 
L 128.019338 287.612332 
L 128.019338 287.612332 
L 128.484459 285.746757 
L 128.484459 285.746757 
L 128.71702 285.114641 
L 128.71702 285.114641 
L 128.949581 284.822703 
L 128.949581 284.822703 
L 129.182141 284.850151 
L 129.182141 284.850151 
L 129.414702 285.203637 
L 129.414702 285.203637 
L 130.112383 288.895694 
L 130.112383 288.895694 
L 131.042626 294.815129 
L 131.042626 294.815129 
L 131.275186 295.488 
L 131.275186 295.488 
L 131.740307 293.425305 
L 131.740307 293.425305 
L 133.135671 289.826402 
L 133.135671 289.826402 
L 134.065913 285.187002 
L 134.065913 285.187002 
L 134.763595 281.67543 
L 134.763595 281.67543 
L 135.228716 280.015294 
L 135.228716 280.015294 
L 135.693837 278.655412 
L 135.693837 278.655412 
L 135.926397 278.499047 
L 135.926397 278.499047 
L 136.158958 277.885229 
L 136.158958 277.885229 
L 136.391519 276.893804 
L 136.391519 276.893804 
L 136.624079 277.257271 
L 136.624079 277.257271 
L 136.85664 276.412232 
L 136.85664 276.412232 
L 137.0892 274.747105 
L 137.0892 274.747105 
L 137.321761 275.148831 
L 137.321761 275.148831 
L 137.554321 273.21755 
L 137.554321 273.21755 
L 137.786882 272.737641 
L 137.786882 272.737641 
L 138.019443 270.675778 
L 138.019443 270.675778 
L 138.252003 267.461134 
L 138.252003 267.461134 
L 138.484564 267.375466 
L 138.484564 267.375466 
L 138.717124 263.846428 
L 138.717124 263.846428 
L 138.949685 262.947326 
L 138.949685 262.947326 
L 139.182245 259.316817 
L 139.414806 257.986878 
L 139.414806 257.986878 
L 139.879927 249.96732 
L 139.879927 249.96732 
L 140.112488 250.016392 
L 140.112488 250.016392 
L 140.345048 245.622353 
L 140.345048 245.622353 
L 140.577609 245.523377 
L 140.577609 245.523377 
L 140.810169 241.699074 
L 140.810169 241.699074 
L 141.04273 241.698242 
L 141.04273 241.698242 
L 141.27529 238.595051 
L 141.27529 238.595051 
L 141.507851 238.698186 
L 141.507851 238.698186 
L 141.740412 236.354366 
L 141.740412 236.354366 
L 141.972972 236.959867 
L 141.972972 236.959867 
L 142.205533 235.880279 
L 142.205533 235.880279 
L 142.438093 233.683675 
L 142.438093 233.683675 
L 142.670654 237.664343 
L 142.670654 237.664343 
L 142.903214 237.233506 
L 143.135775 242.630614 
L 143.135775 242.630614 
L 143.368336 244.216726 
L 143.368336 244.216726 
L 143.600896 251.169172 
L 143.600896 251.169172 
L 143.833457 254.369676 
L 143.833457 254.369676 
L 144.066017 262.090642 
L 144.066017 262.090642 
L 144.298578 265.902469 
L 144.298578 265.902469 
L 144.531138 273.319853 
L 144.531138 273.319853 
L 144.763699 276.670069 
L 144.763699 276.670069 
L 144.996259 283.103514 
L 144.996259 283.103514 
L 145.22882 285.724301 
L 145.22882 285.724301 
L 145.461381 290.975023 
L 145.461381 290.975023 
L 145.926502 294.509883 
L 145.926502 294.509883 
L 146.159062 294.052431 
L 146.159062 294.052431 
L 146.391623 291.69863 
L 146.391623 291.69863 
L 146.624183 292.147765 
L 146.624183 292.147765 
L 146.856744 290.965874 
L 146.856744 290.965874 
L 147.089305 292.592742 
L 147.089305 292.592742 
L 147.321865 292.898819 
L 147.321865 292.898819 
L 147.554426 295.446413 
L 147.554426 295.446413 
L 147.786986 294.746095 
L 147.786986 294.746095 
L 148.019547 295.488 
L 148.019547 295.488 
L 148.252107 292.151092 
L 148.484668 295.488 
L 148.484668 295.488 
L 148.717228 291.137211 
L 148.717228 291.137211 
L 148.949789 295.488 
L 148.949789 295.488 
L 149.18235 287.958332 
L 149.18235 287.958332 
L 149.41491 295.488 
L 149.41491 295.488 
L 149.647471 292.442198 
L 149.647471 292.442198 
L 149.880031 295.488 
L 149.880031 295.488 
L 150.112592 293.786277 
L 150.112592 293.786277 
L 150.345152 287.791986 
L 150.345152 287.791986 
L 150.577713 290.070931 
L 150.577713 290.070931 
L 150.810274 285.444007 
L 150.810274 285.444007 
L 151.042834 288.690256 
L 151.042834 288.690256 
L 151.275395 285.234411 
L 151.275395 285.234411 
L 151.507955 288.909833 
L 151.740516 286.220845 
L 151.740516 286.220845 
L 151.973076 290.072594 
L 151.973076 290.072594 
L 152.205637 287.564091 
L 152.205637 287.564091 
L 152.438197 290.403624 
L 152.438197 290.403624 
L 152.670758 287.252192 
L 152.670758 287.252192 
L 152.903319 289.033761 
L 152.903319 289.033761 
L 153.135879 285.405747 
L 153.135879 285.405747 
L 153.36844 285.940551 
L 153.36844 285.940551 
L 153.601 282.004796 
L 153.601 282.004796 
L 153.833561 281.786882 
L 153.833561 281.786882 
L 154.066121 278.066546 
L 154.066121 278.066546 
L 154.298682 277.504296 
L 154.298682 277.504296 
L 154.531243 274.205647 
L 154.763803 273.112752 
L 154.763803 273.112752 
L 154.996364 270.180065 
L 154.996364 270.180065 
L 155.228924 268.657165 
L 155.228924 268.657165 
L 156.624288 250.899691 
L 156.624288 250.899691 
L 157.55453 235.544259 
L 157.55453 235.544259 
L 157.78709 234.107858 
L 157.78709 234.107858 
L 158.019651 231.035441 
L 158.019651 231.035441 
L 158.252212 230.191233 
L 158.717333 225.801353 
L 158.717333 225.801353 
L 158.949893 227.655283 
L 158.949893 227.655283 
L 159.182454 226.613955 
L 159.182454 226.613955 
L 159.415014 228.889573 
L 159.415014 228.889573 
L 159.647575 229.345362 
L 159.647575 229.345362 
L 159.880135 228.664174 
L 159.880135 228.664174 
L 160.112696 233.418353 
L 160.112696 233.418353 
L 160.345257 233.759363 
L 160.345257 233.759363 
L 160.577817 237.947964 
L 160.577817 237.947964 
L 160.810378 239.409317 
L 160.810378 239.409317 
L 161.042938 239.460884 
L 161.042938 239.460884 
L 161.275499 245.626512 
L 161.275499 245.626512 
L 161.508059 246.767648 
L 161.74062 252.563986 
L 161.74062 252.563986 
L 161.973181 254.884518 
L 161.973181 254.884518 
L 162.438302 264.673169 
L 162.438302 264.673169 
L 162.670862 268.154799 
L 162.670862 268.154799 
L 163.135983 280.527641 
L 163.135983 280.527641 
L 163.601104 295.488 
L 163.601104 295.488 
L 163.833665 292.033818 
L 163.833665 292.033818 
L 164.066226 294.902461 
L 164.066226 294.902461 
L 164.298786 294.586403 
L 164.298786 294.586403 
L 164.531347 292.340727 
L 164.531347 292.340727 
L 164.763907 293.10093 
L 164.763907 293.10093 
L 164.996468 292.29415 
L 164.996468 292.29415 
L 165.229028 295.488 
L 165.69415 294.506557 
L 165.69415 294.506557 
L 165.92671 294.807643 
L 165.92671 294.807643 
L 166.159271 294.528182 
L 166.159271 294.528182 
L 166.391831 295.099581 
L 166.391831 295.099581 
L 166.624392 294.583076 
L 166.624392 294.583076 
L 166.856952 292.743285 
L 166.856952 292.743285 
L 167.089513 292.698372 
L 167.089513 292.698372 
L 167.322073 288.849949 
L 167.322073 288.849949 
L 167.554634 287.472601 
L 167.554634 287.472601 
L 168.019755 281.070761 
L 168.019755 281.070761 
L 168.252316 279.053812 
L 168.252316 279.053812 
L 168.717437 271.341995 
L 168.717437 271.341995 
L 169.182558 263.59774 
L 169.182558 263.59774 
L 170.577921 246.513138 
L 170.577921 246.513138 
L 170.810482 245.161574 
L 170.810482 245.161574 
L 171.043042 245.095035 
L 171.043042 245.095035 
L 171.275603 245.273026 
L 171.275603 245.273026 
L 171.508164 246.195416 
L 171.508164 246.195416 
L 172.205845 252.880876 
L 172.205845 252.880876 
L 173.368648 269.689344 
L 173.368648 269.689344 
L 174.29889 281.452526 
L 174.29889 281.452526 
L 175.461693 291.606308 
L 175.461693 291.606308 
L 175.926814 295.019735 
L 175.926814 295.019735 
L 176.159375 294.300287 
L 176.159375 294.300287 
L 178.25242 275.439937 
L 178.25242 275.439937 
L 178.48498 272.976348 
L 178.48498 272.976348 
L 179.182662 261.512589 
L 179.182662 261.512589 
L 179.415223 260.157698 
L 179.415223 260.157698 
L 179.647783 257.895387 
L 179.647783 257.895387 
L 179.880344 253.094631 
L 179.880344 253.094631 
L 180.112904 251.360471 
L 180.112904 251.360471 
L 180.345465 245.619026 
L 180.345465 245.619026 
L 180.578026 245.070915 
L 180.578026 245.070915 
L 180.810586 237.959608 
L 180.810586 237.959608 
L 181.043147 238.225762 
L 181.043147 238.225762 
L 181.275707 236.489938 
L 181.275707 236.489938 
L 181.508268 230.083108 
L 181.508268 230.083108 
L 181.740828 228.915357 
L 181.740828 228.915357 
L 181.973389 220.978972 
L 181.973389 220.978972 
L 182.205949 220.765217 
L 182.205949 220.765217 
L 182.43851 218.453003 
L 182.43851 218.453003 
L 182.671071 212.113543 
L 182.671071 212.113543 
L 182.903631 211.293456 
L 182.903631 211.293456 
L 183.136192 204.32188 
L 183.368752 205.319126 
L 183.368752 205.319126 
L 183.601313 204.395904 
L 183.601313 204.395904 
L 183.833873 199.577682 
L 183.833873 199.577682 
L 184.066434 199.927009 
L 184.066434 199.927009 
L 184.298995 194.040012 
L 184.298995 194.040012 
L 184.531555 196.541861 
L 184.531555 196.541861 
L 184.764116 197.211405 
L 184.764116 197.211405 
L 184.996676 193.969314 
L 184.996676 193.969314 
L 185.229237 196.194197 
L 185.229237 196.194197 
L 185.461797 191.414234 
L 185.461797 191.414234 
L 185.694358 195.25933 
L 185.694358 195.25933 
L 185.926918 196.35888 
L 185.926918 196.35888 
L 186.159479 192.192735 
L 186.159479 192.192735 
L 186.39204 194.138156 
L 186.39204 194.138156 
L 186.6246 186.201771 
L 186.6246 186.201771 
L 186.857161 189.274189 
L 186.857161 189.274189 
L 187.089721 177.755535 
L 187.089721 177.755535 
L 187.322282 182.162882 
L 187.322282 182.162882 
L 187.554842 182.572094 
L 187.787403 173.763223 
L 187.787403 173.763223 
L 188.019964 174.545882 
L 188.019964 174.545882 
L 188.252524 164.239062 
L 188.252524 164.239062 
L 188.485085 165.970728 
L 188.485085 165.970728 
L 188.717645 164.900289 
L 188.717645 164.900289 
L 188.950206 158.25392 
L 188.950206 158.25392 
L 189.182766 158.927623 
L 189.182766 158.927623 
L 189.415327 152.547408 
L 189.415327 152.547408 
L 189.880448 159.256157 
L 189.880448 159.256157 
L 190.113009 158.656478 
L 190.113009 158.656478 
L 190.345569 163.902211 
L 190.345569 163.902211 
L 190.57813 163.485513 
L 190.57813 163.485513 
L 190.81069 170.917868 
L 190.81069 170.917868 
L 191.043251 169.796694 
L 191.043251 169.796694 
L 191.508372 184.255519 
L 191.508372 184.255519 
L 191.740933 183.994355 
L 191.740933 183.994355 
L 191.973493 189.616862 
L 191.973493 189.616862 
L 192.206054 187.307143 
L 192.206054 187.307143 
L 192.671175 196.679097 
L 192.671175 196.679097 
L 192.903735 196.02286 
L 193.136296 200.865203 
L 193.136296 200.865203 
L 193.368856 200.83027 
L 193.368856 200.83027 
L 193.833978 213.576559 
L 193.833978 213.576559 
L 194.066538 217.710266 
L 194.066538 217.710266 
L 196.392144 291.736058 
L 196.392144 291.736058 
L 196.624704 292.038808 
L 196.624704 292.038808 
L 198.485189 248.520938 
L 198.485189 248.520938 
L 198.717749 244.572708 
L 198.717749 244.572708 
L 198.95031 235.438629 
L 198.95031 235.438629 
L 199.182871 232.137486 
L 199.182871 232.137486 
L 199.415431 227.229436 
L 199.415431 227.229436 
L 199.647992 217.922358 
L 199.647992 217.922358 
L 199.880552 214.213666 
L 199.880552 214.213666 
L 200.113113 202.739094 
L 200.113113 202.739094 
L 200.345673 201.664497 
L 200.345673 201.664497 
L 200.578234 199.95612 
L 200.578234 199.95612 
L 200.810794 191.711994 
L 200.810794 191.711994 
L 201.043355 193.511862 
L 201.275916 194.131502 
L 201.275916 194.131502 
L 201.508476 188.419168 
L 201.508476 188.419168 
L 201.741037 191.127287 
L 201.741037 191.127287 
L 201.973597 191.394273 
L 201.973597 191.394273 
L 202.206158 185.686929 
L 202.206158 185.686929 
L 202.438718 186.617637 
L 202.438718 186.617637 
L 202.671279 184.868505 
L 202.671279 184.868505 
L 203.1364 173.141087 
L 203.1364 173.141087 
L 203.368961 157.917069 
L 203.368961 157.917069 
L 203.601521 150.673517 
L 203.601521 150.673517 
L 203.834082 139.930869 
L 203.834082 139.930869 
L 204.066642 114.73106 
L 204.066642 114.73106 
L 204.531763 95.989648 
L 204.531763 95.989648 
L 204.764324 76.488033 
L 204.764324 76.488033 
L 204.996885 71.469363 
L 204.996885 71.469363 
L 205.229445 57.332418 
L 205.229445 57.332418 
L 205.462006 60.223518 
L 205.462006 60.223518 
L 205.694566 53.568 
L 205.694566 53.568 
L 205.927127 62.728694 
L 205.927127 62.728694 
L 206.159687 60.113729 
L 206.159687 60.113729 
L 206.392248 73.562832 
L 206.392248 73.562832 
L 206.624809 72.321056 
L 206.624809 72.321056 
L 207.08993 103.347979 
L 207.08993 103.347979 
L 207.32249 109.077779 
L 207.32249 109.077779 
L 207.555051 126.427704 
L 207.555051 126.427704 
L 207.787611 131.486296 
L 207.787611 131.486296 
L 208.252732 166.205276 
L 208.252732 166.205276 
L 208.485293 173.828098 
L 208.485293 173.828098 
L 208.950414 198.340065 
L 208.950414 198.340065 
L 209.182975 202.503714 
L 209.182975 202.503714 
L 209.415535 209.905295 
L 209.415535 209.905295 
L 209.648096 208.716751 
L 209.648096 208.716751 
L 209.880656 213.294602 
L 209.880656 213.294602 
L 210.113217 215.220061 
L 210.113217 215.220061 
L 210.345778 210.972407 
L 210.345778 210.972407 
L 210.578338 212.389678 
L 210.578338 212.389678 
L 210.810899 212.667477 
L 210.810899 212.667477 
L 211.043459 209.576761 
L 211.043459 209.576761 
L 211.50858 214.608738 
L 211.50858 214.608738 
L 211.741141 215.556913 
L 211.741141 215.556913 
L 212.903944 243.093888 
L 212.903944 243.093888 
L 214.531868 292.771564 
L 214.531868 292.771564 
L 214.764428 290.660629 
L 214.764428 290.660629 
L 215.69467 265.132285 
L 215.69467 265.132285 
L 216.392352 240.760049 
L 216.392352 240.760049 
L 216.624913 236.850078 
L 216.624913 236.850078 
L 216.857473 223.980692 
L 217.090034 221.958752 
L 217.090034 221.958752 
L 217.322594 217.710266 
L 217.322594 217.710266 
L 217.555155 206.873633 
L 217.555155 206.873633 
L 217.787716 204.161356 
L 217.787716 204.161356 
L 218.020276 191.455821 
L 218.020276 191.455821 
L 218.252837 190.361262 
L 218.252837 190.361262 
L 218.485397 186.783152 
L 218.485397 186.783152 
L 218.717958 175.92323 
L 218.717958 175.92323 
L 218.950518 173.932896 
L 218.950518 173.932896 
L 219.183079 161.138366 
L 219.183079 161.138366 
L 219.415639 161.294732 
L 219.415639 161.294732 
L 219.6482 158.999984 
L 219.6482 158.999984 
L 219.880761 149.234621 
L 219.880761 149.234621 
L 220.113321 149.093226 
L 220.113321 149.093226 
L 220.345882 138.07278 
L 220.578442 140.802524 
L 220.578442 140.802524 
L 220.811003 140.700221 
L 220.811003 140.700221 
L 221.043563 133.528198 
L 221.043563 133.528198 
L 221.276124 135.615845 
L 221.276124 135.615845 
L 221.508685 127.370888 
L 221.508685 127.370888 
L 221.741245 131.840614 
L 221.741245 131.840614 
L 221.973806 133.416746 
L 221.973806 133.416746 
L 222.206366 129.382015 
L 222.206366 129.382015 
L 222.438927 133.262875 
L 222.438927 133.262875 
L 222.671487 128.64011 
L 222.671487 128.64011 
L 222.904048 134.497165 
L 222.904048 134.497165 
L 223.136608 128.975298 
L 223.136608 128.975298 
L 223.60173 143.71608 
L 223.60173 143.71608 
L 223.83429 143.414994 
L 223.83429 143.414994 
L 224.066851 151.911965 
L 224.066851 151.911965 
L 224.299411 150.416512 
L 224.299411 150.416512 
L 224.764532 165.858444 
L 224.764532 165.858444 
L 224.997093 164.807967 
L 224.997093 164.807967 
L 225.229654 169.747622 
L 225.229654 169.747622 
L 225.462214 171.878518 
L 225.462214 171.878518 
L 225.694775 169.76592 
L 225.694775 169.76592 
L 225.927335 170.734887 
L 225.927335 170.734887 
L 226.159896 165.571496 
L 226.159896 165.571496 
L 226.392456 166.562921 
L 226.392456 166.562921 
L 226.625017 165.715386 
L 226.625017 165.715386 
L 226.857577 159.755196 
L 226.857577 159.755196 
L 227.090138 160.940414 
L 227.090138 160.940414 
L 227.322699 154.393021 
L 227.322699 154.393021 
L 227.78782 162.178031 
L 227.78782 162.178031 
L 228.02038 159.980595 
L 228.02038 159.980595 
L 228.252941 165.277063 
L 228.252941 165.277063 
L 228.485501 161.822881 
L 228.485501 161.822881 
L 228.950623 172.213706 
L 228.950623 172.213706 
L 229.183183 169.850756 
L 229.183183 169.850756 
L 229.415744 174.370387 
L 229.415744 174.370387 
L 229.648304 170.396372 
L 229.648304 170.396372 
L 230.113425 178.856748 
L 230.113425 178.856748 
L 230.345986 176.683433 
L 230.345986 176.683433 
L 230.578546 181.342794 
L 230.578546 181.342794 
L 230.811107 179.200253 
L 230.811107 179.200253 
L 231.276228 190.781287 
L 231.276228 190.781287 
L 231.508789 192.311673 
L 231.508789 192.311673 
L 231.741349 199.100268 
L 231.741349 199.100268 
L 231.97391 201.291881 
L 231.97391 201.291881 
L 232.439031 216.303808 
L 232.439031 216.303808 
L 232.671592 221.131179 
L 232.671592 221.131179 
L 233.369273 240.364145 
L 233.369273 240.364145 
L 233.601834 244.566054 
L 233.601834 244.566054 
L 234.066955 255.954957 
L 234.066955 255.954957 
L 235.462318 276.778194 
L 235.462318 276.778194 
L 235.694879 278.58222 
L 235.927439 282.256811 
L 235.927439 282.256811 
L 236.16 283.868707 
L 236.16 283.868707 
L 236.392561 287.147394 
L 236.392561 287.147394 
L 236.625121 288.206188 
L 236.625121 288.206188 
L 236.857682 295.488 
L 236.857682 295.488 
L 237.090242 292.528698 
L 237.090242 292.528698 
L 237.322803 295.488 
L 237.322803 295.488 
L 237.555363 293.214045 
L 237.555363 293.214045 
L 237.787924 295.488 
L 237.787924 295.488 
L 238.020485 294.267018 
L 238.020485 294.267018 
L 238.253045 295.211033 
L 238.253045 295.211033 
L 238.485606 294.978148 
L 238.485606 294.978148 
L 238.950727 295.336625 
L 238.950727 295.336625 
L 239.183287 294.499071 
L 239.183287 294.499071 
L 239.415848 294.299455 
L 239.415848 294.299455 
L 239.880969 292.644309 
L 239.880969 292.644309 
L 240.11353 292.309121 
L 240.34609 290.863571 
L 240.34609 290.863571 
L 240.578651 290.413604 
L 240.578651 290.413604 
L 240.811211 289.221733 
L 240.811211 289.221733 
L 241.043772 288.787569 
L 241.043772 288.787569 
L 241.276332 288.708554 
L 241.276332 288.708554 
L 241.508893 287.632293 
L 241.508893 287.632293 
L 241.741454 287.38111 
L 241.741454 287.38111 
L 242.206575 285.79583 
L 242.206575 285.79583 
L 242.439135 285.152069 
L 242.439135 285.152069 
L 242.904256 282.637744 
L 242.904256 282.637744 
L 243.369377 280.73391 
L 243.369377 280.73391 
L 243.834499 277.4153 
L 243.834499 277.4153 
L 244.067059 276.317414 
L 244.067059 276.317414 
L 244.53218 273.086136 
L 244.53218 273.086136 
L 245.694983 267.946866 
L 245.694983 267.946866 
L 245.927544 267.521019 
L 245.927544 267.521019 
L 246.392665 265.317762 
L 246.392665 265.317762 
L 246.857786 263.699211 
L 246.857786 263.699211 
L 247.322907 260.32238 
L 247.322907 260.32238 
L 248.020589 256.092193 
L 248.020589 256.092193 
L 248.48571 252.238779 
L 248.48571 252.238779 
L 249.183392 248.756318 
L 249.183392 248.756318 
L 249.648513 247.922923 
L 249.648513 247.922923 
L 249.881073 247.87801 
L 249.881073 247.87801 
L 250.113634 248.049346 
L 250.113634 248.049346 
L 250.346194 247.3981 
L 250.346194 247.3981 
L 251.043876 247.555298 
L 251.043876 247.555298 
L 251.276437 247.473788 
L 251.276437 247.473788 
L 251.508997 246.286907 
L 251.508997 246.286907 
L 252.206679 245.109175 
L 252.206679 245.109175 
L 252.439239 244.939501 
L 252.439239 244.939501 
L 252.6718 243.845774 
L 252.6718 243.845774 
L 252.904361 243.801692 
L 252.904361 243.801692 
L 253.136921 243.99299 
L 253.136921 243.99299 
L 253.602042 244.873794 
L 253.602042 244.873794 
L 253.834603 244.373092 
L 253.834603 244.373092 
L 254.532284 245.893498 
L 254.532284 245.893498 
L 254.764845 246.433291 
L 254.764845 246.433291 
L 254.997406 245.75543 
L 254.997406 245.75543 
L 255.229966 245.772065 
L 255.229966 245.772065 
L 255.927648 245.329583 
L 255.927648 245.329583 
L 256.160208 244.162664 
L 256.160208 244.162664 
L 256.392769 243.936433 
L 256.392769 243.936433 
L 256.62533 243.938928 
L 256.62533 243.938928 
L 257.090451 244.461255 
L 257.090451 244.461255 
L 257.323011 243.860745 
L 257.323011 243.860745 
L 257.788132 244.779809 
L 257.788132 244.779809 
L 258.253253 246.236171 
L 258.253253 246.236171 
L 258.485814 245.950055 
L 259.183496 247.320749 
L 259.183496 247.320749 
L 259.416056 247.597716 
L 259.416056 247.597716 
L 259.648617 246.733547 
L 259.648617 246.733547 
L 259.881177 246.768479 
L 259.881177 246.768479 
L 260.113738 246.926508 
L 260.113738 246.926508 
L 260.346299 247.266687 
L 260.346299 247.266687 
L 260.578859 247.039624 
L 260.578859 247.039624 
L 261.04398 248.164125 
L 261.04398 248.164125 
L 262.439344 253.464752 
L 262.439344 253.464752 
L 262.671904 254.501921 
L 262.671904 254.501921 
L 262.904465 254.540181 
L 262.904465 254.540181 
L 263.369586 255.266283 
L 263.369586 255.266283 
L 263.834707 255.627255 
L 263.834707 255.627255 
L 264.067268 254.86622 
L 264.067268 254.86622 
L 264.299828 254.777225 
L 264.299828 254.777225 
L 264.532389 254.828792 
L 264.532389 254.828792 
L 264.99751 255.541586 
L 264.99751 255.541586 
L 265.23007 255.040884 
L 265.23007 255.040884 
L 265.695191 255.679654 
L 265.695191 255.679654 
L 266.160313 256.542991 
L 266.160313 256.542991 
L 266.392873 255.784452 
L 266.392873 255.784452 
L 266.625434 255.597312 
L 266.625434 255.597312 
L 266.857994 255.206398 
L 266.857994 255.206398 
L 267.323115 253.719262 
L 267.323115 253.719262 
L 267.788237 250.47634 
L 267.788237 250.47634 
L 268.951039 245.021843 
L 268.951039 245.021843 
L 269.41616 244.219222 
L 269.41616 244.219222 
L 269.648721 244.161 
L 269.648721 244.161 
L 269.881282 243.372519 
L 269.881282 243.372519 
L 270.113842 243.379172 
L 270.113842 243.379172 
L 270.578963 243.746798 
L 270.578963 243.746798 
L 270.811524 244.032914 
L 271.044084 243.506427 
L 271.044084 243.506427 
L 271.974327 243.663625 
L 271.974327 243.663625 
L 272.206887 242.88346 
L 272.206887 242.88346 
L 273.137129 241.640853 
L 273.137129 241.640853 
L 273.36969 240.656914 
L 273.36969 240.656914 
L 274.067372 239.296201 
L 274.067372 239.296201 
L 274.299932 238.960181 
L 274.532493 238.146748 
L 274.532493 238.146748 
L 274.997614 237.670165 
L 274.997614 237.670165 
L 275.230175 237.642718 
L 275.230175 237.642718 
L 275.462735 237.769142 
L 275.462735 237.769142 
L 275.695296 237.630242 
L 275.695296 237.630242 
L 276.392977 238.965172 
L 276.392977 238.965172 
L 276.858098 240.392424 
L 276.858098 240.392424 
L 277.788341 244.766501 
L 277.788341 244.766501 
L 278.253462 247.381466 
L 278.253462 247.381466 
L 278.718583 248.767963 
L 278.718583 248.767963 
L 278.951144 249.139747 
L 278.951144 249.139747 
L 279.416265 252.747799 
L 279.416265 252.747799 
L 279.881386 256.715991 
L 279.881386 256.715991 
L 280.113946 259.63038 
L 280.113946 259.63038 
L 281.276749 290.886028 
L 281.276749 290.886028 
L 281.50931 289.491214 
L 281.50931 289.491214 
L 283.369794 218.092031 
L 283.369794 218.092031 
L 283.602355 212.844635 
L 283.602355 212.844635 
L 284.300036 191.287811 
L 284.300036 191.287811 
L 284.997718 172.049855 
L 284.997718 172.049855 
L 285.230279 168.68051 
L 285.230279 168.68051 
L 285.462839 169.097207 
L 285.462839 169.097207 
L 285.6954 171.669754 
L 285.6954 171.669754 
L 286.160521 183.729033 
L 286.160521 183.729033 
L 287.090763 238.766388 
L 287.090763 238.766388 
L 287.555884 281.951565 
L 287.555884 281.951565 
L 287.788445 288.246943 
L 287.788445 288.246943 
L 288.253566 247.186009 
L 288.253566 247.186009 
L 288.718687 223.536547 
L 288.718687 223.536547 
L 288.951248 218.026324 
L 288.951248 218.026324 
L 289.183808 215.934519 
L 289.416369 216.007711 
L 289.416369 216.007711 
L 289.648929 213.188972 
L 289.648929 213.188972 
L 290.114051 213.05839 
L 290.114051 213.05839 
L 290.346611 209.400434 
L 290.346611 209.400434 
L 290.811732 206.048555 
L 290.811732 206.048555 
L 291.276853 199.208393 
L 291.276853 199.208393 
L 291.509414 197.272121 
L 291.509414 197.272121 
L 291.741974 194.121521 
L 291.741974 194.121521 
L 291.974535 192.790751 
L 291.974535 192.790751 
L 292.207096 192.253452 
L 292.207096 192.253452 
L 292.672217 193.322227 
L 292.672217 193.322227 
L 293.137338 199.116071 
L 293.137338 199.116071 
L 294.765262 231.645932 
L 294.765262 231.645932 
L 295.462943 239.197225 
L 295.462943 239.197225 
L 296.160625 245.970017 
L 296.160625 245.970017 
L 297.090867 260.804785 
L 297.090867 260.804785 
L 297.555989 271.288764 
L 297.555989 271.288764 
L 298.486231 292.454674 
L 298.486231 292.454674 
L 298.718791 291.564721 
L 298.718791 291.564721 
L 299.649034 273.657536 
L 299.649034 273.657536 
L 300.346715 266.598628 
L 300.346715 266.598628 
L 300.579276 265.708675 
L 300.579276 265.708675 
L 300.811836 265.582252 
L 301.044397 266.205219 
L 301.044397 266.205219 
L 301.276958 266.112897 
L 301.276958 266.112897 
L 301.509518 267.446995 
L 301.509518 267.446995 
L 301.742079 269.46644 
L 301.742079 269.46644 
L 301.974639 269.984609 
L 301.974639 269.984609 
L 302.43976 273.562719 
L 302.43976 273.562719 
L 302.672321 273.665853 
L 302.672321 273.665853 
L 303.137442 276.867189 
L 303.137442 276.867189 
L 303.370003 276.769876 
L 303.370003 276.769876 
L 304.765366 286.667484 
L 304.765366 286.667484 
L 304.997927 289.858008 
L 305.230487 291.265298 
L 305.230487 291.265298 
L 305.463048 294.276167 
L 305.463048 294.276167 
L 305.928169 295.488 
L 305.928169 295.488 
L 306.160729 288.835809 
L 306.160729 288.835809 
L 306.39329 287.895952 
L 306.39329 287.895952 
L 306.62585 285.05143 
L 306.62585 285.05143 
L 306.858411 283.714005 
L 308.021214 268.761131 
L 308.021214 268.761131 
L 308.253774 263.874707 
L 308.253774 263.874707 
L 308.486335 261.333766 
L 308.486335 261.333766 
L 309.416577 241.376362 
L 309.416577 241.376362 
L 309.649138 240.809953 
L 309.649138 240.809953 
L 309.881698 235.560894 
L 309.881698 235.560894 
L 310.114259 236.257885 
L 310.114259 236.257885 
L 310.346819 233.311891 
L 310.346819 233.311891 
L 310.57938 235.720586 
L 310.57938 235.720586 
L 310.811941 235.724745 
L 310.811941 235.724745 
L 311.277062 242.260493 
L 311.277062 242.260493 
L 311.509622 243.89651 
L 311.509622 243.89651 
L 311.742183 251.75388 
L 311.742183 251.75388 
L 311.974743 254.492772 
L 311.974743 254.492772 
L 312.207304 261.938435 
L 312.207304 261.938435 
L 312.439865 264.980078 
L 312.439865 264.980078 
L 312.672425 271.327024 
L 312.672425 271.327024 
L 312.904986 274.001873 
L 312.904986 274.001873 
L 313.137546 278.800134 
L 313.137546 278.800134 
L 313.370107 280.579208 
L 313.370107 280.579208 
L 313.602667 280.231544 
L 313.602667 280.231544 
L 313.835228 284.638059 
L 313.835228 284.638059 
L 314.067788 283.999289 
L 314.300349 287.305423 
L 314.53291 286.650018 
L 314.53291 286.650018 
L 314.76547 289.392238 
L 314.76547 289.392238 
L 314.998031 289.291598 
L 314.998031 289.291598 
L 315.463152 295.488 
L 315.463152 295.488 
L 315.695712 292.564463 
L 315.695712 292.564463 
L 315.928273 294.222104 
L 316.160834 293.624921 
L 316.160834 293.624921 
L 316.393394 289.704969 
L 316.393394 289.704969 
L 316.625955 288.571319 
L 316.625955 288.571319 
L 316.858515 285.136266 
L 316.858515 285.136266 
L 317.091076 283.79801 
L 317.091076 283.79801 
L 317.323636 281.133141 
L 317.323636 281.133141 
L 317.556197 279.949587 
L 317.556197 279.949587 
L 317.788757 279.464687 
L 318.021318 277.008583 
L 318.021318 277.008583 
L 318.253879 276.634304 
L 318.253879 276.634304 
L 318.486439 275.008268 
L 318.486439 275.008268 
L 318.719 274.53834 
L 318.719 274.53834 
L 318.95156 274.334566 
L 318.95156 274.334566 
L 319.184121 272.686073 
L 319.416681 272.211154 
L 319.881803 270.073604 
L 319.881803 270.073604 
L 320.114363 269.326709 
L 320.114363 269.326709 
L 320.579484 266.937975 
L 320.579484 266.937975 
L 321.044605 265.340218 
L 321.044605 265.340218 
L 321.509726 264.833694 
L 321.509726 264.833694 
L 321.742287 264.99505 
L 321.742287 264.99505 
L 322.207408 265.835099 
L 322.207408 265.835099 
L 322.672529 267.570091 
L 322.672529 267.570091 
L 324.067893 274.396946 
L 324.067893 274.396946 
L 324.998135 281.095713 
L 324.998135 281.095713 
L 326.626059 295.232658 
L 326.626059 295.232658 
L 327.09118 293.72057 
L 327.09118 293.72057 
L 327.323741 295.488 
L 327.323741 295.488 
L 327.556301 294.259532 
L 327.556301 294.259532 
L 327.788862 295.349101 
L 327.788862 295.349101 
L 328.486543 287.418538 
L 328.486543 287.418538 
L 329.184225 276.288304 
L 329.184225 276.288304 
L 329.881907 264.599145 
L 329.881907 264.599145 
L 330.579588 257.696603 
L 330.579588 257.696603 
L 331.04471 255.356942 
L 331.04471 255.356942 
L 331.742391 259.769279 
L 331.742391 259.769279 
L 332.207512 265.664594 
L 332.207512 265.664594 
L 333.137755 291.670351 
L 333.137755 291.670351 
L 333.370315 291.898246 
L 333.370315 291.898246 
L 333.835436 275.577173 
L 333.835436 275.577173 
L 334.533118 257.986046 
L 334.533118 257.986046 
L 334.998239 250.696749 
L 334.998239 250.696749 
L 335.46336 246.361763 
L 335.46336 246.361763 
L 335.928481 245.15991 
L 335.928481 245.15991 
L 336.161042 244.235024 
L 336.161042 244.235024 
L 336.393603 245.057607 
L 336.626163 244.60265 
L 336.626163 244.60265 
L 336.858724 243.418264 
L 336.858724 243.418264 
L 337.091284 244.897083 
L 337.091284 244.897083 
L 337.323845 243.927284 
L 337.323845 243.927284 
L 337.556405 241.895363 
L 337.556405 241.895363 
L 337.788966 244.273284 
L 337.788966 244.273284 
L 338.021526 243.446543 
L 338.021526 243.446543 
L 338.254087 246.035724 
L 338.254087 246.035724 
L 338.486648 246.877436 
L 338.486648 246.877436 
L 338.719208 247.093687 
L 338.719208 247.093687 
L 338.951769 252.941593 
L 338.951769 252.941593 
L 339.41689 258.719633 
L 339.41689 258.719633 
L 339.64945 267.100994 
L 339.64945 267.100994 
L 339.882011 271.208918 
L 339.882011 271.208918 
L 340.347132 283.330577 
L 340.347132 283.330577 
L 340.579693 286.857119 
L 340.579693 286.857119 
L 340.812253 293.894402 
L 340.812253 293.894402 
L 341.044814 294.113147 
L 341.044814 294.113147 
L 341.277374 289.180146 
L 341.277374 289.180146 
L 341.509935 286.887893 
L 341.509935 286.887893 
L 341.742495 286.032873 
L 341.742495 286.032873 
L 341.975056 282.152013 
L 341.975056 282.152013 
L 342.207617 281.895839 
L 342.207617 281.895839 
L 342.440177 279.678442 
L 342.440177 279.678442 
L 342.672738 279.495461 
L 342.672738 279.495461 
L 342.905298 280.278121 
L 342.905298 280.278121 
L 343.137859 277.880238 
L 343.137859 277.880238 
L 343.370419 278.311075 
L 343.370419 278.311075 
L 343.60298 276.846396 
L 343.60298 276.846396 
L 343.835541 276.984463 
L 344.068101 277.960085 
L 344.068101 277.960085 
L 344.300662 276.111145 
L 344.300662 276.111145 
L 344.533222 276.717477 
L 344.533222 276.717477 
L 344.765783 278.141402 
L 344.765783 278.141402 
L 344.998343 276.059577 
L 344.998343 276.059577 
L 345.230904 277.233151 
L 345.230904 277.233151 
L 345.463464 276.055419 
L 345.463464 276.055419 
L 345.696025 276.710823 
L 345.696025 276.710823 
L 345.928586 277.935964 
L 345.928586 277.935964 
L 346.161146 276.154395 
L 346.161146 276.154395 
L 346.393707 276.726626 
L 346.393707 276.726626 
L 346.626267 275.460731 
L 346.626267 275.460731 
L 346.858828 275.414154 
L 346.858828 275.414154 
L 347.091388 275.898221 
L 347.091388 275.898221 
L 347.323949 274.206479 
L 347.323949 274.206479 
L 347.55651 274.459325 
L 347.55651 274.459325 
L 347.78907 275.460731 
L 347.78907 275.460731 
L 348.021631 274.149921 
L 348.021631 274.149921 
L 348.254191 275.650365 
L 348.254191 275.650365 
L 348.486752 275.60462 
L 348.486752 275.60462 
L 348.719312 277.546714 
L 348.719312 277.546714 
L 348.951873 278.41421 
L 348.951873 278.41421 
L 349.882115 287.707149 
L 349.882115 287.707149 
L 350.114676 295.488 
L 350.114676 295.488 
L 350.347236 290.839451 
L 350.347236 290.839451 
L 350.579797 295.488 
L 350.579797 295.488 
L 350.812357 291.212899 
L 350.812357 291.212899 
L 351.044918 291.429981 
L 351.044918 291.429981 
L 351.510039 289.610152 
L 351.510039 289.610152 
L 352.207721 282.231859 
L 352.207721 282.231859 
L 352.440281 279.146134 
L 352.440281 279.146134 
L 353.137963 262.884946 
L 353.137963 262.884946 
L 353.370524 257.052011 
L 353.370524 257.052011 
L 353.603084 246.315186 
L 353.603084 246.315186 
L 354.068205 235.057696 
L 354.068205 235.057696 
L 354.300766 223.290355 
L 354.300766 223.290355 
L 354.533326 219.829519 
L 354.533326 219.829519 
L 354.765887 206.491036 
L 354.765887 206.491036 
L 354.998448 205.371525 
L 354.998448 205.371525 
L 355.231008 200.971664 
L 355.231008 200.971664 
L 355.463569 190.578344 
L 355.463569 190.578344 
L 355.696129 187.232287 
L 355.696129 187.232287 
L 355.92869 175.029118 
L 355.92869 175.029118 
L 356.16125 173.679218 
L 356.16125 173.679218 
L 356.393811 170.187608 
L 356.393811 170.187608 
L 356.626371 162.121473 
L 356.626371 162.121473 
L 356.858932 161.19326 
L 356.858932 161.19326 
L 357.091493 152.676327 
L 357.091493 152.676327 
L 357.324053 154.704089 
L 357.324053 154.704089 
L 357.556614 154.778945 
L 357.556614 154.778945 
L 357.789174 149.726174 
L 357.789174 149.726174 
L 358.021735 151.696547 
L 358.021735 151.696547 
L 358.254295 144.823947 
L 358.254295 144.823947 
L 358.486856 149.213827 
L 358.486856 149.213827 
L 358.719417 150.950483 
L 358.719417 150.950483 
L 358.951977 145.659838 
L 358.951977 145.659838 
L 359.184538 148.13424 
L 359.184538 148.13424 
L 359.417098 139.519162 
L 359.417098 139.519162 
L 359.649659 143.362594 
L 359.649659 143.362594 
L 359.882219 144.658433 
L 359.882219 144.658433 
L 360.11478 138.363055 
L 360.11478 138.363055 
L 360.34734 140.809178 
L 360.34734 140.809178 
L 360.579901 132.077658 
L 360.579901 132.077658 
L 360.812462 135.323907 
L 360.812462 135.323907 
L 361.045022 135.535167 
L 361.045022 135.535167 
L 361.277583 127.721878 
L 361.277583 127.721878 
L 361.510143 128.771524 
L 361.510143 128.771524 
L 361.742704 118.686776 
L 361.742704 118.686776 
L 361.975264 121.521318 
L 361.975264 121.521318 
L 362.207825 121.768342 
L 362.207825 121.768342 
L 362.440386 114.479877 
L 362.440386 114.479877 
L 362.672946 116.810389 
L 362.672946 116.810389 
L 362.905507 108.85737 
L 362.905507 108.85737 
L 363.370628 116.866115 
L 363.370628 116.866115 
L 363.603188 112.754033 
L 363.603188 112.754033 
L 363.835749 118.134506 
L 363.835749 118.134506 
L 364.068309 113.317116 
L 364.068309 113.317116 
L 364.533431 127.161291 
L 364.533431 127.161291 
L 364.765991 126.302112 
L 364.765991 126.302112 
L 364.998552 134.186929 
L 364.998552 134.186929 
L 365.231112 133.453342 
L 365.231112 133.453342 
L 365.696233 153.153741 
L 365.696233 153.153741 
L 365.928794 157.651746 
L 365.928794 157.651746 
L 366.626476 184.614827 
L 366.626476 184.614827 
L 367.324157 210.554878 
L 367.324157 210.554878 
L 368.719521 251.545115 
L 368.719521 251.545115 
L 369.417202 267.0461 
L 369.417202 267.0461 
L 370.114884 277.517603 
L 370.114884 277.517603 
L 370.580005 281.865897 
L 370.580005 281.865897 
L 371.045126 283.867044 
L 371.045126 283.867044 
L 371.277687 284.104087 
L 371.510247 283.616692 
L 371.510247 283.616692 
L 371.742808 283.67325 
L 371.742808 283.67325 
L 371.975369 282.543758 
L 371.975369 282.543758 
L 372.207929 282.844845 
L 372.207929 282.844845 
L 372.44049 281.441714 
L 372.44049 281.441714 
L 372.67305 282.559561 
L 372.67305 282.559561 
L 372.905611 281.134805 
L 372.905611 281.134805 
L 373.138171 282.676004 
L 373.138171 282.676004 
L 373.370732 280.559246 
L 373.370732 280.559246 
L 373.603293 281.791041 
L 373.603293 281.791041 
L 373.835853 278.711138 
L 373.835853 278.711138 
L 374.068414 279.349908 
L 374.300974 275.108076 
L 374.300974 275.108076 
L 374.533535 274.77871 
L 374.533535 274.77871 
L 374.766095 269.206108 
L 374.766095 269.206108 
L 374.998656 267.975145 
L 374.998656 267.975145 
L 375.231216 261.81118 
L 375.231216 261.81118 
L 375.463777 260.174332 
L 375.463777 260.174332 
L 375.696338 253.760848 
L 375.696338 253.760848 
L 375.928898 251.93187 
L 375.928898 251.93187 
L 376.161459 245.703031 
L 376.161459 245.703031 
L 376.394019 244.343981 
L 376.394019 244.343981 
L 376.62658 239.163956 
L 376.62658 239.163956 
L 376.85914 238.367157 
L 376.85914 238.367157 
L 377.091701 233.985594 
L 377.091701 233.985594 
L 377.324262 233.908243 
L 377.324262 233.908243 
L 377.556822 230.752652 
L 377.556822 230.752652 
L 377.789383 231.525331 
L 377.789383 231.525331 
L 378.021943 230.084772 
L 378.021943 230.084772 
L 378.254504 232.656486 
L 378.254504 232.656486 
L 378.487064 233.770175 
L 378.487064 233.770175 
L 378.719625 233.886618 
L 378.952185 242.925047 
L 378.952185 242.925047 
L 379.184746 246.262786 
L 379.184746 246.262786 
L 379.417307 258.894297 
L 379.417307 258.894297 
L 379.649867 265.219617 
L 379.649867 265.219617 
L 380.114988 288.971382 
L 380.114988 288.971382 
L 380.347549 286.080282 
L 380.347549 286.080282 
L 380.580109 277.211526 
L 380.580109 277.211526 
L 381.045231 255.808572 
L 381.045231 255.808572 
L 381.277791 245.496762 
L 381.277791 245.496762 
L 381.975473 233.07152 
L 381.975473 233.07152 
L 382.208033 230.359243 
L 382.208033 230.359243 
L 382.440594 230.275238 
L 382.440594 230.275238 
L 382.673154 229.830262 
L 382.673154 229.830262 
L 382.905715 230.262762 
L 382.905715 230.262762 
L 383.138276 230.092257 
L 383.138276 230.092257 
L 383.370836 231.398076 
L 383.370836 231.398076 
L 383.603397 231.291614 
L 383.603397 231.291614 
L 383.835957 233.677853 
L 383.835957 233.677853 
L 384.068518 234.765758 
L 384.068518 234.765758 
L 384.99876 246.831691 
L 384.99876 246.831691 
L 385.463881 255.774471 
L 385.463881 255.774471 
L 386.394123 277.960916 
L 386.394123 277.960916 
L 387.091805 295.488 
L 387.091805 295.488 
L 387.556926 284.040876 
L 387.556926 284.040876 
L 388.022047 275.036547 
L 388.022047 275.036547 
L 388.719729 267.443668 
L 388.719729 267.443668 
L 388.95229 266.160306 
L 388.95229 266.160306 
L 389.18485 266.652691 
L 389.18485 266.652691 
L 389.417411 267.407072 
L 389.417411 267.407072 
L 389.882532 271.055879 
L 389.882532 271.055879 
L 391.277895 293.199906 
L 391.277895 293.199906 
L 392.673259 264.179121 
L 392.673259 264.179121 
L 393.37094 253.523805 
L 393.37094 253.523805 
L 394.068622 245.883517 
L 394.068622 245.883517 
L 394.301183 244.106938 
L 394.301183 244.106938 
L 394.766304 242.696321 
L 394.766304 242.696321 
L 394.998864 242.608157 
L 394.998864 242.608157 
L 395.231425 243.151278 
L 395.231425 243.151278 
L 395.463985 244.361448 
L 395.463985 244.361448 
L 395.929107 250.542046 
L 395.929107 250.542046 
L 396.394228 260.13025 
L 396.394228 260.13025 
L 396.859349 274.373657 
L 396.859349 274.373657 
L 397.091909 282.701787 
L 397.091909 282.701787 
L 397.32447 295.488 
L 397.32447 295.488 
L 397.789591 280.069356 
L 397.789591 280.069356 
L 398.254712 244.711607 
L 398.254712 244.711607 
L 398.487273 206.38707 
L 398.487273 206.38707 
" clip-path="url(#p52fbc84530)" style="fill: none; stroke: #1f77b4; stroke-width: 1.5; stroke-linecap: square"/>
   </g>
   <g id="patch_3">
    <path d="M 57.6 307.584 
L 57.6 41.472 
" style="fill: none; stroke: #000000; stroke-width: 0.8; stroke-linejoin: miter; stroke-linecap: square"/>
   </g>
   <g id="patch_4">
    <path d="M 414.72 307.584 
L 414.72 41.472 
" style="fill: none; stroke: #000000; stroke-width: 0.8; stroke-linejoin: miter; stroke-linecap: square"/>
   </g>
   <g id="patch_5">
    <path d="M 57.6 307.584 
L 414.72 307.584 
" style="fill: none; stroke: #000000; stroke-width: 0.8; stroke-linejoin: miter; stroke-linecap: square"/>
   </g>
   <g id="patch_6">
    <path d="M 57.6 41.472 
L 414.72 41.472 
" style="fill: none; stroke: #000000; stroke-width: 0.8; stroke-linejoin: miter; stroke-linecap: square"/>
   </g>
   <g id="text_16">
    <!-- Tracking error vs Time -->
    <g transform="translate(169.584375 35.472) scale(0.12 -0.12)">
     <defs>
      <path id="DejaVuSans-76" d="M 191 3500 
L 800 3500 
L 1894 563 
L 2988 3500 
L 3597 3500 
L 2284 0 
L 1503 0 
L 191 3500 
z
" transform="scale(0.015625)"/>
     </defs>
     <use xlink:href="#DejaVuSans-54"/>
     <use xlink:href="#DejaVuSans-72" x="46.333984"/>
     <use xlink:href="#DejaVuSans-61" x="87.447266"/>
     <use xlink:href="#DejaVuSans-63" x="148.726562"/>
     <use xlink:href="#DejaVuSans-6b" x="203.707031"/>
     <use xlink:href="#DejaVuSans-69" x="261.617188"/>
     <use xlink:href="#DejaVuSans-6e" x="289.400391"/>
     <use xlink:href="#DejaVuSans-67" x="352.779297"/>
     <use xlink:href="#DejaVuSans-20" x="416.255859"/>
     <use xlink:href="#DejaVuSans-65" x="448.042969"/>
     <use xlink:href="#DejaVuSans-72" x="509.566406"/>
     <use xlink:href="#DejaVuSans-72" x="548.929688"/>
     <use xlink:href="#DejaVuSans-6f" x="587.792969"/>
     <use xlink:href="#DejaVuSans-72" x="648.974609"/>
     <use xlink:href="#DejaVuSans-20" x="690.087891"/>
     <use xlink:href="#DejaVuSans-76" x="721.875"/>
     <use xlink:href="#DejaVuSans-73" x="781.054688"/>
     <use xlink:href="#DejaVuSans-20" x="833.154297"/>
     <use xlink:href="#DejaVuSans-54" x="864.941406"/>
     <use xlink:href="#DejaVuSans-69" x="922.900391"/>
     <use xlink:href="#DejaVuSans-6d" x="950.683594"/>
     <use xlink:href="#DejaVuSans-65" x="1048.095703"/>
    </g>
   </g>
   <g id="legend_1">
    <g id="patch_7">
     <path d="M 311.00125 64.150125 
L 407.72 64.150125 
Q 409.72 64.150125 409.72 62.150125 
L 409.72 48.472 
Q 409.72 46.472 407.72 46.472 
L 311.00125 46.472 
Q 309.00125 46.472 309.00125 48.472 
L 309.00125 62.150125 
Q 309.00125 64.150125 311.00125 64.150125 
z
" style="fill: #ffffff; opacity: 0.8; stroke: #cccccc; stroke-linejoin: miter"/>
    </g>
    <g id="line2d_28">
     <path d="M 313.00125 54.570438 
L 323.00125 54.570438 
L 333.00125 54.570438 
" style="fill: none; stroke: #1f77b4; stroke-width: 1.5; stroke-linecap: square"/>
    </g>
    <g id="text_17">
     <!-- Actual speed -->
     <g transform="translate(341.00125 58.070438) scale(0.1 -0.1)">
      <defs>
       <path id="DejaVuSans-41" d="M 2188 4044 
L 1331 1722 
L 3047 1722 
L 2188 4044 
z
M 1831 4666 
L 2547 4666 
L 4325 0 
L 3669 0 
L 3244 1197 
L 1141 1197 
L 716 0 
L 50 0 
L 1831 4666 
z
" transform="scale(0.015625)"/>
       <path id="DejaVuSans-74" d="M 1172 4494 
L 1172 3500 
L 2356 3500 
L 2356 3053 
L 1172 3053 
L 1172 1153 
Q 1172 725 1289 603 
Q 1406 481 1766 481 
L 2356 481 
L 2356 0 
L 1766 0 
Q 1100 0 847 248 
Q 594 497 594 1153 
L 594 3053 
L 172 3053 
L 172 3500 
L 594 3500 
L 594 4494 
L 1172 4494 
z
" transform="scale(0.015625)"/>
       <path id="DejaVuSans-75" d="M 544 1381 
L 544 3500 
L 1119 3500 
L 1119 1403 
Q 1119 906 1312 657 
Q 1506 409 1894 409 
Q 2359 409 2629 706 
Q 2900 1003 2900 1516 
L 2900 3500 
L 3475 3500 
L 3475 0 
L 2900 0 
L 2900 538 
Q 2691 219 2414 64 
Q 2138 -91 1772 -91 
Q 1169 -91 856 284 
Q 544 659 544 1381 
z
M 1991 3584 
L 1991 3584 
z
" transform="scale(0.015625)"/>
       <path id="DejaVuSans-6c" d="M 603 4863 
L 1178 4863 
L 1178 0 
L 603 0 
L 603 4863 
z
" transform="scale(0.015625)"/>
       <path id="DejaVuSans-70" d="M 1159 525 
L 1159 -1331 
L 581 -1331 
L 581 3500 
L 1159 3500 
L 1159 2969 
Q 1341 3281 1617 3432 
Q 1894 3584 2278 3584 
Q 2916 3584 3314 3078 
Q 3713 2572 3713 1747 
Q 3713 922 3314 415 
Q 2916 -91 2278 -91 
Q 1894 -91 1617 61 
Q 1341 213 1159 525 
z
M 3116 1747 
Q 3116 2381 2855 2742 
Q 2594 3103 2138 3103 
Q 1681 3103 1420 2742 
Q 1159 2381 1159 1747 
Q 1159 1113 1420 752 
Q 1681 391 2138 391 
Q 2594 391 2855 752 
Q 3116 1113 3116 1747 
z
" transform="scale(0.015625)"/>
       <path id="DejaVuSans-64" d="M 2906 2969 
L 2906 4863 
L 3481 4863 
L 3481 0 
L 2906 0 
L 2906 525 
Q 2725 213 2448 61 
Q 2172 -91 1784 -91 
Q 1150 -91 751 415 
Q 353 922 353 1747 
Q 353 2572 751 3078 
Q 1150 3584 1784 3584 
Q 2172 3584 2448 3432 
Q 2725 3281 2906 2969 
z
M 947 1747 
Q 947 1113 1208 752 
Q 1469 391 1925 391 
Q 2381 391 2643 752 
Q 2906 1113 2906 1747 
Q 2906 2381 2643 2742 
Q 2381 3103 1925 3103 
Q 1469 3103 1208 2742 
Q 947 2381 947 1747 
z
" transform="scale(0.015625)"/>
      </defs>
      <use xlink:href="#DejaVuSans-41"/>
      <use xlink:href="#DejaVuSans-63" x="66.658203"/>
      <use xlink:href="#DejaVuSans-74" x="121.638672"/>
      <use xlink:href="#DejaVuSans-75" x="160.847656"/>
      <use xlink:href="#DejaVuSans-61" x="224.226562"/>
      <use xlink:href="#DejaVuSans-6c" x="285.505859"/>
      <use xlink:href="#DejaVuSans-20" x="313.289062"/>
      <use xlink:href="#DejaVuSans-73" x="345.076172"/>
      <use xlink:href="#DejaVuSans-70" x="397.175781"/>
      <use xlink:href="#DejaVuSans-65" x="460.652344"/>
      <use xlink:href="#DejaVuSans-65" x="522.175781"/>
      <use xlink:href="#DejaVuSans-64" x="583.699219"/>
     </g>
    </g>
   </g>
  </g>
 </g>
 <defs>
  <clipPath id="p52fbc84530">
   <rect x="57.6" y="41.472" width="357.12" height="266.112"/>
  </clipPath>
 </defs>
</svg>
