<?xml version="1.0" encoding="utf-8" standalone="no"?>
<!DOCTYPE svg PUBLIC "-//W3C//DTD SVG 1.1//EN"
  "http://www.w3.org/Graphics/SVG/1.1/DTD/svg11.dtd">
<svg xmlns:xlink="http://www.w3.org/1999/xlink" width="460.8pt" height="345.6pt" viewBox="0 0 460.8 345.6" xmlns="http://www.w3.org/2000/svg" version="1.1">
 <metadata>
  <rdf:RDF xmlns:dc="http://purl.org/dc/elements/1.1/" xmlns:cc="http://creativecommons.org/ns#" xmlns:rdf="http://www.w3.org/1999/02/22-rdf-syntax-ns#">
   <cc:Work>
    <dc:type rdf:resource="http://purl.org/dc/dcmitype/StillImage"/>
    <dc:date>2024-01-30T20:59:18.896345</dc:date>
    <dc:format>image/svg+xml</dc:format>
    <dc:creator>
     <cc:Agent>
      <dc:title>Matplotlib v3.7.1, https://matplotlib.org/</dc:title>
     </cc:Agent>
    </dc:creator>
   </cc:Work>
  </rdf:RDF>
 </metadata>
 <defs>
  <style type="text/css">*{stroke-linejoin: round; stroke-linecap: butt}</style>
 </defs>
 <g id="figure_1">
  <g id="patch_1">
   <path d="M 0 345.6 
L 460.8 345.6 
L 460.8 0 
L 0 0 
z
" style="fill: #ffffff"/>
  </g>
  <g id="axes_1">
   <g id="patch_2">
    <path d="M 57.6 307.584 
L 414.72 307.584 
L 414.72 41.472 
L 57.6 41.472 
z
" style="fill: #ffffff"/>
   </g>
   <g id="matplotlib.axis_1">
    <g id="xtick_1">
     <g id="line2d_1">
      <path d="M 73.832727 307.584 
L 73.832727 41.472 
" clip-path="url(#p573f2bf246)" style="fill: none; stroke: #b0b0b0; stroke-width: 0.8; stroke-linecap: square"/>
     </g>
     <g id="line2d_2">
      <defs>
       <path id="m6267a5d090" d="M 0 0 
L 0 3.5 
" style="stroke: #000000; stroke-width: 0.8"/>
      </defs>
      <g>
       <use xlink:href="#m6267a5d090" x="73.832727" y="307.584" style="stroke: #000000; stroke-width: 0.8"/>
      </g>
     </g>
     <g id="text_1">
      <!-- 0 -->
      <g transform="translate(70.651477 322.182437) scale(0.1 -0.1)">
       <defs>
        <path id="DejaVuSans-30" d="M 2034 4250 
Q 1547 4250 1301 3770 
Q 1056 3291 1056 2328 
Q 1056 1369 1301 889 
Q 1547 409 2034 409 
Q 2525 409 2770 889 
Q 3016 1369 3016 2328 
Q 3016 3291 2770 3770 
Q 2525 4250 2034 4250 
z
M 2034 4750 
Q 2819 4750 3233 4129 
Q 3647 3509 3647 2328 
Q 3647 1150 3233 529 
Q 2819 -91 2034 -91 
Q 1250 -91 836 529 
Q 422 1150 422 2328 
Q 422 3509 836 4129 
Q 1250 4750 2034 4750 
z
" transform="scale(0.015625)"/>
       </defs>
       <use xlink:href="#DejaVuSans-30"/>
      </g>
     </g>
    </g>
    <g id="xtick_2">
     <g id="line2d_3">
      <path d="M 131.93125 307.584 
L 131.93125 41.472 
" clip-path="url(#p573f2bf246)" style="fill: none; stroke: #b0b0b0; stroke-width: 0.8; stroke-linecap: square"/>
     </g>
     <g id="line2d_4">
      <g>
       <use xlink:href="#m6267a5d090" x="131.93125" y="307.584" style="stroke: #000000; stroke-width: 0.8"/>
      </g>
     </g>
     <g id="text_2">
      <!-- 5 -->
      <g transform="translate(128.75 322.182437) scale(0.1 -0.1)">
       <defs>
        <path id="DejaVuSans-35" d="M 691 4666 
L 3169 4666 
L 3169 4134 
L 1269 4134 
L 1269 2991 
Q 1406 3038 1543 3061 
Q 1681 3084 1819 3084 
Q 2600 3084 3056 2656 
Q 3513 2228 3513 1497 
Q 3513 744 3044 326 
Q 2575 -91 1722 -91 
Q 1428 -91 1123 -41 
Q 819 9 494 109 
L 494 744 
Q 775 591 1075 516 
Q 1375 441 1709 441 
Q 2250 441 2565 725 
Q 2881 1009 2881 1497 
Q 2881 1984 2565 2268 
Q 2250 2553 1709 2553 
Q 1456 2553 1204 2497 
Q 953 2441 691 2322 
L 691 4666 
z
" transform="scale(0.015625)"/>
       </defs>
       <use xlink:href="#DejaVuSans-35"/>
      </g>
     </g>
    </g>
    <g id="xtick_3">
     <g id="line2d_5">
      <path d="M 190.029773 307.584 
L 190.029773 41.472 
" clip-path="url(#p573f2bf246)" style="fill: none; stroke: #b0b0b0; stroke-width: 0.8; stroke-linecap: square"/>
     </g>
     <g id="line2d_6">
      <g>
       <use xlink:href="#m6267a5d090" x="190.029773" y="307.584" style="stroke: #000000; stroke-width: 0.8"/>
      </g>
     </g>
     <g id="text_3">
      <!-- 10 -->
      <g transform="translate(183.667273 322.182437) scale(0.1 -0.1)">
       <defs>
        <path id="DejaVuSans-31" d="M 794 531 
L 1825 531 
L 1825 4091 
L 703 3866 
L 703 4441 
L 1819 4666 
L 2450 4666 
L 2450 531 
L 3481 531 
L 3481 0 
L 794 0 
L 794 531 
z
" transform="scale(0.015625)"/>
       </defs>
       <use xlink:href="#DejaVuSans-31"/>
       <use xlink:href="#DejaVuSans-30" x="63.623047"/>
      </g>
     </g>
    </g>
    <g id="xtick_4">
     <g id="line2d_7">
      <path d="M 248.128296 307.584 
L 248.128296 41.472 
" clip-path="url(#p573f2bf246)" style="fill: none; stroke: #b0b0b0; stroke-width: 0.8; stroke-linecap: square"/>
     </g>
     <g id="line2d_8">
      <g>
       <use xlink:href="#m6267a5d090" x="248.128296" y="307.584" style="stroke: #000000; stroke-width: 0.8"/>
      </g>
     </g>
     <g id="text_4">
      <!-- 15 -->
      <g transform="translate(241.765796 322.182437) scale(0.1 -0.1)">
       <use xlink:href="#DejaVuSans-31"/>
       <use xlink:href="#DejaVuSans-35" x="63.623047"/>
      </g>
     </g>
    </g>
    <g id="xtick_5">
     <g id="line2d_9">
      <path d="M 306.226819 307.584 
L 306.226819 41.472 
" clip-path="url(#p573f2bf246)" style="fill: none; stroke: #b0b0b0; stroke-width: 0.8; stroke-linecap: square"/>
     </g>
     <g id="line2d_10">
      <g>
       <use xlink:href="#m6267a5d090" x="306.226819" y="307.584" style="stroke: #000000; stroke-width: 0.8"/>
      </g>
     </g>
     <g id="text_5">
      <!-- 20 -->
      <g transform="translate(299.864319 322.182437) scale(0.1 -0.1)">
       <defs>
        <path id="DejaVuSans-32" d="M 1228 531 
L 3431 531 
L 3431 0 
L 469 0 
L 469 531 
Q 828 903 1448 1529 
Q 2069 2156 2228 2338 
Q 2531 2678 2651 2914 
Q 2772 3150 2772 3378 
Q 2772 3750 2511 3984 
Q 2250 4219 1831 4219 
Q 1534 4219 1204 4116 
Q 875 4013 500 3803 
L 500 4441 
Q 881 4594 1212 4672 
Q 1544 4750 1819 4750 
Q 2544 4750 2975 4387 
Q 3406 4025 3406 3419 
Q 3406 3131 3298 2873 
Q 3191 2616 2906 2266 
Q 2828 2175 2409 1742 
Q 1991 1309 1228 531 
z
" transform="scale(0.015625)"/>
       </defs>
       <use xlink:href="#DejaVuSans-32"/>
       <use xlink:href="#DejaVuSans-30" x="63.623047"/>
      </g>
     </g>
    </g>
    <g id="xtick_6">
     <g id="line2d_11">
      <path d="M 364.325341 307.584 
L 364.325341 41.472 
" clip-path="url(#p573f2bf246)" style="fill: none; stroke: #b0b0b0; stroke-width: 0.8; stroke-linecap: square"/>
     </g>
     <g id="line2d_12">
      <g>
       <use xlink:href="#m6267a5d090" x="364.325341" y="307.584" style="stroke: #000000; stroke-width: 0.8"/>
      </g>
     </g>
     <g id="text_6">
      <!-- 25 -->
      <g transform="translate(357.962841 322.182437) scale(0.1 -0.1)">
       <use xlink:href="#DejaVuSans-32"/>
       <use xlink:href="#DejaVuSans-35" x="63.623047"/>
      </g>
     </g>
    </g>
    <g id="text_7">
     <!-- Time(s) -->
     <g transform="translate(217.420156 335.860562) scale(0.1 -0.1)">
      <defs>
       <path id="DejaVuSans-54" d="M -19 4666 
L 3928 4666 
L 3928 4134 
L 2272 4134 
L 2272 0 
L 1638 0 
L 1638 4134 
L -19 4134 
L -19 4666 
z
" transform="scale(0.015625)"/>
       <path id="DejaVuSans-69" d="M 603 3500 
L 1178 3500 
L 1178 0 
L 603 0 
L 603 3500 
z
M 603 4863 
L 1178 4863 
L 1178 4134 
L 603 4134 
L 603 4863 
z
" transform="scale(0.015625)"/>
       <path id="DejaVuSans-6d" d="M 3328 2828 
Q 3544 3216 3844 3400 
Q 4144 3584 4550 3584 
Q 5097 3584 5394 3201 
Q 5691 2819 5691 2113 
L 5691 0 
L 5113 0 
L 5113 2094 
Q 5113 2597 4934 2840 
Q 4756 3084 4391 3084 
Q 3944 3084 3684 2787 
Q 3425 2491 3425 1978 
L 3425 0 
L 2847 0 
L 2847 2094 
Q 2847 2600 2669 2842 
Q 2491 3084 2119 3084 
Q 1678 3084 1418 2786 
Q 1159 2488 1159 1978 
L 1159 0 
L 581 0 
L 581 3500 
L 1159 3500 
L 1159 2956 
Q 1356 3278 1631 3431 
Q 1906 3584 2284 3584 
Q 2666 3584 2933 3390 
Q 3200 3197 3328 2828 
z
" transform="scale(0.015625)"/>
       <path id="DejaVuSans-65" d="M 3597 1894 
L 3597 1613 
L 953 1613 
Q 991 1019 1311 708 
Q 1631 397 2203 397 
Q 2534 397 2845 478 
Q 3156 559 3463 722 
L 3463 178 
Q 3153 47 2828 -22 
Q 2503 -91 2169 -91 
Q 1331 -91 842 396 
Q 353 884 353 1716 
Q 353 2575 817 3079 
Q 1281 3584 2069 3584 
Q 2775 3584 3186 3129 
Q 3597 2675 3597 1894 
z
M 3022 2063 
Q 3016 2534 2758 2815 
Q 2500 3097 2075 3097 
Q 1594 3097 1305 2825 
Q 1016 2553 972 2059 
L 3022 2063 
z
" transform="scale(0.015625)"/>
       <path id="DejaVuSans-28" d="M 1984 4856 
Q 1566 4138 1362 3434 
Q 1159 2731 1159 2009 
Q 1159 1288 1364 580 
Q 1569 -128 1984 -844 
L 1484 -844 
Q 1016 -109 783 600 
Q 550 1309 550 2009 
Q 550 2706 781 3412 
Q 1013 4119 1484 4856 
L 1984 4856 
z
" transform="scale(0.015625)"/>
       <path id="DejaVuSans-73" d="M 2834 3397 
L 2834 2853 
Q 2591 2978 2328 3040 
Q 2066 3103 1784 3103 
Q 1356 3103 1142 2972 
Q 928 2841 928 2578 
Q 928 2378 1081 2264 
Q 1234 2150 1697 2047 
L 1894 2003 
Q 2506 1872 2764 1633 
Q 3022 1394 3022 966 
Q 3022 478 2636 193 
Q 2250 -91 1575 -91 
Q 1294 -91 989 -36 
Q 684 19 347 128 
L 347 722 
Q 666 556 975 473 
Q 1284 391 1588 391 
Q 1994 391 2212 530 
Q 2431 669 2431 922 
Q 2431 1156 2273 1281 
Q 2116 1406 1581 1522 
L 1381 1569 
Q 847 1681 609 1914 
Q 372 2147 372 2553 
Q 372 3047 722 3315 
Q 1072 3584 1716 3584 
Q 2034 3584 2315 3537 
Q 2597 3491 2834 3397 
z
" transform="scale(0.015625)"/>
       <path id="DejaVuSans-29" d="M 513 4856 
L 1013 4856 
Q 1481 4119 1714 3412 
Q 1947 2706 1947 2009 
Q 1947 1309 1714 600 
Q 1481 -109 1013 -844 
L 513 -844 
Q 928 -128 1133 580 
Q 1338 1288 1338 2009 
Q 1338 2731 1133 3434 
Q 928 4138 513 4856 
z
" transform="scale(0.015625)"/>
      </defs>
      <use xlink:href="#DejaVuSans-54"/>
      <use xlink:href="#DejaVuSans-69" x="57.958984"/>
      <use xlink:href="#DejaVuSans-6d" x="85.742188"/>
      <use xlink:href="#DejaVuSans-65" x="183.154297"/>
      <use xlink:href="#DejaVuSans-28" x="244.677734"/>
      <use xlink:href="#DejaVuSans-73" x="283.691406"/>
      <use xlink:href="#DejaVuSans-29" x="335.791016"/>
     </g>
    </g>
   </g>
   <g id="matplotlib.axis_2">
    <g id="ytick_1">
     <g id="line2d_13">
      <path d="M 57.6 295.488 
L 414.72 295.488 
" clip-path="url(#p573f2bf246)" style="fill: none; stroke: #b0b0b0; stroke-width: 0.8; stroke-linecap: square"/>
     </g>
     <g id="line2d_14">
      <defs>
       <path id="meac0054602" d="M 0 0 
L -3.5 0 
" style="stroke: #000000; stroke-width: 0.8"/>
      </defs>
      <g>
       <use xlink:href="#meac0054602" x="57.6" y="295.488" style="stroke: #000000; stroke-width: 0.8"/>
      </g>
     </g>
     <g id="text_8">
      <!-- 0.00 -->
      <g transform="translate(28.334375 299.287219) scale(0.1 -0.1)">
       <defs>
        <path id="DejaVuSans-2e" d="M 684 794 
L 1344 794 
L 1344 0 
L 684 0 
L 684 794 
z
" transform="scale(0.015625)"/>
       </defs>
       <use xlink:href="#DejaVuSans-30"/>
       <use xlink:href="#DejaVuSans-2e" x="63.623047"/>
       <use xlink:href="#DejaVuSans-30" x="95.410156"/>
       <use xlink:href="#DejaVuSans-30" x="159.033203"/>
      </g>
     </g>
    </g>
    <g id="ytick_2">
     <g id="line2d_15">
      <path d="M 57.6 251.496787 
L 414.72 251.496787 
" clip-path="url(#p573f2bf246)" style="fill: none; stroke: #b0b0b0; stroke-width: 0.8; stroke-linecap: square"/>
     </g>
     <g id="line2d_16">
      <g>
       <use xlink:href="#meac0054602" x="57.6" y="251.496787" style="stroke: #000000; stroke-width: 0.8"/>
      </g>
     </g>
     <g id="text_9">
      <!-- 0.05 -->
      <g transform="translate(28.334375 255.296005) scale(0.1 -0.1)">
       <use xlink:href="#DejaVuSans-30"/>
       <use xlink:href="#DejaVuSans-2e" x="63.623047"/>
       <use xlink:href="#DejaVuSans-30" x="95.410156"/>
       <use xlink:href="#DejaVuSans-35" x="159.033203"/>
      </g>
     </g>
    </g>
    <g id="ytick_3">
     <g id="line2d_17">
      <path d="M 57.6 207.505573 
L 414.72 207.505573 
" clip-path="url(#p573f2bf246)" style="fill: none; stroke: #b0b0b0; stroke-width: 0.8; stroke-linecap: square"/>
     </g>
     <g id="line2d_18">
      <g>
       <use xlink:href="#meac0054602" x="57.6" y="207.505573" style="stroke: #000000; stroke-width: 0.8"/>
      </g>
     </g>
     <g id="text_10">
      <!-- 0.10 -->
      <g transform="translate(28.334375 211.304792) scale(0.1 -0.1)">
       <use xlink:href="#DejaVuSans-30"/>
       <use xlink:href="#DejaVuSans-2e" x="63.623047"/>
       <use xlink:href="#DejaVuSans-31" x="95.410156"/>
       <use xlink:href="#DejaVuSans-30" x="159.033203"/>
      </g>
     </g>
    </g>
    <g id="ytick_4">
     <g id="line2d_19">
      <path d="M 57.6 163.51436 
L 414.72 163.51436 
" clip-path="url(#p573f2bf246)" style="fill: none; stroke: #b0b0b0; stroke-width: 0.8; stroke-linecap: square"/>
     </g>
     <g id="line2d_20">
      <g>
       <use xlink:href="#meac0054602" x="57.6" y="163.51436" style="stroke: #000000; stroke-width: 0.8"/>
      </g>
     </g>
     <g id="text_11">
      <!-- 0.15 -->
      <g transform="translate(28.334375 167.313579) scale(0.1 -0.1)">
       <use xlink:href="#DejaVuSans-30"/>
       <use xlink:href="#DejaVuSans-2e" x="63.623047"/>
       <use xlink:href="#DejaVuSans-31" x="95.410156"/>
       <use xlink:href="#DejaVuSans-35" x="159.033203"/>
      </g>
     </g>
    </g>
    <g id="ytick_5">
     <g id="line2d_21">
      <path d="M 57.6 119.523146 
L 414.72 119.523146 
" clip-path="url(#p573f2bf246)" style="fill: none; stroke: #b0b0b0; stroke-width: 0.8; stroke-linecap: square"/>
     </g>
     <g id="line2d_22">
      <g>
       <use xlink:href="#meac0054602" x="57.6" y="119.523146" style="stroke: #000000; stroke-width: 0.8"/>
      </g>
     </g>
     <g id="text_12">
      <!-- 0.20 -->
      <g transform="translate(28.334375 123.322365) scale(0.1 -0.1)">
       <use xlink:href="#DejaVuSans-30"/>
       <use xlink:href="#DejaVuSans-2e" x="63.623047"/>
       <use xlink:href="#DejaVuSans-32" x="95.410156"/>
       <use xlink:href="#DejaVuSans-30" x="159.033203"/>
      </g>
     </g>
    </g>
    <g id="ytick_6">
     <g id="line2d_23">
      <path d="M 57.6 75.531933 
L 414.72 75.531933 
" clip-path="url(#p573f2bf246)" style="fill: none; stroke: #b0b0b0; stroke-width: 0.8; stroke-linecap: square"/>
     </g>
     <g id="line2d_24">
      <g>
       <use xlink:href="#meac0054602" x="57.6" y="75.531933" style="stroke: #000000; stroke-width: 0.8"/>
      </g>
     </g>
     <g id="text_13">
      <!-- 0.25 -->
      <g transform="translate(28.334375 79.331152) scale(0.1 -0.1)">
       <use xlink:href="#DejaVuSans-30"/>
       <use xlink:href="#DejaVuSans-2e" x="63.623047"/>
       <use xlink:href="#DejaVuSans-32" x="95.410156"/>
       <use xlink:href="#DejaVuSans-35" x="159.033203"/>
      </g>
     </g>
    </g>
    <g id="text_14">
     <!-- Tracking error(m) -->
     <g transform="translate(22.254687 217.803781) rotate(-90) scale(0.1 -0.1)">
      <defs>
       <path id="DejaVuSans-72" d="M 2631 2963 
Q 2534 3019 2420 3045 
Q 2306 3072 2169 3072 
Q 1681 3072 1420 2755 
Q 1159 2438 1159 1844 
L 1159 0 
L 581 0 
L 581 3500 
L 1159 3500 
L 1159 2956 
Q 1341 3275 1631 3429 
Q 1922 3584 2338 3584 
Q 2397 3584 2469 3576 
Q 2541 3569 2628 3553 
L 2631 2963 
z
" transform="scale(0.015625)"/>
       <path id="DejaVuSans-61" d="M 2194 1759 
Q 1497 1759 1228 1600 
Q 959 1441 959 1056 
Q 959 750 1161 570 
Q 1363 391 1709 391 
Q 2188 391 2477 730 
Q 2766 1069 2766 1631 
L 2766 1759 
L 2194 1759 
z
M 3341 1997 
L 3341 0 
L 2766 0 
L 2766 531 
Q 2569 213 2275 61 
Q 1981 -91 1556 -91 
Q 1019 -91 701 211 
Q 384 513 384 1019 
Q 384 1609 779 1909 
Q 1175 2209 1959 2209 
L 2766 2209 
L 2766 2266 
Q 2766 2663 2505 2880 
Q 2244 3097 1772 3097 
Q 1472 3097 1187 3025 
Q 903 2953 641 2809 
L 641 3341 
Q 956 3463 1253 3523 
Q 1550 3584 1831 3584 
Q 2591 3584 2966 3190 
Q 3341 2797 3341 1997 
z
" transform="scale(0.015625)"/>
       <path id="DejaVuSans-63" d="M 3122 3366 
L 3122 2828 
Q 2878 2963 2633 3030 
Q 2388 3097 2138 3097 
Q 1578 3097 1268 2742 
Q 959 2388 959 1747 
Q 959 1106 1268 751 
Q 1578 397 2138 397 
Q 2388 397 2633 464 
Q 2878 531 3122 666 
L 3122 134 
Q 2881 22 2623 -34 
Q 2366 -91 2075 -91 
Q 1284 -91 818 406 
Q 353 903 353 1747 
Q 353 2603 823 3093 
Q 1294 3584 2113 3584 
Q 2378 3584 2631 3529 
Q 2884 3475 3122 3366 
z
" transform="scale(0.015625)"/>
       <path id="DejaVuSans-6b" d="M 581 4863 
L 1159 4863 
L 1159 1991 
L 2875 3500 
L 3609 3500 
L 1753 1863 
L 3688 0 
L 2938 0 
L 1159 1709 
L 1159 0 
L 581 0 
L 581 4863 
z
" transform="scale(0.015625)"/>
       <path id="DejaVuSans-6e" d="M 3513 2113 
L 3513 0 
L 2938 0 
L 2938 2094 
Q 2938 2591 2744 2837 
Q 2550 3084 2163 3084 
Q 1697 3084 1428 2787 
Q 1159 2491 1159 1978 
L 1159 0 
L 581 0 
L 581 3500 
L 1159 3500 
L 1159 2956 
Q 1366 3272 1645 3428 
Q 1925 3584 2291 3584 
Q 2894 3584 3203 3211 
Q 3513 2838 3513 2113 
z
" transform="scale(0.015625)"/>
       <path id="DejaVuSans-67" d="M 2906 1791 
Q 2906 2416 2648 2759 
Q 2391 3103 1925 3103 
Q 1463 3103 1205 2759 
Q 947 2416 947 1791 
Q 947 1169 1205 825 
Q 1463 481 1925 481 
Q 2391 481 2648 825 
Q 2906 1169 2906 1791 
z
M 3481 434 
Q 3481 -459 3084 -895 
Q 2688 -1331 1869 -1331 
Q 1566 -1331 1297 -1286 
Q 1028 -1241 775 -1147 
L 775 -588 
Q 1028 -725 1275 -790 
Q 1522 -856 1778 -856 
Q 2344 -856 2625 -561 
Q 2906 -266 2906 331 
L 2906 616 
Q 2728 306 2450 153 
Q 2172 0 1784 0 
Q 1141 0 747 490 
Q 353 981 353 1791 
Q 353 2603 747 3093 
Q 1141 3584 1784 3584 
Q 2172 3584 2450 3431 
Q 2728 3278 2906 2969 
L 2906 3500 
L 3481 3500 
L 3481 434 
z
" transform="scale(0.015625)"/>
       <path id="DejaVuSans-20" transform="scale(0.015625)"/>
       <path id="DejaVuSans-6f" d="M 1959 3097 
Q 1497 3097 1228 2736 
Q 959 2375 959 1747 
Q 959 1119 1226 758 
Q 1494 397 1959 397 
Q 2419 397 2687 759 
Q 2956 1122 2956 1747 
Q 2956 2369 2687 2733 
Q 2419 3097 1959 3097 
z
M 1959 3584 
Q 2709 3584 3137 3096 
Q 3566 2609 3566 1747 
Q 3566 888 3137 398 
Q 2709 -91 1959 -91 
Q 1206 -91 779 398 
Q 353 888 353 1747 
Q 353 2609 779 3096 
Q 1206 3584 1959 3584 
z
" transform="scale(0.015625)"/>
      </defs>
      <use xlink:href="#DejaVuSans-54"/>
      <use xlink:href="#DejaVuSans-72" x="46.333984"/>
      <use xlink:href="#DejaVuSans-61" x="87.447266"/>
      <use xlink:href="#DejaVuSans-63" x="148.726562"/>
      <use xlink:href="#DejaVuSans-6b" x="203.707031"/>
      <use xlink:href="#DejaVuSans-69" x="261.617188"/>
      <use xlink:href="#DejaVuSans-6e" x="289.400391"/>
      <use xlink:href="#DejaVuSans-67" x="352.779297"/>
      <use xlink:href="#DejaVuSans-20" x="416.255859"/>
      <use xlink:href="#DejaVuSans-65" x="448.042969"/>
      <use xlink:href="#DejaVuSans-72" x="509.566406"/>
      <use xlink:href="#DejaVuSans-72" x="548.929688"/>
      <use xlink:href="#DejaVuSans-6f" x="587.792969"/>
      <use xlink:href="#DejaVuSans-72" x="648.974609"/>
      <use xlink:href="#DejaVuSans-28" x="690.087891"/>
      <use xlink:href="#DejaVuSans-6d" x="729.101562"/>
      <use xlink:href="#DejaVuSans-29" x="826.513672"/>
     </g>
    </g>
   </g>
   <g id="line2d_25">
    <path d="M 73.832727 248.288067 
L 74.065121 294.027492 
L 74.065121 294.027492 
L 74.762304 187.390151 
L 74.762304 187.390151 
L 75.227092 138.574861 
L 75.227092 138.574861 
L 75.69188 107.924423 
L 75.69188 107.924423 
L 76.156668 93.57097 
L 76.156668 93.57097 
L 76.389062 92.348894 
L 76.389062 92.348894 
L 76.621456 94.799205 
L 76.621456 94.799205 
L 77.086245 107.361336 
L 77.086245 107.361336 
L 77.783427 138.63205 
L 77.783427 138.63205 
L 79.177791 204.863461 
L 79.177791 204.863461 
L 80.107368 236.922498 
L 80.107368 236.922498 
L 81.036944 262.799009 
L 81.036944 262.799009 
L 82.431309 292.220333 
L 82.431309 292.220333 
L 82.663703 294.594978 
L 82.663703 294.594978 
L 83.360885 283.87344 
L 83.360885 283.87344 
L 84.522855 276.588495 
L 84.522855 276.588495 
L 85.452432 281.053603 
L 85.452432 281.053603 
L 85.684826 283.192456 
L 85.684826 283.192456 
L 86.382008 293.862085 
L 86.382008 293.862085 
L 86.614402 293.518953 
L 86.614402 293.518953 
L 88.473555 266.068436 
L 88.473555 266.068436 
L 88.705949 264.973055 
L 88.705949 264.973055 
L 88.938343 264.504988 
L 88.938343 264.504988 
L 89.170737 263.198449 
L 89.170737 263.198449 
L 89.403131 263.403448 
L 89.403131 263.403448 
L 89.635525 264.236642 
L 89.635525 264.236642 
L 89.86792 265.667236 
L 89.86792 265.667236 
L 90.100314 266.140582 
L 90.100314 266.140582 
L 90.565102 269.607969 
L 90.565102 269.607969 
L 90.797496 271.914868 
L 90.797496 271.914868 
L 91.02989 272.65656 
L 91.02989 272.65656 
L 91.727072 277.474478 
L 91.727072 277.474478 
L 91.959466 277.056561 
L 91.959466 277.056561 
L 92.424255 278.198573 
L 92.424255 278.198573 
L 92.656649 276.983536 
L 92.656649 276.983536 
L 93.121437 276.192574 
L 93.121437 276.192574 
L 93.353831 276.11163 
L 93.353831 276.11163 
L 93.586225 273.965739 
L 93.586225 273.965739 
L 93.818619 273.634925 
L 93.818619 273.634925 
L 94.051013 273.843443 
L 94.051013 273.843443 
L 94.283407 272.270317 
L 94.283407 272.270317 
L 94.515801 272.733985 
L 94.515801 272.733985 
L 94.748195 274.00709 
L 94.748195 274.00709 
L 94.98059 273.50735 
L 94.98059 273.50735 
L 95.910166 280.457962 
L 95.910166 280.457962 
L 96.14256 283.588377 
L 96.14256 283.588377 
L 96.374954 283.577819 
L 96.374954 283.577819 
L 96.607348 286.115232 
L 96.607348 286.115232 
L 96.839742 286.595616 
L 97.30453 290.168582 
L 97.30453 290.168582 
L 97.536925 289.489358 
L 97.536925 289.489358 
L 97.769319 290.371822 
L 97.769319 290.371822 
L 98.001713 291.761944 
L 98.001713 291.761944 
L 98.234107 289.426891 
L 98.234107 289.426891 
L 98.466501 295.488 
L 98.466501 295.488 
L 98.931289 285.765062 
L 98.931289 285.765062 
L 99.396077 284.203374 
L 99.396077 284.203374 
L 99.628471 278.661361 
L 99.628471 278.661361 
L 100.09326 275.428007 
L 100.09326 275.428007 
L 100.325654 269.442562 
L 100.325654 269.442562 
L 100.558048 267.476155 
L 100.558048 267.476155 
L 100.790442 262.962656 
L 100.790442 262.962656 
L 101.952412 251.794167 
L 101.952412 251.794167 
L 102.184806 247.631719 
L 102.184806 247.631719 
L 102.649595 244.435317 
L 102.649595 244.435317 
L 102.881989 240.178727 
L 102.881989 240.178727 
L 103.346777 237.272668 
L 103.346777 237.272668 
L 103.579171 233.712899 
L 103.579171 233.712899 
L 104.043959 232.130975 
L 104.043959 232.130975 
L 104.276353 229.495021 
L 104.276353 229.495021 
L 104.508747 229.095581 
L 104.508747 229.095581 
L 104.741141 229.211718 
L 104.741141 229.211718 
L 104.973535 227.774085 
L 104.973535 227.774085 
L 105.20593 228.118096 
L 105.20593 228.118096 
L 105.438324 228.806999 
L 105.438324 228.806999 
L 105.670718 228.367086 
L 105.670718 228.367086 
L 106.3679 230.607119 
L 106.3679 230.607119 
L 107.065082 234.439634 
L 107.065082 234.439634 
L 107.994659 241.963011 
L 107.994659 241.963011 
L 108.691841 250.140098 
L 108.691841 250.140098 
L 111.248176 290.656885 
L 111.248176 290.656885 
L 111.712964 295.158946 
L 111.712964 295.158946 
L 111.945358 293.940389 
L 111.945358 293.940389 
L 112.410146 290.48092 
L 112.410146 290.48092 
L 112.642541 295.488 
L 112.642541 295.488 
L 112.874935 287.242287 
L 112.874935 287.242287 
L 114.036905 278.970179 
L 114.036905 278.970179 
L 114.501693 276.61137 
L 114.501693 276.61137 
L 114.734087 275.875837 
L 114.734087 275.875837 
L 114.966481 275.542384 
L 114.966481 275.542384 
L 115.198876 275.683156 
L 115.198876 275.683156 
L 115.43127 276.341264 
L 115.43127 276.341264 
L 115.896058 278.906832 
L 115.896058 278.906832 
L 116.59324 284.777899 
L 116.59324 284.777899 
L 117.058028 289.509594 
L 117.058028 289.509594 
L 117.290422 295.488 
L 117.290422 295.488 
L 117.522816 293.795218 
L 117.522816 293.795218 
L 117.755211 295.370104 
L 117.755211 295.370104 
L 118.219999 292.653206 
L 118.219999 292.653206 
L 118.452393 295.488 
L 118.452393 295.488 
L 118.684787 290.957785 
L 118.684787 290.957785 
L 119.149575 289.917833 
L 119.149575 289.917833 
L 119.846757 288.713353 
L 119.846757 288.713353 
L 121.241122 285.431609 
L 121.241122 285.431609 
L 121.70591 286.080039 
L 121.70591 286.080039 
L 122.170698 287.57838 
L 122.170698 287.57838 
L 122.635486 289.92927 
L 122.635486 289.92927 
L 122.867881 291.207655 
L 122.867881 291.207655 
L 123.100275 295.488 
L 123.100275 295.488 
L 123.332669 293.715154 
L 123.332669 293.715154 
L 123.565063 294.797338 
L 123.565063 294.797338 
L 123.797457 295.180941 
L 123.797457 295.180941 
L 124.029851 294.551867 
L 124.029851 294.551867 
L 124.262245 295.488 
L 124.262245 295.488 
L 124.494639 293.771463 
L 124.494639 293.771463 
L 124.959427 293.130071 
L 124.959427 293.130071 
L 125.191821 292.786939 
L 125.191821 292.786939 
L 125.424216 295.488 
L 125.424216 295.488 
L 125.65661 291.690678 
L 125.65661 291.690678 
L 126.121398 290.085879 
L 126.121398 290.085879 
L 127.515762 284.895796 
L 127.515762 284.895796 
L 127.980551 284.144426 
L 127.980551 284.144426 
L 128.212945 283.904234 
L 128.212945 283.904234 
L 128.677733 283.888397 
L 128.677733 283.888397 
L 129.142521 284.138267 
L 129.142521 284.138267 
L 129.374915 284.337107 
L 129.374915 284.337107 
L 130.536886 287.298596 
L 130.536886 287.298596 
L 131.001674 289.017772 
L 131.001674 289.017772 
L 131.234068 295.488 
L 131.234068 295.488 
L 131.466462 291.285959 
L 131.466462 291.285959 
L 132.163644 295.160705 
L 132.163644 295.160705 
L 132.396038 294.564185 
L 132.396038 294.564185 
L 133.093221 291.490958 
L 133.093221 291.490958 
L 134.719979 284.301914 
L 134.719979 284.301914 
L 135.88195 277.511431 
L 135.88195 277.511431 
L 136.346738 273.669238 
L 136.346738 273.669238 
L 136.579132 273.032245 
L 136.579132 273.032245 
L 137.04392 269.339623 
L 137.04392 269.339623 
L 137.276314 269.530545 
L 137.508708 267.573815 
L 137.508708 267.573815 
L 137.741102 267.444481 
L 137.973496 266.017406 
L 137.973496 266.017406 
L 138.205891 263.551259 
L 138.205891 263.551259 
L 138.438285 264.500589 
L 138.438285 264.500589 
L 138.670679 262.101309 
L 138.670679 262.101309 
L 138.903073 262.459397 
L 138.903073 262.459397 
L 139.135467 259.835761 
L 139.135467 259.835761 
L 139.367861 259.372973 
L 139.367861 259.372973 
L 139.600255 256.627922 
L 139.600255 256.627922 
L 139.832649 252.498906 
L 139.832649 252.498906 
L 140.065043 253.091908 
L 140.065043 253.091908 
L 140.297437 248.864352 
L 140.297437 248.864352 
L 140.529831 248.946176 
L 140.529831 248.946176 
L 140.762226 244.96937 
L 140.762226 244.96937 
L 140.99462 244.837397 
L 141.227014 241.328658 
L 141.227014 241.328658 
L 141.459408 241.060311 
L 141.459408 241.060311 
L 141.691802 238.136655 
L 141.691802 238.136655 
L 141.924196 238.225517 
L 141.924196 238.225517 
L 142.15659 236.485225 
L 142.15659 236.485225 
L 142.388984 233.503501 
L 142.388984 233.503501 
L 142.621378 237.005201 
L 142.621378 237.005201 
L 142.853772 235.813039 
L 142.853772 235.813039 
L 143.086166 240.755012 
L 143.086166 240.755012 
L 143.318561 241.650673 
L 143.318561 241.650673 
L 143.550955 248.200965 
L 143.550955 248.200965 
L 143.783349 250.782369 
L 143.783349 250.782369 
L 144.015743 258.123623 
L 144.015743 258.123623 
L 144.248137 261.345539 
L 144.480531 268.35334 
L 144.480531 268.35334 
L 144.712925 271.091353 
L 144.712925 271.091353 
L 144.945319 277.191175 
L 144.945319 277.191175 
L 145.177713 279.46552 
L 145.177713 279.46552 
L 145.410107 284.72423 
L 145.410107 284.72423 
L 145.642501 286.256884 
L 145.642501 286.256884 
L 145.874896 290.263603 
L 145.874896 290.263603 
L 146.10729 290.811734 
L 146.10729 290.811734 
L 146.339684 293.408975 
L 146.339684 293.408975 
L 146.572078 293.213654 
L 146.804472 294.760385 
L 146.804472 294.760385 
L 147.036866 293.48464 
L 147.036866 293.48464 
L 147.26926 293.593738 
L 147.26926 293.593738 
L 147.501654 295.488 
L 147.501654 295.488 
L 147.734048 291.158385 
L 147.734048 291.158385 
L 147.966442 295.488 
L 147.966442 295.488 
L 148.198836 289.653005 
L 148.198836 289.653005 
L 148.431231 295.488 
L 148.431231 295.488 
L 148.663625 284.395176 
L 148.663625 284.395176 
L 148.896019 295.488 
L 148.896019 295.488 
L 149.128413 288.165223 
L 149.128413 288.165223 
L 149.360807 295.488 
L 149.360807 295.488 
L 149.593201 294.352147 
L 149.593201 294.352147 
L 149.825595 289.076721 
L 149.825595 289.076721 
L 150.057989 290.188818 
L 150.057989 290.188818 
L 150.290383 283.582218 
L 150.290383 283.582218 
L 150.522777 285.767701 
L 150.522777 285.767701 
L 150.755171 280.838046 
L 150.755171 280.838046 
L 150.987566 284.235927 
L 150.987566 284.235927 
L 151.21996 280.757102 
L 151.21996 280.757102 
L 151.452354 284.843886 
L 151.452354 284.843886 
L 151.684748 282.381258 
L 151.684748 282.381258 
L 151.917142 286.714392 
L 151.917142 286.714392 
L 152.149536 284.32479 
L 152.149536 284.32479 
L 152.38193 287.561663 
L 152.38193 287.561663 
L 152.614324 284.515712 
L 152.614324 284.515712 
L 152.846718 286.617612 
L 152.846718 286.617612 
L 153.079112 283.01913 
L 153.079112 283.01913 
L 153.311506 283.754664 
L 153.311506 283.754664 
L 153.543901 279.775218 
L 153.543901 279.775218 
L 153.776295 279.670519 
L 153.776295 279.670519 
L 154.008689 275.875837 
L 154.008689 275.875837 
L 154.241083 275.380496 
L 154.241083 275.380496 
L 154.473477 272.003731 
L 154.473477 272.003731 
L 154.705871 270.931225 
L 154.705871 270.931225 
L 154.938265 267.926625 
L 154.938265 267.926625 
L 155.170659 266.394851 
L 155.170659 266.394851 
L 156.565024 248.131459 
L 156.565024 248.131459 
L 157.4946 232.284944 
L 157.4946 232.284944 
L 157.726994 230.858749 
L 157.726994 230.858749 
L 157.959388 227.722175 
L 157.959388 227.722175 
L 158.191782 226.920655 
L 158.191782 226.920655 
L 158.656571 222.514495 
L 158.656571 222.514495 
L 158.888965 224.567125 
L 158.888965 224.567125 
L 159.121359 223.586121 
L 159.121359 223.586121 
L 159.353753 226.084822 
L 159.353753 226.084822 
L 159.586147 226.685742 
L 159.586147 226.685742 
L 159.818541 226.082183 
L 159.818541 226.082183 
L 160.050935 231.20276 
L 160.050935 231.20276 
L 160.283329 231.676985 
L 160.283329 231.676985 
L 160.515723 236.198402 
L 160.515723 236.198402 
L 160.748117 237.853352 
L 160.748117 237.853352 
L 160.980511 238.01172 
L 160.980511 238.01172 
L 161.212906 244.624479 
L 161.212906 244.624479 
L 161.4453 245.929259 
L 161.4453 245.929259 
L 161.677694 252.151376 
L 161.677694 252.151376 
L 161.910088 254.697587 
L 161.910088 254.697587 
L 162.374876 265.227324 
L 162.374876 265.227324 
L 162.60727 268.989453 
L 162.60727 268.989453 
L 163.072058 281.974779 
L 163.072058 281.974779 
L 163.536846 295.488 
L 163.536846 295.488 
L 163.769241 292.806296 
L 163.769241 292.806296 
L 164.001635 294.616094 
L 164.001635 294.616094 
L 164.234029 295.143989 
L 164.234029 295.143989 
L 164.466423 293.752987 
L 164.466423 293.752987 
L 164.698817 295.306756 
L 164.698817 295.306756 
L 164.931211 295.084161 
L 164.931211 295.084161 
L 165.163605 295.488 
L 165.163605 295.488 
L 165.395999 289.294037 
L 165.395999 289.294037 
L 165.628393 289.976781 
L 165.628393 289.976781 
L 165.860787 287.480719 
L 165.860787 287.480719 
L 166.093181 288.554985 
L 166.325576 287.543187 
L 166.325576 287.543187 
L 166.55797 286.015812 
L 166.55797 286.015812 
L 166.790364 289.812254 
L 166.790364 289.812254 
L 167.022758 289.97942 
L 167.022758 289.97942 
L 167.255152 294.261525 
L 167.255152 294.261525 
L 167.487546 294.871243 
L 167.487546 294.871243 
L 167.952334 287.073361 
L 167.952334 287.073361 
L 168.184728 284.281678 
L 168.184728 284.281678 
L 168.649516 274.704791 
L 168.649516 274.704791 
L 168.881911 271.163498 
L 169.346699 260.960176 
L 169.346699 260.960176 
L 169.811487 252.159294 
L 169.811487 252.159294 
L 170.508669 242.885946 
L 170.508669 242.885946 
L 170.741063 241.022479 
L 170.741063 241.022479 
L 170.973457 240.562331 
L 170.973457 240.562331 
L 171.205851 240.428597 
L 171.205851 240.428597 
L 171.438246 241.124538 
L 171.438246 241.124538 
L 172.135428 248.215922 
L 172.135428 248.215922 
L 174.459369 281.548944 
L 174.459369 281.548944 
L 175.156551 287.603895 
L 175.156551 287.603895 
L 176.086127 293.882321 
L 176.086127 293.882321 
L 176.318522 295.316434 
L 176.318522 295.316434 
L 177.015704 290.026051 
L 177.015704 290.026051 
L 178.177674 277.71467 
L 178.177674 277.71467 
L 178.410068 274.903631 
L 178.410068 274.903631 
L 179.107251 262.090751 
L 179.107251 262.090751 
L 179.339645 260.323184 
L 179.339645 260.323184 
L 179.572039 257.576372 
L 179.572039 257.576372 
L 179.804433 252.293028 
L 179.804433 252.293028 
L 180.036827 250.333659 
L 180.036827 250.333659 
L 180.269221 244.313901 
L 180.269221 244.313901 
L 180.501615 243.633797 
L 180.501615 243.633797 
L 180.734009 236.216879 
L 180.734009 236.216879 
L 180.966403 236.213359 
L 180.966403 236.213359 
L 181.198797 234.139613 
L 181.198797 234.139613 
L 181.431192 227.738012 
L 181.431192 227.738012 
L 181.663586 227.018316 
L 181.663586 227.018316 
L 181.89598 219.38584 
L 181.89598 219.38584 
L 182.128374 219.769444 
L 182.128374 219.769444 
L 182.360768 217.996598 
L 182.360768 217.996598 
L 182.593162 211.873901 
L 182.593162 211.873901 
L 182.825556 211.07678 
L 182.825556 211.07678 
L 183.05795 203.593875 
L 183.05795 203.593875 
L 183.290344 203.834946 
L 183.290344 203.834946 
L 183.522738 201.831587 
L 183.522738 201.831587 
L 183.755132 195.721207 
L 183.755132 195.721207 
L 183.987527 194.880975 
L 184.219921 187.550279 
L 184.219921 187.550279 
L 184.452315 188.804029 
L 184.452315 188.804029 
L 184.684709 188.026264 
L 184.684709 188.026264 
L 184.917103 183.227702 
L 184.917103 183.227702 
L 185.149497 183.99139 
L 185.149497 183.99139 
L 185.381891 177.588909 
L 185.381891 177.588909 
L 185.614285 180.416664 
L 185.614285 180.416664 
L 185.846679 180.832821 
L 185.846679 180.832821 
L 186.079073 176.602626 
L 186.079073 176.602626 
L 186.311467 179.013344 
L 186.311467 179.013344 
L 186.543862 172.235178 
L 186.543862 172.235178 
L 186.776256 176.973032 
L 186.776256 176.973032 
L 187.00865 166.96591 
L 187.00865 166.96591 
L 187.241044 173.091247 
L 187.241044 173.091247 
L 187.473438 174.850896 
L 187.473438 174.850896 
L 187.705832 167.657452 
L 187.705832 167.657452 
L 187.938226 169.908923 
L 187.938226 169.908923 
L 188.17062 161.11156 
L 188.17062 161.11156 
L 188.403014 164.36339 
L 188.403014 164.36339 
L 188.635408 164.287725 
L 188.635408 164.287725 
L 188.867802 158.683245 
L 188.867802 158.683245 
L 189.100197 160.263409 
L 189.100197 160.263409 
L 189.332591 154.70028 
L 189.332591 154.70028 
L 189.564985 159.803261 
L 189.564985 159.803261 
L 189.797379 155.376865 
L 189.797379 155.376865 
L 190.262167 169.176029 
L 190.262167 169.176029 
L 190.494561 168.16863 
L 190.494561 168.16863 
L 190.726955 174.802505 
L 190.726955 174.802505 
L 190.959349 171.953634 
L 190.959349 171.953634 
L 191.424137 182.968154 
L 191.424137 182.968154 
L 191.656532 180.622543 
L 191.656532 180.622543 
L 191.888926 184.748039 
L 191.888926 184.748039 
L 192.12132 180.892649 
L 192.12132 180.892649 
L 192.586108 189.272095 
L 192.586108 189.272095 
L 192.818502 188.388752 
L 192.818502 188.388752 
L 193.050896 193.430145 
L 193.28329 193.585873 
L 193.28329 193.585873 
L 193.748078 207.448385 
L 193.748078 207.448385 
L 193.980472 211.840467 
L 193.980472 211.840467 
L 194.677655 234.00764 
L 194.677655 234.00764 
L 194.910049 239.839995 
L 194.910049 239.839995 
L 195.839625 272.082915 
L 195.839625 272.082915 
L 196.536807 294.252727 
L 196.536807 294.252727 
L 196.769202 290.610254 
L 196.769202 290.610254 
L 197.23399 277.228127 
L 197.23399 277.228127 
L 197.466384 271.826886 
L 197.466384 271.826886 
L 198.163566 249.002485 
L 198.163566 249.002485 
L 198.628354 241.018959 
L 198.628354 241.018959 
L 198.860748 231.326815 
L 198.860748 231.326815 
L 199.093142 228.193761 
L 199.093142 228.193761 
L 199.325537 223.313376 
L 199.325537 223.313376 
L 199.557931 213.57988 
L 199.557931 213.57988 
L 199.790325 209.772001 
L 199.790325 209.772001 
L 200.022719 197.512529 
L 200.022719 197.512529 
L 200.255113 196.189273 
L 200.255113 196.189273 
L 200.487507 193.972996 
L 200.487507 193.972996 
L 200.719901 184.598469 
L 200.719901 184.598469 
L 200.952295 185.974514 
L 200.952295 185.974514 
L 201.184689 186.659017 
L 201.184689 186.659017 
L 201.417083 181.194428 
L 201.417083 181.194428 
L 201.881872 187.859977 
L 201.881872 187.859977 
L 202.114266 184.073213 
L 202.114266 184.073213 
L 202.34666 186.979273 
L 202.34666 186.979273 
L 202.579054 186.531442 
L 202.579054 186.531442 
L 203.043842 176.5296 
L 203.043842 176.5296 
L 203.276236 161.282246 
L 203.276236 161.282246 
L 203.50863 154.643092 
L 203.50863 154.643092 
L 203.741024 144.035051 
L 203.741024 144.035051 
L 203.973418 117.485473 
L 203.973418 117.485473 
L 204.438207 99.882829 
L 204.438207 99.882829 
L 204.670601 79.063548 
L 204.670601 79.063548 
L 204.902995 74.775284 
L 204.902995 74.775284 
L 205.135389 58.335768 
L 205.135389 58.335768 
L 205.367783 62.150686 
L 205.367783 62.150686 
L 205.600177 53.568 
L 205.600177 53.568 
L 205.832571 65.289019 
L 205.832571 65.289019 
L 206.064965 61.62631 
L 206.064965 61.62631 
L 206.529753 93.128418 
L 206.529753 93.128418 
L 206.762147 98.279789 
L 206.762147 98.279789 
L 206.994542 116.524705 
L 206.994542 116.524705 
L 207.226936 120.064238 
L 207.226936 120.064238 
L 207.691724 160.783385 
L 207.691724 160.783385 
L 207.924118 169.101244 
L 207.924118 169.101244 
L 208.388906 206.295815 
L 208.388906 206.295815 
L 208.6213 215.636909 
L 208.6213 215.636909 
L 208.853694 230.867547 
L 208.853694 230.867547 
L 209.086088 235.269308 
L 209.086088 235.269308 
L 209.550877 254.8366 
L 209.550877 254.8366 
L 209.783271 253.192208 
L 209.783271 253.192208 
L 210.015665 256.984251 
L 210.015665 256.984251 
L 210.248059 257.198048 
L 210.248059 257.198048 
L 210.480453 249.97821 
L 210.480453 249.97821 
L 210.712847 247.97661 
L 210.712847 247.97661 
L 210.945241 243.845835 
L 210.945241 243.845835 
L 211.177635 234.999202 
L 211.177635 234.999202 
L 211.642423 227.357048 
L 211.642423 227.357048 
L 211.874817 221.736731 
L 211.874817 221.736731 
L 212.107212 221.411196 
L 212.107212 221.411196 
L 212.339606 222.247909 
L 212.339606 222.247909 
L 212.572 223.583482 
L 212.572 223.583482 
L 213.036788 233.879185 
L 213.036788 233.879185 
L 214.663547 294.178821 
L 214.663547 294.178821 
L 215.128335 282.977779 
L 215.128335 282.977779 
L 215.593123 270.242322 
L 215.593123 270.242322 
L 216.290305 251.300586 
L 216.290305 251.300586 
L 216.522699 241.244194 
L 216.522699 241.244194 
L 216.755093 238.507061 
L 216.755093 238.507061 
L 216.987487 225.6933 
L 216.987487 225.6933 
L 217.219882 224.504658 
L 217.219882 224.504658 
L 217.452276 220.724933 
L 217.452276 220.724933 
L 217.68467 209.263462 
L 217.68467 209.263462 
L 217.917064 206.533367 
L 217.917064 206.533367 
L 218.149458 192.334763 
L 218.149458 192.334763 
L 218.381852 190.608548 
L 218.381852 190.608548 
L 218.614246 185.868055 
L 218.614246 185.868055 
L 218.84664 172.361873 
L 218.84664 172.361873 
L 219.079034 168.886567 
L 219.079034 168.886567 
L 219.311428 162.903762 
L 219.311428 162.903762 
L 219.543822 152.30012 
L 219.543822 152.30012 
L 219.776217 149.038611 
L 219.776217 149.038611 
L 220.008611 138.152545 
L 220.008611 138.152545 
L 220.241005 138.963743 
L 220.241005 138.963743 
L 220.473399 127.841005 
L 220.473399 127.841005 
L 220.705793 132.47416 
L 220.705793 132.47416 
L 220.938187 134.230289 
L 220.938187 134.230289 
L 221.170581 127.523388 
L 221.170581 127.523388 
L 221.402975 131.281118 
L 221.402975 131.281118 
L 221.635369 122.694033 
L 221.635369 122.694033 
L 221.867763 127.828688 
L 221.867763 127.828688 
L 222.100157 129.147544 
L 222.100157 129.147544 
L 222.332552 122.662359 
L 222.332552 122.662359 
L 222.564946 124.678037 
L 222.564946 124.678037 
L 222.79734 116.244041 
L 222.79734 116.244041 
L 223.029734 119.839883 
L 223.029734 119.839883 
L 223.262128 120.337864 
L 223.262128 120.337864 
L 223.494522 115.866597 
L 223.494522 115.866597 
L 223.726916 119.059479 
L 223.726916 119.059479 
L 223.95931 115.131943 
L 223.95931 115.131943 
L 224.191704 121.735025 
L 224.191704 121.735025 
L 224.424098 118.414568 
L 224.424098 118.414568 
L 224.888887 133.911792 
L 224.888887 133.911792 
L 225.121281 133.836128 
L 225.121281 133.836128 
L 225.586069 145.031012 
L 225.586069 145.031012 
L 225.818463 145.299358 
L 225.818463 145.299358 
L 226.050857 148.739471 
L 226.050857 148.739471 
L 226.283251 145.94251 
L 226.283251 145.94251 
L 226.515645 149.379103 
L 226.515645 149.379103 
L 226.748039 150.74723 
L 226.748039 150.74723 
L 226.980433 146.851368 
L 226.980433 146.851368 
L 227.212827 149.570025 
L 227.212827 149.570025 
L 227.445222 144.098398 
L 227.445222 144.098398 
L 227.91001 153.388462 
L 227.91001 153.388462 
L 228.142404 151.427334 
L 228.142404 151.427334 
L 228.374798 156.942073 
L 228.374798 156.942073 
L 228.607192 153.687603 
L 228.607192 153.687603 
L 229.07198 164.645814 
L 229.07198 164.645814 
L 229.304374 162.508721 
L 229.304374 162.508721 
L 229.536768 167.459492 
L 229.536768 167.459492 
L 229.769162 163.71496 
L 229.769162 163.71496 
L 230.233951 173.343757 
L 230.233951 173.343757 
L 230.466345 171.789107 
L 230.466345 171.789107 
L 230.698739 176.92992 
L 230.698739 176.92992 
L 230.931133 175.326001 
L 230.931133 175.326001 
L 231.395921 188.227744 
L 231.395921 188.227744 
L 231.628315 190.49769 
L 231.628315 190.49769 
L 231.860709 197.967398 
L 231.860709 197.967398 
L 232.093103 200.86466 
L 232.093103 200.86466 
L 232.325497 209.733288 
L 232.325497 209.733288 
L 232.557892 213.219152 
L 232.557892 213.219152 
L 233.02268 229.621716 
L 233.02268 229.621716 
L 233.719862 244.440596 
L 233.719862 244.440596 
L 234.18465 255.031041 
L 234.18465 255.031041 
L 234.881832 265.454319 
L 234.881832 265.454319 
L 235.579015 276.979137 
L 235.579015 276.979137 
L 235.811409 279.399533 
L 235.811409 279.399533 
L 236.043803 283.591896 
L 236.043803 283.591896 
L 236.276197 285.52399 
L 236.508591 289.137428 
L 236.508591 289.137428 
L 236.740985 290.43165 
L 236.740985 290.43165 
L 236.973379 295.488 
L 237.205773 293.998458 
L 237.205773 293.998458 
L 237.438168 295.488 
L 237.438168 295.488 
L 237.670562 294.898518 
L 237.670562 294.898518 
L 237.902956 295.488 
L 237.902956 295.488 
L 238.367744 293.055286 
L 238.367744 293.055286 
L 238.600138 293.400177 
L 238.600138 293.400177 
L 238.832532 292.742068 
L 238.832532 292.742068 
L 239.064926 293.006896 
L 239.064926 293.006896 
L 239.29732 292.325032 
L 239.29732 292.325032 
L 239.529714 292.278401 
L 239.529714 292.278401 
L 239.762108 291.38098 
L 239.762108 291.38098 
L 239.994503 295.488 
L 239.994503 295.488 
L 240.226897 290.550426 
L 240.226897 290.550426 
L 240.459291 289.125991 
L 240.459291 289.125991 
L 240.691685 288.673761 
L 240.691685 288.673761 
L 240.924079 287.471041 
L 240.924079 287.471041 
L 241.156473 286.988018 
L 241.156473 286.988018 
L 241.388867 286.860443 
L 241.388867 286.860443 
L 241.621261 285.836328 
L 241.621261 285.836328 
L 241.853655 285.837208 
L 241.853655 285.837208 
L 242.086049 286.021971 
L 242.086049 286.021971 
L 242.318443 284.956504 
L 242.783232 284.580819 
L 242.783232 284.580819 
L 243.015626 282.952264 
L 243.015626 282.952264 
L 243.480414 281.500554 
L 243.480414 281.500554 
L 243.945202 278.397414 
L 243.945202 278.397414 
L 244.177596 277.292354 
L 244.177596 277.292354 
L 244.642384 273.888314 
L 244.642384 273.888314 
L 245.804355 267.781454 
L 245.804355 267.781454 
L 246.036749 267.2518 
L 246.036749 267.2518 
L 246.501537 264.967776 
L 246.501537 264.967776 
L 247.198719 262.467315 
L 247.198719 262.467315 
L 247.663508 258.698148 
L 247.663508 258.698148 
L 248.128296 255.93462 
L 248.128296 255.93462 
L 248.593084 252.093307 
L 248.593084 252.093307 
L 249.057872 249.882309 
L 249.057872 249.882309 
L 249.290266 249.313943 
L 249.290266 249.313943 
L 249.52266 247.800645 
L 249.52266 247.800645 
L 249.987448 247.091506 
L 249.987448 247.091506 
L 250.219843 247.038717 
L 250.219843 247.038717 
L 250.452237 247.117901 
L 250.452237 247.117901 
L 250.684631 245.945975 
L 250.684631 245.945975 
L 251.381813 245.008083 
L 251.381813 245.008083 
L 251.614207 243.749054 
L 251.614207 243.749054 
L 252.078995 242.725818 
L 252.078995 242.725818 
L 252.311389 242.455712 
L 252.311389 242.455712 
L 252.543783 242.439876 
L 252.543783 242.439876 
L 252.776178 241.670909 
L 252.776178 241.670909 
L 253.008572 241.841595 
L 253.47336 242.752213 
L 253.47336 242.752213 
L 253.705754 243.473669 
L 253.705754 243.473669 
L 253.938148 243.198284 
L 253.938148 243.198284 
L 254.867724 245.275549 
L 254.867724 245.275549 
L 255.100118 244.503063 
L 256.029695 243.632037 
L 256.029695 243.632037 
L 256.262089 242.556892 
L 256.262089 242.556892 
L 256.494483 242.435476 
L 256.494483 242.435476 
L 256.726877 242.505862 
L 256.726877 242.505862 
L 256.959271 242.71702 
L 256.959271 242.71702 
L 257.191665 243.112941 
L 257.191665 243.112941 
L 257.424059 242.638716 
L 257.424059 242.638716 
L 257.888848 243.610922 
L 257.888848 243.610922 
L 258.353636 244.964091 
L 258.353636 244.964091 
L 258.58603 244.605123 
L 258.58603 244.605123 
L 259.050818 245.157653 
L 259.050818 245.157653 
L 259.515606 245.362652 
L 259.515606 245.362652 
L 259.748 244.482828 
L 259.748 244.482828 
L 259.980394 244.466991 
L 259.980394 244.466991 
L 260.212788 244.644715 
L 260.212788 244.644715 
L 260.677577 245.781448 
L 260.677577 245.781448 
L 260.909971 245.527179 
L 260.909971 245.527179 
L 261.374759 247.159253 
L 261.374759 247.159253 
L 261.839547 249.500465 
L 261.839547 249.500465 
L 262.071941 249.665872 
L 262.071941 249.665872 
L 263.001518 253.215083 
L 263.001518 253.215083 
L 263.233912 252.542018 
L 263.233912 252.542018 
L 263.931094 252.843798 
L 263.931094 252.843798 
L 264.163488 253.067273 
L 264.395882 252.151376 
L 264.395882 252.151376 
L 264.628276 252.378371 
L 264.628276 252.378371 
L 265.093064 253.328581 
L 265.093064 253.328581 
L 265.325458 254.008685 
L 265.325458 254.008685 
L 265.557853 253.416563 
L 265.557853 253.416563 
L 266.487429 255.03368 
L 266.487429 255.03368 
L 266.719823 253.619803 
L 266.719823 253.619803 
L 267.184611 252.161054 
L 267.184611 252.161054 
L 267.649399 250.318702 
L 267.649399 250.318702 
L 267.881793 248.011803 
L 267.881793 248.011803 
L 268.346582 245.945095 
L 268.346582 245.945095 
L 268.578976 245.242116 
L 268.578976 245.242116 
L 268.81137 243.763131 
L 268.81137 243.763131 
L 269.276158 242.67039 
L 269.276158 242.67039 
L 269.508552 242.464511 
L 269.508552 242.464511 
L 269.740946 242.446914 
L 269.740946 242.446914 
L 269.97334 241.714021 
L 269.97334 241.714021 
L 270.438128 241.66739 
L 270.438128 241.66739 
L 270.902917 241.804642 
L 270.902917 241.804642 
L 271.135311 241.077908 
L 271.135311 241.077908 
L 271.832493 240.221839 
L 271.832493 240.221839 
L 272.064887 239.839995 
L 272.064887 239.839995 
L 272.529675 237.979167 
L 272.529675 237.979167 
L 273.691646 234.482745 
L 273.691646 234.482745 
L 274.156434 233.843992 
L 274.156434 233.843992 
L 274.388828 233.787684 
L 274.388828 233.787684 
L 274.621222 233.396162 
L 274.621222 233.396162 
L 274.853616 233.573007 
L 275.08601 233.974206 
L 275.08601 233.974206 
L 275.783193 236.135055 
L 275.783193 236.135055 
L 276.712769 240.381967 
L 276.712769 240.381967 
L 277.642345 246.111382 
L 277.642345 246.111382 
L 279.03671 254.756536 
L 279.03671 254.756536 
L 280.19868 269.90447 
L 280.19868 269.90447 
L 280.895863 289.63189 
L 280.895863 289.63189 
L 281.128257 294.03805 
L 281.128257 294.03805 
L 281.593045 276.034206 
L 281.593045 276.034206 
L 283.219803 217.731771 
L 283.219803 217.731771 
L 284.381774 189.012547 
L 284.381774 189.012547 
L 285.078956 169.099484 
L 285.078956 169.099484 
L 285.543744 162.627497 
L 285.543744 162.627497 
L 286.240927 175.046216 
L 286.240927 175.046216 
L 287.170503 222.94209 
L 287.170503 222.94209 
L 287.867685 286.506754 
L 287.867685 286.506754 
L 288.100079 280.999934 
L 288.100079 280.999934 
L 288.564868 245.72338 
L 288.564868 245.72338 
L 289.029656 228.055629 
L 289.029656 228.055629 
L 289.26205 224.033952 
L 289.26205 224.033952 
L 289.494444 222.108017 
L 289.726838 217.546128 
L 289.726838 217.546128 
L 290.191626 213.688098 
L 290.191626 213.688098 
L 290.656414 205.56996 
L 290.656414 205.56996 
L 290.888808 202.650703 
L 290.888808 202.650703 
L 291.353597 194.20527 
L 291.353597 194.20527 
L 292.050779 185.334881 
L 292.050779 185.334881 
L 292.283173 184.178792 
L 292.283173 184.178792 
L 292.747961 183.359676 
L 292.747961 183.359676 
L 292.980355 184.637181 
L 292.980355 184.637181 
L 293.212749 187.039101 
L 293.212749 187.039101 
L 294.607114 208.281578 
L 294.607114 208.281578 
L 295.071902 211.569482 
L 295.071902 211.569482 
L 295.53669 214.010114 
L 295.53669 214.010114 
L 296.001478 217.109735 
L 296.001478 217.109735 
L 296.466267 221.561646 
L 296.466267 221.561646 
L 297.395843 239.832956 
L 297.395843 239.832956 
L 297.860631 253.155255 
L 297.860631 253.155255 
L 299.254996 293.627172 
L 299.254996 293.627172 
L 299.48739 291.843768 
L 299.48739 291.843768 
L 299.952178 280.102513 
L 299.952178 280.102513 
L 300.64936 268.585613 
L 300.64936 268.585613 
L 301.114149 265.089192 
L 301.114149 265.089192 
L 301.346543 263.64628 
L 301.346543 263.64628 
L 301.578937 263.59789 
L 301.578937 263.59789 
L 301.811331 264.439881 
L 301.811331 264.439881 
L 302.043725 264.440761 
L 302.043725 264.440761 
L 303.205695 270.786934 
L 303.205695 270.786934 
L 303.438089 270.770217 
L 303.438089 270.770217 
L 304.367666 276.041244 
L 304.367666 276.041244 
L 304.60006 278.598893 
L 304.832454 279.009771 
L 304.832454 279.009771 
L 305.064848 281.831368 
L 305.064848 281.831368 
L 305.297242 283.114151 
L 305.297242 283.114151 
L 306.226819 295.026972 
L 306.226819 295.026972 
L 306.459213 293.796098 
L 306.459213 293.796098 
L 309.480336 241.496704 
L 309.480336 241.496704 
L 309.71273 241.924299 
L 309.71273 241.924299 
L 309.945124 238.01436 
L 309.945124 238.01436 
L 310.177518 239.588365 
L 310.177518 239.588365 
L 310.409912 238.221118 
L 310.409912 238.221118 
L 310.642306 241.902303 
L 310.642306 241.902303 
L 310.8747 243.461352 
L 310.8747 243.461352 
L 311.107094 244.013881 
L 311.107094 244.013881 
L 311.339489 251.823201 
L 311.339489 251.823201 
L 311.571883 254.093148 
L 311.571883 254.093148 
L 311.804277 261.961416 
L 311.804277 261.961416 
L 312.036671 264.665116 
L 312.269065 271.483754 
L 312.269065 271.483754 
L 312.501459 274.080996 
L 312.501459 274.080996 
L 312.733853 279.491915 
L 312.733853 279.491915 
L 312.966247 281.380898 
L 312.966247 281.380898 
L 313.198641 281.061521 
L 313.198641 281.061521 
L 313.431035 286.271841 
L 313.431035 286.271841 
L 313.663429 285.188777 
L 313.663429 285.188777 
L 313.895824 288.718632 
L 313.895824 288.718632 
L 314.128218 287.455204 
L 314.128218 287.455204 
L 314.360612 290.013733 
L 314.360612 290.013733 
L 314.593006 288.911314 
L 314.593006 288.911314 
L 314.8254 291.065123 
L 315.057794 290.696477 
L 315.522582 295.488 
L 315.522582 295.488 
L 315.754976 293.239169 
L 315.754976 293.239169 
L 315.98737 293.775862 
L 315.98737 293.775862 
L 316.219764 293.262924 
L 316.219764 293.262924 
L 316.452159 289.544787 
L 316.452159 289.544787 
L 316.684553 288.460844 
L 316.684553 288.460844 
L 316.916947 285.233648 
L 316.916947 285.233648 
L 317.149341 283.947345 
L 317.149341 283.947345 
L 317.381735 283.52063 
L 317.381735 283.52063 
L 317.614129 280.16586 
L 317.614129 280.16586 
L 317.846523 279.544704 
L 317.846523 279.544704 
L 318.078917 276.997613 
L 318.078917 276.997613 
L 318.311311 276.389655 
L 318.311311 276.389655 
L 318.543705 274.580736 
L 318.543705 274.580736 
L 319.008494 273.194133 
L 319.008494 273.194133 
L 319.240888 271.193412 
L 319.240888 271.193412 
L 319.473282 270.280155 
L 319.473282 270.280155 
L 319.93807 267.257079 
L 319.93807 267.257079 
L 320.867646 263.306668 
L 320.867646 263.306668 
L 321.10004 262.608967 
L 321.10004 262.608967 
L 321.332434 262.584332 
L 321.332434 262.584332 
L 321.564829 262.876434 
L 321.564829 262.876434 
L 321.797223 262.941541 
L 321.797223 262.941541 
L 322.494405 265.178054 
L 322.494405 265.178054 
L 324.121164 273.129906 
L 324.121164 273.129906 
L 325.05074 279.730347 
L 325.05074 279.730347 
L 326.909893 295.148388 
L 326.909893 295.148388 
L 327.374681 295.043689 
L 327.374681 295.043689 
L 327.607075 295.248688 
L 327.607075 295.248688 
L 327.839469 293.777622 
L 327.839469 293.777622 
L 328.536651 285.487917 
L 328.536651 285.487917 
L 329.466228 269.70387 
L 329.466228 269.70387 
L 330.16341 258.53802 
L 330.16341 258.53802 
L 330.860592 254.38349 
L 330.860592 254.38349 
L 331.092986 254.1345 
L 331.092986 254.1345 
L 331.32538 254.613124 
L 331.32538 254.613124 
L 332.254957 269.863118 
L 332.254957 269.863118 
L 332.487351 275.484315 
L 332.487351 275.484315 
L 332.952139 293.196058 
L 332.952139 293.196058 
L 333.184533 289.593177 
L 333.184533 289.593177 
L 334.114109 258.341819 
L 334.114109 258.341819 
L 334.578898 248.987528 
L 334.578898 248.987528 
L 335.043686 244.381648 
L 335.043686 244.381648 
L 335.27608 244.301584 
L 335.27608 244.301584 
L 335.740868 243.690986 
L 335.740868 243.690986 
L 335.973262 245.563252 
L 335.973262 245.563252 
L 336.205656 245.579089 
L 336.205656 245.579089 
L 336.43805 246.883868 
L 336.43805 246.883868 
L 336.670444 246.755414 
L 336.670444 246.755414 
L 336.902839 245.494625 
L 336.902839 245.494625 
L 337.135233 246.67271 
L 337.135233 246.67271 
L 337.367627 245.567651 
L 337.367627 245.567651 
L 337.600021 243.27043 
L 337.832415 245.307223 
L 337.832415 245.307223 
L 338.064809 244.405403 
L 338.064809 244.405403 
L 338.297203 242.66599 
L 338.297203 242.66599 
L 338.529597 247.792726 
L 338.529597 247.792726 
L 338.761991 248.371651 
L 338.761991 248.371651 
L 339.226779 257.912465 
L 339.226779 257.912465 
L 339.459174 261.174854 
L 339.459174 261.174854 
L 339.923962 274.66256 
L 339.923962 274.66256 
L 340.38875 287.273081 
L 340.38875 287.273081 
L 340.853538 293.265564 
L 340.853538 293.265564 
L 341.085932 290.494117 
L 341.085932 290.494117 
L 341.318326 286.114352 
L 341.318326 286.114352 
L 341.55072 284.17082 
L 341.55072 284.17082 
L 341.783114 283.584857 
L 341.783114 283.584857 
L 342.015509 279.906312 
L 342.015509 279.906312 
L 342.247903 279.579018 
L 342.247903 279.579018 
L 342.480297 277.393534 
L 342.480297 277.393534 
L 342.712691 276.890275 
L 342.712691 276.890275 
L 342.945085 277.245724 
L 342.945085 277.245724 
L 343.177479 274.368698 
L 343.177479 274.368698 
L 343.409873 274.026447 
L 343.409873 274.026447 
L 343.642267 274.520028 
L 343.642267 274.520028 
L 343.874661 270.918907 
L 343.874661 270.918907 
L 344.107055 270.815088 
L 344.107055 270.815088 
L 344.339449 268.135143 
L 344.339449 268.135143 
L 344.571844 267.748021 
L 344.571844 267.748021 
L 344.804238 268.231044 
L 344.804238 268.231044 
L 345.036632 265.283633 
L 345.036632 265.283633 
L 345.269026 265.571335 
L 345.269026 265.571335 
L 345.50142 263.79497 
L 345.733814 264.04748 
L 345.733814 264.04748 
L 345.966208 265.139342 
L 345.966208 265.139342 
L 346.198602 263.403448 
L 346.198602 263.403448 
L 346.430996 264.130183 
L 346.430996 264.130183 
L 346.66339 265.536142 
L 346.66339 265.536142 
L 346.895784 263.720185 
L 346.895784 263.720185 
L 347.128179 264.920265 
L 347.128179 264.920265 
L 347.360573 264.142501 
L 347.360573 264.142501 
L 347.592967 265.442881 
L 347.825361 267.654759 
L 347.825361 267.654759 
L 348.057755 267.346821 
L 348.057755 267.346821 
L 348.290149 269.697711 
L 348.290149 269.697711 
L 348.522543 270.334704 
L 348.522543 270.334704 
L 348.754937 272.75774 
L 348.754937 272.75774 
L 348.987331 273.993013 
L 348.987331 273.993013 
L 349.916908 283.346425 
L 349.916908 283.346425 
L 350.149302 284.076679 
L 350.149302 284.076679 
L 350.381696 286.200575 
L 350.381696 286.200575 
L 350.61409 286.088837 
L 350.61409 286.088837 
L 350.846484 286.231369 
L 351.078878 286.598256 
L 351.078878 286.598256 
L 351.311272 285.943666 
L 351.311272 285.943666 
L 351.543666 285.636608 
L 351.543666 285.636608 
L 352.008454 283.050804 
L 352.008454 283.050804 
L 352.473243 277.348663 
L 352.473243 277.348663 
L 352.938031 266.290152 
L 352.938031 266.290152 
L 353.402819 250.864193 
L 353.402819 250.864193 
L 353.635213 238.124338 
L 353.635213 238.124338 
L 354.100001 223.599319 
L 354.100001 223.599319 
L 354.332395 210.613113 
L 354.332395 210.613113 
L 354.564789 205.960602 
L 354.564789 205.960602 
L 354.797184 192.09985 
L 354.797184 192.09985 
L 355.029578 191.016787 
L 355.029578 191.016787 
L 355.261972 176.957195 
L 355.261972 176.957195 
L 355.494366 178.377231 
L 355.494366 178.377231 
L 355.72676 176.797947 
L 355.72676 176.797947 
L 355.959154 166.529518 
L 355.959154 166.529518 
L 356.191548 166.635096 
L 356.191548 166.635096 
L 356.423942 154.843692 
L 356.423942 154.843692 
L 356.656336 156.127355 
L 356.656336 156.127355 
L 356.88873 154.439852 
L 356.88873 154.439852 
L 357.121124 144.142389 
L 357.121124 144.142389 
L 357.353519 143.643529 
L 357.353519 143.643529 
L 357.585913 140.793778 
L 357.585913 140.793778 
L 357.818307 133.065402 
L 357.818307 133.065402 
L 358.050701 132.589417 
L 358.050701 132.589417 
L 358.283095 124.351622 
L 358.283095 124.351622 
L 358.747883 131.017171 
L 358.747883 131.017171 
L 358.980277 128.844885 
L 358.980277 128.844885 
L 359.212671 135.047646 
L 359.212671 135.047646 
L 359.445065 131.351504 
L 359.445065 131.351504 
L 359.909854 145.661846 
L 359.909854 145.661846 
L 360.142248 143.642649 
L 360.142248 143.642649 
L 360.374642 149.487322 
L 360.374642 149.487322 
L 360.607036 143.294238 
L 360.607036 143.294238 
L 360.83943 148.409537 
L 360.83943 148.409537 
L 361.071824 149.248889 
L 361.071824 149.248889 
L 361.304218 141.036609 
L 361.304218 141.036609 
L 361.536612 141.172102 
L 361.536612 141.172102 
L 361.769006 128.672439 
L 361.769006 128.672439 
L 362.0014 129.448444 
L 362.233794 127.159141 
L 362.233794 127.159141 
L 362.466189 116.268676 
L 362.466189 116.268676 
L 362.698583 115.629044 
L 362.698583 115.629044 
L 362.930977 103.439079 
L 362.930977 103.439079 
L 363.163371 105.634241 
L 363.163371 105.634241 
L 363.395765 105.671193 
L 363.395765 105.671193 
L 363.628159 98.32554 
L 363.628159 98.32554 
L 363.860553 102.085029 
L 363.860553 102.085029 
L 364.092947 95.327979 
L 364.092947 95.327979 
L 364.557735 109.19049 
L 364.557735 109.19049 
L 364.790129 108.665235 
L 364.790129 108.665235 
L 365.022524 118.168217 
L 365.022524 118.168217 
L 365.254918 118.670597 
L 365.254918 118.670597 
L 365.719706 143.025892 
L 365.719706 143.025892 
L 365.9521 149.331593 
L 365.9521 149.331593 
L 366.416888 168.502084 
L 366.416888 168.502084 
L 366.881676 190.658698 
L 366.881676 190.658698 
L 368.740829 247.030799 
L 368.740829 247.030799 
L 369.438011 263.523984 
L 369.438011 263.523984 
L 370.135194 275.327707 
L 370.135194 275.327707 
L 370.599982 280.301353 
L 370.599982 280.301353 
L 371.06477 282.684797 
L 371.06477 282.684797 
L 371.297164 283.137907 
L 371.297164 283.137907 
L 371.529558 282.808852 
L 371.529558 282.808852 
L 371.761952 283.060482 
L 371.761952 283.060482 
L 371.994346 281.906153 
L 371.994346 281.906153 
L 372.22674 282.046925 
L 372.22674 282.046925 
L 372.459135 280.098114 
L 372.459135 280.098114 
L 372.691529 280.891715 
L 372.691529 280.891715 
L 372.923923 279.098634 
L 372.923923 279.098634 
L 373.156317 280.646244 
L 373.156317 280.646244 
L 373.388711 278.158981 
L 373.621105 279.376658 
L 373.621105 279.376658 
L 373.853499 275.889914 
L 373.853499 275.889914 
L 374.085893 276.183776 
L 374.085893 276.183776 
L 374.318287 271.029765 
L 374.318287 271.029765 
L 374.550681 270.165778 
L 374.550681 270.165778 
L 374.783075 263.860077 
L 374.783075 263.860077 
L 375.01547 262.038841 
L 375.01547 262.038841 
L 375.247864 254.641279 
L 375.480258 251.792408 
L 375.480258 251.792408 
L 375.712652 243.656673 
L 375.712652 243.656673 
L 375.945046 240.547374 
L 375.945046 240.547374 
L 376.17744 232.882345 
L 376.17744 232.882345 
L 376.409834 230.576325 
L 376.409834 230.576325 
L 376.642228 224.460667 
L 376.642228 224.460667 
L 376.874622 223.163806 
L 376.874622 223.163806 
L 377.107016 218.354686 
L 377.107016 218.354686 
L 377.33941 218.492819 
L 377.33941 218.492819 
L 377.571805 215.877101 
L 377.571805 215.877101 
L 377.804199 217.601557 
L 377.804199 217.601557 
L 378.036593 217.210035 
L 378.036593 217.210035 
L 378.501381 223.198999 
L 378.501381 223.198999 
L 378.733775 224.284702 
L 378.733775 224.284702 
L 378.966169 234.40708 
L 378.966169 234.40708 
L 379.198563 238.377727 
L 379.198563 238.377727 
L 379.430957 251.605005 
L 379.430957 251.605005 
L 379.663351 258.329502 
L 379.663351 258.329502 
L 380.12814 283.399215 
L 380.12814 283.399215 
L 380.360534 290.772142 
L 380.360534 290.772142 
L 380.592928 281.086157 
L 380.592928 281.086157 
L 381.057716 257.904547 
L 381.057716 257.904547 
L 381.29011 246.654234 
L 381.29011 246.654234 
L 381.987292 232.625436 
L 381.987292 232.625436 
L 382.219686 229.978924 
L 382.219686 229.978924 
L 382.45208 229.984203 
L 382.45208 229.984203 
L 382.684475 229.579484 
L 382.916869 230.265747 
L 382.916869 230.265747 
L 383.149263 230.369566 
L 383.149263 230.369566 
L 383.381657 232.129215 
L 383.381657 232.129215 
L 383.614051 232.547132 
L 383.614051 232.547132 
L 384.776021 246.62432 
L 384.776021 246.62432 
L 385.937992 272.462119 
L 385.937992 272.462119 
L 386.635174 291.546387 
L 386.635174 291.546387 
L 386.867568 293.064964 
L 386.867568 293.064964 
L 387.099962 295.488 
L 387.099962 295.488 
L 387.332356 280.653283 
L 387.332356 280.653283 
L 388.029539 265.943501 
L 388.029539 265.943501 
L 388.261933 262.184892 
L 388.261933 262.184892 
L 388.959115 257.276352 
L 388.959115 257.276352 
L 389.423903 259.1407 
L 389.423903 259.1407 
L 389.888691 263.501109 
L 389.888691 263.501109 
L 390.121085 266.725665 
L 390.121085 266.725665 
L 391.283056 294.73751 
L 391.283056 294.73751 
L 391.747844 284.341506 
L 391.747844 284.341506 
L 392.909815 257.495428 
L 392.909815 257.495428 
L 393.606997 246.358613 
L 393.606997 246.358613 
L 394.071785 241.387606 
L 394.071785 241.387606 
L 394.304179 239.790725 
L 394.536573 239.171328 
L 394.536573 239.171328 
L 394.768967 238.902982 
L 394.768967 238.902982 
L 395.001361 239.223238 
L 395.233755 240.132097 
L 395.233755 240.132097 
L 395.46615 241.629557 
L 395.46615 241.629557 
L 395.930938 248.119141 
L 395.930938 248.119141 
L 396.395726 257.791929 
L 396.395726 257.791929 
L 396.860514 271.282275 
L 396.860514 271.282275 
L 397.092908 278.674558 
L 397.092908 278.674558 
L 397.325302 295.488 
L 397.325302 295.488 
L 397.557696 293.992299 
L 397.557696 293.992299 
L 397.79009 287.466642 
L 397.79009 287.466642 
L 398.254879 253.779931 
L 398.254879 253.779931 
L 398.487273 216.08474 
L 398.487273 216.08474 
" clip-path="url(#p573f2bf246)" style="fill: none; stroke: #1f77b4; stroke-width: 1.5; stroke-linecap: square"/>
   </g>
   <g id="patch_3">
    <path d="M 57.6 307.584 
L 57.6 41.472 
" style="fill: none; stroke: #000000; stroke-width: 0.8; stroke-linejoin: miter; stroke-linecap: square"/>
   </g>
   <g id="patch_4">
    <path d="M 414.72 307.584 
L 414.72 41.472 
" style="fill: none; stroke: #000000; stroke-width: 0.8; stroke-linejoin: miter; stroke-linecap: square"/>
   </g>
   <g id="patch_5">
    <path d="M 57.6 307.584 
L 414.72 307.584 
" style="fill: none; stroke: #000000; stroke-width: 0.8; stroke-linejoin: miter; stroke-linecap: square"/>
   </g>
   <g id="patch_6">
    <path d="M 57.6 41.472 
L 414.72 41.472 
" style="fill: none; stroke: #000000; stroke-width: 0.8; stroke-linejoin: miter; stroke-linecap: square"/>
   </g>
   <g id="text_15">
    <!-- Tracking error vs Time -->
    <g transform="translate(169.584375 35.472) scale(0.12 -0.12)">
     <defs>
      <path id="DejaVuSans-76" d="M 191 3500 
L 800 3500 
L 1894 563 
L 2988 3500 
L 3597 3500 
L 2284 0 
L 1503 0 
L 191 3500 
z
" transform="scale(0.015625)"/>
     </defs>
     <use xlink:href="#DejaVuSans-54"/>
     <use xlink:href="#DejaVuSans-72" x="46.333984"/>
     <use xlink:href="#DejaVuSans-61" x="87.447266"/>
     <use xlink:href="#DejaVuSans-63" x="148.726562"/>
     <use xlink:href="#DejaVuSans-6b" x="203.707031"/>
     <use xlink:href="#DejaVuSans-69" x="261.617188"/>
     <use xlink:href="#DejaVuSans-6e" x="289.400391"/>
     <use xlink:href="#DejaVuSans-67" x="352.779297"/>
     <use xlink:href="#DejaVuSans-20" x="416.255859"/>
     <use xlink:href="#DejaVuSans-65" x="448.042969"/>
     <use xlink:href="#DejaVuSans-72" x="509.566406"/>
     <use xlink:href="#DejaVuSans-72" x="548.929688"/>
     <use xlink:href="#DejaVuSans-6f" x="587.792969"/>
     <use xlink:href="#DejaVuSans-72" x="648.974609"/>
     <use xlink:href="#DejaVuSans-20" x="690.087891"/>
     <use xlink:href="#DejaVuSans-76" x="721.875"/>
     <use xlink:href="#DejaVuSans-73" x="781.054688"/>
     <use xlink:href="#DejaVuSans-20" x="833.154297"/>
     <use xlink:href="#DejaVuSans-54" x="864.941406"/>
     <use xlink:href="#DejaVuSans-69" x="922.900391"/>
     <use xlink:href="#DejaVuSans-6d" x="950.683594"/>
     <use xlink:href="#DejaVuSans-65" x="1048.095703"/>
    </g>
   </g>
   <g id="legend_1">
    <g id="patch_7">
     <path d="M 311.00125 64.150125 
L 407.72 64.150125 
Q 409.72 64.150125 409.72 62.150125 
L 409.72 48.472 
Q 409.72 46.472 407.72 46.472 
L 311.00125 46.472 
Q 309.00125 46.472 309.00125 48.472 
L 309.00125 62.150125 
Q 309.00125 64.150125 311.00125 64.150125 
z
" style="fill: #ffffff; opacity: 0.8; stroke: #cccccc; stroke-linejoin: miter"/>
    </g>
    <g id="line2d_26">
     <path d="M 313.00125 54.570438 
L 323.00125 54.570438 
L 333.00125 54.570438 
" style="fill: none; stroke: #1f77b4; stroke-width: 1.5; stroke-linecap: square"/>
    </g>
    <g id="text_16">
     <!-- Actual speed -->
     <g transform="translate(341.00125 58.070438) scale(0.1 -0.1)">
      <defs>
       <path id="DejaVuSans-41" d="M 2188 4044 
L 1331 1722 
L 3047 1722 
L 2188 4044 
z
M 1831 4666 
L 2547 4666 
L 4325 0 
L 3669 0 
L 3244 1197 
L 1141 1197 
L 716 0 
L 50 0 
L 1831 4666 
z
" transform="scale(0.015625)"/>
       <path id="DejaVuSans-74" d="M 1172 4494 
L 1172 3500 
L 2356 3500 
L 2356 3053 
L 1172 3053 
L 1172 1153 
Q 1172 725 1289 603 
Q 1406 481 1766 481 
L 2356 481 
L 2356 0 
L 1766 0 
Q 1100 0 847 248 
Q 594 497 594 1153 
L 594 3053 
L 172 3053 
L 172 3500 
L 594 3500 
L 594 4494 
L 1172 4494 
z
" transform="scale(0.015625)"/>
       <path id="DejaVuSans-75" d="M 544 1381 
L 544 3500 
L 1119 3500 
L 1119 1403 
Q 1119 906 1312 657 
Q 1506 409 1894 409 
Q 2359 409 2629 706 
Q 2900 1003 2900 1516 
L 2900 3500 
L 3475 3500 
L 3475 0 
L 2900 0 
L 2900 538 
Q 2691 219 2414 64 
Q 2138 -91 1772 -91 
Q 1169 -91 856 284 
Q 544 659 544 1381 
z
M 1991 3584 
L 1991 3584 
z
" transform="scale(0.015625)"/>
       <path id="DejaVuSans-6c" d="M 603 4863 
L 1178 4863 
L 1178 0 
L 603 0 
L 603 4863 
z
" transform="scale(0.015625)"/>
       <path id="DejaVuSans-70" d="M 1159 525 
L 1159 -1331 
L 581 -1331 
L 581 3500 
L 1159 3500 
L 1159 2969 
Q 1341 3281 1617 3432 
Q 1894 3584 2278 3584 
Q 2916 3584 3314 3078 
Q 3713 2572 3713 1747 
Q 3713 922 3314 415 
Q 2916 -91 2278 -91 
Q 1894 -91 1617 61 
Q 1341 213 1159 525 
z
M 3116 1747 
Q 3116 2381 2855 2742 
Q 2594 3103 2138 3103 
Q 1681 3103 1420 2742 
Q 1159 2381 1159 1747 
Q 1159 1113 1420 752 
Q 1681 391 2138 391 
Q 2594 391 2855 752 
Q 3116 1113 3116 1747 
z
" transform="scale(0.015625)"/>
       <path id="DejaVuSans-64" d="M 2906 2969 
L 2906 4863 
L 3481 4863 
L 3481 0 
L 2906 0 
L 2906 525 
Q 2725 213 2448 61 
Q 2172 -91 1784 -91 
Q 1150 -91 751 415 
Q 353 922 353 1747 
Q 353 2572 751 3078 
Q 1150 3584 1784 3584 
Q 2172 3584 2448 3432 
Q 2725 3281 2906 2969 
z
M 947 1747 
Q 947 1113 1208 752 
Q 1469 391 1925 391 
Q 2381 391 2643 752 
Q 2906 1113 2906 1747 
Q 2906 2381 2643 2742 
Q 2381 3103 1925 3103 
Q 1469 3103 1208 2742 
Q 947 2381 947 1747 
z
" transform="scale(0.015625)"/>
      </defs>
      <use xlink:href="#DejaVuSans-41"/>
      <use xlink:href="#DejaVuSans-63" x="66.658203"/>
      <use xlink:href="#DejaVuSans-74" x="121.638672"/>
      <use xlink:href="#DejaVuSans-75" x="160.847656"/>
      <use xlink:href="#DejaVuSans-61" x="224.226562"/>
      <use xlink:href="#DejaVuSans-6c" x="285.505859"/>
      <use xlink:href="#DejaVuSans-20" x="313.289062"/>
      <use xlink:href="#DejaVuSans-73" x="345.076172"/>
      <use xlink:href="#DejaVuSans-70" x="397.175781"/>
      <use xlink:href="#DejaVuSans-65" x="460.652344"/>
      <use xlink:href="#DejaVuSans-65" x="522.175781"/>
      <use xlink:href="#DejaVuSans-64" x="583.699219"/>
     </g>
    </g>
   </g>
  </g>
 </g>
 <defs>
  <clipPath id="p573f2bf246">
   <rect x="57.6" y="41.472" width="357.12" height="266.112"/>
  </clipPath>
 </defs>
</svg>
