<?xml version="1.0" encoding="utf-8" standalone="no"?>
<!DOCTYPE svg PUBLIC "-//W3C//DTD SVG 1.1//EN"
  "http://www.w3.org/Graphics/SVG/1.1/DTD/svg11.dtd">
<svg xmlns:xlink="http://www.w3.org/1999/xlink" width="460.8pt" height="345.6pt" viewBox="0 0 460.8 345.6" xmlns="http://www.w3.org/2000/svg" version="1.1">
 <metadata>
  <rdf:RDF xmlns:dc="http://purl.org/dc/elements/1.1/" xmlns:cc="http://creativecommons.org/ns#" xmlns:rdf="http://www.w3.org/1999/02/22-rdf-syntax-ns#">
   <cc:Work>
    <dc:type rdf:resource="http://purl.org/dc/dcmitype/StillImage"/>
    <dc:date>2024-01-30T20:58:08.914210</dc:date>
    <dc:format>image/svg+xml</dc:format>
    <dc:creator>
     <cc:Agent>
      <dc:title>Matplotlib v3.7.1, https://matplotlib.org/</dc:title>
     </cc:Agent>
    </dc:creator>
   </cc:Work>
  </rdf:RDF>
 </metadata>
 <defs>
  <style type="text/css">*{stroke-linejoin: round; stroke-linecap: butt}</style>
 </defs>
 <g id="figure_1">
  <g id="patch_1">
   <path d="M 0 345.6 
L 460.8 345.6 
L 460.8 0 
L 0 0 
z
" style="fill: #ffffff"/>
  </g>
  <g id="axes_1">
   <g id="patch_2">
    <path d="M 57.6 307.584 
L 414.72 307.584 
L 414.72 41.472 
L 57.6 41.472 
z
" style="fill: #ffffff"/>
   </g>
   <g id="matplotlib.axis_1">
    <g id="xtick_1">
     <g id="line2d_1">
      <path d="M 73.832727 307.584 
L 73.832727 41.472 
" clip-path="url(#p3ee782db18)" style="fill: none; stroke: #b0b0b0; stroke-width: 0.8; stroke-linecap: square"/>
     </g>
     <g id="line2d_2">
      <defs>
       <path id="m41ae235653" d="M 0 0 
L 0 3.5 
" style="stroke: #000000; stroke-width: 0.8"/>
      </defs>
      <g>
       <use xlink:href="#m41ae235653" x="73.832727" y="307.584" style="stroke: #000000; stroke-width: 0.8"/>
      </g>
     </g>
     <g id="text_1">
      <!-- 0 -->
      <g transform="translate(70.651477 322.182437) scale(0.1 -0.1)">
       <defs>
        <path id="DejaVuSans-30" d="M 2034 4250 
Q 1547 4250 1301 3770 
Q 1056 3291 1056 2328 
Q 1056 1369 1301 889 
Q 1547 409 2034 409 
Q 2525 409 2770 889 
Q 3016 1369 3016 2328 
Q 3016 3291 2770 3770 
Q 2525 4250 2034 4250 
z
M 2034 4750 
Q 2819 4750 3233 4129 
Q 3647 3509 3647 2328 
Q 3647 1150 3233 529 
Q 2819 -91 2034 -91 
Q 1250 -91 836 529 
Q 422 1150 422 2328 
Q 422 3509 836 4129 
Q 1250 4750 2034 4750 
z
" transform="scale(0.015625)"/>
       </defs>
       <use xlink:href="#DejaVuSans-30"/>
      </g>
     </g>
    </g>
    <g id="xtick_2">
     <g id="line2d_3">
      <path d="M 125.332497 307.584 
L 125.332497 41.472 
" clip-path="url(#p3ee782db18)" style="fill: none; stroke: #b0b0b0; stroke-width: 0.8; stroke-linecap: square"/>
     </g>
     <g id="line2d_4">
      <g>
       <use xlink:href="#m41ae235653" x="125.332497" y="307.584" style="stroke: #000000; stroke-width: 0.8"/>
      </g>
     </g>
     <g id="text_2">
      <!-- 5 -->
      <g transform="translate(122.151247 322.182437) scale(0.1 -0.1)">
       <defs>
        <path id="DejaVuSans-35" d="M 691 4666 
L 3169 4666 
L 3169 4134 
L 1269 4134 
L 1269 2991 
Q 1406 3038 1543 3061 
Q 1681 3084 1819 3084 
Q 2600 3084 3056 2656 
Q 3513 2228 3513 1497 
Q 3513 744 3044 326 
Q 2575 -91 1722 -91 
Q 1428 -91 1123 -41 
Q 819 9 494 109 
L 494 744 
Q 775 591 1075 516 
Q 1375 441 1709 441 
Q 2250 441 2565 725 
Q 2881 1009 2881 1497 
Q 2881 1984 2565 2268 
Q 2250 2553 1709 2553 
Q 1456 2553 1204 2497 
Q 953 2441 691 2322 
L 691 4666 
z
" transform="scale(0.015625)"/>
       </defs>
       <use xlink:href="#DejaVuSans-35"/>
      </g>
     </g>
    </g>
    <g id="xtick_3">
     <g id="line2d_5">
      <path d="M 176.832266 307.584 
L 176.832266 41.472 
" clip-path="url(#p3ee782db18)" style="fill: none; stroke: #b0b0b0; stroke-width: 0.8; stroke-linecap: square"/>
     </g>
     <g id="line2d_6">
      <g>
       <use xlink:href="#m41ae235653" x="176.832266" y="307.584" style="stroke: #000000; stroke-width: 0.8"/>
      </g>
     </g>
     <g id="text_3">
      <!-- 10 -->
      <g transform="translate(170.469766 322.182437) scale(0.1 -0.1)">
       <defs>
        <path id="DejaVuSans-31" d="M 794 531 
L 1825 531 
L 1825 4091 
L 703 3866 
L 703 4441 
L 1819 4666 
L 2450 4666 
L 2450 531 
L 3481 531 
L 3481 0 
L 794 0 
L 794 531 
z
" transform="scale(0.015625)"/>
       </defs>
       <use xlink:href="#DejaVuSans-31"/>
       <use xlink:href="#DejaVuSans-30" x="63.623047"/>
      </g>
     </g>
    </g>
    <g id="xtick_4">
     <g id="line2d_7">
      <path d="M 228.332035 307.584 
L 228.332035 41.472 
" clip-path="url(#p3ee782db18)" style="fill: none; stroke: #b0b0b0; stroke-width: 0.8; stroke-linecap: square"/>
     </g>
     <g id="line2d_8">
      <g>
       <use xlink:href="#m41ae235653" x="228.332035" y="307.584" style="stroke: #000000; stroke-width: 0.8"/>
      </g>
     </g>
     <g id="text_4">
      <!-- 15 -->
      <g transform="translate(221.969535 322.182437) scale(0.1 -0.1)">
       <use xlink:href="#DejaVuSans-31"/>
       <use xlink:href="#DejaVuSans-35" x="63.623047"/>
      </g>
     </g>
    </g>
    <g id="xtick_5">
     <g id="line2d_9">
      <path d="M 279.831804 307.584 
L 279.831804 41.472 
" clip-path="url(#p3ee782db18)" style="fill: none; stroke: #b0b0b0; stroke-width: 0.8; stroke-linecap: square"/>
     </g>
     <g id="line2d_10">
      <g>
       <use xlink:href="#m41ae235653" x="279.831804" y="307.584" style="stroke: #000000; stroke-width: 0.8"/>
      </g>
     </g>
     <g id="text_5">
      <!-- 20 -->
      <g transform="translate(273.469304 322.182437) scale(0.1 -0.1)">
       <defs>
        <path id="DejaVuSans-32" d="M 1228 531 
L 3431 531 
L 3431 0 
L 469 0 
L 469 531 
Q 828 903 1448 1529 
Q 2069 2156 2228 2338 
Q 2531 2678 2651 2914 
Q 2772 3150 2772 3378 
Q 2772 3750 2511 3984 
Q 2250 4219 1831 4219 
Q 1534 4219 1204 4116 
Q 875 4013 500 3803 
L 500 4441 
Q 881 4594 1212 4672 
Q 1544 4750 1819 4750 
Q 2544 4750 2975 4387 
Q 3406 4025 3406 3419 
Q 3406 3131 3298 2873 
Q 3191 2616 2906 2266 
Q 2828 2175 2409 1742 
Q 1991 1309 1228 531 
z
" transform="scale(0.015625)"/>
       </defs>
       <use xlink:href="#DejaVuSans-32"/>
       <use xlink:href="#DejaVuSans-30" x="63.623047"/>
      </g>
     </g>
    </g>
    <g id="xtick_6">
     <g id="line2d_11">
      <path d="M 331.331574 307.584 
L 331.331574 41.472 
" clip-path="url(#p3ee782db18)" style="fill: none; stroke: #b0b0b0; stroke-width: 0.8; stroke-linecap: square"/>
     </g>
     <g id="line2d_12">
      <g>
       <use xlink:href="#m41ae235653" x="331.331574" y="307.584" style="stroke: #000000; stroke-width: 0.8"/>
      </g>
     </g>
     <g id="text_6">
      <!-- 25 -->
      <g transform="translate(324.969074 322.182437) scale(0.1 -0.1)">
       <use xlink:href="#DejaVuSans-32"/>
       <use xlink:href="#DejaVuSans-35" x="63.623047"/>
      </g>
     </g>
    </g>
    <g id="xtick_7">
     <g id="line2d_13">
      <path d="M 382.831343 307.584 
L 382.831343 41.472 
" clip-path="url(#p3ee782db18)" style="fill: none; stroke: #b0b0b0; stroke-width: 0.8; stroke-linecap: square"/>
     </g>
     <g id="line2d_14">
      <g>
       <use xlink:href="#m41ae235653" x="382.831343" y="307.584" style="stroke: #000000; stroke-width: 0.8"/>
      </g>
     </g>
     <g id="text_7">
      <!-- 30 -->
      <g transform="translate(376.468843 322.182437) scale(0.1 -0.1)">
       <defs>
        <path id="DejaVuSans-33" d="M 2597 2516 
Q 3050 2419 3304 2112 
Q 3559 1806 3559 1356 
Q 3559 666 3084 287 
Q 2609 -91 1734 -91 
Q 1441 -91 1130 -33 
Q 819 25 488 141 
L 488 750 
Q 750 597 1062 519 
Q 1375 441 1716 441 
Q 2309 441 2620 675 
Q 2931 909 2931 1356 
Q 2931 1769 2642 2001 
Q 2353 2234 1838 2234 
L 1294 2234 
L 1294 2753 
L 1863 2753 
Q 2328 2753 2575 2939 
Q 2822 3125 2822 3475 
Q 2822 3834 2567 4026 
Q 2313 4219 1838 4219 
Q 1578 4219 1281 4162 
Q 984 4106 628 3988 
L 628 4550 
Q 988 4650 1302 4700 
Q 1616 4750 1894 4750 
Q 2613 4750 3031 4423 
Q 3450 4097 3450 3541 
Q 3450 3153 3228 2886 
Q 3006 2619 2597 2516 
z
" transform="scale(0.015625)"/>
       </defs>
       <use xlink:href="#DejaVuSans-33"/>
       <use xlink:href="#DejaVuSans-30" x="63.623047"/>
      </g>
     </g>
    </g>
    <g id="text_8">
     <!-- Time(s) -->
     <g transform="translate(217.420156 335.860562) scale(0.1 -0.1)">
      <defs>
       <path id="DejaVuSans-54" d="M -19 4666 
L 3928 4666 
L 3928 4134 
L 2272 4134 
L 2272 0 
L 1638 0 
L 1638 4134 
L -19 4134 
L -19 4666 
z
" transform="scale(0.015625)"/>
       <path id="DejaVuSans-69" d="M 603 3500 
L 1178 3500 
L 1178 0 
L 603 0 
L 603 3500 
z
M 603 4863 
L 1178 4863 
L 1178 4134 
L 603 4134 
L 603 4863 
z
" transform="scale(0.015625)"/>
       <path id="DejaVuSans-6d" d="M 3328 2828 
Q 3544 3216 3844 3400 
Q 4144 3584 4550 3584 
Q 5097 3584 5394 3201 
Q 5691 2819 5691 2113 
L 5691 0 
L 5113 0 
L 5113 2094 
Q 5113 2597 4934 2840 
Q 4756 3084 4391 3084 
Q 3944 3084 3684 2787 
Q 3425 2491 3425 1978 
L 3425 0 
L 2847 0 
L 2847 2094 
Q 2847 2600 2669 2842 
Q 2491 3084 2119 3084 
Q 1678 3084 1418 2786 
Q 1159 2488 1159 1978 
L 1159 0 
L 581 0 
L 581 3500 
L 1159 3500 
L 1159 2956 
Q 1356 3278 1631 3431 
Q 1906 3584 2284 3584 
Q 2666 3584 2933 3390 
Q 3200 3197 3328 2828 
z
" transform="scale(0.015625)"/>
       <path id="DejaVuSans-65" d="M 3597 1894 
L 3597 1613 
L 953 1613 
Q 991 1019 1311 708 
Q 1631 397 2203 397 
Q 2534 397 2845 478 
Q 3156 559 3463 722 
L 3463 178 
Q 3153 47 2828 -22 
Q 2503 -91 2169 -91 
Q 1331 -91 842 396 
Q 353 884 353 1716 
Q 353 2575 817 3079 
Q 1281 3584 2069 3584 
Q 2775 3584 3186 3129 
Q 3597 2675 3597 1894 
z
M 3022 2063 
Q 3016 2534 2758 2815 
Q 2500 3097 2075 3097 
Q 1594 3097 1305 2825 
Q 1016 2553 972 2059 
L 3022 2063 
z
" transform="scale(0.015625)"/>
       <path id="DejaVuSans-28" d="M 1984 4856 
Q 1566 4138 1362 3434 
Q 1159 2731 1159 2009 
Q 1159 1288 1364 580 
Q 1569 -128 1984 -844 
L 1484 -844 
Q 1016 -109 783 600 
Q 550 1309 550 2009 
Q 550 2706 781 3412 
Q 1013 4119 1484 4856 
L 1984 4856 
z
" transform="scale(0.015625)"/>
       <path id="DejaVuSans-73" d="M 2834 3397 
L 2834 2853 
Q 2591 2978 2328 3040 
Q 2066 3103 1784 3103 
Q 1356 3103 1142 2972 
Q 928 2841 928 2578 
Q 928 2378 1081 2264 
Q 1234 2150 1697 2047 
L 1894 2003 
Q 2506 1872 2764 1633 
Q 3022 1394 3022 966 
Q 3022 478 2636 193 
Q 2250 -91 1575 -91 
Q 1294 -91 989 -36 
Q 684 19 347 128 
L 347 722 
Q 666 556 975 473 
Q 1284 391 1588 391 
Q 1994 391 2212 530 
Q 2431 669 2431 922 
Q 2431 1156 2273 1281 
Q 2116 1406 1581 1522 
L 1381 1569 
Q 847 1681 609 1914 
Q 372 2147 372 2553 
Q 372 3047 722 3315 
Q 1072 3584 1716 3584 
Q 2034 3584 2315 3537 
Q 2597 3491 2834 3397 
z
" transform="scale(0.015625)"/>
       <path id="DejaVuSans-29" d="M 513 4856 
L 1013 4856 
Q 1481 4119 1714 3412 
Q 1947 2706 1947 2009 
Q 1947 1309 1714 600 
Q 1481 -109 1013 -844 
L 513 -844 
Q 928 -128 1133 580 
Q 1338 1288 1338 2009 
Q 1338 2731 1133 3434 
Q 928 4138 513 4856 
z
" transform="scale(0.015625)"/>
      </defs>
      <use xlink:href="#DejaVuSans-54"/>
      <use xlink:href="#DejaVuSans-69" x="57.958984"/>
      <use xlink:href="#DejaVuSans-6d" x="85.742188"/>
      <use xlink:href="#DejaVuSans-65" x="183.154297"/>
      <use xlink:href="#DejaVuSans-28" x="244.677734"/>
      <use xlink:href="#DejaVuSans-73" x="283.691406"/>
      <use xlink:href="#DejaVuSans-29" x="335.791016"/>
     </g>
    </g>
   </g>
   <g id="matplotlib.axis_2">
    <g id="ytick_1">
     <g id="line2d_15">
      <path d="M 57.6 295.488 
L 414.72 295.488 
" clip-path="url(#p3ee782db18)" style="fill: none; stroke: #b0b0b0; stroke-width: 0.8; stroke-linecap: square"/>
     </g>
     <g id="line2d_16">
      <defs>
       <path id="mb6770556c7" d="M 0 0 
L -3.5 0 
" style="stroke: #000000; stroke-width: 0.8"/>
      </defs>
      <g>
       <use xlink:href="#mb6770556c7" x="57.6" y="295.488" style="stroke: #000000; stroke-width: 0.8"/>
      </g>
     </g>
     <g id="text_9">
      <!-- 0.00 -->
      <g transform="translate(28.334375 299.287219) scale(0.1 -0.1)">
       <defs>
        <path id="DejaVuSans-2e" d="M 684 794 
L 1344 794 
L 1344 0 
L 684 0 
L 684 794 
z
" transform="scale(0.015625)"/>
       </defs>
       <use xlink:href="#DejaVuSans-30"/>
       <use xlink:href="#DejaVuSans-2e" x="63.623047"/>
       <use xlink:href="#DejaVuSans-30" x="95.410156"/>
       <use xlink:href="#DejaVuSans-30" x="159.033203"/>
      </g>
     </g>
    </g>
    <g id="ytick_2">
     <g id="line2d_17">
      <path d="M 57.6 257.340019 
L 414.72 257.340019 
" clip-path="url(#p3ee782db18)" style="fill: none; stroke: #b0b0b0; stroke-width: 0.8; stroke-linecap: square"/>
     </g>
     <g id="line2d_18">
      <g>
       <use xlink:href="#mb6770556c7" x="57.6" y="257.340019" style="stroke: #000000; stroke-width: 0.8"/>
      </g>
     </g>
     <g id="text_10">
      <!-- 0.05 -->
      <g transform="translate(28.334375 261.139238) scale(0.1 -0.1)">
       <use xlink:href="#DejaVuSans-30"/>
       <use xlink:href="#DejaVuSans-2e" x="63.623047"/>
       <use xlink:href="#DejaVuSans-30" x="95.410156"/>
       <use xlink:href="#DejaVuSans-35" x="159.033203"/>
      </g>
     </g>
    </g>
    <g id="ytick_3">
     <g id="line2d_19">
      <path d="M 57.6 219.192038 
L 414.72 219.192038 
" clip-path="url(#p3ee782db18)" style="fill: none; stroke: #b0b0b0; stroke-width: 0.8; stroke-linecap: square"/>
     </g>
     <g id="line2d_20">
      <g>
       <use xlink:href="#mb6770556c7" x="57.6" y="219.192038" style="stroke: #000000; stroke-width: 0.8"/>
      </g>
     </g>
     <g id="text_11">
      <!-- 0.10 -->
      <g transform="translate(28.334375 222.991257) scale(0.1 -0.1)">
       <use xlink:href="#DejaVuSans-30"/>
       <use xlink:href="#DejaVuSans-2e" x="63.623047"/>
       <use xlink:href="#DejaVuSans-31" x="95.410156"/>
       <use xlink:href="#DejaVuSans-30" x="159.033203"/>
      </g>
     </g>
    </g>
    <g id="ytick_4">
     <g id="line2d_21">
      <path d="M 57.6 181.044057 
L 414.72 181.044057 
" clip-path="url(#p3ee782db18)" style="fill: none; stroke: #b0b0b0; stroke-width: 0.8; stroke-linecap: square"/>
     </g>
     <g id="line2d_22">
      <g>
       <use xlink:href="#mb6770556c7" x="57.6" y="181.044057" style="stroke: #000000; stroke-width: 0.8"/>
      </g>
     </g>
     <g id="text_12">
      <!-- 0.15 -->
      <g transform="translate(28.334375 184.843275) scale(0.1 -0.1)">
       <use xlink:href="#DejaVuSans-30"/>
       <use xlink:href="#DejaVuSans-2e" x="63.623047"/>
       <use xlink:href="#DejaVuSans-31" x="95.410156"/>
       <use xlink:href="#DejaVuSans-35" x="159.033203"/>
      </g>
     </g>
    </g>
    <g id="ytick_5">
     <g id="line2d_23">
      <path d="M 57.6 142.896076 
L 414.72 142.896076 
" clip-path="url(#p3ee782db18)" style="fill: none; stroke: #b0b0b0; stroke-width: 0.8; stroke-linecap: square"/>
     </g>
     <g id="line2d_24">
      <g>
       <use xlink:href="#mb6770556c7" x="57.6" y="142.896076" style="stroke: #000000; stroke-width: 0.8"/>
      </g>
     </g>
     <g id="text_13">
      <!-- 0.20 -->
      <g transform="translate(28.334375 146.695294) scale(0.1 -0.1)">
       <use xlink:href="#DejaVuSans-30"/>
       <use xlink:href="#DejaVuSans-2e" x="63.623047"/>
       <use xlink:href="#DejaVuSans-32" x="95.410156"/>
       <use xlink:href="#DejaVuSans-30" x="159.033203"/>
      </g>
     </g>
    </g>
    <g id="ytick_6">
     <g id="line2d_25">
      <path d="M 57.6 104.748094 
L 414.72 104.748094 
" clip-path="url(#p3ee782db18)" style="fill: none; stroke: #b0b0b0; stroke-width: 0.8; stroke-linecap: square"/>
     </g>
     <g id="line2d_26">
      <g>
       <use xlink:href="#mb6770556c7" x="57.6" y="104.748094" style="stroke: #000000; stroke-width: 0.8"/>
      </g>
     </g>
     <g id="text_14">
      <!-- 0.25 -->
      <g transform="translate(28.334375 108.547313) scale(0.1 -0.1)">
       <use xlink:href="#DejaVuSans-30"/>
       <use xlink:href="#DejaVuSans-2e" x="63.623047"/>
       <use xlink:href="#DejaVuSans-32" x="95.410156"/>
       <use xlink:href="#DejaVuSans-35" x="159.033203"/>
      </g>
     </g>
    </g>
    <g id="ytick_7">
     <g id="line2d_27">
      <path d="M 57.6 66.600113 
L 414.72 66.600113 
" clip-path="url(#p3ee782db18)" style="fill: none; stroke: #b0b0b0; stroke-width: 0.8; stroke-linecap: square"/>
     </g>
     <g id="line2d_28">
      <g>
       <use xlink:href="#mb6770556c7" x="57.6" y="66.600113" style="stroke: #000000; stroke-width: 0.8"/>
      </g>
     </g>
     <g id="text_15">
      <!-- 0.30 -->
      <g transform="translate(28.334375 70.399332) scale(0.1 -0.1)">
       <use xlink:href="#DejaVuSans-30"/>
       <use xlink:href="#DejaVuSans-2e" x="63.623047"/>
       <use xlink:href="#DejaVuSans-33" x="95.410156"/>
       <use xlink:href="#DejaVuSans-30" x="159.033203"/>
      </g>
     </g>
    </g>
    <g id="text_16">
     <!-- Tracking error(m) -->
     <g transform="translate(22.254687 217.803781) rotate(-90) scale(0.1 -0.1)">
      <defs>
       <path id="DejaVuSans-72" d="M 2631 2963 
Q 2534 3019 2420 3045 
Q 2306 3072 2169 3072 
Q 1681 3072 1420 2755 
Q 1159 2438 1159 1844 
L 1159 0 
L 581 0 
L 581 3500 
L 1159 3500 
L 1159 2956 
Q 1341 3275 1631 3429 
Q 1922 3584 2338 3584 
Q 2397 3584 2469 3576 
Q 2541 3569 2628 3553 
L 2631 2963 
z
" transform="scale(0.015625)"/>
       <path id="DejaVuSans-61" d="M 2194 1759 
Q 1497 1759 1228 1600 
Q 959 1441 959 1056 
Q 959 750 1161 570 
Q 1363 391 1709 391 
Q 2188 391 2477 730 
Q 2766 1069 2766 1631 
L 2766 1759 
L 2194 1759 
z
M 3341 1997 
L 3341 0 
L 2766 0 
L 2766 531 
Q 2569 213 2275 61 
Q 1981 -91 1556 -91 
Q 1019 -91 701 211 
Q 384 513 384 1019 
Q 384 1609 779 1909 
Q 1175 2209 1959 2209 
L 2766 2209 
L 2766 2266 
Q 2766 2663 2505 2880 
Q 2244 3097 1772 3097 
Q 1472 3097 1187 3025 
Q 903 2953 641 2809 
L 641 3341 
Q 956 3463 1253 3523 
Q 1550 3584 1831 3584 
Q 2591 3584 2966 3190 
Q 3341 2797 3341 1997 
z
" transform="scale(0.015625)"/>
       <path id="DejaVuSans-63" d="M 3122 3366 
L 3122 2828 
Q 2878 2963 2633 3030 
Q 2388 3097 2138 3097 
Q 1578 3097 1268 2742 
Q 959 2388 959 1747 
Q 959 1106 1268 751 
Q 1578 397 2138 397 
Q 2388 397 2633 464 
Q 2878 531 3122 666 
L 3122 134 
Q 2881 22 2623 -34 
Q 2366 -91 2075 -91 
Q 1284 -91 818 406 
Q 353 903 353 1747 
Q 353 2603 823 3093 
Q 1294 3584 2113 3584 
Q 2378 3584 2631 3529 
Q 2884 3475 3122 3366 
z
" transform="scale(0.015625)"/>
       <path id="DejaVuSans-6b" d="M 581 4863 
L 1159 4863 
L 1159 1991 
L 2875 3500 
L 3609 3500 
L 1753 1863 
L 3688 0 
L 2938 0 
L 1159 1709 
L 1159 0 
L 581 0 
L 581 4863 
z
" transform="scale(0.015625)"/>
       <path id="DejaVuSans-6e" d="M 3513 2113 
L 3513 0 
L 2938 0 
L 2938 2094 
Q 2938 2591 2744 2837 
Q 2550 3084 2163 3084 
Q 1697 3084 1428 2787 
Q 1159 2491 1159 1978 
L 1159 0 
L 581 0 
L 581 3500 
L 1159 3500 
L 1159 2956 
Q 1366 3272 1645 3428 
Q 1925 3584 2291 3584 
Q 2894 3584 3203 3211 
Q 3513 2838 3513 2113 
z
" transform="scale(0.015625)"/>
       <path id="DejaVuSans-67" d="M 2906 1791 
Q 2906 2416 2648 2759 
Q 2391 3103 1925 3103 
Q 1463 3103 1205 2759 
Q 947 2416 947 1791 
Q 947 1169 1205 825 
Q 1463 481 1925 481 
Q 2391 481 2648 825 
Q 2906 1169 2906 1791 
z
M 3481 434 
Q 3481 -459 3084 -895 
Q 2688 -1331 1869 -1331 
Q 1566 -1331 1297 -1286 
Q 1028 -1241 775 -1147 
L 775 -588 
Q 1028 -725 1275 -790 
Q 1522 -856 1778 -856 
Q 2344 -856 2625 -561 
Q 2906 -266 2906 331 
L 2906 616 
Q 2728 306 2450 153 
Q 2172 0 1784 0 
Q 1141 0 747 490 
Q 353 981 353 1791 
Q 353 2603 747 3093 
Q 1141 3584 1784 3584 
Q 2172 3584 2450 3431 
Q 2728 3278 2906 2969 
L 2906 3500 
L 3481 3500 
L 3481 434 
z
" transform="scale(0.015625)"/>
       <path id="DejaVuSans-20" transform="scale(0.015625)"/>
       <path id="DejaVuSans-6f" d="M 1959 3097 
Q 1497 3097 1228 2736 
Q 959 2375 959 1747 
Q 959 1119 1226 758 
Q 1494 397 1959 397 
Q 2419 397 2687 759 
Q 2956 1122 2956 1747 
Q 2956 2369 2687 2733 
Q 2419 3097 1959 3097 
z
M 1959 3584 
Q 2709 3584 3137 3096 
Q 3566 2609 3566 1747 
Q 3566 888 3137 398 
Q 2709 -91 1959 -91 
Q 1206 -91 779 398 
Q 353 888 353 1747 
Q 353 2609 779 3096 
Q 1206 3584 1959 3584 
z
" transform="scale(0.015625)"/>
      </defs>
      <use xlink:href="#DejaVuSans-54"/>
      <use xlink:href="#DejaVuSans-72" x="46.333984"/>
      <use xlink:href="#DejaVuSans-61" x="87.447266"/>
      <use xlink:href="#DejaVuSans-63" x="148.726562"/>
      <use xlink:href="#DejaVuSans-6b" x="203.707031"/>
      <use xlink:href="#DejaVuSans-69" x="261.617188"/>
      <use xlink:href="#DejaVuSans-6e" x="289.400391"/>
      <use xlink:href="#DejaVuSans-67" x="352.779297"/>
      <use xlink:href="#DejaVuSans-20" x="416.255859"/>
      <use xlink:href="#DejaVuSans-65" x="448.042969"/>
      <use xlink:href="#DejaVuSans-72" x="509.566406"/>
      <use xlink:href="#DejaVuSans-72" x="548.929688"/>
      <use xlink:href="#DejaVuSans-6f" x="587.792969"/>
      <use xlink:href="#DejaVuSans-72" x="648.974609"/>
      <use xlink:href="#DejaVuSans-28" x="690.087891"/>
      <use xlink:href="#DejaVuSans-6d" x="729.101562"/>
      <use xlink:href="#DejaVuSans-29" x="826.513672"/>
     </g>
    </g>
   </g>
   <g id="line2d_29">
    <path d="M 73.832727 259.254285 
L 74.038726 250.303242 
L 74.038726 250.303242 
L 74.244725 250.182695 
L 74.244725 250.182695 
L 75.068722 201.552411 
L 75.068722 201.552411 
L 75.892718 162.666648 
L 75.892718 162.666648 
L 76.510715 144.553987 
L 76.510715 144.553987 
L 76.922713 138.451073 
L 76.922713 138.451073 
L 77.128713 136.94499 
L 77.128713 136.94499 
L 77.334712 136.509341 
L 77.334712 136.509341 
L 77.540711 137.086138 
L 77.540711 137.086138 
L 77.952709 140.107458 
L 77.952709 140.107458 
L 78.570706 148.231452 
L 78.570706 148.231452 
L 80.0127 171.552076 
L 80.0127 171.552076 
L 81.042695 183.923466 
L 81.042695 183.923466 
L 82.07269 193.336862 
L 82.07269 193.336862 
L 82.690688 198.714964 
L 82.690688 198.714964 
L 83.926682 215.37724 
L 83.926682 215.37724 
L 87.222667 269.276522 
L 87.222667 269.276522 
L 89.076659 294.602204 
L 89.076659 294.602204 
L 90.106654 284.352604 
L 90.106654 284.352604 
L 90.312653 283.636185 
L 90.312653 283.636185 
L 90.518653 280.79645 
L 90.518653 280.79645 
L 90.930651 279.079027 
L 90.930651 279.079027 
L 91.342649 274.67141 
L 91.342649 274.67141 
L 91.548648 272.983743 
L 91.548648 272.983743 
L 93.40264 242.760623 
L 93.40264 242.760623 
L 94.020637 228.727507 
L 94.020637 228.727507 
L 94.638634 217.418157 
L 94.638634 217.418157 
L 95.050632 208.439648 
L 95.050632 208.439648 
L 95.256631 207.805628 
L 95.256631 207.805628 
L 95.46263 204.112904 
L 95.46263 204.112904 
L 95.668629 204.449369 
L 95.668629 204.449369 
L 95.874629 202.09869 
L 95.874629 202.09869 
L 96.080628 203.072227 
L 96.080628 203.072227 
L 96.286627 201.477641 
L 96.286627 201.477641 
L 96.492626 202.641918 
L 96.492626 202.641918 
L 96.698625 201.557752 
L 96.698625 201.557752 
L 96.904624 202.672436 
L 96.904624 202.672436 
L 97.110623 201.967461 
L 97.110623 201.967461 
L 97.316622 202.992116 
L 97.316622 202.992116 
L 97.522621 202.441259 
L 97.522621 202.441259 
L 97.72862 200.594897 
L 97.72862 200.594897 
L 97.934619 202.697614 
L 97.934619 202.697614 
L 98.140618 200.787163 
L 98.140618 200.787163 
L 98.346617 201.810292 
L 98.346617 201.810292 
L 98.552617 199.066689 
L 98.552617 199.066689 
L 98.758616 198.724883 
L 98.758616 198.724883 
L 98.964615 194.736893 
L 98.964615 194.736893 
L 99.170614 192.951567 
L 99.170614 192.951567 
L 99.788611 178.544601 
L 99.788611 178.544601 
L 99.99461 175.839146 
L 99.99461 175.839146 
L 100.406608 163.475385 
L 100.406608 163.475385 
L 100.612607 166.592838 
L 100.612607 166.592838 
L 100.818606 163.274727 
L 100.818606 163.274727 
L 101.024605 168.27669 
L 101.024605 168.27669 
L 101.230605 168.293475 
L 101.230605 168.293475 
L 101.436604 174.661899 
L 101.436604 174.661899 
L 101.642603 177.26054 
L 101.642603 177.26054 
L 102.466599 203.729135 
L 102.466599 203.729135 
L 102.672598 209.216341 
L 102.672598 209.216341 
L 103.290595 238.490338 
L 103.290595 238.490338 
L 103.908593 266.84497 
L 103.908593 266.84497 
L 104.320591 287.534909 
L 104.320591 287.534909 
L 104.52659 292.62919 
L 104.52659 292.62919 
L 106.380581 205.753267 
L 106.380581 205.753267 
L 107.204578 182.56082 
L 107.204578 182.56082 
L 107.616576 176.053538 
L 107.616576 176.053538 
L 108.234573 181.4057 
L 108.234573 181.4057 
L 108.440572 185.471511 
L 108.440572 185.471511 
L 110.294564 293.104514 
L 110.294564 293.104514 
L 110.706562 272.747225 
L 110.706562 272.747225 
L 111.736557 210.010582 
L 111.736557 210.010582 
L 113.38455 102.579 
L 113.38455 102.579 
L 114.002547 72.143015 
L 114.002547 72.143015 
L 114.414545 60.022638 
L 114.414545 60.022638 
L 114.826544 53.809858 
L 114.826544 53.809858 
L 115.032543 53.568 
L 115.032543 53.568 
L 115.238542 55.547117 
L 115.238542 55.547117 
L 115.856539 84.692175 
L 115.856539 84.692175 
L 116.268537 116.010141 
L 116.268537 116.010141 
L 117.91653 284.651684 
L 117.91653 284.651684 
L 118.122529 285.67405 
L 118.122529 285.67405 
L 119.152524 191.825439 
L 119.152524 191.825439 
L 119.976521 134.531749 
L 119.976521 134.531749 
L 120.594518 106.286984 
L 120.594518 106.286984 
L 121.006516 95.826045 
L 121.006516 95.826045 
L 121.418514 91.702248 
L 121.418514 91.702248 
L 121.624513 91.090354 
L 121.624513 91.090354 
L 121.830512 91.049917 
L 121.830512 91.049917 
L 122.24251 92.226401 
L 122.24251 92.226401 
L 122.654509 94.001808 
L 122.654509 94.001808 
L 123.272506 97.90511 
L 123.272506 97.90511 
L 124.096502 109.76608 
L 124.096502 109.76608 
L 124.5085 119.958457 
L 124.5085 119.958457 
L 125.126497 139.093485 
L 125.126497 139.093485 
L 125.744495 165.925249 
L 125.744495 165.925249 
L 126.77449 219.931346 
L 126.77449 219.931346 
L 128.010485 295.488 
L 128.010485 295.488 
L 128.216484 288.120862 
L 128.216484 288.120862 
L 129.658477 213.868106 
L 129.658477 213.868106 
L 130.482473 181.589573 
L 130.482473 181.589573 
L 131.30647 159.436277 
L 131.30647 159.436277 
L 131.718468 152.590241 
L 131.718468 152.590241 
L 132.130466 148.020112 
L 132.130466 148.020112 
L 132.542464 145.832707 
L 132.542464 145.832707 
L 132.954462 147.370834 
L 132.954462 147.370834 
L 133.366461 150.66453 
L 133.366461 150.66453 
L 133.57246 153.072431 
L 133.57246 153.072431 
L 135.014453 181.811594 
L 135.014453 181.811594 
L 135.838449 199.563376 
L 135.838449 199.563376 
L 136.250448 208.068849 
L 136.250448 208.068849 
L 137.280443 222.524645 
L 137.280443 222.524645 
L 137.486442 223.763692 
L 137.486442 223.763692 
L 137.692441 224.148223 
L 137.692441 224.148223 
L 137.89844 225.084375 
L 137.89844 225.084375 
L 138.104439 224.694503 
L 138.104439 224.694503 
L 138.310438 223.614915 
L 138.310438 223.614915 
L 138.516437 223.730885 
L 138.516437 223.730885 
L 138.928436 221.470998 
L 138.928436 221.470998 
L 139.134435 222.304913 
L 139.134435 222.304913 
L 139.340434 221.924959 
L 139.546433 221.271866 
L 139.546433 221.271866 
L 139.752432 223.28379 
L 139.752432 223.28379 
L 139.958431 223.833121 
L 139.958431 223.833121 
L 140.16443 224.052854 
L 140.16443 224.052854 
L 140.370429 227.58612 
L 140.370429 227.58612 
L 140.576428 228.819825 
L 140.576428 228.819825 
L 140.988426 233.779826 
L 140.988426 233.779826 
L 141.194425 235.100509 
L 141.194425 235.100509 
L 141.606424 240.525915 
L 141.606424 240.525915 
L 141.812423 241.523866 
L 141.812423 241.523866 
L 142.018422 245.421064 
L 142.018422 245.421064 
L 142.224421 246.757769 
L 142.224421 246.757769 
L 142.43042 247.244537 
L 142.636419 251.347734 
L 142.636419 251.347734 
L 142.842418 252.219797 
L 142.842418 252.219797 
L 143.048417 255.363191 
L 143.048417 255.363191 
L 143.254416 256.689977 
L 143.254416 256.689977 
L 143.460415 257.214131 
L 143.460415 257.214131 
L 143.666414 260.755026 
L 143.666414 260.755026 
L 143.872413 261.839955 
L 143.872413 261.839955 
L 144.078413 262.166501 
L 144.078413 262.166501 
L 144.284412 266.229261 
L 144.284412 266.229261 
L 144.490411 267.174568 
L 144.490411 267.174568 
L 144.902409 272.055984 
L 144.902409 272.055984 
L 145.108408 272.957039 
L 145.108408 272.957039 
L 145.314407 276.838215 
L 145.314407 276.838215 
L 145.726405 279.211782 
L 145.726405 279.211782 
L 145.932404 283.779622 
L 145.932404 283.779622 
L 146.138403 285.336059 
L 146.138403 285.336059 
L 146.550401 291.743394 
L 146.550401 291.743394 
L 146.756401 293.697334 
L 146.756401 293.697334 
L 146.9624 292.620798 
L 146.9624 292.620798 
L 147.168399 295.488 
L 147.168399 295.488 
L 147.580397 284.322086 
L 147.580397 284.322086 
L 147.786396 282.902218 
L 147.786396 282.902218 
L 147.992395 282.447494 
L 147.992395 282.447494 
L 148.198394 279.278923 
L 148.198394 279.278923 
L 148.404393 278.902784 
L 148.404393 278.902784 
L 148.610392 276.911459 
L 148.610392 276.911459 
L 148.816391 276.515483 
L 148.816391 276.515483 
L 149.02239 276.65129 
L 149.02239 276.65129 
L 149.228389 274.277722 
L 149.228389 274.277722 
L 149.640388 273.454489 
L 149.640388 273.454489 
L 149.846387 270.138667 
L 149.846387 270.138667 
L 150.258385 268.126742 
L 150.258385 268.126742 
L 150.464384 264.051775 
L 150.464384 264.051775 
L 150.670383 262.360293 
L 150.670383 262.360293 
L 152.318376 231.433725 
L 152.318376 231.433725 
L 152.936373 215.456587 
L 152.936373 215.456587 
L 153.966368 185.815606 
L 153.966368 185.815606 
L 154.996364 158.167475 
L 154.996364 158.167475 
L 155.614361 149.478128 
L 155.614361 149.478128 
L 155.82036 148.00409 
L 155.82036 148.00409 
L 156.026359 147.468493 
L 156.026359 147.468493 
L 156.232358 147.432633 
L 156.232358 147.432633 
L 156.438357 148.030794 
L 156.438357 148.030794 
L 156.850355 151.044484 
L 156.850355 151.044484 
L 157.262353 156.309669 
L 157.262353 156.309669 
L 157.880351 167.832648 
L 157.880351 167.832648 
L 158.498348 182.958322 
L 158.498348 182.958322 
L 161.382335 262.018487 
L 161.382335 262.018487 
L 162.618329 292.921404 
L 162.618329 292.921404 
L 162.824329 292.866471 
L 162.824329 292.866471 
L 164.472321 258.423422 
L 164.472321 258.423422 
L 165.090318 250.16591 
L 165.090318 250.16591 
L 165.708316 244.936584 
L 165.708316 244.936584 
L 165.914315 243.905063 
L 165.914315 243.905063 
L 166.120314 244.14158 
L 166.120314 244.14158 
L 166.326313 244.192699 
L 166.326313 244.192699 
L 166.738311 244.818326 
L 166.738311 244.818326 
L 166.94431 245.308146 
L 166.94431 245.308146 
L 167.356308 247.696209 
L 167.356308 247.696209 
L 167.974305 249.679141 
L 167.974305 249.679141 
L 168.386304 252.300671 
L 168.386304 252.300671 
L 169.004301 255.781292 
L 169.004301 255.781292 
L 170.446294 276.192751 
L 170.446294 276.192751 
L 171.47629 295.448326 
L 171.47629 295.448326 
L 171.682289 295.488 
L 171.682289 295.488 
L 171.888288 289.590322 
L 171.888288 289.590322 
L 172.094287 287.40368 
L 172.094287 287.40368 
L 172.506285 281.715816 
L 172.506285 281.715816 
L 173.124282 277.264709 
L 173.124282 277.264709 
L 173.330281 276.829059 
L 173.330281 276.829059 
L 173.536281 276.929007 
L 173.536281 276.929007 
L 173.74228 277.54319 
L 173.74228 277.54319 
L 173.948279 276.968681 
L 173.948279 276.968681 
L 174.566276 280.08003 
L 174.566276 280.08003 
L 174.978274 283.953576 
L 174.978274 283.953576 
L 176.008269 295.457482 
L 176.008269 295.457482 
L 176.214269 295.488 
L 176.214269 295.488 
L 176.420268 288.88611 
L 176.420268 288.88611 
L 176.832266 283.118136 
L 176.832266 283.118136 
L 177.656262 268.97439 
L 177.656262 268.97439 
L 177.862261 266.670252 
L 177.862261 266.670252 
L 178.686257 252.878994 
L 178.686257 252.878994 
L 178.892257 250.829684 
L 178.892257 250.829684 
L 179.716253 239.274661 
L 179.716253 239.274661 
L 179.922252 238.123355 
L 179.922252 238.123355 
L 180.128251 235.723847 
L 180.128251 235.723847 
L 180.33425 235.20656 
L 180.33425 235.20656 
L 180.540249 233.665382 
L 180.540249 233.665382 
L 180.746248 233.602819 
L 180.746248 233.602819 
L 180.952247 232.717786 
L 180.952247 232.717786 
L 181.158246 232.928363 
L 181.364246 232.285188 
L 181.364246 232.285188 
L 181.570245 232.510261 
L 181.570245 232.510261 
L 181.776244 231.914389 
L 181.776244 231.914389 
L 181.982243 231.944908 
L 181.982243 231.944908 
L 182.188242 231.302496 
L 182.188242 231.302496 
L 182.394241 229.783443 
L 182.394241 229.783443 
L 182.60024 229.937561 
L 182.60024 229.937561 
L 182.806239 229.320327 
L 184.042234 219.123371 
L 184.042234 219.123371 
L 184.248233 215.649616 
L 184.248233 215.649616 
L 184.454232 214.467029 
L 184.454232 214.467029 
L 184.660231 210.470646 
L 184.660231 210.470646 
L 184.86623 209.590191 
L 184.86623 209.590191 
L 185.072229 204.709538 
L 185.072229 204.709538 
L 185.278228 204.251762 
L 185.278228 204.251762 
L 185.484227 198.258715 
L 185.484227 198.258715 
L 185.690226 198.189285 
L 185.690226 198.189285 
L 185.896225 196.623692 
L 185.896225 196.623692 
L 186.102224 191.813995 
L 186.102224 191.813995 
L 186.308223 190.867162 
L 186.308223 190.867162 
L 186.514222 185.265512 
L 186.514222 185.265512 
L 186.720222 184.95041 
L 186.720222 184.95041 
L 186.926221 178.603349 
L 186.926221 178.603349 
L 187.13222 179.257205 
L 187.13222 179.257205 
L 187.338219 178.427868 
L 187.338219 178.427868 
L 187.544218 173.724985 
L 187.544218 173.724985 
L 187.750217 173.487705 
L 187.750217 173.487705 
L 187.956216 167.76093 
L 187.956216 167.76093 
L 188.162215 168.777192 
L 188.162215 168.777192 
L 188.368214 168.643674 
L 188.368214 168.643674 
L 188.574213 165.675761 
L 188.574213 165.675761 
L 188.780212 167.805944 
L 188.780212 167.805944 
L 188.986211 165.849716 
L 188.986211 165.849716 
L 189.39821 175.279134 
L 189.39821 175.279134 
L 189.604209 176.554802 
L 189.604209 176.554802 
L 189.810208 182.777501 
L 189.810208 182.777501 
L 190.016207 183.438987 
L 190.016207 183.438987 
L 190.428205 197.653688 
L 190.428205 197.653688 
L 190.634204 199.323043 
L 190.634204 199.323043 
L 191.046202 210.598061 
L 191.046202 210.598061 
L 191.252201 210.887222 
L 191.252201 210.887222 
L 191.4582 214.840879 
L 191.4582 214.840879 
L 191.664199 211.447998 
L 191.664199 211.447998 
L 191.870198 215.207863 
L 191.870198 215.207863 
L 192.076198 216.692582 
L 192.076198 216.692582 
L 192.282197 211.127555 
L 192.282197 211.127555 
L 192.488196 212.865577 
L 192.488196 212.865577 
L 192.694195 212.305564 
L 192.694195 212.305564 
L 192.900194 205.7464 
L 192.900194 205.7464 
L 193.106193 206.809203 
L 193.106193 206.809203 
L 193.312192 197.593414 
L 193.312192 197.593414 
L 193.518191 201.556989 
L 193.518191 201.556989 
L 193.72419 203.302641 
L 193.72419 203.302641 
L 193.930189 196.265864 
L 193.930189 196.265864 
L 194.136188 200.143988 
L 194.136188 200.143988 
L 194.342187 201.430338 
L 194.342187 201.430338 
L 194.548186 196.105643 
L 194.754186 199.316177 
L 194.960185 190.048506 
L 194.960185 190.048506 
L 195.166184 194.936025 
L 195.166184 194.936025 
L 195.372183 196.559604 
L 195.578182 189.168051 
L 195.578182 189.168051 
L 195.784181 192.895108 
L 195.784181 192.895108 
L 195.99018 183.525964 
L 195.99018 183.525964 
L 196.196179 188.559972 
L 196.196179 188.559972 
L 196.402178 190.568082 
L 196.402178 190.568082 
L 196.608177 184.526967 
L 196.608177 184.526967 
L 196.814176 186.895957 
L 196.814176 186.895957 
L 197.020175 186.4481 
L 197.020175 186.4481 
L 197.226174 181.57584 
L 197.226174 181.57584 
L 197.432174 182.839301 
L 197.432174 182.839301 
L 197.638173 176.766142 
L 197.638173 176.766142 
L 198.050171 183.603023 
L 198.050171 183.603023 
L 198.25617 181.329404 
L 198.25617 181.329404 
L 198.462169 187.03329 
L 198.462169 187.03329 
L 198.668168 184.513997 
L 198.668168 184.513997 
L 199.080166 200.747489 
L 199.080166 200.747489 
L 199.286165 201.066406 
L 199.286165 201.066406 
L 199.698163 214.454059 
L 199.698163 214.454059 
L 199.904162 213.799439 
L 199.904162 213.799439 
L 200.110162 218.695351 
L 200.110162 218.695351 
L 200.316161 214.453296 
L 200.316161 214.453296 
L 200.728159 221.477102 
L 200.728159 221.477102 
L 200.934158 217.404423 
L 200.934158 217.404423 
L 201.140157 219.868783 
L 201.140157 219.868783 
L 201.346156 220.506617 
L 201.346156 220.506617 
L 201.552155 218.299375 
L 201.552155 218.299375 
L 201.758154 221.248214 
L 201.758154 221.248214 
L 201.964153 219.794013 
L 201.964153 219.794013 
L 202.376151 229.199016 
L 202.376151 229.199016 
L 202.58215 231.867849 
L 202.58215 231.867849 
L 203.612146 266.967806 
L 203.612146 266.967806 
L 204.230143 293.658423 
L 204.230143 293.658423 
L 205.260138 240.049828 
L 205.260138 240.049828 
L 206.702132 198.287707 
L 206.702132 198.287707 
L 206.908131 196.912091 
L 206.908131 196.912091 
L 207.11413 190.855717 
L 207.11413 190.855717 
L 207.320129 190.784762 
L 207.320129 190.784762 
L 207.526128 184.901581 
L 207.526128 184.901581 
L 207.732127 185.891139 
L 207.732127 185.891139 
L 207.938126 180.049157 
L 207.938126 180.049157 
L 208.144126 181.948164 
L 208.144126 181.948164 
L 208.350125 176.169508 
L 208.350125 176.169508 
L 208.556124 178.957362 
L 208.556124 178.957362 
L 208.762123 173.18481 
L 208.762123 173.18481 
L 208.968122 177.059882 
L 208.968122 177.059882 
L 209.174121 178.488905 
L 209.174121 178.488905 
L 209.38012 176.561669 
L 209.38012 176.561669 
L 209.586119 179.336553 
L 209.586119 179.336553 
L 209.792118 178.215765 
L 209.792118 178.215765 
L 209.998117 182.063371 
L 209.998117 182.063371 
L 210.204116 181.474366 
L 210.204116 181.474366 
L 210.410115 185.71337 
L 210.410115 185.71337 
L 210.616114 184.961854 
L 210.616114 184.961854 
L 210.822114 188.961289 
L 210.822114 188.961289 
L 211.028113 187.264466 
L 211.028113 187.264466 
L 211.234112 190.868688 
L 211.234112 190.868688 
L 211.440111 187.919849 
L 211.440111 187.919849 
L 211.64611 191.427937 
L 211.64611 191.427937 
L 211.852109 192.811183 
L 211.852109 192.811183 
L 212.058108 191.154798 
L 212.058108 191.154798 
L 212.264107 192.796687 
L 212.264107 192.796687 
L 212.470106 190.948036 
L 212.470106 190.948036 
L 212.676105 193.303292 
L 212.676105 193.303292 
L 212.882104 191.134961 
L 212.882104 191.134961 
L 213.088103 194.024289 
L 213.088103 194.024289 
L 213.294102 191.617914 
L 213.294102 191.617914 
L 213.500102 195.153469 
L 213.500102 195.153469 
L 213.706101 192.617391 
L 213.706101 192.617391 
L 214.118099 198.759979 
L 214.118099 198.759979 
L 214.324098 198.399099 
L 214.530097 201.128969 
L 214.530097 201.128969 
L 214.736096 200.816918 
L 214.736096 200.816918 
L 214.942095 204.234977 
L 214.942095 204.234977 
L 215.148094 204.026689 
L 215.148094 204.026689 
L 215.354093 208.123783 
L 215.354093 208.123783 
L 215.560092 208.172612 
L 215.560092 208.172612 
L 215.766091 212.931954 
L 215.766091 212.931954 
L 215.97209 213.469841 
L 215.97209 213.469841 
L 216.17809 219.031053 
L 216.17809 219.031053 
L 216.384089 220.140397 
L 216.384089 220.140397 
L 216.590088 226.414214 
L 216.590088 226.414214 
L 216.796087 227.89054 
L 216.796087 227.89054 
L 217.002086 234.323816 
L 217.002086 234.323816 
L 217.208085 236.06489 
L 217.208085 236.06489 
L 217.414084 242.579039 
L 217.414084 242.579039 
L 217.620083 244.517719 
L 217.620083 244.517719 
L 218.032081 255.621071 
L 218.032081 255.621071 
L 218.856078 270.544561 
L 218.856078 270.544561 
L 219.474075 285.255186 
L 219.474075 285.255186 
L 219.886073 293.96437 
L 219.886073 293.96437 
L 220.092072 293.066366 
L 220.092072 293.066366 
L 220.916068 276.97097 
L 220.916068 276.97097 
L 221.946064 260.735189 
L 221.946064 260.735189 
L 222.564061 253.912804 
L 222.564061 253.912804 
L 222.77006 252.214456 
L 222.77006 252.214456 
L 223.182058 250.965491 
L 223.182058 250.965491 
L 223.388057 250.710663 
L 223.388057 250.710663 
L 224.006054 252.649343 
L 224.006054 252.649343 
L 224.624052 257.340019 
L 224.624052 257.340019 
L 225.242049 264.688083 
L 225.242049 264.688083 
L 227.096041 290.132023 
L 227.096041 290.132023 
L 227.508039 294.152821 
L 227.508039 294.152821 
L 227.714038 295.258349 
L 227.714038 295.258349 
L 227.920037 293.688941 
L 227.920037 293.688941 
L 228.126036 295.488 
L 228.126036 295.488 
L 228.332035 290.739339 
L 228.332035 290.739339 
L 228.950032 287.112992 
L 228.950032 287.112992 
L 229.36203 285.51917 
L 229.36203 285.51917 
L 229.56803 285.123956 
L 229.774029 285.378785 
L 229.774029 285.378785 
L 229.980028 285.821302 
L 229.980028 285.821302 
L 230.392026 287.647064 
L 230.392026 287.647064 
L 230.804024 290.619555 
L 230.804024 290.619555 
L 231.422021 295.376608 
L 231.422021 295.376608 
L 232.246018 290.107609 
L 232.246018 290.107609 
L 233.070014 286.379788 
L 233.070014 286.379788 
L 233.89401 282.181984 
L 233.89401 282.181984 
L 234.718006 278.152794 
L 234.718006 278.152794 
L 235.130005 277.637797 
L 235.130005 277.637797 
L 235.336004 277.714856 
L 235.542003 277.997914 
L 235.542003 277.997914 
L 235.748002 278.503756 
L 235.748002 278.503756 
L 236.983996 284.517404 
L 236.983996 284.517404 
L 237.807993 289.22105 
L 237.807993 289.22105 
L 238.631989 294.853981 
L 238.631989 294.853981 
L 239.661984 282.818293 
L 239.661984 282.818293 
L 241.103978 262.755506 
L 241.103978 262.755506 
L 241.927974 248.36914 
L 241.927974 248.36914 
L 243.163969 220.78586 
L 243.163969 220.78586 
L 244.193964 198.43801 
L 244.193964 198.43801 
L 244.605962 193.594742 
L 244.605962 193.594742 
L 244.811961 190.650481 
L 244.811961 190.650481 
L 245.01796 190.273579 
L 245.01796 190.273579 
L 245.429958 187.044734 
L 245.429958 187.044734 
L 245.635958 188.646186 
L 245.635958 188.646186 
L 245.841957 188.321928 
L 245.841957 188.321928 
L 246.047956 190.103439 
L 246.047956 190.103439 
L 246.459954 191.269242 
L 246.459954 191.269242 
L 246.871952 195.834792 
L 246.871952 195.834792 
L 247.077951 196.885387 
L 247.077951 196.885387 
L 247.28395 201.190768 
L 247.28395 201.190768 
L 247.489949 202.784591 
L 247.489949 202.784591 
L 247.695948 206.465108 
L 247.695948 206.465108 
L 247.901947 208.103946 
L 247.901947 208.103946 
L 248.107946 208.755513 
L 248.107946 208.755513 
L 248.313946 212.352105 
L 248.313946 212.352105 
L 248.519945 212.90525 
L 248.519945 212.90525 
L 248.725944 215.658009 
L 248.725944 215.658009 
L 248.931943 216.22031 
L 248.931943 216.22031 
L 249.137942 218.335997 
L 249.137942 218.335997 
L 249.343941 219.018846 
L 249.343941 219.018846 
L 249.54994 218.696877 
L 249.54994 218.696877 
L 249.755939 221.678523 
L 249.755939 221.678523 
L 249.961938 221.702175 
L 249.961938 221.702175 
L 250.167937 224.421363 
L 250.167937 224.421363 
L 250.373936 224.817339 
L 250.579935 227.210743 
L 250.579935 227.210743 
L 250.785934 227.66623 
L 250.785934 227.66623 
L 250.991934 229.427141 
L 250.991934 229.427141 
L 251.197933 229.753688 
L 251.197933 229.753688 
L 251.403932 228.920536 
L 251.403932 228.920536 
L 251.609931 231.185763 
L 251.609931 231.185763 
L 251.81593 229.940613 
L 251.81593 229.940613 
L 252.021929 231.510021 
L 252.021929 231.510021 
L 252.227928 229.997072 
L 252.227928 229.997072 
L 252.433927 231.336829 
L 252.639926 229.278364 
L 252.639926 229.278364 
L 252.845925 230.056583 
L 252.845925 230.056583 
L 253.051924 227.539579 
L 253.051924 227.539579 
L 253.257923 228.07594 
L 253.257923 228.07594 
L 253.463922 225.022575 
L 253.463922 225.022575 
L 253.669922 225.176693 
L 253.669922 225.176693 
L 253.875921 221.811278 
L 253.875921 221.811278 
L 254.08192 222.089758 
L 254.08192 222.089758 
L 254.287919 221.322221 
L 254.287919 221.322221 
L 254.493918 219.068438 
L 254.493918 219.068438 
L 254.699917 218.655677 
L 254.699917 218.655677 
L 254.905916 216.39808 
L 254.905916 216.39808 
L 255.111915 216.58119 
L 255.111915 216.58119 
L 255.317914 214.644035 
L 255.317914 214.644035 
L 255.523913 215.524491 
L 255.523913 215.524491 
L 255.729912 213.399648 
L 255.729912 213.399648 
L 255.935911 214.618095 
L 255.935911 214.618095 
L 256.14191 214.85156 
L 256.14191 214.85156 
L 256.34791 213.265367 
L 256.34791 213.265367 
L 256.553909 213.086835 
L 256.553909 213.086835 
L 256.759908 210.457676 
L 256.759908 210.457676 
L 256.965907 210.171566 
L 256.965907 210.171566 
L 257.171906 206.817596 
L 257.377905 206.745877 
L 257.377905 206.745877 
L 257.583904 205.581601 
L 257.583904 205.581601 
L 258.613899 186.084931 
L 258.613899 186.084931 
L 259.025898 175.254719 
L 259.025898 175.254719 
L 259.643895 163.483778 
L 259.643895 163.483778 
L 259.849894 156.058655 
L 259.849894 156.058655 
L 260.261892 158.869398 
L 260.261892 158.869398 
L 260.467891 157.049739 
L 260.467891 157.049739 
L 260.67389 163.442578 
L 260.67389 163.442578 
L 260.879889 162.57433 
L 260.879889 162.57433 
L 261.291887 182.215963 
L 261.291887 182.215963 
L 261.497886 185.758384 
L 261.497886 185.758384 
L 261.703886 195.930925 
L 261.703886 195.930925 
L 261.909885 195.644052 
L 261.909885 195.644052 
L 262.321883 212.618378 
L 262.321883 212.618378 
L 262.527882 210.575172 
L 262.527882 210.575172 
L 262.733881 216.494213 
L 262.733881 216.494213 
L 262.93988 218.487063 
L 262.93988 218.487063 
L 263.145879 213.806306 
L 263.145879 213.806306 
L 263.351878 215.414625 
L 263.351878 215.414625 
L 263.557877 205.743349 
L 263.557877 205.743349 
L 263.763876 208.191686 
L 263.763876 208.191686 
L 263.969875 207.922361 
L 263.969875 207.922361 
L 264.175874 200.225625 
L 264.175874 200.225625 
L 264.381874 200.822259 
L 264.381874 200.822259 
L 264.587873 199.371873 
L 264.587873 199.371873 
L 264.793872 193.439099 
L 264.793872 193.439099 
L 264.999871 193.499372 
L 264.999871 193.499372 
L 265.20587 185.33189 
L 265.20587 185.33189 
L 265.617868 190.487208 
L 265.617868 190.487208 
L 265.823867 185.319682 
L 265.823867 185.319682 
L 266.029866 189.942455 
L 266.029866 189.942455 
L 266.235865 192.059668 
L 266.235865 192.059668 
L 266.441864 189.437375 
L 266.441864 189.437375 
L 266.647863 193.074404 
L 266.647863 193.074404 
L 266.853862 187.729109 
L 266.853862 187.729109 
L 267.059862 191.852143 
L 267.059862 191.852143 
L 267.265861 193.045412 
L 267.265861 193.045412 
L 267.47186 187.06686 
L 267.47186 187.06686 
L 267.677859 188.830823 
L 267.677859 188.830823 
L 267.883858 180.11172 
L 267.883858 180.11172 
L 268.089857 183.413809 
L 268.089857 183.413809 
L 268.295856 184.385057 
L 268.295856 184.385057 
L 268.501855 177.146859 
L 268.501855 177.146859 
L 268.707854 180.28949 
L 268.707854 180.28949 
L 268.913853 181.197412 
L 268.913853 181.197412 
L 269.119852 177.609975 
L 269.119852 177.609975 
L 269.325851 181.716987 
L 269.325851 181.716987 
L 269.53185 178.353098 
L 269.53185 178.353098 
L 269.73785 186.258886 
L 269.73785 186.258886 
L 269.943849 184.517812 
L 269.943849 184.517812 
L 271.179843 258.78125 
L 271.179843 258.78125 
L 271.591841 290.889642 
L 271.591841 290.889642 
L 271.79784 283.752155 
L 271.79784 283.752155 
L 272.621837 218.248257 
L 272.621837 218.248257 
L 273.857831 138.406821 
L 273.857831 138.406821 
L 274.06383 136.902265 
L 274.06383 136.902265 
L 274.269829 132.654106 
L 274.269829 132.654106 
L 274.475828 124.103617 
L 274.475828 124.103617 
L 274.681827 123.078962 
L 274.681827 123.078962 
L 274.887826 117.256817 
L 274.887826 117.256817 
L 275.093826 120.865616 
L 275.093826 120.865616 
L 275.299825 119.192446 
L 275.299825 119.192446 
L 275.505824 129.329128 
L 275.505824 129.329128 
L 275.711823 132.50838 
L 275.711823 132.50838 
L 277.359815 257.222523 
L 277.359815 257.222523 
L 277.565814 270.735301 
L 277.565814 270.735301 
L 277.771814 275.492354 
L 277.771814 275.492354 
L 278.183812 292.958026 
L 278.183812 292.958026 
L 278.389811 291.924979 
L 278.389811 291.924979 
L 278.59581 295.278949 
L 278.59581 295.278949 
L 278.801809 288.226913 
L 279.007808 289.647544 
L 279.007808 289.647544 
L 279.213807 287.418176 
L 279.213807 287.418176 
L 279.419806 276.813037 
L 279.419806 276.813037 
L 279.625805 273.803925 
L 279.625805 273.803925 
L 279.831804 268.318245 
L 279.831804 268.318245 
L 280.037803 258.460044 
L 280.037803 258.460044 
L 280.243802 255.128199 
L 280.243802 255.128199 
L 280.449802 245.239479 
L 280.449802 245.239479 
L 280.655801 244.398698 
L 280.655801 244.398698 
L 280.8618 242.45544 
L 280.8618 242.45544 
L 281.067799 237.619039 
L 281.067799 237.619039 
L 281.273798 238.767293 
L 281.273798 238.767293 
L 281.479797 235.729188 
L 281.479797 235.729188 
L 281.891795 241.536073 
L 281.891795 241.536073 
L 282.097794 242.528684 
L 282.097794 242.528684 
L 282.715791 252.605091 
L 282.715791 252.605091 
L 282.92179 255.143458 
L 282.92179 255.143458 
L 283.539788 265.274036 
L 283.539788 265.274036 
L 284.157785 273.446859 
L 284.157785 273.446859 
L 284.775782 280.521784 
L 284.775782 280.521784 
L 285.805778 294.419857 
L 285.805778 294.419857 
L 286.011777 293.536349 
L 286.011777 293.536349 
L 287.247771 272.716707 
L 287.247771 272.716707 
L 287.865768 262.427434 
L 287.865768 262.427434 
L 289.101763 247.405522 
L 289.101763 247.405522 
L 289.307762 247.156797 
L 289.307762 247.156797 
L 289.71976 244.227032 
L 289.71976 244.227032 
L 289.925759 244.831296 
L 289.925759 244.831296 
L 290.337757 242.912452 
L 290.337757 242.912452 
L 290.543756 244.12861 
L 290.543756 244.12861 
L 290.749755 243.702116 
L 290.749755 243.702116 
L 290.955754 242.863623 
L 290.955754 242.863623 
L 291.161754 244.133951 
L 291.367753 243.712034 
L 291.367753 243.712034 
L 291.573752 242.810979 
L 291.573752 242.810979 
L 291.779751 243.936344 
L 291.779751 243.936344 
L 291.98575 243.452628 
L 291.98575 243.452628 
L 292.191749 242.479854 
L 292.191749 242.479854 
L 292.397748 243.73416 
L 292.397748 243.73416 
L 292.603747 243.76773 
L 293.015745 243.551813 
L 293.015745 243.551813 
L 293.221744 247.783187 
L 293.221744 247.783187 
L 293.633743 251.769651 
L 293.633743 251.769651 
L 294.869737 292.510169 
L 294.869737 292.510169 
L 295.075736 288.074321 
L 295.075736 288.074321 
L 296.105731 236.329637 
L 296.105731 236.329637 
L 298.57772 111.311073 
L 298.57772 111.311073 
L 299.195718 94.802916 
L 299.195718 94.802916 
L 299.401717 91.373412 
L 299.401717 91.373412 
L 299.813715 89.745256 
L 299.813715 89.745256 
L 300.019714 89.959648 
L 300.019714 89.959648 
L 300.84371 101.026377 
L 300.84371 101.026377 
L 301.255708 111.182896 
L 301.255708 111.182896 
L 301.461707 115.308219 
L 301.461707 115.308219 
L 301.873706 126.71828 
L 301.873706 126.71828 
L 302.285704 137.747624 
L 302.285704 137.747624 
L 303.521698 170.277933 
L 303.521698 170.277933 
L 305.37569 247.909075 
L 305.37569 247.909075 
L 306.405685 286.159293 
L 306.405685 286.159293 
L 306.611684 295.488 
L 306.611684 295.488 
L 306.817683 292.406406 
L 306.817683 292.406406 
L 307.847679 257.127153 
L 307.847679 257.127153 
L 309.083673 214.701257 
L 309.083673 214.701257 
L 311.349663 140.962736 
L 311.349663 140.962736 
L 311.96766 128.684427 
L 311.96766 128.684427 
L 312.585658 121.56525 
L 312.585658 121.56525 
L 312.997656 119.772295 
L 312.997656 119.772295 
L 313.203655 119.720414 
L 313.203655 119.720414 
L 313.409654 120.241515 
L 313.409654 120.241515 
L 313.821652 123.188066 
L 313.821652 123.188066 
L 314.23365 128.622627 
L 314.23365 128.622627 
L 314.851647 140.735374 
L 314.851647 140.735374 
L 315.881643 166.942274 
L 315.881643 166.942274 
L 317.117637 203.272122 
L 317.117637 203.272122 
L 318.559631 245.699544 
L 318.559631 245.699544 
L 319.383627 264.324151 
L 319.383627 264.324151 
L 320.619622 288.436727 
L 320.619622 288.436727 
L 320.825621 295.488 
L 320.825621 295.488 
L 321.03162 293.57526 
L 321.03162 293.57526 
L 321.855616 271.239617 
L 321.855616 271.239617 
L 323.29761 232.119626 
L 323.29761 232.119626 
L 324.121606 218.332945 
L 324.121606 218.332945 
L 324.533604 213.047924 
L 324.533604 213.047924 
L 324.739603 212.317772 
L 324.739603 212.317772 
L 324.945602 210.645364 
L 324.945602 210.645364 
L 325.151601 210.126552 
L 325.151601 210.126552 
L 325.563599 207.973479 
L 325.563599 207.973479 
L 325.769599 208.377848 
L 325.769599 208.377848 
L 325.975598 207.75451 
L 325.975598 207.75451 
L 326.181597 206.732144 
L 326.181597 206.732144 
L 326.387596 207.680503 
L 326.387596 207.680503 
L 326.593595 206.763426 
L 326.593595 206.763426 
L 326.799594 207.319623 
L 326.799594 207.319623 
L 327.005593 206.668056 
L 327.005593 206.668056 
L 327.211592 207.151009 
L 327.417591 207.109046 
L 327.417591 207.109046 
L 327.62359 206.459768 
L 327.62359 206.459768 
L 327.829589 208.088686 
L 328.035588 207.90405 
L 328.241587 209.431495 
L 328.241587 209.431495 
L 328.447587 209.423866 
L 328.447587 209.423866 
L 328.653586 210.811689 
L 328.653586 210.811689 
L 328.859585 210.997088 
L 329.065584 209.886982 
L 329.065584 209.886982 
L 329.271583 211.932477 
L 329.271583 211.932477 
L 329.477582 210.359254 
L 329.477582 210.359254 
L 329.683581 211.707404 
L 329.683581 211.707404 
L 329.88958 209.664961 
L 329.88958 209.664961 
L 330.095579 210.423343 
L 330.095579 210.423343 
L 330.301578 207.989502 
L 330.301578 207.989502 
L 330.507577 208.16956 
L 330.507577 208.16956 
L 330.713576 205.480127 
L 330.713576 205.480127 
L 330.919575 205.139847 
L 330.919575 205.139847 
L 331.125575 202.288667 
L 331.125575 202.288667 
L 331.331574 201.511974 
L 331.537573 198.593654 
L 331.537573 198.593654 
L 331.743572 197.704043 
L 331.743572 197.704043 
L 331.949571 195.00927 
L 331.949571 195.00927 
L 332.15557 190.709229 
L 332.15557 190.709229 
L 332.361569 191.475241 
L 332.361569 191.475241 
L 332.567568 187.258363 
L 332.567568 187.258363 
L 332.773567 187.932819 
L 332.773567 187.932819 
L 332.979566 183.760956 
L 332.979566 183.760956 
L 333.185565 184.423205 
L 333.185565 184.423205 
L 333.391564 180.634347 
L 333.391564 180.634347 
L 333.597563 181.748268 
L 333.597563 181.748268 
L 333.803563 178.311898 
L 333.803563 178.311898 
L 334.009562 179.847736 
L 334.009562 179.847736 
L 334.215561 177.116341 
L 334.215561 177.116341 
L 334.42156 179.458627 
L 334.42156 179.458627 
L 334.627559 177.599294 
L 334.627559 177.599294 
L 334.833558 180.944109 
L 335.039557 180.107142 
L 335.039557 180.107142 
L 335.245556 184.504842 
L 335.245556 184.504842 
L 335.451555 184.349961 
L 335.451555 184.349961 
L 335.657554 189.731115 
L 335.657554 189.731115 
L 335.863553 190.695496 
L 335.863553 190.695496 
L 336.069552 197.336296 
L 336.069552 197.336296 
L 336.275551 199.046089 
L 336.275551 199.046089 
L 336.481551 206.427723 
L 336.481551 206.427723 
L 336.68755 208.467877 
L 336.68755 208.467877 
L 336.893549 216.181399 
L 336.893549 216.181399 
L 337.099548 218.227657 
L 337.099548 218.227657 
L 337.511546 231.554273 
L 337.511546 231.554273 
L 337.717545 234.652652 
L 337.717545 234.652652 
L 337.923544 239.577556 
L 337.923544 239.577556 
L 338.129543 241.721472 
L 338.129543 241.721472 
L 338.335542 246.052794 
L 338.335542 246.052794 
L 338.541541 247.358218 
L 338.541541 247.358218 
L 338.74754 250.804507 
L 338.74754 250.804507 
L 338.953539 250.684722 
L 338.953539 250.684722 
L 339.159539 252.898831 
L 339.159539 252.898831 
L 339.365538 251.135631 
L 339.365538 251.135631 
L 339.571537 252.03745 
L 339.777536 248.453828 
L 339.777536 248.453828 
L 339.983535 248.588109 
L 339.983535 248.588109 
L 340.189534 243.27028 
L 340.189534 243.27028 
L 340.395533 243.27791 
L 340.601532 236.680598 
L 340.601532 236.680598 
L 340.807531 237.421432 
L 340.807531 237.421432 
L 341.01353 230.219856 
L 341.01353 230.219856 
L 341.219529 232.597238 
L 341.219529 232.597238 
L 341.425528 232.514076 
L 341.425528 232.514076 
L 341.631527 229.591177 
L 341.631527 229.591177 
L 341.837527 231.253666 
L 341.837527 231.253666 
L 342.043526 229.833036 
L 342.043526 229.833036 
L 342.249525 234.048388 
L 342.249525 234.048388 
L 342.455524 235.182146 
L 342.455524 235.182146 
L 342.867522 247.184263 
L 342.867522 247.184263 
L 343.073521 250.951758 
L 343.073521 250.951758 
L 343.691518 295.488 
L 343.691518 295.488 
L 343.897517 285.712961 
L 343.897517 285.712961 
L 345.54551 148.539688 
L 345.54551 148.539688 
L 346.369506 113.873092 
L 346.369506 113.873092 
L 346.575505 108.011273 
L 346.575505 108.011273 
L 346.781504 113.260435 
L 346.781504 113.260435 
L 346.987503 113.490849 
L 346.987503 113.490849 
L 347.399502 124.793333 
L 347.399502 124.793333 
L 347.605501 127.936726 
L 347.605501 127.936726 
L 347.8115 138.908849 
L 347.8115 138.908849 
L 348.017499 143.54688 
L 348.017499 143.54688 
L 348.635496 169.571433 
L 348.635496 169.571433 
L 348.841495 175.575925 
L 348.841495 175.575925 
L 349.459492 201.673722 
L 349.459492 201.673722 
L 350.283489 234.09798 
L 350.283489 234.09798 
L 350.901486 263.06832 
L 350.901486 263.06832 
L 351.725482 294.793707 
L 351.725482 294.793707 
L 352.343479 276.729875 
L 352.343479 276.729875 
L 352.755478 269.017116 
L 352.755478 269.017116 
L 353.167476 264.40121 
L 353.167476 264.40121 
L 353.579474 261.801807 
L 353.579474 261.801807 
L 353.991472 260.717641 
L 353.991472 260.717641 
L 354.197471 260.050051 
L 354.197471 260.050051 
L 354.609469 259.69146 
L 354.609469 259.69146 
L 354.815468 258.901797 
L 354.815468 258.901797 
L 355.021467 258.736998 
L 355.021467 258.736998 
L 355.227467 258.762939 
L 355.227467 258.762939 
L 355.433466 258.009897 
L 355.433466 258.009897 
L 355.845464 257.763461 
L 355.845464 257.763461 
L 356.257462 256.025439 
L 356.257462 256.025439 
L 356.463461 255.242643 
L 356.463461 255.242643 
L 357.287457 248.068534 
L 357.287457 248.068534 
L 358.317453 231.175845 
L 358.317453 231.175845 
L 359.965445 200.733756 
L 359.965445 200.733756 
L 360.377443 196.5535 
L 360.377443 196.5535 
L 360.583443 195.492986 
L 360.583443 195.492986 
L 360.789442 195.190854 
L 360.789442 195.190854 
L 360.995441 195.692881 
L 360.995441 195.692881 
L 361.20144 196.827402 
L 361.20144 196.827402 
L 361.613438 200.877192 
L 361.613438 200.877192 
L 363.261431 222.116462 
L 363.261431 222.116462 
L 363.46743 222.779474 
L 363.46743 222.779474 
L 363.673429 222.293469 
L 363.673429 222.293469 
L 363.879428 221.310014 
L 363.879428 221.310014 
L 364.497425 212.806829 
L 364.497425 212.806829 
L 364.909423 205.248951 
L 364.909423 205.248951 
L 365.115422 200.478927 
L 365.321421 198.534906 
L 365.321421 198.534906 
L 365.52742 194.929922 
L 365.52742 194.929922 
L 365.733419 194.091429 
L 365.733419 194.091429 
L 365.939419 191.983372 
L 365.939419 191.983372 
L 366.145418 192.419785 
L 366.145418 192.419785 
L 366.351417 192.174112 
L 366.557416 191.369952 
L 366.557416 191.369952 
L 366.763415 195.296905 
L 366.763415 195.296905 
L 366.969414 195.778333 
L 366.969414 195.778333 
L 367.175413 200.109655 
L 367.175413 200.109655 
L 367.381412 201.099976 
L 367.381412 201.099976 
L 367.587411 205.146714 
L 367.587411 205.146714 
L 367.79341 206.136273 
L 367.79341 206.136273 
L 367.999409 209.329259 
L 367.999409 209.329259 
L 368.205408 210.034996 
L 368.205408 210.034996 
L 368.411407 208.909631 
L 368.411407 208.909631 
L 368.617407 212.992991 
L 368.617407 212.992991 
L 368.823406 211.536501 
L 368.823406 211.536501 
L 369.029405 214.736354 
L 369.029405 214.736354 
L 369.235404 213.099042 
L 369.235404 213.099042 
L 369.441403 215.651142 
L 369.441403 215.651142 
L 369.647402 214.023749 
L 369.647402 214.023749 
L 369.853401 216.066955 
L 369.853401 216.066955 
L 370.0594 214.773739 
L 370.0594 214.773739 
L 370.265399 216.665878 
L 370.265399 216.665878 
L 370.471398 215.860193 
L 370.471398 215.860193 
L 370.677397 217.883562 
L 370.677397 217.883562 
L 370.883396 217.804977 
L 370.883396 217.804977 
L 371.089395 216.984796 
L 371.089395 216.984796 
L 371.295395 220.403618 
L 371.501394 219.829109 
L 371.501394 219.829109 
L 371.707393 222.076788 
L 371.707393 222.076788 
L 371.913392 220.479914 
L 371.913392 220.479914 
L 372.119391 221.308488 
L 372.119391 221.308488 
L 372.32539 218.168909 
L 372.32539 218.168909 
L 372.531389 217.873644 
L 372.531389 217.873644 
L 372.737388 213.680417 
L 372.737388 213.680417 
L 372.943387 212.533689 
L 372.943387 212.533689 
L 373.149386 207.611074 
L 373.149386 207.611074 
L 373.355385 205.88297 
L 373.355385 205.88297 
L 373.561384 200.871851 
L 373.561384 200.871851 
L 373.767383 199.164348 
L 373.767383 199.164348 
L 373.973383 194.833789 
L 373.973383 194.833789 
L 374.179382 193.458936 
L 374.179382 193.458936 
L 374.59138 184.851988 
L 374.59138 184.851988 
L 374.797379 186.384774 
L 374.797379 186.384774 
L 375.003378 182.425777 
L 375.003378 182.425777 
L 375.209377 184.150065 
L 375.209377 184.150065 
L 375.415376 181.012775 
L 375.415376 181.012775 
L 375.621375 183.068189 
L 375.621375 183.068189 
L 375.827374 180.921983 
L 375.827374 180.921983 
L 376.033373 183.203995 
L 376.033373 183.203995 
L 376.239372 182.138141 
L 376.239372 182.138141 
L 376.445371 184.913788 
L 376.445371 184.913788 
L 376.651371 185.054935 
L 376.651371 185.054935 
L 376.85737 188.231899 
L 376.85737 188.231899 
L 377.063369 189.537323 
L 377.063369 189.537323 
L 377.269368 189.626589 
L 377.475367 195.538001 
L 377.475367 195.538001 
L 377.681366 196.643529 
L 377.681366 196.643529 
L 377.887365 202.569436 
L 377.887365 202.569436 
L 378.093364 204.538635 
L 378.093364 204.538635 
L 378.711361 219.697117 
L 378.711361 219.697117 
L 378.91736 223.384501 
L 378.91736 223.384501 
L 379.329359 233.8401 
L 379.329359 233.8401 
L 379.535358 237.335218 
L 379.535358 237.335218 
L 380.153355 255.269346 
L 380.153355 255.269346 
L 380.565353 266.046151 
L 380.565353 266.046151 
L 381.801347 294.570923 
L 381.801347 294.570923 
L 382.419345 281.682246 
L 382.419345 281.682246 
L 383.243341 270.127985 
L 383.243341 270.127985 
L 384.685335 253.69002 
L 384.685335 253.69002 
L 387.363323 216.494213 
L 387.363323 216.494213 
L 388.393318 205.548031 
L 388.393318 205.548031 
L 389.011315 201.219761 
L 389.011315 201.219761 
L 389.423313 199.760219 
L 389.423313 199.760219 
L 389.629312 199.513783 
L 389.629312 199.513783 
L 390.041311 199.750301 
L 390.041311 199.750301 
L 390.453309 201.278509 
L 390.453309 201.278509 
L 391.071306 205.431298 
L 391.071306 205.431298 
L 391.689303 212.091936 
L 391.689303 212.091936 
L 392.3073 220.696594 
L 392.3073 220.696594 
L 393.337296 239.505838 
L 393.337296 239.505838 
L 394.161292 253.792257 
L 394.161292 253.792257 
L 395.191287 268.445659 
L 395.191287 268.445659 
L 396.221283 287.488368 
L 396.221283 287.488368 
L 396.427282 295.488 
L 396.427282 295.488 
L 396.633281 292.655894 
L 396.633281 292.655894 
L 396.83928 292.693279 
L 396.83928 292.693279 
L 397.045279 291.438973 
L 397.045279 291.438973 
L 397.251278 288.226913 
L 397.251278 288.226913 
L 397.457277 283.09601 
L 397.457277 283.09601 
L 397.869275 265.390769 
L 397.869275 265.390769 
L 398.075275 264.165456 
L 398.075275 264.165456 
L 398.281274 255.871322 
L 398.281274 255.871322 
L 398.487273 193.741231 
L 398.487273 193.741231 
" clip-path="url(#p3ee782db18)" style="fill: none; stroke: #1f77b4; stroke-width: 1.5; stroke-linecap: square"/>
   </g>
   <g id="patch_3">
    <path d="M 57.6 307.584 
L 57.6 41.472 
" style="fill: none; stroke: #000000; stroke-width: 0.8; stroke-linejoin: miter; stroke-linecap: square"/>
   </g>
   <g id="patch_4">
    <path d="M 414.72 307.584 
L 414.72 41.472 
" style="fill: none; stroke: #000000; stroke-width: 0.8; stroke-linejoin: miter; stroke-linecap: square"/>
   </g>
   <g id="patch_5">
    <path d="M 57.6 307.584 
L 414.72 307.584 
" style="fill: none; stroke: #000000; stroke-width: 0.8; stroke-linejoin: miter; stroke-linecap: square"/>
   </g>
   <g id="patch_6">
    <path d="M 57.6 41.472 
L 414.72 41.472 
" style="fill: none; stroke: #000000; stroke-width: 0.8; stroke-linejoin: miter; stroke-linecap: square"/>
   </g>
   <g id="text_17">
    <!-- Tracking error vs Time -->
    <g transform="translate(169.584375 35.472) scale(0.12 -0.12)">
     <defs>
      <path id="DejaVuSans-76" d="M 191 3500 
L 800 3500 
L 1894 563 
L 2988 3500 
L 3597 3500 
L 2284 0 
L 1503 0 
L 191 3500 
z
" transform="scale(0.015625)"/>
     </defs>
     <use xlink:href="#DejaVuSans-54"/>
     <use xlink:href="#DejaVuSans-72" x="46.333984"/>
     <use xlink:href="#DejaVuSans-61" x="87.447266"/>
     <use xlink:href="#DejaVuSans-63" x="148.726562"/>
     <use xlink:href="#DejaVuSans-6b" x="203.707031"/>
     <use xlink:href="#DejaVuSans-69" x="261.617188"/>
     <use xlink:href="#DejaVuSans-6e" x="289.400391"/>
     <use xlink:href="#DejaVuSans-67" x="352.779297"/>
     <use xlink:href="#DejaVuSans-20" x="416.255859"/>
     <use xlink:href="#DejaVuSans-65" x="448.042969"/>
     <use xlink:href="#DejaVuSans-72" x="509.566406"/>
     <use xlink:href="#DejaVuSans-72" x="548.929688"/>
     <use xlink:href="#DejaVuSans-6f" x="587.792969"/>
     <use xlink:href="#DejaVuSans-72" x="648.974609"/>
     <use xlink:href="#DejaVuSans-20" x="690.087891"/>
     <use xlink:href="#DejaVuSans-76" x="721.875"/>
     <use xlink:href="#DejaVuSans-73" x="781.054688"/>
     <use xlink:href="#DejaVuSans-20" x="833.154297"/>
     <use xlink:href="#DejaVuSans-54" x="864.941406"/>
     <use xlink:href="#DejaVuSans-69" x="922.900391"/>
     <use xlink:href="#DejaVuSans-6d" x="950.683594"/>
     <use xlink:href="#DejaVuSans-65" x="1048.095703"/>
    </g>
   </g>
   <g id="legend_1">
    <g id="patch_7">
     <path d="M 311.00125 64.150125 
L 407.72 64.150125 
Q 409.72 64.150125 409.72 62.150125 
L 409.72 48.472 
Q 409.72 46.472 407.72 46.472 
L 311.00125 46.472 
Q 309.00125 46.472 309.00125 48.472 
L 309.00125 62.150125 
Q 309.00125 64.150125 311.00125 64.150125 
z
" style="fill: #ffffff; opacity: 0.8; stroke: #cccccc; stroke-linejoin: miter"/>
    </g>
    <g id="line2d_30">
     <path d="M 313.00125 54.570438 
L 323.00125 54.570438 
L 333.00125 54.570438 
" style="fill: none; stroke: #1f77b4; stroke-width: 1.5; stroke-linecap: square"/>
    </g>
    <g id="text_18">
     <!-- Actual speed -->
     <g transform="translate(341.00125 58.070438) scale(0.1 -0.1)">
      <defs>
       <path id="DejaVuSans-41" d="M 2188 4044 
L 1331 1722 
L 3047 1722 
L 2188 4044 
z
M 1831 4666 
L 2547 4666 
L 4325 0 
L 3669 0 
L 3244 1197 
L 1141 1197 
L 716 0 
L 50 0 
L 1831 4666 
z
" transform="scale(0.015625)"/>
       <path id="DejaVuSans-74" d="M 1172 4494 
L 1172 3500 
L 2356 3500 
L 2356 3053 
L 1172 3053 
L 1172 1153 
Q 1172 725 1289 603 
Q 1406 481 1766 481 
L 2356 481 
L 2356 0 
L 1766 0 
Q 1100 0 847 248 
Q 594 497 594 1153 
L 594 3053 
L 172 3053 
L 172 3500 
L 594 3500 
L 594 4494 
L 1172 4494 
z
" transform="scale(0.015625)"/>
       <path id="DejaVuSans-75" d="M 544 1381 
L 544 3500 
L 1119 3500 
L 1119 1403 
Q 1119 906 1312 657 
Q 1506 409 1894 409 
Q 2359 409 2629 706 
Q 2900 1003 2900 1516 
L 2900 3500 
L 3475 3500 
L 3475 0 
L 2900 0 
L 2900 538 
Q 2691 219 2414 64 
Q 2138 -91 1772 -91 
Q 1169 -91 856 284 
Q 544 659 544 1381 
z
M 1991 3584 
L 1991 3584 
z
" transform="scale(0.015625)"/>
       <path id="DejaVuSans-6c" d="M 603 4863 
L 1178 4863 
L 1178 0 
L 603 0 
L 603 4863 
z
" transform="scale(0.015625)"/>
       <path id="DejaVuSans-70" d="M 1159 525 
L 1159 -1331 
L 581 -1331 
L 581 3500 
L 1159 3500 
L 1159 2969 
Q 1341 3281 1617 3432 
Q 1894 3584 2278 3584 
Q 2916 3584 3314 3078 
Q 3713 2572 3713 1747 
Q 3713 922 3314 415 
Q 2916 -91 2278 -91 
Q 1894 -91 1617 61 
Q 1341 213 1159 525 
z
M 3116 1747 
Q 3116 2381 2855 2742 
Q 2594 3103 2138 3103 
Q 1681 3103 1420 2742 
Q 1159 2381 1159 1747 
Q 1159 1113 1420 752 
Q 1681 391 2138 391 
Q 2594 391 2855 752 
Q 3116 1113 3116 1747 
z
" transform="scale(0.015625)"/>
       <path id="DejaVuSans-64" d="M 2906 2969 
L 2906 4863 
L 3481 4863 
L 3481 0 
L 2906 0 
L 2906 525 
Q 2725 213 2448 61 
Q 2172 -91 1784 -91 
Q 1150 -91 751 415 
Q 353 922 353 1747 
Q 353 2572 751 3078 
Q 1150 3584 1784 3584 
Q 2172 3584 2448 3432 
Q 2725 3281 2906 2969 
z
M 947 1747 
Q 947 1113 1208 752 
Q 1469 391 1925 391 
Q 2381 391 2643 752 
Q 2906 1113 2906 1747 
Q 2906 2381 2643 2742 
Q 2381 3103 1925 3103 
Q 1469 3103 1208 2742 
Q 947 2381 947 1747 
z
" transform="scale(0.015625)"/>
      </defs>
      <use xlink:href="#DejaVuSans-41"/>
      <use xlink:href="#DejaVuSans-63" x="66.658203"/>
      <use xlink:href="#DejaVuSans-74" x="121.638672"/>
      <use xlink:href="#DejaVuSans-75" x="160.847656"/>
      <use xlink:href="#DejaVuSans-61" x="224.226562"/>
      <use xlink:href="#DejaVuSans-6c" x="285.505859"/>
      <use xlink:href="#DejaVuSans-20" x="313.289062"/>
      <use xlink:href="#DejaVuSans-73" x="345.076172"/>
      <use xlink:href="#DejaVuSans-70" x="397.175781"/>
      <use xlink:href="#DejaVuSans-65" x="460.652344"/>
      <use xlink:href="#DejaVuSans-65" x="522.175781"/>
      <use xlink:href="#DejaVuSans-64" x="583.699219"/>
     </g>
    </g>
   </g>
  </g>
 </g>
 <defs>
  <clipPath id="p3ee782db18">
   <rect x="57.6" y="41.472" width="357.12" height="266.112"/>
  </clipPath>
 </defs>
</svg>
