<?xml version="1.0" encoding="utf-8" standalone="no"?>
<!DOCTYPE svg PUBLIC "-//W3C//DTD SVG 1.1//EN"
  "http://www.w3.org/Graphics/SVG/1.1/DTD/svg11.dtd">
<svg xmlns:xlink="http://www.w3.org/1999/xlink" width="460.8pt" height="345.6pt" viewBox="0 0 460.8 345.6" xmlns="http://www.w3.org/2000/svg" version="1.1">
 <metadata>
  <rdf:RDF xmlns:dc="http://purl.org/dc/elements/1.1/" xmlns:cc="http://creativecommons.org/ns#" xmlns:rdf="http://www.w3.org/1999/02/22-rdf-syntax-ns#">
   <cc:Work>
    <dc:type rdf:resource="http://purl.org/dc/dcmitype/StillImage"/>
    <dc:date>2024-01-30T20:59:35.065449</dc:date>
    <dc:format>image/svg+xml</dc:format>
    <dc:creator>
     <cc:Agent>
      <dc:title>Matplotlib v3.7.1, https://matplotlib.org/</dc:title>
     </cc:Agent>
    </dc:creator>
   </cc:Work>
  </rdf:RDF>
 </metadata>
 <defs>
  <style type="text/css">*{stroke-linejoin: round; stroke-linecap: butt}</style>
 </defs>
 <g id="figure_1">
  <g id="patch_1">
   <path d="M 0 345.6 
L 460.8 345.6 
L 460.8 0 
L 0 0 
z
" style="fill: #ffffff"/>
  </g>
  <g id="axes_1">
   <g id="patch_2">
    <path d="M 57.6 307.584 
L 414.72 307.584 
L 414.72 41.472 
L 57.6 41.472 
z
" style="fill: #ffffff"/>
   </g>
   <g id="matplotlib.axis_1">
    <g id="xtick_1">
     <g id="line2d_1">
      <path d="M 73.832727 307.584 
L 73.832727 41.472 
" clip-path="url(#pd66816dbf0)" style="fill: none; stroke: #b0b0b0; stroke-width: 0.8; stroke-linecap: square"/>
     </g>
     <g id="line2d_2">
      <defs>
       <path id="m3bf1e81756" d="M 0 0 
L 0 3.5 
" style="stroke: #000000; stroke-width: 0.8"/>
      </defs>
      <g>
       <use xlink:href="#m3bf1e81756" x="73.832727" y="307.584" style="stroke: #000000; stroke-width: 0.8"/>
      </g>
     </g>
     <g id="text_1">
      <!-- 0 -->
      <g transform="translate(70.651477 322.182437) scale(0.1 -0.1)">
       <defs>
        <path id="DejaVuSans-30" d="M 2034 4250 
Q 1547 4250 1301 3770 
Q 1056 3291 1056 2328 
Q 1056 1369 1301 889 
Q 1547 409 2034 409 
Q 2525 409 2770 889 
Q 3016 1369 3016 2328 
Q 3016 3291 2770 3770 
Q 2525 4250 2034 4250 
z
M 2034 4750 
Q 2819 4750 3233 4129 
Q 3647 3509 3647 2328 
Q 3647 1150 3233 529 
Q 2819 -91 2034 -91 
Q 1250 -91 836 529 
Q 422 1150 422 2328 
Q 422 3509 836 4129 
Q 1250 4750 2034 4750 
z
" transform="scale(0.015625)"/>
       </defs>
       <use xlink:href="#DejaVuSans-30"/>
      </g>
     </g>
    </g>
    <g id="xtick_2">
     <g id="line2d_3">
      <path d="M 130.118189 307.584 
L 130.118189 41.472 
" clip-path="url(#pd66816dbf0)" style="fill: none; stroke: #b0b0b0; stroke-width: 0.8; stroke-linecap: square"/>
     </g>
     <g id="line2d_4">
      <g>
       <use xlink:href="#m3bf1e81756" x="130.118189" y="307.584" style="stroke: #000000; stroke-width: 0.8"/>
      </g>
     </g>
     <g id="text_2">
      <!-- 5 -->
      <g transform="translate(126.936939 322.182437) scale(0.1 -0.1)">
       <defs>
        <path id="DejaVuSans-35" d="M 691 4666 
L 3169 4666 
L 3169 4134 
L 1269 4134 
L 1269 2991 
Q 1406 3038 1543 3061 
Q 1681 3084 1819 3084 
Q 2600 3084 3056 2656 
Q 3513 2228 3513 1497 
Q 3513 744 3044 326 
Q 2575 -91 1722 -91 
Q 1428 -91 1123 -41 
Q 819 9 494 109 
L 494 744 
Q 775 591 1075 516 
Q 1375 441 1709 441 
Q 2250 441 2565 725 
Q 2881 1009 2881 1497 
Q 2881 1984 2565 2268 
Q 2250 2553 1709 2553 
Q 1456 2553 1204 2497 
Q 953 2441 691 2322 
L 691 4666 
z
" transform="scale(0.015625)"/>
       </defs>
       <use xlink:href="#DejaVuSans-35"/>
      </g>
     </g>
    </g>
    <g id="xtick_3">
     <g id="line2d_5">
      <path d="M 186.403651 307.584 
L 186.403651 41.472 
" clip-path="url(#pd66816dbf0)" style="fill: none; stroke: #b0b0b0; stroke-width: 0.8; stroke-linecap: square"/>
     </g>
     <g id="line2d_6">
      <g>
       <use xlink:href="#m3bf1e81756" x="186.403651" y="307.584" style="stroke: #000000; stroke-width: 0.8"/>
      </g>
     </g>
     <g id="text_3">
      <!-- 10 -->
      <g transform="translate(180.041151 322.182437) scale(0.1 -0.1)">
       <defs>
        <path id="DejaVuSans-31" d="M 794 531 
L 1825 531 
L 1825 4091 
L 703 3866 
L 703 4441 
L 1819 4666 
L 2450 4666 
L 2450 531 
L 3481 531 
L 3481 0 
L 794 0 
L 794 531 
z
" transform="scale(0.015625)"/>
       </defs>
       <use xlink:href="#DejaVuSans-31"/>
       <use xlink:href="#DejaVuSans-30" x="63.623047"/>
      </g>
     </g>
    </g>
    <g id="xtick_4">
     <g id="line2d_7">
      <path d="M 242.689114 307.584 
L 242.689114 41.472 
" clip-path="url(#pd66816dbf0)" style="fill: none; stroke: #b0b0b0; stroke-width: 0.8; stroke-linecap: square"/>
     </g>
     <g id="line2d_8">
      <g>
       <use xlink:href="#m3bf1e81756" x="242.689114" y="307.584" style="stroke: #000000; stroke-width: 0.8"/>
      </g>
     </g>
     <g id="text_4">
      <!-- 15 -->
      <g transform="translate(236.326614 322.182437) scale(0.1 -0.1)">
       <use xlink:href="#DejaVuSans-31"/>
       <use xlink:href="#DejaVuSans-35" x="63.623047"/>
      </g>
     </g>
    </g>
    <g id="xtick_5">
     <g id="line2d_9">
      <path d="M 298.974576 307.584 
L 298.974576 41.472 
" clip-path="url(#pd66816dbf0)" style="fill: none; stroke: #b0b0b0; stroke-width: 0.8; stroke-linecap: square"/>
     </g>
     <g id="line2d_10">
      <g>
       <use xlink:href="#m3bf1e81756" x="298.974576" y="307.584" style="stroke: #000000; stroke-width: 0.8"/>
      </g>
     </g>
     <g id="text_5">
      <!-- 20 -->
      <g transform="translate(292.612076 322.182437) scale(0.1 -0.1)">
       <defs>
        <path id="DejaVuSans-32" d="M 1228 531 
L 3431 531 
L 3431 0 
L 469 0 
L 469 531 
Q 828 903 1448 1529 
Q 2069 2156 2228 2338 
Q 2531 2678 2651 2914 
Q 2772 3150 2772 3378 
Q 2772 3750 2511 3984 
Q 2250 4219 1831 4219 
Q 1534 4219 1204 4116 
Q 875 4013 500 3803 
L 500 4441 
Q 881 4594 1212 4672 
Q 1544 4750 1819 4750 
Q 2544 4750 2975 4387 
Q 3406 4025 3406 3419 
Q 3406 3131 3298 2873 
Q 3191 2616 2906 2266 
Q 2828 2175 2409 1742 
Q 1991 1309 1228 531 
z
" transform="scale(0.015625)"/>
       </defs>
       <use xlink:href="#DejaVuSans-32"/>
       <use xlink:href="#DejaVuSans-30" x="63.623047"/>
      </g>
     </g>
    </g>
    <g id="xtick_6">
     <g id="line2d_11">
      <path d="M 355.260038 307.584 
L 355.260038 41.472 
" clip-path="url(#pd66816dbf0)" style="fill: none; stroke: #b0b0b0; stroke-width: 0.8; stroke-linecap: square"/>
     </g>
     <g id="line2d_12">
      <g>
       <use xlink:href="#m3bf1e81756" x="355.260038" y="307.584" style="stroke: #000000; stroke-width: 0.8"/>
      </g>
     </g>
     <g id="text_6">
      <!-- 25 -->
      <g transform="translate(348.897538 322.182437) scale(0.1 -0.1)">
       <use xlink:href="#DejaVuSans-32"/>
       <use xlink:href="#DejaVuSans-35" x="63.623047"/>
      </g>
     </g>
    </g>
    <g id="xtick_7">
     <g id="line2d_13">
      <path d="M 411.5455 307.584 
L 411.5455 41.472 
" clip-path="url(#pd66816dbf0)" style="fill: none; stroke: #b0b0b0; stroke-width: 0.8; stroke-linecap: square"/>
     </g>
     <g id="line2d_14">
      <g>
       <use xlink:href="#m3bf1e81756" x="411.5455" y="307.584" style="stroke: #000000; stroke-width: 0.8"/>
      </g>
     </g>
     <g id="text_7">
      <!-- 30 -->
      <g transform="translate(405.183 322.182437) scale(0.1 -0.1)">
       <defs>
        <path id="DejaVuSans-33" d="M 2597 2516 
Q 3050 2419 3304 2112 
Q 3559 1806 3559 1356 
Q 3559 666 3084 287 
Q 2609 -91 1734 -91 
Q 1441 -91 1130 -33 
Q 819 25 488 141 
L 488 750 
Q 750 597 1062 519 
Q 1375 441 1716 441 
Q 2309 441 2620 675 
Q 2931 909 2931 1356 
Q 2931 1769 2642 2001 
Q 2353 2234 1838 2234 
L 1294 2234 
L 1294 2753 
L 1863 2753 
Q 2328 2753 2575 2939 
Q 2822 3125 2822 3475 
Q 2822 3834 2567 4026 
Q 2313 4219 1838 4219 
Q 1578 4219 1281 4162 
Q 984 4106 628 3988 
L 628 4550 
Q 988 4650 1302 4700 
Q 1616 4750 1894 4750 
Q 2613 4750 3031 4423 
Q 3450 4097 3450 3541 
Q 3450 3153 3228 2886 
Q 3006 2619 2597 2516 
z
" transform="scale(0.015625)"/>
       </defs>
       <use xlink:href="#DejaVuSans-33"/>
       <use xlink:href="#DejaVuSans-30" x="63.623047"/>
      </g>
     </g>
    </g>
    <g id="text_8">
     <!-- Time(s) -->
     <g transform="translate(217.420156 335.860562) scale(0.1 -0.1)">
      <defs>
       <path id="DejaVuSans-54" d="M -19 4666 
L 3928 4666 
L 3928 4134 
L 2272 4134 
L 2272 0 
L 1638 0 
L 1638 4134 
L -19 4134 
L -19 4666 
z
" transform="scale(0.015625)"/>
       <path id="DejaVuSans-69" d="M 603 3500 
L 1178 3500 
L 1178 0 
L 603 0 
L 603 3500 
z
M 603 4863 
L 1178 4863 
L 1178 4134 
L 603 4134 
L 603 4863 
z
" transform="scale(0.015625)"/>
       <path id="DejaVuSans-6d" d="M 3328 2828 
Q 3544 3216 3844 3400 
Q 4144 3584 4550 3584 
Q 5097 3584 5394 3201 
Q 5691 2819 5691 2113 
L 5691 0 
L 5113 0 
L 5113 2094 
Q 5113 2597 4934 2840 
Q 4756 3084 4391 3084 
Q 3944 3084 3684 2787 
Q 3425 2491 3425 1978 
L 3425 0 
L 2847 0 
L 2847 2094 
Q 2847 2600 2669 2842 
Q 2491 3084 2119 3084 
Q 1678 3084 1418 2786 
Q 1159 2488 1159 1978 
L 1159 0 
L 581 0 
L 581 3500 
L 1159 3500 
L 1159 2956 
Q 1356 3278 1631 3431 
Q 1906 3584 2284 3584 
Q 2666 3584 2933 3390 
Q 3200 3197 3328 2828 
z
" transform="scale(0.015625)"/>
       <path id="DejaVuSans-65" d="M 3597 1894 
L 3597 1613 
L 953 1613 
Q 991 1019 1311 708 
Q 1631 397 2203 397 
Q 2534 397 2845 478 
Q 3156 559 3463 722 
L 3463 178 
Q 3153 47 2828 -22 
Q 2503 -91 2169 -91 
Q 1331 -91 842 396 
Q 353 884 353 1716 
Q 353 2575 817 3079 
Q 1281 3584 2069 3584 
Q 2775 3584 3186 3129 
Q 3597 2675 3597 1894 
z
M 3022 2063 
Q 3016 2534 2758 2815 
Q 2500 3097 2075 3097 
Q 1594 3097 1305 2825 
Q 1016 2553 972 2059 
L 3022 2063 
z
" transform="scale(0.015625)"/>
       <path id="DejaVuSans-28" d="M 1984 4856 
Q 1566 4138 1362 3434 
Q 1159 2731 1159 2009 
Q 1159 1288 1364 580 
Q 1569 -128 1984 -844 
L 1484 -844 
Q 1016 -109 783 600 
Q 550 1309 550 2009 
Q 550 2706 781 3412 
Q 1013 4119 1484 4856 
L 1984 4856 
z
" transform="scale(0.015625)"/>
       <path id="DejaVuSans-73" d="M 2834 3397 
L 2834 2853 
Q 2591 2978 2328 3040 
Q 2066 3103 1784 3103 
Q 1356 3103 1142 2972 
Q 928 2841 928 2578 
Q 928 2378 1081 2264 
Q 1234 2150 1697 2047 
L 1894 2003 
Q 2506 1872 2764 1633 
Q 3022 1394 3022 966 
Q 3022 478 2636 193 
Q 2250 -91 1575 -91 
Q 1294 -91 989 -36 
Q 684 19 347 128 
L 347 722 
Q 666 556 975 473 
Q 1284 391 1588 391 
Q 1994 391 2212 530 
Q 2431 669 2431 922 
Q 2431 1156 2273 1281 
Q 2116 1406 1581 1522 
L 1381 1569 
Q 847 1681 609 1914 
Q 372 2147 372 2553 
Q 372 3047 722 3315 
Q 1072 3584 1716 3584 
Q 2034 3584 2315 3537 
Q 2597 3491 2834 3397 
z
" transform="scale(0.015625)"/>
       <path id="DejaVuSans-29" d="M 513 4856 
L 1013 4856 
Q 1481 4119 1714 3412 
Q 1947 2706 1947 2009 
Q 1947 1309 1714 600 
Q 1481 -109 1013 -844 
L 513 -844 
Q 928 -128 1133 580 
Q 1338 1288 1338 2009 
Q 1338 2731 1133 3434 
Q 928 4138 513 4856 
z
" transform="scale(0.015625)"/>
      </defs>
      <use xlink:href="#DejaVuSans-54"/>
      <use xlink:href="#DejaVuSans-69" x="57.958984"/>
      <use xlink:href="#DejaVuSans-6d" x="85.742188"/>
      <use xlink:href="#DejaVuSans-65" x="183.154297"/>
      <use xlink:href="#DejaVuSans-28" x="244.677734"/>
      <use xlink:href="#DejaVuSans-73" x="283.691406"/>
      <use xlink:href="#DejaVuSans-29" x="335.791016"/>
     </g>
    </g>
   </g>
   <g id="matplotlib.axis_2">
    <g id="ytick_1">
     <g id="line2d_15">
      <path d="M 57.6 295.488 
L 414.72 295.488 
" clip-path="url(#pd66816dbf0)" style="fill: none; stroke: #b0b0b0; stroke-width: 0.8; stroke-linecap: square"/>
     </g>
     <g id="line2d_16">
      <defs>
       <path id="m0d5e43ab74" d="M 0 0 
L -3.5 0 
" style="stroke: #000000; stroke-width: 0.8"/>
      </defs>
      <g>
       <use xlink:href="#m0d5e43ab74" x="57.6" y="295.488" style="stroke: #000000; stroke-width: 0.8"/>
      </g>
     </g>
     <g id="text_9">
      <!-- 0.00 -->
      <g transform="translate(28.334375 299.287219) scale(0.1 -0.1)">
       <defs>
        <path id="DejaVuSans-2e" d="M 684 794 
L 1344 794 
L 1344 0 
L 684 0 
L 684 794 
z
" transform="scale(0.015625)"/>
       </defs>
       <use xlink:href="#DejaVuSans-30"/>
       <use xlink:href="#DejaVuSans-2e" x="63.623047"/>
       <use xlink:href="#DejaVuSans-30" x="95.410156"/>
       <use xlink:href="#DejaVuSans-30" x="159.033203"/>
      </g>
     </g>
    </g>
    <g id="ytick_2">
     <g id="line2d_17">
      <path d="M 57.6 247.531389 
L 414.72 247.531389 
" clip-path="url(#pd66816dbf0)" style="fill: none; stroke: #b0b0b0; stroke-width: 0.8; stroke-linecap: square"/>
     </g>
     <g id="line2d_18">
      <g>
       <use xlink:href="#m0d5e43ab74" x="57.6" y="247.531389" style="stroke: #000000; stroke-width: 0.8"/>
      </g>
     </g>
     <g id="text_10">
      <!-- 0.05 -->
      <g transform="translate(28.334375 251.330608) scale(0.1 -0.1)">
       <use xlink:href="#DejaVuSans-30"/>
       <use xlink:href="#DejaVuSans-2e" x="63.623047"/>
       <use xlink:href="#DejaVuSans-30" x="95.410156"/>
       <use xlink:href="#DejaVuSans-35" x="159.033203"/>
      </g>
     </g>
    </g>
    <g id="ytick_3">
     <g id="line2d_19">
      <path d="M 57.6 199.574779 
L 414.72 199.574779 
" clip-path="url(#pd66816dbf0)" style="fill: none; stroke: #b0b0b0; stroke-width: 0.8; stroke-linecap: square"/>
     </g>
     <g id="line2d_20">
      <g>
       <use xlink:href="#m0d5e43ab74" x="57.6" y="199.574779" style="stroke: #000000; stroke-width: 0.8"/>
      </g>
     </g>
     <g id="text_11">
      <!-- 0.10 -->
      <g transform="translate(28.334375 203.373997) scale(0.1 -0.1)">
       <use xlink:href="#DejaVuSans-30"/>
       <use xlink:href="#DejaVuSans-2e" x="63.623047"/>
       <use xlink:href="#DejaVuSans-31" x="95.410156"/>
       <use xlink:href="#DejaVuSans-30" x="159.033203"/>
      </g>
     </g>
    </g>
    <g id="ytick_4">
     <g id="line2d_21">
      <path d="M 57.6 151.618168 
L 414.72 151.618168 
" clip-path="url(#pd66816dbf0)" style="fill: none; stroke: #b0b0b0; stroke-width: 0.8; stroke-linecap: square"/>
     </g>
     <g id="line2d_22">
      <g>
       <use xlink:href="#m0d5e43ab74" x="57.6" y="151.618168" style="stroke: #000000; stroke-width: 0.8"/>
      </g>
     </g>
     <g id="text_12">
      <!-- 0.15 -->
      <g transform="translate(28.334375 155.417387) scale(0.1 -0.1)">
       <use xlink:href="#DejaVuSans-30"/>
       <use xlink:href="#DejaVuSans-2e" x="63.623047"/>
       <use xlink:href="#DejaVuSans-31" x="95.410156"/>
       <use xlink:href="#DejaVuSans-35" x="159.033203"/>
      </g>
     </g>
    </g>
    <g id="ytick_5">
     <g id="line2d_23">
      <path d="M 57.6 103.661557 
L 414.72 103.661557 
" clip-path="url(#pd66816dbf0)" style="fill: none; stroke: #b0b0b0; stroke-width: 0.8; stroke-linecap: square"/>
     </g>
     <g id="line2d_24">
      <g>
       <use xlink:href="#m0d5e43ab74" x="57.6" y="103.661557" style="stroke: #000000; stroke-width: 0.8"/>
      </g>
     </g>
     <g id="text_13">
      <!-- 0.20 -->
      <g transform="translate(28.334375 107.460776) scale(0.1 -0.1)">
       <use xlink:href="#DejaVuSans-30"/>
       <use xlink:href="#DejaVuSans-2e" x="63.623047"/>
       <use xlink:href="#DejaVuSans-32" x="95.410156"/>
       <use xlink:href="#DejaVuSans-30" x="159.033203"/>
      </g>
     </g>
    </g>
    <g id="ytick_6">
     <g id="line2d_25">
      <path d="M 57.6 55.704947 
L 414.72 55.704947 
" clip-path="url(#pd66816dbf0)" style="fill: none; stroke: #b0b0b0; stroke-width: 0.8; stroke-linecap: square"/>
     </g>
     <g id="line2d_26">
      <g>
       <use xlink:href="#m0d5e43ab74" x="57.6" y="55.704947" style="stroke: #000000; stroke-width: 0.8"/>
      </g>
     </g>
     <g id="text_14">
      <!-- 0.25 -->
      <g transform="translate(28.334375 59.504165) scale(0.1 -0.1)">
       <use xlink:href="#DejaVuSans-30"/>
       <use xlink:href="#DejaVuSans-2e" x="63.623047"/>
       <use xlink:href="#DejaVuSans-32" x="95.410156"/>
       <use xlink:href="#DejaVuSans-35" x="159.033203"/>
      </g>
     </g>
    </g>
    <g id="text_15">
     <!-- Tracking error(m) -->
     <g transform="translate(22.254687 217.803781) rotate(-90) scale(0.1 -0.1)">
      <defs>
       <path id="DejaVuSans-72" d="M 2631 2963 
Q 2534 3019 2420 3045 
Q 2306 3072 2169 3072 
Q 1681 3072 1420 2755 
Q 1159 2438 1159 1844 
L 1159 0 
L 581 0 
L 581 3500 
L 1159 3500 
L 1159 2956 
Q 1341 3275 1631 3429 
Q 1922 3584 2338 3584 
Q 2397 3584 2469 3576 
Q 2541 3569 2628 3553 
L 2631 2963 
z
" transform="scale(0.015625)"/>
       <path id="DejaVuSans-61" d="M 2194 1759 
Q 1497 1759 1228 1600 
Q 959 1441 959 1056 
Q 959 750 1161 570 
Q 1363 391 1709 391 
Q 2188 391 2477 730 
Q 2766 1069 2766 1631 
L 2766 1759 
L 2194 1759 
z
M 3341 1997 
L 3341 0 
L 2766 0 
L 2766 531 
Q 2569 213 2275 61 
Q 1981 -91 1556 -91 
Q 1019 -91 701 211 
Q 384 513 384 1019 
Q 384 1609 779 1909 
Q 1175 2209 1959 2209 
L 2766 2209 
L 2766 2266 
Q 2766 2663 2505 2880 
Q 2244 3097 1772 3097 
Q 1472 3097 1187 3025 
Q 903 2953 641 2809 
L 641 3341 
Q 956 3463 1253 3523 
Q 1550 3584 1831 3584 
Q 2591 3584 2966 3190 
Q 3341 2797 3341 1997 
z
" transform="scale(0.015625)"/>
       <path id="DejaVuSans-63" d="M 3122 3366 
L 3122 2828 
Q 2878 2963 2633 3030 
Q 2388 3097 2138 3097 
Q 1578 3097 1268 2742 
Q 959 2388 959 1747 
Q 959 1106 1268 751 
Q 1578 397 2138 397 
Q 2388 397 2633 464 
Q 2878 531 3122 666 
L 3122 134 
Q 2881 22 2623 -34 
Q 2366 -91 2075 -91 
Q 1284 -91 818 406 
Q 353 903 353 1747 
Q 353 2603 823 3093 
Q 1294 3584 2113 3584 
Q 2378 3584 2631 3529 
Q 2884 3475 3122 3366 
z
" transform="scale(0.015625)"/>
       <path id="DejaVuSans-6b" d="M 581 4863 
L 1159 4863 
L 1159 1991 
L 2875 3500 
L 3609 3500 
L 1753 1863 
L 3688 0 
L 2938 0 
L 1159 1709 
L 1159 0 
L 581 0 
L 581 4863 
z
" transform="scale(0.015625)"/>
       <path id="DejaVuSans-6e" d="M 3513 2113 
L 3513 0 
L 2938 0 
L 2938 2094 
Q 2938 2591 2744 2837 
Q 2550 3084 2163 3084 
Q 1697 3084 1428 2787 
Q 1159 2491 1159 1978 
L 1159 0 
L 581 0 
L 581 3500 
L 1159 3500 
L 1159 2956 
Q 1366 3272 1645 3428 
Q 1925 3584 2291 3584 
Q 2894 3584 3203 3211 
Q 3513 2838 3513 2113 
z
" transform="scale(0.015625)"/>
       <path id="DejaVuSans-67" d="M 2906 1791 
Q 2906 2416 2648 2759 
Q 2391 3103 1925 3103 
Q 1463 3103 1205 2759 
Q 947 2416 947 1791 
Q 947 1169 1205 825 
Q 1463 481 1925 481 
Q 2391 481 2648 825 
Q 2906 1169 2906 1791 
z
M 3481 434 
Q 3481 -459 3084 -895 
Q 2688 -1331 1869 -1331 
Q 1566 -1331 1297 -1286 
Q 1028 -1241 775 -1147 
L 775 -588 
Q 1028 -725 1275 -790 
Q 1522 -856 1778 -856 
Q 2344 -856 2625 -561 
Q 2906 -266 2906 331 
L 2906 616 
Q 2728 306 2450 153 
Q 2172 0 1784 0 
Q 1141 0 747 490 
Q 353 981 353 1791 
Q 353 2603 747 3093 
Q 1141 3584 1784 3584 
Q 2172 3584 2450 3431 
Q 2728 3278 2906 2969 
L 2906 3500 
L 3481 3500 
L 3481 434 
z
" transform="scale(0.015625)"/>
       <path id="DejaVuSans-20" transform="scale(0.015625)"/>
       <path id="DejaVuSans-6f" d="M 1959 3097 
Q 1497 3097 1228 2736 
Q 959 2375 959 1747 
Q 959 1119 1226 758 
Q 1494 397 1959 397 
Q 2419 397 2687 759 
Q 2956 1122 2956 1747 
Q 2956 2369 2687 2733 
Q 2419 3097 1959 3097 
z
M 1959 3584 
Q 2709 3584 3137 3096 
Q 3566 2609 3566 1747 
Q 3566 888 3137 398 
Q 2709 -91 1959 -91 
Q 1206 -91 779 398 
Q 353 888 353 1747 
Q 353 2609 779 3096 
Q 1206 3584 1959 3584 
z
" transform="scale(0.015625)"/>
      </defs>
      <use xlink:href="#DejaVuSans-54"/>
      <use xlink:href="#DejaVuSans-72" x="46.333984"/>
      <use xlink:href="#DejaVuSans-61" x="87.447266"/>
      <use xlink:href="#DejaVuSans-63" x="148.726562"/>
      <use xlink:href="#DejaVuSans-6b" x="203.707031"/>
      <use xlink:href="#DejaVuSans-69" x="261.617188"/>
      <use xlink:href="#DejaVuSans-6e" x="289.400391"/>
      <use xlink:href="#DejaVuSans-67" x="352.779297"/>
      <use xlink:href="#DejaVuSans-20" x="416.255859"/>
      <use xlink:href="#DejaVuSans-65" x="448.042969"/>
      <use xlink:href="#DejaVuSans-72" x="509.566406"/>
      <use xlink:href="#DejaVuSans-72" x="548.929688"/>
      <use xlink:href="#DejaVuSans-6f" x="587.792969"/>
      <use xlink:href="#DejaVuSans-72" x="648.974609"/>
      <use xlink:href="#DejaVuSans-28" x="690.087891"/>
      <use xlink:href="#DejaVuSans-6d" x="729.101562"/>
      <use xlink:href="#DejaVuSans-29" x="826.513672"/>
     </g>
    </g>
   </g>
   <g id="line2d_27">
    <path d="M 73.832727 295.488 
L 74.283011 295.488 
L 74.733295 294.140419 
L 74.958437 293.563981 
L 75.183578 293.670444 
L 75.40872 294.786874 
L 75.633862 294.320736 
L 76.084146 288.807644 
L 76.309288 281.088548 
L 78.110422 255.525756 
L 78.335564 254.263538 
L 78.560706 254.044856 
L 78.785848 254.707617 
L 79.461273 259.053445 
L 80.136699 264.869622 
L 80.361841 265.545811 
L 80.812125 267.396936 
L 81.037266 267.914867 
L 81.262408 267.781548 
L 81.712692 268.682173 
L 81.937834 268.56324 
L 82.388118 269.394808 
L 82.613259 269.380421 
L 83.288685 271.645891 
L 86.215529 289.060855 
L 86.890954 295.155181 
L 87.341238 291.369486 
L 88.692089 278.508482 
L 90.268082 268.393474 
L 90.493224 267.310614 
L 90.718366 267.63576 
L 90.943508 267.406527 
L 91.16865 267.376794 
L 91.618933 270.141013 
L 91.844075 271.42625 
L 93.420068 293.544798 
L 93.64521 292.823531 
L 95.221203 266.885718 
L 96.346912 253.981553 
L 96.572054 252.71454 
L 96.797196 249.991563 
L 97.24748 247.629221 
L 97.472621 246.750656 
L 97.697763 244.688521 
L 98.148047 243.073343 
L 98.373189 242.758747 
L 98.598331 242.823968 
L 98.823472 241.523385 
L 99.048614 241.886896 
L 99.72404 244.520673 
L 100.174324 248.83485 
L 100.399465 251.92997 
L 100.624607 253.46554 
L 101.300033 262.80557 
L 101.525175 263.777171 
L 101.975458 268.932506 
L 102.2006 269.479212 
L 102.650884 272.783422 
L 102.876026 272.972371 
L 103.326309 275.278125 
L 103.551451 277.066907 
L 103.776593 276.491427 
L 104.226877 280.693386 
L 104.452019 280.495804 
L 104.902302 285.494801 
L 105.127444 285.251182 
L 105.352586 287.713274 
L 105.577728 288.330955 
L 106.028012 292.610603 
L 106.253153 292.366984 
L 106.703437 295.205056 
L 106.928579 294.492421 
L 107.153721 295.488 
L 107.378863 293.987917 
L 107.604005 294.153847 
L 107.829146 295.488 
L 108.054288 295.16765 
L 108.27943 290.367193 
L 108.504572 289.263232 
L 108.729714 288.729954 
L 108.954856 282.258689 
L 109.179997 280.084337 
L 109.630281 271.373498 
L 109.855423 268.941139 
L 110.305707 260.37417 
L 110.530849 258.40603 
L 110.75599 253.29961 
L 111.206274 250.206409 
L 111.431416 245.816461 
L 111.656558 244.454493 
L 111.8817 243.778305 
L 112.106842 239.869841 
L 112.331983 238.858916 
L 112.782267 234.714506 
L 113.007409 233.755373 
L 113.457693 229.821972 
L 113.682834 228.87339 
L 113.907976 226.588737 
L 114.583402 223.242325 
L 114.808544 222.768514 
L 115.033686 222.776187 
L 115.258827 223.037071 
L 115.483969 222.769473 
L 115.934253 224.705961 
L 116.159395 225.784026 
L 116.83482 231.481271 
L 117.510246 240.096196 
L 117.96053 247.931347 
L 120.43709 295.488 
L 120.662232 295.409351 
L 122.238225 280.945637 
L 122.91365 277.049642 
L 123.363934 276.141344 
L 123.589076 276.038717 
L 123.814218 276.154772 
L 124.039359 276.458817 
L 125.840494 281.225704 
L 126.290778 283.342509 
L 127.191345 290.411313 
L 127.641629 294.48187 
L 127.866771 294.57107 
L 128.542196 290.22716 
L 128.99248 288.645551 
L 129.442764 287.897428 
L 129.667906 287.780414 
L 130.118189 288.269571 
L 130.568473 288.532373 
L 130.793615 288.574575 
L 131.919324 290.044925 
L 132.59475 293.080578 
L 133.045033 295.284664 
L 133.945601 289.617152 
L 134.621026 286.917195 
L 135.971877 284.456061 
L 136.647303 281.892301 
L 137.322729 279.598057 
L 137.54787 279.275788 
L 137.773012 279.728499 
L 138.223296 281.585379 
L 138.898721 286.692758 
L 139.574147 291.721488 
L 140.249573 295.099551 
L 140.474714 295.017066 
L 141.375282 291.714774 
L 142.275849 286.31486 
L 142.951275 282.320074 
L 143.401558 280.397014 
L 143.851842 278.701268 
L 144.076984 278.808691 
L 144.302126 278.306106 
L 144.527268 277.36136 
L 144.75241 277.922453 
L 144.977551 276.971953 
L 145.202693 276.707232 
L 145.427835 275.300185 
L 145.652977 272.892763 
L 145.878119 272.486091 
L 146.103261 269.953023 
L 146.328402 268.80686 
L 147.22897 257.468958 
L 147.454112 256.449401 
L 147.679254 252.821963 
L 147.904395 251.73047 
L 148.129537 248.687144 
L 148.354679 244.087146 
L 148.579821 244.703868 
L 148.804963 240.526847 
L 149.030105 240.985312 
L 149.255247 237.233187 
L 149.480388 237.241819 
L 149.70553 233.824431 
L 149.930672 234.0575 
L 150.155814 231.681729 
L 150.380956 232.411629 
L 150.606098 231.356584 
L 150.831239 229.193741 
L 151.056381 234.110252 
L 151.281523 234.060377 
L 151.506665 240.756079 
L 151.731807 243.178847 
L 151.956949 251.815833 
L 152.182091 255.775131 
L 152.407232 264.537763 
L 152.632374 268.449104 
L 152.857516 276.372495 
L 153.082658 279.57216 
L 153.3078 285.855435 
L 153.532942 287.325785 
L 153.758083 291.410729 
L 153.983225 291.048177 
L 154.208367 293.126616 
L 154.433509 291.581454 
L 154.658651 292.008268 
L 154.883793 289.190338 
L 155.108935 288.588003 
L 155.334076 285.322158 
L 155.559218 284.862733 
L 155.78436 282.902267 
L 156.009502 284.880957 
L 156.234644 284.883834 
L 156.684927 295.488 
L 156.910069 293.001929 
L 157.135211 295.488 
L 157.360353 283.442259 
L 157.585495 280.649266 
L 157.810637 281.610316 
L 158.035779 273.74735 
L 158.26092 276.560485 
L 158.486062 271.197018 
L 158.711204 275.979251 
L 158.936346 272.765199 
L 159.161488 278.779917 
L 159.38663 277.071702 
L 159.611772 283.656145 
L 159.836913 282.282668 
L 160.062055 287.834125 
L 160.287197 285.729789 
L 160.512339 289.407102 
L 160.737481 285.902433 
L 160.962623 287.457186 
L 161.187764 283.108481 
L 161.412906 283.271533 
L 161.638048 278.684963 
L 161.86319 277.923412 
L 162.088332 273.558401 
L 162.313474 272.049686 
L 162.538616 268.030922 
L 162.763757 266.070456 
L 163.214041 260.183302 
L 163.664325 254.360411 
L 164.790034 238.921259 
L 165.015176 234.900577 
L 165.240318 234.139985 
L 165.46546 231.0957 
L 165.690601 230.836734 
L 165.915743 228.91751 
L 166.140885 225.887612 
L 166.366027 228.331481 
L 166.591169 226.748913 
L 166.816311 229.423932 
L 167.041453 228.864758 
L 167.266594 226.664509 
L 167.491736 231.26163 
L 167.716878 229.996534 
L 167.94202 233.844573 
L 168.167162 233.634523 
L 168.392304 231.698994 
L 168.617445 237.748241 
L 168.842587 237.223595 
L 169.067729 242.846028 
L 169.292871 243.747613 
L 169.743155 252.901571 
L 169.968297 255.837474 
L 170.41858 269.05048 
L 170.868864 279.707398 
L 171.094006 284.141466 
L 171.319148 286.305268 
L 171.544289 286.515318 
L 171.769431 289.481914 
L 171.994573 288.810522 
L 172.219715 290.372948 
L 172.444857 289.349554 
L 172.669999 286.974742 
L 172.895141 289.467527 
L 173.120282 287.730539 
L 173.345424 290.066985 
L 173.570566 289.433957 
L 173.795708 291.773281 
L 174.02085 295.488 
L 174.245992 292.09459 
L 174.471134 294.464606 
L 174.696275 293.358726 
L 174.921417 289.082915 
L 175.146559 295.488 
L 175.596843 278.503687 
L 175.821985 274.988467 
L 176.722552 254.189685 
L 177.397978 241.470633 
L 177.848261 235.840527 
L 178.073403 235.024305 
L 178.298545 234.793154 
L 178.523687 235.564297 
L 179.199112 242.916045 
L 180.549963 264.780423 
L 181.675673 282.918572 
L 182.57624 295.488 
L 183.026524 294.438709 
L 184.602517 282.26924 
L 185.0528 276.705314 
L 185.277942 273.727208 
L 185.728226 265.652274 
L 186.403651 253.016666 
L 186.628793 246.558829 
L 186.853935 244.144693 
L 187.079077 236.751702 
L 187.304219 235.743654 
L 187.529361 227.230397 
L 187.754503 227.970847 
L 187.979644 226.621348 
L 188.204786 219.595704 
L 188.429928 219.177523 
L 188.65507 210.633573 
L 188.880212 211.158218 
L 189.105354 209.191038 
L 189.330496 201.745295 
L 189.555637 200.717105 
L 189.780779 191.642755 
L 190.005921 191.989961 
L 190.231063 189.961396 
L 190.456205 182.748722 
L 190.681347 181.968948 
L 190.906488 173.294556 
L 191.13163 173.906482 
L 191.356772 172.169494 
L 191.581914 165.37596 
L 191.807056 165.198521 
L 192.032198 156.910659 
L 192.25734 159.737222 
L 192.482481 160.431634 
L 192.707623 156.047441 
L 192.932765 160.125671 
L 193.157907 154.316207 
L 193.383049 162.398814 
L 193.608191 154.579968 
L 194.058474 171.345599 
L 194.283616 167.049646 
L 194.508758 173.507483 
L 194.7339 166.175877 
L 194.959042 171.535507 
L 195.184184 172.138802 
L 195.409325 164.419706 
L 195.634467 164.201023 
L 195.859609 153.400236 
L 196.084751 154.031345 
L 196.309893 152.08047 
L 196.535035 145.409705 
L 196.760177 147.013374 
L 196.985318 141.91175 
L 197.435602 151.751487 
L 197.660744 152.667459 
L 197.885886 159.701734 
L 198.111028 160.205279 
L 198.336169 168.851856 
L 198.561311 168.178545 
L 199.011595 184.467487 
L 199.236737 185.088046 
L 199.461879 191.844173 
L 199.687021 191.424073 
L 200.137304 204.374276 
L 200.362446 206.774025 
L 200.587588 213.572354 
L 200.81273 216.976314 
L 202.839006 293.357767 
L 203.064148 295.488 
L 203.514432 275.10644 
L 203.739574 269.917535 
L 203.964716 261.803277 
L 204.414999 253.103947 
L 205.090425 230.618052 
L 205.315567 228.002498 
L 205.540709 223.304669 
L 205.76585 212.752296 
L 205.990992 209.060596 
L 206.216134 203.3528 
L 206.441276 192.90881 
L 206.666418 188.599429 
L 206.89156 175.691427 
L 207.116702 175.377791 
L 207.341843 174.633505 
L 207.566985 166.902899 
L 208.017269 173.150686 
L 208.242411 168.783757 
L 208.467553 172.848559 
L 208.692694 173.884422 
L 208.917836 169.109862 
L 209.142978 167.275042 
L 209.36812 161.595061 
L 209.818404 140.715712 
L 210.043546 114.256132 
L 210.268687 109.948669 
L 210.493829 102.238205 
L 210.718971 81.590007 
L 210.944113 80.092801 
L 211.169255 61.471249 
L 211.394397 66.762782 
L 211.619539 53.568 
L 212.069822 72.731462 
L 212.294964 70.447768 
L 212.520106 82.206729 
L 212.745248 79.57487 
L 213.195531 106.893833 
L 213.420673 110.909719 
L 213.645815 126.4045 
L 213.870957 128.765884 
L 214.321241 159.458115 
L 214.546383 164.31516 
L 214.771524 175.7883 
L 214.996666 175.918742 
L 215.44695 189.398386 
L 215.672092 185.913859 
L 215.897234 189.185458 
L 216.122375 190.286542 
L 216.347517 185.94551 
L 216.797801 190.395883 
L 217.022943 189.328369 
L 218.148652 214.347333 
L 219.499503 263.164285 
L 220.400071 295.009393 
L 221.300638 268.777127 
L 221.52578 258.756114 
L 221.976064 246.88973 
L 222.651489 212.689953 
L 222.876631 208.466893 
L 223.101773 201.704052 
L 223.326915 188.734666 
L 223.552056 183.986003 
L 223.777198 169.801396 
L 224.00234 168.388595 
L 224.227482 164.615369 
L 224.452624 154.349776 
L 224.677766 153.08564 
L 224.902908 141.407246 
L 225.128049 143.665044 
L 225.353191 143.180682 
L 225.578333 135.758917 
L 225.803475 137.160209 
L 226.028617 127.016427 
L 226.253759 130.411755 
L 226.478901 129.795033 
L 226.704042 121.594452 
L 226.929184 121.932067 
L 227.154326 111.123606 
L 227.379468 113.078317 
L 227.60461 100.037956 
L 227.829752 103.803509 
L 228.054893 104.219772 
L 228.280035 95.810101 
L 228.505177 98.743127 
L 228.730319 90.659561 
L 229.180603 102.463601 
L 229.405745 101.131366 
L 229.630886 108.90801 
L 229.856028 107.826109 
L 230.306312 125.846285 
L 230.531454 127.600538 
L 230.756596 135.206457 
L 230.981737 135.173846 
L 231.432021 145.102783 
L 231.657163 142.17647 
L 231.882305 144.737353 
L 232.107447 144.948363 
L 232.332589 140.749282 
L 232.55773 142.586979 
L 232.782872 136.983729 
L 233.233156 144.783392 
L 233.458298 142.897738 
L 233.68344 147.745192 
L 233.908582 144.427554 
L 234.358865 154.498442 
L 234.584007 152.91971 
L 234.809149 157.769083 
L 235.034291 154.869626 
L 235.484574 165.60807 
L 235.709716 165.39802 
L 235.934858 171.327376 
L 236.16 170.726 
L 236.385142 178.476747 
L 236.610284 177.938674 
L 237.060567 194.443421 
L 237.285709 197.151052 
L 237.510851 205.435076 
L 237.735993 208.71339 
L 238.186277 224.609089 
L 238.861702 240.455871 
L 239.311986 250.307118 
L 239.76227 260.977464 
L 240.437695 270.820079 
L 240.662837 274.818701 
L 240.887979 276.736006 
L 241.113121 280.392218 
L 241.338263 282.020825 
L 241.563404 285.396011 
L 241.788546 286.780998 
L 242.013688 289.835834 
L 242.23883 291.013648 
L 242.463972 293.680995 
L 242.689114 294.629577 
L 243.139397 293.540002 
L 243.364539 291.998677 
L 243.589681 291.826033 
L 243.814823 291.006934 
L 244.039965 291.164232 
L 244.265107 290.617527 
L 244.490248 290.767151 
L 244.71539 291.205475 
L 244.940532 290.207018 
L 245.165674 290.255934 
L 245.390816 289.261314 
L 245.615958 288.948637 
L 245.841099 287.930997 
L 246.066241 287.433208 
L 246.291383 287.22028 
L 246.516525 286.118237 
L 246.741667 285.878454 
L 246.966809 285.976286 
L 247.191951 284.909731 
L 247.642234 284.486754 
L 247.867376 283.101767 
L 248.31766 281.688006 
L 248.767944 278.288841 
L 249.218227 275.489134 
L 249.668511 270.896809 
L 250.118795 266.655527 
L 250.79422 261.903026 
L 251.019362 260.777964 
L 251.244504 258.493311 
L 251.694788 256.680552 
L 251.919929 255.96408 
L 252.370213 253.008034 
L 253.045639 249.701906 
L 253.495922 246.217378 
L 254.39649 242.741483 
L 254.621632 242.760666 
L 254.846773 243.048405 
L 255.071915 243.610457 
L 255.297057 243.199948 
L 255.972483 245.064501 
L 256.197625 245.681223 
L 256.422766 244.864043 
L 256.87305 244.910081 
L 257.323334 245.210289 
L 257.548476 244.184018 
L 257.773617 244.343234 
L 258.223901 245.115335 
L 258.449043 245.676428 
L 258.674185 244.970506 
L 259.574752 246.683516 
L 259.799894 245.663 
L 260.025036 245.470214 
L 260.47532 244.600281 
L 260.700461 244.086186 
L 260.925603 242.319465 
L 261.375887 241.15316 
L 261.601029 240.995862 
L 261.826171 241.111917 
L 262.051313 240.134562 
L 262.276454 240.358999 
L 263.402164 243.071425 
L 263.852447 244.69044 
L 264.077589 244.454493 
L 264.302731 244.679889 
L 264.527873 244.741274 
L 264.978157 244.6233 
L 265.203298 243.664168 
L 265.42844 243.448363 
L 265.653582 243.449323 
L 265.878724 243.763918 
L 266.103866 244.345152 
L 266.329008 244.091941 
L 266.779291 245.564209 
L 267.229575 247.792273 
L 267.454717 247.957244 
L 268.130142 250.250529 
L 268.355284 250.716667 
L 268.580426 249.915792 
L 269.255852 249.857285 
L 269.480994 250.038561 
L 269.706135 249.190688 
L 270.156419 249.480346 
L 270.606703 250.124883 
L 270.831845 249.153282 
L 271.282128 248.747569 
L 271.732412 247.695401 
L 272.182696 244.156203 
L 273.533547 236.185814 
L 274.434114 233.436941 
L 274.659256 233.304581 
L 274.884398 233.325682 
L 275.10954 233.462838 
L 275.334682 232.718551 
L 275.784965 232.750203 
L 276.235249 232.888318 
L 276.460391 232.109502 
L 277.360958 231.575266 
L 277.5861 230.765758 
L 278.036384 230.410879 
L 278.486668 230.428144 
L 278.711809 229.983106 
L 278.936951 230.151914 
L 279.387235 231.037193 
L 279.612377 231.729686 
L 279.837519 232.00208 
L 280.738086 234.780686 
L 281.638653 238.771635 
L 281.863795 239.627181 
L 282.314079 242.110374 
L 282.989504 244.471758 
L 284.115214 263.234302 
L 284.565497 279.382252 
L 284.790639 295.488 
L 285.015781 294.80222 
L 285.466065 273.198726 
L 286.816916 212.298627 
L 287.942625 172.134965 
L 288.618051 148.518253 
L 288.843193 144.923425 
L 289.068334 143.572967 
L 289.518618 156.323671 
L 289.968902 177.773703 
L 291.094611 285.37491 
L 291.319753 281.406021 
L 291.770037 236.306665 
L 292.22032 212.299586 
L 292.445462 206.861306 
L 292.670604 204.990039 
L 292.895746 205.245168 
L 293.120888 202.808972 
L 293.571171 201.737622 
L 294.021455 195.169484 
L 294.471739 189.724491 
L 294.922022 180.714403 
L 295.147164 178.184212 
L 295.372306 174.392762 
L 295.597448 173.016408 
L 296.047732 172.026583 
L 296.272874 173.388551 
L 296.723157 179.91065 
L 298.074008 202.200883 
L 299.199718 214.038492 
L 299.650001 220.667055 
L 300.550569 243.368756 
L 301.225994 266.171165 
L 302.126562 294.696716 
L 303.027129 272.253022 
L 303.702555 262.844894 
L 303.927696 261.400441 
L 304.152838 260.823044 
L 304.37798 259.806363 
L 304.603122 260.083553 
L 304.828264 261.102151 
L 305.053406 261.173127 
L 305.503689 263.266912 
L 305.728831 263.273626 
L 305.953973 264.307571 
L 306.179115 265.905485 
L 306.404257 266.199939 
L 306.629399 267.958987 
L 306.85454 270.600437 
L 307.079682 271.668911 
L 308.205392 287.273992 
L 308.430533 295.488 
L 308.655675 294.522154 
L 308.880817 292.011146 
L 309.331101 284.765861 
L 310.231668 269.642264 
L 310.45681 267.550397 
L 310.907094 260.053819 
L 311.807661 240.442443 
L 312.032803 239.678974 
L 312.257945 234.711628 
L 312.483087 235.370552 
L 312.708228 232.342572 
L 312.93337 234.779727 
L 313.158512 235.09624 
L 313.383654 234.824806 
L 313.608796 243.481933 
L 313.833938 245.65149 
L 314.05908 254.674047 
L 314.284221 258.16337 
L 314.509363 266.710197 
L 314.734505 270.206234 
L 314.959647 277.053479 
L 315.184789 279.51749 
L 315.409931 279.393761 
L 315.635073 285.741298 
L 315.860214 284.892466 
L 316.085356 289.313107 
L 316.310498 287.717111 
L 316.53564 290.787293 
L 316.760782 289.371614 
L 316.985924 291.931538 
L 317.211065 291.53158 
L 317.436207 294.368693 
L 317.661349 295.488 
L 317.886491 294.783997 
L 318.111633 291.342631 
L 318.336775 291.062564 
L 318.561917 286.898012 
L 318.787058 286.481749 
L 319.0122 283.354977 
L 319.237342 283.00969 
L 319.462484 281.014695 
L 319.687626 280.838215 
L 319.912768 281.640049 
L 320.137909 279.576956 
L 320.363051 280.017197 
L 320.588193 278.346389 
L 320.813335 278.161277 
L 321.263619 275.590802 
L 321.488761 274.694973 
L 321.939044 271.07233 
L 322.389328 267.945559 
L 323.064753 265.470039 
L 323.289895 265.328088 
L 323.515037 264.925252 
L 323.740179 265.201482 
L 324.415605 266.888596 
L 325.316172 270.590846 
L 325.766456 272.285633 
L 326.667023 276.757107 
L 327.56759 283.342509 
L 328.468158 291.399219 
L 328.6933 295.488 
L 328.918442 295.368108 
L 329.143583 294.078076 
L 329.593867 293.904473 
L 330.044151 295.038167 
L 330.269293 292.940545 
L 330.944718 282.348848 
L 332.295569 255.503696 
L 332.745853 251.897359 
L 332.970995 251.036058 
L 333.196137 251.069628 
L 333.421279 252.049861 
L 334.096704 265.462366 
L 334.546988 278.933378 
L 334.77213 290.371989 
L 334.997271 290.589712 
L 336.122981 243.743776 
L 336.573264 233.399535 
L 337.023548 229.423932 
L 337.698974 231.891779 
L 337.924115 234.956207 
L 338.149257 235.979601 
L 338.374399 235.613212 
L 338.599541 237.901702 
L 338.824683 236.499451 
L 339.049825 236.86488 
L 339.274967 234.870844 
L 339.500108 231.596367 
L 339.72525 232.647576 
L 340.175534 229.301163 
L 340.400676 234.914964 
L 340.625818 236.520552 
L 341.076101 248.675634 
L 341.301243 253.464581 
L 341.751527 270.102648 
L 342.201811 285.285711 
L 342.652094 293.637834 
L 342.877236 290.384457 
L 343.102378 289.01098 
L 343.32752 283.513234 
L 343.552662 283.035586 
L 343.777804 279.795638 
L 344.002945 279.756313 
L 344.228087 280.93221 
L 344.453229 277.767073 
L 344.678371 278.617823 
L 344.903513 276.617074 
L 345.128655 277.167616 
L 345.353796 278.707023 
L 345.578938 276.291928 
L 345.80408 277.40644 
L 346.029222 275.995556 
L 346.254364 276.76478 
L 346.479506 278.383795 
L 346.704648 276.392637 
L 346.929789 277.179125 
L 347.154931 275.704939 
L 347.380073 275.523663 
L 347.605215 275.816198 
L 347.830357 273.074039 
L 348.055499 272.373873 
L 348.280641 272.356608 
L 348.505782 269.239429 
L 348.730924 269.147352 
L 348.956066 267.352816 
L 349.181208 267.498604 
L 349.40635 268.783841 
L 349.631492 267.8343 
L 349.856633 269.642264 
L 350.081775 270.097852 
L 351.432626 283.536253 
L 351.657768 284.073368 
L 351.88291 285.940798 
L 352.108052 285.490965 
L 352.333194 286.338838 
L 353.008619 282.789089 
L 353.684045 275.354856 
L 353.909187 272.372914 
L 354.35947 261.648856 
L 354.809754 246.883016 
L 355.034896 234.854539 
L 355.260038 229.351997 
L 355.48518 210.931863 
L 355.710322 209.267769 
L 355.935463 204.583367 
L 356.160605 190.297093 
L 356.385747 188.627244 
L 356.610889 173.086424 
L 356.836031 173.285924 
L 357.061173 170.038302 
L 357.286314 157.792102 
L 357.511456 156.047441 
L 357.736598 142.210999 
L 357.96174 142.483393 
L 358.186882 140.007872 
L 358.412024 129.287652 
L 358.637166 129.263673 
L 358.862307 117.384821 
L 359.087449 120.0608 
L 359.312591 120.079982 
L 359.537733 110.910679 
L 359.762875 113.052421 
L 359.988017 112.502838 
L 360.213158 106.280947 
L 360.4383 107.892289 
L 360.663442 99.796254 
L 360.888584 104.94008 
L 361.113726 107.459721 
L 361.338868 103.826528 
L 361.56401 108.19058 
L 361.789151 102.29863 
L 362.014293 108.006426 
L 362.239435 109.974565 
L 362.464577 104.652341 
L 362.689719 106.702006 
L 362.914861 97.790709 
L 363.140003 100.772651 
L 363.365144 100.120441 
L 363.590286 92.389835 
L 363.815428 92.712104 
L 364.04057 82.710273 
L 364.265712 85.396803 
L 364.490854 85.601098 
L 364.715995 80.487005 
L 364.941137 84.452057 
L 365.166279 79.823285 
L 365.391421 88.209937 
L 365.616563 84.024284 
L 366.066847 109.443206 
L 366.291988 114.817224 
L 366.51713 131.63273 
L 366.742272 139.12643 
L 367.192556 173.134381 
L 368.543407 227.761756 
L 369.218832 243.160624 
L 371.019967 280.310692 
L 371.470251 285.89476 
L 371.695393 287.424575 
L 371.920535 287.959771 
L 372.145676 287.719988 
L 372.59596 285.148555 
L 372.821102 282.596304 
L 373.046244 281.420408 
L 373.271386 278.529583 
L 373.496528 278.385713 
L 373.721669 276.275623 
L 373.946811 277.787215 
L 374.171953 276.90865 
L 374.397095 280.573494 
L 374.622237 281.117322 
L 374.847379 286.266903 
L 375.07252 286.943091 
L 375.297662 291.534457 
L 375.522804 290.531205 
L 375.747946 293.016316 
L 375.973088 289.59701 
L 376.19823 289.660313 
L 376.423372 283.671491 
L 376.648513 281.339841 
L 376.873655 273.743514 
L 377.098797 270.225417 
L 377.323939 262.227213 
L 377.549081 258.403153 
L 377.774223 250.799153 
L 377.999365 247.865167 
L 378.224506 242.174636 
L 378.449648 241.165629 
L 378.899932 234.491028 
L 379.125074 240.820341 
L 379.350216 240.800199 
L 379.575357 251.009203 
L 379.800499 254.621295 
L 380.025641 268.387719 
L 380.250783 274.558776 
L 380.475925 290.322114 
L 380.701067 293.440253 
L 380.926209 277.959859 
L 381.15135 270.77404 
L 381.376492 257.961952 
L 381.601634 252.668501 
L 381.826776 244.109206 
L 382.051918 241.626012 
L 382.27706 236.977098 
L 382.502201 236.358458 
L 382.727343 234.370177 
L 382.952485 234.513088 
L 383.177627 233.710294 
L 383.402769 233.597117 
L 383.627911 232.423139 
L 383.853053 232.854748 
L 384.078194 231.761337 
L 384.303336 233.440778 
L 384.528478 233.946241 
L 385.203904 241.990483 
L 386.554755 274.898309 
L 387.23018 293.593714 
L 387.455322 295.488 
L 387.680464 285.808438 
L 388.35589 272.517743 
L 388.581031 269.157902 
L 389.256457 265.473876 
L 389.706741 267.851564 
L 390.157024 271.95665 
L 390.382166 274.754439 
L 391.282734 292.781329 
L 391.507875 292.417818 
L 392.858727 264.429381 
L 393.534152 254.325882 
L 394.209578 247.234058 
L 394.659861 244.489981 
L 395.110145 243.155828 
L 395.335287 243.18748 
L 395.560429 243.918338 
L 396.010712 249.388269 
L 396.460996 258.410826 
L 396.91128 272.59831 
L 397.136422 281.125954 
L 397.361563 295.488 
L 397.811847 279.324704 
L 398.262131 239.722135 
L 398.487273 198.045922 
L 398.487273 198.045922 
" clip-path="url(#pd66816dbf0)" style="fill: none; stroke: #1f77b4; stroke-width: 1.5; stroke-linecap: square"/>
   </g>
   <g id="patch_3">
    <path d="M 57.6 307.584 
L 57.6 41.472 
" style="fill: none; stroke: #000000; stroke-width: 0.8; stroke-linejoin: miter; stroke-linecap: square"/>
   </g>
   <g id="patch_4">
    <path d="M 414.72 307.584 
L 414.72 41.472 
" style="fill: none; stroke: #000000; stroke-width: 0.8; stroke-linejoin: miter; stroke-linecap: square"/>
   </g>
   <g id="patch_5">
    <path d="M 57.6 307.584 
L 414.72 307.584 
" style="fill: none; stroke: #000000; stroke-width: 0.8; stroke-linejoin: miter; stroke-linecap: square"/>
   </g>
   <g id="patch_6">
    <path d="M 57.6 41.472 
L 414.72 41.472 
" style="fill: none; stroke: #000000; stroke-width: 0.8; stroke-linejoin: miter; stroke-linecap: square"/>
   </g>
   <g id="text_16">
    <!-- Tracking error vs Time -->
    <g transform="translate(169.584375 35.472) scale(0.12 -0.12)">
     <defs>
      <path id="DejaVuSans-76" d="M 191 3500 
L 800 3500 
L 1894 563 
L 2988 3500 
L 3597 3500 
L 2284 0 
L 1503 0 
L 191 3500 
z
" transform="scale(0.015625)"/>
     </defs>
     <use xlink:href="#DejaVuSans-54"/>
     <use xlink:href="#DejaVuSans-72" x="46.333984"/>
     <use xlink:href="#DejaVuSans-61" x="87.447266"/>
     <use xlink:href="#DejaVuSans-63" x="148.726562"/>
     <use xlink:href="#DejaVuSans-6b" x="203.707031"/>
     <use xlink:href="#DejaVuSans-69" x="261.617188"/>
     <use xlink:href="#DejaVuSans-6e" x="289.400391"/>
     <use xlink:href="#DejaVuSans-67" x="352.779297"/>
     <use xlink:href="#DejaVuSans-20" x="416.255859"/>
     <use xlink:href="#DejaVuSans-65" x="448.042969"/>
     <use xlink:href="#DejaVuSans-72" x="509.566406"/>
     <use xlink:href="#DejaVuSans-72" x="548.929688"/>
     <use xlink:href="#DejaVuSans-6f" x="587.792969"/>
     <use xlink:href="#DejaVuSans-72" x="648.974609"/>
     <use xlink:href="#DejaVuSans-20" x="690.087891"/>
     <use xlink:href="#DejaVuSans-76" x="721.875"/>
     <use xlink:href="#DejaVuSans-73" x="781.054688"/>
     <use xlink:href="#DejaVuSans-20" x="833.154297"/>
     <use xlink:href="#DejaVuSans-54" x="864.941406"/>
     <use xlink:href="#DejaVuSans-69" x="922.900391"/>
     <use xlink:href="#DejaVuSans-6d" x="950.683594"/>
     <use xlink:href="#DejaVuSans-65" x="1048.095703"/>
    </g>
   </g>
   <g id="legend_1">
    <g id="patch_7">
     <path d="M 311.00125 64.150125 
L 407.72 64.150125 
Q 409.72 64.150125 409.72 62.150125 
L 409.72 48.472 
Q 409.72 46.472 407.72 46.472 
L 311.00125 46.472 
Q 309.00125 46.472 309.00125 48.472 
L 309.00125 62.150125 
Q 309.00125 64.150125 311.00125 64.150125 
z
" style="fill: #ffffff; opacity: 0.8; stroke: #cccccc; stroke-linejoin: miter"/>
    </g>
    <g id="line2d_28">
     <path d="M 313.00125 54.570438 
L 323.00125 54.570438 
L 333.00125 54.570438 
" style="fill: none; stroke: #1f77b4; stroke-width: 1.5; stroke-linecap: square"/>
    </g>
    <g id="text_17">
     <!-- Actual speed -->
     <g transform="translate(341.00125 58.070438) scale(0.1 -0.1)">
      <defs>
       <path id="DejaVuSans-41" d="M 2188 4044 
L 1331 1722 
L 3047 1722 
L 2188 4044 
z
M 1831 4666 
L 2547 4666 
L 4325 0 
L 3669 0 
L 3244 1197 
L 1141 1197 
L 716 0 
L 50 0 
L 1831 4666 
z
" transform="scale(0.015625)"/>
       <path id="DejaVuSans-74" d="M 1172 4494 
L 1172 3500 
L 2356 3500 
L 2356 3053 
L 1172 3053 
L 1172 1153 
Q 1172 725 1289 603 
Q 1406 481 1766 481 
L 2356 481 
L 2356 0 
L 1766 0 
Q 1100 0 847 248 
Q 594 497 594 1153 
L 594 3053 
L 172 3053 
L 172 3500 
L 594 3500 
L 594 4494 
L 1172 4494 
z
" transform="scale(0.015625)"/>
       <path id="DejaVuSans-75" d="M 544 1381 
L 544 3500 
L 1119 3500 
L 1119 1403 
Q 1119 906 1312 657 
Q 1506 409 1894 409 
Q 2359 409 2629 706 
Q 2900 1003 2900 1516 
L 2900 3500 
L 3475 3500 
L 3475 0 
L 2900 0 
L 2900 538 
Q 2691 219 2414 64 
Q 2138 -91 1772 -91 
Q 1169 -91 856 284 
Q 544 659 544 1381 
z
M 1991 3584 
L 1991 3584 
z
" transform="scale(0.015625)"/>
       <path id="DejaVuSans-6c" d="M 603 4863 
L 1178 4863 
L 1178 0 
L 603 0 
L 603 4863 
z
" transform="scale(0.015625)"/>
       <path id="DejaVuSans-70" d="M 1159 525 
L 1159 -1331 
L 581 -1331 
L 581 3500 
L 1159 3500 
L 1159 2969 
Q 1341 3281 1617 3432 
Q 1894 3584 2278 3584 
Q 2916 3584 3314 3078 
Q 3713 2572 3713 1747 
Q 3713 922 3314 415 
Q 2916 -91 2278 -91 
Q 1894 -91 1617 61 
Q 1341 213 1159 525 
z
M 3116 1747 
Q 3116 2381 2855 2742 
Q 2594 3103 2138 3103 
Q 1681 3103 1420 2742 
Q 1159 2381 1159 1747 
Q 1159 1113 1420 752 
Q 1681 391 2138 391 
Q 2594 391 2855 752 
Q 3116 1113 3116 1747 
z
" transform="scale(0.015625)"/>
       <path id="DejaVuSans-64" d="M 2906 2969 
L 2906 4863 
L 3481 4863 
L 3481 0 
L 2906 0 
L 2906 525 
Q 2725 213 2448 61 
Q 2172 -91 1784 -91 
Q 1150 -91 751 415 
Q 353 922 353 1747 
Q 353 2572 751 3078 
Q 1150 3584 1784 3584 
Q 2172 3584 2448 3432 
Q 2725 3281 2906 2969 
z
M 947 1747 
Q 947 1113 1208 752 
Q 1469 391 1925 391 
Q 2381 391 2643 752 
Q 2906 1113 2906 1747 
Q 2906 2381 2643 2742 
Q 2381 3103 1925 3103 
Q 1469 3103 1208 2742 
Q 947 2381 947 1747 
z
" transform="scale(0.015625)"/>
      </defs>
      <use xlink:href="#DejaVuSans-41"/>
      <use xlink:href="#DejaVuSans-63" x="66.658203"/>
      <use xlink:href="#DejaVuSans-74" x="121.638672"/>
      <use xlink:href="#DejaVuSans-75" x="160.847656"/>
      <use xlink:href="#DejaVuSans-61" x="224.226562"/>
      <use xlink:href="#DejaVuSans-6c" x="285.505859"/>
      <use xlink:href="#DejaVuSans-20" x="313.289062"/>
      <use xlink:href="#DejaVuSans-73" x="345.076172"/>
      <use xlink:href="#DejaVuSans-70" x="397.175781"/>
      <use xlink:href="#DejaVuSans-65" x="460.652344"/>
      <use xlink:href="#DejaVuSans-65" x="522.175781"/>
      <use xlink:href="#DejaVuSans-64" x="583.699219"/>
     </g>
    </g>
   </g>
  </g>
 </g>
 <defs>
  <clipPath id="pd66816dbf0">
   <rect x="57.6" y="41.472" width="357.12" height="266.112"/>
  </clipPath>
 </defs>
</svg>
