<?xml version="1.0" encoding="utf-8" standalone="no"?>
<!DOCTYPE svg PUBLIC "-//W3C//DTD SVG 1.1//EN"
  "http://www.w3.org/Graphics/SVG/1.1/DTD/svg11.dtd">
<svg xmlns:xlink="http://www.w3.org/1999/xlink" width="460.8pt" height="345.6pt" viewBox="0 0 460.8 345.6" xmlns="http://www.w3.org/2000/svg" version="1.1">
 <metadata>
  <rdf:RDF xmlns:dc="http://purl.org/dc/elements/1.1/" xmlns:cc="http://creativecommons.org/ns#" xmlns:rdf="http://www.w3.org/1999/02/22-rdf-syntax-ns#">
   <cc:Work>
    <dc:type rdf:resource="http://purl.org/dc/dcmitype/StillImage"/>
    <dc:date>2024-01-30T20:59:35.760526</dc:date>
    <dc:format>image/svg+xml</dc:format>
    <dc:creator>
     <cc:Agent>
      <dc:title>Matplotlib v3.7.1, https://matplotlib.org/</dc:title>
     </cc:Agent>
    </dc:creator>
   </cc:Work>
  </rdf:RDF>
 </metadata>
 <defs>
  <style type="text/css">*{stroke-linejoin: round; stroke-linecap: butt}</style>
 </defs>
 <g id="figure_1">
  <g id="patch_1">
   <path d="M 0 345.6 
L 460.8 345.6 
L 460.8 0 
L 0 0 
z
" style="fill: #ffffff"/>
  </g>
  <g id="axes_1">
   <g id="patch_2">
    <path d="M 57.6 307.584 
L 414.72 307.584 
L 414.72 41.472 
L 57.6 41.472 
z
" style="fill: #ffffff"/>
   </g>
   <g id="matplotlib.axis_1">
    <g id="xtick_1">
     <g id="line2d_1">
      <path d="M 73.832727 307.584 
L 73.832727 41.472 
" clip-path="url(#p0d5fe250ca)" style="fill: none; stroke: #b0b0b0; stroke-width: 0.8; stroke-linecap: square"/>
     </g>
     <g id="line2d_2">
      <defs>
       <path id="m7fb35a74d8" d="M 0 0 
L 0 3.5 
" style="stroke: #000000; stroke-width: 0.8"/>
      </defs>
      <g>
       <use xlink:href="#m7fb35a74d8" x="73.832727" y="307.584" style="stroke: #000000; stroke-width: 0.8"/>
      </g>
     </g>
     <g id="text_1">
      <!-- 0 -->
      <g transform="translate(70.651477 322.182437) scale(0.1 -0.1)">
       <defs>
        <path id="DejaVuSans-30" d="M 2034 4250 
Q 1547 4250 1301 3770 
Q 1056 3291 1056 2328 
Q 1056 1369 1301 889 
Q 1547 409 2034 409 
Q 2525 409 2770 889 
Q 3016 1369 3016 2328 
Q 3016 3291 2770 3770 
Q 2525 4250 2034 4250 
z
M 2034 4750 
Q 2819 4750 3233 4129 
Q 3647 3509 3647 2328 
Q 3647 1150 3233 529 
Q 2819 -91 2034 -91 
Q 1250 -91 836 529 
Q 422 1150 422 2328 
Q 422 3509 836 4129 
Q 1250 4750 2034 4750 
z
" transform="scale(0.015625)"/>
       </defs>
       <use xlink:href="#DejaVuSans-30"/>
      </g>
     </g>
    </g>
    <g id="xtick_2">
     <g id="line2d_3">
      <path d="M 133.687916 307.584 
L 133.687916 41.472 
" clip-path="url(#p0d5fe250ca)" style="fill: none; stroke: #b0b0b0; stroke-width: 0.8; stroke-linecap: square"/>
     </g>
     <g id="line2d_4">
      <g>
       <use xlink:href="#m7fb35a74d8" x="133.687916" y="307.584" style="stroke: #000000; stroke-width: 0.8"/>
      </g>
     </g>
     <g id="text_2">
      <!-- 5 -->
      <g transform="translate(130.506666 322.182437) scale(0.1 -0.1)">
       <defs>
        <path id="DejaVuSans-35" d="M 691 4666 
L 3169 4666 
L 3169 4134 
L 1269 4134 
L 1269 2991 
Q 1406 3038 1543 3061 
Q 1681 3084 1819 3084 
Q 2600 3084 3056 2656 
Q 3513 2228 3513 1497 
Q 3513 744 3044 326 
Q 2575 -91 1722 -91 
Q 1428 -91 1123 -41 
Q 819 9 494 109 
L 494 744 
Q 775 591 1075 516 
Q 1375 441 1709 441 
Q 2250 441 2565 725 
Q 2881 1009 2881 1497 
Q 2881 1984 2565 2268 
Q 2250 2553 1709 2553 
Q 1456 2553 1204 2497 
Q 953 2441 691 2322 
L 691 4666 
z
" transform="scale(0.015625)"/>
       </defs>
       <use xlink:href="#DejaVuSans-35"/>
      </g>
     </g>
    </g>
    <g id="xtick_3">
     <g id="line2d_5">
      <path d="M 193.543105 307.584 
L 193.543105 41.472 
" clip-path="url(#p0d5fe250ca)" style="fill: none; stroke: #b0b0b0; stroke-width: 0.8; stroke-linecap: square"/>
     </g>
     <g id="line2d_6">
      <g>
       <use xlink:href="#m7fb35a74d8" x="193.543105" y="307.584" style="stroke: #000000; stroke-width: 0.8"/>
      </g>
     </g>
     <g id="text_3">
      <!-- 10 -->
      <g transform="translate(187.180605 322.182437) scale(0.1 -0.1)">
       <defs>
        <path id="DejaVuSans-31" d="M 794 531 
L 1825 531 
L 1825 4091 
L 703 3866 
L 703 4441 
L 1819 4666 
L 2450 4666 
L 2450 531 
L 3481 531 
L 3481 0 
L 794 0 
L 794 531 
z
" transform="scale(0.015625)"/>
       </defs>
       <use xlink:href="#DejaVuSans-31"/>
       <use xlink:href="#DejaVuSans-30" x="63.623047"/>
      </g>
     </g>
    </g>
    <g id="xtick_4">
     <g id="line2d_7">
      <path d="M 253.398294 307.584 
L 253.398294 41.472 
" clip-path="url(#p0d5fe250ca)" style="fill: none; stroke: #b0b0b0; stroke-width: 0.8; stroke-linecap: square"/>
     </g>
     <g id="line2d_8">
      <g>
       <use xlink:href="#m7fb35a74d8" x="253.398294" y="307.584" style="stroke: #000000; stroke-width: 0.8"/>
      </g>
     </g>
     <g id="text_4">
      <!-- 15 -->
      <g transform="translate(247.035794 322.182437) scale(0.1 -0.1)">
       <use xlink:href="#DejaVuSans-31"/>
       <use xlink:href="#DejaVuSans-35" x="63.623047"/>
      </g>
     </g>
    </g>
    <g id="xtick_5">
     <g id="line2d_9">
      <path d="M 313.253484 307.584 
L 313.253484 41.472 
" clip-path="url(#p0d5fe250ca)" style="fill: none; stroke: #b0b0b0; stroke-width: 0.8; stroke-linecap: square"/>
     </g>
     <g id="line2d_10">
      <g>
       <use xlink:href="#m7fb35a74d8" x="313.253484" y="307.584" style="stroke: #000000; stroke-width: 0.8"/>
      </g>
     </g>
     <g id="text_5">
      <!-- 20 -->
      <g transform="translate(306.890984 322.182437) scale(0.1 -0.1)">
       <defs>
        <path id="DejaVuSans-32" d="M 1228 531 
L 3431 531 
L 3431 0 
L 469 0 
L 469 531 
Q 828 903 1448 1529 
Q 2069 2156 2228 2338 
Q 2531 2678 2651 2914 
Q 2772 3150 2772 3378 
Q 2772 3750 2511 3984 
Q 2250 4219 1831 4219 
Q 1534 4219 1204 4116 
Q 875 4013 500 3803 
L 500 4441 
Q 881 4594 1212 4672 
Q 1544 4750 1819 4750 
Q 2544 4750 2975 4387 
Q 3406 4025 3406 3419 
Q 3406 3131 3298 2873 
Q 3191 2616 2906 2266 
Q 2828 2175 2409 1742 
Q 1991 1309 1228 531 
z
" transform="scale(0.015625)"/>
       </defs>
       <use xlink:href="#DejaVuSans-32"/>
       <use xlink:href="#DejaVuSans-30" x="63.623047"/>
      </g>
     </g>
    </g>
    <g id="xtick_6">
     <g id="line2d_11">
      <path d="M 373.108673 307.584 
L 373.108673 41.472 
" clip-path="url(#p0d5fe250ca)" style="fill: none; stroke: #b0b0b0; stroke-width: 0.8; stroke-linecap: square"/>
     </g>
     <g id="line2d_12">
      <g>
       <use xlink:href="#m7fb35a74d8" x="373.108673" y="307.584" style="stroke: #000000; stroke-width: 0.8"/>
      </g>
     </g>
     <g id="text_6">
      <!-- 25 -->
      <g transform="translate(366.746173 322.182437) scale(0.1 -0.1)">
       <use xlink:href="#DejaVuSans-32"/>
       <use xlink:href="#DejaVuSans-35" x="63.623047"/>
      </g>
     </g>
    </g>
    <g id="text_7">
     <!-- Time(s) -->
     <g transform="translate(217.420156 335.860562) scale(0.1 -0.1)">
      <defs>
       <path id="DejaVuSans-54" d="M -19 4666 
L 3928 4666 
L 3928 4134 
L 2272 4134 
L 2272 0 
L 1638 0 
L 1638 4134 
L -19 4134 
L -19 4666 
z
" transform="scale(0.015625)"/>
       <path id="DejaVuSans-69" d="M 603 3500 
L 1178 3500 
L 1178 0 
L 603 0 
L 603 3500 
z
M 603 4863 
L 1178 4863 
L 1178 4134 
L 603 4134 
L 603 4863 
z
" transform="scale(0.015625)"/>
       <path id="DejaVuSans-6d" d="M 3328 2828 
Q 3544 3216 3844 3400 
Q 4144 3584 4550 3584 
Q 5097 3584 5394 3201 
Q 5691 2819 5691 2113 
L 5691 0 
L 5113 0 
L 5113 2094 
Q 5113 2597 4934 2840 
Q 4756 3084 4391 3084 
Q 3944 3084 3684 2787 
Q 3425 2491 3425 1978 
L 3425 0 
L 2847 0 
L 2847 2094 
Q 2847 2600 2669 2842 
Q 2491 3084 2119 3084 
Q 1678 3084 1418 2786 
Q 1159 2488 1159 1978 
L 1159 0 
L 581 0 
L 581 3500 
L 1159 3500 
L 1159 2956 
Q 1356 3278 1631 3431 
Q 1906 3584 2284 3584 
Q 2666 3584 2933 3390 
Q 3200 3197 3328 2828 
z
" transform="scale(0.015625)"/>
       <path id="DejaVuSans-65" d="M 3597 1894 
L 3597 1613 
L 953 1613 
Q 991 1019 1311 708 
Q 1631 397 2203 397 
Q 2534 397 2845 478 
Q 3156 559 3463 722 
L 3463 178 
Q 3153 47 2828 -22 
Q 2503 -91 2169 -91 
Q 1331 -91 842 396 
Q 353 884 353 1716 
Q 353 2575 817 3079 
Q 1281 3584 2069 3584 
Q 2775 3584 3186 3129 
Q 3597 2675 3597 1894 
z
M 3022 2063 
Q 3016 2534 2758 2815 
Q 2500 3097 2075 3097 
Q 1594 3097 1305 2825 
Q 1016 2553 972 2059 
L 3022 2063 
z
" transform="scale(0.015625)"/>
       <path id="DejaVuSans-28" d="M 1984 4856 
Q 1566 4138 1362 3434 
Q 1159 2731 1159 2009 
Q 1159 1288 1364 580 
Q 1569 -128 1984 -844 
L 1484 -844 
Q 1016 -109 783 600 
Q 550 1309 550 2009 
Q 550 2706 781 3412 
Q 1013 4119 1484 4856 
L 1984 4856 
z
" transform="scale(0.015625)"/>
       <path id="DejaVuSans-73" d="M 2834 3397 
L 2834 2853 
Q 2591 2978 2328 3040 
Q 2066 3103 1784 3103 
Q 1356 3103 1142 2972 
Q 928 2841 928 2578 
Q 928 2378 1081 2264 
Q 1234 2150 1697 2047 
L 1894 2003 
Q 2506 1872 2764 1633 
Q 3022 1394 3022 966 
Q 3022 478 2636 193 
Q 2250 -91 1575 -91 
Q 1294 -91 989 -36 
Q 684 19 347 128 
L 347 722 
Q 666 556 975 473 
Q 1284 391 1588 391 
Q 1994 391 2212 530 
Q 2431 669 2431 922 
Q 2431 1156 2273 1281 
Q 2116 1406 1581 1522 
L 1381 1569 
Q 847 1681 609 1914 
Q 372 2147 372 2553 
Q 372 3047 722 3315 
Q 1072 3584 1716 3584 
Q 2034 3584 2315 3537 
Q 2597 3491 2834 3397 
z
" transform="scale(0.015625)"/>
       <path id="DejaVuSans-29" d="M 513 4856 
L 1013 4856 
Q 1481 4119 1714 3412 
Q 1947 2706 1947 2009 
Q 1947 1309 1714 600 
Q 1481 -109 1013 -844 
L 513 -844 
Q 928 -128 1133 580 
Q 1338 1288 1338 2009 
Q 1338 2731 1133 3434 
Q 928 4138 513 4856 
z
" transform="scale(0.015625)"/>
      </defs>
      <use xlink:href="#DejaVuSans-54"/>
      <use xlink:href="#DejaVuSans-69" x="57.958984"/>
      <use xlink:href="#DejaVuSans-6d" x="85.742188"/>
      <use xlink:href="#DejaVuSans-65" x="183.154297"/>
      <use xlink:href="#DejaVuSans-28" x="244.677734"/>
      <use xlink:href="#DejaVuSans-73" x="283.691406"/>
      <use xlink:href="#DejaVuSans-29" x="335.791016"/>
     </g>
    </g>
   </g>
   <g id="matplotlib.axis_2">
    <g id="ytick_1">
     <g id="line2d_13">
      <path d="M 57.6 295.488 
L 414.72 295.488 
" clip-path="url(#p0d5fe250ca)" style="fill: none; stroke: #b0b0b0; stroke-width: 0.8; stroke-linecap: square"/>
     </g>
     <g id="line2d_14">
      <defs>
       <path id="m837e5bd5dd" d="M 0 0 
L -3.5 0 
" style="stroke: #000000; stroke-width: 0.8"/>
      </defs>
      <g>
       <use xlink:href="#m837e5bd5dd" x="57.6" y="295.488" style="stroke: #000000; stroke-width: 0.8"/>
      </g>
     </g>
     <g id="text_8">
      <!-- 0.0 -->
      <g transform="translate(34.696875 299.287219) scale(0.1 -0.1)">
       <defs>
        <path id="DejaVuSans-2e" d="M 684 794 
L 1344 794 
L 1344 0 
L 684 0 
L 684 794 
z
" transform="scale(0.015625)"/>
       </defs>
       <use xlink:href="#DejaVuSans-30"/>
       <use xlink:href="#DejaVuSans-2e" x="63.623047"/>
       <use xlink:href="#DejaVuSans-30" x="95.410156"/>
      </g>
     </g>
    </g>
    <g id="ytick_2">
     <g id="line2d_15">
      <path d="M 57.6 251.339719 
L 414.72 251.339719 
" clip-path="url(#p0d5fe250ca)" style="fill: none; stroke: #b0b0b0; stroke-width: 0.8; stroke-linecap: square"/>
     </g>
     <g id="line2d_16">
      <g>
       <use xlink:href="#m837e5bd5dd" x="57.6" y="251.339719" style="stroke: #000000; stroke-width: 0.8"/>
      </g>
     </g>
     <g id="text_9">
      <!-- 0.2 -->
      <g transform="translate(34.696875 255.138937) scale(0.1 -0.1)">
       <use xlink:href="#DejaVuSans-30"/>
       <use xlink:href="#DejaVuSans-2e" x="63.623047"/>
       <use xlink:href="#DejaVuSans-32" x="95.410156"/>
      </g>
     </g>
    </g>
    <g id="ytick_3">
     <g id="line2d_17">
      <path d="M 57.6 207.191437 
L 414.72 207.191437 
" clip-path="url(#p0d5fe250ca)" style="fill: none; stroke: #b0b0b0; stroke-width: 0.8; stroke-linecap: square"/>
     </g>
     <g id="line2d_18">
      <g>
       <use xlink:href="#m837e5bd5dd" x="57.6" y="207.191437" style="stroke: #000000; stroke-width: 0.8"/>
      </g>
     </g>
     <g id="text_10">
      <!-- 0.4 -->
      <g transform="translate(34.696875 210.990656) scale(0.1 -0.1)">
       <defs>
        <path id="DejaVuSans-34" d="M 2419 4116 
L 825 1625 
L 2419 1625 
L 2419 4116 
z
M 2253 4666 
L 3047 4666 
L 3047 1625 
L 3713 1625 
L 3713 1100 
L 3047 1100 
L 3047 0 
L 2419 0 
L 2419 1100 
L 313 1100 
L 313 1709 
L 2253 4666 
z
" transform="scale(0.015625)"/>
       </defs>
       <use xlink:href="#DejaVuSans-30"/>
       <use xlink:href="#DejaVuSans-2e" x="63.623047"/>
       <use xlink:href="#DejaVuSans-34" x="95.410156"/>
      </g>
     </g>
    </g>
    <g id="ytick_4">
     <g id="line2d_19">
      <path d="M 57.6 163.043156 
L 414.72 163.043156 
" clip-path="url(#p0d5fe250ca)" style="fill: none; stroke: #b0b0b0; stroke-width: 0.8; stroke-linecap: square"/>
     </g>
     <g id="line2d_20">
      <g>
       <use xlink:href="#m837e5bd5dd" x="57.6" y="163.043156" style="stroke: #000000; stroke-width: 0.8"/>
      </g>
     </g>
     <g id="text_11">
      <!-- 0.6 -->
      <g transform="translate(34.696875 166.842374) scale(0.1 -0.1)">
       <defs>
        <path id="DejaVuSans-36" d="M 2113 2584 
Q 1688 2584 1439 2293 
Q 1191 2003 1191 1497 
Q 1191 994 1439 701 
Q 1688 409 2113 409 
Q 2538 409 2786 701 
Q 3034 994 3034 1497 
Q 3034 2003 2786 2293 
Q 2538 2584 2113 2584 
z
M 3366 4563 
L 3366 3988 
Q 3128 4100 2886 4159 
Q 2644 4219 2406 4219 
Q 1781 4219 1451 3797 
Q 1122 3375 1075 2522 
Q 1259 2794 1537 2939 
Q 1816 3084 2150 3084 
Q 2853 3084 3261 2657 
Q 3669 2231 3669 1497 
Q 3669 778 3244 343 
Q 2819 -91 2113 -91 
Q 1303 -91 875 529 
Q 447 1150 447 2328 
Q 447 3434 972 4092 
Q 1497 4750 2381 4750 
Q 2619 4750 2861 4703 
Q 3103 4656 3366 4563 
z
" transform="scale(0.015625)"/>
       </defs>
       <use xlink:href="#DejaVuSans-30"/>
       <use xlink:href="#DejaVuSans-2e" x="63.623047"/>
       <use xlink:href="#DejaVuSans-36" x="95.410156"/>
      </g>
     </g>
    </g>
    <g id="ytick_5">
     <g id="line2d_21">
      <path d="M 57.6 118.894874 
L 414.72 118.894874 
" clip-path="url(#p0d5fe250ca)" style="fill: none; stroke: #b0b0b0; stroke-width: 0.8; stroke-linecap: square"/>
     </g>
     <g id="line2d_22">
      <g>
       <use xlink:href="#m837e5bd5dd" x="57.6" y="118.894874" style="stroke: #000000; stroke-width: 0.8"/>
      </g>
     </g>
     <g id="text_12">
      <!-- 0.8 -->
      <g transform="translate(34.696875 122.694093) scale(0.1 -0.1)">
       <defs>
        <path id="DejaVuSans-38" d="M 2034 2216 
Q 1584 2216 1326 1975 
Q 1069 1734 1069 1313 
Q 1069 891 1326 650 
Q 1584 409 2034 409 
Q 2484 409 2743 651 
Q 3003 894 3003 1313 
Q 3003 1734 2745 1975 
Q 2488 2216 2034 2216 
z
M 1403 2484 
Q 997 2584 770 2862 
Q 544 3141 544 3541 
Q 544 4100 942 4425 
Q 1341 4750 2034 4750 
Q 2731 4750 3128 4425 
Q 3525 4100 3525 3541 
Q 3525 3141 3298 2862 
Q 3072 2584 2669 2484 
Q 3125 2378 3379 2068 
Q 3634 1759 3634 1313 
Q 3634 634 3220 271 
Q 2806 -91 2034 -91 
Q 1263 -91 848 271 
Q 434 634 434 1313 
Q 434 1759 690 2068 
Q 947 2378 1403 2484 
z
M 1172 3481 
Q 1172 3119 1398 2916 
Q 1625 2713 2034 2713 
Q 2441 2713 2670 2916 
Q 2900 3119 2900 3481 
Q 2900 3844 2670 4047 
Q 2441 4250 2034 4250 
Q 1625 4250 1398 4047 
Q 1172 3844 1172 3481 
z
" transform="scale(0.015625)"/>
       </defs>
       <use xlink:href="#DejaVuSans-30"/>
       <use xlink:href="#DejaVuSans-2e" x="63.623047"/>
       <use xlink:href="#DejaVuSans-38" x="95.410156"/>
      </g>
     </g>
    </g>
    <g id="ytick_6">
     <g id="line2d_23">
      <path d="M 57.6 74.746593 
L 414.72 74.746593 
" clip-path="url(#p0d5fe250ca)" style="fill: none; stroke: #b0b0b0; stroke-width: 0.8; stroke-linecap: square"/>
     </g>
     <g id="line2d_24">
      <g>
       <use xlink:href="#m837e5bd5dd" x="57.6" y="74.746593" style="stroke: #000000; stroke-width: 0.8"/>
      </g>
     </g>
     <g id="text_13">
      <!-- 1.0 -->
      <g transform="translate(34.696875 78.545812) scale(0.1 -0.1)">
       <use xlink:href="#DejaVuSans-31"/>
       <use xlink:href="#DejaVuSans-2e" x="63.623047"/>
       <use xlink:href="#DejaVuSans-30" x="95.410156"/>
      </g>
     </g>
    </g>
    <g id="text_14">
     <!-- Tracking error(m) -->
     <g transform="translate(28.617187 217.803781) rotate(-90) scale(0.1 -0.1)">
      <defs>
       <path id="DejaVuSans-72" d="M 2631 2963 
Q 2534 3019 2420 3045 
Q 2306 3072 2169 3072 
Q 1681 3072 1420 2755 
Q 1159 2438 1159 1844 
L 1159 0 
L 581 0 
L 581 3500 
L 1159 3500 
L 1159 2956 
Q 1341 3275 1631 3429 
Q 1922 3584 2338 3584 
Q 2397 3584 2469 3576 
Q 2541 3569 2628 3553 
L 2631 2963 
z
" transform="scale(0.015625)"/>
       <path id="DejaVuSans-61" d="M 2194 1759 
Q 1497 1759 1228 1600 
Q 959 1441 959 1056 
Q 959 750 1161 570 
Q 1363 391 1709 391 
Q 2188 391 2477 730 
Q 2766 1069 2766 1631 
L 2766 1759 
L 2194 1759 
z
M 3341 1997 
L 3341 0 
L 2766 0 
L 2766 531 
Q 2569 213 2275 61 
Q 1981 -91 1556 -91 
Q 1019 -91 701 211 
Q 384 513 384 1019 
Q 384 1609 779 1909 
Q 1175 2209 1959 2209 
L 2766 2209 
L 2766 2266 
Q 2766 2663 2505 2880 
Q 2244 3097 1772 3097 
Q 1472 3097 1187 3025 
Q 903 2953 641 2809 
L 641 3341 
Q 956 3463 1253 3523 
Q 1550 3584 1831 3584 
Q 2591 3584 2966 3190 
Q 3341 2797 3341 1997 
z
" transform="scale(0.015625)"/>
       <path id="DejaVuSans-63" d="M 3122 3366 
L 3122 2828 
Q 2878 2963 2633 3030 
Q 2388 3097 2138 3097 
Q 1578 3097 1268 2742 
Q 959 2388 959 1747 
Q 959 1106 1268 751 
Q 1578 397 2138 397 
Q 2388 397 2633 464 
Q 2878 531 3122 666 
L 3122 134 
Q 2881 22 2623 -34 
Q 2366 -91 2075 -91 
Q 1284 -91 818 406 
Q 353 903 353 1747 
Q 353 2603 823 3093 
Q 1294 3584 2113 3584 
Q 2378 3584 2631 3529 
Q 2884 3475 3122 3366 
z
" transform="scale(0.015625)"/>
       <path id="DejaVuSans-6b" d="M 581 4863 
L 1159 4863 
L 1159 1991 
L 2875 3500 
L 3609 3500 
L 1753 1863 
L 3688 0 
L 2938 0 
L 1159 1709 
L 1159 0 
L 581 0 
L 581 4863 
z
" transform="scale(0.015625)"/>
       <path id="DejaVuSans-6e" d="M 3513 2113 
L 3513 0 
L 2938 0 
L 2938 2094 
Q 2938 2591 2744 2837 
Q 2550 3084 2163 3084 
Q 1697 3084 1428 2787 
Q 1159 2491 1159 1978 
L 1159 0 
L 581 0 
L 581 3500 
L 1159 3500 
L 1159 2956 
Q 1366 3272 1645 3428 
Q 1925 3584 2291 3584 
Q 2894 3584 3203 3211 
Q 3513 2838 3513 2113 
z
" transform="scale(0.015625)"/>
       <path id="DejaVuSans-67" d="M 2906 1791 
Q 2906 2416 2648 2759 
Q 2391 3103 1925 3103 
Q 1463 3103 1205 2759 
Q 947 2416 947 1791 
Q 947 1169 1205 825 
Q 1463 481 1925 481 
Q 2391 481 2648 825 
Q 2906 1169 2906 1791 
z
M 3481 434 
Q 3481 -459 3084 -895 
Q 2688 -1331 1869 -1331 
Q 1566 -1331 1297 -1286 
Q 1028 -1241 775 -1147 
L 775 -588 
Q 1028 -725 1275 -790 
Q 1522 -856 1778 -856 
Q 2344 -856 2625 -561 
Q 2906 -266 2906 331 
L 2906 616 
Q 2728 306 2450 153 
Q 2172 0 1784 0 
Q 1141 0 747 490 
Q 353 981 353 1791 
Q 353 2603 747 3093 
Q 1141 3584 1784 3584 
Q 2172 3584 2450 3431 
Q 2728 3278 2906 2969 
L 2906 3500 
L 3481 3500 
L 3481 434 
z
" transform="scale(0.015625)"/>
       <path id="DejaVuSans-20" transform="scale(0.015625)"/>
       <path id="DejaVuSans-6f" d="M 1959 3097 
Q 1497 3097 1228 2736 
Q 959 2375 959 1747 
Q 959 1119 1226 758 
Q 1494 397 1959 397 
Q 2419 397 2687 759 
Q 2956 1122 2956 1747 
Q 2956 2369 2687 2733 
Q 2419 3097 1959 3097 
z
M 1959 3584 
Q 2709 3584 3137 3096 
Q 3566 2609 3566 1747 
Q 3566 888 3137 398 
Q 2709 -91 1959 -91 
Q 1206 -91 779 398 
Q 353 888 353 1747 
Q 353 2609 779 3096 
Q 1206 3584 1959 3584 
z
" transform="scale(0.015625)"/>
      </defs>
      <use xlink:href="#DejaVuSans-54"/>
      <use xlink:href="#DejaVuSans-72" x="46.333984"/>
      <use xlink:href="#DejaVuSans-61" x="87.447266"/>
      <use xlink:href="#DejaVuSans-63" x="148.726562"/>
      <use xlink:href="#DejaVuSans-6b" x="203.707031"/>
      <use xlink:href="#DejaVuSans-69" x="261.617188"/>
      <use xlink:href="#DejaVuSans-6e" x="289.400391"/>
      <use xlink:href="#DejaVuSans-67" x="352.779297"/>
      <use xlink:href="#DejaVuSans-20" x="416.255859"/>
      <use xlink:href="#DejaVuSans-65" x="448.042969"/>
      <use xlink:href="#DejaVuSans-72" x="509.566406"/>
      <use xlink:href="#DejaVuSans-72" x="548.929688"/>
      <use xlink:href="#DejaVuSans-6f" x="587.792969"/>
      <use xlink:href="#DejaVuSans-72" x="648.974609"/>
      <use xlink:href="#DejaVuSans-28" x="690.087891"/>
      <use xlink:href="#DejaVuSans-6d" x="729.101562"/>
      <use xlink:href="#DejaVuSans-29" x="826.513672"/>
     </g>
    </g>
   </g>
   <g id="line2d_25">
    <path d="M 73.832727 295.488 
L 74.072148 295.488 
L 74.311569 290.992822 
L 75.029831 256.633098 
L 75.748093 233.5537 
L 76.226935 225.218284 
L 76.466356 223.44242 
L 76.705776 223.339333 
L 76.945197 224.830883 
L 77.424039 232.023742 
L 78.142301 249.955449 
L 79.339405 281.406685 
L 79.818246 289.537474 
L 80.297088 294.1779 
L 80.536508 295.242977 
L 80.775929 295.448046 
L 81.01535 295.190882 
L 81.254771 295.488 
L 81.494191 293.649003 
L 82.212454 290.900111 
L 82.451874 290.481585 
L 82.691295 290.456862 
L 83.170137 291.412893 
L 83.409558 292.506887 
L 83.648978 295.488 
L 83.888399 295.470782 
L 84.606661 291.117541 
L 85.085503 289.350506 
L 85.324924 289.11652 
L 85.803765 290.606966 
L 86.522027 295.099716 
L 87.958552 279.629054 
L 88.437393 276.453027 
L 88.676814 275.586838 
L 89.155656 274.982006 
L 89.395076 275.455497 
L 89.873918 277.578808 
L 90.352759 280.344036 
L 91.310442 286.36829 
L 91.789284 288.362909 
L 92.028705 288.993346 
L 92.746967 288.399993 
L 93.944071 284.018718 
L 94.183492 283.487835 
L 94.662333 282.901987 
L 94.901754 283.259588 
L 95.380595 284.842083 
L 96.098858 289.363309 
L 96.81712 294.326679 
L 97.056541 295.488 
L 97.295961 294.187612 
L 97.535382 294.054726 
L 97.774803 295.488 
L 98.014224 294.005942 
L 98.253644 295.261519 
L 98.493065 295.488 
L 99.690169 286.561659 
L 99.92959 285.593929 
L 100.16901 284.138801 
L 100.408431 283.597543 
L 100.647852 283.649197 
L 100.887273 283.192041 
L 101.126693 283.801729 
L 101.366114 284.948922 
L 101.605535 285.378927 
L 102.084377 288.300218 
L 102.323797 288.791368 
L 102.802639 290.92682 
L 103.04206 290.643388 
L 103.28148 290.795479 
L 103.999743 288.275054 
L 105.196846 279.985993 
L 105.915109 276.959849 
L 106.39395 276.637788 
L 106.633371 277.142402 
L 107.351633 279.987759 
L 108.309316 284.634366 
L 108.788158 286.091259 
L 109.266999 286.798073 
L 109.50642 286.915287 
L 109.985261 286.825666 
L 110.224682 286.747523 
L 110.703524 286.997182 
L 111.182365 287.675299 
L 111.661207 289.084733 
L 112.379469 292.213522 
L 112.858311 294.782952 
L 113.097731 295.488 
L 113.576573 292.750586 
L 114.055414 291.126812 
L 114.534256 290.265258 
L 114.773677 290.156433 
L 115.013097 290.23303 
L 115.491939 290.869207 
L 115.97078 291.996092 
L 117.167884 295.319133 
L 117.886146 293.527816 
L 118.364988 292.738445 
L 118.843829 292.401373 
L 119.322671 292.422785 
L 119.801512 292.613285 
L 120.519775 292.988104 
L 120.998616 293.031369 
L 121.477458 292.76361 
L 123.153403 291.137187 
L 123.392824 291.150873 
L 123.632245 291.300094 
L 124.111086 292.026995 
L 124.829348 293.930228 
L 125.30819 295.486676 
L 126.265873 292.378195 
L 126.984135 290.697911 
L 127.462977 290.093742 
L 127.941818 289.916708 
L 128.42066 290.200581 
L 129.378343 291.310248 
L 130.096605 292.046421 
L 130.575447 292.22478 
L 131.054288 292.068716 
L 131.77255 291.641802 
L 132.251392 291.469182 
L 132.730233 291.512668 
L 133.209075 291.802722 
L 133.687916 292.444859 
L 134.406179 294.057154 
L 134.88502 295.354893 
L 135.124441 294.969258 
L 136.082124 292.651914 
L 136.560965 291.98969 
L 136.800386 291.858791 
L 137.279228 292.306454 
L 137.518648 292.701581 
L 138.476331 295.305005 
L 139.194594 293.630903 
L 139.434014 293.669091 
L 139.673435 293.576821 
L 139.912856 294.158254 
L 140.152277 295.248937 
L 140.391698 295.08294 
L 142.307064 281.764507 
L 142.546484 281.380417 
L 142.785905 280.557272 
L 143.025326 280.77095 
L 143.504167 280.526589 
L 143.743588 282.016152 
L 143.983009 282.330267 
L 144.22243 283.943224 
L 144.46185 284.324886 
L 144.701271 285.736086 
L 144.940692 285.914445 
L 145.180113 286.906457 
L 145.419533 286.677769 
L 145.658954 287.038681 
L 145.898375 286.325907 
L 146.137796 286.199643 
L 146.377216 285.324845 
L 146.616637 285.075628 
L 147.095479 283.300425 
L 147.334899 284.06684 
L 147.57432 283.792679 
L 147.813741 285.337206 
L 148.053162 286.113112 
L 148.771424 293.852306 
L 149.010845 294.591348 
L 149.489686 288.549877 
L 149.729107 285.556844 
L 150.207949 282.422316 
L 150.447369 282.623412 
L 150.68679 282.499355 
L 151.405052 289.451385 
L 151.883894 294.634614 
L 152.123315 291.805371 
L 152.362735 287.399593 
L 152.602156 285.077173 
L 152.841577 281.665835 
L 153.320418 278.796197 
L 153.79926 280.618197 
L 154.278101 287.676845 
L 154.517522 293.600882 
L 154.756943 291.489269 
L 157.15115 213.295599 
L 157.629992 206.241808 
L 157.869413 205.083357 
L 158.108833 205.04252 
L 158.348254 206.879088 
L 158.587675 209.867927 
L 159.066516 220.223789 
L 159.784779 242.823294 
L 161.221303 293.407071 
L 161.460724 291.455937 
L 161.939566 282.458297 
L 162.418407 278.824673 
L 162.657828 279.411845 
L 163.136669 283.609463 
L 163.615511 291.768949 
L 163.854932 293.694697 
L 165.052035 272.126716 
L 165.530877 270.814188 
L 166.009718 275.250428 
L 166.249139 278.959987 
L 166.727981 290.8553 
L 166.967401 293.023201 
L 167.925084 267.837711 
L 168.403926 259.485959 
L 168.643347 256.807042 
L 168.882767 256.390503 
L 169.122188 256.716979 
L 169.60103 262.325577 
L 170.079871 273.425559 
L 170.798134 293.399566 
L 171.037554 290.174754 
L 171.755817 272.77393 
L 172.234658 267.716082 
L 172.474079 267.628006 
L 172.7135 268.678073 
L 172.95292 271.168478 
L 173.431762 280.772495 
L 173.910603 294.027575 
L 174.150024 289.739452 
L 174.868286 269.330585 
L 175.347128 260.084389 
L 175.586549 257.273689 
L 175.825969 255.924738 
L 176.06539 255.731148 
L 176.304811 256.694464 
L 176.783652 261.454973 
L 177.741335 276.375105 
L 178.459598 286.064329 
L 178.938439 289.71782 
L 179.17786 290.469665 
L 179.417281 290.553105 
L 179.656702 290.055333 
L 180.135543 287.549698 
L 180.853805 282.891171 
L 181.093226 281.938009 
L 181.332647 281.553257 
L 181.572068 281.991429 
L 181.811488 283.150763 
L 182.29033 288.304633 
L 182.529751 292.221689 
L 182.769171 294.282752 
L 184.205696 265.156585 
L 184.684537 261.629138 
L 185.163379 263.794832 
L 185.64222 271.471335 
L 186.360483 292.336033 
L 186.599903 289.635262 
L 188.036428 239.711061 
L 188.51527 227.704274 
L 188.994111 216.402535 
L 189.233532 214.316308 
L 189.712373 208.171529 
L 189.951794 209.009463 
L 190.191215 207.95454 
L 190.430636 208.30574 
L 190.670056 212.207344 
L 190.909477 213.769752 
L 191.148898 216.713559 
L 191.627739 227.712 
L 192.106581 239.371119 
L 192.585422 255.810174 
L 192.824843 263.528176 
L 193.303685 282.011075 
L 193.543105 289.623342 
L 193.782526 290.49814 
L 194.740209 266.361392 
L 195.219051 259.717517 
L 195.458471 259.78992 
L 195.697892 258.921082 
L 196.416154 269.006978 
L 197.373837 294.138829 
L 197.613258 291.380223 
L 198.0921 276.385259 
L 198.570941 264.69038 
L 199.049783 255.378845 
L 199.528624 246.584507 
L 199.768045 244.98347 
L 200.007466 242.38424 
L 200.246887 241.08319 
L 200.486307 241.671907 
L 200.725728 241.881832 
L 201.44399 249.85457 
L 202.162253 265.781504 
L 203.119936 294.526009 
L 203.598777 281.66716 
L 204.317039 263.037909 
L 204.795881 255.326971 
L 205.035302 252.98358 
L 205.274722 252.56991 
L 205.514143 252.635912 
L 206.232405 262.252732 
L 207.190088 291.572047 
L 207.429509 291.728995 
L 208.866034 243.465652 
L 209.584296 231.312734 
L 210.063138 229.901313 
L 210.541979 236.312968 
L 210.7814 240.393814 
L 211.499662 259.558142 
L 212.457345 293.558941 
L 212.696766 286.816395 
L 212.936187 276.500045 
L 213.175607 271.656095 
L 214.13329 228.511746 
L 214.372711 225.991762 
L 215.330394 186.602886 
L 215.569815 178.718665 
L 215.809236 177.745637 
L 216.527498 154.063395 
L 217.00634 142.836267 
L 217.24576 143.760952 
L 217.724602 132.78569 
L 218.203443 125.774942 
L 218.442864 130.539204 
L 218.921706 123.843455 
L 219.161126 122.038673 
L 219.400547 121.278881 
L 219.639968 121.570039 
L 219.879389 128.196476 
L 220.118809 127.583035 
L 220.35823 128.026726 
L 220.597651 129.528429 
L 220.837072 132.081745 
L 221.076492 140.695958 
L 221.315913 142.811985 
L 221.794755 150.186735 
L 222.034175 155.415657 
L 222.513017 170.023882 
L 223.231279 192.780555 
L 225.386066 283.582754 
L 225.625487 292.270253 
L 225.864907 290.473638 
L 226.58317 270.029452 
L 227.062011 261.65651 
L 227.540853 258.355984 
L 227.780274 259.037413 
L 228.259115 263.437893 
L 228.737957 272.127158 
L 229.69564 295.488 
L 230.413902 275.773364 
L 230.892743 266.546594 
L 231.371585 261.787409 
L 231.850426 262.057818 
L 232.329268 267.607919 
L 233.286951 295.488 
L 235.202317 235.034434 
L 235.441738 231.043871 
L 235.920579 220.200832 
L 236.16 218.95563 
L 236.638842 211.686394 
L 236.878262 213.407515 
L 237.117683 210.896361 
L 237.357104 209.67831 
L 237.596525 209.756452 
L 237.835945 213.562255 
L 238.075366 214.038615 
L 238.314787 215.794392 
L 238.554208 222.345114 
L 238.793628 224.445248 
L 239.27247 232.370085 
L 239.751311 245.418551 
L 239.990732 251.508365 
L 240.469574 268.12335 
L 240.948415 283.179901 
L 241.187836 293.451661 
L 241.427257 290.323755 
L 242.62436 254.823459 
L 243.103202 248.940259 
L 243.342623 246.79686 
L 243.821464 247.840747 
L 244.539726 258.681578 
L 245.976251 293.173306 
L 246.694513 272.404409 
L 247.173355 259.275593 
L 248.370459 239.63314 
L 248.609879 237.30211 
L 248.8493 237.278491 
L 249.088721 235.968832 
L 249.328142 235.927774 
L 249.567562 238.093247 
L 249.806983 239.200486 
L 250.046404 241.606788 
L 251.004087 260.721008 
L 251.722349 279.670774 
L 252.201191 293.315242 
L 252.440611 291.688599 
L 253.158874 275.680211 
L 253.637715 269.374954 
L 253.877136 267.676569 
L 254.116557 267.980089 
L 254.355977 269.497465 
L 254.595398 272.088969 
L 255.07424 281.293886 
L 255.553081 294.64543 
L 256.031923 279.738984 
L 257.468447 229.861359 
L 257.947289 218.384351 
L 258.42613 211.608473 
L 258.665551 210.415586 
L 258.904972 210.434349 
L 259.144393 212.236923 
L 259.383813 215.244304 
L 259.862655 225.444986 
L 260.580917 248.330792 
L 261.778021 291.866296 
L 262.017442 291.96894 
L 262.496283 280.236535 
L 262.975125 273.366621 
L 263.214545 271.540648 
L 263.453966 271.070469 
L 263.693387 271.279731 
L 263.932808 272.182122 
L 264.65107 277.990712 
L 265.369332 284.586465 
L 266.087595 289.486924 
L 266.805857 292.594522 
L 267.524119 295.108766 
L 267.76354 294.623577 
L 268.481802 290.513813 
L 269.200064 285.050463 
L 270.157747 278.167084 
L 270.636589 275.936713 
L 271.11543 274.635442 
L 271.354851 274.499907 
L 271.594272 274.635663 
L 271.833693 275.028803 
L 272.551955 277.026734 
L 273.270217 279.689758 
L 274.2279 281.147314 
L 274.467321 281.197422 
L 276.622108 277.569978 
L 276.861529 277.277938 
L 277.100949 277.312153 
L 277.579791 277.907713 
L 278.298053 279.54738 
L 279.973998 284.993733 
L 280.213419 285.544483 
L 280.931681 286.098323 
L 281.410523 286.154612 
L 281.889364 285.763458 
L 282.368206 285.647569 
L 282.607627 285.709156 
L 282.847047 285.623729 
L 283.325889 286.031659 
L 285.241255 288.524933 
L 285.720097 288.708369 
L 286.198938 288.515662 
L 286.67778 287.671326 
L 287.396042 286.540247 
L 287.874883 285.476494 
L 288.353725 284.935899 
L 288.593146 284.795948 
L 288.832566 284.407223 
L 289.311408 284.303254 
L 289.790249 284.45711 
L 290.02967 284.303916 
L 290.987353 284.633041 
L 291.226774 284.417598 
L 291.945036 284.162421 
L 292.184457 284.004811 
L 292.663298 283.264445 
L 294.099823 281.311987 
L 294.578665 281.340242 
L 294.818085 281.332737 
L 295.296927 281.989884 
L 296.25461 284.300825 
L 296.972872 286.138277 
L 297.691134 286.961422 
L 297.930555 286.996078 
L 298.409397 286.723462 
L 299.127659 285.976915 
L 299.36708 285.657502 
L 300.564183 285.025299 
L 301.521866 287.518131 
L 301.761287 288.501976 
L 302.71897 295.486455 
L 303.197812 290.999444 
L 304.634336 278.737921 
L 305.113178 276.06982 
L 305.352599 275.152639 
L 306.789123 264.018884 
L 307.267965 262.216972 
L 307.746806 264.680226 
L 307.986227 266.839076 
L 308.94391 284.270142 
L 309.422751 295.488 
L 309.901593 281.255256 
L 310.380434 273.552264 
L 310.619855 272.488953 
L 310.859276 272.830219 
L 311.098697 274.448474 
L 312.05638 283.875236 
L 312.535221 286.06168 
L 312.774642 286.449302 
L 313.253484 284.090459 
L 313.732325 279.186026 
L 314.929429 265.290134 
L 315.16885 263.986215 
L 315.40827 263.589984 
L 315.647691 263.872533 
L 315.887112 265.079988 
L 316.365953 269.005212 
L 318.041899 286.098985 
L 318.760161 290.158419 
L 319.239002 291.403401 
L 319.478423 291.715088 
L 319.957265 292.80246 
L 320.436106 293.775047 
L 320.675527 294.820699 
L 321.154368 295.488 
L 321.63321 291.142485 
L 323.069735 282.082154 
L 323.548576 280.797218 
L 323.787997 280.862557 
L 324.266838 281.9709 
L 324.985101 285.902746 
L 326.182204 294.080553 
L 326.421625 294.900607 
L 326.661046 295.171678 
L 326.900467 294.479212 
L 327.139887 294.638146 
L 327.379308 294.615409 
L 327.618729 295.251144 
L 327.85815 295.488 
L 328.815833 292.453247 
L 329.055253 292.344642 
L 329.294674 292.777075 
L 329.534095 292.894509 
L 330.012936 295.16351 
L 330.491778 291.831639 
L 331.688882 279.415818 
L 331.928302 277.218337 
L 332.407144 275.991677 
L 333.125406 279.149825 
L 334.083089 292.894288 
L 334.32251 293.828908 
L 335.040772 285.65397 
L 335.280193 283.830426 
L 335.519614 283.521167 
L 335.759035 284.539888 
L 335.998455 284.893075 
L 336.956138 295.296176 
L 337.674401 286.699843 
L 338.153242 283.59953 
L 338.392663 282.715681 
L 338.871504 284.801246 
L 339.589767 293.616775 
L 339.829187 293.920295 
L 340.54745 283.862212 
L 341.026291 279.384473 
L 341.265712 278.141037 
L 341.505133 278.050533 
L 341.983974 279.88666 
L 342.702237 286.629427 
L 343.420499 293.878574 
L 343.65992 295.397275 
L 343.89934 295.488 
L 344.138761 293.440623 
L 344.378182 293.421198 
L 344.617603 293.836413 
L 344.857023 294.718937 
L 345.096444 294.895309 
L 346.532969 285.80562 
L 347.01181 284.639001 
L 347.251231 284.611629 
L 347.490652 284.854886 
L 347.969493 286.330322 
L 349.645438 293.711915 
L 349.884859 295.488 
L 350.12428 294.524905 
L 350.363701 294.525347 
L 350.842542 293.527596 
L 351.321384 291.837379 
L 352.757908 285.704079 
L 353.23675 284.9125 
L 353.476171 284.872325 
L 353.715591 285.081146 
L 354.433854 287.871759 
L 354.912695 290.511606 
L 355.391537 294.437492 
L 355.630957 295.488 
L 356.34922 288.012592 
L 357.067482 282.685661 
L 357.546323 280.572724 
L 357.785744 280.260154 
L 358.025165 280.361254 
L 358.504006 281.936906 
L 358.743427 282.995361 
L 359.461689 287.02058 
L 359.70111 288.447894 
L 359.940531 288.976349 
L 360.179952 288.80682 
L 360.419372 289.087382 
L 360.898214 287.191655 
L 361.855897 279.340325 
L 362.095318 277.074635 
L 362.334739 276.916805 
L 362.574159 276.046863 
L 363.053001 277.938396 
L 363.292422 279.435243 
L 364.489525 294.222048 
L 364.968367 286.716178 
L 365.447208 281.192345 
L 365.92605 278.644548 
L 366.165471 278.913631 
L 366.404891 279.39551 
L 366.644312 280.983524 
L 368.080837 295.157771 
L 368.799099 291.651514 
L 369.27794 293.203326 
L 369.517361 295.123114 
L 369.756782 295.488 
L 370.235623 288.998865 
L 370.953886 282.464478 
L 371.432727 280.32439 
L 371.672148 280.459925 
L 371.911569 281.026789 
L 372.15099 282.586768 
L 372.869252 290.502997 
L 373.108673 293.422964 
L 373.348093 294.352948 
L 373.826935 289.183846 
L 374.305776 286.671588 
L 374.545197 286.990339 
L 374.784618 288.254966 
L 375.263459 294.342794 
L 375.50288 291.896979 
L 376.221142 273.538357 
L 377.418246 240.252761 
L 377.897088 235.126704 
L 378.136508 233.742214 
L 378.61535 239.239558 
L 379.333612 264.225719 
L 379.812454 288.341276 
L 380.051874 291.484634 
L 382.446082 156.371467 
L 382.924924 135.731704 
L 383.643186 104.005204 
L 384.122027 90.227629 
L 384.84029 68.962506 
L 385.07971 64.088977 
L 385.319131 62.835166 
L 385.797973 55.476309 
L 386.037393 53.568 
L 386.276814 56.736081 
L 386.516235 55.367484 
L 386.755656 55.195085 
L 386.995076 56.218663 
L 387.234497 58.431375 
L 387.473918 65.362876 
L 387.952759 71.876292 
L 388.431601 82.966341 
L 388.910442 100.019718 
L 389.628705 125.73256 
L 390.107546 149.62848 
L 391.065229 195.743788 
L 391.544071 222.895422 
L 392.980595 290.062618 
L 393.220016 292.877071 
L 393.459437 283.487614 
L 394.177699 270.977316 
L 394.41712 271.249931 
L 394.895961 273.064205 
L 395.135382 277.42142 
L 395.374803 279.485572 
L 395.853644 293.589403 
L 396.093065 293.216571 
L 396.811327 267.971038 
L 397.050748 262.287389 
L 397.52959 246.364428 
L 397.76901 241.491341 
L 398.247852 228.172466 
L 398.487273 224.366222 
L 398.487273 224.366222 
" clip-path="url(#p0d5fe250ca)" style="fill: none; stroke: #1f77b4; stroke-width: 1.5; stroke-linecap: square"/>
   </g>
   <g id="patch_3">
    <path d="M 57.6 307.584 
L 57.6 41.472 
" style="fill: none; stroke: #000000; stroke-width: 0.8; stroke-linejoin: miter; stroke-linecap: square"/>
   </g>
   <g id="patch_4">
    <path d="M 414.72 307.584 
L 414.72 41.472 
" style="fill: none; stroke: #000000; stroke-width: 0.8; stroke-linejoin: miter; stroke-linecap: square"/>
   </g>
   <g id="patch_5">
    <path d="M 57.6 307.584 
L 414.72 307.584 
" style="fill: none; stroke: #000000; stroke-width: 0.8; stroke-linejoin: miter; stroke-linecap: square"/>
   </g>
   <g id="patch_6">
    <path d="M 57.6 41.472 
L 414.72 41.472 
" style="fill: none; stroke: #000000; stroke-width: 0.8; stroke-linejoin: miter; stroke-linecap: square"/>
   </g>
   <g id="text_15">
    <!-- Tracking error vs Time -->
    <g transform="translate(169.584375 35.472) scale(0.12 -0.12)">
     <defs>
      <path id="DejaVuSans-76" d="M 191 3500 
L 800 3500 
L 1894 563 
L 2988 3500 
L 3597 3500 
L 2284 0 
L 1503 0 
L 191 3500 
z
" transform="scale(0.015625)"/>
     </defs>
     <use xlink:href="#DejaVuSans-54"/>
     <use xlink:href="#DejaVuSans-72" x="46.333984"/>
     <use xlink:href="#DejaVuSans-61" x="87.447266"/>
     <use xlink:href="#DejaVuSans-63" x="148.726562"/>
     <use xlink:href="#DejaVuSans-6b" x="203.707031"/>
     <use xlink:href="#DejaVuSans-69" x="261.617188"/>
     <use xlink:href="#DejaVuSans-6e" x="289.400391"/>
     <use xlink:href="#DejaVuSans-67" x="352.779297"/>
     <use xlink:href="#DejaVuSans-20" x="416.255859"/>
     <use xlink:href="#DejaVuSans-65" x="448.042969"/>
     <use xlink:href="#DejaVuSans-72" x="509.566406"/>
     <use xlink:href="#DejaVuSans-72" x="548.929688"/>
     <use xlink:href="#DejaVuSans-6f" x="587.792969"/>
     <use xlink:href="#DejaVuSans-72" x="648.974609"/>
     <use xlink:href="#DejaVuSans-20" x="690.087891"/>
     <use xlink:href="#DejaVuSans-76" x="721.875"/>
     <use xlink:href="#DejaVuSans-73" x="781.054688"/>
     <use xlink:href="#DejaVuSans-20" x="833.154297"/>
     <use xlink:href="#DejaVuSans-54" x="864.941406"/>
     <use xlink:href="#DejaVuSans-69" x="922.900391"/>
     <use xlink:href="#DejaVuSans-6d" x="950.683594"/>
     <use xlink:href="#DejaVuSans-65" x="1048.095703"/>
    </g>
   </g>
   <g id="legend_1">
    <g id="patch_7">
     <path d="M 64.6 64.150125 
L 161.31875 64.150125 
Q 163.31875 64.150125 163.31875 62.150125 
L 163.31875 48.472 
Q 163.31875 46.472 161.31875 46.472 
L 64.6 46.472 
Q 62.6 46.472 62.6 48.472 
L 62.6 62.150125 
Q 62.6 64.150125 64.6 64.150125 
z
" style="fill: #ffffff; opacity: 0.8; stroke: #cccccc; stroke-linejoin: miter"/>
    </g>
    <g id="line2d_26">
     <path d="M 66.6 54.570438 
L 76.6 54.570438 
L 86.6 54.570438 
" style="fill: none; stroke: #1f77b4; stroke-width: 1.5; stroke-linecap: square"/>
    </g>
    <g id="text_16">
     <!-- Actual speed -->
     <g transform="translate(94.6 58.070438) scale(0.1 -0.1)">
      <defs>
       <path id="DejaVuSans-41" d="M 2188 4044 
L 1331 1722 
L 3047 1722 
L 2188 4044 
z
M 1831 4666 
L 2547 4666 
L 4325 0 
L 3669 0 
L 3244 1197 
L 1141 1197 
L 716 0 
L 50 0 
L 1831 4666 
z
" transform="scale(0.015625)"/>
       <path id="DejaVuSans-74" d="M 1172 4494 
L 1172 3500 
L 2356 3500 
L 2356 3053 
L 1172 3053 
L 1172 1153 
Q 1172 725 1289 603 
Q 1406 481 1766 481 
L 2356 481 
L 2356 0 
L 1766 0 
Q 1100 0 847 248 
Q 594 497 594 1153 
L 594 3053 
L 172 3053 
L 172 3500 
L 594 3500 
L 594 4494 
L 1172 4494 
z
" transform="scale(0.015625)"/>
       <path id="DejaVuSans-75" d="M 544 1381 
L 544 3500 
L 1119 3500 
L 1119 1403 
Q 1119 906 1312 657 
Q 1506 409 1894 409 
Q 2359 409 2629 706 
Q 2900 1003 2900 1516 
L 2900 3500 
L 3475 3500 
L 3475 0 
L 2900 0 
L 2900 538 
Q 2691 219 2414 64 
Q 2138 -91 1772 -91 
Q 1169 -91 856 284 
Q 544 659 544 1381 
z
M 1991 3584 
L 1991 3584 
z
" transform="scale(0.015625)"/>
       <path id="DejaVuSans-6c" d="M 603 4863 
L 1178 4863 
L 1178 0 
L 603 0 
L 603 4863 
z
" transform="scale(0.015625)"/>
       <path id="DejaVuSans-70" d="M 1159 525 
L 1159 -1331 
L 581 -1331 
L 581 3500 
L 1159 3500 
L 1159 2969 
Q 1341 3281 1617 3432 
Q 1894 3584 2278 3584 
Q 2916 3584 3314 3078 
Q 3713 2572 3713 1747 
Q 3713 922 3314 415 
Q 2916 -91 2278 -91 
Q 1894 -91 1617 61 
Q 1341 213 1159 525 
z
M 3116 1747 
Q 3116 2381 2855 2742 
Q 2594 3103 2138 3103 
Q 1681 3103 1420 2742 
Q 1159 2381 1159 1747 
Q 1159 1113 1420 752 
Q 1681 391 2138 391 
Q 2594 391 2855 752 
Q 3116 1113 3116 1747 
z
" transform="scale(0.015625)"/>
       <path id="DejaVuSans-64" d="M 2906 2969 
L 2906 4863 
L 3481 4863 
L 3481 0 
L 2906 0 
L 2906 525 
Q 2725 213 2448 61 
Q 2172 -91 1784 -91 
Q 1150 -91 751 415 
Q 353 922 353 1747 
Q 353 2572 751 3078 
Q 1150 3584 1784 3584 
Q 2172 3584 2448 3432 
Q 2725 3281 2906 2969 
z
M 947 1747 
Q 947 1113 1208 752 
Q 1469 391 1925 391 
Q 2381 391 2643 752 
Q 2906 1113 2906 1747 
Q 2906 2381 2643 2742 
Q 2381 3103 1925 3103 
Q 1469 3103 1208 2742 
Q 947 2381 947 1747 
z
" transform="scale(0.015625)"/>
      </defs>
      <use xlink:href="#DejaVuSans-41"/>
      <use xlink:href="#DejaVuSans-63" x="66.658203"/>
      <use xlink:href="#DejaVuSans-74" x="121.638672"/>
      <use xlink:href="#DejaVuSans-75" x="160.847656"/>
      <use xlink:href="#DejaVuSans-61" x="224.226562"/>
      <use xlink:href="#DejaVuSans-6c" x="285.505859"/>
      <use xlink:href="#DejaVuSans-20" x="313.289062"/>
      <use xlink:href="#DejaVuSans-73" x="345.076172"/>
      <use xlink:href="#DejaVuSans-70" x="397.175781"/>
      <use xlink:href="#DejaVuSans-65" x="460.652344"/>
      <use xlink:href="#DejaVuSans-65" x="522.175781"/>
      <use xlink:href="#DejaVuSans-64" x="583.699219"/>
     </g>
    </g>
   </g>
  </g>
 </g>
 <defs>
  <clipPath id="p0d5fe250ca">
   <rect x="57.6" y="41.472" width="357.12" height="266.112"/>
  </clipPath>
 </defs>
</svg>
