<?xml version="1.0" encoding="utf-8" standalone="no"?>
<!DOCTYPE svg PUBLIC "-//W3C//DTD SVG 1.1//EN"
  "http://www.w3.org/Graphics/SVG/1.1/DTD/svg11.dtd">
<svg xmlns:xlink="http://www.w3.org/1999/xlink" width="460.8pt" height="345.6pt" viewBox="0 0 460.8 345.6" xmlns="http://www.w3.org/2000/svg" version="1.1">
 <metadata>
  <rdf:RDF xmlns:dc="http://purl.org/dc/elements/1.1/" xmlns:cc="http://creativecommons.org/ns#" xmlns:rdf="http://www.w3.org/1999/02/22-rdf-syntax-ns#">
   <cc:Work>
    <dc:type rdf:resource="http://purl.org/dc/dcmitype/StillImage"/>
    <dc:date>2024-01-30T20:59:30.601249</dc:date>
    <dc:format>image/svg+xml</dc:format>
    <dc:creator>
     <cc:Agent>
      <dc:title>Matplotlib v3.7.1, https://matplotlib.org/</dc:title>
     </cc:Agent>
    </dc:creator>
   </cc:Work>
  </rdf:RDF>
 </metadata>
 <defs>
  <style type="text/css">*{stroke-linejoin: round; stroke-linecap: butt}</style>
 </defs>
 <g id="figure_1">
  <g id="patch_1">
   <path d="M 0 345.6 
L 460.8 345.6 
L 460.8 0 
L 0 0 
z
" style="fill: #ffffff"/>
  </g>
  <g id="axes_1">
   <g id="patch_2">
    <path d="M 57.6 307.584 
L 414.72 307.584 
L 414.72 41.472 
L 57.6 41.472 
z
" style="fill: #ffffff"/>
   </g>
   <g id="matplotlib.axis_1">
    <g id="xtick_1">
     <g id="line2d_1">
      <path d="M 73.832727 307.584 
L 73.832727 41.472 
" clip-path="url(#p404137f6cf)" style="fill: none; stroke: #b0b0b0; stroke-width: 0.8; stroke-linecap: square"/>
     </g>
     <g id="line2d_2">
      <defs>
       <path id="mb8652d0b4d" d="M 0 0 
L 0 3.5 
" style="stroke: #000000; stroke-width: 0.8"/>
      </defs>
      <g>
       <use xlink:href="#mb8652d0b4d" x="73.832727" y="307.584" style="stroke: #000000; stroke-width: 0.8"/>
      </g>
     </g>
     <g id="text_1">
      <!-- 0 -->
      <g transform="translate(70.651477 322.182437) scale(0.1 -0.1)">
       <defs>
        <path id="DejaVuSans-30" d="M 2034 4250 
Q 1547 4250 1301 3770 
Q 1056 3291 1056 2328 
Q 1056 1369 1301 889 
Q 1547 409 2034 409 
Q 2525 409 2770 889 
Q 3016 1369 3016 2328 
Q 3016 3291 2770 3770 
Q 2525 4250 2034 4250 
z
M 2034 4750 
Q 2819 4750 3233 4129 
Q 3647 3509 3647 2328 
Q 3647 1150 3233 529 
Q 2819 -91 2034 -91 
Q 1250 -91 836 529 
Q 422 1150 422 2328 
Q 422 3509 836 4129 
Q 1250 4750 2034 4750 
z
" transform="scale(0.015625)"/>
       </defs>
       <use xlink:href="#DejaVuSans-30"/>
      </g>
     </g>
    </g>
    <g id="xtick_2">
     <g id="line2d_3">
      <path d="M 130.001334 307.584 
L 130.001334 41.472 
" clip-path="url(#p404137f6cf)" style="fill: none; stroke: #b0b0b0; stroke-width: 0.8; stroke-linecap: square"/>
     </g>
     <g id="line2d_4">
      <g>
       <use xlink:href="#mb8652d0b4d" x="130.001334" y="307.584" style="stroke: #000000; stroke-width: 0.8"/>
      </g>
     </g>
     <g id="text_2">
      <!-- 5 -->
      <g transform="translate(126.820084 322.182437) scale(0.1 -0.1)">
       <defs>
        <path id="DejaVuSans-35" d="M 691 4666 
L 3169 4666 
L 3169 4134 
L 1269 4134 
L 1269 2991 
Q 1406 3038 1543 3061 
Q 1681 3084 1819 3084 
Q 2600 3084 3056 2656 
Q 3513 2228 3513 1497 
Q 3513 744 3044 326 
Q 2575 -91 1722 -91 
Q 1428 -91 1123 -41 
Q 819 9 494 109 
L 494 744 
Q 775 591 1075 516 
Q 1375 441 1709 441 
Q 2250 441 2565 725 
Q 2881 1009 2881 1497 
Q 2881 1984 2565 2268 
Q 2250 2553 1709 2553 
Q 1456 2553 1204 2497 
Q 953 2441 691 2322 
L 691 4666 
z
" transform="scale(0.015625)"/>
       </defs>
       <use xlink:href="#DejaVuSans-35"/>
      </g>
     </g>
    </g>
    <g id="xtick_3">
     <g id="line2d_5">
      <path d="M 186.16994 307.584 
L 186.16994 41.472 
" clip-path="url(#p404137f6cf)" style="fill: none; stroke: #b0b0b0; stroke-width: 0.8; stroke-linecap: square"/>
     </g>
     <g id="line2d_6">
      <g>
       <use xlink:href="#mb8652d0b4d" x="186.16994" y="307.584" style="stroke: #000000; stroke-width: 0.8"/>
      </g>
     </g>
     <g id="text_3">
      <!-- 10 -->
      <g transform="translate(179.80744 322.182437) scale(0.1 -0.1)">
       <defs>
        <path id="DejaVuSans-31" d="M 794 531 
L 1825 531 
L 1825 4091 
L 703 3866 
L 703 4441 
L 1819 4666 
L 2450 4666 
L 2450 531 
L 3481 531 
L 3481 0 
L 794 0 
L 794 531 
z
" transform="scale(0.015625)"/>
       </defs>
       <use xlink:href="#DejaVuSans-31"/>
       <use xlink:href="#DejaVuSans-30" x="63.623047"/>
      </g>
     </g>
    </g>
    <g id="xtick_4">
     <g id="line2d_7">
      <path d="M 242.338547 307.584 
L 242.338547 41.472 
" clip-path="url(#p404137f6cf)" style="fill: none; stroke: #b0b0b0; stroke-width: 0.8; stroke-linecap: square"/>
     </g>
     <g id="line2d_8">
      <g>
       <use xlink:href="#mb8652d0b4d" x="242.338547" y="307.584" style="stroke: #000000; stroke-width: 0.8"/>
      </g>
     </g>
     <g id="text_4">
      <!-- 15 -->
      <g transform="translate(235.976047 322.182437) scale(0.1 -0.1)">
       <use xlink:href="#DejaVuSans-31"/>
       <use xlink:href="#DejaVuSans-35" x="63.623047"/>
      </g>
     </g>
    </g>
    <g id="xtick_5">
     <g id="line2d_9">
      <path d="M 298.507153 307.584 
L 298.507153 41.472 
" clip-path="url(#p404137f6cf)" style="fill: none; stroke: #b0b0b0; stroke-width: 0.8; stroke-linecap: square"/>
     </g>
     <g id="line2d_10">
      <g>
       <use xlink:href="#mb8652d0b4d" x="298.507153" y="307.584" style="stroke: #000000; stroke-width: 0.8"/>
      </g>
     </g>
     <g id="text_5">
      <!-- 20 -->
      <g transform="translate(292.144653 322.182437) scale(0.1 -0.1)">
       <defs>
        <path id="DejaVuSans-32" d="M 1228 531 
L 3431 531 
L 3431 0 
L 469 0 
L 469 531 
Q 828 903 1448 1529 
Q 2069 2156 2228 2338 
Q 2531 2678 2651 2914 
Q 2772 3150 2772 3378 
Q 2772 3750 2511 3984 
Q 2250 4219 1831 4219 
Q 1534 4219 1204 4116 
Q 875 4013 500 3803 
L 500 4441 
Q 881 4594 1212 4672 
Q 1544 4750 1819 4750 
Q 2544 4750 2975 4387 
Q 3406 4025 3406 3419 
Q 3406 3131 3298 2873 
Q 3191 2616 2906 2266 
Q 2828 2175 2409 1742 
Q 1991 1309 1228 531 
z
" transform="scale(0.015625)"/>
       </defs>
       <use xlink:href="#DejaVuSans-32"/>
       <use xlink:href="#DejaVuSans-30" x="63.623047"/>
      </g>
     </g>
    </g>
    <g id="xtick_6">
     <g id="line2d_11">
      <path d="M 354.67576 307.584 
L 354.67576 41.472 
" clip-path="url(#p404137f6cf)" style="fill: none; stroke: #b0b0b0; stroke-width: 0.8; stroke-linecap: square"/>
     </g>
     <g id="line2d_12">
      <g>
       <use xlink:href="#mb8652d0b4d" x="354.67576" y="307.584" style="stroke: #000000; stroke-width: 0.8"/>
      </g>
     </g>
     <g id="text_6">
      <!-- 25 -->
      <g transform="translate(348.31326 322.182437) scale(0.1 -0.1)">
       <use xlink:href="#DejaVuSans-32"/>
       <use xlink:href="#DejaVuSans-35" x="63.623047"/>
      </g>
     </g>
    </g>
    <g id="xtick_7">
     <g id="line2d_13">
      <path d="M 410.844366 307.584 
L 410.844366 41.472 
" clip-path="url(#p404137f6cf)" style="fill: none; stroke: #b0b0b0; stroke-width: 0.8; stroke-linecap: square"/>
     </g>
     <g id="line2d_14">
      <g>
       <use xlink:href="#mb8652d0b4d" x="410.844366" y="307.584" style="stroke: #000000; stroke-width: 0.8"/>
      </g>
     </g>
     <g id="text_7">
      <!-- 30 -->
      <g transform="translate(404.481866 322.182437) scale(0.1 -0.1)">
       <defs>
        <path id="DejaVuSans-33" d="M 2597 2516 
Q 3050 2419 3304 2112 
Q 3559 1806 3559 1356 
Q 3559 666 3084 287 
Q 2609 -91 1734 -91 
Q 1441 -91 1130 -33 
Q 819 25 488 141 
L 488 750 
Q 750 597 1062 519 
Q 1375 441 1716 441 
Q 2309 441 2620 675 
Q 2931 909 2931 1356 
Q 2931 1769 2642 2001 
Q 2353 2234 1838 2234 
L 1294 2234 
L 1294 2753 
L 1863 2753 
Q 2328 2753 2575 2939 
Q 2822 3125 2822 3475 
Q 2822 3834 2567 4026 
Q 2313 4219 1838 4219 
Q 1578 4219 1281 4162 
Q 984 4106 628 3988 
L 628 4550 
Q 988 4650 1302 4700 
Q 1616 4750 1894 4750 
Q 2613 4750 3031 4423 
Q 3450 4097 3450 3541 
Q 3450 3153 3228 2886 
Q 3006 2619 2597 2516 
z
" transform="scale(0.015625)"/>
       </defs>
       <use xlink:href="#DejaVuSans-33"/>
       <use xlink:href="#DejaVuSans-30" x="63.623047"/>
      </g>
     </g>
    </g>
    <g id="text_8">
     <!-- Time(s) -->
     <g transform="translate(217.420156 335.860562) scale(0.1 -0.1)">
      <defs>
       <path id="DejaVuSans-54" d="M -19 4666 
L 3928 4666 
L 3928 4134 
L 2272 4134 
L 2272 0 
L 1638 0 
L 1638 4134 
L -19 4134 
L -19 4666 
z
" transform="scale(0.015625)"/>
       <path id="DejaVuSans-69" d="M 603 3500 
L 1178 3500 
L 1178 0 
L 603 0 
L 603 3500 
z
M 603 4863 
L 1178 4863 
L 1178 4134 
L 603 4134 
L 603 4863 
z
" transform="scale(0.015625)"/>
       <path id="DejaVuSans-6d" d="M 3328 2828 
Q 3544 3216 3844 3400 
Q 4144 3584 4550 3584 
Q 5097 3584 5394 3201 
Q 5691 2819 5691 2113 
L 5691 0 
L 5113 0 
L 5113 2094 
Q 5113 2597 4934 2840 
Q 4756 3084 4391 3084 
Q 3944 3084 3684 2787 
Q 3425 2491 3425 1978 
L 3425 0 
L 2847 0 
L 2847 2094 
Q 2847 2600 2669 2842 
Q 2491 3084 2119 3084 
Q 1678 3084 1418 2786 
Q 1159 2488 1159 1978 
L 1159 0 
L 581 0 
L 581 3500 
L 1159 3500 
L 1159 2956 
Q 1356 3278 1631 3431 
Q 1906 3584 2284 3584 
Q 2666 3584 2933 3390 
Q 3200 3197 3328 2828 
z
" transform="scale(0.015625)"/>
       <path id="DejaVuSans-65" d="M 3597 1894 
L 3597 1613 
L 953 1613 
Q 991 1019 1311 708 
Q 1631 397 2203 397 
Q 2534 397 2845 478 
Q 3156 559 3463 722 
L 3463 178 
Q 3153 47 2828 -22 
Q 2503 -91 2169 -91 
Q 1331 -91 842 396 
Q 353 884 353 1716 
Q 353 2575 817 3079 
Q 1281 3584 2069 3584 
Q 2775 3584 3186 3129 
Q 3597 2675 3597 1894 
z
M 3022 2063 
Q 3016 2534 2758 2815 
Q 2500 3097 2075 3097 
Q 1594 3097 1305 2825 
Q 1016 2553 972 2059 
L 3022 2063 
z
" transform="scale(0.015625)"/>
       <path id="DejaVuSans-28" d="M 1984 4856 
Q 1566 4138 1362 3434 
Q 1159 2731 1159 2009 
Q 1159 1288 1364 580 
Q 1569 -128 1984 -844 
L 1484 -844 
Q 1016 -109 783 600 
Q 550 1309 550 2009 
Q 550 2706 781 3412 
Q 1013 4119 1484 4856 
L 1984 4856 
z
" transform="scale(0.015625)"/>
       <path id="DejaVuSans-73" d="M 2834 3397 
L 2834 2853 
Q 2591 2978 2328 3040 
Q 2066 3103 1784 3103 
Q 1356 3103 1142 2972 
Q 928 2841 928 2578 
Q 928 2378 1081 2264 
Q 1234 2150 1697 2047 
L 1894 2003 
Q 2506 1872 2764 1633 
Q 3022 1394 3022 966 
Q 3022 478 2636 193 
Q 2250 -91 1575 -91 
Q 1294 -91 989 -36 
Q 684 19 347 128 
L 347 722 
Q 666 556 975 473 
Q 1284 391 1588 391 
Q 1994 391 2212 530 
Q 2431 669 2431 922 
Q 2431 1156 2273 1281 
Q 2116 1406 1581 1522 
L 1381 1569 
Q 847 1681 609 1914 
Q 372 2147 372 2553 
Q 372 3047 722 3315 
Q 1072 3584 1716 3584 
Q 2034 3584 2315 3537 
Q 2597 3491 2834 3397 
z
" transform="scale(0.015625)"/>
       <path id="DejaVuSans-29" d="M 513 4856 
L 1013 4856 
Q 1481 4119 1714 3412 
Q 1947 2706 1947 2009 
Q 1947 1309 1714 600 
Q 1481 -109 1013 -844 
L 513 -844 
Q 928 -128 1133 580 
Q 1338 1288 1338 2009 
Q 1338 2731 1133 3434 
Q 928 4138 513 4856 
z
" transform="scale(0.015625)"/>
      </defs>
      <use xlink:href="#DejaVuSans-54"/>
      <use xlink:href="#DejaVuSans-69" x="57.958984"/>
      <use xlink:href="#DejaVuSans-6d" x="85.742188"/>
      <use xlink:href="#DejaVuSans-65" x="183.154297"/>
      <use xlink:href="#DejaVuSans-28" x="244.677734"/>
      <use xlink:href="#DejaVuSans-73" x="283.691406"/>
      <use xlink:href="#DejaVuSans-29" x="335.791016"/>
     </g>
    </g>
   </g>
   <g id="matplotlib.axis_2">
    <g id="ytick_1">
     <g id="line2d_15">
      <path d="M 57.6 295.488 
L 414.72 295.488 
" clip-path="url(#p404137f6cf)" style="fill: none; stroke: #b0b0b0; stroke-width: 0.8; stroke-linecap: square"/>
     </g>
     <g id="line2d_16">
      <defs>
       <path id="mcc0b4fb57e" d="M 0 0 
L -3.5 0 
" style="stroke: #000000; stroke-width: 0.8"/>
      </defs>
      <g>
       <use xlink:href="#mcc0b4fb57e" x="57.6" y="295.488" style="stroke: #000000; stroke-width: 0.8"/>
      </g>
     </g>
     <g id="text_9">
      <!-- 0.00 -->
      <g transform="translate(28.334375 299.287219) scale(0.1 -0.1)">
       <defs>
        <path id="DejaVuSans-2e" d="M 684 794 
L 1344 794 
L 1344 0 
L 684 0 
L 684 794 
z
" transform="scale(0.015625)"/>
       </defs>
       <use xlink:href="#DejaVuSans-30"/>
       <use xlink:href="#DejaVuSans-2e" x="63.623047"/>
       <use xlink:href="#DejaVuSans-30" x="95.410156"/>
       <use xlink:href="#DejaVuSans-30" x="159.033203"/>
      </g>
     </g>
    </g>
    <g id="ytick_2">
     <g id="line2d_17">
      <path d="M 57.6 237.557798 
L 414.72 237.557798 
" clip-path="url(#p404137f6cf)" style="fill: none; stroke: #b0b0b0; stroke-width: 0.8; stroke-linecap: square"/>
     </g>
     <g id="line2d_18">
      <g>
       <use xlink:href="#mcc0b4fb57e" x="57.6" y="237.557798" style="stroke: #000000; stroke-width: 0.8"/>
      </g>
     </g>
     <g id="text_10">
      <!-- 0.05 -->
      <g transform="translate(28.334375 241.357017) scale(0.1 -0.1)">
       <use xlink:href="#DejaVuSans-30"/>
       <use xlink:href="#DejaVuSans-2e" x="63.623047"/>
       <use xlink:href="#DejaVuSans-30" x="95.410156"/>
       <use xlink:href="#DejaVuSans-35" x="159.033203"/>
      </g>
     </g>
    </g>
    <g id="ytick_3">
     <g id="line2d_19">
      <path d="M 57.6 179.627596 
L 414.72 179.627596 
" clip-path="url(#p404137f6cf)" style="fill: none; stroke: #b0b0b0; stroke-width: 0.8; stroke-linecap: square"/>
     </g>
     <g id="line2d_20">
      <g>
       <use xlink:href="#mcc0b4fb57e" x="57.6" y="179.627596" style="stroke: #000000; stroke-width: 0.8"/>
      </g>
     </g>
     <g id="text_11">
      <!-- 0.10 -->
      <g transform="translate(28.334375 183.426814) scale(0.1 -0.1)">
       <use xlink:href="#DejaVuSans-30"/>
       <use xlink:href="#DejaVuSans-2e" x="63.623047"/>
       <use xlink:href="#DejaVuSans-31" x="95.410156"/>
       <use xlink:href="#DejaVuSans-30" x="159.033203"/>
      </g>
     </g>
    </g>
    <g id="ytick_4">
     <g id="line2d_21">
      <path d="M 57.6 121.697394 
L 414.72 121.697394 
" clip-path="url(#p404137f6cf)" style="fill: none; stroke: #b0b0b0; stroke-width: 0.8; stroke-linecap: square"/>
     </g>
     <g id="line2d_22">
      <g>
       <use xlink:href="#mcc0b4fb57e" x="57.6" y="121.697394" style="stroke: #000000; stroke-width: 0.8"/>
      </g>
     </g>
     <g id="text_12">
      <!-- 0.15 -->
      <g transform="translate(28.334375 125.496612) scale(0.1 -0.1)">
       <use xlink:href="#DejaVuSans-30"/>
       <use xlink:href="#DejaVuSans-2e" x="63.623047"/>
       <use xlink:href="#DejaVuSans-31" x="95.410156"/>
       <use xlink:href="#DejaVuSans-35" x="159.033203"/>
      </g>
     </g>
    </g>
    <g id="ytick_5">
     <g id="line2d_23">
      <path d="M 57.6 63.767191 
L 414.72 63.767191 
" clip-path="url(#p404137f6cf)" style="fill: none; stroke: #b0b0b0; stroke-width: 0.8; stroke-linecap: square"/>
     </g>
     <g id="line2d_24">
      <g>
       <use xlink:href="#mcc0b4fb57e" x="57.6" y="63.767191" style="stroke: #000000; stroke-width: 0.8"/>
      </g>
     </g>
     <g id="text_13">
      <!-- 0.20 -->
      <g transform="translate(28.334375 67.56641) scale(0.1 -0.1)">
       <use xlink:href="#DejaVuSans-30"/>
       <use xlink:href="#DejaVuSans-2e" x="63.623047"/>
       <use xlink:href="#DejaVuSans-32" x="95.410156"/>
       <use xlink:href="#DejaVuSans-30" x="159.033203"/>
      </g>
     </g>
    </g>
    <g id="text_14">
     <!-- Tracking error(m) -->
     <g transform="translate(22.254687 217.803781) rotate(-90) scale(0.1 -0.1)">
      <defs>
       <path id="DejaVuSans-72" d="M 2631 2963 
Q 2534 3019 2420 3045 
Q 2306 3072 2169 3072 
Q 1681 3072 1420 2755 
Q 1159 2438 1159 1844 
L 1159 0 
L 581 0 
L 581 3500 
L 1159 3500 
L 1159 2956 
Q 1341 3275 1631 3429 
Q 1922 3584 2338 3584 
Q 2397 3584 2469 3576 
Q 2541 3569 2628 3553 
L 2631 2963 
z
" transform="scale(0.015625)"/>
       <path id="DejaVuSans-61" d="M 2194 1759 
Q 1497 1759 1228 1600 
Q 959 1441 959 1056 
Q 959 750 1161 570 
Q 1363 391 1709 391 
Q 2188 391 2477 730 
Q 2766 1069 2766 1631 
L 2766 1759 
L 2194 1759 
z
M 3341 1997 
L 3341 0 
L 2766 0 
L 2766 531 
Q 2569 213 2275 61 
Q 1981 -91 1556 -91 
Q 1019 -91 701 211 
Q 384 513 384 1019 
Q 384 1609 779 1909 
Q 1175 2209 1959 2209 
L 2766 2209 
L 2766 2266 
Q 2766 2663 2505 2880 
Q 2244 3097 1772 3097 
Q 1472 3097 1187 3025 
Q 903 2953 641 2809 
L 641 3341 
Q 956 3463 1253 3523 
Q 1550 3584 1831 3584 
Q 2591 3584 2966 3190 
Q 3341 2797 3341 1997 
z
" transform="scale(0.015625)"/>
       <path id="DejaVuSans-63" d="M 3122 3366 
L 3122 2828 
Q 2878 2963 2633 3030 
Q 2388 3097 2138 3097 
Q 1578 3097 1268 2742 
Q 959 2388 959 1747 
Q 959 1106 1268 751 
Q 1578 397 2138 397 
Q 2388 397 2633 464 
Q 2878 531 3122 666 
L 3122 134 
Q 2881 22 2623 -34 
Q 2366 -91 2075 -91 
Q 1284 -91 818 406 
Q 353 903 353 1747 
Q 353 2603 823 3093 
Q 1294 3584 2113 3584 
Q 2378 3584 2631 3529 
Q 2884 3475 3122 3366 
z
" transform="scale(0.015625)"/>
       <path id="DejaVuSans-6b" d="M 581 4863 
L 1159 4863 
L 1159 1991 
L 2875 3500 
L 3609 3500 
L 1753 1863 
L 3688 0 
L 2938 0 
L 1159 1709 
L 1159 0 
L 581 0 
L 581 4863 
z
" transform="scale(0.015625)"/>
       <path id="DejaVuSans-6e" d="M 3513 2113 
L 3513 0 
L 2938 0 
L 2938 2094 
Q 2938 2591 2744 2837 
Q 2550 3084 2163 3084 
Q 1697 3084 1428 2787 
Q 1159 2491 1159 1978 
L 1159 0 
L 581 0 
L 581 3500 
L 1159 3500 
L 1159 2956 
Q 1366 3272 1645 3428 
Q 1925 3584 2291 3584 
Q 2894 3584 3203 3211 
Q 3513 2838 3513 2113 
z
" transform="scale(0.015625)"/>
       <path id="DejaVuSans-67" d="M 2906 1791 
Q 2906 2416 2648 2759 
Q 2391 3103 1925 3103 
Q 1463 3103 1205 2759 
Q 947 2416 947 1791 
Q 947 1169 1205 825 
Q 1463 481 1925 481 
Q 2391 481 2648 825 
Q 2906 1169 2906 1791 
z
M 3481 434 
Q 3481 -459 3084 -895 
Q 2688 -1331 1869 -1331 
Q 1566 -1331 1297 -1286 
Q 1028 -1241 775 -1147 
L 775 -588 
Q 1028 -725 1275 -790 
Q 1522 -856 1778 -856 
Q 2344 -856 2625 -561 
Q 2906 -266 2906 331 
L 2906 616 
Q 2728 306 2450 153 
Q 2172 0 1784 0 
Q 1141 0 747 490 
Q 353 981 353 1791 
Q 353 2603 747 3093 
Q 1141 3584 1784 3584 
Q 2172 3584 2450 3431 
Q 2728 3278 2906 2969 
L 2906 3500 
L 3481 3500 
L 3481 434 
z
" transform="scale(0.015625)"/>
       <path id="DejaVuSans-20" transform="scale(0.015625)"/>
       <path id="DejaVuSans-6f" d="M 1959 3097 
Q 1497 3097 1228 2736 
Q 959 2375 959 1747 
Q 959 1119 1226 758 
Q 1494 397 1959 397 
Q 2419 397 2687 759 
Q 2956 1122 2956 1747 
Q 2956 2369 2687 2733 
Q 2419 3097 1959 3097 
z
M 1959 3584 
Q 2709 3584 3137 3096 
Q 3566 2609 3566 1747 
Q 3566 888 3137 398 
Q 2709 -91 1959 -91 
Q 1206 -91 779 398 
Q 353 888 353 1747 
Q 353 2609 779 3096 
Q 1206 3584 1959 3584 
z
" transform="scale(0.015625)"/>
      </defs>
      <use xlink:href="#DejaVuSans-54"/>
      <use xlink:href="#DejaVuSans-72" x="46.333984"/>
      <use xlink:href="#DejaVuSans-61" x="87.447266"/>
      <use xlink:href="#DejaVuSans-63" x="148.726562"/>
      <use xlink:href="#DejaVuSans-6b" x="203.707031"/>
      <use xlink:href="#DejaVuSans-69" x="261.617188"/>
      <use xlink:href="#DejaVuSans-6e" x="289.400391"/>
      <use xlink:href="#DejaVuSans-67" x="352.779297"/>
      <use xlink:href="#DejaVuSans-20" x="416.255859"/>
      <use xlink:href="#DejaVuSans-65" x="448.042969"/>
      <use xlink:href="#DejaVuSans-72" x="509.566406"/>
      <use xlink:href="#DejaVuSans-72" x="548.929688"/>
      <use xlink:href="#DejaVuSans-6f" x="587.792969"/>
      <use xlink:href="#DejaVuSans-72" x="648.974609"/>
      <use xlink:href="#DejaVuSans-28" x="690.087891"/>
      <use xlink:href="#DejaVuSans-6d" x="729.101562"/>
      <use xlink:href="#DejaVuSans-29" x="826.513672"/>
     </g>
    </g>
   </g>
   <g id="line2d_25">
    <path d="M 73.832727 295.488 
L 74.506751 295.488 
L 74.506751 295.488 
L 74.956099 294.077979 
L 74.956099 294.077979 
L 75.405448 293.125606 
L 75.405448 293.125606 
L 75.630123 294.609778 
L 75.630123 294.609778 
L 75.854797 294.023524 
L 75.854797 294.023524 
L 76.304146 287.477412 
L 76.304146 287.477412 
L 76.52882 277.767151 
L 76.52882 277.767151 
L 78.326216 248.059385 
L 78.326216 248.059385 
L 78.55089 246.681805 
L 78.55089 246.681805 
L 78.775565 246.541614 
L 78.775565 246.541614 
L 79.000239 247.436056 
L 79.000239 247.436056 
L 79.674262 252.536231 
L 79.674262 252.536231 
L 80.348286 259.451938 
L 80.348286 259.451938 
L 80.57296 260.018496 
L 80.57296 260.018496 
L 81.022309 261.736706 
L 81.022309 261.736706 
L 81.246983 262.061115 
L 81.246983 262.061115 
L 81.471658 261.3926 
L 81.471658 261.3926 
L 81.921007 261.894276 
L 81.921007 261.894276 
L 82.145681 262.107459 
L 82.145681 262.107459 
L 82.370355 262.123679 
L 83.044379 264.857985 
L 83.044379 264.857985 
L 84.167751 271.84205 
L 84.167751 271.84205 
L 85.066449 276.848378 
L 85.066449 276.848378 
L 85.740472 282.098013 
L 85.740472 282.098013 
L 87.088518 294.47538 
L 87.088518 294.47538 
L 87.313193 294.434829 
L 87.313193 294.434829 
L 87.987216 289.221111 
L 87.987216 289.221111 
L 88.661239 283.600723 
L 88.661239 283.600723 
L 89.110588 280.197902 
L 89.110588 280.197902 
L 89.335263 278.059119 
L 89.335263 278.059119 
L 89.559937 277.094002 
L 89.559937 277.094002 
L 89.784612 275.288897 
L 89.784612 275.288897 
L 90.009286 274.516108 
L 90.009286 274.516108 
L 90.458635 271.931263 
L 90.458635 271.931263 
L 90.683309 272.184997 
L 90.683309 272.184997 
L 90.907984 271.738934 
L 90.907984 271.738934 
L 91.582007 274.041081 
L 91.582007 274.041081 
L 91.806681 275.315545 
L 91.806681 275.315545 
L 92.930053 292.667958 
L 92.930053 292.667958 
L 93.154728 294.337506 
L 93.154728 294.337506 
L 93.604077 284.456931 
L 93.604077 284.456931 
L 95.850821 239.615479 
L 95.850821 239.615479 
L 96.749519 228.109382 
L 96.749519 228.109382 
L 97.423542 223.74492 
L 97.423542 223.74492 
L 97.648216 223.494662 
L 97.648216 223.494662 
L 97.872891 223.617474 
L 97.872891 223.617474 
L 98.097565 224.095977 
L 98.32224 224.929014 
L 98.32224 224.929014 
L 98.546914 224.025303 
L 98.546914 224.025303 
L 98.771589 224.587226 
L 98.771589 224.587226 
L 99.220937 227.017977 
L 99.220937 227.017977 
L 99.445612 226.943826 
L 99.445612 226.943826 
L 99.894961 230.785757 
L 99.894961 230.785757 
L 101.467682 253.51641 
L 101.467682 253.51641 
L 101.917031 261.394917 
L 101.917031 261.394917 
L 102.141705 262.340338 
L 102.141705 262.340338 
L 102.591054 267.362887 
L 102.591054 267.362887 
L 102.815728 267.036161 
L 102.815728 267.036161 
L 103.265077 268.544663 
L 103.265077 268.544663 
L 103.489751 267.142752 
L 103.489751 267.142752 
L 103.714426 266.966644 
L 103.714426 266.966644 
L 103.9391 267.124214 
L 104.163775 265.424542 
L 104.163775 265.424542 
L 104.388449 265.188187 
L 104.388449 265.188187 
L 104.613124 265.65858 
L 104.613124 265.65858 
L 104.837798 264.409605 
L 104.837798 264.409605 
L 105.062472 264.924025 
L 105.062472 264.924025 
L 105.287147 266.379232 
L 105.287147 266.379232 
L 105.511821 265.843957 
L 105.511821 265.843957 
L 105.736496 267.339715 
L 105.736496 267.339715 
L 105.96117 269.820286 
L 105.96117 269.820286 
L 106.185845 269.575821 
L 106.185845 269.575821 
L 106.635193 275.106996 
L 106.635193 275.106996 
L 106.859868 274.71423 
L 107.309217 281.246439 
L 107.309217 281.246439 
L 107.533891 280.153875 
L 107.533891 280.153875 
L 107.98324 286.683768 
L 107.98324 286.683768 
L 108.207914 283.816223 
L 108.207914 283.816223 
L 108.432589 285.704747 
L 108.432589 285.704747 
L 108.657263 283.182466 
L 108.881938 282.620543 
L 108.881938 282.620543 
L 109.106612 282.516269 
L 109.106612 282.516269 
L 109.331287 277.544699 
L 109.331287 277.544699 
L 109.780635 273.804725 
L 109.780635 273.804725 
L 110.00531 267.563325 
L 110.00531 267.563325 
L 110.454659 262.852441 
L 110.454659 262.852441 
L 110.679333 256.42103 
L 110.679333 256.42103 
L 111.128682 252.397198 
L 111.128682 252.397198 
L 111.353356 246.184764 
L 111.353356 246.184764 
L 111.802705 242.323136 
L 111.802705 242.323136 
L 112.02738 236.188328 
L 112.02738 236.188328 
L 112.252054 233.87923 
L 112.252054 233.87923 
L 112.701403 225.868642 
L 112.701403 225.868642 
L 112.926077 223.42978 
L 112.926077 223.42978 
L 113.375426 216.419067 
L 113.375426 216.419067 
L 113.600101 214.922151 
L 113.600101 214.922151 
L 113.824775 211.664156 
L 113.824775 211.664156 
L 114.04945 210.48238 
L 114.04945 210.48238 
L 114.274124 210.096565 
L 114.274124 210.096565 
L 114.498798 208.452506 
L 114.723473 208.429334 
L 114.723473 208.429334 
L 114.948147 208.869603 
L 114.948147 208.869603 
L 115.172822 208.539401 
L 115.172822 208.539401 
L 115.62217 210.403595 
L 115.62217 210.403595 
L 115.846845 211.622446 
L 115.846845 211.622446 
L 116.071519 212.085888 
L 116.071519 212.085888 
L 116.745543 216.495535 
L 116.745543 216.495535 
L 117.419566 222.751997 
L 117.419566 222.751997 
L 118.093589 233.102965 
L 118.093589 233.102965 
L 118.767612 247.434897 
L 118.767612 247.434897 
L 120.340333 280.599938 
L 120.340333 280.599938 
L 121.239031 294.804424 
L 121.239031 294.804424 
L 121.463706 292.878824 
L 121.463706 292.878824 
L 122.362403 281.417913 
L 122.362403 281.417913 
L 122.811752 277.245779 
L 122.811752 277.245779 
L 123.261101 274.969122 
L 123.261101 274.969122 
L 123.485775 274.560135 
L 123.485775 274.560135 
L 123.71045 274.484826 
L 123.71045 274.484826 
L 124.159799 275.513666 
L 124.159799 275.513666 
L 124.833822 278.312854 
L 124.833822 278.312854 
L 125.283171 280.260467 
L 125.283171 280.260467 
L 125.957194 282.625178 
L 125.957194 282.625178 
L 126.406543 284.824208 
L 126.406543 284.824208 
L 126.631217 295.488 
L 126.631217 295.488 
L 126.855892 287.833103 
L 126.855892 287.833103 
L 127.754589 295.488 
L 127.754589 295.488 
L 128.203938 290.503685 
L 128.203938 290.503685 
L 128.653287 287.351124 
L 128.653287 287.351124 
L 128.877962 295.488 
L 128.877962 295.488 
L 129.102636 285.44522 
L 129.102636 285.44522 
L 129.32731 284.887932 
L 129.32731 284.887932 
L 129.776659 285.04666 
L 129.776659 285.04666 
L 130.001334 295.488 
L 130.001334 295.488 
L 130.226008 285.917931 
L 130.226008 285.917931 
L 130.900031 288.041652 
L 130.900031 288.041652 
L 131.124706 295.488 
L 131.124706 295.488 
L 131.34938 289.067016 
L 131.34938 289.067016 
L 131.798729 290.435328 
L 131.798729 290.435328 
L 132.023404 291.225496 
L 132.023404 291.225496 
L 132.248078 295.488 
L 132.248078 295.488 
L 132.472752 293.370072 
L 132.472752 293.370072 
L 132.697427 294.544896 
L 132.697427 294.544896 
L 132.922101 295.037303 
L 132.922101 295.037303 
L 133.146776 293.707226 
L 133.146776 293.707226 
L 133.37145 295.488 
L 133.37145 295.488 
L 133.596125 291.13049 
L 133.596125 291.13049 
L 134.270148 288.230504 
L 134.270148 288.230504 
L 134.494822 295.488 
L 134.494822 295.488 
L 134.719497 287.694071 
L 134.719497 287.694071 
L 134.944171 287.57821 
L 134.944171 287.57821 
L 135.39352 287.064949 
L 135.39352 287.064949 
L 135.618194 295.488 
L 135.618194 295.488 
L 135.842869 286.198313 
L 135.842869 286.198313 
L 136.292218 284.090812 
L 136.292218 284.090812 
L 137.41559 278.130953 
L 137.41559 278.130953 
L 137.640264 277.645498 
L 137.640264 277.645498 
L 137.864939 277.567871 
L 137.864939 277.567871 
L 138.089613 277.883012 
L 138.089613 277.883012 
L 138.314288 278.714889 
L 138.314288 278.714889 
L 139.887008 288.916398 
L 139.887008 288.916398 
L 140.111683 295.488 
L 140.111683 295.488 
L 140.336357 290.756261 
L 140.336357 290.756261 
L 141.235055 294.257563 
L 141.235055 294.257563 
L 141.459729 295.44629 
L 141.459729 295.44629 
L 141.909078 292.377148 
L 141.909078 292.377148 
L 143.931148 273.776919 
L 143.931148 273.776919 
L 144.829846 268.031401 
L 144.829846 268.031401 
L 145.05452 265.444239 
L 145.05452 265.444239 
L 145.279195 265.488266 
L 145.279195 265.488266 
L 145.503869 262.653161 
L 145.503869 262.653161 
L 145.728544 261.68341 
L 145.728544 261.68341 
L 146.627241 249.820463 
L 146.627241 249.820463 
L 146.851916 248.95151 
L 146.851916 248.95151 
L 147.07659 244.589366 
L 147.07659 244.589366 
L 147.301265 242.845667 
L 147.301265 242.845667 
L 147.750613 233.096014 
L 147.750613 233.096014 
L 147.975288 233.355541 
L 147.975288 233.355541 
L 148.199962 228.84162 
L 148.199962 228.84162 
L 148.424637 229.495072 
L 148.424637 229.495072 
L 148.649311 225.634604 
L 148.649311 225.634604 
L 148.873986 225.872117 
L 149.09866 222.484359 
L 149.09866 222.484359 
L 149.323334 222.668577 
L 149.323334 222.668577 
L 149.548009 220.01885 
L 149.548009 220.01885 
L 149.772683 215.311442 
L 149.772683 215.311442 
L 149.997358 218.320336 
L 149.997358 218.320336 
L 150.222032 215.112162 
L 150.222032 215.112162 
L 150.446707 219.137152 
L 150.446707 219.137152 
L 150.671381 217.305399 
L 150.671381 217.305399 
L 150.896055 221.552842 
L 150.896055 221.552842 
L 151.12073 220.636386 
L 151.12073 220.636386 
L 151.345404 225.464289 
L 151.345404 225.464289 
L 151.570079 225.780588 
L 151.570079 225.780588 
L 151.794753 231.154193 
L 151.794753 231.154193 
L 152.019427 232.60129 
L 152.019427 232.60129 
L 152.244102 238.439496 
L 152.244102 238.439496 
L 152.468776 240.563217 
L 152.468776 240.563217 
L 152.693451 246.139578 
L 152.693451 246.139578 
L 152.918125 248.422028 
L 152.918125 248.422028 
L 153.367474 256.675923 
L 153.367474 256.675923 
L 153.592148 257.910995 
L 153.592148 257.910995 
L 153.816823 266.82877 
L 153.816823 266.82877 
L 154.041497 269.526001 
L 154.041497 269.526001 
L 154.266172 279.213089 
L 154.266172 279.213089 
L 154.490846 283.057337 
L 154.715521 292.472154 
L 154.715521 292.472154 
L 154.940195 295.059317 
L 154.940195 295.059317 
L 155.164869 287.425274 
L 155.164869 287.425274 
L 155.389544 286.163555 
L 155.389544 286.163555 
L 155.614218 280.852514 
L 155.614218 280.852514 
L 155.838893 282.89745 
L 155.838893 282.89745 
L 156.063567 279.769219 
L 156.063567 279.769219 
L 156.288242 285.160204 
L 156.288242 285.160204 
L 156.512916 283.010993 
L 156.512916 283.010993 
L 156.73759 289.306847 
L 156.73759 289.306847 
L 156.962265 287.027873 
L 156.962265 287.027873 
L 157.186939 293.744301 
L 157.186939 293.744301 
L 157.411614 290.894135 
L 157.411614 290.894135 
L 157.636288 294.630633 
L 157.636288 294.630633 
L 157.860963 292.304156 
L 157.860963 292.304156 
L 158.085637 294.498552 
L 158.085637 294.498552 
L 158.310311 291.522098 
L 158.310311 291.522098 
L 158.534986 293.854368 
L 158.534986 293.854368 
L 158.75966 287.867861 
L 158.75966 287.867861 
L 158.984335 289.33002 
L 158.984335 289.33002 
L 159.209009 283.072399 
L 159.209009 283.072399 
L 159.433684 283.761768 
L 159.433684 283.761768 
L 159.658358 277.913135 
L 159.658358 277.913135 
L 159.883032 278.843494 
L 159.883032 278.843494 
L 160.107707 273.608921 
L 160.107707 273.608921 
L 160.332381 274.659775 
L 160.332381 274.659775 
L 160.557056 270.421602 
L 160.557056 270.421602 
L 160.78173 271.820037 
L 160.78173 271.820037 
L 161.006405 268.622289 
L 161.231079 270.134268 
L 161.231079 270.134268 
L 161.455753 267.638635 
L 161.455753 267.638635 
L 161.680428 268.891086 
L 161.680428 268.891086 
L 161.905102 266.688579 
L 161.905102 266.688579 
L 162.129777 267.174034 
L 162.129777 267.174034 
L 162.354451 264.768772 
L 162.354451 264.768772 
L 162.8038 263.12703 
L 162.8038 263.12703 
L 164.376521 227.984253 
L 164.376521 227.984253 
L 165.050544 212.855201 
L 165.050544 212.855201 
L 165.275219 208.550987 
L 165.275219 208.550987 
L 165.499893 207.262619 
L 165.499893 207.262619 
L 165.949242 202.21574 
L 165.949242 202.21574 
L 166.173916 204.897908 
L 166.173916 204.897908 
L 166.398591 203.586369 
L 166.398591 203.586369 
L 166.623265 206.289392 
L 166.623265 206.289392 
L 166.84794 206.049561 
L 166.84794 206.049561 
L 167.072614 203.916571 
L 167.072614 203.916571 
L 167.297288 208.661054 
L 167.297288 208.661054 
L 167.521963 207.289267 
L 167.521963 207.289267 
L 167.746637 210.760445 
L 167.746637 210.760445 
L 167.971312 210.417498 
L 167.971312 210.417498 
L 168.195986 208.303046 
L 168.195986 208.303046 
L 168.420661 214.742567 
L 168.420661 214.742567 
L 168.645335 214.587314 
L 168.645335 214.587314 
L 168.870009 221.038421 
L 168.870009 221.038421 
L 169.094684 223.149398 
L 169.094684 223.149398 
L 169.319358 223.917552 
L 169.319358 223.917552 
L 169.544033 234.962525 
L 169.544033 234.962525 
L 169.768707 238.821835 
L 169.768707 238.821835 
L 170.44273 268.690647 
L 170.44273 268.690647 
L 171.116754 290.862853 
L 171.116754 290.862853 
L 171.341428 294.115054 
L 171.341428 294.115054 
L 171.566103 292.131524 
L 171.566103 292.131524 
L 171.790777 291.585822 
L 171.790777 291.585822 
L 172.015451 289.879198 
L 172.015451 289.879198 
L 172.240126 295.488 
L 172.240126 295.488 
L 172.4648 294.863512 
L 172.4648 294.863512 
L 172.689475 293.900712 
L 172.689475 293.900712 
L 172.914149 293.744301 
L 172.914149 293.744301 
L 173.138824 294.324762 
L 173.138824 294.324762 
L 173.588172 288.566499 
L 173.588172 288.566499 
L 173.812847 291.855776 
L 173.812847 291.855776 
L 174.037521 290.364653 
L 174.037521 290.364653 
L 174.262196 294.159081 
L 174.262196 294.159081 
L 174.48687 294.642219 
L 174.48687 294.642219 
L 175.160893 287.964025 
L 175.160893 287.964025 
L 175.385568 281.42834 
L 175.610242 278.222483 
L 175.610242 278.222483 
L 176.059591 267.676869 
L 176.059591 267.676869 
L 176.284265 263.570776 
L 176.284265 263.570776 
L 176.733614 252.277862 
L 176.733614 252.277862 
L 177.856986 230.896983 
L 177.856986 230.896983 
L 178.081661 228.615692 
L 178.081661 228.615692 
L 178.306335 227.976142 
L 178.306335 227.976142 
L 178.53101 228.140664 
L 178.53101 228.140664 
L 178.755684 229.367626 
L 178.755684 229.367626 
L 179.205033 235.421332 
L 179.205033 235.421332 
L 180.103731 251.895523 
L 180.103731 251.895523 
L 181.676452 280.43194 
L 181.676452 280.43194 
L 182.350475 289.363619 
L 182.350475 289.363619 
L 182.799824 294.147495 
L 182.799824 294.147495 
L 183.024498 294.434829 
L 183.024498 294.434829 
L 185.046568 275.002722 
L 185.046568 275.002722 
L 185.945266 261.34278 
L 185.945266 261.34278 
L 186.16994 254.793192 
L 186.16994 254.793192 
L 186.394615 252.186332 
L 186.394615 252.186332 
L 186.619289 243.591808 
L 186.619289 243.591808 
L 186.843964 241.90488 
L 186.843964 241.90488 
L 187.068638 238.448764 
L 187.068638 238.448764 
L 187.293312 230.820515 
L 187.293312 230.820515 
L 187.517987 228.338785 
L 187.517987 228.338785 
L 187.742661 219.281978 
L 187.742661 219.281978 
L 187.967336 218.550899 
L 187.967336 218.550899 
L 188.19201 207.533733 
L 188.19201 207.533733 
L 188.416684 208.270605 
L 188.416684 208.270605 
L 188.641359 206.306771 
L 188.641359 206.306771 
L 188.866033 197.59291 
L 188.866033 197.59291 
L 189.090708 197.75048 
L 189.090708 197.75048 
L 189.315382 187.618488 
L 189.315382 187.618488 
L 189.540057 189.11888 
L 189.540057 189.11888 
L 189.764731 187.723921 
L 189.764731 187.723921 
L 189.989405 179.397033 
L 189.989405 179.397033 
L 190.21408 179.035549 
L 190.21408 179.035549 
L 190.438754 168.287179 
L 190.438754 168.287179 
L 190.663429 169.230283 
L 190.663429 169.230283 
L 190.888103 167.188823 
L 190.888103 167.188823 
L 191.112778 158.129698 
L 191.112778 158.129698 
L 191.337452 157.469293 
L 191.337452 157.469293 
L 191.562126 146.111498 
L 191.562126 146.111498 
L 191.786801 147.060395 
L 191.786801 147.060395 
L 192.011475 144.627326 
L 192.011475 144.627326 
L 192.23615 134.350508 
L 192.23615 134.350508 
L 192.460824 133.12934 
L 192.460824 133.12934 
L 192.685499 119.304876 
L 192.685499 119.304876 
L 192.910173 120.428722 
L 192.910173 120.428722 
L 193.134847 117.905283 
L 193.134847 117.905283 
L 193.359522 107.065383 
L 193.584196 107.978363 
L 193.584196 107.978363 
L 193.808871 96.102672 
L 193.808871 96.102672 
L 194.033545 101.928133 
L 194.033545 101.928133 
L 194.25822 90.877367 
L 194.25822 90.877367 
L 194.482894 99.616718 
L 194.482894 99.616718 
L 194.707568 103.805071 
L 194.707568 103.805071 
L 194.932243 98.70142 
L 194.932243 98.70142 
L 195.156917 104.236072 
L 195.156917 104.236072 
L 195.381592 97.783806 
L 195.606266 104.642742 
L 195.606266 104.642742 
L 195.830941 107.406013 
L 195.830941 107.406013 
L 196.055615 103.858367 
L 196.055615 103.858367 
L 196.280289 107.767497 
L 196.280289 107.767497 
L 196.504964 102.724094 
L 196.504964 102.724094 
L 196.729638 108.584313 
L 196.729638 108.584313 
L 196.954313 102.315107 
L 196.954313 102.315107 
L 197.403662 114.826872 
L 197.403662 114.826872 
L 197.628336 112.355569 
L 197.628336 112.355569 
L 197.85301 119.366282 
L 197.85301 119.366282 
L 198.077685 116.445441 
L 198.077685 116.445441 
L 198.527034 132.068058 
L 198.527034 132.068058 
L 198.751708 132.890667 
L 198.976383 141.416834 
L 198.976383 141.416834 
L 199.201057 142.065653 
L 199.201057 142.065653 
L 199.650406 160.799121 
L 199.650406 160.799121 
L 199.87508 165.412683 
L 199.87508 165.412683 
L 200.099755 175.230693 
L 200.099755 175.230693 
L 200.324429 179.905661 
L 200.324429 179.905661 
L 200.549103 190.656348 
L 200.549103 190.656348 
L 200.773778 195.844576 
L 200.773778 195.844576 
L 201.672476 236.803547 
L 201.672476 236.803547 
L 202.346499 267.602718 
L 202.346499 267.602718 
L 202.795848 288.297703 
L 202.795848 288.297703 
L 203.020522 292.577587 
L 203.020522 292.577587 
L 204.143894 252.632395 
L 204.143894 252.632395 
L 204.368569 246.986518 
L 204.368569 246.986518 
L 204.593243 237.085087 
L 204.593243 237.085087 
L 204.817918 232.970884 
L 204.817918 232.970884 
L 205.042592 219.78597 
L 205.042592 219.78597 
L 205.267266 216.664691 
L 205.267266 216.664691 
L 205.491941 211.141626 
L 205.491941 211.141626 
L 205.716615 197.495587 
L 205.716615 197.495587 
L 205.94129 194.081181 
L 205.94129 194.081181 
L 206.165964 188.181569 
L 206.165964 188.181569 
L 206.390639 174.844878 
L 206.390639 174.844878 
L 206.615313 170.665793 
L 206.615313 170.665793 
L 206.839987 164.387318 
L 206.839987 164.387318 
L 207.064662 153.307588 
L 207.064662 153.307588 
L 207.289336 151.975193 
L 207.289336 151.975193 
L 207.514011 140.6649 
L 207.514011 140.6649 
L 207.96336 149.992821 
L 207.96336 149.992821 
L 208.188034 144.532321 
L 208.188034 144.532321 
L 208.637383 157.818033 
L 208.637383 157.818033 
L 208.862057 157.053355 
L 208.862057 157.053355 
L 209.086732 162.130357 
L 209.311406 163.477814 
L 209.311406 163.477814 
L 209.536081 155.010736 
L 209.536081 155.010736 
L 209.760755 154.103549 
L 209.760755 154.103549 
L 209.985429 148.38352 
L 209.985429 148.38352 
L 210.210104 129.894517 
L 210.210104 129.894517 
L 210.434778 128.360525 
L 210.434778 128.360525 
L 210.659453 101.807638 
L 210.659453 101.807638 
L 210.884127 107.095507 
L 210.884127 107.095507 
L 211.108802 107.013246 
L 211.108802 107.013246 
L 211.333476 90.849561 
L 211.333476 90.849561 
L 211.55815 97.652884 
L 211.55815 97.652884 
L 211.782825 81.519323 
L 211.782825 81.519323 
L 212.232174 100.613117 
L 212.232174 100.613117 
L 212.456848 93.001089 
L 212.456848 93.001089 
L 212.681522 104.525723 
L 212.681522 104.525723 
L 212.906197 93.399648 
L 212.906197 93.399648 
L 213.355546 120.137913 
L 213.355546 120.137913 
L 213.58022 114.634543 
L 213.58022 114.634543 
L 213.804895 129.99184 
L 213.804895 129.99184 
L 214.029569 122.375177 
L 214.029569 122.375177 
L 214.478918 152.494248 
L 214.478918 152.494248 
L 214.703592 150.017152 
L 214.703592 150.017152 
L 215.152941 165.789229 
L 215.152941 165.789229 
L 215.377616 160.814183 
L 215.377616 160.814183 
L 215.60229 163.670142 
L 215.60229 163.670142 
L 215.826964 163.134867 
L 215.826964 163.134867 
L 216.051639 156.113727 
L 216.051639 156.113727 
L 216.276313 156.139216 
L 216.276313 156.139216 
L 216.500988 154.969026 
L 216.500988 154.969026 
L 216.725662 150.983428 
L 216.725662 150.983428 
L 216.950337 154.374662 
L 216.950337 154.374662 
L 217.175011 153.086294 
L 217.175011 153.086294 
L 217.849034 178.675223 
L 217.849034 178.675223 
L 218.972406 243.572111 
L 218.972406 243.572111 
L 219.64643 270.973097 
L 219.64643 270.973097 
L 220.320453 291.292695 
L 220.320453 291.292695 
L 220.545127 293.502153 
L 220.545127 293.502153 
L 222.117848 235.999475 
L 222.117848 235.999475 
L 222.342523 219.189289 
L 222.342523 219.189289 
L 222.791872 205.116885 
L 222.791872 205.116885 
L 223.016546 189.171017 
L 223.016546 189.171017 
L 223.241221 183.641 
L 223.241221 183.641 
L 223.465895 166.405606 
L 223.465895 166.405606 
L 223.690569 163.666666 
L 223.690569 163.666666 
L 223.915244 157.964017 
L 223.915244 157.964017 
L 224.139918 144.198643 
L 224.139918 144.198643 
L 224.364593 141.543122 
L 224.364593 141.543122 
L 224.589267 126.093137 
L 224.589267 126.093137 
L 224.813941 126.941235 
L 225.038616 124.374927 
L 225.038616 124.374927 
L 225.26329 112.915175 
L 225.26329 112.915175 
L 225.487965 113.138785 
L 225.487965 113.138785 
L 225.712639 99.419755 
L 225.712639 99.419755 
L 225.937314 102.617502 
L 226.161988 101.53189 
L 226.161988 101.53189 
L 226.386662 90.949201 
L 226.386662 90.949201 
L 226.611337 91.740527 
L 226.611337 91.740527 
L 226.836011 77.941553 
L 226.836011 77.941553 
L 227.060686 80.979413 
L 227.060686 80.979413 
L 227.28536 79.457007 
L 227.28536 79.457007 
L 227.510035 69.526612 
L 227.510035 69.526612 
L 227.734709 70.344587 
L 227.959383 59.279918 
L 227.959383 59.279918 
L 228.184058 64.441499 
L 228.184058 64.441499 
L 228.408732 53.568 
L 228.408732 53.568 
L 228.858081 66.777245 
L 228.858081 66.777245 
L 229.082756 62.024651 
L 229.082756 62.024651 
L 229.30743 70.031763 
L 229.30743 70.031763 
L 229.532104 64.925795 
L 229.532104 64.925795 
L 229.981453 82.519198 
L 229.981453 82.519198 
L 230.206128 81.355959 
L 230.206128 81.355959 
L 230.430802 89.606379 
L 230.430802 89.606379 
L 230.655477 86.719137 
L 230.655477 86.719137 
L 231.104825 99.453355 
L 231.104825 99.453355 
L 231.3295 96.675022 
L 231.3295 96.675022 
L 231.554174 99.613242 
L 231.554174 99.613242 
L 231.778849 92.411359 
L 231.778849 92.411359 
L 232.003523 95.616058 
L 232.003523 95.616058 
L 232.228198 96.677339 
L 232.228198 96.677339 
L 232.452872 88.912375 
L 232.452872 88.912375 
L 232.902221 94.755215 
L 232.902221 94.755215 
L 233.126895 91.980358 
L 233.126895 91.980358 
L 233.35157 98.298226 
L 233.35157 98.298226 
L 233.576244 95.582458 
L 233.576244 95.582458 
L 234.025593 111.958168 
L 234.025593 111.958168 
L 234.250267 112.418134 
L 234.250267 112.418134 
L 234.474942 120.41366 
L 234.474942 120.41366 
L 234.699616 118.178713 
L 234.699616 118.178713 
L 235.148965 133.333254 
L 235.148965 133.333254 
L 235.37364 132.78871 
L 235.37364 132.78871 
L 235.598314 139.4866 
L 235.598314 139.4866 
L 235.822988 137.352451 
L 235.822988 137.352451 
L 236.272337 153.312222 
L 236.272337 153.312222 
L 236.497012 155.097631 
L 236.497012 155.097631 
L 236.721686 163.49751 
L 236.721686 163.49751 
L 236.94636 164.970096 
L 236.94636 164.970096 
L 237.171035 175.068489 
L 237.171035 175.068489 
L 237.395709 176.713707 
L 237.395709 176.713707 
L 237.845058 196.440099 
L 237.845058 196.440099 
L 238.069733 200.695652 
L 238.069733 200.695652 
L 238.294407 209.366644 
L 238.294407 209.366644 
L 238.519081 213.545729 
L 238.519081 213.545729 
L 238.96843 228.531114 
L 238.96843 228.531114 
L 239.642454 243.734316 
L 239.642454 243.734316 
L 240.316477 260.362601 
L 240.316477 260.362601 
L 240.541151 263.561507 
L 240.541151 263.561507 
L 240.9905 274.403724 
L 240.9905 274.403724 
L 241.889198 286.979212 
L 241.889198 286.979212 
L 242.113872 288.390392 
L 242.113872 288.390392 
L 242.338547 290.83157 
L 242.338547 290.83157 
L 242.563221 291.734123 
L 242.563221 291.734123 
L 242.787896 293.706067 
L 242.787896 293.706067 
L 243.237244 294.943456 
L 243.237244 294.943456 
L 243.461919 294.172984 
L 243.461919 294.172984 
L 243.686593 292.477947 
L 243.686593 292.477947 
L 243.911268 295.488 
L 243.911268 295.488 
L 244.135942 291.274157 
L 244.135942 291.274157 
L 244.360617 289.543203 
L 244.360617 289.543203 
L 244.585291 289.478321 
L 244.585291 289.478321 
L 244.809965 288.259469 
L 244.809965 288.259469 
L 245.03464 288.505093 
L 245.03464 288.505093 
L 245.259314 287.805297 
L 245.259314 287.805297 
L 245.483989 287.983722 
L 245.483989 287.983722 
L 245.708663 288.462225 
L 245.708663 288.462225 
L 245.933338 287.250325 
L 245.933338 287.250325 
L 246.158012 287.228312 
L 246.158012 287.228312 
L 246.382686 285.996716 
L 246.382686 285.996716 
L 246.607361 295.488 
L 246.607361 295.488 
L 246.832035 285.568032 
L 246.832035 285.568032 
L 247.05671 284.135998 
L 247.05671 284.135998 
L 247.281384 283.856774 
L 247.281384 283.856774 
L 247.506059 283.911228 
L 247.506059 283.911228 
L 247.730733 282.619385 
L 247.730733 282.619385 
L 248.180082 282.465291 
L 248.180082 282.465291 
L 248.404756 280.817756 
L 248.404756 280.817756 
L 248.854105 279.023078 
L 248.854105 279.023078 
L 249.303454 274.726974 
L 249.303454 274.726974 
L 249.752803 270.866505 
L 249.752803 270.866505 
L 250.202152 264.780358 
L 250.202152 264.780358 
L 251.774873 248.28763 
L 251.774873 248.28763 
L 254.021617 233.338162 
L 254.021617 233.338162 
L 254.246291 232.893258 
L 254.246291 232.893258 
L 254.470966 232.807521 
L 254.470966 232.807521 
L 254.69564 232.97436 
L 254.69564 232.97436 
L 254.920315 231.888748 
L 254.920315 231.888748 
L 255.144989 232.023146 
L 255.144989 232.023146 
L 255.819012 233.039242 
L 255.819012 233.039242 
L 256.043687 231.657027 
L 256.043687 231.657027 
L 256.493036 231.224868 
L 256.493036 231.224868 
L 256.71771 231.180841 
L 256.71771 231.180841 
L 256.942384 231.302495 
L 256.942384 231.302495 
L 257.167059 229.915646 
L 257.167059 229.915646 
L 257.391733 230.07785 
L 257.391733 230.07785 
L 257.841082 231.061505 
L 257.841082 231.061505 
L 258.065757 231.806487 
L 258.065757 231.806487 
L 258.290431 230.854115 
L 258.290431 230.854115 
L 258.964454 232.261819 
L 258.964454 232.261819 
L 259.189129 231.341887 
L 259.189129 231.341887 
L 259.413803 231.070774 
L 259.413803 231.070774 
L 260.087826 229.609774 
L 260.087826 229.609774 
L 260.312501 228.005108 
L 260.76185 227.104872 
L 260.76185 227.104872 
L 260.986524 227.067797 
L 261.211198 227.216098 
L 261.211198 227.216098 
L 261.435873 226.352938 
L 261.660547 226.53368 
L 262.109896 227.525445 
L 262.109896 227.525445 
L 262.334571 228.232194 
L 262.334571 228.232194 
L 262.559245 227.750215 
L 262.559245 227.750215 
L 263.008594 228.314455 
L 263.008594 228.314455 
L 263.233268 228.450011 
L 263.233268 228.450011 
L 263.457943 228.422205 
L 263.457943 228.422205 
L 263.682617 227.108348 
L 263.682617 227.108348 
L 264.131966 226.541791 
L 264.131966 226.541791 
L 264.35664 226.600879 
L 264.35664 226.600879 
L 264.581315 227.026087 
L 264.581315 227.026087 
L 264.805989 226.463006 
L 264.805989 226.463006 
L 265.030664 226.96584 
L 265.030664 226.96584 
L 265.480013 228.812655 
L 265.480013 228.812655 
L 265.704687 230.125353 
L 265.704687 230.125353 
L 265.929361 230.284082 
L 265.929361 230.284082 
L 266.828059 234.880264 
L 266.828059 234.880264 
L 267.052734 234.375113 
L 267.052734 234.375113 
L 267.726757 235.279982 
L 267.726757 235.279982 
L 267.951431 235.757327 
L 267.951431 235.757327 
L 268.176106 234.937036 
L 268.625455 236.104908 
L 268.625455 236.104908 
L 269.074803 237.960992 
L 269.074803 237.960992 
L 269.299478 237.52304 
L 269.299478 237.52304 
L 270.198176 240.229539 
L 270.198176 240.229539 
L 270.42285 238.798663 
L 270.42285 238.798663 
L 271.321548 236.926359 
L 271.321548 236.926359 
L 271.546222 234.781783 
L 271.546222 234.781783 
L 271.995571 233.606958 
L 271.995571 233.606958 
L 272.44492 233.108758 
L 272.44492 233.108758 
L 272.669594 231.562022 
L 272.669594 231.562022 
L 272.894269 231.352315 
L 272.894269 231.352315 
L 273.343617 231.365059 
L 273.343617 231.365059 
L 273.568292 231.478602 
L 273.568292 231.478602 
L 273.792966 230.11956 
L 273.792966 230.11956 
L 274.242315 229.354881 
L 274.242315 229.354881 
L 274.691664 228.158043 
L 274.691664 228.158043 
L 275.141013 224.640521 
L 275.141013 224.640521 
L 275.590362 222.197025 
L 275.590362 222.197025 
L 275.815036 221.376734 
L 276.039711 219.589008 
L 276.039711 219.589008 
L 276.489059 218.411866 
L 276.489059 218.411866 
L 276.713734 218.291371 
L 276.713734 218.291371 
L 276.938408 218.517299 
L 276.938408 218.517299 
L 277.163083 218.037637 
L 277.387757 218.682979 
L 277.387757 218.682979 
L 277.837106 220.977015 
L 277.837106 220.977015 
L 278.735804 227.805828 
L 278.735804 227.805828 
L 280.08385 241.862012 
L 280.08385 241.862012 
L 280.757874 246.14653 
L 280.757874 246.14653 
L 281.207222 247.913401 
L 281.207222 247.913401 
L 281.431897 248.455627 
L 281.431897 248.455627 
L 281.656571 249.684906 
L 281.656571 249.684906 
L 281.881246 250.232926 
L 281.881246 250.232926 
L 282.10592 250.431047 
L 282.330595 250.238719 
L 282.330595 250.238719 
L 282.555269 249.582949 
L 282.555269 249.582949 
L 282.779943 251.108831 
L 282.779943 251.108831 
L 283.004618 251.361406 
L 283.004618 251.361406 
L 283.229292 251.916378 
L 283.229292 251.916378 
L 283.453967 252.939425 
L 283.453967 252.939425 
L 283.678641 254.582326 
L 283.678641 254.582326 
L 285.026688 293.71186 
L 285.026688 293.71186 
L 285.925385 251.107672 
L 285.925385 251.107672 
L 286.599409 215.855986 
L 286.599409 215.855986 
L 289.070827 120.236394 
L 289.070827 120.236394 
L 289.295502 118.576114 
L 289.295502 118.576114 
L 289.520176 119.435798 
L 290.194199 151.583585 
L 290.194199 151.583585 
L 290.418874 166.279319 
L 291.317572 275.782462 
L 291.317572 275.782462 
L 291.542246 284.801036 
L 291.542246 284.801036 
L 291.991595 230.03614 
L 291.991595 230.03614 
L 292.440944 201.495088 
L 292.440944 201.495088 
L 292.890293 189.203458 
L 292.890293 189.203458 
L 293.114967 186.682336 
L 293.339641 185.526049 
L 293.339641 185.526049 
L 293.564316 180.737538 
L 293.564316 180.737538 
L 294.013665 176.225934 
L 294.013665 176.225934 
L 294.463014 166.658182 
L 294.463014 166.658182 
L 294.912362 160.137558 
L 294.912362 160.137558 
L 295.137037 154.239105 
L 295.137037 154.239105 
L 295.81106 146.923679 
L 295.81106 146.923679 
L 296.035735 146.74873 
L 296.035735 146.74873 
L 296.260409 147.668662 
L 296.260409 147.668662 
L 296.485083 150.163136 
L 296.485083 150.163136 
L 296.934432 159.36477 
L 296.934432 159.36477 
L 297.83313 180.979687 
L 297.83313 180.979687 
L 298.507153 191.418709 
L 298.507153 191.418709 
L 299.181176 201.055977 
L 299.181176 201.055977 
L 300.079874 222.909567 
L 300.079874 222.909567 
L 300.529223 238.840373 
L 300.529223 238.840373 
L 301.652595 285.112701 
L 301.652595 285.112701 
L 301.87727 295.488 
L 301.87727 295.488 
L 302.326618 280.189792 
L 302.326618 280.189792 
L 302.775967 262.262712 
L 302.775967 262.262712 
L 303.674665 237.868304 
L 303.674665 237.868304 
L 304.124014 230.910886 
L 304.124014 230.910886 
L 304.348688 229.648008 
L 304.348688 229.648008 
L 304.573363 229.87046 
L 304.798037 229.718683 
L 304.798037 229.718683 
L 305.022712 231.514519 
L 305.022712 231.514519 
L 306.146084 246.571737 
L 306.146084 246.571737 
L 308.392828 288.113485 
L 308.392828 288.113485 
L 308.617502 290.346115 
L 308.617502 290.346115 
L 308.842177 294.853085 
L 308.842177 294.853085 
L 309.066851 293.312142 
L 309.066851 293.312142 
L 309.291526 295.488 
L 309.291526 295.488 
L 309.5162 283.439677 
L 309.5162 283.439677 
L 309.740874 281.076124 
L 309.740874 281.076124 
L 310.414898 266.213552 
L 310.414898 266.213552 
L 310.864247 255.524271 
L 310.864247 255.524271 
L 311.088921 247.561185 
L 311.088921 247.561185 
L 311.313595 244.553449 
L 311.313595 244.553449 
L 311.53827 236.976179 
L 311.53827 236.976179 
L 311.762944 234.029849 
L 311.762944 234.029849 
L 311.987619 227.335434 
L 311.987619 227.335434 
L 312.212293 225.125976 
L 312.212293 225.125976 
L 312.661642 212.207541 
L 312.661642 212.207541 
L 312.886316 214.89782 
L 312.886316 214.89782 
L 313.110991 210.386216 
L 313.110991 210.386216 
L 313.335665 215.41224 
L 313.335665 215.41224 
L 313.56034 214.816718 
L 313.56034 214.816718 
L 313.785014 221.857554 
L 314.009689 224.288306 
L 314.009689 224.288306 
L 314.459037 237.138383 
L 314.459037 237.138383 
L 314.683712 239.717436 
L 314.683712 239.717436 
L 314.908386 250.770518 
L 314.908386 250.770518 
L 315.133061 254.126994 
L 315.133061 254.126994 
L 315.357735 264.220753 
L 315.357735 264.220753 
L 315.58241 267.347825 
L 315.58241 267.347825 
L 315.807084 275.507873 
L 315.807084 275.507873 
L 316.031758 278.005824 
L 316.031758 278.005824 
L 316.256433 283.987696 
L 316.256433 283.987696 
L 316.481107 285.557605 
L 316.481107 285.557605 
L 316.705782 284.660845 
L 316.705782 284.660845 
L 316.930456 291.098049 
L 316.930456 291.098049 
L 317.155131 290.288185 
L 317.155131 290.288185 
L 317.379805 295.382567 
L 317.379805 295.382567 
L 317.604479 294.878574 
L 317.604479 294.878574 
L 317.829154 291.852301 
L 317.829154 291.852301 
L 318.053828 292.236957 
L 318.053828 292.236957 
L 318.278503 288.84804 
L 318.503177 288.87353 
L 318.503177 288.87353 
L 318.727852 286.329235 
L 318.727852 286.329235 
L 318.952526 286.110259 
L 318.952526 286.110259 
L 319.1772 287.008177 
L 319.1772 287.008177 
L 319.401875 283.326133 
L 319.401875 283.326133 
L 319.626549 283.499924 
L 319.626549 283.499924 
L 319.851224 280.334618 
L 319.851224 280.334618 
L 320.075898 279.835259 
L 320.300573 277.131078 
L 320.300573 277.131078 
L 320.525247 276.065162 
L 320.525247 276.065162 
L 320.749921 275.584341 
L 320.749921 275.584341 
L 320.974596 272.43989 
L 320.974596 272.43989 
L 321.19927 271.668259 
L 321.19927 271.668259 
L 321.423945 269.390444 
L 321.423945 269.390444 
L 321.873293 267.910907 
L 321.873293 267.910907 
L 322.097968 265.724621 
L 322.097968 265.724621 
L 322.322642 264.910122 
L 322.322642 264.910122 
L 322.771991 262.319483 
L 322.771991 262.319483 
L 322.996666 261.532791 
L 323.446014 259.206314 
L 323.446014 259.206314 
L 323.670689 258.47987 
L 323.670689 258.47987 
L 324.120038 256.438409 
L 324.120038 256.438409 
L 324.344712 255.811605 
L 324.344712 255.811605 
L 324.794061 253.926556 
L 324.794061 253.926556 
L 325.018735 253.291641 
L 325.018735 253.291641 
L 325.468084 251.247863 
L 325.468084 251.247863 
L 326.816131 246.572896 
L 326.816131 246.572896 
L 327.040805 246.29599 
L 327.040805 246.29599 
L 327.26548 246.245011 
L 327.26548 246.245011 
L 327.490154 246.423436 
L 327.490154 246.423436 
L 327.714829 246.825472 
L 327.714829 246.825472 
L 327.939503 246.728149 
L 327.939503 246.728149 
L 328.613526 248.227382 
L 328.613526 248.227382 
L 328.838201 247.810285 
L 328.838201 247.810285 
L 329.062875 247.78132 
L 329.062875 247.78132 
L 329.28755 247.549599 
L 329.28755 247.549599 
L 329.512224 247.052558 
L 329.512224 247.052558 
L 329.736898 246.22068 
L 330.186247 242.944148 
L 330.186247 242.944148 
L 331.309619 236.969227 
L 331.309619 236.969227 
L 331.758968 235.620612 
L 331.758968 235.620612 
L 332.208317 236.699272 
L 332.208317 236.699272 
L 332.657666 238.981722 
L 332.657666 238.981722 
L 332.88234 240.727739 
L 332.88234 240.727739 
L 334.005712 263.624072 
L 334.005712 263.624072 
L 334.679736 295.488 
L 334.679736 295.488 
L 334.90441 290.064574 
L 334.90441 290.064574 
L 336.252457 226.187258 
L 336.252457 226.187258 
L 336.701806 215.693781 
L 336.701806 215.693781 
L 337.151154 212.22492 
L 337.151154 212.22492 
L 337.375829 211.783492 
L 337.375829 211.783492 
L 337.825178 215.806166 
L 337.825178 215.806166 
L 338.049852 216.588223 
L 338.049852 216.588223 
L 338.274527 220.686206 
L 338.274527 220.686206 
L 338.499201 221.594551 
L 338.499201 221.594551 
L 338.723875 224.458621 
L 338.723875 224.458621 
L 338.94855 224.879194 
L 338.94855 224.879194 
L 339.173224 223.378802 
L 339.173224 223.378802 
L 339.397899 225.45502 
L 339.397899 225.45502 
L 339.622573 223.909442 
L 339.622573 223.909442 
L 339.847248 220.817128 
L 339.847248 220.817128 
L 340.071922 224.37636 
L 340.071922 224.37636 
L 340.296596 222.983718 
L 340.296596 222.983718 
L 340.521271 226.814063 
L 340.521271 226.814063 
L 340.97062 230.062788 
L 340.97062 230.062788 
L 341.419969 243.497961 
L 341.419969 243.497961 
L 341.644643 247.612164 
L 341.644643 247.612164 
L 342.093992 264.365578 
L 342.093992 264.365578 
L 342.543341 279.824832 
L 342.543341 279.824832 
L 342.768015 283.840554 
L 342.768015 283.840554 
L 342.99269 292.605393 
L 342.99269 292.605393 
L 343.217364 294.928394 
L 343.217364 294.928394 
L 343.442038 288.804013 
L 343.442038 288.804013 
L 343.666713 295.488 
L 343.891387 285.384973 
L 343.891387 285.384973 
L 344.116062 280.448161 
L 344.116062 280.448161 
L 344.340736 279.976609 
L 344.565411 276.970032 
L 344.565411 276.970032 
L 344.790085 276.551776 
L 344.790085 276.551776 
L 345.014759 277.640863 
L 345.014759 277.640863 
L 345.239434 274.441958 
L 345.464108 274.810394 
L 345.464108 274.810394 
L 345.688783 272.695941 
L 345.688783 272.695941 
L 345.913457 272.625266 
L 346.138131 273.687706 
L 346.138131 273.687706 
L 346.362806 271.026393 
L 346.362806 271.026393 
L 346.58748 271.243052 
L 346.58748 271.243052 
L 346.812155 272.507089 
L 346.812155 272.507089 
L 347.036829 269.128599 
L 347.036829 269.128599 
L 347.261504 269.596675 
L 347.261504 269.596675 
L 347.486178 267.148545 
L 347.486178 267.148545 
L 347.710852 266.894811 
L 347.710852 266.894811 
L 347.935527 267.413865 
L 347.935527 267.413865 
L 348.160201 264.12343 
L 348.384876 263.843048 
L 348.384876 263.843048 
L 348.60955 264.327344 
L 348.60955 264.327344 
L 348.834225 260.685852 
L 348.834225 260.685852 
L 349.058899 260.96971 
L 349.058899 260.96971 
L 349.283573 258.756776 
L 349.283573 258.756776 
L 349.508248 259.473952 
L 349.508248 259.473952 
L 349.732922 259.082344 
L 349.957597 260.506268 
L 349.957597 260.506268 
L 350.182271 263.247525 
L 350.182271 263.247525 
L 350.406946 263.700539 
L 350.406946 263.700539 
L 350.63162 266.90408 
L 350.63162 266.90408 
L 350.856294 268.469354 
L 350.856294 268.469354 
L 351.530318 278.059119 
L 351.530318 278.059119 
L 351.754992 280.018319 
L 351.754992 280.018319 
L 351.979667 282.999407 
L 351.979667 282.999407 
L 352.204341 284.027089 
L 352.204341 284.027089 
L 352.429015 285.69432 
L 352.429015 285.69432 
L 352.65369 285.03855 
L 352.65369 285.03855 
L 352.878364 285.162521 
L 352.878364 285.162521 
L 353.327713 281.34492 
L 353.327713 281.34492 
L 354.001736 266.018906 
L 354.001736 266.018906 
L 354.67576 240.976838 
L 354.67576 240.976838 
L 354.900434 223.575764 
L 354.900434 223.575764 
L 355.349783 206.700696 
L 355.349783 206.700696 
L 355.574457 185.872471 
L 355.574457 185.872471 
L 355.799132 179.993715 
L 355.799132 179.993715 
L 356.023806 156.876088 
L 356.023806 156.876088 
L 356.248481 155.352524 
L 356.248481 155.352524 
L 356.473155 149.897816 
L 356.473155 149.897816 
L 356.69783 133.304289 
L 356.69783 133.304289 
L 356.922504 130.826035 
L 356.922504 130.826035 
L 357.147178 113.609179 
L 357.147178 113.609179 
L 357.371853 114.298548 
L 357.371853 114.298548 
L 357.596527 111.629124 
L 357.596527 111.629124 
L 357.821202 99.517078 
L 357.821202 99.517078 
L 358.045876 99.535615 
L 358.27055 85.906956 
L 358.27055 85.906956 
L 358.495225 88.903106 
L 358.495225 88.903106 
L 358.719899 88.528877 
L 358.719899 88.528877 
L 358.944574 78.042352 
L 358.944574 78.042352 
L 359.169248 79.418773 
L 359.169248 79.418773 
L 359.393923 66.082082 
L 359.393923 66.082082 
L 359.843271 73.982603 
L 359.843271 73.982603 
L 360.067946 66.879202 
L 360.517295 77.42945 
L 360.517295 77.42945 
L 360.741969 75.112242 
L 360.741969 75.112242 
L 360.966644 83.412482 
L 360.966644 83.412482 
L 361.191318 80.299312 
L 361.191318 80.299312 
L 361.640667 99.769653 
L 361.640667 99.769653 
L 361.865341 98.652759 
L 361.865341 98.652759 
L 362.090016 105.98904 
L 362.090016 105.98904 
L 362.31469 98.606415 
L 362.31469 98.606415 
L 362.539365 104.86056 
L 362.539365 104.86056 
L 362.764039 105.475778 
L 362.764039 105.475778 
L 362.988713 95.193167 
L 363.213388 95.201278 
L 363.213388 95.201278 
L 363.438062 79.933194 
L 363.438062 79.933194 
L 363.662737 81.576094 
L 363.662737 81.576094 
L 363.887411 79.838188 
L 363.887411 79.838188 
L 364.112086 68.451428 
L 364.112086 68.451428 
L 364.33676 69.886938 
L 364.33676 69.886938 
L 364.561434 57.362428 
L 364.561434 57.362428 
L 365.010783 70.263484 
L 365.010783 70.263484 
L 365.235458 68.394656 
L 365.235458 68.394656 
L 365.460132 81.067467 
L 365.460132 81.067467 
L 365.684807 79.918132 
L 365.684807 79.918132 
L 366.134155 111.899079 
L 366.134155 111.899079 
L 366.35883 116.363181 
L 366.35883 116.363181 
L 366.583504 132.130623 
L 366.583504 132.130623 
L 366.808179 135.271599 
L 366.808179 135.271599 
L 367.257528 161.596241 
L 367.257528 161.596241 
L 367.482202 166.187789 
L 367.482202 166.187789 
L 367.706876 176.072998 
L 367.706876 176.072998 
L 367.931551 180.853399 
L 367.931551 180.853399 
L 368.605574 202.892365 
L 368.605574 202.892365 
L 370.627644 267.523933 
L 370.627644 267.523933 
L 371.076993 276.404633 
L 371.076993 276.404633 
L 371.526342 281.647316 
L 371.526342 281.647316 
L 371.751016 282.798969 
L 371.751016 282.798969 
L 371.97569 283.294851 
L 371.97569 283.294851 
L 372.200365 282.869643 
L 372.200365 282.869643 
L 372.649714 280.424989 
L 372.649714 280.424989 
L 372.874388 278.020885 
L 372.874388 278.020885 
L 373.099063 276.987411 
L 373.099063 276.987411 
L 373.323737 273.949551 
L 373.323737 273.949551 
L 373.548411 273.579956 
L 373.548411 273.579956 
L 373.773086 270.966145 
L 373.773086 270.966145 
L 373.99776 272.044806 
L 373.99776 272.044806 
L 374.222435 269.422885 
L 374.222435 269.422885 
L 374.447109 270.667226 
L 374.447109 270.667226 
L 374.671784 267.489175 
L 374.671784 267.489175 
L 374.896458 268.309466 
L 374.896458 268.309466 
L 375.121132 263.831462 
L 375.121132 263.831462 
L 375.345807 263.381923 
L 375.345807 263.381923 
L 375.570481 257.182233 
L 375.570481 257.182233 
L 375.795156 255.150042 
L 375.795156 255.150042 
L 376.01983 247.619115 
L 376.01983 247.619115 
L 376.244505 244.401672 
L 376.244505 244.401672 
L 376.469179 236.036551 
L 376.469179 236.036551 
L 376.693853 232.15291 
L 376.693853 232.15291 
L 376.918528 224.155066 
L 376.918528 224.155066 
L 377.143202 221.176295 
L 377.143202 221.176295 
L 377.367877 215.104051 
L 377.367877 215.104051 
L 377.592551 214.003378 
L 377.592551 214.003378 
L 378.0419 206.609167 
L 378.0419 206.609167 
L 378.266574 213.371938 
L 378.491249 213.311691 
L 378.491249 213.311691 
L 378.715923 224.124943 
L 378.715923 224.124943 
L 378.940598 228.819606 
L 378.940598 228.819606 
L 379.614621 270.237383 
L 379.614621 270.237383 
L 380.06397 293.808024 
L 380.06397 293.808024 
L 380.288644 286.536625 
L 380.288644 286.536625 
L 380.513319 271.424953 
L 380.513319 271.424953 
L 380.737993 266.680469 
L 380.737993 266.680469 
L 380.962668 254.843012 
L 380.962668 254.843012 
L 381.187342 252.13072 
L 381.187342 252.13072 
L 381.412016 244.023967 
L 381.412016 244.023967 
L 381.636691 243.375149 
L 381.636691 243.375149 
L 381.861365 238.996784 
L 381.861365 238.996784 
L 382.08604 239.559866 
L 382.08604 239.559866 
L 382.310714 237.031792 
L 382.535388 237.220644 
L 382.535388 237.220644 
L 383.434086 228.469708 
L 383.434086 228.469708 
L 383.883435 222.619916 
L 383.883435 222.619916 
L 384.108109 219.444182 
L 384.108109 219.444182 
L 384.332784 219.754688 
L 384.332784 219.754688 
L 384.557458 219.667793 
L 384.557458 219.667793 
L 384.782133 220.67462 
L 384.782133 220.67462 
L 385.68083 243.509547 
L 385.68083 243.509547 
L 386.354854 268.235316 
L 386.354854 268.235316 
L 387.028877 295.426594 
L 387.028877 295.426594 
L 387.927575 264.00757 
L 387.927575 264.00757 
L 388.601598 249.629293 
L 388.601598 249.629293 
L 389.050947 245.713212 
L 389.050947 245.713212 
L 389.275621 244.848893 
L 389.275621 244.848893 
L 389.500296 244.95085 
L 389.500296 244.95085 
L 390.174319 254.4375 
L 390.174319 254.4375 
L 390.398993 258.893491 
L 390.398993 258.893491 
L 391.522366 293.005112 
L 391.522366 293.005112 
L 391.74704 289.55363 
L 391.74704 289.55363 
L 392.870412 255.6494 
L 392.870412 255.6494 
L 393.544435 241.18307 
L 393.544435 241.18307 
L 394.218459 232.157544 
L 394.218459 232.157544 
L 394.667807 228.951687 
L 394.667807 228.951687 
L 394.892482 229.032789 
L 394.892482 229.032789 
L 395.117156 229.280731 
L 395.117156 229.280731 
L 395.341831 230.147366 
L 395.341831 230.147366 
L 395.566505 231.816915 
L 395.566505 231.816915 
L 395.79118 234.496766 
L 395.79118 234.496766 
L 396.465203 252.13072 
L 396.465203 252.13072 
L 396.914552 268.993043 
L 396.914552 268.993043 
L 397.363901 293.260004 
L 397.363901 293.260004 
L 397.813249 271.237259 
L 397.813249 271.237259 
L 398.487273 192.212353 
L 398.487273 192.212353 
" clip-path="url(#p404137f6cf)" style="fill: none; stroke: #1f77b4; stroke-width: 1.5; stroke-linecap: square"/>
   </g>
   <g id="patch_3">
    <path d="M 57.6 307.584 
L 57.6 41.472 
" style="fill: none; stroke: #000000; stroke-width: 0.8; stroke-linejoin: miter; stroke-linecap: square"/>
   </g>
   <g id="patch_4">
    <path d="M 414.72 307.584 
L 414.72 41.472 
" style="fill: none; stroke: #000000; stroke-width: 0.8; stroke-linejoin: miter; stroke-linecap: square"/>
   </g>
   <g id="patch_5">
    <path d="M 57.6 307.584 
L 414.72 307.584 
" style="fill: none; stroke: #000000; stroke-width: 0.8; stroke-linejoin: miter; stroke-linecap: square"/>
   </g>
   <g id="patch_6">
    <path d="M 57.6 41.472 
L 414.72 41.472 
" style="fill: none; stroke: #000000; stroke-width: 0.8; stroke-linejoin: miter; stroke-linecap: square"/>
   </g>
   <g id="text_15">
    <!-- Tracking error vs Time -->
    <g transform="translate(169.584375 35.472) scale(0.12 -0.12)">
     <defs>
      <path id="DejaVuSans-76" d="M 191 3500 
L 800 3500 
L 1894 563 
L 2988 3500 
L 3597 3500 
L 2284 0 
L 1503 0 
L 191 3500 
z
" transform="scale(0.015625)"/>
     </defs>
     <use xlink:href="#DejaVuSans-54"/>
     <use xlink:href="#DejaVuSans-72" x="46.333984"/>
     <use xlink:href="#DejaVuSans-61" x="87.447266"/>
     <use xlink:href="#DejaVuSans-63" x="148.726562"/>
     <use xlink:href="#DejaVuSans-6b" x="203.707031"/>
     <use xlink:href="#DejaVuSans-69" x="261.617188"/>
     <use xlink:href="#DejaVuSans-6e" x="289.400391"/>
     <use xlink:href="#DejaVuSans-67" x="352.779297"/>
     <use xlink:href="#DejaVuSans-20" x="416.255859"/>
     <use xlink:href="#DejaVuSans-65" x="448.042969"/>
     <use xlink:href="#DejaVuSans-72" x="509.566406"/>
     <use xlink:href="#DejaVuSans-72" x="548.929688"/>
     <use xlink:href="#DejaVuSans-6f" x="587.792969"/>
     <use xlink:href="#DejaVuSans-72" x="648.974609"/>
     <use xlink:href="#DejaVuSans-20" x="690.087891"/>
     <use xlink:href="#DejaVuSans-76" x="721.875"/>
     <use xlink:href="#DejaVuSans-73" x="781.054688"/>
     <use xlink:href="#DejaVuSans-20" x="833.154297"/>
     <use xlink:href="#DejaVuSans-54" x="864.941406"/>
     <use xlink:href="#DejaVuSans-69" x="922.900391"/>
     <use xlink:href="#DejaVuSans-6d" x="950.683594"/>
     <use xlink:href="#DejaVuSans-65" x="1048.095703"/>
    </g>
   </g>
   <g id="legend_1">
    <g id="patch_7">
     <path d="M 64.6 64.150125 
L 161.31875 64.150125 
Q 163.31875 64.150125 163.31875 62.150125 
L 163.31875 48.472 
Q 163.31875 46.472 161.31875 46.472 
L 64.6 46.472 
Q 62.6 46.472 62.6 48.472 
L 62.6 62.150125 
Q 62.6 64.150125 64.6 64.150125 
z
" style="fill: #ffffff; opacity: 0.8; stroke: #cccccc; stroke-linejoin: miter"/>
    </g>
    <g id="line2d_26">
     <path d="M 66.6 54.570438 
L 76.6 54.570438 
L 86.6 54.570438 
" style="fill: none; stroke: #1f77b4; stroke-width: 1.5; stroke-linecap: square"/>
    </g>
    <g id="text_16">
     <!-- Actual speed -->
     <g transform="translate(94.6 58.070438) scale(0.1 -0.1)">
      <defs>
       <path id="DejaVuSans-41" d="M 2188 4044 
L 1331 1722 
L 3047 1722 
L 2188 4044 
z
M 1831 4666 
L 2547 4666 
L 4325 0 
L 3669 0 
L 3244 1197 
L 1141 1197 
L 716 0 
L 50 0 
L 1831 4666 
z
" transform="scale(0.015625)"/>
       <path id="DejaVuSans-74" d="M 1172 4494 
L 1172 3500 
L 2356 3500 
L 2356 3053 
L 1172 3053 
L 1172 1153 
Q 1172 725 1289 603 
Q 1406 481 1766 481 
L 2356 481 
L 2356 0 
L 1766 0 
Q 1100 0 847 248 
Q 594 497 594 1153 
L 594 3053 
L 172 3053 
L 172 3500 
L 594 3500 
L 594 4494 
L 1172 4494 
z
" transform="scale(0.015625)"/>
       <path id="DejaVuSans-75" d="M 544 1381 
L 544 3500 
L 1119 3500 
L 1119 1403 
Q 1119 906 1312 657 
Q 1506 409 1894 409 
Q 2359 409 2629 706 
Q 2900 1003 2900 1516 
L 2900 3500 
L 3475 3500 
L 3475 0 
L 2900 0 
L 2900 538 
Q 2691 219 2414 64 
Q 2138 -91 1772 -91 
Q 1169 -91 856 284 
Q 544 659 544 1381 
z
M 1991 3584 
L 1991 3584 
z
" transform="scale(0.015625)"/>
       <path id="DejaVuSans-6c" d="M 603 4863 
L 1178 4863 
L 1178 0 
L 603 0 
L 603 4863 
z
" transform="scale(0.015625)"/>
       <path id="DejaVuSans-70" d="M 1159 525 
L 1159 -1331 
L 581 -1331 
L 581 3500 
L 1159 3500 
L 1159 2969 
Q 1341 3281 1617 3432 
Q 1894 3584 2278 3584 
Q 2916 3584 3314 3078 
Q 3713 2572 3713 1747 
Q 3713 922 3314 415 
Q 2916 -91 2278 -91 
Q 1894 -91 1617 61 
Q 1341 213 1159 525 
z
M 3116 1747 
Q 3116 2381 2855 2742 
Q 2594 3103 2138 3103 
Q 1681 3103 1420 2742 
Q 1159 2381 1159 1747 
Q 1159 1113 1420 752 
Q 1681 391 2138 391 
Q 2594 391 2855 752 
Q 3116 1113 3116 1747 
z
" transform="scale(0.015625)"/>
       <path id="DejaVuSans-64" d="M 2906 2969 
L 2906 4863 
L 3481 4863 
L 3481 0 
L 2906 0 
L 2906 525 
Q 2725 213 2448 61 
Q 2172 -91 1784 -91 
Q 1150 -91 751 415 
Q 353 922 353 1747 
Q 353 2572 751 3078 
Q 1150 3584 1784 3584 
Q 2172 3584 2448 3432 
Q 2725 3281 2906 2969 
z
M 947 1747 
Q 947 1113 1208 752 
Q 1469 391 1925 391 
Q 2381 391 2643 752 
Q 2906 1113 2906 1747 
Q 2906 2381 2643 2742 
Q 2381 3103 1925 3103 
Q 1469 3103 1208 2742 
Q 947 2381 947 1747 
z
" transform="scale(0.015625)"/>
      </defs>
      <use xlink:href="#DejaVuSans-41"/>
      <use xlink:href="#DejaVuSans-63" x="66.658203"/>
      <use xlink:href="#DejaVuSans-74" x="121.638672"/>
      <use xlink:href="#DejaVuSans-75" x="160.847656"/>
      <use xlink:href="#DejaVuSans-61" x="224.226562"/>
      <use xlink:href="#DejaVuSans-6c" x="285.505859"/>
      <use xlink:href="#DejaVuSans-20" x="313.289062"/>
      <use xlink:href="#DejaVuSans-73" x="345.076172"/>
      <use xlink:href="#DejaVuSans-70" x="397.175781"/>
      <use xlink:href="#DejaVuSans-65" x="460.652344"/>
      <use xlink:href="#DejaVuSans-65" x="522.175781"/>
      <use xlink:href="#DejaVuSans-64" x="583.699219"/>
     </g>
    </g>
   </g>
  </g>
 </g>
 <defs>
  <clipPath id="p404137f6cf">
   <rect x="57.6" y="41.472" width="357.12" height="266.112"/>
  </clipPath>
 </defs>
</svg>
