<?xml version="1.0" encoding="utf-8" standalone="no"?>
<!DOCTYPE svg PUBLIC "-//W3C//DTD SVG 1.1//EN"
  "http://www.w3.org/Graphics/SVG/1.1/DTD/svg11.dtd">
<svg xmlns:xlink="http://www.w3.org/1999/xlink" width="460.8pt" height="345.6pt" viewBox="0 0 460.8 345.6" xmlns="http://www.w3.org/2000/svg" version="1.1">
 <metadata>
  <rdf:RDF xmlns:dc="http://purl.org/dc/elements/1.1/" xmlns:cc="http://creativecommons.org/ns#" xmlns:rdf="http://www.w3.org/1999/02/22-rdf-syntax-ns#">
   <cc:Work>
    <dc:type rdf:resource="http://purl.org/dc/dcmitype/StillImage"/>
    <dc:date>2024-01-30T20:59:31.048514</dc:date>
    <dc:format>image/svg+xml</dc:format>
    <dc:creator>
     <cc:Agent>
      <dc:title>Matplotlib v3.7.1, https://matplotlib.org/</dc:title>
     </cc:Agent>
    </dc:creator>
   </cc:Work>
  </rdf:RDF>
 </metadata>
 <defs>
  <style type="text/css">*{stroke-linejoin: round; stroke-linecap: butt}</style>
 </defs>
 <g id="figure_1">
  <g id="patch_1">
   <path d="M 0 345.6 
L 460.8 345.6 
L 460.8 0 
L 0 0 
z
" style="fill: #ffffff"/>
  </g>
  <g id="axes_1">
   <g id="patch_2">
    <path d="M 57.6 307.584 
L 414.72 307.584 
L 414.72 41.472 
L 57.6 41.472 
z
" style="fill: #ffffff"/>
   </g>
   <g id="matplotlib.axis_1">
    <g id="xtick_1">
     <g id="line2d_1">
      <path d="M 73.832727 307.584 
L 73.832727 41.472 
" clip-path="url(#p4304a65a25)" style="fill: none; stroke: #b0b0b0; stroke-width: 0.8; stroke-linecap: square"/>
     </g>
     <g id="line2d_2">
      <defs>
       <path id="m60225f8d87" d="M 0 0 
L 0 3.5 
" style="stroke: #000000; stroke-width: 0.8"/>
      </defs>
      <g>
       <use xlink:href="#m60225f8d87" x="73.832727" y="307.584" style="stroke: #000000; stroke-width: 0.8"/>
      </g>
     </g>
     <g id="text_1">
      <!-- 0 -->
      <g transform="translate(70.651477 322.182437) scale(0.1 -0.1)">
       <defs>
        <path id="DejaVuSans-30" d="M 2034 4250 
Q 1547 4250 1301 3770 
Q 1056 3291 1056 2328 
Q 1056 1369 1301 889 
Q 1547 409 2034 409 
Q 2525 409 2770 889 
Q 3016 1369 3016 2328 
Q 3016 3291 2770 3770 
Q 2525 4250 2034 4250 
z
M 2034 4750 
Q 2819 4750 3233 4129 
Q 3647 3509 3647 2328 
Q 3647 1150 3233 529 
Q 2819 -91 2034 -91 
Q 1250 -91 836 529 
Q 422 1150 422 2328 
Q 422 3509 836 4129 
Q 1250 4750 2034 4750 
z
" transform="scale(0.015625)"/>
       </defs>
       <use xlink:href="#DejaVuSans-30"/>
      </g>
     </g>
    </g>
    <g id="xtick_2">
     <g id="line2d_3">
      <path d="M 131.972868 307.584 
L 131.972868 41.472 
" clip-path="url(#p4304a65a25)" style="fill: none; stroke: #b0b0b0; stroke-width: 0.8; stroke-linecap: square"/>
     </g>
     <g id="line2d_4">
      <g>
       <use xlink:href="#m60225f8d87" x="131.972868" y="307.584" style="stroke: #000000; stroke-width: 0.8"/>
      </g>
     </g>
     <g id="text_2">
      <!-- 5 -->
      <g transform="translate(128.791618 322.182437) scale(0.1 -0.1)">
       <defs>
        <path id="DejaVuSans-35" d="M 691 4666 
L 3169 4666 
L 3169 4134 
L 1269 4134 
L 1269 2991 
Q 1406 3038 1543 3061 
Q 1681 3084 1819 3084 
Q 2600 3084 3056 2656 
Q 3513 2228 3513 1497 
Q 3513 744 3044 326 
Q 2575 -91 1722 -91 
Q 1428 -91 1123 -41 
Q 819 9 494 109 
L 494 744 
Q 775 591 1075 516 
Q 1375 441 1709 441 
Q 2250 441 2565 725 
Q 2881 1009 2881 1497 
Q 2881 1984 2565 2268 
Q 2250 2553 1709 2553 
Q 1456 2553 1204 2497 
Q 953 2441 691 2322 
L 691 4666 
z
" transform="scale(0.015625)"/>
       </defs>
       <use xlink:href="#DejaVuSans-35"/>
      </g>
     </g>
    </g>
    <g id="xtick_3">
     <g id="line2d_5">
      <path d="M 190.113009 307.584 
L 190.113009 41.472 
" clip-path="url(#p4304a65a25)" style="fill: none; stroke: #b0b0b0; stroke-width: 0.8; stroke-linecap: square"/>
     </g>
     <g id="line2d_6">
      <g>
       <use xlink:href="#m60225f8d87" x="190.113009" y="307.584" style="stroke: #000000; stroke-width: 0.8"/>
      </g>
     </g>
     <g id="text_3">
      <!-- 10 -->
      <g transform="translate(183.750509 322.182437) scale(0.1 -0.1)">
       <defs>
        <path id="DejaVuSans-31" d="M 794 531 
L 1825 531 
L 1825 4091 
L 703 3866 
L 703 4441 
L 1819 4666 
L 2450 4666 
L 2450 531 
L 3481 531 
L 3481 0 
L 794 0 
L 794 531 
z
" transform="scale(0.015625)"/>
       </defs>
       <use xlink:href="#DejaVuSans-31"/>
       <use xlink:href="#DejaVuSans-30" x="63.623047"/>
      </g>
     </g>
    </g>
    <g id="xtick_4">
     <g id="line2d_7">
      <path d="M 248.253149 307.584 
L 248.253149 41.472 
" clip-path="url(#p4304a65a25)" style="fill: none; stroke: #b0b0b0; stroke-width: 0.8; stroke-linecap: square"/>
     </g>
     <g id="line2d_8">
      <g>
       <use xlink:href="#m60225f8d87" x="248.253149" y="307.584" style="stroke: #000000; stroke-width: 0.8"/>
      </g>
     </g>
     <g id="text_4">
      <!-- 15 -->
      <g transform="translate(241.890649 322.182437) scale(0.1 -0.1)">
       <use xlink:href="#DejaVuSans-31"/>
       <use xlink:href="#DejaVuSans-35" x="63.623047"/>
      </g>
     </g>
    </g>
    <g id="xtick_5">
     <g id="line2d_9">
      <path d="M 306.39329 307.584 
L 306.39329 41.472 
" clip-path="url(#p4304a65a25)" style="fill: none; stroke: #b0b0b0; stroke-width: 0.8; stroke-linecap: square"/>
     </g>
     <g id="line2d_10">
      <g>
       <use xlink:href="#m60225f8d87" x="306.39329" y="307.584" style="stroke: #000000; stroke-width: 0.8"/>
      </g>
     </g>
     <g id="text_5">
      <!-- 20 -->
      <g transform="translate(300.03079 322.182437) scale(0.1 -0.1)">
       <defs>
        <path id="DejaVuSans-32" d="M 1228 531 
L 3431 531 
L 3431 0 
L 469 0 
L 469 531 
Q 828 903 1448 1529 
Q 2069 2156 2228 2338 
Q 2531 2678 2651 2914 
Q 2772 3150 2772 3378 
Q 2772 3750 2511 3984 
Q 2250 4219 1831 4219 
Q 1534 4219 1204 4116 
Q 875 4013 500 3803 
L 500 4441 
Q 881 4594 1212 4672 
Q 1544 4750 1819 4750 
Q 2544 4750 2975 4387 
Q 3406 4025 3406 3419 
Q 3406 3131 3298 2873 
Q 3191 2616 2906 2266 
Q 2828 2175 2409 1742 
Q 1991 1309 1228 531 
z
" transform="scale(0.015625)"/>
       </defs>
       <use xlink:href="#DejaVuSans-32"/>
       <use xlink:href="#DejaVuSans-30" x="63.623047"/>
      </g>
     </g>
    </g>
    <g id="xtick_6">
     <g id="line2d_11">
      <path d="M 364.533431 307.584 
L 364.533431 41.472 
" clip-path="url(#p4304a65a25)" style="fill: none; stroke: #b0b0b0; stroke-width: 0.8; stroke-linecap: square"/>
     </g>
     <g id="line2d_12">
      <g>
       <use xlink:href="#m60225f8d87" x="364.533431" y="307.584" style="stroke: #000000; stroke-width: 0.8"/>
      </g>
     </g>
     <g id="text_6">
      <!-- 25 -->
      <g transform="translate(358.170931 322.182437) scale(0.1 -0.1)">
       <use xlink:href="#DejaVuSans-32"/>
       <use xlink:href="#DejaVuSans-35" x="63.623047"/>
      </g>
     </g>
    </g>
    <g id="text_7">
     <!-- Time(s) -->
     <g transform="translate(217.420156 335.860562) scale(0.1 -0.1)">
      <defs>
       <path id="DejaVuSans-54" d="M -19 4666 
L 3928 4666 
L 3928 4134 
L 2272 4134 
L 2272 0 
L 1638 0 
L 1638 4134 
L -19 4134 
L -19 4666 
z
" transform="scale(0.015625)"/>
       <path id="DejaVuSans-69" d="M 603 3500 
L 1178 3500 
L 1178 0 
L 603 0 
L 603 3500 
z
M 603 4863 
L 1178 4863 
L 1178 4134 
L 603 4134 
L 603 4863 
z
" transform="scale(0.015625)"/>
       <path id="DejaVuSans-6d" d="M 3328 2828 
Q 3544 3216 3844 3400 
Q 4144 3584 4550 3584 
Q 5097 3584 5394 3201 
Q 5691 2819 5691 2113 
L 5691 0 
L 5113 0 
L 5113 2094 
Q 5113 2597 4934 2840 
Q 4756 3084 4391 3084 
Q 3944 3084 3684 2787 
Q 3425 2491 3425 1978 
L 3425 0 
L 2847 0 
L 2847 2094 
Q 2847 2600 2669 2842 
Q 2491 3084 2119 3084 
Q 1678 3084 1418 2786 
Q 1159 2488 1159 1978 
L 1159 0 
L 581 0 
L 581 3500 
L 1159 3500 
L 1159 2956 
Q 1356 3278 1631 3431 
Q 1906 3584 2284 3584 
Q 2666 3584 2933 3390 
Q 3200 3197 3328 2828 
z
" transform="scale(0.015625)"/>
       <path id="DejaVuSans-65" d="M 3597 1894 
L 3597 1613 
L 953 1613 
Q 991 1019 1311 708 
Q 1631 397 2203 397 
Q 2534 397 2845 478 
Q 3156 559 3463 722 
L 3463 178 
Q 3153 47 2828 -22 
Q 2503 -91 2169 -91 
Q 1331 -91 842 396 
Q 353 884 353 1716 
Q 353 2575 817 3079 
Q 1281 3584 2069 3584 
Q 2775 3584 3186 3129 
Q 3597 2675 3597 1894 
z
M 3022 2063 
Q 3016 2534 2758 2815 
Q 2500 3097 2075 3097 
Q 1594 3097 1305 2825 
Q 1016 2553 972 2059 
L 3022 2063 
z
" transform="scale(0.015625)"/>
       <path id="DejaVuSans-28" d="M 1984 4856 
Q 1566 4138 1362 3434 
Q 1159 2731 1159 2009 
Q 1159 1288 1364 580 
Q 1569 -128 1984 -844 
L 1484 -844 
Q 1016 -109 783 600 
Q 550 1309 550 2009 
Q 550 2706 781 3412 
Q 1013 4119 1484 4856 
L 1984 4856 
z
" transform="scale(0.015625)"/>
       <path id="DejaVuSans-73" d="M 2834 3397 
L 2834 2853 
Q 2591 2978 2328 3040 
Q 2066 3103 1784 3103 
Q 1356 3103 1142 2972 
Q 928 2841 928 2578 
Q 928 2378 1081 2264 
Q 1234 2150 1697 2047 
L 1894 2003 
Q 2506 1872 2764 1633 
Q 3022 1394 3022 966 
Q 3022 478 2636 193 
Q 2250 -91 1575 -91 
Q 1294 -91 989 -36 
Q 684 19 347 128 
L 347 722 
Q 666 556 975 473 
Q 1284 391 1588 391 
Q 1994 391 2212 530 
Q 2431 669 2431 922 
Q 2431 1156 2273 1281 
Q 2116 1406 1581 1522 
L 1381 1569 
Q 847 1681 609 1914 
Q 372 2147 372 2553 
Q 372 3047 722 3315 
Q 1072 3584 1716 3584 
Q 2034 3584 2315 3537 
Q 2597 3491 2834 3397 
z
" transform="scale(0.015625)"/>
       <path id="DejaVuSans-29" d="M 513 4856 
L 1013 4856 
Q 1481 4119 1714 3412 
Q 1947 2706 1947 2009 
Q 1947 1309 1714 600 
Q 1481 -109 1013 -844 
L 513 -844 
Q 928 -128 1133 580 
Q 1338 1288 1338 2009 
Q 1338 2731 1133 3434 
Q 928 4138 513 4856 
z
" transform="scale(0.015625)"/>
      </defs>
      <use xlink:href="#DejaVuSans-54"/>
      <use xlink:href="#DejaVuSans-69" x="57.958984"/>
      <use xlink:href="#DejaVuSans-6d" x="85.742188"/>
      <use xlink:href="#DejaVuSans-65" x="183.154297"/>
      <use xlink:href="#DejaVuSans-28" x="244.677734"/>
      <use xlink:href="#DejaVuSans-73" x="283.691406"/>
      <use xlink:href="#DejaVuSans-29" x="335.791016"/>
     </g>
    </g>
   </g>
   <g id="matplotlib.axis_2">
    <g id="ytick_1">
     <g id="line2d_13">
      <path d="M 57.6 295.488 
L 414.72 295.488 
" clip-path="url(#p4304a65a25)" style="fill: none; stroke: #b0b0b0; stroke-width: 0.8; stroke-linecap: square"/>
     </g>
     <g id="line2d_14">
      <defs>
       <path id="mda00f5273f" d="M 0 0 
L -3.5 0 
" style="stroke: #000000; stroke-width: 0.8"/>
      </defs>
      <g>
       <use xlink:href="#mda00f5273f" x="57.6" y="295.488" style="stroke: #000000; stroke-width: 0.8"/>
      </g>
     </g>
     <g id="text_8">
      <!-- 0.00 -->
      <g transform="translate(28.334375 299.287219) scale(0.1 -0.1)">
       <defs>
        <path id="DejaVuSans-2e" d="M 684 794 
L 1344 794 
L 1344 0 
L 684 0 
L 684 794 
z
" transform="scale(0.015625)"/>
       </defs>
       <use xlink:href="#DejaVuSans-30"/>
       <use xlink:href="#DejaVuSans-2e" x="63.623047"/>
       <use xlink:href="#DejaVuSans-30" x="95.410156"/>
       <use xlink:href="#DejaVuSans-30" x="159.033203"/>
      </g>
     </g>
    </g>
    <g id="ytick_2">
     <g id="line2d_15">
      <path d="M 57.6 245.371368 
L 414.72 245.371368 
" clip-path="url(#p4304a65a25)" style="fill: none; stroke: #b0b0b0; stroke-width: 0.8; stroke-linecap: square"/>
     </g>
     <g id="line2d_16">
      <g>
       <use xlink:href="#mda00f5273f" x="57.6" y="245.371368" style="stroke: #000000; stroke-width: 0.8"/>
      </g>
     </g>
     <g id="text_9">
      <!-- 0.05 -->
      <g transform="translate(28.334375 249.170587) scale(0.1 -0.1)">
       <use xlink:href="#DejaVuSans-30"/>
       <use xlink:href="#DejaVuSans-2e" x="63.623047"/>
       <use xlink:href="#DejaVuSans-30" x="95.410156"/>
       <use xlink:href="#DejaVuSans-35" x="159.033203"/>
      </g>
     </g>
    </g>
    <g id="ytick_3">
     <g id="line2d_17">
      <path d="M 57.6 195.254736 
L 414.72 195.254736 
" clip-path="url(#p4304a65a25)" style="fill: none; stroke: #b0b0b0; stroke-width: 0.8; stroke-linecap: square"/>
     </g>
     <g id="line2d_18">
      <g>
       <use xlink:href="#mda00f5273f" x="57.6" y="195.254736" style="stroke: #000000; stroke-width: 0.8"/>
      </g>
     </g>
     <g id="text_10">
      <!-- 0.10 -->
      <g transform="translate(28.334375 199.053954) scale(0.1 -0.1)">
       <use xlink:href="#DejaVuSans-30"/>
       <use xlink:href="#DejaVuSans-2e" x="63.623047"/>
       <use xlink:href="#DejaVuSans-31" x="95.410156"/>
       <use xlink:href="#DejaVuSans-30" x="159.033203"/>
      </g>
     </g>
    </g>
    <g id="ytick_4">
     <g id="line2d_19">
      <path d="M 57.6 145.138103 
L 414.72 145.138103 
" clip-path="url(#p4304a65a25)" style="fill: none; stroke: #b0b0b0; stroke-width: 0.8; stroke-linecap: square"/>
     </g>
     <g id="line2d_20">
      <g>
       <use xlink:href="#mda00f5273f" x="57.6" y="145.138103" style="stroke: #000000; stroke-width: 0.8"/>
      </g>
     </g>
     <g id="text_11">
      <!-- 0.15 -->
      <g transform="translate(28.334375 148.937322) scale(0.1 -0.1)">
       <use xlink:href="#DejaVuSans-30"/>
       <use xlink:href="#DejaVuSans-2e" x="63.623047"/>
       <use xlink:href="#DejaVuSans-31" x="95.410156"/>
       <use xlink:href="#DejaVuSans-35" x="159.033203"/>
      </g>
     </g>
    </g>
    <g id="ytick_5">
     <g id="line2d_21">
      <path d="M 57.6 95.021471 
L 414.72 95.021471 
" clip-path="url(#p4304a65a25)" style="fill: none; stroke: #b0b0b0; stroke-width: 0.8; stroke-linecap: square"/>
     </g>
     <g id="line2d_22">
      <g>
       <use xlink:href="#mda00f5273f" x="57.6" y="95.021471" style="stroke: #000000; stroke-width: 0.8"/>
      </g>
     </g>
     <g id="text_12">
      <!-- 0.20 -->
      <g transform="translate(28.334375 98.82069) scale(0.1 -0.1)">
       <use xlink:href="#DejaVuSans-30"/>
       <use xlink:href="#DejaVuSans-2e" x="63.623047"/>
       <use xlink:href="#DejaVuSans-32" x="95.410156"/>
       <use xlink:href="#DejaVuSans-30" x="159.033203"/>
      </g>
     </g>
    </g>
    <g id="ytick_6">
     <g id="line2d_23">
      <path d="M 57.6 44.904839 
L 414.72 44.904839 
" clip-path="url(#p4304a65a25)" style="fill: none; stroke: #b0b0b0; stroke-width: 0.8; stroke-linecap: square"/>
     </g>
     <g id="line2d_24">
      <g>
       <use xlink:href="#mda00f5273f" x="57.6" y="44.904839" style="stroke: #000000; stroke-width: 0.8"/>
      </g>
     </g>
     <g id="text_13">
      <!-- 0.25 -->
      <g transform="translate(28.334375 48.704058) scale(0.1 -0.1)">
       <use xlink:href="#DejaVuSans-30"/>
       <use xlink:href="#DejaVuSans-2e" x="63.623047"/>
       <use xlink:href="#DejaVuSans-32" x="95.410156"/>
       <use xlink:href="#DejaVuSans-35" x="159.033203"/>
      </g>
     </g>
    </g>
    <g id="text_14">
     <!-- Tracking error(m) -->
     <g transform="translate(22.254687 217.803781) rotate(-90) scale(0.1 -0.1)">
      <defs>
       <path id="DejaVuSans-72" d="M 2631 2963 
Q 2534 3019 2420 3045 
Q 2306 3072 2169 3072 
Q 1681 3072 1420 2755 
Q 1159 2438 1159 1844 
L 1159 0 
L 581 0 
L 581 3500 
L 1159 3500 
L 1159 2956 
Q 1341 3275 1631 3429 
Q 1922 3584 2338 3584 
Q 2397 3584 2469 3576 
Q 2541 3569 2628 3553 
L 2631 2963 
z
" transform="scale(0.015625)"/>
       <path id="DejaVuSans-61" d="M 2194 1759 
Q 1497 1759 1228 1600 
Q 959 1441 959 1056 
Q 959 750 1161 570 
Q 1363 391 1709 391 
Q 2188 391 2477 730 
Q 2766 1069 2766 1631 
L 2766 1759 
L 2194 1759 
z
M 3341 1997 
L 3341 0 
L 2766 0 
L 2766 531 
Q 2569 213 2275 61 
Q 1981 -91 1556 -91 
Q 1019 -91 701 211 
Q 384 513 384 1019 
Q 384 1609 779 1909 
Q 1175 2209 1959 2209 
L 2766 2209 
L 2766 2266 
Q 2766 2663 2505 2880 
Q 2244 3097 1772 3097 
Q 1472 3097 1187 3025 
Q 903 2953 641 2809 
L 641 3341 
Q 956 3463 1253 3523 
Q 1550 3584 1831 3584 
Q 2591 3584 2966 3190 
Q 3341 2797 3341 1997 
z
" transform="scale(0.015625)"/>
       <path id="DejaVuSans-63" d="M 3122 3366 
L 3122 2828 
Q 2878 2963 2633 3030 
Q 2388 3097 2138 3097 
Q 1578 3097 1268 2742 
Q 959 2388 959 1747 
Q 959 1106 1268 751 
Q 1578 397 2138 397 
Q 2388 397 2633 464 
Q 2878 531 3122 666 
L 3122 134 
Q 2881 22 2623 -34 
Q 2366 -91 2075 -91 
Q 1284 -91 818 406 
Q 353 903 353 1747 
Q 353 2603 823 3093 
Q 1294 3584 2113 3584 
Q 2378 3584 2631 3529 
Q 2884 3475 3122 3366 
z
" transform="scale(0.015625)"/>
       <path id="DejaVuSans-6b" d="M 581 4863 
L 1159 4863 
L 1159 1991 
L 2875 3500 
L 3609 3500 
L 1753 1863 
L 3688 0 
L 2938 0 
L 1159 1709 
L 1159 0 
L 581 0 
L 581 4863 
z
" transform="scale(0.015625)"/>
       <path id="DejaVuSans-6e" d="M 3513 2113 
L 3513 0 
L 2938 0 
L 2938 2094 
Q 2938 2591 2744 2837 
Q 2550 3084 2163 3084 
Q 1697 3084 1428 2787 
Q 1159 2491 1159 1978 
L 1159 0 
L 581 0 
L 581 3500 
L 1159 3500 
L 1159 2956 
Q 1366 3272 1645 3428 
Q 1925 3584 2291 3584 
Q 2894 3584 3203 3211 
Q 3513 2838 3513 2113 
z
" transform="scale(0.015625)"/>
       <path id="DejaVuSans-67" d="M 2906 1791 
Q 2906 2416 2648 2759 
Q 2391 3103 1925 3103 
Q 1463 3103 1205 2759 
Q 947 2416 947 1791 
Q 947 1169 1205 825 
Q 1463 481 1925 481 
Q 2391 481 2648 825 
Q 2906 1169 2906 1791 
z
M 3481 434 
Q 3481 -459 3084 -895 
Q 2688 -1331 1869 -1331 
Q 1566 -1331 1297 -1286 
Q 1028 -1241 775 -1147 
L 775 -588 
Q 1028 -725 1275 -790 
Q 1522 -856 1778 -856 
Q 2344 -856 2625 -561 
Q 2906 -266 2906 331 
L 2906 616 
Q 2728 306 2450 153 
Q 2172 0 1784 0 
Q 1141 0 747 490 
Q 353 981 353 1791 
Q 353 2603 747 3093 
Q 1141 3584 1784 3584 
Q 2172 3584 2450 3431 
Q 2728 3278 2906 2969 
L 2906 3500 
L 3481 3500 
L 3481 434 
z
" transform="scale(0.015625)"/>
       <path id="DejaVuSans-20" transform="scale(0.015625)"/>
       <path id="DejaVuSans-6f" d="M 1959 3097 
Q 1497 3097 1228 2736 
Q 959 2375 959 1747 
Q 959 1119 1226 758 
Q 1494 397 1959 397 
Q 2419 397 2687 759 
Q 2956 1122 2956 1747 
Q 2956 2369 2687 2733 
Q 2419 3097 1959 3097 
z
M 1959 3584 
Q 2709 3584 3137 3096 
Q 3566 2609 3566 1747 
Q 3566 888 3137 398 
Q 2709 -91 1959 -91 
Q 1206 -91 779 398 
Q 353 888 353 1747 
Q 353 2609 779 3096 
Q 1206 3584 1959 3584 
z
" transform="scale(0.015625)"/>
      </defs>
      <use xlink:href="#DejaVuSans-54"/>
      <use xlink:href="#DejaVuSans-72" x="46.333984"/>
      <use xlink:href="#DejaVuSans-61" x="87.447266"/>
      <use xlink:href="#DejaVuSans-63" x="148.726562"/>
      <use xlink:href="#DejaVuSans-6b" x="203.707031"/>
      <use xlink:href="#DejaVuSans-69" x="261.617188"/>
      <use xlink:href="#DejaVuSans-6e" x="289.400391"/>
      <use xlink:href="#DejaVuSans-67" x="352.779297"/>
      <use xlink:href="#DejaVuSans-20" x="416.255859"/>
      <use xlink:href="#DejaVuSans-65" x="448.042969"/>
      <use xlink:href="#DejaVuSans-72" x="509.566406"/>
      <use xlink:href="#DejaVuSans-72" x="548.929688"/>
      <use xlink:href="#DejaVuSans-6f" x="587.792969"/>
      <use xlink:href="#DejaVuSans-72" x="648.974609"/>
      <use xlink:href="#DejaVuSans-28" x="690.087891"/>
      <use xlink:href="#DejaVuSans-6d" x="729.101562"/>
      <use xlink:href="#DejaVuSans-29" x="826.513672"/>
     </g>
    </g>
   </g>
   <g id="line2d_25">
    <path d="M 73.832727 224.392546 
L 74.065288 279.402566 
L 74.065288 279.402566 
L 74.297848 266.851356 
L 74.297848 266.851356 
L 74.76297 193.587856 
L 74.76297 193.587856 
L 75.228091 142.031875 
L 75.228091 142.031875 
L 75.693212 109.280655 
L 75.693212 109.280655 
L 76.158333 94.366948 
L 76.158333 94.366948 
L 76.390893 93.097995 
L 76.390893 93.097995 
L 76.623454 94.869117 
L 76.623454 94.869117 
L 77.088575 105.664239 
L 77.088575 105.664239 
L 77.786257 132.540787 
L 77.786257 132.540787 
L 79.646741 210.883106 
L 79.646741 210.883106 
L 81.042105 254.272082 
L 81.042105 254.272082 
L 81.972347 276.541908 
L 81.972347 276.541908 
L 82.437468 284.124555 
L 82.437468 284.124555 
L 82.670029 295.488 
L 82.670029 295.488 
L 82.902589 290.818132 
L 82.902589 290.818132 
L 83.13515 293.526435 
L 83.13515 293.526435 
L 83.600271 295.116135 
L 83.600271 295.116135 
L 83.832831 295.488 
L 83.832831 295.488 
L 84.065392 293.994524 
L 84.065392 293.994524 
L 84.297953 294.225061 
L 84.297953 294.225061 
L 84.530513 294.659071 
L 84.530513 294.659071 
L 84.763074 292.876923 
L 84.763074 292.876923 
L 84.995634 295.488 
L 84.995634 295.488 
L 85.228195 288.529807 
L 85.228195 288.529807 
L 85.460755 286.098148 
L 85.460755 286.098148 
L 85.925877 279.326388 
L 85.925877 279.326388 
L 87.088679 266.252964 
L 87.088679 266.252964 
L 88.716603 252.322545 
L 88.716603 252.322545 
L 88.949164 251.39238 
L 88.949164 251.39238 
L 89.181724 249.030884 
L 89.181724 249.030884 
L 89.414285 248.415452 
L 89.414285 248.415452 
L 89.646846 248.463564 
L 89.646846 248.463564 
L 89.879406 249.04191 
L 89.879406 249.04191 
L 90.111967 248.370347 
L 90.111967 248.370347 
L 90.344527 249.404754 
L 90.344527 249.404754 
L 91.274769 256.846072 
L 91.274769 256.846072 
L 91.739891 262.106314 
L 91.739891 262.106314 
L 91.972451 262.489205 
L 91.972451 262.489205 
L 92.437572 265.884105 
L 92.437572 265.884105 
L 92.670133 265.626506 
L 92.670133 265.626506 
L 93.135254 266.655901 
L 93.135254 266.655901 
L 93.367815 267.394621 
L 93.367815 267.394621 
L 93.600375 265.685643 
L 93.600375 265.685643 
L 93.832936 265.884105 
L 94.065496 266.563687 
L 94.065496 266.563687 
L 94.298057 265.164431 
L 94.298057 265.164431 
L 94.530617 265.907159 
L 94.530617 265.907159 
L 94.763178 267.472803 
L 94.763178 267.472803 
L 94.995738 267.052825 
L 94.995738 267.052825 
L 95.228299 269.039449 
L 95.228299 269.039449 
L 95.46086 272.010362 
L 95.46086 272.010362 
L 95.69342 272.414303 
L 95.69342 272.414303 
L 96.158541 279.386528 
L 96.158541 279.386528 
L 96.391102 279.940818 
L 96.391102 279.940818 
L 96.856223 287.366099 
L 96.856223 287.366099 
L 97.088784 287.059385 
L 97.088784 287.059385 
L 97.321344 290.03932 
L 97.321344 290.03932 
L 97.553905 290.266849 
L 97.553905 290.266849 
L 98.019026 294.39245 
L 98.019026 294.39245 
L 98.251586 292.874919 
L 98.251586 292.874919 
L 98.484147 293.446248 
L 98.484147 293.446248 
L 98.716707 294.545807 
L 98.716707 294.545807 
L 98.949268 290.466313 
L 98.949268 290.466313 
L 99.181829 295.488 
L 99.181829 295.488 
L 99.64695 281.603688 
L 99.64695 281.603688 
L 100.112071 276.25023 
L 100.112071 276.25023 
L 100.344631 268.808912 
L 100.344631 268.808912 
L 100.809753 262.806944 
L 100.809753 262.806944 
L 101.042313 255.378657 
L 101.042313 255.378657 
L 101.274874 252.419771 
L 101.274874 252.419771 
L 101.739995 243.93302 
L 101.739995 243.93302 
L 101.972555 242.135838 
L 101.972555 242.135838 
L 102.205116 237.690493 
L 102.205116 237.690493 
L 102.437676 235.915362 
L 102.437676 235.915362 
L 102.670237 235.007248 
L 102.670237 235.007248 
L 102.902798 231.363769 
L 102.902798 231.363769 
L 103.135358 230.406541 
L 103.135358 230.406541 
L 103.367919 230.118872 
L 103.367919 230.118872 
L 103.600479 227.158984 
L 103.600479 227.158984 
L 103.83304 226.695906 
L 103.83304 226.695906 
L 104.0656 226.71896 
L 104.0656 226.71896 
L 104.298161 224.347441 
L 104.298161 224.347441 
L 104.530722 224.216135 
L 104.530722 224.216135 
L 104.763282 224.489772 
L 104.763282 224.489772 
L 104.995843 222.888044 
L 104.995843 222.888044 
L 105.228403 223.235854 
L 105.228403 223.235854 
L 105.460964 224.016671 
L 105.460964 224.016671 
L 105.693524 223.610726 
L 105.693524 223.610726 
L 106.856327 229.00929 
L 106.856327 229.00929 
L 107.321448 231.760693 
L 107.321448 231.760693 
L 108.01913 237.250469 
L 108.01913 237.250469 
L 108.716812 244.994491 
L 108.716812 244.994491 
L 111.274978 286.347729 
L 111.274978 286.347729 
L 111.507538 295.488 
L 111.507538 295.488 
L 111.740099 291.399485 
L 111.740099 291.399485 
L 111.97266 293.763988 
L 111.97266 293.763988 
L 112.20522 294.749281 
L 112.20522 294.749281 
L 113.600583 281.236834 
L 113.600583 281.236834 
L 114.065705 277.970232 
L 114.065705 277.970232 
L 114.530826 276.286314 
L 114.530826 276.286314 
L 114.763386 275.946523 
L 114.763386 275.946523 
L 114.995947 275.875357 
L 114.995947 275.875357 
L 115.228507 276.058784 
L 115.228507 276.058784 
L 115.926189 277.836922 
L 115.926189 277.836922 
L 116.39131 279.140957 
L 116.39131 279.140957 
L 117.088992 282.261218 
L 117.088992 282.261218 
L 117.554113 285.233135 
L 117.554113 285.233135 
L 118.716916 295.005878 
L 118.716916 295.005878 
L 118.949476 294.081727 
L 118.949476 294.081727 
L 119.414598 291.110813 
L 119.414598 291.110813 
L 119.879719 289.138223 
L 119.879719 289.138223 
L 120.34484 288.193023 
L 120.34484 288.193023 
L 120.809961 287.904351 
L 120.809961 287.904351 
L 121.042521 287.910365 
L 121.042521 287.910365 
L 121.507643 288.439597 
L 121.507643 288.439597 
L 122.205324 288.734283 
L 122.205324 288.734283 
L 122.903006 289.905007 
L 122.903006 289.905007 
L 123.368127 291.377434 
L 123.368127 291.377434 
L 124.298369 295.30758 
L 124.298369 295.30758 
L 124.53093 294.736251 
L 124.53093 294.736251 
L 124.996051 293.143544 
L 124.996051 293.143544 
L 125.228612 292.734592 
L 125.228612 292.734592 
L 125.461172 292.633357 
L 125.461172 292.633357 
L 125.693733 292.722564 
L 125.693733 292.722564 
L 125.926293 292.692494 
L 125.926293 292.692494 
L 126.391414 292.881935 
L 126.391414 292.881935 
L 126.623975 292.847856 
L 126.856536 292.601282 
L 126.856536 292.601282 
L 127.321657 291.088762 
L 127.321657 291.088762 
L 128.019338 287.918384 
L 128.019338 287.918384 
L 128.484459 285.818497 
L 128.484459 285.818497 
L 128.949581 284.650779 
L 128.949581 284.650779 
L 129.182141 284.387166 
L 129.182141 284.387166 
L 129.647262 285.324347 
L 129.647262 285.324347 
L 130.112383 287.245819 
L 130.112383 287.245819 
L 131.042626 291.253145 
L 131.042626 291.253145 
L 132.205428 294.979817 
L 132.205428 294.979817 
L 132.437989 295.002871 
L 132.437989 295.002871 
L 133.600792 289.91503 
L 133.600792 289.91503 
L 134.298474 287.303954 
L 134.298474 287.303954 
L 134.531034 286.286586 
L 134.531034 286.286586 
L 134.763595 285.92274 
L 134.763595 285.92274 
L 135.228716 284.442294 
L 135.228716 284.442294 
L 135.461276 284.569591 
L 135.461276 284.569591 
L 135.693837 283.737654 
L 135.693837 283.737654 
L 135.926397 282.230146 
L 135.926397 282.230146 
L 136.158958 281.946486 
L 136.158958 281.946486 
L 136.85664 276.155008 
L 136.85664 276.155008 
L 137.0892 272.428335 
L 137.0892 272.428335 
L 137.321761 270.850664 
L 138.252003 256.039194 
L 138.252003 256.039194 
L 138.484564 254.936628 
L 138.484564 254.936628 
L 138.717124 251.03555 
L 138.717124 251.03555 
L 138.949685 250.114406 
L 138.949685 250.114406 
L 139.414806 242.354347 
L 139.414806 242.354347 
L 139.647367 243.332623 
L 139.647367 243.332623 
L 139.879927 239.604948 
L 139.879927 239.604948 
L 140.112488 240.300567 
L 140.112488 240.300567 
L 140.345048 236.776365 
L 140.345048 236.776365 
L 140.577609 237.179303 
L 140.577609 237.179303 
L 140.810169 233.997899 
L 140.810169 233.997899 
L 141.04273 233.964822 
L 141.04273 233.964822 
L 141.27529 231.066076 
L 141.27529 231.066076 
L 141.507851 226.249868 
L 141.507851 226.249868 
L 141.740412 228.175349 
L 141.740412 228.175349 
L 141.972972 224.008652 
L 141.972972 224.008652 
L 142.205533 225.996278 
L 142.205533 225.996278 
L 142.438093 222.644477 
L 142.438093 222.644477 
L 142.670654 224.914761 
L 142.670654 224.914761 
L 142.903214 222.781797 
L 142.903214 222.781797 
L 143.135775 225.933131 
L 143.135775 225.933131 
L 143.368336 225.710613 
L 143.368336 225.710613 
L 143.600896 230.321343 
L 143.600896 230.321343 
L 143.833457 231.920064 
L 143.833457 231.920064 
L 144.066017 237.602287 
L 144.066017 237.602287 
L 144.298578 240.47798 
L 144.298578 240.47798 
L 144.763699 249.839767 
L 144.763699 249.839767 
L 144.996259 251.475574 
L 144.996259 251.475574 
L 145.22882 259.870109 
L 145.22882 259.870109 
L 145.461381 261.791581 
L 145.461381 261.791581 
L 145.693941 269.610778 
L 145.693941 269.610778 
L 145.926502 271.39493 
L 146.159062 278.200769 
L 146.159062 278.200769 
L 146.391623 279.453685 
L 146.391623 279.453685 
L 146.624183 284.860267 
L 146.624183 284.860267 
L 146.856744 285.09782 
L 146.856744 285.09782 
L 147.089305 288.88363 
L 147.089305 288.88363 
L 147.321865 287.572579 
L 147.321865 287.572579 
L 147.554426 290.386127 
L 147.554426 290.386127 
L 147.786986 287.8823 
L 147.786986 287.8823 
L 148.019547 290.265847 
L 148.019547 290.265847 
L 148.252107 286.304628 
L 148.252107 286.304628 
L 148.484668 289.193351 
L 148.484668 289.193351 
L 148.717228 285.894674 
L 148.717228 285.894674 
L 148.949789 290.076406 
L 148.949789 290.076406 
L 149.18235 287.205725 
L 149.18235 287.205725 
L 149.41491 292.259487 
L 149.41491 292.259487 
L 149.647471 290.64974 
L 149.647471 290.64974 
L 149.880031 294.636017 
L 149.880031 294.636017 
L 150.112592 295.122149 
L 150.345152 290.508411 
L 150.345152 290.508411 
L 150.577713 291.727248 
L 150.577713 291.727248 
L 150.810274 287.139571 
L 150.810274 287.139571 
L 151.042834 288.805448 
L 151.042834 288.805448 
L 151.275395 284.730966 
L 151.275395 284.730966 
L 151.507955 286.226446 
L 151.507955 286.226446 
L 151.740516 282.447652 
L 151.973076 283.962177 
L 151.973076 283.962177 
L 152.205637 280.176367 
L 152.205637 280.176367 
L 152.438197 280.739677 
L 152.438197 280.739677 
L 152.670758 276.823564 
L 152.670758 276.823564 
L 152.903319 277.037061 
L 152.903319 277.037061 
L 153.135879 273.338453 
L 153.135879 273.338453 
L 153.36844 273.265283 
L 153.36844 273.265283 
L 153.601 270.057818 
L 153.601 270.057818 
L 153.833561 270.022737 
L 153.833561 270.022737 
L 154.066121 267.493852 
L 154.298682 267.303408 
L 154.298682 267.303408 
L 154.531243 268.074202 
L 154.531243 268.074202 
L 154.763803 264.5069 
L 154.763803 264.5069 
L 154.996364 264.156084 
L 154.996364 264.156084 
L 155.228924 260.518619 
L 155.228924 260.518619 
L 155.461485 258.653278 
L 155.461485 258.653278 
L 157.55453 225.223479 
L 157.55453 225.223479 
L 157.78709 224.528863 
L 157.78709 224.528863 
L 158.252212 220.923472 
L 158.252212 220.923472 
L 158.484772 223.933477 
L 158.484772 223.933477 
L 158.717333 223.291984 
L 158.717333 223.291984 
L 158.949893 226.175695 
L 158.949893 226.175695 
L 159.182454 226.342083 
L 159.182454 226.342083 
L 159.415014 224.748374 
L 159.415014 224.748374 
L 159.647575 229.064418 
L 159.647575 229.064418 
L 159.880135 227.633087 
L 159.880135 227.633087 
L 160.112696 230.532835 
L 160.112696 230.532835 
L 160.345257 229.690876 
L 160.345257 229.690876 
L 160.577817 227.102853 
L 160.577817 227.102853 
L 160.810378 231.994236 
L 160.810378 231.994236 
L 161.042938 230.687195 
L 161.042938 230.687195 
L 161.275499 235.203705 
L 161.275499 235.203705 
L 161.508059 235.662774 
L 161.508059 235.662774 
L 161.973181 243.386749 
L 161.973181 243.386749 
L 162.205741 245.285167 
L 162.205741 245.285167 
L 162.670862 259.504258 
L 162.670862 259.504258 
L 163.135983 274.175401 
L 163.135983 274.175401 
L 163.368544 278.592681 
L 163.368544 278.592681 
L 163.601104 285.455653 
L 163.601104 285.455653 
L 163.833665 287.723931 
L 163.833665 287.723931 
L 164.066226 291.460627 
L 164.066226 291.460627 
L 164.298786 291.509742 
L 164.531347 292.737599 
L 164.531347 292.737599 
L 164.763907 295.488 
L 164.996468 287.74899 
L 164.996468 287.74899 
L 165.229028 288.413536 
L 165.229028 288.413536 
L 165.461589 285.227121 
L 165.461589 285.227121 
L 165.69415 285.596981 
L 165.69415 285.596981 
L 166.159271 280.729654 
L 166.159271 280.729654 
L 166.391831 284.077445 
L 166.391831 284.077445 
L 166.624392 283.218446 
L 166.624392 283.218446 
L 166.856952 287.227777 
L 166.856952 287.227777 
L 167.089513 288.314305 
L 167.089513 288.314305 
L 167.554634 295.488 
L 167.554634 295.488 
L 167.787195 292.609301 
L 167.787195 292.609301 
L 168.252316 281.897372 
L 168.252316 281.897372 
L 168.717437 270.803554 
L 168.717437 270.803554 
L 168.949997 266.466461 
L 168.949997 266.466461 
L 169.415119 255.131081 
L 169.415119 255.131081 
L 169.88024 245.684096 
L 169.88024 245.684096 
L 170.577921 236.195012 
L 170.577921 236.195012 
L 170.810482 234.396828 
L 170.810482 234.396828 
L 171.043042 234.059042 
L 171.043042 234.059042 
L 171.275603 234.146245 
L 171.275603 234.146245 
L 171.508164 235.088437 
L 171.508164 235.088437 
L 171.973285 240.165252 
L 171.973285 240.165252 
L 172.438406 247.685754 
L 172.438406 247.685754 
L 174.06633 276.422631 
L 174.06633 276.422631 
L 174.764011 284.808146 
L 174.764011 284.808146 
L 175.461693 291.187993 
L 175.461693 291.187993 
L 175.926814 294.909654 
L 175.926814 294.909654 
L 176.159375 294.220049 
L 176.159375 294.220049 
L 176.624496 290.037315 
L 176.624496 290.037315 
L 176.857057 295.488 
L 176.857057 295.488 
L 177.089617 285.301293 
L 177.089617 285.301293 
L 178.48498 269.511547 
L 178.48498 269.511547 
L 179.415223 254.651966 
L 179.415223 254.651966 
L 179.647783 248.249065 
L 179.647783 248.249065 
L 179.880344 246.535076 
L 179.880344 246.535076 
L 180.112904 238.650727 
L 180.112904 238.650727 
L 180.345465 238.193664 
L 180.345465 238.193664 
L 180.578026 235.564545 
L 180.810586 228.93211 
L 180.810586 228.93211 
L 181.043147 227.304322 
L 181.043147 227.304322 
L 181.275707 219.542258 
L 181.275707 219.542258 
L 181.508268 219.545265 
L 181.508268 219.545265 
L 181.740828 210.167441 
L 181.740828 210.167441 
L 181.973389 211.074552 
L 181.973389 211.074552 
L 182.205949 209.385621 
L 182.205949 209.385621 
L 182.43851 201.268731 
L 182.43851 201.268731 
L 182.671071 200.588148 
L 182.671071 200.588148 
L 182.903631 190.768295 
L 182.903631 190.768295 
L 183.136192 191.079018 
L 183.136192 191.079018 
L 183.368752 188.733559 
L 183.368752 188.733559 
L 183.601313 180.27287 
L 183.601313 180.27287 
L 183.833873 179.10415 
L 183.833873 179.10415 
L 184.066434 168.95052 
L 184.066434 168.95052 
L 184.298995 169.05376 
L 184.298995 169.05376 
L 184.531555 166.618092 
L 184.531555 166.618092 
L 184.764116 158.221551 
L 184.764116 158.221551 
L 184.996676 157.294394 
L 184.996676 157.294394 
L 185.229237 147.019482 
L 185.229237 147.019482 
L 185.461797 148.129064 
L 185.461797 148.129064 
L 185.694358 146.36997 
L 185.926918 138.01653 
L 185.926918 138.01653 
L 186.159479 138.391402 
L 186.159479 138.391402 
L 186.39204 127.591268 
L 186.39204 127.591268 
L 186.6246 131.524421 
L 186.6246 131.524421 
L 186.857161 119.059413 
L 186.857161 119.059413 
L 187.089721 126.305275 
L 187.089721 126.305275 
L 187.322282 129.276189 
L 187.322282 129.276189 
L 187.554842 122.481376 
L 187.554842 122.481376 
L 187.787403 126.705206 
L 187.787403 126.705206 
L 188.019964 119.095497 
L 188.019964 119.095497 
L 188.252524 125.040332 
L 188.252524 125.040332 
L 188.485085 127.399823 
L 188.485085 127.399823 
L 188.717645 123.863593 
L 188.717645 123.863593 
L 188.950206 127.418867 
L 188.950206 127.418867 
L 189.182766 123.10182 
L 189.182766 123.10182 
L 189.415327 129.578894 
L 189.415327 129.578894 
L 189.647887 125.355064 
L 189.647887 125.355064 
L 190.113009 139.665367 
L 190.113009 139.665367 
L 190.345569 138.472591 
L 190.345569 138.472591 
L 190.57813 145.406729 
L 190.57813 145.406729 
L 190.81069 142.788636 
L 190.81069 142.788636 
L 191.275811 155.222572 
L 191.275811 155.222572 
L 191.508372 153.792243 
L 191.508372 153.792243 
L 191.740933 158.913161 
L 191.740933 158.913161 
L 191.973493 155.947259 
L 191.973493 155.947259 
L 192.438614 166.91378 
L 192.438614 166.91378 
L 192.671175 167.509166 
L 192.671175 167.509166 
L 192.903735 174.153629 
L 192.903735 174.153629 
L 193.136296 175.884657 
L 193.136296 175.884657 
L 193.368856 185.366724 
L 193.368856 185.366724 
L 193.601417 188.659387 
L 194.066538 209.328488 
L 194.066538 209.328488 
L 194.299099 215.729385 
L 194.299099 215.729385 
L 195.229341 252.068955 
L 195.229341 252.068955 
L 196.392144 293.200677 
L 196.392144 293.200677 
L 196.624704 290.974496 
L 196.624704 290.974496 
L 197.089825 276.131954 
L 197.089825 276.131954 
L 197.787507 256.295791 
L 197.787507 256.295791 
L 198.020068 245.308221 
L 198.020068 245.308221 
L 198.485189 235.838182 
L 198.485189 235.838182 
L 198.717749 225.452011 
L 198.717749 225.452011 
L 198.95031 221.47676 
L 198.95031 221.47676 
L 199.182871 215.437706 
L 199.182871 215.437706 
L 199.415431 205.54769 
L 199.415431 205.54769 
L 199.647992 201.632578 
L 199.647992 201.632578 
L 199.880552 190.378387 
L 199.880552 190.378387 
L 200.113113 189.974447 
L 200.113113 189.974447 
L 200.345673 187.588896 
L 200.345673 187.588896 
L 200.578234 177.887318 
L 200.578234 177.887318 
L 200.810794 177.81515 
L 200.810794 177.81515 
L 201.043355 175.388503 
L 201.043355 175.388503 
L 201.275916 166.58702 
L 201.275916 166.58702 
L 201.508476 165.680911 
L 201.508476 165.680911 
L 201.741037 153.182825 
L 201.741037 153.182825 
L 201.973597 153.494551 
L 201.973597 153.494551 
L 202.206158 151.683336 
L 202.206158 151.683336 
L 202.438718 142.712458 
L 202.438718 142.712458 
L 202.671279 140.499308 
L 202.671279 140.499308 
L 202.90384 135.788344 
L 202.90384 135.788344 
L 203.1364 121.981212 
L 203.1364 121.981212 
L 203.368961 116.68188 
L 203.368961 116.68188 
L 203.601521 107.562657 
L 203.601521 107.562657 
L 203.834082 86.657005 
L 203.834082 86.657005 
L 204.066642 83.220007 
L 204.066642 83.220007 
L 204.299203 60.188407 
L 204.299203 60.188407 
L 204.531763 63.805826 
L 204.531763 63.805826 
L 204.764324 63.014985 
L 204.764324 63.014985 
L 204.996885 53.690285 
L 204.996885 53.690285 
L 205.229445 59.590015 
L 205.229445 59.590015 
L 205.462006 53.568 
L 205.462006 53.568 
L 205.694566 64.483402 
L 205.694566 64.483402 
L 205.927127 59.446681 
L 205.927127 59.446681 
L 206.392248 85.087352 
L 206.392248 85.087352 
L 206.624809 87.684396 
L 206.624809 87.684396 
L 206.857369 102.205189 
L 207.08993 102.434723 
L 207.08993 102.434723 
L 207.32249 120.958833 
L 207.32249 120.958833 
L 207.555051 120.00361 
L 207.555051 120.00361 
L 208.020172 156.568705 
L 208.020172 156.568705 
L 208.252732 159.901461 
L 208.252732 159.901461 
L 208.717854 183.755975 
L 208.717854 183.755975 
L 208.950414 183.855206 
L 208.950414 183.855206 
L 209.182975 190.286173 
L 209.182975 190.286173 
L 209.415535 193.201958 
L 209.415535 193.201958 
L 209.648096 189.274819 
L 209.648096 189.274819 
L 209.880656 190.457572 
L 209.880656 190.457572 
L 210.113217 189.365029 
L 210.113217 189.365029 
L 210.345778 184.210032 
L 210.345778 184.210032 
L 210.578338 184.523762 
L 210.578338 184.523762 
L 210.810899 179.705549 
L 210.810899 179.705549 
L 211.50858 191.053959 
L 211.50858 191.053959 
L 213.601625 268.605438 
L 213.601625 268.605438 
L 214.299307 289.305612 
L 214.299307 289.305612 
L 214.531868 293.480328 
L 214.531868 293.480328 
L 214.764428 295.488 
L 214.764428 295.488 
L 215.229549 272.068498 
L 215.229549 272.068498 
L 215.46211 265.60245 
L 215.46211 265.60245 
L 215.927231 248.556781 
L 215.927231 248.556781 
L 216.624913 221.947856 
L 216.624913 221.947856 
L 216.857473 208.510585 
L 216.857473 208.510585 
L 217.090034 205.252001 
L 217.090034 205.252001 
L 217.322594 190.731208 
L 217.555155 189.888247 
L 217.555155 189.888247 
L 217.787716 186.074371 
L 217.787716 186.074371 
L 218.020276 173.735656 
L 218.020276 173.735656 
L 218.252837 171.567611 
L 218.252837 171.567611 
L 218.485397 156.715045 
L 218.485397 156.715045 
L 218.717958 156.323133 
L 218.717958 156.323133 
L 218.950518 152.615505 
L 218.950518 152.615505 
L 219.183079 139.861824 
L 219.415639 138.19695 
L 219.415639 138.19695 
L 219.6482 123.228114 
L 219.6482 123.228114 
L 219.880761 123.994899 
L 219.880761 123.994899 
L 220.113321 121.461002 
L 220.113321 121.461002 
L 220.345882 110.149678 
L 220.345882 110.149678 
L 220.578442 110.24089 
L 220.578442 110.24089 
L 220.811003 97.450123 
L 220.811003 97.450123 
L 221.043563 100.768847 
L 221.043563 100.768847 
L 221.276124 100.86908 
L 221.276124 100.86908 
L 221.508685 93.609184 
L 221.508685 93.609184 
L 221.741245 96.580098 
L 221.741245 96.580098 
L 221.973806 88.955354 
L 221.973806 88.955354 
L 222.206366 96.179165 
L 222.206366 96.179165 
L 222.438927 89.125751 
L 222.438927 89.125751 
L 222.904048 105.972958 
L 222.904048 105.972958 
L 223.136608 103.131345 
L 223.136608 103.131345 
L 223.369169 111.373526 
L 223.369169 111.373526 
L 223.60173 106.657551 
L 223.60173 106.657551 
L 224.066851 120.883658 
L 224.066851 120.883658 
L 224.299411 117.33941 
L 224.299411 117.33941 
L 224.531972 122.404197 
L 224.531972 122.404197 
L 224.764532 116.973558 
L 224.764532 116.973558 
L 224.997093 122.074429 
L 224.997093 122.074429 
L 225.229654 124.489049 
L 225.229654 124.489049 
L 225.462214 120.763378 
L 225.462214 120.763378 
L 225.694775 123.188021 
L 225.694775 123.188021 
L 225.927335 123.749327 
L 225.927335 123.749327 
L 226.159896 120.403541 
L 226.392456 122.498416 
L 226.392456 122.498416 
L 226.625017 116.917428 
L 226.625017 116.917428 
L 227.090138 125.885298 
L 227.090138 125.885298 
L 227.322699 123.985878 
L 227.322699 123.985878 
L 227.555259 130.451925 
L 227.555259 130.451925 
L 227.78782 127.547165 
L 227.78782 127.547165 
L 228.252941 141.182899 
L 228.252941 141.182899 
L 228.485501 139.359656 
L 228.485501 139.359656 
L 228.718062 144.97773 
L 228.718062 144.97773 
L 228.950623 140.781966 
L 228.950623 140.781966 
L 229.415744 152.326833 
L 229.415744 152.326833 
L 229.648304 150.237972 
L 229.648304 150.237972 
L 229.880865 155.744787 
L 229.880865 155.744787 
L 230.113425 152.3128 
L 230.113425 152.3128 
L 230.578546 163.857668 
L 230.578546 163.857668 
L 230.811107 163.495826 
L 230.811107 163.495826 
L 231.043668 170.101198 
L 231.043668 170.101198 
L 231.276228 170.044065 
L 231.276228 170.044065 
L 231.741349 185.667424 
L 231.741349 185.667424 
L 231.97391 189.446218 
L 232.20647 197.790637 
L 232.20647 197.790637 
L 232.439031 202.017474 
L 232.439031 202.017474 
L 232.671592 210.970309 
L 232.671592 210.970309 
L 232.904152 215.629151 
L 232.904152 215.629151 
L 233.369273 231.353746 
L 233.369273 231.353746 
L 235.462318 270.913811 
L 235.462318 270.913811 
L 235.694879 273.260271 
L 235.694879 273.260271 
L 236.16 279.226155 
L 236.16 279.226155 
L 236.392561 282.92376 
L 236.392561 282.92376 
L 236.625121 284.76705 
L 236.625121 284.76705 
L 236.857682 288.216077 
L 236.857682 288.216077 
L 237.090242 289.731604 
L 237.090242 289.731604 
L 237.322803 292.556177 
L 237.322803 292.556177 
L 237.787924 295.062009 
L 237.787924 295.062009 
L 238.020485 294.406483 
L 238.020485 294.406483 
L 238.253045 292.874919 
L 238.253045 292.874919 
L 238.485606 292.563193 
L 238.485606 292.563193 
L 238.718166 291.585919 
L 238.718166 291.585919 
L 238.950727 291.609975 
L 238.950727 291.609975 
L 239.183287 290.855219 
L 239.183287 290.855219 
L 239.415848 290.815125 
L 239.648408 290.079413 
L 239.648408 290.079413 
L 240.11353 289.524121 
L 240.11353 289.524121 
L 240.34609 288.174981 
L 240.34609 288.174981 
L 240.578651 287.857242 
L 240.811211 286.739641 
L 240.811211 286.739641 
L 241.043772 295.488 
L 241.043772 295.488 
L 241.276332 286.358754 
L 241.276332 286.358754 
L 241.508893 285.340384 
L 241.508893 285.340384 
L 241.741454 285.451643 
L 241.741454 285.451643 
L 241.974014 285.766376 
L 241.974014 285.766376 
L 242.206575 284.627726 
L 242.206575 284.627726 
L 242.439135 284.514462 
L 242.439135 284.514462 
L 242.904256 282.616044 
L 242.904256 282.616044 
L 243.369377 281.015319 
L 243.369377 281.015319 
L 243.834499 277.113238 
L 243.834499 277.113238 
L 244.067059 275.660858 
L 244.067059 275.660858 
L 244.53218 271.032086 
L 244.53218 271.032086 
L 244.997301 267.612127 
L 244.997301 267.612127 
L 245.462423 262.919205 
L 245.462423 262.919205 
L 246.392665 256.823018 
L 246.392665 256.823018 
L 246.857786 255.673343 
L 246.857786 255.673343 
L 247.090346 253.971382 
L 247.090346 253.971382 
L 247.788028 251.680049 
L 247.788028 251.680049 
L 248.48571 246.495985 
L 248.48571 246.495985 
L 248.950831 243.420828 
L 248.950831 243.420828 
L 249.415952 239.033618 
L 249.415952 239.033618 
L 249.881073 236.583917 
L 249.881073 236.583917 
L 250.113634 236.001562 
L 250.113634 236.001562 
L 250.346194 234.526129 
L 250.346194 234.526129 
L 250.578755 234.413867 
L 250.578755 234.413867 
L 250.811315 234.645406 
L 250.811315 234.645406 
L 251.276437 236.058695 
L 251.276437 236.058695 
L 251.508997 235.582587 
L 251.508997 235.582587 
L 252.206679 237.750633 
L 252.206679 237.750633 
L 252.439239 237.13921 
L 252.904361 237.248464 
L 252.904361 237.248464 
L 253.369482 237.571215 
L 253.369482 237.571215 
L 253.602042 236.684151 
L 253.602042 236.684151 
L 253.834603 236.82548 
L 253.834603 236.82548 
L 254.299724 237.630353 
L 254.299724 237.630353 
L 254.532284 238.27385 
L 254.532284 238.27385 
L 254.764845 237.880936 
L 254.764845 237.880936 
L 255.462527 239.801405 
L 255.462527 239.801405 
L 255.695087 240.513061 
L 255.695087 240.513061 
L 255.927648 239.97982 
L 255.927648 239.97982 
L 256.160208 240.123154 
L 256.392769 240.115135 
L 256.392769 240.115135 
L 256.85789 239.648048 
L 256.85789 239.648048 
L 257.090451 238.281869 
L 257.090451 238.281869 
L 257.555572 237.519094 
L 257.555572 237.519094 
L 257.788132 237.523103 
L 257.788132 237.523103 
L 258.020693 237.770679 
L 258.020693 237.770679 
L 258.253253 237.033965 
L 258.253253 237.033965 
L 258.485814 237.31562 
L 258.485814 237.31562 
L 258.950935 238.586578 
L 258.950935 238.586578 
L 259.183496 239.511731 
L 259.183496 239.511731 
L 259.416056 239.379423 
L 259.416056 239.379423 
L 260.346299 242.163903 
L 260.346299 242.163903 
L 260.578859 241.416163 
L 260.578859 241.416163 
L 261.04398 241.366047 
L 261.04398 241.366047 
L 261.276541 241.456256 
L 261.276541 241.456256 
L 261.509101 241.700826 
L 261.509101 241.700826 
L 261.741662 240.918004 
L 261.741662 240.918004 
L 261.974222 241.316932 
L 261.974222 241.316932 
L 262.439344 242.867541 
L 262.439344 242.867541 
L 262.671904 243.989151 
L 262.671904 243.989151 
L 262.904465 244.011202 
L 262.904465 244.011202 
L 263.834707 248.978763 
L 263.834707 248.978763 
L 264.067268 248.781303 
L 264.067268 248.781303 
L 264.532389 249.779627 
L 264.532389 249.779627 
L 264.99751 250.302844 
L 264.99751 250.302844 
L 265.23007 249.049929 
L 265.23007 249.049929 
L 265.695191 248.836432 
L 265.695191 248.836432 
L 265.927752 249.004824 
L 266.160313 249.319556 
L 266.160313 249.319556 
L 266.392873 248.062631 
L 266.392873 248.062631 
L 267.323115 247.905265 
L 267.323115 247.905265 
L 267.555676 246.16722 
L 267.555676 246.16722 
L 268.020797 244.529408 
L 268.020797 244.529408 
L 268.485918 242.219032 
L 268.485918 242.219032 
L 268.951039 238.206694 
L 268.951039 238.206694 
L 269.41616 236.031632 
L 269.41616 236.031632 
L 269.648721 235.346037 
L 269.648721 235.346037 
L 269.881282 233.545847 
L 269.881282 233.545847 
L 270.113842 232.99256 
L 270.113842 232.99256 
L 270.346403 232.740974 
L 270.346403 232.740974 
L 270.578963 232.779063 
L 270.578963 232.779063 
L 270.811524 232.199715 
L 270.811524 232.199715 
L 271.044084 232.412209 
L 271.044084 232.412209 
L 271.509206 233.413539 
L 271.509206 233.413539 
L 271.741766 234.1272 
L 271.741766 234.1272 
L 271.974327 234.149252 
L 271.974327 234.149252 
L 272.672008 236.18098 
L 272.672008 236.18098 
L 272.904569 236.965806 
L 272.904569 236.965806 
L 273.137129 237.097112 
L 273.137129 237.097112 
L 273.834811 239.211031 
L 273.834811 239.211031 
L 274.067372 240.066021 
L 274.067372 240.066021 
L 274.299932 240.414833 
L 274.765053 242.279172 
L 274.765053 242.279172 
L 276.392977 250.194592 
L 276.392977 250.194592 
L 277.788341 254.795299 
L 277.788341 254.795299 
L 278.020901 255.264391 
L 278.020901 255.264391 
L 278.253462 255.473879 
L 278.253462 255.473879 
L 278.486022 255.366629 
L 278.486022 255.366629 
L 278.718583 254.890521 
L 278.718583 254.890521 
L 278.951144 255.806653 
L 278.951144 255.806653 
L 279.183704 256.039194 
L 279.183704 256.039194 
L 279.416265 256.533344 
L 279.416265 256.533344 
L 279.648825 257.420409 
L 279.648825 257.420409 
L 279.881386 258.822672 
L 279.881386 258.822672 
L 281.044189 283.549216 
L 281.044189 283.549216 
L 281.276749 290.660766 
L 281.276749 290.660766 
L 281.50931 288.894656 
L 282.206991 258.605166 
L 282.206991 258.605166 
L 282.904673 223.940494 
L 282.904673 223.940494 
L 285.230279 127.703529 
L 285.230279 127.703529 
L 285.462839 126.551849 
L 285.462839 126.551849 
L 285.6954 128.41719 
L 285.6954 128.41719 
L 285.92796 133.833796 
L 285.92796 133.833796 
L 286.160521 142.585162 
L 286.160521 142.585162 
L 287.090763 215.351505 
L 287.090763 215.351505 
L 287.555884 272.001341 
L 287.555884 272.001341 
L 287.788445 291.892633 
L 287.788445 291.892633 
L 288.253566 239.68313 
L 288.253566 239.68313 
L 288.718687 210.715717 
L 288.718687 210.715717 
L 288.951248 204.245659 
L 288.951248 204.245659 
L 289.183808 202.205912 
L 289.183808 202.205912 
L 289.416369 203.143093 
L 289.416369 203.143093 
L 289.648929 200.726469 
L 289.648929 200.726469 
L 290.114051 201.799968 
L 290.114051 201.799968 
L 290.346611 197.736511 
L 290.346611 197.736511 
L 290.811732 193.536737 
L 290.811732 193.536737 
L 291.276853 184.059682 
L 291.276853 184.059682 
L 291.974535 173.59132 
L 291.974535 173.59132 
L 292.207096 172.327379 
L 292.207096 172.327379 
L 292.439656 172.369477 
L 292.439656 172.369477 
L 292.672217 172.780433 
L 292.672217 172.780433 
L 292.904777 175.573934 
L 292.904777 175.573934 
L 293.369898 185.25346 
L 293.369898 185.25346 
L 294.532701 214.699989 
L 294.532701 214.699989 
L 294.997822 220.954545 
L 294.997822 220.954545 
L 296.393186 233.989881 
L 296.393186 233.989881 
L 297.090867 245.177918 
L 297.090867 245.177918 
L 297.323428 249.752564 
L 297.323428 249.752564 
L 298.951352 295.488 
L 298.951352 295.488 
L 299.649034 273.958897 
L 299.649034 273.958897 
L 300.346715 259.823 
L 300.346715 259.823 
L 300.811836 254.406394 
L 300.811836 254.406394 
L 301.044397 252.996112 
L 301.044397 252.996112 
L 301.276958 250.845106 
L 301.276958 250.845106 
L 301.509518 250.649651 
L 301.509518 250.649651 
L 301.742079 251.381354 
L 301.742079 251.381354 
L 301.974639 250.857134 
L 301.974639 250.857134 
L 302.2072 251.981752 
L 302.2072 251.981752 
L 302.43976 253.746859 
L 302.43976 253.746859 
L 302.672321 253.897209 
L 302.672321 253.897209 
L 304.067684 265.18548 
L 304.067684 265.18548 
L 304.997927 276.557946 
L 304.997927 276.557946 
L 305.230487 278.315035 
L 305.230487 278.315035 
L 306.39329 295.041962 
L 306.39329 295.041962 
L 307.090972 283.686535 
L 307.090972 283.686535 
L 307.323532 277.90909 
L 307.323532 277.90909 
L 307.556093 275.207804 
L 307.556093 275.207804 
L 308.253774 259.503256 
L 308.253774 259.503256 
L 308.718896 249.804685 
L 308.718896 249.804685 
L 308.951456 242.516724 
L 308.951456 242.516724 
L 309.184017 241.275837 
L 309.184017 241.275837 
L 309.416577 235.151584 
L 309.416577 235.151584 
L 309.649138 235.098461 
L 309.649138 235.098461 
L 309.881698 230.858593 
L 309.881698 230.858593 
L 310.114259 232.424237 
L 310.114259 232.424237 
L 310.346819 231.328687 
L 310.346819 231.328687 
L 310.57938 229.65379 
L 310.57938 229.65379 
L 310.811941 237.758651 
L 310.811941 237.758651 
L 311.044501 239.022593 
L 311.044501 239.022593 
L 311.277062 247.983447 
L 311.277062 247.983447 
L 311.509622 251.290142 
L 311.509622 251.290142 
L 311.742183 260.406357 
L 311.742183 260.406357 
L 311.974743 264.260326 
L 311.974743 264.260326 
L 312.207304 272.088544 
L 312.207304 272.088544 
L 312.439865 275.536569 
L 312.439865 275.536569 
L 312.672425 281.605693 
L 312.672425 281.605693 
L 312.904986 284.148611 
L 312.904986 284.148611 
L 313.137546 284.081455 
L 313.137546 284.081455 
L 313.370107 289.733608 
L 313.370107 289.733608 
L 313.602667 288.779388 
L 313.602667 288.779388 
L 313.835228 292.691492 
L 313.835228 292.691492 
L 314.067788 291.591933 
L 314.067788 291.591933 
L 314.300349 294.822451 
L 314.53291 294.483663 
L 314.53291 294.483663 
L 314.76547 293.662752 
L 314.76547 293.662752 
L 314.998031 295.488 
L 314.998031 295.488 
L 315.230591 294.120818 
L 315.230591 294.120818 
L 315.463152 289.307617 
L 315.463152 289.307617 
L 315.695712 289.452955 
L 315.695712 289.452955 
L 315.928273 285.318333 
L 315.928273 285.318333 
L 316.160834 285.107843 
L 316.160834 285.107843 
L 316.393394 281.66884 
L 316.393394 281.66884 
L 316.625955 281.270914 
L 316.625955 281.270914 
L 316.858515 278.803171 
L 316.858515 278.803171 
L 317.091076 278.332074 
L 317.091076 278.332074 
L 317.323636 278.757064 
L 317.323636 278.757064 
L 317.556197 275.861324 
L 317.556197 275.861324 
L 317.788757 275.860322 
L 317.788757 275.860322 
L 318.021318 273.518873 
L 318.021318 273.518873 
L 318.253879 273.080854 
L 318.253879 273.080854 
L 318.486439 271.140338 
L 318.486439 271.140338 
L 318.95156 269.831291 
L 318.95156 269.831291 
L 319.184121 267.929866 
L 319.184121 267.929866 
L 319.416681 267.421684 
L 319.416681 267.421684 
L 319.649242 266.001378 
L 319.649242 266.001378 
L 321.044605 261.955964 
L 321.044605 261.955964 
L 321.277166 261.695357 
L 321.277166 261.695357 
L 321.509726 261.149086 
L 321.509726 261.149086 
L 322.439969 260.354236 
L 322.439969 260.354236 
L 322.90509 260.338199 
L 322.90509 260.338199 
L 323.13765 259.830016 
L 323.13765 259.830016 
L 324.067893 259.482207 
L 324.067893 259.482207 
L 324.300453 259.682673 
L 324.300453 259.682673 
L 324.998135 260.916545 
L 324.998135 260.916545 
L 326.160938 265.278696 
L 326.160938 265.278696 
L 326.626059 267.272336 
L 326.626059 267.272336 
L 326.858619 267.087907 
L 326.858619 267.087907 
L 327.09118 267.374574 
L 327.09118 267.374574 
L 327.323741 267.426695 
L 327.323741 267.426695 
L 327.556301 267.20117 
L 327.556301 267.20117 
L 328.253983 263.919533 
L 328.253983 263.919533 
L 328.719104 260.299108 
L 328.719104 260.299108 
L 330.347028 243.098077 
L 330.347028 243.098077 
L 330.812149 240.321616 
L 330.812149 240.321616 
L 331.04471 239.771335 
L 331.04471 239.771335 
L 331.974952 249.688414 
L 331.974952 249.688414 
L 332.207512 253.853107 
L 332.207512 253.853107 
L 333.137755 287.950459 
L 333.137755 287.950459 
L 333.370315 291.230091 
L 334.300557 254.287117 
L 334.300557 254.287117 
L 334.765679 241.698821 
L 334.765679 241.698821 
L 335.2308 234.138226 
L 335.2308 234.138226 
L 335.46336 231.707569 
L 335.46336 231.707569 
L 335.928481 230.284257 
L 335.928481 230.284257 
L 336.161042 229.291948 
L 336.161042 229.291948 
L 336.393603 230.4316 
L 336.393603 230.4316 
L 336.626163 230.256192 
L 336.626163 230.256192 
L 336.858724 229.11253 
L 336.858724 229.11253 
L 337.091284 231.018967 
L 337.091284 231.018967 
L 337.323845 230.486728 
L 337.323845 230.486728 
L 337.556405 228.535186 
L 337.556405 228.535186 
L 337.788966 231.550203 
L 337.788966 231.550203 
L 338.021526 230.984887 
L 338.021526 230.984887 
L 338.254087 229.081458 
L 338.254087 229.081458 
L 338.486648 234.919043 
L 338.486648 234.919043 
L 338.719208 235.337016 
L 338.719208 235.337016 
L 339.184329 245.180925 
L 339.184329 245.180925 
L 339.41689 248.492632 
L 339.41689 248.492632 
L 339.882011 263.05452 
L 339.882011 263.05452 
L 340.347132 277.153331 
L 340.347132 277.153331 
L 340.579693 281.361124 
L 340.579693 281.361124 
L 340.812253 289.323654 
L 340.812253 289.323654 
L 341.044814 292.926038 
L 341.044814 292.926038 
L 341.277374 292.454941 
L 341.277374 292.454941 
L 341.509935 289.499062 
L 341.509935 289.499062 
L 341.742495 288.259177 
L 341.742495 288.259177 
L 341.975056 283.853925 
L 341.975056 283.853925 
L 342.207617 283.283598 
L 342.207617 283.283598 
L 342.440177 284.267888 
L 342.672738 280.592335 
L 342.672738 280.592335 
L 342.905298 281.432289 
L 342.905298 281.432289 
L 343.137859 279.210118 
L 343.137859 279.210118 
L 343.370419 279.859629 
L 343.370419 279.859629 
L 343.60298 281.656812 
L 343.835541 278.917437 
L 343.835541 278.917437 
L 344.068101 280.136273 
L 344.068101 280.136273 
L 344.300662 278.43331 
L 344.300662 278.43331 
L 344.533222 279.206109 
L 344.533222 279.206109 
L 344.765783 280.91709 
L 344.765783 280.91709 
L 344.998343 278.545571 
L 344.998343 278.545571 
L 345.230904 279.320374 
L 345.230904 279.320374 
L 345.463464 277.691584 
L 345.463464 277.691584 
L 345.696025 277.717645 
L 345.696025 277.717645 
L 345.928586 278.286969 
L 345.928586 278.286969 
L 346.161146 275.482443 
L 346.161146 275.482443 
L 346.393707 274.979272 
L 346.393707 274.979272 
L 346.626267 274.907104 
L 346.626267 274.907104 
L 346.858828 271.002016 
L 346.858828 271.002016 
L 347.091388 270.044788 
L 347.091388 270.044788 
L 347.323949 267.015739 
L 347.323949 267.015739 
L 347.55651 265.888115 
L 347.55651 265.888115 
L 347.78907 265.618487 
L 347.78907 265.618487 
L 348.021631 262.914194 
L 348.021631 262.914194 
L 348.254191 263.1748 
L 348.254191 263.1748 
L 348.486752 262.080253 
L 348.486752 262.080253 
L 348.719312 263.093611 
L 348.719312 263.093611 
L 348.951873 265.364897 
L 348.951873 265.364897 
L 349.184433 265.742776 
L 349.184433 265.742776 
L 349.416994 268.932199 
L 349.416994 268.932199 
L 349.649555 270.329451 
L 349.649555 270.329451 
L 350.114676 275.792164 
L 350.114676 275.792164 
L 350.347236 279.15499 
L 350.347236 279.15499 
L 350.579797 280.399887 
L 350.579797 280.399887 
L 350.812357 282.636091 
L 350.812357 282.636091 
L 351.044918 282.35644 
L 351.044918 282.35644 
L 351.277479 282.932781 
L 351.277479 282.932781 
L 351.7426 278.393217 
L 351.7426 278.393217 
L 351.97516 275.457384 
L 351.97516 275.457384 
L 352.672842 259.547358 
L 352.672842 259.547358 
L 353.370524 234.886968 
L 353.370524 234.886968 
L 354.068205 197.384692 
L 354.068205 197.384692 
L 354.300766 194.813709 
L 354.300766 194.813709 
L 354.533326 189.222698 
L 354.533326 189.222698 
L 354.765887 177.299951 
L 354.765887 177.299951 
L 354.998448 174.77708 
L 354.998448 174.77708 
L 355.231008 161.798877 
L 355.463569 161.317757 
L 355.463569 161.317757 
L 355.696129 146.428105 
L 355.696129 146.428105 
L 355.92869 147.294121 
L 355.92869 147.294121 
L 356.16125 144.738173 
L 356.16125 144.738173 
L 356.393811 132.786358 
L 356.393811 132.786358 
L 356.626371 131.823117 
L 356.626371 131.823117 
L 356.858932 118.555239 
L 356.858932 118.555239 
L 357.091493 120.733308 
L 357.091493 120.733308 
L 357.324053 120.492748 
L 357.324053 120.492748 
L 357.556614 111.454715 
L 357.556614 111.454715 
L 357.789174 113.574648 
L 357.789174 113.574648 
L 358.021735 113.121594 
L 358.021735 113.121594 
L 358.254295 107.362191 
L 358.254295 107.362191 
L 358.486856 109.710656 
L 358.486856 109.710656 
L 358.719417 101.970643 
L 358.719417 101.970643 
L 358.951977 106.462096 
L 358.951977 106.462096 
L 359.184538 107.444382 
L 359.184538 107.444382 
L 359.417098 101.190829 
L 359.417098 101.190829 
L 359.649659 103.413 
L 359.649659 103.413 
L 359.882219 94.546365 
L 359.882219 94.546365 
L 360.11478 98.715067 
L 360.11478 98.715067 
L 360.34734 99.50691 
L 360.34734 99.50691 
L 360.579901 93.332541 
L 360.579901 93.332541 
L 360.812462 95.366274 
L 360.812462 95.366274 
L 361.045022 86.403415 
L 361.045022 86.403415 
L 361.277583 89.8775 
L 361.277583 89.8775 
L 361.510143 89.988759 
L 361.510143 89.988759 
L 361.742704 83.085694 
L 361.742704 83.085694 
L 361.975264 85.154509 
L 361.975264 85.154509 
L 362.207825 77.001535 
L 362.207825 77.001535 
L 362.672946 86.229009 
L 362.672946 86.229009 
L 362.905507 83.267116 
L 362.905507 83.267116 
L 363.138067 88.952347 
L 363.138067 88.952347 
L 363.370628 84.23136 
L 363.370628 84.23136 
L 363.835749 99.722411 
L 363.835749 99.722411 
L 364.068309 99.551012 
L 364.068309 99.551012 
L 364.30087 107.763124 
L 364.30087 107.763124 
L 364.533431 105.097921 
L 364.533431 105.097921 
L 364.998552 123.521798 
L 364.998552 123.521798 
L 365.231112 125.049353 
L 365.231112 125.049353 
L 365.463673 134.495335 
L 365.463673 134.495335 
L 365.696233 135.955734 
L 365.696233 135.955734 
L 366.161355 155.579403 
L 366.161355 155.579403 
L 366.393915 161.015052 
L 366.393915 161.015052 
L 367.324157 197.032874 
L 367.324157 197.032874 
L 369.184642 258.724443 
L 369.184642 258.724443 
L 369.882324 272.345142 
L 369.882324 272.345142 
L 370.347445 277.647481 
L 370.347445 277.647481 
L 370.812566 280.134269 
L 370.812566 280.134269 
L 371.045126 280.674526 
L 371.045126 280.674526 
L 371.277687 280.635435 
L 371.277687 280.635435 
L 371.975369 278.421282 
L 371.975369 278.421282 
L 372.207929 278.706947 
L 372.207929 278.706947 
L 372.44049 277.419952 
L 372.44049 277.419952 
L 372.67305 278.251888 
L 372.67305 278.251888 
L 372.905611 276.989951 
L 372.905611 276.989951 
L 373.138171 278.689907 
L 373.138171 278.689907 
L 373.370732 277.232516 
L 373.370732 277.232516 
L 373.603293 278.980584 
L 373.603293 278.980584 
L 373.835853 276.476757 
L 373.835853 276.476757 
L 374.068414 277.434987 
L 374.068414 277.434987 
L 374.300974 273.520878 
L 374.300974 273.520878 
L 374.533535 272.920481 
L 374.533535 272.920481 
L 374.766095 266.980657 
L 374.766095 266.980657 
L 374.998656 264.645222 
L 374.998656 264.645222 
L 375.231216 257.044534 
L 375.231216 257.044534 
L 375.463777 253.314854 
L 375.463777 253.314854 
L 375.696338 244.864187 
L 375.696338 244.864187 
L 375.928898 240.798726 
L 375.928898 240.798726 
L 376.161459 233.087781 
L 376.161459 233.087781 
L 376.394019 230.368453 
L 376.394019 230.368453 
L 376.62658 225.028024 
L 376.62658 225.028024 
L 376.85914 224.807511 
L 376.85914 224.807511 
L 377.324262 220.84529 
L 377.324262 220.84529 
L 377.556822 229.196726 
L 377.556822 229.196726 
L 377.789383 231.490063 
L 377.789383 231.490063 
L 378.021943 243.513043 
L 378.021943 243.513043 
L 378.254504 249.209299 
L 378.254504 249.209299 
L 378.487064 263.822307 
L 378.487064 263.822307 
L 378.719625 271.009032 
L 378.952185 285.849569 
L 378.952185 285.849569 
L 379.184746 292.009906 
L 379.184746 292.009906 
L 379.417307 285.958824 
L 379.417307 285.958824 
L 379.649867 283.052059 
L 379.649867 283.052059 
L 379.882428 272.940527 
L 379.882428 272.940527 
L 380.114988 272.535585 
L 380.347549 265.147391 
L 380.347549 265.147391 
L 380.580109 266.283034 
L 380.580109 266.283034 
L 380.81267 261.78657 
L 380.81267 261.78657 
L 381.045231 263.502563 
L 381.045231 263.502563 
L 381.277791 260.752162 
L 381.277791 260.752162 
L 381.510352 262.05319 
L 381.510352 262.05319 
L 381.742912 259.520295 
L 381.742912 259.520295 
L 381.975473 259.130388 
L 381.975473 259.130388 
L 382.905715 245.037591 
L 382.905715 245.037591 
L 383.603397 231.659457 
L 383.603397 231.659457 
L 384.068518 229.103509 
L 384.068518 229.103509 
L 384.533639 232.771044 
L 384.533639 232.771044 
L 384.7662 235.925385 
L 384.7662 235.925385 
L 385.696442 261.141067 
L 385.696442 261.141067 
L 386.859245 294.603943 
L 386.859245 294.603943 
L 387.556926 277.953193 
L 387.556926 277.953193 
L 388.022047 269.394274 
L 388.022047 269.394274 
L 388.719729 263.243961 
L 388.719729 263.243961 
L 388.95229 262.304775 
L 388.95229 262.304775 
L 389.882532 268.02609 
L 389.882532 268.02609 
L 391.045335 292.444918 
L 391.045335 292.444918 
L 391.277895 292.704522 
L 391.277895 292.704522 
L 393.37094 240.825789 
L 393.37094 240.825789 
L 394.068622 230.437614 
L 394.068622 230.437614 
L 394.533743 227.815512 
L 394.533743 227.815512 
L 394.766304 227.53987 
L 394.766304 227.53987 
L 394.998864 228.06409 
L 394.998864 228.06409 
L 395.231425 229.398195 
L 395.231425 229.398195 
L 395.696546 236.456621 
L 395.696546 236.456621 
L 396.161667 246.656358 
L 396.161667 246.656358 
L 396.626788 262.016104 
L 396.626788 262.016104 
L 397.091909 281.970542 
L 397.091909 281.970542 
L 397.32447 294.208021 
L 397.32447 294.208021 
L 397.789591 266.018418 
L 397.789591 266.018418 
L 398.022152 248.097713 
L 398.022152 248.097713 
L 398.254712 220.804195 
L 398.254712 220.804195 
L 398.487273 146.002114 
L 398.487273 146.002114 
" clip-path="url(#p4304a65a25)" style="fill: none; stroke: #1f77b4; stroke-width: 1.5; stroke-linecap: square"/>
   </g>
   <g id="patch_3">
    <path d="M 57.6 307.584 
L 57.6 41.472 
" style="fill: none; stroke: #000000; stroke-width: 0.8; stroke-linejoin: miter; stroke-linecap: square"/>
   </g>
   <g id="patch_4">
    <path d="M 414.72 307.584 
L 414.72 41.472 
" style="fill: none; stroke: #000000; stroke-width: 0.8; stroke-linejoin: miter; stroke-linecap: square"/>
   </g>
   <g id="patch_5">
    <path d="M 57.6 307.584 
L 414.72 307.584 
" style="fill: none; stroke: #000000; stroke-width: 0.8; stroke-linejoin: miter; stroke-linecap: square"/>
   </g>
   <g id="patch_6">
    <path d="M 57.6 41.472 
L 414.72 41.472 
" style="fill: none; stroke: #000000; stroke-width: 0.8; stroke-linejoin: miter; stroke-linecap: square"/>
   </g>
   <g id="text_15">
    <!-- Tracking error vs Time -->
    <g transform="translate(169.584375 35.472) scale(0.12 -0.12)">
     <defs>
      <path id="DejaVuSans-76" d="M 191 3500 
L 800 3500 
L 1894 563 
L 2988 3500 
L 3597 3500 
L 2284 0 
L 1503 0 
L 191 3500 
z
" transform="scale(0.015625)"/>
     </defs>
     <use xlink:href="#DejaVuSans-54"/>
     <use xlink:href="#DejaVuSans-72" x="46.333984"/>
     <use xlink:href="#DejaVuSans-61" x="87.447266"/>
     <use xlink:href="#DejaVuSans-63" x="148.726562"/>
     <use xlink:href="#DejaVuSans-6b" x="203.707031"/>
     <use xlink:href="#DejaVuSans-69" x="261.617188"/>
     <use xlink:href="#DejaVuSans-6e" x="289.400391"/>
     <use xlink:href="#DejaVuSans-67" x="352.779297"/>
     <use xlink:href="#DejaVuSans-20" x="416.255859"/>
     <use xlink:href="#DejaVuSans-65" x="448.042969"/>
     <use xlink:href="#DejaVuSans-72" x="509.566406"/>
     <use xlink:href="#DejaVuSans-72" x="548.929688"/>
     <use xlink:href="#DejaVuSans-6f" x="587.792969"/>
     <use xlink:href="#DejaVuSans-72" x="648.974609"/>
     <use xlink:href="#DejaVuSans-20" x="690.087891"/>
     <use xlink:href="#DejaVuSans-76" x="721.875"/>
     <use xlink:href="#DejaVuSans-73" x="781.054688"/>
     <use xlink:href="#DejaVuSans-20" x="833.154297"/>
     <use xlink:href="#DejaVuSans-54" x="864.941406"/>
     <use xlink:href="#DejaVuSans-69" x="922.900391"/>
     <use xlink:href="#DejaVuSans-6d" x="950.683594"/>
     <use xlink:href="#DejaVuSans-65" x="1048.095703"/>
    </g>
   </g>
   <g id="legend_1">
    <g id="patch_7">
     <path d="M 311.00125 64.150125 
L 407.72 64.150125 
Q 409.72 64.150125 409.72 62.150125 
L 409.72 48.472 
Q 409.72 46.472 407.72 46.472 
L 311.00125 46.472 
Q 309.00125 46.472 309.00125 48.472 
L 309.00125 62.150125 
Q 309.00125 64.150125 311.00125 64.150125 
z
" style="fill: #ffffff; opacity: 0.8; stroke: #cccccc; stroke-linejoin: miter"/>
    </g>
    <g id="line2d_26">
     <path d="M 313.00125 54.570438 
L 323.00125 54.570438 
L 333.00125 54.570438 
" style="fill: none; stroke: #1f77b4; stroke-width: 1.5; stroke-linecap: square"/>
    </g>
    <g id="text_16">
     <!-- Actual speed -->
     <g transform="translate(341.00125 58.070438) scale(0.1 -0.1)">
      <defs>
       <path id="DejaVuSans-41" d="M 2188 4044 
L 1331 1722 
L 3047 1722 
L 2188 4044 
z
M 1831 4666 
L 2547 4666 
L 4325 0 
L 3669 0 
L 3244 1197 
L 1141 1197 
L 716 0 
L 50 0 
L 1831 4666 
z
" transform="scale(0.015625)"/>
       <path id="DejaVuSans-74" d="M 1172 4494 
L 1172 3500 
L 2356 3500 
L 2356 3053 
L 1172 3053 
L 1172 1153 
Q 1172 725 1289 603 
Q 1406 481 1766 481 
L 2356 481 
L 2356 0 
L 1766 0 
Q 1100 0 847 248 
Q 594 497 594 1153 
L 594 3053 
L 172 3053 
L 172 3500 
L 594 3500 
L 594 4494 
L 1172 4494 
z
" transform="scale(0.015625)"/>
       <path id="DejaVuSans-75" d="M 544 1381 
L 544 3500 
L 1119 3500 
L 1119 1403 
Q 1119 906 1312 657 
Q 1506 409 1894 409 
Q 2359 409 2629 706 
Q 2900 1003 2900 1516 
L 2900 3500 
L 3475 3500 
L 3475 0 
L 2900 0 
L 2900 538 
Q 2691 219 2414 64 
Q 2138 -91 1772 -91 
Q 1169 -91 856 284 
Q 544 659 544 1381 
z
M 1991 3584 
L 1991 3584 
z
" transform="scale(0.015625)"/>
       <path id="DejaVuSans-6c" d="M 603 4863 
L 1178 4863 
L 1178 0 
L 603 0 
L 603 4863 
z
" transform="scale(0.015625)"/>
       <path id="DejaVuSans-70" d="M 1159 525 
L 1159 -1331 
L 581 -1331 
L 581 3500 
L 1159 3500 
L 1159 2969 
Q 1341 3281 1617 3432 
Q 1894 3584 2278 3584 
Q 2916 3584 3314 3078 
Q 3713 2572 3713 1747 
Q 3713 922 3314 415 
Q 2916 -91 2278 -91 
Q 1894 -91 1617 61 
Q 1341 213 1159 525 
z
M 3116 1747 
Q 3116 2381 2855 2742 
Q 2594 3103 2138 3103 
Q 1681 3103 1420 2742 
Q 1159 2381 1159 1747 
Q 1159 1113 1420 752 
Q 1681 391 2138 391 
Q 2594 391 2855 752 
Q 3116 1113 3116 1747 
z
" transform="scale(0.015625)"/>
       <path id="DejaVuSans-64" d="M 2906 2969 
L 2906 4863 
L 3481 4863 
L 3481 0 
L 2906 0 
L 2906 525 
Q 2725 213 2448 61 
Q 2172 -91 1784 -91 
Q 1150 -91 751 415 
Q 353 922 353 1747 
Q 353 2572 751 3078 
Q 1150 3584 1784 3584 
Q 2172 3584 2448 3432 
Q 2725 3281 2906 2969 
z
M 947 1747 
Q 947 1113 1208 752 
Q 1469 391 1925 391 
Q 2381 391 2643 752 
Q 2906 1113 2906 1747 
Q 2906 2381 2643 2742 
Q 2381 3103 1925 3103 
Q 1469 3103 1208 2742 
Q 947 2381 947 1747 
z
" transform="scale(0.015625)"/>
      </defs>
      <use xlink:href="#DejaVuSans-41"/>
      <use xlink:href="#DejaVuSans-63" x="66.658203"/>
      <use xlink:href="#DejaVuSans-74" x="121.638672"/>
      <use xlink:href="#DejaVuSans-75" x="160.847656"/>
      <use xlink:href="#DejaVuSans-61" x="224.226562"/>
      <use xlink:href="#DejaVuSans-6c" x="285.505859"/>
      <use xlink:href="#DejaVuSans-20" x="313.289062"/>
      <use xlink:href="#DejaVuSans-73" x="345.076172"/>
      <use xlink:href="#DejaVuSans-70" x="397.175781"/>
      <use xlink:href="#DejaVuSans-65" x="460.652344"/>
      <use xlink:href="#DejaVuSans-65" x="522.175781"/>
      <use xlink:href="#DejaVuSans-64" x="583.699219"/>
     </g>
    </g>
   </g>
  </g>
 </g>
 <defs>
  <clipPath id="p4304a65a25">
   <rect x="57.6" y="41.472" width="357.12" height="266.112"/>
  </clipPath>
 </defs>
</svg>
