<?xml version="1.0" encoding="utf-8" standalone="no"?>
<!DOCTYPE svg PUBLIC "-//W3C//DTD SVG 1.1//EN"
  "http://www.w3.org/Graphics/SVG/1.1/DTD/svg11.dtd">
<svg xmlns:xlink="http://www.w3.org/1999/xlink" width="460.8pt" height="345.6pt" viewBox="0 0 460.8 345.6" xmlns="http://www.w3.org/2000/svg" version="1.1">
 <metadata>
  <rdf:RDF xmlns:dc="http://purl.org/dc/elements/1.1/" xmlns:cc="http://creativecommons.org/ns#" xmlns:rdf="http://www.w3.org/1999/02/22-rdf-syntax-ns#">
   <cc:Work>
    <dc:type rdf:resource="http://purl.org/dc/dcmitype/StillImage"/>
    <dc:date>2024-01-30T20:58:26.422120</dc:date>
    <dc:format>image/svg+xml</dc:format>
    <dc:creator>
     <cc:Agent>
      <dc:title>Matplotlib v3.7.1, https://matplotlib.org/</dc:title>
     </cc:Agent>
    </dc:creator>
   </cc:Work>
  </rdf:RDF>
 </metadata>
 <defs>
  <style type="text/css">*{stroke-linejoin: round; stroke-linecap: butt}</style>
 </defs>
 <g id="figure_1">
  <g id="patch_1">
   <path d="M 0 345.6 
L 460.8 345.6 
L 460.8 0 
L 0 0 
z
" style="fill: #ffffff"/>
  </g>
  <g id="axes_1">
   <g id="patch_2">
    <path d="M 57.6 307.584 
L 414.72 307.584 
L 414.72 41.472 
L 57.6 41.472 
z
" style="fill: #ffffff"/>
   </g>
   <g id="matplotlib.axis_1">
    <g id="xtick_1">
     <g id="line2d_1">
      <path d="M 73.832727 307.584 
L 73.832727 41.472 
" clip-path="url(#pc46162e9e6)" style="fill: none; stroke: #b0b0b0; stroke-width: 0.8; stroke-linecap: square"/>
     </g>
     <g id="line2d_2">
      <defs>
       <path id="m6d100da0b5" d="M 0 0 
L 0 3.5 
" style="stroke: #000000; stroke-width: 0.8"/>
      </defs>
      <g>
       <use xlink:href="#m6d100da0b5" x="73.832727" y="307.584" style="stroke: #000000; stroke-width: 0.8"/>
      </g>
     </g>
     <g id="text_1">
      <!-- 0 -->
      <g transform="translate(70.651477 322.182437) scale(0.1 -0.1)">
       <defs>
        <path id="DejaVuSans-30" d="M 2034 4250 
Q 1547 4250 1301 3770 
Q 1056 3291 1056 2328 
Q 1056 1369 1301 889 
Q 1547 409 2034 409 
Q 2525 409 2770 889 
Q 3016 1369 3016 2328 
Q 3016 3291 2770 3770 
Q 2525 4250 2034 4250 
z
M 2034 4750 
Q 2819 4750 3233 4129 
Q 3647 3509 3647 2328 
Q 3647 1150 3233 529 
Q 2819 -91 2034 -91 
Q 1250 -91 836 529 
Q 422 1150 422 2328 
Q 422 3509 836 4129 
Q 1250 4750 2034 4750 
z
" transform="scale(0.015625)"/>
       </defs>
       <use xlink:href="#DejaVuSans-30"/>
      </g>
     </g>
    </g>
    <g id="xtick_2">
     <g id="line2d_3">
      <path d="M 113.864114 307.584 
L 113.864114 41.472 
" clip-path="url(#pc46162e9e6)" style="fill: none; stroke: #b0b0b0; stroke-width: 0.8; stroke-linecap: square"/>
     </g>
     <g id="line2d_4">
      <g>
       <use xlink:href="#m6d100da0b5" x="113.864114" y="307.584" style="stroke: #000000; stroke-width: 0.8"/>
      </g>
     </g>
     <g id="text_2">
      <!-- 2 -->
      <g transform="translate(110.682864 322.182437) scale(0.1 -0.1)">
       <defs>
        <path id="DejaVuSans-32" d="M 1228 531 
L 3431 531 
L 3431 0 
L 469 0 
L 469 531 
Q 828 903 1448 1529 
Q 2069 2156 2228 2338 
Q 2531 2678 2651 2914 
Q 2772 3150 2772 3378 
Q 2772 3750 2511 3984 
Q 2250 4219 1831 4219 
Q 1534 4219 1204 4116 
Q 875 4013 500 3803 
L 500 4441 
Q 881 4594 1212 4672 
Q 1544 4750 1819 4750 
Q 2544 4750 2975 4387 
Q 3406 4025 3406 3419 
Q 3406 3131 3298 2873 
Q 3191 2616 2906 2266 
Q 2828 2175 2409 1742 
Q 1991 1309 1228 531 
z
" transform="scale(0.015625)"/>
       </defs>
       <use xlink:href="#DejaVuSans-32"/>
      </g>
     </g>
    </g>
    <g id="xtick_3">
     <g id="line2d_5">
      <path d="M 153.895501 307.584 
L 153.895501 41.472 
" clip-path="url(#pc46162e9e6)" style="fill: none; stroke: #b0b0b0; stroke-width: 0.8; stroke-linecap: square"/>
     </g>
     <g id="line2d_6">
      <g>
       <use xlink:href="#m6d100da0b5" x="153.895501" y="307.584" style="stroke: #000000; stroke-width: 0.8"/>
      </g>
     </g>
     <g id="text_3">
      <!-- 4 -->
      <g transform="translate(150.714251 322.182437) scale(0.1 -0.1)">
       <defs>
        <path id="DejaVuSans-34" d="M 2419 4116 
L 825 1625 
L 2419 1625 
L 2419 4116 
z
M 2253 4666 
L 3047 4666 
L 3047 1625 
L 3713 1625 
L 3713 1100 
L 3047 1100 
L 3047 0 
L 2419 0 
L 2419 1100 
L 313 1100 
L 313 1709 
L 2253 4666 
z
" transform="scale(0.015625)"/>
       </defs>
       <use xlink:href="#DejaVuSans-34"/>
      </g>
     </g>
    </g>
    <g id="xtick_4">
     <g id="line2d_7">
      <path d="M 193.926887 307.584 
L 193.926887 41.472 
" clip-path="url(#pc46162e9e6)" style="fill: none; stroke: #b0b0b0; stroke-width: 0.8; stroke-linecap: square"/>
     </g>
     <g id="line2d_8">
      <g>
       <use xlink:href="#m6d100da0b5" x="193.926887" y="307.584" style="stroke: #000000; stroke-width: 0.8"/>
      </g>
     </g>
     <g id="text_4">
      <!-- 6 -->
      <g transform="translate(190.745637 322.182437) scale(0.1 -0.1)">
       <defs>
        <path id="DejaVuSans-36" d="M 2113 2584 
Q 1688 2584 1439 2293 
Q 1191 2003 1191 1497 
Q 1191 994 1439 701 
Q 1688 409 2113 409 
Q 2538 409 2786 701 
Q 3034 994 3034 1497 
Q 3034 2003 2786 2293 
Q 2538 2584 2113 2584 
z
M 3366 4563 
L 3366 3988 
Q 3128 4100 2886 4159 
Q 2644 4219 2406 4219 
Q 1781 4219 1451 3797 
Q 1122 3375 1075 2522 
Q 1259 2794 1537 2939 
Q 1816 3084 2150 3084 
Q 2853 3084 3261 2657 
Q 3669 2231 3669 1497 
Q 3669 778 3244 343 
Q 2819 -91 2113 -91 
Q 1303 -91 875 529 
Q 447 1150 447 2328 
Q 447 3434 972 4092 
Q 1497 4750 2381 4750 
Q 2619 4750 2861 4703 
Q 3103 4656 3366 4563 
z
" transform="scale(0.015625)"/>
       </defs>
       <use xlink:href="#DejaVuSans-36"/>
      </g>
     </g>
    </g>
    <g id="xtick_5">
     <g id="line2d_9">
      <path d="M 233.958274 307.584 
L 233.958274 41.472 
" clip-path="url(#pc46162e9e6)" style="fill: none; stroke: #b0b0b0; stroke-width: 0.8; stroke-linecap: square"/>
     </g>
     <g id="line2d_10">
      <g>
       <use xlink:href="#m6d100da0b5" x="233.958274" y="307.584" style="stroke: #000000; stroke-width: 0.8"/>
      </g>
     </g>
     <g id="text_5">
      <!-- 8 -->
      <g transform="translate(230.777024 322.182437) scale(0.1 -0.1)">
       <defs>
        <path id="DejaVuSans-38" d="M 2034 2216 
Q 1584 2216 1326 1975 
Q 1069 1734 1069 1313 
Q 1069 891 1326 650 
Q 1584 409 2034 409 
Q 2484 409 2743 651 
Q 3003 894 3003 1313 
Q 3003 1734 2745 1975 
Q 2488 2216 2034 2216 
z
M 1403 2484 
Q 997 2584 770 2862 
Q 544 3141 544 3541 
Q 544 4100 942 4425 
Q 1341 4750 2034 4750 
Q 2731 4750 3128 4425 
Q 3525 4100 3525 3541 
Q 3525 3141 3298 2862 
Q 3072 2584 2669 2484 
Q 3125 2378 3379 2068 
Q 3634 1759 3634 1313 
Q 3634 634 3220 271 
Q 2806 -91 2034 -91 
Q 1263 -91 848 271 
Q 434 634 434 1313 
Q 434 1759 690 2068 
Q 947 2378 1403 2484 
z
M 1172 3481 
Q 1172 3119 1398 2916 
Q 1625 2713 2034 2713 
Q 2441 2713 2670 2916 
Q 2900 3119 2900 3481 
Q 2900 3844 2670 4047 
Q 2441 4250 2034 4250 
Q 1625 4250 1398 4047 
Q 1172 3844 1172 3481 
z
" transform="scale(0.015625)"/>
       </defs>
       <use xlink:href="#DejaVuSans-38"/>
      </g>
     </g>
    </g>
    <g id="xtick_6">
     <g id="line2d_11">
      <path d="M 273.98966 307.584 
L 273.98966 41.472 
" clip-path="url(#pc46162e9e6)" style="fill: none; stroke: #b0b0b0; stroke-width: 0.8; stroke-linecap: square"/>
     </g>
     <g id="line2d_12">
      <g>
       <use xlink:href="#m6d100da0b5" x="273.98966" y="307.584" style="stroke: #000000; stroke-width: 0.8"/>
      </g>
     </g>
     <g id="text_6">
      <!-- 10 -->
      <g transform="translate(267.62716 322.182437) scale(0.1 -0.1)">
       <defs>
        <path id="DejaVuSans-31" d="M 794 531 
L 1825 531 
L 1825 4091 
L 703 3866 
L 703 4441 
L 1819 4666 
L 2450 4666 
L 2450 531 
L 3481 531 
L 3481 0 
L 794 0 
L 794 531 
z
" transform="scale(0.015625)"/>
       </defs>
       <use xlink:href="#DejaVuSans-31"/>
       <use xlink:href="#DejaVuSans-30" x="63.623047"/>
      </g>
     </g>
    </g>
    <g id="xtick_7">
     <g id="line2d_13">
      <path d="M 314.021047 307.584 
L 314.021047 41.472 
" clip-path="url(#pc46162e9e6)" style="fill: none; stroke: #b0b0b0; stroke-width: 0.8; stroke-linecap: square"/>
     </g>
     <g id="line2d_14">
      <g>
       <use xlink:href="#m6d100da0b5" x="314.021047" y="307.584" style="stroke: #000000; stroke-width: 0.8"/>
      </g>
     </g>
     <g id="text_7">
      <!-- 12 -->
      <g transform="translate(307.658547 322.182437) scale(0.1 -0.1)">
       <use xlink:href="#DejaVuSans-31"/>
       <use xlink:href="#DejaVuSans-32" x="63.623047"/>
      </g>
     </g>
    </g>
    <g id="xtick_8">
     <g id="line2d_15">
      <path d="M 354.052434 307.584 
L 354.052434 41.472 
" clip-path="url(#pc46162e9e6)" style="fill: none; stroke: #b0b0b0; stroke-width: 0.8; stroke-linecap: square"/>
     </g>
     <g id="line2d_16">
      <g>
       <use xlink:href="#m6d100da0b5" x="354.052434" y="307.584" style="stroke: #000000; stroke-width: 0.8"/>
      </g>
     </g>
     <g id="text_8">
      <!-- 14 -->
      <g transform="translate(347.689934 322.182437) scale(0.1 -0.1)">
       <use xlink:href="#DejaVuSans-31"/>
       <use xlink:href="#DejaVuSans-34" x="63.623047"/>
      </g>
     </g>
    </g>
    <g id="xtick_9">
     <g id="line2d_17">
      <path d="M 394.08382 307.584 
L 394.08382 41.472 
" clip-path="url(#pc46162e9e6)" style="fill: none; stroke: #b0b0b0; stroke-width: 0.8; stroke-linecap: square"/>
     </g>
     <g id="line2d_18">
      <g>
       <use xlink:href="#m6d100da0b5" x="394.08382" y="307.584" style="stroke: #000000; stroke-width: 0.8"/>
      </g>
     </g>
     <g id="text_9">
      <!-- 16 -->
      <g transform="translate(387.72132 322.182437) scale(0.1 -0.1)">
       <use xlink:href="#DejaVuSans-31"/>
       <use xlink:href="#DejaVuSans-36" x="63.623047"/>
      </g>
     </g>
    </g>
    <g id="text_10">
     <!-- Time(s) -->
     <g transform="translate(217.420156 335.860562) scale(0.1 -0.1)">
      <defs>
       <path id="DejaVuSans-54" d="M -19 4666 
L 3928 4666 
L 3928 4134 
L 2272 4134 
L 2272 0 
L 1638 0 
L 1638 4134 
L -19 4134 
L -19 4666 
z
" transform="scale(0.015625)"/>
       <path id="DejaVuSans-69" d="M 603 3500 
L 1178 3500 
L 1178 0 
L 603 0 
L 603 3500 
z
M 603 4863 
L 1178 4863 
L 1178 4134 
L 603 4134 
L 603 4863 
z
" transform="scale(0.015625)"/>
       <path id="DejaVuSans-6d" d="M 3328 2828 
Q 3544 3216 3844 3400 
Q 4144 3584 4550 3584 
Q 5097 3584 5394 3201 
Q 5691 2819 5691 2113 
L 5691 0 
L 5113 0 
L 5113 2094 
Q 5113 2597 4934 2840 
Q 4756 3084 4391 3084 
Q 3944 3084 3684 2787 
Q 3425 2491 3425 1978 
L 3425 0 
L 2847 0 
L 2847 2094 
Q 2847 2600 2669 2842 
Q 2491 3084 2119 3084 
Q 1678 3084 1418 2786 
Q 1159 2488 1159 1978 
L 1159 0 
L 581 0 
L 581 3500 
L 1159 3500 
L 1159 2956 
Q 1356 3278 1631 3431 
Q 1906 3584 2284 3584 
Q 2666 3584 2933 3390 
Q 3200 3197 3328 2828 
z
" transform="scale(0.015625)"/>
       <path id="DejaVuSans-65" d="M 3597 1894 
L 3597 1613 
L 953 1613 
Q 991 1019 1311 708 
Q 1631 397 2203 397 
Q 2534 397 2845 478 
Q 3156 559 3463 722 
L 3463 178 
Q 3153 47 2828 -22 
Q 2503 -91 2169 -91 
Q 1331 -91 842 396 
Q 353 884 353 1716 
Q 353 2575 817 3079 
Q 1281 3584 2069 3584 
Q 2775 3584 3186 3129 
Q 3597 2675 3597 1894 
z
M 3022 2063 
Q 3016 2534 2758 2815 
Q 2500 3097 2075 3097 
Q 1594 3097 1305 2825 
Q 1016 2553 972 2059 
L 3022 2063 
z
" transform="scale(0.015625)"/>
       <path id="DejaVuSans-28" d="M 1984 4856 
Q 1566 4138 1362 3434 
Q 1159 2731 1159 2009 
Q 1159 1288 1364 580 
Q 1569 -128 1984 -844 
L 1484 -844 
Q 1016 -109 783 600 
Q 550 1309 550 2009 
Q 550 2706 781 3412 
Q 1013 4119 1484 4856 
L 1984 4856 
z
" transform="scale(0.015625)"/>
       <path id="DejaVuSans-73" d="M 2834 3397 
L 2834 2853 
Q 2591 2978 2328 3040 
Q 2066 3103 1784 3103 
Q 1356 3103 1142 2972 
Q 928 2841 928 2578 
Q 928 2378 1081 2264 
Q 1234 2150 1697 2047 
L 1894 2003 
Q 2506 1872 2764 1633 
Q 3022 1394 3022 966 
Q 3022 478 2636 193 
Q 2250 -91 1575 -91 
Q 1294 -91 989 -36 
Q 684 19 347 128 
L 347 722 
Q 666 556 975 473 
Q 1284 391 1588 391 
Q 1994 391 2212 530 
Q 2431 669 2431 922 
Q 2431 1156 2273 1281 
Q 2116 1406 1581 1522 
L 1381 1569 
Q 847 1681 609 1914 
Q 372 2147 372 2553 
Q 372 3047 722 3315 
Q 1072 3584 1716 3584 
Q 2034 3584 2315 3537 
Q 2597 3491 2834 3397 
z
" transform="scale(0.015625)"/>
       <path id="DejaVuSans-29" d="M 513 4856 
L 1013 4856 
Q 1481 4119 1714 3412 
Q 1947 2706 1947 2009 
Q 1947 1309 1714 600 
Q 1481 -109 1013 -844 
L 513 -844 
Q 928 -128 1133 580 
Q 1338 1288 1338 2009 
Q 1338 2731 1133 3434 
Q 928 4138 513 4856 
z
" transform="scale(0.015625)"/>
      </defs>
      <use xlink:href="#DejaVuSans-54"/>
      <use xlink:href="#DejaVuSans-69" x="57.958984"/>
      <use xlink:href="#DejaVuSans-6d" x="85.742188"/>
      <use xlink:href="#DejaVuSans-65" x="183.154297"/>
      <use xlink:href="#DejaVuSans-28" x="244.677734"/>
      <use xlink:href="#DejaVuSans-73" x="283.691406"/>
      <use xlink:href="#DejaVuSans-29" x="335.791016"/>
     </g>
    </g>
   </g>
   <g id="matplotlib.axis_2">
    <g id="ytick_1">
     <g id="line2d_19">
      <path d="M 57.6 295.488 
L 414.72 295.488 
" clip-path="url(#pc46162e9e6)" style="fill: none; stroke: #b0b0b0; stroke-width: 0.8; stroke-linecap: square"/>
     </g>
     <g id="line2d_20">
      <defs>
       <path id="me9e8cc1fd8" d="M 0 0 
L -3.5 0 
" style="stroke: #000000; stroke-width: 0.8"/>
      </defs>
      <g>
       <use xlink:href="#me9e8cc1fd8" x="57.6" y="295.488" style="stroke: #000000; stroke-width: 0.8"/>
      </g>
     </g>
     <g id="text_11">
      <!-- 0 -->
      <g transform="translate(44.2375 299.287219) scale(0.1 -0.1)">
       <use xlink:href="#DejaVuSans-30"/>
      </g>
     </g>
    </g>
    <g id="ytick_2">
     <g id="line2d_21">
      <path d="M 57.6 265.248 
L 414.72 265.248 
" clip-path="url(#pc46162e9e6)" style="fill: none; stroke: #b0b0b0; stroke-width: 0.8; stroke-linecap: square"/>
     </g>
     <g id="line2d_22">
      <g>
       <use xlink:href="#me9e8cc1fd8" x="57.6" y="265.248" style="stroke: #000000; stroke-width: 0.8"/>
      </g>
     </g>
     <g id="text_12">
      <!-- 1 -->
      <g transform="translate(44.2375 269.047219) scale(0.1 -0.1)">
       <use xlink:href="#DejaVuSans-31"/>
      </g>
     </g>
    </g>
    <g id="ytick_3">
     <g id="line2d_23">
      <path d="M 57.6 235.008 
L 414.72 235.008 
" clip-path="url(#pc46162e9e6)" style="fill: none; stroke: #b0b0b0; stroke-width: 0.8; stroke-linecap: square"/>
     </g>
     <g id="line2d_24">
      <g>
       <use xlink:href="#me9e8cc1fd8" x="57.6" y="235.008" style="stroke: #000000; stroke-width: 0.8"/>
      </g>
     </g>
     <g id="text_13">
      <!-- 2 -->
      <g transform="translate(44.2375 238.807219) scale(0.1 -0.1)">
       <use xlink:href="#DejaVuSans-32"/>
      </g>
     </g>
    </g>
    <g id="ytick_4">
     <g id="line2d_25">
      <path d="M 57.6 204.768 
L 414.72 204.768 
" clip-path="url(#pc46162e9e6)" style="fill: none; stroke: #b0b0b0; stroke-width: 0.8; stroke-linecap: square"/>
     </g>
     <g id="line2d_26">
      <g>
       <use xlink:href="#me9e8cc1fd8" x="57.6" y="204.768" style="stroke: #000000; stroke-width: 0.8"/>
      </g>
     </g>
     <g id="text_14">
      <!-- 3 -->
      <g transform="translate(44.2375 208.567219) scale(0.1 -0.1)">
       <defs>
        <path id="DejaVuSans-33" d="M 2597 2516 
Q 3050 2419 3304 2112 
Q 3559 1806 3559 1356 
Q 3559 666 3084 287 
Q 2609 -91 1734 -91 
Q 1441 -91 1130 -33 
Q 819 25 488 141 
L 488 750 
Q 750 597 1062 519 
Q 1375 441 1716 441 
Q 2309 441 2620 675 
Q 2931 909 2931 1356 
Q 2931 1769 2642 2001 
Q 2353 2234 1838 2234 
L 1294 2234 
L 1294 2753 
L 1863 2753 
Q 2328 2753 2575 2939 
Q 2822 3125 2822 3475 
Q 2822 3834 2567 4026 
Q 2313 4219 1838 4219 
Q 1578 4219 1281 4162 
Q 984 4106 628 3988 
L 628 4550 
Q 988 4650 1302 4700 
Q 1616 4750 1894 4750 
Q 2613 4750 3031 4423 
Q 3450 4097 3450 3541 
Q 3450 3153 3228 2886 
Q 3006 2619 2597 2516 
z
" transform="scale(0.015625)"/>
       </defs>
       <use xlink:href="#DejaVuSans-33"/>
      </g>
     </g>
    </g>
    <g id="ytick_5">
     <g id="line2d_27">
      <path d="M 57.6 174.528 
L 414.72 174.528 
" clip-path="url(#pc46162e9e6)" style="fill: none; stroke: #b0b0b0; stroke-width: 0.8; stroke-linecap: square"/>
     </g>
     <g id="line2d_28">
      <g>
       <use xlink:href="#me9e8cc1fd8" x="57.6" y="174.528" style="stroke: #000000; stroke-width: 0.8"/>
      </g>
     </g>
     <g id="text_15">
      <!-- 4 -->
      <g transform="translate(44.2375 178.327219) scale(0.1 -0.1)">
       <use xlink:href="#DejaVuSans-34"/>
      </g>
     </g>
    </g>
    <g id="ytick_6">
     <g id="line2d_29">
      <path d="M 57.6 144.288 
L 414.72 144.288 
" clip-path="url(#pc46162e9e6)" style="fill: none; stroke: #b0b0b0; stroke-width: 0.8; stroke-linecap: square"/>
     </g>
     <g id="line2d_30">
      <g>
       <use xlink:href="#me9e8cc1fd8" x="57.6" y="144.288" style="stroke: #000000; stroke-width: 0.8"/>
      </g>
     </g>
     <g id="text_16">
      <!-- 5 -->
      <g transform="translate(44.2375 148.087219) scale(0.1 -0.1)">
       <defs>
        <path id="DejaVuSans-35" d="M 691 4666 
L 3169 4666 
L 3169 4134 
L 1269 4134 
L 1269 2991 
Q 1406 3038 1543 3061 
Q 1681 3084 1819 3084 
Q 2600 3084 3056 2656 
Q 3513 2228 3513 1497 
Q 3513 744 3044 326 
Q 2575 -91 1722 -91 
Q 1428 -91 1123 -41 
Q 819 9 494 109 
L 494 744 
Q 775 591 1075 516 
Q 1375 441 1709 441 
Q 2250 441 2565 725 
Q 2881 1009 2881 1497 
Q 2881 1984 2565 2268 
Q 2250 2553 1709 2553 
Q 1456 2553 1204 2497 
Q 953 2441 691 2322 
L 691 4666 
z
" transform="scale(0.015625)"/>
       </defs>
       <use xlink:href="#DejaVuSans-35"/>
      </g>
     </g>
    </g>
    <g id="ytick_7">
     <g id="line2d_31">
      <path d="M 57.6 114.048 
L 414.72 114.048 
" clip-path="url(#pc46162e9e6)" style="fill: none; stroke: #b0b0b0; stroke-width: 0.8; stroke-linecap: square"/>
     </g>
     <g id="line2d_32">
      <g>
       <use xlink:href="#me9e8cc1fd8" x="57.6" y="114.048" style="stroke: #000000; stroke-width: 0.8"/>
      </g>
     </g>
     <g id="text_17">
      <!-- 6 -->
      <g transform="translate(44.2375 117.847219) scale(0.1 -0.1)">
       <use xlink:href="#DejaVuSans-36"/>
      </g>
     </g>
    </g>
    <g id="ytick_8">
     <g id="line2d_33">
      <path d="M 57.6 83.808 
L 414.72 83.808 
" clip-path="url(#pc46162e9e6)" style="fill: none; stroke: #b0b0b0; stroke-width: 0.8; stroke-linecap: square"/>
     </g>
     <g id="line2d_34">
      <g>
       <use xlink:href="#me9e8cc1fd8" x="57.6" y="83.808" style="stroke: #000000; stroke-width: 0.8"/>
      </g>
     </g>
     <g id="text_18">
      <!-- 7 -->
      <g transform="translate(44.2375 87.607219) scale(0.1 -0.1)">
       <defs>
        <path id="DejaVuSans-37" d="M 525 4666 
L 3525 4666 
L 3525 4397 
L 1831 0 
L 1172 0 
L 2766 4134 
L 525 4134 
L 525 4666 
z
" transform="scale(0.015625)"/>
       </defs>
       <use xlink:href="#DejaVuSans-37"/>
      </g>
     </g>
    </g>
    <g id="ytick_9">
     <g id="line2d_35">
      <path d="M 57.6 53.568 
L 414.72 53.568 
" clip-path="url(#pc46162e9e6)" style="fill: none; stroke: #b0b0b0; stroke-width: 0.8; stroke-linecap: square"/>
     </g>
     <g id="line2d_36">
      <g>
       <use xlink:href="#me9e8cc1fd8" x="57.6" y="53.568" style="stroke: #000000; stroke-width: 0.8"/>
      </g>
     </g>
     <g id="text_19">
      <!-- 8 -->
      <g transform="translate(44.2375 57.367219) scale(0.1 -0.1)">
       <use xlink:href="#DejaVuSans-38"/>
      </g>
     </g>
    </g>
    <g id="text_20">
     <!-- Velocity(m/s) -->
     <g transform="translate(38.157812 207.204563) rotate(-90) scale(0.1 -0.1)">
      <defs>
       <path id="DejaVuSans-56" d="M 1831 0 
L 50 4666 
L 709 4666 
L 2188 738 
L 3669 4666 
L 4325 4666 
L 2547 0 
L 1831 0 
z
" transform="scale(0.015625)"/>
       <path id="DejaVuSans-6c" d="M 603 4863 
L 1178 4863 
L 1178 0 
L 603 0 
L 603 4863 
z
" transform="scale(0.015625)"/>
       <path id="DejaVuSans-6f" d="M 1959 3097 
Q 1497 3097 1228 2736 
Q 959 2375 959 1747 
Q 959 1119 1226 758 
Q 1494 397 1959 397 
Q 2419 397 2687 759 
Q 2956 1122 2956 1747 
Q 2956 2369 2687 2733 
Q 2419 3097 1959 3097 
z
M 1959 3584 
Q 2709 3584 3137 3096 
Q 3566 2609 3566 1747 
Q 3566 888 3137 398 
Q 2709 -91 1959 -91 
Q 1206 -91 779 398 
Q 353 888 353 1747 
Q 353 2609 779 3096 
Q 1206 3584 1959 3584 
z
" transform="scale(0.015625)"/>
       <path id="DejaVuSans-63" d="M 3122 3366 
L 3122 2828 
Q 2878 2963 2633 3030 
Q 2388 3097 2138 3097 
Q 1578 3097 1268 2742 
Q 959 2388 959 1747 
Q 959 1106 1268 751 
Q 1578 397 2138 397 
Q 2388 397 2633 464 
Q 2878 531 3122 666 
L 3122 134 
Q 2881 22 2623 -34 
Q 2366 -91 2075 -91 
Q 1284 -91 818 406 
Q 353 903 353 1747 
Q 353 2603 823 3093 
Q 1294 3584 2113 3584 
Q 2378 3584 2631 3529 
Q 2884 3475 3122 3366 
z
" transform="scale(0.015625)"/>
       <path id="DejaVuSans-74" d="M 1172 4494 
L 1172 3500 
L 2356 3500 
L 2356 3053 
L 1172 3053 
L 1172 1153 
Q 1172 725 1289 603 
Q 1406 481 1766 481 
L 2356 481 
L 2356 0 
L 1766 0 
Q 1100 0 847 248 
Q 594 497 594 1153 
L 594 3053 
L 172 3053 
L 172 3500 
L 594 3500 
L 594 4494 
L 1172 4494 
z
" transform="scale(0.015625)"/>
       <path id="DejaVuSans-79" d="M 2059 -325 
Q 1816 -950 1584 -1140 
Q 1353 -1331 966 -1331 
L 506 -1331 
L 506 -850 
L 844 -850 
Q 1081 -850 1212 -737 
Q 1344 -625 1503 -206 
L 1606 56 
L 191 3500 
L 800 3500 
L 1894 763 
L 2988 3500 
L 3597 3500 
L 2059 -325 
z
" transform="scale(0.015625)"/>
       <path id="DejaVuSans-2f" d="M 1625 4666 
L 2156 4666 
L 531 -594 
L 0 -594 
L 1625 4666 
z
" transform="scale(0.015625)"/>
      </defs>
      <use xlink:href="#DejaVuSans-56"/>
      <use xlink:href="#DejaVuSans-65" x="60.658203"/>
      <use xlink:href="#DejaVuSans-6c" x="122.181641"/>
      <use xlink:href="#DejaVuSans-6f" x="149.964844"/>
      <use xlink:href="#DejaVuSans-63" x="211.146484"/>
      <use xlink:href="#DejaVuSans-69" x="266.126953"/>
      <use xlink:href="#DejaVuSans-74" x="293.910156"/>
      <use xlink:href="#DejaVuSans-79" x="333.119141"/>
      <use xlink:href="#DejaVuSans-28" x="392.298828"/>
      <use xlink:href="#DejaVuSans-6d" x="431.3125"/>
      <use xlink:href="#DejaVuSans-2f" x="528.724609"/>
      <use xlink:href="#DejaVuSans-73" x="562.416016"/>
      <use xlink:href="#DejaVuSans-29" x="614.515625"/>
     </g>
    </g>
   </g>
   <g id="line2d_37">
    <path d="M 73.832727 53.568 
L 73.832727 295.488 
L 74.233041 290.311517 
L 74.233041 290.311517 
L 81.038377 264.898547 
L 81.038377 264.898547 
L 87.843713 238.584455 
L 87.843713 238.584455 
L 94.649048 211.337338 
L 94.649048 211.337338 
L 101.454384 183.124083 
L 101.454384 183.124083 
L 108.25972 153.910428 
L 108.25972 153.910428 
L 115.065055 123.660933 
L 115.065055 123.660933 
L 121.870391 92.338825 
L 121.870391 92.338825 
L 127.074471 68.37172 
L 127.074471 68.37172 
L 128.275413 64.619571 
L 128.275413 64.619571 
L 129.476355 61.81844 
L 129.476355 61.81844 
L 130.276982 60.499704 
L 130.276982 60.499704 
L 131.07761 59.871377 
L 131.07761 59.871377 
L 131.477924 59.722898 
L 131.477924 59.722898 
L 131.878238 59.726074 
L 131.878238 59.726074 
L 132.278552 60.510529 
L 132.278552 60.510529 
L 132.678866 61.88657 
L 132.678866 61.88657 
L 133.079179 62.716326 
L 133.079179 62.716326 
L 133.479493 63.915432 
L 133.479493 63.915432 
L 133.879807 65.730982 
L 133.879807 65.730982 
L 134.280121 68.381639 
L 134.280121 68.381639 
L 135.080749 72.176819 
L 135.080749 72.176819 
L 135.481063 75.104626 
L 135.481063 75.104626 
L 135.881377 79.243151 
L 135.881377 79.243151 
L 136.682004 84.56406 
L 136.682004 84.56406 
L 137.082318 88.785232 
L 137.082318 88.785232 
L 137.882946 94.628749 
L 137.882946 94.628749 
L 138.28326 98.520153 
L 138.28326 98.520153 
L 139.083887 103.862926 
L 139.083887 103.862926 
L 139.484201 107.393658 
L 139.484201 107.393658 
L 140.284829 112.081523 
L 140.284829 112.081523 
L 140.685143 115.339006 
L 141.085457 117.045056 
L 141.085457 117.045056 
L 141.485771 119.380945 
L 141.485771 119.380945 
L 143.087026 125.870419 
L 143.087026 125.870419 
L 143.48734 127.848236 
L 143.48734 127.848236 
L 145.488909 133.541581 
L 145.488909 133.541581 
L 146.289537 135.19081 
L 146.289537 135.19081 
L 147.890793 137.786854 
L 147.890793 137.786854 
L 149.091734 138.792606 
L 149.091734 138.792606 
L 149.892362 139.171513 
L 149.892362 139.171513 
L 151.493617 139.418483 
L 151.493617 139.418483 
L 154.696128 139.425862 
L 154.696128 139.425862 
L 155.89707 139.248958 
L 155.89707 139.248958 
L 157.498325 138.424736 
L 157.498325 138.424736 
L 159.099581 136.85277 
L 159.099581 136.85277 
L 160.700836 134.122945 
L 160.700836 134.122945 
L 161.901778 131.033838 
L 161.901778 131.033838 
L 162.702406 128.471422 
L 162.702406 128.471422 
L 168.707114 101.878335 
L 168.707114 101.878335 
L 169.507741 99.379483 
L 169.507741 99.379483 
L 170.708683 96.463621 
L 170.708683 96.463621 
L 171.909624 94.269165 
L 171.909624 94.269165 
L 173.51088 91.881233 
L 173.51088 91.881233 
L 174.311508 90.725188 
L 174.311508 90.725188 
L 175.912763 87.437254 
L 175.912763 87.437254 
L 176.713391 85.339263 
L 176.713391 85.339263 
L 177.914332 80.806015 
L 177.914332 80.806015 
L 179.915902 71.547071 
L 179.915902 71.547071 
L 180.71653 68.936543 
L 180.71653 68.936543 
L 181.517157 67.216159 
L 181.517157 67.216159 
L 182.317785 65.968547 
L 182.317785 65.968547 
L 183.518727 64.649569 
L 183.518727 64.649569 
L 184.719668 63.729608 
L 184.719668 63.729608 
L 185.92061 63.011347 
L 185.92061 63.011347 
L 187.521865 62.018628 
L 187.521865 62.018628 
L 187.922179 61.674648 
L 187.922179 61.674648 
L 191.525004 57.265324 
L 191.525004 57.265324 
L 192.725946 56.328216 
L 192.725946 56.328216 
L 193.926887 55.628614 
L 193.926887 55.628614 
L 195.528143 54.963516 
L 195.528143 54.963516 
L 197.529712 54.425334 
L 197.529712 54.425334 
L 199.931595 54.045822 
L 199.931595 54.045822 
L 203.134106 53.787149 
L 203.134106 53.787149 
L 208.338186 53.62975 
L 208.338186 53.62975 
L 218.746347 53.572899 
L 218.746347 53.572899 
L 219.146661 53.953651 
L 219.146661 53.953651 
L 219.546975 55.358541 
L 219.546975 55.358541 
L 219.947288 56.26565 
L 219.947288 56.26565 
L 220.747916 59.302411 
L 220.747916 59.302411 
L 221.948858 65.620515 
L 221.948858 65.620515 
L 222.749485 69.503815 
L 222.749485 69.503815 
L 223.149799 71.927339 
L 223.149799 71.927339 
L 223.950427 75.047865 
L 223.950427 75.047865 
L 224.751055 78.566652 
L 224.751055 78.566652 
L 225.551683 81.927284 
L 225.551683 81.927284 
L 225.951996 83.974592 
L 225.951996 83.974592 
L 226.752624 86.673815 
L 226.752624 86.673815 
L 227.152938 88.447088 
L 227.152938 88.447088 
L 229.955135 96.973921 
L 229.955135 96.973921 
L 231.956704 101.6219 
L 231.956704 101.6219 
L 233.958274 104.667038 
L 233.958274 104.667038 
L 235.159215 105.846519 
L 235.159215 105.846519 
L 236.360157 106.615522 
L 236.360157 106.615522 
L 237.561099 107.041422 
L 237.561099 107.041422 
L 239.162354 107.235261 
L 239.162354 107.235261 
L 243.565807 107.151375 
L 243.565807 107.151375 
L 244.766748 106.940632 
L 244.766748 106.940632 
L 245.96769 106.633817 
L 245.96769 106.633817 
L 247.168631 106.148163 
L 247.168631 106.148163 
L 248.369573 105.443057 
L 248.369573 105.443057 
L 249.970828 104.16711 
L 249.970828 104.16711 
L 250.771456 103.392876 
L 250.771456 103.392876 
L 253.173339 100.010501 
L 253.173339 100.010501 
L 253.973967 98.62312 
L 253.973967 98.62312 
L 255.975536 93.87535 
L 255.975536 93.87535 
L 256.776164 91.425275 
L 256.776164 91.425275 
L 257.576792 88.928811 
L 257.576792 88.928811 
L 259.978675 79.02636 
L 259.978675 79.02636 
L 261.980244 69.808452 
L 261.980244 69.808452 
L 263.181186 65.692153 
L 263.181186 65.692153 
L 264.382128 62.619165 
L 264.382128 62.619165 
L 265.583069 60.325068 
L 265.583069 60.325068 
L 266.784011 58.612425 
L 266.784011 58.612425 
L 267.984952 57.333848 
L 267.984952 57.333848 
L 269.185894 56.379352 
L 269.185894 56.379352 
L 270.386836 55.666807 
L 270.386836 55.666807 
L 271.988091 54.989371 
L 271.988091 54.989371 
L 273.98966 54.44124 
L 273.98966 54.44124 
L 276.391544 54.054683 
L 276.391544 54.054683 
L 279.594054 53.791201 
L 279.594054 53.791201 
L 284.798135 53.630899 
L 284.798135 53.630899 
L 292.404098 53.577888 
L 292.404098 53.577888 
L 293.204726 54.119336 
L 293.204726 54.119336 
L 293.60504 54.60496 
L 293.60504 54.60496 
L 294.405668 56.228031 
L 294.405668 56.228031 
L 294.805981 57.333727 
L 294.805981 57.333727 
L 295.606609 58.94818 
L 295.606609 58.94818 
L 296.006923 59.888553 
L 296.006923 59.888553 
L 297.207865 63.498786 
L 297.207865 63.498786 
L 297.608178 64.503177 
L 297.608178 64.503177 
L 299.609748 71.143518 
L 299.609748 71.143518 
L 300.010062 73.03246 
L 300.010062 73.03246 
L 300.810689 75.4845 
L 300.810689 75.4845 
L 301.611317 78.648935 
L 301.611317 78.648935 
L 302.411945 81.840132 
L 302.411945 81.840132 
L 302.812259 84.096671 
L 302.812259 84.096671 
L 303.612886 87.067237 
L 303.612886 87.067237 
L 304.0132 89.25749 
L 304.0132 89.25749 
L 304.813828 92.466075 
L 304.813828 92.466075 
L 305.214142 94.793738 
L 305.214142 94.793738 
L 306.01477 98.206595 
L 306.01477 98.206595 
L 306.415084 100.720506 
L 306.415084 100.720506 
L 307.215711 104.289431 
L 307.215711 104.289431 
L 307.616025 107.103596 
L 307.616025 107.103596 
L 308.416653 110.923119 
L 308.416653 110.923119 
L 309.217281 114.724711 
L 309.217281 114.724711 
L 309.617594 117.459616 
L 309.617594 117.459616 
L 310.818536 123.209934 
L 310.818536 123.209934 
L 311.21885 125.117533 
L 311.21885 125.117533 
L 311.619164 128.011622 
L 311.619164 128.011622 
L 312.019478 129.560666 
L 312.019478 129.560666 
L 312.419792 131.957186 
L 312.419792 131.957186 
L 312.820105 133.436013 
L 312.820105 133.436013 
L 313.220419 135.546342 
L 313.220419 135.546342 
L 313.620733 137.024564 
L 313.620733 137.024564 
L 314.421361 140.457227 
L 314.421361 140.457227 
L 315.622302 145.515865 
L 315.622302 145.515865 
L 316.823244 150.077388 
L 316.823244 150.077388 
L 318.024186 154.948054 
L 318.024186 154.948054 
L 318.424499 156.174225 
L 318.424499 156.174225 
L 318.824813 158.037342 
L 318.824813 158.037342 
L 319.225127 159.184708 
L 319.225127 159.184708 
L 319.625441 161.063398 
L 319.625441 161.063398 
L 320.025755 162.053546 
L 320.426069 164.047995 
L 320.426069 164.047995 
L 321.226697 165.950999 
L 321.226697 165.950999 
L 322.427638 169.77282 
L 322.427638 169.77282 
L 322.827952 170.667229 
L 322.827952 170.667229 
L 323.228266 172.375849 
L 323.228266 172.375849 
L 324.028894 174.018728 
L 324.028894 174.018728 
L 324.429207 175.200568 
L 324.429207 175.200568 
L 324.829521 175.992251 
L 324.829521 175.992251 
L 325.229835 177.373675 
L 325.229835 177.373675 
L 326.030463 178.769402 
L 326.030463 178.769402 
L 326.430777 179.771858 
L 326.430777 179.771858 
L 326.831091 180.439527 
L 326.831091 180.439527 
L 327.231405 181.537602 
L 327.231405 181.537602 
L 328.032032 182.600719 
L 328.032032 182.600719 
L 328.432346 183.441694 
L 329.232974 184.367038 
L 329.232974 184.367038 
L 329.633288 185.018437 
L 329.633288 185.018437 
L 331.234543 186.669602 
L 331.234543 186.669602 
L 331.634857 187.226411 
L 333.236113 188.404078 
L 333.236113 188.404078 
L 333.636426 188.577081 
L 333.636426 188.577081 
L 334.03674 188.899439 
L 334.03674 188.899439 
L 336.838937 189.972052 
L 336.838937 189.972052 
L 338.840507 190.252951 
L 338.840507 190.252951 
L 343.644273 190.370857 
L 343.644273 190.370857 
L 345.645842 190.28561 
L 345.645842 190.28561 
L 346.846784 190.143361 
L 346.846784 190.143361 
L 347.647412 189.985962 
L 347.647412 189.985962 
L 350.449609 189.306863 
L 350.449609 189.306863 
L 351.250237 188.862637 
L 351.250237 188.862637 
L 352.050864 188.581284 
L 352.050864 188.581284 
L 352.851492 187.987431 
L 352.851492 187.987431 
L 353.65212 187.551219 
L 353.65212 187.551219 
L 354.452747 186.784756 
L 354.452747 186.784756 
L 355.253375 186.187818 
L 355.253375 186.187818 
L 356.054003 185.194646 
L 356.054003 185.194646 
L 356.854631 184.351978 
L 356.854631 184.351978 
L 358.8562 180.982849 
L 358.8562 180.982849 
L 359.656828 178.831394 
L 359.656828 178.831394 
L 360.057142 177.823223 
L 360.057142 177.823223 
L 361.658397 172.14285 
L 361.658397 172.14285 
L 362.859339 167.157272 
L 362.859339 167.157272 
L 365.261222 157.249015 
L 365.261222 157.249015 
L 366.06185 155.608586 
L 366.06185 155.608586 
L 366.862477 154.985007 
L 366.862477 154.985007 
L 367.262791 155.204065 
L 367.262791 155.204065 
L 367.663105 155.232793 
L 367.663105 155.232793 
L 368.063419 156.223274 
L 368.063419 156.223274 
L 368.463733 156.857196 
L 368.463733 156.857196 
L 368.864047 157.991952 
L 368.864047 157.991952 
L 370.865616 161.824539 
L 370.865616 161.824539 
L 372.066558 163.062383 
L 372.066558 163.062383 
L 373.267499 163.789806 
L 373.267499 163.789806 
L 375.269068 164.34338 
L 375.269068 164.34338 
L 377.670952 164.386079 
L 377.670952 164.386079 
L 383.275346 164.200405 
L 383.275346 164.200405 
L 384.876601 163.972668 
L 384.876601 163.972668 
L 385.677229 163.747742 
L 385.677229 163.747742 
L 386.878171 163.322054 
L 386.878171 163.322054 
L 388.079112 162.767815 
L 388.079112 162.767815 
L 388.479426 162.571558 
L 389.280054 161.945499 
L 389.280054 161.945499 
L 390.480995 160.920847 
L 390.480995 160.920847 
L 391.681937 159.444742 
L 391.681937 159.444742 
L 392.482565 158.216211 
L 392.482565 158.216211 
L 393.283192 157.06437 
L 393.283192 157.06437 
L 395.284762 153.365746 
L 395.284762 153.365746 
L 398.086959 146.880778 
L 398.086959 146.880778 
L 398.487273 293.95211 
L 398.487273 293.95211 
" clip-path="url(#pc46162e9e6)" style="fill: none; stroke: #1f77b4; stroke-width: 1.5; stroke-linecap: square"/>
   </g>
   <g id="line2d_38">
    <path d="M 73.832727 53.568 
L 73.832727 279.920448 
L 74.233041 274.472319 
L 74.233041 274.472319 
L 81.038377 248.497701 
L 81.038377 248.497701 
L 87.843713 221.602094 
L 87.843713 221.602094 
L 94.649048 193.752808 
L 94.649048 193.752808 
L 101.454384 164.916035 
L 101.454384 164.916035 
L 108.25972 135.056756 
L 108.25972 135.056756 
L 115.065055 104.138745 
L 115.065055 104.138745 
L 121.870391 72.124443 
L 121.870391 72.124443 
L 125.473216 54.718662 
L 125.473216 54.718662 
L 125.87353 53.568 
L 129.476355 53.582515 
L 129.476355 53.582515 
L 130.276982 56.89939 
L 130.276982 56.89939 
L 130.677296 56.997972 
L 131.477924 59.732122 
L 131.477924 59.732122 
L 132.278552 64.508016 
L 132.278552 64.508016 
L 132.678866 64.297122 
L 132.678866 64.297122 
L 133.079179 66.199853 
L 133.479493 69.189772 
L 133.479493 69.189772 
L 133.879807 73.431386 
L 133.879807 73.431386 
L 134.280121 73.26428 
L 134.280121 73.26428 
L 134.680435 76.204968 
L 134.680435 76.204968 
L 135.080749 80.682394 
L 135.080749 80.682394 
L 135.481063 87.127354 
L 135.481063 87.127354 
L 135.881377 86.110141 
L 135.881377 86.110141 
L 136.28169 90.197652 
L 136.28169 90.197652 
L 136.682004 96.826955 
L 136.682004 96.826955 
L 137.082318 97.032224 
L 137.082318 97.032224 
L 137.482632 100.353 
L 137.482632 100.353 
L 137.882946 105.93358 
L 137.882946 105.93358 
L 138.28326 106.296823 
L 138.28326 106.296823 
L 138.683574 108.941643 
L 138.683574 108.941643 
L 139.083887 114.120001 
L 139.083887 114.120001 
L 139.484201 113.922837 
L 139.884515 116.730651 
L 139.884515 116.730651 
L 140.284829 121.544798 
L 140.284829 121.544798 
L 140.685143 120.295191 
L 140.685143 120.295191 
L 141.085457 123.831003 
L 141.085457 123.831003 
L 141.485771 124.004006 
L 141.485771 124.004006 
L 141.886085 126.205145 
L 141.886085 126.205145 
L 142.686712 128.765022 
L 142.686712 128.765022 
L 143.087026 131.61614 
L 143.087026 131.61614 
L 143.48734 131.218726 
L 143.48734 131.218726 
L 143.887654 133.31336 
L 143.887654 133.31336 
L 144.287968 133.393012 
L 144.287968 133.393012 
L 144.688282 134.938034 
L 144.688282 134.938034 
L 145.088595 135.18948 
L 145.088595 135.18948 
L 145.488909 136.132907 
L 145.488909 136.132907 
L 146.289537 137.193908 
L 146.289537 137.193908 
L 146.689851 138.385092 
L 146.689851 138.385092 
L 147.090165 138.089254 
L 147.090165 138.089254 
L 147.490479 138.893244 
L 147.490479 138.893244 
L 147.890793 138.892307 
L 147.890793 138.892307 
L 148.291106 139.205352 
L 148.291106 139.205352 
L 149.492048 139.517307 
L 149.492048 139.517307 
L 149.892362 139.428855 
L 149.892362 139.428855 
L 151.093303 139.502853 
L 151.093303 139.502853 
L 151.493617 139.448058 
L 151.493617 139.448058 
L 151.893931 139.507631 
L 151.893931 139.507631 
L 152.294245 139.436778 
L 152.294245 139.436778 
L 153.094873 139.483378 
L 153.094873 139.483378 
L 154.295814 139.173116 
L 154.295814 139.173116 
L 155.096442 138.751691 
L 155.096442 138.751691 
L 155.496756 138.490841 
L 155.496756 138.490841 
L 155.89707 137.08078 
L 155.89707 137.08078 
L 156.297384 137.572392 
L 156.697698 135.886663 
L 156.697698 135.886663 
L 157.098011 136.419612 
L 157.098011 136.419612 
L 157.498325 134.345874 
L 157.498325 134.345874 
L 157.898639 134.86325 
L 157.898639 134.86325 
L 158.298953 132.389165 
L 158.298953 132.389165 
L 158.699267 132.943766 
L 158.699267 132.943766 
L 159.099581 129.942567 
L 159.099581 129.942567 
L 159.499895 130.230845 
L 159.499895 130.230845 
L 159.900208 127.01594 
L 159.900208 127.01594 
L 160.300522 126.980469 
L 160.300522 126.980469 
L 160.700836 123.559236 
L 160.700836 123.559236 
L 161.10115 122.994141 
L 161.10115 122.994141 
L 161.501464 119.638287 
L 161.501464 119.638287 
L 161.901778 118.178572 
L 161.901778 118.178572 
L 162.302092 115.094788 
L 162.302092 115.094788 
L 162.702406 109.055557 
L 162.702406 109.055557 
L 163.102719 109.158585 
L 163.102719 109.158585 
L 163.503033 105.551588 
L 163.503033 105.551588 
L 167.506172 87.348106 
L 167.506172 87.348106 
L 167.906486 87.313632 
L 167.906486 87.313632 
L 168.3068 87.637896 
L 168.3068 87.637896 
L 168.707114 87.681653 
L 168.707114 87.681653 
L 169.107427 87.840806 
L 169.107427 87.840806 
L 171.509311 87.802764 
L 171.509311 87.802764 
L 171.909624 87.42924 
L 171.909624 87.42924 
L 172.309938 87.374475 
L 172.309938 87.374475 
L 172.710252 87.071047 
L 172.710252 87.071047 
L 173.110566 85.857879 
L 173.110566 85.857879 
L 173.51088 85.795222 
L 173.51088 85.795222 
L 173.911194 84.950044 
L 173.911194 84.950044 
L 174.311508 82.499515 
L 174.311508 82.499515 
L 174.711822 82.539613 
L 174.711822 82.539613 
L 175.112135 80.882159 
L 175.512449 77.116069 
L 175.512449 77.116069 
L 175.912763 76.882828 
L 175.912763 76.882828 
L 176.313077 74.413763 
L 176.313077 74.413763 
L 176.713391 69.289716 
L 176.713391 69.289716 
L 177.113705 68.360259 
L 177.113705 68.360259 
L 177.514019 65.120496 
L 177.514019 65.120496 
L 177.914332 60.33674 
L 177.914332 60.33674 
L 179.115274 54.497729 
L 179.115274 54.497729 
L 179.515588 55.579353 
L 179.515588 55.579353 
L 179.915902 56.044898 
L 179.915902 56.044898 
L 180.71653 58.682431 
L 180.71653 58.682431 
L 181.116843 59.70793 
L 181.116843 59.70793 
L 181.517157 59.883412 
L 181.517157 59.883412 
L 181.917471 60.429486 
L 181.917471 60.429486 
L 182.718099 60.889437 
L 182.718099 60.889437 
L 183.118413 60.710779 
L 183.91904 61.048922 
L 183.91904 61.048922 
L 184.319354 61.080856 
L 184.319354 61.080856 
L 184.719668 60.681658 
L 184.719668 60.681658 
L 185.119982 60.955451 
L 185.119982 60.955451 
L 185.520296 61.018108 
L 185.520296 61.018108 
L 185.92061 60.522172 
L 185.92061 60.522172 
L 186.320924 59.836933 
L 186.320924 59.836933 
L 186.721238 60.113176 
L 186.721238 60.113176 
L 187.121551 59.41823 
L 187.521865 58.313412 
L 187.521865 58.313412 
L 187.922179 56.238343 
L 187.922179 56.238343 
L 188.322493 56.364504 
L 188.322493 56.364504 
L 189.123121 53.568 
L 189.123121 53.568 
L 218.346033 53.568 
L 218.346033 53.568 
L 218.746347 54.679018 
L 218.746347 54.679018 
L 219.146661 58.034932 
L 219.146661 58.034932 
L 219.546975 57.993745 
L 220.347602 62.560892 
L 220.347602 62.560892 
L 221.14823 68.969625 
L 221.14823 68.969625 
L 221.548544 68.480463 
L 221.548544 68.480463 
L 221.948858 70.58931 
L 221.948858 70.58931 
L 222.749485 76.544382 
L 222.749485 76.544382 
L 223.149799 76.248363 
L 223.149799 76.248363 
L 223.550113 78.159077 
L 223.550113 78.159077 
L 223.950427 80.92014 
L 223.950427 80.92014 
L 224.350741 81.419373 
L 224.350741 81.419373 
L 225.151369 85.237959 
L 225.151369 85.237959 
L 225.551683 87.874947 
L 225.551683 87.874947 
L 225.951996 87.788884 
L 226.35231 89.314764 
L 226.35231 89.314764 
L 226.752624 91.82535 
L 226.752624 91.82535 
L 227.152938 92.065758 
L 227.152938 92.065758 
L 227.553252 93.295135 
L 227.553252 93.295135 
L 227.953566 95.364276 
L 227.953566 95.364276 
L 228.35388 95.706624 
L 228.35388 95.706624 
L 228.754193 96.760699 
L 228.754193 96.760699 
L 229.154507 98.531977 
L 229.154507 98.531977 
L 229.554821 98.827361 
L 229.554821 98.827361 
L 229.955135 99.701267 
L 229.955135 99.701267 
L 230.355449 101.255633 
L 230.355449 101.255633 
L 230.755763 101.423375 
L 230.755763 101.423375 
L 231.156077 102.117806 
L 231.156077 102.117806 
L 231.556391 103.478092 
L 231.556391 103.478092 
L 231.956704 103.493061 
L 231.956704 103.493061 
L 232.357018 104.137777 
L 232.357018 104.137777 
L 232.757332 105.156503 
L 232.757332 105.156503 
L 233.157646 105.057436 
L 233.157646 105.057436 
L 233.55796 105.639798 
L 233.55796 105.639798 
L 234.358588 106.150824 
L 234.358588 106.150824 
L 234.758901 106.595443 
L 234.758901 106.595443 
L 235.559529 106.839117 
L 235.559529 106.839117 
L 235.959843 107.067731 
L 235.959843 107.067731 
L 238.76204 107.273968 
L 238.76204 107.273968 
L 239.162354 107.22761 
L 239.162354 107.22761 
L 239.562668 107.302424 
L 239.562668 107.302424 
L 239.962982 107.251137 
L 239.962982 107.251137 
L 240.363296 107.325104 
L 242.765179 106.945168 
L 242.765179 106.945168 
L 243.165493 106.632063 
L 243.165493 106.632063 
L 243.565807 106.69342 
L 243.565807 106.69342 
L 243.96612 106.438588 
L 243.96612 106.438588 
L 244.366434 105.904882 
L 244.366434 105.904882 
L 244.766748 106.065336 
L 245.167062 105.604085 
L 245.167062 105.604085 
L 245.567376 105.568704 
L 245.567376 105.568704 
L 245.96769 105.211297 
L 245.96769 105.211297 
L 246.368004 104.459168 
L 246.368004 104.459168 
L 246.768317 104.545987 
L 246.768317 104.545987 
L 247.168631 103.995468 
L 247.168631 103.995468 
L 247.568945 102.941725 
L 247.568945 102.941725 
L 247.969259 103.233571 
L 247.969259 103.233571 
L 248.369573 102.331058 
L 248.369573 102.331058 
L 248.769887 102.216812 
L 248.769887 102.216812 
L 249.170201 101.572155 
L 249.170201 101.572155 
L 249.570515 100.189129 
L 249.570515 100.189129 
L 249.970828 100.290584 
L 250.371142 99.344072 
L 250.371142 99.344072 
L 250.771456 97.511135 
L 250.771456 97.511135 
L 251.17177 97.925786 
L 251.572084 96.481161 
L 251.572084 96.481161 
L 251.972398 96.114168 
L 251.972398 96.114168 
L 252.372712 95.048994 
L 252.372712 95.048994 
L 252.773025 92.995275 
L 252.773025 92.995275 
L 253.173339 92.850728 
L 253.173339 92.850728 
L 253.573653 91.561506 
L 253.573653 91.561506 
L 253.973967 88.823576 
L 253.973967 88.823576 
L 254.374281 88.911665 
L 254.374281 88.911665 
L 254.774595 87.239091 
L 254.774595 87.239091 
L 255.174909 83.783475 
L 255.174909 83.783475 
L 255.575223 84.200364 
L 255.575223 84.200364 
L 255.975536 82.086528 
L 255.975536 82.086528 
L 256.37585 78.179187 
L 256.37585 78.179187 
L 256.776164 78.597013 
L 256.776164 78.597013 
L 257.176478 76.17237 
L 257.176478 76.17237 
L 257.576792 71.770605 
L 257.576792 71.770605 
L 257.977106 71.975784 
L 257.977106 71.975784 
L 258.37742 69.474633 
L 258.37742 69.474633 
L 258.777733 64.507804 
L 258.777733 64.507804 
L 259.178047 64.103132 
L 259.178047 64.103132 
L 260.378989 56.571679 
L 260.378989 56.571679 
L 260.779303 54.621622 
L 260.779303 54.621622 
L 261.179617 53.568 
L 261.179617 53.568 
L 292.003784 53.568 
L 292.003784 53.568 
L 292.404098 54.358685 
L 292.404098 54.358685 
L 292.804412 54.638859 
L 292.804412 54.638859 
L 293.60504 56.678728 
L 293.60504 56.678728 
L 294.405668 59.440154 
L 294.405668 59.440154 
L 294.805981 59.488296 
L 294.805981 59.488296 
L 295.606609 61.680061 
L 295.606609 61.680061 
L 296.407237 65.258844 
L 296.407237 65.258844 
L 296.807551 65.27968 
L 297.207865 66.416613 
L 297.207865 66.416613 
L 298.008492 70.460699 
L 298.008492 70.460699 
L 298.408806 70.367197 
L 298.408806 70.367197 
L 298.80912 71.894468 
L 298.80912 71.894468 
L 299.609748 76.63105 
L 299.609748 76.63105 
L 300.010062 76.399019 
L 300.010062 76.399019 
L 300.410376 77.948123 
L 300.410376 77.948123 
L 300.810689 80.66936 
L 300.810689 80.66936 
L 301.211003 81.277335 
L 301.211003 81.277335 
L 301.611317 82.94114 
L 301.611317 82.94114 
L 302.011631 85.104873 
L 302.011631 85.104873 
L 302.411945 88.39565 
L 302.411945 88.39565 
L 302.812259 88.226911 
L 302.812259 88.226911 
L 303.212573 90.017875 
L 303.212573 90.017875 
L 303.612886 93.430156 
L 303.612886 93.430156 
L 304.0132 93.672984 
L 304.0132 93.672984 
L 304.413514 95.683157 
L 304.413514 95.683157 
L 304.813828 99.228102 
L 304.813828 99.228102 
L 305.214142 99.511874 
L 305.214142 99.511874 
L 305.614456 101.61434 
L 305.614456 101.61434 
L 306.01477 105.509676 
L 306.01477 105.509676 
L 306.415084 105.726164 
L 306.415084 105.726164 
L 306.815397 107.80598 
L 306.815397 107.80598 
L 307.215711 112.464845 
L 307.215711 112.464845 
L 307.616025 112.003867 
L 308.016339 114.986105 
L 308.016339 114.986105 
L 308.416653 116.415641 
L 308.416653 116.415641 
L 308.816967 118.365183 
L 308.816967 118.365183 
L 309.217281 122.669847 
L 309.217281 122.669847 
L 309.617594 122.558473 
L 310.017908 125.52907 
L 310.017908 125.52907 
L 310.418222 126.680337 
L 310.418222 126.680337 
L 310.818536 128.751686 
L 310.818536 128.751686 
L 311.21885 133.52513 
L 311.21885 133.52513 
L 311.619164 132.511697 
L 311.619164 132.511697 
L 312.019478 136.522731 
L 312.019478 136.522731 
L 312.419792 136.253323 
L 312.419792 136.253323 
L 312.820105 139.566659 
L 313.220419 139.840694 
L 313.220419 139.840694 
L 313.620733 142.707385 
L 313.620733 142.707385 
L 314.021047 143.270061 
L 314.021047 143.270061 
L 314.421361 145.746354 
L 314.421361 145.746354 
L 314.821675 146.549861 
L 315.221989 148.883059 
L 315.221989 148.883059 
L 315.622302 149.692946 
L 315.622302 149.692946 
L 316.022616 152.006337 
L 316.022616 152.006337 
L 316.42293 152.71489 
L 316.42293 152.71489 
L 316.823244 155.230677 
L 316.823244 155.230677 
L 317.223558 155.746692 
L 317.223558 155.746692 
L 317.623872 158.293172 
L 317.623872 158.293172 
L 318.024186 158.510174 
L 318.024186 158.510174 
L 318.424499 161.586732 
L 318.424499 161.586732 
L 318.824813 161.370546 
L 318.824813 161.370546 
L 319.225127 164.642423 
L 319.225127 164.642423 
L 319.625441 163.939918 
L 319.625441 163.939918 
L 320.025755 167.847591 
L 320.025755 167.847591 
L 320.426069 166.725717 
L 320.426069 166.725717 
L 320.826383 167.820435 
L 320.826383 167.820435 
L 321.226697 169.72864 
L 321.226697 169.72864 
L 321.62701 170.131709 
L 321.62701 170.131709 
L 322.027324 172.687533 
L 322.027324 172.687533 
L 322.427638 172.371192 
L 322.427638 172.371192 
L 322.827952 175.630913 
L 322.827952 175.630913 
L 323.228266 174.768378 
L 323.228266 174.768378 
L 323.62858 175.579566 
L 323.62858 175.579566 
L 324.028894 177.452087 
L 324.028894 177.452087 
L 324.429207 177.500501 
L 324.429207 177.500501 
L 324.829521 180.005401 
L 324.829521 180.005401 
L 325.229835 179.358689 
L 325.229835 179.358689 
L 325.630149 180.126634 
L 325.630149 180.126634 
L 326.030463 181.681574 
L 326.030463 181.681574 
L 326.430777 181.711542 
L 326.430777 181.711542 
L 326.831091 183.629514 
L 326.831091 183.629514 
L 327.231405 183.178757 
L 327.631718 183.549802 
L 327.631718 183.549802 
L 328.032032 185.043809 
L 328.032032 185.043809 
L 328.432346 184.748727 
L 328.432346 184.748727 
L 328.83266 185.272816 
L 328.83266 185.272816 
L 329.232974 186.259366 
L 329.232974 186.259366 
L 329.633288 186.171791 
L 329.633288 186.171791 
L 330.033602 186.523543 
L 330.033602 186.523543 
L 330.433915 187.297898 
L 330.433915 187.297898 
L 330.834229 187.347915 
L 330.834229 187.347915 
L 331.234543 188.28717 
L 331.234543 188.28717 
L 331.634857 188.143802 
L 331.634857 188.143802 
L 332.035171 188.28841 
L 332.035171 188.28841 
L 332.435485 188.901253 
L 332.435485 188.901253 
L 332.835799 188.833909 
L 332.835799 188.833909 
L 333.236113 188.906606 
L 333.236113 188.906606 
L 333.636426 189.513583 
L 333.636426 189.513583 
L 334.03674 189.386454 
L 334.03674 189.386454 
L 334.437054 189.567471 
L 334.437054 189.567471 
L 334.837368 189.885777 
L 334.837368 189.885777 
L 335.237682 189.829803 
L 335.237682 189.829803 
L 336.03831 190.1469 
L 336.03831 190.1469 
L 342.043018 190.341766 
L 342.043018 190.341766 
L 342.443331 190.228336 
L 342.443331 190.228336 
L 343.243959 190.371522 
L 343.243959 190.371522 
L 343.644273 190.377782 
L 343.644273 190.377782 
L 344.044587 189.865577 
L 344.044587 189.865577 
L 344.845215 190.221834 
L 344.845215 190.221834 
L 345.245529 190.222439 
L 345.245529 190.222439 
L 345.645842 189.458093 
L 345.645842 189.458093 
L 346.44647 189.918255 
L 346.44647 189.918255 
L 346.846784 189.888468 
L 346.846784 189.888468 
L 347.247098 188.679201 
L 347.247098 188.679201 
L 348.047726 189.420051 
L 348.047726 189.420051 
L 348.448039 189.202172 
L 348.448039 189.202172 
L 348.848353 187.654428 
L 348.848353 187.654428 
L 349.248667 188.301383 
L 349.248667 188.301383 
L 349.648981 188.675088 
L 349.648981 188.675088 
L 350.049295 188.38802 
L 350.049295 188.38802 
L 350.449609 186.43621 
L 350.449609 186.43621 
L 350.849923 187.126044 
L 350.849923 187.126044 
L 351.250237 187.511363 
L 351.250237 187.511363 
L 351.65055 187.057884 
L 352.050864 184.760551 
L 352.050864 184.760551 
L 352.451178 185.650695 
L 352.451178 185.650695 
L 352.851492 185.875348 
L 352.851492 185.875348 
L 353.251806 185.204958 
L 353.251806 185.204958 
L 353.65212 182.792894 
L 353.65212 182.792894 
L 354.052434 183.611884 
L 354.052434 183.611884 
L 354.452747 183.769374 
L 354.452747 183.769374 
L 354.853061 183.090365 
L 354.853061 183.090365 
L 355.253375 180.046891 
L 355.253375 180.046891 
L 355.653689 181.060717 
L 355.653689 181.060717 
L 356.054003 180.954151 
L 356.054003 180.954151 
L 356.454317 179.965061 
L 356.854631 177.348938 
L 357.254945 177.930575 
L 357.254945 177.930575 
L 357.655258 176.611566 
L 357.655258 176.611566 
L 358.055572 173.591437 
L 358.055572 173.591437 
L 358.455886 173.729785 
L 358.455886 173.729785 
L 358.8562 167.843146 
L 358.8562 167.843146 
L 359.256514 169.728821 
L 359.256514 169.728821 
L 359.656828 167.972059 
L 359.656828 167.972059 
L 360.057142 163.543895 
L 360.057142 163.543895 
L 360.457455 163.274093 
L 360.457455 163.274093 
L 360.857769 156.888282 
L 360.857769 156.888282 
L 361.258083 158.262358 
L 361.258083 158.262358 
L 362.459025 150.354023 
L 362.459025 150.354023 
L 364.06028 143.45646 
L 364.06028 143.45646 
L 364.460594 142.19388 
L 364.460594 142.19388 
L 364.860908 144.236894 
L 364.860908 144.236894 
L 365.261222 147.714706 
L 365.261222 147.714706 
L 365.661536 148.228544 
L 365.661536 148.228544 
L 366.06185 152.282519 
L 366.06185 152.282519 
L 366.462163 151.909327 
L 366.462163 151.909327 
L 366.862477 155.621347 
L 366.862477 155.621347 
L 367.262791 155.287498 
L 367.262791 155.287498 
L 367.663105 158.110281 
L 367.663105 158.110281 
L 368.063419 158.06483 
L 368.063419 158.06483 
L 368.463733 160.153779 
L 368.463733 160.153779 
L 368.864047 160.265455 
L 368.864047 160.265455 
L 369.26436 161.63693 
L 369.26436 161.63693 
L 369.664674 161.707933 
L 369.664674 161.707933 
L 370.064988 162.964889 
L 370.064988 162.964889 
L 370.465302 162.818407 
L 370.465302 162.818407 
L 370.865616 163.081706 
L 370.865616 163.081706 
L 371.26593 163.704741 
L 371.26593 163.704741 
L 371.666244 163.646922 
L 371.666244 163.646922 
L 372.066558 163.819079 
L 372.066558 163.819079 
L 372.466871 164.144945 
L 372.466871 164.144945 
L 373.667813 164.199468 
L 373.667813 164.199468 
L 374.068127 164.461376 
L 374.068127 164.461376 
L 376.069696 164.442567 
L 376.069696 164.442567 
L 376.47001 164.313472 
L 376.47001 164.313472 
L 378.071266 164.380393 
L 378.071266 164.380393 
L 378.871893 164.406763 
L 378.871893 164.406763 
L 379.272207 164.268566 
L 379.272207 164.268566 
L 379.672521 164.348793 
L 379.672521 164.348793 
L 380.072835 164.05861 
L 380.072835 164.05861 
L 380.473149 164.299864 
L 380.473149 164.299864 
L 380.873463 164.388588 
L 380.873463 164.388588 
L 381.273776 163.890989 
L 381.273776 163.890989 
L 382.074404 164.191424 
L 382.074404 164.191424 
L 382.875032 163.632709 
L 382.875032 163.632709 
L 383.275346 163.863622 
L 383.275346 163.863622 
L 383.67566 163.702655 
L 383.67566 163.702655 
L 384.075974 163.070034 
L 384.075974 163.070034 
L 384.476287 163.433972 
L 384.476287 163.433972 
L 384.876601 163.350298 
L 384.876601 163.350298 
L 385.276915 162.11454 
L 385.276915 162.11454 
L 385.677229 162.58946 
L 385.677229 162.58946 
L 386.077543 162.619639 
L 386.077543 162.619639 
L 386.477857 161.139089 
L 386.477857 161.139089 
L 386.878171 161.662997 
L 386.878171 161.662997 
L 387.278484 161.525193 
L 387.278484 161.525193 
L 387.678798 160.347496 
L 387.678798 160.347496 
L 388.079112 160.653737 
L 388.079112 160.653737 
L 388.479426 158.665154 
L 388.479426 158.665154 
L 388.87974 159.371984 
L 388.87974 159.371984 
L 390.080682 157.204472 
L 390.080682 157.204472 
L 390.480995 156.105127 
L 390.480995 156.105127 
L 390.881309 155.543721 
L 390.881309 155.543721 
L 391.281623 153.862165 
L 391.281623 153.862165 
L 391.681937 153.807492 
L 391.681937 153.807492 
L 392.082251 151.325816 
L 392.082251 151.325816 
L 392.482565 152.198028 
L 392.482565 152.198028 
L 392.882879 151.268783 
L 392.882879 151.268783 
L 393.283192 149.299584 
L 393.283192 149.299584 
L 393.683506 149.476609 
L 393.683506 149.476609 
L 394.08382 145.944336 
L 394.08382 145.944336 
L 394.484134 147.00576 
L 394.484134 147.00576 
L 394.884448 146.424275 
L 394.884448 146.424275 
L 395.284762 143.578781 
L 395.284762 143.578781 
L 395.685076 144.234657 
L 395.685076 144.234657 
L 396.08539 139.931142 
L 396.08539 139.931142 
L 396.485703 141.414202 
L 396.485703 141.414202 
L 396.886017 140.385558 
L 396.886017 140.385558 
L 397.286331 137.694077 
L 397.286331 137.694077 
L 397.686645 137.497638 
L 397.686645 137.497638 
L 398.086959 133.985202 
L 398.086959 133.985202 
L 398.487273 278.193351 
L 398.487273 278.193351 
" clip-path="url(#pc46162e9e6)" style="fill: none; stroke: #ff7f0e; stroke-width: 1.5; stroke-linecap: square"/>
   </g>
   <g id="patch_3">
    <path d="M 57.6 307.584 
L 57.6 41.472 
" style="fill: none; stroke: #000000; stroke-width: 0.8; stroke-linejoin: miter; stroke-linecap: square"/>
   </g>
   <g id="patch_4">
    <path d="M 414.72 307.584 
L 414.72 41.472 
" style="fill: none; stroke: #000000; stroke-width: 0.8; stroke-linejoin: miter; stroke-linecap: square"/>
   </g>
   <g id="patch_5">
    <path d="M 57.6 307.584 
L 414.72 307.584 
" style="fill: none; stroke: #000000; stroke-width: 0.8; stroke-linejoin: miter; stroke-linecap: square"/>
   </g>
   <g id="patch_6">
    <path d="M 57.6 41.472 
L 414.72 41.472 
" style="fill: none; stroke: #000000; stroke-width: 0.8; stroke-linejoin: miter; stroke-linecap: square"/>
   </g>
   <g id="text_21">
    <!-- Actual speed vs Expected speed -->
    <g transform="translate(138.808125 35.472) scale(0.12 -0.12)">
     <defs>
      <path id="DejaVuSans-41" d="M 2188 4044 
L 1331 1722 
L 3047 1722 
L 2188 4044 
z
M 1831 4666 
L 2547 4666 
L 4325 0 
L 3669 0 
L 3244 1197 
L 1141 1197 
L 716 0 
L 50 0 
L 1831 4666 
z
" transform="scale(0.015625)"/>
      <path id="DejaVuSans-75" d="M 544 1381 
L 544 3500 
L 1119 3500 
L 1119 1403 
Q 1119 906 1312 657 
Q 1506 409 1894 409 
Q 2359 409 2629 706 
Q 2900 1003 2900 1516 
L 2900 3500 
L 3475 3500 
L 3475 0 
L 2900 0 
L 2900 538 
Q 2691 219 2414 64 
Q 2138 -91 1772 -91 
Q 1169 -91 856 284 
Q 544 659 544 1381 
z
M 1991 3584 
L 1991 3584 
z
" transform="scale(0.015625)"/>
      <path id="DejaVuSans-61" d="M 2194 1759 
Q 1497 1759 1228 1600 
Q 959 1441 959 1056 
Q 959 750 1161 570 
Q 1363 391 1709 391 
Q 2188 391 2477 730 
Q 2766 1069 2766 1631 
L 2766 1759 
L 2194 1759 
z
M 3341 1997 
L 3341 0 
L 2766 0 
L 2766 531 
Q 2569 213 2275 61 
Q 1981 -91 1556 -91 
Q 1019 -91 701 211 
Q 384 513 384 1019 
Q 384 1609 779 1909 
Q 1175 2209 1959 2209 
L 2766 2209 
L 2766 2266 
Q 2766 2663 2505 2880 
Q 2244 3097 1772 3097 
Q 1472 3097 1187 3025 
Q 903 2953 641 2809 
L 641 3341 
Q 956 3463 1253 3523 
Q 1550 3584 1831 3584 
Q 2591 3584 2966 3190 
Q 3341 2797 3341 1997 
z
" transform="scale(0.015625)"/>
      <path id="DejaVuSans-20" transform="scale(0.015625)"/>
      <path id="DejaVuSans-70" d="M 1159 525 
L 1159 -1331 
L 581 -1331 
L 581 3500 
L 1159 3500 
L 1159 2969 
Q 1341 3281 1617 3432 
Q 1894 3584 2278 3584 
Q 2916 3584 3314 3078 
Q 3713 2572 3713 1747 
Q 3713 922 3314 415 
Q 2916 -91 2278 -91 
Q 1894 -91 1617 61 
Q 1341 213 1159 525 
z
M 3116 1747 
Q 3116 2381 2855 2742 
Q 2594 3103 2138 3103 
Q 1681 3103 1420 2742 
Q 1159 2381 1159 1747 
Q 1159 1113 1420 752 
Q 1681 391 2138 391 
Q 2594 391 2855 752 
Q 3116 1113 3116 1747 
z
" transform="scale(0.015625)"/>
      <path id="DejaVuSans-64" d="M 2906 2969 
L 2906 4863 
L 3481 4863 
L 3481 0 
L 2906 0 
L 2906 525 
Q 2725 213 2448 61 
Q 2172 -91 1784 -91 
Q 1150 -91 751 415 
Q 353 922 353 1747 
Q 353 2572 751 3078 
Q 1150 3584 1784 3584 
Q 2172 3584 2448 3432 
Q 2725 3281 2906 2969 
z
M 947 1747 
Q 947 1113 1208 752 
Q 1469 391 1925 391 
Q 2381 391 2643 752 
Q 2906 1113 2906 1747 
Q 2906 2381 2643 2742 
Q 2381 3103 1925 3103 
Q 1469 3103 1208 2742 
Q 947 2381 947 1747 
z
" transform="scale(0.015625)"/>
      <path id="DejaVuSans-76" d="M 191 3500 
L 800 3500 
L 1894 563 
L 2988 3500 
L 3597 3500 
L 2284 0 
L 1503 0 
L 191 3500 
z
" transform="scale(0.015625)"/>
      <path id="DejaVuSans-45" d="M 628 4666 
L 3578 4666 
L 3578 4134 
L 1259 4134 
L 1259 2753 
L 3481 2753 
L 3481 2222 
L 1259 2222 
L 1259 531 
L 3634 531 
L 3634 0 
L 628 0 
L 628 4666 
z
" transform="scale(0.015625)"/>
      <path id="DejaVuSans-78" d="M 3513 3500 
L 2247 1797 
L 3578 0 
L 2900 0 
L 1881 1375 
L 863 0 
L 184 0 
L 1544 1831 
L 300 3500 
L 978 3500 
L 1906 2253 
L 2834 3500 
L 3513 3500 
z
" transform="scale(0.015625)"/>
     </defs>
     <use xlink:href="#DejaVuSans-41"/>
     <use xlink:href="#DejaVuSans-63" x="66.658203"/>
     <use xlink:href="#DejaVuSans-74" x="121.638672"/>
     <use xlink:href="#DejaVuSans-75" x="160.847656"/>
     <use xlink:href="#DejaVuSans-61" x="224.226562"/>
     <use xlink:href="#DejaVuSans-6c" x="285.505859"/>
     <use xlink:href="#DejaVuSans-20" x="313.289062"/>
     <use xlink:href="#DejaVuSans-73" x="345.076172"/>
     <use xlink:href="#DejaVuSans-70" x="397.175781"/>
     <use xlink:href="#DejaVuSans-65" x="460.652344"/>
     <use xlink:href="#DejaVuSans-65" x="522.175781"/>
     <use xlink:href="#DejaVuSans-64" x="583.699219"/>
     <use xlink:href="#DejaVuSans-20" x="647.175781"/>
     <use xlink:href="#DejaVuSans-76" x="678.962891"/>
     <use xlink:href="#DejaVuSans-73" x="738.142578"/>
     <use xlink:href="#DejaVuSans-20" x="790.242188"/>
     <use xlink:href="#DejaVuSans-45" x="822.029297"/>
     <use xlink:href="#DejaVuSans-78" x="885.212891"/>
     <use xlink:href="#DejaVuSans-70" x="944.392578"/>
     <use xlink:href="#DejaVuSans-65" x="1007.869141"/>
     <use xlink:href="#DejaVuSans-63" x="1069.392578"/>
     <use xlink:href="#DejaVuSans-74" x="1124.373047"/>
     <use xlink:href="#DejaVuSans-65" x="1163.582031"/>
     <use xlink:href="#DejaVuSans-64" x="1225.105469"/>
     <use xlink:href="#DejaVuSans-20" x="1288.582031"/>
     <use xlink:href="#DejaVuSans-73" x="1320.369141"/>
     <use xlink:href="#DejaVuSans-70" x="1372.46875"/>
     <use xlink:href="#DejaVuSans-65" x="1435.945312"/>
     <use xlink:href="#DejaVuSans-65" x="1497.46875"/>
     <use xlink:href="#DejaVuSans-64" x="1558.992188"/>
    </g>
   </g>
   <g id="legend_1">
    <g id="patch_7">
     <path d="M 180.135 302.584 
L 292.185 302.584 
Q 294.185 302.584 294.185 300.584 
L 294.185 272.22775 
Q 294.185 270.22775 292.185 270.22775 
L 180.135 270.22775 
Q 178.135 270.22775 178.135 272.22775 
L 178.135 300.584 
Q 178.135 302.584 180.135 302.584 
z
" style="fill: #ffffff; opacity: 0.8; stroke: #cccccc; stroke-linejoin: miter"/>
    </g>
    <g id="line2d_39">
     <path d="M 182.135 278.326187 
L 192.135 278.326187 
L 202.135 278.326187 
" style="fill: none; stroke: #1f77b4; stroke-width: 1.5; stroke-linecap: square"/>
    </g>
    <g id="text_22">
     <!-- Actual speed -->
     <g transform="translate(210.135 281.826187) scale(0.1 -0.1)">
      <use xlink:href="#DejaVuSans-41"/>
      <use xlink:href="#DejaVuSans-63" x="66.658203"/>
      <use xlink:href="#DejaVuSans-74" x="121.638672"/>
      <use xlink:href="#DejaVuSans-75" x="160.847656"/>
      <use xlink:href="#DejaVuSans-61" x="224.226562"/>
      <use xlink:href="#DejaVuSans-6c" x="285.505859"/>
      <use xlink:href="#DejaVuSans-20" x="313.289062"/>
      <use xlink:href="#DejaVuSans-73" x="345.076172"/>
      <use xlink:href="#DejaVuSans-70" x="397.175781"/>
      <use xlink:href="#DejaVuSans-65" x="460.652344"/>
      <use xlink:href="#DejaVuSans-65" x="522.175781"/>
      <use xlink:href="#DejaVuSans-64" x="583.699219"/>
     </g>
    </g>
    <g id="line2d_40">
     <path d="M 182.135 293.004312 
L 192.135 293.004312 
L 202.135 293.004312 
" style="fill: none; stroke: #ff7f0e; stroke-width: 1.5; stroke-linecap: square"/>
    </g>
    <g id="text_23">
     <!-- Expected speed -->
     <g transform="translate(210.135 296.504312) scale(0.1 -0.1)">
      <use xlink:href="#DejaVuSans-45"/>
      <use xlink:href="#DejaVuSans-78" x="63.183594"/>
      <use xlink:href="#DejaVuSans-70" x="122.363281"/>
      <use xlink:href="#DejaVuSans-65" x="185.839844"/>
      <use xlink:href="#DejaVuSans-63" x="247.363281"/>
      <use xlink:href="#DejaVuSans-74" x="302.34375"/>
      <use xlink:href="#DejaVuSans-65" x="341.552734"/>
      <use xlink:href="#DejaVuSans-64" x="403.076172"/>
      <use xlink:href="#DejaVuSans-20" x="466.552734"/>
      <use xlink:href="#DejaVuSans-73" x="498.339844"/>
      <use xlink:href="#DejaVuSans-70" x="550.439453"/>
      <use xlink:href="#DejaVuSans-65" x="613.916016"/>
      <use xlink:href="#DejaVuSans-65" x="675.439453"/>
      <use xlink:href="#DejaVuSans-64" x="736.962891"/>
     </g>
    </g>
   </g>
  </g>
 </g>
 <defs>
  <clipPath id="pc46162e9e6">
   <rect x="57.6" y="41.472" width="357.12" height="266.112"/>
  </clipPath>
 </defs>
</svg>
