<?xml version="1.0" encoding="utf-8" standalone="no"?>
<!DOCTYPE svg PUBLIC "-//W3C//DTD SVG 1.1//EN"
  "http://www.w3.org/Graphics/SVG/1.1/DTD/svg11.dtd">
<svg xmlns:xlink="http://www.w3.org/1999/xlink" width="460.8pt" height="345.6pt" viewBox="0 0 460.8 345.6" xmlns="http://www.w3.org/2000/svg" version="1.1">
 <metadata>
  <rdf:RDF xmlns:dc="http://purl.org/dc/elements/1.1/" xmlns:cc="http://creativecommons.org/ns#" xmlns:rdf="http://www.w3.org/1999/02/22-rdf-syntax-ns#">
   <cc:Work>
    <dc:type rdf:resource="http://purl.org/dc/dcmitype/StillImage"/>
    <dc:date>2024-01-30T20:58:26.670301</dc:date>
    <dc:format>image/svg+xml</dc:format>
    <dc:creator>
     <cc:Agent>
      <dc:title>Matplotlib v3.7.1, https://matplotlib.org/</dc:title>
     </cc:Agent>
    </dc:creator>
   </cc:Work>
  </rdf:RDF>
 </metadata>
 <defs>
  <style type="text/css">*{stroke-linejoin: round; stroke-linecap: butt}</style>
 </defs>
 <g id="figure_1">
  <g id="patch_1">
   <path d="M 0 345.6 
L 460.8 345.6 
L 460.8 0 
L 0 0 
z
" style="fill: #ffffff"/>
  </g>
  <g id="axes_1">
   <g id="patch_2">
    <path d="M 57.6 307.584 
L 414.72 307.584 
L 414.72 41.472 
L 57.6 41.472 
z
" style="fill: #ffffff"/>
   </g>
   <g id="matplotlib.axis_1">
    <g id="xtick_1">
     <g id="line2d_1">
      <path d="M 73.832727 307.584 
L 73.832727 41.472 
" clip-path="url(#p553e8ddffc)" style="fill: none; stroke: #b0b0b0; stroke-width: 0.8; stroke-linecap: square"/>
     </g>
     <g id="line2d_2">
      <defs>
       <path id="ma1e6d2bdb2" d="M 0 0 
L 0 3.5 
" style="stroke: #000000; stroke-width: 0.8"/>
      </defs>
      <g>
       <use xlink:href="#ma1e6d2bdb2" x="73.832727" y="307.584" style="stroke: #000000; stroke-width: 0.8"/>
      </g>
     </g>
     <g id="text_1">
      <!-- 0 -->
      <g transform="translate(70.651477 322.182437) scale(0.1 -0.1)">
       <defs>
        <path id="DejaVuSans-30" d="M 2034 4250 
Q 1547 4250 1301 3770 
Q 1056 3291 1056 2328 
Q 1056 1369 1301 889 
Q 1547 409 2034 409 
Q 2525 409 2770 889 
Q 3016 1369 3016 2328 
Q 3016 3291 2770 3770 
Q 2525 4250 2034 4250 
z
M 2034 4750 
Q 2819 4750 3233 4129 
Q 3647 3509 3647 2328 
Q 3647 1150 3233 529 
Q 2819 -91 2034 -91 
Q 1250 -91 836 529 
Q 422 1150 422 2328 
Q 422 3509 836 4129 
Q 1250 4750 2034 4750 
z
" transform="scale(0.015625)"/>
       </defs>
       <use xlink:href="#DejaVuSans-30"/>
      </g>
     </g>
    </g>
    <g id="xtick_2">
     <g id="line2d_3">
      <path d="M 113.765636 307.584 
L 113.765636 41.472 
" clip-path="url(#p553e8ddffc)" style="fill: none; stroke: #b0b0b0; stroke-width: 0.8; stroke-linecap: square"/>
     </g>
     <g id="line2d_4">
      <g>
       <use xlink:href="#ma1e6d2bdb2" x="113.765636" y="307.584" style="stroke: #000000; stroke-width: 0.8"/>
      </g>
     </g>
     <g id="text_2">
      <!-- 2 -->
      <g transform="translate(110.584386 322.182437) scale(0.1 -0.1)">
       <defs>
        <path id="DejaVuSans-32" d="M 1228 531 
L 3431 531 
L 3431 0 
L 469 0 
L 469 531 
Q 828 903 1448 1529 
Q 2069 2156 2228 2338 
Q 2531 2678 2651 2914 
Q 2772 3150 2772 3378 
Q 2772 3750 2511 3984 
Q 2250 4219 1831 4219 
Q 1534 4219 1204 4116 
Q 875 4013 500 3803 
L 500 4441 
Q 881 4594 1212 4672 
Q 1544 4750 1819 4750 
Q 2544 4750 2975 4387 
Q 3406 4025 3406 3419 
Q 3406 3131 3298 2873 
Q 3191 2616 2906 2266 
Q 2828 2175 2409 1742 
Q 1991 1309 1228 531 
z
" transform="scale(0.015625)"/>
       </defs>
       <use xlink:href="#DejaVuSans-32"/>
      </g>
     </g>
    </g>
    <g id="xtick_3">
     <g id="line2d_5">
      <path d="M 153.698544 307.584 
L 153.698544 41.472 
" clip-path="url(#p553e8ddffc)" style="fill: none; stroke: #b0b0b0; stroke-width: 0.8; stroke-linecap: square"/>
     </g>
     <g id="line2d_6">
      <g>
       <use xlink:href="#ma1e6d2bdb2" x="153.698544" y="307.584" style="stroke: #000000; stroke-width: 0.8"/>
      </g>
     </g>
     <g id="text_3">
      <!-- 4 -->
      <g transform="translate(150.517294 322.182437) scale(0.1 -0.1)">
       <defs>
        <path id="DejaVuSans-34" d="M 2419 4116 
L 825 1625 
L 2419 1625 
L 2419 4116 
z
M 2253 4666 
L 3047 4666 
L 3047 1625 
L 3713 1625 
L 3713 1100 
L 3047 1100 
L 3047 0 
L 2419 0 
L 2419 1100 
L 313 1100 
L 313 1709 
L 2253 4666 
z
" transform="scale(0.015625)"/>
       </defs>
       <use xlink:href="#DejaVuSans-34"/>
      </g>
     </g>
    </g>
    <g id="xtick_4">
     <g id="line2d_7">
      <path d="M 193.631453 307.584 
L 193.631453 41.472 
" clip-path="url(#p553e8ddffc)" style="fill: none; stroke: #b0b0b0; stroke-width: 0.8; stroke-linecap: square"/>
     </g>
     <g id="line2d_8">
      <g>
       <use xlink:href="#ma1e6d2bdb2" x="193.631453" y="307.584" style="stroke: #000000; stroke-width: 0.8"/>
      </g>
     </g>
     <g id="text_4">
      <!-- 6 -->
      <g transform="translate(190.450203 322.182437) scale(0.1 -0.1)">
       <defs>
        <path id="DejaVuSans-36" d="M 2113 2584 
Q 1688 2584 1439 2293 
Q 1191 2003 1191 1497 
Q 1191 994 1439 701 
Q 1688 409 2113 409 
Q 2538 409 2786 701 
Q 3034 994 3034 1497 
Q 3034 2003 2786 2293 
Q 2538 2584 2113 2584 
z
M 3366 4563 
L 3366 3988 
Q 3128 4100 2886 4159 
Q 2644 4219 2406 4219 
Q 1781 4219 1451 3797 
Q 1122 3375 1075 2522 
Q 1259 2794 1537 2939 
Q 1816 3084 2150 3084 
Q 2853 3084 3261 2657 
Q 3669 2231 3669 1497 
Q 3669 778 3244 343 
Q 2819 -91 2113 -91 
Q 1303 -91 875 529 
Q 447 1150 447 2328 
Q 447 3434 972 4092 
Q 1497 4750 2381 4750 
Q 2619 4750 2861 4703 
Q 3103 4656 3366 4563 
z
" transform="scale(0.015625)"/>
       </defs>
       <use xlink:href="#DejaVuSans-36"/>
      </g>
     </g>
    </g>
    <g id="xtick_5">
     <g id="line2d_9">
      <path d="M 233.564361 307.584 
L 233.564361 41.472 
" clip-path="url(#p553e8ddffc)" style="fill: none; stroke: #b0b0b0; stroke-width: 0.8; stroke-linecap: square"/>
     </g>
     <g id="line2d_10">
      <g>
       <use xlink:href="#ma1e6d2bdb2" x="233.564361" y="307.584" style="stroke: #000000; stroke-width: 0.8"/>
      </g>
     </g>
     <g id="text_5">
      <!-- 8 -->
      <g transform="translate(230.383111 322.182437) scale(0.1 -0.1)">
       <defs>
        <path id="DejaVuSans-38" d="M 2034 2216 
Q 1584 2216 1326 1975 
Q 1069 1734 1069 1313 
Q 1069 891 1326 650 
Q 1584 409 2034 409 
Q 2484 409 2743 651 
Q 3003 894 3003 1313 
Q 3003 1734 2745 1975 
Q 2488 2216 2034 2216 
z
M 1403 2484 
Q 997 2584 770 2862 
Q 544 3141 544 3541 
Q 544 4100 942 4425 
Q 1341 4750 2034 4750 
Q 2731 4750 3128 4425 
Q 3525 4100 3525 3541 
Q 3525 3141 3298 2862 
Q 3072 2584 2669 2484 
Q 3125 2378 3379 2068 
Q 3634 1759 3634 1313 
Q 3634 634 3220 271 
Q 2806 -91 2034 -91 
Q 1263 -91 848 271 
Q 434 634 434 1313 
Q 434 1759 690 2068 
Q 947 2378 1403 2484 
z
M 1172 3481 
Q 1172 3119 1398 2916 
Q 1625 2713 2034 2713 
Q 2441 2713 2670 2916 
Q 2900 3119 2900 3481 
Q 2900 3844 2670 4047 
Q 2441 4250 2034 4250 
Q 1625 4250 1398 4047 
Q 1172 3844 1172 3481 
z
" transform="scale(0.015625)"/>
       </defs>
       <use xlink:href="#DejaVuSans-38"/>
      </g>
     </g>
    </g>
    <g id="xtick_6">
     <g id="line2d_11">
      <path d="M 273.497269 307.584 
L 273.497269 41.472 
" clip-path="url(#p553e8ddffc)" style="fill: none; stroke: #b0b0b0; stroke-width: 0.8; stroke-linecap: square"/>
     </g>
     <g id="line2d_12">
      <g>
       <use xlink:href="#ma1e6d2bdb2" x="273.497269" y="307.584" style="stroke: #000000; stroke-width: 0.8"/>
      </g>
     </g>
     <g id="text_6">
      <!-- 10 -->
      <g transform="translate(267.134769 322.182437) scale(0.1 -0.1)">
       <defs>
        <path id="DejaVuSans-31" d="M 794 531 
L 1825 531 
L 1825 4091 
L 703 3866 
L 703 4441 
L 1819 4666 
L 2450 4666 
L 2450 531 
L 3481 531 
L 3481 0 
L 794 0 
L 794 531 
z
" transform="scale(0.015625)"/>
       </defs>
       <use xlink:href="#DejaVuSans-31"/>
       <use xlink:href="#DejaVuSans-30" x="63.623047"/>
      </g>
     </g>
    </g>
    <g id="xtick_7">
     <g id="line2d_13">
      <path d="M 313.430178 307.584 
L 313.430178 41.472 
" clip-path="url(#p553e8ddffc)" style="fill: none; stroke: #b0b0b0; stroke-width: 0.8; stroke-linecap: square"/>
     </g>
     <g id="line2d_14">
      <g>
       <use xlink:href="#ma1e6d2bdb2" x="313.430178" y="307.584" style="stroke: #000000; stroke-width: 0.8"/>
      </g>
     </g>
     <g id="text_7">
      <!-- 12 -->
      <g transform="translate(307.067678 322.182437) scale(0.1 -0.1)">
       <use xlink:href="#DejaVuSans-31"/>
       <use xlink:href="#DejaVuSans-32" x="63.623047"/>
      </g>
     </g>
    </g>
    <g id="xtick_8">
     <g id="line2d_15">
      <path d="M 353.363086 307.584 
L 353.363086 41.472 
" clip-path="url(#p553e8ddffc)" style="fill: none; stroke: #b0b0b0; stroke-width: 0.8; stroke-linecap: square"/>
     </g>
     <g id="line2d_16">
      <g>
       <use xlink:href="#ma1e6d2bdb2" x="353.363086" y="307.584" style="stroke: #000000; stroke-width: 0.8"/>
      </g>
     </g>
     <g id="text_8">
      <!-- 14 -->
      <g transform="translate(347.000586 322.182437) scale(0.1 -0.1)">
       <use xlink:href="#DejaVuSans-31"/>
       <use xlink:href="#DejaVuSans-34" x="63.623047"/>
      </g>
     </g>
    </g>
    <g id="xtick_9">
     <g id="line2d_17">
      <path d="M 393.295995 307.584 
L 393.295995 41.472 
" clip-path="url(#p553e8ddffc)" style="fill: none; stroke: #b0b0b0; stroke-width: 0.8; stroke-linecap: square"/>
     </g>
     <g id="line2d_18">
      <g>
       <use xlink:href="#ma1e6d2bdb2" x="393.295995" y="307.584" style="stroke: #000000; stroke-width: 0.8"/>
      </g>
     </g>
     <g id="text_9">
      <!-- 16 -->
      <g transform="translate(386.933495 322.182437) scale(0.1 -0.1)">
       <use xlink:href="#DejaVuSans-31"/>
       <use xlink:href="#DejaVuSans-36" x="63.623047"/>
      </g>
     </g>
    </g>
    <g id="text_10">
     <!-- Time(s) -->
     <g transform="translate(217.420156 335.860562) scale(0.1 -0.1)">
      <defs>
       <path id="DejaVuSans-54" d="M -19 4666 
L 3928 4666 
L 3928 4134 
L 2272 4134 
L 2272 0 
L 1638 0 
L 1638 4134 
L -19 4134 
L -19 4666 
z
" transform="scale(0.015625)"/>
       <path id="DejaVuSans-69" d="M 603 3500 
L 1178 3500 
L 1178 0 
L 603 0 
L 603 3500 
z
M 603 4863 
L 1178 4863 
L 1178 4134 
L 603 4134 
L 603 4863 
z
" transform="scale(0.015625)"/>
       <path id="DejaVuSans-6d" d="M 3328 2828 
Q 3544 3216 3844 3400 
Q 4144 3584 4550 3584 
Q 5097 3584 5394 3201 
Q 5691 2819 5691 2113 
L 5691 0 
L 5113 0 
L 5113 2094 
Q 5113 2597 4934 2840 
Q 4756 3084 4391 3084 
Q 3944 3084 3684 2787 
Q 3425 2491 3425 1978 
L 3425 0 
L 2847 0 
L 2847 2094 
Q 2847 2600 2669 2842 
Q 2491 3084 2119 3084 
Q 1678 3084 1418 2786 
Q 1159 2488 1159 1978 
L 1159 0 
L 581 0 
L 581 3500 
L 1159 3500 
L 1159 2956 
Q 1356 3278 1631 3431 
Q 1906 3584 2284 3584 
Q 2666 3584 2933 3390 
Q 3200 3197 3328 2828 
z
" transform="scale(0.015625)"/>
       <path id="DejaVuSans-65" d="M 3597 1894 
L 3597 1613 
L 953 1613 
Q 991 1019 1311 708 
Q 1631 397 2203 397 
Q 2534 397 2845 478 
Q 3156 559 3463 722 
L 3463 178 
Q 3153 47 2828 -22 
Q 2503 -91 2169 -91 
Q 1331 -91 842 396 
Q 353 884 353 1716 
Q 353 2575 817 3079 
Q 1281 3584 2069 3584 
Q 2775 3584 3186 3129 
Q 3597 2675 3597 1894 
z
M 3022 2063 
Q 3016 2534 2758 2815 
Q 2500 3097 2075 3097 
Q 1594 3097 1305 2825 
Q 1016 2553 972 2059 
L 3022 2063 
z
" transform="scale(0.015625)"/>
       <path id="DejaVuSans-28" d="M 1984 4856 
Q 1566 4138 1362 3434 
Q 1159 2731 1159 2009 
Q 1159 1288 1364 580 
Q 1569 -128 1984 -844 
L 1484 -844 
Q 1016 -109 783 600 
Q 550 1309 550 2009 
Q 550 2706 781 3412 
Q 1013 4119 1484 4856 
L 1984 4856 
z
" transform="scale(0.015625)"/>
       <path id="DejaVuSans-73" d="M 2834 3397 
L 2834 2853 
Q 2591 2978 2328 3040 
Q 2066 3103 1784 3103 
Q 1356 3103 1142 2972 
Q 928 2841 928 2578 
Q 928 2378 1081 2264 
Q 1234 2150 1697 2047 
L 1894 2003 
Q 2506 1872 2764 1633 
Q 3022 1394 3022 966 
Q 3022 478 2636 193 
Q 2250 -91 1575 -91 
Q 1294 -91 989 -36 
Q 684 19 347 128 
L 347 722 
Q 666 556 975 473 
Q 1284 391 1588 391 
Q 1994 391 2212 530 
Q 2431 669 2431 922 
Q 2431 1156 2273 1281 
Q 2116 1406 1581 1522 
L 1381 1569 
Q 847 1681 609 1914 
Q 372 2147 372 2553 
Q 372 3047 722 3315 
Q 1072 3584 1716 3584 
Q 2034 3584 2315 3537 
Q 2597 3491 2834 3397 
z
" transform="scale(0.015625)"/>
       <path id="DejaVuSans-29" d="M 513 4856 
L 1013 4856 
Q 1481 4119 1714 3412 
Q 1947 2706 1947 2009 
Q 1947 1309 1714 600 
Q 1481 -109 1013 -844 
L 513 -844 
Q 928 -128 1133 580 
Q 1338 1288 1338 2009 
Q 1338 2731 1133 3434 
Q 928 4138 513 4856 
z
" transform="scale(0.015625)"/>
      </defs>
      <use xlink:href="#DejaVuSans-54"/>
      <use xlink:href="#DejaVuSans-69" x="57.958984"/>
      <use xlink:href="#DejaVuSans-6d" x="85.742188"/>
      <use xlink:href="#DejaVuSans-65" x="183.154297"/>
      <use xlink:href="#DejaVuSans-28" x="244.677734"/>
      <use xlink:href="#DejaVuSans-73" x="283.691406"/>
      <use xlink:href="#DejaVuSans-29" x="335.791016"/>
     </g>
    </g>
   </g>
   <g id="matplotlib.axis_2">
    <g id="ytick_1">
     <g id="line2d_19">
      <path d="M 57.6 295.488 
L 414.72 295.488 
" clip-path="url(#p553e8ddffc)" style="fill: none; stroke: #b0b0b0; stroke-width: 0.8; stroke-linecap: square"/>
     </g>
     <g id="line2d_20">
      <defs>
       <path id="m3a48d10522" d="M 0 0 
L -3.5 0 
" style="stroke: #000000; stroke-width: 0.8"/>
      </defs>
      <g>
       <use xlink:href="#m3a48d10522" x="57.6" y="295.488" style="stroke: #000000; stroke-width: 0.8"/>
      </g>
     </g>
     <g id="text_11">
      <!-- 0 -->
      <g transform="translate(44.2375 299.287219) scale(0.1 -0.1)">
       <use xlink:href="#DejaVuSans-30"/>
      </g>
     </g>
    </g>
    <g id="ytick_2">
     <g id="line2d_21">
      <path d="M 57.6 265.248 
L 414.72 265.248 
" clip-path="url(#p553e8ddffc)" style="fill: none; stroke: #b0b0b0; stroke-width: 0.8; stroke-linecap: square"/>
     </g>
     <g id="line2d_22">
      <g>
       <use xlink:href="#m3a48d10522" x="57.6" y="265.248" style="stroke: #000000; stroke-width: 0.8"/>
      </g>
     </g>
     <g id="text_12">
      <!-- 1 -->
      <g transform="translate(44.2375 269.047219) scale(0.1 -0.1)">
       <use xlink:href="#DejaVuSans-31"/>
      </g>
     </g>
    </g>
    <g id="ytick_3">
     <g id="line2d_23">
      <path d="M 57.6 235.008 
L 414.72 235.008 
" clip-path="url(#p553e8ddffc)" style="fill: none; stroke: #b0b0b0; stroke-width: 0.8; stroke-linecap: square"/>
     </g>
     <g id="line2d_24">
      <g>
       <use xlink:href="#m3a48d10522" x="57.6" y="235.008" style="stroke: #000000; stroke-width: 0.8"/>
      </g>
     </g>
     <g id="text_13">
      <!-- 2 -->
      <g transform="translate(44.2375 238.807219) scale(0.1 -0.1)">
       <use xlink:href="#DejaVuSans-32"/>
      </g>
     </g>
    </g>
    <g id="ytick_4">
     <g id="line2d_25">
      <path d="M 57.6 204.768 
L 414.72 204.768 
" clip-path="url(#p553e8ddffc)" style="fill: none; stroke: #b0b0b0; stroke-width: 0.8; stroke-linecap: square"/>
     </g>
     <g id="line2d_26">
      <g>
       <use xlink:href="#m3a48d10522" x="57.6" y="204.768" style="stroke: #000000; stroke-width: 0.8"/>
      </g>
     </g>
     <g id="text_14">
      <!-- 3 -->
      <g transform="translate(44.2375 208.567219) scale(0.1 -0.1)">
       <defs>
        <path id="DejaVuSans-33" d="M 2597 2516 
Q 3050 2419 3304 2112 
Q 3559 1806 3559 1356 
Q 3559 666 3084 287 
Q 2609 -91 1734 -91 
Q 1441 -91 1130 -33 
Q 819 25 488 141 
L 488 750 
Q 750 597 1062 519 
Q 1375 441 1716 441 
Q 2309 441 2620 675 
Q 2931 909 2931 1356 
Q 2931 1769 2642 2001 
Q 2353 2234 1838 2234 
L 1294 2234 
L 1294 2753 
L 1863 2753 
Q 2328 2753 2575 2939 
Q 2822 3125 2822 3475 
Q 2822 3834 2567 4026 
Q 2313 4219 1838 4219 
Q 1578 4219 1281 4162 
Q 984 4106 628 3988 
L 628 4550 
Q 988 4650 1302 4700 
Q 1616 4750 1894 4750 
Q 2613 4750 3031 4423 
Q 3450 4097 3450 3541 
Q 3450 3153 3228 2886 
Q 3006 2619 2597 2516 
z
" transform="scale(0.015625)"/>
       </defs>
       <use xlink:href="#DejaVuSans-33"/>
      </g>
     </g>
    </g>
    <g id="ytick_5">
     <g id="line2d_27">
      <path d="M 57.6 174.528 
L 414.72 174.528 
" clip-path="url(#p553e8ddffc)" style="fill: none; stroke: #b0b0b0; stroke-width: 0.8; stroke-linecap: square"/>
     </g>
     <g id="line2d_28">
      <g>
       <use xlink:href="#m3a48d10522" x="57.6" y="174.528" style="stroke: #000000; stroke-width: 0.8"/>
      </g>
     </g>
     <g id="text_15">
      <!-- 4 -->
      <g transform="translate(44.2375 178.327219) scale(0.1 -0.1)">
       <use xlink:href="#DejaVuSans-34"/>
      </g>
     </g>
    </g>
    <g id="ytick_6">
     <g id="line2d_29">
      <path d="M 57.6 144.288 
L 414.72 144.288 
" clip-path="url(#p553e8ddffc)" style="fill: none; stroke: #b0b0b0; stroke-width: 0.8; stroke-linecap: square"/>
     </g>
     <g id="line2d_30">
      <g>
       <use xlink:href="#m3a48d10522" x="57.6" y="144.288" style="stroke: #000000; stroke-width: 0.8"/>
      </g>
     </g>
     <g id="text_16">
      <!-- 5 -->
      <g transform="translate(44.2375 148.087219) scale(0.1 -0.1)">
       <defs>
        <path id="DejaVuSans-35" d="M 691 4666 
L 3169 4666 
L 3169 4134 
L 1269 4134 
L 1269 2991 
Q 1406 3038 1543 3061 
Q 1681 3084 1819 3084 
Q 2600 3084 3056 2656 
Q 3513 2228 3513 1497 
Q 3513 744 3044 326 
Q 2575 -91 1722 -91 
Q 1428 -91 1123 -41 
Q 819 9 494 109 
L 494 744 
Q 775 591 1075 516 
Q 1375 441 1709 441 
Q 2250 441 2565 725 
Q 2881 1009 2881 1497 
Q 2881 1984 2565 2268 
Q 2250 2553 1709 2553 
Q 1456 2553 1204 2497 
Q 953 2441 691 2322 
L 691 4666 
z
" transform="scale(0.015625)"/>
       </defs>
       <use xlink:href="#DejaVuSans-35"/>
      </g>
     </g>
    </g>
    <g id="ytick_7">
     <g id="line2d_31">
      <path d="M 57.6 114.048 
L 414.72 114.048 
" clip-path="url(#p553e8ddffc)" style="fill: none; stroke: #b0b0b0; stroke-width: 0.8; stroke-linecap: square"/>
     </g>
     <g id="line2d_32">
      <g>
       <use xlink:href="#m3a48d10522" x="57.6" y="114.048" style="stroke: #000000; stroke-width: 0.8"/>
      </g>
     </g>
     <g id="text_17">
      <!-- 6 -->
      <g transform="translate(44.2375 117.847219) scale(0.1 -0.1)">
       <use xlink:href="#DejaVuSans-36"/>
      </g>
     </g>
    </g>
    <g id="ytick_8">
     <g id="line2d_33">
      <path d="M 57.6 83.808 
L 414.72 83.808 
" clip-path="url(#p553e8ddffc)" style="fill: none; stroke: #b0b0b0; stroke-width: 0.8; stroke-linecap: square"/>
     </g>
     <g id="line2d_34">
      <g>
       <use xlink:href="#m3a48d10522" x="57.6" y="83.808" style="stroke: #000000; stroke-width: 0.8"/>
      </g>
     </g>
     <g id="text_18">
      <!-- 7 -->
      <g transform="translate(44.2375 87.607219) scale(0.1 -0.1)">
       <defs>
        <path id="DejaVuSans-37" d="M 525 4666 
L 3525 4666 
L 3525 4397 
L 1831 0 
L 1172 0 
L 2766 4134 
L 525 4134 
L 525 4666 
z
" transform="scale(0.015625)"/>
       </defs>
       <use xlink:href="#DejaVuSans-37"/>
      </g>
     </g>
    </g>
    <g id="ytick_9">
     <g id="line2d_35">
      <path d="M 57.6 53.568 
L 414.72 53.568 
" clip-path="url(#p553e8ddffc)" style="fill: none; stroke: #b0b0b0; stroke-width: 0.8; stroke-linecap: square"/>
     </g>
     <g id="line2d_36">
      <g>
       <use xlink:href="#m3a48d10522" x="57.6" y="53.568" style="stroke: #000000; stroke-width: 0.8"/>
      </g>
     </g>
     <g id="text_19">
      <!-- 8 -->
      <g transform="translate(44.2375 57.367219) scale(0.1 -0.1)">
       <use xlink:href="#DejaVuSans-38"/>
      </g>
     </g>
    </g>
    <g id="text_20">
     <!-- Velocity(m/s) -->
     <g transform="translate(38.157812 207.204563) rotate(-90) scale(0.1 -0.1)">
      <defs>
       <path id="DejaVuSans-56" d="M 1831 0 
L 50 4666 
L 709 4666 
L 2188 738 
L 3669 4666 
L 4325 4666 
L 2547 0 
L 1831 0 
z
" transform="scale(0.015625)"/>
       <path id="DejaVuSans-6c" d="M 603 4863 
L 1178 4863 
L 1178 0 
L 603 0 
L 603 4863 
z
" transform="scale(0.015625)"/>
       <path id="DejaVuSans-6f" d="M 1959 3097 
Q 1497 3097 1228 2736 
Q 959 2375 959 1747 
Q 959 1119 1226 758 
Q 1494 397 1959 397 
Q 2419 397 2687 759 
Q 2956 1122 2956 1747 
Q 2956 2369 2687 2733 
Q 2419 3097 1959 3097 
z
M 1959 3584 
Q 2709 3584 3137 3096 
Q 3566 2609 3566 1747 
Q 3566 888 3137 398 
Q 2709 -91 1959 -91 
Q 1206 -91 779 398 
Q 353 888 353 1747 
Q 353 2609 779 3096 
Q 1206 3584 1959 3584 
z
" transform="scale(0.015625)"/>
       <path id="DejaVuSans-63" d="M 3122 3366 
L 3122 2828 
Q 2878 2963 2633 3030 
Q 2388 3097 2138 3097 
Q 1578 3097 1268 2742 
Q 959 2388 959 1747 
Q 959 1106 1268 751 
Q 1578 397 2138 397 
Q 2388 397 2633 464 
Q 2878 531 3122 666 
L 3122 134 
Q 2881 22 2623 -34 
Q 2366 -91 2075 -91 
Q 1284 -91 818 406 
Q 353 903 353 1747 
Q 353 2603 823 3093 
Q 1294 3584 2113 3584 
Q 2378 3584 2631 3529 
Q 2884 3475 3122 3366 
z
" transform="scale(0.015625)"/>
       <path id="DejaVuSans-74" d="M 1172 4494 
L 1172 3500 
L 2356 3500 
L 2356 3053 
L 1172 3053 
L 1172 1153 
Q 1172 725 1289 603 
Q 1406 481 1766 481 
L 2356 481 
L 2356 0 
L 1766 0 
Q 1100 0 847 248 
Q 594 497 594 1153 
L 594 3053 
L 172 3053 
L 172 3500 
L 594 3500 
L 594 4494 
L 1172 4494 
z
" transform="scale(0.015625)"/>
       <path id="DejaVuSans-79" d="M 2059 -325 
Q 1816 -950 1584 -1140 
Q 1353 -1331 966 -1331 
L 506 -1331 
L 506 -850 
L 844 -850 
Q 1081 -850 1212 -737 
Q 1344 -625 1503 -206 
L 1606 56 
L 191 3500 
L 800 3500 
L 1894 763 
L 2988 3500 
L 3597 3500 
L 2059 -325 
z
" transform="scale(0.015625)"/>
       <path id="DejaVuSans-2f" d="M 1625 4666 
L 2156 4666 
L 531 -594 
L 0 -594 
L 1625 4666 
z
" transform="scale(0.015625)"/>
      </defs>
      <use xlink:href="#DejaVuSans-56"/>
      <use xlink:href="#DejaVuSans-65" x="60.658203"/>
      <use xlink:href="#DejaVuSans-6c" x="122.181641"/>
      <use xlink:href="#DejaVuSans-6f" x="149.964844"/>
      <use xlink:href="#DejaVuSans-63" x="211.146484"/>
      <use xlink:href="#DejaVuSans-69" x="266.126953"/>
      <use xlink:href="#DejaVuSans-74" x="293.910156"/>
      <use xlink:href="#DejaVuSans-79" x="333.119141"/>
      <use xlink:href="#DejaVuSans-28" x="392.298828"/>
      <use xlink:href="#DejaVuSans-6d" x="431.3125"/>
      <use xlink:href="#DejaVuSans-2f" x="528.724609"/>
      <use xlink:href="#DejaVuSans-73" x="562.416016"/>
      <use xlink:href="#DejaVuSans-29" x="614.515625"/>
     </g>
    </g>
   </g>
   <g id="line2d_37">
    <path d="M 73.832727 53.568 
L 73.832727 295.488 
L 74.232056 290.311517 
L 74.232056 290.311517 
L 81.020651 264.898547 
L 81.020651 264.898547 
L 87.809245 238.584455 
L 87.809245 238.584455 
L 94.59784 211.337338 
L 94.59784 211.337338 
L 101.386434 183.124083 
L 101.386434 183.124083 
L 108.175029 153.910428 
L 108.175029 153.910428 
L 114.963623 123.660933 
L 114.963623 123.660933 
L 121.752217 92.338825 
L 121.752217 92.338825 
L 126.943495 68.37172 
L 126.943495 68.37172 
L 128.141483 64.619571 
L 128.141483 64.619571 
L 129.33947 61.81844 
L 129.33947 61.81844 
L 130.138128 60.499673 
L 130.138128 60.499673 
L 130.936786 59.871165 
L 130.936786 59.871165 
L 131.336115 59.722324 
L 131.336115 59.722324 
L 131.735444 59.727102 
L 131.735444 59.727102 
L 132.134774 60.513281 
L 132.534103 61.913635 
L 132.534103 61.913635 
L 132.933432 62.730387 
L 132.933432 62.730387 
L 133.332761 63.919878 
L 133.332761 63.919878 
L 133.73209 65.739116 
L 133.73209 65.739116 
L 134.131419 68.394128 
L 134.131419 68.394128 
L 134.930077 72.168231 
L 134.930077 72.168231 
L 135.329406 75.109192 
L 135.329406 75.109192 
L 135.728735 79.257696 
L 135.728735 79.257696 
L 136.527393 84.573919 
L 136.527393 84.573919 
L 136.926723 88.802348 
L 136.926723 88.802348 
L 137.725381 94.617016 
L 137.725381 94.617016 
L 138.12471 98.522724 
L 138.12471 98.522724 
L 138.923368 103.847383 
L 138.923368 103.847383 
L 139.322697 107.392418 
L 139.322697 107.392418 
L 140.121355 112.083277 
L 140.121355 112.083277 
L 140.520684 115.348078 
L 140.520684 115.348078 
L 140.920013 117.042335 
L 140.920013 117.042335 
L 141.319343 119.38666 
L 141.319343 119.38666 
L 142.916659 125.860167 
L 142.916659 125.860167 
L 143.315988 127.847359 
L 143.315988 127.847359 
L 145.312633 133.522137 
L 145.312633 133.522137 
L 146.111292 135.179772 
L 146.111292 135.179772 
L 147.309279 137.074762 
L 147.309279 137.074762 
L 147.708608 137.702484 
L 147.708608 137.702484 
L 148.906595 138.767144 
L 148.906595 138.767144 
L 149.705253 139.159961 
L 149.705253 139.159961 
L 150.903241 139.369615 
L 150.903241 139.369615 
L 152.500557 139.450356 
L 152.500557 139.450356 
L 154.497202 139.421507 
L 154.497202 139.421507 
L 155.69519 139.242365 
L 155.69519 139.242365 
L 156.493848 138.994609 
L 156.493848 138.994609 
L 158.091164 137.807084 
L 158.091164 137.807084 
L 159.68848 135.705192 
L 159.68848 135.705192 
L 161.285797 132.234517 
L 161.285797 132.234517 
L 162.483784 128.463529 
L 162.483784 128.463529 
L 163.282442 125.373938 
L 163.282442 125.373938 
L 168.47372 102.118653 
L 168.47372 102.118653 
L 169.671707 98.492151 
L 169.671707 98.492151 
L 170.869695 95.797132 
L 170.869695 95.797132 
L 172.067682 93.727113 
L 172.067682 93.727113 
L 174.064327 90.780558 
L 174.064327 90.780558 
L 175.661644 87.437496 
L 175.661644 87.437496 
L 176.460302 85.372739 
L 176.460302 85.372739 
L 178.057618 78.956597 
L 178.057618 78.956597 
L 179.654935 71.603983 
L 179.654935 71.603983 
L 180.453593 68.963003 
L 180.453593 68.963003 
L 181.252251 67.226803 
L 181.252251 67.226803 
L 182.050909 65.970664 
L 182.050909 65.970664 
L 182.849567 65.04792 
L 182.849567 65.04792 
L 184.047555 64.012261 
L 184.047555 64.012261 
L 185.644871 63.031638 
L 185.644871 63.031638 
L 187.242187 62.022681 
L 187.242187 62.022681 
L 187.641516 61.671473 
L 187.641516 61.671473 
L 190.836149 57.652638 
L 190.836149 57.652638 
L 192.034136 56.617341 
L 192.034136 56.617341 
L 193.232123 55.844467 
L 193.232123 55.844467 
L 194.82944 55.109696 
L 194.82944 55.109696 
L 196.426756 54.612066 
L 196.426756 54.612066 
L 198.423402 54.209451 
L 198.423402 54.209451 
L 201.218705 53.892294 
L 201.218705 53.892294 
L 205.211996 53.690412 
L 205.211996 53.690412 
L 212.399919 53.589198 
L 212.399919 53.589198 
L 218.389856 53.572899 
L 218.389856 53.572899 
L 218.789185 54.000372 
L 218.789185 54.000372 
L 219.188514 55.402358 
L 219.188514 55.402358 
L 219.587843 56.26435 
L 219.587843 56.26435 
L 219.987172 57.543502 
L 219.987172 57.543502 
L 220.386501 59.313449 
L 220.386501 59.313449 
L 221.185159 63.294303 
L 221.185159 63.294303 
L 221.983818 66.971124 
L 221.983818 66.971124 
L 223.181805 73.317411 
L 223.181805 73.317411 
L 225.17845 81.915762 
L 225.17845 81.915762 
L 225.577779 83.993008 
L 225.577779 83.993008 
L 226.376437 86.664531 
L 226.376437 86.664531 
L 226.775767 88.464718 
L 226.775767 88.464718 
L 230.369728 99.05525 
L 230.369728 99.05525 
L 232.765703 103.690135 
L 232.765703 103.690135 
L 234.762348 105.842588 
L 234.762348 105.842588 
L 235.960335 106.612559 
L 235.960335 106.612559 
L 237.158323 107.036675 
L 237.158323 107.036675 
L 238.755639 107.230362 
L 238.755639 107.230362 
L 243.946917 107.040334 
L 243.946917 107.040334 
L 246.342892 106.306137 
L 246.342892 106.306137 
L 247.14155 105.941956 
L 247.14155 105.941956 
L 249.936853 103.798938 
L 249.936853 103.798938 
L 250.735512 102.831288 
L 250.735512 102.831288 
L 251.53417 101.827079 
L 251.53417 101.827079 
L 252.332828 100.725193 
L 252.332828 100.725193 
L 254.329473 96.89563 
L 254.329473 96.89563 
L 255.128131 94.849501 
L 255.128131 94.849501 
L 255.92679 92.765814 
L 255.92679 92.765814 
L 258.322764 84.353802 
L 258.322764 84.353802 
L 261.517397 69.797899 
L 261.517397 69.797899 
L 262.715384 65.684261 
L 262.715384 65.684261 
L 263.913371 62.613298 
L 263.913371 62.613298 
L 265.111359 60.320652 
L 265.111359 60.320652 
L 266.309346 58.609129 
L 266.309346 58.609129 
L 267.507333 57.331398 
L 267.507333 57.331398 
L 268.70532 56.377538 
L 268.70532 56.377538 
L 269.903308 55.665416 
L 269.903308 55.665416 
L 271.500624 54.988433 
L 271.500624 54.988433 
L 273.497269 54.440666 
L 273.497269 54.440666 
L 275.893244 54.05435 
L 275.893244 54.05435 
L 279.087877 53.79105 
L 279.087877 53.79105 
L 284.279155 53.630839 
L 284.279155 53.630839 
L 291.866407 53.577858 
L 291.866407 53.577858 
L 292.665065 54.101978 
L 292.665065 54.101978 
L 293.064394 54.614546 
L 293.064394 54.614546 
L 293.863053 56.223707 
L 293.863053 56.223707 
L 294.661711 58.07875 
L 294.661711 58.07875 
L 295.460369 59.892877 
L 295.460369 59.892877 
L 296.658356 63.499512 
L 296.658356 63.499512 
L 297.057685 64.486424 
L 299.054331 71.146572 
L 299.054331 71.146572 
L 299.45366 73.05384 
L 299.45366 73.05384 
L 300.252318 75.457405 
L 300.252318 75.457405 
L 301.050976 78.628039 
L 301.050976 78.628039 
L 301.849634 81.837562 
L 301.849634 81.837562 
L 302.248963 84.118323 
L 302.248963 84.118323 
L 303.047622 87.064576 
L 303.047622 87.064576 
L 303.446951 89.280714 
L 303.446951 89.280714 
L 304.245609 92.430724 
L 304.245609 92.430724 
L 304.644938 94.798093 
L 304.644938 94.798093 
L 305.443596 98.159299 
L 305.443596 98.159299 
L 305.842925 100.719145 
L 305.842925 100.719145 
L 306.641583 104.299108 
L 306.641583 104.299108 
L 307.040912 107.141184 
L 307.040912 107.141184 
L 307.440242 108.781039 
L 307.440242 108.781039 
L 309.836216 121.398074 
L 309.836216 121.398074 
L 310.634874 125.083241 
L 310.634874 125.083241 
L 311.034203 128.049453 
L 311.034203 128.049453 
L 311.433532 129.596229 
L 311.433532 129.596229 
L 311.832861 132.008655 
L 311.832861 132.008655 
L 312.232191 133.438311 
L 312.232191 133.438311 
L 312.63152 135.5764 
L 312.63152 135.5764 
L 313.030849 137.013284 
L 313.030849 137.013284 
L 313.829507 140.440656 
L 313.829507 140.440656 
L 315.027494 145.529866 
L 315.027494 145.529866 
L 316.225481 150.068709 
L 316.225481 150.068709 
L 317.02414 153.184638 
L 317.02414 153.184638 
L 317.423469 154.974272 
L 317.423469 154.974272 
L 317.822798 156.167905 
L 317.822798 156.167905 
L 318.222127 158.054579 
L 318.222127 158.054579 
L 318.621456 159.172642 
L 318.621456 159.172642 
L 319.020785 161.077157 
L 319.020785 161.077157 
L 319.420114 162.039243 
L 319.420114 162.039243 
L 319.819443 164.003149 
L 319.819443 164.003149 
L 320.618101 165.911172 
L 320.618101 165.911172 
L 321.816089 169.769796 
L 321.816089 169.769796 
L 322.215418 170.647512 
L 322.215418 170.647512 
L 322.614747 172.376999 
L 322.614747 172.376999 
L 323.413405 174.023839 
L 323.413405 174.023839 
L 323.812734 175.217442 
L 323.812734 175.217442 
L 324.212063 175.986899 
L 324.212063 175.986899 
L 324.611392 177.385831 
L 324.611392 177.385831 
L 325.41005 178.748718 
L 325.41005 178.748718 
L 325.809379 179.773914 
L 325.809379 179.773914 
L 326.208708 180.423863 
L 326.208708 180.423863 
L 326.608038 181.539537 
L 326.608038 181.539537 
L 329.80267 186.095526 
L 329.80267 186.095526 
L 331.399987 187.562801 
L 331.399987 187.562801 
L 333.795961 189.089558 
L 333.795961 189.089558 
L 335.792607 189.914414 
L 335.792607 189.914414 
L 336.990594 190.15198 
L 336.990594 190.15198 
L 340.185226 190.383739 
L 340.185226 190.383739 
L 342.98053 190.351352 
L 342.98053 190.351352 
L 345.376505 190.249322 
L 345.376505 190.249322 
L 346.574492 190.096792 
L 346.574492 190.096792 
L 346.973821 190.075049 
L 346.973821 190.075049 
L 347.772479 189.851818 
L 347.772479 189.851818 
L 348.571137 189.762035 
L 348.571137 189.762035 
L 349.369795 189.43508 
L 349.369795 189.43508 
L 350.168454 189.275806 
L 350.168454 189.275806 
L 350.967112 188.81005 
L 350.967112 188.81005 
L 351.76577 188.554703 
L 351.76577 188.554703 
L 352.564428 187.909593 
L 352.564428 187.909593 
L 353.762415 187.306487 
L 353.762415 187.306487 
L 354.561073 186.631318 
L 354.561073 186.631318 
L 355.359732 186.045993 
L 355.359732 186.045993 
L 356.15839 185.126364 
L 356.15839 185.126364 
L 356.557719 184.723416 
L 356.557719 184.723416 
L 357.356377 183.402412 
L 357.356377 183.402412 
L 357.755706 182.843728 
L 357.755706 182.843728 
L 358.554364 181.210949 
L 358.554364 181.210949 
L 359.353022 179.388233 
L 359.353022 179.388233 
L 359.752352 178.382209 
L 359.752352 178.382209 
L 361.748997 171.042175 
L 361.748997 171.042175 
L 364.94363 157.572432 
L 364.94363 157.572432 
L 366.141617 155.200134 
L 366.141617 155.200134 
L 366.940275 154.650855 
L 366.940275 154.650855 
L 367.738933 155.093236 
L 367.738933 155.093236 
L 368.93692 157.914446 
L 368.93692 157.914446 
L 370.534237 161.261198 
L 370.534237 161.261198 
L 371.732224 162.880066 
L 371.732224 162.880066 
L 372.930211 163.754153 
L 372.930211 163.754153 
L 374.527528 164.292818 
L 374.527528 164.292818 
L 375.725515 164.420099 
L 375.725515 164.420099 
L 378.121489 164.416893 
L 378.121489 164.416893 
L 382.913438 164.285349 
L 382.913438 164.285349 
L 385.708742 163.751674 
L 385.708742 163.751674 
L 388.104717 162.961835 
L 388.104717 162.961835 
L 389.702033 161.912658 
L 389.702033 161.912658 
L 390.90002 160.89726 
L 390.90002 160.89726 
L 392.098007 159.430892 
L 392.098007 159.430892 
L 392.896666 158.208893 
L 392.896666 158.208893 
L 394.094653 156.319861 
L 394.094653 156.319861 
L 395.29264 154.256102 
L 395.29264 154.256102 
L 396.490627 152.032101 
L 396.490627 152.032101 
L 396.889956 294.048092 
L 396.889956 294.048092 
L 398.487273 288.17875 
L 398.487273 288.17875 
" clip-path="url(#p553e8ddffc)" style="fill: none; stroke: #1f77b4; stroke-width: 1.5; stroke-linecap: square"/>
   </g>
   <g id="line2d_38">
    <path d="M 73.832727 53.568 
L 73.832727 279.920448 
L 74.232056 274.472319 
L 74.232056 274.472319 
L 81.020651 248.497701 
L 81.020651 248.497701 
L 87.809245 221.602094 
L 87.809245 221.602094 
L 94.59784 193.752808 
L 94.59784 193.752808 
L 101.386434 164.916035 
L 101.386434 164.916035 
L 108.175029 135.056756 
L 108.175029 135.056756 
L 114.963623 104.138745 
L 114.963623 104.138745 
L 121.752217 72.124443 
L 121.752217 72.124443 
L 125.346179 54.718662 
L 125.346179 54.718662 
L 125.745508 53.568 
L 125.745508 53.568 
L 129.33947 53.581729 
L 129.33947 53.581729 
L 130.138128 56.90066 
L 130.138128 56.90066 
L 130.537457 56.994888 
L 130.537457 56.994888 
L 131.336115 59.736204 
L 131.336115 59.736204 
L 132.134774 64.581408 
L 132.134774 64.581408 
L 132.534103 64.286356 
L 132.534103 64.286356 
L 132.933432 66.185942 
L 132.933432 66.185942 
L 133.332761 69.204953 
L 133.332761 69.204953 
L 133.73209 73.452161 
L 133.73209 73.452161 
L 134.131419 73.242416 
L 134.131419 73.242416 
L 134.530748 76.178841 
L 134.530748 76.178841 
L 134.930077 80.711999 
L 134.930077 80.711999 
L 135.329406 87.160951 
L 135.329406 87.160951 
L 135.728735 86.071887 
L 135.728735 86.071887 
L 136.128064 90.233184 
L 136.128064 90.233184 
L 136.527393 96.85783 
L 136.527393 96.85783 
L 136.926723 96.998416 
L 137.326052 100.319645 
L 137.326052 100.319645 
L 137.725381 105.963427 
L 137.725381 105.963427 
L 138.12471 106.26752 
L 138.12471 106.26752 
L 138.524039 108.912522 
L 138.524039 108.912522 
L 138.923368 114.146008 
L 138.923368 114.146008 
L 139.322697 113.895167 
L 139.322697 113.895167 
L 139.722026 116.755357 
L 139.722026 116.755357 
L 140.121355 121.567841 
L 140.121355 121.567841 
L 140.520684 120.270061 
L 140.520684 120.270061 
L 140.920013 123.852776 
L 140.920013 123.852776 
L 141.319343 123.980449 
L 141.319343 123.980449 
L 141.718672 126.225225 
L 141.718672 126.225225 
L 142.51733 128.74467 
L 142.51733 128.74467 
L 142.916659 131.633195 
L 142.916659 131.633195 
L 143.315988 131.198949 
L 143.315988 131.198949 
L 143.715317 133.329084 
L 143.715317 133.329084 
L 144.114646 133.373356 
L 144.114646 133.373356 
L 144.513975 134.892281 
L 144.513975 134.892281 
L 144.913304 135.171033 
L 144.913304 135.171033 
L 145.312633 136.146303 
L 146.111292 137.192456 
L 146.111292 137.192456 
L 146.510621 137.817426 
L 146.510621 137.817426 
L 146.90995 138.089586 
L 146.90995 138.089586 
L 147.309279 138.898385 
L 147.309279 138.898385 
L 147.708608 138.886229 
L 147.708608 138.886229 
L 148.107937 139.207438 
L 148.107937 139.207438 
L 149.305924 139.515342 
L 149.305924 139.515342 
L 149.705253 139.427736 
L 149.705253 139.427736 
L 150.903241 139.500373 
L 150.903241 139.500373 
L 151.30257 139.444913 
L 151.30257 139.444913 
L 151.701899 139.504062 
L 151.701899 139.504062 
L 152.101228 139.432061 
L 152.101228 139.432061 
L 152.899886 139.476846 
L 152.899886 139.476846 
L 154.097873 139.175444 
L 154.097873 139.175444 
L 155.29586 138.462052 
L 155.29586 138.462052 
L 156.094519 137.60496 
L 156.094519 137.60496 
L 156.493848 135.831898 
L 156.493848 135.831898 
L 156.893177 136.466787 
L 156.893177 136.466787 
L 157.292506 134.272179 
L 157.292506 134.272179 
L 157.691835 134.928629 
L 157.691835 134.928629 
L 158.091164 132.289705 
L 158.091164 132.289705 
L 158.490493 133.034335 
L 158.889822 129.811205 
L 159.289151 130.46702 
L 159.289151 130.46702 
L 159.68848 126.848562 
L 159.68848 126.848562 
L 160.087809 127.138473 
L 160.087809 127.138473 
L 160.487139 123.353302 
L 160.886468 123.188161 
L 160.886468 123.188161 
L 161.285797 119.281939 
L 161.285797 119.281939 
L 161.685126 118.407882 
L 161.685126 118.407882 
L 162.084455 114.818364 
L 162.084455 114.818364 
L 162.483784 112.703318 
L 162.483784 112.703318 
L 163.282442 105.889611 
L 163.282442 105.889611 
L 167.275733 87.240482 
L 167.275733 87.240482 
L 167.675062 87.260471 
L 168.074391 87.648813 
L 168.074391 87.648813 
L 168.873049 87.818247 
L 168.873049 87.818247 
L 171.269024 87.792392 
L 171.269024 87.792392 
L 171.668353 87.256993 
L 171.668353 87.256993 
L 172.067682 87.52758 
L 172.067682 87.52758 
L 172.467011 87.028379 
L 172.467011 87.028379 
L 172.86634 85.629506 
L 172.86634 85.629506 
L 173.265669 86.007264 
L 173.265669 86.007264 
L 173.664998 84.855151 
L 173.664998 84.855151 
L 174.064327 82.316231 
L 174.064327 82.316231 
L 174.463656 82.704784 
L 174.463656 82.704784 
L 174.862986 80.767308 
L 174.862986 80.767308 
L 175.262315 76.819838 
L 175.262315 76.819838 
L 175.661644 77.163365 
L 175.661644 77.163365 
L 176.060973 74.517365 
L 176.060973 74.517365 
L 176.460302 68.905516 
L 176.460302 68.905516 
L 176.859631 68.698493 
L 176.859631 68.698493 
L 177.25896 65.40823 
L 177.25896 65.40823 
L 177.658289 60.388662 
L 177.658289 60.388662 
L 178.856276 54.550014 
L 178.856276 54.550014 
L 179.255606 55.691876 
L 179.255606 55.691876 
L 179.654935 55.91033 
L 179.654935 55.91033 
L 180.453593 58.516383 
L 180.453593 58.516383 
L 180.852922 59.738351 
L 180.852922 59.738351 
L 181.252251 59.833607 
L 181.252251 59.833607 
L 181.65158 60.403389 
L 181.65158 60.403389 
L 182.450238 60.880213 
L 182.450238 60.880213 
L 184.047555 61.068004 
L 184.047555 61.068004 
L 184.446884 60.835579 
L 184.446884 60.835579 
L 185.245542 61.033349 
L 185.245542 61.033349 
L 185.644871 60.461359 
L 185.644871 60.461359 
L 186.0442 59.671551 
L 186.0442 59.671551 
L 186.443529 60.14393 
L 186.842858 59.467249 
L 186.842858 59.467249 
L 187.242187 58.239929 
L 187.641516 56.150466 
L 187.641516 56.150466 
L 188.040845 56.537961 
L 188.040845 56.537961 
L 188.839504 53.568 
L 188.839504 53.568 
L 217.990527 53.568 
L 217.990527 53.568 
L 218.389856 54.814704 
L 218.389856 54.814704 
L 218.789185 58.073216 
L 218.789185 58.073216 
L 219.188514 57.906563 
L 219.188514 57.906563 
L 219.587843 59.980422 
L 219.587843 59.980422 
L 220.386501 66.018655 
L 220.386501 66.018655 
L 220.78583 66.481055 
L 220.78583 66.481055 
L 221.584488 70.618643 
L 221.584488 70.618643 
L 222.383147 76.643055 
L 222.383147 76.643055 
L 222.782476 76.148178 
L 222.782476 76.148178 
L 223.181805 78.113748 
L 223.181805 78.113748 
L 223.581134 81.008834 
L 223.581134 81.008834 
L 223.980463 81.325417 
L 223.980463 81.325417 
L 224.779121 85.322994 
L 224.779121 85.322994 
L 225.17845 87.950336 
L 225.17845 87.950336 
L 225.577779 87.702972 
L 225.577779 87.702972 
L 225.977108 89.321085 
L 225.977108 89.321085 
L 226.376437 91.894236 
L 226.376437 91.894236 
L 226.775767 91.988948 
L 226.775767 91.988948 
L 227.175096 93.219716 
L 227.175096 93.219716 
L 227.574425 95.424212 
L 227.574425 95.424212 
L 227.973754 95.64061 
L 227.973754 95.64061 
L 228.373083 96.696258 
L 228.373083 96.696258 
L 228.772412 98.583718 
L 228.772412 98.583718 
L 229.171741 98.773171 
L 229.171741 98.773171 
L 229.57107 99.648498 
L 229.57107 99.648498 
L 229.970399 101.295762 
L 229.970399 101.295762 
L 230.369728 101.379133 
L 230.369728 101.379133 
L 230.769057 102.125094 
L 230.769057 102.125094 
L 231.168386 103.505036 
L 231.168386 103.505036 
L 231.567716 103.454353 
L 231.567716 103.454353 
L 231.967045 104.163633 
L 231.967045 104.163633 
L 232.366374 105.1738 
L 232.366374 105.1738 
L 232.765703 105.027438 
L 232.765703 105.027438 
L 233.165032 105.657882 
L 233.165032 105.657882 
L 233.96369 106.129898 
L 233.96369 106.129898 
L 234.363019 106.604847 
L 234.363019 106.604847 
L 235.161677 106.842957 
L 235.161677 106.842957 
L 235.561006 107.067126 
L 235.561006 107.067126 
L 236.359665 107.173813 
L 236.359665 107.173813 
L 237.158323 107.254524 
L 237.158323 107.254524 
L 238.755639 107.101297 
L 238.755639 107.101297 
L 239.154968 107.297918 
L 239.154968 107.297918 
L 239.554297 107.246782 
L 239.554297 107.246782 
L 239.953626 107.321384 
L 239.953626 107.321384 
L 242.349601 106.947557 
L 242.349601 106.947557 
L 242.74893 106.619695 
L 242.74893 106.619695 
L 243.148259 106.697654 
L 243.148259 106.697654 
L 243.547588 106.422863 
L 243.547588 106.422863 
L 243.946917 105.885649 
L 243.946917 105.885649 
L 244.346246 106.073107 
L 244.346246 106.073107 
L 244.745575 105.584066 
L 244.745575 105.584066 
L 245.144904 105.580195 
L 245.144904 105.580195 
L 245.544233 105.223393 
L 245.544233 105.223393 
L 245.943563 104.433283 
L 245.943563 104.433283 
L 246.342892 104.56271 
L 246.342892 104.56271 
L 246.742221 103.965168 
L 246.742221 103.965168 
L 247.14155 102.784658 
L 247.14155 102.784658 
L 247.540879 103.257582 
L 247.540879 103.257582 
L 247.940208 102.295254 
L 248.339537 102.246296 
L 248.339537 102.246296 
L 248.738866 101.602093 
L 248.738866 101.602093 
L 249.138195 100.146793 
L 249.138195 100.146793 
L 249.537524 100.324755 
L 249.936853 99.299619 
L 249.936853 99.299619 
L 250.336182 97.45758 
L 250.336182 97.45758 
L 250.735512 97.965945 
L 250.735512 97.965945 
L 251.134841 96.428241 
L 251.134841 96.428241 
L 251.53417 96.162945 
L 251.53417 96.162945 
L 251.933499 95.096622 
L 251.933499 95.096622 
L 252.332828 92.932345 
L 252.332828 92.932345 
L 252.732157 92.909847 
L 252.732157 92.909847 
L 253.131486 91.585698 
L 253.131486 91.585698 
L 253.530815 88.743319 
L 253.530815 88.743319 
L 253.930144 88.978586 
L 253.930144 88.978586 
L 254.329473 87.158683 
L 254.329473 87.158683 
L 254.728802 83.689066 
L 254.728802 83.689066 
L 255.128131 84.27923 
L 255.128131 84.27923 
L 255.527461 81.994114 
L 255.527461 81.994114 
L 255.92679 78.071986 
L 255.92679 78.071986 
L 256.326119 78.690817 
L 256.326119 78.690817 
L 256.725448 76.067165 
L 256.725448 76.067165 
L 257.124777 71.556173 
L 257.124777 71.556173 
L 257.524106 72.083438 
L 257.524106 72.083438 
L 257.923435 69.399245 
L 257.923435 69.399245 
L 258.322764 64.377107 
L 258.322764 64.377107 
L 258.722093 64.222762 
L 258.722093 64.222762 
L 259.920081 56.558645 
L 259.920081 56.558645 
L 260.31941 54.608558 
L 260.31941 54.608558 
L 260.718739 53.568 
L 260.718739 53.568 
L 291.467078 53.568 
L 291.467078 53.568 
L 291.866407 54.387685 
L 291.866407 54.387685 
L 292.265736 54.569398 
L 292.265736 54.569398 
L 293.064394 56.64368 
L 293.064394 56.64368 
L 293.863053 59.377255 
L 293.863053 59.377255 
L 294.262382 59.544724 
L 294.262382 59.544724 
L 295.06104 61.714384 
L 295.06104 61.714384 
L 295.859698 65.304658 
L 295.859698 65.304658 
L 296.259027 65.232626 
L 296.259027 65.232626 
L 296.658356 66.366566 
L 296.658356 66.366566 
L 297.457014 70.507934 
L 297.457014 70.507934 
L 297.856344 70.312221 
L 297.856344 70.312221 
L 298.255673 71.835772 
L 298.255673 71.835772 
L 299.054331 76.687357 
L 299.054331 76.687357 
L 299.45366 76.334305 
L 299.45366 76.334305 
L 299.852989 77.885194 
L 299.852989 77.885194 
L 300.252318 80.732985 
L 300.252318 80.732985 
L 300.651647 81.208781 
L 300.651647 81.208781 
L 301.050976 82.869774 
L 301.050976 82.869774 
L 301.450305 85.170342 
L 301.450305 85.170342 
L 301.849634 88.463357 
L 301.849634 88.463357 
L 302.248963 88.151401 
L 302.248963 88.151401 
L 302.648293 90.032662 
L 302.648293 90.032662 
L 303.047622 93.502672 
L 303.047622 93.502672 
L 303.446951 93.592938 
L 303.446951 93.592938 
L 303.84628 95.603898 
L 303.84628 95.603898 
L 304.245609 99.308087 
L 304.245609 99.308087 
L 304.644938 99.425599 
L 304.644938 99.425599 
L 305.044267 101.528065 
L 305.044267 101.528065 
L 305.443596 105.59589 
L 305.443596 105.59589 
L 305.842925 105.635323 
L 305.842925 105.635323 
L 306.242254 107.895339 
L 306.242254 107.895339 
L 306.641583 112.555596 
L 306.641583 112.555596 
L 307.040912 111.905073 
L 307.040912 111.905073 
L 307.440242 115.079517 
L 307.440242 115.079517 
L 307.839571 116.314186 
L 307.839571 116.314186 
L 308.2389 118.267508 
L 308.2389 118.267508 
L 308.638229 122.761989 
L 308.638229 122.761989 
L 309.037558 122.462461 
L 309.037558 122.462461 
L 309.436887 125.617945 
L 309.436887 125.617945 
L 309.836216 126.584899 
L 309.836216 126.584899 
L 310.235545 128.702425 
L 310.235545 128.702425 
L 310.634874 133.700341 
L 310.634874 133.700341 
L 311.034203 132.542935 
L 311.034203 132.542935 
L 311.433532 136.60456 
L 311.433532 136.60456 
L 311.832861 136.161877 
L 312.232191 139.649638 
L 312.232191 139.649638 
L 312.63152 139.7507 
L 313.030849 142.789517 
L 313.030849 142.789517 
L 313.430178 143.182184 
L 313.430178 143.182184 
L 313.829507 145.826641 
L 313.829507 145.826641 
L 314.228836 146.464705 
L 314.228836 146.464705 
L 314.628165 148.958598 
L 314.628165 148.958598 
L 315.027494 149.611298 
L 315.027494 149.611298 
L 315.426823 152.079124 
L 315.426823 152.079124 
L 315.826152 152.665538 
L 315.826152 152.665538 
L 316.225481 155.325449 
L 316.225481 155.325449 
L 316.62481 155.673481 
L 316.62481 155.673481 
L 317.02414 158.383711 
L 317.02414 158.383711 
L 317.423469 158.441832 
L 317.423469 158.441832 
L 317.822798 161.648844 
L 317.822798 161.648844 
L 318.222127 161.302627 
L 318.222127 161.302627 
L 318.621456 164.705443 
L 318.621456 164.705443 
L 319.020785 163.872089 
L 319.020785 163.872089 
L 319.420114 167.744593 
L 319.819443 166.73107 
L 319.819443 166.73107 
L 320.218772 167.757234 
L 320.218772 167.757234 
L 320.618101 169.784796 
L 320.618101 169.784796 
L 321.01743 170.102739 
L 321.01743 170.102739 
L 321.416759 172.706221 
L 321.416759 172.706221 
L 321.816089 172.319664 
L 321.816089 172.319664 
L 322.215418 175.671828 
L 322.614747 174.815976 
L 322.614747 174.815976 
L 323.014076 175.561815 
L 323.014076 175.561815 
L 323.413405 177.491308 
L 323.413405 177.491308 
L 323.812734 177.452783 
L 323.812734 177.452783 
L 324.212063 180.050913 
L 324.212063 180.050913 
L 324.611392 179.320707 
L 324.611392 179.320707 
L 325.010721 180.076284 
L 325.010721 180.076284 
L 325.41005 181.726965 
L 325.41005 181.726965 
L 325.809379 181.66207 
L 325.809379 181.66207 
L 326.208708 183.664986 
L 326.208708 183.664986 
L 326.608038 183.214773 
L 326.608038 183.214773 
L 327.007367 183.529511 
L 327.007367 183.529511 
L 327.406696 185.054695 
L 327.406696 185.054695 
L 327.806025 184.755108 
L 327.806025 184.755108 
L 328.205354 185.287452 
L 328.205354 185.287452 
L 328.604683 186.244125 
L 328.604683 186.244125 
L 329.004012 186.214157 
L 329.004012 186.214157 
L 329.403341 187.362793 
L 329.403341 187.362793 
L 329.80267 187.258768 
L 329.80267 187.258768 
L 330.201999 187.289159 
L 330.201999 187.289159 
L 330.601328 188.258442 
L 330.601328 188.258442 
L 331.000657 188.098351 
L 331.000657 188.098351 
L 331.399987 188.34638 
L 331.399987 188.34638 
L 331.799316 188.872163 
L 331.799316 188.872163 
L 332.198645 188.820422 
L 332.198645 188.820422 
L 332.597974 188.969838 
L 332.597974 188.969838 
L 332.997303 189.481287 
L 332.997303 189.481287 
L 333.396632 189.443124 
L 333.396632 189.443124 
L 334.993948 190.156425 
L 334.993948 190.156425 
L 335.393277 190.116932 
L 335.393277 190.116932 
L 335.792607 190.218145 
L 335.792607 190.218145 
L 336.191936 190.192048 
L 336.191936 190.192048 
L 336.591265 190.29184 
L 336.591265 190.29184 
L 337.389923 190.261902 
L 337.389923 190.261902 
L 337.789252 190.370766 
L 338.58791 190.297253 
L 338.58791 190.297253 
L 339.386568 190.414433 
L 339.386568 190.414433 
L 339.785897 190.436357 
L 340.185226 190.187209 
L 341.383214 190.404786 
L 341.383214 190.404786 
L 342.181872 190.144722 
L 342.181872 190.144722 
L 342.581201 190.314157 
L 342.581201 190.314157 
L 343.379859 190.344578 
L 343.379859 190.344578 
L 343.779188 189.809754 
L 343.779188 189.809754 
L 344.178517 189.908548 
L 344.178517 189.908548 
L 344.577846 190.18219 
L 344.577846 190.18219 
L 344.977175 190.185849 
L 345.376505 189.39976 
L 345.376505 189.39976 
L 346.175163 189.87734 
L 346.175163 189.87734 
L 346.574492 189.862613 
L 346.973821 188.619749 
L 346.973821 188.619749 
L 347.772479 189.378683 
L 347.772479 189.378683 
L 348.171808 189.313999 
L 348.171808 189.313999 
L 348.571137 187.579342 
L 348.571137 187.579342 
L 348.970466 188.22037 
L 348.970466 188.22037 
L 349.369795 188.615485 
L 349.369795 188.615485 
L 349.769124 188.463167 
L 349.769124 188.463167 
L 350.168454 186.277329 
L 350.168454 186.277329 
L 350.967112 187.497361 
L 350.967112 187.497361 
L 351.366441 187.250301 
L 351.366441 187.250301 
L 351.76577 184.512825 
L 351.76577 184.512825 
L 352.564428 185.970604 
L 352.564428 185.970604 
L 352.963757 185.67779 
L 352.963757 185.67779 
L 353.363086 185.033648 
L 353.363086 185.033648 
L 353.762415 183.134606 
L 353.762415 183.134606 
L 354.161744 183.818514 
L 354.161744 183.818514 
L 354.561073 183.66432 
L 354.561073 183.66432 
L 354.960403 183.018031 
L 354.960403 183.018031 
L 355.359732 180.40714 
L 355.359732 180.40714 
L 355.759061 181.255856 
L 355.759061 181.255856 
L 356.15839 180.786047 
L 356.15839 180.786047 
L 356.557719 176.580691 
L 356.557719 176.580691 
L 356.957048 177.881253 
L 356.957048 177.881253 
L 357.356377 177.384682 
L 357.356377 177.384682 
L 357.755706 172.874174 
L 357.755706 172.874174 
L 358.155035 174.300474 
L 358.155035 174.300474 
L 358.554364 172.71608 
L 358.554364 172.71608 
L 358.953693 169.284082 
L 358.953693 169.284082 
L 359.353022 168.552122 
L 359.353022 168.552122 
L 359.752352 163.053432 
L 359.752352 163.053432 
L 360.151681 163.88482 
L 360.151681 163.88482 
L 360.55101 157.374209 
L 360.950339 158.362392 
L 360.950339 158.362392 
L 361.349668 155.973734 
L 361.349668 155.973734 
L 361.748997 152.567137 
L 363.745642 144.19855 
L 363.745642 144.19855 
L 364.144971 142.553676 
L 364.144971 142.553676 
L 364.544301 143.134767 
L 364.544301 143.134767 
L 364.94363 148.71438 
L 364.94363 148.71438 
L 365.342959 147.243537 
L 365.342959 147.243537 
L 365.742288 148.67915 
L 365.742288 148.67915 
L 366.141617 152.009663 
L 366.141617 152.009663 
L 366.540946 152.17816 
L 366.540946 152.17816 
L 366.940275 155.450461 
L 366.940275 155.450461 
L 367.339604 155.411603 
L 367.339604 155.411603 
L 367.738933 157.991377 
L 367.738933 157.991377 
L 368.138262 158.199458 
L 368.537591 160.005845 
L 368.93692 160.359925 
L 368.93692 160.359925 
L 369.33625 161.487363 
L 369.33625 161.487363 
L 369.735579 161.867903 
L 369.735579 161.867903 
L 370.134908 162.818316 
L 370.134908 162.818316 
L 370.534237 163.003566 
L 370.534237 163.003566 
L 370.933566 163.703562 
L 370.933566 163.703562 
L 371.332895 163.613144 
L 371.332895 163.613144 
L 371.732224 163.793919 
L 371.732224 163.793919 
L 372.131553 164.19723 
L 372.131553 164.19723 
L 372.930211 164.187372 
L 372.930211 164.187372 
L 373.32954 164.220968 
L 373.32954 164.220968 
L 373.72887 164.504498 
L 373.72887 164.504498 
L 376.124844 164.470509 
L 376.124844 164.470509 
L 376.524173 164.335668 
L 376.524173 164.335668 
L 378.121489 164.358197 
L 378.121489 164.358197 
L 378.520819 164.571117 
L 378.520819 164.571117 
L 379.319477 164.248154 
L 379.319477 164.248154 
L 379.718806 164.334459 
L 380.517464 164.255502 
L 380.517464 164.255502 
L 380.916793 164.370777 
L 380.916793 164.370777 
L 381.715451 163.996587 
L 381.715451 163.996587 
L 382.11478 164.158492 
L 382.11478 164.158492 
L 382.514109 163.933567 
L 382.913438 163.564458 
L 382.913438 163.564458 
L 383.312768 164.051261 
L 383.312768 164.051261 
L 383.712097 163.660016 
L 383.712097 163.660016 
L 384.111426 162.995462 
L 384.111426 162.995462 
L 384.510755 163.369682 
L 384.510755 163.369682 
L 384.910084 163.334392 
L 385.309413 162.085177 
L 385.309413 162.085177 
L 386.108071 162.696328 
L 386.108071 162.696328 
L 386.5074 162.395379 
L 386.5074 162.395379 
L 386.906729 161.371453 
L 386.906729 161.371453 
L 387.306058 161.952303 
L 387.705387 161.357149 
L 387.705387 161.357149 
L 388.104717 160.433711 
L 388.104717 160.433711 
L 388.504046 160.60502 
L 388.504046 160.60502 
L 388.903375 158.670749 
L 388.903375 158.670749 
L 389.302704 159.380542 
L 389.302704 159.380542 
L 390.500691 157.234863 
L 390.500691 157.234863 
L 390.90002 156.094512 
L 390.90002 156.094512 
L 391.299349 155.542118 
L 391.299349 155.542118 
L 391.698678 153.912938 
L 391.698678 153.912938 
L 392.098007 153.747072 
L 392.497336 151.424338 
L 392.497336 151.424338 
L 392.896666 152.10755 
L 392.896666 152.10755 
L 393.295995 151.107906 
L 393.695324 149.324502 
L 393.695324 149.324502 
L 394.094653 149.533279 
L 394.094653 149.533279 
L 394.493982 148.596353 
L 394.493982 148.596353 
L 394.893311 146.681798 
L 394.893311 146.681798 
L 395.29264 146.90633 
L 395.29264 146.90633 
L 395.691969 145.967409 
L 395.691969 145.967409 
L 396.091298 143.868299 
L 396.091298 143.868299 
L 396.490627 144.077318 
L 396.490627 144.077318 
L 396.889956 278.291449 
L 396.889956 278.291449 
L 398.487273 272.292408 
L 398.487273 272.292408 
" clip-path="url(#p553e8ddffc)" style="fill: none; stroke: #ff7f0e; stroke-width: 1.5; stroke-linecap: square"/>
   </g>
   <g id="patch_3">
    <path d="M 57.6 307.584 
L 57.6 41.472 
" style="fill: none; stroke: #000000; stroke-width: 0.8; stroke-linejoin: miter; stroke-linecap: square"/>
   </g>
   <g id="patch_4">
    <path d="M 414.72 307.584 
L 414.72 41.472 
" style="fill: none; stroke: #000000; stroke-width: 0.8; stroke-linejoin: miter; stroke-linecap: square"/>
   </g>
   <g id="patch_5">
    <path d="M 57.6 307.584 
L 414.72 307.584 
" style="fill: none; stroke: #000000; stroke-width: 0.8; stroke-linejoin: miter; stroke-linecap: square"/>
   </g>
   <g id="patch_6">
    <path d="M 57.6 41.472 
L 414.72 41.472 
" style="fill: none; stroke: #000000; stroke-width: 0.8; stroke-linejoin: miter; stroke-linecap: square"/>
   </g>
   <g id="text_21">
    <!-- Actual speed vs Expected speed -->
    <g transform="translate(138.808125 35.472) scale(0.12 -0.12)">
     <defs>
      <path id="DejaVuSans-41" d="M 2188 4044 
L 1331 1722 
L 3047 1722 
L 2188 4044 
z
M 1831 4666 
L 2547 4666 
L 4325 0 
L 3669 0 
L 3244 1197 
L 1141 1197 
L 716 0 
L 50 0 
L 1831 4666 
z
" transform="scale(0.015625)"/>
      <path id="DejaVuSans-75" d="M 544 1381 
L 544 3500 
L 1119 3500 
L 1119 1403 
Q 1119 906 1312 657 
Q 1506 409 1894 409 
Q 2359 409 2629 706 
Q 2900 1003 2900 1516 
L 2900 3500 
L 3475 3500 
L 3475 0 
L 2900 0 
L 2900 538 
Q 2691 219 2414 64 
Q 2138 -91 1772 -91 
Q 1169 -91 856 284 
Q 544 659 544 1381 
z
M 1991 3584 
L 1991 3584 
z
" transform="scale(0.015625)"/>
      <path id="DejaVuSans-61" d="M 2194 1759 
Q 1497 1759 1228 1600 
Q 959 1441 959 1056 
Q 959 750 1161 570 
Q 1363 391 1709 391 
Q 2188 391 2477 730 
Q 2766 1069 2766 1631 
L 2766 1759 
L 2194 1759 
z
M 3341 1997 
L 3341 0 
L 2766 0 
L 2766 531 
Q 2569 213 2275 61 
Q 1981 -91 1556 -91 
Q 1019 -91 701 211 
Q 384 513 384 1019 
Q 384 1609 779 1909 
Q 1175 2209 1959 2209 
L 2766 2209 
L 2766 2266 
Q 2766 2663 2505 2880 
Q 2244 3097 1772 3097 
Q 1472 3097 1187 3025 
Q 903 2953 641 2809 
L 641 3341 
Q 956 3463 1253 3523 
Q 1550 3584 1831 3584 
Q 2591 3584 2966 3190 
Q 3341 2797 3341 1997 
z
" transform="scale(0.015625)"/>
      <path id="DejaVuSans-20" transform="scale(0.015625)"/>
      <path id="DejaVuSans-70" d="M 1159 525 
L 1159 -1331 
L 581 -1331 
L 581 3500 
L 1159 3500 
L 1159 2969 
Q 1341 3281 1617 3432 
Q 1894 3584 2278 3584 
Q 2916 3584 3314 3078 
Q 3713 2572 3713 1747 
Q 3713 922 3314 415 
Q 2916 -91 2278 -91 
Q 1894 -91 1617 61 
Q 1341 213 1159 525 
z
M 3116 1747 
Q 3116 2381 2855 2742 
Q 2594 3103 2138 3103 
Q 1681 3103 1420 2742 
Q 1159 2381 1159 1747 
Q 1159 1113 1420 752 
Q 1681 391 2138 391 
Q 2594 391 2855 752 
Q 3116 1113 3116 1747 
z
" transform="scale(0.015625)"/>
      <path id="DejaVuSans-64" d="M 2906 2969 
L 2906 4863 
L 3481 4863 
L 3481 0 
L 2906 0 
L 2906 525 
Q 2725 213 2448 61 
Q 2172 -91 1784 -91 
Q 1150 -91 751 415 
Q 353 922 353 1747 
Q 353 2572 751 3078 
Q 1150 3584 1784 3584 
Q 2172 3584 2448 3432 
Q 2725 3281 2906 2969 
z
M 947 1747 
Q 947 1113 1208 752 
Q 1469 391 1925 391 
Q 2381 391 2643 752 
Q 2906 1113 2906 1747 
Q 2906 2381 2643 2742 
Q 2381 3103 1925 3103 
Q 1469 3103 1208 2742 
Q 947 2381 947 1747 
z
" transform="scale(0.015625)"/>
      <path id="DejaVuSans-76" d="M 191 3500 
L 800 3500 
L 1894 563 
L 2988 3500 
L 3597 3500 
L 2284 0 
L 1503 0 
L 191 3500 
z
" transform="scale(0.015625)"/>
      <path id="DejaVuSans-45" d="M 628 4666 
L 3578 4666 
L 3578 4134 
L 1259 4134 
L 1259 2753 
L 3481 2753 
L 3481 2222 
L 1259 2222 
L 1259 531 
L 3634 531 
L 3634 0 
L 628 0 
L 628 4666 
z
" transform="scale(0.015625)"/>
      <path id="DejaVuSans-78" d="M 3513 3500 
L 2247 1797 
L 3578 0 
L 2900 0 
L 1881 1375 
L 863 0 
L 184 0 
L 1544 1831 
L 300 3500 
L 978 3500 
L 1906 2253 
L 2834 3500 
L 3513 3500 
z
" transform="scale(0.015625)"/>
     </defs>
     <use xlink:href="#DejaVuSans-41"/>
     <use xlink:href="#DejaVuSans-63" x="66.658203"/>
     <use xlink:href="#DejaVuSans-74" x="121.638672"/>
     <use xlink:href="#DejaVuSans-75" x="160.847656"/>
     <use xlink:href="#DejaVuSans-61" x="224.226562"/>
     <use xlink:href="#DejaVuSans-6c" x="285.505859"/>
     <use xlink:href="#DejaVuSans-20" x="313.289062"/>
     <use xlink:href="#DejaVuSans-73" x="345.076172"/>
     <use xlink:href="#DejaVuSans-70" x="397.175781"/>
     <use xlink:href="#DejaVuSans-65" x="460.652344"/>
     <use xlink:href="#DejaVuSans-65" x="522.175781"/>
     <use xlink:href="#DejaVuSans-64" x="583.699219"/>
     <use xlink:href="#DejaVuSans-20" x="647.175781"/>
     <use xlink:href="#DejaVuSans-76" x="678.962891"/>
     <use xlink:href="#DejaVuSans-73" x="738.142578"/>
     <use xlink:href="#DejaVuSans-20" x="790.242188"/>
     <use xlink:href="#DejaVuSans-45" x="822.029297"/>
     <use xlink:href="#DejaVuSans-78" x="885.212891"/>
     <use xlink:href="#DejaVuSans-70" x="944.392578"/>
     <use xlink:href="#DejaVuSans-65" x="1007.869141"/>
     <use xlink:href="#DejaVuSans-63" x="1069.392578"/>
     <use xlink:href="#DejaVuSans-74" x="1124.373047"/>
     <use xlink:href="#DejaVuSans-65" x="1163.582031"/>
     <use xlink:href="#DejaVuSans-64" x="1225.105469"/>
     <use xlink:href="#DejaVuSans-20" x="1288.582031"/>
     <use xlink:href="#DejaVuSans-73" x="1320.369141"/>
     <use xlink:href="#DejaVuSans-70" x="1372.46875"/>
     <use xlink:href="#DejaVuSans-65" x="1435.945312"/>
     <use xlink:href="#DejaVuSans-65" x="1497.46875"/>
     <use xlink:href="#DejaVuSans-64" x="1558.992188"/>
    </g>
   </g>
   <g id="legend_1">
    <g id="patch_7">
     <path d="M 180.135 302.584 
L 292.185 302.584 
Q 294.185 302.584 294.185 300.584 
L 294.185 272.22775 
Q 294.185 270.22775 292.185 270.22775 
L 180.135 270.22775 
Q 178.135 270.22775 178.135 272.22775 
L 178.135 300.584 
Q 178.135 302.584 180.135 302.584 
z
" style="fill: #ffffff; opacity: 0.8; stroke: #cccccc; stroke-linejoin: miter"/>
    </g>
    <g id="line2d_39">
     <path d="M 182.135 278.326187 
L 192.135 278.326187 
L 202.135 278.326187 
" style="fill: none; stroke: #1f77b4; stroke-width: 1.5; stroke-linecap: square"/>
    </g>
    <g id="text_22">
     <!-- Actual speed -->
     <g transform="translate(210.135 281.826187) scale(0.1 -0.1)">
      <use xlink:href="#DejaVuSans-41"/>
      <use xlink:href="#DejaVuSans-63" x="66.658203"/>
      <use xlink:href="#DejaVuSans-74" x="121.638672"/>
      <use xlink:href="#DejaVuSans-75" x="160.847656"/>
      <use xlink:href="#DejaVuSans-61" x="224.226562"/>
      <use xlink:href="#DejaVuSans-6c" x="285.505859"/>
      <use xlink:href="#DejaVuSans-20" x="313.289062"/>
      <use xlink:href="#DejaVuSans-73" x="345.076172"/>
      <use xlink:href="#DejaVuSans-70" x="397.175781"/>
      <use xlink:href="#DejaVuSans-65" x="460.652344"/>
      <use xlink:href="#DejaVuSans-65" x="522.175781"/>
      <use xlink:href="#DejaVuSans-64" x="583.699219"/>
     </g>
    </g>
    <g id="line2d_40">
     <path d="M 182.135 293.004312 
L 192.135 293.004312 
L 202.135 293.004312 
" style="fill: none; stroke: #ff7f0e; stroke-width: 1.5; stroke-linecap: square"/>
    </g>
    <g id="text_23">
     <!-- Expected speed -->
     <g transform="translate(210.135 296.504312) scale(0.1 -0.1)">
      <use xlink:href="#DejaVuSans-45"/>
      <use xlink:href="#DejaVuSans-78" x="63.183594"/>
      <use xlink:href="#DejaVuSans-70" x="122.363281"/>
      <use xlink:href="#DejaVuSans-65" x="185.839844"/>
      <use xlink:href="#DejaVuSans-63" x="247.363281"/>
      <use xlink:href="#DejaVuSans-74" x="302.34375"/>
      <use xlink:href="#DejaVuSans-65" x="341.552734"/>
      <use xlink:href="#DejaVuSans-64" x="403.076172"/>
      <use xlink:href="#DejaVuSans-20" x="466.552734"/>
      <use xlink:href="#DejaVuSans-73" x="498.339844"/>
      <use xlink:href="#DejaVuSans-70" x="550.439453"/>
      <use xlink:href="#DejaVuSans-65" x="613.916016"/>
      <use xlink:href="#DejaVuSans-65" x="675.439453"/>
      <use xlink:href="#DejaVuSans-64" x="736.962891"/>
     </g>
    </g>
   </g>
  </g>
 </g>
 <defs>
  <clipPath id="p553e8ddffc">
   <rect x="57.6" y="41.472" width="357.12" height="266.112"/>
  </clipPath>
 </defs>
</svg>
