<?xml version="1.0" encoding="utf-8" standalone="no"?>
<!DOCTYPE svg PUBLIC "-//W3C//DTD SVG 1.1//EN"
  "http://www.w3.org/Graphics/SVG/1.1/DTD/svg11.dtd">
<svg xmlns:xlink="http://www.w3.org/1999/xlink" width="460.8pt" height="345.6pt" viewBox="0 0 460.8 345.6" xmlns="http://www.w3.org/2000/svg" version="1.1">
 <metadata>
  <rdf:RDF xmlns:dc="http://purl.org/dc/elements/1.1/" xmlns:cc="http://creativecommons.org/ns#" xmlns:rdf="http://www.w3.org/1999/02/22-rdf-syntax-ns#">
   <cc:Work>
    <dc:type rdf:resource="http://purl.org/dc/dcmitype/StillImage"/>
    <dc:date>2024-01-30T20:58:27.840814</dc:date>
    <dc:format>image/svg+xml</dc:format>
    <dc:creator>
     <cc:Agent>
      <dc:title>Matplotlib v3.7.1, https://matplotlib.org/</dc:title>
     </cc:Agent>
    </dc:creator>
   </cc:Work>
  </rdf:RDF>
 </metadata>
 <defs>
  <style type="text/css">*{stroke-linejoin: round; stroke-linecap: butt}</style>
 </defs>
 <g id="figure_1">
  <g id="patch_1">
   <path d="M 0 345.6 
L 460.8 345.6 
L 460.8 0 
L 0 0 
z
" style="fill: #ffffff"/>
  </g>
  <g id="axes_1">
   <g id="patch_2">
    <path d="M 57.6 307.584 
L 414.72 307.584 
L 414.72 41.472 
L 57.6 41.472 
z
" style="fill: #ffffff"/>
   </g>
   <g id="matplotlib.axis_1">
    <g id="xtick_1">
     <g id="line2d_1">
      <path d="M 73.832727 307.584 
L 73.832727 41.472 
" clip-path="url(#p291e1ddc2f)" style="fill: none; stroke: #b0b0b0; stroke-width: 0.8; stroke-linecap: square"/>
     </g>
     <g id="line2d_2">
      <defs>
       <path id="mb6fa201c96" d="M 0 0 
L 0 3.5 
" style="stroke: #000000; stroke-width: 0.8"/>
      </defs>
      <g>
       <use xlink:href="#mb6fa201c96" x="73.832727" y="307.584" style="stroke: #000000; stroke-width: 0.8"/>
      </g>
     </g>
     <g id="text_1">
      <!-- 0 -->
      <g transform="translate(70.651477 322.182437) scale(0.1 -0.1)">
       <defs>
        <path id="DejaVuSans-30" d="M 2034 4250 
Q 1547 4250 1301 3770 
Q 1056 3291 1056 2328 
Q 1056 1369 1301 889 
Q 1547 409 2034 409 
Q 2525 409 2770 889 
Q 3016 1369 3016 2328 
Q 3016 3291 2770 3770 
Q 2525 4250 2034 4250 
z
M 2034 4750 
Q 2819 4750 3233 4129 
Q 3647 3509 3647 2328 
Q 3647 1150 3233 529 
Q 2819 -91 2034 -91 
Q 1250 -91 836 529 
Q 422 1150 422 2328 
Q 422 3509 836 4129 
Q 1250 4750 2034 4750 
z
" transform="scale(0.015625)"/>
       </defs>
       <use xlink:href="#DejaVuSans-30"/>
      </g>
     </g>
    </g>
    <g id="xtick_2">
     <g id="line2d_3">
      <path d="M 114.414545 307.584 
L 114.414545 41.472 
" clip-path="url(#p291e1ddc2f)" style="fill: none; stroke: #b0b0b0; stroke-width: 0.8; stroke-linecap: square"/>
     </g>
     <g id="line2d_4">
      <g>
       <use xlink:href="#mb6fa201c96" x="114.414545" y="307.584" style="stroke: #000000; stroke-width: 0.8"/>
      </g>
     </g>
     <g id="text_2">
      <!-- 2 -->
      <g transform="translate(111.233295 322.182437) scale(0.1 -0.1)">
       <defs>
        <path id="DejaVuSans-32" d="M 1228 531 
L 3431 531 
L 3431 0 
L 469 0 
L 469 531 
Q 828 903 1448 1529 
Q 2069 2156 2228 2338 
Q 2531 2678 2651 2914 
Q 2772 3150 2772 3378 
Q 2772 3750 2511 3984 
Q 2250 4219 1831 4219 
Q 1534 4219 1204 4116 
Q 875 4013 500 3803 
L 500 4441 
Q 881 4594 1212 4672 
Q 1544 4750 1819 4750 
Q 2544 4750 2975 4387 
Q 3406 4025 3406 3419 
Q 3406 3131 3298 2873 
Q 3191 2616 2906 2266 
Q 2828 2175 2409 1742 
Q 1991 1309 1228 531 
z
" transform="scale(0.015625)"/>
       </defs>
       <use xlink:href="#DejaVuSans-32"/>
      </g>
     </g>
    </g>
    <g id="xtick_3">
     <g id="line2d_5">
      <path d="M 154.996364 307.584 
L 154.996364 41.472 
" clip-path="url(#p291e1ddc2f)" style="fill: none; stroke: #b0b0b0; stroke-width: 0.8; stroke-linecap: square"/>
     </g>
     <g id="line2d_6">
      <g>
       <use xlink:href="#mb6fa201c96" x="154.996364" y="307.584" style="stroke: #000000; stroke-width: 0.8"/>
      </g>
     </g>
     <g id="text_3">
      <!-- 4 -->
      <g transform="translate(151.815114 322.182437) scale(0.1 -0.1)">
       <defs>
        <path id="DejaVuSans-34" d="M 2419 4116 
L 825 1625 
L 2419 1625 
L 2419 4116 
z
M 2253 4666 
L 3047 4666 
L 3047 1625 
L 3713 1625 
L 3713 1100 
L 3047 1100 
L 3047 0 
L 2419 0 
L 2419 1100 
L 313 1100 
L 313 1709 
L 2253 4666 
z
" transform="scale(0.015625)"/>
       </defs>
       <use xlink:href="#DejaVuSans-34"/>
      </g>
     </g>
    </g>
    <g id="xtick_4">
     <g id="line2d_7">
      <path d="M 195.578182 307.584 
L 195.578182 41.472 
" clip-path="url(#p291e1ddc2f)" style="fill: none; stroke: #b0b0b0; stroke-width: 0.8; stroke-linecap: square"/>
     </g>
     <g id="line2d_8">
      <g>
       <use xlink:href="#mb6fa201c96" x="195.578182" y="307.584" style="stroke: #000000; stroke-width: 0.8"/>
      </g>
     </g>
     <g id="text_4">
      <!-- 6 -->
      <g transform="translate(192.396932 322.182437) scale(0.1 -0.1)">
       <defs>
        <path id="DejaVuSans-36" d="M 2113 2584 
Q 1688 2584 1439 2293 
Q 1191 2003 1191 1497 
Q 1191 994 1439 701 
Q 1688 409 2113 409 
Q 2538 409 2786 701 
Q 3034 994 3034 1497 
Q 3034 2003 2786 2293 
Q 2538 2584 2113 2584 
z
M 3366 4563 
L 3366 3988 
Q 3128 4100 2886 4159 
Q 2644 4219 2406 4219 
Q 1781 4219 1451 3797 
Q 1122 3375 1075 2522 
Q 1259 2794 1537 2939 
Q 1816 3084 2150 3084 
Q 2853 3084 3261 2657 
Q 3669 2231 3669 1497 
Q 3669 778 3244 343 
Q 2819 -91 2113 -91 
Q 1303 -91 875 529 
Q 447 1150 447 2328 
Q 447 3434 972 4092 
Q 1497 4750 2381 4750 
Q 2619 4750 2861 4703 
Q 3103 4656 3366 4563 
z
" transform="scale(0.015625)"/>
       </defs>
       <use xlink:href="#DejaVuSans-36"/>
      </g>
     </g>
    </g>
    <g id="xtick_5">
     <g id="line2d_9">
      <path d="M 236.16 307.584 
L 236.16 41.472 
" clip-path="url(#p291e1ddc2f)" style="fill: none; stroke: #b0b0b0; stroke-width: 0.8; stroke-linecap: square"/>
     </g>
     <g id="line2d_10">
      <g>
       <use xlink:href="#mb6fa201c96" x="236.16" y="307.584" style="stroke: #000000; stroke-width: 0.8"/>
      </g>
     </g>
     <g id="text_5">
      <!-- 8 -->
      <g transform="translate(232.97875 322.182437) scale(0.1 -0.1)">
       <defs>
        <path id="DejaVuSans-38" d="M 2034 2216 
Q 1584 2216 1326 1975 
Q 1069 1734 1069 1313 
Q 1069 891 1326 650 
Q 1584 409 2034 409 
Q 2484 409 2743 651 
Q 3003 894 3003 1313 
Q 3003 1734 2745 1975 
Q 2488 2216 2034 2216 
z
M 1403 2484 
Q 997 2584 770 2862 
Q 544 3141 544 3541 
Q 544 4100 942 4425 
Q 1341 4750 2034 4750 
Q 2731 4750 3128 4425 
Q 3525 4100 3525 3541 
Q 3525 3141 3298 2862 
Q 3072 2584 2669 2484 
Q 3125 2378 3379 2068 
Q 3634 1759 3634 1313 
Q 3634 634 3220 271 
Q 2806 -91 2034 -91 
Q 1263 -91 848 271 
Q 434 634 434 1313 
Q 434 1759 690 2068 
Q 947 2378 1403 2484 
z
M 1172 3481 
Q 1172 3119 1398 2916 
Q 1625 2713 2034 2713 
Q 2441 2713 2670 2916 
Q 2900 3119 2900 3481 
Q 2900 3844 2670 4047 
Q 2441 4250 2034 4250 
Q 1625 4250 1398 4047 
Q 1172 3844 1172 3481 
z
" transform="scale(0.015625)"/>
       </defs>
       <use xlink:href="#DejaVuSans-38"/>
      </g>
     </g>
    </g>
    <g id="xtick_6">
     <g id="line2d_11">
      <path d="M 276.741818 307.584 
L 276.741818 41.472 
" clip-path="url(#p291e1ddc2f)" style="fill: none; stroke: #b0b0b0; stroke-width: 0.8; stroke-linecap: square"/>
     </g>
     <g id="line2d_12">
      <g>
       <use xlink:href="#mb6fa201c96" x="276.741818" y="307.584" style="stroke: #000000; stroke-width: 0.8"/>
      </g>
     </g>
     <g id="text_6">
      <!-- 10 -->
      <g transform="translate(270.379318 322.182437) scale(0.1 -0.1)">
       <defs>
        <path id="DejaVuSans-31" d="M 794 531 
L 1825 531 
L 1825 4091 
L 703 3866 
L 703 4441 
L 1819 4666 
L 2450 4666 
L 2450 531 
L 3481 531 
L 3481 0 
L 794 0 
L 794 531 
z
" transform="scale(0.015625)"/>
       </defs>
       <use xlink:href="#DejaVuSans-31"/>
       <use xlink:href="#DejaVuSans-30" x="63.623047"/>
      </g>
     </g>
    </g>
    <g id="xtick_7">
     <g id="line2d_13">
      <path d="M 317.323636 307.584 
L 317.323636 41.472 
" clip-path="url(#p291e1ddc2f)" style="fill: none; stroke: #b0b0b0; stroke-width: 0.8; stroke-linecap: square"/>
     </g>
     <g id="line2d_14">
      <g>
       <use xlink:href="#mb6fa201c96" x="317.323636" y="307.584" style="stroke: #000000; stroke-width: 0.8"/>
      </g>
     </g>
     <g id="text_7">
      <!-- 12 -->
      <g transform="translate(310.961136 322.182437) scale(0.1 -0.1)">
       <use xlink:href="#DejaVuSans-31"/>
       <use xlink:href="#DejaVuSans-32" x="63.623047"/>
      </g>
     </g>
    </g>
    <g id="xtick_8">
     <g id="line2d_15">
      <path d="M 357.905455 307.584 
L 357.905455 41.472 
" clip-path="url(#p291e1ddc2f)" style="fill: none; stroke: #b0b0b0; stroke-width: 0.8; stroke-linecap: square"/>
     </g>
     <g id="line2d_16">
      <g>
       <use xlink:href="#mb6fa201c96" x="357.905455" y="307.584" style="stroke: #000000; stroke-width: 0.8"/>
      </g>
     </g>
     <g id="text_8">
      <!-- 14 -->
      <g transform="translate(351.542955 322.182437) scale(0.1 -0.1)">
       <use xlink:href="#DejaVuSans-31"/>
       <use xlink:href="#DejaVuSans-34" x="63.623047"/>
      </g>
     </g>
    </g>
    <g id="xtick_9">
     <g id="line2d_17">
      <path d="M 398.487273 307.584 
L 398.487273 41.472 
" clip-path="url(#p291e1ddc2f)" style="fill: none; stroke: #b0b0b0; stroke-width: 0.8; stroke-linecap: square"/>
     </g>
     <g id="line2d_18">
      <g>
       <use xlink:href="#mb6fa201c96" x="398.487273" y="307.584" style="stroke: #000000; stroke-width: 0.8"/>
      </g>
     </g>
     <g id="text_9">
      <!-- 16 -->
      <g transform="translate(392.124773 322.182437) scale(0.1 -0.1)">
       <use xlink:href="#DejaVuSans-31"/>
       <use xlink:href="#DejaVuSans-36" x="63.623047"/>
      </g>
     </g>
    </g>
    <g id="text_10">
     <!-- Time(s) -->
     <g transform="translate(217.420156 335.860562) scale(0.1 -0.1)">
      <defs>
       <path id="DejaVuSans-54" d="M -19 4666 
L 3928 4666 
L 3928 4134 
L 2272 4134 
L 2272 0 
L 1638 0 
L 1638 4134 
L -19 4134 
L -19 4666 
z
" transform="scale(0.015625)"/>
       <path id="DejaVuSans-69" d="M 603 3500 
L 1178 3500 
L 1178 0 
L 603 0 
L 603 3500 
z
M 603 4863 
L 1178 4863 
L 1178 4134 
L 603 4134 
L 603 4863 
z
" transform="scale(0.015625)"/>
       <path id="DejaVuSans-6d" d="M 3328 2828 
Q 3544 3216 3844 3400 
Q 4144 3584 4550 3584 
Q 5097 3584 5394 3201 
Q 5691 2819 5691 2113 
L 5691 0 
L 5113 0 
L 5113 2094 
Q 5113 2597 4934 2840 
Q 4756 3084 4391 3084 
Q 3944 3084 3684 2787 
Q 3425 2491 3425 1978 
L 3425 0 
L 2847 0 
L 2847 2094 
Q 2847 2600 2669 2842 
Q 2491 3084 2119 3084 
Q 1678 3084 1418 2786 
Q 1159 2488 1159 1978 
L 1159 0 
L 581 0 
L 581 3500 
L 1159 3500 
L 1159 2956 
Q 1356 3278 1631 3431 
Q 1906 3584 2284 3584 
Q 2666 3584 2933 3390 
Q 3200 3197 3328 2828 
z
" transform="scale(0.015625)"/>
       <path id="DejaVuSans-65" d="M 3597 1894 
L 3597 1613 
L 953 1613 
Q 991 1019 1311 708 
Q 1631 397 2203 397 
Q 2534 397 2845 478 
Q 3156 559 3463 722 
L 3463 178 
Q 3153 47 2828 -22 
Q 2503 -91 2169 -91 
Q 1331 -91 842 396 
Q 353 884 353 1716 
Q 353 2575 817 3079 
Q 1281 3584 2069 3584 
Q 2775 3584 3186 3129 
Q 3597 2675 3597 1894 
z
M 3022 2063 
Q 3016 2534 2758 2815 
Q 2500 3097 2075 3097 
Q 1594 3097 1305 2825 
Q 1016 2553 972 2059 
L 3022 2063 
z
" transform="scale(0.015625)"/>
       <path id="DejaVuSans-28" d="M 1984 4856 
Q 1566 4138 1362 3434 
Q 1159 2731 1159 2009 
Q 1159 1288 1364 580 
Q 1569 -128 1984 -844 
L 1484 -844 
Q 1016 -109 783 600 
Q 550 1309 550 2009 
Q 550 2706 781 3412 
Q 1013 4119 1484 4856 
L 1984 4856 
z
" transform="scale(0.015625)"/>
       <path id="DejaVuSans-73" d="M 2834 3397 
L 2834 2853 
Q 2591 2978 2328 3040 
Q 2066 3103 1784 3103 
Q 1356 3103 1142 2972 
Q 928 2841 928 2578 
Q 928 2378 1081 2264 
Q 1234 2150 1697 2047 
L 1894 2003 
Q 2506 1872 2764 1633 
Q 3022 1394 3022 966 
Q 3022 478 2636 193 
Q 2250 -91 1575 -91 
Q 1294 -91 989 -36 
Q 684 19 347 128 
L 347 722 
Q 666 556 975 473 
Q 1284 391 1588 391 
Q 1994 391 2212 530 
Q 2431 669 2431 922 
Q 2431 1156 2273 1281 
Q 2116 1406 1581 1522 
L 1381 1569 
Q 847 1681 609 1914 
Q 372 2147 372 2553 
Q 372 3047 722 3315 
Q 1072 3584 1716 3584 
Q 2034 3584 2315 3537 
Q 2597 3491 2834 3397 
z
" transform="scale(0.015625)"/>
       <path id="DejaVuSans-29" d="M 513 4856 
L 1013 4856 
Q 1481 4119 1714 3412 
Q 1947 2706 1947 2009 
Q 1947 1309 1714 600 
Q 1481 -109 1013 -844 
L 513 -844 
Q 928 -128 1133 580 
Q 1338 1288 1338 2009 
Q 1338 2731 1133 3434 
Q 928 4138 513 4856 
z
" transform="scale(0.015625)"/>
      </defs>
      <use xlink:href="#DejaVuSans-54"/>
      <use xlink:href="#DejaVuSans-69" x="57.958984"/>
      <use xlink:href="#DejaVuSans-6d" x="85.742188"/>
      <use xlink:href="#DejaVuSans-65" x="183.154297"/>
      <use xlink:href="#DejaVuSans-28" x="244.677734"/>
      <use xlink:href="#DejaVuSans-73" x="283.691406"/>
      <use xlink:href="#DejaVuSans-29" x="335.791016"/>
     </g>
    </g>
   </g>
   <g id="matplotlib.axis_2">
    <g id="ytick_1">
     <g id="line2d_19">
      <path d="M 57.6 295.488 
L 414.72 295.488 
" clip-path="url(#p291e1ddc2f)" style="fill: none; stroke: #b0b0b0; stroke-width: 0.8; stroke-linecap: square"/>
     </g>
     <g id="line2d_20">
      <defs>
       <path id="m2171e9b047" d="M 0 0 
L -3.5 0 
" style="stroke: #000000; stroke-width: 0.8"/>
      </defs>
      <g>
       <use xlink:href="#m2171e9b047" x="57.6" y="295.488" style="stroke: #000000; stroke-width: 0.8"/>
      </g>
     </g>
     <g id="text_11">
      <!-- 0 -->
      <g transform="translate(44.2375 299.287219) scale(0.1 -0.1)">
       <use xlink:href="#DejaVuSans-30"/>
      </g>
     </g>
    </g>
    <g id="ytick_2">
     <g id="line2d_21">
      <path d="M 57.6 265.248 
L 414.72 265.248 
" clip-path="url(#p291e1ddc2f)" style="fill: none; stroke: #b0b0b0; stroke-width: 0.8; stroke-linecap: square"/>
     </g>
     <g id="line2d_22">
      <g>
       <use xlink:href="#m2171e9b047" x="57.6" y="265.248" style="stroke: #000000; stroke-width: 0.8"/>
      </g>
     </g>
     <g id="text_12">
      <!-- 1 -->
      <g transform="translate(44.2375 269.047219) scale(0.1 -0.1)">
       <use xlink:href="#DejaVuSans-31"/>
      </g>
     </g>
    </g>
    <g id="ytick_3">
     <g id="line2d_23">
      <path d="M 57.6 235.008 
L 414.72 235.008 
" clip-path="url(#p291e1ddc2f)" style="fill: none; stroke: #b0b0b0; stroke-width: 0.8; stroke-linecap: square"/>
     </g>
     <g id="line2d_24">
      <g>
       <use xlink:href="#m2171e9b047" x="57.6" y="235.008" style="stroke: #000000; stroke-width: 0.8"/>
      </g>
     </g>
     <g id="text_13">
      <!-- 2 -->
      <g transform="translate(44.2375 238.807219) scale(0.1 -0.1)">
       <use xlink:href="#DejaVuSans-32"/>
      </g>
     </g>
    </g>
    <g id="ytick_4">
     <g id="line2d_25">
      <path d="M 57.6 204.768 
L 414.72 204.768 
" clip-path="url(#p291e1ddc2f)" style="fill: none; stroke: #b0b0b0; stroke-width: 0.8; stroke-linecap: square"/>
     </g>
     <g id="line2d_26">
      <g>
       <use xlink:href="#m2171e9b047" x="57.6" y="204.768" style="stroke: #000000; stroke-width: 0.8"/>
      </g>
     </g>
     <g id="text_14">
      <!-- 3 -->
      <g transform="translate(44.2375 208.567219) scale(0.1 -0.1)">
       <defs>
        <path id="DejaVuSans-33" d="M 2597 2516 
Q 3050 2419 3304 2112 
Q 3559 1806 3559 1356 
Q 3559 666 3084 287 
Q 2609 -91 1734 -91 
Q 1441 -91 1130 -33 
Q 819 25 488 141 
L 488 750 
Q 750 597 1062 519 
Q 1375 441 1716 441 
Q 2309 441 2620 675 
Q 2931 909 2931 1356 
Q 2931 1769 2642 2001 
Q 2353 2234 1838 2234 
L 1294 2234 
L 1294 2753 
L 1863 2753 
Q 2328 2753 2575 2939 
Q 2822 3125 2822 3475 
Q 2822 3834 2567 4026 
Q 2313 4219 1838 4219 
Q 1578 4219 1281 4162 
Q 984 4106 628 3988 
L 628 4550 
Q 988 4650 1302 4700 
Q 1616 4750 1894 4750 
Q 2613 4750 3031 4423 
Q 3450 4097 3450 3541 
Q 3450 3153 3228 2886 
Q 3006 2619 2597 2516 
z
" transform="scale(0.015625)"/>
       </defs>
       <use xlink:href="#DejaVuSans-33"/>
      </g>
     </g>
    </g>
    <g id="ytick_5">
     <g id="line2d_27">
      <path d="M 57.6 174.528 
L 414.72 174.528 
" clip-path="url(#p291e1ddc2f)" style="fill: none; stroke: #b0b0b0; stroke-width: 0.8; stroke-linecap: square"/>
     </g>
     <g id="line2d_28">
      <g>
       <use xlink:href="#m2171e9b047" x="57.6" y="174.528" style="stroke: #000000; stroke-width: 0.8"/>
      </g>
     </g>
     <g id="text_15">
      <!-- 4 -->
      <g transform="translate(44.2375 178.327219) scale(0.1 -0.1)">
       <use xlink:href="#DejaVuSans-34"/>
      </g>
     </g>
    </g>
    <g id="ytick_6">
     <g id="line2d_29">
      <path d="M 57.6 144.288 
L 414.72 144.288 
" clip-path="url(#p291e1ddc2f)" style="fill: none; stroke: #b0b0b0; stroke-width: 0.8; stroke-linecap: square"/>
     </g>
     <g id="line2d_30">
      <g>
       <use xlink:href="#m2171e9b047" x="57.6" y="144.288" style="stroke: #000000; stroke-width: 0.8"/>
      </g>
     </g>
     <g id="text_16">
      <!-- 5 -->
      <g transform="translate(44.2375 148.087219) scale(0.1 -0.1)">
       <defs>
        <path id="DejaVuSans-35" d="M 691 4666 
L 3169 4666 
L 3169 4134 
L 1269 4134 
L 1269 2991 
Q 1406 3038 1543 3061 
Q 1681 3084 1819 3084 
Q 2600 3084 3056 2656 
Q 3513 2228 3513 1497 
Q 3513 744 3044 326 
Q 2575 -91 1722 -91 
Q 1428 -91 1123 -41 
Q 819 9 494 109 
L 494 744 
Q 775 591 1075 516 
Q 1375 441 1709 441 
Q 2250 441 2565 725 
Q 2881 1009 2881 1497 
Q 2881 1984 2565 2268 
Q 2250 2553 1709 2553 
Q 1456 2553 1204 2497 
Q 953 2441 691 2322 
L 691 4666 
z
" transform="scale(0.015625)"/>
       </defs>
       <use xlink:href="#DejaVuSans-35"/>
      </g>
     </g>
    </g>
    <g id="ytick_7">
     <g id="line2d_31">
      <path d="M 57.6 114.048 
L 414.72 114.048 
" clip-path="url(#p291e1ddc2f)" style="fill: none; stroke: #b0b0b0; stroke-width: 0.8; stroke-linecap: square"/>
     </g>
     <g id="line2d_32">
      <g>
       <use xlink:href="#m2171e9b047" x="57.6" y="114.048" style="stroke: #000000; stroke-width: 0.8"/>
      </g>
     </g>
     <g id="text_17">
      <!-- 6 -->
      <g transform="translate(44.2375 117.847219) scale(0.1 -0.1)">
       <use xlink:href="#DejaVuSans-36"/>
      </g>
     </g>
    </g>
    <g id="ytick_8">
     <g id="line2d_33">
      <path d="M 57.6 83.808 
L 414.72 83.808 
" clip-path="url(#p291e1ddc2f)" style="fill: none; stroke: #b0b0b0; stroke-width: 0.8; stroke-linecap: square"/>
     </g>
     <g id="line2d_34">
      <g>
       <use xlink:href="#m2171e9b047" x="57.6" y="83.808" style="stroke: #000000; stroke-width: 0.8"/>
      </g>
     </g>
     <g id="text_18">
      <!-- 7 -->
      <g transform="translate(44.2375 87.607219) scale(0.1 -0.1)">
       <defs>
        <path id="DejaVuSans-37" d="M 525 4666 
L 3525 4666 
L 3525 4397 
L 1831 0 
L 1172 0 
L 2766 4134 
L 525 4134 
L 525 4666 
z
" transform="scale(0.015625)"/>
       </defs>
       <use xlink:href="#DejaVuSans-37"/>
      </g>
     </g>
    </g>
    <g id="ytick_9">
     <g id="line2d_35">
      <path d="M 57.6 53.568 
L 414.72 53.568 
" clip-path="url(#p291e1ddc2f)" style="fill: none; stroke: #b0b0b0; stroke-width: 0.8; stroke-linecap: square"/>
     </g>
     <g id="line2d_36">
      <g>
       <use xlink:href="#m2171e9b047" x="57.6" y="53.568" style="stroke: #000000; stroke-width: 0.8"/>
      </g>
     </g>
     <g id="text_19">
      <!-- 8 -->
      <g transform="translate(44.2375 57.367219) scale(0.1 -0.1)">
       <use xlink:href="#DejaVuSans-38"/>
      </g>
     </g>
    </g>
    <g id="text_20">
     <!-- Velocity(m/s) -->
     <g transform="translate(38.157812 207.204563) rotate(-90) scale(0.1 -0.1)">
      <defs>
       <path id="DejaVuSans-56" d="M 1831 0 
L 50 4666 
L 709 4666 
L 2188 738 
L 3669 4666 
L 4325 4666 
L 2547 0 
L 1831 0 
z
" transform="scale(0.015625)"/>
       <path id="DejaVuSans-6c" d="M 603 4863 
L 1178 4863 
L 1178 0 
L 603 0 
L 603 4863 
z
" transform="scale(0.015625)"/>
       <path id="DejaVuSans-6f" d="M 1959 3097 
Q 1497 3097 1228 2736 
Q 959 2375 959 1747 
Q 959 1119 1226 758 
Q 1494 397 1959 397 
Q 2419 397 2687 759 
Q 2956 1122 2956 1747 
Q 2956 2369 2687 2733 
Q 2419 3097 1959 3097 
z
M 1959 3584 
Q 2709 3584 3137 3096 
Q 3566 2609 3566 1747 
Q 3566 888 3137 398 
Q 2709 -91 1959 -91 
Q 1206 -91 779 398 
Q 353 888 353 1747 
Q 353 2609 779 3096 
Q 1206 3584 1959 3584 
z
" transform="scale(0.015625)"/>
       <path id="DejaVuSans-63" d="M 3122 3366 
L 3122 2828 
Q 2878 2963 2633 3030 
Q 2388 3097 2138 3097 
Q 1578 3097 1268 2742 
Q 959 2388 959 1747 
Q 959 1106 1268 751 
Q 1578 397 2138 397 
Q 2388 397 2633 464 
Q 2878 531 3122 666 
L 3122 134 
Q 2881 22 2623 -34 
Q 2366 -91 2075 -91 
Q 1284 -91 818 406 
Q 353 903 353 1747 
Q 353 2603 823 3093 
Q 1294 3584 2113 3584 
Q 2378 3584 2631 3529 
Q 2884 3475 3122 3366 
z
" transform="scale(0.015625)"/>
       <path id="DejaVuSans-74" d="M 1172 4494 
L 1172 3500 
L 2356 3500 
L 2356 3053 
L 1172 3053 
L 1172 1153 
Q 1172 725 1289 603 
Q 1406 481 1766 481 
L 2356 481 
L 2356 0 
L 1766 0 
Q 1100 0 847 248 
Q 594 497 594 1153 
L 594 3053 
L 172 3053 
L 172 3500 
L 594 3500 
L 594 4494 
L 1172 4494 
z
" transform="scale(0.015625)"/>
       <path id="DejaVuSans-79" d="M 2059 -325 
Q 1816 -950 1584 -1140 
Q 1353 -1331 966 -1331 
L 506 -1331 
L 506 -850 
L 844 -850 
Q 1081 -850 1212 -737 
Q 1344 -625 1503 -206 
L 1606 56 
L 191 3500 
L 800 3500 
L 1894 763 
L 2988 3500 
L 3597 3500 
L 2059 -325 
z
" transform="scale(0.015625)"/>
       <path id="DejaVuSans-2f" d="M 1625 4666 
L 2156 4666 
L 531 -594 
L 0 -594 
L 1625 4666 
z
" transform="scale(0.015625)"/>
      </defs>
      <use xlink:href="#DejaVuSans-56"/>
      <use xlink:href="#DejaVuSans-65" x="60.658203"/>
      <use xlink:href="#DejaVuSans-6c" x="122.181641"/>
      <use xlink:href="#DejaVuSans-6f" x="149.964844"/>
      <use xlink:href="#DejaVuSans-63" x="211.146484"/>
      <use xlink:href="#DejaVuSans-69" x="266.126953"/>
      <use xlink:href="#DejaVuSans-74" x="293.910156"/>
      <use xlink:href="#DejaVuSans-79" x="333.119141"/>
      <use xlink:href="#DejaVuSans-28" x="392.298828"/>
      <use xlink:href="#DejaVuSans-6d" x="431.3125"/>
      <use xlink:href="#DejaVuSans-2f" x="528.724609"/>
      <use xlink:href="#DejaVuSans-73" x="562.416016"/>
      <use xlink:href="#DejaVuSans-29" x="614.515625"/>
     </g>
    </g>
   </g>
   <g id="line2d_37">
    <path d="M 73.832727 53.568 
L 73.832727 295.488 
L 74.238545 290.311517 
L 81.137455 264.898547 
L 81.137455 264.898547 
L 88.036364 238.584455 
L 88.036364 238.584455 
L 94.935273 211.337338 
L 94.935273 211.337338 
L 101.834182 183.124083 
L 101.834182 183.124083 
L 108.327273 155.657212 
L 108.327273 155.657212 
L 114.820364 127.274643 
L 114.820364 127.274643 
L 121.313455 97.945865 
L 121.313455 97.945865 
L 127.806545 68.37172 
L 127.806545 68.37172 
L 129.024 64.619571 
L 129.024 64.619571 
L 130.241455 61.81844 
L 130.241455 61.81844 
L 131.053091 60.499643 
L 131.053091 60.499643 
L 131.864727 59.871256 
L 131.864727 59.871256 
L 132.270545 59.722596 
L 132.270545 59.722596 
L 132.676364 59.726527 
L 132.676364 59.726527 
L 133.082182 60.51183 
L 133.082182 60.51183 
L 133.488 61.911065 
L 133.488 61.911065 
L 133.893818 62.730387 
L 134.299636 63.922025 
L 134.299636 63.922025 
L 134.705455 65.738148 
L 134.705455 65.738148 
L 135.111273 68.390166 
L 135.111273 68.390166 
L 135.922909 72.171739 
L 135.922909 72.171739 
L 136.328727 75.108194 
L 136.328727 75.108194 
L 136.734545 79.254037 
L 136.734545 79.254037 
L 137.546182 84.572346 
L 137.546182 84.572346 
L 137.952 88.799626 
L 137.952 88.799626 
L 138.763636 94.618437 
L 138.763636 94.618437 
L 139.169455 98.522179 
L 139.169455 98.522179 
L 139.981091 103.849409 
L 139.981091 103.849409 
L 140.386909 107.392297 
L 140.386909 107.392297 
L 141.198545 112.082702 
L 141.198545 112.082702 
L 141.604364 115.346082 
L 141.604364 115.346082 
L 142.010182 117.042909 
L 142.416 119.385209 
L 142.416 119.385209 
L 144.039273 125.863736 
L 144.039273 125.863736 
L 144.445091 127.847298 
L 144.445091 127.847298 
L 146.474182 133.521744 
L 146.474182 133.521744 
L 147.285818 135.177595 
L 147.285818 135.177595 
L 148.097455 136.517741 
L 148.097455 136.517741 
L 149.314909 138.102166 
L 149.314909 138.102166 
L 150.126545 138.761549 
L 150.126545 138.761549 
L 150.938182 139.155909 
L 150.938182 139.155909 
L 152.155636 139.368466 
L 152.155636 139.368466 
L 153.778909 139.449056 
L 153.778909 139.449056 
L 155.808 139.415368 
L 155.808 139.415368 
L 157.431273 139.129842 
L 157.431273 139.129842 
L 158.648727 138.598193 
L 158.648727 138.598193 
L 159.460364 138.045133 
L 159.460364 138.045133 
L 161.083636 135.868247 
L 161.083636 135.868247 
L 162.706909 132.349369 
L 162.706909 132.349369 
L 164.330182 127.078628 
L 164.330182 127.078628 
L 165.953455 120.031256 
L 165.953455 120.031256 
L 170.011636 102.167853 
L 170.011636 102.167853 
L 170.823273 99.596364 
L 170.823273 99.596364 
L 172.040727 96.600276 
L 172.040727 96.600276 
L 173.258182 94.366296 
L 173.258182 94.366296 
L 174.475636 92.642646 
L 174.475636 92.642646 
L 176.504727 90.066622 
L 176.504727 90.066622 
L 178.533818 86.316499 
L 178.533818 86.316499 
L 179.751273 82.75719 
L 179.751273 82.75719 
L 182.997818 69.167697 
L 182.997818 69.167697 
L 183.809455 67.231823 
L 183.809455 67.231823 
L 184.621091 65.953004 
L 184.621091 65.953004 
L 185.432727 64.997662 
L 185.432727 64.997662 
L 186.650182 63.951327 
L 186.650182 63.951327 
L 188.273455 62.957157 
L 188.273455 62.957157 
L 189.490909 62.347398 
L 189.490909 62.347398 
L 191.114182 61.016717 
L 191.114182 61.016717 
L 192.737455 58.734685 
L 192.737455 58.734685 
L 193.954909 57.425142 
L 193.954909 57.425142 
L 195.172364 56.447513 
L 195.172364 56.447513 
L 196.389818 55.717671 
L 196.389818 55.717671 
L 198.013091 55.023814 
L 198.013091 55.023814 
L 200.042182 54.462408 
L 200.042182 54.462408 
L 202.477091 54.066476 
L 202.477091 54.066476 
L 205.723636 53.796614 
L 205.723636 53.796614 
L 210.593455 53.639004 
L 210.593455 53.639004 
L 221.144727 53.573625 
L 221.144727 53.573625 
L 221.956364 53.572627 
L 221.956364 53.572627 
L 222.362182 53.810253 
L 222.362182 53.810253 
L 222.768 55.041081 
L 222.768 55.041081 
L 223.173818 56.946534 
L 223.173818 56.946534 
L 223.985455 59.939266 
L 223.985455 59.939266 
L 224.797091 64.022905 
L 224.797091 64.022905 
L 225.202909 66.617739 
L 225.202909 66.617739 
L 226.014545 69.972172 
L 226.014545 69.972172 
L 227.232 75.957061 
L 227.232 75.957061 
L 227.637818 77.520046 
L 227.637818 77.520046 
L 228.043636 79.546821 
L 228.043636 79.546821 
L 229.261091 84.231179 
L 229.261091 84.231179 
L 229.666909 86.269324 
L 229.666909 86.269324 
L 230.478545 88.826691 
L 230.478545 88.826691 
L 230.884364 90.500928 
L 230.884364 90.500928 
L 231.696 92.742257 
L 231.696 92.742257 
L 232.101818 94.260789 
L 232.101818 94.260789 
L 232.913455 96.269783 
L 232.913455 96.269783 
L 233.319273 97.581987 
L 233.319273 97.581987 
L 235.754182 102.690037 
L 235.754182 102.690037 
L 237.783273 105.262584 
L 237.783273 105.262584 
L 239.000727 106.264133 
L 239.000727 106.264133 
L 240.218182 106.847644 
L 240.218182 106.847644 
L 241.435636 107.137011 
L 241.435636 107.137011 
L 243.464727 107.270188 
L 243.464727 107.270188 
L 246.711273 107.184216 
L 246.711273 107.184216 
L 248.334545 106.907761 
L 248.334545 106.907761 
L 249.552 106.561392 
L 249.552 106.561392 
L 250.363636 106.259355 
L 250.363636 106.259355 
L 252.798545 104.72658 
L 252.798545 104.72658 
L 253.610182 104.048267 
L 253.610182 104.048267 
L 256.045091 101.036817 
L 256.045091 101.036817 
L 256.856727 99.796342 
L 256.856727 99.796342 
L 258.885818 95.486295 
L 258.885818 95.486295 
L 260.103273 92.142174 
L 260.103273 92.142174 
L 261.320727 88.121313 
L 261.320727 88.121313 
L 262.538182 83.420323 
L 262.538182 83.420323 
L 263.755636 78.046312 
L 263.755636 78.046312 
L 265.784727 68.996932 
L 265.784727 68.996932 
L 267.002182 65.086325 
L 267.002182 65.086325 
L 268.219636 62.166895 
L 268.219636 62.166895 
L 269.437091 59.987408 
L 269.437091 59.987408 
L 270.654545 58.360344 
L 270.654545 58.360344 
L 271.872 57.145694 
L 271.872 57.145694 
L 273.089455 56.238888 
L 273.089455 56.238888 
L 274.712727 55.376806 
L 274.712727 55.376806 
L 276.336 54.792992 
L 276.336 54.792992 
L 278.365091 54.320583 
L 278.365091 54.320583 
L 280.8 53.987429 
L 280.8 53.987429 
L 284.452364 53.742515 
L 284.452364 53.742515 
L 290.539636 53.608461 
L 290.539636 53.608461 
L 296.626909 53.577374 
L 296.626909 53.577374 
L 297.032727 53.789478 
L 297.032727 53.789478 
L 297.438545 54.360621 
L 297.438545 54.360621 
L 297.844364 55.20846 
L 297.844364 55.20846 
L 298.656 56.544009 
L 298.656 56.544009 
L 300.279273 60.281703 
L 300.279273 60.281703 
L 301.090909 62.612421 
L 301.090909 62.612421 
L 301.496727 64.106731 
L 301.496727 64.106731 
L 302.308364 66.166649 
L 302.308364 66.166649 
L 302.714182 67.48469 
L 302.714182 67.48469 
L 303.12 69.197363 
L 303.12 69.197363 
L 303.931636 71.541265 
L 303.931636 71.541265 
L 307.178182 84.240916 
L 307.178182 84.240916 
L 307.584 86.584395 
L 307.584 86.584395 
L 308.395636 89.67202 
L 308.395636 89.67202 
L 308.801455 92.011235 
L 308.801455 92.011235 
L 309.613091 95.231614 
L 309.613091 95.231614 
L 310.018909 97.766754 
L 310.018909 97.766754 
L 310.830545 101.199931 
L 310.830545 101.199931 
L 311.236364 103.913427 
L 311.236364 103.913427 
L 311.642182 105.497519 
L 314.482909 119.778692 
L 314.482909 119.778692 
L 314.888727 121.710725 
L 314.888727 121.710725 
L 315.294545 124.50726 
L 315.294545 124.50726 
L 315.700364 126.171004 
L 315.700364 126.171004 
L 316.106182 128.451493 
L 316.106182 128.451493 
L 317.323636 133.76324 
L 317.323636 133.76324 
L 318.541091 138.952122 
L 318.541091 138.952122 
L 318.946909 141.660688 
L 318.946909 141.660688 
L 319.352727 142.977792 
L 319.352727 142.977792 
L 319.758545 145.357196 
L 319.758545 145.357196 
L 320.164364 146.521012 
L 320.164364 146.521012 
L 320.570182 148.742896 
L 320.570182 148.742896 
L 320.976 149.768788 
L 320.976 149.768788 
L 321.381818 151.97268 
L 321.381818 151.97268 
L 322.193455 154.067314 
L 322.193455 154.067314 
L 323.816727 159.423997 
L 323.816727 159.423997 
L 324.222545 161.074617 
L 324.222545 161.074617 
L 324.628364 162.216086 
L 324.628364 162.216086 
L 325.034182 164.014883 
L 325.034182 164.014883 
L 325.44 165.056862 
L 325.44 165.056862 
L 325.845818 166.903165 
L 325.845818 166.903165 
L 326.657455 168.759448 
L 326.657455 168.759448 
L 328.686545 174.926654 
L 328.686545 174.926654 
L 329.498182 176.423504 
L 329.498182 176.423504 
L 329.904 177.584175 
L 329.904 177.584175 
L 330.309818 178.300561 
L 330.309818 178.300561 
L 330.715636 179.58065 
L 330.715636 179.58065 
L 334.368 185.248685 
L 334.368 185.248685 
L 334.773818 185.649425 
L 334.773818 185.649425 
L 335.179636 186.22335 
L 335.179636 186.22335 
L 338.426182 188.821813 
L 338.426182 188.821813 
L 340.455273 189.72103 
L 340.455273 189.72103 
L 341.672727 190.026635 
L 341.672727 190.026635 
L 342.890182 190.20738 
L 342.890182 190.20738 
L 348.571636 190.301759 
L 348.571636 190.301759 
L 351.412364 190.047561 
L 351.412364 190.047561 
L 353.847273 189.548389 
L 353.847273 189.548389 
L 354.658909 189.135613 
L 354.658909 189.135613 
L 355.470545 188.790515 
L 355.470545 188.790515 
L 357.093818 187.591226 
L 357.093818 187.591226 
L 357.499636 187.219032 
L 357.499636 187.219032 
L 358.311273 186.102058 
L 358.311273 186.102058 
L 359.122909 184.835213 
L 359.122909 184.835213 
L 359.528727 184.149491 
L 359.528727 184.149491 
L 360.340364 182.295023 
L 360.340364 182.295023 
L 360.746182 181.417488 
L 363.181091 174.413542 
L 363.181091 174.413542 
L 363.992727 171.293378 
L 363.992727 171.293378 
L 364.804364 168.574681 
L 364.804364 168.574681 
L 367.239273 158.700444 
L 367.239273 158.700444 
L 367.645091 157.182034 
L 367.645091 157.182034 
L 368.456727 155.552914 
L 368.456727 155.552914 
L 369.268364 154.941401 
L 369.268364 154.941401 
L 370.08 155.216343 
L 370.08 155.216343 
L 372.514909 160.370237 
L 372.514909 160.370237 
L 373.732364 162.043991 
L 373.732364 162.043991 
L 375.355636 163.334906 
L 375.355636 163.334906 
L 376.167273 163.794735 
L 376.167273 163.794735 
L 378.602182 164.325205 
L 378.602182 164.325205 
L 380.631273 164.368842 
L 380.631273 164.368842 
L 386.718545 164.247791 
L 386.718545 164.247791 
L 389.559273 163.411746 
L 389.559273 163.411746 
L 390.776727 162.858384 
L 390.776727 162.858384 
L 391.588364 162.308076 
L 391.588364 162.308076 
L 392.805818 161.214477 
L 392.805818 161.214477 
L 394.429091 159.124984 
L 394.429091 159.124984 
L 395.240727 157.784263 
L 395.240727 157.784263 
L 395.646545 157.223251 
L 395.646545 157.223251 
L 396.458182 155.774694 
L 396.458182 155.774694 
L 397.269818 154.59981 
L 397.269818 154.59981 
L 398.081455 153.214183 
L 398.081455 153.214183 
L 398.487273 152.590301 
L 398.487273 152.590301 
" clip-path="url(#p291e1ddc2f)" style="fill: none; stroke: #1f77b4; stroke-width: 1.5; stroke-linecap: square"/>
   </g>
   <g id="line2d_38">
    <path d="M 73.832727 53.568 
L 73.832727 279.920448 
L 74.238545 274.472319 
L 74.238545 274.472319 
L 81.137455 248.497701 
L 81.137455 248.497701 
L 88.036364 221.602094 
L 88.036364 221.602094 
L 94.935273 193.752808 
L 94.935273 193.752808 
L 101.428364 166.640259 
L 101.428364 166.640259 
L 107.921455 138.623867 
L 107.921455 138.623867 
L 114.414545 109.673451 
L 114.414545 109.673451 
L 120.907636 79.757896 
L 120.907636 79.757896 
L 126.589091 53.568 
L 126.589091 53.568 
L 130.241455 53.582001 
L 130.241455 53.582001 
L 131.053091 56.899813 
L 131.053091 56.899813 
L 131.458909 56.99652 
L 131.458909 56.99652 
L 132.270545 59.733996 
L 132.270545 59.733996 
L 133.082182 64.576691 
L 133.082182 64.576691 
L 133.488 64.291316 
L 133.488 64.291316 
L 133.893818 66.192172 
L 133.893818 66.192172 
L 134.299636 69.198028 
L 134.299636 69.198028 
L 134.705455 73.442484 
L 134.705455 73.442484 
L 135.111273 73.251125 
L 135.111273 73.251125 
L 135.517091 76.188246 
L 135.517091 76.188246 
L 135.922909 80.702443 
L 135.922909 80.702443 
L 136.328727 87.152211 
L 136.328727 87.152211 
L 136.734545 86.082713 
L 136.734545 86.082713 
L 137.140364 90.226107 
L 137.140364 90.226107 
L 137.546182 96.852992 
L 137.952 97.003405 
L 137.952 97.003405 
L 138.357818 100.323909 
L 138.357818 100.323909 
L 138.763636 105.959163 
L 138.763636 105.959163 
L 139.169455 106.271179 
L 139.169455 106.271179 
L 139.575273 108.916574 
L 139.575273 108.916574 
L 139.981091 114.141835 
L 139.981091 114.141835 
L 140.386909 113.899582 
L 140.386909 113.899582 
L 140.792727 116.751033 
L 140.792727 116.751033 
L 141.198545 121.563124 
L 141.198545 121.563124 
L 141.604364 120.275444 
L 141.604364 120.275444 
L 142.010182 123.847514 
L 142.010182 123.847514 
L 142.416 123.986497 
L 142.416 123.986497 
L 142.821818 126.219237 
L 142.821818 126.219237 
L 143.633455 128.75223 
L 143.633455 128.75223 
L 144.039273 131.626179 
L 144.039273 131.626179 
L 144.445091 131.206902 
L 144.445091 131.206902 
L 144.850909 133.322462 
L 144.850909 133.322462 
L 145.256727 133.37892 
L 145.256727 133.37892 
L 145.662545 134.887745 
L 145.662545 134.887745 
L 146.068364 135.170882 
L 146.068364 135.170882 
L 146.474182 136.145215 
L 146.474182 136.145215 
L 147.285818 137.234127 
L 147.285818 137.234127 
L 148.097455 138.097812 
L 148.097455 138.097812 
L 148.503273 138.9015 
L 148.503273 138.9015 
L 148.909091 138.877913 
L 148.909091 138.877913 
L 149.314909 139.208527 
L 149.314909 139.208527 
L 150.532364 139.510866 
L 150.532364 139.510866 
L 150.938182 139.427434 
L 150.938182 139.427434 
L 152.155636 139.500585 
L 152.155636 139.500585 
L 152.561455 139.44452 
L 152.561455 139.44452 
L 152.967273 139.502157 
L 152.967273 139.502157 
L 153.373091 139.427857 
L 153.373091 139.427857 
L 154.184727 139.467079 
L 154.184727 139.467079 
L 155.402182 139.172723 
L 155.402182 139.172723 
L 157.025455 138.135279 
L 157.025455 138.135279 
L 157.431273 137.526155 
L 157.431273 137.526155 
L 157.837091 137.212021 
L 157.837091 137.212021 
L 159.054545 135.060234 
L 159.054545 135.060234 
L 159.460364 132.136872 
L 159.460364 132.136872 
L 159.866182 133.181725 
L 159.866182 133.181725 
L 160.272 129.665478 
L 160.272 129.665478 
L 160.677818 130.6119 
L 160.677818 130.6119 
L 161.083636 126.712119 
L 161.083636 126.712119 
L 161.489455 127.281024 
L 161.489455 127.281024 
L 161.895273 123.192818 
L 161.895273 123.192818 
L 162.301091 123.366244 
L 162.301091 123.366244 
L 162.706909 119.033124 
L 162.706909 119.033124 
L 163.112727 118.687481 
L 163.112727 118.687481 
L 163.518545 114.296845 
L 163.518545 114.296845 
L 163.924364 113.136899 
L 163.924364 113.136899 
L 164.330182 109.102913 
L 164.330182 109.102913 
L 165.141818 104.137626 
L 165.141818 104.137626 
L 168.794182 87.327845 
L 168.794182 87.327845 
L 169.2 87.175768 
L 169.2 87.175768 
L 170.011636 87.545241 
L 170.011636 87.545241 
L 170.417455 87.734634 
L 170.417455 87.734634 
L 172.446545 87.823781 
L 172.446545 87.823781 
L 172.852364 87.776153 
L 172.852364 87.776153 
L 173.258182 87.586428 
L 173.258182 87.586428 
L 173.664 87.725108 
L 173.664 87.725108 
L 174.069818 87.404534 
L 174.069818 87.404534 
L 174.475636 87.250612 
L 174.475636 87.250612 
L 174.881455 86.97316 
L 174.881455 86.97316 
L 175.287273 85.665946 
L 175.287273 85.665946 
L 175.693091 85.738794 
L 176.098909 84.783815 
L 176.504727 82.086165 
L 176.504727 82.086165 
L 176.910545 82.841016 
L 176.910545 82.841016 
L 177.316364 80.330581 
L 177.316364 80.330581 
L 177.722182 79.674676 
L 177.722182 79.674676 
L 178.128 77.911109 
L 178.128 77.911109 
L 178.533818 73.315143 
L 178.533818 73.315143 
L 178.939636 73.358417 
L 178.939636 73.358417 
L 179.345455 70.432183 
L 179.345455 70.432183 
L 179.751273 64.086984 
L 179.751273 64.086984 
L 180.157091 63.780139 
L 180.157091 63.780139 
L 180.562909 59.836782 
L 180.562909 59.836782 
L 180.968727 57.064591 
L 180.968727 57.064591 
L 181.780364 53.583211 
L 181.780364 53.583211 
L 182.186182 55.213056 
L 182.186182 55.213056 
L 182.592 57.50797 
L 182.592 57.50797 
L 182.997818 57.773205 
L 182.997818 57.773205 
L 184.215273 60.376445 
L 184.215273 60.376445 
L 184.621091 60.439677 
L 185.432727 60.957477 
L 185.432727 60.957477 
L 186.244364 60.827112 
L 186.244364 60.827112 
L 187.056 61.137465 
L 187.056 61.137465 
L 187.867636 60.534752 
L 187.867636 60.534752 
L 188.273455 60.97308 
L 188.273455 60.97308 
L 188.679273 60.643979 
L 188.679273 60.643979 
L 189.085091 60.120494 
L 189.085091 60.120494 
L 189.490909 58.851986 
L 189.490909 58.851986 
L 189.896727 59.099319 
L 189.896727 59.099319 
L 190.302545 58.500023 
L 190.302545 58.500023 
L 190.708364 56.786806 
L 190.708364 56.786806 
L 191.114182 54.359623 
L 191.114182 54.359623 
L 191.52 54.44868 
L 191.52 54.44868 
L 191.925818 53.568181 
L 221.550545 53.568 
L 221.550545 53.568 
L 221.956364 54.262945 
L 221.956364 54.262945 
L 222.768 60.576543 
L 222.768 60.576543 
L 223.173818 60.871565 
L 223.173818 60.871565 
L 223.985455 65.265709 
L 223.985455 65.265709 
L 224.797091 71.561133 
L 224.797091 71.561133 
L 225.202909 71.269438 
L 225.202909 71.269438 
L 225.608727 73.31215 
L 225.608727 73.31215 
L 226.420364 79.093735 
L 226.420364 79.093735 
L 226.826182 78.789279 
L 226.826182 78.789279 
L 227.232 80.497657 
L 227.232 80.497657 
L 227.637818 83.408016 
L 227.637818 83.408016 
L 228.043636 83.75384 
L 228.043636 83.75384 
L 228.855273 87.499971 
L 228.855273 87.499971 
L 229.261091 90.15211 
L 229.666909 89.824913 
L 229.666909 89.824913 
L 230.072727 91.367093 
L 230.072727 91.367093 
L 230.478545 93.690492 
L 230.478545 93.690492 
L 230.884364 93.621969 
L 230.884364 93.621969 
L 231.290182 94.965441 
L 231.290182 94.965441 
L 231.696 97.153759 
L 231.696 97.153759 
L 232.101818 97.15769 
L 232.101818 97.15769 
L 232.507636 98.197341 
L 232.507636 98.197341 
L 232.913455 100.081837 
L 232.913455 100.081837 
L 233.319273 100.039592 
L 233.319273 100.039592 
L 233.725091 100.986437 
L 233.725091 100.986437 
L 234.130909 102.407414 
L 234.130909 102.407414 
L 234.536727 102.391901 
L 234.536727 102.391901 
L 235.348364 104.330406 
L 235.348364 104.330406 
L 235.754182 104.231673 
L 235.754182 104.231673 
L 236.16 105.024959 
L 236.16 105.024959 
L 236.565818 105.241598 
L 236.565818 105.241598 
L 236.971636 105.586606 
L 236.971636 105.586606 
L 237.377455 106.223158 
L 237.377455 106.223158 
L 237.783273 106.282973 
L 237.783273 106.282973 
L 238.594909 106.895635 
L 238.594909 106.895635 
L 239.000727 106.898478 
L 239.812364 107.167674 
L 239.812364 107.167674 
L 243.464727 107.279199 
L 243.464727 107.279199 
L 243.870545 107.20239 
L 243.870545 107.20239 
L 244.276364 107.282163 
L 244.276364 107.282163 
L 244.682182 107.178228 
L 244.682182 107.178228 
L 245.088 107.229455 
L 245.088 107.229455 
L 245.493818 107.107073 
L 245.899636 106.859196 
L 245.899636 106.859196 
L 246.305455 106.931621 
L 246.305455 106.931621 
L 246.711273 106.710052 
L 246.711273 106.710052 
L 247.117091 106.261593 
L 247.117091 106.261593 
L 247.522909 106.423407 
L 247.522909 106.423407 
L 247.928727 106.009875 
L 248.334545 106.011357 
L 248.334545 106.011357 
L 248.740364 105.698645 
L 248.740364 105.698645 
L 249.146182 105.011472 
L 249.146182 105.011472 
L 249.552 105.128349 
L 249.957818 104.608191 
L 249.957818 104.608191 
L 250.363636 103.665126 
L 250.363636 103.665126 
L 250.769455 103.984612 
L 250.769455 103.984612 
L 251.175273 103.132993 
L 251.175273 103.132993 
L 251.581091 103.097884 
L 251.581091 103.097884 
L 251.986909 102.521994 
L 251.986909 102.521994 
L 252.392727 101.209578 
L 252.392727 101.209578 
L 252.798545 101.389113 
L 252.798545 101.389113 
L 253.204364 100.447802 
L 253.204364 100.447802 
L 253.610182 98.791739 
L 253.610182 98.791739 
L 254.016 99.271103 
L 254.016 99.271103 
L 254.421818 97.8331 
L 254.421818 97.8331 
L 254.827636 97.655168 
L 254.827636 97.655168 
L 255.233455 96.686883 
L 255.233455 96.686883 
L 255.639273 94.654392 
L 255.639273 94.654392 
L 256.045091 94.716143 
L 256.450909 93.409351 
L 256.450909 93.409351 
L 256.856727 90.794619 
L 256.856727 90.794619 
L 257.262545 91.151058 
L 257.262545 91.151058 
L 257.668364 89.319694 
L 257.668364 89.319694 
L 258.074182 86.207484 
L 258.074182 86.207484 
L 258.48 86.870707 
L 258.48 86.870707 
L 258.885818 84.505244 
L 258.885818 84.505244 
L 259.291636 80.863985 
L 259.291636 80.863985 
L 259.697455 81.766981 
L 259.697455 81.766981 
L 260.103273 78.895603 
L 260.103273 78.895603 
L 260.509091 74.527707 
L 260.509091 74.527707 
L 260.914909 75.712419 
L 260.914909 75.712419 
L 261.320727 72.603929 
L 261.320727 72.603929 
L 261.726545 67.889573 
L 261.726545 67.889573 
L 262.132364 68.608922 
L 262.132364 68.608922 
L 262.538182 65.47881 
L 262.538182 65.47881 
L 262.944 61.306356 
L 262.944 61.306356 
L 263.349818 60.360569 
L 263.755636 57.516044 
L 263.755636 57.516044 
L 264.567273 53.615779 
L 264.567273 53.615779 
L 265.784727 53.568 
L 265.784727 53.568 
L 296.221091 53.568 
L 296.221091 53.568 
L 296.626909 54.193545 
L 296.626909 54.193545 
L 297.438545 56.823669 
L 297.438545 56.823669 
L 297.844364 56.922584 
L 297.844364 56.922584 
L 298.656 59.108754 
L 298.656 59.108754 
L 299.061818 60.615855 
L 299.061818 60.615855 
L 299.467636 60.962345 
L 299.467636 60.962345 
L 300.279273 63.28266 
L 300.279273 63.28266 
L 301.090909 66.953464 
L 301.090909 66.953464 
L 301.496727 66.882914 
L 302.308364 69.995729 
L 302.308364 69.995729 
L 302.714182 72.460168 
L 302.714182 72.460168 
L 303.12 72.432861 
L 303.12 72.432861 
L 303.525818 73.884804 
L 303.525818 73.884804 
L 304.337455 78.826776 
L 304.337455 78.826776 
L 304.743273 78.555947 
L 304.743273 78.555947 
L 305.149091 80.156339 
L 305.149091 80.156339 
L 305.554909 83.073259 
L 305.554909 83.073259 
L 305.960727 83.58504 
L 305.960727 83.58504 
L 306.366545 85.288883 
L 306.366545 85.288883 
L 306.772364 87.727648 
L 306.772364 87.727648 
L 307.178182 91.048938 
L 307.178182 91.048938 
L 307.584 90.699182 
L 307.584 90.699182 
L 307.989818 92.855838 
L 307.989818 92.855838 
L 308.395636 96.467613 
L 308.395636 96.467613 
L 308.801455 96.3853 
L 308.801455 96.3853 
L 309.207273 98.49832 
L 309.207273 98.49832 
L 309.613091 102.596384 
L 309.613091 102.596384 
L 310.018909 102.333901 
L 310.018909 102.333901 
L 310.424727 104.74542 
L 310.424727 104.74542 
L 310.830545 109.082894 
L 310.830545 109.082894 
L 311.236364 108.51535 
L 311.236364 108.51535 
L 311.642182 111.642045 
L 311.642182 111.642045 
L 312.048 112.812061 
L 312.048 112.812061 
L 312.453818 114.87083 
L 312.453818 114.87083 
L 312.859636 119.129167 
L 312.859636 119.129167 
L 313.265455 119.119913 
L 313.265455 119.119913 
L 313.671273 121.889504 
L 313.671273 121.889504 
L 314.482909 125.391387 
L 314.482909 125.391387 
L 314.888727 129.834943 
L 314.888727 129.834943 
L 315.294545 129.34058 
L 315.294545 129.34058 
L 315.700364 132.796044 
L 315.700364 132.796044 
L 316.106182 133.222307 
L 316.106182 133.222307 
L 316.512 135.843087 
L 316.512 135.843087 
L 316.917818 136.983679 
L 316.917818 136.983679 
L 317.729455 140.526809 
L 317.729455 140.526809 
L 318.135273 142.134216 
L 318.135273 142.134216 
L 318.541091 146.820691 
L 318.541091 146.820691 
L 318.946909 145.486956 
L 318.946909 145.486956 
L 319.352727 149.890232 
L 319.352727 149.890232 
L 319.758545 148.738149 
L 319.758545 148.738149 
L 320.164364 152.97574 
L 320.164364 152.97574 
L 320.570182 151.7232 
L 320.570182 151.7232 
L 320.976 156.171322 
L 320.976 156.171322 
L 321.381818 154.755727 
L 321.381818 154.755727 
L 322.599273 158.993742 
L 322.599273 158.993742 
L 323.005091 161.141871 
L 323.005091 161.141871 
L 323.410909 161.805306 
L 323.410909 161.805306 
L 323.816727 164.219154 
L 323.816727 164.219154 
L 324.222545 164.390675 
L 324.222545 164.390675 
L 324.628364 167.4418 
L 324.628364 167.4418 
L 325.034182 167.041846 
L 325.44 170.420592 
L 325.44 170.420592 
L 325.845818 169.546988 
L 325.845818 169.546988 
L 326.251636 170.562054 
L 326.251636 170.562054 
L 326.657455 172.307265 
L 327.063273 172.76646 
L 327.063273 172.76646 
L 327.469091 175.31672 
L 327.469091 175.31672 
L 327.874909 175.07232 
L 327.874909 175.07232 
L 328.280727 177.929819 
L 328.280727 177.929819 
L 328.686545 177.228523 
L 328.686545 177.228523 
L 329.092364 177.765585 
L 329.092364 177.765585 
L 329.498182 179.795385 
L 329.498182 179.795385 
L 329.904 179.665353 
L 329.904 179.665353 
L 330.309818 182.019355 
L 330.309818 182.019355 
L 330.715636 181.437749 
L 330.715636 181.437749 
L 331.121455 181.860051 
L 331.121455 181.860051 
L 331.527273 183.452913 
L 331.527273 183.452913 
L 331.933091 183.265515 
L 331.933091 183.265515 
L 332.338909 183.765987 
L 332.338909 183.765987 
L 332.744727 184.874556 
L 332.744727 184.874556 
L 333.150545 184.991796 
L 333.150545 184.991796 
L 333.556364 186.371738 
L 333.556364 186.371738 
L 333.962182 186.06208 
L 333.962182 186.06208 
L 334.368 186.412864 
L 334.368 186.412864 
L 334.773818 187.316708 
L 334.773818 187.316708 
L 335.179636 187.187008 
L 335.179636 187.187008 
L 335.585455 187.384355 
L 335.585455 187.384355 
L 335.991273 188.230742 
L 335.991273 188.230742 
L 336.397091 188.200895 
L 336.397091 188.200895 
L 336.802909 188.412787 
L 336.802909 188.412787 
L 337.208727 188.876064 
L 337.208727 188.876064 
L 337.614545 188.883684 
L 338.020364 189.517514 
L 338.020364 189.517514 
L 338.426182 189.385456 
L 338.426182 189.385456 
L 339.643636 189.848824 
L 339.643636 189.848824 
L 340.455273 190.129784 
L 340.455273 190.129784 
L 341.266909 190.156818 
L 341.266909 190.156818 
L 341.672727 190.287243 
L 341.672727 190.287243 
L 343.701818 190.289269 
L 343.701818 190.289269 
L 344.107636 190.234323 
L 344.107636 190.234323 
L 344.919273 190.361634 
L 344.919273 190.361634 
L 345.730909 190.202692 
L 345.730909 190.202692 
L 346.136727 190.332422 
L 346.136727 190.332422 
L 346.948364 190.144601 
L 346.948364 190.144601 
L 347.76 190.330366 
L 347.76 190.330366 
L 348.165818 190.252044 
L 348.571636 190.024155 
L 348.571636 190.024155 
L 348.977455 190.231511 
L 349.383273 190.109946 
L 349.383273 190.109946 
L 349.789091 189.666719 
L 350.194909 189.953908 
L 350.194909 189.953908 
L 350.600727 189.97683 
L 350.600727 189.97683 
L 351.006545 188.946613 
L 351.006545 188.946613 
L 351.818182 189.531757 
L 351.818182 189.531757 
L 352.224 189.225305 
L 352.224 189.225305 
L 352.629818 188.426213 
L 352.629818 188.426213 
L 353.035636 188.790847 
L 353.035636 188.790847 
L 353.441455 188.579621 
L 353.441455 188.579621 
L 353.847273 186.88987 
L 354.253091 187.513933 
L 354.253091 187.513933 
L 354.658909 187.479762 
L 354.658909 187.479762 
L 355.064727 186.920685 
L 355.064727 186.920685 
L 355.470545 185.850158 
L 355.470545 185.850158 
L 355.876364 185.872778 
L 355.876364 185.872778 
L 356.282182 185.127695 
L 356.282182 185.127695 
L 356.688 183.79151 
L 356.688 183.79151 
L 357.093818 183.582279 
L 357.499636 180.378775 
L 357.499636 180.378775 
L 357.905455 181.392813 
L 357.905455 181.392813 
L 358.311273 180.26353 
L 358.311273 180.26353 
L 358.717091 177.753096 
L 358.717091 177.753096 
L 359.122909 177.449124 
L 359.122909 177.449124 
L 359.528727 172.926248 
L 359.528727 172.926248 
L 359.934545 174.355692 
L 359.934545 174.355692 
L 360.340364 172.842816 
L 360.340364 172.842816 
L 360.746182 168.656148 
L 360.746182 168.656148 
L 361.152 169.53586 
L 361.152 169.53586 
L 361.557818 167.819347 
L 361.557818 167.819347 
L 361.963636 162.884935 
L 361.963636 162.884935 
L 362.369455 164.429292 
L 362.369455 164.429292 
L 362.775273 162.675886 
L 362.775273 162.675886 
L 363.181091 156.012985 
L 363.181091 156.012985 
L 363.586909 157.497558 
L 363.586909 157.497558 
L 363.992727 157.114356 
L 363.992727 157.114356 
L 364.398545 154.87197 
L 364.398545 154.87197 
L 364.804364 150.045091 
L 364.804364 150.045091 
L 365.210182 150.538517 
L 365.210182 150.538517 
L 366.021818 145.064291 
L 366.021818 145.064291 
L 366.427636 143.295795 
L 366.427636 143.295795 
L 366.833455 143.681537 
L 366.833455 143.681537 
L 367.239273 142.34511 
L 367.239273 142.34511 
L 367.645091 148.687799 
L 367.645091 148.687799 
L 368.050909 147.33976 
L 368.050909 147.33976 
L 368.456727 152.461902 
L 368.456727 152.461902 
L 368.862545 151.770102 
L 368.862545 151.770102 
L 369.268364 155.371504 
L 369.268364 155.371504 
L 369.674182 155.458081 
L 369.674182 155.458081 
L 370.08 157.794787 
L 370.08 157.794787 
L 370.485818 158.284161 
L 370.485818 158.284161 
L 370.891636 159.931454 
L 370.891636 159.931454 
L 371.297455 160.283236 
L 371.297455 160.283236 
L 371.703273 161.605269 
L 371.703273 161.605269 
L 372.109091 161.610349 
L 372.109091 161.610349 
L 372.514909 162.017893 
L 372.514909 162.017893 
L 372.920727 162.876226 
L 372.920727 162.876226 
L 373.326545 162.880701 
L 373.326545 162.880701 
L 373.732364 163.085124 
L 373.732364 163.085124 
L 374.138182 163.743539 
L 374.138182 163.743539 
L 374.544 163.632195 
L 374.949818 163.728207 
L 375.355636 164.18468 
L 375.355636 164.18468 
L 376.167273 164.083225 
L 376.167273 164.083225 
L 377.790545 164.447919 
L 377.790545 164.447919 
L 378.602182 164.409242 
L 378.602182 164.409242 
L 379.008 164.425753 
L 379.008 164.425753 
L 379.413818 164.29929 
L 379.413818 164.29929 
L 381.442909 164.468241 
L 381.442909 164.468241 
L 381.848727 164.219577 
L 381.848727 164.219577 
L 382.254545 164.383478 
L 382.254545 164.383478 
L 383.066182 164.323482 
L 383.066182 164.323482 
L 383.472 164.583909 
L 383.472 164.583909 
L 383.877818 164.415472 
L 383.877818 164.415472 
L 384.283636 164.085674 
L 384.283636 164.085674 
L 384.689455 164.456054 
L 384.689455 164.456054 
L 385.095273 164.145731 
L 385.095273 164.145731 
L 385.501091 163.641751 
L 385.501091 163.641751 
L 385.906909 163.893892 
L 385.906909 163.893892 
L 386.312727 163.799785 
L 386.312727 163.799785 
L 386.718545 163.083067 
L 386.718545 163.083067 
L 387.124364 163.433125 
L 387.124364 163.433125 
L 387.530182 163.413621 
L 387.530182 163.413621 
L 387.936 162.179496 
L 387.936 162.179496 
L 388.341818 162.653689 
L 388.747636 162.596143 
L 388.747636 162.596143 
L 389.153455 161.311064 
L 389.153455 161.311064 
L 389.559273 161.791033 
L 389.559273 161.791033 
L 390.776727 160.287258 
L 390.776727 160.287258 
L 391.182545 159.263483 
L 391.182545 159.263483 
L 391.588364 158.884908 
L 391.588364 158.884908 
L 391.994182 157.83168 
L 391.994182 157.83168 
L 392.4 157.406203 
L 392.4 157.406203 
L 392.805818 155.999166 
L 392.805818 155.999166 
L 393.211636 155.648654 
L 393.211636 155.648654 
L 393.617455 153.770296 
L 393.617455 153.770296 
L 394.023273 153.934711 
L 394.023273 153.934711 
L 394.429091 151.054381 
L 394.429091 151.054381 
L 394.834909 152.005127 
L 395.240727 151.741253 
L 395.240727 151.741253 
L 395.646545 148.606756 
L 395.646545 148.606756 
L 396.052364 149.436844 
L 396.052364 149.436844 
L 396.458182 149.564789 
L 396.864 148.753178 
L 396.864 148.753178 
L 397.269818 146.351033 
L 397.269818 146.351033 
L 397.675636 147.157716 
L 397.675636 147.157716 
L 398.081455 146.494099 
L 398.081455 146.494099 
L 398.487273 143.098842 
L 398.487273 143.098842 
" clip-path="url(#p291e1ddc2f)" style="fill: none; stroke: #ff7f0e; stroke-width: 1.5; stroke-linecap: square"/>
   </g>
   <g id="patch_3">
    <path d="M 57.6 307.584 
L 57.6 41.472 
" style="fill: none; stroke: #000000; stroke-width: 0.8; stroke-linejoin: miter; stroke-linecap: square"/>
   </g>
   <g id="patch_4">
    <path d="M 414.72 307.584 
L 414.72 41.472 
" style="fill: none; stroke: #000000; stroke-width: 0.8; stroke-linejoin: miter; stroke-linecap: square"/>
   </g>
   <g id="patch_5">
    <path d="M 57.6 307.584 
L 414.72 307.584 
" style="fill: none; stroke: #000000; stroke-width: 0.8; stroke-linejoin: miter; stroke-linecap: square"/>
   </g>
   <g id="patch_6">
    <path d="M 57.6 41.472 
L 414.72 41.472 
" style="fill: none; stroke: #000000; stroke-width: 0.8; stroke-linejoin: miter; stroke-linecap: square"/>
   </g>
   <g id="text_21">
    <!-- Actual speed vs Expected speed -->
    <g transform="translate(138.808125 35.472) scale(0.12 -0.12)">
     <defs>
      <path id="DejaVuSans-41" d="M 2188 4044 
L 1331 1722 
L 3047 1722 
L 2188 4044 
z
M 1831 4666 
L 2547 4666 
L 4325 0 
L 3669 0 
L 3244 1197 
L 1141 1197 
L 716 0 
L 50 0 
L 1831 4666 
z
" transform="scale(0.015625)"/>
      <path id="DejaVuSans-75" d="M 544 1381 
L 544 3500 
L 1119 3500 
L 1119 1403 
Q 1119 906 1312 657 
Q 1506 409 1894 409 
Q 2359 409 2629 706 
Q 2900 1003 2900 1516 
L 2900 3500 
L 3475 3500 
L 3475 0 
L 2900 0 
L 2900 538 
Q 2691 219 2414 64 
Q 2138 -91 1772 -91 
Q 1169 -91 856 284 
Q 544 659 544 1381 
z
M 1991 3584 
L 1991 3584 
z
" transform="scale(0.015625)"/>
      <path id="DejaVuSans-61" d="M 2194 1759 
Q 1497 1759 1228 1600 
Q 959 1441 959 1056 
Q 959 750 1161 570 
Q 1363 391 1709 391 
Q 2188 391 2477 730 
Q 2766 1069 2766 1631 
L 2766 1759 
L 2194 1759 
z
M 3341 1997 
L 3341 0 
L 2766 0 
L 2766 531 
Q 2569 213 2275 61 
Q 1981 -91 1556 -91 
Q 1019 -91 701 211 
Q 384 513 384 1019 
Q 384 1609 779 1909 
Q 1175 2209 1959 2209 
L 2766 2209 
L 2766 2266 
Q 2766 2663 2505 2880 
Q 2244 3097 1772 3097 
Q 1472 3097 1187 3025 
Q 903 2953 641 2809 
L 641 3341 
Q 956 3463 1253 3523 
Q 1550 3584 1831 3584 
Q 2591 3584 2966 3190 
Q 3341 2797 3341 1997 
z
" transform="scale(0.015625)"/>
      <path id="DejaVuSans-20" transform="scale(0.015625)"/>
      <path id="DejaVuSans-70" d="M 1159 525 
L 1159 -1331 
L 581 -1331 
L 581 3500 
L 1159 3500 
L 1159 2969 
Q 1341 3281 1617 3432 
Q 1894 3584 2278 3584 
Q 2916 3584 3314 3078 
Q 3713 2572 3713 1747 
Q 3713 922 3314 415 
Q 2916 -91 2278 -91 
Q 1894 -91 1617 61 
Q 1341 213 1159 525 
z
M 3116 1747 
Q 3116 2381 2855 2742 
Q 2594 3103 2138 3103 
Q 1681 3103 1420 2742 
Q 1159 2381 1159 1747 
Q 1159 1113 1420 752 
Q 1681 391 2138 391 
Q 2594 391 2855 752 
Q 3116 1113 3116 1747 
z
" transform="scale(0.015625)"/>
      <path id="DejaVuSans-64" d="M 2906 2969 
L 2906 4863 
L 3481 4863 
L 3481 0 
L 2906 0 
L 2906 525 
Q 2725 213 2448 61 
Q 2172 -91 1784 -91 
Q 1150 -91 751 415 
Q 353 922 353 1747 
Q 353 2572 751 3078 
Q 1150 3584 1784 3584 
Q 2172 3584 2448 3432 
Q 2725 3281 2906 2969 
z
M 947 1747 
Q 947 1113 1208 752 
Q 1469 391 1925 391 
Q 2381 391 2643 752 
Q 2906 1113 2906 1747 
Q 2906 2381 2643 2742 
Q 2381 3103 1925 3103 
Q 1469 3103 1208 2742 
Q 947 2381 947 1747 
z
" transform="scale(0.015625)"/>
      <path id="DejaVuSans-76" d="M 191 3500 
L 800 3500 
L 1894 563 
L 2988 3500 
L 3597 3500 
L 2284 0 
L 1503 0 
L 191 3500 
z
" transform="scale(0.015625)"/>
      <path id="DejaVuSans-45" d="M 628 4666 
L 3578 4666 
L 3578 4134 
L 1259 4134 
L 1259 2753 
L 3481 2753 
L 3481 2222 
L 1259 2222 
L 1259 531 
L 3634 531 
L 3634 0 
L 628 0 
L 628 4666 
z
" transform="scale(0.015625)"/>
      <path id="DejaVuSans-78" d="M 3513 3500 
L 2247 1797 
L 3578 0 
L 2900 0 
L 1881 1375 
L 863 0 
L 184 0 
L 1544 1831 
L 300 3500 
L 978 3500 
L 1906 2253 
L 2834 3500 
L 3513 3500 
z
" transform="scale(0.015625)"/>
     </defs>
     <use xlink:href="#DejaVuSans-41"/>
     <use xlink:href="#DejaVuSans-63" x="66.658203"/>
     <use xlink:href="#DejaVuSans-74" x="121.638672"/>
     <use xlink:href="#DejaVuSans-75" x="160.847656"/>
     <use xlink:href="#DejaVuSans-61" x="224.226562"/>
     <use xlink:href="#DejaVuSans-6c" x="285.505859"/>
     <use xlink:href="#DejaVuSans-20" x="313.289062"/>
     <use xlink:href="#DejaVuSans-73" x="345.076172"/>
     <use xlink:href="#DejaVuSans-70" x="397.175781"/>
     <use xlink:href="#DejaVuSans-65" x="460.652344"/>
     <use xlink:href="#DejaVuSans-65" x="522.175781"/>
     <use xlink:href="#DejaVuSans-64" x="583.699219"/>
     <use xlink:href="#DejaVuSans-20" x="647.175781"/>
     <use xlink:href="#DejaVuSans-76" x="678.962891"/>
     <use xlink:href="#DejaVuSans-73" x="738.142578"/>
     <use xlink:href="#DejaVuSans-20" x="790.242188"/>
     <use xlink:href="#DejaVuSans-45" x="822.029297"/>
     <use xlink:href="#DejaVuSans-78" x="885.212891"/>
     <use xlink:href="#DejaVuSans-70" x="944.392578"/>
     <use xlink:href="#DejaVuSans-65" x="1007.869141"/>
     <use xlink:href="#DejaVuSans-63" x="1069.392578"/>
     <use xlink:href="#DejaVuSans-74" x="1124.373047"/>
     <use xlink:href="#DejaVuSans-65" x="1163.582031"/>
     <use xlink:href="#DejaVuSans-64" x="1225.105469"/>
     <use xlink:href="#DejaVuSans-20" x="1288.582031"/>
     <use xlink:href="#DejaVuSans-73" x="1320.369141"/>
     <use xlink:href="#DejaVuSans-70" x="1372.46875"/>
     <use xlink:href="#DejaVuSans-65" x="1435.945312"/>
     <use xlink:href="#DejaVuSans-65" x="1497.46875"/>
     <use xlink:href="#DejaVuSans-64" x="1558.992188"/>
    </g>
   </g>
   <g id="legend_1">
    <g id="patch_7">
     <path d="M 295.67 302.584 
L 407.72 302.584 
Q 409.72 302.584 409.72 300.584 
L 409.72 272.22775 
Q 409.72 270.22775 407.72 270.22775 
L 295.67 270.22775 
Q 293.67 270.22775 293.67 272.22775 
L 293.67 300.584 
Q 293.67 302.584 295.67 302.584 
z
" style="fill: #ffffff; opacity: 0.8; stroke: #cccccc; stroke-linejoin: miter"/>
    </g>
    <g id="line2d_39">
     <path d="M 297.67 278.326187 
L 307.67 278.326187 
L 317.67 278.326187 
" style="fill: none; stroke: #1f77b4; stroke-width: 1.5; stroke-linecap: square"/>
    </g>
    <g id="text_22">
     <!-- Actual speed -->
     <g transform="translate(325.67 281.826187) scale(0.1 -0.1)">
      <use xlink:href="#DejaVuSans-41"/>
      <use xlink:href="#DejaVuSans-63" x="66.658203"/>
      <use xlink:href="#DejaVuSans-74" x="121.638672"/>
      <use xlink:href="#DejaVuSans-75" x="160.847656"/>
      <use xlink:href="#DejaVuSans-61" x="224.226562"/>
      <use xlink:href="#DejaVuSans-6c" x="285.505859"/>
      <use xlink:href="#DejaVuSans-20" x="313.289062"/>
      <use xlink:href="#DejaVuSans-73" x="345.076172"/>
      <use xlink:href="#DejaVuSans-70" x="397.175781"/>
      <use xlink:href="#DejaVuSans-65" x="460.652344"/>
      <use xlink:href="#DejaVuSans-65" x="522.175781"/>
      <use xlink:href="#DejaVuSans-64" x="583.699219"/>
     </g>
    </g>
    <g id="line2d_40">
     <path d="M 297.67 293.004312 
L 307.67 293.004312 
L 317.67 293.004312 
" style="fill: none; stroke: #ff7f0e; stroke-width: 1.5; stroke-linecap: square"/>
    </g>
    <g id="text_23">
     <!-- Expected speed -->
     <g transform="translate(325.67 296.504312) scale(0.1 -0.1)">
      <use xlink:href="#DejaVuSans-45"/>
      <use xlink:href="#DejaVuSans-78" x="63.183594"/>
      <use xlink:href="#DejaVuSans-70" x="122.363281"/>
      <use xlink:href="#DejaVuSans-65" x="185.839844"/>
      <use xlink:href="#DejaVuSans-63" x="247.363281"/>
      <use xlink:href="#DejaVuSans-74" x="302.34375"/>
      <use xlink:href="#DejaVuSans-65" x="341.552734"/>
      <use xlink:href="#DejaVuSans-64" x="403.076172"/>
      <use xlink:href="#DejaVuSans-20" x="466.552734"/>
      <use xlink:href="#DejaVuSans-73" x="498.339844"/>
      <use xlink:href="#DejaVuSans-70" x="550.439453"/>
      <use xlink:href="#DejaVuSans-65" x="613.916016"/>
      <use xlink:href="#DejaVuSans-65" x="675.439453"/>
      <use xlink:href="#DejaVuSans-64" x="736.962891"/>
     </g>
    </g>
   </g>
  </g>
 </g>
 <defs>
  <clipPath id="p291e1ddc2f">
   <rect x="57.6" y="41.472" width="357.12" height="266.112"/>
  </clipPath>
 </defs>
</svg>
