<?xml version="1.0" encoding="utf-8" standalone="no"?>
<!DOCTYPE svg PUBLIC "-//W3C//DTD SVG 1.1//EN"
  "http://www.w3.org/Graphics/SVG/1.1/DTD/svg11.dtd">
<svg xmlns:xlink="http://www.w3.org/1999/xlink" width="460.8pt" height="345.6pt" viewBox="0 0 460.8 345.6" xmlns="http://www.w3.org/2000/svg" version="1.1">
 <metadata>
  <rdf:RDF xmlns:dc="http://purl.org/dc/elements/1.1/" xmlns:cc="http://creativecommons.org/ns#" xmlns:rdf="http://www.w3.org/1999/02/22-rdf-syntax-ns#">
   <cc:Work>
    <dc:type rdf:resource="http://purl.org/dc/dcmitype/StillImage"/>
    <dc:date>2024-01-30T20:58:28.080172</dc:date>
    <dc:format>image/svg+xml</dc:format>
    <dc:creator>
     <cc:Agent>
      <dc:title>Matplotlib v3.7.1, https://matplotlib.org/</dc:title>
     </cc:Agent>
    </dc:creator>
   </cc:Work>
  </rdf:RDF>
 </metadata>
 <defs>
  <style type="text/css">*{stroke-linejoin: round; stroke-linecap: butt}</style>
 </defs>
 <g id="figure_1">
  <g id="patch_1">
   <path d="M 0 345.6 
L 460.8 345.6 
L 460.8 0 
L 0 0 
z
" style="fill: #ffffff"/>
  </g>
  <g id="axes_1">
   <g id="patch_2">
    <path d="M 57.6 307.584 
L 414.72 307.584 
L 414.72 41.472 
L 57.6 41.472 
z
" style="fill: #ffffff"/>
   </g>
   <g id="matplotlib.axis_1">
    <g id="xtick_1">
     <g id="line2d_1">
      <path d="M 73.832727 307.584 
L 73.832727 41.472 
" clip-path="url(#p4d9d85ba20)" style="fill: none; stroke: #b0b0b0; stroke-width: 0.8; stroke-linecap: square"/>
     </g>
     <g id="line2d_2">
      <defs>
       <path id="m164197c849" d="M 0 0 
L 0 3.5 
" style="stroke: #000000; stroke-width: 0.8"/>
      </defs>
      <g>
       <use xlink:href="#m164197c849" x="73.832727" y="307.584" style="stroke: #000000; stroke-width: 0.8"/>
      </g>
     </g>
     <g id="text_1">
      <!-- 0 -->
      <g transform="translate(70.651477 322.182437) scale(0.1 -0.1)">
       <defs>
        <path id="DejaVuSans-30" d="M 2034 4250 
Q 1547 4250 1301 3770 
Q 1056 3291 1056 2328 
Q 1056 1369 1301 889 
Q 1547 409 2034 409 
Q 2525 409 2770 889 
Q 3016 1369 3016 2328 
Q 3016 3291 2770 3770 
Q 2525 4250 2034 4250 
z
M 2034 4750 
Q 2819 4750 3233 4129 
Q 3647 3509 3647 2328 
Q 3647 1150 3233 529 
Q 2819 -91 2034 -91 
Q 1250 -91 836 529 
Q 422 1150 422 2328 
Q 422 3509 836 4129 
Q 1250 4750 2034 4750 
z
" transform="scale(0.015625)"/>
       </defs>
       <use xlink:href="#DejaVuSans-30"/>
      </g>
     </g>
    </g>
    <g id="xtick_2">
     <g id="line2d_3">
      <path d="M 113.814814 307.584 
L 113.814814 41.472 
" clip-path="url(#p4d9d85ba20)" style="fill: none; stroke: #b0b0b0; stroke-width: 0.8; stroke-linecap: square"/>
     </g>
     <g id="line2d_4">
      <g>
       <use xlink:href="#m164197c849" x="113.814814" y="307.584" style="stroke: #000000; stroke-width: 0.8"/>
      </g>
     </g>
     <g id="text_2">
      <!-- 2 -->
      <g transform="translate(110.633564 322.182437) scale(0.1 -0.1)">
       <defs>
        <path id="DejaVuSans-32" d="M 1228 531 
L 3431 531 
L 3431 0 
L 469 0 
L 469 531 
Q 828 903 1448 1529 
Q 2069 2156 2228 2338 
Q 2531 2678 2651 2914 
Q 2772 3150 2772 3378 
Q 2772 3750 2511 3984 
Q 2250 4219 1831 4219 
Q 1534 4219 1204 4116 
Q 875 4013 500 3803 
L 500 4441 
Q 881 4594 1212 4672 
Q 1544 4750 1819 4750 
Q 2544 4750 2975 4387 
Q 3406 4025 3406 3419 
Q 3406 3131 3298 2873 
Q 3191 2616 2906 2266 
Q 2828 2175 2409 1742 
Q 1991 1309 1228 531 
z
" transform="scale(0.015625)"/>
       </defs>
       <use xlink:href="#DejaVuSans-32"/>
      </g>
     </g>
    </g>
    <g id="xtick_3">
     <g id="line2d_5">
      <path d="M 153.796901 307.584 
L 153.796901 41.472 
" clip-path="url(#p4d9d85ba20)" style="fill: none; stroke: #b0b0b0; stroke-width: 0.8; stroke-linecap: square"/>
     </g>
     <g id="line2d_6">
      <g>
       <use xlink:href="#m164197c849" x="153.796901" y="307.584" style="stroke: #000000; stroke-width: 0.8"/>
      </g>
     </g>
     <g id="text_3">
      <!-- 4 -->
      <g transform="translate(150.615651 322.182437) scale(0.1 -0.1)">
       <defs>
        <path id="DejaVuSans-34" d="M 2419 4116 
L 825 1625 
L 2419 1625 
L 2419 4116 
z
M 2253 4666 
L 3047 4666 
L 3047 1625 
L 3713 1625 
L 3713 1100 
L 3047 1100 
L 3047 0 
L 2419 0 
L 2419 1100 
L 313 1100 
L 313 1709 
L 2253 4666 
z
" transform="scale(0.015625)"/>
       </defs>
       <use xlink:href="#DejaVuSans-34"/>
      </g>
     </g>
    </g>
    <g id="xtick_4">
     <g id="line2d_7">
      <path d="M 193.778988 307.584 
L 193.778988 41.472 
" clip-path="url(#p4d9d85ba20)" style="fill: none; stroke: #b0b0b0; stroke-width: 0.8; stroke-linecap: square"/>
     </g>
     <g id="line2d_8">
      <g>
       <use xlink:href="#m164197c849" x="193.778988" y="307.584" style="stroke: #000000; stroke-width: 0.8"/>
      </g>
     </g>
     <g id="text_4">
      <!-- 6 -->
      <g transform="translate(190.597738 322.182437) scale(0.1 -0.1)">
       <defs>
        <path id="DejaVuSans-36" d="M 2113 2584 
Q 1688 2584 1439 2293 
Q 1191 2003 1191 1497 
Q 1191 994 1439 701 
Q 1688 409 2113 409 
Q 2538 409 2786 701 
Q 3034 994 3034 1497 
Q 3034 2003 2786 2293 
Q 2538 2584 2113 2584 
z
M 3366 4563 
L 3366 3988 
Q 3128 4100 2886 4159 
Q 2644 4219 2406 4219 
Q 1781 4219 1451 3797 
Q 1122 3375 1075 2522 
Q 1259 2794 1537 2939 
Q 1816 3084 2150 3084 
Q 2853 3084 3261 2657 
Q 3669 2231 3669 1497 
Q 3669 778 3244 343 
Q 2819 -91 2113 -91 
Q 1303 -91 875 529 
Q 447 1150 447 2328 
Q 447 3434 972 4092 
Q 1497 4750 2381 4750 
Q 2619 4750 2861 4703 
Q 3103 4656 3366 4563 
z
" transform="scale(0.015625)"/>
       </defs>
       <use xlink:href="#DejaVuSans-36"/>
      </g>
     </g>
    </g>
    <g id="xtick_5">
     <g id="line2d_9">
      <path d="M 233.761075 307.584 
L 233.761075 41.472 
" clip-path="url(#p4d9d85ba20)" style="fill: none; stroke: #b0b0b0; stroke-width: 0.8; stroke-linecap: square"/>
     </g>
     <g id="line2d_10">
      <g>
       <use xlink:href="#m164197c849" x="233.761075" y="307.584" style="stroke: #000000; stroke-width: 0.8"/>
      </g>
     </g>
     <g id="text_5">
      <!-- 8 -->
      <g transform="translate(230.579825 322.182437) scale(0.1 -0.1)">
       <defs>
        <path id="DejaVuSans-38" d="M 2034 2216 
Q 1584 2216 1326 1975 
Q 1069 1734 1069 1313 
Q 1069 891 1326 650 
Q 1584 409 2034 409 
Q 2484 409 2743 651 
Q 3003 894 3003 1313 
Q 3003 1734 2745 1975 
Q 2488 2216 2034 2216 
z
M 1403 2484 
Q 997 2584 770 2862 
Q 544 3141 544 3541 
Q 544 4100 942 4425 
Q 1341 4750 2034 4750 
Q 2731 4750 3128 4425 
Q 3525 4100 3525 3541 
Q 3525 3141 3298 2862 
Q 3072 2584 2669 2484 
Q 3125 2378 3379 2068 
Q 3634 1759 3634 1313 
Q 3634 634 3220 271 
Q 2806 -91 2034 -91 
Q 1263 -91 848 271 
Q 434 634 434 1313 
Q 434 1759 690 2068 
Q 947 2378 1403 2484 
z
M 1172 3481 
Q 1172 3119 1398 2916 
Q 1625 2713 2034 2713 
Q 2441 2713 2670 2916 
Q 2900 3119 2900 3481 
Q 2900 3844 2670 4047 
Q 2441 4250 2034 4250 
Q 1625 4250 1398 4047 
Q 1172 3844 1172 3481 
z
" transform="scale(0.015625)"/>
       </defs>
       <use xlink:href="#DejaVuSans-38"/>
      </g>
     </g>
    </g>
    <g id="xtick_6">
     <g id="line2d_11">
      <path d="M 273.743162 307.584 
L 273.743162 41.472 
" clip-path="url(#p4d9d85ba20)" style="fill: none; stroke: #b0b0b0; stroke-width: 0.8; stroke-linecap: square"/>
     </g>
     <g id="line2d_12">
      <g>
       <use xlink:href="#m164197c849" x="273.743162" y="307.584" style="stroke: #000000; stroke-width: 0.8"/>
      </g>
     </g>
     <g id="text_6">
      <!-- 10 -->
      <g transform="translate(267.380662 322.182437) scale(0.1 -0.1)">
       <defs>
        <path id="DejaVuSans-31" d="M 794 531 
L 1825 531 
L 1825 4091 
L 703 3866 
L 703 4441 
L 1819 4666 
L 2450 4666 
L 2450 531 
L 3481 531 
L 3481 0 
L 794 0 
L 794 531 
z
" transform="scale(0.015625)"/>
       </defs>
       <use xlink:href="#DejaVuSans-31"/>
       <use xlink:href="#DejaVuSans-30" x="63.623047"/>
      </g>
     </g>
    </g>
    <g id="xtick_7">
     <g id="line2d_13">
      <path d="M 313.725249 307.584 
L 313.725249 41.472 
" clip-path="url(#p4d9d85ba20)" style="fill: none; stroke: #b0b0b0; stroke-width: 0.8; stroke-linecap: square"/>
     </g>
     <g id="line2d_14">
      <g>
       <use xlink:href="#m164197c849" x="313.725249" y="307.584" style="stroke: #000000; stroke-width: 0.8"/>
      </g>
     </g>
     <g id="text_7">
      <!-- 12 -->
      <g transform="translate(307.362749 322.182437) scale(0.1 -0.1)">
       <use xlink:href="#DejaVuSans-31"/>
       <use xlink:href="#DejaVuSans-32" x="63.623047"/>
      </g>
     </g>
    </g>
    <g id="xtick_8">
     <g id="line2d_15">
      <path d="M 353.707335 307.584 
L 353.707335 41.472 
" clip-path="url(#p4d9d85ba20)" style="fill: none; stroke: #b0b0b0; stroke-width: 0.8; stroke-linecap: square"/>
     </g>
     <g id="line2d_16">
      <g>
       <use xlink:href="#m164197c849" x="353.707335" y="307.584" style="stroke: #000000; stroke-width: 0.8"/>
      </g>
     </g>
     <g id="text_8">
      <!-- 14 -->
      <g transform="translate(347.344835 322.182437) scale(0.1 -0.1)">
       <use xlink:href="#DejaVuSans-31"/>
       <use xlink:href="#DejaVuSans-34" x="63.623047"/>
      </g>
     </g>
    </g>
    <g id="xtick_9">
     <g id="line2d_17">
      <path d="M 393.689422 307.584 
L 393.689422 41.472 
" clip-path="url(#p4d9d85ba20)" style="fill: none; stroke: #b0b0b0; stroke-width: 0.8; stroke-linecap: square"/>
     </g>
     <g id="line2d_18">
      <g>
       <use xlink:href="#m164197c849" x="393.689422" y="307.584" style="stroke: #000000; stroke-width: 0.8"/>
      </g>
     </g>
     <g id="text_9">
      <!-- 16 -->
      <g transform="translate(387.326922 322.182437) scale(0.1 -0.1)">
       <use xlink:href="#DejaVuSans-31"/>
       <use xlink:href="#DejaVuSans-36" x="63.623047"/>
      </g>
     </g>
    </g>
    <g id="text_10">
     <!-- Time(s) -->
     <g transform="translate(217.420156 335.860562) scale(0.1 -0.1)">
      <defs>
       <path id="DejaVuSans-54" d="M -19 4666 
L 3928 4666 
L 3928 4134 
L 2272 4134 
L 2272 0 
L 1638 0 
L 1638 4134 
L -19 4134 
L -19 4666 
z
" transform="scale(0.015625)"/>
       <path id="DejaVuSans-69" d="M 603 3500 
L 1178 3500 
L 1178 0 
L 603 0 
L 603 3500 
z
M 603 4863 
L 1178 4863 
L 1178 4134 
L 603 4134 
L 603 4863 
z
" transform="scale(0.015625)"/>
       <path id="DejaVuSans-6d" d="M 3328 2828 
Q 3544 3216 3844 3400 
Q 4144 3584 4550 3584 
Q 5097 3584 5394 3201 
Q 5691 2819 5691 2113 
L 5691 0 
L 5113 0 
L 5113 2094 
Q 5113 2597 4934 2840 
Q 4756 3084 4391 3084 
Q 3944 3084 3684 2787 
Q 3425 2491 3425 1978 
L 3425 0 
L 2847 0 
L 2847 2094 
Q 2847 2600 2669 2842 
Q 2491 3084 2119 3084 
Q 1678 3084 1418 2786 
Q 1159 2488 1159 1978 
L 1159 0 
L 581 0 
L 581 3500 
L 1159 3500 
L 1159 2956 
Q 1356 3278 1631 3431 
Q 1906 3584 2284 3584 
Q 2666 3584 2933 3390 
Q 3200 3197 3328 2828 
z
" transform="scale(0.015625)"/>
       <path id="DejaVuSans-65" d="M 3597 1894 
L 3597 1613 
L 953 1613 
Q 991 1019 1311 708 
Q 1631 397 2203 397 
Q 2534 397 2845 478 
Q 3156 559 3463 722 
L 3463 178 
Q 3153 47 2828 -22 
Q 2503 -91 2169 -91 
Q 1331 -91 842 396 
Q 353 884 353 1716 
Q 353 2575 817 3079 
Q 1281 3584 2069 3584 
Q 2775 3584 3186 3129 
Q 3597 2675 3597 1894 
z
M 3022 2063 
Q 3016 2534 2758 2815 
Q 2500 3097 2075 3097 
Q 1594 3097 1305 2825 
Q 1016 2553 972 2059 
L 3022 2063 
z
" transform="scale(0.015625)"/>
       <path id="DejaVuSans-28" d="M 1984 4856 
Q 1566 4138 1362 3434 
Q 1159 2731 1159 2009 
Q 1159 1288 1364 580 
Q 1569 -128 1984 -844 
L 1484 -844 
Q 1016 -109 783 600 
Q 550 1309 550 2009 
Q 550 2706 781 3412 
Q 1013 4119 1484 4856 
L 1984 4856 
z
" transform="scale(0.015625)"/>
       <path id="DejaVuSans-73" d="M 2834 3397 
L 2834 2853 
Q 2591 2978 2328 3040 
Q 2066 3103 1784 3103 
Q 1356 3103 1142 2972 
Q 928 2841 928 2578 
Q 928 2378 1081 2264 
Q 1234 2150 1697 2047 
L 1894 2003 
Q 2506 1872 2764 1633 
Q 3022 1394 3022 966 
Q 3022 478 2636 193 
Q 2250 -91 1575 -91 
Q 1294 -91 989 -36 
Q 684 19 347 128 
L 347 722 
Q 666 556 975 473 
Q 1284 391 1588 391 
Q 1994 391 2212 530 
Q 2431 669 2431 922 
Q 2431 1156 2273 1281 
Q 2116 1406 1581 1522 
L 1381 1569 
Q 847 1681 609 1914 
Q 372 2147 372 2553 
Q 372 3047 722 3315 
Q 1072 3584 1716 3584 
Q 2034 3584 2315 3537 
Q 2597 3491 2834 3397 
z
" transform="scale(0.015625)"/>
       <path id="DejaVuSans-29" d="M 513 4856 
L 1013 4856 
Q 1481 4119 1714 3412 
Q 1947 2706 1947 2009 
Q 1947 1309 1714 600 
Q 1481 -109 1013 -844 
L 513 -844 
Q 928 -128 1133 580 
Q 1338 1288 1338 2009 
Q 1338 2731 1133 3434 
Q 928 4138 513 4856 
z
" transform="scale(0.015625)"/>
      </defs>
      <use xlink:href="#DejaVuSans-54"/>
      <use xlink:href="#DejaVuSans-69" x="57.958984"/>
      <use xlink:href="#DejaVuSans-6d" x="85.742188"/>
      <use xlink:href="#DejaVuSans-65" x="183.154297"/>
      <use xlink:href="#DejaVuSans-28" x="244.677734"/>
      <use xlink:href="#DejaVuSans-73" x="283.691406"/>
      <use xlink:href="#DejaVuSans-29" x="335.791016"/>
     </g>
    </g>
   </g>
   <g id="matplotlib.axis_2">
    <g id="ytick_1">
     <g id="line2d_19">
      <path d="M 57.6 295.488 
L 414.72 295.488 
" clip-path="url(#p4d9d85ba20)" style="fill: none; stroke: #b0b0b0; stroke-width: 0.8; stroke-linecap: square"/>
     </g>
     <g id="line2d_20">
      <defs>
       <path id="m26f4541c3b" d="M 0 0 
L -3.5 0 
" style="stroke: #000000; stroke-width: 0.8"/>
      </defs>
      <g>
       <use xlink:href="#m26f4541c3b" x="57.6" y="295.488" style="stroke: #000000; stroke-width: 0.8"/>
      </g>
     </g>
     <g id="text_11">
      <!-- 0 -->
      <g transform="translate(44.2375 299.287219) scale(0.1 -0.1)">
       <use xlink:href="#DejaVuSans-30"/>
      </g>
     </g>
    </g>
    <g id="ytick_2">
     <g id="line2d_21">
      <path d="M 57.6 265.248 
L 414.72 265.248 
" clip-path="url(#p4d9d85ba20)" style="fill: none; stroke: #b0b0b0; stroke-width: 0.8; stroke-linecap: square"/>
     </g>
     <g id="line2d_22">
      <g>
       <use xlink:href="#m26f4541c3b" x="57.6" y="265.248" style="stroke: #000000; stroke-width: 0.8"/>
      </g>
     </g>
     <g id="text_12">
      <!-- 1 -->
      <g transform="translate(44.2375 269.047219) scale(0.1 -0.1)">
       <use xlink:href="#DejaVuSans-31"/>
      </g>
     </g>
    </g>
    <g id="ytick_3">
     <g id="line2d_23">
      <path d="M 57.6 235.008 
L 414.72 235.008 
" clip-path="url(#p4d9d85ba20)" style="fill: none; stroke: #b0b0b0; stroke-width: 0.8; stroke-linecap: square"/>
     </g>
     <g id="line2d_24">
      <g>
       <use xlink:href="#m26f4541c3b" x="57.6" y="235.008" style="stroke: #000000; stroke-width: 0.8"/>
      </g>
     </g>
     <g id="text_13">
      <!-- 2 -->
      <g transform="translate(44.2375 238.807219) scale(0.1 -0.1)">
       <use xlink:href="#DejaVuSans-32"/>
      </g>
     </g>
    </g>
    <g id="ytick_4">
     <g id="line2d_25">
      <path d="M 57.6 204.768 
L 414.72 204.768 
" clip-path="url(#p4d9d85ba20)" style="fill: none; stroke: #b0b0b0; stroke-width: 0.8; stroke-linecap: square"/>
     </g>
     <g id="line2d_26">
      <g>
       <use xlink:href="#m26f4541c3b" x="57.6" y="204.768" style="stroke: #000000; stroke-width: 0.8"/>
      </g>
     </g>
     <g id="text_14">
      <!-- 3 -->
      <g transform="translate(44.2375 208.567219) scale(0.1 -0.1)">
       <defs>
        <path id="DejaVuSans-33" d="M 2597 2516 
Q 3050 2419 3304 2112 
Q 3559 1806 3559 1356 
Q 3559 666 3084 287 
Q 2609 -91 1734 -91 
Q 1441 -91 1130 -33 
Q 819 25 488 141 
L 488 750 
Q 750 597 1062 519 
Q 1375 441 1716 441 
Q 2309 441 2620 675 
Q 2931 909 2931 1356 
Q 2931 1769 2642 2001 
Q 2353 2234 1838 2234 
L 1294 2234 
L 1294 2753 
L 1863 2753 
Q 2328 2753 2575 2939 
Q 2822 3125 2822 3475 
Q 2822 3834 2567 4026 
Q 2313 4219 1838 4219 
Q 1578 4219 1281 4162 
Q 984 4106 628 3988 
L 628 4550 
Q 988 4650 1302 4700 
Q 1616 4750 1894 4750 
Q 2613 4750 3031 4423 
Q 3450 4097 3450 3541 
Q 3450 3153 3228 2886 
Q 3006 2619 2597 2516 
z
" transform="scale(0.015625)"/>
       </defs>
       <use xlink:href="#DejaVuSans-33"/>
      </g>
     </g>
    </g>
    <g id="ytick_5">
     <g id="line2d_27">
      <path d="M 57.6 174.528 
L 414.72 174.528 
" clip-path="url(#p4d9d85ba20)" style="fill: none; stroke: #b0b0b0; stroke-width: 0.8; stroke-linecap: square"/>
     </g>
     <g id="line2d_28">
      <g>
       <use xlink:href="#m26f4541c3b" x="57.6" y="174.528" style="stroke: #000000; stroke-width: 0.8"/>
      </g>
     </g>
     <g id="text_15">
      <!-- 4 -->
      <g transform="translate(44.2375 178.327219) scale(0.1 -0.1)">
       <use xlink:href="#DejaVuSans-34"/>
      </g>
     </g>
    </g>
    <g id="ytick_6">
     <g id="line2d_29">
      <path d="M 57.6 144.288 
L 414.72 144.288 
" clip-path="url(#p4d9d85ba20)" style="fill: none; stroke: #b0b0b0; stroke-width: 0.8; stroke-linecap: square"/>
     </g>
     <g id="line2d_30">
      <g>
       <use xlink:href="#m26f4541c3b" x="57.6" y="144.288" style="stroke: #000000; stroke-width: 0.8"/>
      </g>
     </g>
     <g id="text_16">
      <!-- 5 -->
      <g transform="translate(44.2375 148.087219) scale(0.1 -0.1)">
       <defs>
        <path id="DejaVuSans-35" d="M 691 4666 
L 3169 4666 
L 3169 4134 
L 1269 4134 
L 1269 2991 
Q 1406 3038 1543 3061 
Q 1681 3084 1819 3084 
Q 2600 3084 3056 2656 
Q 3513 2228 3513 1497 
Q 3513 744 3044 326 
Q 2575 -91 1722 -91 
Q 1428 -91 1123 -41 
Q 819 9 494 109 
L 494 744 
Q 775 591 1075 516 
Q 1375 441 1709 441 
Q 2250 441 2565 725 
Q 2881 1009 2881 1497 
Q 2881 1984 2565 2268 
Q 2250 2553 1709 2553 
Q 1456 2553 1204 2497 
Q 953 2441 691 2322 
L 691 4666 
z
" transform="scale(0.015625)"/>
       </defs>
       <use xlink:href="#DejaVuSans-35"/>
      </g>
     </g>
    </g>
    <g id="ytick_7">
     <g id="line2d_31">
      <path d="M 57.6 114.048 
L 414.72 114.048 
" clip-path="url(#p4d9d85ba20)" style="fill: none; stroke: #b0b0b0; stroke-width: 0.8; stroke-linecap: square"/>
     </g>
     <g id="line2d_32">
      <g>
       <use xlink:href="#m26f4541c3b" x="57.6" y="114.048" style="stroke: #000000; stroke-width: 0.8"/>
      </g>
     </g>
     <g id="text_17">
      <!-- 6 -->
      <g transform="translate(44.2375 117.847219) scale(0.1 -0.1)">
       <use xlink:href="#DejaVuSans-36"/>
      </g>
     </g>
    </g>
    <g id="ytick_8">
     <g id="line2d_33">
      <path d="M 57.6 83.808 
L 414.72 83.808 
" clip-path="url(#p4d9d85ba20)" style="fill: none; stroke: #b0b0b0; stroke-width: 0.8; stroke-linecap: square"/>
     </g>
     <g id="line2d_34">
      <g>
       <use xlink:href="#m26f4541c3b" x="57.6" y="83.808" style="stroke: #000000; stroke-width: 0.8"/>
      </g>
     </g>
     <g id="text_18">
      <!-- 7 -->
      <g transform="translate(44.2375 87.607219) scale(0.1 -0.1)">
       <defs>
        <path id="DejaVuSans-37" d="M 525 4666 
L 3525 4666 
L 3525 4397 
L 1831 0 
L 1172 0 
L 2766 4134 
L 525 4134 
L 525 4666 
z
" transform="scale(0.015625)"/>
       </defs>
       <use xlink:href="#DejaVuSans-37"/>
      </g>
     </g>
    </g>
    <g id="ytick_9">
     <g id="line2d_35">
      <path d="M 57.6 53.568 
L 414.72 53.568 
" clip-path="url(#p4d9d85ba20)" style="fill: none; stroke: #b0b0b0; stroke-width: 0.8; stroke-linecap: square"/>
     </g>
     <g id="line2d_36">
      <g>
       <use xlink:href="#m26f4541c3b" x="57.6" y="53.568" style="stroke: #000000; stroke-width: 0.8"/>
      </g>
     </g>
     <g id="text_19">
      <!-- 8 -->
      <g transform="translate(44.2375 57.367219) scale(0.1 -0.1)">
       <use xlink:href="#DejaVuSans-38"/>
      </g>
     </g>
    </g>
    <g id="text_20">
     <!-- Velocity(m/s) -->
     <g transform="translate(38.157812 207.204563) rotate(-90) scale(0.1 -0.1)">
      <defs>
       <path id="DejaVuSans-56" d="M 1831 0 
L 50 4666 
L 709 4666 
L 2188 738 
L 3669 4666 
L 4325 4666 
L 2547 0 
L 1831 0 
z
" transform="scale(0.015625)"/>
       <path id="DejaVuSans-6c" d="M 603 4863 
L 1178 4863 
L 1178 0 
L 603 0 
L 603 4863 
z
" transform="scale(0.015625)"/>
       <path id="DejaVuSans-6f" d="M 1959 3097 
Q 1497 3097 1228 2736 
Q 959 2375 959 1747 
Q 959 1119 1226 758 
Q 1494 397 1959 397 
Q 2419 397 2687 759 
Q 2956 1122 2956 1747 
Q 2956 2369 2687 2733 
Q 2419 3097 1959 3097 
z
M 1959 3584 
Q 2709 3584 3137 3096 
Q 3566 2609 3566 1747 
Q 3566 888 3137 398 
Q 2709 -91 1959 -91 
Q 1206 -91 779 398 
Q 353 888 353 1747 
Q 353 2609 779 3096 
Q 1206 3584 1959 3584 
z
" transform="scale(0.015625)"/>
       <path id="DejaVuSans-63" d="M 3122 3366 
L 3122 2828 
Q 2878 2963 2633 3030 
Q 2388 3097 2138 3097 
Q 1578 3097 1268 2742 
Q 959 2388 959 1747 
Q 959 1106 1268 751 
Q 1578 397 2138 397 
Q 2388 397 2633 464 
Q 2878 531 3122 666 
L 3122 134 
Q 2881 22 2623 -34 
Q 2366 -91 2075 -91 
Q 1284 -91 818 406 
Q 353 903 353 1747 
Q 353 2603 823 3093 
Q 1294 3584 2113 3584 
Q 2378 3584 2631 3529 
Q 2884 3475 3122 3366 
z
" transform="scale(0.015625)"/>
       <path id="DejaVuSans-74" d="M 1172 4494 
L 1172 3500 
L 2356 3500 
L 2356 3053 
L 1172 3053 
L 1172 1153 
Q 1172 725 1289 603 
Q 1406 481 1766 481 
L 2356 481 
L 2356 0 
L 1766 0 
Q 1100 0 847 248 
Q 594 497 594 1153 
L 594 3053 
L 172 3053 
L 172 3500 
L 594 3500 
L 594 4494 
L 1172 4494 
z
" transform="scale(0.015625)"/>
       <path id="DejaVuSans-79" d="M 2059 -325 
Q 1816 -950 1584 -1140 
Q 1353 -1331 966 -1331 
L 506 -1331 
L 506 -850 
L 844 -850 
Q 1081 -850 1212 -737 
Q 1344 -625 1503 -206 
L 1606 56 
L 191 3500 
L 800 3500 
L 1894 763 
L 2988 3500 
L 3597 3500 
L 2059 -325 
z
" transform="scale(0.015625)"/>
       <path id="DejaVuSans-2f" d="M 1625 4666 
L 2156 4666 
L 531 -594 
L 0 -594 
L 1625 4666 
z
" transform="scale(0.015625)"/>
      </defs>
      <use xlink:href="#DejaVuSans-56"/>
      <use xlink:href="#DejaVuSans-65" x="60.658203"/>
      <use xlink:href="#DejaVuSans-6c" x="122.181641"/>
      <use xlink:href="#DejaVuSans-6f" x="149.964844"/>
      <use xlink:href="#DejaVuSans-63" x="211.146484"/>
      <use xlink:href="#DejaVuSans-69" x="266.126953"/>
      <use xlink:href="#DejaVuSans-74" x="293.910156"/>
      <use xlink:href="#DejaVuSans-79" x="333.119141"/>
      <use xlink:href="#DejaVuSans-28" x="392.298828"/>
      <use xlink:href="#DejaVuSans-6d" x="431.3125"/>
      <use xlink:href="#DejaVuSans-2f" x="528.724609"/>
      <use xlink:href="#DejaVuSans-73" x="562.416016"/>
      <use xlink:href="#DejaVuSans-29" x="614.515625"/>
     </g>
    </g>
   </g>
   <g id="line2d_37">
    <path d="M 73.832727 53.568 
L 73.832727 295.488 
L 74.232548 290.311517 
L 74.232548 290.311517 
L 81.029503 264.898547 
L 81.029503 264.898547 
L 87.826458 238.584455 
L 87.826458 238.584455 
L 94.623412 211.337338 
L 94.623412 211.337338 
L 101.420367 183.124083 
L 101.420367 183.124083 
L 108.217322 153.910428 
L 108.217322 153.910428 
L 115.014277 123.660933 
L 115.014277 123.660933 
L 121.811232 92.338825 
L 121.811232 92.338825 
L 127.008903 68.37172 
L 127.008903 68.37172 
L 128.208365 64.619571 
L 128.208365 64.619571 
L 129.407828 61.81844 
L 129.407828 61.81844 
L 130.20747 60.499673 
L 130.20747 60.499673 
L 131.007112 59.871256 
L 131.007112 59.871256 
L 131.406932 59.722566 
L 131.406932 59.722566 
L 131.806753 59.726588 
L 131.806753 59.726588 
L 132.206574 60.512132 
L 132.206574 60.512132 
L 132.606395 61.911791 
L 132.606395 61.911791 
L 133.006216 62.730266 
L 133.006216 62.730266 
L 133.406037 63.921087 
L 133.406037 63.921087 
L 133.805858 65.738511 
L 133.805858 65.738511 
L 134.205678 68.391497 
L 134.205678 68.391497 
L 135.00532 72.170559 
L 135.00532 72.170559 
L 135.405141 75.108103 
L 135.405141 75.108103 
L 135.804962 79.253886 
L 135.804962 79.253886 
L 136.604604 84.571469 
L 136.604604 84.571469 
L 137.004425 88.797751 
L 137.004425 88.797751 
L 137.804066 94.620645 
L 137.804066 94.620645 
L 138.203887 98.522179 
L 138.203887 98.522179 
L 139.003529 103.851979 
L 139.003529 103.851979 
L 139.40335 107.392872 
L 139.40335 107.392872 
L 140.202991 112.082884 
L 140.202991 112.082884 
L 140.602812 115.346112 
L 140.602812 115.346112 
L 141.002633 117.042576 
L 141.002633 117.042576 
L 141.402454 119.385844 
L 141.402454 119.385844 
L 143.001738 125.859593 
L 143.001738 125.859593 
L 143.401558 127.847782 
L 145.400663 133.521864 
L 145.400663 133.521864 
L 146.200305 135.179047 
L 146.200305 135.179047 
L 147.399767 137.073432 
L 147.399767 137.073432 
L 147.799588 137.70197 
L 147.799588 137.70197 
L 148.999051 138.765662 
L 148.999051 138.765662 
L 149.798692 139.15854 
L 149.798692 139.15854 
L 150.998155 139.369313 
L 150.998155 139.369313 
L 152.597438 139.450658 
L 152.597438 139.450658 
L 154.596543 139.421084 
L 154.596543 139.421084 
L 155.796005 139.24176 
L 155.796005 139.24176 
L 156.595647 138.994307 
L 156.595647 138.994307 
L 158.194931 137.807054 
L 158.194931 137.807054 
L 159.794214 135.705313 
L 159.794214 135.705313 
L 161.393498 132.234759 
L 161.393498 132.234759 
L 162.59296 128.476925 
L 162.59296 128.476925 
L 163.392602 125.37672 
L 163.392602 125.37672 
L 168.590273 102.130658 
L 168.590273 102.130658 
L 169.389915 99.58442 
L 169.389915 99.58442 
L 170.589378 96.614519 
L 170.589378 96.614519 
L 171.78884 94.390609 
L 171.78884 94.390609 
L 173.388124 91.941774 
L 173.388124 91.941774 
L 174.187765 90.78467 
L 174.187765 90.78467 
L 175.787049 87.44808 
L 175.787049 87.44808 
L 176.586691 85.378938 
L 176.586691 85.378938 
L 178.185974 78.958593 
L 178.185974 78.958593 
L 179.785258 71.603952 
L 179.785258 71.603952 
L 180.584899 68.96648 
L 180.584899 68.96648 
L 181.384541 67.228224 
L 181.384541 67.228224 
L 182.184183 65.97269 
L 182.184183 65.97269 
L 183.383645 64.653833 
L 183.383645 64.653833 
L 184.583108 63.727854 
L 184.583108 63.727854 
L 186.582212 62.496058 
L 186.582212 62.496058 
L 187.381854 62.017026 
L 187.381854 62.017026 
L 187.781675 61.665818 
L 187.781675 61.665818 
L 190.980242 57.650521 
L 190.980242 57.650521 
L 192.179704 56.615769 
L 192.179704 56.615769 
L 193.379167 55.843288 
L 193.379167 55.843288 
L 194.978451 55.108879 
L 194.978451 55.108879 
L 196.577734 54.611552 
L 196.577734 54.611552 
L 198.576838 54.209118 
L 198.576838 54.209118 
L 201.375584 53.892143 
L 201.375584 53.892143 
L 205.373793 53.690351 
L 205.373793 53.690351 
L 212.570569 53.589168 
L 212.570569 53.589168 
L 218.567882 53.572899 
L 218.567882 53.572899 
L 218.967703 54.003728 
L 218.967703 54.003728 
L 219.367524 55.407923 
L 219.367524 55.407923 
L 219.767344 56.264138 
L 219.767344 56.264138 
L 220.167165 57.539843 
L 220.167165 57.539843 
L 220.566986 59.314265 
L 220.566986 59.314265 
L 221.366628 63.29273 
L 221.366628 63.29273 
L 222.16627 66.965983 
L 222.16627 66.965983 
L 222.965911 71.834895 
L 222.965911 71.834895 
L 223.765553 74.970935 
L 223.765553 74.970935 
L 224.565195 78.497856 
L 224.565195 78.497856 
L 225.364837 81.907174 
L 225.364837 81.907174 
L 225.764657 83.990105 
L 225.764657 83.990105 
L 226.564299 86.663926 
L 226.564299 86.663926 
L 226.96412 88.466321 
L 226.96412 88.466321 
L 227.763762 90.8942 
L 227.763762 90.8942 
L 228.163583 92.454947 
L 228.163583 92.454947 
L 230.962329 99.853707 
L 230.962329 99.853707 
L 232.961433 103.69074 
L 232.961433 103.69074 
L 234.960537 105.84289 
L 234.960537 105.84289 
L 236.16 106.6128 
L 236.16 106.6128 
L 237.359463 107.037249 
L 237.359463 107.037249 
L 238.958746 107.23139 
L 238.958746 107.23139 
L 244.156417 107.041573 
L 244.156417 107.041573 
L 246.555343 106.307649 
L 246.555343 106.307649 
L 247.354984 105.94365 
L 247.354984 105.94365 
L 250.15373 103.799331 
L 250.15373 103.799331 
L 250.953372 102.833829 
L 250.953372 102.833829 
L 251.753014 101.829588 
L 251.753014 101.829588 
L 252.552656 100.725224 
L 252.552656 100.725224 
L 254.55176 96.897384 
L 254.55176 96.897384 
L 255.351402 94.856396 
L 255.351402 94.856396 
L 256.151043 92.772225 
L 256.151043 92.772225 
L 258.549969 84.36363 
L 258.549969 84.36363 
L 261.748536 69.801134 
L 261.748536 69.801134 
L 262.947998 65.68671 
L 262.947998 65.68671 
L 264.147461 62.615082 
L 264.147461 62.615082 
L 265.346923 60.322013 
L 265.346923 60.322013 
L 266.546386 58.610157 
L 266.546386 58.610157 
L 267.745849 57.332154 
L 267.745849 57.332154 
L 268.945311 56.378082 
L 268.945311 56.378082 
L 270.144774 55.66584 
L 270.144774 55.66584 
L 271.744057 54.988736 
L 271.744057 54.988736 
L 273.743162 54.440847 
L 273.743162 54.440847 
L 276.142087 54.054441 
L 276.142087 54.054441 
L 279.340654 53.791111 
L 279.340654 53.791111 
L 284.538325 53.630869 
L 284.538325 53.630869 
L 292.134922 53.577858 
L 292.134922 53.577858 
L 292.934563 54.102311 
L 292.934563 54.102311 
L 293.334384 54.615453 
L 293.334384 54.615453 
L 294.134026 56.223919 
L 294.134026 56.223919 
L 294.933668 58.078447 
L 294.933668 58.078447 
L 295.733309 59.892756 
L 295.733309 59.892756 
L 296.532951 62.117604 
L 296.532951 62.117604 
L 297.332593 64.285268 
L 297.332593 64.285268 
L 298.532056 68.379612 
L 298.532056 68.379612 
L 298.931876 69.56877 
L 298.931876 69.56877 
L 302.130443 81.836382 
L 302.130443 81.836382 
L 302.530264 84.119835 
L 302.530264 84.119835 
L 303.329906 87.065997 
L 303.329906 87.065997 
L 303.729727 89.284373 
L 303.729727 89.284373 
L 304.529369 92.427398 
L 304.529369 92.427398 
L 304.929189 94.798879 
L 304.929189 94.798879 
L 305.728831 98.154249 
L 305.728831 98.154249 
L 306.128652 100.719085 
L 306.128652 100.719085 
L 306.928294 104.300287 
L 306.928294 104.300287 
L 307.328115 107.145841 
L 307.328115 107.145841 
L 307.727936 108.77989 
L 307.727936 108.77989 
L 308.527577 112.793554 
L 308.527577 112.793554 
L 308.927398 114.672819 
L 308.927398 114.672819 
L 309.327219 117.462429 
L 309.327219 117.462429 
L 309.72704 119.178125 
L 309.72704 119.178125 
L 310.526682 123.178998 
L 310.526682 123.178998 
L 310.926502 125.086054 
L 310.926502 125.086054 
L 311.326323 128.057406 
L 311.326323 128.057406 
L 311.726144 129.594475 
L 311.726144 129.594475 
L 312.125965 132.014189 
L 312.125965 132.014189 
L 312.525786 133.434501 
L 312.525786 133.434501 
L 312.925607 135.581088 
L 312.925607 135.581088 
L 313.325428 137.008476 
L 313.325428 137.008476 
L 313.725249 139.00607 
L 313.725249 139.00607 
L 314.125069 140.435182 
L 314.125069 140.435182 
L 315.324532 145.53419 
L 315.324532 145.53419 
L 316.523995 150.070584 
L 316.523995 150.070584 
L 317.323636 153.1912 
L 317.323636 153.1912 
L 317.723457 154.987124 
L 317.723457 154.987124 
L 318.123278 156.166423 
L 318.123278 156.166423 
L 318.523099 158.063167 
L 318.523099 158.063167 
L 318.92292 159.167501 
L 318.92292 159.167501 
L 319.322741 161.084627 
L 319.322741 161.084627 
L 319.722562 162.032046 
L 319.722562 162.032046 
L 320.122382 164.011405 
L 320.922024 165.909479 
L 320.922024 165.909479 
L 322.121487 169.77648 
L 322.121487 169.77648 
L 322.521308 170.641041 
L 322.521308 170.641041 
L 322.921129 172.380627 
L 322.921129 172.380627 
L 323.72077 174.022357 
L 323.72077 174.022357 
L 324.120591 175.222764 
L 324.120591 175.222764 
L 324.520412 175.983119 
L 324.920233 177.388613 
L 324.920233 177.388613 
L 325.719875 178.765894 
L 325.719875 178.765894 
L 326.119695 179.790153 
L 326.119695 179.790153 
L 326.519516 180.428671 
L 326.519516 180.428671 
L 326.919337 181.546674 
L 326.919337 181.546674 
L 330.117904 186.095133 
L 330.117904 186.095133 
L 331.717188 187.548044 
L 331.717188 187.548044 
L 334.116113 189.091312 
L 334.116113 189.091312 
L 336.115217 189.914687 
L 336.115217 189.914687 
L 337.31468 190.155004 
L 337.31468 190.155004 
L 340.513247 190.383921 
L 340.513247 190.383921 
L 346.910381 190.10163 
L 346.910381 190.10163 
L 348.109843 189.881271 
L 348.109843 189.881271 
L 349.309306 189.554347 
L 349.309306 189.554347 
L 349.709127 189.462538 
L 349.709127 189.462538 
L 350.508768 188.964757 
L 350.508768 188.964757 
L 351.30841 188.685854 
L 351.30841 188.685854 
L 352.108052 188.041712 
L 352.108052 188.041712 
L 352.907694 187.631234 
L 352.907694 187.631234 
L 353.707335 186.828453 
L 353.707335 186.828453 
L 354.506977 186.248722 
L 354.506977 186.248722 
L 355.306619 185.25443 
L 355.306619 185.25443 
L 356.106261 184.384486 
L 356.106261 184.384486 
L 356.905902 183.186256 
L 356.905902 183.186256 
L 357.705544 181.492998 
L 357.705544 181.492998 
L 358.505186 179.615638 
L 358.505186 179.615638 
L 358.905007 178.598516 
L 358.905007 178.598516 
L 361.703753 168.100669 
L 361.703753 168.100669 
L 364.102678 157.93755 
L 364.102678 157.93755 
L 364.502499 156.681531 
L 364.502499 156.681531 
L 365.302141 155.139957 
L 365.302141 155.139957 
L 366.101782 154.599598 
L 366.101782 154.599598 
L 366.501603 154.932057 
L 366.501603 154.932057 
L 366.901424 155.070284 
L 366.901424 155.070284 
L 368.100887 157.890708 
L 368.100887 157.890708 
L 369.70017 161.260533 
L 369.70017 161.260533 
L 370.499812 162.491573 
L 370.499812 162.491573 
L 371.699275 163.535034 
L 371.699275 163.535034 
L 372.898737 164.061785 
L 372.898737 164.061785 
L 373.698379 164.310993 
L 373.698379 164.310993 
L 374.897841 164.428929 
L 374.897841 164.428929 
L 378.096408 164.516171 
L 378.096408 164.516171 
L 382.494438 164.162242 
L 382.494438 164.162242 
L 384.093721 163.902571 
L 384.093721 163.902571 
L 386.892468 162.75336 
L 386.892468 162.75336 
L 387.692109 162.356158 
L 387.692109 162.356158 
L 389.291393 161.035305 
L 389.291393 161.035305 
L 390.890676 158.993712 
L 390.890676 158.993712 
L 391.690318 157.712746 
L 391.690318 157.712746 
L 392.889781 155.757578 
L 392.889781 155.757578 
L 394.489064 152.919161 
L 394.489064 152.919161 
L 395.288706 151.345774 
L 395.288706 151.345774 
L 395.688527 294.007026 
L 395.688527 294.007026 
L 398.487273 283.703381 
L 398.487273 283.703381 
" clip-path="url(#p4d9d85ba20)" style="fill: none; stroke: #1f77b4; stroke-width: 1.5; stroke-linecap: square"/>
   </g>
   <g id="line2d_38">
    <path d="M 73.832727 53.568 
L 73.832727 279.920448 
L 74.232548 274.472319 
L 74.232548 274.472319 
L 81.029503 248.497701 
L 81.029503 248.497701 
L 87.826458 221.602094 
L 87.826458 221.602094 
L 94.623412 193.752808 
L 94.623412 193.752808 
L 101.420367 164.916035 
L 101.420367 164.916035 
L 108.217322 135.056756 
L 108.217322 135.056756 
L 115.014277 104.138745 
L 115.014277 104.138745 
L 121.811232 72.124443 
L 121.811232 72.124443 
L 125.409619 54.718662 
L 125.409619 54.718662 
L 125.80944 53.568 
L 125.80944 53.568 
L 129.407828 53.582848 
L 129.407828 53.582848 
L 130.20747 56.89945 
L 130.20747 56.89945 
L 130.607291 56.996641 
L 130.607291 56.996641 
L 131.406932 59.734299 
L 131.406932 59.734299 
L 132.206574 64.578233 
L 132.206574 64.578233 
L 132.606395 64.289532 
L 132.606395 64.289532 
L 133.006216 66.189753 
L 133.006216 66.189753 
L 133.406037 69.20081 
L 133.406037 69.20081 
L 133.805858 73.44572 
L 133.805858 73.44572 
L 134.205678 73.247859 
L 134.205678 73.247859 
L 134.605499 76.185312 
L 134.605499 76.185312 
L 135.00532 80.704378 
L 135.00532 80.704378 
L 135.405141 87.151909 
L 135.405141 87.151909 
L 135.804962 86.083469 
L 135.804962 86.083469 
L 136.204783 90.223235 
L 136.204783 90.223235 
L 136.604604 96.849181 
L 136.604604 96.849181 
L 137.004425 97.008304 
L 137.404245 100.329473 
L 137.804066 105.95496 
L 137.804066 105.95496 
L 138.203887 106.276048 
L 138.203887 106.276048 
L 138.603708 108.920899 
L 138.603708 108.920899 
L 139.003529 114.138569 
L 139.003529 114.138569 
L 139.40335 113.902515 
L 139.40335 113.902515 
L 139.803171 116.748886 
L 139.803171 116.748886 
L 140.202991 121.562791 
L 140.202991 121.562791 
L 140.602812 120.274507 
L 140.602812 120.274507 
L 141.002633 123.849963 
L 141.002633 123.849963 
L 141.402454 123.982626 
L 141.402454 123.982626 
L 141.802275 126.224862 
L 141.802275 126.224862 
L 142.601917 128.743007 
L 142.601917 128.743007 
L 143.001738 131.635463 
L 143.001738 131.635463 
L 143.401558 131.197255 
L 143.801379 133.331201 
L 143.801379 133.331201 
L 144.2012 133.372146 
L 144.2012 133.372146 
L 144.601021 134.893672 
L 144.601021 134.893672 
L 145.000842 135.1694 
L 145.000842 135.1694 
L 145.400663 136.147211 
L 145.400663 136.147211 
L 146.200305 137.191549 
L 146.200305 137.191549 
L 146.600125 137.814674 
L 146.600125 137.814674 
L 146.999946 138.088588 
L 146.999946 138.088588 
L 147.399767 138.899413 
L 147.399767 138.899413 
L 147.799588 138.883205 
L 147.799588 138.883205 
L 148.199409 139.20774 
L 148.199409 139.20774 
L 149.398871 139.513346 
L 149.398871 139.513346 
L 149.798692 139.427464 
L 150.998155 139.501038 
L 150.998155 139.501038 
L 151.397976 139.445699 
L 151.797797 139.504455 
L 151.797797 139.504455 
L 152.197618 139.431879 
L 152.197618 139.431879 
L 152.997259 139.475667 
L 152.997259 139.475667 
L 154.196722 139.175444 
L 154.196722 139.175444 
L 155.396185 138.459603 
L 155.396185 138.459603 
L 155.796005 138.107095 
L 155.796005 138.107095 
L 156.195826 137.605535 
L 156.195826 137.605535 
L 156.595647 135.829116 
L 156.595647 135.829116 
L 156.995468 136.469992 
L 156.995468 136.469992 
L 157.395289 134.274901 
L 157.395289 134.274901 
L 157.79511 134.927631 
L 157.79511 134.927631 
L 158.194931 132.302074 
L 158.194931 132.302074 
L 158.594751 133.024235 
L 158.594751 133.024235 
L 158.994572 129.834399 
L 158.994572 129.834399 
L 159.394393 130.446789 
L 159.394393 130.446789 
L 159.794214 126.88107 
L 159.794214 126.88107 
L 160.194035 127.109956 
L 160.194035 127.109956 
L 160.593856 123.392976 
L 160.593856 123.392976 
L 160.993677 123.153234 
L 160.993677 123.153234 
L 161.393498 119.439429 
L 161.793318 118.367996 
L 161.793318 118.367996 
L 162.193139 114.866899 
L 162.193139 114.866899 
L 162.59296 112.659349 
L 162.59296 112.659349 
L 163.392602 105.892453 
L 163.392602 105.892453 
L 167.390811 87.360081 
L 167.390811 87.360081 
L 167.790631 87.270329 
L 167.790631 87.270329 
L 168.190452 87.647754 
L 168.190452 87.647754 
L 168.590273 87.66741 
L 168.990094 87.824719 
L 168.990094 87.824719 
L 171.389019 87.795386 
L 171.389019 87.795386 
L 171.78884 87.268424 
L 171.78884 87.268424 
L 172.188661 87.523075 
L 172.188661 87.523075 
L 172.588482 87.038811 
L 172.588482 87.038811 
L 172.988303 85.651158 
L 172.988303 85.651158 
L 173.388124 85.990481 
L 173.388124 85.990481 
L 173.787944 84.877135 
L 173.787944 84.877135 
L 174.187765 82.355119 
L 174.587586 82.671853 
L 174.587586 82.671853 
L 174.987407 80.802114 
L 174.987407 80.802114 
L 175.387228 76.870037 
L 175.387228 76.870037 
L 175.787049 77.082836 
L 176.18687 74.563844 
L 176.18687 74.563844 
L 176.586691 69.005853 
L 176.586691 69.005853 
L 176.986511 68.637983 
L 176.986511 68.637983 
L 177.386332 65.351923 
L 177.386332 65.351923 
L 177.786153 60.390719 
L 177.786153 60.390719 
L 178.985616 54.55204 
L 178.985616 54.55204 
L 179.385437 55.671978 
L 179.385437 55.671978 
L 179.785258 55.933312 
L 179.785258 55.933312 
L 180.584899 58.506373 
L 180.584899 58.506373 
L 180.98472 59.732182 
L 180.98472 59.732182 
L 181.384541 59.840411 
L 181.384541 59.840411 
L 181.784362 60.406353 
L 181.784362 60.406353 
L 182.584004 60.879881 
L 182.584004 60.879881 
L 182.983824 60.788254 
L 182.983824 60.788254 
L 184.183287 61.068306 
L 184.183287 61.068306 
L 184.583108 60.835972 
L 185.38275 61.032835 
L 185.38275 61.032835 
L 185.782571 60.459726 
L 185.782571 60.459726 
L 186.182391 59.669071 
L 186.182391 59.669071 
L 186.582212 60.144595 
L 186.582212 60.144595 
L 186.982033 59.469366 
L 186.982033 59.469366 
L 187.381854 58.233881 
L 187.381854 58.233881 
L 187.781675 56.142361 
L 187.781675 56.142361 
L 188.181496 56.544402 
L 188.181496 56.544402 
L 188.981137 53.568 
L 188.981137 53.568 
L 218.168061 53.568 
L 218.168061 53.568 
L 218.567882 54.824472 
L 218.567882 54.824472 
L 218.967703 58.083013 
L 218.967703 58.083013 
L 219.367524 57.895314 
L 219.367524 57.895314 
L 219.767344 59.970171 
L 219.767344 59.970171 
L 220.566986 66.027757 
L 220.566986 66.027757 
L 220.966807 66.469503 
L 221.766449 70.612746 
L 221.766449 70.612746 
L 222.56609 76.652793 
L 222.56609 76.652793 
L 222.965911 76.136928 
L 222.965911 76.136928 
L 223.365732 78.12415 
L 223.365732 78.12415 
L 223.765553 80.920201 
L 223.765553 80.920201 
L 224.165374 81.315559 
L 224.165374 81.315559 
L 224.965016 85.332368 
L 224.965016 85.332368 
L 225.364837 87.958259 
L 225.364837 87.958259 
L 225.764657 87.694808 
L 225.764657 87.694808 
L 226.164478 89.328372 
L 226.164478 89.328372 
L 226.564299 91.900043 
L 226.564299 91.900043 
L 226.96412 91.982447 
L 227.363941 93.213729 
L 227.363941 93.213729 
L 227.763762 95.428234 
L 227.763762 95.428234 
L 228.163583 95.63562 
L 228.163583 95.63562 
L 228.563403 96.691571 
L 228.563403 96.691571 
L 228.963224 98.587256 
L 228.963224 98.587256 
L 229.363045 98.7693 
L 229.363045 98.7693 
L 229.762866 99.644688 
L 230.162687 101.298876 
L 230.162687 101.298876 
L 230.562508 101.375898 
L 230.562508 101.375898 
L 230.962329 102.127997 
L 231.36215 103.507092 
L 231.36215 103.507092 
L 231.76197 103.452781 
L 232.161791 104.165235 
L 232.161791 104.165235 
L 232.561612 105.174586 
L 232.561612 105.174586 
L 232.961433 105.02762 
L 232.961433 105.02762 
L 233.361254 105.657972 
L 233.361254 105.657972 
L 234.160896 106.131077 
L 234.160896 106.131077 
L 234.560717 106.604394 
L 234.560717 106.604394 
L 235.360358 106.842624 
L 235.360358 106.842624 
L 235.760179 107.067217 
L 236.559821 107.173904 
L 236.559821 107.173904 
L 237.359463 107.255552 
L 237.359463 107.255552 
L 238.958746 107.102991 
L 238.958746 107.102991 
L 239.358567 107.29943 
L 239.358567 107.29943 
L 239.758388 107.248324 
L 239.758388 107.248324 
L 240.158209 107.322745 
L 240.158209 107.322745 
L 242.557134 106.946741 
L 242.557134 106.946741 
L 242.956955 106.62284 
L 242.956955 106.62284 
L 243.356776 106.696384 
L 243.756597 106.426613 
L 243.756597 106.426613 
L 244.156417 105.890579 
L 244.156417 105.890579 
L 244.556238 106.071323 
L 244.556238 106.071323 
L 244.956059 105.589509 
L 244.956059 105.589509 
L 245.35588 105.578018 
L 245.35588 105.578018 
L 245.755701 105.220702 
L 245.755701 105.220702 
L 246.155522 104.440782 
L 246.155522 104.440782 
L 246.555343 104.558507 
L 246.555343 104.558507 
L 246.955163 103.973514 
L 246.955163 103.973514 
L 247.354984 102.795121 
L 247.354984 102.795121 
L 247.754805 103.250475 
L 247.754805 103.250475 
L 248.154626 102.305475 
L 248.154626 102.305475 
L 248.554447 102.237859 
L 248.554447 102.237859 
L 248.954268 101.593021 
L 248.954268 101.593021 
L 249.354089 100.158254 
L 249.354089 100.158254 
L 249.75391 100.314867 
L 249.75391 100.314867 
L 250.15373 99.311262 
L 250.15373 99.311262 
L 250.553551 97.471097 
L 250.553551 97.471097 
L 250.953372 97.955935 
L 251.353193 96.441637 
L 251.353193 96.441637 
L 251.753014 96.151363 
L 251.753014 96.151363 
L 252.152835 95.085161 
L 252.152835 95.085161 
L 252.552656 92.950006 
L 252.552656 92.950006 
L 252.952476 92.894848 
L 253.352297 91.603902 
L 253.352297 91.603902 
L 253.752118 88.76987 
L 253.752118 88.76987 
L 254.151939 88.957267 
L 254.151939 88.957267 
L 254.55176 87.186352 
L 254.55176 87.186352 
L 254.951581 83.722874 
L 254.951581 83.722874 
L 255.351402 84.251318 
L 255.351402 84.251318 
L 255.751223 82.027439 
L 255.751223 82.027439 
L 256.151043 78.110572 
L 256.151043 78.110572 
L 256.550864 78.658491 
L 256.550864 78.658491 
L 256.950685 76.10557 
L 256.950685 76.10557 
L 257.350506 71.596755 
L 257.350506 71.596755 
L 257.750327 72.046515 
L 257.750327 72.046515 
L 258.150148 69.436349 
L 258.150148 69.436349 
L 258.549969 64.419896 
L 258.549969 64.419896 
L 258.94979 64.183389 
L 258.94979 64.183389 
L 260.149252 56.562667 
L 260.149252 56.562667 
L 260.549073 54.61258 
L 260.549073 54.61258 
L 260.948894 53.568 
L 260.948894 53.568 
L 291.735101 53.568 
L 291.735101 53.568 
L 292.134922 54.384843 
L 292.134922 54.384843 
L 292.534742 54.57221 
L 292.534742 54.57221 
L 293.334384 56.644769 
L 293.334384 56.644769 
L 294.134026 59.376741 
L 294.134026 59.376741 
L 294.533847 59.543908 
L 294.533847 59.543908 
L 295.333489 61.715624 
L 295.333489 61.715624 
L 295.733309 63.59005 
L 295.733309 63.59005 
L 296.13313 63.93152 
L 296.13313 63.93152 
L 296.932772 66.369288 
L 296.932772 66.369288 
L 297.732414 70.512379 
L 297.732414 70.512379 
L 298.132235 70.311707 
L 298.132235 70.311707 
L 298.532056 71.8342 
L 298.532056 71.8342 
L 299.331697 76.690956 
L 299.331697 76.690956 
L 299.731518 76.330737 
L 299.731518 76.330737 
L 300.131339 77.88093 
L 300.131339 77.88093 
L 300.53116 80.737672 
L 300.53116 80.737672 
L 300.930981 81.20364 
L 300.930981 81.20364 
L 301.330802 82.863756 
L 301.330802 82.863756 
L 301.730622 85.176179 
L 301.730622 85.176179 
L 302.130443 88.46998 
L 302.130443 88.46998 
L 302.530264 88.143841 
L 302.530264 88.143841 
L 302.930085 90.039859 
L 302.930085 90.039859 
L 303.329906 93.510564 
L 303.729727 93.58432 
L 303.729727 93.58432 
L 304.129548 95.59531 
L 304.129548 95.59531 
L 304.529369 99.316765 
L 304.529369 99.316765 
L 304.929189 99.416195 
L 305.32901 101.518631 
L 305.32901 101.518631 
L 305.728831 105.605264 
L 305.728831 105.605264 
L 306.128652 105.625253 
L 306.128652 105.625253 
L 306.528473 107.90544 
L 306.528473 107.90544 
L 306.928294 112.566845 
L 306.928294 112.566845 
L 307.328115 111.892886 
L 307.328115 111.892886 
L 307.727936 115.091734 
L 307.727936 115.091734 
L 308.127756 116.300789 
L 308.127756 116.300789 
L 308.527577 118.252963 
L 308.527577 118.252963 
L 308.927398 122.776867 
L 308.927398 122.776867 
L 309.327219 122.446646 
L 309.327219 122.446646 
L 309.72704 125.633791 
L 310.126861 126.567541 
L 310.126861 126.567541 
L 310.526682 128.719178 
L 310.526682 128.719178 
L 310.926502 133.718092 
L 310.926502 133.718092 
L 311.326323 132.522705 
L 311.326323 132.522705 
L 311.726144 136.623974 
L 311.726144 136.623974 
L 312.125965 136.140286 
L 312.125965 136.140286 
L 312.525786 139.670533 
L 312.525786 139.670533 
L 312.925607 139.727717 
L 312.925607 139.727717 
L 313.325428 142.811683 
L 313.325428 142.811683 
L 313.725249 143.15778 
L 313.725249 143.15778 
L 314.125069 145.849926 
L 314.125069 145.849926 
L 314.52489 146.439032 
L 314.52489 146.439032 
L 314.924711 148.982458 
L 314.924711 148.982458 
L 315.324532 149.641841 
L 315.324532 149.641841 
L 315.724353 152.103377 
L 315.724353 152.103377 
L 316.124174 152.638413 
L 316.124174 152.638413 
L 316.523995 155.350548 
L 316.923815 155.673723 
L 316.923815 155.673723 
L 317.323636 158.408538 
L 317.323636 158.408538 
L 317.723457 158.413104 
L 317.723457 158.413104 
L 318.123278 161.676635 
L 318.123278 161.676635 
L 318.523099 161.271298 
L 318.523099 161.271298 
L 318.92292 164.736953 
L 318.92292 164.736953 
L 319.322741 163.836981 
L 319.322741 163.836981 
L 319.722562 167.782182 
L 319.722562 167.782182 
L 320.122382 166.765211 
L 320.122382 166.765211 
L 320.522203 167.719585 
L 320.522203 167.719585 
L 320.922024 169.818997 
L 320.922024 169.818997 
L 321.321845 170.06639 
L 321.321845 170.06639 
L 321.721666 172.736189 
L 321.721666 172.736189 
L 322.121487 172.288093 
L 322.121487 172.288093 
L 322.521308 175.694659 
L 322.521308 175.694659 
L 322.921129 174.841135 
L 322.921129 174.841135 
L 323.320949 175.536504 
L 323.320949 175.536504 
L 323.72077 177.509573 
L 323.72077 177.509573 
L 324.120591 177.431705 
L 324.120591 177.431705 
L 324.520412 180.066214 
L 324.520412 180.066214 
L 324.920233 179.339456 
L 324.920233 179.339456 
L 325.320054 180.110425 
L 325.320054 180.110425 
L 325.719875 181.74145 
L 325.719875 181.74145 
L 326.119695 181.645075 
L 326.119695 181.645075 
L 326.519516 183.676628 
L 326.519516 183.676628 
L 326.919337 183.227746 
L 326.919337 183.227746 
L 327.319158 183.518775 
L 327.319158 183.518775 
L 327.718979 185.061348 
L 327.718979 185.061348 
L 328.1188 184.748999 
L 328.1188 184.748999 
L 328.518621 185.28337 
L 328.518621 185.28337 
L 328.918442 186.245849 
L 329.318262 186.213643 
L 329.318262 186.213643 
L 329.718083 187.362249 
L 329.718083 187.362249 
L 330.117904 187.257679 
L 330.117904 187.257679 
L 330.517725 187.291215 
L 330.917546 188.256748 
L 330.917546 188.256748 
L 331.317367 188.056197 
L 331.317367 188.056197 
L 331.717188 188.350583 
L 331.717188 188.350583 
L 332.117009 188.869683 
L 332.516829 188.826893 
L 332.516829 188.826893 
L 332.91665 188.975341 
L 332.91665 188.975341 
L 333.316471 189.478807 
L 333.716292 189.449021 
L 333.716292 189.449021 
L 335.315575 190.156334 
L 335.315575 190.156334 
L 335.715396 190.115722 
L 336.115217 190.220776 
L 336.115217 190.220776 
L 336.515038 190.193983 
L 336.914859 190.298009 
L 336.914859 190.298009 
L 337.714501 190.258273 
L 337.714501 190.258273 
L 338.114322 190.368075 
L 338.913963 190.353378 
L 338.913963 190.353378 
L 340.113426 190.430339 
L 340.113426 190.430339 
L 340.513247 190.206109 
L 340.913068 190.374304 
L 340.913068 190.374304 
L 341.712709 190.308169 
L 341.712709 190.308169 
L 342.11253 190.18597 
L 342.11253 190.18597 
L 342.912172 190.342522 
L 342.912172 190.342522 
L 343.311993 190.345788 
L 343.311993 190.345788 
L 343.711814 189.841234 
L 343.711814 189.841234 
L 344.511455 190.211462 
L 344.511455 190.211462 
L 344.911276 190.072479 
L 344.911276 190.072479 
L 345.311097 189.532967 
L 345.311097 189.532967 
L 345.710918 189.817556 
L 345.710918 189.817556 
L 346.110739 189.934554 
L 346.110739 189.934554 
L 346.51056 189.814169 
L 346.51056 189.814169 
L 346.910381 188.901253 
L 346.910381 188.901253 
L 347.310202 189.330087 
L 347.310202 189.330087 
L 347.710022 189.415606 
L 347.710022 189.415606 
L 348.109843 189.075527 
L 348.109843 189.075527 
L 348.509664 188.158529 
L 348.509664 188.158529 
L 348.909485 188.58579 
L 348.909485 188.58579 
L 349.309306 188.565499 
L 349.309306 188.565499 
L 349.709127 186.27878 
L 349.709127 186.27878 
L 350.508768 187.519134 
L 350.508768 187.519134 
L 350.908589 187.271862 
L 350.908589 187.271862 
L 351.30841 184.642373 
L 351.30841 184.642373 
L 352.108052 186.04312 
L 352.108052 186.04312 
L 352.507873 185.43336 
L 352.507873 185.43336 
L 352.907694 182.646503 
L 352.907694 182.646503 
L 353.307515 183.506105 
L 353.307515 183.506105 
L 353.707335 183.893963 
L 353.707335 183.893963 
L 354.107156 183.246252 
L 354.107156 183.246252 
L 354.506977 180.098843 
L 354.506977 180.098843 
L 354.906798 181.117659 
L 354.906798 181.117659 
L 355.306619 180.883934 
L 355.306619 180.883934 
L 355.70644 179.848879 
L 355.70644 179.848879 
L 356.106261 177.844814 
L 356.106261 177.844814 
L 356.506082 177.410356 
L 356.506082 177.410356 
L 356.905902 172.834953 
L 356.905902 172.834953 
L 357.305723 174.337972 
L 357.305723 174.337972 
L 357.705544 172.737822 
L 357.705544 172.737822 
L 358.105365 169.213622 
L 358.505186 168.659958 
L 358.905007 162.853999 
L 358.905007 162.853999 
L 359.304828 164.140318 
L 359.304828 164.140318 
L 359.704648 161.65456 
L 359.704648 161.65456 
L 360.104469 157.988958 
L 360.104469 157.988958 
L 360.50429 156.502813 
L 360.50429 156.502813 
L 360.904111 153.060533 
L 360.904111 153.060533 
L 363.303036 143.148768 
L 363.303036 143.148768 
L 363.702857 142.483247 
L 363.702857 142.483247 
L 364.102678 144.408446 
L 364.102678 144.408446 
L 364.502499 147.666745 
L 364.502499 147.666745 
L 364.90232 148.254702 
L 364.90232 148.254702 
L 365.302141 152.27508 
L 365.302141 152.27508 
L 365.701961 151.91852 
L 365.701961 151.91852 
L 366.101782 155.565403 
L 366.101782 155.565403 
L 366.501603 155.333644 
L 366.901424 158.00314 
L 366.901424 158.00314 
L 367.301245 158.176416 
L 367.301245 158.176416 
L 367.701066 159.965686 
L 367.701066 159.965686 
L 368.100887 160.389046 
L 368.100887 160.389046 
L 368.500708 161.450712 
L 368.500708 161.450712 
L 368.900528 161.966727 
L 368.900528 161.966727 
L 369.300349 162.771928 
L 369.300349 162.771928 
L 369.70017 163.047324 
L 369.70017 163.047324 
L 370.099991 163.665036 
L 370.099991 163.665036 
L 370.499812 163.647346 
L 370.499812 163.647346 
L 370.899633 163.804684 
L 371.299454 164.164812 
L 371.299454 164.164812 
L 371.699275 164.129643 
L 371.699275 164.129643 
L 372.498916 164.369205 
L 372.498916 164.369205 
L 372.898737 164.494156 
L 372.898737 164.494156 
L 374.897841 164.488199 
L 374.897841 164.488199 
L 375.297662 164.355324 
L 375.297662 164.355324 
L 375.697483 164.354962 
L 376.097304 164.650679 
L 376.097304 164.650679 
L 376.497125 164.36231 
L 376.497125 164.36231 
L 376.896946 164.382601 
L 376.896946 164.382601 
L 377.296767 164.602295 
L 377.296767 164.602295 
L 378.096408 164.278333 
L 378.096408 164.278333 
L 378.496229 164.367511 
L 378.496229 164.367511 
L 379.295871 164.29681 
L 379.295871 164.29681 
L 379.695692 164.398779 
L 380.095513 163.875839 
L 380.095513 163.875839 
L 380.895155 164.165115 
L 380.895155 164.165115 
L 381.294975 163.404186 
L 381.294975 163.404186 
L 382.094617 163.797729 
L 382.094617 163.797729 
L 382.494438 163.571292 
L 382.494438 163.571292 
L 382.894259 163.195772 
L 382.894259 163.195772 
L 383.29408 163.461884 
L 383.29408 163.461884 
L 383.693901 163.23714 
L 383.693901 163.23714 
L 384.093721 162.279469 
L 384.093721 162.279469 
L 384.493542 162.67646 
L 384.493542 162.67646 
L 384.893363 162.536116 
L 384.893363 162.536116 
L 385.293184 161.152908 
L 385.293184 161.152908 
L 385.693005 161.640014 
L 385.693005 161.640014 
L 386.092826 161.573456 
L 386.492647 160.134758 
L 386.492647 160.134758 
L 386.892468 160.741312 
L 386.892468 160.741312 
L 387.292288 160.300352 
L 387.692109 159.100459 
L 387.692109 159.100459 
L 388.09193 159.044697 
L 388.09193 159.044697 
L 388.491751 157.534602 
L 388.491751 157.534602 
L 388.891572 157.658314 
L 388.891572 157.658314 
L 389.291393 155.644299 
L 389.291393 155.644299 
L 389.691214 155.93421 
L 389.691214 155.93421 
L 390.091034 153.588735 
L 390.091034 153.588735 
L 390.490855 154.022558 
L 390.890676 151.230802 
L 390.890676 151.230802 
L 391.290497 152.237975 
L 391.290497 152.237975 
L 391.690318 151.329203 
L 391.690318 151.329203 
L 392.090139 149.295865 
L 392.090139 149.295865 
L 392.48996 149.541958 
L 392.48996 149.541958 
L 392.889781 148.605335 
L 392.889781 148.605335 
L 393.289601 146.754284 
L 393.289601 146.754284 
L 393.689422 146.878903 
L 393.689422 146.878903 
L 394.089243 145.986944 
L 394.089243 145.986944 
L 394.489064 143.893822 
L 394.489064 143.893822 
L 394.888885 144.159117 
L 394.888885 144.159117 
L 395.288706 139.760165 
L 395.288706 139.760165 
L 395.688527 278.249507 
L 395.688527 278.249507 
L 398.487273 267.718154 
L 398.487273 267.718154 
" clip-path="url(#p4d9d85ba20)" style="fill: none; stroke: #ff7f0e; stroke-width: 1.5; stroke-linecap: square"/>
   </g>
   <g id="patch_3">
    <path d="M 57.6 307.584 
L 57.6 41.472 
" style="fill: none; stroke: #000000; stroke-width: 0.8; stroke-linejoin: miter; stroke-linecap: square"/>
   </g>
   <g id="patch_4">
    <path d="M 414.72 307.584 
L 414.72 41.472 
" style="fill: none; stroke: #000000; stroke-width: 0.8; stroke-linejoin: miter; stroke-linecap: square"/>
   </g>
   <g id="patch_5">
    <path d="M 57.6 307.584 
L 414.72 307.584 
" style="fill: none; stroke: #000000; stroke-width: 0.8; stroke-linejoin: miter; stroke-linecap: square"/>
   </g>
   <g id="patch_6">
    <path d="M 57.6 41.472 
L 414.72 41.472 
" style="fill: none; stroke: #000000; stroke-width: 0.8; stroke-linejoin: miter; stroke-linecap: square"/>
   </g>
   <g id="text_21">
    <!-- Actual speed vs Expected speed -->
    <g transform="translate(138.808125 35.472) scale(0.12 -0.12)">
     <defs>
      <path id="DejaVuSans-41" d="M 2188 4044 
L 1331 1722 
L 3047 1722 
L 2188 4044 
z
M 1831 4666 
L 2547 4666 
L 4325 0 
L 3669 0 
L 3244 1197 
L 1141 1197 
L 716 0 
L 50 0 
L 1831 4666 
z
" transform="scale(0.015625)"/>
      <path id="DejaVuSans-75" d="M 544 1381 
L 544 3500 
L 1119 3500 
L 1119 1403 
Q 1119 906 1312 657 
Q 1506 409 1894 409 
Q 2359 409 2629 706 
Q 2900 1003 2900 1516 
L 2900 3500 
L 3475 3500 
L 3475 0 
L 2900 0 
L 2900 538 
Q 2691 219 2414 64 
Q 2138 -91 1772 -91 
Q 1169 -91 856 284 
Q 544 659 544 1381 
z
M 1991 3584 
L 1991 3584 
z
" transform="scale(0.015625)"/>
      <path id="DejaVuSans-61" d="M 2194 1759 
Q 1497 1759 1228 1600 
Q 959 1441 959 1056 
Q 959 750 1161 570 
Q 1363 391 1709 391 
Q 2188 391 2477 730 
Q 2766 1069 2766 1631 
L 2766 1759 
L 2194 1759 
z
M 3341 1997 
L 3341 0 
L 2766 0 
L 2766 531 
Q 2569 213 2275 61 
Q 1981 -91 1556 -91 
Q 1019 -91 701 211 
Q 384 513 384 1019 
Q 384 1609 779 1909 
Q 1175 2209 1959 2209 
L 2766 2209 
L 2766 2266 
Q 2766 2663 2505 2880 
Q 2244 3097 1772 3097 
Q 1472 3097 1187 3025 
Q 903 2953 641 2809 
L 641 3341 
Q 956 3463 1253 3523 
Q 1550 3584 1831 3584 
Q 2591 3584 2966 3190 
Q 3341 2797 3341 1997 
z
" transform="scale(0.015625)"/>
      <path id="DejaVuSans-20" transform="scale(0.015625)"/>
      <path id="DejaVuSans-70" d="M 1159 525 
L 1159 -1331 
L 581 -1331 
L 581 3500 
L 1159 3500 
L 1159 2969 
Q 1341 3281 1617 3432 
Q 1894 3584 2278 3584 
Q 2916 3584 3314 3078 
Q 3713 2572 3713 1747 
Q 3713 922 3314 415 
Q 2916 -91 2278 -91 
Q 1894 -91 1617 61 
Q 1341 213 1159 525 
z
M 3116 1747 
Q 3116 2381 2855 2742 
Q 2594 3103 2138 3103 
Q 1681 3103 1420 2742 
Q 1159 2381 1159 1747 
Q 1159 1113 1420 752 
Q 1681 391 2138 391 
Q 2594 391 2855 752 
Q 3116 1113 3116 1747 
z
" transform="scale(0.015625)"/>
      <path id="DejaVuSans-64" d="M 2906 2969 
L 2906 4863 
L 3481 4863 
L 3481 0 
L 2906 0 
L 2906 525 
Q 2725 213 2448 61 
Q 2172 -91 1784 -91 
Q 1150 -91 751 415 
Q 353 922 353 1747 
Q 353 2572 751 3078 
Q 1150 3584 1784 3584 
Q 2172 3584 2448 3432 
Q 2725 3281 2906 2969 
z
M 947 1747 
Q 947 1113 1208 752 
Q 1469 391 1925 391 
Q 2381 391 2643 752 
Q 2906 1113 2906 1747 
Q 2906 2381 2643 2742 
Q 2381 3103 1925 3103 
Q 1469 3103 1208 2742 
Q 947 2381 947 1747 
z
" transform="scale(0.015625)"/>
      <path id="DejaVuSans-76" d="M 191 3500 
L 800 3500 
L 1894 563 
L 2988 3500 
L 3597 3500 
L 2284 0 
L 1503 0 
L 191 3500 
z
" transform="scale(0.015625)"/>
      <path id="DejaVuSans-45" d="M 628 4666 
L 3578 4666 
L 3578 4134 
L 1259 4134 
L 1259 2753 
L 3481 2753 
L 3481 2222 
L 1259 2222 
L 1259 531 
L 3634 531 
L 3634 0 
L 628 0 
L 628 4666 
z
" transform="scale(0.015625)"/>
      <path id="DejaVuSans-78" d="M 3513 3500 
L 2247 1797 
L 3578 0 
L 2900 0 
L 1881 1375 
L 863 0 
L 184 0 
L 1544 1831 
L 300 3500 
L 978 3500 
L 1906 2253 
L 2834 3500 
L 3513 3500 
z
" transform="scale(0.015625)"/>
     </defs>
     <use xlink:href="#DejaVuSans-41"/>
     <use xlink:href="#DejaVuSans-63" x="66.658203"/>
     <use xlink:href="#DejaVuSans-74" x="121.638672"/>
     <use xlink:href="#DejaVuSans-75" x="160.847656"/>
     <use xlink:href="#DejaVuSans-61" x="224.226562"/>
     <use xlink:href="#DejaVuSans-6c" x="285.505859"/>
     <use xlink:href="#DejaVuSans-20" x="313.289062"/>
     <use xlink:href="#DejaVuSans-73" x="345.076172"/>
     <use xlink:href="#DejaVuSans-70" x="397.175781"/>
     <use xlink:href="#DejaVuSans-65" x="460.652344"/>
     <use xlink:href="#DejaVuSans-65" x="522.175781"/>
     <use xlink:href="#DejaVuSans-64" x="583.699219"/>
     <use xlink:href="#DejaVuSans-20" x="647.175781"/>
     <use xlink:href="#DejaVuSans-76" x="678.962891"/>
     <use xlink:href="#DejaVuSans-73" x="738.142578"/>
     <use xlink:href="#DejaVuSans-20" x="790.242188"/>
     <use xlink:href="#DejaVuSans-45" x="822.029297"/>
     <use xlink:href="#DejaVuSans-78" x="885.212891"/>
     <use xlink:href="#DejaVuSans-70" x="944.392578"/>
     <use xlink:href="#DejaVuSans-65" x="1007.869141"/>
     <use xlink:href="#DejaVuSans-63" x="1069.392578"/>
     <use xlink:href="#DejaVuSans-74" x="1124.373047"/>
     <use xlink:href="#DejaVuSans-65" x="1163.582031"/>
     <use xlink:href="#DejaVuSans-64" x="1225.105469"/>
     <use xlink:href="#DejaVuSans-20" x="1288.582031"/>
     <use xlink:href="#DejaVuSans-73" x="1320.369141"/>
     <use xlink:href="#DejaVuSans-70" x="1372.46875"/>
     <use xlink:href="#DejaVuSans-65" x="1435.945312"/>
     <use xlink:href="#DejaVuSans-65" x="1497.46875"/>
     <use xlink:href="#DejaVuSans-64" x="1558.992188"/>
    </g>
   </g>
   <g id="legend_1">
    <g id="patch_7">
     <path d="M 180.135 302.584 
L 292.185 302.584 
Q 294.185 302.584 294.185 300.584 
L 294.185 272.22775 
Q 294.185 270.22775 292.185 270.22775 
L 180.135 270.22775 
Q 178.135 270.22775 178.135 272.22775 
L 178.135 300.584 
Q 178.135 302.584 180.135 302.584 
z
" style="fill: #ffffff; opacity: 0.8; stroke: #cccccc; stroke-linejoin: miter"/>
    </g>
    <g id="line2d_39">
     <path d="M 182.135 278.326187 
L 192.135 278.326187 
L 202.135 278.326187 
" style="fill: none; stroke: #1f77b4; stroke-width: 1.5; stroke-linecap: square"/>
    </g>
    <g id="text_22">
     <!-- Actual speed -->
     <g transform="translate(210.135 281.826187) scale(0.1 -0.1)">
      <use xlink:href="#DejaVuSans-41"/>
      <use xlink:href="#DejaVuSans-63" x="66.658203"/>
      <use xlink:href="#DejaVuSans-74" x="121.638672"/>
      <use xlink:href="#DejaVuSans-75" x="160.847656"/>
      <use xlink:href="#DejaVuSans-61" x="224.226562"/>
      <use xlink:href="#DejaVuSans-6c" x="285.505859"/>
      <use xlink:href="#DejaVuSans-20" x="313.289062"/>
      <use xlink:href="#DejaVuSans-73" x="345.076172"/>
      <use xlink:href="#DejaVuSans-70" x="397.175781"/>
      <use xlink:href="#DejaVuSans-65" x="460.652344"/>
      <use xlink:href="#DejaVuSans-65" x="522.175781"/>
      <use xlink:href="#DejaVuSans-64" x="583.699219"/>
     </g>
    </g>
    <g id="line2d_40">
     <path d="M 182.135 293.004312 
L 192.135 293.004312 
L 202.135 293.004312 
" style="fill: none; stroke: #ff7f0e; stroke-width: 1.5; stroke-linecap: square"/>
    </g>
    <g id="text_23">
     <!-- Expected speed -->
     <g transform="translate(210.135 296.504312) scale(0.1 -0.1)">
      <use xlink:href="#DejaVuSans-45"/>
      <use xlink:href="#DejaVuSans-78" x="63.183594"/>
      <use xlink:href="#DejaVuSans-70" x="122.363281"/>
      <use xlink:href="#DejaVuSans-65" x="185.839844"/>
      <use xlink:href="#DejaVuSans-63" x="247.363281"/>
      <use xlink:href="#DejaVuSans-74" x="302.34375"/>
      <use xlink:href="#DejaVuSans-65" x="341.552734"/>
      <use xlink:href="#DejaVuSans-64" x="403.076172"/>
      <use xlink:href="#DejaVuSans-20" x="466.552734"/>
      <use xlink:href="#DejaVuSans-73" x="498.339844"/>
      <use xlink:href="#DejaVuSans-70" x="550.439453"/>
      <use xlink:href="#DejaVuSans-65" x="613.916016"/>
      <use xlink:href="#DejaVuSans-65" x="675.439453"/>
      <use xlink:href="#DejaVuSans-64" x="736.962891"/>
     </g>
    </g>
   </g>
  </g>
 </g>
 <defs>
  <clipPath id="p4d9d85ba20">
   <rect x="57.6" y="41.472" width="357.12" height="266.112"/>
  </clipPath>
 </defs>
</svg>
