<?xml version="1.0" encoding="utf-8" standalone="no"?>
<!DOCTYPE svg PUBLIC "-//W3C//DTD SVG 1.1//EN"
  "http://www.w3.org/Graphics/SVG/1.1/DTD/svg11.dtd">
<svg xmlns:xlink="http://www.w3.org/1999/xlink" width="460.8pt" height="345.6pt" viewBox="0 0 460.8 345.6" xmlns="http://www.w3.org/2000/svg" version="1.1">
 <metadata>
  <rdf:RDF xmlns:dc="http://purl.org/dc/elements/1.1/" xmlns:cc="http://creativecommons.org/ns#" xmlns:rdf="http://www.w3.org/1999/02/22-rdf-syntax-ns#">
   <cc:Work>
    <dc:type rdf:resource="http://purl.org/dc/dcmitype/StillImage"/>
    <dc:date>2024-01-30T20:58:28.586094</dc:date>
    <dc:format>image/svg+xml</dc:format>
    <dc:creator>
     <cc:Agent>
      <dc:title>Matplotlib v3.7.1, https://matplotlib.org/</dc:title>
     </cc:Agent>
    </dc:creator>
   </cc:Work>
  </rdf:RDF>
 </metadata>
 <defs>
  <style type="text/css">*{stroke-linejoin: round; stroke-linecap: butt}</style>
 </defs>
 <g id="figure_1">
  <g id="patch_1">
   <path d="M 0 345.6 
L 460.8 345.6 
L 460.8 0 
L 0 0 
z
" style="fill: #ffffff"/>
  </g>
  <g id="axes_1">
   <g id="patch_2">
    <path d="M 57.6 307.584 
L 414.72 307.584 
L 414.72 41.472 
L 57.6 41.472 
z
" style="fill: #ffffff"/>
   </g>
   <g id="matplotlib.axis_1">
    <g id="xtick_1">
     <g id="line2d_1">
      <path d="M 73.832727 307.584 
L 73.832727 41.472 
" clip-path="url(#pdddb990ce9)" style="fill: none; stroke: #b0b0b0; stroke-width: 0.8; stroke-linecap: square"/>
     </g>
     <g id="line2d_2">
      <defs>
       <path id="m7b21353ddc" d="M 0 0 
L 0 3.5 
" style="stroke: #000000; stroke-width: 0.8"/>
      </defs>
      <g>
       <use xlink:href="#m7b21353ddc" x="73.832727" y="307.584" style="stroke: #000000; stroke-width: 0.8"/>
      </g>
     </g>
     <g id="text_1">
      <!-- 0 -->
      <g transform="translate(70.651477 322.182437) scale(0.1 -0.1)">
       <defs>
        <path id="DejaVuSans-30" d="M 2034 4250 
Q 1547 4250 1301 3770 
Q 1056 3291 1056 2328 
Q 1056 1369 1301 889 
Q 1547 409 2034 409 
Q 2525 409 2770 889 
Q 3016 1369 3016 2328 
Q 3016 3291 2770 3770 
Q 2525 4250 2034 4250 
z
M 2034 4750 
Q 2819 4750 3233 4129 
Q 3647 3509 3647 2328 
Q 3647 1150 3233 529 
Q 2819 -91 2034 -91 
Q 1250 -91 836 529 
Q 422 1150 422 2328 
Q 422 3509 836 4129 
Q 1250 4750 2034 4750 
z
" transform="scale(0.015625)"/>
       </defs>
       <use xlink:href="#DejaVuSans-30"/>
      </g>
     </g>
    </g>
    <g id="xtick_2">
     <g id="line2d_3">
      <path d="M 148.500286 307.584 
L 148.500286 41.472 
" clip-path="url(#pdddb990ce9)" style="fill: none; stroke: #b0b0b0; stroke-width: 0.8; stroke-linecap: square"/>
     </g>
     <g id="line2d_4">
      <g>
       <use xlink:href="#m7b21353ddc" x="148.500286" y="307.584" style="stroke: #000000; stroke-width: 0.8"/>
      </g>
     </g>
     <g id="text_2">
      <!-- 5 -->
      <g transform="translate(145.319036 322.182437) scale(0.1 -0.1)">
       <defs>
        <path id="DejaVuSans-35" d="M 691 4666 
L 3169 4666 
L 3169 4134 
L 1269 4134 
L 1269 2991 
Q 1406 3038 1543 3061 
Q 1681 3084 1819 3084 
Q 2600 3084 3056 2656 
Q 3513 2228 3513 1497 
Q 3513 744 3044 326 
Q 2575 -91 1722 -91 
Q 1428 -91 1123 -41 
Q 819 9 494 109 
L 494 744 
Q 775 591 1075 516 
Q 1375 441 1709 441 
Q 2250 441 2565 725 
Q 2881 1009 2881 1497 
Q 2881 1984 2565 2268 
Q 2250 2553 1709 2553 
Q 1456 2553 1204 2497 
Q 953 2441 691 2322 
L 691 4666 
z
" transform="scale(0.015625)"/>
       </defs>
       <use xlink:href="#DejaVuSans-35"/>
      </g>
     </g>
    </g>
    <g id="xtick_3">
     <g id="line2d_5">
      <path d="M 223.167845 307.584 
L 223.167845 41.472 
" clip-path="url(#pdddb990ce9)" style="fill: none; stroke: #b0b0b0; stroke-width: 0.8; stroke-linecap: square"/>
     </g>
     <g id="line2d_6">
      <g>
       <use xlink:href="#m7b21353ddc" x="223.167845" y="307.584" style="stroke: #000000; stroke-width: 0.8"/>
      </g>
     </g>
     <g id="text_3">
      <!-- 10 -->
      <g transform="translate(216.805345 322.182437) scale(0.1 -0.1)">
       <defs>
        <path id="DejaVuSans-31" d="M 794 531 
L 1825 531 
L 1825 4091 
L 703 3866 
L 703 4441 
L 1819 4666 
L 2450 4666 
L 2450 531 
L 3481 531 
L 3481 0 
L 794 0 
L 794 531 
z
" transform="scale(0.015625)"/>
       </defs>
       <use xlink:href="#DejaVuSans-31"/>
       <use xlink:href="#DejaVuSans-30" x="63.623047"/>
      </g>
     </g>
    </g>
    <g id="xtick_4">
     <g id="line2d_7">
      <path d="M 297.835404 307.584 
L 297.835404 41.472 
" clip-path="url(#pdddb990ce9)" style="fill: none; stroke: #b0b0b0; stroke-width: 0.8; stroke-linecap: square"/>
     </g>
     <g id="line2d_8">
      <g>
       <use xlink:href="#m7b21353ddc" x="297.835404" y="307.584" style="stroke: #000000; stroke-width: 0.8"/>
      </g>
     </g>
     <g id="text_4">
      <!-- 15 -->
      <g transform="translate(291.472904 322.182437) scale(0.1 -0.1)">
       <use xlink:href="#DejaVuSans-31"/>
       <use xlink:href="#DejaVuSans-35" x="63.623047"/>
      </g>
     </g>
    </g>
    <g id="xtick_5">
     <g id="line2d_9">
      <path d="M 372.502962 307.584 
L 372.502962 41.472 
" clip-path="url(#pdddb990ce9)" style="fill: none; stroke: #b0b0b0; stroke-width: 0.8; stroke-linecap: square"/>
     </g>
     <g id="line2d_10">
      <g>
       <use xlink:href="#m7b21353ddc" x="372.502962" y="307.584" style="stroke: #000000; stroke-width: 0.8"/>
      </g>
     </g>
     <g id="text_5">
      <!-- 20 -->
      <g transform="translate(366.140462 322.182437) scale(0.1 -0.1)">
       <defs>
        <path id="DejaVuSans-32" d="M 1228 531 
L 3431 531 
L 3431 0 
L 469 0 
L 469 531 
Q 828 903 1448 1529 
Q 2069 2156 2228 2338 
Q 2531 2678 2651 2914 
Q 2772 3150 2772 3378 
Q 2772 3750 2511 3984 
Q 2250 4219 1831 4219 
Q 1534 4219 1204 4116 
Q 875 4013 500 3803 
L 500 4441 
Q 881 4594 1212 4672 
Q 1544 4750 1819 4750 
Q 2544 4750 2975 4387 
Q 3406 4025 3406 3419 
Q 3406 3131 3298 2873 
Q 3191 2616 2906 2266 
Q 2828 2175 2409 1742 
Q 1991 1309 1228 531 
z
" transform="scale(0.015625)"/>
       </defs>
       <use xlink:href="#DejaVuSans-32"/>
       <use xlink:href="#DejaVuSans-30" x="63.623047"/>
      </g>
     </g>
    </g>
    <g id="text_6">
     <!-- Time(s) -->
     <g transform="translate(217.420156 335.860562) scale(0.1 -0.1)">
      <defs>
       <path id="DejaVuSans-54" d="M -19 4666 
L 3928 4666 
L 3928 4134 
L 2272 4134 
L 2272 0 
L 1638 0 
L 1638 4134 
L -19 4134 
L -19 4666 
z
" transform="scale(0.015625)"/>
       <path id="DejaVuSans-69" d="M 603 3500 
L 1178 3500 
L 1178 0 
L 603 0 
L 603 3500 
z
M 603 4863 
L 1178 4863 
L 1178 4134 
L 603 4134 
L 603 4863 
z
" transform="scale(0.015625)"/>
       <path id="DejaVuSans-6d" d="M 3328 2828 
Q 3544 3216 3844 3400 
Q 4144 3584 4550 3584 
Q 5097 3584 5394 3201 
Q 5691 2819 5691 2113 
L 5691 0 
L 5113 0 
L 5113 2094 
Q 5113 2597 4934 2840 
Q 4756 3084 4391 3084 
Q 3944 3084 3684 2787 
Q 3425 2491 3425 1978 
L 3425 0 
L 2847 0 
L 2847 2094 
Q 2847 2600 2669 2842 
Q 2491 3084 2119 3084 
Q 1678 3084 1418 2786 
Q 1159 2488 1159 1978 
L 1159 0 
L 581 0 
L 581 3500 
L 1159 3500 
L 1159 2956 
Q 1356 3278 1631 3431 
Q 1906 3584 2284 3584 
Q 2666 3584 2933 3390 
Q 3200 3197 3328 2828 
z
" transform="scale(0.015625)"/>
       <path id="DejaVuSans-65" d="M 3597 1894 
L 3597 1613 
L 953 1613 
Q 991 1019 1311 708 
Q 1631 397 2203 397 
Q 2534 397 2845 478 
Q 3156 559 3463 722 
L 3463 178 
Q 3153 47 2828 -22 
Q 2503 -91 2169 -91 
Q 1331 -91 842 396 
Q 353 884 353 1716 
Q 353 2575 817 3079 
Q 1281 3584 2069 3584 
Q 2775 3584 3186 3129 
Q 3597 2675 3597 1894 
z
M 3022 2063 
Q 3016 2534 2758 2815 
Q 2500 3097 2075 3097 
Q 1594 3097 1305 2825 
Q 1016 2553 972 2059 
L 3022 2063 
z
" transform="scale(0.015625)"/>
       <path id="DejaVuSans-28" d="M 1984 4856 
Q 1566 4138 1362 3434 
Q 1159 2731 1159 2009 
Q 1159 1288 1364 580 
Q 1569 -128 1984 -844 
L 1484 -844 
Q 1016 -109 783 600 
Q 550 1309 550 2009 
Q 550 2706 781 3412 
Q 1013 4119 1484 4856 
L 1984 4856 
z
" transform="scale(0.015625)"/>
       <path id="DejaVuSans-73" d="M 2834 3397 
L 2834 2853 
Q 2591 2978 2328 3040 
Q 2066 3103 1784 3103 
Q 1356 3103 1142 2972 
Q 928 2841 928 2578 
Q 928 2378 1081 2264 
Q 1234 2150 1697 2047 
L 1894 2003 
Q 2506 1872 2764 1633 
Q 3022 1394 3022 966 
Q 3022 478 2636 193 
Q 2250 -91 1575 -91 
Q 1294 -91 989 -36 
Q 684 19 347 128 
L 347 722 
Q 666 556 975 473 
Q 1284 391 1588 391 
Q 1994 391 2212 530 
Q 2431 669 2431 922 
Q 2431 1156 2273 1281 
Q 2116 1406 1581 1522 
L 1381 1569 
Q 847 1681 609 1914 
Q 372 2147 372 2553 
Q 372 3047 722 3315 
Q 1072 3584 1716 3584 
Q 2034 3584 2315 3537 
Q 2597 3491 2834 3397 
z
" transform="scale(0.015625)"/>
       <path id="DejaVuSans-29" d="M 513 4856 
L 1013 4856 
Q 1481 4119 1714 3412 
Q 1947 2706 1947 2009 
Q 1947 1309 1714 600 
Q 1481 -109 1013 -844 
L 513 -844 
Q 928 -128 1133 580 
Q 1338 1288 1338 2009 
Q 1338 2731 1133 3434 
Q 928 4138 513 4856 
z
" transform="scale(0.015625)"/>
      </defs>
      <use xlink:href="#DejaVuSans-54"/>
      <use xlink:href="#DejaVuSans-69" x="57.958984"/>
      <use xlink:href="#DejaVuSans-6d" x="85.742188"/>
      <use xlink:href="#DejaVuSans-65" x="183.154297"/>
      <use xlink:href="#DejaVuSans-28" x="244.677734"/>
      <use xlink:href="#DejaVuSans-73" x="283.691406"/>
      <use xlink:href="#DejaVuSans-29" x="335.791016"/>
     </g>
    </g>
   </g>
   <g id="matplotlib.axis_2">
    <g id="ytick_1">
     <g id="line2d_11">
      <path d="M 57.6 295.488 
L 414.72 295.488 
" clip-path="url(#pdddb990ce9)" style="fill: none; stroke: #b0b0b0; stroke-width: 0.8; stroke-linecap: square"/>
     </g>
     <g id="line2d_12">
      <defs>
       <path id="mfa54268e4e" d="M 0 0 
L -3.5 0 
" style="stroke: #000000; stroke-width: 0.8"/>
      </defs>
      <g>
       <use xlink:href="#mfa54268e4e" x="57.6" y="295.488" style="stroke: #000000; stroke-width: 0.8"/>
      </g>
     </g>
     <g id="text_7">
      <!-- 0 -->
      <g transform="translate(44.2375 299.287219) scale(0.1 -0.1)">
       <use xlink:href="#DejaVuSans-30"/>
      </g>
     </g>
    </g>
    <g id="ytick_2">
     <g id="line2d_13">
      <path d="M 57.6 265.248 
L 414.72 265.248 
" clip-path="url(#pdddb990ce9)" style="fill: none; stroke: #b0b0b0; stroke-width: 0.8; stroke-linecap: square"/>
     </g>
     <g id="line2d_14">
      <g>
       <use xlink:href="#mfa54268e4e" x="57.6" y="265.248" style="stroke: #000000; stroke-width: 0.8"/>
      </g>
     </g>
     <g id="text_8">
      <!-- 1 -->
      <g transform="translate(44.2375 269.047219) scale(0.1 -0.1)">
       <use xlink:href="#DejaVuSans-31"/>
      </g>
     </g>
    </g>
    <g id="ytick_3">
     <g id="line2d_15">
      <path d="M 57.6 235.008 
L 414.72 235.008 
" clip-path="url(#pdddb990ce9)" style="fill: none; stroke: #b0b0b0; stroke-width: 0.8; stroke-linecap: square"/>
     </g>
     <g id="line2d_16">
      <g>
       <use xlink:href="#mfa54268e4e" x="57.6" y="235.008" style="stroke: #000000; stroke-width: 0.8"/>
      </g>
     </g>
     <g id="text_9">
      <!-- 2 -->
      <g transform="translate(44.2375 238.807219) scale(0.1 -0.1)">
       <use xlink:href="#DejaVuSans-32"/>
      </g>
     </g>
    </g>
    <g id="ytick_4">
     <g id="line2d_17">
      <path d="M 57.6 204.768 
L 414.72 204.768 
" clip-path="url(#pdddb990ce9)" style="fill: none; stroke: #b0b0b0; stroke-width: 0.8; stroke-linecap: square"/>
     </g>
     <g id="line2d_18">
      <g>
       <use xlink:href="#mfa54268e4e" x="57.6" y="204.768" style="stroke: #000000; stroke-width: 0.8"/>
      </g>
     </g>
     <g id="text_10">
      <!-- 3 -->
      <g transform="translate(44.2375 208.567219) scale(0.1 -0.1)">
       <defs>
        <path id="DejaVuSans-33" d="M 2597 2516 
Q 3050 2419 3304 2112 
Q 3559 1806 3559 1356 
Q 3559 666 3084 287 
Q 2609 -91 1734 -91 
Q 1441 -91 1130 -33 
Q 819 25 488 141 
L 488 750 
Q 750 597 1062 519 
Q 1375 441 1716 441 
Q 2309 441 2620 675 
Q 2931 909 2931 1356 
Q 2931 1769 2642 2001 
Q 2353 2234 1838 2234 
L 1294 2234 
L 1294 2753 
L 1863 2753 
Q 2328 2753 2575 2939 
Q 2822 3125 2822 3475 
Q 2822 3834 2567 4026 
Q 2313 4219 1838 4219 
Q 1578 4219 1281 4162 
Q 984 4106 628 3988 
L 628 4550 
Q 988 4650 1302 4700 
Q 1616 4750 1894 4750 
Q 2613 4750 3031 4423 
Q 3450 4097 3450 3541 
Q 3450 3153 3228 2886 
Q 3006 2619 2597 2516 
z
" transform="scale(0.015625)"/>
       </defs>
       <use xlink:href="#DejaVuSans-33"/>
      </g>
     </g>
    </g>
    <g id="ytick_5">
     <g id="line2d_19">
      <path d="M 57.6 174.528 
L 414.72 174.528 
" clip-path="url(#pdddb990ce9)" style="fill: none; stroke: #b0b0b0; stroke-width: 0.8; stroke-linecap: square"/>
     </g>
     <g id="line2d_20">
      <g>
       <use xlink:href="#mfa54268e4e" x="57.6" y="174.528" style="stroke: #000000; stroke-width: 0.8"/>
      </g>
     </g>
     <g id="text_11">
      <!-- 4 -->
      <g transform="translate(44.2375 178.327219) scale(0.1 -0.1)">
       <defs>
        <path id="DejaVuSans-34" d="M 2419 4116 
L 825 1625 
L 2419 1625 
L 2419 4116 
z
M 2253 4666 
L 3047 4666 
L 3047 1625 
L 3713 1625 
L 3713 1100 
L 3047 1100 
L 3047 0 
L 2419 0 
L 2419 1100 
L 313 1100 
L 313 1709 
L 2253 4666 
z
" transform="scale(0.015625)"/>
       </defs>
       <use xlink:href="#DejaVuSans-34"/>
      </g>
     </g>
    </g>
    <g id="ytick_6">
     <g id="line2d_21">
      <path d="M 57.6 144.288 
L 414.72 144.288 
" clip-path="url(#pdddb990ce9)" style="fill: none; stroke: #b0b0b0; stroke-width: 0.8; stroke-linecap: square"/>
     </g>
     <g id="line2d_22">
      <g>
       <use xlink:href="#mfa54268e4e" x="57.6" y="144.288" style="stroke: #000000; stroke-width: 0.8"/>
      </g>
     </g>
     <g id="text_12">
      <!-- 5 -->
      <g transform="translate(44.2375 148.087219) scale(0.1 -0.1)">
       <use xlink:href="#DejaVuSans-35"/>
      </g>
     </g>
    </g>
    <g id="ytick_7">
     <g id="line2d_23">
      <path d="M 57.6 114.048 
L 414.72 114.048 
" clip-path="url(#pdddb990ce9)" style="fill: none; stroke: #b0b0b0; stroke-width: 0.8; stroke-linecap: square"/>
     </g>
     <g id="line2d_24">
      <g>
       <use xlink:href="#mfa54268e4e" x="57.6" y="114.048" style="stroke: #000000; stroke-width: 0.8"/>
      </g>
     </g>
     <g id="text_13">
      <!-- 6 -->
      <g transform="translate(44.2375 117.847219) scale(0.1 -0.1)">
       <defs>
        <path id="DejaVuSans-36" d="M 2113 2584 
Q 1688 2584 1439 2293 
Q 1191 2003 1191 1497 
Q 1191 994 1439 701 
Q 1688 409 2113 409 
Q 2538 409 2786 701 
Q 3034 994 3034 1497 
Q 3034 2003 2786 2293 
Q 2538 2584 2113 2584 
z
M 3366 4563 
L 3366 3988 
Q 3128 4100 2886 4159 
Q 2644 4219 2406 4219 
Q 1781 4219 1451 3797 
Q 1122 3375 1075 2522 
Q 1259 2794 1537 2939 
Q 1816 3084 2150 3084 
Q 2853 3084 3261 2657 
Q 3669 2231 3669 1497 
Q 3669 778 3244 343 
Q 2819 -91 2113 -91 
Q 1303 -91 875 529 
Q 447 1150 447 2328 
Q 447 3434 972 4092 
Q 1497 4750 2381 4750 
Q 2619 4750 2861 4703 
Q 3103 4656 3366 4563 
z
" transform="scale(0.015625)"/>
       </defs>
       <use xlink:href="#DejaVuSans-36"/>
      </g>
     </g>
    </g>
    <g id="ytick_8">
     <g id="line2d_25">
      <path d="M 57.6 83.808 
L 414.72 83.808 
" clip-path="url(#pdddb990ce9)" style="fill: none; stroke: #b0b0b0; stroke-width: 0.8; stroke-linecap: square"/>
     </g>
     <g id="line2d_26">
      <g>
       <use xlink:href="#mfa54268e4e" x="57.6" y="83.808" style="stroke: #000000; stroke-width: 0.8"/>
      </g>
     </g>
     <g id="text_14">
      <!-- 7 -->
      <g transform="translate(44.2375 87.607219) scale(0.1 -0.1)">
       <defs>
        <path id="DejaVuSans-37" d="M 525 4666 
L 3525 4666 
L 3525 4397 
L 1831 0 
L 1172 0 
L 2766 4134 
L 525 4134 
L 525 4666 
z
" transform="scale(0.015625)"/>
       </defs>
       <use xlink:href="#DejaVuSans-37"/>
      </g>
     </g>
    </g>
    <g id="ytick_9">
     <g id="line2d_27">
      <path d="M 57.6 53.568 
L 414.72 53.568 
" clip-path="url(#pdddb990ce9)" style="fill: none; stroke: #b0b0b0; stroke-width: 0.8; stroke-linecap: square"/>
     </g>
     <g id="line2d_28">
      <g>
       <use xlink:href="#mfa54268e4e" x="57.6" y="53.568" style="stroke: #000000; stroke-width: 0.8"/>
      </g>
     </g>
     <g id="text_15">
      <!-- 8 -->
      <g transform="translate(44.2375 57.367219) scale(0.1 -0.1)">
       <defs>
        <path id="DejaVuSans-38" d="M 2034 2216 
Q 1584 2216 1326 1975 
Q 1069 1734 1069 1313 
Q 1069 891 1326 650 
Q 1584 409 2034 409 
Q 2484 409 2743 651 
Q 3003 894 3003 1313 
Q 3003 1734 2745 1975 
Q 2488 2216 2034 2216 
z
M 1403 2484 
Q 997 2584 770 2862 
Q 544 3141 544 3541 
Q 544 4100 942 4425 
Q 1341 4750 2034 4750 
Q 2731 4750 3128 4425 
Q 3525 4100 3525 3541 
Q 3525 3141 3298 2862 
Q 3072 2584 2669 2484 
Q 3125 2378 3379 2068 
Q 3634 1759 3634 1313 
Q 3634 634 3220 271 
Q 2806 -91 2034 -91 
Q 1263 -91 848 271 
Q 434 634 434 1313 
Q 434 1759 690 2068 
Q 947 2378 1403 2484 
z
M 1172 3481 
Q 1172 3119 1398 2916 
Q 1625 2713 2034 2713 
Q 2441 2713 2670 2916 
Q 2900 3119 2900 3481 
Q 2900 3844 2670 4047 
Q 2441 4250 2034 4250 
Q 1625 4250 1398 4047 
Q 1172 3844 1172 3481 
z
" transform="scale(0.015625)"/>
       </defs>
       <use xlink:href="#DejaVuSans-38"/>
      </g>
     </g>
    </g>
    <g id="text_16">
     <!-- Velocity(m/s) -->
     <g transform="translate(38.157812 207.204563) rotate(-90) scale(0.1 -0.1)">
      <defs>
       <path id="DejaVuSans-56" d="M 1831 0 
L 50 4666 
L 709 4666 
L 2188 738 
L 3669 4666 
L 4325 4666 
L 2547 0 
L 1831 0 
z
" transform="scale(0.015625)"/>
       <path id="DejaVuSans-6c" d="M 603 4863 
L 1178 4863 
L 1178 0 
L 603 0 
L 603 4863 
z
" transform="scale(0.015625)"/>
       <path id="DejaVuSans-6f" d="M 1959 3097 
Q 1497 3097 1228 2736 
Q 959 2375 959 1747 
Q 959 1119 1226 758 
Q 1494 397 1959 397 
Q 2419 397 2687 759 
Q 2956 1122 2956 1747 
Q 2956 2369 2687 2733 
Q 2419 3097 1959 3097 
z
M 1959 3584 
Q 2709 3584 3137 3096 
Q 3566 2609 3566 1747 
Q 3566 888 3137 398 
Q 2709 -91 1959 -91 
Q 1206 -91 779 398 
Q 353 888 353 1747 
Q 353 2609 779 3096 
Q 1206 3584 1959 3584 
z
" transform="scale(0.015625)"/>
       <path id="DejaVuSans-63" d="M 3122 3366 
L 3122 2828 
Q 2878 2963 2633 3030 
Q 2388 3097 2138 3097 
Q 1578 3097 1268 2742 
Q 959 2388 959 1747 
Q 959 1106 1268 751 
Q 1578 397 2138 397 
Q 2388 397 2633 464 
Q 2878 531 3122 666 
L 3122 134 
Q 2881 22 2623 -34 
Q 2366 -91 2075 -91 
Q 1284 -91 818 406 
Q 353 903 353 1747 
Q 353 2603 823 3093 
Q 1294 3584 2113 3584 
Q 2378 3584 2631 3529 
Q 2884 3475 3122 3366 
z
" transform="scale(0.015625)"/>
       <path id="DejaVuSans-74" d="M 1172 4494 
L 1172 3500 
L 2356 3500 
L 2356 3053 
L 1172 3053 
L 1172 1153 
Q 1172 725 1289 603 
Q 1406 481 1766 481 
L 2356 481 
L 2356 0 
L 1766 0 
Q 1100 0 847 248 
Q 594 497 594 1153 
L 594 3053 
L 172 3053 
L 172 3500 
L 594 3500 
L 594 4494 
L 1172 4494 
z
" transform="scale(0.015625)"/>
       <path id="DejaVuSans-79" d="M 2059 -325 
Q 1816 -950 1584 -1140 
Q 1353 -1331 966 -1331 
L 506 -1331 
L 506 -850 
L 844 -850 
Q 1081 -850 1212 -737 
Q 1344 -625 1503 -206 
L 1606 56 
L 191 3500 
L 800 3500 
L 1894 763 
L 2988 3500 
L 3597 3500 
L 2059 -325 
z
" transform="scale(0.015625)"/>
       <path id="DejaVuSans-2f" d="M 1625 4666 
L 2156 4666 
L 531 -594 
L 0 -594 
L 1625 4666 
z
" transform="scale(0.015625)"/>
      </defs>
      <use xlink:href="#DejaVuSans-56"/>
      <use xlink:href="#DejaVuSans-65" x="60.658203"/>
      <use xlink:href="#DejaVuSans-6c" x="122.181641"/>
      <use xlink:href="#DejaVuSans-6f" x="149.964844"/>
      <use xlink:href="#DejaVuSans-63" x="211.146484"/>
      <use xlink:href="#DejaVuSans-69" x="266.126953"/>
      <use xlink:href="#DejaVuSans-74" x="293.910156"/>
      <use xlink:href="#DejaVuSans-79" x="333.119141"/>
      <use xlink:href="#DejaVuSans-28" x="392.298828"/>
      <use xlink:href="#DejaVuSans-6d" x="431.3125"/>
      <use xlink:href="#DejaVuSans-2f" x="528.724609"/>
      <use xlink:href="#DejaVuSans-73" x="562.416016"/>
      <use xlink:href="#DejaVuSans-29" x="614.515625"/>
     </g>
    </g>
   </g>
   <g id="line2d_29">
    <path d="M 73.832727 53.568 
L 73.832727 295.488 
L 74.131398 290.311517 
L 74.131398 290.311517 
L 79.806132 261.850143 
L 79.806132 261.850143 
L 85.480866 232.258519 
L 85.480866 232.258519 
L 91.155601 201.491768 
L 91.155601 201.491768 
L 96.830335 169.503231 
L 96.830335 169.503231 
L 102.50507 136.244372 
L 102.50507 136.244372 
L 108.179804 101.66478 
L 108.179804 101.66478 
L 113.854539 66.997372 
L 113.854539 66.997372 
L 114.750549 63.593558 
L 114.750549 63.593558 
L 115.64656 61.0537 
L 115.64656 61.0537 
L 116.243901 60.165552 
L 116.243901 60.165552 
L 116.841241 59.722384 
L 116.841241 59.722384 
L 117.139911 59.727011 
L 117.139911 59.727011 
L 117.438582 60.512949 
L 117.438582 60.512949 
L 117.737252 61.912909 
L 117.737252 61.912909 
L 118.035922 62.730539 
L 118.035922 62.730539 
L 118.334592 63.920906 
L 118.334592 63.920906 
L 118.633263 65.738663 
L 118.633263 65.738663 
L 119.230603 70.063345 
L 119.230603 70.063345 
L 119.529273 72.171073 
L 119.529273 72.171073 
L 119.827943 75.10771 
L 119.827943 75.10771 
L 120.126614 79.252314 
L 120.126614 79.252314 
L 120.723954 84.569897 
L 120.723954 84.569897 
L 121.321295 91.624133 
L 121.321295 91.624133 
L 123.710657 115.346022 
L 123.710657 115.346022 
L 124.009327 117.04306 
L 124.009327 117.04306 
L 124.606667 120.968666 
L 124.606667 120.968666 
L 125.801348 127.847722 
L 125.801348 127.847722 
L 127.59337 134.425345 
L 127.59337 134.425345 
L 128.48938 136.541087 
L 128.48938 136.541087 
L 129.684061 138.487121 
L 129.684061 138.487121 
L 130.281402 138.972413 
L 130.281402 138.972413 
L 130.878742 139.251074 
L 130.878742 139.251074 
L 131.774753 139.41434 
L 131.774753 139.41434 
L 134.164115 139.422021 
L 134.164115 139.422021 
L 135.060125 139.243454 
L 135.060125 139.243454 
L 135.657466 138.994579 
L 135.657466 138.994579 
L 136.852147 137.807447 
L 136.852147 137.807447 
L 138.046828 135.705586 
L 138.046828 135.705586 
L 139.241509 132.234729 
L 139.241509 132.234729 
L 140.137519 128.478377 
L 140.137519 128.478377 
L 141.03353 123.565828 
L 141.03353 123.565828 
L 144.617573 102.129146 
L 144.617573 102.129146 
L 145.513584 98.491728 
L 145.513584 98.491728 
L 146.409594 95.797464 
L 146.409594 95.797464 
L 147.604275 93.152674 
L 147.604275 93.152674 
L 148.798956 90.784761 
L 148.798956 90.784761 
L 149.993637 87.450378 
L 149.993637 87.450378 
L 150.590978 85.379059 
L 150.590978 85.379059 
L 151.785659 78.956446 
L 151.785659 78.956446 
L 153.27901 70.147534 
L 153.27901 70.147534 
L 153.87635 67.994264 
L 153.87635 67.994264 
L 154.772361 65.972267 
L 154.772361 65.972267 
L 155.668372 64.656706 
L 155.668372 64.656706 
L 156.564382 63.73369 
L 156.564382 63.73369 
L 158.057734 62.50135 
L 158.057734 62.50135 
L 158.655074 62.019596 
L 158.655074 62.019596 
L 159.252414 61.159298 
L 159.252414 61.159298 
L 159.849755 60.213875 
L 159.849755 60.213875 
L 160.745766 58.529416 
L 160.745766 58.529416 
L 161.641776 57.271886 
L 161.641776 57.271886 
L 162.537787 56.333115 
L 162.537787 56.333115 
L 163.732468 55.440612 
L 163.732468 55.440612 
L 164.927149 54.836205 
L 164.927149 54.836205 
L 166.4205 54.347134 
L 166.4205 54.347134 
L 168.212522 54.002216 
L 168.212522 54.002216 
L 170.900554 53.748654 
L 170.900554 53.748654 
L 175.081937 53.614176 
L 175.081937 53.614176 
L 181.951352 53.572899 
L 181.951352 53.572899 
L 182.250023 53.984465 
L 182.250023 53.984465 
L 182.847363 56.264954 
L 182.847363 56.264954 
L 183.444704 59.30988 
L 183.444704 59.30988 
L 184.042044 63.300774 
L 184.042044 63.300774 
L 184.639384 66.991596 
L 184.639384 66.991596 
L 185.535395 73.32358 
L 185.535395 73.32358 
L 187.028746 81.914704 
L 187.028746 81.914704 
L 187.626087 85.275396 
L 187.626087 85.275396 
L 190.015449 95.996655 
L 190.015449 95.996655 
L 191.80747 101.619844 
L 191.80747 101.619844 
L 193.300821 104.667794 
L 193.300821 104.667794 
L 194.196832 105.844674 
L 194.196832 105.844674 
L 195.092843 106.61398 
L 195.092843 106.61398 
L 195.988853 107.039154 
L 195.988853 107.039154 
L 197.183534 107.232841 
L 197.183534 107.232841 
L 201.066247 107.042874 
L 201.066247 107.042874 
L 202.858269 106.3091 
L 202.858269 106.3091 
L 203.455609 105.945222 
L 203.455609 105.945222 
L 205.546301 103.799966 
L 205.546301 103.799966 
L 206.442312 102.383071 
L 206.442312 102.383071 
L 207.636993 100.005391 
L 207.636993 100.005391 
L 208.234333 98.622243 
L 208.234333 98.622243 
L 209.727684 93.872961 
L 209.727684 93.872961 
L 210.623695 90.230674 
L 210.623695 90.230674 
L 211.519706 85.905023 
L 211.519706 85.905023 
L 212.415716 80.823977 
L 212.415716 80.823977 
L 214.805078 66.932598 
L 214.805078 66.932598 
L 215.701089 63.545204 
L 215.701089 63.545204 
L 216.5971 61.016384 
L 216.5971 61.016384 
L 217.49311 59.128501 
L 217.49311 59.128501 
L 218.389121 57.719136 
L 218.389121 57.719136 
L 219.285132 56.666995 
L 219.285132 56.666995 
L 220.479813 55.666747 
L 220.479813 55.666747 
L 221.674494 54.98934 
L 221.674494 54.98934 
L 223.167845 54.44121 
L 223.167845 54.44121 
L 224.959866 54.054652 
L 224.959866 54.054652 
L 227.349228 53.791201 
L 227.349228 53.791201 
L 231.231941 53.630899 
L 231.231941 53.630899 
L 236.906676 53.577888 
L 236.906676 53.577888 
L 237.504016 54.104306 
L 237.504016 54.104306 
L 237.802686 54.588086 
L 237.802686 54.588086 
L 238.400027 56.211278 
L 238.400027 56.211278 
L 238.997367 58.042401 
L 238.997367 58.042401 
L 239.594708 59.876578 
L 239.594708 59.876578 
L 243.178751 75.463907 
L 243.178751 75.463907 
L 243.776091 78.632757 
L 243.776091 78.632757 
L 244.373431 81.838439 
L 244.373431 81.838439 
L 244.672102 84.114724 
L 244.672102 84.114724 
L 245.269442 87.062217 
L 245.269442 87.062217 
L 245.866783 90.76571 
L 245.866783 90.76571 
L 246.165453 92.435139 
L 246.762793 96.394795 
L 246.762793 96.394795 
L 247.061464 98.16695 
L 247.061464 98.16695 
L 247.658804 102.417031 
L 247.658804 102.417031 
L 247.957474 104.296416 
L 247.957474 104.296416 
L 248.256145 107.132596 
L 248.256145 107.132596 
L 248.853485 110.943199 
L 248.853485 110.943199 
L 249.450825 114.689028 
L 249.450825 114.689028 
L 249.749496 117.46134 
L 249.749496 117.46134 
L 250.645506 123.189098 
L 250.645506 123.189098 
L 250.944177 125.08061 
L 250.944177 125.08061 
L 251.242847 128.041227 
L 251.242847 128.041227 
L 251.541517 129.598134 
L 251.541517 129.598134 
L 251.840187 132.002849 
L 251.840187 132.002849 
L 252.138858 133.442031 
L 252.138858 133.442031 
L 252.736198 137.017488 
L 252.736198 137.017488 
L 253.632209 142.291192 
L 253.632209 142.291192 
L 254.528219 146.938294 
L 254.528219 146.938294 
L 255.42423 151.86185 
L 255.42423 151.86185 
L 256.320241 156.158833 
L 256.320241 156.158833 
L 256.618911 158.04726 
L 256.618911 158.04726 
L 256.917581 159.169467 
L 256.917581 159.169467 
L 257.216252 161.073408 
L 257.216252 161.073408 
L 257.514922 162.038396 
L 257.514922 162.038396 
L 257.813592 164.000851 
L 257.813592 164.000851 
L 258.410933 165.910719 
L 258.410933 165.910719 
L 259.306943 169.769403 
L 259.306943 169.769403 
L 259.605613 170.647906 
L 259.605613 170.647906 
L 259.904284 172.376787 
L 259.904284 172.376787 
L 261.098965 175.988017 
L 261.098965 175.988017 
L 261.397635 177.383231 
L 261.397635 177.383231 
L 261.994975 178.749141 
L 261.994975 178.749141 
L 262.890986 181.537572 
L 262.890986 181.537572 
L 265.579018 186.49173 
L 265.579018 186.49173 
L 265.877688 186.772267 
L 265.877688 186.772267 
L 266.176359 187.308452 
L 266.176359 187.308452 
L 268.26705 189.102954 
L 268.26705 189.102954 
L 269.760401 189.921823 
L 269.760401 189.921823 
L 270.656412 190.18095 
L 270.656412 190.18095 
L 273.941785 190.441437 
L 273.941785 190.441437 
L 278.421838 190.124703 
L 278.421838 190.124703 
L 279.616519 189.895817 
L 279.616519 189.895817 
L 282.005881 189.100656 
L 282.005881 189.100656 
L 282.603222 188.668889 
L 282.603222 188.668889 
L 283.499232 188.283813 
L 283.499232 188.283813 
L 284.096573 187.738525 
L 284.096573 187.738525 
L 284.992583 187.179993 
L 284.992583 187.179993 
L 285.589924 186.486106 
L 285.589924 186.486106 
L 286.187264 185.985089 
L 286.187264 185.985089 
L 286.784605 184.986685 
L 286.784605 184.986685 
L 287.381945 184.226028 
L 287.381945 184.226028 
L 288.875296 180.862101 
L 288.875296 180.862101 
L 290.069977 176.056602 
L 290.069977 176.056602 
L 290.667318 173.14325 
L 290.667318 173.14325 
L 291.563329 168.211892 
L 291.563329 168.211892 
L 293.65402 156.739018 
L 293.65402 156.739018 
L 294.550031 154.590496 
L 294.550031 154.590496 
L 295.147371 154.15256 
L 295.147371 154.15256 
L 295.744712 154.918086 
L 295.744712 154.918086 
L 296.640723 157.901655 
L 296.640723 157.901655 
L 297.238063 160.069046 
L 297.238063 160.069046 
L 297.835404 161.685647 
L 297.835404 161.685647 
L 298.432744 162.793701 
L 298.432744 162.793701 
L 299.328755 163.724579 
L 299.328755 163.724579 
L 300.523436 164.312353 
L 300.523436 164.312353 
L 301.120776 164.473351 
L 301.120776 164.473351 
L 306.19817 164.35481 
L 306.19817 164.35481 
L 309.184872 163.827213 
L 309.184872 163.827213 
L 310.080883 163.469232 
L 310.080883 163.469232 
L 310.976894 163.035409 
L 310.976894 163.035409 
L 311.872905 162.454226 
L 311.872905 162.454226 
L 312.470245 161.844648 
L 312.470245 161.844648 
L 313.366256 160.858129 
L 313.366256 160.858129 
L 314.560937 158.864738 
L 314.560937 158.864738 
L 315.158277 157.582532 
L 315.158277 157.582532 
L 316.054288 155.64309 
L 316.054288 155.64309 
L 318.44365 148.434085 
L 318.44365 148.434085 
L 319.33966 145.101668 
L 319.33966 145.101668 
L 321.729022 133.291012 
L 321.729022 133.291012 
L 328.001097 95.016516 
L 328.001097 95.016516 
L 332.481151 67.557478 
L 332.481151 67.557478 
L 333.377161 64.011717 
L 333.377161 64.011717 
L 334.273172 61.364658 
L 334.273172 61.364658 
L 335.169183 59.388504 
L 335.169183 59.388504 
L 336.065194 57.913246 
L 336.065194 57.913246 
L 336.961204 56.811905 
L 336.961204 56.811905 
L 338.155885 55.764876 
L 338.155885 55.764876 
L 339.350566 55.055778 
L 339.350566 55.055778 
L 340.843917 54.482034 
L 340.843917 54.482034 
L 342.635939 54.077423 
L 342.635939 54.077423 
L 345.025301 53.801634 
L 345.025301 53.801634 
L 348.609343 53.640576 
L 348.609343 53.640576 
L 351.894716 53.592857 
L 351.894716 53.592857 
L 352.193386 53.69147 
L 352.193386 53.69147 
L 352.492057 54.886887 
L 352.492057 54.886887 
L 353.089397 58.764804 
L 353.089397 58.764804 
L 353.686737 63.255021 
L 353.686737 63.255021 
L 354.582748 71.670087 
L 354.582748 71.670087 
L 356.076099 82.835784 
L 356.076099 82.835784 
L 356.67344 87.165094 
L 356.67344 87.165094 
L 359.062802 100.657244 
L 359.062802 100.657244 
L 359.660142 103.071545 
L 359.660142 103.071545 
L 359.958812 104.741549 
L 359.958812 104.741549 
L 361.153493 109.006811 
L 361.153493 109.006811 
L 361.750834 111.323709 
L 361.750834 111.323709 
L 362.049504 112.364358 
L 362.049504 112.364358 
L 362.348174 113.889905 
L 362.348174 113.889905 
L 362.646845 114.706657 
L 362.646845 114.706657 
L 363.244185 116.765578 
L 363.244185 116.765578 
L 363.542855 117.767913 
L 363.542855 117.767913 
L 363.841525 119.346864 
L 363.841525 119.346864 
L 364.140196 120.112299 
L 364.140196 120.112299 
L 364.737536 122.221297 
L 364.737536 122.221297 
L 367.425568 132.729728 
L 367.425568 132.729728 
L 368.321579 136.597393 
L 368.321579 136.597393 
L 369.21759 140.577975 
L 369.21759 140.577975 
L 371.606952 152.856776 
L 371.606952 152.856776 
L 373.100303 161.163039 
L 373.100303 161.163039 
L 373.398973 162.390843 
L 373.398973 162.390843 
L 373.697643 164.330104 
L 373.697643 164.330104 
L 373.996313 165.362831 
L 373.996313 165.362831 
L 374.294984 167.338803 
L 374.294984 167.338803 
L 375.489665 171.45108 
L 375.489665 171.45108 
L 375.788335 172.996163 
L 375.788335 172.996163 
L 376.385675 174.553281 
L 376.385675 174.553281 
L 377.281686 177.741605 
L 377.281686 177.741605 
L 377.879027 179.062155 
L 377.879027 179.062155 
L 378.775037 181.936437 
L 378.775037 181.936437 
L 380.865729 186.178111 
L 380.865729 186.178111 
L 381.164399 186.977233 
L 383.255091 189.804038 
L 383.255091 189.804038 
L 383.852431 190.11793 
L 383.852431 190.11793 
L 384.449772 190.530796 
L 384.449772 190.530796 
L 386.241793 191.021047 
L 386.241793 191.021047 
L 390.423176 191.140011 
L 390.423176 191.140011 
L 391.319187 191.013245 
L 391.319187 191.013245 
L 391.916528 190.868063 
L 391.916528 190.868063 
L 392.812538 190.677218 
L 392.812538 190.677218 
L 394.305889 189.70845 
L 394.305889 189.70845 
L 394.60456 189.448446 
L 394.60456 189.448446 
L 395.799241 187.623069 
L 395.799241 187.623069 
L 396.097911 187.03094 
L 396.097911 187.03094 
L 398.188602 180.522082 
L 398.188602 180.522082 
L 398.487273 179.066449 
L 398.487273 179.066449 
" clip-path="url(#pdddb990ce9)" style="fill: none; stroke: #1f77b4; stroke-width: 1.5; stroke-linecap: square"/>
   </g>
   <g id="line2d_30">
    <path d="M 73.832727 53.568 
L 73.832727 279.920448 
L 74.131398 274.472319 
L 74.131398 274.472319 
L 79.806132 245.381953 
L 79.806132 245.381953 
L 85.480866 215.136328 
L 85.480866 215.136328 
L 91.155601 183.689662 
L 91.155601 183.689662 
L 96.830335 150.994174 
L 96.830335 150.994174 
L 102.50507 117.000301 
L 102.50507 117.000301 
L 108.179804 81.656484 
L 108.179804 81.656484 
L 112.659858 53.568 
L 112.659858 53.568 
L 115.34789 53.581154 
L 115.34789 53.581154 
L 115.94523 56.900902 
L 115.94523 56.900902 
L 116.243901 56.995008 
L 116.243901 56.995008 
L 116.841241 59.735811 
L 116.841241 59.735811 
L 117.438582 64.579926 
L 117.438582 64.579926 
L 117.737252 64.288201 
L 117.737252 64.288201 
L 118.035922 66.188634 
L 118.035922 66.188634 
L 118.334592 69.201687 
L 118.334592 69.201687 
L 118.633263 73.445841 
L 118.633263 73.445841 
L 118.931933 73.248011 
L 118.931933 73.248011 
L 119.230603 76.186492 
L 119.230603 76.186492 
L 119.529273 80.702261 
L 119.529273 80.702261 
L 119.827943 87.148159 
L 120.126614 86.087794 
L 120.126614 86.087794 
L 120.425284 90.217822 
L 120.425284 90.217822 
L 120.723954 96.843224 
L 120.723954 96.843224 
L 121.022624 97.014504 
L 121.022624 97.014504 
L 121.321295 100.336216 
L 121.321295 100.336216 
L 121.619965 105.948246 
L 121.619965 105.948246 
L 121.918635 106.281914 
L 121.918635 106.281914 
L 122.217305 108.925979 
L 122.217305 108.925979 
L 122.515976 114.134668 
L 122.515976 114.134668 
L 122.814646 113.906416 
L 123.113316 116.746648 
L 123.113316 116.746648 
L 123.411986 121.561975 
L 123.411986 121.561975 
L 123.710657 120.276079 
L 123.710657 120.276079 
L 124.009327 123.849328 
L 124.009327 123.849328 
L 124.307997 123.983866 
L 124.307997 123.983866 
L 124.606667 126.223713 
L 124.606667 126.223713 
L 125.204008 128.744942 
L 125.204008 128.744942 
L 125.502678 131.633407 
L 125.502678 131.633407 
L 125.801348 131.199281 
L 125.801348 131.199281 
L 126.100018 133.329084 
L 126.100018 133.329084 
L 126.398689 133.373507 
L 126.398689 133.373507 
L 126.697359 134.892099 
L 126.697359 134.892099 
L 126.996029 135.170398 
L 126.996029 135.170398 
L 127.294699 136.146334 
L 127.294699 136.146334 
L 127.89204 137.191851 
L 127.89204 137.191851 
L 128.19071 137.815703 
L 128.19071 137.815703 
L 128.48938 138.08883 
L 128.48938 138.08883 
L 128.788051 138.899111 
L 128.788051 138.899111 
L 129.086721 138.88384 
L 129.086721 138.88384 
L 129.385391 139.207589 
L 129.385391 139.207589 
L 130.281402 139.513527 
L 130.281402 139.513527 
L 130.580072 139.427071 
L 130.580072 139.427071 
L 131.476083 139.500706 
L 131.476083 139.500706 
L 131.774753 139.445639 
L 131.774753 139.445639 
L 132.073423 139.504818 
L 132.073423 139.504818 
L 132.372093 139.432787 
L 132.372093 139.432787 
L 132.969434 139.477118 
L 132.969434 139.477118 
L 133.865445 139.176019 
L 133.865445 139.176019 
L 134.761455 138.467828 
L 134.761455 138.467828 
L 135.358796 137.597854 
L 135.358796 137.597854 
L 135.657466 135.848953 
L 135.657466 135.848953 
L 135.956136 136.453844 
L 135.956136 136.453844 
L 136.254806 134.297611 
L 136.254806 134.297611 
L 136.553477 134.907703 
L 136.553477 134.907703 
L 136.852147 132.323725 
L 136.852147 132.323725 
L 137.150817 133.00473 
L 137.150817 133.00473 
L 137.449487 129.853087 
L 137.449487 129.853087 
L 137.748158 130.429643 
L 137.748158 130.429643 
L 138.046828 126.897611 
L 138.046828 126.897611 
L 138.345498 127.094111 
L 138.345498 127.094111 
L 138.644168 123.408157 
L 138.644168 123.408157 
L 138.942839 123.137902 
L 138.942839 123.137902 
L 139.241509 119.455124 
L 139.241509 119.455124 
L 139.540179 118.352271 
L 139.540179 118.352271 
L 140.137519 112.642475 
L 140.137519 112.642475 
L 141.03353 104.041554 
L 141.03353 104.041554 
L 143.721562 87.358327 
L 143.721562 87.358327 
L 144.020232 87.274865 
L 144.020232 87.274865 
L 144.318903 87.645093 
L 144.318903 87.645093 
L 144.617573 87.667561 
L 144.617573 87.667561 
L 144.916243 87.825082 
L 144.916243 87.825082 
L 146.708265 87.795507 
L 146.708265 87.795507 
L 147.006935 87.268847 
L 147.006935 87.268847 
L 147.305605 87.522682 
L 147.305605 87.522682 
L 147.604275 87.039779 
L 147.604275 87.039779 
L 147.902946 85.653789 
L 147.902946 85.653789 
L 148.201616 85.988485 
L 148.201616 85.988485 
L 148.500286 84.880794 
L 148.500286 84.880794 
L 148.798956 82.362679 
L 148.798956 82.362679 
L 149.097626 82.665684 
L 149.097626 82.665684 
L 149.396297 80.811276 
L 149.396297 80.811276 
L 149.694967 76.885459 
L 149.694967 76.885459 
L 149.993637 77.068956 
L 149.993637 77.068956 
L 150.292307 74.557251 
L 150.292307 74.557251 
L 150.590978 69.029924 
L 150.590978 69.029924 
L 150.889648 68.615091 
L 150.889648 68.615091 
L 151.188318 65.329183 
L 151.188318 65.329183 
L 151.486988 60.388541 
L 151.486988 60.388541 
L 152.382999 54.549863 
L 152.382999 54.549863 
L 152.681669 55.662997 
L 152.681669 55.662997 
L 152.98034 55.943261 
L 152.98034 55.943261 
L 153.57768 58.501958 
L 153.57768 58.501958 
L 153.87635 59.729733 
L 153.87635 59.729733 
L 154.17502 59.844493 
L 154.17502 59.844493 
L 154.473691 60.409044 
L 154.473691 60.409044 
L 155.071031 60.913961 
L 155.071031 60.913961 
L 155.369701 60.790582 
L 155.369701 60.790582 
L 156.265712 61.070907 
L 156.265712 61.070907 
L 156.564382 60.837515 
L 156.564382 60.837515 
L 157.161723 61.033319 
L 157.161723 61.033319 
L 157.759063 59.679413 
L 157.759063 59.679413 
L 158.057734 60.137398 
L 158.356404 59.456847 
L 158.356404 59.456847 
L 158.655074 58.254898 
L 158.655074 58.254898 
L 158.953744 56.168126 
L 158.953744 56.168126 
L 159.252414 56.522206 
L 159.252414 56.522206 
L 159.849755 53.568 
L 159.849755 53.568 
L 181.652682 53.568 
L 181.652682 53.568 
L 181.951352 54.768468 
L 181.951352 54.768468 
L 182.250023 58.026737 
L 182.250023 58.026737 
L 182.548693 57.958697 
L 182.548693 57.958697 
L 183.146033 62.643357 
L 183.146033 62.643357 
L 183.444704 65.978375 
L 183.444704 65.978375 
L 183.743374 66.530739 
L 183.743374 66.530739 
L 184.340714 70.663277 
L 184.340714 70.663277 
L 184.938055 76.605558 
L 184.938055 76.605558 
L 185.236725 76.190937 
L 185.236725 76.190937 
L 185.535395 78.104524 
L 185.535395 78.104524 
L 185.834065 80.971639 
L 185.834065 80.971639 
L 186.132736 81.367027 
L 186.132736 81.367027 
L 186.730076 85.284982 
L 186.730076 85.284982 
L 187.028746 87.916013 
L 187.327417 87.742284 
L 187.327417 87.742284 
L 187.626087 89.28776 
L 187.626087 89.28776 
L 187.924757 91.862636 
L 187.924757 91.862636 
L 188.223427 92.025115 
L 188.223427 92.025115 
L 188.522098 93.25552 
L 188.522098 93.25552 
L 188.820768 95.396543 
L 188.820768 95.396543 
L 189.119438 95.67221 
L 189.119438 95.67221 
L 189.418108 96.727405 
L 189.418108 96.727405 
L 189.716778 98.55877 
L 189.716778 98.55877 
L 190.015449 98.799692 
L 190.015449 98.799692 
L 190.314119 99.674716 
L 190.314119 99.674716 
L 190.612789 101.275803 
L 190.612789 101.275803 
L 190.911459 101.402086 
L 190.911459 101.402086 
L 191.21013 102.10695 
L 191.21013 102.10695 
L 191.5088 103.491972 
L 191.5088 103.491972 
L 191.80747 103.474312 
L 191.80747 103.474312 
L 192.10614 104.150115 
L 192.10614 104.150115 
L 192.404811 105.164758 
L 192.404811 105.164758 
L 192.703481 105.043042 
L 192.703481 105.043042 
L 193.002151 105.648598 
L 193.002151 105.648598 
L 193.599492 106.140996 
L 193.599492 106.140996 
L 193.898162 106.60016 
L 193.898162 106.60016 
L 194.495502 106.840266 
L 194.495502 106.840266 
L 194.794172 107.067459 
L 194.794172 107.067459 
L 196.884864 107.271428 
L 196.884864 107.271428 
L 197.183534 107.103717 
L 197.183534 107.103717 
L 197.482205 107.300186 
L 197.482205 107.300186 
L 197.780875 107.249141 
L 197.780875 107.249141 
L 198.079545 107.323561 
L 198.079545 107.323561 
L 199.871566 106.946438 
L 199.871566 106.946438 
L 200.170237 106.62665 
L 200.170237 106.62665 
L 200.468907 106.695507 
L 200.468907 106.695507 
L 200.767577 106.43127 
L 200.767577 106.43127 
L 201.066247 105.896808 
L 201.066247 105.896808 
L 201.364918 106.068722 
L 201.364918 106.068722 
L 201.663588 105.595739 
L 201.962258 105.574026 
L 201.962258 105.574026 
L 202.260928 105.216468 
L 202.260928 105.216468 
L 202.559599 104.448856 
L 202.559599 104.448856 
L 202.858269 104.553124 
L 202.858269 104.553124 
L 203.156939 103.982737 
L 203.156939 103.982737 
L 203.455609 102.806824 
L 203.455609 102.806824 
L 203.75428 103.243248 
L 203.75428 103.243248 
L 204.05295 102.31745 
L 204.05295 102.31745 
L 204.35162 102.229029 
L 204.35162 102.229029 
L 204.65029 101.583495 
L 204.65029 101.583495 
L 204.94896 100.173707 
L 204.94896 100.173707 
L 205.247631 100.303164 
L 205.247631 100.303164 
L 205.546301 99.328257 
L 205.546301 99.328257 
L 205.844971 97.492507 
L 205.844971 97.492507 
L 206.143641 97.939878 
L 206.143641 97.939878 
L 206.442312 96.463289 
L 206.442312 96.463289 
L 206.740982 96.130921 
L 206.740982 96.130921 
L 207.039652 95.064961 
L 207.039652 95.064961 
L 207.338322 92.975468 
L 207.338322 92.975468 
L 207.636993 92.870112 
L 207.636993 92.870112 
L 207.935663 91.580043 
L 207.935663 91.580043 
L 208.234333 88.80132 
L 208.234333 88.80132 
L 208.533003 88.931382 
L 208.533003 88.931382 
L 208.831673 87.216985 
L 208.831673 87.216985 
L 209.130344 83.758406 
L 209.130344 83.758406 
L 209.429014 84.221562 
L 209.727684 82.062184 
L 209.727684 82.062184 
L 210.026354 78.151003 
L 210.026354 78.151003 
L 210.325025 78.622475 
L 210.325025 78.622475 
L 210.623695 76.1447 
L 210.623695 76.1447 
L 210.922365 71.738127 
L 210.922365 71.738127 
L 211.221035 72.005298 
L 211.221035 72.005298 
L 211.519706 69.479169 
L 211.519706 69.479169 
L 211.818376 64.470185 
L 211.818376 64.470185 
L 212.117046 64.137787 
L 212.117046 64.137787 
L 213.013057 56.571165 
L 213.013057 56.571165 
L 213.311727 54.621108 
L 213.311727 54.621108 
L 213.610397 53.568 
L 213.610397 53.568 
L 236.608005 53.568 
L 236.608005 53.568 
L 236.906676 54.373019 
L 236.906676 54.373019 
L 237.205346 54.585727 
L 237.205346 54.585727 
L 237.802686 56.657832 
L 237.802686 56.657832 
L 238.400027 59.365522 
L 238.400027 59.365522 
L 238.698697 59.462411 
L 238.698697 59.462411 
L 239.296037 61.704223 
L 239.296037 61.704223 
L 239.893378 65.292744 
L 239.893378 65.292744 
L 240.192048 65.245236 
L 240.192048 65.245236 
L 240.490718 66.379509 
L 240.490718 66.379509 
L 241.088059 70.495868 
L 241.088059 70.495868 
L 241.386729 70.326161 
L 241.685399 71.851074 
L 241.685399 71.851074 
L 242.28274 76.672842 
L 242.28274 76.672842 
L 242.58141 76.35006 
L 242.58141 76.35006 
L 242.88008 77.900949 
L 242.88008 77.900949 
L 243.178751 80.717865 
L 243.178751 80.717865 
L 243.477421 81.224234 
L 243.477421 81.224234 
L 244.074761 85.157218 
L 244.074761 85.157218 
L 244.373431 88.451261 
L 244.373431 88.451261 
L 244.672102 88.163981 
L 244.672102 88.163981 
L 244.970772 90.022048 
L 244.970772 90.022048 
L 245.269442 93.49239 
L 245.269442 93.49239 
L 245.568112 93.604429 
L 245.568112 93.604429 
L 245.866783 95.615571 
L 245.866783 95.615571 
L 246.165453 99.295991 
L 246.165453 99.295991 
L 246.464123 99.439086 
L 246.464123 99.439086 
L 246.762793 101.543064 
L 246.762793 101.543064 
L 247.061464 105.57956 
L 247.061464 105.57956 
L 247.360134 105.652741 
L 247.360134 105.652741 
L 247.658804 107.876802 
L 247.658804 107.876802 
L 247.957474 112.535788 
L 247.957474 112.535788 
L 248.256145 111.926422 
L 248.256145 111.926422 
L 248.554815 115.059044 
L 248.554815 115.059044 
L 248.853485 116.336412 
L 248.853485 116.336412 
L 249.152155 118.288404 
L 249.152155 118.288404 
L 249.450825 122.742816 
L 249.450825 122.742816 
L 249.749496 122.48242 
L 249.749496 122.48242 
L 250.048166 125.59974 
L 250.048166 125.59974 
L 250.346836 126.604737 
L 250.346836 126.604737 
L 250.645506 128.6841 
L 250.645506 128.6841 
L 250.944177 133.681411 
L 250.944177 133.681411 
L 251.242847 132.564194 
L 251.242847 132.564194 
L 251.541517 136.584058 
L 251.541517 136.584058 
L 251.840187 136.183771 
L 251.840187 136.183771 
L 252.138858 139.628409 
L 252.138858 139.628409 
L 252.437528 139.77217 
L 252.437528 139.77217 
L 252.736198 142.769468 
L 252.736198 142.769468 
L 253.034868 143.202444 
L 253.034868 143.202444 
L 253.333539 145.808467 
L 253.333539 145.808467 
L 253.632209 146.48294 
L 253.632209 146.48294 
L 253.930879 148.943871 
L 253.930879 148.943871 
L 254.229549 149.626116 
L 254.229549 149.626116 
L 254.528219 152.068238 
L 254.528219 152.068238 
L 254.82689 152.647999 
L 254.82689 152.647999 
L 255.12556 155.291278 
L 255.12556 155.291278 
L 255.42423 155.680315 
L 255.42423 155.680315 
L 255.7229 158.351838 
L 255.7229 158.351838 
L 256.021571 158.446882 
L 256.021571 158.446882 
L 256.320241 161.644853 
L 256.618911 161.307405 
L 256.917581 164.700575 
L 256.917581 164.700575 
L 257.216252 163.876776 
L 257.514922 167.739513 
L 257.514922 167.739513 
L 257.813592 166.726987 
L 257.813592 166.726987 
L 258.112262 167.761437 
L 258.112262 167.761437 
L 258.410933 169.781953 
L 258.410933 169.781953 
L 258.709603 170.105521 
L 258.709603 170.105521 
L 259.008273 172.704891 
L 259.008273 172.704891 
L 259.306943 172.321538 
L 259.306943 172.321538 
L 259.605613 175.670407 
L 259.605613 175.670407 
L 259.904284 174.813133 
L 259.904284 174.813133 
L 260.202954 175.564657 
L 260.202954 175.564657 
L 260.501624 177.486682 
L 260.501624 177.486682 
L 260.800294 177.4588 
L 260.800294 177.4588 
L 261.098965 180.041206 
L 261.098965 180.041206 
L 261.397635 179.312482 
L 261.397635 179.312482 
L 261.696305 180.086172 
L 261.696305 180.086172 
L 261.994975 181.716623 
L 261.994975 181.716623 
L 262.293646 181.672744 
L 262.293646 181.672744 
L 262.592316 183.656367 
L 262.592316 183.656367 
L 262.890986 183.206245 
L 263.189656 183.53571 
L 263.189656 183.53571 
L 263.488327 185.050129 
L 263.488327 185.050129 
L 263.786997 184.76176 
L 263.786997 184.76176 
L 264.085667 185.294771 
L 264.085667 185.294771 
L 264.384337 186.238621 
L 264.384337 186.238621 
L 264.683007 186.227463 
L 264.683007 186.227463 
L 264.981678 187.353661 
L 264.981678 187.353661 
L 265.280348 187.246642 
L 265.280348 187.246642 
L 265.579018 187.306698 
L 265.579018 187.306698 
L 265.877688 188.32999 
L 265.877688 188.32999 
L 266.176359 188.083836 
L 266.176359 188.083836 
L 266.475029 188.360441 
L 266.475029 188.360441 
L 266.773699 188.860671 
L 266.773699 188.860671 
L 267.072369 188.842588 
L 267.072369 188.842588 
L 267.37104 188.988405 
L 267.37104 188.988405 
L 267.66971 189.46904 
L 267.66971 189.46904 
L 267.96838 189.473364 
L 267.96838 189.473364 
L 269.163061 190.150589 
L 269.163061 190.150589 
L 269.461731 190.128907 
L 269.461731 190.128907 
L 270.059072 190.289118 
L 270.059072 190.289118 
L 273.344444 190.49599 
L 273.344444 190.49599 
L 273.643114 190.253254 
L 273.643114 190.253254 
L 274.837795 190.334478 
L 274.837795 190.334478 
L 275.136466 190.158512 
L 275.136466 190.158512 
L 275.435136 190.147897 
L 275.435136 190.147897 
L 275.733806 190.309651 
L 276.331147 190.320235 
L 276.331147 190.320235 
L 276.629817 189.745524 
L 276.629817 189.745524 
L 277.227157 190.001778 
L 277.227157 190.001778 
L 277.525828 190.142908 
L 277.525828 190.142908 
L 277.824498 189.969028 
L 277.824498 189.969028 
L 278.123168 189.378289 
L 278.123168 189.378289 
L 278.720508 189.83443 
L 278.720508 189.83443 
L 279.019179 189.742409 
L 279.019179 189.742409 
L 279.317849 188.574238 
L 279.317849 188.574238 
L 279.915189 189.282338 
L 279.915189 189.282338 
L 280.21386 189.263317 
L 280.21386 189.263317 
L 280.51253 187.324449 
L 281.10987 188.380611 
L 281.10987 188.380611 
L 281.408541 188.548685 
L 281.408541 188.548685 
L 281.707211 188.242929 
L 281.707211 188.242929 
L 282.005881 186.328071 
L 282.005881 186.328071 
L 282.603222 187.443262 
L 282.603222 187.443262 
L 282.901892 187.274674 
L 282.901892 187.274674 
L 283.200562 186.794221 
L 283.200562 186.794221 
L 283.499232 184.894484 
L 283.499232 184.894484 
L 284.096573 186.031054 
L 284.096573 186.031054 
L 284.693913 185.108825 
L 284.693913 185.108825 
L 284.992583 182.917786 
L 284.992583 182.917786 
L 285.291254 183.572421 
L 285.291254 183.572421 
L 285.589924 183.931188 
L 285.589924 183.931188 
L 285.888594 183.40719 
L 285.888594 183.40719 
L 286.187264 179.832731 
L 286.187264 179.832731 
L 286.485935 180.811993 
L 286.784605 181.196101 
L 286.784605 181.196101 
L 287.083275 180.232292 
L 287.083275 180.232292 
L 287.381945 177.38949 
L 287.381945 177.38949 
L 287.680616 177.821076 
L 287.680616 177.821076 
L 287.979286 176.387397 
L 287.979286 176.387397 
L 288.277956 174.154869 
L 288.277956 174.154869 
L 288.576626 172.990205 
L 288.576626 172.990205 
L 288.875296 169.004604 
L 288.875296 169.004604 
L 289.173967 168.86562 
L 289.173967 168.86562 
L 289.472637 162.650363 
L 289.472637 162.650363 
L 289.771307 164.34595 
L 289.771307 164.34595 
L 290.069977 162.000173 
L 290.069977 162.000173 
L 290.368648 157.42731 
L 290.368648 157.42731 
L 290.667318 156.98756 
L 290.667318 156.98756 
L 290.965988 153.181614 
L 290.965988 153.181614 
L 292.459339 144.38634 
L 292.459339 144.38634 
L 292.75801 144.261328 
L 292.75801 144.261328 
L 293.05668 142.725288 
L 293.05668 142.725288 
L 293.35535 142.990734 
L 293.35535 142.990734 
L 293.65402 148.872868 
L 293.65402 148.872868 
L 293.95269 147.406379 
L 293.95269 147.406379 
L 294.251361 148.536115 
L 294.251361 148.536115 
L 294.550031 152.012233 
L 294.550031 152.012233 
L 294.848701 152.212452 
L 294.848701 152.212452 
L 295.147371 155.31178 
L 295.147371 155.31178 
L 295.446042 155.616327 
L 295.446042 155.616327 
L 295.744712 157.672436 
L 295.744712 157.672436 
L 296.043382 158.527472 
L 296.043382 158.527472 
L 296.640723 161.626981 
L 296.640723 161.626981 
L 296.939393 161.755168 
L 296.939393 161.755168 
L 297.238063 162.824424 
L 297.238063 162.824424 
L 297.536733 162.958418 
L 297.536733 162.958418 
L 297.835404 163.650339 
L 297.835404 163.650339 
L 298.134074 163.616229 
L 298.134074 163.616229 
L 298.432744 163.793163 
L 298.432744 163.793163 
L 298.731414 164.179056 
L 298.731414 164.179056 
L 299.328755 164.208933 
L 299.328755 164.208933 
L 299.627425 164.285349 
L 299.627425 164.285349 
L 299.926095 164.502533 
L 299.926095 164.502533 
L 300.822106 164.561924 
L 300.822106 164.561924 
L 301.120776 164.443535 
L 301.120776 164.443535 
L 302.016787 164.515234 
L 302.016787 164.515234 
L 302.614127 164.332191 
L 302.614127 164.332191 
L 303.211468 164.387167 
L 303.211468 164.387167 
L 303.808808 164.414202 
L 303.808808 164.414202 
L 304.107478 164.439029 
L 304.107478 164.439029 
L 304.406149 164.224295 
L 304.406149 164.224295 
L 305.003489 164.312142 
L 305.003489 164.312142 
L 305.302159 164.027674 
L 305.302159 164.027674 
L 305.60083 164.257649 
L 305.8995 164.323633 
L 305.8995 164.323633 
L 306.19817 163.818958 
L 306.19817 163.818958 
L 306.795511 164.089575 
L 306.795511 164.089575 
L 307.094181 163.314917 
L 307.691521 163.749254 
L 307.691521 163.749254 
L 307.990192 163.518493 
L 307.990192 163.518493 
L 308.288862 163.063683 
L 308.288862 163.063683 
L 308.587532 163.398077 
L 308.587532 163.398077 
L 308.886202 163.226072 
L 308.886202 163.226072 
L 309.184872 162.103321 
L 309.184872 162.103321 
L 309.483543 162.503215 
L 309.483543 162.503215 
L 309.782213 162.590911 
L 309.782213 162.590911 
L 310.080883 162.207619 
L 310.080883 162.207619 
L 310.379553 161.403084 
L 310.379553 161.403084 
L 310.678224 161.709113 
L 310.678224 161.709113 
L 310.976894 161.275925 
L 310.976894 161.275925 
L 311.275564 160.422612 
L 311.275564 160.422612 
L 311.574234 160.593287 
L 311.574234 160.593287 
L 311.872905 158.583658 
L 311.872905 158.583658 
L 312.171575 159.399503 
L 312.171575 159.399503 
L 313.067586 157.475059 
L 313.067586 157.475059 
L 313.366256 155.802061 
L 313.366256 155.802061 
L 313.664926 155.787728 
L 313.664926 155.787728 
L 313.963596 153.4734 
L 313.963596 153.4734 
L 314.262266 154.03287 
L 314.262266 154.03287 
L 314.560937 151.000615 
L 314.560937 151.000615 
L 314.859607 152.187837 
L 314.859607 152.187837 
L 315.158277 151.302017 
L 315.158277 151.302017 
L 315.456947 149.371072 
L 315.456947 149.371072 
L 315.755618 149.309564 
L 315.755618 149.309564 
L 316.054288 146.279818 
L 316.054288 146.279818 
L 316.352958 147.066965 
L 316.352958 147.066965 
L 316.651628 143.04314 
L 316.651628 143.04314 
L 316.950299 144.364537 
L 316.950299 144.364537 
L 317.248969 143.419235 
L 317.248969 143.419235 
L 317.547639 141.054921 
L 317.547639 141.054921 
L 317.846309 140.703018 
L 317.846309 140.703018 
L 318.14498 137.568944 
L 318.14498 137.568944 
L 318.44365 137.722291 
L 318.44365 137.722291 
L 318.74232 133.85136 
L 318.74232 133.85136 
L 319.04099 134.583621 
L 319.04099 134.583621 
L 319.33966 129.901471 
L 319.33966 129.901471 
L 319.638331 130.953702 
L 319.638331 130.953702 
L 319.937001 125.707637 
L 319.937001 125.707637 
L 320.235671 127.152564 
L 320.235671 127.152564 
L 320.534341 121.279412 
L 320.534341 121.279412 
L 320.833012 123.033332 
L 320.833012 123.033332 
L 321.131682 117.337779 
L 321.131682 117.337779 
L 321.430352 118.65709 
L 321.430352 118.65709 
L 321.729022 113.981653 
L 321.729022 113.981653 
L 322.027693 113.743907 
L 322.027693 113.743907 
L 322.326363 110.464651 
L 322.326363 110.464651 
L 328.001097 74.861284 
L 328.001097 74.861284 
L 331.28647 53.606163 
L 331.28647 53.606163 
L 332.182481 53.568 
L 332.182481 53.568 
L 351.596046 53.568 
L 351.596046 53.568 
L 351.894716 53.879351 
L 351.894716 53.879351 
L 352.492057 61.582296 
L 352.492057 61.582296 
L 352.790727 61.76183 
L 352.790727 61.76183 
L 353.388067 67.870159 
L 353.388067 67.870159 
L 353.985408 76.12199 
L 353.985408 76.12199 
L 354.284078 75.461579 
L 354.284078 75.461579 
L 354.582748 77.910988 
L 354.582748 77.910988 
L 354.881418 81.688267 
L 354.881418 81.688267 
L 355.180089 82.282211 
L 355.777429 87.148189 
L 355.777429 87.148189 
L 356.076099 90.529868 
L 356.37477 90.367268 
L 356.37477 90.367268 
L 356.67344 92.226635 
L 356.67344 92.226635 
L 356.97211 95.459653 
L 357.27078 95.642333 
L 357.27078 95.642333 
L 357.569451 97.164978 
L 357.569451 97.164978 
L 357.868121 99.921324 
L 357.868121 99.921324 
L 358.166791 100.017154 
L 358.166791 100.017154 
L 358.465461 101.46946 
L 358.465461 101.46946 
L 358.764131 104.055101 
L 358.764131 104.055101 
L 359.062802 104.105814 
L 359.062802 104.105814 
L 359.361472 105.40946 
L 359.361472 105.40946 
L 359.660142 107.923069 
L 359.660142 107.923069 
L 359.958812 107.662219 
L 359.958812 107.662219 
L 360.257483 109.246916 
L 360.257483 109.246916 
L 360.556153 109.93161 
L 360.556153 109.93161 
L 360.854823 110.967844 
L 360.854823 110.967844 
L 361.153493 112.985457 
L 361.153493 112.985457 
L 361.452164 113.128523 
L 361.452164 113.128523 
L 361.750834 114.346832 
L 361.750834 114.346832 
L 362.049504 116.796181 
L 362.049504 116.796181 
L 362.348174 116.262687 
L 362.348174 116.262687 
L 362.646845 118.200496 
L 362.646845 118.200496 
L 362.945515 118.396814 
L 362.945515 118.396814 
L 363.244185 119.677478 
L 363.244185 119.677478 
L 363.542855 122.354837 
L 363.542855 122.354837 
L 363.841525 121.570502 
L 364.140196 123.863027 
L 364.140196 123.863027 
L 364.438866 123.779504 
L 364.438866 123.779504 
L 364.737536 125.539472 
L 364.737536 125.539472 
L 365.036206 126.046899 
L 365.036206 126.046899 
L 365.334877 127.417164 
L 365.334877 127.417164 
L 365.633547 130.467262 
L 365.633547 130.467262 
L 365.932217 129.635843 
L 365.932217 129.635843 
L 366.230887 132.334068 
L 366.230887 132.334068 
L 366.529558 132.034843 
L 366.529558 132.034843 
L 366.828228 134.46762 
L 366.828228 134.46762 
L 367.126898 134.548694 
L 367.126898 134.548694 
L 367.425568 136.834505 
L 367.425568 136.834505 
L 367.724239 137.252301 
L 367.724239 137.252301 
L 368.022909 139.234624 
L 368.022909 139.234624 
L 368.321579 140.103207 
L 368.321579 140.103207 
L 368.620249 142.012319 
L 368.620249 142.012319 
L 368.918919 143.102713 
L 368.918919 143.102713 
L 369.81493 147.918856 
L 369.81493 147.918856 
L 371.308281 155.786518 
L 371.308281 155.786518 
L 371.606952 157.950251 
L 371.606952 157.950251 
L 371.905622 158.834498 
L 371.905622 158.834498 
L 372.204292 161.350164 
L 372.204292 161.350164 
L 372.502962 161.821092 
L 372.502962 161.821092 
L 372.801633 164.828278 
L 372.801633 164.828278 
L 373.100303 164.729907 
L 373.100303 164.729907 
L 373.398973 168.024555 
L 373.398973 168.024555 
L 373.697643 167.330305 
L 373.697643 167.330305 
L 373.996313 171.103169 
L 374.294984 170.15076 
L 374.294984 170.15076 
L 374.593654 170.857801 
L 374.593654 170.857801 
L 374.892324 173.147211 
L 374.892324 173.147211 
L 375.190994 173.169952 
L 375.190994 173.169952 
L 375.489665 175.939664 
L 375.489665 175.939664 
L 375.788335 175.172687 
L 375.788335 175.172687 
L 376.087005 176.092376 
L 376.385675 177.770575 
L 376.385675 177.770575 
L 376.684346 177.910465 
L 376.684346 177.910465 
L 376.983016 180.230508 
L 376.983016 180.230508 
L 377.281686 179.665564 
L 377.281686 179.665564 
L 377.580356 180.316269 
L 377.580356 180.316269 
L 377.879027 182.080047 
L 377.879027 182.080047 
L 378.177697 182.009739 
L 378.177697 182.009739 
L 378.476367 184.181364 
L 378.476367 184.181364 
L 378.775037 183.667344 
L 378.775037 183.667344 
L 379.073707 183.983746 
L 379.073707 183.983746 
L 379.372378 185.703222 
L 379.372378 185.703222 
L 379.671048 185.375148 
L 379.671048 185.375148 
L 379.969718 185.983698 
L 379.969718 185.983698 
L 380.268388 187.015729 
L 380.268388 187.015729 
L 380.567059 187.135116 
L 380.567059 187.135116 
L 380.865729 188.499636 
L 380.865729 188.499636 
L 381.164399 188.22424 
L 381.164399 188.22424 
L 381.463069 188.417625 
L 381.463069 188.417625 
L 381.76174 189.552744 
L 381.76174 189.552744 
L 382.06041 189.38972 
L 382.06041 189.38972 
L 382.35908 189.544035 
L 382.35908 189.544035 
L 382.65775 190.440742 
L 382.65775 190.440742 
L 382.956421 190.383739 
L 382.956421 190.383739 
L 383.255091 190.209224 
L 383.255091 190.209224 
L 384.151101 190.882034 
L 384.151101 190.882034 
L 384.748442 190.860201 
L 384.748442 190.860201 
L 385.345782 191.120507 
L 385.345782 191.120507 
L 386.839134 191.206932 
L 386.839134 191.206932 
L 387.137804 190.873264 
L 387.137804 190.873264 
L 387.436474 191.152712 
L 387.436474 191.152712 
L 388.033815 191.206993 
L 388.033815 191.206993 
L 388.332485 191.019293 
L 388.332485 191.019293 
L 388.929825 191.195472 
L 388.929825 191.195472 
L 389.228495 191.126192 
L 389.228495 191.126192 
L 389.527166 190.908706 
L 389.527166 190.908706 
L 389.825836 191.127341 
L 389.825836 191.127341 
L 390.124506 191.140616 
L 390.124506 191.140616 
L 390.423176 190.295438 
L 390.423176 190.295438 
L 391.020517 190.918806 
L 391.020517 190.918806 
L 391.319187 190.708638 
L 391.319187 190.708638 
L 391.617857 189.725656 
L 391.617857 189.725656 
L 391.916528 190.213004 
L 391.916528 190.213004 
L 392.215198 190.271942 
L 392.215198 190.271942 
L 392.513868 189.892128 
L 392.513868 189.892128 
L 392.812538 188.761333 
L 392.812538 188.761333 
L 393.111208 189.25615 
L 393.111208 189.25615 
L 393.409879 188.756222 
L 393.409879 188.756222 
L 393.708549 186.927489 
L 393.708549 186.927489 
L 394.007219 187.583334 
L 394.007219 187.583334 
L 394.305889 186.907621 
L 394.305889 186.907621 
L 394.60456 184.761307 
L 394.60456 184.761307 
L 394.90323 184.956929 
L 394.90323 184.956929 
L 395.2019 183.891635 
L 395.2019 183.891635 
L 395.50057 182.023256 
L 395.50057 182.023256 
L 395.799241 181.24503 
L 395.799241 181.24503 
L 396.097911 176.906497 
L 396.097911 176.906497 
L 396.396581 178.244859 
L 396.396581 178.244859 
L 396.695251 176.690251 
L 396.695251 176.690251 
L 396.993922 171.476088 
L 396.993922 171.476088 
L 397.292592 173.04246 
L 397.292592 173.04246 
L 397.591262 172.718045 
L 397.591262 172.718045 
L 397.889932 171.073322 
L 397.889932 171.073322 
L 398.188602 164.842854 
L 398.188602 164.842854 
L 398.487273 166.381888 
L 398.487273 166.381888 
" clip-path="url(#pdddb990ce9)" style="fill: none; stroke: #ff7f0e; stroke-width: 1.5; stroke-linecap: square"/>
   </g>
   <g id="patch_3">
    <path d="M 57.6 307.584 
L 57.6 41.472 
" style="fill: none; stroke: #000000; stroke-width: 0.8; stroke-linejoin: miter; stroke-linecap: square"/>
   </g>
   <g id="patch_4">
    <path d="M 414.72 307.584 
L 414.72 41.472 
" style="fill: none; stroke: #000000; stroke-width: 0.8; stroke-linejoin: miter; stroke-linecap: square"/>
   </g>
   <g id="patch_5">
    <path d="M 57.6 307.584 
L 414.72 307.584 
" style="fill: none; stroke: #000000; stroke-width: 0.8; stroke-linejoin: miter; stroke-linecap: square"/>
   </g>
   <g id="patch_6">
    <path d="M 57.6 41.472 
L 414.72 41.472 
" style="fill: none; stroke: #000000; stroke-width: 0.8; stroke-linejoin: miter; stroke-linecap: square"/>
   </g>
   <g id="text_17">
    <!-- Actual speed vs Expected speed -->
    <g transform="translate(138.808125 35.472) scale(0.12 -0.12)">
     <defs>
      <path id="DejaVuSans-41" d="M 2188 4044 
L 1331 1722 
L 3047 1722 
L 2188 4044 
z
M 1831 4666 
L 2547 4666 
L 4325 0 
L 3669 0 
L 3244 1197 
L 1141 1197 
L 716 0 
L 50 0 
L 1831 4666 
z
" transform="scale(0.015625)"/>
      <path id="DejaVuSans-75" d="M 544 1381 
L 544 3500 
L 1119 3500 
L 1119 1403 
Q 1119 906 1312 657 
Q 1506 409 1894 409 
Q 2359 409 2629 706 
Q 2900 1003 2900 1516 
L 2900 3500 
L 3475 3500 
L 3475 0 
L 2900 0 
L 2900 538 
Q 2691 219 2414 64 
Q 2138 -91 1772 -91 
Q 1169 -91 856 284 
Q 544 659 544 1381 
z
M 1991 3584 
L 1991 3584 
z
" transform="scale(0.015625)"/>
      <path id="DejaVuSans-61" d="M 2194 1759 
Q 1497 1759 1228 1600 
Q 959 1441 959 1056 
Q 959 750 1161 570 
Q 1363 391 1709 391 
Q 2188 391 2477 730 
Q 2766 1069 2766 1631 
L 2766 1759 
L 2194 1759 
z
M 3341 1997 
L 3341 0 
L 2766 0 
L 2766 531 
Q 2569 213 2275 61 
Q 1981 -91 1556 -91 
Q 1019 -91 701 211 
Q 384 513 384 1019 
Q 384 1609 779 1909 
Q 1175 2209 1959 2209 
L 2766 2209 
L 2766 2266 
Q 2766 2663 2505 2880 
Q 2244 3097 1772 3097 
Q 1472 3097 1187 3025 
Q 903 2953 641 2809 
L 641 3341 
Q 956 3463 1253 3523 
Q 1550 3584 1831 3584 
Q 2591 3584 2966 3190 
Q 3341 2797 3341 1997 
z
" transform="scale(0.015625)"/>
      <path id="DejaVuSans-20" transform="scale(0.015625)"/>
      <path id="DejaVuSans-70" d="M 1159 525 
L 1159 -1331 
L 581 -1331 
L 581 3500 
L 1159 3500 
L 1159 2969 
Q 1341 3281 1617 3432 
Q 1894 3584 2278 3584 
Q 2916 3584 3314 3078 
Q 3713 2572 3713 1747 
Q 3713 922 3314 415 
Q 2916 -91 2278 -91 
Q 1894 -91 1617 61 
Q 1341 213 1159 525 
z
M 3116 1747 
Q 3116 2381 2855 2742 
Q 2594 3103 2138 3103 
Q 1681 3103 1420 2742 
Q 1159 2381 1159 1747 
Q 1159 1113 1420 752 
Q 1681 391 2138 391 
Q 2594 391 2855 752 
Q 3116 1113 3116 1747 
z
" transform="scale(0.015625)"/>
      <path id="DejaVuSans-64" d="M 2906 2969 
L 2906 4863 
L 3481 4863 
L 3481 0 
L 2906 0 
L 2906 525 
Q 2725 213 2448 61 
Q 2172 -91 1784 -91 
Q 1150 -91 751 415 
Q 353 922 353 1747 
Q 353 2572 751 3078 
Q 1150 3584 1784 3584 
Q 2172 3584 2448 3432 
Q 2725 3281 2906 2969 
z
M 947 1747 
Q 947 1113 1208 752 
Q 1469 391 1925 391 
Q 2381 391 2643 752 
Q 2906 1113 2906 1747 
Q 2906 2381 2643 2742 
Q 2381 3103 1925 3103 
Q 1469 3103 1208 2742 
Q 947 2381 947 1747 
z
" transform="scale(0.015625)"/>
      <path id="DejaVuSans-76" d="M 191 3500 
L 800 3500 
L 1894 563 
L 2988 3500 
L 3597 3500 
L 2284 0 
L 1503 0 
L 191 3500 
z
" transform="scale(0.015625)"/>
      <path id="DejaVuSans-45" d="M 628 4666 
L 3578 4666 
L 3578 4134 
L 1259 4134 
L 1259 2753 
L 3481 2753 
L 3481 2222 
L 1259 2222 
L 1259 531 
L 3634 531 
L 3634 0 
L 628 0 
L 628 4666 
z
" transform="scale(0.015625)"/>
      <path id="DejaVuSans-78" d="M 3513 3500 
L 2247 1797 
L 3578 0 
L 2900 0 
L 1881 1375 
L 863 0 
L 184 0 
L 1544 1831 
L 300 3500 
L 978 3500 
L 1906 2253 
L 2834 3500 
L 3513 3500 
z
" transform="scale(0.015625)"/>
     </defs>
     <use xlink:href="#DejaVuSans-41"/>
     <use xlink:href="#DejaVuSans-63" x="66.658203"/>
     <use xlink:href="#DejaVuSans-74" x="121.638672"/>
     <use xlink:href="#DejaVuSans-75" x="160.847656"/>
     <use xlink:href="#DejaVuSans-61" x="224.226562"/>
     <use xlink:href="#DejaVuSans-6c" x="285.505859"/>
     <use xlink:href="#DejaVuSans-20" x="313.289062"/>
     <use xlink:href="#DejaVuSans-73" x="345.076172"/>
     <use xlink:href="#DejaVuSans-70" x="397.175781"/>
     <use xlink:href="#DejaVuSans-65" x="460.652344"/>
     <use xlink:href="#DejaVuSans-65" x="522.175781"/>
     <use xlink:href="#DejaVuSans-64" x="583.699219"/>
     <use xlink:href="#DejaVuSans-20" x="647.175781"/>
     <use xlink:href="#DejaVuSans-76" x="678.962891"/>
     <use xlink:href="#DejaVuSans-73" x="738.142578"/>
     <use xlink:href="#DejaVuSans-20" x="790.242188"/>
     <use xlink:href="#DejaVuSans-45" x="822.029297"/>
     <use xlink:href="#DejaVuSans-78" x="885.212891"/>
     <use xlink:href="#DejaVuSans-70" x="944.392578"/>
     <use xlink:href="#DejaVuSans-65" x="1007.869141"/>
     <use xlink:href="#DejaVuSans-63" x="1069.392578"/>
     <use xlink:href="#DejaVuSans-74" x="1124.373047"/>
     <use xlink:href="#DejaVuSans-65" x="1163.582031"/>
     <use xlink:href="#DejaVuSans-64" x="1225.105469"/>
     <use xlink:href="#DejaVuSans-20" x="1288.582031"/>
     <use xlink:href="#DejaVuSans-73" x="1320.369141"/>
     <use xlink:href="#DejaVuSans-70" x="1372.46875"/>
     <use xlink:href="#DejaVuSans-65" x="1435.945312"/>
     <use xlink:href="#DejaVuSans-65" x="1497.46875"/>
     <use xlink:href="#DejaVuSans-64" x="1558.992188"/>
    </g>
   </g>
   <g id="legend_1">
    <g id="patch_7">
     <path d="M 295.67 302.584 
L 407.72 302.584 
Q 409.72 302.584 409.72 300.584 
L 409.72 272.22775 
Q 409.72 270.22775 407.72 270.22775 
L 295.67 270.22775 
Q 293.67 270.22775 293.67 272.22775 
L 293.67 300.584 
Q 293.67 302.584 295.67 302.584 
z
" style="fill: #ffffff; opacity: 0.8; stroke: #cccccc; stroke-linejoin: miter"/>
    </g>
    <g id="line2d_31">
     <path d="M 297.67 278.326187 
L 307.67 278.326187 
L 317.67 278.326187 
" style="fill: none; stroke: #1f77b4; stroke-width: 1.5; stroke-linecap: square"/>
    </g>
    <g id="text_18">
     <!-- Actual speed -->
     <g transform="translate(325.67 281.826187) scale(0.1 -0.1)">
      <use xlink:href="#DejaVuSans-41"/>
      <use xlink:href="#DejaVuSans-63" x="66.658203"/>
      <use xlink:href="#DejaVuSans-74" x="121.638672"/>
      <use xlink:href="#DejaVuSans-75" x="160.847656"/>
      <use xlink:href="#DejaVuSans-61" x="224.226562"/>
      <use xlink:href="#DejaVuSans-6c" x="285.505859"/>
      <use xlink:href="#DejaVuSans-20" x="313.289062"/>
      <use xlink:href="#DejaVuSans-73" x="345.076172"/>
      <use xlink:href="#DejaVuSans-70" x="397.175781"/>
      <use xlink:href="#DejaVuSans-65" x="460.652344"/>
      <use xlink:href="#DejaVuSans-65" x="522.175781"/>
      <use xlink:href="#DejaVuSans-64" x="583.699219"/>
     </g>
    </g>
    <g id="line2d_32">
     <path d="M 297.67 293.004312 
L 307.67 293.004312 
L 317.67 293.004312 
" style="fill: none; stroke: #ff7f0e; stroke-width: 1.5; stroke-linecap: square"/>
    </g>
    <g id="text_19">
     <!-- Expected speed -->
     <g transform="translate(325.67 296.504312) scale(0.1 -0.1)">
      <use xlink:href="#DejaVuSans-45"/>
      <use xlink:href="#DejaVuSans-78" x="63.183594"/>
      <use xlink:href="#DejaVuSans-70" x="122.363281"/>
      <use xlink:href="#DejaVuSans-65" x="185.839844"/>
      <use xlink:href="#DejaVuSans-63" x="247.363281"/>
      <use xlink:href="#DejaVuSans-74" x="302.34375"/>
      <use xlink:href="#DejaVuSans-65" x="341.552734"/>
      <use xlink:href="#DejaVuSans-64" x="403.076172"/>
      <use xlink:href="#DejaVuSans-20" x="466.552734"/>
      <use xlink:href="#DejaVuSans-73" x="498.339844"/>
      <use xlink:href="#DejaVuSans-70" x="550.439453"/>
      <use xlink:href="#DejaVuSans-65" x="613.916016"/>
      <use xlink:href="#DejaVuSans-65" x="675.439453"/>
      <use xlink:href="#DejaVuSans-64" x="736.962891"/>
     </g>
    </g>
   </g>
  </g>
 </g>
 <defs>
  <clipPath id="pdddb990ce9">
   <rect x="57.6" y="41.472" width="357.12" height="266.112"/>
  </clipPath>
 </defs>
</svg>
