<?xml version="1.0" encoding="utf-8" standalone="no"?>
<!DOCTYPE svg PUBLIC "-//W3C//DTD SVG 1.1//EN"
  "http://www.w3.org/Graphics/SVG/1.1/DTD/svg11.dtd">
<svg xmlns:xlink="http://www.w3.org/1999/xlink" width="460.8pt" height="345.6pt" viewBox="0 0 460.8 345.6" xmlns="http://www.w3.org/2000/svg" version="1.1">
 <metadata>
  <rdf:RDF xmlns:dc="http://purl.org/dc/elements/1.1/" xmlns:cc="http://creativecommons.org/ns#" xmlns:rdf="http://www.w3.org/1999/02/22-rdf-syntax-ns#">
   <cc:Work>
    <dc:type rdf:resource="http://purl.org/dc/dcmitype/StillImage"/>
    <dc:date>2024-01-30T20:58:28.797856</dc:date>
    <dc:format>image/svg+xml</dc:format>
    <dc:creator>
     <cc:Agent>
      <dc:title>Matplotlib v3.7.1, https://matplotlib.org/</dc:title>
     </cc:Agent>
    </dc:creator>
   </cc:Work>
  </rdf:RDF>
 </metadata>
 <defs>
  <style type="text/css">*{stroke-linejoin: round; stroke-linecap: butt}</style>
 </defs>
 <g id="figure_1">
  <g id="patch_1">
   <path d="M 0 345.6 
L 460.8 345.6 
L 460.8 0 
L 0 0 
z
" style="fill: #ffffff"/>
  </g>
  <g id="axes_1">
   <g id="patch_2">
    <path d="M 57.6 307.584 
L 414.72 307.584 
L 414.72 41.472 
L 57.6 41.472 
z
" style="fill: #ffffff"/>
   </g>
   <g id="matplotlib.axis_1">
    <g id="xtick_1">
     <g id="line2d_1">
      <path d="M 73.832727 307.584 
L 73.832727 41.472 
" clip-path="url(#p6d61f77954)" style="fill: none; stroke: #b0b0b0; stroke-width: 0.8; stroke-linecap: square"/>
     </g>
     <g id="line2d_2">
      <defs>
       <path id="m811a28d569" d="M 0 0 
L 0 3.5 
" style="stroke: #000000; stroke-width: 0.8"/>
      </defs>
      <g>
       <use xlink:href="#m811a28d569" x="73.832727" y="307.584" style="stroke: #000000; stroke-width: 0.8"/>
      </g>
     </g>
     <g id="text_1">
      <!-- 0 -->
      <g transform="translate(70.651477 322.182437) scale(0.1 -0.1)">
       <defs>
        <path id="DejaVuSans-30" d="M 2034 4250 
Q 1547 4250 1301 3770 
Q 1056 3291 1056 2328 
Q 1056 1369 1301 889 
Q 1547 409 2034 409 
Q 2525 409 2770 889 
Q 3016 1369 3016 2328 
Q 3016 3291 2770 3770 
Q 2525 4250 2034 4250 
z
M 2034 4750 
Q 2819 4750 3233 4129 
Q 3647 3509 3647 2328 
Q 3647 1150 3233 529 
Q 2819 -91 2034 -91 
Q 1250 -91 836 529 
Q 422 1150 422 2328 
Q 422 3509 836 4129 
Q 1250 4750 2034 4750 
z
" transform="scale(0.015625)"/>
       </defs>
       <use xlink:href="#DejaVuSans-30"/>
      </g>
     </g>
    </g>
    <g id="xtick_2">
     <g id="line2d_3">
      <path d="M 115.886425 307.584 
L 115.886425 41.472 
" clip-path="url(#p6d61f77954)" style="fill: none; stroke: #b0b0b0; stroke-width: 0.8; stroke-linecap: square"/>
     </g>
     <g id="line2d_4">
      <g>
       <use xlink:href="#m811a28d569" x="115.886425" y="307.584" style="stroke: #000000; stroke-width: 0.8"/>
      </g>
     </g>
     <g id="text_2">
      <!-- 2 -->
      <g transform="translate(112.705175 322.182437) scale(0.1 -0.1)">
       <defs>
        <path id="DejaVuSans-32" d="M 1228 531 
L 3431 531 
L 3431 0 
L 469 0 
L 469 531 
Q 828 903 1448 1529 
Q 2069 2156 2228 2338 
Q 2531 2678 2651 2914 
Q 2772 3150 2772 3378 
Q 2772 3750 2511 3984 
Q 2250 4219 1831 4219 
Q 1534 4219 1204 4116 
Q 875 4013 500 3803 
L 500 4441 
Q 881 4594 1212 4672 
Q 1544 4750 1819 4750 
Q 2544 4750 2975 4387 
Q 3406 4025 3406 3419 
Q 3406 3131 3298 2873 
Q 3191 2616 2906 2266 
Q 2828 2175 2409 1742 
Q 1991 1309 1228 531 
z
" transform="scale(0.015625)"/>
       </defs>
       <use xlink:href="#DejaVuSans-32"/>
      </g>
     </g>
    </g>
    <g id="xtick_3">
     <g id="line2d_5">
      <path d="M 157.940122 307.584 
L 157.940122 41.472 
" clip-path="url(#p6d61f77954)" style="fill: none; stroke: #b0b0b0; stroke-width: 0.8; stroke-linecap: square"/>
     </g>
     <g id="line2d_6">
      <g>
       <use xlink:href="#m811a28d569" x="157.940122" y="307.584" style="stroke: #000000; stroke-width: 0.8"/>
      </g>
     </g>
     <g id="text_3">
      <!-- 4 -->
      <g transform="translate(154.758872 322.182437) scale(0.1 -0.1)">
       <defs>
        <path id="DejaVuSans-34" d="M 2419 4116 
L 825 1625 
L 2419 1625 
L 2419 4116 
z
M 2253 4666 
L 3047 4666 
L 3047 1625 
L 3713 1625 
L 3713 1100 
L 3047 1100 
L 3047 0 
L 2419 0 
L 2419 1100 
L 313 1100 
L 313 1709 
L 2253 4666 
z
" transform="scale(0.015625)"/>
       </defs>
       <use xlink:href="#DejaVuSans-34"/>
      </g>
     </g>
    </g>
    <g id="xtick_4">
     <g id="line2d_7">
      <path d="M 199.99382 307.584 
L 199.99382 41.472 
" clip-path="url(#p6d61f77954)" style="fill: none; stroke: #b0b0b0; stroke-width: 0.8; stroke-linecap: square"/>
     </g>
     <g id="line2d_8">
      <g>
       <use xlink:href="#m811a28d569" x="199.99382" y="307.584" style="stroke: #000000; stroke-width: 0.8"/>
      </g>
     </g>
     <g id="text_4">
      <!-- 6 -->
      <g transform="translate(196.81257 322.182437) scale(0.1 -0.1)">
       <defs>
        <path id="DejaVuSans-36" d="M 2113 2584 
Q 1688 2584 1439 2293 
Q 1191 2003 1191 1497 
Q 1191 994 1439 701 
Q 1688 409 2113 409 
Q 2538 409 2786 701 
Q 3034 994 3034 1497 
Q 3034 2003 2786 2293 
Q 2538 2584 2113 2584 
z
M 3366 4563 
L 3366 3988 
Q 3128 4100 2886 4159 
Q 2644 4219 2406 4219 
Q 1781 4219 1451 3797 
Q 1122 3375 1075 2522 
Q 1259 2794 1537 2939 
Q 1816 3084 2150 3084 
Q 2853 3084 3261 2657 
Q 3669 2231 3669 1497 
Q 3669 778 3244 343 
Q 2819 -91 2113 -91 
Q 1303 -91 875 529 
Q 447 1150 447 2328 
Q 447 3434 972 4092 
Q 1497 4750 2381 4750 
Q 2619 4750 2861 4703 
Q 3103 4656 3366 4563 
z
" transform="scale(0.015625)"/>
       </defs>
       <use xlink:href="#DejaVuSans-36"/>
      </g>
     </g>
    </g>
    <g id="xtick_5">
     <g id="line2d_9">
      <path d="M 242.047518 307.584 
L 242.047518 41.472 
" clip-path="url(#p6d61f77954)" style="fill: none; stroke: #b0b0b0; stroke-width: 0.8; stroke-linecap: square"/>
     </g>
     <g id="line2d_10">
      <g>
       <use xlink:href="#m811a28d569" x="242.047518" y="307.584" style="stroke: #000000; stroke-width: 0.8"/>
      </g>
     </g>
     <g id="text_5">
      <!-- 8 -->
      <g transform="translate(238.866268 322.182437) scale(0.1 -0.1)">
       <defs>
        <path id="DejaVuSans-38" d="M 2034 2216 
Q 1584 2216 1326 1975 
Q 1069 1734 1069 1313 
Q 1069 891 1326 650 
Q 1584 409 2034 409 
Q 2484 409 2743 651 
Q 3003 894 3003 1313 
Q 3003 1734 2745 1975 
Q 2488 2216 2034 2216 
z
M 1403 2484 
Q 997 2584 770 2862 
Q 544 3141 544 3541 
Q 544 4100 942 4425 
Q 1341 4750 2034 4750 
Q 2731 4750 3128 4425 
Q 3525 4100 3525 3541 
Q 3525 3141 3298 2862 
Q 3072 2584 2669 2484 
Q 3125 2378 3379 2068 
Q 3634 1759 3634 1313 
Q 3634 634 3220 271 
Q 2806 -91 2034 -91 
Q 1263 -91 848 271 
Q 434 634 434 1313 
Q 434 1759 690 2068 
Q 947 2378 1403 2484 
z
M 1172 3481 
Q 1172 3119 1398 2916 
Q 1625 2713 2034 2713 
Q 2441 2713 2670 2916 
Q 2900 3119 2900 3481 
Q 2900 3844 2670 4047 
Q 2441 4250 2034 4250 
Q 1625 4250 1398 4047 
Q 1172 3844 1172 3481 
z
" transform="scale(0.015625)"/>
       </defs>
       <use xlink:href="#DejaVuSans-38"/>
      </g>
     </g>
    </g>
    <g id="xtick_6">
     <g id="line2d_11">
      <path d="M 284.101215 307.584 
L 284.101215 41.472 
" clip-path="url(#p6d61f77954)" style="fill: none; stroke: #b0b0b0; stroke-width: 0.8; stroke-linecap: square"/>
     </g>
     <g id="line2d_12">
      <g>
       <use xlink:href="#m811a28d569" x="284.101215" y="307.584" style="stroke: #000000; stroke-width: 0.8"/>
      </g>
     </g>
     <g id="text_6">
      <!-- 10 -->
      <g transform="translate(277.738715 322.182437) scale(0.1 -0.1)">
       <defs>
        <path id="DejaVuSans-31" d="M 794 531 
L 1825 531 
L 1825 4091 
L 703 3866 
L 703 4441 
L 1819 4666 
L 2450 4666 
L 2450 531 
L 3481 531 
L 3481 0 
L 794 0 
L 794 531 
z
" transform="scale(0.015625)"/>
       </defs>
       <use xlink:href="#DejaVuSans-31"/>
       <use xlink:href="#DejaVuSans-30" x="63.623047"/>
      </g>
     </g>
    </g>
    <g id="xtick_7">
     <g id="line2d_13">
      <path d="M 326.154913 307.584 
L 326.154913 41.472 
" clip-path="url(#p6d61f77954)" style="fill: none; stroke: #b0b0b0; stroke-width: 0.8; stroke-linecap: square"/>
     </g>
     <g id="line2d_14">
      <g>
       <use xlink:href="#m811a28d569" x="326.154913" y="307.584" style="stroke: #000000; stroke-width: 0.8"/>
      </g>
     </g>
     <g id="text_7">
      <!-- 12 -->
      <g transform="translate(319.792413 322.182437) scale(0.1 -0.1)">
       <use xlink:href="#DejaVuSans-31"/>
       <use xlink:href="#DejaVuSans-32" x="63.623047"/>
      </g>
     </g>
    </g>
    <g id="xtick_8">
     <g id="line2d_15">
      <path d="M 368.20861 307.584 
L 368.20861 41.472 
" clip-path="url(#p6d61f77954)" style="fill: none; stroke: #b0b0b0; stroke-width: 0.8; stroke-linecap: square"/>
     </g>
     <g id="line2d_16">
      <g>
       <use xlink:href="#m811a28d569" x="368.20861" y="307.584" style="stroke: #000000; stroke-width: 0.8"/>
      </g>
     </g>
     <g id="text_8">
      <!-- 14 -->
      <g transform="translate(361.84611 322.182437) scale(0.1 -0.1)">
       <use xlink:href="#DejaVuSans-31"/>
       <use xlink:href="#DejaVuSans-34" x="63.623047"/>
      </g>
     </g>
    </g>
    <g id="xtick_9">
     <g id="line2d_17">
      <path d="M 410.262308 307.584 
L 410.262308 41.472 
" clip-path="url(#p6d61f77954)" style="fill: none; stroke: #b0b0b0; stroke-width: 0.8; stroke-linecap: square"/>
     </g>
     <g id="line2d_18">
      <g>
       <use xlink:href="#m811a28d569" x="410.262308" y="307.584" style="stroke: #000000; stroke-width: 0.8"/>
      </g>
     </g>
     <g id="text_9">
      <!-- 16 -->
      <g transform="translate(403.899808 322.182437) scale(0.1 -0.1)">
       <use xlink:href="#DejaVuSans-31"/>
       <use xlink:href="#DejaVuSans-36" x="63.623047"/>
      </g>
     </g>
    </g>
    <g id="text_10">
     <!-- Time(s) -->
     <g transform="translate(217.420156 335.860562) scale(0.1 -0.1)">
      <defs>
       <path id="DejaVuSans-54" d="M -19 4666 
L 3928 4666 
L 3928 4134 
L 2272 4134 
L 2272 0 
L 1638 0 
L 1638 4134 
L -19 4134 
L -19 4666 
z
" transform="scale(0.015625)"/>
       <path id="DejaVuSans-69" d="M 603 3500 
L 1178 3500 
L 1178 0 
L 603 0 
L 603 3500 
z
M 603 4863 
L 1178 4863 
L 1178 4134 
L 603 4134 
L 603 4863 
z
" transform="scale(0.015625)"/>
       <path id="DejaVuSans-6d" d="M 3328 2828 
Q 3544 3216 3844 3400 
Q 4144 3584 4550 3584 
Q 5097 3584 5394 3201 
Q 5691 2819 5691 2113 
L 5691 0 
L 5113 0 
L 5113 2094 
Q 5113 2597 4934 2840 
Q 4756 3084 4391 3084 
Q 3944 3084 3684 2787 
Q 3425 2491 3425 1978 
L 3425 0 
L 2847 0 
L 2847 2094 
Q 2847 2600 2669 2842 
Q 2491 3084 2119 3084 
Q 1678 3084 1418 2786 
Q 1159 2488 1159 1978 
L 1159 0 
L 581 0 
L 581 3500 
L 1159 3500 
L 1159 2956 
Q 1356 3278 1631 3431 
Q 1906 3584 2284 3584 
Q 2666 3584 2933 3390 
Q 3200 3197 3328 2828 
z
" transform="scale(0.015625)"/>
       <path id="DejaVuSans-65" d="M 3597 1894 
L 3597 1613 
L 953 1613 
Q 991 1019 1311 708 
Q 1631 397 2203 397 
Q 2534 397 2845 478 
Q 3156 559 3463 722 
L 3463 178 
Q 3153 47 2828 -22 
Q 2503 -91 2169 -91 
Q 1331 -91 842 396 
Q 353 884 353 1716 
Q 353 2575 817 3079 
Q 1281 3584 2069 3584 
Q 2775 3584 3186 3129 
Q 3597 2675 3597 1894 
z
M 3022 2063 
Q 3016 2534 2758 2815 
Q 2500 3097 2075 3097 
Q 1594 3097 1305 2825 
Q 1016 2553 972 2059 
L 3022 2063 
z
" transform="scale(0.015625)"/>
       <path id="DejaVuSans-28" d="M 1984 4856 
Q 1566 4138 1362 3434 
Q 1159 2731 1159 2009 
Q 1159 1288 1364 580 
Q 1569 -128 1984 -844 
L 1484 -844 
Q 1016 -109 783 600 
Q 550 1309 550 2009 
Q 550 2706 781 3412 
Q 1013 4119 1484 4856 
L 1984 4856 
z
" transform="scale(0.015625)"/>
       <path id="DejaVuSans-73" d="M 2834 3397 
L 2834 2853 
Q 2591 2978 2328 3040 
Q 2066 3103 1784 3103 
Q 1356 3103 1142 2972 
Q 928 2841 928 2578 
Q 928 2378 1081 2264 
Q 1234 2150 1697 2047 
L 1894 2003 
Q 2506 1872 2764 1633 
Q 3022 1394 3022 966 
Q 3022 478 2636 193 
Q 2250 -91 1575 -91 
Q 1294 -91 989 -36 
Q 684 19 347 128 
L 347 722 
Q 666 556 975 473 
Q 1284 391 1588 391 
Q 1994 391 2212 530 
Q 2431 669 2431 922 
Q 2431 1156 2273 1281 
Q 2116 1406 1581 1522 
L 1381 1569 
Q 847 1681 609 1914 
Q 372 2147 372 2553 
Q 372 3047 722 3315 
Q 1072 3584 1716 3584 
Q 2034 3584 2315 3537 
Q 2597 3491 2834 3397 
z
" transform="scale(0.015625)"/>
       <path id="DejaVuSans-29" d="M 513 4856 
L 1013 4856 
Q 1481 4119 1714 3412 
Q 1947 2706 1947 2009 
Q 1947 1309 1714 600 
Q 1481 -109 1013 -844 
L 513 -844 
Q 928 -128 1133 580 
Q 1338 1288 1338 2009 
Q 1338 2731 1133 3434 
Q 928 4138 513 4856 
z
" transform="scale(0.015625)"/>
      </defs>
      <use xlink:href="#DejaVuSans-54"/>
      <use xlink:href="#DejaVuSans-69" x="57.958984"/>
      <use xlink:href="#DejaVuSans-6d" x="85.742188"/>
      <use xlink:href="#DejaVuSans-65" x="183.154297"/>
      <use xlink:href="#DejaVuSans-28" x="244.677734"/>
      <use xlink:href="#DejaVuSans-73" x="283.691406"/>
      <use xlink:href="#DejaVuSans-29" x="335.791016"/>
     </g>
    </g>
   </g>
   <g id="matplotlib.axis_2">
    <g id="ytick_1">
     <g id="line2d_19">
      <path d="M 57.6 295.488 
L 414.72 295.488 
" clip-path="url(#p6d61f77954)" style="fill: none; stroke: #b0b0b0; stroke-width: 0.8; stroke-linecap: square"/>
     </g>
     <g id="line2d_20">
      <defs>
       <path id="m92509b4c1d" d="M 0 0 
L -3.5 0 
" style="stroke: #000000; stroke-width: 0.8"/>
      </defs>
      <g>
       <use xlink:href="#m92509b4c1d" x="57.6" y="295.488" style="stroke: #000000; stroke-width: 0.8"/>
      </g>
     </g>
     <g id="text_11">
      <!-- 0 -->
      <g transform="translate(44.2375 299.287219) scale(0.1 -0.1)">
       <use xlink:href="#DejaVuSans-30"/>
      </g>
     </g>
    </g>
    <g id="ytick_2">
     <g id="line2d_21">
      <path d="M 57.6 265.248 
L 414.72 265.248 
" clip-path="url(#p6d61f77954)" style="fill: none; stroke: #b0b0b0; stroke-width: 0.8; stroke-linecap: square"/>
     </g>
     <g id="line2d_22">
      <g>
       <use xlink:href="#m92509b4c1d" x="57.6" y="265.248" style="stroke: #000000; stroke-width: 0.8"/>
      </g>
     </g>
     <g id="text_12">
      <!-- 1 -->
      <g transform="translate(44.2375 269.047219) scale(0.1 -0.1)">
       <use xlink:href="#DejaVuSans-31"/>
      </g>
     </g>
    </g>
    <g id="ytick_3">
     <g id="line2d_23">
      <path d="M 57.6 235.008 
L 414.72 235.008 
" clip-path="url(#p6d61f77954)" style="fill: none; stroke: #b0b0b0; stroke-width: 0.8; stroke-linecap: square"/>
     </g>
     <g id="line2d_24">
      <g>
       <use xlink:href="#m92509b4c1d" x="57.6" y="235.008" style="stroke: #000000; stroke-width: 0.8"/>
      </g>
     </g>
     <g id="text_13">
      <!-- 2 -->
      <g transform="translate(44.2375 238.807219) scale(0.1 -0.1)">
       <use xlink:href="#DejaVuSans-32"/>
      </g>
     </g>
    </g>
    <g id="ytick_4">
     <g id="line2d_25">
      <path d="M 57.6 204.768 
L 414.72 204.768 
" clip-path="url(#p6d61f77954)" style="fill: none; stroke: #b0b0b0; stroke-width: 0.8; stroke-linecap: square"/>
     </g>
     <g id="line2d_26">
      <g>
       <use xlink:href="#m92509b4c1d" x="57.6" y="204.768" style="stroke: #000000; stroke-width: 0.8"/>
      </g>
     </g>
     <g id="text_14">
      <!-- 3 -->
      <g transform="translate(44.2375 208.567219) scale(0.1 -0.1)">
       <defs>
        <path id="DejaVuSans-33" d="M 2597 2516 
Q 3050 2419 3304 2112 
Q 3559 1806 3559 1356 
Q 3559 666 3084 287 
Q 2609 -91 1734 -91 
Q 1441 -91 1130 -33 
Q 819 25 488 141 
L 488 750 
Q 750 597 1062 519 
Q 1375 441 1716 441 
Q 2309 441 2620 675 
Q 2931 909 2931 1356 
Q 2931 1769 2642 2001 
Q 2353 2234 1838 2234 
L 1294 2234 
L 1294 2753 
L 1863 2753 
Q 2328 2753 2575 2939 
Q 2822 3125 2822 3475 
Q 2822 3834 2567 4026 
Q 2313 4219 1838 4219 
Q 1578 4219 1281 4162 
Q 984 4106 628 3988 
L 628 4550 
Q 988 4650 1302 4700 
Q 1616 4750 1894 4750 
Q 2613 4750 3031 4423 
Q 3450 4097 3450 3541 
Q 3450 3153 3228 2886 
Q 3006 2619 2597 2516 
z
" transform="scale(0.015625)"/>
       </defs>
       <use xlink:href="#DejaVuSans-33"/>
      </g>
     </g>
    </g>
    <g id="ytick_5">
     <g id="line2d_27">
      <path d="M 57.6 174.528 
L 414.72 174.528 
" clip-path="url(#p6d61f77954)" style="fill: none; stroke: #b0b0b0; stroke-width: 0.8; stroke-linecap: square"/>
     </g>
     <g id="line2d_28">
      <g>
       <use xlink:href="#m92509b4c1d" x="57.6" y="174.528" style="stroke: #000000; stroke-width: 0.8"/>
      </g>
     </g>
     <g id="text_15">
      <!-- 4 -->
      <g transform="translate(44.2375 178.327219) scale(0.1 -0.1)">
       <use xlink:href="#DejaVuSans-34"/>
      </g>
     </g>
    </g>
    <g id="ytick_6">
     <g id="line2d_29">
      <path d="M 57.6 144.288 
L 414.72 144.288 
" clip-path="url(#p6d61f77954)" style="fill: none; stroke: #b0b0b0; stroke-width: 0.8; stroke-linecap: square"/>
     </g>
     <g id="line2d_30">
      <g>
       <use xlink:href="#m92509b4c1d" x="57.6" y="144.288" style="stroke: #000000; stroke-width: 0.8"/>
      </g>
     </g>
     <g id="text_16">
      <!-- 5 -->
      <g transform="translate(44.2375 148.087219) scale(0.1 -0.1)">
       <defs>
        <path id="DejaVuSans-35" d="M 691 4666 
L 3169 4666 
L 3169 4134 
L 1269 4134 
L 1269 2991 
Q 1406 3038 1543 3061 
Q 1681 3084 1819 3084 
Q 2600 3084 3056 2656 
Q 3513 2228 3513 1497 
Q 3513 744 3044 326 
Q 2575 -91 1722 -91 
Q 1428 -91 1123 -41 
Q 819 9 494 109 
L 494 744 
Q 775 591 1075 516 
Q 1375 441 1709 441 
Q 2250 441 2565 725 
Q 2881 1009 2881 1497 
Q 2881 1984 2565 2268 
Q 2250 2553 1709 2553 
Q 1456 2553 1204 2497 
Q 953 2441 691 2322 
L 691 4666 
z
" transform="scale(0.015625)"/>
       </defs>
       <use xlink:href="#DejaVuSans-35"/>
      </g>
     </g>
    </g>
    <g id="ytick_7">
     <g id="line2d_31">
      <path d="M 57.6 114.048 
L 414.72 114.048 
" clip-path="url(#p6d61f77954)" style="fill: none; stroke: #b0b0b0; stroke-width: 0.8; stroke-linecap: square"/>
     </g>
     <g id="line2d_32">
      <g>
       <use xlink:href="#m92509b4c1d" x="57.6" y="114.048" style="stroke: #000000; stroke-width: 0.8"/>
      </g>
     </g>
     <g id="text_17">
      <!-- 6 -->
      <g transform="translate(44.2375 117.847219) scale(0.1 -0.1)">
       <use xlink:href="#DejaVuSans-36"/>
      </g>
     </g>
    </g>
    <g id="ytick_8">
     <g id="line2d_33">
      <path d="M 57.6 83.808 
L 414.72 83.808 
" clip-path="url(#p6d61f77954)" style="fill: none; stroke: #b0b0b0; stroke-width: 0.8; stroke-linecap: square"/>
     </g>
     <g id="line2d_34">
      <g>
       <use xlink:href="#m92509b4c1d" x="57.6" y="83.808" style="stroke: #000000; stroke-width: 0.8"/>
      </g>
     </g>
     <g id="text_18">
      <!-- 7 -->
      <g transform="translate(44.2375 87.607219) scale(0.1 -0.1)">
       <defs>
        <path id="DejaVuSans-37" d="M 525 4666 
L 3525 4666 
L 3525 4397 
L 1831 0 
L 1172 0 
L 2766 4134 
L 525 4134 
L 525 4666 
z
" transform="scale(0.015625)"/>
       </defs>
       <use xlink:href="#DejaVuSans-37"/>
      </g>
     </g>
    </g>
    <g id="ytick_9">
     <g id="line2d_35">
      <path d="M 57.6 53.568 
L 414.72 53.568 
" clip-path="url(#p6d61f77954)" style="fill: none; stroke: #b0b0b0; stroke-width: 0.8; stroke-linecap: square"/>
     </g>
     <g id="line2d_36">
      <g>
       <use xlink:href="#m92509b4c1d" x="57.6" y="53.568" style="stroke: #000000; stroke-width: 0.8"/>
      </g>
     </g>
     <g id="text_19">
      <!-- 8 -->
      <g transform="translate(44.2375 57.367219) scale(0.1 -0.1)">
       <use xlink:href="#DejaVuSans-38"/>
      </g>
     </g>
    </g>
    <g id="text_20">
     <!-- Velocity(m/s) -->
     <g transform="translate(38.157812 207.204563) rotate(-90) scale(0.1 -0.1)">
      <defs>
       <path id="DejaVuSans-56" d="M 1831 0 
L 50 4666 
L 709 4666 
L 2188 738 
L 3669 4666 
L 4325 4666 
L 2547 0 
L 1831 0 
z
" transform="scale(0.015625)"/>
       <path id="DejaVuSans-6c" d="M 603 4863 
L 1178 4863 
L 1178 0 
L 603 0 
L 603 4863 
z
" transform="scale(0.015625)"/>
       <path id="DejaVuSans-6f" d="M 1959 3097 
Q 1497 3097 1228 2736 
Q 959 2375 959 1747 
Q 959 1119 1226 758 
Q 1494 397 1959 397 
Q 2419 397 2687 759 
Q 2956 1122 2956 1747 
Q 2956 2369 2687 2733 
Q 2419 3097 1959 3097 
z
M 1959 3584 
Q 2709 3584 3137 3096 
Q 3566 2609 3566 1747 
Q 3566 888 3137 398 
Q 2709 -91 1959 -91 
Q 1206 -91 779 398 
Q 353 888 353 1747 
Q 353 2609 779 3096 
Q 1206 3584 1959 3584 
z
" transform="scale(0.015625)"/>
       <path id="DejaVuSans-63" d="M 3122 3366 
L 3122 2828 
Q 2878 2963 2633 3030 
Q 2388 3097 2138 3097 
Q 1578 3097 1268 2742 
Q 959 2388 959 1747 
Q 959 1106 1268 751 
Q 1578 397 2138 397 
Q 2388 397 2633 464 
Q 2878 531 3122 666 
L 3122 134 
Q 2881 22 2623 -34 
Q 2366 -91 2075 -91 
Q 1284 -91 818 406 
Q 353 903 353 1747 
Q 353 2603 823 3093 
Q 1294 3584 2113 3584 
Q 2378 3584 2631 3529 
Q 2884 3475 3122 3366 
z
" transform="scale(0.015625)"/>
       <path id="DejaVuSans-74" d="M 1172 4494 
L 1172 3500 
L 2356 3500 
L 2356 3053 
L 1172 3053 
L 1172 1153 
Q 1172 725 1289 603 
Q 1406 481 1766 481 
L 2356 481 
L 2356 0 
L 1766 0 
Q 1100 0 847 248 
Q 594 497 594 1153 
L 594 3053 
L 172 3053 
L 172 3500 
L 594 3500 
L 594 4494 
L 1172 4494 
z
" transform="scale(0.015625)"/>
       <path id="DejaVuSans-79" d="M 2059 -325 
Q 1816 -950 1584 -1140 
Q 1353 -1331 966 -1331 
L 506 -1331 
L 506 -850 
L 844 -850 
Q 1081 -850 1212 -737 
Q 1344 -625 1503 -206 
L 1606 56 
L 191 3500 
L 800 3500 
L 1894 763 
L 2988 3500 
L 3597 3500 
L 2059 -325 
z
" transform="scale(0.015625)"/>
       <path id="DejaVuSans-2f" d="M 1625 4666 
L 2156 4666 
L 531 -594 
L 0 -594 
L 1625 4666 
z
" transform="scale(0.015625)"/>
      </defs>
      <use xlink:href="#DejaVuSans-56"/>
      <use xlink:href="#DejaVuSans-65" x="60.658203"/>
      <use xlink:href="#DejaVuSans-6c" x="122.181641"/>
      <use xlink:href="#DejaVuSans-6f" x="149.964844"/>
      <use xlink:href="#DejaVuSans-63" x="211.146484"/>
      <use xlink:href="#DejaVuSans-69" x="266.126953"/>
      <use xlink:href="#DejaVuSans-74" x="293.910156"/>
      <use xlink:href="#DejaVuSans-79" x="333.119141"/>
      <use xlink:href="#DejaVuSans-28" x="392.298828"/>
      <use xlink:href="#DejaVuSans-6d" x="431.3125"/>
      <use xlink:href="#DejaVuSans-2f" x="528.724609"/>
      <use xlink:href="#DejaVuSans-73" x="562.416016"/>
      <use xlink:href="#DejaVuSans-29" x="614.515625"/>
     </g>
    </g>
   </g>
   <g id="line2d_37">
    <path d="M 73.832727 53.568 
L 73.832727 295.488 
L 74.253264 290.311517 
L 74.253264 290.311517 
L 80.981856 266.418046 
L 80.981856 266.418046 
L 87.710447 241.728024 
L 87.710447 241.728024 
L 94.439039 216.214898 
L 94.439039 216.214898 
L 101.167631 189.851183 
L 101.167631 189.851183 
L 107.896222 162.608602 
L 107.896222 162.608602 
L 114.624814 134.457792 
L 114.624814 134.457792 
L 121.353406 105.368485 
L 121.353406 105.368485 
L 128.081997 75.309411 
L 128.081997 75.309411 
L 129.343608 69.886744 
L 129.343608 69.886744 
L 130.605219 65.750577 
L 130.605219 65.750577 
L 131.86683 62.662801 
L 131.86683 62.662801 
L 132.707904 61.054305 
L 132.707904 61.054305 
L 133.128441 60.499734 
L 133.128441 60.499734 
L 133.969515 59.879693 
L 133.969515 59.879693 
L 134.390052 59.731093 
L 134.390052 59.731093 
L 134.810589 59.730549 
L 134.810589 59.730549 
L 135.231126 60.51062 
L 135.231126 60.51062 
L 135.651663 61.883032 
L 135.651663 61.883032 
L 136.0722 62.71811 
L 136.0722 62.71811 
L 136.492737 63.921601 
L 136.492737 63.921601 
L 136.913274 65.72947 
L 136.913274 65.72947 
L 137.333811 68.374018 
L 137.333811 68.374018 
L 138.174885 72.186647 
L 138.174885 72.186647 
L 138.595422 75.101844 
L 138.595422 75.101844 
L 139.015959 79.231448 
L 139.015959 79.231448 
L 139.857033 84.556168 
L 139.857033 84.556168 
L 140.277569 88.771715 
L 140.277569 88.771715 
L 141.118643 94.63764 
L 141.118643 94.63764 
L 141.53918 98.517734 
L 141.53918 98.517734 
L 142.380254 103.874387 
L 142.380254 103.874387 
L 142.800791 107.394353 
L 143.641865 112.080344 
L 143.641865 112.080344 
L 144.062402 115.332625 
L 144.062402 115.332625 
L 144.482939 117.047264 
L 144.482939 117.047264 
L 144.903476 119.376772 
L 144.903476 119.376772 
L 146.585624 125.87934 
L 146.585624 125.87934 
L 147.006161 127.848871 
L 147.006161 127.848871 
L 149.108846 133.542549 
L 149.108846 133.542549 
L 149.94992 135.190689 
L 149.94992 135.190689 
L 151.632068 137.787247 
L 151.632068 137.787247 
L 152.893679 138.791789 
L 152.893679 138.791789 
L 153.734753 139.17109 
L 153.734753 139.17109 
L 155.416901 139.41806 
L 155.416901 139.41806 
L 158.781196 139.419179 
L 158.781196 139.419179 
L 160.042807 139.237769 
L 160.042807 139.237769 
L 161.304418 138.82085 
L 161.304418 138.82085 
L 161.724955 138.606297 
L 163.407103 136.976482 
L 163.407103 136.976482 
L 165.089251 134.217566 
L 165.089251 134.217566 
L 166.771399 129.898356 
L 166.771399 129.898356 
L 168.03301 125.408926 
L 168.03301 125.408926 
L 173.499991 102.147139 
L 173.499991 102.147139 
L 174.761602 98.51341 
L 174.761602 98.51341 
L 176.023212 95.812796 
L 176.023212 95.812796 
L 177.284823 93.738574 
L 177.284823 93.738574 
L 179.387508 90.786817 
L 179.387508 90.786817 
L 181.069656 87.439824 
L 181.069656 87.439824 
L 181.91073 85.374613 
L 181.91073 85.374613 
L 183.592878 78.959349 
L 183.592878 78.959349 
L 185.275026 71.606856 
L 185.275026 71.606856 
L 186.1161 68.964696 
L 186.1161 68.964696 
L 186.957174 67.228285 
L 186.957174 67.228285 
L 187.798248 65.971541 
L 187.798248 65.971541 
L 189.059859 64.652926 
L 189.059859 64.652926 
L 190.32147 63.730606 
L 190.32147 63.730606 
L 192.424154 62.498779 
L 192.424154 62.498779 
L 193.265228 62.018538 
L 193.265228 62.018538 
L 193.685765 61.668359 
L 197.050061 57.650793 
L 197.050061 57.650793 
L 198.311672 56.61595 
L 198.311672 56.61595 
L 199.573283 55.843439 
L 199.573283 55.843439 
L 201.255431 55.109 
L 201.255431 55.109 
L 202.937579 54.611613 
L 202.937579 54.611613 
L 205.040264 54.209148 
L 205.040264 54.209148 
L 207.984023 53.892143 
L 207.984023 53.892143 
L 212.189392 53.690351 
L 212.189392 53.690351 
L 219.759058 53.589168 
L 219.759058 53.589168 
L 226.067113 53.572899 
L 226.067113 53.572899 
L 226.48765 53.990029 
L 226.48765 53.990029 
L 226.908187 55.385243 
L 226.908187 55.385243 
L 227.328724 56.264108 
L 227.328724 56.264108 
L 227.74926 57.552967 
L 227.74926 57.552967 
L 228.169797 59.31103 
L 229.010871 63.297508 
L 229.010871 63.297508 
L 229.851945 66.977958 
L 229.851945 66.977958 
L 230.693019 71.823767 
L 230.693019 71.823767 
L 231.534093 74.96407 
L 231.534093 74.96407 
L 231.95463 77.039018 
L 231.95463 77.039018 
L 232.795704 80.134142 
L 232.795704 80.134142 
L 234.057315 85.271676 
L 234.057315 85.271676 
L 234.477852 86.661144 
L 234.477852 86.661144 
L 234.898389 88.457944 
L 238.262685 97.883601 
L 238.262685 97.883601 
L 238.683222 99.05652 
L 238.683222 99.05652 
L 241.206444 103.688804 
L 241.206444 103.688804 
L 243.309129 105.842376 
L 243.309129 105.842376 
L 244.57074 106.612468 
L 244.57074 106.612468 
L 245.83235 107.036705 
L 245.83235 107.036705 
L 247.514498 107.230543 
L 247.514498 107.230543 
L 252.981479 107.040182 
L 252.981479 107.040182 
L 255.504701 106.306318 
L 255.504701 106.306318 
L 256.345775 105.942289 
L 256.345775 105.942289 
L 259.289534 103.799059 
L 259.289534 103.799059 
L 260.130608 102.83271 
L 260.130608 102.83271 
L 260.971682 101.828681 
L 260.971682 101.828681 
L 261.812756 100.725042 
L 261.812756 100.725042 
L 263.91544 96.897293 
L 263.91544 96.897293 
L 264.756514 94.855791 
L 264.756514 94.855791 
L 265.597588 92.77162 
L 265.597588 92.77162 
L 268.12081 84.362602 
L 268.12081 84.362602 
L 271.485106 69.800802 
L 271.485106 69.800802 
L 272.746717 65.686438 
L 272.746717 65.686438 
L 274.008328 62.614901 
L 274.008328 62.614901 
L 275.269939 60.321862 
L 275.269939 60.321862 
L 276.53155 58.610036 
L 276.53155 58.610036 
L 277.793161 57.332094 
L 277.793161 57.332094 
L 279.054772 56.378022 
L 279.054772 56.378022 
L 280.316382 55.665809 
L 280.316382 55.665809 
L 281.99853 54.988705 
L 281.99853 54.988705 
L 284.101215 54.440817 
L 284.101215 54.440817 
L 286.624437 54.054441 
L 286.624437 54.054441 
L 289.988733 53.791111 
L 289.988733 53.791111 
L 295.455714 53.630869 
L 295.455714 53.630869 
L 303.445916 53.577858 
L 303.445916 53.577858 
L 304.28699 54.103792 
L 304.28699 54.103792 
L 304.707527 54.586392 
L 304.707527 54.586392 
L 305.548601 56.210795 
L 305.548601 56.210795 
L 305.969138 57.297499 
L 305.969138 57.297499 
L 306.810212 58.916186 
L 306.810212 58.916186 
L 307.230749 59.876518 
L 307.230749 59.876518 
L 308.49236 63.495006 
L 308.49236 63.495006 
L 308.912897 64.486938 
L 308.912897 64.486938 
L 311.015582 71.145696 
L 311.015582 71.145696 
L 311.436119 73.049273 
L 311.436119 73.049273 
L 312.277193 75.463514 
L 312.277193 75.463514 
L 313.118267 78.632787 
L 313.118267 78.632787 
L 313.959341 81.838045 
L 313.959341 81.838045 
L 314.379878 84.113152 
L 314.379878 84.113152 
L 315.220951 87.060917 
L 315.220951 87.060917 
L 315.641488 89.272368 
L 315.641488 89.272368 
L 316.482562 92.438617 
L 316.482562 92.438617 
L 316.903099 94.796067 
L 316.903099 94.796067 
L 317.744173 98.171698 
L 317.744173 98.171698 
L 318.16471 100.718994 
L 319.005784 104.296084 
L 319.005784 104.296084 
L 319.426321 107.13054 
L 319.426321 107.13054 
L 319.846858 108.783367 
L 319.846858 108.783367 
L 322.37008 121.396501 
L 322.37008 121.396501 
L 323.211154 125.081185 
L 323.211154 125.081185 
L 323.631691 128.042558 
L 323.631691 128.042558 
L 324.052228 129.597771 
L 324.052228 129.597771 
L 324.472765 132.00427 
L 324.472765 132.00427 
L 324.893302 133.441154 
L 324.893302 133.441154 
L 325.313839 135.573074 
L 325.313839 135.573074 
L 325.734376 137.01652 
L 325.734376 137.01652 
L 326.154913 138.998933 
L 326.154913 138.998933 
L 326.57545 140.443891 
L 326.57545 140.443891 
L 327.837061 145.528203 
L 327.837061 145.528203 
L 329.098672 150.061058 
L 329.098672 150.061058 
L 329.939746 153.175959 
L 329.939746 153.175959 
L 330.360283 154.967135 
L 330.360283 154.967135 
L 330.78082 156.165123 
L 330.78082 156.165123 
L 331.201357 158.050526 
L 331.201357 158.050526 
L 331.621894 159.172672 
L 331.621894 159.172672 
L 332.042431 161.073649 
L 332.042431 161.073649 
L 332.462967 162.040936 
L 332.462967 162.040936 
L 332.883504 163.999097 
L 332.883504 163.999097 
L 333.724578 165.923662 
L 333.724578 165.923662 
L 334.986189 169.778778 
L 334.986189 169.778778 
L 335.406726 170.660244 
L 335.406726 170.660244 
L 335.827263 172.378269 
L 335.827263 172.378269 
L 336.668337 174.017428 
L 336.668337 174.017428 
L 337.088874 175.203955 
L 337.088874 175.203955 
L 337.509411 175.988985 
L 337.509411 175.988985 
L 337.929948 177.375943 
L 337.929948 177.375943 
L 338.771022 178.760844 
L 338.771022 178.760844 
L 339.191559 179.771707 
L 339.191559 179.771707 
L 339.612096 180.433479 
L 339.612096 180.433479 
L 340.032633 181.538237 
L 340.032633 181.538237 
L 340.873707 182.603017 
L 340.873707 182.603017 
L 341.294244 183.44248 
L 341.294244 183.44248 
L 342.135318 184.384426 
L 342.135318 184.384426 
L 342.555855 185.020252 
L 342.555855 185.020252 
L 342.976392 185.439408 
L 342.976392 185.439408 
L 343.396929 186.096372 
L 343.396929 186.096372 
L 345.079077 187.572175 
L 345.079077 187.572175 
L 348.022836 189.381162 
L 348.022836 189.381162 
L 350.12552 190.041785 
L 350.12552 190.041785 
L 351.387131 190.221985 
L 351.387131 190.221985 
L 356.013038 190.420481 
L 356.013038 190.420481 
L 359.377334 190.355223 
L 359.377334 190.355223 
L 362.321093 190.051825 
L 362.321093 190.051825 
L 363.162167 190.000356 
L 363.162167 190.000356 
L 364.003241 189.793092 
L 364.003241 189.793092 
L 364.844315 189.691122 
L 364.844315 189.691122 
L 365.685389 189.360962 
L 365.685389 189.360962 
L 366.526463 189.207252 
L 366.526463 189.207252 
L 367.367537 188.693293 
L 367.367537 188.693293 
L 368.629147 188.329113 
L 368.629147 188.329113 
L 369.470221 187.717751 
L 369.470221 187.717751 
L 370.731832 187.194387 
L 370.731832 187.194387 
L 371.572906 186.445161 
L 371.572906 186.445161 
L 372.834517 185.695904 
L 372.834517 185.695904 
L 373.675591 184.853539 
L 373.675591 184.853539 
L 374.096128 184.462294 
L 374.096128 184.462294 
L 374.937202 183.24719 
L 374.937202 183.24719 
L 375.357739 182.653246 
L 375.357739 182.653246 
L 376.198813 181.052401 
L 376.198813 181.052401 
L 377.039887 178.90772 
L 377.039887 178.90772 
L 377.880961 176.587102 
L 377.880961 176.587102 
L 378.301498 175.298636 
L 378.301498 175.298636 
L 382.506868 158.673894 
L 382.506868 158.673894 
L 383.347942 155.920391 
L 383.347942 155.920391 
L 384.189016 154.505098 
L 384.189016 154.505098 
L 384.609553 154.030663 
L 384.609553 154.030663 
L 385.030089 153.791283 
L 385.030089 153.791283 
L 385.450626 153.713475 
L 385.450626 153.713475 
L 385.871163 154.158729 
L 385.871163 154.158729 
L 386.2917 155.529508 
L 386.2917 155.529508 
L 386.712237 156.383577 
L 386.712237 156.383577 
L 387.553311 158.563185 
L 387.553311 158.563185 
L 388.394385 160.424729 
L 388.394385 160.424729 
L 389.235459 161.871592 
L 389.235459 161.871592 
L 390.076533 162.89691 
L 390.076533 162.89691 
L 390.917607 163.631409 
L 390.917607 163.631409 
L 392.179218 164.092992 
L 392.179218 164.092992 
L 393.020292 164.367451 
L 393.020292 164.367451 
L 394.281903 164.530686 
L 394.281903 164.530686 
L 398.066736 164.472081 
L 398.066736 164.472081 
L 398.487273 164.459471 
L 398.487273 164.459471 
" clip-path="url(#p6d61f77954)" style="fill: none; stroke: #1f77b4; stroke-width: 1.5; stroke-linecap: square"/>
   </g>
   <g id="line2d_38">
    <path d="M 73.832727 53.568 
L 73.832727 279.920448 
L 74.253264 274.472319 
L 74.253264 274.472319 
L 80.981856 250.050797 
L 80.981856 250.050797 
L 87.710447 224.815124 
L 87.710447 224.815124 
L 94.439039 198.738144 
L 94.439039 198.738144 
L 101.167631 171.791824 
L 101.167631 171.791824 
L 107.896222 143.947165 
L 107.896222 143.947165 
L 114.624814 115.174198 
L 114.624814 115.174198 
L 121.353406 85.442049 
L 121.353406 85.442049 
L 128.502534 53.568 
L 128.502534 53.568 
L 132.287367 53.587777 
L 132.287367 53.587777 
L 132.707904 55.080907 
L 132.707904 55.080907 
L 133.128441 56.990382 
L 133.128441 56.990382 
L 133.548978 57.004413 
L 133.548978 57.004413 
L 134.390052 59.725287 
L 134.390052 59.725287 
L 135.231126 64.497552 
L 135.231126 64.497552 
L 135.651663 64.309006 
L 135.651663 64.309006 
L 136.0722 66.214368 
L 136.0722 66.214368 
L 136.492737 69.173594 
L 136.492737 69.173594 
L 136.913274 73.412123 
L 136.913274 73.412123 
L 137.333811 73.285327 
L 137.754348 76.229251 
L 137.754348 76.229251 
L 138.174885 80.65554 
L 138.174885 80.65554 
L 138.595422 87.098687 
L 138.595422 87.098687 
L 139.015959 86.141228 
L 139.015959 86.141228 
L 139.436496 90.168924 
L 139.436496 90.168924 
L 139.857033 96.802703 
L 139.857033 96.802703 
L 140.277569 97.058563 
L 140.277569 97.058563 
L 140.698106 100.378462 
L 140.698106 100.378462 
L 141.118643 105.90966 
L 141.118643 105.90966 
L 141.53918 106.318958 
L 141.53918 106.318958 
L 141.959717 108.963386 
L 141.959717 108.963386 
L 142.380254 114.100224 
L 142.380254 114.100224 
L 142.800791 113.943218 
L 142.800791 113.943218 
L 143.221328 116.71293 
L 143.221328 116.71293 
L 143.641865 121.528499 
L 143.641865 121.528499 
L 144.062402 120.313788 
L 144.062402 120.313788 
L 144.482939 123.814704 
L 144.482939 123.814704 
L 144.903476 124.022452 
L 144.903476 124.022452 
L 145.324013 126.188513 
L 146.165087 128.782803 
L 146.165087 128.782803 
L 146.585624 131.60102 
L 146.585624 131.60102 
L 147.006161 131.233725 
L 147.006161 131.233725 
L 147.426698 133.301173 
L 147.426698 133.301173 
L 147.847235 133.402568 
L 148.267772 134.930655 
L 148.267772 134.930655 
L 148.688309 135.193471 
L 148.688309 135.193471 
L 149.108846 136.130095 
L 149.108846 136.130095 
L 149.94992 137.193121 
L 149.94992 137.193121 
L 150.370457 138.386573 
L 150.370457 138.386573 
L 150.790994 138.088588 
L 150.790994 138.088588 
L 151.211531 138.894484 
L 151.211531 138.894484 
L 151.632068 138.889434 
L 151.632068 138.889434 
L 152.052605 139.206017 
L 152.052605 139.206017 
L 153.314216 139.516793 
L 153.314216 139.516793 
L 153.734753 139.42943 
L 153.734753 139.42943 
L 154.996364 139.501734 
L 154.996364 139.501734 
L 155.416901 139.445487 
L 155.416901 139.445487 
L 155.837438 139.503518 
L 156.257975 139.430398 
L 156.257975 139.430398 
L 157.099049 139.473338 
L 157.099049 139.473338 
L 158.360659 139.172148 
L 158.360659 139.172148 
L 159.62227 138.438707 
L 159.62227 138.438707 
L 160.042807 138.118072 
L 160.042807 138.118072 
L 161.304418 136.509909 
L 161.304418 136.509909 
L 161.724955 134.224612 
L 161.724955 134.224612 
L 162.145492 134.976076 
L 162.145492 134.976076 
L 162.566029 132.257046 
L 162.566029 132.257046 
L 162.986566 133.069444 
L 162.986566 133.069444 
L 163.407103 129.797113 
L 163.407103 129.797113 
L 163.82764 130.485889 
L 163.82764 130.485889 
L 164.248177 126.843179 
L 164.248177 126.843179 
L 164.668714 127.152625 
L 164.668714 127.152625 
L 165.089251 123.341115 
L 165.089251 123.341115 
L 165.509788 123.211778 
L 165.509788 123.211778 
L 165.930325 119.25312 
L 165.930325 119.25312 
L 166.350862 118.445985 
L 166.350862 118.445985 
L 166.771399 114.770676 
L 166.771399 114.770676 
L 167.191936 112.754151 
L 167.191936 112.754151 
L 168.03301 105.925385 
L 168.03301 105.925385 
L 172.23838 87.265672 
L 172.23838 87.265672 
L 172.658917 87.254453 
L 172.658917 87.254453 
L 173.079454 87.653076 
L 173.079454 87.653076 
L 173.920528 87.817884 
L 173.920528 87.817884 
L 176.443749 87.791727 
L 176.443749 87.791727 
L 176.864286 87.255753 
L 176.864286 87.255753 
L 177.284823 87.527641 
L 177.284823 87.527641 
L 177.70536 87.026383 
L 177.70536 87.026383 
L 178.125897 85.624396 
L 178.125897 85.624396 
L 178.546434 86.010077 
L 178.966971 84.849798 
L 178.966971 84.849798 
L 179.387508 82.306644 
L 179.387508 82.306644 
L 179.808045 82.714038 
L 179.808045 82.714038 
L 180.228582 80.758326 
L 180.228582 80.758326 
L 180.649119 76.806926 
L 180.649119 76.806926 
L 181.069656 77.176005 
L 181.069656 77.176005 
L 181.490193 74.505753 
L 181.490193 74.505753 
L 181.91073 68.890094 
L 181.91073 68.890094 
L 182.331267 68.713613 
L 182.331267 68.713613 
L 182.751804 65.421747 
L 182.751804 65.421747 
L 183.172341 60.391505 
L 183.172341 60.391505 
L 184.433952 54.552856 
L 184.433952 54.552856 
L 184.854489 55.695565 
L 184.854489 55.695565 
L 185.275026 55.905794 
L 185.275026 55.905794 
L 186.1161 58.517381 
L 186.1161 58.517381 
L 186.536637 59.738472 
L 186.536637 59.738472 
L 186.957174 59.831188 
L 186.957174 59.831188 
L 187.377711 60.401786 
L 187.377711 60.401786 
L 188.218785 60.879155 
L 188.218785 60.879155 
L 188.639322 60.78774 
L 188.639322 60.78774 
L 189.900933 61.068639 
L 189.900933 61.068639 
L 190.32147 60.83694 
L 190.32147 60.83694 
L 191.162544 61.034498 
L 191.162544 61.034498 
L 191.583081 60.462992 
L 191.583081 60.462992 
L 192.003618 59.674303 
L 192.424154 60.142267 
L 192.424154 60.142267 
L 192.844691 59.463651 
L 192.844691 59.463651 
L 193.265228 58.246672 
L 193.265228 58.246672 
L 193.685765 56.158903 
L 193.685765 56.158903 
L 194.106302 56.531369 
L 194.106302 56.531369 
L 194.947376 53.568 
L 194.947376 53.568 
L 225.646576 53.568 
L 225.646576 53.568 
L 226.067113 54.784706 
L 226.48765 58.043248 
L 226.48765 58.043248 
L 226.908187 57.938406 
L 226.908187 57.938406 
L 227.328724 60.008364 
L 227.328724 60.008364 
L 228.169797 65.995763 
L 228.169797 65.995763 
L 228.590334 66.508422 
L 228.590334 66.508422 
L 229.431408 70.641262 
L 229.431408 70.641262 
L 230.272482 76.624972 
L 230.272482 76.624972 
L 230.693019 76.168257 
L 230.693019 76.168257 
L 231.113556 78.097599 
L 231.113556 78.097599 
L 231.534093 80.99193 
L 231.534093 80.99193 
L 231.95463 81.344347 
L 231.95463 81.344347 
L 232.795704 85.306029 
L 232.795704 85.306029 
L 233.216241 87.935095 
L 233.216241 87.935095 
L 233.636778 87.719363 
L 233.636778 87.719363 
L 234.057315 89.308142 
L 234.057315 89.308142 
L 234.477852 91.881022 
L 234.477852 91.881022 
L 234.898389 92.002798 
L 234.898389 92.002798 
L 235.318926 93.232719 
L 235.318926 93.232719 
L 235.739463 95.414263 
L 235.739463 95.414263 
L 236.16 95.651254 
L 236.16 95.651254 
L 236.580537 96.705814 
L 236.580537 96.705814 
L 237.001074 98.5764 
L 237.001074 98.5764 
L 237.421611 98.780459 
L 237.421611 98.780459 
L 237.842148 99.655091 
L 237.842148 99.655091 
L 238.262685 101.291044 
L 238.262685 101.291044 
L 238.683222 101.38494 
L 238.683222 101.38494 
L 239.103759 102.121011 
L 239.103759 102.121011 
L 239.524296 103.502042 
L 239.524296 103.502042 
L 239.944833 103.459222 
L 239.944833 103.459222 
L 240.36537 104.159943 
L 240.36537 104.159943 
L 240.785907 105.170836 
L 240.785907 105.170836 
L 241.206444 105.030432 
L 241.626981 105.654737 
L 241.626981 105.654737 
L 242.468055 106.131138 
L 242.468055 106.131138 
L 242.888592 106.603638 
L 242.888592 106.603638 
L 243.729666 106.842473 
L 243.729666 106.842473 
L 244.150203 107.067036 
L 244.150203 107.067036 
L 244.991276 107.173843 
L 244.991276 107.173843 
L 245.83235 107.254765 
L 245.83235 107.254765 
L 247.514498 107.101207 
L 247.514498 107.101207 
L 247.935035 107.297736 
L 247.935035 107.297736 
L 248.355572 107.246449 
L 248.355572 107.246449 
L 248.776109 107.320961 
L 248.776109 107.320961 
L 251.299331 106.947497 
L 251.299331 106.947497 
L 251.719868 106.619453 
L 251.719868 106.619453 
L 252.140405 106.697866 
L 252.560942 106.422772 
L 252.560942 106.422772 
L 252.981479 105.88577 
L 252.981479 105.88577 
L 253.402016 106.073712 
L 253.402016 106.073712 
L 253.822553 105.584792 
L 253.822553 105.584792 
L 254.24309 105.580588 
L 254.24309 105.580588 
L 254.663627 105.223363 
L 254.663627 105.223363 
L 255.084164 104.435127 
L 255.084164 104.435127 
L 255.504701 104.562014 
L 255.504701 104.562014 
L 255.925238 103.967647 
L 255.925238 103.967647 
L 256.345775 102.788227 
L 256.345775 102.788227 
L 256.766312 103.255465 
L 256.766312 103.255465 
L 257.186849 102.299125 
L 257.186849 102.299125 
L 257.607386 102.243514 
L 257.607386 102.243514 
L 258.027923 101.598797 
L 258.027923 101.598797 
L 258.44846 100.152206 
L 258.44846 100.152206 
L 258.868997 100.320854 
L 258.868997 100.320854 
L 259.289534 99.30597 
L 259.289534 99.30597 
L 259.710071 97.466017 
L 259.710071 97.466017 
L 260.130608 97.960501 
L 260.130608 97.960501 
L 260.551145 96.437857 
L 260.551145 96.437857 
L 260.971682 96.155234 
L 260.971682 96.155234 
L 261.392219 95.087732 
L 261.392219 95.087732 
L 261.812756 92.947586 
L 261.812756 92.947586 
L 262.233293 92.897207 
L 262.233293 92.897207 
L 262.653829 91.604144 
L 262.653829 91.604144 
L 263.074366 88.76736 
L 263.074366 88.76736 
L 263.494903 88.959535 
L 263.91544 87.183691 
L 263.91544 87.183691 
L 264.335977 83.719457 
L 264.335977 83.719457 
L 264.756514 84.254342 
L 264.756514 84.254342 
L 265.177051 82.023628 
L 265.177051 82.023628 
L 265.597588 78.105855 
L 265.597588 78.105855 
L 266.018125 78.662422 
L 266.018125 78.662422 
L 266.438662 76.101215 
L 266.859199 71.591917 
L 266.859199 71.591917 
L 267.279736 72.051021 
L 267.279736 72.051021 
L 267.700273 69.432297 
L 267.700273 69.432297 
L 268.12081 64.415481 
L 268.12081 64.415481 
L 268.541347 64.187502 
L 269.802958 56.562214 
L 269.802958 56.562214 
L 270.223495 54.612127 
L 270.223495 54.612127 
L 270.644032 53.568 
L 270.644032 53.568 
L 303.025379 53.568 
L 303.025379 53.568 
L 303.445916 54.378372 
L 303.445916 54.378372 
L 303.866453 54.580768 
L 303.866453 54.580768 
L 304.707527 56.654627 
L 304.707527 56.654627 
L 305.548601 59.36776 
L 305.548601 59.36776 
L 305.969138 59.459962 
L 305.969138 59.459962 
L 306.810212 61.706007 
L 306.810212 61.706007 
L 307.651286 65.295042 
L 307.651286 65.295042 
L 308.071823 65.242727 
L 308.49236 66.376666 
L 308.49236 66.376666 
L 309.333434 70.498801 
L 309.333434 70.498801 
L 309.753971 70.322926 
L 309.753971 70.322926 
L 310.174508 71.847838 
L 310.174508 71.847838 
L 311.015582 76.675745 
L 311.015582 76.675745 
L 311.436119 76.347943 
L 311.436119 76.347943 
L 311.856656 77.899679 
L 311.856656 77.899679 
L 312.277193 80.718742 
L 312.277193 80.718742 
L 312.69773 81.224204 
L 312.69773 81.224204 
L 313.118267 82.886224 
L 313.118267 82.886224 
L 313.538804 85.155071 
L 313.538804 85.155071 
L 313.959341 88.447451 
L 313.959341 88.447451 
L 314.379878 88.169364 
L 314.379878 88.169364 
L 314.800415 90.016665 
L 314.800415 90.016665 
L 315.220951 93.485405 
L 315.641488 93.612866 
L 315.641488 93.612866 
L 316.062025 95.62422 
L 316.062025 95.62422 
L 316.482562 99.287191 
L 316.482562 99.287191 
L 316.903099 99.44843 
L 316.903099 99.44843 
L 317.323636 101.551622 
L 317.323636 101.551622 
L 317.744173 105.571849 
L 317.744173 105.571849 
L 318.16471 105.660543 
L 318.16471 105.660543 
L 318.585247 107.87021 
L 318.585247 107.87021 
L 319.005784 112.530406 
L 319.005784 112.530406 
L 319.426321 111.932168 
L 319.426321 111.932168 
L 319.846858 115.054538 
L 319.846858 115.054538 
L 320.267395 116.341039 
L 320.267395 116.341039 
L 320.687932 118.291761 
L 320.687932 118.291761 
L 321.108469 122.740428 
L 321.108469 122.740428 
L 321.529006 122.484627 
L 321.529006 122.484627 
L 321.949543 125.598803 
L 321.949543 125.598803 
L 322.37008 126.605432 
L 322.37008 126.605432 
L 322.790617 128.684916 
L 322.790617 128.684916 
L 323.211154 133.684253 
L 323.211154 133.684253 
L 323.631691 132.560565 
L 323.631691 132.560565 
L 324.052228 136.588896 
L 324.052228 136.588896 
L 324.472765 136.178509 
L 324.472765 136.178509 
L 324.893302 139.634608 
L 324.893302 139.634608 
L 325.313839 139.766364 
L 325.313839 139.766364 
L 325.734376 142.775637 
L 325.734376 142.775637 
L 326.154913 143.196669 
L 326.154913 143.196669 
L 326.57545 145.813971 
L 326.57545 145.813971 
L 326.995987 146.477527 
L 326.995987 146.477527 
L 327.416524 148.948165 
L 327.416524 148.948165 
L 327.837061 149.621761 
L 327.837061 149.621761 
L 328.257598 152.071292 
L 328.257598 152.071292 
L 328.678135 152.645338 
L 328.678135 152.645338 
L 329.098672 155.292487 
L 329.098672 155.292487 
L 329.519209 155.679468 
L 329.519209 155.679468 
L 329.939746 158.379477 
L 329.939746 158.379477 
L 330.360283 158.447366 
L 330.360283 158.447366 
L 330.78082 161.642343 
L 330.78082 161.642343 
L 331.201357 161.310459 
L 331.201357 161.310459 
L 331.621894 164.695192 
L 331.621894 164.695192 
L 332.042431 163.883701 
L 332.042431 163.883701 
L 332.462967 167.729534 
L 332.462967 167.729534 
L 332.883504 166.772468 
L 332.883504 166.772468 
L 333.304041 167.771447 
L 333.304041 167.771447 
L 333.724578 169.769222 
L 333.724578 169.769222 
L 334.145115 170.11931 
L 334.145115 170.11931 
L 334.565652 172.717924 
L 334.565652 172.717924 
L 334.986189 172.339531 
L 334.986189 172.339531 
L 335.406726 175.651265 
L 335.406726 175.651265 
L 335.827263 174.790876 
L 335.827263 174.790876 
L 336.2478 175.558005 
L 336.2478 175.558005 
L 336.668337 177.464364 
L 336.668337 177.464364 
L 337.088874 177.484595 
L 337.088874 177.484595 
L 337.509411 180.018223 
L 337.509411 180.018223 
L 337.929948 179.341331 
L 337.929948 179.341331 
L 338.350485 180.110334 
L 338.350485 180.110334 
L 338.771022 181.697511 
L 338.771022 181.697511 
L 339.191559 181.694215 
L 339.191559 181.694215 
L 339.612096 183.64288 
L 339.612096 183.64288 
L 340.032633 183.191367 
L 340.032633 183.191367 
L 340.45317 183.547413 
L 340.45317 183.547413 
L 340.873707 185.041752 
L 340.873707 185.041752 
L 341.294244 184.774068 
L 341.294244 184.774068 
L 341.714781 185.305717 
L 341.714781 185.305717 
L 342.135318 186.231515 
L 342.135318 186.231515 
L 342.555855 186.237926 
L 342.555855 186.237926 
L 342.976392 187.347976 
L 342.976392 187.347976 
L 343.396929 187.237993 
L 343.396929 187.237993 
L 343.817466 187.31574 
L 343.817466 187.31574 
L 344.238003 188.324093 
L 344.238003 188.324093 
L 344.65854 188.076488 
L 344.65854 188.076488 
L 345.079077 188.366489 
L 345.079077 188.366489 
L 345.499614 188.856135 
L 345.499614 188.856135 
L 345.920151 188.851267 
L 345.920151 188.851267 
L 346.340688 188.99527 
L 346.340688 188.99527 
L 346.761225 189.464262 
L 346.761225 189.464262 
L 347.181762 189.48425 
L 347.181762 189.48425 
L 347.602299 189.903105 
L 347.602299 189.903105 
L 348.022836 189.8256 
L 348.022836 189.8256 
L 349.704984 190.232811 
L 349.704984 190.232811 
L 350.546057 190.307323 
L 350.546057 190.307323 
L 351.387131 190.297525 
L 351.387131 190.297525 
L 352.228205 190.437355 
L 352.228205 190.437355 
L 353.069279 190.371673 
L 353.069279 190.371673 
L 353.910353 190.464661 
L 353.910353 190.464661 
L 354.751427 190.488279 
L 354.751427 190.488279 
L 355.171964 190.23771 
L 355.171964 190.23771 
L 355.592501 190.271035 
L 355.592501 190.271035 
L 356.013038 190.416489 
L 356.013038 190.416489 
L 356.854112 190.325134 
L 356.854112 190.325134 
L 357.274649 190.151617 
L 357.274649 190.151617 
L 358.956797 190.309954 
L 358.956797 190.309954 
L 359.377334 189.759707 
L 359.377334 189.759707 
L 359.797871 189.848975 
L 360.218408 190.129179 
L 360.218408 190.129179 
L 360.638945 190.136285 
L 360.638945 190.136285 
L 361.059482 189.268246 
L 361.059482 189.268246 
L 362.321093 189.832464 
L 362.321093 189.832464 
L 362.74163 189.696565 
L 362.74163 189.696565 
L 363.162167 188.631482 
L 363.162167 188.631482 
L 364.003241 189.360266 
L 364.003241 189.360266 
L 364.423778 189.087471 
L 364.423778 189.087471 
L 364.844315 187.498994 
L 364.844315 187.498994 
L 365.264852 188.123602 
L 365.264852 188.123602 
L 365.685389 188.521379 
L 365.685389 188.521379 
L 366.105926 188.466765 
L 366.526463 186.000391 
L 366.526463 186.000391 
L 367.367537 187.204154 
L 367.367537 187.204154 
L 367.788073 187.472292 
L 367.788073 187.472292 
L 368.20861 187.103727 
L 368.20861 187.103727 
L 368.629147 184.52238 
L 368.629147 184.52238 
L 369.470221 185.840179 
L 369.470221 185.840179 
L 369.890758 185.850552 
L 370.311295 185.319537 
L 370.311295 185.319537 
L 370.731832 182.583815 
L 370.731832 182.583815 
L 371.572906 183.895384 
L 371.572906 183.895384 
L 371.993443 183.636288 
L 371.993443 183.636288 
L 372.41398 183.020995 
L 372.41398 183.020995 
L 372.834517 180.496287 
L 372.834517 180.496287 
L 373.255054 181.33959 
L 373.255054 181.33959 
L 373.675591 180.639232 
L 373.675591 180.639232 
L 374.096128 176.956242 
L 374.096128 176.956242 
L 374.516665 178.18326 
L 374.516665 178.18326 
L 374.937202 176.849646 
L 374.937202 176.849646 
L 375.357739 173.656272 
L 375.357739 173.656272 
L 375.778276 173.571569 
L 375.778276 173.571569 
L 376.198813 168.299346 
L 376.198813 168.299346 
L 376.61935 169.520558 
L 376.61935 169.520558 
L 377.039887 167.476365 
L 377.039887 167.476365 
L 377.460424 164.281478 
L 377.460424 164.281478 
L 377.880961 162.708545 
L 377.880961 162.708545 
L 378.301498 156.917645 
L 378.301498 156.917645 
L 378.722035 157.915323 
L 378.722035 157.915323 
L 379.983646 150.465941 
L 379.983646 150.465941 
L 381.665794 143.296219 
L 381.665794 143.296219 
L 382.086331 143.391293 
L 382.086331 143.391293 
L 382.506868 142.193699 
L 382.506868 142.193699 
L 382.927405 143.965369 
L 382.927405 143.965369 
L 383.347942 148.164254 
L 383.347942 148.164254 
L 383.768479 147.711864 
L 383.768479 147.711864 
L 385.030089 152.953363 
L 385.030089 152.953363 
L 385.450626 155.006991 
L 385.450626 155.006991 
L 385.871163 158.140914 
L 385.871163 158.140914 
L 386.2917 158.01064 
L 386.2917 158.01064 
L 386.712237 159.956009 
L 386.712237 159.956009 
L 387.132774 160.372837 
L 387.132774 160.372837 
L 387.553311 161.533176 
L 387.553311 161.533176 
L 387.973848 162.023458 
L 387.973848 162.023458 
L 388.394385 162.848375 
L 388.394385 162.848375 
L 388.814922 163.038584 
L 388.814922 163.038584 
L 389.235459 163.568087 
L 389.235459 163.568087 
L 389.655996 163.737733 
L 389.655996 163.737733 
L 390.076533 164.190849 
L 390.076533 164.190849 
L 391.338144 164.272981 
L 391.338144 164.272981 
L 391.758681 164.309269 
L 391.758681 164.309269 
L 392.179218 164.552247 
L 392.179218 164.552247 
L 393.861366 164.601236 
L 393.861366 164.601236 
L 395.122977 164.52993 
L 395.122977 164.52993 
L 395.964051 164.422548 
L 395.964051 164.422548 
L 396.805125 164.373015 
L 396.805125 164.373015 
L 398.487273 164.409938 
L 398.487273 164.409938 
" clip-path="url(#p6d61f77954)" style="fill: none; stroke: #ff7f0e; stroke-width: 1.5; stroke-linecap: square"/>
   </g>
   <g id="patch_3">
    <path d="M 57.6 307.584 
L 57.6 41.472 
" style="fill: none; stroke: #000000; stroke-width: 0.8; stroke-linejoin: miter; stroke-linecap: square"/>
   </g>
   <g id="patch_4">
    <path d="M 414.72 307.584 
L 414.72 41.472 
" style="fill: none; stroke: #000000; stroke-width: 0.8; stroke-linejoin: miter; stroke-linecap: square"/>
   </g>
   <g id="patch_5">
    <path d="M 57.6 307.584 
L 414.72 307.584 
" style="fill: none; stroke: #000000; stroke-width: 0.8; stroke-linejoin: miter; stroke-linecap: square"/>
   </g>
   <g id="patch_6">
    <path d="M 57.6 41.472 
L 414.72 41.472 
" style="fill: none; stroke: #000000; stroke-width: 0.8; stroke-linejoin: miter; stroke-linecap: square"/>
   </g>
   <g id="text_21">
    <!-- Actual speed vs Expected speed -->
    <g transform="translate(138.808125 35.472) scale(0.12 -0.12)">
     <defs>
      <path id="DejaVuSans-41" d="M 2188 4044 
L 1331 1722 
L 3047 1722 
L 2188 4044 
z
M 1831 4666 
L 2547 4666 
L 4325 0 
L 3669 0 
L 3244 1197 
L 1141 1197 
L 716 0 
L 50 0 
L 1831 4666 
z
" transform="scale(0.015625)"/>
      <path id="DejaVuSans-75" d="M 544 1381 
L 544 3500 
L 1119 3500 
L 1119 1403 
Q 1119 906 1312 657 
Q 1506 409 1894 409 
Q 2359 409 2629 706 
Q 2900 1003 2900 1516 
L 2900 3500 
L 3475 3500 
L 3475 0 
L 2900 0 
L 2900 538 
Q 2691 219 2414 64 
Q 2138 -91 1772 -91 
Q 1169 -91 856 284 
Q 544 659 544 1381 
z
M 1991 3584 
L 1991 3584 
z
" transform="scale(0.015625)"/>
      <path id="DejaVuSans-61" d="M 2194 1759 
Q 1497 1759 1228 1600 
Q 959 1441 959 1056 
Q 959 750 1161 570 
Q 1363 391 1709 391 
Q 2188 391 2477 730 
Q 2766 1069 2766 1631 
L 2766 1759 
L 2194 1759 
z
M 3341 1997 
L 3341 0 
L 2766 0 
L 2766 531 
Q 2569 213 2275 61 
Q 1981 -91 1556 -91 
Q 1019 -91 701 211 
Q 384 513 384 1019 
Q 384 1609 779 1909 
Q 1175 2209 1959 2209 
L 2766 2209 
L 2766 2266 
Q 2766 2663 2505 2880 
Q 2244 3097 1772 3097 
Q 1472 3097 1187 3025 
Q 903 2953 641 2809 
L 641 3341 
Q 956 3463 1253 3523 
Q 1550 3584 1831 3584 
Q 2591 3584 2966 3190 
Q 3341 2797 3341 1997 
z
" transform="scale(0.015625)"/>
      <path id="DejaVuSans-20" transform="scale(0.015625)"/>
      <path id="DejaVuSans-70" d="M 1159 525 
L 1159 -1331 
L 581 -1331 
L 581 3500 
L 1159 3500 
L 1159 2969 
Q 1341 3281 1617 3432 
Q 1894 3584 2278 3584 
Q 2916 3584 3314 3078 
Q 3713 2572 3713 1747 
Q 3713 922 3314 415 
Q 2916 -91 2278 -91 
Q 1894 -91 1617 61 
Q 1341 213 1159 525 
z
M 3116 1747 
Q 3116 2381 2855 2742 
Q 2594 3103 2138 3103 
Q 1681 3103 1420 2742 
Q 1159 2381 1159 1747 
Q 1159 1113 1420 752 
Q 1681 391 2138 391 
Q 2594 391 2855 752 
Q 3116 1113 3116 1747 
z
" transform="scale(0.015625)"/>
      <path id="DejaVuSans-64" d="M 2906 2969 
L 2906 4863 
L 3481 4863 
L 3481 0 
L 2906 0 
L 2906 525 
Q 2725 213 2448 61 
Q 2172 -91 1784 -91 
Q 1150 -91 751 415 
Q 353 922 353 1747 
Q 353 2572 751 3078 
Q 1150 3584 1784 3584 
Q 2172 3584 2448 3432 
Q 2725 3281 2906 2969 
z
M 947 1747 
Q 947 1113 1208 752 
Q 1469 391 1925 391 
Q 2381 391 2643 752 
Q 2906 1113 2906 1747 
Q 2906 2381 2643 2742 
Q 2381 3103 1925 3103 
Q 1469 3103 1208 2742 
Q 947 2381 947 1747 
z
" transform="scale(0.015625)"/>
      <path id="DejaVuSans-76" d="M 191 3500 
L 800 3500 
L 1894 563 
L 2988 3500 
L 3597 3500 
L 2284 0 
L 1503 0 
L 191 3500 
z
" transform="scale(0.015625)"/>
      <path id="DejaVuSans-45" d="M 628 4666 
L 3578 4666 
L 3578 4134 
L 1259 4134 
L 1259 2753 
L 3481 2753 
L 3481 2222 
L 1259 2222 
L 1259 531 
L 3634 531 
L 3634 0 
L 628 0 
L 628 4666 
z
" transform="scale(0.015625)"/>
      <path id="DejaVuSans-78" d="M 3513 3500 
L 2247 1797 
L 3578 0 
L 2900 0 
L 1881 1375 
L 863 0 
L 184 0 
L 1544 1831 
L 300 3500 
L 978 3500 
L 1906 2253 
L 2834 3500 
L 3513 3500 
z
" transform="scale(0.015625)"/>
     </defs>
     <use xlink:href="#DejaVuSans-41"/>
     <use xlink:href="#DejaVuSans-63" x="66.658203"/>
     <use xlink:href="#DejaVuSans-74" x="121.638672"/>
     <use xlink:href="#DejaVuSans-75" x="160.847656"/>
     <use xlink:href="#DejaVuSans-61" x="224.226562"/>
     <use xlink:href="#DejaVuSans-6c" x="285.505859"/>
     <use xlink:href="#DejaVuSans-20" x="313.289062"/>
     <use xlink:href="#DejaVuSans-73" x="345.076172"/>
     <use xlink:href="#DejaVuSans-70" x="397.175781"/>
     <use xlink:href="#DejaVuSans-65" x="460.652344"/>
     <use xlink:href="#DejaVuSans-65" x="522.175781"/>
     <use xlink:href="#DejaVuSans-64" x="583.699219"/>
     <use xlink:href="#DejaVuSans-20" x="647.175781"/>
     <use xlink:href="#DejaVuSans-76" x="678.962891"/>
     <use xlink:href="#DejaVuSans-73" x="738.142578"/>
     <use xlink:href="#DejaVuSans-20" x="790.242188"/>
     <use xlink:href="#DejaVuSans-45" x="822.029297"/>
     <use xlink:href="#DejaVuSans-78" x="885.212891"/>
     <use xlink:href="#DejaVuSans-70" x="944.392578"/>
     <use xlink:href="#DejaVuSans-65" x="1007.869141"/>
     <use xlink:href="#DejaVuSans-63" x="1069.392578"/>
     <use xlink:href="#DejaVuSans-74" x="1124.373047"/>
     <use xlink:href="#DejaVuSans-65" x="1163.582031"/>
     <use xlink:href="#DejaVuSans-64" x="1225.105469"/>
     <use xlink:href="#DejaVuSans-20" x="1288.582031"/>
     <use xlink:href="#DejaVuSans-73" x="1320.369141"/>
     <use xlink:href="#DejaVuSans-70" x="1372.46875"/>
     <use xlink:href="#DejaVuSans-65" x="1435.945312"/>
     <use xlink:href="#DejaVuSans-65" x="1497.46875"/>
     <use xlink:href="#DejaVuSans-64" x="1558.992188"/>
    </g>
   </g>
   <g id="legend_1">
    <g id="patch_7">
     <path d="M 295.67 302.584 
L 407.72 302.584 
Q 409.72 302.584 409.72 300.584 
L 409.72 272.22775 
Q 409.72 270.22775 407.72 270.22775 
L 295.67 270.22775 
Q 293.67 270.22775 293.67 272.22775 
L 293.67 300.584 
Q 293.67 302.584 295.67 302.584 
z
" style="fill: #ffffff; opacity: 0.8; stroke: #cccccc; stroke-linejoin: miter"/>
    </g>
    <g id="line2d_39">
     <path d="M 297.67 278.326187 
L 307.67 278.326187 
L 317.67 278.326187 
" style="fill: none; stroke: #1f77b4; stroke-width: 1.5; stroke-linecap: square"/>
    </g>
    <g id="text_22">
     <!-- Actual speed -->
     <g transform="translate(325.67 281.826187) scale(0.1 -0.1)">
      <use xlink:href="#DejaVuSans-41"/>
      <use xlink:href="#DejaVuSans-63" x="66.658203"/>
      <use xlink:href="#DejaVuSans-74" x="121.638672"/>
      <use xlink:href="#DejaVuSans-75" x="160.847656"/>
      <use xlink:href="#DejaVuSans-61" x="224.226562"/>
      <use xlink:href="#DejaVuSans-6c" x="285.505859"/>
      <use xlink:href="#DejaVuSans-20" x="313.289062"/>
      <use xlink:href="#DejaVuSans-73" x="345.076172"/>
      <use xlink:href="#DejaVuSans-70" x="397.175781"/>
      <use xlink:href="#DejaVuSans-65" x="460.652344"/>
      <use xlink:href="#DejaVuSans-65" x="522.175781"/>
      <use xlink:href="#DejaVuSans-64" x="583.699219"/>
     </g>
    </g>
    <g id="line2d_40">
     <path d="M 297.67 293.004312 
L 307.67 293.004312 
L 317.67 293.004312 
" style="fill: none; stroke: #ff7f0e; stroke-width: 1.5; stroke-linecap: square"/>
    </g>
    <g id="text_23">
     <!-- Expected speed -->
     <g transform="translate(325.67 296.504312) scale(0.1 -0.1)">
      <use xlink:href="#DejaVuSans-45"/>
      <use xlink:href="#DejaVuSans-78" x="63.183594"/>
      <use xlink:href="#DejaVuSans-70" x="122.363281"/>
      <use xlink:href="#DejaVuSans-65" x="185.839844"/>
      <use xlink:href="#DejaVuSans-63" x="247.363281"/>
      <use xlink:href="#DejaVuSans-74" x="302.34375"/>
      <use xlink:href="#DejaVuSans-65" x="341.552734"/>
      <use xlink:href="#DejaVuSans-64" x="403.076172"/>
      <use xlink:href="#DejaVuSans-20" x="466.552734"/>
      <use xlink:href="#DejaVuSans-73" x="498.339844"/>
      <use xlink:href="#DejaVuSans-70" x="550.439453"/>
      <use xlink:href="#DejaVuSans-65" x="613.916016"/>
      <use xlink:href="#DejaVuSans-65" x="675.439453"/>
      <use xlink:href="#DejaVuSans-64" x="736.962891"/>
     </g>
    </g>
   </g>
  </g>
 </g>
 <defs>
  <clipPath id="p6d61f77954">
   <rect x="57.6" y="41.472" width="357.12" height="266.112"/>
  </clipPath>
 </defs>
</svg>
