<?xml version="1.0" encoding="utf-8" standalone="no"?>
<!DOCTYPE svg PUBLIC "-//W3C//DTD SVG 1.1//EN"
  "http://www.w3.org/Graphics/SVG/1.1/DTD/svg11.dtd">
<svg xmlns:xlink="http://www.w3.org/1999/xlink" width="460.8pt" height="345.6pt" viewBox="0 0 460.8 345.6" xmlns="http://www.w3.org/2000/svg" version="1.1">
 <metadata>
  <rdf:RDF xmlns:dc="http://purl.org/dc/elements/1.1/" xmlns:cc="http://creativecommons.org/ns#" xmlns:rdf="http://www.w3.org/1999/02/22-rdf-syntax-ns#">
   <cc:Work>
    <dc:type rdf:resource="http://purl.org/dc/dcmitype/StillImage"/>
    <dc:date>2024-01-30T20:58:57.222066</dc:date>
    <dc:format>image/svg+xml</dc:format>
    <dc:creator>
     <cc:Agent>
      <dc:title>Matplotlib v3.7.1, https://matplotlib.org/</dc:title>
     </cc:Agent>
    </dc:creator>
   </cc:Work>
  </rdf:RDF>
 </metadata>
 <defs>
  <style type="text/css">*{stroke-linejoin: round; stroke-linecap: butt}</style>
 </defs>
 <g id="figure_1">
  <g id="patch_1">
   <path d="M 0 345.6 
L 460.8 345.6 
L 460.8 0 
L 0 0 
z
" style="fill: #ffffff"/>
  </g>
  <g id="axes_1">
   <g id="patch_2">
    <path d="M 57.6 307.584 
L 414.72 307.584 
L 414.72 41.472 
L 57.6 41.472 
z
" style="fill: #ffffff"/>
   </g>
   <g id="matplotlib.axis_1">
    <g id="xtick_1">
     <g id="line2d_1">
      <path d="M 73.832727 307.584 
L 73.832727 41.472 
" clip-path="url(#pcb6531a7c9)" style="fill: none; stroke: #b0b0b0; stroke-width: 0.8; stroke-linecap: square"/>
     </g>
     <g id="line2d_2">
      <defs>
       <path id="mcad61c7767" d="M 0 0 
L 0 3.5 
" style="stroke: #000000; stroke-width: 0.8"/>
      </defs>
      <g>
       <use xlink:href="#mcad61c7767" x="73.832727" y="307.584" style="stroke: #000000; stroke-width: 0.8"/>
      </g>
     </g>
     <g id="text_1">
      <!-- 0 -->
      <g transform="translate(70.651477 322.182437) scale(0.1 -0.1)">
       <defs>
        <path id="DejaVuSans-30" d="M 2034 4250 
Q 1547 4250 1301 3770 
Q 1056 3291 1056 2328 
Q 1056 1369 1301 889 
Q 1547 409 2034 409 
Q 2525 409 2770 889 
Q 3016 1369 3016 2328 
Q 3016 3291 2770 3770 
Q 2525 4250 2034 4250 
z
M 2034 4750 
Q 2819 4750 3233 4129 
Q 3647 3509 3647 2328 
Q 3647 1150 3233 529 
Q 2819 -91 2034 -91 
Q 1250 -91 836 529 
Q 422 1150 422 2328 
Q 422 3509 836 4129 
Q 1250 4750 2034 4750 
z
" transform="scale(0.015625)"/>
       </defs>
       <use xlink:href="#DejaVuSans-30"/>
      </g>
     </g>
    </g>
    <g id="xtick_2">
     <g id="line2d_3">
      <path d="M 118.015436 307.584 
L 118.015436 41.472 
" clip-path="url(#pcb6531a7c9)" style="fill: none; stroke: #b0b0b0; stroke-width: 0.8; stroke-linecap: square"/>
     </g>
     <g id="line2d_4">
      <g>
       <use xlink:href="#mcad61c7767" x="118.015436" y="307.584" style="stroke: #000000; stroke-width: 0.8"/>
      </g>
     </g>
     <g id="text_2">
      <!-- 5 -->
      <g transform="translate(114.834186 322.182437) scale(0.1 -0.1)">
       <defs>
        <path id="DejaVuSans-35" d="M 691 4666 
L 3169 4666 
L 3169 4134 
L 1269 4134 
L 1269 2991 
Q 1406 3038 1543 3061 
Q 1681 3084 1819 3084 
Q 2600 3084 3056 2656 
Q 3513 2228 3513 1497 
Q 3513 744 3044 326 
Q 2575 -91 1722 -91 
Q 1428 -91 1123 -41 
Q 819 9 494 109 
L 494 744 
Q 775 591 1075 516 
Q 1375 441 1709 441 
Q 2250 441 2565 725 
Q 2881 1009 2881 1497 
Q 2881 1984 2565 2268 
Q 2250 2553 1709 2553 
Q 1456 2553 1204 2497 
Q 953 2441 691 2322 
L 691 4666 
z
" transform="scale(0.015625)"/>
       </defs>
       <use xlink:href="#DejaVuSans-35"/>
      </g>
     </g>
    </g>
    <g id="xtick_3">
     <g id="line2d_5">
      <path d="M 162.198145 307.584 
L 162.198145 41.472 
" clip-path="url(#pcb6531a7c9)" style="fill: none; stroke: #b0b0b0; stroke-width: 0.8; stroke-linecap: square"/>
     </g>
     <g id="line2d_6">
      <g>
       <use xlink:href="#mcad61c7767" x="162.198145" y="307.584" style="stroke: #000000; stroke-width: 0.8"/>
      </g>
     </g>
     <g id="text_3">
      <!-- 10 -->
      <g transform="translate(155.835645 322.182437) scale(0.1 -0.1)">
       <defs>
        <path id="DejaVuSans-31" d="M 794 531 
L 1825 531 
L 1825 4091 
L 703 3866 
L 703 4441 
L 1819 4666 
L 2450 4666 
L 2450 531 
L 3481 531 
L 3481 0 
L 794 0 
L 794 531 
z
" transform="scale(0.015625)"/>
       </defs>
       <use xlink:href="#DejaVuSans-31"/>
       <use xlink:href="#DejaVuSans-30" x="63.623047"/>
      </g>
     </g>
    </g>
    <g id="xtick_4">
     <g id="line2d_7">
      <path d="M 206.380854 307.584 
L 206.380854 41.472 
" clip-path="url(#pcb6531a7c9)" style="fill: none; stroke: #b0b0b0; stroke-width: 0.8; stroke-linecap: square"/>
     </g>
     <g id="line2d_8">
      <g>
       <use xlink:href="#mcad61c7767" x="206.380854" y="307.584" style="stroke: #000000; stroke-width: 0.8"/>
      </g>
     </g>
     <g id="text_4">
      <!-- 15 -->
      <g transform="translate(200.018354 322.182437) scale(0.1 -0.1)">
       <use xlink:href="#DejaVuSans-31"/>
       <use xlink:href="#DejaVuSans-35" x="63.623047"/>
      </g>
     </g>
    </g>
    <g id="xtick_5">
     <g id="line2d_9">
      <path d="M 250.563563 307.584 
L 250.563563 41.472 
" clip-path="url(#pcb6531a7c9)" style="fill: none; stroke: #b0b0b0; stroke-width: 0.8; stroke-linecap: square"/>
     </g>
     <g id="line2d_10">
      <g>
       <use xlink:href="#mcad61c7767" x="250.563563" y="307.584" style="stroke: #000000; stroke-width: 0.8"/>
      </g>
     </g>
     <g id="text_5">
      <!-- 20 -->
      <g transform="translate(244.201063 322.182437) scale(0.1 -0.1)">
       <defs>
        <path id="DejaVuSans-32" d="M 1228 531 
L 3431 531 
L 3431 0 
L 469 0 
L 469 531 
Q 828 903 1448 1529 
Q 2069 2156 2228 2338 
Q 2531 2678 2651 2914 
Q 2772 3150 2772 3378 
Q 2772 3750 2511 3984 
Q 2250 4219 1831 4219 
Q 1534 4219 1204 4116 
Q 875 4013 500 3803 
L 500 4441 
Q 881 4594 1212 4672 
Q 1544 4750 1819 4750 
Q 2544 4750 2975 4387 
Q 3406 4025 3406 3419 
Q 3406 3131 3298 2873 
Q 3191 2616 2906 2266 
Q 2828 2175 2409 1742 
Q 1991 1309 1228 531 
z
" transform="scale(0.015625)"/>
       </defs>
       <use xlink:href="#DejaVuSans-32"/>
       <use xlink:href="#DejaVuSans-30" x="63.623047"/>
      </g>
     </g>
    </g>
    <g id="xtick_6">
     <g id="line2d_11">
      <path d="M 294.746272 307.584 
L 294.746272 41.472 
" clip-path="url(#pcb6531a7c9)" style="fill: none; stroke: #b0b0b0; stroke-width: 0.8; stroke-linecap: square"/>
     </g>
     <g id="line2d_12">
      <g>
       <use xlink:href="#mcad61c7767" x="294.746272" y="307.584" style="stroke: #000000; stroke-width: 0.8"/>
      </g>
     </g>
     <g id="text_6">
      <!-- 25 -->
      <g transform="translate(288.383772 322.182437) scale(0.1 -0.1)">
       <use xlink:href="#DejaVuSans-32"/>
       <use xlink:href="#DejaVuSans-35" x="63.623047"/>
      </g>
     </g>
    </g>
    <g id="xtick_7">
     <g id="line2d_13">
      <path d="M 338.928981 307.584 
L 338.928981 41.472 
" clip-path="url(#pcb6531a7c9)" style="fill: none; stroke: #b0b0b0; stroke-width: 0.8; stroke-linecap: square"/>
     </g>
     <g id="line2d_14">
      <g>
       <use xlink:href="#mcad61c7767" x="338.928981" y="307.584" style="stroke: #000000; stroke-width: 0.8"/>
      </g>
     </g>
     <g id="text_7">
      <!-- 30 -->
      <g transform="translate(332.566481 322.182437) scale(0.1 -0.1)">
       <defs>
        <path id="DejaVuSans-33" d="M 2597 2516 
Q 3050 2419 3304 2112 
Q 3559 1806 3559 1356 
Q 3559 666 3084 287 
Q 2609 -91 1734 -91 
Q 1441 -91 1130 -33 
Q 819 25 488 141 
L 488 750 
Q 750 597 1062 519 
Q 1375 441 1716 441 
Q 2309 441 2620 675 
Q 2931 909 2931 1356 
Q 2931 1769 2642 2001 
Q 2353 2234 1838 2234 
L 1294 2234 
L 1294 2753 
L 1863 2753 
Q 2328 2753 2575 2939 
Q 2822 3125 2822 3475 
Q 2822 3834 2567 4026 
Q 2313 4219 1838 4219 
Q 1578 4219 1281 4162 
Q 984 4106 628 3988 
L 628 4550 
Q 988 4650 1302 4700 
Q 1616 4750 1894 4750 
Q 2613 4750 3031 4423 
Q 3450 4097 3450 3541 
Q 3450 3153 3228 2886 
Q 3006 2619 2597 2516 
z
" transform="scale(0.015625)"/>
       </defs>
       <use xlink:href="#DejaVuSans-33"/>
       <use xlink:href="#DejaVuSans-30" x="63.623047"/>
      </g>
     </g>
    </g>
    <g id="xtick_8">
     <g id="line2d_15">
      <path d="M 383.11169 307.584 
L 383.11169 41.472 
" clip-path="url(#pcb6531a7c9)" style="fill: none; stroke: #b0b0b0; stroke-width: 0.8; stroke-linecap: square"/>
     </g>
     <g id="line2d_16">
      <g>
       <use xlink:href="#mcad61c7767" x="383.11169" y="307.584" style="stroke: #000000; stroke-width: 0.8"/>
      </g>
     </g>
     <g id="text_8">
      <!-- 35 -->
      <g transform="translate(376.74919 322.182437) scale(0.1 -0.1)">
       <use xlink:href="#DejaVuSans-33"/>
       <use xlink:href="#DejaVuSans-35" x="63.623047"/>
      </g>
     </g>
    </g>
    <g id="text_9">
     <!-- Time(s) -->
     <g transform="translate(217.420156 335.860562) scale(0.1 -0.1)">
      <defs>
       <path id="DejaVuSans-54" d="M -19 4666 
L 3928 4666 
L 3928 4134 
L 2272 4134 
L 2272 0 
L 1638 0 
L 1638 4134 
L -19 4134 
L -19 4666 
z
" transform="scale(0.015625)"/>
       <path id="DejaVuSans-69" d="M 603 3500 
L 1178 3500 
L 1178 0 
L 603 0 
L 603 3500 
z
M 603 4863 
L 1178 4863 
L 1178 4134 
L 603 4134 
L 603 4863 
z
" transform="scale(0.015625)"/>
       <path id="DejaVuSans-6d" d="M 3328 2828 
Q 3544 3216 3844 3400 
Q 4144 3584 4550 3584 
Q 5097 3584 5394 3201 
Q 5691 2819 5691 2113 
L 5691 0 
L 5113 0 
L 5113 2094 
Q 5113 2597 4934 2840 
Q 4756 3084 4391 3084 
Q 3944 3084 3684 2787 
Q 3425 2491 3425 1978 
L 3425 0 
L 2847 0 
L 2847 2094 
Q 2847 2600 2669 2842 
Q 2491 3084 2119 3084 
Q 1678 3084 1418 2786 
Q 1159 2488 1159 1978 
L 1159 0 
L 581 0 
L 581 3500 
L 1159 3500 
L 1159 2956 
Q 1356 3278 1631 3431 
Q 1906 3584 2284 3584 
Q 2666 3584 2933 3390 
Q 3200 3197 3328 2828 
z
" transform="scale(0.015625)"/>
       <path id="DejaVuSans-65" d="M 3597 1894 
L 3597 1613 
L 953 1613 
Q 991 1019 1311 708 
Q 1631 397 2203 397 
Q 2534 397 2845 478 
Q 3156 559 3463 722 
L 3463 178 
Q 3153 47 2828 -22 
Q 2503 -91 2169 -91 
Q 1331 -91 842 396 
Q 353 884 353 1716 
Q 353 2575 817 3079 
Q 1281 3584 2069 3584 
Q 2775 3584 3186 3129 
Q 3597 2675 3597 1894 
z
M 3022 2063 
Q 3016 2534 2758 2815 
Q 2500 3097 2075 3097 
Q 1594 3097 1305 2825 
Q 1016 2553 972 2059 
L 3022 2063 
z
" transform="scale(0.015625)"/>
       <path id="DejaVuSans-28" d="M 1984 4856 
Q 1566 4138 1362 3434 
Q 1159 2731 1159 2009 
Q 1159 1288 1364 580 
Q 1569 -128 1984 -844 
L 1484 -844 
Q 1016 -109 783 600 
Q 550 1309 550 2009 
Q 550 2706 781 3412 
Q 1013 4119 1484 4856 
L 1984 4856 
z
" transform="scale(0.015625)"/>
       <path id="DejaVuSans-73" d="M 2834 3397 
L 2834 2853 
Q 2591 2978 2328 3040 
Q 2066 3103 1784 3103 
Q 1356 3103 1142 2972 
Q 928 2841 928 2578 
Q 928 2378 1081 2264 
Q 1234 2150 1697 2047 
L 1894 2003 
Q 2506 1872 2764 1633 
Q 3022 1394 3022 966 
Q 3022 478 2636 193 
Q 2250 -91 1575 -91 
Q 1294 -91 989 -36 
Q 684 19 347 128 
L 347 722 
Q 666 556 975 473 
Q 1284 391 1588 391 
Q 1994 391 2212 530 
Q 2431 669 2431 922 
Q 2431 1156 2273 1281 
Q 2116 1406 1581 1522 
L 1381 1569 
Q 847 1681 609 1914 
Q 372 2147 372 2553 
Q 372 3047 722 3315 
Q 1072 3584 1716 3584 
Q 2034 3584 2315 3537 
Q 2597 3491 2834 3397 
z
" transform="scale(0.015625)"/>
       <path id="DejaVuSans-29" d="M 513 4856 
L 1013 4856 
Q 1481 4119 1714 3412 
Q 1947 2706 1947 2009 
Q 1947 1309 1714 600 
Q 1481 -109 1013 -844 
L 513 -844 
Q 928 -128 1133 580 
Q 1338 1288 1338 2009 
Q 1338 2731 1133 3434 
Q 928 4138 513 4856 
z
" transform="scale(0.015625)"/>
      </defs>
      <use xlink:href="#DejaVuSans-54"/>
      <use xlink:href="#DejaVuSans-69" x="57.958984"/>
      <use xlink:href="#DejaVuSans-6d" x="85.742188"/>
      <use xlink:href="#DejaVuSans-65" x="183.154297"/>
      <use xlink:href="#DejaVuSans-28" x="244.677734"/>
      <use xlink:href="#DejaVuSans-73" x="283.691406"/>
      <use xlink:href="#DejaVuSans-29" x="335.791016"/>
     </g>
    </g>
   </g>
   <g id="matplotlib.axis_2">
    <g id="ytick_1">
     <g id="line2d_17">
      <path d="M 57.6 276.945542 
L 414.72 276.945542 
" clip-path="url(#pcb6531a7c9)" style="fill: none; stroke: #b0b0b0; stroke-width: 0.8; stroke-linecap: square"/>
     </g>
     <g id="line2d_18">
      <defs>
       <path id="m74f8a55606" d="M 0 0 
L -3.5 0 
" style="stroke: #000000; stroke-width: 0.8"/>
      </defs>
      <g>
       <use xlink:href="#m74f8a55606" x="57.6" y="276.945542" style="stroke: #000000; stroke-width: 0.8"/>
      </g>
     </g>
     <g id="text_10">
      <!-- 4 -->
      <g transform="translate(44.2375 280.744761) scale(0.1 -0.1)">
       <defs>
        <path id="DejaVuSans-34" d="M 2419 4116 
L 825 1625 
L 2419 1625 
L 2419 4116 
z
M 2253 4666 
L 3047 4666 
L 3047 1625 
L 3713 1625 
L 3713 1100 
L 3047 1100 
L 3047 0 
L 2419 0 
L 2419 1100 
L 313 1100 
L 313 1709 
L 2253 4666 
z
" transform="scale(0.015625)"/>
       </defs>
       <use xlink:href="#DejaVuSans-34"/>
      </g>
     </g>
    </g>
    <g id="ytick_2">
     <g id="line2d_19">
      <path d="M 57.6 221.101156 
L 414.72 221.101156 
" clip-path="url(#pcb6531a7c9)" style="fill: none; stroke: #b0b0b0; stroke-width: 0.8; stroke-linecap: square"/>
     </g>
     <g id="line2d_20">
      <g>
       <use xlink:href="#m74f8a55606" x="57.6" y="221.101156" style="stroke: #000000; stroke-width: 0.8"/>
      </g>
     </g>
     <g id="text_11">
      <!-- 5 -->
      <g transform="translate(44.2375 224.900375) scale(0.1 -0.1)">
       <use xlink:href="#DejaVuSans-35"/>
      </g>
     </g>
    </g>
    <g id="ytick_3">
     <g id="line2d_21">
      <path d="M 57.6 165.256771 
L 414.72 165.256771 
" clip-path="url(#pcb6531a7c9)" style="fill: none; stroke: #b0b0b0; stroke-width: 0.8; stroke-linecap: square"/>
     </g>
     <g id="line2d_22">
      <g>
       <use xlink:href="#m74f8a55606" x="57.6" y="165.256771" style="stroke: #000000; stroke-width: 0.8"/>
      </g>
     </g>
     <g id="text_12">
      <!-- 6 -->
      <g transform="translate(44.2375 169.05599) scale(0.1 -0.1)">
       <defs>
        <path id="DejaVuSans-36" d="M 2113 2584 
Q 1688 2584 1439 2293 
Q 1191 2003 1191 1497 
Q 1191 994 1439 701 
Q 1688 409 2113 409 
Q 2538 409 2786 701 
Q 3034 994 3034 1497 
Q 3034 2003 2786 2293 
Q 2538 2584 2113 2584 
z
M 3366 4563 
L 3366 3988 
Q 3128 4100 2886 4159 
Q 2644 4219 2406 4219 
Q 1781 4219 1451 3797 
Q 1122 3375 1075 2522 
Q 1259 2794 1537 2939 
Q 1816 3084 2150 3084 
Q 2853 3084 3261 2657 
Q 3669 2231 3669 1497 
Q 3669 778 3244 343 
Q 2819 -91 2113 -91 
Q 1303 -91 875 529 
Q 447 1150 447 2328 
Q 447 3434 972 4092 
Q 1497 4750 2381 4750 
Q 2619 4750 2861 4703 
Q 3103 4656 3366 4563 
z
" transform="scale(0.015625)"/>
       </defs>
       <use xlink:href="#DejaVuSans-36"/>
      </g>
     </g>
    </g>
    <g id="ytick_4">
     <g id="line2d_23">
      <path d="M 57.6 109.412385 
L 414.72 109.412385 
" clip-path="url(#pcb6531a7c9)" style="fill: none; stroke: #b0b0b0; stroke-width: 0.8; stroke-linecap: square"/>
     </g>
     <g id="line2d_24">
      <g>
       <use xlink:href="#m74f8a55606" x="57.6" y="109.412385" style="stroke: #000000; stroke-width: 0.8"/>
      </g>
     </g>
     <g id="text_13">
      <!-- 7 -->
      <g transform="translate(44.2375 113.211604) scale(0.1 -0.1)">
       <defs>
        <path id="DejaVuSans-37" d="M 525 4666 
L 3525 4666 
L 3525 4397 
L 1831 0 
L 1172 0 
L 2766 4134 
L 525 4134 
L 525 4666 
z
" transform="scale(0.015625)"/>
       </defs>
       <use xlink:href="#DejaVuSans-37"/>
      </g>
     </g>
    </g>
    <g id="ytick_5">
     <g id="line2d_25">
      <path d="M 57.6 53.568 
L 414.72 53.568 
" clip-path="url(#pcb6531a7c9)" style="fill: none; stroke: #b0b0b0; stroke-width: 0.8; stroke-linecap: square"/>
     </g>
     <g id="line2d_26">
      <g>
       <use xlink:href="#m74f8a55606" x="57.6" y="53.568" style="stroke: #000000; stroke-width: 0.8"/>
      </g>
     </g>
     <g id="text_14">
      <!-- 8 -->
      <g transform="translate(44.2375 57.367219) scale(0.1 -0.1)">
       <defs>
        <path id="DejaVuSans-38" d="M 2034 2216 
Q 1584 2216 1326 1975 
Q 1069 1734 1069 1313 
Q 1069 891 1326 650 
Q 1584 409 2034 409 
Q 2484 409 2743 651 
Q 3003 894 3003 1313 
Q 3003 1734 2745 1975 
Q 2488 2216 2034 2216 
z
M 1403 2484 
Q 997 2584 770 2862 
Q 544 3141 544 3541 
Q 544 4100 942 4425 
Q 1341 4750 2034 4750 
Q 2731 4750 3128 4425 
Q 3525 4100 3525 3541 
Q 3525 3141 3298 2862 
Q 3072 2584 2669 2484 
Q 3125 2378 3379 2068 
Q 3634 1759 3634 1313 
Q 3634 634 3220 271 
Q 2806 -91 2034 -91 
Q 1263 -91 848 271 
Q 434 634 434 1313 
Q 434 1759 690 2068 
Q 947 2378 1403 2484 
z
M 1172 3481 
Q 1172 3119 1398 2916 
Q 1625 2713 2034 2713 
Q 2441 2713 2670 2916 
Q 2900 3119 2900 3481 
Q 2900 3844 2670 4047 
Q 2441 4250 2034 4250 
Q 1625 4250 1398 4047 
Q 1172 3844 1172 3481 
z
" transform="scale(0.015625)"/>
       </defs>
       <use xlink:href="#DejaVuSans-38"/>
      </g>
     </g>
    </g>
    <g id="text_15">
     <!-- Velocity(m/s) -->
     <g transform="translate(38.157812 207.204563) rotate(-90) scale(0.1 -0.1)">
      <defs>
       <path id="DejaVuSans-56" d="M 1831 0 
L 50 4666 
L 709 4666 
L 2188 738 
L 3669 4666 
L 4325 4666 
L 2547 0 
L 1831 0 
z
" transform="scale(0.015625)"/>
       <path id="DejaVuSans-6c" d="M 603 4863 
L 1178 4863 
L 1178 0 
L 603 0 
L 603 4863 
z
" transform="scale(0.015625)"/>
       <path id="DejaVuSans-6f" d="M 1959 3097 
Q 1497 3097 1228 2736 
Q 959 2375 959 1747 
Q 959 1119 1226 758 
Q 1494 397 1959 397 
Q 2419 397 2687 759 
Q 2956 1122 2956 1747 
Q 2956 2369 2687 2733 
Q 2419 3097 1959 3097 
z
M 1959 3584 
Q 2709 3584 3137 3096 
Q 3566 2609 3566 1747 
Q 3566 888 3137 398 
Q 2709 -91 1959 -91 
Q 1206 -91 779 398 
Q 353 888 353 1747 
Q 353 2609 779 3096 
Q 1206 3584 1959 3584 
z
" transform="scale(0.015625)"/>
       <path id="DejaVuSans-63" d="M 3122 3366 
L 3122 2828 
Q 2878 2963 2633 3030 
Q 2388 3097 2138 3097 
Q 1578 3097 1268 2742 
Q 959 2388 959 1747 
Q 959 1106 1268 751 
Q 1578 397 2138 397 
Q 2388 397 2633 464 
Q 2878 531 3122 666 
L 3122 134 
Q 2881 22 2623 -34 
Q 2366 -91 2075 -91 
Q 1284 -91 818 406 
Q 353 903 353 1747 
Q 353 2603 823 3093 
Q 1294 3584 2113 3584 
Q 2378 3584 2631 3529 
Q 2884 3475 3122 3366 
z
" transform="scale(0.015625)"/>
       <path id="DejaVuSans-74" d="M 1172 4494 
L 1172 3500 
L 2356 3500 
L 2356 3053 
L 1172 3053 
L 1172 1153 
Q 1172 725 1289 603 
Q 1406 481 1766 481 
L 2356 481 
L 2356 0 
L 1766 0 
Q 1100 0 847 248 
Q 594 497 594 1153 
L 594 3053 
L 172 3053 
L 172 3500 
L 594 3500 
L 594 4494 
L 1172 4494 
z
" transform="scale(0.015625)"/>
       <path id="DejaVuSans-79" d="M 2059 -325 
Q 1816 -950 1584 -1140 
Q 1353 -1331 966 -1331 
L 506 -1331 
L 506 -850 
L 844 -850 
Q 1081 -850 1212 -737 
Q 1344 -625 1503 -206 
L 1606 56 
L 191 3500 
L 800 3500 
L 1894 763 
L 2988 3500 
L 3597 3500 
L 2059 -325 
z
" transform="scale(0.015625)"/>
       <path id="DejaVuSans-2f" d="M 1625 4666 
L 2156 4666 
L 531 -594 
L 0 -594 
L 1625 4666 
z
" transform="scale(0.015625)"/>
      </defs>
      <use xlink:href="#DejaVuSans-56"/>
      <use xlink:href="#DejaVuSans-65" x="60.658203"/>
      <use xlink:href="#DejaVuSans-6c" x="122.181641"/>
      <use xlink:href="#DejaVuSans-6f" x="149.964844"/>
      <use xlink:href="#DejaVuSans-63" x="211.146484"/>
      <use xlink:href="#DejaVuSans-69" x="266.126953"/>
      <use xlink:href="#DejaVuSans-74" x="293.910156"/>
      <use xlink:href="#DejaVuSans-79" x="333.119141"/>
      <use xlink:href="#DejaVuSans-28" x="392.298828"/>
      <use xlink:href="#DejaVuSans-6d" x="431.3125"/>
      <use xlink:href="#DejaVuSans-2f" x="528.724609"/>
      <use xlink:href="#DejaVuSans-73" x="562.416016"/>
      <use xlink:href="#DejaVuSans-29" x="614.515625"/>
     </g>
    </g>
   </g>
   <g id="line2d_27">
    <path d="M 73.832727 53.696163 
L 77.013882 53.59017 
L 77.013882 53.59017 
L 88.324656 53.568056 
L 88.324656 53.568056 
L 92.389465 53.568 
L 92.389465 53.568 
L 92.566196 54.316259 
L 92.566196 54.316259 
L 93.096388 66.987853 
L 93.096388 66.987853 
L 93.44985 76.612242 
L 93.44985 76.612242 
L 93.980043 92.73714 
L 93.980043 92.73714 
L 95.040428 122.732444 
L 95.040428 122.732444 
L 96.631005 156.810643 
L 96.631005 156.810643 
L 97.868121 176.8203 
L 97.868121 176.8203 
L 99.635429 193.47801 
L 99.635429 193.47801 
L 100.165622 196.318814 
L 100.165622 196.318814 
L 100.695814 198.137722 
L 100.695814 198.137722 
L 101.226007 199.038324 
L 101.226007 199.038324 
L 101.93293 199.429682 
L 101.93293 199.429682 
L 102.639854 199.342062 
L 102.639854 199.342062 
L 102.993315 199.211889 
L 102.993315 199.211889 
L 103.170046 199.145936 
L 103.170046 199.145936 
L 103.876969 198.248294 
L 103.876969 198.248294 
L 104.407162 196.799858 
L 104.407162 196.799858 
L 105.290816 191.172531 
L 105.290816 191.172531 
L 105.821009 186.145643 
L 105.821009 186.145643 
L 106.17447 180.843832 
L 106.17447 180.843832 
L 106.704663 171.660112 
L 106.704663 171.660112 
L 107.588317 154.105317 
L 107.588317 154.105317 
L 108.118509 148.655966 
L 108.118509 148.655966 
L 108.648702 146.303298 
L 108.648702 146.303298 
L 109.178894 145.357238 
L 109.178894 145.357238 
L 109.709087 145.007373 
L 109.709087 145.007373 
L 110.41601 144.68906 
L 110.41601 144.68906 
L 110.946203 144.549394 
L 110.946203 144.549394 
L 111.653126 144.216449 
L 111.653126 144.216449 
L 112.53678 142.811796 
L 112.53678 142.811796 
L 113.066973 141.3389 
L 113.066973 141.3389 
L 113.773896 137.773292 
L 113.773896 137.773292 
L 114.127358 135.506121 
L 114.127358 135.506121 
L 115.011012 125.854648 
L 115.011012 125.854648 
L 115.541205 119.390772 
L 115.541205 119.390772 
L 115.717935 118.389259 
L 115.717935 118.389259 
L 115.894666 119.199952 
L 115.894666 119.199952 
L 116.071397 119.290811 
L 116.071397 119.290811 
L 116.248128 121.514087 
L 116.248128 121.514087 
L 116.60159 129.057044 
L 116.60159 129.057044 
L 117.838705 152.392793 
L 117.838705 152.392793 
L 118.545629 160.617834 
L 118.545629 160.617834 
L 119.252552 166.48747 
L 119.252552 166.48747 
L 119.959475 169.569354 
L 119.959475 169.569354 
L 120.666399 170.805134 
L 120.666399 170.805134 
L 120.84313 171.004834 
L 120.84313 171.004834 
L 121.196591 171.057048 
L 121.196591 171.057048 
L 121.373322 171.238598 
L 121.373322 171.238598 
L 122.080245 171.204701 
L 122.080245 171.204701 
L 122.256976 171.321471 
L 122.787169 171.253453 
L 122.787169 171.253453 
L 123.14063 171.309465 
L 123.14063 171.309465 
L 124.377746 170.806251 
L 124.377746 170.806251 
L 125.791593 169.39322 
L 125.791593 169.39322 
L 126.498516 168.471341 
L 126.498516 168.471341 
L 127.20544 167.096229 
L 127.20544 167.096229 
L 127.558901 166.358916 
L 127.558901 166.358916 
L 128.265825 164.728986 
L 128.265825 164.728986 
L 128.972748 162.812965 
L 128.972748 162.812965 
L 129.32621 161.681558 
L 129.32621 161.681558 
L 130.209864 158.780721 
L 130.209864 158.780721 
L 131.093518 155.372315 
L 131.093518 155.372315 
L 132.330634 149.838862 
L 132.330634 149.838862 
L 134.804866 135.887427 
L 134.804866 135.887427 
L 136.748905 120.600138 
L 136.748905 120.600138 
L 137.80929 110.369 
L 137.80929 110.369 
L 138.692944 100.655986 
L 138.692944 100.655986 
L 140.813714 72.580221 
L 140.813714 72.580221 
L 141.520637 66.443649 
L 141.520637 66.443649 
L 142.227561 62.287822 
L 142.227561 62.287822 
L 142.934484 59.47332 
L 142.934484 59.47332 
L 143.641407 57.567296 
L 143.641407 57.567296 
L 144.348331 56.276453 
L 144.348331 56.276453 
L 145.055254 55.402265 
L 145.055254 55.402265 
L 145.938908 54.694884 
L 145.938908 54.694884 
L 146.999293 54.196026 
L 146.999293 54.196026 
L 148.236409 53.885531 
L 148.236409 53.885531 
L 150.003718 53.687842 
L 150.003718 53.687842 
L 150.710641 53.649142 
L 150.710641 53.649142 
L 151.064103 56.593705 
L 151.064103 56.593705 
L 151.417564 63.484288 
L 151.417564 63.484288 
L 154.245258 148.419912 
L 154.245258 148.419912 
L 154.77545 159.489498 
L 154.77545 159.489498 
L 156.89622 202.341799 
L 156.89622 202.341799 
L 157.603143 212.656871 
L 157.603143 212.656871 
L 158.840259 227.699394 
L 158.840259 227.699394 
L 160.077375 237.450717 
L 160.077375 237.450717 
L 160.961029 242.577734 
L 160.961029 242.577734 
L 161.844684 245.464777 
L 161.844684 245.464777 
L 162.551607 246.82833 
L 162.551607 246.82833 
L 162.728338 246.879483 
L 162.728338 246.879483 
L 162.905069 247.047631 
L 163.435261 247.09454 
L 163.435261 247.09454 
L 163.788723 247.269556 
L 163.788723 247.269556 
L 164.142184 247.366279 
L 164.142184 247.366279 
L 165.3793 247.190927 
L 165.3793 247.190927 
L 165.909493 246.801413 
L 165.909493 246.801413 
L 166.616416 245.796437 
L 166.616416 245.796437 
L 167.676801 243.127913 
L 167.676801 243.127913 
L 168.383724 240.737327 
L 168.383724 240.737327 
L 169.090648 237.467191 
L 169.090648 237.467191 
L 169.62084 234.596734 
L 169.62084 234.596734 
L 171.034687 224.77594 
L 171.034687 224.77594 
L 173.508919 202.563389 
L 173.508919 202.563389 
L 175.276227 183.778176 
L 175.276227 183.778176 
L 180.04796 131.618403 
L 180.04796 131.618403 
L 180.754883 120.543344 
L 180.754883 120.543344 
L 182.34546 89.493363 
L 182.34546 89.493363 
L 182.522191 87.951221 
L 182.522191 87.951221 
L 182.875653 87.193245 
L 182.875653 87.193245 
L 183.052384 88.474818 
L 183.229115 91.872446 
L 183.229115 91.872446 
L 185.703346 166.289892 
L 185.703346 166.289892 
L 188.000847 224.305228 
L 188.000847 224.305228 
L 188.177578 226.446749 
L 188.177578 226.446749 
L 188.707771 236.871052 
L 188.707771 236.871052 
L 189.414694 245.011656 
L 189.414694 245.011656 
L 190.298348 255.995912 
L 190.298348 255.995912 
L 191.888926 267.985701 
L 191.888926 267.985701 
L 192.419118 270.291851 
L 192.419118 270.291851 
L 192.77258 271.4012 
L 192.77258 271.4012 
L 193.302772 272.810879 
L 193.302772 272.810879 
L 193.832965 273.477661 
L 193.832965 273.477661 
L 194.186426 273.93162 
L 194.186426 273.93162 
L 194.539888 274.310804 
L 194.539888 274.310804 
L 194.716619 274.265123 
L 194.716619 274.265123 
L 195.070081 274.409034 
L 195.070081 274.409034 
L 195.953735 274.667482 
L 195.953735 274.667482 
L 196.660658 274.581984 
L 196.660658 274.581984 
L 197.721043 273.899119 
L 197.721043 273.899119 
L 198.074505 273.554168 
L 198.074505 273.554168 
L 198.427967 272.993826 
L 198.427967 272.993826 
L 199.665082 269.387674 
L 199.665082 269.387674 
L 201.25566 259.717046 
L 201.25566 259.717046 
L 201.962583 253.64168 
L 201.962583 253.64168 
L 202.492776 248.193613 
L 202.492776 248.193613 
L 204.436815 220.975339 
L 204.436815 220.975339 
L 205.673931 196.373933 
L 205.673931 196.373933 
L 206.557585 174.425581 
L 206.557585 174.425581 
L 207.794701 140.808993 
L 207.794701 140.808993 
L 209.208548 99.687868 
L 209.208548 99.687868 
L 209.915471 84.801876 
L 209.915471 84.801876 
L 210.622394 74.720569 
L 210.622394 74.720569 
L 211.329318 67.893202 
L 211.329318 67.893202 
L 212.036241 63.269454 
L 212.036241 63.269454 
L 212.743164 60.138148 
L 212.743164 60.138148 
L 213.450088 58.017513 
L 213.450088 58.017513 
L 214.157011 56.581363 
L 214.157011 56.581363 
L 214.863934 55.608721 
L 214.863934 55.608721 
L 215.040665 55.419297 
L 215.040665 55.419297 
L 215.394127 56.811777 
L 215.394127 56.811777 
L 215.747588 61.128827 
L 215.747588 61.128827 
L 220.165859 154.350753 
L 220.165859 154.350753 
L 220.872783 165.708887 
L 220.872783 165.708887 
L 221.402975 174.590992 
L 221.402975 174.590992 
L 222.109899 183.955426 
L 222.109899 183.955426 
L 222.640091 189.77966 
L 222.640091 189.77966 
L 223.877207 199.697065 
L 223.877207 199.697065 
L 224.58413 202.747955 
L 224.58413 202.747955 
L 225.114323 204.18444 
L 225.114323 204.18444 
L 225.644515 204.906899 
L 225.644515 204.906899 
L 226.7049 205.305907 
L 226.7049 205.305907 
L 227.588554 205.184557 
L 227.588554 205.184557 
L 228.295478 204.625332 
L 228.295478 204.625332 
L 229.002401 203.355598 
L 229.002401 203.355598 
L 229.532594 201.653852 
L 229.532594 201.653852 
L 230.592979 194.504486 
L 230.592979 194.504486 
L 231.476633 184.719377 
L 231.476633 184.719377 
L 232.713749 161.306339 
L 232.713749 161.306339 
L 235.364711 90.253573 
L 235.364711 90.253573 
L 236.071635 78.412665 
L 236.071635 78.412665 
L 236.778558 70.393578 
L 236.778558 70.393578 
L 237.485481 64.962823 
L 237.485481 64.962823 
L 238.192405 61.284968 
L 238.192405 61.284968 
L 238.899328 58.794141 
L 238.899328 58.794141 
L 239.606251 57.107305 
L 239.606251 57.107305 
L 240.313175 55.964953 
L 240.313175 55.964953 
L 241.020098 55.191285 
L 241.020098 55.191285 
L 241.37356 54.903854 
L 241.37356 54.903854 
L 241.55029 55.067757 
L 241.55029 55.067757 
L 241.727021 56.235463 
L 241.727021 56.235463 
L 242.964137 72.774504 
L 242.964137 72.774504 
L 244.024522 88.199505 
L 244.024522 88.199505 
L 244.554715 96.5598 
L 244.554715 96.5598 
L 246.145292 121.134792 
L 246.145292 121.134792 
L 246.498754 125.08003 
L 246.498754 125.08003 
L 246.852216 129.333195 
L 246.852216 129.333195 
L 247.912601 138.82607 
L 247.912601 138.82607 
L 248.619524 142.516044 
L 248.619524 142.516044 
L 249.149716 144.309654 
L 249.149716 144.309654 
L 249.679909 145.385607 
L 249.679909 145.385607 
L 250.033371 145.679461 
L 250.033371 145.679461 
L 250.563563 145.800755 
L 250.563563 145.800755 
L 251.093756 146.062106 
L 251.093756 146.062106 
L 251.800679 145.914454 
L 251.800679 145.914454 
L 252.154141 145.489534 
L 252.154141 145.489534 
L 252.507602 145.005977 
L 252.507602 145.005977 
L 253.391256 142.43546 
L 253.391256 142.43546 
L 254.274911 137.759833 
L 254.274911 137.759833 
L 254.805103 133.812194 
L 254.805103 133.812194 
L 255.512027 127.255169 
L 255.512027 127.255169 
L 257.279335 105.026982 
L 257.279335 105.026982 
L 258.162989 91.561895 
L 258.162989 91.561895 
L 259.223374 75.072779 
L 259.223374 75.072779 
L 259.930297 68.131713 
L 259.930297 68.131713 
L 260.637221 63.431012 
L 260.637221 63.431012 
L 261.344144 60.247547 
L 261.344144 60.247547 
L 262.051067 58.091619 
L 262.051067 58.091619 
L 262.757991 56.631511 
L 262.757991 56.631511 
L 263.464914 55.642731 
L 263.464914 55.642731 
L 264.348568 54.842592 
L 264.348568 54.842592 
L 265.232222 54.35105 
L 265.232222 54.35105 
L 266.292608 54.004424 
L 266.292608 54.004424 
L 267.883185 53.74955 
L 267.883185 53.74955 
L 270.357417 53.614407 
L 270.357417 53.614407 
L 276.366265 53.569675 
L 276.366265 53.569675 
L 276.896458 60.203095 
L 276.896458 60.203095 
L 277.42665 76.9329 
L 277.42665 76.9329 
L 278.310304 108.842438 
L 278.310304 108.842438 
L 279.724151 162.345436 
L 279.724151 162.345436 
L 281.844921 226.476402 
L 281.844921 226.476402 
L 282.375114 239.034911 
L 282.375114 239.034911 
L 282.551844 241.516468 
L 282.551844 241.516468 
L 282.905306 248.127103 
L 282.905306 248.127103 
L 283.435499 255.719705 
L 283.435499 255.719705 
L 283.965691 264.315887 
L 283.965691 264.315887 
L 285.026076 276.228612 
L 285.026076 276.228612 
L 285.379538 280.186862 
L 285.379538 280.186862 
L 286.970115 291.370761 
L 286.970115 291.370761 
L 287.853769 294.210225 
L 287.853769 294.210225 
L 288.383962 294.958093 
L 288.383962 294.958093 
L 288.737424 295.151314 
L 288.737424 295.151314 
L 289.444347 295.344368 
L 289.444347 295.344368 
L 290.681463 295.127022 
L 290.681463 295.127022 
L 290.858194 295.045545 
L 290.858194 295.045545 
L 291.741848 293.838636 
L 291.741848 293.838636 
L 292.802233 290.288329 
L 292.802233 290.288329 
L 293.155695 288.333273 
L 293.155695 288.333273 
L 293.862618 284.223517 
L 293.862618 284.223517 
L 295.983388 264.814243 
L 295.983388 264.814243 
L 296.690311 256.263406 
L 296.690311 256.263406 
L 297.397235 246.571278 
L 297.397235 246.571278 
L 298.811081 224.440874 
L 298.811081 224.440874 
L 300.048197 204.432501 
L 300.048197 204.432501 
L 303.229352 159.646756 
L 303.229352 159.646756 
L 303.582814 158.819644 
L 303.582814 158.819644 
L 304.113006 167.007883 
L 304.113006 167.007883 
L 304.466468 177.287048 
L 304.466468 177.287048 
L 304.996661 190.330342 
L 304.996661 190.330342 
L 306.410507 218.603237 
L 306.410507 218.603237 
L 306.9407 226.547715 
L 306.9407 226.547715 
L 309.06147 248.351876 
L 309.06147 248.351876 
L 310.475316 255.789734 
L 310.475316 255.789734 
L 311.18224 258.421959 
L 311.18224 258.421959 
L 312.065894 260.225956 
L 312.065894 260.225956 
L 312.772817 261.211889 
L 312.772817 261.211889 
L 312.949548 261.227134 
L 312.949548 261.227134 
L 313.30301 261.461067 
L 313.30301 261.461067 
L 313.833202 261.564044 
L 313.833202 261.564044 
L 315.070318 261.408573 
L 315.070318 261.408573 
L 315.600511 261.157385 
L 315.600511 261.157385 
L 315.953972 260.766809 
L 315.953972 260.766809 
L 316.484165 260.09824 
L 316.484165 260.09824 
L 317.721281 256.700277 
L 317.721281 256.700277 
L 318.604935 252.180623 
L 318.604935 252.180623 
L 319.311858 248.028593 
L 319.311858 248.028593 
L 320.372243 239.503222 
L 320.372243 239.503222 
L 323.199937 209.296826 
L 323.199937 209.296826 
L 326.381092 159.116737 
L 326.381092 159.116737 
L 327.088015 145.325463 
L 327.088015 145.325463 
L 327.441477 140.860202 
L 327.441477 140.860202 
L 327.794938 138.688414 
L 327.794938 138.688414 
L 327.971669 138.916929 
L 328.1484 139.498827 
L 328.1484 139.498827 
L 328.325131 141.438973 
L 328.325131 141.438973 
L 329.032054 156.660365 
L 329.032054 156.660365 
L 329.738978 169.163644 
L 329.738978 169.163644 
L 330.092439 175.960018 
L 330.092439 175.960018 
L 330.799363 187.514277 
L 330.799363 187.514277 
L 331.329555 193.456119 
L 331.329555 193.456119 
L 331.859748 198.90117 
L 331.859748 198.90117 
L 332.743402 205.501921 
L 332.743402 205.501921 
L 333.450325 208.490601 
L 333.450325 208.490601 
L 333.980518 209.62413 
L 333.980518 209.62413 
L 334.51071 210.072225 
L 334.51071 210.072225 
L 334.864172 210.202845 
L 334.864172 210.202845 
L 335.571095 210.436722 
L 335.571095 210.436722 
L 336.454749 209.895813 
L 336.454749 209.895813 
L 336.808211 209.458551 
L 336.808211 209.458551 
L 337.161673 208.815112 
L 337.161673 208.815112 
L 337.515134 207.902448 
L 337.515134 207.902448 
L 337.868596 206.641872 
L 337.868596 206.641872 
L 338.398789 203.991219 
L 338.398789 203.991219 
L 338.75225 200.966519 
L 338.75225 200.966519 
L 339.105712 197.395327 
L 339.105712 197.395327 
L 339.635904 190.866057 
L 339.635904 190.866057 
L 340.342828 179.919329 
L 340.342828 179.919329 
L 340.696289 177.603183 
L 340.696289 177.603183 
L 340.87302 176.977893 
L 340.87302 176.977893 
L 341.049751 177.042561 
L 341.049751 177.042561 
L 341.226482 177.31296 
L 341.226482 177.31296 
L 341.756674 182.028236 
L 341.756674 182.028236 
L 342.286867 185.710727 
L 342.286867 185.710727 
L 342.640329 187.03301 
L 342.640329 187.03301 
L 343.523983 188.11399 
L 343.523983 188.11399 
L 343.700714 188.219815 
L 343.700714 188.219815 
L 343.877444 188.194406 
L 343.877444 188.194406 
L 344.584368 187.449218 
L 344.584368 187.449218 
L 345.11456 185.889038 
L 345.11456 185.889038 
L 345.998214 178.676456 
L 345.998214 178.676456 
L 347.058599 167.470275 
L 347.058599 167.470275 
L 347.23533 167.195465 
L 347.23533 167.195465 
L 347.412061 167.193287 
L 347.412061 167.193287 
L 347.588792 168.423594 
L 347.588792 168.423594 
L 348.295715 177.753963 
L 348.295715 177.753963 
L 348.825908 182.440647 
L 348.825908 182.440647 
L 349.3561 185.008818 
L 349.3561 185.008818 
L 349.709562 185.854302 
L 349.709562 185.854302 
L 350.063024 186.132631 
L 350.063024 186.132631 
L 350.239755 186.260682 
L 350.416485 186.226449 
L 350.416485 186.226449 
L 350.593216 186.339032 
L 350.593216 186.339032 
L 350.769947 186.296646 
L 350.769947 186.296646 
L 351.123409 186.36606 
L 351.123409 186.36606 
L 351.830332 186.120233 
L 351.830332 186.120233 
L 352.890717 185.094819 
L 352.890717 185.094819 
L 353.244179 184.446521 
L 353.244179 184.446521 
L 353.774371 183.467178 
L 353.774371 183.467178 
L 354.658025 181.227874 
L 354.658025 181.227874 
L 355.895141 176.831469 
L 355.895141 176.831469 
L 357.308988 169.585381 
L 357.308988 169.585381 
L 358.015911 164.999552 
L 358.015911 164.999552 
L 361.90399 136.594473 
L 361.90399 136.594473 
L 363.141106 130.156062 
L 363.141106 130.156062 
L 364.201491 124.869497 
L 364.201491 124.869497 
L 364.908414 120.520616 
L 364.908414 120.520616 
L 365.968799 111.326005 
L 365.968799 111.326005 
L 366.675722 102.208962 
L 366.675722 102.208962 
L 368.443031 74.165531 
L 368.443031 74.165531 
L 369.149954 67.517313 
L 369.149954 67.517313 
L 369.856877 63.014915 
L 369.856877 63.014915 
L 370.563801 59.965756 
L 370.563801 59.965756 
L 371.270724 57.900742 
L 371.270724 57.900742 
L 371.977647 56.502287 
L 371.977647 56.502287 
L 372.684571 55.555167 
L 372.684571 55.555167 
L 373.568225 54.78887 
L 373.568225 54.78887 
L 374.451879 54.318046 
L 374.451879 54.318046 
L 375.688995 53.947183 
L 375.688995 53.947183 
L 377.279572 53.72576 
L 377.279572 53.72576 
L 380.107266 53.601172 
L 380.107266 53.601172 
L 388.236884 53.568391 
L 388.236884 53.568391 
L 397.250157 53.5981 
L 397.250157 53.5981 
L 397.426888 53.728385 
L 397.426888 53.728385 
L 398.487273 53.742681 
L 398.487273 53.742681 
" clip-path="url(#pcb6531a7c9)" style="fill: none; stroke: #1f77b4; stroke-width: 1.5; stroke-linecap: square"/>
   </g>
   <g id="line2d_28">
    <path d="M 73.832727 53.568 
L 92.212734 53.568 
L 92.212734 53.568 
L 92.389465 55.741743 
L 92.389465 55.741743 
L 92.742927 74.398514 
L 92.742927 74.398514 
L 92.919658 73.43693 
L 92.919658 73.43693 
L 94.156773 116.812213 
L 94.156773 116.812213 
L 94.333504 116.259075 
L 94.333504 116.259075 
L 95.217158 140.991771 
L 95.217158 140.991771 
L 95.393889 142.085707 
L 95.393889 142.085707 
L 96.277543 161.818823 
L 96.277543 161.818823 
L 96.454274 162.078388 
L 96.454274 162.078388 
L 97.161198 174.872169 
L 97.161198 174.872169 
L 97.337928 175.233426 
L 97.337928 175.233426 
L 97.69139 182.839822 
L 97.69139 182.839822 
L 97.868121 181.983896 
L 97.868121 181.983896 
L 98.044852 185.412797 
L 98.044852 185.412797 
L 98.221583 185.416092 
L 98.221583 185.416092 
L 98.398313 188.349039 
L 98.398313 188.349039 
L 98.751775 190.612803 
L 98.751775 190.612803 
L 98.928506 193.331307 
L 98.928506 193.331307 
L 99.105237 193.248602 
L 99.105237 193.248602 
L 99.281968 195.405088 
L 99.281968 195.405088 
L 99.458698 195.473833 
L 99.458698 195.473833 
L 99.635429 196.776459 
L 99.635429 196.776459 
L 99.988891 197.860399 
L 99.988891 197.860399 
L 100.342353 198.667685 
L 100.342353 198.667685 
L 100.519083 199.146662 
L 100.519083 199.146662 
L 101.049276 199.507249 
L 101.049276 199.507249 
L 101.226007 199.356637 
L 101.226007 199.356637 
L 101.402738 199.578004 
L 101.402738 199.578004 
L 101.579469 199.396231 
L 101.579469 199.396231 
L 101.756199 199.618603 
L 101.756199 199.618603 
L 102.109661 199.250589 
L 102.109661 199.250589 
L 102.286392 199.290629 
L 102.286392 199.290629 
L 102.463123 198.736932 
L 102.463123 198.736932 
L 102.639854 199.138006 
L 102.639854 199.138006 
L 102.816584 198.125268 
L 102.816584 198.125268 
L 102.993315 198.500989 
L 102.993315 198.500989 
L 103.170046 197.100245 
L 103.170046 197.100245 
L 103.346777 197.360535 
L 103.346777 197.360535 
L 103.523508 195.666384 
L 103.523508 195.666384 
L 103.700239 195.630085 
L 103.700239 195.630085 
L 103.876969 193.79677 
L 103.876969 193.79677 
L 104.0537 193.138979 
L 104.0537 193.138979 
L 104.230431 190.945468 
L 104.230431 190.945468 
L 104.407162 185.634443 
L 104.407162 185.634443 
L 104.583893 187.414427 
L 104.583893 187.414427 
L 104.760624 181.63794 
L 104.760624 181.63794 
L 104.937354 182.476666 
L 104.937354 182.476666 
L 105.114085 176.224776 
L 105.114085 176.224776 
L 105.290816 176.04155 
L 105.290816 176.04155 
L 105.644278 168.26025 
L 105.644278 168.26025 
L 105.821009 163.396818 
L 105.821009 163.396818 
L 105.997739 149.675238 
L 106.17447 153.559885 
L 106.17447 153.559885 
L 106.351201 140.235582 
L 106.351201 140.235582 
L 106.527932 141.213808 
L 106.527932 141.213808 
L 106.704663 130.690939 
L 106.704663 130.690939 
L 106.881394 127.859405 
L 106.881394 127.859405 
L 107.058124 121.680671 
L 107.058124 121.680671 
L 107.234855 126.033182 
L 107.234855 126.033182 
L 107.411586 125.537508 
L 107.411586 125.537508 
L 107.588317 130.573331 
L 107.588317 130.573331 
L 107.765048 131.899412 
L 108.118509 138.503904 
L 108.118509 138.503904 
L 108.29524 138.764306 
L 108.29524 138.764306 
L 108.648702 142.12826 
L 108.648702 142.12826 
L 109.002164 143.029812 
L 109.002164 143.029812 
L 109.355625 143.892105 
L 109.355625 143.892105 
L 109.532356 144.353212 
L 109.532356 144.353212 
L 109.709087 143.831458 
L 109.709087 143.831458 
L 109.885818 144.546881 
L 109.885818 144.546881 
L 110.062549 143.957834 
L 110.062549 143.957834 
L 110.239279 143.787955 
L 110.239279 143.787955 
L 110.41601 144.508069 
L 110.41601 144.508069 
L 110.592741 143.849161 
L 110.592741 143.849161 
L 110.769472 144.095155 
L 110.769472 144.095155 
L 110.946203 143.802028 
L 110.946203 143.802028 
L 111.122934 143.194218 
L 111.122934 143.194218 
L 111.476395 143.655883 
L 111.476395 143.655883 
L 111.653126 141.584001 
L 111.653126 141.584001 
L 111.829857 141.944365 
L 111.829857 141.944365 
L 112.006588 141.321141 
L 112.006588 141.321141 
L 112.183319 138.774693 
L 112.183319 138.774693 
L 112.360049 139.8846 
L 112.360049 139.8846 
L 112.53678 137.599727 
L 112.53678 137.599727 
L 112.713511 137.308946 
L 112.713511 137.308946 
L 112.890242 136.228078 
L 112.890242 136.228078 
L 113.066973 132.818722 
L 113.066973 132.818722 
L 113.243704 132.723842 
L 113.243704 132.723842 
L 113.420435 130.676643 
L 113.420435 130.676643 
L 113.597165 126.055185 
L 113.597165 126.055185 
L 113.773896 126.35574 
L 113.773896 126.35574 
L 113.950627 123.710614 
L 113.950627 123.710614 
L 114.127358 116.754414 
L 114.127358 116.754414 
L 114.304089 117.501836 
L 114.304089 117.501836 
L 114.48082 112.668951 
L 114.48082 112.668951 
L 114.65755 103.771209 
L 114.65755 103.771209 
L 114.834281 105.269067 
L 114.834281 105.269067 
L 115.011012 98.099206 
L 115.011012 98.099206 
L 115.187743 101.723842 
L 115.187743 101.723842 
L 115.364474 100.96179 
L 115.364474 100.96179 
L 115.717935 120.744328 
L 115.894666 119.463984 
L 116.248128 135.484565 
L 116.248128 135.484565 
L 116.424859 134.265594 
L 116.424859 134.265594 
L 116.77832 145.974598 
L 116.77832 145.974598 
L 116.955051 145.59642 
L 116.955051 145.59642 
L 117.661975 157.661488 
L 117.661975 157.661488 
L 118.015436 160.600522 
L 118.015436 160.600522 
L 118.192167 163.285911 
L 118.368898 163.753384 
L 118.368898 163.753384 
L 118.89909 167.789984 
L 118.89909 167.789984 
L 119.429283 169.915533 
L 119.429283 169.915533 
L 119.782745 170.665356 
L 119.782745 170.665356 
L 119.959475 170.612248 
L 119.959475 170.612248 
L 120.136206 170.84188 
L 120.312937 171.386753 
L 120.312937 171.386753 
L 120.489668 171.126239 
L 120.489668 171.126239 
L 120.666399 171.385301 
L 120.666399 171.385301 
L 120.84313 171.069669 
L 120.84313 171.069669 
L 121.01986 171.114009 
L 121.01986 171.114009 
L 121.196591 171.584554 
L 121.196591 171.584554 
L 121.373322 171.023486 
L 121.373322 171.023486 
L 121.550053 171.324766 
L 121.550053 171.324766 
L 121.903515 170.904481 
L 121.903515 170.904481 
L 122.080245 171.544011 
L 122.080245 171.544011 
L 122.256976 170.750407 
L 122.256976 170.750407 
L 122.433707 171.126686 
L 122.433707 171.126686 
L 122.787169 171.444887 
L 122.787169 171.444887 
L 122.9639 171.212798 
L 122.9639 171.212798 
L 123.14063 170.618558 
L 123.14063 170.618558 
L 123.317361 171.093179 
L 123.317361 171.093179 
L 123.494092 170.418579 
L 123.494092 170.418579 
L 123.670823 170.831325 
L 123.670823 170.831325 
L 124.024285 169.391043 
L 124.024285 169.391043 
L 124.201015 170.200228 
L 124.201015 170.200228 
L 124.377746 169.044026 
L 124.377746 169.044026 
L 124.554477 169.80686 
L 124.554477 169.80686 
L 124.731208 168.283537 
L 124.731208 168.283537 
L 124.907939 168.422757 
L 124.907939 168.422757 
L 125.08467 168.877498 
L 125.08467 168.877498 
L 125.261401 167.2302 
L 125.261401 167.2302 
L 125.438131 168.385173 
L 125.438131 168.385173 
L 125.614862 166.776799 
L 125.614862 166.776799 
L 125.791593 167.033013 
L 125.791593 167.033013 
L 126.145055 166.130847 
L 126.145055 166.130847 
L 126.321786 166.469153 
L 126.321786 166.469153 
L 126.498516 164.1926 
L 126.498516 164.1926 
L 126.675247 164.578764 
L 126.675247 164.578764 
L 126.851978 164.105651 
L 126.851978 164.105651 
L 127.20544 164.047405 
L 127.20544 164.047405 
L 127.382171 161.920236 
L 127.382171 161.920236 
L 127.558901 162.512019 
L 127.558901 162.512019 
L 127.735632 160.973898 
L 127.735632 160.973898 
L 127.912363 160.735498 
L 127.912363 160.735498 
L 128.089094 161.207048 
L 128.089094 161.207048 
L 128.265825 158.68076 
L 128.265825 158.68076 
L 128.442556 159.512282 
L 128.442556 159.512282 
L 128.796017 158.365574 
L 128.796017 158.365574 
L 128.972748 157.976953 
L 129.149479 155.013626 
L 129.149479 155.013626 
L 129.32621 156.047362 
L 129.32621 156.047362 
L 129.679671 154.541853 
L 129.679671 154.541853 
L 129.856402 154.222088 
L 129.856402 154.222088 
L 130.033133 151.758345 
L 130.033133 151.758345 
L 130.209864 152.159029 
L 130.209864 152.159029 
L 130.563326 150.181747 
L 130.563326 150.181747 
L 130.740056 149.966355 
L 130.740056 149.966355 
L 130.916787 147.305091 
L 130.916787 147.305091 
L 131.093518 147.535672 
L 131.093518 147.535672 
L 131.270249 146.748043 
L 131.270249 146.748043 
L 131.44698 144.062989 
L 131.44698 144.062989 
L 131.623711 145.178983 
L 131.623711 145.178983 
L 131.800441 143.429211 
L 131.800441 143.429211 
L 131.977172 142.941131 
L 131.977172 142.941131 
L 132.153903 141.810115 
L 132.153903 141.810115 
L 132.330634 139.524795 
L 132.330634 139.524795 
L 132.507365 140.3098 
L 132.507365 140.3098 
L 132.860826 135.832979 
L 132.860826 135.832979 
L 133.037557 136.593635 
L 133.037557 136.593635 
L 133.214288 134.609484 
L 133.214288 134.609484 
L 133.391019 134.41079 
L 133.391019 134.41079 
L 133.56775 133.492875 
L 133.56775 133.492875 
L 133.744481 130.563949 
L 133.744481 130.563949 
L 133.921211 130.675303 
L 133.921211 130.675303 
L 134.097942 129.217206 
L 134.097942 129.217206 
L 134.274673 126.21261 
L 134.274673 126.21261 
L 134.451404 126.613852 
L 134.451404 126.613852 
L 134.628135 124.771267 
L 134.628135 124.771267 
L 134.804866 121.539105 
L 134.804866 121.539105 
L 134.981596 122.199912 
L 134.981596 122.199912 
L 135.335058 116.540977 
L 135.335058 116.540977 
L 135.511789 117.396457 
L 135.511789 117.396457 
L 135.865251 111.232466 
L 135.865251 111.232466 
L 136.041981 112.203041 
L 136.395443 105.397062 
L 136.395443 105.397062 
L 136.572174 106.47955 
L 136.572174 106.47955 
L 136.925636 99.476497 
L 136.925636 99.476497 
L 137.102367 100.564066 
L 137.102367 100.564066 
L 137.279097 97.837743 
L 137.279097 97.837743 
L 137.455828 93.1548 
L 137.455828 93.1548 
L 137.632559 93.683088 
L 137.632559 93.683088 
L 137.80929 91.163669 
L 137.80929 91.163669 
L 137.986021 86.888334 
L 137.986021 86.888334 
L 138.162752 86.880516 
L 138.162752 86.880516 
L 138.516213 79.880646 
L 138.516213 79.880646 
L 138.692944 74.448662 
L 138.692944 74.448662 
L 138.869675 76.145829 
L 139.046406 72.729158 
L 139.046406 72.729158 
L 139.223137 66.667362 
L 139.223137 66.667362 
L 139.399867 66.703605 
L 139.399867 66.703605 
L 139.576598 64.112537 
L 139.576598 64.112537 
L 139.93006 54.458495 
L 139.93006 54.458495 
L 140.106791 55.009679 
L 140.106791 55.009679 
L 140.283522 53.568 
L 140.283522 53.568 
L 150.53391 53.568 
L 150.53391 53.568 
L 151.240833 71.065163 
L 151.240833 71.065163 
L 151.594295 88.095913 
L 151.594295 88.095913 
L 151.771026 88.140589 
L 151.771026 88.140589 
L 152.124488 100.634374 
L 152.124488 100.634374 
L 152.301218 110.194933 
L 152.301218 110.194933 
L 152.477949 110.063643 
L 152.477949 110.063643 
L 152.831411 123.356338 
L 152.831411 123.356338 
L 153.008142 132.210074 
L 153.008142 132.210074 
L 153.184873 130.236869 
L 153.184873 130.236869 
L 153.538334 146.645401 
L 153.538334 146.645401 
L 153.715065 144.116488 
L 153.715065 144.116488 
L 154.068527 160.180572 
L 154.068527 160.180572 
L 154.245258 157.296768 
L 154.245258 157.296768 
L 154.421988 165.168872 
L 154.421988 165.168872 
L 154.598719 165.777017 
L 154.598719 165.777017 
L 154.77545 170.308119 
L 154.77545 170.308119 
L 154.952181 179.246348 
L 154.952181 179.246348 
L 155.128912 177.889832 
L 155.128912 177.889832 
L 155.305643 184.052204 
L 155.305643 184.052204 
L 155.482373 184.836818 
L 155.482373 184.836818 
L 155.659104 188.905975 
L 155.659104 188.905975 
L 155.835835 197.231926 
L 155.835835 197.231926 
L 156.012566 195.003065 
L 156.012566 195.003065 
L 156.189297 201.941562 
L 156.189297 201.941562 
L 156.366028 201.157284 
L 156.366028 201.157284 
L 156.542758 206.37555 
L 156.542758 206.37555 
L 156.719489 206.887308 
L 156.719489 206.887308 
L 156.89622 210.870297 
L 156.89622 210.870297 
L 157.072951 212.177112 
L 157.072951 212.177112 
L 157.426413 217.112415 
L 157.426413 217.112415 
L 158.310067 226.975818 
L 158.310067 226.975818 
L 158.486798 231.832772 
L 158.486798 231.832772 
L 158.663528 230.327431 
L 158.663528 230.327431 
L 159.370452 236.711282 
L 159.370452 236.711282 
L 159.547183 237.446361 
L 159.547183 237.446361 
L 160.077375 240.845888 
L 160.077375 240.845888 
L 160.254106 241.508259 
L 160.254106 241.508259 
L 160.607568 243.638387 
L 160.607568 243.638387 
L 160.961029 244.391392 
L 160.961029 244.391392 
L 161.13776 245.512915 
L 161.13776 245.512915 
L 161.314491 245.689719 
L 161.314491 245.689719 
L 161.844684 246.57072 
L 161.844684 246.57072 
L 162.021414 246.71854 
L 162.021414 246.71854 
L 162.198145 247.237948 
L 162.198145 247.237948 
L 162.374876 247.412127 
L 162.374876 247.412127 
L 162.551607 246.976932 
L 162.551607 246.976932 
L 162.728338 247.36801 
L 162.728338 247.36801 
L 162.905069 246.988324 
L 162.905069 246.988324 
L 163.081799 247.230856 
L 163.081799 247.230856 
L 163.25853 246.972017 
L 163.25853 246.972017 
L 163.435261 247.503823 
L 163.435261 247.503823 
L 163.611992 247.334559 
L 163.611992 247.334559 
L 163.788723 247.569106 
L 164.142184 247.214494 
L 164.142184 247.214494 
L 164.495646 247.309541 
L 164.495646 247.309541 
L 164.672377 247.367061 
L 164.672377 247.367061 
L 165.025839 246.988938 
L 165.025839 246.988938 
L 165.202569 246.171767 
L 165.202569 246.171767 
L 165.3793 246.032045 
L 165.3793 246.032045 
L 165.556031 245.439927 
L 165.556031 245.439927 
L 165.732762 245.537822 
L 165.732762 245.537822 
L 165.909493 244.351464 
L 165.909493 244.351464 
L 166.086224 244.555128 
L 166.086224 244.555128 
L 166.262954 242.710421 
L 166.262954 242.710421 
L 166.439685 243.365308 
L 166.439685 243.365308 
L 166.616416 241.488043 
L 166.616416 241.488043 
L 166.793147 242.35123 
L 166.969878 239.239525 
L 166.969878 239.239525 
L 167.146609 240.748105 
L 167.146609 240.748105 
L 167.323339 237.129947 
L 167.323339 237.129947 
L 167.50007 238.944554 
L 167.50007 238.944554 
L 168.030263 235.374367 
L 168.030263 235.374367 
L 168.383724 233.097368 
L 168.383724 233.097368 
L 168.560455 230.902572 
L 168.560455 230.902572 
L 168.737186 230.641779 
L 168.737186 230.641779 
L 168.913917 228.468595 
L 168.913917 228.468595 
L 169.090648 228.40577 
L 169.090648 228.40577 
L 169.267379 225.09766 
L 169.267379 225.09766 
L 169.444109 225.226716 
L 169.444109 225.226716 
L 169.62084 221.959373 
L 169.62084 221.959373 
L 169.797571 222.276737 
L 169.797571 222.276737 
L 169.974302 218.699904 
L 169.974302 218.699904 
L 170.151033 219.177876 
L 170.151033 219.177876 
L 170.327764 215.354825 
L 170.327764 215.354825 
L 170.504494 215.94309 
L 170.504494 215.94309 
L 170.681225 211.916933 
L 170.681225 211.916933 
L 170.857956 212.567632 
L 170.857956 212.567632 
L 171.034687 208.418617 
L 171.034687 208.418617 
L 171.211418 209.075347 
L 171.211418 209.075347 
L 171.388149 204.880652 
L 171.388149 204.880652 
L 171.564879 205.474725 
L 171.564879 205.474725 
L 171.74161 201.308901 
L 171.74161 201.308901 
L 171.918341 201.775537 
L 171.918341 201.775537 
L 172.095072 197.729834 
L 172.095072 197.729834 
L 172.271803 197.98683 
L 172.271803 197.98683 
L 172.448534 194.131669 
L 172.448534 194.131669 
L 172.625265 194.119662 
L 172.625265 194.119662 
L 172.801995 190.434771 
L 172.978726 190.180623 
L 172.978726 190.180623 
L 173.155457 186.985989 
L 173.155457 186.985989 
L 173.332188 185.99302 
L 173.332188 185.99302 
L 174.039111 174.567426 
L 174.039111 174.567426 
L 174.215842 175.648294 
L 174.215842 175.648294 
L 174.392573 171.054982 
L 174.392573 171.054982 
L 174.569304 172.000595 
L 174.569304 172.000595 
L 174.746035 168.109972 
L 174.746035 168.109972 
L 174.922765 168.078644 
L 174.922765 168.078644 
L 175.276227 163.418318 
L 175.276227 163.418318 
L 175.452958 161.779453 
L 175.452958 161.779453 
L 175.629689 156.521369 
L 175.629689 156.521369 
L 175.80642 158.4566 
L 175.80642 158.4566 
L 175.98315 154.363989 
L 175.98315 154.363989 
L 176.159881 154.406374 
L 176.159881 154.406374 
L 176.513343 150.30695 
L 176.513343 150.30695 
L 176.690074 149.448063 
L 176.690074 149.448063 
L 176.866805 145.097618 
L 176.866805 145.097618 
L 177.043535 145.453347 
L 177.043535 145.453347 
L 177.396997 141.852389 
L 177.396997 141.852389 
L 177.573728 140.761972 
L 177.573728 140.761972 
L 177.750459 136.853591 
L 177.750459 136.853591 
L 177.92719 137.027825 
L 177.92719 137.027825 
L 178.10392 134.668456 
L 178.10392 134.668456 
L 178.280651 129.800668 
L 178.280651 129.800668 
L 178.457382 131.286408 
L 178.457382 131.286408 
L 178.634113 127.743305 
L 178.634113 127.743305 
L 178.810844 126.685668 
L 178.810844 126.685668 
L 178.987575 124.181159 
L 178.987575 124.181159 
L 179.164305 119.077094 
L 179.164305 119.077094 
L 179.341036 119.043978 
L 179.341036 119.043978 
L 179.517767 116.352949 
L 179.517767 116.352949 
L 179.694498 108.957477 
L 179.694498 108.957477 
L 179.871229 109.460691 
L 179.871229 109.460691 
L 180.04796 105.253822 
L 180.04796 105.253822 
L 180.22469 96.70628 
L 180.22469 96.70628 
L 180.401421 97.745712 
L 180.401421 97.745712 
L 180.754883 82.01647 
L 180.931614 82.816274 
L 181.108345 76.689921 
L 181.108345 76.689921 
L 181.285075 65.181175 
L 181.285075 65.181175 
L 181.461806 64.834996 
L 181.461806 64.834996 
L 181.638537 57.543338 
L 181.638537 57.543338 
L 181.815268 56.546963 
L 181.815268 56.546963 
L 181.991999 67.92615 
L 181.991999 67.92615 
L 182.16873 66.447726 
L 182.16873 66.447726 
L 183.936038 133.606407 
L 183.936038 133.606407 
L 184.112769 131.181085 
L 184.112769 131.181085 
L 184.466231 149.649885 
L 184.466231 149.649885 
L 184.642961 147.69159 
L 184.642961 147.69159 
L 184.819692 154.775562 
L 184.819692 154.775562 
L 184.996423 166.585086 
L 184.996423 166.585086 
L 185.173154 164.222812 
L 185.173154 164.222812 
L 185.349885 173.035168 
L 185.349885 173.035168 
L 185.526616 174.097161 
L 185.526616 174.097161 
L 185.703346 179.551705 
L 185.703346 179.551705 
L 185.880077 190.853994 
L 185.880077 190.853994 
L 186.056808 188.834438 
L 186.056808 188.834438 
L 186.233539 196.950358 
L 186.233539 196.950358 
L 186.41027 197.320048 
L 186.41027 197.320048 
L 186.763731 206.308035 
L 186.763731 206.308035 
L 186.940462 210.392605 
L 186.940462 210.392605 
L 187.117193 220.938817 
L 187.117193 220.938817 
L 187.293924 217.296534 
L 187.293924 217.296534 
L 187.470655 227.432011 
L 187.470655 227.432011 
L 187.647386 224.370063 
L 187.647386 224.370063 
L 187.824116 233.064364 
L 187.824116 233.064364 
L 188.000847 230.526516 
L 188.000847 230.526516 
L 188.177578 238.907474 
L 188.177578 238.907474 
L 188.354309 236.757856 
L 188.354309 236.757856 
L 188.53104 244.6098 
L 188.53104 244.6098 
L 188.707771 242.145052 
L 188.707771 242.145052 
L 189.768156 256.892102 
L 189.768156 256.892102 
L 189.944886 257.17434 
L 189.944886 257.17434 
L 190.121617 260.204233 
L 190.121617 260.204233 
L 190.298348 260.020561 
L 190.298348 260.020561 
L 190.475079 263.696797 
L 190.475079 263.696797 
L 190.65181 263.419306 
L 190.65181 263.419306 
L 190.828541 264.222795 
L 190.828541 264.222795 
L 191.182002 266.885343 
L 191.182002 266.885343 
L 191.358733 268.114869 
L 191.358733 268.114869 
L 191.535464 268.464064 
L 191.535464 268.464064 
L 191.712195 270.382933 
L 191.712195 270.382933 
L 191.888926 270.354508 
L 191.888926 270.354508 
L 192.242387 271.566108 
L 192.242387 271.566108 
L 192.419118 271.530814 
L 192.419118 271.530814 
L 192.595849 272.702039 
L 192.595849 272.702039 
L 193.126041 273.641453 
L 193.126041 273.641453 
L 193.302772 273.381944 
L 193.302772 273.381944 
L 193.479503 274.039847 
L 193.479503 274.039847 
L 193.656234 273.69646 
L 193.656234 273.69646 
L 193.832965 274.392392 
L 193.832965 274.392392 
L 194.009696 274.196658 
L 194.009696 274.196658 
L 194.363157 274.650114 
L 194.363157 274.650114 
L 194.539888 273.81848 
L 194.539888 273.81848 
L 194.716619 274.644139 
L 194.716619 274.644139 
L 194.89335 274.434667 
L 194.89335 274.434667 
L 195.246812 274.740973 
L 195.246812 274.740973 
L 195.423542 274.516535 
L 195.423542 274.516535 
L 195.777004 274.790395 
L 195.777004 274.790395 
L 196.307197 274.256914 
L 196.307197 274.256914 
L 196.483927 274.468229 
L 196.660658 273.576506 
L 196.660658 273.576506 
L 196.837389 274.017565 
L 196.837389 274.017565 
L 197.01412 273.969315 
L 197.01412 273.969315 
L 197.190851 272.731916 
L 197.190851 272.731916 
L 197.367582 273.294604 
L 197.367582 273.294604 
L 197.544312 271.374283 
L 197.544312 271.374283 
L 197.721043 272.312412 
L 197.721043 272.312412 
L 198.251236 270.189935 
L 198.251236 270.189935 
L 198.427967 267.753109 
L 198.427967 267.753109 
L 198.604697 268.860839 
L 198.604697 268.860839 
L 198.958159 266.37191 
L 198.958159 266.37191 
L 199.13489 265.637221 
L 199.13489 265.637221 
L 199.311621 263.197883 
L 199.311621 263.197883 
L 199.488352 263.440862 
L 199.665082 258.487967 
L 199.665082 258.487967 
L 199.841813 260.602738 
L 199.841813 260.602738 
L 200.195275 256.406591 
L 200.195275 256.406591 
L 200.372006 255.442494 
L 200.372006 255.442494 
L 200.548737 251.306938 
L 200.548737 251.306938 
L 200.725467 251.672942 
L 200.725467 251.672942 
L 200.902198 245.904831 
L 200.902198 245.904831 
L 201.078929 247.589489 
L 201.078929 247.589489 
L 201.609122 240.697175 
L 201.609122 240.697175 
L 201.785852 236.1993 
L 201.785852 236.1993 
L 201.962583 235.844186 
L 201.962583 235.844186 
L 202.139314 230.066582 
L 202.139314 230.066582 
L 202.316045 230.991309 
L 202.316045 230.991309 
L 202.492776 222.786261 
L 202.492776 222.786261 
L 202.669507 225.237159 
L 202.669507 225.237159 
L 202.846237 215.369121 
L 202.846237 215.369121 
L 203.022968 218.498808 
L 203.022968 218.498808 
L 203.199699 215.698603 
L 203.199699 215.698603 
L 203.729892 203.217997 
L 203.729892 203.217997 
L 203.906622 201.097251 
L 203.906622 201.097251 
L 204.083353 194.455231 
L 204.083353 194.455231 
L 204.260084 193.038459 
L 204.260084 193.038459 
L 204.436815 185.479698 
L 204.436815 185.479698 
L 204.613546 184.157471 
L 204.613546 184.157471 
L 204.790277 176.165078 
L 204.790277 176.165078 
L 204.967007 174.90562 
L 204.967007 174.90562 
L 205.143738 167.380589 
L 205.143738 167.380589 
L 205.320469 164.877532 
L 205.320469 164.877532 
L 206.027392 135.662988 
L 206.027392 135.662988 
L 206.204123 137.989521 
L 206.204123 137.989521 
L 206.380854 126.947299 
L 206.380854 126.947299 
L 206.557585 126.461788 
L 206.557585 126.461788 
L 206.911047 115.190492 
L 206.911047 115.190492 
L 207.087778 109.957762 
L 207.087778 109.957762 
L 207.264508 99.007906 
L 207.264508 99.007906 
L 207.441239 98.289915 
L 207.441239 98.289915 
L 207.61797 92.81683 
L 207.61797 92.81683 
L 207.794701 81.235542 
L 207.794701 81.235542 
L 207.971432 82.374265 
L 207.971432 82.374265 
L 208.324893 65.143927 
L 208.324893 65.143927 
L 208.501624 66.323807 
L 208.501624 66.323807 
L 208.855086 53.568 
L 208.855086 53.568 
L 214.863934 53.568 
L 214.863934 53.568 
L 215.040665 57.571205 
L 215.040665 57.571205 
L 215.217396 58.053477 
L 215.217396 58.053477 
L 215.747588 72.191823 
L 215.747588 72.191823 
L 215.924319 78.588686 
L 215.924319 78.588686 
L 216.10105 77.289355 
L 216.10105 77.289355 
L 216.631243 93.104373 
L 216.631243 93.104373 
L 216.807973 92.519794 
L 216.807973 92.519794 
L 217.161435 103.122577 
L 217.161435 103.122577 
L 217.338166 110.204203 
L 217.338166 110.204203 
L 217.514897 108.647206 
L 217.514897 108.647206 
L 217.691628 112.803759 
L 217.691628 112.803759 
L 217.868358 120.05761 
L 217.868358 120.05761 
L 218.045089 120.263005 
L 218.045089 120.263005 
L 218.22182 124.146536 
L 218.22182 124.146536 
L 218.398551 130.62616 
L 218.398551 130.62616 
L 218.575282 132.049354 
L 218.575282 132.049354 
L 218.752013 135.443017 
L 218.752013 135.443017 
L 218.928744 141.207219 
L 218.928744 141.207219 
L 219.105474 142.40173 
L 219.105474 142.40173 
L 219.989129 162.277361 
L 219.989129 162.277361 
L 220.165859 161.83485 
L 220.165859 161.83485 
L 220.519321 168.144652 
L 220.519321 168.144652 
L 220.696052 171.008184 
L 220.696052 171.008184 
L 220.872783 176.481325 
L 220.872783 176.481325 
L 221.049514 176.567772 
L 221.049514 176.567772 
L 221.226244 179.758609 
L 221.226244 179.758609 
L 221.402975 180.58047 
L 221.402975 180.58047 
L 222.109899 190.666134 
L 222.109899 190.666134 
L 222.286629 191.250769 
L 222.286629 191.250769 
L 222.640091 194.097269 
L 222.640091 194.097269 
L 222.816822 195.781368 
L 222.816822 195.781368 
L 222.993553 198.735424 
L 222.993553 198.735424 
L 223.170284 198.359703 
L 223.170284 198.359703 
L 223.347014 200.420026 
L 223.347014 200.420026 
L 223.523745 200.506529 
L 223.523745 200.506529 
L 223.700476 201.833168 
L 223.700476 201.833168 
L 223.877207 202.234243 
L 223.877207 202.234243 
L 224.230669 203.556805 
L 224.230669 203.556805 
L 224.407399 203.898573 
L 224.407399 203.898573 
L 224.58413 204.486782 
L 224.58413 204.486782 
L 224.760861 204.602659 
L 224.760861 204.602659 
L 225.114323 205.071081 
L 225.114323 205.071081 
L 225.291054 205.105035 
L 225.291054 205.105035 
L 225.467784 205.298312 
L 225.467784 205.298312 
L 225.644515 205.159762 
L 225.644515 205.159762 
L 225.821246 205.375768 
L 225.821246 205.375768 
L 225.997977 205.189974 
L 225.997977 205.189974 
L 226.174708 205.40894 
L 226.174708 205.40894 
L 226.351439 205.219516 
L 226.351439 205.219516 
L 226.528169 205.439319 
L 226.528169 205.439319 
L 226.7049 205.214043 
L 226.7049 205.214043 
L 226.881631 205.402909 
L 226.881631 205.402909 
L 227.058362 205.097105 
L 227.058362 205.097105 
L 227.235093 204.390003 
L 227.235093 204.390003 
L 227.411824 204.777731 
L 227.411824 204.777731 
L 227.588554 203.767618 
L 227.588554 203.767618 
L 227.765285 204.161544 
L 227.765285 204.161544 
L 227.942016 202.850206 
L 227.942016 202.850206 
L 228.118747 203.178515 
L 228.118747 203.178515 
L 228.295478 201.598007 
L 228.295478 201.598007 
L 228.472209 201.752138 
L 228.472209 201.752138 
L 228.648939 199.958863 
L 228.648939 199.958863 
L 228.82567 199.80624 
L 228.82567 199.80624 
L 229.002401 197.732459 
L 229.002401 197.732459 
L 229.179132 197.247506 
L 229.179132 197.247506 
L 229.355863 195.194388 
L 229.355863 195.194388 
L 229.532594 189.881241 
L 229.709324 191.562995 
L 229.709324 191.562995 
L 229.886055 185.526328 
L 229.886055 185.526328 
L 230.062786 187.010281 
L 230.062786 187.010281 
L 230.239517 180.893981 
L 230.239517 180.893981 
L 230.416248 181.635036 
L 230.416248 181.635036 
L 230.592979 175.26738 
L 230.592979 175.26738 
L 230.76971 174.882668 
L 230.94644 168.99801 
L 230.94644 168.99801 
L 231.123171 167.023631 
L 231.123171 167.023631 
L 231.299902 162.702002 
L 231.299902 162.702002 
L 231.476633 149.839588 
L 231.476633 149.839588 
L 231.653364 153.065886 
L 231.653364 153.065886 
L 231.830095 141.636495 
L 231.830095 141.636495 
L 232.006825 142.197061 
L 232.006825 142.197061 
L 232.183556 133.347512 
L 232.183556 133.347512 
L 232.360287 130.269705 
L 232.360287 130.269705 
L 232.537018 124.007707 
L 232.537018 124.007707 
L 232.713749 108.182804 
L 232.713749 108.182804 
L 232.89048 109.479175 
L 232.89048 109.479175 
L 233.243941 96.443085 
L 233.243941 96.443085 
L 234.127595 66.262769 
L 234.127595 66.262769 
L 234.304326 64.896201 
L 234.304326 64.896201 
L 234.834519 53.568 
L 234.834519 53.568 
L 241.196829 53.568 
L 241.196829 53.568 
L 241.37356 55.379927 
L 241.37356 55.379927 
L 241.727021 62.594407 
L 241.727021 62.594407 
L 241.903752 66.634972 
L 241.903752 66.634972 
L 242.080483 66.207427 
L 242.080483 66.207427 
L 242.433945 72.061259 
L 242.433945 72.061259 
L 242.610676 76.268352 
L 242.610676 76.268352 
L 242.787406 77.200395 
L 242.787406 77.200395 
L 243.847791 93.419503 
L 243.847791 93.419503 
L 244.024522 97.987574 
L 244.024522 97.987574 
L 244.201253 98.741026 
L 244.201253 98.741026 
L 244.554715 104.786069 
L 244.554715 104.786069 
L 244.731446 109.605384 
L 244.731446 109.605384 
L 244.908176 109.50693 
L 244.908176 109.50693 
L 245.084907 112.024562 
L 245.084907 112.024562 
L 245.261638 116.491331 
L 245.261638 116.491331 
L 245.438369 116.855213 
L 245.438369 116.855213 
L 245.791831 123.107998 
L 245.791831 123.107998 
L 245.968561 127.342398 
L 245.968561 127.342398 
L 246.145292 126.387347 
L 246.145292 126.387347 
L 246.498754 133.072702 
L 246.498754 133.072702 
L 246.675485 132.194438 
L 246.675485 132.194438 
L 247.028946 137.349545 
L 247.028946 137.349545 
L 247.205677 136.936464 
L 247.205677 136.936464 
L 247.559139 140.925093 
L 247.559139 140.925093 
L 247.73587 141.020643 
L 247.73587 141.020643 
L 248.089331 142.591825 
L 248.089331 142.591825 
L 248.972986 145.331438 
L 248.972986 145.331438 
L 249.149716 145.599324 
L 249.149716 145.599324 
L 249.326447 146.103208 
L 249.326447 146.103208 
L 249.503178 145.704646 
L 249.503178 145.704646 
L 249.679909 145.970912 
L 249.679909 145.970912 
L 250.033371 145.701743 
L 250.033371 145.701743 
L 250.210101 145.981076 
L 250.210101 145.981076 
L 250.386832 145.824488 
L 250.386832 145.824488 
L 250.740294 146.359701 
L 250.740294 146.359701 
L 251.093756 145.878378 
L 251.093756 145.878378 
L 251.270486 146.301735 
L 251.270486 146.301735 
L 251.447217 144.746524 
L 251.447217 144.746524 
L 251.623948 145.032894 
L 251.623948 145.032894 
L 251.800679 144.338469 
L 251.800679 144.338469 
L 251.97741 142.767064 
L 251.97741 142.767064 
L 252.154141 143.694919 
L 252.154141 143.694919 
L 252.507602 139.491344 
L 252.507602 139.491344 
L 252.684333 140.405852 
L 252.684333 140.405852 
L 252.861064 138.162862 
L 252.861064 138.162862 
L 253.037795 138.030176 
L 253.214526 136.446597 
L 253.214526 136.446597 
L 253.391256 133.17674 
L 253.391256 133.17674 
L 253.567987 133.365271 
L 253.567987 133.365271 
L 253.744718 131.760136 
L 253.744718 131.760136 
L 253.921449 127.151355 
L 253.921449 127.151355 
L 254.09818 127.76447 
L 254.09818 127.76447 
L 254.274911 125.428276 
L 254.274911 125.428276 
L 254.451642 120.309691 
L 254.451642 120.309691 
L 254.628372 121.216548 
L 254.628372 121.216548 
L 254.981834 112.834474 
L 254.981834 112.834474 
L 255.158565 114.059755 
L 255.158565 114.059755 
L 255.512027 104.610662 
L 255.512027 104.610662 
L 255.688757 106.375568 
L 255.688757 106.375568 
L 256.042219 96.104613 
L 256.042219 96.104613 
L 256.21895 97.954402 
L 256.21895 97.954402 
L 256.572412 87.25378 
L 256.572412 87.25378 
L 256.749142 88.762416 
L 256.749142 88.762416 
L 256.925873 84.829631 
L 256.925873 84.829631 
L 257.102604 77.93916 
L 257.102604 77.93916 
L 257.279335 78.324263 
L 257.279335 78.324263 
L 257.456066 75.011965 
L 257.456066 75.011965 
L 257.632797 68.855847 
L 257.632797 68.855847 
L 257.809527 67.450412 
L 257.809527 67.450412 
L 258.162989 59.352752 
L 258.162989 59.352752 
L 258.33972 53.568 
L 258.33972 53.568 
L 276.189534 53.568 
L 276.189534 53.568 
L 276.366265 60.208456 
L 276.366265 60.208456 
L 276.542996 59.315392 
L 276.542996 59.315392 
L 276.896458 73.992358 
L 276.896458 73.992358 
L 277.073188 85.05541 
L 277.073188 85.05541 
L 277.249919 86.57717 
L 277.249919 86.57717 
L 278.310304 129.518598 
L 278.310304 129.518598 
L 278.487035 143.094424 
L 278.663766 140.639672 
L 278.663766 140.639672 
L 278.840497 148.420917 
L 278.840497 148.420917 
L 279.017228 162.466171 
L 279.017228 162.466171 
L 279.193959 160.308288 
L 279.193959 160.308288 
L 279.54742 172.572218 
L 279.54742 172.572218 
L 279.724151 178.727386 
L 279.724151 178.727386 
L 279.900882 190.959875 
L 279.900882 190.959875 
L 280.077613 189.957413 
L 280.077613 189.957413 
L 280.254344 198.518971 
L 280.254344 198.518971 
L 280.431074 200.672219 
L 280.431074 200.672219 
L 280.607805 206.087449 
L 280.607805 206.087449 
L 280.784536 219.619828 
L 280.784536 219.619828 
L 280.961267 215.417371 
L 280.961267 215.417371 
L 281.137998 227.192104 
L 281.137998 227.192104 
L 281.314729 223.825804 
L 281.314729 223.825804 
L 281.491459 234.164778 
L 281.491459 234.164778 
L 281.66819 232.153207 
L 281.66819 232.153207 
L 281.844921 241.595041 
L 281.844921 241.595041 
L 282.021652 239.175583 
L 282.021652 239.175583 
L 282.198383 248.130397 
L 282.198383 248.130397 
L 282.375114 246.244086 
L 282.375114 246.244086 
L 282.551844 254.916105 
L 282.551844 254.916105 
L 282.728575 251.933735 
L 282.728575 251.933735 
L 282.905306 254.520168 
L 282.905306 254.520168 
L 283.082037 259.045462 
L 283.082037 259.045462 
L 283.258768 260.275044 
L 283.258768 260.275044 
L 283.435499 264.850932 
L 283.435499 264.850932 
L 283.612229 264.697807 
L 283.612229 264.697807 
L 283.78896 270.877826 
L 283.78896 270.877826 
L 283.965691 269.69722 
L 283.965691 269.69722 
L 284.142422 271.46866 
L 284.142422 271.46866 
L 284.319153 274.70272 
L 284.319153 274.70272 
L 284.495884 275.707975 
L 284.495884 275.707975 
L 284.672614 279.354836 
L 284.672614 279.354836 
L 284.849345 279.257444 
L 285.026076 284.069052 
L 285.026076 284.069052 
L 285.202807 282.586104 
L 285.202807 282.586104 
L 285.379538 284.033032 
L 285.379538 284.033032 
L 285.556269 286.587969 
L 285.732999 286.784541 
L 285.732999 286.784541 
L 285.90973 289.457532 
L 285.90973 289.457532 
L 286.086461 289.072653 
L 286.086461 289.072653 
L 286.263192 289.858942 
L 286.263192 289.858942 
L 286.439923 291.616588 
L 286.439923 291.616588 
L 286.616654 291.971982 
L 286.616654 291.971982 
L 286.793384 293.548078 
L 286.793384 293.548078 
L 286.970115 293.235405 
L 286.970115 293.235405 
L 287.323577 294.438963 
L 287.323577 294.438963 
L 287.500308 294.657036 
L 287.500308 294.657036 
L 287.677039 295.078661 
L 287.677039 295.078661 
L 287.853769 295.056044 
L 287.853769 295.056044 
L 288.0305 295.35939 
L 288.0305 295.35939 
L 288.207231 295.265516 
L 288.207231 295.265516 
L 288.383962 295.406411 
L 288.383962 295.406411 
L 288.560693 295.22542 
L 288.560693 295.22542 
L 288.914155 295.488 
L 288.914155 295.488 
L 289.090885 295.277411 
L 289.090885 295.277411 
L 289.267616 295.410153 
L 289.267616 295.410153 
L 289.444347 295.104237 
L 289.444347 295.104237 
L 289.797809 295.394126 
L 289.797809 295.394126 
L 289.97454 294.843277 
L 289.97454 294.843277 
L 290.15127 295.039625 
L 290.15127 295.039625 
L 290.504732 294.260931 
L 290.504732 294.260931 
L 290.681463 294.249036 
L 290.681463 294.249036 
L 290.858194 292.671433 
L 290.858194 292.671433 
L 291.034925 293.089539 
L 291.034925 293.089539 
L 291.565117 290.915853 
L 291.565117 290.915853 
L 291.741848 288.094036 
L 291.741848 288.094036 
L 291.918579 288.741049 
L 291.918579 288.741049 
L 292.09531 287.848935 
L 292.09531 287.848935 
L 292.27204 285.624095 
L 292.27204 285.624095 
L 292.448771 285.166841 
L 292.448771 285.166841 
L 292.625502 281.677293 
L 292.625502 281.677293 
L 292.802233 282.125053 
L 292.802233 282.125053 
L 292.978964 276.635215 
L 292.978964 276.635215 
L 293.155695 278.463951 
L 293.155695 278.463951 
L 293.332425 277.30652 
L 293.332425 277.30652 
L 293.509156 273.530825 
L 293.685887 273.9362 
L 293.685887 273.9362 
L 293.862618 267.440883 
L 294.039349 269.416769 
L 294.039349 269.416769 
L 294.21608 268.111686 
L 294.21608 268.111686 
L 294.39281 263.644694 
L 294.39281 263.644694 
L 294.569541 264.408924 
L 294.569541 264.408924 
L 294.746272 256.494379 
L 294.746272 256.494379 
L 294.923003 259.001345 
L 294.923003 259.001345 
L 295.099734 257.473554 
L 295.099734 257.473554 
L 295.276465 252.413494 
L 295.276465 252.413494 
L 295.453195 253.082733 
L 295.453195 253.082733 
L 295.629926 244.323988 
L 295.629926 244.323988 
L 295.806657 247.289493 
L 295.806657 247.289493 
L 295.983388 244.531506 
L 295.983388 244.531506 
L 296.160119 239.99979 
L 296.160119 239.99979 
L 296.33685 239.197641 
L 296.33685 239.197641 
L 296.51358 231.511388 
L 296.51358 231.511388 
L 296.690311 232.754819 
L 296.690311 232.754819 
L 296.867042 223.584556 
L 296.867042 223.584556 
L 297.043773 226.788963 
L 297.043773 226.788963 
L 298.104158 204.008195 
L 298.104158 204.008195 
L 298.280889 203.897009 
L 298.280889 203.897009 
L 298.45762 196.993303 
L 298.63435 197.313961 
L 298.63435 197.313961 
L 298.811081 191.03655 
L 298.811081 191.03655 
L 298.987812 191.506369 
L 298.987812 191.506369 
L 299.164543 185.792985 
L 299.164543 185.792985 
L 299.341274 186.186856 
L 299.341274 186.186856 
L 299.518005 181.23882 
L 299.518005 181.23882 
L 299.694735 181.38005 
L 299.694735 181.38005 
L 299.871466 177.122307 
L 299.871466 177.122307 
L 300.048197 177.033458 
L 300.048197 177.033458 
L 300.224928 173.620082 
L 300.224928 173.620082 
L 300.401659 172.841053 
L 300.401659 172.841053 
L 300.755121 168.881853 
L 300.755121 168.881853 
L 300.931851 166.450556 
L 300.931851 166.450556 
L 301.108582 160.994448 
L 301.108582 160.994448 
L 301.285313 162.208338 
L 301.285313 162.208338 
L 301.462044 157.138728 
L 301.462044 157.138728 
L 301.638775 157.281802 
L 301.638775 157.281802 
L 301.992236 151.395357 
L 301.992236 151.395357 
L 302.168967 148.32291 
L 302.168967 148.32291 
L 302.345698 139.382224 
L 302.345698 139.382224 
L 302.522429 140.818263 
L 302.522429 140.818263 
L 302.69916 136.241983 
L 302.69916 136.241983 
L 302.875891 137.506746 
L 302.875891 137.506746 
L 303.052621 142.138201 
L 303.052621 142.138201 
L 303.229352 156.116553 
L 303.229352 156.116553 
L 303.406083 153.940074 
L 303.406083 153.940074 
L 303.582814 165.520803 
L 303.582814 165.520803 
L 303.759545 167.593468 
L 303.759545 167.593468 
L 303.936276 173.971734 
L 304.113006 186.425646 
L 304.113006 186.425646 
L 304.289737 184.136027 
L 304.289737 184.136027 
L 304.466468 192.167678 
L 304.466468 192.167678 
L 304.643199 192.811787 
L 304.643199 192.811787 
L 304.996661 201.359831 
L 304.996661 201.359831 
L 305.173391 204.879312 
L 305.350122 213.91538 
L 305.350122 213.91538 
L 305.526853 211.521108 
L 305.526853 211.521108 
L 305.703584 218.414148 
L 305.703584 218.414148 
L 305.880315 217.526446 
L 305.880315 217.526446 
L 306.057046 222.998637 
L 306.057046 222.998637 
L 306.233776 222.915485 
L 306.233776 222.915485 
L 306.410507 227.472945 
L 306.410507 227.472945 
L 306.587238 227.757975 
L 306.587238 227.757975 
L 306.763969 231.864771 
L 306.763969 231.864771 
L 306.9407 232.117913 
L 306.9407 232.117913 
L 307.117431 236.218734 
L 307.117431 236.218734 
L 307.294161 236.048409 
L 307.294161 236.048409 
L 307.470892 239.30369 
L 307.647623 239.703759 
L 307.647623 239.703759 
L 307.824354 243.044538 
L 308.001085 243.201125 
L 308.001085 243.201125 
L 308.177816 246.125026 
L 308.177816 246.125026 
L 308.354546 246.432281 
L 308.354546 246.432281 
L 308.531277 248.986101 
L 308.531277 248.986101 
L 308.708008 248.72514 
L 308.708008 248.72514 
L 308.884739 251.606375 
L 308.884739 251.606375 
L 309.06147 251.194076 
L 309.06147 251.194076 
L 309.238201 253.267243 
L 309.238201 253.267243 
L 309.414931 252.74521 
L 309.414931 252.74521 
L 309.945124 255.519838 
L 309.945124 255.519838 
L 310.121855 257.010772 
L 310.121855 257.010772 
L 310.298586 257.288653 
L 310.298586 257.288653 
L 310.475316 257.933265 
L 310.475316 257.933265 
L 310.652047 257.940469 
L 310.652047 257.940469 
L 310.828778 259.387397 
L 310.828778 259.387397 
L 311.18224 259.620212 
L 311.18224 259.620212 
L 311.358971 260.356856 
L 311.358971 260.356856 
L 311.535701 259.932829 
L 311.535701 259.932829 
L 311.712432 260.736151 
L 311.712432 260.736151 
L 311.889163 260.728109 
L 311.889163 260.728109 
L 312.596087 261.670148 
L 312.596087 261.670148 
L 312.772817 261.256174 
L 312.772817 261.256174 
L 312.949548 261.698014 
L 312.949548 261.698014 
L 313.126279 261.597941 
L 313.479741 261.742857 
L 313.479741 261.742857 
L 313.656472 261.197146 
L 313.656472 261.197146 
L 313.833202 261.479886 
L 313.833202 261.479886 
L 314.009933 261.290853 
L 314.009933 261.290853 
L 314.186664 261.673834 
L 314.186664 261.673834 
L 314.540126 261.449283 
L 314.540126 261.449283 
L 314.716857 260.743857 
L 314.716857 260.743857 
L 314.893587 260.627589 
L 314.893587 260.627589 
L 315.070318 260.793391 
L 315.070318 260.793391 
L 315.247049 259.929311 
L 315.247049 259.929311 
L 315.42378 260.550636 
L 315.42378 260.550636 
L 315.600511 258.236779 
L 315.600511 258.236779 
L 315.777242 259.599885 
L 315.777242 259.599885 
L 316.130703 257.800076 
L 316.130703 257.800076 
L 316.307434 257.888925 
L 316.307434 257.888925 
L 316.484165 255.116083 
L 316.484165 255.116083 
L 316.660896 255.816204 
L 316.660896 255.816204 
L 316.837627 252.797145 
L 316.837627 252.797145 
L 317.014357 254.425958 
L 317.014357 254.425958 
L 317.54455 251.362224 
L 317.54455 251.362224 
L 317.721281 247.938572 
L 317.721281 247.938572 
L 317.898012 248.194898 
L 317.898012 248.194898 
L 318.074742 244.745111 
L 318.074742 244.745111 
L 318.251473 245.714458 
L 318.251473 245.714458 
L 318.428204 240.105224 
L 318.428204 240.105224 
L 318.604935 242.086751 
L 318.604935 242.086751 
L 319.135127 237.374322 
L 319.135127 237.374322 
L 319.311858 233.780568 
L 319.311858 233.780568 
L 319.488589 233.351851 
L 319.66532 228.985658 
L 319.66532 228.985658 
L 319.842051 229.517966 
L 319.842051 229.517966 
L 320.018782 224.292607 
L 320.018782 224.292607 
L 320.195512 225.873897 
L 320.195512 225.873897 
L 320.372243 219.524111 
L 320.372243 219.524111 
L 320.548974 221.66323 
L 320.548974 221.66323 
L 320.725705 214.697034 
L 320.725705 214.697034 
L 320.902436 217.28436 
L 320.902436 217.28436 
L 323.023206 187.89871 
L 323.023206 187.89871 
L 323.199937 180.277626 
L 323.199937 180.277626 
L 323.376667 182.595447 
L 323.376667 182.595447 
L 323.553398 175.320264 
L 323.553398 175.320264 
L 323.730129 176.781042 
L 323.730129 176.781042 
L 323.90686 170.581533 
L 323.90686 170.581533 
L 324.083591 171.383235 
L 324.083591 171.383235 
L 324.260322 165.441281 
L 324.260322 165.441281 
L 324.437053 165.21969 
L 324.613783 159.926704 
L 324.613783 159.926704 
L 324.790514 158.342343 
L 324.790514 158.342343 
L 324.967245 155.072877 
L 324.967245 155.072877 
L 325.143976 145.278665 
L 325.143976 145.278665 
L 325.320707 147.836562 
L 325.320707 147.836562 
L 325.497438 139.636986 
L 325.497438 139.636986 
L 325.674168 139.707741 
L 325.674168 139.707741 
L 326.02763 131.349177 
L 326.02763 131.349177 
L 326.204361 126.843261 
L 326.204361 126.843261 
L 326.381092 117.506862 
L 326.381092 117.506862 
L 326.557823 117.660769 
L 326.557823 117.660769 
L 326.734553 113.217901 
L 326.734553 113.217901 
L 326.911284 117.383166 
L 326.911284 117.383166 
L 327.088015 115.861128 
L 327.088015 115.861128 
L 327.264746 123.957726 
L 327.264746 123.957726 
L 327.441477 125.936292 
L 327.441477 125.936292 
L 327.618208 131.005287 
L 327.618208 131.005287 
L 327.794938 139.352236 
L 327.794938 139.352236 
L 327.971669 140.607394 
L 327.971669 140.607394 
L 328.1484 145.13509 
L 328.1484 145.13509 
L 328.325131 153.463721 
L 328.325131 153.463721 
L 328.501862 153.440546 
L 328.501862 153.440546 
L 328.855323 166.056407 
L 328.855323 166.056407 
L 329.032054 164.69453 
L 329.032054 164.69453 
L 329.208785 170.322136 
L 329.208785 170.322136 
L 329.385516 171.574781 
L 329.385516 171.574781 
L 329.562247 175.061984 
L 329.562247 175.061984 
L 329.738978 181.604936 
L 329.738978 181.604936 
L 329.915708 180.749065 
L 330.092439 185.274414 
L 330.092439 185.274414 
L 330.26917 185.969509 
L 330.26917 185.969509 
L 330.445901 188.775299 
L 330.445901 188.775299 
L 330.622632 194.190808 
L 330.622632 194.190808 
L 330.799363 192.6017 
L 330.976093 196.688783 
L 330.976093 196.688783 
L 331.152824 196.571566 
L 331.152824 196.571566 
L 331.329555 199.805347 
L 331.329555 199.805347 
L 331.506286 200.041066 
L 331.506286 200.041066 
L 331.683017 202.225754 
L 331.683017 202.225754 
L 331.859748 203.006235 
L 331.859748 203.006235 
L 332.566671 208.170445 
L 332.566671 208.170445 
L 332.743402 207.878825 
L 332.743402 207.878825 
L 332.920133 209.056248 
L 332.920133 209.056248 
L 333.096863 209.062726 
L 333.096863 209.062726 
L 333.273594 209.650377 
L 333.273594 209.650377 
L 333.803787 210.222112 
L 333.803787 210.222112 
L 333.980518 210.154596 
L 333.980518 210.154596 
L 334.157248 210.378979 
L 334.157248 210.378979 
L 334.333979 210.202734 
L 334.333979 210.202734 
L 334.51071 210.416562 
L 334.51071 210.416562 
L 334.687441 210.225853 
L 334.687441 210.225853 
L 334.864172 210.440128 
L 334.864172 210.440128 
L 335.040903 210.428959 
L 335.040903 210.428959 
L 335.217633 210.716446 
L 335.217633 210.716446 
L 335.571095 209.51138 
L 335.571095 209.51138 
L 335.747826 209.865769 
L 335.747826 209.865769 
L 335.924557 208.907032 
L 335.924557 208.907032 
L 336.101288 209.281022 
L 336.101288 209.281022 
L 336.278019 207.970466 
L 336.454749 208.315808 
L 336.454749 208.315808 
L 336.63148 206.619199 
L 336.63148 206.619199 
L 336.808211 206.882562 
L 336.984942 204.864904 
L 336.984942 204.864904 
L 337.161673 204.888303 
L 337.161673 204.888303 
L 337.338404 202.547027 
L 337.338404 202.547027 
L 337.515134 202.21989 
L 337.515134 202.21989 
L 337.691865 199.478881 
L 337.691865 199.478881 
L 337.868596 198.548346 
L 337.868596 198.548346 
L 338.398789 191.120316 
L 338.398789 191.120316 
L 338.575519 183.086711 
L 338.575519 183.086711 
L 338.75225 185.378397 
L 338.75225 185.378397 
L 338.928981 176.640984 
L 338.928981 176.640984 
L 339.105712 177.958688 
L 339.105712 177.958688 
L 339.282443 168.886935 
L 339.282443 168.886935 
L 339.459174 168.923457 
L 339.459174 168.923457 
L 339.635904 159.559862 
L 339.635904 159.559862 
L 339.812635 158.015206 
L 339.812635 158.015206 
L 339.989366 154.447252 
L 339.989366 154.447252 
L 340.166097 156.398399 
L 340.166097 156.398399 
L 340.87302 177.165754 
L 340.87302 177.165754 
L 341.049751 177.828068 
L 341.049751 177.828068 
L 341.403213 184.534197 
L 341.403213 184.534197 
L 341.579944 184.636169 
L 341.579944 184.636169 
L 341.756674 186.470657 
L 341.933405 186.630484 
L 342.110136 187.797743 
L 342.110136 187.797743 
L 342.286867 187.76781 
L 342.286867 187.76781 
L 342.463598 188.203061 
L 342.463598 188.203061 
L 342.640329 187.742569 
L 342.640329 187.742569 
L 342.817059 188.351496 
L 342.817059 188.351496 
L 342.99379 188.196304 
L 342.99379 188.196304 
L 343.170521 188.413483 
L 343.170521 188.413483 
L 343.347252 188.264769 
L 343.347252 188.264769 
L 343.523983 188.421469 
L 343.523983 188.421469 
L 343.700714 187.945731 
L 343.700714 187.945731 
L 343.877444 186.166584 
L 343.877444 186.166584 
L 344.054175 187.215398 
L 344.054175 187.215398 
L 344.230906 185.087671 
L 344.230906 185.087671 
L 344.407637 185.305966 
L 344.407637 185.305966 
L 344.584368 182.714284 
L 344.584368 182.714284 
L 344.761099 181.903536 
L 344.761099 181.903536 
L 344.937829 179.570916 
L 344.937829 179.570916 
L 345.11456 171.817369 
L 345.11456 171.817369 
L 345.291291 174.05282 
L 345.291291 174.05282 
L 345.468022 166.604743 
L 345.468022 166.604743 
L 345.644753 166.594132 
L 345.644753 166.594132 
L 345.998214 157.18547 
L 345.998214 157.18547 
L 346.351676 148.652616 
L 346.351676 148.652616 
L 346.528407 146.275041 
L 346.528407 146.275041 
L 346.705138 157.380367 
L 346.705138 157.380367 
L 346.881869 157.818522 
L 347.23533 167.171954 
L 347.23533 167.171954 
L 347.942254 179.525458 
L 347.942254 179.525458 
L 348.118985 182.539882 
L 348.118985 182.539882 
L 348.295715 182.739861 
L 348.295715 182.739861 
L 348.472446 184.444232 
L 348.825908 185.421229 
L 348.825908 185.421229 
L 349.002639 186.103815 
L 349.002639 186.103815 
L 349.3561 186.354333 
L 349.3561 186.354333 
L 349.532831 186.582625 
L 349.532831 186.582625 
L 349.886293 186.271516 
L 349.886293 186.271516 
L 350.063024 186.504666 
L 350.063024 186.504666 
L 350.239755 185.891551 
L 350.239755 185.891551 
L 350.416485 186.553586 
L 350.416485 186.553586 
L 350.593216 185.88228 
L 350.593216 185.88228 
L 350.769947 186.548057 
L 350.769947 186.548057 
L 351.123409 185.956833 
L 351.123409 185.956833 
L 351.30014 185.970794 
L 351.30014 185.970794 
L 351.47687 185.048356 
L 351.47687 185.048356 
L 351.653601 185.544534 
L 351.653601 185.544534 
L 351.830332 184.524089 
L 351.830332 184.524089 
L 352.007063 184.892104 
L 352.007063 184.892104 
L 352.183794 183.915274 
L 352.183794 183.915274 
L 352.360525 183.67168 
L 352.360525 183.67168 
L 352.537255 183.224311 
L 352.537255 183.224311 
L 352.713986 183.175782 
L 352.713986 183.175782 
L 352.890717 182.48024 
L 352.890717 182.48024 
L 353.067448 180.483692 
L 353.067448 180.483692 
L 353.244179 181.456501 
L 353.244179 181.456501 
L 353.42091 180.050731 
L 353.42091 180.050731 
L 353.59764 180.345868 
L 353.59764 180.345868 
L 353.951102 178.706054 
L 353.951102 178.706054 
L 354.127833 178.15956 
L 354.127833 178.15956 
L 354.304564 176.086896 
L 354.304564 176.086896 
L 354.481295 176.891055 
L 354.481295 176.891055 
L 354.658025 174.920307 
L 354.658025 174.920307 
L 354.834756 175.354385 
L 354.834756 175.354385 
L 355.011487 173.674251 
L 355.011487 173.674251 
L 355.188218 173.19371 
L 355.364949 172.31014 
L 355.364949 172.31014 
L 355.54168 169.006666 
L 355.54168 169.006666 
L 355.71841 170.535629 
L 355.71841 170.535629 
L 355.895141 167.752624 
L 355.895141 167.752624 
L 356.071872 168.225403 
L 356.071872 168.225403 
L 356.248603 166.13766 
L 356.248603 166.13766 
L 356.425334 165.778302 
L 356.425334 165.778302 
L 356.602065 164.324784 
L 356.602065 164.324784 
L 356.778795 160.554171 
L 356.778795 160.554171 
L 356.955526 161.693732 
L 356.955526 161.693732 
L 357.132257 158.687293 
L 357.132257 158.687293 
L 357.308988 158.761399 
L 357.308988 158.761399 
L 357.485719 156.740614 
L 357.485719 156.740614 
L 357.66245 152.662578 
L 357.66245 152.662578 
L 357.83918 154.19277 
L 357.83918 154.19277 
L 358.015911 150.727793 
L 358.015911 150.727793 
L 358.192642 150.990373 
L 358.192642 150.990373 
L 358.546104 147.602797 
L 358.546104 147.602797 
L 358.722835 146.279676 
L 358.722835 146.279676 
L 358.899565 142.874397 
L 358.899565 142.874397 
L 359.076296 143.029477 
L 359.076296 143.029477 
L 359.253027 141.12362 
L 359.253027 141.12362 
L 359.429758 137.823105 
L 359.429758 137.823105 
L 359.606489 139.098032 
L 359.606489 139.098032 
L 359.78322 136.73252 
L 359.78322 136.73252 
L 360.136681 135.137939 
L 360.136681 135.137939 
L 360.313412 132.215714 
L 360.313412 132.215714 
L 360.490143 132.512304 
L 360.490143 132.512304 
L 360.843605 128.985954 
L 360.843605 128.985954 
L 361.020336 129.524964 
L 361.020336 129.524964 
L 361.197066 128.611853 
L 361.197066 128.611853 
L 361.373797 126.473571 
L 361.373797 126.473571 
L 361.550528 127.563095 
L 361.550528 127.563095 
L 361.727259 125.892175 
L 361.727259 125.892175 
L 361.90399 125.920153 
L 361.90399 125.920153 
L 362.257451 123.933545 
L 362.434182 124.065003 
L 362.610913 123.724966 
L 362.610913 123.724966 
L 362.787644 121.90712 
L 362.787644 121.90712 
L 362.964375 122.067673 
L 363.141106 121.565129 
L 363.141106 121.565129 
L 363.317836 119.358438 
L 363.317836 119.358438 
L 363.494567 119.514356 
L 363.671298 118.727676 
L 363.671298 118.727676 
L 363.848029 115.938751 
L 363.848029 115.938751 
L 364.02476 116.04977 
L 364.02476 116.04977 
L 364.201491 114.435253 
L 364.201491 114.435253 
L 364.378221 111.36599 
L 364.378221 111.36599 
L 364.554952 111.374534 
L 364.554952 111.374534 
L 364.731683 109.170412 
L 364.731683 109.170412 
L 364.908414 105.470051 
L 364.908414 105.470051 
L 365.085145 104.964492 
L 365.085145 104.964492 
L 365.261876 102.603168 
L 365.261876 102.603168 
L 365.438606 98.117859 
L 365.438606 98.117859 
L 365.615337 97.354689 
L 365.615337 97.354689 
L 365.968799 89.075927 
L 365.968799 89.075927 
L 366.14553 81.822132 
L 366.14553 81.822132 
L 366.322261 83.867712 
L 366.322261 83.867712 
L 366.498991 78.923082 
L 366.498991 78.923082 
L 366.675722 70.35203 
L 366.675722 70.35203 
L 366.852453 70.525203 
L 366.852453 70.525203 
L 367.029184 66.315263 
L 367.029184 66.315263 
L 367.382646 53.568 
L 367.382646 53.568 
L 396.013041 53.568 
L 396.013041 53.568 
L 396.189772 53.696219 
L 396.189772 53.696219 
L 396.543234 53.568 
L 396.543234 53.568 
L 397.073426 53.568 
L 397.073426 53.568 
L 397.250157 53.976558 
L 397.250157 53.976558 
L 397.426888 53.568 
L 397.426888 53.568 
L 398.133811 53.568 
L 398.133811 53.568 
L 398.310542 53.887765 
L 398.310542 53.887765 
L 398.487273 53.568 
L 398.487273 53.568 
" clip-path="url(#pcb6531a7c9)" style="fill: none; stroke: #ff7f0e; stroke-width: 1.5; stroke-linecap: square"/>
   </g>
   <g id="patch_3">
    <path d="M 57.6 307.584 
L 57.6 41.472 
" style="fill: none; stroke: #000000; stroke-width: 0.8; stroke-linejoin: miter; stroke-linecap: square"/>
   </g>
   <g id="patch_4">
    <path d="M 414.72 307.584 
L 414.72 41.472 
" style="fill: none; stroke: #000000; stroke-width: 0.8; stroke-linejoin: miter; stroke-linecap: square"/>
   </g>
   <g id="patch_5">
    <path d="M 57.6 307.584 
L 414.72 307.584 
" style="fill: none; stroke: #000000; stroke-width: 0.8; stroke-linejoin: miter; stroke-linecap: square"/>
   </g>
   <g id="patch_6">
    <path d="M 57.6 41.472 
L 414.72 41.472 
" style="fill: none; stroke: #000000; stroke-width: 0.8; stroke-linejoin: miter; stroke-linecap: square"/>
   </g>
   <g id="text_16">
    <!-- Actual speed vs Expected speed -->
    <g transform="translate(138.808125 35.472) scale(0.12 -0.12)">
     <defs>
      <path id="DejaVuSans-41" d="M 2188 4044 
L 1331 1722 
L 3047 1722 
L 2188 4044 
z
M 1831 4666 
L 2547 4666 
L 4325 0 
L 3669 0 
L 3244 1197 
L 1141 1197 
L 716 0 
L 50 0 
L 1831 4666 
z
" transform="scale(0.015625)"/>
      <path id="DejaVuSans-75" d="M 544 1381 
L 544 3500 
L 1119 3500 
L 1119 1403 
Q 1119 906 1312 657 
Q 1506 409 1894 409 
Q 2359 409 2629 706 
Q 2900 1003 2900 1516 
L 2900 3500 
L 3475 3500 
L 3475 0 
L 2900 0 
L 2900 538 
Q 2691 219 2414 64 
Q 2138 -91 1772 -91 
Q 1169 -91 856 284 
Q 544 659 544 1381 
z
M 1991 3584 
L 1991 3584 
z
" transform="scale(0.015625)"/>
      <path id="DejaVuSans-61" d="M 2194 1759 
Q 1497 1759 1228 1600 
Q 959 1441 959 1056 
Q 959 750 1161 570 
Q 1363 391 1709 391 
Q 2188 391 2477 730 
Q 2766 1069 2766 1631 
L 2766 1759 
L 2194 1759 
z
M 3341 1997 
L 3341 0 
L 2766 0 
L 2766 531 
Q 2569 213 2275 61 
Q 1981 -91 1556 -91 
Q 1019 -91 701 211 
Q 384 513 384 1019 
Q 384 1609 779 1909 
Q 1175 2209 1959 2209 
L 2766 2209 
L 2766 2266 
Q 2766 2663 2505 2880 
Q 2244 3097 1772 3097 
Q 1472 3097 1187 3025 
Q 903 2953 641 2809 
L 641 3341 
Q 956 3463 1253 3523 
Q 1550 3584 1831 3584 
Q 2591 3584 2966 3190 
Q 3341 2797 3341 1997 
z
" transform="scale(0.015625)"/>
      <path id="DejaVuSans-20" transform="scale(0.015625)"/>
      <path id="DejaVuSans-70" d="M 1159 525 
L 1159 -1331 
L 581 -1331 
L 581 3500 
L 1159 3500 
L 1159 2969 
Q 1341 3281 1617 3432 
Q 1894 3584 2278 3584 
Q 2916 3584 3314 3078 
Q 3713 2572 3713 1747 
Q 3713 922 3314 415 
Q 2916 -91 2278 -91 
Q 1894 -91 1617 61 
Q 1341 213 1159 525 
z
M 3116 1747 
Q 3116 2381 2855 2742 
Q 2594 3103 2138 3103 
Q 1681 3103 1420 2742 
Q 1159 2381 1159 1747 
Q 1159 1113 1420 752 
Q 1681 391 2138 391 
Q 2594 391 2855 752 
Q 3116 1113 3116 1747 
z
" transform="scale(0.015625)"/>
      <path id="DejaVuSans-64" d="M 2906 2969 
L 2906 4863 
L 3481 4863 
L 3481 0 
L 2906 0 
L 2906 525 
Q 2725 213 2448 61 
Q 2172 -91 1784 -91 
Q 1150 -91 751 415 
Q 353 922 353 1747 
Q 353 2572 751 3078 
Q 1150 3584 1784 3584 
Q 2172 3584 2448 3432 
Q 2725 3281 2906 2969 
z
M 947 1747 
Q 947 1113 1208 752 
Q 1469 391 1925 391 
Q 2381 391 2643 752 
Q 2906 1113 2906 1747 
Q 2906 2381 2643 2742 
Q 2381 3103 1925 3103 
Q 1469 3103 1208 2742 
Q 947 2381 947 1747 
z
" transform="scale(0.015625)"/>
      <path id="DejaVuSans-76" d="M 191 3500 
L 800 3500 
L 1894 563 
L 2988 3500 
L 3597 3500 
L 2284 0 
L 1503 0 
L 191 3500 
z
" transform="scale(0.015625)"/>
      <path id="DejaVuSans-45" d="M 628 4666 
L 3578 4666 
L 3578 4134 
L 1259 4134 
L 1259 2753 
L 3481 2753 
L 3481 2222 
L 1259 2222 
L 1259 531 
L 3634 531 
L 3634 0 
L 628 0 
L 628 4666 
z
" transform="scale(0.015625)"/>
      <path id="DejaVuSans-78" d="M 3513 3500 
L 2247 1797 
L 3578 0 
L 2900 0 
L 1881 1375 
L 863 0 
L 184 0 
L 1544 1831 
L 300 3500 
L 978 3500 
L 1906 2253 
L 2834 3500 
L 3513 3500 
z
" transform="scale(0.015625)"/>
     </defs>
     <use xlink:href="#DejaVuSans-41"/>
     <use xlink:href="#DejaVuSans-63" x="66.658203"/>
     <use xlink:href="#DejaVuSans-74" x="121.638672"/>
     <use xlink:href="#DejaVuSans-75" x="160.847656"/>
     <use xlink:href="#DejaVuSans-61" x="224.226562"/>
     <use xlink:href="#DejaVuSans-6c" x="285.505859"/>
     <use xlink:href="#DejaVuSans-20" x="313.289062"/>
     <use xlink:href="#DejaVuSans-73" x="345.076172"/>
     <use xlink:href="#DejaVuSans-70" x="397.175781"/>
     <use xlink:href="#DejaVuSans-65" x="460.652344"/>
     <use xlink:href="#DejaVuSans-65" x="522.175781"/>
     <use xlink:href="#DejaVuSans-64" x="583.699219"/>
     <use xlink:href="#DejaVuSans-20" x="647.175781"/>
     <use xlink:href="#DejaVuSans-76" x="678.962891"/>
     <use xlink:href="#DejaVuSans-73" x="738.142578"/>
     <use xlink:href="#DejaVuSans-20" x="790.242188"/>
     <use xlink:href="#DejaVuSans-45" x="822.029297"/>
     <use xlink:href="#DejaVuSans-78" x="885.212891"/>
     <use xlink:href="#DejaVuSans-70" x="944.392578"/>
     <use xlink:href="#DejaVuSans-65" x="1007.869141"/>
     <use xlink:href="#DejaVuSans-63" x="1069.392578"/>
     <use xlink:href="#DejaVuSans-74" x="1124.373047"/>
     <use xlink:href="#DejaVuSans-65" x="1163.582031"/>
     <use xlink:href="#DejaVuSans-64" x="1225.105469"/>
     <use xlink:href="#DejaVuSans-20" x="1288.582031"/>
     <use xlink:href="#DejaVuSans-73" x="1320.369141"/>
     <use xlink:href="#DejaVuSans-70" x="1372.46875"/>
     <use xlink:href="#DejaVuSans-65" x="1435.945312"/>
     <use xlink:href="#DejaVuSans-65" x="1497.46875"/>
     <use xlink:href="#DejaVuSans-64" x="1558.992188"/>
    </g>
   </g>
   <g id="legend_1">
    <g id="patch_7">
     <path d="M 64.6 302.584 
L 176.65 302.584 
Q 178.65 302.584 178.65 300.584 
L 178.65 272.22775 
Q 178.65 270.22775 176.65 270.22775 
L 64.6 270.22775 
Q 62.6 270.22775 62.6 272.22775 
L 62.6 300.584 
Q 62.6 302.584 64.6 302.584 
z
" style="fill: #ffffff; opacity: 0.8; stroke: #cccccc; stroke-linejoin: miter"/>
    </g>
    <g id="line2d_29">
     <path d="M 66.6 278.326187 
L 76.6 278.326187 
L 86.6 278.326187 
" style="fill: none; stroke: #1f77b4; stroke-width: 1.5; stroke-linecap: square"/>
    </g>
    <g id="text_17">
     <!-- Actual speed -->
     <g transform="translate(94.6 281.826187) scale(0.1 -0.1)">
      <use xlink:href="#DejaVuSans-41"/>
      <use xlink:href="#DejaVuSans-63" x="66.658203"/>
      <use xlink:href="#DejaVuSans-74" x="121.638672"/>
      <use xlink:href="#DejaVuSans-75" x="160.847656"/>
      <use xlink:href="#DejaVuSans-61" x="224.226562"/>
      <use xlink:href="#DejaVuSans-6c" x="285.505859"/>
      <use xlink:href="#DejaVuSans-20" x="313.289062"/>
      <use xlink:href="#DejaVuSans-73" x="345.076172"/>
      <use xlink:href="#DejaVuSans-70" x="397.175781"/>
      <use xlink:href="#DejaVuSans-65" x="460.652344"/>
      <use xlink:href="#DejaVuSans-65" x="522.175781"/>
      <use xlink:href="#DejaVuSans-64" x="583.699219"/>
     </g>
    </g>
    <g id="line2d_30">
     <path d="M 66.6 293.004312 
L 76.6 293.004312 
L 86.6 293.004312 
" style="fill: none; stroke: #ff7f0e; stroke-width: 1.5; stroke-linecap: square"/>
    </g>
    <g id="text_18">
     <!-- Expected speed -->
     <g transform="translate(94.6 296.504312) scale(0.1 -0.1)">
      <use xlink:href="#DejaVuSans-45"/>
      <use xlink:href="#DejaVuSans-78" x="63.183594"/>
      <use xlink:href="#DejaVuSans-70" x="122.363281"/>
      <use xlink:href="#DejaVuSans-65" x="185.839844"/>
      <use xlink:href="#DejaVuSans-63" x="247.363281"/>
      <use xlink:href="#DejaVuSans-74" x="302.34375"/>
      <use xlink:href="#DejaVuSans-65" x="341.552734"/>
      <use xlink:href="#DejaVuSans-64" x="403.076172"/>
      <use xlink:href="#DejaVuSans-20" x="466.552734"/>
      <use xlink:href="#DejaVuSans-73" x="498.339844"/>
      <use xlink:href="#DejaVuSans-70" x="550.439453"/>
      <use xlink:href="#DejaVuSans-65" x="613.916016"/>
      <use xlink:href="#DejaVuSans-65" x="675.439453"/>
      <use xlink:href="#DejaVuSans-64" x="736.962891"/>
     </g>
    </g>
   </g>
  </g>
 </g>
 <defs>
  <clipPath id="pcb6531a7c9">
   <rect x="57.6" y="41.472" width="357.12" height="266.112"/>
  </clipPath>
 </defs>
</svg>
