<?xml version="1.0" encoding="utf-8" standalone="no"?>
<!DOCTYPE svg PUBLIC "-//W3C//DTD SVG 1.1//EN"
  "http://www.w3.org/Graphics/SVG/1.1/DTD/svg11.dtd">
<svg xmlns:xlink="http://www.w3.org/1999/xlink" width="460.8pt" height="345.6pt" viewBox="0 0 460.8 345.6" xmlns="http://www.w3.org/2000/svg" version="1.1">
 <metadata>
  <rdf:RDF xmlns:dc="http://purl.org/dc/elements/1.1/" xmlns:cc="http://creativecommons.org/ns#" xmlns:rdf="http://www.w3.org/1999/02/22-rdf-syntax-ns#">
   <cc:Work>
    <dc:type rdf:resource="http://purl.org/dc/dcmitype/StillImage"/>
    <dc:date>2024-01-30T20:58:57.463185</dc:date>
    <dc:format>image/svg+xml</dc:format>
    <dc:creator>
     <cc:Agent>
      <dc:title>Matplotlib v3.7.1, https://matplotlib.org/</dc:title>
     </cc:Agent>
    </dc:creator>
   </cc:Work>
  </rdf:RDF>
 </metadata>
 <defs>
  <style type="text/css">*{stroke-linejoin: round; stroke-linecap: butt}</style>
 </defs>
 <g id="figure_1">
  <g id="patch_1">
   <path d="M 0 345.6 
L 460.8 345.6 
L 460.8 0 
L 0 0 
z
" style="fill: #ffffff"/>
  </g>
  <g id="axes_1">
   <g id="patch_2">
    <path d="M 57.6 307.584 
L 414.72 307.584 
L 414.72 41.472 
L 57.6 41.472 
z
" style="fill: #ffffff"/>
   </g>
   <g id="matplotlib.axis_1">
    <g id="xtick_1">
     <g id="line2d_1">
      <path d="M 73.832727 307.584 
L 73.832727 41.472 
" clip-path="url(#p50df66fcc6)" style="fill: none; stroke: #b0b0b0; stroke-width: 0.8; stroke-linecap: square"/>
     </g>
     <g id="line2d_2">
      <defs>
       <path id="m92e6c0f483" d="M 0 0 
L 0 3.5 
" style="stroke: #000000; stroke-width: 0.8"/>
      </defs>
      <g>
       <use xlink:href="#m92e6c0f483" x="73.832727" y="307.584" style="stroke: #000000; stroke-width: 0.8"/>
      </g>
     </g>
     <g id="text_1">
      <!-- 0 -->
      <g transform="translate(70.651477 322.182437) scale(0.1 -0.1)">
       <defs>
        <path id="DejaVuSans-30" d="M 2034 4250 
Q 1547 4250 1301 3770 
Q 1056 3291 1056 2328 
Q 1056 1369 1301 889 
Q 1547 409 2034 409 
Q 2525 409 2770 889 
Q 3016 1369 3016 2328 
Q 3016 3291 2770 3770 
Q 2525 4250 2034 4250 
z
M 2034 4750 
Q 2819 4750 3233 4129 
Q 3647 3509 3647 2328 
Q 3647 1150 3233 529 
Q 2819 -91 2034 -91 
Q 1250 -91 836 529 
Q 422 1150 422 2328 
Q 422 3509 836 4129 
Q 1250 4750 2034 4750 
z
" transform="scale(0.015625)"/>
       </defs>
       <use xlink:href="#DejaVuSans-30"/>
      </g>
     </g>
    </g>
    <g id="xtick_2">
     <g id="line2d_3">
      <path d="M 117.991398 307.584 
L 117.991398 41.472 
" clip-path="url(#p50df66fcc6)" style="fill: none; stroke: #b0b0b0; stroke-width: 0.8; stroke-linecap: square"/>
     </g>
     <g id="line2d_4">
      <g>
       <use xlink:href="#m92e6c0f483" x="117.991398" y="307.584" style="stroke: #000000; stroke-width: 0.8"/>
      </g>
     </g>
     <g id="text_2">
      <!-- 5 -->
      <g transform="translate(114.810148 322.182437) scale(0.1 -0.1)">
       <defs>
        <path id="DejaVuSans-35" d="M 691 4666 
L 3169 4666 
L 3169 4134 
L 1269 4134 
L 1269 2991 
Q 1406 3038 1543 3061 
Q 1681 3084 1819 3084 
Q 2600 3084 3056 2656 
Q 3513 2228 3513 1497 
Q 3513 744 3044 326 
Q 2575 -91 1722 -91 
Q 1428 -91 1123 -41 
Q 819 9 494 109 
L 494 744 
Q 775 591 1075 516 
Q 1375 441 1709 441 
Q 2250 441 2565 725 
Q 2881 1009 2881 1497 
Q 2881 1984 2565 2268 
Q 2250 2553 1709 2553 
Q 1456 2553 1204 2497 
Q 953 2441 691 2322 
L 691 4666 
z
" transform="scale(0.015625)"/>
       </defs>
       <use xlink:href="#DejaVuSans-35"/>
      </g>
     </g>
    </g>
    <g id="xtick_3">
     <g id="line2d_5">
      <path d="M 162.150068 307.584 
L 162.150068 41.472 
" clip-path="url(#p50df66fcc6)" style="fill: none; stroke: #b0b0b0; stroke-width: 0.8; stroke-linecap: square"/>
     </g>
     <g id="line2d_6">
      <g>
       <use xlink:href="#m92e6c0f483" x="162.150068" y="307.584" style="stroke: #000000; stroke-width: 0.8"/>
      </g>
     </g>
     <g id="text_3">
      <!-- 10 -->
      <g transform="translate(155.787568 322.182437) scale(0.1 -0.1)">
       <defs>
        <path id="DejaVuSans-31" d="M 794 531 
L 1825 531 
L 1825 4091 
L 703 3866 
L 703 4441 
L 1819 4666 
L 2450 4666 
L 2450 531 
L 3481 531 
L 3481 0 
L 794 0 
L 794 531 
z
" transform="scale(0.015625)"/>
       </defs>
       <use xlink:href="#DejaVuSans-31"/>
       <use xlink:href="#DejaVuSans-30" x="63.623047"/>
      </g>
     </g>
    </g>
    <g id="xtick_4">
     <g id="line2d_7">
      <path d="M 206.308739 307.584 
L 206.308739 41.472 
" clip-path="url(#p50df66fcc6)" style="fill: none; stroke: #b0b0b0; stroke-width: 0.8; stroke-linecap: square"/>
     </g>
     <g id="line2d_8">
      <g>
       <use xlink:href="#m92e6c0f483" x="206.308739" y="307.584" style="stroke: #000000; stroke-width: 0.8"/>
      </g>
     </g>
     <g id="text_4">
      <!-- 15 -->
      <g transform="translate(199.946239 322.182437) scale(0.1 -0.1)">
       <use xlink:href="#DejaVuSans-31"/>
       <use xlink:href="#DejaVuSans-35" x="63.623047"/>
      </g>
     </g>
    </g>
    <g id="xtick_5">
     <g id="line2d_9">
      <path d="M 250.467409 307.584 
L 250.467409 41.472 
" clip-path="url(#p50df66fcc6)" style="fill: none; stroke: #b0b0b0; stroke-width: 0.8; stroke-linecap: square"/>
     </g>
     <g id="line2d_10">
      <g>
       <use xlink:href="#m92e6c0f483" x="250.467409" y="307.584" style="stroke: #000000; stroke-width: 0.8"/>
      </g>
     </g>
     <g id="text_5">
      <!-- 20 -->
      <g transform="translate(244.104909 322.182437) scale(0.1 -0.1)">
       <defs>
        <path id="DejaVuSans-32" d="M 1228 531 
L 3431 531 
L 3431 0 
L 469 0 
L 469 531 
Q 828 903 1448 1529 
Q 2069 2156 2228 2338 
Q 2531 2678 2651 2914 
Q 2772 3150 2772 3378 
Q 2772 3750 2511 3984 
Q 2250 4219 1831 4219 
Q 1534 4219 1204 4116 
Q 875 4013 500 3803 
L 500 4441 
Q 881 4594 1212 4672 
Q 1544 4750 1819 4750 
Q 2544 4750 2975 4387 
Q 3406 4025 3406 3419 
Q 3406 3131 3298 2873 
Q 3191 2616 2906 2266 
Q 2828 2175 2409 1742 
Q 1991 1309 1228 531 
z
" transform="scale(0.015625)"/>
       </defs>
       <use xlink:href="#DejaVuSans-32"/>
       <use xlink:href="#DejaVuSans-30" x="63.623047"/>
      </g>
     </g>
    </g>
    <g id="xtick_6">
     <g id="line2d_11">
      <path d="M 294.62608 307.584 
L 294.62608 41.472 
" clip-path="url(#p50df66fcc6)" style="fill: none; stroke: #b0b0b0; stroke-width: 0.8; stroke-linecap: square"/>
     </g>
     <g id="line2d_12">
      <g>
       <use xlink:href="#m92e6c0f483" x="294.62608" y="307.584" style="stroke: #000000; stroke-width: 0.8"/>
      </g>
     </g>
     <g id="text_6">
      <!-- 25 -->
      <g transform="translate(288.26358 322.182437) scale(0.1 -0.1)">
       <use xlink:href="#DejaVuSans-32"/>
       <use xlink:href="#DejaVuSans-35" x="63.623047"/>
      </g>
     </g>
    </g>
    <g id="xtick_7">
     <g id="line2d_13">
      <path d="M 338.78475 307.584 
L 338.78475 41.472 
" clip-path="url(#p50df66fcc6)" style="fill: none; stroke: #b0b0b0; stroke-width: 0.8; stroke-linecap: square"/>
     </g>
     <g id="line2d_14">
      <g>
       <use xlink:href="#m92e6c0f483" x="338.78475" y="307.584" style="stroke: #000000; stroke-width: 0.8"/>
      </g>
     </g>
     <g id="text_7">
      <!-- 30 -->
      <g transform="translate(332.42225 322.182437) scale(0.1 -0.1)">
       <defs>
        <path id="DejaVuSans-33" d="M 2597 2516 
Q 3050 2419 3304 2112 
Q 3559 1806 3559 1356 
Q 3559 666 3084 287 
Q 2609 -91 1734 -91 
Q 1441 -91 1130 -33 
Q 819 25 488 141 
L 488 750 
Q 750 597 1062 519 
Q 1375 441 1716 441 
Q 2309 441 2620 675 
Q 2931 909 2931 1356 
Q 2931 1769 2642 2001 
Q 2353 2234 1838 2234 
L 1294 2234 
L 1294 2753 
L 1863 2753 
Q 2328 2753 2575 2939 
Q 2822 3125 2822 3475 
Q 2822 3834 2567 4026 
Q 2313 4219 1838 4219 
Q 1578 4219 1281 4162 
Q 984 4106 628 3988 
L 628 4550 
Q 988 4650 1302 4700 
Q 1616 4750 1894 4750 
Q 2613 4750 3031 4423 
Q 3450 4097 3450 3541 
Q 3450 3153 3228 2886 
Q 3006 2619 2597 2516 
z
" transform="scale(0.015625)"/>
       </defs>
       <use xlink:href="#DejaVuSans-33"/>
       <use xlink:href="#DejaVuSans-30" x="63.623047"/>
      </g>
     </g>
    </g>
    <g id="xtick_8">
     <g id="line2d_15">
      <path d="M 382.943421 307.584 
L 382.943421 41.472 
" clip-path="url(#p50df66fcc6)" style="fill: none; stroke: #b0b0b0; stroke-width: 0.8; stroke-linecap: square"/>
     </g>
     <g id="line2d_16">
      <g>
       <use xlink:href="#m92e6c0f483" x="382.943421" y="307.584" style="stroke: #000000; stroke-width: 0.8"/>
      </g>
     </g>
     <g id="text_8">
      <!-- 35 -->
      <g transform="translate(376.580921 322.182437) scale(0.1 -0.1)">
       <use xlink:href="#DejaVuSans-33"/>
       <use xlink:href="#DejaVuSans-35" x="63.623047"/>
      </g>
     </g>
    </g>
    <g id="text_9">
     <!-- Time(s) -->
     <g transform="translate(217.420156 335.860562) scale(0.1 -0.1)">
      <defs>
       <path id="DejaVuSans-54" d="M -19 4666 
L 3928 4666 
L 3928 4134 
L 2272 4134 
L 2272 0 
L 1638 0 
L 1638 4134 
L -19 4134 
L -19 4666 
z
" transform="scale(0.015625)"/>
       <path id="DejaVuSans-69" d="M 603 3500 
L 1178 3500 
L 1178 0 
L 603 0 
L 603 3500 
z
M 603 4863 
L 1178 4863 
L 1178 4134 
L 603 4134 
L 603 4863 
z
" transform="scale(0.015625)"/>
       <path id="DejaVuSans-6d" d="M 3328 2828 
Q 3544 3216 3844 3400 
Q 4144 3584 4550 3584 
Q 5097 3584 5394 3201 
Q 5691 2819 5691 2113 
L 5691 0 
L 5113 0 
L 5113 2094 
Q 5113 2597 4934 2840 
Q 4756 3084 4391 3084 
Q 3944 3084 3684 2787 
Q 3425 2491 3425 1978 
L 3425 0 
L 2847 0 
L 2847 2094 
Q 2847 2600 2669 2842 
Q 2491 3084 2119 3084 
Q 1678 3084 1418 2786 
Q 1159 2488 1159 1978 
L 1159 0 
L 581 0 
L 581 3500 
L 1159 3500 
L 1159 2956 
Q 1356 3278 1631 3431 
Q 1906 3584 2284 3584 
Q 2666 3584 2933 3390 
Q 3200 3197 3328 2828 
z
" transform="scale(0.015625)"/>
       <path id="DejaVuSans-65" d="M 3597 1894 
L 3597 1613 
L 953 1613 
Q 991 1019 1311 708 
Q 1631 397 2203 397 
Q 2534 397 2845 478 
Q 3156 559 3463 722 
L 3463 178 
Q 3153 47 2828 -22 
Q 2503 -91 2169 -91 
Q 1331 -91 842 396 
Q 353 884 353 1716 
Q 353 2575 817 3079 
Q 1281 3584 2069 3584 
Q 2775 3584 3186 3129 
Q 3597 2675 3597 1894 
z
M 3022 2063 
Q 3016 2534 2758 2815 
Q 2500 3097 2075 3097 
Q 1594 3097 1305 2825 
Q 1016 2553 972 2059 
L 3022 2063 
z
" transform="scale(0.015625)"/>
       <path id="DejaVuSans-28" d="M 1984 4856 
Q 1566 4138 1362 3434 
Q 1159 2731 1159 2009 
Q 1159 1288 1364 580 
Q 1569 -128 1984 -844 
L 1484 -844 
Q 1016 -109 783 600 
Q 550 1309 550 2009 
Q 550 2706 781 3412 
Q 1013 4119 1484 4856 
L 1984 4856 
z
" transform="scale(0.015625)"/>
       <path id="DejaVuSans-73" d="M 2834 3397 
L 2834 2853 
Q 2591 2978 2328 3040 
Q 2066 3103 1784 3103 
Q 1356 3103 1142 2972 
Q 928 2841 928 2578 
Q 928 2378 1081 2264 
Q 1234 2150 1697 2047 
L 1894 2003 
Q 2506 1872 2764 1633 
Q 3022 1394 3022 966 
Q 3022 478 2636 193 
Q 2250 -91 1575 -91 
Q 1294 -91 989 -36 
Q 684 19 347 128 
L 347 722 
Q 666 556 975 473 
Q 1284 391 1588 391 
Q 1994 391 2212 530 
Q 2431 669 2431 922 
Q 2431 1156 2273 1281 
Q 2116 1406 1581 1522 
L 1381 1569 
Q 847 1681 609 1914 
Q 372 2147 372 2553 
Q 372 3047 722 3315 
Q 1072 3584 1716 3584 
Q 2034 3584 2315 3537 
Q 2597 3491 2834 3397 
z
" transform="scale(0.015625)"/>
       <path id="DejaVuSans-29" d="M 513 4856 
L 1013 4856 
Q 1481 4119 1714 3412 
Q 1947 2706 1947 2009 
Q 1947 1309 1714 600 
Q 1481 -109 1013 -844 
L 513 -844 
Q 928 -128 1133 580 
Q 1338 1288 1338 2009 
Q 1338 2731 1133 3434 
Q 928 4138 513 4856 
z
" transform="scale(0.015625)"/>
      </defs>
      <use xlink:href="#DejaVuSans-54"/>
      <use xlink:href="#DejaVuSans-69" x="57.958984"/>
      <use xlink:href="#DejaVuSans-6d" x="85.742188"/>
      <use xlink:href="#DejaVuSans-65" x="183.154297"/>
      <use xlink:href="#DejaVuSans-28" x="244.677734"/>
      <use xlink:href="#DejaVuSans-73" x="283.691406"/>
      <use xlink:href="#DejaVuSans-29" x="335.791016"/>
     </g>
    </g>
   </g>
   <g id="matplotlib.axis_2">
    <g id="ytick_1">
     <g id="line2d_17">
      <path d="M 57.6 276.920381 
L 414.72 276.920381 
" clip-path="url(#p50df66fcc6)" style="fill: none; stroke: #b0b0b0; stroke-width: 0.8; stroke-linecap: square"/>
     </g>
     <g id="line2d_18">
      <defs>
       <path id="mb2af0c6668" d="M 0 0 
L -3.5 0 
" style="stroke: #000000; stroke-width: 0.8"/>
      </defs>
      <g>
       <use xlink:href="#mb2af0c6668" x="57.6" y="276.920381" style="stroke: #000000; stroke-width: 0.8"/>
      </g>
     </g>
     <g id="text_10">
      <!-- 4 -->
      <g transform="translate(44.2375 280.7196) scale(0.1 -0.1)">
       <defs>
        <path id="DejaVuSans-34" d="M 2419 4116 
L 825 1625 
L 2419 1625 
L 2419 4116 
z
M 2253 4666 
L 3047 4666 
L 3047 1625 
L 3713 1625 
L 3713 1100 
L 3047 1100 
L 3047 0 
L 2419 0 
L 2419 1100 
L 313 1100 
L 313 1709 
L 2253 4666 
z
" transform="scale(0.015625)"/>
       </defs>
       <use xlink:href="#DejaVuSans-34"/>
      </g>
     </g>
    </g>
    <g id="ytick_2">
     <g id="line2d_19">
      <path d="M 57.6 221.082286 
L 414.72 221.082286 
" clip-path="url(#p50df66fcc6)" style="fill: none; stroke: #b0b0b0; stroke-width: 0.8; stroke-linecap: square"/>
     </g>
     <g id="line2d_20">
      <g>
       <use xlink:href="#mb2af0c6668" x="57.6" y="221.082286" style="stroke: #000000; stroke-width: 0.8"/>
      </g>
     </g>
     <g id="text_11">
      <!-- 5 -->
      <g transform="translate(44.2375 224.881505) scale(0.1 -0.1)">
       <use xlink:href="#DejaVuSans-35"/>
      </g>
     </g>
    </g>
    <g id="ytick_3">
     <g id="line2d_21">
      <path d="M 57.6 165.244191 
L 414.72 165.244191 
" clip-path="url(#p50df66fcc6)" style="fill: none; stroke: #b0b0b0; stroke-width: 0.8; stroke-linecap: square"/>
     </g>
     <g id="line2d_22">
      <g>
       <use xlink:href="#mb2af0c6668" x="57.6" y="165.244191" style="stroke: #000000; stroke-width: 0.8"/>
      </g>
     </g>
     <g id="text_12">
      <!-- 6 -->
      <g transform="translate(44.2375 169.043409) scale(0.1 -0.1)">
       <defs>
        <path id="DejaVuSans-36" d="M 2113 2584 
Q 1688 2584 1439 2293 
Q 1191 2003 1191 1497 
Q 1191 994 1439 701 
Q 1688 409 2113 409 
Q 2538 409 2786 701 
Q 3034 994 3034 1497 
Q 3034 2003 2786 2293 
Q 2538 2584 2113 2584 
z
M 3366 4563 
L 3366 3988 
Q 3128 4100 2886 4159 
Q 2644 4219 2406 4219 
Q 1781 4219 1451 3797 
Q 1122 3375 1075 2522 
Q 1259 2794 1537 2939 
Q 1816 3084 2150 3084 
Q 2853 3084 3261 2657 
Q 3669 2231 3669 1497 
Q 3669 778 3244 343 
Q 2819 -91 2113 -91 
Q 1303 -91 875 529 
Q 447 1150 447 2328 
Q 447 3434 972 4092 
Q 1497 4750 2381 4750 
Q 2619 4750 2861 4703 
Q 3103 4656 3366 4563 
z
" transform="scale(0.015625)"/>
       </defs>
       <use xlink:href="#DejaVuSans-36"/>
      </g>
     </g>
    </g>
    <g id="ytick_4">
     <g id="line2d_23">
      <path d="M 57.6 109.406095 
L 414.72 109.406095 
" clip-path="url(#p50df66fcc6)" style="fill: none; stroke: #b0b0b0; stroke-width: 0.8; stroke-linecap: square"/>
     </g>
     <g id="line2d_24">
      <g>
       <use xlink:href="#mb2af0c6668" x="57.6" y="109.406095" style="stroke: #000000; stroke-width: 0.8"/>
      </g>
     </g>
     <g id="text_13">
      <!-- 7 -->
      <g transform="translate(44.2375 113.205314) scale(0.1 -0.1)">
       <defs>
        <path id="DejaVuSans-37" d="M 525 4666 
L 3525 4666 
L 3525 4397 
L 1831 0 
L 1172 0 
L 2766 4134 
L 525 4134 
L 525 4666 
z
" transform="scale(0.015625)"/>
       </defs>
       <use xlink:href="#DejaVuSans-37"/>
      </g>
     </g>
    </g>
    <g id="ytick_5">
     <g id="line2d_25">
      <path d="M 57.6 53.568 
L 414.72 53.568 
" clip-path="url(#p50df66fcc6)" style="fill: none; stroke: #b0b0b0; stroke-width: 0.8; stroke-linecap: square"/>
     </g>
     <g id="line2d_26">
      <g>
       <use xlink:href="#mb2af0c6668" x="57.6" y="53.568" style="stroke: #000000; stroke-width: 0.8"/>
      </g>
     </g>
     <g id="text_14">
      <!-- 8 -->
      <g transform="translate(44.2375 57.367219) scale(0.1 -0.1)">
       <defs>
        <path id="DejaVuSans-38" d="M 2034 2216 
Q 1584 2216 1326 1975 
Q 1069 1734 1069 1313 
Q 1069 891 1326 650 
Q 1584 409 2034 409 
Q 2484 409 2743 651 
Q 3003 894 3003 1313 
Q 3003 1734 2745 1975 
Q 2488 2216 2034 2216 
z
M 1403 2484 
Q 997 2584 770 2862 
Q 544 3141 544 3541 
Q 544 4100 942 4425 
Q 1341 4750 2034 4750 
Q 2731 4750 3128 4425 
Q 3525 4100 3525 3541 
Q 3525 3141 3298 2862 
Q 3072 2584 2669 2484 
Q 3125 2378 3379 2068 
Q 3634 1759 3634 1313 
Q 3634 634 3220 271 
Q 2806 -91 2034 -91 
Q 1263 -91 848 271 
Q 434 634 434 1313 
Q 434 1759 690 2068 
Q 947 2378 1403 2484 
z
M 1172 3481 
Q 1172 3119 1398 2916 
Q 1625 2713 2034 2713 
Q 2441 2713 2670 2916 
Q 2900 3119 2900 3481 
Q 2900 3844 2670 4047 
Q 2441 4250 2034 4250 
Q 1625 4250 1398 4047 
Q 1172 3844 1172 3481 
z
" transform="scale(0.015625)"/>
       </defs>
       <use xlink:href="#DejaVuSans-38"/>
      </g>
     </g>
    </g>
    <g id="text_15">
     <!-- Velocity(m/s) -->
     <g transform="translate(38.157812 207.204563) rotate(-90) scale(0.1 -0.1)">
      <defs>
       <path id="DejaVuSans-56" d="M 1831 0 
L 50 4666 
L 709 4666 
L 2188 738 
L 3669 4666 
L 4325 4666 
L 2547 0 
L 1831 0 
z
" transform="scale(0.015625)"/>
       <path id="DejaVuSans-6c" d="M 603 4863 
L 1178 4863 
L 1178 0 
L 603 0 
L 603 4863 
z
" transform="scale(0.015625)"/>
       <path id="DejaVuSans-6f" d="M 1959 3097 
Q 1497 3097 1228 2736 
Q 959 2375 959 1747 
Q 959 1119 1226 758 
Q 1494 397 1959 397 
Q 2419 397 2687 759 
Q 2956 1122 2956 1747 
Q 2956 2369 2687 2733 
Q 2419 3097 1959 3097 
z
M 1959 3584 
Q 2709 3584 3137 3096 
Q 3566 2609 3566 1747 
Q 3566 888 3137 398 
Q 2709 -91 1959 -91 
Q 1206 -91 779 398 
Q 353 888 353 1747 
Q 353 2609 779 3096 
Q 1206 3584 1959 3584 
z
" transform="scale(0.015625)"/>
       <path id="DejaVuSans-63" d="M 3122 3366 
L 3122 2828 
Q 2878 2963 2633 3030 
Q 2388 3097 2138 3097 
Q 1578 3097 1268 2742 
Q 959 2388 959 1747 
Q 959 1106 1268 751 
Q 1578 397 2138 397 
Q 2388 397 2633 464 
Q 2878 531 3122 666 
L 3122 134 
Q 2881 22 2623 -34 
Q 2366 -91 2075 -91 
Q 1284 -91 818 406 
Q 353 903 353 1747 
Q 353 2603 823 3093 
Q 1294 3584 2113 3584 
Q 2378 3584 2631 3529 
Q 2884 3475 3122 3366 
z
" transform="scale(0.015625)"/>
       <path id="DejaVuSans-74" d="M 1172 4494 
L 1172 3500 
L 2356 3500 
L 2356 3053 
L 1172 3053 
L 1172 1153 
Q 1172 725 1289 603 
Q 1406 481 1766 481 
L 2356 481 
L 2356 0 
L 1766 0 
Q 1100 0 847 248 
Q 594 497 594 1153 
L 594 3053 
L 172 3053 
L 172 3500 
L 594 3500 
L 594 4494 
L 1172 4494 
z
" transform="scale(0.015625)"/>
       <path id="DejaVuSans-79" d="M 2059 -325 
Q 1816 -950 1584 -1140 
Q 1353 -1331 966 -1331 
L 506 -1331 
L 506 -850 
L 844 -850 
Q 1081 -850 1212 -737 
Q 1344 -625 1503 -206 
L 1606 56 
L 191 3500 
L 800 3500 
L 1894 763 
L 2988 3500 
L 3597 3500 
L 2059 -325 
z
" transform="scale(0.015625)"/>
       <path id="DejaVuSans-2f" d="M 1625 4666 
L 2156 4666 
L 531 -594 
L 0 -594 
L 1625 4666 
z
" transform="scale(0.015625)"/>
      </defs>
      <use xlink:href="#DejaVuSans-56"/>
      <use xlink:href="#DejaVuSans-65" x="60.658203"/>
      <use xlink:href="#DejaVuSans-6c" x="122.181641"/>
      <use xlink:href="#DejaVuSans-6f" x="149.964844"/>
      <use xlink:href="#DejaVuSans-63" x="211.146484"/>
      <use xlink:href="#DejaVuSans-69" x="266.126953"/>
      <use xlink:href="#DejaVuSans-74" x="293.910156"/>
      <use xlink:href="#DejaVuSans-79" x="333.119141"/>
      <use xlink:href="#DejaVuSans-28" x="392.298828"/>
      <use xlink:href="#DejaVuSans-6d" x="431.3125"/>
      <use xlink:href="#DejaVuSans-2f" x="528.724609"/>
      <use xlink:href="#DejaVuSans-73" x="562.416016"/>
      <use xlink:href="#DejaVuSans-29" x="614.515625"/>
     </g>
    </g>
   </g>
   <g id="line2d_27">
    <path d="M 73.832727 53.726469 
L 76.658882 53.601335 
L 76.658882 53.601335 
L 84.784078 53.568391 
L 84.784078 53.568391 
L 92.556004 53.568 
L 92.556004 53.568 
L 92.732638 55.00047 
L 92.732638 55.00047 
L 93.085908 63.01307 
L 93.085908 63.01307 
L 93.615812 78.287916 
L 93.615812 78.287916 
L 95.205524 125.143281 
L 95.205524 125.143281 
L 97.148505 164.66582 
L 97.148505 164.66582 
L 98.914852 186.856493 
L 98.914852 186.856493 
L 99.798026 193.552988 
L 99.798026 193.552988 
L 100.504564 197.299892 
L 100.504564 197.299892 
L 101.034468 198.678088 
L 101.034468 198.678088 
L 101.564372 199.246687 
L 101.564372 199.246687 
L 101.917642 199.413476 
L 101.917642 199.413476 
L 102.270911 199.412917 
L 102.270911 199.412917 
L 103.154084 199.250428 
L 103.154084 199.250428 
L 103.507354 199.009487 
L 103.507354 199.009487 
L 103.860623 198.562726 
L 103.860623 198.562726 
L 104.567162 196.35567 
L 104.567162 196.35567 
L 105.273701 192.403785 
L 105.273701 192.403785 
L 105.62697 188.827466 
L 105.62697 188.827466 
L 105.980239 184.664569 
L 105.980239 184.664569 
L 106.333509 179.749644 
L 106.333509 179.749644 
L 106.863413 170.660821 
L 106.863413 170.660821 
L 107.923221 151.034791 
L 107.923221 151.034791 
L 108.453125 147.339259 
L 108.453125 147.339259 
L 108.983029 145.809853 
L 108.983029 145.809853 
L 109.512933 145.190721 
L 109.512933 145.190721 
L 109.866202 145.004054 
L 109.866202 145.004054 
L 111.455915 144.412784 
L 111.455915 144.412784 
L 112.339088 143.381231 
L 112.339088 143.381231 
L 112.868992 142.234708 
L 112.868992 142.234708 
L 113.575531 139.356533 
L 113.575531 139.356533 
L 113.9288 137.432743 
L 113.9288 137.432743 
L 114.811973 129.296127 
L 114.811973 129.296127 
L 115.695147 119.025603 
L 115.695147 119.025603 
L 115.871782 118.182783 
L 115.871782 118.182783 
L 116.048416 118.169549 
L 116.048416 118.169549 
L 117.461494 145.094623 
L 117.461494 145.094623 
L 118.168032 156.189206 
L 118.168032 156.189206 
L 119.404475 166.923968 
L 119.404475 166.923968 
L 119.934379 169.178096 
L 119.934379 169.178096 
L 120.464283 170.281736 
L 120.464283 170.281736 
L 121.524091 171.289893 
L 121.524091 171.289893 
L 122.053995 171.4406 
L 122.053995 171.4406 
L 122.760534 171.394199 
L 122.760534 171.394199 
L 123.290438 171.287995 
L 123.290438 171.287995 
L 124.350246 170.72241 
L 124.350246 170.72241 
L 125.23342 170.059221 
L 125.23342 170.059221 
L 126.293228 168.739935 
L 126.293228 168.739935 
L 127.706305 166.115098 
L 127.706305 166.115098 
L 128.412844 164.233186 
L 128.412844 164.233186 
L 129.119383 162.214695 
L 129.119383 162.214695 
L 130.002556 159.416704 
L 130.002556 159.416704 
L 130.709095 156.890197 
L 130.709095 156.890197 
L 131.768903 152.596806 
L 131.768903 152.596806 
L 133.005346 146.580028 
L 133.005346 146.580028 
L 134.418423 138.595013 
L 134.418423 138.595013 
L 135.301597 132.653225 
L 135.301597 132.653225 
L 136.18477 125.998441 
L 136.18477 125.998441 
L 138.304386 105.725639 
L 138.304386 105.725639 
L 139.540829 90.570901 
L 139.540829 90.570901 
L 140.953906 71.637264 
L 140.953906 71.637264 
L 141.660445 65.805086 
L 141.660445 65.805086 
L 142.366984 61.855323 
L 142.366984 61.855323 
L 143.073523 59.180454 
L 143.073523 59.180454 
L 143.780061 57.368955 
L 143.780061 57.368955 
L 144.4866 56.142136 
L 144.4866 56.142136 
L 145.193139 55.311265 
L 145.193139 55.311265 
L 146.076312 54.638975 
L 146.076312 54.638975 
L 147.13612 54.164909 
L 147.13612 54.164909 
L 148.372563 53.869749 
L 148.372563 53.869749 
L 150.315545 53.6713 
L 150.315545 53.6713 
L 150.845449 53.645112 
L 150.845449 53.645112 
L 151.022083 54.638249 
L 151.022083 54.638249 
L 151.375353 62.943328 
L 151.375353 62.943328 
L 151.728622 73.196542 
L 151.728622 73.196542 
L 152.081891 83.415472 
L 152.081891 83.415472 
L 152.435161 94.327241 
L 152.435161 94.327241 
L 153.318334 119.646188 
L 153.318334 119.646188 
L 153.671604 130.328853 
L 153.671604 130.328853 
L 155.43795 174.987938 
L 155.43795 174.987938 
L 155.967854 185.02908 
L 155.967854 185.02908 
L 157.027662 205.019453 
L 157.027662 205.019453 
L 157.557567 212.099388 
L 157.557567 212.099388 
L 158.087471 219.2867 
L 158.087471 219.2867 
L 160.030452 237.18845 
L 160.030452 237.18845 
L 160.560356 240.624335 
L 160.560356 240.624335 
L 161.44353 244.366046 
L 161.44353 244.366046 
L 161.973434 245.714313 
L 161.973434 245.714313 
L 162.856607 247.068498 
L 162.856607 247.068498 
L 164.09305 247.389567 
L 164.09305 247.389567 
L 165.506127 247.040412 
L 165.506127 247.040412 
L 166.919205 245.287654 
L 166.919205 245.287654 
L 167.625743 243.551089 
L 167.625743 243.551089 
L 168.155647 241.730879 
L 168.155647 241.730879 
L 169.215456 236.754085 
L 169.215456 236.754085 
L 171.511706 221.373705 
L 171.511706 221.373705 
L 172.218245 214.85712 
L 172.218245 214.85712 
L 173.101419 206.448685 
L 173.101419 206.448685 
L 179.990171 132.664505 
L 179.990171 132.664505 
L 181.049979 115.533712 
L 181.049979 115.533712 
L 182.286422 89.90425 
L 182.286422 89.90425 
L 182.639691 87.385002 
L 182.639691 87.385002 
L 182.816326 86.900272 
L 182.816326 86.900272 
L 182.992961 88.080187 
L 182.992961 88.080187 
L 184.229404 120.420327 
L 184.229404 120.420327 
L 184.582673 131.971777 
L 184.582673 131.971777 
L 185.289212 153.542313 
L 185.289212 153.542313 
L 185.642481 164.915137 
L 185.642481 164.915137 
L 186.702289 194.948494 
L 186.702289 194.948494 
L 187.232193 206.228627 
L 187.232193 206.228627 
L 187.938732 220.689968 
L 187.938732 220.689968 
L 188.821905 236.678313 
L 188.821905 236.678313 
L 190.411617 257.370124 
L 190.411617 257.370124 
L 190.941521 261.42799 
L 190.941521 261.42799 
L 191.471425 265.653036 
L 191.471425 265.653036 
L 192.354599 270.140408 
L 192.354599 270.140408 
L 193.591042 273.326753 
L 193.591042 273.326753 
L 194.65085 274.399571 
L 194.65085 274.399571 
L 194.827484 274.380474 
L 194.827484 274.380474 
L 195.180754 274.495612 
L 195.180754 274.495612 
L 195.887293 274.616781 
L 195.887293 274.616781 
L 196.593831 274.498237 
L 196.593831 274.498237 
L 197.123735 274.393875 
L 197.123735 274.393875 
L 197.477005 274.110497 
L 197.477005 274.110497 
L 198.006909 273.626157 
L 198.006909 273.626157 
L 199.243351 270.8854 
L 199.243351 270.8854 
L 200.479794 265.184945 
L 200.479794 265.184945 
L 202.069506 252.354188 
L 202.069506 252.354188 
L 204.012488 227.612998 
L 204.012488 227.612998 
L 205.425565 200.666092 
L 205.425565 200.666092 
L 207.015277 161.261594 
L 207.015277 161.261594 
L 209.841432 86.002116 
L 209.841432 86.002116 
L 210.547971 75.533422 
L 210.547971 75.533422 
L 211.25451 68.443659 
L 211.25451 68.443659 
L 211.961049 63.642309 
L 211.961049 63.642309 
L 212.667587 60.390634 
L 212.667587 60.390634 
L 213.374126 58.188491 
L 213.374126 58.188491 
L 214.080665 56.697167 
L 214.080665 56.697167 
L 214.787203 55.687167 
L 214.787203 55.687167 
L 215.140473 55.342088 
L 215.140473 55.342088 
L 215.317108 55.825087 
L 215.670377 61.124123 
L 215.670377 61.124123 
L 216.200281 70.035715 
L 216.200281 70.035715 
L 217.436724 97.75235 
L 217.436724 97.75235 
L 218.143262 112.430342 
L 218.143262 112.430342 
L 219.55634 144.201884 
L 219.55634 144.201884 
L 220.262879 155.833797 
L 220.262879 155.833797 
L 220.969417 169.306301 
L 220.969417 169.306301 
L 222.912399 192.766174 
L 222.912399 192.766174 
L 224.325476 201.962206 
L 224.325476 201.962206 
L 224.85538 203.678724 
L 224.85538 203.678724 
L 225.385284 204.717704 
L 225.385284 204.717704 
L 225.915188 205.065408 
L 225.915188 205.065408 
L 227.681535 205.135708 
L 227.681535 205.135708 
L 228.034805 204.806319 
L 228.034805 204.806319 
L 228.211439 204.661698 
L 228.211439 204.661698 
L 228.917978 203.35598 
L 228.917978 203.35598 
L 229.624517 200.93283 
L 229.624517 200.93283 
L 230.331055 196.842076 
L 230.331055 196.842076 
L 230.684325 193.449241 
L 230.684325 193.449241 
L 231.214229 187.646658 
L 231.214229 187.646658 
L 232.097402 174.127473 
L 232.097402 174.127473 
L 233.333845 144.178767 
L 233.333845 144.178767 
L 235.453461 87.415881 
L 235.453461 87.415881 
L 236.16 76.490878 
L 236.16 76.490878 
L 236.866539 69.092107 
L 236.866539 69.092107 
L 237.573077 64.08142 
L 237.573077 64.08142 
L 238.279616 60.688027 
L 238.279616 60.688027 
L 238.986155 58.389899 
L 238.986155 58.389899 
L 239.692694 56.833523 
L 239.692694 56.833523 
L 240.399232 55.779524 
L 240.399232 55.779524 
L 241.105771 55.065745 
L 241.105771 55.065745 
L 241.45904 54.894546 
L 241.45904 54.894546 
L 241.988945 60.078219 
L 241.988945 60.078219 
L 242.342214 64.177741 
L 242.342214 64.177741 
L 243.578657 82.880432 
L 243.578657 82.880432 
L 243.931926 88.205041 
L 243.931926 88.205041 
L 244.285195 93.914933 
L 244.285195 93.914933 
L 245.168369 106.893102 
L 245.168369 106.893102 
L 245.521638 112.443241 
L 245.521638 112.443241 
L 247.11135 132.147667 
L 247.11135 132.147667 
L 247.994524 139.552692 
L 247.994524 139.552692 
L 248.701062 143.051284 
L 248.701062 143.051284 
L 249.407601 145.1427 
L 249.407601 145.1427 
L 249.760871 145.586166 
L 249.760871 145.586166 
L 250.11414 145.796285 
L 250.11414 145.796285 
L 250.290775 145.946992 
L 250.290775 145.946992 
L 250.644044 145.963464 
L 250.644044 145.963464 
L 250.820679 146.188882 
L 250.820679 146.188882 
L 251.173948 146.174699 
L 251.173948 146.174699 
L 251.350583 146.14678 
L 251.350583 146.14678 
L 252.233756 145.464606 
L 252.233756 145.464606 
L 252.940295 143.79354 
L 252.940295 143.79354 
L 253.293564 142.631493 
L 253.293564 142.631493 
L 254.530007 135.739118 
L 254.530007 135.739118 
L 255.236546 129.931453 
L 255.236546 129.931453 
L 256.649623 113.899554 
L 256.649623 113.899554 
L 257.532797 101.28746 
L 257.532797 101.28746 
L 258.945874 77.959699 
L 258.945874 77.959699 
L 259.652413 70.086863 
L 259.652413 70.086863 
L 260.358951 64.755107 
L 260.358951 64.755107 
L 261.06549 61.14428 
L 261.06549 61.14428 
L 261.772029 58.698907 
L 261.772029 58.698907 
L 262.478568 57.042805 
L 262.478568 57.042805 
L 263.185106 55.921241 
L 263.185106 55.921241 
L 263.891645 55.161675 
L 263.891645 55.161675 
L 264.774818 54.547121 
L 264.774818 54.547121 
L 265.834627 54.11365 
L 265.834627 54.11365 
L 267.247704 53.818266 
L 267.247704 53.818266 
L 269.36732 53.645727 
L 269.36732 53.645727 
L 273.783187 53.574812 
L 273.783187 53.574812 
L 276.432707 53.569563 
L 276.432707 53.569563 
L 276.609342 55.011973 
L 276.609342 55.011973 
L 276.962612 64.679781 
L 276.962612 64.679781 
L 277.315881 76.531752 
L 277.315881 76.531752 
L 277.66915 88.912956 
L 277.66915 88.912956 
L 278.02242 102.198626 
L 278.02242 102.198626 
L 278.728958 127.581507 
L 278.728958 127.581507 
L 279.435497 155.551479 
L 279.435497 155.551479 
L 279.788766 166.834962 
L 279.788766 166.834962 
L 280.142036 180.147211 
L 280.142036 180.147211 
L 280.67194 196.877756 
L 280.67194 196.877756 
L 282.614921 242.550973 
L 282.614921 242.550973 
L 283.498095 258.491967 
L 283.498095 258.491967 
L 283.674729 260.550383 
L 283.674729 260.550383 
L 284.027999 265.995881 
L 284.027999 265.995881 
L 284.557903 271.977258 
L 284.557903 271.977258 
L 284.911172 276.062429 
L 284.911172 276.062429 
L 285.441076 280.86847 
L 285.441076 280.86847 
L 285.97098 286.019813 
L 285.97098 286.019813 
L 287.030788 291.957134 
L 287.030788 291.957134 
L 287.737327 294.152018 
L 287.737327 294.152018 
L 288.267231 294.906837 
L 288.267231 294.906837 
L 288.620501 295.100651 
L 288.620501 295.100651 
L 289.503674 295.363314 
L 289.503674 295.363314 
L 290.386847 295.213165 
L 290.386847 295.213165 
L 290.916751 294.802867 
L 290.916751 294.802867 
L 291.270021 294.465716 
L 291.270021 294.465716 
L 291.799925 293.28837 
L 291.799925 293.28837 
L 292.329829 291.765274 
L 292.329829 291.765274 
L 292.683098 290.235255 
L 292.683098 290.235255 
L 293.213002 287.720474 
L 293.213002 287.720474 
L 293.742906 284.482981 
L 293.742906 284.482981 
L 294.27281 280.82715 
L 294.27281 280.82715 
L 296.392427 259.635867 
L 296.392427 259.635867 
L 301.691467 180.164856 
L 301.691467 180.164856 
L 303.104544 160.298052 
L 303.104544 160.298052 
L 303.457814 158.384927 
L 303.457814 158.384927 
L 304.164353 170.916671 
L 304.164353 170.916671 
L 306.107334 216.093711 
L 306.107334 216.093711 
L 306.637238 223.590533 
L 306.637238 223.590533 
L 307.167142 231.057036 
L 307.167142 231.057036 
L 308.050316 240.256641 
L 308.050316 240.256641 
L 308.58022 245.339639 
L 308.58022 245.339639 
L 310.523201 256.482466 
L 310.523201 256.482466 
L 311.406375 259.145441 
L 311.406375 259.145441 
L 311.759644 259.811422 
L 311.759644 259.811422 
L 312.289548 260.650054 
L 312.289548 260.650054 
L 312.466183 260.714994 
L 312.466183 260.714994 
L 312.642817 261.025621 
L 312.642817 261.025621 
L 312.819452 261.076489 
L 312.819452 261.076489 
L 313.172721 261.38103 
L 313.172721 261.38103 
L 313.87926 261.580093 
L 313.87926 261.580093 
L 315.115703 261.358137 
L 315.115703 261.358137 
L 315.998876 260.569703 
L 315.998876 260.569703 
L 316.52878 259.61113 
L 316.52878 259.61113 
L 316.705415 259.255888 
L 316.705415 259.255888 
L 317.235319 257.794047 
L 317.235319 257.794047 
L 317.941858 255.148717 
L 317.941858 255.148717 
L 319.53157 245.59454 
L 319.53157 245.59454 
L 321.651186 225.928084 
L 321.651186 225.928084 
L 322.710994 213.768557 
L 322.710994 213.768557 
L 323.770802 199.82651 
L 323.770802 199.82651 
L 326.243688 159.652843 
L 326.243688 159.652843 
L 326.950227 145.31496 
L 326.950227 145.31496 
L 327.303496 140.807151 
L 327.303496 140.807151 
L 327.656765 138.515165 
L 327.656765 138.515165 
L 328.010035 139.318451 
L 328.010035 139.318451 
L 328.186669 141.339009 
L 328.186669 141.339009 
L 328.716573 151.922561 
L 328.716573 151.922561 
L 329.599747 168.706264 
L 329.599747 168.706264 
L 329.953016 175.693397 
L 329.953016 175.693397 
L 330.48292 184.002441 
L 330.48292 184.002441 
L 331.895998 200.157072 
L 331.895998 200.157072 
L 332.425902 204.038992 
L 332.425902 204.038992 
L 333.13244 207.741728 
L 333.13244 207.741728 
L 333.48571 208.855921 
L 333.48571 208.855921 
L 334.015614 209.746929 
L 334.015614 209.746929 
L 334.368883 210.018135 
L 334.368883 210.018135 
L 334.722153 210.153431 
L 334.722153 210.153431 
L 335.252057 210.286995 
L 335.252057 210.286995 
L 335.781961 210.230487 
L 335.781961 210.230487 
L 336.488499 209.691929 
L 336.488499 209.691929 
L 337.195038 208.406257 
L 337.195038 208.406257 
L 337.901577 205.876456 
L 337.901577 205.876456 
L 338.431481 202.790508 
L 338.431481 202.790508 
L 339.491289 190.856455 
L 339.491289 190.856455 
L 340.197828 179.886168 
L 340.197828 179.886168 
L 340.551097 177.569445 
L 340.551097 177.569445 
L 340.727732 176.937637 
L 340.904366 177.034349 
L 340.904366 177.034349 
L 341.081001 177.278529 
L 341.081001 177.278529 
L 341.610905 182.006954 
L 341.610905 182.006954 
L 342.140809 185.783117 
L 342.140809 185.783117 
L 342.494079 187.0555 
L 342.494079 187.0555 
L 343.377252 188.099561 
L 343.377252 188.099561 
L 343.553887 188.20543 
L 343.553887 188.20543 
L 343.730521 188.179465 
L 343.730521 188.179465 
L 344.43706 187.432351 
L 344.43706 187.432351 
L 344.966964 185.873575 
L 344.966964 185.873575 
L 345.850138 178.624618 
L 345.850138 178.624618 
L 346.909946 167.461912 
L 346.909946 167.461912 
L 347.08658 167.197798 
L 347.08658 167.197798 
L 347.263215 167.182219 
L 347.263215 167.182219 
L 347.43985 168.37587 
L 347.43985 168.37587 
L 348.146388 177.746899 
L 348.146388 177.746899 
L 348.676292 182.411334 
L 348.676292 182.411334 
L 349.206196 184.976927 
L 349.206196 184.976927 
L 349.559466 185.820976 
L 349.559466 185.820976 
L 349.912735 186.098156 
L 349.912735 186.098156 
L 350.08937 186.227086 
L 350.08937 186.227086 
L 350.266005 186.191852 
L 350.266005 186.191852 
L 350.442639 186.304031 
L 350.442639 186.304031 
L 350.619274 186.260756 
L 350.619274 186.260756 
L 350.972543 186.330889 
L 350.972543 186.330889 
L 351.679082 186.134674 
L 351.679082 186.134674 
L 352.73889 185.091786 
L 352.73889 185.091786 
L 353.268794 184.155046 
L 353.268794 184.155046 
L 354.505237 181.318862 
L 354.505237 181.318862 
L 355.918314 176.190747 
L 355.918314 176.190747 
L 356.624853 172.884238 
L 356.624853 172.884238 
L 359.097739 156.089256 
L 359.097739 156.089256 
L 361.217355 140.001854 
L 361.217355 140.001854 
L 362.453798 132.838496 
L 362.453798 132.838496 
L 364.220144 123.928691 
L 364.220144 123.928691 
L 365.279953 116.380218 
L 365.279953 116.380218 
L 366.339761 105.063678 
L 366.339761 105.063678 
L 367.046299 94.083396 
L 367.046299 94.083396 
L 367.929473 78.995999 
L 367.929473 78.995999 
L 368.636011 70.788692 
L 368.636011 70.788692 
L 369.34255 65.2304 
L 369.34255 65.2304 
L 370.049089 61.466131 
L 370.049089 61.466131 
L 370.755628 58.916899 
L 370.755628 58.916899 
L 371.462166 57.190441 
L 371.462166 57.190441 
L 372.168705 56.021247 
L 372.168705 56.021247 
L 372.875244 55.229407 
L 372.875244 55.229407 
L 373.758417 54.58872 
L 373.758417 54.58872 
L 374.818225 54.136879 
L 374.818225 54.136879 
L 376.231303 53.828876 
L 376.231303 53.828876 
L 378.350919 53.649021 
L 378.350919 53.649021 
L 382.590151 53.575817 
L 382.590151 53.575817 
L 396.897561 53.597762 
L 396.897561 53.597762 
L 397.604099 53.70525 
L 397.604099 53.70525 
L 398.487273 53.653544 
L 398.487273 53.653544 
" clip-path="url(#p50df66fcc6)" style="fill: none; stroke: #1f77b4; stroke-width: 1.5; stroke-linecap: square"/>
   </g>
   <g id="line2d_28">
    <path d="M 73.832727 53.568 
L 92.379369 53.568 
L 92.379369 53.568 
L 92.732638 64.198568 
L 92.732638 64.198568 
L 93.085908 81.139958 
L 93.085908 81.139958 
L 93.262542 81.635745 
L 93.262542 81.635745 
L 93.615812 94.082168 
L 93.615812 94.082168 
L 93.792446 102.72691 
L 93.792446 102.72691 
L 93.969081 103.738864 
L 93.969081 103.738864 
L 94.32235 115.179364 
L 94.32235 115.179364 
L 94.498985 123.29705 
L 94.498985 123.29705 
L 94.67562 123.337086 
L 94.67562 123.337086 
L 94.852254 127.793245 
L 94.852254 127.793245 
L 95.028889 135.53609 
L 95.028889 135.53609 
L 95.205524 135.999491 
L 95.205524 135.999491 
L 95.382158 139.99197 
L 95.382158 139.99197 
L 95.558793 146.818736 
L 95.558793 146.818736 
L 95.735428 147.043708 
L 95.735428 147.043708 
L 95.912063 150.798652 
L 95.912063 150.798652 
L 96.088697 157.271181 
L 96.265332 157.265374 
L 96.265332 157.265374 
L 96.618601 167.108904 
L 96.618601 167.108904 
L 96.795236 165.826694 
L 96.795236 165.826694 
L 96.971871 170.814376 
L 96.971871 170.814376 
L 97.148505 171.491134 
L 97.148505 171.491134 
L 97.32514 174.277454 
L 97.32514 174.277454 
L 97.501775 179.504179 
L 97.501775 179.504179 
L 97.678409 178.659181 
L 97.678409 178.659181 
L 97.855044 182.406532 
L 97.855044 182.406532 
L 98.031679 182.852846 
L 98.031679 182.852846 
L 98.208313 185.132101 
L 98.208313 185.132101 
L 98.384948 185.867768 
L 98.384948 185.867768 
L 98.738217 190.94842 
L 98.738217 190.94842 
L 98.914852 191.226159 
L 98.914852 191.226159 
L 99.091487 193.343875 
L 99.091487 193.343875 
L 99.268121 193.392901 
L 99.268121 193.392901 
L 99.444756 195.040739 
L 99.444756 195.040739 
L 99.621391 195.494758 
L 99.621391 195.494758 
L 99.97466 198.066549 
L 99.97466 198.066549 
L 100.151295 197.966934 
L 100.151295 197.966934 
L 100.32793 198.749002 
L 100.32793 198.749002 
L 100.681199 199.154499 
L 100.681199 199.154499 
L 100.857834 199.402531 
L 100.857834 199.402531 
L 101.034468 199.352891 
L 101.034468 199.352891 
L 101.211103 199.608239 
L 101.211103 199.608239 
L 101.387738 199.42978 
L 101.387738 199.42978 
L 101.564372 199.649336 
L 101.564372 199.649336 
L 101.741007 199.467192 
L 101.741007 199.467192 
L 101.917642 198.87609 
L 101.917642 198.87609 
L 102.094276 199.506837 
L 102.094276 199.506837 
L 102.270911 199.207321 
L 102.270911 199.207321 
L 102.447546 199.445638 
L 102.447546 199.445638 
L 102.62418 198.912552 
L 102.62418 198.912552 
L 102.800815 199.124849 
L 102.800815 199.124849 
L 102.97745 198.346242 
L 102.97745 198.346242 
L 103.154084 198.415426 
L 103.154084 198.415426 
L 103.330719 197.412294 
L 103.330719 197.412294 
L 103.507354 197.137403 
L 103.507354 197.137403 
L 103.683989 195.89562 
L 103.683989 195.89562 
L 103.860623 192.889743 
L 103.860623 192.889743 
L 104.037258 193.781813 
L 104.037258 193.781813 
L 104.213893 189.979518 
L 104.213893 189.979518 
L 104.390527 190.745728 
L 104.390527 190.745728 
L 104.567162 186.77 
L 104.567162 186.77 
L 104.743797 186.47188 
L 104.743797 186.47188 
L 104.920431 182.683042 
L 104.920431 182.683042 
L 105.097066 181.481686 
L 105.097066 181.481686 
L 105.273701 177.322194 
L 105.273701 177.322194 
L 105.450335 167.563426 
L 105.450335 167.563426 
L 105.62697 170.602805 
L 105.62697 170.602805 
L 105.803605 160.520344 
L 105.803605 160.520344 
L 105.980239 162.326818 
L 105.980239 162.326818 
L 106.156874 151.988115 
L 106.156874 151.988115 
L 106.333509 151.13798 
L 106.333509 151.13798 
L 107.040047 121.50716 
L 107.040047 121.50716 
L 107.216682 121.574166 
L 107.216682 121.574166 
L 107.923221 135.588634 
L 107.923221 135.588634 
L 108.099856 135.447252 
L 108.099856 135.447252 
L 108.453125 140.617581 
L 108.453125 140.617581 
L 108.62976 140.756282 
L 108.62976 140.756282 
L 108.983029 143.121193 
L 108.983029 143.121193 
L 109.159664 143.296413 
L 109.159664 143.296413 
L 109.689568 144.465384 
L 109.689568 144.465384 
L 110.219472 144.057654 
L 110.219472 144.057654 
L 110.396106 144.326458 
L 110.396106 144.326458 
L 110.749376 143.969206 
L 110.749376 143.969206 
L 110.92601 143.560974 
L 111.102645 143.836144 
L 111.102645 143.836144 
L 111.27928 143.858256 
L 111.27928 143.858256 
L 111.455915 142.448623 
L 111.455915 142.448623 
L 111.632549 143.25325 
L 111.632549 143.25325 
L 111.985819 140.230623 
L 111.985819 140.230623 
L 112.162453 141.321085 
L 112.162453 141.321085 
L 112.339088 139.729141 
L 112.339088 139.729141 
L 112.515723 139.156353 
L 112.515723 139.156353 
L 112.692357 137.869844 
L 112.692357 137.869844 
L 112.868992 135.276332 
L 112.868992 135.276332 
L 113.045627 135.309332 
L 113.045627 135.309332 
L 113.222261 134.05331 
L 113.222261 134.05331 
L 113.398896 129.548572 
L 113.398896 129.548572 
L 113.575531 129.92425 
L 113.752165 127.191701 
L 113.752165 127.191701 
L 113.9288 121.560597 
L 113.9288 121.560597 
L 114.105435 122.45825 
L 114.105435 122.45825 
L 114.282069 118.173235 
L 114.282069 118.173235 
L 114.458704 110.443232 
L 114.458704 110.443232 
L 114.635339 112.051537 
L 114.988608 95.589573 
L 114.988608 95.589573 
L 115.341878 100.086047 
L 115.341878 100.086047 
L 115.518512 112.147299 
L 115.518512 112.147299 
L 115.695147 109.947111 
L 115.695147 109.947111 
L 116.048416 128.772199 
L 116.048416 128.772199 
L 116.225051 127.127767 
L 116.225051 127.127767 
L 116.57832 141.025813 
L 116.57832 141.025813 
L 116.754955 140.176515 
L 116.754955 140.176515 
L 117.108224 150.776708 
L 117.108224 150.776708 
L 117.284859 149.938075 
L 117.284859 149.938075 
L 117.638128 158.753124 
L 117.638128 158.753124 
L 117.814763 157.704373 
L 117.814763 157.704373 
L 117.991398 160.681213 
L 117.991398 160.681213 
L 118.168032 161.033607 
L 118.168032 161.033607 
L 118.697936 165.786155 
L 118.697936 165.786155 
L 119.051206 168.648807 
L 119.051206 168.648807 
L 119.227841 168.667513 
L 119.227841 168.667513 
L 119.404475 169.450251 
L 119.404475 169.450251 
L 119.58111 169.723579 
L 119.58111 169.723579 
L 119.757745 170.550094 
L 119.757745 170.550094 
L 119.934379 170.455895 
L 119.934379 170.455895 
L 120.287649 170.821467 
L 120.287649 170.821467 
L 120.464283 170.836823 
L 120.464283 170.836823 
L 120.640918 171.468296 
L 120.640918 171.468296 
L 120.817553 170.725482 
L 120.817553 170.725482 
L 121.170822 171.416422 
L 121.170822 171.416422 
L 121.347457 171.648094 
L 121.700726 171.326914 
L 121.700726 171.326914 
L 121.877361 171.586393 
L 121.877361 171.586393 
L 122.053995 171.00953 
L 122.053995 171.00953 
L 122.23063 171.605378 
L 122.23063 171.605378 
L 122.407265 170.969438 
L 122.583899 171.098145 
L 122.583899 171.098145 
L 122.760534 171.389452 
L 122.760534 171.389452 
L 122.937169 170.262305 
L 122.937169 170.262305 
L 123.113804 171.281126 
L 123.113804 171.281126 
L 123.290438 170.44791 
L 123.290438 170.44791 
L 123.467073 170.511566 
L 123.467073 170.511566 
L 123.643708 170.76937 
L 123.643708 170.76937 
L 123.820342 168.947094 
L 123.820342 168.947094 
L 123.996977 170.537084 
L 124.173612 169.232706 
L 124.173612 169.232706 
L 124.526881 169.693594 
L 124.526881 169.693594 
L 124.703516 169.370458 
L 124.703516 169.370458 
L 124.88015 169.391119 
L 124.88015 169.391119 
L 125.056785 167.482628 
L 125.056785 167.482628 
L 125.23342 167.903759 
L 125.23342 167.903759 
L 125.410054 167.617924 
L 125.410054 167.617924 
L 125.763324 167.794372 
L 125.763324 167.794372 
L 125.939958 165.775379 
L 125.939958 165.775379 
L 126.116593 166.348054 
L 126.116593 166.348054 
L 126.293228 165.334202 
L 126.293228 165.334202 
L 126.646497 165.637849 
L 126.646497 165.637849 
L 126.823132 163.463793 
L 126.823132 163.463793 
L 126.999767 164.275121 
L 126.999767 164.275121 
L 127.176401 163.006702 
L 127.176401 163.006702 
L 127.353036 163.227821 
L 127.353036 163.227821 
L 127.529671 162.533977 
L 127.529671 162.533977 
L 127.706305 160.234341 
L 127.706305 160.234341 
L 127.88294 161.217427 
L 127.88294 161.217427 
L 128.059575 159.763738 
L 128.059575 159.763738 
L 128.236209 160.026623 
L 128.236209 160.026623 
L 128.412844 159.525197 
L 128.412844 159.525197 
L 128.589479 157.110925 
L 128.589479 157.110925 
L 128.766113 158.957659 
L 128.766113 158.957659 
L 128.942748 156.652774 
L 128.942748 156.652774 
L 129.119383 156.890644 
L 129.296017 156.085906 
L 129.296017 156.085906 
L 129.472652 153.650359 
L 129.472652 153.650359 
L 129.649287 155.35169 
L 129.649287 155.35169 
L 129.825921 153.531313 
L 129.825921 153.531313 
L 130.002556 153.353636 
L 130.002556 153.353636 
L 130.179191 152.345758 
L 130.179191 152.345758 
L 130.355826 149.848734 
L 130.355826 149.848734 
L 130.53246 151.228326 
L 130.53246 151.228326 
L 130.88573 148.86442 
L 130.88573 148.86442 
L 131.062364 147.870837 
L 131.238999 146.157948 
L 131.238999 146.157948 
L 131.415634 146.569642 
L 131.415634 146.569642 
L 131.592268 145.456789 
L 131.592268 145.456789 
L 131.768903 142.4111 
L 131.768903 142.4111 
L 131.945538 143.695153 
L 131.945538 143.695153 
L 132.122172 141.316897 
L 132.122172 141.316897 
L 132.298807 141.395461 
L 132.298807 141.395461 
L 132.475442 140.661525 
L 132.475442 140.661525 
L 132.652076 137.755096 
L 132.652076 137.755096 
L 132.828711 138.220842 
L 132.828711 138.220842 
L 133.18198 133.948278 
L 133.18198 133.948278 
L 133.358615 134.809693 
L 133.358615 134.809693 
L 133.53525 133.117631 
L 133.53525 133.117631 
L 133.711884 132.530437 
L 133.711884 132.530437 
L 133.888519 131.122982 
L 133.888519 131.122982 
L 134.065154 128.497364 
L 134.241789 128.630872 
L 134.241789 128.630872 
L 134.418423 127.110904 
L 134.418423 127.110904 
L 134.595058 123.992067 
L 134.595058 123.992067 
L 134.771693 124.386116 
L 134.771693 124.386116 
L 134.948327 122.945549 
L 134.948327 122.945549 
L 135.124962 119.162351 
L 135.124962 119.162351 
L 135.301597 119.77724 
L 135.301597 119.77724 
L 135.478231 117.991426 
L 135.654866 114.012124 
L 135.654866 114.012124 
L 135.831501 114.776771 
L 135.831501 114.776771 
L 136.18477 108.559087 
L 136.18477 108.559087 
L 136.361405 109.380298 
L 136.361405 109.380298 
L 136.714674 102.686818 
L 136.714674 102.686818 
L 136.891309 103.564537 
L 136.891309 103.564537 
L 137.067943 100.960248 
L 137.067943 100.960248 
L 137.244578 96.400063 
L 137.244578 96.400063 
L 137.421213 97.294031 
L 137.421213 97.294031 
L 137.774482 90.055459 
L 137.774482 90.055459 
L 137.951117 90.137485 
L 137.951117 90.137485 
L 138.83429 76.098001 
L 138.83429 76.098001 
L 139.010925 70.870718 
L 139.010925 70.870718 
L 139.18756 71.329372 
L 139.18756 71.329372 
L 139.364194 68.808785 
L 139.364194 68.808785 
L 139.717464 57.552662 
L 139.717464 57.552662 
L 139.894098 58.787801 
L 139.894098 58.787801 
L 140.247368 53.568 
L 140.247368 53.568 
L 150.668814 53.568 
L 150.668814 53.568 
L 150.845449 56.530267 
L 150.845449 56.530267 
L 151.375353 82.194684 
L 151.375353 82.194684 
L 151.551987 80.105167 
L 151.551987 80.105167 
L 151.905257 94.379226 
L 151.905257 94.379226 
L 152.081891 103.101193 
L 152.081891 103.101193 
L 152.258526 102.205605 
L 152.258526 102.205605 
L 152.435161 107.419264 
L 152.435161 107.419264 
L 152.611795 116.798948 
L 152.611795 116.798948 
L 152.78843 118.139844 
L 153.141699 130.046312 
L 153.141699 130.046312 
L 153.318334 139.817141 
L 153.318334 139.817141 
L 153.494969 137.452566 
L 153.494969 137.452566 
L 153.848238 153.308072 
L 153.848238 153.308072 
L 154.024873 151.328667 
L 154.024873 151.328667 
L 154.378142 159.833144 
L 154.378142 159.833144 
L 154.554777 164.305329 
L 154.554777 164.305329 
L 154.731412 172.024387 
L 154.731412 172.024387 
L 154.908046 172.219597 
L 154.908046 172.219597 
L 155.084681 177.064501 
L 155.084681 177.064501 
L 155.261316 185.463947 
L 155.261316 185.463947 
L 155.43795 183.420384 
L 155.43795 183.420384 
L 155.614585 190.532147 
L 155.614585 190.532147 
L 155.79122 190.338389 
L 155.79122 190.338389 
L 155.967854 195.347457 
L 155.967854 195.347457 
L 156.144489 196.855756 
L 156.144489 196.855756 
L 156.321124 200.112345 
L 156.321124 200.112345 
L 156.497758 207.301165 
L 156.497758 207.301165 
L 156.674393 205.470904 
L 156.674393 205.470904 
L 156.851028 212.427437 
L 156.851028 212.427437 
L 157.027662 210.796686 
L 157.027662 210.796686 
L 157.204297 216.288306 
L 157.204297 216.288306 
L 157.380932 215.713007 
L 157.380932 215.713007 
L 157.557567 220.293406 
L 157.557567 220.293406 
L 157.734201 220.201105 
L 157.734201 220.201105 
L 157.910836 224.142493 
L 157.910836 224.142493 
L 158.087471 224.270474 
L 158.264105 227.716075 
L 158.264105 227.716075 
L 158.44074 227.940768 
L 158.44074 227.940768 
L 158.617375 230.996898 
L 158.617375 230.996898 
L 158.794009 231.233261 
L 158.794009 231.233261 
L 158.970644 234.02081 
L 158.970644 234.02081 
L 159.147279 234.167832 
L 159.147279 234.167832 
L 159.323913 236.732532 
L 159.323913 236.732532 
L 159.500548 237.148246 
L 159.500548 237.148246 
L 159.677183 239.111011 
L 159.677183 239.111011 
L 159.853817 239.033173 
L 159.853817 239.033173 
L 160.030452 241.341296 
L 160.030452 241.341296 
L 160.207087 240.997334 
L 160.207087 240.997334 
L 160.383721 242.886281 
L 160.383721 242.886281 
L 160.560356 243.053013 
L 160.560356 243.053013 
L 160.736991 244.267883 
L 160.736991 244.267883 
L 160.913625 244.067982 
L 160.913625 244.067982 
L 161.09026 245.328025 
L 161.09026 245.328025 
L 161.266895 245.452097 
L 161.266895 245.452097 
L 161.44353 246.003721 
L 161.44353 246.003721 
L 161.620164 246.116738 
L 161.620164 246.116738 
L 162.503338 247.515035 
L 162.503338 247.515035 
L 162.679972 247.273647 
L 162.679972 247.273647 
L 163.209876 247.254271 
L 163.209876 247.254271 
L 163.563146 247.517381 
L 163.563146 247.517381 
L 163.73978 247.32982 
L 163.73978 247.32982 
L 163.916415 247.49767 
L 163.916415 247.49767 
L 164.09305 246.959949 
L 164.09305 246.959949 
L 164.269684 247.145611 
L 164.269684 247.145611 
L 164.446319 247.119534 
L 164.446319 247.119534 
L 164.622954 247.342942 
L 164.622954 247.342942 
L 164.799588 246.720292 
L 164.799588 246.720292 
L 164.976223 247.191509 
L 164.976223 247.191509 
L 165.152858 245.72414 
L 165.152858 245.72414 
L 165.329493 246.294247 
L 165.329493 246.294247 
L 165.506127 244.866076 
L 165.506127 244.866076 
L 165.682762 245.851619 
L 165.682762 245.851619 
L 165.859397 243.750989 
L 165.859397 243.750989 
L 166.036031 244.727151 
L 166.036031 244.727151 
L 167.272474 240.005258 
L 167.272474 240.005258 
L 167.449109 238.48596 
L 167.449109 238.48596 
L 167.625743 238.12988 
L 167.625743 238.12988 
L 167.802378 235.536368 
L 167.802378 235.536368 
L 167.979013 235.677024 
L 167.979013 235.677024 
L 168.155647 233.433561 
L 168.155647 233.433561 
L 168.332282 233.820575 
L 168.332282 233.820575 
L 168.508917 230.351131 
L 168.508917 230.351131 
L 168.685551 231.011528 
L 168.685551 231.011528 
L 168.862186 227.493114 
L 168.862186 227.493114 
L 169.038821 228.811507 
L 169.038821 228.811507 
L 169.215456 224.480593 
L 169.215456 224.480593 
L 169.39209 225.664528 
L 169.39209 225.664528 
L 169.568725 221.315298 
L 169.568725 221.315298 
L 169.74536 222.744698 
L 169.74536 222.744698 
L 169.921994 218.034084 
L 169.921994 218.034084 
L 170.098629 219.669136 
L 170.098629 219.669136 
L 170.628533 215.029269 
L 170.628533 215.029269 
L 171.511706 206.073564 
L 171.511706 206.073564 
L 171.688341 200.573233 
L 171.688341 200.573233 
L 171.864976 202.36893 
L 171.864976 202.36893 
L 172.04161 196.961848 
L 172.04161 196.961848 
L 172.218245 198.590701 
L 172.218245 198.590701 
L 172.39488 193.343205 
L 172.39488 193.343205 
L 172.571514 194.735248 
L 172.571514 194.735248 
L 172.748149 189.744439 
L 172.748149 189.744439 
L 172.924784 190.704687 
L 172.924784 190.704687 
L 173.101419 186.184258 
L 173.101419 186.184258 
L 173.278053 186.839016 
L 173.278053 186.839016 
L 173.454688 182.666291 
L 173.454688 182.666291 
L 173.631323 182.84743 
L 173.631323 182.84743 
L 173.807957 179.2031 
L 173.807957 179.2031 
L 173.984592 178.509591 
L 173.984592 178.509591 
L 174.161227 175.529791 
L 174.161227 175.529791 
L 174.337861 174.727677 
L 174.337861 174.727677 
L 174.514496 172.208486 
L 174.514496 172.208486 
L 174.691131 166.784596 
L 174.691131 166.784596 
L 174.867765 168.155533 
L 174.867765 168.155533 
L 175.0444 163.671678 
L 175.0444 163.671678 
L 175.221035 164.854553 
L 175.221035 164.854553 
L 175.397669 161.211787 
L 175.397669 161.211787 
L 175.574304 160.587517 
L 175.574304 160.587517 
L 175.750939 158.635026 
L 175.750939 158.635026 
L 175.927573 153.401098 
L 175.927573 153.401098 
L 176.104208 155.004266 
L 176.280843 150.854825 
L 176.280843 150.854825 
L 176.457477 151.178965 
L 176.457477 151.178965 
L 176.987382 145.996464 
L 176.987382 145.996464 
L 177.164016 141.917826 
L 177.164016 141.917826 
L 177.340651 142.346663 
L 177.340651 142.346663 
L 177.870555 137.888996 
L 177.870555 137.888996 
L 178.04719 133.912989 
L 178.04719 133.912989 
L 178.223824 134.007578 
L 178.223824 134.007578 
L 178.400459 131.633622 
L 178.400459 131.633622 
L 178.577094 126.449166 
L 178.577094 126.449166 
L 178.753728 127.802905 
L 178.753728 127.802905 
L 178.930363 123.751628 
L 178.930363 123.751628 
L 179.106998 122.755365 
L 179.106998 122.755365 
L 179.283632 120.358012 
L 179.283632 120.358012 
L 179.460267 114.633379 
L 179.460267 114.633379 
L 179.636902 114.086891 
L 179.636902 114.086891 
L 179.813536 110.602092 
L 179.813536 110.602092 
L 179.990171 103.770468 
L 179.990171 103.770468 
L 180.166806 103.489156 
L 180.166806 103.489156 
L 180.34344 99.023281 
L 180.34344 99.023281 
L 180.520075 90.257593 
L 180.520075 90.257593 
L 180.69671 89.813904 
L 180.69671 89.813904 
L 180.873345 84.538376 
L 180.873345 84.538376 
L 181.049979 74.849294 
L 181.049979 74.849294 
L 181.226614 73.730745 
L 181.226614 73.730745 
L 181.579883 56.572983 
L 181.579883 56.572983 
L 181.756518 58.364939 
L 181.756518 58.364939 
L 181.933153 57.173857 
L 181.933153 57.173857 
L 182.463057 76.381715 
L 182.463057 76.381715 
L 182.816326 90.328005 
L 182.816326 90.328005 
L 182.992961 100.508239 
L 182.992961 100.508239 
L 183.169595 101.007878 
L 183.169595 101.007878 
L 183.522865 114.689608 
L 183.522865 114.689608 
L 183.699499 124.686023 
L 183.699499 124.686023 
L 183.876134 123.623368 
L 183.876134 123.623368 
L 184.052769 129.442814 
L 184.052769 129.442814 
L 184.229404 140.93865 
L 184.229404 140.93865 
L 184.406038 140.522823 
L 184.406038 140.522823 
L 184.582673 146.563891 
L 184.582673 146.563891 
L 184.759308 157.483589 
L 184.759308 157.483589 
L 184.935942 156.526524 
L 184.935942 156.526524 
L 185.112577 163.447321 
L 185.112577 163.447321 
L 185.289212 175.046233 
L 185.289212 175.046233 
L 185.465846 172.479635 
L 185.465846 172.479635 
L 185.642481 180.543661 
L 185.642481 180.543661 
L 185.819116 181.878806 
L 185.819116 181.878806 
L 185.99575 187.680272 
L 185.99575 187.680272 
L 186.172385 198.975761 
L 186.172385 198.975761 
L 186.34902 196.114784 
L 186.34902 196.114784 
L 186.525654 205.604469 
L 186.525654 205.604469 
L 186.702289 204.54455 
L 186.702289 204.54455 
L 186.878924 211.885752 
L 186.878924 211.885752 
L 187.055558 212.484504 
L 187.055558 212.484504 
L 187.232193 218.32193 
L 187.232193 218.32193 
L 187.408828 219.851335 
L 187.408828 219.851335 
L 187.585462 224.91183 
L 187.762097 226.719309 
L 187.762097 226.719309 
L 188.292001 237.277511 
L 188.292001 237.277511 
L 188.468636 238.538336 
L 188.468636 238.538336 
L 188.645271 242.984165 
L 188.645271 242.984165 
L 188.821905 243.819224 
L 188.821905 243.819224 
L 188.99854 247.792104 
L 188.99854 247.792104 
L 189.175175 248.215301 
L 189.351809 252.732882 
L 189.351809 252.732882 
L 189.528444 252.545322 
L 189.528444 252.545322 
L 189.705079 257.316687 
L 189.705079 257.316687 
L 189.881713 256.619828 
L 189.881713 256.619828 
L 190.058348 260.553007 
L 190.058348 260.553007 
L 190.234983 260.114511 
L 190.234983 260.114511 
L 190.411617 260.866315 
L 190.411617 260.866315 
L 190.941521 266.30059 
L 190.941521 266.30059 
L 191.118156 266.538795 
L 191.118156 266.538795 
L 191.294791 268.255147 
L 191.294791 268.255147 
L 191.471425 268.474088 
L 191.471425 268.474088 
L 191.64806 270.465386 
L 191.64806 270.465386 
L 191.824695 269.998244 
L 191.824695 269.998244 
L 192.177964 271.602473 
L 192.177964 271.602473 
L 192.354599 271.53664 
L 192.354599 271.53664 
L 192.531234 272.754245 
L 192.531234 272.754245 
L 192.707868 272.776525 
L 192.707868 272.776525 
L 193.061138 273.446973 
L 193.061138 273.446973 
L 193.237772 273.444125 
L 193.237772 273.444125 
L 193.414407 274.046841 
L 193.414407 274.046841 
L 193.591042 273.843758 
L 193.591042 273.843758 
L 193.767676 273.974978 
L 193.767676 273.974978 
L 193.944311 274.431845 
L 193.944311 274.431845 
L 194.120946 274.285382 
L 194.120946 274.285382 
L 194.474215 274.725442 
L 194.474215 274.725442 
L 194.65085 274.193919 
L 194.65085 274.193919 
L 194.827484 274.711036 
L 194.827484 274.711036 
L 195.004119 274.498069 
L 195.004119 274.498069 
L 195.180754 274.651791 
L 195.180754 274.651791 
L 195.357388 274.514932 
L 195.357388 274.514932 
L 195.710658 274.726949 
L 195.710658 274.726949 
L 195.887293 274.061862 
L 195.887293 274.061862 
L 196.063927 274.620969 
L 196.063927 274.620969 
L 196.240562 273.777478 
L 196.240562 273.777478 
L 196.417197 274.388012 
L 196.417197 274.388012 
L 196.593831 274.43486 
L 196.593831 274.43486 
L 196.770466 273.83622 
L 196.770466 273.83622 
L 196.947101 274.026796 
L 196.947101 274.026796 
L 197.123735 272.176209 
L 197.123735 272.176209 
L 197.30037 273.353556 
L 197.30037 273.353556 
L 197.653639 272.084244 
L 197.653639 272.084244 
L 197.830274 272.088544 
L 197.830274 272.088544 
L 198.006909 269.749709 
L 198.006909 269.749709 
L 198.183543 270.757196 
L 198.183543 270.757196 
L 198.890082 265.851093 
L 198.890082 265.851093 
L 199.066717 266.285179 
L 199.066717 266.285179 
L 199.243351 262.320227 
L 199.243351 262.320227 
L 199.419986 263.842597 
L 199.419986 263.842597 
L 199.596621 262.44631 
L 199.596621 262.44631 
L 200.126525 255.408029 
L 200.126525 255.408029 
L 200.30316 256.290104 
L 200.479794 250.356971 
L 200.479794 250.356971 
L 200.656429 252.433813 
L 200.656429 252.433813 
L 200.833064 250.544699 
L 200.833064 250.544699 
L 201.009698 247.137737 
L 201.009698 247.137737 
L 201.186333 246.361476 
L 201.186333 246.361476 
L 201.362968 241.198127 
L 201.362968 241.198127 
L 201.539602 241.616187 
L 201.539602 241.616187 
L 201.716237 235.130872 
L 201.892872 236.789542 
L 201.892872 236.789542 
L 202.069506 228.602337 
L 202.069506 228.602337 
L 202.246141 231.706824 
L 202.246141 231.706824 
L 202.776045 223.159966 
L 202.776045 223.159966 
L 202.95268 217.344484 
L 202.95268 217.344484 
L 203.129314 216.848642 
L 203.129314 216.848642 
L 203.305949 209.617999 
L 203.305949 209.617999 
L 203.482584 209.985414 
L 203.482584 209.985414 
L 203.659219 201.335479 
L 203.659219 201.335479 
L 203.835853 202.906595 
L 203.835853 202.906595 
L 204.012488 192.902698 
L 204.012488 192.902698 
L 204.189123 194.525911 
L 204.189123 194.525911 
L 204.365757 183.927282 
L 204.365757 183.927282 
L 204.542392 185.621745 
L 204.719027 174.996928 
L 204.719027 174.996928 
L 204.895661 175.982527 
L 204.895661 175.982527 
L 205.072296 165.80782 
L 205.072296 165.80782 
L 205.248931 166.460568 
L 205.248931 166.460568 
L 205.425565 156.3967 
L 205.425565 156.3967 
L 205.6022 155.975737 
L 205.6022 155.975737 
L 205.778835 147.154546 
L 205.778835 147.154546 
L 205.955469 144.910469 
L 205.955469 144.910469 
L 206.132104 138.772969 
L 206.132104 138.772969 
L 206.308739 125.249094 
L 206.485373 128.391885 
L 206.485373 128.391885 
L 206.662008 116.810562 
L 206.662008 116.810562 
L 206.838643 116.968416 
L 206.838643 116.968416 
L 207.191912 106.069211 
L 207.191912 106.069211 
L 207.368547 100.511813 
L 207.368547 100.511813 
L 207.545182 90.736852 
L 207.545182 90.736852 
L 207.721816 89.160821 
L 207.721816 89.160821 
L 207.898451 84.11289 
L 207.898451 84.11289 
L 208.075086 73.676247 
L 208.25172 73.396108 
L 208.25172 73.396108 
L 208.428355 67.860207 
L 208.428355 67.860207 
L 208.60499 58.707394 
L 208.60499 58.707394 
L 208.781624 58.071342 
L 208.781624 58.071342 
L 208.958259 53.758966 
L 208.958259 53.758966 
L 209.134894 53.568 
L 209.134894 53.568 
L 214.787203 53.568 
L 214.787203 53.568 
L 214.963838 53.892978 
L 214.963838 53.892978 
L 215.140473 56.745132 
L 215.140473 56.745132 
L 215.493742 67.179038 
L 215.493742 67.179038 
L 215.670377 68.400385 
L 215.670377 68.400385 
L 216.200281 82.527311 
L 216.200281 82.527311 
L 216.376916 87.989282 
L 216.376916 87.989282 
L 216.55355 88.39891 
L 216.55355 88.39891 
L 216.730185 91.692521 
L 216.730185 91.692521 
L 217.083454 104.381169 
L 217.083454 104.381169 
L 217.260089 103.68068 
L 217.260089 103.68068 
L 217.436724 107.435569 
L 217.436724 107.435569 
L 217.613358 114.280929 
L 217.613358 114.280929 
L 217.789993 115.317004 
L 217.789993 115.317004 
L 218.143262 124.424924 
L 218.143262 124.424924 
L 218.319897 132.209759 
L 218.319897 132.209759 
L 218.496532 130.248 
L 218.496532 130.248 
L 218.849801 142.334379 
L 218.849801 142.334379 
L 219.026436 141.123194 
L 219.026436 141.123194 
L 219.379705 153.168086 
L 219.379705 153.168086 
L 219.55634 151.970694 
L 219.55634 151.970694 
L 219.732975 157.08524 
L 219.732975 157.08524 
L 219.909609 158.387831 
L 219.909609 158.387831 
L 220.086244 160.959455 
L 220.086244 160.959455 
L 220.262879 167.160778 
L 220.262879 167.160778 
L 220.439513 167.258885 
L 220.439513 167.258885 
L 220.616148 170.886016 
L 220.616148 170.886016 
L 220.792783 176.994145 
L 220.792783 176.994145 
L 220.969417 175.673519 
L 220.969417 175.673519 
L 221.146052 179.694699 
L 221.146052 179.694699 
L 221.322687 180.068926 
L 221.499321 183.625757 
L 221.499321 183.625757 
L 221.675956 184.59868 
L 221.675956 184.59868 
L 221.852591 186.798198 
L 221.852591 186.798198 
L 222.029225 191.206057 
L 222.029225 191.206057 
L 222.20586 190.565483 
L 222.20586 190.565483 
L 222.382495 193.718548 
L 222.382495 193.718548 
L 222.559129 193.917053 
L 222.559129 193.917053 
L 222.735764 195.997301 
L 222.735764 195.997301 
L 222.912399 196.385152 
L 222.912399 196.385152 
L 223.265668 200.656432 
L 223.265668 200.656432 
L 223.442303 200.062649 
L 223.442303 200.062649 
L 223.618938 202.035688 
L 223.618938 202.035688 
L 223.795572 201.858291 
L 223.795572 201.858291 
L 223.972207 203.122689 
L 223.972207 203.122689 
L 224.148842 203.251005 
L 224.148842 203.251005 
L 224.502111 204.262679 
L 224.502111 204.262679 
L 224.85538 204.934244 
L 224.85538 204.934244 
L 225.032015 204.968417 
L 225.032015 204.968417 
L 225.20865 205.31143 
L 225.20865 205.31143 
L 225.561919 205.079479 
L 225.561919 205.079479 
L 225.738554 205.287141 
L 225.738554 205.287141 
L 225.915188 205.107789 
L 225.915188 205.107789 
L 226.091823 205.324106 
L 226.091823 205.324106 
L 226.268458 205.136936 
L 226.268458 205.136936 
L 226.445092 205.354426 
L 226.445092 205.354426 
L 226.621727 205.115271 
L 226.621727 205.115271 
L 226.798362 205.330583 
L 226.798362 205.330583 
L 226.974997 204.982488 
L 226.974997 204.982488 
L 227.151631 205.162008 
L 227.151631 205.162008 
L 227.328266 204.684871 
L 227.328266 204.684871 
L 227.504901 204.757014 
L 227.504901 204.757014 
L 227.681535 204.043124 
L 227.681535 204.043124 
L 227.85817 202.578658 
L 227.85817 202.578658 
L 228.034805 203.248604 
L 228.034805 203.248604 
L 228.211439 201.271432 
L 228.211439 201.271432 
L 228.388074 201.899667 
L 228.388074 201.899667 
L 228.564709 199.550223 
L 228.564709 199.550223 
L 228.741343 200.038192 
L 228.741343 200.038192 
L 228.917978 197.356959 
L 228.917978 197.356959 
L 229.094613 197.570204 
L 229.094613 197.570204 
L 229.271247 194.624242 
L 229.271247 194.624242 
L 229.447882 194.416636 
L 229.447882 194.416636 
L 229.624517 191.251398 
L 229.624517 191.251398 
L 229.801151 190.328282 
L 229.801151 190.328282 
L 230.331055 182.170169 
L 230.331055 182.170169 
L 230.50769 173.606225 
L 230.50769 173.606225 
L 230.684325 176.155345 
L 230.684325 176.155345 
L 230.86096 167.84418 
L 230.86096 167.84418 
L 231.037594 168.407586 
L 231.037594 168.407586 
L 231.214229 161.165441 
L 231.214229 161.165441 
L 231.390864 159.178275 
L 231.390864 159.178275 
L 232.097402 131.133536 
L 232.097402 131.133536 
L 232.274037 132.657637 
L 232.274037 132.657637 
L 232.450672 121.311224 
L 232.450672 121.311224 
L 232.627306 118.815931 
L 232.627306 118.815931 
L 232.803941 111.667762 
L 232.980576 97.939798 
L 232.980576 97.939798 
L 233.15721 98.554743 
L 233.51048 78.891693 
L 233.51048 78.891693 
L 233.687114 80.435561 
L 233.687114 80.435561 
L 234.040384 64.977175 
L 234.040384 64.977175 
L 234.217018 66.112475 
L 234.217018 66.112475 
L 234.746923 54.320809 
L 234.746923 54.320809 
L 234.923557 53.568 
L 234.923557 53.568 
L 241.105771 53.568 
L 241.105771 53.568 
L 241.282406 54.580345 
L 241.282406 54.580345 
L 241.635675 62.820652 
L 241.635675 62.820652 
L 241.81231 62.9598 
L 241.81231 62.9598 
L 242.165579 68.39441 
L 242.165579 68.39441 
L 242.518849 77.1013 
L 242.518849 77.1013 
L 242.695483 76.242064 
L 242.695483 76.242064 
L 243.755291 94.005279 
L 243.755291 94.005279 
L 243.931926 98.543855 
L 243.931926 98.543855 
L 244.108561 98.012779 
L 244.108561 98.012779 
L 244.285195 100.614611 
L 244.285195 100.614611 
L 244.46183 104.926205 
L 244.46183 104.926205 
L 244.638465 105.79365 
L 244.638465 105.79365 
L 245.698273 123.595728 
L 245.698273 123.595728 
L 245.874908 123.83505 
L 245.874908 123.83505 
L 246.051542 125.865547 
L 246.051542 125.865547 
L 246.228177 129.581237 
L 246.228177 129.581237 
L 246.404812 130.079592 
L 246.404812 130.079592 
L 246.581446 131.765958 
L 246.581446 131.765958 
L 246.758081 134.74453 
L 246.758081 134.74453 
L 246.934716 135.263098 
L 246.934716 135.263098 
L 247.287985 138.962316 
L 247.287985 138.962316 
L 247.46462 139.33766 
L 247.46462 139.33766 
L 247.817889 142.121859 
L 247.817889 142.121859 
L 247.994524 142.345658 
L 247.994524 142.345658 
L 248.701062 144.822915 
L 248.701062 144.822915 
L 249.230966 146.06213 
L 249.230966 146.06213 
L 249.760871 145.786066 
L 249.760871 145.786066 
L 250.11414 146.234167 
L 250.11414 146.234167 
L 250.290775 145.75033 
L 250.290775 145.75033 
L 250.467409 146.029576 
L 250.467409 146.029576 
L 250.644044 146.618389 
L 250.644044 146.618389 
L 250.820679 145.52547 
L 250.820679 145.52547 
L 250.997313 146.26499 
L 250.997313 146.26499 
L 251.173948 145.873955 
L 251.173948 145.873955 
L 251.350583 144.583035 
L 251.350583 144.583035 
L 251.527217 145.480409 
L 251.527217 145.480409 
L 251.703852 144.135771 
L 251.703852 144.135771 
L 251.880487 144.182452 
L 251.880487 144.182452 
L 252.057121 143.792367 
L 252.057121 143.792367 
L 252.233756 141.621047 
L 252.233756 141.621047 
L 252.410391 141.779292 
L 252.410391 141.779292 
L 252.587025 140.589215 
L 252.587025 140.589215 
L 252.76366 137.790051 
L 252.76366 137.790051 
L 252.940295 138.267355 
L 252.940295 138.267355 
L 253.116929 136.289905 
L 253.116929 136.289905 
L 253.293564 132.721683 
L 253.293564 132.721683 
L 253.470199 134.114843 
L 253.470199 134.114843 
L 253.646834 131.271847 
L 253.646834 131.271847 
L 254.000103 128.589776 
L 254.000103 128.589776 
L 254.176738 124.442066 
L 254.176738 124.442066 
L 254.353372 124.14618 
L 254.353372 124.14618 
L 254.530007 122.233949 
L 254.530007 122.233949 
L 254.706642 117.32243 
L 254.706642 117.32243 
L 254.883276 117.307688 
L 254.883276 117.307688 
L 255.059911 115.141059 
L 255.059911 115.141059 
L 255.236546 109.640057 
L 255.236546 109.640057 
L 255.41318 109.802322 
L 255.41318 109.802322 
L 255.589815 107.42764 
L 255.589815 107.42764 
L 255.76645 101.506568 
L 255.76645 101.506568 
L 255.943084 101.65923 
L 255.943084 101.65923 
L 257.002892 82.293182 
L 257.002892 82.293182 
L 257.356162 74.470879 
L 257.356162 74.470879 
L 257.532797 67.366654 
L 257.532797 67.366654 
L 257.709431 68.666342 
L 257.709431 68.666342 
L 257.886066 64.89822 
L 257.886066 64.89822 
L 258.062701 57.187705 
L 258.062701 57.187705 
L 258.239335 56.494028 
L 258.239335 56.494028 
L 258.41597 53.568 
L 258.41597 53.568 
L 276.256073 53.568 
L 276.256073 53.568 
L 276.432707 57.759877 
L 276.432707 57.759877 
L 276.962612 86.863642 
L 276.962612 86.863642 
L 277.139246 84.563113 
L 277.139246 84.563113 
L 277.492516 102.491217 
L 277.492516 102.491217 
L 277.66915 113.5595 
L 277.66915 113.5595 
L 277.845785 111.346413 
L 277.845785 111.346413 
L 278.02242 118.617818 
L 278.02242 118.617818 
L 278.199054 131.626028 
L 278.199054 131.626028 
L 278.375689 132.143312 
L 278.375689 132.143312 
L 278.552324 139.015641 
L 278.728958 150.788155 
L 278.728958 150.788155 
L 278.905593 152.118832 
L 279.082228 158.906846 
L 279.082228 158.906846 
L 279.258862 171.197704 
L 279.258862 171.197704 
L 279.435497 170.884062 
L 279.435497 170.884062 
L 279.612132 178.276132 
L 279.612132 178.276132 
L 279.788766 192.4135 
L 279.788766 192.4135 
L 279.965401 188.734384 
L 280.142036 199.615665 
L 280.142036 199.615665 
L 280.31867 199.506949 
L 280.31867 199.506949 
L 280.495305 207.682874 
L 280.495305 207.682874 
L 280.67194 209.587232 
L 280.67194 209.587232 
L 281.025209 218.980317 
L 281.025209 218.980317 
L 281.555113 231.399714 
L 281.555113 231.399714 
L 281.731748 242.763325 
L 281.731748 242.763325 
L 281.908383 238.563574 
L 281.908383 238.563574 
L 282.614921 252.747512 
L 282.614921 252.747512 
L 282.791556 253.988402 
L 282.791556 253.988402 
L 282.968191 259.614369 
L 282.968191 259.614369 
L 283.144825 259.752624 
L 283.32146 265.13134 
L 283.32146 265.13134 
L 283.498095 264.471725 
L 283.498095 264.471725 
L 283.674729 271.081894 
L 283.674729 271.081894 
L 283.851364 269.463818 
L 283.851364 269.463818 
L 284.027999 271.013102 
L 284.027999 271.013102 
L 284.204633 275.042993 
L 284.204633 275.042993 
L 284.381268 275.281813 
L 284.381268 275.281813 
L 284.557903 279.646453 
L 284.557903 279.646453 
L 284.734538 278.815694 
L 284.734538 278.815694 
L 284.911172 280.237555 
L 284.911172 280.237555 
L 285.087807 282.940119 
L 285.087807 282.940119 
L 285.264442 283.71867 
L 285.264442 283.71867 
L 285.441076 286.842755 
L 285.441076 286.842755 
L 285.617711 286.452279 
L 285.617711 286.452279 
L 285.794346 289.602721 
L 285.794346 289.602721 
L 285.97098 289.02636 
L 285.97098 289.02636 
L 286.147615 289.995374 
L 286.147615 289.995374 
L 286.32425 291.748355 
L 286.32425 291.748355 
L 286.500884 291.747294 
L 286.500884 291.747294 
L 286.677519 293.583195 
L 286.677519 293.583195 
L 286.854154 293.129846 
L 286.854154 293.129846 
L 287.207423 294.457675 
L 287.207423 294.457675 
L 287.384058 294.538808 
L 287.384058 294.538808 
L 287.560692 295.04325 
L 287.560692 295.04325 
L 287.737327 295.009412 
L 287.737327 295.009412 
L 287.913962 295.292846 
L 287.913962 295.292846 
L 288.090596 295.227962 
L 288.090596 295.227962 
L 288.267231 295.349801 
L 288.267231 295.349801 
L 288.443866 295.179439 
L 288.443866 295.179439 
L 288.797135 295.442492 
L 288.797135 295.442492 
L 288.97377 295.233602 
L 289.327039 295.488 
L 289.327039 295.488 
L 289.503674 295.230921 
L 289.503674 295.230921 
L 289.680309 295.353151 
L 289.680309 295.353151 
L 289.856943 294.779024 
L 289.856943 294.779024 
L 290.033578 295.010473 
L 290.033578 295.010473 
L 290.386847 294.164693 
L 290.386847 294.164693 
L 290.563482 294.240912 
L 290.563482 294.240912 
L 290.740117 292.538297 
L 290.740117 292.538297 
L 290.916751 293.107957 
L 290.916751 293.107957 
L 291.093386 292.709217 
L 291.093386 292.709217 
L 291.270021 290.940881 
L 291.270021 290.940881 
L 291.446655 290.980526 
L 291.446655 290.980526 
L 291.62329 287.846445 
L 291.62329 287.846445 
L 291.799925 288.75588 
L 291.799925 288.75588 
L 291.97656 288.007426 
L 291.97656 288.007426 
L 292.153194 285.403417 
L 292.153194 285.403417 
L 292.329829 285.361817 
L 292.329829 285.361817 
L 292.506464 281.093665 
L 292.506464 281.093665 
L 292.683098 282.378723 
L 292.683098 282.378723 
L 292.859733 280.799398 
L 292.859733 280.799398 
L 293.036368 278.173333 
L 293.036368 278.173333 
L 293.213002 277.830096 
L 293.213002 277.830096 
L 293.389637 273.102843 
L 293.389637 273.102843 
L 293.566272 274.248194 
L 293.566272 274.248194 
L 293.742906 272.686681 
L 293.742906 272.686681 
L 293.919541 269.206516 
L 293.919541 269.206516 
L 294.096176 268.670303 
L 294.096176 268.670303 
L 294.27281 262.711038 
L 294.27281 262.711038 
L 294.449445 264.765936 
L 294.449445 264.765936 
L 294.979349 258.016227 
L 294.979349 258.016227 
L 295.155984 251.711045 
L 295.155984 251.711045 
L 295.332618 253.56688 
L 295.332618 253.56688 
L 295.509253 251.053495 
L 295.509253 251.053495 
L 295.685888 246.720794 
L 295.685888 246.720794 
L 295.862523 245.190942 
L 295.862523 245.190942 
L 296.039157 239.104701 
L 296.039157 239.104701 
L 296.215792 240.099401 
L 296.392427 230.491508 
L 296.392427 230.491508 
L 296.569061 233.782661 
L 296.569061 233.782661 
L 297.628869 210.436586 
L 297.628869 210.436586 
L 297.805504 211.111724 
L 297.805504 211.111724 
L 297.982139 202.845899 
L 297.982139 202.845899 
L 298.158773 204.646789 
L 298.158773 204.646789 
L 298.335408 196.266608 
L 298.335408 196.266608 
L 298.512043 198.393202 
L 298.512043 198.393202 
L 298.688677 190.358603 
L 298.688677 190.358603 
L 298.865312 192.526349 
L 298.865312 192.526349 
L 299.041947 185.171969 
L 299.041947 185.171969 
L 299.218581 186.437484 
L 299.218581 186.437484 
L 299.395216 180.66913 
L 299.395216 180.66913 
L 299.571851 181.865963 
L 299.571851 181.865963 
L 299.748486 176.701945 
L 299.748486 176.701945 
L 299.92512 177.455647 
L 299.92512 177.455647 
L 300.101755 172.999265 
L 300.101755 172.999265 
L 300.27839 173.250648 
L 300.27839 173.250648 
L 300.455024 169.628766 
L 300.455024 169.628766 
L 300.631659 169.257945 
L 300.631659 169.257945 
L 300.808294 166.147763 
L 300.808294 166.147763 
L 300.984928 165.01961 
L 300.984928 165.01961 
L 301.161563 162.587526 
L 301.161563 162.587526 
L 301.338198 156.457229 
L 301.338198 156.457229 
L 301.514832 157.848323 
L 301.514832 157.848323 
L 301.691467 152.342017 
L 301.691467 152.342017 
L 301.868102 152.253849 
L 301.868102 152.253849 
L 302.57464 136.603045 
L 302.57464 136.603045 
L 302.751275 136.519623 
L 302.751275 136.519623 
L 303.104544 146.314853 
L 303.104544 146.314853 
L 303.281179 152.376413 
L 303.281179 152.376413 
L 303.457814 166.902471 
L 303.457814 166.902471 
L 303.634449 166.092539 
L 303.634449 166.092539 
L 303.811083 175.172762 
L 303.811083 175.172762 
L 303.987718 178.065008 
L 303.987718 178.065008 
L 304.164353 183.182346 
L 304.164353 183.182346 
L 304.340987 193.541765 
L 304.340987 193.541765 
L 304.517622 192.256037 
L 304.517622 192.256037 
L 304.694257 199.707463 
L 304.694257 199.707463 
L 304.870891 200.404825 
L 304.870891 200.404825 
L 305.224161 207.704819 
L 305.224161 207.704819 
L 305.400795 210.837559 
L 305.400795 210.837559 
L 305.57743 219.37459 
L 305.57743 219.37459 
L 305.754065 217.036369 
L 305.754065 217.036369 
L 305.930699 223.589584 
L 305.930699 223.589584 
L 306.107334 222.461766 
L 306.107334 222.461766 
L 306.283969 227.965616 
L 306.283969 227.965616 
L 306.460603 227.348828 
L 306.460603 227.348828 
L 306.637238 232.101041 
L 306.637238 232.101041 
L 306.813873 232.15727 
L 306.813873 232.15727 
L 306.990507 236.003565 
L 306.990507 236.003565 
L 307.167142 235.939631 
L 307.167142 235.939631 
L 307.343777 239.640915 
L 307.343777 239.640915 
L 307.520412 239.136697 
L 307.520412 239.136697 
L 307.697046 243.134984 
L 307.873681 243.063957 
L 307.873681 243.063957 
L 308.050316 245.995122 
L 308.050316 245.995122 
L 308.22695 246.068159 
L 308.22695 246.068159 
L 308.403585 248.744367 
L 308.403585 248.744367 
L 308.58022 248.410846 
L 308.58022 248.410846 
L 308.756854 249.180686 
L 308.756854 249.180686 
L 308.933489 251.036074 
L 308.933489 251.036074 
L 309.110124 251.321686 
L 309.110124 251.321686 
L 309.286758 252.811279 
L 309.286758 252.811279 
L 309.463393 253.289644 
L 309.463393 253.289644 
L 309.640028 255.03894 
L 309.640028 255.03894 
L 309.816662 255.319805 
L 309.816662 255.319805 
L 309.993297 257.069604 
L 310.169932 257.112487 
L 310.169932 257.112487 
L 310.346566 258.140913 
L 310.346566 258.140913 
L 310.523201 258.072902 
L 310.523201 258.072902 
L 310.699836 259.392692 
L 310.699836 259.392692 
L 310.87647 259.452606 
L 310.87647 259.452606 
L 311.22974 259.732522 
L 311.22974 259.732522 
L 311.406375 259.862848 
L 311.406375 259.862848 
L 311.583009 260.609739 
L 311.583009 260.609739 
L 312.112913 261.109601 
L 312.112913 261.109601 
L 312.289548 260.838731 
L 312.289548 260.838731 
L 312.466183 261.617449 
L 312.466183 261.617449 
L 312.642817 261.173369 
L 312.642817 261.173369 
L 312.819452 261.656424 
L 313.172721 261.603043 
L 313.172721 261.603043 
L 313.349356 261.717567 
L 313.349356 261.717567 
L 313.525991 261.167394 
L 313.525991 261.167394 
L 313.702625 261.710308 
L 313.702625 261.710308 
L 313.87926 261.276166 
L 313.87926 261.276166 
L 314.055895 261.659718 
L 314.055895 261.659718 
L 314.409164 261.452001 
L 314.409164 261.452001 
L 314.585799 260.766532 
L 314.585799 260.766532 
L 314.762433 260.642013 
L 314.762433 260.642013 
L 314.939068 260.764243 
L 314.939068 260.764243 
L 315.115703 259.924103 
L 315.115703 259.924103 
L 315.292338 260.491697 
L 315.292338 260.491697 
L 315.468972 258.205295 
L 315.468972 258.205295 
L 315.645607 259.567856 
L 315.645607 259.567856 
L 315.998876 257.754737 
L 315.998876 257.754737 
L 316.175511 257.836484 
L 316.175511 257.836484 
L 316.352146 255.040503 
L 316.352146 255.040503 
L 316.52878 255.784769 
L 316.52878 255.784769 
L 316.705415 252.684694 
L 316.705415 252.684694 
L 316.88205 254.327841 
L 316.88205 254.327841 
L 317.058684 253.38803 
L 317.058684 253.38803 
L 317.235319 251.569328 
L 317.235319 251.569328 
L 317.411954 251.431464 
L 317.411954 251.431464 
L 317.588588 247.724428 
L 317.588588 247.724428 
L 317.765223 248.317931 
L 317.765223 248.317931 
L 317.941858 244.205344 
L 317.941858 244.205344 
L 318.118492 245.876634 
L 318.118492 245.876634 
L 318.825031 237.898208 
L 318.825031 237.898208 
L 319.001666 237.56787 
L 319.001666 237.56787 
L 319.178301 233.202671 
L 319.178301 233.202671 
L 319.354935 233.555456 
L 319.354935 233.555456 
L 319.53157 228.689668 
L 319.53157 228.689668 
L 319.708205 230.026153 
L 319.708205 230.026153 
L 319.884839 223.988882 
L 319.884839 223.988882 
L 320.061474 226.100121 
L 320.061474 226.100121 
L 320.238109 219.212268 
L 320.238109 219.212268 
L 320.414743 221.791765 
L 320.414743 221.791765 
L 321.651186 205.845131 
L 321.651186 205.845131 
L 321.827821 202.054953 
L 321.827821 202.054953 
L 322.004455 201.01709 
L 322.004455 201.01709 
L 322.534359 192.404399 
L 322.534359 192.404399 
L 322.710994 191.016655 
L 322.710994 191.016655 
L 323.240898 182.557686 
L 323.240898 182.557686 
L 323.417533 174.956725 
L 323.417533 174.956725 
L 323.594168 177.067182 
L 323.594168 177.067182 
L 323.770802 170.178045 
L 323.770802 170.178045 
L 323.947437 171.689247 
L 323.947437 171.689247 
L 324.124072 165.002244 
L 324.124072 165.002244 
L 324.300706 165.604291 
L 324.300706 165.604291 
L 324.477341 159.917795 
L 324.477341 159.917795 
L 324.653976 158.778474 
L 324.653976 158.778474 
L 325.360514 139.09186 
L 325.360514 139.09186 
L 325.537149 140.270882 
L 325.537149 140.270882 
L 325.713784 133.644184 
L 325.713784 133.644184 
L 325.890418 131.960107 
L 326.067053 127.251671 
L 326.067053 127.251671 
L 326.243688 117.086625 
L 326.243688 117.086625 
L 326.420322 118.292561 
L 326.420322 118.292561 
L 326.596957 113.366021 
L 326.596957 113.366021 
L 326.773592 113.018541 
L 326.773592 113.018541 
L 326.950227 115.115429 
L 326.950227 115.115429 
L 327.126861 124.155728 
L 327.126861 124.155728 
L 327.303496 125.219388 
L 327.303496 125.219388 
L 327.480131 130.260005 
L 327.480131 130.260005 
L 327.656765 139.961874 
L 327.656765 139.961874 
L 327.8334 139.900117 
L 327.8334 139.900117 
L 328.010035 145.188375 
L 328.186669 154.027769 
L 328.186669 154.027769 
L 328.363304 153.321306 
L 328.363304 153.321306 
L 328.716573 160.885972 
L 328.716573 160.885972 
L 328.893208 164.246811 
L 328.893208 164.246811 
L 329.069843 170.82063 
L 329.069843 170.82063 
L 329.246477 171.108028 
L 329.246477 171.108028 
L 329.423112 174.839074 
L 329.423112 174.839074 
L 329.599747 181.961726 
L 329.599747 181.961726 
L 329.776381 180.311877 
L 329.776381 180.311877 
L 329.953016 185.604994 
L 329.953016 185.604994 
L 330.129651 185.556303 
L 330.129651 185.556303 
L 330.306285 189.101687 
L 330.306285 189.101687 
L 330.48292 190.306952 
L 330.48292 190.306952 
L 330.659555 192.437399 
L 330.659555 192.437399 
L 330.83619 196.940016 
L 330.83619 196.940016 
L 331.012824 196.258065 
L 331.012824 196.258065 
L 331.189459 200.02172 
L 331.189459 200.02172 
L 331.366094 199.74789 
L 331.366094 199.74789 
L 331.542728 202.402936 
L 331.542728 202.402936 
L 331.719363 202.742375 
L 331.719363 202.742375 
L 332.072632 205.234597 
L 332.072632 205.234597 
L 332.779171 209.182965 
L 332.779171 209.182965 
L 332.955806 208.944759 
L 332.955806 208.944759 
L 333.13244 209.64871 
L 333.13244 209.64871 
L 333.309075 209.727889 
L 333.309075 209.727889 
L 333.662344 210.152481 
L 333.662344 210.152481 
L 333.838979 210.112948 
L 333.838979 210.112948 
L 334.015614 210.32463 
L 334.015614 210.32463 
L 334.192248 210.155888 
L 334.192248 210.155888 
L 334.368883 210.369412 
L 334.368883 210.369412 
L 334.545518 210.180847 
L 334.545518 210.180847 
L 334.722153 210.394931 
L 334.898787 210.18833 
L 334.898787 210.18833 
L 335.075422 210.391692 
L 335.075422 210.391692 
L 335.252057 210.110324 
L 335.252057 210.110324 
L 335.428691 210.25433 
L 335.428691 210.25433 
L 335.605326 209.853022 
L 335.605326 209.853022 
L 335.781961 208.835317 
L 335.781961 208.835317 
L 335.958595 209.301286 
L 335.958595 209.301286 
L 336.13523 207.886181 
L 336.13523 207.886181 
L 336.311865 208.362703 
L 336.311865 208.362703 
L 336.488499 206.520158 
L 336.488499 206.520158 
L 336.665134 206.945588 
L 336.665134 206.945588 
L 336.841769 204.749643 
L 336.841769 204.749643 
L 337.018403 204.954457 
L 337.018403 204.954457 
L 337.195038 202.439342 
L 337.195038 202.439342 
L 337.371673 202.289082 
L 337.371673 202.289082 
L 337.548307 199.37115 
L 337.548307 199.37115 
L 337.724942 198.842252 
L 337.724942 198.842252 
L 338.254846 191.183275 
L 338.254846 191.183275 
L 338.431481 182.960055 
L 338.431481 182.960055 
L 338.608116 185.45049 
L 338.608116 185.45049 
L 338.78475 176.519801 
L 338.78475 176.519801 
L 338.961385 178.044292 
L 338.961385 178.044292 
L 339.13802 168.746133 
L 339.13802 168.746133 
L 339.314654 169.031745 
L 339.314654 169.031745 
L 339.491289 159.409947 
L 339.491289 159.409947 
L 339.667924 158.076757 
L 339.667924 158.076757 
L 339.844558 154.359559 
L 339.844558 154.359559 
L 340.021193 156.252303 
L 340.021193 156.252303 
L 340.197828 161.898707 
L 340.197828 161.898707 
L 340.374462 171.24969 
L 340.374462 171.24969 
L 340.551097 170.763675 
L 340.551097 170.763675 
L 340.727732 177.218614 
L 340.904366 177.743716 
L 340.904366 177.743716 
L 341.257636 184.550603 
L 341.257636 184.550603 
L 341.43427 184.567131 
L 341.43427 184.567131 
L 341.610905 186.472159 
L 341.610905 186.472159 
L 342.317444 188.191303 
L 342.317444 188.191303 
L 342.494079 187.724943 
L 342.494079 187.724943 
L 342.670713 188.333634 
L 342.670713 188.333634 
L 342.847348 188.178627 
L 342.847348 188.178627 
L 343.023983 188.396005 
L 343.023983 188.396005 
L 343.200617 188.242283 
L 343.200617 188.242283 
L 343.377252 188.407173 
L 343.377252 188.407173 
L 343.553887 187.925848 
L 343.553887 187.925848 
L 343.730521 186.139588 
L 343.730521 186.139588 
L 343.907156 187.198836 
L 343.907156 187.198836 
L 344.083791 185.055547 
L 344.083791 185.055547 
L 344.260425 185.295427 
L 344.43706 182.675392 
L 344.43706 182.675392 
L 344.613695 181.902537 
L 344.613695 181.902537 
L 344.790329 179.573251 
L 344.790329 179.573251 
L 344.966964 171.386549 
L 344.966964 171.386549 
L 345.143599 174.096204 
L 345.143599 174.096204 
L 345.320233 166.452248 
L 345.320233 166.452248 
L 345.496868 166.701286 
L 345.496868 166.701286 
L 345.673503 159.771164 
L 345.673503 159.771164 
L 345.850138 157.343603 
L 345.850138 157.343603 
L 346.203407 148.82941 
L 346.203407 148.82941 
L 346.380042 146.490911 
L 346.380042 146.490911 
L 346.556676 157.52061 
L 346.556676 157.52061 
L 346.733311 157.640159 
L 346.733311 157.640159 
L 346.909946 164.616794 
L 346.909946 164.616794 
L 347.263215 170.649933 
L 347.263215 170.649933 
L 347.43985 176.228214 
L 347.43985 176.228214 
L 347.616484 176.517065 
L 347.616484 176.517065 
L 347.969754 182.541548 
L 347.969754 182.541548 
L 348.146388 182.677403 
L 348.323023 184.438592 
L 348.323023 184.438592 
L 348.499658 184.78892 
L 348.499658 184.78892 
L 348.852927 186.075039 
L 348.852927 186.075039 
L 349.206196 186.320838 
L 349.206196 186.320838 
L 349.382831 186.547597 
L 349.382831 186.547597 
L 349.736101 186.234848 
L 349.736101 186.234848 
L 349.912735 186.47283 
L 349.912735 186.47283 
L 350.08937 185.847275 
L 350.08937 185.847275 
L 350.266005 186.517668 
L 350.266005 186.517668 
L 350.442639 185.83795 
L 350.442639 185.83795 
L 350.619274 186.51683 
L 350.619274 186.51683 
L 350.972543 185.937454 
L 350.972543 185.937454 
L 351.149178 185.916794 
L 351.149178 185.916794 
L 351.325813 185.575232 
L 351.325813 185.575232 
L 351.502447 185.537653 
L 351.502447 185.537653 
L 351.679082 184.454227 
L 351.679082 184.454227 
L 351.855717 184.888535 
L 351.855717 184.888535 
L 352.032351 183.419044 
L 352.032351 183.419044 
L 352.208986 184.096584 
L 352.208986 184.096584 
L 352.385621 183.148229 
L 352.385621 183.148229 
L 352.562255 183.191392 
L 352.562255 183.191392 
L 352.73889 182.410776 
L 352.73889 182.410776 
L 352.915525 180.393066 
L 352.915525 180.393066 
L 353.092159 181.470406 
L 353.092159 181.470406 
L 353.268794 179.96261 
L 353.268794 179.96261 
L 353.445429 180.364309 
L 353.445429 180.364309 
L 353.622064 179.056023 
L 353.622064 179.056023 
L 353.798698 178.734116 
L 353.798698 178.734116 
L 354.328602 176.914464 
L 354.328602 176.914464 
L 354.505237 174.81914 
L 354.505237 174.81914 
L 354.681872 175.393826 
L 354.681872 175.393826 
L 354.858506 173.132327 
L 354.858506 173.132327 
L 355.035141 173.25344 
L 355.565045 170.58678 
L 355.565045 170.58678 
L 355.74168 167.610609 
L 355.74168 167.610609 
L 355.918314 168.31925 
L 355.918314 168.31925 
L 356.094949 165.971147 
L 356.094949 165.971147 
L 356.271584 165.874659 
L 356.271584 165.874659 
L 356.448218 164.220064 
L 356.448218 164.220064 
L 356.624853 160.400627 
L 356.624853 160.400627 
L 356.801488 161.812437 
L 356.801488 161.812437 
L 356.978122 158.528711 
L 356.978122 158.528711 
L 357.154757 158.858267 
L 357.154757 158.858267 
L 357.508027 155.654556 
L 357.508027 155.654556 
L 357.684661 154.308635 
L 357.684661 154.308635 
L 357.861296 150.567538 
L 357.861296 150.567538 
L 358.037931 151.101518 
L 358.037931 151.101518 
L 358.214565 148.620631 
L 358.214565 148.620631 
L 358.3912 148.132104 
L 358.3912 148.132104 
L 358.567835 146.390346 
L 358.567835 146.390346 
L 358.744469 142.719717 
L 358.744469 142.719717 
L 358.921104 143.123985 
L 358.921104 143.123985 
L 359.274373 137.671451 
L 359.274373 137.671451 
L 359.451008 139.181983 
L 359.451008 139.181983 
L 359.627643 136.585735 
L 359.627643 136.585735 
L 359.804277 136.190234 
L 359.804277 136.190234 
L 359.980912 135.17197 
L 359.980912 135.17197 
L 360.157547 132.083565 
L 360.157547 132.083565 
L 360.334181 132.573489 
L 360.334181 132.573489 
L 360.687451 128.869301 
L 360.687451 128.869301 
L 360.864085 129.569232 
L 360.864085 129.569232 
L 361.217355 128.045689 
L 361.217355 128.045689 
L 361.39399 127.59502 
L 361.39399 127.59502 
L 361.570624 125.791449 
L 361.570624 125.791449 
L 361.747259 125.946065 
L 361.923894 125.206043 
L 361.923894 125.206043 
L 362.100528 123.837172 
L 362.100528 123.837172 
L 362.277163 124.085707 
L 362.277163 124.085707 
L 362.453798 123.756933 
L 362.453798 123.756933 
L 362.630432 121.798356 
L 362.630432 121.798356 
L 362.807067 122.098318 
L 362.807067 122.098318 
L 362.983702 121.606663 
L 362.983702 121.606663 
L 363.160336 119.22757 
L 363.160336 119.22757 
L 363.336971 119.57036 
L 363.336971 119.57036 
L 363.513606 118.731281 
L 363.69024 115.772308 
L 363.69024 115.772308 
L 363.866875 116.141621 
L 363.866875 116.141621 
L 364.04351 114.470276 
L 364.04351 114.470276 
L 364.220144 111.166726 
L 364.220144 111.166726 
L 364.396779 111.506892 
L 364.396779 111.506892 
L 365.633222 93.836033 
L 365.633222 93.836033 
L 365.809857 88.73433 
L 365.809857 88.73433 
L 365.986491 87.737955 
L 365.986491 87.737955 
L 366.339761 78.55901 
L 366.339761 78.55901 
L 366.516395 69.904887 
L 366.516395 69.904887 
L 366.69303 70.958607 
L 366.69303 70.958607 
L 366.869665 66.450519 
L 366.869665 66.450519 
L 367.046299 58.309269 
L 367.046299 58.309269 
L 367.222934 57.015723 
L 367.222934 57.015723 
L 367.399569 53.568 
L 367.399569 53.568 
L 396.720926 53.568 
L 396.720926 53.568 
L 397.074195 53.894765 
L 397.074195 53.894765 
L 397.25083 53.568 
L 397.25083 53.568 
L 398.487273 53.568 
L 398.487273 53.568 
" clip-path="url(#p50df66fcc6)" style="fill: none; stroke: #ff7f0e; stroke-width: 1.5; stroke-linecap: square"/>
   </g>
   <g id="patch_3">
    <path d="M 57.6 307.584 
L 57.6 41.472 
" style="fill: none; stroke: #000000; stroke-width: 0.8; stroke-linejoin: miter; stroke-linecap: square"/>
   </g>
   <g id="patch_4">
    <path d="M 414.72 307.584 
L 414.72 41.472 
" style="fill: none; stroke: #000000; stroke-width: 0.8; stroke-linejoin: miter; stroke-linecap: square"/>
   </g>
   <g id="patch_5">
    <path d="M 57.6 307.584 
L 414.72 307.584 
" style="fill: none; stroke: #000000; stroke-width: 0.8; stroke-linejoin: miter; stroke-linecap: square"/>
   </g>
   <g id="patch_6">
    <path d="M 57.6 41.472 
L 414.72 41.472 
" style="fill: none; stroke: #000000; stroke-width: 0.8; stroke-linejoin: miter; stroke-linecap: square"/>
   </g>
   <g id="text_16">
    <!-- Actual speed vs Expected speed -->
    <g transform="translate(138.808125 35.472) scale(0.12 -0.12)">
     <defs>
      <path id="DejaVuSans-41" d="M 2188 4044 
L 1331 1722 
L 3047 1722 
L 2188 4044 
z
M 1831 4666 
L 2547 4666 
L 4325 0 
L 3669 0 
L 3244 1197 
L 1141 1197 
L 716 0 
L 50 0 
L 1831 4666 
z
" transform="scale(0.015625)"/>
      <path id="DejaVuSans-75" d="M 544 1381 
L 544 3500 
L 1119 3500 
L 1119 1403 
Q 1119 906 1312 657 
Q 1506 409 1894 409 
Q 2359 409 2629 706 
Q 2900 1003 2900 1516 
L 2900 3500 
L 3475 3500 
L 3475 0 
L 2900 0 
L 2900 538 
Q 2691 219 2414 64 
Q 2138 -91 1772 -91 
Q 1169 -91 856 284 
Q 544 659 544 1381 
z
M 1991 3584 
L 1991 3584 
z
" transform="scale(0.015625)"/>
      <path id="DejaVuSans-61" d="M 2194 1759 
Q 1497 1759 1228 1600 
Q 959 1441 959 1056 
Q 959 750 1161 570 
Q 1363 391 1709 391 
Q 2188 391 2477 730 
Q 2766 1069 2766 1631 
L 2766 1759 
L 2194 1759 
z
M 3341 1997 
L 3341 0 
L 2766 0 
L 2766 531 
Q 2569 213 2275 61 
Q 1981 -91 1556 -91 
Q 1019 -91 701 211 
Q 384 513 384 1019 
Q 384 1609 779 1909 
Q 1175 2209 1959 2209 
L 2766 2209 
L 2766 2266 
Q 2766 2663 2505 2880 
Q 2244 3097 1772 3097 
Q 1472 3097 1187 3025 
Q 903 2953 641 2809 
L 641 3341 
Q 956 3463 1253 3523 
Q 1550 3584 1831 3584 
Q 2591 3584 2966 3190 
Q 3341 2797 3341 1997 
z
" transform="scale(0.015625)"/>
      <path id="DejaVuSans-20" transform="scale(0.015625)"/>
      <path id="DejaVuSans-70" d="M 1159 525 
L 1159 -1331 
L 581 -1331 
L 581 3500 
L 1159 3500 
L 1159 2969 
Q 1341 3281 1617 3432 
Q 1894 3584 2278 3584 
Q 2916 3584 3314 3078 
Q 3713 2572 3713 1747 
Q 3713 922 3314 415 
Q 2916 -91 2278 -91 
Q 1894 -91 1617 61 
Q 1341 213 1159 525 
z
M 3116 1747 
Q 3116 2381 2855 2742 
Q 2594 3103 2138 3103 
Q 1681 3103 1420 2742 
Q 1159 2381 1159 1747 
Q 1159 1113 1420 752 
Q 1681 391 2138 391 
Q 2594 391 2855 752 
Q 3116 1113 3116 1747 
z
" transform="scale(0.015625)"/>
      <path id="DejaVuSans-64" d="M 2906 2969 
L 2906 4863 
L 3481 4863 
L 3481 0 
L 2906 0 
L 2906 525 
Q 2725 213 2448 61 
Q 2172 -91 1784 -91 
Q 1150 -91 751 415 
Q 353 922 353 1747 
Q 353 2572 751 3078 
Q 1150 3584 1784 3584 
Q 2172 3584 2448 3432 
Q 2725 3281 2906 2969 
z
M 947 1747 
Q 947 1113 1208 752 
Q 1469 391 1925 391 
Q 2381 391 2643 752 
Q 2906 1113 2906 1747 
Q 2906 2381 2643 2742 
Q 2381 3103 1925 3103 
Q 1469 3103 1208 2742 
Q 947 2381 947 1747 
z
" transform="scale(0.015625)"/>
      <path id="DejaVuSans-76" d="M 191 3500 
L 800 3500 
L 1894 563 
L 2988 3500 
L 3597 3500 
L 2284 0 
L 1503 0 
L 191 3500 
z
" transform="scale(0.015625)"/>
      <path id="DejaVuSans-45" d="M 628 4666 
L 3578 4666 
L 3578 4134 
L 1259 4134 
L 1259 2753 
L 3481 2753 
L 3481 2222 
L 1259 2222 
L 1259 531 
L 3634 531 
L 3634 0 
L 628 0 
L 628 4666 
z
" transform="scale(0.015625)"/>
      <path id="DejaVuSans-78" d="M 3513 3500 
L 2247 1797 
L 3578 0 
L 2900 0 
L 1881 1375 
L 863 0 
L 184 0 
L 1544 1831 
L 300 3500 
L 978 3500 
L 1906 2253 
L 2834 3500 
L 3513 3500 
z
" transform="scale(0.015625)"/>
     </defs>
     <use xlink:href="#DejaVuSans-41"/>
     <use xlink:href="#DejaVuSans-63" x="66.658203"/>
     <use xlink:href="#DejaVuSans-74" x="121.638672"/>
     <use xlink:href="#DejaVuSans-75" x="160.847656"/>
     <use xlink:href="#DejaVuSans-61" x="224.226562"/>
     <use xlink:href="#DejaVuSans-6c" x="285.505859"/>
     <use xlink:href="#DejaVuSans-20" x="313.289062"/>
     <use xlink:href="#DejaVuSans-73" x="345.076172"/>
     <use xlink:href="#DejaVuSans-70" x="397.175781"/>
     <use xlink:href="#DejaVuSans-65" x="460.652344"/>
     <use xlink:href="#DejaVuSans-65" x="522.175781"/>
     <use xlink:href="#DejaVuSans-64" x="583.699219"/>
     <use xlink:href="#DejaVuSans-20" x="647.175781"/>
     <use xlink:href="#DejaVuSans-76" x="678.962891"/>
     <use xlink:href="#DejaVuSans-73" x="738.142578"/>
     <use xlink:href="#DejaVuSans-20" x="790.242188"/>
     <use xlink:href="#DejaVuSans-45" x="822.029297"/>
     <use xlink:href="#DejaVuSans-78" x="885.212891"/>
     <use xlink:href="#DejaVuSans-70" x="944.392578"/>
     <use xlink:href="#DejaVuSans-65" x="1007.869141"/>
     <use xlink:href="#DejaVuSans-63" x="1069.392578"/>
     <use xlink:href="#DejaVuSans-74" x="1124.373047"/>
     <use xlink:href="#DejaVuSans-65" x="1163.582031"/>
     <use xlink:href="#DejaVuSans-64" x="1225.105469"/>
     <use xlink:href="#DejaVuSans-20" x="1288.582031"/>
     <use xlink:href="#DejaVuSans-73" x="1320.369141"/>
     <use xlink:href="#DejaVuSans-70" x="1372.46875"/>
     <use xlink:href="#DejaVuSans-65" x="1435.945312"/>
     <use xlink:href="#DejaVuSans-65" x="1497.46875"/>
     <use xlink:href="#DejaVuSans-64" x="1558.992188"/>
    </g>
   </g>
   <g id="legend_1">
    <g id="patch_7">
     <path d="M 64.6 302.584 
L 176.65 302.584 
Q 178.65 302.584 178.65 300.584 
L 178.65 272.22775 
Q 178.65 270.22775 176.65 270.22775 
L 64.6 270.22775 
Q 62.6 270.22775 62.6 272.22775 
L 62.6 300.584 
Q 62.6 302.584 64.6 302.584 
z
" style="fill: #ffffff; opacity: 0.8; stroke: #cccccc; stroke-linejoin: miter"/>
    </g>
    <g id="line2d_29">
     <path d="M 66.6 278.326187 
L 76.6 278.326187 
L 86.6 278.326187 
" style="fill: none; stroke: #1f77b4; stroke-width: 1.5; stroke-linecap: square"/>
    </g>
    <g id="text_17">
     <!-- Actual speed -->
     <g transform="translate(94.6 281.826187) scale(0.1 -0.1)">
      <use xlink:href="#DejaVuSans-41"/>
      <use xlink:href="#DejaVuSans-63" x="66.658203"/>
      <use xlink:href="#DejaVuSans-74" x="121.638672"/>
      <use xlink:href="#DejaVuSans-75" x="160.847656"/>
      <use xlink:href="#DejaVuSans-61" x="224.226562"/>
      <use xlink:href="#DejaVuSans-6c" x="285.505859"/>
      <use xlink:href="#DejaVuSans-20" x="313.289062"/>
      <use xlink:href="#DejaVuSans-73" x="345.076172"/>
      <use xlink:href="#DejaVuSans-70" x="397.175781"/>
      <use xlink:href="#DejaVuSans-65" x="460.652344"/>
      <use xlink:href="#DejaVuSans-65" x="522.175781"/>
      <use xlink:href="#DejaVuSans-64" x="583.699219"/>
     </g>
    </g>
    <g id="line2d_30">
     <path d="M 66.6 293.004312 
L 76.6 293.004312 
L 86.6 293.004312 
" style="fill: none; stroke: #ff7f0e; stroke-width: 1.5; stroke-linecap: square"/>
    </g>
    <g id="text_18">
     <!-- Expected speed -->
     <g transform="translate(94.6 296.504312) scale(0.1 -0.1)">
      <use xlink:href="#DejaVuSans-45"/>
      <use xlink:href="#DejaVuSans-78" x="63.183594"/>
      <use xlink:href="#DejaVuSans-70" x="122.363281"/>
      <use xlink:href="#DejaVuSans-65" x="185.839844"/>
      <use xlink:href="#DejaVuSans-63" x="247.363281"/>
      <use xlink:href="#DejaVuSans-74" x="302.34375"/>
      <use xlink:href="#DejaVuSans-65" x="341.552734"/>
      <use xlink:href="#DejaVuSans-64" x="403.076172"/>
      <use xlink:href="#DejaVuSans-20" x="466.552734"/>
      <use xlink:href="#DejaVuSans-73" x="498.339844"/>
      <use xlink:href="#DejaVuSans-70" x="550.439453"/>
      <use xlink:href="#DejaVuSans-65" x="613.916016"/>
      <use xlink:href="#DejaVuSans-65" x="675.439453"/>
      <use xlink:href="#DejaVuSans-64" x="736.962891"/>
     </g>
    </g>
   </g>
  </g>
 </g>
 <defs>
  <clipPath id="p50df66fcc6">
   <rect x="57.6" y="41.472" width="357.12" height="266.112"/>
  </clipPath>
 </defs>
</svg>
