<?xml version="1.0" encoding="utf-8" standalone="no"?>
<!DOCTYPE svg PUBLIC "-//W3C//DTD SVG 1.1//EN"
  "http://www.w3.org/Graphics/SVG/1.1/DTD/svg11.dtd">
<svg xmlns:xlink="http://www.w3.org/1999/xlink" width="460.8pt" height="345.6pt" viewBox="0 0 460.8 345.6" xmlns="http://www.w3.org/2000/svg" version="1.1">
 <metadata>
  <rdf:RDF xmlns:dc="http://purl.org/dc/elements/1.1/" xmlns:cc="http://creativecommons.org/ns#" xmlns:rdf="http://www.w3.org/1999/02/22-rdf-syntax-ns#">
   <cc:Work>
    <dc:type rdf:resource="http://purl.org/dc/dcmitype/StillImage"/>
    <dc:date>2024-01-30T20:58:58.445945</dc:date>
    <dc:format>image/svg+xml</dc:format>
    <dc:creator>
     <cc:Agent>
      <dc:title>Matplotlib v3.7.1, https://matplotlib.org/</dc:title>
     </cc:Agent>
    </dc:creator>
   </cc:Work>
  </rdf:RDF>
 </metadata>
 <defs>
  <style type="text/css">*{stroke-linejoin: round; stroke-linecap: butt}</style>
 </defs>
 <g id="figure_1">
  <g id="patch_1">
   <path d="M 0 345.6 
L 460.8 345.6 
L 460.8 0 
L 0 0 
z
" style="fill: #ffffff"/>
  </g>
  <g id="axes_1">
   <g id="patch_2">
    <path d="M 57.6 307.584 
L 414.72 307.584 
L 414.72 41.472 
L 57.6 41.472 
z
" style="fill: #ffffff"/>
   </g>
   <g id="matplotlib.axis_1">
    <g id="xtick_1">
     <g id="line2d_1">
      <path d="M 73.832727 307.584 
L 73.832727 41.472 
" clip-path="url(#p768fe48069)" style="fill: none; stroke: #b0b0b0; stroke-width: 0.8; stroke-linecap: square"/>
     </g>
     <g id="line2d_2">
      <defs>
       <path id="m227169c456" d="M 0 0 
L 0 3.5 
" style="stroke: #000000; stroke-width: 0.8"/>
      </defs>
      <g>
       <use xlink:href="#m227169c456" x="73.832727" y="307.584" style="stroke: #000000; stroke-width: 0.8"/>
      </g>
     </g>
     <g id="text_1">
      <!-- 0 -->
      <g transform="translate(70.651477 322.182437) scale(0.1 -0.1)">
       <defs>
        <path id="DejaVuSans-30" d="M 2034 4250 
Q 1547 4250 1301 3770 
Q 1056 3291 1056 2328 
Q 1056 1369 1301 889 
Q 1547 409 2034 409 
Q 2525 409 2770 889 
Q 3016 1369 3016 2328 
Q 3016 3291 2770 3770 
Q 2525 4250 2034 4250 
z
M 2034 4750 
Q 2819 4750 3233 4129 
Q 3647 3509 3647 2328 
Q 3647 1150 3233 529 
Q 2819 -91 2034 -91 
Q 1250 -91 836 529 
Q 422 1150 422 2328 
Q 422 3509 836 4129 
Q 1250 4750 2034 4750 
z
" transform="scale(0.015625)"/>
       </defs>
       <use xlink:href="#DejaVuSans-30"/>
      </g>
     </g>
    </g>
    <g id="xtick_2">
     <g id="line2d_3">
      <path d="M 118.015436 307.584 
L 118.015436 41.472 
" clip-path="url(#p768fe48069)" style="fill: none; stroke: #b0b0b0; stroke-width: 0.8; stroke-linecap: square"/>
     </g>
     <g id="line2d_4">
      <g>
       <use xlink:href="#m227169c456" x="118.015436" y="307.584" style="stroke: #000000; stroke-width: 0.8"/>
      </g>
     </g>
     <g id="text_2">
      <!-- 5 -->
      <g transform="translate(114.834186 322.182437) scale(0.1 -0.1)">
       <defs>
        <path id="DejaVuSans-35" d="M 691 4666 
L 3169 4666 
L 3169 4134 
L 1269 4134 
L 1269 2991 
Q 1406 3038 1543 3061 
Q 1681 3084 1819 3084 
Q 2600 3084 3056 2656 
Q 3513 2228 3513 1497 
Q 3513 744 3044 326 
Q 2575 -91 1722 -91 
Q 1428 -91 1123 -41 
Q 819 9 494 109 
L 494 744 
Q 775 591 1075 516 
Q 1375 441 1709 441 
Q 2250 441 2565 725 
Q 2881 1009 2881 1497 
Q 2881 1984 2565 2268 
Q 2250 2553 1709 2553 
Q 1456 2553 1204 2497 
Q 953 2441 691 2322 
L 691 4666 
z
" transform="scale(0.015625)"/>
       </defs>
       <use xlink:href="#DejaVuSans-35"/>
      </g>
     </g>
    </g>
    <g id="xtick_3">
     <g id="line2d_5">
      <path d="M 162.198145 307.584 
L 162.198145 41.472 
" clip-path="url(#p768fe48069)" style="fill: none; stroke: #b0b0b0; stroke-width: 0.8; stroke-linecap: square"/>
     </g>
     <g id="line2d_6">
      <g>
       <use xlink:href="#m227169c456" x="162.198145" y="307.584" style="stroke: #000000; stroke-width: 0.8"/>
      </g>
     </g>
     <g id="text_3">
      <!-- 10 -->
      <g transform="translate(155.835645 322.182437) scale(0.1 -0.1)">
       <defs>
        <path id="DejaVuSans-31" d="M 794 531 
L 1825 531 
L 1825 4091 
L 703 3866 
L 703 4441 
L 1819 4666 
L 2450 4666 
L 2450 531 
L 3481 531 
L 3481 0 
L 794 0 
L 794 531 
z
" transform="scale(0.015625)"/>
       </defs>
       <use xlink:href="#DejaVuSans-31"/>
       <use xlink:href="#DejaVuSans-30" x="63.623047"/>
      </g>
     </g>
    </g>
    <g id="xtick_4">
     <g id="line2d_7">
      <path d="M 206.380854 307.584 
L 206.380854 41.472 
" clip-path="url(#p768fe48069)" style="fill: none; stroke: #b0b0b0; stroke-width: 0.8; stroke-linecap: square"/>
     </g>
     <g id="line2d_8">
      <g>
       <use xlink:href="#m227169c456" x="206.380854" y="307.584" style="stroke: #000000; stroke-width: 0.8"/>
      </g>
     </g>
     <g id="text_4">
      <!-- 15 -->
      <g transform="translate(200.018354 322.182437) scale(0.1 -0.1)">
       <use xlink:href="#DejaVuSans-31"/>
       <use xlink:href="#DejaVuSans-35" x="63.623047"/>
      </g>
     </g>
    </g>
    <g id="xtick_5">
     <g id="line2d_9">
      <path d="M 250.563563 307.584 
L 250.563563 41.472 
" clip-path="url(#p768fe48069)" style="fill: none; stroke: #b0b0b0; stroke-width: 0.8; stroke-linecap: square"/>
     </g>
     <g id="line2d_10">
      <g>
       <use xlink:href="#m227169c456" x="250.563563" y="307.584" style="stroke: #000000; stroke-width: 0.8"/>
      </g>
     </g>
     <g id="text_5">
      <!-- 20 -->
      <g transform="translate(244.201063 322.182437) scale(0.1 -0.1)">
       <defs>
        <path id="DejaVuSans-32" d="M 1228 531 
L 3431 531 
L 3431 0 
L 469 0 
L 469 531 
Q 828 903 1448 1529 
Q 2069 2156 2228 2338 
Q 2531 2678 2651 2914 
Q 2772 3150 2772 3378 
Q 2772 3750 2511 3984 
Q 2250 4219 1831 4219 
Q 1534 4219 1204 4116 
Q 875 4013 500 3803 
L 500 4441 
Q 881 4594 1212 4672 
Q 1544 4750 1819 4750 
Q 2544 4750 2975 4387 
Q 3406 4025 3406 3419 
Q 3406 3131 3298 2873 
Q 3191 2616 2906 2266 
Q 2828 2175 2409 1742 
Q 1991 1309 1228 531 
z
" transform="scale(0.015625)"/>
       </defs>
       <use xlink:href="#DejaVuSans-32"/>
       <use xlink:href="#DejaVuSans-30" x="63.623047"/>
      </g>
     </g>
    </g>
    <g id="xtick_6">
     <g id="line2d_11">
      <path d="M 294.746272 307.584 
L 294.746272 41.472 
" clip-path="url(#p768fe48069)" style="fill: none; stroke: #b0b0b0; stroke-width: 0.8; stroke-linecap: square"/>
     </g>
     <g id="line2d_12">
      <g>
       <use xlink:href="#m227169c456" x="294.746272" y="307.584" style="stroke: #000000; stroke-width: 0.8"/>
      </g>
     </g>
     <g id="text_6">
      <!-- 25 -->
      <g transform="translate(288.383772 322.182437) scale(0.1 -0.1)">
       <use xlink:href="#DejaVuSans-32"/>
       <use xlink:href="#DejaVuSans-35" x="63.623047"/>
      </g>
     </g>
    </g>
    <g id="xtick_7">
     <g id="line2d_13">
      <path d="M 338.928981 307.584 
L 338.928981 41.472 
" clip-path="url(#p768fe48069)" style="fill: none; stroke: #b0b0b0; stroke-width: 0.8; stroke-linecap: square"/>
     </g>
     <g id="line2d_14">
      <g>
       <use xlink:href="#m227169c456" x="338.928981" y="307.584" style="stroke: #000000; stroke-width: 0.8"/>
      </g>
     </g>
     <g id="text_7">
      <!-- 30 -->
      <g transform="translate(332.566481 322.182437) scale(0.1 -0.1)">
       <defs>
        <path id="DejaVuSans-33" d="M 2597 2516 
Q 3050 2419 3304 2112 
Q 3559 1806 3559 1356 
Q 3559 666 3084 287 
Q 2609 -91 1734 -91 
Q 1441 -91 1130 -33 
Q 819 25 488 141 
L 488 750 
Q 750 597 1062 519 
Q 1375 441 1716 441 
Q 2309 441 2620 675 
Q 2931 909 2931 1356 
Q 2931 1769 2642 2001 
Q 2353 2234 1838 2234 
L 1294 2234 
L 1294 2753 
L 1863 2753 
Q 2328 2753 2575 2939 
Q 2822 3125 2822 3475 
Q 2822 3834 2567 4026 
Q 2313 4219 1838 4219 
Q 1578 4219 1281 4162 
Q 984 4106 628 3988 
L 628 4550 
Q 988 4650 1302 4700 
Q 1616 4750 1894 4750 
Q 2613 4750 3031 4423 
Q 3450 4097 3450 3541 
Q 3450 3153 3228 2886 
Q 3006 2619 2597 2516 
z
" transform="scale(0.015625)"/>
       </defs>
       <use xlink:href="#DejaVuSans-33"/>
       <use xlink:href="#DejaVuSans-30" x="63.623047"/>
      </g>
     </g>
    </g>
    <g id="xtick_8">
     <g id="line2d_15">
      <path d="M 383.11169 307.584 
L 383.11169 41.472 
" clip-path="url(#p768fe48069)" style="fill: none; stroke: #b0b0b0; stroke-width: 0.8; stroke-linecap: square"/>
     </g>
     <g id="line2d_16">
      <g>
       <use xlink:href="#m227169c456" x="383.11169" y="307.584" style="stroke: #000000; stroke-width: 0.8"/>
      </g>
     </g>
     <g id="text_8">
      <!-- 35 -->
      <g transform="translate(376.74919 322.182437) scale(0.1 -0.1)">
       <use xlink:href="#DejaVuSans-33"/>
       <use xlink:href="#DejaVuSans-35" x="63.623047"/>
      </g>
     </g>
    </g>
    <g id="text_9">
     <!-- Time(s) -->
     <g transform="translate(217.420156 335.860562) scale(0.1 -0.1)">
      <defs>
       <path id="DejaVuSans-54" d="M -19 4666 
L 3928 4666 
L 3928 4134 
L 2272 4134 
L 2272 0 
L 1638 0 
L 1638 4134 
L -19 4134 
L -19 4666 
z
" transform="scale(0.015625)"/>
       <path id="DejaVuSans-69" d="M 603 3500 
L 1178 3500 
L 1178 0 
L 603 0 
L 603 3500 
z
M 603 4863 
L 1178 4863 
L 1178 4134 
L 603 4134 
L 603 4863 
z
" transform="scale(0.015625)"/>
       <path id="DejaVuSans-6d" d="M 3328 2828 
Q 3544 3216 3844 3400 
Q 4144 3584 4550 3584 
Q 5097 3584 5394 3201 
Q 5691 2819 5691 2113 
L 5691 0 
L 5113 0 
L 5113 2094 
Q 5113 2597 4934 2840 
Q 4756 3084 4391 3084 
Q 3944 3084 3684 2787 
Q 3425 2491 3425 1978 
L 3425 0 
L 2847 0 
L 2847 2094 
Q 2847 2600 2669 2842 
Q 2491 3084 2119 3084 
Q 1678 3084 1418 2786 
Q 1159 2488 1159 1978 
L 1159 0 
L 581 0 
L 581 3500 
L 1159 3500 
L 1159 2956 
Q 1356 3278 1631 3431 
Q 1906 3584 2284 3584 
Q 2666 3584 2933 3390 
Q 3200 3197 3328 2828 
z
" transform="scale(0.015625)"/>
       <path id="DejaVuSans-65" d="M 3597 1894 
L 3597 1613 
L 953 1613 
Q 991 1019 1311 708 
Q 1631 397 2203 397 
Q 2534 397 2845 478 
Q 3156 559 3463 722 
L 3463 178 
Q 3153 47 2828 -22 
Q 2503 -91 2169 -91 
Q 1331 -91 842 396 
Q 353 884 353 1716 
Q 353 2575 817 3079 
Q 1281 3584 2069 3584 
Q 2775 3584 3186 3129 
Q 3597 2675 3597 1894 
z
M 3022 2063 
Q 3016 2534 2758 2815 
Q 2500 3097 2075 3097 
Q 1594 3097 1305 2825 
Q 1016 2553 972 2059 
L 3022 2063 
z
" transform="scale(0.015625)"/>
       <path id="DejaVuSans-28" d="M 1984 4856 
Q 1566 4138 1362 3434 
Q 1159 2731 1159 2009 
Q 1159 1288 1364 580 
Q 1569 -128 1984 -844 
L 1484 -844 
Q 1016 -109 783 600 
Q 550 1309 550 2009 
Q 550 2706 781 3412 
Q 1013 4119 1484 4856 
L 1984 4856 
z
" transform="scale(0.015625)"/>
       <path id="DejaVuSans-73" d="M 2834 3397 
L 2834 2853 
Q 2591 2978 2328 3040 
Q 2066 3103 1784 3103 
Q 1356 3103 1142 2972 
Q 928 2841 928 2578 
Q 928 2378 1081 2264 
Q 1234 2150 1697 2047 
L 1894 2003 
Q 2506 1872 2764 1633 
Q 3022 1394 3022 966 
Q 3022 478 2636 193 
Q 2250 -91 1575 -91 
Q 1294 -91 989 -36 
Q 684 19 347 128 
L 347 722 
Q 666 556 975 473 
Q 1284 391 1588 391 
Q 1994 391 2212 530 
Q 2431 669 2431 922 
Q 2431 1156 2273 1281 
Q 2116 1406 1581 1522 
L 1381 1569 
Q 847 1681 609 1914 
Q 372 2147 372 2553 
Q 372 3047 722 3315 
Q 1072 3584 1716 3584 
Q 2034 3584 2315 3537 
Q 2597 3491 2834 3397 
z
" transform="scale(0.015625)"/>
       <path id="DejaVuSans-29" d="M 513 4856 
L 1013 4856 
Q 1481 4119 1714 3412 
Q 1947 2706 1947 2009 
Q 1947 1309 1714 600 
Q 1481 -109 1013 -844 
L 513 -844 
Q 928 -128 1133 580 
Q 1338 1288 1338 2009 
Q 1338 2731 1133 3434 
Q 928 4138 513 4856 
z
" transform="scale(0.015625)"/>
      </defs>
      <use xlink:href="#DejaVuSans-54"/>
      <use xlink:href="#DejaVuSans-69" x="57.958984"/>
      <use xlink:href="#DejaVuSans-6d" x="85.742188"/>
      <use xlink:href="#DejaVuSans-65" x="183.154297"/>
      <use xlink:href="#DejaVuSans-28" x="244.677734"/>
      <use xlink:href="#DejaVuSans-73" x="283.691406"/>
      <use xlink:href="#DejaVuSans-29" x="335.791016"/>
     </g>
    </g>
   </g>
   <g id="matplotlib.axis_2">
    <g id="ytick_1">
     <g id="line2d_17">
      <path d="M 57.6 276.947244 
L 414.72 276.947244 
" clip-path="url(#p768fe48069)" style="fill: none; stroke: #b0b0b0; stroke-width: 0.8; stroke-linecap: square"/>
     </g>
     <g id="line2d_18">
      <defs>
       <path id="m05ed7d8317" d="M 0 0 
L -3.5 0 
" style="stroke: #000000; stroke-width: 0.8"/>
      </defs>
      <g>
       <use xlink:href="#m05ed7d8317" x="57.6" y="276.947244" style="stroke: #000000; stroke-width: 0.8"/>
      </g>
     </g>
     <g id="text_10">
      <!-- 4 -->
      <g transform="translate(44.2375 280.746462) scale(0.1 -0.1)">
       <defs>
        <path id="DejaVuSans-34" d="M 2419 4116 
L 825 1625 
L 2419 1625 
L 2419 4116 
z
M 2253 4666 
L 3047 4666 
L 3047 1625 
L 3713 1625 
L 3713 1100 
L 3047 1100 
L 3047 0 
L 2419 0 
L 2419 1100 
L 313 1100 
L 313 1709 
L 2253 4666 
z
" transform="scale(0.015625)"/>
       </defs>
       <use xlink:href="#DejaVuSans-34"/>
      </g>
     </g>
    </g>
    <g id="ytick_2">
     <g id="line2d_19">
      <path d="M 57.6 221.102433 
L 414.72 221.102433 
" clip-path="url(#p768fe48069)" style="fill: none; stroke: #b0b0b0; stroke-width: 0.8; stroke-linecap: square"/>
     </g>
     <g id="line2d_20">
      <g>
       <use xlink:href="#m05ed7d8317" x="57.6" y="221.102433" style="stroke: #000000; stroke-width: 0.8"/>
      </g>
     </g>
     <g id="text_11">
      <!-- 5 -->
      <g transform="translate(44.2375 224.901651) scale(0.1 -0.1)">
       <use xlink:href="#DejaVuSans-35"/>
      </g>
     </g>
    </g>
    <g id="ytick_3">
     <g id="line2d_21">
      <path d="M 57.6 165.257622 
L 414.72 165.257622 
" clip-path="url(#p768fe48069)" style="fill: none; stroke: #b0b0b0; stroke-width: 0.8; stroke-linecap: square"/>
     </g>
     <g id="line2d_22">
      <g>
       <use xlink:href="#m05ed7d8317" x="57.6" y="165.257622" style="stroke: #000000; stroke-width: 0.8"/>
      </g>
     </g>
     <g id="text_12">
      <!-- 6 -->
      <g transform="translate(44.2375 169.056841) scale(0.1 -0.1)">
       <defs>
        <path id="DejaVuSans-36" d="M 2113 2584 
Q 1688 2584 1439 2293 
Q 1191 2003 1191 1497 
Q 1191 994 1439 701 
Q 1688 409 2113 409 
Q 2538 409 2786 701 
Q 3034 994 3034 1497 
Q 3034 2003 2786 2293 
Q 2538 2584 2113 2584 
z
M 3366 4563 
L 3366 3988 
Q 3128 4100 2886 4159 
Q 2644 4219 2406 4219 
Q 1781 4219 1451 3797 
Q 1122 3375 1075 2522 
Q 1259 2794 1537 2939 
Q 1816 3084 2150 3084 
Q 2853 3084 3261 2657 
Q 3669 2231 3669 1497 
Q 3669 778 3244 343 
Q 2819 -91 2113 -91 
Q 1303 -91 875 529 
Q 447 1150 447 2328 
Q 447 3434 972 4092 
Q 1497 4750 2381 4750 
Q 2619 4750 2861 4703 
Q 3103 4656 3366 4563 
z
" transform="scale(0.015625)"/>
       </defs>
       <use xlink:href="#DejaVuSans-36"/>
      </g>
     </g>
    </g>
    <g id="ytick_4">
     <g id="line2d_23">
      <path d="M 57.6 109.412811 
L 414.72 109.412811 
" clip-path="url(#p768fe48069)" style="fill: none; stroke: #b0b0b0; stroke-width: 0.8; stroke-linecap: square"/>
     </g>
     <g id="line2d_24">
      <g>
       <use xlink:href="#m05ed7d8317" x="57.6" y="109.412811" style="stroke: #000000; stroke-width: 0.8"/>
      </g>
     </g>
     <g id="text_13">
      <!-- 7 -->
      <g transform="translate(44.2375 113.21203) scale(0.1 -0.1)">
       <defs>
        <path id="DejaVuSans-37" d="M 525 4666 
L 3525 4666 
L 3525 4397 
L 1831 0 
L 1172 0 
L 2766 4134 
L 525 4134 
L 525 4666 
z
" transform="scale(0.015625)"/>
       </defs>
       <use xlink:href="#DejaVuSans-37"/>
      </g>
     </g>
    </g>
    <g id="ytick_5">
     <g id="line2d_25">
      <path d="M 57.6 53.568 
L 414.72 53.568 
" clip-path="url(#p768fe48069)" style="fill: none; stroke: #b0b0b0; stroke-width: 0.8; stroke-linecap: square"/>
     </g>
     <g id="line2d_26">
      <g>
       <use xlink:href="#m05ed7d8317" x="57.6" y="53.568" style="stroke: #000000; stroke-width: 0.8"/>
      </g>
     </g>
     <g id="text_14">
      <!-- 8 -->
      <g transform="translate(44.2375 57.367219) scale(0.1 -0.1)">
       <defs>
        <path id="DejaVuSans-38" d="M 2034 2216 
Q 1584 2216 1326 1975 
Q 1069 1734 1069 1313 
Q 1069 891 1326 650 
Q 1584 409 2034 409 
Q 2484 409 2743 651 
Q 3003 894 3003 1313 
Q 3003 1734 2745 1975 
Q 2488 2216 2034 2216 
z
M 1403 2484 
Q 997 2584 770 2862 
Q 544 3141 544 3541 
Q 544 4100 942 4425 
Q 1341 4750 2034 4750 
Q 2731 4750 3128 4425 
Q 3525 4100 3525 3541 
Q 3525 3141 3298 2862 
Q 3072 2584 2669 2484 
Q 3125 2378 3379 2068 
Q 3634 1759 3634 1313 
Q 3634 634 3220 271 
Q 2806 -91 2034 -91 
Q 1263 -91 848 271 
Q 434 634 434 1313 
Q 434 1759 690 2068 
Q 947 2378 1403 2484 
z
M 1172 3481 
Q 1172 3119 1398 2916 
Q 1625 2713 2034 2713 
Q 2441 2713 2670 2916 
Q 2900 3119 2900 3481 
Q 2900 3844 2670 4047 
Q 2441 4250 2034 4250 
Q 1625 4250 1398 4047 
Q 1172 3844 1172 3481 
z
" transform="scale(0.015625)"/>
       </defs>
       <use xlink:href="#DejaVuSans-38"/>
      </g>
     </g>
    </g>
    <g id="text_15">
     <!-- Velocity(m/s) -->
     <g transform="translate(38.157812 207.204563) rotate(-90) scale(0.1 -0.1)">
      <defs>
       <path id="DejaVuSans-56" d="M 1831 0 
L 50 4666 
L 709 4666 
L 2188 738 
L 3669 4666 
L 4325 4666 
L 2547 0 
L 1831 0 
z
" transform="scale(0.015625)"/>
       <path id="DejaVuSans-6c" d="M 603 4863 
L 1178 4863 
L 1178 0 
L 603 0 
L 603 4863 
z
" transform="scale(0.015625)"/>
       <path id="DejaVuSans-6f" d="M 1959 3097 
Q 1497 3097 1228 2736 
Q 959 2375 959 1747 
Q 959 1119 1226 758 
Q 1494 397 1959 397 
Q 2419 397 2687 759 
Q 2956 1122 2956 1747 
Q 2956 2369 2687 2733 
Q 2419 3097 1959 3097 
z
M 1959 3584 
Q 2709 3584 3137 3096 
Q 3566 2609 3566 1747 
Q 3566 888 3137 398 
Q 2709 -91 1959 -91 
Q 1206 -91 779 398 
Q 353 888 353 1747 
Q 353 2609 779 3096 
Q 1206 3584 1959 3584 
z
" transform="scale(0.015625)"/>
       <path id="DejaVuSans-63" d="M 3122 3366 
L 3122 2828 
Q 2878 2963 2633 3030 
Q 2388 3097 2138 3097 
Q 1578 3097 1268 2742 
Q 959 2388 959 1747 
Q 959 1106 1268 751 
Q 1578 397 2138 397 
Q 2388 397 2633 464 
Q 2878 531 3122 666 
L 3122 134 
Q 2881 22 2623 -34 
Q 2366 -91 2075 -91 
Q 1284 -91 818 406 
Q 353 903 353 1747 
Q 353 2603 823 3093 
Q 1294 3584 2113 3584 
Q 2378 3584 2631 3529 
Q 2884 3475 3122 3366 
z
" transform="scale(0.015625)"/>
       <path id="DejaVuSans-74" d="M 1172 4494 
L 1172 3500 
L 2356 3500 
L 2356 3053 
L 1172 3053 
L 1172 1153 
Q 1172 725 1289 603 
Q 1406 481 1766 481 
L 2356 481 
L 2356 0 
L 1766 0 
Q 1100 0 847 248 
Q 594 497 594 1153 
L 594 3053 
L 172 3053 
L 172 3500 
L 594 3500 
L 594 4494 
L 1172 4494 
z
" transform="scale(0.015625)"/>
       <path id="DejaVuSans-79" d="M 2059 -325 
Q 1816 -950 1584 -1140 
Q 1353 -1331 966 -1331 
L 506 -1331 
L 506 -850 
L 844 -850 
Q 1081 -850 1212 -737 
Q 1344 -625 1503 -206 
L 1606 56 
L 191 3500 
L 800 3500 
L 1894 763 
L 2988 3500 
L 3597 3500 
L 2059 -325 
z
" transform="scale(0.015625)"/>
       <path id="DejaVuSans-2f" d="M 1625 4666 
L 2156 4666 
L 531 -594 
L 0 -594 
L 1625 4666 
z
" transform="scale(0.015625)"/>
      </defs>
      <use xlink:href="#DejaVuSans-56"/>
      <use xlink:href="#DejaVuSans-65" x="60.658203"/>
      <use xlink:href="#DejaVuSans-6c" x="122.181641"/>
      <use xlink:href="#DejaVuSans-6f" x="149.964844"/>
      <use xlink:href="#DejaVuSans-63" x="211.146484"/>
      <use xlink:href="#DejaVuSans-69" x="266.126953"/>
      <use xlink:href="#DejaVuSans-74" x="293.910156"/>
      <use xlink:href="#DejaVuSans-79" x="333.119141"/>
      <use xlink:href="#DejaVuSans-28" x="392.298828"/>
      <use xlink:href="#DejaVuSans-6d" x="431.3125"/>
      <use xlink:href="#DejaVuSans-2f" x="528.724609"/>
      <use xlink:href="#DejaVuSans-73" x="562.416016"/>
      <use xlink:href="#DejaVuSans-29" x="614.515625"/>
     </g>
    </g>
   </g>
   <g id="line2d_27">
    <path d="M 73.832727 53.792161 
L 76.130228 53.63116 
L 76.130228 53.63116 
L 81.255422 53.571742 
L 81.255422 53.571742 
L 92.389465 53.568 
L 92.389465 53.568 
L 92.919658 59.196598 
L 92.919658 59.196598 
L 93.273119 69.287477 
L 93.273119 69.287477 
L 93.626581 80.298845 
L 93.626581 80.298845 
L 95.924082 141.20582 
L 95.924082 141.20582 
L 97.161198 164.690406 
L 97.161198 164.690406 
L 98.575044 183.938549 
L 98.575044 183.938549 
L 99.81216 194.012897 
L 99.81216 194.012897 
L 100.519083 197.424345 
L 100.519083 197.424345 
L 101.049276 198.759426 
L 101.049276 198.759426 
L 101.579469 199.302461 
L 101.579469 199.302461 
L 102.109661 199.372267 
L 102.109661 199.372267 
L 102.463123 199.420573 
L 102.463123 199.420573 
L 102.816584 199.402312 
L 102.816584 199.402312 
L 103.170046 199.292968 
L 103.170046 199.292968 
L 103.523508 199.008215 
L 103.523508 199.008215 
L 104.407162 196.830938 
L 104.407162 196.830938 
L 104.760624 195.403935 
L 104.760624 195.403935 
L 105.114085 193.488961 
L 105.114085 193.488961 
L 106.17447 182.22294 
L 106.17447 182.22294 
L 106.704663 173.760329 
L 106.704663 173.760329 
L 107.588317 154.958163 
L 107.588317 154.958163 
L 108.118509 149.284051 
L 108.118509 149.284051 
L 108.471971 147.144581 
L 108.471971 147.144581 
L 109.002164 145.71635 
L 109.002164 145.71635 
L 109.532356 145.152764 
L 109.532356 145.152764 
L 110.062549 144.896045 
L 110.062549 144.896045 
L 110.769472 144.610008 
L 110.769472 144.610008 
L 111.476395 144.366413 
L 111.476395 144.366413 
L 112.183319 143.570513 
L 112.183319 143.570513 
L 112.53678 143.005028 
L 112.53678 143.005028 
L 113.420435 140.202401 
L 113.420435 140.202401 
L 114.127358 135.911174 
L 114.127358 135.911174 
L 114.48082 133.133397 
L 114.48082 133.133397 
L 115.894666 118.157662 
L 115.894666 118.157662 
L 116.071397 118.091374 
L 116.071397 118.091374 
L 118.015436 153.585554 
L 118.015436 153.585554 
L 118.72236 162.042748 
L 118.72236 162.042748 
L 119.429283 167.069507 
L 119.429283 167.069507 
L 119.782745 168.655276 
L 119.782745 168.655276 
L 120.136206 169.752291 
L 120.136206 169.752291 
L 120.84313 170.934917 
L 120.84313 170.934917 
L 121.196591 171.025497 
L 121.196591 171.025497 
L 121.726784 171.395022 
L 121.726784 171.395022 
L 122.080245 171.306006 
L 122.080245 171.306006 
L 122.787169 171.348224 
L 122.787169 171.348224 
L 122.9639 171.377822 
L 122.9639 171.377822 
L 123.670823 171.109488 
L 123.670823 171.109488 
L 123.847554 171.083464 
L 123.847554 171.083464 
L 124.377746 170.668146 
L 124.377746 170.668146 
L 125.08467 170.132371 
L 125.08467 170.132371 
L 125.614862 169.576213 
L 125.614862 169.576213 
L 126.145055 168.941313 
L 126.145055 168.941313 
L 126.851978 167.901092 
L 126.851978 167.901092 
L 128.619286 163.884565 
L 128.619286 163.884565 
L 131.270249 154.919184 
L 131.270249 154.919184 
L 133.214288 145.723721 
L 133.214288 145.723721 
L 135.68852 130.176693 
L 135.68852 130.176693 
L 137.632559 113.183564 
L 137.632559 113.183564 
L 138.692944 101.392435 
L 138.692944 101.392435 
L 139.576598 90.396759 
L 139.576598 90.396759 
L 140.990445 71.565498 
L 140.990445 71.565498 
L 141.697368 65.756465 
L 141.697368 65.756465 
L 142.404292 61.822421 
L 142.404292 61.822421 
L 143.111215 59.158177 
L 143.111215 59.158177 
L 143.818138 57.353831 
L 143.818138 57.353831 
L 144.525062 56.131891 
L 144.525062 56.131891 
L 145.231985 55.304327 
L 145.231985 55.304327 
L 146.115639 54.634748 
L 146.115639 54.634748 
L 147.176024 54.162524 
L 147.176024 54.162524 
L 148.41314 53.868557 
L 148.41314 53.868557 
L 150.357179 53.670922 
L 150.357179 53.670922 
L 150.887372 53.644842 
L 150.887372 53.644842 
L 151.064103 54.878678 
L 151.064103 54.878678 
L 151.240833 57.848728 
L 151.240833 57.848728 
L 152.65468 99.135634 
L 152.65468 99.135634 
L 153.715065 130.580172 
L 153.715065 130.580172 
L 154.421988 148.872922 
L 154.421988 148.872922 
L 154.77545 158.271213 
L 154.77545 158.271213 
L 155.482373 175.070951 
L 155.482373 175.070951 
L 156.542758 194.559394 
L 156.542758 194.559394 
L 157.072951 204.877337 
L 157.072951 204.877337 
L 159.193721 230.530154 
L 159.193721 230.530154 
L 160.607568 240.757684 
L 160.607568 240.757684 
L 161.491222 244.440258 
L 161.491222 244.440258 
L 162.021414 245.82158 
L 162.021414 245.82158 
L 162.728338 246.920215 
L 162.728338 246.920215 
L 163.081799 247.163307 
L 163.081799 247.163307 
L 163.788723 247.318779 
L 163.788723 247.318779 
L 164.142184 247.381716 
L 164.142184 247.381716 
L 165.556031 247.062954 
L 165.556031 247.062954 
L 166.262954 246.373438 
L 166.262954 246.373438 
L 167.323339 244.182646 
L 167.323339 244.182646 
L 167.853532 242.580514 
L 167.853532 242.580514 
L 168.560455 240.014948 
L 168.560455 240.014948 
L 169.62084 234.592696 
L 169.62084 234.592696 
L 171.034687 224.777691 
L 171.034687 224.777691 
L 173.332188 204.268796 
L 173.332188 204.268796 
L 174.569304 191.303418 
L 174.569304 191.303418 
L 176.336612 172.209296 
L 176.336612 172.209296 
L 179.871229 133.846256 
L 179.871229 133.846256 
L 180.578152 123.504802 
L 180.578152 123.504802 
L 181.285075 110.366082 
L 181.285075 110.366082 
L 182.16873 91.822086 
L 182.16873 91.822086 
L 182.522191 87.92652 
L 182.522191 87.92652 
L 182.875653 87.177641 
L 182.875653 87.177641 
L 183.052384 88.523501 
L 183.052384 88.523501 
L 183.229115 91.848724 
L 183.229115 91.848724 
L 186.056808 177.727433 
L 186.056808 177.727433 
L 187.117193 202.851734 
L 187.117193 202.851734 
L 187.470655 212.035581 
L 187.470655 212.035581 
L 187.824116 219.784216 
L 187.824116 219.784216 
L 188.354309 230.72226 
L 188.354309 230.72226 
L 188.53104 232.856816 
L 188.53104 232.856816 
L 189.061232 242.336193 
L 189.061232 242.336193 
L 189.591425 247.89493 
L 189.591425 247.89493 
L 191.182002 263.990689 
L 191.182002 263.990689 
L 192.242387 269.660389 
L 192.242387 269.660389 
L 192.949311 271.956449 
L 192.949311 271.956449 
L 193.656234 273.352904 
L 193.656234 273.352904 
L 193.832965 273.468391 
L 194.186426 273.926207 
L 194.186426 273.926207 
L 194.716619 274.469521 
L 194.716619 274.469521 
L 195.423542 274.608016 
L 195.423542 274.608016 
L 197.190851 274.444893 
L 197.190851 274.444893 
L 198.074505 273.580192 
L 198.074505 273.580192 
L 198.604697 272.533884 
L 198.604697 272.533884 
L 198.958159 271.73145 
L 198.958159 271.73145 
L 199.488352 270.015953 
L 199.488352 270.015953 
L 199.841813 268.369536 
L 199.841813 268.369536 
L 200.372006 265.821784 
L 200.372006 265.821784 
L 200.902198 262.503151 
L 200.902198 262.503151 
L 202.492776 248.177281 
L 202.492776 248.177281 
L 204.436815 220.965166 
L 204.436815 220.965166 
L 205.850662 192.467057 
L 205.850662 192.467057 
L 206.734316 169.970365 
L 206.734316 169.970365 
L 208.855086 109.598216 
L 208.855086 109.598216 
L 209.562009 91.513432 
L 209.562009 91.513432 
L 210.268933 79.265883 
L 210.268933 79.265883 
L 210.975856 70.971421 
L 210.975856 70.971421 
L 211.682779 65.354159 
L 211.682779 65.354159 
L 212.389703 61.549955 
L 212.389703 61.549955 
L 213.096626 58.97361 
L 213.096626 58.97361 
L 213.803549 57.228851 
L 213.803549 57.228851 
L 214.510473 56.04723 
L 214.510473 56.04723 
L 215.040665 55.418865 
L 215.040665 55.418865 
L 215.394127 56.806106 
L 215.394127 56.806106 
L 215.747588 61.128103 
L 215.747588 61.128103 
L 219.812398 146.978498 
L 219.812398 146.978498 
L 221.402975 174.592082 
L 221.402975 174.592082 
L 221.756437 178.94915 
L 221.756437 178.94915 
L 222.109899 183.927268 
L 222.109899 183.927268 
L 222.640091 189.785389 
L 222.640091 189.785389 
L 223.877207 199.694659 
L 223.877207 199.694659 
L 224.58413 202.744233 
L 224.58413 202.744233 
L 225.114323 204.178998 
L 225.114323 204.178998 
L 225.644515 204.901574 
L 225.644515 204.901574 
L 226.528169 205.233962 
L 226.528169 205.233962 
L 227.058362 205.332137 
L 227.058362 205.332137 
L 227.588554 205.182026 
L 227.588554 205.182026 
L 228.295478 204.62235 
L 228.295478 204.62235 
L 229.002401 203.353109 
L 229.002401 203.353109 
L 229.709324 200.936257 
L 229.709324 200.936257 
L 230.062786 198.717431 
L 230.062786 198.717431 
L 230.416248 196.077814 
L 230.416248 196.077814 
L 230.94644 191.260753 
L 230.94644 191.260753 
L 231.476633 184.863562 
L 231.476633 184.863562 
L 232.713749 161.403157 
L 232.713749 161.403157 
L 235.18798 94.042085 
L 235.18798 94.042085 
L 235.894904 80.978309 
L 235.894904 80.978309 
L 236.601827 72.13115 
L 236.601827 72.13115 
L 237.30875 66.13956 
L 237.30875 66.13956 
L 238.015674 62.081876 
L 238.015674 62.081876 
L 238.722597 59.333865 
L 238.722597 59.333865 
L 239.42952 57.472837 
L 239.42952 57.472837 
L 240.136444 56.212475 
L 240.136444 56.212475 
L 240.843367 55.358943 
L 240.843367 55.358943 
L 241.37356 54.904981 
L 241.37356 54.904981 
L 241.55029 55.05498 
L 241.55029 55.05498 
L 241.727021 56.239616 
L 241.727021 56.239616 
L 243.140868 75.171286 
L 243.140868 75.171286 
L 246.675485 127.842939 
L 246.675485 127.842939 
L 248.266062 140.749121 
L 248.266062 140.749121 
L 248.972986 143.757872 
L 248.972986 143.757872 
L 249.503178 145.212406 
L 249.503178 145.212406 
L 250.033371 145.674019 
L 250.033371 145.674019 
L 250.563563 145.794086 
L 250.563563 145.794086 
L 251.093756 146.054825 
L 251.093756 146.054825 
L 251.800679 145.908288 
L 251.800679 145.908288 
L 252.154141 145.478953 
L 252.154141 145.478953 
L 252.330871 145.314155 
L 252.330871 145.314155 
L 252.861064 144.28918 
L 252.861064 144.28918 
L 253.567987 141.688989 
L 253.567987 141.688989 
L 253.921449 140.062342 
L 253.921449 140.062342 
L 255.158565 130.927694 
L 255.158565 130.927694 
L 255.865488 124.078552 
L 255.865488 124.078552 
L 256.925873 110.811612 
L 256.925873 110.811612 
L 257.986258 94.755223 
L 257.986258 94.755223 
L 259.400105 73.262454 
L 259.400105 73.262454 
L 260.107028 66.905695 
L 260.107028 66.905695 
L 260.813952 62.600731 
L 260.813952 62.600731 
L 261.520875 59.685241 
L 261.520875 59.685241 
L 262.227798 57.710791 
L 262.227798 57.710791 
L 262.934722 56.373643 
L 262.934722 56.373643 
L 263.641645 55.468064 
L 263.641645 55.468064 
L 264.525299 54.735324 
L 264.525299 54.735324 
L 265.408953 54.285159 
L 265.408953 54.285159 
L 266.646069 53.9306 
L 266.646069 53.9306 
L 268.413378 53.70482 
L 268.413378 53.70482 
L 271.417802 53.594135 
L 271.417802 53.594135 
L 276.366265 53.569675 
L 276.366265 53.569675 
L 276.896458 60.203592 
L 276.896458 60.203592 
L 277.603381 82.564636 
L 277.603381 82.564636 
L 278.487035 115.942577 
L 278.487035 115.942577 
L 278.840497 130.506178 
L 278.840497 130.506178 
L 280.961267 204.689475 
L 280.961267 204.689475 
L 281.137998 208.243271 
L 281.137998 208.243271 
L 281.491459 217.814625 
L 281.491459 217.814625 
L 282.021652 231.730259 
L 282.021652 231.730259 
L 282.198383 234.180785 
L 282.198383 234.180785 
L 282.551844 241.450383 
L 282.551844 241.450383 
L 283.082037 249.394642 
L 283.082037 249.394642 
L 283.612229 258.659967 
L 283.612229 258.659967 
L 283.78896 260.687245 
L 283.78896 260.687245 
L 284.142422 266.065715 
L 284.142422 266.065715 
L 284.672614 272.098574 
L 284.672614 272.098574 
L 285.202807 278.924317 
L 285.202807 278.924317 
L 286.970115 291.357327 
L 286.970115 291.357327 
L 287.853769 294.195528 
L 287.853769 294.195528 
L 288.383962 294.948092 
L 288.383962 294.948092 
L 288.737424 295.145392 
L 288.737424 295.145392 
L 289.444347 295.343753 
L 289.444347 295.343753 
L 290.681463 295.128136 
L 290.681463 295.128136 
L 290.858194 295.046938 
L 290.858194 295.046938 
L 291.741848 293.840411 
L 291.741848 293.840411 
L 292.625502 291.171475 
L 292.625502 291.171475 
L 293.509156 286.457503 
L 293.509156 286.457503 
L 294.569541 278.672625 
L 294.569541 278.672625 
L 295.099734 273.9056 
L 295.099734 273.9056 
L 295.629926 268.898387 
L 295.629926 268.898387 
L 298.104158 235.939114 
L 298.104158 235.939114 
L 300.401659 199.252704 
L 300.401659 199.252704 
L 303.229352 159.66186 
L 303.229352 159.66186 
L 303.582814 158.840383 
L 303.582814 158.840383 
L 303.936276 163.445737 
L 303.936276 163.445737 
L 304.113006 167.246423 
L 304.113006 167.246423 
L 304.466468 177.451839 
L 304.466468 177.451839 
L 305.173391 196.41104 
L 305.173391 196.41104 
L 305.350122 199.382599 
L 305.350122 199.382599 
L 305.703584 206.836708 
L 305.703584 206.836708 
L 306.233776 216.455698 
L 306.233776 216.455698 
L 308.177816 240.388661 
L 308.177816 240.388661 
L 308.708008 245.467356 
L 308.708008 245.467356 
L 310.121855 254.163622 
L 310.121855 254.163622 
L 310.652047 256.598511 
L 310.652047 256.598511 
L 311.889163 260.077252 
L 311.889163 260.077252 
L 312.596087 261.019019 
L 312.596087 261.019019 
L 313.656472 261.595449 
L 313.656472 261.595449 
L 315.247049 261.340964 
L 315.247049 261.340964 
L 315.953972 260.782181 
L 315.953972 260.782181 
L 316.484165 260.110927 
L 316.484165 260.110927 
L 317.191088 258.309429 
L 317.191088 258.309429 
L 318.781666 251.126725 
L 318.781666 251.126725 
L 319.488589 246.362995 
L 319.488589 246.362995 
L 320.195512 240.722669 
L 320.195512 240.722669 
L 320.725705 236.00624 
L 320.725705 236.00624 
L 322.846475 212.067301 
L 322.846475 212.067301 
L 325.320707 176.93399 
L 325.320707 176.93399 
L 326.204361 161.161405 
L 326.204361 161.161405 
L 327.441477 140.068764 
L 327.441477 140.068764 
L 327.794938 138.742003 
L 327.794938 138.742003 
L 327.971669 138.682696 
L 327.971669 138.682696 
L 330.976093 189.839502 
L 330.976093 189.839502 
L 331.506286 195.784518 
L 331.506286 195.784518 
L 332.566671 204.718347 
L 332.566671 204.718347 
L 333.096863 207.441675 
L 333.096863 207.441675 
L 333.627056 209.070668 
L 333.627056 209.070668 
L 334.157248 209.882037 
L 334.157248 209.882037 
L 334.51071 210.162211 
L 334.51071 210.162211 
L 334.864172 210.251563 
L 334.864172 210.251563 
L 336.101288 210.040246 
L 336.101288 210.040246 
L 336.454749 209.804637 
L 336.454749 209.804637 
L 336.808211 209.406351 
L 336.808211 209.406351 
L 337.161673 208.794627 
L 337.161673 208.794627 
L 337.515134 207.888769 
L 337.515134 207.888769 
L 338.398789 202.986879 
L 338.398789 202.986879 
L 338.75225 200.222058 
L 338.75225 200.222058 
L 339.282443 194.926909 
L 339.282443 194.926909 
L 339.989366 184.484432 
L 339.989366 184.484432 
L 340.342828 180.00188 
L 340.342828 180.00188 
L 340.696289 177.784506 
L 340.696289 177.784506 
L 340.87302 177.23611 
L 340.87302 177.23611 
L 341.049751 177.128162 
L 341.049751 177.128162 
L 341.579944 181.392193 
L 341.579944 181.392193 
L 342.463598 186.69449 
L 342.463598 186.69449 
L 342.817059 187.588175 
L 342.817059 187.588175 
L 343.523983 188.183424 
L 343.523983 188.183424 
L 344.230906 187.862205 
L 344.230906 187.862205 
L 344.584368 187.385793 
L 344.584368 187.385793 
L 344.761099 186.977009 
L 344.761099 186.977009 
L 345.468022 183.213571 
L 345.468022 183.213571 
L 345.998214 178.399749 
L 345.998214 178.399749 
L 346.705138 168.837665 
L 346.705138 168.837665 
L 347.058599 166.877624 
L 347.058599 166.877624 
L 347.23533 166.652402 
L 347.765523 171.711216 
L 347.765523 171.711216 
L 348.118985 176.556702 
L 348.118985 176.556702 
L 348.649177 181.419333 
L 348.649177 181.419333 
L 349.002639 183.803348 
L 349.002639 183.803348 
L 349.3561 185.205053 
L 349.3561 185.205053 
L 349.886293 186.155085 
L 349.886293 186.155085 
L 350.946678 186.412195 
L 350.946678 186.412195 
L 351.30014 186.289224 
L 351.30014 186.289224 
L 351.830332 186.10717 
L 351.830332 186.10717 
L 352.537255 185.510524 
L 352.537255 185.510524 
L 353.067448 184.756954 
L 353.067448 184.756954 
L 354.481295 181.533927 
L 354.481295 181.533927 
L 355.188218 179.48392 
L 355.188218 179.48392 
L 356.778795 172.395482 
L 356.778795 172.395482 
L 358.369373 162.395743 
L 358.369373 162.395743 
L 359.429758 154.3174 
L 359.429758 154.3174 
L 361.020336 142.174951 
L 361.020336 142.174951 
L 362.257451 134.440277 
L 362.257451 134.440277 
L 364.908414 119.751193 
L 364.908414 119.751193 
L 365.615337 113.943333 
L 365.615337 113.943333 
L 366.675722 101.478268 
L 366.675722 101.478268 
L 367.559376 86.255085 
L 367.559376 86.255085 
L 368.2663 75.704716 
L 368.2663 75.704716 
L 368.973223 68.559707 
L 368.973223 68.559707 
L 369.680146 63.720866 
L 369.680146 63.720866 
L 370.38707 60.443836 
L 370.38707 60.443836 
L 371.093993 58.224564 
L 371.093993 58.224564 
L 371.800917 56.721556 
L 371.800917 56.721556 
L 372.50784 55.703673 
L 372.50784 55.703673 
L 373.214763 55.014381 
L 373.214763 55.014381 
L 374.098417 54.456603 
L 374.098417 54.456603 
L 375.158802 54.063232 
L 375.158802 54.063232 
L 376.572649 53.795121 
L 376.572649 53.795121 
L 378.87015 53.631998 
L 378.87015 53.631998 
L 383.818613 53.572188 
L 383.818613 53.572188 
L 397.073426 53.608041 
L 397.073426 53.608041 
L 397.780349 53.871684 
L 397.780349 53.871684 
L 398.487273 53.833263 
L 398.487273 53.833263 
" clip-path="url(#p768fe48069)" style="fill: none; stroke: #1f77b4; stroke-width: 1.5; stroke-linecap: square"/>
   </g>
   <g id="line2d_28">
    <path d="M 73.832727 53.568 
L 92.212734 53.568 
L 92.212734 53.568 
L 92.389465 58.147889 
L 92.389465 58.147889 
L 92.566196 58.588002 
L 92.566196 58.588002 
L 92.919658 71.195079 
L 92.919658 71.195079 
L 93.273119 89.35235 
L 93.273119 89.35235 
L 93.44985 88.118403 
L 93.44985 88.118403 
L 93.980043 110.491733 
L 94.156773 109.229137 
L 95.040428 134.845152 
L 95.040428 134.845152 
L 95.217158 136.946034 
L 95.217158 136.946034 
L 96.631005 166.688589 
L 96.631005 166.688589 
L 96.807736 166.313982 
L 96.807736 166.313982 
L 96.984467 170.669096 
L 96.984467 170.669096 
L 97.161198 171.939677 
L 97.161198 171.939677 
L 97.337928 174.517529 
L 97.337928 174.517529 
L 97.514659 179.215976 
L 97.514659 179.215976 
L 97.69139 179.060449 
L 97.69139 179.060449 
L 97.868121 182.135878 
L 97.868121 182.135878 
L 98.044852 182.895088 
L 98.044852 182.895088 
L 98.221583 184.97218 
L 98.221583 184.97218 
L 98.398313 188.980218 
L 98.398313 188.980218 
L 98.575044 188.451591 
L 98.575044 188.451591 
L 98.751775 191.192175 
L 98.751775 191.192175 
L 98.928506 191.471734 
L 98.928506 191.471734 
L 99.105237 193.180418 
L 99.105237 193.180418 
L 99.281968 193.597635 
L 99.635429 196.608954 
L 99.635429 196.608954 
L 99.81216 196.736448 
L 99.81216 196.736448 
L 99.988891 198.051984 
L 99.988891 198.051984 
L 100.165622 198.100514 
L 100.165622 198.100514 
L 100.519083 198.997325 
L 100.519083 198.997325 
L 101.226007 199.65702 
L 101.226007 199.65702 
L 101.579469 199.297938 
L 101.579469 199.297938 
L 101.756199 199.516124 
L 101.756199 199.516124 
L 101.93293 199.338705 
L 101.93293 199.338705 
L 102.109661 199.557951 
L 102.286392 199.267726 
L 102.286392 199.267726 
L 102.463123 199.488871 
L 102.463123 199.488871 
L 102.639854 198.993975 
L 102.639854 198.993975 
L 102.816584 199.148497 
L 102.816584 199.148497 
L 103.346777 197.42306 
L 103.346777 197.42306 
L 103.523508 194.710119 
L 103.523508 194.710119 
L 103.700239 195.824558 
L 103.700239 195.824558 
L 103.876969 193.150709 
L 103.876969 193.150709 
L 104.0537 193.660013 
L 104.0537 193.660013 
L 104.230431 190.515671 
L 104.230431 190.515671 
L 104.407162 190.544208 
L 104.407162 190.544208 
L 104.583893 187.163028 
L 104.583893 187.163028 
L 104.760624 186.156146 
L 104.760624 186.156146 
L 104.937354 183.16655 
L 104.937354 183.16655 
L 105.114085 174.418069 
L 105.114085 174.418069 
L 105.290816 177.269282 
L 105.290816 177.269282 
L 105.467547 168.691743 
L 105.467547 168.691743 
L 105.644278 170.314369 
L 105.644278 170.314369 
L 105.821009 161.580967 
L 105.821009 161.580967 
L 105.997739 161.369036 
L 105.997739 161.369036 
L 106.351201 150.06035 
L 106.351201 150.06035 
L 106.527932 144.185029 
L 106.527932 144.185029 
L 106.704663 127.952395 
L 106.704663 127.952395 
L 106.881394 130.813603 
L 106.881394 130.813603 
L 107.058124 121.328307 
L 107.058124 121.328307 
L 107.234855 121.940645 
L 107.234855 121.940645 
L 107.411586 124.477116 
L 107.411586 124.477116 
L 107.588317 131.361162 
L 107.765048 130.962597 
L 107.765048 130.962597 
L 107.941779 135.027262 
L 107.941779 135.027262 
L 108.118509 135.95719 
L 108.118509 135.95719 
L 108.471971 140.897445 
L 108.471971 140.897445 
L 108.648702 141.054537 
L 108.648702 141.054537 
L 109.002164 143.315525 
L 109.002164 143.315525 
L 109.532356 143.825612 
L 109.532356 143.825612 
L 109.885818 144.429071 
L 109.885818 144.429071 
L 110.062549 143.840076 
L 110.062549 143.840076 
L 110.41601 144.392493 
L 110.41601 144.392493 
L 110.592741 143.699459 
L 110.592741 143.699459 
L 110.769472 144.016601 
L 110.769472 144.016601 
L 110.946203 143.660646 
L 110.946203 143.660646 
L 111.122934 143.864871 
L 111.122934 143.864871 
L 111.299664 143.886036 
L 111.299664 143.886036 
L 111.476395 142.601717 
L 111.476395 142.601717 
L 111.653126 142.797118 
L 111.653126 142.797118 
L 111.829857 142.105927 
L 111.829857 142.105927 
L 112.006588 140.453367 
L 112.183319 140.799326 
L 112.183319 140.799326 
L 112.360049 139.992927 
L 112.360049 139.992927 
L 112.53678 137.020698 
L 112.53678 137.020698 
L 112.713511 137.69871 
L 112.713511 137.69871 
L 113.243704 133.735516 
L 113.243704 133.735516 
L 113.420435 130.010164 
L 113.420435 130.010164 
L 113.597165 129.58714 
L 113.597165 129.58714 
L 113.773896 127.158561 
L 113.773896 127.158561 
L 113.950627 122.157993 
L 113.950627 122.157993 
L 114.127358 121.971359 
L 114.127358 121.971359 
L 114.304089 118.636419 
L 114.304089 118.636419 
L 114.48082 111.25273 
L 114.48082 111.25273 
L 114.65755 111.358165 
L 114.65755 111.358165 
L 114.834281 106.722711 
L 114.834281 106.722711 
L 115.011012 96.654785 
L 115.011012 96.654785 
L 115.187743 96.91692 
L 115.364474 98.98893 
L 115.364474 98.98893 
L 115.541205 110.835848 
L 115.541205 110.835848 
L 115.717935 111.31656 
L 115.894666 117.443351 
L 115.894666 117.443351 
L 116.071397 127.790668 
L 116.071397 127.790668 
L 116.248128 128.39664 
L 116.248128 128.39664 
L 116.424859 132.82921 
L 116.424859 132.82921 
L 116.60159 140.258301 
L 116.60159 140.258301 
L 116.77832 140.882646 
L 116.77832 140.882646 
L 117.308513 150.406867 
L 117.308513 150.406867 
L 117.661975 157.834506 
L 117.661975 157.834506 
L 117.838705 157.690315 
L 118.192167 163.65549 
L 118.192167 163.65549 
L 118.368898 163.291605 
L 118.368898 163.291605 
L 118.545629 165.524113 
L 118.545629 165.524113 
L 118.72236 166.047156 
L 118.72236 166.047156 
L 119.075821 168.64165 
L 119.075821 168.64165 
L 119.252552 168.836381 
L 119.252552 168.836381 
L 119.429283 169.869119 
L 119.429283 169.869119 
L 119.606014 169.840359 
L 119.606014 169.840359 
L 119.782745 170.642011 
L 119.782745 170.642011 
L 119.959475 170.539424 
L 119.959475 170.539424 
L 120.136206 170.781009 
L 120.136206 170.781009 
L 120.312937 171.299863 
L 120.312937 171.299863 
L 120.489668 170.841209 
L 120.489668 170.841209 
L 120.666399 171.51816 
L 120.666399 171.51816 
L 120.84313 170.926261 
L 120.84313 170.926261 
L 121.196591 171.486552 
L 121.196591 171.486552 
L 121.550053 171.563897 
L 121.550053 171.563897 
L 121.726784 170.551486 
L 121.726784 170.551486 
L 121.903515 171.201464 
L 121.903515 171.201464 
L 122.080245 171.41602 
L 122.256976 171.301091 
L 122.256976 171.301091 
L 122.433707 171.465666 
L 122.433707 171.465666 
L 122.610438 171.006733 
L 122.610438 171.006733 
L 122.787169 171.434225 
L 122.9639 170.3782 
L 122.9639 170.3782 
L 123.14063 170.763082 
L 123.14063 170.763082 
L 123.317361 170.538251 
L 123.317361 170.538251 
L 123.494092 170.501003 
L 123.494092 170.501003 
L 123.670823 170.829091 
L 123.670823 170.829091 
L 123.847554 169.058252 
L 123.847554 169.058252 
L 124.024285 169.787139 
L 124.024285 169.787139 
L 124.201015 169.45274 
L 124.201015 169.45274 
L 124.377746 169.485688 
L 124.377746 169.485688 
L 124.554477 169.776807 
L 124.554477 169.776807 
L 124.731208 167.96375 
L 124.731208 167.96375 
L 124.907939 168.966499 
L 124.907939 168.966499 
L 125.08467 167.600982 
L 125.08467 167.600982 
L 125.438131 168.284131 
L 125.438131 168.284131 
L 125.614862 167.647445 
L 125.791593 167.822574 
L 125.791593 167.822574 
L 125.968324 165.915809 
L 125.968324 165.915809 
L 126.145055 166.307169 
L 126.145055 166.307169 
L 126.321786 165.478265 
L 126.321786 165.478265 
L 126.498516 165.439062 
L 126.498516 165.439062 
L 126.675247 165.730069 
L 126.675247 165.730069 
L 126.851978 163.709157 
L 126.851978 163.709157 
L 127.028709 164.222873 
L 127.028709 164.222873 
L 127.20544 163.158136 
L 127.20544 163.158136 
L 127.558901 163.133788 
L 127.558901 163.133788 
L 127.735632 160.369861 
L 127.735632 160.369861 
L 127.912363 161.153028 
L 127.912363 161.153028 
L 128.089094 160.016921 
L 128.089094 160.016921 
L 128.265825 159.759533 
L 128.265825 159.759533 
L 128.442556 160.043057 
L 128.442556 160.043057 
L 128.619286 157.668591 
L 128.619286 157.668591 
L 128.796017 158.885561 
L 128.796017 158.885561 
L 128.972748 156.803108 
L 128.972748 156.803108 
L 129.32621 156.254936 
L 129.32621 156.254936 
L 129.502941 154.227378 
L 129.502941 154.227378 
L 129.679671 155.29111 
L 129.679671 155.29111 
L 129.856402 153.700482 
L 129.856402 153.700482 
L 130.033133 153.311467 
L 130.033133 153.311467 
L 130.209864 152.470221 
L 130.386595 150.441379 
L 130.386595 150.441379 
L 130.563326 151.156081 
L 130.563326 151.156081 
L 131.270249 146.328856 
L 131.270249 146.328856 
L 131.44698 146.495664 
L 131.44698 146.495664 
L 131.623711 145.713167 
L 131.800441 142.589543 
L 131.800441 142.589543 
L 131.977172 143.610609 
L 131.977172 143.610609 
L 132.153903 141.498559 
L 132.153903 141.498559 
L 132.330634 141.306564 
L 132.330634 141.306564 
L 132.507365 140.561874 
L 132.507365 140.561874 
L 132.684096 137.94359 
L 132.684096 137.94359 
L 132.860826 138.122572 
L 132.860826 138.122572 
L 133.037557 136.766381 
L 133.037557 136.766381 
L 133.214288 134.143797 
L 133.214288 134.143797 
L 133.391019 134.702859 
L 133.391019 134.702859 
L 133.56775 133.3164 
L 133.744481 130.059531 
L 133.744481 130.059531 
L 133.921211 131.00275 
L 133.921211 131.00275 
L 134.097942 128.700157 
L 134.097942 128.700157 
L 134.274673 128.505537 
L 134.274673 128.505537 
L 134.451404 126.982147 
L 134.451404 126.982147 
L 134.628135 124.199567 
L 134.628135 124.199567 
L 134.804866 124.251056 
L 134.804866 124.251056 
L 134.981596 123.048438 
L 134.981596 123.048438 
L 135.158327 119.379211 
L 135.158327 119.379211 
L 135.335058 119.631853 
L 135.335058 119.631853 
L 135.511789 118.233946 
L 135.511789 118.233946 
L 135.68852 114.239701 
L 135.68852 114.239701 
L 135.865251 114.627655 
L 135.865251 114.627655 
L 136.041981 112.532246 
L 136.041981 112.532246 
L 136.218712 108.792878 
L 136.218712 108.792878 
L 136.395443 109.226792 
L 136.395443 109.226792 
L 136.572174 107.011428 
L 136.572174 107.011428 
L 136.748905 103.049462 
L 136.748905 103.049462 
L 136.925636 103.396426 
L 136.925636 103.396426 
L 137.102367 101.178103 
L 137.102367 101.178103 
L 137.279097 97.015877 
L 137.279097 97.015877 
L 137.455828 96.743913 
L 137.455828 96.743913 
L 137.986021 90.206328 
L 137.986021 90.206328 
L 138.339482 83.92133 
L 138.339482 83.92133 
L 138.516213 77.959897 
L 138.516213 77.959897 
L 138.692944 79.866662 
L 138.692944 79.866662 
L 139.223137 71.096067 
L 139.223137 71.096067 
L 139.399867 68.602708 
L 139.399867 68.602708 
L 139.753329 57.858501 
L 139.753329 57.858501 
L 139.93006 58.535061 
L 139.93006 58.535061 
L 140.283522 53.568 
L 140.283522 53.568 
L 150.710641 53.568 
L 150.710641 53.568 
L 150.887372 57.229186 
L 150.887372 57.229186 
L 151.240833 71.99729 
L 151.240833 71.99729 
L 151.417564 81.392119 
L 151.417564 81.392119 
L 151.594295 80.167944 
L 151.594295 80.167944 
L 152.124488 102.340903 
L 152.124488 102.340903 
L 152.301218 102.394068 
L 152.301218 102.394068 
L 152.831411 124.799676 
L 153.008142 123.571481 
L 153.184873 128.961008 
L 153.184873 128.961008 
L 153.361603 138.921544 
L 153.361603 138.921544 
L 153.538334 137.873449 
L 153.538334 137.873449 
L 153.715065 142.796504 
L 153.715065 142.796504 
L 153.891796 152.736266 
L 153.891796 152.736266 
L 154.068527 151.4386 
L 154.068527 151.4386 
L 154.245258 157.070549 
L 154.245258 157.070549 
L 154.421988 166.349555 
L 154.421988 166.349555 
L 154.598719 164.714978 
L 154.598719 164.714978 
L 154.77545 171.646268 
L 154.952181 172.693526 
L 154.952181 172.693526 
L 155.128912 176.687994 
L 155.128912 176.687994 
L 155.305643 185.024451 
L 155.305643 185.024451 
L 155.482373 183.940727 
L 155.482373 183.940727 
L 155.659104 190.101359 
L 155.659104 190.101359 
L 155.835835 190.851466 
L 155.835835 190.851466 
L 156.189297 197.355655 
L 156.189297 197.355655 
L 156.366028 200.234176 
L 156.366028 200.234176 
L 156.542758 206.939854 
L 156.719489 205.954974 
L 156.719489 205.954974 
L 156.89622 211.736811 
L 156.89622 211.736811 
L 157.072951 211.263135 
L 157.072951 211.263135 
L 157.249682 215.959907 
L 157.249682 215.959907 
L 157.426413 216.149556 
L 157.426413 216.149556 
L 157.603143 219.994863 
L 157.603143 219.994863 
L 157.779874 220.607536 
L 157.779874 220.607536 
L 157.956605 223.873676 
L 157.956605 223.873676 
L 158.133336 224.64573 
L 158.133336 224.64573 
L 158.310067 227.666097 
L 158.310067 227.666097 
L 158.486798 228.282065 
L 158.486798 228.282065 
L 158.663528 230.786537 
L 158.663528 230.786537 
L 158.840259 231.54558 
L 158.840259 231.54558 
L 159.01699 234.232553 
L 159.01699 234.232553 
L 159.193721 234.445154 
L 159.193721 234.445154 
L 159.370452 236.965486 
L 159.547183 237.007482 
L 159.547183 237.007482 
L 159.723913 238.98489 
L 159.723913 238.98489 
L 159.900644 239.252946 
L 159.900644 239.252946 
L 160.077375 241.065221 
L 160.077375 241.065221 
L 160.254106 241.189364 
L 160.254106 241.189364 
L 160.430837 243.196427 
L 160.430837 243.196427 
L 160.607568 243.206814 
L 160.607568 243.206814 
L 160.784299 244.228886 
L 160.784299 244.228886 
L 160.961029 244.196998 
L 160.961029 244.196998 
L 161.13776 245.315682 
L 161.13776 245.315682 
L 161.314491 245.55587 
L 161.314491 245.55587 
L 161.491222 246.09265 
L 161.491222 246.09265 
L 161.667953 246.191049 
L 161.667953 246.191049 
L 161.844684 246.594416 
L 161.844684 246.594416 
L 162.021414 246.684996 
L 162.021414 246.684996 
L 162.374876 247.406511 
L 162.374876 247.406511 
L 162.551607 247.230712 
L 162.551607 247.230712 
L 162.728338 247.37468 
L 163.25853 247.337487 
L 163.25853 247.337487 
L 163.435261 247.471459 
L 163.435261 247.471459 
L 163.611992 247.320845 
L 163.788723 247.529091 
L 163.788723 247.529091 
L 164.142184 247.087358 
L 164.142184 247.087358 
L 164.672377 247.365242 
L 164.672377 247.365242 
L 165.025839 246.99823 
L 165.025839 246.99823 
L 165.202569 245.944494 
L 165.202569 245.944494 
L 165.3793 246.057357 
L 165.3793 246.057357 
L 165.556031 245.400733 
L 165.556031 245.400733 
L 165.732762 245.572624 
L 165.732762 245.572624 
L 165.909493 244.317288 
L 165.909493 244.317288 
L 166.086224 244.594278 
L 166.086224 244.594278 
L 166.262954 242.687234 
L 166.262954 242.687234 
L 166.439685 243.402159 
L 166.439685 243.402159 
L 166.616416 241.466075 
L 166.616416 241.466075 
L 166.793147 242.378021 
L 166.969878 239.225861 
L 166.969878 239.225861 
L 167.146609 240.488009 
L 167.146609 240.488009 
L 167.323339 237.124644 
L 167.323339 237.124644 
L 167.50007 238.944515 
L 167.50007 238.944515 
L 168.030263 235.381951 
L 168.030263 235.381951 
L 168.383724 233.096502 
L 168.383724 233.096502 
L 168.560455 230.92816 
L 168.560455 230.92816 
L 168.737186 230.632182 
L 168.737186 230.632182 
L 168.913917 228.50321 
L 168.913917 228.50321 
L 169.090648 228.387165 
L 169.090648 228.387165 
L 169.267379 225.142916 
L 169.267379 225.142916 
L 169.444109 225.201218 
L 169.444109 225.201218 
L 169.62084 222.013373 
L 169.62084 222.013373 
L 169.797571 222.243454 
L 169.797571 222.243454 
L 169.974302 218.761027 
L 169.974302 218.761027 
L 170.151033 219.136695 
L 170.151033 219.136695 
L 170.327764 215.421005 
L 170.327764 215.421005 
L 170.504494 215.893899 
L 170.504494 215.893899 
L 170.681225 211.986828 
L 170.681225 211.986828 
L 170.857956 212.515846 
L 170.857956 212.515846 
L 171.034687 208.490496 
L 171.034687 208.490496 
L 171.211418 209.022083 
L 171.211418 209.022083 
L 171.388149 204.953956 
L 171.388149 204.953956 
L 171.564879 205.420205 
L 171.564879 205.420205 
L 171.74161 201.38592 
L 171.74161 201.38592 
L 171.918341 201.720765 
L 171.918341 201.720765 
L 172.095072 197.798896 
L 172.095072 197.798896 
L 172.271803 197.933035 
L 172.271803 197.933035 
L 172.448534 194.198972 
L 172.448534 194.198972 
L 172.625265 194.06137 
L 172.625265 194.06137 
L 172.801995 190.501319 
L 172.801995 190.501319 
L 172.978726 190.129225 
L 172.978726 190.129225 
L 173.155457 187.052064 
L 173.155457 187.052064 
L 173.332188 185.942819 
L 173.332188 185.942819 
L 173.86238 179.908229 
L 173.86238 179.908229 
L 174.039111 174.635641 
L 174.039111 174.635641 
L 174.215842 175.601365 
L 174.215842 175.601365 
L 174.392573 171.124119 
L 174.392573 171.124119 
L 174.569304 171.950567 
L 174.569304 171.950567 
L 174.746035 168.181098 
L 174.746035 168.181098 
L 174.922765 168.026017 
L 174.922765 168.026017 
L 175.276227 163.359289 
L 175.276227 163.359289 
L 175.452958 161.787146 
L 175.452958 161.787146 
L 175.629689 156.589279 
L 175.629689 156.589279 
L 175.80642 158.407641 
L 175.80642 158.407641 
L 175.98315 154.428978 
L 175.98315 154.428978 
L 176.159881 154.354034 
L 176.159881 154.354034 
L 176.336612 151.979569 
L 176.336612 151.979569 
L 176.513343 147.488473 
L 176.513343 147.488473 
L 176.690074 149.384293 
L 176.690074 149.384293 
L 176.866805 145.149246 
L 176.866805 145.149246 
L 177.043535 145.399765 
L 177.043535 145.399765 
L 177.396997 141.806096 
L 177.396997 141.806096 
L 177.573728 140.712375 
L 177.573728 140.712375 
L 177.750459 136.908171 
L 177.750459 136.908171 
L 177.92719 136.982501 
L 177.92719 136.982501 
L 178.10392 134.728716 
L 178.10392 134.728716 
L 178.280651 129.860277 
L 178.280651 129.860277 
L 178.457382 131.237186 
L 178.457382 131.237186 
L 178.634113 127.812838 
L 178.634113 127.812838 
L 178.810844 126.633843 
L 178.810844 126.633843 
L 178.987575 124.118369 
L 178.987575 124.118369 
L 179.164305 119.157786 
L 179.164305 119.157786 
L 179.341036 118.97657 
L 179.341036 118.97657 
L 179.517767 116.334831 
L 179.517767 116.334831 
L 179.694498 109.04954 
L 179.694498 109.04954 
L 179.871229 109.370481 
L 179.871229 109.370481 
L 180.04796 105.361102 
L 180.04796 105.361102 
L 180.22469 96.959586 
L 180.22469 96.959586 
L 180.401421 97.630561 
L 180.401421 97.630561 
L 181.638537 57.384825 
L 181.638537 57.384825 
L 181.815268 56.392184 
L 181.815268 56.392184 
L 181.991999 67.782906 
L 181.991999 67.782906 
L 182.16873 66.61251 
L 182.16873 66.61251 
L 183.052384 98.183592 
L 183.052384 98.183592 
L 183.229115 107.818106 
L 183.229115 107.818106 
L 183.405845 108.671694 
L 183.405845 108.671694 
L 183.759307 122.630943 
L 183.759307 122.630943 
L 183.936038 133.403518 
L 183.936038 133.403518 
L 184.112769 131.425048 
L 184.112769 131.425048 
L 184.996423 166.322191 
L 184.996423 166.322191 
L 185.173154 164.522816 
L 185.173154 164.522816 
L 185.349885 172.660187 
L 185.349885 172.660187 
L 185.526616 174.390315 
L 185.526616 174.390315 
L 185.703346 179.833899 
L 185.703346 179.833899 
L 185.880077 190.609156 
L 185.880077 190.609156 
L 186.056808 189.10062 
L 186.056808 189.10062 
L 186.233539 197.174495 
L 186.233539 197.174495 
L 186.41027 197.551168 
L 186.41027 197.551168 
L 186.763731 206.428706 
L 186.763731 206.428706 
L 186.940462 210.183599 
L 186.940462 210.183599 
L 187.117193 221.193962 
L 187.117193 221.193962 
L 187.293924 217.503235 
L 187.293924 217.503235 
L 187.470655 227.237041 
L 187.470655 227.237041 
L 187.647386 224.577208 
L 187.647386 224.577208 
L 187.824116 232.888089 
L 187.824116 232.888089 
L 188.000847 230.723042 
L 188.000847 230.723042 
L 188.177578 238.751571 
L 188.177578 238.751571 
L 188.354309 236.923379 
L 188.354309 236.923379 
L 188.53104 244.467622 
L 188.53104 244.467622 
L 188.707771 242.282136 
L 188.707771 242.282136 
L 188.884501 249.221188 
L 188.884501 249.221188 
L 189.061232 246.968465 
L 189.061232 246.968465 
L 189.591425 253.212194 
L 189.591425 253.212194 
L 189.768156 256.848194 
L 189.768156 256.848194 
L 189.944886 257.210291 
L 189.944886 257.210291 
L 190.121617 260.266622 
L 190.121617 260.266622 
L 190.298348 260.054523 
L 190.298348 260.054523 
L 190.475079 263.765914 
L 190.475079 263.765914 
L 190.65181 263.447096 
L 190.65181 263.447096 
L 190.828541 266.744062 
L 191.005271 265.99105 
L 191.005271 265.99105 
L 191.535464 268.467879 
L 191.535464 268.467879 
L 191.712195 270.369339 
L 191.712195 270.369339 
L 191.888926 270.356607 
L 191.888926 270.356607 
L 192.242387 271.556823 
L 192.242387 271.556823 
L 192.419118 271.51265 
L 192.419118 271.51265 
L 192.595849 272.696839 
L 192.595849 272.696839 
L 193.126041 273.62068 
L 193.126041 273.62068 
L 193.302772 273.372617 
L 193.302772 273.372617 
L 193.479503 274.030469 
L 193.479503 274.030469 
L 193.656234 273.688475 
L 193.656234 273.688475 
L 193.832965 274.396253 
L 193.832965 274.396253 
L 194.009696 274.189906 
L 194.009696 274.189906 
L 194.363157 274.640741 
L 194.363157 274.640741 
L 194.539888 274.784542 
L 194.539888 274.784542 
L 194.89335 274.433389 
L 194.89335 274.433389 
L 195.246812 274.733723 
L 195.246812 274.733723 
L 195.423542 274.494093 
L 195.777004 274.787166 
L 195.777004 274.787166 
L 196.307197 274.221738 
L 196.307197 274.221738 
L 196.483927 274.457068 
L 196.483927 274.457068 
L 196.837389 273.987134 
L 196.837389 273.987134 
L 197.01412 273.988474 
L 197.01412 273.988474 
L 197.190851 272.685559 
L 197.190851 272.685559 
L 197.367582 273.323083 
L 197.367582 273.323083 
L 197.544312 271.306974 
L 197.544312 271.306974 
L 197.721043 272.305758 
L 197.721043 272.305758 
L 197.897774 271.682753 
L 197.897774 271.682753 
L 198.074505 270.550109 
L 198.074505 270.550109 
L 198.251236 270.607964 
L 198.251236 270.607964 
L 198.427967 267.5002 
L 198.427967 267.5002 
L 198.604697 268.825677 
L 198.604697 268.825677 
L 198.958159 266.397712 
L 198.958159 266.397712 
L 199.13489 265.70613 
L 199.13489 265.70613 
L 199.311621 263.108676 
L 199.311621 263.108676 
L 199.488352 263.320551 
L 199.665082 258.355445 
L 199.665082 258.355445 
L 199.841813 260.669375 
L 199.841813 260.669375 
L 200.195275 256.250542 
L 200.195275 256.250542 
L 200.372006 255.570408 
L 200.372006 255.570408 
L 200.548737 251.123039 
L 200.548737 251.123039 
L 200.725467 251.846118 
L 200.725467 251.846118 
L 200.902198 245.719272 
L 200.902198 245.719272 
L 201.078929 247.759618 
L 201.078929 247.759618 
L 201.609122 240.857311 
L 201.609122 240.857311 
L 201.785852 236.047342 
L 201.785852 236.047342 
L 201.962583 235.981389 
L 201.962583 235.981389 
L 202.139314 229.942778 
L 202.139314 229.942778 
L 202.316045 231.104071 
L 202.316045 231.104071 
L 202.492776 222.682617 
L 202.492776 222.682617 
L 202.669507 225.330778 
L 202.669507 225.330778 
L 202.846237 215.280109 
L 202.846237 215.280109 
L 203.022968 218.407921 
L 203.022968 218.407921 
L 203.199699 215.778635 
L 203.199699 215.778635 
L 203.729892 203.121856 
L 203.729892 203.121856 
L 203.906622 201.180355 
L 203.906622 201.180355 
L 204.083353 194.356733 
L 204.083353 194.356733 
L 204.260084 193.126472 
L 204.260084 193.126472 
L 204.436815 185.380964 
L 204.436815 185.380964 
L 204.613546 184.250609 
L 204.613546 184.250609 
L 204.790277 176.060968 
L 204.790277 176.060968 
L 204.967007 175.001089 
L 204.967007 175.001089 
L 205.143738 167.275853 
L 205.143738 167.275853 
L 205.320469 164.974991 
L 205.320469 164.974991 
L 205.673931 154.427638 
L 205.673931 154.427638 
L 205.850662 148.702539 
L 205.850662 148.702539 
L 206.027392 135.560245 
L 206.027392 135.560245 
L 206.204123 138.081917 
L 206.380854 126.848789 
L 206.380854 126.848789 
L 206.557585 126.551695 
L 206.557585 126.551695 
L 206.911047 115.276237 
L 206.911047 115.276237 
L 207.087778 110.03509 
L 207.087778 110.03509 
L 207.264508 98.925323 
L 207.264508 98.925323 
L 207.441239 98.369555 
L 207.441239 98.369555 
L 207.61797 92.738053 
L 207.61797 92.738053 
L 207.794701 81.164719 
L 207.794701 81.164719 
L 207.971432 82.436584 
L 207.971432 82.436584 
L 208.324893 65.078732 
L 208.324893 65.078732 
L 208.501624 66.382094 
L 208.501624 66.382094 
L 208.855086 53.568 
L 208.855086 53.568 
L 214.863934 53.568 
L 214.863934 53.568 
L 215.040665 57.60128 
L 215.040665 57.60128 
L 215.217396 58.01777 
L 215.217396 58.01777 
L 215.747588 72.216984 
L 215.747588 72.216984 
L 215.924319 78.615459 
L 215.924319 78.615459 
L 216.10105 77.250891 
L 216.10105 77.250891 
L 216.631243 93.134272 
L 216.631243 93.134272 
L 216.807973 92.479715 
L 216.807973 92.479715 
L 217.161435 103.161208 
L 217.161435 103.161208 
L 217.338166 110.243558 
L 217.514897 108.595522 
L 217.514897 108.595522 
L 218.575282 131.987238 
L 218.575282 131.987238 
L 218.752013 135.383496 
L 218.752013 135.383496 
L 218.928744 141.263955 
L 218.928744 141.263955 
L 219.105474 142.335226 
L 219.105474 142.335226 
L 219.989129 162.326328 
L 219.989129 162.326328 
L 220.165859 161.766651 
L 220.165859 161.766651 
L 220.34259 166.451528 
L 220.34259 166.451528 
L 220.519321 168.069408 
L 220.519321 168.069408 
L 220.696052 170.942177 
L 220.696052 170.942177 
L 220.872783 176.533303 
L 220.872783 176.533303 
L 221.049514 176.503985 
L 221.049514 176.503985 
L 221.226244 179.812622 
L 221.226244 179.812622 
L 221.402975 180.513866 
L 221.402975 180.513866 
L 222.109899 190.721404 
L 222.109899 190.721404 
L 222.286629 191.1862 
L 222.286629 191.1862 
L 222.640091 194.037468 
L 222.640091 194.037468 
L 222.816822 195.719849 
L 222.993553 198.772662 
L 222.993553 198.772662 
L 223.170284 198.30552 
L 223.170284 198.30552 
L 223.347014 200.456774 
L 223.347014 200.456774 
L 223.523745 200.461241 
L 223.523745 200.461241 
L 223.700476 201.859874 
L 223.700476 201.859874 
L 223.877207 202.197512 
L 223.877207 202.197512 
L 224.230669 203.531533 
L 224.230669 203.531533 
L 224.937592 204.957642 
L 224.937592 204.957642 
L 225.467784 205.292599 
L 225.467784 205.292599 
L 225.644515 205.157287 
L 225.644515 205.157287 
L 225.821246 205.373351 
L 225.821246 205.373351 
L 225.997977 205.189398 
L 225.997977 205.189398 
L 226.174708 205.407807 
L 226.174708 205.407807 
L 226.351439 205.218996 
L 226.351439 205.218996 
L 226.528169 205.438019 
L 226.528169 205.438019 
L 226.7049 205.206989 
L 226.7049 205.206989 
L 226.881631 205.402613 
L 226.881631 205.402613 
L 227.058362 205.092842 
L 227.058362 205.092842 
L 227.235093 204.379146 
L 227.235093 204.379146 
L 227.411824 204.77637 
L 227.411824 204.77637 
L 227.588554 203.756085 
L 227.588554 203.756085 
L 227.765285 204.163529 
L 227.765285 204.163529 
L 227.942016 202.835539 
L 228.118747 203.184737 
L 228.118747 203.184737 
L 228.295478 201.580148 
L 228.295478 201.580148 
L 228.472209 201.763431 
L 228.472209 201.763431 
L 228.648939 199.93859 
L 228.648939 199.93859 
L 228.82567 199.824108 
L 228.82567 199.824108 
L 229.002401 197.709767 
L 229.002401 197.709767 
L 229.179132 197.276356 
L 229.179132 197.276356 
L 229.709324 191.607549 
L 229.709324 191.607549 
L 229.886055 185.499244 
L 229.886055 185.499244 
L 230.062786 187.060776 
L 230.062786 187.060776 
L 230.239517 180.859657 
L 230.239517 180.859657 
L 230.416248 181.693141 
L 230.416248 181.693141 
L 230.592979 175.218884 
L 230.592979 175.218884 
L 230.76971 174.951499 
L 230.76971 174.951499 
L 230.94644 169.031111 
L 230.94644 169.031111 
L 231.123171 167.211185 
L 231.123171 167.211185 
L 231.299902 162.465046 
L 231.299902 162.465046 
L 231.476633 149.854562 
L 231.476633 149.854562 
L 231.653364 153.167444 
L 231.653364 153.167444 
L 231.830095 141.523019 
L 231.830095 141.523019 
L 232.006825 142.331707 
L 232.006825 142.331707 
L 232.183556 133.220906 
L 232.183556 133.220906 
L 232.360287 130.40186 
L 232.360287 130.40186 
L 232.537018 124.155506 
L 232.537018 124.155506 
L 232.713749 108.044836 
L 232.713749 108.044836 
L 232.89048 109.618264 
L 232.89048 109.618264 
L 233.06721 99.978779 
L 233.06721 99.978779 
L 233.243941 96.565936 
L 233.243941 96.565936 
L 233.420672 90.431718 
L 233.420672 90.431718 
L 233.597403 80.295773 
L 233.597403 80.295773 
L 233.774134 78.985375 
L 233.774134 78.985375 
L 234.657788 55.433999 
L 234.657788 55.433999 
L 234.834519 53.568 
L 234.834519 53.568 
L 241.196829 53.568 
L 241.196829 53.568 
L 241.37356 55.340738 
L 241.37356 55.340738 
L 241.903752 66.666009 
L 242.080483 66.165417 
L 242.433945 72.096861 
L 242.433945 72.096861 
L 242.610676 76.298402 
L 242.610676 76.298402 
L 242.787406 77.150873 
L 242.787406 77.150873 
L 243.847791 93.458507 
L 243.847791 93.458507 
L 244.024522 98.024044 
L 244.024522 98.024044 
L 244.201253 98.695745 
L 244.201253 98.695745 
L 244.554715 104.827673 
L 244.554715 104.827673 
L 244.731446 109.644846 
L 244.731446 109.644846 
L 244.908176 109.462178 
L 244.908176 109.462178 
L 245.084907 111.983068 
L 245.084907 111.983068 
L 245.261638 116.529562 
L 245.261638 116.529562 
L 245.438369 116.819899 
L 245.438369 116.819899 
L 245.791831 123.139074 
L 245.791831 123.139074 
L 245.968561 127.364014 
L 245.968561 127.364014 
L 246.145292 126.36132 
L 246.145292 126.36132 
L 246.498754 133.099834 
L 246.498754 133.099834 
L 246.675485 132.175212 
L 246.675485 132.175212 
L 247.028946 137.359956 
L 247.028946 137.359956 
L 247.205677 136.924534 
L 247.205677 136.924534 
L 247.559139 139.984829 
L 247.559139 139.984829 
L 248.089331 142.593396 
L 248.089331 142.593396 
L 248.972986 145.330797 
L 248.972986 145.330797 
L 249.149716 145.597289 
L 249.149716 145.597289 
L 249.326447 146.100785 
L 249.326447 146.100785 
L 249.503178 145.700322 
L 249.503178 145.700322 
L 249.679909 145.965976 
L 249.679909 145.965976 
L 250.033371 145.69457 
L 250.033371 145.69457 
L 250.210101 145.974129 
L 250.210101 145.974129 
L 250.386832 145.817261 
L 250.386832 145.817261 
L 250.740294 146.353204 
L 250.740294 146.353204 
L 251.093756 145.871263 
L 251.093756 145.871263 
L 251.270486 146.300598 
L 251.270486 146.300598 
L 251.447217 144.727226 
L 251.447217 144.727226 
L 251.623948 145.029961 
L 251.623948 145.029961 
L 251.800679 144.311797 
L 251.800679 144.311797 
L 251.97741 142.732171 
L 251.97741 142.732171 
L 252.154141 143.703591 
L 252.154141 143.703591 
L 252.330871 141.86384 
L 252.330871 141.86384 
L 252.507602 141.653137 
L 252.507602 141.653137 
L 252.684333 140.434547 
L 252.684333 140.434547 
L 252.861064 138.098447 
L 252.861064 138.098447 
L 253.037795 138.070637 
L 253.037795 138.070637 
L 253.214526 136.498996 
L 253.214526 136.498996 
L 253.391256 133.08766 
L 253.391256 133.08766 
L 253.567987 133.429486 
L 253.567987 133.429486 
L 253.744718 131.660267 
L 253.744718 131.660267 
L 253.921449 127.041454 
L 253.921449 127.041454 
L 254.09818 127.846345 
L 254.09818 127.846345 
L 254.274911 125.306412 
L 254.274911 125.306412 
L 254.451642 120.183935 
L 254.451642 120.183935 
L 254.628372 121.31105 
L 254.628372 121.31105 
L 254.805103 117.762224 
L 254.805103 117.762224 
L 254.981834 116.925837 
L 254.981834 116.925837 
L 256.21895 97.684675 
L 256.21895 97.684675 
L 256.572412 87.119897 
L 256.572412 87.119897 
L 256.749142 88.944459 
L 256.749142 88.944459 
L 256.925873 84.690536 
L 256.925873 84.690536 
L 257.102604 77.747798 
L 257.279335 79.229249 
L 257.279335 79.229249 
L 257.456066 75.16827 
L 257.456066 75.16827 
L 257.632797 68.419704 
L 257.632797 68.419704 
L 257.809527 67.6682 
L 257.809527 67.6682 
L 257.986258 64.547927 
L 257.986258 64.547927 
L 258.33972 53.568 
L 258.33972 53.568 
L 276.189534 53.568 
L 276.189534 53.568 
L 276.366265 60.552901 
L 276.366265 60.552901 
L 276.542996 58.929325 
L 276.542996 58.929325 
L 277.780112 112.313223 
L 277.780112 112.313223 
L 277.956843 113.131182 
L 277.956843 113.131182 
L 278.310304 129.956832 
L 278.310304 129.956832 
L 278.487035 143.522151 
L 278.487035 143.522151 
L 278.663766 140.165096 
L 278.663766 140.165096 
L 278.840497 148.858514 
L 278.840497 148.858514 
L 279.017228 163.022377 
L 279.017228 163.022377 
L 279.193959 159.805493 
L 279.193959 159.805493 
L 279.370689 169.456091 
L 279.370689 169.456091 
L 279.54742 172.087554 
L 279.54742 172.087554 
L 279.724151 178.285714 
L 279.724151 178.285714 
L 279.900882 191.378976 
L 279.900882 191.378976 
L 280.077613 189.5194 
L 280.077613 189.5194 
L 280.254344 198.940866 
L 280.254344 198.940866 
L 280.431074 200.250818 
L 280.431074 200.250818 
L 280.607805 206.558769 
L 280.607805 206.558769 
L 280.784536 219.9398 
L 280.961267 215.013505 
L 280.961267 215.013505 
L 281.137998 227.445677 
L 281.137998 227.445677 
L 281.314729 223.456459 
L 281.314729 223.456459 
L 281.491459 234.487317 
L 281.491459 234.487317 
L 281.66819 231.797496 
L 281.66819 231.797496 
L 281.844921 241.901051 
L 281.844921 241.901051 
L 282.021652 238.849299 
L 282.021652 238.849299 
L 282.198383 248.412165 
L 282.198383 248.412165 
L 282.375114 245.967055 
L 282.375114 245.967055 
L 282.905306 254.394428 
L 282.905306 254.394428 
L 283.082037 259.275209 
L 283.082037 259.275209 
L 283.258768 260.127401 
L 283.258768 260.127401 
L 283.435499 265.023874 
L 283.435499 265.023874 
L 283.612229 264.549416 
L 283.612229 264.549416 
L 283.78896 271.020657 
L 283.78896 271.020657 
L 283.965691 269.535744 
L 283.965691 269.535744 
L 284.142422 271.328865 
L 284.142422 271.328865 
L 284.319153 274.836924 
L 284.319153 274.836924 
L 284.495884 275.576421 
L 284.495884 275.576421 
L 284.672614 279.464002 
L 284.672614 279.464002 
L 284.849345 279.127537 
L 284.849345 279.127537 
L 285.026076 284.151112 
L 285.026076 284.151112 
L 285.202807 282.681556 
L 285.202807 282.681556 
L 285.379538 283.936668 
L 285.379538 283.936668 
L 285.556269 286.66022 
L 285.556269 286.66022 
L 285.732999 286.685182 
L 285.732999 286.685182 
L 285.90973 289.49736 
L 285.90973 289.49736 
L 286.086461 288.982806 
L 286.086461 288.982806 
L 286.263192 289.784625 
L 286.263192 289.784625 
L 286.439923 291.665981 
L 286.439923 291.665981 
L 286.616654 291.895838 
L 286.793384 293.575818 
L 286.793384 293.575818 
L 286.970115 293.176137 
L 286.970115 293.176137 
L 287.323577 294.46241 
L 287.323577 294.46241 
L 287.500308 294.614252 
L 287.500308 294.614252 
L 287.677039 295.08078 
L 287.677039 295.08078 
L 287.853769 295.033088 
L 287.853769 295.033088 
L 288.0305 295.34621 
L 288.0305 295.34621 
L 288.207231 295.267022 
L 288.207231 295.267022 
L 288.383962 295.397308 
L 288.560693 295.226702 
L 288.560693 295.226702 
L 288.914155 295.488 
L 288.914155 295.488 
L 289.090885 295.281486 
L 289.090885 295.281486 
L 289.267616 295.412442 
L 289.267616 295.412442 
L 289.444347 295.104402 
L 289.444347 295.104402 
L 289.797809 295.395521 
L 289.797809 295.395521 
L 289.97454 294.842602 
L 289.97454 294.842602 
L 290.15127 295.043252 
L 290.15127 295.043252 
L 290.504732 294.260754 
L 290.504732 294.260754 
L 290.681463 294.253606 
L 290.681463 294.253606 
L 290.858194 292.677889 
L 290.858194 292.677889 
L 291.034925 293.090526 
L 291.034925 293.090526 
L 291.565117 290.909451 
L 291.565117 290.909451 
L 291.741848 288.113972 
L 291.741848 288.113972 
L 291.918579 288.730275 
L 291.918579 288.730275 
L 292.09531 287.834748 
L 292.09531 287.834748 
L 292.27204 285.659257 
L 292.27204 285.659257 
L 292.448771 285.149674 
L 292.448771 285.149674 
L 292.625502 281.739789 
L 292.625502 281.739789 
L 292.802233 282.090383 
L 292.802233 282.090383 
L 292.978964 276.741735 
L 292.978964 276.741735 
L 293.155695 278.369108 
L 293.155695 278.369108 
L 293.332425 277.050947 
L 293.332425 277.050947 
L 293.509156 273.641007 
L 293.509156 273.641007 
L 293.685887 273.850649 
L 293.862618 267.570509 
L 293.862618 267.570509 
L 294.039349 269.530047 
L 294.039349 269.530047 
L 294.21608 268.010008 
L 294.21608 268.010008 
L 294.39281 263.780489 
L 294.39281 263.780489 
L 294.569541 264.305989 
L 294.569541 264.305989 
L 294.746272 256.64503 
L 294.746272 256.64503 
L 294.923003 259.130794 
L 294.923003 259.130794 
L 295.099734 257.341192 
L 295.099734 257.341192 
L 295.276465 252.582599 
L 295.276465 252.582599 
L 295.453195 252.946372 
L 295.453195 252.946372 
L 295.629926 244.500738 
L 295.629926 244.500738 
L 295.806657 247.285216 
L 295.806657 247.285216 
L 296.33685 239.039172 
L 296.33685 239.039172 
L 296.51358 231.697087 
L 296.51358 231.697087 
L 296.690311 232.592167 
L 296.690311 232.592167 
L 296.867042 223.76355 
L 296.867042 223.76355 
L 297.043773 226.627551 
L 297.043773 226.627551 
L 298.104158 204.166042 
L 298.104158 204.166042 
L 298.280889 203.369639 
L 298.280889 203.369639 
L 298.45762 197.135627 
L 298.45762 197.135627 
L 298.63435 197.187339 
L 298.63435 197.187339 
L 298.811081 191.169837 
L 298.811081 191.169837 
L 298.987812 191.393831 
L 298.987812 191.393831 
L 299.164543 185.917745 
L 299.164543 185.917745 
L 299.341274 186.087457 
L 299.341274 186.087457 
L 299.518005 181.356005 
L 299.518005 181.356005 
L 299.694735 181.29089 
L 299.694735 181.29089 
L 299.871466 177.346571 
L 299.871466 177.346571 
L 300.048197 176.948677 
L 300.048197 176.948677 
L 300.224928 173.620829 
L 300.224928 173.620829 
L 300.401659 172.760986 
L 300.401659 172.760986 
L 301.108582 161.158669 
L 301.108582 161.158669 
L 301.285313 162.132267 
L 301.285313 162.132267 
L 301.462044 157.352063 
L 301.462044 157.352063 
L 301.638775 157.130917 
L 301.638775 157.130917 
L 301.992236 151.224603 
L 301.992236 151.224603 
L 302.168967 148.153808 
L 302.168967 148.153808 
L 302.345698 139.704935 
L 302.345698 139.704935 
L 302.522429 140.526245 
L 302.522429 140.526245 
L 302.69916 135.979974 
L 302.69916 135.979974 
L 302.875891 137.835474 
L 302.875891 137.835474 
L 303.052621 142.354771 
L 303.052621 142.354771 
L 303.229352 155.550398 
L 303.229352 155.550398 
L 303.406083 154.542901 
L 303.406083 154.542901 
L 303.582814 165.003751 
L 303.582814 165.003751 
L 303.759545 168.177579 
L 303.759545 168.177579 
L 303.936276 174.487038 
L 303.936276 174.487038 
L 304.113006 185.978615 
L 304.113006 185.978615 
L 304.289737 184.609859 
L 304.289737 184.609859 
L 304.466468 192.203748 
L 304.466468 192.203748 
L 304.643199 193.225429 
L 304.643199 193.225429 
L 304.81993 198.2031 
L 304.81993 198.2031 
L 304.996661 207.978344 
L 304.996661 207.978344 
L 305.173391 205.043643 
L 305.173391 205.043643 
L 305.350122 213.556179 
L 305.350122 213.556179 
L 305.526853 211.742787 
L 305.526853 211.742787 
L 305.703584 218.055316 
L 305.703584 218.055316 
L 305.880315 217.758501 
L 305.880315 217.758501 
L 306.057046 222.793972 
L 306.057046 222.793972 
L 306.233776 223.137976 
L 306.233776 223.137976 
L 306.410507 227.486723 
L 306.410507 227.486723 
L 306.587238 227.964978 
L 306.587238 227.964978 
L 306.763969 231.698036 
L 306.763969 231.698036 
L 306.9407 232.315177 
L 306.9407 232.315177 
L 307.117431 236.065771 
L 307.117431 236.065771 
L 307.294161 236.234087 
L 307.294161 236.234087 
L 307.470892 239.16337 
L 307.470892 239.16337 
L 307.647623 239.782913 
L 307.647623 239.782913 
L 307.824354 242.920386 
L 307.824354 242.920386 
L 308.001085 243.360946 
L 308.177816 246.022342 
L 308.177816 246.022342 
L 308.354546 246.20797 
L 308.354546 246.20797 
L 308.531277 248.903822 
L 308.531277 248.903822 
L 308.708008 248.837926 
L 308.708008 248.837926 
L 308.884739 251.267901 
L 308.884739 251.267901 
L 309.06147 251.206918 
L 309.06147 251.206918 
L 309.238201 253.204822 
L 309.238201 253.204822 
L 309.414931 252.834069 
L 309.414931 252.834069 
L 309.591662 254.995319 
L 309.591662 254.995319 
L 309.768393 254.910602 
L 309.768393 254.910602 
L 309.945124 255.599057 
L 309.945124 255.599057 
L 310.121855 256.984176 
L 310.121855 256.984176 
L 310.652047 258.108164 
L 310.652047 258.108164 
L 310.828778 259.394382 
L 310.828778 259.394382 
L 311.005509 259.454359 
L 311.005509 259.454359 
L 311.18224 259.646409 
L 311.18224 259.646409 
L 311.358971 260.388866 
L 311.358971 260.388866 
L 311.535701 259.98656 
L 311.535701 259.98656 
L 311.712432 261.00584 
L 311.712432 261.00584 
L 311.889163 260.854277 
L 311.889163 260.854277 
L 312.242625 261.152209 
L 312.242625 261.152209 
L 312.419356 261.487445 
L 312.419356 261.487445 
L 312.772817 261.273895 
L 312.772817 261.273895 
L 312.949548 261.712388 
L 312.949548 261.712388 
L 313.126279 261.583331 
L 313.126279 261.583331 
L 313.479741 261.743829 
L 313.479741 261.743829 
L 313.656472 261.334766 
L 313.656472 261.334766 
L 313.833202 261.494091 
L 313.833202 261.494091 
L 314.009933 261.358053 
L 314.009933 261.358053 
L 314.186664 261.691279 
L 314.186664 261.691279 
L 314.363395 260.442198 
L 314.363395 260.442198 
L 314.540126 261.5195 
L 314.540126 261.5195 
L 314.716857 260.78341 
L 314.716857 260.78341 
L 314.893587 261.061964 
L 314.893587 261.061964 
L 315.070318 260.781958 
L 315.070318 260.781958 
L 315.247049 260.110256 
L 315.247049 260.110256 
L 315.42378 260.380769 
L 315.42378 260.380769 
L 315.600511 258.44798 
L 315.600511 258.44798 
L 315.777242 259.655177 
L 315.777242 259.655177 
L 316.130703 258.157531 
L 316.130703 258.157531 
L 316.307434 257.700441 
L 316.307434 257.700441 
L 316.484165 255.397178 
L 316.484165 255.397178 
L 316.660896 255.581968 
L 316.660896 255.581968 
L 316.837627 253.283563 
L 316.837627 253.283563 
L 317.014357 254.145919 
L 317.014357 254.145919 
L 317.191088 250.098231 
L 317.191088 250.098231 
L 317.367819 252.077651 
L 317.367819 252.077651 
L 317.54455 250.925293 
L 317.54455 250.925293 
L 317.721281 248.239548 
L 317.721281 248.239548 
L 317.898012 247.946475 
L 317.898012 247.946475 
L 318.074742 245.055556 
L 318.074742 245.055556 
L 318.251473 245.464508 
L 318.251473 245.464508 
L 318.428204 240.430378 
L 318.428204 240.430378 
L 318.604935 241.863076 
L 318.604935 241.863076 
L 318.781666 236.278037 
L 318.781666 236.278037 
L 318.958397 238.74526 
L 318.958397 238.74526 
L 320.018782 225.134596 
L 320.195512 225.48558 
L 320.372243 220.004803 
L 320.372243 220.004803 
L 320.548974 221.254219 
L 320.548974 221.254219 
L 320.725705 215.198854 
L 320.725705 215.198854 
L 320.902436 216.857892 
L 320.902436 216.857892 
L 321.079167 210.325892 
L 321.079167 210.325892 
L 321.255897 212.310114 
L 321.255897 212.310114 
L 321.432628 205.379494 
L 321.432628 205.379494 
L 321.609359 207.623729 
L 321.609359 207.623729 
L 321.78609 200.515411 
L 321.962821 202.402742 
L 321.962821 202.402742 
L 322.139552 195.685784 
L 322.316282 197.851613 
L 322.316282 197.851613 
L 322.493013 190.809136 
L 322.493013 190.809136 
L 322.669744 192.420705 
L 322.669744 192.420705 
L 322.846475 185.979118 
L 323.023206 187.240764 
L 323.023206 187.240764 
L 323.199937 181.16429 
L 323.199937 181.16429 
L 323.376667 181.908813 
L 323.376667 181.908813 
L 323.553398 176.263852 
L 323.553398 176.263852 
L 323.730129 176.397601 
L 323.730129 176.397601 
L 323.90686 171.369557 
L 323.90686 171.369557 
L 324.083591 170.597949 
L 324.083591 170.597949 
L 324.437053 164.041043 
L 324.437053 164.041043 
L 324.613783 160.62267 
L 324.613783 160.62267 
L 324.790514 152.529472 
L 324.790514 152.529472 
L 324.967245 154.276968 
L 324.967245 154.276968 
L 325.143976 146.321987 
L 325.143976 146.321987 
L 325.320707 146.348848 
L 325.320707 146.348848 
L 325.674168 138.176686 
L 325.674168 138.176686 
L 325.850899 134.686329 
L 325.850899 134.686329 
L 326.02763 124.739754 
L 326.02763 124.739754 
L 326.204361 125.601216 
L 326.204361 125.601216 
L 326.381092 118.719907 
L 326.381092 118.719907 
L 326.734553 113.298884 
L 326.734553 113.298884 
L 326.911284 116.303111 
L 326.911284 116.303111 
L 327.088015 117.33261 
L 327.088015 117.33261 
L 327.264746 122.728224 
L 327.264746 122.728224 
L 327.441477 132.720201 
L 327.441477 132.720201 
L 327.618208 132.444551 
L 327.618208 132.444551 
L 327.794938 138.102971 
L 327.794938 138.102971 
L 327.971669 147.707273 
L 327.971669 147.707273 
L 328.1484 146.289262 
L 328.1484 146.289262 
L 328.325131 152.760782 
L 328.325131 152.760782 
L 328.501862 154.591319 
L 328.501862 154.591319 
L 329.385516 176.383974 
L 329.385516 176.383974 
L 329.562247 175.423611 
L 329.562247 175.423611 
L 329.738978 180.853737 
L 329.915708 181.531414 
L 329.915708 181.531414 
L 330.092439 184.575068 
L 330.092439 184.575068 
L 330.26917 190.43034 
L 330.26917 190.43034 
L 330.445901 188.847531 
L 330.445901 188.847531 
L 330.622632 193.657277 
L 330.622632 193.657277 
L 330.799363 193.239334 
L 330.799363 193.239334 
L 330.976093 196.66385 
L 330.976093 196.66385 
L 331.152824 197.138252 
L 331.152824 197.138252 
L 331.506286 200.520213 
L 331.506286 200.520213 
L 331.683017 201.879253 
L 331.683017 201.879253 
L 331.859748 205.09597 
L 331.859748 205.09597 
L 332.036478 204.412764 
L 332.036478 204.412764 
L 332.213209 206.726024 
L 332.213209 206.726024 
L 332.38994 206.525038 
L 332.38994 206.525038 
L 332.566671 208.018161 
L 332.566671 208.018161 
L 332.743402 208.12784 
L 332.743402 208.12784 
L 332.920133 208.974838 
L 333.803787 210.321983 
L 333.803787 210.321983 
L 333.980518 210.199683 
L 334.157248 210.544636 
L 334.157248 210.544636 
L 334.333979 210.261391 
L 334.333979 210.261391 
L 334.51071 210.36906 
L 334.51071 210.36906 
L 334.687441 210.286186 
L 334.687441 210.286186 
L 334.864172 210.06761 
L 334.864172 210.06761 
L 335.040903 210.287527 
L 335.040903 210.287527 
L 335.217633 209.943187 
L 335.217633 209.943187 
L 335.394364 210.188458 
L 335.394364 210.188458 
L 335.571095 209.62705 
L 335.571095 209.62705 
L 335.747826 209.875113 
L 335.747826 209.875113 
L 335.924557 209.078822 
L 336.101288 209.261378 
L 336.101288 209.261378 
L 336.278019 208.209094 
L 336.278019 208.209094 
L 336.454749 208.242992 
L 336.454749 208.242992 
L 336.63148 206.931533 
L 336.63148 206.931533 
L 336.808211 206.733675 
L 336.808211 206.733675 
L 337.338404 202.992966 
L 337.338404 202.992966 
L 337.515134 198.106098 
L 337.515134 198.106098 
L 337.691865 199.662046 
L 337.691865 199.662046 
L 337.868596 194.550347 
L 338.045327 195.676123 
L 338.045327 195.676123 
L 338.222058 189.910928 
L 338.222058 189.910928 
L 338.398789 190.572354 
L 338.398789 190.572354 
L 338.575519 184.468404 
L 338.575519 184.468404 
L 338.75225 184.072018 
L 338.75225 184.072018 
L 338.928981 178.037204 
L 338.928981 178.037204 
L 339.105712 176.602048 
L 339.105712 176.602048 
L 339.812635 154.916838 
L 339.812635 154.916838 
L 339.989366 154.120435 
L 339.989366 154.120435 
L 340.166097 163.746405 
L 340.166097 163.746405 
L 340.342828 163.914722 
L 340.342828 163.914722 
L 340.519559 170.711426 
L 340.519559 170.711426 
L 340.696289 171.877354 
L 340.696289 171.877354 
L 341.049751 182.01207 
L 341.049751 182.01207 
L 341.226482 181.605576 
L 341.226482 181.605576 
L 341.403213 184.479015 
L 341.403213 184.479015 
L 341.579944 184.791913 
L 341.579944 184.791913 
L 341.756674 186.632502 
L 341.756674 186.632502 
L 341.933405 186.912676 
L 341.933405 186.912676 
L 342.286867 188.148186 
L 342.286867 188.148186 
L 342.463598 188.345486 
L 342.463598 188.345486 
L 342.817059 188.044259 
L 342.817059 188.044259 
L 343.170521 188.474823 
L 343.170521 188.474823 
L 343.347252 188.314548 
L 343.347252 188.314548 
L 343.523983 187.327435 
L 343.523983 187.327435 
L 343.700714 188.080893 
L 343.700714 188.080893 
L 343.877444 186.855714 
L 343.877444 186.855714 
L 344.054175 186.651378 
L 344.054175 186.651378 
L 344.584368 182.983156 
L 344.584368 182.983156 
L 344.761099 177.520863 
L 344.761099 177.520863 
L 344.937829 178.707007 
L 344.937829 178.707007 
L 345.11456 173.544322 
L 345.11456 173.544322 
L 345.291291 172.490362 
L 345.291291 172.490362 
L 345.821484 160.617421 
L 345.821484 160.617421 
L 345.998214 149.31605 
L 345.998214 149.31605 
L 346.174945 150.679446 
L 346.174945 150.679446 
L 346.351676 147.401969 
L 346.351676 147.401969 
L 346.528407 148.047312 
L 346.528407 148.047312 
L 346.705138 156.204396 
L 346.705138 156.204396 
L 346.881869 159.186006 
L 346.881869 159.186006 
L 347.23533 171.606786 
L 347.23533 171.606786 
L 347.412061 171.653584 
L 347.412061 171.653584 
L 347.765523 180.598247 
L 347.765523 180.598247 
L 347.942254 179.959885 
L 347.942254 179.959885 
L 348.118985 182.259295 
L 348.118985 182.259295 
L 348.295715 182.729229 
L 348.295715 182.729229 
L 348.649177 185.584239 
L 348.649177 185.584239 
L 348.825908 185.613837 
L 348.825908 185.613837 
L 349.17937 186.358193 
L 349.17937 186.358193 
L 349.3561 186.380586 
L 349.3561 186.380586 
L 349.532831 186.65646 
L 349.532831 186.65646 
L 349.886293 186.333118 
L 349.886293 186.333118 
L 350.063024 186.567722 
L 350.063024 186.567722 
L 350.239755 186.380977 
L 350.239755 186.380977 
L 350.416485 186.615526 
L 350.416485 186.615526 
L 350.769947 186.164746 
L 350.769947 186.164746 
L 350.946678 186.293245 
L 350.946678 186.293245 
L 351.123409 185.19595 
L 351.123409 185.19595 
L 351.30014 186.016702 
L 351.47687 185.212425 
L 351.47687 185.212425 
L 351.653601 185.528953 
L 351.653601 185.528953 
L 351.830332 184.696977 
L 351.830332 184.696977 
L 352.007063 184.845468 
L 352.007063 184.845468 
L 352.360525 183.603815 
L 352.360525 183.603815 
L 352.537255 183.369267 
L 352.537255 183.369267 
L 352.713986 181.91987 
L 352.713986 181.91987 
L 352.890717 182.413036 
L 352.890717 182.413036 
L 353.067448 180.701393 
L 353.244179 180.955822 
L 353.244179 180.955822 
L 353.42091 180.271667 
L 353.42091 180.271667 
L 353.59764 180.241901 
L 353.59764 180.241901 
L 353.774371 179.367092 
L 353.774371 179.367092 
L 353.951102 177.022336 
L 353.951102 177.022336 
L 354.127833 178.168719 
L 354.127833 178.168719 
L 354.304564 176.38833 
L 354.304564 176.38833 
L 354.481295 176.760815 
L 354.481295 176.760815 
L 354.658025 175.237704 
L 354.658025 175.237704 
L 354.834756 175.174878 
L 354.834756 175.174878 
L 355.011487 173.966117 
L 355.011487 173.966117 
L 355.188218 171.318068 
L 355.188218 171.318068 
L 355.364949 172.321655 
L 355.364949 172.321655 
L 355.54168 169.440454 
L 355.54168 169.440454 
L 355.71841 170.302028 
L 355.71841 170.302028 
L 355.895141 168.193886 
L 355.895141 168.193886 
L 356.071872 167.897574 
L 356.071872 167.897574 
L 356.248603 166.514521 
L 356.248603 166.514521 
L 356.425334 162.452202 
L 356.425334 162.452202 
L 356.602065 164.15625 
L 356.602065 164.15625 
L 356.778795 161.150348 
L 356.778795 161.150348 
L 356.955526 161.303083 
L 356.955526 161.303083 
L 357.308988 158.398371 
L 357.308988 158.398371 
L 357.485719 156.893465 
L 357.485719 156.893465 
L 357.66245 153.155493 
L 357.66245 153.155493 
L 357.83918 153.603089 
L 357.83918 153.603089 
L 358.192642 150.640969 
L 358.192642 150.640969 
L 358.369373 149.013539 
L 358.546104 145.164156 
L 358.546104 145.164156 
L 358.722835 145.58975 
L 358.722835 145.58975 
L 359.076296 142.703131 
L 359.076296 142.703131 
L 359.959951 133.823583 
L 359.959951 133.823583 
L 360.136681 134.888879 
L 360.136681 134.888879 
L 360.313412 132.564841 
L 360.313412 132.564841 
L 360.490143 132.293491 
L 360.490143 132.293491 
L 360.843605 129.280049 
L 361.020336 129.366497 
L 361.197066 128.816258 
L 361.197066 128.816258 
L 361.373797 126.719341 
L 361.373797 126.719341 
L 361.550528 127.01543 
L 361.550528 127.01543 
L 361.727259 126.151344 
L 361.727259 126.151344 
L 361.90399 124.665425 
L 361.90399 124.665425 
L 362.080721 125.062314 
L 362.080721 125.062314 
L 362.434182 122.723422 
L 362.434182 122.723422 
L 362.610913 123.198493 
L 362.610913 123.198493 
L 362.964375 120.43881 
L 362.964375 120.43881 
L 363.141106 121.020155 
L 363.141106 121.020155 
L 363.494567 117.417271 
L 363.494567 117.417271 
L 363.671298 118.120245 
L 363.671298 118.120245 
L 364.02476 113.354896 
L 364.02476 113.354896 
L 364.201491 114.172185 
L 364.201491 114.172185 
L 364.378221 111.808777 
L 364.378221 111.808777 
L 364.554952 107.658334 
L 364.554952 107.658334 
L 364.731683 108.773109 
L 364.731683 108.773109 
L 365.085145 101.245898 
L 365.085145 101.245898 
L 365.261876 102.056095 
L 365.261876 102.056095 
L 365.438606 98.808998 
L 365.438606 98.808998 
L 365.615337 92.805737 
L 365.615337 92.805737 
L 365.792068 93.196092 
L 365.792068 93.196092 
L 365.968799 89.580532 
L 365.968799 89.580532 
L 366.14553 83.407055 
L 366.14553 83.407055 
L 366.322261 82.330311 
L 366.322261 82.330311 
L 366.498991 78.709836 
L 366.498991 78.709836 
L 366.852453 63.265396 
L 366.852453 63.265396 
L 367.029184 65.047627 
L 367.029184 65.047627 
L 367.382646 53.568 
L 367.382646 53.568 
L 396.013041 53.611615 
L 396.013041 53.611615 
L 396.189772 53.711074 
L 396.189772 53.711074 
L 396.366503 53.568 
L 396.366503 53.568 
L 396.896695 53.568 
L 396.896695 53.568 
L 397.250157 53.999848 
L 397.250157 53.999848 
L 397.426888 54.086407 
L 397.426888 54.086407 
L 397.603619 53.568 
L 397.603619 53.568 
L 397.95708 53.568 
L 397.95708 53.568 
L 398.310542 53.884361 
L 398.310542 53.884361 
L 398.487273 53.568 
L 398.487273 53.568 
" clip-path="url(#p768fe48069)" style="fill: none; stroke: #ff7f0e; stroke-width: 1.5; stroke-linecap: square"/>
   </g>
   <g id="patch_3">
    <path d="M 57.6 307.584 
L 57.6 41.472 
" style="fill: none; stroke: #000000; stroke-width: 0.8; stroke-linejoin: miter; stroke-linecap: square"/>
   </g>
   <g id="patch_4">
    <path d="M 414.72 307.584 
L 414.72 41.472 
" style="fill: none; stroke: #000000; stroke-width: 0.8; stroke-linejoin: miter; stroke-linecap: square"/>
   </g>
   <g id="patch_5">
    <path d="M 57.6 307.584 
L 414.72 307.584 
" style="fill: none; stroke: #000000; stroke-width: 0.8; stroke-linejoin: miter; stroke-linecap: square"/>
   </g>
   <g id="patch_6">
    <path d="M 57.6 41.472 
L 414.72 41.472 
" style="fill: none; stroke: #000000; stroke-width: 0.8; stroke-linejoin: miter; stroke-linecap: square"/>
   </g>
   <g id="text_16">
    <!-- Actual speed vs Expected speed -->
    <g transform="translate(138.808125 35.472) scale(0.12 -0.12)">
     <defs>
      <path id="DejaVuSans-41" d="M 2188 4044 
L 1331 1722 
L 3047 1722 
L 2188 4044 
z
M 1831 4666 
L 2547 4666 
L 4325 0 
L 3669 0 
L 3244 1197 
L 1141 1197 
L 716 0 
L 50 0 
L 1831 4666 
z
" transform="scale(0.015625)"/>
      <path id="DejaVuSans-75" d="M 544 1381 
L 544 3500 
L 1119 3500 
L 1119 1403 
Q 1119 906 1312 657 
Q 1506 409 1894 409 
Q 2359 409 2629 706 
Q 2900 1003 2900 1516 
L 2900 3500 
L 3475 3500 
L 3475 0 
L 2900 0 
L 2900 538 
Q 2691 219 2414 64 
Q 2138 -91 1772 -91 
Q 1169 -91 856 284 
Q 544 659 544 1381 
z
M 1991 3584 
L 1991 3584 
z
" transform="scale(0.015625)"/>
      <path id="DejaVuSans-61" d="M 2194 1759 
Q 1497 1759 1228 1600 
Q 959 1441 959 1056 
Q 959 750 1161 570 
Q 1363 391 1709 391 
Q 2188 391 2477 730 
Q 2766 1069 2766 1631 
L 2766 1759 
L 2194 1759 
z
M 3341 1997 
L 3341 0 
L 2766 0 
L 2766 531 
Q 2569 213 2275 61 
Q 1981 -91 1556 -91 
Q 1019 -91 701 211 
Q 384 513 384 1019 
Q 384 1609 779 1909 
Q 1175 2209 1959 2209 
L 2766 2209 
L 2766 2266 
Q 2766 2663 2505 2880 
Q 2244 3097 1772 3097 
Q 1472 3097 1187 3025 
Q 903 2953 641 2809 
L 641 3341 
Q 956 3463 1253 3523 
Q 1550 3584 1831 3584 
Q 2591 3584 2966 3190 
Q 3341 2797 3341 1997 
z
" transform="scale(0.015625)"/>
      <path id="DejaVuSans-20" transform="scale(0.015625)"/>
      <path id="DejaVuSans-70" d="M 1159 525 
L 1159 -1331 
L 581 -1331 
L 581 3500 
L 1159 3500 
L 1159 2969 
Q 1341 3281 1617 3432 
Q 1894 3584 2278 3584 
Q 2916 3584 3314 3078 
Q 3713 2572 3713 1747 
Q 3713 922 3314 415 
Q 2916 -91 2278 -91 
Q 1894 -91 1617 61 
Q 1341 213 1159 525 
z
M 3116 1747 
Q 3116 2381 2855 2742 
Q 2594 3103 2138 3103 
Q 1681 3103 1420 2742 
Q 1159 2381 1159 1747 
Q 1159 1113 1420 752 
Q 1681 391 2138 391 
Q 2594 391 2855 752 
Q 3116 1113 3116 1747 
z
" transform="scale(0.015625)"/>
      <path id="DejaVuSans-64" d="M 2906 2969 
L 2906 4863 
L 3481 4863 
L 3481 0 
L 2906 0 
L 2906 525 
Q 2725 213 2448 61 
Q 2172 -91 1784 -91 
Q 1150 -91 751 415 
Q 353 922 353 1747 
Q 353 2572 751 3078 
Q 1150 3584 1784 3584 
Q 2172 3584 2448 3432 
Q 2725 3281 2906 2969 
z
M 947 1747 
Q 947 1113 1208 752 
Q 1469 391 1925 391 
Q 2381 391 2643 752 
Q 2906 1113 2906 1747 
Q 2906 2381 2643 2742 
Q 2381 3103 1925 3103 
Q 1469 3103 1208 2742 
Q 947 2381 947 1747 
z
" transform="scale(0.015625)"/>
      <path id="DejaVuSans-76" d="M 191 3500 
L 800 3500 
L 1894 563 
L 2988 3500 
L 3597 3500 
L 2284 0 
L 1503 0 
L 191 3500 
z
" transform="scale(0.015625)"/>
      <path id="DejaVuSans-45" d="M 628 4666 
L 3578 4666 
L 3578 4134 
L 1259 4134 
L 1259 2753 
L 3481 2753 
L 3481 2222 
L 1259 2222 
L 1259 531 
L 3634 531 
L 3634 0 
L 628 0 
L 628 4666 
z
" transform="scale(0.015625)"/>
      <path id="DejaVuSans-78" d="M 3513 3500 
L 2247 1797 
L 3578 0 
L 2900 0 
L 1881 1375 
L 863 0 
L 184 0 
L 1544 1831 
L 300 3500 
L 978 3500 
L 1906 2253 
L 2834 3500 
L 3513 3500 
z
" transform="scale(0.015625)"/>
     </defs>
     <use xlink:href="#DejaVuSans-41"/>
     <use xlink:href="#DejaVuSans-63" x="66.658203"/>
     <use xlink:href="#DejaVuSans-74" x="121.638672"/>
     <use xlink:href="#DejaVuSans-75" x="160.847656"/>
     <use xlink:href="#DejaVuSans-61" x="224.226562"/>
     <use xlink:href="#DejaVuSans-6c" x="285.505859"/>
     <use xlink:href="#DejaVuSans-20" x="313.289062"/>
     <use xlink:href="#DejaVuSans-73" x="345.076172"/>
     <use xlink:href="#DejaVuSans-70" x="397.175781"/>
     <use xlink:href="#DejaVuSans-65" x="460.652344"/>
     <use xlink:href="#DejaVuSans-65" x="522.175781"/>
     <use xlink:href="#DejaVuSans-64" x="583.699219"/>
     <use xlink:href="#DejaVuSans-20" x="647.175781"/>
     <use xlink:href="#DejaVuSans-76" x="678.962891"/>
     <use xlink:href="#DejaVuSans-73" x="738.142578"/>
     <use xlink:href="#DejaVuSans-20" x="790.242188"/>
     <use xlink:href="#DejaVuSans-45" x="822.029297"/>
     <use xlink:href="#DejaVuSans-78" x="885.212891"/>
     <use xlink:href="#DejaVuSans-70" x="944.392578"/>
     <use xlink:href="#DejaVuSans-65" x="1007.869141"/>
     <use xlink:href="#DejaVuSans-63" x="1069.392578"/>
     <use xlink:href="#DejaVuSans-74" x="1124.373047"/>
     <use xlink:href="#DejaVuSans-65" x="1163.582031"/>
     <use xlink:href="#DejaVuSans-64" x="1225.105469"/>
     <use xlink:href="#DejaVuSans-20" x="1288.582031"/>
     <use xlink:href="#DejaVuSans-73" x="1320.369141"/>
     <use xlink:href="#DejaVuSans-70" x="1372.46875"/>
     <use xlink:href="#DejaVuSans-65" x="1435.945312"/>
     <use xlink:href="#DejaVuSans-65" x="1497.46875"/>
     <use xlink:href="#DejaVuSans-64" x="1558.992188"/>
    </g>
   </g>
   <g id="legend_1">
    <g id="patch_7">
     <path d="M 64.6 302.584 
L 176.65 302.584 
Q 178.65 302.584 178.65 300.584 
L 178.65 272.22775 
Q 178.65 270.22775 176.65 270.22775 
L 64.6 270.22775 
Q 62.6 270.22775 62.6 272.22775 
L 62.6 300.584 
Q 62.6 302.584 64.6 302.584 
z
" style="fill: #ffffff; opacity: 0.8; stroke: #cccccc; stroke-linejoin: miter"/>
    </g>
    <g id="line2d_29">
     <path d="M 66.6 278.326187 
L 76.6 278.326187 
L 86.6 278.326187 
" style="fill: none; stroke: #1f77b4; stroke-width: 1.5; stroke-linecap: square"/>
    </g>
    <g id="text_17">
     <!-- Actual speed -->
     <g transform="translate(94.6 281.826187) scale(0.1 -0.1)">
      <use xlink:href="#DejaVuSans-41"/>
      <use xlink:href="#DejaVuSans-63" x="66.658203"/>
      <use xlink:href="#DejaVuSans-74" x="121.638672"/>
      <use xlink:href="#DejaVuSans-75" x="160.847656"/>
      <use xlink:href="#DejaVuSans-61" x="224.226562"/>
      <use xlink:href="#DejaVuSans-6c" x="285.505859"/>
      <use xlink:href="#DejaVuSans-20" x="313.289062"/>
      <use xlink:href="#DejaVuSans-73" x="345.076172"/>
      <use xlink:href="#DejaVuSans-70" x="397.175781"/>
      <use xlink:href="#DejaVuSans-65" x="460.652344"/>
      <use xlink:href="#DejaVuSans-65" x="522.175781"/>
      <use xlink:href="#DejaVuSans-64" x="583.699219"/>
     </g>
    </g>
    <g id="line2d_30">
     <path d="M 66.6 293.004312 
L 76.6 293.004312 
L 86.6 293.004312 
" style="fill: none; stroke: #ff7f0e; stroke-width: 1.5; stroke-linecap: square"/>
    </g>
    <g id="text_18">
     <!-- Expected speed -->
     <g transform="translate(94.6 296.504312) scale(0.1 -0.1)">
      <use xlink:href="#DejaVuSans-45"/>
      <use xlink:href="#DejaVuSans-78" x="63.183594"/>
      <use xlink:href="#DejaVuSans-70" x="122.363281"/>
      <use xlink:href="#DejaVuSans-65" x="185.839844"/>
      <use xlink:href="#DejaVuSans-63" x="247.363281"/>
      <use xlink:href="#DejaVuSans-74" x="302.34375"/>
      <use xlink:href="#DejaVuSans-65" x="341.552734"/>
      <use xlink:href="#DejaVuSans-64" x="403.076172"/>
      <use xlink:href="#DejaVuSans-20" x="466.552734"/>
      <use xlink:href="#DejaVuSans-73" x="498.339844"/>
      <use xlink:href="#DejaVuSans-70" x="550.439453"/>
      <use xlink:href="#DejaVuSans-65" x="613.916016"/>
      <use xlink:href="#DejaVuSans-65" x="675.439453"/>
      <use xlink:href="#DejaVuSans-64" x="736.962891"/>
     </g>
    </g>
   </g>
  </g>
 </g>
 <defs>
  <clipPath id="p768fe48069">
   <rect x="57.6" y="41.472" width="357.12" height="266.112"/>
  </clipPath>
 </defs>
</svg>
