<?xml version="1.0" encoding="utf-8" standalone="no"?>
<!DOCTYPE svg PUBLIC "-//W3C//DTD SVG 1.1//EN"
  "http://www.w3.org/Graphics/SVG/1.1/DTD/svg11.dtd">
<svg xmlns:xlink="http://www.w3.org/1999/xlink" width="460.8pt" height="345.6pt" viewBox="0 0 460.8 345.6" xmlns="http://www.w3.org/2000/svg" version="1.1">
 <metadata>
  <rdf:RDF xmlns:dc="http://purl.org/dc/elements/1.1/" xmlns:cc="http://creativecommons.org/ns#" xmlns:rdf="http://www.w3.org/1999/02/22-rdf-syntax-ns#">
   <cc:Work>
    <dc:type rdf:resource="http://purl.org/dc/dcmitype/StillImage"/>
    <dc:date>2024-01-30T20:58:59.671152</dc:date>
    <dc:format>image/svg+xml</dc:format>
    <dc:creator>
     <cc:Agent>
      <dc:title>Matplotlib v3.7.1, https://matplotlib.org/</dc:title>
     </cc:Agent>
    </dc:creator>
   </cc:Work>
  </rdf:RDF>
 </metadata>
 <defs>
  <style type="text/css">*{stroke-linejoin: round; stroke-linecap: butt}</style>
 </defs>
 <g id="figure_1">
  <g id="patch_1">
   <path d="M 0 345.6 
L 460.8 345.6 
L 460.8 0 
L 0 0 
z
" style="fill: #ffffff"/>
  </g>
  <g id="axes_1">
   <g id="patch_2">
    <path d="M 57.6 307.584 
L 414.72 307.584 
L 414.72 41.472 
L 57.6 41.472 
z
" style="fill: #ffffff"/>
   </g>
   <g id="matplotlib.axis_1">
    <g id="xtick_1">
     <g id="line2d_1">
      <path d="M 73.832727 307.584 
L 73.832727 41.472 
" clip-path="url(#p25bbaba4b7)" style="fill: none; stroke: #b0b0b0; stroke-width: 0.8; stroke-linecap: square"/>
     </g>
     <g id="line2d_2">
      <defs>
       <path id="mbaae259069" d="M 0 0 
L 0 3.5 
" style="stroke: #000000; stroke-width: 0.8"/>
      </defs>
      <g>
       <use xlink:href="#mbaae259069" x="73.832727" y="307.584" style="stroke: #000000; stroke-width: 0.8"/>
      </g>
     </g>
     <g id="text_1">
      <!-- 0 -->
      <g transform="translate(70.651477 322.182437) scale(0.1 -0.1)">
       <defs>
        <path id="DejaVuSans-30" d="M 2034 4250 
Q 1547 4250 1301 3770 
Q 1056 3291 1056 2328 
Q 1056 1369 1301 889 
Q 1547 409 2034 409 
Q 2525 409 2770 889 
Q 3016 1369 3016 2328 
Q 3016 3291 2770 3770 
Q 2525 4250 2034 4250 
z
M 2034 4750 
Q 2819 4750 3233 4129 
Q 3647 3509 3647 2328 
Q 3647 1150 3233 529 
Q 2819 -91 2034 -91 
Q 1250 -91 836 529 
Q 422 1150 422 2328 
Q 422 3509 836 4129 
Q 1250 4750 2034 4750 
z
" transform="scale(0.015625)"/>
       </defs>
       <use xlink:href="#DejaVuSans-30"/>
      </g>
     </g>
    </g>
    <g id="xtick_2">
     <g id="line2d_3">
      <path d="M 118.015436 307.584 
L 118.015436 41.472 
" clip-path="url(#p25bbaba4b7)" style="fill: none; stroke: #b0b0b0; stroke-width: 0.8; stroke-linecap: square"/>
     </g>
     <g id="line2d_4">
      <g>
       <use xlink:href="#mbaae259069" x="118.015436" y="307.584" style="stroke: #000000; stroke-width: 0.8"/>
      </g>
     </g>
     <g id="text_2">
      <!-- 5 -->
      <g transform="translate(114.834186 322.182437) scale(0.1 -0.1)">
       <defs>
        <path id="DejaVuSans-35" d="M 691 4666 
L 3169 4666 
L 3169 4134 
L 1269 4134 
L 1269 2991 
Q 1406 3038 1543 3061 
Q 1681 3084 1819 3084 
Q 2600 3084 3056 2656 
Q 3513 2228 3513 1497 
Q 3513 744 3044 326 
Q 2575 -91 1722 -91 
Q 1428 -91 1123 -41 
Q 819 9 494 109 
L 494 744 
Q 775 591 1075 516 
Q 1375 441 1709 441 
Q 2250 441 2565 725 
Q 2881 1009 2881 1497 
Q 2881 1984 2565 2268 
Q 2250 2553 1709 2553 
Q 1456 2553 1204 2497 
Q 953 2441 691 2322 
L 691 4666 
z
" transform="scale(0.015625)"/>
       </defs>
       <use xlink:href="#DejaVuSans-35"/>
      </g>
     </g>
    </g>
    <g id="xtick_3">
     <g id="line2d_5">
      <path d="M 162.198145 307.584 
L 162.198145 41.472 
" clip-path="url(#p25bbaba4b7)" style="fill: none; stroke: #b0b0b0; stroke-width: 0.8; stroke-linecap: square"/>
     </g>
     <g id="line2d_6">
      <g>
       <use xlink:href="#mbaae259069" x="162.198145" y="307.584" style="stroke: #000000; stroke-width: 0.8"/>
      </g>
     </g>
     <g id="text_3">
      <!-- 10 -->
      <g transform="translate(155.835645 322.182437) scale(0.1 -0.1)">
       <defs>
        <path id="DejaVuSans-31" d="M 794 531 
L 1825 531 
L 1825 4091 
L 703 3866 
L 703 4441 
L 1819 4666 
L 2450 4666 
L 2450 531 
L 3481 531 
L 3481 0 
L 794 0 
L 794 531 
z
" transform="scale(0.015625)"/>
       </defs>
       <use xlink:href="#DejaVuSans-31"/>
       <use xlink:href="#DejaVuSans-30" x="63.623047"/>
      </g>
     </g>
    </g>
    <g id="xtick_4">
     <g id="line2d_7">
      <path d="M 206.380854 307.584 
L 206.380854 41.472 
" clip-path="url(#p25bbaba4b7)" style="fill: none; stroke: #b0b0b0; stroke-width: 0.8; stroke-linecap: square"/>
     </g>
     <g id="line2d_8">
      <g>
       <use xlink:href="#mbaae259069" x="206.380854" y="307.584" style="stroke: #000000; stroke-width: 0.8"/>
      </g>
     </g>
     <g id="text_4">
      <!-- 15 -->
      <g transform="translate(200.018354 322.182437) scale(0.1 -0.1)">
       <use xlink:href="#DejaVuSans-31"/>
       <use xlink:href="#DejaVuSans-35" x="63.623047"/>
      </g>
     </g>
    </g>
    <g id="xtick_5">
     <g id="line2d_9">
      <path d="M 250.563563 307.584 
L 250.563563 41.472 
" clip-path="url(#p25bbaba4b7)" style="fill: none; stroke: #b0b0b0; stroke-width: 0.8; stroke-linecap: square"/>
     </g>
     <g id="line2d_10">
      <g>
       <use xlink:href="#mbaae259069" x="250.563563" y="307.584" style="stroke: #000000; stroke-width: 0.8"/>
      </g>
     </g>
     <g id="text_5">
      <!-- 20 -->
      <g transform="translate(244.201063 322.182437) scale(0.1 -0.1)">
       <defs>
        <path id="DejaVuSans-32" d="M 1228 531 
L 3431 531 
L 3431 0 
L 469 0 
L 469 531 
Q 828 903 1448 1529 
Q 2069 2156 2228 2338 
Q 2531 2678 2651 2914 
Q 2772 3150 2772 3378 
Q 2772 3750 2511 3984 
Q 2250 4219 1831 4219 
Q 1534 4219 1204 4116 
Q 875 4013 500 3803 
L 500 4441 
Q 881 4594 1212 4672 
Q 1544 4750 1819 4750 
Q 2544 4750 2975 4387 
Q 3406 4025 3406 3419 
Q 3406 3131 3298 2873 
Q 3191 2616 2906 2266 
Q 2828 2175 2409 1742 
Q 1991 1309 1228 531 
z
" transform="scale(0.015625)"/>
       </defs>
       <use xlink:href="#DejaVuSans-32"/>
       <use xlink:href="#DejaVuSans-30" x="63.623047"/>
      </g>
     </g>
    </g>
    <g id="xtick_6">
     <g id="line2d_11">
      <path d="M 294.746272 307.584 
L 294.746272 41.472 
" clip-path="url(#p25bbaba4b7)" style="fill: none; stroke: #b0b0b0; stroke-width: 0.8; stroke-linecap: square"/>
     </g>
     <g id="line2d_12">
      <g>
       <use xlink:href="#mbaae259069" x="294.746272" y="307.584" style="stroke: #000000; stroke-width: 0.8"/>
      </g>
     </g>
     <g id="text_6">
      <!-- 25 -->
      <g transform="translate(288.383772 322.182437) scale(0.1 -0.1)">
       <use xlink:href="#DejaVuSans-32"/>
       <use xlink:href="#DejaVuSans-35" x="63.623047"/>
      </g>
     </g>
    </g>
    <g id="xtick_7">
     <g id="line2d_13">
      <path d="M 338.928981 307.584 
L 338.928981 41.472 
" clip-path="url(#p25bbaba4b7)" style="fill: none; stroke: #b0b0b0; stroke-width: 0.8; stroke-linecap: square"/>
     </g>
     <g id="line2d_14">
      <g>
       <use xlink:href="#mbaae259069" x="338.928981" y="307.584" style="stroke: #000000; stroke-width: 0.8"/>
      </g>
     </g>
     <g id="text_7">
      <!-- 30 -->
      <g transform="translate(332.566481 322.182437) scale(0.1 -0.1)">
       <defs>
        <path id="DejaVuSans-33" d="M 2597 2516 
Q 3050 2419 3304 2112 
Q 3559 1806 3559 1356 
Q 3559 666 3084 287 
Q 2609 -91 1734 -91 
Q 1441 -91 1130 -33 
Q 819 25 488 141 
L 488 750 
Q 750 597 1062 519 
Q 1375 441 1716 441 
Q 2309 441 2620 675 
Q 2931 909 2931 1356 
Q 2931 1769 2642 2001 
Q 2353 2234 1838 2234 
L 1294 2234 
L 1294 2753 
L 1863 2753 
Q 2328 2753 2575 2939 
Q 2822 3125 2822 3475 
Q 2822 3834 2567 4026 
Q 2313 4219 1838 4219 
Q 1578 4219 1281 4162 
Q 984 4106 628 3988 
L 628 4550 
Q 988 4650 1302 4700 
Q 1616 4750 1894 4750 
Q 2613 4750 3031 4423 
Q 3450 4097 3450 3541 
Q 3450 3153 3228 2886 
Q 3006 2619 2597 2516 
z
" transform="scale(0.015625)"/>
       </defs>
       <use xlink:href="#DejaVuSans-33"/>
       <use xlink:href="#DejaVuSans-30" x="63.623047"/>
      </g>
     </g>
    </g>
    <g id="xtick_8">
     <g id="line2d_15">
      <path d="M 383.11169 307.584 
L 383.11169 41.472 
" clip-path="url(#p25bbaba4b7)" style="fill: none; stroke: #b0b0b0; stroke-width: 0.8; stroke-linecap: square"/>
     </g>
     <g id="line2d_16">
      <g>
       <use xlink:href="#mbaae259069" x="383.11169" y="307.584" style="stroke: #000000; stroke-width: 0.8"/>
      </g>
     </g>
     <g id="text_8">
      <!-- 35 -->
      <g transform="translate(376.74919 322.182437) scale(0.1 -0.1)">
       <use xlink:href="#DejaVuSans-33"/>
       <use xlink:href="#DejaVuSans-35" x="63.623047"/>
      </g>
     </g>
    </g>
    <g id="text_9">
     <!-- Time(s) -->
     <g transform="translate(217.420156 335.860562) scale(0.1 -0.1)">
      <defs>
       <path id="DejaVuSans-54" d="M -19 4666 
L 3928 4666 
L 3928 4134 
L 2272 4134 
L 2272 0 
L 1638 0 
L 1638 4134 
L -19 4134 
L -19 4666 
z
" transform="scale(0.015625)"/>
       <path id="DejaVuSans-69" d="M 603 3500 
L 1178 3500 
L 1178 0 
L 603 0 
L 603 3500 
z
M 603 4863 
L 1178 4863 
L 1178 4134 
L 603 4134 
L 603 4863 
z
" transform="scale(0.015625)"/>
       <path id="DejaVuSans-6d" d="M 3328 2828 
Q 3544 3216 3844 3400 
Q 4144 3584 4550 3584 
Q 5097 3584 5394 3201 
Q 5691 2819 5691 2113 
L 5691 0 
L 5113 0 
L 5113 2094 
Q 5113 2597 4934 2840 
Q 4756 3084 4391 3084 
Q 3944 3084 3684 2787 
Q 3425 2491 3425 1978 
L 3425 0 
L 2847 0 
L 2847 2094 
Q 2847 2600 2669 2842 
Q 2491 3084 2119 3084 
Q 1678 3084 1418 2786 
Q 1159 2488 1159 1978 
L 1159 0 
L 581 0 
L 581 3500 
L 1159 3500 
L 1159 2956 
Q 1356 3278 1631 3431 
Q 1906 3584 2284 3584 
Q 2666 3584 2933 3390 
Q 3200 3197 3328 2828 
z
" transform="scale(0.015625)"/>
       <path id="DejaVuSans-65" d="M 3597 1894 
L 3597 1613 
L 953 1613 
Q 991 1019 1311 708 
Q 1631 397 2203 397 
Q 2534 397 2845 478 
Q 3156 559 3463 722 
L 3463 178 
Q 3153 47 2828 -22 
Q 2503 -91 2169 -91 
Q 1331 -91 842 396 
Q 353 884 353 1716 
Q 353 2575 817 3079 
Q 1281 3584 2069 3584 
Q 2775 3584 3186 3129 
Q 3597 2675 3597 1894 
z
M 3022 2063 
Q 3016 2534 2758 2815 
Q 2500 3097 2075 3097 
Q 1594 3097 1305 2825 
Q 1016 2553 972 2059 
L 3022 2063 
z
" transform="scale(0.015625)"/>
       <path id="DejaVuSans-28" d="M 1984 4856 
Q 1566 4138 1362 3434 
Q 1159 2731 1159 2009 
Q 1159 1288 1364 580 
Q 1569 -128 1984 -844 
L 1484 -844 
Q 1016 -109 783 600 
Q 550 1309 550 2009 
Q 550 2706 781 3412 
Q 1013 4119 1484 4856 
L 1984 4856 
z
" transform="scale(0.015625)"/>
       <path id="DejaVuSans-73" d="M 2834 3397 
L 2834 2853 
Q 2591 2978 2328 3040 
Q 2066 3103 1784 3103 
Q 1356 3103 1142 2972 
Q 928 2841 928 2578 
Q 928 2378 1081 2264 
Q 1234 2150 1697 2047 
L 1894 2003 
Q 2506 1872 2764 1633 
Q 3022 1394 3022 966 
Q 3022 478 2636 193 
Q 2250 -91 1575 -91 
Q 1294 -91 989 -36 
Q 684 19 347 128 
L 347 722 
Q 666 556 975 473 
Q 1284 391 1588 391 
Q 1994 391 2212 530 
Q 2431 669 2431 922 
Q 2431 1156 2273 1281 
Q 2116 1406 1581 1522 
L 1381 1569 
Q 847 1681 609 1914 
Q 372 2147 372 2553 
Q 372 3047 722 3315 
Q 1072 3584 1716 3584 
Q 2034 3584 2315 3537 
Q 2597 3491 2834 3397 
z
" transform="scale(0.015625)"/>
       <path id="DejaVuSans-29" d="M 513 4856 
L 1013 4856 
Q 1481 4119 1714 3412 
Q 1947 2706 1947 2009 
Q 1947 1309 1714 600 
Q 1481 -109 1013 -844 
L 513 -844 
Q 928 -128 1133 580 
Q 1338 1288 1338 2009 
Q 1338 2731 1133 3434 
Q 928 4138 513 4856 
z
" transform="scale(0.015625)"/>
      </defs>
      <use xlink:href="#DejaVuSans-54"/>
      <use xlink:href="#DejaVuSans-69" x="57.958984"/>
      <use xlink:href="#DejaVuSans-6d" x="85.742188"/>
      <use xlink:href="#DejaVuSans-65" x="183.154297"/>
      <use xlink:href="#DejaVuSans-28" x="244.677734"/>
      <use xlink:href="#DejaVuSans-73" x="283.691406"/>
      <use xlink:href="#DejaVuSans-29" x="335.791016"/>
     </g>
    </g>
   </g>
   <g id="matplotlib.axis_2">
    <g id="ytick_1">
     <g id="line2d_17">
      <path d="M 57.6 276.916567 
L 414.72 276.916567 
" clip-path="url(#p25bbaba4b7)" style="fill: none; stroke: #b0b0b0; stroke-width: 0.8; stroke-linecap: square"/>
     </g>
     <g id="line2d_18">
      <defs>
       <path id="mc68433cdc3" d="M 0 0 
L -3.5 0 
" style="stroke: #000000; stroke-width: 0.8"/>
      </defs>
      <g>
       <use xlink:href="#mc68433cdc3" x="57.6" y="276.916567" style="stroke: #000000; stroke-width: 0.8"/>
      </g>
     </g>
     <g id="text_10">
      <!-- 4 -->
      <g transform="translate(44.2375 280.715785) scale(0.1 -0.1)">
       <defs>
        <path id="DejaVuSans-34" d="M 2419 4116 
L 825 1625 
L 2419 1625 
L 2419 4116 
z
M 2253 4666 
L 3047 4666 
L 3047 1625 
L 3713 1625 
L 3713 1100 
L 3047 1100 
L 3047 0 
L 2419 0 
L 2419 1100 
L 313 1100 
L 313 1709 
L 2253 4666 
z
" transform="scale(0.015625)"/>
       </defs>
       <use xlink:href="#DejaVuSans-34"/>
      </g>
     </g>
    </g>
    <g id="ytick_2">
     <g id="line2d_19">
      <path d="M 57.6 221.079425 
L 414.72 221.079425 
" clip-path="url(#p25bbaba4b7)" style="fill: none; stroke: #b0b0b0; stroke-width: 0.8; stroke-linecap: square"/>
     </g>
     <g id="line2d_20">
      <g>
       <use xlink:href="#mc68433cdc3" x="57.6" y="221.079425" style="stroke: #000000; stroke-width: 0.8"/>
      </g>
     </g>
     <g id="text_11">
      <!-- 5 -->
      <g transform="translate(44.2375 224.878644) scale(0.1 -0.1)">
       <use xlink:href="#DejaVuSans-35"/>
      </g>
     </g>
    </g>
    <g id="ytick_3">
     <g id="line2d_21">
      <path d="M 57.6 165.242283 
L 414.72 165.242283 
" clip-path="url(#p25bbaba4b7)" style="fill: none; stroke: #b0b0b0; stroke-width: 0.8; stroke-linecap: square"/>
     </g>
     <g id="line2d_22">
      <g>
       <use xlink:href="#mc68433cdc3" x="57.6" y="165.242283" style="stroke: #000000; stroke-width: 0.8"/>
      </g>
     </g>
     <g id="text_12">
      <!-- 6 -->
      <g transform="translate(44.2375 169.041502) scale(0.1 -0.1)">
       <defs>
        <path id="DejaVuSans-36" d="M 2113 2584 
Q 1688 2584 1439 2293 
Q 1191 2003 1191 1497 
Q 1191 994 1439 701 
Q 1688 409 2113 409 
Q 2538 409 2786 701 
Q 3034 994 3034 1497 
Q 3034 2003 2786 2293 
Q 2538 2584 2113 2584 
z
M 3366 4563 
L 3366 3988 
Q 3128 4100 2886 4159 
Q 2644 4219 2406 4219 
Q 1781 4219 1451 3797 
Q 1122 3375 1075 2522 
Q 1259 2794 1537 2939 
Q 1816 3084 2150 3084 
Q 2853 3084 3261 2657 
Q 3669 2231 3669 1497 
Q 3669 778 3244 343 
Q 2819 -91 2113 -91 
Q 1303 -91 875 529 
Q 447 1150 447 2328 
Q 447 3434 972 4092 
Q 1497 4750 2381 4750 
Q 2619 4750 2861 4703 
Q 3103 4656 3366 4563 
z
" transform="scale(0.015625)"/>
       </defs>
       <use xlink:href="#DejaVuSans-36"/>
      </g>
     </g>
    </g>
    <g id="ytick_4">
     <g id="line2d_23">
      <path d="M 57.6 109.405142 
L 414.72 109.405142 
" clip-path="url(#p25bbaba4b7)" style="fill: none; stroke: #b0b0b0; stroke-width: 0.8; stroke-linecap: square"/>
     </g>
     <g id="line2d_24">
      <g>
       <use xlink:href="#mc68433cdc3" x="57.6" y="109.405142" style="stroke: #000000; stroke-width: 0.8"/>
      </g>
     </g>
     <g id="text_13">
      <!-- 7 -->
      <g transform="translate(44.2375 113.20436) scale(0.1 -0.1)">
       <defs>
        <path id="DejaVuSans-37" d="M 525 4666 
L 3525 4666 
L 3525 4397 
L 1831 0 
L 1172 0 
L 2766 4134 
L 525 4134 
L 525 4666 
z
" transform="scale(0.015625)"/>
       </defs>
       <use xlink:href="#DejaVuSans-37"/>
      </g>
     </g>
    </g>
    <g id="ytick_5">
     <g id="line2d_25">
      <path d="M 57.6 53.568 
L 414.72 53.568 
" clip-path="url(#p25bbaba4b7)" style="fill: none; stroke: #b0b0b0; stroke-width: 0.8; stroke-linecap: square"/>
     </g>
     <g id="line2d_26">
      <g>
       <use xlink:href="#mc68433cdc3" x="57.6" y="53.568" style="stroke: #000000; stroke-width: 0.8"/>
      </g>
     </g>
     <g id="text_14">
      <!-- 8 -->
      <g transform="translate(44.2375 57.367219) scale(0.1 -0.1)">
       <defs>
        <path id="DejaVuSans-38" d="M 2034 2216 
Q 1584 2216 1326 1975 
Q 1069 1734 1069 1313 
Q 1069 891 1326 650 
Q 1584 409 2034 409 
Q 2484 409 2743 651 
Q 3003 894 3003 1313 
Q 3003 1734 2745 1975 
Q 2488 2216 2034 2216 
z
M 1403 2484 
Q 997 2584 770 2862 
Q 544 3141 544 3541 
Q 544 4100 942 4425 
Q 1341 4750 2034 4750 
Q 2731 4750 3128 4425 
Q 3525 4100 3525 3541 
Q 3525 3141 3298 2862 
Q 3072 2584 2669 2484 
Q 3125 2378 3379 2068 
Q 3634 1759 3634 1313 
Q 3634 634 3220 271 
Q 2806 -91 2034 -91 
Q 1263 -91 848 271 
Q 434 634 434 1313 
Q 434 1759 690 2068 
Q 947 2378 1403 2484 
z
M 1172 3481 
Q 1172 3119 1398 2916 
Q 1625 2713 2034 2713 
Q 2441 2713 2670 2916 
Q 2900 3119 2900 3481 
Q 2900 3844 2670 4047 
Q 2441 4250 2034 4250 
Q 1625 4250 1398 4047 
Q 1172 3844 1172 3481 
z
" transform="scale(0.015625)"/>
       </defs>
       <use xlink:href="#DejaVuSans-38"/>
      </g>
     </g>
    </g>
    <g id="text_15">
     <!-- Velocity(m/s) -->
     <g transform="translate(38.157812 207.204563) rotate(-90) scale(0.1 -0.1)">
      <defs>
       <path id="DejaVuSans-56" d="M 1831 0 
L 50 4666 
L 709 4666 
L 2188 738 
L 3669 4666 
L 4325 4666 
L 2547 0 
L 1831 0 
z
" transform="scale(0.015625)"/>
       <path id="DejaVuSans-6c" d="M 603 4863 
L 1178 4863 
L 1178 0 
L 603 0 
L 603 4863 
z
" transform="scale(0.015625)"/>
       <path id="DejaVuSans-6f" d="M 1959 3097 
Q 1497 3097 1228 2736 
Q 959 2375 959 1747 
Q 959 1119 1226 758 
Q 1494 397 1959 397 
Q 2419 397 2687 759 
Q 2956 1122 2956 1747 
Q 2956 2369 2687 2733 
Q 2419 3097 1959 3097 
z
M 1959 3584 
Q 2709 3584 3137 3096 
Q 3566 2609 3566 1747 
Q 3566 888 3137 398 
Q 2709 -91 1959 -91 
Q 1206 -91 779 398 
Q 353 888 353 1747 
Q 353 2609 779 3096 
Q 1206 3584 1959 3584 
z
" transform="scale(0.015625)"/>
       <path id="DejaVuSans-63" d="M 3122 3366 
L 3122 2828 
Q 2878 2963 2633 3030 
Q 2388 3097 2138 3097 
Q 1578 3097 1268 2742 
Q 959 2388 959 1747 
Q 959 1106 1268 751 
Q 1578 397 2138 397 
Q 2388 397 2633 464 
Q 2878 531 3122 666 
L 3122 134 
Q 2881 22 2623 -34 
Q 2366 -91 2075 -91 
Q 1284 -91 818 406 
Q 353 903 353 1747 
Q 353 2603 823 3093 
Q 1294 3584 2113 3584 
Q 2378 3584 2631 3529 
Q 2884 3475 3122 3366 
z
" transform="scale(0.015625)"/>
       <path id="DejaVuSans-74" d="M 1172 4494 
L 1172 3500 
L 2356 3500 
L 2356 3053 
L 1172 3053 
L 1172 1153 
Q 1172 725 1289 603 
Q 1406 481 1766 481 
L 2356 481 
L 2356 0 
L 1766 0 
Q 1100 0 847 248 
Q 594 497 594 1153 
L 594 3053 
L 172 3053 
L 172 3500 
L 594 3500 
L 594 4494 
L 1172 4494 
z
" transform="scale(0.015625)"/>
       <path id="DejaVuSans-79" d="M 2059 -325 
Q 1816 -950 1584 -1140 
Q 1353 -1331 966 -1331 
L 506 -1331 
L 506 -850 
L 844 -850 
Q 1081 -850 1212 -737 
Q 1344 -625 1503 -206 
L 1606 56 
L 191 3500 
L 800 3500 
L 1894 763 
L 2988 3500 
L 3597 3500 
L 2059 -325 
z
" transform="scale(0.015625)"/>
       <path id="DejaVuSans-2f" d="M 1625 4666 
L 2156 4666 
L 531 -594 
L 0 -594 
L 1625 4666 
z
" transform="scale(0.015625)"/>
      </defs>
      <use xlink:href="#DejaVuSans-56"/>
      <use xlink:href="#DejaVuSans-65" x="60.658203"/>
      <use xlink:href="#DejaVuSans-6c" x="122.181641"/>
      <use xlink:href="#DejaVuSans-6f" x="149.964844"/>
      <use xlink:href="#DejaVuSans-63" x="211.146484"/>
      <use xlink:href="#DejaVuSans-69" x="266.126953"/>
      <use xlink:href="#DejaVuSans-74" x="293.910156"/>
      <use xlink:href="#DejaVuSans-79" x="333.119141"/>
      <use xlink:href="#DejaVuSans-28" x="392.298828"/>
      <use xlink:href="#DejaVuSans-6d" x="431.3125"/>
      <use xlink:href="#DejaVuSans-2f" x="528.724609"/>
      <use xlink:href="#DejaVuSans-73" x="562.416016"/>
      <use xlink:href="#DejaVuSans-29" x="614.515625"/>
     </g>
    </g>
   </g>
   <g id="line2d_27">
    <path d="M 73.832727 53.717588 
L 76.660421 53.599492 
L 76.660421 53.599492 
L 85.143501 53.568279 
L 85.143501 53.568279 
L 92.389465 53.568 
L 92.389465 53.568 
L 92.566196 54.690662 
L 92.566196 54.690662 
L 92.742927 57.830272 
L 92.742927 57.830272 
L 95.57062 137.67571 
L 95.57062 137.67571 
L 95.924082 144.392025 
L 95.924082 144.392025 
L 96.277543 151.827243 
L 96.277543 151.827243 
L 97.161198 166.527375 
L 97.161198 166.527375 
L 97.868121 176.788343 
L 97.868121 176.788343 
L 99.281968 191.256305 
L 99.281968 191.256305 
L 99.81216 194.598716 
L 99.81216 194.598716 
L 100.519083 197.598399 
L 100.519083 197.598399 
L 100.872545 198.545956 
L 100.872545 198.545956 
L 101.402738 199.182834 
L 101.402738 199.182834 
L 101.756199 199.368995 
L 101.756199 199.368995 
L 102.109661 199.469949 
L 102.109661 199.469949 
L 103.170046 199.181438 
L 103.170046 199.181438 
L 103.700239 198.54093 
L 103.700239 198.54093 
L 104.0537 197.810469 
L 104.0537 197.810469 
L 104.937354 193.577958 
L 104.937354 193.577958 
L 105.290816 191.07355 
L 105.290816 191.07355 
L 105.644278 187.853366 
L 105.644278 187.853366 
L 106.704663 171.085584 
L 106.704663 171.085584 
L 107.765048 151.28244 
L 107.765048 151.28244 
L 108.29524 147.526331 
L 108.29524 147.526331 
L 108.825433 145.98383 
L 108.825433 145.98383 
L 109.355625 145.278048 
L 109.355625 145.278048 
L 109.885818 145.016842 
L 109.885818 145.016842 
L 111.653126 144.109991 
L 111.653126 144.109991 
L 112.360049 143.080131 
L 112.360049 143.080131 
L 112.713511 142.287355 
L 112.713511 142.287355 
L 113.597165 138.473399 
L 113.597165 138.473399 
L 114.304089 133.481726 
L 114.304089 133.481726 
L 114.65755 130.163995 
L 114.65755 130.163995 
L 115.541205 119.281336 
L 115.541205 119.281336 
L 115.717935 118.27677 
L 115.717935 118.27677 
L 115.894666 118.598113 
L 115.894666 118.598113 
L 116.071397 119.500106 
L 116.071397 119.500106 
L 116.248128 121.809307 
L 116.248128 121.809307 
L 117.131782 140.34668 
L 117.131782 140.34668 
L 118.192167 157.239257 
L 118.192167 157.239257 
L 118.89909 164.510873 
L 118.89909 164.510873 
L 119.429283 167.691524 
L 119.429283 167.691524 
L 120.136206 170.14685 
L 120.136206 170.14685 
L 120.489668 170.515264 
L 120.489668 170.515264 
L 120.84313 171.000433 
L 120.84313 171.000433 
L 121.01986 171.177939 
L 121.01986 171.177939 
L 121.196591 171.176152 
L 121.196591 171.176152 
L 121.373322 171.323897 
L 121.373322 171.323897 
L 121.726784 171.304633 
L 121.726784 171.304633 
L 122.256976 171.406313 
L 122.256976 171.406313 
L 122.787169 171.326131 
L 122.787169 171.326131 
L 123.14063 171.344278 
L 123.14063 171.344278 
L 123.670823 171.125564 
L 123.670823 171.125564 
L 124.024285 171.026844 
L 124.024285 171.026844 
L 124.377746 170.778703 
L 124.377746 170.778703 
L 125.614862 169.617849 
L 125.614862 169.617849 
L 126.675247 167.947649 
L 126.675247 167.947649 
L 127.735632 165.834045 
L 127.735632 165.834045 
L 128.796017 163.056203 
L 128.796017 163.056203 
L 129.502941 160.79184 
L 129.502941 160.79184 
L 130.033133 159.049498 
L 130.033133 159.049498 
L 131.800441 152.070972 
L 131.800441 152.070972 
L 132.860826 146.957574 
L 132.860826 146.957574 
L 135.158327 133.261672 
L 135.158327 133.261672 
L 136.041981 126.579976 
L 136.041981 126.579976 
L 136.925636 119.149505 
L 136.925636 119.149505 
L 138.692944 100.416144 
L 138.692944 100.416144 
L 140.990445 70.539755 
L 140.990445 70.539755 
L 141.697368 65.061796 
L 141.697368 65.061796 
L 142.404292 61.351977 
L 142.404292 61.351977 
L 143.111215 58.839529 
L 143.111215 58.839529 
L 143.818138 57.138059 
L 143.818138 57.138059 
L 144.525062 55.985748 
L 144.525062 55.985748 
L 145.231985 55.205368 
L 145.231985 55.205368 
L 146.115639 54.573962 
L 146.115639 54.573962 
L 147.176024 54.128605 
L 147.176024 54.128605 
L 148.589871 53.82513 
L 148.589871 53.82513 
L 150.710641 53.647847 
L 150.710641 53.647847 
L 150.887372 54.617124 
L 150.887372 54.617124 
L 151.594295 69.5219 
L 151.594295 69.5219 
L 152.65468 104.836938 
L 152.65468 104.836938 
L 153.008142 113.47969 
L 153.008142 113.47969 
L 153.361603 123.626638 
L 153.361603 123.626638 
L 154.068527 141.944627 
L 154.068527 141.944627 
L 154.421988 151.383114 
L 154.421988 151.383114 
L 155.835835 184.126851 
L 155.835835 184.126851 
L 156.366028 194.412835 
L 156.366028 194.412835 
L 157.072951 205.316097 
L 157.072951 205.316097 
L 157.426413 211.36192 
L 157.426413 211.36192 
L 157.779874 216.306019 
L 157.779874 216.306019 
L 158.310067 223.402529 
L 158.310067 223.402529 
L 158.486798 224.78595 
L 158.486798 224.78595 
L 159.01699 230.452415 
L 159.01699 230.452415 
L 159.547183 234.631546 
L 159.547183 234.631546 
L 159.900644 237.074588 
L 159.900644 237.074588 
L 161.314491 243.981029 
L 161.314491 243.981029 
L 162.021414 245.842862 
L 162.021414 245.842862 
L 162.728338 246.910078 
L 162.728338 246.910078 
L 162.905069 247.07301 
L 162.905069 247.07301 
L 163.435261 247.114442 
L 163.435261 247.114442 
L 163.611992 247.24471 
L 163.611992 247.24471 
L 163.788723 247.219806 
L 163.788723 247.219806 
L 163.965454 247.308643 
L 163.965454 247.308643 
L 164.495646 247.237451 
L 164.495646 247.237451 
L 164.672377 247.311491 
L 164.672377 247.311491 
L 164.849108 247.213385 
L 164.849108 247.213385 
L 165.202569 247.18703 
L 165.202569 247.18703 
L 165.732762 246.898519 
L 165.732762 246.898519 
L 166.262954 246.316361 
L 166.262954 246.316361 
L 166.969878 245.07566 
L 166.969878 245.07566 
L 167.676801 243.121025 
L 167.676801 243.121025 
L 168.913917 237.586615 
L 168.913917 237.586615 
L 169.62084 234.025266 
L 169.62084 234.025266 
L 170.681225 227.16545 
L 170.681225 227.16545 
L 172.095072 215.770541 
L 172.095072 215.770541 
L 173.332188 203.629034 
L 173.332188 203.629034 
L 175.98315 175.155163 
L 175.98315 175.155163 
L 179.694498 135.239926 
L 179.694498 135.239926 
L 180.401421 125.053501 
L 180.401421 125.053501 
L 181.638537 100.045162 
L 181.638537 100.045162 
L 182.16873 89.794691 
L 182.16873 89.794691 
L 182.522191 87.268284 
L 182.522191 87.268284 
L 182.698922 86.785962 
L 182.698922 86.785962 
L 182.875653 88.138729 
L 182.875653 88.138729 
L 183.229115 95.281081 
L 183.229115 95.281081 
L 183.582576 104.661888 
L 183.582576 104.661888 
L 184.112769 119.546842 
L 184.112769 119.546842 
L 184.466231 131.507548 
L 184.466231 131.507548 
L 186.233539 182.950977 
L 186.233539 182.950977 
L 188.000847 224.242767 
L 188.000847 224.242767 
L 189.944886 253.408348 
L 189.944886 253.408348 
L 191.535464 266.530077 
L 191.535464 266.530077 
L 192.949311 272.125628 
L 192.949311 272.125628 
L 193.302772 272.847826 
L 193.302772 272.847826 
L 194.186426 274.006949 
L 194.186426 274.006949 
L 194.539888 274.360733 
L 194.539888 274.360733 
L 194.716619 274.341804 
L 194.716619 274.341804 
L 194.89335 274.45454 
L 194.89335 274.45454 
L 195.246812 274.495412 
L 195.246812 274.495412 
L 195.600273 274.583858 
L 195.600273 274.583858 
L 195.953735 274.572188 
L 195.953735 274.572188 
L 196.483927 274.51691 
L 196.483927 274.51691 
L 197.01412 274.400322 
L 197.01412 274.400322 
L 197.367582 274.097629 
L 197.367582 274.097629 
L 197.897774 273.634292 
L 197.897774 273.634292 
L 199.13489 270.905978 
L 199.13489 270.905978 
L 200.372006 265.17999 
L 200.372006 265.17999 
L 201.962583 252.367097 
L 201.962583 252.367097 
L 203.906622 227.599528 
L 203.906622 227.599528 
L 205.4972 196.542519 
L 205.4972 196.542519 
L 206.204123 180.243881 
L 206.204123 180.243881 
L 209.031817 101.469679 
L 209.031817 101.469679 
L 209.73874 86.008542 
L 209.73874 86.008542 
L 210.445663 75.537793 
L 210.445663 75.537793 
L 211.152587 68.446644 
L 211.152587 68.446644 
L 211.85951 63.644259 
L 211.85951 63.644259 
L 212.566433 60.391969 
L 212.566433 60.391969 
L 213.273357 58.189417 
L 213.273357 58.189417 
L 213.98028 56.697783 
L 213.98028 56.697783 
L 214.687203 55.687578 
L 214.687203 55.687578 
L 215.040665 55.342114 
L 215.040665 55.342114 
L 215.217396 55.987256 
L 215.217396 55.987256 
L 215.570858 61.192338 
L 215.570858 61.192338 
L 216.10105 70.042804 
L 216.10105 70.042804 
L 217.338166 97.749529 
L 217.338166 97.749529 
L 218.045089 112.421073 
L 218.045089 112.421073 
L 219.458936 144.206199 
L 219.458936 144.206199 
L 220.165859 155.829258 
L 220.165859 155.829258 
L 220.872783 169.3084 
L 220.872783 169.3084 
L 222.816822 192.764522 
L 222.816822 192.764522 
L 224.053938 201.283762 
L 224.053938 201.283762 
L 224.760861 203.679399 
L 224.760861 203.679399 
L 225.291054 204.720929 
L 225.291054 204.720929 
L 225.821246 205.069186 
L 225.821246 205.069186 
L 227.588554 205.135743 
L 227.588554 205.135743 
L 227.942016 204.807812 
L 227.942016 204.807812 
L 228.118747 204.662524 
L 228.118747 204.662524 
L 228.82567 203.35694 
L 228.82567 203.35694 
L 229.532594 200.933943 
L 229.532594 200.933943 
L 230.062786 198.046269 
L 230.062786 198.046269 
L 231.299902 184.886292 
L 231.299902 184.886292 
L 231.653364 179.766306 
L 231.653364 179.766306 
L 233.06721 148.187722 
L 233.06721 148.187722 
L 234.481057 108.164217 
L 234.481057 108.164217 
L 235.18798 90.684232 
L 235.18798 90.684232 
L 235.894904 78.704318 
L 235.894904 78.704318 
L 236.601827 70.591125 
L 236.601827 70.591125 
L 237.30875 65.096583 
L 237.30875 65.096583 
L 238.015674 61.37554 
L 238.015674 61.37554 
L 238.722597 58.855498 
L 238.722597 58.855498 
L 239.42952 57.148892 
L 239.42952 57.148892 
L 240.136444 55.993063 
L 240.136444 55.993063 
L 240.843367 55.210338 
L 240.843367 55.210338 
L 241.196829 54.919538 
L 241.196829 54.919538 
L 241.37356 54.903066 
L 241.37356 54.903066 
L 241.727021 58.501156 
L 241.727021 58.501156 
L 242.257214 64.172087 
L 242.257214 64.172087 
L 243.49433 82.881215 
L 243.49433 82.881215 
L 243.847791 88.19987 
L 243.847791 88.19987 
L 244.201253 93.917482 
L 244.201253 93.917482 
L 245.084907 106.896323 
L 245.084907 106.896323 
L 245.438369 112.446256 
L 245.438369 112.446256 
L 247.028946 132.147163 
L 247.028946 132.147163 
L 247.912601 139.547873 
L 247.912601 139.547873 
L 248.619524 143.046685 
L 248.619524 143.046685 
L 249.326447 145.13907 
L 249.326447 145.13907 
L 249.679909 145.582472 
L 249.679909 145.582472 
L 250.033371 145.792699 
L 250.033371 145.792699 
L 250.210101 145.943627 
L 250.210101 145.943627 
L 250.563563 145.95982 
L 250.563563 145.95982 
L 250.740294 146.184341 
L 250.740294 146.184341 
L 251.093756 146.170158 
L 251.093756 146.170158 
L 251.270486 146.141849 
L 251.270486 146.141849 
L 252.154141 145.460301 
L 252.154141 145.460301 
L 252.861064 143.786862 
L 252.861064 143.786862 
L 253.214526 142.623886 
L 253.214526 142.623886 
L 254.451642 135.73442 
L 254.451642 135.73442 
L 254.981834 131.444006 
L 254.981834 131.444006 
L 255.688757 124.595189 
L 255.688757 124.595189 
L 257.279335 104.090172 
L 257.279335 104.090172 
L 259.400105 71.78671 
L 259.400105 71.78671 
L 260.107028 65.906277 
L 260.107028 65.906277 
L 260.813952 61.923861 
L 260.813952 61.923861 
L 261.520875 59.226871 
L 261.520875 59.226871 
L 262.227798 57.400382 
L 262.227798 57.400382 
L 262.934722 56.163422 
L 262.934722 56.163422 
L 263.641645 55.325697 
L 263.641645 55.325697 
L 264.525299 54.647834 
L 264.525299 54.647834 
L 265.585684 54.169813 
L 265.585684 54.169813 
L 266.8228 53.872257 
L 266.8228 53.872257 
L 268.766839 53.672192 
L 268.766839 53.672192 
L 272.301456 53.582853 
L 272.301456 53.582853 
L 276.366265 53.569563 
L 276.366265 53.569563 
L 276.542996 54.902396 
L 276.542996 54.902396 
L 276.896458 64.807905 
L 276.896458 64.807905 
L 277.42665 80.541471 
L 277.42665 80.541471 
L 278.487035 121.454741 
L 278.487035 121.454741 
L 279.193959 147.194156 
L 279.193959 147.194156 
L 279.54742 160.743708 
L 279.54742 160.743708 
L 280.961267 206.239923 
L 280.961267 206.239923 
L 282.375114 238.996447 
L 282.375114 238.996447 
L 283.965691 265.99901 
L 283.965691 265.99901 
L 284.495884 271.962919 
L 284.495884 271.962919 
L 284.849345 276.047517 
L 284.849345 276.047517 
L 285.379538 280.855598 
L 285.379538 280.855598 
L 285.90973 286.014894 
L 285.90973 286.014894 
L 286.970115 291.948763 
L 286.970115 291.948763 
L 287.677039 294.141767 
L 287.677039 294.141767 
L 288.207231 294.897131 
L 288.207231 294.897131 
L 288.560693 295.092171 
L 288.560693 295.092171 
L 289.444347 295.361138 
L 289.444347 295.361138 
L 290.328001 295.211048 
L 290.328001 295.211048 
L 290.858194 294.800254 
L 290.858194 294.800254 
L 291.211655 294.462439 
L 291.211655 294.462439 
L 291.741848 293.287291 
L 291.741848 293.287291 
L 292.27204 291.765449 
L 292.27204 291.765449 
L 292.625502 290.238359 
L 292.625502 290.238359 
L 293.155695 287.711952 
L 293.155695 287.711952 
L 293.862618 283.356767 
L 293.862618 283.356767 
L 294.923003 274.705081 
L 294.923003 274.705081 
L 295.629926 267.780047 
L 295.629926 267.780047 
L 296.51358 256.901855 
L 296.51358 256.901855 
L 297.397235 244.849631 
L 297.397235 244.849631 
L 298.280889 230.873762 
L 298.280889 230.873762 
L 299.518005 210.142325 
L 299.518005 210.142325 
L 301.638775 180.155714 
L 301.638775 180.155714 
L 303.052621 159.840319 
L 303.052621 159.840319 
L 303.229352 159.579783 
L 303.229352 159.579783 
L 303.406083 158.956026 
L 303.406083 158.956026 
L 303.936276 167.195969 
L 303.936276 167.195969 
L 304.289737 177.218122 
L 304.289737 177.218122 
L 304.81993 190.465204 
L 304.81993 190.465204 
L 306.587238 223.648548 
L 306.587238 223.648548 
L 307.117431 230.955675 
L 307.117431 230.955675 
L 308.708008 246.523573 
L 308.708008 246.523573 
L 309.06147 249.096102 
L 309.06147 249.096102 
L 310.828778 257.863426 
L 310.828778 257.863426 
L 311.358971 259.249248 
L 311.358971 259.249248 
L 311.535701 259.464277 
L 311.535701 259.464277 
L 311.889163 260.19016 
L 311.889163 260.19016 
L 312.596087 261.160219 
L 312.596087 261.160219 
L 312.772817 261.159884 
L 312.772817 261.159884 
L 313.126279 261.411877 
L 313.126279 261.411877 
L 313.833202 261.584246 
L 313.833202 261.584246 
L 315.070318 261.320806 
L 315.070318 261.320806 
L 316.130703 260.414067 
L 316.130703 260.414067 
L 316.307434 260.180389 
L 316.307434 260.180389 
L 317.54455 256.776166 
L 317.54455 256.776166 
L 318.781666 250.527487 
L 318.781666 250.527487 
L 319.66532 244.057749 
L 319.66532 244.057749 
L 320.195512 239.605016 
L 320.195512 239.605016 
L 320.902436 233.051132 
L 320.902436 233.051132 
L 321.962821 222.027428 
L 321.962821 222.027428 
L 323.199937 207.232149 
L 323.199937 207.232149 
L 324.083591 194.724182 
L 324.083591 194.724182 
L 326.02763 162.942686 
L 326.02763 162.942686 
L 327.264746 140.782153 
L 327.264746 140.782153 
L 327.618208 138.536104 
L 327.618208 138.536104 
L 327.971669 139.359926 
L 327.971669 139.359926 
L 328.1484 141.295464 
L 328.1484 141.295464 
L 328.855323 156.872017 
L 328.855323 156.872017 
L 329.385516 165.999267 
L 329.385516 165.999267 
L 330.622632 186.221414 
L 330.622632 186.221414 
L 331.859748 200.174669 
L 331.859748 200.174669 
L 332.38994 204.039381 
L 332.38994 204.039381 
L 333.273594 208.383232 
L 333.273594 208.383232 
L 333.803787 209.561619 
L 333.803787 209.561619 
L 334.333979 210.027412 
L 334.333979 210.027412 
L 334.687441 210.162035 
L 334.687441 210.162035 
L 335.217633 210.39281 
L 335.217633 210.39281 
L 335.747826 210.309948 
L 335.747826 210.309948 
L 336.454749 209.746384 
L 336.454749 209.746384 
L 337.161673 208.442866 
L 337.161673 208.442866 
L 337.868596 205.880667 
L 337.868596 205.880667 
L 338.398789 202.788238 
L 338.398789 202.788238 
L 339.459174 190.854166 
L 339.459174 190.854166 
L 340.166097 179.895624 
L 340.166097 179.895624 
L 340.519559 177.579053 
L 340.519559 177.579053 
L 340.696289 176.950718 
L 340.696289 176.950718 
L 340.87302 177.030118 
L 340.87302 177.030118 
L 341.049751 177.288365 
L 341.049751 177.288365 
L 341.579944 182.009395 
L 341.579944 182.009395 
L 342.110136 185.780412 
L 342.110136 185.780412 
L 342.463598 187.052048 
L 342.463598 187.052048 
L 343.347252 188.093969 
L 343.347252 188.093969 
L 343.523983 188.199724 
L 343.523983 188.199724 
L 343.700714 188.173537 
L 343.700714 188.173537 
L 344.407637 187.426603 
L 344.407637 187.426603 
L 344.937829 185.851661 
L 344.937829 185.851661 
L 345.821484 178.610644 
L 345.821484 178.610644 
L 346.881869 167.455053 
L 346.881869 167.455053 
L 347.058599 167.190162 
L 347.058599 167.190162 
L 347.23533 167.176426 
L 347.23533 167.176426 
L 347.412061 168.374468 
L 347.412061 168.374468 
L 348.118985 177.747011 
L 348.118985 177.747011 
L 348.649177 182.412316 
L 348.649177 182.412316 
L 349.17937 184.976023 
L 349.17937 184.976023 
L 349.532831 185.818996 
L 349.532831 185.818996 
L 349.886293 186.095111 
L 349.886293 186.095111 
L 350.063024 186.223983 
L 350.063024 186.223983 
L 350.239755 186.188805 
L 350.239755 186.188805 
L 350.416485 186.301429 
L 350.416485 186.301429 
L 350.593216 186.258434 
L 350.593216 186.258434 
L 350.946678 186.329627 
L 350.946678 186.329627 
L 351.653601 186.132968 
L 351.653601 186.132968 
L 352.713986 185.089372 
L 352.713986 185.089372 
L 353.244179 184.152481 
L 353.244179 184.152481 
L 354.481295 181.317294 
L 354.481295 181.317294 
L 355.895141 176.191165 
L 355.895141 176.191165 
L 356.602065 172.88583 
L 356.602065 172.88583 
L 359.076296 156.057129 
L 359.076296 156.057129 
L 361.197066 139.993398 
L 361.197066 139.993398 
L 362.434182 132.828655 
L 362.434182 132.828655 
L 364.201491 123.920453 
L 364.201491 123.920453 
L 365.261876 116.384505 
L 365.261876 116.384505 
L 366.322261 105.069053 
L 366.322261 105.069053 
L 367.029184 94.073491 
L 367.029184 94.073491 
L 367.912838 78.989031 
L 367.912838 78.989031 
L 368.619761 70.783931 
L 368.619761 70.783931 
L 369.326685 65.227186 
L 369.326685 65.227186 
L 370.033608 61.463986 
L 370.033608 61.463986 
L 370.740531 58.915411 
L 370.740531 58.915411 
L 371.447455 57.189429 
L 371.447455 57.189429 
L 372.154378 56.020535 
L 372.154378 56.020535 
L 372.861302 55.228932 
L 372.861302 55.228932 
L 373.744956 54.588424 
L 373.744956 54.588424 
L 374.805341 54.136701 
L 374.805341 54.136701 
L 376.219187 53.828815 
L 376.219187 53.828815 
L 378.339957 53.64902 
L 378.339957 53.64902 
L 382.581498 53.575817 
L 382.581498 53.575817 
L 396.896695 53.595863 
L 396.896695 53.595863 
L 397.603619 53.719542 
L 397.603619 53.719542 
L 398.487273 53.661416 
L 398.487273 53.661416 
" clip-path="url(#p25bbaba4b7)" style="fill: none; stroke: #1f77b4; stroke-width: 1.5; stroke-linecap: square"/>
   </g>
   <g id="line2d_28">
    <path d="M 73.832727 53.568 
L 92.212734 53.568 
L 92.212734 53.568 
L 92.389465 56.829447 
L 92.389465 56.829447 
L 92.919658 82.048683 
L 93.096388 80.590664 
L 93.44985 94.578259 
L 93.44985 94.578259 
L 93.626581 103.53448 
L 93.626581 103.53448 
L 93.803312 102.810329 
L 93.803312 102.810329 
L 94.156773 116.13536 
L 94.156773 116.13536 
L 94.333504 124.008564 
L 94.333504 124.008564 
L 94.510235 122.385658 
L 94.863697 136.480292 
L 94.863697 136.480292 
L 95.040428 135.122501 
L 95.040428 135.122501 
L 95.393889 147.25312 
L 95.393889 147.25312 
L 95.57062 146.530085 
L 95.57062 146.530085 
L 95.924082 157.955983 
L 95.924082 157.955983 
L 96.100813 157.097096 
L 96.277543 161.543184 
L 96.277543 161.543184 
L 96.454274 162.688292 
L 96.454274 162.688292 
L 96.631005 165.553687 
L 96.631005 165.553687 
L 96.807736 171.290842 
L 96.807736 171.290842 
L 96.984467 171.005849 
L 96.984467 171.005849 
L 97.161198 174.70478 
L 97.161198 174.70478 
L 97.337928 175.55317 
L 98.044852 185.457004 
L 98.044852 185.457004 
L 98.221583 185.856909 
L 98.221583 185.856909 
L 98.928506 193.520166 
L 98.928506 193.520166 
L 99.105237 193.568577 
L 99.105237 193.568577 
L 99.281968 195.189138 
L 99.281968 195.189138 
L 99.458698 195.307736 
L 99.458698 195.307736 
L 99.635429 196.618234 
L 99.635429 196.618234 
L 99.81216 196.980561 
L 99.81216 196.980561 
L 100.165622 198.351475 
L 100.165622 198.351475 
L 100.519083 199.153966 
L 100.519083 199.153966 
L 100.695814 199.33097 
L 100.695814 199.33097 
L 100.872545 199.329686 
L 100.872545 199.329686 
L 101.049276 199.561912 
L 101.049276 199.561912 
L 101.226007 199.392893 
L 101.226007 199.392893 
L 101.402738 199.61708 
L 101.579469 199.438903 
L 101.579469 199.438903 
L 101.756199 199.654155 
L 101.756199 199.654155 
L 102.109661 199.152905 
L 102.109661 199.152905 
L 102.286392 199.423771 
L 102.286392 199.423771 
L 102.463123 198.851496 
L 102.463123 198.851496 
L 102.639854 199.122418 
L 102.639854 199.122418 
L 102.816584 198.255323 
L 102.816584 198.255323 
L 102.993315 198.438357 
L 102.993315 198.438357 
L 103.170046 197.293808 
L 103.170046 197.293808 
L 103.346777 197.026348 
L 103.346777 197.026348 
L 103.876969 193.905442 
L 103.876969 193.905442 
L 104.0537 189.698951 
L 104.0537 189.698951 
L 104.230431 190.8124 
L 104.230431 190.8124 
L 104.407162 186.21248 
L 104.407162 186.21248 
L 104.583893 186.972703 
L 104.583893 186.972703 
L 104.760624 182.314154 
L 104.760624 182.314154 
L 104.937354 181.858802 
L 104.937354 181.858802 
L 105.290816 175.022103 
L 105.290816 175.022103 
L 105.467547 170.949174 
L 105.467547 170.949174 
L 105.644278 159.891633 
L 105.644278 159.891633 
L 105.821009 162.796896 
L 105.821009 162.796896 
L 105.997739 151.256754 
L 105.997739 151.256754 
L 106.17447 152.128484 
L 106.351201 142.045692 
L 106.527932 139.66435 
L 106.527932 139.66435 
L 107.058124 121.344407 
L 107.058124 121.344407 
L 107.234855 125.304433 
L 107.234855 125.304433 
L 107.411586 126.502028 
L 107.411586 126.502028 
L 107.941779 135.736374 
L 107.941779 135.736374 
L 108.29524 140.739047 
L 108.29524 140.739047 
L 108.471971 140.988751 
L 108.471971 140.988751 
L 108.648702 142.427897 
L 108.648702 142.427897 
L 109.002164 143.189572 
L 109.002164 143.189572 
L 109.532356 144.407659 
L 109.532356 144.407659 
L 110.062549 144.003231 
L 110.062549 144.003231 
L 110.239279 143.835161 
L 110.239279 143.835161 
L 110.41601 144.116189 
L 110.41601 144.116189 
L 110.592741 143.916125 
L 110.592741 143.916125 
L 110.769472 143.478976 
L 110.769472 143.478976 
L 110.946203 143.811653 
L 110.946203 143.811653 
L 111.122934 143.753639 
L 111.122934 143.753639 
L 111.299664 142.316837 
L 111.299664 142.316837 
L 111.476395 143.276734 
L 111.476395 143.276734 
L 111.653126 141.780242 
L 111.653126 141.780242 
L 111.829857 141.857353 
L 111.829857 141.857353 
L 112.006588 141.410321 
L 112.006588 141.410321 
L 112.183319 139.058963 
L 112.183319 139.058963 
L 112.360049 139.281586 
L 112.360049 139.281586 
L 112.53678 137.98689 
L 112.53678 137.98689 
L 112.713511 134.944492 
L 112.713511 134.944492 
L 112.890242 135.520731 
L 112.890242 135.520731 
L 113.066973 133.713953 
L 113.066973 133.713953 
L 113.243704 129.09315 
L 113.243704 129.09315 
L 113.420435 130.254898 
L 113.420435 130.254898 
L 113.597165 126.669707 
L 113.597165 126.669707 
L 113.773896 125.948458 
L 113.773896 125.948458 
L 113.950627 123.421381 
L 113.950627 123.421381 
L 114.127358 117.48003 
L 114.127358 117.48003 
L 114.304089 116.880227 
L 114.304089 116.880227 
L 114.48082 112.805791 
L 114.48082 112.805791 
L 114.65755 104.919186 
L 114.834281 104.228815 
L 114.834281 104.228815 
L 115.011012 98.555036 
L 115.011012 98.555036 
L 115.364474 101.986061 
L 115.364474 101.986061 
L 115.541205 108.46088 
L 115.541205 108.46088 
L 115.717935 119.210255 
L 115.717935 119.210255 
L 115.894666 121.218494 
L 115.894666 121.218494 
L 116.77832 145.296195 
L 116.77832 145.296195 
L 116.955051 146.367487 
L 116.955051 146.367487 
L 117.838705 160.654201 
L 117.838705 160.654201 
L 118.015436 161.015579 
L 118.015436 161.015579 
L 118.368898 165.775193 
L 118.368898 165.775193 
L 118.545629 165.577027 
L 118.545629 165.577027 
L 118.72236 167.595093 
L 118.72236 167.595093 
L 118.89909 167.980537 
L 118.89909 167.980537 
L 119.252552 169.440566 
L 119.252552 169.440566 
L 119.429283 169.737062 
L 119.429283 169.737062 
L 119.606014 170.542736 
L 119.606014 170.542736 
L 119.782745 170.713709 
L 119.782745 170.713709 
L 119.959475 171.039519 
L 119.959475 171.039519 
L 120.136206 170.500467 
L 120.136206 170.500467 
L 120.489668 171.380572 
L 120.489668 171.380572 
L 120.666399 171.357288 
L 120.666399 171.357288 
L 120.84313 171.516033 
L 120.84313 171.516033 
L 121.01986 171.159066 
L 121.01986 171.159066 
L 121.196591 171.605372 
L 121.196591 171.605372 
L 121.373322 171.088935 
L 121.373322 171.088935 
L 121.726784 171.506261 
L 121.726784 171.506261 
L 121.903515 170.846099 
L 121.903515 170.846099 
L 122.080245 171.561205 
L 122.080245 171.561205 
L 122.256976 170.821977 
L 122.256976 170.821977 
L 122.610438 171.290283 
L 122.610438 171.290283 
L 122.787169 171.408993 
L 122.787169 171.408993 
L 122.9639 171.242878 
L 123.14063 170.141825 
L 123.14063 170.141825 
L 123.317361 170.652065 
L 123.317361 170.652065 
L 123.494092 170.605887 
L 123.494092 170.605887 
L 123.670823 170.681826 
L 123.670823 170.681826 
L 123.847554 170.464899 
L 123.847554 170.464899 
L 124.024285 169.00057 
L 124.024285 169.00057 
L 124.201015 170.19219 
L 124.201015 170.19219 
L 124.377746 169.137706 
L 124.377746 169.137706 
L 124.554477 169.437886 
L 124.554477 169.437886 
L 124.907939 168.37095 
L 124.907939 168.37095 
L 125.08467 168.916926 
L 125.08467 168.916926 
L 125.261401 167.341872 
L 125.261401 167.341872 
L 125.438131 167.7903 
L 125.438131 167.7903 
L 125.614862 166.897073 
L 125.614862 166.897073 
L 125.968324 167.140802 
L 125.968324 167.140802 
L 126.145055 165.028036 
L 126.145055 165.028036 
L 126.321786 165.63426 
L 126.321786 165.63426 
L 126.498516 164.332194 
L 126.498516 164.332194 
L 126.675247 164.491218 
L 126.851978 164.815241 
L 126.851978 164.815241 
L 127.028709 162.576116 
L 127.028709 162.576116 
L 127.20544 163.405074 
L 127.20544 163.405074 
L 127.382171 162.181459 
L 127.382171 162.181459 
L 127.558901 162.405422 
L 127.558901 162.405422 
L 127.912363 159.230913 
L 127.912363 159.230913 
L 128.089094 160.31795 
L 128.089094 160.31795 
L 128.265825 159.054467 
L 128.265825 159.054467 
L 128.442556 159.301714 
L 128.619286 158.889524 
L 128.619286 158.889524 
L 128.796017 155.996546 
L 128.796017 155.996546 
L 128.972748 157.069959 
L 128.972748 157.069959 
L 129.149479 155.505347 
L 129.149479 155.505347 
L 129.32621 155.712558 
L 129.32621 155.712558 
L 129.502941 155.348835 
L 129.502941 155.348835 
L 129.679671 152.42537 
L 129.679671 152.42537 
L 129.856402 154.093337 
L 129.856402 154.093337 
L 130.033133 151.950866 
L 130.033133 151.950866 
L 130.209864 152.04685 
L 130.209864 152.04685 
L 130.386595 151.386129 
L 130.386595 151.386129 
L 130.563326 148.509567 
L 130.563326 148.509567 
L 130.740056 149.820847 
L 130.916787 147.519798 
L 130.916787 147.519798 
L 131.093518 147.40952 
L 131.093518 147.40952 
L 131.270249 146.809214 
L 131.270249 146.809214 
L 131.44698 144.719342 
L 131.44698 144.719342 
L 131.623711 145.035603 
L 131.623711 145.035603 
L 131.800441 143.667314 
L 131.800441 143.667314 
L 131.977172 140.889249 
L 131.977172 140.889249 
L 132.153903 141.6397 
L 132.153903 141.6397 
L 132.330634 140.208427 
L 132.330634 140.208427 
L 132.507365 139.707958 
L 132.507365 139.707958 
L 132.684096 138.493501 
L 132.684096 138.493501 
L 132.860826 136.101326 
L 132.860826 136.101326 
L 133.037557 136.408263 
L 133.037557 136.408263 
L 133.214288 134.888376 
L 133.214288 134.888376 
L 133.391019 132.170726 
L 133.391019 132.170726 
L 133.56775 133.286464 
L 133.56775 133.286464 
L 133.744481 130.861066 
L 133.744481 130.861066 
L 133.921211 130.460602 
L 133.921211 130.460602 
L 134.097942 128.991918 
L 134.097942 128.991918 
L 134.274673 126.534972 
L 134.274673 126.534972 
L 134.451404 126.379744 
L 134.451404 126.379744 
L 134.628135 124.796761 
L 134.628135 124.796761 
L 134.804866 121.881504 
L 134.804866 121.881504 
L 134.981596 121.943874 
L 134.981596 121.943874 
L 135.158327 120.236821 
L 135.158327 120.236821 
L 135.335058 116.908816 
L 135.335058 116.908816 
L 135.511789 117.128423 
L 135.511789 117.128423 
L 135.68852 115.593014 
L 135.68852 115.593014 
L 135.865251 111.624668 
L 135.865251 111.624668 
L 136.041981 111.918818 
L 136.041981 111.918818 
L 136.218712 109.99802 
L 136.218712 109.99802 
L 136.395443 106.044527 
L 136.395443 106.044527 
L 136.572174 106.297191 
L 136.572174 106.297191 
L 136.748905 104.151257 
L 136.748905 104.151257 
L 136.925636 100.166719 
L 136.925636 100.166719 
L 137.102367 100.000269 
L 137.102367 100.000269 
L 137.279097 97.944903 
L 137.279097 97.944903 
L 137.455828 93.871696 
L 137.455828 93.871696 
L 137.632559 93.338507 
L 137.632559 93.338507 
L 137.80929 91.124006 
L 137.80929 91.124006 
L 138.162752 82.034445 
L 138.162752 82.034445 
L 138.339482 83.839827 
L 138.339482 83.839827 
L 138.692944 75.014376 
L 138.692944 75.014376 
L 138.869675 75.305734 
L 138.869675 75.305734 
L 139.046406 72.763637 
L 139.046406 72.763637 
L 139.399867 61.850379 
L 139.399867 61.850379 
L 139.576598 63.090969 
L 139.576598 63.090969 
L 139.753329 60.2153 
L 139.753329 60.2153 
L 139.93006 54.941091 
L 139.93006 54.941091 
L 140.283522 53.568 
L 140.283522 53.568 
L 150.53391 53.568 
L 150.53391 53.568 
L 150.710641 56.463658 
L 150.710641 56.463658 
L 150.887372 65.332216 
L 150.887372 65.332216 
L 151.064103 66.299483 
L 151.064103 66.299483 
L 151.594295 87.524967 
L 151.594295 87.524967 
L 151.771026 95.905173 
L 151.771026 95.905173 
L 151.947757 95.19297 
L 151.947757 95.19297 
L 152.301218 108.634868 
L 152.301218 108.634868 
L 152.477949 118.694488 
L 152.477949 118.694488 
L 152.65468 116.428449 
L 152.65468 116.428449 
L 153.008142 131.567406 
L 153.184873 131.095917 
L 153.361603 135.908632 
L 153.361603 135.908632 
L 153.538334 145.043532 
L 153.538334 145.043532 
L 153.715065 145.204343 
L 153.715065 145.204343 
L 153.891796 150.017896 
L 153.891796 150.017896 
L 154.068527 159.218684 
L 154.068527 159.218684 
L 154.245258 158.036333 
L 154.245258 158.036333 
L 154.598719 172.905261 
L 154.598719 172.905261 
L 154.77545 171.065204 
L 154.77545 171.065204 
L 154.952181 178.29053 
L 154.952181 178.29053 
L 155.128912 178.700319 
L 155.128912 178.700319 
L 155.305643 183.190909 
L 155.305643 183.190909 
L 155.482373 191.38004 
L 155.482373 191.38004 
L 155.659104 189.147839 
L 155.659104 189.147839 
L 155.835835 196.422692 
L 155.835835 196.422692 
L 156.012566 195.713728 
L 156.012566 195.713728 
L 156.189297 201.122393 
L 156.189297 201.122393 
L 156.366028 201.962184 
L 156.366028 201.962184 
L 156.719489 207.551146 
L 156.719489 207.551146 
L 156.89622 210.48014 
L 156.89622 210.48014 
L 157.072951 217.22549 
L 157.072951 217.22549 
L 157.249682 215.069785 
L 157.249682 215.069785 
L 157.426413 221.018283 
L 157.426413 221.018283 
L 157.603143 219.392529 
L 157.603143 219.392529 
L 157.779874 224.785727 
L 157.779874 224.785727 
L 157.956605 223.921033 
L 158.133336 228.281635 
L 158.133336 228.281635 
L 158.310067 227.421463 
L 158.310067 227.421463 
L 158.486798 231.500702 
L 158.486798 231.500702 
L 158.663528 230.583409 
L 158.663528 230.583409 
L 158.840259 234.558064 
L 158.840259 234.558064 
L 159.01699 233.968312 
L 159.01699 233.968312 
L 159.193721 237.120152 
L 159.193721 237.120152 
L 159.370452 236.708632 
L 159.370452 236.708632 
L 159.547183 239.438956 
L 159.547183 239.438956 
L 159.723913 238.576161 
L 159.723913 238.576161 
L 160.430837 242.937768 
L 160.430837 242.937768 
L 160.607568 243.217847 
L 160.607568 243.217847 
L 161.13776 245.465682 
L 161.13776 245.465682 
L 161.314491 245.512976 
L 161.314491 245.512976 
L 161.667953 246.26125 
L 161.667953 246.26125 
L 162.374876 247.442317 
L 162.374876 247.442317 
L 162.551607 247.021026 
L 162.551607 247.021026 
L 162.728338 247.383353 
L 162.728338 247.383353 
L 162.905069 247.033422 
L 162.905069 247.033422 
L 163.081799 247.232146 
L 163.081799 247.232146 
L 163.25853 247.007681 
L 163.25853 247.007681 
L 163.435261 247.492962 
L 163.435261 247.492962 
L 163.611992 246.975965 
L 163.611992 246.975965 
L 163.788723 247.477997 
L 163.788723 247.477997 
L 163.965454 246.883555 
L 163.965454 246.883555 
L 164.142184 247.146325 
L 164.142184 247.146325 
L 164.318915 247.03895 
L 164.318915 247.03895 
L 164.495646 247.452535 
L 164.495646 247.452535 
L 164.672377 246.254382 
L 164.672377 246.254382 
L 164.849108 247.316516 
L 164.849108 247.316516 
L 165.025839 246.582704 
L 165.025839 246.582704 
L 165.556031 245.868547 
L 165.556031 245.868547 
L 166.262954 243.340577 
L 166.262954 243.340577 
L 166.793147 241.792324 
L 166.793147 241.792324 
L 166.969878 240.043896 
L 166.969878 240.043896 
L 167.146609 240.134799 
L 167.146609 240.134799 
L 167.323339 237.98183 
L 167.323339 237.98183 
L 167.50007 238.279498 
L 167.50007 238.279498 
L 167.676801 235.309074 
L 167.676801 235.309074 
L 167.853532 236.13457 
L 167.853532 236.13457 
L 168.030263 232.809133 
L 168.206994 234.285635 
L 168.206994 234.285635 
L 168.383724 230.110859 
L 168.383724 230.110859 
L 168.560455 231.203871 
L 168.560455 231.203871 
L 168.737186 227.250713 
L 168.737186 227.250713 
L 168.913917 229.003944 
L 168.913917 229.003944 
L 170.504494 215.247906 
L 170.504494 215.247906 
L 171.034687 209.334529 
L 171.034687 209.334529 
L 171.211418 208.319019 
L 171.211418 208.319019 
L 171.74161 202.259237 
L 171.74161 202.259237 
L 171.918341 200.973699 
L 171.918341 200.973699 
L 172.448534 194.99181 
L 172.448534 194.99181 
L 172.625265 189.490176 
L 172.625265 189.490176 
L 172.801995 191.073159 
L 172.801995 191.073159 
L 172.978726 185.91029 
L 172.978726 185.91029 
L 173.155457 187.09856 
L 173.155457 187.09856 
L 173.332188 182.374347 
L 173.332188 182.374347 
L 173.508919 182.998159 
L 173.68565 178.917469 
L 173.68565 178.917469 
L 173.86238 179.109382 
L 173.86238 179.109382 
L 174.039111 175.426699 
L 174.039111 175.426699 
L 174.215842 174.988098 
L 174.215842 174.988098 
L 174.392573 171.936096 
L 174.392573 171.936096 
L 174.569304 170.826556 
L 174.569304 170.826556 
L 174.746035 168.450909 
L 174.746035 168.450909 
L 174.922765 163.217684 
L 174.922765 163.217684 
L 175.099496 165.117208 
L 175.099496 165.117208 
L 175.276227 160.65677 
L 175.276227 160.65677 
L 175.452958 160.881849 
L 175.80642 156.757048 
L 175.80642 156.757048 
L 175.98315 155.251734 
L 175.98315 155.251734 
L 176.159881 150.542262 
L 176.159881 150.542262 
L 176.336612 151.65398 
L 176.336612 151.65398 
L 176.513343 148.652622 
L 176.513343 148.652622 
L 176.690074 148.461994 
L 176.690074 148.461994 
L 176.866805 146.662865 
L 176.866805 146.662865 
L 177.043535 141.614685 
L 177.043535 141.614685 
L 177.220266 142.922782 
L 177.220266 142.922782 
L 177.396997 139.897861 
L 177.396997 139.897861 
L 177.573728 139.707456 
L 177.573728 139.707456 
L 177.750459 138.121458 
L 177.750459 138.121458 
L 177.92719 133.143744 
L 177.92719 133.143744 
L 178.10392 134.272604 
L 178.10392 134.272604 
L 178.457382 130.005473 
L 178.457382 130.005473 
L 178.634113 128.138112 
L 178.634113 128.138112 
L 178.810844 123.297758 
L 178.810844 123.297758 
L 178.987575 123.108749 
L 178.987575 123.108749 
L 179.164305 120.800776 
L 179.164305 120.800776 
L 179.341036 114.125111 
L 179.341036 114.125111 
L 179.517767 114.524347 
L 179.517767 114.524347 
L 179.694498 110.569402 
L 179.694498 110.569402 
L 179.871229 103.128209 
L 179.871229 103.128209 
L 180.04796 104.072639 
L 180.04796 104.072639 
L 180.22469 98.635944 
L 180.22469 98.635944 
L 180.401421 89.326608 
L 180.401421 89.326608 
L 180.578152 90.653913 
L 180.578152 90.653913 
L 181.461806 55.895125 
L 181.638537 55.944205 
L 181.815268 56.400786 
L 181.815268 56.400786 
L 182.16873 75.644052 
L 182.16873 75.644052 
L 182.34546 75.418916 
L 182.34546 75.418916 
L 182.698922 90.71578 
L 182.698922 90.71578 
L 182.875653 101.391339 
L 182.875653 101.391339 
L 183.052384 100.197206 
L 183.052384 100.197206 
L 183.229115 105.717043 
L 183.229115 105.717043 
L 183.405845 115.689444 
L 183.405845 115.689444 
L 183.582576 117.250037 
L 183.582576 117.250037 
L 183.936038 130.565017 
L 183.936038 130.565017 
L 184.112769 142.032124 
L 184.112769 142.032124 
L 184.2895 139.54832 
L 184.2895 139.54832 
L 184.642961 158.460192 
L 184.642961 158.460192 
L 184.819692 155.451576 
L 184.819692 155.451576 
L 184.996423 164.383731 
L 184.996423 164.383731 
L 185.173154 166.085703 
L 185.173154 166.085703 
L 185.349885 171.821741 
L 185.349885 171.821741 
L 185.526616 181.60452 
L 185.526616 181.60452 
L 185.703346 181.093387 
L 185.703346 181.093387 
L 185.880077 188.59198 
L 185.880077 188.59198 
L 186.233539 195.573968 
L 186.233539 195.573968 
L 186.41027 206.33747 
L 186.41027 206.33747 
L 186.587001 203.906824 
L 186.587001 203.906824 
L 186.763731 212.618479 
L 186.763731 212.618479 
L 186.940462 211.817104 
L 186.940462 211.817104 
L 187.117193 218.940137 
L 187.117193 218.940137 
L 187.293924 219.19615 
L 187.293924 219.19615 
L 187.470655 225.463757 
L 187.470655 225.463757 
L 187.647386 226.096616 
L 187.647386 226.096616 
L 187.824116 231.417504 
L 187.824116 231.417504 
L 188.000847 232.248417 
L 188.177578 237.441773 
L 188.177578 237.441773 
L 188.354309 238.033368 
L 188.354309 238.033368 
L 188.53104 243.399652 
L 188.707771 243.557671 
L 188.707771 243.557671 
L 188.884501 248.148992 
L 188.884501 248.148992 
L 189.061232 247.808051 
L 189.061232 247.808051 
L 189.237963 253.025641 
L 189.237963 253.025641 
L 189.414694 252.196124 
L 189.414694 252.196124 
L 189.591425 257.554033 
L 189.591425 257.554033 
L 189.768156 256.310316 
L 189.768156 256.310316 
L 191.182002 268.368124 
L 191.182002 268.368124 
L 191.358733 268.323677 
L 191.358733 268.323677 
L 191.535464 268.681984 
L 191.535464 268.681984 
L 191.888926 270.670512 
L 191.888926 270.670512 
L 192.595849 272.707675 
L 192.595849 272.707675 
L 192.77258 272.883003 
L 192.77258 272.883003 
L 192.949311 273.427136 
L 192.949311 273.427136 
L 193.126041 273.370182 
L 193.126041 273.370182 
L 193.302772 273.626307 
L 193.302772 273.626307 
L 193.479503 274.151009 
L 193.479503 274.151009 
L 193.656234 273.920178 
L 193.656234 273.920178 
L 193.832965 274.37285 
L 193.832965 274.37285 
L 194.009696 274.242414 
L 194.009696 274.242414 
L 194.363157 274.687101 
L 194.363157 274.687101 
L 194.539888 274.156816 
L 194.539888 274.156816 
L 194.716619 274.669289 
L 194.716619 274.669289 
L 194.89335 274.169491 
L 194.89335 274.169491 
L 195.070081 274.62367 
L 195.070081 274.62367 
L 195.246812 274.759522 
L 195.246812 274.759522 
L 195.423542 274.559904 
L 195.423542 274.559904 
L 195.600273 274.709548 
L 195.600273 274.709548 
L 195.777004 274.035538 
L 195.777004 274.035538 
L 195.953735 274.608985 
L 195.953735 274.608985 
L 196.130466 274.038441 
L 196.130466 274.038441 
L 196.483927 274.438961 
L 196.483927 274.438961 
L 196.660658 273.753281 
L 196.660658 273.753281 
L 196.837389 274.017726 
L 197.01412 272.041984 
L 197.01412 272.041984 
L 197.190851 273.279335 
L 197.190851 273.279335 
L 197.544312 271.94399 
L 197.544312 271.94399 
L 197.721043 272.156506 
L 197.721043 272.156506 
L 197.897774 269.661535 
L 197.897774 269.661535 
L 198.074505 270.828252 
L 198.074505 270.828252 
L 198.604697 268.071405 
L 198.604697 268.071405 
L 198.781428 265.444993 
L 198.781428 265.444993 
L 198.958159 266.449615 
L 198.958159 266.449615 
L 199.13489 262.066065 
L 199.13489 262.066065 
L 199.311621 263.749219 
L 199.488352 262.6767 
L 199.488352 262.6767 
L 199.665082 259.561601 
L 199.665082 259.561601 
L 199.841813 259.215579 
L 199.841813 259.215579 
L 200.018544 255.208203 
L 200.018544 255.208203 
L 200.195275 256.456051 
L 200.195275 256.456051 
L 200.372006 250.205865 
L 200.372006 250.205865 
L 200.548737 252.759242 
L 200.548737 252.759242 
L 200.725467 250.680481 
L 200.725467 250.680481 
L 200.902198 247.019016 
L 200.902198 247.019016 
L 201.078929 246.463548 
L 201.078929 246.463548 
L 201.25566 241.103406 
L 201.25566 241.103406 
L 201.432391 241.696731 
L 201.432391 241.696731 
L 201.609122 235.053005 
L 201.609122 235.053005 
L 201.785852 236.858722 
L 201.785852 236.858722 
L 201.962583 228.531729 
L 201.962583 228.531729 
L 202.139314 231.631696 
L 202.139314 231.631696 
L 202.316045 229.041131 
L 202.316045 229.041131 
L 202.492776 224.511455 
L 202.492776 224.511455 
L 202.669507 223.215419 
L 202.669507 223.215419 
L 202.846237 217.277809 
L 202.846237 217.277809 
L 203.022968 216.901467 
L 203.022968 216.901467 
L 203.199699 209.549558 
L 203.37643 210.039696 
L 203.37643 210.039696 
L 203.553161 201.267737 
L 203.553161 201.267737 
L 203.729892 202.968313 
L 203.729892 202.968313 
L 203.906622 192.832308 
L 203.906622 192.832308 
L 204.083353 194.584087 
L 204.083353 194.584087 
L 204.260084 183.854924 
L 204.260084 183.854924 
L 204.436815 185.679403 
L 204.436815 185.679403 
L 204.613546 174.923383 
L 204.613546 174.923383 
L 204.790277 176.043588 
L 204.790277 176.043588 
L 204.967007 165.735046 
L 204.967007 165.735046 
L 205.143738 166.521903 
L 205.143738 166.521903 
L 205.320469 156.326376 
L 205.320469 156.326376 
L 205.4972 156.036414 
L 205.4972 156.036414 
L 205.673931 147.08572 
L 205.673931 147.08572 
L 205.850662 144.970665 
L 205.850662 144.970665 
L 206.027392 138.707915 
L 206.027392 138.707915 
L 206.204123 125.186951 
L 206.204123 125.186951 
L 206.380854 128.445551 
L 206.380854 128.445551 
L 206.557585 116.753086 
L 206.557585 116.753086 
L 206.734316 116.895415 
L 206.734316 116.895415 
L 207.087778 106.11371 
L 207.087778 106.11371 
L 207.264508 100.554452 
L 207.264508 100.554452 
L 207.441239 90.685517 
L 207.441239 90.685517 
L 207.61797 89.199244 
L 207.61797 89.199244 
L 207.794701 84.306179 
L 207.794701 84.306179 
L 207.971432 73.637209 
L 207.971432 73.637209 
L 208.148163 73.433068 
L 208.148163 73.433068 
L 208.324893 67.896983 
L 208.324893 67.896983 
L 208.501624 58.672129 
L 208.501624 58.672129 
L 208.678355 58.097732 
L 208.678355 58.097732 
L 208.855086 53.783308 
L 208.855086 53.783308 
L 209.031817 53.568 
L 209.031817 53.568 
L 214.687203 53.568 
L 214.687203 53.568 
L 214.863934 53.889399 
L 214.863934 53.889399 
L 215.217396 61.980982 
L 215.217396 61.980982 
L 215.394127 67.177968 
L 215.394127 67.177968 
L 215.570858 68.378523 
L 215.570858 68.378523 
L 216.10105 82.536979 
L 216.10105 82.536979 
L 216.277781 88.000811 
L 216.277781 88.000811 
L 216.454512 88.383575 
L 216.454512 88.383575 
L 216.631243 91.67791 
L 216.631243 91.67791 
L 216.984704 104.39186 
L 216.984704 104.39186 
L 217.161435 103.664358 
L 217.161435 103.664358 
L 217.338166 107.419908 
L 217.338166 107.419908 
L 217.514897 114.29346 
L 217.514897 114.29346 
L 217.691628 115.300818 
L 217.691628 115.300818 
L 218.045089 124.437059 
L 218.045089 124.437059 
L 218.22182 132.220924 
L 218.22182 132.220924 
L 218.398551 130.232228 
L 218.398551 130.232228 
L 218.752013 142.344197 
L 218.752013 142.344197 
L 218.928744 141.108521 
L 218.928744 141.108521 
L 219.282205 153.17744 
L 219.282205 153.17744 
L 219.458936 151.956841 
L 219.458936 151.956841 
L 219.635667 157.094528 
L 219.635667 157.094528 
L 219.812398 158.375264 
L 219.812398 158.375264 
L 219.989129 160.952148 
L 219.989129 160.952148 
L 220.165859 167.16967 
L 220.165859 167.16967 
L 220.34259 167.25309 
L 220.34259 167.25309 
L 220.519321 170.892332 
L 220.519321 170.892332 
L 220.696052 176.998403 
L 220.696052 176.998403 
L 220.872783 175.668529 
L 220.872783 175.668529 
L 221.049514 179.698575 
L 221.049514 179.698575 
L 221.226244 180.069836 
L 221.226244 180.069836 
L 221.402975 183.624764 
L 221.402975 183.624764 
L 221.579706 184.603812 
L 221.579706 184.603812 
L 221.756437 186.808151 
L 221.756437 186.808151 
L 221.933168 191.19924 
L 221.933168 191.19924 
L 222.109899 190.581737 
L 222.109899 190.581737 
L 222.286629 193.707332 
L 222.286629 193.707332 
L 222.46336 193.936879 
L 222.46336 193.936879 
L 222.640091 195.979234 
L 222.640091 195.979234 
L 222.816822 196.408342 
L 222.816822 196.408342 
L 223.170284 200.639123 
L 223.170284 200.639123 
L 223.347014 200.090076 
L 223.347014 200.090076 
L 223.523745 202.019584 
L 223.523745 202.019584 
L 223.700476 201.882113 
L 223.700476 201.882113 
L 223.877207 203.104947 
L 223.877207 203.104947 
L 224.053938 203.270615 
L 224.053938 203.270615 
L 224.407399 204.277638 
L 224.407399 204.277638 
L 225.114323 205.316377 
L 225.114323 205.316377 
L 225.467784 205.082866 
L 225.467784 205.082866 
L 225.644515 205.290636 
L 225.644515 205.290636 
L 225.821246 205.110114 
L 225.821246 205.110114 
L 225.997977 205.325869 
L 225.997977 205.325869 
L 226.174708 205.138144 
L 226.174708 205.138144 
L 226.351439 205.355463 
L 226.351439 205.355463 
L 226.528169 205.115754 
L 226.7049 205.329275 
L 226.7049 205.329275 
L 226.881631 204.982861 
L 226.881631 204.982861 
L 227.058362 205.158637 
L 227.058362 205.158637 
L 227.235093 204.686422 
L 227.235093 204.686422 
L 227.411824 204.752477 
L 227.411824 204.752477 
L 227.588554 204.048092 
L 227.588554 204.048092 
L 227.765285 202.590519 
L 227.765285 202.590519 
L 227.942016 203.242473 
L 227.942016 203.242473 
L 228.118747 201.283148 
L 228.118747 201.283148 
L 228.295478 201.891438 
L 228.295478 201.891438 
L 228.472209 199.565486 
L 228.472209 199.565486 
L 228.648939 200.027092 
L 228.648939 200.027092 
L 228.82567 197.37734 
L 228.82567 197.37734 
L 229.002401 197.5544 
L 229.002401 197.5544 
L 229.179132 194.650477 
L 229.179132 194.650477 
L 229.355863 194.395023 
L 229.355863 194.395023 
L 229.532594 191.285787 
L 229.532594 191.285787 
L 229.709324 190.292612 
L 229.886055 187.423309 
L 229.886055 187.423309 
L 230.062786 179.293198 
L 230.062786 179.293198 
L 230.239517 182.093318 
L 230.239517 182.093318 
L 230.416248 173.659453 
L 230.416248 173.659453 
L 230.592979 176.056318 
L 230.592979 176.056318 
L 230.76971 167.924085 
L 230.76971 167.924085 
L 230.94644 168.284905 
L 230.94644 168.284905 
L 231.123171 161.266846 
L 231.299902 159.008681 
L 231.299902 159.008681 
L 231.476633 153.212395 
L 231.476633 153.212395 
L 231.653364 139.769491 
L 231.653364 139.769491 
L 231.830095 143.871902 
L 231.830095 143.871902 
L 232.006825 131.024613 
L 232.006825 131.024613 
L 232.183556 132.111259 
L 232.183556 132.111259 
L 232.360287 121.464903 
L 232.360287 121.464903 
L 232.537018 118.452992 
L 232.537018 118.452992 
L 232.713749 111.334147 
L 232.713749 111.334147 
L 232.89048 98.12844 
L 232.89048 98.12844 
L 233.06721 98.007162 
L 233.06721 98.007162 
L 233.420672 79.079655 
L 233.597403 80.192713 
L 233.950865 65.176709 
L 233.950865 65.176709 
L 234.127595 65.8931 
L 234.127595 65.8931 
L 234.657788 54.254238 
L 234.657788 54.254238 
L 234.834519 53.568 
L 234.834519 53.568 
L 241.020098 53.568 
L 241.020098 53.568 
L 241.196829 54.742088 
L 241.196829 54.742088 
L 241.55029 62.698378 
L 241.55029 62.698378 
L 241.727021 63.105319 
L 241.727021 63.105319 
L 242.080483 68.288401 
L 242.080483 68.288401 
L 242.433945 77.002904 
L 242.433945 77.002904 
L 242.610676 76.342295 
L 242.610676 76.342295 
L 243.671061 93.950705 
L 243.671061 93.950705 
L 243.847791 98.496742 
L 243.847791 98.496742 
L 244.024522 98.057583 
L 244.024522 98.057583 
L 244.201253 100.648984 
L 244.201253 100.648984 
L 244.377984 104.894059 
L 244.377984 104.894059 
L 244.554715 105.819001 
L 244.554715 105.819001 
L 245.6151 123.598887 
L 245.6151 123.598887 
L 245.791831 123.834911 
L 245.791831 123.834911 
L 245.968561 125.864758 
L 245.968561 125.864758 
L 246.145292 129.583512 
L 246.145292 129.583512 
L 246.322023 130.078453 
L 246.498754 131.765404 
L 246.498754 131.765404 
L 246.675485 134.743422 
L 246.675485 134.743422 
L 246.852216 135.262373 
L 246.852216 135.262373 
L 247.205677 138.956223 
L 247.205677 138.956223 
L 247.382408 139.336474 
L 247.382408 139.336474 
L 247.73587 142.112306 
L 247.73587 142.112306 
L 247.912601 142.343862 
L 248.619524 144.817783 
L 248.619524 144.817783 
L 249.149716 146.058652 
L 249.149716 146.058652 
L 249.679909 145.782816 
L 249.679909 145.782816 
L 250.033371 146.231133 
L 250.033371 146.231133 
L 250.210101 145.746522 
L 250.210101 145.746522 
L 250.386832 146.025596 
L 250.386832 146.025596 
L 250.563563 146.612054 
L 250.563563 146.612054 
L 250.740294 145.518818 
L 250.740294 145.518818 
L 250.917025 146.260838 
L 250.917025 146.260838 
L 251.093756 145.865511 
L 251.093756 145.865511 
L 251.270486 144.572546 
L 251.270486 144.572546 
L 251.447217 145.47923 
L 251.447217 145.47923 
L 251.623948 144.123225 
L 251.623948 144.123225 
L 251.800679 144.183305 
L 251.97741 143.79574 
L 251.97741 143.79574 
L 252.154141 141.603797 
L 252.154141 141.603797 
L 252.330871 141.784318 
L 252.330871 141.784318 
L 252.507602 140.581977 
L 252.507602 140.581977 
L 252.684333 137.764714 
L 252.684333 137.764714 
L 252.861064 138.27635 
L 252.861064 138.27635 
L 253.037795 136.259177 
L 253.037795 136.259177 
L 253.214526 132.687443 
L 253.214526 132.687443 
L 253.391256 134.132229 
L 253.391256 134.132229 
L 253.567987 131.232439 
L 253.567987 131.232439 
L 253.744718 130.261933 
L 253.744718 130.261933 
L 253.921449 128.616692 
L 253.921449 128.616692 
L 254.09818 124.395181 
L 254.09818 124.395181 
L 254.274911 124.176578 
L 254.274911 124.176578 
L 254.451642 122.270577 
L 254.451642 122.270577 
L 254.628372 117.268295 
L 254.628372 117.268295 
L 254.805103 117.352665 
L 254.805103 117.352665 
L 254.981834 115.186184 
L 254.981834 115.186184 
L 255.158565 109.579465 
L 255.158565 109.579465 
L 255.335296 109.84793 
L 255.335296 109.84793 
L 255.512027 107.394335 
L 255.512027 107.394335 
L 255.688757 101.438689 
L 255.688757 101.438689 
L 255.865488 101.710728 
L 255.865488 101.710728 
L 256.749142 84.001978 
L 256.749142 84.001978 
L 256.925873 82.955534 
L 256.925873 82.955534 
L 257.279335 74.382802 
L 257.279335 74.382802 
L 257.456066 67.261221 
L 257.456066 67.261221 
L 257.632797 68.748835 
L 257.632797 68.748835 
L 257.809527 64.794225 
L 257.809527 64.794225 
L 257.986258 57.063796 
L 257.986258 57.063796 
L 258.162989 56.586444 
L 258.162989 56.586444 
L 258.33972 53.568 
L 258.33972 53.568 
L 276.189534 53.568 
L 276.189534 53.568 
L 276.366265 57.441534 
L 276.366265 57.441534 
L 276.719727 76.198626 
L 276.719727 76.198626 
L 276.896458 78.223616 
L 276.896458 78.223616 
L 277.249919 91.755915 
L 277.249919 91.755915 
L 277.603381 113.902544 
L 277.603381 113.902544 
L 277.780112 111.144469 
L 277.780112 111.144469 
L 277.956843 118.575499 
L 277.956843 118.575499 
L 278.133574 131.889977 
L 278.133574 131.889977 
L 278.310304 131.901982 
L 278.310304 131.901982 
L 278.487035 138.780783 
L 278.487035 138.780783 
L 278.663766 151.044517 
L 278.663766 151.044517 
L 278.840497 151.86443 
L 278.840497 151.86443 
L 279.017228 158.676952 
L 279.193959 171.450648 
L 279.193959 171.450648 
L 279.370689 170.649887 
L 279.370689 170.649887 
L 279.54742 178.495564 
L 279.54742 178.495564 
L 279.724151 192.606336 
L 279.900882 188.501301 
L 279.900882 188.501301 
L 280.077613 199.807484 
L 280.077613 199.807484 
L 280.254344 199.28859 
L 280.254344 199.28859 
L 280.431074 207.881479 
L 280.431074 207.881479 
L 280.607805 209.381265 
L 280.607805 209.381265 
L 280.961267 218.77525 
L 280.961267 218.77525 
L 281.66819 234.903082 
L 281.66819 234.903082 
L 282.198383 246.483426 
L 282.198383 246.483426 
L 282.375114 248.029668 
L 282.375114 248.029668 
L 282.551844 252.825967 
L 282.551844 252.825967 
L 282.728575 253.948405 
L 282.728575 253.948405 
L 282.905306 259.66557 
L 282.905306 259.66557 
L 283.082037 259.706443 
L 283.082037 259.706443 
L 283.258768 265.172508 
L 283.258768 265.172508 
L 283.435499 264.423955 
L 283.435499 264.423955 
L 283.612229 271.117656 
L 283.78896 269.503907 
L 283.78896 269.503907 
L 283.965691 270.965667 
L 283.965691 270.965667 
L 284.142422 275.07623 
L 284.142422 275.07623 
L 284.319153 275.23626 
L 284.319153 275.23626 
L 284.495884 279.673526 
L 284.495884 279.673526 
L 284.672614 278.772537 
L 284.672614 278.772537 
L 284.849345 280.201242 
L 284.849345 280.201242 
L 285.026076 282.967024 
L 285.026076 282.967024 
L 285.202807 283.691399 
L 285.202807 283.691399 
L 285.379538 286.856025 
L 285.379538 286.856025 
L 285.556269 286.434678 
L 285.556269 286.434678 
L 285.732999 289.60472 
L 285.732999 289.60472 
L 285.90973 289.027364 
L 285.90973 289.027364 
L 286.086461 289.984635 
L 286.086461 289.984635 
L 286.263192 291.740602 
L 286.263192 291.740602 
L 286.439923 291.736135 
L 286.439923 291.736135 
L 286.616654 293.573065 
L 286.616654 293.573065 
L 286.793384 293.12218 
L 286.793384 293.12218 
L 287.146846 294.45116 
L 287.146846 294.45116 
L 287.323577 294.524977 
L 287.323577 294.524977 
L 287.500308 295.033095 
L 287.500308 295.033095 
L 287.677039 294.999257 
L 287.677039 294.999257 
L 287.853769 295.28023 
L 287.853769 295.28023 
L 288.0305 295.220875 
L 288.0305 295.220875 
L 288.207231 295.339864 
L 288.383962 295.173358 
L 288.383962 295.173358 
L 288.737424 295.437802 
L 288.737424 295.437802 
L 288.914155 295.234667 
L 288.914155 295.234667 
L 289.267616 295.488 
L 289.267616 295.488 
L 289.444347 295.231037 
L 289.444347 295.231037 
L 289.621078 295.351422 
L 289.621078 295.351422 
L 289.797809 294.775686 
L 289.797809 294.775686 
L 289.97454 295.007633 
L 289.97454 295.007633 
L 290.328001 294.159132 
L 290.328001 294.159132 
L 290.504732 294.23574 
L 290.504732 294.23574 
L 290.681463 292.536728 
L 290.681463 292.536728 
L 290.858194 293.101409 
L 290.858194 293.101409 
L 291.034925 292.702173 
L 291.034925 292.702173 
L 291.211655 290.947156 
L 291.388386 290.972283 
L 291.388386 290.972283 
L 291.565117 287.863717 
L 291.565117 287.863717 
L 291.741848 288.744493 
L 291.741848 288.744493 
L 291.918579 287.990803 
L 291.918579 287.990803 
L 292.09531 285.438431 
L 292.09531 285.438431 
L 292.27204 285.335021 
L 292.27204 285.335021 
L 292.448771 281.150139 
L 292.448771 281.150139 
L 292.625502 282.333272 
L 292.625502 282.333272 
L 292.802233 280.747218 
L 292.978964 278.140684 
L 292.978964 278.140684 
L 293.155695 277.572653 
L 293.155695 277.572653 
L 293.332425 273.189382 
L 293.332425 273.189382 
L 293.509156 274.172674 
L 293.509156 274.172674 
L 293.685887 272.603594 
L 293.685887 272.603594 
L 293.862618 269.291782 
L 293.862618 269.291782 
L 294.039349 268.583041 
L 294.039349 268.583041 
L 294.21608 262.812831 
L 294.21608 262.812831 
L 294.39281 264.692923 
L 294.39281 264.692923 
L 294.923003 257.909324 
L 294.923003 257.909324 
L 295.099734 251.839157 
L 295.099734 251.839157 
L 295.276465 253.466698 
L 295.276465 253.466698 
L 295.806657 245.061254 
L 295.806657 245.061254 
L 295.983388 239.250618 
L 295.983388 239.250618 
L 296.160119 239.762421 
L 296.160119 239.762421 
L 296.33685 230.63919 
L 296.33685 230.63919 
L 296.51358 233.641833 
L 296.51358 233.641833 
L 297.573965 210.591479 
L 297.573965 210.591479 
L 297.750696 210.967542 
L 297.750696 210.967542 
L 297.927427 202.992379 
L 297.927427 202.992379 
L 298.104158 204.503444 
L 298.104158 204.503444 
L 298.280889 196.416885 
L 298.280889 196.416885 
L 298.45762 198.255323 
L 298.45762 198.255323 
L 298.63435 190.499768 
L 298.63435 190.499768 
L 298.811081 192.396332 
L 298.811081 192.396332 
L 298.987812 185.303117 
L 298.987812 185.303117 
L 299.164543 186.32717 
L 299.164543 186.32717 
L 299.341274 180.792146 
L 299.341274 180.792146 
L 299.518005 181.766448 
L 299.518005 181.766448 
L 299.694735 176.815759 
L 299.694735 176.815759 
L 299.871466 177.252797 
L 299.871466 177.252797 
L 300.048197 173.114204 
L 300.048197 173.114204 
L 300.224928 173.171269 
L 300.224928 173.171269 
L 300.401659 169.739518 
L 300.401659 169.739518 
L 300.57839 169.166797 
L 300.57839 169.166797 
L 300.931851 164.904413 
L 300.931851 164.904413 
L 301.108582 162.493365 
L 301.108582 162.493365 
L 301.285313 156.644648 
L 301.285313 156.644648 
L 301.462044 157.722919 
L 301.462044 157.722919 
L 301.638775 152.562674 
L 301.638775 152.562674 
L 301.815506 152.067231 
L 301.992236 148.054215 
L 301.992236 148.054215 
L 302.168967 138.757164 
L 302.168967 138.757164 
L 302.345698 141.433326 
L 302.345698 141.433326 
L 302.522429 136.389836 
L 302.522429 136.389836 
L 302.69916 136.865736 
L 302.69916 136.865736 
L 302.875891 142.89062 
L 302.875891 142.89062 
L 303.052621 157.033833 
L 303.052621 157.033833 
L 303.229352 152.861291 
L 303.229352 152.861291 
L 303.406083 166.351544 
L 303.406083 166.351544 
L 303.582814 166.576847 
L 303.582814 166.576847 
L 303.936276 187.106321 
L 303.936276 187.106321 
L 304.113006 183.254396 
L 304.113006 183.254396 
L 304.289737 192.834263 
L 304.289737 192.834263 
L 304.466468 192.016584 
L 304.466468 192.016584 
L 304.643199 199.282057 
L 304.643199 199.282057 
L 304.81993 200.633818 
L 304.81993 200.633818 
L 305.526853 219.194196 
L 305.526853 219.194196 
L 305.703584 217.237383 
L 305.703584 217.237383 
L 305.880315 223.424138 
L 305.880315 223.424138 
L 306.057046 222.652357 
L 306.057046 222.652357 
L 306.233776 227.8121 
L 306.233776 227.8121 
L 306.410507 227.530569 
L 306.410507 227.530569 
L 306.587238 231.956556 
L 306.587238 231.956556 
L 306.763969 231.933328 
L 306.763969 231.933328 
L 306.9407 235.870516 
L 306.9407 235.870516 
L 307.117431 236.303422 
L 307.117431 236.303422 
L 307.294161 239.593402 
L 307.294161 239.593402 
L 307.470892 239.313602 
L 307.470892 239.313602 
L 307.647623 243.209694 
L 307.647623 243.209694 
L 307.824354 243.038721 
L 307.824354 243.038721 
L 308.001085 246.530553 
L 308.001085 246.530553 
L 308.177816 246.128693 
L 308.177816 246.128693 
L 308.354546 248.797485 
L 308.354546 248.797485 
L 308.531277 248.545436 
L 308.531277 248.545436 
L 308.708008 251.036666 
L 308.708008 251.036666 
L 308.884739 251.037392 
L 308.884739 251.037392 
L 309.414931 253.488028 
L 309.414931 253.488028 
L 309.591662 254.981895 
L 309.591662 254.981895 
L 309.768393 255.492637 
L 309.768393 255.492637 
L 309.945124 257.028382 
L 309.945124 257.028382 
L 310.121855 257.184279 
L 310.121855 257.184279 
L 310.298586 257.939588 
L 310.298586 257.939588 
L 310.475316 257.953603 
L 310.475316 257.953603 
L 310.652047 259.550211 
L 310.828778 259.464333 
L 310.828778 259.464333 
L 311.18224 259.986354 
L 311.18224 259.986354 
L 311.358971 259.87401 
L 311.535701 260.690628 
L 311.535701 260.690628 
L 311.889163 260.916378 
L 311.889163 260.916378 
L 312.419356 261.624449 
L 312.419356 261.624449 
L 312.596087 261.156422 
L 312.596087 261.156422 
L 312.772817 261.654489 
L 312.772817 261.654489 
L 313.126279 261.596418 
L 313.126279 261.596418 
L 313.30301 261.716468 
L 313.30301 261.716468 
L 313.479741 261.139559 
L 313.479741 261.139559 
L 313.656472 261.707534 
L 313.656472 261.707534 
L 313.833202 261.237832 
L 313.833202 261.237832 
L 314.009933 261.645723 
L 314.009933 261.645723 
L 314.186664 261.540302 
L 314.186664 261.540302 
L 314.540126 260.756851 
L 314.540126 260.756851 
L 314.716857 260.573259 
L 314.716857 260.573259 
L 314.893587 260.788455 
L 314.893587 260.788455 
L 315.070318 259.85698 
L 315.070318 259.85698 
L 315.247049 260.530487 
L 315.247049 260.530487 
L 315.600511 259.531114 
L 315.600511 259.531114 
L 315.953972 257.708032 
L 315.953972 257.708032 
L 316.130703 257.897208 
L 316.130703 257.897208 
L 316.307434 255.004062 
L 316.307434 255.004062 
L 316.484165 256.628476 
L 316.660896 252.659907 
L 316.660896 252.659907 
L 316.837627 254.301966 
L 316.837627 254.301966 
L 317.014357 253.419069 
L 317.191088 251.559916 
L 317.191088 251.559916 
L 317.367819 251.445282 
L 317.367819 251.445282 
L 317.54455 247.728092 
L 317.54455 247.728092 
L 317.721281 248.312037 
L 317.721281 248.312037 
L 317.898012 244.21292 
L 317.898012 244.21292 
L 318.074742 245.865365 
L 318.074742 245.865365 
L 318.781666 237.912481 
L 318.781666 237.912481 
L 318.958397 237.562382 
L 318.958397 237.562382 
L 319.135127 233.220039 
L 319.135127 233.220039 
L 319.311858 233.547189 
L 319.311858 233.547189 
L 319.488589 228.709291 
L 319.488589 228.709291 
L 319.66532 229.72039 
L 319.66532 229.72039 
L 319.842051 224.009702 
L 319.842051 224.009702 
L 320.018782 226.081204 
L 320.018782 226.081204 
L 320.195512 219.236018 
L 320.195512 219.236018 
L 320.372243 221.815359 
L 320.372243 221.815359 
L 322.316282 196.027812 
L 322.316282 196.027812 
L 322.669744 190.958861 
L 322.669744 190.958861 
L 323.199937 182.588538 
L 323.199937 182.588538 
L 323.376667 175.06359 
L 323.376667 175.06359 
L 323.553398 176.990195 
L 323.553398 176.990195 
L 323.730129 170.29789 
L 323.730129 170.29789 
L 323.90686 171.601743 
L 323.90686 171.601743 
L 324.083591 165.133401 
L 324.083591 165.133401 
L 324.260322 165.498297 
L 324.260322 165.498297 
L 324.437053 159.627859 
L 324.437053 159.627859 
L 324.613783 158.643003 
L 324.613783 158.643003 
L 325.143976 148.164549 
L 325.143976 148.164549 
L 325.320707 139.28784 
L 325.320707 139.28784 
L 325.497438 140.095022 
L 325.497438 140.095022 
L 325.674168 133.85282 
L 325.674168 133.85282 
L 325.850899 131.766633 
L 325.850899 131.766633 
L 326.02763 127.268616 
L 326.02763 127.268616 
L 326.204361 117.308666 
L 326.204361 117.308666 
L 326.381092 118.094462 
L 326.381092 118.094462 
L 326.557823 113.16421 
L 326.557823 113.16421 
L 326.734553 113.016465 
L 326.734553 113.016465 
L 326.911284 115.35431 
L 326.911284 115.35431 
L 327.088015 123.952839 
L 327.088015 123.952839 
L 327.264746 125.449051 
L 327.264746 125.449051 
L 327.441477 130.498571 
L 327.441477 130.498571 
L 327.618208 139.763405 
L 327.618208 139.763405 
L 327.794938 140.124559 
L 327.794938 140.124559 
L 327.971669 144.982782 
L 327.971669 144.982782 
L 328.1484 153.831852 
L 328.1484 153.831852 
L 328.325131 153.545128 
L 328.325131 153.545128 
L 328.678593 166.391188 
L 328.678593 166.391188 
L 328.855323 164.280935 
L 328.855323 164.280935 
L 329.032054 170.611918 
L 329.032054 170.611918 
L 329.208785 171.191061 
L 329.208785 171.191061 
L 329.385516 175.136792 
L 329.385516 175.136792 
L 329.562247 181.849813 
L 329.562247 181.849813 
L 329.738978 180.398996 
L 329.738978 180.398996 
L 329.915708 185.514516 
L 329.915708 185.514516 
L 330.092439 185.641545 
L 330.092439 185.641545 
L 330.445901 190.388373 
L 330.445901 190.388373 
L 330.622632 192.372378 
L 330.622632 192.372378 
L 330.799363 196.872628 
L 330.799363 196.872628 
L 330.976093 196.337485 
L 330.976093 196.337485 
L 331.152824 199.960534 
L 331.152824 199.960534 
L 331.329555 199.821499 
L 331.329555 199.821499 
L 331.506286 202.343942 
L 331.506286 202.343942 
L 331.683017 202.809121 
L 331.683017 202.809121 
L 332.036478 205.292032 
L 332.036478 205.292032 
L 332.743402 209.173327 
L 332.743402 209.173327 
L 332.920133 208.976166 
L 332.920133 208.976166 
L 333.096863 209.647049 
L 333.096863 209.647049 
L 333.450325 209.980062 
L 333.450325 209.980062 
L 333.627056 210.170578 
L 333.627056 210.170578 
L 333.803787 210.121777 
L 333.803787 210.121777 
L 333.980518 210.336917 
L 333.980518 210.336917 
L 334.157248 210.165441 
L 334.157248 210.165441 
L 334.333979 210.378348 
L 334.51071 210.188446 
L 334.51071 210.188446 
L 334.687441 210.402693 
L 334.687441 210.402693 
L 334.864172 210.196487 
L 334.864172 210.196487 
L 335.040903 210.683219 
L 335.040903 210.683219 
L 335.217633 210.119041 
L 335.217633 210.119041 
L 335.394364 210.255172 
L 335.394364 210.255172 
L 335.571095 209.850129 
L 335.571095 209.850129 
L 335.747826 208.859522 
L 335.924557 209.288575 
L 335.924557 209.288575 
L 336.101288 207.917438 
L 336.101288 207.917438 
L 336.278019 208.333592 
L 336.278019 208.333592 
L 336.454749 206.559256 
L 336.454749 206.559256 
L 336.63148 206.906842 
L 336.63148 206.906842 
L 336.808211 204.794914 
L 336.808211 204.794914 
L 336.984942 204.913512 
L 336.984942 204.913512 
L 337.161673 202.481804 
L 337.161673 202.481804 
L 337.338404 202.243379 
L 337.338404 202.243379 
L 337.515134 199.419472 
L 337.515134 199.419472 
L 337.691865 198.582194 
L 337.691865 198.582194 
L 338.222058 191.137763 
L 338.222058 191.137763 
L 338.398789 183.015748 
L 338.398789 183.015748 
L 338.575519 185.403735 
L 338.575519 185.403735 
L 338.75225 176.568513 
L 338.75225 176.568513 
L 338.928981 177.995598 
L 338.928981 177.995598 
L 339.105712 168.80151 
L 339.105712 168.80151 
L 339.282443 168.971255 
L 339.282443 168.971255 
L 339.459174 159.473637 
L 339.459174 159.473637 
L 339.635904 158.039795 
L 339.635904 158.039795 
L 339.812635 154.396756 
L 339.812635 154.396756 
L 339.989366 156.320066 
L 339.989366 156.320066 
L 340.166097 161.97045 
L 340.166097 161.97045 
L 340.342828 171.203736 
L 340.342828 171.203736 
L 340.519559 170.811089 
L 340.696289 177.181437 
L 340.696289 177.181437 
L 340.87302 177.78029 
L 340.87302 177.78029 
L 341.226482 184.534407 
L 341.226482 184.534407 
L 341.403213 184.593315 
L 341.403213 184.593315 
L 341.579944 186.461737 
L 342.110136 187.746494 
L 342.110136 187.746494 
L 342.286867 188.185318 
L 342.286867 188.185318 
L 342.463598 187.719692 
L 342.463598 187.719692 
L 342.640329 188.329545 
L 342.640329 188.329545 
L 342.817059 188.172699 
L 342.817059 188.172699 
L 342.99379 188.391078 
L 342.99379 188.391078 
L 343.170521 188.235181 
L 343.170521 188.235181 
L 343.347252 188.401185 
L 343.347252 188.401185 
L 343.523983 187.917691 
L 343.523983 187.917691 
L 343.700714 186.124704 
L 343.700714 186.124704 
L 343.877444 187.195996 
L 343.877444 187.195996 
L 344.054175 185.037778 
L 344.054175 185.037778 
L 344.230906 185.306969 
L 344.230906 185.306969 
L 344.407637 182.657162 
L 344.407637 182.657162 
L 344.584368 181.92631 
L 344.584368 181.92631 
L 344.761099 179.376674 
L 344.761099 179.376674 
L 344.937829 171.346902 
L 344.937829 171.346902 
L 345.11456 174.136358 
L 345.11456 174.136358 
L 345.291291 166.42966 
L 345.291291 166.42966 
L 345.468022 166.712866 
L 345.468022 166.712866 
L 345.644753 159.770634 
L 345.644753 159.770634 
L 345.821484 157.333399 
L 345.821484 157.333399 
L 346.174945 148.800479 
L 346.174945 148.800479 
L 346.351676 146.520927 
L 346.351676 146.520927 
L 346.528407 157.496443 
L 346.528407 157.496443 
L 346.705138 157.66295 
L 346.705138 157.66295 
L 346.881869 164.601496 
L 346.881869 164.601496 
L 347.23533 170.656867 
L 347.23533 170.656867 
L 347.412061 176.226957 
L 347.412061 176.226957 
L 347.588792 176.520046 
L 347.588792 176.520046 
L 347.942254 182.54264 
L 347.942254 182.54264 
L 348.118985 182.680669 
L 348.118985 182.680669 
L 348.295715 184.437529 
L 348.295715 184.437529 
L 348.472446 184.790978 
L 348.472446 184.790978 
L 348.825908 186.072608 
L 348.825908 186.072608 
L 349.17937 186.317845 
L 349.17937 186.317845 
L 349.3561 186.545046 
L 349.709562 186.230962 
L 349.709562 186.230962 
L 349.886293 186.469443 
L 349.886293 186.469443 
L 350.063024 185.845072 
L 350.063024 185.845072 
L 350.239755 186.516067 
L 350.239755 186.516067 
L 350.416485 185.838092 
L 350.416485 185.838092 
L 350.593216 186.516904 
L 350.593216 186.516904 
L 350.946678 185.936477 
L 350.946678 185.936477 
L 351.123409 185.91565 
L 351.123409 185.91565 
L 351.30014 185.570912 
L 351.30014 185.570912 
L 351.47687 185.533891 
L 351.47687 185.533891 
L 351.653601 184.451209 
L 351.653601 184.451209 
L 351.830332 184.884617 
L 351.830332 184.884617 
L 352.007063 183.415933 
L 352.007063 183.415933 
L 352.183794 184.092958 
L 352.183794 184.092958 
L 352.360525 183.145067 
L 352.360525 183.145067 
L 352.537255 183.188341 
L 352.537255 183.188341 
L 352.713986 182.407347 
L 352.713986 182.407347 
L 352.890717 180.389281 
L 352.890717 180.389281 
L 353.067448 181.468668 
L 353.067448 181.468668 
L 353.244179 179.960005 
L 353.244179 179.960005 
L 353.42091 180.363986 
L 353.42091 180.363986 
L 353.59764 179.053991 
L 353.59764 179.053991 
L 353.774371 178.734324 
L 353.774371 178.734324 
L 354.304564 176.915149 
L 354.304564 176.915149 
L 354.481295 174.820196 
L 354.481295 174.820196 
L 354.658025 175.393922 
L 354.658025 175.393922 
L 354.834756 173.13531 
L 354.834756 173.13531 
L 355.011487 173.252568 
L 355.011487 173.252568 
L 355.54168 170.583273 
L 355.54168 170.583273 
L 355.71841 167.623793 
L 355.71841 167.623793 
L 355.895141 168.312377 
L 355.895141 168.312377 
L 356.071872 165.987877 
L 356.071872 165.987877 
L 356.248603 165.863081 
L 356.248603 165.863081 
L 356.425334 164.236042 
L 356.425334 164.236042 
L 356.602065 160.421193 
L 356.602065 160.421193 
L 356.778795 161.796741 
L 356.778795 161.796741 
L 356.955526 158.550425 
L 356.955526 158.550425 
L 357.132257 158.838657 
L 357.132257 158.838657 
L 357.485719 155.635112 
L 357.485719 155.635112 
L 357.66245 154.288767 
L 357.66245 154.288767 
L 357.83918 150.587379 
L 357.83918 150.587379 
L 358.015911 151.080253 
L 358.015911 151.080253 
L 358.369373 147.684015 
L 358.369373 147.684015 
L 358.546104 146.37134 
L 358.546104 146.37134 
L 358.722835 142.734499 
L 358.722835 142.734499 
L 358.899565 143.109278 
L 358.899565 143.109278 
L 359.253027 137.687212 
L 359.253027 137.687212 
L 359.429758 139.171699 
L 359.429758 139.171699 
L 359.606489 136.599449 
L 359.606489 136.599449 
L 359.78322 136.180224 
L 359.78322 136.180224 
L 359.959951 135.182693 
L 359.959951 135.182693 
L 360.136681 132.092387 
L 360.136681 132.092387 
L 360.313412 132.563596 
L 360.313412 132.563596 
L 360.666874 128.873878 
L 360.666874 128.873878 
L 360.843605 129.559167 
L 360.843605 129.559167 
L 361.197066 128.035874 
L 361.197066 128.035874 
L 361.373797 127.586776 
L 361.373797 127.586776 
L 361.550528 125.790886 
L 361.550528 125.790886 
L 361.727259 125.938408 
L 361.727259 125.938408 
L 361.90399 125.160652 
L 361.90399 125.160652 
L 362.080721 123.835804 
L 362.080721 123.835804 
L 362.257451 124.080818 
L 362.257451 124.080818 
L 362.434182 123.75417 
L 362.434182 123.75417 
L 362.610913 121.795068 
L 362.610913 121.795068 
L 362.787644 122.095193 
L 362.787644 122.095193 
L 362.964375 121.584116 
L 362.964375 121.584116 
L 363.141106 119.220976 
L 363.141106 119.220976 
L 363.317836 119.569623 
L 363.317836 119.569623 
L 363.494567 118.722518 
L 363.494567 118.722518 
L 363.671298 115.761474 
L 363.671298 115.761474 
L 363.848029 116.144294 
L 364.02476 114.455946 
L 364.02476 114.455946 
L 364.201491 111.148545 
L 364.201491 111.148545 
L 364.378221 111.512826 
L 364.378221 111.512826 
L 365.615337 93.862762 
L 365.615337 93.862762 
L 365.792068 88.678897 
L 365.792068 88.678897 
L 365.968799 87.782041 
L 365.968799 87.782041 
L 366.322261 78.488731 
L 366.322261 78.488731 
L 366.498991 69.816273 
L 366.498991 69.816273 
L 366.675722 71.031624 
L 366.675722 71.031624 
L 366.852453 66.363751 
L 366.852453 66.363751 
L 367.029184 58.210132 
L 367.029184 58.210132 
L 367.205915 57.092273 
L 367.205915 57.092273 
L 367.382646 53.568 
L 367.382646 53.568 
L 396.719964 53.568 
L 396.719964 53.568 
L 397.073426 53.956962 
L 397.073426 53.956962 
L 397.250157 53.568 
L 397.250157 53.568 
L 398.487273 53.568 
L 398.487273 53.568 
" clip-path="url(#p25bbaba4b7)" style="fill: none; stroke: #ff7f0e; stroke-width: 1.5; stroke-linecap: square"/>
   </g>
   <g id="patch_3">
    <path d="M 57.6 307.584 
L 57.6 41.472 
" style="fill: none; stroke: #000000; stroke-width: 0.8; stroke-linejoin: miter; stroke-linecap: square"/>
   </g>
   <g id="patch_4">
    <path d="M 414.72 307.584 
L 414.72 41.472 
" style="fill: none; stroke: #000000; stroke-width: 0.8; stroke-linejoin: miter; stroke-linecap: square"/>
   </g>
   <g id="patch_5">
    <path d="M 57.6 307.584 
L 414.72 307.584 
" style="fill: none; stroke: #000000; stroke-width: 0.8; stroke-linejoin: miter; stroke-linecap: square"/>
   </g>
   <g id="patch_6">
    <path d="M 57.6 41.472 
L 414.72 41.472 
" style="fill: none; stroke: #000000; stroke-width: 0.8; stroke-linejoin: miter; stroke-linecap: square"/>
   </g>
   <g id="text_16">
    <!-- Actual speed vs Expected speed -->
    <g transform="translate(138.808125 35.472) scale(0.12 -0.12)">
     <defs>
      <path id="DejaVuSans-41" d="M 2188 4044 
L 1331 1722 
L 3047 1722 
L 2188 4044 
z
M 1831 4666 
L 2547 4666 
L 4325 0 
L 3669 0 
L 3244 1197 
L 1141 1197 
L 716 0 
L 50 0 
L 1831 4666 
z
" transform="scale(0.015625)"/>
      <path id="DejaVuSans-75" d="M 544 1381 
L 544 3500 
L 1119 3500 
L 1119 1403 
Q 1119 906 1312 657 
Q 1506 409 1894 409 
Q 2359 409 2629 706 
Q 2900 1003 2900 1516 
L 2900 3500 
L 3475 3500 
L 3475 0 
L 2900 0 
L 2900 538 
Q 2691 219 2414 64 
Q 2138 -91 1772 -91 
Q 1169 -91 856 284 
Q 544 659 544 1381 
z
M 1991 3584 
L 1991 3584 
z
" transform="scale(0.015625)"/>
      <path id="DejaVuSans-61" d="M 2194 1759 
Q 1497 1759 1228 1600 
Q 959 1441 959 1056 
Q 959 750 1161 570 
Q 1363 391 1709 391 
Q 2188 391 2477 730 
Q 2766 1069 2766 1631 
L 2766 1759 
L 2194 1759 
z
M 3341 1997 
L 3341 0 
L 2766 0 
L 2766 531 
Q 2569 213 2275 61 
Q 1981 -91 1556 -91 
Q 1019 -91 701 211 
Q 384 513 384 1019 
Q 384 1609 779 1909 
Q 1175 2209 1959 2209 
L 2766 2209 
L 2766 2266 
Q 2766 2663 2505 2880 
Q 2244 3097 1772 3097 
Q 1472 3097 1187 3025 
Q 903 2953 641 2809 
L 641 3341 
Q 956 3463 1253 3523 
Q 1550 3584 1831 3584 
Q 2591 3584 2966 3190 
Q 3341 2797 3341 1997 
z
" transform="scale(0.015625)"/>
      <path id="DejaVuSans-20" transform="scale(0.015625)"/>
      <path id="DejaVuSans-70" d="M 1159 525 
L 1159 -1331 
L 581 -1331 
L 581 3500 
L 1159 3500 
L 1159 2969 
Q 1341 3281 1617 3432 
Q 1894 3584 2278 3584 
Q 2916 3584 3314 3078 
Q 3713 2572 3713 1747 
Q 3713 922 3314 415 
Q 2916 -91 2278 -91 
Q 1894 -91 1617 61 
Q 1341 213 1159 525 
z
M 3116 1747 
Q 3116 2381 2855 2742 
Q 2594 3103 2138 3103 
Q 1681 3103 1420 2742 
Q 1159 2381 1159 1747 
Q 1159 1113 1420 752 
Q 1681 391 2138 391 
Q 2594 391 2855 752 
Q 3116 1113 3116 1747 
z
" transform="scale(0.015625)"/>
      <path id="DejaVuSans-64" d="M 2906 2969 
L 2906 4863 
L 3481 4863 
L 3481 0 
L 2906 0 
L 2906 525 
Q 2725 213 2448 61 
Q 2172 -91 1784 -91 
Q 1150 -91 751 415 
Q 353 922 353 1747 
Q 353 2572 751 3078 
Q 1150 3584 1784 3584 
Q 2172 3584 2448 3432 
Q 2725 3281 2906 2969 
z
M 947 1747 
Q 947 1113 1208 752 
Q 1469 391 1925 391 
Q 2381 391 2643 752 
Q 2906 1113 2906 1747 
Q 2906 2381 2643 2742 
Q 2381 3103 1925 3103 
Q 1469 3103 1208 2742 
Q 947 2381 947 1747 
z
" transform="scale(0.015625)"/>
      <path id="DejaVuSans-76" d="M 191 3500 
L 800 3500 
L 1894 563 
L 2988 3500 
L 3597 3500 
L 2284 0 
L 1503 0 
L 191 3500 
z
" transform="scale(0.015625)"/>
      <path id="DejaVuSans-45" d="M 628 4666 
L 3578 4666 
L 3578 4134 
L 1259 4134 
L 1259 2753 
L 3481 2753 
L 3481 2222 
L 1259 2222 
L 1259 531 
L 3634 531 
L 3634 0 
L 628 0 
L 628 4666 
z
" transform="scale(0.015625)"/>
      <path id="DejaVuSans-78" d="M 3513 3500 
L 2247 1797 
L 3578 0 
L 2900 0 
L 1881 1375 
L 863 0 
L 184 0 
L 1544 1831 
L 300 3500 
L 978 3500 
L 1906 2253 
L 2834 3500 
L 3513 3500 
z
" transform="scale(0.015625)"/>
     </defs>
     <use xlink:href="#DejaVuSans-41"/>
     <use xlink:href="#DejaVuSans-63" x="66.658203"/>
     <use xlink:href="#DejaVuSans-74" x="121.638672"/>
     <use xlink:href="#DejaVuSans-75" x="160.847656"/>
     <use xlink:href="#DejaVuSans-61" x="224.226562"/>
     <use xlink:href="#DejaVuSans-6c" x="285.505859"/>
     <use xlink:href="#DejaVuSans-20" x="313.289062"/>
     <use xlink:href="#DejaVuSans-73" x="345.076172"/>
     <use xlink:href="#DejaVuSans-70" x="397.175781"/>
     <use xlink:href="#DejaVuSans-65" x="460.652344"/>
     <use xlink:href="#DejaVuSans-65" x="522.175781"/>
     <use xlink:href="#DejaVuSans-64" x="583.699219"/>
     <use xlink:href="#DejaVuSans-20" x="647.175781"/>
     <use xlink:href="#DejaVuSans-76" x="678.962891"/>
     <use xlink:href="#DejaVuSans-73" x="738.142578"/>
     <use xlink:href="#DejaVuSans-20" x="790.242188"/>
     <use xlink:href="#DejaVuSans-45" x="822.029297"/>
     <use xlink:href="#DejaVuSans-78" x="885.212891"/>
     <use xlink:href="#DejaVuSans-70" x="944.392578"/>
     <use xlink:href="#DejaVuSans-65" x="1007.869141"/>
     <use xlink:href="#DejaVuSans-63" x="1069.392578"/>
     <use xlink:href="#DejaVuSans-74" x="1124.373047"/>
     <use xlink:href="#DejaVuSans-65" x="1163.582031"/>
     <use xlink:href="#DejaVuSans-64" x="1225.105469"/>
     <use xlink:href="#DejaVuSans-20" x="1288.582031"/>
     <use xlink:href="#DejaVuSans-73" x="1320.369141"/>
     <use xlink:href="#DejaVuSans-70" x="1372.46875"/>
     <use xlink:href="#DejaVuSans-65" x="1435.945312"/>
     <use xlink:href="#DejaVuSans-65" x="1497.46875"/>
     <use xlink:href="#DejaVuSans-64" x="1558.992188"/>
    </g>
   </g>
   <g id="legend_1">
    <g id="patch_7">
     <path d="M 64.6 302.584 
L 176.65 302.584 
Q 178.65 302.584 178.65 300.584 
L 178.65 272.22775 
Q 178.65 270.22775 176.65 270.22775 
L 64.6 270.22775 
Q 62.6 270.22775 62.6 272.22775 
L 62.6 300.584 
Q 62.6 302.584 64.6 302.584 
z
" style="fill: #ffffff; opacity: 0.8; stroke: #cccccc; stroke-linejoin: miter"/>
    </g>
    <g id="line2d_29">
     <path d="M 66.6 278.326187 
L 76.6 278.326187 
L 86.6 278.326187 
" style="fill: none; stroke: #1f77b4; stroke-width: 1.5; stroke-linecap: square"/>
    </g>
    <g id="text_17">
     <!-- Actual speed -->
     <g transform="translate(94.6 281.826187) scale(0.1 -0.1)">
      <use xlink:href="#DejaVuSans-41"/>
      <use xlink:href="#DejaVuSans-63" x="66.658203"/>
      <use xlink:href="#DejaVuSans-74" x="121.638672"/>
      <use xlink:href="#DejaVuSans-75" x="160.847656"/>
      <use xlink:href="#DejaVuSans-61" x="224.226562"/>
      <use xlink:href="#DejaVuSans-6c" x="285.505859"/>
      <use xlink:href="#DejaVuSans-20" x="313.289062"/>
      <use xlink:href="#DejaVuSans-73" x="345.076172"/>
      <use xlink:href="#DejaVuSans-70" x="397.175781"/>
      <use xlink:href="#DejaVuSans-65" x="460.652344"/>
      <use xlink:href="#DejaVuSans-65" x="522.175781"/>
      <use xlink:href="#DejaVuSans-64" x="583.699219"/>
     </g>
    </g>
    <g id="line2d_30">
     <path d="M 66.6 293.004312 
L 76.6 293.004312 
L 86.6 293.004312 
" style="fill: none; stroke: #ff7f0e; stroke-width: 1.5; stroke-linecap: square"/>
    </g>
    <g id="text_18">
     <!-- Expected speed -->
     <g transform="translate(94.6 296.504312) scale(0.1 -0.1)">
      <use xlink:href="#DejaVuSans-45"/>
      <use xlink:href="#DejaVuSans-78" x="63.183594"/>
      <use xlink:href="#DejaVuSans-70" x="122.363281"/>
      <use xlink:href="#DejaVuSans-65" x="185.839844"/>
      <use xlink:href="#DejaVuSans-63" x="247.363281"/>
      <use xlink:href="#DejaVuSans-74" x="302.34375"/>
      <use xlink:href="#DejaVuSans-65" x="341.552734"/>
      <use xlink:href="#DejaVuSans-64" x="403.076172"/>
      <use xlink:href="#DejaVuSans-20" x="466.552734"/>
      <use xlink:href="#DejaVuSans-73" x="498.339844"/>
      <use xlink:href="#DejaVuSans-70" x="550.439453"/>
      <use xlink:href="#DejaVuSans-65" x="613.916016"/>
      <use xlink:href="#DejaVuSans-65" x="675.439453"/>
      <use xlink:href="#DejaVuSans-64" x="736.962891"/>
     </g>
    </g>
   </g>
  </g>
 </g>
 <defs>
  <clipPath id="p25bbaba4b7">
   <rect x="57.6" y="41.472" width="357.12" height="266.112"/>
  </clipPath>
 </defs>
</svg>
