<?xml version="1.0" encoding="utf-8" standalone="no"?>
<!DOCTYPE svg PUBLIC "-//W3C//DTD SVG 1.1//EN"
  "http://www.w3.org/Graphics/SVG/1.1/DTD/svg11.dtd">
<svg xmlns:xlink="http://www.w3.org/1999/xlink" width="460.8pt" height="345.6pt" viewBox="0 0 460.8 345.6" xmlns="http://www.w3.org/2000/svg" version="1.1">
 <metadata>
  <rdf:RDF xmlns:dc="http://purl.org/dc/elements/1.1/" xmlns:cc="http://creativecommons.org/ns#" xmlns:rdf="http://www.w3.org/1999/02/22-rdf-syntax-ns#">
   <cc:Work>
    <dc:type rdf:resource="http://purl.org/dc/dcmitype/StillImage"/>
    <dc:date>2024-01-30T20:59:00.166680</dc:date>
    <dc:format>image/svg+xml</dc:format>
    <dc:creator>
     <cc:Agent>
      <dc:title>Matplotlib v3.7.1, https://matplotlib.org/</dc:title>
     </cc:Agent>
    </dc:creator>
   </cc:Work>
  </rdf:RDF>
 </metadata>
 <defs>
  <style type="text/css">*{stroke-linejoin: round; stroke-linecap: butt}</style>
 </defs>
 <g id="figure_1">
  <g id="patch_1">
   <path d="M 0 345.6 
L 460.8 345.6 
L 460.8 0 
L 0 0 
z
" style="fill: #ffffff"/>
  </g>
  <g id="axes_1">
   <g id="patch_2">
    <path d="M 57.6 307.584 
L 414.72 307.584 
L 414.72 41.472 
L 57.6 41.472 
z
" style="fill: #ffffff"/>
   </g>
   <g id="matplotlib.axis_1">
    <g id="xtick_1">
     <g id="line2d_1">
      <path d="M 73.832727 307.584 
L 73.832727 41.472 
" clip-path="url(#p26c5713a65)" style="fill: none; stroke: #b0b0b0; stroke-width: 0.8; stroke-linecap: square"/>
     </g>
     <g id="line2d_2">
      <defs>
       <path id="mf2fe77feae" d="M 0 0 
L 0 3.5 
" style="stroke: #000000; stroke-width: 0.8"/>
      </defs>
      <g>
       <use xlink:href="#mf2fe77feae" x="73.832727" y="307.584" style="stroke: #000000; stroke-width: 0.8"/>
      </g>
     </g>
     <g id="text_1">
      <!-- 0 -->
      <g transform="translate(70.651477 322.182437) scale(0.1 -0.1)">
       <defs>
        <path id="DejaVuSans-30" d="M 2034 4250 
Q 1547 4250 1301 3770 
Q 1056 3291 1056 2328 
Q 1056 1369 1301 889 
Q 1547 409 2034 409 
Q 2525 409 2770 889 
Q 3016 1369 3016 2328 
Q 3016 3291 2770 3770 
Q 2525 4250 2034 4250 
z
M 2034 4750 
Q 2819 4750 3233 4129 
Q 3647 3509 3647 2328 
Q 3647 1150 3233 529 
Q 2819 -91 2034 -91 
Q 1250 -91 836 529 
Q 422 1150 422 2328 
Q 422 3509 836 4129 
Q 1250 4750 2034 4750 
z
" transform="scale(0.015625)"/>
       </defs>
       <use xlink:href="#DejaVuSans-30"/>
      </g>
     </g>
    </g>
    <g id="xtick_2">
     <g id="line2d_3">
      <path d="M 117.991398 307.584 
L 117.991398 41.472 
" clip-path="url(#p26c5713a65)" style="fill: none; stroke: #b0b0b0; stroke-width: 0.8; stroke-linecap: square"/>
     </g>
     <g id="line2d_4">
      <g>
       <use xlink:href="#mf2fe77feae" x="117.991398" y="307.584" style="stroke: #000000; stroke-width: 0.8"/>
      </g>
     </g>
     <g id="text_2">
      <!-- 5 -->
      <g transform="translate(114.810148 322.182437) scale(0.1 -0.1)">
       <defs>
        <path id="DejaVuSans-35" d="M 691 4666 
L 3169 4666 
L 3169 4134 
L 1269 4134 
L 1269 2991 
Q 1406 3038 1543 3061 
Q 1681 3084 1819 3084 
Q 2600 3084 3056 2656 
Q 3513 2228 3513 1497 
Q 3513 744 3044 326 
Q 2575 -91 1722 -91 
Q 1428 -91 1123 -41 
Q 819 9 494 109 
L 494 744 
Q 775 591 1075 516 
Q 1375 441 1709 441 
Q 2250 441 2565 725 
Q 2881 1009 2881 1497 
Q 2881 1984 2565 2268 
Q 2250 2553 1709 2553 
Q 1456 2553 1204 2497 
Q 953 2441 691 2322 
L 691 4666 
z
" transform="scale(0.015625)"/>
       </defs>
       <use xlink:href="#DejaVuSans-35"/>
      </g>
     </g>
    </g>
    <g id="xtick_3">
     <g id="line2d_5">
      <path d="M 162.150068 307.584 
L 162.150068 41.472 
" clip-path="url(#p26c5713a65)" style="fill: none; stroke: #b0b0b0; stroke-width: 0.8; stroke-linecap: square"/>
     </g>
     <g id="line2d_6">
      <g>
       <use xlink:href="#mf2fe77feae" x="162.150068" y="307.584" style="stroke: #000000; stroke-width: 0.8"/>
      </g>
     </g>
     <g id="text_3">
      <!-- 10 -->
      <g transform="translate(155.787568 322.182437) scale(0.1 -0.1)">
       <defs>
        <path id="DejaVuSans-31" d="M 794 531 
L 1825 531 
L 1825 4091 
L 703 3866 
L 703 4441 
L 1819 4666 
L 2450 4666 
L 2450 531 
L 3481 531 
L 3481 0 
L 794 0 
L 794 531 
z
" transform="scale(0.015625)"/>
       </defs>
       <use xlink:href="#DejaVuSans-31"/>
       <use xlink:href="#DejaVuSans-30" x="63.623047"/>
      </g>
     </g>
    </g>
    <g id="xtick_4">
     <g id="line2d_7">
      <path d="M 206.308739 307.584 
L 206.308739 41.472 
" clip-path="url(#p26c5713a65)" style="fill: none; stroke: #b0b0b0; stroke-width: 0.8; stroke-linecap: square"/>
     </g>
     <g id="line2d_8">
      <g>
       <use xlink:href="#mf2fe77feae" x="206.308739" y="307.584" style="stroke: #000000; stroke-width: 0.8"/>
      </g>
     </g>
     <g id="text_4">
      <!-- 15 -->
      <g transform="translate(199.946239 322.182437) scale(0.1 -0.1)">
       <use xlink:href="#DejaVuSans-31"/>
       <use xlink:href="#DejaVuSans-35" x="63.623047"/>
      </g>
     </g>
    </g>
    <g id="xtick_5">
     <g id="line2d_9">
      <path d="M 250.467409 307.584 
L 250.467409 41.472 
" clip-path="url(#p26c5713a65)" style="fill: none; stroke: #b0b0b0; stroke-width: 0.8; stroke-linecap: square"/>
     </g>
     <g id="line2d_10">
      <g>
       <use xlink:href="#mf2fe77feae" x="250.467409" y="307.584" style="stroke: #000000; stroke-width: 0.8"/>
      </g>
     </g>
     <g id="text_5">
      <!-- 20 -->
      <g transform="translate(244.104909 322.182437) scale(0.1 -0.1)">
       <defs>
        <path id="DejaVuSans-32" d="M 1228 531 
L 3431 531 
L 3431 0 
L 469 0 
L 469 531 
Q 828 903 1448 1529 
Q 2069 2156 2228 2338 
Q 2531 2678 2651 2914 
Q 2772 3150 2772 3378 
Q 2772 3750 2511 3984 
Q 2250 4219 1831 4219 
Q 1534 4219 1204 4116 
Q 875 4013 500 3803 
L 500 4441 
Q 881 4594 1212 4672 
Q 1544 4750 1819 4750 
Q 2544 4750 2975 4387 
Q 3406 4025 3406 3419 
Q 3406 3131 3298 2873 
Q 3191 2616 2906 2266 
Q 2828 2175 2409 1742 
Q 1991 1309 1228 531 
z
" transform="scale(0.015625)"/>
       </defs>
       <use xlink:href="#DejaVuSans-32"/>
       <use xlink:href="#DejaVuSans-30" x="63.623047"/>
      </g>
     </g>
    </g>
    <g id="xtick_6">
     <g id="line2d_11">
      <path d="M 294.62608 307.584 
L 294.62608 41.472 
" clip-path="url(#p26c5713a65)" style="fill: none; stroke: #b0b0b0; stroke-width: 0.8; stroke-linecap: square"/>
     </g>
     <g id="line2d_12">
      <g>
       <use xlink:href="#mf2fe77feae" x="294.62608" y="307.584" style="stroke: #000000; stroke-width: 0.8"/>
      </g>
     </g>
     <g id="text_6">
      <!-- 25 -->
      <g transform="translate(288.26358 322.182437) scale(0.1 -0.1)">
       <use xlink:href="#DejaVuSans-32"/>
       <use xlink:href="#DejaVuSans-35" x="63.623047"/>
      </g>
     </g>
    </g>
    <g id="xtick_7">
     <g id="line2d_13">
      <path d="M 338.78475 307.584 
L 338.78475 41.472 
" clip-path="url(#p26c5713a65)" style="fill: none; stroke: #b0b0b0; stroke-width: 0.8; stroke-linecap: square"/>
     </g>
     <g id="line2d_14">
      <g>
       <use xlink:href="#mf2fe77feae" x="338.78475" y="307.584" style="stroke: #000000; stroke-width: 0.8"/>
      </g>
     </g>
     <g id="text_7">
      <!-- 30 -->
      <g transform="translate(332.42225 322.182437) scale(0.1 -0.1)">
       <defs>
        <path id="DejaVuSans-33" d="M 2597 2516 
Q 3050 2419 3304 2112 
Q 3559 1806 3559 1356 
Q 3559 666 3084 287 
Q 2609 -91 1734 -91 
Q 1441 -91 1130 -33 
Q 819 25 488 141 
L 488 750 
Q 750 597 1062 519 
Q 1375 441 1716 441 
Q 2309 441 2620 675 
Q 2931 909 2931 1356 
Q 2931 1769 2642 2001 
Q 2353 2234 1838 2234 
L 1294 2234 
L 1294 2753 
L 1863 2753 
Q 2328 2753 2575 2939 
Q 2822 3125 2822 3475 
Q 2822 3834 2567 4026 
Q 2313 4219 1838 4219 
Q 1578 4219 1281 4162 
Q 984 4106 628 3988 
L 628 4550 
Q 988 4650 1302 4700 
Q 1616 4750 1894 4750 
Q 2613 4750 3031 4423 
Q 3450 4097 3450 3541 
Q 3450 3153 3228 2886 
Q 3006 2619 2597 2516 
z
" transform="scale(0.015625)"/>
       </defs>
       <use xlink:href="#DejaVuSans-33"/>
       <use xlink:href="#DejaVuSans-30" x="63.623047"/>
      </g>
     </g>
    </g>
    <g id="xtick_8">
     <g id="line2d_15">
      <path d="M 382.943421 307.584 
L 382.943421 41.472 
" clip-path="url(#p26c5713a65)" style="fill: none; stroke: #b0b0b0; stroke-width: 0.8; stroke-linecap: square"/>
     </g>
     <g id="line2d_16">
      <g>
       <use xlink:href="#mf2fe77feae" x="382.943421" y="307.584" style="stroke: #000000; stroke-width: 0.8"/>
      </g>
     </g>
     <g id="text_8">
      <!-- 35 -->
      <g transform="translate(376.580921 322.182437) scale(0.1 -0.1)">
       <use xlink:href="#DejaVuSans-33"/>
       <use xlink:href="#DejaVuSans-35" x="63.623047"/>
      </g>
     </g>
    </g>
    <g id="text_9">
     <!-- Time(s) -->
     <g transform="translate(217.420156 335.860562) scale(0.1 -0.1)">
      <defs>
       <path id="DejaVuSans-54" d="M -19 4666 
L 3928 4666 
L 3928 4134 
L 2272 4134 
L 2272 0 
L 1638 0 
L 1638 4134 
L -19 4134 
L -19 4666 
z
" transform="scale(0.015625)"/>
       <path id="DejaVuSans-69" d="M 603 3500 
L 1178 3500 
L 1178 0 
L 603 0 
L 603 3500 
z
M 603 4863 
L 1178 4863 
L 1178 4134 
L 603 4134 
L 603 4863 
z
" transform="scale(0.015625)"/>
       <path id="DejaVuSans-6d" d="M 3328 2828 
Q 3544 3216 3844 3400 
Q 4144 3584 4550 3584 
Q 5097 3584 5394 3201 
Q 5691 2819 5691 2113 
L 5691 0 
L 5113 0 
L 5113 2094 
Q 5113 2597 4934 2840 
Q 4756 3084 4391 3084 
Q 3944 3084 3684 2787 
Q 3425 2491 3425 1978 
L 3425 0 
L 2847 0 
L 2847 2094 
Q 2847 2600 2669 2842 
Q 2491 3084 2119 3084 
Q 1678 3084 1418 2786 
Q 1159 2488 1159 1978 
L 1159 0 
L 581 0 
L 581 3500 
L 1159 3500 
L 1159 2956 
Q 1356 3278 1631 3431 
Q 1906 3584 2284 3584 
Q 2666 3584 2933 3390 
Q 3200 3197 3328 2828 
z
" transform="scale(0.015625)"/>
       <path id="DejaVuSans-65" d="M 3597 1894 
L 3597 1613 
L 953 1613 
Q 991 1019 1311 708 
Q 1631 397 2203 397 
Q 2534 397 2845 478 
Q 3156 559 3463 722 
L 3463 178 
Q 3153 47 2828 -22 
Q 2503 -91 2169 -91 
Q 1331 -91 842 396 
Q 353 884 353 1716 
Q 353 2575 817 3079 
Q 1281 3584 2069 3584 
Q 2775 3584 3186 3129 
Q 3597 2675 3597 1894 
z
M 3022 2063 
Q 3016 2534 2758 2815 
Q 2500 3097 2075 3097 
Q 1594 3097 1305 2825 
Q 1016 2553 972 2059 
L 3022 2063 
z
" transform="scale(0.015625)"/>
       <path id="DejaVuSans-28" d="M 1984 4856 
Q 1566 4138 1362 3434 
Q 1159 2731 1159 2009 
Q 1159 1288 1364 580 
Q 1569 -128 1984 -844 
L 1484 -844 
Q 1016 -109 783 600 
Q 550 1309 550 2009 
Q 550 2706 781 3412 
Q 1013 4119 1484 4856 
L 1984 4856 
z
" transform="scale(0.015625)"/>
       <path id="DejaVuSans-73" d="M 2834 3397 
L 2834 2853 
Q 2591 2978 2328 3040 
Q 2066 3103 1784 3103 
Q 1356 3103 1142 2972 
Q 928 2841 928 2578 
Q 928 2378 1081 2264 
Q 1234 2150 1697 2047 
L 1894 2003 
Q 2506 1872 2764 1633 
Q 3022 1394 3022 966 
Q 3022 478 2636 193 
Q 2250 -91 1575 -91 
Q 1294 -91 989 -36 
Q 684 19 347 128 
L 347 722 
Q 666 556 975 473 
Q 1284 391 1588 391 
Q 1994 391 2212 530 
Q 2431 669 2431 922 
Q 2431 1156 2273 1281 
Q 2116 1406 1581 1522 
L 1381 1569 
Q 847 1681 609 1914 
Q 372 2147 372 2553 
Q 372 3047 722 3315 
Q 1072 3584 1716 3584 
Q 2034 3584 2315 3537 
Q 2597 3491 2834 3397 
z
" transform="scale(0.015625)"/>
       <path id="DejaVuSans-29" d="M 513 4856 
L 1013 4856 
Q 1481 4119 1714 3412 
Q 1947 2706 1947 2009 
Q 1947 1309 1714 600 
Q 1481 -109 1013 -844 
L 513 -844 
Q 928 -128 1133 580 
Q 1338 1288 1338 2009 
Q 1338 2731 1133 3434 
Q 928 4138 513 4856 
z
" transform="scale(0.015625)"/>
      </defs>
      <use xlink:href="#DejaVuSans-54"/>
      <use xlink:href="#DejaVuSans-69" x="57.958984"/>
      <use xlink:href="#DejaVuSans-6d" x="85.742188"/>
      <use xlink:href="#DejaVuSans-65" x="183.154297"/>
      <use xlink:href="#DejaVuSans-28" x="244.677734"/>
      <use xlink:href="#DejaVuSans-73" x="283.691406"/>
      <use xlink:href="#DejaVuSans-29" x="335.791016"/>
     </g>
    </g>
   </g>
   <g id="matplotlib.axis_2">
    <g id="ytick_1">
     <g id="line2d_17">
      <path d="M 57.6 276.941468 
L 414.72 276.941468 
" clip-path="url(#p26c5713a65)" style="fill: none; stroke: #b0b0b0; stroke-width: 0.8; stroke-linecap: square"/>
     </g>
     <g id="line2d_18">
      <defs>
       <path id="m12129df7b4" d="M 0 0 
L -3.5 0 
" style="stroke: #000000; stroke-width: 0.8"/>
      </defs>
      <g>
       <use xlink:href="#m12129df7b4" x="57.6" y="276.941468" style="stroke: #000000; stroke-width: 0.8"/>
      </g>
     </g>
     <g id="text_10">
      <!-- 4 -->
      <g transform="translate(44.2375 280.740687) scale(0.1 -0.1)">
       <defs>
        <path id="DejaVuSans-34" d="M 2419 4116 
L 825 1625 
L 2419 1625 
L 2419 4116 
z
M 2253 4666 
L 3047 4666 
L 3047 1625 
L 3713 1625 
L 3713 1100 
L 3047 1100 
L 3047 0 
L 2419 0 
L 2419 1100 
L 313 1100 
L 313 1709 
L 2253 4666 
z
" transform="scale(0.015625)"/>
       </defs>
       <use xlink:href="#DejaVuSans-34"/>
      </g>
     </g>
    </g>
    <g id="ytick_2">
     <g id="line2d_19">
      <path d="M 57.6 221.098101 
L 414.72 221.098101 
" clip-path="url(#p26c5713a65)" style="fill: none; stroke: #b0b0b0; stroke-width: 0.8; stroke-linecap: square"/>
     </g>
     <g id="line2d_20">
      <g>
       <use xlink:href="#m12129df7b4" x="57.6" y="221.098101" style="stroke: #000000; stroke-width: 0.8"/>
      </g>
     </g>
     <g id="text_11">
      <!-- 5 -->
      <g transform="translate(44.2375 224.89732) scale(0.1 -0.1)">
       <use xlink:href="#DejaVuSans-35"/>
      </g>
     </g>
    </g>
    <g id="ytick_3">
     <g id="line2d_21">
      <path d="M 57.6 165.254734 
L 414.72 165.254734 
" clip-path="url(#p26c5713a65)" style="fill: none; stroke: #b0b0b0; stroke-width: 0.8; stroke-linecap: square"/>
     </g>
     <g id="line2d_22">
      <g>
       <use xlink:href="#m12129df7b4" x="57.6" y="165.254734" style="stroke: #000000; stroke-width: 0.8"/>
      </g>
     </g>
     <g id="text_12">
      <!-- 6 -->
      <g transform="translate(44.2375 169.053953) scale(0.1 -0.1)">
       <defs>
        <path id="DejaVuSans-36" d="M 2113 2584 
Q 1688 2584 1439 2293 
Q 1191 2003 1191 1497 
Q 1191 994 1439 701 
Q 1688 409 2113 409 
Q 2538 409 2786 701 
Q 3034 994 3034 1497 
Q 3034 2003 2786 2293 
Q 2538 2584 2113 2584 
z
M 3366 4563 
L 3366 3988 
Q 3128 4100 2886 4159 
Q 2644 4219 2406 4219 
Q 1781 4219 1451 3797 
Q 1122 3375 1075 2522 
Q 1259 2794 1537 2939 
Q 1816 3084 2150 3084 
Q 2853 3084 3261 2657 
Q 3669 2231 3669 1497 
Q 3669 778 3244 343 
Q 2819 -91 2113 -91 
Q 1303 -91 875 529 
Q 447 1150 447 2328 
Q 447 3434 972 4092 
Q 1497 4750 2381 4750 
Q 2619 4750 2861 4703 
Q 3103 4656 3366 4563 
z
" transform="scale(0.015625)"/>
       </defs>
       <use xlink:href="#DejaVuSans-36"/>
      </g>
     </g>
    </g>
    <g id="ytick_4">
     <g id="line2d_23">
      <path d="M 57.6 109.411367 
L 414.72 109.411367 
" clip-path="url(#p26c5713a65)" style="fill: none; stroke: #b0b0b0; stroke-width: 0.8; stroke-linecap: square"/>
     </g>
     <g id="line2d_24">
      <g>
       <use xlink:href="#m12129df7b4" x="57.6" y="109.411367" style="stroke: #000000; stroke-width: 0.8"/>
      </g>
     </g>
     <g id="text_13">
      <!-- 7 -->
      <g transform="translate(44.2375 113.210586) scale(0.1 -0.1)">
       <defs>
        <path id="DejaVuSans-37" d="M 525 4666 
L 3525 4666 
L 3525 4397 
L 1831 0 
L 1172 0 
L 2766 4134 
L 525 4134 
L 525 4666 
z
" transform="scale(0.015625)"/>
       </defs>
       <use xlink:href="#DejaVuSans-37"/>
      </g>
     </g>
    </g>
    <g id="ytick_5">
     <g id="line2d_25">
      <path d="M 57.6 53.568 
L 414.72 53.568 
" clip-path="url(#p26c5713a65)" style="fill: none; stroke: #b0b0b0; stroke-width: 0.8; stroke-linecap: square"/>
     </g>
     <g id="line2d_26">
      <g>
       <use xlink:href="#m12129df7b4" x="57.6" y="53.568" style="stroke: #000000; stroke-width: 0.8"/>
      </g>
     </g>
     <g id="text_14">
      <!-- 8 -->
      <g transform="translate(44.2375 57.367219) scale(0.1 -0.1)">
       <defs>
        <path id="DejaVuSans-38" d="M 2034 2216 
Q 1584 2216 1326 1975 
Q 1069 1734 1069 1313 
Q 1069 891 1326 650 
Q 1584 409 2034 409 
Q 2484 409 2743 651 
Q 3003 894 3003 1313 
Q 3003 1734 2745 1975 
Q 2488 2216 2034 2216 
z
M 1403 2484 
Q 997 2584 770 2862 
Q 544 3141 544 3541 
Q 544 4100 942 4425 
Q 1341 4750 2034 4750 
Q 2731 4750 3128 4425 
Q 3525 4100 3525 3541 
Q 3525 3141 3298 2862 
Q 3072 2584 2669 2484 
Q 3125 2378 3379 2068 
Q 3634 1759 3634 1313 
Q 3634 634 3220 271 
Q 2806 -91 2034 -91 
Q 1263 -91 848 271 
Q 434 634 434 1313 
Q 434 1759 690 2068 
Q 947 2378 1403 2484 
z
M 1172 3481 
Q 1172 3119 1398 2916 
Q 1625 2713 2034 2713 
Q 2441 2713 2670 2916 
Q 2900 3119 2900 3481 
Q 2900 3844 2670 4047 
Q 2441 4250 2034 4250 
Q 1625 4250 1398 4047 
Q 1172 3844 1172 3481 
z
" transform="scale(0.015625)"/>
       </defs>
       <use xlink:href="#DejaVuSans-38"/>
      </g>
     </g>
    </g>
    <g id="text_15">
     <!-- Velocity(m/s) -->
     <g transform="translate(38.157812 207.204563) rotate(-90) scale(0.1 -0.1)">
      <defs>
       <path id="DejaVuSans-56" d="M 1831 0 
L 50 4666 
L 709 4666 
L 2188 738 
L 3669 4666 
L 4325 4666 
L 2547 0 
L 1831 0 
z
" transform="scale(0.015625)"/>
       <path id="DejaVuSans-6c" d="M 603 4863 
L 1178 4863 
L 1178 0 
L 603 0 
L 603 4863 
z
" transform="scale(0.015625)"/>
       <path id="DejaVuSans-6f" d="M 1959 3097 
Q 1497 3097 1228 2736 
Q 959 2375 959 1747 
Q 959 1119 1226 758 
Q 1494 397 1959 397 
Q 2419 397 2687 759 
Q 2956 1122 2956 1747 
Q 2956 2369 2687 2733 
Q 2419 3097 1959 3097 
z
M 1959 3584 
Q 2709 3584 3137 3096 
Q 3566 2609 3566 1747 
Q 3566 888 3137 398 
Q 2709 -91 1959 -91 
Q 1206 -91 779 398 
Q 353 888 353 1747 
Q 353 2609 779 3096 
Q 1206 3584 1959 3584 
z
" transform="scale(0.015625)"/>
       <path id="DejaVuSans-63" d="M 3122 3366 
L 3122 2828 
Q 2878 2963 2633 3030 
Q 2388 3097 2138 3097 
Q 1578 3097 1268 2742 
Q 959 2388 959 1747 
Q 959 1106 1268 751 
Q 1578 397 2138 397 
Q 2388 397 2633 464 
Q 2878 531 3122 666 
L 3122 134 
Q 2881 22 2623 -34 
Q 2366 -91 2075 -91 
Q 1284 -91 818 406 
Q 353 903 353 1747 
Q 353 2603 823 3093 
Q 1294 3584 2113 3584 
Q 2378 3584 2631 3529 
Q 2884 3475 3122 3366 
z
" transform="scale(0.015625)"/>
       <path id="DejaVuSans-74" d="M 1172 4494 
L 1172 3500 
L 2356 3500 
L 2356 3053 
L 1172 3053 
L 1172 1153 
Q 1172 725 1289 603 
Q 1406 481 1766 481 
L 2356 481 
L 2356 0 
L 1766 0 
Q 1100 0 847 248 
Q 594 497 594 1153 
L 594 3053 
L 172 3053 
L 172 3500 
L 594 3500 
L 594 4494 
L 1172 4494 
z
" transform="scale(0.015625)"/>
       <path id="DejaVuSans-79" d="M 2059 -325 
Q 1816 -950 1584 -1140 
Q 1353 -1331 966 -1331 
L 506 -1331 
L 506 -850 
L 844 -850 
Q 1081 -850 1212 -737 
Q 1344 -625 1503 -206 
L 1606 56 
L 191 3500 
L 800 3500 
L 1894 763 
L 2988 3500 
L 3597 3500 
L 2059 -325 
z
" transform="scale(0.015625)"/>
       <path id="DejaVuSans-2f" d="M 1625 4666 
L 2156 4666 
L 531 -594 
L 0 -594 
L 1625 4666 
z
" transform="scale(0.015625)"/>
      </defs>
      <use xlink:href="#DejaVuSans-56"/>
      <use xlink:href="#DejaVuSans-65" x="60.658203"/>
      <use xlink:href="#DejaVuSans-6c" x="122.181641"/>
      <use xlink:href="#DejaVuSans-6f" x="149.964844"/>
      <use xlink:href="#DejaVuSans-63" x="211.146484"/>
      <use xlink:href="#DejaVuSans-69" x="266.126953"/>
      <use xlink:href="#DejaVuSans-74" x="293.910156"/>
      <use xlink:href="#DejaVuSans-79" x="333.119141"/>
      <use xlink:href="#DejaVuSans-28" x="392.298828"/>
      <use xlink:href="#DejaVuSans-6d" x="431.3125"/>
      <use xlink:href="#DejaVuSans-2f" x="528.724609"/>
      <use xlink:href="#DejaVuSans-73" x="562.416016"/>
      <use xlink:href="#DejaVuSans-29" x="614.515625"/>
     </g>
    </g>
   </g>
   <g id="line2d_27">
    <path d="M 73.832727 53.72062 
L 76.658882 53.60011 
L 76.658882 53.60011 
L 85.137347 53.568279 
L 85.137347 53.568279 
L 92.379369 53.568 
L 92.379369 53.568 
L 92.909273 59.042884 
L 92.909273 59.042884 
L 93.792446 83.770438 
L 93.792446 83.770438 
L 94.32235 99.722431 
L 94.32235 99.722431 
L 95.382158 129.016242 
L 95.382158 129.016242 
L 96.971871 161.440688 
L 96.971871 161.440688 
L 97.678409 172.936213 
L 97.678409 172.936213 
L 99.268121 190.283285 
L 99.268121 190.283285 
L 100.504564 197.325692 
L 100.504564 197.325692 
L 101.034468 198.699829 
L 101.034468 198.699829 
L 101.564372 199.266193 
L 101.564372 199.266193 
L 101.917642 199.433946 
L 101.917642 199.433946 
L 102.270911 199.433444 
L 102.270911 199.433444 
L 103.154084 199.270828 
L 103.154084 199.270828 
L 103.507354 199.029529 
L 103.507354 199.029529 
L 103.860623 198.578705 
L 103.860623 198.578705 
L 104.567162 196.391879 
L 104.567162 196.391879 
L 105.273701 192.43264 
L 105.273701 192.43264 
L 105.62697 188.869275 
L 105.62697 188.869275 
L 105.980239 184.706152 
L 105.980239 184.706152 
L 106.333509 179.802155 
L 106.333509 179.802155 
L 106.863413 170.6917 
L 106.863413 170.6917 
L 107.923221 151.054827 
L 107.923221 151.054827 
L 108.453125 147.3566 
L 108.453125 147.3566 
L 108.983029 145.825152 
L 108.983029 145.825152 
L 109.512933 145.22316 
L 109.512933 145.22316 
L 109.866202 145.033069 
L 109.866202 145.033069 
L 111.455915 144.432921 
L 111.455915 144.432921 
L 112.339088 143.368937 
L 112.339088 143.368937 
L 112.868992 142.227108 
L 112.868992 142.227108 
L 113.575531 139.358992 
L 113.575531 139.358992 
L 113.9288 137.438092 
L 113.9288 137.438092 
L 114.811973 129.307465 
L 114.811973 129.307465 
L 115.695147 119.020391 
L 115.695147 119.020391 
L 115.871782 118.193742 
L 115.871782 118.193742 
L 116.048416 118.167272 
L 116.048416 118.167272 
L 117.461494 145.088522 
L 117.461494 145.088522 
L 118.168032 156.186888 
L 118.168032 156.186888 
L 119.227841 166.024256 
L 119.227841 166.024256 
L 119.934379 169.211293 
L 119.934379 169.211293 
L 120.464283 170.311239 
L 120.464283 170.311239 
L 121.347457 171.12538 
L 121.347457 171.12538 
L 121.700726 171.365618 
L 121.700726 171.365618 
L 121.877361 171.285594 
L 121.877361 171.285594 
L 122.053995 171.399124 
L 122.053995 171.399124 
L 123.820342 171.085787 
L 123.820342 171.085787 
L 124.173612 170.822876 
L 124.173612 170.822876 
L 125.586689 169.577067 
L 125.586689 169.577067 
L 126.116593 168.940508 
L 126.116593 168.940508 
L 126.823132 167.900425 
L 126.823132 167.900425 
L 128.766113 163.322665 
L 128.766113 163.322665 
L 129.296017 161.832373 
L 129.296017 161.832373 
L 130.002556 159.572392 
L 130.002556 159.572392 
L 130.88573 156.366871 
L 130.88573 156.366871 
L 132.122172 150.999598 
L 132.122172 150.999598 
L 134.065154 140.791319 
L 134.065154 140.791319 
L 135.654866 130.247868 
L 135.654866 130.247868 
L 137.774482 111.371134 
L 137.774482 111.371134 
L 139.364194 92.567891 
L 139.364194 92.567891 
L 140.247368 80.108286 
L 140.247368 80.108286 
L 140.953906 71.541914 
L 140.953906 71.541914 
L 141.660445 65.740514 
L 141.660445 65.740514 
L 142.366984 61.811598 
L 142.366984 61.811598 
L 143.073523 59.150829 
L 143.073523 59.150829 
L 143.780061 57.348875 
L 143.780061 57.348875 
L 144.4866 56.12853 
L 144.4866 56.12853 
L 145.193139 55.302048 
L 145.193139 55.302048 
L 146.076312 54.633324 
L 146.076312 54.633324 
L 147.13612 54.161727 
L 147.13612 54.161727 
L 148.372563 53.868158 
L 148.372563 53.868158 
L 150.315545 53.670752 
L 150.315545 53.670752 
L 150.845449 53.644729 
L 150.845449 53.644729 
L 151.022083 54.778237 
L 151.022083 54.778237 
L 151.198718 57.738829 
L 151.198718 57.738829 
L 152.78843 104.996949 
L 152.78843 104.996949 
L 153.141699 115.856864 
L 153.141699 115.856864 
L 155.43795 175.138899 
L 155.43795 175.138899 
L 156.497758 194.431609 
L 156.497758 194.431609 
L 157.027662 204.883254 
L 157.027662 204.883254 
L 157.557567 212.146856 
L 157.557567 212.146856 
L 158.087471 219.27677 
L 158.087471 219.27677 
L 159.853817 236.232659 
L 159.853817 236.232659 
L 161.266895 243.864214 
L 161.266895 243.864214 
L 161.973434 245.815772 
L 161.973434 245.815772 
L 162.679972 246.908571 
L 162.679972 246.908571 
L 163.033242 247.149088 
L 163.033242 247.149088 
L 165.152858 247.262617 
L 165.152858 247.262617 
L 166.036031 246.500858 
L 166.036031 246.500858 
L 166.212666 246.326236 
L 166.212666 246.326236 
L 167.449109 243.704892 
L 167.449109 243.704892 
L 167.979013 242.119834 
L 167.979013 242.119834 
L 168.685551 239.255628 
L 168.685551 239.255628 
L 169.39209 235.602969 
L 169.39209 235.602969 
L 169.921994 232.427771 
L 169.921994 232.427771 
L 171.688341 218.983816 
L 171.688341 218.983816 
L 174.337861 193.365783 
L 174.337861 193.365783 
L 176.104208 174.039008 
L 176.104208 174.039008 
L 179.460267 138.495375 
L 179.460267 138.495375 
L 180.166806 129.158028 
L 180.166806 129.158028 
L 181.403249 106.128782 
L 181.403249 106.128782 
L 182.286422 88.793382 
L 182.286422 88.793382 
L 182.463057 87.329336 
L 182.463057 87.329336 
L 182.816326 86.694062 
L 182.816326 86.694062 
L 182.992961 88.151518 
L 182.992961 88.151518 
L 183.34623 97.323344 
L 183.34623 97.323344 
L 183.699499 105.764851 
L 183.699499 105.764851 
L 185.465846 162.191167 
L 185.465846 162.191167 
L 185.819116 170.85158 
L 185.819116 170.85158 
L 186.172385 181.555134 
L 186.172385 181.555134 
L 186.702289 195.074813 
L 186.702289 195.074813 
L 187.408828 211.917396 
L 187.408828 211.917396 
L 187.762097 219.704028 
L 187.762097 219.704028 
L 188.292001 230.735661 
L 188.292001 230.735661 
L 188.468636 232.806333 
L 188.468636 232.806333 
L 188.821905 238.683513 
L 188.821905 238.683513 
L 190.764887 260.878794 
L 190.764887 260.878794 
L 192.177964 269.623586 
L 192.177964 269.623586 
L 192.884503 271.953706 
L 192.884503 271.953706 
L 193.591042 273.348506 
L 193.591042 273.348506 
L 193.767676 273.465331 
L 193.767676 273.465331 
L 194.120946 273.92548 
L 194.120946 273.92548 
L 194.65085 274.471237 
L 194.65085 274.471237 
L 195.357388 274.610957 
L 195.357388 274.610957 
L 196.947101 274.442366 
L 196.947101 274.442366 
L 197.30037 274.240101 
L 197.30037 274.240101 
L 197.477005 274.153209 
L 197.477005 274.153209 
L 198.713447 272.154352 
L 198.713447 272.154352 
L 199.243351 270.695053 
L 199.243351 270.695053 
L 200.126525 266.787357 
L 200.126525 266.787357 
L 200.833064 262.497358 
L 200.833064 262.497358 
L 202.422776 247.919615 
L 202.422776 247.919615 
L 204.012488 226.224243 
L 204.012488 226.224243 
L 205.072296 207.315958 
L 205.072296 207.315958 
L 205.955469 187.343913 
L 205.955469 187.343913 
L 209.841432 84.584858 
L 209.841432 84.584858 
L 210.547971 74.573594 
L 210.547971 74.573594 
L 211.25451 67.793651 
L 211.25451 67.793651 
L 211.961049 63.202098 
L 211.961049 63.202098 
L 212.667587 60.092516 
L 212.667587 60.092516 
L 213.374126 57.986606 
L 213.374126 57.986606 
L 214.080665 56.560423 
L 214.080665 56.560423 
L 214.787203 55.594556 
L 214.787203 55.594556 
L 214.963838 55.406419 
L 214.963838 55.406419 
L 215.317108 57.039503 
L 215.317108 57.039503 
L 215.670377 61.407404 
L 215.670377 61.407404 
L 217.789993 106.576367 
L 217.789993 106.576367 
L 218.849801 130.344532 
L 218.849801 130.344532 
L 220.792783 166.797184 
L 220.792783 166.797184 
L 221.499321 178.075199 
L 221.499321 178.075199 
L 223.089034 195.197613 
L 223.089034 195.197613 
L 224.148842 201.443079 
L 224.148842 201.443079 
L 224.678746 203.432387 
L 224.678746 203.432387 
L 225.20865 204.544899 
L 225.20865 204.544899 
L 225.738554 205.032467 
L 225.738554 205.032467 
L 226.091823 205.184249 
L 226.091823 205.184249 
L 226.621727 205.341225 
L 226.621727 205.341225 
L 227.328266 205.194636 
L 227.328266 205.194636 
L 227.681535 205.034868 
L 227.681535 205.034868 
L 228.034805 204.767379 
L 228.034805 204.767379 
L 228.388074 204.349391 
L 228.388074 204.349391 
L 228.741343 203.732545 
L 228.741343 203.732545 
L 229.094613 202.837209 
L 229.094613 202.837209 
L 229.977786 198.21818 
L 229.977786 198.21818 
L 230.50769 194.337457 
L 230.50769 194.337457 
L 231.037594 188.940587 
L 231.037594 188.940587 
L 232.274037 168.223926 
L 232.274037 168.223926 
L 235.630096 82.745824 
L 235.630096 82.745824 
L 236.336635 73.328175 
L 236.336635 73.328175 
L 237.043173 66.950193 
L 237.043173 66.950193 
L 237.749712 62.630876 
L 237.749712 62.630876 
L 238.456251 59.705689 
L 238.456251 59.705689 
L 239.16279 57.724645 
L 239.16279 57.724645 
L 239.869328 56.383008 
L 239.869328 56.383008 
L 240.575867 55.474381 
L 240.575867 55.474381 
L 241.105771 54.991224 
L 241.105771 54.991224 
L 241.45904 55.602821 
L 241.45904 55.602821 
L 241.81231 58.588263 
L 241.81231 58.588263 
L 243.931926 89.100744 
L 243.931926 89.100744 
L 246.051542 121.316782 
L 246.051542 121.316782 
L 247.287985 134.712042 
L 247.287985 134.712042 
L 247.994524 139.863146 
L 247.994524 139.863146 
L 248.524428 142.789506 
L 248.524428 142.789506 
L 248.877697 144.03096 
L 248.877697 144.03096 
L 249.407601 145.309103 
L 249.407601 145.309103 
L 249.937505 145.750266 
L 249.937505 145.750266 
L 250.290775 145.850281 
L 250.290775 145.850281 
L 250.467409 145.975203 
L 250.467409 145.975203 
L 250.644044 145.947728 
L 250.644044 145.947728 
L 250.997313 146.118888 
L 250.997313 146.118888 
L 252.057121 145.470769 
L 252.057121 145.470769 
L 252.410391 144.99772 
L 252.410391 144.99772 
L 253.116929 142.813072 
L 253.116929 142.813072 
L 253.646834 140.660478 
L 253.646834 140.660478 
L 254.176738 137.638402 
L 254.176738 137.638402 
L 254.706642 133.758852 
L 254.706642 133.758852 
L 255.41318 127.310339 
L 255.41318 127.310339 
L 257.002892 107.929675 
L 257.002892 107.929675 
L 258.41597 85.041322 
L 258.41597 85.041322 
L 259.122509 74.882743 
L 259.122509 74.882743 
L 259.829047 68.003008 
L 259.829047 68.003008 
L 260.535586 63.343828 
L 260.535586 63.343828 
L 261.242125 60.18851 
L 261.242125 60.18851 
L 261.948664 58.051608 
L 261.948664 58.051608 
L 262.655202 56.604427 
L 262.655202 56.604427 
L 263.361741 55.624376 
L 263.361741 55.624376 
L 264.244914 54.831344 
L 264.244914 54.831344 
L 265.128088 54.344167 
L 265.128088 54.344167 
L 266.187896 54.000563 
L 266.187896 54.000563 
L 267.777608 53.747983 
L 267.777608 53.747983 
L 270.250494 53.614015 
L 270.250494 53.614015 
L 276.256073 53.569675 
L 276.256073 53.569675 
L 276.609342 57.238026 
L 276.609342 57.238026 
L 276.962612 65.189172 
L 276.962612 65.189172 
L 280.848575 205.925738 
L 280.848575 205.925738 
L 281.025209 209.33626 
L 281.025209 209.33626 
L 281.555113 223.587264 
L 281.555113 223.587264 
L 281.731748 226.584321 
L 281.731748 226.584321 
L 282.261652 238.961222 
L 282.261652 238.961222 
L 282.438287 241.599207 
L 282.791556 248.132936 
L 282.791556 248.132936 
L 283.674729 260.944187 
L 283.674729 260.944187 
L 284.204633 269.699142 
L 284.204633 269.699142 
L 284.911172 276.557545 
L 284.911172 276.557545 
L 285.264442 280.298939 
L 285.264442 280.298939 
L 286.677519 290.288815 
L 286.677519 290.288815 
L 287.030788 292.046764 
L 287.030788 292.046764 
L 287.560692 293.773106 
L 287.560692 293.773106 
L 287.913962 294.508675 
L 287.913962 294.508675 
L 288.267231 294.959833 
L 288.267231 294.959833 
L 288.620501 295.15132 
L 288.620501 295.15132 
L 289.327039 295.345488 
L 289.327039 295.345488 
L 290.563482 295.127419 
L 290.563482 295.127419 
L 290.740117 295.044604 
L 290.740117 295.044604 
L 291.62329 293.833249 
L 291.62329 293.833249 
L 292.683098 290.283342 
L 292.683098 290.283342 
L 293.036368 288.330835 
L 293.036368 288.330835 
L 293.742906 284.221489 
L 293.742906 284.221489 
L 295.862523 264.824854 
L 295.862523 264.824854 
L 296.569061 256.270264 
L 296.569061 256.270264 
L 297.452235 243.957249 
L 297.452235 243.957249 
L 298.512043 227.183688 
L 298.512043 227.183688 
L 301.161563 186.927601 
L 301.161563 186.927601 
L 302.221371 172.424352 
L 302.221371 172.424352 
L 302.92791 161.431865 
L 302.92791 161.431865 
L 303.104544 159.675758 
L 303.104544 159.675758 
L 303.457814 158.844139 
L 303.457814 158.844139 
L 303.811083 163.378676 
L 303.811083 163.378676 
L 303.987718 167.063222 
L 303.987718 167.063222 
L 304.340987 177.323268 
L 304.340987 177.323268 
L 304.870891 190.313998 
L 304.870891 190.313998 
L 306.283969 218.612736 
L 306.283969 218.612736 
L 306.813873 226.544505 
L 306.813873 226.544505 
L 308.756854 246.619805 
L 308.756854 246.619805 
L 309.110124 249.28761 
L 309.110124 249.28761 
L 309.463393 251.3747 
L 309.463393 251.3747 
L 311.22974 258.86458 
L 311.22974 258.86458 
L 311.759644 260.064933 
L 311.759644 260.064933 
L 312.112913 260.628057 
L 312.112913 260.628057 
L 312.466183 260.829764 
L 312.466183 260.829764 
L 313.172721 261.356311 
L 313.172721 261.356311 
L 313.87926 261.572871 
L 313.87926 261.572871 
L 315.292338 261.216758 
L 315.292338 261.216758 
L 315.645607 261.063803 
L 315.645607 261.063803 
L 315.998876 260.72919 
L 315.998876 260.72919 
L 316.705415 259.44926 
L 316.705415 259.44926 
L 317.235319 257.942941 
L 317.235319 257.942941 
L 317.941858 255.255702 
L 317.941858 255.255702 
L 319.53157 245.6531 
L 319.53157 245.6531 
L 321.651186 225.956307 
L 321.651186 225.956307 
L 322.710994 213.795743 
L 322.710994 213.795743 
L 323.770802 199.848695 
L 323.770802 199.848695 
L 326.067053 162.955328 
L 326.067053 162.955328 
L 327.303496 140.792938 
L 327.303496 140.792938 
L 327.656765 138.538765 
L 327.656765 138.538765 
L 328.010035 139.361003 
L 328.010035 139.361003 
L 328.186669 141.313175 
L 328.186669 141.313175 
L 328.893208 156.900957 
L 328.893208 156.900957 
L 329.423112 166.005381 
L 329.423112 166.005381 
L 330.659555 186.230955 
L 330.659555 186.230955 
L 331.895998 200.191517 
L 331.895998 200.191517 
L 332.425902 204.057721 
L 332.425902 204.057721 
L 333.309075 208.396472 
L 333.309075 208.396472 
L 333.838979 209.574823 
L 333.838979 209.574823 
L 334.368883 210.041673 
L 334.368883 210.041673 
L 334.722153 210.177372 
L 334.722153 210.177372 
L 335.252057 210.31 
L 335.252057 210.31 
L 335.781961 210.252035 
L 335.781961 210.252035 
L 336.488499 209.712253 
L 336.488499 209.712253 
L 337.195038 208.425454 
L 337.195038 208.425454 
L 337.901577 205.87492 
L 337.901577 205.87492 
L 338.431481 202.787229 
L 338.431481 202.787229 
L 339.491289 190.859923 
L 339.491289 190.859923 
L 340.197828 179.904907 
L 340.197828 179.904907 
L 340.551097 177.588803 
L 340.551097 177.588803 
L 340.727732 176.961849 
L 340.727732 176.961849 
L 340.904366 177.037238 
L 340.904366 177.037238 
L 341.081001 177.300819 
L 341.081001 177.300819 
L 341.610905 182.019304 
L 341.610905 182.019304 
L 342.140809 185.79264 
L 342.140809 185.79264 
L 342.494079 187.064976 
L 342.494079 187.064976 
L 343.377252 188.102322 
L 343.377252 188.102322 
L 343.553887 188.20848 
L 343.553887 188.20848 
L 343.730521 188.181117 
L 343.730521 188.181117 
L 344.43706 187.42187 
L 344.43706 187.42187 
L 344.966964 185.865181 
L 344.966964 185.865181 
L 345.850138 178.570083 
L 345.850138 178.570083 
L 346.380042 171.931256 
L 346.380042 171.931256 
L 346.733311 168.449589 
L 346.733311 168.449589 
L 346.909946 167.428661 
L 346.909946 167.428661 
L 347.08658 167.183062 
L 347.08658 167.183062 
L 347.263215 167.15447 
L 347.263215 167.15447 
L 347.43985 168.448751 
L 347.43985 168.448751 
L 348.146388 177.789225 
L 348.146388 177.789225 
L 348.852927 183.440629 
L 348.852927 183.440629 
L 349.206196 184.927347 
L 349.206196 184.927347 
L 349.559466 185.781807 
L 349.559466 185.781807 
L 349.912735 186.066049 
L 349.912735 186.066049 
L 350.442639 186.407029 
L 350.442639 186.407029 
L 350.972543 186.334768 
L 350.972543 186.334768 
L 351.325813 186.298916 
L 351.325813 186.298916 
L 352.032351 185.988148 
L 352.032351 185.988148 
L 353.622064 183.608941 
L 353.622064 183.608941 
L 355.211776 179.016048 
L 355.211776 179.016048 
L 356.094949 175.475131 
L 356.094949 175.475131 
L 357.331392 168.809053 
L 357.331392 168.809053 
L 358.744469 159.003181 
L 358.744469 159.003181 
L 359.804277 150.640525 
L 359.804277 150.640525 
L 361.923894 135.871686 
L 361.923894 135.871686 
L 363.336971 128.444015 
L 363.336971 128.444015 
L 364.04351 124.820674 
L 364.04351 124.820674 
L 364.750048 120.445514 
L 364.750048 120.445514 
L 365.809857 111.24571 
L 365.809857 111.24571 
L 366.869665 97.540128 
L 366.869665 97.540128 
L 368.459377 72.817097 
L 368.459377 72.817097 
L 369.165916 66.604076 
L 369.165916 66.604076 
L 369.872454 62.396445 
L 369.872454 62.396445 
L 370.578993 59.546926 
L 370.578993 59.546926 
L 371.285532 57.617091 
L 371.285532 57.617091 
L 371.99207 56.310189 
L 371.99207 56.310189 
L 372.698609 55.425071 
L 372.698609 55.425071 
L 373.581783 54.708936 
L 373.581783 54.708936 
L 374.464956 54.268946 
L 374.464956 54.268946 
L 375.701399 53.922382 
L 375.701399 53.922382 
L 377.467746 53.701745 
L 377.467746 53.701745 
L 380.470535 53.59352 
L 380.470535 53.59352 
L 390.715347 53.568112 
L 390.715347 53.568112 
L 397.074195 53.633504 
L 397.074195 53.633504 
L 397.427465 53.690297 
L 397.427465 53.690297 
L 398.310638 53.715259 
L 398.310638 53.715259 
L 398.487273 53.784114 
L 398.487273 53.784114 
" clip-path="url(#p26c5713a65)" style="fill: none; stroke: #1f77b4; stroke-width: 1.5; stroke-linecap: square"/>
   </g>
   <g id="line2d_28">
    <path d="M 73.832727 53.568 
L 92.202734 53.568 
L 92.202734 53.568 
L 92.379369 59.20053 
L 92.379369 59.20053 
L 92.556004 57.768091 
L 92.556004 57.768091 
L 93.792446 102.557711 
L 93.792446 102.557711 
L 93.969081 103.936148 
L 93.969081 103.936148 
L 94.32235 115.010782 
L 94.32235 115.010782 
L 94.498985 123.159669 
L 94.498985 123.159669 
L 94.67562 123.522148 
L 94.67562 123.522148 
L 94.852254 127.956726 
L 94.852254 127.956726 
L 95.028889 135.395844 
L 95.028889 135.395844 
L 95.205524 136.387399 
L 95.205524 136.387399 
L 95.382158 140.130133 
L 95.382158 140.130133 
L 95.558793 146.708594 
L 95.558793 146.708594 
L 95.735428 147.181084 
L 95.735428 147.181084 
L 95.912063 150.914939 
L 95.912063 150.914939 
L 96.088697 157.182631 
L 96.088697 157.182631 
L 96.265332 157.154766 
L 96.265332 157.154766 
L 96.618601 167.032452 
L 96.618601 167.032452 
L 96.795236 165.928484 
L 96.795236 165.928484 
L 96.971871 170.757372 
L 96.971871 170.757372 
L 97.148505 171.584636 
L 97.148505 171.584636 
L 97.32514 174.220219 
L 97.32514 174.220219 
L 97.501775 179.465922 
L 97.678409 178.744314 
L 97.678409 178.744314 
L 97.855044 182.373183 
L 97.855044 182.373183 
L 98.031679 182.923408 
L 98.031679 182.923408 
L 98.208313 185.101523 
L 98.208313 185.101523 
L 98.384948 189.147375 
L 98.384948 189.147375 
L 98.561583 188.185305 
L 98.561583 188.185305 
L 98.738217 190.916325 
L 98.738217 190.916325 
L 98.914852 191.26328 
L 98.914852 191.26328 
L 99.091487 193.321275 
L 99.091487 193.321275 
L 99.268121 193.428997 
L 99.268121 193.428997 
L 99.444756 195.026899 
L 99.444756 195.026899 
L 99.621391 195.528596 
L 99.621391 195.528596 
L 99.97466 198.070586 
L 99.97466 198.070586 
L 100.151295 197.99799 
L 100.151295 197.99799 
L 100.32793 198.754612 
L 100.32793 198.754612 
L 100.681199 199.166066 
L 100.681199 199.166066 
L 100.857834 199.425626 
L 100.857834 199.425626 
L 101.034468 199.370006 
L 101.034468 199.370006 
L 101.211103 199.627555 
L 101.211103 199.627555 
L 101.387738 199.448577 
L 101.387738 199.448577 
L 101.564372 199.669326 
L 101.564372 199.669326 
L 101.741007 199.489175 
L 101.741007 199.489175 
L 101.917642 198.89919 
L 101.917642 198.89919 
L 102.094276 199.527037 
L 102.094276 199.527037 
L 102.270911 199.228834 
L 102.270911 199.228834 
L 102.447546 199.464102 
L 102.447546 199.464102 
L 102.62418 198.936326 
L 102.62418 198.936326 
L 102.800815 199.139261 
L 102.800815 199.139261 
L 102.97745 198.37309 
L 102.97745 198.37309 
L 103.154084 198.420277 
L 103.154084 198.420277 
L 103.330719 197.443242 
L 103.330719 197.443242 
L 103.507354 197.134261 
L 103.507354 197.134261 
L 103.683989 195.893198 
L 103.683989 195.893198 
L 103.860623 192.945896 
L 103.860623 192.945896 
L 104.037258 193.773718 
L 104.037258 193.773718 
L 104.213893 190.262734 
L 104.213893 190.262734 
L 104.390527 190.726904 
L 104.390527 190.726904 
L 104.567162 186.836576 
L 104.567162 186.836576 
L 104.743797 186.443439 
L 104.743797 186.443439 
L 104.920431 182.758335 
L 104.920431 182.758335 
L 105.097066 181.433563 
L 105.097066 181.433563 
L 105.273701 177.404911 
L 105.273701 177.404911 
L 105.450335 167.683083 
L 105.450335 167.683083 
L 105.62697 170.54366 
L 105.62697 170.54366 
L 105.803605 160.651454 
L 105.803605 160.651454 
L 105.980239 162.24796 
L 105.980239 162.24796 
L 106.156874 152.256744 
L 106.156874 152.256744 
L 106.333509 151.028246 
L 106.333509 151.028246 
L 107.040047 121.486043 
L 107.040047 121.486043 
L 107.216682 121.614706 
L 107.216682 121.614706 
L 107.923221 135.551368 
L 107.923221 135.551368 
L 108.099856 135.504125 
L 108.099856 135.504125 
L 108.453125 140.609381 
L 108.453125 140.609381 
L 108.62976 140.790537 
L 108.62976 140.790537 
L 108.983029 143.127973 
L 108.983029 143.127973 
L 109.159664 143.528761 
L 109.159664 143.528761 
L 109.512933 143.786143 
L 109.512933 143.786143 
L 109.689568 144.479103 
L 109.689568 144.479103 
L 110.219472 144.072005 
L 110.219472 144.072005 
L 110.396106 144.340779 
L 110.396106 144.340779 
L 110.749376 143.981427 
L 110.749376 143.981427 
L 110.92601 143.576283 
L 110.92601 143.576283 
L 111.102645 143.845448 
L 111.102645 143.845448 
L 111.27928 143.875213 
L 111.27928 143.875213 
L 111.455915 142.467178 
L 111.455915 142.467178 
L 111.632549 142.825637 
L 111.632549 142.825637 
L 111.809184 141.96805 
L 111.809184 141.96805 
L 111.985819 140.256507 
L 111.985819 140.256507 
L 112.162453 141.32077 
L 112.162453 141.32077 
L 112.515723 139.153656 
L 112.515723 139.153656 
L 112.692357 137.863283 
L 112.692357 137.863283 
L 112.868992 135.315262 
L 112.868992 135.315262 
L 113.045627 135.297504 
L 113.045627 135.297504 
L 113.222261 134.06666 
L 113.222261 134.06666 
L 113.398896 129.598968 
L 113.398896 129.598968 
L 113.575531 129.899796 
L 113.575531 129.899796 
L 113.752165 127.249805 
L 113.752165 127.249805 
L 113.9288 121.616549 
L 113.9288 121.616549 
L 114.105435 122.416059 
L 114.105435 122.416059 
L 114.282069 118.252768 
L 114.282069 118.252768 
L 114.458704 110.530133 
L 114.458704 110.530133 
L 114.635339 111.988148 
L 114.635339 111.988148 
L 114.811973 105.888712 
L 114.811973 105.888712 
L 114.988608 95.711761 
L 114.988608 95.711761 
L 115.341878 99.989027 
L 115.341878 99.989027 
L 115.518512 112.02143 
L 115.518512 112.02143 
L 115.695147 110.116278 
L 115.695147 110.116278 
L 116.048416 128.655047 
L 116.048416 128.655047 
L 116.225051 127.27996 
L 116.225051 127.27996 
L 116.57832 140.935618 
L 116.57832 140.935618 
L 116.754955 140.093277 
L 116.754955 140.093277 
L 117.108224 150.716584 
L 117.108224 150.716584 
L 117.284859 150.039315 
L 117.284859 150.039315 
L 117.638128 158.711734 
L 117.638128 158.711734 
L 117.814763 157.771891 
L 117.814763 157.771891 
L 117.991398 160.663851 
L 117.991398 160.663851 
L 118.168032 161.096023 
L 118.168032 161.096023 
L 118.697936 165.829362 
L 118.697936 165.829362 
L 119.051206 168.660174 
L 119.051206 168.660174 
L 119.227841 168.703341 
L 119.227841 168.703341 
L 119.404475 169.57232 
L 119.404475 169.57232 
L 119.58111 169.752638 
L 119.58111 169.752638 
L 119.757745 170.556615 
L 119.757745 170.556615 
L 119.934379 170.485973 
L 119.934379 170.485973 
L 120.287649 170.850742 
L 120.287649 170.850742 
L 120.464283 170.855601 
L 120.464283 170.855601 
L 120.640918 171.486351 
L 120.640918 171.486351 
L 120.817553 170.758489 
L 120.817553 170.758489 
L 121.170822 171.443464 
L 121.170822 171.443464 
L 121.524091 171.54186 
L 121.524091 171.54186 
L 121.700726 170.503787 
L 121.700726 170.503787 
L 121.877361 171.615294 
L 121.877361 171.615294 
L 122.053995 171.166201 
L 122.053995 171.166201 
L 122.23063 171.419563 
L 122.23063 171.419563 
L 122.407265 171.014307 
L 122.407265 171.014307 
L 122.583899 171.116054 
L 122.583899 171.116054 
L 122.760534 171.421741 
L 122.760534 171.421741 
L 122.937169 170.329277 
L 122.937169 170.329277 
L 123.113804 170.985548 
L 123.113804 170.985548 
L 123.290438 170.507529 
L 123.290438 170.507529 
L 123.467073 170.519535 
L 123.467073 170.519535 
L 123.643708 170.817683 
L 123.643708 170.817683 
L 123.820342 169.023491 
L 123.820342 169.023491 
L 123.996977 170.124499 
L 123.996977 170.124499 
L 124.173612 169.308739 
L 124.173612 169.308739 
L 124.526881 169.752694 
L 124.526881 169.752694 
L 124.703516 167.928291 
L 124.703516 167.928291 
L 124.88015 169.404008 
L 124.88015 169.404008 
L 125.056785 167.565309 
L 125.056785 167.565309 
L 125.23342 167.879763 
L 125.23342 167.879763 
L 125.410054 167.930693 
L 125.410054 167.930693 
L 125.586689 167.663873 
L 125.586689 167.663873 
L 125.763324 167.82688 
L 125.763324 167.82688 
L 125.939958 165.882637 
L 125.939958 165.882637 
L 126.116593 166.326368 
L 126.116593 166.326368 
L 126.293228 165.447282 
L 126.469862 165.458953 
L 126.469862 165.458953 
L 126.646497 165.722143 
L 126.646497 165.722143 
L 126.823132 163.680956 
L 126.823132 163.680956 
L 126.999767 164.240675 
L 126.999767 164.240675 
L 127.176401 163.130341 
L 127.176401 163.130341 
L 127.529671 163.14056 
L 127.529671 163.14056 
L 127.706305 160.345935 
L 127.706305 160.345935 
L 127.88294 161.165883 
L 127.88294 161.165883 
L 128.059575 159.994624 
L 128.059575 159.994624 
L 128.412844 160.06454 
L 128.412844 160.06454 
L 128.589479 157.656965 
L 128.589479 157.656965 
L 128.766113 158.895906 
L 128.766113 158.895906 
L 128.942748 156.788377 
L 128.942748 156.788377 
L 129.119383 156.840758 
L 129.119383 156.840758 
L 129.296017 156.50352 
L 129.296017 156.50352 
L 129.472652 154.207464 
L 129.472652 154.207464 
L 129.649287 155.293674 
L 129.649287 155.293674 
L 129.825921 153.674104 
L 129.825921 153.674104 
L 130.002556 153.30431 
L 130.002556 153.30431 
L 130.179191 152.450744 
L 130.179191 152.450744 
L 130.355826 150.405089 
L 130.355826 150.405089 
L 130.53246 151.156183 
L 130.53246 151.156183 
L 131.238999 146.279326 
L 131.238999 146.279326 
L 131.415634 146.510685 
L 131.415634 146.510685 
L 131.592268 145.593234 
L 131.592268 145.593234 
L 131.768903 142.534804 
L 131.768903 142.534804 
L 131.945538 143.640615 
L 131.945538 143.640615 
L 132.122172 141.44128 
L 132.122172 141.44128 
L 132.298807 141.341264 
L 132.298807 141.341264 
L 132.475442 140.599441 
L 132.475442 140.599441 
L 132.652076 137.877914 
L 132.652076 137.877914 
L 132.828711 138.161319 
L 132.828711 138.161319 
L 133.005346 136.696883 
L 133.005346 136.696883 
L 133.18198 134.072133 
L 133.18198 134.072133 
L 133.358615 134.743091 
L 133.358615 134.743091 
L 134.065154 128.627014 
L 134.065154 128.627014 
L 134.241789 128.552072 
L 134.241789 128.552072 
L 134.418423 127.031122 
L 134.418423 127.031122 
L 134.595058 124.117104 
L 134.595058 124.117104 
L 134.771693 124.30457 
L 134.771693 124.30457 
L 134.948327 123.070934 
L 134.948327 123.070934 
L 135.124962 119.291957 
L 135.124962 119.291957 
L 135.301597 119.694532 
L 135.301597 119.694532 
L 135.478231 118.129466 
L 135.478231 118.129466 
L 135.654866 114.14694 
L 135.654866 114.14694 
L 135.831501 114.700963 
L 135.831501 114.700963 
L 136.18477 108.694506 
L 136.18477 108.694506 
L 136.361405 109.297726 
L 136.361405 109.297726 
L 136.538039 106.916844 
L 136.538039 106.916844 
L 136.714674 102.951686 
L 136.714674 102.951686 
L 136.891309 103.47343 
L 136.891309 103.47343 
L 137.067943 101.098244 
L 137.067943 101.098244 
L 137.244578 96.558737 
L 137.244578 96.558737 
L 137.421213 96.818185 
L 137.421213 96.818185 
L 138.304386 83.823769 
L 138.304386 83.823769 
L 138.481021 77.850036 
L 138.481021 77.850036 
L 138.657656 79.936009 
L 138.657656 79.936009 
L 139.010925 71.041725 
L 139.18756 71.174353 
L 139.364194 68.677261 
L 139.364194 68.677261 
L 139.717464 57.740114 
L 139.717464 57.740114 
L 139.894098 58.619423 
L 139.894098 58.619423 
L 140.247368 53.568 
L 140.247368 53.568 
L 150.668814 53.568 
L 150.668814 53.568 
L 150.845449 56.937756 
L 150.845449 56.937756 
L 151.198718 72.282788 
L 151.198718 72.282788 
L 151.375353 81.672347 
L 151.375353 81.672347 
L 151.551987 79.968175 
L 151.551987 79.968175 
L 152.081891 102.715915 
L 152.081891 102.715915 
L 152.258526 102.079524 
L 152.258526 102.079524 
L 152.611795 116.378441 
L 152.611795 116.378441 
L 152.78843 125.288697 
L 152.78843 125.288697 
L 152.965065 123.239078 
L 152.965065 123.239078 
L 153.318334 139.160134 
L 153.318334 139.160134 
L 153.494969 137.779463 
L 153.494969 137.779463 
L 153.671604 143.31918 
L 153.671604 143.31918 
L 153.848238 152.980306 
L 153.848238 152.980306 
L 154.024873 151.122733 
L 154.024873 151.122733 
L 154.378142 166.596594 
L 154.378142 166.596594 
L 154.554777 164.417028 
L 154.554777 164.417028 
L 154.731412 171.670914 
L 154.731412 171.670914 
L 154.908046 172.409833 
L 154.908046 172.409833 
L 155.084681 176.803478 
L 155.084681 176.803478 
L 155.261316 185.259448 
L 155.261316 185.259448 
L 155.43795 183.652555 
L 155.43795 183.652555 
L 155.614585 190.341585 
L 155.614585 190.341585 
L 155.79122 190.57367 
L 155.79122 190.57367 
L 156.144489 197.092881 
L 156.144489 197.092881 
L 156.321124 199.984283 
L 156.321124 199.984283 
L 156.497758 207.134356 
L 156.497758 207.134356 
L 156.674393 205.724869 
L 156.674393 205.724869 
L 156.851028 211.925996 
L 156.851028 211.925996 
L 157.027662 211.055119 
L 157.027662 211.055119 
L 157.204297 216.11503 
L 157.204297 216.11503 
L 157.380932 215.964979 
L 157.380932 215.964979 
L 157.557567 220.127209 
L 157.557567 220.127209 
L 157.734201 220.445683 
L 157.734201 220.445683 
L 157.910836 223.985818 
L 158.087471 224.505329 
L 158.087471 224.505329 
L 158.264105 227.760773 
L 158.264105 227.760773 
L 158.44074 228.161785 
L 158.44074 228.161785 
L 158.617375 230.866502 
L 158.617375 230.866502 
L 158.794009 231.442862 
L 158.794009 231.442862 
L 158.970644 234.297519 
L 158.970644 234.297519 
L 159.147279 234.357885 
L 159.147279 234.357885 
L 159.323913 237.017761 
L 159.323913 237.017761 
L 159.500548 236.934778 
L 159.500548 236.934778 
L 159.677183 239.027117 
L 159.677183 239.027117 
L 159.853817 239.193307 
L 159.853817 239.193307 
L 160.030452 241.275148 
L 160.030452 241.275148 
L 160.207087 241.141794 
L 160.207087 241.141794 
L 160.383721 243.393733 
L 160.383721 243.393733 
L 160.560356 243.16969 
L 160.736991 244.243222 
L 160.736991 244.243222 
L 160.913625 244.171855 
L 160.913625 244.171855 
L 161.09026 245.320329 
L 161.09026 245.320329 
L 161.266895 245.536555 
L 161.266895 245.536555 
L 161.44353 246.090409 
L 161.44353 246.090409 
L 161.620164 246.178028 
L 161.620164 246.178028 
L 161.796799 246.58736 
L 161.796799 246.58736 
L 161.973434 246.673749 
L 161.973434 246.673749 
L 162.326703 247.397256 
L 162.326703 247.397256 
L 162.503338 247.216156 
L 162.503338 247.216156 
L 162.679972 247.358221 
L 162.679972 247.358221 
L 163.209876 247.319857 
L 163.209876 247.319857 
L 163.386511 247.448017 
L 163.386511 247.448017 
L 163.563146 247.300982 
L 163.563146 247.300982 
L 163.73978 247.414344 
L 163.73978 247.414344 
L 164.09305 247.058789 
L 164.09305 247.058789 
L 164.622954 247.358333 
L 164.622954 247.358333 
L 164.799588 247.051865 
L 164.799588 247.051865 
L 164.976223 247.001773 
L 164.976223 247.001773 
L 165.152858 245.897303 
L 165.152858 245.897303 
L 165.329493 246.069747 
L 165.329493 246.069747 
L 165.506127 245.343784 
L 165.506127 245.343784 
L 165.682762 245.591784 
L 165.682762 245.591784 
L 165.859397 243.967189 
L 165.859397 243.967189 
L 166.036031 244.620109 
L 166.036031 244.620109 
L 166.212666 242.610809 
L 166.212666 242.610809 
L 166.389301 243.437235 
L 166.389301 243.437235 
L 166.565935 240.995707 
L 166.565935 240.995707 
L 166.74257 242.425074 
L 166.74257 242.425074 
L 166.919205 239.130315 
L 166.919205 239.130315 
L 167.095839 240.733858 
L 167.095839 240.733858 
L 167.802378 236.216129 
L 167.802378 236.216129 
L 167.979013 235.454761 
L 167.979013 235.454761 
L 168.155647 233.852615 
L 168.155647 233.852615 
L 168.332282 233.558655 
L 168.332282 233.558655 
L 168.508917 230.81401 
L 168.508917 230.81401 
L 168.685551 230.713882 
L 168.685551 230.713882 
L 168.862186 228.383483 
L 168.862186 228.383483 
L 169.038821 228.471883 
L 169.038821 228.471883 
L 169.215456 225.017971 
L 169.215456 225.017971 
L 169.39209 225.289369 
L 169.39209 225.289369 
L 169.568725 221.883203 
L 169.568725 221.883203 
L 169.74536 222.335646 
L 169.74536 222.335646 
L 169.921994 218.625245 
L 170.098629 219.23405 
L 170.098629 219.23405 
L 170.275264 215.280395 
L 170.275264 215.280395 
L 170.451898 215.993515 
L 170.451898 215.993515 
L 170.628533 211.841952 
L 170.628533 211.841952 
L 170.805168 212.62454 
L 170.981802 208.341354 
L 170.981802 208.341354 
L 171.158437 209.121263 
L 171.158437 209.121263 
L 171.335072 204.801108 
L 171.335072 204.801108 
L 171.511706 205.522325 
L 171.511706 205.522325 
L 171.688341 201.22596 
L 171.688341 201.22596 
L 171.864976 201.833871 
L 171.864976 201.833871 
L 172.04161 197.644948 
L 172.04161 197.644948 
L 172.218245 198.04797 
L 172.218245 198.04797 
L 172.39488 194.044112 
L 172.39488 194.044112 
L 172.571514 194.183832 
L 172.571514 194.183832 
L 172.748149 190.458577 
L 172.748149 190.458577 
L 172.924784 190.249388 
L 172.924784 190.249388 
L 173.101419 186.898339 
L 173.101419 186.898339 
L 173.278053 186.269598 
L 173.278053 186.269598 
L 173.631323 182.052754 
L 173.631323 182.052754 
L 173.807957 179.936514 
L 173.807957 179.936514 
L 173.984592 174.486536 
L 173.984592 174.486536 
L 174.161227 175.708277 
L 174.161227 175.708277 
L 174.337861 171.211993 
L 174.337861 171.211993 
L 174.514496 172.058634 
L 174.514496 172.058634 
L 174.691131 168.038135 
L 174.691131 168.038135 
L 174.867765 168.112519 
L 174.867765 168.112519 
L 175.221035 163.476681 
L 175.221035 163.476681 
L 175.397669 161.77022 
L 175.397669 161.77022 
L 175.574304 156.454936 
L 175.574304 156.454936 
L 175.750939 158.500926 
L 175.750939 158.500926 
L 175.927573 154.299382 
L 175.927573 154.299382 
L 176.104208 154.450215 
L 176.104208 154.450215 
L 176.457477 150.345281 
L 176.457477 150.345281 
L 176.634112 149.486689 
L 176.634112 149.486689 
L 176.810747 145.0348 
L 176.810747 145.0348 
L 176.987382 145.495899 
L 176.987382 145.495899 
L 177.340651 141.893499 
L 177.340651 141.893499 
L 177.517286 140.808574 
L 177.517286 140.808574 
L 177.69392 136.793325 
L 177.69392 136.793325 
L 177.870555 137.073714 
L 177.870555 137.073714 
L 178.04719 134.606275 
L 178.04719 134.606275 
L 178.223824 129.730814 
L 178.223824 129.730814 
L 178.400459 131.337595 
L 178.400459 131.337595 
L 178.577094 127.671534 
L 178.577094 127.671534 
L 178.753728 126.737721 
L 178.753728 126.737721 
L 178.930363 124.241076 
L 178.930363 124.241076 
L 179.106998 119.004476 
L 179.106998 119.004476 
L 179.283632 119.102313 
L 179.283632 119.102313 
L 179.460267 116.270496 
L 179.460267 116.270496 
L 179.636902 108.874657 
L 179.636902 108.874657 
L 179.813536 109.527186 
L 179.813536 109.527186 
L 179.990171 105.166322 
L 179.990171 105.166322 
L 180.166806 96.616256 
L 180.166806 96.616256 
L 180.34344 97.819513 
L 180.34344 97.819513 
L 180.69671 81.923084 
L 180.69671 81.923084 
L 180.873345 82.891855 
L 180.873345 82.891855 
L 181.049979 76.60579 
L 181.049979 76.60579 
L 181.226614 65.084298 
L 181.226614 65.084298 
L 181.403249 64.920286 
L 181.403249 64.920286 
L 181.579883 57.620777 
L 181.579883 57.620777 
L 181.756518 56.624475 
L 181.756518 56.624475 
L 181.933153 59.615502 
L 181.933153 59.615502 
L 183.169595 108.061968 
L 183.169595 108.061968 
L 183.34623 108.427128 
L 183.34623 108.427128 
L 183.699499 122.878554 
L 183.699499 122.878554 
L 183.876134 133.635885 
L 183.876134 133.635885 
L 184.052769 131.157891 
L 184.052769 131.157891 
L 184.406038 149.657626 
L 184.406038 149.657626 
L 184.582673 147.677197 
L 184.582673 147.677197 
L 184.759308 154.781646 
L 184.759308 154.781646 
L 184.935942 166.587827 
L 184.935942 166.587827 
L 185.112577 164.215433 
L 185.112577 164.215433 
L 185.289212 173.037289 
L 185.289212 173.037289 
L 185.465846 174.091277 
L 185.465846 174.091277 
L 185.642481 179.546671 
L 185.642481 179.546671 
L 185.819116 190.855121 
L 185.819116 190.855121 
L 185.99575 188.828509 
L 185.99575 188.828509 
L 186.172385 196.952044 
L 186.172385 196.952044 
L 186.34902 197.313127 
L 186.34902 197.313127 
L 186.525654 203.875951 
L 186.525654 203.875951 
L 186.702289 206.300949 
L 186.702289 206.300949 
L 186.878924 210.393766 
L 186.878924 210.393766 
L 187.055558 220.938445 
L 187.055558 220.938445 
L 187.232193 217.289528 
L 187.232193 217.289528 
L 187.408828 227.432359 
L 187.585462 224.363877 
L 187.585462 224.363877 
L 187.762097 233.067457 
L 187.762097 233.067457 
L 187.938732 230.521167 
L 187.938732 230.521167 
L 188.115367 238.911409 
L 188.115367 238.911409 
L 188.292001 236.751165 
L 188.292001 236.751165 
L 188.468636 244.611565 
L 188.468636 244.611565 
L 188.645271 242.138486 
L 188.645271 242.138486 
L 189.705079 256.88376 
L 189.705079 256.88376 
L 189.881713 257.171185 
L 189.881713 257.171185 
L 190.058348 260.195997 
L 190.058348 260.195997 
L 190.234983 260.013222 
L 190.234983 260.013222 
L 190.411617 263.694249 
L 190.411617 263.694249 
L 190.588252 263.410397 
L 190.588252 263.410397 
L 190.764887 264.216329 
L 190.764887 264.216329 
L 191.118156 266.872854 
L 191.118156 266.872854 
L 191.294791 268.123857 
L 191.294791 268.123857 
L 191.471425 268.465227 
L 191.471425 268.465227 
L 191.64806 270.384173 
L 191.64806 270.384173 
L 191.824695 270.355134 
L 191.824695 270.355134 
L 192.177964 271.567996 
L 192.177964 271.567996 
L 192.354599 271.530302 
L 192.354599 271.530302 
L 192.531234 272.685199 
L 192.531234 272.685199 
L 193.061138 273.627053 
L 193.061138 273.627053 
L 193.237772 273.360122 
L 193.237772 273.360122 
L 193.414407 274.028678 
L 193.414407 274.028678 
L 193.591042 273.687922 
L 193.591042 273.687922 
L 193.767676 274.389371 
L 193.767676 274.389371 
L 193.944311 274.196153 
L 193.944311 274.196153 
L 194.29758 274.648316 
L 194.29758 274.648316 
L 194.474215 274.782955 
L 194.474215 274.782955 
L 194.827484 274.435497 
L 194.827484 274.435497 
L 195.180754 274.737163 
L 195.180754 274.737163 
L 195.357388 274.509657 
L 195.357388 274.509657 
L 195.710658 274.784295 
L 195.710658 274.784295 
L 196.240562 274.232227 
L 196.240562 274.232227 
L 196.417197 274.450631 
L 196.417197 274.450631 
L 196.593831 273.541836 
L 196.593831 273.541836 
L 196.770466 273.994446 
L 196.770466 273.994446 
L 196.947101 273.967865 
L 196.947101 273.967865 
L 197.123735 272.69458 
L 197.123735 272.69458 
L 197.30037 273.303999 
L 197.30037 273.303999 
L 197.477005 271.322285 
L 197.477005 271.322285 
L 197.653639 272.314064 
L 197.830274 271.652767 
L 197.830274 271.652767 
L 198.006909 270.558013 
L 198.006909 270.558013 
L 198.183543 270.23105 
L 198.183543 270.23105 
L 198.360178 267.677891 
L 198.360178 267.677891 
L 198.536813 268.809613 
L 198.536813 268.809613 
L 198.890082 266.395169 
L 198.890082 266.395169 
L 199.066717 265.706844 
L 199.066717 265.706844 
L 199.243351 263.115544 
L 199.243351 263.115544 
L 199.419986 263.327358 
L 199.419986 263.327358 
L 199.596621 258.417442 
L 199.596621 258.417442 
L 199.773256 260.647714 
L 199.773256 260.647714 
L 200.126525 256.367543 
L 200.126525 256.367543 
L 200.30316 255.490803 
L 200.30316 255.490803 
L 200.479794 251.319638 
L 200.479794 251.319638 
L 200.656429 251.685245 
L 200.656429 251.685245 
L 200.833064 245.990282 
L 200.833064 245.990282 
L 201.009698 247.544738 
L 201.009698 247.544738 
L 201.186333 239.999406 
L 201.186333 239.999406 
L 201.362968 243.056383 
L 201.362968 243.056383 
L 201.539602 240.546559 
L 201.539602 240.546559 
L 201.716237 236.431126 
L 201.716237 236.431126 
L 201.892872 235.610955 
L 201.892872 235.610955 
L 202.069506 230.371004 
L 202.069506 230.371004 
L 202.246141 230.683448 
L 202.246141 230.683448 
L 202.422776 223.158219 
L 202.422776 223.158219 
L 202.59941 224.576138 
L 202.59941 224.576138 
L 202.776045 215.792144 
L 202.776045 215.792144 
L 202.95268 218.374006 
L 202.95268 218.374006 
L 203.129314 207.956761 
L 203.129314 207.956761 
L 203.305949 211.333721 
L 203.305949 211.333721 
L 203.835853 200.566897 
L 203.835853 200.566897 
L 204.365757 186.584108 
L 204.365757 186.584108 
L 204.542392 183.558515 
L 204.542392 183.558515 
L 204.895661 174.024544 
L 204.895661 174.024544 
L 205.425565 158.707155 
L 205.425565 158.707155 
L 205.6022 144.74112 
L 205.6022 144.74112 
L 205.778835 147.739965 
L 205.778835 147.739965 
L 205.955469 136.31564 
L 205.955469 136.31564 
L 206.132104 137.219298 
L 206.308739 127.633616 
L 206.308739 127.633616 
L 206.485373 125.920621 
L 206.485373 125.920621 
L 206.662008 120.256596 
L 206.662008 120.256596 
L 206.838643 107.120393 
L 206.838643 107.120393 
L 207.015277 109.313753 
L 207.015277 109.313753 
L 207.191912 99.663963 
L 207.191912 99.663963 
L 207.368547 97.665162 
L 207.368547 97.665162 
L 207.545182 92.933776 
L 207.545182 92.933776 
L 207.721816 81.872992 
L 207.721816 81.872992 
L 207.898451 81.687928 
L 207.898451 81.687928 
L 208.075086 75.700011 
L 208.075086 75.700011 
L 208.25172 65.791555 
L 208.25172 65.791555 
L 208.428355 65.774243 
L 208.428355 65.774243 
L 208.781624 53.568 
L 208.781624 53.568 
L 214.787203 53.568 
L 214.787203 53.568 
L 214.963838 57.432082 
L 214.963838 57.432082 
L 215.140473 58.822358 
L 215.140473 58.822358 
L 215.670377 71.907409 
L 215.670377 71.907409 
L 215.847012 77.641741 
L 215.847012 77.641741 
L 216.023646 78.335874 
L 216.023646 78.335874 
L 217.260089 109.357702 
L 217.260089 109.357702 
L 217.436724 109.414048 
L 217.436724 109.414048 
L 217.613358 113.160244 
L 217.613358 113.160244 
L 217.789993 119.3779 
L 217.789993 119.3779 
L 217.966628 120.517105 
L 217.966628 120.517105 
L 218.319897 129.82854 
L 218.319897 129.82854 
L 218.496532 137.617852 
L 218.496532 137.617852 
L 218.673166 136.031565 
L 218.673166 136.031565 
L 218.849801 140.504954 
L 218.849801 140.504954 
L 219.026436 148.092169 
L 219.026436 148.092169 
L 219.203071 146.485053 
L 219.203071 146.485053 
L 219.379705 151.901357 
L 219.379705 151.901357 
L 219.55634 153.317433 
L 219.55634 153.317433 
L 220.439513 172.020828 
L 220.439513 172.020828 
L 220.616148 171.41342 
L 220.616148 171.41342 
L 220.792783 176.052664 
L 220.792783 176.052664 
L 220.969417 176.979496 
L 220.969417 176.979496 
L 221.146052 179.355464 
L 221.146052 179.355464 
L 221.322687 184.336413 
L 221.322687 184.336413 
L 221.499321 183.780548 
L 221.499321 183.780548 
L 221.675956 187.596772 
L 221.675956 187.596772 
L 221.852591 187.868785 
L 221.852591 187.868785 
L 222.20586 191.545289 
L 222.20586 191.545289 
L 222.382495 193.017152 
L 222.382495 193.017152 
L 222.559129 196.200392 
L 222.559129 196.200392 
L 222.735764 196.017561 
L 222.735764 196.017561 
L 222.912399 198.589483 
L 222.912399 198.589483 
L 223.089034 198.574796 
L 223.089034 198.574796 
L 223.265668 200.286004 
L 223.265668 200.286004 
L 223.442303 200.694554 
L 223.442303 200.694554 
L 223.795572 202.383146 
L 223.795572 202.383146 
L 224.502111 204.638716 
L 224.502111 204.638716 
L 224.678746 204.678644 
L 224.678746 204.678644 
L 225.032015 205.127345 
L 225.032015 205.127345 
L 225.20865 205.124497 
L 225.20865 205.124497 
L 225.385284 205.340443 
L 225.385284 205.340443 
L 225.561919 205.190392 
L 225.561919 205.190392 
L 225.738554 205.411253 
L 225.738554 205.411253 
L 225.915188 205.224959 
L 225.915188 205.224959 
L 226.091823 205.444591 
L 226.091823 205.444591 
L 226.268458 205.257572 
L 226.268458 205.257572 
L 226.445092 205.472401 
L 226.621727 205.245621 
L 226.621727 205.245621 
L 226.798362 204.823892 
L 226.798362 204.823892 
L 226.974997 205.120365 
L 226.974997 205.120365 
L 227.151631 204.45957 
L 227.151631 204.45957 
L 227.328266 204.770674 
L 227.328266 204.770674 
L 227.504901 203.858528 
L 227.504901 203.858528 
L 227.681535 204.132998 
L 227.681535 204.132998 
L 227.85817 202.971735 
L 227.85817 202.971735 
L 228.034805 203.121731 
L 228.211439 201.758259 
L 228.211439 201.758259 
L 228.388074 201.661594 
L 228.917978 197.964651 
L 228.917978 197.964651 
L 229.094613 193.666555 
L 229.094613 193.666555 
L 229.271247 195.134956 
L 229.271247 195.134956 
L 229.447882 190.147753 
L 229.447882 190.147753 
L 229.624517 191.278134 
L 229.624517 191.278134 
L 229.801151 185.973684 
L 229.801151 185.973684 
L 229.977786 186.662401 
L 229.977786 186.662401 
L 230.154421 181.430882 
L 230.154421 181.430882 
L 230.331055 181.156021 
L 230.331055 181.156021 
L 230.684325 173.789834 
L 230.684325 173.789834 
L 230.86096 169.870524 
L 230.86096 169.870524 
L 231.037594 157.850015 
L 231.037594 157.850015 
L 231.214229 162.127841 
L 231.214229 162.127841 
L 231.390864 150.668949 
L 231.390864 150.668949 
L 231.567498 152.240661 
L 231.567498 152.240661 
L 231.744133 142.588247 
L 231.744133 142.588247 
L 231.920768 141.180659 
L 231.920768 141.180659 
L 232.097402 134.382399 
L 232.097402 134.382399 
L 232.274037 118.497586 
L 232.274037 118.497586 
L 232.450672 121.730526 
L 232.450672 121.730526 
L 232.627306 109.181963 
L 232.627306 109.181963 
L 232.803941 108.211684 
L 232.803941 108.211684 
L 232.980576 101.047874 
L 232.980576 101.047874 
L 233.15721 87.602857 
L 233.15721 87.602857 
L 233.333845 88.737427 
L 233.333845 88.737427 
L 233.687114 71.853687 
L 233.687114 71.853687 
L 233.863749 73.104579 
L 233.863749 73.104579 
L 234.217018 59.797998 
L 234.217018 59.797998 
L 234.393653 60.211015 
L 234.393653 60.211015 
L 234.746923 53.568 
L 234.746923 53.568 
L 240.929136 53.568 
L 240.929136 53.568 
L 241.105771 55.847303 
L 241.105771 55.847303 
L 241.282406 56.206543 
L 241.282406 56.206543 
L 241.81231 65.652002 
L 241.81231 65.652002 
L 241.988945 69.992539 
L 241.988945 69.992539 
L 242.165579 69.5019 
L 242.518849 75.856149 
L 242.518849 75.856149 
L 242.695483 79.46028 
L 242.695483 79.46028 
L 242.872118 79.950975 
L 243.402022 90.304224 
L 243.402022 90.304224 
L 243.578657 90.705068 
L 243.578657 90.705068 
L 244.108561 101.479431 
L 244.108561 101.479431 
L 244.285195 101.714197 
L 244.638465 108.874545 
L 244.638465 108.874545 
L 244.815099 113.622013 
L 244.815099 113.622013 
L 244.991734 112.828032 
L 244.991734 112.828032 
L 245.521638 120.382243 
L 245.521638 120.382243 
L 245.698273 122.50418 
L 245.698273 122.50418 
L 245.874908 126.648651 
L 245.874908 126.648651 
L 246.051542 127.233554 
L 246.051542 127.233554 
L 246.934716 136.973252 
L 246.934716 136.973252 
L 247.11135 137.468583 
L 247.11135 137.468583 
L 247.46462 140.659473 
L 247.46462 140.659473 
L 247.641254 140.997437 
L 247.641254 140.997437 
L 247.817889 141.798175 
L 247.817889 141.798175 
L 247.994524 143.294721 
L 247.994524 143.294721 
L 248.171158 143.491457 
L 248.171158 143.491457 
L 248.347793 144.509426 
L 248.347793 144.509426 
L 248.701062 145.027987 
L 248.701062 145.027987 
L 249.054332 145.551128 
L 249.054332 145.551128 
L 249.230966 146.191484 
L 249.230966 146.191484 
L 249.407601 145.752443 
L 249.584236 146.048246 
L 249.584236 146.048246 
L 249.937505 145.757358 
L 249.937505 145.757358 
L 250.290775 146.213151 
L 250.290775 146.213151 
L 250.467409 145.679233 
L 250.467409 145.679233 
L 250.644044 146.402069 
L 250.644044 146.402069 
L 250.820679 146.146977 
L 250.820679 146.146977 
L 250.997313 145.148051 
L 250.997313 145.148051 
L 251.173948 145.968948 
L 251.173948 145.968948 
L 251.880487 142.968037 
L 251.880487 142.968037 
L 252.057121 143.148523 
L 252.057121 143.148523 
L 252.233756 142.482312 
L 252.233756 142.482312 
L 252.410391 139.754977 
L 252.410391 139.754977 
L 252.587025 140.228529 
L 252.587025 140.228529 
L 252.76366 138.456563 
L 252.76366 138.456563 
L 252.940295 135.238701 
L 252.940295 135.238701 
L 253.116929 136.20803 
L 253.116929 136.20803 
L 253.470199 133.104647 
L 253.470199 133.104647 
L 253.646834 131.612177 
L 253.646834 131.612177 
L 253.823468 127.533545 
L 253.823468 127.533545 
L 254.000103 127.462847 
L 254.000103 127.462847 
L 254.176738 125.693785 
L 254.176738 125.693785 
L 254.353372 120.730092 
L 254.353372 120.730092 
L 254.530007 121.018969 
L 254.530007 121.018969 
L 254.706642 118.339772 
L 254.706642 118.339772 
L 254.883276 113.286562 
L 254.883276 113.286562 
L 255.059911 113.850245 
L 255.059911 113.850245 
L 255.236546 110.718437 
L 255.236546 110.718437 
L 255.41318 105.349656 
L 255.41318 105.349656 
L 255.589815 106.025472 
L 255.589815 106.025472 
L 255.943084 96.637197 
L 255.943084 96.637197 
L 256.119719 97.576762 
L 256.472988 88.147832 
L 256.649623 88.299335 
L 256.826258 84.99715 
L 256.826258 84.99715 
L 257.002892 79.234114 
L 257.002892 79.234114 
L 257.179527 77.69965 
L 257.179527 77.69965 
L 257.356162 74.569853 
L 257.356162 74.569853 
L 257.709431 62.655391 
L 257.709431 62.655391 
L 257.886066 63.514039 
L 257.886066 63.514039 
L 258.41597 53.568 
L 258.41597 53.568 
L 276.079438 53.568 
L 276.079438 53.568 
L 276.256073 59.067511 
L 276.256073 59.067511 
L 276.432707 60.621241 
L 276.432707 60.621241 
L 276.962612 83.961925 
L 276.962612 83.961925 
L 277.139246 94.954804 
L 277.139246 94.954804 
L 277.315881 94.544523 
L 277.315881 94.544523 
L 277.66915 110.538007 
L 277.66915 110.538007 
L 277.845785 123.492551 
L 277.845785 123.492551 
L 278.02242 121.253679 
L 278.02242 121.253679 
L 278.199054 128.154021 
L 278.199054 128.154021 
L 278.375689 141.899363 
L 278.375689 141.899363 
L 278.552324 141.609536 
L 278.552324 141.609536 
L 278.728958 148.111546 
L 278.728958 148.111546 
L 278.905593 161.345028 
L 278.905593 161.345028 
L 279.082228 160.629619 
L 279.082228 160.629619 
L 279.258862 168.110396 
L 279.258862 168.110396 
L 279.435497 182.751075 
L 279.435497 182.751075 
L 279.612132 179.21217 
L 279.612132 179.21217 
L 279.788766 189.652701 
L 279.965401 190.858862 
L 279.965401 190.858862 
L 280.142036 197.636237 
L 280.142036 197.636237 
L 280.31867 211.05456 
L 280.31867 211.05456 
L 280.495305 206.264149 
L 280.495305 206.264149 
L 280.67194 218.824941 
L 280.67194 218.824941 
L 280.848575 215.833524 
L 280.848575 215.833524 
L 281.025209 226.183589 
L 281.025209 226.183589 
L 281.201844 224.291616 
L 281.201844 224.291616 
L 281.378479 233.684247 
L 281.378479 233.684247 
L 281.555113 232.294026 
L 281.555113 232.294026 
L 281.731748 241.088742 
L 281.731748 241.088742 
L 281.908383 239.623189 
L 281.908383 239.623189 
L 282.085017 247.752196 
L 282.085017 247.752196 
L 282.261652 246.624719 
L 282.261652 246.624719 
L 282.438287 254.559782 
L 282.438287 254.559782 
L 282.614921 252.081062 
L 282.614921 252.081062 
L 283.674729 270.631559 
L 283.674729 270.631559 
L 283.851364 269.987517 
L 283.851364 269.987517 
L 284.027999 276.281735 
L 284.027999 276.281735 
L 284.204633 274.364855 
L 284.204633 274.364855 
L 284.381268 275.8848 
L 284.381268 275.8848 
L 284.557903 279.150688 
L 284.557903 279.150688 
L 284.734538 279.44945 
L 284.734538 279.44945 
L 284.911172 283.909325 
L 284.911172 283.909325 
L 285.087807 282.605382 
L 285.087807 282.605382 
L 285.794346 289.728315 
L 285.794346 289.728315 
L 285.97098 289.18669 
L 285.97098 289.18669 
L 286.147615 289.945713 
L 286.147615 289.945713 
L 286.32425 291.534736 
L 286.32425 291.534736 
L 286.500884 292.057095 
L 286.500884 292.057095 
L 286.677519 293.499585 
L 286.677519 293.499585 
L 286.854154 293.29034 
L 286.854154 293.29034 
L 287.207423 294.412568 
L 287.207423 294.412568 
L 287.913962 295.361626 
L 287.913962 295.361626 
L 288.090596 295.260047 
L 288.090596 295.260047 
L 288.267231 295.407195 
L 288.267231 295.407195 
L 288.443866 295.222744 
L 288.443866 295.222744 
L 288.797135 295.488 
L 288.797135 295.488 
L 288.97377 295.279425 
L 288.97377 295.279425 
L 289.150405 295.413226 
L 289.150405 295.413226 
L 289.327039 295.112286 
L 289.327039 295.112286 
L 289.680309 295.394518 
L 289.680309 295.394518 
L 289.856943 294.847867 
L 289.856943 294.847867 
L 290.033578 295.034831 
L 290.033578 295.034831 
L 290.386847 294.2657 
L 290.386847 294.2657 
L 290.563482 294.23588 
L 290.563482 294.23588 
L 290.740117 292.675672 
L 290.740117 292.675672 
L 290.916751 293.070429 
L 290.916751 293.070429 
L 291.446655 290.898736 
L 291.446655 290.898736 
L 291.62329 288.083672 
L 291.62329 288.083672 
L 291.799925 288.735364 
L 291.97656 287.845333 
L 291.97656 287.845333 
L 292.153194 285.611877 
L 292.153194 285.611877 
L 292.329829 285.174735 
L 292.329829 285.174735 
L 292.506464 281.671178 
L 292.506464 281.671178 
L 292.683098 282.131551 
L 292.683098 282.131551 
L 292.859733 276.647397 
L 292.859733 276.647397 
L 293.036368 278.475821 
L 293.036368 278.475821 
L 293.213002 277.292109 
L 293.213002 277.292109 
L 293.389637 273.554624 
L 293.389637 273.554624 
L 293.566272 273.913585 
L 293.566272 273.913585 
L 293.742906 267.478084 
L 293.742906 267.478084 
L 293.919541 269.448796 
L 294.096176 268.078456 
L 294.096176 268.078456 
L 294.27281 263.687101 
L 294.27281 263.687101 
L 294.449445 264.369563 
L 294.449445 264.369563 
L 294.62608 256.544064 
L 294.62608 256.544064 
L 294.802714 259.042776 
L 294.802714 259.042776 
L 294.979349 257.423932 
L 295.155984 252.467219 
L 295.155984 252.467219 
L 295.332618 253.033806 
L 295.332618 253.033806 
L 295.509253 244.375795 
L 295.509253 244.375795 
L 295.685888 247.333929 
L 295.685888 247.333929 
L 296.215792 239.149693 
L 296.215792 239.149693 
L 296.392427 231.550807 
L 296.392427 231.550807 
L 296.569061 232.71112 
L 296.569061 232.71112 
L 296.745696 223.619038 
L 296.745696 223.619038 
L 296.922331 226.750623 
L 296.922331 226.750623 
L 297.982139 204.03315 
L 297.982139 204.03315 
L 298.158773 203.479519 
L 298.158773 203.479519 
L 298.335408 197.011796 
L 298.335408 197.011796 
L 298.512043 197.287997 
L 298.512043 197.287997 
L 298.688677 191.054035 
L 298.688677 191.054035 
L 298.865312 191.484755 
L 298.865312 191.484755 
L 299.041947 185.810287 
L 299.041947 185.810287 
L 299.218581 186.168187 
L 299.218581 186.168187 
L 299.395216 181.255478 
L 299.395216 181.255478 
L 299.571851 181.362753 
L 299.571851 181.362753 
L 299.748486 177.138035 
L 299.748486 177.138035 
L 299.92512 177.015962 
L 299.92512 177.015962 
L 300.101755 173.526868 
L 300.101755 173.526868 
L 300.27839 172.822795 
L 300.27839 172.822795 
L 300.631659 168.863053 
L 300.631659 168.863053 
L 300.808294 166.434202 
L 300.808294 166.434202 
L 300.984928 161.018233 
L 300.984928 161.018233 
L 301.161563 162.192842 
L 301.161563 162.192842 
L 301.338198 157.170346 
L 301.338198 157.170346 
L 301.514832 157.257126 
L 301.514832 157.257126 
L 301.868102 151.365484 
L 301.868102 151.365484 
L 302.044736 148.291306 
L 302.044736 148.291306 
L 302.221371 139.445773 
L 302.221371 139.445773 
L 302.398006 140.758706 
L 302.398006 140.758706 
L 302.57464 136.185693 
L 302.57464 136.185693 
L 302.751275 137.573959 
L 302.751275 137.573959 
L 302.92791 142.515985 
L 302.92791 142.515985 
L 303.104544 155.987025 
L 303.281179 154.064226 
L 303.281179 154.064226 
L 303.457814 165.403445 
L 303.457814 165.403445 
L 303.634449 167.715919 
L 303.634449 167.715919 
L 303.811083 174.082621 
L 303.811083 174.082621 
L 303.987718 186.321812 
L 303.987718 186.321812 
L 304.164353 184.240139 
L 304.164353 184.240139 
L 304.340987 192.069435 
L 304.340987 192.069435 
L 304.517622 192.90474 
L 304.517622 192.90474 
L 304.870891 201.441795 
L 304.870891 201.441795 
L 305.047526 204.952053 
L 305.047526 204.952053 
L 305.224161 213.850749 
L 305.224161 213.850749 
L 305.400795 211.581721 
L 305.400795 211.581721 
L 305.57743 218.358258 
L 305.57743 218.358258 
L 305.754065 217.575669 
L 305.930699 222.958523 
L 305.930699 222.958523 
L 306.107334 222.952101 
L 306.107334 222.952101 
L 306.283969 227.443304 
L 306.283969 227.443304 
L 306.460603 227.784228 
L 306.460603 227.784228 
L 306.637238 231.843259 
L 306.637238 231.843259 
L 306.813873 232.13571 
L 306.813873 232.13571 
L 306.990507 236.202336 
L 306.990507 236.202336 
L 307.167142 236.059712 
L 307.167142 236.059712 
L 307.343777 239.290977 
L 307.343777 239.290977 
L 307.520412 239.710472 
L 307.520412 239.710472 
L 307.697046 243.033599 
L 307.697046 243.033599 
L 307.873681 243.203251 
L 307.873681 243.203251 
L 308.050316 246.11593 
L 308.050316 246.11593 
L 308.22695 246.432618 
L 308.22695 246.432618 
L 308.403585 248.892909 
L 308.403585 248.892909 
L 308.58022 248.720632 
L 308.58022 248.720632 
L 308.756854 251.604328 
L 308.756854 251.604328 
L 308.933489 251.101346 
L 308.933489 251.101346 
L 309.110124 253.267566 
L 309.110124 253.267566 
L 309.286758 252.740852 
L 309.286758 252.740852 
L 309.816662 255.43267 
L 309.816662 255.43267 
L 309.993297 257.011138 
L 309.993297 257.011138 
L 310.169932 257.208433 
L 310.169932 257.208433 
L 310.346566 257.845494 
L 310.346566 257.845494 
L 310.523201 258.043905 
L 310.523201 258.043905 
L 310.699836 259.563124 
L 310.699836 259.563124 
L 311.053105 259.636112 
L 311.053105 259.636112 
L 311.22974 260.348282 
L 311.22974 260.348282 
L 311.406375 259.951738 
L 311.583009 261.0007 
L 311.583009 261.0007 
L 311.759644 261.160077 
L 311.759644 261.160077 
L 311.936279 260.982663 
L 311.936279 260.982663 
L 312.112913 261.138577 
L 312.112913 261.138577 
L 312.289548 260.879297 
L 312.289548 260.879297 
L 312.466183 261.278912 
L 312.466183 261.278912 
L 312.642817 261.190121 
L 312.642817 261.190121 
L 312.819452 261.658312 
L 312.819452 261.658312 
L 312.996087 261.534451 
L 312.996087 261.534451 
L 313.349356 261.720521 
L 313.349356 261.720521 
L 313.525991 261.110209 
L 313.525991 261.110209 
L 313.702625 261.720689 
L 313.702625 261.720689 
L 313.87926 261.214804 
L 313.87926 261.214804 
L 314.055895 261.653118 
L 314.055895 261.653118 
L 314.232529 261.5612 
L 314.232529 261.5612 
L 314.585799 260.820661 
L 314.585799 260.820661 
L 314.762433 260.572158 
L 314.762433 260.572158 
L 314.939068 261.138131 
L 314.939068 261.138131 
L 315.115703 259.857698 
L 315.115703 259.857698 
L 315.292338 260.583327 
L 315.292338 260.583327 
L 315.645607 259.525095 
L 315.645607 259.525095 
L 315.822242 258.855254 
L 315.822242 258.855254 
L 315.998876 257.723085 
L 315.998876 257.723085 
L 316.175511 257.940316 
L 316.175511 257.940316 
L 316.352146 255.033836 
L 316.352146 255.033836 
L 316.52878 256.648659 
L 316.52878 256.648659 
L 316.705415 252.702208 
L 316.705415 252.702208 
L 316.88205 254.34244 
L 316.88205 254.34244 
L 317.058684 253.409297 
L 317.058684 253.409297 
L 317.235319 251.613933 
L 317.235319 251.613933 
L 317.411954 251.436072 
L 317.411954 251.436072 
L 317.588588 247.771351 
L 317.588588 247.771351 
L 317.765223 248.304878 
L 317.765223 248.304878 
L 317.941858 244.246406 
L 317.941858 244.246406 
L 318.118492 245.874798 
L 318.118492 245.874798 
L 318.825031 237.940014 
L 318.825031 237.940014 
L 319.001666 237.583678 
L 319.001666 237.583678 
L 319.178301 233.246267 
L 319.178301 233.246267 
L 319.354935 233.566641 
L 319.354935 233.566641 
L 319.53157 228.735017 
L 319.53157 228.735017 
L 319.708205 229.736512 
L 319.708205 229.736512 
L 319.884839 224.036077 
L 319.884839 224.036077 
L 320.061474 226.094966 
L 320.061474 226.094966 
L 320.238109 219.263982 
L 320.238109 219.263982 
L 320.414743 221.843778 
L 320.414743 221.843778 
L 322.357725 196.032918 
L 322.357725 196.032918 
L 322.710994 190.967366 
L 322.710994 190.967366 
L 323.240898 182.607167 
L 323.240898 182.607167 
L 323.417533 175.063845 
L 323.417533 175.063845 
L 323.594168 177.01356 
L 323.594168 177.01356 
L 323.770802 170.296106 
L 323.770802 170.296106 
L 323.947437 171.627244 
L 324.124072 165.130427 
L 324.124072 165.130427 
L 324.300706 165.524346 
L 324.300706 165.524346 
L 324.477341 159.624271 
L 324.477341 159.624271 
L 324.653976 158.669293 
L 324.653976 158.669293 
L 325.18388 148.18928 
L 325.18388 148.18928 
L 325.360514 139.273887 
L 325.360514 139.273887 
L 325.537149 140.123655 
L 325.537149 140.123655 
L 325.713784 133.832453 
L 325.713784 133.832453 
L 325.890418 131.800369 
L 325.890418 131.800369 
L 326.067053 127.305481 
L 326.067053 127.305481 
L 326.243688 117.276403 
L 326.243688 117.276403 
L 326.420322 118.13533 
L 326.420322 118.13533 
L 326.596957 113.165996 
L 326.596957 113.165996 
L 326.773592 113.022869 
L 326.773592 113.022869 
L 326.950227 115.316412 
L 326.950227 115.316412 
L 327.126861 123.999107 
L 327.126861 123.999107 
L 327.303496 125.414568 
L 327.303496 125.414568 
L 327.480131 130.463088 
L 327.480131 130.463088 
L 327.656765 139.810821 
L 327.656765 139.810821 
L 327.8334 140.093277 
L 327.8334 140.093277 
L 328.010035 145.032232 
L 328.010035 145.032232 
L 328.186669 153.88106 
L 328.186669 153.88106 
L 328.363304 153.514281 
L 328.363304 153.514281 
L 328.716573 166.436715 
L 328.716573 166.436715 
L 328.893208 164.255696 
L 328.893208 164.255696 
L 329.069843 170.652331 
L 329.069843 170.652331 
L 329.246477 171.169329 
L 329.246477 171.169329 
L 329.423112 175.177151 
L 329.423112 175.177151 
L 329.599747 181.884163 
L 329.599747 181.884163 
L 329.776381 180.385439 
L 329.776381 180.385439 
L 329.953016 185.55095 
L 329.953016 185.55095 
L 330.129651 185.632705 
L 330.129651 185.632705 
L 330.48292 190.382518 
L 330.48292 190.382518 
L 330.659555 192.395057 
L 330.659555 192.395057 
L 330.83619 196.911948 
L 330.83619 196.911948 
L 331.012824 196.335365 
L 331.189459 200.001929 
L 331.189459 200.001929 
L 331.366094 199.822504 
L 331.366094 199.822504 
L 331.542728 202.382699 
L 331.542728 202.382699 
L 331.719363 202.812917 
L 331.719363 202.812917 
L 332.072632 205.299901 
L 332.072632 205.299901 
L 332.779171 209.186097 
L 332.779171 209.186097 
L 332.955806 208.989528 
L 332.955806 208.989528 
L 333.13244 209.658588 
L 333.13244 209.658588 
L 333.48571 209.992587 
L 333.48571 209.992587 
L 333.662344 210.184074 
L 333.662344 210.184074 
L 333.838979 210.135713 
L 333.838979 210.135713 
L 334.015614 210.351492 
L 334.015614 210.351492 
L 334.192248 210.180556 
L 334.192248 210.180556 
L 334.368883 210.394156 
L 334.368883 210.394156 
L 334.545518 210.204792 
L 334.545518 210.204792 
L 334.722153 210.418392 
L 334.722153 210.418392 
L 334.898787 210.211493 
L 334.898787 210.211493 
L 335.075422 210.413199 
L 335.075422 210.413199 
L 335.252057 210.133312 
L 335.252057 210.133312 
L 335.428691 210.271189 
L 335.428691 210.271189 
L 335.605326 209.866269 
L 335.605326 209.866269 
L 335.781961 208.868851 
L 335.781961 208.868851 
L 335.958595 209.308282 
L 335.958595 209.308282 
L 336.13523 207.925824 
L 336.13523 207.925824 
L 336.311865 208.357325 
L 336.311865 208.357325 
L 336.488499 206.565982 
L 336.488499 206.565982 
L 336.665134 206.933878 
L 336.665134 206.933878 
L 336.841769 204.801722 
L 336.841769 204.801722 
L 337.018403 204.941778 
L 337.018403 204.941778 
L 337.195038 202.495671 
L 337.195038 202.495671 
L 337.371673 202.270398 
L 337.371673 202.270398 
L 337.548307 199.431322 
L 337.548307 199.431322 
L 337.724942 198.60417 
L 337.724942 198.60417 
L 338.254846 191.146288 
L 338.254846 191.146288 
L 338.431481 183.042745 
L 338.431481 183.042745 
L 338.608116 185.407098 
L 338.608116 185.407098 
L 338.78475 176.594623 
L 338.78475 176.594623 
L 338.961385 177.99713 
L 338.961385 177.99713 
L 339.13802 168.830608 
L 339.13802 168.830608 
L 339.314654 168.973847 
L 339.314654 168.973847 
L 339.491289 159.493597 
L 339.491289 159.493597 
L 339.667924 158.046584 
L 339.667924 158.046584 
L 339.844558 154.4128 
L 339.844558 154.4128 
L 340.021193 156.342468 
L 340.021193 156.342468 
L 340.727732 177.180923 
L 340.727732 177.180923 
L 340.904366 177.802906 
L 340.904366 177.802906 
L 341.257636 184.535829 
L 341.257636 184.535829 
L 341.43427 184.612223 
L 341.43427 184.612223 
L 341.610905 186.471472 
L 341.610905 186.471472 
L 342.140809 187.758383 
L 342.140809 187.758383 
L 342.317444 188.199713 
L 342.317444 188.199713 
L 342.494079 187.731466 
L 342.494079 187.731466 
L 342.670713 188.342057 
L 342.670713 188.342057 
L 342.847348 188.183406 
L 342.847348 188.183406 
L 343.023983 188.399576 
L 343.023983 188.399576 
L 343.200617 188.239026 
L 343.200617 188.239026 
L 343.377252 188.410689 
L 343.377252 188.410689 
L 343.553887 187.91346 
L 343.730521 186.090732 
L 343.730521 186.090732 
L 343.907156 187.098202 
L 343.907156 187.098202 
L 344.083791 184.983358 
L 344.083791 184.983358 
L 344.260425 185.35561 
L 344.260425 185.35561 
L 344.43706 182.595049 
L 344.43706 182.595049 
L 344.613695 182.026787 
L 344.613695 182.026787 
L 344.790329 179.520537 
L 344.790329 179.520537 
L 344.966964 171.158774 
L 344.966964 171.158774 
L 345.143599 174.277961 
L 345.143599 174.277961 
L 345.320233 165.881129 
L 345.320233 165.881129 
L 345.496868 166.929756 
L 345.496868 166.929756 
L 345.673503 159.520402 
L 345.850138 157.591796 
L 345.850138 157.591796 
L 346.026772 151.309529 
L 346.026772 151.309529 
L 346.380042 146.266482 
L 346.380042 146.266482 
L 346.556676 157.711301 
L 346.556676 157.711301 
L 346.733311 157.452578 
L 346.733311 157.452578 
L 346.909946 164.783416 
L 346.909946 164.783416 
L 347.08658 166.875197 
L 347.08658 166.875197 
L 347.43985 176.332215 
L 347.43985 176.332215 
L 347.616484 176.418996 
L 347.616484 176.418996 
L 347.969754 182.571986 
L 347.969754 182.571986 
L 348.146388 182.605994 
L 348.146388 182.605994 
L 348.323023 184.449496 
L 348.323023 184.449496 
L 348.499658 184.730723 
L 348.499658 184.730723 
L 348.852927 185.944143 
L 348.852927 185.944143 
L 349.382831 186.512517 
L 349.382831 186.512517 
L 349.736101 186.206607 
L 349.736101 186.206607 
L 350.08937 186.680438 
L 350.08937 186.680438 
L 350.266005 186.491632 
L 350.266005 186.491632 
L 350.442639 185.803865 
L 350.442639 185.803865 
L 350.619274 186.497439 
L 350.619274 186.497439 
L 350.795909 185.683131 
L 350.795909 185.683131 
L 350.972543 186.361237 
L 350.972543 186.361237 
L 351.325813 185.590152 
L 351.325813 185.590152 
L 351.679082 185.456854 
L 351.679082 185.456854 
L 351.855717 184.918692 
L 351.855717 184.918692 
L 352.032351 183.309565 
L 352.032351 183.309565 
L 352.208986 184.138504 
L 352.208986 184.138504 
L 352.385621 183.030571 
L 352.385621 183.030571 
L 352.562255 183.246071 
L 352.562255 183.246071 
L 352.73889 182.289586 
L 352.73889 182.289586 
L 352.915525 182.259542 
L 352.915525 182.259542 
L 353.092159 181.495326 
L 353.092159 181.495326 
L 353.268794 179.813938 
L 353.268794 179.813938 
L 353.445429 180.444577 
L 353.445429 180.444577 
L 353.622064 178.488998 
L 353.622064 178.488998 
L 353.798698 179.248244 
L 353.798698 179.248244 
L 353.975333 177.926153 
L 353.975333 177.926153 
L 354.328602 176.869875 
L 354.328602 176.869875 
L 354.505237 174.396014 
L 354.505237 174.396014 
L 354.681872 175.497245 
L 354.681872 175.497245 
L 354.858506 172.943417 
L 354.858506 172.943417 
L 355.035141 173.396362 
L 355.211776 172.013569 
L 355.211776 172.013569 
L 355.38841 171.895739 
L 355.38841 171.895739 
L 355.565045 170.553432 
L 355.565045 170.553432 
L 355.74168 167.367121 
L 355.74168 167.367121 
L 355.918314 168.464946 
L 355.918314 168.464946 
L 356.094949 165.724042 
L 356.094949 165.724042 
L 356.271584 166.077586 
L 356.271584 166.077586 
L 356.448218 163.462665 
L 356.448218 163.462665 
L 356.801488 161.950594 
L 356.801488 161.950594 
L 356.978122 158.301788 
L 356.978122 158.301788 
L 357.154757 159.163675 
L 357.154757 159.163675 
L 357.331392 156.342859 
L 357.331392 156.342859 
L 357.508027 156.165947 
L 357.508027 156.165947 
L 357.684661 154.319319 
L 357.684661 154.319319 
L 357.861296 150.354328 
L 357.861296 150.354328 
L 358.037931 151.288476 
L 358.037931 151.288476 
L 358.214565 148.394952 
L 358.214565 148.394952 
L 358.3912 148.299292 
L 358.3912 148.299292 
L 358.567835 146.421056 
L 358.567835 146.421056 
L 358.744469 142.518722 
L 358.744469 142.518722 
L 358.921104 143.28171 
L 358.921104 143.28171 
L 359.097739 140.756808 
L 359.097739 140.756808 
L 359.274373 140.468041 
L 359.274373 140.468041 
L 359.451008 139.339615 
L 359.451008 139.339615 
L 359.627643 136.41359 
L 359.627643 136.41359 
L 359.804277 136.758702 
L 359.804277 136.758702 
L 359.980912 135.007007 
L 359.980912 135.007007 
L 360.157547 131.92853 
L 360.157547 131.92853 
L 360.334181 132.676887 
L 360.334181 132.676887 
L 360.510816 130.849636 
L 360.510816 130.849636 
L 360.687451 130.730354 
L 360.687451 130.730354 
L 361.04072 127.939135 
L 361.217355 128.108341 
L 361.39399 127.659807 
L 361.39399 127.659807 
L 361.570624 125.676418 
L 361.570624 125.676418 
L 361.747259 125.99171 
L 361.747259 125.99171 
L 362.100528 123.723799 
L 362.100528 123.723799 
L 362.277163 124.129612 
L 362.277163 124.129612 
L 362.453798 123.64545 
L 362.453798 123.64545 
L 362.630432 121.668149 
L 362.630432 121.668149 
L 362.807067 122.156946 
L 362.807067 122.156946 
L 363.160336 119.058756 
L 363.160336 119.058756 
L 363.336971 119.662757 
L 363.336971 119.662757 
L 363.69024 115.549279 
L 363.69024 115.549279 
L 363.866875 116.276025 
L 363.866875 116.276025 
L 364.220144 110.879824 
L 364.220144 110.879824 
L 364.396779 111.693965 
L 364.396779 111.693965 
L 364.750048 104.591359 
L 364.750048 104.591359 
L 364.926683 105.679857 
L 364.926683 105.679857 
L 365.279953 97.340042 
L 365.279953 97.340042 
L 365.456587 97.952364 
L 365.456587 97.952364 
L 366.869665 66.096292 
L 366.869665 66.096292 
L 367.046299 57.653612 
L 367.046299 57.653612 
L 367.222934 57.987723 
L 367.222934 57.987723 
L 367.399569 53.568 
L 367.399569 53.568 
L 394.954579 53.568 
L 394.954579 53.568 
L 395.131214 53.683707 
L 395.131214 53.683707 
L 395.484483 53.568 
L 395.484483 53.568 
L 396.720926 53.568 
L 396.720926 53.568 
L 397.074195 53.834931 
L 397.074195 53.834931 
L 397.25083 53.568 
L 397.25083 53.568 
L 397.957369 53.568 
L 397.957369 53.568 
L 398.310638 53.915234 
L 398.310638 53.915234 
L 398.487273 53.568 
L 398.487273 53.568 
" clip-path="url(#p26c5713a65)" style="fill: none; stroke: #ff7f0e; stroke-width: 1.5; stroke-linecap: square"/>
   </g>
   <g id="patch_3">
    <path d="M 57.6 307.584 
L 57.6 41.472 
" style="fill: none; stroke: #000000; stroke-width: 0.8; stroke-linejoin: miter; stroke-linecap: square"/>
   </g>
   <g id="patch_4">
    <path d="M 414.72 307.584 
L 414.72 41.472 
" style="fill: none; stroke: #000000; stroke-width: 0.8; stroke-linejoin: miter; stroke-linecap: square"/>
   </g>
   <g id="patch_5">
    <path d="M 57.6 307.584 
L 414.72 307.584 
" style="fill: none; stroke: #000000; stroke-width: 0.8; stroke-linejoin: miter; stroke-linecap: square"/>
   </g>
   <g id="patch_6">
    <path d="M 57.6 41.472 
L 414.72 41.472 
" style="fill: none; stroke: #000000; stroke-width: 0.8; stroke-linejoin: miter; stroke-linecap: square"/>
   </g>
   <g id="text_16">
    <!-- Actual speed vs Expected speed -->
    <g transform="translate(138.808125 35.472) scale(0.12 -0.12)">
     <defs>
      <path id="DejaVuSans-41" d="M 2188 4044 
L 1331 1722 
L 3047 1722 
L 2188 4044 
z
M 1831 4666 
L 2547 4666 
L 4325 0 
L 3669 0 
L 3244 1197 
L 1141 1197 
L 716 0 
L 50 0 
L 1831 4666 
z
" transform="scale(0.015625)"/>
      <path id="DejaVuSans-75" d="M 544 1381 
L 544 3500 
L 1119 3500 
L 1119 1403 
Q 1119 906 1312 657 
Q 1506 409 1894 409 
Q 2359 409 2629 706 
Q 2900 1003 2900 1516 
L 2900 3500 
L 3475 3500 
L 3475 0 
L 2900 0 
L 2900 538 
Q 2691 219 2414 64 
Q 2138 -91 1772 -91 
Q 1169 -91 856 284 
Q 544 659 544 1381 
z
M 1991 3584 
L 1991 3584 
z
" transform="scale(0.015625)"/>
      <path id="DejaVuSans-61" d="M 2194 1759 
Q 1497 1759 1228 1600 
Q 959 1441 959 1056 
Q 959 750 1161 570 
Q 1363 391 1709 391 
Q 2188 391 2477 730 
Q 2766 1069 2766 1631 
L 2766 1759 
L 2194 1759 
z
M 3341 1997 
L 3341 0 
L 2766 0 
L 2766 531 
Q 2569 213 2275 61 
Q 1981 -91 1556 -91 
Q 1019 -91 701 211 
Q 384 513 384 1019 
Q 384 1609 779 1909 
Q 1175 2209 1959 2209 
L 2766 2209 
L 2766 2266 
Q 2766 2663 2505 2880 
Q 2244 3097 1772 3097 
Q 1472 3097 1187 3025 
Q 903 2953 641 2809 
L 641 3341 
Q 956 3463 1253 3523 
Q 1550 3584 1831 3584 
Q 2591 3584 2966 3190 
Q 3341 2797 3341 1997 
z
" transform="scale(0.015625)"/>
      <path id="DejaVuSans-20" transform="scale(0.015625)"/>
      <path id="DejaVuSans-70" d="M 1159 525 
L 1159 -1331 
L 581 -1331 
L 581 3500 
L 1159 3500 
L 1159 2969 
Q 1341 3281 1617 3432 
Q 1894 3584 2278 3584 
Q 2916 3584 3314 3078 
Q 3713 2572 3713 1747 
Q 3713 922 3314 415 
Q 2916 -91 2278 -91 
Q 1894 -91 1617 61 
Q 1341 213 1159 525 
z
M 3116 1747 
Q 3116 2381 2855 2742 
Q 2594 3103 2138 3103 
Q 1681 3103 1420 2742 
Q 1159 2381 1159 1747 
Q 1159 1113 1420 752 
Q 1681 391 2138 391 
Q 2594 391 2855 752 
Q 3116 1113 3116 1747 
z
" transform="scale(0.015625)"/>
      <path id="DejaVuSans-64" d="M 2906 2969 
L 2906 4863 
L 3481 4863 
L 3481 0 
L 2906 0 
L 2906 525 
Q 2725 213 2448 61 
Q 2172 -91 1784 -91 
Q 1150 -91 751 415 
Q 353 922 353 1747 
Q 353 2572 751 3078 
Q 1150 3584 1784 3584 
Q 2172 3584 2448 3432 
Q 2725 3281 2906 2969 
z
M 947 1747 
Q 947 1113 1208 752 
Q 1469 391 1925 391 
Q 2381 391 2643 752 
Q 2906 1113 2906 1747 
Q 2906 2381 2643 2742 
Q 2381 3103 1925 3103 
Q 1469 3103 1208 2742 
Q 947 2381 947 1747 
z
" transform="scale(0.015625)"/>
      <path id="DejaVuSans-76" d="M 191 3500 
L 800 3500 
L 1894 563 
L 2988 3500 
L 3597 3500 
L 2284 0 
L 1503 0 
L 191 3500 
z
" transform="scale(0.015625)"/>
      <path id="DejaVuSans-45" d="M 628 4666 
L 3578 4666 
L 3578 4134 
L 1259 4134 
L 1259 2753 
L 3481 2753 
L 3481 2222 
L 1259 2222 
L 1259 531 
L 3634 531 
L 3634 0 
L 628 0 
L 628 4666 
z
" transform="scale(0.015625)"/>
      <path id="DejaVuSans-78" d="M 3513 3500 
L 2247 1797 
L 3578 0 
L 2900 0 
L 1881 1375 
L 863 0 
L 184 0 
L 1544 1831 
L 300 3500 
L 978 3500 
L 1906 2253 
L 2834 3500 
L 3513 3500 
z
" transform="scale(0.015625)"/>
     </defs>
     <use xlink:href="#DejaVuSans-41"/>
     <use xlink:href="#DejaVuSans-63" x="66.658203"/>
     <use xlink:href="#DejaVuSans-74" x="121.638672"/>
     <use xlink:href="#DejaVuSans-75" x="160.847656"/>
     <use xlink:href="#DejaVuSans-61" x="224.226562"/>
     <use xlink:href="#DejaVuSans-6c" x="285.505859"/>
     <use xlink:href="#DejaVuSans-20" x="313.289062"/>
     <use xlink:href="#DejaVuSans-73" x="345.076172"/>
     <use xlink:href="#DejaVuSans-70" x="397.175781"/>
     <use xlink:href="#DejaVuSans-65" x="460.652344"/>
     <use xlink:href="#DejaVuSans-65" x="522.175781"/>
     <use xlink:href="#DejaVuSans-64" x="583.699219"/>
     <use xlink:href="#DejaVuSans-20" x="647.175781"/>
     <use xlink:href="#DejaVuSans-76" x="678.962891"/>
     <use xlink:href="#DejaVuSans-73" x="738.142578"/>
     <use xlink:href="#DejaVuSans-20" x="790.242188"/>
     <use xlink:href="#DejaVuSans-45" x="822.029297"/>
     <use xlink:href="#DejaVuSans-78" x="885.212891"/>
     <use xlink:href="#DejaVuSans-70" x="944.392578"/>
     <use xlink:href="#DejaVuSans-65" x="1007.869141"/>
     <use xlink:href="#DejaVuSans-63" x="1069.392578"/>
     <use xlink:href="#DejaVuSans-74" x="1124.373047"/>
     <use xlink:href="#DejaVuSans-65" x="1163.582031"/>
     <use xlink:href="#DejaVuSans-64" x="1225.105469"/>
     <use xlink:href="#DejaVuSans-20" x="1288.582031"/>
     <use xlink:href="#DejaVuSans-73" x="1320.369141"/>
     <use xlink:href="#DejaVuSans-70" x="1372.46875"/>
     <use xlink:href="#DejaVuSans-65" x="1435.945312"/>
     <use xlink:href="#DejaVuSans-65" x="1497.46875"/>
     <use xlink:href="#DejaVuSans-64" x="1558.992188"/>
    </g>
   </g>
   <g id="legend_1">
    <g id="patch_7">
     <path d="M 64.6 302.584 
L 176.65 302.584 
Q 178.65 302.584 178.65 300.584 
L 178.65 272.22775 
Q 178.65 270.22775 176.65 270.22775 
L 64.6 270.22775 
Q 62.6 270.22775 62.6 272.22775 
L 62.6 300.584 
Q 62.6 302.584 64.6 302.584 
z
" style="fill: #ffffff; opacity: 0.8; stroke: #cccccc; stroke-linejoin: miter"/>
    </g>
    <g id="line2d_29">
     <path d="M 66.6 278.326187 
L 76.6 278.326187 
L 86.6 278.326187 
" style="fill: none; stroke: #1f77b4; stroke-width: 1.5; stroke-linecap: square"/>
    </g>
    <g id="text_17">
     <!-- Actual speed -->
     <g transform="translate(94.6 281.826187) scale(0.1 -0.1)">
      <use xlink:href="#DejaVuSans-41"/>
      <use xlink:href="#DejaVuSans-63" x="66.658203"/>
      <use xlink:href="#DejaVuSans-74" x="121.638672"/>
      <use xlink:href="#DejaVuSans-75" x="160.847656"/>
      <use xlink:href="#DejaVuSans-61" x="224.226562"/>
      <use xlink:href="#DejaVuSans-6c" x="285.505859"/>
      <use xlink:href="#DejaVuSans-20" x="313.289062"/>
      <use xlink:href="#DejaVuSans-73" x="345.076172"/>
      <use xlink:href="#DejaVuSans-70" x="397.175781"/>
      <use xlink:href="#DejaVuSans-65" x="460.652344"/>
      <use xlink:href="#DejaVuSans-65" x="522.175781"/>
      <use xlink:href="#DejaVuSans-64" x="583.699219"/>
     </g>
    </g>
    <g id="line2d_30">
     <path d="M 66.6 293.004312 
L 76.6 293.004312 
L 86.6 293.004312 
" style="fill: none; stroke: #ff7f0e; stroke-width: 1.5; stroke-linecap: square"/>
    </g>
    <g id="text_18">
     <!-- Expected speed -->
     <g transform="translate(94.6 296.504312) scale(0.1 -0.1)">
      <use xlink:href="#DejaVuSans-45"/>
      <use xlink:href="#DejaVuSans-78" x="63.183594"/>
      <use xlink:href="#DejaVuSans-70" x="122.363281"/>
      <use xlink:href="#DejaVuSans-65" x="185.839844"/>
      <use xlink:href="#DejaVuSans-63" x="247.363281"/>
      <use xlink:href="#DejaVuSans-74" x="302.34375"/>
      <use xlink:href="#DejaVuSans-65" x="341.552734"/>
      <use xlink:href="#DejaVuSans-64" x="403.076172"/>
      <use xlink:href="#DejaVuSans-20" x="466.552734"/>
      <use xlink:href="#DejaVuSans-73" x="498.339844"/>
      <use xlink:href="#DejaVuSans-70" x="550.439453"/>
      <use xlink:href="#DejaVuSans-65" x="613.916016"/>
      <use xlink:href="#DejaVuSans-65" x="675.439453"/>
      <use xlink:href="#DejaVuSans-64" x="736.962891"/>
     </g>
    </g>
   </g>
  </g>
 </g>
 <defs>
  <clipPath id="p26c5713a65">
   <rect x="57.6" y="41.472" width="357.12" height="266.112"/>
  </clipPath>
 </defs>
</svg>
