<?xml version="1.0" encoding="utf-8" standalone="no"?>
<!DOCTYPE svg PUBLIC "-//W3C//DTD SVG 1.1//EN"
  "http://www.w3.org/Graphics/SVG/1.1/DTD/svg11.dtd">
<svg xmlns:xlink="http://www.w3.org/1999/xlink" width="460.8pt" height="345.6pt" viewBox="0 0 460.8 345.6" xmlns="http://www.w3.org/2000/svg" version="1.1">
 <metadata>
  <rdf:RDF xmlns:dc="http://purl.org/dc/elements/1.1/" xmlns:cc="http://creativecommons.org/ns#" xmlns:rdf="http://www.w3.org/1999/02/22-rdf-syntax-ns#">
   <cc:Work>
    <dc:type rdf:resource="http://purl.org/dc/dcmitype/StillImage"/>
    <dc:date>2024-01-30T20:59:00.655159</dc:date>
    <dc:format>image/svg+xml</dc:format>
    <dc:creator>
     <cc:Agent>
      <dc:title>Matplotlib v3.7.1, https://matplotlib.org/</dc:title>
     </cc:Agent>
    </dc:creator>
   </cc:Work>
  </rdf:RDF>
 </metadata>
 <defs>
  <style type="text/css">*{stroke-linejoin: round; stroke-linecap: butt}</style>
 </defs>
 <g id="figure_1">
  <g id="patch_1">
   <path d="M 0 345.6 
L 460.8 345.6 
L 460.8 0 
L 0 0 
z
" style="fill: #ffffff"/>
  </g>
  <g id="axes_1">
   <g id="patch_2">
    <path d="M 57.6 307.584 
L 414.72 307.584 
L 414.72 41.472 
L 57.6 41.472 
z
" style="fill: #ffffff"/>
   </g>
   <g id="matplotlib.axis_1">
    <g id="xtick_1">
     <g id="line2d_1">
      <path d="M 73.832727 307.584 
L 73.832727 41.472 
" clip-path="url(#p807f9410d9)" style="fill: none; stroke: #b0b0b0; stroke-width: 0.8; stroke-linecap: square"/>
     </g>
     <g id="line2d_2">
      <defs>
       <path id="m5fab2e7b5a" d="M 0 0 
L 0 3.5 
" style="stroke: #000000; stroke-width: 0.8"/>
      </defs>
      <g>
       <use xlink:href="#m5fab2e7b5a" x="73.832727" y="307.584" style="stroke: #000000; stroke-width: 0.8"/>
      </g>
     </g>
     <g id="text_1">
      <!-- 0 -->
      <g transform="translate(70.651477 322.182437) scale(0.1 -0.1)">
       <defs>
        <path id="DejaVuSans-30" d="M 2034 4250 
Q 1547 4250 1301 3770 
Q 1056 3291 1056 2328 
Q 1056 1369 1301 889 
Q 1547 409 2034 409 
Q 2525 409 2770 889 
Q 3016 1369 3016 2328 
Q 3016 3291 2770 3770 
Q 2525 4250 2034 4250 
z
M 2034 4750 
Q 2819 4750 3233 4129 
Q 3647 3509 3647 2328 
Q 3647 1150 3233 529 
Q 2819 -91 2034 -91 
Q 1250 -91 836 529 
Q 422 1150 422 2328 
Q 422 3509 836 4129 
Q 1250 4750 2034 4750 
z
" transform="scale(0.015625)"/>
       </defs>
       <use xlink:href="#DejaVuSans-30"/>
      </g>
     </g>
    </g>
    <g id="xtick_2">
     <g id="line2d_3">
      <path d="M 118.015436 307.584 
L 118.015436 41.472 
" clip-path="url(#p807f9410d9)" style="fill: none; stroke: #b0b0b0; stroke-width: 0.8; stroke-linecap: square"/>
     </g>
     <g id="line2d_4">
      <g>
       <use xlink:href="#m5fab2e7b5a" x="118.015436" y="307.584" style="stroke: #000000; stroke-width: 0.8"/>
      </g>
     </g>
     <g id="text_2">
      <!-- 5 -->
      <g transform="translate(114.834186 322.182437) scale(0.1 -0.1)">
       <defs>
        <path id="DejaVuSans-35" d="M 691 4666 
L 3169 4666 
L 3169 4134 
L 1269 4134 
L 1269 2991 
Q 1406 3038 1543 3061 
Q 1681 3084 1819 3084 
Q 2600 3084 3056 2656 
Q 3513 2228 3513 1497 
Q 3513 744 3044 326 
Q 2575 -91 1722 -91 
Q 1428 -91 1123 -41 
Q 819 9 494 109 
L 494 744 
Q 775 591 1075 516 
Q 1375 441 1709 441 
Q 2250 441 2565 725 
Q 2881 1009 2881 1497 
Q 2881 1984 2565 2268 
Q 2250 2553 1709 2553 
Q 1456 2553 1204 2497 
Q 953 2441 691 2322 
L 691 4666 
z
" transform="scale(0.015625)"/>
       </defs>
       <use xlink:href="#DejaVuSans-35"/>
      </g>
     </g>
    </g>
    <g id="xtick_3">
     <g id="line2d_5">
      <path d="M 162.198145 307.584 
L 162.198145 41.472 
" clip-path="url(#p807f9410d9)" style="fill: none; stroke: #b0b0b0; stroke-width: 0.8; stroke-linecap: square"/>
     </g>
     <g id="line2d_6">
      <g>
       <use xlink:href="#m5fab2e7b5a" x="162.198145" y="307.584" style="stroke: #000000; stroke-width: 0.8"/>
      </g>
     </g>
     <g id="text_3">
      <!-- 10 -->
      <g transform="translate(155.835645 322.182437) scale(0.1 -0.1)">
       <defs>
        <path id="DejaVuSans-31" d="M 794 531 
L 1825 531 
L 1825 4091 
L 703 3866 
L 703 4441 
L 1819 4666 
L 2450 4666 
L 2450 531 
L 3481 531 
L 3481 0 
L 794 0 
L 794 531 
z
" transform="scale(0.015625)"/>
       </defs>
       <use xlink:href="#DejaVuSans-31"/>
       <use xlink:href="#DejaVuSans-30" x="63.623047"/>
      </g>
     </g>
    </g>
    <g id="xtick_4">
     <g id="line2d_7">
      <path d="M 206.380854 307.584 
L 206.380854 41.472 
" clip-path="url(#p807f9410d9)" style="fill: none; stroke: #b0b0b0; stroke-width: 0.8; stroke-linecap: square"/>
     </g>
     <g id="line2d_8">
      <g>
       <use xlink:href="#m5fab2e7b5a" x="206.380854" y="307.584" style="stroke: #000000; stroke-width: 0.8"/>
      </g>
     </g>
     <g id="text_4">
      <!-- 15 -->
      <g transform="translate(200.018354 322.182437) scale(0.1 -0.1)">
       <use xlink:href="#DejaVuSans-31"/>
       <use xlink:href="#DejaVuSans-35" x="63.623047"/>
      </g>
     </g>
    </g>
    <g id="xtick_5">
     <g id="line2d_9">
      <path d="M 250.563563 307.584 
L 250.563563 41.472 
" clip-path="url(#p807f9410d9)" style="fill: none; stroke: #b0b0b0; stroke-width: 0.8; stroke-linecap: square"/>
     </g>
     <g id="line2d_10">
      <g>
       <use xlink:href="#m5fab2e7b5a" x="250.563563" y="307.584" style="stroke: #000000; stroke-width: 0.8"/>
      </g>
     </g>
     <g id="text_5">
      <!-- 20 -->
      <g transform="translate(244.201063 322.182437) scale(0.1 -0.1)">
       <defs>
        <path id="DejaVuSans-32" d="M 1228 531 
L 3431 531 
L 3431 0 
L 469 0 
L 469 531 
Q 828 903 1448 1529 
Q 2069 2156 2228 2338 
Q 2531 2678 2651 2914 
Q 2772 3150 2772 3378 
Q 2772 3750 2511 3984 
Q 2250 4219 1831 4219 
Q 1534 4219 1204 4116 
Q 875 4013 500 3803 
L 500 4441 
Q 881 4594 1212 4672 
Q 1544 4750 1819 4750 
Q 2544 4750 2975 4387 
Q 3406 4025 3406 3419 
Q 3406 3131 3298 2873 
Q 3191 2616 2906 2266 
Q 2828 2175 2409 1742 
Q 1991 1309 1228 531 
z
" transform="scale(0.015625)"/>
       </defs>
       <use xlink:href="#DejaVuSans-32"/>
       <use xlink:href="#DejaVuSans-30" x="63.623047"/>
      </g>
     </g>
    </g>
    <g id="xtick_6">
     <g id="line2d_11">
      <path d="M 294.746272 307.584 
L 294.746272 41.472 
" clip-path="url(#p807f9410d9)" style="fill: none; stroke: #b0b0b0; stroke-width: 0.8; stroke-linecap: square"/>
     </g>
     <g id="line2d_12">
      <g>
       <use xlink:href="#m5fab2e7b5a" x="294.746272" y="307.584" style="stroke: #000000; stroke-width: 0.8"/>
      </g>
     </g>
     <g id="text_6">
      <!-- 25 -->
      <g transform="translate(288.383772 322.182437) scale(0.1 -0.1)">
       <use xlink:href="#DejaVuSans-32"/>
       <use xlink:href="#DejaVuSans-35" x="63.623047"/>
      </g>
     </g>
    </g>
    <g id="xtick_7">
     <g id="line2d_13">
      <path d="M 338.928981 307.584 
L 338.928981 41.472 
" clip-path="url(#p807f9410d9)" style="fill: none; stroke: #b0b0b0; stroke-width: 0.8; stroke-linecap: square"/>
     </g>
     <g id="line2d_14">
      <g>
       <use xlink:href="#m5fab2e7b5a" x="338.928981" y="307.584" style="stroke: #000000; stroke-width: 0.8"/>
      </g>
     </g>
     <g id="text_7">
      <!-- 30 -->
      <g transform="translate(332.566481 322.182437) scale(0.1 -0.1)">
       <defs>
        <path id="DejaVuSans-33" d="M 2597 2516 
Q 3050 2419 3304 2112 
Q 3559 1806 3559 1356 
Q 3559 666 3084 287 
Q 2609 -91 1734 -91 
Q 1441 -91 1130 -33 
Q 819 25 488 141 
L 488 750 
Q 750 597 1062 519 
Q 1375 441 1716 441 
Q 2309 441 2620 675 
Q 2931 909 2931 1356 
Q 2931 1769 2642 2001 
Q 2353 2234 1838 2234 
L 1294 2234 
L 1294 2753 
L 1863 2753 
Q 2328 2753 2575 2939 
Q 2822 3125 2822 3475 
Q 2822 3834 2567 4026 
Q 2313 4219 1838 4219 
Q 1578 4219 1281 4162 
Q 984 4106 628 3988 
L 628 4550 
Q 988 4650 1302 4700 
Q 1616 4750 1894 4750 
Q 2613 4750 3031 4423 
Q 3450 4097 3450 3541 
Q 3450 3153 3228 2886 
Q 3006 2619 2597 2516 
z
" transform="scale(0.015625)"/>
       </defs>
       <use xlink:href="#DejaVuSans-33"/>
       <use xlink:href="#DejaVuSans-30" x="63.623047"/>
      </g>
     </g>
    </g>
    <g id="xtick_8">
     <g id="line2d_15">
      <path d="M 383.11169 307.584 
L 383.11169 41.472 
" clip-path="url(#p807f9410d9)" style="fill: none; stroke: #b0b0b0; stroke-width: 0.8; stroke-linecap: square"/>
     </g>
     <g id="line2d_16">
      <g>
       <use xlink:href="#m5fab2e7b5a" x="383.11169" y="307.584" style="stroke: #000000; stroke-width: 0.8"/>
      </g>
     </g>
     <g id="text_8">
      <!-- 35 -->
      <g transform="translate(376.74919 322.182437) scale(0.1 -0.1)">
       <use xlink:href="#DejaVuSans-33"/>
       <use xlink:href="#DejaVuSans-35" x="63.623047"/>
      </g>
     </g>
    </g>
    <g id="text_9">
     <!-- Time(s) -->
     <g transform="translate(217.420156 335.860562) scale(0.1 -0.1)">
      <defs>
       <path id="DejaVuSans-54" d="M -19 4666 
L 3928 4666 
L 3928 4134 
L 2272 4134 
L 2272 0 
L 1638 0 
L 1638 4134 
L -19 4134 
L -19 4666 
z
" transform="scale(0.015625)"/>
       <path id="DejaVuSans-69" d="M 603 3500 
L 1178 3500 
L 1178 0 
L 603 0 
L 603 3500 
z
M 603 4863 
L 1178 4863 
L 1178 4134 
L 603 4134 
L 603 4863 
z
" transform="scale(0.015625)"/>
       <path id="DejaVuSans-6d" d="M 3328 2828 
Q 3544 3216 3844 3400 
Q 4144 3584 4550 3584 
Q 5097 3584 5394 3201 
Q 5691 2819 5691 2113 
L 5691 0 
L 5113 0 
L 5113 2094 
Q 5113 2597 4934 2840 
Q 4756 3084 4391 3084 
Q 3944 3084 3684 2787 
Q 3425 2491 3425 1978 
L 3425 0 
L 2847 0 
L 2847 2094 
Q 2847 2600 2669 2842 
Q 2491 3084 2119 3084 
Q 1678 3084 1418 2786 
Q 1159 2488 1159 1978 
L 1159 0 
L 581 0 
L 581 3500 
L 1159 3500 
L 1159 2956 
Q 1356 3278 1631 3431 
Q 1906 3584 2284 3584 
Q 2666 3584 2933 3390 
Q 3200 3197 3328 2828 
z
" transform="scale(0.015625)"/>
       <path id="DejaVuSans-65" d="M 3597 1894 
L 3597 1613 
L 953 1613 
Q 991 1019 1311 708 
Q 1631 397 2203 397 
Q 2534 397 2845 478 
Q 3156 559 3463 722 
L 3463 178 
Q 3153 47 2828 -22 
Q 2503 -91 2169 -91 
Q 1331 -91 842 396 
Q 353 884 353 1716 
Q 353 2575 817 3079 
Q 1281 3584 2069 3584 
Q 2775 3584 3186 3129 
Q 3597 2675 3597 1894 
z
M 3022 2063 
Q 3016 2534 2758 2815 
Q 2500 3097 2075 3097 
Q 1594 3097 1305 2825 
Q 1016 2553 972 2059 
L 3022 2063 
z
" transform="scale(0.015625)"/>
       <path id="DejaVuSans-28" d="M 1984 4856 
Q 1566 4138 1362 3434 
Q 1159 2731 1159 2009 
Q 1159 1288 1364 580 
Q 1569 -128 1984 -844 
L 1484 -844 
Q 1016 -109 783 600 
Q 550 1309 550 2009 
Q 550 2706 781 3412 
Q 1013 4119 1484 4856 
L 1984 4856 
z
" transform="scale(0.015625)"/>
       <path id="DejaVuSans-73" d="M 2834 3397 
L 2834 2853 
Q 2591 2978 2328 3040 
Q 2066 3103 1784 3103 
Q 1356 3103 1142 2972 
Q 928 2841 928 2578 
Q 928 2378 1081 2264 
Q 1234 2150 1697 2047 
L 1894 2003 
Q 2506 1872 2764 1633 
Q 3022 1394 3022 966 
Q 3022 478 2636 193 
Q 2250 -91 1575 -91 
Q 1294 -91 989 -36 
Q 684 19 347 128 
L 347 722 
Q 666 556 975 473 
Q 1284 391 1588 391 
Q 1994 391 2212 530 
Q 2431 669 2431 922 
Q 2431 1156 2273 1281 
Q 2116 1406 1581 1522 
L 1381 1569 
Q 847 1681 609 1914 
Q 372 2147 372 2553 
Q 372 3047 722 3315 
Q 1072 3584 1716 3584 
Q 2034 3584 2315 3537 
Q 2597 3491 2834 3397 
z
" transform="scale(0.015625)"/>
       <path id="DejaVuSans-29" d="M 513 4856 
L 1013 4856 
Q 1481 4119 1714 3412 
Q 1947 2706 1947 2009 
Q 1947 1309 1714 600 
Q 1481 -109 1013 -844 
L 513 -844 
Q 928 -128 1133 580 
Q 1338 1288 1338 2009 
Q 1338 2731 1133 3434 
Q 928 4138 513 4856 
z
" transform="scale(0.015625)"/>
      </defs>
      <use xlink:href="#DejaVuSans-54"/>
      <use xlink:href="#DejaVuSans-69" x="57.958984"/>
      <use xlink:href="#DejaVuSans-6d" x="85.742188"/>
      <use xlink:href="#DejaVuSans-65" x="183.154297"/>
      <use xlink:href="#DejaVuSans-28" x="244.677734"/>
      <use xlink:href="#DejaVuSans-73" x="283.691406"/>
      <use xlink:href="#DejaVuSans-29" x="335.791016"/>
     </g>
    </g>
   </g>
   <g id="matplotlib.axis_2">
    <g id="ytick_1">
     <g id="line2d_17">
      <path d="M 57.6 276.939612 
L 414.72 276.939612 
" clip-path="url(#p807f9410d9)" style="fill: none; stroke: #b0b0b0; stroke-width: 0.8; stroke-linecap: square"/>
     </g>
     <g id="line2d_18">
      <defs>
       <path id="m85fecaa1f1" d="M 0 0 
L -3.5 0 
" style="stroke: #000000; stroke-width: 0.8"/>
      </defs>
      <g>
       <use xlink:href="#m85fecaa1f1" x="57.6" y="276.939612" style="stroke: #000000; stroke-width: 0.8"/>
      </g>
     </g>
     <g id="text_10">
      <!-- 4 -->
      <g transform="translate(44.2375 280.738831) scale(0.1 -0.1)">
       <defs>
        <path id="DejaVuSans-34" d="M 2419 4116 
L 825 1625 
L 2419 1625 
L 2419 4116 
z
M 2253 4666 
L 3047 4666 
L 3047 1625 
L 3713 1625 
L 3713 1100 
L 3047 1100 
L 3047 0 
L 2419 0 
L 2419 1100 
L 313 1100 
L 313 1709 
L 2253 4666 
z
" transform="scale(0.015625)"/>
       </defs>
       <use xlink:href="#DejaVuSans-34"/>
      </g>
     </g>
    </g>
    <g id="ytick_2">
     <g id="line2d_19">
      <path d="M 57.6 221.096709 
L 414.72 221.096709 
" clip-path="url(#p807f9410d9)" style="fill: none; stroke: #b0b0b0; stroke-width: 0.8; stroke-linecap: square"/>
     </g>
     <g id="line2d_20">
      <g>
       <use xlink:href="#m85fecaa1f1" x="57.6" y="221.096709" style="stroke: #000000; stroke-width: 0.8"/>
      </g>
     </g>
     <g id="text_11">
      <!-- 5 -->
      <g transform="translate(44.2375 224.895928) scale(0.1 -0.1)">
       <use xlink:href="#DejaVuSans-35"/>
      </g>
     </g>
    </g>
    <g id="ytick_3">
     <g id="line2d_21">
      <path d="M 57.6 165.253806 
L 414.72 165.253806 
" clip-path="url(#p807f9410d9)" style="fill: none; stroke: #b0b0b0; stroke-width: 0.8; stroke-linecap: square"/>
     </g>
     <g id="line2d_22">
      <g>
       <use xlink:href="#m85fecaa1f1" x="57.6" y="165.253806" style="stroke: #000000; stroke-width: 0.8"/>
      </g>
     </g>
     <g id="text_12">
      <!-- 6 -->
      <g transform="translate(44.2375 169.053025) scale(0.1 -0.1)">
       <defs>
        <path id="DejaVuSans-36" d="M 2113 2584 
Q 1688 2584 1439 2293 
Q 1191 2003 1191 1497 
Q 1191 994 1439 701 
Q 1688 409 2113 409 
Q 2538 409 2786 701 
Q 3034 994 3034 1497 
Q 3034 2003 2786 2293 
Q 2538 2584 2113 2584 
z
M 3366 4563 
L 3366 3988 
Q 3128 4100 2886 4159 
Q 2644 4219 2406 4219 
Q 1781 4219 1451 3797 
Q 1122 3375 1075 2522 
Q 1259 2794 1537 2939 
Q 1816 3084 2150 3084 
Q 2853 3084 3261 2657 
Q 3669 2231 3669 1497 
Q 3669 778 3244 343 
Q 2819 -91 2113 -91 
Q 1303 -91 875 529 
Q 447 1150 447 2328 
Q 447 3434 972 4092 
Q 1497 4750 2381 4750 
Q 2619 4750 2861 4703 
Q 3103 4656 3366 4563 
z
" transform="scale(0.015625)"/>
       </defs>
       <use xlink:href="#DejaVuSans-36"/>
      </g>
     </g>
    </g>
    <g id="ytick_4">
     <g id="line2d_23">
      <path d="M 57.6 109.410903 
L 414.72 109.410903 
" clip-path="url(#p807f9410d9)" style="fill: none; stroke: #b0b0b0; stroke-width: 0.8; stroke-linecap: square"/>
     </g>
     <g id="line2d_24">
      <g>
       <use xlink:href="#m85fecaa1f1" x="57.6" y="109.410903" style="stroke: #000000; stroke-width: 0.8"/>
      </g>
     </g>
     <g id="text_13">
      <!-- 7 -->
      <g transform="translate(44.2375 113.210122) scale(0.1 -0.1)">
       <defs>
        <path id="DejaVuSans-37" d="M 525 4666 
L 3525 4666 
L 3525 4397 
L 1831 0 
L 1172 0 
L 2766 4134 
L 525 4134 
L 525 4666 
z
" transform="scale(0.015625)"/>
       </defs>
       <use xlink:href="#DejaVuSans-37"/>
      </g>
     </g>
    </g>
    <g id="ytick_5">
     <g id="line2d_25">
      <path d="M 57.6 53.568 
L 414.72 53.568 
" clip-path="url(#p807f9410d9)" style="fill: none; stroke: #b0b0b0; stroke-width: 0.8; stroke-linecap: square"/>
     </g>
     <g id="line2d_26">
      <g>
       <use xlink:href="#m85fecaa1f1" x="57.6" y="53.568" style="stroke: #000000; stroke-width: 0.8"/>
      </g>
     </g>
     <g id="text_14">
      <!-- 8 -->
      <g transform="translate(44.2375 57.367219) scale(0.1 -0.1)">
       <defs>
        <path id="DejaVuSans-38" d="M 2034 2216 
Q 1584 2216 1326 1975 
Q 1069 1734 1069 1313 
Q 1069 891 1326 650 
Q 1584 409 2034 409 
Q 2484 409 2743 651 
Q 3003 894 3003 1313 
Q 3003 1734 2745 1975 
Q 2488 2216 2034 2216 
z
M 1403 2484 
Q 997 2584 770 2862 
Q 544 3141 544 3541 
Q 544 4100 942 4425 
Q 1341 4750 2034 4750 
Q 2731 4750 3128 4425 
Q 3525 4100 3525 3541 
Q 3525 3141 3298 2862 
Q 3072 2584 2669 2484 
Q 3125 2378 3379 2068 
Q 3634 1759 3634 1313 
Q 3634 634 3220 271 
Q 2806 -91 2034 -91 
Q 1263 -91 848 271 
Q 434 634 434 1313 
Q 434 1759 690 2068 
Q 947 2378 1403 2484 
z
M 1172 3481 
Q 1172 3119 1398 2916 
Q 1625 2713 2034 2713 
Q 2441 2713 2670 2916 
Q 2900 3119 2900 3481 
Q 2900 3844 2670 4047 
Q 2441 4250 2034 4250 
Q 1625 4250 1398 4047 
Q 1172 3844 1172 3481 
z
" transform="scale(0.015625)"/>
       </defs>
       <use xlink:href="#DejaVuSans-38"/>
      </g>
     </g>
    </g>
    <g id="text_15">
     <!-- Velocity(m/s) -->
     <g transform="translate(38.157812 207.204563) rotate(-90) scale(0.1 -0.1)">
      <defs>
       <path id="DejaVuSans-56" d="M 1831 0 
L 50 4666 
L 709 4666 
L 2188 738 
L 3669 4666 
L 4325 4666 
L 2547 0 
L 1831 0 
z
" transform="scale(0.015625)"/>
       <path id="DejaVuSans-6c" d="M 603 4863 
L 1178 4863 
L 1178 0 
L 603 0 
L 603 4863 
z
" transform="scale(0.015625)"/>
       <path id="DejaVuSans-6f" d="M 1959 3097 
Q 1497 3097 1228 2736 
Q 959 2375 959 1747 
Q 959 1119 1226 758 
Q 1494 397 1959 397 
Q 2419 397 2687 759 
Q 2956 1122 2956 1747 
Q 2956 2369 2687 2733 
Q 2419 3097 1959 3097 
z
M 1959 3584 
Q 2709 3584 3137 3096 
Q 3566 2609 3566 1747 
Q 3566 888 3137 398 
Q 2709 -91 1959 -91 
Q 1206 -91 779 398 
Q 353 888 353 1747 
Q 353 2609 779 3096 
Q 1206 3584 1959 3584 
z
" transform="scale(0.015625)"/>
       <path id="DejaVuSans-63" d="M 3122 3366 
L 3122 2828 
Q 2878 2963 2633 3030 
Q 2388 3097 2138 3097 
Q 1578 3097 1268 2742 
Q 959 2388 959 1747 
Q 959 1106 1268 751 
Q 1578 397 2138 397 
Q 2388 397 2633 464 
Q 2878 531 3122 666 
L 3122 134 
Q 2881 22 2623 -34 
Q 2366 -91 2075 -91 
Q 1284 -91 818 406 
Q 353 903 353 1747 
Q 353 2603 823 3093 
Q 1294 3584 2113 3584 
Q 2378 3584 2631 3529 
Q 2884 3475 3122 3366 
z
" transform="scale(0.015625)"/>
       <path id="DejaVuSans-74" d="M 1172 4494 
L 1172 3500 
L 2356 3500 
L 2356 3053 
L 1172 3053 
L 1172 1153 
Q 1172 725 1289 603 
Q 1406 481 1766 481 
L 2356 481 
L 2356 0 
L 1766 0 
Q 1100 0 847 248 
Q 594 497 594 1153 
L 594 3053 
L 172 3053 
L 172 3500 
L 594 3500 
L 594 4494 
L 1172 4494 
z
" transform="scale(0.015625)"/>
       <path id="DejaVuSans-79" d="M 2059 -325 
Q 1816 -950 1584 -1140 
Q 1353 -1331 966 -1331 
L 506 -1331 
L 506 -850 
L 844 -850 
Q 1081 -850 1212 -737 
Q 1344 -625 1503 -206 
L 1606 56 
L 191 3500 
L 800 3500 
L 1894 763 
L 2988 3500 
L 3597 3500 
L 2059 -325 
z
" transform="scale(0.015625)"/>
       <path id="DejaVuSans-2f" d="M 1625 4666 
L 2156 4666 
L 531 -594 
L 0 -594 
L 1625 4666 
z
" transform="scale(0.015625)"/>
      </defs>
      <use xlink:href="#DejaVuSans-56"/>
      <use xlink:href="#DejaVuSans-65" x="60.658203"/>
      <use xlink:href="#DejaVuSans-6c" x="122.181641"/>
      <use xlink:href="#DejaVuSans-6f" x="149.964844"/>
      <use xlink:href="#DejaVuSans-63" x="211.146484"/>
      <use xlink:href="#DejaVuSans-69" x="266.126953"/>
      <use xlink:href="#DejaVuSans-74" x="293.910156"/>
      <use xlink:href="#DejaVuSans-79" x="333.119141"/>
      <use xlink:href="#DejaVuSans-28" x="392.298828"/>
      <use xlink:href="#DejaVuSans-6d" x="431.3125"/>
      <use xlink:href="#DejaVuSans-2f" x="528.724609"/>
      <use xlink:href="#DejaVuSans-73" x="562.416016"/>
      <use xlink:href="#DejaVuSans-29" x="614.515625"/>
     </g>
    </g>
   </g>
   <g id="line2d_27">
    <path d="M 73.832727 53.754571 
L 76.306959 53.61569 
L 76.306959 53.61569 
L 82.492538 53.569564 
L 82.492538 53.569564 
L 92.389465 53.568 
L 92.389465 53.568 
L 92.919658 58.962759 
L 92.919658 58.962759 
L 93.626581 78.565852 
L 93.626581 78.565852 
L 95.393889 129.180017 
L 95.393889 129.180017 
L 96.984467 161.457271 
L 96.984467 161.457271 
L 97.69139 172.950354 
L 97.69139 172.950354 
L 99.281968 190.274945 
L 99.281968 190.274945 
L 100.519083 197.334046 
L 100.519083 197.334046 
L 101.049276 198.707949 
L 101.049276 198.707949 
L 101.579469 199.270901 
L 101.579469 199.270901 
L 102.109661 199.344726 
L 102.109661 199.344726 
L 102.463123 199.393812 
L 102.463123 199.393812 
L 102.816584 199.377003 
L 102.816584 199.377003 
L 103.170046 199.266434 
L 103.170046 199.266434 
L 103.523508 199.016872 
L 103.523508 199.016872 
L 103.876969 198.56393 
L 103.876969 198.56393 
L 104.583893 196.384773 
L 104.583893 196.384773 
L 105.290816 192.427856 
L 105.290816 192.427856 
L 105.644278 188.889147 
L 105.644278 188.889147 
L 105.997739 184.728628 
L 105.997739 184.728628 
L 106.527932 177.13779 
L 106.527932 177.13779 
L 107.234855 162.848652 
L 107.234855 162.848652 
L 107.765048 153.164432 
L 107.765048 153.164432 
L 108.118509 149.594507 
L 108.118509 149.594507 
L 108.471971 147.340296 
L 108.471971 147.340296 
L 109.002164 145.812434 
L 109.002164 145.812434 
L 109.532356 145.213966 
L 109.532356 145.213966 
L 109.885818 145.025664 
L 109.885818 145.025664 
L 111.476395 144.437303 
L 111.476395 144.437303 
L 112.360049 143.368079 
L 112.360049 143.368079 
L 112.890242 142.225645 
L 112.890242 142.225645 
L 113.597165 139.347781 
L 113.597165 139.347781 
L 113.950627 137.42578 
L 113.950627 137.42578 
L 114.834281 129.291088 
L 114.834281 129.291088 
L 115.717935 119.017614 
L 115.717935 119.017614 
L 115.894666 118.172599 
L 115.894666 118.172599 
L 116.071397 118.163831 
L 116.071397 118.163831 
L 117.308513 142.566677 
L 117.308513 142.566677 
L 118.72236 161.574429 
L 118.72236 161.574429 
L 119.429283 166.913569 
L 119.429283 166.913569 
L 119.959475 169.184141 
L 119.959475 169.184141 
L 120.489668 170.296029 
L 120.489668 170.296029 
L 121.550053 171.306227 
L 121.550053 171.306227 
L 121.726784 171.385469 
L 121.726784 171.385469 
L 121.903515 171.302486 
L 121.903515 171.302486 
L 122.256976 171.38357 
L 122.256976 171.38357 
L 122.9639 171.363076 
L 122.9639 171.363076 
L 123.494092 171.170138 
L 123.494092 171.170138 
L 124.201015 170.818886 
L 124.201015 170.818886 
L 124.907939 170.388449 
L 124.907939 170.388449 
L 125.08467 170.297258 
L 125.08467 170.297258 
L 125.614862 169.663385 
L 125.614862 169.663385 
L 126.145055 169.002652 
L 126.145055 169.002652 
L 126.851978 167.938677 
L 126.851978 167.938677 
L 128.619286 163.857678 
L 128.619286 163.857678 
L 131.270249 154.902542 
L 131.270249 154.902542 
L 133.214288 145.685168 
L 133.214288 145.685168 
L 135.865251 128.712332 
L 135.865251 128.712332 
L 136.748905 121.472132 
L 136.748905 121.472132 
L 138.869675 99.690999 
L 138.869675 99.690999 
L 140.106791 83.149773 
L 140.106791 83.149773 
L 140.990445 71.885422 
L 140.990445 71.885422 
L 141.697368 65.973166 
L 141.697368 65.973166 
L 142.404292 61.969174 
L 142.404292 61.969174 
L 143.111215 59.257554 
L 143.111215 59.257554 
L 143.818138 57.421104 
L 143.818138 57.421104 
L 144.525062 56.177483 
L 144.525062 56.177483 
L 145.231985 55.335205 
L 145.231985 55.335205 
L 146.115639 54.653698 
L 146.115639 54.653698 
L 147.176024 54.173058 
L 147.176024 54.173058 
L 148.41314 53.873907 
L 148.41314 53.873907 
L 150.357179 53.672761 
L 150.357179 53.672761 
L 150.887372 53.64618 
L 150.887372 53.64618 
L 151.064103 54.613547 
L 151.064103 54.613547 
L 151.417564 62.973788 
L 151.417564 62.973788 
L 151.947757 76.511503 
L 151.947757 76.511503 
L 152.831411 104.981612 
L 152.831411 104.981612 
L 153.361603 119.642775 
L 153.361603 119.642775 
L 153.715065 130.333731 
L 153.715065 130.333731 
L 155.659104 177.900548 
L 155.659104 177.900548 
L 156.189297 188.593292 
L 156.189297 188.593292 
L 156.89622 201.140913 
L 156.89622 201.140913 
L 157.249682 207.016759 
L 157.249682 207.016759 
L 157.779874 214.934612 
L 157.779874 214.934612 
L 158.310067 221.009706 
L 158.310067 221.009706 
L 158.840259 227.019743 
L 158.840259 227.019743 
L 160.607568 240.642507 
L 160.607568 240.642507 
L 161.491222 244.387835 
L 161.491222 244.387835 
L 162.021414 245.739903 
L 162.021414 245.739903 
L 162.728338 246.864635 
L 162.728338 246.864635 
L 163.081799 247.109562 
L 163.081799 247.109562 
L 163.788723 247.267318 
L 163.788723 247.267318 
L 164.495646 247.332822 
L 164.495646 247.332822 
L 165.202569 247.259556 
L 165.202569 247.259556 
L 166.262954 246.329604 
L 166.262954 246.329604 
L 167.676801 243.397573 
L 167.676801 243.397573 
L 168.206994 241.611884 
L 168.206994 241.611884 
L 169.090648 237.582316 
L 169.090648 237.582316 
L 169.62084 234.691105 
L 169.62084 234.691105 
L 171.388149 221.970651 
L 171.388149 221.970651 
L 174.039111 197.286803 
L 174.039111 197.286803 
L 175.099496 185.720789 
L 175.099496 185.720789 
L 178.987575 144.543349 
L 178.987575 144.543349 
L 179.694498 136.409997 
L 179.694498 136.409997 
L 180.931614 116.883633 
L 180.931614 116.883633 
L 181.461806 106.0548 
L 181.461806 106.0548 
L 182.34546 88.750593 
L 182.34546 88.750593 
L 182.522191 87.311298 
L 182.522191 87.311298 
L 182.875653 86.674353 
L 182.875653 86.674353 
L 183.052384 88.063837 
L 183.052384 88.063837 
L 183.582576 101.114993 
L 183.582576 101.114993 
L 183.936038 111.662545 
L 183.936038 111.662545 
L 184.2895 123.303277 
L 184.2895 123.303277 
L 186.763731 195.114849 
L 186.763731 195.114849 
L 188.884501 238.640874 
L 188.884501 238.640874 
L 191.005271 262.01018 
L 191.005271 262.01018 
L 191.712195 266.713325 
L 191.712195 266.713325 
L 192.065656 268.788056 
L 192.065656 268.788056 
L 192.419118 270.277107 
L 192.419118 270.277107 
L 192.77258 271.388269 
L 192.77258 271.388269 
L 193.302772 272.787692 
L 193.302772 272.787692 
L 193.832965 273.454345 
L 193.832965 273.454345 
L 194.186426 273.914155 
L 194.186426 273.914155 
L 194.716619 274.460299 
L 194.716619 274.460299 
L 195.423542 274.599404 
L 195.423542 274.599404 
L 197.190851 274.432713 
L 197.190851 274.432713 
L 198.251236 273.300945 
L 198.251236 273.300945 
L 198.427967 273.053393 
L 198.427967 273.053393 
L 199.665082 269.411766 
L 199.665082 269.411766 
L 201.25566 259.710625 
L 201.25566 259.710625 
L 201.962583 253.597781 
L 201.962583 253.597781 
L 202.492776 248.169014 
L 202.492776 248.169014 
L 204.436815 220.960341 
L 204.436815 220.960341 
L 205.673931 196.360872 
L 205.673931 196.360872 
L 206.380854 179.278025 
L 206.380854 179.278025 
L 209.915471 84.79658 
L 209.915471 84.79658 
L 210.622394 74.716992 
L 210.622394 74.716992 
L 211.329318 67.890755 
L 211.329318 67.890755 
L 212.036241 63.267856 
L 212.036241 63.267856 
L 212.743164 60.137024 
L 212.743164 60.137024 
L 213.450088 58.016781 
L 213.450088 58.016781 
L 214.157011 56.580836 
L 214.157011 56.580836 
L 214.863934 55.608388 
L 214.863934 55.608388 
L 215.040665 55.418969 
L 215.040665 55.418969 
L 215.394127 56.81398 
L 215.394127 56.81398 
L 215.747588 61.129855 
L 215.747588 61.129855 
L 220.165859 154.340483 
L 220.165859 154.340483 
L 220.519321 160.177184 
L 220.519321 160.177184 
L 220.872783 166.656971 
L 220.872783 166.656971 
L 221.402975 174.82729 
L 221.402975 174.82729 
L 221.756437 179.100836 
L 221.756437 179.100836 
L 222.286629 186.288543 
L 222.286629 186.288543 
L 223.523745 197.561662 
L 223.523745 197.561662 
L 224.407399 202.147872 
L 224.407399 202.147872 
L 224.937592 203.726104 
L 224.937592 203.726104 
L 225.291054 204.47049 
L 225.291054 204.47049 
L 225.821246 204.995692 
L 225.821246 204.995692 
L 226.174708 205.155627 
L 226.174708 205.155627 
L 226.7049 205.316398 
L 226.7049 205.316398 
L 227.588554 205.191924 
L 227.588554 205.191924 
L 228.295478 204.632602 
L 228.295478 204.632602 
L 229.002401 203.343915 
L 229.002401 203.343915 
L 229.532594 201.652043 
L 229.532594 201.652043 
L 230.592979 194.502364 
L 230.592979 194.502364 
L 231.476633 184.729912 
L 231.476633 184.729912 
L 232.713749 161.216029 
L 232.713749 161.216029 
L 235.364711 89.626042 
L 235.364711 89.626042 
L 236.071635 77.987655 
L 236.071635 77.987655 
L 236.778558 70.105764 
L 236.778558 70.105764 
L 237.485481 64.767908 
L 237.485481 64.767908 
L 238.192405 61.152918 
L 238.192405 61.152918 
L 238.899328 58.704765 
L 238.899328 58.704765 
L 239.606251 57.046789 
L 239.606251 57.046789 
L 240.313175 55.923956 
L 240.313175 55.923956 
L 241.020098 55.163543 
L 241.020098 55.163543 
L 241.37356 54.881034 
L 241.37356 54.881034 
L 241.55029 55.135678 
L 241.55029 55.135678 
L 241.727021 56.380137 
L 241.727021 56.380137 
L 242.610676 67.457917 
L 242.610676 67.457917 
L 243.847791 86.411222 
L 243.847791 86.411222 
L 244.731446 99.717134 
L 244.731446 99.717134 
L 245.261638 107.800003 
L 245.261638 107.800003 
L 246.145292 121.437398 
L 246.145292 121.437398 
L 247.912601 138.773269 
L 247.912601 138.773269 
L 248.619524 142.830591 
L 248.619524 142.830591 
L 249.149716 144.420438 
L 249.149716 144.420438 
L 249.679909 145.426728 
L 249.679909 145.426728 
L 250.033371 145.814221 
L 250.033371 145.814221 
L 250.740294 145.839127 
L 250.740294 145.839127 
L 250.917025 146.017825 
L 250.917025 146.017825 
L 251.447217 146.014921 
L 251.447217 146.014921 
L 251.97741 145.679584 
L 251.97741 145.679584 
L 252.684333 144.432612 
L 252.684333 144.432612 
L 253.037795 143.508971 
L 253.037795 143.508971 
L 253.391256 142.389711 
L 253.391256 142.389711 
L 254.274911 137.72655 
L 254.274911 137.72655 
L 254.805103 133.78298 
L 254.805103 133.78298 
L 255.688757 125.539227 
L 255.688757 125.539227 
L 256.395681 117.38929 
L 256.395681 117.38929 
L 257.456066 102.694733 
L 257.456066 102.694733 
L 258.33972 88.650969 
L 258.33972 88.650969 
L 259.046643 77.327312 
L 259.046643 77.327312 
L 259.753567 69.658574 
L 259.753567 69.658574 
L 260.46049 64.465072 
L 260.46049 64.465072 
L 261.167413 60.947807 
L 261.167413 60.947807 
L 261.874337 58.565828 
L 261.874337 58.565828 
L 262.58126 56.952694 
L 262.58126 56.952694 
L 263.288183 55.860239 
L 263.288183 55.860239 
L 263.995107 55.120377 
L 263.995107 55.120377 
L 264.878761 54.521685 
L 264.878761 54.521685 
L 265.939146 54.099513 
L 265.939146 54.099513 
L 267.352993 53.811754 
L 267.352993 53.811754 
L 269.473763 53.643723 
L 269.473763 53.643723 
L 273.892033 53.574645 
L 273.892033 53.574645 
L 276.366265 53.569675 
L 276.366265 53.569675 
L 276.896458 60.361122 
L 276.896458 60.361122 
L 277.42665 76.965115 
L 277.42665 76.965115 
L 278.310304 108.822319 
L 278.310304 108.822319 
L 279.724151 162.333725 
L 279.724151 162.333725 
L 281.844921 226.45813 
L 281.844921 226.45813 
L 282.375114 239.036018 
L 282.375114 239.036018 
L 282.551844 241.501371 
L 282.551844 241.501371 
L 282.905306 248.137071 
L 282.905306 248.137071 
L 283.435499 255.708476 
L 283.435499 255.708476 
L 283.965691 264.313197 
L 283.965691 264.313197 
L 285.026076 276.214715 
L 285.026076 276.214715 
L 285.379538 280.187771 
L 285.379538 280.187771 
L 286.970115 291.364504 
L 286.970115 291.364504 
L 287.853769 294.20473 
L 287.853769 294.20473 
L 288.383962 294.954198 
L 288.383962 294.954198 
L 288.737424 295.149592 
L 288.737424 295.149592 
L 289.444347 295.345042 
L 289.444347 295.345042 
L 290.681463 295.130382 
L 290.681463 295.130382 
L 290.858194 295.047176 
L 290.858194 295.047176 
L 291.741848 293.836837 
L 291.741848 293.836837 
L 292.625502 291.162688 
L 292.625502 291.162688 
L 293.509156 286.464345 
L 293.509156 286.464345 
L 294.569541 278.698775 
L 294.569541 278.698775 
L 295.099734 273.952184 
L 295.099734 273.952184 
L 295.629926 268.911413 
L 295.629926 268.911413 
L 297.750696 240.867219 
L 297.750696 240.867219 
L 303.052621 160.951892 
L 303.052621 160.951892 
L 303.229352 159.28325 
L 303.229352 159.28325 
L 303.582814 158.548302 
L 303.582814 158.548302 
L 303.759545 160.576907 
L 303.759545 160.576907 
L 304.113006 169.433647 
L 304.113006 169.433647 
L 304.643199 182.961423 
L 304.643199 182.961423 
L 304.996661 190.526126 
L 304.996661 190.526126 
L 305.350122 199.512645 
L 305.350122 199.512645 
L 305.880315 210.627058 
L 305.880315 210.627058 
L 307.647623 235.036606 
L 307.647623 235.036606 
L 309.238201 249.316418 
L 309.238201 249.316418 
L 309.768393 252.624719 
L 309.768393 252.624719 
L 311.18224 258.463597 
L 311.18224 258.463597 
L 312.242625 260.684637 
L 312.242625 260.684637 
L 312.772817 261.103291 
L 312.772817 261.103291 
L 314.009933 261.531606 
L 314.009933 261.531606 
L 315.247049 261.333866 
L 315.247049 261.333866 
L 315.953972 260.78588 
L 315.953972 260.78588 
L 317.191088 258.238829 
L 317.191088 258.238829 
L 318.428204 253.232345 
L 318.428204 253.232345 
L 320.018782 242.059632 
L 320.018782 242.059632 
L 321.255897 230.382993 
L 321.255897 230.382993 
L 321.962821 222.544492 
L 321.962821 222.544492 
L 322.846475 211.990295 
L 322.846475 211.990295 
L 325.143976 179.605041 
L 325.143976 179.605041 
L 326.381092 157.159489 
L 326.381092 157.159489 
L 327.264746 141.244764 
L 327.264746 141.244764 
L 327.618208 138.895788 
L 327.618208 138.895788 
L 327.794938 138.36824 
L 327.794938 138.36824 
L 327.971669 138.313849 
L 327.971669 138.313849 
L 329.385516 163.711146 
L 329.385516 163.711146 
L 329.915708 174.063862 
L 329.915708 174.063862 
L 331.152824 192.153277 
L 331.152824 192.153277 
L 332.566671 204.870828 
L 332.566671 204.870828 
L 333.096863 207.492708 
L 333.096863 207.492708 
L 333.627056 209.141302 
L 333.627056 209.141302 
L 333.980518 209.740608 
L 333.980518 209.740608 
L 334.333979 209.976712 
L 334.333979 209.976712 
L 334.687441 210.098729 
L 334.687441 210.098729 
L 335.217633 210.226441 
L 335.217633 210.226441 
L 336.101288 210.054054 
L 336.101288 210.054054 
L 336.454749 209.820017 
L 336.454749 209.820017 
L 336.808211 209.42141 
L 336.808211 209.42141 
L 337.515134 207.490586 
L 337.515134 207.490586 
L 338.222058 204.07959 
L 338.222058 204.07959 
L 338.928981 198.554214 
L 338.928981 198.554214 
L 339.282443 193.934777 
L 339.282443 193.934777 
L 339.635904 188.614344 
L 339.635904 188.614344 
L 340.342828 178.681791 
L 340.342828 178.681791 
L 340.696289 176.686524 
L 340.696289 176.686524 
L 340.87302 177.064301 
L 340.87302 177.064301 
L 341.049751 177.060504 
L 341.049751 177.060504 
L 341.579944 181.4994 
L 341.579944 181.4994 
L 342.463598 186.844348 
L 342.463598 186.844348 
L 342.817059 187.682717 
L 342.817059 187.682717 
L 343.523983 188.15029 
L 343.523983 188.15029 
L 344.054175 187.984101 
L 344.054175 187.984101 
L 344.407637 187.6362 
L 344.407637 187.6362 
L 345.11456 185.159902 
L 345.11456 185.159902 
L 345.644753 181.559487 
L 345.644753 181.559487 
L 346.881869 167.143307 
L 346.881869 167.143307 
L 347.23533 166.905863 
L 347.23533 166.905863 
L 347.588792 169.733133 
L 347.588792 169.733133 
L 348.649177 181.954464 
L 348.649177 181.954464 
L 349.002639 184.058122 
L 349.002639 184.058122 
L 349.3561 185.323857 
L 349.3561 185.323857 
L 349.532831 185.688288 
L 349.532831 185.688288 
L 349.709562 185.755858 
L 349.709562 185.755858 
L 350.063024 186.138717 
L 350.063024 186.138717 
L 350.416485 186.334334 
L 350.416485 186.334334 
L 351.47687 186.216283 
L 351.47687 186.216283 
L 352.360525 185.688679 
L 352.360525 185.688679 
L 353.774371 183.376503 
L 353.774371 183.376503 
L 354.304564 182.057662 
L 354.304564 182.057662 
L 355.54168 178.142069 
L 355.54168 178.142069 
L 356.602065 173.269552 
L 356.602065 173.269552 
L 357.308988 169.371662 
L 357.308988 169.371662 
L 361.727259 137.307169 
L 361.727259 137.307169 
L 362.964375 130.684927 
L 362.964375 130.684927 
L 364.908414 119.818512 
L 364.908414 119.818512 
L 365.615337 114.023639 
L 365.615337 114.023639 
L 366.675722 101.476185 
L 366.675722 101.476185 
L 367.382646 89.593709 
L 367.382646 89.593709 
L 368.089569 77.965764 
L 368.089569 77.965764 
L 368.796492 70.090966 
L 368.796492 70.090966 
L 369.503416 64.757857 
L 369.503416 64.757857 
L 370.210339 61.146161 
L 370.210339 61.146161 
L 370.917262 58.70013 
L 370.917262 58.70013 
L 371.624186 57.043662 
L 371.624186 57.043662 
L 372.331109 55.921834 
L 372.331109 55.921834 
L 373.038032 55.162092 
L 373.038032 55.162092 
L 373.921687 54.547317 
L 373.921687 54.547317 
L 374.982072 54.113809 
L 374.982072 54.113809 
L 376.395918 53.818344 
L 376.395918 53.818344 
L 378.516688 53.645733 
L 378.516688 53.645733 
L 382.934959 53.574813 
L 382.934959 53.574813 
L 397.250157 53.614126 
L 397.250157 53.614126 
L 397.426888 53.750495 
L 397.426888 53.750495 
L 398.310542 53.705764 
L 398.310542 53.705764 
L 398.487273 53.763171 
L 398.487273 53.763171 
" clip-path="url(#p807f9410d9)" style="fill: none; stroke: #1f77b4; stroke-width: 1.5; stroke-linecap: square"/>
   </g>
   <g id="line2d_28">
    <path d="M 73.832727 53.568 
L 92.212734 53.568 
L 92.212734 53.568 
L 92.389465 59.01017 
L 92.389465 59.01017 
L 92.566196 57.979813 
L 92.566196 57.979813 
L 92.919658 71.743469 
L 92.919658 71.743469 
L 93.096388 80.695254 
L 93.096388 80.695254 
L 93.273119 82.096296 
L 93.273119 82.096296 
L 93.803312 102.725782 
L 93.803312 102.725782 
L 93.980043 110.977743 
L 93.980043 110.977743 
L 94.156773 108.751678 
L 94.156773 108.751678 
L 94.686966 123.59003 
L 94.686966 123.59003 
L 95.57062 146.603784 
L 95.57062 146.603784 
L 95.747351 147.297018 
L 95.747351 147.297018 
L 95.924082 151.019059 
L 95.924082 151.019059 
L 96.100813 157.094153 
L 96.100813 157.094153 
L 96.277543 157.257661 
L 96.277543 157.257661 
L 96.631005 166.942328 
L 96.631005 166.942328 
L 96.807736 166.02723 
L 96.984467 170.883888 
L 96.984467 170.883888 
L 97.161198 171.681715 
L 97.337928 174.26579 
L 97.337928 174.26579 
L 97.514659 179.390716 
L 97.514659 179.390716 
L 97.69139 178.836364 
L 97.69139 178.836364 
L 97.868121 182.297395 
L 97.868121 182.297395 
L 98.044852 183.010286 
L 98.044852 183.010286 
L 98.221583 185.021021 
L 98.221583 185.021021 
L 98.398313 189.086943 
L 98.398313 189.086943 
L 98.575044 188.257006 
L 98.575044 188.257006 
L 98.751775 190.86163 
L 98.751775 190.86163 
L 98.928506 191.318704 
L 98.928506 191.318704 
L 99.105237 193.278064 
L 99.105237 193.278064 
L 99.281968 193.464524 
L 99.281968 193.464524 
L 99.458698 195.001097 
L 99.458698 195.001097 
L 99.635429 195.557293 
L 99.635429 195.557293 
L 99.988891 198.071284 
L 99.988891 198.071284 
L 100.165622 198.017005 
L 100.165622 198.017005 
L 100.342353 198.755081 
L 100.342353 198.755081 
L 101.226007 199.63187 
L 101.226007 199.63187 
L 101.579469 199.272521 
L 101.579469 199.272521 
L 101.756199 199.494831 
L 101.756199 199.494831 
L 101.93293 199.309265 
L 101.93293 199.309265 
L 102.109661 199.533586 
L 102.109661 199.533586 
L 102.286392 199.238457 
L 102.286392 199.238457 
L 102.463123 199.471377 
L 102.463123 199.471377 
L 102.639854 198.951536 
L 102.639854 198.951536 
L 102.816584 199.142686 
L 102.816584 199.142686 
L 102.993315 198.398859 
L 102.993315 198.398859 
L 103.170046 198.408519 
L 103.170046 198.408519 
L 103.346777 197.356383 
L 103.346777 197.356383 
L 103.523508 197.109893 
L 103.523508 197.109893 
L 103.700239 195.86817 
L 103.700239 195.86817 
L 103.876969 193.015156 
L 103.876969 193.015156 
L 104.0537 193.740164 
L 104.0537 193.740164 
L 104.230431 190.335199 
L 104.230431 190.335199 
L 104.407162 190.66847 
L 104.407162 190.66847 
L 104.583893 186.925543 
L 104.583893 186.925543 
L 104.760624 186.368119 
L 104.760624 186.368119 
L 105.290816 177.513557 
L 105.290816 177.513557 
L 105.467547 167.841008 
L 105.467547 167.841008 
L 105.644278 170.436363 
L 105.644278 170.436363 
L 105.821009 160.814463 
L 105.821009 160.814463 
L 105.997739 162.122639 
L 105.997739 162.122639 
L 106.17447 152.429316 
L 106.17447 152.429316 
L 106.351201 150.869289 
L 106.351201 150.869289 
L 107.058124 121.457278 
L 107.058124 121.457278 
L 107.234855 121.6601 
L 107.234855 121.6601 
L 108.118509 135.572856 
L 108.118509 135.572856 
L 108.471971 140.580792 
L 108.471971 140.580792 
L 108.648702 140.82974 
L 108.648702 140.82974 
L 109.002164 143.118238 
L 109.002164 143.118238 
L 109.178894 143.544878 
L 109.178894 143.544878 
L 109.532356 143.78517 
L 109.532356 143.78517 
L 109.709087 144.482033 
L 109.709087 144.482033 
L 109.885818 144.378947 
L 110.062549 143.790251 
L 110.41601 144.338684 
L 110.41601 144.338684 
L 110.769472 143.976208 
L 110.769472 143.976208 
L 110.946203 143.573804 
L 110.946203 143.573804 
L 111.299664 144.192823 
L 111.299664 144.192823 
L 111.476395 142.460688 
L 111.476395 142.460688 
L 111.653126 142.816909 
L 111.653126 142.816909 
L 111.829857 141.957878 
L 111.829857 141.957878 
L 112.006588 140.241044 
L 112.006588 140.241044 
L 112.183319 141.315796 
L 112.183319 141.315796 
L 112.53678 139.154173 
L 112.53678 139.154173 
L 112.713511 137.871015 
L 112.713511 137.871015 
L 112.890242 135.28225 
L 112.890242 135.28225 
L 113.066973 135.314415 
L 113.066973 135.314415 
L 113.243704 134.017073 
L 113.243704 134.017073 
L 113.420435 129.544615 
L 113.420435 129.544615 
L 113.597165 129.93613 
L 113.597165 129.93613 
L 113.773896 127.183019 
L 113.773896 127.183019 
L 113.950627 121.545566 
L 113.950627 121.545566 
L 114.127358 122.477137 
L 114.304089 118.153668 
L 114.304089 118.153668 
L 114.48082 110.420152 
L 114.48082 110.420152 
L 114.65755 112.076843 
L 114.65755 112.076843 
L 115.011012 95.557898 
L 115.011012 95.557898 
L 115.364474 100.118923 
L 115.364474 100.118923 
L 115.541205 112.186686 
L 115.541205 112.186686 
L 115.717935 109.9155 
L 115.717935 109.9155 
L 116.071397 128.806539 
L 116.071397 128.806539 
L 116.248128 127.10361 
L 116.248128 127.10361 
L 116.60159 141.052832 
L 116.60159 141.052832 
L 116.77832 140.15929 
L 116.77832 140.15929 
L 117.131782 150.79714 
L 117.131782 150.79714 
L 117.308513 149.925767 
L 117.308513 149.925767 
L 117.485244 153.983424 
L 117.485244 153.983424 
L 117.661975 155.338117 
L 117.661975 155.338117 
L 118.192167 161.065812 
L 118.192167 161.065812 
L 118.72236 165.80492 
L 118.72236 165.80492 
L 119.075821 168.660949 
L 119.075821 168.660949 
L 119.252552 168.683845 
L 119.252552 168.683845 
L 119.782745 170.560613 
L 119.782745 170.560613 
L 119.959475 170.47266 
L 119.959475 170.47266 
L 120.312937 170.839269 
L 120.312937 170.839269 
L 120.489668 170.851666 
L 120.489668 170.851666 
L 120.666399 171.482691 
L 120.666399 171.482691 
L 120.84313 170.746849 
L 120.84313 170.746849 
L 121.196591 171.438184 
L 121.196591 171.438184 
L 121.373322 171.662058 
L 121.373322 171.662058 
L 121.550053 171.536524 
L 121.550053 171.536524 
L 121.726784 170.491368 
L 121.726784 170.491368 
L 121.903515 171.607388 
L 121.903515 171.607388 
L 122.080245 171.150202 
L 122.080245 171.150202 
L 122.256976 171.41607 
L 122.433707 171.00166 
L 122.433707 171.00166 
L 122.610438 171.115301 
L 122.610438 171.115301 
L 122.787169 171.415177 
L 122.787169 171.415177 
L 122.9639 170.311554 
L 122.9639 170.311554 
L 123.14063 170.984405 
L 123.14063 170.984405 
L 123.317361 170.493992 
L 123.317361 170.493992 
L 123.494092 170.52331 
L 123.494092 170.52331 
L 123.670823 170.80783 
L 123.670823 170.80783 
L 123.847554 169.008739 
L 123.847554 169.008739 
L 124.024285 170.128166 
L 124.024285 170.128166 
L 124.201015 169.297167 
L 124.201015 169.297167 
L 124.554477 169.74486 
L 124.554477 169.74486 
L 124.731208 169.363732 
L 124.731208 169.363732 
L 124.907939 169.406117 
L 124.907939 169.406117 
L 125.08467 167.552858 
L 125.08467 167.552858 
L 125.261401 167.885961 
L 125.261401 167.885961 
L 125.438131 167.91567 
L 125.438131 167.91567 
L 125.614862 167.665717 
L 125.614862 167.665717 
L 125.791593 167.825428 
L 125.968324 165.857859 
L 125.968324 165.857859 
L 126.145055 166.32465 
L 126.145055 166.32465 
L 126.321786 165.420385 
L 126.321786 165.420385 
L 126.498516 165.458805 
L 126.498516 165.458805 
L 126.675247 165.703844 
L 126.675247 165.703844 
L 126.851978 163.650333 
L 126.851978 163.650333 
L 127.028709 164.246735 
L 127.028709 164.246735 
L 127.20544 163.097153 
L 127.20544 163.097153 
L 127.382171 163.197224 
L 127.382171 163.197224 
L 127.558901 163.084253 
L 127.558901 163.084253 
L 127.735632 160.309978 
L 127.735632 160.309978 
L 127.912363 161.182133 
L 127.912363 161.182133 
L 128.089094 159.841679 
L 128.089094 159.841679 
L 128.265825 159.995806 
L 128.265825 159.995806 
L 128.442556 159.610322 
L 128.442556 159.610322 
L 128.619286 157.603831 
L 128.619286 157.603831 
L 128.796017 158.919211 
L 128.796017 158.919211 
L 128.972748 156.723133 
L 128.972748 156.723133 
L 129.149479 156.854978 
L 129.149479 156.854978 
L 129.32621 156.158896 
L 129.32621 156.158896 
L 129.502941 154.139561 
L 129.502941 154.139561 
L 129.679671 155.321364 
L 129.679671 155.321364 
L 129.856402 153.5966 
L 129.856402 153.5966 
L 130.033133 153.329224 
L 130.209864 152.404298 
L 130.209864 152.404298 
L 130.386595 150.327724 
L 130.386595 150.327724 
L 130.563326 151.199934 
L 130.563326 151.199934 
L 130.916787 148.841633 
L 130.916787 148.841633 
L 131.093518 147.847797 
L 131.093518 147.847797 
L 131.270249 146.19306 
L 131.270249 146.19306 
L 131.44698 146.555759 
L 131.44698 146.555759 
L 131.623711 145.492455 
L 131.623711 145.492455 
L 131.800441 142.439579 
L 131.800441 142.439579 
L 131.977172 143.687612 
L 131.977172 143.687612 
L 132.153903 141.342098 
L 132.153903 141.342098 
L 132.330634 141.389453 
L 132.330634 141.389453 
L 132.507365 140.660759 
L 132.507365 140.660759 
L 132.684096 137.775021 
L 132.684096 137.775021 
L 132.860826 138.218079 
L 132.860826 138.218079 
L 133.214288 133.963296 
L 133.214288 133.963296 
L 133.391019 134.807083 
L 133.391019 134.807083 
L 133.56775 133.130623 
L 133.56775 133.130623 
L 133.744481 132.527966 
L 133.744481 132.527966 
L 133.921211 131.120725 
L 133.921211 131.120725 
L 134.097942 128.505211 
L 134.097942 128.505211 
L 134.274673 128.629462 
L 134.451404 127.112768 
L 134.451404 127.112768 
L 134.628135 123.996008 
L 134.628135 123.996008 
L 134.804866 124.387411 
L 134.804866 124.387411 
L 134.981596 122.946999 
L 134.981596 122.946999 
L 135.158327 119.161074 
L 135.158327 119.161074 
L 135.335058 119.782996 
L 135.335058 119.782996 
L 135.511789 117.987312 
L 135.511789 117.987312 
L 135.68852 114.003423 
L 135.68852 114.003423 
L 135.865251 114.784721 
L 135.865251 114.784721 
L 136.218712 108.537967 
L 136.218712 108.537967 
L 136.395443 109.3908 
L 136.395443 109.3908 
L 136.748905 102.652348 
L 136.748905 102.652348 
L 136.925636 103.582803 
L 136.925636 103.582803 
L 137.102367 100.915411 
L 137.102367 100.915411 
L 137.279097 96.353269 
L 137.279097 96.353269 
L 137.455828 97.324544 
L 137.455828 97.324544 
L 137.80929 89.994772 
L 137.80929 89.994772 
L 137.986021 90.168053 
L 137.986021 90.168053 
L 138.869675 76.01707 
L 138.869675 76.01707 
L 139.046406 70.771356 
L 139.046406 70.771356 
L 139.223137 71.412097 
L 139.223137 71.412097 
L 139.399867 68.884982 
L 139.399867 68.884982 
L 139.576598 62.975184 
L 139.576598 62.975184 
L 139.753329 62.143069 
L 139.753329 62.143069 
L 140.283522 53.568 
L 140.283522 53.568 
L 150.710641 53.568 
L 150.710641 53.568 
L 150.887372 56.456474 
L 150.887372 56.456474 
L 151.240833 72.732838 
L 151.240833 72.732838 
L 151.417564 74.22859 
L 151.417564 74.22859 
L 151.771026 86.471979 
L 151.771026 86.471979 
L 152.124488 103.179561 
L 152.124488 103.179561 
L 152.301218 102.269768 
L 152.301218 102.269768 
L 152.477949 107.767558 
L 152.477949 107.767558 
L 152.65468 116.794396 
L 152.65468 116.794396 
L 152.831411 118.167126 
L 152.831411 118.167126 
L 153.184873 130.037764 
L 153.184873 130.037764 
L 153.361603 139.809434 
L 153.361603 139.809434 
L 153.538334 137.47615 
L 153.538334 137.47615 
L 153.891796 153.300521 
L 153.891796 153.300521 
L 154.068527 151.353502 
L 154.068527 151.353502 
L 154.421988 159.85659 
L 154.421988 159.85659 
L 154.598719 164.325139 
L 154.598719 164.325139 
L 154.77545 172.026378 
L 154.77545 172.026378 
L 154.952181 172.236123 
L 154.952181 172.236123 
L 155.128912 177.070723 
L 155.128912 177.070723 
L 155.305643 185.473963 
L 155.305643 185.473963 
L 155.482373 183.430336 
L 155.482373 183.430336 
L 155.659104 190.546118 
L 155.659104 190.546118 
L 155.835835 190.345307 
L 155.835835 190.345307 
L 156.012566 195.364802 
L 156.012566 195.364802 
L 156.189297 196.860387 
L 156.189297 196.860387 
L 156.366028 200.132111 
L 156.366028 200.132111 
L 156.542758 207.321382 
L 156.542758 207.321382 
L 156.719489 205.470245 
L 156.719489 205.470245 
L 156.89622 212.450776 
L 156.89622 212.450776 
L 157.072951 210.793973 
L 157.072951 210.793973 
L 157.249682 216.313485 
L 157.249682 216.313485 
L 157.426413 215.708874 
L 157.426413 215.708874 
L 157.603143 220.320716 
L 157.603143 220.320716 
L 157.779874 220.195237 
L 157.779874 220.195237 
L 157.956605 224.171531 
L 157.956605 224.171531 
L 158.133336 224.263672 
L 158.133336 224.263672 
L 158.310067 227.747822 
L 158.310067 227.747822 
L 158.486798 227.934338 
L 158.486798 227.934338 
L 158.663528 231.030659 
L 158.663528 231.030659 
L 158.840259 231.22812 
L 158.840259 231.22812 
L 159.01699 234.055334 
L 159.01699 234.055334 
L 159.193721 234.164339 
L 159.193721 234.164339 
L 159.370452 236.765613 
L 159.547183 237.14596 
L 159.547183 237.14596 
L 159.723913 239.14145 
L 159.900644 239.035572 
L 159.900644 239.035572 
L 160.077375 241.368744 
L 160.077375 241.368744 
L 160.254106 241.005263 
L 160.254106 241.005263 
L 160.430837 242.911795 
L 160.430837 242.911795 
L 160.607568 243.065698 
L 160.607568 243.065698 
L 160.784299 244.292734 
L 160.784299 244.292734 
L 160.961029 244.087902 
L 160.961029 244.087902 
L 161.13776 245.352242 
L 161.13776 245.352242 
L 161.314491 245.475319 
L 161.314491 245.475319 
L 161.491222 246.02688 
L 161.491222 246.02688 
L 161.667953 246.142363 
L 161.667953 246.142363 
L 162.374876 247.362977 
L 162.374876 247.362977 
L 162.551607 247.178137 
L 162.551607 247.178137 
L 162.728338 247.313556 
L 162.728338 247.313556 
L 163.25853 247.295072 
L 163.25853 247.295072 
L 163.435261 247.407931 
L 163.435261 247.407931 
L 163.611992 247.279604 
L 163.611992 247.279604 
L 163.965454 247.529166 
L 163.965454 247.529166 
L 164.142184 247.018817 
L 164.142184 247.018817 
L 164.672377 247.361023 
L 164.672377 247.361023 
L 164.849108 246.804548 
L 164.849108 246.804548 
L 165.025839 247.014629 
L 165.025839 247.014629 
L 165.202569 245.820038 
L 165.202569 245.820038 
L 165.3793 246.09579 
L 165.3793 246.09579 
L 165.556031 244.977871 
L 165.556031 244.977871 
L 165.732762 245.820875 
L 165.732762 245.820875 
L 165.909493 243.88402 
L 165.909493 243.88402 
L 166.086224 244.864621 
L 166.086224 244.864621 
L 166.262954 242.525083 
L 166.262954 242.525083 
L 166.439685 243.692926 
L 166.439685 243.692926 
L 166.616416 240.910609 
L 166.616416 240.910609 
L 166.793147 242.66201 
L 166.793147 242.66201 
L 167.146609 240.488101 
L 167.146609 240.488101 
L 168.030263 235.520987 
L 168.030263 235.520987 
L 168.206994 233.760093 
L 168.206994 233.760093 
L 168.383724 233.625176 
L 168.383724 233.625176 
L 168.560455 230.715482 
L 168.560455 230.715482 
L 168.737186 230.781879 
L 168.737186 230.781879 
L 168.913917 228.279558 
L 168.913917 228.279558 
L 169.090648 228.547102 
L 169.090648 228.547102 
L 169.267379 224.90983 
L 169.267379 224.90983 
L 169.444109 225.371763 
L 169.444109 225.371763 
L 169.62084 221.772632 
L 169.62084 221.772632 
L 169.797571 222.425603 
L 169.797571 222.425603 
L 169.974302 218.517102 
L 169.974302 218.517102 
L 170.151033 219.327606 
L 170.151033 219.327606 
L 170.327764 215.176468 
L 170.327764 215.176468 
L 170.504494 216.085255 
L 170.504494 216.085255 
L 170.681225 211.743302 
L 170.681225 211.743302 
L 170.857956 212.713349 
L 170.857956 212.713349 
L 171.034687 208.249603 
L 171.034687 208.249603 
L 171.211418 209.208984 
L 171.211418 209.208984 
L 171.388149 204.716422 
L 171.388149 204.716422 
L 171.564879 205.590419 
L 171.564879 205.590419 
L 171.74161 201.148842 
L 171.74161 201.148842 
L 171.918341 201.886025 
L 171.918341 201.886025 
L 172.095072 197.569647 
L 172.095072 197.569647 
L 172.271803 198.103115 
L 172.271803 198.103115 
L 172.448534 193.981797 
L 172.448534 193.981797 
L 172.625265 194.234542 
L 172.625265 194.234542 
L 172.801995 190.402658 
L 172.801995 190.402658 
L 172.978726 190.297059 
L 172.978726 190.297059 
L 173.155457 186.846191 
L 173.155457 186.846191 
L 173.332188 186.312947 
L 173.332188 186.312947 
L 173.68565 182.092619 
L 173.68565 182.092619 
L 173.86238 179.888221 
L 173.86238 179.888221 
L 174.039111 174.437395 
L 174.039111 174.437395 
L 174.215842 175.741941 
L 174.215842 175.741941 
L 174.392573 171.161874 
L 174.392573 171.161874 
L 174.569304 172.094171 
L 174.569304 172.094171 
L 174.746035 167.987707 
L 174.746035 167.987707 
L 174.922765 168.148423 
L 174.922765 168.148423 
L 175.276227 163.517594 
L 175.276227 163.517594 
L 175.452958 161.763401 
L 175.452958 161.763401 
L 175.629689 156.404884 
L 175.629689 156.404884 
L 175.80642 158.536687 
L 175.80642 158.536687 
L 175.98315 154.249069 
L 175.98315 154.249069 
L 176.159881 154.486066 
L 176.159881 154.486066 
L 176.513343 150.376084 
L 176.513343 150.376084 
L 176.690074 149.517667 
L 176.690074 149.517667 
L 176.866805 144.665477 
L 176.866805 144.665477 
L 177.043535 145.527692 
L 177.043535 145.527692 
L 177.220266 142.833048 
L 177.220266 142.833048 
L 177.573728 140.843254 
L 177.573728 140.843254 
L 177.750459 136.733719 
L 177.750459 136.733719 
L 177.92719 137.108034 
L 177.92719 137.108034 
L 178.10392 134.541661 
L 178.10392 134.541661 
L 178.280651 129.659372 
L 178.280651 129.659372 
L 178.457382 131.385197 
L 178.457382 131.385197 
L 178.634113 127.591119 
L 178.634113 127.591119 
L 178.810844 126.792062 
L 178.810844 126.792062 
L 178.987575 124.309231 
L 178.987575 124.309231 
L 179.164305 118.908329 
L 179.164305 118.908329 
L 179.341036 119.174476 
L 179.341036 119.174476 
L 179.517767 116.151979 
L 179.517767 116.151979 
L 179.694498 108.744921 
L 179.694498 108.744921 
L 179.871229 109.619476 
L 179.871229 109.619476 
L 180.04796 105.014726 
L 180.04796 105.014726 
L 180.22469 96.446973 
L 180.22469 96.446973 
L 180.401421 97.948756 
L 180.401421 97.948756 
L 180.754883 81.712432 
L 180.754883 81.712432 
L 180.931614 83.042108 
L 180.931614 83.042108 
L 181.108345 76.391776 
L 181.108345 76.391776 
L 181.285075 64.824645 
L 181.285075 64.824645 
L 181.461806 65.157692 
L 181.461806 65.157692 
L 181.638537 57.84082 
L 181.638537 57.84082 
L 181.815268 56.829393 
L 181.815268 56.829393 
L 181.991999 59.365331 
L 181.991999 59.365331 
L 183.229115 108.256295 
L 183.229115 108.256295 
L 183.405845 108.190568 
L 183.405845 108.190568 
L 183.759307 123.077616 
L 183.759307 123.077616 
L 183.936038 133.806936 
L 183.936038 133.806936 
L 184.112769 130.958111 
L 184.112769 130.958111 
L 184.466231 149.823407 
L 184.466231 149.823407 
L 184.642961 147.477167 
L 184.642961 147.477167 
L 184.996423 166.750173 
L 184.996423 166.750173 
L 185.173154 164.023364 
L 185.173154 164.023364 
L 185.349885 173.197403 
L 185.349885 173.197403 
L 185.526616 174.240549 
L 185.526616 174.240549 
L 185.703346 179.62548 
L 185.703346 179.62548 
L 185.880077 191.006934 
L 185.880077 191.006934 
L 186.056808 188.629366 
L 186.056808 188.629366 
L 186.233539 197.117208 
L 186.233539 197.117208 
L 186.41027 197.118157 
L 186.41027 197.118157 
L 186.587001 204.048206 
L 186.587001 204.048206 
L 186.763731 206.118023 
L 186.763731 206.118023 
L 187.293924 217.35691 
L 187.293924 217.35691 
L 187.470655 227.68338 
L 187.470655 227.68338 
L 187.647386 224.346543 
L 187.647386 224.346543 
L 187.824116 233.184855 
L 187.824116 233.184855 
L 188.000847 230.473738 
L 188.000847 230.473738 
L 188.177578 238.986821 
L 188.177578 238.986821 
L 188.354309 236.695307 
L 188.354309 236.695307 
L 188.53104 244.678218 
L 188.53104 244.678218 
L 188.707771 242.12011 
L 188.707771 242.12011 
L 189.768156 256.927414 
L 189.768156 256.927414 
L 189.944886 257.12024 
L 189.944886 257.12024 
L 190.121617 260.230913 
L 190.121617 260.230913 
L 190.298348 259.974036 
L 190.298348 259.974036 
L 190.475079 263.714896 
L 190.475079 263.714896 
L 190.65181 263.379894 
L 190.65181 263.379894 
L 190.828541 264.187159 
L 191.182002 266.855445 
L 191.182002 266.855445 
L 191.358733 268.121962 
L 191.358733 268.121962 
L 191.535464 268.439094 
L 191.535464 268.439094 
L 191.712195 270.38561 
L 191.712195 270.38561 
L 191.888926 270.33228 
L 191.888926 270.33228 
L 192.242387 271.54139 
L 192.242387 271.54139 
L 192.419118 271.507773 
L 192.419118 271.507773 
L 192.595849 272.69812 
L 192.595849 272.69812 
L 193.126041 273.608248 
L 193.126041 273.608248 
L 193.302772 273.356955 
L 193.302772 273.356955 
L 193.479503 274.017241 
L 193.479503 274.017241 
L 193.656234 273.673193 
L 193.656234 273.673193 
L 193.832965 274.384911 
L 193.832965 274.384911 
L 194.009696 274.179912 
L 194.009696 274.179912 
L 194.363157 274.632574 
L 194.363157 274.632574 
L 194.539888 274.776593 
L 194.539888 274.776593 
L 194.89335 274.425174 
L 194.89335 274.425174 
L 195.246812 274.725385 
L 195.246812 274.725385 
L 195.423542 274.484926 
L 195.423542 274.484926 
L 195.777004 274.778492 
L 195.777004 274.778492 
L 196.307197 274.2013 
L 196.307197 274.2013 
L 196.483927 274.444942 
L 196.483927 274.444942 
L 196.837389 273.961957 
L 196.837389 273.961957 
L 197.01412 273.979883 
L 197.01412 273.979883 
L 197.190851 272.644511 
L 197.190851 272.644511 
L 197.367582 273.316636 
L 197.367582 273.316636 
L 197.544312 271.256257 
L 197.544312 271.256257 
L 197.721043 272.271313 
L 197.721043 272.271313 
L 197.897774 271.954684 
L 197.897774 271.954684 
L 198.074505 270.494615 
L 198.074505 270.494615 
L 198.251236 270.634613 
L 198.251236 270.634613 
L 198.427967 267.434536 
L 198.427967 267.434536 
L 198.604697 268.855961 
L 198.604697 268.855961 
L 198.958159 266.33968 
L 198.958159 266.33968 
L 199.13489 265.930184 
L 199.13489 265.930184 
L 199.311621 263.05796 
L 199.311621 263.05796 
L 199.488352 263.364705 
L 199.488352 263.364705 
L 199.665082 258.330579 
L 199.665082 258.330579 
L 199.841813 260.382917 
L 199.841813 260.382917 
L 200.372006 255.568086 
L 200.372006 255.568086 
L 200.548737 251.114727 
L 200.548737 251.114727 
L 200.725467 251.834653 
L 200.725467 251.834653 
L 200.902198 245.719576 
L 200.902198 245.719576 
L 201.078929 247.746562 
L 201.078929 247.746562 
L 201.609122 240.842536 
L 201.609122 240.842536 
L 201.785852 236.05451 
L 201.785852 236.05451 
L 201.962583 235.96438 
L 201.962583 235.96438 
L 202.139314 229.951998 
L 202.139314 229.951998 
L 202.316045 231.084212 
L 202.316045 231.084212 
L 202.492776 222.695994 
L 202.492776 222.695994 
L 202.669507 225.307655 
L 202.669507 225.307655 
L 202.846237 215.297424 
L 202.846237 215.297424 
L 203.022968 218.426302 
L 203.022968 218.426302 
L 203.199699 215.752264 
L 203.729892 203.15109 
L 203.729892 203.15109 
L 203.906622 201.146441 
L 203.906622 201.146441 
L 204.083353 194.390678 
L 204.083353 194.390678 
L 204.260084 193.088589 
L 204.260084 193.088589 
L 204.436815 185.418902 
L 204.436815 185.418902 
L 204.613546 184.208451 
L 204.613546 184.208451 
L 204.790277 176.104976 
L 204.790277 176.104976 
L 204.967007 174.955003 
L 204.967007 174.955003 
L 205.143738 167.323288 
L 205.143738 167.323288 
L 205.320469 164.925282 
L 205.320469 164.925282 
L 205.673931 154.37438 
L 205.673931 154.37438 
L 205.850662 148.701355 
L 205.850662 148.701355 
L 206.027392 135.613957 
L 206.027392 135.613957 
L 206.204123 138.028716 
L 206.204123 138.028716 
L 206.380854 126.899895 
L 206.380854 126.899895 
L 206.557585 126.499669 
L 206.557585 126.499669 
L 206.911047 115.228058 
L 206.911047 115.228058 
L 207.087778 109.992619 
L 207.087778 109.992619 
L 207.264508 98.965376 
L 207.264508 98.965376 
L 207.441239 98.328321 
L 207.441239 98.328321 
L 207.61797 92.775526 
L 207.61797 92.775526 
L 207.794701 81.197952 
L 207.794701 81.197952 
L 207.971432 82.406336 
L 207.971432 82.406336 
L 208.324893 65.106652 
L 208.324893 65.106652 
L 208.501624 66.354629 
L 208.501624 66.354629 
L 208.855086 53.568 
L 208.855086 53.568 
L 214.863934 53.568 
L 214.863934 53.568 
L 215.040665 57.570708 
L 215.040665 57.570708 
L 215.217396 58.060617 
L 215.747588 72.180328 
L 215.747588 72.180328 
L 215.924319 78.571325 
L 215.924319 78.571325 
L 216.10105 77.319383 
L 216.10105 77.319383 
L 216.631243 93.074397 
L 216.631243 93.074397 
L 216.807973 92.682826 
L 216.807973 92.682826 
L 217.161435 103.074241 
L 217.161435 103.074241 
L 217.338166 110.153502 
L 217.514897 108.706836 
L 217.514897 108.706836 
L 217.691628 112.745897 
L 217.691628 112.745897 
L 217.868358 119.995311 
L 217.868358 119.995311 
L 218.045089 120.339638 
L 218.045089 120.339638 
L 219.458936 152.057458 
L 219.458936 152.057458 
L 219.635667 152.810109 
L 219.635667 152.810109 
L 219.812398 156.254387 
L 219.812398 156.254387 
L 219.989129 162.206347 
L 219.989129 162.206347 
L 220.165859 161.906471 
L 220.165859 161.906471 
L 220.519321 172.404266 
L 220.519321 172.404266 
L 220.696052 170.983288 
L 220.696052 170.983288 
L 220.872783 176.387206 
L 220.872783 176.387206 
L 221.049514 176.573386 
L 221.049514 176.573386 
L 221.226244 179.705168 
L 221.226244 179.705168 
L 221.402975 180.598151 
L 221.402975 180.598151 
L 222.109899 190.644736 
L 222.109899 190.644736 
L 222.286629 191.268334 
L 222.286629 191.268334 
L 222.640091 194.112916 
L 222.640091 194.112916 
L 222.816822 195.797585 
L 222.816822 195.797585 
L 222.993553 198.72029 
L 222.993553 198.72029 
L 223.170284 198.374399 
L 223.170284 198.374399 
L 223.347014 200.404903 
L 223.347014 200.404903 
L 223.523745 200.522173 
L 223.700476 201.821749 
L 223.700476 201.821749 
L 223.877207 202.250009 
L 223.877207 202.250009 
L 224.230669 203.567454 
L 224.230669 203.567454 
L 225.114323 205.081188 
L 225.114323 205.081188 
L 225.291054 205.111343 
L 225.291054 205.111343 
L 225.467784 205.309306 
L 225.467784 205.309306 
L 225.644515 205.170648 
L 225.644515 205.170648 
L 225.821246 205.38743 
L 225.997977 205.203428 
L 225.997977 205.203428 
L 226.174708 205.421383 
L 226.174708 205.421383 
L 226.351439 205.232243 
L 226.351439 205.232243 
L 226.528169 205.45098 
L 226.528169 205.45098 
L 226.7049 205.223699 
L 226.7049 205.223699 
L 226.881631 205.406249 
L 226.881631 205.406249 
L 227.058362 205.102017 
L 227.058362 205.102017 
L 227.235093 204.41219 
L 227.235093 204.41219 
L 227.411824 204.768803 
L 227.411824 204.768803 
L 227.588554 203.796354 
L 227.588554 203.796354 
L 227.765285 204.146824 
L 227.765285 204.146824 
L 227.942016 202.892872 
L 227.942016 202.892872 
L 228.118747 203.154664 
L 228.118747 203.154664 
L 228.295478 201.656287 
L 228.295478 201.656287 
L 228.472209 201.71615 
L 228.472209 201.71615 
L 228.648939 200.031593 
L 228.82567 199.547882 
L 228.82567 199.547882 
L 229.355863 195.277352 
L 229.355863 195.277352 
L 229.532594 189.922464 
L 229.532594 189.922464 
L 229.709324 191.448092 
L 229.709324 191.448092 
L 229.886055 185.714422 
L 229.886055 185.714422 
L 230.062786 186.880813 
L 230.062786 186.880813 
L 230.239517 181.125308 
L 230.239517 181.125308 
L 230.416248 181.432109 
L 230.416248 181.432109 
L 230.592979 175.754394 
L 230.592979 175.754394 
L 230.76971 174.635135 
L 230.76971 174.635135 
L 231.123171 166.735151 
L 231.123171 166.735151 
L 231.299902 162.717757 
L 231.299902 162.717757 
L 231.476633 150.218272 
L 231.476633 150.218272 
L 231.653364 152.785649 
L 231.653364 152.785649 
L 231.830095 142.05901 
L 231.830095 142.05901 
L 232.006825 141.817545 
L 232.006825 141.817545 
L 232.360287 129.868727 
L 232.360287 129.868727 
L 232.537018 122.926393 
L 232.537018 122.926393 
L 232.713749 108.635748 
L 232.713749 108.635748 
L 232.89048 109.065012 
L 232.89048 109.065012 
L 233.243941 87.089099 
L 233.243941 87.089099 
L 233.420672 89.874375 
L 233.420672 89.874375 
L 233.597403 80.654768 
L 233.597403 80.654768 
L 233.774134 78.998188 
L 233.774134 78.998188 
L 234.127595 66.526625 
L 234.127595 66.526625 
L 234.304326 58.900941 
L 234.304326 58.900941 
L 234.481057 60.679929 
L 234.481057 60.679929 
L 234.834519 53.568 
L 234.834519 53.568 
L 241.196829 53.568 
L 241.196829 53.568 
L 241.55029 58.750947 
L 241.55029 58.750947 
L 241.903752 65.976851 
L 241.903752 65.976851 
L 242.080483 66.96058 
L 242.080483 66.96058 
L 242.433945 71.846834 
L 242.433945 71.846834 
L 242.787406 80.426426 
L 242.787406 80.426426 
L 242.964137 79.491672 
L 243.49433 90.423087 
L 243.49433 90.423087 
L 243.671061 90.482448 
L 243.671061 90.482448 
L 244.731446 109.285815 
L 244.731446 109.285815 
L 244.908176 109.890594 
L 244.908176 109.890594 
L 245.261638 116.170351 
L 245.261638 116.170351 
L 245.438369 120.256153 
L 245.438369 120.256153 
L 245.6151 119.95784 
L 245.6151 119.95784 
L 245.968561 127.305315 
L 246.145292 126.722035 
L 247.028946 137.16047 
L 247.028946 137.16047 
L 247.205677 137.187498 
L 247.205677 137.187498 
L 247.559139 140.781603 
L 247.559139 140.781603 
L 247.73587 140.774511 
L 247.73587 140.774511 
L 247.912601 141.888242 
L 247.912601 141.888242 
L 248.089331 143.786957 
L 248.089331 143.786957 
L 248.266062 143.320389 
L 248.266062 143.320389 
L 248.442793 144.543684 
L 248.442793 144.543684 
L 248.619524 144.631469 
L 248.619524 144.631469 
L 249.149716 145.644571 
L 249.149716 145.644571 
L 249.326447 146.115103 
L 249.326447 146.115103 
L 249.503178 145.70611 
L 249.503178 145.70611 
L 249.85664 146.186861 
L 249.85664 146.186861 
L 250.033371 145.703541 
L 250.210101 145.982309 
L 250.210101 145.982309 
L 250.563563 145.619665 
L 250.563563 145.619665 
L 250.740294 146.358243 
L 250.740294 146.358243 
L 251.093756 145.869729 
L 251.093756 145.869729 
L 251.270486 145.964271 
L 251.270486 145.964271 
L 251.447217 144.755105 
L 251.447217 144.755105 
L 251.623948 145.014272 
L 251.800679 144.347284 
L 251.800679 144.347284 
L 251.97741 142.772849 
L 251.97741 142.772849 
L 252.154141 143.672869 
L 252.154141 143.672869 
L 252.507602 139.487946 
L 252.507602 139.487946 
L 252.684333 140.385677 
L 252.684333 140.385677 
L 252.861064 138.155256 
L 252.861064 138.155256 
L 253.037795 138.014699 
L 253.037795 138.014699 
L 253.214526 136.436969 
L 253.214526 136.436969 
L 253.391256 133.156702 
L 253.391256 133.156702 
L 253.567987 133.362371 
L 253.567987 133.362371 
L 253.744718 131.734941 
L 253.744718 131.734941 
L 253.921449 127.119358 
L 253.921449 127.119358 
L 254.09818 127.774618 
L 254.09818 127.774618 
L 254.274911 125.391243 
L 254.274911 125.391243 
L 254.451642 120.268271 
L 254.451642 120.268271 
L 254.628372 121.237648 
L 254.628372 121.237648 
L 254.981834 112.787668 
L 254.981834 112.787668 
L 255.158565 114.09065 
L 255.158565 114.09065 
L 255.335296 110.20806 
L 255.335296 110.20806 
L 255.512027 109.045188 
L 255.512027 109.045188 
L 255.688757 106.42878 
L 255.688757 106.42878 
L 256.042219 96.071206 
L 256.042219 96.071206 
L 256.21895 98.011021 
L 256.21895 98.011021 
L 256.572412 87.217426 
L 256.572412 87.217426 
L 256.749142 88.816375 
L 256.749142 88.816375 
L 256.925873 84.795463 
L 256.925873 84.795463 
L 257.102604 77.901657 
L 257.102604 77.901657 
L 257.279335 78.378611 
L 257.279335 78.378611 
L 257.456066 75.058806 
L 257.456066 75.058806 
L 257.632797 68.577176 
L 257.632797 68.577176 
L 257.809527 67.499743 
L 257.809527 67.499743 
L 258.162989 59.331267 
L 258.162989 59.331267 
L 258.33972 53.568 
L 258.33972 53.568 
L 276.189534 53.568 
L 276.189534 53.568 
L 276.366265 60.221514 
L 276.366265 60.221514 
L 276.542996 59.2967 
L 276.542996 59.2967 
L 277.780112 111.913168 
L 277.780112 111.913168 
L 277.956843 113.673113 
L 278.310304 129.550311 
L 278.310304 129.550311 
L 278.487035 143.126223 
L 278.663766 140.592463 
L 278.663766 140.592463 
L 278.840497 148.459165 
L 278.840497 148.459165 
L 279.017228 162.507285 
L 279.017228 162.507285 
L 279.193959 160.249053 
L 279.193959 160.249053 
L 279.54742 172.517181 
L 279.54742 172.517181 
L 279.724151 178.663139 
L 279.724151 178.663139 
L 279.900882 191.016315 
L 279.900882 191.016315 
L 280.077613 189.8884 
L 280.077613 189.8884 
L 280.254344 198.579287 
L 280.254344 198.579287 
L 280.431074 200.602699 
L 280.431074 200.602699 
L 280.607805 206.083121 
L 280.607805 206.083121 
L 280.784536 219.668136 
L 280.784536 219.668136 
L 280.961267 215.351368 
L 280.961267 215.351368 
L 281.137998 227.241606 
L 281.137998 227.241606 
L 281.314729 223.763878 
L 281.314729 223.763878 
L 281.491459 234.208958 
L 281.491459 234.208958 
L 281.66819 232.093685 
L 281.66819 232.093685 
L 281.844921 241.634333 
L 281.844921 241.634333 
L 282.021652 239.121458 
L 282.021652 239.121458 
L 282.198383 248.167282 
L 282.198383 248.167282 
L 282.375114 246.198038 
L 282.375114 246.198038 
L 282.551844 254.948174 
L 282.551844 254.948174 
L 282.728575 251.960579 
L 282.728575 251.960579 
L 282.905306 254.477195 
L 282.905306 254.477195 
L 283.082037 259.068431 
L 283.082037 259.068431 
L 283.258768 260.23767 
L 283.258768 260.23767 
L 283.435499 264.870062 
L 283.435499 264.870062 
L 283.612229 264.663723 
L 283.612229 264.663723 
L 283.78896 270.893501 
L 283.78896 270.893501 
L 283.965691 269.663617 
L 283.965691 269.663617 
L 284.142422 271.438751 
L 284.142422 271.438751 
L 284.319153 274.719019 
L 284.319153 274.719019 
L 284.495884 275.680076 
L 284.495884 275.680076 
L 284.672614 279.366377 
L 284.672614 279.366377 
L 284.849345 279.227161 
L 284.849345 279.227161 
L 285.026076 284.079127 
L 285.026076 284.079127 
L 285.202807 282.59957 
L 285.202807 282.59957 
L 285.379538 284.005415 
L 285.379538 284.005415 
L 285.556269 286.600714 
L 285.556269 286.600714 
L 285.732999 286.754728 
L 285.732999 286.754728 
L 285.90973 289.46484 
L 285.90973 289.46484 
L 286.086461 289.047638 
L 286.263192 289.839825 
L 286.263192 289.839825 
L 286.439923 291.624062 
L 286.439923 291.624062 
L 286.616654 291.953535 
L 286.616654 291.953535 
L 286.793384 293.550363 
L 286.793384 293.550363 
L 286.970115 293.227033 
L 286.970115 293.227033 
L 287.323577 294.436925 
L 287.323577 294.436925 
L 287.500308 294.649519 
L 287.500308 294.649519 
L 287.677039 295.075153 
L 287.853769 295.05237 
L 287.853769 295.05237 
L 288.0305 295.35515 
L 288.0305 295.35515 
L 288.207231 295.263121 
L 288.207231 295.263121 
L 288.383962 295.405017 
L 288.383962 295.405017 
L 288.560693 295.226153 
L 288.560693 295.226153 
L 288.914155 295.488 
L 288.914155 295.488 
L 289.090885 295.27965 
L 289.090885 295.27965 
L 289.267616 295.412612 
L 289.267616 295.412612 
L 289.444347 295.114802 
L 289.444347 295.114802 
L 289.797809 295.395636 
L 289.797809 295.395636 
L 289.97454 294.854853 
L 289.97454 294.854853 
L 290.15127 295.036454 
L 290.15127 295.036454 
L 290.504732 294.288439 
L 290.504732 294.288439 
L 290.681463 294.234159 
L 290.681463 294.234159 
L 290.858194 292.715176 
L 290.858194 292.715176 
L 291.034925 293.058778 
L 291.034925 293.058778 
L 291.565117 290.86069 
L 291.565117 290.86069 
L 291.741848 288.183302 
L 291.741848 288.183302 
L 291.918579 288.667348 
L 291.918579 288.667348 
L 292.09531 287.75588 
L 292.09531 287.75588 
L 292.27204 285.740119 
L 292.27204 285.740119 
L 292.448771 285.069892 
L 292.448771 285.069892 
L 292.625502 281.833684 
L 292.625502 281.833684 
L 292.802233 282.002274 
L 292.802233 282.002274 
L 292.978964 277.032423 
L 292.978964 277.032423 
L 293.155695 278.373435 
L 293.332425 276.941902 
L 293.332425 276.941902 
L 293.509156 273.770639 
L 293.509156 273.770639 
L 293.685887 273.732889 
L 293.685887 273.732889 
L 293.862618 267.734636 
L 293.862618 267.734636 
L 294.039349 269.638376 
L 294.039349 269.638376 
L 294.21608 267.8595 
L 294.39281 263.946253 
L 294.39281 263.946253 
L 294.569541 264.135114 
L 294.569541 264.135114 
L 294.746272 256.941878 
L 294.746272 256.941878 
L 294.923003 259.293702 
L 294.923003 259.293702 
L 295.099734 257.062945 
L 295.099734 257.062945 
L 295.276465 252.808665 
L 295.276465 252.808665 
L 295.453195 252.735623 
L 295.453195 252.735623 
L 295.629926 244.711947 
L 295.629926 244.711947 
L 295.806657 247.11174 
L 295.806657 247.11174 
L 296.33685 238.833644 
L 296.33685 238.833644 
L 296.51358 231.929506 
L 296.690311 232.379042 
L 296.690311 232.379042 
L 296.867042 223.998306 
L 296.867042 223.998306 
L 297.043773 226.407202 
L 297.043773 226.407202 
L 297.220504 215.727805 
L 297.220504 215.727805 
L 297.397235 219.080445 
L 297.397235 219.080445 
L 297.927427 209.547447 
L 297.927427 209.547447 
L 298.104158 204.405768 
L 298.104158 204.405768 
L 298.280889 203.11898 
L 298.280889 203.11898 
L 298.45762 197.767499 
L 298.45762 197.767499 
L 298.63435 196.940745 
L 298.63435 196.940745 
L 298.811081 191.412074 
L 298.811081 191.412074 
L 298.987812 191.163573 
L 298.987812 191.163573 
L 299.164543 185.840907 
L 299.164543 185.840907 
L 299.341274 185.874636 
L 299.341274 185.874636 
L 299.518005 181.572387 
L 299.518005 181.572387 
L 299.694735 181.107215 
L 299.694735 181.107215 
L 299.871466 177.542707 
L 299.871466 177.542707 
L 300.048197 176.767887 
L 300.048197 176.767887 
L 300.401659 172.193906 
L 300.401659 172.193906 
L 300.57839 170.330261 
L 300.57839 170.330261 
L 300.755121 165.000279 
L 300.755121 165.000279 
L 300.931851 166.212852 
L 300.931851 166.212852 
L 301.108582 161.393777 
L 301.108582 161.393777 
L 301.285313 161.949861 
L 301.285313 161.949861 
L 301.462044 157.581829 
L 301.462044 157.581829 
L 301.638775 156.873462 
L 301.638775 156.873462 
L 301.815506 153.475253 
L 301.815506 153.475253 
L 301.992236 145.393724 
L 301.992236 145.393724 
L 302.168967 147.873093 
L 302.168967 147.873093 
L 302.345698 140.047381 
L 302.345698 140.047381 
L 302.522429 140.113275 
L 302.522429 140.113275 
L 302.69916 135.695041 
L 302.69916 135.695041 
L 302.875891 138.275206 
L 303.052621 142.978072 
L 303.052621 142.978072 
L 303.229352 154.953974 
L 303.229352 154.953974 
L 303.406083 155.294615 
L 303.406083 155.294615 
L 303.759545 178.31373 
L 303.759545 178.31373 
L 303.936276 174.675118 
L 303.936276 174.675118 
L 304.113006 185.318217 
L 304.113006 185.318217 
L 304.289737 184.932119 
L 304.289737 184.932119 
L 304.466468 191.738364 
L 304.643199 193.567945 
L 304.643199 193.567945 
L 304.81993 197.982159 
L 304.81993 197.982159 
L 304.996661 207.681513 
L 304.996661 207.681513 
L 305.173391 205.382684 
L 305.173391 205.382684 
L 305.350122 212.943869 
L 305.350122 212.943869 
L 305.526853 212.062779 
L 305.703584 217.794942 
L 305.703584 217.794942 
L 305.880315 218.049139 
L 305.880315 218.049139 
L 306.057046 222.557224 
L 306.057046 222.557224 
L 306.233776 223.406595 
L 306.233776 223.406595 
L 306.410507 227.27031 
L 306.410507 227.27031 
L 306.587238 228.217182 
L 306.587238 228.217182 
L 306.763969 231.90192 
L 306.763969 231.90192 
L 306.9407 232.633183 
L 306.9407 232.633183 
L 307.117431 235.686896 
L 307.117431 235.686896 
L 307.294161 236.444517 
L 307.294161 236.444517 
L 307.824354 243.062292 
L 307.824354 243.062292 
L 308.001085 243.412873 
L 308.001085 243.412873 
L 308.177816 246.175924 
L 308.177816 246.175924 
L 308.354546 246.344682 
L 308.354546 246.344682 
L 308.531277 248.790992 
L 308.531277 248.790992 
L 308.708008 248.946682 
L 308.708008 248.946682 
L 308.884739 251.175093 
L 308.884739 251.175093 
L 309.06147 251.380818 
L 309.06147 251.380818 
L 309.238201 253.133224 
L 309.238201 253.133224 
L 309.414931 252.899131 
L 309.414931 252.899131 
L 309.591662 254.936447 
L 309.591662 254.936447 
L 309.768393 254.908805 
L 309.768393 254.908805 
L 309.945124 255.299482 
L 309.945124 255.299482 
L 310.121855 256.953605 
L 310.121855 256.953605 
L 310.652047 258.305896 
L 310.652047 258.305896 
L 310.828778 259.382659 
L 310.828778 259.382659 
L 311.18224 259.653162 
L 311.18224 259.653162 
L 311.889163 261.192695 
L 311.889163 261.192695 
L 312.065894 261.033822 
L 312.065894 261.033822 
L 312.242625 261.170526 
L 312.419356 261.519656 
L 312.419356 261.519656 
L 312.596087 261.144391 
L 312.596087 261.144391 
L 312.772817 261.30695 
L 312.772817 261.30695 
L 312.949548 261.720411 
L 312.949548 261.720411 
L 313.126279 261.395405 
L 313.126279 261.395405 
L 313.30301 261.677356 
L 313.30301 261.677356 
L 313.479741 261.736661 
L 313.479741 261.736661 
L 313.656472 261.350228 
L 313.656472 261.350228 
L 314.009933 261.382896 
L 314.009933 261.382896 
L 314.186664 261.68227 
L 314.186664 261.68227 
L 314.363395 260.474109 
L 314.363395 260.474109 
L 314.540126 261.522615 
L 314.540126 261.522615 
L 314.716857 260.762202 
L 314.716857 260.762202 
L 314.893587 261.103961 
L 314.893587 261.103961 
L 315.247049 260.18568 
L 315.247049 260.18568 
L 315.42378 260.350082 
L 315.42378 260.350082 
L 315.600511 258.561825 
L 315.600511 258.561825 
L 315.777242 259.613067 
L 315.777242 259.613067 
L 315.953972 257.149502 
L 315.953972 257.149502 
L 316.130703 258.280209 
L 316.130703 258.280209 
L 316.307434 257.609089 
L 316.307434 257.609089 
L 316.484165 255.578752 
L 316.484165 255.578752 
L 316.660896 255.446684 
L 316.660896 255.446684 
L 316.837627 253.491233 
L 316.837627 253.491233 
L 317.014357 253.9664 
L 317.014357 253.9664 
L 317.191088 250.632858 
L 317.191088 250.632858 
L 317.367819 252.10108 
L 317.367819 252.10108 
L 318.074742 245.355034 
L 318.074742 245.355034 
L 318.251473 245.211797 
L 318.251473 245.211797 
L 318.428204 240.738054 
L 318.428204 240.738054 
L 318.604935 241.395828 
L 318.604935 241.395828 
L 318.781666 236.982116 
L 318.781666 236.982116 
L 318.958397 238.410522 
L 318.958397 238.410522 
L 319.135127 232.263279 
L 319.135127 232.263279 
L 319.311858 234.522739 
L 319.311858 234.522739 
L 319.842051 228.841226 
L 319.842051 228.841226 
L 320.018782 225.50009 
L 320.018782 225.50009 
L 320.195512 225.157773 
L 320.195512 225.157773 
L 320.372243 220.775892 
L 320.372243 220.775892 
L 320.548974 220.915276 
L 320.548974 220.915276 
L 320.725705 215.984738 
L 320.725705 215.984738 
L 320.902436 216.509382 
L 320.902436 216.509382 
L 321.079167 210.734668 
L 321.079167 210.734668 
L 321.255897 211.954332 
L 321.255897 211.954332 
L 321.432628 205.793297 
L 321.432628 205.793297 
L 321.609359 207.253086 
L 321.609359 207.253086 
L 321.78609 200.928263 
L 321.78609 200.928263 
L 321.962821 202.026246 
L 321.962821 202.026246 
L 322.139552 196.095004 
L 322.139552 196.095004 
L 322.316282 196.995806 
L 322.316282 196.995806 
L 322.493013 191.209587 
L 322.493013 191.209587 
L 322.669744 191.953806 
L 322.669744 191.953806 
L 322.846475 186.363596 
L 322.846475 186.363596 
L 323.023206 186.889916 
L 323.023206 186.889916 
L 323.199937 181.539439 
L 323.199937 181.539439 
L 323.376667 181.585901 
L 323.376667 181.585901 
L 323.553398 176.658714 
L 323.553398 176.658714 
L 323.730129 175.817831 
L 323.730129 175.817831 
L 323.90686 171.727395 
L 323.90686 171.727395 
L 324.083591 170.264311 
L 324.083591 170.264311 
L 324.260322 166.297398 
L 324.260322 166.297398 
L 324.437053 157.924369 
L 324.437053 157.924369 
L 324.613783 160.228894 
L 324.613783 160.228894 
L 324.790514 152.990816 
L 324.790514 152.990816 
L 324.967245 153.84767 
L 324.967245 153.84767 
L 325.143976 147.276133 
L 325.143976 147.276133 
L 325.320707 145.846164 
L 325.320707 145.846164 
L 325.497438 141.601656 
L 325.497438 141.601656 
L 325.674168 131.362525 
L 325.674168 131.362525 
L 325.850899 134.198898 
L 325.850899 134.198898 
L 326.02763 125.311667 
L 326.02763 125.311667 
L 326.204361 124.965776 
L 326.204361 124.965776 
L 326.557823 112.616956 
L 326.557823 112.616956 
L 326.734553 113.538364 
L 326.734553 113.538364 
L 327.088015 118.086768 
L 327.088015 118.086768 
L 327.264746 123.398601 
L 327.264746 123.398601 
L 327.441477 132.132431 
L 327.441477 132.132431 
L 327.618208 133.213382 
L 327.618208 133.213382 
L 327.794938 137.782672 
L 327.794938 137.782672 
L 327.971669 147.124128 
L 327.971669 147.124128 
L 328.1484 147.025286 
L 328.1484 147.025286 
L 328.855323 164.478874 
L 328.855323 164.478874 
L 329.032054 166.235078 
L 329.032054 166.235078 
L 329.208785 169.718111 
L 329.208785 169.718111 
L 329.385516 176.162941 
L 329.562247 175.876857 
L 329.562247 175.876857 
L 329.738978 180.453965 
L 329.738978 180.453965 
L 330.092439 184.31472 
L 330.092439 184.31472 
L 330.26917 190.121433 
L 330.26917 190.121433 
L 330.445901 189.282951 
L 330.622632 193.358255 
L 330.622632 193.358255 
L 330.799363 193.626859 
L 330.799363 193.626859 
L 330.976093 196.356069 
L 330.976093 196.356069 
L 331.152824 197.053771 
L 331.152824 197.053771 
L 331.329555 199.125263 
L 331.329555 199.125263 
L 331.506286 202.524421 
L 331.506286 202.524421 
L 331.683017 202.078459 
L 331.683017 202.078459 
L 331.859748 204.938342 
L 331.859748 204.938342 
L 332.036478 204.66728 
L 332.036478 204.66728 
L 332.213209 206.586545 
L 332.213209 206.586545 
L 332.38994 206.743464 
L 332.38994 206.743464 
L 332.566671 207.923815 
L 332.566671 207.923815 
L 332.920133 208.920723 
L 332.920133 208.920723 
L 333.450325 210.071645 
L 333.450325 210.071645 
L 333.627056 210.231523 
L 333.627056 210.231523 
L 333.803787 210.16736 
L 333.803787 210.16736 
L 333.980518 210.245986 
L 333.980518 210.245986 
L 334.157248 210.095155 
L 334.157248 210.095155 
L 334.333979 210.304063 
L 334.333979 210.304063 
L 334.51071 210.116431 
L 334.51071 210.116431 
L 334.687441 210.32707 
L 334.687441 210.32707 
L 334.864172 210.115649 
L 334.864172 210.115649 
L 335.040903 210.330923 
L 335.040903 210.330923 
L 335.217633 210.012451 
L 335.217633 210.012451 
L 335.394364 210.218344 
L 335.394364 210.218344 
L 335.571095 209.727988 
L 335.747826 209.878875 
L 335.747826 209.878875 
L 335.924557 209.222442 
L 335.924557 209.222442 
L 336.101288 209.226742 
L 336.101288 209.226742 
L 336.278019 208.283834 
L 336.278019 208.283834 
L 336.454749 208.157518 
L 336.454749 208.157518 
L 336.63148 207.034629 
L 336.63148 207.034629 
L 336.808211 204.313404 
L 336.808211 204.313404 
L 336.984942 205.252961 
L 336.984942 205.252961 
L 337.161673 201.889543 
L 337.161673 201.889543 
L 337.338404 202.699823 
L 337.338404 202.699823 
L 337.515134 198.819747 
L 337.515134 198.819747 
L 337.691865 199.278384 
L 337.691865 199.278384 
L 337.868596 195.134562 
L 337.868596 195.134562 
L 338.045327 195.189958 
L 338.045327 195.189958 
L 338.222058 190.625471 
L 338.222058 190.625471 
L 338.398789 189.939664 
L 338.398789 189.939664 
L 338.75225 183.279337 
L 338.75225 183.279337 
L 338.928981 178.975413 
L 338.928981 178.975413 
L 339.105712 166.557961 
L 339.105712 166.557961 
L 339.282443 170.605343 
L 339.282443 170.605343 
L 339.459174 157.790235 
L 339.459174 157.790235 
L 339.635904 159.676608 
L 339.635904 159.676608 
L 339.812635 153.888994 
L 339.812635 153.888994 
L 339.989366 154.442453 
L 339.989366 154.442453 
L 340.166097 162.807161 
L 340.166097 162.807161 
L 340.342828 165.191095 
L 340.342828 165.191095 
L 340.519559 169.428342 
L 340.519559 169.428342 
L 340.696289 177.783893 
L 340.696289 177.783893 
L 340.87302 177.023759 
L 340.87302 177.023759 
L 341.049751 181.889965 
L 341.049751 181.889965 
L 341.226482 182.16689 
L 341.226482 182.16689 
L 341.403213 184.530441 
L 341.403213 184.530441 
L 341.579944 184.865219 
L 341.579944 184.865219 
L 341.933405 187.440247 
L 341.933405 187.440247 
L 342.286867 188.187872 
L 342.286867 188.187872 
L 342.463598 188.410574 
L 342.463598 188.410574 
L 342.817059 188.080542 
L 342.817059 188.080542 
L 342.99379 188.311285 
L 342.99379 188.311285 
L 343.170521 188.114941 
L 343.170521 188.114941 
L 343.347252 188.375169 
L 343.347252 188.375169 
L 344.230906 185.642608 
L 344.230906 185.642608 
L 344.407637 181.821949 
L 344.407637 181.821949 
L 344.584368 182.457776 
L 344.584368 182.457776 
L 344.761099 178.415141 
L 344.761099 178.415141 
L 344.937829 177.930201 
L 344.937829 177.930201 
L 345.468022 167.887581 
L 345.468022 167.887581 
L 345.644753 157.395816 
L 345.644753 157.395816 
L 345.821484 159.738705 
L 345.821484 159.738705 
L 345.998214 150.094357 
L 345.998214 150.094357 
L 346.174945 149.935428 
L 346.174945 149.935428 
L 346.351676 146.407217 
L 346.351676 146.407217 
L 346.528407 149.673692 
L 347.23533 170.788955 
L 347.23533 170.788955 
L 347.412061 172.572912 
L 347.412061 172.572912 
L 347.765523 180.219983 
L 347.765523 180.219983 
L 347.942254 180.434253 
L 347.942254 180.434253 
L 348.295715 184.582934 
L 348.295715 184.582934 
L 348.472446 184.349678 
L 348.472446 184.349678 
L 348.649177 185.52277 
L 348.649177 185.52277 
L 349.002639 186.085945 
L 349.002639 186.085945 
L 349.17937 186.405311 
L 349.17937 186.405311 
L 349.3561 186.382583 
L 349.3561 186.382583 
L 349.532831 185.884687 
L 349.532831 185.884687 
L 349.709562 186.534755 
L 349.709562 186.534755 
L 349.886293 186.35723 
L 349.886293 186.35723 
L 350.063024 186.592943 
L 350.063024 186.592943 
L 350.416485 186.217511 
L 350.416485 186.217511 
L 350.593216 186.414469 
L 350.593216 186.414469 
L 350.769947 186.177863 
L 350.946678 186.319983 
L 350.946678 186.319983 
L 351.123409 185.257795 
L 351.123409 185.257795 
L 351.30014 186.018878 
L 351.30014 186.018878 
L 351.47687 185.28164 
L 351.47687 185.28164 
L 351.653601 185.509926 
L 351.830332 184.763529 
L 351.830332 184.763529 
L 352.007063 184.815519 
L 352.007063 184.815519 
L 352.183794 184.160035 
L 352.183794 184.160035 
L 352.360525 182.751621 
L 352.360525 182.751621 
L 352.537255 183.337134 
L 352.537255 183.337134 
L 352.713986 182.010363 
L 352.713986 182.010363 
L 352.890717 182.370605 
L 352.890717 182.370605 
L 353.067448 181.217058 
L 353.067448 181.217058 
L 353.244179 180.909811 
L 353.244179 180.909811 
L 353.774371 179.384574 
L 353.774371 179.384574 
L 353.951102 177.146278 
L 353.951102 177.146278 
L 354.127833 178.107558 
L 354.127833 178.107558 
L 354.304564 176.507771 
L 354.304564 176.507771 
L 354.481295 176.683899 
L 354.481295 176.683899 
L 354.658025 175.349756 
L 354.658025 175.349756 
L 354.834756 175.079142 
L 354.834756 175.079142 
L 355.011487 174.035996 
L 355.011487 174.035996 
L 355.188218 171.471355 
L 355.188218 171.471355 
L 355.364949 172.233443 
L 355.364949 172.233443 
L 355.54168 170.040548 
L 355.54168 170.040548 
L 355.71841 169.744748 
L 355.71841 169.744748 
L 356.071872 167.775057 
L 356.071872 167.775057 
L 356.248603 166.529258 
L 356.248603 166.529258 
L 356.425334 162.714462 
L 356.425334 162.714462 
L 356.602065 163.468564 
L 356.602065 163.468564 
L 356.778795 161.319394 
L 356.778795 161.319394 
L 356.955526 161.075417 
L 357.132257 159.497017 
L 357.132257 159.497017 
L 357.308988 155.254632 
L 357.308988 155.254632 
L 357.485719 156.734692 
L 357.485719 156.734692 
L 357.66245 153.312918 
L 357.66245 153.312918 
L 357.83918 153.470507 
L 357.83918 153.470507 
L 358.015911 151.621492 
L 358.015911 151.621492 
L 358.192642 147.215097 
L 358.192642 147.215097 
L 358.369373 148.873128 
L 358.546104 145.316047 
L 358.546104 145.316047 
L 358.722835 145.464254 
L 358.722835 145.464254 
L 358.899565 143.84185 
L 359.076296 140.057377 
L 359.076296 140.057377 
L 359.253027 140.957843 
L 359.253027 140.957843 
L 359.429758 138.837153 
L 359.429758 138.837153 
L 359.606489 138.255214 
L 359.606489 138.255214 
L 359.78322 137.189899 
L 359.78322 137.189899 
L 359.959951 133.969607 
L 359.959951 133.969607 
L 360.136681 134.78966 
L 360.136681 134.78966 
L 360.490143 130.337808 
L 360.490143 130.337808 
L 360.666874 131.023223 
L 360.666874 131.023223 
L 360.843605 129.402718 
L 360.843605 129.402718 
L 361.020336 129.295612 
L 361.020336 129.295612 
L 361.197066 128.755443 
L 361.197066 128.755443 
L 361.373797 126.82903 
L 361.373797 126.82903 
L 361.550528 126.964338 
L 361.550528 126.964338 
L 361.727259 126.181755 
L 361.727259 126.181755 
L 361.90399 124.767869 
L 361.90399 124.767869 
L 362.080721 125.021284 
L 362.080721 125.021284 
L 362.257451 124.257353 
L 362.257451 124.257353 
L 362.434182 122.827942 
L 362.434182 122.827942 
L 362.610913 123.151273 
L 362.610913 123.151273 
L 362.787644 122.700732 
L 362.787644 122.700732 
L 362.964375 120.559883 
L 362.964375 120.559883 
L 363.141106 120.950169 
L 363.141106 120.950169 
L 363.317836 119.764289 
L 363.317836 119.764289 
L 363.494567 117.567597 
L 363.494567 117.567597 
L 363.671298 118.025564 
L 363.671298 118.025564 
L 363.848029 116.331402 
L 363.848029 116.331402 
L 364.02476 113.545567 
L 364.02476 113.545567 
L 364.201491 114.052174 
L 364.201491 114.052174 
L 364.378221 112.024295 
L 364.378221 112.024295 
L 364.554952 108.271484 
L 364.731683 108.738331 
L 364.731683 108.738331 
L 364.908414 106.180168 
L 364.908414 106.180168 
L 365.085145 101.5633 
L 365.085145 101.5633 
L 365.261876 101.816659 
L 365.261876 101.816659 
L 365.438606 98.935165 
L 365.438606 98.935165 
L 365.615337 93.183011 
L 365.615337 93.183011 
L 365.792068 92.902847 
L 365.792068 92.902847 
L 366.498991 78.36828 
L 366.498991 78.36828 
L 366.852453 63.838515 
L 366.852453 63.838515 
L 367.029184 64.327531 
L 367.029184 64.327531 
L 367.559376 53.568 
L 367.559376 53.568 
L 396.896695 53.568 
L 396.896695 53.568 
L 397.073426 53.68728 
L 397.073426 53.68728 
L 397.250157 54.01022 
L 397.250157 54.01022 
L 397.426888 53.568 
L 397.426888 53.568 
L 397.95708 53.568 
L 397.95708 53.568 
L 398.310542 53.872511 
L 398.310542 53.872511 
L 398.487273 53.568 
L 398.487273 53.568 
" clip-path="url(#p807f9410d9)" style="fill: none; stroke: #ff7f0e; stroke-width: 1.5; stroke-linecap: square"/>
   </g>
   <g id="patch_3">
    <path d="M 57.6 307.584 
L 57.6 41.472 
" style="fill: none; stroke: #000000; stroke-width: 0.8; stroke-linejoin: miter; stroke-linecap: square"/>
   </g>
   <g id="patch_4">
    <path d="M 414.72 307.584 
L 414.72 41.472 
" style="fill: none; stroke: #000000; stroke-width: 0.8; stroke-linejoin: miter; stroke-linecap: square"/>
   </g>
   <g id="patch_5">
    <path d="M 57.6 307.584 
L 414.72 307.584 
" style="fill: none; stroke: #000000; stroke-width: 0.8; stroke-linejoin: miter; stroke-linecap: square"/>
   </g>
   <g id="patch_6">
    <path d="M 57.6 41.472 
L 414.72 41.472 
" style="fill: none; stroke: #000000; stroke-width: 0.8; stroke-linejoin: miter; stroke-linecap: square"/>
   </g>
   <g id="text_16">
    <!-- Actual speed vs Expected speed -->
    <g transform="translate(138.808125 35.472) scale(0.12 -0.12)">
     <defs>
      <path id="DejaVuSans-41" d="M 2188 4044 
L 1331 1722 
L 3047 1722 
L 2188 4044 
z
M 1831 4666 
L 2547 4666 
L 4325 0 
L 3669 0 
L 3244 1197 
L 1141 1197 
L 716 0 
L 50 0 
L 1831 4666 
z
" transform="scale(0.015625)"/>
      <path id="DejaVuSans-75" d="M 544 1381 
L 544 3500 
L 1119 3500 
L 1119 1403 
Q 1119 906 1312 657 
Q 1506 409 1894 409 
Q 2359 409 2629 706 
Q 2900 1003 2900 1516 
L 2900 3500 
L 3475 3500 
L 3475 0 
L 2900 0 
L 2900 538 
Q 2691 219 2414 64 
Q 2138 -91 1772 -91 
Q 1169 -91 856 284 
Q 544 659 544 1381 
z
M 1991 3584 
L 1991 3584 
z
" transform="scale(0.015625)"/>
      <path id="DejaVuSans-61" d="M 2194 1759 
Q 1497 1759 1228 1600 
Q 959 1441 959 1056 
Q 959 750 1161 570 
Q 1363 391 1709 391 
Q 2188 391 2477 730 
Q 2766 1069 2766 1631 
L 2766 1759 
L 2194 1759 
z
M 3341 1997 
L 3341 0 
L 2766 0 
L 2766 531 
Q 2569 213 2275 61 
Q 1981 -91 1556 -91 
Q 1019 -91 701 211 
Q 384 513 384 1019 
Q 384 1609 779 1909 
Q 1175 2209 1959 2209 
L 2766 2209 
L 2766 2266 
Q 2766 2663 2505 2880 
Q 2244 3097 1772 3097 
Q 1472 3097 1187 3025 
Q 903 2953 641 2809 
L 641 3341 
Q 956 3463 1253 3523 
Q 1550 3584 1831 3584 
Q 2591 3584 2966 3190 
Q 3341 2797 3341 1997 
z
" transform="scale(0.015625)"/>
      <path id="DejaVuSans-20" transform="scale(0.015625)"/>
      <path id="DejaVuSans-70" d="M 1159 525 
L 1159 -1331 
L 581 -1331 
L 581 3500 
L 1159 3500 
L 1159 2969 
Q 1341 3281 1617 3432 
Q 1894 3584 2278 3584 
Q 2916 3584 3314 3078 
Q 3713 2572 3713 1747 
Q 3713 922 3314 415 
Q 2916 -91 2278 -91 
Q 1894 -91 1617 61 
Q 1341 213 1159 525 
z
M 3116 1747 
Q 3116 2381 2855 2742 
Q 2594 3103 2138 3103 
Q 1681 3103 1420 2742 
Q 1159 2381 1159 1747 
Q 1159 1113 1420 752 
Q 1681 391 2138 391 
Q 2594 391 2855 752 
Q 3116 1113 3116 1747 
z
" transform="scale(0.015625)"/>
      <path id="DejaVuSans-64" d="M 2906 2969 
L 2906 4863 
L 3481 4863 
L 3481 0 
L 2906 0 
L 2906 525 
Q 2725 213 2448 61 
Q 2172 -91 1784 -91 
Q 1150 -91 751 415 
Q 353 922 353 1747 
Q 353 2572 751 3078 
Q 1150 3584 1784 3584 
Q 2172 3584 2448 3432 
Q 2725 3281 2906 2969 
z
M 947 1747 
Q 947 1113 1208 752 
Q 1469 391 1925 391 
Q 2381 391 2643 752 
Q 2906 1113 2906 1747 
Q 2906 2381 2643 2742 
Q 2381 3103 1925 3103 
Q 1469 3103 1208 2742 
Q 947 2381 947 1747 
z
" transform="scale(0.015625)"/>
      <path id="DejaVuSans-76" d="M 191 3500 
L 800 3500 
L 1894 563 
L 2988 3500 
L 3597 3500 
L 2284 0 
L 1503 0 
L 191 3500 
z
" transform="scale(0.015625)"/>
      <path id="DejaVuSans-45" d="M 628 4666 
L 3578 4666 
L 3578 4134 
L 1259 4134 
L 1259 2753 
L 3481 2753 
L 3481 2222 
L 1259 2222 
L 1259 531 
L 3634 531 
L 3634 0 
L 628 0 
L 628 4666 
z
" transform="scale(0.015625)"/>
      <path id="DejaVuSans-78" d="M 3513 3500 
L 2247 1797 
L 3578 0 
L 2900 0 
L 1881 1375 
L 863 0 
L 184 0 
L 1544 1831 
L 300 3500 
L 978 3500 
L 1906 2253 
L 2834 3500 
L 3513 3500 
z
" transform="scale(0.015625)"/>
     </defs>
     <use xlink:href="#DejaVuSans-41"/>
     <use xlink:href="#DejaVuSans-63" x="66.658203"/>
     <use xlink:href="#DejaVuSans-74" x="121.638672"/>
     <use xlink:href="#DejaVuSans-75" x="160.847656"/>
     <use xlink:href="#DejaVuSans-61" x="224.226562"/>
     <use xlink:href="#DejaVuSans-6c" x="285.505859"/>
     <use xlink:href="#DejaVuSans-20" x="313.289062"/>
     <use xlink:href="#DejaVuSans-73" x="345.076172"/>
     <use xlink:href="#DejaVuSans-70" x="397.175781"/>
     <use xlink:href="#DejaVuSans-65" x="460.652344"/>
     <use xlink:href="#DejaVuSans-65" x="522.175781"/>
     <use xlink:href="#DejaVuSans-64" x="583.699219"/>
     <use xlink:href="#DejaVuSans-20" x="647.175781"/>
     <use xlink:href="#DejaVuSans-76" x="678.962891"/>
     <use xlink:href="#DejaVuSans-73" x="738.142578"/>
     <use xlink:href="#DejaVuSans-20" x="790.242188"/>
     <use xlink:href="#DejaVuSans-45" x="822.029297"/>
     <use xlink:href="#DejaVuSans-78" x="885.212891"/>
     <use xlink:href="#DejaVuSans-70" x="944.392578"/>
     <use xlink:href="#DejaVuSans-65" x="1007.869141"/>
     <use xlink:href="#DejaVuSans-63" x="1069.392578"/>
     <use xlink:href="#DejaVuSans-74" x="1124.373047"/>
     <use xlink:href="#DejaVuSans-65" x="1163.582031"/>
     <use xlink:href="#DejaVuSans-64" x="1225.105469"/>
     <use xlink:href="#DejaVuSans-20" x="1288.582031"/>
     <use xlink:href="#DejaVuSans-73" x="1320.369141"/>
     <use xlink:href="#DejaVuSans-70" x="1372.46875"/>
     <use xlink:href="#DejaVuSans-65" x="1435.945312"/>
     <use xlink:href="#DejaVuSans-65" x="1497.46875"/>
     <use xlink:href="#DejaVuSans-64" x="1558.992188"/>
    </g>
   </g>
   <g id="legend_1">
    <g id="patch_7">
     <path d="M 64.6 302.584 
L 176.65 302.584 
Q 178.65 302.584 178.65 300.584 
L 178.65 272.22775 
Q 178.65 270.22775 176.65 270.22775 
L 64.6 270.22775 
Q 62.6 270.22775 62.6 272.22775 
L 62.6 300.584 
Q 62.6 302.584 64.6 302.584 
z
" style="fill: #ffffff; opacity: 0.8; stroke: #cccccc; stroke-linejoin: miter"/>
    </g>
    <g id="line2d_29">
     <path d="M 66.6 278.326187 
L 76.6 278.326187 
L 86.6 278.326187 
" style="fill: none; stroke: #1f77b4; stroke-width: 1.5; stroke-linecap: square"/>
    </g>
    <g id="text_17">
     <!-- Actual speed -->
     <g transform="translate(94.6 281.826187) scale(0.1 -0.1)">
      <use xlink:href="#DejaVuSans-41"/>
      <use xlink:href="#DejaVuSans-63" x="66.658203"/>
      <use xlink:href="#DejaVuSans-74" x="121.638672"/>
      <use xlink:href="#DejaVuSans-75" x="160.847656"/>
      <use xlink:href="#DejaVuSans-61" x="224.226562"/>
      <use xlink:href="#DejaVuSans-6c" x="285.505859"/>
      <use xlink:href="#DejaVuSans-20" x="313.289062"/>
      <use xlink:href="#DejaVuSans-73" x="345.076172"/>
      <use xlink:href="#DejaVuSans-70" x="397.175781"/>
      <use xlink:href="#DejaVuSans-65" x="460.652344"/>
      <use xlink:href="#DejaVuSans-65" x="522.175781"/>
      <use xlink:href="#DejaVuSans-64" x="583.699219"/>
     </g>
    </g>
    <g id="line2d_30">
     <path d="M 66.6 293.004312 
L 76.6 293.004312 
L 86.6 293.004312 
" style="fill: none; stroke: #ff7f0e; stroke-width: 1.5; stroke-linecap: square"/>
    </g>
    <g id="text_18">
     <!-- Expected speed -->
     <g transform="translate(94.6 296.504312) scale(0.1 -0.1)">
      <use xlink:href="#DejaVuSans-45"/>
      <use xlink:href="#DejaVuSans-78" x="63.183594"/>
      <use xlink:href="#DejaVuSans-70" x="122.363281"/>
      <use xlink:href="#DejaVuSans-65" x="185.839844"/>
      <use xlink:href="#DejaVuSans-63" x="247.363281"/>
      <use xlink:href="#DejaVuSans-74" x="302.34375"/>
      <use xlink:href="#DejaVuSans-65" x="341.552734"/>
      <use xlink:href="#DejaVuSans-64" x="403.076172"/>
      <use xlink:href="#DejaVuSans-20" x="466.552734"/>
      <use xlink:href="#DejaVuSans-73" x="498.339844"/>
      <use xlink:href="#DejaVuSans-70" x="550.439453"/>
      <use xlink:href="#DejaVuSans-65" x="613.916016"/>
      <use xlink:href="#DejaVuSans-65" x="675.439453"/>
      <use xlink:href="#DejaVuSans-64" x="736.962891"/>
     </g>
    </g>
   </g>
  </g>
 </g>
 <defs>
  <clipPath id="p807f9410d9">
   <rect x="57.6" y="41.472" width="357.12" height="266.112"/>
  </clipPath>
 </defs>
</svg>
