<?xml version="1.0" encoding="utf-8" standalone="no"?>
<!DOCTYPE svg PUBLIC "-//W3C//DTD SVG 1.1//EN"
  "http://www.w3.org/Graphics/SVG/1.1/DTD/svg11.dtd">
<svg xmlns:xlink="http://www.w3.org/1999/xlink" width="460.8pt" height="345.6pt" viewBox="0 0 460.8 345.6" xmlns="http://www.w3.org/2000/svg" version="1.1">
 <metadata>
  <rdf:RDF xmlns:dc="http://purl.org/dc/elements/1.1/" xmlns:cc="http://creativecommons.org/ns#" xmlns:rdf="http://www.w3.org/1999/02/22-rdf-syntax-ns#">
   <cc:Work>
    <dc:type rdf:resource="http://purl.org/dc/dcmitype/StillImage"/>
    <dc:date>2024-01-30T20:59:00.894049</dc:date>
    <dc:format>image/svg+xml</dc:format>
    <dc:creator>
     <cc:Agent>
      <dc:title>Matplotlib v3.7.1, https://matplotlib.org/</dc:title>
     </cc:Agent>
    </dc:creator>
   </cc:Work>
  </rdf:RDF>
 </metadata>
 <defs>
  <style type="text/css">*{stroke-linejoin: round; stroke-linecap: butt}</style>
 </defs>
 <g id="figure_1">
  <g id="patch_1">
   <path d="M 0 345.6 
L 460.8 345.6 
L 460.8 0 
L 0 0 
z
" style="fill: #ffffff"/>
  </g>
  <g id="axes_1">
   <g id="patch_2">
    <path d="M 57.6 307.584 
L 414.72 307.584 
L 414.72 41.472 
L 57.6 41.472 
z
" style="fill: #ffffff"/>
   </g>
   <g id="matplotlib.axis_1">
    <g id="xtick_1">
     <g id="line2d_1">
      <path d="M 73.832727 307.584 
L 73.832727 41.472 
" clip-path="url(#pb8f847db25)" style="fill: none; stroke: #b0b0b0; stroke-width: 0.8; stroke-linecap: square"/>
     </g>
     <g id="line2d_2">
      <defs>
       <path id="ma7fbbb9a49" d="M 0 0 
L 0 3.5 
" style="stroke: #000000; stroke-width: 0.8"/>
      </defs>
      <g>
       <use xlink:href="#ma7fbbb9a49" x="73.832727" y="307.584" style="stroke: #000000; stroke-width: 0.8"/>
      </g>
     </g>
     <g id="text_1">
      <!-- 0 -->
      <g transform="translate(70.651477 322.182437) scale(0.1 -0.1)">
       <defs>
        <path id="DejaVuSans-30" d="M 2034 4250 
Q 1547 4250 1301 3770 
Q 1056 3291 1056 2328 
Q 1056 1369 1301 889 
Q 1547 409 2034 409 
Q 2525 409 2770 889 
Q 3016 1369 3016 2328 
Q 3016 3291 2770 3770 
Q 2525 4250 2034 4250 
z
M 2034 4750 
Q 2819 4750 3233 4129 
Q 3647 3509 3647 2328 
Q 3647 1150 3233 529 
Q 2819 -91 2034 -91 
Q 1250 -91 836 529 
Q 422 1150 422 2328 
Q 422 3509 836 4129 
Q 1250 4750 2034 4750 
z
" transform="scale(0.015625)"/>
       </defs>
       <use xlink:href="#DejaVuSans-30"/>
      </g>
     </g>
    </g>
    <g id="xtick_2">
     <g id="line2d_3">
      <path d="M 117.991398 307.584 
L 117.991398 41.472 
" clip-path="url(#pb8f847db25)" style="fill: none; stroke: #b0b0b0; stroke-width: 0.8; stroke-linecap: square"/>
     </g>
     <g id="line2d_4">
      <g>
       <use xlink:href="#ma7fbbb9a49" x="117.991398" y="307.584" style="stroke: #000000; stroke-width: 0.8"/>
      </g>
     </g>
     <g id="text_2">
      <!-- 5 -->
      <g transform="translate(114.810148 322.182437) scale(0.1 -0.1)">
       <defs>
        <path id="DejaVuSans-35" d="M 691 4666 
L 3169 4666 
L 3169 4134 
L 1269 4134 
L 1269 2991 
Q 1406 3038 1543 3061 
Q 1681 3084 1819 3084 
Q 2600 3084 3056 2656 
Q 3513 2228 3513 1497 
Q 3513 744 3044 326 
Q 2575 -91 1722 -91 
Q 1428 -91 1123 -41 
Q 819 9 494 109 
L 494 744 
Q 775 591 1075 516 
Q 1375 441 1709 441 
Q 2250 441 2565 725 
Q 2881 1009 2881 1497 
Q 2881 1984 2565 2268 
Q 2250 2553 1709 2553 
Q 1456 2553 1204 2497 
Q 953 2441 691 2322 
L 691 4666 
z
" transform="scale(0.015625)"/>
       </defs>
       <use xlink:href="#DejaVuSans-35"/>
      </g>
     </g>
    </g>
    <g id="xtick_3">
     <g id="line2d_5">
      <path d="M 162.150068 307.584 
L 162.150068 41.472 
" clip-path="url(#pb8f847db25)" style="fill: none; stroke: #b0b0b0; stroke-width: 0.8; stroke-linecap: square"/>
     </g>
     <g id="line2d_6">
      <g>
       <use xlink:href="#ma7fbbb9a49" x="162.150068" y="307.584" style="stroke: #000000; stroke-width: 0.8"/>
      </g>
     </g>
     <g id="text_3">
      <!-- 10 -->
      <g transform="translate(155.787568 322.182437) scale(0.1 -0.1)">
       <defs>
        <path id="DejaVuSans-31" d="M 794 531 
L 1825 531 
L 1825 4091 
L 703 3866 
L 703 4441 
L 1819 4666 
L 2450 4666 
L 2450 531 
L 3481 531 
L 3481 0 
L 794 0 
L 794 531 
z
" transform="scale(0.015625)"/>
       </defs>
       <use xlink:href="#DejaVuSans-31"/>
       <use xlink:href="#DejaVuSans-30" x="63.623047"/>
      </g>
     </g>
    </g>
    <g id="xtick_4">
     <g id="line2d_7">
      <path d="M 206.308739 307.584 
L 206.308739 41.472 
" clip-path="url(#pb8f847db25)" style="fill: none; stroke: #b0b0b0; stroke-width: 0.8; stroke-linecap: square"/>
     </g>
     <g id="line2d_8">
      <g>
       <use xlink:href="#ma7fbbb9a49" x="206.308739" y="307.584" style="stroke: #000000; stroke-width: 0.8"/>
      </g>
     </g>
     <g id="text_4">
      <!-- 15 -->
      <g transform="translate(199.946239 322.182437) scale(0.1 -0.1)">
       <use xlink:href="#DejaVuSans-31"/>
       <use xlink:href="#DejaVuSans-35" x="63.623047"/>
      </g>
     </g>
    </g>
    <g id="xtick_5">
     <g id="line2d_9">
      <path d="M 250.467409 307.584 
L 250.467409 41.472 
" clip-path="url(#pb8f847db25)" style="fill: none; stroke: #b0b0b0; stroke-width: 0.8; stroke-linecap: square"/>
     </g>
     <g id="line2d_10">
      <g>
       <use xlink:href="#ma7fbbb9a49" x="250.467409" y="307.584" style="stroke: #000000; stroke-width: 0.8"/>
      </g>
     </g>
     <g id="text_5">
      <!-- 20 -->
      <g transform="translate(244.104909 322.182437) scale(0.1 -0.1)">
       <defs>
        <path id="DejaVuSans-32" d="M 1228 531 
L 3431 531 
L 3431 0 
L 469 0 
L 469 531 
Q 828 903 1448 1529 
Q 2069 2156 2228 2338 
Q 2531 2678 2651 2914 
Q 2772 3150 2772 3378 
Q 2772 3750 2511 3984 
Q 2250 4219 1831 4219 
Q 1534 4219 1204 4116 
Q 875 4013 500 3803 
L 500 4441 
Q 881 4594 1212 4672 
Q 1544 4750 1819 4750 
Q 2544 4750 2975 4387 
Q 3406 4025 3406 3419 
Q 3406 3131 3298 2873 
Q 3191 2616 2906 2266 
Q 2828 2175 2409 1742 
Q 1991 1309 1228 531 
z
" transform="scale(0.015625)"/>
       </defs>
       <use xlink:href="#DejaVuSans-32"/>
       <use xlink:href="#DejaVuSans-30" x="63.623047"/>
      </g>
     </g>
    </g>
    <g id="xtick_6">
     <g id="line2d_11">
      <path d="M 294.62608 307.584 
L 294.62608 41.472 
" clip-path="url(#pb8f847db25)" style="fill: none; stroke: #b0b0b0; stroke-width: 0.8; stroke-linecap: square"/>
     </g>
     <g id="line2d_12">
      <g>
       <use xlink:href="#ma7fbbb9a49" x="294.62608" y="307.584" style="stroke: #000000; stroke-width: 0.8"/>
      </g>
     </g>
     <g id="text_6">
      <!-- 25 -->
      <g transform="translate(288.26358 322.182437) scale(0.1 -0.1)">
       <use xlink:href="#DejaVuSans-32"/>
       <use xlink:href="#DejaVuSans-35" x="63.623047"/>
      </g>
     </g>
    </g>
    <g id="xtick_7">
     <g id="line2d_13">
      <path d="M 338.78475 307.584 
L 338.78475 41.472 
" clip-path="url(#pb8f847db25)" style="fill: none; stroke: #b0b0b0; stroke-width: 0.8; stroke-linecap: square"/>
     </g>
     <g id="line2d_14">
      <g>
       <use xlink:href="#ma7fbbb9a49" x="338.78475" y="307.584" style="stroke: #000000; stroke-width: 0.8"/>
      </g>
     </g>
     <g id="text_7">
      <!-- 30 -->
      <g transform="translate(332.42225 322.182437) scale(0.1 -0.1)">
       <defs>
        <path id="DejaVuSans-33" d="M 2597 2516 
Q 3050 2419 3304 2112 
Q 3559 1806 3559 1356 
Q 3559 666 3084 287 
Q 2609 -91 1734 -91 
Q 1441 -91 1130 -33 
Q 819 25 488 141 
L 488 750 
Q 750 597 1062 519 
Q 1375 441 1716 441 
Q 2309 441 2620 675 
Q 2931 909 2931 1356 
Q 2931 1769 2642 2001 
Q 2353 2234 1838 2234 
L 1294 2234 
L 1294 2753 
L 1863 2753 
Q 2328 2753 2575 2939 
Q 2822 3125 2822 3475 
Q 2822 3834 2567 4026 
Q 2313 4219 1838 4219 
Q 1578 4219 1281 4162 
Q 984 4106 628 3988 
L 628 4550 
Q 988 4650 1302 4700 
Q 1616 4750 1894 4750 
Q 2613 4750 3031 4423 
Q 3450 4097 3450 3541 
Q 3450 3153 3228 2886 
Q 3006 2619 2597 2516 
z
" transform="scale(0.015625)"/>
       </defs>
       <use xlink:href="#DejaVuSans-33"/>
       <use xlink:href="#DejaVuSans-30" x="63.623047"/>
      </g>
     </g>
    </g>
    <g id="xtick_8">
     <g id="line2d_15">
      <path d="M 382.943421 307.584 
L 382.943421 41.472 
" clip-path="url(#pb8f847db25)" style="fill: none; stroke: #b0b0b0; stroke-width: 0.8; stroke-linecap: square"/>
     </g>
     <g id="line2d_16">
      <g>
       <use xlink:href="#ma7fbbb9a49" x="382.943421" y="307.584" style="stroke: #000000; stroke-width: 0.8"/>
      </g>
     </g>
     <g id="text_8">
      <!-- 35 -->
      <g transform="translate(376.580921 322.182437) scale(0.1 -0.1)">
       <use xlink:href="#DejaVuSans-33"/>
       <use xlink:href="#DejaVuSans-35" x="63.623047"/>
      </g>
     </g>
    </g>
    <g id="text_9">
     <!-- Time(s) -->
     <g transform="translate(217.420156 335.860562) scale(0.1 -0.1)">
      <defs>
       <path id="DejaVuSans-54" d="M -19 4666 
L 3928 4666 
L 3928 4134 
L 2272 4134 
L 2272 0 
L 1638 0 
L 1638 4134 
L -19 4134 
L -19 4666 
z
" transform="scale(0.015625)"/>
       <path id="DejaVuSans-69" d="M 603 3500 
L 1178 3500 
L 1178 0 
L 603 0 
L 603 3500 
z
M 603 4863 
L 1178 4863 
L 1178 4134 
L 603 4134 
L 603 4863 
z
" transform="scale(0.015625)"/>
       <path id="DejaVuSans-6d" d="M 3328 2828 
Q 3544 3216 3844 3400 
Q 4144 3584 4550 3584 
Q 5097 3584 5394 3201 
Q 5691 2819 5691 2113 
L 5691 0 
L 5113 0 
L 5113 2094 
Q 5113 2597 4934 2840 
Q 4756 3084 4391 3084 
Q 3944 3084 3684 2787 
Q 3425 2491 3425 1978 
L 3425 0 
L 2847 0 
L 2847 2094 
Q 2847 2600 2669 2842 
Q 2491 3084 2119 3084 
Q 1678 3084 1418 2786 
Q 1159 2488 1159 1978 
L 1159 0 
L 581 0 
L 581 3500 
L 1159 3500 
L 1159 2956 
Q 1356 3278 1631 3431 
Q 1906 3584 2284 3584 
Q 2666 3584 2933 3390 
Q 3200 3197 3328 2828 
z
" transform="scale(0.015625)"/>
       <path id="DejaVuSans-65" d="M 3597 1894 
L 3597 1613 
L 953 1613 
Q 991 1019 1311 708 
Q 1631 397 2203 397 
Q 2534 397 2845 478 
Q 3156 559 3463 722 
L 3463 178 
Q 3153 47 2828 -22 
Q 2503 -91 2169 -91 
Q 1331 -91 842 396 
Q 353 884 353 1716 
Q 353 2575 817 3079 
Q 1281 3584 2069 3584 
Q 2775 3584 3186 3129 
Q 3597 2675 3597 1894 
z
M 3022 2063 
Q 3016 2534 2758 2815 
Q 2500 3097 2075 3097 
Q 1594 3097 1305 2825 
Q 1016 2553 972 2059 
L 3022 2063 
z
" transform="scale(0.015625)"/>
       <path id="DejaVuSans-28" d="M 1984 4856 
Q 1566 4138 1362 3434 
Q 1159 2731 1159 2009 
Q 1159 1288 1364 580 
Q 1569 -128 1984 -844 
L 1484 -844 
Q 1016 -109 783 600 
Q 550 1309 550 2009 
Q 550 2706 781 3412 
Q 1013 4119 1484 4856 
L 1984 4856 
z
" transform="scale(0.015625)"/>
       <path id="DejaVuSans-73" d="M 2834 3397 
L 2834 2853 
Q 2591 2978 2328 3040 
Q 2066 3103 1784 3103 
Q 1356 3103 1142 2972 
Q 928 2841 928 2578 
Q 928 2378 1081 2264 
Q 1234 2150 1697 2047 
L 1894 2003 
Q 2506 1872 2764 1633 
Q 3022 1394 3022 966 
Q 3022 478 2636 193 
Q 2250 -91 1575 -91 
Q 1294 -91 989 -36 
Q 684 19 347 128 
L 347 722 
Q 666 556 975 473 
Q 1284 391 1588 391 
Q 1994 391 2212 530 
Q 2431 669 2431 922 
Q 2431 1156 2273 1281 
Q 2116 1406 1581 1522 
L 1381 1569 
Q 847 1681 609 1914 
Q 372 2147 372 2553 
Q 372 3047 722 3315 
Q 1072 3584 1716 3584 
Q 2034 3584 2315 3537 
Q 2597 3491 2834 3397 
z
" transform="scale(0.015625)"/>
       <path id="DejaVuSans-29" d="M 513 4856 
L 1013 4856 
Q 1481 4119 1714 3412 
Q 1947 2706 1947 2009 
Q 1947 1309 1714 600 
Q 1481 -109 1013 -844 
L 513 -844 
Q 928 -128 1133 580 
Q 1338 1288 1338 2009 
Q 1338 2731 1133 3434 
Q 928 4138 513 4856 
z
" transform="scale(0.015625)"/>
      </defs>
      <use xlink:href="#DejaVuSans-54"/>
      <use xlink:href="#DejaVuSans-69" x="57.958984"/>
      <use xlink:href="#DejaVuSans-6d" x="85.742188"/>
      <use xlink:href="#DejaVuSans-65" x="183.154297"/>
      <use xlink:href="#DejaVuSans-28" x="244.677734"/>
      <use xlink:href="#DejaVuSans-73" x="283.691406"/>
      <use xlink:href="#DejaVuSans-29" x="335.791016"/>
     </g>
    </g>
   </g>
   <g id="matplotlib.axis_2">
    <g id="ytick_1">
     <g id="line2d_17">
      <path d="M 57.6 276.913216 
L 414.72 276.913216 
" clip-path="url(#pb8f847db25)" style="fill: none; stroke: #b0b0b0; stroke-width: 0.8; stroke-linecap: square"/>
     </g>
     <g id="line2d_18">
      <defs>
       <path id="m2b2c6dd610" d="M 0 0 
L -3.5 0 
" style="stroke: #000000; stroke-width: 0.8"/>
      </defs>
      <g>
       <use xlink:href="#m2b2c6dd610" x="57.6" y="276.913216" style="stroke: #000000; stroke-width: 0.8"/>
      </g>
     </g>
     <g id="text_10">
      <!-- 4 -->
      <g transform="translate(44.2375 280.712435) scale(0.1 -0.1)">
       <defs>
        <path id="DejaVuSans-34" d="M 2419 4116 
L 825 1625 
L 2419 1625 
L 2419 4116 
z
M 2253 4666 
L 3047 4666 
L 3047 1625 
L 3713 1625 
L 3713 1100 
L 3047 1100 
L 3047 0 
L 2419 0 
L 2419 1100 
L 313 1100 
L 313 1709 
L 2253 4666 
z
" transform="scale(0.015625)"/>
       </defs>
       <use xlink:href="#DejaVuSans-34"/>
      </g>
     </g>
    </g>
    <g id="ytick_2">
     <g id="line2d_19">
      <path d="M 57.6 221.076912 
L 414.72 221.076912 
" clip-path="url(#pb8f847db25)" style="fill: none; stroke: #b0b0b0; stroke-width: 0.8; stroke-linecap: square"/>
     </g>
     <g id="line2d_20">
      <g>
       <use xlink:href="#m2b2c6dd610" x="57.6" y="221.076912" style="stroke: #000000; stroke-width: 0.8"/>
      </g>
     </g>
     <g id="text_11">
      <!-- 5 -->
      <g transform="translate(44.2375 224.876131) scale(0.1 -0.1)">
       <use xlink:href="#DejaVuSans-35"/>
      </g>
     </g>
    </g>
    <g id="ytick_3">
     <g id="line2d_21">
      <path d="M 57.6 165.240608 
L 414.72 165.240608 
" clip-path="url(#pb8f847db25)" style="fill: none; stroke: #b0b0b0; stroke-width: 0.8; stroke-linecap: square"/>
     </g>
     <g id="line2d_22">
      <g>
       <use xlink:href="#m2b2c6dd610" x="57.6" y="165.240608" style="stroke: #000000; stroke-width: 0.8"/>
      </g>
     </g>
     <g id="text_12">
      <!-- 6 -->
      <g transform="translate(44.2375 169.039827) scale(0.1 -0.1)">
       <defs>
        <path id="DejaVuSans-36" d="M 2113 2584 
Q 1688 2584 1439 2293 
Q 1191 2003 1191 1497 
Q 1191 994 1439 701 
Q 1688 409 2113 409 
Q 2538 409 2786 701 
Q 3034 994 3034 1497 
Q 3034 2003 2786 2293 
Q 2538 2584 2113 2584 
z
M 3366 4563 
L 3366 3988 
Q 3128 4100 2886 4159 
Q 2644 4219 2406 4219 
Q 1781 4219 1451 3797 
Q 1122 3375 1075 2522 
Q 1259 2794 1537 2939 
Q 1816 3084 2150 3084 
Q 2853 3084 3261 2657 
Q 3669 2231 3669 1497 
Q 3669 778 3244 343 
Q 2819 -91 2113 -91 
Q 1303 -91 875 529 
Q 447 1150 447 2328 
Q 447 3434 972 4092 
Q 1497 4750 2381 4750 
Q 2619 4750 2861 4703 
Q 3103 4656 3366 4563 
z
" transform="scale(0.015625)"/>
       </defs>
       <use xlink:href="#DejaVuSans-36"/>
      </g>
     </g>
    </g>
    <g id="ytick_4">
     <g id="line2d_23">
      <path d="M 57.6 109.404304 
L 414.72 109.404304 
" clip-path="url(#pb8f847db25)" style="fill: none; stroke: #b0b0b0; stroke-width: 0.8; stroke-linecap: square"/>
     </g>
     <g id="line2d_24">
      <g>
       <use xlink:href="#m2b2c6dd610" x="57.6" y="109.404304" style="stroke: #000000; stroke-width: 0.8"/>
      </g>
     </g>
     <g id="text_13">
      <!-- 7 -->
      <g transform="translate(44.2375 113.203523) scale(0.1 -0.1)">
       <defs>
        <path id="DejaVuSans-37" d="M 525 4666 
L 3525 4666 
L 3525 4397 
L 1831 0 
L 1172 0 
L 2766 4134 
L 525 4134 
L 525 4666 
z
" transform="scale(0.015625)"/>
       </defs>
       <use xlink:href="#DejaVuSans-37"/>
      </g>
     </g>
    </g>
    <g id="ytick_5">
     <g id="line2d_25">
      <path d="M 57.6 53.568 
L 414.72 53.568 
" clip-path="url(#pb8f847db25)" style="fill: none; stroke: #b0b0b0; stroke-width: 0.8; stroke-linecap: square"/>
     </g>
     <g id="line2d_26">
      <g>
       <use xlink:href="#m2b2c6dd610" x="57.6" y="53.568" style="stroke: #000000; stroke-width: 0.8"/>
      </g>
     </g>
     <g id="text_14">
      <!-- 8 -->
      <g transform="translate(44.2375 57.367219) scale(0.1 -0.1)">
       <defs>
        <path id="DejaVuSans-38" d="M 2034 2216 
Q 1584 2216 1326 1975 
Q 1069 1734 1069 1313 
Q 1069 891 1326 650 
Q 1584 409 2034 409 
Q 2484 409 2743 651 
Q 3003 894 3003 1313 
Q 3003 1734 2745 1975 
Q 2488 2216 2034 2216 
z
M 1403 2484 
Q 997 2584 770 2862 
Q 544 3141 544 3541 
Q 544 4100 942 4425 
Q 1341 4750 2034 4750 
Q 2731 4750 3128 4425 
Q 3525 4100 3525 3541 
Q 3525 3141 3298 2862 
Q 3072 2584 2669 2484 
Q 3125 2378 3379 2068 
Q 3634 1759 3634 1313 
Q 3634 634 3220 271 
Q 2806 -91 2034 -91 
Q 1263 -91 848 271 
Q 434 634 434 1313 
Q 434 1759 690 2068 
Q 947 2378 1403 2484 
z
M 1172 3481 
Q 1172 3119 1398 2916 
Q 1625 2713 2034 2713 
Q 2441 2713 2670 2916 
Q 2900 3119 2900 3481 
Q 2900 3844 2670 4047 
Q 2441 4250 2034 4250 
Q 1625 4250 1398 4047 
Q 1172 3844 1172 3481 
z
" transform="scale(0.015625)"/>
       </defs>
       <use xlink:href="#DejaVuSans-38"/>
      </g>
     </g>
    </g>
    <g id="text_15">
     <!-- Velocity(m/s) -->
     <g transform="translate(38.157812 207.204563) rotate(-90) scale(0.1 -0.1)">
      <defs>
       <path id="DejaVuSans-56" d="M 1831 0 
L 50 4666 
L 709 4666 
L 2188 738 
L 3669 4666 
L 4325 4666 
L 2547 0 
L 1831 0 
z
" transform="scale(0.015625)"/>
       <path id="DejaVuSans-6c" d="M 603 4863 
L 1178 4863 
L 1178 0 
L 603 0 
L 603 4863 
z
" transform="scale(0.015625)"/>
       <path id="DejaVuSans-6f" d="M 1959 3097 
Q 1497 3097 1228 2736 
Q 959 2375 959 1747 
Q 959 1119 1226 758 
Q 1494 397 1959 397 
Q 2419 397 2687 759 
Q 2956 1122 2956 1747 
Q 2956 2369 2687 2733 
Q 2419 3097 1959 3097 
z
M 1959 3584 
Q 2709 3584 3137 3096 
Q 3566 2609 3566 1747 
Q 3566 888 3137 398 
Q 2709 -91 1959 -91 
Q 1206 -91 779 398 
Q 353 888 353 1747 
Q 353 2609 779 3096 
Q 1206 3584 1959 3584 
z
" transform="scale(0.015625)"/>
       <path id="DejaVuSans-63" d="M 3122 3366 
L 3122 2828 
Q 2878 2963 2633 3030 
Q 2388 3097 2138 3097 
Q 1578 3097 1268 2742 
Q 959 2388 959 1747 
Q 959 1106 1268 751 
Q 1578 397 2138 397 
Q 2388 397 2633 464 
Q 2878 531 3122 666 
L 3122 134 
Q 2881 22 2623 -34 
Q 2366 -91 2075 -91 
Q 1284 -91 818 406 
Q 353 903 353 1747 
Q 353 2603 823 3093 
Q 1294 3584 2113 3584 
Q 2378 3584 2631 3529 
Q 2884 3475 3122 3366 
z
" transform="scale(0.015625)"/>
       <path id="DejaVuSans-74" d="M 1172 4494 
L 1172 3500 
L 2356 3500 
L 2356 3053 
L 1172 3053 
L 1172 1153 
Q 1172 725 1289 603 
Q 1406 481 1766 481 
L 2356 481 
L 2356 0 
L 1766 0 
Q 1100 0 847 248 
Q 594 497 594 1153 
L 594 3053 
L 172 3053 
L 172 3500 
L 594 3500 
L 594 4494 
L 1172 4494 
z
" transform="scale(0.015625)"/>
       <path id="DejaVuSans-79" d="M 2059 -325 
Q 1816 -950 1584 -1140 
Q 1353 -1331 966 -1331 
L 506 -1331 
L 506 -850 
L 844 -850 
Q 1081 -850 1212 -737 
Q 1344 -625 1503 -206 
L 1606 56 
L 191 3500 
L 800 3500 
L 1894 763 
L 2988 3500 
L 3597 3500 
L 2059 -325 
z
" transform="scale(0.015625)"/>
       <path id="DejaVuSans-2f" d="M 1625 4666 
L 2156 4666 
L 531 -594 
L 0 -594 
L 1625 4666 
z
" transform="scale(0.015625)"/>
      </defs>
      <use xlink:href="#DejaVuSans-56"/>
      <use xlink:href="#DejaVuSans-65" x="60.658203"/>
      <use xlink:href="#DejaVuSans-6c" x="122.181641"/>
      <use xlink:href="#DejaVuSans-6f" x="149.964844"/>
      <use xlink:href="#DejaVuSans-63" x="211.146484"/>
      <use xlink:href="#DejaVuSans-69" x="266.126953"/>
      <use xlink:href="#DejaVuSans-74" x="293.910156"/>
      <use xlink:href="#DejaVuSans-79" x="333.119141"/>
      <use xlink:href="#DejaVuSans-28" x="392.298828"/>
      <use xlink:href="#DejaVuSans-6d" x="431.3125"/>
      <use xlink:href="#DejaVuSans-2f" x="528.724609"/>
      <use xlink:href="#DejaVuSans-73" x="562.416016"/>
      <use xlink:href="#DejaVuSans-29" x="614.515625"/>
     </g>
    </g>
   </g>
   <g id="line2d_27">
    <path d="M 73.832727 53.745057 
L 76.482248 53.60904 
L 76.482248 53.60904 
L 83.371 53.568893 
L 83.371 53.568893 
L 92.379369 53.568 
L 92.379369 53.568 
L 92.556004 54.81354 
L 92.556004 54.81354 
L 93.792446 85.629317 
L 93.792446 85.629317 
L 95.382158 131.464669 
L 95.382158 131.464669 
L 97.678409 173.458539 
L 97.678409 173.458539 
L 99.091487 188.862994 
L 99.091487 188.862994 
L 99.97466 195.229952 
L 99.97466 195.229952 
L 100.504564 197.495119 
L 100.504564 197.495119 
L 101.034468 198.78678 
L 101.034468 198.78678 
L 101.387738 199.085449 
L 101.387738 199.085449 
L 101.741007 199.247876 
L 101.741007 199.247876 
L 102.270911 199.415329 
L 102.270911 199.415329 
L 103.154084 199.28216 
L 103.154084 199.28216 
L 103.860623 198.3067 
L 103.860623 198.3067 
L 104.567162 196.181737 
L 104.567162 196.181737 
L 105.097066 193.467423 
L 105.097066 193.467423 
L 106.156874 182.230758 
L 106.156874 182.230758 
L 106.686778 173.746711 
L 106.686778 173.746711 
L 107.569952 154.962931 
L 107.569952 154.962931 
L 108.099856 149.275389 
L 108.099856 149.275389 
L 108.453125 147.154392 
L 108.453125 147.154392 
L 108.983029 145.723251 
L 108.983029 145.723251 
L 109.512933 145.154112 
L 109.512933 145.154112 
L 110.042837 144.892463 
L 110.042837 144.892463 
L 110.749376 144.6015 
L 110.749376 144.6015 
L 111.455915 144.353978 
L 111.455915 144.353978 
L 112.162453 143.553508 
L 112.162453 143.553508 
L 112.515723 142.985653 
L 112.515723 142.985653 
L 113.398896 140.186747 
L 113.398896 140.186747 
L 114.105435 135.890366 
L 114.105435 135.890366 
L 114.458704 133.131104 
L 114.458704 133.131104 
L 115.695147 118.882852 
L 115.695147 118.882852 
L 115.871782 118.149442 
L 115.871782 118.149442 
L 116.048416 118.073281 
L 116.048416 118.073281 
L 117.814763 151.439995 
L 117.814763 151.439995 
L 118.874571 163.3783 
L 118.874571 163.3783 
L 119.404475 167.019999 
L 119.404475 167.019999 
L 119.934379 169.24932 
L 119.934379 169.24932 
L 120.464283 170.332879 
L 120.464283 170.332879 
L 120.640918 170.508372 
L 120.640918 170.508372 
L 120.817553 170.849253 
L 120.817553 170.849253 
L 120.994187 170.843893 
L 120.994187 170.843893 
L 121.700726 171.367023 
L 121.700726 171.367023 
L 122.053995 171.279639 
L 122.053995 171.279639 
L 122.760534 171.326095 
L 122.760534 171.326095 
L 122.937169 171.357419 
L 122.937169 171.357419 
L 123.643708 171.090689 
L 123.643708 171.090689 
L 123.820342 171.065228 
L 123.820342 171.065228 
L 124.350246 170.653379 
L 124.350246 170.653379 
L 125.056785 170.119808 
L 125.056785 170.119808 
L 125.586689 169.564069 
L 125.586689 169.564069 
L 126.116593 168.927926 
L 126.116593 168.927926 
L 126.823132 167.884178 
L 126.823132 167.884178 
L 128.589479 163.86268 
L 128.589479 163.86268 
L 131.238999 154.910222 
L 131.238999 154.910222 
L 133.18198 145.710688 
L 133.18198 145.710688 
L 135.654866 130.167927 
L 135.654866 130.167927 
L 137.597847 113.179173 
L 137.597847 113.179173 
L 138.481021 103.802192 
L 138.481021 103.802192 
L 140.953906 71.568117 
L 140.953906 71.568117 
L 141.660445 65.758238 
L 141.660445 65.758238 
L 142.366984 61.823621 
L 142.366984 61.823621 
L 143.073523 59.158945 
L 143.073523 59.158945 
L 143.780061 57.354371 
L 143.780061 57.354371 
L 144.4866 56.132282 
L 144.4866 56.132282 
L 145.193139 55.304621 
L 145.193139 55.304621 
L 146.076312 54.634864 
L 146.076312 54.634864 
L 147.13612 54.162601 
L 147.13612 54.162601 
L 148.372563 53.868623 
L 148.372563 53.868623 
L 150.315545 53.670906 
L 150.315545 53.670906 
L 150.845449 53.644831 
L 150.845449 53.644831 
L 151.022083 54.897518 
L 151.022083 54.897518 
L 151.375353 62.719012 
L 151.375353 62.719012 
L 151.905257 77.957856 
L 151.905257 77.957856 
L 154.201508 144.58581 
L 154.201508 144.58581 
L 155.967854 185.187234 
L 155.967854 185.187234 
L 157.380932 210.112225 
L 157.380932 210.112225 
L 159.500548 233.601832 
L 159.500548 233.601832 
L 160.913625 242.479358 
L 160.913625 242.479358 
L 161.973434 245.793019 
L 161.973434 245.793019 
L 162.679972 246.884787 
L 162.679972 246.884787 
L 163.033242 247.124213 
L 163.033242 247.124213 
L 164.976223 247.247778 
L 164.976223 247.247778 
L 165.329493 247.096406 
L 165.329493 247.096406 
L 165.859397 246.724201 
L 165.859397 246.724201 
L 166.919205 245.007793 
L 166.919205 245.007793 
L 167.449109 243.68559 
L 167.449109 243.68559 
L 167.979013 242.103077 
L 167.979013 242.103077 
L 168.508917 240.066113 
L 168.508917 240.066113 
L 169.568725 234.609566 
L 169.568725 234.609566 
L 170.981802 224.771209 
L 170.981802 224.771209 
L 173.278053 204.249581 
L 173.278053 204.249581 
L 174.514496 191.283442 
L 174.514496 191.283442 
L 176.104208 174.016288 
L 176.104208 174.016288 
L 179.636902 136.422542 
L 179.636902 136.422542 
L 180.69671 120.529073 
L 180.69671 120.529073 
L 182.286422 89.486601 
L 182.286422 89.486601 
L 182.463057 87.945631 
L 182.463057 87.945631 
L 182.816326 87.187709 
L 182.816326 87.187709 
L 182.992961 88.465634 
L 182.992961 88.465634 
L 183.169595 91.868913 
L 183.169595 91.868913 
L 185.642481 166.278437 
L 185.642481 166.278437 
L 187.938732 224.278733 
L 187.938732 224.278733 
L 188.115367 226.426979 
L 188.115367 226.426979 
L 188.645271 236.845754 
L 188.645271 236.845754 
L 189.351809 244.98652 
L 189.351809 244.98652 
L 190.234983 255.964719 
L 190.234983 255.964719 
L 191.824695 267.953164 
L 191.824695 267.953164 
L 192.354599 270.244686 
L 192.354599 270.244686 
L 192.707868 271.358509 
L 192.707868 271.358509 
L 193.237772 272.761284 
L 193.237772 272.761284 
L 193.591042 273.318419 
L 193.591042 273.318419 
L 194.65085 274.442683 
L 194.65085 274.442683 
L 195.357388 274.570436 
L 195.357388 274.570436 
L 197.123735 274.409907 
L 197.123735 274.409907 
L 198.006909 273.543216 
L 198.006909 273.543216 
L 198.536813 272.491427 
L 198.536813 272.491427 
L 198.890082 271.692186 
L 198.890082 271.692186 
L 199.596621 269.365879 
L 199.596621 269.365879 
L 200.30316 265.760082 
L 200.30316 265.760082 
L 200.833064 262.501028 
L 200.833064 262.501028 
L 202.59941 245.775263 
L 202.59941 245.775263 
L 203.305949 237.505795 
L 203.305949 237.505795 
L 204.365757 221.261786 
L 204.365757 221.261786 
L 205.778835 192.615305 
L 205.778835 192.615305 
L 206.662008 170.051855 
L 206.662008 170.051855 
L 209.841432 85.1044 
L 209.841432 85.1044 
L 210.547971 74.925442 
L 210.547971 74.925442 
L 211.25451 68.031948 
L 211.25451 68.031948 
L 211.961049 63.363474 
L 211.961049 63.363474 
L 212.667587 60.2018 
L 212.667587 60.2018 
L 213.374126 58.060589 
L 213.374126 58.060589 
L 214.080665 56.61052 
L 214.080665 56.61052 
L 214.787203 55.628527 
L 214.787203 55.628527 
L 214.963838 55.437232 
L 214.963838 55.437232 
L 215.493742 58.667139 
L 215.493742 58.667139 
L 216.023646 67.964665 
L 216.023646 67.964665 
L 216.55355 79.244883 
L 216.55355 79.244883 
L 216.90682 86.905624 
L 216.90682 86.905624 
L 217.789993 105.686332 
L 217.789993 105.686332 
L 218.143262 113.835864 
L 218.143262 113.835864 
L 219.379705 139.520955 
L 219.379705 139.520955 
L 219.909609 150.090823 
L 219.909609 150.090823 
L 220.439513 160.219919 
L 220.439513 160.219919 
L 222.559129 189.757659 
L 222.559129 189.757659 
L 223.972207 200.516421 
L 223.972207 200.516421 
L 224.502111 202.717209 
L 224.502111 202.717209 
L 225.032015 204.14874 
L 225.032015 204.14874 
L 225.561919 204.873663 
L 225.561919 204.873663 
L 226.445092 205.207285 
L 226.445092 205.207285 
L 226.974997 205.304943 
L 226.974997 205.304943 
L 227.504901 205.154687 
L 227.504901 205.154687 
L 228.211439 204.596603 
L 228.211439 204.596603 
L 228.917978 203.32817 
L 228.917978 203.32817 
L 229.624517 200.911966 
L 229.624517 200.911966 
L 229.977786 198.690965 
L 229.977786 198.690965 
L 230.331055 196.049796 
L 230.331055 196.049796 
L 230.86096 191.2376 
L 230.86096 191.2376 
L 231.390864 184.833623 
L 231.390864 184.833623 
L 232.627306 161.373162 
L 232.627306 161.373162 
L 235.100192 94.040331 
L 235.100192 94.040331 
L 235.806731 80.977148 
L 235.806731 80.977148 
L 236.513269 72.130333 
L 236.513269 72.130333 
L 237.219808 66.139041 
L 237.219808 66.139041 
L 237.926347 62.081473 
L 237.926347 62.081473 
L 238.632886 59.333601 
L 238.632886 59.333601 
L 239.339424 57.472633 
L 239.339424 57.472633 
L 240.045963 56.212352 
L 240.045963 56.212352 
L 240.752502 55.358838 
L 240.752502 55.358838 
L 241.282406 54.904944 
L 241.282406 54.904944 
L 241.45904 55.089707 
L 241.45904 55.089707 
L 241.635675 56.240326 
L 241.635675 56.240326 
L 242.872118 72.796627 
L 242.872118 72.796627 
L 243.402022 80.829405 
L 243.402022 80.829405 
L 243.755291 86.277968 
L 243.755291 86.277968 
L 244.638465 99.364211 
L 244.638465 99.364211 
L 244.991734 105.182633 
L 244.991734 105.182633 
L 245.874908 117.87657 
L 245.874908 117.87657 
L 246.228177 123.005916 
L 246.228177 123.005916 
L 247.287985 134.539519 
L 247.287985 134.539519 
L 247.817889 138.770347 
L 247.817889 138.770347 
L 248.524428 142.502613 
L 248.524428 142.502613 
L 249.054332 144.303502 
L 249.054332 144.303502 
L 249.584236 145.378295 
L 249.584236 145.378295 
L 249.937505 145.670988 
L 249.937505 145.670988 
L 250.467409 145.78992 
L 250.467409 145.78992 
L 250.997313 146.052239 
L 250.997313 146.052239 
L 251.703852 145.903379 
L 251.703852 145.903379 
L 252.057121 145.480587 
L 252.057121 145.480587 
L 252.410391 144.996821 
L 252.410391 144.996821 
L 253.293564 142.423326 
L 253.293564 142.423326 
L 254.176738 137.749436 
L 254.176738 137.749436 
L 254.706642 133.803205 
L 254.706642 133.803205 
L 255.41318 127.248582 
L 255.41318 127.248582 
L 257.179527 105.025063 
L 257.179527 105.025063 
L 258.062701 91.556174 
L 258.062701 91.556174 
L 259.122509 75.070449 
L 259.122509 75.070449 
L 259.829047 68.130164 
L 259.829047 68.130164 
L 260.535586 63.42992 
L 260.535586 63.42992 
L 261.242125 60.246804 
L 261.242125 60.246804 
L 261.948664 58.091131 
L 261.948664 58.091131 
L 262.655202 56.63118 
L 262.655202 56.63118 
L 263.361741 55.642486 
L 263.361741 55.642486 
L 264.244914 54.842464 
L 264.244914 54.842464 
L 265.128088 54.350992 
L 265.128088 54.350992 
L 266.187896 54.004361 
L 266.187896 54.004361 
L 267.777608 53.74958 
L 267.777608 53.74958 
L 270.250494 53.6144 
L 270.250494 53.6144 
L 276.256073 53.569675 
L 276.256073 53.569675 
L 276.785977 60.207774 
L 276.785977 60.207774 
L 277.315881 76.931082 
L 277.315881 76.931082 
L 278.199054 108.842423 
L 278.199054 108.842423 
L 279.612132 162.332318 
L 279.612132 162.332318 
L 281.555113 223.473462 
L 281.555113 223.473462 
L 281.731748 226.453445 
L 281.731748 226.453445 
L 282.261652 239.007959 
L 282.261652 239.007959 
L 282.438287 241.489827 
L 282.438287 241.489827 
L 282.791556 248.097607 
L 282.791556 248.097607 
L 283.32146 255.690674 
L 283.32146 255.690674 
L 283.851364 264.282374 
L 283.851364 264.282374 
L 284.911172 276.196166 
L 284.911172 276.196166 
L 285.264442 280.158924 
L 285.264442 280.158924 
L 286.854154 291.320937 
L 286.854154 291.320937 
L 287.737327 294.147594 
L 287.737327 294.147594 
L 288.267231 294.897308 
L 288.267231 294.897308 
L 288.620501 295.091004 
L 288.620501 295.091004 
L 289.503674 295.361196 
L 289.503674 295.361196 
L 290.386847 295.210549 
L 290.386847 295.210549 
L 290.916751 294.799315 
L 290.916751 294.799315 
L 291.270021 294.459495 
L 291.270021 294.459495 
L 291.799925 293.286151 
L 291.799925 293.286151 
L 292.329829 291.764165 
L 292.329829 291.764165 
L 292.683098 290.238215 
L 292.683098 290.238215 
L 293.213002 287.709333 
L 293.213002 287.709333 
L 293.919541 283.350416 
L 293.919541 283.350416 
L 294.979349 274.700814 
L 294.979349 274.700814 
L 295.685888 267.781244 
L 295.685888 267.781244 
L 296.569061 256.9045 
L 296.569061 256.9045 
L 297.452235 244.849051 
L 297.452235 244.849051 
L 298.335408 230.870656 
L 298.335408 230.870656 
L 299.571851 210.141037 
L 299.571851 210.141037 
L 301.691467 180.154876 
L 301.691467 180.154876 
L 303.104544 159.823426 
L 303.104544 159.823426 
L 303.281179 159.552675 
L 303.281179 159.552675 
L 303.457814 158.944171 
L 303.457814 158.944171 
L 303.987718 167.164615 
L 303.987718 167.164615 
L 304.340987 177.224531 
L 304.340987 177.224531 
L 304.870891 190.442045 
L 304.870891 190.442045 
L 305.224161 197.741692 
L 305.224161 197.741692 
L 305.57743 205.965877 
L 305.57743 205.965877 
L 305.930699 212.815596 
L 305.930699 212.815596 
L 306.460603 221.747171 
L 306.460603 221.747171 
L 307.343777 232.818002 
L 307.343777 232.818002 
L 307.873681 238.854689 
L 307.873681 238.854689 
L 309.286758 249.99163 
L 309.286758 249.99163 
L 310.699836 256.966869 
L 310.699836 256.966869 
L 311.053105 258.370035 
L 311.053105 258.370035 
L 311.759644 260.028932 
L 311.759644 260.028932 
L 312.289548 260.718734 
L 312.289548 260.718734 
L 312.466183 260.756088 
L 312.466183 260.756088 
L 312.642817 261.052132 
L 312.642817 261.052132 
L 312.819452 261.06866 
L 312.819452 261.06866 
L 313.172721 261.348455 
L 313.172721 261.348455 
L 313.87926 261.551364 
L 313.87926 261.551364 
L 315.468972 261.132648 
L 315.468972 261.132648 
L 315.822242 260.895567 
L 315.822242 260.895567 
L 316.352146 260.192532 
L 316.352146 260.192532 
L 317.588588 256.782107 
L 317.588588 256.782107 
L 318.825031 250.52643 
L 318.825031 250.52643 
L 319.884839 242.752063 
L 319.884839 242.752063 
L 322.710994 213.778493 
L 322.710994 213.778493 
L 323.770802 199.831757 
L 323.770802 199.831757 
L 326.243688 159.652622 
L 326.243688 159.652622 
L 326.950227 145.314139 
L 326.950227 145.314139 
L 327.303496 140.806139 
L 327.303496 140.806139 
L 327.656765 138.516013 
L 327.656765 138.516013 
L 328.010035 139.319441 
L 328.010035 139.319441 
L 328.186669 141.335914 
L 328.186669 141.335914 
L 328.716573 151.919741 
L 328.716573 151.919741 
L 329.599747 168.705753 
L 329.599747 168.705753 
L 329.953016 175.692271 
L 329.953016 175.692271 
L 330.48292 183.999819 
L 330.48292 183.999819 
L 331.895998 200.162084 
L 331.895998 200.162084 
L 332.425902 204.035281 
L 332.425902 204.035281 
L 333.13244 207.746832 
L 333.13244 207.746832 
L 333.48571 208.859203 
L 333.48571 208.859203 
L 334.015614 209.748228 
L 334.015614 209.748228 
L 334.368883 210.018699 
L 334.368883 210.018699 
L 334.722153 210.15293 
L 334.722153 210.15293 
L 335.252057 210.284871 
L 335.252057 210.284871 
L 335.781961 210.227416 
L 335.781961 210.227416 
L 336.488499 209.687925 
L 336.488499 209.687925 
L 337.195038 208.400787 
L 337.195038 208.400787 
L 337.901577 205.870453 
L 337.901577 205.870453 
L 338.431481 202.787172 
L 338.431481 202.787172 
L 339.491289 190.829995 
L 339.491289 190.829995 
L 340.197828 179.863522 
L 340.197828 179.863522 
L 340.551097 177.549721 
L 340.551097 177.549721 
L 340.727732 176.918659 
L 340.727732 176.918659 
L 340.904366 177.024692 
L 340.904366 177.024692 
L 341.081001 177.268418 
L 341.081001 177.268418 
L 341.610905 182.001047 
L 341.610905 182.001047 
L 342.140809 185.779211 
L 342.140809 185.779211 
L 342.494079 187.049598 
L 342.494079 187.049598 
L 343.377252 188.086367 
L 343.377252 188.086367 
L 343.553887 188.192623 
L 343.553887 188.192623 
L 343.730521 188.165487 
L 343.730521 188.165487 
L 344.43706 187.406671 
L 344.43706 187.406671 
L 344.966964 185.84962 
L 344.966964 185.84962 
L 345.850138 178.549135 
L 345.850138 178.549135 
L 346.380042 171.917457 
L 346.380042 171.917457 
L 346.733311 168.434835 
L 346.733311 168.434835 
L 346.909946 167.409123 
L 346.909946 167.409123 
L 347.08658 167.167407 
L 347.08658 167.167407 
L 347.263215 167.135469 
L 347.263215 167.135469 
L 347.43985 168.421881 
L 347.43985 168.421881 
L 348.146388 177.777198 
L 348.146388 177.777198 
L 348.852927 183.43068 
L 348.852927 183.43068 
L 349.206196 184.918438 
L 349.206196 184.918438 
L 349.559466 185.771952 
L 349.559466 185.771952 
L 349.912735 186.05493 
L 349.912735 186.05493 
L 350.442639 186.394192 
L 350.442639 186.394192 
L 350.972543 186.321493 
L 350.972543 186.321493 
L 351.325813 186.284753 
L 351.325813 186.284753 
L 351.855717 185.981059 
L 351.855717 185.981059 
L 352.032351 185.880777 
L 352.032351 185.880777 
L 353.622064 183.556312 
L 353.622064 183.556312 
L 355.035141 179.557092 
L 355.035141 179.557092 
L 355.74168 177.066067 
L 355.74168 177.066067 
L 357.684661 166.565268 
L 357.684661 166.565268 
L 358.744469 158.998388 
L 358.744469 158.998388 
L 359.804277 150.611552 
L 359.804277 150.611552 
L 361.923894 135.854687 
L 361.923894 135.854687 
L 363.336971 128.431585 
L 363.336971 128.431585 
L 364.04351 124.809094 
L 364.04351 124.809094 
L 364.750048 120.435659 
L 364.750048 120.435659 
L 365.809857 111.237242 
L 365.809857 111.237242 
L 366.869665 97.534958 
L 366.869665 97.534958 
L 368.459377 72.813211 
L 368.459377 72.813211 
L 369.165916 66.601478 
L 369.165916 66.601478 
L 369.872454 62.394659 
L 369.872454 62.394659 
L 370.578993 59.545723 
L 370.578993 59.545723 
L 371.285532 57.6163 
L 371.285532 57.6163 
L 371.99207 56.309618 
L 371.99207 56.309618 
L 372.698609 55.424725 
L 372.698609 55.424725 
L 373.581783 54.70868 
L 373.581783 54.70868 
L 374.464956 54.268801 
L 374.464956 54.268801 
L 375.701399 53.922281 
L 375.701399 53.922281 
L 377.467746 53.701728 
L 377.467746 53.701728 
L 380.470535 53.593517 
L 380.470535 53.593517 
L 390.715347 53.568112 
L 390.715347 53.568112 
L 397.074195 53.634389 
L 397.074195 53.634389 
L 397.427465 53.691566 
L 397.427465 53.691566 
L 398.310638 53.714012 
L 398.310638 53.714012 
L 398.487273 53.784422 
L 398.487273 53.784422 
" clip-path="url(#pb8f847db25)" style="fill: none; stroke: #1f77b4; stroke-width: 1.5; stroke-linecap: square"/>
   </g>
   <g id="line2d_28">
    <path d="M 73.832727 53.568 
L 92.202734 53.568 
L 92.202734 53.568 
L 92.379369 57.18636 
L 92.379369 57.18636 
L 92.556004 66.821026 
L 92.556004 66.821026 
L 92.732638 65.567333 
L 92.732638 65.567333 
L 93.969081 109.586777 
L 93.969081 109.586777 
L 94.145716 110.285736 
L 94.145716 110.285736 
L 94.498985 122.063511 
L 94.498985 122.063511 
L 94.67562 130.087076 
L 94.67562 130.087076 
L 94.852254 128.892793 
L 94.852254 128.892793 
L 95.205524 141.768924 
L 95.382158 141.202186 
L 95.735428 153.05037 
L 95.735428 153.05037 
L 95.912063 152.065641 
L 95.912063 152.065641 
L 96.088697 156.902964 
L 96.088697 156.902964 
L 96.265332 158.195797 
L 97.148505 175.266016 
L 97.148505 175.266016 
L 97.32514 174.860589 
L 97.501775 178.855397 
L 97.501775 178.855397 
L 97.678409 179.385675 
L 97.678409 179.385675 
L 98.384948 188.722063 
L 98.384948 188.722063 
L 98.561583 188.699114 
L 98.561583 188.699114 
L 98.738217 190.973271 
L 98.738217 190.973271 
L 98.914852 191.250778 
L 98.914852 191.250778 
L 99.268121 195.162613 
L 99.268121 195.162613 
L 99.444756 195.052951 
L 99.621391 196.941558 
L 99.621391 196.941558 
L 99.798026 196.858027 
L 99.798026 196.858027 
L 99.97466 197.97224 
L 99.97466 197.97224 
L 100.151295 198.191956 
L 100.151295 198.191956 
L 100.504564 199.054627 
L 100.504564 199.054627 
L 100.681199 199.147427 
L 100.681199 199.147427 
L 100.857834 199.493277 
L 100.857834 199.493277 
L 101.211103 199.262617 
L 101.211103 199.262617 
L 101.387738 199.478648 
L 101.387738 199.478648 
L 101.564372 199.299357 
L 101.564372 199.299357 
L 101.741007 199.517566 
L 101.741007 199.517566 
L 101.917642 199.337717 
L 101.917642 199.337717 
L 102.094276 199.558047 
L 102.094276 199.558047 
L 102.270911 199.273561 
L 102.270911 199.273561 
L 102.447546 199.479597 
L 102.447546 199.479597 
L 102.62418 199.015039 
L 102.62418 199.015039 
L 102.800815 199.106443 
L 102.800815 199.106443 
L 102.97745 198.481858 
L 102.97745 198.481858 
L 103.154084 196.725862 
L 103.154084 196.725862 
L 103.330719 197.471891 
L 103.330719 197.471891 
L 103.507354 195.234084 
L 103.507354 195.234084 
L 103.683989 195.845882 
L 103.683989 195.845882 
L 103.860623 193.268478 
L 103.860623 193.268478 
L 104.037258 193.53666 
L 104.037258 193.53666 
L 104.213893 190.534342 
L 104.213893 190.534342 
L 104.390527 190.155437 
L 104.390527 190.155437 
L 104.920431 183.334921 
L 104.920431 183.334921 
L 105.097066 174.67672 
L 105.097066 174.67672 
L 105.273701 177.394496 
L 105.273701 177.394496 
L 105.450335 168.97226 
L 105.450335 168.97226 
L 105.62697 170.07726 
L 105.62697 170.07726 
L 105.803605 161.871166 
L 105.803605 161.871166 
L 105.980239 161.061037 
L 105.980239 161.061037 
L 106.333509 149.732242 
L 106.333509 149.732242 
L 106.510143 144.044198 
L 106.510143 144.044198 
L 106.686778 128.38848 
L 106.686778 128.38848 
L 106.863413 130.577598 
L 106.863413 130.577598 
L 107.040047 121.250925 
L 107.040047 121.250925 
L 107.216682 122.019735 
L 107.216682 122.019735 
L 107.393317 124.491106 
L 107.393317 124.491106 
L 107.569952 131.194198 
L 107.569952 131.194198 
L 107.746586 131.119601 
L 107.746586 131.119601 
L 107.923221 134.890952 
L 107.923221 134.890952 
L 108.099856 136.072169 
L 108.099856 136.072169 
L 108.453125 140.824286 
L 108.453125 140.824286 
L 108.62976 141.096767 
L 108.62976 141.096767 
L 108.983029 143.285438 
L 108.983029 143.285438 
L 109.512933 143.80667 
L 109.512933 143.80667 
L 109.866202 144.411712 
L 109.866202 144.411712 
L 110.042837 143.821578 
L 110.396106 144.373911 
L 110.396106 144.373911 
L 110.572741 143.679028 
L 110.572741 143.679028 
L 110.749376 143.996793 
L 110.749376 143.996793 
L 110.92601 143.637095 
L 110.92601 143.637095 
L 111.102645 143.844471 
L 111.102645 143.844471 
L 111.27928 143.867308 
L 111.27928 143.867308 
L 111.455915 142.569617 
L 111.455915 142.569617 
L 111.632549 142.779952 
L 111.632549 142.779952 
L 111.809184 142.092607 
L 111.809184 142.092607 
L 111.985819 140.410483 
L 111.985819 140.410483 
L 112.162453 140.790896 
L 112.162453 140.790896 
L 112.339088 139.943524 
L 112.515723 136.963484 
L 112.515723 136.963484 
L 112.692357 137.707503 
L 112.692357 137.707503 
L 113.045627 135.10743 
L 113.045627 135.10743 
L 113.222261 133.765013 
L 113.222261 133.765013 
L 113.398896 129.921689 
L 113.398896 129.921689 
L 113.575531 129.62665 
L 113.575531 129.62665 
L 113.752165 127.212735 
L 113.752165 127.212735 
L 113.9288 122.032354 
L 113.9288 122.032354 
L 114.105435 122.0414 
L 114.105435 122.0414 
L 114.282069 118.732596 
L 114.282069 118.732596 
L 114.458704 111.07487 
L 114.458704 111.07487 
L 114.635339 111.48778 
L 114.635339 111.48778 
L 114.811973 106.502547 
L 114.811973 106.502547 
L 114.988608 96.405892 
L 114.988608 96.405892 
L 115.165243 97.124561 
L 115.165243 97.124561 
L 115.341878 99.189778 
L 115.341878 99.189778 
L 115.518512 111.119428 
L 115.518512 111.119428 
L 115.695147 110.983243 
L 115.695147 110.983243 
L 115.871782 117.328927 
L 115.871782 117.328927 
L 116.048416 128.024371 
L 116.048416 128.024371 
L 116.225051 128.106283 
L 116.225051 128.106283 
L 116.401686 132.593903 
L 116.401686 132.593903 
L 116.57832 140.433934 
L 116.57832 140.433934 
L 116.754955 140.657838 
L 116.754955 140.657838 
L 117.284859 150.450353 
L 117.284859 150.450353 
L 117.638128 157.88853 
L 117.638128 157.88853 
L 117.814763 157.541005 
L 117.814763 157.541005 
L 118.168032 163.705947 
L 118.168032 163.705947 
L 118.344667 163.185776 
L 118.344667 163.185776 
L 118.521302 165.537545 
L 118.521302 165.537545 
L 118.697936 165.954419 
L 118.697936 165.954419 
L 119.051206 168.630933 
L 119.051206 168.630933 
L 119.227841 168.769797 
L 119.227841 168.769797 
L 119.404475 169.55614 
L 119.58111 169.793779 
L 119.58111 169.793779 
L 119.757745 170.586711 
L 119.757745 170.586711 
L 119.934379 170.506921 
L 119.934379 170.506921 
L 120.287649 170.863435 
L 120.287649 170.863435 
L 120.464283 170.842609 
L 120.464283 170.842609 
L 120.640918 171.498629 
L 120.640918 171.498629 
L 120.817553 170.79163 
L 120.817553 170.79163 
L 121.170822 171.467752 
L 121.170822 171.467752 
L 121.524091 171.545755 
L 121.524091 171.545755 
L 121.700726 170.529925 
L 121.700726 170.529925 
L 121.877361 171.18522 
L 121.877361 171.18522 
L 122.053995 171.39416 
L 122.053995 171.39416 
L 122.23063 171.286172 
L 122.23063 171.286172 
L 122.407265 171.446311 
L 122.407265 171.446311 
L 122.583899 170.985996 
L 122.583899 170.985996 
L 122.760534 171.417108 
L 122.760534 171.417108 
L 122.937169 170.359066 
L 122.937169 170.359066 
L 123.113804 170.74657 
L 123.113804 170.74657 
L 123.290438 170.523616 
L 123.290438 170.523616 
L 123.467073 170.488606 
L 123.467073 170.488606 
L 123.643708 170.816421 
L 123.643708 170.816421 
L 123.820342 169.05406 
L 123.820342 169.05406 
L 123.996977 169.779541 
L 123.996977 169.779541 
L 124.173612 169.450554 
L 124.173612 169.450554 
L 124.350246 169.476853 
L 124.350246 169.476853 
L 124.526881 169.769602 
L 124.526881 169.769602 
L 124.703516 167.963186 
L 124.703516 167.963186 
L 124.88015 168.952047 
L 124.88015 168.952047 
L 125.056785 167.597905 
L 125.056785 167.597905 
L 125.23342 167.840235 
L 125.410054 168.277154 
L 125.410054 168.277154 
L 125.586689 167.621356 
L 125.586689 167.621356 
L 125.763324 167.801596 
L 125.763324 167.801596 
L 125.939958 165.909694 
L 125.939958 165.909694 
L 126.116593 166.275087 
L 126.116593 166.275087 
L 126.293228 165.471212 
L 126.293228 165.471212 
L 126.469862 165.405772 
L 126.469862 165.405772 
L 126.646497 165.705613 
L 126.646497 165.705613 
L 126.823132 163.699917 
L 126.823132 163.699917 
L 126.999767 164.192951 
L 127.176401 163.149036 
L 127.176401 163.149036 
L 127.353036 163.040993 
L 127.353036 163.040993 
L 127.529671 163.121676 
L 127.529671 163.121676 
L 127.706305 160.3575 
L 127.706305 160.3575 
L 127.88294 161.134071 
L 127.88294 161.134071 
L 128.059575 160.004112 
L 128.059575 160.004112 
L 128.236209 159.743021 
L 128.236209 159.743021 
L 128.412844 160.026949 
L 128.412844 160.026949 
L 128.589479 157.652231 
L 128.589479 157.652231 
L 128.766113 158.869686 
L 128.766113 158.869686 
L 128.942748 156.784311 
L 128.942748 156.784311 
L 129.119383 156.816864 
L 129.119383 156.816864 
L 129.296017 156.23304 
L 129.296017 156.23304 
L 129.472652 154.203613 
L 129.472652 154.203613 
L 129.649287 155.275949 
L 129.649287 155.275949 
L 129.825921 153.675178 
L 129.825921 153.675178 
L 130.002556 153.293649 
L 130.002556 153.293649 
L 130.179191 152.448902 
L 130.179191 152.448902 
L 130.355826 150.41378 
L 130.355826 150.41378 
L 130.53246 151.143337 
L 130.53246 151.143337 
L 131.238999 146.299984 
L 131.238999 146.299984 
L 131.415634 146.492843 
L 131.415634 146.492843 
L 131.592268 145.621685 
L 131.592268 145.621685 
L 131.768903 142.566434 
L 131.768903 142.566434 
L 131.945538 143.613979 
L 131.945538 143.613979 
L 132.122172 141.477124 
L 132.122172 141.477124 
L 132.298807 141.310117 
L 132.298807 141.310117 
L 132.475442 140.563363 
L 132.475442 140.563363 
L 132.652076 137.924595 
L 132.652076 137.924595 
L 132.828711 138.122144 
L 132.828711 138.122144 
L 133.005346 136.748738 
L 133.005346 136.748738 
L 133.18198 134.128899 
L 133.18198 134.128899 
L 133.358615 134.695414 
L 133.358615 134.695414 
L 133.53525 133.302912 
L 133.53525 133.302912 
L 133.711884 130.048772 
L 133.711884 130.048772 
L 133.888519 130.989558 
L 133.888519 130.989558 
L 134.065154 128.691671 
L 134.065154 128.691671 
L 134.241789 128.491274 
L 134.241789 128.491274 
L 134.418423 126.967223 
L 134.418423 126.967223 
L 134.595058 124.198803 
L 134.595058 124.198803 
L 134.771693 124.237106 
L 134.771693 124.237106 
L 134.948327 123.039139 
L 134.948327 123.039139 
L 135.124962 119.384373 
L 135.124962 119.384373 
L 135.301597 119.617602 
L 135.301597 119.617602 
L 135.478231 118.240846 
L 135.478231 118.240846 
L 135.654866 114.248215 
L 135.654866 114.248215 
L 135.831501 114.610425 
L 135.831501 114.610425 
L 136.008135 112.541634 
L 136.008135 112.541634 
L 136.18477 108.804455 
L 136.18477 108.804455 
L 136.361405 109.207425 
L 136.361405 109.207425 
L 136.538039 107.025342 
L 136.538039 107.025342 
L 136.714674 103.068112 
L 136.714674 103.068112 
L 136.891309 103.37644 
L 136.891309 103.37644 
L 137.067943 101.157952 
L 137.067943 101.157952 
L 137.244578 97.042816 
L 137.244578 97.042816 
L 137.421213 96.719915 
L 137.421213 96.719915 
L 138.304386 83.95903 
L 138.304386 83.95903 
L 138.481021 78.006099 
L 138.481021 78.006099 
L 138.657656 79.82653 
L 138.657656 79.82653 
L 139.18756 71.049733 
L 139.18756 71.049733 
L 139.364194 68.557535 
L 139.364194 68.557535 
L 139.717464 57.907095 
L 139.717464 57.907095 
L 139.894098 58.490417 
L 139.894098 58.490417 
L 140.247368 53.568 
L 140.247368 53.568 
L 150.668814 53.568 
L 150.668814 53.568 
L 150.845449 57.283962 
L 150.845449 57.283962 
L 151.198718 71.937865 
L 151.198718 71.937865 
L 151.375353 81.333775 
L 151.375353 81.333775 
L 151.551987 80.835324 
L 152.78843 124.754541 
L 152.78843 124.754541 
L 152.965065 123.598172 
L 152.965065 123.598172 
L 153.141699 129.243445 
L 153.141699 129.243445 
L 153.318334 138.864264 
L 153.318334 138.864264 
L 153.494969 137.887519 
L 153.494969 137.887519 
L 153.671604 142.902122 
L 153.671604 142.902122 
L 153.848238 152.682297 
L 153.848238 152.682297 
L 154.024873 151.447031 
L 154.024873 151.447031 
L 154.201508 157.027143 
L 154.201508 157.027143 
L 154.378142 166.308701 
L 154.378142 166.308701 
L 154.554777 164.716584 
L 154.554777 164.716584 
L 154.731412 171.613931 
L 154.908046 172.686937 
L 154.908046 172.686937 
L 155.084681 176.674878 
L 155.084681 176.674878 
L 155.261316 185.002025 
L 155.261316 185.002025 
L 155.43795 183.91908 
L 155.43795 183.91908 
L 155.614585 190.084525 
L 155.614585 190.084525 
L 155.79122 190.822681 
L 155.79122 190.822681 
L 156.144489 197.321301 
L 156.144489 197.321301 
L 156.321124 200.195586 
L 156.321124 200.195586 
L 156.497758 206.930617 
L 156.674393 205.913949 
L 156.674393 205.913949 
L 156.851028 211.73025 
L 156.851028 211.73025 
L 157.027662 211.221246 
L 157.027662 211.221246 
L 157.204297 215.951195 
L 157.204297 215.951195 
L 157.380932 216.107034 
L 157.380932 216.107034 
L 157.557567 219.983805 
L 157.557567 219.983805 
L 157.734201 220.564837 
L 157.734201 220.564837 
L 157.910836 223.860743 
L 157.910836 223.860743 
L 158.087471 224.604315 
L 158.087471 224.604315 
L 158.264105 227.651413 
L 158.264105 227.651413 
L 158.44074 228.242441 
L 158.44074 228.242441 
L 158.617375 230.770094 
L 158.617375 230.770094 
L 158.794009 231.507636 
L 158.794009 231.507636 
L 158.970644 234.212905 
L 158.970644 234.212905 
L 159.147279 234.408611 
L 159.147279 234.408611 
L 159.323913 236.942909 
L 159.323913 236.942909 
L 159.500548 236.972056 
L 159.500548 236.972056 
L 159.677183 238.960052 
L 159.677183 238.960052 
L 159.853817 239.219244 
L 159.853817 239.219244 
L 160.030452 241.040903 
L 160.030452 241.040903 
L 160.207087 241.159276 
L 160.207087 241.159276 
L 160.383721 243.172342 
L 160.383721 243.172342 
L 160.560356 243.178094 
L 160.560356 243.178094 
L 160.736991 244.205984 
L 160.736991 244.205984 
L 160.913625 244.171533 
L 160.913625 244.171533 
L 161.09026 245.290549 
L 161.09026 245.290549 
L 161.266895 245.53003 
L 161.266895 245.53003 
L 161.44353 246.065277 
L 161.44353 246.065277 
L 161.620164 246.164052 
L 161.620164 246.164052 
L 161.796799 246.561997 
L 161.796799 246.561997 
L 161.973434 246.650944 
L 161.973434 246.650944 
L 162.326703 247.369892 
L 162.326703 247.369892 
L 162.503338 247.191328 
L 162.503338 247.191328 
L 162.679972 247.334436 
L 162.679972 247.334436 
L 163.209876 247.294402 
L 163.209876 247.294402 
L 163.386511 247.426008 
L 163.386511 247.426008 
L 163.563146 247.278321 
L 163.563146 247.278321 
L 163.73978 247.392953 
L 163.73978 247.392953 
L 164.09305 247.036829 
L 164.09305 247.036829 
L 164.622954 247.331924 
L 164.622954 247.331924 
L 164.799588 246.840006 
L 164.799588 246.840006 
L 164.976223 246.974125 
L 165.152858 245.865272 
L 165.152858 245.865272 
L 165.329493 246.043724 
L 165.329493 246.043724 
L 165.506127 245.313553 
L 165.506127 245.313553 
L 165.682762 245.571182 
L 165.682762 245.571182 
L 165.859397 243.941655 
L 165.859397 243.941655 
L 166.036031 244.602534 
L 166.036031 244.602534 
L 166.212666 242.589411 
L 166.212666 242.589411 
L 166.389301 243.419306 
L 166.389301 243.419306 
L 166.565935 240.97725 
L 166.565935 240.97725 
L 166.74257 242.402192 
L 166.74257 242.402192 
L 166.919205 239.117845 
L 166.919205 239.117845 
L 167.095839 240.798853 
L 167.625743 237.523272 
L 167.625743 237.523272 
L 168.508917 230.8419 
L 168.508917 230.8419 
L 168.685551 230.661214 
L 168.685551 230.661214 
L 168.862186 228.423239 
L 168.862186 228.423239 
L 169.038821 228.408275 
L 169.038821 228.408275 
L 169.215456 225.070883 
L 169.215456 225.070883 
L 169.39209 225.216783 
L 169.39209 225.216783 
L 169.568725 221.947177 
L 169.568725 221.947177 
L 169.74536 222.253606 
L 169.74536 222.253606 
L 169.921994 218.698397 
L 169.921994 218.698397 
L 170.098629 219.143077 
L 170.098629 219.143077 
L 170.275264 215.359665 
L 170.275264 215.359665 
L 170.451898 215.899882 
L 170.451898 215.899882 
L 170.628533 211.925844 
L 170.628533 211.925844 
L 170.805168 212.520445 
L 170.805168 212.520445 
L 170.981802 208.429487 
L 170.981802 208.429487 
L 171.158437 209.028443 
L 171.158437 209.028443 
L 171.335072 204.892815 
L 171.335072 204.892815 
L 171.511706 205.428788 
L 171.511706 205.428788 
L 171.688341 201.322195 
L 171.688341 201.322195 
L 171.864976 201.730749 
L 171.864976 201.730749 
L 172.04161 197.744316 
L 172.04161 197.744316 
L 172.218245 197.942479 
L 172.218245 197.942479 
L 172.39488 194.14924 
L 172.39488 194.14924 
L 172.571514 194.068836 
L 172.571514 194.068836 
L 172.748149 190.457288 
L 172.748149 190.457288 
L 172.924784 190.131986 
L 172.924784 190.131986 
L 173.101419 187.011909 
L 173.101419 187.011909 
L 173.278053 185.940578 
L 173.278053 185.940578 
L 173.807957 179.899648 
L 173.807957 179.899648 
L 173.984592 174.598326 
L 173.984592 174.598326 
L 174.161227 175.593496 
L 174.161227 175.593496 
L 174.337861 171.086166 
L 174.337861 171.086166 
L 174.514496 171.945934 
L 174.514496 171.945934 
L 174.691131 168.142253 
L 174.691131 168.142253 
L 174.867765 168.024327 
L 174.867765 168.024327 
L 175.221035 163.361381 
L 175.221035 163.361381 
L 175.397669 161.768148 
L 175.397669 161.768148 
L 175.574304 156.549687 
L 175.574304 156.549687 
L 175.750939 158.409148 
L 175.750939 158.409148 
L 175.927573 154.389548 
L 175.927573 154.389548 
L 176.104208 154.358056 
L 176.104208 154.358056 
L 176.457477 150.262687 
L 176.457477 150.262687 
L 176.634112 149.39594 
L 176.634112 149.39594 
L 176.810747 145.114245 
L 176.810747 145.114245 
L 176.987382 145.41135 
L 176.987382 145.41135 
L 177.340651 141.815213 
L 177.340651 141.815213 
L 177.517286 140.726349 
L 177.517286 140.726349 
L 177.69392 136.860969 
L 177.69392 136.860969 
L 177.870555 136.996372 
L 177.870555 136.996372 
L 178.04719 134.673414 
L 178.04719 134.673414 
L 178.223824 129.802032 
L 178.223824 129.802032 
L 178.400459 131.259527 
L 178.400459 131.259527 
L 178.577094 127.740611 
L 178.577094 127.740611 
L 178.753728 126.662245 
L 178.753728 126.662245 
L 178.930363 124.161783 
L 178.930363 124.161783 
L 179.106998 119.06633 
L 179.283632 119.030594 
L 179.283632 119.030594 
L 179.460267 116.33828 
L 179.460267 116.33828 
L 179.636902 108.939132 
L 179.636902 108.939132 
L 179.813536 109.458912 
L 179.813536 109.458912 
L 179.990171 105.231824 
L 179.990171 105.231824 
L 180.166806 96.681332 
L 180.166806 96.681332 
L 180.34344 97.753557 
L 180.34344 97.753557 
L 180.69671 81.991973 
L 180.69671 81.991973 
L 180.873345 82.828513 
L 181.049979 76.669657 
L 181.049979 76.669657 
L 181.226614 65.161459 
L 181.226614 65.161459 
L 181.403249 64.847827 
L 181.403249 64.847827 
L 181.579883 57.55354 
L 181.579883 57.55354 
L 181.756518 56.556136 
L 181.756518 56.556136 
L 181.933153 67.93228 
L 181.933153 67.93228 
L 182.109787 66.437654 
L 182.109787 66.437654 
L 183.876134 133.603088 
L 183.876134 133.603088 
L 184.052769 131.169909 
L 184.052769 131.169909 
L 184.406038 149.626488 
L 184.406038 149.626488 
L 184.582673 147.693435 
L 184.582673 147.693435 
L 184.759308 154.742266 
L 184.935942 166.545949 
L 184.935942 166.545949 
L 185.112577 164.233042 
L 185.112577 164.233042 
L 185.289212 172.993535 
L 185.289212 172.993535 
L 185.465846 174.107022 
L 185.465846 174.107022 
L 185.642481 179.561559 
L 185.642481 179.561559 
L 185.819116 190.812128 
L 185.819116 190.812128 
L 185.99575 188.839375 
L 185.99575 188.839375 
L 186.172385 196.910513 
L 186.172385 196.910513 
L 186.34902 197.3189 
L 186.34902 197.3189 
L 186.702289 206.304022 
L 186.702289 206.304022 
L 186.878924 210.351931 
L 186.878924 210.351931 
L 187.055558 220.897789 
L 187.055558 220.897789 
L 187.232193 217.291881 
L 187.232193 217.291881 
L 187.408828 227.389485 
L 187.585462 224.365726 
L 187.585462 224.365726 
L 187.762097 233.026049 
L 187.762097 233.026049 
L 187.938732 230.519557 
L 187.938732 230.519557 
L 188.115367 238.87345 
L 188.115367 238.87345 
L 188.292001 236.74335 
L 188.292001 236.74335 
L 188.468636 244.576626 
L 188.468636 244.576626 
L 188.645271 242.125077 
L 188.645271 242.125077 
L 189.705079 256.856257 
L 189.705079 256.856257 
L 189.881713 257.151631 
L 189.881713 257.151631 
L 190.058348 260.165842 
L 190.058348 260.165842 
L 190.234983 259.995263 
L 190.234983 259.995263 
L 190.411617 263.745285 
L 190.411617 263.745285 
L 190.588252 263.394018 
L 190.588252 263.394018 
L 190.764887 264.191975 
L 191.118156 266.858493 
L 191.118156 266.858493 
L 191.294791 268.079801 
L 191.294791 268.079801 
L 191.471425 268.419565 
L 191.471425 268.419565 
L 191.64806 270.352506 
L 191.64806 270.352506 
L 191.824695 270.305994 
L 191.824695 270.305994 
L 192.177964 271.501952 
L 192.177964 271.501952 
L 192.354599 271.468674 
L 192.354599 271.468674 
L 192.531234 272.677865 
L 192.531234 272.677865 
L 193.061138 273.579677 
L 193.061138 273.579677 
L 193.237772 273.3412 
L 193.237772 273.3412 
L 193.414407 273.999454 
L 193.591042 273.93005 
L 193.591042 273.93005 
L 193.767676 274.357812 
L 193.767676 274.357812 
L 193.944311 274.147755 
L 194.29758 274.598578 
L 194.29758 274.598578 
L 194.474215 274.749783 
L 194.474215 274.749783 
L 194.827484 274.391202 
L 194.827484 274.391202 
L 195.180754 274.693276 
L 195.180754 274.693276 
L 195.357388 274.449383 
L 195.710658 274.752016 
L 195.710658 274.752016 
L 196.240562 274.177405 
L 196.240562 274.177405 
L 196.417197 274.428556 
L 196.417197 274.428556 
L 196.770466 273.948141 
L 196.770466 273.948141 
L 196.947101 273.965059 
L 196.947101 273.965059 
L 197.123735 272.637663 
L 197.123735 272.637663 
L 197.30037 273.296252 
L 197.30037 273.296252 
L 197.477005 271.252866 
L 197.477005 271.252866 
L 197.653639 272.256468 
L 197.653639 272.256468 
L 197.830274 271.657568 
L 197.830274 271.657568 
L 198.006909 270.487016 
L 198.006909 270.487016 
L 198.183543 270.587744 
L 198.183543 270.587744 
L 198.360178 267.4101 
L 198.360178 267.4101 
L 198.536813 268.800871 
L 198.536813 268.800871 
L 198.890082 266.300521 
L 198.890082 266.300521 
L 199.066717 265.88884 
L 199.066717 265.88884 
L 199.243351 262.958663 
L 199.243351 262.958663 
L 199.419986 263.358674 
L 199.419986 263.358674 
L 199.596621 258.153949 
L 199.773256 260.621355 
L 199.773256 260.621355 
L 200.30316 255.71178 
L 200.30316 255.71178 
L 200.479794 250.858936 
L 200.479794 250.858936 
L 200.656429 252.442397 
L 200.833064 245.429023 
L 200.833064 245.429023 
L 201.009698 247.737965 
L 201.009698 247.737965 
L 201.186333 245.846566 
L 201.186333 245.846566 
L 201.362968 241.957065 
L 201.362968 241.957065 
L 201.539602 241.072618 
L 201.539602 241.072618 
L 201.716237 235.721323 
L 201.716237 235.721323 
L 201.892872 236.214301 
L 201.892872 236.214301 
L 202.069506 229.608978 
L 202.069506 229.608978 
L 202.246141 231.354924 
L 202.246141 231.354924 
L 202.422776 222.333675 
L 202.422776 222.333675 
L 202.59941 225.544765 
L 202.59941 225.544765 
L 203.129314 216.110831 
L 203.129314 216.110831 
L 203.305949 210.433563 
L 203.305949 210.433563 
L 203.482584 209.186683 
L 203.482584 209.186683 
L 203.659219 202.683819 
L 203.659219 202.683819 
L 203.835853 201.56955 
L 203.835853 201.56955 
L 204.012488 193.817126 
L 204.012488 193.817126 
L 204.189123 193.548497 
L 204.189123 193.548497 
L 204.365757 184.911012 
L 204.365757 184.911012 
L 204.542392 184.703133 
L 204.542392 184.703133 
L 204.719027 175.666307 
L 204.719027 175.666307 
L 204.895661 175.473337 
L 204.895661 175.473337 
L 205.072296 166.749752 
L 205.072296 166.749752 
L 205.248931 165.467136 
L 205.248931 165.467136 
L 205.425565 157.483438 
L 205.425565 157.483438 
L 205.6022 154.943723 
L 205.6022 154.943723 
L 205.778835 148.272179 
L 205.778835 148.272179 
L 205.955469 134.996483 
L 205.955469 134.996483 
L 206.132104 138.567829 
L 206.132104 138.567829 
L 206.308739 126.29272 
L 206.308739 126.29272 
L 206.485373 127.265723 
L 206.485373 127.265723 
L 206.662008 117.722797 
L 206.662008 117.722797 
L 206.838643 115.760262 
L 206.838643 115.760262 
L 207.015277 110.555649 
L 207.015277 110.555649 
L 207.191912 98.205607 
L 207.191912 98.205607 
L 207.368547 98.957052 
L 207.368547 98.957052 
L 207.721816 80.7112 
L 207.721816 80.7112 
L 207.898451 82.831193 
L 207.898451 82.831193 
L 208.075086 74.479757 
L 208.075086 74.479757 
L 208.25172 72.830743 
L 208.25172 72.830743 
L 208.781624 53.568 
L 208.781624 53.568 
L 214.787203 53.568112 
L 214.787203 53.568112 
L 214.963838 58.393094 
L 214.963838 58.393094 
L 215.140473 57.660299 
L 215.140473 57.660299 
L 216.55355 93.429091 
L 216.55355 93.429091 
L 216.730185 92.198347 
L 216.730185 92.198347 
L 217.789993 119.972776 
L 217.789993 119.972776 
L 217.966628 119.99271 
L 217.966628 119.99271 
L 218.143262 123.87244 
L 218.143262 123.87244 
L 218.319897 130.909601 
L 218.319897 130.909601 
L 218.496532 131.409001 
L 218.496532 131.409001 
L 218.673166 135.173763 
L 218.673166 135.173763 
L 218.849801 141.454789 
L 218.849801 141.454789 
L 219.026436 142.106175 
L 219.026436 142.106175 
L 219.203071 145.900587 
L 219.203071 145.900587 
L 219.379705 152.356381 
L 219.379705 152.356381 
L 219.55634 152.456049 
L 219.55634 152.456049 
L 219.732975 156.225111 
L 219.732975 156.225111 
L 219.909609 162.487655 
L 219.909609 162.487655 
L 220.086244 161.688749 
L 220.086244 161.688749 
L 220.262879 166.579842 
L 220.262879 166.579842 
L 220.439513 167.755419 
L 220.439513 167.755419 
L 220.616148 170.777783 
L 220.616148 170.777783 
L 220.792783 176.639254 
L 220.792783 176.639254 
L 220.969417 176.34388 
L 220.969417 176.34388 
L 221.146052 179.476018 
L 221.146052 179.476018 
L 221.322687 180.374424 
L 221.322687 180.374424 
L 221.499321 183.225202 
L 221.499321 183.225202 
L 221.675956 188.050632 
L 221.675956 188.050632 
L 221.852591 187.357871 
L 221.852591 187.357871 
L 222.029225 190.773154 
L 222.20586 191.078188 
L 222.20586 191.078188 
L 222.382495 193.309295 
L 222.382495 193.309295 
L 222.559129 193.940692 
L 222.559129 193.940692 
L 222.735764 195.65749 
L 222.735764 195.65749 
L 222.912399 198.783765 
L 222.912399 198.783765 
L 223.089034 198.221717 
L 223.089034 198.221717 
L 223.265668 200.468402 
L 223.265668 200.468402 
L 223.442303 200.387886 
L 223.442303 200.387886 
L 223.618938 201.864533 
L 223.618938 201.864533 
L 223.795572 202.134055 
L 223.795572 202.134055 
L 224.148842 203.476974 
L 224.148842 203.476974 
L 224.85538 204.93553 
L 224.85538 204.93553 
L 225.385284 205.264852 
L 225.385284 205.264852 
L 225.561919 205.13252 
L 225.738554 205.347211 
L 225.738554 205.347211 
L 225.915188 205.163454 
L 225.915188 205.163454 
L 226.091823 205.380936 
L 226.091823 205.380936 
L 226.268458 205.191316 
L 226.268458 205.191316 
L 226.445092 205.409859 
L 226.445092 205.409859 
L 226.621727 205.178194 
L 226.621727 205.178194 
L 226.798362 205.375632 
L 226.798362 205.375632 
L 226.974997 205.064512 
L 226.974997 205.064512 
L 227.151631 204.346457 
L 227.151631 204.346457 
L 227.328266 204.753894 
L 227.328266 204.753894 
L 227.504901 203.726618 
L 227.504901 203.726618 
L 227.681535 204.150025 
L 227.681535 204.150025 
L 227.85817 202.804426 
L 227.85817 202.804426 
L 228.034805 203.168534 
L 228.034805 203.168534 
L 228.211439 201.546992 
L 228.211439 201.546992 
L 228.388074 201.749287 
L 228.388074 201.749287 
L 228.564709 199.90345 
L 228.564709 199.90345 
L 228.741343 199.811153 
L 228.741343 199.811153 
L 228.917978 197.671673 
L 228.917978 197.671673 
L 229.094613 197.267139 
L 229.094613 197.267139 
L 229.624517 191.603942 
L 229.624517 191.603942 
L 229.801151 185.432858 
L 229.801151 185.432858 
L 229.977786 187.067187 
L 229.977786 187.067187 
L 230.154421 180.786328 
L 230.154421 180.786328 
L 230.331055 181.715165 
L 230.331055 181.715165 
L 230.50769 175.130948 
L 230.50769 175.130948 
L 230.684325 174.989515 
L 230.684325 174.989515 
L 230.86096 168.932449 
L 230.86096 168.932449 
L 231.037594 167.274557 
L 231.037594 167.274557 
L 231.214229 162.352531 
L 231.214229 162.352531 
L 231.390864 149.714765 
L 231.390864 149.714765 
L 231.567498 153.247137 
L 231.567498 153.247137 
L 231.744133 141.36774 
L 231.744133 141.36774 
L 231.920768 142.443259 
L 231.920768 142.443259 
L 232.097402 133.053045 
L 232.097402 133.053045 
L 232.274037 130.527234 
L 232.274037 130.527234 
L 232.450672 124.070491 
L 232.450672 124.070491 
L 232.627306 107.876734 
L 232.627306 107.876734 
L 232.803941 109.753895 
L 232.980576 99.822068 
L 232.980576 99.822068 
L 233.15721 96.686022 
L 233.15721 96.686022 
L 233.333845 90.544531 
L 233.333845 90.544531 
L 233.51048 80.193877 
L 233.51048 80.193877 
L 233.687114 79.070562 
L 233.687114 79.070562 
L 234.570288 55.38871 
L 234.570288 55.38871 
L 234.746923 53.568 
L 234.746923 53.568 
L 241.105771 53.568 
L 241.105771 53.568 
L 241.45904 58.432403 
L 241.45904 58.432403 
L 241.81231 66.576184 
L 241.81231 66.576184 
L 241.988945 66.283657 
L 241.988945 66.283657 
L 242.342214 71.999843 
L 242.342214 71.999843 
L 242.518849 76.201972 
L 242.518849 76.201972 
L 242.695483 77.306358 
L 242.695483 77.306358 
L 243.225387 86.458877 
L 243.225387 86.458877 
L 243.402022 90.636605 
L 243.402022 90.636605 
L 243.578657 90.2266 
L 243.578657 90.2266 
L 244.638465 109.518043 
L 244.638465 109.518043 
L 244.815099 109.608553 
L 244.815099 109.608553 
L 244.991734 112.125598 
L 244.991734 112.125598 
L 245.168369 116.394004 
L 245.168369 116.394004 
L 245.345003 116.951306 
L 245.345003 116.951306 
L 245.698273 123.012281 
L 245.698273 123.012281 
L 245.874908 127.495546 
L 245.874908 127.495546 
L 246.051542 126.469889 
L 246.051542 126.469889 
L 246.404812 132.993523 
L 246.404812 132.993523 
L 246.581446 132.264524 
L 246.581446 132.264524 
L 246.934716 137.282366 
L 246.934716 137.282366 
L 247.11135 136.988834 
L 247.11135 136.988834 
L 247.46462 140.86901 
L 247.46462 140.86901 
L 247.641254 140.61691 
L 247.641254 140.61691 
L 247.994524 142.620484 
L 247.994524 142.620484 
L 248.877697 145.316372 
L 248.877697 145.316372 
L 249.054332 145.598569 
L 249.054332 145.598569 
L 249.230966 146.093725 
L 249.230966 146.093725 
L 249.407601 145.694942 
L 249.407601 145.694942 
L 249.584236 145.963236 
L 249.584236 145.963236 
L 249.937505 145.690308 
L 249.937505 145.690308 
L 250.11414 145.969434 
L 250.11414 145.969434 
L 250.290775 145.812478 
L 250.290775 145.812478 
L 250.644044 146.348227 
L 250.644044 146.348227 
L 250.997313 145.86703 
L 250.997313 145.86703 
L 251.173948 146.286528 
L 251.173948 146.286528 
L 251.350583 144.745837 
L 251.350583 144.745837 
L 251.527217 145.018876 
L 251.527217 145.018876 
L 251.703852 144.339181 
L 251.703852 144.339181 
L 251.880487 142.768562 
L 251.880487 142.768562 
L 252.057121 143.672328 
L 252.057121 143.672328 
L 252.410391 139.492981 
L 252.410391 139.492981 
L 252.587025 140.377707 
L 252.587025 140.377707 
L 252.76366 138.165752 
L 252.76366 138.165752 
L 252.940295 138.002486 
L 252.940295 138.002486 
L 253.116929 136.41908 
L 253.116929 136.41908 
L 253.293564 133.181636 
L 253.293564 133.181636 
L 253.470199 133.339094 
L 253.470199 133.339094 
L 253.646834 131.764789 
L 253.646834 131.764789 
L 253.823468 127.155782 
L 253.823468 127.155782 
L 254.000103 127.741337 
L 254.000103 127.741337 
L 254.176738 125.432618 
L 254.176738 125.432618 
L 254.353372 120.313434 
L 254.530007 121.196652 
L 254.530007 121.196652 
L 254.883276 112.838516 
L 254.883276 112.838516 
L 255.059911 114.0419 
L 255.059911 114.0419 
L 255.41318 104.616955 
L 255.41318 104.616955 
L 255.589815 106.359104 
L 255.589815 106.359104 
L 255.943084 96.114426 
L 255.943084 96.114426 
L 256.119719 97.936253 
L 256.119719 97.936253 
L 256.472988 87.261468 
L 256.472988 87.261468 
L 256.649623 88.743196 
L 256.649623 88.743196 
L 256.826258 84.837447 
L 256.826258 84.837447 
L 257.002892 77.95043 
L 257.002892 77.95043 
L 257.179527 78.307168 
L 257.179527 78.307168 
L 257.356162 74.997415 
L 257.356162 74.997415 
L 257.532797 68.869269 
L 257.532797 68.869269 
L 257.709431 67.436119 
L 257.709431 67.436119 
L 258.062701 59.36794 
L 258.062701 59.36794 
L 258.239335 53.568 
L 258.239335 53.568 
L 276.079438 53.568 
L 276.079438 53.568 
L 276.256073 60.193368 
L 276.256073 60.193368 
L 276.432707 59.329413 
L 276.432707 59.329413 
L 276.785977 73.975946 
L 276.785977 73.975946 
L 276.962612 85.038793 
L 276.962612 85.038793 
L 277.139246 86.585905 
L 277.139246 86.585905 
L 278.199054 129.493145 
L 278.199054 129.493145 
L 278.375689 143.0679 
L 278.552324 140.642259 
L 278.552324 140.642259 
L 278.728958 148.393958 
L 278.728958 148.393958 
L 278.905593 162.437402 
L 278.905593 162.437402 
L 279.082228 160.308252 
L 279.082228 160.308252 
L 279.435497 172.56996 
L 279.435497 172.56996 
L 279.612132 178.722619 
L 279.612132 178.722619 
L 279.788766 190.92676 
L 279.788766 190.92676 
L 279.965401 190.168558 
L 279.965401 190.168558 
L 280.142036 198.476665 
L 280.142036 198.476665 
L 280.31867 200.655677 
L 280.31867 200.655677 
L 280.495305 206.062083 
L 280.495305 206.062083 
L 280.67194 219.588037 
L 280.848575 215.399086 
L 280.848575 215.399086 
L 281.025209 227.161506 
L 281.025209 227.161506 
L 281.201844 223.805688 
L 281.201844 223.805688 
L 281.378479 234.135628 
L 281.378479 234.135628 
L 281.555113 232.13049 
L 281.555113 232.13049 
L 281.731748 241.565653 
L 281.731748 241.565653 
L 281.908383 239.150844 
L 281.908383 239.150844 
L 282.085017 248.099896 
L 282.085017 248.099896 
L 282.261652 246.217934 
L 282.261652 246.217934 
L 282.438287 254.884119 
L 282.438287 254.884119 
L 282.614921 251.902293 
L 282.614921 251.902293 
L 282.791556 254.492316 
L 282.791556 254.492316 
L 282.968191 259.012041 
L 282.968191 259.012041 
L 283.144825 260.248704 
L 283.144825 260.248704 
L 283.32146 264.813712 
L 283.32146 264.813712 
L 283.498095 264.670604 
L 283.498095 264.670604 
L 283.674729 270.838226 
L 283.674729 270.838226 
L 283.851364 269.673872 
L 283.851364 269.673872 
L 284.027999 271.44271 
L 284.027999 271.44271 
L 284.204633 274.664241 
L 284.204633 274.664241 
L 284.381268 275.679234 
L 284.381268 275.679234 
L 284.557903 279.323781 
L 284.557903 279.323781 
L 284.734538 279.222215 
L 284.734538 279.222215 
L 284.911172 284.043512 
L 284.911172 284.043512 
L 285.087807 282.562231 
L 285.087807 282.562231 
L 285.264442 283.995381 
L 285.264442 283.995381 
L 285.441076 286.562064 
L 285.441076 286.562064 
L 285.617711 286.742918 
L 285.617711 286.742918 
L 285.794346 289.423563 
L 285.794346 289.423563 
L 285.97098 289.018973 
L 285.97098 289.018973 
L 286.147615 289.797052 
L 286.147615 289.797052 
L 286.32425 291.577393 
L 286.32425 291.577393 
L 286.500884 291.891807 
L 286.500884 291.891807 
L 286.677519 293.511897 
L 286.677519 293.511897 
L 286.854154 293.145444 
L 286.854154 293.145444 
L 287.207423 294.407009 
L 287.207423 294.407009 
L 287.384058 294.566031 
L 287.384058 294.566031 
L 287.560692 295.025955 
L 287.560692 295.025955 
L 287.737327 294.986311 
L 287.737327 294.986311 
L 287.913962 295.291735 
L 287.913962 295.291735 
L 288.090596 295.214625 
L 288.090596 295.214625 
L 288.267231 295.338861 
L 288.267231 295.338861 
L 288.443866 295.170459 
L 288.443866 295.170459 
L 288.797135 295.438138 
L 288.797135 295.438138 
L 288.97377 295.236346 
L 288.97377 295.236346 
L 289.327039 295.488 
L 289.327039 295.488 
L 289.503674 295.233666 
L 289.503674 295.233666 
L 289.680309 295.351871 
L 289.680309 295.351871 
L 289.856943 294.776869 
L 289.856943 294.776869 
L 290.033578 295.004625 
L 290.033578 295.004625 
L 290.386847 294.158593 
L 290.386847 294.158593 
L 290.563482 294.226881 
L 290.563482 294.226881 
L 290.740117 292.539006 
L 290.916751 293.090612 
L 290.916751 293.090612 
L 291.093386 292.688982 
L 291.093386 292.688982 
L 291.270021 290.955488 
L 291.270021 290.955488 
L 291.446655 290.960848 
L 291.446655 290.960848 
L 291.62329 287.878796 
L 291.62329 287.878796 
L 291.799925 288.731696 
L 291.799925 288.731696 
L 291.97656 287.973327 
L 291.97656 287.973327 
L 292.153194 285.4598 
L 292.153194 285.4598 
L 292.329829 285.314458 
L 292.329829 285.314458 
L 292.506464 281.178719 
L 292.506464 281.178719 
L 292.683098 282.305775 
L 292.683098 282.305775 
L 293.213002 277.543161 
L 293.213002 277.543161 
L 293.389637 273.207919 
L 293.389637 273.207919 
L 293.566272 274.150212 
L 293.566272 274.150212 
L 293.742906 272.58177 
L 293.742906 272.58177 
L 293.919541 269.300773 
L 293.919541 269.300773 
L 294.096176 268.567699 
L 294.096176 268.567699 
L 294.27281 262.820803 
L 294.27281 262.820803 
L 294.449445 264.685345 
L 294.449445 264.685345 
L 294.979349 257.891853 
L 294.979349 257.891853 
L 295.155984 251.957571 
L 295.155984 251.957571 
L 295.332618 253.447339 
L 295.332618 253.447339 
L 295.862523 245.034316 
L 295.862523 245.034316 
L 296.039157 239.278877 
L 296.039157 239.278877 
L 296.215792 239.732603 
L 296.215792 239.732603 
L 296.392427 230.667076 
L 296.392427 230.667076 
L 296.569061 233.611548 
L 296.569061 233.611548 
L 297.628869 210.612965 
L 297.628869 210.612965 
L 297.805504 210.942511 
L 297.805504 210.942511 
L 297.982139 203.00968 
L 297.982139 203.00968 
L 298.158773 204.481804 
L 298.158773 204.481804 
L 298.335408 196.430935 
L 298.335408 196.430935 
L 298.512043 198.237909 
L 298.512043 198.237909 
L 298.688677 190.512175 
L 298.688677 190.512175 
L 298.865312 192.382412 
L 299.041947 185.313089 
L 299.041947 185.313089 
L 299.218581 186.31697 
L 299.218581 186.31697 
L 299.395216 180.800734 
L 299.395216 180.800734 
L 299.571851 181.757657 
L 299.571851 181.757657 
L 299.748486 176.82424 
L 299.748486 176.82424 
L 299.92512 177.24519 
L 299.92512 177.24519 
L 300.101755 173.123242 
L 300.101755 173.123242 
L 300.27839 173.16283 
L 300.27839 173.16283 
L 300.455024 169.749836 
L 300.455024 169.749836 
L 300.631659 169.157971 
L 300.631659 169.157971 
L 300.984928 164.891743 
L 300.984928 164.891743 
L 301.161563 162.481792 
L 301.161563 162.481792 
L 301.338198 156.674035 
L 301.338198 156.674035 
L 301.514832 157.704605 
L 301.514832 157.704605 
L 301.691467 152.602061 
L 301.691467 152.602061 
L 301.868102 151.817896 
L 301.868102 151.817896 
L 302.044736 148.096908 
L 302.044736 148.096908 
L 302.221371 138.819204 
L 302.221371 138.819204 
L 302.398006 141.371146 
L 302.398006 141.371146 
L 302.57464 136.333204 
L 302.57464 136.333204 
L 302.751275 136.93579 
L 302.751275 136.93579 
L 302.92791 142.79285 
L 302.92791 142.79285 
L 303.104544 156.90704 
L 303.104544 156.90704 
L 303.281179 152.998498 
L 303.281179 152.998498 
L 303.457814 166.230976 
L 303.457814 166.230976 
L 303.634449 166.7129 
L 303.634449 166.7129 
L 303.987718 187.001077 
L 303.987718 187.001077 
L 304.164353 183.381265 
L 304.164353 183.381265 
L 304.340987 192.729825 
L 304.340987 192.729825 
L 304.517622 192.125844 
L 304.517622 192.125844 
L 304.694257 199.182604 
L 304.694257 199.182604 
L 304.870891 200.732564 
L 304.870891 200.732564 
L 305.047526 204.899906 
L 305.047526 204.899906 
L 305.224161 214.012614 
L 305.224161 214.012614 
L 305.400795 210.963561 
L 305.400795 210.963561 
L 305.57743 219.155138 
L 305.57743 219.155138 
L 305.754065 217.215664 
L 305.754065 217.215664 
L 305.930699 223.361901 
L 305.930699 223.361901 
L 306.107334 222.657526 
L 306.107334 222.657526 
L 306.283969 227.773192 
L 306.283969 227.773192 
L 306.460603 227.550071 
L 306.637238 231.922444 
L 306.637238 231.922444 
L 306.813873 231.961027 
L 306.813873 231.961027 
L 306.990507 235.834615 
L 306.990507 235.834615 
L 307.167142 236.335634 
L 307.167142 236.335634 
L 307.343777 239.559287 
L 307.343777 239.559287 
L 307.520412 239.338845 
L 307.520412 239.338845 
L 307.697046 243.179825 
L 307.697046 243.179825 
L 307.873681 243.059441 
L 307.873681 243.059441 
L 308.050316 246.418721 
L 308.050316 246.418721 
L 308.22695 246.144174 
L 308.22695 246.144174 
L 308.403585 248.786013 
L 308.403585 248.786013 
L 308.58022 248.467243 
L 308.58022 248.467243 
L 308.756854 251.031861 
L 308.756854 251.031861 
L 308.933489 251.041129 
L 308.933489 251.041129 
L 309.463393 253.488155 
L 309.463393 253.488155 
L 309.640028 254.978259 
L 309.640028 254.978259 
L 309.816662 255.314114 
L 309.816662 255.314114 
L 309.993297 257.026111 
L 309.993297 257.026111 
L 310.169932 257.181727 
L 310.169932 257.181727 
L 310.346566 257.940542 
L 310.346566 257.940542 
L 310.523201 257.956958 
L 310.523201 257.956958 
L 310.699836 259.383129 
L 310.699836 259.383129 
L 310.87647 259.458676 
L 310.87647 259.458676 
L 311.053105 259.723842 
L 311.053105 259.723842 
L 311.22974 260.341057 
L 311.22974 260.341057 
L 311.406375 260.258977 
L 311.406375 260.258977 
L 311.583009 260.72119 
L 311.583009 260.72119 
L 311.936279 260.939845 
L 311.936279 260.939845 
L 312.112913 261.105288 
L 312.112913 261.105288 
L 312.289548 260.827168 
L 312.289548 260.827168 
L 312.466183 261.616135 
L 312.466183 261.616135 
L 312.642817 261.100095 
L 312.642817 261.100095 
L 312.819452 261.625962 
L 312.819452 261.625962 
L 312.996087 261.516132 
L 312.996087 261.516132 
L 313.349356 261.702793 
L 313.349356 261.702793 
L 313.525991 261.076868 
L 313.702625 261.693356 
L 313.87926 261.180779 
L 313.87926 261.180779 
L 314.055895 261.624063 
L 314.055895 261.624063 
L 314.232529 261.5407 
L 314.232529 261.5407 
L 314.585799 260.802041 
L 314.585799 260.802041 
L 314.762433 260.539331 
L 314.762433 260.539331 
L 314.939068 261.118856 
L 314.939068 261.118856 
L 315.115703 259.825911 
L 315.292338 260.558986 
L 315.292338 260.558986 
L 315.645607 259.49536 
L 315.645607 259.49536 
L 315.822242 258.834872 
L 315.822242 258.834872 
L 315.998876 257.698213 
L 315.998876 257.698213 
L 316.175511 257.91966 
L 316.175511 257.91966 
L 316.352146 255.017568 
L 316.352146 255.017568 
L 316.52878 256.621354 
L 316.52878 256.621354 
L 316.705415 252.69126 
L 316.705415 252.69126 
L 316.88205 254.327431 
L 317.058684 253.376985 
L 317.058684 253.376985 
L 317.235319 251.598376 
L 317.235319 251.598376 
L 317.411954 251.399599 
L 317.411954 251.399599 
L 317.588588 247.749021 
L 317.765223 248.267852 
L 317.765223 248.267852 
L 317.941858 244.21503 
L 317.941858 244.21503 
L 318.118492 245.84746 
L 318.825031 237.891792 
L 318.825031 237.891792 
L 319.001666 237.577433 
L 319.001666 237.577433 
L 319.178301 233.193278 
L 319.178301 233.193278 
L 319.354935 233.567381 
L 319.354935 233.567381 
L 319.53157 228.676624 
L 319.53157 228.676624 
L 319.708205 230.035121 
L 319.708205 230.035121 
L 319.884839 223.973364 
L 319.884839 223.973364 
L 320.061474 226.396157 
L 320.061474 226.396157 
L 320.238109 219.19668 
L 320.238109 219.19668 
L 320.414743 221.775815 
L 320.414743 221.775815 
L 321.651186 205.850352 
L 321.651186 205.850352 
L 321.827821 202.04723 
L 321.827821 202.04723 
L 322.004455 201.021852 
L 322.004455 201.021852 
L 322.534359 192.401955 
L 322.534359 192.401955 
L 322.710994 191.014702 
L 322.710994 191.014702 
L 323.240898 182.562649 
L 323.240898 182.562649 
L 323.417533 174.966957 
L 323.417533 174.966957 
L 323.594168 177.055514 
L 323.594168 177.055514 
L 323.770802 170.193511 
L 323.947437 171.674123 
L 323.947437 171.674123 
L 324.124072 165.021562 
L 324.124072 165.021562 
L 324.300706 165.58428 
L 324.300706 165.58428 
L 324.477341 159.938393 
L 324.477341 159.938393 
L 324.653976 158.753602 
L 324.653976 158.753602 
L 325.18388 148.289488 
L 325.18388 148.289488 
L 325.360514 139.112512 
L 325.360514 139.112512 
L 325.537149 140.248111 
L 325.537149 140.248111 
L 325.713784 133.66127 
L 325.713784 133.66127 
L 325.890418 131.940004 
L 325.890418 131.940004 
L 326.067053 127.265053 
L 326.067053 127.265053 
L 326.243688 117.097988 
L 326.243688 117.097988 
L 326.420322 118.278535 
L 326.420322 118.278535 
L 326.596957 113.364382 
L 326.596957 113.364382 
L 326.773592 113.016075 
L 326.773592 113.016075 
L 326.950227 115.124677 
L 326.950227 115.124677 
L 327.126861 124.143413 
L 327.126861 124.143413 
L 327.303496 125.228815 
L 327.303496 125.228815 
L 327.480131 130.269884 
L 327.480131 130.269884 
L 327.656765 139.950336 
L 327.656765 139.950336 
L 327.8334 139.909464 
L 327.8334 139.909464 
L 328.010035 145.177451 
L 328.186669 154.018795 
L 328.186669 154.018795 
L 328.363304 153.328379 
L 328.363304 153.328379 
L 328.716573 160.890848 
L 328.716573 160.890848 
L 328.893208 164.250128 
L 328.893208 164.250128 
L 329.069843 170.816589 
L 329.069843 170.816589 
L 329.246477 171.108445 
L 329.246477 171.108445 
L 329.423112 174.838143 
L 329.423112 174.838143 
L 329.599747 181.961348 
L 329.599747 181.961348 
L 329.776381 180.309542 
L 329.776381 180.309542 
L 329.953016 185.603717 
L 329.953016 185.603717 
L 330.129651 185.556256 
L 330.129651 185.556256 
L 330.306285 189.095385 
L 330.306285 189.095385 
L 330.48292 190.312002 
L 330.48292 190.312002 
L 330.659555 192.42401 
L 330.659555 192.42401 
L 330.83619 196.922685 
L 330.83619 196.922685 
L 331.012824 196.276548 
L 331.012824 196.276548 
L 331.189459 200.002002 
L 331.189459 200.002002 
L 331.366094 199.771621 
L 331.366094 199.771621 
L 331.542728 202.378674 
L 331.542728 202.378674 
L 331.719363 202.76802 
L 331.719363 202.76802 
L 332.072632 205.259045 
L 332.072632 205.259045 
L 332.779171 209.171384 
L 332.779171 209.171384 
L 332.955806 208.956972 
L 332.955806 208.956972 
L 333.13244 209.641804 
L 333.13244 209.641804 
L 333.309075 209.735721 
L 333.309075 209.735721 
L 333.662344 210.156838 
L 333.662344 210.156838 
L 333.838979 210.112449 
L 333.838979 210.112449 
L 334.015614 210.325632 
L 334.015614 210.325632 
L 334.192248 210.155387 
L 334.192248 210.155387 
L 334.368883 210.368681 
L 334.368883 210.368681 
L 334.545518 210.179173 
L 334.545518 210.179173 
L 334.722153 210.392635 
L 334.722153 210.392635 
L 334.898787 210.185147 
L 334.898787 210.185147 
L 335.075422 210.387833 
L 335.075422 210.387833 
L 335.252057 210.1072 
L 335.252057 210.1072 
L 335.428691 210.248578 
L 335.428691 210.248578 
L 335.605326 209.845495 
L 335.781961 208.835863 
L 335.781961 208.835863 
L 335.958595 209.290371 
L 335.958595 209.290371 
L 336.13523 207.886925 
L 336.13523 207.886925 
L 336.311865 208.349138 
L 336.311865 208.349138 
L 336.488499 206.519438 
L 336.488499 206.519438 
L 336.665134 206.930896 
L 336.665134 206.930896 
L 336.841769 204.745519 
L 336.841769 204.745519 
L 337.018403 204.941951 
L 337.018403 204.941951 
L 337.195038 202.430267 
L 337.195038 202.430267 
L 337.371673 202.282133 
L 337.548307 199.355082 
L 337.548307 199.355082 
L 337.724942 198.843901 
L 337.724942 198.843901 
L 338.254846 191.202423 
L 338.254846 191.202423 
L 338.431481 182.915255 
L 338.431481 182.915255 
L 338.608116 185.137875 
L 338.608116 185.137875 
L 338.78475 176.477608 
L 338.78475 176.477608 
L 338.961385 178.06805 
L 338.961385 178.06805 
L 339.13802 168.707596 
L 339.13802 168.707596 
L 339.314654 169.052887 
L 339.314654 169.052887 
L 339.491289 159.37707 
L 339.491289 159.37707 
L 339.667924 158.084795 
L 339.667924 158.084795 
L 339.844558 154.344321 
L 339.844558 154.344321 
L 340.021193 156.23304 
L 340.021193 156.23304 
L 340.197828 161.88211 
L 340.197828 161.88211 
L 340.374462 171.253061 
L 340.374462 171.253061 
L 340.551097 170.75221 
L 340.551097 170.75221 
L 340.727732 177.226708 
L 340.727732 177.226708 
L 340.904366 177.732753 
L 340.904366 177.732753 
L 341.257636 184.551538 
L 341.257636 184.551538 
L 341.43427 184.555949 
L 341.43427 184.555949 
L 341.610905 186.472865 
L 341.610905 186.472865 
L 342.317444 188.184639 
L 342.317444 188.184639 
L 342.494079 187.712934 
L 342.494079 187.712934 
L 342.670713 188.32395 
L 342.670713 188.32395 
L 342.847348 188.166213 
L 342.847348 188.166213 
L 343.023983 188.383974 
L 343.200617 188.224227 
L 343.377252 188.394974 
L 343.377252 188.394974 
L 343.553887 187.900264 
L 343.553887 187.900264 
L 343.730521 186.089158 
L 343.730521 186.089158 
L 343.907156 187.078577 
L 343.907156 187.078577 
L 344.083791 184.983878 
L 344.083791 184.983878 
L 344.260425 185.322861 
L 344.260425 185.322861 
L 344.43706 182.590902 
L 344.43706 182.590902 
L 344.613695 181.988093 
L 344.613695 181.988093 
L 344.790329 179.513596 
L 344.790329 179.513596 
L 344.966964 171.14647 
L 344.966964 171.14647 
L 345.143599 174.259623 
L 345.143599 174.259623 
L 345.320233 165.842803 
L 345.320233 165.842803 
L 345.496868 166.921616 
L 345.496868 166.921616 
L 345.673503 159.458647 
L 345.673503 159.458647 
L 345.850138 157.626267 
L 346.026772 151.235076 
L 346.026772 151.235076 
L 346.380042 146.185297 
L 346.380042 146.185297 
L 346.556676 157.748214 
L 346.556676 157.748214 
L 346.733311 157.386618 
L 346.733311 157.386618 
L 346.909946 164.805364 
L 346.909946 164.805364 
L 347.08658 166.823567 
L 347.08658 166.823567 
L 347.43985 176.333495 
L 347.43985 176.333495 
L 347.616484 176.38894 
L 347.616484 176.38894 
L 347.969754 182.564994 
L 347.969754 182.564994 
L 348.146388 182.591907 
L 348.146388 182.591907 
L 348.323023 184.443048 
L 348.323023 184.443048 
L 348.499658 184.72357 
L 348.499658 184.72357 
L 348.852927 185.935217 
L 348.852927 185.935217 
L 349.382831 186.50257 
L 349.382831 186.50257 
L 349.736101 186.194577 
L 349.736101 186.194577 
L 350.08937 186.666226 
L 350.08937 186.666226 
L 350.266005 186.478114 
L 350.266005 186.478114 
L 350.442639 185.792276 
L 350.442639 185.792276 
L 350.619274 186.482525 
L 350.619274 186.482525 
L 350.795909 185.672061 
L 350.795909 185.672061 
L 350.972543 186.343995 
L 350.972543 186.343995 
L 351.325813 185.572226 
L 351.325813 185.572226 
L 351.502447 185.470827 
L 351.502447 185.470827 
L 351.679082 184.338299 
L 351.679082 184.338299 
L 351.855717 184.900571 
L 351.855717 184.900571 
L 352.032351 183.305997 
L 352.032351 183.305997 
L 352.208986 184.119197 
L 352.208986 184.119197 
L 352.385621 183.027207 
L 352.385621 183.027207 
L 352.562255 183.224309 
L 352.562255 183.224309 
L 352.73889 182.284416 
L 352.73889 182.284416 
L 352.915525 182.234834 
L 352.915525 182.234834 
L 353.092159 181.487409 
L 353.092159 181.487409 
L 353.268794 179.807239 
L 353.268794 179.807239 
L 353.445429 180.419763 
L 353.445429 180.419763 
L 353.622064 178.479507 
L 353.622064 178.479507 
L 353.798698 179.221181 
L 353.798698 179.221181 
L 353.975333 177.913886 
L 353.975333 177.913886 
L 354.328602 176.855062 
L 354.328602 176.855062 
L 354.505237 174.384919 
L 354.505237 174.384919 
L 354.681872 175.475235 
L 354.681872 175.475235 
L 354.858506 172.924465 
L 355.035141 173.376739 
L 355.035141 173.376739 
L 355.211776 171.991496 
L 355.211776 171.991496 
L 355.38841 171.881275 
L 355.38841 171.881275 
L 355.565045 170.528138 
L 355.74168 167.334079 
L 355.74168 167.334079 
L 355.918314 168.456835 
L 355.918314 168.456835 
L 356.094949 165.687243 
L 356.094949 165.687243 
L 356.271584 166.077092 
L 356.271584 166.077092 
L 356.448218 163.425984 
L 356.448218 163.425984 
L 356.801488 161.948276 
L 356.801488 161.948276 
L 356.978122 158.2604 
L 356.978122 158.2604 
L 357.154757 159.171648 
L 357.154757 159.171648 
L 357.331392 156.302891 
L 357.331392 156.302891 
L 357.508027 156.173686 
L 357.508027 156.173686 
L 357.684661 154.283236 
L 357.684661 154.283236 
L 357.861296 150.320478 
L 357.861296 150.320478 
L 358.037931 151.512918 
L 358.037931 151.512918 
L 358.214565 148.362131 
L 358.214565 148.362131 
L 358.3912 148.30501 
L 358.3912 148.30501 
L 358.567835 146.388932 
L 358.567835 146.388932 
L 358.744469 142.489157 
L 358.744469 142.489157 
L 358.921104 143.608116 
L 358.921104 143.608116 
L 359.097739 140.727745 
L 359.097739 140.727745 
L 359.274373 140.467157 
L 359.274373 140.467157 
L 359.451008 139.338761 
L 359.451008 139.338761 
L 359.627643 135.950502 
L 359.627643 135.950502 
L 359.804277 136.755382 
L 359.804277 136.755382 
L 359.980912 134.980905 
L 359.980912 134.980905 
L 360.157547 131.904101 
L 360.157547 131.904101 
L 360.334181 132.673302 
L 360.334181 132.673302 
L 360.510816 130.82674 
L 360.510816 130.82674 
L 360.687451 130.726569 
L 360.687451 130.726569 
L 361.04072 127.918115 
L 361.217355 128.104999 
L 361.39399 127.64541 
L 361.39399 127.64541 
L 361.570624 125.658587 
L 361.570624 125.658587 
L 361.747259 125.989641 
L 361.747259 125.989641 
L 362.100528 123.710793 
L 362.100528 123.710793 
L 362.277163 124.130571 
L 362.277163 124.130571 
L 362.453798 123.632623 
L 362.630432 121.658083 
L 362.630432 121.658083 
L 362.807067 122.157427 
L 362.807067 122.157427 
L 363.160336 119.047792 
L 363.160336 119.047792 
L 363.336971 119.656687 
L 363.336971 119.656687 
L 363.69024 115.538815 
L 363.69024 115.538815 
L 363.866875 116.266474 
L 363.866875 116.266474 
L 364.220144 110.873357 
L 364.220144 110.873357 
L 364.396779 111.688791 
L 364.396779 111.688791 
L 364.750048 104.586468 
L 364.750048 104.586468 
L 364.926683 105.670363 
L 364.926683 105.670363 
L 365.279953 97.334003 
L 365.279953 97.334003 
L 365.456587 97.946862 
L 365.456587 97.946862 
L 366.869665 66.064444 
L 366.869665 66.064444 
L 367.046299 57.616467 
L 367.046299 57.616467 
L 367.222934 58.014357 
L 367.399569 53.568 
L 367.399569 53.568 
L 394.954579 53.568 
L 394.954579 53.568 
L 395.131214 53.68682 
L 395.131214 53.68682 
L 395.484483 53.568 
L 395.484483 53.568 
L 396.720926 53.568 
L 396.720926 53.568 
L 397.074195 53.837243 
L 397.074195 53.837243 
L 397.25083 53.568 
L 397.25083 53.568 
L 397.957369 53.568 
L 397.957369 53.568 
L 398.310638 53.91854 
L 398.310638 53.91854 
L 398.487273 53.568 
L 398.487273 53.568 
" clip-path="url(#pb8f847db25)" style="fill: none; stroke: #ff7f0e; stroke-width: 1.5; stroke-linecap: square"/>
   </g>
   <g id="patch_3">
    <path d="M 57.6 307.584 
L 57.6 41.472 
" style="fill: none; stroke: #000000; stroke-width: 0.8; stroke-linejoin: miter; stroke-linecap: square"/>
   </g>
   <g id="patch_4">
    <path d="M 414.72 307.584 
L 414.72 41.472 
" style="fill: none; stroke: #000000; stroke-width: 0.8; stroke-linejoin: miter; stroke-linecap: square"/>
   </g>
   <g id="patch_5">
    <path d="M 57.6 307.584 
L 414.72 307.584 
" style="fill: none; stroke: #000000; stroke-width: 0.8; stroke-linejoin: miter; stroke-linecap: square"/>
   </g>
   <g id="patch_6">
    <path d="M 57.6 41.472 
L 414.72 41.472 
" style="fill: none; stroke: #000000; stroke-width: 0.8; stroke-linejoin: miter; stroke-linecap: square"/>
   </g>
   <g id="text_16">
    <!-- Actual speed vs Expected speed -->
    <g transform="translate(138.808125 35.472) scale(0.12 -0.12)">
     <defs>
      <path id="DejaVuSans-41" d="M 2188 4044 
L 1331 1722 
L 3047 1722 
L 2188 4044 
z
M 1831 4666 
L 2547 4666 
L 4325 0 
L 3669 0 
L 3244 1197 
L 1141 1197 
L 716 0 
L 50 0 
L 1831 4666 
z
" transform="scale(0.015625)"/>
      <path id="DejaVuSans-75" d="M 544 1381 
L 544 3500 
L 1119 3500 
L 1119 1403 
Q 1119 906 1312 657 
Q 1506 409 1894 409 
Q 2359 409 2629 706 
Q 2900 1003 2900 1516 
L 2900 3500 
L 3475 3500 
L 3475 0 
L 2900 0 
L 2900 538 
Q 2691 219 2414 64 
Q 2138 -91 1772 -91 
Q 1169 -91 856 284 
Q 544 659 544 1381 
z
M 1991 3584 
L 1991 3584 
z
" transform="scale(0.015625)"/>
      <path id="DejaVuSans-61" d="M 2194 1759 
Q 1497 1759 1228 1600 
Q 959 1441 959 1056 
Q 959 750 1161 570 
Q 1363 391 1709 391 
Q 2188 391 2477 730 
Q 2766 1069 2766 1631 
L 2766 1759 
L 2194 1759 
z
M 3341 1997 
L 3341 0 
L 2766 0 
L 2766 531 
Q 2569 213 2275 61 
Q 1981 -91 1556 -91 
Q 1019 -91 701 211 
Q 384 513 384 1019 
Q 384 1609 779 1909 
Q 1175 2209 1959 2209 
L 2766 2209 
L 2766 2266 
Q 2766 2663 2505 2880 
Q 2244 3097 1772 3097 
Q 1472 3097 1187 3025 
Q 903 2953 641 2809 
L 641 3341 
Q 956 3463 1253 3523 
Q 1550 3584 1831 3584 
Q 2591 3584 2966 3190 
Q 3341 2797 3341 1997 
z
" transform="scale(0.015625)"/>
      <path id="DejaVuSans-20" transform="scale(0.015625)"/>
      <path id="DejaVuSans-70" d="M 1159 525 
L 1159 -1331 
L 581 -1331 
L 581 3500 
L 1159 3500 
L 1159 2969 
Q 1341 3281 1617 3432 
Q 1894 3584 2278 3584 
Q 2916 3584 3314 3078 
Q 3713 2572 3713 1747 
Q 3713 922 3314 415 
Q 2916 -91 2278 -91 
Q 1894 -91 1617 61 
Q 1341 213 1159 525 
z
M 3116 1747 
Q 3116 2381 2855 2742 
Q 2594 3103 2138 3103 
Q 1681 3103 1420 2742 
Q 1159 2381 1159 1747 
Q 1159 1113 1420 752 
Q 1681 391 2138 391 
Q 2594 391 2855 752 
Q 3116 1113 3116 1747 
z
" transform="scale(0.015625)"/>
      <path id="DejaVuSans-64" d="M 2906 2969 
L 2906 4863 
L 3481 4863 
L 3481 0 
L 2906 0 
L 2906 525 
Q 2725 213 2448 61 
Q 2172 -91 1784 -91 
Q 1150 -91 751 415 
Q 353 922 353 1747 
Q 353 2572 751 3078 
Q 1150 3584 1784 3584 
Q 2172 3584 2448 3432 
Q 2725 3281 2906 2969 
z
M 947 1747 
Q 947 1113 1208 752 
Q 1469 391 1925 391 
Q 2381 391 2643 752 
Q 2906 1113 2906 1747 
Q 2906 2381 2643 2742 
Q 2381 3103 1925 3103 
Q 1469 3103 1208 2742 
Q 947 2381 947 1747 
z
" transform="scale(0.015625)"/>
      <path id="DejaVuSans-76" d="M 191 3500 
L 800 3500 
L 1894 563 
L 2988 3500 
L 3597 3500 
L 2284 0 
L 1503 0 
L 191 3500 
z
" transform="scale(0.015625)"/>
      <path id="DejaVuSans-45" d="M 628 4666 
L 3578 4666 
L 3578 4134 
L 1259 4134 
L 1259 2753 
L 3481 2753 
L 3481 2222 
L 1259 2222 
L 1259 531 
L 3634 531 
L 3634 0 
L 628 0 
L 628 4666 
z
" transform="scale(0.015625)"/>
      <path id="DejaVuSans-78" d="M 3513 3500 
L 2247 1797 
L 3578 0 
L 2900 0 
L 1881 1375 
L 863 0 
L 184 0 
L 1544 1831 
L 300 3500 
L 978 3500 
L 1906 2253 
L 2834 3500 
L 3513 3500 
z
" transform="scale(0.015625)"/>
     </defs>
     <use xlink:href="#DejaVuSans-41"/>
     <use xlink:href="#DejaVuSans-63" x="66.658203"/>
     <use xlink:href="#DejaVuSans-74" x="121.638672"/>
     <use xlink:href="#DejaVuSans-75" x="160.847656"/>
     <use xlink:href="#DejaVuSans-61" x="224.226562"/>
     <use xlink:href="#DejaVuSans-6c" x="285.505859"/>
     <use xlink:href="#DejaVuSans-20" x="313.289062"/>
     <use xlink:href="#DejaVuSans-73" x="345.076172"/>
     <use xlink:href="#DejaVuSans-70" x="397.175781"/>
     <use xlink:href="#DejaVuSans-65" x="460.652344"/>
     <use xlink:href="#DejaVuSans-65" x="522.175781"/>
     <use xlink:href="#DejaVuSans-64" x="583.699219"/>
     <use xlink:href="#DejaVuSans-20" x="647.175781"/>
     <use xlink:href="#DejaVuSans-76" x="678.962891"/>
     <use xlink:href="#DejaVuSans-73" x="738.142578"/>
     <use xlink:href="#DejaVuSans-20" x="790.242188"/>
     <use xlink:href="#DejaVuSans-45" x="822.029297"/>
     <use xlink:href="#DejaVuSans-78" x="885.212891"/>
     <use xlink:href="#DejaVuSans-70" x="944.392578"/>
     <use xlink:href="#DejaVuSans-65" x="1007.869141"/>
     <use xlink:href="#DejaVuSans-63" x="1069.392578"/>
     <use xlink:href="#DejaVuSans-74" x="1124.373047"/>
     <use xlink:href="#DejaVuSans-65" x="1163.582031"/>
     <use xlink:href="#DejaVuSans-64" x="1225.105469"/>
     <use xlink:href="#DejaVuSans-20" x="1288.582031"/>
     <use xlink:href="#DejaVuSans-73" x="1320.369141"/>
     <use xlink:href="#DejaVuSans-70" x="1372.46875"/>
     <use xlink:href="#DejaVuSans-65" x="1435.945312"/>
     <use xlink:href="#DejaVuSans-65" x="1497.46875"/>
     <use xlink:href="#DejaVuSans-64" x="1558.992188"/>
    </g>
   </g>
   <g id="legend_1">
    <g id="patch_7">
     <path d="M 64.6 302.584 
L 176.65 302.584 
Q 178.65 302.584 178.65 300.584 
L 178.65 272.22775 
Q 178.65 270.22775 176.65 270.22775 
L 64.6 270.22775 
Q 62.6 270.22775 62.6 272.22775 
L 62.6 300.584 
Q 62.6 302.584 64.6 302.584 
z
" style="fill: #ffffff; opacity: 0.8; stroke: #cccccc; stroke-linejoin: miter"/>
    </g>
    <g id="line2d_29">
     <path d="M 66.6 278.326187 
L 76.6 278.326187 
L 86.6 278.326187 
" style="fill: none; stroke: #1f77b4; stroke-width: 1.5; stroke-linecap: square"/>
    </g>
    <g id="text_17">
     <!-- Actual speed -->
     <g transform="translate(94.6 281.826187) scale(0.1 -0.1)">
      <use xlink:href="#DejaVuSans-41"/>
      <use xlink:href="#DejaVuSans-63" x="66.658203"/>
      <use xlink:href="#DejaVuSans-74" x="121.638672"/>
      <use xlink:href="#DejaVuSans-75" x="160.847656"/>
      <use xlink:href="#DejaVuSans-61" x="224.226562"/>
      <use xlink:href="#DejaVuSans-6c" x="285.505859"/>
      <use xlink:href="#DejaVuSans-20" x="313.289062"/>
      <use xlink:href="#DejaVuSans-73" x="345.076172"/>
      <use xlink:href="#DejaVuSans-70" x="397.175781"/>
      <use xlink:href="#DejaVuSans-65" x="460.652344"/>
      <use xlink:href="#DejaVuSans-65" x="522.175781"/>
      <use xlink:href="#DejaVuSans-64" x="583.699219"/>
     </g>
    </g>
    <g id="line2d_30">
     <path d="M 66.6 293.004312 
L 76.6 293.004312 
L 86.6 293.004312 
" style="fill: none; stroke: #ff7f0e; stroke-width: 1.5; stroke-linecap: square"/>
    </g>
    <g id="text_18">
     <!-- Expected speed -->
     <g transform="translate(94.6 296.504312) scale(0.1 -0.1)">
      <use xlink:href="#DejaVuSans-45"/>
      <use xlink:href="#DejaVuSans-78" x="63.183594"/>
      <use xlink:href="#DejaVuSans-70" x="122.363281"/>
      <use xlink:href="#DejaVuSans-65" x="185.839844"/>
      <use xlink:href="#DejaVuSans-63" x="247.363281"/>
      <use xlink:href="#DejaVuSans-74" x="302.34375"/>
      <use xlink:href="#DejaVuSans-65" x="341.552734"/>
      <use xlink:href="#DejaVuSans-64" x="403.076172"/>
      <use xlink:href="#DejaVuSans-20" x="466.552734"/>
      <use xlink:href="#DejaVuSans-73" x="498.339844"/>
      <use xlink:href="#DejaVuSans-70" x="550.439453"/>
      <use xlink:href="#DejaVuSans-65" x="613.916016"/>
      <use xlink:href="#DejaVuSans-65" x="675.439453"/>
      <use xlink:href="#DejaVuSans-64" x="736.962891"/>
     </g>
    </g>
   </g>
  </g>
 </g>
 <defs>
  <clipPath id="pb8f847db25">
   <rect x="57.6" y="41.472" width="357.12" height="266.112"/>
  </clipPath>
 </defs>
</svg>
