<?xml version="1.0" encoding="utf-8" standalone="no"?>
<!DOCTYPE svg PUBLIC "-//W3C//DTD SVG 1.1//EN"
  "http://www.w3.org/Graphics/SVG/1.1/DTD/svg11.dtd">
<svg xmlns:xlink="http://www.w3.org/1999/xlink" width="460.8pt" height="345.6pt" viewBox="0 0 460.8 345.6" xmlns="http://www.w3.org/2000/svg" version="1.1">
 <metadata>
  <rdf:RDF xmlns:dc="http://purl.org/dc/elements/1.1/" xmlns:cc="http://creativecommons.org/ns#" xmlns:rdf="http://www.w3.org/1999/02/22-rdf-syntax-ns#">
   <cc:Work>
    <dc:type rdf:resource="http://purl.org/dc/dcmitype/StillImage"/>
    <dc:date>2024-01-30T20:59:01.145596</dc:date>
    <dc:format>image/svg+xml</dc:format>
    <dc:creator>
     <cc:Agent>
      <dc:title>Matplotlib v3.7.1, https://matplotlib.org/</dc:title>
     </cc:Agent>
    </dc:creator>
   </cc:Work>
  </rdf:RDF>
 </metadata>
 <defs>
  <style type="text/css">*{stroke-linejoin: round; stroke-linecap: butt}</style>
 </defs>
 <g id="figure_1">
  <g id="patch_1">
   <path d="M 0 345.6 
L 460.8 345.6 
L 460.8 0 
L 0 0 
z
" style="fill: #ffffff"/>
  </g>
  <g id="axes_1">
   <g id="patch_2">
    <path d="M 57.6 307.584 
L 414.72 307.584 
L 414.72 41.472 
L 57.6 41.472 
z
" style="fill: #ffffff"/>
   </g>
   <g id="matplotlib.axis_1">
    <g id="xtick_1">
     <g id="line2d_1">
      <path d="M 73.832727 307.584 
L 73.832727 41.472 
" clip-path="url(#pf2314e94a0)" style="fill: none; stroke: #b0b0b0; stroke-width: 0.8; stroke-linecap: square"/>
     </g>
     <g id="line2d_2">
      <defs>
       <path id="m6615709809" d="M 0 0 
L 0 3.5 
" style="stroke: #000000; stroke-width: 0.8"/>
      </defs>
      <g>
       <use xlink:href="#m6615709809" x="73.832727" y="307.584" style="stroke: #000000; stroke-width: 0.8"/>
      </g>
     </g>
     <g id="text_1">
      <!-- 0 -->
      <g transform="translate(70.651477 322.182437) scale(0.1 -0.1)">
       <defs>
        <path id="DejaVuSans-30" d="M 2034 4250 
Q 1547 4250 1301 3770 
Q 1056 3291 1056 2328 
Q 1056 1369 1301 889 
Q 1547 409 2034 409 
Q 2525 409 2770 889 
Q 3016 1369 3016 2328 
Q 3016 3291 2770 3770 
Q 2525 4250 2034 4250 
z
M 2034 4750 
Q 2819 4750 3233 4129 
Q 3647 3509 3647 2328 
Q 3647 1150 3233 529 
Q 2819 -91 2034 -91 
Q 1250 -91 836 529 
Q 422 1150 422 2328 
Q 422 3509 836 4129 
Q 1250 4750 2034 4750 
z
" transform="scale(0.015625)"/>
       </defs>
       <use xlink:href="#DejaVuSans-30"/>
      </g>
     </g>
    </g>
    <g id="xtick_2">
     <g id="line2d_3">
      <path d="M 118.015436 307.584 
L 118.015436 41.472 
" clip-path="url(#pf2314e94a0)" style="fill: none; stroke: #b0b0b0; stroke-width: 0.8; stroke-linecap: square"/>
     </g>
     <g id="line2d_4">
      <g>
       <use xlink:href="#m6615709809" x="118.015436" y="307.584" style="stroke: #000000; stroke-width: 0.8"/>
      </g>
     </g>
     <g id="text_2">
      <!-- 5 -->
      <g transform="translate(114.834186 322.182437) scale(0.1 -0.1)">
       <defs>
        <path id="DejaVuSans-35" d="M 691 4666 
L 3169 4666 
L 3169 4134 
L 1269 4134 
L 1269 2991 
Q 1406 3038 1543 3061 
Q 1681 3084 1819 3084 
Q 2600 3084 3056 2656 
Q 3513 2228 3513 1497 
Q 3513 744 3044 326 
Q 2575 -91 1722 -91 
Q 1428 -91 1123 -41 
Q 819 9 494 109 
L 494 744 
Q 775 591 1075 516 
Q 1375 441 1709 441 
Q 2250 441 2565 725 
Q 2881 1009 2881 1497 
Q 2881 1984 2565 2268 
Q 2250 2553 1709 2553 
Q 1456 2553 1204 2497 
Q 953 2441 691 2322 
L 691 4666 
z
" transform="scale(0.015625)"/>
       </defs>
       <use xlink:href="#DejaVuSans-35"/>
      </g>
     </g>
    </g>
    <g id="xtick_3">
     <g id="line2d_5">
      <path d="M 162.198145 307.584 
L 162.198145 41.472 
" clip-path="url(#pf2314e94a0)" style="fill: none; stroke: #b0b0b0; stroke-width: 0.8; stroke-linecap: square"/>
     </g>
     <g id="line2d_6">
      <g>
       <use xlink:href="#m6615709809" x="162.198145" y="307.584" style="stroke: #000000; stroke-width: 0.8"/>
      </g>
     </g>
     <g id="text_3">
      <!-- 10 -->
      <g transform="translate(155.835645 322.182437) scale(0.1 -0.1)">
       <defs>
        <path id="DejaVuSans-31" d="M 794 531 
L 1825 531 
L 1825 4091 
L 703 3866 
L 703 4441 
L 1819 4666 
L 2450 4666 
L 2450 531 
L 3481 531 
L 3481 0 
L 794 0 
L 794 531 
z
" transform="scale(0.015625)"/>
       </defs>
       <use xlink:href="#DejaVuSans-31"/>
       <use xlink:href="#DejaVuSans-30" x="63.623047"/>
      </g>
     </g>
    </g>
    <g id="xtick_4">
     <g id="line2d_7">
      <path d="M 206.380854 307.584 
L 206.380854 41.472 
" clip-path="url(#pf2314e94a0)" style="fill: none; stroke: #b0b0b0; stroke-width: 0.8; stroke-linecap: square"/>
     </g>
     <g id="line2d_8">
      <g>
       <use xlink:href="#m6615709809" x="206.380854" y="307.584" style="stroke: #000000; stroke-width: 0.8"/>
      </g>
     </g>
     <g id="text_4">
      <!-- 15 -->
      <g transform="translate(200.018354 322.182437) scale(0.1 -0.1)">
       <use xlink:href="#DejaVuSans-31"/>
       <use xlink:href="#DejaVuSans-35" x="63.623047"/>
      </g>
     </g>
    </g>
    <g id="xtick_5">
     <g id="line2d_9">
      <path d="M 250.563563 307.584 
L 250.563563 41.472 
" clip-path="url(#pf2314e94a0)" style="fill: none; stroke: #b0b0b0; stroke-width: 0.8; stroke-linecap: square"/>
     </g>
     <g id="line2d_10">
      <g>
       <use xlink:href="#m6615709809" x="250.563563" y="307.584" style="stroke: #000000; stroke-width: 0.8"/>
      </g>
     </g>
     <g id="text_5">
      <!-- 20 -->
      <g transform="translate(244.201063 322.182437) scale(0.1 -0.1)">
       <defs>
        <path id="DejaVuSans-32" d="M 1228 531 
L 3431 531 
L 3431 0 
L 469 0 
L 469 531 
Q 828 903 1448 1529 
Q 2069 2156 2228 2338 
Q 2531 2678 2651 2914 
Q 2772 3150 2772 3378 
Q 2772 3750 2511 3984 
Q 2250 4219 1831 4219 
Q 1534 4219 1204 4116 
Q 875 4013 500 3803 
L 500 4441 
Q 881 4594 1212 4672 
Q 1544 4750 1819 4750 
Q 2544 4750 2975 4387 
Q 3406 4025 3406 3419 
Q 3406 3131 3298 2873 
Q 3191 2616 2906 2266 
Q 2828 2175 2409 1742 
Q 1991 1309 1228 531 
z
" transform="scale(0.015625)"/>
       </defs>
       <use xlink:href="#DejaVuSans-32"/>
       <use xlink:href="#DejaVuSans-30" x="63.623047"/>
      </g>
     </g>
    </g>
    <g id="xtick_6">
     <g id="line2d_11">
      <path d="M 294.746272 307.584 
L 294.746272 41.472 
" clip-path="url(#pf2314e94a0)" style="fill: none; stroke: #b0b0b0; stroke-width: 0.8; stroke-linecap: square"/>
     </g>
     <g id="line2d_12">
      <g>
       <use xlink:href="#m6615709809" x="294.746272" y="307.584" style="stroke: #000000; stroke-width: 0.8"/>
      </g>
     </g>
     <g id="text_6">
      <!-- 25 -->
      <g transform="translate(288.383772 322.182437) scale(0.1 -0.1)">
       <use xlink:href="#DejaVuSans-32"/>
       <use xlink:href="#DejaVuSans-35" x="63.623047"/>
      </g>
     </g>
    </g>
    <g id="xtick_7">
     <g id="line2d_13">
      <path d="M 338.928981 307.584 
L 338.928981 41.472 
" clip-path="url(#pf2314e94a0)" style="fill: none; stroke: #b0b0b0; stroke-width: 0.8; stroke-linecap: square"/>
     </g>
     <g id="line2d_14">
      <g>
       <use xlink:href="#m6615709809" x="338.928981" y="307.584" style="stroke: #000000; stroke-width: 0.8"/>
      </g>
     </g>
     <g id="text_7">
      <!-- 30 -->
      <g transform="translate(332.566481 322.182437) scale(0.1 -0.1)">
       <defs>
        <path id="DejaVuSans-33" d="M 2597 2516 
Q 3050 2419 3304 2112 
Q 3559 1806 3559 1356 
Q 3559 666 3084 287 
Q 2609 -91 1734 -91 
Q 1441 -91 1130 -33 
Q 819 25 488 141 
L 488 750 
Q 750 597 1062 519 
Q 1375 441 1716 441 
Q 2309 441 2620 675 
Q 2931 909 2931 1356 
Q 2931 1769 2642 2001 
Q 2353 2234 1838 2234 
L 1294 2234 
L 1294 2753 
L 1863 2753 
Q 2328 2753 2575 2939 
Q 2822 3125 2822 3475 
Q 2822 3834 2567 4026 
Q 2313 4219 1838 4219 
Q 1578 4219 1281 4162 
Q 984 4106 628 3988 
L 628 4550 
Q 988 4650 1302 4700 
Q 1616 4750 1894 4750 
Q 2613 4750 3031 4423 
Q 3450 4097 3450 3541 
Q 3450 3153 3228 2886 
Q 3006 2619 2597 2516 
z
" transform="scale(0.015625)"/>
       </defs>
       <use xlink:href="#DejaVuSans-33"/>
       <use xlink:href="#DejaVuSans-30" x="63.623047"/>
      </g>
     </g>
    </g>
    <g id="xtick_8">
     <g id="line2d_15">
      <path d="M 383.11169 307.584 
L 383.11169 41.472 
" clip-path="url(#pf2314e94a0)" style="fill: none; stroke: #b0b0b0; stroke-width: 0.8; stroke-linecap: square"/>
     </g>
     <g id="line2d_16">
      <g>
       <use xlink:href="#m6615709809" x="383.11169" y="307.584" style="stroke: #000000; stroke-width: 0.8"/>
      </g>
     </g>
     <g id="text_8">
      <!-- 35 -->
      <g transform="translate(376.74919 322.182437) scale(0.1 -0.1)">
       <use xlink:href="#DejaVuSans-33"/>
       <use xlink:href="#DejaVuSans-35" x="63.623047"/>
      </g>
     </g>
    </g>
    <g id="text_9">
     <!-- Time(s) -->
     <g transform="translate(217.420156 335.860562) scale(0.1 -0.1)">
      <defs>
       <path id="DejaVuSans-54" d="M -19 4666 
L 3928 4666 
L 3928 4134 
L 2272 4134 
L 2272 0 
L 1638 0 
L 1638 4134 
L -19 4134 
L -19 4666 
z
" transform="scale(0.015625)"/>
       <path id="DejaVuSans-69" d="M 603 3500 
L 1178 3500 
L 1178 0 
L 603 0 
L 603 3500 
z
M 603 4863 
L 1178 4863 
L 1178 4134 
L 603 4134 
L 603 4863 
z
" transform="scale(0.015625)"/>
       <path id="DejaVuSans-6d" d="M 3328 2828 
Q 3544 3216 3844 3400 
Q 4144 3584 4550 3584 
Q 5097 3584 5394 3201 
Q 5691 2819 5691 2113 
L 5691 0 
L 5113 0 
L 5113 2094 
Q 5113 2597 4934 2840 
Q 4756 3084 4391 3084 
Q 3944 3084 3684 2787 
Q 3425 2491 3425 1978 
L 3425 0 
L 2847 0 
L 2847 2094 
Q 2847 2600 2669 2842 
Q 2491 3084 2119 3084 
Q 1678 3084 1418 2786 
Q 1159 2488 1159 1978 
L 1159 0 
L 581 0 
L 581 3500 
L 1159 3500 
L 1159 2956 
Q 1356 3278 1631 3431 
Q 1906 3584 2284 3584 
Q 2666 3584 2933 3390 
Q 3200 3197 3328 2828 
z
" transform="scale(0.015625)"/>
       <path id="DejaVuSans-65" d="M 3597 1894 
L 3597 1613 
L 953 1613 
Q 991 1019 1311 708 
Q 1631 397 2203 397 
Q 2534 397 2845 478 
Q 3156 559 3463 722 
L 3463 178 
Q 3153 47 2828 -22 
Q 2503 -91 2169 -91 
Q 1331 -91 842 396 
Q 353 884 353 1716 
Q 353 2575 817 3079 
Q 1281 3584 2069 3584 
Q 2775 3584 3186 3129 
Q 3597 2675 3597 1894 
z
M 3022 2063 
Q 3016 2534 2758 2815 
Q 2500 3097 2075 3097 
Q 1594 3097 1305 2825 
Q 1016 2553 972 2059 
L 3022 2063 
z
" transform="scale(0.015625)"/>
       <path id="DejaVuSans-28" d="M 1984 4856 
Q 1566 4138 1362 3434 
Q 1159 2731 1159 2009 
Q 1159 1288 1364 580 
Q 1569 -128 1984 -844 
L 1484 -844 
Q 1016 -109 783 600 
Q 550 1309 550 2009 
Q 550 2706 781 3412 
Q 1013 4119 1484 4856 
L 1984 4856 
z
" transform="scale(0.015625)"/>
       <path id="DejaVuSans-73" d="M 2834 3397 
L 2834 2853 
Q 2591 2978 2328 3040 
Q 2066 3103 1784 3103 
Q 1356 3103 1142 2972 
Q 928 2841 928 2578 
Q 928 2378 1081 2264 
Q 1234 2150 1697 2047 
L 1894 2003 
Q 2506 1872 2764 1633 
Q 3022 1394 3022 966 
Q 3022 478 2636 193 
Q 2250 -91 1575 -91 
Q 1294 -91 989 -36 
Q 684 19 347 128 
L 347 722 
Q 666 556 975 473 
Q 1284 391 1588 391 
Q 1994 391 2212 530 
Q 2431 669 2431 922 
Q 2431 1156 2273 1281 
Q 2116 1406 1581 1522 
L 1381 1569 
Q 847 1681 609 1914 
Q 372 2147 372 2553 
Q 372 3047 722 3315 
Q 1072 3584 1716 3584 
Q 2034 3584 2315 3537 
Q 2597 3491 2834 3397 
z
" transform="scale(0.015625)"/>
       <path id="DejaVuSans-29" d="M 513 4856 
L 1013 4856 
Q 1481 4119 1714 3412 
Q 1947 2706 1947 2009 
Q 1947 1309 1714 600 
Q 1481 -109 1013 -844 
L 513 -844 
Q 928 -128 1133 580 
Q 1338 1288 1338 2009 
Q 1338 2731 1133 3434 
Q 928 4138 513 4856 
z
" transform="scale(0.015625)"/>
      </defs>
      <use xlink:href="#DejaVuSans-54"/>
      <use xlink:href="#DejaVuSans-69" x="57.958984"/>
      <use xlink:href="#DejaVuSans-6d" x="85.742188"/>
      <use xlink:href="#DejaVuSans-65" x="183.154297"/>
      <use xlink:href="#DejaVuSans-28" x="244.677734"/>
      <use xlink:href="#DejaVuSans-73" x="283.691406"/>
      <use xlink:href="#DejaVuSans-29" x="335.791016"/>
     </g>
    </g>
   </g>
   <g id="matplotlib.axis_2">
    <g id="ytick_1">
     <g id="line2d_17">
      <path d="M 57.6 276.943428 
L 414.72 276.943428 
" clip-path="url(#pf2314e94a0)" style="fill: none; stroke: #b0b0b0; stroke-width: 0.8; stroke-linecap: square"/>
     </g>
     <g id="line2d_18">
      <defs>
       <path id="md522b76486" d="M 0 0 
L -3.5 0 
" style="stroke: #000000; stroke-width: 0.8"/>
      </defs>
      <g>
       <use xlink:href="#md522b76486" x="57.6" y="276.943428" style="stroke: #000000; stroke-width: 0.8"/>
      </g>
     </g>
     <g id="text_10">
      <!-- 4 -->
      <g transform="translate(44.2375 280.742647) scale(0.1 -0.1)">
       <defs>
        <path id="DejaVuSans-34" d="M 2419 4116 
L 825 1625 
L 2419 1625 
L 2419 4116 
z
M 2253 4666 
L 3047 4666 
L 3047 1625 
L 3713 1625 
L 3713 1100 
L 3047 1100 
L 3047 0 
L 2419 0 
L 2419 1100 
L 313 1100 
L 313 1709 
L 2253 4666 
z
" transform="scale(0.015625)"/>
       </defs>
       <use xlink:href="#DejaVuSans-34"/>
      </g>
     </g>
    </g>
    <g id="ytick_2">
     <g id="line2d_19">
      <path d="M 57.6 221.099571 
L 414.72 221.099571 
" clip-path="url(#pf2314e94a0)" style="fill: none; stroke: #b0b0b0; stroke-width: 0.8; stroke-linecap: square"/>
     </g>
     <g id="line2d_20">
      <g>
       <use xlink:href="#md522b76486" x="57.6" y="221.099571" style="stroke: #000000; stroke-width: 0.8"/>
      </g>
     </g>
     <g id="text_11">
      <!-- 5 -->
      <g transform="translate(44.2375 224.89879) scale(0.1 -0.1)">
       <use xlink:href="#DejaVuSans-35"/>
      </g>
     </g>
    </g>
    <g id="ytick_3">
     <g id="line2d_21">
      <path d="M 57.6 165.255714 
L 414.72 165.255714 
" clip-path="url(#pf2314e94a0)" style="fill: none; stroke: #b0b0b0; stroke-width: 0.8; stroke-linecap: square"/>
     </g>
     <g id="line2d_22">
      <g>
       <use xlink:href="#md522b76486" x="57.6" y="165.255714" style="stroke: #000000; stroke-width: 0.8"/>
      </g>
     </g>
     <g id="text_12">
      <!-- 6 -->
      <g transform="translate(44.2375 169.054933) scale(0.1 -0.1)">
       <defs>
        <path id="DejaVuSans-36" d="M 2113 2584 
Q 1688 2584 1439 2293 
Q 1191 2003 1191 1497 
Q 1191 994 1439 701 
Q 1688 409 2113 409 
Q 2538 409 2786 701 
Q 3034 994 3034 1497 
Q 3034 2003 2786 2293 
Q 2538 2584 2113 2584 
z
M 3366 4563 
L 3366 3988 
Q 3128 4100 2886 4159 
Q 2644 4219 2406 4219 
Q 1781 4219 1451 3797 
Q 1122 3375 1075 2522 
Q 1259 2794 1537 2939 
Q 1816 3084 2150 3084 
Q 2853 3084 3261 2657 
Q 3669 2231 3669 1497 
Q 3669 778 3244 343 
Q 2819 -91 2113 -91 
Q 1303 -91 875 529 
Q 447 1150 447 2328 
Q 447 3434 972 4092 
Q 1497 4750 2381 4750 
Q 2619 4750 2861 4703 
Q 3103 4656 3366 4563 
z
" transform="scale(0.015625)"/>
       </defs>
       <use xlink:href="#DejaVuSans-36"/>
      </g>
     </g>
    </g>
    <g id="ytick_4">
     <g id="line2d_23">
      <path d="M 57.6 109.411857 
L 414.72 109.411857 
" clip-path="url(#pf2314e94a0)" style="fill: none; stroke: #b0b0b0; stroke-width: 0.8; stroke-linecap: square"/>
     </g>
     <g id="line2d_24">
      <g>
       <use xlink:href="#md522b76486" x="57.6" y="109.411857" style="stroke: #000000; stroke-width: 0.8"/>
      </g>
     </g>
     <g id="text_13">
      <!-- 7 -->
      <g transform="translate(44.2375 113.211076) scale(0.1 -0.1)">
       <defs>
        <path id="DejaVuSans-37" d="M 525 4666 
L 3525 4666 
L 3525 4397 
L 1831 0 
L 1172 0 
L 2766 4134 
L 525 4134 
L 525 4666 
z
" transform="scale(0.015625)"/>
       </defs>
       <use xlink:href="#DejaVuSans-37"/>
      </g>
     </g>
    </g>
    <g id="ytick_5">
     <g id="line2d_25">
      <path d="M 57.6 53.568 
L 414.72 53.568 
" clip-path="url(#pf2314e94a0)" style="fill: none; stroke: #b0b0b0; stroke-width: 0.8; stroke-linecap: square"/>
     </g>
     <g id="line2d_26">
      <g>
       <use xlink:href="#md522b76486" x="57.6" y="53.568" style="stroke: #000000; stroke-width: 0.8"/>
      </g>
     </g>
     <g id="text_14">
      <!-- 8 -->
      <g transform="translate(44.2375 57.367219) scale(0.1 -0.1)">
       <defs>
        <path id="DejaVuSans-38" d="M 2034 2216 
Q 1584 2216 1326 1975 
Q 1069 1734 1069 1313 
Q 1069 891 1326 650 
Q 1584 409 2034 409 
Q 2484 409 2743 651 
Q 3003 894 3003 1313 
Q 3003 1734 2745 1975 
Q 2488 2216 2034 2216 
z
M 1403 2484 
Q 997 2584 770 2862 
Q 544 3141 544 3541 
Q 544 4100 942 4425 
Q 1341 4750 2034 4750 
Q 2731 4750 3128 4425 
Q 3525 4100 3525 3541 
Q 3525 3141 3298 2862 
Q 3072 2584 2669 2484 
Q 3125 2378 3379 2068 
Q 3634 1759 3634 1313 
Q 3634 634 3220 271 
Q 2806 -91 2034 -91 
Q 1263 -91 848 271 
Q 434 634 434 1313 
Q 434 1759 690 2068 
Q 947 2378 1403 2484 
z
M 1172 3481 
Q 1172 3119 1398 2916 
Q 1625 2713 2034 2713 
Q 2441 2713 2670 2916 
Q 2900 3119 2900 3481 
Q 2900 3844 2670 4047 
Q 2441 4250 2034 4250 
Q 1625 4250 1398 4047 
Q 1172 3844 1172 3481 
z
" transform="scale(0.015625)"/>
       </defs>
       <use xlink:href="#DejaVuSans-38"/>
      </g>
     </g>
    </g>
    <g id="text_15">
     <!-- Velocity(m/s) -->
     <g transform="translate(38.157812 207.204563) rotate(-90) scale(0.1 -0.1)">
      <defs>
       <path id="DejaVuSans-56" d="M 1831 0 
L 50 4666 
L 709 4666 
L 2188 738 
L 3669 4666 
L 4325 4666 
L 2547 0 
L 1831 0 
z
" transform="scale(0.015625)"/>
       <path id="DejaVuSans-6c" d="M 603 4863 
L 1178 4863 
L 1178 0 
L 603 0 
L 603 4863 
z
" transform="scale(0.015625)"/>
       <path id="DejaVuSans-6f" d="M 1959 3097 
Q 1497 3097 1228 2736 
Q 959 2375 959 1747 
Q 959 1119 1226 758 
Q 1494 397 1959 397 
Q 2419 397 2687 759 
Q 2956 1122 2956 1747 
Q 2956 2369 2687 2733 
Q 2419 3097 1959 3097 
z
M 1959 3584 
Q 2709 3584 3137 3096 
Q 3566 2609 3566 1747 
Q 3566 888 3137 398 
Q 2709 -91 1959 -91 
Q 1206 -91 779 398 
Q 353 888 353 1747 
Q 353 2609 779 3096 
Q 1206 3584 1959 3584 
z
" transform="scale(0.015625)"/>
       <path id="DejaVuSans-63" d="M 3122 3366 
L 3122 2828 
Q 2878 2963 2633 3030 
Q 2388 3097 2138 3097 
Q 1578 3097 1268 2742 
Q 959 2388 959 1747 
Q 959 1106 1268 751 
Q 1578 397 2138 397 
Q 2388 397 2633 464 
Q 2878 531 3122 666 
L 3122 134 
Q 2881 22 2623 -34 
Q 2366 -91 2075 -91 
Q 1284 -91 818 406 
Q 353 903 353 1747 
Q 353 2603 823 3093 
Q 1294 3584 2113 3584 
Q 2378 3584 2631 3529 
Q 2884 3475 3122 3366 
z
" transform="scale(0.015625)"/>
       <path id="DejaVuSans-74" d="M 1172 4494 
L 1172 3500 
L 2356 3500 
L 2356 3053 
L 1172 3053 
L 1172 1153 
Q 1172 725 1289 603 
Q 1406 481 1766 481 
L 2356 481 
L 2356 0 
L 1766 0 
Q 1100 0 847 248 
Q 594 497 594 1153 
L 594 3053 
L 172 3053 
L 172 3500 
L 594 3500 
L 594 4494 
L 1172 4494 
z
" transform="scale(0.015625)"/>
       <path id="DejaVuSans-79" d="M 2059 -325 
Q 1816 -950 1584 -1140 
Q 1353 -1331 966 -1331 
L 506 -1331 
L 506 -850 
L 844 -850 
Q 1081 -850 1212 -737 
Q 1344 -625 1503 -206 
L 1606 56 
L 191 3500 
L 800 3500 
L 1894 763 
L 2988 3500 
L 3597 3500 
L 2059 -325 
z
" transform="scale(0.015625)"/>
       <path id="DejaVuSans-2f" d="M 1625 4666 
L 2156 4666 
L 531 -594 
L 0 -594 
L 1625 4666 
z
" transform="scale(0.015625)"/>
      </defs>
      <use xlink:href="#DejaVuSans-56"/>
      <use xlink:href="#DejaVuSans-65" x="60.658203"/>
      <use xlink:href="#DejaVuSans-6c" x="122.181641"/>
      <use xlink:href="#DejaVuSans-6f" x="149.964844"/>
      <use xlink:href="#DejaVuSans-63" x="211.146484"/>
      <use xlink:href="#DejaVuSans-69" x="266.126953"/>
      <use xlink:href="#DejaVuSans-74" x="293.910156"/>
      <use xlink:href="#DejaVuSans-79" x="333.119141"/>
      <use xlink:href="#DejaVuSans-28" x="392.298828"/>
      <use xlink:href="#DejaVuSans-6d" x="431.3125"/>
      <use xlink:href="#DejaVuSans-2f" x="528.724609"/>
      <use xlink:href="#DejaVuSans-73" x="562.416016"/>
      <use xlink:href="#DejaVuSans-29" x="614.515625"/>
     </g>
    </g>
   </g>
   <g id="line2d_27">
    <path d="M 73.832727 53.764347 
L 76.306959 53.618204 
L 76.306959 53.618204 
L 82.315807 53.569843 
L 82.315807 53.569843 
L 92.389465 53.568 
L 92.389465 53.568 
L 92.566196 54.457537 
L 92.566196 54.457537 
L 92.742927 57.742272 
L 92.742927 57.742272 
L 94.510235 109.062554 
L 94.510235 109.062554 
L 96.277543 150.765629 
L 96.277543 150.765629 
L 96.984467 163.965553 
L 96.984467 163.965553 
L 98.575044 184.476332 
L 98.575044 184.476332 
L 99.458698 192.44525 
L 99.458698 192.44525 
L 100.165622 196.23783 
L 100.165622 196.23783 
L 100.695814 198.121555 
L 100.695814 198.121555 
L 101.226007 199.055543 
L 101.226007 199.055543 
L 101.93293 199.454604 
L 101.93293 199.454604 
L 102.639854 199.38156 
L 102.639854 199.38156 
L 102.993315 199.251555 
L 102.993315 199.251555 
L 103.346777 198.997075 
L 103.346777 198.997075 
L 103.700239 198.558812 
L 103.700239 198.558812 
L 104.0537 197.877573 
L 104.0537 197.877573 
L 105.114085 192.500591 
L 105.114085 192.500591 
L 105.821009 185.954016 
L 105.821009 185.954016 
L 106.17447 180.754841 
L 106.17447 180.754841 
L 106.704663 171.534574 
L 106.704663 171.534574 
L 107.588317 154.037856 
L 107.588317 154.037856 
L 107.941779 150.298607 
L 107.941779 150.298607 
L 108.29524 147.917425 
L 108.29524 147.917425 
L 108.648702 146.509992 
L 108.648702 146.509992 
L 109.178894 145.559418 
L 109.178894 145.559418 
L 109.709087 145.167897 
L 109.709087 145.167897 
L 110.41601 144.777325 
L 110.41601 144.777325 
L 110.769472 144.676471 
L 110.769472 144.676471 
L 112.006588 143.806647 
L 112.006588 143.806647 
L 112.183319 143.589191 
L 112.183319 143.589191 
L 112.890242 141.649845 
L 112.890242 141.649845 
L 113.243704 140.42921 
L 113.243704 140.42921 
L 113.597165 138.828 
L 113.597165 138.828 
L 114.304089 133.709798 
L 114.304089 133.709798 
L 114.65755 130.394739 
L 114.65755 130.394739 
L 115.541205 119.485363 
L 115.541205 119.485363 
L 115.717935 118.410313 
L 115.717935 118.410313 
L 116.071397 119.476372 
L 116.071397 119.476372 
L 116.248128 121.647581 
L 116.248128 121.647581 
L 116.955051 137.087514 
L 116.955051 137.087514 
L 118.192167 157.194932 
L 118.192167 157.194932 
L 118.89909 164.260632 
L 118.89909 164.260632 
L 119.429283 167.623717 
L 119.429283 167.623717 
L 120.136206 170.130324 
L 120.136206 170.130324 
L 120.489668 170.51453 
L 120.489668 170.51453 
L 120.84313 171.009362 
L 120.84313 171.009362 
L 121.01986 171.186778 
L 121.01986 171.186778 
L 121.196591 171.183651 
L 121.196591 171.183651 
L 121.373322 171.330967 
L 121.373322 171.330967 
L 121.726784 171.31427 
L 121.726784 171.31427 
L 122.256976 171.414621 
L 122.256976 171.414621 
L 122.787169 171.331805 
L 122.787169 171.331805 
L 123.14063 171.352914 
L 123.14063 171.352914 
L 123.670823 171.130544 
L 123.670823 171.130544 
L 124.024285 171.0317 
L 124.024285 171.0317 
L 125.791593 169.356943 
L 125.791593 169.356943 
L 126.498516 168.309535 
L 126.498516 168.309535 
L 127.20544 166.981848 
L 127.20544 166.981848 
L 127.558901 166.280002 
L 127.558901 166.280002 
L 128.089094 165.030998 
L 128.089094 165.030998 
L 129.149479 162.178215 
L 129.149479 162.178215 
L 131.44698 153.749031 
L 131.44698 153.749031 
L 134.274673 139.121068 
L 134.274673 139.121068 
L 135.865251 128.042205 
L 135.865251 128.042205 
L 137.986021 108.596537 
L 137.986021 108.596537 
L 139.399867 91.479278 
L 139.399867 91.479278 
L 141.167176 69.198751 
L 141.167176 69.198751 
L 141.874099 64.15365 
L 141.874099 64.15365 
L 142.581022 60.736955 
L 142.581022 60.736955 
L 143.287946 58.423009 
L 143.287946 58.423009 
L 143.994869 56.855975 
L 143.994869 56.855975 
L 144.701792 55.794718 
L 144.701792 55.794718 
L 145.408716 55.076008 
L 145.408716 55.076008 
L 146.29237 54.49445 
L 146.29237 54.49445 
L 147.352755 54.084332 
L 147.352755 54.084332 
L 148.766602 53.804834 
L 148.766602 53.804834 
L 150.710641 53.649085 
L 150.710641 53.649085 
L 150.887372 54.893286 
L 150.887372 54.893286 
L 151.947757 80.144482 
L 151.947757 80.144482 
L 153.008142 112.233033 
L 153.008142 112.233033 
L 153.361603 122.905911 
L 153.361603 122.905911 
L 155.305643 171.913363 
L 155.305643 171.913363 
L 156.366028 194.146757 
L 156.366028 194.146757 
L 159.01699 230.30638 
L 159.01699 230.30638 
L 160.784299 241.790781 
L 160.784299 241.790781 
L 161.491222 244.587832 
L 161.491222 244.587832 
L 162.021414 245.851411 
L 162.021414 245.851411 
L 162.728338 246.885584 
L 162.728338 246.885584 
L 162.905069 247.052333 
L 162.905069 247.052333 
L 163.435261 247.098851 
L 163.435261 247.098851 
L 163.965454 247.381924 
L 163.965454 247.381924 
L 165.202569 247.319546 
L 165.202569 247.319546 
L 165.909493 246.795452 
L 165.909493 246.795452 
L 166.616416 245.820083 
L 166.616416 245.820083 
L 167.50007 243.587222 
L 167.50007 243.587222 
L 167.676801 243.149574 
L 167.676801 243.149574 
L 168.206994 241.223966 
L 168.206994 241.223966 
L 168.913917 238.269547 
L 168.913917 238.269547 
L 169.797571 233.338422 
L 169.797571 233.338422 
L 170.504494 228.599122 
L 170.504494 228.599122 
L 171.211418 223.231689 
L 171.211418 223.231689 
L 172.095072 215.87024 
L 172.095072 215.87024 
L 174.215842 194.865076 
L 174.215842 194.865076 
L 175.629689 179.851511 
L 175.629689 179.851511 
L 176.690074 168.08052 
L 176.690074 168.08052 
L 178.810844 146.150302 
L 178.810844 146.150302 
L 180.578152 123.257727 
L 180.578152 123.257727 
L 181.285075 110.190376 
L 181.285075 110.190376 
L 182.16873 91.61777 
L 182.16873 91.61777 
L 182.522191 87.838705 
L 182.522191 87.838705 
L 182.698922 87.311371 
L 182.698922 87.311371 
L 183.229115 92.658756 
L 183.229115 92.658756 
L 184.996423 144.97948 
L 184.996423 144.97948 
L 185.349885 156.57702 
L 185.349885 156.57702 
L 186.41027 186.970095 
L 186.41027 186.970095 
L 187.117193 203.030286 
L 187.117193 203.030286 
L 187.470655 212.15735 
L 187.470655 212.15735 
L 188.000847 224.261394 
L 188.000847 224.261394 
L 188.177578 226.586453 
L 188.177578 226.586453 
L 188.707771 236.823246 
L 188.707771 236.823246 
L 188.884501 238.779959 
L 188.884501 238.779959 
L 189.237963 243.895871 
L 189.237963 243.895871 
L 190.121617 253.96033 
L 190.121617 253.96033 
L 190.65181 259.625187 
L 190.65181 259.625187 
L 192.065656 268.927042 
L 192.065656 268.927042 
L 192.595849 270.761289 
L 192.595849 270.761289 
L 193.126041 272.360658 
L 193.126041 272.360658 
L 193.479503 272.984713 
L 193.479503 272.984713 
L 193.832965 273.456146 
L 193.832965 273.456146 
L 194.186426 273.916021 
L 194.186426 273.916021 
L 194.716619 274.460498 
L 194.716619 274.460498 
L 195.423542 274.599885 
L 195.423542 274.599885 
L 197.190851 274.436653 
L 197.190851 274.436653 
L 198.251236 273.306038 
L 198.251236 273.306038 
L 198.427967 273.057701 
L 198.427967 273.057701 
L 199.665082 269.413666 
L 199.665082 269.413666 
L 201.25566 259.708059 
L 201.25566 259.708059 
L 201.785852 255.420424 
L 201.785852 255.420424 
L 203.022968 241.918552 
L 203.022968 241.918552 
L 203.906622 229.848572 
L 203.906622 229.848572 
L 204.613546 217.918816 
L 204.613546 217.918816 
L 205.320469 204.073058 
L 205.320469 204.073058 
L 206.027392 188.551761 
L 206.027392 188.551761 
L 209.562009 91.505468 
L 209.562009 91.505468 
L 210.268933 79.260474 
L 210.268933 79.260474 
L 210.975856 70.967773 
L 210.975856 70.967773 
L 211.682779 65.351668 
L 211.682779 65.351668 
L 212.389703 61.548255 
L 212.389703 61.548255 
L 213.096626 58.972513 
L 213.096626 58.972513 
L 213.803549 57.228118 
L 213.803549 57.228118 
L 214.510473 56.046741 
L 214.510473 56.046741 
L 215.040665 55.418498 
L 215.040665 55.418498 
L 215.394127 56.779189 
L 215.394127 56.779189 
L 215.747588 61.241393 
L 215.747588 61.241393 
L 219.635667 143.982332 
L 219.635667 143.982332 
L 222.109899 183.889971 
L 222.109899 183.889971 
L 222.640091 189.774462 
L 222.640091 189.774462 
L 224.053938 200.55026 
L 224.053938 200.55026 
L 224.58413 202.74202 
L 224.58413 202.74202 
L 225.114323 204.176034 
L 225.114323 204.176034 
L 225.644515 204.896699 
L 225.644515 204.896699 
L 226.528169 205.225117 
L 226.528169 205.225117 
L 227.058362 205.323235 
L 227.058362 205.323235 
L 227.588554 205.173629 
L 227.588554 205.173629 
L 228.295478 204.616531 
L 228.295478 204.616531 
L 229.002401 203.348093 
L 229.002401 203.348093 
L 229.709324 200.931562 
L 229.709324 200.931562 
L 230.062786 198.710763 
L 230.062786 198.710763 
L 230.416248 196.06974 
L 230.416248 196.06974 
L 230.94644 191.256446 
L 230.94644 191.256446 
L 231.476633 184.853278 
L 231.476633 184.853278 
L 232.713749 161.392659 
L 232.713749 161.392659 
L 235.18798 94.043963 
L 235.18798 94.043963 
L 235.894904 80.979627 
L 235.894904 80.979627 
L 236.601827 72.132006 
L 236.601827 72.132006 
L 237.30875 66.140128 
L 237.30875 66.140128 
L 238.015674 62.082289 
L 238.015674 62.082289 
L 238.722597 59.334157 
L 238.722597 59.334157 
L 239.42952 57.472993 
L 239.42952 57.472993 
L 240.136444 56.212598 
L 240.136444 56.212598 
L 240.843367 55.359024 
L 240.843367 55.359024 
L 241.37356 54.905069 
L 241.37356 54.905069 
L 241.55029 55.035409 
L 241.727021 56.242977 
L 241.727021 56.242977 
L 243.140868 75.146681 
L 243.140868 75.146681 
L 246.145292 119.942166 
L 246.145292 119.942166 
L 247.382408 134.526068 
L 247.382408 134.526068 
L 248.089331 139.776563 
L 248.089331 139.776563 
L 248.796255 143.174885 
L 248.796255 143.174885 
L 249.503178 145.203413 
L 249.503178 145.203413 
L 250.033371 145.667476 
L 250.033371 145.667476 
L 250.563563 145.787652 
L 250.563563 145.787652 
L 251.093756 146.047828 
L 251.093756 146.047828 
L 251.800679 145.90431 
L 251.800679 145.90431 
L 252.154141 145.473474 
L 252.154141 145.473474 
L 252.330871 145.310131 
L 252.330871 145.310131 
L 252.861064 144.287742 
L 252.861064 144.287742 
L 253.567987 141.69346 
L 253.567987 141.69346 
L 253.921449 140.066393 
L 253.921449 140.066393 
L 255.158565 130.930896 
L 255.158565 130.930896 
L 255.865488 124.078632 
L 255.865488 124.078632 
L 256.925873 110.843917 
L 256.925873 110.843917 
L 257.986258 94.776802 
L 257.986258 94.776802 
L 259.400105 73.272896 
L 259.400105 73.272896 
L 260.107028 66.912783 
L 260.107028 66.912783 
L 260.813952 62.605546 
L 260.813952 62.605546 
L 261.520875 59.688487 
L 261.520875 59.688487 
L 262.227798 57.71301 
L 262.227798 57.71301 
L 262.934722 56.375103 
L 262.934722 56.375103 
L 263.641645 55.469092 
L 263.641645 55.469092 
L 264.525299 54.735918 
L 264.525299 54.735918 
L 265.408953 54.285538 
L 265.408953 54.285538 
L 266.646069 53.930762 
L 266.646069 53.930762 
L 268.413378 53.704929 
L 268.413378 53.704929 
L 271.417802 53.594135 
L 271.417802 53.594135 
L 276.366265 53.569731 
L 276.366265 53.569731 
L 276.896458 60.207388 
L 276.896458 60.207388 
L 277.603381 82.564588 
L 277.603381 82.564588 
L 278.487035 115.955193 
L 278.487035 115.955193 
L 278.840497 130.507544 
L 278.840497 130.507544 
L 280.784536 196.684469 
L 280.784536 196.684469 
L 282.551844 241.420424 
L 282.551844 241.420424 
L 283.258768 252.781857 
L 283.258768 252.781857 
L 284.849345 274.628588 
L 284.849345 274.628588 
L 285.026076 276.19875 
L 285.026076 276.19875 
L 285.379538 280.200912 
L 285.379538 280.200912 
L 286.970115 291.368566 
L 286.970115 291.368566 
L 287.853769 294.210683 
L 287.853769 294.210683 
L 288.383962 294.957148 
L 288.383962 294.957148 
L 288.737424 295.149363 
L 288.737424 295.149363 
L 289.444347 295.344928 
L 289.444347 295.344928 
L 290.681463 295.128812 
L 290.681463 295.128812 
L 290.858194 295.046554 
L 290.858194 295.046554 
L 291.741848 293.83558 
L 291.741848 293.83558 
L 292.802233 290.276149 
L 292.802233 290.276149 
L 293.332425 287.734248 
L 293.332425 287.734248 
L 293.862618 284.467159 
L 293.862618 284.467159 
L 294.746272 277.452891 
L 294.746272 277.452891 
L 295.629926 269.317893 
L 295.629926 269.317893 
L 298.280889 233.070037 
L 298.280889 233.070037 
L 299.871466 207.242197 
L 299.871466 207.242197 
L 300.931851 191.968344 
L 300.931851 191.968344 
L 302.522429 169.369228 
L 302.522429 169.369228 
L 303.229352 159.656362 
L 303.229352 159.656362 
L 303.582814 158.825629 
L 303.582814 158.825629 
L 304.113006 167.000276 
L 304.113006 167.000276 
L 304.466468 177.273479 
L 304.466468 177.273479 
L 304.996661 190.340719 
L 304.996661 190.340719 
L 306.410507 218.603686 
L 306.410507 218.603686 
L 306.9407 226.54524 
L 306.9407 226.54524 
L 308.884739 246.659472 
L 308.884739 246.659472 
L 309.414931 250.610257 
L 309.414931 250.610257 
L 310.121855 253.937211 
L 310.121855 253.937211 
L 310.652047 256.525071 
L 310.652047 256.525071 
L 311.889163 260.046305 
L 311.889163 260.046305 
L 312.419356 260.755522 
L 312.419356 260.755522 
L 312.772817 260.998666 
L 312.772817 260.998666 
L 313.833202 261.562243 
L 313.833202 261.562243 
L 315.070318 261.382928 
L 315.070318 261.382928 
L 315.600511 261.126325 
L 315.600511 261.126325 
L 315.953972 260.759152 
L 315.953972 260.759152 
L 316.484165 260.083497 
L 316.484165 260.083497 
L 317.721281 256.683947 
L 317.721281 256.683947 
L 318.604935 252.185277 
L 318.604935 252.185277 
L 319.311858 248.019661 
L 319.311858 248.019661 
L 320.372243 239.535192 
L 320.372243 239.535192 
L 322.846475 213.01835 
L 322.846475 213.01835 
L 325.850899 168.486616 
L 325.850899 168.486616 
L 326.734553 151.014749 
L 326.734553 151.014749 
L 327.264746 142.072583 
L 327.264746 142.072583 
L 327.618208 139.655047 
L 327.618208 139.655047 
L 327.794938 138.916512 
L 327.794938 138.916512 
L 327.971669 138.900261 
L 327.971669 138.900261 
L 328.1484 139.685091 
L 328.1484 139.685091 
L 328.325131 141.784206 
L 328.325131 141.784206 
L 329.915708 174.035262 
L 329.915708 174.035262 
L 331.683017 197.279485 
L 331.683017 197.279485 
L 332.566671 204.438109 
L 332.566671 204.438109 
L 332.920133 206.491823 
L 332.920133 206.491823 
L 333.450325 208.55207 
L 333.450325 208.55207 
L 333.980518 209.675146 
L 333.980518 209.675146 
L 334.687441 210.224873 
L 334.687441 210.224873 
L 335.040903 210.311208 
L 335.040903 210.311208 
L 335.747826 210.194271 
L 335.747826 210.194271 
L 336.101288 210.054885 
L 336.101288 210.054885 
L 336.454749 209.806994 
L 336.454749 209.806994 
L 336.808211 209.398384 
L 336.808211 209.398384 
L 337.161673 208.778182 
L 337.161673 208.778182 
L 337.515134 207.884569 
L 337.515134 207.884569 
L 337.868596 206.624731 
L 337.868596 206.624731 
L 338.75225 200.342353 
L 338.75225 200.342353 
L 339.105712 196.899077 
L 339.105712 196.899077 
L 339.635904 190.38316 
L 339.635904 190.38316 
L 340.342828 180.326575 
L 340.342828 180.326575 
L 340.696289 177.995652 
L 340.696289 177.995652 
L 340.87302 177.367856 
L 340.87302 177.367856 
L 341.049751 177.299447 
L 341.049751 177.299447 
L 341.226482 177.655451 
L 341.226482 177.655451 
L 341.403213 178.868548 
L 341.403213 178.868548 
L 341.933405 183.829381 
L 341.933405 183.829381 
L 342.463598 186.613867 
L 342.463598 186.613867 
L 342.817059 187.385015 
L 342.817059 187.385015 
L 343.170521 187.899672 
L 343.170521 187.899672 
L 343.523983 188.150802 
L 343.523983 188.150802 
L 344.407637 187.588175 
L 344.407637 187.588175 
L 344.761099 186.951052 
L 344.761099 186.951052 
L 345.468022 183.206833 
L 345.468022 183.206833 
L 345.998214 178.371146 
L 345.998214 178.371146 
L 346.705138 168.808333 
L 346.705138 168.808333 
L 347.058599 166.84235 
L 347.058599 166.84235 
L 347.23533 166.576589 
L 347.23533 166.576589 
L 348.825908 182.478127 
L 348.825908 182.478127 
L 349.3561 185.055321 
L 349.3561 185.055321 
L 349.709562 185.8884 
L 349.709562 185.8884 
L 350.063024 186.159131 
L 350.063024 186.159131 
L 350.239755 186.286175 
L 350.239755 186.286175 
L 350.416485 186.251552 
L 350.416485 186.251552 
L 350.769947 186.36123 
L 350.769947 186.36123 
L 351.653601 186.160527 
L 351.653601 186.160527 
L 352.007063 185.960829 
L 352.007063 185.960829 
L 352.360525 185.684514 
L 352.360525 185.684514 
L 353.067448 184.845851 
L 353.067448 184.845851 
L 354.834756 180.638407 
L 354.834756 180.638407 
L 355.54168 178.340544 
L 355.54168 178.340544 
L 357.66245 167.504434 
L 357.66245 167.504434 
L 361.020336 142.279262 
L 361.020336 142.279262 
L 362.257451 134.608661 
L 362.257451 134.608661 
L 363.317836 129.292047 
L 363.317836 129.292047 
L 364.731683 121.616644 
L 364.731683 121.616644 
L 365.438606 116.327337 
L 365.438606 116.327337 
L 366.14553 109.201214 
L 366.14553 109.201214 
L 367.382646 90.507483 
L 367.382646 90.507483 
L 368.089569 78.584596 
L 368.089569 78.584596 
L 368.796492 70.510077 
L 368.796492 70.510077 
L 369.503416 65.041679 
L 369.503416 65.041679 
L 370.210339 61.338338 
L 370.210339 61.338338 
L 370.917262 58.830334 
L 370.917262 58.830334 
L 371.624186 57.131843 
L 371.624186 57.131843 
L 372.331109 55.981516 
L 372.331109 55.981516 
L 373.038032 55.202494 
L 373.038032 55.202494 
L 373.921687 54.572184 
L 373.921687 54.572184 
L 374.982072 54.127667 
L 374.982072 54.127667 
L 376.395918 53.824658 
L 376.395918 53.824658 
L 378.516688 53.647745 
L 378.516688 53.647745 
L 382.758228 53.575706 
L 382.758228 53.575706 
L 397.073426 53.598267 
L 397.073426 53.598267 
L 397.603619 53.761946 
L 397.603619 53.761946 
L 398.487273 53.754518 
L 398.487273 53.754518 
" clip-path="url(#pf2314e94a0)" style="fill: none; stroke: #1f77b4; stroke-width: 1.5; stroke-linecap: square"/>
   </g>
   <g id="line2d_28">
    <path d="M 73.832727 53.568 
L 92.212734 53.568 
L 92.212734 53.568 
L 92.389465 56.152174 
L 92.389465 56.152174 
L 92.742927 73.583053 
L 92.742927 73.583053 
L 92.919658 74.421046 
L 92.919658 74.421046 
L 93.44985 95.408675 
L 93.44985 95.408675 
L 93.626581 104.2678 
L 93.626581 104.2678 
L 93.803312 102.575117 
L 93.803312 102.575117 
L 93.980043 107.616756 
L 93.980043 107.616756 
L 94.156773 116.071516 
L 94.156773 116.071516 
L 94.333504 116.964962 
L 94.333504 116.964962 
L 94.686966 128.511908 
L 94.686966 128.511908 
L 94.863697 136.976496 
L 94.863697 136.976496 
L 95.040428 134.833935 
L 95.040428 134.833935 
L 95.393889 147.85192 
L 95.393889 147.85192 
L 95.57062 146.149408 
L 95.57062 146.149408 
L 95.747351 151.728321 
L 95.747351 151.728321 
L 95.924082 153.425695 
L 95.924082 153.425695 
L 96.807736 171.526365 
L 96.807736 171.526365 
L 96.984467 170.976191 
L 96.984467 170.976191 
L 97.161198 174.600122 
L 97.161198 174.600122 
L 97.337928 175.541203 
L 97.337928 175.541203 
L 97.514659 178.040718 
L 97.514659 178.040718 
L 97.69139 182.624605 
L 97.69139 182.624605 
L 97.868121 182.277536 
L 97.868121 182.277536 
L 98.044852 185.208389 
L 98.044852 185.208389 
L 98.221583 185.666141 
L 98.221583 185.666141 
L 98.575044 189.446603 
L 98.575044 189.446603 
L 98.751775 190.762507 
L 98.751775 190.762507 
L 98.928506 193.22053 
L 98.928506 193.22053 
L 99.105237 193.424416 
L 99.105237 193.424416 
L 99.281968 195.306466 
L 99.281968 195.306466 
L 99.458698 195.617572 
L 99.458698 195.617572 
L 99.635429 196.70407 
L 99.635429 196.70407 
L 99.81216 196.89461 
L 99.81216 196.89461 
L 100.165622 198.363526 
L 100.165622 198.363526 
L 100.695814 199.291763 
L 100.695814 199.291763 
L 100.872545 199.328341 
L 100.872545 199.328341 
L 101.049276 199.540324 
L 101.049276 199.540324 
L 101.226007 199.382844 
L 101.226007 199.382844 
L 101.402738 199.605103 
L 101.402738 199.605103 
L 101.579469 199.423387 
L 101.579469 199.423387 
L 101.756199 199.644919 
L 101.756199 199.644919 
L 102.109661 199.271436 
L 102.109661 199.271436 
L 102.286392 199.423331 
L 102.286392 199.423331 
L 102.463123 198.81011 
L 102.463123 198.81011 
L 102.639854 199.141096 
L 102.639854 199.141096 
L 102.816584 198.199066 
L 102.816584 198.199066 
L 102.993315 198.483367 
L 103.170046 197.207168 
L 103.170046 197.207168 
L 103.346777 197.311875 
L 103.523508 195.805152 
L 103.523508 195.805152 
L 103.700239 195.521074 
L 103.700239 195.521074 
L 103.876969 193.976768 
L 103.876969 193.976768 
L 104.0537 189.060777 
L 104.0537 189.060777 
L 104.230431 190.965388 
L 104.230431 190.965388 
L 104.407162 185.979034 
L 104.407162 185.979034 
L 104.583893 187.177555 
L 104.583893 187.177555 
L 104.760624 182.03227 
L 104.760624 182.03227 
L 104.937354 182.120726 
L 104.937354 182.120726 
L 105.114085 176.928644 
L 105.114085 176.928644 
L 105.290816 175.351055 
L 105.290816 175.351055 
L 105.821009 163.244218 
L 105.821009 163.244218 
L 105.997739 150.553478 
L 105.997739 150.553478 
L 106.17447 152.854134 
L 106.17447 152.854134 
L 106.351201 141.250171 
L 106.351201 141.250171 
L 106.527932 140.238057 
L 106.527932 140.238057 
L 106.881394 127.174783 
L 106.881394 127.174783 
L 107.058124 121.485913 
L 107.058124 121.485913 
L 107.234855 125.565642 
L 107.234855 125.565642 
L 107.411586 126.089681 
L 107.411586 126.089681 
L 107.765048 135.382769 
L 107.765048 135.382769 
L 107.941779 135.254774 
L 107.941779 135.254774 
L 108.118509 138.297595 
L 108.118509 138.297595 
L 108.29524 139.019991 
L 108.29524 139.019991 
L 108.648702 142.496271 
L 108.648702 142.496271 
L 108.825433 142.599917 
L 109.532356 144.390606 
L 109.532356 144.390606 
L 109.709087 143.869806 
L 109.709087 143.869806 
L 109.885818 144.150533 
L 110.239279 143.829152 
L 110.239279 143.829152 
L 110.41601 144.544847 
L 110.41601 144.544847 
L 110.769472 143.455612 
L 110.769472 143.455612 
L 110.946203 143.820775 
L 110.946203 143.820775 
L 111.122934 143.717576 
L 111.122934 143.717576 
L 111.476395 143.306956 
L 111.476395 143.306956 
L 111.653126 141.724118 
L 111.653126 141.724118 
L 111.829857 141.899691 
L 111.829857 141.899691 
L 112.006588 141.464667 
L 112.006588 141.464667 
L 112.183319 138.9809 
L 112.183319 138.9809 
L 112.360049 139.347459 
L 112.360049 139.347459 
L 112.53678 137.844813 
L 112.53678 137.844813 
L 112.713511 134.842088 
L 112.713511 134.842088 
L 112.890242 136.039046 
L 112.890242 136.039046 
L 113.243704 132.48665 
L 113.243704 132.48665 
L 113.420435 130.387089 
L 113.420435 130.387089 
L 113.597165 126.516049 
L 113.597165 126.516049 
L 113.773896 125.99106 
L 113.773896 125.99106 
L 113.950627 123.608426 
L 113.950627 123.608426 
L 114.127358 117.259929 
L 114.304089 117.092398 
L 114.304089 117.092398 
L 114.48082 113.076833 
L 114.48082 113.076833 
L 114.65755 104.604706 
L 114.65755 104.604706 
L 114.834281 104.53881 
L 114.834281 104.53881 
L 115.011012 99.731994 
L 115.011012 99.731994 
L 115.364474 101.599022 
L 115.364474 101.599022 
L 115.541205 107.905581 
L 115.541205 107.905581 
L 115.717935 119.635304 
L 115.717935 119.635304 
L 115.894666 120.703932 
L 115.894666 120.703932 
L 116.071397 125.78388 
L 116.071397 125.78388 
L 116.248128 134.251595 
L 116.248128 134.251595 
L 116.424859 135.610667 
L 116.424859 135.610667 
L 116.60159 139.308983 
L 116.60159 139.308983 
L 116.77832 145.360837 
L 116.77832 145.360837 
L 116.955051 146.082954 
L 116.955051 146.082954 
L 117.131782 149.087465 
L 117.131782 149.087465 
L 117.308513 154.441774 
L 117.308513 154.441774 
L 117.485244 154.662749 
L 117.838705 160.791388 
L 117.838705 160.791388 
L 118.015436 160.90034 
L 118.015436 160.90034 
L 118.368898 164.049878 
L 118.368898 164.049878 
L 118.89909 167.938788 
L 118.89909 167.938788 
L 119.252552 169.45238 
L 119.252552 169.45238 
L 119.429283 169.719816 
L 119.429283 169.719816 
L 119.606014 170.553118 
L 119.606014 170.553118 
L 119.782745 170.712441 
L 119.782745 170.712441 
L 119.959475 171.029187 
L 119.959475 171.029187 
L 120.136206 170.504813 
L 120.136206 170.504813 
L 120.489668 171.388654 
L 120.489668 171.388654 
L 120.666399 171.378769 
L 120.666399 171.378769 
L 120.84313 171.524689 
L 120.84313 171.524689 
L 121.01986 171.153551 
L 121.01986 171.153551 
L 121.196591 171.611582 
L 121.196591 171.611582 
L 121.373322 171.08665 
L 121.373322 171.08665 
L 121.726784 171.508383 
L 121.726784 171.508383 
L 121.903515 170.887902 
L 121.903515 170.887902 
L 122.080245 171.565791 
L 122.080245 171.565791 
L 122.256976 170.812569 
L 122.256976 170.812569 
L 122.610438 171.282774 
L 122.610438 171.282774 
L 122.787169 171.425511 
L 122.787169 171.425511 
L 122.9639 171.244074 
L 122.9639 171.244074 
L 123.14063 170.127755 
L 123.14063 170.127755 
L 123.317361 170.66313 
L 123.317361 170.66313 
L 123.494092 170.591985 
L 123.494092 170.591985 
L 123.670823 170.700434 
L 123.670823 170.700434 
L 123.847554 170.455782 
L 123.847554 170.455782 
L 124.024285 169.365152 
L 124.024285 169.365152 
L 124.201015 170.201134 
L 124.201015 170.201134 
L 124.377746 169.109387 
L 124.377746 169.109387 
L 124.554477 169.459193 
L 124.554477 169.459193 
L 124.731208 168.462492 
L 124.731208 168.462492 
L 124.907939 168.39291 
L 124.907939 168.39291 
L 125.08467 168.919741 
L 125.08467 168.919741 
L 125.261401 167.298091 
L 125.438131 167.815708 
L 125.438131 167.815708 
L 125.614862 166.846985 
L 125.614862 166.846985 
L 125.968324 167.106994 
L 125.968324 167.106994 
L 126.145055 164.966889 
L 126.145055 164.966889 
L 126.321786 165.670243 
L 126.321786 165.670243 
L 126.498516 164.265714 
L 126.498516 164.265714 
L 126.675247 164.532983 
L 126.675247 164.532983 
L 127.028709 163.878772 
L 127.028709 163.878772 
L 127.20544 164.022849 
L 127.382171 162.106232 
L 127.382171 162.106232 
L 127.558901 162.467151 
L 127.558901 162.467151 
L 127.735632 161.062287 
L 127.735632 161.062287 
L 128.089094 160.38451 
L 128.089094 160.38451 
L 128.265825 158.758225 
L 128.265825 158.758225 
L 128.442556 159.357542 
L 128.442556 159.357542 
L 128.796017 158.005785 
L 128.796017 158.005785 
L 128.972748 157.147521 
L 128.972748 157.147521 
L 129.149479 155.412117 
L 129.149479 155.412117 
L 129.32621 155.780017 
L 129.32621 155.780017 
L 129.502941 155.251064 
L 129.502941 155.251064 
L 129.679671 154.070469 
L 129.679671 154.070469 
L 129.856402 154.170373 
L 129.856402 154.170373 
L 130.033133 151.843583 
L 130.033133 151.843583 
L 130.209864 152.112304 
L 130.209864 152.112304 
L 130.386595 151.270513 
L 130.386595 151.270513 
L 130.563326 148.401926 
L 130.563326 148.401926 
L 130.740056 149.90904 
L 130.740056 149.90904 
L 130.916787 147.399361 
L 130.916787 147.399361 
L 131.093518 147.485249 
L 131.093518 147.485249 
L 131.270249 146.854214 
L 131.270249 146.854214 
L 131.44698 144.160306 
L 131.44698 144.160306 
L 131.623711 145.119033 
L 131.623711 145.119033 
L 131.977172 142.878745 
L 131.977172 142.878745 
L 132.684096 138.49679 
L 132.684096 138.49679 
L 132.860826 135.953716 
L 132.860826 135.953716 
L 133.037557 136.519191 
L 133.037557 136.519191 
L 133.391019 132.010191 
L 133.391019 132.010191 
L 133.56775 133.405561 
L 133.56775 133.405561 
L 133.744481 130.697469 
L 133.744481 130.697469 
L 133.921211 130.582822 
L 133.921211 130.582822 
L 134.097942 129.11988 
L 134.097942 129.11988 
L 134.274673 126.351197 
L 134.274673 126.351197 
L 134.451404 126.513368 
L 134.451404 126.513368 
L 134.628135 124.916457 
L 134.804866 121.688738 
L 134.804866 121.688738 
L 134.981596 122.089083 
L 134.981596 122.089083 
L 135.158327 120.15024 
L 135.158327 120.15024 
L 135.335058 116.702384 
L 135.335058 116.702384 
L 135.511789 117.288745 
L 135.511789 117.288745 
L 135.865251 111.401239 
L 135.865251 111.401239 
L 136.041981 112.084209 
L 136.041981 112.084209 
L 136.395443 105.803785 
L 136.395443 105.803785 
L 136.572174 106.472627 
L 136.572174 106.472627 
L 136.748905 103.990368 
L 136.748905 103.990368 
L 136.925636 99.685365 
L 136.925636 99.685365 
L 137.102367 100.428423 
L 137.102367 100.428423 
L 137.279097 98.019487 
L 137.279097 98.019487 
L 137.455828 93.353342 
L 137.455828 93.353342 
L 137.632559 93.521041 
L 137.632559 93.521041 
L 138.516213 79.719567 
L 138.516213 79.719567 
L 138.692944 74.695183 
L 138.692944 74.695183 
L 138.869675 75.573272 
L 138.869675 75.573272 
L 139.046406 72.952073 
L 139.046406 72.952073 
L 139.223137 66.930765 
L 139.223137 66.930765 
L 139.399867 66.500823 
L 139.399867 66.500823 
L 139.753329 59.374868 
L 139.753329 59.374868 
L 139.93006 54.660138 
L 139.93006 54.660138 
L 140.106791 54.861232 
L 140.106791 54.861232 
L 140.283522 53.568 
L 140.283522 53.568 
L 150.53391 53.568 
L 150.53391 53.568 
L 150.710641 57.263691 
L 150.710641 57.263691 
L 150.887372 66.1972 
L 150.887372 66.1972 
L 151.064103 65.23071 
L 151.064103 65.23071 
L 151.417564 78.951099 
L 151.417564 78.951099 
L 151.594295 87.687647 
L 151.594295 87.687647 
L 151.771026 88.491073 
L 151.771026 88.491073 
L 152.124488 100.811456 
L 152.124488 100.811456 
L 152.301218 109.878544 
L 152.301218 109.878544 
L 152.477949 110.372204 
L 152.831411 123.047196 
L 152.831411 123.047196 
L 153.008142 131.951387 
L 153.008142 131.951387 
L 153.184873 130.307735 
L 153.538334 146.381663 
L 153.538334 146.381663 
L 153.715065 144.404232 
L 153.715065 144.404232 
L 154.068527 159.937815 
L 154.068527 159.937815 
L 154.245258 157.565345 
L 154.245258 157.565345 
L 154.421988 164.93316 
L 154.421988 164.93316 
L 154.598719 165.921987 
L 154.598719 165.921987 
L 154.77545 170.299028 
L 154.77545 170.299028 
L 154.952181 179.037308 
L 154.952181 179.037308 
L 155.128912 178.117559 
L 155.128912 178.117559 
L 155.305643 183.848591 
L 155.305643 183.848591 
L 155.482373 185.046498 
L 155.482373 185.046498 
L 155.659104 188.712535 
L 155.835835 197.075264 
L 155.835835 197.075264 
L 156.012566 195.189697 
L 156.012566 195.189697 
L 156.189297 201.804792 
L 156.189297 201.804792 
L 156.366028 201.31923 
L 156.366028 201.31923 
L 156.542758 206.25175 
L 156.542758 206.25175 
L 156.719489 207.028762 
L 156.719489 207.028762 
L 157.072951 212.611528 
L 157.072951 212.611528 
L 157.603143 219.228522 
L 157.603143 219.228522 
L 157.956605 223.689497 
L 157.956605 223.689497 
L 158.133336 228.912294 
L 158.133336 228.912294 
L 158.310067 226.983726 
L 158.310067 226.983726 
L 158.486798 231.754132 
L 158.486798 231.754132 
L 158.663528 230.350776 
L 158.663528 230.350776 
L 158.840259 234.677055 
L 158.840259 234.677055 
L 159.01699 233.765013 
L 159.01699 233.765013 
L 160.077375 240.837024 
L 160.077375 240.837024 
L 160.254106 241.522339 
L 160.254106 241.522339 
L 160.607568 243.651163 
L 160.607568 243.651163 
L 160.961029 244.403994 
L 160.961029 244.403994 
L 161.13776 245.508977 
L 161.13776 245.508977 
L 161.667953 246.201161 
L 161.667953 246.201161 
L 162.198145 247.241532 
L 162.198145 247.241532 
L 162.374876 247.417887 
L 162.374876 247.417887 
L 162.551607 246.983589 
L 162.551607 246.983589 
L 162.728338 247.370029 
L 162.728338 247.370029 
L 162.905069 246.996489 
L 162.905069 246.996489 
L 163.081799 247.232374 
L 163.081799 247.232374 
L 163.25853 246.980686 
L 163.25853 246.980686 
L 163.435261 247.50478 
L 163.435261 247.50478 
L 163.611992 247.343671 
L 163.611992 247.343671 
L 163.788723 247.586089 
L 163.788723 247.586089 
L 164.142184 247.236171 
L 164.142184 247.236171 
L 164.318915 247.214113 
L 164.318915 247.214113 
L 164.495646 247.422187 
L 164.495646 247.422187 
L 164.672377 247.369582 
L 164.672377 247.369582 
L 165.025839 246.986773 
L 165.025839 246.986773 
L 165.202569 246.209035 
L 165.202569 246.209035 
L 165.3793 246.024583 
L 165.3793 246.024583 
L 165.909493 244.407959 
L 165.909493 244.407959 
L 166.086224 244.525455 
L 166.086224 244.525455 
L 166.262954 243.062178 
L 166.262954 243.062178 
L 166.439685 243.326655 
L 166.439685 243.326655 
L 166.616416 241.561933 
L 166.616416 241.561933 
L 166.793147 242.299798 
L 166.793147 242.299798 
L 166.969878 239.708643 
L 166.969878 239.708643 
L 167.146609 240.404681 
L 167.146609 240.404681 
L 167.323339 237.222753 
L 167.323339 237.222753 
L 167.50007 238.873498 
L 167.50007 238.873498 
L 167.676801 234.899146 
L 167.676801 234.899146 
L 167.853532 236.425415 
L 167.853532 236.425415 
L 168.383724 233.010898 
L 168.383724 233.010898 
L 168.560455 231.019618 
L 168.560455 231.019618 
L 168.737186 230.546844 
L 168.737186 230.546844 
L 168.913917 228.593649 
L 168.913917 228.593649 
L 169.090648 227.914811 
L 169.090648 227.914811 
L 169.267379 225.229001 
L 169.267379 225.229001 
L 169.444109 225.118597 
L 169.444109 225.118597 
L 169.62084 222.099511 
L 169.62084 222.099511 
L 169.797571 222.164402 
L 169.797571 222.164402 
L 169.974302 218.84817 
L 169.974302 218.84817 
L 170.151033 219.059762 
L 170.327764 215.509322 
L 170.504494 215.817356 
L 170.504494 215.817356 
L 170.681225 212.0766 
L 170.681225 212.0766 
L 170.857956 212.440422 
L 170.857956 212.440422 
L 171.034687 208.582729 
L 171.211418 208.944932 
L 171.211418 208.944932 
L 171.388149 205.052559 
L 171.388149 205.052559 
L 171.564879 205.34116 
L 171.564879 205.34116 
L 171.74161 201.48073 
L 171.74161 201.48073 
L 171.918341 201.639941 
L 171.918341 201.639941 
L 172.095072 197.896281 
L 172.095072 197.896281 
L 172.271803 197.845351 
L 172.271803 197.845351 
L 172.448534 194.18836 
L 172.448534 194.18836 
L 172.625265 193.975149 
L 172.625265 193.975149 
L 172.801995 190.605809 
L 172.978726 190.040949 
L 172.978726 190.040949 
L 173.332188 185.85266 
L 173.332188 185.85266 
L 173.508919 183.64437 
L 173.508919 183.64437 
L 173.68565 178.111584 
L 173.68565 178.111584 
L 173.86238 179.808846 
L 173.86238 179.808846 
L 174.039111 174.612911 
L 174.039111 174.612911 
L 174.215842 175.697454 
L 174.215842 175.697454 
L 174.392573 171.22894 
L 174.392573 171.22894 
L 174.569304 171.609125 
L 174.569304 171.609125 
L 174.746035 168.309479 
L 174.746035 168.309479 
L 174.922765 167.922258 
L 174.922765 167.922258 
L 175.276227 163.2493 
L 175.276227 163.2493 
L 175.452958 161.632676 
L 175.629689 156.708979 
L 175.629689 156.708979 
L 175.80642 157.423892 
L 175.80642 157.423892 
L 175.98315 154.547878 
L 175.98315 154.547878 
L 176.159881 154.254251 
L 176.159881 154.254251 
L 176.336612 152.096165 
L 176.336612 152.096165 
L 176.513343 147.602577 
L 176.513343 147.602577 
L 176.690074 149.284873 
L 176.690074 149.284873 
L 176.866805 145.272325 
L 176.866805 145.272325 
L 177.043535 144.982551 
L 177.043535 144.982551 
L 177.220266 143.129819 
L 177.220266 143.129819 
L 177.396997 138.757245 
L 177.396997 138.757245 
L 177.573728 140.598306 
L 177.573728 140.598306 
L 177.750459 137.029548 
L 177.750459 137.029548 
L 177.92719 136.874023 
L 177.92719 136.874023 
L 178.10392 134.871853 
L 178.10392 134.871853 
L 178.280651 130.00333 
L 178.280651 130.00333 
L 178.457382 131.117024 
L 178.457382 131.117024 
L 178.634113 127.971339 
L 178.634113 127.971339 
L 178.810844 122.353168 
L 178.810844 122.353168 
L 178.987575 123.935113 
L 178.987575 123.935113 
L 179.164305 119.332797 
L 179.164305 119.332797 
L 179.341036 118.794183 
L 179.341036 118.794183 
L 179.517767 116.106921 
L 179.517767 116.106921 
L 179.694498 109.287437 
L 179.694498 109.287437 
L 179.871229 109.138166 
L 180.04796 105.482739 
L 180.04796 105.482739 
L 180.22469 97.292902 
L 180.22469 97.292902 
L 180.401421 97.302675 
L 180.401421 97.302675 
L 180.578152 91.860412 
L 180.578152 91.860412 
L 180.754883 82.577153 
L 180.754883 82.577153 
L 180.931614 82.296705 
L 180.931614 82.296705 
L 181.108345 76.580137 
L 181.108345 76.580137 
L 181.285075 65.841195 
L 181.285075 65.841195 
L 181.461806 64.146223 
L 181.461806 64.146223 
L 181.638537 56.879429 
L 181.638537 56.879429 
L 181.815268 56.262354 
L 181.815268 56.262354 
L 181.991999 67.340324 
L 181.991999 67.340324 
L 182.16873 67.158831 
L 182.16873 67.158831 
L 182.522191 82.158268 
L 182.522191 82.158268 
L 182.698922 92.792223 
L 182.698922 92.792223 
L 182.875653 91.361 
L 182.875653 91.361 
L 183.936038 133.34028 
L 183.936038 133.34028 
L 184.112769 131.842994 
L 184.112769 131.842994 
L 184.2895 137.863799 
L 184.2895 137.863799 
L 184.466231 149.015371 
L 184.466231 149.015371 
L 184.642961 148.409074 
L 184.642961 148.409074 
L 184.819692 154.496725 
L 184.819692 154.496725 
L 184.996423 165.946447 
L 184.996423 165.946447 
L 185.173154 164.921712 
L 185.173154 164.921712 
L 185.349885 172.306503 
L 185.349885 172.306503 
L 185.526616 174.998959 
L 185.526616 174.998959 
L 185.703346 179.731949 
L 185.703346 179.731949 
L 185.880077 190.609439 
L 185.880077 190.609439 
L 186.056808 189.46894 
L 186.056808 189.46894 
L 186.233539 196.822012 
L 186.233539 196.822012 
L 186.41027 197.915547 
L 186.41027 197.915547 
L 186.763731 206.781932 
L 186.763731 206.781932 
L 186.940462 210.526653 
L 186.940462 210.526653 
L 187.117193 220.89468 
L 187.117193 220.89468 
L 187.293924 217.830136 
L 187.293924 217.830136 
L 187.470655 226.946199 
L 187.470655 226.946199 
L 187.647386 224.876291 
L 187.647386 224.876291 
L 187.824116 232.620047 
L 187.824116 232.620047 
L 188.000847 231.015932 
L 188.000847 231.015932 
L 188.177578 238.510178 
L 188.177578 238.510178 
L 188.354309 237.178078 
L 188.354309 237.178078 
L 188.53104 244.25182 
L 188.53104 244.25182 
L 188.707771 242.507648 
L 188.707771 242.507648 
L 188.884501 249.018149 
L 188.884501 249.018149 
L 189.061232 246.928192 
L 189.061232 246.928192 
L 190.121617 260.141463 
L 190.121617 260.141463 
L 190.298348 260.211436 
L 190.298348 260.211436 
L 190.475079 263.659794 
L 190.475079 263.659794 
L 190.65181 263.25258 
L 190.65181 263.25258 
L 190.828541 266.749355 
L 190.828541 266.749355 
L 191.005271 265.954418 
L 191.005271 265.954418 
L 191.712195 270.315097 
L 191.712195 270.315097 
L 191.888926 270.439517 
L 191.888926 270.439517 
L 192.242387 271.62162 
L 192.242387 271.62162 
L 192.419118 271.54154 
L 192.419118 271.54154 
L 192.595849 272.642166 
L 192.595849 272.642166 
L 192.77258 273.025255 
L 192.77258 273.025255 
L 192.949311 273.114047 
L 192.949311 273.114047 
L 193.126041 273.622226 
L 193.126041 273.622226 
L 193.302772 273.346302 
L 193.302772 273.346302 
L 193.479503 274.017992 
L 193.479503 274.017992 
L 193.656234 273.676562 
L 193.656234 273.676562 
L 193.832965 274.385835 
L 193.832965 274.385835 
L 194.009696 274.182508 
L 194.009696 274.182508 
L 194.363157 274.631995 
L 194.363157 274.631995 
L 194.539888 274.775904 
L 194.539888 274.775904 
L 194.89335 274.426769 
L 194.89335 274.426769 
L 195.246812 274.726147 
L 195.246812 274.726147 
L 195.423542 274.487918 
L 195.777004 274.78389 
L 195.777004 274.78389 
L 196.307197 274.205404 
L 196.307197 274.205404 
L 196.483927 274.448827 
L 196.483927 274.448827 
L 196.837389 273.965945 
L 196.837389 273.965945 
L 197.01412 273.98281 
L 197.01412 273.98281 
L 197.190851 272.651101 
L 197.190851 272.651101 
L 197.367582 273.318826 
L 197.367582 273.318826 
L 197.544312 271.265727 
L 197.544312 271.265727 
L 197.721043 272.278846 
L 197.721043 272.278846 
L 197.897774 271.954338 
L 197.897774 271.954338 
L 198.074505 270.507088 
L 198.074505 270.507088 
L 198.251236 270.63162 
L 198.251236 270.63162 
L 198.427967 267.446566 
L 198.604697 268.851988 
L 198.604697 268.851988 
L 198.958159 266.348564 
L 198.958159 266.348564 
L 199.13489 265.925323 
L 199.13489 265.925323 
L 199.311621 263.056289 
L 199.311621 263.056289 
L 199.488352 263.364547 
L 199.488352 263.364547 
L 199.665082 258.30515 
L 199.665082 258.30515 
L 199.841813 260.391476 
L 199.841813 260.391476 
L 200.372006 255.606104 
L 200.372006 255.606104 
L 200.548737 251.030594 
L 200.548737 251.030594 
L 200.725467 251.902093 
L 200.725467 251.902093 
L 200.902198 245.60017 
L 200.902198 245.60017 
L 201.078929 247.831132 
L 201.078929 247.831132 
L 201.25566 245.739332 
L 201.25566 245.739332 
L 201.432391 242.123108 
L 201.432391 242.123108 
L 201.609122 240.972222 
L 201.609122 240.972222 
L 201.785852 235.877587 
L 201.785852 235.877587 
L 201.962583 236.121736 
L 201.962583 236.121736 
L 202.139314 229.754978 
L 202.139314 229.754978 
L 202.316045 231.266559 
L 202.316045 231.266559 
L 202.492776 222.477351 
L 202.492776 222.477351 
L 202.669507 225.512688 
L 202.669507 225.512688 
L 203.199699 216.019344 
L 203.199699 216.019344 
L 203.37643 210.5916 
L 203.37643 210.5916 
L 203.553161 209.088562 
L 203.553161 209.088562 
L 203.729892 202.855104 
L 203.729892 202.855104 
L 203.906622 201.468333 
L 203.906622 201.468333 
L 204.083353 193.990729 
L 204.260084 193.433407 
L 204.260084 193.433407 
L 204.436815 185.079725 
L 204.436815 185.079725 
L 204.613546 184.5821 
L 204.613546 184.5821 
L 204.790277 175.833099 
L 204.790277 175.833099 
L 204.967007 175.348262 
L 204.967007 175.348262 
L 205.143738 166.920754 
L 205.143738 166.920754 
L 205.320469 165.339145 
L 205.320469 165.339145 
L 205.4972 157.650953 
L 205.4972 157.650953 
L 205.673931 154.809115 
L 205.673931 154.809115 
L 205.850662 148.697229 
L 205.850662 148.697229 
L 206.027392 135.164978 
L 206.027392 135.164978 
L 206.204123 138.446921 
L 206.204123 138.446921 
L 206.380854 126.452777 
L 206.380854 126.452777 
L 206.557585 127.145409 
L 206.557585 127.145409 
L 206.734316 117.867455 
L 206.734316 117.867455 
L 206.911047 115.644422 
L 206.911047 115.644422 
L 207.087778 110.571008 
L 207.087778 110.571008 
L 207.264508 98.340086 
L 207.264508 98.340086 
L 207.441239 98.850723 
L 207.441239 98.850723 
L 207.61797 92.025933 
L 207.61797 92.025933 
L 207.794701 80.822762 
L 207.794701 80.822762 
L 207.971432 82.74044 
L 207.971432 82.74044 
L 208.324893 65.111037 
L 208.324893 65.111037 
L 208.501624 66.675838 
L 208.501624 66.675838 
L 208.855086 53.568 
L 208.855086 53.568 
L 214.863934 53.568 
L 214.863934 53.568 
L 215.040665 57.788958 
L 215.040665 57.788958 
L 215.217396 57.816936 
L 215.217396 57.816936 
L 215.924319 73.501074 
L 215.924319 73.501074 
L 216.277781 81.837389 
L 216.277781 81.837389 
L 216.631243 93.297889 
L 216.631243 93.297889 
L 216.807973 92.359656 
L 216.807973 92.359656 
L 217.161435 103.295056 
L 217.161435 103.295056 
L 217.338166 110.121018 
L 217.338166 110.121018 
L 217.514897 108.473178 
L 218.398551 130.786037 
L 218.398551 130.786037 
L 218.575282 131.886664 
L 218.575282 131.886664 
L 218.752013 135.296825 
L 218.928744 141.337846 
L 218.928744 141.337846 
L 219.105474 142.250558 
L 219.105474 142.250558 
L 219.282205 146.045315 
L 219.282205 146.045315 
L 219.458936 152.249345 
L 219.458936 152.249345 
L 219.635667 152.595688 
L 219.635667 152.595688 
L 219.812398 156.243297 
L 219.812398 156.243297 
L 219.989129 162.376014 
L 219.989129 162.376014 
L 220.165859 161.71365 
L 220.165859 161.71365 
L 220.34259 166.496509 
L 220.34259 166.496509 
L 220.519321 168.013339 
L 220.519321 168.013339 
L 220.696052 170.897116 
L 220.696052 170.897116 
L 220.872783 176.569121 
L 220.872783 176.569121 
L 221.049514 176.458606 
L 221.049514 176.458606 
L 221.226244 179.414254 
L 221.226244 179.414254 
L 221.402975 180.487182 
L 221.402975 180.487182 
L 221.579706 183.337173 
L 221.579706 183.337173 
L 221.756437 188.008456 
L 221.756437 188.008456 
L 221.933168 187.462191 
L 221.933168 187.462191 
L 222.109899 190.73492 
L 222.109899 190.73492 
L 222.286629 191.166761 
L 222.286629 191.166761 
L 222.46336 193.269338 
L 222.46336 193.269338 
L 222.640091 194.019991 
L 222.640091 194.019991 
L 222.816822 195.705805 
L 222.816822 195.705805 
L 222.993553 198.767724 
L 222.993553 198.767724 
L 223.170284 198.293777 
L 223.170284 198.293777 
L 223.347014 200.453203 
L 223.347014 200.453203 
L 223.523745 200.452422 
L 223.523745 200.452422 
L 223.700476 201.859017 
L 223.700476 201.859017 
L 223.877207 202.191399 
L 223.877207 202.191399 
L 224.230669 203.526514 
L 224.230669 203.526514 
L 224.937592 204.95567 
L 224.937592 204.95567 
L 225.467784 205.286266 
L 225.467784 205.286266 
L 225.644515 205.149784 
L 225.644515 205.149784 
L 225.821246 205.36495 
L 225.821246 205.36495 
L 225.997977 205.179548 
L 225.997977 205.179548 
L 226.174708 205.397674 
L 226.174708 205.397674 
L 226.351439 205.207805 
L 226.351439 205.207805 
L 226.528169 205.427774 
L 226.528169 205.427774 
L 226.7049 205.196525 
L 226.7049 205.196525 
L 226.881631 205.394659 
L 226.881631 205.394659 
L 227.058362 205.08467 
L 227.058362 205.08467 
L 227.235093 204.366741 
L 227.235093 204.366741 
L 227.411824 204.776021 
L 227.411824 204.776021 
L 227.588554 203.746762 
L 227.588554 203.746762 
L 227.765285 204.173577 
L 227.765285 204.173577 
L 227.942016 202.823663 
L 227.942016 202.823663 
L 228.118747 203.192847 
L 228.118747 203.192847 
L 228.295478 201.564329 
L 228.295478 201.564329 
L 228.472209 201.772515 
L 228.472209 201.772515 
L 228.648939 199.919783 
L 228.648939 199.919783 
L 228.82567 199.833392 
L 228.82567 199.833392 
L 229.002401 197.688653 
L 229.002401 197.688653 
L 229.179132 197.288197 
L 229.179132 197.288197 
L 229.709324 191.621162 
L 229.709324 191.621162 
L 229.886055 185.456392 
L 229.886055 185.456392 
L 230.062786 187.082118 
L 230.062786 187.082118 
L 230.239517 180.812472 
L 230.239517 180.812472 
L 230.416248 181.726692 
L 230.416248 181.726692 
L 230.592979 175.158896 
L 230.592979 175.158896 
L 230.76971 174.997228 
L 230.76971 174.997228 
L 230.94644 168.962462 
L 230.94644 168.962462 
L 231.123171 167.276312 
L 231.123171 167.276312 
L 231.299902 162.386177 
L 231.299902 162.386177 
L 231.476633 149.753403 
L 231.476633 149.753403 
L 231.653364 153.24102 
L 231.653364 153.24102 
L 231.830095 141.410666 
L 231.830095 141.410666 
L 232.006825 142.427583 
L 232.006825 142.427583 
L 232.183556 133.099481 
L 232.183556 133.099481 
L 232.360287 130.50598 
L 232.360287 130.50598 
L 232.537018 124.119454 
L 232.537018 124.119454 
L 232.713749 107.922725 
L 232.713749 107.922725 
L 232.89048 109.724918 
L 232.89048 109.724918 
L 233.06721 99.863842 
L 233.06721 99.863842 
L 233.243941 96.658739 
L 233.243941 96.658739 
L 233.420672 90.519322 
L 233.420672 90.519322 
L 233.597403 80.21814 
L 233.597403 80.21814 
L 233.774134 79.052177 
L 233.774134 79.052177 
L 234.657788 55.382088 
L 234.657788 55.382088 
L 234.834519 53.568 
L 241.196829 53.568 
L 241.196829 53.568 
L 241.37356 55.283803 
L 241.37356 55.283803 
L 241.903752 66.708395 
L 241.903752 66.708395 
L 242.080483 66.109246 
L 242.080483 66.109246 
L 242.433945 72.145743 
L 242.433945 72.145743 
L 242.610676 76.33945 
L 242.610676 76.33945 
L 242.787406 77.084127 
L 242.787406 77.084127 
L 243.847791 93.508364 
L 243.847791 93.508364 
L 244.024522 98.069076 
L 244.024522 98.069076 
L 244.201253 98.636673 
L 244.201253 98.636673 
L 244.554715 104.876275 
L 244.554715 104.876275 
L 244.731446 109.689513 
L 244.731446 109.689513 
L 244.908176 109.402308 
L 244.908176 109.402308 
L 245.084907 111.92444 
L 245.084907 111.92444 
L 245.261638 116.571151 
L 245.261638 116.571151 
L 245.438369 116.762472 
L 245.438369 116.762472 
L 246.498754 133.141475 
L 246.498754 133.141475 
L 246.675485 132.154435 
L 246.675485 132.154435 
L 247.028946 137.381253 
L 247.028946 137.381253 
L 247.205677 137.111136 
L 247.205677 137.111136 
L 247.559139 139.954873 
L 247.559139 139.954873 
L 248.089331 142.568812 
L 248.089331 142.568812 
L 248.972986 145.327778 
L 248.972986 145.327778 
L 249.149716 145.583933 
L 249.149716 145.583933 
L 249.326447 146.096692 
L 249.326447 146.096692 
L 249.503178 145.695621 
L 249.503178 145.695621 
L 249.679909 145.959372 
L 249.679909 145.959372 
L 250.033371 145.689255 
L 250.033371 145.689255 
L 250.210101 145.967972 
L 250.210101 145.967972 
L 250.386832 145.810213 
L 250.386832 145.810213 
L 250.740294 146.346761 
L 250.740294 146.346761 
L 251.093756 145.866448 
L 251.093756 145.866448 
L 251.270486 146.301918 
L 251.270486 146.301918 
L 251.447217 144.714947 
L 251.447217 144.714947 
L 251.623948 145.034095 
L 251.623948 145.034095 
L 251.800679 144.299525 
L 251.800679 144.299525 
L 251.97741 142.719144 
L 251.97741 142.719144 
L 252.154141 143.714337 
L 252.154141 143.714337 
L 252.330871 141.851442 
L 252.330871 141.851442 
L 252.507602 141.666654 
L 252.507602 141.666654 
L 252.684333 140.448979 
L 252.684333 140.448979 
L 252.861064 138.089185 
L 252.861064 138.089185 
L 253.037795 138.082819 
L 253.037795 138.082819 
L 253.214526 136.565318 
L 253.214526 136.565318 
L 253.391256 133.083342 
L 253.391256 133.083342 
L 253.567987 133.435884 
L 253.567987 133.435884 
L 253.744718 131.658318 
L 253.921449 127.043885 
L 253.921449 127.043885 
L 254.09818 127.846696 
L 254.09818 127.846696 
L 254.274911 125.313116 
L 254.451642 120.194524 
L 254.451642 120.194524 
L 254.628372 121.305593 
L 254.628372 121.305593 
L 254.805103 117.775703 
L 254.981834 116.916936 
L 254.981834 116.916936 
L 256.21895 98.113472 
L 256.21895 98.113472 
L 256.572412 87.146297 
L 256.572412 87.146297 
L 256.749142 88.926264 
L 256.749142 88.926264 
L 256.925873 84.715414 
L 256.925873 84.715414 
L 257.102604 77.779216 
L 257.102604 77.779216 
L 257.279335 79.209824 
L 257.279335 79.209824 
L 257.456066 75.180913 
L 257.456066 75.180913 
L 257.632797 68.450276 
L 257.809527 67.646683 
L 257.986258 64.526631 
L 257.986258 64.526631 
L 258.33972 53.568 
L 258.33972 53.568 
L 276.189534 53.568 
L 276.189534 53.568 
L 276.366265 60.536643 
L 276.366265 60.536643 
L 276.542996 58.942413 
L 276.542996 58.942413 
L 277.780112 112.295522 
L 277.780112 112.295522 
L 277.956843 113.117935 
L 278.310304 129.952233 
L 278.310304 129.952233 
L 278.487035 143.518548 
L 278.487035 143.518548 
L 278.663766 140.155631 
L 278.663766 140.155631 
L 279.017228 163.024696 
L 279.017228 163.024696 
L 279.193959 159.790499 
L 279.370689 169.464665 
L 279.370689 169.464665 
L 279.54742 172.068385 
L 279.724151 178.266272 
L 279.724151 178.266272 
L 279.900882 191.39466 
L 279.900882 191.39466 
L 280.077613 189.497197 
L 280.077613 189.497197 
L 280.254344 198.957984 
L 280.254344 198.957984 
L 280.431074 200.226868 
L 280.431074 200.226868 
L 280.784536 210.365767 
L 280.784536 210.365767 
L 280.961267 215.010971 
L 280.961267 215.010971 
L 281.137998 227.616996 
L 281.137998 227.616996 
L 281.314729 223.672744 
L 281.314729 223.672744 
L 281.491459 234.475124 
L 281.491459 234.475124 
L 281.66819 231.954221 
L 281.66819 231.954221 
L 281.844921 241.826856 
L 281.844921 241.826856 
L 282.021652 238.974743 
L 282.021652 238.974743 
L 282.198383 248.324512 
L 282.198383 248.324512 
L 282.375114 246.065628 
L 282.375114 246.065628 
L 282.905306 254.480851 
L 282.905306 254.480851 
L 283.082037 259.200718 
L 283.082037 259.200718 
L 283.258768 260.203617 
L 283.258768 260.203617 
L 283.435499 264.954478 
L 283.435499 264.954478 
L 283.612229 264.619135 
L 283.612229 264.619135 
L 283.78896 270.955124 
L 283.78896 270.955124 
L 283.965691 269.611688 
L 283.965691 269.611688 
L 284.142422 271.393274 
L 284.142422 271.393274 
L 284.319153 274.772665 
L 284.319153 274.772665 
L 284.495884 275.639083 
L 284.672614 279.407147 
L 284.672614 279.407147 
L 284.849345 279.189915 
L 284.849345 279.189915 
L 285.026076 284.110931 
L 285.026076 284.110931 
L 285.202807 282.636765 
L 285.202807 282.636765 
L 285.379538 283.989359 
L 285.379538 283.989359 
L 285.556269 286.624016 
L 285.556269 286.624016 
L 285.732999 286.760108 
L 285.732999 286.760108 
L 285.90973 289.471662 
L 285.90973 289.471662 
L 286.086461 289.072323 
L 286.086461 289.072323 
L 286.263192 289.860894 
L 286.263192 289.860894 
L 286.439923 291.61037 
L 286.439923 291.61037 
L 286.616654 291.983686 
L 286.616654 291.983686 
L 286.793384 293.534973 
L 286.793384 293.534973 
L 286.970115 293.252794 
L 286.970115 293.252794 
L 287.323577 294.427078 
L 287.323577 294.427078 
L 288.0305 295.361234 
L 288.0305 295.361234 
L 288.207231 295.26038 
L 288.207231 295.26038 
L 288.383962 295.40563 
L 288.383962 295.40563 
L 288.560693 295.221457 
L 288.560693 295.221457 
L 288.914155 295.488 
L 288.914155 295.488 
L 289.090885 295.279256 
L 289.090885 295.279256 
L 289.267616 295.413281 
L 289.267616 295.413281 
L 289.444347 295.110886 
L 289.444347 295.110886 
L 289.797809 295.396639 
L 289.797809 295.396639 
L 289.97454 294.848811 
L 289.97454 294.848811 
L 290.15127 295.039295 
L 290.15127 295.039295 
L 290.504732 294.266416 
L 290.504732 294.266416 
L 290.681463 294.24257 
L 290.681463 294.24257 
L 290.858194 292.678049 
L 290.858194 292.678049 
L 291.034925 293.077053 
L 291.034925 293.077053 
L 291.565117 290.898696 
L 291.565117 290.898696 
L 291.741848 288.076347 
L 291.741848 288.076347 
L 291.918579 288.732345 
L 291.918579 288.732345 
L 292.09531 287.845489 
L 292.27204 285.579178 
L 292.27204 285.579178 
L 292.448771 285.188215 
L 292.625502 281.600805 
L 292.625502 281.600805 
L 292.802233 282.177728 
L 292.802233 282.177728 
L 293.332425 277.406318 
L 293.332425 277.406318 
L 293.509156 273.413817 
L 293.509156 273.413817 
L 293.685887 274.033404 
L 293.685887 274.033404 
L 293.862618 267.302544 
L 293.862618 267.302544 
L 294.039349 269.47917 
L 294.039349 269.47917 
L 294.21608 268.229943 
L 294.21608 268.229943 
L 294.39281 263.028032 
L 294.39281 263.028032 
L 294.569541 264.538441 
L 294.569541 264.538441 
L 295.276465 252.22945 
L 295.276465 252.22945 
L 295.453195 253.279538 
L 295.453195 253.279538 
L 295.629926 244.120978 
L 295.629926 244.120978 
L 295.806657 247.099856 
L 295.806657 247.099856 
L 295.983388 244.758156 
L 295.983388 244.758156 
L 296.160119 239.569312 
L 296.160119 239.569312 
L 296.33685 239.435622 
L 296.33685 239.435622 
L 296.51358 230.976897 
L 296.51358 230.976897 
L 296.690311 232.999283 
L 296.690311 232.999283 
L 296.867042 223.337011 
L 296.867042 223.337011 
L 297.043773 226.687921 
L 297.043773 226.687921 
L 297.927427 210.575126 
L 297.927427 210.575126 
L 298.104158 203.767983 
L 298.104158 203.767983 
L 298.280889 204.110306 
L 298.280889 204.110306 
L 298.45762 196.788897 
L 298.45762 196.788897 
L 298.63435 197.599303 
L 298.811081 190.85532 
L 298.811081 190.85532 
L 298.987812 191.680301 
L 298.987812 191.680301 
L 299.164543 185.634701 
L 299.164543 185.634701 
L 299.341274 186.029629 
L 299.341274 186.029629 
L 299.518005 181.099733 
L 299.518005 181.099733 
L 299.694735 181.4979 
L 299.694735 181.4979 
L 299.871466 177.002302 
L 299.871466 177.002302 
L 300.048197 177.020283 
L 300.048197 177.020283 
L 300.224928 173.517533 
L 300.224928 173.517533 
L 300.401659 172.932513 
L 300.401659 172.932513 
L 300.57839 169.995015 
L 300.57839 169.995015 
L 300.755121 168.968549 
L 300.755121 168.968549 
L 300.931851 166.521192 
L 300.931851 166.521192 
L 301.108582 160.896375 
L 301.108582 160.896375 
L 301.285313 162.277505 
L 301.285313 162.277505 
L 301.462044 157.045438 
L 301.462044 157.045438 
L 301.638775 157.371678 
L 301.638775 157.371678 
L 301.815506 153.010161 
L 301.815506 153.010161 
L 301.992236 151.471831 
L 301.992236 151.471831 
L 302.168967 148.378193 
L 302.168967 148.378193 
L 302.345698 139.312277 
L 302.345698 139.312277 
L 302.522429 140.885231 
L 302.522429 140.885231 
L 302.69916 136.2842 
L 302.69916 136.2842 
L 302.875891 137.450443 
L 302.875891 137.450443 
L 303.052621 142.195384 
L 303.052621 142.195384 
L 303.229352 156.176173 
L 303.229352 156.176173 
L 303.406083 153.86541 
L 303.406083 153.86541 
L 303.582814 165.574973 
L 303.582814 165.574973 
L 303.759545 167.522807 
L 303.759545 167.522807 
L 303.936276 173.967747 
L 303.936276 173.967747 
L 304.113006 186.4761 
L 304.113006 186.4761 
L 304.289737 184.073027 
L 304.289737 184.073027 
L 304.466468 192.218803 
L 304.466468 192.218803 
L 304.643199 192.751275 
L 304.643199 192.751275 
L 304.996661 201.30404 
L 304.996661 201.30404 
L 305.173391 204.82857 
L 305.173391 204.82857 
L 305.350122 213.961442 
L 305.350122 213.961442 
L 305.526853 211.483203 
L 305.526853 211.483203 
L 305.703584 218.455364 
L 305.703584 218.455364 
L 305.880315 217.503506 
L 305.880315 217.503506 
L 306.057046 223.020432 
L 306.057046 223.020432 
L 306.233776 222.907962 
L 306.233776 222.907962 
L 306.410507 227.475208 
L 306.410507 227.475208 
L 306.587238 227.766881 
L 306.587238 227.766881 
L 306.763969 231.850463 
L 306.763969 231.850463 
L 306.9407 232.143196 
L 306.9407 232.143196 
L 307.117431 236.189977 
L 307.117431 236.189977 
L 307.294161 236.087671 
L 307.294161 236.087671 
L 307.470892 239.26675 
L 307.470892 239.26675 
L 307.647623 239.75544 
L 307.647623 239.75544 
L 307.824354 243.001197 
L 307.824354 243.001197 
L 308.001085 243.258581 
L 308.177816 246.081711 
L 308.177816 246.081711 
L 308.354546 246.491326 
L 308.354546 246.491326 
L 308.531277 248.943876 
L 308.531277 248.943876 
L 308.708008 248.777406 
L 308.708008 248.777406 
L 308.884739 251.296746 
L 308.884739 251.296746 
L 309.06147 251.242465 
L 309.06147 251.242465 
L 309.238201 253.137247 
L 309.238201 253.137247 
L 309.414931 252.782918 
L 309.414931 252.782918 
L 309.591662 253.592654 
L 309.591662 253.592654 
L 310.121855 256.99522 
L 310.121855 256.99522 
L 310.298586 257.314982 
L 310.298586 257.314982 
L 310.475316 257.925021 
L 310.475316 257.925021 
L 310.652047 258.057482 
L 310.652047 258.057482 
L 310.828778 259.293642 
L 310.828778 259.293642 
L 311.005509 259.324523 
L 311.005509 259.324523 
L 311.18224 259.635294 
L 311.18224 259.635294 
L 311.358971 260.345293 
L 311.358971 260.345293 
L 311.535701 259.96293 
L 311.535701 259.96293 
L 311.712432 261.004753 
L 311.712432 261.004753 
L 311.889163 260.751502 
L 311.889163 260.751502 
L 312.242625 261.170889 
L 312.242625 261.170889 
L 312.419356 260.941929 
L 312.419356 260.941929 
L 312.596087 261.339705 
L 312.596087 261.339705 
L 312.772817 261.288943 
L 312.772817 261.288943 
L 312.949548 261.70995 
L 312.949548 261.70995 
L 313.126279 261.601557 
L 313.479741 261.740831 
L 313.479741 261.740831 
L 313.656472 261.350818 
L 314.009933 261.372374 
L 314.009933 261.372374 
L 314.186664 261.687389 
L 314.186664 261.687389 
L 314.363395 260.438608 
L 314.363395 260.438608 
L 314.540126 261.507348 
L 314.540126 261.507348 
L 314.716857 260.728829 
L 314.716857 260.728829 
L 314.893587 261.039879 
L 314.893587 261.039879 
L 315.070318 260.726819 
L 315.070318 260.726819 
L 315.247049 260.065013 
L 315.247049 260.065013 
L 315.42378 260.354452 
L 315.42378 260.354452 
L 315.600511 258.387743 
L 315.600511 258.387743 
L 315.777242 259.655733 
L 315.777242 259.655733 
L 316.130703 257.976118 
L 316.130703 257.976118 
L 316.307434 257.743193 
L 316.307434 257.743193 
L 316.484165 255.29511 
L 316.484165 255.29511 
L 316.660896 255.653963 
L 316.660896 255.653963 
L 316.837627 253.162042 
L 316.837627 253.162042 
L 317.014357 254.353192 
L 317.014357 254.353192 
L 317.54455 251.037239 
L 317.54455 251.037239 
L 317.721281 248.087008 
L 317.721281 248.087008 
L 317.898012 248.069027 
L 317.898012 248.069027 
L 318.074742 244.886988 
L 318.074742 244.886988 
L 318.251473 245.596596 
L 318.251473 245.596596 
L 318.428204 240.246922 
L 318.428204 240.246922 
L 318.604935 242.006897 
L 318.604935 242.006897 
L 319.135127 237.248051 
L 319.135127 237.248051 
L 319.311858 233.958959 
L 319.311858 233.958959 
L 319.488589 233.213667 
L 319.488589 233.213667 
L 319.66532 229.168841 
L 319.66532 229.168841 
L 319.842051 229.368371 
L 319.842051 229.368371 
L 320.018782 224.872717 
L 320.018782 224.872717 
L 320.195512 225.715736 
L 320.195512 225.715736 
L 320.372243 219.725868 
L 320.372243 219.725868 
L 320.548974 221.4969 
L 320.548974 221.4969 
L 320.725705 214.904644 
L 320.725705 214.904644 
L 320.902436 217.110979 
L 320.902436 217.110979 
L 321.079167 210.019089 
L 321.255897 212.572214 
L 321.255897 212.572214 
L 322.316282 198.209788 
L 322.316282 198.209788 
L 322.493013 190.502219 
L 322.493013 190.502219 
L 322.669744 192.776963 
L 322.669744 192.776963 
L 322.846475 185.644083 
L 322.846475 185.644083 
L 323.023206 187.605877 
L 323.023206 187.605877 
L 323.199937 180.802309 
L 323.199937 180.802309 
L 323.376667 182.287699 
L 323.376667 182.287699 
L 323.553398 175.884028 
L 323.553398 175.884028 
L 323.730129 176.776246 
L 323.730129 176.776246 
L 323.90686 170.965022 
L 323.90686 170.965022 
L 324.083591 171.0102 
L 324.083591 171.0102 
L 324.260322 165.588878 
L 324.260322 165.588878 
L 324.437053 164.835601 
L 324.437053 164.835601 
L 324.790514 157.902307 
L 324.790514 157.902307 
L 324.967245 154.747017 
L 324.967245 154.747017 
L 325.143976 145.793906 
L 325.143976 145.793906 
L 325.320707 146.912291 
L 325.320707 146.912291 
L 325.497438 140.058016 
L 325.497438 140.058016 
L 325.674168 138.763947 
L 325.674168 138.763947 
L 325.850899 134.688518 
L 325.850899 134.688518 
L 326.02763 124.1113 
L 326.02763 124.1113 
L 326.204361 126.233255 
L 326.204361 126.233255 
L 326.381092 118.054364 
L 326.381092 118.054364 
L 326.557823 116.830658 
L 326.557823 116.830658 
L 326.734553 113.40782 
L 326.734553 113.40782 
L 326.911284 116.875668 
L 326.911284 116.875668 
L 327.088015 116.613425 
L 327.088015 116.613425 
L 327.441477 132.994718 
L 327.441477 132.994718 
L 327.618208 131.700201 
L 327.618208 131.700201 
L 327.794938 138.741665 
L 327.794938 138.741665 
L 327.971669 141.180254 
L 327.971669 141.180254 
L 328.855323 165.442009 
L 328.855323 165.442009 
L 329.032054 165.23064 
L 329.032054 165.23064 
L 329.385516 176.771611 
L 329.385516 176.771611 
L 329.562247 174.975393 
L 329.562247 174.975393 
L 329.738978 181.201257 
L 329.738978 181.201257 
L 329.915708 181.118385 
L 329.915708 181.118385 
L 330.092439 184.938105 
L 330.092439 184.938105 
L 330.445901 188.502115 
L 330.445901 188.502115 
L 330.622632 193.950242 
L 330.622632 193.950242 
L 330.799363 192.934945 
L 330.799363 192.934945 
L 330.976093 196.907007 
L 330.976093 196.907007 
L 331.152824 196.866799 
L 331.152824 196.866799 
L 331.329555 199.589746 
L 331.329555 199.589746 
L 331.506286 200.301922 
L 331.506286 200.301922 
L 331.859748 202.796412 
L 331.859748 202.796412 
L 332.036478 204.253936 
L 332.036478 204.253936 
L 332.213209 206.817616 
L 332.213209 206.817616 
L 332.38994 206.385999 
L 332.38994 206.385999 
L 332.566671 208.081977 
L 332.743402 208.014685 
L 332.743402 208.014685 
L 332.920133 209.010549 
L 333.096863 209.169983 
L 333.096863 209.169983 
L 333.450325 209.89908 
L 333.450325 209.89908 
L 333.627056 210.011606 
L 333.627056 210.011606 
L 333.803787 210.27826 
L 333.803787 210.27826 
L 333.980518 210.179975 
L 333.980518 210.179975 
L 334.157248 210.417144 
L 334.157248 210.417144 
L 334.333979 210.231574 
L 334.333979 210.231574 
L 334.51071 210.445847 
L 334.51071 210.445847 
L 334.687441 210.445177 
L 334.687441 210.445177 
L 335.040903 210.260502 
L 335.040903 210.260502 
L 335.217633 209.89841 
L 335.217633 209.89841 
L 335.394364 210.162384 
L 335.394364 210.162384 
L 335.571095 209.564296 
L 335.571095 209.564296 
L 335.747826 209.861441 
L 335.747826 209.861441 
L 335.924557 208.994801 
L 335.924557 208.994801 
L 336.101288 209.268603 
L 336.101288 209.268603 
L 336.278019 208.09806 
L 336.278019 208.09806 
L 336.454749 208.27905 
L 336.454749 208.27905 
L 336.63148 206.791928 
L 336.63148 206.791928 
L 336.808211 206.80561 
L 336.808211 206.80561 
L 336.984942 205.070206 
L 336.984942 205.070206 
L 337.161673 204.757871 
L 337.161673 204.757871 
L 337.691865 199.813735 
L 337.691865 199.813735 
L 337.868596 194.149326 
L 337.868596 194.149326 
L 338.045327 195.982735 
L 338.045327 195.982735 
L 338.222058 189.431748 
L 338.222058 189.431748 
L 338.398789 190.968069 
L 338.398789 190.968069 
L 338.575519 183.70027 
L 338.575519 183.70027 
L 338.75225 184.777554 
L 338.75225 184.777554 
L 338.928981 177.373719 
L 338.928981 177.373719 
L 339.105712 177.22752 
L 339.105712 177.22752 
L 339.282443 169.743494 
L 339.282443 169.743494 
L 339.459174 167.536935 
L 339.459174 167.536935 
L 339.812635 157.23715 
L 339.812635 157.23715 
L 339.989366 154.381742 
L 339.989366 154.381742 
L 340.166097 164.405212 
L 340.166097 164.405212 
L 340.342828 163.102989 
L 340.342828 163.102989 
L 340.519559 170.843729 
L 340.519559 170.843729 
L 340.696289 171.233799 
L 340.696289 171.233799 
L 340.87302 176.630493 
L 340.87302 176.630493 
L 341.049751 178.333675 
L 341.049751 178.333675 
L 341.403213 184.666257 
L 341.403213 184.666257 
L 341.579944 184.964631 
L 341.579944 184.964631 
L 341.756674 186.789273 
L 341.756674 186.789273 
L 341.933405 186.778495 
L 341.933405 186.778495 
L 342.286867 188.102664 
L 342.286867 188.102664 
L 342.463598 188.268186 
L 342.463598 188.268186 
L 342.640329 187.769277 
L 342.640329 187.769277 
L 342.817059 188.383782 
L 342.817059 188.383782 
L 342.99379 188.225186 
L 343.170521 188.441357 
L 343.347252 188.273993 
L 343.347252 188.273993 
L 343.523983 187.063857 
L 343.523983 187.063857 
L 343.700714 188.066868 
L 343.700714 188.066868 
L 343.877444 186.369159 
L 343.877444 186.369159 
L 344.054175 187.049673 
L 344.054175 187.049673 
L 344.230906 185.320356 
L 344.230906 185.320356 
L 344.407637 185.109043 
L 344.407637 185.109043 
L 344.584368 182.974076 
L 344.584368 182.974076 
L 344.761099 177.02168 
L 344.761099 177.02168 
L 344.937829 179.275091 
L 344.937829 179.275091 
L 345.11456 172.340736 
L 345.11456 172.340736 
L 345.291291 173.604371 
L 345.291291 173.604371 
L 345.468022 167.200811 
L 345.468022 167.200811 
L 345.644753 165.60686 
L 345.644753 165.60686 
L 345.821484 160.258191 
L 345.821484 160.258191 
L 345.998214 148.889108 
L 345.998214 148.889108 
L 346.174945 151.234494 
L 346.174945 151.234494 
L 346.351676 148.002084 
L 346.351676 148.002084 
L 346.528407 147.257909 
L 346.528407 147.257909 
L 346.705138 156.790288 
L 346.705138 156.790288 
L 346.881869 158.534236 
L 346.881869 158.534236 
L 347.23533 171.966247 
L 347.23533 171.966247 
L 347.412061 171.19186 
L 347.412061 171.19186 
L 347.588792 175.817686 
L 347.588792 175.817686 
L 347.765523 176.963825 
L 347.765523 176.963825 
L 348.118985 182.410723 
L 348.118985 182.410723 
L 348.295715 182.529057 
L 348.472446 184.338621 
L 348.472446 184.338621 
L 349.002639 186.109709 
L 349.002639 186.109709 
L 349.532831 186.612471 
L 349.532831 186.612471 
L 349.886293 186.292765 
L 349.886293 186.292765 
L 350.063024 186.528147 
L 350.063024 186.528147 
L 350.239755 185.913362 
L 350.239755 185.913362 
L 350.416485 186.577234 
L 350.416485 186.577234 
L 350.769947 186.137519 
L 350.769947 186.137519 
L 350.946678 186.230387 
L 350.946678 186.230387 
L 351.123409 185.955524 
L 351.123409 185.955524 
L 351.30014 186.001092 
L 351.30014 186.001092 
L 351.47687 185.108875 
L 351.47687 185.108875 
L 351.653601 185.528598 
L 351.653601 185.528598 
L 351.830332 184.583105 
L 351.830332 184.583105 
L 352.007063 184.871427 
L 352.007063 184.871427 
L 352.360525 183.64236 
L 352.360525 183.64236 
L 352.890717 182.457018 
L 352.890717 182.457018 
L 353.067448 180.555702 
L 353.067448 180.555702 
L 353.244179 181.427536 
L 353.244179 181.427536 
L 353.42091 180.120734 
L 353.59764 180.310436 
L 353.59764 180.310436 
L 353.951102 178.34557 
L 353.951102 178.34557 
L 354.127833 178.221764 
L 354.127833 178.221764 
L 354.304564 176.169502 
L 354.304564 176.169502 
L 354.481295 176.847447 
L 354.481295 176.847447 
L 354.658025 175.000355 
L 354.658025 175.000355 
L 354.834756 175.28985 
L 354.834756 175.28985 
L 355.188218 173.10736 
L 355.188218 173.10736 
L 355.364949 172.380776 
L 355.364949 172.380776 
L 355.54168 169.103802 
L 355.54168 169.103802 
L 355.71841 170.461199 
L 355.71841 170.461199 
L 355.895141 167.853291 
L 356.071872 168.150995 
L 356.071872 168.150995 
L 356.248603 166.232591 
L 356.248603 166.232591 
L 356.425334 165.703582 
L 356.425334 165.703582 
L 356.602065 164.354897 
L 356.602065 164.354897 
L 356.778795 160.650327 
L 356.778795 160.650327 
L 356.955526 161.615197 
L 356.955526 161.615197 
L 357.132257 158.890296 
L 357.132257 158.890296 
L 357.308988 158.688141 
L 357.308988 158.688141 
L 357.485719 156.851939 
L 357.66245 152.747416 
L 357.66245 152.747416 
L 357.83918 154.120728 
L 357.83918 154.120728 
L 358.015911 150.817955 
L 358.015911 150.817955 
L 358.192642 150.920261 
L 358.192642 150.920261 
L 358.369373 148.873639 
L 358.369373 148.873639 
L 358.546104 144.77107 
L 358.546104 144.77107 
L 358.722835 146.207598 
L 358.722835 146.207598 
L 358.899565 142.947657 
L 358.899565 142.947657 
L 359.076296 142.965694 
L 359.076296 142.965694 
L 359.253027 141.201698 
L 359.253027 141.201698 
L 359.429758 137.893173 
L 359.429758 137.893173 
L 359.606489 139.043724 
L 359.606489 139.043724 
L 359.78322 136.801091 
L 359.78322 136.801091 
L 360.136681 135.095508 
L 360.136681 135.095508 
L 360.313412 132.277292 
L 360.313412 132.277292 
L 360.490143 132.477269 
L 360.490143 132.477269 
L 360.666874 131.221005 
L 360.666874 131.221005 
L 360.843605 129.039912 
L 360.843605 129.039912 
L 361.020336 129.499172 
L 361.020336 129.499172 
L 361.197066 128.66129 
L 361.197066 128.66129 
L 361.373797 126.519455 
L 361.373797 126.519455 
L 361.550528 127.542738 
L 361.550528 127.542738 
L 361.727259 125.932983 
L 361.727259 125.932983 
L 361.90399 125.901822 
L 361.90399 125.901822 
L 362.257451 123.976214 
L 362.434182 124.048811 
L 362.610913 123.696101 
L 362.610913 123.696101 
L 362.787644 121.95556 
L 362.964375 122.046418 
L 362.964375 122.046418 
L 363.671298 118.133774 
L 363.671298 118.133774 
L 363.848029 116.010702 
L 363.848029 116.010702 
L 364.02476 115.999813 
L 364.02476 115.999813 
L 364.201491 114.377828 
L 364.378221 111.454234 
L 364.378221 111.454234 
L 364.554952 111.303623 
L 364.554952 111.303623 
L 364.731683 109.088968 
L 364.731683 109.088968 
L 364.908414 105.439181 
L 364.908414 105.439181 
L 365.085145 104.867731 
L 365.085145 104.867731 
L 365.261876 102.503023 
L 365.261876 102.503023 
L 365.438606 98.225048 
L 365.438606 98.225048 
L 365.615337 97.243201 
L 365.615337 97.243201 
L 365.968799 89.059005 
L 365.968799 89.059005 
L 366.14553 81.987386 
L 366.14553 81.987386 
L 366.322261 83.730216 
L 366.322261 83.730216 
L 366.498991 79.04877 
L 366.498991 79.04877 
L 366.675722 70.498796 
L 366.675722 70.498796 
L 366.852453 70.39085 
L 366.852453 70.39085 
L 367.029184 66.195301 
L 367.029184 66.195301 
L 367.382646 53.568 
L 367.382646 53.568 
L 396.013041 53.568 
L 396.013041 53.568 
L 396.189772 53.682703 
L 396.189772 53.682703 
L 396.543234 53.568 
L 396.543234 53.568 
L 396.896695 53.568 
L 396.896695 53.568 
L 397.250157 53.998389 
L 397.250157 53.998389 
L 397.426888 53.568 
L 397.426888 53.568 
L 398.133811 53.604354 
L 398.133811 53.604354 
L 398.310542 53.853139 
L 398.310542 53.853139 
L 398.487273 53.568 
L 398.487273 53.568 
" clip-path="url(#pf2314e94a0)" style="fill: none; stroke: #ff7f0e; stroke-width: 1.5; stroke-linecap: square"/>
   </g>
   <g id="patch_3">
    <path d="M 57.6 307.584 
L 57.6 41.472 
" style="fill: none; stroke: #000000; stroke-width: 0.8; stroke-linejoin: miter; stroke-linecap: square"/>
   </g>
   <g id="patch_4">
    <path d="M 414.72 307.584 
L 414.72 41.472 
" style="fill: none; stroke: #000000; stroke-width: 0.8; stroke-linejoin: miter; stroke-linecap: square"/>
   </g>
   <g id="patch_5">
    <path d="M 57.6 307.584 
L 414.72 307.584 
" style="fill: none; stroke: #000000; stroke-width: 0.8; stroke-linejoin: miter; stroke-linecap: square"/>
   </g>
   <g id="patch_6">
    <path d="M 57.6 41.472 
L 414.72 41.472 
" style="fill: none; stroke: #000000; stroke-width: 0.8; stroke-linejoin: miter; stroke-linecap: square"/>
   </g>
   <g id="text_16">
    <!-- Actual speed vs Expected speed -->
    <g transform="translate(138.808125 35.472) scale(0.12 -0.12)">
     <defs>
      <path id="DejaVuSans-41" d="M 2188 4044 
L 1331 1722 
L 3047 1722 
L 2188 4044 
z
M 1831 4666 
L 2547 4666 
L 4325 0 
L 3669 0 
L 3244 1197 
L 1141 1197 
L 716 0 
L 50 0 
L 1831 4666 
z
" transform="scale(0.015625)"/>
      <path id="DejaVuSans-75" d="M 544 1381 
L 544 3500 
L 1119 3500 
L 1119 1403 
Q 1119 906 1312 657 
Q 1506 409 1894 409 
Q 2359 409 2629 706 
Q 2900 1003 2900 1516 
L 2900 3500 
L 3475 3500 
L 3475 0 
L 2900 0 
L 2900 538 
Q 2691 219 2414 64 
Q 2138 -91 1772 -91 
Q 1169 -91 856 284 
Q 544 659 544 1381 
z
M 1991 3584 
L 1991 3584 
z
" transform="scale(0.015625)"/>
      <path id="DejaVuSans-61" d="M 2194 1759 
Q 1497 1759 1228 1600 
Q 959 1441 959 1056 
Q 959 750 1161 570 
Q 1363 391 1709 391 
Q 2188 391 2477 730 
Q 2766 1069 2766 1631 
L 2766 1759 
L 2194 1759 
z
M 3341 1997 
L 3341 0 
L 2766 0 
L 2766 531 
Q 2569 213 2275 61 
Q 1981 -91 1556 -91 
Q 1019 -91 701 211 
Q 384 513 384 1019 
Q 384 1609 779 1909 
Q 1175 2209 1959 2209 
L 2766 2209 
L 2766 2266 
Q 2766 2663 2505 2880 
Q 2244 3097 1772 3097 
Q 1472 3097 1187 3025 
Q 903 2953 641 2809 
L 641 3341 
Q 956 3463 1253 3523 
Q 1550 3584 1831 3584 
Q 2591 3584 2966 3190 
Q 3341 2797 3341 1997 
z
" transform="scale(0.015625)"/>
      <path id="DejaVuSans-20" transform="scale(0.015625)"/>
      <path id="DejaVuSans-70" d="M 1159 525 
L 1159 -1331 
L 581 -1331 
L 581 3500 
L 1159 3500 
L 1159 2969 
Q 1341 3281 1617 3432 
Q 1894 3584 2278 3584 
Q 2916 3584 3314 3078 
Q 3713 2572 3713 1747 
Q 3713 922 3314 415 
Q 2916 -91 2278 -91 
Q 1894 -91 1617 61 
Q 1341 213 1159 525 
z
M 3116 1747 
Q 3116 2381 2855 2742 
Q 2594 3103 2138 3103 
Q 1681 3103 1420 2742 
Q 1159 2381 1159 1747 
Q 1159 1113 1420 752 
Q 1681 391 2138 391 
Q 2594 391 2855 752 
Q 3116 1113 3116 1747 
z
" transform="scale(0.015625)"/>
      <path id="DejaVuSans-64" d="M 2906 2969 
L 2906 4863 
L 3481 4863 
L 3481 0 
L 2906 0 
L 2906 525 
Q 2725 213 2448 61 
Q 2172 -91 1784 -91 
Q 1150 -91 751 415 
Q 353 922 353 1747 
Q 353 2572 751 3078 
Q 1150 3584 1784 3584 
Q 2172 3584 2448 3432 
Q 2725 3281 2906 2969 
z
M 947 1747 
Q 947 1113 1208 752 
Q 1469 391 1925 391 
Q 2381 391 2643 752 
Q 2906 1113 2906 1747 
Q 2906 2381 2643 2742 
Q 2381 3103 1925 3103 
Q 1469 3103 1208 2742 
Q 947 2381 947 1747 
z
" transform="scale(0.015625)"/>
      <path id="DejaVuSans-76" d="M 191 3500 
L 800 3500 
L 1894 563 
L 2988 3500 
L 3597 3500 
L 2284 0 
L 1503 0 
L 191 3500 
z
" transform="scale(0.015625)"/>
      <path id="DejaVuSans-45" d="M 628 4666 
L 3578 4666 
L 3578 4134 
L 1259 4134 
L 1259 2753 
L 3481 2753 
L 3481 2222 
L 1259 2222 
L 1259 531 
L 3634 531 
L 3634 0 
L 628 0 
L 628 4666 
z
" transform="scale(0.015625)"/>
      <path id="DejaVuSans-78" d="M 3513 3500 
L 2247 1797 
L 3578 0 
L 2900 0 
L 1881 1375 
L 863 0 
L 184 0 
L 1544 1831 
L 300 3500 
L 978 3500 
L 1906 2253 
L 2834 3500 
L 3513 3500 
z
" transform="scale(0.015625)"/>
     </defs>
     <use xlink:href="#DejaVuSans-41"/>
     <use xlink:href="#DejaVuSans-63" x="66.658203"/>
     <use xlink:href="#DejaVuSans-74" x="121.638672"/>
     <use xlink:href="#DejaVuSans-75" x="160.847656"/>
     <use xlink:href="#DejaVuSans-61" x="224.226562"/>
     <use xlink:href="#DejaVuSans-6c" x="285.505859"/>
     <use xlink:href="#DejaVuSans-20" x="313.289062"/>
     <use xlink:href="#DejaVuSans-73" x="345.076172"/>
     <use xlink:href="#DejaVuSans-70" x="397.175781"/>
     <use xlink:href="#DejaVuSans-65" x="460.652344"/>
     <use xlink:href="#DejaVuSans-65" x="522.175781"/>
     <use xlink:href="#DejaVuSans-64" x="583.699219"/>
     <use xlink:href="#DejaVuSans-20" x="647.175781"/>
     <use xlink:href="#DejaVuSans-76" x="678.962891"/>
     <use xlink:href="#DejaVuSans-73" x="738.142578"/>
     <use xlink:href="#DejaVuSans-20" x="790.242188"/>
     <use xlink:href="#DejaVuSans-45" x="822.029297"/>
     <use xlink:href="#DejaVuSans-78" x="885.212891"/>
     <use xlink:href="#DejaVuSans-70" x="944.392578"/>
     <use xlink:href="#DejaVuSans-65" x="1007.869141"/>
     <use xlink:href="#DejaVuSans-63" x="1069.392578"/>
     <use xlink:href="#DejaVuSans-74" x="1124.373047"/>
     <use xlink:href="#DejaVuSans-65" x="1163.582031"/>
     <use xlink:href="#DejaVuSans-64" x="1225.105469"/>
     <use xlink:href="#DejaVuSans-20" x="1288.582031"/>
     <use xlink:href="#DejaVuSans-73" x="1320.369141"/>
     <use xlink:href="#DejaVuSans-70" x="1372.46875"/>
     <use xlink:href="#DejaVuSans-65" x="1435.945312"/>
     <use xlink:href="#DejaVuSans-65" x="1497.46875"/>
     <use xlink:href="#DejaVuSans-64" x="1558.992188"/>
    </g>
   </g>
   <g id="legend_1">
    <g id="patch_7">
     <path d="M 64.6 302.584 
L 176.65 302.584 
Q 178.65 302.584 178.65 300.584 
L 178.65 272.22775 
Q 178.65 270.22775 176.65 270.22775 
L 64.6 270.22775 
Q 62.6 270.22775 62.6 272.22775 
L 62.6 300.584 
Q 62.6 302.584 64.6 302.584 
z
" style="fill: #ffffff; opacity: 0.8; stroke: #cccccc; stroke-linejoin: miter"/>
    </g>
    <g id="line2d_29">
     <path d="M 66.6 278.326187 
L 76.6 278.326187 
L 86.6 278.326187 
" style="fill: none; stroke: #1f77b4; stroke-width: 1.5; stroke-linecap: square"/>
    </g>
    <g id="text_17">
     <!-- Actual speed -->
     <g transform="translate(94.6 281.826187) scale(0.1 -0.1)">
      <use xlink:href="#DejaVuSans-41"/>
      <use xlink:href="#DejaVuSans-63" x="66.658203"/>
      <use xlink:href="#DejaVuSans-74" x="121.638672"/>
      <use xlink:href="#DejaVuSans-75" x="160.847656"/>
      <use xlink:href="#DejaVuSans-61" x="224.226562"/>
      <use xlink:href="#DejaVuSans-6c" x="285.505859"/>
      <use xlink:href="#DejaVuSans-20" x="313.289062"/>
      <use xlink:href="#DejaVuSans-73" x="345.076172"/>
      <use xlink:href="#DejaVuSans-70" x="397.175781"/>
      <use xlink:href="#DejaVuSans-65" x="460.652344"/>
      <use xlink:href="#DejaVuSans-65" x="522.175781"/>
      <use xlink:href="#DejaVuSans-64" x="583.699219"/>
     </g>
    </g>
    <g id="line2d_30">
     <path d="M 66.6 293.004312 
L 76.6 293.004312 
L 86.6 293.004312 
" style="fill: none; stroke: #ff7f0e; stroke-width: 1.5; stroke-linecap: square"/>
    </g>
    <g id="text_18">
     <!-- Expected speed -->
     <g transform="translate(94.6 296.504312) scale(0.1 -0.1)">
      <use xlink:href="#DejaVuSans-45"/>
      <use xlink:href="#DejaVuSans-78" x="63.183594"/>
      <use xlink:href="#DejaVuSans-70" x="122.363281"/>
      <use xlink:href="#DejaVuSans-65" x="185.839844"/>
      <use xlink:href="#DejaVuSans-63" x="247.363281"/>
      <use xlink:href="#DejaVuSans-74" x="302.34375"/>
      <use xlink:href="#DejaVuSans-65" x="341.552734"/>
      <use xlink:href="#DejaVuSans-64" x="403.076172"/>
      <use xlink:href="#DejaVuSans-20" x="466.552734"/>
      <use xlink:href="#DejaVuSans-73" x="498.339844"/>
      <use xlink:href="#DejaVuSans-70" x="550.439453"/>
      <use xlink:href="#DejaVuSans-65" x="613.916016"/>
      <use xlink:href="#DejaVuSans-65" x="675.439453"/>
      <use xlink:href="#DejaVuSans-64" x="736.962891"/>
     </g>
    </g>
   </g>
  </g>
 </g>
 <defs>
  <clipPath id="pf2314e94a0">
   <rect x="57.6" y="41.472" width="357.12" height="266.112"/>
  </clipPath>
 </defs>
</svg>
