<?xml version="1.0" encoding="utf-8" standalone="no"?>
<!DOCTYPE svg PUBLIC "-//W3C//DTD SVG 1.1//EN"
  "http://www.w3.org/Graphics/SVG/1.1/DTD/svg11.dtd">
<svg xmlns:xlink="http://www.w3.org/1999/xlink" width="460.8pt" height="345.6pt" viewBox="0 0 460.8 345.6" xmlns="http://www.w3.org/2000/svg" version="1.1">
 <metadata>
  <rdf:RDF xmlns:dc="http://purl.org/dc/elements/1.1/" xmlns:cc="http://creativecommons.org/ns#" xmlns:rdf="http://www.w3.org/1999/02/22-rdf-syntax-ns#">
   <cc:Work>
    <dc:type rdf:resource="http://purl.org/dc/dcmitype/StillImage"/>
    <dc:date>2024-01-30T20:58:55.001643</dc:date>
    <dc:format>image/svg+xml</dc:format>
    <dc:creator>
     <cc:Agent>
      <dc:title>Matplotlib v3.7.1, https://matplotlib.org/</dc:title>
     </cc:Agent>
    </dc:creator>
   </cc:Work>
  </rdf:RDF>
 </metadata>
 <defs>
  <style type="text/css">*{stroke-linejoin: round; stroke-linecap: butt}</style>
 </defs>
 <g id="figure_1">
  <g id="patch_1">
   <path d="M 0 345.6 
L 460.8 345.6 
L 460.8 0 
L 0 0 
z
" style="fill: #ffffff"/>
  </g>
  <g id="axes_1">
   <g id="patch_2">
    <path d="M 57.6 307.584 
L 414.72 307.584 
L 414.72 41.472 
L 57.6 41.472 
z
" style="fill: #ffffff"/>
   </g>
   <g id="matplotlib.axis_1">
    <g id="xtick_1">
     <g id="line2d_1">
      <path d="M 73.832727 307.584 
L 73.832727 41.472 
" clip-path="url(#p80ea764944)" style="fill: none; stroke: #b0b0b0; stroke-width: 0.8; stroke-linecap: square"/>
     </g>
     <g id="line2d_2">
      <defs>
       <path id="mbe46b36623" d="M 0 0 
L 0 3.5 
" style="stroke: #000000; stroke-width: 0.8"/>
      </defs>
      <g>
       <use xlink:href="#mbe46b36623" x="73.832727" y="307.584" style="stroke: #000000; stroke-width: 0.8"/>
      </g>
     </g>
     <g id="text_1">
      <!-- 0 -->
      <g transform="translate(70.651477 322.182437) scale(0.1 -0.1)">
       <defs>
        <path id="DejaVuSans-30" d="M 2034 4250 
Q 1547 4250 1301 3770 
Q 1056 3291 1056 2328 
Q 1056 1369 1301 889 
Q 1547 409 2034 409 
Q 2525 409 2770 889 
Q 3016 1369 3016 2328 
Q 3016 3291 2770 3770 
Q 2525 4250 2034 4250 
z
M 2034 4750 
Q 2819 4750 3233 4129 
Q 3647 3509 3647 2328 
Q 3647 1150 3233 529 
Q 2819 -91 2034 -91 
Q 1250 -91 836 529 
Q 422 1150 422 2328 
Q 422 3509 836 4129 
Q 1250 4750 2034 4750 
z
" transform="scale(0.015625)"/>
       </defs>
       <use xlink:href="#DejaVuSans-30"/>
      </g>
     </g>
    </g>
    <g id="xtick_2">
     <g id="line2d_3">
      <path d="M 118.015436 307.584 
L 118.015436 41.472 
" clip-path="url(#p80ea764944)" style="fill: none; stroke: #b0b0b0; stroke-width: 0.8; stroke-linecap: square"/>
     </g>
     <g id="line2d_4">
      <g>
       <use xlink:href="#mbe46b36623" x="118.015436" y="307.584" style="stroke: #000000; stroke-width: 0.8"/>
      </g>
     </g>
     <g id="text_2">
      <!-- 5 -->
      <g transform="translate(114.834186 322.182437) scale(0.1 -0.1)">
       <defs>
        <path id="DejaVuSans-35" d="M 691 4666 
L 3169 4666 
L 3169 4134 
L 1269 4134 
L 1269 2991 
Q 1406 3038 1543 3061 
Q 1681 3084 1819 3084 
Q 2600 3084 3056 2656 
Q 3513 2228 3513 1497 
Q 3513 744 3044 326 
Q 2575 -91 1722 -91 
Q 1428 -91 1123 -41 
Q 819 9 494 109 
L 494 744 
Q 775 591 1075 516 
Q 1375 441 1709 441 
Q 2250 441 2565 725 
Q 2881 1009 2881 1497 
Q 2881 1984 2565 2268 
Q 2250 2553 1709 2553 
Q 1456 2553 1204 2497 
Q 953 2441 691 2322 
L 691 4666 
z
" transform="scale(0.015625)"/>
       </defs>
       <use xlink:href="#DejaVuSans-35"/>
      </g>
     </g>
    </g>
    <g id="xtick_3">
     <g id="line2d_5">
      <path d="M 162.198145 307.584 
L 162.198145 41.472 
" clip-path="url(#p80ea764944)" style="fill: none; stroke: #b0b0b0; stroke-width: 0.8; stroke-linecap: square"/>
     </g>
     <g id="line2d_6">
      <g>
       <use xlink:href="#mbe46b36623" x="162.198145" y="307.584" style="stroke: #000000; stroke-width: 0.8"/>
      </g>
     </g>
     <g id="text_3">
      <!-- 10 -->
      <g transform="translate(155.835645 322.182437) scale(0.1 -0.1)">
       <defs>
        <path id="DejaVuSans-31" d="M 794 531 
L 1825 531 
L 1825 4091 
L 703 3866 
L 703 4441 
L 1819 4666 
L 2450 4666 
L 2450 531 
L 3481 531 
L 3481 0 
L 794 0 
L 794 531 
z
" transform="scale(0.015625)"/>
       </defs>
       <use xlink:href="#DejaVuSans-31"/>
       <use xlink:href="#DejaVuSans-30" x="63.623047"/>
      </g>
     </g>
    </g>
    <g id="xtick_4">
     <g id="line2d_7">
      <path d="M 206.380854 307.584 
L 206.380854 41.472 
" clip-path="url(#p80ea764944)" style="fill: none; stroke: #b0b0b0; stroke-width: 0.8; stroke-linecap: square"/>
     </g>
     <g id="line2d_8">
      <g>
       <use xlink:href="#mbe46b36623" x="206.380854" y="307.584" style="stroke: #000000; stroke-width: 0.8"/>
      </g>
     </g>
     <g id="text_4">
      <!-- 15 -->
      <g transform="translate(200.018354 322.182437) scale(0.1 -0.1)">
       <use xlink:href="#DejaVuSans-31"/>
       <use xlink:href="#DejaVuSans-35" x="63.623047"/>
      </g>
     </g>
    </g>
    <g id="xtick_5">
     <g id="line2d_9">
      <path d="M 250.563563 307.584 
L 250.563563 41.472 
" clip-path="url(#p80ea764944)" style="fill: none; stroke: #b0b0b0; stroke-width: 0.8; stroke-linecap: square"/>
     </g>
     <g id="line2d_10">
      <g>
       <use xlink:href="#mbe46b36623" x="250.563563" y="307.584" style="stroke: #000000; stroke-width: 0.8"/>
      </g>
     </g>
     <g id="text_5">
      <!-- 20 -->
      <g transform="translate(244.201063 322.182437) scale(0.1 -0.1)">
       <defs>
        <path id="DejaVuSans-32" d="M 1228 531 
L 3431 531 
L 3431 0 
L 469 0 
L 469 531 
Q 828 903 1448 1529 
Q 2069 2156 2228 2338 
Q 2531 2678 2651 2914 
Q 2772 3150 2772 3378 
Q 2772 3750 2511 3984 
Q 2250 4219 1831 4219 
Q 1534 4219 1204 4116 
Q 875 4013 500 3803 
L 500 4441 
Q 881 4594 1212 4672 
Q 1544 4750 1819 4750 
Q 2544 4750 2975 4387 
Q 3406 4025 3406 3419 
Q 3406 3131 3298 2873 
Q 3191 2616 2906 2266 
Q 2828 2175 2409 1742 
Q 1991 1309 1228 531 
z
" transform="scale(0.015625)"/>
       </defs>
       <use xlink:href="#DejaVuSans-32"/>
       <use xlink:href="#DejaVuSans-30" x="63.623047"/>
      </g>
     </g>
    </g>
    <g id="xtick_6">
     <g id="line2d_11">
      <path d="M 294.746272 307.584 
L 294.746272 41.472 
" clip-path="url(#p80ea764944)" style="fill: none; stroke: #b0b0b0; stroke-width: 0.8; stroke-linecap: square"/>
     </g>
     <g id="line2d_12">
      <g>
       <use xlink:href="#mbe46b36623" x="294.746272" y="307.584" style="stroke: #000000; stroke-width: 0.8"/>
      </g>
     </g>
     <g id="text_6">
      <!-- 25 -->
      <g transform="translate(288.383772 322.182437) scale(0.1 -0.1)">
       <use xlink:href="#DejaVuSans-32"/>
       <use xlink:href="#DejaVuSans-35" x="63.623047"/>
      </g>
     </g>
    </g>
    <g id="xtick_7">
     <g id="line2d_13">
      <path d="M 338.928981 307.584 
L 338.928981 41.472 
" clip-path="url(#p80ea764944)" style="fill: none; stroke: #b0b0b0; stroke-width: 0.8; stroke-linecap: square"/>
     </g>
     <g id="line2d_14">
      <g>
       <use xlink:href="#mbe46b36623" x="338.928981" y="307.584" style="stroke: #000000; stroke-width: 0.8"/>
      </g>
     </g>
     <g id="text_7">
      <!-- 30 -->
      <g transform="translate(332.566481 322.182437) scale(0.1 -0.1)">
       <defs>
        <path id="DejaVuSans-33" d="M 2597 2516 
Q 3050 2419 3304 2112 
Q 3559 1806 3559 1356 
Q 3559 666 3084 287 
Q 2609 -91 1734 -91 
Q 1441 -91 1130 -33 
Q 819 25 488 141 
L 488 750 
Q 750 597 1062 519 
Q 1375 441 1716 441 
Q 2309 441 2620 675 
Q 2931 909 2931 1356 
Q 2931 1769 2642 2001 
Q 2353 2234 1838 2234 
L 1294 2234 
L 1294 2753 
L 1863 2753 
Q 2328 2753 2575 2939 
Q 2822 3125 2822 3475 
Q 2822 3834 2567 4026 
Q 2313 4219 1838 4219 
Q 1578 4219 1281 4162 
Q 984 4106 628 3988 
L 628 4550 
Q 988 4650 1302 4700 
Q 1616 4750 1894 4750 
Q 2613 4750 3031 4423 
Q 3450 4097 3450 3541 
Q 3450 3153 3228 2886 
Q 3006 2619 2597 2516 
z
" transform="scale(0.015625)"/>
       </defs>
       <use xlink:href="#DejaVuSans-33"/>
       <use xlink:href="#DejaVuSans-30" x="63.623047"/>
      </g>
     </g>
    </g>
    <g id="xtick_8">
     <g id="line2d_15">
      <path d="M 383.11169 307.584 
L 383.11169 41.472 
" clip-path="url(#p80ea764944)" style="fill: none; stroke: #b0b0b0; stroke-width: 0.8; stroke-linecap: square"/>
     </g>
     <g id="line2d_16">
      <g>
       <use xlink:href="#mbe46b36623" x="383.11169" y="307.584" style="stroke: #000000; stroke-width: 0.8"/>
      </g>
     </g>
     <g id="text_8">
      <!-- 35 -->
      <g transform="translate(376.74919 322.182437) scale(0.1 -0.1)">
       <use xlink:href="#DejaVuSans-33"/>
       <use xlink:href="#DejaVuSans-35" x="63.623047"/>
      </g>
     </g>
    </g>
    <g id="text_9">
     <!-- Time(s) -->
     <g transform="translate(217.420156 335.860562) scale(0.1 -0.1)">
      <defs>
       <path id="DejaVuSans-54" d="M -19 4666 
L 3928 4666 
L 3928 4134 
L 2272 4134 
L 2272 0 
L 1638 0 
L 1638 4134 
L -19 4134 
L -19 4666 
z
" transform="scale(0.015625)"/>
       <path id="DejaVuSans-69" d="M 603 3500 
L 1178 3500 
L 1178 0 
L 603 0 
L 603 3500 
z
M 603 4863 
L 1178 4863 
L 1178 4134 
L 603 4134 
L 603 4863 
z
" transform="scale(0.015625)"/>
       <path id="DejaVuSans-6d" d="M 3328 2828 
Q 3544 3216 3844 3400 
Q 4144 3584 4550 3584 
Q 5097 3584 5394 3201 
Q 5691 2819 5691 2113 
L 5691 0 
L 5113 0 
L 5113 2094 
Q 5113 2597 4934 2840 
Q 4756 3084 4391 3084 
Q 3944 3084 3684 2787 
Q 3425 2491 3425 1978 
L 3425 0 
L 2847 0 
L 2847 2094 
Q 2847 2600 2669 2842 
Q 2491 3084 2119 3084 
Q 1678 3084 1418 2786 
Q 1159 2488 1159 1978 
L 1159 0 
L 581 0 
L 581 3500 
L 1159 3500 
L 1159 2956 
Q 1356 3278 1631 3431 
Q 1906 3584 2284 3584 
Q 2666 3584 2933 3390 
Q 3200 3197 3328 2828 
z
" transform="scale(0.015625)"/>
       <path id="DejaVuSans-65" d="M 3597 1894 
L 3597 1613 
L 953 1613 
Q 991 1019 1311 708 
Q 1631 397 2203 397 
Q 2534 397 2845 478 
Q 3156 559 3463 722 
L 3463 178 
Q 3153 47 2828 -22 
Q 2503 -91 2169 -91 
Q 1331 -91 842 396 
Q 353 884 353 1716 
Q 353 2575 817 3079 
Q 1281 3584 2069 3584 
Q 2775 3584 3186 3129 
Q 3597 2675 3597 1894 
z
M 3022 2063 
Q 3016 2534 2758 2815 
Q 2500 3097 2075 3097 
Q 1594 3097 1305 2825 
Q 1016 2553 972 2059 
L 3022 2063 
z
" transform="scale(0.015625)"/>
       <path id="DejaVuSans-28" d="M 1984 4856 
Q 1566 4138 1362 3434 
Q 1159 2731 1159 2009 
Q 1159 1288 1364 580 
Q 1569 -128 1984 -844 
L 1484 -844 
Q 1016 -109 783 600 
Q 550 1309 550 2009 
Q 550 2706 781 3412 
Q 1013 4119 1484 4856 
L 1984 4856 
z
" transform="scale(0.015625)"/>
       <path id="DejaVuSans-73" d="M 2834 3397 
L 2834 2853 
Q 2591 2978 2328 3040 
Q 2066 3103 1784 3103 
Q 1356 3103 1142 2972 
Q 928 2841 928 2578 
Q 928 2378 1081 2264 
Q 1234 2150 1697 2047 
L 1894 2003 
Q 2506 1872 2764 1633 
Q 3022 1394 3022 966 
Q 3022 478 2636 193 
Q 2250 -91 1575 -91 
Q 1294 -91 989 -36 
Q 684 19 347 128 
L 347 722 
Q 666 556 975 473 
Q 1284 391 1588 391 
Q 1994 391 2212 530 
Q 2431 669 2431 922 
Q 2431 1156 2273 1281 
Q 2116 1406 1581 1522 
L 1381 1569 
Q 847 1681 609 1914 
Q 372 2147 372 2553 
Q 372 3047 722 3315 
Q 1072 3584 1716 3584 
Q 2034 3584 2315 3537 
Q 2597 3491 2834 3397 
z
" transform="scale(0.015625)"/>
       <path id="DejaVuSans-29" d="M 513 4856 
L 1013 4856 
Q 1481 4119 1714 3412 
Q 1947 2706 1947 2009 
Q 1947 1309 1714 600 
Q 1481 -109 1013 -844 
L 513 -844 
Q 928 -128 1133 580 
Q 1338 1288 1338 2009 
Q 1338 2731 1133 3434 
Q 928 4138 513 4856 
z
" transform="scale(0.015625)"/>
      </defs>
      <use xlink:href="#DejaVuSans-54"/>
      <use xlink:href="#DejaVuSans-69" x="57.958984"/>
      <use xlink:href="#DejaVuSans-6d" x="85.742188"/>
      <use xlink:href="#DejaVuSans-65" x="183.154297"/>
      <use xlink:href="#DejaVuSans-28" x="244.677734"/>
      <use xlink:href="#DejaVuSans-73" x="283.691406"/>
      <use xlink:href="#DejaVuSans-29" x="335.791016"/>
     </g>
    </g>
   </g>
   <g id="matplotlib.axis_2">
    <g id="ytick_1">
     <g id="line2d_17">
      <path d="M 57.6 276.946006 
L 414.72 276.946006 
" clip-path="url(#p80ea764944)" style="fill: none; stroke: #b0b0b0; stroke-width: 0.8; stroke-linecap: square"/>
     </g>
     <g id="line2d_18">
      <defs>
       <path id="m6c86163997" d="M 0 0 
L -3.5 0 
" style="stroke: #000000; stroke-width: 0.8"/>
      </defs>
      <g>
       <use xlink:href="#m6c86163997" x="57.6" y="276.946006" style="stroke: #000000; stroke-width: 0.8"/>
      </g>
     </g>
     <g id="text_10">
      <!-- 4 -->
      <g transform="translate(44.2375 280.745225) scale(0.1 -0.1)">
       <defs>
        <path id="DejaVuSans-34" d="M 2419 4116 
L 825 1625 
L 2419 1625 
L 2419 4116 
z
M 2253 4666 
L 3047 4666 
L 3047 1625 
L 3713 1625 
L 3713 1100 
L 3047 1100 
L 3047 0 
L 2419 0 
L 2419 1100 
L 313 1100 
L 313 1709 
L 2253 4666 
z
" transform="scale(0.015625)"/>
       </defs>
       <use xlink:href="#DejaVuSans-34"/>
      </g>
     </g>
    </g>
    <g id="ytick_2">
     <g id="line2d_19">
      <path d="M 57.6 221.101505 
L 414.72 221.101505 
" clip-path="url(#p80ea764944)" style="fill: none; stroke: #b0b0b0; stroke-width: 0.8; stroke-linecap: square"/>
     </g>
     <g id="line2d_20">
      <g>
       <use xlink:href="#m6c86163997" x="57.6" y="221.101505" style="stroke: #000000; stroke-width: 0.8"/>
      </g>
     </g>
     <g id="text_11">
      <!-- 5 -->
      <g transform="translate(44.2375 224.900723) scale(0.1 -0.1)">
       <use xlink:href="#DejaVuSans-35"/>
      </g>
     </g>
    </g>
    <g id="ytick_3">
     <g id="line2d_21">
      <path d="M 57.6 165.257003 
L 414.72 165.257003 
" clip-path="url(#p80ea764944)" style="fill: none; stroke: #b0b0b0; stroke-width: 0.8; stroke-linecap: square"/>
     </g>
     <g id="line2d_22">
      <g>
       <use xlink:href="#m6c86163997" x="57.6" y="165.257003" style="stroke: #000000; stroke-width: 0.8"/>
      </g>
     </g>
     <g id="text_12">
      <!-- 6 -->
      <g transform="translate(44.2375 169.056222) scale(0.1 -0.1)">
       <defs>
        <path id="DejaVuSans-36" d="M 2113 2584 
Q 1688 2584 1439 2293 
Q 1191 2003 1191 1497 
Q 1191 994 1439 701 
Q 1688 409 2113 409 
Q 2538 409 2786 701 
Q 3034 994 3034 1497 
Q 3034 2003 2786 2293 
Q 2538 2584 2113 2584 
z
M 3366 4563 
L 3366 3988 
Q 3128 4100 2886 4159 
Q 2644 4219 2406 4219 
Q 1781 4219 1451 3797 
Q 1122 3375 1075 2522 
Q 1259 2794 1537 2939 
Q 1816 3084 2150 3084 
Q 2853 3084 3261 2657 
Q 3669 2231 3669 1497 
Q 3669 778 3244 343 
Q 2819 -91 2113 -91 
Q 1303 -91 875 529 
Q 447 1150 447 2328 
Q 447 3434 972 4092 
Q 1497 4750 2381 4750 
Q 2619 4750 2861 4703 
Q 3103 4656 3366 4563 
z
" transform="scale(0.015625)"/>
       </defs>
       <use xlink:href="#DejaVuSans-36"/>
      </g>
     </g>
    </g>
    <g id="ytick_4">
     <g id="line2d_23">
      <path d="M 57.6 109.412502 
L 414.72 109.412502 
" clip-path="url(#p80ea764944)" style="fill: none; stroke: #b0b0b0; stroke-width: 0.8; stroke-linecap: square"/>
     </g>
     <g id="line2d_24">
      <g>
       <use xlink:href="#m6c86163997" x="57.6" y="109.412502" style="stroke: #000000; stroke-width: 0.8"/>
      </g>
     </g>
     <g id="text_13">
      <!-- 7 -->
      <g transform="translate(44.2375 113.21172) scale(0.1 -0.1)">
       <defs>
        <path id="DejaVuSans-37" d="M 525 4666 
L 3525 4666 
L 3525 4397 
L 1831 0 
L 1172 0 
L 2766 4134 
L 525 4134 
L 525 4666 
z
" transform="scale(0.015625)"/>
       </defs>
       <use xlink:href="#DejaVuSans-37"/>
      </g>
     </g>
    </g>
    <g id="ytick_5">
     <g id="line2d_25">
      <path d="M 57.6 53.568 
L 414.72 53.568 
" clip-path="url(#p80ea764944)" style="fill: none; stroke: #b0b0b0; stroke-width: 0.8; stroke-linecap: square"/>
     </g>
     <g id="line2d_26">
      <g>
       <use xlink:href="#m6c86163997" x="57.6" y="53.568" style="stroke: #000000; stroke-width: 0.8"/>
      </g>
     </g>
     <g id="text_14">
      <!-- 8 -->
      <g transform="translate(44.2375 57.367219) scale(0.1 -0.1)">
       <defs>
        <path id="DejaVuSans-38" d="M 2034 2216 
Q 1584 2216 1326 1975 
Q 1069 1734 1069 1313 
Q 1069 891 1326 650 
Q 1584 409 2034 409 
Q 2484 409 2743 651 
Q 3003 894 3003 1313 
Q 3003 1734 2745 1975 
Q 2488 2216 2034 2216 
z
M 1403 2484 
Q 997 2584 770 2862 
Q 544 3141 544 3541 
Q 544 4100 942 4425 
Q 1341 4750 2034 4750 
Q 2731 4750 3128 4425 
Q 3525 4100 3525 3541 
Q 3525 3141 3298 2862 
Q 3072 2584 2669 2484 
Q 3125 2378 3379 2068 
Q 3634 1759 3634 1313 
Q 3634 634 3220 271 
Q 2806 -91 2034 -91 
Q 1263 -91 848 271 
Q 434 634 434 1313 
Q 434 1759 690 2068 
Q 947 2378 1403 2484 
z
M 1172 3481 
Q 1172 3119 1398 2916 
Q 1625 2713 2034 2713 
Q 2441 2713 2670 2916 
Q 2900 3119 2900 3481 
Q 2900 3844 2670 4047 
Q 2441 4250 2034 4250 
Q 1625 4250 1398 4047 
Q 1172 3844 1172 3481 
z
" transform="scale(0.015625)"/>
       </defs>
       <use xlink:href="#DejaVuSans-38"/>
      </g>
     </g>
    </g>
    <g id="text_15">
     <!-- Velocity(m/s) -->
     <g transform="translate(38.157812 207.204563) rotate(-90) scale(0.1 -0.1)">
      <defs>
       <path id="DejaVuSans-56" d="M 1831 0 
L 50 4666 
L 709 4666 
L 2188 738 
L 3669 4666 
L 4325 4666 
L 2547 0 
L 1831 0 
z
" transform="scale(0.015625)"/>
       <path id="DejaVuSans-6c" d="M 603 4863 
L 1178 4863 
L 1178 0 
L 603 0 
L 603 4863 
z
" transform="scale(0.015625)"/>
       <path id="DejaVuSans-6f" d="M 1959 3097 
Q 1497 3097 1228 2736 
Q 959 2375 959 1747 
Q 959 1119 1226 758 
Q 1494 397 1959 397 
Q 2419 397 2687 759 
Q 2956 1122 2956 1747 
Q 2956 2369 2687 2733 
Q 2419 3097 1959 3097 
z
M 1959 3584 
Q 2709 3584 3137 3096 
Q 3566 2609 3566 1747 
Q 3566 888 3137 398 
Q 2709 -91 1959 -91 
Q 1206 -91 779 398 
Q 353 888 353 1747 
Q 353 2609 779 3096 
Q 1206 3584 1959 3584 
z
" transform="scale(0.015625)"/>
       <path id="DejaVuSans-63" d="M 3122 3366 
L 3122 2828 
Q 2878 2963 2633 3030 
Q 2388 3097 2138 3097 
Q 1578 3097 1268 2742 
Q 959 2388 959 1747 
Q 959 1106 1268 751 
Q 1578 397 2138 397 
Q 2388 397 2633 464 
Q 2878 531 3122 666 
L 3122 134 
Q 2881 22 2623 -34 
Q 2366 -91 2075 -91 
Q 1284 -91 818 406 
Q 353 903 353 1747 
Q 353 2603 823 3093 
Q 1294 3584 2113 3584 
Q 2378 3584 2631 3529 
Q 2884 3475 3122 3366 
z
" transform="scale(0.015625)"/>
       <path id="DejaVuSans-74" d="M 1172 4494 
L 1172 3500 
L 2356 3500 
L 2356 3053 
L 1172 3053 
L 1172 1153 
Q 1172 725 1289 603 
Q 1406 481 1766 481 
L 2356 481 
L 2356 0 
L 1766 0 
Q 1100 0 847 248 
Q 594 497 594 1153 
L 594 3053 
L 172 3053 
L 172 3500 
L 594 3500 
L 594 4494 
L 1172 4494 
z
" transform="scale(0.015625)"/>
       <path id="DejaVuSans-79" d="M 2059 -325 
Q 1816 -950 1584 -1140 
Q 1353 -1331 966 -1331 
L 506 -1331 
L 506 -850 
L 844 -850 
Q 1081 -850 1212 -737 
Q 1344 -625 1503 -206 
L 1606 56 
L 191 3500 
L 800 3500 
L 1894 763 
L 2988 3500 
L 3597 3500 
L 2059 -325 
z
" transform="scale(0.015625)"/>
       <path id="DejaVuSans-2f" d="M 1625 4666 
L 2156 4666 
L 531 -594 
L 0 -594 
L 1625 4666 
z
" transform="scale(0.015625)"/>
      </defs>
      <use xlink:href="#DejaVuSans-56"/>
      <use xlink:href="#DejaVuSans-65" x="60.658203"/>
      <use xlink:href="#DejaVuSans-6c" x="122.181641"/>
      <use xlink:href="#DejaVuSans-6f" x="149.964844"/>
      <use xlink:href="#DejaVuSans-63" x="211.146484"/>
      <use xlink:href="#DejaVuSans-69" x="266.126953"/>
      <use xlink:href="#DejaVuSans-74" x="293.910156"/>
      <use xlink:href="#DejaVuSans-79" x="333.119141"/>
      <use xlink:href="#DejaVuSans-28" x="392.298828"/>
      <use xlink:href="#DejaVuSans-6d" x="431.3125"/>
      <use xlink:href="#DejaVuSans-2f" x="528.724609"/>
      <use xlink:href="#DejaVuSans-73" x="562.416016"/>
      <use xlink:href="#DejaVuSans-29" x="614.515625"/>
     </g>
    </g>
   </g>
   <g id="line2d_27">
    <path d="M 73.832727 53.76474 
L 76.306959 53.61826 
L 76.306959 53.61826 
L 82.315807 53.569843 
L 82.315807 53.569843 
L 92.389465 53.568 
L 92.389465 53.568 
L 92.919658 59.204776 
L 92.919658 59.204776 
L 93.273119 69.289009 
L 93.273119 69.289009 
L 93.626581 80.301768 
L 93.626581 80.301768 
L 95.924082 141.211645 
L 95.924082 141.211645 
L 97.161198 164.691298 
L 97.161198 164.691298 
L 98.575044 183.939167 
L 98.575044 183.939167 
L 99.81216 193.99235 
L 99.81216 193.99235 
L 100.519083 197.425725 
L 100.519083 197.425725 
L 101.049276 198.762866 
L 101.049276 198.762866 
L 101.579469 199.305284 
L 101.579469 199.305284 
L 102.109661 199.374196 
L 102.109661 199.374196 
L 102.463123 199.421887 
L 102.463123 199.421887 
L 102.993315 199.378831 
L 102.993315 199.378831 
L 103.523508 199.007298 
L 103.523508 199.007298 
L 104.407162 196.830367 
L 104.407162 196.830367 
L 104.760624 195.402647 
L 104.760624 195.402647 
L 105.114085 193.486901 
L 105.114085 193.486901 
L 106.17447 182.22044 
L 106.17447 182.22044 
L 106.704663 173.754637 
L 106.704663 173.754637 
L 107.588317 154.95615 
L 107.588317 154.95615 
L 108.118509 149.282963 
L 108.118509 149.282963 
L 108.471971 147.140656 
L 108.471971 147.140656 
L 109.002164 145.727343 
L 109.002164 145.727343 
L 109.532356 145.142372 
L 109.532356 145.142372 
L 110.062549 144.885878 
L 110.062549 144.885878 
L 110.769472 144.599843 
L 110.769472 144.599843 
L 111.476395 144.357087 
L 111.476395 144.357087 
L 112.183319 143.559013 
L 112.183319 143.559013 
L 112.53678 142.992582 
L 112.53678 142.992582 
L 113.420435 140.197788 
L 113.420435 140.197788 
L 114.127358 135.90262 
L 114.127358 135.90262 
L 114.48082 133.142394 
L 114.48082 133.142394 
L 115.717935 118.885237 
L 115.717935 118.885237 
L 115.894666 118.158588 
L 115.894666 118.158588 
L 116.071397 118.077334 
L 116.071397 118.077334 
L 118.015436 153.562997 
L 118.015436 153.562997 
L 118.72236 162.040695 
L 118.72236 162.040695 
L 119.429283 167.044027 
L 119.429283 167.044027 
L 119.959475 169.274066 
L 119.959475 169.274066 
L 120.489668 170.36052 
L 120.489668 170.36052 
L 120.666399 170.535928 
L 120.666399 170.535928 
L 120.84313 170.87764 
L 120.84313 170.87764 
L 121.01986 170.873173 
L 121.01986 170.873173 
L 121.726784 171.394258 
L 121.726784 171.394258 
L 122.080245 171.307643 
L 122.080245 171.307643 
L 122.610438 171.392694 
L 122.610438 171.392694 
L 123.847554 171.127321 
L 123.847554 171.127321 
L 124.377746 170.711 
L 124.377746 170.711 
L 125.08467 170.138594 
L 125.08467 170.138594 
L 127.028709 167.473136 
L 127.028709 167.473136 
L 127.735632 166.145712 
L 127.735632 166.145712 
L 130.386595 158.318324 
L 130.386595 158.318324 
L 132.507365 149.182107 
L 132.507365 149.182107 
L 133.214288 145.645922 
L 133.214288 145.645922 
L 135.68852 130.158008 
L 135.68852 130.158008 
L 137.632559 113.203115 
L 137.632559 113.203115 
L 138.516213 103.760089 
L 138.516213 103.760089 
L 140.990445 71.567241 
L 140.990445 71.567241 
L 141.697368 65.757682 
L 141.697368 65.757682 
L 142.404292 61.823213 
L 142.404292 61.823213 
L 143.111215 59.158705 
L 143.111215 59.158705 
L 143.818138 57.354201 
L 143.818138 57.354201 
L 144.525062 56.132156 
L 144.525062 56.132156 
L 145.231985 55.304541 
L 145.231985 55.304541 
L 146.115639 54.634853 
L 146.115639 54.634853 
L 147.176024 54.162576 
L 147.176024 54.162576 
L 148.41314 53.868611 
L 148.41314 53.868611 
L 150.357179 53.670921 
L 150.357179 53.670921 
L 150.887372 53.644842 
L 150.887372 53.644842 
L 151.064103 54.92329 
L 151.064103 54.92329 
L 151.417564 62.721416 
L 151.417564 62.721416 
L 151.947757 78.007118 
L 151.947757 78.007118 
L 154.245258 144.599787 
L 154.245258 144.599787 
L 156.012566 185.245258 
L 156.012566 185.245258 
L 157.426413 210.266331 
L 157.426413 210.266331 
L 159.547183 233.62765 
L 159.547183 233.62765 
L 160.961029 242.507875 
L 160.961029 242.507875 
L 162.021414 245.803426 
L 162.021414 245.803426 
L 162.728338 246.900491 
L 162.728338 246.900491 
L 163.081799 247.157264 
L 163.081799 247.157264 
L 164.849108 247.348755 
L 164.849108 247.348755 
L 165.3793 247.170276 
L 165.3793 247.170276 
L 165.909493 246.786457 
L 165.909493 246.786457 
L 166.616416 245.786952 
L 166.616416 245.786952 
L 167.50007 243.524636 
L 167.50007 243.524636 
L 168.030263 241.994496 
L 168.030263 241.994496 
L 168.737186 239.163906 
L 168.737186 239.163906 
L 169.444109 235.544735 
L 169.444109 235.544735 
L 170.151033 231.111576 
L 170.151033 231.111576 
L 170.857956 226.022187 
L 170.857956 226.022187 
L 171.564879 220.355701 
L 171.564879 220.355701 
L 172.448534 212.698247 
L 172.448534 212.698247 
L 174.922765 187.520586 
L 174.922765 187.520586 
L 176.866805 166.697289 
L 176.866805 166.697289 
L 178.10392 153.90147 
L 178.10392 153.90147 
L 179.517767 138.490622 
L 179.517767 138.490622 
L 180.22469 129.157386 
L 180.22469 129.157386 
L 181.461806 106.131358 
L 181.461806 106.131358 
L 182.34546 88.795047 
L 182.34546 88.795047 
L 182.522191 87.329519 
L 182.522191 87.329519 
L 182.875653 86.694623 
L 182.875653 86.694623 
L 183.052384 88.157414 
L 183.052384 88.157414 
L 183.405845 97.31837 
L 183.405845 97.31837 
L 183.759307 105.771887 
L 183.759307 105.771887 
L 185.526616 162.195552 
L 185.526616 162.195552 
L 185.880077 170.844971 
L 185.880077 170.844971 
L 186.233539 181.550362 
L 186.233539 181.550362 
L 186.763731 195.080424 
L 186.763731 195.080424 
L 187.470655 211.800491 
L 187.470655 211.800491 
L 187.824116 219.657254 
L 187.824116 219.657254 
L 188.354309 230.727924 
L 188.354309 230.727924 
L 188.53104 232.795511 
L 188.53104 232.795511 
L 188.884501 238.676328 
L 188.884501 238.676328 
L 191.005271 262.013298 
L 191.005271 262.013298 
L 191.535464 265.814522 
L 191.535464 265.814522 
L 192.595849 270.702702 
L 192.595849 270.702702 
L 193.126041 272.365193 
L 193.126041 272.365193 
L 193.479503 272.992271 
L 193.479503 272.992271 
L 194.009696 273.845631 
L 194.009696 273.845631 
L 194.539888 274.315451 
L 194.539888 274.315451 
L 194.89335 274.530675 
L 194.89335 274.530675 
L 195.600273 274.594171 
L 195.600273 274.594171 
L 196.307197 274.631698 
L 196.307197 274.631698 
L 197.190851 274.44205 
L 197.190851 274.44205 
L 198.074505 273.574506 
L 198.074505 273.574506 
L 198.604697 272.524573 
L 198.604697 272.524573 
L 198.958159 271.728007 
L 198.958159 271.728007 
L 199.665082 269.405267 
L 199.665082 269.405267 
L 201.25566 259.712449 
L 201.25566 259.712449 
L 201.962583 253.59943 
L 201.962583 253.59943 
L 202.492776 248.173746 
L 202.492776 248.173746 
L 204.436815 221.277638 
L 204.436815 221.277638 
L 205.850662 192.622987 
L 205.850662 192.622987 
L 206.734316 170.090624 
L 206.734316 170.090624 
L 208.855086 109.642302 
L 208.855086 109.642302 
L 209.562009 91.543322 
L 209.562009 91.543322 
L 210.268933 79.286124 
L 210.268933 79.286124 
L 210.975856 70.985118 
L 210.975856 70.985118 
L 211.682779 65.36342 
L 211.682779 65.36342 
L 212.389703 61.556221 
L 212.389703 61.556221 
L 213.096626 58.97788 
L 213.096626 58.97788 
L 213.803549 57.231734 
L 213.803549 57.231734 
L 214.510473 56.049227 
L 214.510473 56.049227 
L 215.040665 55.420306 
L 215.040665 55.420306 
L 215.394127 56.793299 
L 215.394127 56.793299 
L 215.747588 61.133757 
L 215.747588 61.133757 
L 219.635667 143.987954 
L 219.635667 143.987954 
L 222.109899 183.92018 
L 222.109899 183.92018 
L 222.640091 189.783796 
L 222.640091 189.783796 
L 224.053938 200.555363 
L 224.053938 200.555363 
L 224.58413 202.745473 
L 224.58413 202.745473 
L 225.114323 204.180844 
L 225.114323 204.180844 
L 225.644515 204.904309 
L 225.644515 204.904309 
L 226.528169 205.236137 
L 226.528169 205.236137 
L 227.058362 205.334368 
L 227.058362 205.334368 
L 227.588554 205.185319 
L 227.588554 205.185319 
L 228.295478 204.626148 
L 228.295478 204.626148 
L 229.002401 203.3563 
L 229.002401 203.3563 
L 229.532594 201.654885 
L 229.532594 201.654885 
L 230.592979 194.498971 
L 230.592979 194.498971 
L 231.476633 184.715852 
L 231.476633 184.715852 
L 232.713749 161.301425 
L 232.713749 161.301425 
L 235.364711 90.251583 
L 235.364711 90.251583 
L 236.071635 78.41132 
L 236.071635 78.41132 
L 236.778558 70.392664 
L 236.778558 70.392664 
L 237.485481 64.962233 
L 237.485481 64.962233 
L 238.192405 61.284537 
L 238.192405 61.284537 
L 238.899328 58.793873 
L 238.899328 58.793873 
L 239.606251 57.107145 
L 239.606251 57.107145 
L 240.313175 55.96479 
L 240.313175 55.96479 
L 241.020098 55.191176 
L 241.020098 55.191176 
L 241.37356 54.9038 
L 241.37356 54.9038 
L 241.55029 55.107968 
L 241.55029 55.107968 
L 241.727021 56.271321 
L 241.727021 56.271321 
L 242.787406 70.401767 
L 242.787406 70.401767 
L 243.49433 80.831174 
L 243.49433 80.831174 
L 243.847791 86.28143 
L 243.847791 86.28143 
L 244.731446 99.371213 
L 244.731446 99.371213 
L 245.084907 105.188703 
L 245.084907 105.188703 
L 245.968561 117.889083 
L 245.968561 117.889083 
L 246.322023 123.01907 
L 246.322023 123.01907 
L 247.382408 134.524489 
L 247.382408 134.524489 
L 247.912601 138.77716 
L 247.912601 138.77716 
L 248.619524 142.588603 
L 248.619524 142.588603 
L 249.149716 144.338155 
L 249.149716 144.338155 
L 249.679909 145.399313 
L 249.679909 145.399313 
L 250.033371 145.689369 
L 250.033371 145.689369 
L 250.563563 145.806028 
L 250.563563 145.806028 
L 251.093756 146.065817 
L 251.093756 146.065817 
L 251.800679 145.914869 
L 251.800679 145.914869 
L 252.154141 145.491065 
L 252.154141 145.491065 
L 252.507602 145.007228 
L 252.507602 145.007228 
L 253.391256 142.435589 
L 253.391256 142.435589 
L 254.274911 137.760455 
L 254.274911 137.760455 
L 254.805103 133.813142 
L 254.805103 133.813142 
L 255.512027 127.257109 
L 255.512027 127.257109 
L 257.279335 105.031221 
L 257.279335 105.031221 
L 258.162989 91.560746 
L 258.162989 91.560746 
L 259.223374 75.072489 
L 259.223374 75.072489 
L 259.930297 68.13152 
L 259.930297 68.13152 
L 260.637221 63.430865 
L 260.637221 63.430865 
L 261.344144 60.247449 
L 261.344144 60.247449 
L 262.051067 58.091516 
L 262.051067 58.091516 
L 262.757991 56.631462 
L 262.757991 56.631462 
L 263.464914 55.642679 
L 263.464914 55.642679 
L 264.348568 54.842595 
L 264.348568 54.842595 
L 265.232222 54.351052 
L 265.232222 54.351052 
L 266.292608 54.004425 
L 266.292608 54.004425 
L 267.883185 53.74955 
L 267.883185 53.74955 
L 270.357417 53.614407 
L 270.357417 53.614407 
L 276.366265 53.569675 
L 276.366265 53.569675 
L 276.896458 60.226396 
L 276.896458 60.226396 
L 277.42665 76.940767 
L 277.42665 76.940767 
L 278.310304 108.866175 
L 278.310304 108.866175 
L 280.077613 177.298083 
L 280.077613 177.298083 
L 280.784536 196.77698 
L 280.784536 196.77698 
L 281.137998 208.324338 
L 281.137998 208.324338 
L 281.491459 217.902731 
L 281.491459 217.902731 
L 282.021652 231.700009 
L 282.021652 231.700009 
L 282.198383 234.241995 
L 282.728575 246.142123 
L 282.728575 246.142123 
L 283.258768 253.344947 
L 283.258768 253.344947 
L 283.78896 260.855753 
L 283.78896 260.855753 
L 284.142422 266.149533 
L 284.142422 266.149533 
L 284.672614 272.141983 
L 284.672614 272.141983 
L 285.202807 278.929156 
L 285.202807 278.929156 
L 285.90973 284.465636 
L 285.90973 284.465636 
L 286.263192 287.175211 
L 286.263192 287.175211 
L 287.500308 293.281137 
L 287.500308 293.281137 
L 288.0305 294.503908 
L 288.0305 294.503908 
L 288.383962 294.960046 
L 288.383962 294.960046 
L 288.737424 295.152542 
L 288.737424 295.152542 
L 289.444347 295.345541 
L 289.444347 295.345541 
L 290.681463 295.131433 
L 290.681463 295.131433 
L 290.858194 295.049677 
L 290.858194 295.049677 
L 291.741848 293.841592 
L 291.741848 293.841592 
L 292.625502 291.168093 
L 292.625502 291.168093 
L 293.509156 286.479835 
L 293.509156 286.479835 
L 294.746272 277.343786 
L 294.746272 277.343786 
L 297.043773 251.265689 
L 297.043773 251.265689 
L 297.927427 238.613447 
L 297.927427 238.613447 
L 299.164543 218.526068 
L 299.164543 218.526068 
L 300.224928 201.866871 
L 300.224928 201.866871 
L 301.815506 179.778807 
L 301.815506 179.778807 
L 303.229352 159.636589 
L 303.229352 159.636589 
L 303.582814 158.81534 
L 303.582814 158.81534 
L 303.936276 163.387664 
L 303.936276 163.387664 
L 304.113006 167.106573 
L 304.113006 167.106573 
L 304.466468 177.355435 
L 304.466468 177.355435 
L 304.996661 190.310466 
L 304.996661 190.310466 
L 306.233776 216.316803 
L 306.233776 216.316803 
L 308.001085 238.846765 
L 308.001085 238.846765 
L 309.414931 250.630178 
L 309.414931 250.630178 
L 309.768393 252.628239 
L 309.768393 252.628239 
L 311.18224 258.469853 
L 311.18224 258.469853 
L 312.065894 260.339806 
L 312.065894 260.339806 
L 312.419356 260.762381 
L 312.419356 260.762381 
L 312.596087 260.810966 
L 312.596087 260.810966 
L 313.30301 261.38689 
L 313.30301 261.38689 
L 313.656472 261.570507 
L 313.656472 261.570507 
L 314.186664 261.514551 
L 314.186664 261.514551 
L 314.363395 261.574975 
L 314.363395 261.574975 
L 314.716857 261.478866 
L 314.716857 261.478866 
L 315.600511 261.143352 
L 315.600511 261.143352 
L 315.953972 260.775784 
L 315.953972 260.775784 
L 316.484165 260.099339 
L 316.484165 260.099339 
L 317.191088 258.310919 
L 317.191088 258.310919 
L 317.898012 255.694995 
L 317.898012 255.694995 
L 318.428204 253.259505 
L 318.428204 253.259505 
L 320.195512 240.693766 
L 320.195512 240.693766 
L 320.725705 235.990151 
L 320.725705 235.990151 
L 323.023206 209.632049 
L 323.023206 209.632049 
L 323.90686 198.241893 
L 323.90686 198.241893 
L 325.320707 176.929341 
L 325.320707 176.929341 
L 326.204361 161.160809 
L 326.204361 161.160809 
L 327.441477 140.075209 
L 327.441477 140.075209 
L 327.794938 138.74639 
L 327.794938 138.74639 
L 327.971669 138.691439 
L 327.971669 138.691439 
L 330.976093 189.834224 
L 330.976093 189.834224 
L 331.506286 195.783562 
L 331.506286 195.783562 
L 332.566671 204.713824 
L 332.566671 204.713824 
L 333.096863 207.437919 
L 333.096863 207.437919 
L 333.627056 209.063217 
L 333.627056 209.063217 
L 334.157248 209.875755 
L 334.157248 209.875755 
L 334.51071 210.156094 
L 334.51071 210.156094 
L 334.864172 210.244272 
L 334.864172 210.244272 
L 336.101288 210.030332 
L 336.101288 210.030332 
L 336.454749 209.79344 
L 336.454749 209.79344 
L 336.808211 209.393928 
L 336.808211 209.393928 
L 337.161673 208.781258 
L 337.161673 208.781258 
L 337.515134 207.89562 
L 337.515134 207.89562 
L 338.575519 201.833309 
L 338.575519 201.833309 
L 339.459174 192.623713 
L 339.459174 192.623713 
L 340.519559 178.544253 
L 340.519559 178.544253 
L 340.87302 177.261672 
L 340.87302 177.261672 
L 341.049751 177.167407 
L 341.049751 177.167407 
L 341.579944 181.397572 
L 341.579944 181.397572 
L 342.463598 186.678451 
L 342.463598 186.678451 
L 342.817059 187.575928 
L 342.817059 187.575928 
L 343.170521 188.002468 
L 343.170521 188.002468 
L 343.523983 188.212053 
L 343.523983 188.212053 
L 344.407637 187.677789 
L 344.407637 187.677789 
L 344.761099 187.012681 
L 344.761099 187.012681 
L 345.468022 183.235638 
L 345.468022 183.235638 
L 345.998214 178.420055 
L 345.998214 178.420055 
L 346.705138 168.84652 
L 346.705138 168.84652 
L 347.058599 166.879565 
L 347.058599 166.879565 
L 347.23533 166.629382 
L 347.23533 166.629382 
L 349.002639 183.689263 
L 349.002639 183.689263 
L 349.3561 185.149485 
L 349.3561 185.149485 
L 349.886293 186.130617 
L 349.886293 186.130617 
L 350.769947 186.392751 
L 350.769947 186.392751 
L 351.47687 186.229629 
L 351.47687 186.229629 
L 352.360525 185.677494 
L 352.360525 185.677494 
L 352.890717 184.972067 
L 352.890717 184.972067 
L 353.42091 184.080956 
L 353.42091 184.080956 
L 354.304564 182.061619 
L 354.304564 182.061619 
L 355.54168 178.265756 
L 355.54168 178.265756 
L 357.132257 170.450709 
L 357.132257 170.450709 
L 358.192642 163.598142 
L 358.192642 163.598142 
L 359.253027 155.702735 
L 359.253027 155.702735 
L 361.727259 137.55115 
L 361.727259 137.55115 
L 362.964375 130.713326 
L 362.964375 130.713326 
L 364.201491 124.659614 
L 364.201491 124.659614 
L 364.908414 120.347302 
L 364.908414 120.347302 
L 365.615337 114.305876 
L 365.615337 114.305876 
L 366.852453 98.881736 
L 366.852453 98.881736 
L 368.796492 70.376581 
L 368.796492 70.376581 
L 369.503416 64.951287 
L 369.503416 64.951287 
L 370.210339 61.27711 
L 370.210339 61.27711 
L 370.917262 58.788847 
L 370.917262 58.788847 
L 371.624186 57.103739 
L 371.624186 57.103739 
L 372.331109 55.962501 
L 372.331109 55.962501 
L 373.038032 55.189668 
L 373.038032 55.189668 
L 373.921687 54.564266 
L 373.921687 54.564266 
L 374.982072 54.123262 
L 374.982072 54.123262 
L 376.395918 53.822651 
L 376.395918 53.822651 
L 378.516688 53.647076 
L 378.516688 53.647076 
L 382.934959 53.574925 
L 382.934959 53.574925 
L 397.073426 53.605974 
L 397.073426 53.605974 
L 397.780349 53.864534 
L 397.780349 53.864534 
L 398.487273 53.784733 
L 398.487273 53.784733 
" clip-path="url(#p80ea764944)" style="fill: none; stroke: #1f77b4; stroke-width: 1.5; stroke-linecap: square"/>
   </g>
   <g id="line2d_28">
    <path d="M 73.832727 53.568 
L 92.212734 53.568 
L 92.212734 53.568 
L 92.389465 58.135187 
L 92.389465 58.135187 
L 92.566196 58.604783 
L 92.566196 58.604783 
L 93.096388 80.626336 
L 93.096388 80.626336 
L 93.273119 89.335342 
L 93.273119 89.335342 
L 93.44985 88.136137 
L 93.44985 88.136137 
L 93.980043 110.473659 
L 94.156773 109.249436 
L 95.040428 134.719498 
L 95.040428 134.719498 
L 95.217158 136.97059 
L 95.217158 136.97059 
L 96.631005 166.674225 
L 96.631005 166.674225 
L 96.807736 166.33966 
L 96.807736 166.33966 
L 96.984467 170.648231 
L 96.984467 170.648231 
L 97.161198 171.967222 
L 97.161198 171.967222 
L 97.337928 174.554163 
L 97.337928 174.554163 
L 97.514659 179.185962 
L 97.514659 179.185962 
L 97.69139 179.098509 
L 97.69139 179.098509 
L 97.868121 182.099984 
L 97.868121 182.099984 
L 98.044852 182.933128 
L 98.044852 182.933128 
L 98.221583 185.017189 
L 98.221583 185.017189 
L 98.398313 188.938366 
L 98.398313 188.938366 
L 98.575044 188.495855 
L 98.575044 188.495855 
L 98.751775 191.165054 
L 98.751775 191.165054 
L 98.928506 191.08743 
L 98.928506 191.08743 
L 99.105237 193.159094 
L 99.105237 193.159094 
L 99.281968 193.631985 
L 99.281968 193.631985 
L 99.988891 198.045097 
L 99.988891 198.045097 
L 100.165622 198.121995 
L 100.165622 198.121995 
L 100.519083 199.011542 
L 100.519083 199.011542 
L 100.695814 199.170475 
L 100.695814 199.170475 
L 100.872545 199.484098 
L 100.872545 199.484098 
L 101.049276 199.395864 
L 101.049276 199.395864 
L 101.226007 199.65878 
L 101.226007 199.65878 
L 101.579469 199.298638 
L 101.579469 199.298638 
L 101.756199 199.517158 
L 101.93293 199.338958 
L 101.93293 199.338958 
L 102.109661 199.558371 
L 102.109661 199.558371 
L 102.286392 199.268315 
L 102.286392 199.268315 
L 102.463123 199.487225 
L 102.463123 199.487225 
L 102.639854 198.996352 
L 102.639854 198.996352 
L 102.816584 199.144954 
L 102.816584 199.144954 
L 103.346777 197.416958 
L 103.346777 197.416958 
L 103.523508 194.717546 
L 103.523508 194.717546 
L 103.700239 195.818242 
L 103.700239 195.818242 
L 103.876969 193.157307 
L 103.876969 193.157307 
L 104.0537 193.653429 
L 104.0537 193.653429 
L 104.230431 190.515527 
L 104.230431 190.515527 
L 104.407162 190.539652 
L 104.407162 190.539652 
L 104.583893 187.158546 
L 104.760624 186.155356 
L 104.760624 186.155356 
L 104.937354 183.156562 
L 104.937354 183.156562 
L 105.114085 174.397519 
L 105.114085 174.397519 
L 105.290816 177.279822 
L 105.290816 177.279822 
L 105.467547 168.660725 
L 105.467547 168.660725 
L 105.644278 170.334162 
L 105.644278 170.334162 
L 105.821009 161.538541 
L 105.821009 161.538541 
L 105.997739 161.404905 
L 105.997739 161.404905 
L 106.17447 153.096807 
L 106.17447 153.096807 
L 106.351201 150.108847 
L 106.351201 150.108847 
L 106.527932 144.129911 
L 106.527932 144.129911 
L 106.704663 127.893067 
L 106.704663 127.893067 
L 106.881394 130.865725 
L 106.881394 130.865725 
L 107.058124 121.337592 
L 107.058124 121.337592 
L 107.234855 121.926026 
L 107.234855 121.926026 
L 107.411586 124.500122 
L 107.411586 124.500122 
L 107.588317 131.378099 
L 107.765048 130.939663 
L 107.941779 135.038371 
L 107.941779 135.038371 
L 108.118509 135.938416 
L 108.471971 141.11213 
L 108.471971 141.11213 
L 108.648702 141.039421 
L 108.648702 141.039421 
L 109.002164 143.099636 
L 109.002164 143.099636 
L 109.355625 143.666569 
L 109.355625 143.666569 
L 109.709087 144.095232 
L 109.709087 144.095232 
L 109.885818 144.420079 
L 109.885818 144.420079 
L 110.062549 143.830585 
L 110.062549 143.830585 
L 110.41601 144.382887 
L 110.41601 144.382887 
L 110.592741 143.687511 
L 110.592741 143.687511 
L 110.769472 144.008505 
L 110.769472 144.008505 
L 110.946203 143.645237 
L 110.946203 143.645237 
L 111.122934 143.858954 
L 111.122934 143.858954 
L 111.299664 143.884195 
L 111.299664 143.884195 
L 111.476395 142.577099 
L 111.476395 142.577099 
L 111.653126 142.79936 
L 111.653126 142.79936 
L 111.829857 142.103147 
L 111.829857 142.103147 
L 112.006588 140.415861 
L 112.006588 140.415861 
L 112.183319 140.813921 
L 112.183319 140.813921 
L 112.360049 139.94794 
L 112.360049 139.94794 
L 112.53678 136.968189 
L 112.53678 136.968189 
L 112.713511 137.732309 
L 112.713511 137.732309 
L 113.066973 135.131072 
L 113.066973 135.131072 
L 113.243704 133.78656 
L 113.243704 133.78656 
L 113.420435 129.929771 
L 113.420435 129.929771 
L 113.597165 129.644629 
L 113.597165 129.644629 
L 113.773896 127.226953 
L 113.773896 127.226953 
L 113.950627 122.049721 
L 113.950627 122.049721 
L 114.127358 122.050894 
L 114.127358 122.050894 
L 114.304089 118.737305 
L 114.48082 111.110063 
L 114.48082 111.110063 
L 114.65755 111.478413 
L 114.65755 111.478413 
L 114.834281 106.55075 
L 114.834281 106.55075 
L 115.011012 96.463278 
L 115.011012 96.463278 
L 115.187743 97.082985 
L 115.187743 97.082985 
L 115.364474 99.151242 
L 115.364474 99.151242 
L 115.541205 111.0636 
L 115.541205 111.0636 
L 115.717935 111.058574 
L 115.717935 111.058574 
L 115.894666 117.28289 
L 115.894666 117.28289 
L 116.071397 127.987611 
L 116.071397 127.987611 
L 116.248128 128.17106 
L 116.248128 128.17106 
L 116.424859 132.647109 
L 116.424859 132.647109 
L 116.60159 140.414688 
L 116.60159 140.414688 
L 116.77832 140.707984 
L 116.77832 140.707984 
L 117.308513 150.492443 
L 117.308513 150.492443 
L 117.661975 157.891392 
L 117.661975 157.891392 
L 117.838705 157.582963 
L 117.838705 157.582963 
L 118.192167 163.704079 
L 118.192167 163.704079 
L 118.368898 163.221471 
L 118.368898 163.221471 
L 118.545629 165.543876 
L 118.545629 165.543876 
L 118.72236 165.988398 
L 118.72236 165.988398 
L 119.075821 168.644419 
L 119.075821 168.644419 
L 119.252552 168.798326 
L 119.252552 168.798326 
L 119.429283 169.57127 
L 119.429283 169.57127 
L 119.606014 169.820281 
L 119.606014 169.820281 
L 119.782745 170.615004 
L 119.782745 170.615004 
L 119.959475 170.534643 
L 119.959475 170.534643 
L 120.312937 170.893277 
L 120.312937 170.893277 
L 120.489668 170.870101 
L 120.489668 170.870101 
L 120.666399 171.528676 
L 120.666399 171.528676 
L 120.84313 170.829223 
L 120.84313 170.829223 
L 121.196591 171.498408 
L 121.196591 171.498408 
L 121.550053 171.574859 
L 121.550053 171.574859 
L 121.726784 170.570161 
L 121.726784 170.570161 
L 122.080245 171.432288 
L 122.080245 171.432288 
L 122.256976 171.308537 
L 122.256976 171.308537 
L 122.433707 171.480426 
L 122.433707 171.480426 
L 122.610438 171.035234 
L 122.610438 171.035234 
L 122.787169 171.444797 
L 122.787169 171.444797 
L 122.9639 170.519063 
L 122.9639 170.519063 
L 123.14063 170.654318 
L 123.14063 170.654318 
L 123.317361 170.998265 
L 123.317361 170.998265 
L 123.494092 170.498289 
L 123.494092 170.498289 
L 123.670823 170.838549 
L 123.670823 170.838549 
L 123.847554 169.106811 
L 123.847554 169.106811 
L 124.024285 169.571828 
L 124.024285 169.571828 
L 124.201015 169.716801 
L 124.201015 169.716801 
L 124.377746 169.480523 
L 124.554477 169.812686 
L 124.554477 169.812686 
L 124.731208 168.024656 
L 124.731208 168.024656 
L 124.907939 168.640007 
L 124.907939 168.640007 
L 125.08467 167.663119 
L 125.08467 167.663119 
L 125.261401 167.844335 
L 125.261401 167.844335 
L 125.438131 168.336045 
L 125.438131 168.336045 
L 125.614862 166.490329 
L 125.614862 166.490329 
L 125.791593 167.80731 
L 125.791593 167.80731 
L 125.968324 165.98488 
L 125.968324 165.98488 
L 126.145055 166.274378 
L 126.145055 166.274378 
L 126.321786 165.552197 
L 126.321786 165.552197 
L 126.498516 165.40393 
L 126.498516 165.40393 
L 126.675247 165.712694 
L 126.675247 165.712694 
L 126.851978 163.791755 
L 126.851978 163.791755 
L 127.028709 164.182778 
L 127.028709 164.182778 
L 127.20544 163.244591 
L 127.20544 163.244591 
L 127.382171 163.033163 
L 127.382171 163.033163 
L 127.558901 163.139156 
L 127.558901 163.139156 
L 127.735632 160.664351 
L 127.735632 160.664351 
L 127.912363 161.106137 
L 127.912363 161.106137 
L 128.265825 159.720412 
L 128.265825 159.720412 
L 128.442556 160.06151 
L 128.442556 160.06151 
L 128.619286 158.076461 
L 128.619286 158.076461 
L 128.796017 158.734477 
L 128.972748 156.889486 
L 128.972748 156.889486 
L 129.32621 156.221977 
L 129.32621 156.221977 
L 129.502941 154.297464 
L 129.502941 154.297464 
L 129.679671 155.022716 
L 129.679671 155.022716 
L 130.386595 150.505008 
L 130.386595 150.505008 
L 130.563326 150.783784 
L 130.563326 150.783784 
L 130.740056 149.898648 
L 130.740056 149.898648 
L 130.916787 146.976473 
L 130.916787 146.976473 
L 131.093518 147.731993 
L 131.093518 147.731993 
L 131.270249 146.385303 
L 131.270249 146.385303 
L 131.623711 145.711874 
L 131.623711 145.711874 
L 131.800441 142.643386 
L 131.800441 142.643386 
L 131.977172 143.575543 
L 131.977172 143.575543 
L 132.153903 141.552687 
L 132.153903 141.552687 
L 132.330634 141.271622 
L 132.330634 141.271622 
L 132.507365 140.527047 
L 132.507365 140.527047 
L 132.684096 137.997236 
L 132.684096 137.997236 
L 132.860826 138.087704 
L 132.860826 138.087704 
L 133.037557 136.822937 
L 133.214288 134.202825 
L 133.391019 134.666949 
L 133.391019 134.666949 
L 133.56775 133.380068 
L 133.56775 133.380068 
L 133.744481 130.12774 
L 133.921211 130.96295 
L 133.921211 130.96295 
L 134.097942 128.776638 
L 134.097942 128.776638 
L 134.274673 128.463127 
L 134.274673 128.463127 
L 134.451404 126.93578 
L 134.451404 126.93578 
L 134.628135 124.291096 
L 134.628135 124.291096 
L 134.804866 124.200516 
L 134.804866 124.200516 
L 134.981596 122.993605 
L 134.981596 122.993605 
L 135.158327 119.480204 
L 135.158327 119.480204 
L 135.335058 119.568383 
L 135.335058 119.568383 
L 135.511789 118.21622 
L 135.511789 118.21622 
L 135.68852 114.353567 
L 135.68852 114.353567 
L 135.865251 114.550698 
L 135.865251 114.550698 
L 136.041981 113.056411 
L 136.041981 113.056411 
L 136.218712 108.926375 
L 136.218712 108.926375 
L 136.395443 109.13501 
L 136.395443 109.13501 
L 136.572174 107.064017 
L 136.572174 107.064017 
L 136.748905 103.192876 
L 136.748905 103.192876 
L 136.925636 103.301326 
L 136.925636 103.301326 
L 137.102367 101.085528 
L 137.102367 101.085528 
L 137.279097 97.17094 
L 137.279097 97.17094 
L 137.455828 96.633269 
L 137.455828 96.633269 
L 138.339482 83.470776 
L 138.339482 83.470776 
L 138.516213 78.138631 
L 138.516213 78.138631 
L 138.692944 79.245023 
L 138.692944 79.245023 
L 138.869675 76.48407 
L 138.869675 76.48407 
L 139.046406 71.335542 
L 139.046406 71.335542 
L 139.223137 70.937148 
L 139.223137 70.937148 
L 139.399867 68.452403 
L 139.399867 68.452403 
L 139.753329 58.025341 
L 139.753329 58.025341 
L 139.93006 58.390005 
L 139.93006 58.390005 
L 140.283522 53.568 
L 140.283522 53.568 
L 150.710641 53.568 
L 150.710641 53.568 
L 150.887372 57.358948 
L 150.887372 57.358948 
L 151.240833 71.857856 
L 151.240833 71.857856 
L 151.417564 81.250622 
L 151.417564 81.250622 
L 151.594295 80.945264 
L 151.594295 80.945264 
L 152.831411 124.667823 
L 152.831411 124.667823 
L 153.008142 123.738906 
L 153.008142 123.738906 
L 153.184873 128.967291 
L 153.184873 128.967291 
L 153.361603 138.781237 
L 153.361603 138.781237 
L 153.538334 138.038058 
L 153.538334 138.038058 
L 153.715065 142.80098 
L 153.715065 142.80098 
L 153.891796 152.586723 
L 153.891796 152.586723 
L 154.068527 151.593808 
L 154.068527 151.593808 
L 154.245258 156.936731 
L 154.245258 156.936731 
L 154.421988 166.212502 
L 154.421988 166.212502 
L 154.598719 164.866817 
L 154.598719 164.866817 
L 154.77545 171.519182 
L 154.77545 171.519182 
L 154.952181 172.838676 
L 154.952181 172.838676 
L 155.128912 176.825917 
L 155.128912 176.825917 
L 155.305643 184.907008 
L 155.305643 184.907008 
L 155.482373 184.07096 
L 155.482373 184.07096 
L 155.659104 189.989807 
L 155.659104 189.989807 
L 155.835835 190.972949 
L 155.835835 190.972949 
L 156.012566 194.805222 
L 156.012566 194.805222 
L 156.189297 202.339148 
L 156.189297 202.339148 
L 156.366028 200.209741 
L 156.366028 200.209741 
L 156.542758 207.251007 
L 156.542758 207.251007 
L 156.719489 205.965913 
L 156.719489 205.965913 
L 156.89622 211.654569 
L 156.89622 211.654569 
L 157.072951 211.293758 
L 157.072951 211.293758 
L 157.249682 215.908413 
L 157.249682 215.908413 
L 157.426413 216.185401 
L 157.426413 216.185401 
L 157.603143 219.955575 
L 157.603143 219.955575 
L 157.779874 220.643412 
L 157.779874 220.643412 
L 157.956605 223.840621 
L 157.956605 223.840621 
L 158.133336 224.680355 
L 158.133336 224.680355 
L 158.310067 227.636763 
L 158.310067 227.636763 
L 158.486798 228.314715 
L 158.486798 228.314715 
L 158.663528 230.759867 
L 158.663528 230.759867 
L 158.840259 231.575755 
L 158.840259 231.575755 
L 159.01699 234.208712 
L 159.01699 234.208712 
L 159.193721 234.472521 
L 159.193721 234.472521 
L 159.370452 236.944701 
L 159.370452 236.944701 
L 159.547183 237.031763 
L 159.547183 237.031763 
L 159.723913 238.967333 
L 159.723913 238.967333 
L 159.900644 239.274757 
L 159.900644 239.274757 
L 160.077375 241.05279 
L 160.077375 241.05279 
L 160.254106 241.209546 
L 160.254106 241.209546 
L 160.430837 243.187837 
L 160.430837 243.187837 
L 160.607568 243.222684 
L 160.607568 243.222684 
L 160.784299 244.223641 
L 160.784299 244.223641 
L 160.961029 244.209903 
L 160.961029 244.209903 
L 161.13776 245.310263 
L 161.13776 245.310263 
L 161.314491 245.564914 
L 161.314491 245.564914 
L 161.491222 246.088177 
L 161.491222 246.088177 
L 161.667953 246.112079 
L 161.667953 246.112079 
L 161.844684 246.591727 
L 161.844684 246.591727 
L 162.198145 246.865812 
L 162.198145 246.865812 
L 162.374876 247.406163 
L 162.374876 247.406163 
L 162.551607 247.233604 
L 162.551607 247.233604 
L 162.728338 247.37947 
L 162.728338 247.37947 
L 163.25853 247.34412 
L 163.25853 247.34412 
L 163.435261 247.481218 
L 163.435261 247.481218 
L 163.611992 247.327981 
L 163.611992 247.327981 
L 163.788723 247.539911 
L 163.788723 247.539911 
L 164.142184 247.098516 
L 164.142184 247.098516 
L 164.672377 247.36361 
L 164.672377 247.36361 
L 165.025839 246.990848 
L 165.025839 246.990848 
L 165.202569 245.95443 
L 165.202569 245.95443 
L 165.3793 246.044228 
L 165.3793 246.044228 
L 165.556031 245.411174 
L 165.556031 245.411174 
L 165.732762 245.55866 
L 165.732762 245.55866 
L 165.909493 244.324329 
L 165.909493 244.324329 
L 166.086224 244.580878 
L 166.086224 244.580878 
L 166.262954 242.687582 
L 166.262954 242.687582 
L 166.439685 243.392117 
L 166.439685 243.392117 
L 166.616416 241.463471 
L 166.616416 241.463471 
L 166.793147 242.374462 
L 166.793147 242.374462 
L 166.969878 239.2164 
L 166.969878 239.2164 
L 167.146609 240.488035 
L 167.146609 240.488035 
L 167.323339 237.108102 
L 167.50007 238.929136 
L 167.50007 238.929136 
L 168.030263 235.391219 
L 168.030263 235.391219 
L 168.383724 233.111646 
L 168.383724 233.111646 
L 168.560455 230.890878 
L 168.560455 230.890878 
L 168.737186 230.653316 
L 168.737186 230.653316 
L 168.913917 228.460134 
L 168.913917 228.460134 
L 169.090648 228.414733 
L 169.090648 228.414733 
L 169.267379 225.09394 
L 169.267379 225.09394 
L 169.444109 225.233607 
L 169.444109 225.233607 
L 169.62084 221.959723 
L 169.62084 221.959723 
L 169.797571 222.280717 
L 169.797571 222.280717 
L 169.974302 218.703821 
L 169.974302 218.703821 
L 170.151033 219.178052 
L 170.151033 219.178052 
L 170.327764 215.361137 
L 170.327764 215.361137 
L 170.504494 215.939853 
L 170.504494 215.939853 
L 170.681225 211.925583 
L 170.681225 211.925583 
L 170.857956 212.561707 
L 170.857956 212.561707 
L 171.034687 208.428991 
L 171.034687 208.428991 
L 171.211418 209.068299 
L 171.211418 209.068299 
L 171.388149 204.893308 
L 171.388149 204.893308 
L 171.564879 205.466552 
L 171.564879 205.466552 
L 171.74161 201.323169 
L 171.74161 201.323169 
L 171.918341 201.766184 
L 171.918341 201.766184 
L 172.095072 197.744989 
L 172.095072 197.744989 
L 172.271803 197.97652 
L 172.271803 197.97652 
L 172.448534 194.148714 
L 172.448534 194.148714 
L 172.625265 194.103145 
L 172.625265 194.103145 
L 172.801995 190.454098 
L 172.801995 190.454098 
L 172.978726 190.167448 
L 172.978726 190.167448 
L 173.155457 187.006314 
L 173.155457 187.006314 
L 173.332188 185.978105 
L 173.332188 185.978105 
L 174.039111 174.590015 
L 174.039111 174.590015 
L 174.215842 175.631906 
L 174.215842 175.631906 
L 174.392573 171.07734 
L 174.392573 171.07734 
L 174.569304 171.983641 
L 174.569304 171.983641 
L 174.746035 168.132269 
L 174.746035 168.132269 
L 174.922765 168.06129 
L 174.922765 168.06129 
L 175.276227 163.398554 
L 175.276227 163.398554 
L 175.452958 161.77951 
L 175.629689 156.536214 
L 175.629689 156.536214 
L 175.80642 158.44241 
L 175.80642 158.44241 
L 175.98315 154.375423 
L 175.98315 154.375423 
L 176.159881 154.391171 
L 176.159881 154.391171 
L 176.513343 150.293916 
L 176.513343 150.293916 
L 176.690074 149.439606 
L 176.690074 149.439606 
L 176.866805 145.097529 
L 176.866805 145.097529 
L 177.043535 145.445663 
L 177.043535 145.445663 
L 177.396997 141.847323 
L 177.396997 141.847323 
L 177.573728 140.761762 
L 177.573728 140.761762 
L 177.750459 136.837792 
L 177.750459 136.837792 
L 177.92719 137.030902 
L 177.92719 137.030902 
L 178.10392 134.647012 
L 178.10392 134.647012 
L 178.280651 129.773016 
L 178.280651 129.773016 
L 178.457382 131.301536 
L 178.457382 131.301536 
L 178.634113 127.70649 
L 178.810844 126.707209 
L 178.810844 126.707209 
L 178.987575 124.213416 
L 178.987575 124.213416 
L 179.164305 119.027473 
L 179.164305 119.027473 
L 179.341036 119.081865 
L 179.341036 119.081865 
L 179.517767 116.291148 
L 179.517767 116.291148 
L 179.694498 108.889294 
L 179.694498 108.889294 
L 179.871229 109.514585 
L 179.871229 109.514585 
L 180.04796 105.178148 
L 180.04796 105.178148 
L 180.22469 96.624725 
L 180.22469 96.624725 
L 180.401421 97.811812 
L 180.401421 97.811812 
L 180.754883 81.936169 
L 180.754883 81.936169 
L 180.931614 82.884185 
L 180.931614 82.884185 
L 181.108345 76.616254 
L 181.108345 76.616254 
L 181.285075 65.097265 
L 181.285075 65.097265 
L 181.461806 64.907226 
L 181.461806 64.907226 
L 181.638537 57.607456 
L 181.815268 56.610576 
L 181.991999 59.632043 
L 181.991999 59.632043 
L 183.229115 108.049281 
L 183.229115 108.049281 
L 183.405845 108.444158 
L 183.405845 108.444158 
L 183.759307 122.866335 
L 183.759307 122.866335 
L 183.936038 133.626398 
L 183.936038 133.626398 
L 184.112769 131.17058 
L 184.112769 131.17058 
L 184.466231 149.652597 
L 184.466231 149.652597 
L 184.642961 147.683911 
L 184.642961 147.683911 
L 184.819692 154.782026 
L 184.819692 154.782026 
L 184.996423 166.592413 
L 184.996423 166.592413 
L 185.173154 164.211259 
L 185.173154 164.211259 
L 185.349885 173.050382 
L 185.349885 173.050382 
L 185.526616 174.078424 
L 185.526616 174.078424 
L 185.703346 179.530355 
L 185.703346 179.530355 
L 185.880077 190.879521 
L 185.880077 190.879521 
L 186.056808 188.806909 
L 186.056808 188.806909 
L 186.233539 196.97802 
L 186.233539 196.97802 
L 186.41027 197.288125 
L 186.41027 197.288125 
L 186.587001 203.901286 
L 186.587001 203.901286 
L 186.763731 206.279704 
L 186.763731 206.279704 
L 186.940462 210.17631 
L 186.940462 210.17631 
L 187.117193 220.959771 
L 187.117193 220.959771 
L 187.293924 217.032507 
L 187.293924 217.032507 
L 187.470655 227.455213 
L 187.470655 227.455213 
L 187.647386 224.35897 
L 187.647386 224.35897 
L 187.824116 233.083445 
L 187.824116 233.083445 
L 188.000847 230.509739 
L 188.000847 230.509739 
L 188.177578 238.927795 
L 188.177578 238.927795 
L 188.354309 236.734447 
L 188.354309 236.734447 
L 188.53104 244.634601 
L 188.53104 244.634601 
L 188.707771 242.115958 
L 188.707771 242.115958 
L 189.768156 256.916985 
L 189.768156 256.916985 
L 189.944886 257.138911 
L 189.944886 257.138911 
L 190.121617 260.228284 
L 190.121617 260.228284 
L 190.298348 259.981787 
L 190.298348 259.981787 
L 190.475079 263.72052 
L 190.475079 263.72052 
L 190.65181 263.382047 
L 190.65181 263.382047 
L 190.828541 264.187213 
L 190.828541 264.187213 
L 191.182002 266.851833 
L 191.182002 266.851833 
L 191.358733 268.136368 
L 191.358733 268.136368 
L 191.535464 268.436197 
L 191.535464 268.436197 
L 191.712195 270.400416 
L 191.712195 270.400416 
L 191.888926 270.325752 
L 191.888926 270.325752 
L 192.242387 271.535176 
L 192.242387 271.535176 
L 192.419118 271.509432 
L 192.419118 271.509432 
L 192.595849 272.713049 
L 192.595849 272.713049 
L 193.126041 273.614491 
L 193.126041 273.614491 
L 193.302772 273.367658 
L 193.302772 273.367658 
L 193.479503 274.0264 
L 193.479503 274.0264 
L 193.656234 273.963965 
L 193.832965 274.389445 
L 193.832965 274.389445 
L 194.009696 274.181424 
L 194.009696 274.181424 
L 194.363157 274.63477 
L 194.363157 274.63477 
L 194.539888 274.783707 
L 194.539888 274.783707 
L 194.89335 274.425409 
L 194.89335 274.425409 
L 195.246812 274.728421 
L 195.246812 274.728421 
L 195.423542 274.486949 
L 195.423542 274.486949 
L 195.777004 274.78555 
L 195.777004 274.78555 
L 196.307197 274.210631 
L 196.307197 274.210631 
L 196.483927 274.457854 
L 196.483927 274.457854 
L 196.837389 273.977368 
L 196.837389 273.977368 
L 197.01412 273.992614 
L 197.01412 273.992614 
L 197.190851 272.664296 
L 197.367582 273.325104 
L 197.367582 273.325104 
L 197.544312 271.278403 
L 197.544312 271.278403 
L 197.721043 272.286341 
L 197.721043 272.286341 
L 197.897774 271.694166 
L 197.897774 271.694166 
L 198.074505 270.518081 
L 198.074505 270.518081 
L 198.251236 270.626307 
L 198.251236 270.626307 
L 198.427967 267.455233 
L 198.427967 267.455233 
L 198.604697 268.843025 
L 198.604697 268.843025 
L 198.958159 266.357274 
L 198.958159 266.357274 
L 199.13489 265.916773 
L 199.13489 265.916773 
L 199.311621 263.059266 
L 199.311621 263.059266 
L 199.488352 263.364847 
L 199.488352 263.364847 
L 199.665082 258.307234 
L 199.665082 258.307234 
L 199.841813 260.402743 
L 199.841813 260.402743 
L 200.372006 255.609497 
L 200.372006 255.609497 
L 200.548737 251.085367 
L 200.548737 251.085367 
L 200.725467 251.878191 
L 200.725467 251.878191 
L 200.902198 245.688442 
L 200.902198 245.688442 
L 201.078929 247.781103 
L 201.078929 247.781103 
L 201.609122 240.877327 
L 201.609122 240.877327 
L 201.785852 236.025389 
L 201.785852 236.025389 
L 201.962583 235.998751 
L 201.962583 235.998751 
L 202.139314 229.922144 
L 202.139314 229.922144 
L 202.316045 231.120902 
L 202.316045 231.120902 
L 202.492776 222.660571 
L 202.492776 222.660571 
L 202.669507 225.348814 
L 202.669507 225.348814 
L 203.199699 215.84704 
L 203.199699 215.84704 
L 203.729892 203.088302 
L 203.729892 203.088302 
L 203.906622 201.272183 
L 203.906622 201.272183 
L 204.083353 194.30318 
L 204.083353 194.30318 
L 204.260084 193.224599 
L 204.260084 193.224599 
L 204.436815 185.321765 
L 204.436815 185.321765 
L 204.613546 184.364702 
L 204.613546 184.364702 
L 204.790277 175.974512 
L 204.790277 175.974512 
L 204.967007 175.123442 
L 204.967007 175.123442 
L 205.143738 167.175653 
L 205.143738 167.175653 
L 205.320469 165.108792 
L 205.320469 165.108792 
L 205.673931 154.566634 
L 205.673931 154.566634 
L 205.850662 148.710333 
L 205.850662 148.710333 
L 206.027392 135.433079 
L 206.204123 138.219776 
L 206.204123 138.219776 
L 206.380854 126.717763 
L 206.380854 126.717763 
L 206.557585 126.910147 
L 206.557585 126.910147 
L 206.734316 118.233141 
L 206.734316 118.233141 
L 206.911047 115.415171 
L 206.911047 115.415171 
L 207.087778 110.163554 
L 207.087778 110.163554 
L 207.264508 98.587938 
L 207.264508 98.587938 
L 207.441239 98.627756 
L 207.441239 98.627756 
L 207.61797 92.611125 
L 207.61797 92.611125 
L 207.794701 81.04746 
L 207.794701 81.04746 
L 207.971432 82.547555 
L 207.971432 82.547555 
L 208.324893 65.339407 
L 208.324893 65.339407 
L 208.501624 66.49187 
L 208.501624 66.49187 
L 208.855086 53.568 
L 208.855086 53.568 
L 214.863934 53.568 
L 214.863934 53.568 
L 215.040665 57.683628 
L 215.040665 57.683628 
L 215.217396 57.924709 
L 215.217396 57.924709 
L 215.570858 66.066502 
L 215.570858 66.066502 
L 215.924319 78.697523 
L 215.924319 78.697523 
L 216.10105 77.16085 
L 216.10105 77.16085 
L 216.631243 93.207432 
L 216.631243 93.207432 
L 216.807973 92.39752 
L 216.807973 92.39752 
L 217.161435 103.237161 
L 217.161435 103.237161 
L 217.338166 110.072472 
L 217.338166 110.072472 
L 217.514897 108.52368 
L 217.514897 108.52368 
L 218.398551 130.740243 
L 218.398551 130.740243 
L 218.575282 131.936544 
L 218.575282 131.936544 
L 218.752013 135.34183 
L 218.752013 135.34183 
L 218.928744 141.298092 
L 218.928744 141.298092 
L 219.105474 142.296592 
L 219.105474 142.296592 
L 219.989129 162.34421 
L 219.989129 162.34421 
L 220.165859 161.744886 
L 220.165859 161.744886 
L 220.34259 166.469722 
L 220.34259 166.469722 
L 220.519321 168.046659 
L 220.519321 168.046659 
L 220.696052 170.923154 
L 220.696052 170.923154 
L 220.872783 176.549208 
L 220.872783 176.549208 
L 221.049514 176.483535 
L 221.049514 176.483535 
L 221.226244 179.828397 
L 221.226244 179.828397 
L 221.402975 180.49747 
L 221.402975 180.49747 
L 221.579706 183.348053 
L 221.579706 183.348053 
L 221.756437 187.996661 
L 221.756437 187.996661 
L 221.933168 187.469824 
L 221.933168 187.469824 
L 222.109899 190.729858 
L 222.109899 190.729858 
L 222.286629 191.171588 
L 222.286629 191.171588 
L 222.46336 193.270783 
L 222.46336 193.270783 
L 222.640091 194.02513 
L 222.640091 194.02513 
L 222.816822 195.709066 
L 222.816822 195.709066 
L 222.993553 198.776548 
L 222.993553 198.776548 
L 223.170284 198.298296 
L 223.170284 198.298296 
L 223.347014 200.461768 
L 223.347014 200.461768 
L 223.523745 200.456798 
L 223.523745 200.456798 
L 223.700476 201.864135 
L 223.700476 201.864135 
L 223.877207 202.195293 
L 223.877207 202.195293 
L 224.230669 203.531484 
L 224.230669 203.531484 
L 224.937592 204.959819 
L 224.937592 204.959819 
L 225.467784 205.295891 
L 225.467784 205.295891 
L 225.644515 205.159798 
L 225.644515 205.159798 
L 225.821246 205.375693 
L 225.821246 205.375693 
L 225.997977 205.191518 
L 225.997977 205.191518 
L 226.174708 205.409814 
L 226.351439 205.22078 
L 226.351439 205.22078 
L 226.528169 205.440193 
L 226.528169 205.440193 
L 226.7049 205.210114 
L 226.881631 205.404732 
L 226.881631 205.404732 
L 227.058362 205.09809 
L 227.058362 205.09809 
L 227.235093 204.390596 
L 227.235093 204.390596 
L 227.411824 204.779218 
L 227.411824 204.779218 
L 227.588554 203.768712 
L 227.588554 203.768712 
L 227.765285 204.162527 
L 227.765285 204.162527 
L 227.942016 202.851745 
L 227.942016 202.851745 
L 228.118747 203.178547 
L 228.118747 203.178547 
L 228.295478 201.59999 
L 228.295478 201.59999 
L 228.472209 201.750994 
L 228.472209 201.750994 
L 228.648939 199.961233 
L 228.648939 199.961233 
L 228.82567 199.80498 
L 228.82567 199.80498 
L 229.002401 197.735774 
L 229.002401 197.735774 
L 229.179132 197.245348 
L 229.179132 197.245348 
L 229.355863 195.198814 
L 229.355863 195.198814 
L 229.532594 189.769947 
L 229.532594 189.769947 
L 229.709324 191.560601 
L 229.709324 191.560601 
L 229.886055 185.536096 
L 229.886055 185.536096 
L 230.062786 187.005309 
L 230.062786 187.005309 
L 230.239517 180.905247 
L 230.239517 180.905247 
L 230.416248 181.626199 
L 230.416248 181.626199 
L 230.592979 175.281538 
L 230.592979 175.281538 
L 230.76971 174.868903 
L 230.76971 174.868903 
L 230.94644 169.015115 
L 230.94644 169.015115 
L 231.123171 167.005829 
L 231.123171 167.005829 
L 231.299902 162.703401 
L 231.299902 162.703401 
L 231.476633 149.867487 
L 231.476633 149.867487 
L 231.653364 153.043755 
L 231.830095 141.669849 
L 231.830095 141.669849 
L 232.006825 142.166586 
L 232.006825 142.166586 
L 232.183556 133.383977 
L 232.183556 133.383977 
L 232.360287 130.236916 
L 232.360287 130.236916 
L 232.537018 123.97228 
L 232.537018 123.97228 
L 232.713749 108.219663 
L 232.713749 108.219663 
L 232.89048 109.444891 
L 232.89048 109.444891 
L 233.243941 96.412628 
L 233.243941 96.412628 
L 234.127595 66.283123 
L 234.127595 66.283123 
L 234.304326 64.882654 
L 234.304326 64.882654 
L 234.834519 53.568 
L 234.834519 53.568 
L 241.196829 53.568 
L 241.196829 53.568 
L 241.55029 58.487621 
L 241.55029 58.487621 
L 241.903752 66.179029 
L 241.903752 66.179029 
L 242.080483 66.335505 
L 242.080483 66.335505 
L 242.433945 71.973622 
L 242.433945 71.973622 
L 242.610676 76.176479 
L 242.610676 76.176479 
L 242.787406 77.342847 
L 242.787406 77.342847 
L 243.317599 86.440531 
L 243.317599 86.440531 
L 243.49433 90.619877 
L 243.49433 90.619877 
L 243.671061 90.245496 
L 243.671061 90.245496 
L 244.731446 109.530389 
L 244.731446 109.530389 
L 244.908176 109.609409 
L 244.908176 109.609409 
L 245.084907 112.124701 
L 245.084907 112.124701 
L 245.261638 116.416519 
L 245.261638 116.416519 
L 245.438369 116.952514 
L 245.438369 116.952514 
L 245.791831 123.038727 
L 245.791831 123.038727 
L 245.968561 127.518908 
L 245.968561 127.518908 
L 246.145292 126.477185 
L 246.145292 126.477185 
L 246.498754 133.011438 
L 246.498754 133.011438 
L 246.675485 132.277586 
L 246.675485 132.277586 
L 247.028946 137.297169 
L 247.028946 137.297169 
L 247.205677 137.008676 
L 247.205677 137.008676 
L 247.559139 140.876857 
L 247.559139 140.876857 
L 247.73587 140.638848 
L 247.73587 140.638848 
L 248.089331 142.644336 
L 248.089331 142.644336 
L 248.266062 143.2388 
L 248.266062 143.2388 
L 248.442793 144.362671 
L 248.442793 144.362671 
L 248.796255 144.865998 
L 248.796255 144.865998 
L 249.326447 146.109375 
L 249.326447 146.109375 
L 249.503178 145.709529 
L 249.503178 145.709529 
L 249.679909 145.979481 
L 249.679909 145.979481 
L 250.033371 145.706122 
L 250.033371 145.706122 
L 250.210101 145.98473 
L 250.210101 145.98473 
L 250.386832 145.827417 
L 250.740294 146.361067 
L 250.740294 146.361067 
L 251.093756 145.877062 
L 251.093756 145.877062 
L 251.270486 146.29718 
L 251.270486 146.29718 
L 251.447217 144.752466 
L 251.447217 144.752466 
L 251.623948 145.027276 
L 251.623948 145.027276 
L 251.800679 144.345192 
L 251.800679 144.345192 
L 251.97741 142.773895 
L 251.97741 142.773895 
L 252.154141 143.687176 
L 252.154141 143.687176 
L 252.507602 139.497051 
L 252.507602 139.497051 
L 252.684333 140.398493 
L 252.684333 140.398493 
L 252.861064 138.169292 
L 252.861064 138.169292 
L 253.037795 138.024208 
L 253.037795 138.024208 
L 253.214526 136.441743 
L 253.214526 136.441743 
L 253.391256 133.182658 
L 253.391256 133.182658 
L 253.567987 133.361137 
L 253.567987 133.361137 
L 253.744718 131.765603 
L 253.921449 127.156198 
L 253.921449 127.156198 
L 254.09818 127.760659 
L 254.09818 127.760659 
L 254.274911 125.433451 
L 254.274911 125.433451 
L 254.451642 120.314856 
L 254.451642 120.314856 
L 254.628372 121.212891 
L 254.628372 121.212891 
L 254.981834 112.841242 
L 254.981834 112.841242 
L 255.158565 114.055413 
L 255.158565 114.055413 
L 255.512027 104.619871 
L 255.512027 104.619871 
L 255.688757 106.370037 
L 255.688757 106.370037 
L 256.042219 96.117098 
L 256.042219 96.117098 
L 256.21895 97.946397 
L 256.21895 97.946397 
L 256.572412 87.265242 
L 256.572412 87.265242 
L 256.749142 88.751879 
L 256.749142 88.751879 
L 256.925873 84.840251 
L 256.925873 84.840251 
L 257.102604 77.951664 
L 257.102604 77.951664 
L 257.279335 78.312364 
L 257.279335 78.312364 
L 257.456066 75.00112 
L 257.456066 75.00112 
L 257.632797 68.866154 
L 257.632797 68.866154 
L 257.809527 67.438881 
L 257.809527 67.438881 
L 258.162989 59.358963 
L 258.162989 59.358963 
L 258.33972 53.568 
L 258.33972 53.568 
L 276.189534 53.568 
L 276.189534 53.568 
L 276.366265 60.159997 
L 276.366265 60.159997 
L 276.542996 59.36935 
L 276.542996 59.36935 
L 276.896458 73.937896 
L 276.896458 73.937896 
L 277.073188 85.003987 
L 277.073188 85.003987 
L 277.249919 86.637941 
L 277.249919 86.637941 
L 278.310304 129.457271 
L 278.310304 129.457271 
L 278.487035 143.034968 
L 278.487035 143.034968 
L 278.663766 140.709435 
L 278.663766 140.709435 
L 278.840497 148.358959 
L 278.840497 148.358959 
L 279.017228 162.292107 
L 279.017228 162.292107 
L 279.193959 160.387809 
L 279.370689 168.966418 
L 279.370689 168.966418 
L 279.54742 183.454771 
L 279.54742 183.454771 
L 279.724151 178.262741 
L 279.724151 178.262741 
L 279.900882 190.693336 
L 279.900882 190.693336 
L 280.077613 189.713488 
L 280.077613 189.713488 
L 280.254344 198.490959 
L 280.254344 198.490959 
L 280.431074 200.512474 
L 280.431074 200.512474 
L 280.607805 206.047446 
L 280.607805 206.047446 
L 280.784536 219.6854 
L 280.784536 219.6854 
L 280.961267 215.30021 
L 280.961267 215.30021 
L 281.137998 227.277795 
L 281.137998 227.277795 
L 281.314729 223.72117 
L 281.314729 223.72117 
L 281.491459 234.249701 
L 281.491459 234.249701 
L 281.66819 232.053896 
L 281.66819 232.053896 
L 281.844921 241.675177 
L 281.844921 241.675177 
L 282.021652 239.084718 
L 282.021652 239.084718 
L 282.198383 248.207532 
L 282.198383 248.207532 
L 282.375114 246.166527 
L 282.375114 246.166527 
L 282.551844 254.987222 
L 282.551844 254.987222 
L 282.728575 251.996302 
L 282.728575 251.996302 
L 282.905306 254.444134 
L 282.905306 254.444134 
L 283.082037 259.10514 
L 283.082037 259.10514 
L 283.258768 260.205947 
L 283.258768 260.205947 
L 283.435499 264.906769 
L 283.435499 264.906769 
L 283.612229 264.631958 
L 283.612229 264.631958 
L 283.78896 270.930436 
L 283.78896 270.930436 
L 283.965691 269.627863 
L 283.965691 269.627863 
L 284.142422 271.407516 
L 284.319153 274.762374 
L 284.319153 274.762374 
L 284.495884 275.648906 
L 284.495884 275.648906 
L 284.672614 279.404113 
L 284.672614 279.404113 
L 284.849345 279.19559 
L 284.849345 279.19559 
L 285.026076 284.110632 
L 285.026076 284.110632 
L 285.202807 282.635388 
L 285.202807 282.635388 
L 285.379538 283.986266 
L 285.379538 283.986266 
L 285.556269 286.628493 
L 285.556269 286.628493 
L 285.732999 286.744091 
L 285.732999 286.744091 
L 285.90973 289.480639 
L 285.90973 289.480639 
L 286.086461 289.048459 
L 286.086461 289.048459 
L 286.263192 289.843405 
L 286.263192 289.843405 
L 286.439923 291.63311 
L 286.439923 291.63311 
L 286.616654 291.963263 
L 286.616654 291.963263 
L 286.793384 293.555669 
L 286.970115 293.236517 
L 286.970115 293.236517 
L 287.323577 294.439575 
L 287.323577 294.439575 
L 287.500308 294.661222 
L 287.500308 294.661222 
L 287.677039 295.078827 
L 287.677039 295.078827 
L 287.853769 295.060957 
L 287.853769 295.060957 
L 288.0305 295.36235 
L 288.0305 295.36235 
L 288.207231 295.266074 
L 288.207231 295.266074 
L 288.383962 295.408589 
L 288.383962 295.408589 
L 288.560693 295.22514 
L 288.560693 295.22514 
L 288.914155 295.488 
L 288.914155 295.488 
L 289.090885 295.278025 
L 289.267616 295.41261 
L 289.267616 295.41261 
L 289.444347 295.109654 
L 289.444347 295.109654 
L 289.797809 295.398649 
L 289.797809 295.398649 
L 289.97454 294.851429 
L 289.97454 294.851429 
L 290.15127 295.044148 
L 290.15127 295.044148 
L 290.504732 294.274164 
L 290.504732 294.274164 
L 290.681463 294.250821 
L 290.681463 294.250821 
L 290.858194 292.69382 
L 290.858194 292.69382 
L 291.034925 293.08395 
L 291.034925 293.08395 
L 291.565117 290.893617 
L 291.565117 290.893617 
L 291.741848 288.127527 
L 291.741848 288.127527 
L 291.918579 288.708701 
L 291.918579 288.708701 
L 292.09531 287.811447 
L 292.27204 285.652499 
L 292.27204 285.652499 
L 292.448771 285.137445 
L 292.448771 285.137445 
L 292.625502 281.701277 
L 292.625502 281.701277 
L 292.802233 282.105759 
L 292.978964 276.659077 
L 292.978964 276.659077 
L 293.155695 278.489771 
L 293.155695 278.489771 
L 293.332425 277.287216 
L 293.332425 277.287216 
L 293.509156 273.562946 
L 293.509156 273.562946 
L 293.685887 273.917056 
L 293.685887 273.917056 
L 293.862618 267.488014 
L 293.862618 267.488014 
L 294.039349 269.461782 
L 294.039349 269.461782 
L 294.21608 268.075051 
L 294.21608 268.075051 
L 294.39281 263.704493 
L 294.39281 263.704493 
L 294.569541 264.362788 
L 294.569541 264.362788 
L 294.746272 256.564885 
L 294.746272 256.564885 
L 294.923003 259.061972 
L 294.923003 259.061972 
L 295.099734 257.411488 
L 295.099734 257.411488 
L 295.276465 252.494212 
L 295.276465 252.494212 
L 295.453195 253.017922 
L 295.453195 253.017922 
L 295.629926 244.408431 
L 295.629926 244.408431 
L 295.806657 247.353893 
L 295.806657 247.353893 
L 296.33685 239.122525 
L 296.33685 239.122525 
L 296.51358 231.602672 
L 296.51358 231.602672 
L 296.690311 232.676841 
L 296.690311 232.676841 
L 296.867042 223.675322 
L 296.867042 223.675322 
L 297.043773 226.709186 
L 297.043773 226.709186 
L 298.104158 204.09462 
L 298.104158 204.09462 
L 298.280889 203.43102 
L 298.280889 203.43102 
L 298.45762 197.073793 
L 298.63435 197.240936 
L 298.63435 197.240936 
L 298.811081 191.115688 
L 298.811081 191.115688 
L 298.987812 191.43953 
L 298.987812 191.43953 
L 299.164543 185.870605 
L 299.164543 185.870605 
L 299.341274 186.125758 
L 299.341274 186.125758 
L 299.518005 181.314531 
L 299.518005 181.314531 
L 299.694735 181.323075 
L 299.694735 181.323075 
L 299.871466 177.19706 
L 299.871466 177.19706 
L 300.048197 176.976753 
L 300.048197 176.976753 
L 300.224928 173.585205 
L 300.401659 172.784953 
L 301.108582 161.102898 
L 301.108582 161.102898 
L 301.285313 162.160705 
L 301.285313 162.160705 
L 301.462044 157.288216 
L 301.462044 157.288216 
L 301.638775 157.178872 
L 301.638775 157.178872 
L 301.992236 151.283704 
L 301.992236 151.283704 
L 302.168967 148.217896 
L 302.168967 148.217896 
L 302.345698 139.563395 
L 302.345698 139.563395 
L 302.522429 140.651748 
L 302.522429 140.651748 
L 302.69916 136.102487 
L 302.69916 136.102487 
L 302.875891 137.676912 
L 302.875891 137.676912 
L 303.052621 142.10767 
L 303.052621 142.10767 
L 303.229352 155.854632 
L 303.229352 155.854632 
L 303.406083 154.22118 
L 303.406083 154.22118 
L 303.582814 165.293749 
L 303.582814 165.293749 
L 303.759545 167.849975 
L 303.936276 174.191341 
L 303.936276 174.191341 
L 304.113006 186.239904 
L 304.113006 186.239904 
L 304.289737 184.333261 
L 304.289737 184.333261 
L 304.466468 192.004509 
L 304.466468 192.004509 
L 304.643199 192.992845 
L 304.643199 192.992845 
L 304.996661 201.526834 
L 304.996661 201.526834 
L 305.173391 205.047662 
L 305.173391 205.047662 
L 305.350122 213.787662 
L 305.350122 213.787662 
L 305.526853 211.685005 
L 305.526853 211.685005 
L 305.703584 218.179609 
L 305.703584 218.179609 
L 305.880315 217.690522 
L 305.880315 217.690522 
L 306.057046 222.871999 
L 306.057046 222.871999 
L 306.233776 223.077674 
L 306.233776 223.077674 
L 306.410507 227.54166 
L 306.410507 227.54166 
L 306.587238 227.915986 
L 306.587238 227.915986 
L 306.763969 231.737927 
L 306.763969 231.737927 
L 306.9407 232.276324 
L 306.9407 232.276324 
L 307.117431 236.093408 
L 307.117431 236.093408 
L 307.294161 236.204427 
L 307.294161 236.204427 
L 307.470892 239.183787 
L 307.470892 239.183787 
L 307.647623 239.851743 
L 307.647623 239.851743 
L 307.824354 242.932349 
L 307.824354 242.932349 
L 308.001085 243.344816 
L 308.001085 243.344816 
L 308.177816 246.029038 
L 308.177816 246.029038 
L 308.354546 246.197633 
L 308.354546 246.197633 
L 308.531277 248.906984 
L 308.531277 248.906984 
L 308.708008 248.831092 
L 308.708008 248.831092 
L 308.884739 251.268872 
L 308.884739 251.268872 
L 309.06147 251.288361 
L 309.06147 251.288361 
L 309.238201 253.204163 
L 309.238201 253.204163 
L 309.414931 252.827603 
L 309.414931 252.827603 
L 309.591662 254.9937 
L 309.591662 254.9937 
L 309.768393 254.910045 
L 309.768393 254.910045 
L 309.945124 255.592912 
L 309.945124 255.592912 
L 310.121855 256.984668 
L 310.121855 256.984668 
L 310.652047 258.101391 
L 310.652047 258.101391 
L 310.828778 259.560998 
L 310.828778 259.560998 
L 311.005509 259.447187 
L 311.005509 259.447187 
L 311.18224 259.640242 
L 311.18224 259.640242 
L 311.358971 260.381968 
L 311.358971 260.381968 
L 311.535701 259.972461 
L 311.712432 261.00268 
L 311.712432 261.00268 
L 311.889163 260.839279 
L 311.889163 260.839279 
L 312.242625 261.13788 
L 312.242625 261.13788 
L 312.419356 260.903444 
L 312.419356 260.903444 
L 312.596087 261.296981 
L 312.596087 261.296981 
L 312.772817 261.244766 
L 312.772817 261.244766 
L 312.949548 261.699396 
L 312.949548 261.699396 
L 313.126279 261.577878 
L 313.126279 261.577878 
L 313.479741 261.741391 
L 313.479741 261.741391 
L 313.656472 261.21729 
L 313.656472 261.21729 
L 313.833202 261.494447 
L 313.833202 261.494447 
L 314.009933 261.327751 
L 314.009933 261.327751 
L 314.186664 261.690014 
L 314.186664 261.690014 
L 314.363395 260.405926 
L 314.363395 260.405926 
L 314.540126 261.502544 
L 314.540126 261.502544 
L 314.716857 260.797619 
L 314.716857 260.797619 
L 314.893587 261.021611 
L 314.893587 261.021611 
L 315.070318 260.805437 
L 315.070318 260.805437 
L 315.247049 260.062705 
L 315.247049 260.062705 
L 315.42378 260.506613 
L 315.42378 260.506613 
L 315.600511 258.399935 
L 315.600511 258.399935 
L 315.777242 259.67319 
L 315.777242 259.67319 
L 316.130703 257.99752 
L 316.130703 257.99752 
L 316.307434 257.738736 
L 316.307434 257.738736 
L 316.484165 255.339489 
L 316.484165 255.339489 
L 316.660896 255.620555 
L 316.660896 255.620555 
L 316.837627 253.22611 
L 316.837627 253.22611 
L 317.014357 254.310107 
L 317.014357 254.310107 
L 317.191088 250.040237 
L 317.191088 250.040237 
L 317.367819 251.990327 
L 317.367819 251.990327 
L 317.54455 250.967479 
L 317.54455 250.967479 
L 317.721281 248.171066 
L 317.721281 248.171066 
L 317.898012 247.993424 
L 317.898012 247.993424 
L 318.074742 244.978324 
L 318.074742 244.978324 
L 318.251473 245.521076 
L 318.251473 245.521076 
L 318.428204 240.346525 
L 318.428204 240.346525 
L 318.604935 241.928991 
L 318.781666 236.186165 
L 318.781666 236.186165 
L 318.958397 238.451944 
L 318.958397 238.451944 
L 319.488589 233.094502 
L 319.488589 233.094502 
L 319.66532 229.314946 
L 319.66532 229.314946 
L 319.842051 229.233357 
L 319.842051 229.233357 
L 320.018782 225.038542 
L 320.018782 225.038542 
L 320.195512 225.565491 
L 320.195512 225.565491 
L 320.372243 219.910565 
L 320.372243 219.910565 
L 320.548974 221.333259 
L 320.548974 221.333259 
L 320.725705 215.106486 
L 320.725705 215.106486 
L 320.902436 216.934109 
L 320.902436 216.934109 
L 321.079167 210.235058 
L 321.079167 210.235058 
L 321.255897 212.381832 
L 321.255897 212.381832 
L 321.432628 205.289637 
L 321.432628 205.289637 
L 321.609359 207.69525 
L 321.609359 207.69525 
L 321.78609 200.429043 
L 321.78609 200.429043 
L 321.962821 202.480267 
L 321.962821 202.480267 
L 322.139552 195.603631 
L 322.139552 195.603631 
L 322.316282 197.922518 
L 322.316282 197.922518 
L 322.493013 190.730417 
L 322.493013 190.730417 
L 322.669744 192.488234 
L 322.846475 185.904335 
L 322.846475 185.904335 
L 323.023206 187.30659 
L 323.023206 187.30659 
L 323.199937 181.093498 
L 323.199937 181.093498 
L 323.376667 181.968917 
L 323.553398 176.204368 
L 323.553398 176.204368 
L 323.730129 176.459075 
L 323.730129 176.459075 
L 323.90686 171.30675 
L 323.90686 171.30675 
L 324.083591 170.65214 
L 324.083591 170.65214 
L 324.260322 165.836836 
L 324.260322 165.836836 
L 324.437053 164.096778 
L 324.437053 164.096778 
L 324.613783 160.671053 
L 324.613783 160.671053 
L 324.790514 152.467216 
L 324.790514 152.467216 
L 324.967245 154.325386 
L 324.967245 154.325386 
L 325.143976 146.261384 
L 325.143976 146.261384 
L 325.320707 146.40295 
L 325.320707 146.40295 
L 325.674168 138.229605 
L 325.674168 138.229605 
L 325.850899 134.737257 
L 325.850899 134.737257 
L 326.02763 124.680947 
L 326.02763 124.680947 
L 326.204361 125.653814 
L 326.204361 125.653814 
L 326.381092 118.660909 
L 326.734553 113.298106 
L 326.734553 113.298106 
L 326.911284 116.354308 
L 326.911284 116.354308 
L 327.088015 117.277529 
L 327.088015 117.277529 
L 327.264746 122.781954 
L 327.441477 132.769464 
L 327.441477 132.769464 
L 327.618208 132.389945 
L 327.618208 132.389945 
L 327.794938 138.154047 
L 327.794938 138.154047 
L 327.971669 147.757626 
L 327.971669 147.757626 
L 328.1484 146.234244 
L 328.1484 146.234244 
L 328.325131 152.808035 
L 328.325131 152.808035 
L 328.501862 154.538265 
L 328.501862 154.538265 
L 329.385516 176.416745 
L 329.385516 176.416745 
L 329.562247 175.392389 
L 329.562247 175.392389 
L 329.738978 180.882071 
L 329.738978 180.882071 
L 329.915708 181.501387 
L 329.915708 181.501387 
L 330.092439 184.598523 
L 330.092439 184.598523 
L 330.26917 190.442315 
L 330.26917 190.442315 
L 330.445901 188.826454 
L 330.445901 188.826454 
L 330.622632 193.66242 
L 330.622632 193.66242 
L 330.799363 193.22365 
L 330.799363 193.22365 
L 330.976093 196.667916 
L 330.976093 196.667916 
L 331.152824 197.12746 
L 331.152824 197.12746 
L 331.506286 200.510967 
L 331.506286 200.510967 
L 331.683017 201.888595 
L 331.683017 201.888595 
L 331.859748 205.103507 
L 331.859748 205.103507 
L 332.036478 204.399475 
L 332.036478 204.399475 
L 332.213209 206.733664 
L 332.213209 206.733664 
L 332.38994 206.510118 
L 332.38994 206.510118 
L 332.566671 208.022331 
L 332.566671 208.022331 
L 332.743402 208.112632 
L 332.743402 208.112632 
L 332.920133 208.975876 
L 332.920133 208.975876 
L 333.803787 210.313296 
L 333.803787 210.313296 
L 333.980518 210.194738 
L 333.980518 210.194738 
L 334.157248 210.538126 
L 334.157248 210.538126 
L 334.333979 210.255832 
L 334.333979 210.255832 
L 334.51071 210.361993 
L 334.51071 210.361993 
L 334.687441 210.277221 
L 334.687441 210.277221 
L 334.864172 210.058757 
L 334.864172 210.058757 
L 335.040903 210.278784 
L 335.040903 210.278784 
L 335.217633 209.93132 
L 335.217633 209.93132 
L 335.394364 210.180498 
L 335.394364 210.180498 
L 335.571095 209.610828 
L 335.571095 209.610828 
L 335.747826 209.869612 
L 335.747826 209.869612 
L 335.924557 209.056404 
L 336.101288 209.260069 
L 336.101288 209.260069 
L 336.278019 208.177914 
L 336.278019 208.177914 
L 336.454749 208.249116 
L 336.454749 208.249116 
L 336.63148 206.891089 
L 336.63148 206.891089 
L 336.808211 206.750585 
L 336.808211 206.750585 
L 336.984942 205.192635 
L 336.984942 205.192635 
L 337.161673 204.673504 
L 337.161673 204.673504 
L 337.338404 202.967957 
L 337.338404 202.967957 
L 337.515134 198.010808 
L 337.515134 198.010808 
L 337.691865 199.730763 
L 337.691865 199.730763 
L 337.868596 194.415037 
L 337.868596 194.415037 
L 338.045327 195.762174 
L 338.045327 195.762174 
L 338.222058 189.762296 
L 338.222058 189.762296 
L 338.398789 190.69758 
L 338.575519 184.075483 
L 338.575519 184.075483 
L 338.75225 184.219059 
L 338.75225 184.219059 
L 338.928981 177.826874 
L 338.928981 177.826874 
L 339.105712 176.8076 
L 339.105712 176.8076 
L 339.635904 161.048059 
L 339.635904 161.048059 
L 339.812635 155.171654 
L 339.812635 155.171654 
L 339.989366 154.259099 
L 339.989366 154.259099 
L 340.166097 163.951749 
L 340.166097 163.951749 
L 340.342828 163.676436 
L 340.519559 170.879316 
L 340.519559 170.879316 
L 340.696289 171.682695 
L 340.696289 171.682695 
L 341.049751 182.089429 
L 341.049751 182.089429 
L 341.226482 181.451406 
L 341.226482 181.451406 
L 341.403213 184.530337 
L 341.403213 184.530337 
L 341.579944 184.71937 
L 341.579944 184.71937 
L 341.756674 186.683254 
L 341.756674 186.683254 
L 341.933405 186.874186 
L 341.933405 186.874186 
L 342.286867 188.140237 
L 342.286867 188.140237 
L 342.463598 188.327763 
L 342.463598 188.327763 
L 342.640329 188.204179 
L 342.640329 188.204179 
L 342.817059 188.418119 
L 342.817059 188.418119 
L 342.99379 188.26276 
L 342.99379 188.26276 
L 343.170521 188.470948 
L 343.170521 188.470948 
L 343.347252 188.30414 
L 343.347252 188.30414 
L 343.523983 187.287659 
L 343.523983 187.287659 
L 343.700714 188.075848 
L 343.700714 188.075848 
L 343.877444 186.814544 
L 343.877444 186.814544 
L 344.054175 186.964543 
L 344.584368 183.028008 
L 344.584368 183.028008 
L 344.761099 177.376153 
L 344.761099 177.376153 
L 344.937829 178.815434 
L 344.937829 178.815434 
L 345.11456 173.317933 
L 345.11456 173.317933 
L 345.291291 172.692419 
L 345.291291 172.692419 
L 345.644753 165.239691 
L 345.644753 165.239691 
L 345.821484 160.599851 
L 345.821484 160.599851 
L 345.998214 149.100798 
L 345.998214 149.100798 
L 346.174945 150.898544 
L 346.174945 150.898544 
L 346.351676 147.769353 
L 346.351676 147.769353 
L 346.528407 147.641693 
L 346.528407 147.641693 
L 346.705138 156.504327 
L 346.705138 156.504327 
L 346.881869 158.856497 
L 346.881869 158.856497 
L 347.23533 171.789469 
L 347.23533 171.789469 
L 347.412061 171.439045 
L 347.412061 171.439045 
L 347.588792 175.677922 
L 347.588792 175.677922 
L 347.765523 176.973347 
L 347.765523 176.973347 
L 348.118985 182.333637 
L 348.118985 182.333637 
L 348.295715 182.669319 
L 348.295715 182.669319 
L 348.649177 185.592499 
L 348.649177 185.592499 
L 348.825908 185.568095 
L 348.825908 185.568095 
L 349.17937 186.340369 
L 349.17937 186.340369 
L 349.3561 186.378734 
L 349.3561 186.378734 
L 349.532831 186.64165 
L 349.532831 186.64165 
L 349.886293 186.324844 
L 349.886293 186.324844 
L 350.063024 186.554756 
L 350.063024 186.554756 
L 350.239755 185.943984 
L 350.239755 185.943984 
L 350.416485 186.603899 
L 350.416485 186.603899 
L 350.769947 186.157478 
L 350.769947 186.157478 
L 350.946678 186.277041 
L 350.946678 186.277041 
L 351.123409 185.167076 
L 351.123409 185.167076 
L 351.30014 186.018481 
L 351.30014 186.018481 
L 351.47687 185.181483 
L 351.47687 185.181483 
L 351.653601 185.529506 
L 351.653601 185.529506 
L 351.830332 184.66414 
L 351.830332 184.66414 
L 352.007063 184.853006 
L 352.007063 184.853006 
L 352.360525 183.615492 
L 352.360525 183.615492 
L 352.537255 183.364974 
L 352.713986 181.873367 
L 352.713986 181.873367 
L 352.890717 182.423659 
L 352.890717 182.423659 
L 353.067448 180.653723 
L 353.067448 180.653723 
L 353.244179 181.388413 
L 353.244179 181.388413 
L 353.42091 180.222659 
L 353.42091 180.222659 
L 353.59764 180.261862 
L 353.59764 180.261862 
L 353.774371 179.315633 
L 353.774371 179.315633 
L 353.951102 176.949613 
L 353.951102 176.949613 
L 354.127833 178.185005 
L 354.127833 178.185005 
L 354.304564 176.312092 
L 354.304564 176.312092 
L 354.481295 176.789619 
L 354.481295 176.789619 
L 354.658025 175.156949 
L 354.658025 175.156949 
L 354.834756 175.208158 
L 354.834756 175.208158 
L 355.188218 172.991634 
L 355.188218 172.991634 
L 355.364949 172.367125 
L 355.364949 172.367125 
L 355.54168 169.311984 
L 355.54168 169.311984 
L 355.71841 170.373755 
L 355.71841 170.373755 
L 355.895141 168.082065 
L 355.895141 168.082065 
L 356.071872 167.995562 
L 356.071872 167.995562 
L 356.248603 166.420858 
L 356.248603 166.420858 
L 356.425334 162.299422 
L 356.425334 162.299422 
L 356.602065 164.248786 
L 356.602065 164.248786 
L 356.778795 160.86958 
L 356.778795 160.86958 
L 356.955526 161.426796 
L 356.955526 161.426796 
L 357.132257 159.137563 
L 357.132257 159.137563 
L 357.308988 158.515734 
L 357.308988 158.515734 
L 357.485719 157.003521 
L 357.485719 157.003521 
L 357.66245 152.978137 
L 357.66245 152.978137 
L 357.83918 153.945085 
L 357.83918 153.945085 
L 358.015911 151.063453 
L 358.015911 151.063453 
L 358.192642 150.75642 
L 358.192642 150.75642 
L 358.369373 149.129837 
L 358.369373 149.129837 
L 358.546104 144.998796 
L 358.546104 144.998796 
L 358.722835 146.033706 
L 358.722835 146.033706 
L 358.899565 143.500264 
L 358.899565 143.500264 
L 359.076296 142.813545 
L 359.076296 142.813545 
L 359.253027 141.208071 
L 359.253027 141.208071 
L 359.429758 138.533957 
L 359.429758 138.533957 
L 359.606489 138.904541 
L 359.606489 138.904541 
L 359.78322 136.996502 
L 359.78322 136.996502 
L 359.959951 133.687827 
L 359.959951 133.687827 
L 360.136681 134.971469 
L 360.136681 134.971469 
L 360.313412 132.437692 
L 360.313412 132.437692 
L 360.490143 132.364592 
L 360.490143 132.364592 
L 360.666874 131.165387 
L 360.666874 131.165387 
L 360.843605 129.170342 
L 360.843605 129.170342 
L 361.020336 129.417286 
L 361.020336 129.417286 
L 361.197066 128.781217 
L 361.197066 128.781217 
L 361.373797 126.625787 
L 361.373797 126.625787 
L 361.550528 127.050708 
L 361.550528 127.050708 
L 361.90399 124.581153 
L 361.90399 124.581153 
L 362.080721 125.091236 
L 362.080721 125.091236 
L 362.434182 122.637038 
L 362.434182 122.637038 
L 362.610913 123.232396 
L 362.610913 123.232396 
L 362.787644 122.055417 
L 362.787644 122.055417 
L 362.964375 122.006163 
L 362.964375 122.006163 
L 363.671298 118.067338 
L 363.671298 118.067338 
L 363.848029 116.158182 
L 363.848029 116.158182 
L 364.02476 115.899734 
L 364.02476 115.899734 
L 364.731683 108.935199 
L 364.731683 108.935199 
L 365.085145 100.975012 
L 365.085145 100.975012 
L 365.261876 102.292048 
L 365.438606 98.540861 
L 365.438606 98.540861 
L 365.615337 92.017721 
L 365.792068 93.507932 
L 365.792068 93.507932 
L 367.205915 59.776903 
L 367.205915 59.776903 
L 367.382646 53.568 
L 367.382646 53.568 
L 396.013041 53.585647 
L 396.013041 53.585647 
L 396.189772 53.719283 
L 396.189772 53.719283 
L 396.366503 53.568 
L 396.366503 53.568 
L 396.896695 53.568 
L 396.896695 53.568 
L 397.250157 54.014421 
L 397.250157 54.014421 
L 397.426888 54.072052 
L 397.426888 54.072052 
L 397.603619 53.568 
L 397.603619 53.568 
L 398.487273 53.568 
L 398.487273 53.568 
" clip-path="url(#p80ea764944)" style="fill: none; stroke: #ff7f0e; stroke-width: 1.5; stroke-linecap: square"/>
   </g>
   <g id="patch_3">
    <path d="M 57.6 307.584 
L 57.6 41.472 
" style="fill: none; stroke: #000000; stroke-width: 0.8; stroke-linejoin: miter; stroke-linecap: square"/>
   </g>
   <g id="patch_4">
    <path d="M 414.72 307.584 
L 414.72 41.472 
" style="fill: none; stroke: #000000; stroke-width: 0.8; stroke-linejoin: miter; stroke-linecap: square"/>
   </g>
   <g id="patch_5">
    <path d="M 57.6 307.584 
L 414.72 307.584 
" style="fill: none; stroke: #000000; stroke-width: 0.8; stroke-linejoin: miter; stroke-linecap: square"/>
   </g>
   <g id="patch_6">
    <path d="M 57.6 41.472 
L 414.72 41.472 
" style="fill: none; stroke: #000000; stroke-width: 0.8; stroke-linejoin: miter; stroke-linecap: square"/>
   </g>
   <g id="text_16">
    <!-- Actual speed vs Expected speed -->
    <g transform="translate(138.808125 35.472) scale(0.12 -0.12)">
     <defs>
      <path id="DejaVuSans-41" d="M 2188 4044 
L 1331 1722 
L 3047 1722 
L 2188 4044 
z
M 1831 4666 
L 2547 4666 
L 4325 0 
L 3669 0 
L 3244 1197 
L 1141 1197 
L 716 0 
L 50 0 
L 1831 4666 
z
" transform="scale(0.015625)"/>
      <path id="DejaVuSans-75" d="M 544 1381 
L 544 3500 
L 1119 3500 
L 1119 1403 
Q 1119 906 1312 657 
Q 1506 409 1894 409 
Q 2359 409 2629 706 
Q 2900 1003 2900 1516 
L 2900 3500 
L 3475 3500 
L 3475 0 
L 2900 0 
L 2900 538 
Q 2691 219 2414 64 
Q 2138 -91 1772 -91 
Q 1169 -91 856 284 
Q 544 659 544 1381 
z
M 1991 3584 
L 1991 3584 
z
" transform="scale(0.015625)"/>
      <path id="DejaVuSans-61" d="M 2194 1759 
Q 1497 1759 1228 1600 
Q 959 1441 959 1056 
Q 959 750 1161 570 
Q 1363 391 1709 391 
Q 2188 391 2477 730 
Q 2766 1069 2766 1631 
L 2766 1759 
L 2194 1759 
z
M 3341 1997 
L 3341 0 
L 2766 0 
L 2766 531 
Q 2569 213 2275 61 
Q 1981 -91 1556 -91 
Q 1019 -91 701 211 
Q 384 513 384 1019 
Q 384 1609 779 1909 
Q 1175 2209 1959 2209 
L 2766 2209 
L 2766 2266 
Q 2766 2663 2505 2880 
Q 2244 3097 1772 3097 
Q 1472 3097 1187 3025 
Q 903 2953 641 2809 
L 641 3341 
Q 956 3463 1253 3523 
Q 1550 3584 1831 3584 
Q 2591 3584 2966 3190 
Q 3341 2797 3341 1997 
z
" transform="scale(0.015625)"/>
      <path id="DejaVuSans-20" transform="scale(0.015625)"/>
      <path id="DejaVuSans-70" d="M 1159 525 
L 1159 -1331 
L 581 -1331 
L 581 3500 
L 1159 3500 
L 1159 2969 
Q 1341 3281 1617 3432 
Q 1894 3584 2278 3584 
Q 2916 3584 3314 3078 
Q 3713 2572 3713 1747 
Q 3713 922 3314 415 
Q 2916 -91 2278 -91 
Q 1894 -91 1617 61 
Q 1341 213 1159 525 
z
M 3116 1747 
Q 3116 2381 2855 2742 
Q 2594 3103 2138 3103 
Q 1681 3103 1420 2742 
Q 1159 2381 1159 1747 
Q 1159 1113 1420 752 
Q 1681 391 2138 391 
Q 2594 391 2855 752 
Q 3116 1113 3116 1747 
z
" transform="scale(0.015625)"/>
      <path id="DejaVuSans-64" d="M 2906 2969 
L 2906 4863 
L 3481 4863 
L 3481 0 
L 2906 0 
L 2906 525 
Q 2725 213 2448 61 
Q 2172 -91 1784 -91 
Q 1150 -91 751 415 
Q 353 922 353 1747 
Q 353 2572 751 3078 
Q 1150 3584 1784 3584 
Q 2172 3584 2448 3432 
Q 2725 3281 2906 2969 
z
M 947 1747 
Q 947 1113 1208 752 
Q 1469 391 1925 391 
Q 2381 391 2643 752 
Q 2906 1113 2906 1747 
Q 2906 2381 2643 2742 
Q 2381 3103 1925 3103 
Q 1469 3103 1208 2742 
Q 947 2381 947 1747 
z
" transform="scale(0.015625)"/>
      <path id="DejaVuSans-76" d="M 191 3500 
L 800 3500 
L 1894 563 
L 2988 3500 
L 3597 3500 
L 2284 0 
L 1503 0 
L 191 3500 
z
" transform="scale(0.015625)"/>
      <path id="DejaVuSans-45" d="M 628 4666 
L 3578 4666 
L 3578 4134 
L 1259 4134 
L 1259 2753 
L 3481 2753 
L 3481 2222 
L 1259 2222 
L 1259 531 
L 3634 531 
L 3634 0 
L 628 0 
L 628 4666 
z
" transform="scale(0.015625)"/>
      <path id="DejaVuSans-78" d="M 3513 3500 
L 2247 1797 
L 3578 0 
L 2900 0 
L 1881 1375 
L 863 0 
L 184 0 
L 1544 1831 
L 300 3500 
L 978 3500 
L 1906 2253 
L 2834 3500 
L 3513 3500 
z
" transform="scale(0.015625)"/>
     </defs>
     <use xlink:href="#DejaVuSans-41"/>
     <use xlink:href="#DejaVuSans-63" x="66.658203"/>
     <use xlink:href="#DejaVuSans-74" x="121.638672"/>
     <use xlink:href="#DejaVuSans-75" x="160.847656"/>
     <use xlink:href="#DejaVuSans-61" x="224.226562"/>
     <use xlink:href="#DejaVuSans-6c" x="285.505859"/>
     <use xlink:href="#DejaVuSans-20" x="313.289062"/>
     <use xlink:href="#DejaVuSans-73" x="345.076172"/>
     <use xlink:href="#DejaVuSans-70" x="397.175781"/>
     <use xlink:href="#DejaVuSans-65" x="460.652344"/>
     <use xlink:href="#DejaVuSans-65" x="522.175781"/>
     <use xlink:href="#DejaVuSans-64" x="583.699219"/>
     <use xlink:href="#DejaVuSans-20" x="647.175781"/>
     <use xlink:href="#DejaVuSans-76" x="678.962891"/>
     <use xlink:href="#DejaVuSans-73" x="738.142578"/>
     <use xlink:href="#DejaVuSans-20" x="790.242188"/>
     <use xlink:href="#DejaVuSans-45" x="822.029297"/>
     <use xlink:href="#DejaVuSans-78" x="885.212891"/>
     <use xlink:href="#DejaVuSans-70" x="944.392578"/>
     <use xlink:href="#DejaVuSans-65" x="1007.869141"/>
     <use xlink:href="#DejaVuSans-63" x="1069.392578"/>
     <use xlink:href="#DejaVuSans-74" x="1124.373047"/>
     <use xlink:href="#DejaVuSans-65" x="1163.582031"/>
     <use xlink:href="#DejaVuSans-64" x="1225.105469"/>
     <use xlink:href="#DejaVuSans-20" x="1288.582031"/>
     <use xlink:href="#DejaVuSans-73" x="1320.369141"/>
     <use xlink:href="#DejaVuSans-70" x="1372.46875"/>
     <use xlink:href="#DejaVuSans-65" x="1435.945312"/>
     <use xlink:href="#DejaVuSans-65" x="1497.46875"/>
     <use xlink:href="#DejaVuSans-64" x="1558.992188"/>
    </g>
   </g>
   <g id="legend_1">
    <g id="patch_7">
     <path d="M 64.6 302.584 
L 176.65 302.584 
Q 178.65 302.584 178.65 300.584 
L 178.65 272.22775 
Q 178.65 270.22775 176.65 270.22775 
L 64.6 270.22775 
Q 62.6 270.22775 62.6 272.22775 
L 62.6 300.584 
Q 62.6 302.584 64.6 302.584 
z
" style="fill: #ffffff; opacity: 0.8; stroke: #cccccc; stroke-linejoin: miter"/>
    </g>
    <g id="line2d_29">
     <path d="M 66.6 278.326187 
L 76.6 278.326187 
L 86.6 278.326187 
" style="fill: none; stroke: #1f77b4; stroke-width: 1.5; stroke-linecap: square"/>
    </g>
    <g id="text_17">
     <!-- Actual speed -->
     <g transform="translate(94.6 281.826187) scale(0.1 -0.1)">
      <use xlink:href="#DejaVuSans-41"/>
      <use xlink:href="#DejaVuSans-63" x="66.658203"/>
      <use xlink:href="#DejaVuSans-74" x="121.638672"/>
      <use xlink:href="#DejaVuSans-75" x="160.847656"/>
      <use xlink:href="#DejaVuSans-61" x="224.226562"/>
      <use xlink:href="#DejaVuSans-6c" x="285.505859"/>
      <use xlink:href="#DejaVuSans-20" x="313.289062"/>
      <use xlink:href="#DejaVuSans-73" x="345.076172"/>
      <use xlink:href="#DejaVuSans-70" x="397.175781"/>
      <use xlink:href="#DejaVuSans-65" x="460.652344"/>
      <use xlink:href="#DejaVuSans-65" x="522.175781"/>
      <use xlink:href="#DejaVuSans-64" x="583.699219"/>
     </g>
    </g>
    <g id="line2d_30">
     <path d="M 66.6 293.004312 
L 76.6 293.004312 
L 86.6 293.004312 
" style="fill: none; stroke: #ff7f0e; stroke-width: 1.5; stroke-linecap: square"/>
    </g>
    <g id="text_18">
     <!-- Expected speed -->
     <g transform="translate(94.6 296.504312) scale(0.1 -0.1)">
      <use xlink:href="#DejaVuSans-45"/>
      <use xlink:href="#DejaVuSans-78" x="63.183594"/>
      <use xlink:href="#DejaVuSans-70" x="122.363281"/>
      <use xlink:href="#DejaVuSans-65" x="185.839844"/>
      <use xlink:href="#DejaVuSans-63" x="247.363281"/>
      <use xlink:href="#DejaVuSans-74" x="302.34375"/>
      <use xlink:href="#DejaVuSans-65" x="341.552734"/>
      <use xlink:href="#DejaVuSans-64" x="403.076172"/>
      <use xlink:href="#DejaVuSans-20" x="466.552734"/>
      <use xlink:href="#DejaVuSans-73" x="498.339844"/>
      <use xlink:href="#DejaVuSans-70" x="550.439453"/>
      <use xlink:href="#DejaVuSans-65" x="613.916016"/>
      <use xlink:href="#DejaVuSans-65" x="675.439453"/>
      <use xlink:href="#DejaVuSans-64" x="736.962891"/>
     </g>
    </g>
   </g>
  </g>
 </g>
 <defs>
  <clipPath id="p80ea764944">
   <rect x="57.6" y="41.472" width="357.12" height="266.112"/>
  </clipPath>
 </defs>
</svg>
