<?xml version="1.0" encoding="utf-8" standalone="no"?>
<!DOCTYPE svg PUBLIC "-//W3C//DTD SVG 1.1//EN"
  "http://www.w3.org/Graphics/SVG/1.1/DTD/svg11.dtd">
<svg xmlns:xlink="http://www.w3.org/1999/xlink" width="460.8pt" height="345.6pt" viewBox="0 0 460.8 345.6" xmlns="http://www.w3.org/2000/svg" version="1.1">
 <metadata>
  <rdf:RDF xmlns:dc="http://purl.org/dc/elements/1.1/" xmlns:cc="http://creativecommons.org/ns#" xmlns:rdf="http://www.w3.org/1999/02/22-rdf-syntax-ns#">
   <cc:Work>
    <dc:type rdf:resource="http://purl.org/dc/dcmitype/StillImage"/>
    <dc:date>2024-01-30T20:59:01.664415</dc:date>
    <dc:format>image/svg+xml</dc:format>
    <dc:creator>
     <cc:Agent>
      <dc:title>Matplotlib v3.7.1, https://matplotlib.org/</dc:title>
     </cc:Agent>
    </dc:creator>
   </cc:Work>
  </rdf:RDF>
 </metadata>
 <defs>
  <style type="text/css">*{stroke-linejoin: round; stroke-linecap: butt}</style>
 </defs>
 <g id="figure_1">
  <g id="patch_1">
   <path d="M 0 345.6 
L 460.8 345.6 
L 460.8 0 
L 0 0 
z
" style="fill: #ffffff"/>
  </g>
  <g id="axes_1">
   <g id="patch_2">
    <path d="M 57.6 307.584 
L 414.72 307.584 
L 414.72 41.472 
L 57.6 41.472 
z
" style="fill: #ffffff"/>
   </g>
   <g id="matplotlib.axis_1">
    <g id="xtick_1">
     <g id="line2d_1">
      <path d="M 73.832727 307.584 
L 73.832727 41.472 
" clip-path="url(#p59442da4a1)" style="fill: none; stroke: #b0b0b0; stroke-width: 0.8; stroke-linecap: square"/>
     </g>
     <g id="line2d_2">
      <defs>
       <path id="mba068ef1b5" d="M 0 0 
L 0 3.5 
" style="stroke: #000000; stroke-width: 0.8"/>
      </defs>
      <g>
       <use xlink:href="#mba068ef1b5" x="73.832727" y="307.584" style="stroke: #000000; stroke-width: 0.8"/>
      </g>
     </g>
     <g id="text_1">
      <!-- 0 -->
      <g transform="translate(70.651477 322.182437) scale(0.1 -0.1)">
       <defs>
        <path id="DejaVuSans-30" d="M 2034 4250 
Q 1547 4250 1301 3770 
Q 1056 3291 1056 2328 
Q 1056 1369 1301 889 
Q 1547 409 2034 409 
Q 2525 409 2770 889 
Q 3016 1369 3016 2328 
Q 3016 3291 2770 3770 
Q 2525 4250 2034 4250 
z
M 2034 4750 
Q 2819 4750 3233 4129 
Q 3647 3509 3647 2328 
Q 3647 1150 3233 529 
Q 2819 -91 2034 -91 
Q 1250 -91 836 529 
Q 422 1150 422 2328 
Q 422 3509 836 4129 
Q 1250 4750 2034 4750 
z
" transform="scale(0.015625)"/>
       </defs>
       <use xlink:href="#DejaVuSans-30"/>
      </g>
     </g>
    </g>
    <g id="xtick_2">
     <g id="line2d_3">
      <path d="M 118.015436 307.584 
L 118.015436 41.472 
" clip-path="url(#p59442da4a1)" style="fill: none; stroke: #b0b0b0; stroke-width: 0.8; stroke-linecap: square"/>
     </g>
     <g id="line2d_4">
      <g>
       <use xlink:href="#mba068ef1b5" x="118.015436" y="307.584" style="stroke: #000000; stroke-width: 0.8"/>
      </g>
     </g>
     <g id="text_2">
      <!-- 5 -->
      <g transform="translate(114.834186 322.182437) scale(0.1 -0.1)">
       <defs>
        <path id="DejaVuSans-35" d="M 691 4666 
L 3169 4666 
L 3169 4134 
L 1269 4134 
L 1269 2991 
Q 1406 3038 1543 3061 
Q 1681 3084 1819 3084 
Q 2600 3084 3056 2656 
Q 3513 2228 3513 1497 
Q 3513 744 3044 326 
Q 2575 -91 1722 -91 
Q 1428 -91 1123 -41 
Q 819 9 494 109 
L 494 744 
Q 775 591 1075 516 
Q 1375 441 1709 441 
Q 2250 441 2565 725 
Q 2881 1009 2881 1497 
Q 2881 1984 2565 2268 
Q 2250 2553 1709 2553 
Q 1456 2553 1204 2497 
Q 953 2441 691 2322 
L 691 4666 
z
" transform="scale(0.015625)"/>
       </defs>
       <use xlink:href="#DejaVuSans-35"/>
      </g>
     </g>
    </g>
    <g id="xtick_3">
     <g id="line2d_5">
      <path d="M 162.198145 307.584 
L 162.198145 41.472 
" clip-path="url(#p59442da4a1)" style="fill: none; stroke: #b0b0b0; stroke-width: 0.8; stroke-linecap: square"/>
     </g>
     <g id="line2d_6">
      <g>
       <use xlink:href="#mba068ef1b5" x="162.198145" y="307.584" style="stroke: #000000; stroke-width: 0.8"/>
      </g>
     </g>
     <g id="text_3">
      <!-- 10 -->
      <g transform="translate(155.835645 322.182437) scale(0.1 -0.1)">
       <defs>
        <path id="DejaVuSans-31" d="M 794 531 
L 1825 531 
L 1825 4091 
L 703 3866 
L 703 4441 
L 1819 4666 
L 2450 4666 
L 2450 531 
L 3481 531 
L 3481 0 
L 794 0 
L 794 531 
z
" transform="scale(0.015625)"/>
       </defs>
       <use xlink:href="#DejaVuSans-31"/>
       <use xlink:href="#DejaVuSans-30" x="63.623047"/>
      </g>
     </g>
    </g>
    <g id="xtick_4">
     <g id="line2d_7">
      <path d="M 206.380854 307.584 
L 206.380854 41.472 
" clip-path="url(#p59442da4a1)" style="fill: none; stroke: #b0b0b0; stroke-width: 0.8; stroke-linecap: square"/>
     </g>
     <g id="line2d_8">
      <g>
       <use xlink:href="#mba068ef1b5" x="206.380854" y="307.584" style="stroke: #000000; stroke-width: 0.8"/>
      </g>
     </g>
     <g id="text_4">
      <!-- 15 -->
      <g transform="translate(200.018354 322.182437) scale(0.1 -0.1)">
       <use xlink:href="#DejaVuSans-31"/>
       <use xlink:href="#DejaVuSans-35" x="63.623047"/>
      </g>
     </g>
    </g>
    <g id="xtick_5">
     <g id="line2d_9">
      <path d="M 250.563563 307.584 
L 250.563563 41.472 
" clip-path="url(#p59442da4a1)" style="fill: none; stroke: #b0b0b0; stroke-width: 0.8; stroke-linecap: square"/>
     </g>
     <g id="line2d_10">
      <g>
       <use xlink:href="#mba068ef1b5" x="250.563563" y="307.584" style="stroke: #000000; stroke-width: 0.8"/>
      </g>
     </g>
     <g id="text_5">
      <!-- 20 -->
      <g transform="translate(244.201063 322.182437) scale(0.1 -0.1)">
       <defs>
        <path id="DejaVuSans-32" d="M 1228 531 
L 3431 531 
L 3431 0 
L 469 0 
L 469 531 
Q 828 903 1448 1529 
Q 2069 2156 2228 2338 
Q 2531 2678 2651 2914 
Q 2772 3150 2772 3378 
Q 2772 3750 2511 3984 
Q 2250 4219 1831 4219 
Q 1534 4219 1204 4116 
Q 875 4013 500 3803 
L 500 4441 
Q 881 4594 1212 4672 
Q 1544 4750 1819 4750 
Q 2544 4750 2975 4387 
Q 3406 4025 3406 3419 
Q 3406 3131 3298 2873 
Q 3191 2616 2906 2266 
Q 2828 2175 2409 1742 
Q 1991 1309 1228 531 
z
" transform="scale(0.015625)"/>
       </defs>
       <use xlink:href="#DejaVuSans-32"/>
       <use xlink:href="#DejaVuSans-30" x="63.623047"/>
      </g>
     </g>
    </g>
    <g id="xtick_6">
     <g id="line2d_11">
      <path d="M 294.746272 307.584 
L 294.746272 41.472 
" clip-path="url(#p59442da4a1)" style="fill: none; stroke: #b0b0b0; stroke-width: 0.8; stroke-linecap: square"/>
     </g>
     <g id="line2d_12">
      <g>
       <use xlink:href="#mba068ef1b5" x="294.746272" y="307.584" style="stroke: #000000; stroke-width: 0.8"/>
      </g>
     </g>
     <g id="text_6">
      <!-- 25 -->
      <g transform="translate(288.383772 322.182437) scale(0.1 -0.1)">
       <use xlink:href="#DejaVuSans-32"/>
       <use xlink:href="#DejaVuSans-35" x="63.623047"/>
      </g>
     </g>
    </g>
    <g id="xtick_7">
     <g id="line2d_13">
      <path d="M 338.928981 307.584 
L 338.928981 41.472 
" clip-path="url(#p59442da4a1)" style="fill: none; stroke: #b0b0b0; stroke-width: 0.8; stroke-linecap: square"/>
     </g>
     <g id="line2d_14">
      <g>
       <use xlink:href="#mba068ef1b5" x="338.928981" y="307.584" style="stroke: #000000; stroke-width: 0.8"/>
      </g>
     </g>
     <g id="text_7">
      <!-- 30 -->
      <g transform="translate(332.566481 322.182437) scale(0.1 -0.1)">
       <defs>
        <path id="DejaVuSans-33" d="M 2597 2516 
Q 3050 2419 3304 2112 
Q 3559 1806 3559 1356 
Q 3559 666 3084 287 
Q 2609 -91 1734 -91 
Q 1441 -91 1130 -33 
Q 819 25 488 141 
L 488 750 
Q 750 597 1062 519 
Q 1375 441 1716 441 
Q 2309 441 2620 675 
Q 2931 909 2931 1356 
Q 2931 1769 2642 2001 
Q 2353 2234 1838 2234 
L 1294 2234 
L 1294 2753 
L 1863 2753 
Q 2328 2753 2575 2939 
Q 2822 3125 2822 3475 
Q 2822 3834 2567 4026 
Q 2313 4219 1838 4219 
Q 1578 4219 1281 4162 
Q 984 4106 628 3988 
L 628 4550 
Q 988 4650 1302 4700 
Q 1616 4750 1894 4750 
Q 2613 4750 3031 4423 
Q 3450 4097 3450 3541 
Q 3450 3153 3228 2886 
Q 3006 2619 2597 2516 
z
" transform="scale(0.015625)"/>
       </defs>
       <use xlink:href="#DejaVuSans-33"/>
       <use xlink:href="#DejaVuSans-30" x="63.623047"/>
      </g>
     </g>
    </g>
    <g id="xtick_8">
     <g id="line2d_15">
      <path d="M 383.11169 307.584 
L 383.11169 41.472 
" clip-path="url(#p59442da4a1)" style="fill: none; stroke: #b0b0b0; stroke-width: 0.8; stroke-linecap: square"/>
     </g>
     <g id="line2d_16">
      <g>
       <use xlink:href="#mba068ef1b5" x="383.11169" y="307.584" style="stroke: #000000; stroke-width: 0.8"/>
      </g>
     </g>
     <g id="text_8">
      <!-- 35 -->
      <g transform="translate(376.74919 322.182437) scale(0.1 -0.1)">
       <use xlink:href="#DejaVuSans-33"/>
       <use xlink:href="#DejaVuSans-35" x="63.623047"/>
      </g>
     </g>
    </g>
    <g id="text_9">
     <!-- Time(s) -->
     <g transform="translate(217.420156 335.860562) scale(0.1 -0.1)">
      <defs>
       <path id="DejaVuSans-54" d="M -19 4666 
L 3928 4666 
L 3928 4134 
L 2272 4134 
L 2272 0 
L 1638 0 
L 1638 4134 
L -19 4134 
L -19 4666 
z
" transform="scale(0.015625)"/>
       <path id="DejaVuSans-69" d="M 603 3500 
L 1178 3500 
L 1178 0 
L 603 0 
L 603 3500 
z
M 603 4863 
L 1178 4863 
L 1178 4134 
L 603 4134 
L 603 4863 
z
" transform="scale(0.015625)"/>
       <path id="DejaVuSans-6d" d="M 3328 2828 
Q 3544 3216 3844 3400 
Q 4144 3584 4550 3584 
Q 5097 3584 5394 3201 
Q 5691 2819 5691 2113 
L 5691 0 
L 5113 0 
L 5113 2094 
Q 5113 2597 4934 2840 
Q 4756 3084 4391 3084 
Q 3944 3084 3684 2787 
Q 3425 2491 3425 1978 
L 3425 0 
L 2847 0 
L 2847 2094 
Q 2847 2600 2669 2842 
Q 2491 3084 2119 3084 
Q 1678 3084 1418 2786 
Q 1159 2488 1159 1978 
L 1159 0 
L 581 0 
L 581 3500 
L 1159 3500 
L 1159 2956 
Q 1356 3278 1631 3431 
Q 1906 3584 2284 3584 
Q 2666 3584 2933 3390 
Q 3200 3197 3328 2828 
z
" transform="scale(0.015625)"/>
       <path id="DejaVuSans-65" d="M 3597 1894 
L 3597 1613 
L 953 1613 
Q 991 1019 1311 708 
Q 1631 397 2203 397 
Q 2534 397 2845 478 
Q 3156 559 3463 722 
L 3463 178 
Q 3153 47 2828 -22 
Q 2503 -91 2169 -91 
Q 1331 -91 842 396 
Q 353 884 353 1716 
Q 353 2575 817 3079 
Q 1281 3584 2069 3584 
Q 2775 3584 3186 3129 
Q 3597 2675 3597 1894 
z
M 3022 2063 
Q 3016 2534 2758 2815 
Q 2500 3097 2075 3097 
Q 1594 3097 1305 2825 
Q 1016 2553 972 2059 
L 3022 2063 
z
" transform="scale(0.015625)"/>
       <path id="DejaVuSans-28" d="M 1984 4856 
Q 1566 4138 1362 3434 
Q 1159 2731 1159 2009 
Q 1159 1288 1364 580 
Q 1569 -128 1984 -844 
L 1484 -844 
Q 1016 -109 783 600 
Q 550 1309 550 2009 
Q 550 2706 781 3412 
Q 1013 4119 1484 4856 
L 1984 4856 
z
" transform="scale(0.015625)"/>
       <path id="DejaVuSans-73" d="M 2834 3397 
L 2834 2853 
Q 2591 2978 2328 3040 
Q 2066 3103 1784 3103 
Q 1356 3103 1142 2972 
Q 928 2841 928 2578 
Q 928 2378 1081 2264 
Q 1234 2150 1697 2047 
L 1894 2003 
Q 2506 1872 2764 1633 
Q 3022 1394 3022 966 
Q 3022 478 2636 193 
Q 2250 -91 1575 -91 
Q 1294 -91 989 -36 
Q 684 19 347 128 
L 347 722 
Q 666 556 975 473 
Q 1284 391 1588 391 
Q 1994 391 2212 530 
Q 2431 669 2431 922 
Q 2431 1156 2273 1281 
Q 2116 1406 1581 1522 
L 1381 1569 
Q 847 1681 609 1914 
Q 372 2147 372 2553 
Q 372 3047 722 3315 
Q 1072 3584 1716 3584 
Q 2034 3584 2315 3537 
Q 2597 3491 2834 3397 
z
" transform="scale(0.015625)"/>
       <path id="DejaVuSans-29" d="M 513 4856 
L 1013 4856 
Q 1481 4119 1714 3412 
Q 1947 2706 1947 2009 
Q 1947 1309 1714 600 
Q 1481 -109 1013 -844 
L 513 -844 
Q 928 -128 1133 580 
Q 1338 1288 1338 2009 
Q 1338 2731 1133 3434 
Q 928 4138 513 4856 
z
" transform="scale(0.015625)"/>
      </defs>
      <use xlink:href="#DejaVuSans-54"/>
      <use xlink:href="#DejaVuSans-69" x="57.958984"/>
      <use xlink:href="#DejaVuSans-6d" x="85.742188"/>
      <use xlink:href="#DejaVuSans-65" x="183.154297"/>
      <use xlink:href="#DejaVuSans-28" x="244.677734"/>
      <use xlink:href="#DejaVuSans-73" x="283.691406"/>
      <use xlink:href="#DejaVuSans-29" x="335.791016"/>
     </g>
    </g>
   </g>
   <g id="matplotlib.axis_2">
    <g id="ytick_1">
     <g id="line2d_17">
      <path d="M 57.6 276.952555 
L 414.72 276.952555 
" clip-path="url(#p59442da4a1)" style="fill: none; stroke: #b0b0b0; stroke-width: 0.8; stroke-linecap: square"/>
     </g>
     <g id="line2d_18">
      <defs>
       <path id="m6a3bff4767" d="M 0 0 
L -3.5 0 
" style="stroke: #000000; stroke-width: 0.8"/>
      </defs>
      <g>
       <use xlink:href="#m6a3bff4767" x="57.6" y="276.952555" style="stroke: #000000; stroke-width: 0.8"/>
      </g>
     </g>
     <g id="text_10">
      <!-- 4 -->
      <g transform="translate(44.2375 280.751774) scale(0.1 -0.1)">
       <defs>
        <path id="DejaVuSans-34" d="M 2419 4116 
L 825 1625 
L 2419 1625 
L 2419 4116 
z
M 2253 4666 
L 3047 4666 
L 3047 1625 
L 3713 1625 
L 3713 1100 
L 3047 1100 
L 3047 0 
L 2419 0 
L 2419 1100 
L 313 1100 
L 313 1709 
L 2253 4666 
z
" transform="scale(0.015625)"/>
       </defs>
       <use xlink:href="#DejaVuSans-34"/>
      </g>
     </g>
    </g>
    <g id="ytick_2">
     <g id="line2d_19">
      <path d="M 57.6 221.106416 
L 414.72 221.106416 
" clip-path="url(#p59442da4a1)" style="fill: none; stroke: #b0b0b0; stroke-width: 0.8; stroke-linecap: square"/>
     </g>
     <g id="line2d_20">
      <g>
       <use xlink:href="#m6a3bff4767" x="57.6" y="221.106416" style="stroke: #000000; stroke-width: 0.8"/>
      </g>
     </g>
     <g id="text_11">
      <!-- 5 -->
      <g transform="translate(44.2375 224.905635) scale(0.1 -0.1)">
       <use xlink:href="#DejaVuSans-35"/>
      </g>
     </g>
    </g>
    <g id="ytick_3">
     <g id="line2d_21">
      <path d="M 57.6 165.260277 
L 414.72 165.260277 
" clip-path="url(#p59442da4a1)" style="fill: none; stroke: #b0b0b0; stroke-width: 0.8; stroke-linecap: square"/>
     </g>
     <g id="line2d_22">
      <g>
       <use xlink:href="#m6a3bff4767" x="57.6" y="165.260277" style="stroke: #000000; stroke-width: 0.8"/>
      </g>
     </g>
     <g id="text_12">
      <!-- 6 -->
      <g transform="translate(44.2375 169.059496) scale(0.1 -0.1)">
       <defs>
        <path id="DejaVuSans-36" d="M 2113 2584 
Q 1688 2584 1439 2293 
Q 1191 2003 1191 1497 
Q 1191 994 1439 701 
Q 1688 409 2113 409 
Q 2538 409 2786 701 
Q 3034 994 3034 1497 
Q 3034 2003 2786 2293 
Q 2538 2584 2113 2584 
z
M 3366 4563 
L 3366 3988 
Q 3128 4100 2886 4159 
Q 2644 4219 2406 4219 
Q 1781 4219 1451 3797 
Q 1122 3375 1075 2522 
Q 1259 2794 1537 2939 
Q 1816 3084 2150 3084 
Q 2853 3084 3261 2657 
Q 3669 2231 3669 1497 
Q 3669 778 3244 343 
Q 2819 -91 2113 -91 
Q 1303 -91 875 529 
Q 447 1150 447 2328 
Q 447 3434 972 4092 
Q 1497 4750 2381 4750 
Q 2619 4750 2861 4703 
Q 3103 4656 3366 4563 
z
" transform="scale(0.015625)"/>
       </defs>
       <use xlink:href="#DejaVuSans-36"/>
      </g>
     </g>
    </g>
    <g id="ytick_4">
     <g id="line2d_23">
      <path d="M 57.6 109.414139 
L 414.72 109.414139 
" clip-path="url(#p59442da4a1)" style="fill: none; stroke: #b0b0b0; stroke-width: 0.8; stroke-linecap: square"/>
     </g>
     <g id="line2d_24">
      <g>
       <use xlink:href="#m6a3bff4767" x="57.6" y="109.414139" style="stroke: #000000; stroke-width: 0.8"/>
      </g>
     </g>
     <g id="text_13">
      <!-- 7 -->
      <g transform="translate(44.2375 113.213357) scale(0.1 -0.1)">
       <defs>
        <path id="DejaVuSans-37" d="M 525 4666 
L 3525 4666 
L 3525 4397 
L 1831 0 
L 1172 0 
L 2766 4134 
L 525 4134 
L 525 4666 
z
" transform="scale(0.015625)"/>
       </defs>
       <use xlink:href="#DejaVuSans-37"/>
      </g>
     </g>
    </g>
    <g id="ytick_5">
     <g id="line2d_25">
      <path d="M 57.6 53.568 
L 414.72 53.568 
" clip-path="url(#p59442da4a1)" style="fill: none; stroke: #b0b0b0; stroke-width: 0.8; stroke-linecap: square"/>
     </g>
     <g id="line2d_26">
      <g>
       <use xlink:href="#m6a3bff4767" x="57.6" y="53.568" style="stroke: #000000; stroke-width: 0.8"/>
      </g>
     </g>
     <g id="text_14">
      <!-- 8 -->
      <g transform="translate(44.2375 57.367219) scale(0.1 -0.1)">
       <defs>
        <path id="DejaVuSans-38" d="M 2034 2216 
Q 1584 2216 1326 1975 
Q 1069 1734 1069 1313 
Q 1069 891 1326 650 
Q 1584 409 2034 409 
Q 2484 409 2743 651 
Q 3003 894 3003 1313 
Q 3003 1734 2745 1975 
Q 2488 2216 2034 2216 
z
M 1403 2484 
Q 997 2584 770 2862 
Q 544 3141 544 3541 
Q 544 4100 942 4425 
Q 1341 4750 2034 4750 
Q 2731 4750 3128 4425 
Q 3525 4100 3525 3541 
Q 3525 3141 3298 2862 
Q 3072 2584 2669 2484 
Q 3125 2378 3379 2068 
Q 3634 1759 3634 1313 
Q 3634 634 3220 271 
Q 2806 -91 2034 -91 
Q 1263 -91 848 271 
Q 434 634 434 1313 
Q 434 1759 690 2068 
Q 947 2378 1403 2484 
z
M 1172 3481 
Q 1172 3119 1398 2916 
Q 1625 2713 2034 2713 
Q 2441 2713 2670 2916 
Q 2900 3119 2900 3481 
Q 2900 3844 2670 4047 
Q 2441 4250 2034 4250 
Q 1625 4250 1398 4047 
Q 1172 3844 1172 3481 
z
" transform="scale(0.015625)"/>
       </defs>
       <use xlink:href="#DejaVuSans-38"/>
      </g>
     </g>
    </g>
    <g id="text_15">
     <!-- Velocity(m/s) -->
     <g transform="translate(38.157812 207.204563) rotate(-90) scale(0.1 -0.1)">
      <defs>
       <path id="DejaVuSans-56" d="M 1831 0 
L 50 4666 
L 709 4666 
L 2188 738 
L 3669 4666 
L 4325 4666 
L 2547 0 
L 1831 0 
z
" transform="scale(0.015625)"/>
       <path id="DejaVuSans-6c" d="M 603 4863 
L 1178 4863 
L 1178 0 
L 603 0 
L 603 4863 
z
" transform="scale(0.015625)"/>
       <path id="DejaVuSans-6f" d="M 1959 3097 
Q 1497 3097 1228 2736 
Q 959 2375 959 1747 
Q 959 1119 1226 758 
Q 1494 397 1959 397 
Q 2419 397 2687 759 
Q 2956 1122 2956 1747 
Q 2956 2369 2687 2733 
Q 2419 3097 1959 3097 
z
M 1959 3584 
Q 2709 3584 3137 3096 
Q 3566 2609 3566 1747 
Q 3566 888 3137 398 
Q 2709 -91 1959 -91 
Q 1206 -91 779 398 
Q 353 888 353 1747 
Q 353 2609 779 3096 
Q 1206 3584 1959 3584 
z
" transform="scale(0.015625)"/>
       <path id="DejaVuSans-63" d="M 3122 3366 
L 3122 2828 
Q 2878 2963 2633 3030 
Q 2388 3097 2138 3097 
Q 1578 3097 1268 2742 
Q 959 2388 959 1747 
Q 959 1106 1268 751 
Q 1578 397 2138 397 
Q 2388 397 2633 464 
Q 2878 531 3122 666 
L 3122 134 
Q 2881 22 2623 -34 
Q 2366 -91 2075 -91 
Q 1284 -91 818 406 
Q 353 903 353 1747 
Q 353 2603 823 3093 
Q 1294 3584 2113 3584 
Q 2378 3584 2631 3529 
Q 2884 3475 3122 3366 
z
" transform="scale(0.015625)"/>
       <path id="DejaVuSans-74" d="M 1172 4494 
L 1172 3500 
L 2356 3500 
L 2356 3053 
L 1172 3053 
L 1172 1153 
Q 1172 725 1289 603 
Q 1406 481 1766 481 
L 2356 481 
L 2356 0 
L 1766 0 
Q 1100 0 847 248 
Q 594 497 594 1153 
L 594 3053 
L 172 3053 
L 172 3500 
L 594 3500 
L 594 4494 
L 1172 4494 
z
" transform="scale(0.015625)"/>
       <path id="DejaVuSans-79" d="M 2059 -325 
Q 1816 -950 1584 -1140 
Q 1353 -1331 966 -1331 
L 506 -1331 
L 506 -850 
L 844 -850 
Q 1081 -850 1212 -737 
Q 1344 -625 1503 -206 
L 1606 56 
L 191 3500 
L 800 3500 
L 1894 763 
L 2988 3500 
L 3597 3500 
L 2059 -325 
z
" transform="scale(0.015625)"/>
       <path id="DejaVuSans-2f" d="M 1625 4666 
L 2156 4666 
L 531 -594 
L 0 -594 
L 1625 4666 
z
" transform="scale(0.015625)"/>
      </defs>
      <use xlink:href="#DejaVuSans-56"/>
      <use xlink:href="#DejaVuSans-65" x="60.658203"/>
      <use xlink:href="#DejaVuSans-6c" x="122.181641"/>
      <use xlink:href="#DejaVuSans-6f" x="149.964844"/>
      <use xlink:href="#DejaVuSans-63" x="211.146484"/>
      <use xlink:href="#DejaVuSans-69" x="266.126953"/>
      <use xlink:href="#DejaVuSans-74" x="293.910156"/>
      <use xlink:href="#DejaVuSans-79" x="333.119141"/>
      <use xlink:href="#DejaVuSans-28" x="392.298828"/>
      <use xlink:href="#DejaVuSans-6d" x="431.3125"/>
      <use xlink:href="#DejaVuSans-2f" x="528.724609"/>
      <use xlink:href="#DejaVuSans-73" x="562.416016"/>
      <use xlink:href="#DejaVuSans-29" x="614.515625"/>
     </g>
    </g>
   </g>
   <g id="line2d_27">
    <path d="M 73.832727 53.783175 
L 76.130228 53.628649 
L 76.130228 53.628649 
L 81.255422 53.571574 
L 81.255422 53.571574 
L 92.389465 53.568 
L 92.389465 53.568 
L 92.919658 58.98206 
L 92.919658 58.98206 
L 93.626581 78.585283 
L 93.626581 78.585283 
L 95.393889 129.189592 
L 95.393889 129.189592 
L 96.984467 161.460004 
L 96.984467 161.460004 
L 97.69139 172.955261 
L 97.69139 172.955261 
L 99.281968 190.280855 
L 99.281968 190.280855 
L 100.519083 197.327521 
L 100.519083 197.327521 
L 101.049276 198.697259 
L 101.049276 198.697259 
L 101.579469 199.265661 
L 101.579469 199.265661 
L 101.93293 199.431413 
L 101.93293 199.431413 
L 102.286392 199.430463 
L 102.286392 199.430463 
L 103.170046 199.267337 
L 103.170046 199.267337 
L 103.523508 199.026137 
L 103.523508 199.026137 
L 103.876969 198.58149 
L 103.876969 198.58149 
L 104.583893 196.373167 
L 104.583893 196.373167 
L 105.290816 192.421941 
L 105.290816 192.421941 
L 105.644278 188.839355 
L 105.644278 188.839355 
L 105.997739 184.675467 
L 105.997739 184.675467 
L 106.351201 179.759275 
L 106.351201 179.759275 
L 106.881394 170.675678 
L 106.881394 170.675678 
L 107.941779 151.047491 
L 107.941779 151.047491 
L 108.471971 147.352264 
L 108.471971 147.352264 
L 109.002164 145.876474 
L 109.002164 145.876474 
L 109.532356 145.242061 
L 109.532356 145.242061 
L 109.885818 145.046991 
L 109.885818 145.046991 
L 111.476395 144.429109 
L 111.476395 144.429109 
L 112.360049 143.386127 
L 112.360049 143.386127 
L 112.890242 142.242621 
L 112.890242 142.242621 
L 113.597165 139.339627 
L 113.597165 139.339627 
L 113.950627 137.412098 
L 113.950627 137.412098 
L 114.834281 129.260795 
L 114.834281 129.260795 
L 115.717935 118.717324 
L 115.717935 118.717324 
L 115.894666 117.8564 
L 115.894666 117.8564 
L 116.071397 118.088943 
L 116.071397 118.088943 
L 117.485244 145.116464 
L 117.485244 145.116464 
L 118.015436 152.95553 
L 118.015436 152.95553 
L 118.368898 157.474656 
L 118.368898 157.474656 
L 119.252552 165.784617 
L 119.252552 165.784617 
L 119.959475 169.147392 
L 119.959475 169.147392 
L 120.489668 170.202437 
L 120.489668 170.202437 
L 121.196591 170.920228 
L 121.196591 170.920228 
L 121.726784 171.371576 
L 121.726784 171.371576 
L 122.256976 171.410166 
L 122.256976 171.410166 
L 122.610438 171.438536 
L 122.610438 171.438536 
L 123.847554 171.125239 
L 123.847554 171.125239 
L 124.201015 170.888954 
L 124.201015 170.888954 
L 124.731208 170.537738 
L 124.731208 170.537738 
L 125.08467 170.334904 
L 125.08467 170.334904 
L 125.614862 169.659669 
L 125.614862 169.659669 
L 126.145055 168.99119 
L 126.145055 168.99119 
L 126.851978 167.88365 
L 126.851978 167.88365 
L 127.735632 166.094507 
L 127.735632 166.094507 
L 128.442556 164.344122 
L 128.442556 164.344122 
L 129.502941 161.35613 
L 129.502941 161.35613 
L 130.740056 157.05648 
L 130.740056 157.05648 
L 132.153903 151.159574 
L 132.153903 151.159574 
L 134.451404 138.787309 
L 134.451404 138.787309 
L 135.335058 132.758551 
L 135.335058 132.758551 
L 136.218712 126.01943 
L 136.218712 126.01943 
L 138.339482 105.724217 
L 138.339482 105.724217 
L 139.753329 88.038303 
L 139.753329 88.038303 
L 141.167176 70.187029 
L 141.167176 70.187029 
L 141.874099 64.822952 
L 141.874099 64.822952 
L 142.581022 61.190216 
L 142.581022 61.190216 
L 143.287946 58.72997 
L 143.287946 58.72997 
L 143.994869 57.063857 
L 143.994869 57.063857 
L 144.701792 55.935485 
L 144.701792 55.935485 
L 145.408716 55.171343 
L 145.408716 55.171343 
L 146.29237 54.553014 
L 146.29237 54.553014 
L 147.352755 54.116968 
L 147.352755 54.116968 
L 148.766602 53.81981 
L 148.766602 53.81981 
L 150.887372 53.646185 
L 150.887372 53.646185 
L 151.064103 54.614948 
L 151.064103 54.614948 
L 151.417564 62.974835 
L 151.417564 62.974835 
L 151.947757 76.510822 
L 151.947757 76.510822 
L 152.831411 104.984423 
L 152.831411 104.984423 
L 153.361603 119.646883 
L 153.361603 119.646883 
L 153.715065 130.338235 
L 153.715065 130.338235 
L 155.482373 174.996214 
L 155.482373 174.996214 
L 156.012566 185.046397 
L 156.012566 185.046397 
L 157.072951 205.046128 
L 157.072951 205.046128 
L 157.603143 212.119265 
L 157.603143 212.119265 
L 158.133336 219.312415 
L 158.133336 219.312415 
L 160.077375 237.20965 
L 160.077375 237.20965 
L 160.607568 240.65491 
L 160.607568 240.65491 
L 161.491222 244.399841 
L 161.491222 244.399841 
L 162.021414 245.749698 
L 162.021414 245.749698 
L 162.728338 246.871479 
L 162.728338 246.871479 
L 163.081799 247.114968 
L 163.081799 247.114968 
L 163.788723 247.269941 
L 163.788723 247.269941 
L 164.495646 247.336901 
L 164.495646 247.336901 
L 165.202569 247.282507 
L 165.202569 247.282507 
L 166.262954 246.335691 
L 166.262954 246.335691 
L 166.793147 245.487723 
L 166.793147 245.487723 
L 167.146609 244.856383 
L 167.146609 244.856383 
L 167.853532 242.988888 
L 167.853532 242.988888 
L 168.913917 238.58447 
L 168.913917 238.58447 
L 170.327764 230.067208 
L 170.327764 230.067208 
L 172.625265 210.916897 
L 172.625265 210.916897 
L 173.508919 202.566838 
L 173.508919 202.566838 
L 177.220266 163.110871 
L 177.220266 163.110871 
L 180.04796 131.668657 
L 180.04796 131.668657 
L 181.108345 114.826802 
L 181.108345 114.826802 
L 182.522191 87.716629 
L 182.522191 87.716629 
L 182.875653 86.980801 
L 182.875653 86.980801 
L 183.052384 88.072537 
L 183.052384 88.072537 
L 183.759307 105.342285 
L 183.759307 105.342285 
L 184.466231 127.516441 
L 184.466231 127.516441 
L 185.349885 153.792608 
L 185.349885 153.792608 
L 185.880077 170.283303 
L 185.880077 170.283303 
L 186.587001 189.615002 
L 186.587001 189.615002 
L 187.117193 202.875668 
L 187.117193 202.875668 
L 188.707771 233.583672 
L 188.707771 233.583672 
L 189.591425 247.162493 
L 189.591425 247.162493 
L 191.005271 261.930558 
L 191.005271 261.930558 
L 191.535464 265.80857 
L 191.535464 265.80857 
L 192.77258 271.391117 
L 192.77258 271.391117 
L 193.302772 272.772751 
L 193.302772 272.772751 
L 193.832965 273.5532 
L 193.832965 273.5532 
L 194.363157 274.225029 
L 194.363157 274.225029 
L 194.89335 274.549049 
L 194.89335 274.549049 
L 195.600273 274.595122 
L 195.600273 274.595122 
L 196.483927 274.626451 
L 196.483927 274.626451 
L 197.190851 274.465782 
L 197.190851 274.465782 
L 198.251236 273.278549 
L 198.251236 273.278549 
L 198.427967 273.038411 
L 198.427967 273.038411 
L 199.665082 269.394674 
L 199.665082 269.394674 
L 201.25566 259.724133 
L 201.25566 259.724133 
L 201.962583 253.666725 
L 201.962583 253.666725 
L 202.492776 248.205252 
L 202.492776 248.205252 
L 204.260084 223.895037 
L 204.260084 223.895037 
L 205.143738 207.651238 
L 205.143738 207.651238 
L 206.027392 187.560478 
L 206.027392 187.560478 
L 209.915471 84.58031 
L 209.915471 84.58031 
L 210.622394 74.570504 
L 210.622394 74.570504 
L 211.329318 67.791565 
L 211.329318 67.791565 
L 212.036241 63.200677 
L 212.036241 63.200677 
L 212.743164 60.091555 
L 212.743164 60.091555 
L 213.450088 57.985932 
L 213.450088 57.985932 
L 214.157011 56.559957 
L 214.157011 56.559957 
L 214.863934 55.594265 
L 214.863934 55.594265 
L 215.040665 55.40612 
L 215.040665 55.40612 
L 215.394127 56.829303 
L 215.394127 56.829303 
L 215.747588 61.18815 
L 215.747588 61.18815 
L 219.105474 133.900325 
L 219.105474 133.900325 
L 219.458936 141.471777 
L 219.458936 141.471777 
L 220.165859 154.68341 
L 220.165859 154.68341 
L 220.519321 160.380163 
L 220.519321 160.380163 
L 220.872783 166.772312 
L 220.872783 166.772312 
L 221.579706 178.152861 
L 221.579706 178.152861 
L 223.523745 197.716713 
L 223.523745 197.716713 
L 224.407399 202.190771 
L 224.407399 202.190771 
L 225.114323 204.226977 
L 225.114323 204.226977 
L 225.644515 204.93639 
L 225.644515 204.93639 
L 226.7049 205.328598 
L 226.7049 205.328598 
L 227.588554 205.201827 
L 227.588554 205.201827 
L 228.295478 204.641634 
L 228.295478 204.641634 
L 229.002401 203.351979 
L 229.002401 203.351979 
L 229.532594 201.621363 
L 229.532594 201.621363 
L 230.592979 194.48674 
L 230.592979 194.48674 
L 231.476633 184.72288 
L 231.476633 184.72288 
L 232.713749 161.214336 
L 232.713749 161.214336 
L 235.364711 89.623775 
L 235.364711 89.623775 
L 236.071635 77.98611 
L 236.071635 77.98611 
L 236.778558 70.104712 
L 236.778558 70.104712 
L 237.485481 64.767217 
L 237.485481 64.767217 
L 238.192405 61.152464 
L 238.192405 61.152464 
L 238.899328 58.704449 
L 238.899328 58.704449 
L 239.606251 57.046544 
L 239.606251 57.046544 
L 240.313175 55.923814 
L 240.313175 55.923814 
L 241.020098 55.163412 
L 241.020098 55.163412 
L 241.37356 54.880943 
L 241.37356 54.880943 
L 241.55029 55.133814 
L 241.727021 56.376446 
L 241.727021 56.376446 
L 242.610676 67.443978 
L 242.610676 67.443978 
L 243.847791 86.399833 
L 243.847791 86.399833 
L 244.731446 99.75164 
L 244.731446 99.75164 
L 245.261638 107.766175 
L 245.261638 107.766175 
L 246.145292 121.477966 
L 246.145292 121.477966 
L 247.028946 131.225686 
L 247.028946 131.225686 
L 247.559139 136.148746 
L 247.559139 136.148746 
L 247.912601 138.788817 
L 247.912601 138.788817 
L 248.619524 142.834199 
L 248.619524 142.834199 
L 249.149716 144.432683 
L 249.149716 144.432683 
L 249.679909 145.446291 
L 249.679909 145.446291 
L 250.033371 145.838331 
L 250.033371 145.838331 
L 250.740294 145.865304 
L 250.740294 145.865304 
L 251.093756 146.064843 
L 251.093756 146.064843 
L 251.623948 145.968396 
L 251.623948 145.968396 
L 251.97741 145.742945 
L 251.97741 145.742945 
L 252.507602 144.965009 
L 252.507602 144.965009 
L 253.391256 142.406921 
L 253.391256 142.406921 
L 254.274911 137.747901 
L 254.274911 137.747901 
L 254.805103 133.834203 
L 254.805103 133.834203 
L 255.512027 127.31344 
L 255.512027 127.31344 
L 257.279335 105.198202 
L 257.279335 105.198202 
L 258.162989 91.170825 
L 258.162989 91.170825 
L 259.223374 74.85934 
L 259.223374 74.85934 
L 259.930297 67.987194 
L 259.930297 67.987194 
L 260.637221 63.333144 
L 260.637221 63.333144 
L 261.344144 60.181244 
L 261.344144 60.181244 
L 262.051067 58.046693 
L 262.051067 58.046693 
L 262.757991 56.601115 
L 262.757991 56.601115 
L 263.464914 55.622133 
L 263.464914 55.622133 
L 264.348568 54.829955 
L 264.348568 54.829955 
L 265.232222 54.343312 
L 265.232222 54.343312 
L 266.292608 54.000082 
L 266.292608 54.000082 
L 267.883185 53.747769 
L 267.883185 53.747769 
L 270.357417 53.613961 
L 270.357417 53.613961 
L 276.366265 53.569675 
L 276.366265 53.569675 
L 276.896458 60.42356 
L 276.896458 60.42356 
L 277.249919 71.668124 
L 277.249919 71.668124 
L 277.603381 84.739025 
L 277.603381 84.739025 
L 277.956843 97.447372 
L 277.956843 97.447372 
L 278.310304 111.459671 
L 278.310304 111.459671 
L 279.017228 136.898593 
L 279.017228 136.898593 
L 279.370689 150.530635 
L 279.370689 150.530635 
L 280.961267 204.647386 
L 280.961267 204.647386 
L 281.137998 208.456484 
L 281.137998 208.456484 
L 281.491459 218.011535 
L 281.491459 218.011535 
L 282.021652 231.555787 
L 282.021652 231.555787 
L 282.198383 234.273372 
L 282.198383 234.273372 
L 282.728575 246.086059 
L 282.728575 246.086059 
L 283.258768 253.315956 
L 283.258768 253.315956 
L 284.142422 266.228309 
L 284.142422 266.228309 
L 284.495884 271.356493 
L 284.495884 271.356493 
L 285.026076 276.555824 
L 285.026076 276.555824 
L 285.379538 280.295058 
L 285.379538 280.295058 
L 286.793384 290.268396 
L 286.793384 290.268396 
L 287.146846 292.027438 
L 287.146846 292.027438 
L 287.677039 293.755988 
L 287.677039 293.755988 
L 288.0305 294.497401 
L 288.0305 294.497401 
L 288.383962 294.95573 
L 288.383962 294.95573 
L 288.737424 295.148679 
L 288.737424 295.148679 
L 289.444347 295.343749 
L 289.444347 295.343749 
L 289.797809 295.287959 
L 289.797809 295.287959 
L 290.15127 295.278633 
L 290.15127 295.278633 
L 290.681463 295.112602 
L 290.681463 295.112602 
L 290.858194 295.034306 
L 290.858194 295.034306 
L 291.741848 293.860476 
L 291.741848 293.860476 
L 292.802233 290.291964 
L 292.802233 290.291964 
L 293.332425 287.753421 
L 293.332425 287.753421 
L 294.039349 283.376536 
L 294.039349 283.376536 
L 294.923003 276.340705 
L 294.923003 276.340705 
L 295.629926 269.554673 
L 295.629926 269.554673 
L 298.45762 230.401727 
L 298.45762 230.401727 
L 299.871466 207.269865 
L 299.871466 207.269865 
L 300.931851 191.976568 
L 300.931851 191.976568 
L 302.522429 169.332354 
L 302.522429 169.332354 
L 303.229352 159.675328 
L 303.229352 159.675328 
L 303.406083 159.389396 
L 303.406083 159.389396 
L 303.582814 158.835235 
L 303.582814 158.835235 
L 304.113006 167.088848 
L 304.113006 167.088848 
L 304.466468 177.25614 
L 304.466468 177.25614 
L 304.996661 190.40919 
L 304.996661 190.40919 
L 306.587238 221.678057 
L 306.587238 221.678057 
L 308.708008 245.532624 
L 308.708008 245.532624 
L 309.238201 249.319439 
L 309.238201 249.319439 
L 309.591662 251.394346 
L 309.591662 251.394346 
L 310.298586 255.009713 
L 310.298586 255.009713 
L 311.005509 257.863116 
L 311.005509 257.863116 
L 311.535701 259.374815 
L 311.535701 259.374815 
L 311.712432 259.576252 
L 311.712432 259.576252 
L 312.065894 260.448457 
L 312.065894 260.448457 
L 312.419356 260.822682 
L 312.419356 260.822682 
L 312.596087 260.857921 
L 312.596087 260.857921 
L 313.30301 261.404264 
L 313.30301 261.404264 
L 313.833202 261.546504 
L 313.833202 261.546504 
L 315.070318 261.457764 
L 315.070318 261.457764 
L 315.600511 261.204055 
L 315.600511 261.204055 
L 315.953972 260.82715 
L 315.953972 260.82715 
L 316.484165 260.14041 
L 316.484165 260.14041 
L 317.54455 257.300969 
L 317.54455 257.300969 
L 318.074742 255.187695 
L 318.074742 255.187695 
L 319.311858 248.037155 
L 319.311858 248.037155 
L 320.372243 239.549939 
L 320.372243 239.549939 
L 322.493013 216.53675 
L 322.493013 216.53675 
L 325.497438 174.092624 
L 325.497438 174.092624 
L 327.441477 140.094388 
L 327.441477 140.094388 
L 327.794938 138.756203 
L 327.794938 138.756203 
L 327.971669 138.72599 
L 327.971669 138.72599 
L 328.501862 146.665021 
L 328.501862 146.665021 
L 328.855323 152.433425 
L 328.855323 152.433425 
L 329.562247 167.831601 
L 329.562247 167.831601 
L 330.622632 184.12125 
L 330.622632 184.12125 
L 330.976093 189.404797 
L 330.976093 189.404797 
L 331.506286 195.691173 
L 331.506286 195.691173 
L 332.566671 204.487387 
L 332.566671 204.487387 
L 332.920133 206.532752 
L 332.920133 206.532752 
L 333.450325 208.575771 
L 333.450325 208.575771 
L 333.980518 209.704589 
L 333.980518 209.704589 
L 334.51071 210.160182 
L 334.51071 210.160182 
L 335.040903 210.294101 
L 335.040903 210.294101 
L 335.747826 210.196035 
L 335.747826 210.196035 
L 336.101288 210.065355 
L 336.101288 210.065355 
L 336.454749 209.825329 
L 336.454749 209.825329 
L 336.808211 209.423404 
L 336.808211 209.423404 
L 337.161673 208.80837 
L 337.161673 208.80837 
L 337.515134 207.902267 
L 337.515134 207.902267 
L 338.398789 202.988309 
L 338.398789 202.988309 
L 338.75225 200.199744 
L 338.75225 200.199744 
L 339.282443 194.917984 
L 339.282443 194.917984 
L 339.989366 184.523119 
L 339.989366 184.523119 
L 340.342828 180.056879 
L 340.342828 180.056879 
L 340.696289 177.826664 
L 340.696289 177.826664 
L 340.87302 177.261892 
L 340.87302 177.261892 
L 341.049751 177.162709 
L 341.049751 177.162709 
L 341.579944 181.397187 
L 341.579944 181.397187 
L 342.463598 186.68375 
L 342.463598 186.68375 
L 342.817059 187.580136 
L 342.817059 187.580136 
L 343.523983 188.179868 
L 343.523983 188.179868 
L 344.407637 187.665469 
L 344.407637 187.665469 
L 344.761099 187.003413 
L 344.761099 187.003413 
L 345.468022 183.234245 
L 345.468022 183.234245 
L 345.998214 178.41679 
L 345.998214 178.41679 
L 346.705138 168.840294 
L 346.705138 168.840294 
L 347.058599 166.879983 
L 347.058599 166.879983 
L 347.23533 166.657324 
L 347.23533 166.657324 
L 347.765523 171.713522 
L 347.765523 171.713522 
L 348.118985 176.555215 
L 348.118985 176.555215 
L 348.649177 181.424775 
L 348.649177 181.424775 
L 349.002639 183.804435 
L 349.002639 183.804435 
L 349.3561 185.207569 
L 349.3561 185.207569 
L 349.886293 186.159243 
L 349.886293 186.159243 
L 350.946678 186.413454 
L 350.946678 186.413454 
L 351.30014 186.289029 
L 351.30014 186.289029 
L 351.830332 186.105966 
L 351.830332 186.105966 
L 352.713986 185.31094 
L 352.713986 185.31094 
L 353.951102 183.040292 
L 353.951102 183.040292 
L 354.834756 180.554971 
L 354.834756 180.554971 
L 355.54168 178.275834 
L 355.54168 178.275834 
L 357.132257 170.474687 
L 357.132257 170.474687 
L 358.192642 163.641354 
L 358.192642 163.641354 
L 359.253027 155.724549 
L 359.253027 155.724549 
L 361.727259 137.571203 
L 361.727259 137.571203 
L 362.964375 130.740941 
L 362.964375 130.740941 
L 364.908414 119.727078 
L 364.908414 119.727078 
L 365.615337 113.917571 
L 365.615337 113.917571 
L 366.675722 101.474437 
L 366.675722 101.474437 
L 367.559376 86.244302 
L 367.559376 86.244302 
L 368.2663 75.697423 
L 368.2663 75.697423 
L 368.973223 68.554758 
L 368.973223 68.554758 
L 369.680146 63.717533 
L 369.680146 63.717533 
L 370.38707 60.441599 
L 370.38707 60.441599 
L 371.093993 58.222999 
L 371.093993 58.222999 
L 371.800917 56.720515 
L 371.800917 56.720515 
L 372.50784 55.702998 
L 372.50784 55.702998 
L 373.214763 55.013857 
L 373.214763 55.013857 
L 374.098417 54.456289 
L 374.098417 54.456289 
L 375.158802 54.063076 
L 375.158802 54.063076 
L 376.572649 53.79507 
L 376.572649 53.79507 
L 378.87015 53.632 
L 378.87015 53.632 
L 383.818613 53.572188 
L 383.818613 53.572188 
L 397.073426 53.600782 
L 397.073426 53.600782 
L 397.780349 53.869681 
L 397.780349 53.869681 
L 398.487273 53.831985 
L 398.487273 53.831985 
" clip-path="url(#p59442da4a1)" style="fill: none; stroke: #1f77b4; stroke-width: 1.5; stroke-linecap: square"/>
   </g>
   <g id="line2d_28">
    <path d="M 73.832727 53.568 
L 92.212734 53.568 
L 92.212734 53.568 
L 92.389465 58.971896 
L 92.389465 58.971896 
L 92.566196 58.022288 
L 92.566196 58.022288 
L 92.919658 71.702246 
L 92.919658 71.702246 
L 93.096388 80.657063 
L 93.096388 80.657063 
L 93.273119 82.145028 
L 93.273119 82.145028 
L 93.803312 102.687025 
L 93.803312 102.687025 
L 93.980043 110.941754 
L 93.980043 110.941754 
L 94.156773 108.793521 
L 94.156773 108.793521 
L 94.686966 123.628545 
L 94.686966 123.628545 
L 95.57062 146.59365 
L 95.57062 146.59365 
L 95.747351 147.308871 
L 95.747351 147.308871 
L 95.924082 151.026381 
L 95.924082 151.026381 
L 96.100813 157.093617 
L 96.100813 157.093617 
L 96.277543 157.261826 
L 96.277543 157.261826 
L 96.631005 166.952192 
L 96.631005 166.952192 
L 96.807736 166.023136 
L 96.807736 166.023136 
L 96.984467 170.898336 
L 96.984467 170.898336 
L 97.161198 171.671247 
L 97.161198 171.671247 
L 97.337928 174.246703 
L 97.337928 174.246703 
L 97.514659 179.416548 
L 97.514659 179.416548 
L 97.69139 178.811455 
L 97.69139 178.811455 
L 97.868121 182.327304 
L 97.868121 182.327304 
L 98.044852 182.978023 
L 98.044852 182.978023 
L 98.221583 185.05684 
L 98.221583 185.05684 
L 98.398313 189.116687 
L 98.398313 189.116687 
L 98.575044 188.207344 
L 98.575044 188.207344 
L 98.751775 190.894269 
L 98.751775 190.894269 
L 98.928506 191.269667 
L 98.928506 191.269667 
L 99.105237 193.318941 
L 99.105237 193.318941 
L 99.281968 193.423373 
L 99.281968 193.423373 
L 99.458698 195.038611 
L 99.458698 195.038611 
L 99.635429 195.518776 
L 99.988891 198.083734 
L 99.988891 198.083734 
L 100.165622 197.981535 
L 100.165622 197.981535 
L 100.342353 198.769133 
L 100.342353 198.769133 
L 100.695814 199.174521 
L 100.695814 199.174521 
L 100.872545 199.416893 
L 100.872545 199.416893 
L 101.049276 199.372272 
L 101.049276 199.372272 
L 101.226007 199.626148 
L 101.226007 199.626148 
L 101.402738 199.449004 
L 101.402738 199.449004 
L 101.579469 199.667139 
L 101.579469 199.667139 
L 101.756199 199.48402 
L 101.756199 199.48402 
L 101.93293 198.892553 
L 101.93293 198.892553 
L 102.109661 199.52395 
L 102.109661 199.52395 
L 102.286392 199.223107 
L 102.286392 199.223107 
L 102.463123 199.463636 
L 102.463123 199.463636 
L 102.639854 198.926117 
L 102.639854 198.926117 
L 102.816584 199.145145 
L 102.816584 199.145145 
L 102.993315 198.357212 
L 102.993315 198.357212 
L 103.170046 198.438413 
L 103.170046 198.438413 
L 103.346777 197.421008 
L 103.346777 197.421008 
L 103.523508 197.166852 
L 103.523508 197.166852 
L 103.700239 195.923605 
L 103.700239 195.923605 
L 103.876969 192.886357 
L 103.876969 192.886357 
L 104.0537 193.814185 
L 104.0537 193.814185 
L 104.230431 189.967503 
L 104.230431 189.967503 
L 104.407162 190.783694 
L 104.407162 190.783694 
L 104.583893 186.764783 
L 104.583893 186.764783 
L 104.760624 186.512526 
L 104.937354 182.673997 
L 104.937354 182.673997 
L 105.114085 181.52876 
L 105.114085 181.52876 
L 105.290816 177.311762 
L 105.290816 177.311762 
L 105.467547 167.539973 
L 105.467547 167.539973 
L 105.644278 170.646358 
L 105.644278 170.646358 
L 105.821009 160.492469 
L 105.821009 160.492469 
L 105.997739 162.374763 
L 105.997739 162.374763 
L 106.17447 151.951696 
L 106.17447 151.951696 
L 106.351201 151.199113 
L 106.351201 151.199113 
L 107.058124 121.52806 
L 107.058124 121.52806 
L 107.234855 121.568492 
L 107.234855 121.568492 
L 107.941779 135.617873 
L 107.941779 135.617873 
L 108.118509 135.437155 
L 108.118509 135.437155 
L 108.471971 140.637491 
L 108.471971 140.637491 
L 109.178894 143.298672 
L 109.178894 143.298672 
L 109.709087 144.469486 
L 109.709087 144.469486 
L 110.239279 144.059966 
L 110.239279 144.059966 
L 110.41601 144.328195 
L 110.41601 144.328195 
L 110.769472 143.969663 
L 110.769472 143.969663 
L 110.946203 143.552269 
L 110.946203 143.552269 
L 111.122934 143.835632 
L 111.122934 143.835632 
L 111.299664 143.842557 
L 111.299664 143.842557 
L 111.476395 142.422837 
L 111.476395 142.422837 
L 111.653126 143.262316 
L 111.653126 143.262316 
L 112.006588 140.182457 
L 112.006588 140.182457 
L 112.183319 141.349865 
L 112.183319 141.349865 
L 112.360049 139.667667 
L 112.360049 139.667667 
L 112.53678 139.198392 
L 112.53678 139.198392 
L 112.713511 137.928339 
L 112.713511 137.928339 
L 112.890242 135.179146 
L 112.890242 135.179146 
L 113.066973 135.385609 
L 113.066973 135.385609 
L 113.243704 133.972478 
L 113.243704 133.972478 
L 113.420435 129.391755 
L 113.420435 129.391755 
L 113.597165 130.051018 
L 113.597165 130.051018 
L 113.773896 127.004053 
L 113.773896 127.004053 
L 113.950627 121.329862 
L 113.950627 121.329862 
L 114.127358 122.653862 
L 114.127358 122.653862 
L 114.304089 117.898731 
L 114.304089 117.898731 
L 114.48082 110.13366 
L 114.48082 110.13366 
L 114.65755 112.324951 
L 114.65755 112.324951 
L 114.834281 105.655303 
L 114.834281 105.655303 
L 115.011012 103.665114 
L 115.011012 103.665114 
L 115.187743 97.913017 
L 115.187743 97.913017 
L 115.541205 102.772302 
L 115.541205 102.772302 
L 115.894666 118.53197 
L 115.894666 118.53197 
L 116.071397 128.673406 
L 116.071397 128.673406 
L 116.248128 126.715328 
L 116.248128 126.715328 
L 116.60159 141.34428 
L 116.60159 141.34428 
L 116.77832 139.947568 
L 116.77832 139.947568 
L 117.131782 151.129306 
L 117.131782 151.129306 
L 117.308513 149.667924 
L 117.308513 149.667924 
L 117.485244 154.267244 
L 117.485244 154.267244 
L 117.661975 154.804317 
L 117.661975 154.804317 
L 118.015436 160.827769 
L 118.015436 160.827769 
L 118.192167 160.921479 
L 118.192167 160.921479 
L 118.72236 165.737036 
L 118.72236 165.737036 
L 118.89909 167.563931 
L 118.89909 167.563931 
L 119.782745 170.571692 
L 119.782745 170.571692 
L 119.959475 170.460782 
L 119.959475 170.460782 
L 120.136206 170.724152 
L 120.136206 170.724152 
L 120.312937 170.613465 
L 120.312937 170.613465 
L 120.489668 170.843048 
L 120.489668 170.843048 
L 120.666399 171.474277 
L 120.666399 171.474277 
L 120.84313 170.718958 
L 120.84313 170.718958 
L 121.196591 171.417929 
L 121.196591 171.417929 
L 121.373322 171.664489 
L 121.373322 171.664489 
L 121.726784 171.351248 
L 121.726784 171.351248 
L 121.903515 171.602332 
L 121.903515 171.602332 
L 122.080245 171.023208 
L 122.080245 171.023208 
L 122.256976 171.626346 
L 122.256976 171.626346 
L 122.433707 170.98836 
L 122.433707 170.98836 
L 122.610438 171.126523 
L 122.610438 171.126523 
L 122.787169 171.40782 
L 122.787169 171.40782 
L 122.9639 170.27621 
L 122.9639 170.27621 
L 123.14063 171.301043 
L 123.14063 171.301043 
L 123.317361 170.454192 
L 123.317361 170.454192 
L 123.494092 170.530701 
L 123.494092 170.530701 
L 123.670823 170.780277 
L 123.670823 170.780277 
L 123.847554 168.952433 
L 123.847554 168.952433 
L 124.024285 170.550973 
L 124.201015 169.236523 
L 124.201015 169.236523 
L 124.554477 169.699934 
L 124.554477 169.699934 
L 124.731208 169.380438 
L 124.731208 169.380438 
L 124.907939 169.402386 
L 124.907939 169.402386 
L 125.08467 167.476922 
L 125.08467 167.476922 
L 125.261401 167.913248 
L 125.261401 167.913248 
L 125.438131 167.610618 
L 125.438131 167.610618 
L 125.791593 167.794017 
L 125.791593 167.794017 
L 125.968324 165.76373 
L 125.968324 165.76373 
L 126.145055 166.372453 
L 126.145055 166.372453 
L 126.321786 165.319418 
L 126.321786 165.319418 
L 126.498516 165.512814 
L 126.498516 165.512814 
L 126.675247 165.193765 
L 126.675247 165.193765 
L 126.851978 163.44511 
L 126.851978 163.44511 
L 127.028709 164.310335 
L 127.028709 164.310335 
L 127.20544 162.982369 
L 127.382171 163.266682 
L 127.382171 163.266682 
L 128.089094 159.73944 
L 128.089094 159.73944 
L 128.265825 160.061951 
L 128.265825 160.061951 
L 128.619286 158.651445 
L 128.619286 158.651445 
L 128.796017 159.002941 
L 128.796017 159.002941 
L 128.972748 156.626185 
L 128.972748 156.626185 
L 129.149479 156.930938 
L 129.149479 156.930938 
L 129.502941 155.271525 
L 129.502941 155.271525 
L 129.679671 155.39528 
L 129.856402 153.502766 
L 129.856402 153.502766 
L 130.033133 153.391465 
L 130.033133 153.391465 
L 130.209864 152.312015 
L 130.209864 152.312015 
L 130.386595 149.81681 
L 130.386595 149.81681 
L 130.563326 151.271434 
L 130.563326 151.271434 
L 130.740056 149.608168 
L 130.740056 149.608168 
L 130.916787 149.336533 
L 130.916787 149.336533 
L 131.270249 145.691064 
L 131.270249 145.691064 
L 131.44698 146.615262 
L 131.44698 146.615262 
L 132.153903 141.281453 
L 132.153903 141.281453 
L 132.330634 141.444301 
L 132.330634 141.444301 
L 132.507365 140.616717 
L 132.684096 137.714002 
L 132.684096 137.714002 
L 132.860826 138.270174 
L 132.860826 138.270174 
L 133.037557 136.532074 
L 133.037557 136.532074 
L 133.214288 136.174045 
L 133.214288 136.174045 
L 133.921211 131.179557 
L 133.921211 131.179557 
L 134.097942 128.450077 
L 134.097942 128.450077 
L 134.274673 128.687702 
L 134.274673 128.687702 
L 134.451404 127.059899 
L 134.451404 127.059899 
L 134.628135 123.93877 
L 134.628135 123.93877 
L 134.804866 124.444289 
L 134.804866 124.444289 
L 134.981596 122.886517 
L 134.981596 122.886517 
L 135.158327 119.104672 
L 135.158327 119.104672 
L 135.335058 119.837318 
L 135.335058 119.837318 
L 135.68852 113.951191 
L 135.68852 113.951191 
L 135.865251 114.837916 
L 135.865251 114.837916 
L 136.218712 108.493292 
L 136.218712 108.493292 
L 136.395443 109.44061 
L 136.395443 109.44061 
L 136.748905 102.615318 
L 136.748905 102.615318 
L 136.925636 103.624458 
L 136.925636 103.624458 
L 137.102367 100.881463 
L 137.102367 100.881463 
L 137.279097 96.323134 
L 137.279097 96.323134 
L 137.455828 97.358744 
L 137.455828 97.358744 
L 137.80929 89.971026 
L 137.80929 89.971026 
L 137.986021 90.195472 
L 137.986021 90.195472 
L 138.869675 76.010441 
L 138.869675 76.010441 
L 139.046406 70.764422 
L 139.046406 70.764422 
L 139.223137 71.426702 
L 139.223137 71.426702 
L 139.399867 68.894582 
L 139.399867 68.894582 
L 139.576598 62.970982 
L 139.576598 62.970982 
L 139.753329 62.149541 
L 139.753329 62.149541 
L 140.283522 53.568 
L 140.283522 53.568 
L 150.710641 53.568 
L 150.710641 53.568 
L 150.887372 56.460439 
L 150.887372 56.460439 
L 151.240833 72.734786 
L 151.240833 72.734786 
L 151.417564 74.228726 
L 151.417564 74.228726 
L 151.771026 86.469641 
L 151.771026 86.469641 
L 152.124488 103.186233 
L 152.124488 103.186233 
L 152.301218 102.267676 
L 152.301218 102.267676 
L 152.477949 107.766343 
L 152.477949 107.766343 
L 152.65468 116.801578 
L 152.65468 116.801578 
L 152.831411 118.166792 
L 152.831411 118.166792 
L 153.184873 130.047109 
L 153.184873 130.047109 
L 153.361603 139.819848 
L 153.361603 139.819848 
L 153.538334 137.477214 
L 153.538334 137.477214 
L 153.891796 153.313616 
L 153.891796 153.313616 
L 154.068527 151.353528 
L 154.068527 151.353528 
L 154.421988 159.857666 
L 154.421988 159.857666 
L 154.598719 164.329992 
L 154.598719 164.329992 
L 154.77545 172.026484 
L 154.77545 172.026484 
L 154.952181 172.24635 
L 154.952181 172.24635 
L 155.128912 177.061628 
L 155.128912 177.061628 
L 155.305643 185.467923 
L 155.305643 185.467923 
L 155.482373 183.448248 
L 155.482373 183.448248 
L 155.659104 190.54188 
L 155.659104 190.54188 
L 155.835835 190.363675 
L 155.835835 190.363675 
L 156.012566 195.364362 
L 156.012566 195.364362 
L 156.189297 196.876619 
L 156.189297 196.876619 
L 156.366028 200.138257 
L 156.366028 200.138257 
L 156.542758 207.334814 
L 156.542758 207.334814 
L 156.719489 205.481616 
L 156.719489 205.481616 
L 156.89622 212.466237 
L 156.89622 212.466237 
L 157.072951 210.80392 
L 157.072951 210.80392 
L 157.249682 216.329952 
L 157.249682 216.329952 
L 157.426413 215.718437 
L 157.426413 215.718437 
L 157.603143 220.33412 
L 157.603143 220.33412 
L 157.779874 220.205841 
L 157.779874 220.205841 
L 157.956605 224.180299 
L 157.956605 224.180299 
L 158.133336 224.274847 
L 158.133336 224.274847 
L 158.310067 227.751492 
L 158.310067 227.751492 
L 158.486798 227.946284 
L 158.486798 227.946284 
L 158.663528 231.031448 
L 158.663528 231.031448 
L 158.840259 231.240368 
L 158.840259 231.240368 
L 159.01699 234.055684 
L 159.01699 234.055684 
L 159.193721 234.176814 
L 159.193721 234.176814 
L 159.370452 236.768298 
L 159.370452 236.768298 
L 159.547183 237.159054 
L 159.547183 237.159054 
L 159.723913 239.148014 
L 159.723913 239.148014 
L 159.900644 239.045815 
L 159.900644 239.045815 
L 160.077375 241.380631 
L 160.077375 241.380631 
L 160.254106 241.01495 
L 160.254106 241.01495 
L 160.430837 242.9293 
L 160.430837 242.9293 
L 160.607568 243.073942 
L 160.607568 243.073942 
L 160.784299 244.31138 
L 160.784299 244.31138 
L 160.961029 244.097043 
L 160.961029 244.097043 
L 161.13776 245.368827 
L 161.13776 245.368827 
L 161.314491 245.484205 
L 161.314491 245.484205 
L 161.491222 246.033117 
L 161.491222 246.033117 
L 161.667953 246.154247 
L 161.667953 246.154247 
L 162.374876 247.369627 
L 162.374876 247.369627 
L 162.551607 247.183045 
L 162.551607 247.183045 
L 162.728338 247.318192 
L 162.728338 247.318192 
L 163.25853 247.297306 
L 163.25853 247.297306 
L 163.435261 247.409389 
L 163.435261 247.409389 
L 163.611992 247.28206 
L 163.611992 247.28206 
L 163.965454 247.535936 
L 163.965454 247.535936 
L 164.142184 247.019415 
L 164.142184 247.019415 
L 164.318915 247.183994 
L 164.318915 247.183994 
L 164.495646 247.187456 
L 164.495646 247.187456 
L 164.672377 247.373201 
L 164.672377 247.373201 
L 164.849108 246.797706 
L 164.849108 246.797706 
L 165.025839 247.210242 
L 165.025839 247.210242 
L 165.202569 245.805655 
L 165.202569 245.805655 
L 165.3793 246.300396 
L 165.3793 246.300396 
L 165.556031 244.954393 
L 165.556031 244.954393 
L 165.732762 245.841062 
L 165.732762 245.841062 
L 165.909493 243.84177 
L 165.909493 243.84177 
L 166.086224 244.701689 
L 166.086224 244.701689 
L 166.262954 242.460416 
L 166.262954 242.460416 
L 166.439685 243.732312 
L 166.439685 243.732312 
L 166.616416 242.75277 
L 166.616416 242.75277 
L 166.793147 242.634321 
L 166.793147 242.634321 
L 167.146609 240.363114 
L 167.146609 240.363114 
L 167.676801 238.106763 
L 167.676801 238.106763 
L 167.853532 235.649309 
L 167.853532 235.649309 
L 168.030263 235.655843 
L 168.030263 235.655843 
L 168.206994 233.559379 
L 168.206994 233.559379 
L 168.383724 233.788348 
L 168.383724 233.788348 
L 168.560455 230.495046 
L 168.560455 230.495046 
L 168.737186 230.967448 
L 168.737186 230.967448 
L 168.913917 227.65203 
L 168.913917 227.65203 
L 169.090648 228.74533 
L 169.090648 228.74533 
L 169.267379 224.653707 
L 169.267379 224.653707 
L 169.444109 225.579804 
L 169.444109 225.579804 
L 169.62084 221.501081 
L 169.62084 221.501081 
L 169.797571 222.642967 
L 169.797571 222.642967 
L 169.974302 218.230396 
L 169.974302 218.230396 
L 170.151033 219.555234 
L 170.151033 219.555234 
L 170.327764 214.875662 
L 170.327764 214.875662 
L 170.504494 216.325261 
L 170.504494 216.325261 
L 170.681225 211.430682 
L 170.681225 211.430682 
L 170.857956 212.962765 
L 170.857956 212.962765 
L 171.034687 207.925555 
L 171.034687 207.925555 
L 171.211418 209.482657 
L 171.211418 209.482657 
L 171.388149 204.382061 
L 171.388149 204.382061 
L 171.564879 205.877788 
L 171.564879 205.877788 
L 171.74161 200.806177 
L 171.74161 200.806177 
L 171.918341 202.163462 
L 171.918341 202.163462 
L 172.095072 197.221246 
L 172.095072 197.221246 
L 172.271803 198.273555 
L 172.271803 198.273555 
L 172.448534 193.625537 
L 172.448534 193.625537 
L 172.625265 194.406936 
L 172.625265 194.406936 
L 172.801995 190.047586 
L 172.801995 190.047586 
L 172.978726 190.588121 
L 172.978726 190.588121 
L 173.155457 186.506438 
L 173.155457 186.506438 
L 173.332188 186.609865 
L 173.332188 186.609865 
L 173.508919 182.883085 
L 173.508919 182.883085 
L 173.68565 182.593746 
L 173.68565 182.593746 
L 173.86238 179.551304 
L 173.86238 179.551304 
L 174.039111 178.582709 
L 174.039111 178.582709 
L 174.215842 175.642242 
L 174.215842 175.642242 
L 174.392573 170.840089 
L 174.392573 170.840089 
L 174.569304 172.032795 
L 174.569304 172.032795 
L 174.746035 167.689026 
L 174.746035 167.689026 
L 174.922765 168.44468 
L 174.922765 168.44468 
L 175.099496 164.439116 
L 175.099496 164.439116 
L 175.276227 163.816934 
L 175.276227 163.816934 
L 175.629689 160.205867 
L 175.629689 160.205867 
L 175.80642 158.838809 
L 175.80642 158.838809 
L 175.98315 153.954115 
L 175.98315 153.954115 
L 176.159881 154.743668 
L 176.336612 151.403901 
L 176.336612 151.403901 
L 176.513343 150.940211 
L 176.513343 150.940211 
L 176.690074 149.512281 
L 176.690074 149.512281 
L 176.866805 144.390799 
L 176.866805 144.390799 
L 177.043535 145.762883 
L 177.043535 145.762883 
L 177.220266 142.535869 
L 177.220266 142.535869 
L 177.396997 142.136904 
L 177.396997 142.136904 
L 177.573728 140.864227 
L 177.573728 140.864227 
L 177.750459 136.009466 
L 177.750459 136.009466 
L 177.92719 137.335253 
L 177.92719 137.335253 
L 178.10392 134.221552 
L 178.10392 134.221552 
L 178.280651 133.336167 
L 178.280651 133.336167 
L 178.457382 131.66123 
L 178.634113 126.779775 
L 178.634113 126.779775 
L 178.810844 127.077993 
L 178.810844 127.077993 
L 178.987575 124.149087 
L 178.987575 124.149087 
L 179.164305 118.463726 
L 179.164305 118.463726 
L 179.341036 119.545801 
L 179.341036 119.545801 
L 179.517767 115.612111 
L 179.517767 115.612111 
L 179.694498 108.149168 
L 179.694498 108.149168 
L 179.871229 109.89045 
L 179.871229 109.89045 
L 180.04796 104.289418 
L 180.04796 104.289418 
L 180.22469 102.916664 
L 180.22469 102.916664 
L 180.401421 98.432498 
L 180.401421 98.432498 
L 180.578152 90.535352 
L 180.578152 90.535352 
L 180.754883 89.104071 
L 180.754883 89.104071 
L 181.108345 75.627839 
L 181.108345 75.627839 
L 181.285075 63.852346 
L 181.285075 63.852346 
L 181.461806 66.118135 
L 181.461806 66.118135 
L 181.638537 57.42641 
L 181.638537 57.42641 
L 181.815268 57.632482 
L 181.815268 57.632482 
L 181.991999 58.292918 
L 181.991999 58.292918 
L 182.34546 74.093243 
L 182.34546 74.093243 
L 182.522191 83.956006 
L 182.522191 83.956006 
L 182.698922 83.202195 
L 182.698922 83.202195 
L 183.052384 99.594042 
L 183.052384 99.594042 
L 183.229115 109.046839 
L 183.229115 109.046839 
L 183.405845 107.007505 
L 183.405845 107.007505 
L 184.2895 139.857433 
L 184.2895 139.857433 
L 184.466231 141.684551 
L 184.466231 141.684551 
L 184.642961 146.810612 
L 184.642961 146.810612 
L 184.819692 156.206781 
L 184.819692 156.206781 
L 184.996423 157.911037 
L 184.996423 157.911037 
L 185.173154 163.519497 
L 185.173154 163.519497 
L 185.349885 173.965853 
L 185.349885 173.965853 
L 185.526616 173.564263 
L 185.526616 173.564263 
L 185.880077 182.800991 
L 185.880077 182.800991 
L 186.056808 188.217564 
L 186.056808 188.217564 
L 186.233539 197.972991 
L 186.233539 197.972991 
L 186.41027 197.042762 
L 186.41027 197.042762 
L 186.587001 204.821961 
L 186.587001 204.821961 
L 186.763731 205.563933 
L 186.763731 205.563933 
L 187.117193 213.362735 
L 187.117193 213.362735 
L 187.647386 224.264348 
L 187.647386 224.264348 
L 188.354309 236.746295 
L 188.354309 236.746295 
L 189.768156 257.055637 
L 189.768156 257.055637 
L 189.944886 256.992251 
L 189.944886 256.992251 
L 190.121617 260.347487 
L 190.121617 260.347487 
L 190.298348 259.83778 
L 190.298348 259.83778 
L 190.475079 263.823016 
L 190.475079 263.823016 
L 190.65181 263.235794 
L 190.65181 263.235794 
L 190.828541 264.064606 
L 190.828541 264.064606 
L 191.005271 266.182069 
L 191.005271 266.182069 
L 191.182002 266.74187 
L 191.182002 266.74187 
L 191.358733 268.213081 
L 191.358733 268.213081 
L 191.535464 268.339293 
L 191.535464 268.339293 
L 191.712195 270.449607 
L 191.712195 270.449607 
L 191.888926 270.236442 
L 191.888926 270.236442 
L 192.065656 271.229889 
L 192.065656 271.229889 
L 192.242387 271.549888 
L 192.242387 271.549888 
L 192.419118 271.44808 
L 192.419118 271.44808 
L 192.595849 272.747229 
L 192.595849 272.747229 
L 192.949311 273.173 
L 192.949311 273.173 
L 193.126041 273.566659 
L 193.126041 273.566659 
L 193.302772 273.36969 
L 193.302772 273.36969 
L 193.479503 274.049226 
L 193.479503 274.049226 
L 193.656234 273.94619 
L 193.656234 273.94619 
L 194.009696 274.540895 
L 194.009696 274.540895 
L 194.186426 274.496777 
L 194.186426 274.496777 
L 194.539888 274.782653 
L 194.539888 274.782653 
L 194.89335 274.416638 
L 194.89335 274.416638 
L 195.246812 274.721278 
L 195.246812 274.721278 
L 195.423542 274.470585 
L 195.777004 274.791868 
L 195.777004 274.791868 
L 195.953735 274.53492 
L 196.130466 274.683917 
L 196.130466 274.683917 
L 196.307197 274.188115 
L 196.307197 274.188115 
L 196.483927 274.455562 
L 196.483927 274.455562 
L 196.837389 273.954455 
L 196.837389 273.954455 
L 197.01412 274.013205 
L 197.01412 274.013205 
L 197.190851 272.61169 
L 197.190851 272.61169 
L 197.367582 273.342046 
L 197.367582 273.342046 
L 197.544312 271.20515 
L 197.544312 271.20515 
L 197.721043 272.239867 
L 197.721043 272.239867 
L 197.897774 272.006095 
L 197.897774 272.006095 
L 198.074505 270.074991 
L 198.074505 270.074991 
L 198.251236 270.692259 
L 198.251236 270.692259 
L 198.427967 267.354726 
L 198.604697 268.908924 
L 198.604697 268.908924 
L 198.958159 266.266508 
L 198.958159 266.266508 
L 199.13489 266.018439 
L 199.311621 262.770931 
L 199.311621 262.770931 
L 199.488352 263.463143 
L 199.488352 263.463143 
L 199.665082 258.281236 
L 199.665082 258.281236 
L 199.841813 260.427068 
L 199.841813 260.427068 
L 200.372006 255.614695 
L 200.372006 255.614695 
L 200.548737 251.238759 
L 200.548737 251.238759 
L 200.725467 251.780746 
L 200.725467 251.780746 
L 200.902198 245.923547 
L 200.902198 245.923547 
L 201.078929 247.615741 
L 201.078929 247.615741 
L 201.609122 240.646701 
L 201.609122 240.646701 
L 201.785852 236.364754 
L 201.785852 236.364754 
L 201.962583 235.725372 
L 201.962583 235.725372 
L 202.139314 230.27948 
L 202.139314 230.27948 
L 202.316045 230.82007 
L 202.316045 230.82007 
L 202.492776 223.035509 
L 202.492776 223.035509 
L 202.669507 225.027932 
L 202.669507 225.027932 
L 202.846237 215.643268 
L 202.846237 215.643268 
L 203.022968 218.555532 
L 203.022968 218.555532 
L 203.553161 208.509984 
L 203.553161 208.509984 
L 204.083353 194.978465 
L 204.083353 194.978465 
L 204.260084 192.77405 
L 204.260084 192.77405 
L 204.436815 185.793953 
L 204.436815 185.793953 
L 204.613546 183.883904 
L 204.613546 183.883904 
L 204.790277 176.494119 
L 204.790277 176.494119 
L 204.967007 174.375093 
L 204.967007 174.375093 
L 205.320469 164.579122 
L 205.320469 164.579122 
L 205.4972 158.719857 
L 205.4972 158.719857 
L 205.673931 144.385884 
L 205.673931 144.385884 
L 205.850662 148.109258 
L 205.850662 148.109258 
L 206.027392 135.942283 
L 206.027392 135.942283 
L 206.204123 137.59114 
L 206.204123 137.59114 
L 206.380854 127.25765 
L 206.380854 127.25765 
L 206.557585 126.284084 
L 206.557585 126.284084 
L 206.734316 119.574115 
L 206.911047 106.757035 
L 206.911047 106.757035 
L 207.087778 109.523988 
L 207.087778 109.523988 
L 207.264508 99.308501 
L 207.264508 99.308501 
L 207.441239 97.85544 
L 207.441239 97.85544 
L 207.61797 93.201837 
L 207.61797 93.201837 
L 207.794701 81.559648 
L 207.794701 81.559648 
L 207.971432 81.970453 
L 207.971432 81.970453 
L 208.324893 65.491486 
L 208.501624 65.926248 
L 208.855086 53.568 
L 208.855086 53.568 
L 214.863934 53.568 
L 214.863934 53.568 
L 215.040665 57.617515 
L 215.040665 57.617515 
L 215.217396 58.090364 
L 215.217396 58.090364 
L 215.747588 72.125616 
L 215.747588 72.125616 
L 215.924319 78.228594 
L 215.924319 78.228594 
L 216.10105 77.708834 
L 216.10105 77.708834 
L 216.631243 92.755962 
L 216.631243 92.755962 
L 216.807973 93.085007 
L 216.807973 93.085007 
L 217.161435 102.731087 
L 217.161435 102.731087 
L 217.338166 109.592791 
L 217.338166 109.592791 
L 217.514897 109.138091 
L 217.514897 109.138091 
L 217.691628 112.890784 
L 217.691628 112.890784 
L 217.868358 119.647944 
L 217.868358 119.647944 
L 218.045089 120.358586 
L 218.045089 120.358586 
L 218.398551 130.085922 
L 218.398551 130.085922 
L 218.575282 137.865289 
L 218.752013 135.749949 
L 218.752013 135.749949 
L 219.105474 148.358276 
L 219.105474 148.358276 
L 219.282205 146.414775 
L 219.282205 146.414775 
L 219.458936 152.153021 
L 219.458936 152.153021 
L 219.635667 153.005122 
L 219.635667 153.005122 
L 220.519321 172.223453 
L 220.519321 172.223453 
L 220.696052 171.183263 
L 220.696052 171.183263 
L 220.872783 176.237283 
L 220.872783 176.237283 
L 221.049514 176.767207 
L 221.049514 176.767207 
L 221.226244 179.550969 
L 221.226244 179.550969 
L 221.402975 184.486372 
L 221.402975 184.486372 
L 221.579706 183.576806 
L 221.579706 183.576806 
L 221.756437 187.744882 
L 221.756437 187.744882 
L 221.933168 187.697804 
L 221.933168 187.697804 
L 222.109899 190.521273 
L 222.109899 190.521273 
L 222.286629 191.393199 
L 222.286629 191.393199 
L 222.46336 193.089805 
L 222.46336 193.089805 
L 222.640091 196.29191 
L 222.640091 196.29191 
L 222.816822 195.884569 
L 222.816822 195.884569 
L 222.993553 198.665539 
L 222.993553 198.665539 
L 223.170284 198.461868 
L 223.170284 198.461868 
L 223.347014 200.361977 
L 223.347014 200.361977 
L 223.523745 200.601166 
L 223.523745 200.601166 
L 223.877207 202.317262 
L 223.877207 202.317262 
L 224.58413 204.64599 
L 224.58413 204.64599 
L 224.760861 204.645152 
L 224.760861 204.645152 
L 225.114323 205.104208 
L 225.114323 205.104208 
L 225.291054 205.119845 
L 225.291054 205.119845 
L 225.467784 205.325191 
L 225.467784 205.325191 
L 225.644515 205.181164 
L 225.644515 205.181164 
L 225.821246 205.399634 
L 225.821246 205.399634 
L 225.997977 205.213164 
L 225.997977 205.213164 
L 226.174708 205.431466 
L 226.174708 205.431466 
L 226.351439 205.240416 
L 226.351439 205.240416 
L 226.528169 205.459948 
L 226.7049 205.231593 
L 226.7049 205.231593 
L 226.881631 205.412925 
L 226.881631 205.412925 
L 227.058362 205.110965 
L 227.058362 205.110965 
L 227.235093 204.425901 
L 227.235093 204.425901 
L 227.411824 204.774939 
L 227.411824 204.774939 
L 227.588554 203.808689 
L 227.588554 203.808689 
L 227.765285 204.150579 
L 227.765285 204.150579 
L 227.942016 202.902976 
L 227.942016 202.902976 
L 228.118747 203.158417 
L 228.118747 203.158417 
L 228.295478 201.663918 
L 228.295478 201.663918 
L 228.472209 201.72144 
L 228.472209 201.72144 
L 228.648939 200.036171 
L 228.82567 199.554665 
L 228.82567 199.554665 
L 229.355863 194.871743 
L 229.355863 194.871743 
L 229.532594 189.905011 
L 229.532594 189.905011 
L 229.709324 191.467139 
L 229.709324 191.467139 
L 229.886055 185.697675 
L 229.886055 185.697675 
L 230.062786 186.896077 
L 230.062786 186.896077 
L 230.239517 181.108183 
L 230.239517 181.108183 
L 230.416248 181.461075 
L 230.416248 181.461075 
L 230.592979 175.740866 
L 230.592979 175.740866 
L 230.76971 174.662645 
L 230.76971 174.662645 
L 231.123171 166.756395 
L 231.123171 166.756395 
L 231.299902 162.722629 
L 231.299902 162.722629 
L 231.476633 150.216891 
L 231.476633 150.216891 
L 231.653364 152.795028 
L 231.830095 142.058999 
L 231.830095 142.058999 
L 232.006825 141.825283 
L 232.006825 141.825283 
L 232.360287 129.874377 
L 232.360287 129.874377 
L 232.537018 122.929965 
L 232.537018 122.929965 
L 232.713749 108.636034 
L 232.713749 108.636034 
L 232.89048 109.066832 
L 232.89048 109.066832 
L 233.243941 87.086685 
L 233.243941 87.086685 
L 233.420672 89.877316 
L 233.420672 89.877316 
L 233.597403 80.650306 
L 233.597403 80.650306 
L 233.774134 79.002007 
L 233.774134 79.002007 
L 234.127595 66.515034 
L 234.127595 66.515034 
L 234.304326 58.885278 
L 234.304326 58.885278 
L 234.481057 60.690393 
L 234.481057 60.690393 
L 234.834519 53.568 
L 234.834519 53.568 
L 241.196829 53.568 
L 241.196829 53.568 
L 241.55029 58.743708 
L 241.55029 58.743708 
L 241.903752 65.979525 
L 241.903752 65.979525 
L 242.080483 66.945496 
L 242.080483 66.945496 
L 242.433945 71.825555 
L 242.433945 71.825555 
L 242.787406 80.442279 
L 242.787406 80.442279 
L 242.964137 79.458773 
L 242.964137 79.458773 
L 243.49433 90.450465 
L 243.49433 90.450465 
L 243.671061 90.43561 
L 243.671061 90.43561 
L 244.731446 109.355668 
L 244.731446 109.355668 
L 244.908176 109.797913 
L 244.908176 109.797913 
L 245.261638 116.256519 
L 245.261638 116.256519 
L 245.438369 120.336806 
L 245.438369 120.336806 
L 245.6151 119.859768 
L 245.6151 119.859768 
L 245.968561 127.383136 
L 245.968561 127.383136 
L 246.145292 126.633961 
L 246.145292 126.633961 
L 246.498754 132.570852 
L 246.498754 132.570852 
L 246.675485 132.432521 
L 246.675485 132.432521 
L 247.028946 137.214402 
L 247.028946 137.214402 
L 247.205677 137.140965 
L 247.205677 137.140965 
L 247.559139 140.825079 
L 247.559139 140.825079 
L 247.73587 140.751753 
L 247.73587 140.751753 
L 248.089331 143.713441 
L 248.089331 143.713441 
L 248.266062 143.319111 
L 248.442793 144.567999 
L 248.442793 144.567999 
L 248.619524 144.639091 
L 248.619524 144.639091 
L 249.149716 145.6637 
L 249.149716 145.6637 
L 249.326447 146.136828 
L 249.326447 146.136828 
L 249.503178 145.730324 
L 249.503178 145.730324 
L 249.85664 146.215571 
L 249.85664 146.215571 
L 250.033371 145.730939 
L 250.033371 145.730939 
L 250.210101 146.009611 
L 250.210101 146.009611 
L 250.563563 145.650688 
L 250.563563 145.650688 
L 250.740294 146.383612 
L 250.740294 146.383612 
L 251.093756 145.891887 
L 251.093756 145.891887 
L 251.270486 145.977555 
L 251.270486 145.977555 
L 251.447217 145.247479 
L 251.447217 145.247479 
L 251.623948 145.020073 
L 251.800679 144.400181 
L 251.800679 144.400181 
L 251.97741 142.864803 
L 251.97741 142.864803 
L 252.154141 143.216745 
L 252.154141 143.216745 
L 252.330871 142.023704 
L 252.330871 142.023704 
L 252.507602 139.621594 
L 252.507602 139.621594 
L 252.684333 140.330114 
L 252.684333 140.330114 
L 252.861064 138.311109 
L 252.861064 138.311109 
L 253.037795 137.939062 
L 253.037795 137.939062 
L 253.214526 136.339573 
L 253.214526 136.339573 
L 253.391256 133.359734 
L 253.391256 133.359734 
L 253.567987 133.242569 
L 253.567987 133.242569 
L 253.744718 131.756503 
L 253.744718 131.756503 
L 253.921449 127.354152 
L 253.921449 127.354152 
L 254.09818 127.611491 
L 254.09818 127.611491 
L 254.274911 125.641854 
L 254.274911 125.641854 
L 254.451642 120.533328 
L 254.451642 120.533328 
L 254.628372 121.171147 
L 254.805103 118.124517 
L 254.805103 118.124517 
L 254.981834 113.074406 
L 254.981834 113.074406 
L 255.158565 113.891044 
L 255.158565 113.891044 
L 255.335296 110.500681 
L 255.335296 110.500681 
L 255.512027 104.889429 
L 255.512027 104.889429 
L 255.688757 106.193604 
L 255.688757 106.193604 
L 256.042219 96.37105 
L 256.042219 96.37105 
L 256.21895 97.757821 
L 256.21895 97.757821 
L 256.572412 87.871993 
L 256.572412 87.871993 
L 256.749142 88.522713 
L 256.749142 88.522713 
L 256.925873 84.982011 
L 256.925873 84.982011 
L 257.102604 78.952862 
L 257.102604 78.952862 
L 257.279335 77.945342 
L 257.279335 77.945342 
L 257.456066 74.793163 
L 257.456066 74.793163 
L 257.809527 62.332214 
L 257.809527 62.332214 
L 257.986258 63.78332 
L 257.986258 63.78332 
L 258.33972 53.568 
L 258.33972 53.568 
L 276.189534 53.568 
L 276.189534 53.568 
L 276.366265 59.397499 
L 276.366265 59.397499 
L 276.542996 60.084798 
L 276.542996 60.084798 
L 276.896458 73.782348 
L 276.896458 73.782348 
L 277.249919 95.320528 
L 277.249919 95.320528 
L 277.42665 94.129553 
L 277.42665 94.129553 
L 277.780112 110.963646 
L 277.780112 110.963646 
L 277.956843 123.900124 
L 277.956843 123.900124 
L 278.133574 120.807254 
L 278.133574 120.807254 
L 278.310304 128.572883 
L 278.310304 128.572883 
L 278.487035 142.314439 
L 278.487035 142.314439 
L 278.663766 141.133852 
L 278.663766 141.133852 
L 278.840497 147.80741 
L 279.017228 161.795862 
L 279.193959 160.173755 
L 279.193959 160.173755 
L 279.370689 168.540009 
L 279.370689 168.540009 
L 279.54742 183.042191 
L 279.54742 183.042191 
L 279.724151 178.771581 
L 279.724151 178.771581 
L 279.900882 190.281917 
L 279.900882 190.281917 
L 280.077613 190.413546 
L 280.077613 190.413546 
L 280.431074 200.96411 
L 280.431074 200.96411 
L 280.607805 206.306017 
L 280.607805 206.306017 
L 280.784536 219.326544 
L 280.784536 219.326544 
L 280.961267 215.713187 
L 281.137998 226.911511 
L 281.137998 226.911511 
L 281.314729 224.11239 
L 281.314729 224.11239 
L 281.491459 233.912103 
L 281.491459 233.912103 
L 281.66819 232.117097 
L 281.66819 232.117097 
L 281.844921 241.270726 
L 281.844921 241.270726 
L 282.021652 239.450532 
L 282.021652 239.450532 
L 282.198383 247.91865 
L 282.198383 247.91865 
L 282.375114 246.478211 
L 282.375114 246.478211 
L 282.551844 254.718643 
L 282.551844 254.718643 
L 282.728575 251.946329 
L 283.612229 264.889621 
L 283.612229 264.889621 
L 283.78896 270.74777 
L 283.78896 270.74777 
L 283.965691 269.882154 
L 283.965691 269.882154 
L 284.142422 276.377786 
L 284.142422 276.377786 
L 284.319153 274.470417 
L 284.319153 274.470417 
L 284.495884 275.803353 
L 284.495884 275.803353 
L 284.672614 279.22432 
L 284.672614 279.22432 
L 284.849345 279.389066 
L 285.026076 283.959626 
L 285.026076 283.959626 
L 285.202807 282.563472 
L 285.202807 282.563472 
L 285.90973 289.753663 
L 285.90973 289.753663 
L 286.086461 289.139746 
L 286.086461 289.139746 
L 286.263192 289.905452 
L 286.263192 289.905452 
L 286.439923 291.570226 
L 286.439923 291.570226 
L 286.616654 292.004374 
L 286.616654 292.004374 
L 286.793384 293.531486 
L 286.793384 293.531486 
L 286.970115 293.238797 
L 287.323577 294.440382 
L 287.323577 294.440382 
L 287.500308 294.647236 
L 287.500308 294.647236 
L 287.677039 295.080602 
L 287.677039 295.080602 
L 287.853769 295.041175 
L 287.853769 295.041175 
L 288.0305 295.353802 
L 288.0305 295.353802 
L 288.207231 295.267296 
L 288.207231 295.267296 
L 288.383962 295.399875 
L 288.383962 295.399875 
L 288.560693 295.224965 
L 288.560693 295.224965 
L 288.914155 295.488 
L 288.914155 295.488 
L 289.090885 295.279247 
L 289.090885 295.279247 
L 289.267616 295.410653 
L 289.267616 295.410653 
L 289.444347 294.751613 
L 289.444347 294.751613 
L 289.621078 295.280141 
L 289.621078 295.280141 
L 289.797809 295.393955 
L 289.797809 295.393955 
L 289.97454 294.831082 
L 289.97454 294.831082 
L 290.15127 295.04648 
L 290.504732 294.236935 
L 290.504732 294.236935 
L 290.681463 294.26899 
L 290.681463 294.26899 
L 290.858194 292.635268 
L 290.858194 292.635268 
L 291.034925 293.120515 
L 291.034925 293.120515 
L 291.211655 292.697871 
L 291.211655 292.697871 
L 291.388386 291.073028 
L 291.388386 291.073028 
L 291.565117 290.960498 
L 291.565117 290.960498 
L 291.741848 288.014167 
L 291.741848 288.014167 
L 291.918579 288.703532 
L 291.918579 288.703532 
L 292.09531 287.926209 
L 292.09531 287.926209 
L 292.27204 285.607199 
L 292.27204 285.607199 
L 292.448771 285.262069 
L 292.448771 285.262069 
L 292.625502 281.528978 
L 292.625502 281.528978 
L 292.802233 282.246601 
L 292.802233 282.246601 
L 293.332425 277.483205 
L 293.332425 277.483205 
L 293.509156 273.365055 
L 293.509156 273.365055 
L 293.685887 274.092507 
L 293.685887 274.092507 
L 293.862618 272.508989 
L 294.039349 269.46141 
L 294.039349 269.46141 
L 294.21608 268.492144 
L 294.21608 268.492144 
L 294.39281 262.99923 
L 294.39281 262.99923 
L 294.569541 264.613239 
L 294.569541 264.613239 
L 295.276465 252.144807 
L 295.276465 252.144807 
L 295.453195 253.387774 
L 295.453195 253.387774 
L 295.629926 244.016233 
L 295.629926 244.016233 
L 295.806657 247.007911 
L 295.806657 247.007911 
L 295.983388 244.891454 
L 295.983388 244.891454 
L 296.160119 239.441541 
L 296.160119 239.441541 
L 296.33685 239.582106 
L 296.33685 239.582106 
L 296.51358 230.840231 
L 296.51358 230.840231 
L 296.690311 233.154606 
L 296.690311 233.154606 
L 296.867042 222.806596 
L 296.867042 222.806596 
L 297.043773 226.532874 
L 297.043773 226.532874 
L 297.220504 223.825174 
L 297.220504 223.825174 
L 297.397235 218.005336 
L 297.397235 218.005336 
L 297.573965 216.900699 
L 297.573965 216.900699 
L 297.750696 210.817268 
L 297.750696 210.817268 
L 297.927427 210.731376 
L 297.927427 210.731376 
L 298.104158 203.224538 
L 298.104158 203.224538 
L 298.280889 204.268973 
L 298.280889 204.268973 
L 298.45762 196.641675 
L 298.45762 196.641675 
L 298.63435 198.035483 
L 298.63435 198.035483 
L 298.811081 190.727178 
L 298.811081 190.727178 
L 298.987812 191.80808 
L 298.987812 191.80808 
L 299.164543 185.516956 
L 299.164543 185.516956 
L 299.341274 186.152541 
L 299.341274 186.152541 
L 299.518005 180.993084 
L 299.518005 180.993084 
L 299.694735 181.603203 
L 299.694735 181.603203 
L 299.871466 176.892414 
L 299.871466 176.892414 
L 300.048197 177.114793 
L 300.048197 177.114793 
L 300.224928 173.294526 
L 300.224928 173.294526 
L 300.401659 173.04132 
L 300.401659 173.04132 
L 300.57839 169.894725 
L 300.57839 169.894725 
L 300.755121 169.062562 
L 300.755121 169.062562 
L 300.931851 166.427518 
L 300.931851 166.427518 
L 301.108582 160.741822 
L 301.108582 160.741822 
L 301.285313 162.367057 
L 301.285313 162.367057 
L 301.462044 156.86705 
L 301.462044 156.86705 
L 301.638775 157.544742 
L 301.638775 157.544742 
L 301.815506 152.826693 
L 301.815506 152.826693 
L 301.992236 151.637059 
L 301.992236 151.637059 
L 302.168967 148.259037 
L 302.168967 148.259037 
L 302.345698 139.050512 
L 302.345698 139.050512 
L 302.522429 141.13307 
L 302.522429 141.13307 
L 302.69916 136.500577 
L 302.69916 136.500577 
L 302.875891 137.198095 
L 302.875891 137.198095 
L 303.052621 142.534641 
L 303.052621 142.534641 
L 303.229352 156.595805 
L 303.406083 153.420338 
L 303.406083 153.420338 
L 303.582814 165.954277 
L 303.582814 165.954277 
L 303.759545 167.101413 
L 303.759545 167.101413 
L 303.936276 174.330361 
L 304.113006 186.780699 
L 304.113006 186.780699 
L 304.289737 183.712344 
L 304.289737 183.712344 
L 304.466468 192.513137 
L 304.466468 192.513137 
L 304.643199 192.428698 
L 304.643199 192.428698 
L 304.81993 198.955939 
L 304.81993 198.955939 
L 304.996661 201.014037 
L 304.996661 201.014037 
L 305.173391 204.694297 
L 305.173391 204.694297 
L 305.350122 213.864177 
L 305.350122 213.864177 
L 305.526853 211.237342 
L 305.526853 211.237342 
L 305.703584 218.688055 
L 305.703584 218.688055 
L 305.880315 217.283804 
L 305.880315 217.283804 
L 306.057046 223.217344 
L 306.057046 223.217344 
L 306.233776 222.71512 
L 306.233776 222.71512 
L 306.410507 227.645776 
L 306.410507 227.645776 
L 306.587238 227.598921 
L 306.587238 227.598921 
L 306.763969 231.993677 
L 306.763969 231.993677 
L 306.9407 232.188971 
L 306.9407 232.188971 
L 307.117431 235.719731 
L 307.117431 235.719731 
L 307.294161 235.975562 
L 307.294161 235.975562 
L 307.470892 239.4593 
L 307.470892 239.4593 
L 307.647623 239.656661 
L 307.647623 239.656661 
L 307.824354 243.08109 
L 307.824354 243.08109 
L 308.001085 243.18273 
L 308.001085 243.18273 
L 308.177816 246.142464 
L 308.177816 246.142464 
L 308.354546 246.347195 
L 308.354546 246.347195 
L 308.531277 248.991734 
L 308.531277 248.991734 
L 308.708008 248.652803 
L 308.708008 248.652803 
L 308.884739 251.603267 
L 308.884739 251.603267 
L 309.06147 251.210836 
L 309.06147 251.210836 
L 309.238201 253.262455 
L 309.238201 253.262455 
L 309.414931 252.76146 
L 309.414931 252.76146 
L 309.945124 255.537348 
L 309.945124 255.537348 
L 310.121855 257.013808 
L 310.121855 257.013808 
L 310.298586 257.303984 
L 310.298586 257.303984 
L 310.475316 257.939737 
L 310.475316 257.939737 
L 310.652047 258.051708 
L 310.652047 258.051708 
L 310.828778 259.397209 
L 310.828778 259.397209 
L 311.18224 259.640922 
L 311.18224 259.640922 
L 311.358971 260.36022 
L 311.358971 260.36022 
L 311.535701 259.960027 
L 311.535701 259.960027 
L 311.712432 261.012447 
L 311.712432 261.012447 
L 311.889163 261.168202 
L 311.889163 261.168202 
L 312.065894 261.007756 
L 312.065894 261.007756 
L 312.242625 261.168761 
L 312.242625 261.168761 
L 312.419356 260.92516 
L 312.419356 260.92516 
L 312.596087 261.324795 
L 312.596087 261.324795 
L 312.772817 261.254317 
L 312.772817 261.254317 
L 312.949548 261.702371 
L 312.949548 261.702371 
L 313.126279 261.589282 
L 313.126279 261.589282 
L 313.479741 261.749002 
L 313.479741 261.749002 
L 313.656472 261.213326 
L 313.656472 261.213326 
L 313.833202 261.496578 
L 313.833202 261.496578 
L 314.009933 261.325632 
L 314.009933 261.325632 
L 314.186664 261.695725 
L 314.186664 261.695725 
L 314.540126 261.505513 
L 314.540126 261.505513 
L 314.716857 260.803136 
L 314.716857 260.803136 
L 314.893587 261.023784 
L 314.893587 261.023784 
L 315.070318 260.815366 
L 315.070318 260.815366 
L 315.247049 260.064347 
L 315.247049 260.064347 
L 315.42378 260.517874 
L 315.42378 260.517874 
L 315.600511 258.403595 
L 315.600511 258.403595 
L 315.777242 259.68465 
L 315.777242 259.68465 
L 316.130703 257.997984 
L 316.130703 257.997984 
L 316.307434 257.753434 
L 316.307434 257.753434 
L 316.484165 255.337642 
L 316.484165 255.337642 
L 316.660896 255.633347 
L 316.660896 255.633347 
L 316.837627 253.22219 
L 316.837627 253.22219 
L 317.014357 254.321521 
L 317.014357 254.321521 
L 317.54455 250.989573 
L 317.54455 250.989573 
L 317.721281 248.165825 
L 317.721281 248.165825 
L 317.898012 248.019117 
L 317.898012 248.019117 
L 318.074742 244.965171 
L 318.074742 244.965171 
L 318.251473 245.551667 
L 318.251473 245.551667 
L 318.428204 240.324748 
L 318.428204 240.324748 
L 318.604935 241.965228 
L 318.604935 241.965228 
L 319.135127 237.201553 
L 319.135127 237.201553 
L 319.311858 234.050099 
L 319.311858 234.050099 
L 319.488589 233.159242 
L 319.488589 233.159242 
L 319.66532 229.259115 
L 319.66532 229.259115 
L 319.842051 229.30664 
L 319.842051 229.30664 
L 320.018782 224.965161 
L 320.018782 224.965161 
L 320.195512 225.650002 
L 320.195512 225.650002 
L 320.372243 219.819163 
L 320.372243 219.819163 
L 320.548974 221.42876 
L 320.548974 221.42876 
L 320.725705 215.000032 
L 320.725705 215.000032 
L 320.902436 217.042437 
L 320.902436 217.042437 
L 321.079167 210.115561 
L 321.079167 210.115561 
L 321.255897 212.503654 
L 321.255897 212.503654 
L 321.432628 205.159998 
L 321.432628 205.159998 
L 321.609359 207.822574 
L 321.609359 207.822574 
L 321.78609 200.291499 
L 321.78609 200.291499 
L 321.962821 202.621121 
L 321.962821 202.621121 
L 322.139552 195.46159 
L 322.139552 195.46159 
L 322.316282 198.062791 
L 322.316282 198.062791 
L 322.493013 190.58639 
L 322.493013 190.58639 
L 322.669744 192.621423 
L 322.669744 192.621423 
L 322.846475 185.758156 
L 322.846475 185.758156 
L 323.023206 187.444318 
L 323.023206 187.444318 
L 323.199937 180.944554 
L 323.199937 180.944554 
L 323.376667 182.099787 
L 323.376667 182.099787 
L 323.553398 176.050031 
L 323.553398 176.050031 
L 323.730129 176.593023 
L 323.730129 176.593023 
L 323.90686 171.147522 
L 323.90686 171.147522 
L 324.083591 170.795188 
L 324.083591 170.795188 
L 324.260322 165.669909 
L 324.260322 165.669909 
L 324.437053 164.375954 
L 324.437053 164.375954 
L 324.613783 160.541893 
L 324.613783 160.541893 
L 324.790514 152.030941 
L 324.790514 152.030941 
L 324.967245 154.49599 
L 324.967245 154.49599 
L 325.143976 146.018155 
L 325.143976 146.018155 
L 325.320707 146.6161 
L 325.320707 146.6161 
L 325.497438 140.307106 
L 325.497438 140.307106 
L 325.674168 138.459045 
L 325.674168 138.459045 
L 325.850899 134.945206 
L 325.850899 134.945206 
L 326.02763 124.388331 
L 326.02763 124.388331 
L 326.204361 125.913769 
L 326.204361 125.913769 
L 326.381092 118.356893 
L 326.381092 118.356893 
L 326.557823 116.493307 
L 326.557823 116.493307 
L 326.734553 113.408478 
L 326.734553 113.408478 
L 326.911284 116.608797 
L 326.911284 116.608797 
L 327.088015 116.980676 
L 327.088015 116.980676 
L 327.264746 123.067961 
L 327.264746 123.067961 
L 327.441477 133.033984 
L 327.441477 133.033984 
L 327.618208 132.084823 
L 327.618208 132.084823 
L 327.971669 148.032805 
L 327.971669 148.032805 
L 328.1484 145.921039 
L 328.1484 145.921039 
L 328.325131 153.068898 
L 328.325131 153.068898 
L 328.501862 154.231503 
L 328.501862 154.231503 
L 329.385516 176.611955 
L 329.385516 176.611955 
L 329.562247 175.161128 
L 329.562247 175.161128 
L 329.738978 181.070208 
L 329.738978 181.070208 
L 329.915708 181.285104 
L 330.26917 186.156283 
L 330.26917 186.156283 
L 330.445901 188.705045 
L 330.445901 188.705045 
L 330.622632 193.851602 
L 330.622632 193.851602 
L 330.799363 193.089469 
L 330.799363 193.089469 
L 330.976093 196.81167 
L 330.976093 196.81167 
L 331.152824 197.013219 
L 331.152824 197.013219 
L 331.506286 200.422347 
L 331.506286 200.422347 
L 332.213209 206.776241 
L 332.213209 206.776241 
L 332.38994 206.480257 
L 332.38994 206.480257 
L 332.566671 208.050036 
L 332.566671 208.050036 
L 332.743402 208.092981 
L 332.743402 208.092981 
L 332.920133 208.996349 
L 332.920133 208.996349 
L 333.273594 209.638356 
L 333.273594 209.638356 
L 333.450325 209.946961 
L 333.450325 209.946961 
L 333.627056 210.024811 
L 333.627056 210.024811 
L 333.803787 210.315211 
L 333.803787 210.315211 
L 333.980518 210.202569 
L 333.980518 210.202569 
L 334.157248 210.542728 
L 334.157248 210.542728 
L 334.333979 210.264279 
L 334.333979 210.264279 
L 334.687441 210.478617 
L 334.687441 210.478617 
L 334.864172 210.069041 
L 334.864172 210.069041 
L 335.040903 210.289242 
L 335.040903 210.289242 
L 335.217633 209.942438 
L 335.217633 209.942438 
L 335.394364 210.191847 
L 335.394364 210.191847 
L 335.571095 209.624003 
L 335.571095 209.624003 
L 335.747826 209.88084 
L 335.747826 209.88084 
L 335.924557 209.073919 
L 335.924557 209.073919 
L 336.101288 209.269045 
L 336.101288 209.269045 
L 336.278019 208.202496 
L 336.278019 208.202496 
L 336.454749 208.251864 
L 336.454749 208.251864 
L 336.63148 206.923396 
L 336.63148 206.923396 
L 336.808211 206.743404 
L 336.808211 206.743404 
L 337.338404 203.006794 
L 337.338404 203.006794 
L 337.515134 198.079266 
L 337.515134 198.079266 
L 337.691865 199.682944 
L 337.691865 199.682944 
L 337.868596 194.501204 
L 337.868596 194.501204 
L 338.045327 195.709659 
L 338.045327 195.709659 
L 338.222058 189.849667 
L 338.222058 189.849667 
L 338.398789 190.628442 
L 338.398789 190.628442 
L 338.575519 184.164028 
L 338.575519 184.164028 
L 338.75225 184.14934 
L 338.75225 184.14934 
L 338.928981 177.912444 
L 338.928981 177.912444 
L 339.105712 176.734872 
L 339.105712 176.734872 
L 339.812635 155.108064 
L 339.812635 155.108064 
L 339.989366 154.22536 
L 339.989366 154.22536 
L 340.166097 163.900368 
L 340.166097 163.900368 
L 340.342828 163.743496 
L 340.342828 163.743496 
L 340.519559 170.833666 
L 340.519559 170.833666 
L 340.696289 171.743232 
L 340.696289 171.743232 
L 341.049751 182.063543 
L 341.049751 182.063543 
L 341.226482 181.504746 
L 341.226482 181.504746 
L 341.403213 184.509213 
L 341.403213 184.509213 
L 341.579944 184.740807 
L 341.579944 184.740807 
L 341.756674 186.665879 
L 341.756674 186.665879 
L 341.933405 186.885745 
L 341.933405 186.885745 
L 342.286867 188.142898 
L 342.286867 188.142898 
L 342.463598 188.333501 
L 342.463598 188.333501 
L 342.817059 188.043938 
L 342.817059 188.043938 
L 343.170521 188.474456 
L 343.170521 188.474456 
L 343.347252 188.310324 
L 343.523983 187.298504 
L 343.523983 187.298504 
L 343.700714 188.089062 
L 343.700714 188.089062 
L 343.877444 186.834758 
L 343.877444 186.834758 
L 344.054175 186.983532 
L 344.054175 186.983532 
L 344.584368 183.028397 
L 344.584368 183.028397 
L 344.761099 177.482819 
L 344.761099 177.482819 
L 344.937829 178.765047 
L 344.937829 178.765047 
L 345.11456 173.503503 
L 345.11456 173.503503 
L 345.291291 172.538202 
L 345.291291 172.538202 
L 345.821484 160.621474 
L 345.821484 160.621474 
L 345.998214 149.329943 
L 345.998214 149.329943 
L 346.174945 150.675109 
L 346.174945 150.675109 
L 346.351676 147.363991 
L 346.351676 147.363991 
L 346.528407 147.979025 
L 346.528407 147.979025 
L 346.881869 159.220853 
L 346.881869 159.220853 
L 347.23533 171.592168 
L 347.23533 171.592168 
L 347.412061 171.663205 
L 347.412061 171.663205 
L 347.765523 180.607076 
L 347.765523 180.607076 
L 347.942254 179.946863 
L 347.942254 179.946863 
L 348.118985 182.271849 
L 348.118985 182.271849 
L 348.295715 182.716384 
L 348.295715 182.716384 
L 348.649177 185.592572 
L 348.649177 185.592572 
L 348.825908 185.604858 
L 348.825908 185.604858 
L 349.17937 186.359675 
L 349.17937 186.359675 
L 349.3561 186.388603 
L 349.3561 186.388603 
L 349.532831 186.660629 
L 349.532831 186.660629 
L 349.886293 186.338062 
L 349.886293 186.338062 
L 350.063024 186.571052 
L 350.063024 186.571052 
L 350.239755 186.382683 
L 350.239755 186.382683 
L 350.416485 186.615729 
L 350.416485 186.615729 
L 350.769947 186.161197 
L 350.769947 186.161197 
L 350.946678 186.287131 
L 350.946678 186.287131 
L 351.123409 185.188078 
L 351.123409 185.188078 
L 351.30014 186.01354 
L 351.30014 186.01354 
L 351.47687 185.20433 
L 351.47687 185.20433 
L 351.653601 185.527567 
L 351.653601 185.527567 
L 351.830332 184.689484 
L 351.830332 184.689484 
L 352.007063 184.847976 
L 352.007063 184.847976 
L 352.360525 183.609196 
L 352.360525 183.609196 
L 352.537255 183.373637 
L 352.537255 183.373637 
L 352.713986 181.906001 
L 352.713986 181.906001 
L 352.890717 182.419227 
L 352.890717 182.419227 
L 353.067448 180.684758 
L 353.067448 180.684758 
L 353.244179 181.381606 
L 353.244179 181.381606 
L 353.42091 180.252955 
L 353.42091 180.252955 
L 353.59764 180.252508 
L 353.59764 180.252508 
L 353.774371 179.344562 
L 353.774371 179.344562 
L 353.951102 176.986794 
L 353.951102 176.986794 
L 354.127833 178.176205 
L 354.127833 178.176205 
L 354.304564 176.34797 
L 354.304564 176.34797 
L 354.481295 176.774634 
L 354.481295 176.774634 
L 354.658025 175.192346 
L 354.658025 175.192346 
L 354.834756 175.189944 
L 354.834756 175.189944 
L 355.188218 172.96805 
L 355.188218 172.96805 
L 355.364949 172.353072 
L 355.364949 172.353072 
L 355.54168 169.368264 
L 355.54168 169.368264 
L 355.71841 170.35244 
L 355.71841 170.35244 
L 355.895141 168.138085 
L 355.895141 168.138085 
L 356.071872 167.966246 
L 356.248603 166.470407 
L 356.248603 166.470407 
L 356.425334 162.368229 
L 356.425334 162.368229 
L 356.602065 164.219194 
L 356.602065 164.219194 
L 356.778795 161.056068 
L 356.778795 161.056068 
L 356.955526 161.381819 
L 356.955526 161.381819 
L 357.132257 159.223477 
L 357.132257 159.223477 
L 357.308988 158.470448 
L 357.308988 158.470448 
L 357.485719 156.959252 
L 357.485719 156.959252 
L 357.66245 153.068116 
L 357.66245 153.068116 
L 357.83918 153.889836 
L 357.83918 153.889836 
L 358.015911 151.371734 
L 358.015911 151.371734 
L 358.192642 150.703702 
L 358.192642 150.703702 
L 358.369373 149.080367 
L 358.369373 149.080367 
L 358.546104 145.085078 
L 358.546104 145.085078 
L 358.722835 145.971915 
L 358.722835 145.971915 
L 358.899565 143.591305 
L 358.899565 143.591305 
L 359.076296 142.758807 
L 359.076296 142.758807 
L 359.959951 133.764284 
L 359.959951 133.764284 
L 360.136681 134.936662 
L 360.136681 134.936662 
L 360.313412 132.511767 
L 360.313412 132.511767 
L 360.490143 132.336857 
L 360.490143 132.336857 
L 360.843605 129.234883 
L 361.020336 129.395887 
L 361.197066 128.840051 
L 361.197066 128.840051 
L 361.373797 126.681486 
L 361.373797 126.681486 
L 361.550528 127.034433 
L 361.550528 127.034433 
L 361.90399 124.634334 
L 361.90399 124.634334 
L 362.080721 125.077808 
L 362.080721 125.077808 
L 362.434182 122.694071 
L 362.434182 122.694071 
L 362.610913 123.219751 
L 362.610913 123.219751 
L 362.964375 120.405943 
L 362.964375 120.405943 
L 363.141106 121.038848 
L 363.494567 117.377966 
L 363.494567 117.377966 
L 363.671298 118.145962 
L 363.671298 118.145962 
L 364.02476 113.084347 
L 364.02476 113.084347 
L 364.201491 114.201214 
L 364.201491 114.201214 
L 364.378221 111.760626 
L 364.378221 111.760626 
L 364.554952 107.604333 
L 364.554952 107.604333 
L 364.731683 108.813123 
L 364.731683 108.813123 
L 365.085145 101.181133 
L 365.085145 101.181133 
L 365.261876 102.106225 
L 365.261876 102.106225 
L 365.438606 98.75931 
L 365.438606 98.75931 
L 365.615337 92.738035 
L 365.615337 92.738035 
L 365.792068 93.25584 
L 365.792068 93.25584 
L 365.968799 89.637066 
L 365.968799 89.637066 
L 366.14553 83.343207 
L 366.14553 83.343207 
L 366.322261 82.402646 
L 366.322261 82.402646 
L 366.498991 78.769184 
L 366.498991 78.769184 
L 366.852453 63.200063 
L 366.852453 63.200063 
L 367.029184 65.107153 
L 367.029184 65.107153 
L 367.382646 53.568 
L 367.382646 53.568 
L 396.013041 53.568 
L 396.013041 53.568 
L 396.189772 53.708621 
L 396.543234 53.568 
L 396.543234 53.568 
L 396.896695 53.568 
L 396.896695 53.568 
L 397.250157 54.00064 
L 397.250157 54.00064 
L 397.426888 54.08709 
L 397.426888 54.08709 
L 397.603619 53.568 
L 397.603619 53.568 
L 397.95708 53.568 
L 397.95708 53.568 
L 398.310542 53.883922 
L 398.310542 53.883922 
L 398.487273 53.568 
L 398.487273 53.568 
" clip-path="url(#p59442da4a1)" style="fill: none; stroke: #ff7f0e; stroke-width: 1.5; stroke-linecap: square"/>
   </g>
   <g id="patch_3">
    <path d="M 57.6 307.584 
L 57.6 41.472 
" style="fill: none; stroke: #000000; stroke-width: 0.8; stroke-linejoin: miter; stroke-linecap: square"/>
   </g>
   <g id="patch_4">
    <path d="M 414.72 307.584 
L 414.72 41.472 
" style="fill: none; stroke: #000000; stroke-width: 0.8; stroke-linejoin: miter; stroke-linecap: square"/>
   </g>
   <g id="patch_5">
    <path d="M 57.6 307.584 
L 414.72 307.584 
" style="fill: none; stroke: #000000; stroke-width: 0.8; stroke-linejoin: miter; stroke-linecap: square"/>
   </g>
   <g id="patch_6">
    <path d="M 57.6 41.472 
L 414.72 41.472 
" style="fill: none; stroke: #000000; stroke-width: 0.8; stroke-linejoin: miter; stroke-linecap: square"/>
   </g>
   <g id="text_16">
    <!-- Actual speed vs Expected speed -->
    <g transform="translate(138.808125 35.472) scale(0.12 -0.12)">
     <defs>
      <path id="DejaVuSans-41" d="M 2188 4044 
L 1331 1722 
L 3047 1722 
L 2188 4044 
z
M 1831 4666 
L 2547 4666 
L 4325 0 
L 3669 0 
L 3244 1197 
L 1141 1197 
L 716 0 
L 50 0 
L 1831 4666 
z
" transform="scale(0.015625)"/>
      <path id="DejaVuSans-75" d="M 544 1381 
L 544 3500 
L 1119 3500 
L 1119 1403 
Q 1119 906 1312 657 
Q 1506 409 1894 409 
Q 2359 409 2629 706 
Q 2900 1003 2900 1516 
L 2900 3500 
L 3475 3500 
L 3475 0 
L 2900 0 
L 2900 538 
Q 2691 219 2414 64 
Q 2138 -91 1772 -91 
Q 1169 -91 856 284 
Q 544 659 544 1381 
z
M 1991 3584 
L 1991 3584 
z
" transform="scale(0.015625)"/>
      <path id="DejaVuSans-61" d="M 2194 1759 
Q 1497 1759 1228 1600 
Q 959 1441 959 1056 
Q 959 750 1161 570 
Q 1363 391 1709 391 
Q 2188 391 2477 730 
Q 2766 1069 2766 1631 
L 2766 1759 
L 2194 1759 
z
M 3341 1997 
L 3341 0 
L 2766 0 
L 2766 531 
Q 2569 213 2275 61 
Q 1981 -91 1556 -91 
Q 1019 -91 701 211 
Q 384 513 384 1019 
Q 384 1609 779 1909 
Q 1175 2209 1959 2209 
L 2766 2209 
L 2766 2266 
Q 2766 2663 2505 2880 
Q 2244 3097 1772 3097 
Q 1472 3097 1187 3025 
Q 903 2953 641 2809 
L 641 3341 
Q 956 3463 1253 3523 
Q 1550 3584 1831 3584 
Q 2591 3584 2966 3190 
Q 3341 2797 3341 1997 
z
" transform="scale(0.015625)"/>
      <path id="DejaVuSans-20" transform="scale(0.015625)"/>
      <path id="DejaVuSans-70" d="M 1159 525 
L 1159 -1331 
L 581 -1331 
L 581 3500 
L 1159 3500 
L 1159 2969 
Q 1341 3281 1617 3432 
Q 1894 3584 2278 3584 
Q 2916 3584 3314 3078 
Q 3713 2572 3713 1747 
Q 3713 922 3314 415 
Q 2916 -91 2278 -91 
Q 1894 -91 1617 61 
Q 1341 213 1159 525 
z
M 3116 1747 
Q 3116 2381 2855 2742 
Q 2594 3103 2138 3103 
Q 1681 3103 1420 2742 
Q 1159 2381 1159 1747 
Q 1159 1113 1420 752 
Q 1681 391 2138 391 
Q 2594 391 2855 752 
Q 3116 1113 3116 1747 
z
" transform="scale(0.015625)"/>
      <path id="DejaVuSans-64" d="M 2906 2969 
L 2906 4863 
L 3481 4863 
L 3481 0 
L 2906 0 
L 2906 525 
Q 2725 213 2448 61 
Q 2172 -91 1784 -91 
Q 1150 -91 751 415 
Q 353 922 353 1747 
Q 353 2572 751 3078 
Q 1150 3584 1784 3584 
Q 2172 3584 2448 3432 
Q 2725 3281 2906 2969 
z
M 947 1747 
Q 947 1113 1208 752 
Q 1469 391 1925 391 
Q 2381 391 2643 752 
Q 2906 1113 2906 1747 
Q 2906 2381 2643 2742 
Q 2381 3103 1925 3103 
Q 1469 3103 1208 2742 
Q 947 2381 947 1747 
z
" transform="scale(0.015625)"/>
      <path id="DejaVuSans-76" d="M 191 3500 
L 800 3500 
L 1894 563 
L 2988 3500 
L 3597 3500 
L 2284 0 
L 1503 0 
L 191 3500 
z
" transform="scale(0.015625)"/>
      <path id="DejaVuSans-45" d="M 628 4666 
L 3578 4666 
L 3578 4134 
L 1259 4134 
L 1259 2753 
L 3481 2753 
L 3481 2222 
L 1259 2222 
L 1259 531 
L 3634 531 
L 3634 0 
L 628 0 
L 628 4666 
z
" transform="scale(0.015625)"/>
      <path id="DejaVuSans-78" d="M 3513 3500 
L 2247 1797 
L 3578 0 
L 2900 0 
L 1881 1375 
L 863 0 
L 184 0 
L 1544 1831 
L 300 3500 
L 978 3500 
L 1906 2253 
L 2834 3500 
L 3513 3500 
z
" transform="scale(0.015625)"/>
     </defs>
     <use xlink:href="#DejaVuSans-41"/>
     <use xlink:href="#DejaVuSans-63" x="66.658203"/>
     <use xlink:href="#DejaVuSans-74" x="121.638672"/>
     <use xlink:href="#DejaVuSans-75" x="160.847656"/>
     <use xlink:href="#DejaVuSans-61" x="224.226562"/>
     <use xlink:href="#DejaVuSans-6c" x="285.505859"/>
     <use xlink:href="#DejaVuSans-20" x="313.289062"/>
     <use xlink:href="#DejaVuSans-73" x="345.076172"/>
     <use xlink:href="#DejaVuSans-70" x="397.175781"/>
     <use xlink:href="#DejaVuSans-65" x="460.652344"/>
     <use xlink:href="#DejaVuSans-65" x="522.175781"/>
     <use xlink:href="#DejaVuSans-64" x="583.699219"/>
     <use xlink:href="#DejaVuSans-20" x="647.175781"/>
     <use xlink:href="#DejaVuSans-76" x="678.962891"/>
     <use xlink:href="#DejaVuSans-73" x="738.142578"/>
     <use xlink:href="#DejaVuSans-20" x="790.242188"/>
     <use xlink:href="#DejaVuSans-45" x="822.029297"/>
     <use xlink:href="#DejaVuSans-78" x="885.212891"/>
     <use xlink:href="#DejaVuSans-70" x="944.392578"/>
     <use xlink:href="#DejaVuSans-65" x="1007.869141"/>
     <use xlink:href="#DejaVuSans-63" x="1069.392578"/>
     <use xlink:href="#DejaVuSans-74" x="1124.373047"/>
     <use xlink:href="#DejaVuSans-65" x="1163.582031"/>
     <use xlink:href="#DejaVuSans-64" x="1225.105469"/>
     <use xlink:href="#DejaVuSans-20" x="1288.582031"/>
     <use xlink:href="#DejaVuSans-73" x="1320.369141"/>
     <use xlink:href="#DejaVuSans-70" x="1372.46875"/>
     <use xlink:href="#DejaVuSans-65" x="1435.945312"/>
     <use xlink:href="#DejaVuSans-65" x="1497.46875"/>
     <use xlink:href="#DejaVuSans-64" x="1558.992188"/>
    </g>
   </g>
   <g id="legend_1">
    <g id="patch_7">
     <path d="M 64.6 302.584 
L 176.65 302.584 
Q 178.65 302.584 178.65 300.584 
L 178.65 272.22775 
Q 178.65 270.22775 176.65 270.22775 
L 64.6 270.22775 
Q 62.6 270.22775 62.6 272.22775 
L 62.6 300.584 
Q 62.6 302.584 64.6 302.584 
z
" style="fill: #ffffff; opacity: 0.8; stroke: #cccccc; stroke-linejoin: miter"/>
    </g>
    <g id="line2d_29">
     <path d="M 66.6 278.326187 
L 76.6 278.326187 
L 86.6 278.326187 
" style="fill: none; stroke: #1f77b4; stroke-width: 1.5; stroke-linecap: square"/>
    </g>
    <g id="text_17">
     <!-- Actual speed -->
     <g transform="translate(94.6 281.826187) scale(0.1 -0.1)">
      <use xlink:href="#DejaVuSans-41"/>
      <use xlink:href="#DejaVuSans-63" x="66.658203"/>
      <use xlink:href="#DejaVuSans-74" x="121.638672"/>
      <use xlink:href="#DejaVuSans-75" x="160.847656"/>
      <use xlink:href="#DejaVuSans-61" x="224.226562"/>
      <use xlink:href="#DejaVuSans-6c" x="285.505859"/>
      <use xlink:href="#DejaVuSans-20" x="313.289062"/>
      <use xlink:href="#DejaVuSans-73" x="345.076172"/>
      <use xlink:href="#DejaVuSans-70" x="397.175781"/>
      <use xlink:href="#DejaVuSans-65" x="460.652344"/>
      <use xlink:href="#DejaVuSans-65" x="522.175781"/>
      <use xlink:href="#DejaVuSans-64" x="583.699219"/>
     </g>
    </g>
    <g id="line2d_30">
     <path d="M 66.6 293.004312 
L 76.6 293.004312 
L 86.6 293.004312 
" style="fill: none; stroke: #ff7f0e; stroke-width: 1.5; stroke-linecap: square"/>
    </g>
    <g id="text_18">
     <!-- Expected speed -->
     <g transform="translate(94.6 296.504312) scale(0.1 -0.1)">
      <use xlink:href="#DejaVuSans-45"/>
      <use xlink:href="#DejaVuSans-78" x="63.183594"/>
      <use xlink:href="#DejaVuSans-70" x="122.363281"/>
      <use xlink:href="#DejaVuSans-65" x="185.839844"/>
      <use xlink:href="#DejaVuSans-63" x="247.363281"/>
      <use xlink:href="#DejaVuSans-74" x="302.34375"/>
      <use xlink:href="#DejaVuSans-65" x="341.552734"/>
      <use xlink:href="#DejaVuSans-64" x="403.076172"/>
      <use xlink:href="#DejaVuSans-20" x="466.552734"/>
      <use xlink:href="#DejaVuSans-73" x="498.339844"/>
      <use xlink:href="#DejaVuSans-70" x="550.439453"/>
      <use xlink:href="#DejaVuSans-65" x="613.916016"/>
      <use xlink:href="#DejaVuSans-65" x="675.439453"/>
      <use xlink:href="#DejaVuSans-64" x="736.962891"/>
     </g>
    </g>
   </g>
  </g>
 </g>
 <defs>
  <clipPath id="p59442da4a1">
   <rect x="57.6" y="41.472" width="357.12" height="266.112"/>
  </clipPath>
 </defs>
</svg>
