<?xml version="1.0" encoding="utf-8" standalone="no"?>
<!DOCTYPE svg PUBLIC "-//W3C//DTD SVG 1.1//EN"
  "http://www.w3.org/Graphics/SVG/1.1/DTD/svg11.dtd">
<svg xmlns:xlink="http://www.w3.org/1999/xlink" width="460.8pt" height="345.6pt" viewBox="0 0 460.8 345.6" xmlns="http://www.w3.org/2000/svg" version="1.1">
 <metadata>
  <rdf:RDF xmlns:dc="http://purl.org/dc/elements/1.1/" xmlns:cc="http://creativecommons.org/ns#" xmlns:rdf="http://www.w3.org/1999/02/22-rdf-syntax-ns#">
   <cc:Work>
    <dc:type rdf:resource="http://purl.org/dc/dcmitype/StillImage"/>
    <dc:date>2024-01-30T20:59:13.556194</dc:date>
    <dc:format>image/svg+xml</dc:format>
    <dc:creator>
     <cc:Agent>
      <dc:title>Matplotlib v3.7.1, https://matplotlib.org/</dc:title>
     </cc:Agent>
    </dc:creator>
   </cc:Work>
  </rdf:RDF>
 </metadata>
 <defs>
  <style type="text/css">*{stroke-linejoin: round; stroke-linecap: butt}</style>
 </defs>
 <g id="figure_1">
  <g id="patch_1">
   <path d="M 0 345.6 
L 460.8 345.6 
L 460.8 0 
L 0 0 
z
" style="fill: #ffffff"/>
  </g>
  <g id="axes_1">
   <g id="patch_2">
    <path d="M 57.6 307.584 
L 414.72 307.584 
L 414.72 41.472 
L 57.6 41.472 
z
" style="fill: #ffffff"/>
   </g>
   <g id="matplotlib.axis_1">
    <g id="xtick_1">
     <g id="line2d_1">
      <path d="M 73.832727 307.584 
L 73.832727 41.472 
" clip-path="url(#p7bd7fb6e12)" style="fill: none; stroke: #b0b0b0; stroke-width: 0.8; stroke-linecap: square"/>
     </g>
     <g id="line2d_2">
      <defs>
       <path id="mf2297e4356" d="M 0 0 
L 0 3.5 
" style="stroke: #000000; stroke-width: 0.8"/>
      </defs>
      <g>
       <use xlink:href="#mf2297e4356" x="73.832727" y="307.584" style="stroke: #000000; stroke-width: 0.8"/>
      </g>
     </g>
     <g id="text_1">
      <!-- 0 -->
      <g transform="translate(70.651477 322.182437) scale(0.1 -0.1)">
       <defs>
        <path id="DejaVuSans-30" d="M 2034 4250 
Q 1547 4250 1301 3770 
Q 1056 3291 1056 2328 
Q 1056 1369 1301 889 
Q 1547 409 2034 409 
Q 2525 409 2770 889 
Q 3016 1369 3016 2328 
Q 3016 3291 2770 3770 
Q 2525 4250 2034 4250 
z
M 2034 4750 
Q 2819 4750 3233 4129 
Q 3647 3509 3647 2328 
Q 3647 1150 3233 529 
Q 2819 -91 2034 -91 
Q 1250 -91 836 529 
Q 422 1150 422 2328 
Q 422 3509 836 4129 
Q 1250 4750 2034 4750 
z
" transform="scale(0.015625)"/>
       </defs>
       <use xlink:href="#DejaVuSans-30"/>
      </g>
     </g>
    </g>
    <g id="xtick_2">
     <g id="line2d_3">
      <path d="M 131.93125 307.584 
L 131.93125 41.472 
" clip-path="url(#p7bd7fb6e12)" style="fill: none; stroke: #b0b0b0; stroke-width: 0.8; stroke-linecap: square"/>
     </g>
     <g id="line2d_4">
      <g>
       <use xlink:href="#mf2297e4356" x="131.93125" y="307.584" style="stroke: #000000; stroke-width: 0.8"/>
      </g>
     </g>
     <g id="text_2">
      <!-- 5 -->
      <g transform="translate(128.75 322.182437) scale(0.1 -0.1)">
       <defs>
        <path id="DejaVuSans-35" d="M 691 4666 
L 3169 4666 
L 3169 4134 
L 1269 4134 
L 1269 2991 
Q 1406 3038 1543 3061 
Q 1681 3084 1819 3084 
Q 2600 3084 3056 2656 
Q 3513 2228 3513 1497 
Q 3513 744 3044 326 
Q 2575 -91 1722 -91 
Q 1428 -91 1123 -41 
Q 819 9 494 109 
L 494 744 
Q 775 591 1075 516 
Q 1375 441 1709 441 
Q 2250 441 2565 725 
Q 2881 1009 2881 1497 
Q 2881 1984 2565 2268 
Q 2250 2553 1709 2553 
Q 1456 2553 1204 2497 
Q 953 2441 691 2322 
L 691 4666 
z
" transform="scale(0.015625)"/>
       </defs>
       <use xlink:href="#DejaVuSans-35"/>
      </g>
     </g>
    </g>
    <g id="xtick_3">
     <g id="line2d_5">
      <path d="M 190.029773 307.584 
L 190.029773 41.472 
" clip-path="url(#p7bd7fb6e12)" style="fill: none; stroke: #b0b0b0; stroke-width: 0.8; stroke-linecap: square"/>
     </g>
     <g id="line2d_6">
      <g>
       <use xlink:href="#mf2297e4356" x="190.029773" y="307.584" style="stroke: #000000; stroke-width: 0.8"/>
      </g>
     </g>
     <g id="text_3">
      <!-- 10 -->
      <g transform="translate(183.667273 322.182437) scale(0.1 -0.1)">
       <defs>
        <path id="DejaVuSans-31" d="M 794 531 
L 1825 531 
L 1825 4091 
L 703 3866 
L 703 4441 
L 1819 4666 
L 2450 4666 
L 2450 531 
L 3481 531 
L 3481 0 
L 794 0 
L 794 531 
z
" transform="scale(0.015625)"/>
       </defs>
       <use xlink:href="#DejaVuSans-31"/>
       <use xlink:href="#DejaVuSans-30" x="63.623047"/>
      </g>
     </g>
    </g>
    <g id="xtick_4">
     <g id="line2d_7">
      <path d="M 248.128296 307.584 
L 248.128296 41.472 
" clip-path="url(#p7bd7fb6e12)" style="fill: none; stroke: #b0b0b0; stroke-width: 0.8; stroke-linecap: square"/>
     </g>
     <g id="line2d_8">
      <g>
       <use xlink:href="#mf2297e4356" x="248.128296" y="307.584" style="stroke: #000000; stroke-width: 0.8"/>
      </g>
     </g>
     <g id="text_4">
      <!-- 15 -->
      <g transform="translate(241.765796 322.182437) scale(0.1 -0.1)">
       <use xlink:href="#DejaVuSans-31"/>
       <use xlink:href="#DejaVuSans-35" x="63.623047"/>
      </g>
     </g>
    </g>
    <g id="xtick_5">
     <g id="line2d_9">
      <path d="M 306.226819 307.584 
L 306.226819 41.472 
" clip-path="url(#p7bd7fb6e12)" style="fill: none; stroke: #b0b0b0; stroke-width: 0.8; stroke-linecap: square"/>
     </g>
     <g id="line2d_10">
      <g>
       <use xlink:href="#mf2297e4356" x="306.226819" y="307.584" style="stroke: #000000; stroke-width: 0.8"/>
      </g>
     </g>
     <g id="text_5">
      <!-- 20 -->
      <g transform="translate(299.864319 322.182437) scale(0.1 -0.1)">
       <defs>
        <path id="DejaVuSans-32" d="M 1228 531 
L 3431 531 
L 3431 0 
L 469 0 
L 469 531 
Q 828 903 1448 1529 
Q 2069 2156 2228 2338 
Q 2531 2678 2651 2914 
Q 2772 3150 2772 3378 
Q 2772 3750 2511 3984 
Q 2250 4219 1831 4219 
Q 1534 4219 1204 4116 
Q 875 4013 500 3803 
L 500 4441 
Q 881 4594 1212 4672 
Q 1544 4750 1819 4750 
Q 2544 4750 2975 4387 
Q 3406 4025 3406 3419 
Q 3406 3131 3298 2873 
Q 3191 2616 2906 2266 
Q 2828 2175 2409 1742 
Q 1991 1309 1228 531 
z
" transform="scale(0.015625)"/>
       </defs>
       <use xlink:href="#DejaVuSans-32"/>
       <use xlink:href="#DejaVuSans-30" x="63.623047"/>
      </g>
     </g>
    </g>
    <g id="xtick_6">
     <g id="line2d_11">
      <path d="M 364.325341 307.584 
L 364.325341 41.472 
" clip-path="url(#p7bd7fb6e12)" style="fill: none; stroke: #b0b0b0; stroke-width: 0.8; stroke-linecap: square"/>
     </g>
     <g id="line2d_12">
      <g>
       <use xlink:href="#mf2297e4356" x="364.325341" y="307.584" style="stroke: #000000; stroke-width: 0.8"/>
      </g>
     </g>
     <g id="text_6">
      <!-- 25 -->
      <g transform="translate(357.962841 322.182437) scale(0.1 -0.1)">
       <use xlink:href="#DejaVuSans-32"/>
       <use xlink:href="#DejaVuSans-35" x="63.623047"/>
      </g>
     </g>
    </g>
    <g id="text_7">
     <!-- Time(s) -->
     <g transform="translate(217.420156 335.860562) scale(0.1 -0.1)">
      <defs>
       <path id="DejaVuSans-54" d="M -19 4666 
L 3928 4666 
L 3928 4134 
L 2272 4134 
L 2272 0 
L 1638 0 
L 1638 4134 
L -19 4134 
L -19 4666 
z
" transform="scale(0.015625)"/>
       <path id="DejaVuSans-69" d="M 603 3500 
L 1178 3500 
L 1178 0 
L 603 0 
L 603 3500 
z
M 603 4863 
L 1178 4863 
L 1178 4134 
L 603 4134 
L 603 4863 
z
" transform="scale(0.015625)"/>
       <path id="DejaVuSans-6d" d="M 3328 2828 
Q 3544 3216 3844 3400 
Q 4144 3584 4550 3584 
Q 5097 3584 5394 3201 
Q 5691 2819 5691 2113 
L 5691 0 
L 5113 0 
L 5113 2094 
Q 5113 2597 4934 2840 
Q 4756 3084 4391 3084 
Q 3944 3084 3684 2787 
Q 3425 2491 3425 1978 
L 3425 0 
L 2847 0 
L 2847 2094 
Q 2847 2600 2669 2842 
Q 2491 3084 2119 3084 
Q 1678 3084 1418 2786 
Q 1159 2488 1159 1978 
L 1159 0 
L 581 0 
L 581 3500 
L 1159 3500 
L 1159 2956 
Q 1356 3278 1631 3431 
Q 1906 3584 2284 3584 
Q 2666 3584 2933 3390 
Q 3200 3197 3328 2828 
z
" transform="scale(0.015625)"/>
       <path id="DejaVuSans-65" d="M 3597 1894 
L 3597 1613 
L 953 1613 
Q 991 1019 1311 708 
Q 1631 397 2203 397 
Q 2534 397 2845 478 
Q 3156 559 3463 722 
L 3463 178 
Q 3153 47 2828 -22 
Q 2503 -91 2169 -91 
Q 1331 -91 842 396 
Q 353 884 353 1716 
Q 353 2575 817 3079 
Q 1281 3584 2069 3584 
Q 2775 3584 3186 3129 
Q 3597 2675 3597 1894 
z
M 3022 2063 
Q 3016 2534 2758 2815 
Q 2500 3097 2075 3097 
Q 1594 3097 1305 2825 
Q 1016 2553 972 2059 
L 3022 2063 
z
" transform="scale(0.015625)"/>
       <path id="DejaVuSans-28" d="M 1984 4856 
Q 1566 4138 1362 3434 
Q 1159 2731 1159 2009 
Q 1159 1288 1364 580 
Q 1569 -128 1984 -844 
L 1484 -844 
Q 1016 -109 783 600 
Q 550 1309 550 2009 
Q 550 2706 781 3412 
Q 1013 4119 1484 4856 
L 1984 4856 
z
" transform="scale(0.015625)"/>
       <path id="DejaVuSans-73" d="M 2834 3397 
L 2834 2853 
Q 2591 2978 2328 3040 
Q 2066 3103 1784 3103 
Q 1356 3103 1142 2972 
Q 928 2841 928 2578 
Q 928 2378 1081 2264 
Q 1234 2150 1697 2047 
L 1894 2003 
Q 2506 1872 2764 1633 
Q 3022 1394 3022 966 
Q 3022 478 2636 193 
Q 2250 -91 1575 -91 
Q 1294 -91 989 -36 
Q 684 19 347 128 
L 347 722 
Q 666 556 975 473 
Q 1284 391 1588 391 
Q 1994 391 2212 530 
Q 2431 669 2431 922 
Q 2431 1156 2273 1281 
Q 2116 1406 1581 1522 
L 1381 1569 
Q 847 1681 609 1914 
Q 372 2147 372 2553 
Q 372 3047 722 3315 
Q 1072 3584 1716 3584 
Q 2034 3584 2315 3537 
Q 2597 3491 2834 3397 
z
" transform="scale(0.015625)"/>
       <path id="DejaVuSans-29" d="M 513 4856 
L 1013 4856 
Q 1481 4119 1714 3412 
Q 1947 2706 1947 2009 
Q 1947 1309 1714 600 
Q 1481 -109 1013 -844 
L 513 -844 
Q 928 -128 1133 580 
Q 1338 1288 1338 2009 
Q 1338 2731 1133 3434 
Q 928 4138 513 4856 
z
" transform="scale(0.015625)"/>
      </defs>
      <use xlink:href="#DejaVuSans-54"/>
      <use xlink:href="#DejaVuSans-69" x="57.958984"/>
      <use xlink:href="#DejaVuSans-6d" x="85.742188"/>
      <use xlink:href="#DejaVuSans-65" x="183.154297"/>
      <use xlink:href="#DejaVuSans-28" x="244.677734"/>
      <use xlink:href="#DejaVuSans-73" x="283.691406"/>
      <use xlink:href="#DejaVuSans-29" x="335.791016"/>
     </g>
    </g>
   </g>
   <g id="matplotlib.axis_2">
    <g id="ytick_1">
     <g id="line2d_13">
      <path d="M 57.6 295.488 
L 414.72 295.488 
" clip-path="url(#p7bd7fb6e12)" style="fill: none; stroke: #b0b0b0; stroke-width: 0.8; stroke-linecap: square"/>
     </g>
     <g id="line2d_14">
      <defs>
       <path id="m244f2e5b6f" d="M 0 0 
L -3.5 0 
" style="stroke: #000000; stroke-width: 0.8"/>
      </defs>
      <g>
       <use xlink:href="#m244f2e5b6f" x="57.6" y="295.488" style="stroke: #000000; stroke-width: 0.8"/>
      </g>
     </g>
     <g id="text_8">
      <!-- 0.00 -->
      <g transform="translate(28.334375 299.287219) scale(0.1 -0.1)">
       <defs>
        <path id="DejaVuSans-2e" d="M 684 794 
L 1344 794 
L 1344 0 
L 684 0 
L 684 794 
z
" transform="scale(0.015625)"/>
       </defs>
       <use xlink:href="#DejaVuSans-30"/>
       <use xlink:href="#DejaVuSans-2e" x="63.623047"/>
       <use xlink:href="#DejaVuSans-30" x="95.410156"/>
       <use xlink:href="#DejaVuSans-30" x="159.033203"/>
      </g>
     </g>
    </g>
    <g id="ytick_2">
     <g id="line2d_15">
      <path d="M 57.6 247.166625 
L 414.72 247.166625 
" clip-path="url(#p7bd7fb6e12)" style="fill: none; stroke: #b0b0b0; stroke-width: 0.8; stroke-linecap: square"/>
     </g>
     <g id="line2d_16">
      <g>
       <use xlink:href="#m244f2e5b6f" x="57.6" y="247.166625" style="stroke: #000000; stroke-width: 0.8"/>
      </g>
     </g>
     <g id="text_9">
      <!-- 0.05 -->
      <g transform="translate(28.334375 250.965843) scale(0.1 -0.1)">
       <use xlink:href="#DejaVuSans-30"/>
       <use xlink:href="#DejaVuSans-2e" x="63.623047"/>
       <use xlink:href="#DejaVuSans-30" x="95.410156"/>
       <use xlink:href="#DejaVuSans-35" x="159.033203"/>
      </g>
     </g>
    </g>
    <g id="ytick_3">
     <g id="line2d_17">
      <path d="M 57.6 198.845249 
L 414.72 198.845249 
" clip-path="url(#p7bd7fb6e12)" style="fill: none; stroke: #b0b0b0; stroke-width: 0.8; stroke-linecap: square"/>
     </g>
     <g id="line2d_18">
      <g>
       <use xlink:href="#m244f2e5b6f" x="57.6" y="198.845249" style="stroke: #000000; stroke-width: 0.8"/>
      </g>
     </g>
     <g id="text_10">
      <!-- 0.10 -->
      <g transform="translate(28.334375 202.644468) scale(0.1 -0.1)">
       <use xlink:href="#DejaVuSans-30"/>
       <use xlink:href="#DejaVuSans-2e" x="63.623047"/>
       <use xlink:href="#DejaVuSans-31" x="95.410156"/>
       <use xlink:href="#DejaVuSans-30" x="159.033203"/>
      </g>
     </g>
    </g>
    <g id="ytick_4">
     <g id="line2d_19">
      <path d="M 57.6 150.523874 
L 414.72 150.523874 
" clip-path="url(#p7bd7fb6e12)" style="fill: none; stroke: #b0b0b0; stroke-width: 0.8; stroke-linecap: square"/>
     </g>
     <g id="line2d_20">
      <g>
       <use xlink:href="#m244f2e5b6f" x="57.6" y="150.523874" style="stroke: #000000; stroke-width: 0.8"/>
      </g>
     </g>
     <g id="text_11">
      <!-- 0.15 -->
      <g transform="translate(28.334375 154.323092) scale(0.1 -0.1)">
       <use xlink:href="#DejaVuSans-30"/>
       <use xlink:href="#DejaVuSans-2e" x="63.623047"/>
       <use xlink:href="#DejaVuSans-31" x="95.410156"/>
       <use xlink:href="#DejaVuSans-35" x="159.033203"/>
      </g>
     </g>
    </g>
    <g id="ytick_5">
     <g id="line2d_21">
      <path d="M 57.6 102.202498 
L 414.72 102.202498 
" clip-path="url(#p7bd7fb6e12)" style="fill: none; stroke: #b0b0b0; stroke-width: 0.8; stroke-linecap: square"/>
     </g>
     <g id="line2d_22">
      <g>
       <use xlink:href="#m244f2e5b6f" x="57.6" y="102.202498" style="stroke: #000000; stroke-width: 0.8"/>
      </g>
     </g>
     <g id="text_12">
      <!-- 0.20 -->
      <g transform="translate(28.334375 106.001717) scale(0.1 -0.1)">
       <use xlink:href="#DejaVuSans-30"/>
       <use xlink:href="#DejaVuSans-2e" x="63.623047"/>
       <use xlink:href="#DejaVuSans-32" x="95.410156"/>
       <use xlink:href="#DejaVuSans-30" x="159.033203"/>
      </g>
     </g>
    </g>
    <g id="ytick_6">
     <g id="line2d_23">
      <path d="M 57.6 53.881123 
L 414.72 53.881123 
" clip-path="url(#p7bd7fb6e12)" style="fill: none; stroke: #b0b0b0; stroke-width: 0.8; stroke-linecap: square"/>
     </g>
     <g id="line2d_24">
      <g>
       <use xlink:href="#m244f2e5b6f" x="57.6" y="53.881123" style="stroke: #000000; stroke-width: 0.8"/>
      </g>
     </g>
     <g id="text_13">
      <!-- 0.25 -->
      <g transform="translate(28.334375 57.680341) scale(0.1 -0.1)">
       <use xlink:href="#DejaVuSans-30"/>
       <use xlink:href="#DejaVuSans-2e" x="63.623047"/>
       <use xlink:href="#DejaVuSans-32" x="95.410156"/>
       <use xlink:href="#DejaVuSans-35" x="159.033203"/>
      </g>
     </g>
    </g>
    <g id="text_14">
     <!-- Tracking error(m) -->
     <g transform="translate(22.254687 217.803781) rotate(-90) scale(0.1 -0.1)">
      <defs>
       <path id="DejaVuSans-72" d="M 2631 2963 
Q 2534 3019 2420 3045 
Q 2306 3072 2169 3072 
Q 1681 3072 1420 2755 
Q 1159 2438 1159 1844 
L 1159 0 
L 581 0 
L 581 3500 
L 1159 3500 
L 1159 2956 
Q 1341 3275 1631 3429 
Q 1922 3584 2338 3584 
Q 2397 3584 2469 3576 
Q 2541 3569 2628 3553 
L 2631 2963 
z
" transform="scale(0.015625)"/>
       <path id="DejaVuSans-61" d="M 2194 1759 
Q 1497 1759 1228 1600 
Q 959 1441 959 1056 
Q 959 750 1161 570 
Q 1363 391 1709 391 
Q 2188 391 2477 730 
Q 2766 1069 2766 1631 
L 2766 1759 
L 2194 1759 
z
M 3341 1997 
L 3341 0 
L 2766 0 
L 2766 531 
Q 2569 213 2275 61 
Q 1981 -91 1556 -91 
Q 1019 -91 701 211 
Q 384 513 384 1019 
Q 384 1609 779 1909 
Q 1175 2209 1959 2209 
L 2766 2209 
L 2766 2266 
Q 2766 2663 2505 2880 
Q 2244 3097 1772 3097 
Q 1472 3097 1187 3025 
Q 903 2953 641 2809 
L 641 3341 
Q 956 3463 1253 3523 
Q 1550 3584 1831 3584 
Q 2591 3584 2966 3190 
Q 3341 2797 3341 1997 
z
" transform="scale(0.015625)"/>
       <path id="DejaVuSans-63" d="M 3122 3366 
L 3122 2828 
Q 2878 2963 2633 3030 
Q 2388 3097 2138 3097 
Q 1578 3097 1268 2742 
Q 959 2388 959 1747 
Q 959 1106 1268 751 
Q 1578 397 2138 397 
Q 2388 397 2633 464 
Q 2878 531 3122 666 
L 3122 134 
Q 2881 22 2623 -34 
Q 2366 -91 2075 -91 
Q 1284 -91 818 406 
Q 353 903 353 1747 
Q 353 2603 823 3093 
Q 1294 3584 2113 3584 
Q 2378 3584 2631 3529 
Q 2884 3475 3122 3366 
z
" transform="scale(0.015625)"/>
       <path id="DejaVuSans-6b" d="M 581 4863 
L 1159 4863 
L 1159 1991 
L 2875 3500 
L 3609 3500 
L 1753 1863 
L 3688 0 
L 2938 0 
L 1159 1709 
L 1159 0 
L 581 0 
L 581 4863 
z
" transform="scale(0.015625)"/>
       <path id="DejaVuSans-6e" d="M 3513 2113 
L 3513 0 
L 2938 0 
L 2938 2094 
Q 2938 2591 2744 2837 
Q 2550 3084 2163 3084 
Q 1697 3084 1428 2787 
Q 1159 2491 1159 1978 
L 1159 0 
L 581 0 
L 581 3500 
L 1159 3500 
L 1159 2956 
Q 1366 3272 1645 3428 
Q 1925 3584 2291 3584 
Q 2894 3584 3203 3211 
Q 3513 2838 3513 2113 
z
" transform="scale(0.015625)"/>
       <path id="DejaVuSans-67" d="M 2906 1791 
Q 2906 2416 2648 2759 
Q 2391 3103 1925 3103 
Q 1463 3103 1205 2759 
Q 947 2416 947 1791 
Q 947 1169 1205 825 
Q 1463 481 1925 481 
Q 2391 481 2648 825 
Q 2906 1169 2906 1791 
z
M 3481 434 
Q 3481 -459 3084 -895 
Q 2688 -1331 1869 -1331 
Q 1566 -1331 1297 -1286 
Q 1028 -1241 775 -1147 
L 775 -588 
Q 1028 -725 1275 -790 
Q 1522 -856 1778 -856 
Q 2344 -856 2625 -561 
Q 2906 -266 2906 331 
L 2906 616 
Q 2728 306 2450 153 
Q 2172 0 1784 0 
Q 1141 0 747 490 
Q 353 981 353 1791 
Q 353 2603 747 3093 
Q 1141 3584 1784 3584 
Q 2172 3584 2450 3431 
Q 2728 3278 2906 2969 
L 2906 3500 
L 3481 3500 
L 3481 434 
z
" transform="scale(0.015625)"/>
       <path id="DejaVuSans-20" transform="scale(0.015625)"/>
       <path id="DejaVuSans-6f" d="M 1959 3097 
Q 1497 3097 1228 2736 
Q 959 2375 959 1747 
Q 959 1119 1226 758 
Q 1494 397 1959 397 
Q 2419 397 2687 759 
Q 2956 1122 2956 1747 
Q 2956 2369 2687 2733 
Q 2419 3097 1959 3097 
z
M 1959 3584 
Q 2709 3584 3137 3096 
Q 3566 2609 3566 1747 
Q 3566 888 3137 398 
Q 2709 -91 1959 -91 
Q 1206 -91 779 398 
Q 353 888 353 1747 
Q 353 2609 779 3096 
Q 1206 3584 1959 3584 
z
" transform="scale(0.015625)"/>
      </defs>
      <use xlink:href="#DejaVuSans-54"/>
      <use xlink:href="#DejaVuSans-72" x="46.333984"/>
      <use xlink:href="#DejaVuSans-61" x="87.447266"/>
      <use xlink:href="#DejaVuSans-63" x="148.726562"/>
      <use xlink:href="#DejaVuSans-6b" x="203.707031"/>
      <use xlink:href="#DejaVuSans-69" x="261.617188"/>
      <use xlink:href="#DejaVuSans-6e" x="289.400391"/>
      <use xlink:href="#DejaVuSans-67" x="352.779297"/>
      <use xlink:href="#DejaVuSans-20" x="416.255859"/>
      <use xlink:href="#DejaVuSans-65" x="448.042969"/>
      <use xlink:href="#DejaVuSans-72" x="509.566406"/>
      <use xlink:href="#DejaVuSans-72" x="548.929688"/>
      <use xlink:href="#DejaVuSans-6f" x="587.792969"/>
      <use xlink:href="#DejaVuSans-72" x="648.974609"/>
      <use xlink:href="#DejaVuSans-28" x="690.087891"/>
      <use xlink:href="#DejaVuSans-6d" x="729.101562"/>
      <use xlink:href="#DejaVuSans-29" x="826.513672"/>
     </g>
    </g>
   </g>
   <g id="line2d_25">
    <path d="M 73.832727 236.107795 
L 73.832727 241.45987 
L 74.065121 294.561196 
L 74.065121 289.97743 
L 74.762304 187.116685 
L 75.227092 135.622528 
L 75.227092 139.885439 
L 75.69188 105.05056 
L 75.69188 108.99745 
L 76.156668 93.505617 
L 76.156668 96.596252 
L 76.389062 91.739954 
L 76.389062 88.799115 
L 76.621456 95.875297 
L 76.621456 100.932612 
L 76.85385 103.606717 
L 76.85385 102.831642 
L 77.086245 109.823745 
L 77.086245 102.024675 
L 77.318639 122.78837 
L 77.318639 118.726476 
L 77.551033 128.134647 
L 77.551033 133.546641 
L 77.783427 135.446638 
L 77.783427 132.787996 
L 78.248215 168.077096 
L 78.248215 155.285462 
L 78.713003 184.30728 
L 78.945397 184.563383 
L 78.945397 188.950964 
L 79.177791 209.963031 
L 79.177791 196.516159 
L 79.64258 217.617137 
L 79.64258 217.379396 
L 80.107368 235.301794 
L 80.107368 233.544829 
L 80.339762 231.625504 
L 80.339762 242.943336 
L 80.80455 254.383905 
L 80.80455 248.390122 
L 81.269338 263.345587 
L 81.269338 262.23033 
L 81.501732 263.876156 
L 81.501732 265.438869 
L 81.734126 274.310674 
L 81.96652 276.258025 
L 81.96652 271.907169 
L 82.198915 278.05848 
L 82.198915 282.455725 
L 82.431309 281.730904 
L 82.663703 288.932722 
L 82.663703 283.524594 
L 82.896097 289.673972 
L 82.896097 294.481949 
L 83.128491 294.822131 
L 83.128491 290.198742 
L 83.360885 289.418835 
L 83.360885 294.618215 
L 83.593279 291.417407 
L 83.825673 293.259418 
L 84.058067 295.264755 
L 84.058067 294.132102 
L 84.290461 294.415265 
L 84.290461 284.333494 
L 84.522855 290.57275 
L 84.522855 295.076302 
L 84.75525 286.702208 
L 84.987644 276.825318 
L 84.987644 289.232315 
L 85.220038 281.377192 
L 85.452432 285.689391 
L 85.452432 288.600271 
L 85.91722 273.981122 
L 85.91722 276.526692 
L 86.149614 277.512448 
L 86.149614 272.668714 
L 86.614402 276.68422 
L 86.614402 271.608543 
L 86.846796 272.73733 
L 86.846796 276.44068 
L 87.07919 272.756659 
L 87.07919 275.017132 
L 87.311585 283.634767 
L 87.311585 282.477953 
L 87.776373 268.210584 
L 87.776373 282.964066 
L 88.008767 271.667495 
L 88.008767 271.907169 
L 88.241161 274.982341 
L 88.241161 277.097851 
L 88.473555 277.361686 
L 88.473555 275.086715 
L 88.705949 275.657874 
L 88.705949 269.747203 
L 88.938343 275.659807 
L 88.938343 281.479633 
L 89.403131 264.540092 
L 89.403131 265.16537 
L 89.635525 264.700519 
L 89.635525 275.895615 
L 89.86792 265.24655 
L 89.86792 269.820652 
L 90.100314 266.262266 
L 90.100314 258.228354 
L 90.332708 260.729468 
L 90.332708 273.849688 
L 90.565102 270.156969 
L 90.565102 265.474627 
L 90.797496 264.794262 
L 90.797496 260.760394 
L 91.02989 263.137806 
L 91.02989 259.751444 
L 91.262284 273.648671 
L 91.262284 264.44055 
L 91.494678 263.800775 
L 91.494678 270.655645 
L 91.727072 272.537279 
L 91.727072 269.773297 
L 91.959466 264.112931 
L 91.959466 272.189366 
L 92.19186 266.791868 
L 92.19186 272.806913 
L 92.424255 269.562616 
L 92.656649 272.50732 
L 92.656649 268.684133 
L 92.889043 273.862252 
L 92.889043 264.771068 
L 93.121437 265.959774 
L 93.121437 261.876618 
L 93.353831 269.016584 
L 93.353831 274.040074 
L 93.586225 259.266297 
L 93.586225 263.782413 
L 93.818619 269.002088 
L 93.818619 273.350045 
L 94.051013 282.986294 
L 94.051013 281.538585 
L 94.283407 266.476813 
L 94.515801 267.967044 
L 94.515801 266.331848 
L 94.748195 268.151631 
L 94.748195 273.554928 
L 94.98059 269.392524 
L 94.98059 259.072045 
L 95.212984 265.723966 
L 95.212984 275.416267 
L 95.445378 273.121968 
L 95.445378 267.904226 
L 95.677772 268.154531 
L 95.677772 276.877505 
L 95.910166 277.874859 
L 95.910166 259.60358 
L 96.14256 274.16571 
L 96.374954 277.461228 
L 96.374954 272.089824 
L 96.607348 270.358952 
L 96.607348 288.191472 
L 96.839742 273.279496 
L 96.839742 280.099575 
L 97.072136 270.366683 
L 97.072136 281.923223 
L 97.30453 279.604764 
L 97.30453 295.316942 
L 97.536925 276.782796 
L 97.536925 291.508252 
L 97.769319 286.095291 
L 97.769319 295.301479 
L 98.001713 290.51863 
L 98.001713 288.019448 
L 98.234107 282.193823 
L 98.234107 285.139494 
L 98.466501 283.991378 
L 98.466501 284.512283 
L 98.698895 286.994069 
L 98.698895 294.195886 
L 98.931289 287.240508 
L 98.931289 279.400848 
L 99.163683 291.179666 
L 99.163683 284.433036 
L 99.396077 288.68725 
L 99.396077 279.387318 
L 99.628471 279.498457 
L 99.628471 278.873178 
L 99.860865 279.541946 
L 99.860865 275.940071 
L 100.09326 282.616152 
L 100.325654 267.36206 
L 100.325654 272.815611 
L 100.558048 266.462316 
L 100.558048 279.076128 
L 100.790442 269.83998 
L 100.790442 271.418156 
L 101.022836 265.201128 
L 101.022836 262.141419 
L 101.25523 267.262518 
L 101.25523 262.923259 
L 101.487624 259.289491 
L 101.487624 267.24319 
L 101.720018 244.605592 
L 101.952412 252.035486 
L 101.952412 251.329994 
L 102.184806 239.383984 
L 102.184806 247.984222 
L 102.4172 240.528234 
L 102.4172 250.174147 
L 102.649595 240.598783 
L 102.649595 245.200911 
L 102.881989 235.554998 
L 102.881989 246.219526 
L 103.114383 237.64828 
L 103.114383 239.055398 
L 103.346777 239.846903 
L 103.346777 234.506424 
L 103.579171 236.100063 
L 103.579171 237.833834 
L 103.811565 227.555877 
L 103.811565 229.517725 
L 104.043959 224.223635 
L 104.043959 245.67736 
L 104.276353 234.003882 
L 104.276353 235.855557 
L 104.508747 238.417556 
L 104.508747 229.130188 
L 104.741141 221.093377 
L 104.741141 236.949553 
L 104.973535 226.743112 
L 104.973535 232.488523 
L 105.20593 227.521086 
L 105.20593 229.348601 
L 105.438324 233.737148 
L 105.438324 230.886187 
L 105.670718 224.322211 
L 105.670718 238.92783 
L 105.903112 229.250991 
L 105.903112 234.694877 
L 106.135506 232.215024 
L 106.3679 223.967532 
L 106.3679 228.65084 
L 106.600294 231.267926 
L 106.832688 239.730931 
L 106.832688 235.285365 
L 107.065082 227.155776 
L 107.065082 230.703532 
L 107.297476 228.16376 
L 107.297476 231.968585 
L 107.529871 230.349819 
L 107.529871 231.729878 
L 107.762265 235.712526 
L 107.762265 230.403939 
L 107.994659 236.529157 
L 107.994659 236.123257 
L 108.227053 234.979974 
L 108.227053 238.953924 
L 108.459447 237.7024 
L 108.459447 230.944172 
L 108.691841 243.2265 
L 108.691841 236.694416 
L 108.924235 246.096789 
L 108.924235 257.930694 
L 109.156629 252.941995 
L 109.156629 254.529836 
L 109.389023 252.287724 
L 109.389023 261.235876 
L 109.621417 266.322184 
L 109.621417 272.156507 
L 109.853811 269.304579 
L 109.853811 258.598496 
L 110.086206 278.704053 
L 110.086206 272.363323 
L 110.3186 275.454924 
L 110.3186 277.684472 
L 110.550994 286.921587 
L 110.550994 281.699979 
L 110.783388 289.739689 
L 110.783388 295.189374 
L 111.015782 292.312319 
L 111.015782 292.691159 
L 111.248176 286.661618 
L 111.248176 294.605652 
L 111.48057 284.796412 
L 111.48057 285.765739 
L 111.712964 287.080081 
L 111.712964 285.466147 
L 111.945358 280.251304 
L 111.945358 280.317021 
L 112.177752 281.089197 
L 112.177752 283.730443 
L 112.410146 275.266471 
L 112.642541 272.622325 
L 112.642541 283.492702 
L 112.874935 271.719682 
L 112.874935 280.612748 
L 113.107329 269.20697 
L 113.339723 271.973852 
L 113.339723 271.624972 
L 113.572117 272.215459 
L 113.572117 276.955786 
L 113.804511 269.294915 
L 113.804511 270.212055 
L 114.036905 266.284494 
L 114.036905 269.722076 
L 114.269299 265.620558 
L 114.501693 265.226255 
L 114.501693 262.948386 
L 114.734087 275.326389 
L 114.734087 271.788298 
L 114.966481 271.005492 
L 114.966481 269.530724 
L 115.198876 267.029609 
L 115.198876 263.786278 
L 115.663664 280.037723 
L 115.663664 273.913472 
L 115.896058 269.885402 
L 115.896058 275.755483 
L 116.128452 272.724766 
L 116.128452 269.319076 
L 116.360846 281.966713 
L 116.59324 274.972677 
L 116.825634 276.865908 
L 116.825634 288.682417 
L 117.058028 282.816202 
L 117.058028 290.796961 
L 117.290422 283.14962 
L 117.290422 286.721536 
L 117.522816 292.05235 
L 117.522816 289.624684 
L 117.755211 294.061553 
L 117.755211 291.074326 
L 117.987605 293.302907 
L 118.219999 286.713805 
L 118.219999 290.155253 
L 118.452393 286.905157 
L 118.452393 295.488 
L 118.684787 287.548798 
L 118.684787 292.22824 
L 118.917181 289.23618 
L 119.149575 293.506824 
L 119.149575 291.01634 
L 119.381969 286.887762 
L 119.381969 293.977474 
L 119.614363 287.286896 
L 119.846757 287.880283 
L 119.846757 284.651448 
L 120.079151 284.752923 
L 120.079151 285.364672 
L 120.311546 289.839231 
L 120.54394 280.559594 
L 120.54394 286.578505 
L 120.776334 285.530897 
L 120.776334 273.472781 
L 121.008728 279.759392 
L 121.008728 283.143821 
L 121.241122 286.55821 
L 121.241122 284.358621 
L 121.473516 283.47144 
L 121.473516 279.528416 
L 121.70591 288.985876 
L 121.70591 282.573629 
L 121.938304 287.848391 
L 121.938304 280.645606 
L 122.170698 289.307696 
L 122.170698 284.676575 
L 122.403092 279.168905 
L 122.403092 294.442325 
L 122.635486 292.555859 
L 122.635486 286.596867 
L 122.867881 293.696243 
L 122.867881 284.407909 
L 123.100275 293.162775 
L 123.332669 295.11206 
L 123.332669 294.442325 
L 123.565063 288.547118 
L 123.565063 293.68368 
L 123.797457 294.677167 
L 123.797457 293.583171 
L 124.029851 285.93873 
L 124.029851 293.03714 
L 124.262245 277.372316 
L 124.262245 286.010245 
L 124.494639 278.771703 
L 124.494639 290.863644 
L 124.959427 270.469125 
L 124.959427 268.512109 
L 125.191821 283.090668 
L 125.424216 273.646738 
L 125.424216 274.318405 
L 125.65661 281.515391 
L 125.65661 267.766027 
L 126.121398 280.22811 
L 126.121398 273.448621 
L 126.353792 276.513162 
L 126.353792 271.831787 
L 126.586186 276.293783 
L 126.586186 275.094447 
L 126.81858 268.37391 
L 126.81858 272.177768 
L 127.050974 275.671404 
L 127.050974 263.143604 
L 127.283368 276.537323 
L 127.283368 268.618416 
L 127.515762 270.274873 
L 127.515762 275.319624 
L 127.980551 264.30525 
L 127.980551 269.644762 
L 128.212945 258.884558 
L 128.212945 270.460427 
L 128.445339 269.93469 
L 128.445339 274.557113 
L 128.677733 267.937085 
L 128.677733 268.308193 
L 128.910127 272.914186 
L 128.910127 267.092427 
L 129.142521 270.342523 
L 129.374915 280.10344 
L 129.374915 268.077217 
L 129.607309 272.610728 
L 129.607309 264.62707 
L 129.839703 275.281934 
L 129.839703 274.259453 
L 130.072097 273.770441 
L 130.072097 280.356644 
L 130.304491 277.573333 
L 130.304491 276.170081 
L 130.536886 278.122264 
L 130.536886 279.47333 
L 130.76928 281.098861 
L 130.76928 287.271433 
L 131.001674 282.591025 
L 131.001674 286.417111 
L 131.234068 284.083189 
L 131.234068 286.712838 
L 131.466462 286.803682 
L 131.466462 290.469342 
L 131.698856 280.654304 
L 131.698856 282.419001 
L 131.93125 295.131388 
L 131.93125 282.57073 
L 132.163644 287.85129 
L 132.163644 290.836584 
L 132.396038 284.520014 
L 132.396038 293.248787 
L 132.628432 291.74406 
L 132.628432 293.797718 
L 132.860826 286.700275 
L 132.860826 293.517454 
L 133.093221 285.161722 
L 133.093221 288.865072 
L 133.325615 295.140086 
L 133.325615 290.378498 
L 133.558009 285.581152 
L 133.790403 288.493964 
L 133.790403 295.430014 
L 134.022797 295.488 
L 134.022797 295.488 
L 134.255191 291.467662 
L 134.255191 293.120253 
L 134.487585 295.358499 
L 134.487585 293.615063 
L 134.719979 287.243407 
L 134.719979 283.599975 
L 134.952373 278.658631 
L 134.952373 289.017768 
L 135.184767 289.957135 
L 135.184767 281.18294 
L 135.417161 286.917721 
L 135.417161 293.107689 
L 135.649556 286.261517 
L 135.649556 290.244164 
L 135.88195 285.358873 
L 135.88195 288.008818 
L 136.114344 288.521024 
L 136.114344 284.02327 
L 136.346738 279.491692 
L 136.346738 284.261012 
L 136.579132 287.290762 
L 136.579132 294.655906 
L 136.811526 283.562285 
L 136.811526 276.546987 
L 137.04392 281.108525 
L 137.04392 284.586698 
L 137.508708 271.375634 
L 137.508708 279.249119 
L 137.741102 273.141297 
L 137.741102 266.758043 
L 137.973496 279.64632 
L 137.973496 263.094316 
L 138.205891 257.514164 
L 138.205891 260.296509 
L 138.670679 255.255623 
L 138.670679 250.905733 
L 138.903073 246.457267 
L 138.903073 241.066534 
L 139.135467 248.777659 
L 139.135467 255.585175 
L 139.367861 243.541555 
L 139.367861 244.481889 
L 139.600255 245.813626 
L 139.600255 237.466592 
L 139.832649 243.973548 
L 139.832649 241.566177 
L 140.065043 239.027372 
L 140.065043 244.994095 
L 140.297437 228.532936 
L 140.297437 233.170821 
L 140.529831 226.649368 
L 140.529831 231.064976 
L 140.762226 233.515836 
L 140.762226 231.984048 
L 140.99462 232.13771 
L 140.99462 233.055816 
L 141.227014 233.669498 
L 141.227014 228.198552 
L 141.459408 237.796143 
L 141.459408 226.429989 
L 141.691802 228.129935 
L 141.691802 228.0043 
L 141.924196 227.038839 
L 141.924196 231.886439 
L 142.15659 232.805512 
L 142.15659 233.524534 
L 142.388984 228.128969 
L 142.388984 221.475116 
L 142.621378 234.247422 
L 142.853772 232.633488 
L 142.853772 238.428187 
L 143.086166 221.402634 
L 143.086166 246.273645 
L 143.318561 249.240578 
L 143.318561 230.381712 
L 143.550955 237.801942 
L 143.550955 246.363523 
L 143.783349 231.971485 
L 143.783349 235.175192 
L 144.015743 241.381589 
L 144.248137 257.505466 
L 144.248137 257.371133 
L 144.480531 255.606436 
L 144.480531 245.212508 
L 144.712925 258.552107 
L 144.712925 256.406638 
L 144.945319 263.191925 
L 144.945319 268.50631 
L 145.177713 255.126121 
L 145.177713 261.784807 
L 145.410107 276.908431 
L 145.410107 267.590137 
L 145.642501 276.525726 
L 145.642501 271.7796 
L 145.874896 279.252018 
L 145.874896 275.061588 
L 146.10729 275.667538 
L 146.10729 283.177646 
L 146.339684 277.231218 
L 146.572078 279.950745 
L 146.572078 284.714266 
L 146.804472 281.301811 
L 146.804472 289.46619 
L 147.036866 279.104154 
L 147.036866 295.026048 
L 147.26926 277.123944 
L 147.26926 288.222398 
L 147.501654 286.989236 
L 147.501654 294.926506 
L 147.734048 281.42648 
L 147.734048 290.878141 
L 147.966442 291.402911 
L 147.966442 294.237443 
L 148.198836 293.232358 
L 148.198836 288.155714 
L 148.431231 295.488 
L 148.431231 295.488 
L 148.663625 287.157395 
L 148.896019 295.488 
L 148.896019 295.488 
L 149.128413 293.72427 
L 149.128413 293.894361 
L 149.360807 295.488 
L 149.360807 281.744434 
L 149.593201 288.557748 
L 149.593201 285.046717 
L 149.825595 274.312607 
L 149.825595 285.120166 
L 150.057989 283.614472 
L 150.057989 285.610144 
L 150.290383 276.435848 
L 150.290383 278.161888 
L 150.522777 287.485014 
L 150.522777 286.023775 
L 150.755171 282.538838 
L 150.987566 283.998143 
L 150.987566 289.235214 
L 151.21996 280.431059 
L 151.21996 287.964362 
L 151.452354 293.328035 
L 151.684748 287.095544 
L 151.684748 295.235762 
L 151.917142 294.39497 
L 151.917142 294.742884 
L 152.149536 295.008652 
L 152.149536 293.182104 
L 152.38193 291.748892 
L 152.38193 294.475184 
L 152.614324 293.311605 
L 152.614324 294.701328 
L 152.846718 293.863435 
L 152.846718 294.311858 
L 153.079112 288.854442 
L 153.079112 286.027641 
L 153.311506 285.067012 
L 153.311506 287.21828 
L 153.543901 279.077094 
L 153.776295 279.691742 
L 153.776295 278.883809 
L 154.008689 275.210418 
L 154.008689 275.798972 
L 154.241083 273.688295 
L 154.241083 275.639512 
L 154.473477 269.296848 
L 154.473477 272.049234 
L 155.170659 261.565428 
L 155.170659 263.302098 
L 157.4946 228.377341 
L 157.726994 228.448856 
L 157.726994 224.761936 
L 157.959388 225.840469 
L 157.959388 227.047537 
L 158.424176 229.711011 
L 158.424176 229.529322 
L 158.656571 227.764626 
L 158.888965 233.030689 
L 158.888965 230.369148 
L 159.121359 232.860598 
L 159.121359 229.719709 
L 159.353753 237.489786 
L 159.353753 236.406421 
L 159.586147 241.24339 
L 159.818541 236.280785 
L 160.050935 239.432305 
L 160.283329 238.273559 
L 160.283329 239.441003 
L 160.515723 244.146539 
L 160.515723 242.589624 
L 160.748117 239.02254 
L 160.748117 239.812111 
L 160.980511 238.160487 
L 160.980511 235.261204 
L 161.212906 237.382512 
L 161.212906 243.700049 
L 161.4453 237.356419 
L 161.4453 245.880309 
L 161.677694 248.998971 
L 161.910088 237.388311 
L 161.910088 240.869383 
L 162.142482 248.529287 
L 162.142482 256.17083 
L 162.374876 258.087255 
L 162.374876 250.303648 
L 162.60727 257.70455 
L 162.60727 261.80027 
L 162.839664 260.580638 
L 162.839664 261.880483 
L 163.072058 265.723966 
L 163.072058 274.245923 
L 163.304452 283.947889 
L 163.304452 279.33803 
L 163.536846 285.389799 
L 163.769241 282.74372 
L 163.769241 289.66914 
L 164.001635 284.705568 
L 164.234029 285.119199 
L 164.234029 281.622665 
L 164.466423 294.843393 
L 164.466423 290.183279 
L 164.698817 292.048484 
L 164.698817 288.322906 
L 164.931211 282.822001 
L 164.931211 288.872804 
L 165.163605 295.488 
L 165.163605 286.17937 
L 165.395999 282.754351 
L 165.395999 284.949108 
L 165.628393 282.053691 
L 165.628393 283.685987 
L 165.860787 283.973983 
L 165.860787 283.48497 
L 166.093181 284.748091 
L 166.093181 289.079619 
L 166.325576 283.592244 
L 166.325576 294.267402 
L 166.55797 292.280427 
L 166.55797 290.51573 
L 166.790364 287.352613 
L 166.790364 293.067099 
L 167.022758 288.326772 
L 167.487546 292.541363 
L 167.487546 287.004699 
L 167.71994 281.10176 
L 167.71994 281.976377 
L 167.952334 286.613296 
L 167.952334 279.638589 
L 168.184728 277.853597 
L 168.184728 282.684768 
L 168.417122 279.539047 
L 168.417122 268.583625 
L 168.649516 271.134027 
L 168.649516 268.246341 
L 168.881911 262.967714 
L 168.881911 277.239916 
L 169.114305 271.357272 
L 169.114305 263.410338 
L 169.346699 255.328105 
L 169.346699 255.934055 
L 169.579093 251.345457 
L 169.579093 258.753124 
L 169.811487 243.162715 
L 169.811487 248.944851 
L 170.043881 248.557314 
L 170.043881 240.584287 
L 170.276275 243.257425 
L 170.276275 236.994975 
L 170.508669 236.556217 
L 170.508669 229.282883 
L 170.741063 235.213849 
L 170.741063 233.816395 
L 170.973457 237.570966 
L 171.205851 234.201999 
L 171.438246 236.435413 
L 171.438246 219.614743 
L 171.67064 235.780176 
L 171.67064 233.624076 
L 171.903034 232.087456 
L 171.903034 230.689035 
L 172.135428 245.983717 
L 172.135428 244.513781 
L 172.367822 241.095527 
L 172.367822 239.191665 
L 172.600216 253.792452 
L 172.83261 247.271965 
L 172.83261 239.180068 
L 173.065004 247.588953 
L 173.065004 255.466304 
L 173.297398 256.677238 
L 173.297398 253.603998 
L 173.529792 260.799051 
L 173.529792 265.059063 
L 173.762187 262.074735 
L 173.762187 263.33689 
L 173.994581 266.356976 
L 173.994581 263.113645 
L 174.226975 270.731993 
L 174.226975 275.084782 
L 174.459369 279.41921 
L 174.459369 292.55006 
L 174.691763 285.096005 
L 174.691763 276.737373 
L 174.924157 276.005788 
L 174.924157 285.982219 
L 175.156551 292.963691 
L 175.156551 283.279121 
L 175.388945 274.549382 
L 175.388945 290.118529 
L 175.621339 291.624223 
L 175.621339 293.952347 
L 175.853733 293.368624 
L 175.853733 295.322741 
L 176.086127 291.495688 
L 176.086127 291.576868 
L 176.318522 285.594682 
L 176.318522 293.834443 
L 176.550916 291.642585 
L 176.550916 283.484004 
L 176.78331 290.504133 
L 176.78331 289.942639 
L 177.015704 284.830237 
L 177.015704 289.369547 
L 177.248098 282.755318 
L 177.248098 288.418583 
L 177.480492 283.479172 
L 177.480492 276.328575 
L 177.712886 283.439548 
L 177.712886 274.285547 
L 177.94528 290.690654 
L 177.94528 275.254874 
L 178.177674 266.015827 
L 178.177674 272.708337 
L 178.410068 282.241178 
L 178.410068 268.219281 
L 178.642462 265.847668 
L 178.642462 258.022505 
L 178.874857 262.219699 
L 178.874857 270.055494 
L 179.339645 252.031621 
L 179.339645 253.167173 
L 179.572039 254.618747 
L 179.572039 264.404792 
L 179.804433 254.436092 
L 179.804433 247.259402 
L 180.036827 255.572611 
L 180.036827 243.675888 
L 180.269221 236.050775 
L 180.269221 242.959766 
L 180.501615 236.821984 
L 180.501615 230.748954 
L 180.734009 228.710758 
L 180.734009 241.347764 
L 180.966403 233.490709 
L 180.966403 234.824379 
L 181.198797 231.767569 
L 181.198797 213.167705 
L 181.431192 212.525997 
L 181.431192 224.131825 
L 181.663586 223.022366 
L 181.663586 214.3999 
L 181.89598 207.671631 
L 181.89598 199.293671 
L 182.128374 209.712726 
L 182.128374 205.773568 
L 182.360768 192.835036 
L 182.360768 195.572925 
L 182.593162 191.828019 
L 182.593162 203.167113 
L 183.05795 182.004283 
L 183.05795 188.169124 
L 183.290344 194.640323 
L 183.290344 186.430521 
L 183.522738 181.776206 
L 183.522738 184.880371 
L 183.755132 177.875705 
L 183.755132 187.145678 
L 183.987527 183.947769 
L 183.987527 180.501488 
L 184.219921 178.473924 
L 184.219921 171.648046 
L 184.452315 176.649308 
L 184.452315 176.346817 
L 184.684709 169.651407 
L 184.684709 174.81213 
L 184.917103 174.248702 
L 184.917103 175.134916 
L 185.149497 178.741624 
L 185.149497 174.987053 
L 185.381891 174.653636 
L 185.381891 171.36295 
L 185.614285 183.819234 
L 185.614285 181.871883 
L 185.846679 172.868644 
L 185.846679 176.000836 
L 186.079073 172.013356 
L 186.079073 169.416565 
L 186.311467 179.729313 
L 186.543862 162.313323 
L 186.543862 168.995203 
L 186.776256 167.410261 
L 186.776256 171.058525 
L 187.00865 154.203063 
L 187.00865 156.291513 
L 187.473438 166.131678 
L 187.473438 161.145878 
L 187.705832 151.231298 
L 187.938226 150.462989 
L 187.938226 155.003265 
L 188.17062 139.911533 
L 188.635408 141.009395 
L 188.635408 140.713668 
L 188.867802 131.548069 
L 189.100197 132.911699 
L 189.100197 132.820854 
L 189.332591 126.235617 
L 189.332591 126.560337 
L 189.564985 133.033468 
L 189.797379 129.515672 
L 189.797379 137.972879 
L 190.029773 140.340627 
L 190.029773 139.654463 
L 190.262167 149.390254 
L 190.262167 148.89641 
L 190.494561 152.334959 
L 190.494561 151.836282 
L 190.726955 163.874103 
L 190.726955 162.344248 
L 190.959349 165.833052 
L 190.959349 165.329543 
L 191.191743 177.808055 
L 191.191743 173.443668 
L 191.424137 182.992939 
L 191.424137 182.523255 
L 191.656532 183.486783 
L 191.656532 185.413839 
L 191.888926 187.037438 
L 191.888926 186.987183 
L 192.12132 185.809108 
L 192.12132 180.527582 
L 192.353714 184.152652 
L 192.353714 188.823396 
L 192.586108 191.411489 
L 192.586108 188.224211 
L 192.818502 185.318163 
L 192.818502 182.952349 
L 193.050896 187.298373 
L 193.050896 191.369932 
L 193.28329 181.063949 
L 193.28329 189.217698 
L 193.515684 192.830204 
L 193.515684 188.758645 
L 193.748078 193.400396 
L 193.980472 204.151902 
L 194.212867 206.371786 
L 194.212867 208.101692 
L 194.445261 209.157997 
L 194.445261 213.755293 
L 194.677655 218.764286 
L 194.910049 225.854965 
L 194.910049 225.244183 
L 195.374837 253.563408 
L 195.374837 248.386256 
L 196.072019 285.913603 
L 196.304413 287.91894 
L 196.304413 290.823054 
L 196.536807 289.308663 
L 196.536807 290.384296 
L 196.769202 295.488 
L 196.769202 287.05592 
L 197.001596 278.164787 
L 197.001596 281.681617 
L 197.23399 278.480809 
L 197.23399 271.275125 
L 197.466384 272.957675 
L 197.466384 272.521817 
L 197.698778 259.607446 
L 197.698778 261.422397 
L 197.931172 252.105069 
L 198.163566 241.16511 
L 198.163566 252.550592 
L 198.860748 224.131825 
L 199.093142 228.629578 
L 199.093142 224.558019 
L 199.557931 204.022401 
L 199.557931 207.134298 
L 199.790325 200.630241 
L 200.022719 199.135177 
L 200.022719 186.205344 
L 200.255113 186.364804 
L 200.255113 185.661245 
L 200.487507 185.076556 
L 200.487507 185.966636 
L 200.719901 172.281056 
L 200.952295 180.212527 
L 200.952295 179.853982 
L 201.184689 179.285723 
L 201.184689 179.715783 
L 201.417083 172.521696 
L 201.417083 177.126724 
L 201.881872 185.279506 
L 201.881872 185.124878 
L 202.114266 181.379005 
L 202.114266 182.300976 
L 202.34666 187.468464 
L 202.34666 187.127315 
L 202.579054 187.205596 
L 202.579054 188.140131 
L 203.276236 173.273577 
L 203.276236 173.621491 
L 204.438207 104.71231 
L 204.670601 81.417542 
L 204.670601 81.931681 
L 204.902995 78.518259 
L 204.902995 81.535446 
L 205.135389 61.975919 
L 205.135389 65.474387 
L 205.367783 64.002518 
L 205.367783 62.418543 
L 205.600177 53.568 
L 205.600177 63.915539 
L 205.832571 56.973691 
L 206.064965 64.43741 
L 206.064965 60.413206 
L 206.297359 61.798097 
L 206.297359 61.578718 
L 206.529753 73.730577 
L 206.762147 74.747259 
L 206.762147 78.314343 
L 206.994542 87.811426 
L 206.994542 85.137321 
L 207.226936 90.338634 
L 207.226936 95.126316 
L 207.45933 102.336831 
L 207.45933 92.647429 
L 207.691724 125.562017 
L 207.691724 107.151573 
L 207.924118 102.739832 
L 207.924118 115.950896 
L 208.388906 151.02255 
L 208.388906 145.683038 
L 208.853694 160.300254 
L 208.853694 171.383245 
L 209.086088 164.242312 
L 209.086088 167.675063 
L 209.318482 166.137476 
L 209.318482 157.595224 
L 209.550877 174.740614 
L 209.783271 175.696411 
L 209.783271 178.794777 
L 210.015665 177.592542 
L 210.015665 172.998145 
L 210.248059 184.337239 
L 210.248059 173.367321 
L 210.480453 161.435807 
L 210.712847 171.180295 
L 210.945241 164.794142 
L 210.945241 169.078315 
L 211.177635 163.746535 
L 211.177635 174.009995 
L 211.410029 167.638338 
L 211.410029 179.168785 
L 211.642423 187.178536 
L 211.642423 178.937809 
L 211.874817 186.766838 
L 211.874817 199.87836 
L 212.107212 203.799156 
L 212.107212 209.743652 
L 212.339606 208.609066 
L 212.339606 205.968786 
L 212.804394 228.24494 
L 212.804394 234.086028 
L 213.036788 231.687355 
L 213.036788 240.98922 
L 213.269182 246.097756 
L 213.269182 241.360328 
L 213.501576 257.792495 
L 213.501576 253.681312 
L 213.73397 261.940402 
L 213.73397 254.933802 
L 213.966364 267.317605 
L 213.966364 260.881197 
L 214.198758 286.769857 
L 214.198758 285.263197 
L 214.431152 294.708093 
L 214.663547 290.865577 
L 214.663547 292.411861 
L 214.895941 283.31198 
L 214.895941 295.488 
L 215.128335 279.857968 
L 215.128335 268.250207 
L 215.360729 268.256972 
L 215.360729 263.664509 
L 215.593123 260.15541 
L 215.593123 262.812119 
L 216.057911 248.146582 
L 216.057911 250.556852 
L 216.290305 235.535669 
L 216.290305 243.353102 
L 216.522699 230.558568 
L 216.522699 240.86745 
L 216.987487 208.415781 
L 217.219882 211.417504 
L 217.452276 206.345693 
L 217.452276 198.92063 
L 217.68467 190.911846 
L 217.917064 177.810954 
L 217.917064 187.291608 
L 218.149458 173.907554 
L 218.149458 161.617495 
L 218.381852 173.810911 
L 218.84664 157.592324 
L 218.84664 159.193695 
L 219.079034 154.929817 
L 219.079034 155.099908 
L 219.311428 140.428572 
L 219.543822 140.011075 
L 219.543822 149.604801 
L 219.776217 144.341637 
L 219.776217 146.341175 
L 220.008611 146.554756 
L 220.008611 145.63375 
L 220.241005 146.369202 
L 220.241005 150.474586 
L 220.473399 146.042549 
L 220.473399 130.813584 
L 220.705793 154.302605 
L 221.170581 138.714129 
L 221.402975 140.873128 
L 221.402975 139.275624 
L 221.635369 132.207173 
L 221.635369 123.625297 
L 221.867763 136.432394 
L 222.100157 137.428781 
L 222.100157 135.054268 
L 222.79734 98.960134 
L 222.79734 107.896689 
L 223.029734 109.215862 
L 223.029734 106.217038 
L 223.262128 93.65638 
L 223.726916 109.389819 
L 223.95931 110.61235 
L 223.95931 108.061948 
L 224.191704 119.360452 
L 224.191704 119.262843 
L 224.424098 117.854758 
L 224.424098 120.273726 
L 224.888887 147.085324 
L 224.888887 143.205118 
L 225.353675 160.889775 
L 225.353675 162.692162 
L 225.586069 162.569426 
L 225.586069 169.601153 
L 225.818463 169.460054 
L 225.818463 171.259542 
L 226.050857 173.828306 
L 226.283251 167.780403 
L 226.283251 168.050036 
L 226.515645 167.101005 
L 226.748039 161.497658 
L 226.980433 151.114361 
L 226.980433 151.14432 
L 227.212827 147.115284 
L 227.212827 147.145243 
L 227.445222 133.32243 
L 227.445222 134.054016 
L 227.677616 132.515463 
L 227.677616 132.774466 
L 227.91001 131.963633 
L 227.91001 132.053511 
L 228.142404 123.238726 
L 228.374798 129.178389 
L 228.607192 120.615841 
L 228.607192 122.518737 
L 229.07198 139.42542 
L 229.304374 139.389662 
L 229.304374 142.172973 
L 229.536768 151.897167 
L 229.536768 149.808717 
L 229.769162 147.620725 
L 229.769162 150.789641 
L 230.001557 167.473079 
L 230.001557 162.877716 
L 230.466345 175.094327 
L 230.466345 171.074955 
L 230.698739 183.31186 
L 230.698739 181.302657 
L 230.931133 180.597165 
L 230.931133 186.721416 
L 231.163527 186.39573 
L 231.163527 189.954116 
L 231.395921 190.606454 
L 231.395921 199.696672 
L 231.628315 195.25787 
L 231.628315 195.858988 
L 231.860709 203.217367 
L 231.860709 199.902521 
L 232.093103 194.126183 
L 232.093103 197.509646 
L 232.790286 217.909964 
L 232.790286 213.301072 
L 233.02268 220.661384 
L 233.02268 216.185858 
L 233.255074 228.979425 
L 233.255074 222.794289 
L 233.487468 237.251078 
L 233.719862 238.056112 
L 233.719862 233.95846 
L 233.952256 239.112418 
L 234.18465 244.971868 
L 234.18465 249.749885 
L 234.417044 250.663159 
L 234.417044 257.483238 
L 234.649438 260.558411 
L 234.649438 267.489629 
L 234.881832 262.398488 
L 234.881832 268.640644 
L 235.114227 274.633461 
L 235.114227 268.853258 
L 235.346621 268.484083 
L 235.346621 272.866831 
L 235.579015 274.35513 
L 235.579015 280.308323 
L 235.811409 269.928892 
L 236.043803 282.920577 
L 236.276197 287.795237 
L 236.276197 282.192857 
L 236.508591 285.55989 
L 236.508591 295.488 
L 236.740985 288.74137 
L 236.740985 283.640565 
L 236.973379 295.488 
L 236.973379 295.488 
L 237.205773 289.654644 
L 237.205773 281.473835 
L 237.438168 295.488 
L 237.438168 295.488 
L 237.670562 291.433837 
L 237.670562 293.596701 
L 237.902956 295.488 
L 237.902956 284.326729 
L 238.13535 293.495226 
L 238.367744 284.670777 
L 238.367744 295.488 
L 238.600138 289.228449 
L 238.600138 295.158448 
L 238.832532 282.815236 
L 238.832532 286.261517 
L 239.064926 294.92264 
L 239.29732 291.32753 
L 239.529714 294.445225 
L 239.529714 293.585104 
L 239.762108 286.67708 
L 239.762108 291.70347 
L 239.994503 293.841208 
L 239.994503 288.438878 
L 240.226897 284.932679 
L 240.226897 293.1995 
L 240.459291 290.629769 
L 240.459291 294.4114 
L 240.691685 294.259671 
L 240.691685 294.278999 
L 240.924079 291.653216 
L 240.924079 285.039952 
L 241.156473 292.58002 
L 241.156473 292.008861 
L 241.388867 291.733429 
L 241.388867 286.208363 
L 241.621261 292.774272 
L 241.621261 288.089031 
L 241.853655 289.468123 
L 241.853655 286.656785 
L 242.086049 282.751452 
L 242.086049 276.347903 
L 242.318443 294.781541 
L 242.318443 285.620775 
L 242.550838 291.441568 
L 242.550838 290.143656 
L 242.783232 283.677289 
L 242.783232 285.060247 
L 243.015626 289.482619 
L 243.015626 286.311771 
L 243.24802 285.920368 
L 243.24802 285.164621 
L 243.480414 286.82591 
L 243.480414 293.797718 
L 243.712808 287.852256 
L 243.712808 281.918391 
L 243.945202 281.939653 
L 243.945202 288.68725 
L 244.177596 279.964275 
L 244.177596 281.903895 
L 244.40999 275.736155 
L 244.40999 285.216808 
L 244.642384 277.137474 
L 244.642384 283.689853 
L 244.874778 275.251008 
L 244.874778 276.488035 
L 245.107173 276.952887 
L 245.107173 282.347485 
L 245.339567 269.241762 
L 245.339567 270.195626 
L 245.571961 270.443031 
L 245.571961 256.982629 
L 245.804355 270.254578 
L 245.804355 258.135577 
L 246.036749 263.189026 
L 246.036749 262.25739 
L 246.269143 257.431051 
L 246.269143 259.042086 
L 246.501537 258.104651 
L 246.501537 264.388363 
L 246.733931 262.09793 
L 246.733931 256.516811 
L 246.966325 260.77489 
L 247.198719 251.58803 
L 247.198719 261.090912 
L 247.431113 251.766819 
L 247.431113 258.684508 
L 247.663508 260.323569 
L 247.895902 258.372351 
L 247.895902 247.715555 
L 248.128296 253.25995 
L 248.128296 250.095866 
L 248.36069 249.090782 
L 248.36069 253.85237 
L 248.593084 242.94237 
L 248.593084 247.964894 
L 248.825478 244.977666 
L 248.825478 247.212047 
L 249.057872 238.047415 
L 249.52266 245.891907 
L 249.52266 242.307427 
L 249.755054 239.786018 
L 249.755054 241.128385 
L 249.987448 238.273559 
L 249.987448 234.489995 
L 250.219843 233.415327 
L 250.219843 239.757025 
L 250.452237 232.413142 
L 250.452237 238.43012 
L 250.684631 243.725176 
L 250.684631 234.278347 
L 250.917025 241.657021 
L 250.917025 235.485415 
L 251.149419 223.926942 
L 251.381813 239.867198 
L 251.381813 237.483987 
L 251.614207 240.393901 
L 251.614207 235.690298 
L 251.846601 231.459278 
L 251.846601 236.719543 
L 252.078995 239.892325 
L 252.078995 236.58521 
L 252.311389 233.147627 
L 252.311389 242.464955 
L 252.543783 240.489577 
L 252.543783 243.200406 
L 252.776178 248.442309 
L 252.776178 232.330996 
L 253.008572 246.47273 
L 253.008572 235.670003 
L 253.240966 238.707485 
L 253.240966 246.799382 
L 253.47336 255.302978 
L 253.47336 247.60345 
L 253.705754 251.416006 
L 253.705754 251.086454 
L 253.938148 243.728075 
L 253.938148 244.691604 
L 254.170542 251.873126 
L 254.170542 244.008339 
L 254.402936 240.57269 
L 254.402936 244.88199 
L 254.63533 253.787619 
L 254.63533 241.45987 
L 254.867724 248.785391 
L 254.867724 232.583233 
L 255.100118 245.992415 
L 255.332513 240.075946 
L 255.332513 241.499494 
L 255.564907 244.079855 
L 255.564907 247.521303 
L 255.797301 254.432227 
L 255.797301 245.039518 
L 256.029695 238.419489 
L 256.029695 246.892159 
L 256.262089 246.085192 
L 256.262089 241.051071 
L 256.494483 242.665972 
L 256.494483 240.256668 
L 256.726877 250.617737 
L 256.726877 237.334191 
L 256.959271 235.028295 
L 256.959271 243.766733 
L 257.191665 242.966531 
L 257.191665 252.444285 
L 257.424059 232.704037 
L 257.424059 256.083851 
L 257.656453 244.657779 
L 257.656453 251.508783 
L 257.888848 246.288142 
L 257.888848 234.667818 
L 258.121242 245.32558 
L 258.121242 236.044977 
L 258.353636 237.392177 
L 258.353636 245.77207 
L 258.58603 247.409198 
L 258.58603 238.026153 
L 258.818424 245.554623 
L 258.818424 234.597268 
L 259.050818 237.178596 
L 259.050818 238.656264 
L 259.283212 237.236582 
L 259.283212 239.291207 
L 259.515606 231.953123 
L 259.515606 242.262971 
L 259.748 246.505588 
L 259.748 243.033214 
L 259.980394 246.086159 
L 259.980394 245.191247 
L 260.212788 246.893126 
L 260.212788 240.247004 
L 260.445183 251.486555 
L 260.445183 245.851317 
L 260.677577 240.145529 
L 260.677577 229.077034 
L 260.909971 244.375582 
L 261.142365 243.604373 
L 261.142365 241.278182 
L 261.374759 241.18927 
L 261.374759 245.545926 
L 261.607153 243.454576 
L 261.607153 237.246246 
L 261.839547 241.71694 
L 261.839547 240.103006 
L 262.071941 238.795429 
L 262.071941 237.413438 
L 262.304335 243.075737 
L 262.304335 246.434072 
L 262.536729 238.701686 
L 262.536729 238.975185 
L 262.769123 242.215616 
L 262.769123 246.004979 
L 263.001518 237.872491 
L 263.001518 240.70509 
L 263.233912 235.916442 
L 263.233912 244.443232 
L 263.466306 241.344865 
L 263.466306 252.30222 
L 263.6987 236.267255 
L 263.6987 245.6503 
L 263.931094 249.706396 
L 263.931094 243.920394 
L 264.163488 237.206623 
L 264.163488 248.922623 
L 264.395882 241.199901 
L 264.395882 249.890017 
L 264.628276 238.408858 
L 264.628276 246.465965 
L 264.86067 243.025483 
L 264.86067 244.722529 
L 265.093064 254.318188 
L 265.093064 244.515714 
L 265.325458 253.573072 
L 265.325458 245.892873 
L 265.557853 250.238898 
L 265.557853 244.268308 
L 265.790247 240.668366 
L 265.790247 229.032579 
L 266.255035 252.629839 
L 266.255035 240.6645 
L 266.487429 240.425793 
L 266.487429 241.126453 
L 266.719823 245.104268 
L 266.719823 241.686014 
L 266.952217 242.204986 
L 266.952217 235.547267 
L 267.184611 242.770346 
L 267.184611 235.891315 
L 267.417005 234.924887 
L 267.417005 240.740848 
L 267.649399 229.223931 
L 267.649399 238.522897 
L 267.881793 242.568362 
L 267.881793 242.421465 
L 268.114188 236.452809 
L 268.114188 238.001026 
L 268.346582 236.883836 
L 268.346582 234.990604 
L 268.578976 242.811902 
L 268.81137 233.16309 
L 269.043764 237.798076 
L 269.043764 242.884384 
L 269.276158 240.790136 
L 269.276158 233.255867 
L 269.508552 229.731306 
L 269.740946 224.024551 
L 269.740946 231.26406 
L 269.97334 240.247004 
L 270.205734 233.614412 
L 270.438128 227.607098 
L 270.438128 235.489281 
L 270.670523 232.392847 
L 270.902917 228.304859 
L 270.902917 231.29112 
L 271.135311 219.902738 
L 271.135311 228.122204 
L 271.367705 230.264774 
L 271.367705 231.31818 
L 271.600099 230.755719 
L 271.600099 229.567013 
L 271.832493 227.528818 
L 271.832493 241.115822 
L 272.064887 229.415284 
L 272.064887 230.574031 
L 272.297281 227.186702 
L 272.297281 232.858665 
L 272.529675 240.58622 
L 272.529675 236.540754 
L 272.762069 229.000687 
L 272.762069 235.873919 
L 272.994463 231.137458 
L 272.994463 242.114141 
L 273.226858 236.713745 
L 273.226858 239.372387 
L 273.459252 236.691517 
L 273.459252 231.386796 
L 273.691646 241.666686 
L 273.691646 247.772575 
L 273.92404 243.348269 
L 273.92404 240.537898 
L 274.156434 258.365586 
L 274.388828 250.681521 
L 274.388828 254.68833 
L 274.621222 255.232429 
L 274.621222 253.5953 
L 274.853616 249.813669 
L 274.853616 256.190158 
L 275.08601 257.416555 
L 275.08601 265.406977 
L 275.318404 256.367014 
L 275.550798 260.206631 
L 275.550798 267.794053 
L 275.783193 260.986538 
L 275.783193 266.453618 
L 276.015587 269.291049 
L 276.015587 257.672658 
L 276.247981 259.274995 
L 276.247981 265.223356 
L 276.480375 267.334034 
L 276.480375 256.254909 
L 276.712769 265.306469 
L 276.712769 269.986877 
L 276.945163 255.273985 
L 276.945163 261.90561 
L 277.177557 260.269449 
L 277.177557 250.706648 
L 277.642345 254.826529 
L 277.642345 254.118138 
L 277.874739 254.857455 
L 277.874739 253.692909 
L 278.107133 251.794846 
L 278.107133 254.760812 
L 278.571922 247.832493 
L 278.571922 254.68833 
L 278.804316 249.097547 
L 278.804316 249.726691 
L 279.03671 252.722616 
L 279.03671 248.53122 
L 279.269104 258.830438 
L 279.269104 249.721859 
L 279.501498 252.629839 
L 279.501498 256.263607 
L 279.733892 250.937625 
L 279.733892 257.081204 
L 279.966286 258.130745 
L 279.966286 259.323316 
L 280.19868 262.614968 
L 280.19868 255.496263 
L 280.663468 283.282021 
L 280.663468 282.245044 
L 280.895863 282.766915 
L 280.895863 280.460052 
L 281.128257 285.199413 
L 281.128257 293.741665 
L 281.360651 280.586654 
L 281.360651 285.379168 
L 281.593045 282.280802 
L 281.593045 285.315384 
L 281.825439 262.696148 
L 281.825439 267.770859 
L 282.290227 256.80384 
L 282.290227 247.6682 
L 282.755015 228.083547 
L 282.755015 235.209017 
L 283.452198 205.665328 
L 283.452198 210.005554 
L 283.684592 204.868025 
L 283.684592 200.046518 
L 283.916986 198.022819 
L 284.381774 179.125296 
L 284.381774 172.169917 
L 284.614168 168.99327 
L 284.614168 167.201513 
L 284.846562 177.090966 
L 284.846562 177.053275 
L 285.078956 154.224324 
L 285.31135 158.398325 
L 285.31135 162.018562 
L 285.543744 151.640097 
L 285.543744 140.381217 
L 285.776138 143.037926 
L 285.776138 139.722113 
L 286.008533 146.29672 
L 286.008533 136.021662 
L 286.240927 154.610895 
L 286.473321 161.235756 
L 286.473321 170.094031 
L 286.705715 177.161515 
L 286.705715 186.457581 
L 286.938109 187.250052 
L 286.938109 195.906343 
L 287.170503 206.601796 
L 287.170503 205.973618 
L 287.635291 251.258479 
L 287.635291 241.131285 
L 287.867685 285.839188 
L 287.867685 267.224827 
L 288.100079 285.125964 
L 288.564868 242.20112 
L 288.797262 237.496551 
L 288.797262 227.084261 
L 289.029656 218.145773 
L 289.029656 204.998493 
L 289.26205 207.085976 
L 289.26205 211.699701 
L 289.494444 202.515741 
L 289.494444 209.740753 
L 289.726838 200.420526 
L 289.726838 209.125138 
L 289.959232 203.927691 
L 289.959232 206.716801 
L 290.191626 197.385943 
L 290.191626 198.080805 
L 290.42402 195.961429 
L 290.42402 194.558177 
L 290.656414 197.825668 
L 290.656414 194.157109 
L 290.888808 190.479852 
L 290.888808 187.44527 
L 291.121203 181.03399 
L 291.121203 186.321315 
L 291.353597 182.520356 
L 291.353597 193.113367 
L 291.585991 180.249251 
L 291.818385 176.60292 
L 291.818385 174.6633 
L 292.050779 172.573884 
L 292.050779 178.241014 
L 292.283173 174.434257 
L 292.283173 164.256808 
L 292.515567 176.262737 
L 292.515567 173.582834 
L 292.747961 168.38442 
L 292.747961 175.937051 
L 292.980355 175.500226 
L 292.980355 173.401146 
L 293.212749 182.711708 
L 293.445143 178.746456 
L 293.445143 183.644311 
L 293.677538 187.974872 
L 293.677538 183.040294 
L 294.142326 196.37506 
L 294.142326 191.983614 
L 294.839508 210.275187 
L 294.839508 210.073204 
L 295.071902 203.105261 
L 295.071902 209.814201 
L 295.304296 205.81899 
L 295.304296 206.971938 
L 295.53669 214.541965 
L 295.53669 209.769746 
L 295.769084 221.669368 
L 296.001478 221.844291 
L 296.001478 216.668105 
L 296.233873 229.447176 
L 296.466267 225.926481 
L 296.466267 229.430747 
L 296.698661 239.683576 
L 296.698661 227.213762 
L 296.931055 236.343603 
L 296.931055 246.267847 
L 297.163449 245.290789 
L 297.163449 249.323691 
L 297.395843 249.90548 
L 297.395843 244.390078 
L 297.628237 257.666859 
L 297.628237 257.653329 
L 297.860631 260.142847 
L 297.860631 269.366431 
L 298.093025 269.188608 
L 298.093025 272.176802 
L 298.325419 282.956334 
L 298.325419 276.06474 
L 298.557813 291.404844 
L 298.557813 284.611825 
L 298.790208 293.875999 
L 298.790208 290.459678 
L 299.022602 294.464553 
L 299.022602 293.735867 
L 299.254996 285.409127 
L 299.254996 276.25126 
L 299.48739 282.756284 
L 299.48739 282.74662 
L 300.184572 263.869391 
L 300.184572 273.365508 
L 300.416966 265.840903 
L 300.416966 256.673372 
L 300.64936 261.901745 
L 300.64936 257.491936 
L 300.881754 263.436432 
L 300.881754 259.517568 
L 301.114149 266.280628 
L 301.114149 257.484205 
L 301.346543 253.720936 
L 301.346543 259.093306 
L 301.578937 256.160199 
L 301.578937 257.843716 
L 301.811331 260.949814 
L 301.811331 262.910695 
L 302.043725 252.815393 
L 302.043725 240.322385 
L 302.276119 268.645476 
L 302.508513 268.764346 
L 302.508513 257.228101 
L 302.740907 255.825815 
L 302.740907 265.566438 
L 302.973301 266.348278 
L 302.973301 260.946914 
L 303.205695 264.211506 
L 303.205695 267.853972 
L 303.438089 270.271007 
L 303.438089 269.418618 
L 303.670484 265.229155 
L 303.670484 251.222721 
L 303.902878 264.690855 
L 303.902878 273.264999 
L 304.135272 266.195582 
L 304.135272 260.559377 
L 304.367666 270.131841 
L 304.367666 269.498831 
L 304.60006 265.943345 
L 304.60006 275.788342 
L 304.832454 281.473835 
L 304.832454 270.876957 
L 305.064848 273.041755 
L 305.064848 269.859309 
L 305.297242 278.455682 
L 305.297242 284.323829 
L 305.529636 287.722755 
L 305.529636 287.692796 
L 305.76203 279.668548 
L 305.76203 289.399507 
L 305.994424 293.271982 
L 305.994424 285.35984 
L 306.226819 289.579262 
L 306.226819 292.199247 
L 306.459213 290.364001 
L 306.459213 288.929823 
L 306.691607 289.561867 
L 306.691607 284.700736 
L 306.924001 278.602579 
L 306.924001 282.288533 
L 307.156395 284.571235 
L 307.156395 280.540266 
L 307.388789 277.559803 
L 307.388789 280.668801 
L 307.853577 261.365377 
L 307.853577 268.93927 
L 308.085971 270.322228 
L 308.085971 260.259784 
L 308.318365 254.317222 
L 308.318365 266.615012 
L 308.550759 250.379996 
L 308.550759 260.942082 
L 308.783154 241.458904 
L 308.783154 246.990735 
L 309.015548 252.489707 
L 309.015548 241.990439 
L 309.247942 236.676054 
L 309.247942 240.425793 
L 309.480336 234.924887 
L 309.71273 235.350115 
L 309.71273 236.444111 
L 309.945124 223.737522 
L 309.945124 226.517934 
L 310.177518 226.753743 
L 310.177518 220.441038 
L 310.409912 222.081066 
L 310.409912 216.370445 
L 310.642306 216.890383 
L 310.642306 220.720336 
L 310.8747 218.293636 
L 310.8747 223.885386 
L 311.107094 239.142377 
L 311.107094 224.350237 
L 311.339489 221.904209 
L 311.339489 231.317213 
L 311.571883 233.416294 
L 311.571883 243.560883 
L 311.804277 236.230531 
L 311.804277 246.793583 
L 312.036671 247.693327 
L 312.036671 240.790136 
L 312.269065 245.078175 
L 312.269065 253.856236 
L 312.501459 266.631441 
L 312.501459 263.771782 
L 312.733853 270.983264 
L 312.733853 267.596902 
L 312.966247 266.335714 
L 312.966247 275.417233 
L 313.198641 285.761874 
L 313.198641 278.22084 
L 313.431035 285.968689 
L 313.431035 276.296683 
L 313.663429 292.324883 
L 313.663429 288.639895 
L 313.895824 295.488 
L 313.895824 287.120671 
L 314.360612 295.33917 
L 314.360612 293.705908 
L 314.593006 292.344211 
L 314.593006 294.562162 
L 314.8254 290.209373 
L 315.057794 293.65662 
L 315.057794 292.005962 
L 315.290188 293.260385 
L 315.290188 295.351734 
L 315.522582 285.084408 
L 315.522582 293.186936 
L 315.754976 295.364297 
L 315.754976 286.77179 
L 315.98737 295.488 
L 315.98737 295.488 
L 316.219764 293.69721 
L 316.219764 290.284754 
L 316.452159 292.117101 
L 316.452159 295.398122 
L 316.684553 293.907891 
L 316.684553 288.262022 
L 316.916947 294.185256 
L 316.916947 292.116134 
L 317.149341 293.163742 
L 317.149341 294.310891 
L 317.381735 289.747421 
L 317.381735 286.281812 
L 317.614129 295.488 
L 317.614129 295.488 
L 317.846523 285.719351 
L 318.078917 275.196888 
L 318.078917 276.895868 
L 318.311311 279.914021 
L 318.311311 281.4806 
L 318.543705 270.247813 
L 318.543705 278.531063 
L 319.008494 266.587952 
L 319.008494 269.931791 
L 319.240888 268.662872 
L 319.240888 264.470509 
L 319.473282 265.130579 
L 319.473282 271.245166 
L 319.93807 257.628202 
L 319.93807 266.139529 
L 320.170464 259.408362 
L 320.170464 266.680729 
L 320.402858 261.709426 
L 320.402858 262.417817 
L 320.635252 260.445338 
L 320.635252 256.579628 
L 320.867646 258.869095 
L 320.867646 263.987295 
L 321.10004 263.312729 
L 321.10004 255.102927 
L 321.332434 267.092427 
L 321.564829 256.554501 
L 321.564829 264.107132 
L 321.797223 266.910739 
L 321.797223 255.686649 
L 322.029617 261.044524 
L 322.029617 256.944938 
L 322.262011 268.403869 
L 322.262011 261.048389 
L 322.494405 264.686989 
L 322.494405 259.636439 
L 322.726799 259.778504 
L 322.726799 256.13024 
L 322.959193 263.366849 
L 322.959193 262.550218 
L 323.191587 260.007547 
L 323.191587 261.443658 
L 323.423981 265.805145 
L 323.423981 260.091626 
L 323.656375 265.894057 
L 323.656375 262.182009 
L 323.888769 266.374371 
L 323.888769 262.370462 
L 324.121164 258.819807 
L 324.121164 263.498283 
L 324.353558 265.009776 
L 324.353558 258.801445 
L 324.585952 262.045742 
L 324.585952 260.319703 
L 324.818346 272.49379 
L 325.05074 261.25907 
L 325.05074 273.507573 
L 325.283134 270.712664 
L 325.283134 267.939984 
L 325.515528 266.721319 
L 325.515528 272.509253 
L 325.747922 277.504717 
L 325.747922 273.457318 
L 325.980316 270.695269 
L 325.980316 272.781786 
L 326.21271 272.057931 
L 326.21271 277.50665 
L 326.445104 276.950954 
L 326.445104 277.789813 
L 326.677499 277.795612 
L 326.677499 277.656446 
L 326.909893 271.68779 
L 326.909893 274.466269 
L 327.142287 271.587281 
L 327.142287 275.355382 
L 327.374681 270.107681 
L 327.374681 277.943475 
L 327.607075 273.556861 
L 327.607075 278.068144 
L 327.839469 276.461942 
L 328.071863 279.577704 
L 328.071863 275.746785 
L 328.304257 277.663211 
L 328.304257 279.247186 
L 329.001439 264.707284 
L 329.001439 274.128019 
L 329.233834 264.353571 
L 329.466228 266.193649 
L 329.466228 267.244156 
L 329.698622 261.368277 
L 329.698622 264.21054 
L 329.931016 259.531098 
L 329.931016 260.78842 
L 330.16341 256.172762 
L 330.395804 256.094482 
L 330.395804 259.325249 
L 330.628198 251.727196 
L 330.628198 253.816612 
L 330.860592 253.472564 
L 330.860592 255.563913 
L 331.092986 249.728624 
L 331.092986 250.145154 
L 331.32538 258.306634 
L 331.557774 253.044437 
L 331.790169 265.996498 
L 332.022563 257.092801 
L 332.719745 278.202478 
L 332.719745 273.071714 
L 332.952139 292.233072 
L 333.184533 294.961297 
L 333.184533 289.539639 
L 333.416927 286.82591 
L 333.416927 280.547997 
L 333.881715 275.395972 
L 333.881715 272.228023 
L 334.114109 265.636021 
L 334.346504 255.857707 
L 334.346504 259.209278 
L 334.578898 251.838335 
L 334.578898 244.772784 
L 334.811292 247.173389 
L 334.811292 252.192048 
L 335.043686 247.821862 
L 335.043686 244.36785 
L 335.27608 247.152128 
L 335.27608 236.393857 
L 335.508474 244.939976 
L 335.508474 238.560588 
L 335.740868 239.284442 
L 335.740868 235.006067 
L 335.973262 246.680511 
L 335.973262 240.788203 
L 336.205656 252.059647 
L 336.205656 235.367511 
L 336.43805 237.551637 
L 336.43805 243.306713 
L 336.670444 246.75396 
L 336.670444 244.442265 
L 336.902839 237.630884 
L 337.135233 241.283014 
L 337.135233 231.711516 
L 337.367627 233.811563 
L 337.600021 230.457093 
L 337.600021 231.973418 
L 337.832415 236.482768 
L 337.832415 234.874633 
L 338.064809 229.40562 
L 338.064809 229.530289 
L 338.297203 229.911061 
L 338.297203 225.312799 
L 338.761991 237.371882 
L 338.761991 225.96997 
L 338.994385 235.814967 
L 338.994385 242.344151 
L 339.226779 240.851021 
L 339.226779 245.649333 
L 339.459174 247.686563 
L 339.459174 249.440628 
L 339.923962 258.8517 
L 339.923962 256.643413 
L 340.38875 278.863514 
L 340.38875 274.656655 
L 340.621144 286.81238 
L 340.621144 286.024742 
L 340.853538 291.946043 
L 340.853538 295.488 
L 341.085932 293.80255 
L 341.085932 294.943901 
L 341.318326 288.37606 
L 341.318326 291.912218 
L 341.55072 286.077895 
L 341.783114 286.749562 
L 341.783114 282.000538 
L 342.015509 283.158318 
L 342.015509 279.450135 
L 342.247903 282.768848 
L 342.247903 282.106845 
L 342.480297 278.94566 
L 342.480297 276.445512 
L 342.712691 279.942047 
L 342.712691 278.284624 
L 342.945085 280.65817 
L 342.945085 280.638841 
L 343.177479 277.915449 
L 343.177479 278.168653 
L 343.409873 279.302272 
L 343.409873 278.904104 
L 343.642267 277.726029 
L 343.642267 278.149324 
L 343.874661 277.90965 
L 344.107055 280.10634 
L 344.339449 277.525978 
L 344.339449 277.842967 
L 344.571844 278.635437 
L 344.571844 278.579384 
L 344.804238 276.907465 
L 345.036632 277.660312 
L 345.036632 277.622621 
L 345.269026 279.045202 
L 345.269026 278.878977 
L 345.50142 276.538289 
L 345.733814 277.860362 
L 345.733814 277.29017 
L 345.966208 277.422571 
L 345.966208 277.731827 
L 346.198602 274.248823 
L 346.430996 275.248109 
L 346.66339 273.308489 
L 346.66339 271.76897 
L 346.895784 271.624005 
L 346.895784 271.06831 
L 347.128179 269.19344 
L 347.128179 272.296639 
L 347.360573 267.688713 
L 347.360573 269.000155 
L 347.592967 268.542068 
L 347.592967 267.570809 
L 347.825361 265.268778 
L 348.057755 265.875695 
L 348.057755 266.707789 
L 348.290149 265.992632 
L 348.290149 266.830525 
L 348.522543 267.227727 
L 348.522543 265.871829 
L 348.754937 270.334791 
L 348.754937 267.732202 
L 348.987331 269.488201 
L 348.987331 268.153564 
L 349.219725 271.696488 
L 349.219725 271.449082 
L 349.452119 272.179701 
L 349.452119 274.716574 
L 349.684514 278.091338 
L 349.684514 276.495767 
L 349.916908 276.608839 
L 349.916908 281.697079 
L 350.149302 280.799268 
L 350.149302 282.948603 
L 350.381696 284.861163 
L 350.381696 283.570016 
L 350.61409 286.313704 
L 350.61409 289.322192 
L 350.846484 290.618172 
L 350.846484 288.552916 
L 351.078878 289.085418 
L 351.078878 289.431399 
L 351.311272 288.373161 
L 351.311272 287.470517 
L 351.543666 287.638676 
L 351.543666 287.805868 
L 351.77606 287.068484 
L 351.77606 284.133443 
L 352.008454 283.461776 
L 352.008454 282.163864 
L 352.240849 280.294793 
L 352.473243 274.90406 
L 352.473243 275.60472 
L 352.705637 274.450806 
L 352.705637 268.704428 
L 352.938031 266.464249 
L 352.938031 262.106627 
L 353.170425 255.695347 
L 353.170425 258.850733 
L 353.402819 250.242763 
L 353.402819 250.712447 
L 353.635213 235.552099 
L 353.867607 228.467219 
L 353.867607 232.234353 
L 354.100001 223.001105 
L 354.100001 223.145102 
L 354.332395 204.286236 
L 354.564789 201.408215 
L 354.564789 201.619862 
L 354.797184 182.396653 
L 354.797184 183.138869 
L 355.029578 181.436024 
L 355.261972 176.001802 
L 355.494366 162.814899 
L 355.72676 160.14176 
L 355.959154 143.867121 
L 356.191548 144.51656 
L 356.191548 142.884264 
L 356.423942 142.647489 
L 356.423942 142.180705 
L 356.656336 130.149649 
L 356.656336 131.886319 
L 356.88873 130.263687 
L 356.88873 133.408442 
L 357.121124 123.501594 
L 357.121124 125.742739 
L 357.585913 131.543237 
L 357.585913 126.271375 
L 357.818307 124.726058 
L 357.818307 122.637608 
L 358.050701 127.832156 
L 358.050701 131.533573 
L 358.283095 115.859085 
L 358.515489 129.96796 
L 358.515489 123.349865 
L 358.747883 134.918969 
L 358.980277 118.596974 
L 358.980277 122.139898 
L 359.212671 132.846948 
L 359.445065 128.901991 
L 359.445065 123.720007 
L 359.677459 129.275032 
L 359.677459 128.746396 
L 359.909854 130.33327 
L 359.909854 138.469623 
L 360.142248 128.87783 
L 360.142248 122.265533 
L 360.374642 130.941153 
L 360.374642 137.2152 
L 360.607036 132.236166 
L 360.607036 136.235243 
L 360.83943 113.409191 
L 360.83943 118.307046 
L 361.071824 132.913631 
L 361.071824 118.801857 
L 361.304218 110.895513 
L 361.304218 112.256243 
L 361.536612 110.198719 
L 361.536612 110.557264 
L 361.769006 105.862359 
L 361.769006 115.765342 
L 362.233794 88.302371 
L 362.466189 93.443765 
L 362.466189 90.218797 
L 362.698583 75.971723 
L 362.698583 81.926849 
L 362.930977 77.345016 
L 362.930977 87.070176 
L 363.163371 71.590907 
L 363.163371 75.268163 
L 363.395765 78.540487 
L 363.395765 82.031223 
L 363.628159 76.780622 
L 363.628159 72.329257 
L 364.325341 98.17926 
L 364.325341 90.947483 
L 364.557735 114.125314 
L 364.790129 109.49516 
L 364.790129 106.820089 
L 365.022524 128.205197 
L 365.254918 129.999852 
L 365.254918 123.634961 
L 365.9521 168.148612 
L 365.9521 167.143527 
L 366.649282 195.858022 
L 366.649282 181.37224 
L 366.881676 201.85857 
L 367.11407 205.995846 
L 367.11407 201.250687 
L 367.346465 215.328637 
L 367.346465 206.877228 
L 367.811253 225.007408 
L 367.811253 212.80916 
L 368.276041 238.536427 
L 368.276041 237.39121 
L 368.740829 246.690176 
L 368.740829 243.97838 
L 368.973223 251.999728 
L 369.205617 259.763041 
L 369.438011 263.335923 
L 369.438011 267.019945 
L 369.670405 272.634889 
L 369.670405 275.79414 
L 369.9028 277.630352 
L 369.9028 281.16941 
L 370.135194 285.368538 
L 370.367588 281.644892 
L 370.367588 287.773009 
L 370.599982 286.712838 
L 370.599982 291.658048 
L 370.832376 284.142141 
L 370.832376 284.573168 
L 371.06477 288.286182 
L 371.06477 290.937093 
L 371.297164 284.8457 
L 371.297164 289.241013 
L 371.529558 293.709773 
L 371.529558 289.751286 
L 371.761952 295.488 
L 371.761952 283.605774 
L 371.994346 292.76654 
L 371.994346 284.928813 
L 372.22674 284.485223 
L 372.22674 285.697123 
L 372.459135 277.829437 
L 372.459135 285.417825 
L 372.691529 280.010663 
L 372.691529 285.234204 
L 372.923923 276.994443 
L 372.923923 281.699012 
L 373.156317 269.871872 
L 373.156317 274.850907 
L 373.388711 269.206004 
L 373.388711 270.483621 
L 373.621105 271.387231 
L 373.621105 269.505596 
L 373.853499 268.239576 
L 373.853499 263.476055 
L 374.085893 264.344873 
L 374.085893 253.789552 
L 374.318287 256.555468 
L 374.318287 264.974018 
L 374.550681 256.322559 
L 374.783075 256.507146 
L 374.783075 262.293148 
L 375.01547 254.292095 
L 375.01547 257.400125 
L 375.247864 255.265287 
L 375.247864 253.968341 
L 375.480258 258.866196 
L 375.480258 257.890104 
L 375.712652 269.517194 
L 375.712652 255.460505 
L 375.945046 267.2026 
L 375.945046 263.532108 
L 376.17744 267.027676 
L 376.17744 265.423407 
L 376.409834 278.630605 
L 376.642228 277.694137 
L 376.642228 274.854773 
L 376.874622 285.895241 
L 376.874622 285.548293 
L 377.107016 285.513502 
L 377.107016 283.857045 
L 377.33941 295.331439 
L 377.33941 295.243494 
L 377.571805 291.303369 
L 377.571805 294.067352 
L 377.804199 289.405305 
L 377.804199 291.136177 
L 378.036593 291.867763 
L 378.036593 293.434342 
L 378.268987 289.640147 
L 378.268987 290.565985 
L 378.501381 295.329506 
L 378.501381 293.784188 
L 378.733775 293.536783 
L 378.733775 293.777423 
L 378.966169 291.485057 
L 379.198563 291.704436 
L 379.430957 284.735528 
L 379.663351 285.248701 
L 379.663351 285.038019 
L 379.895745 279.577704 
L 380.12814 281.129786 
L 380.360534 276.817587 
L 380.592928 283.221136 
L 380.592928 283.19021 
L 380.825322 282.155166 
L 380.825322 284.102518 
L 381.057716 291.985667 
L 381.057716 290.798894 
L 381.29011 295.488 
L 381.29011 294.681033 
L 381.522504 286.909989 
L 381.754898 278.009192 
L 381.754898 285.161722 
L 381.987292 278.09907 
L 381.987292 278.131928 
L 382.219686 266.557026 
L 382.219686 267.322437 
L 382.45208 266.990952 
L 382.45208 261.515174 
L 382.916869 250.953087 
L 382.916869 248.110824 
L 383.149263 241.529453 
L 383.149263 246.356758 
L 383.381657 240.473148 
L 383.381657 241.053004 
L 383.614051 240.394867 
L 383.614051 239.478694 
L 383.846445 233.963292 
L 383.846445 237.40474 
L 384.078839 232.463396 
L 384.078839 232.899255 
L 384.311233 241.437642 
L 384.543627 240.797867 
L 384.543627 239.576303 
L 384.776021 245.285957 
L 385.008415 246.285243 
L 385.008415 245.736312 
L 385.473204 260.541015 
L 385.705598 260.978806 
L 385.705598 261.961663 
L 385.937992 270.843132 
L 385.937992 267.759262 
L 386.635174 286.000581 
L 386.867568 291.023105 
L 386.867568 287.873518 
L 387.099962 292.49594 
L 387.099962 295.094664 
L 387.332356 286.511821 
L 387.332356 290.421987 
L 387.56475 286.109787 
L 387.56475 286.276013 
L 387.797145 278.291389 
L 387.797145 281.377192 
L 388.029539 279.417277 
L 388.029539 278.196679 
L 388.261933 279.40568 
L 388.261933 277.73376 
L 388.726721 272.722834 
L 388.726721 273.957928 
L 388.959115 272.232855 
L 388.959115 275.317691 
L 389.191509 272.400047 
L 389.191509 272.889059 
L 389.423903 271.164952 
L 389.423903 273.797501 
L 389.656297 269.724009 
L 389.656297 270.835401 
L 389.888691 276.67069 
L 389.888691 272.43967 
L 390.121085 279.014277 
L 390.121085 272.118816 
L 390.818268 289.713596 
L 391.050662 291.87936 
L 391.050662 294.312824 
L 391.283056 292.636072 
L 391.283056 289.994826 
L 391.51545 288.795489 
L 391.51545 289.355051 
L 391.747844 278.078775 
L 391.747844 280.116004 
L 391.980238 277.308532 
L 393.142209 249.054057 
L 393.142209 250.375164 
L 394.071785 235.675801 
L 394.071785 235.785974 
L 394.304179 234.989638 
L 394.304179 235.42453 
L 394.536573 229.211368 
L 394.768967 231.42352 
L 394.768967 231.023419 
L 395.001361 228.798703 
L 395.001361 234.527686 
L 395.233755 232.109684 
L 395.233755 237.632817 
L 395.46615 232.492389 
L 395.46615 237.1641 
L 395.930938 248.413316 
L 395.930938 248.125321 
L 396.163332 249.83783 
L 396.163332 253.335331 
L 396.395726 258.367519 
L 396.395726 261.119905 
L 396.860514 273.67863 
L 396.860514 277.817839 
L 397.092908 289.981296 
L 397.325302 286.132982 
L 397.325302 290.669392 
L 397.557696 271.781533 
L 397.557696 276.396225 
L 397.79009 262.571479 
L 398.487273 208.319138 
L 398.487273 149.909226 
L 398.487273 149.909226 
" clip-path="url(#p7bd7fb6e12)" style="fill: none; stroke: #1f77b4; stroke-width: 1.5; stroke-linecap: square"/>
   </g>
   <g id="patch_3">
    <path d="M 57.6 307.584 
L 57.6 41.472 
" style="fill: none; stroke: #000000; stroke-width: 0.8; stroke-linejoin: miter; stroke-linecap: square"/>
   </g>
   <g id="patch_4">
    <path d="M 414.72 307.584 
L 414.72 41.472 
" style="fill: none; stroke: #000000; stroke-width: 0.8; stroke-linejoin: miter; stroke-linecap: square"/>
   </g>
   <g id="patch_5">
    <path d="M 57.6 307.584 
L 414.72 307.584 
" style="fill: none; stroke: #000000; stroke-width: 0.8; stroke-linejoin: miter; stroke-linecap: square"/>
   </g>
   <g id="patch_6">
    <path d="M 57.6 41.472 
L 414.72 41.472 
" style="fill: none; stroke: #000000; stroke-width: 0.8; stroke-linejoin: miter; stroke-linecap: square"/>
   </g>
   <g id="text_15">
    <!-- Tracking error vs Time -->
    <g transform="translate(169.584375 35.472) scale(0.12 -0.12)">
     <defs>
      <path id="DejaVuSans-76" d="M 191 3500 
L 800 3500 
L 1894 563 
L 2988 3500 
L 3597 3500 
L 2284 0 
L 1503 0 
L 191 3500 
z
" transform="scale(0.015625)"/>
     </defs>
     <use xlink:href="#DejaVuSans-54"/>
     <use xlink:href="#DejaVuSans-72" x="46.333984"/>
     <use xlink:href="#DejaVuSans-61" x="87.447266"/>
     <use xlink:href="#DejaVuSans-63" x="148.726562"/>
     <use xlink:href="#DejaVuSans-6b" x="203.707031"/>
     <use xlink:href="#DejaVuSans-69" x="261.617188"/>
     <use xlink:href="#DejaVuSans-6e" x="289.400391"/>
     <use xlink:href="#DejaVuSans-67" x="352.779297"/>
     <use xlink:href="#DejaVuSans-20" x="416.255859"/>
     <use xlink:href="#DejaVuSans-65" x="448.042969"/>
     <use xlink:href="#DejaVuSans-72" x="509.566406"/>
     <use xlink:href="#DejaVuSans-72" x="548.929688"/>
     <use xlink:href="#DejaVuSans-6f" x="587.792969"/>
     <use xlink:href="#DejaVuSans-72" x="648.974609"/>
     <use xlink:href="#DejaVuSans-20" x="690.087891"/>
     <use xlink:href="#DejaVuSans-76" x="721.875"/>
     <use xlink:href="#DejaVuSans-73" x="781.054688"/>
     <use xlink:href="#DejaVuSans-20" x="833.154297"/>
     <use xlink:href="#DejaVuSans-54" x="864.941406"/>
     <use xlink:href="#DejaVuSans-69" x="922.900391"/>
     <use xlink:href="#DejaVuSans-6d" x="950.683594"/>
     <use xlink:href="#DejaVuSans-65" x="1048.095703"/>
    </g>
   </g>
   <g id="legend_1">
    <g id="patch_7">
     <path d="M 311.00125 64.150125 
L 407.72 64.150125 
Q 409.72 64.150125 409.72 62.150125 
L 409.72 48.472 
Q 409.72 46.472 407.72 46.472 
L 311.00125 46.472 
Q 309.00125 46.472 309.00125 48.472 
L 309.00125 62.150125 
Q 309.00125 64.150125 311.00125 64.150125 
z
" style="fill: #ffffff; opacity: 0.8; stroke: #cccccc; stroke-linejoin: miter"/>
    </g>
    <g id="line2d_26">
     <path d="M 313.00125 54.570438 
L 323.00125 54.570438 
L 333.00125 54.570438 
" style="fill: none; stroke: #1f77b4; stroke-width: 1.5; stroke-linecap: square"/>
    </g>
    <g id="text_16">
     <!-- Actual speed -->
     <g transform="translate(341.00125 58.070438) scale(0.1 -0.1)">
      <defs>
       <path id="DejaVuSans-41" d="M 2188 4044 
L 1331 1722 
L 3047 1722 
L 2188 4044 
z
M 1831 4666 
L 2547 4666 
L 4325 0 
L 3669 0 
L 3244 1197 
L 1141 1197 
L 716 0 
L 50 0 
L 1831 4666 
z
" transform="scale(0.015625)"/>
       <path id="DejaVuSans-74" d="M 1172 4494 
L 1172 3500 
L 2356 3500 
L 2356 3053 
L 1172 3053 
L 1172 1153 
Q 1172 725 1289 603 
Q 1406 481 1766 481 
L 2356 481 
L 2356 0 
L 1766 0 
Q 1100 0 847 248 
Q 594 497 594 1153 
L 594 3053 
L 172 3053 
L 172 3500 
L 594 3500 
L 594 4494 
L 1172 4494 
z
" transform="scale(0.015625)"/>
       <path id="DejaVuSans-75" d="M 544 1381 
L 544 3500 
L 1119 3500 
L 1119 1403 
Q 1119 906 1312 657 
Q 1506 409 1894 409 
Q 2359 409 2629 706 
Q 2900 1003 2900 1516 
L 2900 3500 
L 3475 3500 
L 3475 0 
L 2900 0 
L 2900 538 
Q 2691 219 2414 64 
Q 2138 -91 1772 -91 
Q 1169 -91 856 284 
Q 544 659 544 1381 
z
M 1991 3584 
L 1991 3584 
z
" transform="scale(0.015625)"/>
       <path id="DejaVuSans-6c" d="M 603 4863 
L 1178 4863 
L 1178 0 
L 603 0 
L 603 4863 
z
" transform="scale(0.015625)"/>
       <path id="DejaVuSans-70" d="M 1159 525 
L 1159 -1331 
L 581 -1331 
L 581 3500 
L 1159 3500 
L 1159 2969 
Q 1341 3281 1617 3432 
Q 1894 3584 2278 3584 
Q 2916 3584 3314 3078 
Q 3713 2572 3713 1747 
Q 3713 922 3314 415 
Q 2916 -91 2278 -91 
Q 1894 -91 1617 61 
Q 1341 213 1159 525 
z
M 3116 1747 
Q 3116 2381 2855 2742 
Q 2594 3103 2138 3103 
Q 1681 3103 1420 2742 
Q 1159 2381 1159 1747 
Q 1159 1113 1420 752 
Q 1681 391 2138 391 
Q 2594 391 2855 752 
Q 3116 1113 3116 1747 
z
" transform="scale(0.015625)"/>
       <path id="DejaVuSans-64" d="M 2906 2969 
L 2906 4863 
L 3481 4863 
L 3481 0 
L 2906 0 
L 2906 525 
Q 2725 213 2448 61 
Q 2172 -91 1784 -91 
Q 1150 -91 751 415 
Q 353 922 353 1747 
Q 353 2572 751 3078 
Q 1150 3584 1784 3584 
Q 2172 3584 2448 3432 
Q 2725 3281 2906 2969 
z
M 947 1747 
Q 947 1113 1208 752 
Q 1469 391 1925 391 
Q 2381 391 2643 752 
Q 2906 1113 2906 1747 
Q 2906 2381 2643 2742 
Q 2381 3103 1925 3103 
Q 1469 3103 1208 2742 
Q 947 2381 947 1747 
z
" transform="scale(0.015625)"/>
      </defs>
      <use xlink:href="#DejaVuSans-41"/>
      <use xlink:href="#DejaVuSans-63" x="66.658203"/>
      <use xlink:href="#DejaVuSans-74" x="121.638672"/>
      <use xlink:href="#DejaVuSans-75" x="160.847656"/>
      <use xlink:href="#DejaVuSans-61" x="224.226562"/>
      <use xlink:href="#DejaVuSans-6c" x="285.505859"/>
      <use xlink:href="#DejaVuSans-20" x="313.289062"/>
      <use xlink:href="#DejaVuSans-73" x="345.076172"/>
      <use xlink:href="#DejaVuSans-70" x="397.175781"/>
      <use xlink:href="#DejaVuSans-65" x="460.652344"/>
      <use xlink:href="#DejaVuSans-65" x="522.175781"/>
      <use xlink:href="#DejaVuSans-64" x="583.699219"/>
     </g>
    </g>
   </g>
  </g>
 </g>
 <defs>
  <clipPath id="p7bd7fb6e12">
   <rect x="57.6" y="41.472" width="357.12" height="266.112"/>
  </clipPath>
 </defs>
</svg>
