<?xml version="1.0" encoding="utf-8" standalone="no"?>
<!DOCTYPE svg PUBLIC "-//W3C//DTD SVG 1.1//EN"
  "http://www.w3.org/Graphics/SVG/1.1/DTD/svg11.dtd">
<svg xmlns:xlink="http://www.w3.org/1999/xlink" width="460.8pt" height="345.6pt" viewBox="0 0 460.8 345.6" xmlns="http://www.w3.org/2000/svg" version="1.1">
 <metadata>
  <rdf:RDF xmlns:dc="http://purl.org/dc/elements/1.1/" xmlns:cc="http://creativecommons.org/ns#" xmlns:rdf="http://www.w3.org/1999/02/22-rdf-syntax-ns#">
   <cc:Work>
    <dc:type rdf:resource="http://purl.org/dc/dcmitype/StillImage"/>
    <dc:date>2024-01-30T20:59:13.992934</dc:date>
    <dc:format>image/svg+xml</dc:format>
    <dc:creator>
     <cc:Agent>
      <dc:title>Matplotlib v3.7.1, https://matplotlib.org/</dc:title>
     </cc:Agent>
    </dc:creator>
   </cc:Work>
  </rdf:RDF>
 </metadata>
 <defs>
  <style type="text/css">*{stroke-linejoin: round; stroke-linecap: butt}</style>
 </defs>
 <g id="figure_1">
  <g id="patch_1">
   <path d="M 0 345.6 
L 460.8 345.6 
L 460.8 0 
L 0 0 
z
" style="fill: #ffffff"/>
  </g>
  <g id="axes_1">
   <g id="patch_2">
    <path d="M 57.6 307.584 
L 414.72 307.584 
L 414.72 41.472 
L 57.6 41.472 
z
" style="fill: #ffffff"/>
   </g>
   <g id="matplotlib.axis_1">
    <g id="xtick_1">
     <g id="line2d_1">
      <path d="M 73.832727 307.584 
L 73.832727 41.472 
" clip-path="url(#p69614c129a)" style="fill: none; stroke: #b0b0b0; stroke-width: 0.8; stroke-linecap: square"/>
     </g>
     <g id="line2d_2">
      <defs>
       <path id="mc7fae02d00" d="M 0 0 
L 0 3.5 
" style="stroke: #000000; stroke-width: 0.8"/>
      </defs>
      <g>
       <use xlink:href="#mc7fae02d00" x="73.832727" y="307.584" style="stroke: #000000; stroke-width: 0.8"/>
      </g>
     </g>
     <g id="text_1">
      <!-- 0 -->
      <g transform="translate(70.651477 322.182437) scale(0.1 -0.1)">
       <defs>
        <path id="DejaVuSans-30" d="M 2034 4250 
Q 1547 4250 1301 3770 
Q 1056 3291 1056 2328 
Q 1056 1369 1301 889 
Q 1547 409 2034 409 
Q 2525 409 2770 889 
Q 3016 1369 3016 2328 
Q 3016 3291 2770 3770 
Q 2525 4250 2034 4250 
z
M 2034 4750 
Q 2819 4750 3233 4129 
Q 3647 3509 3647 2328 
Q 3647 1150 3233 529 
Q 2819 -91 2034 -91 
Q 1250 -91 836 529 
Q 422 1150 422 2328 
Q 422 3509 836 4129 
Q 1250 4750 2034 4750 
z
" transform="scale(0.015625)"/>
       </defs>
       <use xlink:href="#DejaVuSans-30"/>
      </g>
     </g>
    </g>
    <g id="xtick_2">
     <g id="line2d_3">
      <path d="M 131.93125 307.584 
L 131.93125 41.472 
" clip-path="url(#p69614c129a)" style="fill: none; stroke: #b0b0b0; stroke-width: 0.8; stroke-linecap: square"/>
     </g>
     <g id="line2d_4">
      <g>
       <use xlink:href="#mc7fae02d00" x="131.93125" y="307.584" style="stroke: #000000; stroke-width: 0.8"/>
      </g>
     </g>
     <g id="text_2">
      <!-- 5 -->
      <g transform="translate(128.75 322.182437) scale(0.1 -0.1)">
       <defs>
        <path id="DejaVuSans-35" d="M 691 4666 
L 3169 4666 
L 3169 4134 
L 1269 4134 
L 1269 2991 
Q 1406 3038 1543 3061 
Q 1681 3084 1819 3084 
Q 2600 3084 3056 2656 
Q 3513 2228 3513 1497 
Q 3513 744 3044 326 
Q 2575 -91 1722 -91 
Q 1428 -91 1123 -41 
Q 819 9 494 109 
L 494 744 
Q 775 591 1075 516 
Q 1375 441 1709 441 
Q 2250 441 2565 725 
Q 2881 1009 2881 1497 
Q 2881 1984 2565 2268 
Q 2250 2553 1709 2553 
Q 1456 2553 1204 2497 
Q 953 2441 691 2322 
L 691 4666 
z
" transform="scale(0.015625)"/>
       </defs>
       <use xlink:href="#DejaVuSans-35"/>
      </g>
     </g>
    </g>
    <g id="xtick_3">
     <g id="line2d_5">
      <path d="M 190.029773 307.584 
L 190.029773 41.472 
" clip-path="url(#p69614c129a)" style="fill: none; stroke: #b0b0b0; stroke-width: 0.8; stroke-linecap: square"/>
     </g>
     <g id="line2d_6">
      <g>
       <use xlink:href="#mc7fae02d00" x="190.029773" y="307.584" style="stroke: #000000; stroke-width: 0.8"/>
      </g>
     </g>
     <g id="text_3">
      <!-- 10 -->
      <g transform="translate(183.667273 322.182437) scale(0.1 -0.1)">
       <defs>
        <path id="DejaVuSans-31" d="M 794 531 
L 1825 531 
L 1825 4091 
L 703 3866 
L 703 4441 
L 1819 4666 
L 2450 4666 
L 2450 531 
L 3481 531 
L 3481 0 
L 794 0 
L 794 531 
z
" transform="scale(0.015625)"/>
       </defs>
       <use xlink:href="#DejaVuSans-31"/>
       <use xlink:href="#DejaVuSans-30" x="63.623047"/>
      </g>
     </g>
    </g>
    <g id="xtick_4">
     <g id="line2d_7">
      <path d="M 248.128296 307.584 
L 248.128296 41.472 
" clip-path="url(#p69614c129a)" style="fill: none; stroke: #b0b0b0; stroke-width: 0.8; stroke-linecap: square"/>
     </g>
     <g id="line2d_8">
      <g>
       <use xlink:href="#mc7fae02d00" x="248.128296" y="307.584" style="stroke: #000000; stroke-width: 0.8"/>
      </g>
     </g>
     <g id="text_4">
      <!-- 15 -->
      <g transform="translate(241.765796 322.182437) scale(0.1 -0.1)">
       <use xlink:href="#DejaVuSans-31"/>
       <use xlink:href="#DejaVuSans-35" x="63.623047"/>
      </g>
     </g>
    </g>
    <g id="xtick_5">
     <g id="line2d_9">
      <path d="M 306.226819 307.584 
L 306.226819 41.472 
" clip-path="url(#p69614c129a)" style="fill: none; stroke: #b0b0b0; stroke-width: 0.8; stroke-linecap: square"/>
     </g>
     <g id="line2d_10">
      <g>
       <use xlink:href="#mc7fae02d00" x="306.226819" y="307.584" style="stroke: #000000; stroke-width: 0.8"/>
      </g>
     </g>
     <g id="text_5">
      <!-- 20 -->
      <g transform="translate(299.864319 322.182437) scale(0.1 -0.1)">
       <defs>
        <path id="DejaVuSans-32" d="M 1228 531 
L 3431 531 
L 3431 0 
L 469 0 
L 469 531 
Q 828 903 1448 1529 
Q 2069 2156 2228 2338 
Q 2531 2678 2651 2914 
Q 2772 3150 2772 3378 
Q 2772 3750 2511 3984 
Q 2250 4219 1831 4219 
Q 1534 4219 1204 4116 
Q 875 4013 500 3803 
L 500 4441 
Q 881 4594 1212 4672 
Q 1544 4750 1819 4750 
Q 2544 4750 2975 4387 
Q 3406 4025 3406 3419 
Q 3406 3131 3298 2873 
Q 3191 2616 2906 2266 
Q 2828 2175 2409 1742 
Q 1991 1309 1228 531 
z
" transform="scale(0.015625)"/>
       </defs>
       <use xlink:href="#DejaVuSans-32"/>
       <use xlink:href="#DejaVuSans-30" x="63.623047"/>
      </g>
     </g>
    </g>
    <g id="xtick_6">
     <g id="line2d_11">
      <path d="M 364.325341 307.584 
L 364.325341 41.472 
" clip-path="url(#p69614c129a)" style="fill: none; stroke: #b0b0b0; stroke-width: 0.8; stroke-linecap: square"/>
     </g>
     <g id="line2d_12">
      <g>
       <use xlink:href="#mc7fae02d00" x="364.325341" y="307.584" style="stroke: #000000; stroke-width: 0.8"/>
      </g>
     </g>
     <g id="text_6">
      <!-- 25 -->
      <g transform="translate(357.962841 322.182437) scale(0.1 -0.1)">
       <use xlink:href="#DejaVuSans-32"/>
       <use xlink:href="#DejaVuSans-35" x="63.623047"/>
      </g>
     </g>
    </g>
    <g id="text_7">
     <!-- Time(s) -->
     <g transform="translate(217.420156 335.860562) scale(0.1 -0.1)">
      <defs>
       <path id="DejaVuSans-54" d="M -19 4666 
L 3928 4666 
L 3928 4134 
L 2272 4134 
L 2272 0 
L 1638 0 
L 1638 4134 
L -19 4134 
L -19 4666 
z
" transform="scale(0.015625)"/>
       <path id="DejaVuSans-69" d="M 603 3500 
L 1178 3500 
L 1178 0 
L 603 0 
L 603 3500 
z
M 603 4863 
L 1178 4863 
L 1178 4134 
L 603 4134 
L 603 4863 
z
" transform="scale(0.015625)"/>
       <path id="DejaVuSans-6d" d="M 3328 2828 
Q 3544 3216 3844 3400 
Q 4144 3584 4550 3584 
Q 5097 3584 5394 3201 
Q 5691 2819 5691 2113 
L 5691 0 
L 5113 0 
L 5113 2094 
Q 5113 2597 4934 2840 
Q 4756 3084 4391 3084 
Q 3944 3084 3684 2787 
Q 3425 2491 3425 1978 
L 3425 0 
L 2847 0 
L 2847 2094 
Q 2847 2600 2669 2842 
Q 2491 3084 2119 3084 
Q 1678 3084 1418 2786 
Q 1159 2488 1159 1978 
L 1159 0 
L 581 0 
L 581 3500 
L 1159 3500 
L 1159 2956 
Q 1356 3278 1631 3431 
Q 1906 3584 2284 3584 
Q 2666 3584 2933 3390 
Q 3200 3197 3328 2828 
z
" transform="scale(0.015625)"/>
       <path id="DejaVuSans-65" d="M 3597 1894 
L 3597 1613 
L 953 1613 
Q 991 1019 1311 708 
Q 1631 397 2203 397 
Q 2534 397 2845 478 
Q 3156 559 3463 722 
L 3463 178 
Q 3153 47 2828 -22 
Q 2503 -91 2169 -91 
Q 1331 -91 842 396 
Q 353 884 353 1716 
Q 353 2575 817 3079 
Q 1281 3584 2069 3584 
Q 2775 3584 3186 3129 
Q 3597 2675 3597 1894 
z
M 3022 2063 
Q 3016 2534 2758 2815 
Q 2500 3097 2075 3097 
Q 1594 3097 1305 2825 
Q 1016 2553 972 2059 
L 3022 2063 
z
" transform="scale(0.015625)"/>
       <path id="DejaVuSans-28" d="M 1984 4856 
Q 1566 4138 1362 3434 
Q 1159 2731 1159 2009 
Q 1159 1288 1364 580 
Q 1569 -128 1984 -844 
L 1484 -844 
Q 1016 -109 783 600 
Q 550 1309 550 2009 
Q 550 2706 781 3412 
Q 1013 4119 1484 4856 
L 1984 4856 
z
" transform="scale(0.015625)"/>
       <path id="DejaVuSans-73" d="M 2834 3397 
L 2834 2853 
Q 2591 2978 2328 3040 
Q 2066 3103 1784 3103 
Q 1356 3103 1142 2972 
Q 928 2841 928 2578 
Q 928 2378 1081 2264 
Q 1234 2150 1697 2047 
L 1894 2003 
Q 2506 1872 2764 1633 
Q 3022 1394 3022 966 
Q 3022 478 2636 193 
Q 2250 -91 1575 -91 
Q 1294 -91 989 -36 
Q 684 19 347 128 
L 347 722 
Q 666 556 975 473 
Q 1284 391 1588 391 
Q 1994 391 2212 530 
Q 2431 669 2431 922 
Q 2431 1156 2273 1281 
Q 2116 1406 1581 1522 
L 1381 1569 
Q 847 1681 609 1914 
Q 372 2147 372 2553 
Q 372 3047 722 3315 
Q 1072 3584 1716 3584 
Q 2034 3584 2315 3537 
Q 2597 3491 2834 3397 
z
" transform="scale(0.015625)"/>
       <path id="DejaVuSans-29" d="M 513 4856 
L 1013 4856 
Q 1481 4119 1714 3412 
Q 1947 2706 1947 2009 
Q 1947 1309 1714 600 
Q 1481 -109 1013 -844 
L 513 -844 
Q 928 -128 1133 580 
Q 1338 1288 1338 2009 
Q 1338 2731 1133 3434 
Q 928 4138 513 4856 
z
" transform="scale(0.015625)"/>
      </defs>
      <use xlink:href="#DejaVuSans-54"/>
      <use xlink:href="#DejaVuSans-69" x="57.958984"/>
      <use xlink:href="#DejaVuSans-6d" x="85.742188"/>
      <use xlink:href="#DejaVuSans-65" x="183.154297"/>
      <use xlink:href="#DejaVuSans-28" x="244.677734"/>
      <use xlink:href="#DejaVuSans-73" x="283.691406"/>
      <use xlink:href="#DejaVuSans-29" x="335.791016"/>
     </g>
    </g>
   </g>
   <g id="matplotlib.axis_2">
    <g id="ytick_1">
     <g id="line2d_13">
      <path d="M 57.6 295.488 
L 414.72 295.488 
" clip-path="url(#p69614c129a)" style="fill: none; stroke: #b0b0b0; stroke-width: 0.8; stroke-linecap: square"/>
     </g>
     <g id="line2d_14">
      <defs>
       <path id="m9b610fb618" d="M 0 0 
L -3.5 0 
" style="stroke: #000000; stroke-width: 0.8"/>
      </defs>
      <g>
       <use xlink:href="#m9b610fb618" x="57.6" y="295.488" style="stroke: #000000; stroke-width: 0.8"/>
      </g>
     </g>
     <g id="text_8">
      <!-- 0.00 -->
      <g transform="translate(28.334375 299.287219) scale(0.1 -0.1)">
       <defs>
        <path id="DejaVuSans-2e" d="M 684 794 
L 1344 794 
L 1344 0 
L 684 0 
L 684 794 
z
" transform="scale(0.015625)"/>
       </defs>
       <use xlink:href="#DejaVuSans-30"/>
       <use xlink:href="#DejaVuSans-2e" x="63.623047"/>
       <use xlink:href="#DejaVuSans-30" x="95.410156"/>
       <use xlink:href="#DejaVuSans-30" x="159.033203"/>
      </g>
     </g>
    </g>
    <g id="ytick_2">
     <g id="line2d_15">
      <path d="M 57.6 248.715771 
L 414.72 248.715771 
" clip-path="url(#p69614c129a)" style="fill: none; stroke: #b0b0b0; stroke-width: 0.8; stroke-linecap: square"/>
     </g>
     <g id="line2d_16">
      <g>
       <use xlink:href="#m9b610fb618" x="57.6" y="248.715771" style="stroke: #000000; stroke-width: 0.8"/>
      </g>
     </g>
     <g id="text_9">
      <!-- 0.05 -->
      <g transform="translate(28.334375 252.51499) scale(0.1 -0.1)">
       <use xlink:href="#DejaVuSans-30"/>
       <use xlink:href="#DejaVuSans-2e" x="63.623047"/>
       <use xlink:href="#DejaVuSans-30" x="95.410156"/>
       <use xlink:href="#DejaVuSans-35" x="159.033203"/>
      </g>
     </g>
    </g>
    <g id="ytick_3">
     <g id="line2d_17">
      <path d="M 57.6 201.943542 
L 414.72 201.943542 
" clip-path="url(#p69614c129a)" style="fill: none; stroke: #b0b0b0; stroke-width: 0.8; stroke-linecap: square"/>
     </g>
     <g id="line2d_18">
      <g>
       <use xlink:href="#m9b610fb618" x="57.6" y="201.943542" style="stroke: #000000; stroke-width: 0.8"/>
      </g>
     </g>
     <g id="text_10">
      <!-- 0.10 -->
      <g transform="translate(28.334375 205.742761) scale(0.1 -0.1)">
       <use xlink:href="#DejaVuSans-30"/>
       <use xlink:href="#DejaVuSans-2e" x="63.623047"/>
       <use xlink:href="#DejaVuSans-31" x="95.410156"/>
       <use xlink:href="#DejaVuSans-30" x="159.033203"/>
      </g>
     </g>
    </g>
    <g id="ytick_4">
     <g id="line2d_19">
      <path d="M 57.6 155.171313 
L 414.72 155.171313 
" clip-path="url(#p69614c129a)" style="fill: none; stroke: #b0b0b0; stroke-width: 0.8; stroke-linecap: square"/>
     </g>
     <g id="line2d_20">
      <g>
       <use xlink:href="#m9b610fb618" x="57.6" y="155.171313" style="stroke: #000000; stroke-width: 0.8"/>
      </g>
     </g>
     <g id="text_11">
      <!-- 0.15 -->
      <g transform="translate(28.334375 158.970532) scale(0.1 -0.1)">
       <use xlink:href="#DejaVuSans-30"/>
       <use xlink:href="#DejaVuSans-2e" x="63.623047"/>
       <use xlink:href="#DejaVuSans-31" x="95.410156"/>
       <use xlink:href="#DejaVuSans-35" x="159.033203"/>
      </g>
     </g>
    </g>
    <g id="ytick_5">
     <g id="line2d_21">
      <path d="M 57.6 108.399084 
L 414.72 108.399084 
" clip-path="url(#p69614c129a)" style="fill: none; stroke: #b0b0b0; stroke-width: 0.8; stroke-linecap: square"/>
     </g>
     <g id="line2d_22">
      <g>
       <use xlink:href="#m9b610fb618" x="57.6" y="108.399084" style="stroke: #000000; stroke-width: 0.8"/>
      </g>
     </g>
     <g id="text_12">
      <!-- 0.20 -->
      <g transform="translate(28.334375 112.198303) scale(0.1 -0.1)">
       <use xlink:href="#DejaVuSans-30"/>
       <use xlink:href="#DejaVuSans-2e" x="63.623047"/>
       <use xlink:href="#DejaVuSans-32" x="95.410156"/>
       <use xlink:href="#DejaVuSans-30" x="159.033203"/>
      </g>
     </g>
    </g>
    <g id="ytick_6">
     <g id="line2d_23">
      <path d="M 57.6 61.626855 
L 414.72 61.626855 
" clip-path="url(#p69614c129a)" style="fill: none; stroke: #b0b0b0; stroke-width: 0.8; stroke-linecap: square"/>
     </g>
     <g id="line2d_24">
      <g>
       <use xlink:href="#m9b610fb618" x="57.6" y="61.626855" style="stroke: #000000; stroke-width: 0.8"/>
      </g>
     </g>
     <g id="text_13">
      <!-- 0.25 -->
      <g transform="translate(28.334375 65.426074) scale(0.1 -0.1)">
       <use xlink:href="#DejaVuSans-30"/>
       <use xlink:href="#DejaVuSans-2e" x="63.623047"/>
       <use xlink:href="#DejaVuSans-32" x="95.410156"/>
       <use xlink:href="#DejaVuSans-35" x="159.033203"/>
      </g>
     </g>
    </g>
    <g id="text_14">
     <!-- Tracking error(m) -->
     <g transform="translate(22.254687 217.803781) rotate(-90) scale(0.1 -0.1)">
      <defs>
       <path id="DejaVuSans-72" d="M 2631 2963 
Q 2534 3019 2420 3045 
Q 2306 3072 2169 3072 
Q 1681 3072 1420 2755 
Q 1159 2438 1159 1844 
L 1159 0 
L 581 0 
L 581 3500 
L 1159 3500 
L 1159 2956 
Q 1341 3275 1631 3429 
Q 1922 3584 2338 3584 
Q 2397 3584 2469 3576 
Q 2541 3569 2628 3553 
L 2631 2963 
z
" transform="scale(0.015625)"/>
       <path id="DejaVuSans-61" d="M 2194 1759 
Q 1497 1759 1228 1600 
Q 959 1441 959 1056 
Q 959 750 1161 570 
Q 1363 391 1709 391 
Q 2188 391 2477 730 
Q 2766 1069 2766 1631 
L 2766 1759 
L 2194 1759 
z
M 3341 1997 
L 3341 0 
L 2766 0 
L 2766 531 
Q 2569 213 2275 61 
Q 1981 -91 1556 -91 
Q 1019 -91 701 211 
Q 384 513 384 1019 
Q 384 1609 779 1909 
Q 1175 2209 1959 2209 
L 2766 2209 
L 2766 2266 
Q 2766 2663 2505 2880 
Q 2244 3097 1772 3097 
Q 1472 3097 1187 3025 
Q 903 2953 641 2809 
L 641 3341 
Q 956 3463 1253 3523 
Q 1550 3584 1831 3584 
Q 2591 3584 2966 3190 
Q 3341 2797 3341 1997 
z
" transform="scale(0.015625)"/>
       <path id="DejaVuSans-63" d="M 3122 3366 
L 3122 2828 
Q 2878 2963 2633 3030 
Q 2388 3097 2138 3097 
Q 1578 3097 1268 2742 
Q 959 2388 959 1747 
Q 959 1106 1268 751 
Q 1578 397 2138 397 
Q 2388 397 2633 464 
Q 2878 531 3122 666 
L 3122 134 
Q 2881 22 2623 -34 
Q 2366 -91 2075 -91 
Q 1284 -91 818 406 
Q 353 903 353 1747 
Q 353 2603 823 3093 
Q 1294 3584 2113 3584 
Q 2378 3584 2631 3529 
Q 2884 3475 3122 3366 
z
" transform="scale(0.015625)"/>
       <path id="DejaVuSans-6b" d="M 581 4863 
L 1159 4863 
L 1159 1991 
L 2875 3500 
L 3609 3500 
L 1753 1863 
L 3688 0 
L 2938 0 
L 1159 1709 
L 1159 0 
L 581 0 
L 581 4863 
z
" transform="scale(0.015625)"/>
       <path id="DejaVuSans-6e" d="M 3513 2113 
L 3513 0 
L 2938 0 
L 2938 2094 
Q 2938 2591 2744 2837 
Q 2550 3084 2163 3084 
Q 1697 3084 1428 2787 
Q 1159 2491 1159 1978 
L 1159 0 
L 581 0 
L 581 3500 
L 1159 3500 
L 1159 2956 
Q 1366 3272 1645 3428 
Q 1925 3584 2291 3584 
Q 2894 3584 3203 3211 
Q 3513 2838 3513 2113 
z
" transform="scale(0.015625)"/>
       <path id="DejaVuSans-67" d="M 2906 1791 
Q 2906 2416 2648 2759 
Q 2391 3103 1925 3103 
Q 1463 3103 1205 2759 
Q 947 2416 947 1791 
Q 947 1169 1205 825 
Q 1463 481 1925 481 
Q 2391 481 2648 825 
Q 2906 1169 2906 1791 
z
M 3481 434 
Q 3481 -459 3084 -895 
Q 2688 -1331 1869 -1331 
Q 1566 -1331 1297 -1286 
Q 1028 -1241 775 -1147 
L 775 -588 
Q 1028 -725 1275 -790 
Q 1522 -856 1778 -856 
Q 2344 -856 2625 -561 
Q 2906 -266 2906 331 
L 2906 616 
Q 2728 306 2450 153 
Q 2172 0 1784 0 
Q 1141 0 747 490 
Q 353 981 353 1791 
Q 353 2603 747 3093 
Q 1141 3584 1784 3584 
Q 2172 3584 2450 3431 
Q 2728 3278 2906 2969 
L 2906 3500 
L 3481 3500 
L 3481 434 
z
" transform="scale(0.015625)"/>
       <path id="DejaVuSans-20" transform="scale(0.015625)"/>
       <path id="DejaVuSans-6f" d="M 1959 3097 
Q 1497 3097 1228 2736 
Q 959 2375 959 1747 
Q 959 1119 1226 758 
Q 1494 397 1959 397 
Q 2419 397 2687 759 
Q 2956 1122 2956 1747 
Q 2956 2369 2687 2733 
Q 2419 3097 1959 3097 
z
M 1959 3584 
Q 2709 3584 3137 3096 
Q 3566 2609 3566 1747 
Q 3566 888 3137 398 
Q 2709 -91 1959 -91 
Q 1206 -91 779 398 
Q 353 888 353 1747 
Q 353 2609 779 3096 
Q 1206 3584 1959 3584 
z
" transform="scale(0.015625)"/>
      </defs>
      <use xlink:href="#DejaVuSans-54"/>
      <use xlink:href="#DejaVuSans-72" x="46.333984"/>
      <use xlink:href="#DejaVuSans-61" x="87.447266"/>
      <use xlink:href="#DejaVuSans-63" x="148.726562"/>
      <use xlink:href="#DejaVuSans-6b" x="203.707031"/>
      <use xlink:href="#DejaVuSans-69" x="261.617188"/>
      <use xlink:href="#DejaVuSans-6e" x="289.400391"/>
      <use xlink:href="#DejaVuSans-67" x="352.779297"/>
      <use xlink:href="#DejaVuSans-20" x="416.255859"/>
      <use xlink:href="#DejaVuSans-65" x="448.042969"/>
      <use xlink:href="#DejaVuSans-72" x="509.566406"/>
      <use xlink:href="#DejaVuSans-72" x="548.929688"/>
      <use xlink:href="#DejaVuSans-6f" x="587.792969"/>
      <use xlink:href="#DejaVuSans-72" x="648.974609"/>
      <use xlink:href="#DejaVuSans-28" x="690.087891"/>
      <use xlink:href="#DejaVuSans-6d" x="729.101562"/>
      <use xlink:href="#DejaVuSans-29" x="826.513672"/>
     </g>
    </g>
   </g>
   <g id="line2d_25">
    <path d="M 73.832727 193.227069 
L 73.832727 191.234572 
L 74.297515 277.822129 
L 74.52991 277.491917 
L 74.52991 277.554592 
L 75.227092 199.565642 
L 75.227092 200.293418 
L 75.459486 192.645223 
L 75.459486 187.385218 
L 76.156668 165.80077 
L 76.156668 171.042066 
L 76.389062 163.450933 
L 76.389062 165.072994 
L 76.621456 162.433169 
L 76.621456 168.108512 
L 76.85385 164.997223 
L 76.85385 171.480789 
L 77.086245 172.744575 
L 77.086245 169.851245 
L 77.318639 171.535045 
L 77.318639 174.037359 
L 77.551033 177.893262 
L 77.551033 181.299216 
L 77.783427 185.240244 
L 77.783427 182.997983 
L 78.015821 189.112049 
L 78.015821 192.877213 
L 78.248215 203.545959 
L 78.248215 196.920205 
L 78.480609 202.409393 
L 78.480609 207.522533 
L 78.713003 210.732044 
L 78.713003 208.827479 
L 79.177791 231.698163 
L 79.177791 228.80951 
L 79.410185 231.203313 
L 79.410185 237.336088 
L 79.64258 235.126568 
L 79.64258 242.355683 
L 79.874974 248.517457 
L 80.107368 260.247932 
L 80.107368 257.535143 
L 80.339762 263.753043 
L 80.572156 261.719386 
L 80.572156 262.11695 
L 80.80455 274.758548 
L 80.80455 273.876424 
L 81.036944 281.255211 
L 81.036944 276.777238 
L 81.269338 280.35999 
L 81.269338 280.220609 
L 81.501732 287.207445 
L 81.501732 281.378689 
L 81.734126 289.798626 
L 81.734126 281.850153 
L 81.96652 293.547888 
L 81.96652 292.80608 
L 82.198915 292.081111 
L 82.198915 294.021223 
L 82.431309 295.488 
L 82.431309 295.488 
L 82.663703 285.56761 
L 82.896097 292.72189 
L 83.128491 286.080234 
L 83.128491 288.501164 
L 83.360885 285.141048 
L 83.360885 285.84076 
L 83.593279 295.488 
L 83.593279 295.488 
L 83.825673 288.301915 
L 83.825673 292.370163 
L 84.058067 294.107284 
L 84.058067 283.967065 
L 84.522855 294.055834 
L 84.522855 288.934275 
L 84.75525 295.488 
L 84.75525 295.488 
L 84.987644 289.673276 
L 84.987644 289.836044 
L 85.220038 290.822002 
L 85.220038 290.041842 
L 85.452432 285.895951 
L 85.452432 286.463766 
L 85.684826 287.189671 
L 85.684826 289.631181 
L 85.91722 282.598509 
L 85.91722 295.488 
L 86.149614 284.274826 
L 86.382008 288.922114 
L 86.382008 279.0644 
L 86.614402 283.50589 
L 86.614402 283.216838 
L 86.846796 281.685515 
L 86.846796 277.473208 
L 87.07919 275.389038 
L 87.07919 286.347771 
L 87.311585 273.409637 
L 87.311585 280.345023 
L 87.776373 271.230051 
L 87.776373 271.678129 
L 88.008767 270.833423 
L 88.008767 275.313267 
L 88.473555 263.227323 
L 88.473555 268.18705 
L 88.705949 265.939177 
L 88.705949 263.513569 
L 88.938343 267.746456 
L 89.170737 259.721276 
L 89.170737 261.416302 
L 89.403131 265.402231 
L 89.403131 255.408877 
L 89.635525 256.280711 
L 89.635525 268.595839 
L 89.86792 252.210592 
L 89.86792 263.320867 
L 90.100314 256.247035 
L 90.100314 251.474397 
L 90.332708 268.411557 
L 90.332708 258.206792 
L 90.565102 266.680984 
L 90.565102 265.318977 
L 90.797496 261.141281 
L 90.797496 263.046782 
L 91.02989 270.524726 
L 91.02989 269.003693 
L 91.262284 267.813808 
L 91.262284 264.10477 
L 91.494678 261.260083 
L 91.494678 277.244024 
L 91.727072 259.395742 
L 91.959466 268.659449 
L 91.959466 266.608955 
L 92.19186 265.97753 
L 92.19186 272.911981 
L 92.424255 269.174879 
L 92.424255 275.640672 
L 92.656649 275.701476 
L 92.656649 278.564872 
L 92.889043 273.61637 
L 92.889043 277.1299 
L 93.121437 277.441403 
L 93.121437 272.323586 
L 93.353831 281.080283 
L 93.353831 279.16075 
L 93.586225 275.243108 
L 93.586225 266.521959 
L 93.818619 280.591045 
L 94.051013 273.698689 
L 94.051013 269.162719 
L 94.283407 277.326343 
L 94.748195 264.815708 
L 94.748195 271.752029 
L 94.98059 278.43391 
L 94.98059 273.548083 
L 95.212984 279.477866 
L 95.212984 287.494626 
L 95.445378 278.458231 
L 95.677772 285.909048 
L 95.677772 278.03541 
L 95.910166 292.762114 
L 95.910166 290.399181 
L 96.14256 290.887484 
L 96.14256 285.93524 
L 96.374954 286.842621 
L 96.374954 283.344994 
L 96.607348 291.865959 
L 96.607348 278.92876 
L 96.839742 284.665842 
L 96.839742 291.240146 
L 97.072136 287.051225 
L 97.072136 287.483401 
L 97.30453 294.07922 
L 97.30453 288.599386 
L 97.536925 284.882865 
L 97.536925 289.079269 
L 97.769319 295.326168 
L 97.769319 291.569423 
L 98.001713 291.150343 
L 98.001713 292.27849 
L 98.234107 291.026865 
L 98.234107 285.432906 
L 98.466501 293.262577 
L 98.466501 288.350558 
L 98.698895 288.796765 
L 98.698895 285.239269 
L 98.931289 293.975386 
L 98.931289 290.927708 
L 99.163683 286.557311 
L 99.396077 280.955868 
L 99.628471 295.488 
L 99.628471 283.329091 
L 99.860865 277.606977 
L 99.860865 282.580736 
L 100.09326 276.050397 
L 100.558048 260.377959 
L 100.558048 265.380716 
L 100.790442 260.777393 
L 100.790442 261.303113 
L 101.022836 264.490173 
L 101.022836 258.581905 
L 101.25523 253.519279 
L 101.25523 249.999201 
L 101.487624 254.366792 
L 101.487624 247.833647 
L 101.720018 247.441695 
L 101.720018 241.517525 
L 101.952412 241.891703 
L 101.952412 245.075021 
L 102.184806 250.630626 
L 102.184806 243.626017 
L 102.4172 240.609208 
L 102.4172 241.8758 
L 102.649595 232.730894 
L 102.881989 239.054499 
L 102.881989 235.7318 
L 103.114383 237.945998 
L 103.114383 242.438002 
L 103.346777 225.280078 
L 103.579171 243.554923 
L 103.579171 222.357749 
L 103.811565 238.244404 
L 103.811565 226.499898 
L 104.043959 232.495162 
L 104.043959 232.178982 
L 104.276353 224.093934 
L 104.276353 233.133135 
L 104.508747 228.64113 
L 104.508747 223.488702 
L 104.741141 223.40077 
L 104.741141 224.034066 
L 104.973535 222.365233 
L 104.973535 220.289481 
L 105.20593 223.901233 
L 105.20593 222.624351 
L 105.438324 222.628093 
L 105.438324 218.999503 
L 105.670718 215.793734 
L 105.670718 217.412054 
L 105.903112 222.703864 
L 105.903112 219.481257 
L 106.135506 213.660921 
L 106.135506 217.052843 
L 106.3679 220.861038 
L 106.3679 217.914387 
L 106.600294 221.809579 
L 106.600294 220.773106 
L 106.832688 219.618767 
L 106.832688 221.836706 
L 107.065082 225.062119 
L 107.065082 220.389574 
L 107.297476 219.176302 
L 107.297476 227.757135 
L 107.529871 232.712185 
L 107.529871 223.019108 
L 107.762265 230.987225 
L 107.762265 221.183766 
L 108.227053 243.86362 
L 108.227053 228.193988 
L 108.691841 250.422022 
L 108.924235 246.284551 
L 108.924235 251.392078 
L 109.156629 254.508044 
L 109.156629 258.612775 
L 109.389023 265.971917 
L 109.389023 259.688536 
L 109.621417 266.585569 
L 110.086206 284.355274 
L 110.086206 280.465695 
L 110.3186 284.781837 
L 110.550994 294.780804 
L 110.550994 286.953939 
L 110.783388 293.55163 
L 111.015782 294.127864 
L 111.015782 288.08115 
L 111.248176 281.523683 
L 111.248176 289.535766 
L 111.48057 284.133574 
L 111.48057 280.482533 
L 111.712964 271.640711 
L 111.945358 267.670685 
L 111.945358 274.965281 
L 112.177752 260.604336 
L 112.177752 266.006529 
L 112.410146 262.349876 
L 112.410146 260.113228 
L 112.874935 269.607055 
L 112.874935 259.016887 
L 113.107329 254.306923 
L 113.107329 256.864429 
L 113.339723 260.941096 
L 113.572117 257.384536 
L 113.572117 261.437817 
L 113.804511 262.302168 
L 113.804511 257.069291 
L 114.036905 255.511776 
L 114.036905 252.797116 
L 114.269299 256.833559 
L 114.269299 260.533242 
L 114.501693 259.260102 
L 114.501693 265.738991 
L 114.734087 256.143201 
L 114.734087 257.666105 
L 114.966481 265.130017 
L 114.966481 264.611781 
L 115.198876 258.591259 
L 115.198876 251.352789 
L 115.43127 266.854041 
L 115.663664 273.796911 
L 115.663664 269.63886 
L 115.896058 273.25716 
L 115.896058 266.415318 
L 116.128452 272.240331 
L 116.128452 266.839074 
L 116.360846 274.085028 
L 116.59324 285.192497 
L 116.59324 278.341301 
L 116.825634 276.956843 
L 116.825634 284.075576 
L 117.058028 289.295357 
L 117.058028 284.372112 
L 117.290422 283.652755 
L 117.290422 290.567562 
L 117.522816 285.21027 
L 117.755211 294.832253 
L 117.755211 289.944555 
L 117.987605 295.488 
L 117.987605 295.488 
L 118.219999 290.704136 
L 118.219999 295.124112 
L 118.452393 288.506777 
L 118.452393 288.571323 
L 118.684787 287.948317 
L 118.684787 287.991347 
L 118.917181 291.750899 
L 118.917181 284.490914 
L 119.149575 283.496536 
L 119.149575 288.873471 
L 119.381969 285.322524 
L 119.381969 291.820122 
L 119.614363 275.666865 
L 119.614363 283.372122 
L 119.846757 284.218699 
L 119.846757 277.551786 
L 120.079151 289.17562 
L 120.311546 284.997924 
L 120.311546 281.952117 
L 120.54394 279.93904 
L 120.54394 281.420784 
L 120.776334 285.555449 
L 120.776334 295.419713 
L 121.008728 289.094236 
L 121.008728 276.151425 
L 121.241122 277.94935 
L 121.241122 284.312244 
L 121.473516 295.488 
L 121.473516 287.121384 
L 121.70591 286.688273 
L 121.70591 286.025978 
L 122.170698 288.56571 
L 122.170698 289.590022 
L 122.403092 293.42628 
L 122.403092 282.660248 
L 122.635486 295.488 
L 122.635486 295.488 
L 122.867881 289.251391 
L 122.867881 285.739732 
L 123.100275 290.929579 
L 123.100275 293.756492 
L 123.332669 293.613369 
L 123.332669 287.939898 
L 123.565063 290.457179 
L 123.565063 294.413174 
L 123.797457 282.87353 
L 123.797457 289.978231 
L 124.029851 293.216741 
L 124.029851 295.114758 
L 124.262245 289.995069 
L 124.262245 291.278499 
L 124.494639 289.646149 
L 124.494639 294.302792 
L 124.727033 294.332726 
L 124.727033 294.071737 
L 124.959427 295.488 
L 124.959427 283.617208 
L 125.424216 288.644287 
L 125.65661 286.445057 
L 125.65661 286.9661 
L 125.889004 275.133661 
L 126.121398 284.635907 
L 126.121398 277.837096 
L 126.353792 277.91848 
L 126.353792 277.388083 
L 126.586186 283.551727 
L 126.586186 276.67621 
L 126.81858 272.67999 
L 126.81858 268.295562 
L 127.050974 277.185091 
L 127.050974 272.791308 
L 127.283368 273.534051 
L 127.283368 275.766957 
L 127.515762 276.47696 
L 127.515762 276.984906 
L 127.748156 270.505082 
L 127.748156 271.422753 
L 127.980551 279.288906 
L 127.980551 269.685632 
L 128.212945 265.035537 
L 128.212945 275.431133 
L 128.445339 276.028882 
L 128.445339 268.684706 
L 128.677733 266.927942 
L 128.677733 273.285223 
L 128.910127 267.700619 
L 128.910127 273.881101 
L 129.142521 260.557564 
L 129.142521 270.647269 
L 129.374915 271.085993 
L 129.374915 263.587469 
L 129.607309 262.166529 
L 129.607309 270.791328 
L 129.839703 257.928029 
L 129.839703 270.17487 
L 130.072097 261.588424 
L 130.072097 261.887766 
L 130.304491 260.931742 
L 130.304491 262.832565 
L 130.536886 261.478041 
L 130.536886 266.111298 
L 130.76928 264.775484 
L 130.76928 267.656653 
L 131.001674 265.373233 
L 131.001674 266.763303 
L 131.234068 264.816643 
L 131.234068 259.084239 
L 131.466462 271.369432 
L 131.466462 267.284346 
L 131.698856 265.319912 
L 131.698856 260.726879 
L 131.93125 274.953121 
L 131.93125 260.926129 
L 132.163644 266.34516 
L 132.163644 270.310509 
L 132.396038 278.751026 
L 132.396038 283.928711 
L 132.628432 277.939995 
L 132.628432 279.361871 
L 132.860826 279.25523 
L 132.860826 280.283284 
L 133.093221 287.460015 
L 133.093221 279.838012 
L 133.325615 286.720078 
L 133.558009 282.05408 
L 133.558009 287.230831 
L 133.790403 284.712614 
L 133.790403 290.62743 
L 134.022797 291.877184 
L 134.022797 293.478665 
L 134.255191 291.78551 
L 134.255191 287.667683 
L 134.487585 295.488 
L 134.487585 289.05027 
L 134.719979 295.210173 
L 134.719979 294.76303 
L 134.952373 293.472117 
L 134.952373 291.389817 
L 135.184767 292.33181 
L 135.184767 285.786504 
L 135.417161 287.783678 
L 135.417161 286.711659 
L 135.649556 289.232682 
L 135.649556 293.648916 
L 136.114344 278.391815 
L 136.114344 287.290699 
L 136.346738 281.278597 
L 136.346738 288.83886 
L 136.579132 275.933467 
L 136.579132 280.497501 
L 136.811526 269.93259 
L 136.811526 270.095357 
L 137.04392 271.948473 
L 137.04392 266.74553 
L 137.276314 272.50132 
L 137.276314 267.598655 
L 137.508708 259.997233 
L 137.508708 268.810056 
L 137.741102 265.689413 
L 137.741102 263.71656 
L 137.973496 267.454597 
L 137.973496 264.057062 
L 138.205891 257.87658 
L 138.438285 259.259167 
L 138.438285 257.232994 
L 138.670679 257.289121 
L 138.670679 255.087084 
L 138.903073 262.825082 
L 138.903073 261.29563 
L 139.135467 248.327562 
L 139.135467 252.470646 
L 139.367861 256.152555 
L 139.367861 260.647367 
L 139.600255 251.466914 
L 139.600255 256.84572 
L 139.832649 242.249978 
L 139.832649 245.197564 
L 140.065043 244.744809 
L 140.065043 247.738231 
L 140.297437 248.819605 
L 140.297437 248.632516 
L 140.529831 245.762572 
L 140.529831 250.764395 
L 140.762226 243.069428 
L 140.762226 245.257432 
L 140.99462 246.171362 
L 140.99462 235.944146 
L 141.227014 232.821632 
L 141.459408 240.426797 
L 141.459408 237.548434 
L 141.691802 240.332317 
L 141.924196 234.840322 
L 141.924196 240.581145 
L 142.15659 243.573632 
L 142.15659 232.845954 
L 142.388984 233.830041 
L 142.388984 237.576497 
L 142.621378 238.576487 
L 142.621378 235.1116 
L 142.853772 241.091898 
L 142.853772 229.929238 
L 143.086166 241.345403 
L 143.086166 232.16495 
L 143.318561 238.653194 
L 143.318561 231.222022 
L 143.550955 241.745773 
L 143.550955 253.552019 
L 143.783349 249.192848 
L 143.783349 240.797233 
L 144.015743 256.072107 
L 144.015743 244.734519 
L 144.248137 245.471649 
L 144.248137 251.250826 
L 144.480531 260.374217 
L 144.480531 258.359269 
L 144.712925 260.085164 
L 144.712925 261.227342 
L 144.945319 281.007318 
L 145.177713 280.395537 
L 145.177713 283.587274 
L 145.410107 290.935191 
L 145.642501 289.761208 
L 145.642501 293.2579 
L 145.874896 293.966032 
L 145.874896 284.015708 
L 146.10729 292.27849 
L 146.10729 289.688244 
L 146.339684 287.746261 
L 146.339684 283.098037 
L 146.572078 286.475927 
L 146.572078 283.700463 
L 146.804472 283.005428 
L 146.804472 291.120409 
L 147.036866 284.712614 
L 147.036866 290.922095 
L 147.26926 293.299995 
L 147.26926 289.446899 
L 147.501654 291.474943 
L 147.501654 288.3543 
L 147.966442 277.688361 
L 148.198836 282.518996 
L 148.431231 276.873588 
L 148.431231 279.22249 
L 148.663625 277.215026 
L 148.663625 284.369306 
L 148.896019 285.605028 
L 148.896019 273.074748 
L 149.128413 284.243021 
L 149.360807 283.055006 
L 149.360807 286.575084 
L 149.593201 292.430967 
L 149.593201 284.023191 
L 149.825595 295.076404 
L 150.057989 294.513267 
L 150.057989 288.693866 
L 150.290383 287.454402 
L 150.290383 287.758421 
L 150.522777 280.04381 
L 150.755171 277.810904 
L 150.755171 286.414188 
L 150.987566 274.35163 
L 150.987566 275.358168 
L 151.21996 278.321657 
L 151.452354 276.911942 
L 151.452354 271.403108 
L 151.684748 275.680896 
L 151.684748 279.070012 
L 151.917142 274.504107 
L 151.917142 280.300122 
L 152.149536 279.987683 
L 152.149536 282.463805 
L 152.38193 275.16266 
L 152.38193 275.16266 
L 152.614324 279.67618 
L 152.614324 274.239376 
L 152.846718 278.251498 
L 152.846718 274.917574 
L 153.079112 277.914738 
L 153.543901 269.986845 
L 153.543901 274.954056 
L 153.776295 267.615493 
L 153.776295 274.764161 
L 154.008689 270.687493 
L 154.008689 268.115021 
L 154.241083 266.927006 
L 154.241083 267.678168 
L 154.473477 264.099157 
L 154.473477 265.766119 
L 154.705871 264.784838 
L 154.705871 260.745588 
L 154.938265 256.386417 
L 154.938265 256.574441 
L 155.170659 255.81486 
L 155.170659 260.955128 
L 155.403053 252.371488 
L 155.403053 255.410748 
L 155.635447 254.061837 
L 155.635447 251.088994 
L 155.867841 247.899128 
L 156.100236 244.394017 
L 156.100236 245.265851 
L 156.33263 244.383727 
L 156.33263 243.840234 
L 156.565024 237.313637 
L 156.565024 238.798188 
L 156.797418 235.902051 
L 156.797418 233.495152 
L 157.029812 230.512955 
L 157.029812 232.479259 
L 157.262206 225.226758 
L 157.262206 227.754329 
L 157.4946 222.989174 
L 157.4946 225.911503 
L 157.959388 213.824624 
L 157.959388 215.231532 
L 158.191782 214.834904 
L 158.191782 215.170728 
L 158.424176 214.828356 
L 158.424176 213.247454 
L 158.656571 210.036073 
L 158.656571 212.578611 
L 158.888965 211.57675 
L 158.888965 209.440195 
L 159.121359 207.35696 
L 159.353753 213.5337 
L 159.353753 209.46171 
L 159.586147 210.710529 
L 159.586147 211.87048 
L 159.818541 219.439162 
L 159.818541 217.746007 
L 160.050935 211.357856 
L 160.283329 214.158577 
L 160.283329 218.396141 
L 160.515723 221.394241 
L 160.515723 217.255834 
L 160.748117 214.423308 
L 160.748117 217.560789 
L 160.980511 228.128507 
L 161.212906 223.174392 
L 161.212906 228.987245 
L 161.4453 227.804843 
L 161.4453 229.752438 
L 161.677694 230.907713 
L 161.677694 233.643888 
L 161.910088 238.178923 
L 161.910088 233.775786 
L 162.142482 238.902022 
L 162.142482 246.944974 
L 162.374876 245.808409 
L 162.374876 251.798061 
L 162.60727 247.906611 
L 162.60727 255.58287 
L 162.839664 255.165661 
L 162.839664 253.119844 
L 163.536846 281.677096 
L 163.536846 283.289803 
L 163.769241 289.126977 
L 164.001635 295.409423 
L 164.234029 289.446899 
L 164.234029 294.346758 
L 164.466423 278.800604 
L 164.466423 295.488 
L 164.698817 295.203625 
L 164.698817 289.182168 
L 164.931211 293.428151 
L 164.931211 292.5638 
L 165.163605 294.448721 
L 165.163605 291.315917 
L 165.395999 292.23733 
L 165.395999 291.639581 
L 165.628393 288.593773 
L 165.628393 290.883742 
L 165.860787 285.0316 
L 165.860787 294.704097 
L 166.093181 287.758421 
L 166.093181 294.24573 
L 166.325576 289.358032 
L 166.325576 281.595713 
L 166.55797 281.667742 
L 166.55797 289.968877 
L 166.790364 289.490865 
L 166.790364 291.942665 
L 167.022758 290.410407 
L 167.022758 278.773476 
L 167.255152 295.488 
L 167.255152 295.488 
L 167.71994 291.714417 
L 167.71994 288.18592 
L 167.952334 277.798743 
L 167.952334 286.705111 
L 168.184728 275.431133 
L 168.184728 277.53027 
L 168.417122 277.262733 
L 168.417122 282.489062 
L 168.649516 275.776312 
L 168.649516 269.583669 
L 168.881911 272.042952 
L 168.881911 268.065442 
L 169.114305 256.637116 
L 169.114305 261.956054 
L 169.346699 262.72686 
L 169.346699 254.663328 
L 169.579093 265.098212 
L 169.579093 260.485535 
L 170.043881 243.104039 
L 170.043881 248.501554 
L 170.276275 237.859001 
L 170.276275 243.795333 
L 170.508669 234.099449 
L 170.508669 241.501622 
L 170.973457 229.835693 
L 170.973457 234.740229 
L 171.205851 229.643927 
L 171.205851 237.074163 
L 171.438246 232.147177 
L 171.438246 226.901203 
L 171.67064 255.649286 
L 171.67064 233.531635 
L 171.903034 253.086168 
L 171.903034 244.972122 
L 172.135428 247.721393 
L 172.135428 232.751474 
L 172.367822 242.592351 
L 172.367822 238.940375 
L 172.600216 240.714914 
L 172.600216 250.298543 
L 172.83261 264.949476 
L 173.065004 269.210426 
L 173.065004 269.185169 
L 173.297398 265.396619 
L 173.297398 260.365798 
L 173.529792 275.102792 
L 173.529792 265.189886 
L 173.762187 261.577199 
L 173.762187 266.099138 
L 173.994581 278.781895 
L 173.994581 271.214149 
L 174.226975 278.702382 
L 174.226975 278.019508 
L 174.459369 272.035469 
L 174.459369 286.032526 
L 174.691763 279.765048 
L 174.691763 275.580804 
L 174.924157 287.383308 
L 174.924157 284.39924 
L 175.156551 287.783678 
L 175.156551 295.470227 
L 175.388945 288.337462 
L 175.388945 282.867917 
L 175.621339 289.389837 
L 175.621339 281.27392 
L 175.853733 285.569481 
L 175.853733 289.043722 
L 176.086127 295.103532 
L 176.318522 292.592799 
L 176.318522 293.788297 
L 176.550916 295.488 
L 176.550916 295.488 
L 176.78331 294.415981 
L 176.78331 289.09143 
L 177.015704 283.586339 
L 177.015704 288.632127 
L 177.248098 287.361793 
L 177.248098 285.254236 
L 177.480492 293.19429 
L 177.480492 282.967074 
L 177.712886 281.183181 
L 177.712886 287.434758 
L 177.94528 295.488 
L 177.94528 270.760458 
L 178.177674 284.754709 
L 178.177674 271.813769 
L 178.410068 276.791269 
L 178.642462 265.837213 
L 178.642462 278.530261 
L 178.874857 274.995216 
L 178.874857 265.152468 
L 179.107251 269.601442 
L 179.107251 266.311484 
L 179.339645 259.391065 
L 179.339645 262.975688 
L 179.572039 258.362076 
L 179.572039 251.865413 
L 179.804433 256.516443 
L 179.804433 243.493184 
L 180.036827 252.256429 
L 180.036827 248.023542 
L 180.269221 231.839415 
L 180.269221 238.23505 
L 180.501615 241.893574 
L 180.501615 235.555001 
L 180.734009 228.971342 
L 180.734009 234.342665 
L 180.966403 218.586972 
L 180.966403 227.689783 
L 181.198797 230.001267 
L 181.198797 221.809579 
L 181.431192 219.347488 
L 181.431192 221.109866 
L 181.89598 214.022938 
L 181.89598 203.637632 
L 182.128374 208.864896 
L 182.360768 198.152185 
L 182.360768 207.393442 
L 182.593162 208.90325 
L 182.593162 213.402738 
L 182.825556 208.254051 
L 182.825556 204.987479 
L 183.05795 203.866816 
L 183.05795 216.157622 
L 183.290344 198.496429 
L 183.290344 205.163342 
L 183.522738 209.412132 
L 183.522738 207.081004 
L 183.755132 191.041871 
L 183.755132 203.198909 
L 183.987527 205.545939 
L 183.987527 207.580531 
L 184.219921 207.10439 
L 184.219921 190.215873 
L 184.452315 200.053944 
L 184.452315 193.665793 
L 184.684709 188.303825 
L 184.917103 173.351678 
L 184.917103 185.586358 
L 185.149497 181.429242 
L 185.149497 175.864283 
L 185.381891 180.677145 
L 185.381891 165.476171 
L 185.614285 161.798938 
L 185.614285 164.829778 
L 185.846679 166.839113 
L 186.079073 156.092726 
L 186.079073 159.948629 
L 186.311467 151.350957 
L 186.311467 154.370572 
L 186.543862 149.854246 
L 186.543862 163.699761 
L 186.776256 152.184438 
L 186.776256 156.702636 
L 187.00865 155.45943 
L 187.00865 149.755089 
L 187.241044 148.91506 
L 187.473438 152.979566 
L 187.473438 157.40609 
L 187.705832 147.238743 
L 187.938226 157.594114 
L 188.17062 144.597983 
L 188.17062 157.22742 
L 188.403014 150.737306 
L 188.403014 150.883235 
L 188.635408 151.698943 
L 188.635408 150.884171 
L 188.867802 143.426806 
L 188.867802 143.819693 
L 189.100197 144.570855 
L 189.100197 144.414636 
L 189.332591 135.014353 
L 189.564985 137.999357 
L 189.564985 137.736497 
L 189.797379 138.566236 
L 190.029773 133.763664 
L 190.262167 138.664458 
L 190.262167 137.684112 
L 190.494561 134.893681 
L 190.959349 148.350051 
L 190.959349 146.472614 
L 191.424137 158.485593 
L 191.424137 157.178777 
L 191.656532 155.782158 
L 191.656532 155.832672 
L 191.888926 167.177744 
L 191.888926 166.72686 
L 192.12132 168.705325 
L 192.12132 168.625812 
L 192.353714 177.728624 
L 192.353714 177.483537 
L 192.586108 177.798782 
L 192.586108 183.835206 
L 192.818502 187.321608 
L 192.818502 184.09713 
L 193.050896 186.025082 
L 193.050896 190.772463 
L 193.28329 188.531138 
L 193.28329 182.828667 
L 193.515684 190.95581 
L 193.515684 196.905238 
L 193.748078 200.12878 
L 193.748078 196.183074 
L 193.980472 204.677847 
L 193.980472 200.127844 
L 194.212867 207.086616 
L 194.212867 205.194212 
L 194.445261 208.14741 
L 194.445261 213.694597 
L 194.677655 224.774938 
L 194.910049 225.435362 
L 194.910049 229.101369 
L 195.374837 245.712058 
L 195.374837 254.678295 
L 195.607231 250.994514 
L 195.607231 262.000019 
L 195.839625 265.934499 
L 195.839625 257.862548 
L 196.072019 267.340473 
L 196.072019 272.748278 
L 196.304413 281.356239 
L 196.304413 285.681734 
L 196.769202 295.488 
L 196.769202 295.488 
L 197.23399 269.216039 
L 197.23399 278.447942 
L 197.466384 269.920429 
L 197.466384 276.557408 
L 197.698778 261.485525 
L 197.698778 265.866212 
L 197.931172 262.447162 
L 197.931172 258.704448 
L 198.163566 257.169384 
L 198.163566 254.314407 
L 198.39596 241.721452 
L 198.628354 245.706446 
L 198.628354 242.089082 
L 198.860748 230.968516 
L 198.860748 239.03392 
L 199.093142 229.307167 
L 199.093142 234.079805 
L 199.790325 211.169832 
L 199.790325 215.506553 
L 200.022719 205.081959 
L 200.022719 212.292365 
L 200.255113 196.141915 
L 200.487507 190.926811 
L 200.487507 191.812677 
L 200.719901 175.823123 
L 200.952295 175.703386 
L 200.952295 177.94097 
L 201.184689 175.947537 
L 201.184689 172.994339 
L 201.417083 168.745549 
L 201.417083 169.64077 
L 201.649477 173.453642 
L 201.649477 172.542519 
L 201.881872 174.885808 
L 202.114266 168.16838 
L 202.114266 168.518236 
L 202.34666 171.741778 
L 202.34666 171.726811 
L 202.579054 173.057949 
L 202.579054 174.683752 
L 202.811448 168.813837 
L 202.811448 168.994378 
L 203.043842 167.157164 
L 203.276236 153.883206 
L 203.276236 162.09828 
L 204.438207 104.382285 
L 204.670601 80.18514 
L 204.902995 77.247844 
L 204.902995 83.726733 
L 205.135389 55.364054 
L 205.367783 64.566957 
L 205.600177 53.568 
L 205.832571 62.0899 
L 205.832571 58.547371 
L 206.064965 63.818602 
L 206.064965 62.064643 
L 206.297359 59.097413 
L 206.297359 54.175104 
L 206.529753 76.083216 
L 206.529753 62.675488 
L 206.762147 75.226348 
L 206.762147 62.372404 
L 206.994542 90.941817 
L 206.994542 84.003625 
L 207.226936 64.518314 
L 207.226936 69.935474 
L 207.45933 101.882777 
L 207.45933 87.471318 
L 207.691724 98.885613 
L 207.691724 94.968906 
L 207.924118 101.404765 
L 207.924118 104.879006 
L 208.388906 125.760935 
L 208.6213 133.040565 
L 208.6213 129.411976 
L 208.853694 144.029233 
L 208.853694 151.973963 
L 209.086088 144.032974 
L 209.086088 147.553988 
L 209.318482 151.125515 
L 209.318482 159.937403 
L 209.550877 158.792419 
L 209.550877 157.465959 
L 209.783271 148.551172 
L 209.783271 149.510002 
L 210.015665 158.633393 
L 210.015665 149.191951 
L 210.248059 155.216214 
L 210.248059 150.697082 
L 210.480453 137.457734 
L 210.480453 142.996502 
L 210.712847 152.10399 
L 210.712847 138.524141 
L 210.945241 141.696234 
L 210.945241 146.661574 
L 211.177635 152.845798 
L 211.177635 143.909496 
L 211.410029 158.080546 
L 211.642423 149.624127 
L 211.642423 154.909389 
L 211.874817 176.909174 
L 211.874817 162.576292 
L 212.107212 166.627703 
L 212.107212 185.756609 
L 212.339606 195.201793 
L 212.339606 187.528341 
L 212.572 206.151172 
L 212.572 199.195206 
L 213.269182 237.461437 
L 213.269182 230.863747 
L 213.501576 255.978563 
L 213.501576 248.242436 
L 213.73397 262.680088 
L 213.73397 259.776468 
L 213.966364 269.703406 
L 214.198758 272.819371 
L 214.198758 270.885808 
L 214.663547 293.845359 
L 214.663547 289.095172 
L 214.895941 294.935152 
L 215.128335 288.343074 
L 215.128335 285.169111 
L 215.360729 276.350675 
L 215.360729 276.860492 
L 215.593123 272.738923 
L 215.593123 273.722076 
L 215.825517 265.738991 
L 215.825517 255.910275 
L 216.057911 257.265734 
L 216.057911 247.980512 
L 216.290305 250.721364 
L 216.290305 253.407026 
L 216.522699 230.33335 
L 216.522699 237.732716 
L 216.987487 216.229652 
L 216.987487 219.477515 
L 217.68467 187.472214 
L 217.68467 189.705121 
L 217.917064 184.357184 
L 218.149458 166.493934 
L 218.149458 183.283294 
L 218.381852 171.697812 
L 218.381852 173.287133 
L 218.614246 151.509048 
L 218.614246 158.185315 
L 218.84664 155.798996 
L 218.84664 164.750266 
L 219.079034 156.675508 
L 219.079034 164.903678 
L 219.311428 150.134879 
L 219.543822 156.213398 
L 219.776217 144.752331 
L 219.776217 148.155479 
L 220.008611 142.082572 
L 220.008611 144.788814 
L 220.241005 145.836512 
L 220.241005 139.717769 
L 220.473399 143.414646 
L 220.473399 137.090105 
L 220.705793 138.049871 
L 220.705793 131.865647 
L 220.938187 131.050875 
L 220.938187 117.602923 
L 221.170581 127.052784 
L 221.170581 131.825423 
L 221.402975 106.126889 
L 221.402975 129.155664 
L 221.635369 117.561764 
L 221.867763 117.193199 
L 221.867763 110.950041 
L 222.100157 110.776984 
L 222.100157 109.523488 
L 222.332552 104.407542 
L 222.332552 110.776049 
L 222.564946 91.538631 
L 222.564946 96.551678 
L 222.79734 95.956736 
L 222.79734 97.840721 
L 223.029734 100.256039 
L 223.029734 97.287873 
L 223.262128 98.571303 
L 223.262128 93.735055 
L 223.494522 99.159698 
L 223.494522 105.091352 
L 223.726916 94.846363 
L 223.726916 95.031581 
L 224.191704 114.389671 
L 224.191704 113.440195 
L 224.424098 116.349428 
L 224.424098 114.171713 
L 224.656492 123.799308 
L 224.656492 122.578553 
L 224.888887 124.207162 
L 224.888887 123.771245 
L 225.353675 138.307118 
L 225.586069 138.327698 
L 225.586069 139.494197 
L 225.818463 144.57179 
L 226.050857 140.300551 
L 226.050857 140.67847 
L 226.283251 144.101262 
L 226.515645 144.670948 
L 226.515645 145.648487 
L 226.748039 138.53256 
L 226.748039 138.614879 
L 226.980433 140.717759 
L 227.212827 133.468999 
L 227.212827 140.810368 
L 227.445222 136.6598 
L 227.445222 137.569988 
L 227.677616 138.894577 
L 227.677616 139.849666 
L 227.91001 134.472731 
L 227.91001 134.853457 
L 228.374798 141.017101 
L 228.607192 140.496058 
L 228.607192 140.600828 
L 228.839586 143.366938 
L 228.839586 143.364132 
L 229.07198 141.85713 
L 229.07198 143.356648 
L 230.001557 161.48837 
L 230.001557 159.700736 
L 230.233951 162.985082 
L 230.233951 166.383552 
L 230.466345 174.331089 
L 230.466345 171.709038 
L 230.698739 173.982168 
L 230.698739 176.781018 
L 230.931133 183.872624 
L 230.931133 179.186046 
L 231.163527 192.832312 
L 231.163527 187.920292 
L 231.395921 189.439454 
L 231.395921 189.09334 
L 231.628315 205.556229 
L 231.860709 204.711523 
L 231.860709 191.896867 
L 232.093103 211.737647 
L 232.325497 217.996706 
L 232.325497 229.391357 
L 232.557892 220.34935 
L 232.557892 225.998499 
L 232.790286 232.526967 
L 232.790286 224.129481 
L 233.02268 232.944175 
L 233.02268 237.909515 
L 233.255074 241.268697 
L 233.255074 235.598967 
L 233.487468 243.008624 
L 233.487468 251.420141 
L 233.719862 253.404219 
L 233.719862 242.901048 
L 234.18465 260.462149 
L 234.18465 260.33867 
L 234.417044 259.987878 
L 234.417044 257.428502 
L 234.649438 264.787644 
L 234.649438 258.595937 
L 234.881832 273.928809 
L 235.114227 264.389145 
L 235.114227 273.585501 
L 235.346621 274.400273 
L 235.346621 275.759474 
L 235.579015 275.794085 
L 235.579015 281.561101 
L 235.811409 273.106553 
L 235.811409 285.448809 
L 236.043803 284.721968 
L 236.043803 276.737013 
L 236.276197 285.632156 
L 236.276197 285.604093 
L 236.508591 283.026007 
L 236.508591 280.789359 
L 236.740985 289.424448 
L 236.973379 288.349622 
L 236.973379 290.105452 
L 237.205773 295.363586 
L 237.205773 292.261652 
L 237.438168 293.002524 
L 237.438168 285.622801 
L 237.670562 289.718178 
L 237.670562 287.126996 
L 237.902956 291.864088 
L 237.902956 283.659303 
L 238.13535 287.63962 
L 238.13535 295.488 
L 238.367744 294.208312 
L 238.367744 291.252307 
L 238.600138 295.488 
L 238.600138 285.526451 
L 238.832532 292.171849 
L 239.064926 292.134431 
L 239.064926 295.25601 
L 239.29732 295.254139 
L 239.29732 288.093311 
L 239.529714 294.762095 
L 239.529714 292.537608 
L 239.762108 291.329013 
L 239.762108 287.630266 
L 239.994503 284.458173 
L 239.994503 291.25979 
L 240.226897 295.488 
L 240.226897 286.839815 
L 240.459291 286.770592 
L 240.459291 284.480624 
L 240.691685 292.863143 
L 240.691685 287.069934 
L 240.924079 292.54322 
L 241.156473 289.765886 
L 241.156473 290.423503 
L 241.388867 280.408633 
L 241.388867 292.542285 
L 241.621261 281.242114 
L 241.621261 292.354261 
L 241.853655 293.000653 
L 241.853655 287.563849 
L 242.086049 295.488 
L 242.086049 295.488 
L 242.318443 287.078353 
L 242.318443 281.910957 
L 242.550838 278.02325 
L 242.550838 286.850105 
L 242.783232 276.893233 
L 242.783232 281.081218 
L 243.015626 284.681744 
L 243.015626 282.322553 
L 243.24802 285.764054 
L 243.24802 284.59849 
L 243.480414 279.460093 
L 243.480414 282.659313 
L 243.712808 269.1543 
L 243.712808 272.104692 
L 243.945202 273.285223 
L 243.945202 278.506875 
L 244.177596 282.613476 
L 244.177596 278.784702 
L 244.40999 276.925038 
L 244.40999 261.869993 
L 244.642384 267.330183 
L 244.642384 258.174987 
L 244.874778 271.66971 
L 245.107173 256.406061 
L 245.339567 261.641744 
L 245.339567 264.894285 
L 245.571961 269.027079 
L 245.571961 262.511708 
L 245.804355 255.470616 
L 245.804355 262.847532 
L 246.036749 250.012297 
L 246.036749 257.81484 
L 246.269143 247.526821 
L 246.269143 257.232994 
L 246.501537 255.262948 
L 246.501537 249.381808 
L 246.733931 259.079562 
L 246.733931 246.382772 
L 246.966325 259.218943 
L 246.966325 248.412687 
L 247.198719 261.829769 
L 247.198719 247.119903 
L 247.431113 247.701749 
L 247.431113 251.536136 
L 247.663508 240.786943 
L 247.663508 255.821408 
L 247.895902 252.013213 
L 247.895902 258.454685 
L 248.128296 246.848624 
L 248.36069 251.250826 
L 248.36069 246.144234 
L 248.593084 244.648458 
L 248.593084 251.649325 
L 248.825478 247.216253 
L 248.825478 244.855191 
L 249.057872 237.695298 
L 249.057872 246.173233 
L 249.290266 248.40801 
L 249.290266 247.260219 
L 249.52266 248.269564 
L 249.52266 229.276297 
L 249.755054 240.451118 
L 249.755054 240.165808 
L 249.987448 245.976789 
L 250.219843 244.198509 
L 250.219843 240.65411 
L 250.452237 234.608331 
L 250.452237 238.813155 
L 250.684631 242.332297 
L 250.684631 237.631688 
L 250.917025 235.170533 
L 250.917025 228.246373 
L 251.149419 234.053613 
L 251.149419 247.824292 
L 251.381813 235.114407 
L 251.381813 240.090037 
L 251.614207 241.232214 
L 251.614207 243.69524 
L 251.846601 243.383737 
L 251.846601 241.322952 
L 252.078995 230.159357 
L 252.078995 237.300541 
L 252.311389 230.527922 
L 252.311389 235.209822 
L 252.543783 238.627937 
L 252.543783 229.890884 
L 252.776178 235.040507 
L 252.776178 241.312663 
L 253.008572 246.763498 
L 253.008572 245.821505 
L 253.240966 234.998412 
L 253.240966 244.37905 
L 253.47336 235.21637 
L 253.47336 244.791581 
L 253.705754 249.938397 
L 253.705754 241.136799 
L 253.938148 245.316365 
L 253.938148 235.956307 
L 254.170542 246.525895 
L 254.170542 240.473569 
L 254.402936 244.180736 
L 254.63533 253.065588 
L 254.63533 248.916892 
L 254.867724 243.993647 
L 254.867724 249.919688 
L 255.100118 246.147976 
L 255.100118 251.462236 
L 255.332513 245.29485 
L 255.332513 255.523001 
L 255.564907 241.237827 
L 255.797301 247.78781 
L 255.797301 246.687727 
L 256.029695 246.75695 
L 256.029695 246.060979 
L 256.262089 243.930972 
L 256.262089 247.873871 
L 256.726877 243.36877 
L 256.726877 245.518421 
L 256.959271 241.418368 
L 256.959271 249.298553 
L 257.191665 245.295786 
L 257.191665 242.316395 
L 257.424059 244.191026 
L 257.424059 237.531596 
L 257.656453 243.697111 
L 257.656453 249.468804 
L 257.888848 248.697062 
L 257.888848 248.213437 
L 258.121242 247.788745 
L 258.121242 241.838382 
L 258.353636 249.337842 
L 258.353636 241.988989 
L 258.58603 242.780375 
L 258.58603 245.363138 
L 258.818424 241.993666 
L 258.818424 251.145121 
L 259.050818 247.311669 
L 259.050818 252.532385 
L 259.283212 243.584857 
L 259.283212 252.601608 
L 259.515606 257.890611 
L 259.515606 247.56611 
L 259.748 244.30515 
L 259.748 245.923469 
L 259.980394 255.618417 
L 259.980394 249.668054 
L 260.212788 245.089052 
L 260.212788 252.339683 
L 260.445183 231.293116 
L 260.445183 245.300463 
L 260.677577 245.692414 
L 260.677577 246.512799 
L 260.909971 256.36303 
L 260.909971 236.244424 
L 261.142365 237.511951 
L 261.142365 245.017959 
L 261.374759 243.988034 
L 261.374759 247.345345 
L 261.607153 247.190996 
L 261.607153 245.681189 
L 261.839547 247.813067 
L 261.839547 255.915888 
L 262.071941 249.675537 
L 262.071941 245.326655 
L 262.304335 250.110519 
L 262.304335 245.226563 
L 262.536729 238.941311 
L 262.536729 253.118909 
L 262.769123 244.714875 
L 262.769123 253.183454 
L 263.001518 245.515615 
L 263.233912 246.04227 
L 263.233912 247.776585 
L 263.466306 246.466962 
L 263.466306 259.596862 
L 263.6987 248.635323 
L 263.931094 247.069389 
L 263.931094 247.123644 
L 264.163488 250.63811 
L 264.163488 242.431454 
L 264.395882 252.149788 
L 264.628276 247.465082 
L 264.628276 243.286451 
L 264.86067 251.568877 
L 264.86067 243.655016 
L 265.093064 255.312526 
L 265.093064 242.818728 
L 265.325458 248.570777 
L 265.325458 246.066592 
L 265.557853 241.75887 
L 265.557853 238.179859 
L 265.790247 246.85143 
L 265.790247 257.430373 
L 266.022641 238.220083 
L 266.022641 239.802855 
L 266.255035 251.755966 
L 266.255035 240.903873 
L 266.487429 248.689579 
L 266.487429 248.300434 
L 266.719823 243.60076 
L 266.719823 241.262149 
L 267.184611 249.135786 
L 267.184611 242.47542 
L 267.417005 248.888828 
L 267.417005 252.304136 
L 267.649399 240.102197 
L 267.881793 241.817803 
L 267.881793 246.815883 
L 268.114188 238.112507 
L 268.114188 239.060112 
L 268.346582 242.839308 
L 268.346582 241.814061 
L 268.578976 236.006821 
L 268.81137 240.359445 
L 268.81137 228.697257 
L 269.043764 237.383795 
L 269.043764 226.59999 
L 269.276158 230.76459 
L 269.276158 239.739245 
L 269.508552 232.874952 
L 269.508552 234.560624 
L 269.740946 239.698085 
L 269.740946 237.825325 
L 269.97334 236.728984 
L 269.97334 241.170475 
L 270.205734 229.967591 
L 270.205734 238.670967 
L 270.438128 239.768244 
L 270.438128 234.105998 
L 270.670523 237.629817 
L 270.670523 232.992819 
L 270.902917 235.008702 
L 270.902917 244.818709 
L 271.135311 231.091995 
L 271.367705 233.071396 
L 271.367705 242.381876 
L 271.600099 231.739323 
L 271.832493 232.503581 
L 271.832493 231.813223 
L 272.297281 245.406168 
L 272.297281 237.942256 
L 272.529675 247.712039 
L 272.762069 245.675576 
L 272.762069 251.294792 
L 272.994463 241.089091 
L 272.994463 242.599834 
L 273.226858 248.487523 
L 273.226858 243.109652 
L 273.459252 236.411868 
L 273.459252 250.81865 
L 273.691646 253.362124 
L 273.691646 251.161023 
L 273.92404 255.466875 
L 273.92404 263.203001 
L 274.156434 250.905647 
L 274.156434 256.990714 
L 274.388828 259.261973 
L 274.388828 253.152585 
L 274.621222 256.27884 
L 274.621222 262.865306 
L 274.853616 252.175981 
L 275.318404 261.674485 
L 275.550798 269.986845 
L 275.550798 267.680039 
L 275.783193 257.131966 
L 275.783193 260.040263 
L 276.015587 258.13944 
L 276.015587 264.044901 
L 276.247981 266.637954 
L 276.247981 260.454665 
L 276.480375 261.101057 
L 276.480375 268.215113 
L 276.712769 252.910305 
L 276.712769 265.159016 
L 276.945163 254.444434 
L 276.945163 267.686587 
L 277.409951 261.311532 
L 277.409951 255.002894 
L 277.642345 259.773661 
L 277.642345 259.608088 
L 277.874739 255.785861 
L 277.874739 261.104799 
L 278.107133 259.135688 
L 278.107133 254.398597 
L 278.339528 255.472487 
L 278.339528 257.316248 
L 278.571922 259.130076 
L 278.571922 253.003849 
L 278.804316 254.291956 
L 278.804316 256.986037 
L 279.03671 254.769968 
L 279.03671 260.819488 
L 279.269104 257.786777 
L 279.269104 262.912078 
L 279.501498 252.903756 
L 279.501498 260.094519 
L 279.733892 256.351805 
L 279.733892 258.608097 
L 279.966286 259.497705 
L 279.966286 274.778192 
L 280.19868 271.910119 
L 280.19868 265.153403 
L 280.431074 281.387108 
L 280.431074 273.692141 
L 280.663468 286.189681 
L 280.895863 287.315021 
L 280.895863 286.191552 
L 281.128257 283.664916 
L 281.128257 294.425335 
L 281.593045 268.303981 
L 281.825439 271.758577 
L 281.825439 263.215162 
L 282.057833 253.971099 
L 282.290227 243.13678 
L 282.290227 253.307868 
L 282.522621 244.196638 
L 282.522621 237.034875 
L 282.755015 239.566188 
L 282.755015 236.100365 
L 282.987409 223.890007 
L 282.987409 227.601851 
L 283.219803 222.080857 
L 283.219803 213.540248 
L 283.452198 207.97903 
L 283.452198 210.18668 
L 283.684592 194.999737 
L 283.684592 211.123995 
L 283.916986 197.22516 
L 283.916986 207.573983 
L 284.14938 190.737851 
L 284.14938 179.151435 
L 284.381774 175.433043 
L 284.381774 178.91009 
L 284.614168 177.173905 
L 284.614168 174.516307 
L 284.846562 166.107596 
L 284.846562 160.170329 
L 285.078956 156.097403 
L 285.078956 156.772794 
L 285.31135 156.203108 
L 285.31135 159.886889 
L 285.543744 157.218066 
L 285.543744 149.165759 
L 285.776138 149.786894 
L 285.776138 162.551035 
L 286.008533 154.970192 
L 286.008533 162.349915 
L 286.240927 175.553715 
L 286.240927 168.458368 
L 286.473321 184.030714 
L 286.473321 175.834348 
L 287.635291 293.820102 
L 288.100079 244.336019 
L 288.332473 235.074183 
L 288.332473 226.61028 
L 288.797262 201.067966 
L 288.797262 205.279337 
L 289.029656 201.2457 
L 289.029656 210.568341 
L 289.26205 199.979108 
L 289.494444 207.261544 
L 289.726838 208.45143 
L 289.726838 207.758266 
L 289.959232 206.637603 
L 289.959232 211.898543 
L 290.42402 199.291557 
L 290.42402 210.438314 
L 290.656414 197.596531 
L 290.656414 201.829418 
L 290.888808 194.74249 
L 290.888808 204.860258 
L 291.353597 189.459099 
L 291.353597 198.749934 
L 291.585991 184.638753 
L 291.585991 191.091449 
L 291.818385 183.483479 
L 292.050779 183.050368 
L 292.050779 181.931576 
L 292.283173 182.68648 
L 292.283173 176.84837 
L 292.515567 176.477934 
L 292.515567 180.722046 
L 292.747961 182.393686 
L 292.747961 179.139274 
L 292.980355 181.45637 
L 292.980355 180.30858 
L 293.212749 183.554572 
L 293.212749 185.927795 
L 293.445143 186.712633 
L 293.445143 191.553559 
L 293.677538 185.566714 
L 293.677538 189.993238 
L 293.909932 190.503055 
L 293.909932 202.256916 
L 294.142326 195.106378 
L 294.142326 204.458017 
L 294.37472 206.002436 
L 294.37472 205.386914 
L 294.607114 204.640429 
L 294.607114 208.24189 
L 294.839508 206.141817 
L 294.839508 209.881725 
L 295.071902 207.544049 
L 295.304296 214.101515 
L 295.304296 205.640419 
L 295.769084 214.285798 
L 295.769084 214.043518 
L 296.001478 223.018173 
L 296.001478 220.006977 
L 296.233873 223.050914 
L 296.466267 231.611167 
L 296.466267 231.081705 
L 296.698661 233.090105 
L 296.931055 238.786962 
L 296.931055 242.5699 
L 297.163449 254.535172 
L 297.163449 242.115274 
L 297.395843 259.009403 
L 297.395843 258.141311 
L 297.628237 260.912097 
L 297.628237 259.674504 
L 298.093025 278.350655 
L 298.093025 274.834319 
L 298.325419 289.445028 
L 298.325419 283.190646 
L 298.557813 284.417949 
L 298.557813 295.488 
L 298.790208 285.602222 
L 298.790208 291.099829 
L 299.022602 287.166285 
L 299.022602 285.223367 
L 299.254996 282.773437 
L 299.254996 280.710782 
L 299.48739 275.414295 
L 299.48739 277.58172 
L 299.719784 277.285184 
L 299.719784 268.007445 
L 299.952178 258.437847 
L 299.952178 273.969968 
L 300.184572 257.348989 
L 300.184572 266.304 
L 300.416966 263.135649 
L 300.416966 265.195498 
L 300.64936 269.517252 
L 300.64936 263.891488 
L 300.881754 258.327464 
L 300.881754 277.810904 
L 301.114149 268.78667 
L 301.114149 263.274095 
L 301.346543 260.03465 
L 301.346543 262.2423 
L 301.578937 262.415357 
L 301.578937 253.291966 
L 301.811331 273.361929 
L 302.043725 266.638889 
L 302.043725 262.618348 
L 302.276119 268.946631 
L 302.276119 261.388239 
L 302.508513 257.181544 
L 302.508513 265.771732 
L 302.740907 271.461106 
L 302.740907 265.281559 
L 302.973301 267.62859 
L 302.973301 262.637993 
L 303.205695 259.703503 
L 303.205695 274.572395 
L 303.438089 270.416214 
L 303.438089 272.997106 
L 303.670484 276.488185 
L 303.670484 270.354475 
L 303.902878 272.605155 
L 303.902878 276.440477 
L 304.135272 273.147713 
L 304.135272 275.585481 
L 304.367666 278.17105 
L 304.367666 276.122426 
L 304.60006 279.200039 
L 304.60006 285.290719 
L 304.832454 283.618144 
L 305.064848 287.560107 
L 305.064848 282.888497 
L 305.297242 285.702314 
L 305.297242 288.483391 
L 305.529636 289.009111 
L 305.529636 286.994163 
L 305.76203 292.836015 
L 305.994424 283.532083 
L 305.994424 286.869749 
L 306.226819 283.866037 
L 306.226819 279.416127 
L 306.459213 284.332823 
L 306.459213 280.319766 
L 306.691607 287.073676 
L 306.691607 278.17105 
L 306.924001 281.799639 
L 306.924001 277.851128 
L 307.156395 269.376935 
L 307.156395 285.635898 
L 307.621183 266.734305 
L 307.621183 274.882962 
L 307.853577 257.300346 
L 308.085971 252.885983 
L 308.085971 266.067333 
L 308.318365 261.585618 
L 308.318365 258.584711 
L 308.550759 257.481822 
L 308.550759 259.78021 
L 309.015548 240.032974 
L 309.015548 249.821467 
L 309.247942 245.539001 
L 309.247942 247.602592 
L 309.480336 233.758012 
L 309.480336 238.5821 
L 309.71273 235.01525 
L 309.71273 236.99278 
L 309.945124 238.589583 
L 309.945124 241.057286 
L 310.177518 232.217335 
L 310.177518 236.882397 
L 310.409912 235.380073 
L 310.409912 236.799143 
L 310.642306 228.578456 
L 310.642306 238.037671 
L 310.8747 237.07697 
L 310.8747 235.62516 
L 311.107094 238.482943 
L 311.107094 244.73639 
L 311.339489 244.68494 
L 311.339489 243.876716 
L 311.571883 248.242436 
L 311.571883 240.742041 
L 312.036671 261.509847 
L 312.036671 268.438685 
L 312.269065 258.478071 
L 312.501459 271.752965 
L 312.501459 264.550977 
L 312.966247 281.713579 
L 312.966247 271.354465 
L 313.198641 278.957759 
L 313.198641 282.971752 
L 313.431035 287.527367 
L 313.431035 280.272058 
L 313.663429 278.127084 
L 313.663429 286.84075 
L 313.895824 274.869866 
L 313.895824 288.315946 
L 314.128218 280.662139 
L 314.128218 295.488 
L 314.360612 279.909106 
L 314.360612 284.983893 
L 314.593006 290.505822 
L 314.593006 283.829554 
L 314.8254 289.600312 
L 314.8254 275.89979 
L 315.290188 294.422529 
L 315.522582 289.686373 
L 315.522582 294.125993 
L 315.754976 288.616224 
L 315.754976 295.195206 
L 315.98737 293.698495 
L 316.219764 295.488 
L 316.219764 289.95391 
L 316.452159 284.602231 
L 316.452159 291.251371 
L 316.684553 293.229837 
L 316.684553 287.853837 
L 316.916947 285.085856 
L 316.916947 289.087688 
L 317.149341 294.366402 
L 317.149341 287.730358 
L 317.381735 292.503932 
L 317.381735 284.866962 
L 317.614129 279.994231 
L 317.614129 286.301934 
L 317.846523 277.902577 
L 317.846523 292.326197 
L 318.078917 284.27389 
L 318.078917 286.773398 
L 318.311311 285.544224 
L 318.311311 273.206646 
L 318.543705 282.840789 
L 318.543705 281.95773 
L 318.776099 275.90821 
L 318.776099 280.709847 
L 319.008494 275.299235 
L 319.240888 275.639737 
L 319.240888 275.851147 
L 319.473282 278.262724 
L 319.473282 272.441452 
L 319.705676 271.531264 
L 319.705676 271.896088 
L 319.93807 265.856857 
L 319.93807 268.367591 
L 320.170464 266.409705 
L 320.170464 262.72686 
L 320.402858 265.181467 
L 320.402858 266.666952 
L 320.635252 261.633325 
L 320.635252 270.832487 
L 320.867646 265.564999 
L 320.867646 261.553812 
L 321.10004 270.510694 
L 321.10004 266.951328 
L 321.332434 254.077739 
L 321.332434 266.131878 
L 321.564829 255.281657 
L 321.564829 269.779177 
L 321.797223 261.352692 
L 321.797223 256.331225 
L 322.029617 263.076716 
L 322.029617 260.599659 
L 322.262011 258.800799 
L 322.262011 267.586495 
L 322.494405 261.691323 
L 322.726799 264.280633 
L 322.726799 262.553803 
L 322.959193 264.292794 
L 323.191587 267.328312 
L 323.191587 264.510753 
L 323.423981 266.992487 
L 323.423981 273.114972 
L 323.656375 265.734314 
L 323.888769 268.394719 
L 323.888769 275.182305 
L 324.121164 271.463912 
L 324.121164 275.799698 
L 324.353558 272.810017 
L 324.353558 274.944702 
L 324.585952 277.626621 
L 324.585952 280.920322 
L 324.818346 282.420775 
L 324.818346 282.299167 
L 325.05074 278.548034 
L 325.283134 282.773437 
L 325.515528 290.753715 
L 325.515528 288.634933 
L 325.747922 285.710733 
L 325.747922 288.620901 
L 325.980316 290.411342 
L 325.980316 285.544224 
L 326.21271 293.392604 
L 326.21271 290.143805 
L 326.445104 290.013778 
L 326.445104 294.043674 
L 326.677499 286.989486 
L 326.677499 290.330894 
L 326.909893 295.488 
L 326.909893 295.488 
L 327.142287 288.997886 
L 327.374681 294.693808 
L 327.374681 293.978192 
L 327.607075 291.335562 
L 327.607075 295.242914 
L 327.839469 294.314952 
L 327.839469 293.064263 
L 328.071863 288.283206 
L 328.071863 290.666719 
L 328.304257 285.245817 
L 328.304257 285.383328 
L 328.536651 284.956765 
L 328.536651 283.700463 
L 328.769045 279.619118 
L 328.769045 282.771566 
L 329.001439 279.747274 
L 329.001439 277.125223 
L 329.233834 274.947508 
L 329.233834 280.911903 
L 329.466228 273.182324 
L 329.466228 276.826816 
L 329.698622 272.663152 
L 329.698622 274.137413 
L 329.931016 274.284278 
L 329.931016 268.823152 
L 330.16341 265.114114 
L 330.16341 267.916706 
L 330.395804 267.782002 
L 330.395804 265.928887 
L 330.628198 269.952234 
L 330.628198 262.150626 
L 330.860592 263.218904 
L 330.860592 262.946689 
L 331.092986 261.365788 
L 331.092986 266.304 
L 331.32538 265.769861 
L 331.32538 266.231035 
L 331.557774 273.475118 
L 331.557774 266.091654 
L 331.790169 265.649189 
L 331.790169 271.719289 
L 332.022563 274.919445 
L 332.022563 269.084141 
L 332.254957 283.991386 
L 332.254957 276.180424 
L 332.487351 295.488 
L 332.487351 280.828648 
L 332.719745 285.903435 
L 332.719745 293.691011 
L 332.952139 294.220473 
L 332.952139 294.99315 
L 333.416927 269.785725 
L 333.416927 271.672516 
L 333.881715 253.262032 
L 333.881715 260.385442 
L 334.114109 249.274231 
L 334.114109 257.153481 
L 334.346504 242.721442 
L 334.346504 247.748521 
L 334.578898 241.320146 
L 334.578898 236.578378 
L 334.811292 235.93105 
L 334.811292 237.784166 
L 335.043686 244.249959 
L 335.043686 238.866475 
L 335.27608 231.330533 
L 335.27608 237.461437 
L 335.508474 239.947849 
L 335.508474 230.494246 
L 335.740868 236.463318 
L 335.740868 240.732687 
L 335.973262 227.814197 
L 335.973262 237.179868 
L 336.205656 238.250017 
L 336.205656 239.767308 
L 336.43805 233.851557 
L 336.670444 236.146202 
L 336.670444 233.798236 
L 336.902839 234.715907 
L 336.902839 234.421242 
L 337.135233 241.545588 
L 337.135233 233.870266 
L 337.367627 235.968468 
L 337.367627 233.308999 
L 337.600021 235.138728 
L 337.600021 234.642943 
L 337.832415 229.367035 
L 337.832415 235.289335 
L 338.064809 237.860872 
L 338.064809 242.841179 
L 338.297203 239.192945 
L 338.297203 231.85906 
L 338.529597 242.726119 
L 338.529597 241.22286 
L 338.761991 240.529695 
L 338.761991 240.036716 
L 339.226779 251.011352 
L 339.226779 254.474368 
L 339.691568 260.503308 
L 339.691568 263.647337 
L 339.923962 269.453642 
L 339.923962 269.391903 
L 340.156356 272.086918 
L 340.156356 271.647259 
L 340.621144 287.936156 
L 340.621144 286.28229 
L 340.853538 290.139128 
L 340.853538 288.41791 
L 341.318326 294.249471 
L 341.318326 292.309359 
L 341.783114 287.342149 
L 342.015509 287.50211 
L 342.015509 289.039981 
L 342.247903 281.946504 
L 342.480297 284.092414 
L 342.480297 281.932473 
L 342.712691 285.173788 
L 342.712691 280.137354 
L 342.945085 279.092463 
L 342.945085 280.890387 
L 343.177479 280.467566 
L 343.177479 280.635946 
L 343.409873 277.398373 
L 343.409873 277.73981 
L 343.642267 277.213155 
L 343.642267 276.853944 
L 343.874661 273.822168 
L 343.874661 274.209442 
L 344.107055 273.708979 
L 344.107055 274.578943 
L 344.339449 274.093447 
L 344.339449 274.285213 
L 344.571844 271.26934 
L 344.571844 271.48075 
L 344.804238 271.108443 
L 345.036632 271.875508 
L 345.036632 271.648195 
L 345.269026 268.619225 
L 345.50142 268.462071 
L 345.50142 268.933535 
L 345.733814 266.538797 
L 345.966208 266.559376 
L 345.966208 266.499508 
L 346.198602 267.717457 
L 346.430996 265.568741 
L 346.430996 266.161812 
L 346.66339 265.971917 
L 346.66339 266.017754 
L 346.895784 265.152468 
L 347.128179 263.366704 
L 347.128179 264.225442 
L 347.360573 262.787664 
L 347.360573 263.448088 
L 347.592967 263.062685 
L 347.592967 263.507956 
L 347.825361 265.703445 
L 347.825361 264.040224 
L 348.057755 263.952292 
L 348.057755 264.164638 
L 348.290149 265.97753 
L 348.290149 265.052375 
L 348.522543 266.336741 
L 348.522543 268.423717 
L 348.754937 265.708122 
L 348.754937 267.375084 
L 348.987331 269.880205 
L 348.987331 272.123401 
L 349.219725 270.53408 
L 349.219725 272.490095 
L 349.452119 270.256253 
L 349.452119 274.561169 
L 349.684514 272.853983 
L 349.684514 275.191659 
L 349.916908 278.886665 
L 350.149302 277.319795 
L 350.149302 279.092463 
L 350.381696 281.86325 
L 350.381696 281.05409 
L 350.61409 281.96989 
L 350.61409 281.447912 
L 350.846484 285.964239 
L 350.846484 283.383347 
L 351.078878 282.91656 
L 351.078878 284.812706 
L 351.311272 283.767815 
L 351.311272 285.918402 
L 351.543666 285.478743 
L 351.543666 281.65371 
L 351.77606 283.260804 
L 351.77606 280.53866 
L 352.008454 278.960565 
L 352.008454 277.889481 
L 352.240849 274.050417 
L 352.240849 270.940063 
L 352.473243 269.591152 
L 352.705637 259.33868 
L 352.705637 264.712809 
L 353.170425 247.202222 
L 353.170425 248.105861 
L 353.402819 230.894616 
L 353.402819 240.894519 
L 353.635213 225.013476 
L 353.635213 228.083605 
L 353.867607 220.472828 
L 353.867607 221.115479 
L 354.100001 203.869622 
L 354.332395 200.169939 
L 354.564789 182.017637 
L 354.797184 182.013895 
L 354.797184 181.700521 
L 355.029578 177.727688 
L 355.029578 177.763235 
L 355.261972 164.340541 
L 355.261972 165.212375 
L 355.494366 162.302207 
L 355.72676 149.55771 
L 355.959154 147.698046 
L 355.959154 149.773798 
L 356.191548 145.552136 
L 356.423942 132.210826 
L 356.423942 135.570007 
L 356.656336 133.415678 
L 356.656336 131.591562 
L 356.88873 121.454149 
L 356.88873 123.190334 
L 357.121124 124.088361 
L 357.121124 120.798402 
L 357.353519 126.786183 
L 357.585913 117.958392 
L 357.585913 111.595498 
L 357.818307 123.455065 
L 358.050701 107.240068 
L 358.050701 107.552507 
L 358.283095 110.194202 
L 358.283095 113.616994 
L 358.515489 119.461652 
L 358.515489 115.430821 
L 358.747883 115.504721 
L 358.747883 113.632896 
L 358.980277 131.689783 
L 358.980277 116.209111 
L 359.212671 128.157544 
L 359.212671 126.098631 
L 359.445065 125.072448 
L 359.445065 129.087376 
L 359.677459 140.834689 
L 359.909854 158.214314 
L 359.909854 134.947001 
L 360.374642 160.271357 
L 360.374642 156.759698 
L 360.607036 152.887893 
L 360.83943 147.988034 
L 360.83943 159.050602 
L 361.071824 149.763508 
L 361.071824 141.047035 
L 361.304218 148.930027 
L 361.304218 153.041306 
L 361.536612 154.60724 
L 361.536612 138.316473 
L 361.769006 135.276278 
L 361.769006 130.85256 
L 362.0014 128.276346 
L 362.0014 126.131371 
L 362.233794 118.599172 
L 362.233794 113.501934 
L 362.466189 115.190412 
L 362.466189 110.957525 
L 362.698583 116.179177 
L 362.698583 110.099722 
L 362.930977 98.242027 
L 362.930977 102.748063 
L 363.163371 106.150275 
L 363.163371 96.574129 
L 363.395765 84.751045 
L 363.395765 89.868862 
L 363.628159 95.906222 
L 363.628159 102.641423 
L 363.860553 112.463591 
L 364.092947 110.563703 
L 364.092947 111.89297 
L 364.325341 120.170719 
L 364.325341 124.217452 
L 364.557735 120.75163 
L 364.557735 125.07619 
L 365.254918 177.977452 
L 365.254918 176.959688 
L 365.487312 202.488906 
L 365.719706 198.906153 
L 365.719706 215.602904 
L 365.9521 230.721559 
L 365.9521 223.136974 
L 366.649282 266.423737 
L 366.649282 263.373252 
L 366.881676 266.962553 
L 366.881676 263.823201 
L 367.11407 267.826904 
L 367.11407 272.230977 
L 367.346465 272.604219 
L 367.346465 267.690329 
L 367.578859 271.737062 
L 367.578859 273.888585 
L 367.811253 270.99619 
L 367.811253 271.677194 
L 368.043647 256.489315 
L 368.043647 257.281637 
L 368.276041 256.591279 
L 368.276041 249.825208 
L 368.508435 252.982334 
L 368.508435 246.958071 
L 368.740829 242.245301 
L 368.740829 247.052551 
L 369.205617 234.861837 
L 369.205617 239.327649 
L 369.438011 233.210777 
L 369.670405 238.430558 
L 369.670405 232.308073 
L 369.9028 244.192896 
L 369.9028 242.3482 
L 370.135194 240.375347 
L 370.135194 250.255513 
L 370.367588 247.907547 
L 370.367588 252.63809 
L 370.599982 263.27316 
L 370.599982 255.319074 
L 371.06477 277.565817 
L 371.06477 277.39276 
L 371.297164 278.979274 
L 371.297164 281.002641 
L 371.529558 278.539615 
L 371.529558 282.444161 
L 371.761952 285.974529 
L 371.761952 293.66856 
L 371.994346 281.1177 
L 372.22674 283.341252 
L 372.22674 286.62934 
L 372.459135 278.577968 
L 372.459135 290.886548 
L 372.691529 277.196317 
L 372.691529 281.02135 
L 372.923923 281.433881 
L 372.923923 279.553637 
L 373.156317 279.227167 
L 373.156317 281.089637 
L 373.388711 270.777296 
L 373.388711 273.935357 
L 373.621105 273.178582 
L 373.621105 268.436814 
L 373.853499 265.461164 
L 373.853499 262.468677 
L 374.085893 259.79237 
L 374.085893 261.009384 
L 374.318287 254.468755 
L 374.318287 257.390149 
L 374.550681 256.945812 
L 374.550681 253.320965 
L 374.783075 246.474446 
L 375.01547 246.893525 
L 375.01547 243.205067 
L 375.247864 236.018982 
L 375.247864 236.096624 
L 375.480258 237.660687 
L 375.480258 238.53065 
L 375.712652 228.399786 
L 375.712652 230.629886 
L 376.17744 220.198743 
L 376.17744 218.117379 
L 376.409834 217.271737 
L 376.409834 218.39427 
L 376.642228 209.689023 
L 376.642228 212.061311 
L 376.874622 213.847074 
L 376.874622 217.897549 
L 377.107016 206.076336 
L 377.107016 211.19696 
L 377.33941 209.255912 
L 377.33941 209.638509 
L 377.571805 208.453301 
L 377.571805 206.664731 
L 378.036593 212.2484 
L 378.036593 210.947196 
L 378.268987 214.394309 
L 378.268987 216.06782 
L 378.501381 217.908775 
L 378.501381 216.386806 
L 378.733775 216.211878 
L 378.733775 222.33904 
L 378.966169 224.978865 
L 378.966169 224.681393 
L 379.198563 225.207113 
L 379.198563 225.709447 
L 379.430957 235.76267 
L 379.663351 236.472672 
L 379.663351 238.207922 
L 379.895745 250.14513 
L 379.895745 249.692375 
L 380.12814 255.481842 
L 380.360534 269.785725 
L 380.360534 268.984984 
L 380.592928 276.360965 
L 380.592928 275.872663 
L 381.057716 294.241988 
L 381.057716 292.951074 
L 381.29011 281.443235 
L 381.29011 284.298212 
L 381.522504 276.118685 
L 381.522504 269.604248 
L 381.987292 260.942967 
L 381.987292 254.787742 
L 382.219686 248.015123 
L 382.219686 253.430412 
L 383.149263 227.000361 
L 383.149263 228.594358 
L 383.381657 228.941408 
L 383.381657 225.677642 
L 383.614051 224.062129 
L 383.614051 221.881608 
L 383.846445 224.46437 
L 383.846445 224.04342 
L 384.078839 223.729111 
L 384.078839 224.078967 
L 384.311233 233.178037 
L 384.311233 225.259498 
L 384.543627 233.757077 
L 384.543627 231.83848 
L 386.40278 283.109262 
L 386.867568 294.307469 
L 386.867568 294.279406 
L 387.332356 285.992302 
L 387.332356 286.779946 
L 387.56475 277.084063 
L 387.56475 279.820239 
L 388.029539 270.852132 
L 388.261933 269.451771 
L 388.261933 267.237574 
L 388.494327 263.10665 
L 388.494327 263.454636 
L 388.726721 262.606188 
L 388.959115 267.167415 
L 388.959115 266.690339 
L 389.191509 266.065462 
L 389.191509 266.498572 
L 389.423903 268.777315 
L 389.423903 266.732434 
L 389.656297 268.304916 
L 389.656297 272.14211 
L 389.888691 275.256205 
L 390.35348 285.808019 
L 390.35348 280.361861 
L 390.818268 292.718149 
L 390.818268 291.190568 
L 391.050662 293.966032 
L 391.51545 276.454509 
L 391.747844 278.991435 
L 391.747844 273.932551 
L 391.980238 267.606139 
L 391.980238 272.33294 
L 392.212632 268.25066 
L 392.212632 265.981272 
L 392.67742 256.189973 
L 392.67742 259.189009 
L 392.909815 247.869194 
L 392.909815 248.121764 
L 393.142209 253.932745 
L 393.142209 251.566071 
L 393.606997 239.829983 
L 393.606997 244.642845 
L 393.839391 240.856166 
L 393.839391 245.072214 
L 394.071785 244.321052 
L 394.071785 242.628833 
L 394.304179 240.450183 
L 394.304179 237.48763 
L 394.536573 239.714923 
L 394.536573 239.480127 
L 394.768967 237.692492 
L 394.768967 239.684989 
L 395.001361 239.219138 
L 395.001361 241.895445 
L 395.233755 240.191065 
L 395.233755 240.913228 
L 395.698544 244.964638 
L 395.698544 244.093739 
L 395.930938 245.567065 
L 395.930938 247.242446 
L 396.163332 250.251771 
L 396.163332 251.972054 
L 397.092908 283.224322 
L 397.092908 279.438577 
L 397.325302 291.929569 
L 397.557696 291.922085 
L 397.557696 287.724745 
L 397.79009 283.491859 
L 397.79009 284.135445 
L 398.254879 246.448253 
L 398.254879 251.043157 
L 398.487273 216.166041 
L 398.487273 216.166041 
" clip-path="url(#p69614c129a)" style="fill: none; stroke: #1f77b4; stroke-width: 1.5; stroke-linecap: square"/>
   </g>
   <g id="patch_3">
    <path d="M 57.6 307.584 
L 57.6 41.472 
" style="fill: none; stroke: #000000; stroke-width: 0.8; stroke-linejoin: miter; stroke-linecap: square"/>
   </g>
   <g id="patch_4">
    <path d="M 414.72 307.584 
L 414.72 41.472 
" style="fill: none; stroke: #000000; stroke-width: 0.8; stroke-linejoin: miter; stroke-linecap: square"/>
   </g>
   <g id="patch_5">
    <path d="M 57.6 307.584 
L 414.72 307.584 
" style="fill: none; stroke: #000000; stroke-width: 0.8; stroke-linejoin: miter; stroke-linecap: square"/>
   </g>
   <g id="patch_6">
    <path d="M 57.6 41.472 
L 414.72 41.472 
" style="fill: none; stroke: #000000; stroke-width: 0.8; stroke-linejoin: miter; stroke-linecap: square"/>
   </g>
   <g id="text_15">
    <!-- Tracking error vs Time -->
    <g transform="translate(169.584375 35.472) scale(0.12 -0.12)">
     <defs>
      <path id="DejaVuSans-76" d="M 191 3500 
L 800 3500 
L 1894 563 
L 2988 3500 
L 3597 3500 
L 2284 0 
L 1503 0 
L 191 3500 
z
" transform="scale(0.015625)"/>
     </defs>
     <use xlink:href="#DejaVuSans-54"/>
     <use xlink:href="#DejaVuSans-72" x="46.333984"/>
     <use xlink:href="#DejaVuSans-61" x="87.447266"/>
     <use xlink:href="#DejaVuSans-63" x="148.726562"/>
     <use xlink:href="#DejaVuSans-6b" x="203.707031"/>
     <use xlink:href="#DejaVuSans-69" x="261.617188"/>
     <use xlink:href="#DejaVuSans-6e" x="289.400391"/>
     <use xlink:href="#DejaVuSans-67" x="352.779297"/>
     <use xlink:href="#DejaVuSans-20" x="416.255859"/>
     <use xlink:href="#DejaVuSans-65" x="448.042969"/>
     <use xlink:href="#DejaVuSans-72" x="509.566406"/>
     <use xlink:href="#DejaVuSans-72" x="548.929688"/>
     <use xlink:href="#DejaVuSans-6f" x="587.792969"/>
     <use xlink:href="#DejaVuSans-72" x="648.974609"/>
     <use xlink:href="#DejaVuSans-20" x="690.087891"/>
     <use xlink:href="#DejaVuSans-76" x="721.875"/>
     <use xlink:href="#DejaVuSans-73" x="781.054688"/>
     <use xlink:href="#DejaVuSans-20" x="833.154297"/>
     <use xlink:href="#DejaVuSans-54" x="864.941406"/>
     <use xlink:href="#DejaVuSans-69" x="922.900391"/>
     <use xlink:href="#DejaVuSans-6d" x="950.683594"/>
     <use xlink:href="#DejaVuSans-65" x="1048.095703"/>
    </g>
   </g>
   <g id="legend_1">
    <g id="patch_7">
     <path d="M 311.00125 64.150125 
L 407.72 64.150125 
Q 409.72 64.150125 409.72 62.150125 
L 409.72 48.472 
Q 409.72 46.472 407.72 46.472 
L 311.00125 46.472 
Q 309.00125 46.472 309.00125 48.472 
L 309.00125 62.150125 
Q 309.00125 64.150125 311.00125 64.150125 
z
" style="fill: #ffffff; opacity: 0.8; stroke: #cccccc; stroke-linejoin: miter"/>
    </g>
    <g id="line2d_26">
     <path d="M 313.00125 54.570438 
L 323.00125 54.570438 
L 333.00125 54.570438 
" style="fill: none; stroke: #1f77b4; stroke-width: 1.5; stroke-linecap: square"/>
    </g>
    <g id="text_16">
     <!-- Actual speed -->
     <g transform="translate(341.00125 58.070438) scale(0.1 -0.1)">
      <defs>
       <path id="DejaVuSans-41" d="M 2188 4044 
L 1331 1722 
L 3047 1722 
L 2188 4044 
z
M 1831 4666 
L 2547 4666 
L 4325 0 
L 3669 0 
L 3244 1197 
L 1141 1197 
L 716 0 
L 50 0 
L 1831 4666 
z
" transform="scale(0.015625)"/>
       <path id="DejaVuSans-74" d="M 1172 4494 
L 1172 3500 
L 2356 3500 
L 2356 3053 
L 1172 3053 
L 1172 1153 
Q 1172 725 1289 603 
Q 1406 481 1766 481 
L 2356 481 
L 2356 0 
L 1766 0 
Q 1100 0 847 248 
Q 594 497 594 1153 
L 594 3053 
L 172 3053 
L 172 3500 
L 594 3500 
L 594 4494 
L 1172 4494 
z
" transform="scale(0.015625)"/>
       <path id="DejaVuSans-75" d="M 544 1381 
L 544 3500 
L 1119 3500 
L 1119 1403 
Q 1119 906 1312 657 
Q 1506 409 1894 409 
Q 2359 409 2629 706 
Q 2900 1003 2900 1516 
L 2900 3500 
L 3475 3500 
L 3475 0 
L 2900 0 
L 2900 538 
Q 2691 219 2414 64 
Q 2138 -91 1772 -91 
Q 1169 -91 856 284 
Q 544 659 544 1381 
z
M 1991 3584 
L 1991 3584 
z
" transform="scale(0.015625)"/>
       <path id="DejaVuSans-6c" d="M 603 4863 
L 1178 4863 
L 1178 0 
L 603 0 
L 603 4863 
z
" transform="scale(0.015625)"/>
       <path id="DejaVuSans-70" d="M 1159 525 
L 1159 -1331 
L 581 -1331 
L 581 3500 
L 1159 3500 
L 1159 2969 
Q 1341 3281 1617 3432 
Q 1894 3584 2278 3584 
Q 2916 3584 3314 3078 
Q 3713 2572 3713 1747 
Q 3713 922 3314 415 
Q 2916 -91 2278 -91 
Q 1894 -91 1617 61 
Q 1341 213 1159 525 
z
M 3116 1747 
Q 3116 2381 2855 2742 
Q 2594 3103 2138 3103 
Q 1681 3103 1420 2742 
Q 1159 2381 1159 1747 
Q 1159 1113 1420 752 
Q 1681 391 2138 391 
Q 2594 391 2855 752 
Q 3116 1113 3116 1747 
z
" transform="scale(0.015625)"/>
       <path id="DejaVuSans-64" d="M 2906 2969 
L 2906 4863 
L 3481 4863 
L 3481 0 
L 2906 0 
L 2906 525 
Q 2725 213 2448 61 
Q 2172 -91 1784 -91 
Q 1150 -91 751 415 
Q 353 922 353 1747 
Q 353 2572 751 3078 
Q 1150 3584 1784 3584 
Q 2172 3584 2448 3432 
Q 2725 3281 2906 2969 
z
M 947 1747 
Q 947 1113 1208 752 
Q 1469 391 1925 391 
Q 2381 391 2643 752 
Q 2906 1113 2906 1747 
Q 2906 2381 2643 2742 
Q 2381 3103 1925 3103 
Q 1469 3103 1208 2742 
Q 947 2381 947 1747 
z
" transform="scale(0.015625)"/>
      </defs>
      <use xlink:href="#DejaVuSans-41"/>
      <use xlink:href="#DejaVuSans-63" x="66.658203"/>
      <use xlink:href="#DejaVuSans-74" x="121.638672"/>
      <use xlink:href="#DejaVuSans-75" x="160.847656"/>
      <use xlink:href="#DejaVuSans-61" x="224.226562"/>
      <use xlink:href="#DejaVuSans-6c" x="285.505859"/>
      <use xlink:href="#DejaVuSans-20" x="313.289062"/>
      <use xlink:href="#DejaVuSans-73" x="345.076172"/>
      <use xlink:href="#DejaVuSans-70" x="397.175781"/>
      <use xlink:href="#DejaVuSans-65" x="460.652344"/>
      <use xlink:href="#DejaVuSans-65" x="522.175781"/>
      <use xlink:href="#DejaVuSans-64" x="583.699219"/>
     </g>
    </g>
   </g>
  </g>
 </g>
 <defs>
  <clipPath id="p69614c129a">
   <rect x="57.6" y="41.472" width="357.12" height="266.112"/>
  </clipPath>
 </defs>
</svg>
