<?xml version="1.0" encoding="utf-8" standalone="no"?>
<!DOCTYPE svg PUBLIC "-//W3C//DTD SVG 1.1//EN"
  "http://www.w3.org/Graphics/SVG/1.1/DTD/svg11.dtd">
<svg xmlns:xlink="http://www.w3.org/1999/xlink" width="460.8pt" height="345.6pt" viewBox="0 0 460.8 345.6" xmlns="http://www.w3.org/2000/svg" version="1.1">
 <metadata>
  <rdf:RDF xmlns:dc="http://purl.org/dc/elements/1.1/" xmlns:cc="http://creativecommons.org/ns#" xmlns:rdf="http://www.w3.org/1999/02/22-rdf-syntax-ns#">
   <cc:Work>
    <dc:type rdf:resource="http://purl.org/dc/dcmitype/StillImage"/>
    <dc:date>2024-01-30T20:59:15.313925</dc:date>
    <dc:format>image/svg+xml</dc:format>
    <dc:creator>
     <cc:Agent>
      <dc:title>Matplotlib v3.7.1, https://matplotlib.org/</dc:title>
     </cc:Agent>
    </dc:creator>
   </cc:Work>
  </rdf:RDF>
 </metadata>
 <defs>
  <style type="text/css">*{stroke-linejoin: round; stroke-linecap: butt}</style>
 </defs>
 <g id="figure_1">
  <g id="patch_1">
   <path d="M 0 345.6 
L 460.8 345.6 
L 460.8 0 
L 0 0 
z
" style="fill: #ffffff"/>
  </g>
  <g id="axes_1">
   <g id="patch_2">
    <path d="M 57.6 307.584 
L 414.72 307.584 
L 414.72 41.472 
L 57.6 41.472 
z
" style="fill: #ffffff"/>
   </g>
   <g id="matplotlib.axis_1">
    <g id="xtick_1">
     <g id="line2d_1">
      <path d="M 73.832727 307.584 
L 73.832727 41.472 
" clip-path="url(#pe07b53825c)" style="fill: none; stroke: #b0b0b0; stroke-width: 0.8; stroke-linecap: square"/>
     </g>
     <g id="line2d_2">
      <defs>
       <path id="m172e2c0eb9" d="M 0 0 
L 0 3.5 
" style="stroke: #000000; stroke-width: 0.8"/>
      </defs>
      <g>
       <use xlink:href="#m172e2c0eb9" x="73.832727" y="307.584" style="stroke: #000000; stroke-width: 0.8"/>
      </g>
     </g>
     <g id="text_1">
      <!-- 0 -->
      <g transform="translate(70.651477 322.182437) scale(0.1 -0.1)">
       <defs>
        <path id="DejaVuSans-30" d="M 2034 4250 
Q 1547 4250 1301 3770 
Q 1056 3291 1056 2328 
Q 1056 1369 1301 889 
Q 1547 409 2034 409 
Q 2525 409 2770 889 
Q 3016 1369 3016 2328 
Q 3016 3291 2770 3770 
Q 2525 4250 2034 4250 
z
M 2034 4750 
Q 2819 4750 3233 4129 
Q 3647 3509 3647 2328 
Q 3647 1150 3233 529 
Q 2819 -91 2034 -91 
Q 1250 -91 836 529 
Q 422 1150 422 2328 
Q 422 3509 836 4129 
Q 1250 4750 2034 4750 
z
" transform="scale(0.015625)"/>
       </defs>
       <use xlink:href="#DejaVuSans-30"/>
      </g>
     </g>
    </g>
    <g id="xtick_2">
     <g id="line2d_3">
      <path d="M 131.972868 307.584 
L 131.972868 41.472 
" clip-path="url(#pe07b53825c)" style="fill: none; stroke: #b0b0b0; stroke-width: 0.8; stroke-linecap: square"/>
     </g>
     <g id="line2d_4">
      <g>
       <use xlink:href="#m172e2c0eb9" x="131.972868" y="307.584" style="stroke: #000000; stroke-width: 0.8"/>
      </g>
     </g>
     <g id="text_2">
      <!-- 5 -->
      <g transform="translate(128.791618 322.182437) scale(0.1 -0.1)">
       <defs>
        <path id="DejaVuSans-35" d="M 691 4666 
L 3169 4666 
L 3169 4134 
L 1269 4134 
L 1269 2991 
Q 1406 3038 1543 3061 
Q 1681 3084 1819 3084 
Q 2600 3084 3056 2656 
Q 3513 2228 3513 1497 
Q 3513 744 3044 326 
Q 2575 -91 1722 -91 
Q 1428 -91 1123 -41 
Q 819 9 494 109 
L 494 744 
Q 775 591 1075 516 
Q 1375 441 1709 441 
Q 2250 441 2565 725 
Q 2881 1009 2881 1497 
Q 2881 1984 2565 2268 
Q 2250 2553 1709 2553 
Q 1456 2553 1204 2497 
Q 953 2441 691 2322 
L 691 4666 
z
" transform="scale(0.015625)"/>
       </defs>
       <use xlink:href="#DejaVuSans-35"/>
      </g>
     </g>
    </g>
    <g id="xtick_3">
     <g id="line2d_5">
      <path d="M 190.113009 307.584 
L 190.113009 41.472 
" clip-path="url(#pe07b53825c)" style="fill: none; stroke: #b0b0b0; stroke-width: 0.8; stroke-linecap: square"/>
     </g>
     <g id="line2d_6">
      <g>
       <use xlink:href="#m172e2c0eb9" x="190.113009" y="307.584" style="stroke: #000000; stroke-width: 0.8"/>
      </g>
     </g>
     <g id="text_3">
      <!-- 10 -->
      <g transform="translate(183.750509 322.182437) scale(0.1 -0.1)">
       <defs>
        <path id="DejaVuSans-31" d="M 794 531 
L 1825 531 
L 1825 4091 
L 703 3866 
L 703 4441 
L 1819 4666 
L 2450 4666 
L 2450 531 
L 3481 531 
L 3481 0 
L 794 0 
L 794 531 
z
" transform="scale(0.015625)"/>
       </defs>
       <use xlink:href="#DejaVuSans-31"/>
       <use xlink:href="#DejaVuSans-30" x="63.623047"/>
      </g>
     </g>
    </g>
    <g id="xtick_4">
     <g id="line2d_7">
      <path d="M 248.253149 307.584 
L 248.253149 41.472 
" clip-path="url(#pe07b53825c)" style="fill: none; stroke: #b0b0b0; stroke-width: 0.8; stroke-linecap: square"/>
     </g>
     <g id="line2d_8">
      <g>
       <use xlink:href="#m172e2c0eb9" x="248.253149" y="307.584" style="stroke: #000000; stroke-width: 0.8"/>
      </g>
     </g>
     <g id="text_4">
      <!-- 15 -->
      <g transform="translate(241.890649 322.182437) scale(0.1 -0.1)">
       <use xlink:href="#DejaVuSans-31"/>
       <use xlink:href="#DejaVuSans-35" x="63.623047"/>
      </g>
     </g>
    </g>
    <g id="xtick_5">
     <g id="line2d_9">
      <path d="M 306.39329 307.584 
L 306.39329 41.472 
" clip-path="url(#pe07b53825c)" style="fill: none; stroke: #b0b0b0; stroke-width: 0.8; stroke-linecap: square"/>
     </g>
     <g id="line2d_10">
      <g>
       <use xlink:href="#m172e2c0eb9" x="306.39329" y="307.584" style="stroke: #000000; stroke-width: 0.8"/>
      </g>
     </g>
     <g id="text_5">
      <!-- 20 -->
      <g transform="translate(300.03079 322.182437) scale(0.1 -0.1)">
       <defs>
        <path id="DejaVuSans-32" d="M 1228 531 
L 3431 531 
L 3431 0 
L 469 0 
L 469 531 
Q 828 903 1448 1529 
Q 2069 2156 2228 2338 
Q 2531 2678 2651 2914 
Q 2772 3150 2772 3378 
Q 2772 3750 2511 3984 
Q 2250 4219 1831 4219 
Q 1534 4219 1204 4116 
Q 875 4013 500 3803 
L 500 4441 
Q 881 4594 1212 4672 
Q 1544 4750 1819 4750 
Q 2544 4750 2975 4387 
Q 3406 4025 3406 3419 
Q 3406 3131 3298 2873 
Q 3191 2616 2906 2266 
Q 2828 2175 2409 1742 
Q 1991 1309 1228 531 
z
" transform="scale(0.015625)"/>
       </defs>
       <use xlink:href="#DejaVuSans-32"/>
       <use xlink:href="#DejaVuSans-30" x="63.623047"/>
      </g>
     </g>
    </g>
    <g id="xtick_6">
     <g id="line2d_11">
      <path d="M 364.533431 307.584 
L 364.533431 41.472 
" clip-path="url(#pe07b53825c)" style="fill: none; stroke: #b0b0b0; stroke-width: 0.8; stroke-linecap: square"/>
     </g>
     <g id="line2d_12">
      <g>
       <use xlink:href="#m172e2c0eb9" x="364.533431" y="307.584" style="stroke: #000000; stroke-width: 0.8"/>
      </g>
     </g>
     <g id="text_6">
      <!-- 25 -->
      <g transform="translate(358.170931 322.182437) scale(0.1 -0.1)">
       <use xlink:href="#DejaVuSans-32"/>
       <use xlink:href="#DejaVuSans-35" x="63.623047"/>
      </g>
     </g>
    </g>
    <g id="text_7">
     <!-- Time(s) -->
     <g transform="translate(217.420156 335.860562) scale(0.1 -0.1)">
      <defs>
       <path id="DejaVuSans-54" d="M -19 4666 
L 3928 4666 
L 3928 4134 
L 2272 4134 
L 2272 0 
L 1638 0 
L 1638 4134 
L -19 4134 
L -19 4666 
z
" transform="scale(0.015625)"/>
       <path id="DejaVuSans-69" d="M 603 3500 
L 1178 3500 
L 1178 0 
L 603 0 
L 603 3500 
z
M 603 4863 
L 1178 4863 
L 1178 4134 
L 603 4134 
L 603 4863 
z
" transform="scale(0.015625)"/>
       <path id="DejaVuSans-6d" d="M 3328 2828 
Q 3544 3216 3844 3400 
Q 4144 3584 4550 3584 
Q 5097 3584 5394 3201 
Q 5691 2819 5691 2113 
L 5691 0 
L 5113 0 
L 5113 2094 
Q 5113 2597 4934 2840 
Q 4756 3084 4391 3084 
Q 3944 3084 3684 2787 
Q 3425 2491 3425 1978 
L 3425 0 
L 2847 0 
L 2847 2094 
Q 2847 2600 2669 2842 
Q 2491 3084 2119 3084 
Q 1678 3084 1418 2786 
Q 1159 2488 1159 1978 
L 1159 0 
L 581 0 
L 581 3500 
L 1159 3500 
L 1159 2956 
Q 1356 3278 1631 3431 
Q 1906 3584 2284 3584 
Q 2666 3584 2933 3390 
Q 3200 3197 3328 2828 
z
" transform="scale(0.015625)"/>
       <path id="DejaVuSans-65" d="M 3597 1894 
L 3597 1613 
L 953 1613 
Q 991 1019 1311 708 
Q 1631 397 2203 397 
Q 2534 397 2845 478 
Q 3156 559 3463 722 
L 3463 178 
Q 3153 47 2828 -22 
Q 2503 -91 2169 -91 
Q 1331 -91 842 396 
Q 353 884 353 1716 
Q 353 2575 817 3079 
Q 1281 3584 2069 3584 
Q 2775 3584 3186 3129 
Q 3597 2675 3597 1894 
z
M 3022 2063 
Q 3016 2534 2758 2815 
Q 2500 3097 2075 3097 
Q 1594 3097 1305 2825 
Q 1016 2553 972 2059 
L 3022 2063 
z
" transform="scale(0.015625)"/>
       <path id="DejaVuSans-28" d="M 1984 4856 
Q 1566 4138 1362 3434 
Q 1159 2731 1159 2009 
Q 1159 1288 1364 580 
Q 1569 -128 1984 -844 
L 1484 -844 
Q 1016 -109 783 600 
Q 550 1309 550 2009 
Q 550 2706 781 3412 
Q 1013 4119 1484 4856 
L 1984 4856 
z
" transform="scale(0.015625)"/>
       <path id="DejaVuSans-73" d="M 2834 3397 
L 2834 2853 
Q 2591 2978 2328 3040 
Q 2066 3103 1784 3103 
Q 1356 3103 1142 2972 
Q 928 2841 928 2578 
Q 928 2378 1081 2264 
Q 1234 2150 1697 2047 
L 1894 2003 
Q 2506 1872 2764 1633 
Q 3022 1394 3022 966 
Q 3022 478 2636 193 
Q 2250 -91 1575 -91 
Q 1294 -91 989 -36 
Q 684 19 347 128 
L 347 722 
Q 666 556 975 473 
Q 1284 391 1588 391 
Q 1994 391 2212 530 
Q 2431 669 2431 922 
Q 2431 1156 2273 1281 
Q 2116 1406 1581 1522 
L 1381 1569 
Q 847 1681 609 1914 
Q 372 2147 372 2553 
Q 372 3047 722 3315 
Q 1072 3584 1716 3584 
Q 2034 3584 2315 3537 
Q 2597 3491 2834 3397 
z
" transform="scale(0.015625)"/>
       <path id="DejaVuSans-29" d="M 513 4856 
L 1013 4856 
Q 1481 4119 1714 3412 
Q 1947 2706 1947 2009 
Q 1947 1309 1714 600 
Q 1481 -109 1013 -844 
L 513 -844 
Q 928 -128 1133 580 
Q 1338 1288 1338 2009 
Q 1338 2731 1133 3434 
Q 928 4138 513 4856 
z
" transform="scale(0.015625)"/>
      </defs>
      <use xlink:href="#DejaVuSans-54"/>
      <use xlink:href="#DejaVuSans-69" x="57.958984"/>
      <use xlink:href="#DejaVuSans-6d" x="85.742188"/>
      <use xlink:href="#DejaVuSans-65" x="183.154297"/>
      <use xlink:href="#DejaVuSans-28" x="244.677734"/>
      <use xlink:href="#DejaVuSans-73" x="283.691406"/>
      <use xlink:href="#DejaVuSans-29" x="335.791016"/>
     </g>
    </g>
   </g>
   <g id="matplotlib.axis_2">
    <g id="ytick_1">
     <g id="line2d_13">
      <path d="M 57.6 295.488 
L 414.72 295.488 
" clip-path="url(#pe07b53825c)" style="fill: none; stroke: #b0b0b0; stroke-width: 0.8; stroke-linecap: square"/>
     </g>
     <g id="line2d_14">
      <defs>
       <path id="maad7e04ba8" d="M 0 0 
L -3.5 0 
" style="stroke: #000000; stroke-width: 0.8"/>
      </defs>
      <g>
       <use xlink:href="#maad7e04ba8" x="57.6" y="295.488" style="stroke: #000000; stroke-width: 0.8"/>
      </g>
     </g>
     <g id="text_8">
      <!-- 0.00 -->
      <g transform="translate(28.334375 299.287219) scale(0.1 -0.1)">
       <defs>
        <path id="DejaVuSans-2e" d="M 684 794 
L 1344 794 
L 1344 0 
L 684 0 
L 684 794 
z
" transform="scale(0.015625)"/>
       </defs>
       <use xlink:href="#DejaVuSans-30"/>
       <use xlink:href="#DejaVuSans-2e" x="63.623047"/>
       <use xlink:href="#DejaVuSans-30" x="95.410156"/>
       <use xlink:href="#DejaVuSans-30" x="159.033203"/>
      </g>
     </g>
    </g>
    <g id="ytick_2">
     <g id="line2d_15">
      <path d="M 57.6 251.405885 
L 414.72 251.405885 
" clip-path="url(#pe07b53825c)" style="fill: none; stroke: #b0b0b0; stroke-width: 0.8; stroke-linecap: square"/>
     </g>
     <g id="line2d_16">
      <g>
       <use xlink:href="#maad7e04ba8" x="57.6" y="251.405885" style="stroke: #000000; stroke-width: 0.8"/>
      </g>
     </g>
     <g id="text_9">
      <!-- 0.05 -->
      <g transform="translate(28.334375 255.205104) scale(0.1 -0.1)">
       <use xlink:href="#DejaVuSans-30"/>
       <use xlink:href="#DejaVuSans-2e" x="63.623047"/>
       <use xlink:href="#DejaVuSans-30" x="95.410156"/>
       <use xlink:href="#DejaVuSans-35" x="159.033203"/>
      </g>
     </g>
    </g>
    <g id="ytick_3">
     <g id="line2d_17">
      <path d="M 57.6 207.323771 
L 414.72 207.323771 
" clip-path="url(#pe07b53825c)" style="fill: none; stroke: #b0b0b0; stroke-width: 0.8; stroke-linecap: square"/>
     </g>
     <g id="line2d_18">
      <g>
       <use xlink:href="#maad7e04ba8" x="57.6" y="207.323771" style="stroke: #000000; stroke-width: 0.8"/>
      </g>
     </g>
     <g id="text_10">
      <!-- 0.10 -->
      <g transform="translate(28.334375 211.12299) scale(0.1 -0.1)">
       <use xlink:href="#DejaVuSans-30"/>
       <use xlink:href="#DejaVuSans-2e" x="63.623047"/>
       <use xlink:href="#DejaVuSans-31" x="95.410156"/>
       <use xlink:href="#DejaVuSans-30" x="159.033203"/>
      </g>
     </g>
    </g>
    <g id="ytick_4">
     <g id="line2d_19">
      <path d="M 57.6 163.241656 
L 414.72 163.241656 
" clip-path="url(#pe07b53825c)" style="fill: none; stroke: #b0b0b0; stroke-width: 0.8; stroke-linecap: square"/>
     </g>
     <g id="line2d_20">
      <g>
       <use xlink:href="#maad7e04ba8" x="57.6" y="163.241656" style="stroke: #000000; stroke-width: 0.8"/>
      </g>
     </g>
     <g id="text_11">
      <!-- 0.15 -->
      <g transform="translate(28.334375 167.040875) scale(0.1 -0.1)">
       <use xlink:href="#DejaVuSans-30"/>
       <use xlink:href="#DejaVuSans-2e" x="63.623047"/>
       <use xlink:href="#DejaVuSans-31" x="95.410156"/>
       <use xlink:href="#DejaVuSans-35" x="159.033203"/>
      </g>
     </g>
    </g>
    <g id="ytick_5">
     <g id="line2d_21">
      <path d="M 57.6 119.159542 
L 414.72 119.159542 
" clip-path="url(#pe07b53825c)" style="fill: none; stroke: #b0b0b0; stroke-width: 0.8; stroke-linecap: square"/>
     </g>
     <g id="line2d_22">
      <g>
       <use xlink:href="#maad7e04ba8" x="57.6" y="119.159542" style="stroke: #000000; stroke-width: 0.8"/>
      </g>
     </g>
     <g id="text_12">
      <!-- 0.20 -->
      <g transform="translate(28.334375 122.95876) scale(0.1 -0.1)">
       <use xlink:href="#DejaVuSans-30"/>
       <use xlink:href="#DejaVuSans-2e" x="63.623047"/>
       <use xlink:href="#DejaVuSans-32" x="95.410156"/>
       <use xlink:href="#DejaVuSans-30" x="159.033203"/>
      </g>
     </g>
    </g>
    <g id="ytick_6">
     <g id="line2d_23">
      <path d="M 57.6 75.077427 
L 414.72 75.077427 
" clip-path="url(#pe07b53825c)" style="fill: none; stroke: #b0b0b0; stroke-width: 0.8; stroke-linecap: square"/>
     </g>
     <g id="line2d_24">
      <g>
       <use xlink:href="#maad7e04ba8" x="57.6" y="75.077427" style="stroke: #000000; stroke-width: 0.8"/>
      </g>
     </g>
     <g id="text_13">
      <!-- 0.25 -->
      <g transform="translate(28.334375 78.876646) scale(0.1 -0.1)">
       <use xlink:href="#DejaVuSans-30"/>
       <use xlink:href="#DejaVuSans-2e" x="63.623047"/>
       <use xlink:href="#DejaVuSans-32" x="95.410156"/>
       <use xlink:href="#DejaVuSans-35" x="159.033203"/>
      </g>
     </g>
    </g>
    <g id="text_14">
     <!-- Tracking error(m) -->
     <g transform="translate(22.254687 217.803781) rotate(-90) scale(0.1 -0.1)">
      <defs>
       <path id="DejaVuSans-72" d="M 2631 2963 
Q 2534 3019 2420 3045 
Q 2306 3072 2169 3072 
Q 1681 3072 1420 2755 
Q 1159 2438 1159 1844 
L 1159 0 
L 581 0 
L 581 3500 
L 1159 3500 
L 1159 2956 
Q 1341 3275 1631 3429 
Q 1922 3584 2338 3584 
Q 2397 3584 2469 3576 
Q 2541 3569 2628 3553 
L 2631 2963 
z
" transform="scale(0.015625)"/>
       <path id="DejaVuSans-61" d="M 2194 1759 
Q 1497 1759 1228 1600 
Q 959 1441 959 1056 
Q 959 750 1161 570 
Q 1363 391 1709 391 
Q 2188 391 2477 730 
Q 2766 1069 2766 1631 
L 2766 1759 
L 2194 1759 
z
M 3341 1997 
L 3341 0 
L 2766 0 
L 2766 531 
Q 2569 213 2275 61 
Q 1981 -91 1556 -91 
Q 1019 -91 701 211 
Q 384 513 384 1019 
Q 384 1609 779 1909 
Q 1175 2209 1959 2209 
L 2766 2209 
L 2766 2266 
Q 2766 2663 2505 2880 
Q 2244 3097 1772 3097 
Q 1472 3097 1187 3025 
Q 903 2953 641 2809 
L 641 3341 
Q 956 3463 1253 3523 
Q 1550 3584 1831 3584 
Q 2591 3584 2966 3190 
Q 3341 2797 3341 1997 
z
" transform="scale(0.015625)"/>
       <path id="DejaVuSans-63" d="M 3122 3366 
L 3122 2828 
Q 2878 2963 2633 3030 
Q 2388 3097 2138 3097 
Q 1578 3097 1268 2742 
Q 959 2388 959 1747 
Q 959 1106 1268 751 
Q 1578 397 2138 397 
Q 2388 397 2633 464 
Q 2878 531 3122 666 
L 3122 134 
Q 2881 22 2623 -34 
Q 2366 -91 2075 -91 
Q 1284 -91 818 406 
Q 353 903 353 1747 
Q 353 2603 823 3093 
Q 1294 3584 2113 3584 
Q 2378 3584 2631 3529 
Q 2884 3475 3122 3366 
z
" transform="scale(0.015625)"/>
       <path id="DejaVuSans-6b" d="M 581 4863 
L 1159 4863 
L 1159 1991 
L 2875 3500 
L 3609 3500 
L 1753 1863 
L 3688 0 
L 2938 0 
L 1159 1709 
L 1159 0 
L 581 0 
L 581 4863 
z
" transform="scale(0.015625)"/>
       <path id="DejaVuSans-6e" d="M 3513 2113 
L 3513 0 
L 2938 0 
L 2938 2094 
Q 2938 2591 2744 2837 
Q 2550 3084 2163 3084 
Q 1697 3084 1428 2787 
Q 1159 2491 1159 1978 
L 1159 0 
L 581 0 
L 581 3500 
L 1159 3500 
L 1159 2956 
Q 1366 3272 1645 3428 
Q 1925 3584 2291 3584 
Q 2894 3584 3203 3211 
Q 3513 2838 3513 2113 
z
" transform="scale(0.015625)"/>
       <path id="DejaVuSans-67" d="M 2906 1791 
Q 2906 2416 2648 2759 
Q 2391 3103 1925 3103 
Q 1463 3103 1205 2759 
Q 947 2416 947 1791 
Q 947 1169 1205 825 
Q 1463 481 1925 481 
Q 2391 481 2648 825 
Q 2906 1169 2906 1791 
z
M 3481 434 
Q 3481 -459 3084 -895 
Q 2688 -1331 1869 -1331 
Q 1566 -1331 1297 -1286 
Q 1028 -1241 775 -1147 
L 775 -588 
Q 1028 -725 1275 -790 
Q 1522 -856 1778 -856 
Q 2344 -856 2625 -561 
Q 2906 -266 2906 331 
L 2906 616 
Q 2728 306 2450 153 
Q 2172 0 1784 0 
Q 1141 0 747 490 
Q 353 981 353 1791 
Q 353 2603 747 3093 
Q 1141 3584 1784 3584 
Q 2172 3584 2450 3431 
Q 2728 3278 2906 2969 
L 2906 3500 
L 3481 3500 
L 3481 434 
z
" transform="scale(0.015625)"/>
       <path id="DejaVuSans-20" transform="scale(0.015625)"/>
       <path id="DejaVuSans-6f" d="M 1959 3097 
Q 1497 3097 1228 2736 
Q 959 2375 959 1747 
Q 959 1119 1226 758 
Q 1494 397 1959 397 
Q 2419 397 2687 759 
Q 2956 1122 2956 1747 
Q 2956 2369 2687 2733 
Q 2419 3097 1959 3097 
z
M 1959 3584 
Q 2709 3584 3137 3096 
Q 3566 2609 3566 1747 
Q 3566 888 3137 398 
Q 2709 -91 1959 -91 
Q 1206 -91 779 398 
Q 353 888 353 1747 
Q 353 2609 779 3096 
Q 1206 3584 1959 3584 
z
" transform="scale(0.015625)"/>
      </defs>
      <use xlink:href="#DejaVuSans-54"/>
      <use xlink:href="#DejaVuSans-72" x="46.333984"/>
      <use xlink:href="#DejaVuSans-61" x="87.447266"/>
      <use xlink:href="#DejaVuSans-63" x="148.726562"/>
      <use xlink:href="#DejaVuSans-6b" x="203.707031"/>
      <use xlink:href="#DejaVuSans-69" x="261.617188"/>
      <use xlink:href="#DejaVuSans-6e" x="289.400391"/>
      <use xlink:href="#DejaVuSans-67" x="352.779297"/>
      <use xlink:href="#DejaVuSans-20" x="416.255859"/>
      <use xlink:href="#DejaVuSans-65" x="448.042969"/>
      <use xlink:href="#DejaVuSans-72" x="509.566406"/>
      <use xlink:href="#DejaVuSans-72" x="548.929688"/>
      <use xlink:href="#DejaVuSans-6f" x="587.792969"/>
      <use xlink:href="#DejaVuSans-72" x="648.974609"/>
      <use xlink:href="#DejaVuSans-28" x="690.087891"/>
      <use xlink:href="#DejaVuSans-6d" x="729.101562"/>
      <use xlink:href="#DejaVuSans-29" x="826.513672"/>
     </g>
    </g>
   </g>
   <g id="line2d_25">
    <path d="M 73.832727 234.625588 
L 73.832727 253.846271 
L 74.065288 281.984767 
L 74.297848 251.825547 
L 74.297848 273.562438 
L 74.76297 192.330562 
L 74.76297 199.808652 
L 75.228091 145.491552 
L 75.228091 149.056913 
L 75.693212 129.011013 
L 75.693212 123.215978 
L 75.925772 127.030844 
L 75.925772 119.297959 
L 76.158333 126.381074 
L 76.158333 121.630785 
L 76.390893 112.085244 
L 76.390893 120.616015 
L 76.623454 113.035654 
L 76.623454 114.462151 
L 76.856015 125.317813 
L 76.856015 139.524597 
L 77.088575 143.89049 
L 77.088575 140.817085 
L 77.321136 132.944019 
L 77.321136 146.256817 
L 77.553696 156.856803 
L 77.553696 167.475302 
L 77.786257 159.256633 
L 78.251378 194.160851 
L 78.251378 179.674587 
L 78.483939 192.304113 
L 78.483939 212.255678 
L 78.716499 209.505835 
L 78.716499 221.360398 
L 78.94906 228.548427 
L 79.18162 236.423256 
L 79.18162 224.810264 
L 79.414181 249.80835 
L 79.414181 235.337073 
L 79.646741 247.229546 
L 79.879302 260.664893 
L 79.879302 279.4474 
L 80.111862 262.683854 
L 80.576984 286.327737 
L 80.576984 269.358767 
L 80.809544 292.10602 
L 80.809544 276.416314 
L 81.042105 286.52258 
L 81.042105 292.022264 
L 81.274665 294.847928 
L 81.507226 286.776493 
L 81.507226 281.242424 
L 81.739786 284.502737 
L 81.972347 285.48136 
L 81.972347 284.366964 
L 82.204908 261.975895 
L 82.204908 286.38857 
L 82.437468 268.570579 
L 82.437468 270.042922 
L 82.670029 268.394251 
L 82.670029 279.862654 
L 82.902589 257.470703 
L 83.13515 271.493223 
L 83.13515 281.69647 
L 83.36771 276.74164 
L 83.36771 269.02198 
L 83.600271 276.121845 
L 83.600271 272.061883 
L 83.832831 254.316187 
L 83.832831 278.972195 
L 84.297953 264.019542 
L 84.297953 266.324155 
L 84.530513 275.956097 
L 84.530513 265.03343 
L 84.763074 268.029251 
L 84.763074 267.096473 
L 84.995634 282.489948 
L 84.995634 272.561774 
L 85.228195 264.332525 
L 85.460755 270.139902 
L 85.460755 279.264019 
L 85.693316 271.336291 
L 85.693316 277.907171 
L 85.925877 267.895241 
L 85.925877 272.981436 
L 86.158437 265.198297 
L 86.158437 272.518573 
L 86.390998 275.746266 
L 86.390998 270.400869 
L 86.623558 264.470943 
L 86.623558 271.032124 
L 86.856119 264.595254 
L 86.856119 274.55164 
L 87.088679 270.807306 
L 87.088679 280.251458 
L 87.32124 261.583564 
L 87.32124 288.574161 
L 87.5538 295.488 
L 87.5538 285.431988 
L 87.786361 291.776286 
L 87.786361 280.10246 
L 88.018922 294.415923 
L 88.018922 287.389234 
L 88.251482 294.713918 
L 88.251482 273.707027 
L 88.484043 291.313424 
L 88.484043 284.877435 
L 88.716603 287.761287 
L 88.716603 281.722037 
L 88.949164 279.236688 
L 88.949164 270.274794 
L 89.181724 272.129769 
L 89.181724 271.864395 
L 89.414285 280.460407 
L 89.414285 278.259828 
L 89.646846 267.553164 
L 89.646846 267.597246 
L 89.879406 249.038676 
L 89.879406 267.047983 
L 90.111967 258.171608 
L 90.111967 276.771616 
L 90.344527 265.698189 
L 90.344527 275.463259 
L 90.577088 256.577599 
L 90.577088 243.062904 
L 90.809648 262.770255 
L 90.809648 248.364219 
L 91.042209 256.642841 
L 91.274769 271.769177 
L 91.50733 273.717607 
L 91.50733 257.687587 
L 91.739891 262.595689 
L 91.972451 268.945277 
L 92.205012 257.541234 
L 92.205012 281.350866 
L 92.437572 268.468309 
L 92.437572 276.515058 
L 92.670133 273.918621 
L 92.670133 265.966208 
L 92.902693 250.260632 
L 92.902693 263.487911 
L 93.135254 263.416498 
L 93.135254 279.237569 
L 93.367815 283.395394 
L 93.367815 269.808405 
L 93.832936 258.192768 
L 93.832936 275.524092 
L 94.065496 267.702162 
L 94.065496 263.850266 
L 94.298057 257.892128 
L 94.298057 260.708975 
L 94.530617 267.519662 
L 94.530617 252.733639 
L 94.763178 282.579875 
L 94.763178 262.870762 
L 94.995738 259.463214 
L 94.995738 259.563722 
L 95.228299 258.142514 
L 95.228299 279.497654 
L 95.46086 277.349973 
L 95.46086 266.290652 
L 95.69342 252.083868 
L 95.69342 260.384531 
L 95.925981 274.052631 
L 95.925981 292.852771 
L 96.158541 282.328607 
L 96.158541 266.034976 
L 96.391102 266.666232 
L 96.391102 292.614728 
L 96.623662 289.974209 
L 96.623662 275.652812 
L 96.856223 279.615794 
L 96.856223 295.399836 
L 97.088784 285.059935 
L 97.088784 274.512848 
L 97.321344 289.569535 
L 97.321344 288.207398 
L 97.553905 282.764138 
L 97.553905 278.629236 
L 97.786465 292.806926 
L 97.786465 290.289837 
L 98.019026 289.046721 
L 98.019026 277.921277 
L 98.251586 294.173471 
L 98.484147 280.679054 
L 98.484147 295.488 
L 98.716707 292.682614 
L 98.716707 287.856504 
L 98.949268 285.475188 
L 98.949268 290.303062 
L 99.181829 283.406856 
L 99.181829 288.967374 
L 99.414389 292.793701 
L 99.64695 268.582041 
L 99.64695 254.011138 
L 99.87951 275.940227 
L 99.87951 295.264063 
L 100.112071 294.710391 
L 100.112071 268.480652 
L 100.344631 267.853804 
L 100.344631 268.735446 
L 100.577192 263.037392 
L 100.577192 269.1507 
L 100.809753 258.834603 
L 100.809753 259.898746 
L 101.042313 283.343377 
L 101.042313 261.199168 
L 101.274874 260.719555 
L 101.274874 265.605616 
L 101.507434 249.233519 
L 101.507434 262.747332 
L 101.739995 267.620169 
L 101.739995 252.317504 
L 101.972555 263.521414 
L 101.972555 246.764039 
L 102.205116 247.460536 
L 102.205116 250.207734 
L 102.437676 236.909041 
L 102.437676 254.84429 
L 102.670237 243.592771 
L 102.902798 241.392192 
L 102.902798 233.360431 
L 103.135358 246.303821 
L 103.135358 239.706492 
L 103.367919 245.403665 
L 103.367919 249.023688 
L 103.600479 243.298303 
L 103.600479 231.213632 
L 103.83304 232.439996 
L 103.83304 239.679161 
L 104.0656 248.770657 
L 104.0656 245.33666 
L 104.298161 228.126121 
L 104.298161 248.554654 
L 104.530722 239.806999 
L 104.530722 233.857677 
L 104.763282 242.237687 
L 104.763282 230.25705 
L 104.995843 213.901704 
L 104.995843 220.054685 
L 105.228403 237.669017 
L 105.228403 219.856316 
L 105.460964 229.585239 
L 105.460964 225.44152 
L 105.693524 212.639192 
L 105.693524 217.370085 
L 105.926085 224.019431 
L 105.926085 214.253479 
L 106.158645 232.133185 
L 106.158645 216.491969 
L 106.391206 240.45148 
L 106.391206 228.509635 
L 106.623767 212.888697 
L 106.623767 235.02938 
L 106.856327 210.502091 
L 106.856327 217.851461 
L 107.088888 233.098583 
L 107.088888 231.736446 
L 107.321448 231.774356 
L 107.321448 229.858548 
L 107.554009 232.904622 
L 107.554009 228.549309 
L 107.786569 233.235238 
L 107.786569 236.639259 
L 108.01913 245.876225 
L 108.01913 233.588776 
L 108.251691 230.875081 
L 108.251691 226.195324 
L 108.484251 236.633969 
L 108.484251 250.75876 
L 108.716812 236.544923 
L 108.716812 246.384051 
L 108.949372 258.417587 
L 108.949372 237.576444 
L 109.181933 246.621213 
L 109.181933 254.953614 
L 109.414493 262.712948 
L 109.414493 249.396623 
L 109.879614 276.577654 
L 109.879614 255.780594 
L 110.112175 267.231365 
L 110.344736 279.363644 
L 110.344736 258.191886 
L 110.577296 264.887078 
L 110.577296 273.04844 
L 110.809857 271.285156 
L 110.809857 274.69094 
L 111.042417 275.72687 
L 111.042417 287.800079 
L 111.274978 266.677693 
L 111.274978 287.880309 
L 111.507538 274.210445 
L 111.740099 289.730876 
L 111.97266 284.092773 
L 111.97266 294.411515 
L 112.20522 293.004414 
L 112.20522 287.629041 
L 112.437781 282.596626 
L 112.437781 290.486443 
L 112.670341 295.488 
L 112.670341 295.488 
L 112.902902 282.347122 
L 112.902902 283.121204 
L 113.135462 290.781793 
L 113.135462 278.559586 
L 113.368023 272.299926 
L 113.368023 282.4106 
L 113.600583 285.171904 
L 113.600583 280.55298 
L 113.833144 270.404395 
L 113.833144 271.440325 
L 114.065705 283.5056 
L 114.065705 279.766555 
L 114.298265 282.796759 
L 114.298265 258.183951 
L 114.530826 259.628963 
L 114.530826 263.341559 
L 114.763386 258.548951 
L 114.763386 265.919481 
L 114.995947 267.21285 
L 114.995947 263.210194 
L 115.228507 251.747963 
L 115.228507 268.458611 
L 115.461068 280.687871 
L 115.693629 268.535313 
L 115.693629 270.543695 
L 115.926189 274.826713 
L 115.926189 262.453745 
L 116.15875 265.487476 
L 116.15875 263.370653 
L 116.39131 281.795214 
L 116.39131 279.473849 
L 116.623871 280.800721 
L 116.623871 273.387873 
L 116.856431 276.363415 
L 116.856431 273.959177 
L 117.088992 292.450742 
L 117.088992 275.54966 
L 117.321552 279.02862 
L 117.321552 295.329304 
L 117.554113 280.447182 
L 117.554113 283.361892 
L 117.786674 280.356373 
L 117.786674 274.176061 
L 118.019234 286.274838 
L 118.019234 277.729079 
L 118.251795 279.267545 
L 118.251795 293.647131 
L 118.484355 286.273956 
L 118.716916 289.827856 
L 118.716916 288.072507 
L 118.949476 271.526726 
L 118.949476 284.984995 
L 119.182037 289.066999 
L 119.182037 283.31781 
L 119.414598 270.770277 
L 119.414598 295.162674 
L 119.647158 292.725815 
L 119.647158 295.488 
L 119.879719 280.178282 
L 119.879719 288.7884 
L 120.112279 282.316264 
L 120.34484 291.219088 
L 120.34484 281.651506 
L 120.5774 281.812846 
L 120.5774 293.20631 
L 120.809961 270.437898 
L 120.809961 285.616251 
L 121.042521 284.394295 
L 121.042521 272.417185 
L 121.275082 287.155599 
L 121.275082 268.776002 
L 121.507643 254.131923 
L 121.507643 283.885587 
L 121.740203 264.452428 
L 121.740203 248.893205 
L 121.972764 261.274108 
L 121.972764 248.647227 
L 122.205324 259.98162 
L 122.205324 257.341983 
L 122.437885 238.832785 
L 122.437885 250.870729 
L 122.670445 245.468906 
L 122.670445 254.281803 
L 122.903006 233.701627 
L 122.903006 241.031601 
L 123.135567 228.935468 
L 123.135567 232.520226 
L 123.368127 229.363065 
L 123.368127 225.241387 
L 123.600688 244.841177 
L 123.833248 238.314379 
L 124.065809 225.413307 
L 124.065809 233.88589 
L 124.298369 241.815381 
L 124.298369 235.57159 
L 124.53093 223.075192 
L 124.53093 236.171107 
L 124.76349 235.949814 
L 124.76349 235.729404 
L 124.996051 248.167613 
L 125.228612 250.399932 
L 125.228612 268.921473 
L 125.461172 263.844976 
L 125.461172 265.504227 
L 125.693733 252.526453 
L 125.693733 261.246777 
L 125.926293 259.860835 
L 125.926293 246.794896 
L 126.158854 257.33493 
L 126.158854 251.792045 
L 126.391414 251.940161 
L 126.391414 268.276111 
L 126.623975 251.688893 
L 126.623975 251.822902 
L 126.856536 251.844943 
L 126.856536 246.324099 
L 127.089096 266.599227 
L 127.089096 238.890973 
L 127.321657 242.361117 
L 127.321657 247.314184 
L 127.786778 256.374821 
L 127.786778 252.646356 
L 128.019338 262.003226 
L 128.019338 251.025898 
L 128.251899 247.644799 
L 128.251899 249.011345 
L 128.484459 237.723679 
L 128.484459 250.494267 
L 128.71702 240.281323 
L 128.71702 243.344148 
L 128.949581 248.529968 
L 128.949581 247.945439 
L 129.182141 242.610622 
L 129.182141 250.154835 
L 129.414702 242.930658 
L 129.414702 244.636636 
L 129.647262 259.758564 
L 129.647262 252.367757 
L 129.879823 239.387338 
L 129.879823 244.537892 
L 130.112383 257.524483 
L 130.112383 248.559062 
L 130.344944 256.981391 
L 130.344944 268.019553 
L 130.577505 249.893869 
L 130.577505 229.702497 
L 130.810065 257.899181 
L 130.810065 252.949641 
L 131.042626 268.488586 
L 131.042626 265.308503 
L 131.275186 264.342223 
L 131.275186 262.861064 
L 131.507747 260.850038 
L 131.507747 257.251174 
L 131.740307 276.715191 
L 131.740307 255.598094 
L 131.972868 258.563939 
L 131.972868 264.751305 
L 132.205428 269.427535 
L 132.205428 257.5765 
L 132.437989 272.582933 
L 132.437989 281.325298 
L 132.67055 263.640435 
L 132.67055 268.442741 
L 132.90311 267.643091 
L 132.90311 266.920145 
L 133.135671 256.308698 
L 133.135671 261.401946 
L 133.368231 277.126036 
L 133.600792 272.82274 
L 133.600792 284.906529 
L 133.833352 277.136616 
L 133.833352 285.740563 
L 134.065913 264.388068 
L 134.065913 265.282935 
L 134.298474 271.103537 
L 134.298474 285.012326 
L 134.531034 286.269548 
L 134.531034 278.897255 
L 134.763595 294.701575 
L 134.763595 293.102276 
L 135.228716 284.523015 
L 135.228716 293.746756 
L 135.461276 281.101361 
L 135.926397 290.359487 
L 135.926397 291.654619 
L 136.158958 282.973969 
L 136.158958 275.461495 
L 136.391519 269.804878 
L 136.391519 281.378197 
L 136.624079 295.219981 
L 136.624079 283.853848 
L 137.0892 280.254103 
L 137.0892 261.064277 
L 137.321761 266.19279 
L 137.321761 263.41209 
L 137.554321 278.106422 
L 137.554321 277.012304 
L 138.019443 248.119123 
L 138.019443 265.997065 
L 138.252003 252.910849 
L 138.252003 261.494518 
L 138.484564 272.037197 
L 138.484564 266.84256 
L 138.717124 268.326364 
L 138.717124 251.340644 
L 138.949685 246.532167 
L 139.182245 271.473827 
L 139.182245 258.503106 
L 139.414806 259.123782 
L 139.414806 248.064461 
L 139.647367 244.176419 
L 139.647367 261.518322 
L 139.879927 236.05473 
L 139.879927 248.731864 
L 140.112488 245.554426 
L 140.112488 234.054283 
L 140.345048 237.927338 
L 140.345048 218.488007 
L 140.577609 240.250465 
L 140.577609 238.569174 
L 140.810169 235.219815 
L 140.810169 233.156772 
L 141.04273 225.118839 
L 141.04273 244.156141 
L 141.27529 250.272975 
L 141.27529 243.940138 
L 141.507851 224.52373 
L 141.507851 225.540264 
L 141.740412 253.864786 
L 141.740412 223.899528 
L 141.972972 241.509451 
L 141.972972 222.534745 
L 142.205533 240.248702 
L 142.205533 216.006184 
L 142.438093 225.701604 
L 142.438093 232.7424 
L 142.670654 242.109849 
L 142.903214 230.857448 
L 142.903214 235.414658 
L 143.135775 238.373449 
L 143.135775 251.607781 
L 143.368336 251.31684 
L 143.368336 248.914364 
L 143.600896 251.784992 
L 143.600896 255.651875 
L 143.833457 245.28288 
L 143.833457 228.774128 
L 144.066017 271.525844 
L 144.298578 255.151102 
L 144.298578 264.330761 
L 144.531138 284.415454 
L 144.531138 267.565507 
L 144.763699 264.844759 
L 144.763699 266.994203 
L 144.996259 276.391628 
L 145.22882 268.499166 
L 145.22882 277.666483 
L 145.461381 272.330784 
L 145.461381 278.093198 
L 145.693941 285.392314 
L 145.693941 273.392281 
L 146.159062 293.20102 
L 146.159062 284.984114 
L 146.391623 281.328825 
L 146.391623 277.974176 
L 146.856744 294.079136 
L 146.856744 285.367628 
L 147.321865 288.821903 
L 147.321865 294.864679 
L 147.554426 284.694935 
L 147.554426 295.365452 
L 147.786986 292.489535 
L 147.786986 278.294212 
L 148.019547 295.488 
L 148.019547 295.488 
L 148.252107 288.693183 
L 148.484668 278.462606 
L 148.484668 295.488 
L 148.717228 294.111756 
L 148.717228 280.686989 
L 148.949789 281.280334 
L 148.949789 284.621759 
L 149.18235 290.41503 
L 149.18235 282.259839 
L 149.41491 295.488 
L 149.41491 288.797217 
L 149.647471 294.906998 
L 149.647471 288.508038 
L 149.880031 290.583424 
L 149.880031 290.333038 
L 150.112592 290.116154 
L 150.112592 293.327095 
L 150.345152 284.331698 
L 150.577713 289.677096 
L 150.810274 270.202499 
L 150.810274 280.340504 
L 151.042834 281.597726 
L 151.042834 279.608741 
L 151.275395 276.946181 
L 151.275395 272.142994 
L 151.507955 281.168366 
L 151.507955 276.088343 
L 151.740516 277.801374 
L 151.740516 269.332318 
L 151.973076 275.112365 
L 152.205637 262.627428 
L 152.205637 273.202728 
L 152.438197 273.686749 
L 152.438197 283.038329 
L 152.670758 269.826038 
L 152.670758 270.958948 
L 152.903319 283.516179 
L 152.903319 282.249259 
L 153.135879 277.078427 
L 153.135879 278.044707 
L 153.36844 281.676192 
L 153.36844 274.769406 
L 153.601 277.682352 
L 153.601 275.152921 
L 153.833561 279.827388 
L 153.833561 277.123391 
L 154.066121 274.63716 
L 154.066121 275.497643 
L 154.298682 275.454442 
L 154.298682 274.638923 
L 154.531243 274.487281 
L 154.531243 269.708779 
L 154.763803 268.531787 
L 154.763803 272.618199 
L 154.996364 266.691799 
L 154.996364 267.640447 
L 155.228924 268.196763 
L 155.228924 267.13791 
L 155.461485 261.456608 
L 155.461485 269.625023 
L 155.694045 258.992417 
L 155.926606 260.616402 
L 155.926606 255.47731 
L 156.159166 255.147575 
L 156.159166 257.922104 
L 156.391727 250.08254 
L 156.624288 249.893869 
L 156.624288 248.113833 
L 156.856848 245.717529 
L 156.856848 240.484101 
L 157.089409 242.174209 
L 157.089409 241.380731 
L 157.321969 236.492906 
L 157.321969 242.210356 
L 157.78709 230.741953 
L 157.78709 232.269839 
L 158.019651 229.081821 
L 158.019651 230.247352 
L 158.252212 228.452328 
L 158.252212 230.854804 
L 158.484772 232.523752 
L 158.484772 228.502582 
L 158.717333 224.774117 
L 158.717333 228.750323 
L 158.949893 232.633958 
L 158.949893 235.045249 
L 159.182454 233.968764 
L 159.182454 228.137582 
L 159.415014 230.640564 
L 159.415014 231.90484 
L 159.647575 242.249149 
L 159.647575 231.764658 
L 159.880135 231.714405 
L 159.880135 233.281965 
L 160.112696 224.382668 
L 160.112696 240.851746 
L 160.345257 226.035747 
L 160.577817 241.995236 
L 160.577817 226.043682 
L 160.810378 242.109849 
L 160.810378 238.92712 
L 161.042938 238.312616 
L 161.042938 228.589865 
L 161.275499 231.857231 
L 161.275499 240.590779 
L 161.508059 232.584586 
L 161.74062 244.5423 
L 161.973181 243.299185 
L 161.973181 240.351854 
L 162.205741 248.669268 
L 162.205741 245.190307 
L 162.438302 249.760741 
L 162.438302 254.492515 
L 162.670862 250.354086 
L 162.670862 252.361586 
L 162.903423 271.452668 
L 162.903423 281.670902 
L 163.135983 258.958033 
L 163.368544 289.88869 
L 163.601104 282.63101 
L 163.601104 270.973054 
L 163.833665 274.286266 
L 163.833665 282.569295 
L 164.066226 286.19549 
L 164.066226 288.933871 
L 164.298786 290.530525 
L 164.298786 295.360162 
L 164.531347 279.034792 
L 164.531347 292.064583 
L 164.763907 283.326626 
L 164.763907 287.619343 
L 164.996468 291.227904 
L 164.996468 281.677073 
L 165.229028 283.527641 
L 165.229028 295.315198 
L 165.461589 285.425817 
L 165.461589 292.582989 
L 165.69415 289.131359 
L 165.69415 292.984136 
L 165.92671 282.267774 
L 165.92671 292.16509 
L 166.159271 286.280128 
L 166.391831 295.488 
L 166.624392 287.15648 
L 166.856952 291.594668 
L 166.856952 289.773195 
L 167.089513 288.225031 
L 167.322073 280.925914 
L 167.322073 295.201466 
L 167.554634 293.191322 
L 167.554634 275.572582 
L 167.787195 294.677771 
L 167.787195 284.879198 
L 168.019755 288.865103 
L 168.019755 293.830512 
L 168.252316 263.159059 
L 168.252316 291.022482 
L 168.484876 288.263823 
L 168.484876 268.353695 
L 168.717437 280.756639 
L 168.949997 277.154249 
L 168.949997 283.637846 
L 169.182558 268.156207 
L 169.182558 248.701888 
L 169.415119 255.487889 
L 169.647679 253.628506 
L 169.647679 269.635603 
L 169.88024 262.768491 
L 169.88024 245.552662 
L 170.1128 236.410913 
L 170.1128 251.870511 
L 170.345361 257.788094 
L 170.345361 254.683831 
L 170.577921 233.441542 
L 170.577921 250.257105 
L 170.810482 226.46158 
L 170.810482 232.787363 
L 171.043042 249.382516 
L 171.275603 241.576455 
L 171.275603 248.927589 
L 171.508164 223.805192 
L 171.508164 243.849329 
L 171.740724 243.908399 
L 171.740724 232.196663 
L 171.973285 251.17754 
L 171.973285 225.863827 
L 172.205845 244.196696 
L 172.205845 262.702368 
L 172.438406 247.06556 
L 172.438406 249.362239 
L 172.670966 269.879818 
L 172.670966 252.765378 
L 172.903527 249.690209 
L 172.903527 263.254276 
L 173.136088 256.999024 
L 173.136088 275.03478 
L 173.368648 257.13656 
L 173.368648 269.673514 
L 173.601209 260.886185 
L 173.601209 268.535313 
L 173.833769 269.662052 
L 173.833769 279.799175 
L 174.06633 267.122041 
L 174.06633 260.321052 
L 174.29889 284.623522 
L 174.531451 266.109916 
L 174.531451 272.05483 
L 174.764011 278.331241 
L 174.764011 293.322687 
L 174.996572 273.583597 
L 175.229133 288.698473 
L 175.229133 273.497196 
L 175.694254 294.952843 
L 175.694254 282.050008 
L 175.926814 292.627952 
L 175.926814 280.528294 
L 176.159375 287.779801 
L 176.159375 273.350844 
L 176.391935 287.505611 
L 176.391935 271.777112 
L 176.624496 274.620409 
L 176.624496 265.809276 
L 176.857057 271.871448 
L 176.857057 281.618885 
L 177.089617 277.632099 
L 177.089617 281.860455 
L 177.322178 282.380624 
L 177.322178 278.109949 
L 177.554738 289.264487 
L 177.787299 272.820977 
L 177.787299 264.716921 
L 178.019859 266.186618 
L 178.019859 277.379067 
L 178.25242 269.611799 
L 178.25242 274.252764 
L 178.48498 271.504685 
L 178.48498 254.985353 
L 178.717541 261.310255 
L 178.717541 259.38563 
L 178.950102 253.939725 
L 178.950102 259.772671 
L 179.182662 272.365168 
L 179.182662 266.290652 
L 179.415223 270.992451 
L 179.415223 268.473599 
L 179.647783 244.00538 
L 179.647783 230.175939 
L 179.880344 230.695226 
L 179.880344 235.006457 
L 180.112904 229.681338 
L 180.112904 249.530632 
L 180.345465 223.334395 
L 180.345465 232.306868 
L 180.578026 235.134295 
L 180.578026 231.440214 
L 180.810586 238.367278 
L 180.810586 220.57221 
L 181.043147 206.01894 
L 181.043147 229.684864 
L 181.275707 221.622245 
L 181.275707 232.084695 
L 181.508268 213.671595 
L 181.508268 225.211411 
L 181.740828 213.121451 
L 181.740828 221.669854 
L 181.973389 205.55696 
L 181.973389 197.763242 
L 182.205949 213.437078 
L 182.205949 222.312571 
L 182.43851 232.31833 
L 182.43851 217.214916 
L 182.671071 218.424529 
L 182.671071 209.35243 
L 182.903631 207.260293 
L 182.903631 218.535616 
L 183.136192 216.62686 
L 183.136192 202.800064 
L 183.368752 211.75226 
L 183.368752 208.625075 
L 183.601313 215.035496 
L 183.601313 191.336069 
L 183.833873 204.619774 
L 183.833873 202.71719 
L 184.066434 189.794959 
L 184.066434 211.076922 
L 184.298995 195.135066 
L 184.531555 200.46812 
L 184.531555 189.729717 
L 184.764116 176.865675 
L 184.764116 194.834426 
L 184.996676 194.890851 
L 184.996676 175.114733 
L 185.229237 189.239524 
L 185.229237 187.974367 
L 185.461797 176.135675 
L 185.926918 184.584453 
L 185.926918 167.373032 
L 186.159479 171.46826 
L 186.159479 175.424189 
L 186.39204 173.183055 
L 186.39204 156.58173 
L 186.6246 154.962153 
L 186.6246 157.256187 
L 186.857161 162.708263 
L 187.089721 156.49004 
L 187.089721 152.32957 
L 187.322282 165.117791 
L 187.322282 162.747055 
L 187.554842 162.172224 
L 187.554842 163.921402 
L 187.787403 151.929304 
L 188.019964 151.031792 
L 188.019964 156.115342 
L 188.252524 146.533653 
L 188.252524 150.002034 
L 188.485085 149.541817 
L 188.717645 150.38114 
L 188.717645 139.558981 
L 188.950206 142.673823 
L 188.950206 144.317204 
L 189.182766 146.874849 
L 189.415327 142.676468 
L 189.415327 142.939197 
L 189.647887 148.529691 
L 189.647887 147.566938 
L 189.880448 145.264088 
L 190.345569 159.993686 
L 190.345569 159.279556 
L 190.57813 160.666379 
L 190.57813 163.265461 
L 190.81069 171.929359 
L 190.81069 165.674989 
L 191.043251 168.978503 
L 191.043251 163.242538 
L 191.275811 177.529551 
L 191.275811 172.150652 
L 191.508372 180.515674 
L 191.508372 176.233537 
L 191.740933 179.749526 
L 191.740933 173.813429 
L 191.973493 183.932919 
L 191.973493 182.822932 
L 192.206054 184.764308 
L 192.206054 177.86193 
L 192.438614 185.10374 
L 192.438614 188.649705 
L 192.671175 183.297255 
L 192.903735 188.523631 
L 192.903735 192.167458 
L 193.136296 186.109694 
L 193.136296 194.831781 
L 193.368856 191.776891 
L 193.368856 179.180867 
L 193.601417 201.566647 
L 193.601417 192.785489 
L 193.833978 197.318894 
L 193.833978 192.515707 
L 194.066538 204.985655 
L 194.066538 194.350404 
L 194.299099 222.229697 
L 194.531659 213.495267 
L 194.531659 214.359276 
L 194.76422 229.46269 
L 194.76422 218.437754 
L 195.229341 251.226912 
L 195.461902 248.956683 
L 195.461902 257.398408 
L 195.694462 267.970181 
L 195.694462 251.48347 
L 195.927023 278.256301 
L 195.927023 266.176039 
L 196.159583 268.888852 
L 196.159583 281.822544 
L 196.392144 280.474513 
L 196.392144 293.959232 
L 196.624704 293.01852 
L 196.624704 285.970671 
L 196.857265 290.721842 
L 197.089825 278.214864 
L 197.089825 284.551227 
L 197.322386 276.80071 
L 197.322386 279.500299 
L 197.554947 274.962486 
L 197.554947 277.193922 
L 197.787507 265.444276 
L 197.787507 258.302973 
L 198.020068 247.669485 
L 198.020068 250.261514 
L 198.252628 250.032287 
L 198.252628 252.400378 
L 198.485189 262.950991 
L 198.485189 245.510343 
L 198.717749 243.554861 
L 198.717749 230.580613 
L 198.95031 229.234345 
L 198.95031 231.458729 
L 199.182871 214.231438 
L 199.182871 229.672521 
L 199.415431 220.417922 
L 199.415431 213.655726 
L 199.647992 215.492187 
L 199.647992 214.855641 
L 200.113113 192.219475 
L 200.345673 190.131746 
L 200.345673 198.102674 
L 200.578234 193.594837 
L 200.578234 191.209995 
L 200.810794 182.334502 
L 200.810794 188.816336 
L 201.043355 186.124682 
L 201.043355 182.863487 
L 201.275916 190.840587 
L 201.275916 181.913958 
L 201.508476 180.945915 
L 201.508476 181.2492 
L 201.741037 177.968609 
L 201.741037 181.697074 
L 201.973597 180.33141 
L 201.973597 167.477066 
L 202.206158 173.934214 
L 202.206158 172.673465 
L 202.438718 171.944347 
L 202.438718 173.369081 
L 202.671279 164.390436 
L 202.671279 164.448624 
L 202.90384 163.185231 
L 202.90384 161.954458 
L 203.1364 156.22731 
L 203.601521 133.114176 
L 203.834082 122.253224 
L 204.066642 98.890585 
L 204.066642 106.375728 
L 204.531763 84.663524 
L 204.531763 72.397234 
L 204.764324 70.050303 
L 204.764324 63.906138 
L 204.996885 70.261897 
L 204.996885 68.898878 
L 205.229445 53.568 
L 205.229445 74.120845 
L 205.462006 69.729385 
L 205.462006 56.458905 
L 205.694566 59.515559 
L 205.694566 71.42831 
L 205.927127 57.654412 
L 205.927127 73.263007 
L 206.159687 78.532583 
L 206.159687 67.692791 
L 206.392248 111.111029 
L 206.392248 77.266545 
L 206.624809 71.500604 
L 206.624809 91.176215 
L 206.857369 94.476202 
L 206.857369 106.605837 
L 207.08993 107.982962 
L 207.08993 126.38989 
L 207.32249 113.640461 
L 207.32249 124.943115 
L 207.555051 141.220877 
L 207.555051 130.134225 
L 207.787611 144.960803 
L 207.787611 140.929935 
L 208.020172 172.769564 
L 208.020172 158.11138 
L 208.485293 192.124258 
L 208.485293 169.059614 
L 208.717854 189.218365 
L 208.717854 176.377245 
L 208.950414 190.822954 
L 208.950414 207.474532 
L 209.182975 209.130256 
L 209.182975 199.699328 
L 209.415535 217.974891 
L 209.648096 208.631246 
L 209.648096 239.326504 
L 209.880656 217.212271 
L 209.880656 231.021434 
L 210.113217 221.801219 
L 210.113217 212.146354 
L 210.345778 203.444545 
L 210.578338 209.586947 
L 210.578338 209.086174 
L 210.810899 195.631431 
L 210.810899 213.576378 
L 211.043459 204.997998 
L 211.043459 199.631442 
L 211.27602 204.208929 
L 211.27602 203.396054 
L 211.50858 204.302383 
L 211.50858 202.977274 
L 211.741141 207.880087 
L 211.741141 192.178038 
L 211.973701 194.871455 
L 211.973701 224.280397 
L 212.206262 226.77809 
L 212.206262 212.416137 
L 212.438823 211.982369 
L 212.438823 214.271112 
L 212.671383 209.638082 
L 212.671383 227.027594 
L 212.903944 222.90239 
L 212.903944 240.616347 
L 213.136504 239.385574 
L 213.136504 227.065505 
L 213.601625 263.91639 
L 213.601625 248.838543 
L 213.834186 266.588647 
L 213.834186 257.700811 
L 214.066747 279.069176 
L 214.066747 262.695315 
L 214.299307 291.658146 
L 214.299307 266.492548 
L 214.531868 294.325995 
L 214.764428 293.514885 
L 214.764428 287.502966 
L 214.996989 288.337881 
L 214.996989 289.442579 
L 215.229549 265.009626 
L 215.229549 280.485975 
L 215.69467 259.431475 
L 215.69467 278.73327 
L 215.927231 263.97546 
L 215.927231 252.961102 
L 216.159792 245.908846 
L 216.159792 264.978768 
L 216.392352 244.174655 
L 216.624913 243.278025 
L 216.624913 240.045043 
L 216.857473 216.209843 
L 216.857473 248.695717 
L 217.322594 203.657021 
L 217.322594 206.733952 
L 217.555155 217.382428 
L 217.555155 207.882732 
L 217.787716 192.622386 
L 217.787716 193.584257 
L 218.020276 215.001994 
L 218.020276 202.756864 
L 218.252837 197.316249 
L 218.252837 191.533557 
L 218.485397 196.385235 
L 218.485397 174.455265 
L 218.717958 188.647942 
L 218.717958 171.576702 
L 218.950518 167.596087 
L 218.950518 178.566363 
L 219.183079 162.687103 
L 219.183079 164.438045 
L 219.415639 167.649868 
L 219.415639 166.07261 
L 219.6482 161.864531 
L 219.6482 159.581959 
L 219.880761 155.000064 
L 219.880761 124.623961 
L 220.113321 156.453011 
L 220.113321 137.704887 
L 220.345882 163.21168 
L 220.578442 137.922653 
L 220.578442 160.319012 
L 220.811003 163.664844 
L 220.811003 150.98242 
L 221.043563 149.91916 
L 221.043563 126.783102 
L 221.276124 139.721203 
L 221.276124 135.012352 
L 221.508685 111.960932 
L 221.508685 144.654873 
L 221.741245 139.056445 
L 221.741245 125.963175 
L 221.973806 127.462849 
L 221.973806 151.005343 
L 222.206366 117.173202 
L 222.438927 135.916035 
L 222.671487 115.961825 
L 222.904048 115.201849 
L 222.904048 126.606774 
L 223.136608 123.579214 
L 223.136608 122.009891 
L 223.369169 122.738128 
L 223.369169 111.348191 
L 223.60173 119.211558 
L 223.60173 123.588912 
L 223.83429 109.775341 
L 223.83429 115.961825 
L 224.066851 117.509989 
L 224.299411 109.378602 
L 224.299411 121.593756 
L 224.531972 119.891305 
L 224.531972 121.146763 
L 224.764532 123.340289 
L 224.764532 126.096303 
L 224.997093 125.931436 
L 224.997093 122.317584 
L 225.229654 130.744321 
L 225.462214 127.319141 
L 225.462214 135.803185 
L 225.694775 137.05688 
L 225.694775 135.372943 
L 225.927335 141.473026 
L 226.159896 138.513353 
L 226.159896 145.571781 
L 226.392456 142.948014 
L 226.625017 143.339463 
L 226.625017 143.5634 
L 226.857577 138.493075 
L 227.090138 141.098328 
L 227.090138 140.929053 
L 227.322699 141.249971 
L 227.322699 134.375806 
L 227.555259 138.600636 
L 227.555259 136.363028 
L 227.78782 141.440406 
L 227.78782 140.870865 
L 228.02038 136.982822 
L 228.252941 144.841782 
L 228.485501 143.22485 
L 228.485501 140.788872 
L 228.718062 144.740393 
L 228.718062 147.569583 
L 228.950623 152.613458 
L 228.950623 150.94451 
L 229.183183 153.375197 
L 229.415744 163.395062 
L 229.648304 162.732949 
L 229.648304 161.928009 
L 229.880865 172.240579 
L 229.880865 170.010906 
L 230.113425 164.661982 
L 230.113425 173.570977 
L 230.345986 178.780602 
L 230.345986 182.085879 
L 230.578546 184.796929 
L 230.578546 184.258245 
L 230.811107 190.488811 
L 230.811107 196.442542 
L 231.043668 190.855574 
L 231.043668 194.875863 
L 231.276228 195.764559 
L 231.276228 197.124051 
L 231.508789 200.36585 
L 231.741349 210.965835 
L 231.741349 197.009438 
L 231.97391 204.737914 
L 231.97391 200.260053 
L 232.20647 223.153658 
L 232.20647 197.067626 
L 232.439031 213.646909 
L 232.439031 209.415908 
L 232.671592 207.629701 
L 232.671592 217.759771 
L 232.904152 217.379783 
L 232.904152 214.761305 
L 233.136713 218.796582 
L 233.136713 223.624455 
L 233.369273 218.863587 
L 233.369273 229.896458 
L 233.601834 226.002244 
L 233.601834 230.75077 
L 233.834394 247.853749 
L 233.834394 238.623835 
L 234.066955 238.367278 
L 234.066955 262.62831 
L 234.299515 248.566116 
L 234.764637 279.365407 
L 234.764637 271.360977 
L 234.997197 295.383085 
L 234.997197 275.22786 
L 235.229758 280.459525 
L 235.229758 274.823186 
L 235.462318 290.662772 
L 235.462318 271.380373 
L 235.694879 284.28409 
L 235.694879 292.162445 
L 235.927439 295.488 
L 235.927439 295.488 
L 236.16 274.909587 
L 236.16 294.712155 
L 236.392561 295.488 
L 236.625121 266.166341 
L 236.625121 293.757336 
L 236.857682 294.567565 
L 236.857682 280.845685 
L 237.090242 292.907433 
L 237.322803 280.709912 
L 237.322803 293.009704 
L 237.555363 292.640295 
L 237.555363 294.735959 
L 237.787924 294.92992 
L 237.787924 292.660573 
L 238.020485 292.633242 
L 238.020485 291.771878 
L 238.253045 295.488 
L 238.253045 280.333451 
L 238.485606 284.587375 
L 238.485606 288.089258 
L 238.718166 295.488 
L 238.950727 292.953278 
L 239.183287 272.944407 
L 239.183287 294.435319 
L 239.415848 281.134863 
L 239.648408 295.297565 
L 239.648408 281.36409 
L 239.880969 292.54596 
L 239.880969 290.439716 
L 240.11353 276.267316 
L 240.34609 295.488 
L 240.34609 295.488 
L 240.578651 293.332385 
L 240.578651 284.605889 
L 240.811211 273.232704 
L 240.811211 295.155621 
L 241.043772 294.571974 
L 241.043772 293.115501 
L 241.508893 273.034334 
L 241.508893 289.543086 
L 241.741454 283.243752 
L 241.741454 287.584958 
L 241.974014 283.098281 
L 241.974014 287.981698 
L 242.206575 272.148284 
L 242.206575 278.632763 
L 242.439135 270.271267 
L 242.439135 281.424042 
L 242.671696 270.365603 
L 242.671696 294.228133 
L 242.904256 295.488 
L 242.904256 295.488 
L 243.136817 279.374224 
L 243.136817 293.12079 
L 243.369377 275.091206 
L 243.369377 282.131119 
L 243.601938 295.488 
L 243.601938 288.379318 
L 243.834499 284.390768 
L 243.834499 280.226772 
L 244.067059 265.870109 
L 244.067059 277.131326 
L 244.29962 262.168093 
L 244.29962 285.866638 
L 244.53218 274.322413 
L 244.53218 266.322391 
L 244.764741 273.490143 
L 244.764741 280.652605 
L 244.997301 274.343573 
L 244.997301 275.04536 
L 245.229862 281.790805 
L 245.229862 281.577448 
L 245.694983 269.955639 
L 245.694983 277.375541 
L 245.927544 273.307643 
L 245.927544 276.889756 
L 246.160104 259.934893 
L 246.160104 264.084783 
L 246.392665 267.278973 
L 246.392665 244.932868 
L 246.857786 272.368694 
L 246.857786 251.64481 
L 247.090346 274.448488 
L 247.090346 248.493821 
L 247.322907 243.535465 
L 247.322907 246.921853 
L 247.555468 260.788323 
L 247.555468 250.488977 
L 247.788028 239.745284 
L 247.788028 262.835496 
L 248.020589 263.520532 
L 248.020589 261.931813 
L 248.253149 246.406974 
L 248.253149 263.256921 
L 248.48571 257.68406 
L 248.48571 257.927393 
L 248.71827 263.859083 
L 248.71827 242.602687 
L 248.950831 247.770874 
L 248.950831 252.820921 
L 249.183392 248.038012 
L 249.183392 256.962877 
L 249.415952 256.678988 
L 249.415952 245.921189 
L 249.648513 253.841863 
L 249.648513 245.023677 
L 249.881073 260.227598 
L 249.881073 250.89277 
L 250.113634 239.706492 
L 250.113634 258.220099 
L 250.346194 240.616347 
L 250.578755 239.65183 
L 250.578755 256.869423 
L 250.811315 260.9479 
L 250.811315 254.14603 
L 251.043876 257.778396 
L 251.043876 228.036193 
L 251.276437 245.802167 
L 251.508997 244.26282 
L 251.508997 234.401651 
L 251.741558 249.553555 
L 251.741558 241.303146 
L 251.974118 246.408737 
L 251.974118 245.162095 
L 252.206679 228.231036 
L 252.206679 231.763777 
L 252.439239 252.803288 
L 252.439239 221.201702 
L 252.6718 237.695466 
L 252.904361 225.909672 
L 252.904361 238.199766 
L 253.136921 249.686683 
L 253.136921 245.307566 
L 253.369482 236.028281 
L 253.369482 217.220206 
L 253.602042 227.506326 
L 253.602042 235.698546 
L 253.834603 228.472606 
L 253.834603 237.555285 
L 254.067163 246.358483 
L 254.067163 232.375637 
L 254.299724 227.529249 
L 254.299724 232.908148 
L 254.532284 240.621637 
L 254.532284 235.714416 
L 254.764845 234.834537 
L 254.764845 231.915419 
L 254.997406 238.849536 
L 254.997406 238.601794 
L 255.229966 222.868888 
L 255.229966 246.332916 
L 255.462527 235.256844 
L 255.462527 255.136114 
L 255.695087 247.427915 
L 255.695087 240.923159 
L 255.927648 237.256408 
L 255.927648 247.069969 
L 256.160208 242.099269 
L 256.160208 249.08364 
L 256.392769 241.859463 
L 256.392769 236.701855 
L 256.62533 256.500896 
L 256.62533 242.310864 
L 256.85789 252.126187 
L 256.85789 234.310841 
L 257.090451 261.185943 
L 257.323011 245.251141 
L 257.323011 268.917065 
L 257.555572 249.158579 
L 257.555572 254.987116 
L 257.788132 247.807903 
L 257.788132 241.072156 
L 258.020693 254.158373 
L 258.020693 233.453003 
L 258.253253 233.339272 
L 258.253253 252.044194 
L 258.485814 261.030774 
L 258.485814 247.045283 
L 258.718375 258.417587 
L 258.718375 252.923192 
L 258.950935 246.574486 
L 258.950935 246.759631 
L 259.183496 259.814108 
L 259.416056 234.488933 
L 259.416056 251.325656 
L 259.648617 248.689545 
L 259.648617 246.823109 
L 259.881177 235.486952 
L 259.881177 254.128397 
L 260.113738 246.681164 
L 260.346299 248.844715 
L 260.346299 266.618623 
L 260.578859 245.402783 
L 260.81142 235.391735 
L 260.81142 251.399714 
L 261.04398 253.191211 
L 261.04398 245.103025 
L 261.276541 250.204207 
L 261.276541 244.934631 
L 261.509101 263.021523 
L 261.509101 255.578698 
L 261.741662 253.48039 
L 261.741662 246.030512 
L 261.974222 238.458087 
L 261.974222 253.941489 
L 262.206783 246.687336 
L 262.206783 234.145974 
L 262.439344 256.569664 
L 262.671904 235.165153 
L 262.671904 264.895894 
L 262.904465 258.47313 
L 262.904465 249.220294 
L 263.137025 243.705622 
L 263.137025 245.410718 
L 263.369586 243.258629 
L 263.369586 250.250934 
L 263.602146 230.20856 
L 263.602146 237.841819 
L 263.834707 237.872676 
L 263.834707 237.068618 
L 264.067268 242.021685 
L 264.067268 238.235031 
L 264.299828 239.395272 
L 264.299828 254.878674 
L 264.532389 256.008058 
L 264.532389 248.427698 
L 264.764949 262.057006 
L 264.764949 245.861237 
L 264.99751 250.005837 
L 264.99751 268.202934 
L 265.23007 242.645006 
L 265.462631 267.908466 
L 265.695191 251.809678 
L 265.695191 271.166134 
L 265.927752 254.250063 
L 265.927752 273.958295 
L 266.160313 265.715821 
L 266.160313 269.680567 
L 266.392873 258.332067 
L 266.392873 264.179119 
L 266.625434 267.939323 
L 266.625434 264.755713 
L 266.857994 266.009408 
L 266.857994 259.625436 
L 267.090555 273.644431 
L 267.090555 255.236621 
L 267.323115 255.301863 
L 267.323115 276.337848 
L 267.555676 261.95209 
L 267.555676 274.728851 
L 267.788237 279.219055 
L 267.788237 262.206003 
L 268.020797 244.35451 
L 268.020797 263.853793 
L 268.253358 267.799142 
L 268.485918 259.293939 
L 268.485918 260.7654 
L 268.718479 257.533299 
L 268.718479 253.646138 
L 268.951039 255.714471 
L 268.951039 251.725922 
L 269.1836 254.852225 
L 269.1836 251.394424 
L 269.41616 253.407213 
L 269.41616 251.988651 
L 269.648721 238.804572 
L 269.648721 243.180163 
L 269.881282 246.004063 
L 269.881282 251.55312 
L 270.113842 241.131226 
L 270.113842 231.493113 
L 270.346403 246.916563 
L 270.578963 241.12241 
L 270.578963 262.417598 
L 270.811524 240.647205 
L 270.811524 242.098388 
L 271.044084 254.715571 
L 271.044084 240.143787 
L 271.276645 230.864502 
L 271.276645 240.440019 
L 271.509206 261.587972 
L 271.509206 247.509908 
L 271.741766 249.382516 
L 271.741766 257.457478 
L 271.974327 237.011312 
L 271.974327 253.025462 
L 272.206887 239.706492 
L 272.206887 241.257301 
L 272.439448 259.402381 
L 272.439448 251.650982 
L 272.672008 228.661278 
L 272.672008 245.421298 
L 272.904569 256.797128 
L 272.904569 238.77636 
L 273.137129 245.262602 
L 273.137129 238.951806 
L 273.36969 248.607553 
L 273.36969 236.263679 
L 273.602251 242.946528 
L 273.602251 256.169399 
L 273.834811 250.356731 
L 273.834811 228.397667 
L 274.067372 249.170041 
L 274.067372 238.832785 
L 274.299932 239.346782 
L 274.299932 249.431888 
L 274.532493 235.896916 
L 274.532493 243.844921 
L 274.765053 240.212555 
L 274.765053 247.252469 
L 274.997614 253.162998 
L 274.997614 250.928917 
L 275.230175 249.258205 
L 275.230175 251.36533 
L 275.462735 257.088952 
L 275.462735 246.913918 
L 275.695296 241.763364 
L 275.695296 250.847806 
L 275.927856 244.442675 
L 275.927856 254.620353 
L 276.160417 221.025374 
L 276.160417 253.232648 
L 276.392977 245.85771 
L 276.392977 252.035378 
L 276.625538 259.885521 
L 276.625538 242.231516 
L 276.858098 238.185659 
L 276.858098 248.930234 
L 277.090659 242.8566 
L 277.090659 247.162541 
L 277.32322 223.814008 
L 277.32322 249.330499 
L 277.55578 246.248278 
L 277.55578 264.944384 
L 277.788341 250.717323 
L 277.788341 252.000112 
L 278.020901 252.405668 
L 278.020901 248.6437 
L 278.253462 260.359845 
L 278.253462 242.118665 
L 278.486022 243.308001 
L 278.486022 234.100129 
L 278.951144 252.291054 
L 278.951144 249.723712 
L 279.183704 246.094872 
L 279.183704 259.717127 
L 279.416265 273.866604 
L 279.416265 255.033843 
L 279.648825 260.50796 
L 279.648825 250.861912 
L 279.881386 252.294581 
L 279.881386 259.738287 
L 280.113946 270.630096 
L 280.113946 265.405483 
L 280.811628 292.404015 
L 281.044189 279.691615 
L 281.044189 289.306806 
L 281.276749 292.758435 
L 281.276749 288.759306 
L 281.50931 282.404428 
L 281.50931 270.450241 
L 281.74187 275.070928 
L 281.74187 289.151637 
L 281.974431 252.631368 
L 281.974431 268.998176 
L 282.206991 271.000385 
L 282.206991 263.284252 
L 282.439552 250.450185 
L 282.439552 238.482773 
L 282.672113 238.966794 
L 282.672113 239.72677 
L 282.904673 239.830804 
L 282.904673 232.48496 
L 283.137234 240.160538 
L 283.137234 220.122572 
L 283.602355 199.915331 
L 283.602355 227.221556 
L 283.834915 215.24709 
L 283.834915 204.937165 
L 284.067476 206.355728 
L 284.067476 192.967108 
L 284.300036 176.58972 
L 284.300036 189.623039 
L 284.765158 159.581959 
L 284.765158 165.620327 
L 284.997718 139.131384 
L 284.997718 174.503755 
L 285.230279 157.989713 
L 285.230279 144.158509 
L 285.462839 147.049414 
L 285.462839 145.675815 
L 285.6954 131.665638 
L 285.6954 138.633257 
L 285.92796 146.914523 
L 285.92796 143.513147 
L 286.160521 165.754337 
L 286.160521 142.47369 
L 286.393082 147.382675 
L 286.393082 150.343229 
L 286.858203 203.625281 
L 287.090763 208.659459 
L 287.090763 203.980583 
L 287.555884 246.365536 
L 287.555884 243.992155 
L 287.788445 288.890671 
L 288.021005 279.82827 
L 288.021005 265.088974 
L 288.253566 261.452199 
L 288.253566 246.535693 
L 288.718687 216.740592 
L 288.718687 221.231678 
L 288.951248 200.040524 
L 288.951248 204.699122 
L 289.183808 198.524981 
L 289.183808 195.451576 
L 289.416369 207.852756 
L 289.416369 182.904043 
L 289.648929 197.084377 
L 289.648929 193.215731 
L 289.88149 183.177352 
L 289.88149 192.636492 
L 290.114051 184.784586 
L 290.114051 196.510428 
L 290.346611 193.496975 
L 290.346611 191.859765 
L 290.579172 195.993786 
L 290.579172 185.419368 
L 290.811732 193.036757 
L 290.811732 183.04246 
L 291.044293 180.669079 
L 291.044293 204.293566 
L 291.276853 181.286229 
L 291.276853 188.535092 
L 291.509414 173.959782 
L 291.509414 180.444261 
L 291.741974 170.892548 
L 291.741974 183.303427 
L 292.207096 167.998116 
L 292.207096 179.96641 
L 292.439656 178.932244 
L 292.439656 173.644154 
L 292.672217 175.129721 
L 292.672217 166.895182 
L 293.137338 182.298354 
L 293.137338 198.107082 
L 293.369898 201.195475 
L 293.369898 179.625215 
L 293.602459 188.605623 
L 293.602459 194.624595 
L 293.83502 199.346671 
L 294.06758 207.426923 
L 294.06758 214.652863 
L 294.300141 198.25608 
L 294.300141 217.206981 
L 294.532701 212.712368 
L 294.532701 204.558059 
L 294.765262 222.636134 
L 294.997822 218.578816 
L 294.997822 213.189337 
L 295.230383 231.397895 
L 295.462943 215.688793 
L 295.462943 220.878139 
L 295.695504 237.298727 
L 295.695504 219.141304 
L 295.928065 236.788256 
L 295.928065 219.326449 
L 296.160625 246.064896 
L 296.160625 237.025418 
L 296.393186 240.933738 
L 296.393186 236.311288 
L 296.625746 248.258422 
L 296.625746 247.549582 
L 296.858307 253.28202 
L 296.858307 262.634482 
L 297.090867 259.772671 
L 297.090867 263.196969 
L 297.323428 263.218129 
L 297.323428 270.754407 
L 297.555989 264.286679 
L 297.555989 280.687871 
L 297.788549 268.577632 
L 298.02111 283.432423 
L 298.25367 283.390104 
L 298.25367 287.982579 
L 298.486231 290.71038 
L 298.486231 292.158919 
L 298.718791 295.071865 
L 298.718791 287.262277 
L 298.951352 289.09433 
L 298.951352 288.997349 
L 299.183912 280.325516 
L 299.183912 273.175397 
L 299.416473 269.826038 
L 299.416473 277.972413 
L 299.649034 275.387437 
L 299.649034 273.671761 
L 299.881594 262.675037 
L 299.881594 266.057899 
L 300.114155 258.092261 
L 300.114155 260.736306 
L 300.346715 276.819224 
L 300.346715 250.475753 
L 300.579276 272.041605 
L 300.579276 256.581126 
L 300.811836 266.032331 
L 300.811836 251.145801 
L 301.044397 267.462355 
L 301.044397 266.086111 
L 301.276958 251.002093 
L 301.276958 251.176658 
L 301.509518 263.710967 
L 301.509518 252.995486 
L 301.742079 252.27254 
L 301.742079 256.086524 
L 302.2072 263.780617 
L 302.2072 251.261296 
L 302.43976 251.163434 
L 302.43976 264.768938 
L 302.672321 280.207376 
L 302.672321 275.992244 
L 302.904881 275.075336 
L 302.904881 269.387862 
L 303.137442 254.057865 
L 303.137442 260.757465 
L 303.370003 271.691593 
L 303.370003 256.366887 
L 303.602563 260.076837 
L 303.602563 268.682548 
L 303.835124 278.98542 
L 303.835124 250.826646 
L 304.067684 259.537272 
L 304.067684 270.166352 
L 304.300245 271.678368 
L 304.300245 285.361457 
L 304.532805 277.75641 
L 304.532805 281.50868 
L 304.765366 276.556495 
L 304.765366 281.958317 
L 304.997927 272.764552 
L 304.997927 275.398899 
L 305.230487 272.666689 
L 305.230487 289.148992 
L 305.463048 291.934982 
L 305.463048 281.466361 
L 305.695608 273.183332 
L 305.695608 291.825658 
L 305.928169 291.670489 
L 305.928169 282.248378 
L 306.160729 293.047614 
L 306.160729 292.862469 
L 306.39329 295.488 
L 306.39329 280.888885 
L 306.62585 290.562265 
L 306.62585 289.414366 
L 306.858411 285.691191 
L 306.858411 289.556311 
L 307.090972 286.775611 
L 307.090972 280.293777 
L 307.323532 269.010519 
L 307.323532 283.743643 
L 307.556093 267.240181 
L 307.556093 280.928559 
L 307.788653 294.026237 
L 307.788653 285.720285 
L 308.021214 274.893718 
L 308.021214 295.488 
L 308.253774 249.682275 
L 308.253774 251.969255 
L 308.486335 255.229568 
L 308.486335 263.43325 
L 308.718896 258.584217 
L 308.718896 246.652952 
L 308.951456 241.158557 
L 308.951456 256.375703 
L 309.184017 245.289051 
L 309.184017 263.162585 
L 309.416577 233.341916 
L 309.416577 236.323631 
L 309.649138 221.370977 
L 309.649138 244.393303 
L 309.881698 243.005598 
L 309.881698 246.752577 
L 310.114259 244.759184 
L 310.114259 234.220914 
L 310.346819 237.881493 
L 310.346819 237.480345 
L 310.57938 218.755145 
L 310.57938 239.424367 
L 310.811941 240.311299 
L 310.811941 243.740887 
L 311.044501 251.897842 
L 311.044501 248.715113 
L 311.277062 235.173969 
L 311.277062 268.993767 
L 311.509622 248.704533 
L 311.509622 267.847633 
L 311.742183 262.123129 
L 311.742183 256.311343 
L 311.974743 260.978757 
L 311.974743 265.982077 
L 312.207304 295.488 
L 312.207304 271.387426 
L 312.439865 263.703914 
L 312.439865 271.167897 
L 312.672425 261.178009 
L 312.672425 268.478888 
L 312.904986 278.147859 
L 312.904986 250.890125 
L 313.137546 284.868619 
L 313.370107 268.233792 
L 313.370107 288.051347 
L 313.602667 293.892227 
L 313.602667 271.949914 
L 313.835228 289.891335 
L 313.835228 270.057028 
L 314.067788 293.528991 
L 314.067788 287.00572 
L 314.300349 273.878947 
L 314.300349 280.942665 
L 314.53291 278.095843 
L 314.53291 287.34427 
L 314.76547 288.992941 
L 314.76547 275.419177 
L 314.998031 278.844357 
L 314.998031 276.817461 
L 315.230591 293.97951 
L 315.463152 291.584088 
L 315.695712 287.224367 
L 315.695712 291.387482 
L 315.928273 290.713025 
L 315.928273 285.130466 
L 316.160834 287.544403 
L 316.160834 295.107131 
L 316.625955 279.465033 
L 316.625955 273.985626 
L 316.858515 283.236699 
L 316.858515 282.161977 
L 317.091076 282.542846 
L 317.091076 288.739028 
L 317.323636 279.82298 
L 317.323636 295.189123 
L 317.556197 274.977474 
L 317.788757 283.331034 
L 317.788757 273.447824 
L 318.021318 295.488 
L 318.021318 283.640491 
L 318.253879 286.009464 
L 318.253879 271.155554 
L 318.486439 279.258729 
L 318.486439 270.929854 
L 318.719 274.489044 
L 318.719 278.268644 
L 318.95156 286.87171 
L 318.95156 276.189732 
L 319.184121 268.762777 
L 319.184121 278.120528 
L 319.416681 268.66756 
L 319.416681 276.186205 
L 319.649242 265.017561 
L 319.649242 275.226097 
L 319.881803 274.408814 
L 319.881803 257.477756 
L 320.114363 275.806217 
L 320.114363 264.19058 
L 320.346924 266.259795 
L 320.346924 276.868596 
L 320.579484 272.432172 
L 320.579484 265.95651 
L 320.812045 264.084783 
L 320.812045 265.138346 
L 321.044605 255.006513 
L 321.044605 255.142285 
L 321.277166 263.257803 
L 321.277166 269.620615 
L 321.509726 250.357613 
L 321.509726 255.0215 
L 321.742287 272.626134 
L 321.742287 260.410098 
L 321.974848 269.791654 
L 321.974848 267.398877 
L 322.207408 256.319278 
L 322.439969 257.562394 
L 322.439969 260.560859 
L 322.672529 260.295485 
L 322.672529 267.881135 
L 322.90509 263.994856 
L 322.90509 268.234673 
L 323.13765 263.473805 
L 323.13765 268.859758 
L 323.370211 248.341297 
L 323.370211 255.458795 
L 323.602772 264.258467 
L 323.835332 265.978551 
L 323.835332 257.485691 
L 324.067893 264.983177 
L 324.067893 269.726412 
L 324.300453 265.012271 
L 324.300453 265.39843 
L 324.533014 275.51792 
L 324.533014 265.479541 
L 324.765574 268.382789 
L 324.765574 269.825156 
L 324.998135 277.204502 
L 324.998135 276.113029 
L 325.230695 277.611821 
L 325.230695 280.525649 
L 325.463256 271.192583 
L 325.463256 280.423378 
L 325.695817 278.128463 
L 325.695817 264.570568 
L 325.928377 267.132621 
L 325.928377 269.121606 
L 326.160938 259.84761 
L 326.160938 272.065409 
L 326.393498 265.26971 
L 326.393498 265.406365 
L 326.626059 271.795627 
L 326.626059 270.120506 
L 326.858619 269.442523 
L 327.09118 268.701944 
L 327.09118 282.941349 
L 327.323741 277.256519 
L 327.323741 284.350213 
L 327.556301 273.756399 
L 327.556301 274.166363 
L 327.788862 278.588681 
L 327.788862 289.097857 
L 328.021422 282.624839 
L 328.021422 277.033464 
L 328.253983 276.708138 
L 328.253983 268.606727 
L 328.486543 277.059031 
L 328.486543 260.29813 
L 328.951664 281.445202 
L 328.951664 265.282935 
L 329.184225 263.517006 
L 329.184225 267.693345 
L 329.416786 266.720012 
L 329.416786 272.746037 
L 329.649346 263.211076 
L 329.649346 268.084794 
L 329.881907 261.692888 
L 330.114467 262.146933 
L 330.114467 265.574759 
L 330.347028 259.941064 
L 330.347028 254.481054 
L 330.579588 255.857297 
L 330.579588 257.701693 
L 330.812149 260.800666 
L 330.812149 257.601186 
L 331.04471 266.424662 
L 331.04471 261.91418 
L 331.27727 261.736088 
L 331.27727 261.359627 
L 331.509831 251.223385 
L 331.509831 255.303626 
L 331.742391 259.628081 
L 331.742391 264.954083 
L 331.974952 257.883311 
L 331.974952 259.061185 
L 332.207512 262.249204 
L 332.207512 274.756182 
L 332.440073 273.461931 
L 332.440073 264.752186 
L 332.672633 282.052653 
L 332.672633 277.915106 
L 332.905194 277.465468 
L 332.905194 285.232737 
L 333.137755 289.63654 
L 333.137755 294.388592 
L 333.370315 282.105552 
L 333.602876 279.897919 
L 333.602876 267.102645 
L 333.835436 255.799991 
L 333.835436 262.897211 
L 334.067997 249.473325 
L 334.067997 253.89388 
L 334.300557 260.692224 
L 334.300557 251.255125 
L 334.533118 237.541179 
L 334.533118 241.853291 
L 334.765679 252.198482 
L 334.765679 215.20389 
L 334.998239 241.550006 
L 334.998239 231.907484 
L 335.2308 222.726943 
L 335.2308 234.592085 
L 335.46336 229.495311 
L 335.46336 241.646987 
L 335.695921 224.981303 
L 335.695921 240.551106 
L 335.928481 227.784043 
L 335.928481 231.664151 
L 336.161042 253.667298 
L 336.161042 238.712 
L 336.393603 226.639672 
L 336.393603 231.414646 
L 336.626163 239.403207 
L 336.626163 249.751043 
L 336.858724 235.562773 
L 336.858724 253.047503 
L 337.091284 227.71792 
L 337.091284 239.167809 
L 337.323845 239.322978 
L 337.323845 238.667918 
L 337.556405 248.460319 
L 337.788966 250.784328 
L 337.788966 236.582834 
L 338.021526 238.771951 
L 338.021526 243.614812 
L 338.254087 238.756963 
L 338.254087 241.488291 
L 338.486648 249.533277 
L 338.486648 235.287701 
L 338.719208 248.733628 
L 338.951769 246.816056 
L 338.951769 253.542105 
L 339.184329 245.549136 
L 339.184329 253.17975 
L 339.41689 251.007383 
L 339.41689 246.694389 
L 339.64945 256.532635 
L 339.64945 255.543433 
L 339.882011 272.895916 
L 339.882011 264.714276 
L 340.114572 267.972826 
L 340.114572 279.44211 
L 340.347132 270.206907 
L 340.579693 278.832895 
L 340.812253 274.735022 
L 340.812253 281.432859 
L 341.277374 293.217771 
L 341.277374 291.779813 
L 341.509935 290.423847 
L 341.509935 295.254365 
L 341.975056 281.969779 
L 341.975056 295.488 
L 342.207617 281.743197 
L 342.440177 279.314272 
L 342.440177 281.018487 
L 342.672738 282.769428 
L 342.672738 280.448946 
L 342.905298 277.183343 
L 342.905298 277.29972 
L 343.137859 278.320661 
L 343.137859 276.563548 
L 343.370419 277.492799 
L 343.60298 272.253199 
L 343.60298 274.600131 
L 343.835541 276.43571 
L 343.835541 274.548114 
L 344.068101 273.626798 
L 344.068101 273.731713 
L 344.300662 275.512631 
L 344.300662 274.698875 
L 344.533222 275.45885 
L 344.765783 272.932945 
L 344.765783 273.337619 
L 344.998343 273.464576 
L 344.998343 273.362305 
L 345.230904 274.49257 
L 345.463464 271.584033 
L 345.696025 272.488598 
L 346.161146 269.79518 
L 346.161146 271.532016 
L 346.393707 273.076653 
L 346.393707 271.510856 
L 346.626267 269.637366 
L 346.626267 270.465228 
L 346.858828 272.236448 
L 346.858828 271.400651 
L 347.091388 270.586013 
L 347.091388 270.805542 
L 347.323949 270.75617 
L 347.323949 272.219697 
L 347.55651 273.684104 
L 347.55651 275.574346 
L 347.78907 271.581388 
L 348.021631 271.456194 
L 348.021631 269.817221 
L 348.254191 270.494323 
L 348.254191 270.927209 
L 348.486752 274.604539 
L 348.486752 272.657873 
L 348.719312 276.453343 
L 348.951873 273.365832 
L 348.951873 275.083271 
L 349.184433 285.253896 
L 349.184433 277.44519 
L 349.416994 283.472097 
L 349.649555 281.872798 
L 349.649555 282.804694 
L 349.882115 279.732171 
L 350.114676 289.081105 
L 350.114676 277.425794 
L 350.347236 281.285624 
L 350.347236 289.581878 
L 350.812357 283.426252 
L 350.812357 288.348461 
L 351.044918 284.239126 
L 351.044918 292.840428 
L 351.277479 286.461746 
L 351.277479 278.419405 
L 351.510039 287.356613 
L 351.510039 283.856493 
L 351.7426 279.867062 
L 351.7426 280.430431 
L 351.97516 282.710358 
L 351.97516 284.45072 
L 352.207721 282.620431 
L 352.207721 286.436179 
L 352.440281 271.700409 
L 352.440281 282.604561 
L 352.672842 273.279431 
L 352.905402 275.039189 
L 352.905402 273.690276 
L 353.603084 236.71508 
L 353.603084 245.624075 
L 354.533326 205.483783 
L 354.533326 206.082418 
L 354.765887 186.836167 
L 354.765887 200.196575 
L 354.998448 186.727725 
L 355.231008 182.836156 
L 355.463569 169.032283 
L 355.463569 171.292814 
L 355.92869 164.461849 
L 355.92869 164.60203 
L 356.16125 155.484086 
L 356.393811 153.64498 
L 356.393811 157.779882 
L 356.626371 146.3009 
L 356.858932 146.665018 
L 356.858932 147.007095 
L 357.091493 147.491117 
L 357.091493 146.843991 
L 357.324053 142.699391 
L 357.556614 150.979775 
L 357.789174 141.599983 
L 357.789174 147.026491 
L 358.021735 147.955742 
L 358.021735 153.559461 
L 358.254295 140.263413 
L 358.254295 143.873738 
L 358.486856 138.502773 
L 358.486856 133.557642 
L 358.719417 130.523911 
L 358.719417 140.236964 
L 358.951977 119.455773 
L 358.951977 132.086181 
L 359.184538 114.261137 
L 359.184538 128.493489 
L 359.417098 129.861797 
L 359.417098 126.458658 
L 359.649659 116.526076 
L 359.649659 119.477814 
L 359.882219 128.561375 
L 359.882219 111.052841 
L 360.11478 115.04668 
L 360.11478 110.209991 
L 360.34734 124.600156 
L 360.579901 126.973537 
L 360.579901 123.276811 
L 360.812462 99.651443 
L 360.812462 112.463468 
L 361.277583 118.609397 
L 361.277583 109.846754 
L 361.510143 120.791461 
L 361.510143 106.723977 
L 361.742704 122.255869 
L 361.742704 118.604107 
L 361.975264 105.830873 
L 361.975264 98.188798 
L 362.207825 105.501139 
L 362.207825 117.125593 
L 362.440386 93.750611 
L 362.440386 104.280946 
L 362.672946 108.409677 
L 362.672946 121.390978 
L 362.905507 103.617951 
L 363.138067 117.518805 
L 363.138067 111.021102 
L 363.370628 118.910037 
L 363.370628 111.587116 
L 363.603188 112.739422 
L 363.603188 116.328588 
L 363.835749 140.027133 
L 363.835749 124.558719 
L 364.068309 136.447665 
L 364.30087 127.145457 
L 364.30087 130.000215 
L 364.533431 151.357118 
L 364.533431 140.038594 
L 364.765991 120.301268 
L 364.765991 138.336143 
L 364.998552 151.920488 
L 364.998552 141.481843 
L 365.231112 148.027155 
L 365.231112 170.982476 
L 365.463673 152.943193 
L 365.463673 162.81406 
L 365.696233 165.817815 
L 365.696233 172.767801 
L 365.928794 181.206 
L 365.928794 167.159675 
L 366.161355 181.569236 
L 366.161355 179.245227 
L 366.393915 179.553802 
L 366.393915 190.360091 
L 366.626476 199.698447 
L 366.626476 189.309174 
L 366.859036 195.847433 
L 366.859036 194.953448 
L 367.091597 189.019114 
L 367.091597 194.736564 
L 367.324157 209.912273 
L 367.324157 203.767226 
L 367.556718 191.565296 
L 367.556718 216.342971 
L 367.789278 209.21313 
L 368.021839 208.920425 
L 368.021839 226.652015 
L 368.2544 220.514903 
L 368.2544 234.987943 
L 368.48696 241.00427 
L 368.48696 229.637256 
L 368.719521 250.019062 
L 368.719521 248.261949 
L 368.952081 255.229568 
L 369.184642 271.695119 
L 369.184642 256.913505 
L 369.417202 260.89941 
L 369.417202 263.908455 
L 369.649763 283.647544 
L 369.649763 277.53071 
L 369.882324 274.193694 
L 369.882324 277.814599 
L 370.114884 294.810899 
L 370.114884 286.362121 
L 370.347445 275.183778 
L 370.347445 281.040528 
L 370.580005 291.236721 
L 370.580005 271.852933 
L 370.812566 294.654848 
L 370.812566 291.727796 
L 371.045126 277.966241 
L 371.045126 285.685019 
L 371.277687 276.426012 
L 371.277687 295.488 
L 371.510247 295.448326 
L 371.510247 281.594199 
L 371.742808 275.12559 
L 371.742808 277.776688 
L 371.975369 280.151832 
L 371.975369 273.234467 
L 372.207929 278.079091 
L 372.207929 274.083488 
L 372.44049 286.79148 
L 372.67305 274.919285 
L 372.67305 277.375541 
L 372.905611 289.971564 
L 372.905611 285.982133 
L 373.138171 286.065007 
L 373.138171 280.352847 
L 373.370732 276.101568 
L 373.370732 287.435079 
L 373.603293 273.518356 
L 373.603293 281.565987 
L 373.835853 275.773597 
L 373.835853 268.261123 
L 374.068414 265.719348 
L 374.068414 273.450469 
L 374.300974 276.329031 
L 374.300974 266.242162 
L 374.533535 270.958067 
L 374.533535 276.560903 
L 374.766095 274.185759 
L 374.766095 259.884639 
L 374.998656 270.913984 
L 374.998656 255.066464 
L 375.231216 263.28866 
L 375.231216 256.984036 
L 375.463777 240.581963 
L 375.463777 252.03097 
L 375.696338 257.747538 
L 375.928898 243.609523 
L 375.928898 251.769122 
L 376.161459 233.478571 
L 376.161459 247.673012 
L 376.394019 237.694584 
L 376.394019 245.019269 
L 376.62658 235.528389 
L 376.85914 244.026539 
L 377.091701 237.677833 
L 377.091701 238.76578 
L 377.324262 242.438702 
L 377.556822 237.228196 
L 377.789383 242.924487 
L 377.789383 246.712903 
L 378.021943 244.805911 
L 378.021943 246.293242 
L 378.254504 254.56481 
L 378.487064 254.98359 
L 378.487064 253.774858 
L 378.719625 262.27389 
L 378.719625 261.583564 
L 378.952185 264.767174 
L 379.184746 272.804225 
L 379.184746 271.817668 
L 379.417307 274.977474 
L 379.417307 274.113464 
L 379.649867 281.447846 
L 379.649867 281.247714 
L 379.882428 280.7681 
L 379.882428 282.33566 
L 380.114988 288.815731 
L 380.347549 295.488 
L 380.347549 288.07427 
L 380.81267 294.814425 
L 380.81267 292.933001 
L 381.045231 289.51311 
L 381.045231 290.093231 
L 381.277791 288.087495 
L 381.277791 281.244187 
L 381.510352 281.120757 
L 381.510352 282.741216 
L 381.742912 276.202957 
L 381.742912 272.926774 
L 381.975473 269.530688 
L 381.975473 273.021109 
L 382.208033 268.639347 
L 382.208033 259.935775 
L 382.440594 257.505087 
L 382.440594 264.336051 
L 382.673154 251.419992 
L 382.673154 255.932237 
L 382.905715 249.015753 
L 382.905715 243.875779 
L 383.138276 244.909063 
L 383.138276 243.241878 
L 383.370836 233.601119 
L 383.370836 238.98619 
L 383.603397 232.227521 
L 383.603397 228.585456 
L 383.835957 232.677158 
L 383.835957 236.316578 
L 384.068518 229.348077 
L 384.068518 234.687303 
L 384.301078 232.936361 
L 384.301078 231.481651 
L 384.533639 235.811397 
L 384.533639 234.947387 
L 384.7662 243.974523 
L 384.7662 236.234585 
L 384.99876 248.043302 
L 384.99876 239.293884 
L 385.463881 252.088277 
L 385.463881 261.987356 
L 385.696442 265.772247 
L 385.696442 256.947889 
L 385.929002 262.630955 
L 385.929002 268.918828 
L 386.161563 265.982959 
L 386.161563 267.161715 
L 386.394123 280.052207 
L 386.626684 279.4042 
L 386.626684 281.662086 
L 386.859245 295.488 
L 386.859245 295.488 
L 387.091805 295.103604 
L 387.091805 288.452495 
L 387.789487 279.780661 
L 387.789487 283.225237 
L 388.022047 281.148088 
L 388.022047 275.324841 
L 388.254608 271.710107 
L 388.254608 273.10751 
L 388.487169 272.011629 
L 388.487169 270.813477 
L 388.719729 267.117633 
L 388.719729 267.293961 
L 388.95229 266.944831 
L 388.95229 264.711631 
L 389.18485 257.981174 
L 389.18485 275.084152 
L 389.417411 261.675255 
L 389.417411 265.909783 
L 389.649971 267.691582 
L 389.649971 264.455073 
L 389.882532 269.486606 
L 389.882532 276.187087 
L 390.115092 272.180904 
L 390.115092 273.755518 
L 390.347653 275.821205 
L 390.347653 274.835529 
L 390.580214 281.135745 
L 390.812774 281.972424 
L 390.812774 276.379285 
L 391.045335 287.213787 
L 391.277895 292.112192 
L 391.277895 295.488 
L 391.510456 285.228329 
L 391.510456 295.32137 
L 391.975577 277.900118 
L 392.208138 278.144333 
L 392.208138 278.12141 
L 392.440698 269.187729 
L 392.440698 256.426838 
L 392.673259 261.159494 
L 392.673259 265.025496 
L 392.905819 257.308481 
L 392.905819 252.628723 
L 393.13838 246.385814 
L 393.13838 255.3865 
L 393.37094 239.837857 
L 393.37094 243.449945 
L 393.603501 232.975153 
L 393.603501 242.038436 
L 393.836061 230.1874 
L 393.836061 246.36201 
L 394.301183 220.55105 
L 394.301183 228.097908 
L 394.533743 223.388175 
L 394.533743 224.347402 
L 394.766304 227.287679 
L 394.766304 229.866483 
L 394.998864 220.151666 
L 394.998864 223.475458 
L 395.231425 225.579056 
L 395.231425 227.383778 
L 395.463985 233.854151 
L 395.463985 221.732451 
L 395.696546 227.647389 
L 395.696546 233.438897 
L 395.929107 239.041734 
L 396.161667 236.03357 
L 396.161667 237.86915 
L 396.394228 246.953592 
L 396.394228 257.351681 
L 396.626788 257.241476 
L 396.626788 257.564157 
L 396.859349 265.885978 
L 396.859349 265.017561 
L 397.32447 294.385947 
L 397.55703 278.423813 
L 397.55703 287.492386 
L 398.022152 251.404122 
L 398.254712 225.209648 
L 398.254712 226.302884 
L 398.487273 150.398773 
L 398.487273 152.874424 
" clip-path="url(#pe07b53825c)" style="fill: none; stroke: #1f77b4; stroke-width: 1.5; stroke-linecap: square"/>
   </g>
   <g id="patch_3">
    <path d="M 57.6 307.584 
L 57.6 41.472 
" style="fill: none; stroke: #000000; stroke-width: 0.8; stroke-linejoin: miter; stroke-linecap: square"/>
   </g>
   <g id="patch_4">
    <path d="M 414.72 307.584 
L 414.72 41.472 
" style="fill: none; stroke: #000000; stroke-width: 0.8; stroke-linejoin: miter; stroke-linecap: square"/>
   </g>
   <g id="patch_5">
    <path d="M 57.6 307.584 
L 414.72 307.584 
" style="fill: none; stroke: #000000; stroke-width: 0.8; stroke-linejoin: miter; stroke-linecap: square"/>
   </g>
   <g id="patch_6">
    <path d="M 57.6 41.472 
L 414.72 41.472 
" style="fill: none; stroke: #000000; stroke-width: 0.8; stroke-linejoin: miter; stroke-linecap: square"/>
   </g>
   <g id="text_15">
    <!-- Tracking error vs Time -->
    <g transform="translate(169.584375 35.472) scale(0.12 -0.12)">
     <defs>
      <path id="DejaVuSans-76" d="M 191 3500 
L 800 3500 
L 1894 563 
L 2988 3500 
L 3597 3500 
L 2284 0 
L 1503 0 
L 191 3500 
z
" transform="scale(0.015625)"/>
     </defs>
     <use xlink:href="#DejaVuSans-54"/>
     <use xlink:href="#DejaVuSans-72" x="46.333984"/>
     <use xlink:href="#DejaVuSans-61" x="87.447266"/>
     <use xlink:href="#DejaVuSans-63" x="148.726562"/>
     <use xlink:href="#DejaVuSans-6b" x="203.707031"/>
     <use xlink:href="#DejaVuSans-69" x="261.617188"/>
     <use xlink:href="#DejaVuSans-6e" x="289.400391"/>
     <use xlink:href="#DejaVuSans-67" x="352.779297"/>
     <use xlink:href="#DejaVuSans-20" x="416.255859"/>
     <use xlink:href="#DejaVuSans-65" x="448.042969"/>
     <use xlink:href="#DejaVuSans-72" x="509.566406"/>
     <use xlink:href="#DejaVuSans-72" x="548.929688"/>
     <use xlink:href="#DejaVuSans-6f" x="587.792969"/>
     <use xlink:href="#DejaVuSans-72" x="648.974609"/>
     <use xlink:href="#DejaVuSans-20" x="690.087891"/>
     <use xlink:href="#DejaVuSans-76" x="721.875"/>
     <use xlink:href="#DejaVuSans-73" x="781.054688"/>
     <use xlink:href="#DejaVuSans-20" x="833.154297"/>
     <use xlink:href="#DejaVuSans-54" x="864.941406"/>
     <use xlink:href="#DejaVuSans-69" x="922.900391"/>
     <use xlink:href="#DejaVuSans-6d" x="950.683594"/>
     <use xlink:href="#DejaVuSans-65" x="1048.095703"/>
    </g>
   </g>
   <g id="legend_1">
    <g id="patch_7">
     <path d="M 311.00125 64.150125 
L 407.72 64.150125 
Q 409.72 64.150125 409.72 62.150125 
L 409.72 48.472 
Q 409.72 46.472 407.72 46.472 
L 311.00125 46.472 
Q 309.00125 46.472 309.00125 48.472 
L 309.00125 62.150125 
Q 309.00125 64.150125 311.00125 64.150125 
z
" style="fill: #ffffff; opacity: 0.8; stroke: #cccccc; stroke-linejoin: miter"/>
    </g>
    <g id="line2d_26">
     <path d="M 313.00125 54.570438 
L 323.00125 54.570438 
L 333.00125 54.570438 
" style="fill: none; stroke: #1f77b4; stroke-width: 1.5; stroke-linecap: square"/>
    </g>
    <g id="text_16">
     <!-- Actual speed -->
     <g transform="translate(341.00125 58.070438) scale(0.1 -0.1)">
      <defs>
       <path id="DejaVuSans-41" d="M 2188 4044 
L 1331 1722 
L 3047 1722 
L 2188 4044 
z
M 1831 4666 
L 2547 4666 
L 4325 0 
L 3669 0 
L 3244 1197 
L 1141 1197 
L 716 0 
L 50 0 
L 1831 4666 
z
" transform="scale(0.015625)"/>
       <path id="DejaVuSans-74" d="M 1172 4494 
L 1172 3500 
L 2356 3500 
L 2356 3053 
L 1172 3053 
L 1172 1153 
Q 1172 725 1289 603 
Q 1406 481 1766 481 
L 2356 481 
L 2356 0 
L 1766 0 
Q 1100 0 847 248 
Q 594 497 594 1153 
L 594 3053 
L 172 3053 
L 172 3500 
L 594 3500 
L 594 4494 
L 1172 4494 
z
" transform="scale(0.015625)"/>
       <path id="DejaVuSans-75" d="M 544 1381 
L 544 3500 
L 1119 3500 
L 1119 1403 
Q 1119 906 1312 657 
Q 1506 409 1894 409 
Q 2359 409 2629 706 
Q 2900 1003 2900 1516 
L 2900 3500 
L 3475 3500 
L 3475 0 
L 2900 0 
L 2900 538 
Q 2691 219 2414 64 
Q 2138 -91 1772 -91 
Q 1169 -91 856 284 
Q 544 659 544 1381 
z
M 1991 3584 
L 1991 3584 
z
" transform="scale(0.015625)"/>
       <path id="DejaVuSans-6c" d="M 603 4863 
L 1178 4863 
L 1178 0 
L 603 0 
L 603 4863 
z
" transform="scale(0.015625)"/>
       <path id="DejaVuSans-70" d="M 1159 525 
L 1159 -1331 
L 581 -1331 
L 581 3500 
L 1159 3500 
L 1159 2969 
Q 1341 3281 1617 3432 
Q 1894 3584 2278 3584 
Q 2916 3584 3314 3078 
Q 3713 2572 3713 1747 
Q 3713 922 3314 415 
Q 2916 -91 2278 -91 
Q 1894 -91 1617 61 
Q 1341 213 1159 525 
z
M 3116 1747 
Q 3116 2381 2855 2742 
Q 2594 3103 2138 3103 
Q 1681 3103 1420 2742 
Q 1159 2381 1159 1747 
Q 1159 1113 1420 752 
Q 1681 391 2138 391 
Q 2594 391 2855 752 
Q 3116 1113 3116 1747 
z
" transform="scale(0.015625)"/>
       <path id="DejaVuSans-64" d="M 2906 2969 
L 2906 4863 
L 3481 4863 
L 3481 0 
L 2906 0 
L 2906 525 
Q 2725 213 2448 61 
Q 2172 -91 1784 -91 
Q 1150 -91 751 415 
Q 353 922 353 1747 
Q 353 2572 751 3078 
Q 1150 3584 1784 3584 
Q 2172 3584 2448 3432 
Q 2725 3281 2906 2969 
z
M 947 1747 
Q 947 1113 1208 752 
Q 1469 391 1925 391 
Q 2381 391 2643 752 
Q 2906 1113 2906 1747 
Q 2906 2381 2643 2742 
Q 2381 3103 1925 3103 
Q 1469 3103 1208 2742 
Q 947 2381 947 1747 
z
" transform="scale(0.015625)"/>
      </defs>
      <use xlink:href="#DejaVuSans-41"/>
      <use xlink:href="#DejaVuSans-63" x="66.658203"/>
      <use xlink:href="#DejaVuSans-74" x="121.638672"/>
      <use xlink:href="#DejaVuSans-75" x="160.847656"/>
      <use xlink:href="#DejaVuSans-61" x="224.226562"/>
      <use xlink:href="#DejaVuSans-6c" x="285.505859"/>
      <use xlink:href="#DejaVuSans-20" x="313.289062"/>
      <use xlink:href="#DejaVuSans-73" x="345.076172"/>
      <use xlink:href="#DejaVuSans-70" x="397.175781"/>
      <use xlink:href="#DejaVuSans-65" x="460.652344"/>
      <use xlink:href="#DejaVuSans-65" x="522.175781"/>
      <use xlink:href="#DejaVuSans-64" x="583.699219"/>
     </g>
    </g>
   </g>
  </g>
 </g>
 <defs>
  <clipPath id="pe07b53825c">
   <rect x="57.6" y="41.472" width="357.12" height="266.112"/>
  </clipPath>
 </defs>
</svg>
