<?xml version="1.0" encoding="utf-8" standalone="no"?>
<!DOCTYPE svg PUBLIC "-//W3C//DTD SVG 1.1//EN"
  "http://www.w3.org/Graphics/SVG/1.1/DTD/svg11.dtd">
<svg xmlns:xlink="http://www.w3.org/1999/xlink" width="460.8pt" height="345.6pt" viewBox="0 0 460.8 345.6" xmlns="http://www.w3.org/2000/svg" version="1.1">
 <metadata>
  <rdf:RDF xmlns:dc="http://purl.org/dc/elements/1.1/" xmlns:cc="http://creativecommons.org/ns#" xmlns:rdf="http://www.w3.org/1999/02/22-rdf-syntax-ns#">
   <cc:Work>
    <dc:type rdf:resource="http://purl.org/dc/dcmitype/StillImage"/>
    <dc:date>2024-01-30T20:59:15.750541</dc:date>
    <dc:format>image/svg+xml</dc:format>
    <dc:creator>
     <cc:Agent>
      <dc:title>Matplotlib v3.7.1, https://matplotlib.org/</dc:title>
     </cc:Agent>
    </dc:creator>
   </cc:Work>
  </rdf:RDF>
 </metadata>
 <defs>
  <style type="text/css">*{stroke-linejoin: round; stroke-linecap: butt}</style>
 </defs>
 <g id="figure_1">
  <g id="patch_1">
   <path d="M 0 345.6 
L 460.8 345.6 
L 460.8 0 
L 0 0 
z
" style="fill: #ffffff"/>
  </g>
  <g id="axes_1">
   <g id="patch_2">
    <path d="M 57.6 307.584 
L 414.72 307.584 
L 414.72 41.472 
L 57.6 41.472 
z
" style="fill: #ffffff"/>
   </g>
   <g id="matplotlib.axis_1">
    <g id="xtick_1">
     <g id="line2d_1">
      <path d="M 73.832727 307.584 
L 73.832727 41.472 
" clip-path="url(#pbf80a1d5a8)" style="fill: none; stroke: #b0b0b0; stroke-width: 0.8; stroke-linecap: square"/>
     </g>
     <g id="line2d_2">
      <defs>
       <path id="me5d3f44966" d="M 0 0 
L 0 3.5 
" style="stroke: #000000; stroke-width: 0.8"/>
      </defs>
      <g>
       <use xlink:href="#me5d3f44966" x="73.832727" y="307.584" style="stroke: #000000; stroke-width: 0.8"/>
      </g>
     </g>
     <g id="text_1">
      <!-- 0 -->
      <g transform="translate(70.651477 322.182437) scale(0.1 -0.1)">
       <defs>
        <path id="DejaVuSans-30" d="M 2034 4250 
Q 1547 4250 1301 3770 
Q 1056 3291 1056 2328 
Q 1056 1369 1301 889 
Q 1547 409 2034 409 
Q 2525 409 2770 889 
Q 3016 1369 3016 2328 
Q 3016 3291 2770 3770 
Q 2525 4250 2034 4250 
z
M 2034 4750 
Q 2819 4750 3233 4129 
Q 3647 3509 3647 2328 
Q 3647 1150 3233 529 
Q 2819 -91 2034 -91 
Q 1250 -91 836 529 
Q 422 1150 422 2328 
Q 422 3509 836 4129 
Q 1250 4750 2034 4750 
z
" transform="scale(0.015625)"/>
       </defs>
       <use xlink:href="#DejaVuSans-30"/>
      </g>
     </g>
    </g>
    <g id="xtick_2">
     <g id="line2d_3">
      <path d="M 131.972868 307.584 
L 131.972868 41.472 
" clip-path="url(#pbf80a1d5a8)" style="fill: none; stroke: #b0b0b0; stroke-width: 0.8; stroke-linecap: square"/>
     </g>
     <g id="line2d_4">
      <g>
       <use xlink:href="#me5d3f44966" x="131.972868" y="307.584" style="stroke: #000000; stroke-width: 0.8"/>
      </g>
     </g>
     <g id="text_2">
      <!-- 5 -->
      <g transform="translate(128.791618 322.182437) scale(0.1 -0.1)">
       <defs>
        <path id="DejaVuSans-35" d="M 691 4666 
L 3169 4666 
L 3169 4134 
L 1269 4134 
L 1269 2991 
Q 1406 3038 1543 3061 
Q 1681 3084 1819 3084 
Q 2600 3084 3056 2656 
Q 3513 2228 3513 1497 
Q 3513 744 3044 326 
Q 2575 -91 1722 -91 
Q 1428 -91 1123 -41 
Q 819 9 494 109 
L 494 744 
Q 775 591 1075 516 
Q 1375 441 1709 441 
Q 2250 441 2565 725 
Q 2881 1009 2881 1497 
Q 2881 1984 2565 2268 
Q 2250 2553 1709 2553 
Q 1456 2553 1204 2497 
Q 953 2441 691 2322 
L 691 4666 
z
" transform="scale(0.015625)"/>
       </defs>
       <use xlink:href="#DejaVuSans-35"/>
      </g>
     </g>
    </g>
    <g id="xtick_3">
     <g id="line2d_5">
      <path d="M 190.113009 307.584 
L 190.113009 41.472 
" clip-path="url(#pbf80a1d5a8)" style="fill: none; stroke: #b0b0b0; stroke-width: 0.8; stroke-linecap: square"/>
     </g>
     <g id="line2d_6">
      <g>
       <use xlink:href="#me5d3f44966" x="190.113009" y="307.584" style="stroke: #000000; stroke-width: 0.8"/>
      </g>
     </g>
     <g id="text_3">
      <!-- 10 -->
      <g transform="translate(183.750509 322.182437) scale(0.1 -0.1)">
       <defs>
        <path id="DejaVuSans-31" d="M 794 531 
L 1825 531 
L 1825 4091 
L 703 3866 
L 703 4441 
L 1819 4666 
L 2450 4666 
L 2450 531 
L 3481 531 
L 3481 0 
L 794 0 
L 794 531 
z
" transform="scale(0.015625)"/>
       </defs>
       <use xlink:href="#DejaVuSans-31"/>
       <use xlink:href="#DejaVuSans-30" x="63.623047"/>
      </g>
     </g>
    </g>
    <g id="xtick_4">
     <g id="line2d_7">
      <path d="M 248.253149 307.584 
L 248.253149 41.472 
" clip-path="url(#pbf80a1d5a8)" style="fill: none; stroke: #b0b0b0; stroke-width: 0.8; stroke-linecap: square"/>
     </g>
     <g id="line2d_8">
      <g>
       <use xlink:href="#me5d3f44966" x="248.253149" y="307.584" style="stroke: #000000; stroke-width: 0.8"/>
      </g>
     </g>
     <g id="text_4">
      <!-- 15 -->
      <g transform="translate(241.890649 322.182437) scale(0.1 -0.1)">
       <use xlink:href="#DejaVuSans-31"/>
       <use xlink:href="#DejaVuSans-35" x="63.623047"/>
      </g>
     </g>
    </g>
    <g id="xtick_5">
     <g id="line2d_9">
      <path d="M 306.39329 307.584 
L 306.39329 41.472 
" clip-path="url(#pbf80a1d5a8)" style="fill: none; stroke: #b0b0b0; stroke-width: 0.8; stroke-linecap: square"/>
     </g>
     <g id="line2d_10">
      <g>
       <use xlink:href="#me5d3f44966" x="306.39329" y="307.584" style="stroke: #000000; stroke-width: 0.8"/>
      </g>
     </g>
     <g id="text_5">
      <!-- 20 -->
      <g transform="translate(300.03079 322.182437) scale(0.1 -0.1)">
       <defs>
        <path id="DejaVuSans-32" d="M 1228 531 
L 3431 531 
L 3431 0 
L 469 0 
L 469 531 
Q 828 903 1448 1529 
Q 2069 2156 2228 2338 
Q 2531 2678 2651 2914 
Q 2772 3150 2772 3378 
Q 2772 3750 2511 3984 
Q 2250 4219 1831 4219 
Q 1534 4219 1204 4116 
Q 875 4013 500 3803 
L 500 4441 
Q 881 4594 1212 4672 
Q 1544 4750 1819 4750 
Q 2544 4750 2975 4387 
Q 3406 4025 3406 3419 
Q 3406 3131 3298 2873 
Q 3191 2616 2906 2266 
Q 2828 2175 2409 1742 
Q 1991 1309 1228 531 
z
" transform="scale(0.015625)"/>
       </defs>
       <use xlink:href="#DejaVuSans-32"/>
       <use xlink:href="#DejaVuSans-30" x="63.623047"/>
      </g>
     </g>
    </g>
    <g id="xtick_6">
     <g id="line2d_11">
      <path d="M 364.533431 307.584 
L 364.533431 41.472 
" clip-path="url(#pbf80a1d5a8)" style="fill: none; stroke: #b0b0b0; stroke-width: 0.8; stroke-linecap: square"/>
     </g>
     <g id="line2d_12">
      <g>
       <use xlink:href="#me5d3f44966" x="364.533431" y="307.584" style="stroke: #000000; stroke-width: 0.8"/>
      </g>
     </g>
     <g id="text_6">
      <!-- 25 -->
      <g transform="translate(358.170931 322.182437) scale(0.1 -0.1)">
       <use xlink:href="#DejaVuSans-32"/>
       <use xlink:href="#DejaVuSans-35" x="63.623047"/>
      </g>
     </g>
    </g>
    <g id="text_7">
     <!-- Time(s) -->
     <g transform="translate(217.420156 335.860562) scale(0.1 -0.1)">
      <defs>
       <path id="DejaVuSans-54" d="M -19 4666 
L 3928 4666 
L 3928 4134 
L 2272 4134 
L 2272 0 
L 1638 0 
L 1638 4134 
L -19 4134 
L -19 4666 
z
" transform="scale(0.015625)"/>
       <path id="DejaVuSans-69" d="M 603 3500 
L 1178 3500 
L 1178 0 
L 603 0 
L 603 3500 
z
M 603 4863 
L 1178 4863 
L 1178 4134 
L 603 4134 
L 603 4863 
z
" transform="scale(0.015625)"/>
       <path id="DejaVuSans-6d" d="M 3328 2828 
Q 3544 3216 3844 3400 
Q 4144 3584 4550 3584 
Q 5097 3584 5394 3201 
Q 5691 2819 5691 2113 
L 5691 0 
L 5113 0 
L 5113 2094 
Q 5113 2597 4934 2840 
Q 4756 3084 4391 3084 
Q 3944 3084 3684 2787 
Q 3425 2491 3425 1978 
L 3425 0 
L 2847 0 
L 2847 2094 
Q 2847 2600 2669 2842 
Q 2491 3084 2119 3084 
Q 1678 3084 1418 2786 
Q 1159 2488 1159 1978 
L 1159 0 
L 581 0 
L 581 3500 
L 1159 3500 
L 1159 2956 
Q 1356 3278 1631 3431 
Q 1906 3584 2284 3584 
Q 2666 3584 2933 3390 
Q 3200 3197 3328 2828 
z
" transform="scale(0.015625)"/>
       <path id="DejaVuSans-65" d="M 3597 1894 
L 3597 1613 
L 953 1613 
Q 991 1019 1311 708 
Q 1631 397 2203 397 
Q 2534 397 2845 478 
Q 3156 559 3463 722 
L 3463 178 
Q 3153 47 2828 -22 
Q 2503 -91 2169 -91 
Q 1331 -91 842 396 
Q 353 884 353 1716 
Q 353 2575 817 3079 
Q 1281 3584 2069 3584 
Q 2775 3584 3186 3129 
Q 3597 2675 3597 1894 
z
M 3022 2063 
Q 3016 2534 2758 2815 
Q 2500 3097 2075 3097 
Q 1594 3097 1305 2825 
Q 1016 2553 972 2059 
L 3022 2063 
z
" transform="scale(0.015625)"/>
       <path id="DejaVuSans-28" d="M 1984 4856 
Q 1566 4138 1362 3434 
Q 1159 2731 1159 2009 
Q 1159 1288 1364 580 
Q 1569 -128 1984 -844 
L 1484 -844 
Q 1016 -109 783 600 
Q 550 1309 550 2009 
Q 550 2706 781 3412 
Q 1013 4119 1484 4856 
L 1984 4856 
z
" transform="scale(0.015625)"/>
       <path id="DejaVuSans-73" d="M 2834 3397 
L 2834 2853 
Q 2591 2978 2328 3040 
Q 2066 3103 1784 3103 
Q 1356 3103 1142 2972 
Q 928 2841 928 2578 
Q 928 2378 1081 2264 
Q 1234 2150 1697 2047 
L 1894 2003 
Q 2506 1872 2764 1633 
Q 3022 1394 3022 966 
Q 3022 478 2636 193 
Q 2250 -91 1575 -91 
Q 1294 -91 989 -36 
Q 684 19 347 128 
L 347 722 
Q 666 556 975 473 
Q 1284 391 1588 391 
Q 1994 391 2212 530 
Q 2431 669 2431 922 
Q 2431 1156 2273 1281 
Q 2116 1406 1581 1522 
L 1381 1569 
Q 847 1681 609 1914 
Q 372 2147 372 2553 
Q 372 3047 722 3315 
Q 1072 3584 1716 3584 
Q 2034 3584 2315 3537 
Q 2597 3491 2834 3397 
z
" transform="scale(0.015625)"/>
       <path id="DejaVuSans-29" d="M 513 4856 
L 1013 4856 
Q 1481 4119 1714 3412 
Q 1947 2706 1947 2009 
Q 1947 1309 1714 600 
Q 1481 -109 1013 -844 
L 513 -844 
Q 928 -128 1133 580 
Q 1338 1288 1338 2009 
Q 1338 2731 1133 3434 
Q 928 4138 513 4856 
z
" transform="scale(0.015625)"/>
      </defs>
      <use xlink:href="#DejaVuSans-54"/>
      <use xlink:href="#DejaVuSans-69" x="57.958984"/>
      <use xlink:href="#DejaVuSans-6d" x="85.742188"/>
      <use xlink:href="#DejaVuSans-65" x="183.154297"/>
      <use xlink:href="#DejaVuSans-28" x="244.677734"/>
      <use xlink:href="#DejaVuSans-73" x="283.691406"/>
      <use xlink:href="#DejaVuSans-29" x="335.791016"/>
     </g>
    </g>
   </g>
   <g id="matplotlib.axis_2">
    <g id="ytick_1">
     <g id="line2d_13">
      <path d="M 57.6 295.488 
L 414.72 295.488 
" clip-path="url(#pbf80a1d5a8)" style="fill: none; stroke: #b0b0b0; stroke-width: 0.8; stroke-linecap: square"/>
     </g>
     <g id="line2d_14">
      <defs>
       <path id="mdfe73216c2" d="M 0 0 
L -3.5 0 
" style="stroke: #000000; stroke-width: 0.8"/>
      </defs>
      <g>
       <use xlink:href="#mdfe73216c2" x="57.6" y="295.488" style="stroke: #000000; stroke-width: 0.8"/>
      </g>
     </g>
     <g id="text_8">
      <!-- 0.00 -->
      <g transform="translate(28.334375 299.287219) scale(0.1 -0.1)">
       <defs>
        <path id="DejaVuSans-2e" d="M 684 794 
L 1344 794 
L 1344 0 
L 684 0 
L 684 794 
z
" transform="scale(0.015625)"/>
       </defs>
       <use xlink:href="#DejaVuSans-30"/>
       <use xlink:href="#DejaVuSans-2e" x="63.623047"/>
       <use xlink:href="#DejaVuSans-30" x="95.410156"/>
       <use xlink:href="#DejaVuSans-30" x="159.033203"/>
      </g>
     </g>
    </g>
    <g id="ytick_2">
     <g id="line2d_15">
      <path d="M 57.6 254.464307 
L 414.72 254.464307 
" clip-path="url(#pbf80a1d5a8)" style="fill: none; stroke: #b0b0b0; stroke-width: 0.8; stroke-linecap: square"/>
     </g>
     <g id="line2d_16">
      <g>
       <use xlink:href="#mdfe73216c2" x="57.6" y="254.464307" style="stroke: #000000; stroke-width: 0.8"/>
      </g>
     </g>
     <g id="text_9">
      <!-- 0.05 -->
      <g transform="translate(28.334375 258.263526) scale(0.1 -0.1)">
       <use xlink:href="#DejaVuSans-30"/>
       <use xlink:href="#DejaVuSans-2e" x="63.623047"/>
       <use xlink:href="#DejaVuSans-30" x="95.410156"/>
       <use xlink:href="#DejaVuSans-35" x="159.033203"/>
      </g>
     </g>
    </g>
    <g id="ytick_3">
     <g id="line2d_17">
      <path d="M 57.6 213.440614 
L 414.72 213.440614 
" clip-path="url(#pbf80a1d5a8)" style="fill: none; stroke: #b0b0b0; stroke-width: 0.8; stroke-linecap: square"/>
     </g>
     <g id="line2d_18">
      <g>
       <use xlink:href="#mdfe73216c2" x="57.6" y="213.440614" style="stroke: #000000; stroke-width: 0.8"/>
      </g>
     </g>
     <g id="text_10">
      <!-- 0.10 -->
      <g transform="translate(28.334375 217.239833) scale(0.1 -0.1)">
       <use xlink:href="#DejaVuSans-30"/>
       <use xlink:href="#DejaVuSans-2e" x="63.623047"/>
       <use xlink:href="#DejaVuSans-31" x="95.410156"/>
       <use xlink:href="#DejaVuSans-30" x="159.033203"/>
      </g>
     </g>
    </g>
    <g id="ytick_4">
     <g id="line2d_19">
      <path d="M 57.6 172.416921 
L 414.72 172.416921 
" clip-path="url(#pbf80a1d5a8)" style="fill: none; stroke: #b0b0b0; stroke-width: 0.8; stroke-linecap: square"/>
     </g>
     <g id="line2d_20">
      <g>
       <use xlink:href="#mdfe73216c2" x="57.6" y="172.416921" style="stroke: #000000; stroke-width: 0.8"/>
      </g>
     </g>
     <g id="text_11">
      <!-- 0.15 -->
      <g transform="translate(28.334375 176.21614) scale(0.1 -0.1)">
       <use xlink:href="#DejaVuSans-30"/>
       <use xlink:href="#DejaVuSans-2e" x="63.623047"/>
       <use xlink:href="#DejaVuSans-31" x="95.410156"/>
       <use xlink:href="#DejaVuSans-35" x="159.033203"/>
      </g>
     </g>
    </g>
    <g id="ytick_5">
     <g id="line2d_21">
      <path d="M 57.6 131.393228 
L 414.72 131.393228 
" clip-path="url(#pbf80a1d5a8)" style="fill: none; stroke: #b0b0b0; stroke-width: 0.8; stroke-linecap: square"/>
     </g>
     <g id="line2d_22">
      <g>
       <use xlink:href="#mdfe73216c2" x="57.6" y="131.393228" style="stroke: #000000; stroke-width: 0.8"/>
      </g>
     </g>
     <g id="text_12">
      <!-- 0.20 -->
      <g transform="translate(28.334375 135.192446) scale(0.1 -0.1)">
       <use xlink:href="#DejaVuSans-30"/>
       <use xlink:href="#DejaVuSans-2e" x="63.623047"/>
       <use xlink:href="#DejaVuSans-32" x="95.410156"/>
       <use xlink:href="#DejaVuSans-30" x="159.033203"/>
      </g>
     </g>
    </g>
    <g id="ytick_6">
     <g id="line2d_23">
      <path d="M 57.6 90.369535 
L 414.72 90.369535 
" clip-path="url(#pbf80a1d5a8)" style="fill: none; stroke: #b0b0b0; stroke-width: 0.8; stroke-linecap: square"/>
     </g>
     <g id="line2d_24">
      <g>
       <use xlink:href="#mdfe73216c2" x="57.6" y="90.369535" style="stroke: #000000; stroke-width: 0.8"/>
      </g>
     </g>
     <g id="text_13">
      <!-- 0.25 -->
      <g transform="translate(28.334375 94.168753) scale(0.1 -0.1)">
       <use xlink:href="#DejaVuSans-30"/>
       <use xlink:href="#DejaVuSans-2e" x="63.623047"/>
       <use xlink:href="#DejaVuSans-32" x="95.410156"/>
       <use xlink:href="#DejaVuSans-35" x="159.033203"/>
      </g>
     </g>
    </g>
    <g id="ytick_7">
     <g id="line2d_25">
      <path d="M 57.6 49.345842 
L 414.72 49.345842 
" clip-path="url(#pbf80a1d5a8)" style="fill: none; stroke: #b0b0b0; stroke-width: 0.8; stroke-linecap: square"/>
     </g>
     <g id="line2d_26">
      <g>
       <use xlink:href="#mdfe73216c2" x="57.6" y="49.345842" style="stroke: #000000; stroke-width: 0.8"/>
      </g>
     </g>
     <g id="text_14">
      <!-- 0.30 -->
      <g transform="translate(28.334375 53.14506) scale(0.1 -0.1)">
       <defs>
        <path id="DejaVuSans-33" d="M 2597 2516 
Q 3050 2419 3304 2112 
Q 3559 1806 3559 1356 
Q 3559 666 3084 287 
Q 2609 -91 1734 -91 
Q 1441 -91 1130 -33 
Q 819 25 488 141 
L 488 750 
Q 750 597 1062 519 
Q 1375 441 1716 441 
Q 2309 441 2620 675 
Q 2931 909 2931 1356 
Q 2931 1769 2642 2001 
Q 2353 2234 1838 2234 
L 1294 2234 
L 1294 2753 
L 1863 2753 
Q 2328 2753 2575 2939 
Q 2822 3125 2822 3475 
Q 2822 3834 2567 4026 
Q 2313 4219 1838 4219 
Q 1578 4219 1281 4162 
Q 984 4106 628 3988 
L 628 4550 
Q 988 4650 1302 4700 
Q 1616 4750 1894 4750 
Q 2613 4750 3031 4423 
Q 3450 4097 3450 3541 
Q 3450 3153 3228 2886 
Q 3006 2619 2597 2516 
z
" transform="scale(0.015625)"/>
       </defs>
       <use xlink:href="#DejaVuSans-30"/>
       <use xlink:href="#DejaVuSans-2e" x="63.623047"/>
       <use xlink:href="#DejaVuSans-33" x="95.410156"/>
       <use xlink:href="#DejaVuSans-30" x="159.033203"/>
      </g>
     </g>
    </g>
    <g id="text_15">
     <!-- Tracking error(m) -->
     <g transform="translate(22.254687 217.803781) rotate(-90) scale(0.1 -0.1)">
      <defs>
       <path id="DejaVuSans-72" d="M 2631 2963 
Q 2534 3019 2420 3045 
Q 2306 3072 2169 3072 
Q 1681 3072 1420 2755 
Q 1159 2438 1159 1844 
L 1159 0 
L 581 0 
L 581 3500 
L 1159 3500 
L 1159 2956 
Q 1341 3275 1631 3429 
Q 1922 3584 2338 3584 
Q 2397 3584 2469 3576 
Q 2541 3569 2628 3553 
L 2631 2963 
z
" transform="scale(0.015625)"/>
       <path id="DejaVuSans-61" d="M 2194 1759 
Q 1497 1759 1228 1600 
Q 959 1441 959 1056 
Q 959 750 1161 570 
Q 1363 391 1709 391 
Q 2188 391 2477 730 
Q 2766 1069 2766 1631 
L 2766 1759 
L 2194 1759 
z
M 3341 1997 
L 3341 0 
L 2766 0 
L 2766 531 
Q 2569 213 2275 61 
Q 1981 -91 1556 -91 
Q 1019 -91 701 211 
Q 384 513 384 1019 
Q 384 1609 779 1909 
Q 1175 2209 1959 2209 
L 2766 2209 
L 2766 2266 
Q 2766 2663 2505 2880 
Q 2244 3097 1772 3097 
Q 1472 3097 1187 3025 
Q 903 2953 641 2809 
L 641 3341 
Q 956 3463 1253 3523 
Q 1550 3584 1831 3584 
Q 2591 3584 2966 3190 
Q 3341 2797 3341 1997 
z
" transform="scale(0.015625)"/>
       <path id="DejaVuSans-63" d="M 3122 3366 
L 3122 2828 
Q 2878 2963 2633 3030 
Q 2388 3097 2138 3097 
Q 1578 3097 1268 2742 
Q 959 2388 959 1747 
Q 959 1106 1268 751 
Q 1578 397 2138 397 
Q 2388 397 2633 464 
Q 2878 531 3122 666 
L 3122 134 
Q 2881 22 2623 -34 
Q 2366 -91 2075 -91 
Q 1284 -91 818 406 
Q 353 903 353 1747 
Q 353 2603 823 3093 
Q 1294 3584 2113 3584 
Q 2378 3584 2631 3529 
Q 2884 3475 3122 3366 
z
" transform="scale(0.015625)"/>
       <path id="DejaVuSans-6b" d="M 581 4863 
L 1159 4863 
L 1159 1991 
L 2875 3500 
L 3609 3500 
L 1753 1863 
L 3688 0 
L 2938 0 
L 1159 1709 
L 1159 0 
L 581 0 
L 581 4863 
z
" transform="scale(0.015625)"/>
       <path id="DejaVuSans-6e" d="M 3513 2113 
L 3513 0 
L 2938 0 
L 2938 2094 
Q 2938 2591 2744 2837 
Q 2550 3084 2163 3084 
Q 1697 3084 1428 2787 
Q 1159 2491 1159 1978 
L 1159 0 
L 581 0 
L 581 3500 
L 1159 3500 
L 1159 2956 
Q 1366 3272 1645 3428 
Q 1925 3584 2291 3584 
Q 2894 3584 3203 3211 
Q 3513 2838 3513 2113 
z
" transform="scale(0.015625)"/>
       <path id="DejaVuSans-67" d="M 2906 1791 
Q 2906 2416 2648 2759 
Q 2391 3103 1925 3103 
Q 1463 3103 1205 2759 
Q 947 2416 947 1791 
Q 947 1169 1205 825 
Q 1463 481 1925 481 
Q 2391 481 2648 825 
Q 2906 1169 2906 1791 
z
M 3481 434 
Q 3481 -459 3084 -895 
Q 2688 -1331 1869 -1331 
Q 1566 -1331 1297 -1286 
Q 1028 -1241 775 -1147 
L 775 -588 
Q 1028 -725 1275 -790 
Q 1522 -856 1778 -856 
Q 2344 -856 2625 -561 
Q 2906 -266 2906 331 
L 2906 616 
Q 2728 306 2450 153 
Q 2172 0 1784 0 
Q 1141 0 747 490 
Q 353 981 353 1791 
Q 353 2603 747 3093 
Q 1141 3584 1784 3584 
Q 2172 3584 2450 3431 
Q 2728 3278 2906 2969 
L 2906 3500 
L 3481 3500 
L 3481 434 
z
" transform="scale(0.015625)"/>
       <path id="DejaVuSans-20" transform="scale(0.015625)"/>
       <path id="DejaVuSans-6f" d="M 1959 3097 
Q 1497 3097 1228 2736 
Q 959 2375 959 1747 
Q 959 1119 1226 758 
Q 1494 397 1959 397 
Q 2419 397 2687 759 
Q 2956 1122 2956 1747 
Q 2956 2369 2687 2733 
Q 2419 3097 1959 3097 
z
M 1959 3584 
Q 2709 3584 3137 3096 
Q 3566 2609 3566 1747 
Q 3566 888 3137 398 
Q 2709 -91 1959 -91 
Q 1206 -91 779 398 
Q 353 888 353 1747 
Q 353 2609 779 3096 
Q 1206 3584 1959 3584 
z
" transform="scale(0.015625)"/>
      </defs>
      <use xlink:href="#DejaVuSans-54"/>
      <use xlink:href="#DejaVuSans-72" x="46.333984"/>
      <use xlink:href="#DejaVuSans-61" x="87.447266"/>
      <use xlink:href="#DejaVuSans-63" x="148.726562"/>
      <use xlink:href="#DejaVuSans-6b" x="203.707031"/>
      <use xlink:href="#DejaVuSans-69" x="261.617188"/>
      <use xlink:href="#DejaVuSans-6e" x="289.400391"/>
      <use xlink:href="#DejaVuSans-67" x="352.779297"/>
      <use xlink:href="#DejaVuSans-20" x="416.255859"/>
      <use xlink:href="#DejaVuSans-65" x="448.042969"/>
      <use xlink:href="#DejaVuSans-72" x="509.566406"/>
      <use xlink:href="#DejaVuSans-72" x="548.929688"/>
      <use xlink:href="#DejaVuSans-6f" x="587.792969"/>
      <use xlink:href="#DejaVuSans-72" x="648.974609"/>
      <use xlink:href="#DejaVuSans-28" x="690.087891"/>
      <use xlink:href="#DejaVuSans-6d" x="729.101562"/>
      <use xlink:href="#DejaVuSans-29" x="826.513672"/>
     </g>
    </g>
   </g>
   <g id="line2d_27">
    <path d="M 73.832727 272.663238 
L 73.832727 284.779175 
L 74.297848 241.995566 
L 74.297848 223.745766 
L 74.99553 134.922906 
L 74.99553 138.16706 
L 75.460651 88.428293 
L 75.460651 89.695926 
L 75.693212 84.505608 
L 75.693212 81.20238 
L 75.925772 71.213111 
L 76.158333 70.834052 
L 76.158333 77.761313 
L 76.390893 70.694571 
L 76.390893 65.496869 
L 76.623454 81.371398 
L 76.623454 71.144191 
L 76.856015 86.405005 
L 76.856015 75.335172 
L 77.088575 91.212982 
L 77.088575 99.524382 
L 77.321136 107.003001 
L 77.321136 112.112092 
L 78.018817 156.269995 
L 78.018817 154.489567 
L 78.251378 166.727755 
L 78.251378 174.687172 
L 78.483939 179.172703 
L 78.483939 184.283434 
L 78.94906 214.013305 
L 78.94906 208.249476 
L 79.18162 220.641913 
L 79.414181 235.784579 
L 79.414181 225.864229 
L 79.646741 250.901809 
L 79.646741 242.81768 
L 79.879302 251.657466 
L 80.111862 250.01898 
L 80.111862 268.179348 
L 80.344423 261.456385 
L 80.344423 263.12687 
L 80.576984 273.127626 
L 80.576984 271.276637 
L 80.809544 294.424666 
L 80.809544 271.174078 
L 81.042105 281.18632 
L 81.042105 288.765858 
L 81.274665 285.263255 
L 81.274665 291.389733 
L 81.507226 291.815559 
L 81.507226 293.070064 
L 81.739786 290.01708 
L 81.739786 293.041347 
L 81.972347 294.008686 
L 81.972347 275.447926 
L 82.204908 278.849611 
L 82.204908 284.195818 
L 82.437468 285.46345 
L 82.437468 284.001366 
L 82.670029 286.586679 
L 82.670029 289.70448 
L 82.902589 270.443035 
L 82.902589 278.908685 
L 83.13515 272.947122 
L 83.13515 273.447611 
L 83.36771 272.660776 
L 83.36771 275.530794 
L 83.600271 269.573333 
L 83.832831 290.05072 
L 83.832831 271.382478 
L 84.065392 283.222736 
L 84.297953 269.154071 
L 84.297953 290.976214 
L 84.530513 289.11702 
L 84.530513 285.553702 
L 84.763074 294.032479 
L 84.763074 292.327535 
L 84.995634 283.500056 
L 84.995634 294.962897 
L 85.228195 283.400779 
L 85.228195 288.004458 
L 85.460755 283.544362 
L 85.460755 288.241575 
L 85.693316 288.468846 
L 85.693316 283.600154 
L 85.925877 290.658691 
L 85.925877 285.4454 
L 86.158437 281.2897 
L 86.158437 295.488 
L 86.390998 278.816792 
L 86.390998 291.169846 
L 86.623558 275.275626 
L 86.623558 286.049269 
L 86.856119 281.071454 
L 86.856119 257.010237 
L 87.088679 270.638308 
L 87.32124 285.607033 
L 87.5538 278.291688 
L 87.5538 270.233815 
L 87.786361 272.16439 
L 87.786361 271.620415 
L 88.018922 270.281402 
L 88.018922 273.368845 
L 88.251482 284.627387 
L 88.484043 279.337793 
L 88.484043 281.51533 
L 88.716603 265.598137 
L 88.716603 278.993193 
L 88.949164 271.398887 
L 88.949164 265.23877 
L 89.414285 279.276257 
L 89.414285 268.416465 
L 89.646846 266.508863 
L 89.646846 279.107239 
L 89.879406 270.617796 
L 89.879406 273.918563 
L 90.111967 269.053153 
L 90.111967 257.312992 
L 90.344527 262.879907 
L 90.344527 285.271459 
L 90.577088 274.222958 
L 90.577088 254.974642 
L 90.809648 262.509874 
L 91.042209 280.21652 
L 91.042209 246.704265 
L 91.739891 281.362722 
L 91.739891 268.548561 
L 91.972451 288.050404 
L 91.972451 263.319681 
L 92.205012 262.229272 
L 92.205012 269.473235 
L 92.437572 256.328424 
L 92.437572 277.266916 
L 92.670133 267.575479 
L 92.670133 283.546823 
L 92.902693 291.776176 
L 92.902693 268.389389 
L 93.135254 252.926739 
L 93.135254 264.069594 
L 93.367815 271.85343 
L 93.367815 285.657082 
L 93.600375 283.199763 
L 93.600375 263.19579 
L 93.832936 271.280739 
L 94.065496 278.508293 
L 94.065496 260.157575 
L 94.298057 283.295758 
L 94.530617 283.079974 
L 94.530617 267.180011 
L 94.763178 268.829984 
L 94.763178 281.179756 
L 94.995738 280.161548 
L 94.995738 283.328577 
L 95.228299 288.220243 
L 95.228299 272.734619 
L 95.46086 273.519812 
L 95.46086 274.20819 
L 95.69342 288.736321 
L 95.69342 280.33795 
L 95.925981 294.822596 
L 95.925981 294.670808 
L 96.158541 267.015096 
L 96.158541 279.114624 
L 96.391102 282.756707 
L 96.391102 262.899599 
L 96.623662 285.011369 
L 96.623662 284.397655 
L 96.856223 288.966053 
L 96.856223 292.63029 
L 97.088784 290.465879 
L 97.088784 288.681349 
L 97.321344 290.77848 
L 97.321344 266.336564 
L 97.553905 292.89038 
L 97.786465 293.697726 
L 97.786465 281.278213 
L 98.019026 281.990385 
L 98.019026 292.938788 
L 98.251586 283.726507 
L 98.251586 295.480616 
L 98.484147 295.488 
L 98.484147 295.488 
L 98.716707 287.988048 
L 98.949268 293.939766 
L 99.181829 282.833832 
L 99.181829 291.008213 
L 99.414389 289.406648 
L 99.414389 290.390396 
L 99.64695 283.214532 
L 99.64695 291.403681 
L 99.87951 294.922694 
L 99.87951 292.957659 
L 100.112071 289.139173 
L 100.112071 292.833767 
L 100.344631 277.985652 
L 100.344631 291.968988 
L 100.577192 265.888585 
L 100.577192 267.807673 
L 100.809753 266.630293 
L 100.809753 268.394312 
L 101.042313 260.812313 
L 101.042313 276.153533 
L 101.274874 263.711868 
L 101.274874 282.125763 
L 101.507434 261.171681 
L 101.507434 261.830521 
L 101.739995 257.550109 
L 101.739995 252.784797 
L 101.972555 263.935037 
L 101.972555 254.025353 
L 102.205116 258.075212 
L 102.205116 264.971295 
L 102.437676 263.653614 
L 102.437676 262.427826 
L 102.670237 239.223184 
L 102.670237 257.463959 
L 102.902798 255.068996 
L 102.902798 253.201598 
L 103.135358 239.155906 
L 103.367919 259.234542 
L 103.367919 247.850467 
L 103.600479 244.660465 
L 103.600479 249.954162 
L 103.83304 253.074424 
L 103.83304 247.099734 
L 104.0656 246.160291 
L 104.0656 248.264806 
L 104.298161 247.973538 
L 104.298161 244.226434 
L 104.530722 249.233786 
L 104.530722 256.094588 
L 104.995843 227.321391 
L 104.995843 237.783253 
L 105.228403 233.908155 
L 105.228403 226.155497 
L 105.460964 228.616919 
L 105.460964 239.18134 
L 105.693524 247.804521 
L 105.926085 242.935829 
L 105.926085 235.716479 
L 106.158645 239.464404 
L 106.158645 229.197814 
L 106.391206 227.341902 
L 106.391206 241.092224 
L 106.623767 240.283237 
L 106.623767 247.28434 
L 106.856327 244.027059 
L 106.856327 240.702499 
L 107.088888 227.295956 
L 107.088888 230.124129 
L 107.321448 236.005286 
L 107.321448 239.762236 
L 107.554009 243.745636 
L 107.554009 230.64431 
L 107.786569 236.016773 
L 107.786569 250.896887 
L 108.01913 243.8564 
L 108.01913 256.143817 
L 108.484251 237.526445 
L 108.484251 249.393778 
L 108.716812 257.515649 
L 108.716812 255.428364 
L 108.949372 252.716698 
L 108.949372 272.9102 
L 109.414493 261.779652 
L 109.414493 247.672424 
L 109.879614 279.327126 
L 109.879614 265.132108 
L 110.112175 279.38538 
L 110.112175 277.74115 
L 110.344736 285.819536 
L 110.577296 284.965423 
L 110.577296 288.150502 
L 110.809857 284.47642 
L 110.809857 269.823578 
L 111.042417 295.032637 
L 111.042417 278.097236 
L 111.274978 293.752698 
L 111.507538 288.529561 
L 111.507538 284.684821 
L 111.740099 288.361364 
L 111.740099 281.576045 
L 111.97266 289.451774 
L 111.97266 288.090608 
L 112.20522 281.055044 
L 112.20522 286.178083 
L 112.437781 276.763966 
L 112.437781 290.958984 
L 112.670341 286.825437 
L 112.670341 268.965362 
L 112.902902 278.549317 
L 112.902902 293.251388 
L 113.135462 286.557962 
L 113.135462 288.583712 
L 113.368023 288.143118 
L 113.368023 284.195818 
L 113.600583 283.022541 
L 113.600583 278.368813 
L 113.833144 280.600502 
L 113.833144 273.674882 
L 114.065705 281.631017 
L 114.065705 273.36064 
L 114.298265 279.085907 
L 114.530826 259.441301 
L 114.763386 273.415612 
L 114.995947 267.330158 
L 114.995947 256.646767 
L 115.228507 276.40788 
L 115.228507 271.067416 
L 115.461068 262.638688 
L 115.461068 271.690976 
L 115.693629 275.424953 
L 115.693629 269.258271 
L 115.926189 261.06666 
L 115.926189 273.23921 
L 116.15875 269.770247 
L 116.15875 264.92699 
L 116.39131 282.107712 
L 116.39131 268.514101 
L 116.623871 277.42855 
L 116.623871 277.310402 
L 116.856431 276.777914 
L 116.856431 285.849894 
L 117.088992 278.611673 
L 117.088992 288.182501 
L 117.321552 275.64484 
L 117.321552 283.216993 
L 117.554113 281.691732 
L 117.554113 283.509902 
L 117.786674 281.546508 
L 117.786674 281.70568 
L 118.019234 294.182626 
L 118.019234 293.508197 
L 118.251795 285.941787 
L 118.484355 295.488 
L 118.484355 282.445747 
L 118.716916 295.282882 
L 118.716916 284.581441 
L 118.949476 288.106197 
L 118.949476 285.595547 
L 119.182037 294.947308 
L 119.414598 292.892841 
L 119.414598 291.855762 
L 119.647158 295.488 
L 119.647158 295.488 
L 120.112279 283.09064 
L 120.112279 291.35035 
L 120.34484 289.819346 
L 120.34484 283.961983 
L 120.5774 268.468155 
L 120.5774 274.714422 
L 120.809961 295.488 
L 120.809961 278.458245 
L 121.042521 289.162147 
L 121.042521 283.771633 
L 121.275082 292.372661 
L 121.507643 290.359218 
L 121.507643 290.785864 
L 121.740203 285.950812 
L 121.740203 287.979844 
L 121.972764 295.488 
L 121.972764 282.565537 
L 122.205324 284.135924 
L 122.205324 294.609272 
L 122.437885 285.424068 
L 122.437885 287.369411 
L 122.670445 290.165586 
L 122.670445 288.436848 
L 122.903006 290.506903 
L 122.903006 285.649698 
L 123.135567 275.698991 
L 123.135567 281.992846 
L 123.368127 287.206957 
L 123.833248 253.469072 
L 124.065809 249.974674 
L 124.065809 251.99386 
L 124.298369 249.132868 
L 124.298369 235.05928 
L 124.53093 230.81743 
L 124.53093 220.825699 
L 124.996051 207.625095 
L 124.996051 216.397602 
L 125.461172 183.476908 
L 125.461172 189.896296 
L 125.693733 173.724756 
L 125.693733 188.121611 
L 125.926293 200.038173 
L 125.926293 194.850317 
L 126.158854 194.403159 
L 126.158854 175.869475 
L 126.391414 184.543524 
L 126.391414 164.216285 
L 126.623975 172.078065 
L 126.623975 175.954804 
L 126.856536 173.114324 
L 126.856536 189.549235 
L 127.089096 183.031391 
L 127.089096 188.296372 
L 127.321657 176.998447 
L 127.321657 191.239412 
L 127.554217 192.999328 
L 127.554217 198.76808 
L 127.786778 201.762809 
L 127.786778 200.103811 
L 128.019338 209.065847 
L 128.251899 199.231648 
L 128.251899 207.186962 
L 128.484459 211.022677 
L 128.484459 223.201791 
L 128.71702 210.408142 
L 128.71702 215.879883 
L 128.949581 231.149722 
L 129.182141 219.883795 
L 129.182141 220.42859 
L 129.414702 231.880764 
L 129.414702 224.830432 
L 129.647262 231.260486 
L 129.647262 235.798527 
L 129.879823 243.685742 
L 129.879823 239.902537 
L 130.112383 245.433351 
L 130.112383 239.294566 
L 130.344944 248.684889 
L 130.344944 257.293301 
L 130.577505 250.121539 
L 130.577505 265.120621 
L 130.810065 268.747936 
L 130.810065 264.689873 
L 131.042626 266.215954 
L 131.042626 256.188943 
L 131.275186 266.668035 
L 131.275186 260.077989 
L 131.507747 264.699718 
L 131.507747 273.145676 
L 131.740307 287.491662 
L 131.972868 284.106387 
L 131.972868 279.837461 
L 132.437989 287.95687 
L 132.437989 286.672008 
L 132.67055 292.408762 
L 132.67055 288.244036 
L 132.90311 291.353632 
L 133.135671 278.025855 
L 133.135671 286.756517 
L 133.368231 285.656262 
L 133.368231 293.664907 
L 133.600792 289.335267 
L 133.600792 290.693151 
L 133.833352 281.474306 
L 133.833352 287.816569 
L 134.065913 281.416053 
L 134.065913 288.169373 
L 134.298474 294.254007 
L 134.298474 284.814456 
L 134.531034 290.163125 
L 134.531034 295.114684 
L 134.763595 291.050057 
L 134.763595 276.885396 
L 134.996155 292.761565 
L 134.996155 284.59785 
L 135.228716 293.882333 
L 135.228716 288.68299 
L 135.461276 286.275719 
L 135.461276 280.209136 
L 135.693837 294.843928 
L 135.693837 289.679045 
L 135.926397 295.281241 
L 135.926397 291.808995 
L 136.158958 287.425203 
L 136.158958 295.266472 
L 136.391519 278.893096 
L 136.391519 284.756202 
L 136.624079 291.922221 
L 136.85664 275.411005 
L 137.0892 276.471877 
L 137.0892 273.803696 
L 137.321761 280.296106 
L 137.321761 289.953904 
L 137.786882 269.579897 
L 137.786882 272.474529 
L 138.019443 283.324475 
L 138.019443 272.77072 
L 138.252003 269.36083 
L 138.252003 266.358716 
L 138.484564 257.532059 
L 138.484564 270.564466 
L 138.717124 273.059527 
L 138.717124 283.289195 
L 138.949685 258.775077 
L 138.949685 262.678891 
L 139.182245 260.711395 
L 139.182245 247.642067 
L 139.414806 260.175625 
L 139.647367 261.84529 
L 139.647367 250.31353 
L 139.879927 246.350641 
L 139.879927 256.399805 
L 140.112488 264.99755 
L 140.112488 251.915915 
L 140.345048 240.448152 
L 140.345048 252.757721 
L 140.577609 246.340795 
L 140.810169 250.256917 
L 140.810169 236.82658 
L 141.04273 236.294913 
L 141.04273 254.045045 
L 141.27529 246.876565 
L 141.27529 226.072629 
L 141.507851 239.061551 
L 141.507851 230.527802 
L 141.740412 236.157074 
L 141.740412 246.481096 
L 141.972972 261.512998 
L 141.972972 255.781167 
L 142.205533 238.614393 
L 142.205533 227.7185 
L 142.438093 229.12151 
L 142.438093 242.727428 
L 142.670654 247.175217 
L 142.670654 253.212264 
L 142.903214 235.230759 
L 143.135775 258.135107 
L 143.135775 250.039491 
L 143.368336 240.633579 
L 143.368336 247.235932 
L 143.600896 241.006074 
L 143.833457 235.156096 
L 143.833457 227.947412 
L 144.066017 242.208068 
L 144.066017 258.037471 
L 144.298578 244.284688 
L 144.298578 233.660372 
L 144.531138 255.900136 
L 144.531138 245.36197 
L 144.763699 257.006135 
L 144.763699 240.645886 
L 144.996259 253.406716 
L 144.996259 263.053848 
L 145.22882 244.944349 
L 145.22882 258.90225 
L 145.461381 265.583369 
L 145.693941 276.908369 
L 145.693941 267.885618 
L 145.926502 268.074327 
L 145.926502 278.552599 
L 146.159062 268.797165 
L 146.159062 291.736794 
L 146.391623 293.467173 
L 146.391623 287.980664 
L 146.624183 289.702018 
L 146.624183 283.084897 
L 146.856744 295.081045 
L 146.856744 290.479007 
L 147.089305 283.565694 
L 147.089305 295.042483 
L 147.321865 284.217151 
L 147.554426 289.628996 
L 147.554426 288.591097 
L 147.786986 274.542943 
L 147.786986 290.716124 
L 148.019547 295.488 
L 148.019547 295.488 
L 148.252107 294.980947 
L 148.252107 286.915689 
L 148.484668 295.488 
L 148.484668 290.600437 
L 148.717228 294.854594 
L 148.717228 282.833011 
L 148.949789 286.210902 
L 148.949789 295.488 
L 149.18235 287.537608 
L 149.18235 289.297525 
L 149.41491 290.081898 
L 149.41491 295.488 
L 149.647471 286.523503 
L 149.880031 292.334919 
L 149.880031 287.700883 
L 150.112592 285.524986 
L 150.112592 288.944721 
L 150.345152 282.009255 
L 150.345152 282.041254 
L 150.577713 286.83118 
L 150.810274 285.60129 
L 150.810274 279.025192 
L 151.042834 292.701671 
L 151.042834 281.592455 
L 151.275395 276.30368 
L 151.275395 285.759641 
L 151.507955 289.015282 
L 151.507955 287.928154 
L 151.740516 288.456539 
L 151.740516 276.814835 
L 151.973076 293.571373 
L 151.973076 286.91733 
L 152.205637 284.255713 
L 152.205637 288.037277 
L 152.438197 294.814391 
L 152.438197 277.270198 
L 152.670758 278.791357 
L 152.670758 291.404502 
L 152.903319 292.92566 
L 152.903319 287.455561 
L 153.135879 293.701008 
L 153.135879 289.308191 
L 153.36844 291.416809 
L 153.36844 289.960468 
L 153.601 284.496932 
L 153.601 290.260761 
L 153.833561 293.896281 
L 153.833561 282.054381 
L 154.066121 281.018123 
L 154.066121 281.170731 
L 154.298682 290.839195 
L 154.298682 281.877159 
L 154.531243 283.729789 
L 154.531243 280.627577 
L 154.763803 276.105125 
L 154.763803 277.833864 
L 154.996364 277.591004 
L 154.996364 286.159212 
L 155.461485 266.961765 
L 155.461485 274.341927 
L 155.694045 270.144383 
L 155.694045 267.054478 
L 155.926606 266.216775 
L 155.926606 265.642443 
L 156.159166 265.668698 
L 156.159166 262.388443 
L 156.391727 261.051892 
L 156.391727 257.614106 
L 156.624288 254.232933 
L 156.624288 254.909004 
L 156.856848 254.698142 
L 156.856848 256.645126 
L 157.089409 248.462541 
L 157.089409 250.378347 
L 157.321969 248.502744 
L 157.321969 251.492551 
L 157.55453 242.195761 
L 157.55453 242.212991 
L 157.78709 243.234481 
L 157.78709 242.034948 
L 158.019651 241.220218 
L 158.019651 242.944033 
L 158.252212 242.534617 
L 158.252212 245.058395 
L 158.484772 242.387752 
L 158.484772 247.536226 
L 158.717333 238.236975 
L 158.717333 242.823424 
L 159.182454 249.331422 
L 159.182454 245.605651 
L 159.415014 246.260389 
L 159.415014 241.392517 
L 159.647575 247.99323 
L 159.647575 253.277902 
L 159.880135 256.222582 
L 159.880135 251.589367 
L 160.112696 255.876342 
L 160.112696 255.224066 
L 160.345257 254.388003 
L 160.345257 245.816512 
L 160.577817 256.376831 
L 160.810378 258.679081 
L 160.810378 252.618241 
L 161.042938 247.450076 
L 161.042938 247.658476 
L 161.275499 249.424136 
L 161.275499 260.347105 
L 161.508059 248.071175 
L 161.508059 255.452978 
L 161.74062 262.618176 
L 161.973181 258.557651 
L 161.973181 254.233754 
L 162.438302 275.026202 
L 162.438302 266.151137 
L 162.670862 255.825473 
L 162.670862 277.126615 
L 162.903423 273.316335 
L 162.903423 262.254706 
L 163.135983 272.233309 
L 163.135983 282.710761 
L 163.368544 284.879273 
L 163.368544 286.993634 
L 163.601104 286.039423 
L 163.601104 273.93087 
L 163.833665 285.424888 
L 163.833665 292.156056 
L 164.066226 290.300964 
L 164.066226 293.937304 
L 164.298786 290.72679 
L 164.298786 291.032006 
L 164.531347 289.516591 
L 164.531347 291.529214 
L 164.763907 287.069938 
L 164.763907 288.152964 
L 164.996468 294.557583 
L 164.996468 280.82203 
L 165.229028 295.488 
L 165.229028 295.488 
L 165.461589 290.817042 
L 165.461589 279.059652 
L 165.69415 291.825405 
L 165.69415 284.776714 
L 165.92671 294.939923 
L 166.391831 284.789021 
L 166.624392 286.015629 
L 166.624392 289.296704 
L 166.856952 283.532055 
L 166.856952 291.512804 
L 167.089513 288.160348 
L 167.089513 293.576296 
L 167.322073 280.009761 
L 167.322073 292.882995 
L 167.554634 287.994612 
L 167.554634 285.126236 
L 167.787195 288.794574 
L 167.787195 281.54897 
L 168.019755 295.488 
L 168.252316 289.557615 
L 168.252316 282.341547 
L 168.717437 270.827838 
L 168.717437 283.559951 
L 168.949997 259.3691 
L 168.949997 275.621866 
L 169.182558 248.751347 
L 169.182558 260.033683 
L 169.647679 272.472888 
L 169.647679 261.48264 
L 169.88024 267.601734 
L 169.88024 258.40012 
L 170.1128 242.749581 
L 170.1128 249.328961 
L 170.345361 244.969783 
L 170.345361 237.894837 
L 170.577921 231.825792 
L 170.577921 250.979754 
L 170.810482 245.969121 
L 170.810482 251.497473 
L 171.043042 242.599434 
L 171.043042 244.199358 
L 171.275603 238.924532 
L 171.275603 231.946402 
L 171.508164 242.48867 
L 171.508164 249.2584 
L 171.740724 248.46172 
L 171.740724 251.835509 
L 171.973285 242.596973 
L 171.973285 246.803542 
L 172.205845 266.485069 
L 172.205845 252.898843 
L 172.438406 250.334041 
L 172.438406 246.05445 
L 172.903527 271.118285 
L 172.903527 266.826387 
L 173.136088 251.69849 
L 173.136088 267.872491 
L 173.368648 273.037374 
L 173.368648 260.696626 
L 173.601209 256.355499 
L 173.601209 273.579707 
L 173.833769 275.233782 
L 173.833769 271.433347 
L 174.06633 283.647742 
L 174.06633 261.554022 
L 174.29889 261.166758 
L 174.29889 279.271334 
L 174.531451 278.648594 
L 174.531451 288.749448 
L 174.764011 286.843487 
L 174.764011 284.148231 
L 174.996572 287.491662 
L 174.996572 281.781164 
L 175.229133 277.237379 
L 175.229133 281.027148 
L 175.461693 278.044726 
L 175.461693 293.170982 
L 175.694254 295.488 
L 175.694254 295.488 
L 175.926814 294.391847 
L 175.926814 283.076692 
L 176.159375 277.038825 
L 176.159375 281.679425 
L 176.391935 282.723068 
L 176.391935 294.829159 
L 176.624496 289.112918 
L 176.624496 293.494249 
L 176.857057 290.897449 
L 176.857057 289.189222 
L 177.089617 287.260288 
L 177.089617 288.737962 
L 177.322178 275.19604 
L 177.322178 289.65279 
L 177.554738 289.748785 
L 177.554738 285.63657 
L 177.787299 264.983602 
L 177.787299 291.096003 
L 178.019859 284.57898 
L 178.019859 279.517476 
L 178.25242 261.978207 
L 178.48498 275.599714 
L 178.48498 285.777692 
L 178.717541 287.76652 
L 178.717541 285.904045 
L 178.950102 269.711993 
L 179.182662 276.457109 
L 179.182662 248.837497 
L 179.415223 274.972051 
L 179.647783 256.922447 
L 179.880344 254.934438 
L 179.880344 250.564595 
L 180.112904 256.303809 
L 180.112904 251.288253 
L 180.345465 246.359666 
L 180.578026 233.598016 
L 180.578026 254.092632 
L 180.810586 225.734594 
L 180.810586 231.868457 
L 181.043147 230.435909 
L 181.043147 222.35178 
L 181.275707 229.411138 
L 181.275707 233.758008 
L 181.508268 212.703008 
L 181.508268 237.751254 
L 182.205949 215.472928 
L 182.205949 207.354339 
L 182.43851 218.799129 
L 182.43851 228.055715 
L 182.671071 230.755074 
L 182.671071 218.222336 
L 183.136192 193.592531 
L 183.136192 230.145462 
L 183.368752 220.399053 
L 183.368752 196.55198 
L 183.601313 203.361913 
L 183.601313 202.289554 
L 183.833873 217.717744 
L 183.833873 205.587038 
L 184.066434 225.837974 
L 184.066434 223.315017 
L 184.298995 199.918384 
L 184.298995 204.712413 
L 184.531555 216.173612 
L 184.531555 199.550812 
L 184.764116 198.795155 
L 184.764116 206.849747 
L 184.996676 193.138809 
L 184.996676 193.536738 
L 185.229237 198.673725 
L 185.229237 185.111292 
L 185.461797 184.44999 
L 185.461797 191.678365 
L 185.694358 181.014666 
L 185.694358 184.036472 
L 185.926918 183.867454 
L 185.926918 177.271665 
L 186.159479 171.006526 
L 186.159479 174.655994 
L 186.39204 165.232031 
L 186.6246 164.125212 
L 186.6246 168.569719 
L 186.857161 159.754548 
L 187.089721 157.656596 
L 187.089721 170.134362 
L 187.322282 162.541697 
L 187.322282 158.290002 
L 187.554842 167.206091 
L 187.787403 157.782949 
L 187.787403 160.65871 
L 188.019964 169.564133 
L 188.019964 158.577168 
L 188.252524 157.75013 
L 188.252524 161.679379 
L 188.485085 161.952597 
L 188.485085 163.380222 
L 188.717645 156.193691 
L 188.950206 163.81097 
L 188.950206 162.172484 
L 189.182766 164.505091 
L 189.415327 158.894691 
L 189.647887 162.637693 
L 189.647887 162.52939 
L 189.880448 155.875347 
L 190.345569 166.515252 
L 190.57813 160.079455 
L 190.57813 160.200065 
L 190.81069 168.783042 
L 190.81069 165.705445 
L 191.043251 170.014573 
L 191.043251 164.426326 
L 191.275811 168.025745 
L 191.275811 171.890997 
L 191.508372 174.058689 
L 191.508372 173.359645 
L 191.740933 179.542736 
L 191.973493 179.041427 
L 191.973493 181.145122 
L 192.206054 185.622448 
L 192.206054 185.548605 
L 192.438614 187.086993 
L 192.438614 180.690579 
L 192.671175 195.026719 
L 192.671175 192.687548 
L 192.903735 187.814754 
L 192.903735 192.323258 
L 193.136296 211.112929 
L 193.136296 197.120568 
L 193.368856 204.970042 
L 193.368856 211.007088 
L 193.601417 211.457529 
L 193.601417 215.222683 
L 193.833978 224.148618 
L 193.833978 209.17497 
L 194.299099 237.216305 
L 194.531659 228.427389 
L 194.76422 242.257297 
L 194.76422 253.905564 
L 194.99678 249.235427 
L 194.99678 242.163763 
L 195.229341 251.056058 
L 195.229341 255.503027 
L 195.461902 273.146497 
L 195.461902 266.043655 
L 195.694462 281.466922 
L 195.694462 269.574974 
L 195.927023 268.938286 
L 195.927023 271.572007 
L 196.159583 275.280549 
L 196.159583 289.784886 
L 196.392144 290.218096 
L 196.392144 289.588793 
L 196.624704 285.834305 
L 196.624704 291.946014 
L 196.857265 292.902687 
L 196.857265 283.357294 
L 197.089825 283.984956 
L 197.089825 295.433849 
L 197.322386 290.756327 
L 197.322386 285.762923 
L 198.020068 255.896034 
L 198.020068 259.540579 
L 198.252628 242.521489 
L 198.485189 254.907363 
L 198.717749 239.584193 
L 198.717749 242.624869 
L 199.182871 226.666652 
L 199.415431 211.90961 
L 199.415431 224.139593 
L 199.647992 214.382518 
L 199.880552 210.090619 
L 199.880552 203.286429 
L 200.113113 195.391009 
L 200.113113 200.066069 
L 200.345673 201.17535 
L 200.345673 196.123693 
L 200.578234 202.852399 
L 200.578234 193.172448 
L 200.810794 182.644948 
L 200.810794 187.578457 
L 201.043355 186.122116 
L 201.043355 187.187091 
L 201.275916 193.183935 
L 201.275916 189.198073 
L 201.508476 181.974621 
L 201.508476 178.21685 
L 201.741037 183.768177 
L 201.741037 180.76114 
L 201.973597 174.266269 
L 201.973597 185.278669 
L 202.206158 178.404739 
L 202.206158 178.542579 
L 202.438718 181.552897 
L 202.438718 179.645295 
L 202.671279 175.839117 
L 202.90384 177.649083 
L 202.90384 176.804815 
L 203.1364 172.303695 
L 203.368961 161.318371 
L 203.368961 161.434878 
L 203.601521 155.815453 
L 203.834082 147.415441 
L 204.066642 127.577204 
L 204.299203 123.06952 
L 204.299203 125.399666 
L 204.531763 100.067536 
L 204.531763 108.615232 
L 204.764324 91.776647 
L 204.764324 92.64635 
L 204.996885 93.018845 
L 204.996885 89.528549 
L 205.229445 76.304151 
L 205.229445 77.763774 
L 205.462006 77.226364 
L 205.462006 75.902939 
L 205.694566 67.998494 
L 205.694566 53.568 
L 205.927127 99.41772 
L 205.927127 86.436183 
L 206.159687 70.020142 
L 206.159687 73.379162 
L 206.392248 86.539563 
L 206.392248 84.586014 
L 206.624809 83.423403 
L 206.624809 70.119419 
L 206.857369 92.967975 
L 207.08993 95.932347 
L 207.08993 89.32261 
L 207.32249 94.955983 
L 207.32249 104.708136 
L 207.555051 105.154474 
L 207.555051 88.329016 
L 207.787611 113.571715 
L 208.020172 122.728203 
L 208.020172 116.962733 
L 208.252732 123.414119 
L 208.485293 152.972511 
L 208.485293 150.916403 
L 208.717854 148.674048 
L 208.717854 149.921168 
L 208.950414 159.491996 
L 208.950414 142.795353 
L 209.182975 146.277444 
L 209.182975 143.853764 
L 209.415535 154.137584 
L 209.648096 156.03616 
L 209.648096 151.615447 
L 209.880656 153.937388 
L 209.880656 176.280532 
L 210.113217 163.735487 
L 210.113217 157.286562 
L 210.345778 160.850701 
L 210.345778 172.785314 
L 210.578338 157.800179 
L 210.578338 161.717942 
L 210.810899 200.348312 
L 210.810899 172.110064 
L 211.043459 186.771931 
L 211.043459 177.299561 
L 211.27602 192.977996 
L 211.27602 183.203691 
L 211.50858 200.002893 
L 211.50858 195.036565 
L 211.741141 200.442667 
L 211.741141 224.799254 
L 211.973701 220.523765 
L 211.973701 216.523955 
L 212.206262 224.75741 
L 212.206262 224.352096 
L 212.438823 240.639322 
L 212.438823 250.05508 
L 212.671383 270.949268 
L 212.671383 261.391568 
L 212.903944 272.002756 
L 213.369065 293.597628 
L 213.369065 274.127783 
L 213.601625 283.399959 
L 213.601625 295.488 
L 213.834186 285.470014 
L 213.834186 291.646541 
L 214.066747 294.600247 
L 214.066747 275.563613 
L 214.299307 292.470297 
L 214.299307 289.29014 
L 214.531868 269.026077 
L 214.531868 285.876969 
L 214.764428 286.004963 
L 214.764428 281.382413 
L 214.996989 294.763522 
L 214.996989 287.24552 
L 215.229549 281.01238 
L 215.229549 275.798268 
L 215.46211 285.166439 
L 215.46211 282.680403 
L 215.69467 289.4969 
L 215.69467 285.127056 
L 215.927231 281.980539 
L 215.927231 265.287178 
L 216.159792 277.824839 
L 216.392352 268.281087 
L 216.624913 245.766464 
L 216.624913 259.326435 
L 216.857473 251.010932 
L 216.857473 243.759584 
L 217.090034 235.1643 
L 217.090034 238.421582 
L 217.322594 216.724971 
L 217.322594 223.628438 
L 217.555155 217.409246 
L 217.555155 224.297944 
L 217.787716 201.27955 
L 217.787716 205.675649 
L 218.020276 190.254023 
L 218.020276 209.258659 
L 218.485397 188.381701 
L 218.485397 189.359706 
L 218.717958 170.394453 
L 218.717958 188.31032 
L 218.950518 179.433613 
L 218.950518 173.253804 
L 219.183079 166.291263 
L 219.183079 175.972854 
L 219.415639 179.493508 
L 219.415639 182.206815 
L 219.6482 144.461735 
L 219.6482 185.342666 
L 219.880761 168.252195 
L 219.880761 186.657886 
L 220.113321 190.714308 
L 220.113321 190.673285 
L 220.345882 171.388867 
L 220.345882 195.971905 
L 220.578442 171.603011 
L 220.578442 188.694302 
L 220.811003 182.333988 
L 220.811003 183.677104 
L 221.043563 171.110726 
L 221.043563 179.829902 
L 221.276124 164.738106 
L 221.508685 164.079265 
L 221.508685 174.343393 
L 221.741245 168.081537 
L 221.741245 171.614497 
L 221.973806 139.245163 
L 222.438927 161.571897 
L 222.438927 156.563725 
L 222.671487 161.809835 
L 222.671487 131.688598 
L 222.904048 136.291457 
L 222.904048 140.290446 
L 223.136608 150.013882 
L 223.136608 129.870428 
L 223.369169 141.964213 
L 223.369169 127.715864 
L 223.60173 135.664615 
L 223.60173 146.234779 
L 223.83429 130.837767 
L 223.83429 136.145412 
L 224.066851 144.013757 
L 224.066851 150.276434 
L 224.299411 138.512479 
L 224.299411 152.8839 
L 224.531972 141.441571 
L 224.531972 145.136165 
L 224.764532 152.826466 
L 224.764532 156.959193 
L 224.997093 150.141055 
L 224.997093 150.256742 
L 225.229654 163.709232 
L 225.462214 156.64167 
L 225.462214 164.871843 
L 225.694775 163.554162 
L 225.694775 161.123098 
L 225.927335 165.222185 
L 225.927335 164.281922 
L 226.159896 159.895669 
L 226.392456 161.430776 
L 226.625017 160.872854 
L 226.625017 160.909775 
L 226.857577 154.967903 
L 226.857577 155.103281 
L 227.090138 155.314143 
L 227.090138 155.305938 
L 227.322699 147.783014 
L 227.555259 151.068191 
L 227.555259 152.728009 
L 227.78782 155.161535 
L 227.78782 154.435416 
L 228.02038 154.653662 
L 228.02038 151.913279 
L 228.252941 161.756504 
L 228.252941 161.389752 
L 228.485501 160.732552 
L 228.485501 161.431596 
L 228.718062 171.430711 
L 228.718062 167.233167 
L 228.950623 171.746594 
L 228.950623 170.529831 
L 229.183183 182.356141 
L 229.183183 178.068345 
L 229.415744 176.287916 
L 229.415744 174.457439 
L 229.648304 170.028521 
L 229.648304 171.989454 
L 229.880865 179.60099 
L 229.880865 173.511433 
L 230.113425 168.125022 
L 230.113425 184.271948 
L 230.345986 169.59367 
L 230.578546 174.569844 
L 230.578546 177.659749 
L 230.811107 173.274316 
L 230.811107 181.462645 
L 231.043668 175.926087 
L 231.043668 181.722735 
L 231.276228 181.578332 
L 231.276228 180.313161 
L 231.508789 199.891308 
L 231.508789 191.954865 
L 231.741349 189.810967 
L 231.741349 188.497388 
L 231.97391 194.281729 
L 231.97391 182.478392 
L 232.20647 216.679845 
L 232.439031 210.335941 
L 232.439031 214.411234 
L 232.671592 222.201634 
L 232.671592 218.053318 
L 232.904152 229.717995 
L 233.136713 229.859116 
L 233.136713 236.703509 
L 233.369273 243.588926 
L 233.369273 240.471946 
L 233.601834 245.471093 
L 233.601834 249.827809 
L 233.834394 253.688959 
L 233.834394 248.955645 
L 234.066955 250.683563 
L 234.066955 257.037313 
L 234.299515 250.458754 
L 234.299515 267.255494 
L 234.532076 257.166948 
L 234.532076 276.791042 
L 234.764637 267.202164 
L 234.764637 269.807168 
L 234.997197 275.792525 
L 234.997197 270.472572 
L 235.229758 259.531553 
L 235.229758 277.279224 
L 235.462318 274.841596 
L 235.462318 276.855859 
L 235.694879 277.108565 
L 235.694879 287.564684 
L 235.927439 295.22873 
L 235.927439 279.673366 
L 236.16 292.083854 
L 236.16 285.504474 
L 236.392561 294.971922 
L 236.625121 292.764847 
L 236.625121 294.939923 
L 236.857682 287.387462 
L 236.857682 288.035636 
L 237.090242 285.643955 
L 237.090242 288.894672 
L 237.322803 285.234538 
L 237.322803 286.77867 
L 237.555363 287.305414 
L 237.555363 280.845823 
L 237.787924 274.058043 
L 237.787924 284.453447 
L 238.020485 294.198215 
L 238.020485 285.603751 
L 238.253045 276.137944 
L 238.253045 293.044629 
L 238.485606 295.050687 
L 238.485606 287.906001 
L 238.718166 283.029104 
L 238.718166 291.352812 
L 238.950727 292.961761 
L 238.950727 287.115885 
L 239.183287 295.382159 
L 239.183287 276.501414 
L 239.415848 291.828687 
L 239.415848 277.821557 
L 239.648408 271.249561 
L 239.648408 285.837586 
L 239.880969 295.488 
L 239.880969 288.108658 
L 240.11353 286.721237 
L 240.11353 289.926828 
L 240.34609 295.442874 
L 240.34609 290.22466 
L 240.578651 293.798644 
L 240.578651 288.383517 
L 240.811211 275.978773 
L 240.811211 292.30128 
L 241.043772 285.648877 
L 241.043772 295.488 
L 241.276332 293.974226 
L 241.276332 282.330061 
L 241.508893 295.394466 
L 241.741454 286.902562 
L 241.741454 290.158202 
L 241.974014 294.891516 
L 241.974014 288.44095 
L 242.206575 293.233338 
L 242.206575 271.291405 
L 242.439135 291.096003 
L 242.671696 291.28061 
L 242.671696 288.225986 
L 242.904256 277.316965 
L 242.904256 291.868069 
L 243.136817 292.646699 
L 243.136817 291.100926 
L 243.369377 282.019101 
L 243.369377 275.525871 
L 243.601938 273.089884 
L 243.601938 283.129202 
L 243.834499 272.126648 
L 243.834499 284.348426 
L 244.067059 268.519024 
L 244.067059 290.087641 
L 244.29962 269.456005 
L 244.29962 274.446127 
L 244.53218 282.233245 
L 244.53218 269.225452 
L 244.764741 257.728972 
L 244.764741 270.385602 
L 244.997301 271.038699 
L 244.997301 282.472823 
L 245.229862 275.465976 
L 245.229862 278.964477 
L 245.462423 279.59296 
L 245.462423 256.202071 
L 245.927544 274.858826 
L 245.927544 269.594665 
L 246.160104 270.778609 
L 246.160104 279.509272 
L 246.392665 280.405229 
L 246.392665 277.977447 
L 246.625225 260.015633 
L 246.625225 277.870785 
L 246.857786 258.236846 
L 247.090346 273.130087 
L 247.090346 260.630988 
L 247.322907 262.774887 
L 247.322907 268.720861 
L 247.555468 254.579173 
L 247.555468 256.694355 
L 247.788028 250.658949 
L 247.788028 265.807358 
L 248.020589 248.330444 
L 248.020589 253.158933 
L 248.253149 254.505331 
L 248.253149 244.931221 
L 248.48571 237.67413 
L 248.48571 247.129271 
L 248.71827 245.693441 
L 248.71827 252.381944 
L 248.950831 252.665008 
L 248.950831 247.244137 
L 249.183392 262.173479 
L 249.183392 251.915915 
L 249.415952 240.563018 
L 249.415952 254.585737 
L 249.648513 244.002445 
L 249.648513 234.355313 
L 249.881073 240.905976 
L 249.881073 249.671099 
L 250.113634 241.117659 
L 250.346194 246.26285 
L 250.346194 233.139371 
L 250.578755 259.797387 
L 250.578755 238.649673 
L 250.811315 265.242052 
L 250.811315 259.856461 
L 251.043876 237.342658 
L 251.043876 241.132427 
L 251.276437 239.944381 
L 251.276437 240.713165 
L 251.508997 246.103678 
L 251.508997 255.535025 
L 251.741558 242.213812 
L 251.741558 243.922859 
L 251.974118 247.87262 
L 251.974118 250.718023 
L 252.206679 251.653363 
L 252.206679 232.555193 
L 252.439239 242.255656 
L 252.439239 234.485768 
L 252.6718 250.742637 
L 252.6718 242.372163 
L 252.904361 250.907553 
L 252.904361 229.648254 
L 253.136921 238.094212 
L 253.136921 247.294186 
L 253.369482 236.129178 
L 253.369482 245.687698 
L 253.602042 251.655004 
L 253.602042 247.382797 
L 253.834603 246.60827 
L 253.834603 242.787323 
L 254.067163 269.63733 
L 254.067163 235.00841 
L 254.764845 253.319746 
L 254.764845 252.914432 
L 254.997406 240.093707 
L 254.997406 242.47062 
L 255.229966 263.164612 
L 255.229966 252.088215 
L 255.462527 246.015888 
L 255.462527 252.122675 
L 255.695087 244.346223 
L 255.695087 247.0423 
L 255.927648 259.707135 
L 255.927648 252.922637 
L 256.160208 251.565573 
L 256.160208 247.666681 
L 256.392769 226.38605 
L 256.392769 250.07149 
L 256.62533 236.126716 
L 256.62533 253.338617 
L 256.85789 251.471218 
L 256.85789 240.038735 
L 257.090451 252.162057 
L 257.090451 234.117376 
L 257.323011 258.202386 
L 257.323011 241.821625 
L 257.555572 246.563964 
L 257.555572 250.759867 
L 257.788132 238.567626 
L 257.788132 252.430352 
L 258.020693 249.363421 
L 258.020693 228.491386 
L 258.253253 251.252152 
L 258.253253 245.062497 
L 258.485814 234.434899 
L 258.485814 244.389708 
L 258.718375 240.622913 
L 258.718375 258.231102 
L 258.950935 249.207531 
L 258.950935 244.09762 
L 259.183496 238.101597 
L 259.183496 257.618208 
L 259.416056 262.102919 
L 259.648617 257.51729 
L 259.648617 250.606439 
L 260.346299 274.962205 
L 260.346299 267.391693 
L 260.578859 247.860313 
L 260.578859 258.178592 
L 260.81142 256.867475 
L 260.81142 253.34354 
L 261.04398 249.589051 
L 261.04398 254.726038 
L 261.276541 268.190835 
L 261.509101 250.447267 
L 261.741662 262.326087 
L 261.974222 244.930401 
L 261.974222 248.30583 
L 262.206783 266.750083 
L 262.206783 251.396555 
L 262.439344 241.437643 
L 262.439344 258.439503 
L 262.671904 240.279955 
L 262.904465 264.385477 
L 263.137025 253.706189 
L 263.137025 238.704645 
L 263.369586 255.438209 
L 263.369586 253.282825 
L 263.602146 247.154705 
L 263.602146 262.172659 
L 263.834707 259.648061 
L 263.834707 252.323691 
L 264.067268 272.001936 
L 264.067268 264.214818 
L 264.299828 263.739764 
L 264.299828 258.149055 
L 264.532389 258.355814 
L 264.532389 254.50369 
L 264.764949 244.209204 
L 264.764949 252.733928 
L 264.99751 255.007461 
L 264.99751 258.658569 
L 265.23007 258.043214 
L 265.23007 258.364019 
L 265.462631 252.937405 
L 265.462631 257.435243 
L 265.695191 252.057037 
L 265.695191 264.039237 
L 265.927752 258.785743 
L 265.927752 268.885776 
L 266.160313 245.737747 
L 266.160313 256.892089 
L 266.392873 259.556988 
L 266.625434 250.711459 
L 266.625434 258.881738 
L 266.857994 255.821371 
L 267.090555 252.761824 
L 267.090555 247.164551 
L 267.323115 235.656585 
L 267.555676 252.575576 
L 267.788237 251.407221 
L 267.788237 240.718088 
L 268.020797 245.807487 
L 268.020797 238.209899 
L 268.253358 248.015382 
L 268.253358 255.219963 
L 268.485918 257.523854 
L 268.485918 241.212013 
L 268.718479 254.700603 
L 268.718479 252.465633 
L 268.951039 254.386362 
L 268.951039 233.108193 
L 269.1836 267.703473 
L 269.1836 232.037474 
L 269.41616 243.684101 
L 269.648721 261.936362 
L 269.648721 253.758699 
L 269.881282 248.912981 
L 269.881282 239.166572 
L 270.113842 227.453487 
L 270.346403 230.830557 
L 270.346403 244.218229 
L 270.578963 237.110464 
L 270.578963 227.789061 
L 271.044084 242.503439 
L 271.044084 232.444429 
L 271.276645 226.775776 
L 271.276645 261.407157 
L 271.509206 242.043974 
L 271.509206 231.824972 
L 271.741766 233.857285 
L 271.741766 226.97433 
L 271.974327 226.895565 
L 271.974327 254.602147 
L 272.206887 243.35345 
L 272.206887 237.37958 
L 272.672008 251.796946 
L 272.672008 244.091876 
L 272.904569 231.82251 
L 272.904569 246.716572 
L 273.137129 235.356291 
L 273.137129 245.549038 
L 273.36969 241.62143 
L 273.36969 251.951195 
L 273.602251 246.36623 
L 273.602251 249.955803 
L 273.834811 260.366796 
L 273.834811 249.594795 
L 274.067372 240.25452 
L 274.067372 254.771985 
L 274.299932 249.013079 
L 274.299932 256.845322 
L 274.532493 259.593089 
L 274.532493 243.189355 
L 274.997614 270.370013 
L 274.997614 255.43985 
L 275.230175 271.408733 
L 275.462735 265.092725 
L 275.462735 248.707862 
L 275.927856 269.422366 
L 275.927856 255.678608 
L 276.160417 268.584662 
L 276.160417 265.537422 
L 276.392977 273.017682 
L 276.392977 255.465285 
L 276.625538 263.105538 
L 276.625538 271.09203 
L 276.858098 272.473708 
L 276.858098 279.342715 
L 277.090659 254.623479 
L 277.090659 260.434075 
L 277.32322 282.081457 
L 277.32322 261.584379 
L 277.55578 268.059559 
L 277.788341 268.58056 
L 277.788341 276.722122 
L 278.020901 271.752512 
L 278.020901 261.82888 
L 278.253462 280.587374 
L 278.253462 262.453261 
L 278.486022 273.416433 
L 278.486022 265.867253 
L 278.718583 249.723609 
L 278.718583 268.674094 
L 278.951144 269.470774 
L 278.951144 266.206108 
L 279.183704 267.335901 
L 279.183704 253.476456 
L 279.416265 267.353951 
L 279.416265 279.519938 
L 279.648825 260.16578 
L 279.648825 286.840205 
L 279.881386 263.472289 
L 279.881386 272.99635 
L 280.113946 270.227251 
L 280.113946 262.267013 
L 280.346507 273.984201 
L 280.346507 283.391754 
L 280.579067 278.389325 
L 280.579067 290.204148 
L 280.811628 278.095595 
L 281.044189 294.251546 
L 281.044189 289.117841 
L 281.276749 283.928344 
L 281.276749 293.052013 
L 281.50931 291.250253 
L 281.974431 265.89761 
L 282.206991 244.753999 
L 282.206991 271.229049 
L 282.439552 252.814334 
L 282.439552 243.735791 
L 282.672113 239.408612 
L 282.672113 236.778993 
L 282.904673 222.602845 
L 282.904673 227.218011 
L 283.137234 225.50158 
L 283.137234 222.095793 
L 283.369794 220.161936 
L 283.369794 215.920906 
L 283.602355 208.650687 
L 283.602355 204.299715 
L 283.834915 194.600893 
L 284.067476 200.870954 
L 284.067476 196.091694 
L 284.300036 197.587418 
L 284.300036 184.523833 
L 284.532597 187.923056 
L 284.532597 184.160363 
L 284.765158 175.577386 
L 284.765158 169.533776 
L 284.997718 176.162384 
L 284.997718 171.873767 
L 285.230279 158.58127 
L 285.230279 150.830253 
L 285.462839 159.53384 
L 285.462839 170.700489 
L 285.6954 183.659054 
L 285.6954 174.089046 
L 285.92796 177.140389 
L 285.92796 174.028331 
L 286.160521 168.771555 
L 286.160521 187.909108 
L 286.858203 220.129117 
L 287.090763 232.0826 
L 287.090763 224.229845 
L 287.323324 244.148489 
L 287.323324 254.731781 
L 287.555884 266.421073 
L 287.555884 280.278876 
L 287.788445 286.008245 
L 288.021005 271.786151 
L 288.021005 275.447105 
L 288.253566 244.198538 
L 288.253566 257.886503 
L 288.486127 241.31129 
L 288.486127 232.536322 
L 288.718687 232.32464 
L 288.718687 229.609692 
L 288.951248 208.063228 
L 288.951248 221.304856 
L 289.183808 219.105165 
L 289.183808 225.040473 
L 289.416369 215.954546 
L 289.416369 234.301162 
L 289.648929 200.335185 
L 289.648929 221.293369 
L 289.88149 205.536169 
L 289.88149 222.788273 
L 290.114051 211.565831 
L 290.114051 229.567848 
L 290.346611 209.776378 
L 290.346611 209.90109 
L 290.579172 217.341967 
L 290.579172 197.322405 
L 290.811732 210.443423 
L 290.811732 222.379677 
L 291.044293 217.844918 
L 291.044293 214.892853 
L 291.276853 204.989733 
L 291.276853 206.633142 
L 291.509414 202.922139 
L 291.741974 198.238874 
L 291.741974 212.228774 
L 291.974535 192.999328 
L 291.974535 198.21426 
L 292.207096 202.14433 
L 292.207096 189.216123 
L 292.672217 200.271188 
L 292.672217 194.518025 
L 292.904777 194.614021 
L 292.904777 194.547562 
L 293.137338 186.177088 
L 293.137338 203.054235 
L 293.369898 191.313254 
L 293.369898 197.879507 
L 293.602459 200.335185 
L 293.602459 189.074181 
L 293.83502 206.31726 
L 293.83502 206.28362 
L 294.06758 209.307067 
L 294.06758 217.404323 
L 294.300141 208.13625 
L 294.300141 224.421836 
L 294.532701 210.027443 
L 294.765262 208.124764 
L 294.765262 209.292298 
L 294.997822 223.218201 
L 294.997822 217.195102 
L 295.230383 229.970701 
L 295.230383 216.088283 
L 295.462943 216.79307 
L 295.462943 220.979948 
L 295.695504 221.423004 
L 295.695504 232.524015 
L 295.928065 231.235871 
L 295.928065 233.008095 
L 296.160625 233.966408 
L 296.160625 230.072439 
L 296.393186 243.031004 
L 296.393186 237.079286 
L 296.625746 242.542001 
L 296.625746 240.5663 
L 296.858307 241.669838 
L 296.858307 249.453673 
L 297.090867 263.126049 
L 297.090867 247.657656 
L 297.323428 248.222142 
L 297.323428 259.712878 
L 297.555989 267.344926 
L 297.555989 264.80638 
L 297.788549 260.622784 
L 297.788549 273.454995 
L 298.02111 274.076914 
L 298.02111 274.851441 
L 298.25367 276.807451 
L 298.25367 289.263885 
L 298.486231 288.650991 
L 298.486231 284.933424 
L 298.718791 279.389482 
L 298.718791 289.493618 
L 298.951352 295.488 
L 298.951352 295.488 
L 299.183912 289.125225 
L 299.183912 283.74948 
L 299.416473 284.645438 
L 299.416473 268.610917 
L 299.649034 283.516466 
L 299.649034 265.530038 
L 299.881594 266.613884 
L 299.881594 260.667089 
L 300.114155 255.987106 
L 300.114155 257.104592 
L 300.346715 276.126458 
L 300.346715 263.553516 
L 300.579276 252.729825 
L 300.579276 255.340573 
L 300.811836 255.343034 
L 300.811836 262.065997 
L 301.044397 247.891491 
L 301.044397 238.870381 
L 301.276958 241.514768 
L 301.276958 265.113237 
L 301.742079 259.211569 
L 301.742079 248.54869 
L 301.974639 253.308259 
L 301.974639 249.611204 
L 302.2072 247.161269 
L 302.2072 253.639731 
L 302.43976 253.409178 
L 302.43976 259.385509 
L 302.672321 246.90364 
L 302.904881 275.03933 
L 302.904881 244.701488 
L 303.137442 257.168589 
L 303.137442 273.694573 
L 303.370003 266.791927 
L 303.370003 260.348745 
L 303.835124 285.556984 
L 303.835124 269.986031 
L 304.067684 278.285945 
L 304.067684 291.669515 
L 304.300245 257.299865 
L 304.532805 272.918405 
L 304.532805 265.700696 
L 304.765366 277.266916 
L 304.765366 290.218917 
L 304.997927 293.399894 
L 304.997927 277.214406 
L 305.230487 290.764532 
L 305.230487 281.288879 
L 305.463048 287.390743 
L 305.463048 292.916635 
L 305.695608 283.580463 
L 305.695608 286.970661 
L 305.928169 288.016765 
L 305.928169 295.488 
L 306.160729 280.380615 
L 306.160729 281.94854 
L 306.39329 282.330881 
L 306.39329 286.288027 
L 306.62585 278.962015 
L 306.62585 281.887825 
L 306.858411 290.76125 
L 306.858411 285.905686 
L 307.090972 281.433283 
L 307.090972 291.098465 
L 307.323532 276.239683 
L 307.323532 285.674312 
L 307.556093 262.788835 
L 307.556093 277.785456 
L 307.788653 268.173605 
L 308.021214 281.276572 
L 308.253774 250.994523 
L 308.253774 256.753429 
L 308.486335 269.105663 
L 308.486335 268.602713 
L 308.718896 259.543861 
L 308.718896 267.664911 
L 308.951456 261.601609 
L 308.951456 254.447897 
L 309.184017 250.442344 
L 309.184017 237.626542 
L 309.416577 267.69855 
L 309.416577 238.153287 
L 309.649138 243.002287 
L 309.649138 251.59511 
L 309.881698 232.512529 
L 310.114259 229.375037 
L 310.114259 209.800171 
L 310.346819 232.1507 
L 310.346819 226.643679 
L 310.57938 224.918223 
L 310.57938 205.322025 
L 310.811941 246.200494 
L 310.811941 236.924217 
L 311.044501 235.346445 
L 311.044501 231.764257 
L 311.277062 231.066033 
L 311.277062 230.445755 
L 311.509622 231.961991 
L 311.509622 231.872559 
L 311.742183 247.26711 
L 311.742183 230.851069 
L 311.974743 228.254269 
L 311.974743 239.668702 
L 312.207304 224.119081 
L 312.207304 246.962714 
L 312.439865 252.930841 
L 312.439865 244.16818 
L 312.672425 254.855673 
L 312.672425 240.787008 
L 312.904986 257.91604 
L 312.904986 274.269725 
L 313.137546 283.31545 
L 313.137546 263.271273 
L 313.370107 259.714519 
L 313.370107 252.177646 
L 313.602667 263.847246 
L 313.835228 277.921655 
L 313.835228 269.002283 
L 314.067788 280.574247 
L 314.067788 276.745916 
L 314.300349 277.095437 
L 314.300349 282.683685 
L 314.53291 277.67141 
L 314.53291 284.64872 
L 314.76547 285.421606 
L 314.76547 277.552441 
L 314.998031 266.358716 
L 314.998031 267.540199 
L 315.230591 288.877442 
L 315.230591 279.764439 
L 315.463152 295.488 
L 315.463152 277.473676 
L 315.695712 270.315862 
L 315.695712 261.157733 
L 315.928273 288.980001 
L 316.160834 284.308223 
L 316.160834 288.880724 
L 316.393394 293.902024 
L 316.393394 281.014021 
L 316.625955 291.351991 
L 316.625955 281.110837 
L 316.858515 282.575382 
L 316.858515 295.059713 
L 317.091076 294.959615 
L 317.091076 289.500182 
L 317.323636 292.44076 
L 317.323636 286.585859 
L 317.556197 289.822628 
L 317.556197 292.165901 
L 317.788757 281.996948 
L 317.788757 286.055012 
L 318.021318 288.205474 
L 318.021318 294.852133 
L 318.253879 282.319395 
L 318.486439 293.471275 
L 318.486439 271.360325 
L 318.719 282.162684 
L 318.719 278.112825 
L 318.95156 277.423627 
L 318.95156 283.024182 
L 319.184121 272.403147 
L 319.184121 279.287744 
L 319.416681 280.439689 
L 319.416681 283.010234 
L 319.649242 265.023806 
L 319.649242 274.350952 
L 319.881803 277.744432 
L 319.881803 256.486775 
L 320.114363 260.055016 
L 320.114363 276.168302 
L 320.346924 278.171079 
L 320.346924 270.949268 
L 320.579484 267.476202 
L 320.579484 256.417855 
L 320.812045 259.027783 
L 320.812045 268.989156 
L 321.044605 264.09585 
L 321.044605 266.101908 
L 321.277166 267.260417 
L 321.277166 269.823578 
L 321.509726 260.560428 
L 321.509726 270.871323 
L 321.742287 263.025131 
L 321.742287 266.01904 
L 321.974848 263.795556 
L 321.974848 262.426185 
L 322.207408 270.809787 
L 322.207408 266.343127 
L 322.439969 252.769208 
L 322.439969 267.10863 
L 322.672529 252.230977 
L 322.672529 261.414541 
L 322.90509 272.37279 
L 322.90509 270.338015 
L 323.13765 263.323784 
L 323.13765 270.431549 
L 323.370211 265.886124 
L 323.370211 274.218036 
L 323.602772 273.763493 
L 323.602772 267.356413 
L 323.835332 274.855544 
L 323.835332 286.626882 
L 324.067893 265.016421 
L 324.067893 270.316682 
L 324.300453 266.643421 
L 324.300453 271.694258 
L 324.533014 272.802718 
L 324.533014 287.08963 
L 324.765574 264.639003 
L 324.765574 273.029169 
L 324.998135 280.064732 
L 325.230695 274.740677 
L 325.230695 282.434261 
L 325.463256 275.990259 
L 325.463256 278.592802 
L 325.695817 278.765922 
L 325.695817 280.023709 
L 325.928377 271.105158 
L 325.928377 291.19364 
L 326.160938 284.364015 
L 326.160938 290.195123 
L 326.393498 273.189982 
L 326.626059 283.831528 
L 326.626059 278.793818 
L 326.858619 287.067477 
L 327.09118 281.753268 
L 327.09118 273.837336 
L 327.323741 288.130811 
L 327.323741 283.994802 
L 327.556301 282.048638 
L 327.556301 289.148198 
L 327.788862 278.792177 
L 327.788862 293.547579 
L 328.021422 287.190548 
L 328.021422 288.655094 
L 328.253983 293.902024 
L 328.253983 280.915564 
L 328.486543 284.514983 
L 328.486543 284.190075 
L 328.719104 273.27285 
L 328.719104 283.870911 
L 328.951664 280.259185 
L 329.184225 275.588227 
L 329.184225 268.907108 
L 329.416786 268.350827 
L 329.416786 277.961037 
L 329.649346 249.198506 
L 329.649346 268.797165 
L 329.881907 255.064894 
L 329.881907 261.722219 
L 330.114467 260.345464 
L 330.114467 256.281657 
L 330.347028 254.26247 
L 330.347028 256.699278 
L 330.579588 251.355531 
L 330.812149 239.709725 
L 330.812149 248.915442 
L 331.04471 256.275913 
L 331.27727 252.082471 
L 331.27727 248.711965 
L 331.509831 252.766746 
L 331.509831 248.300087 
L 331.742391 253.862079 
L 331.742391 250.081336 
L 331.974952 244.059878 
L 331.974952 260.787699 
L 332.207512 257.375348 
L 332.207512 250.077233 
L 332.440073 263.115383 
L 332.440073 274.559353 
L 332.672633 267.670654 
L 332.672633 267.710857 
L 332.905194 294.388565 
L 333.137755 290.944216 
L 333.137755 282.417851 
L 333.370315 288.809343 
L 333.602876 278.498448 
L 333.602876 291.299481 
L 333.835436 284.23274 
L 333.835436 266.485069 
L 334.067997 282.559793 
L 334.067997 260.187933 
L 334.300557 255.843523 
L 334.300557 273.282695 
L 334.533118 251.648441 
L 334.533118 266.426816 
L 334.765679 246.801081 
L 334.998239 249.478287 
L 334.998239 244.788459 
L 335.2308 253.505173 
L 335.2308 252.706031 
L 335.46336 239.14606 
L 335.695921 252.073446 
L 335.695921 237.755357 
L 335.928481 241.547587 
L 335.928481 251.250511 
L 336.161042 239.075499 
L 336.393603 252.641214 
L 336.393603 240.945359 
L 336.626163 243.027722 
L 336.626163 242.508362 
L 336.858724 243.823581 
L 336.858724 243.324733 
L 337.091284 244.369197 
L 337.091284 238.204156 
L 337.323845 247.480433 
L 337.323845 241.509845 
L 337.556405 246.425304 
L 337.556405 235.294756 
L 337.788966 258.8842 
L 337.788966 248.157324 
L 338.021526 250.302863 
L 338.021526 240.415333 
L 338.254087 222.374754 
L 338.254087 230.97414 
L 338.486648 247.355721 
L 338.486648 244.606313 
L 338.719208 249.386394 
L 338.719208 258.139209 
L 338.951769 244.278124 
L 338.951769 250.773815 
L 339.184329 246.797799 
L 339.184329 254.667784 
L 339.41689 255.995311 
L 339.41689 258.007113 
L 339.64945 265.128826 
L 339.64945 260.196137 
L 339.882011 263.115383 
L 339.882011 265.475887 
L 340.347132 282.929007 
L 340.347132 273.191623 
L 340.579693 280.832696 
L 340.579693 289.819346 
L 340.812253 293.191494 
L 340.812253 281.32498 
L 341.044814 294.996536 
L 341.277374 292.343124 
L 341.277374 290.493776 
L 341.509935 288.21532 
L 341.509935 288.792113 
L 341.742495 287.623758 
L 341.742495 286.755697 
L 341.975056 283.727328 
L 341.975056 279.806283 
L 342.207617 280.720291 
L 342.207617 282.359598 
L 342.440177 285.918813 
L 342.440177 279.771823 
L 342.672738 279.112983 
L 342.672738 280.032734 
L 342.905298 280.610347 
L 342.905298 279.602806 
L 343.137859 278.430348 
L 343.137859 280.279697 
L 343.60298 277.124975 
L 343.60298 277.860119 
L 343.835541 278.495166 
L 343.835541 278.896378 
L 344.068101 278.505012 
L 344.068101 279.50681 
L 344.300662 276.932163 
L 344.300662 278.112005 
L 344.533222 277.595106 
L 344.533222 277.764124 
L 344.765783 278.65762 
L 344.765783 278.635467 
L 344.998343 276.098562 
L 344.998343 276.215889 
L 345.230904 276.383266 
L 345.696025 274.148295 
L 345.696025 274.373926 
L 345.928586 275.438901 
L 345.928586 276.111689 
L 346.161146 272.25136 
L 346.161146 274.616786 
L 346.393707 274.299263 
L 346.393707 272.344894 
L 346.626267 274.269725 
L 346.626267 275.594791 
L 346.858828 269.710352 
L 347.091388 275.594791 
L 347.091388 274.201626 
L 347.323949 272.478631 
L 347.323949 271.349659 
L 347.55651 272.177517 
L 347.55651 273.551811 
L 347.78907 272.243975 
L 347.78907 272.821589 
L 348.021631 270.237917 
L 348.021631 276.970725 
L 348.254191 274.041634 
L 348.254191 277.58526 
L 348.486752 271.255304 
L 348.486752 277.250507 
L 348.719312 277.240661 
L 348.719312 275.814678 
L 348.951873 279.271334 
L 348.951873 276.381625 
L 349.184433 284.167102 
L 349.184433 276.83945 
L 349.416994 283.975111 
L 349.416994 281.206832 
L 349.649555 279.867819 
L 349.649555 284.080952 
L 349.882115 285.963939 
L 349.882115 285.665287 
L 350.114676 283.060282 
L 350.114676 285.332995 
L 350.347236 291.322454 
L 350.347236 288.846264 
L 350.579797 283.702713 
L 350.579797 286.480838 
L 350.812357 289.812782 
L 351.044918 294.43123 
L 351.044918 286.602268 
L 351.277479 293.233338 
L 351.510039 291.393835 
L 351.510039 288.427002 
L 351.7426 291.018058 
L 351.7426 285.407658 
L 351.97516 284.999062 
L 351.97516 288.790472 
L 352.207721 278.477936 
L 352.207721 284.316428 
L 352.440281 278.602648 
L 352.672842 267.724805 
L 352.672842 276.885396 
L 353.370524 252.862742 
L 353.370524 260.653141 
L 353.603084 239.505427 
L 353.603084 244.002445 
L 353.835645 237.763561 
L 354.068205 221.441054 
L 354.068205 233.820364 
L 354.300766 223.344554 
L 354.300766 223.804019 
L 354.533326 218.622727 
L 354.533326 219.471097 
L 354.765887 207.077019 
L 354.998448 205.167776 
L 354.998448 205.717493 
L 355.231008 200.958745 
L 355.463569 189.28012 
L 355.463569 191.58237 
L 355.92869 179.260493 
L 355.92869 175.702098 
L 356.16125 173.111042 
L 356.16125 174.838139 
L 356.393811 165.859694 
L 356.393811 170.423169 
L 356.626371 161.644919 
L 356.626371 164.211362 
L 356.858932 160.84906 
L 356.858932 162.469496 
L 357.324053 147.444978 
L 357.324053 147.610714 
L 357.556614 152.499097 
L 357.556614 144.967147 
L 357.789174 143.825048 
L 357.789174 149.76856 
L 358.021735 151.198646 
L 358.021735 141.103536 
L 358.254295 140.1403 
L 358.254295 140.859855 
L 358.486856 145.350309 
L 358.486856 143.692131 
L 358.951977 136.166745 
L 358.951977 129.588185 
L 359.184538 145.321592 
L 359.184538 132.117706 
L 359.417098 115.577774 
L 359.417098 120.998644 
L 359.649659 137.505758 
L 359.882219 133.171195 
L 359.882219 145.451227 
L 360.11478 114.153431 
L 360.11478 127.922623 
L 360.34734 123.41494 
L 360.34734 124.542271 
L 360.579901 109.278175 
L 360.579901 117.99489 
L 360.812462 108.620155 
L 360.812462 132.912745 
L 361.045022 132.249802 
L 361.045022 125.438228 
L 361.277583 116.845406 
L 361.277583 107.9367 
L 361.510143 118.228725 
L 361.510143 124.416738 
L 361.742704 109.090287 
L 361.975264 109.244536 
L 361.975264 112.376285 
L 362.207825 128.096564 
L 362.672946 101.092307 
L 362.672946 110.309511 
L 362.905507 97.92774 
L 362.905507 117.184261 
L 363.138067 112.989999 
L 363.138067 136.43504 
L 363.370628 130.280665 
L 363.370628 116.810125 
L 363.603188 94.096127 
L 363.603188 120.493232 
L 363.835749 136.211871 
L 363.835749 107.896497 
L 364.068309 109.644107 
L 364.068309 117.751209 
L 364.30087 104.736852 
L 364.30087 106.981669 
L 364.533431 104.337282 
L 364.765991 123.474014 
L 364.765991 110.330023 
L 365.231112 145.377384 
L 365.463673 145.810594 
L 365.463673 151.820565 
L 365.696233 141.88955 
L 365.696233 153.381107 
L 366.161355 175.915421 
L 366.161355 174.522257 
L 366.393915 175.986803 
L 366.393915 181.078663 
L 366.626476 189.001159 
L 366.859036 216.70692 
L 366.859036 205.81513 
L 367.091597 201.039972 
L 367.091597 212.236158 
L 367.324157 216.23925 
L 367.324157 210.769151 
L 367.556718 218.744977 
L 367.556718 225.282513 
L 367.789278 213.949308 
L 367.789278 226.674037 
L 368.021839 243.203303 
L 368.021839 240.357079 
L 368.2544 238.083546 
L 368.2544 245.057574 
L 368.48696 251.046213 
L 368.48696 235.710736 
L 368.719521 254.249343 
L 368.952081 260.11491 
L 368.952081 250.76397 
L 369.184642 271.635184 
L 369.184642 263.463264 
L 369.417202 263.618334 
L 369.417202 270.259249 
L 369.649763 269.163917 
L 369.649763 266.744339 
L 370.114884 290.750584 
L 370.114884 274.50192 
L 370.347445 274.878517 
L 370.347445 281.401284 
L 370.580005 276.986314 
L 370.580005 279.642188 
L 370.812566 281.882902 
L 370.812566 292.231539 
L 371.045126 281.336467 
L 371.045126 268.952234 
L 371.277687 282.611483 
L 371.277687 282.486771 
L 371.510247 264.37317 
L 371.510247 275.050817 
L 371.742808 283.779018 
L 371.742808 278.427067 
L 371.975369 271.07398 
L 371.975369 294.533789 
L 372.207929 273.746263 
L 372.207929 278.873404 
L 372.44049 284.003007 
L 372.44049 283.784761 
L 372.67305 280.669422 
L 372.67305 294.256469 
L 372.905611 276.533413 
L 372.905611 278.10462 
L 373.138171 289.864472 
L 373.138171 277.837146 
L 373.370732 279.603626 
L 373.370732 279.596242 
L 373.603293 291.580083 
L 373.603293 280.253441 
L 373.835853 273.843079 
L 373.835853 279.504349 
L 374.068414 284.241765 
L 374.068414 279.849768 
L 374.300974 275.722785 
L 374.300974 280.387179 
L 374.533535 275.502898 
L 374.533535 279.282 
L 374.766095 281.302827 
L 374.766095 278.084929 
L 374.998656 280.312515 
L 374.998656 282.629534 
L 375.231216 275.389672 
L 375.231216 278.116927 
L 375.463777 276.076409 
L 375.463777 274.149936 
L 375.696338 269.25663 
L 375.696338 264.556956 
L 375.928898 268.259754 
L 375.928898 264.018725 
L 376.161459 262.172659 
L 376.161459 263.249941 
L 376.394019 261.795241 
L 376.394019 260.977228 
L 376.62658 256.51221 
L 376.62658 260.14937 
L 376.85914 260.492328 
L 376.85914 250.549006 
L 377.091701 251.216871 
L 377.091701 251.833047 
L 377.324262 244.249407 
L 377.324262 249.452853 
L 377.556822 249.853244 
L 377.556822 245.259411 
L 377.789383 244.646517 
L 377.789383 255.443132 
L 378.254504 247.47387 
L 378.254504 249.037693 
L 378.487064 254.638247 
L 378.487064 254.624299 
L 378.719625 257.344991 
L 378.952185 266.323436 
L 379.184746 270.377397 
L 379.649867 287.796878 
L 379.882428 293.287489 
L 379.882428 292.243026 
L 380.114988 288.473769 
L 380.347549 274.061325 
L 380.580109 270.702305 
L 380.580109 271.360325 
L 380.81267 261.934721 
L 380.81267 262.05287 
L 381.045231 263.696279 
L 381.045231 259.452788 
L 381.277791 250.828787 
L 381.277791 257.837275 
L 381.510352 254.838443 
L 381.510352 251.888839 
L 381.742912 245.572011 
L 381.742912 249.310911 
L 381.975473 243.638154 
L 381.975473 247.125989 
L 382.208033 246.76416 
L 382.208033 246.213622 
L 382.440594 248.108916 
L 382.440594 242.763529 
L 382.673154 247.153064 
L 382.673154 236.292452 
L 382.905715 243.09418 
L 383.138276 240.247956 
L 383.138276 244.792561 
L 383.370836 242.993262 
L 383.370836 239.4923 
L 383.603397 241.346571 
L 383.603397 238.140159 
L 383.835957 235.618843 
L 383.835957 231.039778 
L 384.301078 247.14486 
L 384.301078 235.848575 
L 384.99876 249.531618 
L 384.99876 247.272854 
L 385.231321 256.659895 
L 385.231321 250.143692 
L 385.463881 262.536949 
L 385.463881 262.317883 
L 385.696442 267.353131 
L 385.696442 266.854283 
L 385.929002 275.396236 
L 385.929002 273.842259 
L 386.161563 275.251833 
L 386.161563 275.00405 
L 386.626684 292.489168 
L 386.859245 293.632088 
L 386.859245 295.198373 
L 387.091805 287.916667 
L 387.324366 279.152365 
L 387.324366 282.596715 
L 387.556926 276.80581 
L 387.789487 275.484027 
L 387.789487 272.758413 
L 388.022047 269.055614 
L 388.254608 268.160477 
L 388.254608 263.114563 
L 388.487169 262.506592 
L 388.487169 257.991524 
L 388.719729 258.700413 
L 388.719729 257.864351 
L 388.95229 261.479358 
L 388.95229 257.390937 
L 389.18485 268.522306 
L 389.18485 259.535656 
L 389.417411 264.502805 
L 389.649971 260.838568 
L 389.649971 265.617008 
L 389.882532 270.569388 
L 389.882532 267.946333 
L 390.115092 275.327316 
L 390.115092 269.263194 
L 390.347653 276.903447 
L 390.347653 274.079376 
L 390.580214 270.660461 
L 390.580214 283.66169 
L 390.812774 282.230783 
L 390.812774 285.777692 
L 391.045335 288.827393 
L 391.045335 282.375187 
L 391.277895 290.703817 
L 391.510456 286.474274 
L 391.510456 288.150502 
L 391.743016 285.486424 
L 391.743016 280.353539 
L 391.975577 282.993004 
L 391.975577 280.602963 
L 392.208138 277.763303 
L 392.440698 273.230185 
L 392.440698 266.767312 
L 392.673259 267.384309 
L 392.673259 263.475571 
L 392.905819 258.597034 
L 392.905819 264.779304 
L 393.13838 253.774288 
L 393.13838 259.176288 
L 393.37094 256.036335 
L 393.37094 249.747403 
L 393.603501 241.836394 
L 393.603501 251.754282 
L 393.836061 250.794327 
L 393.836061 238.022011 
L 394.068622 243.879374 
L 394.068622 251.95858 
L 394.301183 246.187367 
L 394.533743 248.689812 
L 394.533743 238.461785 
L 394.766304 244.757281 
L 394.766304 250.229841 
L 394.998864 247.800418 
L 394.998864 250.438242 
L 395.231425 251.116774 
L 395.231425 249.897549 
L 395.463985 248.757091 
L 395.463985 252.298256 
L 395.696546 251.415426 
L 395.696546 256.110177 
L 395.929107 257.642002 
L 395.929107 260.816416 
L 396.161667 255.744246 
L 396.161667 264.150821 
L 396.394228 272.042959 
L 396.394228 266.211852 
L 396.859349 288.652632 
L 396.859349 276.652382 
L 397.091909 294.084169 
L 397.091909 289.731555 
L 397.32447 293.018374 
L 397.32447 292.78618 
L 397.55703 284.408321 
L 397.55703 277.875708 
L 397.789591 277.735407 
L 397.789591 277.527007 
L 398.022152 258.928505 
L 398.022152 260.180548 
L 398.254712 246.864258 
L 398.487273 217.241049 
L 398.487273 217.241049 
" clip-path="url(#pbf80a1d5a8)" style="fill: none; stroke: #1f77b4; stroke-width: 1.5; stroke-linecap: square"/>
   </g>
   <g id="patch_3">
    <path d="M 57.6 307.584 
L 57.6 41.472 
" style="fill: none; stroke: #000000; stroke-width: 0.8; stroke-linejoin: miter; stroke-linecap: square"/>
   </g>
   <g id="patch_4">
    <path d="M 414.72 307.584 
L 414.72 41.472 
" style="fill: none; stroke: #000000; stroke-width: 0.8; stroke-linejoin: miter; stroke-linecap: square"/>
   </g>
   <g id="patch_5">
    <path d="M 57.6 307.584 
L 414.72 307.584 
" style="fill: none; stroke: #000000; stroke-width: 0.8; stroke-linejoin: miter; stroke-linecap: square"/>
   </g>
   <g id="patch_6">
    <path d="M 57.6 41.472 
L 414.72 41.472 
" style="fill: none; stroke: #000000; stroke-width: 0.8; stroke-linejoin: miter; stroke-linecap: square"/>
   </g>
   <g id="text_16">
    <!-- Tracking error vs Time -->
    <g transform="translate(169.584375 35.472) scale(0.12 -0.12)">
     <defs>
      <path id="DejaVuSans-76" d="M 191 3500 
L 800 3500 
L 1894 563 
L 2988 3500 
L 3597 3500 
L 2284 0 
L 1503 0 
L 191 3500 
z
" transform="scale(0.015625)"/>
     </defs>
     <use xlink:href="#DejaVuSans-54"/>
     <use xlink:href="#DejaVuSans-72" x="46.333984"/>
     <use xlink:href="#DejaVuSans-61" x="87.447266"/>
     <use xlink:href="#DejaVuSans-63" x="148.726562"/>
     <use xlink:href="#DejaVuSans-6b" x="203.707031"/>
     <use xlink:href="#DejaVuSans-69" x="261.617188"/>
     <use xlink:href="#DejaVuSans-6e" x="289.400391"/>
     <use xlink:href="#DejaVuSans-67" x="352.779297"/>
     <use xlink:href="#DejaVuSans-20" x="416.255859"/>
     <use xlink:href="#DejaVuSans-65" x="448.042969"/>
     <use xlink:href="#DejaVuSans-72" x="509.566406"/>
     <use xlink:href="#DejaVuSans-72" x="548.929688"/>
     <use xlink:href="#DejaVuSans-6f" x="587.792969"/>
     <use xlink:href="#DejaVuSans-72" x="648.974609"/>
     <use xlink:href="#DejaVuSans-20" x="690.087891"/>
     <use xlink:href="#DejaVuSans-76" x="721.875"/>
     <use xlink:href="#DejaVuSans-73" x="781.054688"/>
     <use xlink:href="#DejaVuSans-20" x="833.154297"/>
     <use xlink:href="#DejaVuSans-54" x="864.941406"/>
     <use xlink:href="#DejaVuSans-69" x="922.900391"/>
     <use xlink:href="#DejaVuSans-6d" x="950.683594"/>
     <use xlink:href="#DejaVuSans-65" x="1048.095703"/>
    </g>
   </g>
   <g id="legend_1">
    <g id="patch_7">
     <path d="M 311.00125 64.150125 
L 407.72 64.150125 
Q 409.72 64.150125 409.72 62.150125 
L 409.72 48.472 
Q 409.72 46.472 407.72 46.472 
L 311.00125 46.472 
Q 309.00125 46.472 309.00125 48.472 
L 309.00125 62.150125 
Q 309.00125 64.150125 311.00125 64.150125 
z
" style="fill: #ffffff; opacity: 0.8; stroke: #cccccc; stroke-linejoin: miter"/>
    </g>
    <g id="line2d_28">
     <path d="M 313.00125 54.570438 
L 323.00125 54.570438 
L 333.00125 54.570438 
" style="fill: none; stroke: #1f77b4; stroke-width: 1.5; stroke-linecap: square"/>
    </g>
    <g id="text_17">
     <!-- Actual speed -->
     <g transform="translate(341.00125 58.070438) scale(0.1 -0.1)">
      <defs>
       <path id="DejaVuSans-41" d="M 2188 4044 
L 1331 1722 
L 3047 1722 
L 2188 4044 
z
M 1831 4666 
L 2547 4666 
L 4325 0 
L 3669 0 
L 3244 1197 
L 1141 1197 
L 716 0 
L 50 0 
L 1831 4666 
z
" transform="scale(0.015625)"/>
       <path id="DejaVuSans-74" d="M 1172 4494 
L 1172 3500 
L 2356 3500 
L 2356 3053 
L 1172 3053 
L 1172 1153 
Q 1172 725 1289 603 
Q 1406 481 1766 481 
L 2356 481 
L 2356 0 
L 1766 0 
Q 1100 0 847 248 
Q 594 497 594 1153 
L 594 3053 
L 172 3053 
L 172 3500 
L 594 3500 
L 594 4494 
L 1172 4494 
z
" transform="scale(0.015625)"/>
       <path id="DejaVuSans-75" d="M 544 1381 
L 544 3500 
L 1119 3500 
L 1119 1403 
Q 1119 906 1312 657 
Q 1506 409 1894 409 
Q 2359 409 2629 706 
Q 2900 1003 2900 1516 
L 2900 3500 
L 3475 3500 
L 3475 0 
L 2900 0 
L 2900 538 
Q 2691 219 2414 64 
Q 2138 -91 1772 -91 
Q 1169 -91 856 284 
Q 544 659 544 1381 
z
M 1991 3584 
L 1991 3584 
z
" transform="scale(0.015625)"/>
       <path id="DejaVuSans-6c" d="M 603 4863 
L 1178 4863 
L 1178 0 
L 603 0 
L 603 4863 
z
" transform="scale(0.015625)"/>
       <path id="DejaVuSans-70" d="M 1159 525 
L 1159 -1331 
L 581 -1331 
L 581 3500 
L 1159 3500 
L 1159 2969 
Q 1341 3281 1617 3432 
Q 1894 3584 2278 3584 
Q 2916 3584 3314 3078 
Q 3713 2572 3713 1747 
Q 3713 922 3314 415 
Q 2916 -91 2278 -91 
Q 1894 -91 1617 61 
Q 1341 213 1159 525 
z
M 3116 1747 
Q 3116 2381 2855 2742 
Q 2594 3103 2138 3103 
Q 1681 3103 1420 2742 
Q 1159 2381 1159 1747 
Q 1159 1113 1420 752 
Q 1681 391 2138 391 
Q 2594 391 2855 752 
Q 3116 1113 3116 1747 
z
" transform="scale(0.015625)"/>
       <path id="DejaVuSans-64" d="M 2906 2969 
L 2906 4863 
L 3481 4863 
L 3481 0 
L 2906 0 
L 2906 525 
Q 2725 213 2448 61 
Q 2172 -91 1784 -91 
Q 1150 -91 751 415 
Q 353 922 353 1747 
Q 353 2572 751 3078 
Q 1150 3584 1784 3584 
Q 2172 3584 2448 3432 
Q 2725 3281 2906 2969 
z
M 947 1747 
Q 947 1113 1208 752 
Q 1469 391 1925 391 
Q 2381 391 2643 752 
Q 2906 1113 2906 1747 
Q 2906 2381 2643 2742 
Q 2381 3103 1925 3103 
Q 1469 3103 1208 2742 
Q 947 2381 947 1747 
z
" transform="scale(0.015625)"/>
      </defs>
      <use xlink:href="#DejaVuSans-41"/>
      <use xlink:href="#DejaVuSans-63" x="66.658203"/>
      <use xlink:href="#DejaVuSans-74" x="121.638672"/>
      <use xlink:href="#DejaVuSans-75" x="160.847656"/>
      <use xlink:href="#DejaVuSans-61" x="224.226562"/>
      <use xlink:href="#DejaVuSans-6c" x="285.505859"/>
      <use xlink:href="#DejaVuSans-20" x="313.289062"/>
      <use xlink:href="#DejaVuSans-73" x="345.076172"/>
      <use xlink:href="#DejaVuSans-70" x="397.175781"/>
      <use xlink:href="#DejaVuSans-65" x="460.652344"/>
      <use xlink:href="#DejaVuSans-65" x="522.175781"/>
      <use xlink:href="#DejaVuSans-64" x="583.699219"/>
     </g>
    </g>
   </g>
  </g>
 </g>
 <defs>
  <clipPath id="pbf80a1d5a8">
   <rect x="57.6" y="41.472" width="357.12" height="266.112"/>
  </clipPath>
 </defs>
</svg>
