<?xml version="1.0" encoding="utf-8" standalone="no"?>
<!DOCTYPE svg PUBLIC "-//W3C//DTD SVG 1.1//EN"
  "http://www.w3.org/Graphics/SVG/1.1/DTD/svg11.dtd">
<svg xmlns:xlink="http://www.w3.org/1999/xlink" width="460.8pt" height="345.6pt" viewBox="0 0 460.8 345.6" xmlns="http://www.w3.org/2000/svg" version="1.1">
 <metadata>
  <rdf:RDF xmlns:dc="http://purl.org/dc/elements/1.1/" xmlns:cc="http://creativecommons.org/ns#" xmlns:rdf="http://www.w3.org/1999/02/22-rdf-syntax-ns#">
   <cc:Work>
    <dc:type rdf:resource="http://purl.org/dc/dcmitype/StillImage"/>
    <dc:date>2024-01-30T20:58:31.517807</dc:date>
    <dc:format>image/svg+xml</dc:format>
    <dc:creator>
     <cc:Agent>
      <dc:title>Matplotlib v3.7.1, https://matplotlib.org/</dc:title>
     </cc:Agent>
    </dc:creator>
   </cc:Work>
  </rdf:RDF>
 </metadata>
 <defs>
  <style type="text/css">*{stroke-linejoin: round; stroke-linecap: butt}</style>
 </defs>
 <g id="figure_1">
  <g id="patch_1">
   <path d="M 0 345.6 
L 460.8 345.6 
L 460.8 0 
L 0 0 
z
" style="fill: #ffffff"/>
  </g>
  <g id="axes_1">
   <g id="patch_2">
    <path d="M 57.6 307.584 
L 414.72 307.584 
L 414.72 41.472 
L 57.6 41.472 
z
" style="fill: #ffffff"/>
   </g>
   <g id="matplotlib.axis_1">
    <g id="xtick_1">
     <g id="line2d_1">
      <path d="M 73.832727 307.584 
L 73.832727 41.472 
" clip-path="url(#p1e393fbbb4)" style="fill: none; stroke: #b0b0b0; stroke-width: 0.8; stroke-linecap: square"/>
     </g>
     <g id="line2d_2">
      <defs>
       <path id="mce52687bc7" d="M 0 0 
L 0 3.5 
" style="stroke: #000000; stroke-width: 0.8"/>
      </defs>
      <g>
       <use xlink:href="#mce52687bc7" x="73.832727" y="307.584" style="stroke: #000000; stroke-width: 0.8"/>
      </g>
     </g>
     <g id="text_1">
      <!-- 0 -->
      <g transform="translate(70.651477 322.182437) scale(0.1 -0.1)">
       <defs>
        <path id="DejaVuSans-30" d="M 2034 4250 
Q 1547 4250 1301 3770 
Q 1056 3291 1056 2328 
Q 1056 1369 1301 889 
Q 1547 409 2034 409 
Q 2525 409 2770 889 
Q 3016 1369 3016 2328 
Q 3016 3291 2770 3770 
Q 2525 4250 2034 4250 
z
M 2034 4750 
Q 2819 4750 3233 4129 
Q 3647 3509 3647 2328 
Q 3647 1150 3233 529 
Q 2819 -91 2034 -91 
Q 1250 -91 836 529 
Q 422 1150 422 2328 
Q 422 3509 836 4129 
Q 1250 4750 2034 4750 
z
" transform="scale(0.015625)"/>
       </defs>
       <use xlink:href="#DejaVuSans-30"/>
      </g>
     </g>
    </g>
    <g id="xtick_2">
     <g id="line2d_3">
      <path d="M 125.29984 307.584 
L 125.29984 41.472 
" clip-path="url(#p1e393fbbb4)" style="fill: none; stroke: #b0b0b0; stroke-width: 0.8; stroke-linecap: square"/>
     </g>
     <g id="line2d_4">
      <g>
       <use xlink:href="#mce52687bc7" x="125.29984" y="307.584" style="stroke: #000000; stroke-width: 0.8"/>
      </g>
     </g>
     <g id="text_2">
      <!-- 5 -->
      <g transform="translate(122.11859 322.182437) scale(0.1 -0.1)">
       <defs>
        <path id="DejaVuSans-35" d="M 691 4666 
L 3169 4666 
L 3169 4134 
L 1269 4134 
L 1269 2991 
Q 1406 3038 1543 3061 
Q 1681 3084 1819 3084 
Q 2600 3084 3056 2656 
Q 3513 2228 3513 1497 
Q 3513 744 3044 326 
Q 2575 -91 1722 -91 
Q 1428 -91 1123 -41 
Q 819 9 494 109 
L 494 744 
Q 775 591 1075 516 
Q 1375 441 1709 441 
Q 2250 441 2565 725 
Q 2881 1009 2881 1497 
Q 2881 1984 2565 2268 
Q 2250 2553 1709 2553 
Q 1456 2553 1204 2497 
Q 953 2441 691 2322 
L 691 4666 
z
" transform="scale(0.015625)"/>
       </defs>
       <use xlink:href="#DejaVuSans-35"/>
      </g>
     </g>
    </g>
    <g id="xtick_3">
     <g id="line2d_5">
      <path d="M 176.766952 307.584 
L 176.766952 41.472 
" clip-path="url(#p1e393fbbb4)" style="fill: none; stroke: #b0b0b0; stroke-width: 0.8; stroke-linecap: square"/>
     </g>
     <g id="line2d_6">
      <g>
       <use xlink:href="#mce52687bc7" x="176.766952" y="307.584" style="stroke: #000000; stroke-width: 0.8"/>
      </g>
     </g>
     <g id="text_3">
      <!-- 10 -->
      <g transform="translate(170.404452 322.182437) scale(0.1 -0.1)">
       <defs>
        <path id="DejaVuSans-31" d="M 794 531 
L 1825 531 
L 1825 4091 
L 703 3866 
L 703 4441 
L 1819 4666 
L 2450 4666 
L 2450 531 
L 3481 531 
L 3481 0 
L 794 0 
L 794 531 
z
" transform="scale(0.015625)"/>
       </defs>
       <use xlink:href="#DejaVuSans-31"/>
       <use xlink:href="#DejaVuSans-30" x="63.623047"/>
      </g>
     </g>
    </g>
    <g id="xtick_4">
     <g id="line2d_7">
      <path d="M 228.234065 307.584 
L 228.234065 41.472 
" clip-path="url(#p1e393fbbb4)" style="fill: none; stroke: #b0b0b0; stroke-width: 0.8; stroke-linecap: square"/>
     </g>
     <g id="line2d_8">
      <g>
       <use xlink:href="#mce52687bc7" x="228.234065" y="307.584" style="stroke: #000000; stroke-width: 0.8"/>
      </g>
     </g>
     <g id="text_4">
      <!-- 15 -->
      <g transform="translate(221.871565 322.182437) scale(0.1 -0.1)">
       <use xlink:href="#DejaVuSans-31"/>
       <use xlink:href="#DejaVuSans-35" x="63.623047"/>
      </g>
     </g>
    </g>
    <g id="xtick_5">
     <g id="line2d_9">
      <path d="M 279.701177 307.584 
L 279.701177 41.472 
" clip-path="url(#p1e393fbbb4)" style="fill: none; stroke: #b0b0b0; stroke-width: 0.8; stroke-linecap: square"/>
     </g>
     <g id="line2d_10">
      <g>
       <use xlink:href="#mce52687bc7" x="279.701177" y="307.584" style="stroke: #000000; stroke-width: 0.8"/>
      </g>
     </g>
     <g id="text_5">
      <!-- 20 -->
      <g transform="translate(273.338677 322.182437) scale(0.1 -0.1)">
       <defs>
        <path id="DejaVuSans-32" d="M 1228 531 
L 3431 531 
L 3431 0 
L 469 0 
L 469 531 
Q 828 903 1448 1529 
Q 2069 2156 2228 2338 
Q 2531 2678 2651 2914 
Q 2772 3150 2772 3378 
Q 2772 3750 2511 3984 
Q 2250 4219 1831 4219 
Q 1534 4219 1204 4116 
Q 875 4013 500 3803 
L 500 4441 
Q 881 4594 1212 4672 
Q 1544 4750 1819 4750 
Q 2544 4750 2975 4387 
Q 3406 4025 3406 3419 
Q 3406 3131 3298 2873 
Q 3191 2616 2906 2266 
Q 2828 2175 2409 1742 
Q 1991 1309 1228 531 
z
" transform="scale(0.015625)"/>
       </defs>
       <use xlink:href="#DejaVuSans-32"/>
       <use xlink:href="#DejaVuSans-30" x="63.623047"/>
      </g>
     </g>
    </g>
    <g id="xtick_6">
     <g id="line2d_11">
      <path d="M 331.16829 307.584 
L 331.16829 41.472 
" clip-path="url(#p1e393fbbb4)" style="fill: none; stroke: #b0b0b0; stroke-width: 0.8; stroke-linecap: square"/>
     </g>
     <g id="line2d_12">
      <g>
       <use xlink:href="#mce52687bc7" x="331.16829" y="307.584" style="stroke: #000000; stroke-width: 0.8"/>
      </g>
     </g>
     <g id="text_6">
      <!-- 25 -->
      <g transform="translate(324.80579 322.182437) scale(0.1 -0.1)">
       <use xlink:href="#DejaVuSans-32"/>
       <use xlink:href="#DejaVuSans-35" x="63.623047"/>
      </g>
     </g>
    </g>
    <g id="xtick_7">
     <g id="line2d_13">
      <path d="M 382.635402 307.584 
L 382.635402 41.472 
" clip-path="url(#p1e393fbbb4)" style="fill: none; stroke: #b0b0b0; stroke-width: 0.8; stroke-linecap: square"/>
     </g>
     <g id="line2d_14">
      <g>
       <use xlink:href="#mce52687bc7" x="382.635402" y="307.584" style="stroke: #000000; stroke-width: 0.8"/>
      </g>
     </g>
     <g id="text_7">
      <!-- 30 -->
      <g transform="translate(376.272902 322.182437) scale(0.1 -0.1)">
       <defs>
        <path id="DejaVuSans-33" d="M 2597 2516 
Q 3050 2419 3304 2112 
Q 3559 1806 3559 1356 
Q 3559 666 3084 287 
Q 2609 -91 1734 -91 
Q 1441 -91 1130 -33 
Q 819 25 488 141 
L 488 750 
Q 750 597 1062 519 
Q 1375 441 1716 441 
Q 2309 441 2620 675 
Q 2931 909 2931 1356 
Q 2931 1769 2642 2001 
Q 2353 2234 1838 2234 
L 1294 2234 
L 1294 2753 
L 1863 2753 
Q 2328 2753 2575 2939 
Q 2822 3125 2822 3475 
Q 2822 3834 2567 4026 
Q 2313 4219 1838 4219 
Q 1578 4219 1281 4162 
Q 984 4106 628 3988 
L 628 4550 
Q 988 4650 1302 4700 
Q 1616 4750 1894 4750 
Q 2613 4750 3031 4423 
Q 3450 4097 3450 3541 
Q 3450 3153 3228 2886 
Q 3006 2619 2597 2516 
z
" transform="scale(0.015625)"/>
       </defs>
       <use xlink:href="#DejaVuSans-33"/>
       <use xlink:href="#DejaVuSans-30" x="63.623047"/>
      </g>
     </g>
    </g>
    <g id="text_8">
     <!-- Time(s) -->
     <g transform="translate(217.420156 335.860562) scale(0.1 -0.1)">
      <defs>
       <path id="DejaVuSans-54" d="M -19 4666 
L 3928 4666 
L 3928 4134 
L 2272 4134 
L 2272 0 
L 1638 0 
L 1638 4134 
L -19 4134 
L -19 4666 
z
" transform="scale(0.015625)"/>
       <path id="DejaVuSans-69" d="M 603 3500 
L 1178 3500 
L 1178 0 
L 603 0 
L 603 3500 
z
M 603 4863 
L 1178 4863 
L 1178 4134 
L 603 4134 
L 603 4863 
z
" transform="scale(0.015625)"/>
       <path id="DejaVuSans-6d" d="M 3328 2828 
Q 3544 3216 3844 3400 
Q 4144 3584 4550 3584 
Q 5097 3584 5394 3201 
Q 5691 2819 5691 2113 
L 5691 0 
L 5113 0 
L 5113 2094 
Q 5113 2597 4934 2840 
Q 4756 3084 4391 3084 
Q 3944 3084 3684 2787 
Q 3425 2491 3425 1978 
L 3425 0 
L 2847 0 
L 2847 2094 
Q 2847 2600 2669 2842 
Q 2491 3084 2119 3084 
Q 1678 3084 1418 2786 
Q 1159 2488 1159 1978 
L 1159 0 
L 581 0 
L 581 3500 
L 1159 3500 
L 1159 2956 
Q 1356 3278 1631 3431 
Q 1906 3584 2284 3584 
Q 2666 3584 2933 3390 
Q 3200 3197 3328 2828 
z
" transform="scale(0.015625)"/>
       <path id="DejaVuSans-65" d="M 3597 1894 
L 3597 1613 
L 953 1613 
Q 991 1019 1311 708 
Q 1631 397 2203 397 
Q 2534 397 2845 478 
Q 3156 559 3463 722 
L 3463 178 
Q 3153 47 2828 -22 
Q 2503 -91 2169 -91 
Q 1331 -91 842 396 
Q 353 884 353 1716 
Q 353 2575 817 3079 
Q 1281 3584 2069 3584 
Q 2775 3584 3186 3129 
Q 3597 2675 3597 1894 
z
M 3022 2063 
Q 3016 2534 2758 2815 
Q 2500 3097 2075 3097 
Q 1594 3097 1305 2825 
Q 1016 2553 972 2059 
L 3022 2063 
z
" transform="scale(0.015625)"/>
       <path id="DejaVuSans-28" d="M 1984 4856 
Q 1566 4138 1362 3434 
Q 1159 2731 1159 2009 
Q 1159 1288 1364 580 
Q 1569 -128 1984 -844 
L 1484 -844 
Q 1016 -109 783 600 
Q 550 1309 550 2009 
Q 550 2706 781 3412 
Q 1013 4119 1484 4856 
L 1984 4856 
z
" transform="scale(0.015625)"/>
       <path id="DejaVuSans-73" d="M 2834 3397 
L 2834 2853 
Q 2591 2978 2328 3040 
Q 2066 3103 1784 3103 
Q 1356 3103 1142 2972 
Q 928 2841 928 2578 
Q 928 2378 1081 2264 
Q 1234 2150 1697 2047 
L 1894 2003 
Q 2506 1872 2764 1633 
Q 3022 1394 3022 966 
Q 3022 478 2636 193 
Q 2250 -91 1575 -91 
Q 1294 -91 989 -36 
Q 684 19 347 128 
L 347 722 
Q 666 556 975 473 
Q 1284 391 1588 391 
Q 1994 391 2212 530 
Q 2431 669 2431 922 
Q 2431 1156 2273 1281 
Q 2116 1406 1581 1522 
L 1381 1569 
Q 847 1681 609 1914 
Q 372 2147 372 2553 
Q 372 3047 722 3315 
Q 1072 3584 1716 3584 
Q 2034 3584 2315 3537 
Q 2597 3491 2834 3397 
z
" transform="scale(0.015625)"/>
       <path id="DejaVuSans-29" d="M 513 4856 
L 1013 4856 
Q 1481 4119 1714 3412 
Q 1947 2706 1947 2009 
Q 1947 1309 1714 600 
Q 1481 -109 1013 -844 
L 513 -844 
Q 928 -128 1133 580 
Q 1338 1288 1338 2009 
Q 1338 2731 1133 3434 
Q 928 4138 513 4856 
z
" transform="scale(0.015625)"/>
      </defs>
      <use xlink:href="#DejaVuSans-54"/>
      <use xlink:href="#DejaVuSans-69" x="57.958984"/>
      <use xlink:href="#DejaVuSans-6d" x="85.742188"/>
      <use xlink:href="#DejaVuSans-65" x="183.154297"/>
      <use xlink:href="#DejaVuSans-28" x="244.677734"/>
      <use xlink:href="#DejaVuSans-73" x="283.691406"/>
      <use xlink:href="#DejaVuSans-29" x="335.791016"/>
     </g>
    </g>
   </g>
   <g id="matplotlib.axis_2">
    <g id="ytick_1">
     <g id="line2d_15">
      <path d="M 57.6 295.488 
L 414.72 295.488 
" clip-path="url(#p1e393fbbb4)" style="fill: none; stroke: #b0b0b0; stroke-width: 0.8; stroke-linecap: square"/>
     </g>
     <g id="line2d_16">
      <defs>
       <path id="m1824474871" d="M 0 0 
L -3.5 0 
" style="stroke: #000000; stroke-width: 0.8"/>
      </defs>
      <g>
       <use xlink:href="#m1824474871" x="57.6" y="295.488" style="stroke: #000000; stroke-width: 0.8"/>
      </g>
     </g>
     <g id="text_9">
      <!-- 0.00 -->
      <g transform="translate(28.334375 299.287219) scale(0.1 -0.1)">
       <defs>
        <path id="DejaVuSans-2e" d="M 684 794 
L 1344 794 
L 1344 0 
L 684 0 
L 684 794 
z
" transform="scale(0.015625)"/>
       </defs>
       <use xlink:href="#DejaVuSans-30"/>
       <use xlink:href="#DejaVuSans-2e" x="63.623047"/>
       <use xlink:href="#DejaVuSans-30" x="95.410156"/>
       <use xlink:href="#DejaVuSans-30" x="159.033203"/>
      </g>
     </g>
    </g>
    <g id="ytick_2">
     <g id="line2d_17">
      <path d="M 57.6 260.215701 
L 414.72 260.215701 
" clip-path="url(#p1e393fbbb4)" style="fill: none; stroke: #b0b0b0; stroke-width: 0.8; stroke-linecap: square"/>
     </g>
     <g id="line2d_18">
      <g>
       <use xlink:href="#m1824474871" x="57.6" y="260.215701" style="stroke: #000000; stroke-width: 0.8"/>
      </g>
     </g>
     <g id="text_10">
      <!-- 0.05 -->
      <g transform="translate(28.334375 264.01492) scale(0.1 -0.1)">
       <use xlink:href="#DejaVuSans-30"/>
       <use xlink:href="#DejaVuSans-2e" x="63.623047"/>
       <use xlink:href="#DejaVuSans-30" x="95.410156"/>
       <use xlink:href="#DejaVuSans-35" x="159.033203"/>
      </g>
     </g>
    </g>
    <g id="ytick_3">
     <g id="line2d_19">
      <path d="M 57.6 224.943402 
L 414.72 224.943402 
" clip-path="url(#p1e393fbbb4)" style="fill: none; stroke: #b0b0b0; stroke-width: 0.8; stroke-linecap: square"/>
     </g>
     <g id="line2d_20">
      <g>
       <use xlink:href="#m1824474871" x="57.6" y="224.943402" style="stroke: #000000; stroke-width: 0.8"/>
      </g>
     </g>
     <g id="text_11">
      <!-- 0.10 -->
      <g transform="translate(28.334375 228.742621) scale(0.1 -0.1)">
       <use xlink:href="#DejaVuSans-30"/>
       <use xlink:href="#DejaVuSans-2e" x="63.623047"/>
       <use xlink:href="#DejaVuSans-31" x="95.410156"/>
       <use xlink:href="#DejaVuSans-30" x="159.033203"/>
      </g>
     </g>
    </g>
    <g id="ytick_4">
     <g id="line2d_21">
      <path d="M 57.6 189.671103 
L 414.72 189.671103 
" clip-path="url(#p1e393fbbb4)" style="fill: none; stroke: #b0b0b0; stroke-width: 0.8; stroke-linecap: square"/>
     </g>
     <g id="line2d_22">
      <g>
       <use xlink:href="#m1824474871" x="57.6" y="189.671103" style="stroke: #000000; stroke-width: 0.8"/>
      </g>
     </g>
     <g id="text_12">
      <!-- 0.15 -->
      <g transform="translate(28.334375 193.470322) scale(0.1 -0.1)">
       <use xlink:href="#DejaVuSans-30"/>
       <use xlink:href="#DejaVuSans-2e" x="63.623047"/>
       <use xlink:href="#DejaVuSans-31" x="95.410156"/>
       <use xlink:href="#DejaVuSans-35" x="159.033203"/>
      </g>
     </g>
    </g>
    <g id="ytick_5">
     <g id="line2d_23">
      <path d="M 57.6 154.398804 
L 414.72 154.398804 
" clip-path="url(#p1e393fbbb4)" style="fill: none; stroke: #b0b0b0; stroke-width: 0.8; stroke-linecap: square"/>
     </g>
     <g id="line2d_24">
      <g>
       <use xlink:href="#m1824474871" x="57.6" y="154.398804" style="stroke: #000000; stroke-width: 0.8"/>
      </g>
     </g>
     <g id="text_13">
      <!-- 0.20 -->
      <g transform="translate(28.334375 158.198023) scale(0.1 -0.1)">
       <use xlink:href="#DejaVuSans-30"/>
       <use xlink:href="#DejaVuSans-2e" x="63.623047"/>
       <use xlink:href="#DejaVuSans-32" x="95.410156"/>
       <use xlink:href="#DejaVuSans-30" x="159.033203"/>
      </g>
     </g>
    </g>
    <g id="ytick_6">
     <g id="line2d_25">
      <path d="M 57.6 119.126506 
L 414.72 119.126506 
" clip-path="url(#p1e393fbbb4)" style="fill: none; stroke: #b0b0b0; stroke-width: 0.8; stroke-linecap: square"/>
     </g>
     <g id="line2d_26">
      <g>
       <use xlink:href="#m1824474871" x="57.6" y="119.126506" style="stroke: #000000; stroke-width: 0.8"/>
      </g>
     </g>
     <g id="text_14">
      <!-- 0.25 -->
      <g transform="translate(28.334375 122.925724) scale(0.1 -0.1)">
       <use xlink:href="#DejaVuSans-30"/>
       <use xlink:href="#DejaVuSans-2e" x="63.623047"/>
       <use xlink:href="#DejaVuSans-32" x="95.410156"/>
       <use xlink:href="#DejaVuSans-35" x="159.033203"/>
      </g>
     </g>
    </g>
    <g id="ytick_7">
     <g id="line2d_27">
      <path d="M 57.6 83.854207 
L 414.72 83.854207 
" clip-path="url(#p1e393fbbb4)" style="fill: none; stroke: #b0b0b0; stroke-width: 0.8; stroke-linecap: square"/>
     </g>
     <g id="line2d_28">
      <g>
       <use xlink:href="#m1824474871" x="57.6" y="83.854207" style="stroke: #000000; stroke-width: 0.8"/>
      </g>
     </g>
     <g id="text_15">
      <!-- 0.30 -->
      <g transform="translate(28.334375 87.653425) scale(0.1 -0.1)">
       <use xlink:href="#DejaVuSans-30"/>
       <use xlink:href="#DejaVuSans-2e" x="63.623047"/>
       <use xlink:href="#DejaVuSans-33" x="95.410156"/>
       <use xlink:href="#DejaVuSans-30" x="159.033203"/>
      </g>
     </g>
    </g>
    <g id="ytick_8">
     <g id="line2d_29">
      <path d="M 57.6 48.581908 
L 414.72 48.581908 
" clip-path="url(#p1e393fbbb4)" style="fill: none; stroke: #b0b0b0; stroke-width: 0.8; stroke-linecap: square"/>
     </g>
     <g id="line2d_30">
      <g>
       <use xlink:href="#m1824474871" x="57.6" y="48.581908" style="stroke: #000000; stroke-width: 0.8"/>
      </g>
     </g>
     <g id="text_16">
      <!-- 0.35 -->
      <g transform="translate(28.334375 52.381127) scale(0.1 -0.1)">
       <use xlink:href="#DejaVuSans-30"/>
       <use xlink:href="#DejaVuSans-2e" x="63.623047"/>
       <use xlink:href="#DejaVuSans-33" x="95.410156"/>
       <use xlink:href="#DejaVuSans-35" x="159.033203"/>
      </g>
     </g>
    </g>
    <g id="text_17">
     <!-- Tracking error(m) -->
     <g transform="translate(22.254687 217.803781) rotate(-90) scale(0.1 -0.1)">
      <defs>
       <path id="DejaVuSans-72" d="M 2631 2963 
Q 2534 3019 2420 3045 
Q 2306 3072 2169 3072 
Q 1681 3072 1420 2755 
Q 1159 2438 1159 1844 
L 1159 0 
L 581 0 
L 581 3500 
L 1159 3500 
L 1159 2956 
Q 1341 3275 1631 3429 
Q 1922 3584 2338 3584 
Q 2397 3584 2469 3576 
Q 2541 3569 2628 3553 
L 2631 2963 
z
" transform="scale(0.015625)"/>
       <path id="DejaVuSans-61" d="M 2194 1759 
Q 1497 1759 1228 1600 
Q 959 1441 959 1056 
Q 959 750 1161 570 
Q 1363 391 1709 391 
Q 2188 391 2477 730 
Q 2766 1069 2766 1631 
L 2766 1759 
L 2194 1759 
z
M 3341 1997 
L 3341 0 
L 2766 0 
L 2766 531 
Q 2569 213 2275 61 
Q 1981 -91 1556 -91 
Q 1019 -91 701 211 
Q 384 513 384 1019 
Q 384 1609 779 1909 
Q 1175 2209 1959 2209 
L 2766 2209 
L 2766 2266 
Q 2766 2663 2505 2880 
Q 2244 3097 1772 3097 
Q 1472 3097 1187 3025 
Q 903 2953 641 2809 
L 641 3341 
Q 956 3463 1253 3523 
Q 1550 3584 1831 3584 
Q 2591 3584 2966 3190 
Q 3341 2797 3341 1997 
z
" transform="scale(0.015625)"/>
       <path id="DejaVuSans-63" d="M 3122 3366 
L 3122 2828 
Q 2878 2963 2633 3030 
Q 2388 3097 2138 3097 
Q 1578 3097 1268 2742 
Q 959 2388 959 1747 
Q 959 1106 1268 751 
Q 1578 397 2138 397 
Q 2388 397 2633 464 
Q 2878 531 3122 666 
L 3122 134 
Q 2881 22 2623 -34 
Q 2366 -91 2075 -91 
Q 1284 -91 818 406 
Q 353 903 353 1747 
Q 353 2603 823 3093 
Q 1294 3584 2113 3584 
Q 2378 3584 2631 3529 
Q 2884 3475 3122 3366 
z
" transform="scale(0.015625)"/>
       <path id="DejaVuSans-6b" d="M 581 4863 
L 1159 4863 
L 1159 1991 
L 2875 3500 
L 3609 3500 
L 1753 1863 
L 3688 0 
L 2938 0 
L 1159 1709 
L 1159 0 
L 581 0 
L 581 4863 
z
" transform="scale(0.015625)"/>
       <path id="DejaVuSans-6e" d="M 3513 2113 
L 3513 0 
L 2938 0 
L 2938 2094 
Q 2938 2591 2744 2837 
Q 2550 3084 2163 3084 
Q 1697 3084 1428 2787 
Q 1159 2491 1159 1978 
L 1159 0 
L 581 0 
L 581 3500 
L 1159 3500 
L 1159 2956 
Q 1366 3272 1645 3428 
Q 1925 3584 2291 3584 
Q 2894 3584 3203 3211 
Q 3513 2838 3513 2113 
z
" transform="scale(0.015625)"/>
       <path id="DejaVuSans-67" d="M 2906 1791 
Q 2906 2416 2648 2759 
Q 2391 3103 1925 3103 
Q 1463 3103 1205 2759 
Q 947 2416 947 1791 
Q 947 1169 1205 825 
Q 1463 481 1925 481 
Q 2391 481 2648 825 
Q 2906 1169 2906 1791 
z
M 3481 434 
Q 3481 -459 3084 -895 
Q 2688 -1331 1869 -1331 
Q 1566 -1331 1297 -1286 
Q 1028 -1241 775 -1147 
L 775 -588 
Q 1028 -725 1275 -790 
Q 1522 -856 1778 -856 
Q 2344 -856 2625 -561 
Q 2906 -266 2906 331 
L 2906 616 
Q 2728 306 2450 153 
Q 2172 0 1784 0 
Q 1141 0 747 490 
Q 353 981 353 1791 
Q 353 2603 747 3093 
Q 1141 3584 1784 3584 
Q 2172 3584 2450 3431 
Q 2728 3278 2906 2969 
L 2906 3500 
L 3481 3500 
L 3481 434 
z
" transform="scale(0.015625)"/>
       <path id="DejaVuSans-20" transform="scale(0.015625)"/>
       <path id="DejaVuSans-6f" d="M 1959 3097 
Q 1497 3097 1228 2736 
Q 959 2375 959 1747 
Q 959 1119 1226 758 
Q 1494 397 1959 397 
Q 2419 397 2687 759 
Q 2956 1122 2956 1747 
Q 2956 2369 2687 2733 
Q 2419 3097 1959 3097 
z
M 1959 3584 
Q 2709 3584 3137 3096 
Q 3566 2609 3566 1747 
Q 3566 888 3137 398 
Q 2709 -91 1959 -91 
Q 1206 -91 779 398 
Q 353 888 353 1747 
Q 353 2609 779 3096 
Q 1206 3584 1959 3584 
z
" transform="scale(0.015625)"/>
      </defs>
      <use xlink:href="#DejaVuSans-54"/>
      <use xlink:href="#DejaVuSans-72" x="46.333984"/>
      <use xlink:href="#DejaVuSans-61" x="87.447266"/>
      <use xlink:href="#DejaVuSans-63" x="148.726562"/>
      <use xlink:href="#DejaVuSans-6b" x="203.707031"/>
      <use xlink:href="#DejaVuSans-69" x="261.617188"/>
      <use xlink:href="#DejaVuSans-6e" x="289.400391"/>
      <use xlink:href="#DejaVuSans-67" x="352.779297"/>
      <use xlink:href="#DejaVuSans-20" x="416.255859"/>
      <use xlink:href="#DejaVuSans-65" x="448.042969"/>
      <use xlink:href="#DejaVuSans-72" x="509.566406"/>
      <use xlink:href="#DejaVuSans-72" x="548.929688"/>
      <use xlink:href="#DejaVuSans-6f" x="587.792969"/>
      <use xlink:href="#DejaVuSans-72" x="648.974609"/>
      <use xlink:href="#DejaVuSans-28" x="690.087891"/>
      <use xlink:href="#DejaVuSans-6d" x="729.101562"/>
      <use xlink:href="#DejaVuSans-29" x="826.513672"/>
     </g>
    </g>
   </g>
   <g id="line2d_31">
    <path d="M 73.832727 295.057678 
L 74.038596 291.538208 
L 74.038596 291.538208 
L 74.450333 273.401897 
L 74.450333 273.401897 
L 74.656201 273.483729 
L 74.656201 273.483729 
L 75.067938 274.936242 
L 75.067938 274.936242 
L 75.479675 281.332521 
L 75.479675 281.332521 
L 76.09728 295.340562 
L 76.09728 295.340562 
L 77.126622 272.523617 
L 77.126622 272.523617 
L 77.744228 264.388414 
L 77.744228 264.388414 
L 78.155965 261.153239 
L 78.155965 261.153239 
L 78.567702 259.610428 
L 78.567702 259.610428 
L 78.979439 258.744141 
L 78.979439 258.744141 
L 79.185307 258.435155 
L 79.185307 258.435155 
L 79.391175 258.344858 
L 79.391175 258.344858 
L 79.802912 257.617544 
L 79.802912 257.617544 
L 80.626386 255.707901 
L 80.626386 255.707901 
L 81.44986 252.212417 
L 81.44986 252.212417 
L 83.302676 241.646952 
L 83.302676 241.646952 
L 83.508544 241.397224 
L 83.920281 240.667793 
L 83.920281 240.667793 
L 84.12615 240.608536 
L 84.332018 240.784897 
L 84.332018 240.784897 
L 85.36136 246.803762 
L 85.36136 246.803762 
L 85.978966 253.036377 
L 85.978966 253.036377 
L 87.625913 267.235594 
L 87.625913 267.235594 
L 88.03765 272.353605 
L 88.03765 272.353605 
L 88.449387 276.61732 
L 88.449387 276.61732 
L 89.478729 293.100771 
L 89.478729 293.100771 
L 89.684598 294.199856 
L 89.684598 294.199856 
L 90.302203 281.610467 
L 90.302203 281.610467 
L 91.331546 258.787878 
L 91.331546 258.787878 
L 91.949151 244.130827 
L 91.949151 244.130827 
L 92.566756 232.002095 
L 92.566756 232.002095 
L 93.596098 218.40674 
L 93.596098 218.40674 
L 93.801967 217.742915 
L 93.801967 217.742915 
L 94.007835 215.373322 
L 94.007835 215.373322 
L 94.213704 215.157456 
L 94.213704 215.157456 
L 94.419572 213.507417 
L 94.419572 213.507417 
L 94.625441 213.673197 
L 94.625441 213.673197 
L 94.831309 212.886625 
L 94.831309 212.886625 
L 95.037178 211.230943 
L 95.037178 211.230943 
L 95.243046 213.182207 
L 95.243046 213.182207 
L 95.448915 211.985065 
L 95.448915 211.985065 
L 95.654783 213.932096 
L 95.654783 213.932096 
L 95.860651 213.097553 
L 95.860651 213.097553 
L 96.06652 214.882332 
L 96.06652 214.882332 
L 96.272388 214.207925 
L 96.272388 214.207925 
L 96.478257 215.685129 
L 96.478257 215.685129 
L 96.684125 215.04529 
L 96.684125 215.04529 
L 96.889994 216.124622 
L 96.889994 216.124622 
L 97.095862 215.608941 
L 97.095862 215.608941 
L 97.301731 213.839683 
L 97.301731 213.839683 
L 97.507599 216.132382 
L 97.507599 216.132382 
L 97.713467 214.618495 
L 97.713467 214.618495 
L 97.919336 216.434313 
L 97.919336 216.434313 
L 98.125204 214.812493 
L 98.125204 214.812493 
L 98.331073 215.980711 
L 98.331073 215.980711 
L 98.536941 213.760673 
L 98.536941 213.760673 
L 98.74281 213.650623 
L 98.74281 213.650623 
L 98.948678 210.172774 
L 98.948678 210.172774 
L 99.154547 208.713207 
L 99.154547 208.713207 
L 99.772152 196.12029 
L 99.772152 196.12029 
L 99.97802 193.795846 
L 99.97802 193.795846 
L 100.389757 182.864255 
L 100.389757 182.864255 
L 100.595626 185.803143 
L 100.595626 185.803143 
L 100.801494 182.91152 
L 100.801494 182.91152 
L 101.007363 187.869394 
L 101.007363 187.869394 
L 101.213231 188.395657 
L 101.213231 188.395657 
L 101.4191 194.952777 
L 101.4191 194.952777 
L 101.624968 197.802779 
L 101.624968 197.802779 
L 102.448442 223.89652 
L 102.448442 223.89652 
L 102.65431 228.824061 
L 102.65431 228.824061 
L 103.271916 255.208446 
L 103.271916 255.208446 
L 103.683653 271.876018 
L 103.683653 271.876018 
L 104.301258 293.813977 
L 104.301258 293.813977 
L 105.742337 229.870942 
L 105.742337 229.870942 
L 106.771679 193.450177 
L 106.771679 193.450177 
L 106.977548 187.099753 
L 107.183416 184.854318 
L 107.183416 184.854318 
L 107.595153 178.345874 
L 107.595153 178.345874 
L 107.801022 180.661147 
L 107.801022 180.661147 
L 108.00689 181.603623 
L 108.00689 181.603623 
L 108.212758 183.597919 
L 108.212758 183.597919 
L 109.036232 220.425726 
L 109.036232 220.425726 
L 110.271443 295.103532 
L 110.271443 295.103532 
L 111.712522 213.758556 
L 111.712522 213.758556 
L 114.388812 64.972945 
L 114.388812 64.972945 
L 114.800549 53.851589 
L 114.800549 53.851589 
L 115.006417 53.568 
L 115.006417 53.568 
L 115.212286 53.824782 
L 115.212286 53.824782 
L 115.418154 56.552742 
L 115.418154 56.552742 
L 115.624023 62.031941 
L 115.624023 62.031941 
L 116.035759 82.177362 
L 116.035759 82.177362 
L 117.27097 190.737032 
L 117.27097 190.737032 
L 118.300312 287.912921 
L 118.300312 287.912921 
L 118.506181 284.908427 
L 118.506181 284.908427 
L 119.535523 205.748923 
L 119.535523 205.748923 
L 120.153128 170.643109 
L 120.153128 170.643109 
L 120.770734 147.770434 
L 120.770734 147.770434 
L 121.182471 140.99392 
L 121.182471 140.99392 
L 121.594208 138.016938 
L 121.594208 138.016938 
L 122.005945 137.330539 
L 122.005945 137.330539 
L 122.829418 137.012383 
L 122.829418 137.012383 
L 123.241155 137.733349 
L 123.241155 137.733349 
L 123.652892 139.297322 
L 123.652892 139.297322 
L 123.858761 140.651779 
L 123.858761 140.651779 
L 124.476366 149.47197 
L 124.476366 149.47197 
L 124.888103 158.110861 
L 124.888103 158.110861 
L 125.711577 185.678985 
L 125.711577 185.678985 
L 126.53505 222.229552 
L 126.53505 222.229552 
L 127.97613 291.625683 
L 127.97613 291.625683 
L 128.181998 290.031375 
L 128.181998 290.031375 
L 129.005472 254.766836 
L 129.005472 254.766836 
L 130.034814 219.598944 
L 130.034814 219.598944 
L 130.652419 204.970816 
L 130.652419 204.970816 
L 131.270025 194.797579 
L 131.270025 194.797579 
L 131.88763 189.02562 
L 131.88763 189.02562 
L 132.299367 186.584777 
L 132.299367 186.584777 
L 132.505235 186.418997 
L 132.505235 186.418997 
L 132.916972 185.89344 
L 132.916972 185.89344 
L 133.122841 185.906844 
L 133.122841 185.906844 
L 134.152183 189.487687 
L 134.152183 189.487687 
L 134.56392 192.423754 
L 134.56392 192.423754 
L 134.975657 194.431453 
L 134.975657 194.431453 
L 135.387394 197.700489 
L 135.387394 197.700489 
L 135.593262 198.711394 
L 135.593262 198.711394 
L 136.004999 201.813945 
L 136.004999 201.813945 
L 136.416736 203.659392 
L 136.416736 203.659392 
L 136.828473 206.937599 
L 136.828473 206.937599 
L 137.034341 207.82505 
L 137.24021 209.823579 
L 137.24021 209.823579 
L 137.446078 210.596747 
L 137.446078 210.596747 
L 137.651947 210.899384 
L 137.651947 210.899384 
L 137.857815 212.311687 
L 137.857815 212.311687 
L 138.063684 212.38082 
L 138.063684 212.38082 
L 138.269552 211.855263 
L 138.269552 211.855263 
L 138.475421 212.905672 
L 138.475421 212.905672 
L 138.681289 212.635486 
L 138.681289 212.635486 
L 138.887157 211.999174 
L 138.887157 211.999174 
L 139.093026 213.497541 
L 139.093026 213.497541 
L 139.298894 213.576551 
L 139.298894 213.576551 
L 139.504763 213.307071 
L 139.504763 213.307071 
L 139.710631 215.695711 
L 139.710631 215.695711 
L 140.122368 216.703088 
L 140.122368 216.703088 
L 140.328237 220.288164 
L 140.328237 220.288164 
L 140.534105 221.477546 
L 140.534105 221.477546 
L 140.945842 226.580037 
L 140.945842 226.580037 
L 141.15171 227.923206 
L 141.15171 227.923206 
L 141.563447 233.556192 
L 141.563447 233.556192 
L 141.769316 234.701836 
L 141.769316 234.701836 
L 141.975184 238.828695 
L 141.975184 238.828695 
L 142.181053 240.348931 
L 142.181053 240.348931 
L 142.59279 245.490222 
L 142.59279 245.490222 
L 142.798658 246.64151 
L 142.798658 246.64151 
L 143.004526 250.148282 
L 143.004526 250.148282 
L 143.416263 252.583481 
L 143.416263 252.583481 
L 143.622132 256.459907 
L 143.622132 256.459907 
L 144.033869 258.510638 
L 144.033869 258.510638 
L 144.239737 262.865356 
L 144.239737 262.865356 
L 144.445606 264.116817 
L 144.445606 264.116817 
L 144.857342 269.605187 
L 144.857342 269.605187 
L 145.063211 270.819965 
L 145.063211 270.819965 
L 145.269079 274.999027 
L 145.269079 274.999027 
L 145.680816 277.947791 
L 145.680816 277.947791 
L 145.886685 282.751878 
L 145.886685 282.751878 
L 146.092553 284.550766 
L 146.092553 284.550766 
L 146.50429 291.392886 
L 146.50429 291.392886 
L 146.710159 293.555783 
L 146.710159 293.555783 
L 146.916027 292.556872 
L 148.151238 277.639511 
L 148.151238 277.639511 
L 148.357106 277.161219 
L 148.562975 274.947529 
L 148.562975 274.947529 
L 148.768843 274.455128 
L 148.768843 274.455128 
L 148.974711 274.523556 
L 148.974711 274.523556 
L 149.18058 272.198406 
L 149.18058 272.198406 
L 149.386448 271.91129 
L 149.386448 271.91129 
L 149.592317 271.985362 
L 149.592317 271.985362 
L 149.798185 269.061288 
L 149.798185 269.061288 
L 150.004054 268.482117 
L 150.004054 268.482117 
L 150.415791 264.800395 
L 150.415791 264.800395 
L 150.621659 263.67027 
L 150.621659 263.67027 
L 151.033396 258.150861 
L 151.033396 258.150861 
L 151.239264 256.018298 
L 151.239264 256.018298 
L 153.09208 215.068569 
L 153.09208 215.068569 
L 154.53316 176.922989 
L 154.53316 176.922989 
L 155.150765 165.113118 
L 155.150765 165.113118 
L 155.562502 160.558759 
L 155.562502 160.558759 
L 155.974239 159.128114 
L 155.974239 159.128114 
L 156.180107 159.257916 
L 156.180107 159.257916 
L 156.385976 159.981704 
L 156.385976 159.981704 
L 156.797713 163.197832 
L 156.797713 163.197832 
L 157.209449 168.362402 
L 157.209449 168.362402 
L 157.827055 179.445664 
L 157.827055 179.445664 
L 158.650529 199.465515 
L 158.650529 199.465515 
L 160.915082 259.47075 
L 160.915082 259.47075 
L 162.356161 292.457404 
L 162.356161 292.457404 
L 162.562029 294.137071 
L 162.562029 294.137071 
L 164.003108 269.289147 
L 164.003108 269.289147 
L 164.620714 261.639997 
L 164.620714 261.639997 
L 165.444187 256.632741 
L 165.444187 256.632741 
L 165.650056 256.014065 
L 165.650056 256.014065 
L 166.061793 256.965711 
L 166.061793 256.965711 
L 166.267661 257.478571 
L 166.267661 257.478571 
L 166.679398 259.231604 
L 166.679398 259.231604 
L 167.091135 262.612807 
L 167.091135 262.612807 
L 168.532214 271.432292 
L 168.532214 271.432292 
L 168.738083 272.278827 
L 168.738083 272.278827 
L 169.14982 275.465327 
L 169.14982 275.465327 
L 169.767425 278.871925 
L 169.767425 278.871925 
L 170.179162 283.562436 
L 170.179162 283.562436 
L 170.796767 289.817625 
L 170.796767 289.817625 
L 171.002636 293.555783 
L 171.002636 293.555783 
L 171.208504 294.79243 
L 171.208504 294.79243 
L 172.237846 283.314824 
L 172.237846 283.314824 
L 172.855452 280.100812 
L 172.855452 280.100812 
L 173.06132 280.067656 
L 173.06132 280.067656 
L 173.267189 280.623548 
L 173.267189 280.623548 
L 173.473057 281.772014 
L 173.473057 281.772014 
L 173.678925 282.028091 
L 173.678925 282.028091 
L 174.090662 286.035729 
L 174.090662 286.035729 
L 174.708268 295.488 
L 174.708268 295.488 
L 174.914136 294.414311 
L 174.914136 294.414311 
L 175.325873 289.373194 
L 175.325873 289.373194 
L 175.943478 281.74944 
L 175.943478 281.74944 
L 176.355215 276.509387 
L 176.355215 276.509387 
L 176.561084 275.561973 
L 176.561084 275.561973 
L 176.972821 271.514829 
L 176.972821 271.514829 
L 177.178689 271.169161 
L 177.178689 271.169161 
L 177.384558 269.650336 
L 177.384558 269.650336 
L 177.590426 268.966758 
L 177.590426 268.966758 
L 178.208031 265.847276 
L 178.208031 265.847276 
L 178.619768 263.02126 
L 178.619768 263.02126 
L 178.825637 262.978228 
L 178.825637 262.978228 
L 179.031505 261.591321 
L 179.031505 261.591321 
L 179.237374 261.279514 
L 179.237374 261.279514 
L 179.649111 258.364611 
L 179.649111 258.364611 
L 179.854979 258.394945 
L 179.854979 258.394945 
L 180.060847 256.838026 
L 180.060847 256.838026 
L 180.266716 256.485303 
L 180.266716 256.485303 
L 180.472584 254.819039 
L 180.472584 254.819039 
L 180.678453 254.071972 
L 180.678453 254.071972 
L 181.296058 249.285521 
L 181.296058 249.285521 
L 181.501927 248.061572 
L 181.501927 248.061572 
L 182.3254 240.389142 
L 182.3254 240.389142 
L 182.531269 239.675231 
L 182.531269 239.675231 
L 182.737137 237.173719 
L 182.737137 237.173719 
L 182.943006 236.341293 
L 182.943006 236.341293 
L 183.354743 232.016909 
L 183.354743 232.016909 
L 183.560611 230.218727 
L 183.560611 230.218727 
L 184.178216 222.350888 
L 184.178216 222.350888 
L 184.384085 220.981618 
L 184.384085 220.981618 
L 184.589953 217.377494 
L 184.589953 217.377494 
L 184.795822 216.578929 
L 185.00169 212.553655 
L 185.00169 212.553655 
L 185.207559 212.264422 
L 185.207559 212.264422 
L 185.413427 207.329827 
L 185.413427 207.329827 
L 185.619296 207.303726 
L 185.619296 207.303726 
L 185.825164 205.928106 
L 185.825164 205.928106 
L 186.031032 202.223809 
L 186.031032 202.223809 
L 186.236901 201.417484 
L 186.236901 201.417484 
L 186.442769 197.02044 
L 186.442769 197.02044 
L 186.648638 196.731912 
L 186.648638 196.731912 
L 186.854506 191.504557 
L 186.854506 191.504557 
L 187.060375 192.224818 
L 187.060375 192.224818 
L 187.266243 191.958865 
L 187.266243 191.958865 
L 187.472112 189.395979 
L 187.472112 189.395979 
L 187.67798 190.133876 
L 187.67798 190.133876 
L 187.883849 186.736448 
L 187.883849 186.736448 
L 188.089717 188.442216 
L 188.089717 188.442216 
L 188.295585 184.364739 
L 188.295585 184.364739 
L 188.707322 189.683801 
L 188.707322 189.683801 
L 188.913191 188.460558 
L 188.913191 188.460558 
L 189.119059 192.739088 
L 189.119059 192.739088 
L 189.324928 191.591327 
L 189.324928 191.591327 
L 189.736665 202.25626 
L 189.736665 202.25626 
L 189.942533 202.846718 
L 189.942533 202.846718 
L 190.35427 214.45201 
L 190.35427 214.45201 
L 190.560138 216.561293 
L 190.560138 216.561293 
L 190.766007 222.588624 
L 190.766007 222.588624 
L 190.971875 222.002398 
L 190.971875 222.002398 
L 191.383612 231.07655 
L 191.383612 231.07655 
L 191.589481 228.195508 
L 191.589481 228.195508 
L 191.795349 230.771797 
L 191.795349 230.771797 
L 192.001218 230.674445 
L 192.207086 224.719776 
L 192.207086 224.719776 
L 192.412954 224.233018 
L 192.412954 224.233018 
L 192.618823 221.487422 
L 192.618823 221.487422 
L 192.824691 214.321502 
L 192.824691 214.321502 
L 193.03056 212.787157 
L 193.03056 212.787157 
L 193.236428 203.059763 
L 193.236428 203.059763 
L 193.442297 204.128513 
L 193.442297 204.128513 
L 193.648165 203.457634 
L 193.648165 203.457634 
L 193.854034 196.677593 
L 193.854034 196.677593 
L 194.059902 198.877879 
L 194.059902 198.877879 
L 194.26577 190.049928 
L 194.26577 190.049928 
L 194.677507 197.247593 
L 194.677507 197.247593 
L 194.883376 191.013567 
L 194.883376 191.013567 
L 195.295113 198.487767 
L 195.295113 198.487767 
L 195.500981 195.697023 
L 195.500981 195.697023 
L 195.70685 200.708511 
L 195.70685 200.708511 
L 195.912718 196.137927 
L 195.912718 196.137927 
L 196.324455 205.549281 
L 196.324455 205.549281 
L 196.530323 203.044948 
L 196.530323 203.044948 
L 196.736192 206.569356 
L 196.736192 206.569356 
L 196.94206 201.199502 
L 196.94206 201.199502 
L 197.147929 204.732375 
L 197.147929 204.732375 
L 197.353797 205.937277 
L 197.353797 205.937277 
L 197.559666 200.623858 
L 197.559666 200.623858 
L 197.765534 202.711272 
L 197.765534 202.711272 
L 197.971403 202.450963 
L 197.971403 202.450963 
L 198.177271 198.07226 
L 198.177271 198.07226 
L 198.383139 199.696196 
L 198.383139 199.696196 
L 198.589008 194.456849 
L 198.589008 194.456849 
L 199.000745 201.098623 
L 199.000745 201.098623 
L 199.206613 198.701517 
L 199.206613 198.701517 
L 199.412482 203.33277 
L 199.412482 203.33277 
L 199.61835 199.774501 
L 199.61835 199.774501 
L 200.030087 210.098703 
L 200.030087 210.098703 
L 200.235955 207.874431 
L 200.235955 207.874431 
L 200.647692 217.294957 
L 200.647692 217.294957 
L 200.853561 217.148224 
L 200.853561 217.148224 
L 201.059429 222.035554 
L 201.059429 222.035554 
L 201.265298 220.496976 
L 201.265298 220.496976 
L 201.677035 231.370721 
L 201.677035 231.370721 
L 201.882903 232.638407 
L 201.882903 232.638407 
L 202.088772 238.77226 
L 202.088772 238.77226 
L 202.29464 240.239587 
L 202.29464 240.239587 
L 203.118114 265.726645 
L 203.118114 265.726645 
L 203.529851 280.265887 
L 203.529851 280.265887 
L 203.941588 293.698284 
L 203.941588 293.698284 
L 205.588535 224.914479 
L 205.588535 224.914479 
L 206.000272 218.689624 
L 206.000272 218.689624 
L 206.206141 212.88733 
L 206.206141 212.88733 
L 206.412009 210.797094 
L 206.412009 210.797094 
L 206.617877 205.575383 
L 206.617877 205.575383 
L 206.823746 204.627264 
L 206.823746 204.627264 
L 207.029614 199.507842 
L 207.029614 199.507842 
L 207.235483 199.433065 
L 207.441351 194.431453 
L 207.441351 194.431453 
L 207.64722 195.188396 
L 207.64722 195.188396 
L 207.853088 190.083084 
L 207.853088 190.083084 
L 208.058957 191.502441 
L 208.058957 191.502441 
L 208.264825 186.308242 
L 208.264825 186.308242 
L 208.470693 188.394952 
L 208.470693 188.394952 
L 208.676562 183.095641 
L 208.676562 183.095641 
L 208.88243 186.066274 
L 208.88243 186.066274 
L 209.088299 180.786717 
L 209.088299 180.786717 
L 209.294167 184.861373 
L 209.294167 184.861373 
L 209.500036 186.671547 
L 209.500036 186.671547 
L 209.705904 185.269826 
L 209.705904 185.269826 
L 209.911773 187.942055 
L 209.911773 187.942055 
L 210.117641 187.108218 
L 210.117641 187.108218 
L 210.32351 190.281314 
L 210.32351 190.281314 
L 210.529378 189.443244 
L 210.529378 189.443244 
L 210.735246 192.789175 
L 210.735246 192.789175 
L 210.941115 191.528543 
L 210.941115 191.528543 
L 211.146983 195.023322 
L 211.146983 195.023322 
L 211.352852 193.177875 
L 211.352852 193.177875 
L 211.55872 196.811628 
L 211.55872 196.811628 
L 211.764589 194.181725 
L 211.764589 194.181725 
L 211.970457 197.735762 
L 211.970457 197.735762 
L 212.176326 199.328659 
L 212.176326 199.328659 
L 212.382194 197.679326 
L 212.382194 197.679326 
L 212.588062 199.236245 
L 212.588062 199.236245 
L 212.793931 197.119202 
L 212.793931 197.119202 
L 212.999799 199.114203 
L 212.999799 199.114203 
L 213.205668 196.865947 
L 213.205668 196.865947 
L 213.411536 199.600255 
L 213.411536 199.600255 
L 213.617405 197.458522 
L 213.617405 197.458522 
L 213.823273 201.096506 
L 213.823273 201.096506 
L 214.029142 199.064117 
L 214.029142 199.064117 
L 214.440879 205.990891 
L 214.440879 205.990891 
L 214.646747 206.026163 
L 214.646747 206.026163 
L 214.852615 208.99609 
L 214.852615 208.99609 
L 215.058484 209.077217 
L 215.058484 209.077217 
L 215.264352 212.654533 
L 215.264352 212.654533 
L 215.470221 212.855585 
L 215.676089 216.935885 
L 215.676089 216.935885 
L 215.881958 217.454388 
L 215.881958 217.454388 
L 216.087826 222.347361 
L 216.087826 222.347361 
L 216.293695 223.306062 
L 216.293695 223.306062 
L 216.499563 228.773974 
L 216.499563 228.773974 
L 216.705431 230.266698 
L 216.705431 230.266698 
L 216.9113 236.16211 
L 216.9113 236.16211 
L 217.117168 237.96664 
L 217.117168 237.96664 
L 217.323037 244.012312 
L 217.323037 244.012312 
L 217.528905 246.035532 
L 217.528905 246.035532 
L 217.734774 252.034644 
L 217.734774 252.034644 
L 217.940642 254.410586 
L 217.940642 254.410586 
L 218.146511 260.331394 
L 218.146511 260.331394 
L 218.352379 262.976817 
L 218.352379 262.976817 
L 218.969984 276.978508 
L 218.969984 276.978508 
L 219.381721 285.335927 
L 219.381721 285.335927 
L 219.999327 294.067232 
L 219.999327 294.067232 
L 220.8228 279.838386 
L 220.8228 279.838386 
L 221.646274 268.432736 
L 221.646274 268.432736 
L 222.26388 262.130987 
L 222.26388 262.130987 
L 222.675617 259.599141 
L 222.675617 259.599141 
L 223.087353 258.391418 
L 223.087353 258.391418 
L 223.49909 258.981876 
L 223.49909 258.981876 
L 223.704959 259.515899 
L 223.704959 259.515899 
L 224.528433 263.717535 
L 224.528433 263.717535 
L 225.351906 270.599866 
L 225.351906 270.599866 
L 226.17538 280.780862 
L 226.17538 280.780862 
L 227.204722 294.137776 
L 227.204722 294.137776 
L 227.410591 294.938458 
L 228.028196 290.022205 
L 228.028196 290.022205 
L 228.85167 286.647351 
L 228.85167 286.647351 
L 229.263407 285.659727 
L 229.263407 285.659727 
L 229.675144 284.659404 
L 229.675144 284.659404 
L 230.086881 284.172647 
L 230.086881 284.172647 
L 230.498618 284.672808 
L 230.498618 284.672808 
L 230.910355 286.039962 
L 230.910355 286.039962 
L 231.52796 290.020088 
L 231.52796 290.020088 
L 232.145565 294.653457 
L 232.145565 294.653457 
L 232.351434 295.009708 
L 232.351434 295.009708 
L 232.969039 291.836612 
L 232.969039 291.836612 
L 233.380776 290.501908 
L 233.380776 290.501908 
L 235.233592 285.711224 
L 235.233592 285.711224 
L 235.645329 285.448798 
L 235.645329 285.448798 
L 235.851197 285.575073 
L 235.851197 285.575073 
L 236.262934 286.646646 
L 236.262934 286.646646 
L 237.086408 291.170671 
L 237.086408 291.170671 
L 237.704013 295.107059 
L 237.704013 295.107059 
L 237.909882 294.561044 
L 237.909882 294.561044 
L 239.556829 283.330344 
L 239.556829 283.330344 
L 240.380303 275.769374 
L 240.380303 275.769374 
L 240.997909 268.033453 
L 240.997909 268.033453 
L 241.615514 257.976616 
L 241.615514 257.976616 
L 242.438988 240.276271 
L 242.438988 240.276271 
L 243.46833 217.549623 
L 243.46833 217.549623 
L 244.085935 207.353107 
L 244.085935 207.353107 
L 244.497672 202.500344 
L 244.497672 202.500344 
L 244.703541 202.0672 
L 244.703541 202.0672 
L 245.115278 200.348028 
L 245.115278 200.348028 
L 245.321146 201.633351 
L 245.321146 201.633351 
L 245.732883 202.129279 
L 245.732883 202.129279 
L 245.938751 204.773996 
L 245.938751 204.773996 
L 246.350488 206.62297 
L 246.350488 206.62297 
L 246.556357 210.237675 
L 246.556357 210.237675 
L 246.762225 211.609062 
L 246.762225 211.609062 
L 247.173962 216.584573 
L 247.173962 216.584573 
L 247.379831 217.463559 
L 247.585699 220.741766 
L 247.585699 220.741766 
L 247.791567 221.718103 
L 247.791567 221.718103 
L 247.997436 224.286632 
L 247.997436 224.286632 
L 248.203304 225.254504 
L 248.203304 225.254504 
L 248.409173 225.350445 
L 248.409173 225.350445 
L 248.615041 227.973998 
L 248.615041 227.973998 
L 248.82091 228.215261 
L 249.026778 230.3965 
L 249.026778 230.3965 
L 249.232647 230.900894 
L 249.232647 230.900894 
L 249.438515 232.867677 
L 249.438515 232.867677 
L 249.644383 233.709274 
L 249.644383 233.709274 
L 249.850252 233.803098 
L 249.850252 233.803098 
L 250.05612 236.839338 
L 250.05612 236.839338 
L 250.261989 237.307754 
L 250.261989 237.307754 
L 250.467857 239.885453 
L 250.467857 239.885453 
L 250.673726 240.365157 
L 250.673726 240.365157 
L 250.879594 242.319948 
L 250.879594 242.319948 
L 251.085463 242.503364 
L 251.085463 242.503364 
L 251.291331 243.694156 
L 251.291331 243.694156 
L 251.4972 243.475468 
L 251.703068 242.042707 
L 251.703068 242.042707 
L 251.908936 243.474763 
L 251.908936 243.474763 
L 252.114805 241.816965 
L 252.320673 242.956965 
L 252.320673 242.956965 
L 252.526542 240.772199 
L 252.526542 240.772199 
L 252.73241 241.337967 
L 252.73241 241.337967 
L 252.938279 238.720762 
L 253.144147 239.026926 
L 253.144147 239.026926 
L 253.350016 235.902505 
L 253.350016 235.902505 
L 253.555884 235.781874 
L 253.555884 235.781874 
L 253.761752 232.027491 
L 253.761752 232.027491 
L 253.967621 231.547082 
L 253.967621 231.547082 
L 254.173489 230.039544 
L 254.173489 230.039544 
L 254.791095 222.757225 
L 254.791095 222.757225 
L 254.996963 222.059539 
L 254.996963 222.059539 
L 255.202832 219.550973 
L 255.202832 219.550973 
L 255.4087 219.758374 
L 255.614569 217.642036 
L 255.614569 217.642036 
L 255.820437 218.659995 
L 255.820437 218.659995 
L 256.026305 216.50909 
L 256.026305 216.50909 
L 256.232174 217.64768 
L 256.232174 217.64768 
L 256.438042 217.552445 
L 256.438042 217.552445 
L 256.643911 215.186379 
L 256.643911 215.186379 
L 256.849779 214.717257 
L 256.849779 214.717257 
L 257.055648 211.21754 
L 257.055648 211.21754 
L 257.261516 210.248963 
L 257.261516 210.248963 
L 257.467385 208.193998 
L 257.467385 208.193998 
L 258.496727 186.600297 
L 258.496727 186.600297 
L 259.114332 170.281215 
L 259.114332 170.281215 
L 259.320201 169.950361 
L 259.320201 169.950361 
L 259.526069 168.933813 
L 259.526069 168.933813 
L 259.731938 164.077523 
L 259.731938 164.077523 
L 259.937806 166.469691 
L 259.937806 166.469691 
L 260.143674 160.958747 
L 260.143674 160.958747 
L 260.555411 173.596106 
L 260.555411 173.596106 
L 260.76128 174.399609 
L 260.967148 184.304776 
L 260.967148 184.304776 
L 261.173017 184.907932 
L 261.173017 184.907932 
L 261.584754 205.830754 
L 261.584754 205.830754 
L 261.790622 206.749245 
L 261.790622 206.749245 
L 262.202359 221.390071 
L 262.202359 221.390071 
L 262.408227 220.545652 
L 262.408227 220.545652 
L 262.614096 225.404058 
L 262.614096 225.404058 
L 262.819964 219.140404 
L 262.819964 219.140404 
L 263.025833 223.292659 
L 263.025833 223.292659 
L 263.231701 224.092634 
L 263.43757 215.849498 
L 263.43757 215.849498 
L 263.643438 216.717197 
L 263.643438 216.717197 
L 263.849307 214.801205 
L 263.849307 214.801205 
L 264.055175 207.65151 
L 264.261043 207.098441 
L 264.261043 207.098441 
L 264.466912 199.066938 
L 264.466912 199.066938 
L 264.67278 200.283127 
L 264.67278 200.283127 
L 264.878649 200.170256 
L 264.878649 200.170256 
L 265.084517 193.646997 
L 265.496254 198.044042 
L 265.496254 198.044042 
L 265.702123 195.317493 
L 265.702123 195.317493 
L 265.907991 200.476419 
L 265.907991 200.476419 
L 266.113859 197.051479 
L 266.113859 197.051479 
L 266.525596 208.733665 
L 266.525596 208.733665 
L 266.731465 206.507277 
L 266.731465 206.507277 
L 266.937333 211.625288 
L 266.937333 211.625288 
L 267.143202 213.826279 
L 267.143202 213.826279 
L 267.34907 210.119866 
L 267.34907 210.119866 
L 267.554939 212.197404 
L 267.554939 212.197404 
L 267.760807 205.044888 
L 267.966676 208.001412 
L 267.966676 208.001412 
L 268.172544 208.165781 
L 268.172544 208.165781 
L 268.378412 200.998449 
L 268.378412 200.998449 
L 268.584281 202.785344 
L 268.584281 202.785344 
L 268.790149 202.497522 
L 268.790149 202.497522 
L 268.996018 198.702223 
L 268.996018 198.702223 
L 269.201886 202.521507 
L 269.407755 199.617186 
L 269.407755 199.617186 
L 269.613623 207.499134 
L 269.613623 207.499134 
L 269.819492 205.944331 
L 269.819492 205.944331 
L 271.260571 288.71713 
L 271.260571 288.71713 
L 271.466439 288.152773 
L 271.466439 288.152773 
L 272.907518 189.834061 
L 272.907518 189.834061 
L 273.113387 184.285729 
L 273.113387 184.285729 
L 273.319255 170.089334 
L 273.319255 170.089334 
L 273.525124 168.851276 
L 273.525124 168.851276 
L 273.730992 155.801231 
L 273.730992 155.801231 
L 273.936861 157.133113 
L 273.936861 157.133113 
L 274.142729 155.18185 
L 274.142729 155.18185 
L 274.348597 147.711882 
L 274.348597 147.711882 
L 274.554466 146.934481 
L 274.554466 146.934481 
L 274.760334 139.777731 
L 274.966203 140.98616 
L 274.966203 140.98616 
L 275.172071 135.109795 
L 275.172071 135.109795 
L 275.37794 139.906122 
L 275.37794 139.906122 
L 275.583808 137.061059 
L 275.583808 137.061059 
L 275.789677 147.065694 
L 275.789677 147.065694 
L 275.995545 149.829631 
L 275.995545 149.829631 
L 276.819019 201.591729 
L 276.819019 201.591729 
L 277.024887 209.656388 
L 277.024887 209.656388 
L 277.436624 235.848892 
L 277.436624 235.848892 
L 277.642493 241.062137 
L 277.642493 241.062137 
L 278.05423 257.374165 
L 278.05423 257.374165 
L 278.260098 258.580477 
L 278.260098 258.580477 
L 278.465966 263.067819 
L 278.465966 263.067819 
L 278.671835 259.383275 
L 278.671835 259.383275 
L 278.877703 262.068202 
L 278.877703 262.068202 
L 279.083572 261.331717 
L 279.083572 261.331717 
L 279.28944 255.123087 
L 279.28944 255.123087 
L 279.495309 253.818012 
L 279.495309 253.818012 
L 279.701177 245.158662 
L 279.701177 245.158662 
L 279.907046 245.002053 
L 279.907046 245.002053 
L 280.112914 243.478995 
L 280.112914 243.478995 
L 280.318782 238.162754 
L 280.318782 238.162754 
L 280.524651 238.966963 
L 280.524651 238.966963 
L 280.730519 234.630586 
L 280.730519 234.630586 
L 281.142256 240.222657 
L 281.142256 240.222657 
L 281.348125 240.035008 
L 281.348125 240.035008 
L 281.553993 243.879689 
L 281.553993 243.879689 
L 281.759862 244.45886 
L 281.759862 244.45886 
L 282.171599 252.835325 
L 282.171599 252.835325 
L 282.377467 255.285339 
L 282.377467 255.285339 
L 282.995072 265.086806 
L 282.995072 265.086806 
L 283.818546 274.699212 
L 283.818546 274.699212 
L 284.847888 285.441744 
L 284.847888 285.441744 
L 285.465494 292.366402 
L 285.465494 292.366402 
L 285.671362 294.946217 
L 285.671362 294.946217 
L 285.877231 293.475363 
L 285.877231 293.475363 
L 287.112441 275.852617 
L 287.112441 275.852617 
L 287.730047 267.140359 
L 287.730047 267.140359 
L 288.965257 254.473371 
L 288.965257 254.473371 
L 289.171126 254.555203 
L 289.582863 252.132701 
L 289.582863 252.132701 
L 289.788731 253.087875 
L 289.788731 253.087875 
L 290.200468 251.568344 
L 290.200468 251.568344 
L 290.406337 252.975004 
L 290.406337 252.975004 
L 290.612205 252.55879 
L 290.612205 252.55879 
L 290.818073 251.827243 
L 290.818073 251.827243 
L 291.023942 253.462467 
L 291.023942 253.462467 
L 291.22981 253.180994 
L 291.22981 253.180994 
L 291.435679 252.563729 
L 291.435679 252.563729 
L 291.641547 254.359089 
L 291.847416 254.328049 
L 291.847416 254.328049 
L 292.053284 253.910425 
L 292.053284 253.910425 
L 292.259153 256.019003 
L 292.259153 256.019003 
L 292.670889 256.716689 
L 292.670889 256.716689 
L 293.082626 261.520776 
L 293.082626 261.520776 
L 293.494363 264.901273 
L 293.494363 264.901273 
L 293.9061 274.705561 
L 293.9061 274.705561 
L 294.111969 278.82325 
L 294.111969 278.82325 
L 294.523706 295.488 
L 294.523706 295.488 
L 294.729574 291.419693 
L 294.729574 291.419693 
L 298.435206 127.064889 
L 298.435206 127.064889 
L 299.052811 112.187739 
L 299.052811 112.187739 
L 299.464548 107.904976 
L 299.464548 107.904976 
L 299.876285 106.132191 
L 299.876285 106.132191 
L 300.493891 110.941216 
L 300.493891 110.941216 
L 302.552575 150.30228 
L 302.552575 150.30228 
L 303.17018 166.078874 
L 303.17018 166.078874 
L 303.376049 170.626178 
L 303.376049 170.626178 
L 305.640602 265.301967 
L 305.640602 265.301967 
L 306.464076 293.96988 
L 306.464076 293.96988 
L 306.669944 291.264495 
L 306.669944 291.264495 
L 307.493418 264.497053 
L 307.493418 264.497053 
L 308.728629 225.47813 
L 308.728629 225.47813 
L 309.757971 187.684567 
L 309.757971 187.684567 
L 311.19905 139.453931 
L 311.19905 139.453931 
L 311.816655 125.878329 
L 311.816655 125.878329 
L 312.228392 120.02736 
L 312.228392 120.02736 
L 312.640129 117.140675 
L 312.640129 117.140675 
L 312.845998 116.742804 
L 312.845998 116.742804 
L 313.051866 116.978423 
L 313.051866 116.978423 
L 313.257734 118.004141 
L 313.257734 118.004141 
L 313.669471 122.137349 
L 313.669471 122.137349 
L 314.287077 133.086576 
L 314.287077 133.086576 
L 314.904682 148.006758 
L 314.904682 148.006758 
L 316.139893 184.574256 
L 316.139893 184.574256 
L 317.992709 240.399018 
L 317.992709 240.399018 
L 318.816183 259.997013 
L 318.816183 259.997013 
L 320.051393 282.312385 
L 320.051393 282.312385 
L 320.257262 285.763427 
L 320.257262 285.763427 
L 320.46313 295.488 
L 320.46313 295.488 
L 320.668999 293.02035 
L 320.668999 293.02035 
L 320.874867 294.00868 
L 320.874867 294.00868 
L 321.698341 274.65618 
L 321.698341 274.65618 
L 323.345289 234.400611 
L 323.345289 234.400611 
L 323.962894 224.22032 
L 323.962894 224.22032 
L 324.374631 219.747793 
L 324.374631 219.747793 
L 324.786368 216.292518 
L 324.786368 216.292518 
L 324.992236 216.031503 
L 324.992236 216.031503 
L 325.403973 214.424497 
L 325.403973 214.424497 
L 325.609841 215.237876 
L 325.609841 215.237876 
L 325.81571 214.936651 
L 325.81571 214.936651 
L 326.021578 215.547567 
L 326.021578 215.547567 
L 326.227447 215.439634 
L 326.227447 215.439634 
L 326.433315 214.795562 
L 326.433315 214.795562 
L 326.639184 215.526404 
L 326.639184 215.526404 
L 326.845052 214.971218 
L 326.845052 214.971218 
L 327.050921 215.608236 
L 327.050921 215.608236 
L 327.256789 215.493953 
L 327.256789 215.493953 
L 327.462658 214.844238 
L 327.462658 214.844238 
L 327.668526 216.411033 
L 327.668526 216.411033 
L 327.874394 216.285464 
L 327.874394 216.285464 
L 328.080263 217.981356 
L 328.080263 217.981356 
L 328.286131 218.1295 
L 328.286131 218.1295 
L 328.492 219.740033 
L 328.492 219.740033 
L 328.697868 220.180936 
L 328.697868 220.180936 
L 328.903737 219.57778 
L 328.903737 219.57778 
L 329.109605 221.896581 
L 329.109605 221.896581 
L 329.315474 221.007719 
L 329.315474 221.007719 
L 329.521342 222.782621 
L 329.521342 222.782621 
L 329.72721 221.448623 
L 329.933079 222.516668 
L 329.933079 222.516668 
L 330.138947 220.633833 
L 330.138947 220.633833 
L 330.344816 220.902608 
L 330.550684 218.492804 
L 330.550684 218.492804 
L 330.756553 218.09846 
L 330.962421 215.33805 
L 330.962421 215.33805 
L 331.16829 214.313037 
L 331.16829 214.313037 
L 331.374158 211.38332 
L 331.374158 211.38332 
L 331.580027 210.209458 
L 331.580027 210.209458 
L 331.785895 207.779196 
L 331.785895 207.779196 
L 331.991763 203.957795 
L 331.991763 203.957795 
L 332.197632 204.75636 
L 332.197632 204.75636 
L 332.4035 201.234774 
L 332.4035 201.234774 
L 332.609369 202.121519 
L 332.609369 202.121519 
L 332.815237 198.65778 
L 332.815237 198.65778 
L 333.021106 199.516307 
L 333.021106 199.516307 
L 333.226974 196.240216 
L 333.226974 196.240216 
L 333.432843 197.181987 
L 333.432843 197.181987 
L 333.638711 194.025116 
L 333.638711 194.025116 
L 333.844579 195.337245 
L 333.844579 195.337245 
L 334.050448 192.672071 
L 334.050448 192.672071 
L 334.256316 194.234633 
L 334.256316 194.234633 
L 334.462185 191.799434 
L 334.462185 191.799434 
L 334.668053 193.987727 
L 334.668053 193.987727 
L 334.873922 192.581773 
L 334.873922 192.581773 
L 335.07979 195.918533 
L 335.285659 195.289275 
L 335.285659 195.289275 
L 335.491527 199.651753 
L 335.491527 199.651753 
L 335.697396 200.403758 
L 335.697396 200.403758 
L 335.903264 206.321039 
L 335.903264 206.321039 
L 336.109132 208.11781 
L 336.109132 208.11781 
L 336.315001 215.027654 
L 336.315001 215.027654 
L 336.520869 217.290019 
L 336.520869 217.290019 
L 336.726738 224.612548 
L 336.932606 226.843874 
L 336.932606 226.843874 
L 337.138475 233.931489 
L 337.138475 233.931489 
L 337.344343 235.572357 
L 337.344343 235.572357 
L 337.75608 246.067982 
L 337.75608 246.067982 
L 337.961948 247.742005 
L 337.961948 247.742005 
L 338.167817 251.018096 
L 338.167817 251.018096 
L 338.373685 251.679805 
L 338.373685 251.679805 
L 338.579554 253.919596 
L 338.579554 253.919596 
L 338.785422 253.046959 
L 338.785422 253.046959 
L 338.991291 253.962628 
L 338.991291 253.962628 
L 339.197159 251.444891 
L 339.197159 251.444891 
L 339.403028 251.19728 
L 339.403028 251.19728 
L 339.608896 246.952611 
L 339.608896 246.952611 
L 339.814765 246.067277 
L 339.814765 246.067277 
L 340.020633 240.660739 
L 340.020633 240.660739 
L 340.226501 240.086506 
L 340.226501 240.086506 
L 340.43237 234.071168 
L 340.43237 234.071168 
L 340.638238 234.719473 
L 340.638238 234.719473 
L 340.844107 228.564456 
L 340.844107 228.564456 
L 341.049975 230.795077 
L 341.049975 230.795077 
L 341.255844 224.614664 
L 341.255844 224.614664 
L 341.461712 228.618776 
L 341.461712 228.618776 
L 341.667581 222.985084 
L 341.667581 222.985084 
L 341.873449 229.517514 
L 341.873449 229.517514 
L 342.079317 226.127141 
L 342.079317 226.127141 
L 342.285186 235.543433 
L 342.285186 235.543433 
L 342.491054 235.726144 
L 342.491054 235.726144 
L 342.696923 247.727896 
L 342.696923 247.727896 
L 342.902791 252.118592 
L 342.902791 252.118592 
L 343.520397 290.925175 
L 343.520397 290.925175 
L 343.726265 287.65755 
L 343.726265 287.65755 
L 345.373213 164.721595 
L 345.373213 164.721595 
L 346.196686 135.313669 
L 346.196686 135.313669 
L 346.402555 130.781884 
L 346.402555 130.781884 
L 346.608423 135.95633 
L 346.608423 135.95633 
L 346.814292 136.997569 
L 346.814292 136.997569 
L 347.226029 148.195113 
L 347.226029 148.195113 
L 347.431897 151.351983 
L 347.431897 151.351983 
L 347.637766 161.456086 
L 347.637766 161.456086 
L 347.843634 165.786113 
L 347.843634 165.786113 
L 348.461239 189.494742 
L 348.461239 189.494742 
L 348.667108 194.849782 
L 348.667108 194.849782 
L 349.284713 217.750675 
L 349.284713 217.750675 
L 350.108187 245.490927 
L 350.108187 245.490927 
L 350.725792 270.940596 
L 350.725792 270.940596 
L 351.343398 293.496526 
L 351.343398 293.496526 
L 351.549266 290.325546 
L 351.549266 290.325546 
L 352.166872 273.776489 
L 352.166872 273.776489 
L 352.578608 266.630321 
L 352.578608 266.630321 
L 352.990345 262.438561 
L 352.990345 262.438561 
L 353.402082 260.653783 
L 353.402082 260.653783 
L 353.607951 260.427335 
L 353.607951 260.427335 
L 353.813819 260.639674 
L 353.813819 260.639674 
L 354.019688 260.575479 
L 354.019688 260.575479 
L 354.225556 261.074229 
L 354.225556 261.074229 
L 354.431424 261.269637 
L 354.431424 261.269637 
L 354.843161 262.245269 
L 354.843161 262.245269 
L 355.04903 262.104885 
L 355.04903 262.104885 
L 355.460767 262.18319 
L 355.460767 262.18319 
L 356.284241 258.679945 
L 356.284241 258.679945 
L 356.901846 254.229287 
L 356.901846 254.229287 
L 358.137057 238.554277 
L 358.137057 238.554277 
L 359.784004 215.073508 
L 359.784004 215.073508 
L 360.195741 211.939211 
L 360.195741 211.939211 
L 360.40161 211.16957 
L 360.40161 211.16957 
L 360.607478 210.890918 
L 360.607478 210.890918 
L 360.813346 211.02848 
L 361.019215 211.614706 
L 361.019215 211.614706 
L 361.430952 213.939856 
L 361.430952 213.939856 
L 362.048557 219.517112 
L 362.048557 219.517112 
L 362.872031 227.387067 
L 362.872031 227.387067 
L 363.283768 228.967266 
L 363.283768 228.967266 
L 363.489636 228.854395 
L 363.695505 228.052303 
L 363.695505 228.052303 
L 364.107242 224.604083 
L 364.107242 224.604083 
L 365.342452 206.704096 
L 365.342452 206.704096 
L 365.548321 205.939393 
L 365.548321 205.939393 
L 365.754189 203.737696 
L 365.754189 203.737696 
L 365.960058 204.017053 
L 365.960058 204.017053 
L 366.165926 203.190976 
L 366.371795 201.703895 
L 366.371795 201.703895 
L 366.577663 204.833959 
L 366.577663 204.833959 
L 366.783531 204.332387 
L 366.783531 204.332387 
L 366.9894 207.647278 
L 366.9894 207.647278 
L 367.195268 207.657154 
L 367.195268 207.657154 
L 367.401137 210.780163 
L 367.401137 210.780163 
L 367.607005 210.98827 
L 367.607005 210.98827 
L 367.812874 213.601242 
L 367.812874 213.601242 
L 368.018742 213.774076 
L 368.018742 213.774076 
L 368.224611 212.253135 
L 368.224611 212.253135 
L 368.430479 215.898879 
L 368.430479 215.898879 
L 368.636347 214.375116 
L 368.636347 214.375116 
L 368.842216 217.590539 
L 368.842216 217.590539 
L 369.048084 216.468174 
L 369.048084 216.468174 
L 369.253953 219.378139 
L 369.253953 219.378139 
L 369.459821 218.498448 
L 369.459821 218.498448 
L 369.66569 221.175615 
L 369.66569 221.175615 
L 369.871558 220.735417 
L 369.871558 220.735417 
L 370.077427 223.259503 
L 370.077427 223.259503 
L 370.283295 223.330047 
L 370.283295 223.330047 
L 370.489164 226.06365 
L 370.489164 226.06365 
L 370.695032 226.735235 
L 370.695032 226.735235 
L 370.9009 229.306586 
L 370.9009 229.306586 
L 371.106769 230.229309 
L 371.106769 230.229309 
L 371.312637 230.210967 
L 371.312637 230.210967 
L 371.518506 232.895189 
L 371.518506 232.895189 
L 371.724374 231.881463 
L 371.724374 231.881463 
L 371.930243 233.148444 
L 371.930243 233.148444 
L 372.136111 230.61801 
L 372.136111 230.61801 
L 372.34198 230.804953 
L 372.34198 230.804953 
L 372.547848 227.235396 
L 372.753716 226.419901 
L 372.753716 226.419901 
L 372.959585 221.920566 
L 372.959585 221.920566 
L 373.165453 220.494154 
L 373.165453 220.494154 
L 373.371322 215.676664 
L 373.371322 215.676664 
L 373.57719 213.902467 
L 373.57719 213.902467 
L 373.783059 209.353752 
L 373.783059 209.353752 
L 373.988927 207.791189 
L 373.988927 207.791189 
L 374.400664 198.757248 
L 374.400664 198.757248 
L 374.606533 199.991073 
L 374.606533 199.991073 
L 374.812401 195.852221 
L 374.812401 195.852221 
L 375.018269 197.588324 
L 375.018269 197.588324 
L 375.224138 194.671304 
L 375.224138 194.671304 
L 375.430006 196.977407 
L 375.430006 196.977407 
L 375.635875 195.173582 
L 375.635875 195.173582 
L 375.841743 197.936108 
L 375.841743 197.936108 
L 376.047612 197.244771 
L 376.047612 197.244771 
L 376.25348 200.360021 
L 376.25348 200.360021 
L 376.459349 200.608338 
L 376.665217 203.953563 
L 376.665217 203.953563 
L 376.871085 205.022313 
L 376.871085 205.022313 
L 377.076954 204.882635 
L 377.076954 204.882635 
L 377.282822 210.446487 
L 377.282822 210.446487 
L 377.488691 211.030597 
L 377.488691 211.030597 
L 377.694559 216.509796 
L 377.694559 216.509796 
L 377.900428 217.905873 
L 377.900428 217.905873 
L 378.106296 223.483129 
L 378.106296 223.483129 
L 378.312165 225.662957 
L 378.312165 225.662957 
L 378.92977 239.757768 
L 378.92977 239.757768 
L 379.135638 243.215864 
L 379.135638 243.215864 
L 379.547375 252.534805 
L 379.547375 252.534805 
L 379.753244 255.669807 
L 379.753244 255.669807 
L 380.370849 271.636871 
L 380.370849 271.636871 
L 380.988454 285.751435 
L 380.988454 285.751435 
L 381.400191 295.488 
L 381.400191 295.488 
L 382.635402 273.795536 
L 382.635402 273.795536 
L 383.253007 266.79469 
L 383.253007 266.79469 
L 385.311692 248.517996 
L 385.311692 248.517996 
L 386.135166 238.632581 
L 386.135166 238.632581 
L 388.605587 208.493813 
L 388.605587 208.493813 
L 389.223192 204.254083 
L 389.223192 204.254083 
L 389.634929 202.59699 
L 389.634929 202.59699 
L 389.840798 202.267547 
L 389.840798 202.267547 
L 390.252535 202.267547 
L 390.252535 202.267547 
L 390.458403 202.682349 
L 390.458403 202.682349 
L 390.87014 204.295704 
L 390.87014 204.295704 
L 391.487745 208.269481 
L 391.487745 208.269481 
L 392.105351 214.507034 
L 392.105351 214.507034 
L 392.722956 222.266235 
L 392.722956 222.266235 
L 394.575772 249.855521 
L 394.575772 249.855521 
L 394.987509 259.375515 
L 394.987509 259.375515 
L 395.605114 279.777718 
L 395.605114 279.777718 
L 396.016851 294.875673 
L 396.016851 294.875673 
L 396.634457 273.17686 
L 396.634457 273.17686 
L 397.046194 266.981633 
L 397.046194 266.981633 
L 397.252062 266.119579 
L 397.252062 266.119579 
L 397.869667 282.42314 
L 397.869667 282.42314 
L 398.075536 276.968632 
L 398.075536 276.968632 
L 398.281404 246.470792 
L 398.281404 246.470792 
L 398.487273 235.975872 
L 398.487273 235.975872 
" clip-path="url(#p1e393fbbb4)" style="fill: none; stroke: #1f77b4; stroke-width: 1.5; stroke-linecap: square"/>
   </g>
   <g id="patch_3">
    <path d="M 57.6 307.584 
L 57.6 41.472 
" style="fill: none; stroke: #000000; stroke-width: 0.8; stroke-linejoin: miter; stroke-linecap: square"/>
   </g>
   <g id="patch_4">
    <path d="M 414.72 307.584 
L 414.72 41.472 
" style="fill: none; stroke: #000000; stroke-width: 0.8; stroke-linejoin: miter; stroke-linecap: square"/>
   </g>
   <g id="patch_5">
    <path d="M 57.6 307.584 
L 414.72 307.584 
" style="fill: none; stroke: #000000; stroke-width: 0.8; stroke-linejoin: miter; stroke-linecap: square"/>
   </g>
   <g id="patch_6">
    <path d="M 57.6 41.472 
L 414.72 41.472 
" style="fill: none; stroke: #000000; stroke-width: 0.8; stroke-linejoin: miter; stroke-linecap: square"/>
   </g>
   <g id="text_18">
    <!-- Tracking error vs Time -->
    <g transform="translate(169.584375 35.472) scale(0.12 -0.12)">
     <defs>
      <path id="DejaVuSans-76" d="M 191 3500 
L 800 3500 
L 1894 563 
L 2988 3500 
L 3597 3500 
L 2284 0 
L 1503 0 
L 191 3500 
z
" transform="scale(0.015625)"/>
     </defs>
     <use xlink:href="#DejaVuSans-54"/>
     <use xlink:href="#DejaVuSans-72" x="46.333984"/>
     <use xlink:href="#DejaVuSans-61" x="87.447266"/>
     <use xlink:href="#DejaVuSans-63" x="148.726562"/>
     <use xlink:href="#DejaVuSans-6b" x="203.707031"/>
     <use xlink:href="#DejaVuSans-69" x="261.617188"/>
     <use xlink:href="#DejaVuSans-6e" x="289.400391"/>
     <use xlink:href="#DejaVuSans-67" x="352.779297"/>
     <use xlink:href="#DejaVuSans-20" x="416.255859"/>
     <use xlink:href="#DejaVuSans-65" x="448.042969"/>
     <use xlink:href="#DejaVuSans-72" x="509.566406"/>
     <use xlink:href="#DejaVuSans-72" x="548.929688"/>
     <use xlink:href="#DejaVuSans-6f" x="587.792969"/>
     <use xlink:href="#DejaVuSans-72" x="648.974609"/>
     <use xlink:href="#DejaVuSans-20" x="690.087891"/>
     <use xlink:href="#DejaVuSans-76" x="721.875"/>
     <use xlink:href="#DejaVuSans-73" x="781.054688"/>
     <use xlink:href="#DejaVuSans-20" x="833.154297"/>
     <use xlink:href="#DejaVuSans-54" x="864.941406"/>
     <use xlink:href="#DejaVuSans-69" x="922.900391"/>
     <use xlink:href="#DejaVuSans-6d" x="950.683594"/>
     <use xlink:href="#DejaVuSans-65" x="1048.095703"/>
    </g>
   </g>
   <g id="legend_1">
    <g id="patch_7">
     <path d="M 311.00125 64.150125 
L 407.72 64.150125 
Q 409.72 64.150125 409.72 62.150125 
L 409.72 48.472 
Q 409.72 46.472 407.72 46.472 
L 311.00125 46.472 
Q 309.00125 46.472 309.00125 48.472 
L 309.00125 62.150125 
Q 309.00125 64.150125 311.00125 64.150125 
z
" style="fill: #ffffff; opacity: 0.8; stroke: #cccccc; stroke-linejoin: miter"/>
    </g>
    <g id="line2d_32">
     <path d="M 313.00125 54.570438 
L 323.00125 54.570438 
L 333.00125 54.570438 
" style="fill: none; stroke: #1f77b4; stroke-width: 1.5; stroke-linecap: square"/>
    </g>
    <g id="text_19">
     <!-- Actual speed -->
     <g transform="translate(341.00125 58.070438) scale(0.1 -0.1)">
      <defs>
       <path id="DejaVuSans-41" d="M 2188 4044 
L 1331 1722 
L 3047 1722 
L 2188 4044 
z
M 1831 4666 
L 2547 4666 
L 4325 0 
L 3669 0 
L 3244 1197 
L 1141 1197 
L 716 0 
L 50 0 
L 1831 4666 
z
" transform="scale(0.015625)"/>
       <path id="DejaVuSans-74" d="M 1172 4494 
L 1172 3500 
L 2356 3500 
L 2356 3053 
L 1172 3053 
L 1172 1153 
Q 1172 725 1289 603 
Q 1406 481 1766 481 
L 2356 481 
L 2356 0 
L 1766 0 
Q 1100 0 847 248 
Q 594 497 594 1153 
L 594 3053 
L 172 3053 
L 172 3500 
L 594 3500 
L 594 4494 
L 1172 4494 
z
" transform="scale(0.015625)"/>
       <path id="DejaVuSans-75" d="M 544 1381 
L 544 3500 
L 1119 3500 
L 1119 1403 
Q 1119 906 1312 657 
Q 1506 409 1894 409 
Q 2359 409 2629 706 
Q 2900 1003 2900 1516 
L 2900 3500 
L 3475 3500 
L 3475 0 
L 2900 0 
L 2900 538 
Q 2691 219 2414 64 
Q 2138 -91 1772 -91 
Q 1169 -91 856 284 
Q 544 659 544 1381 
z
M 1991 3584 
L 1991 3584 
z
" transform="scale(0.015625)"/>
       <path id="DejaVuSans-6c" d="M 603 4863 
L 1178 4863 
L 1178 0 
L 603 0 
L 603 4863 
z
" transform="scale(0.015625)"/>
       <path id="DejaVuSans-70" d="M 1159 525 
L 1159 -1331 
L 581 -1331 
L 581 3500 
L 1159 3500 
L 1159 2969 
Q 1341 3281 1617 3432 
Q 1894 3584 2278 3584 
Q 2916 3584 3314 3078 
Q 3713 2572 3713 1747 
Q 3713 922 3314 415 
Q 2916 -91 2278 -91 
Q 1894 -91 1617 61 
Q 1341 213 1159 525 
z
M 3116 1747 
Q 3116 2381 2855 2742 
Q 2594 3103 2138 3103 
Q 1681 3103 1420 2742 
Q 1159 2381 1159 1747 
Q 1159 1113 1420 752 
Q 1681 391 2138 391 
Q 2594 391 2855 752 
Q 3116 1113 3116 1747 
z
" transform="scale(0.015625)"/>
       <path id="DejaVuSans-64" d="M 2906 2969 
L 2906 4863 
L 3481 4863 
L 3481 0 
L 2906 0 
L 2906 525 
Q 2725 213 2448 61 
Q 2172 -91 1784 -91 
Q 1150 -91 751 415 
Q 353 922 353 1747 
Q 353 2572 751 3078 
Q 1150 3584 1784 3584 
Q 2172 3584 2448 3432 
Q 2725 3281 2906 2969 
z
M 947 1747 
Q 947 1113 1208 752 
Q 1469 391 1925 391 
Q 2381 391 2643 752 
Q 2906 1113 2906 1747 
Q 2906 2381 2643 2742 
Q 2381 3103 1925 3103 
Q 1469 3103 1208 2742 
Q 947 2381 947 1747 
z
" transform="scale(0.015625)"/>
      </defs>
      <use xlink:href="#DejaVuSans-41"/>
      <use xlink:href="#DejaVuSans-63" x="66.658203"/>
      <use xlink:href="#DejaVuSans-74" x="121.638672"/>
      <use xlink:href="#DejaVuSans-75" x="160.847656"/>
      <use xlink:href="#DejaVuSans-61" x="224.226562"/>
      <use xlink:href="#DejaVuSans-6c" x="285.505859"/>
      <use xlink:href="#DejaVuSans-20" x="313.289062"/>
      <use xlink:href="#DejaVuSans-73" x="345.076172"/>
      <use xlink:href="#DejaVuSans-70" x="397.175781"/>
      <use xlink:href="#DejaVuSans-65" x="460.652344"/>
      <use xlink:href="#DejaVuSans-65" x="522.175781"/>
      <use xlink:href="#DejaVuSans-64" x="583.699219"/>
     </g>
    </g>
   </g>
  </g>
 </g>
 <defs>
  <clipPath id="p1e393fbbb4">
   <rect x="57.6" y="41.472" width="357.12" height="266.112"/>
  </clipPath>
 </defs>
</svg>
