<?xml version="1.0" encoding="utf-8" standalone="no"?>
<!DOCTYPE svg PUBLIC "-//W3C//DTD SVG 1.1//EN"
  "http://www.w3.org/Graphics/SVG/1.1/DTD/svg11.dtd">
<svg xmlns:xlink="http://www.w3.org/1999/xlink" width="460.8pt" height="345.6pt" viewBox="0 0 460.8 345.6" xmlns="http://www.w3.org/2000/svg" version="1.1">
 <metadata>
  <rdf:RDF xmlns:dc="http://purl.org/dc/elements/1.1/" xmlns:cc="http://creativecommons.org/ns#" xmlns:rdf="http://www.w3.org/1999/02/22-rdf-syntax-ns#">
   <cc:Work>
    <dc:type rdf:resource="http://purl.org/dc/dcmitype/StillImage"/>
    <dc:date>2024-01-30T20:58:32.681411</dc:date>
    <dc:format>image/svg+xml</dc:format>
    <dc:creator>
     <cc:Agent>
      <dc:title>Matplotlib v3.7.1, https://matplotlib.org/</dc:title>
     </cc:Agent>
    </dc:creator>
   </cc:Work>
  </rdf:RDF>
 </metadata>
 <defs>
  <style type="text/css">*{stroke-linejoin: round; stroke-linecap: butt}</style>
 </defs>
 <g id="figure_1">
  <g id="patch_1">
   <path d="M 0 345.6 
L 460.8 345.6 
L 460.8 0 
L 0 0 
z
" style="fill: #ffffff"/>
  </g>
  <g id="axes_1">
   <g id="patch_2">
    <path d="M 57.6 307.584 
L 414.72 307.584 
L 414.72 41.472 
L 57.6 41.472 
z
" style="fill: #ffffff"/>
   </g>
   <g id="matplotlib.axis_1">
    <g id="xtick_1">
     <g id="line2d_1">
      <path d="M 73.832727 307.584 
L 73.832727 41.472 
" clip-path="url(#pe126722c5c)" style="fill: none; stroke: #b0b0b0; stroke-width: 0.8; stroke-linecap: square"/>
     </g>
     <g id="line2d_2">
      <defs>
       <path id="mbba49c60ea" d="M 0 0 
L 0 3.5 
" style="stroke: #000000; stroke-width: 0.8"/>
      </defs>
      <g>
       <use xlink:href="#mbba49c60ea" x="73.832727" y="307.584" style="stroke: #000000; stroke-width: 0.8"/>
      </g>
     </g>
     <g id="text_1">
      <!-- 0 -->
      <g transform="translate(70.651477 322.182437) scale(0.1 -0.1)">
       <defs>
        <path id="DejaVuSans-30" d="M 2034 4250 
Q 1547 4250 1301 3770 
Q 1056 3291 1056 2328 
Q 1056 1369 1301 889 
Q 1547 409 2034 409 
Q 2525 409 2770 889 
Q 3016 1369 3016 2328 
Q 3016 3291 2770 3770 
Q 2525 4250 2034 4250 
z
M 2034 4750 
Q 2819 4750 3233 4129 
Q 3647 3509 3647 2328 
Q 3647 1150 3233 529 
Q 2819 -91 2034 -91 
Q 1250 -91 836 529 
Q 422 1150 422 2328 
Q 422 3509 836 4129 
Q 1250 4750 2034 4750 
z
" transform="scale(0.015625)"/>
       </defs>
       <use xlink:href="#DejaVuSans-30"/>
      </g>
     </g>
    </g>
    <g id="xtick_2">
     <g id="line2d_3">
      <path d="M 125.365195 307.584 
L 125.365195 41.472 
" clip-path="url(#pe126722c5c)" style="fill: none; stroke: #b0b0b0; stroke-width: 0.8; stroke-linecap: square"/>
     </g>
     <g id="line2d_4">
      <g>
       <use xlink:href="#mbba49c60ea" x="125.365195" y="307.584" style="stroke: #000000; stroke-width: 0.8"/>
      </g>
     </g>
     <g id="text_2">
      <!-- 5 -->
      <g transform="translate(122.183945 322.182437) scale(0.1 -0.1)">
       <defs>
        <path id="DejaVuSans-35" d="M 691 4666 
L 3169 4666 
L 3169 4134 
L 1269 4134 
L 1269 2991 
Q 1406 3038 1543 3061 
Q 1681 3084 1819 3084 
Q 2600 3084 3056 2656 
Q 3513 2228 3513 1497 
Q 3513 744 3044 326 
Q 2575 -91 1722 -91 
Q 1428 -91 1123 -41 
Q 819 9 494 109 
L 494 744 
Q 775 591 1075 516 
Q 1375 441 1709 441 
Q 2250 441 2565 725 
Q 2881 1009 2881 1497 
Q 2881 1984 2565 2268 
Q 2250 2553 1709 2553 
Q 1456 2553 1204 2497 
Q 953 2441 691 2322 
L 691 4666 
z
" transform="scale(0.015625)"/>
       </defs>
       <use xlink:href="#DejaVuSans-35"/>
      </g>
     </g>
    </g>
    <g id="xtick_3">
     <g id="line2d_5">
      <path d="M 176.897662 307.584 
L 176.897662 41.472 
" clip-path="url(#pe126722c5c)" style="fill: none; stroke: #b0b0b0; stroke-width: 0.8; stroke-linecap: square"/>
     </g>
     <g id="line2d_6">
      <g>
       <use xlink:href="#mbba49c60ea" x="176.897662" y="307.584" style="stroke: #000000; stroke-width: 0.8"/>
      </g>
     </g>
     <g id="text_3">
      <!-- 10 -->
      <g transform="translate(170.535162 322.182437) scale(0.1 -0.1)">
       <defs>
        <path id="DejaVuSans-31" d="M 794 531 
L 1825 531 
L 1825 4091 
L 703 3866 
L 703 4441 
L 1819 4666 
L 2450 4666 
L 2450 531 
L 3481 531 
L 3481 0 
L 794 0 
L 794 531 
z
" transform="scale(0.015625)"/>
       </defs>
       <use xlink:href="#DejaVuSans-31"/>
       <use xlink:href="#DejaVuSans-30" x="63.623047"/>
      </g>
     </g>
    </g>
    <g id="xtick_4">
     <g id="line2d_7">
      <path d="M 228.43013 307.584 
L 228.43013 41.472 
" clip-path="url(#pe126722c5c)" style="fill: none; stroke: #b0b0b0; stroke-width: 0.8; stroke-linecap: square"/>
     </g>
     <g id="line2d_8">
      <g>
       <use xlink:href="#mbba49c60ea" x="228.43013" y="307.584" style="stroke: #000000; stroke-width: 0.8"/>
      </g>
     </g>
     <g id="text_4">
      <!-- 15 -->
      <g transform="translate(222.06763 322.182437) scale(0.1 -0.1)">
       <use xlink:href="#DejaVuSans-31"/>
       <use xlink:href="#DejaVuSans-35" x="63.623047"/>
      </g>
     </g>
    </g>
    <g id="xtick_5">
     <g id="line2d_9">
      <path d="M 279.962597 307.584 
L 279.962597 41.472 
" clip-path="url(#pe126722c5c)" style="fill: none; stroke: #b0b0b0; stroke-width: 0.8; stroke-linecap: square"/>
     </g>
     <g id="line2d_10">
      <g>
       <use xlink:href="#mbba49c60ea" x="279.962597" y="307.584" style="stroke: #000000; stroke-width: 0.8"/>
      </g>
     </g>
     <g id="text_5">
      <!-- 20 -->
      <g transform="translate(273.600097 322.182437) scale(0.1 -0.1)">
       <defs>
        <path id="DejaVuSans-32" d="M 1228 531 
L 3431 531 
L 3431 0 
L 469 0 
L 469 531 
Q 828 903 1448 1529 
Q 2069 2156 2228 2338 
Q 2531 2678 2651 2914 
Q 2772 3150 2772 3378 
Q 2772 3750 2511 3984 
Q 2250 4219 1831 4219 
Q 1534 4219 1204 4116 
Q 875 4013 500 3803 
L 500 4441 
Q 881 4594 1212 4672 
Q 1544 4750 1819 4750 
Q 2544 4750 2975 4387 
Q 3406 4025 3406 3419 
Q 3406 3131 3298 2873 
Q 3191 2616 2906 2266 
Q 2828 2175 2409 1742 
Q 1991 1309 1228 531 
z
" transform="scale(0.015625)"/>
       </defs>
       <use xlink:href="#DejaVuSans-32"/>
       <use xlink:href="#DejaVuSans-30" x="63.623047"/>
      </g>
     </g>
    </g>
    <g id="xtick_6">
     <g id="line2d_11">
      <path d="M 331.495065 307.584 
L 331.495065 41.472 
" clip-path="url(#pe126722c5c)" style="fill: none; stroke: #b0b0b0; stroke-width: 0.8; stroke-linecap: square"/>
     </g>
     <g id="line2d_12">
      <g>
       <use xlink:href="#mbba49c60ea" x="331.495065" y="307.584" style="stroke: #000000; stroke-width: 0.8"/>
      </g>
     </g>
     <g id="text_6">
      <!-- 25 -->
      <g transform="translate(325.132565 322.182437) scale(0.1 -0.1)">
       <use xlink:href="#DejaVuSans-32"/>
       <use xlink:href="#DejaVuSans-35" x="63.623047"/>
      </g>
     </g>
    </g>
    <g id="xtick_7">
     <g id="line2d_13">
      <path d="M 383.027532 307.584 
L 383.027532 41.472 
" clip-path="url(#pe126722c5c)" style="fill: none; stroke: #b0b0b0; stroke-width: 0.8; stroke-linecap: square"/>
     </g>
     <g id="line2d_14">
      <g>
       <use xlink:href="#mbba49c60ea" x="383.027532" y="307.584" style="stroke: #000000; stroke-width: 0.8"/>
      </g>
     </g>
     <g id="text_7">
      <!-- 30 -->
      <g transform="translate(376.665032 322.182437) scale(0.1 -0.1)">
       <defs>
        <path id="DejaVuSans-33" d="M 2597 2516 
Q 3050 2419 3304 2112 
Q 3559 1806 3559 1356 
Q 3559 666 3084 287 
Q 2609 -91 1734 -91 
Q 1441 -91 1130 -33 
Q 819 25 488 141 
L 488 750 
Q 750 597 1062 519 
Q 1375 441 1716 441 
Q 2309 441 2620 675 
Q 2931 909 2931 1356 
Q 2931 1769 2642 2001 
Q 2353 2234 1838 2234 
L 1294 2234 
L 1294 2753 
L 1863 2753 
Q 2328 2753 2575 2939 
Q 2822 3125 2822 3475 
Q 2822 3834 2567 4026 
Q 2313 4219 1838 4219 
Q 1578 4219 1281 4162 
Q 984 4106 628 3988 
L 628 4550 
Q 988 4650 1302 4700 
Q 1616 4750 1894 4750 
Q 2613 4750 3031 4423 
Q 3450 4097 3450 3541 
Q 3450 3153 3228 2886 
Q 3006 2619 2597 2516 
z
" transform="scale(0.015625)"/>
       </defs>
       <use xlink:href="#DejaVuSans-33"/>
       <use xlink:href="#DejaVuSans-30" x="63.623047"/>
      </g>
     </g>
    </g>
    <g id="text_8">
     <!-- Time(s) -->
     <g transform="translate(217.420156 335.860562) scale(0.1 -0.1)">
      <defs>
       <path id="DejaVuSans-54" d="M -19 4666 
L 3928 4666 
L 3928 4134 
L 2272 4134 
L 2272 0 
L 1638 0 
L 1638 4134 
L -19 4134 
L -19 4666 
z
" transform="scale(0.015625)"/>
       <path id="DejaVuSans-69" d="M 603 3500 
L 1178 3500 
L 1178 0 
L 603 0 
L 603 3500 
z
M 603 4863 
L 1178 4863 
L 1178 4134 
L 603 4134 
L 603 4863 
z
" transform="scale(0.015625)"/>
       <path id="DejaVuSans-6d" d="M 3328 2828 
Q 3544 3216 3844 3400 
Q 4144 3584 4550 3584 
Q 5097 3584 5394 3201 
Q 5691 2819 5691 2113 
L 5691 0 
L 5113 0 
L 5113 2094 
Q 5113 2597 4934 2840 
Q 4756 3084 4391 3084 
Q 3944 3084 3684 2787 
Q 3425 2491 3425 1978 
L 3425 0 
L 2847 0 
L 2847 2094 
Q 2847 2600 2669 2842 
Q 2491 3084 2119 3084 
Q 1678 3084 1418 2786 
Q 1159 2488 1159 1978 
L 1159 0 
L 581 0 
L 581 3500 
L 1159 3500 
L 1159 2956 
Q 1356 3278 1631 3431 
Q 1906 3584 2284 3584 
Q 2666 3584 2933 3390 
Q 3200 3197 3328 2828 
z
" transform="scale(0.015625)"/>
       <path id="DejaVuSans-65" d="M 3597 1894 
L 3597 1613 
L 953 1613 
Q 991 1019 1311 708 
Q 1631 397 2203 397 
Q 2534 397 2845 478 
Q 3156 559 3463 722 
L 3463 178 
Q 3153 47 2828 -22 
Q 2503 -91 2169 -91 
Q 1331 -91 842 396 
Q 353 884 353 1716 
Q 353 2575 817 3079 
Q 1281 3584 2069 3584 
Q 2775 3584 3186 3129 
Q 3597 2675 3597 1894 
z
M 3022 2063 
Q 3016 2534 2758 2815 
Q 2500 3097 2075 3097 
Q 1594 3097 1305 2825 
Q 1016 2553 972 2059 
L 3022 2063 
z
" transform="scale(0.015625)"/>
       <path id="DejaVuSans-28" d="M 1984 4856 
Q 1566 4138 1362 3434 
Q 1159 2731 1159 2009 
Q 1159 1288 1364 580 
Q 1569 -128 1984 -844 
L 1484 -844 
Q 1016 -109 783 600 
Q 550 1309 550 2009 
Q 550 2706 781 3412 
Q 1013 4119 1484 4856 
L 1984 4856 
z
" transform="scale(0.015625)"/>
       <path id="DejaVuSans-73" d="M 2834 3397 
L 2834 2853 
Q 2591 2978 2328 3040 
Q 2066 3103 1784 3103 
Q 1356 3103 1142 2972 
Q 928 2841 928 2578 
Q 928 2378 1081 2264 
Q 1234 2150 1697 2047 
L 1894 2003 
Q 2506 1872 2764 1633 
Q 3022 1394 3022 966 
Q 3022 478 2636 193 
Q 2250 -91 1575 -91 
Q 1294 -91 989 -36 
Q 684 19 347 128 
L 347 722 
Q 666 556 975 473 
Q 1284 391 1588 391 
Q 1994 391 2212 530 
Q 2431 669 2431 922 
Q 2431 1156 2273 1281 
Q 2116 1406 1581 1522 
L 1381 1569 
Q 847 1681 609 1914 
Q 372 2147 372 2553 
Q 372 3047 722 3315 
Q 1072 3584 1716 3584 
Q 2034 3584 2315 3537 
Q 2597 3491 2834 3397 
z
" transform="scale(0.015625)"/>
       <path id="DejaVuSans-29" d="M 513 4856 
L 1013 4856 
Q 1481 4119 1714 3412 
Q 1947 2706 1947 2009 
Q 1947 1309 1714 600 
Q 1481 -109 1013 -844 
L 513 -844 
Q 928 -128 1133 580 
Q 1338 1288 1338 2009 
Q 1338 2731 1133 3434 
Q 928 4138 513 4856 
z
" transform="scale(0.015625)"/>
      </defs>
      <use xlink:href="#DejaVuSans-54"/>
      <use xlink:href="#DejaVuSans-69" x="57.958984"/>
      <use xlink:href="#DejaVuSans-6d" x="85.742188"/>
      <use xlink:href="#DejaVuSans-65" x="183.154297"/>
      <use xlink:href="#DejaVuSans-28" x="244.677734"/>
      <use xlink:href="#DejaVuSans-73" x="283.691406"/>
      <use xlink:href="#DejaVuSans-29" x="335.791016"/>
     </g>
    </g>
   </g>
   <g id="matplotlib.axis_2">
    <g id="ytick_1">
     <g id="line2d_15">
      <path d="M 57.6 295.488 
L 414.72 295.488 
" clip-path="url(#pe126722c5c)" style="fill: none; stroke: #b0b0b0; stroke-width: 0.8; stroke-linecap: square"/>
     </g>
     <g id="line2d_16">
      <defs>
       <path id="m3f04be3c4e" d="M 0 0 
L -3.5 0 
" style="stroke: #000000; stroke-width: 0.8"/>
      </defs>
      <g>
       <use xlink:href="#m3f04be3c4e" x="57.6" y="295.488" style="stroke: #000000; stroke-width: 0.8"/>
      </g>
     </g>
     <g id="text_9">
      <!-- 0.00 -->
      <g transform="translate(28.334375 299.287219) scale(0.1 -0.1)">
       <defs>
        <path id="DejaVuSans-2e" d="M 684 794 
L 1344 794 
L 1344 0 
L 684 0 
L 684 794 
z
" transform="scale(0.015625)"/>
       </defs>
       <use xlink:href="#DejaVuSans-30"/>
       <use xlink:href="#DejaVuSans-2e" x="63.623047"/>
       <use xlink:href="#DejaVuSans-30" x="95.410156"/>
       <use xlink:href="#DejaVuSans-30" x="159.033203"/>
      </g>
     </g>
    </g>
    <g id="ytick_2">
     <g id="line2d_17">
      <path d="M 57.6 255.244463 
L 414.72 255.244463 
" clip-path="url(#pe126722c5c)" style="fill: none; stroke: #b0b0b0; stroke-width: 0.8; stroke-linecap: square"/>
     </g>
     <g id="line2d_18">
      <g>
       <use xlink:href="#m3f04be3c4e" x="57.6" y="255.244463" style="stroke: #000000; stroke-width: 0.8"/>
      </g>
     </g>
     <g id="text_10">
      <!-- 0.05 -->
      <g transform="translate(28.334375 259.043681) scale(0.1 -0.1)">
       <use xlink:href="#DejaVuSans-30"/>
       <use xlink:href="#DejaVuSans-2e" x="63.623047"/>
       <use xlink:href="#DejaVuSans-30" x="95.410156"/>
       <use xlink:href="#DejaVuSans-35" x="159.033203"/>
      </g>
     </g>
    </g>
    <g id="ytick_3">
     <g id="line2d_19">
      <path d="M 57.6 215.000925 
L 414.72 215.000925 
" clip-path="url(#pe126722c5c)" style="fill: none; stroke: #b0b0b0; stroke-width: 0.8; stroke-linecap: square"/>
     </g>
     <g id="line2d_20">
      <g>
       <use xlink:href="#m3f04be3c4e" x="57.6" y="215.000925" style="stroke: #000000; stroke-width: 0.8"/>
      </g>
     </g>
     <g id="text_11">
      <!-- 0.10 -->
      <g transform="translate(28.334375 218.800144) scale(0.1 -0.1)">
       <use xlink:href="#DejaVuSans-30"/>
       <use xlink:href="#DejaVuSans-2e" x="63.623047"/>
       <use xlink:href="#DejaVuSans-31" x="95.410156"/>
       <use xlink:href="#DejaVuSans-30" x="159.033203"/>
      </g>
     </g>
    </g>
    <g id="ytick_4">
     <g id="line2d_21">
      <path d="M 57.6 174.757388 
L 414.72 174.757388 
" clip-path="url(#pe126722c5c)" style="fill: none; stroke: #b0b0b0; stroke-width: 0.8; stroke-linecap: square"/>
     </g>
     <g id="line2d_22">
      <g>
       <use xlink:href="#m3f04be3c4e" x="57.6" y="174.757388" style="stroke: #000000; stroke-width: 0.8"/>
      </g>
     </g>
     <g id="text_12">
      <!-- 0.15 -->
      <g transform="translate(28.334375 178.556607) scale(0.1 -0.1)">
       <use xlink:href="#DejaVuSans-30"/>
       <use xlink:href="#DejaVuSans-2e" x="63.623047"/>
       <use xlink:href="#DejaVuSans-31" x="95.410156"/>
       <use xlink:href="#DejaVuSans-35" x="159.033203"/>
      </g>
     </g>
    </g>
    <g id="ytick_5">
     <g id="line2d_23">
      <path d="M 57.6 134.513851 
L 414.72 134.513851 
" clip-path="url(#pe126722c5c)" style="fill: none; stroke: #b0b0b0; stroke-width: 0.8; stroke-linecap: square"/>
     </g>
     <g id="line2d_24">
      <g>
       <use xlink:href="#m3f04be3c4e" x="57.6" y="134.513851" style="stroke: #000000; stroke-width: 0.8"/>
      </g>
     </g>
     <g id="text_13">
      <!-- 0.20 -->
      <g transform="translate(28.334375 138.31307) scale(0.1 -0.1)">
       <use xlink:href="#DejaVuSans-30"/>
       <use xlink:href="#DejaVuSans-2e" x="63.623047"/>
       <use xlink:href="#DejaVuSans-32" x="95.410156"/>
       <use xlink:href="#DejaVuSans-30" x="159.033203"/>
      </g>
     </g>
    </g>
    <g id="ytick_6">
     <g id="line2d_25">
      <path d="M 57.6 94.270314 
L 414.72 94.270314 
" clip-path="url(#pe126722c5c)" style="fill: none; stroke: #b0b0b0; stroke-width: 0.8; stroke-linecap: square"/>
     </g>
     <g id="line2d_26">
      <g>
       <use xlink:href="#m3f04be3c4e" x="57.6" y="94.270314" style="stroke: #000000; stroke-width: 0.8"/>
      </g>
     </g>
     <g id="text_14">
      <!-- 0.25 -->
      <g transform="translate(28.334375 98.069532) scale(0.1 -0.1)">
       <use xlink:href="#DejaVuSans-30"/>
       <use xlink:href="#DejaVuSans-2e" x="63.623047"/>
       <use xlink:href="#DejaVuSans-32" x="95.410156"/>
       <use xlink:href="#DejaVuSans-35" x="159.033203"/>
      </g>
     </g>
    </g>
    <g id="ytick_7">
     <g id="line2d_27">
      <path d="M 57.6 54.026776 
L 414.72 54.026776 
" clip-path="url(#pe126722c5c)" style="fill: none; stroke: #b0b0b0; stroke-width: 0.8; stroke-linecap: square"/>
     </g>
     <g id="line2d_28">
      <g>
       <use xlink:href="#m3f04be3c4e" x="57.6" y="54.026776" style="stroke: #000000; stroke-width: 0.8"/>
      </g>
     </g>
     <g id="text_15">
      <!-- 0.30 -->
      <g transform="translate(28.334375 57.825995) scale(0.1 -0.1)">
       <use xlink:href="#DejaVuSans-30"/>
       <use xlink:href="#DejaVuSans-2e" x="63.623047"/>
       <use xlink:href="#DejaVuSans-33" x="95.410156"/>
       <use xlink:href="#DejaVuSans-30" x="159.033203"/>
      </g>
     </g>
    </g>
    <g id="text_16">
     <!-- Tracking error(m) -->
     <g transform="translate(22.254687 217.803781) rotate(-90) scale(0.1 -0.1)">
      <defs>
       <path id="DejaVuSans-72" d="M 2631 2963 
Q 2534 3019 2420 3045 
Q 2306 3072 2169 3072 
Q 1681 3072 1420 2755 
Q 1159 2438 1159 1844 
L 1159 0 
L 581 0 
L 581 3500 
L 1159 3500 
L 1159 2956 
Q 1341 3275 1631 3429 
Q 1922 3584 2338 3584 
Q 2397 3584 2469 3576 
Q 2541 3569 2628 3553 
L 2631 2963 
z
" transform="scale(0.015625)"/>
       <path id="DejaVuSans-61" d="M 2194 1759 
Q 1497 1759 1228 1600 
Q 959 1441 959 1056 
Q 959 750 1161 570 
Q 1363 391 1709 391 
Q 2188 391 2477 730 
Q 2766 1069 2766 1631 
L 2766 1759 
L 2194 1759 
z
M 3341 1997 
L 3341 0 
L 2766 0 
L 2766 531 
Q 2569 213 2275 61 
Q 1981 -91 1556 -91 
Q 1019 -91 701 211 
Q 384 513 384 1019 
Q 384 1609 779 1909 
Q 1175 2209 1959 2209 
L 2766 2209 
L 2766 2266 
Q 2766 2663 2505 2880 
Q 2244 3097 1772 3097 
Q 1472 3097 1187 3025 
Q 903 2953 641 2809 
L 641 3341 
Q 956 3463 1253 3523 
Q 1550 3584 1831 3584 
Q 2591 3584 2966 3190 
Q 3341 2797 3341 1997 
z
" transform="scale(0.015625)"/>
       <path id="DejaVuSans-63" d="M 3122 3366 
L 3122 2828 
Q 2878 2963 2633 3030 
Q 2388 3097 2138 3097 
Q 1578 3097 1268 2742 
Q 959 2388 959 1747 
Q 959 1106 1268 751 
Q 1578 397 2138 397 
Q 2388 397 2633 464 
Q 2878 531 3122 666 
L 3122 134 
Q 2881 22 2623 -34 
Q 2366 -91 2075 -91 
Q 1284 -91 818 406 
Q 353 903 353 1747 
Q 353 2603 823 3093 
Q 1294 3584 2113 3584 
Q 2378 3584 2631 3529 
Q 2884 3475 3122 3366 
z
" transform="scale(0.015625)"/>
       <path id="DejaVuSans-6b" d="M 581 4863 
L 1159 4863 
L 1159 1991 
L 2875 3500 
L 3609 3500 
L 1753 1863 
L 3688 0 
L 2938 0 
L 1159 1709 
L 1159 0 
L 581 0 
L 581 4863 
z
" transform="scale(0.015625)"/>
       <path id="DejaVuSans-6e" d="M 3513 2113 
L 3513 0 
L 2938 0 
L 2938 2094 
Q 2938 2591 2744 2837 
Q 2550 3084 2163 3084 
Q 1697 3084 1428 2787 
Q 1159 2491 1159 1978 
L 1159 0 
L 581 0 
L 581 3500 
L 1159 3500 
L 1159 2956 
Q 1366 3272 1645 3428 
Q 1925 3584 2291 3584 
Q 2894 3584 3203 3211 
Q 3513 2838 3513 2113 
z
" transform="scale(0.015625)"/>
       <path id="DejaVuSans-67" d="M 2906 1791 
Q 2906 2416 2648 2759 
Q 2391 3103 1925 3103 
Q 1463 3103 1205 2759 
Q 947 2416 947 1791 
Q 947 1169 1205 825 
Q 1463 481 1925 481 
Q 2391 481 2648 825 
Q 2906 1169 2906 1791 
z
M 3481 434 
Q 3481 -459 3084 -895 
Q 2688 -1331 1869 -1331 
Q 1566 -1331 1297 -1286 
Q 1028 -1241 775 -1147 
L 775 -588 
Q 1028 -725 1275 -790 
Q 1522 -856 1778 -856 
Q 2344 -856 2625 -561 
Q 2906 -266 2906 331 
L 2906 616 
Q 2728 306 2450 153 
Q 2172 0 1784 0 
Q 1141 0 747 490 
Q 353 981 353 1791 
Q 353 2603 747 3093 
Q 1141 3584 1784 3584 
Q 2172 3584 2450 3431 
Q 2728 3278 2906 2969 
L 2906 3500 
L 3481 3500 
L 3481 434 
z
" transform="scale(0.015625)"/>
       <path id="DejaVuSans-20" transform="scale(0.015625)"/>
       <path id="DejaVuSans-6f" d="M 1959 3097 
Q 1497 3097 1228 2736 
Q 959 2375 959 1747 
Q 959 1119 1226 758 
Q 1494 397 1959 397 
Q 2419 397 2687 759 
Q 2956 1122 2956 1747 
Q 2956 2369 2687 2733 
Q 2419 3097 1959 3097 
z
M 1959 3584 
Q 2709 3584 3137 3096 
Q 3566 2609 3566 1747 
Q 3566 888 3137 398 
Q 2709 -91 1959 -91 
Q 1206 -91 779 398 
Q 353 888 353 1747 
Q 353 2609 779 3096 
Q 1206 3584 1959 3584 
z
" transform="scale(0.015625)"/>
      </defs>
      <use xlink:href="#DejaVuSans-54"/>
      <use xlink:href="#DejaVuSans-72" x="46.333984"/>
      <use xlink:href="#DejaVuSans-61" x="87.447266"/>
      <use xlink:href="#DejaVuSans-63" x="148.726562"/>
      <use xlink:href="#DejaVuSans-6b" x="203.707031"/>
      <use xlink:href="#DejaVuSans-69" x="261.617188"/>
      <use xlink:href="#DejaVuSans-6e" x="289.400391"/>
      <use xlink:href="#DejaVuSans-67" x="352.779297"/>
      <use xlink:href="#DejaVuSans-20" x="416.255859"/>
      <use xlink:href="#DejaVuSans-65" x="448.042969"/>
      <use xlink:href="#DejaVuSans-72" x="509.566406"/>
      <use xlink:href="#DejaVuSans-72" x="548.929688"/>
      <use xlink:href="#DejaVuSans-6f" x="587.792969"/>
      <use xlink:href="#DejaVuSans-72" x="648.974609"/>
      <use xlink:href="#DejaVuSans-28" x="690.087891"/>
      <use xlink:href="#DejaVuSans-6d" x="729.101562"/>
      <use xlink:href="#DejaVuSans-29" x="826.513672"/>
     </g>
    </g>
   </g>
   <g id="line2d_29">
    <path d="M 73.832727 199.43875 
L 74.244987 184.039962 
L 74.244987 184.039962 
L 74.451117 182.308685 
L 74.451117 182.308685 
L 74.863377 163.494832 
L 74.863377 163.494832 
L 75.481766 149.2124 
L 75.481766 149.2124 
L 75.687896 146.539425 
L 75.687896 146.539425 
L 75.894026 145.315216 
L 75.894026 145.315216 
L 76.100156 145.35707 
L 76.306286 146.337402 
L 76.306286 146.337402 
L 76.718545 150.951726 
L 76.718545 150.951726 
L 77.336935 162.971666 
L 77.336935 162.971666 
L 80.016623 223.421483 
L 80.016623 223.421483 
L 80.635013 233.021177 
L 80.635013 233.021177 
L 81.253403 239.638824 
L 81.253403 239.638824 
L 81.665662 242.109777 
L 81.665662 242.109777 
L 82.077922 243.078037 
L 82.077922 243.078037 
L 82.284052 243.55452 
L 82.490182 243.573837 
L 82.490182 243.573837 
L 82.902442 243.189914 
L 82.902442 243.189914 
L 83.108571 242.878429 
L 83.108571 242.878429 
L 83.314701 243.251889 
L 83.314701 243.251889 
L 83.726961 243.373424 
L 83.726961 243.373424 
L 83.933091 243.624544 
L 83.933091 243.624544 
L 84.139221 244.054345 
L 84.139221 244.054345 
L 85.58213 255.493973 
L 85.58213 255.493973 
L 86.406649 263.578899 
L 86.406649 263.578899 
L 87.231169 271.363609 
L 87.231169 271.363609 
L 87.849558 279.931458 
L 87.849558 279.931458 
L 88.674078 291.721205 
L 88.674078 291.721205 
L 88.880208 295.488 
L 88.880208 295.488 
L 89.292468 291.012114 
L 89.292468 291.012114 
L 89.704727 283.711131 
L 89.704727 283.711131 
L 90.116987 278.245254 
L 90.116987 278.245254 
L 92.178286 230.006936 
L 92.178286 230.006936 
L 93.208935 205.076064 
L 93.208935 205.076064 
L 93.827325 194.633671 
L 93.827325 194.633671 
L 94.239584 185.759166 
L 94.239584 185.759166 
L 94.445714 184.732956 
L 94.445714 184.732956 
L 94.651844 180.882455 
L 94.651844 180.882455 
L 94.857974 180.162095 
L 94.857974 180.162095 
L 95.064104 177.338609 
L 95.064104 177.338609 
L 95.270234 177.126123 
L 95.270234 177.126123 
L 95.682494 173.183061 
L 95.682494 173.183061 
L 95.888623 175.27331 
L 95.888623 175.27331 
L 96.094753 173.835006 
L 96.094753 173.835006 
L 96.300883 176.498324 
L 96.300883 176.498324 
L 96.507013 175.976767 
L 96.507013 175.976767 
L 96.713143 178.737474 
L 96.713143 178.737474 
L 96.919273 178.719767 
L 96.919273 178.719767 
L 97.125403 181.224525 
L 97.125403 181.224525 
L 97.331532 181.307426 
L 97.537662 183.322018 
L 97.537662 183.322018 
L 97.743792 183.384798 
L 97.743792 183.384798 
L 97.949922 182.085736 
L 97.949922 182.085736 
L 98.156052 184.627518 
L 98.156052 184.627518 
L 98.362182 182.648341 
L 98.362182 182.648341 
L 98.568312 183.647186 
L 98.568312 183.647186 
L 98.774442 180.300533 
L 98.774442 180.300533 
L 98.980571 179.768513 
L 99.186701 174.893411 
L 99.186701 174.893411 
L 99.392831 173.221695 
L 99.598961 167.294627 
L 99.598961 167.294627 
L 99.805091 165.362937 
L 99.805091 165.362937 
L 100.011221 159.842328 
L 100.011221 159.842328 
L 100.217351 159.249139 
L 100.217351 159.249139 
L 100.62961 152.468907 
L 100.62961 152.468907 
L 100.83574 158.573047 
L 100.83574 158.573047 
L 101.04187 158.630998 
L 101.04187 158.630998 
L 101.248 166.170222 
L 101.248 166.170222 
L 101.45413 168.92127 
L 101.45413 168.92127 
L 102.072519 191.706356 
L 102.072519 191.706356 
L 102.484779 207.984867 
L 102.484779 207.984867 
L 103.309299 242.388262 
L 103.309299 242.388262 
L 104.339948 295.377733 
L 104.339948 295.377733 
L 106.607377 189.149282 
L 106.607377 189.149282 
L 107.019636 179.930292 
L 107.019636 179.930292 
L 107.225766 174.856387 
L 107.225766 174.856387 
L 107.431896 175.563869 
L 107.431896 175.563869 
L 107.844156 172.581823 
L 107.844156 172.581823 
L 108.256416 182.129199 
L 108.256416 182.129199 
L 108.462545 186.767669 
L 108.462545 186.767669 
L 110.317714 295.397854 
L 110.317714 295.397854 
L 111.348364 236.379097 
L 111.348364 236.379097 
L 112.379013 175.118775 
L 112.379013 175.118775 
L 113.821922 89.085336 
L 113.821922 89.085336 
L 114.646442 58.161397 
L 114.646442 58.161397 
L 114.852571 53.568 
L 114.852571 53.568 
L 115.264831 54.833257 
L 115.264831 54.833257 
L 115.470961 58.033423 
L 115.470961 58.033423 
L 115.677091 64.042588 
L 115.677091 64.042588 
L 115.883221 73.334821 
L 115.883221 73.334821 
L 116.70774 141.256253 
L 116.70774 141.256253 
L 118.150649 288.692476 
L 118.150649 288.692476 
L 118.356779 282.310656 
L 119.387429 193.193757 
L 119.387429 193.193757 
L 120.211948 141.401935 
L 120.211948 141.401935 
L 120.624208 123.900825 
L 120.624208 123.900825 
L 121.036468 114.481423 
L 121.036468 114.481423 
L 121.242597 112.158566 
L 121.242597 112.158566 
L 121.448727 111.220087 
L 121.448727 111.220087 
L 121.654857 111.360939 
L 121.654857 111.360939 
L 122.067117 113.138898 
L 122.067117 113.138898 
L 123.303896 121.143338 
L 123.303896 121.143338 
L 123.716156 124.795037 
L 123.716156 124.795037 
L 124.334545 135.14487 
L 124.334545 135.14487 
L 124.746805 144.694661 
L 124.746805 144.694661 
L 125.983584 188.10134 
L 125.983584 188.10134 
L 128.044883 290.808481 
L 128.044883 290.808481 
L 128.251013 288.365699 
L 128.251013 288.365699 
L 129.693922 215.434751 
L 129.693922 215.434751 
L 130.518442 184.072962 
L 130.518442 184.072962 
L 131.136831 168.206545 
L 131.136831 168.206545 
L 131.755221 158.006418 
L 131.755221 158.006418 
L 132.167481 153.752676 
L 132.167481 153.752676 
L 132.78587 151.531233 
L 132.78587 151.531233 
L 132.992 151.317137 
L 132.992 151.317137 
L 133.19813 151.394405 
L 133.19813 151.394405 
L 134.022649 156.226044 
L 134.022649 156.226044 
L 135.671688 176.921686 
L 135.671688 176.921686 
L 136.290078 187.235299 
L 136.290078 187.235299 
L 137.114597 198.892242 
L 137.114597 198.892242 
L 137.526857 204.360534 
L 137.526857 204.360534 
L 137.732987 205.707083 
L 137.732987 205.707083 
L 137.939117 207.835161 
L 137.939117 207.835161 
L 138.145247 208.598179 
L 138.145247 208.598179 
L 138.351377 208.56035 
L 138.351377 208.56035 
L 138.557506 209.535048 
L 138.557506 209.535048 
L 138.763636 209.328196 
L 138.763636 209.328196 
L 138.969766 208.731787 
L 138.969766 208.731787 
L 139.175896 209.922996 
L 139.175896 209.922996 
L 139.382026 209.765241 
L 139.382026 209.765241 
L 139.588156 209.103637 
L 139.588156 209.103637 
L 139.794286 210.585405 
L 139.794286 210.585405 
L 140.000416 210.669916 
L 140.000416 210.669916 
L 140.206545 210.391431 
L 140.206545 210.391431 
L 140.412675 212.872847 
L 140.412675 212.872847 
L 140.618805 213.533646 
L 140.618805 213.533646 
L 140.824935 213.736474 
L 140.824935 213.736474 
L 141.031065 217.185345 
L 141.237195 218.194653 
L 141.237195 218.194653 
L 141.443325 218.549601 
L 141.443325 218.549601 
L 141.649455 222.637539 
L 141.649455 222.637539 
L 141.855584 223.603384 
L 141.855584 223.603384 
L 142.267844 228.348902 
L 142.267844 228.348902 
L 142.473974 229.036262 
L 142.473974 229.036262 
L 142.680104 232.62679 
L 142.680104 232.62679 
L 142.886234 233.803511 
L 142.886234 233.803511 
L 143.092364 234.151215 
L 143.092364 234.151215 
L 143.298494 238.092667 
L 143.298494 238.092667 
L 143.504623 238.964342 
L 143.504623 238.964342 
L 143.710753 239.031146 
L 143.710753 239.031146 
L 143.916883 243.418497 
L 143.916883 243.418497 
L 144.123013 244.104247 
L 144.123013 244.104247 
L 144.329143 247.5998 
L 144.329143 247.5998 
L 144.535273 248.937496 
L 144.535273 248.937496 
L 144.741403 249.522637 
L 144.741403 249.522637 
L 144.947532 253.602526 
L 144.947532 253.602526 
L 145.153662 254.898368 
L 145.153662 254.898368 
L 145.359792 255.418315 
L 145.359792 255.418315 
L 145.565922 260.119565 
L 145.565922 260.119565 
L 145.772052 261.339749 
L 145.772052 261.339749 
L 146.184312 267.270037 
L 146.184312 267.270037 
L 146.390442 268.580366 
L 146.390442 268.580366 
L 146.802701 275.741301 
L 146.802701 275.741301 
L 147.008831 277.640796 
L 147.008831 277.640796 
L 147.214961 282.829798 
L 147.214961 282.829798 
L 147.421091 285.165533 
L 147.421091 285.165533 
L 147.833351 291.510329 
L 147.833351 291.510329 
L 148.24561 293.956331 
L 148.24561 293.956331 
L 148.45174 295.488 
L 148.45174 295.488 
L 148.864 287.157588 
L 148.864 287.157588 
L 149.07013 285.833575 
L 149.07013 285.833575 
L 149.27626 285.237166 
L 149.27626 285.237166 
L 149.48239 281.410811 
L 149.48239 281.410811 
L 149.688519 280.592257 
L 149.688519 280.592257 
L 149.894649 277.779234 
L 149.894649 277.779234 
L 150.306909 275.957006 
L 150.306909 275.957006 
L 150.513039 272.716597 
L 150.513039 272.716597 
L 150.925299 270.095938 
L 150.925299 270.095938 
L 151.337558 263.835653 
L 151.337558 263.835653 
L 151.543688 261.660892 
L 151.543688 261.660892 
L 151.955948 253.406138 
L 151.955948 253.406138 
L 152.162078 250.079607 
L 152.162078 250.079607 
L 152.986597 230.07052 
L 152.986597 230.07052 
L 155.254026 180.993527 
L 155.254026 180.993527 
L 155.666286 178.011481 
L 155.666286 178.011481 
L 155.872416 177.972042 
L 155.872416 177.972042 
L 156.078545 178.423574 
L 156.078545 178.423574 
L 156.284675 179.543954 
L 156.284675 179.543954 
L 156.696935 183.709161 
L 156.696935 183.709161 
L 157.315325 194.413942 
L 157.315325 194.413942 
L 158.139844 214.931707 
L 158.139844 214.931707 
L 159.582753 251.812494 
L 159.582753 251.812494 
L 161.644052 293.43236 
L 161.644052 293.43236 
L 161.850182 293.602993 
L 161.850182 293.602993 
L 163.499221 261.39609 
L 163.499221 261.39609 
L 164.11761 252.077296 
L 164.11761 252.077296 
L 164.736 244.568657 
L 164.736 244.568657 
L 165.560519 240.379305 
L 165.560519 240.379305 
L 165.766649 240.027576 
L 165.766649 240.027576 
L 166.797299 245.502307 
L 166.797299 245.502307 
L 167.209558 250.117436 
L 167.209558 250.117436 
L 168.652468 262.671005 
L 168.652468 262.671005 
L 168.858597 263.98214 
L 168.858597 263.98214 
L 169.270857 268.379953 
L 169.270857 268.379953 
L 169.889247 273.271153 
L 169.889247 273.271153 
L 170.301506 278.873858 
L 170.301506 278.873858 
L 170.919896 285.997769 
L 170.919896 285.997769 
L 171.332156 293.243215 
L 171.332156 293.243215 
L 171.538286 295.488 
L 171.538286 295.488 
L 172.362805 283.926837 
L 172.362805 283.926837 
L 173.187325 277.233531 
L 173.187325 277.233531 
L 173.393455 276.731292 
L 173.393455 276.731292 
L 173.599584 276.735316 
L 173.599584 276.735316 
L 173.805714 275.816154 
L 173.805714 275.816154 
L 174.011844 276.211346 
L 174.011844 276.211346 
L 174.836364 280.172919 
L 174.836364 280.172919 
L 176.279273 294.24528 
L 176.279273 294.24528 
L 176.485403 293.773625 
L 176.485403 293.773625 
L 176.897662 288.938767 
L 176.897662 288.938767 
L 178.340571 267.348109 
L 178.340571 267.348109 
L 178.752831 261.432309 
L 178.752831 261.432309 
L 179.371221 251.391546 
L 179.371221 251.391546 
L 179.783481 245.150579 
L 179.783481 245.150579 
L 180.19574 239.308827 
L 180.19574 239.308827 
L 180.608 234.070728 
L 180.608 234.070728 
L 181.02026 229.808937 
L 181.02026 229.808937 
L 181.432519 226.378578 
L 181.432519 226.378578 
L 181.844779 222.503126 
L 181.844779 222.503126 
L 182.050909 222.543369 
L 182.050909 222.543369 
L 182.257039 220.513485 
L 182.257039 220.513485 
L 182.463169 220.462778 
L 182.669299 218.414382 
L 182.669299 218.414382 
L 182.875429 217.892826 
L 182.875429 217.892826 
L 183.081558 214.805342 
L 183.081558 214.805342 
L 183.287688 213.865253 
L 183.287688 213.865253 
L 183.493818 210.376138 
L 183.493818 210.376138 
L 183.699948 210.037288 
L 183.699948 210.037288 
L 183.906078 206.064446 
L 183.906078 206.064446 
L 184.112208 206.322809 
L 184.112208 206.322809 
L 184.318338 205.567035 
L 184.318338 205.567035 
L 184.524468 203.045375 
L 184.524468 203.045375 
L 184.730597 202.76528 
L 184.730597 202.76528 
L 184.936727 199.507968 
L 184.936727 199.507968 
L 185.142857 199.53131 
L 185.142857 199.53131 
L 185.348987 195.833734 
L 185.348987 195.833734 
L 185.555117 196.19995 
L 185.555117 196.19995 
L 185.761247 191.468919 
L 185.761247 191.468919 
L 185.967377 192.05567 
L 185.967377 192.05567 
L 186.173506 185.905653 
L 186.173506 185.905653 
L 186.379636 186.460209 
L 186.379636 186.460209 
L 186.585766 185.068587 
L 186.585766 185.068587 
L 186.791896 180.336752 
L 186.791896 180.336752 
L 186.998026 179.987438 
L 186.998026 179.987438 
L 187.204156 174.951362 
L 187.204156 174.951362 
L 187.410286 175.673331 
L 187.410286 175.673331 
L 187.616416 169.751897 
L 187.616416 169.751897 
L 187.822545 171.455808 
L 187.822545 171.455808 
L 188.028675 171.543539 
L 188.028675 171.543539 
L 188.234805 167.869304 
L 188.234805 167.869304 
L 188.440935 169.776043 
L 188.440935 169.776043 
L 188.647065 166.778704 
L 188.647065 166.778704 
L 189.059325 174.323563 
L 189.059325 174.323563 
L 189.265455 173.823738 
L 189.471584 178.214308 
L 189.471584 178.214308 
L 189.677714 176.940198 
L 189.677714 176.940198 
L 190.089974 188.491703 
L 190.089974 188.491703 
L 190.296104 189.685326 
L 190.296104 189.685326 
L 190.708364 201.64973 
L 190.708364 201.64973 
L 190.914494 203.372153 
L 190.914494 203.372153 
L 191.120623 208.786518 
L 191.120623 208.786518 
L 191.326753 207.638773 
L 191.326753 207.638773 
L 191.739013 216.706447 
L 191.739013 216.706447 
L 191.945143 212.901018 
L 191.945143 212.901018 
L 192.151273 215.59331 
L 192.151273 215.59331 
L 192.357403 215.632749 
L 192.357403 215.632749 
L 192.563532 210.279554 
L 192.563532 210.279554 
L 192.769662 211.403958 
L 192.769662 211.403958 
L 192.975792 202.618794 
L 192.975792 202.618794 
L 193.181922 206.194835 
L 193.181922 206.194835 
L 193.388052 207.140558 
L 193.388052 207.140558 
L 193.594182 199.767137 
L 193.594182 199.767137 
L 193.800312 202.420796 
L 193.800312 202.420796 
L 194.006442 190.721195 
L 194.006442 190.721195 
L 194.212571 194.956424 
L 194.212571 194.956424 
L 194.418701 196.018854 
L 194.418701 196.018854 
L 194.624831 185.542656 
L 194.624831 185.542656 
L 194.830961 188.789505 
L 195.037091 188.72592 
L 195.037091 188.72592 
L 195.243221 180.91304 
L 195.449351 183.501504 
L 195.449351 183.501504 
L 195.655481 174.05876 
L 195.655481 174.05876 
L 195.86161 178.577305 
L 195.86161 178.577305 
L 196.06774 180.220851 
L 196.06774 180.220851 
L 196.27387 175.315968 
L 196.27387 175.315968 
L 196.48 178.737474 
L 196.48 178.737474 
L 196.68613 172.353239 
L 196.68613 172.353239 
L 197.09839 180.747236 
L 197.09839 180.747236 
L 197.304519 177.067367 
L 197.304519 177.067367 
L 197.716779 184.984881 
L 197.716779 184.984881 
L 197.922909 182.68295 
L 197.922909 182.68295 
L 198.129039 187.512175 
L 198.129039 187.512175 
L 198.335169 184.05606 
L 198.335169 184.05606 
L 198.747429 196.504996 
L 198.747429 196.504996 
L 198.953558 194.673915 
L 199.365818 204.098146 
L 199.365818 204.098146 
L 199.571948 202.448161 
L 199.571948 202.448161 
L 199.778078 206.515173 
L 199.778078 206.515173 
L 199.984208 202.075506 
L 199.984208 202.075506 
L 200.396468 210.899304 
L 200.396468 210.899304 
L 200.602597 208.710861 
L 200.602597 208.710861 
L 201.014857 216.470619 
L 201.014857 216.470619 
L 201.220987 215.996551 
L 201.220987 215.996551 
L 201.427117 220.647094 
L 201.427117 220.647094 
L 201.633247 219.877637 
L 201.633247 219.877637 
L 202.045506 231.10156 
L 202.045506 231.10156 
L 202.251636 233.265857 
L 202.251636 233.265857 
L 203.488416 273.509395 
L 203.488416 273.509395 
L 203.694545 282.004805 
L 203.694545 282.004805 
L 203.900675 295.488 
L 203.900675 295.488 
L 204.106805 289.992343 
L 204.106805 289.992343 
L 205.549714 218.359651 
L 205.549714 218.359651 
L 205.755844 214.01013 
L 205.755844 214.01013 
L 205.961974 203.572566 
L 205.961974 203.572566 
L 206.168104 201.890386 
L 206.168104 201.890386 
L 206.374234 192.761542 
L 206.374234 192.761542 
L 206.580364 193.646095 
L 206.580364 193.646095 
L 206.786494 192.347838 
L 206.786494 192.347838 
L 206.992623 187.929903 
L 206.992623 187.929903 
L 207.198753 187.98061 
L 207.404883 184.167937 
L 207.404883 184.167937 
L 207.611013 185.418706 
L 207.611013 185.418706 
L 207.817143 181.7493 
L 207.817143 181.7493 
L 208.023273 183.883013 
L 208.023273 183.883013 
L 208.229403 180.229704 
L 208.229403 180.229704 
L 208.435532 183.031459 
L 208.435532 183.031459 
L 208.641662 179.040105 
L 208.641662 179.040105 
L 208.847792 182.554171 
L 208.847792 182.554171 
L 209.053922 178.208674 
L 209.053922 178.208674 
L 209.260052 182.699048 
L 209.260052 182.699048 
L 209.466182 178.947545 
L 209.466182 178.947545 
L 209.672312 183.995695 
L 209.878442 180.713432 
L 209.878442 180.713432 
L 210.084571 185.605436 
L 210.084571 185.605436 
L 210.290701 187.829294 
L 210.290701 187.829294 
L 210.496831 186.242089 
L 210.496831 186.242089 
L 210.702961 188.07317 
L 210.702961 188.07317 
L 210.909091 185.623143 
L 210.909091 185.623143 
L 211.115221 187.63693 
L 211.115221 187.63693 
L 211.321351 184.661323 
L 211.321351 184.661323 
L 211.527481 187.07674 
L 211.527481 187.07674 
L 211.73361 183.545772 
L 211.73361 183.545772 
L 211.93974 186.333039 
L 211.93974 186.333039 
L 212.14587 182.371465 
L 212.14587 182.371465 
L 212.352 185.682704 
L 212.352 185.682704 
L 212.55813 187.091227 
L 212.55813 187.091227 
L 212.76426 185.219098 
L 212.76426 185.219098 
L 212.97039 187.01235 
L 212.97039 187.01235 
L 213.176519 184.790102 
L 213.176519 184.790102 
L 213.382649 187.149178 
L 213.382649 187.149178 
L 213.588779 184.624299 
L 213.588779 184.624299 
L 213.794909 187.843782 
L 213.794909 187.843782 
L 214.001039 185.565193 
L 214.001039 185.565193 
L 214.207169 189.65796 
L 214.207169 189.65796 
L 214.413299 187.467907 
L 214.413299 187.467907 
L 214.825558 195.57537 
L 214.825558 195.57537 
L 215.031688 195.961708 
L 215.031688 195.961708 
L 215.237818 199.542578 
L 215.443948 199.885453 
L 215.443948 199.885453 
L 215.650078 203.884856 
L 215.650078 203.884856 
L 215.856208 204.193121 
L 215.856208 204.193121 
L 216.062338 208.958761 
L 216.062338 208.958761 
L 216.268468 209.71212 
L 216.268468 209.71212 
L 216.474597 215.261704 
L 216.474597 215.261704 
L 216.680727 216.80947 
L 216.680727 216.80947 
L 216.886857 223.308801 
L 216.886857 223.308801 
L 217.092987 225.444123 
L 217.092987 225.444123 
L 217.299117 232.313695 
L 217.505247 234.737161 
L 217.505247 234.737161 
L 217.711377 241.615586 
L 217.917506 244.27005 
L 217.917506 244.27005 
L 218.329766 256.489598 
L 218.329766 256.489598 
L 218.948156 269.790892 
L 218.948156 269.790892 
L 219.566545 283.676522 
L 219.566545 283.676522 
L 219.772675 295.488 
L 219.772675 295.488 
L 219.978805 291.331647 
L 219.978805 291.331647 
L 220.184935 295.488 
L 220.184935 295.488 
L 221.215584 277.652869 
L 221.215584 277.652869 
L 222.040104 267.03099 
L 222.040104 267.03099 
L 222.452364 263.42034 
L 222.452364 263.42034 
L 222.864623 261.254433 
L 222.864623 261.254433 
L 223.276883 260.046322 
L 223.276883 260.046322 
L 223.895273 260.658828 
L 223.895273 260.658828 
L 224.513662 263.578899 
L 224.513662 263.578899 
L 224.925922 267.066404 
L 224.925922 267.066404 
L 225.544312 274.278046 
L 225.544312 274.278046 
L 226.574961 287.199441 
L 226.574961 287.199441 
L 226.781091 295.488 
L 226.781091 295.488 
L 226.987221 291.892642 
L 226.987221 291.892642 
L 227.193351 294.160768 
L 227.193351 294.160768 
L 227.399481 294.786958 
L 228.63626 282.744481 
L 228.63626 282.744481 
L 229.048519 280.098871 
L 229.048519 280.098871 
L 229.460779 279.343903 
L 229.460779 279.343903 
L 229.666909 279.298025 
L 229.666909 279.298025 
L 229.873039 279.542706 
L 229.873039 279.542706 
L 230.079169 280.060238 
L 230.079169 280.060238 
L 231.728208 288.85506 
L 231.728208 288.85506 
L 232.552727 294.650934 
L 232.552727 294.650934 
L 232.758857 294.460985 
L 232.758857 294.460985 
L 233.995636 283.612132 
L 233.995636 283.612132 
L 234.407896 281.796344 
L 234.407896 281.796344 
L 234.820156 280.811987 
L 234.820156 280.811987 
L 235.026286 280.661476 
L 235.026286 280.661476 
L 236.056935 282.011244 
L 236.056935 282.011244 
L 236.881455 283.880154 
L 236.881455 283.880154 
L 237.293714 285.643626 
L 237.293714 285.643626 
L 237.705974 288.393869 
L 237.705974 288.393869 
L 238.530494 294.530204 
L 238.530494 294.530204 
L 240.385662 272.97496 
L 240.385662 272.97496 
L 241.416312 261.120019 
L 241.416312 261.120019 
L 242.240831 247.60141 
L 242.240831 247.60141 
L 243.065351 228.784337 
L 243.065351 228.784337 
L 244.30213 199.078167 
L 244.30213 199.078167 
L 244.920519 187.04535 
L 244.920519 187.04535 
L 245.126649 186.155968 
L 245.126649 186.155968 
L 245.332779 183.565089 
L 245.332779 183.565089 
L 245.538909 182.823803 
L 245.538909 182.823803 
L 245.951169 179.902122 
L 245.951169 179.902122 
L 246.157299 180.682042 
L 246.157299 180.682042 
L 246.363429 180.375386 
L 246.363429 180.375386 
L 246.569558 179.768513 
L 246.569558 179.768513 
L 246.775688 181.869226 
L 246.775688 181.869226 
L 247.187948 182.930851 
L 247.187948 182.930851 
L 247.806338 191.920452 
L 247.806338 191.920452 
L 248.218597 195.825685 
L 248.218597 195.825685 
L 248.630857 202.362845 
L 248.630857 202.362845 
L 249.043117 208.77686 
L 249.043117 208.77686 
L 249.249247 210.378553 
L 249.249247 210.378553 
L 249.455377 214.87778 
L 249.455377 214.87778 
L 249.661506 216.580887 
L 249.661506 216.580887 
L 250.073766 222.347786 
L 250.073766 222.347786 
L 250.279896 223.340191 
L 250.279896 223.340191 
L 250.486026 227.717078 
L 250.486026 227.717078 
L 250.692156 228.571046 
L 250.692156 228.571046 
L 250.898286 231.883894 
L 250.898286 231.883894 
L 251.104416 232.373256 
L 251.104416 232.373256 
L 251.310545 234.844209 
L 251.310545 234.844209 
L 251.516675 234.914233 
L 251.516675 234.914233 
L 251.722805 236.564218 
L 251.722805 236.564218 
L 251.928935 236.077271 
L 251.928935 236.077271 
L 252.135065 236.762216 
L 252.135065 236.762216 
L 252.341195 235.762566 
L 252.341195 235.762566 
L 252.547325 233.27954 
L 252.547325 233.27954 
L 252.753455 234.458676 
L 252.753455 234.458676 
L 252.959584 231.607019 
L 252.959584 231.607019 
L 253.165714 232.390963 
L 253.165714 232.390963 
L 253.371844 229.072481 
L 253.371844 229.072481 
L 253.577974 229.345332 
L 253.577974 229.345332 
L 253.784104 225.40066 
L 253.784104 225.40066 
L 253.990234 225.179321 
L 253.990234 225.179321 
L 254.196364 220.881311 
L 254.196364 220.881311 
L 254.402494 220.611679 
L 254.402494 220.611679 
L 254.608623 219.143595 
L 254.608623 219.143595 
L 254.814753 216.075428 
L 254.814753 216.075428 
L 255.020883 215.214216 
L 255.227013 212.559752 
L 255.227013 212.559752 
L 255.433143 212.718312 
L 255.433143 212.718312 
L 255.639273 211.069132 
L 255.639273 211.069132 
L 255.845403 212.876067 
L 255.845403 212.876067 
L 256.051532 211.629322 
L 256.051532 211.629322 
L 256.257662 213.725205 
L 256.257662 213.725205 
L 256.463792 214.521222 
L 256.463792 214.521222 
L 256.669922 213.490183 
L 256.669922 213.490183 
L 256.876052 214.09786 
L 256.876052 214.09786 
L 257.082182 211.974611 
L 257.082182 211.974611 
L 257.288312 211.738784 
L 257.288312 211.738784 
L 258.318961 189.578278 
L 258.318961 189.578278 
L 258.731221 174.042663 
L 258.731221 174.042663 
L 259.34961 151.433039 
L 259.34961 151.433039 
L 259.55574 139.112077 
L 259.55574 139.112077 
L 259.968 135.944106 
L 259.968 135.944106 
L 260.17413 129.542969 
L 260.17413 129.542969 
L 260.38026 133.725882 
L 260.38026 133.725882 
L 260.58639 129.888259 
L 260.58639 129.888259 
L 260.998649 148.034875 
L 260.998649 148.034875 
L 261.204779 151.419356 
L 261.204779 151.419356 
L 261.410909 162.267404 
L 261.410909 162.267404 
L 261.617039 163.139884 
L 261.617039 163.139884 
L 262.029299 182.579927 
L 262.029299 182.579927 
L 262.235429 182.848754 
L 262.235429 182.848754 
L 262.441558 190.157785 
L 262.441558 190.157785 
L 262.647688 184.903589 
L 262.647688 184.903589 
L 262.853818 191.494675 
L 262.853818 191.494675 
L 263.059948 194.257797 
L 263.059948 194.257797 
L 263.266078 187.196666 
L 263.266078 187.196666 
L 263.472208 189.967031 
L 263.472208 189.967031 
L 263.678338 189.183087 
L 263.884468 182.644317 
L 263.884468 182.644317 
L 264.090597 182.446318 
L 264.090597 182.446318 
L 264.296727 174.108662 
L 264.296727 174.108662 
L 264.502857 175.443943 
L 264.502857 175.443943 
L 264.708987 175.127629 
L 264.708987 175.127629 
L 264.915117 168.517225 
L 265.121247 171.232859 
L 265.121247 171.232859 
L 265.327377 171.921829 
L 265.327377 171.921829 
L 265.533506 168.463299 
L 265.533506 168.463299 
L 265.739636 172.559286 
L 265.739636 172.559286 
L 265.945766 168.399714 
L 265.945766 168.399714 
L 266.358026 179.135885 
L 266.358026 179.135885 
L 266.564156 177.495558 
L 266.564156 177.495558 
L 266.770286 182.847144 
L 266.770286 182.847144 
L 266.976416 176.996539 
L 266.976416 176.996539 
L 267.388675 185.236 
L 267.388675 185.236 
L 267.594805 179.215567 
L 267.594805 179.215567 
L 267.800935 182.709511 
L 267.800935 182.709511 
L 268.007065 183.102288 
L 268.007065 183.102288 
L 268.213195 177.023099 
L 268.213195 177.023099 
L 268.419325 178.867863 
L 268.419325 178.867863 
L 268.625455 170.283917 
L 268.625455 170.283917 
L 269.037714 177.158318 
L 269.037714 177.158318 
L 269.243844 173.332767 
L 269.243844 173.332767 
L 269.449974 179.340322 
L 269.449974 179.340322 
L 269.656104 176.598932 
L 269.656104 176.598932 
L 270.892883 242.069533 
L 270.892883 242.069533 
L 271.511273 292.052007 
L 271.511273 292.052007 
L 272.129662 244.669266 
L 272.129662 244.669266 
L 272.748052 190.272077 
L 272.748052 190.272077 
L 272.954182 180.708602 
L 272.954182 180.708602 
L 273.160312 160.846002 
L 273.160312 160.846002 
L 273.366442 155.50649 
L 273.366442 155.50649 
L 273.572571 137.309972 
L 273.572571 137.309972 
L 273.778701 135.611695 
L 273.778701 135.611695 
L 273.984831 130.055672 
L 273.984831 130.055672 
L 274.190961 119.026528 
L 274.190961 119.026528 
L 274.397091 114.628714 
L 274.397091 114.628714 
L 274.603221 104.260369 
L 274.603221 104.260369 
L 274.809351 101.914976 
L 274.809351 101.914976 
L 275.015481 93.352761 
L 275.015481 93.352761 
L 275.22161 94.848211 
L 275.22161 94.848211 
L 275.42774 90.201692 
L 275.42774 90.201692 
L 275.63387 97.789209 
L 275.63387 97.789209 
L 275.84 100.121724 
L 275.84 100.121724 
L 277.695169 214.760269 
L 277.695169 214.760269 
L 277.901299 219.286862 
L 277.901299 219.286862 
L 278.107429 229.668085 
L 278.107429 229.668085 
L 278.313558 228.524364 
L 278.313558 228.524364 
L 278.725818 240.117722 
L 278.725818 240.117722 
L 278.931948 235.05267 
L 278.931948 235.05267 
L 279.138078 237.022994 
L 279.138078 237.022994 
L 279.344208 235.819712 
L 279.344208 235.819712 
L 279.550338 230.055228 
L 279.550338 230.055228 
L 279.756468 229.818596 
L 279.756468 229.818596 
L 279.962597 222.886244 
L 279.962597 222.886244 
L 280.168727 224.348694 
L 280.168727 224.348694 
L 280.374857 224.260158 
L 280.374857 224.260158 
L 280.580987 221.245918 
L 280.580987 221.245918 
L 280.787117 223.750675 
L 280.787117 223.750675 
L 280.993247 221.928448 
L 280.993247 221.928448 
L 281.405506 229.631061 
L 281.405506 229.631061 
L 281.611636 231.311631 
L 282.230026 243.14806 
L 282.230026 243.14806 
L 282.436156 246.041571 
L 282.436156 246.041571 
L 283.054545 257.434516 
L 283.054545 257.434516 
L 283.672935 266.691334 
L 283.672935 266.691334 
L 284.085195 272.204699 
L 284.085195 272.204699 
L 285.734234 295.2401 
L 285.734234 295.2401 
L 288.207792 257.543978 
L 288.207792 257.543978 
L 288.620052 252.306684 
L 288.620052 252.306684 
L 288.826182 251.732812 
L 288.826182 251.732812 
L 289.032312 250.040973 
L 289.032312 250.040973 
L 289.238442 249.916218 
L 289.238442 249.916218 
L 289.650701 248.687181 
L 289.650701 248.687181 
L 289.856831 249.833317 
L 289.856831 249.833317 
L 290.269091 250.618066 
L 290.269091 250.618066 
L 290.681351 253.869743 
L 290.681351 253.869743 
L 290.887481 254.696346 
L 290.887481 254.696346 
L 291.29974 258.704602 
L 291.29974 258.704602 
L 291.712 260.248344 
L 291.712 260.248344 
L 291.91813 264.025603 
L 291.91813 264.025603 
L 292.33039 265.883244 
L 292.33039 265.883244 
L 292.536519 270.187693 
L 292.536519 270.187693 
L 292.948779 273.528711 
L 292.948779 273.528711 
L 293.361039 281.768978 
L 293.361039 281.768978 
L 293.567169 284.522441 
L 293.567169 284.522441 
L 293.979429 295.171686 
L 293.979429 295.171686 
L 294.185558 291.270477 
L 294.185558 291.270477 
L 298.720416 124.871499 
L 298.720416 124.871499 
L 299.132675 116.689988 
L 299.132675 116.689988 
L 299.338805 113.836721 
L 299.338805 113.836721 
L 299.957195 112.224565 
L 299.957195 112.224565 
L 300.781714 120.28776 
L 300.781714 120.28776 
L 301.193974 129.256435 
L 301.193974 129.256435 
L 301.400104 132.833281 
L 302.224623 153.980455 
L 302.224623 153.980455 
L 303.461403 184.098718 
L 303.461403 184.098718 
L 304.698182 230.337737 
L 304.698182 230.337737 
L 306.553351 295.488 
L 306.553351 295.488 
L 307.17174 272.719816 
L 307.17174 272.719816 
L 307.99626 247.04122 
L 307.99626 247.04122 
L 308.614649 227.626128 
L 308.614649 227.626128 
L 309.439169 202.514161 
L 309.439169 202.514161 
L 310.057558 183.761477 
L 310.057558 183.761477 
L 311.294338 152.588028 
L 311.294338 152.588028 
L 312.118857 137.837967 
L 312.118857 137.837967 
L 312.943377 127.36016 
L 312.943377 127.36016 
L 313.355636 124.15114 
L 313.355636 124.15114 
L 313.767896 122.6903 
L 313.767896 122.6903 
L 313.974026 122.790908 
L 313.974026 122.790908 
L 314.180156 123.423537 
L 314.180156 123.423537 
L 314.592416 126.472387 
L 314.592416 126.472387 
L 315.004675 132.170872 
L 315.004675 132.170872 
L 315.623065 144.091813 
L 315.623065 144.091813 
L 316.653714 171.162031 
L 316.653714 171.162031 
L 319.333403 250.770186 
L 319.333403 250.770186 
L 320.982442 292.348199 
L 320.982442 292.348199 
L 321.188571 292.281395 
L 321.188571 292.281395 
L 323.24987 228.831824 
L 323.24987 228.831824 
L 324.280519 210.513771 
L 324.280519 210.513771 
L 324.486649 207.520457 
L 324.486649 207.520457 
L 324.898909 204.190706 
L 324.898909 204.190706 
L 325.105039 201.920971 
L 325.105039 201.920971 
L 325.311169 201.315708 
L 325.311169 201.315708 
L 325.723429 197.453938 
L 325.723429 197.453938 
L 325.929558 197.429792 
L 325.929558 197.429792 
L 326.135688 195.744393 
L 326.135688 195.744393 
L 326.341818 195.516614 
L 326.341818 195.516614 
L 326.754078 192.21262 
L 326.754078 192.21262 
L 326.960208 192.567568 
L 326.960208 192.567568 
L 327.166338 191.248385 
L 327.166338 191.248385 
L 327.372468 191.497895 
L 327.372468 191.497895 
L 327.784727 189.414889 
L 327.784727 189.414889 
L 327.990857 191.520431 
L 327.990857 191.520431 
L 328.196987 191.40131 
L 328.196987 191.40131 
L 328.403117 194.003457 
L 328.403117 194.003457 
L 328.609247 194.584574 
L 328.609247 194.584574 
L 328.815377 197.0676 
L 328.815377 197.0676 
L 329.021506 197.833032 
L 329.021506 197.833032 
L 329.227636 199.99733 
L 329.227636 199.99733 
L 329.433766 200.755518 
L 329.433766 200.755518 
L 329.639896 199.907184 
L 329.639896 199.907184 
L 329.846026 202.847377 
L 329.846026 202.847377 
L 330.052156 201.792192 
L 330.052156 201.792192 
L 330.258286 203.950855 
L 330.258286 203.950855 
L 330.464416 202.453795 
L 330.464416 202.453795 
L 330.670545 203.690882 
L 330.670545 203.690882 
L 330.876675 201.639266 
L 330.876675 201.639266 
L 331.082805 201.845313 
L 331.082805 201.845313 
L 331.288935 199.158655 
L 331.288935 199.158655 
L 331.495065 198.542928 
L 331.495065 198.542928 
L 331.701195 195.446591 
L 331.701195 195.446591 
L 331.907325 194.141895 
L 331.907325 194.141895 
L 332.319584 186.075481 
L 332.319584 186.075481 
L 332.525714 186.656597 
L 332.525714 186.656597 
L 332.731844 182.058371 
L 332.731844 182.058371 
L 332.937974 182.890607 
L 332.937974 182.890607 
L 333.144104 178.957204 
L 333.144104 178.957204 
L 333.350234 180.080803 
L 333.350234 180.080803 
L 333.556364 176.561104 
L 333.556364 176.561104 
L 333.762494 178.375282 
L 333.762494 178.375282 
L 333.968623 175.781989 
L 333.968623 175.781989 
L 334.174753 178.143479 
L 334.174753 178.143479 
L 334.380883 176.116815 
L 334.380883 176.116815 
L 334.587013 179.38298 
L 334.587013 179.38298 
L 334.793143 178.771279 
L 334.793143 178.771279 
L 334.999273 183.474943 
L 334.999273 183.474943 
L 335.205403 183.915208 
L 335.205403 183.915208 
L 335.411532 189.838251 
L 335.411532 189.838251 
L 335.617662 191.58804 
L 335.617662 191.58804 
L 335.823792 198.603294 
L 335.823792 198.603294 
L 336.029922 201.178075 
L 336.029922 201.178075 
L 336.236052 209.127784 
L 336.236052 209.127784 
L 336.442182 211.993123 
L 336.442182 211.993123 
L 336.648312 220.228561 
L 336.648312 220.228561 
L 336.854442 223.00456 
L 336.854442 223.00456 
L 337.060571 230.803758 
L 337.060571 230.803758 
L 337.266701 232.700033 
L 337.266701 232.700033 
L 337.472831 239.802213 
L 337.472831 239.802213 
L 337.678961 240.821179 
L 337.678961 240.821179 
L 338.091221 250.408799 
L 338.091221 250.408799 
L 338.297351 250.746845 
L 338.297351 250.746845 
L 338.503481 252.412123 
L 338.503481 252.412123 
L 338.70961 250.766162 
L 338.70961 250.766162 
L 338.91574 250.71787 
L 338.91574 250.71787 
L 339.12187 246.953489 
L 339.12187 246.953489 
L 339.328 245.647989 
L 339.328 245.647989 
L 339.53413 240.185331 
L 339.53413 240.185331 
L 339.74026 238.463713 
L 339.94639 232.146282 
L 339.94639 232.146282 
L 340.152519 230.827099 
L 340.358649 223.438385 
L 340.358649 223.438385 
L 340.564779 222.729294 
L 340.564779 222.729294 
L 340.770909 214.500296 
L 340.770909 214.500296 
L 340.977039 215.12729 
L 340.977039 215.12729 
L 341.183169 206.990047 
L 341.183169 206.990047 
L 341.389299 210.004288 
L 341.389299 210.004288 
L 341.595429 202.755622 
L 341.595429 202.755622 
L 341.801558 208.609447 
L 341.801558 208.609447 
L 342.007688 203.993513 
L 342.007688 203.993513 
L 342.213818 213.161796 
L 342.213818 213.161796 
L 342.419948 212.786726 
L 342.419948 212.786726 
L 342.626078 225.399855 
L 342.626078 225.399855 
L 342.832208 229.92001 
L 342.832208 229.92001 
L 343.656727 283.434256 
L 343.656727 283.434256 
L 343.862857 289.865173 
L 343.862857 289.865173 
L 345.924156 131.93263 
L 345.924156 131.93263 
L 346.336416 113.802112 
L 346.336416 113.802112 
L 346.542545 117.594663 
L 346.542545 117.594663 
L 346.748675 115.471414 
L 346.748675 115.471414 
L 346.954805 121.465286 
L 346.954805 121.465286 
L 347.160935 123.491951 
L 347.160935 123.491951 
L 347.573195 134.76819 
L 347.573195 134.76819 
L 347.779325 137.701944 
L 347.779325 137.701944 
L 347.985455 147.59783 
L 347.985455 147.59783 
L 348.191584 151.902278 
L 348.191584 151.902278 
L 348.809974 176.808199 
L 348.809974 176.808199 
L 349.016104 183.18197 
L 349.016104 183.18197 
L 349.840623 218.784623 
L 349.840623 218.784623 
L 350.046753 226.010752 
L 350.046753 226.010752 
L 350.665143 255.830409 
L 350.665143 255.830409 
L 351.695792 295.23849 
L 351.695792 295.23849 
L 352.314182 281.449444 
L 352.314182 281.449444 
L 352.726442 275.839495 
L 352.726442 275.839495 
L 353.138701 272.620012 
L 353.138701 272.620012 
L 353.550961 270.595762 
L 353.550961 270.595762 
L 353.963221 269.257262 
L 353.963221 269.257262 
L 354.169351 269.135727 
L 354.169351 269.135727 
L 354.375481 268.530464 
L 354.375481 268.530464 
L 354.58161 268.753413 
L 354.58161 268.753413 
L 354.78774 268.539318 
L 354.78774 268.539318 
L 355.2 269.155044 
L 355.2 269.155044 
L 355.40613 268.716389 
L 355.40613 268.716389 
L 355.81839 268.877363 
L 355.81839 268.877363 
L 356.230649 267.294183 
L 356.230649 267.294183 
L 356.436779 266.548872 
L 356.436779 266.548872 
L 357.261299 258.00195 
L 357.261299 258.00195 
L 357.879688 248.205063 
L 357.879688 248.205063 
L 360.559377 190.480538 
L 360.559377 190.480538 
L 360.971636 186.337064 
L 360.971636 186.337064 
L 361.383896 184.642811 
L 361.383896 184.642811 
L 361.590026 184.517251 
L 361.590026 184.517251 
L 361.796156 184.929345 
L 361.796156 184.929345 
L 362.414545 188.19712 
L 362.414545 188.19712 
L 362.826805 190.81134 
L 362.826805 190.81134 
L 363.239065 192.237571 
L 363.239065 192.237571 
L 363.445195 192.343009 
L 363.445195 192.343009 
L 363.857455 190.529635 
L 363.857455 190.529635 
L 364.475844 183.765502 
L 364.475844 183.765502 
L 365.300364 171.366468 
L 365.300364 171.366468 
L 365.506494 171.314956 
L 365.506494 171.314956 
L 365.712623 168.357056 
L 365.712623 168.357056 
L 365.918753 168.698321 
L 365.918753 168.698321 
L 366.124883 166.802046 
L 366.124883 166.802046 
L 366.331013 167.760647 
L 366.331013 167.760647 
L 366.537143 167.185969 
L 366.537143 167.185969 
L 366.743273 165.512643 
L 366.743273 165.512643 
L 366.949403 169.025904 
L 366.949403 169.025904 
L 367.155532 168.225862 
L 367.361662 171.532271 
L 367.361662 171.532271 
L 367.567792 171.059007 
L 367.567792 171.059007 
L 367.773922 174.123955 
L 367.773922 174.123955 
L 367.980052 174.183515 
L 367.980052 174.183515 
L 368.186182 176.869369 
L 368.186182 176.869369 
L 368.392312 177.407828 
L 368.392312 177.407828 
L 368.598442 176.454056 
L 368.598442 176.454056 
L 368.804571 181.31789 
L 368.804571 181.31789 
L 369.010701 181.107818 
L 369.010701 181.107818 
L 369.216831 185.793776 
L 369.216831 185.793776 
L 369.422961 186.223577 
L 369.422961 186.223577 
L 369.629091 190.706707 
L 369.629091 190.706707 
L 369.835221 191.608162 
L 369.835221 191.608162 
L 370.041351 195.729905 
L 370.041351 195.729905 
L 370.247481 197.008845 
L 370.247481 197.008845 
L 370.65974 203.085619 
L 370.65974 203.085619 
L 370.86587 203.925099 
L 370.86587 203.925099 
L 371.072 208.936224 
L 371.072 208.936224 
L 371.27813 209.71051 
L 371.27813 209.71051 
L 371.48426 213.152137 
L 371.69039 212.532387 
L 371.896519 214.171909 
L 371.896519 214.171909 
L 372.102649 211.700955 
L 372.102649 211.700955 
L 372.308779 211.928734 
L 372.308779 211.928734 
L 372.514909 208.192524 
L 372.514909 208.192524 
L 372.721039 207.364312 
L 372.927169 202.760451 
L 372.927169 202.760451 
L 373.133299 201.204636 
L 373.133299 201.204636 
L 373.339429 196.448655 
L 373.339429 196.448655 
L 373.545558 194.781767 
L 373.545558 194.781767 
L 373.957818 184.626713 
L 373.957818 184.626713 
L 374.163948 185.785727 
L 374.163948 185.785727 
L 374.370078 180.638579 
L 374.370078 180.638579 
L 374.576208 181.917518 
L 374.576208 181.917518 
L 374.782338 177.680679 
L 374.782338 177.680679 
L 374.988468 179.371712 
L 375.194597 176.330106 
L 375.194597 176.330106 
L 375.400727 178.430013 
L 375.400727 178.430013 
L 375.606857 176.431519 
L 375.606857 176.431519 
L 375.812987 178.831644 
L 375.812987 178.831644 
L 376.019117 178.033212 
L 376.019117 178.033212 
L 376.225247 180.91304 
L 376.225247 180.91304 
L 376.431377 181.188305 
L 376.637506 180.119437 
L 376.637506 180.119437 
L 376.843636 185.834019 
L 376.843636 185.834019 
L 377.049766 185.776874 
L 377.049766 185.776874 
L 377.255896 191.605747 
L 377.255896 191.605747 
L 377.462026 192.540202 
L 377.462026 192.540202 
L 377.668156 198.448759 
L 377.668156 198.448759 
L 377.874286 200.317668 
L 377.874286 200.317668 
L 378.080416 206.394443 
L 378.080416 206.394443 
L 378.286545 209.135027 
L 378.286545 209.135027 
L 378.904935 224.862202 
L 378.904935 224.862202 
L 379.317195 234.80638 
L 379.317195 234.80638 
L 380.141714 253.770744 
L 380.141714 253.770744 
L 380.760104 270.994978 
L 380.760104 270.994978 
L 381.790753 295.035663 
L 381.790753 295.035663 
L 383.439792 274.182266 
L 383.439792 274.182266 
L 384.470442 265.043764 
L 384.470442 265.043764 
L 385.088831 258.980673 
L 385.088831 258.980673 
L 385.707221 251.946102 
L 385.707221 251.946102 
L 386.53174 241.010324 
L 386.53174 241.010324 
L 387.768519 222.309152 
L 387.768519 222.309152 
L 388.799169 208.014647 
L 388.799169 208.014647 
L 389.417558 201.801045 
L 389.417558 201.801045 
L 389.829818 198.888218 
L 389.829818 198.888218 
L 390.242078 197.301013 
L 390.242078 197.301013 
L 390.654338 196.623312 
L 390.654338 196.623312 
L 390.860468 196.746457 
L 390.860468 196.746457 
L 391.066597 197.147283 
L 391.066597 197.147283 
L 391.478857 198.774731 
L 391.478857 198.774731 
L 391.684987 199.647211 
L 391.684987 199.647211 
L 392.097247 202.663062 
L 392.097247 202.663062 
L 392.715636 209.093979 
L 392.715636 209.093979 
L 393.540156 222.134495 
L 393.540156 222.134495 
L 395.807584 263.376877 
L 395.807584 263.376877 
L 396.632104 281.369762 
L 396.632104 281.369762 
L 396.838234 283.798862 
L 396.838234 283.798862 
L 397.044364 284.287419 
L 397.044364 284.287419 
L 397.250494 282.882114 
L 397.250494 282.882114 
L 397.456623 280.082774 
L 397.456623 280.082774 
L 398.075013 255.10844 
L 398.075013 255.10844 
L 398.281143 256.796254 
L 398.487273 180.286045 
L 398.487273 180.286045 
" clip-path="url(#pe126722c5c)" style="fill: none; stroke: #1f77b4; stroke-width: 1.5; stroke-linecap: square"/>
   </g>
   <g id="patch_3">
    <path d="M 57.6 307.584 
L 57.6 41.472 
" style="fill: none; stroke: #000000; stroke-width: 0.8; stroke-linejoin: miter; stroke-linecap: square"/>
   </g>
   <g id="patch_4">
    <path d="M 414.72 307.584 
L 414.72 41.472 
" style="fill: none; stroke: #000000; stroke-width: 0.8; stroke-linejoin: miter; stroke-linecap: square"/>
   </g>
   <g id="patch_5">
    <path d="M 57.6 307.584 
L 414.72 307.584 
" style="fill: none; stroke: #000000; stroke-width: 0.8; stroke-linejoin: miter; stroke-linecap: square"/>
   </g>
   <g id="patch_6">
    <path d="M 57.6 41.472 
L 414.72 41.472 
" style="fill: none; stroke: #000000; stroke-width: 0.8; stroke-linejoin: miter; stroke-linecap: square"/>
   </g>
   <g id="text_17">
    <!-- Tracking error vs Time -->
    <g transform="translate(169.584375 35.472) scale(0.12 -0.12)">
     <defs>
      <path id="DejaVuSans-76" d="M 191 3500 
L 800 3500 
L 1894 563 
L 2988 3500 
L 3597 3500 
L 2284 0 
L 1503 0 
L 191 3500 
z
" transform="scale(0.015625)"/>
     </defs>
     <use xlink:href="#DejaVuSans-54"/>
     <use xlink:href="#DejaVuSans-72" x="46.333984"/>
     <use xlink:href="#DejaVuSans-61" x="87.447266"/>
     <use xlink:href="#DejaVuSans-63" x="148.726562"/>
     <use xlink:href="#DejaVuSans-6b" x="203.707031"/>
     <use xlink:href="#DejaVuSans-69" x="261.617188"/>
     <use xlink:href="#DejaVuSans-6e" x="289.400391"/>
     <use xlink:href="#DejaVuSans-67" x="352.779297"/>
     <use xlink:href="#DejaVuSans-20" x="416.255859"/>
     <use xlink:href="#DejaVuSans-65" x="448.042969"/>
     <use xlink:href="#DejaVuSans-72" x="509.566406"/>
     <use xlink:href="#DejaVuSans-72" x="548.929688"/>
     <use xlink:href="#DejaVuSans-6f" x="587.792969"/>
     <use xlink:href="#DejaVuSans-72" x="648.974609"/>
     <use xlink:href="#DejaVuSans-20" x="690.087891"/>
     <use xlink:href="#DejaVuSans-76" x="721.875"/>
     <use xlink:href="#DejaVuSans-73" x="781.054688"/>
     <use xlink:href="#DejaVuSans-20" x="833.154297"/>
     <use xlink:href="#DejaVuSans-54" x="864.941406"/>
     <use xlink:href="#DejaVuSans-69" x="922.900391"/>
     <use xlink:href="#DejaVuSans-6d" x="950.683594"/>
     <use xlink:href="#DejaVuSans-65" x="1048.095703"/>
    </g>
   </g>
   <g id="legend_1">
    <g id="patch_7">
     <path d="M 311.00125 64.150125 
L 407.72 64.150125 
Q 409.72 64.150125 409.72 62.150125 
L 409.72 48.472 
Q 409.72 46.472 407.72 46.472 
L 311.00125 46.472 
Q 309.00125 46.472 309.00125 48.472 
L 309.00125 62.150125 
Q 309.00125 64.150125 311.00125 64.150125 
z
" style="fill: #ffffff; opacity: 0.8; stroke: #cccccc; stroke-linejoin: miter"/>
    </g>
    <g id="line2d_30">
     <path d="M 313.00125 54.570438 
L 323.00125 54.570438 
L 333.00125 54.570438 
" style="fill: none; stroke: #1f77b4; stroke-width: 1.5; stroke-linecap: square"/>
    </g>
    <g id="text_18">
     <!-- Actual speed -->
     <g transform="translate(341.00125 58.070438) scale(0.1 -0.1)">
      <defs>
       <path id="DejaVuSans-41" d="M 2188 4044 
L 1331 1722 
L 3047 1722 
L 2188 4044 
z
M 1831 4666 
L 2547 4666 
L 4325 0 
L 3669 0 
L 3244 1197 
L 1141 1197 
L 716 0 
L 50 0 
L 1831 4666 
z
" transform="scale(0.015625)"/>
       <path id="DejaVuSans-74" d="M 1172 4494 
L 1172 3500 
L 2356 3500 
L 2356 3053 
L 1172 3053 
L 1172 1153 
Q 1172 725 1289 603 
Q 1406 481 1766 481 
L 2356 481 
L 2356 0 
L 1766 0 
Q 1100 0 847 248 
Q 594 497 594 1153 
L 594 3053 
L 172 3053 
L 172 3500 
L 594 3500 
L 594 4494 
L 1172 4494 
z
" transform="scale(0.015625)"/>
       <path id="DejaVuSans-75" d="M 544 1381 
L 544 3500 
L 1119 3500 
L 1119 1403 
Q 1119 906 1312 657 
Q 1506 409 1894 409 
Q 2359 409 2629 706 
Q 2900 1003 2900 1516 
L 2900 3500 
L 3475 3500 
L 3475 0 
L 2900 0 
L 2900 538 
Q 2691 219 2414 64 
Q 2138 -91 1772 -91 
Q 1169 -91 856 284 
Q 544 659 544 1381 
z
M 1991 3584 
L 1991 3584 
z
" transform="scale(0.015625)"/>
       <path id="DejaVuSans-6c" d="M 603 4863 
L 1178 4863 
L 1178 0 
L 603 0 
L 603 4863 
z
" transform="scale(0.015625)"/>
       <path id="DejaVuSans-70" d="M 1159 525 
L 1159 -1331 
L 581 -1331 
L 581 3500 
L 1159 3500 
L 1159 2969 
Q 1341 3281 1617 3432 
Q 1894 3584 2278 3584 
Q 2916 3584 3314 3078 
Q 3713 2572 3713 1747 
Q 3713 922 3314 415 
Q 2916 -91 2278 -91 
Q 1894 -91 1617 61 
Q 1341 213 1159 525 
z
M 3116 1747 
Q 3116 2381 2855 2742 
Q 2594 3103 2138 3103 
Q 1681 3103 1420 2742 
Q 1159 2381 1159 1747 
Q 1159 1113 1420 752 
Q 1681 391 2138 391 
Q 2594 391 2855 752 
Q 3116 1113 3116 1747 
z
" transform="scale(0.015625)"/>
       <path id="DejaVuSans-64" d="M 2906 2969 
L 2906 4863 
L 3481 4863 
L 3481 0 
L 2906 0 
L 2906 525 
Q 2725 213 2448 61 
Q 2172 -91 1784 -91 
Q 1150 -91 751 415 
Q 353 922 353 1747 
Q 353 2572 751 3078 
Q 1150 3584 1784 3584 
Q 2172 3584 2448 3432 
Q 2725 3281 2906 2969 
z
M 947 1747 
Q 947 1113 1208 752 
Q 1469 391 1925 391 
Q 2381 391 2643 752 
Q 2906 1113 2906 1747 
Q 2906 2381 2643 2742 
Q 2381 3103 1925 3103 
Q 1469 3103 1208 2742 
Q 947 2381 947 1747 
z
" transform="scale(0.015625)"/>
      </defs>
      <use xlink:href="#DejaVuSans-41"/>
      <use xlink:href="#DejaVuSans-63" x="66.658203"/>
      <use xlink:href="#DejaVuSans-74" x="121.638672"/>
      <use xlink:href="#DejaVuSans-75" x="160.847656"/>
      <use xlink:href="#DejaVuSans-61" x="224.226562"/>
      <use xlink:href="#DejaVuSans-6c" x="285.505859"/>
      <use xlink:href="#DejaVuSans-20" x="313.289062"/>
      <use xlink:href="#DejaVuSans-73" x="345.076172"/>
      <use xlink:href="#DejaVuSans-70" x="397.175781"/>
      <use xlink:href="#DejaVuSans-65" x="460.652344"/>
      <use xlink:href="#DejaVuSans-65" x="522.175781"/>
      <use xlink:href="#DejaVuSans-64" x="583.699219"/>
     </g>
    </g>
   </g>
  </g>
 </g>
 <defs>
  <clipPath id="pe126722c5c">
   <rect x="57.6" y="41.472" width="357.12" height="266.112"/>
  </clipPath>
 </defs>
</svg>
