<?xml version="1.0" encoding="utf-8" standalone="no"?>
<!DOCTYPE svg PUBLIC "-//W3C//DTD SVG 1.1//EN"
  "http://www.w3.org/Graphics/SVG/1.1/DTD/svg11.dtd">
<svg xmlns:xlink="http://www.w3.org/1999/xlink" width="460.8pt" height="345.6pt" viewBox="0 0 460.8 345.6" xmlns="http://www.w3.org/2000/svg" version="1.1">
 <metadata>
  <rdf:RDF xmlns:dc="http://purl.org/dc/elements/1.1/" xmlns:cc="http://creativecommons.org/ns#" xmlns:rdf="http://www.w3.org/1999/02/22-rdf-syntax-ns#">
   <cc:Work>
    <dc:type rdf:resource="http://purl.org/dc/dcmitype/StillImage"/>
    <dc:date>2024-01-30T20:58:32.918560</dc:date>
    <dc:format>image/svg+xml</dc:format>
    <dc:creator>
     <cc:Agent>
      <dc:title>Matplotlib v3.7.1, https://matplotlib.org/</dc:title>
     </cc:Agent>
    </dc:creator>
   </cc:Work>
  </rdf:RDF>
 </metadata>
 <defs>
  <style type="text/css">*{stroke-linejoin: round; stroke-linecap: butt}</style>
 </defs>
 <g id="figure_1">
  <g id="patch_1">
   <path d="M 0 345.6 
L 460.8 345.6 
L 460.8 0 
L 0 0 
z
" style="fill: #ffffff"/>
  </g>
  <g id="axes_1">
   <g id="patch_2">
    <path d="M 57.6 307.584 
L 414.72 307.584 
L 414.72 41.472 
L 57.6 41.472 
z
" style="fill: #ffffff"/>
   </g>
   <g id="matplotlib.axis_1">
    <g id="xtick_1">
     <g id="line2d_1">
      <path d="M 73.832727 307.584 
L 73.832727 41.472 
" clip-path="url(#p9624d36f33)" style="fill: none; stroke: #b0b0b0; stroke-width: 0.8; stroke-linecap: square"/>
     </g>
     <g id="line2d_2">
      <defs>
       <path id="m20ea6586b0" d="M 0 0 
L 0 3.5 
" style="stroke: #000000; stroke-width: 0.8"/>
      </defs>
      <g>
       <use xlink:href="#m20ea6586b0" x="73.832727" y="307.584" style="stroke: #000000; stroke-width: 0.8"/>
      </g>
     </g>
     <g id="text_1">
      <!-- 0 -->
      <g transform="translate(70.651477 322.182437) scale(0.1 -0.1)">
       <defs>
        <path id="DejaVuSans-30" d="M 2034 4250 
Q 1547 4250 1301 3770 
Q 1056 3291 1056 2328 
Q 1056 1369 1301 889 
Q 1547 409 2034 409 
Q 2525 409 2770 889 
Q 3016 1369 3016 2328 
Q 3016 3291 2770 3770 
Q 2525 4250 2034 4250 
z
M 2034 4750 
Q 2819 4750 3233 4129 
Q 3647 3509 3647 2328 
Q 3647 1150 3233 529 
Q 2819 -91 2034 -91 
Q 1250 -91 836 529 
Q 422 1150 422 2328 
Q 422 3509 836 4129 
Q 1250 4750 2034 4750 
z
" transform="scale(0.015625)"/>
       </defs>
       <use xlink:href="#DejaVuSans-30"/>
      </g>
     </g>
    </g>
    <g id="xtick_2">
     <g id="line2d_3">
      <path d="M 125.29984 307.584 
L 125.29984 41.472 
" clip-path="url(#p9624d36f33)" style="fill: none; stroke: #b0b0b0; stroke-width: 0.8; stroke-linecap: square"/>
     </g>
     <g id="line2d_4">
      <g>
       <use xlink:href="#m20ea6586b0" x="125.29984" y="307.584" style="stroke: #000000; stroke-width: 0.8"/>
      </g>
     </g>
     <g id="text_2">
      <!-- 5 -->
      <g transform="translate(122.11859 322.182437) scale(0.1 -0.1)">
       <defs>
        <path id="DejaVuSans-35" d="M 691 4666 
L 3169 4666 
L 3169 4134 
L 1269 4134 
L 1269 2991 
Q 1406 3038 1543 3061 
Q 1681 3084 1819 3084 
Q 2600 3084 3056 2656 
Q 3513 2228 3513 1497 
Q 3513 744 3044 326 
Q 2575 -91 1722 -91 
Q 1428 -91 1123 -41 
Q 819 9 494 109 
L 494 744 
Q 775 591 1075 516 
Q 1375 441 1709 441 
Q 2250 441 2565 725 
Q 2881 1009 2881 1497 
Q 2881 1984 2565 2268 
Q 2250 2553 1709 2553 
Q 1456 2553 1204 2497 
Q 953 2441 691 2322 
L 691 4666 
z
" transform="scale(0.015625)"/>
       </defs>
       <use xlink:href="#DejaVuSans-35"/>
      </g>
     </g>
    </g>
    <g id="xtick_3">
     <g id="line2d_5">
      <path d="M 176.766952 307.584 
L 176.766952 41.472 
" clip-path="url(#p9624d36f33)" style="fill: none; stroke: #b0b0b0; stroke-width: 0.8; stroke-linecap: square"/>
     </g>
     <g id="line2d_6">
      <g>
       <use xlink:href="#m20ea6586b0" x="176.766952" y="307.584" style="stroke: #000000; stroke-width: 0.8"/>
      </g>
     </g>
     <g id="text_3">
      <!-- 10 -->
      <g transform="translate(170.404452 322.182437) scale(0.1 -0.1)">
       <defs>
        <path id="DejaVuSans-31" d="M 794 531 
L 1825 531 
L 1825 4091 
L 703 3866 
L 703 4441 
L 1819 4666 
L 2450 4666 
L 2450 531 
L 3481 531 
L 3481 0 
L 794 0 
L 794 531 
z
" transform="scale(0.015625)"/>
       </defs>
       <use xlink:href="#DejaVuSans-31"/>
       <use xlink:href="#DejaVuSans-30" x="63.623047"/>
      </g>
     </g>
    </g>
    <g id="xtick_4">
     <g id="line2d_7">
      <path d="M 228.234065 307.584 
L 228.234065 41.472 
" clip-path="url(#p9624d36f33)" style="fill: none; stroke: #b0b0b0; stroke-width: 0.8; stroke-linecap: square"/>
     </g>
     <g id="line2d_8">
      <g>
       <use xlink:href="#m20ea6586b0" x="228.234065" y="307.584" style="stroke: #000000; stroke-width: 0.8"/>
      </g>
     </g>
     <g id="text_4">
      <!-- 15 -->
      <g transform="translate(221.871565 322.182437) scale(0.1 -0.1)">
       <use xlink:href="#DejaVuSans-31"/>
       <use xlink:href="#DejaVuSans-35" x="63.623047"/>
      </g>
     </g>
    </g>
    <g id="xtick_5">
     <g id="line2d_9">
      <path d="M 279.701177 307.584 
L 279.701177 41.472 
" clip-path="url(#p9624d36f33)" style="fill: none; stroke: #b0b0b0; stroke-width: 0.8; stroke-linecap: square"/>
     </g>
     <g id="line2d_10">
      <g>
       <use xlink:href="#m20ea6586b0" x="279.701177" y="307.584" style="stroke: #000000; stroke-width: 0.8"/>
      </g>
     </g>
     <g id="text_5">
      <!-- 20 -->
      <g transform="translate(273.338677 322.182437) scale(0.1 -0.1)">
       <defs>
        <path id="DejaVuSans-32" d="M 1228 531 
L 3431 531 
L 3431 0 
L 469 0 
L 469 531 
Q 828 903 1448 1529 
Q 2069 2156 2228 2338 
Q 2531 2678 2651 2914 
Q 2772 3150 2772 3378 
Q 2772 3750 2511 3984 
Q 2250 4219 1831 4219 
Q 1534 4219 1204 4116 
Q 875 4013 500 3803 
L 500 4441 
Q 881 4594 1212 4672 
Q 1544 4750 1819 4750 
Q 2544 4750 2975 4387 
Q 3406 4025 3406 3419 
Q 3406 3131 3298 2873 
Q 3191 2616 2906 2266 
Q 2828 2175 2409 1742 
Q 1991 1309 1228 531 
z
" transform="scale(0.015625)"/>
       </defs>
       <use xlink:href="#DejaVuSans-32"/>
       <use xlink:href="#DejaVuSans-30" x="63.623047"/>
      </g>
     </g>
    </g>
    <g id="xtick_6">
     <g id="line2d_11">
      <path d="M 331.16829 307.584 
L 331.16829 41.472 
" clip-path="url(#p9624d36f33)" style="fill: none; stroke: #b0b0b0; stroke-width: 0.8; stroke-linecap: square"/>
     </g>
     <g id="line2d_12">
      <g>
       <use xlink:href="#m20ea6586b0" x="331.16829" y="307.584" style="stroke: #000000; stroke-width: 0.8"/>
      </g>
     </g>
     <g id="text_6">
      <!-- 25 -->
      <g transform="translate(324.80579 322.182437) scale(0.1 -0.1)">
       <use xlink:href="#DejaVuSans-32"/>
       <use xlink:href="#DejaVuSans-35" x="63.623047"/>
      </g>
     </g>
    </g>
    <g id="xtick_7">
     <g id="line2d_13">
      <path d="M 382.635402 307.584 
L 382.635402 41.472 
" clip-path="url(#p9624d36f33)" style="fill: none; stroke: #b0b0b0; stroke-width: 0.8; stroke-linecap: square"/>
     </g>
     <g id="line2d_14">
      <g>
       <use xlink:href="#m20ea6586b0" x="382.635402" y="307.584" style="stroke: #000000; stroke-width: 0.8"/>
      </g>
     </g>
     <g id="text_7">
      <!-- 30 -->
      <g transform="translate(376.272902 322.182437) scale(0.1 -0.1)">
       <defs>
        <path id="DejaVuSans-33" d="M 2597 2516 
Q 3050 2419 3304 2112 
Q 3559 1806 3559 1356 
Q 3559 666 3084 287 
Q 2609 -91 1734 -91 
Q 1441 -91 1130 -33 
Q 819 25 488 141 
L 488 750 
Q 750 597 1062 519 
Q 1375 441 1716 441 
Q 2309 441 2620 675 
Q 2931 909 2931 1356 
Q 2931 1769 2642 2001 
Q 2353 2234 1838 2234 
L 1294 2234 
L 1294 2753 
L 1863 2753 
Q 2328 2753 2575 2939 
Q 2822 3125 2822 3475 
Q 2822 3834 2567 4026 
Q 2313 4219 1838 4219 
Q 1578 4219 1281 4162 
Q 984 4106 628 3988 
L 628 4550 
Q 988 4650 1302 4700 
Q 1616 4750 1894 4750 
Q 2613 4750 3031 4423 
Q 3450 4097 3450 3541 
Q 3450 3153 3228 2886 
Q 3006 2619 2597 2516 
z
" transform="scale(0.015625)"/>
       </defs>
       <use xlink:href="#DejaVuSans-33"/>
       <use xlink:href="#DejaVuSans-30" x="63.623047"/>
      </g>
     </g>
    </g>
    <g id="text_8">
     <!-- Time(s) -->
     <g transform="translate(217.420156 335.860562) scale(0.1 -0.1)">
      <defs>
       <path id="DejaVuSans-54" d="M -19 4666 
L 3928 4666 
L 3928 4134 
L 2272 4134 
L 2272 0 
L 1638 0 
L 1638 4134 
L -19 4134 
L -19 4666 
z
" transform="scale(0.015625)"/>
       <path id="DejaVuSans-69" d="M 603 3500 
L 1178 3500 
L 1178 0 
L 603 0 
L 603 3500 
z
M 603 4863 
L 1178 4863 
L 1178 4134 
L 603 4134 
L 603 4863 
z
" transform="scale(0.015625)"/>
       <path id="DejaVuSans-6d" d="M 3328 2828 
Q 3544 3216 3844 3400 
Q 4144 3584 4550 3584 
Q 5097 3584 5394 3201 
Q 5691 2819 5691 2113 
L 5691 0 
L 5113 0 
L 5113 2094 
Q 5113 2597 4934 2840 
Q 4756 3084 4391 3084 
Q 3944 3084 3684 2787 
Q 3425 2491 3425 1978 
L 3425 0 
L 2847 0 
L 2847 2094 
Q 2847 2600 2669 2842 
Q 2491 3084 2119 3084 
Q 1678 3084 1418 2786 
Q 1159 2488 1159 1978 
L 1159 0 
L 581 0 
L 581 3500 
L 1159 3500 
L 1159 2956 
Q 1356 3278 1631 3431 
Q 1906 3584 2284 3584 
Q 2666 3584 2933 3390 
Q 3200 3197 3328 2828 
z
" transform="scale(0.015625)"/>
       <path id="DejaVuSans-65" d="M 3597 1894 
L 3597 1613 
L 953 1613 
Q 991 1019 1311 708 
Q 1631 397 2203 397 
Q 2534 397 2845 478 
Q 3156 559 3463 722 
L 3463 178 
Q 3153 47 2828 -22 
Q 2503 -91 2169 -91 
Q 1331 -91 842 396 
Q 353 884 353 1716 
Q 353 2575 817 3079 
Q 1281 3584 2069 3584 
Q 2775 3584 3186 3129 
Q 3597 2675 3597 1894 
z
M 3022 2063 
Q 3016 2534 2758 2815 
Q 2500 3097 2075 3097 
Q 1594 3097 1305 2825 
Q 1016 2553 972 2059 
L 3022 2063 
z
" transform="scale(0.015625)"/>
       <path id="DejaVuSans-28" d="M 1984 4856 
Q 1566 4138 1362 3434 
Q 1159 2731 1159 2009 
Q 1159 1288 1364 580 
Q 1569 -128 1984 -844 
L 1484 -844 
Q 1016 -109 783 600 
Q 550 1309 550 2009 
Q 550 2706 781 3412 
Q 1013 4119 1484 4856 
L 1984 4856 
z
" transform="scale(0.015625)"/>
       <path id="DejaVuSans-73" d="M 2834 3397 
L 2834 2853 
Q 2591 2978 2328 3040 
Q 2066 3103 1784 3103 
Q 1356 3103 1142 2972 
Q 928 2841 928 2578 
Q 928 2378 1081 2264 
Q 1234 2150 1697 2047 
L 1894 2003 
Q 2506 1872 2764 1633 
Q 3022 1394 3022 966 
Q 3022 478 2636 193 
Q 2250 -91 1575 -91 
Q 1294 -91 989 -36 
Q 684 19 347 128 
L 347 722 
Q 666 556 975 473 
Q 1284 391 1588 391 
Q 1994 391 2212 530 
Q 2431 669 2431 922 
Q 2431 1156 2273 1281 
Q 2116 1406 1581 1522 
L 1381 1569 
Q 847 1681 609 1914 
Q 372 2147 372 2553 
Q 372 3047 722 3315 
Q 1072 3584 1716 3584 
Q 2034 3584 2315 3537 
Q 2597 3491 2834 3397 
z
" transform="scale(0.015625)"/>
       <path id="DejaVuSans-29" d="M 513 4856 
L 1013 4856 
Q 1481 4119 1714 3412 
Q 1947 2706 1947 2009 
Q 1947 1309 1714 600 
Q 1481 -109 1013 -844 
L 513 -844 
Q 928 -128 1133 580 
Q 1338 1288 1338 2009 
Q 1338 2731 1133 3434 
Q 928 4138 513 4856 
z
" transform="scale(0.015625)"/>
      </defs>
      <use xlink:href="#DejaVuSans-54"/>
      <use xlink:href="#DejaVuSans-69" x="57.958984"/>
      <use xlink:href="#DejaVuSans-6d" x="85.742188"/>
      <use xlink:href="#DejaVuSans-65" x="183.154297"/>
      <use xlink:href="#DejaVuSans-28" x="244.677734"/>
      <use xlink:href="#DejaVuSans-73" x="283.691406"/>
      <use xlink:href="#DejaVuSans-29" x="335.791016"/>
     </g>
    </g>
   </g>
   <g id="matplotlib.axis_2">
    <g id="ytick_1">
     <g id="line2d_15">
      <path d="M 57.6 295.488 
L 414.72 295.488 
" clip-path="url(#p9624d36f33)" style="fill: none; stroke: #b0b0b0; stroke-width: 0.8; stroke-linecap: square"/>
     </g>
     <g id="line2d_16">
      <defs>
       <path id="m4d66db5453" d="M 0 0 
L -3.5 0 
" style="stroke: #000000; stroke-width: 0.8"/>
      </defs>
      <g>
       <use xlink:href="#m4d66db5453" x="57.6" y="295.488" style="stroke: #000000; stroke-width: 0.8"/>
      </g>
     </g>
     <g id="text_9">
      <!-- 0.00 -->
      <g transform="translate(28.334375 299.287219) scale(0.1 -0.1)">
       <defs>
        <path id="DejaVuSans-2e" d="M 684 794 
L 1344 794 
L 1344 0 
L 684 0 
L 684 794 
z
" transform="scale(0.015625)"/>
       </defs>
       <use xlink:href="#DejaVuSans-30"/>
       <use xlink:href="#DejaVuSans-2e" x="63.623047"/>
       <use xlink:href="#DejaVuSans-30" x="95.410156"/>
       <use xlink:href="#DejaVuSans-30" x="159.033203"/>
      </g>
     </g>
    </g>
    <g id="ytick_2">
     <g id="line2d_17">
      <path d="M 57.6 257.394681 
L 414.72 257.394681 
" clip-path="url(#p9624d36f33)" style="fill: none; stroke: #b0b0b0; stroke-width: 0.8; stroke-linecap: square"/>
     </g>
     <g id="line2d_18">
      <g>
       <use xlink:href="#m4d66db5453" x="57.6" y="257.394681" style="stroke: #000000; stroke-width: 0.8"/>
      </g>
     </g>
     <g id="text_10">
      <!-- 0.05 -->
      <g transform="translate(28.334375 261.1939) scale(0.1 -0.1)">
       <use xlink:href="#DejaVuSans-30"/>
       <use xlink:href="#DejaVuSans-2e" x="63.623047"/>
       <use xlink:href="#DejaVuSans-30" x="95.410156"/>
       <use xlink:href="#DejaVuSans-35" x="159.033203"/>
      </g>
     </g>
    </g>
    <g id="ytick_3">
     <g id="line2d_19">
      <path d="M 57.6 219.301363 
L 414.72 219.301363 
" clip-path="url(#p9624d36f33)" style="fill: none; stroke: #b0b0b0; stroke-width: 0.8; stroke-linecap: square"/>
     </g>
     <g id="line2d_20">
      <g>
       <use xlink:href="#m4d66db5453" x="57.6" y="219.301363" style="stroke: #000000; stroke-width: 0.8"/>
      </g>
     </g>
     <g id="text_11">
      <!-- 0.10 -->
      <g transform="translate(28.334375 223.100582) scale(0.1 -0.1)">
       <use xlink:href="#DejaVuSans-30"/>
       <use xlink:href="#DejaVuSans-2e" x="63.623047"/>
       <use xlink:href="#DejaVuSans-31" x="95.410156"/>
       <use xlink:href="#DejaVuSans-30" x="159.033203"/>
      </g>
     </g>
    </g>
    <g id="ytick_4">
     <g id="line2d_21">
      <path d="M 57.6 181.208044 
L 414.72 181.208044 
" clip-path="url(#p9624d36f33)" style="fill: none; stroke: #b0b0b0; stroke-width: 0.8; stroke-linecap: square"/>
     </g>
     <g id="line2d_22">
      <g>
       <use xlink:href="#m4d66db5453" x="57.6" y="181.208044" style="stroke: #000000; stroke-width: 0.8"/>
      </g>
     </g>
     <g id="text_12">
      <!-- 0.15 -->
      <g transform="translate(28.334375 185.007263) scale(0.1 -0.1)">
       <use xlink:href="#DejaVuSans-30"/>
       <use xlink:href="#DejaVuSans-2e" x="63.623047"/>
       <use xlink:href="#DejaVuSans-31" x="95.410156"/>
       <use xlink:href="#DejaVuSans-35" x="159.033203"/>
      </g>
     </g>
    </g>
    <g id="ytick_5">
     <g id="line2d_23">
      <path d="M 57.6 143.114726 
L 414.72 143.114726 
" clip-path="url(#p9624d36f33)" style="fill: none; stroke: #b0b0b0; stroke-width: 0.8; stroke-linecap: square"/>
     </g>
     <g id="line2d_24">
      <g>
       <use xlink:href="#m4d66db5453" x="57.6" y="143.114726" style="stroke: #000000; stroke-width: 0.8"/>
      </g>
     </g>
     <g id="text_13">
      <!-- 0.20 -->
      <g transform="translate(28.334375 146.913945) scale(0.1 -0.1)">
       <use xlink:href="#DejaVuSans-30"/>
       <use xlink:href="#DejaVuSans-2e" x="63.623047"/>
       <use xlink:href="#DejaVuSans-32" x="95.410156"/>
       <use xlink:href="#DejaVuSans-30" x="159.033203"/>
      </g>
     </g>
    </g>
    <g id="ytick_6">
     <g id="line2d_25">
      <path d="M 57.6 105.021407 
L 414.72 105.021407 
" clip-path="url(#p9624d36f33)" style="fill: none; stroke: #b0b0b0; stroke-width: 0.8; stroke-linecap: square"/>
     </g>
     <g id="line2d_26">
      <g>
       <use xlink:href="#m4d66db5453" x="57.6" y="105.021407" style="stroke: #000000; stroke-width: 0.8"/>
      </g>
     </g>
     <g id="text_14">
      <!-- 0.25 -->
      <g transform="translate(28.334375 108.820626) scale(0.1 -0.1)">
       <use xlink:href="#DejaVuSans-30"/>
       <use xlink:href="#DejaVuSans-2e" x="63.623047"/>
       <use xlink:href="#DejaVuSans-32" x="95.410156"/>
       <use xlink:href="#DejaVuSans-35" x="159.033203"/>
      </g>
     </g>
    </g>
    <g id="ytick_7">
     <g id="line2d_27">
      <path d="M 57.6 66.928089 
L 414.72 66.928089 
" clip-path="url(#p9624d36f33)" style="fill: none; stroke: #b0b0b0; stroke-width: 0.8; stroke-linecap: square"/>
     </g>
     <g id="line2d_28">
      <g>
       <use xlink:href="#m4d66db5453" x="57.6" y="66.928089" style="stroke: #000000; stroke-width: 0.8"/>
      </g>
     </g>
     <g id="text_15">
      <!-- 0.30 -->
      <g transform="translate(28.334375 70.727307) scale(0.1 -0.1)">
       <use xlink:href="#DejaVuSans-30"/>
       <use xlink:href="#DejaVuSans-2e" x="63.623047"/>
       <use xlink:href="#DejaVuSans-33" x="95.410156"/>
       <use xlink:href="#DejaVuSans-30" x="159.033203"/>
      </g>
     </g>
    </g>
    <g id="text_16">
     <!-- Tracking error(m) -->
     <g transform="translate(22.254687 217.803781) rotate(-90) scale(0.1 -0.1)">
      <defs>
       <path id="DejaVuSans-72" d="M 2631 2963 
Q 2534 3019 2420 3045 
Q 2306 3072 2169 3072 
Q 1681 3072 1420 2755 
Q 1159 2438 1159 1844 
L 1159 0 
L 581 0 
L 581 3500 
L 1159 3500 
L 1159 2956 
Q 1341 3275 1631 3429 
Q 1922 3584 2338 3584 
Q 2397 3584 2469 3576 
Q 2541 3569 2628 3553 
L 2631 2963 
z
" transform="scale(0.015625)"/>
       <path id="DejaVuSans-61" d="M 2194 1759 
Q 1497 1759 1228 1600 
Q 959 1441 959 1056 
Q 959 750 1161 570 
Q 1363 391 1709 391 
Q 2188 391 2477 730 
Q 2766 1069 2766 1631 
L 2766 1759 
L 2194 1759 
z
M 3341 1997 
L 3341 0 
L 2766 0 
L 2766 531 
Q 2569 213 2275 61 
Q 1981 -91 1556 -91 
Q 1019 -91 701 211 
Q 384 513 384 1019 
Q 384 1609 779 1909 
Q 1175 2209 1959 2209 
L 2766 2209 
L 2766 2266 
Q 2766 2663 2505 2880 
Q 2244 3097 1772 3097 
Q 1472 3097 1187 3025 
Q 903 2953 641 2809 
L 641 3341 
Q 956 3463 1253 3523 
Q 1550 3584 1831 3584 
Q 2591 3584 2966 3190 
Q 3341 2797 3341 1997 
z
" transform="scale(0.015625)"/>
       <path id="DejaVuSans-63" d="M 3122 3366 
L 3122 2828 
Q 2878 2963 2633 3030 
Q 2388 3097 2138 3097 
Q 1578 3097 1268 2742 
Q 959 2388 959 1747 
Q 959 1106 1268 751 
Q 1578 397 2138 397 
Q 2388 397 2633 464 
Q 2878 531 3122 666 
L 3122 134 
Q 2881 22 2623 -34 
Q 2366 -91 2075 -91 
Q 1284 -91 818 406 
Q 353 903 353 1747 
Q 353 2603 823 3093 
Q 1294 3584 2113 3584 
Q 2378 3584 2631 3529 
Q 2884 3475 3122 3366 
z
" transform="scale(0.015625)"/>
       <path id="DejaVuSans-6b" d="M 581 4863 
L 1159 4863 
L 1159 1991 
L 2875 3500 
L 3609 3500 
L 1753 1863 
L 3688 0 
L 2938 0 
L 1159 1709 
L 1159 0 
L 581 0 
L 581 4863 
z
" transform="scale(0.015625)"/>
       <path id="DejaVuSans-6e" d="M 3513 2113 
L 3513 0 
L 2938 0 
L 2938 2094 
Q 2938 2591 2744 2837 
Q 2550 3084 2163 3084 
Q 1697 3084 1428 2787 
Q 1159 2491 1159 1978 
L 1159 0 
L 581 0 
L 581 3500 
L 1159 3500 
L 1159 2956 
Q 1366 3272 1645 3428 
Q 1925 3584 2291 3584 
Q 2894 3584 3203 3211 
Q 3513 2838 3513 2113 
z
" transform="scale(0.015625)"/>
       <path id="DejaVuSans-67" d="M 2906 1791 
Q 2906 2416 2648 2759 
Q 2391 3103 1925 3103 
Q 1463 3103 1205 2759 
Q 947 2416 947 1791 
Q 947 1169 1205 825 
Q 1463 481 1925 481 
Q 2391 481 2648 825 
Q 2906 1169 2906 1791 
z
M 3481 434 
Q 3481 -459 3084 -895 
Q 2688 -1331 1869 -1331 
Q 1566 -1331 1297 -1286 
Q 1028 -1241 775 -1147 
L 775 -588 
Q 1028 -725 1275 -790 
Q 1522 -856 1778 -856 
Q 2344 -856 2625 -561 
Q 2906 -266 2906 331 
L 2906 616 
Q 2728 306 2450 153 
Q 2172 0 1784 0 
Q 1141 0 747 490 
Q 353 981 353 1791 
Q 353 2603 747 3093 
Q 1141 3584 1784 3584 
Q 2172 3584 2450 3431 
Q 2728 3278 2906 2969 
L 2906 3500 
L 3481 3500 
L 3481 434 
z
" transform="scale(0.015625)"/>
       <path id="DejaVuSans-20" transform="scale(0.015625)"/>
       <path id="DejaVuSans-6f" d="M 1959 3097 
Q 1497 3097 1228 2736 
Q 959 2375 959 1747 
Q 959 1119 1226 758 
Q 1494 397 1959 397 
Q 2419 397 2687 759 
Q 2956 1122 2956 1747 
Q 2956 2369 2687 2733 
Q 2419 3097 1959 3097 
z
M 1959 3584 
Q 2709 3584 3137 3096 
Q 3566 2609 3566 1747 
Q 3566 888 3137 398 
Q 2709 -91 1959 -91 
Q 1206 -91 779 398 
Q 353 888 353 1747 
Q 353 2609 779 3096 
Q 1206 3584 1959 3584 
z
" transform="scale(0.015625)"/>
      </defs>
      <use xlink:href="#DejaVuSans-54"/>
      <use xlink:href="#DejaVuSans-72" x="46.333984"/>
      <use xlink:href="#DejaVuSans-61" x="87.447266"/>
      <use xlink:href="#DejaVuSans-63" x="148.726562"/>
      <use xlink:href="#DejaVuSans-6b" x="203.707031"/>
      <use xlink:href="#DejaVuSans-69" x="261.617188"/>
      <use xlink:href="#DejaVuSans-6e" x="289.400391"/>
      <use xlink:href="#DejaVuSans-67" x="352.779297"/>
      <use xlink:href="#DejaVuSans-20" x="416.255859"/>
      <use xlink:href="#DejaVuSans-65" x="448.042969"/>
      <use xlink:href="#DejaVuSans-72" x="509.566406"/>
      <use xlink:href="#DejaVuSans-72" x="548.929688"/>
      <use xlink:href="#DejaVuSans-6f" x="587.792969"/>
      <use xlink:href="#DejaVuSans-72" x="648.974609"/>
      <use xlink:href="#DejaVuSans-28" x="690.087891"/>
      <use xlink:href="#DejaVuSans-6d" x="729.101562"/>
      <use xlink:href="#DejaVuSans-29" x="826.513672"/>
     </g>
    </g>
   </g>
   <g id="line2d_29">
    <path d="M 73.832727 174.951598 
L 74.244464 153.973607 
L 74.244464 153.973607 
L 74.450333 151.934853 
L 74.450333 151.934853 
L 74.86207 132.613922 
L 74.86207 132.613922 
L 75.273806 123.833412 
L 75.273806 123.833412 
L 75.479675 122.056739 
L 75.479675 122.056739 
L 75.685543 122.100166 
L 75.685543 122.100166 
L 75.891412 124.048258 
L 75.891412 124.048258 
L 76.303149 132.026523 
L 76.303149 132.026523 
L 76.920754 151.441163 
L 76.920754 151.441163 
L 80.008781 263.210007 
L 80.008781 263.210007 
L 80.832255 282.58046 
L 80.832255 282.58046 
L 81.44986 295.488 
L 81.44986 295.488 
L 81.655728 295.221347 
L 81.655728 295.221347 
L 82.273334 289.132511 
L 82.273334 289.132511 
L 83.096808 283.652406 
L 83.096808 283.652406 
L 83.508544 282.047915 
L 83.508544 282.047915 
L 83.920281 281.165674 
L 83.920281 281.165674 
L 84.12615 280.069348 
L 84.12615 280.069348 
L 84.332018 279.653369 
L 84.332018 279.653369 
L 84.537887 279.519281 
L 84.537887 279.519281 
L 84.743755 279.54747 
L 84.743755 279.54747 
L 84.949624 279.752412 
L 84.949624 279.752412 
L 85.155492 279.270151 
L 85.773097 280.309336 
L 85.773097 280.309336 
L 85.978966 280.713887 
L 85.978966 280.713887 
L 86.184834 279.953545 
L 86.184834 279.953545 
L 86.596571 279.897167 
L 86.596571 279.897167 
L 87.008308 280.019827 
L 87.008308 280.019827 
L 87.214177 278.944834 
L 87.214177 278.944834 
L 88.03765 278.050402 
L 88.03765 278.050402 
L 88.449387 275.327492 
L 88.449387 275.327492 
L 89.066993 271.643868 
L 89.066993 271.643868 
L 89.478729 266.833444 
L 89.478729 266.833444 
L 89.890466 262.926593 
L 89.890466 262.926593 
L 90.302203 256.472061 
L 90.302203 256.472061 
L 90.71394 251.596878 
L 90.71394 251.596878 
L 91.125677 243.614804 
L 91.125677 243.614804 
L 91.537414 235.318841 
L 91.537414 235.318841 
L 92.978493 209.969262 
L 92.978493 209.969262 
L 93.39023 204.489919 
L 93.39023 204.489919 
L 93.596098 201.055425 
L 93.596098 201.055425 
L 93.801967 200.078712 
L 93.801967 200.078712 
L 94.007835 197.729878 
L 94.007835 197.729878 
L 94.213704 197.290282 
L 94.213704 197.290282 
L 94.625441 193.71789 
L 94.625441 193.71789 
L 94.831309 195.335332 
L 94.831309 195.335332 
L 95.037178 194.250435 
L 95.037178 194.250435 
L 95.243046 196.130721 
L 95.243046 196.130721 
L 95.448915 195.914351 
L 95.448915 195.914351 
L 95.654783 197.99196 
L 95.654783 197.99196 
L 95.860651 198.532886 
L 95.860651 198.532886 
L 96.06652 197.924154 
L 96.06652 197.924154 
L 96.272388 201.789102 
L 96.272388 201.789102 
L 96.478257 201.534639 
L 96.478257 201.534639 
L 96.684125 204.88228 
L 96.889994 204.585152 
L 96.889994 204.585152 
L 97.095862 207.295111 
L 97.095862 207.295111 
L 97.301731 206.690189 
L 97.301731 206.690189 
L 97.507599 208.567428 
L 97.507599 208.567428 
L 97.713467 207.497005 
L 97.713467 207.497005 
L 97.919336 208.325916 
L 97.919336 208.325916 
L 98.125204 206.602574 
L 98.125204 206.602574 
L 98.331073 206.099742 
L 98.331073 206.099742 
L 98.536941 203.289217 
L 98.536941 203.289217 
L 98.74281 198.433081 
L 98.74281 198.433081 
L 98.948678 197.230856 
L 98.948678 197.230856 
L 99.154547 190.861653 
L 99.154547 190.861653 
L 99.360415 188.577578 
L 99.360415 188.577578 
L 99.566284 180.932249 
L 99.566284 180.932249 
L 99.772152 178.469897 
L 99.772152 178.469897 
L 99.97802 170.787236 
L 99.97802 170.787236 
L 100.183889 169.437209 
L 100.183889 169.437209 
L 100.389757 163.682832 
L 100.389757 163.682832 
L 100.595626 164.213091 
L 100.595626 164.213091 
L 100.801494 161.83683 
L 100.801494 161.83683 
L 101.007363 164.446222 
L 101.007363 164.446222 
L 101.213231 165.454933 
L 101.213231 165.454933 
L 101.4191 165.777203 
L 101.4191 165.777203 
L 101.624968 173.394343 
L 101.624968 173.394343 
L 101.830836 176.064684 
L 101.830836 176.064684 
L 102.448442 198.242615 
L 102.448442 198.242615 
L 102.65431 204.480776 
L 102.65431 204.480776 
L 103.477784 239.515963 
L 103.477784 239.515963 
L 103.889521 258.33711 
L 103.889521 258.33711 
L 104.712995 292.950985 
L 104.712995 292.950985 
L 106.359942 217.752489 
L 106.359942 217.752489 
L 107.183416 195.056489 
L 107.183416 195.056489 
L 107.595153 187.326593 
L 107.595153 187.326593 
L 107.801022 189.440772 
L 107.801022 189.440772 
L 108.00689 189.745519 
L 108.00689 189.745519 
L 108.212758 190.898985 
L 108.212758 190.898985 
L 109.036232 226.913932 
L 109.036232 226.913932 
L 110.065574 288.64644 
L 110.065574 288.64644 
L 110.271443 289.173652 
L 110.271443 289.173652 
L 114.388812 67.770713 
L 114.388812 67.770713 
L 115.006417 54.903552 
L 115.006417 54.903552 
L 115.212286 53.568 
L 115.212286 53.568 
L 115.418154 54.345866 
L 115.418154 54.345866 
L 115.829891 68.790852 
L 115.829891 68.790852 
L 116.241628 92.214434 
L 116.241628 92.214434 
L 116.859233 144.444944 
L 116.859233 144.444944 
L 118.506181 293.165069 
L 118.506181 293.165069 
L 119.535523 214.102387 
L 119.535523 214.102387 
L 120.358997 167.720724 
L 120.358997 167.720724 
L 120.976602 146.231521 
L 120.976602 146.231521 
L 121.388339 139.684803 
L 121.388339 139.684803 
L 121.800076 137.132551 
L 121.800076 137.132551 
L 122.211813 136.424777 
L 122.211813 136.424777 
L 122.62355 135.926517 
L 122.62355 135.926517 
L 123.241155 135.288834 
L 123.241155 135.288834 
L 123.652892 136.013369 
L 123.652892 136.013369 
L 124.064629 137.783947 
L 124.064629 137.783947 
L 124.476366 141.32434 
L 124.476366 141.32434 
L 125.29984 158.28958 
L 125.29984 158.28958 
L 125.711577 172.079361 
L 125.711577 172.079361 
L 126.53505 205.27845 
L 126.53505 205.27845 
L 128.181998 295.488 
L 128.181998 295.488 
L 128.387866 290.465015 
L 128.387866 290.465015 
L 129.828946 223.467248 
L 129.828946 223.467248 
L 130.652419 195.181435 
L 130.652419 195.181435 
L 131.270025 180.715117 
L 131.270025 180.715117 
L 131.88763 171.31521 
L 131.88763 171.31521 
L 132.505235 165.897578 
L 132.505235 165.897578 
L 132.711104 165.013813 
L 132.711104 165.013813 
L 133.122841 165.749014 
L 133.122841 165.749014 
L 133.328709 166.529927 
L 133.328709 166.529927 
L 133.740446 169.393021 
L 133.740446 169.393021 
L 134.56392 181.727637 
L 134.56392 181.727637 
L 135.387394 197.212571 
L 135.387394 197.212571 
L 136.004999 207.852797 
L 136.004999 207.852797 
L 137.034341 219.53297 
L 137.034341 219.53297 
L 137.24021 220.227792 
L 137.24021 220.227792 
L 137.446078 220.215603 
L 137.446078 220.215603 
L 137.651947 219.4065 
L 137.651947 219.4065 
L 137.857815 219.875048 
L 137.857815 219.875048 
L 138.887157 212.482659 
L 138.887157 212.482659 
L 139.093026 213.251382 
L 139.504763 210.801982 
L 139.504763 210.801982 
L 139.710631 212.534466 
L 139.710631 212.534466 
L 139.9165 212.255623 
L 139.9165 212.255623 
L 140.328237 215.073766 
L 140.328237 215.073766 
L 140.534105 215.892011 
L 140.534105 215.892011 
L 140.945842 221.142032 
L 140.945842 221.142032 
L 141.15171 222.572055 
L 141.15171 222.572055 
L 141.563447 229.027349 
L 141.563447 229.027349 
L 141.769316 230.599079 
L 141.769316 230.599079 
L 141.975184 235.500166 
L 141.975184 235.500166 
L 142.181053 237.638725 
L 142.181053 237.638725 
L 142.59279 244.324102 
L 142.59279 244.324102 
L 142.798658 246.161724 
L 142.798658 246.161724 
L 143.210395 252.851672 
L 143.210395 252.851672 
L 143.416263 254.347216 
L 143.416263 254.347216 
L 143.622132 259.105833 
L 143.622132 259.105833 
L 144.033869 262.380335 
L 144.033869 262.380335 
L 144.239737 267.605215 
L 144.239737 267.605215 
L 144.445606 269.427599 
L 144.445606 269.427599 
L 144.857342 276.260778 
L 144.857342 276.260778 
L 145.063211 277.960502 
L 145.063211 277.960502 
L 145.474948 285.208899 
L 145.474948 285.208899 
L 145.680816 286.734155 
L 145.680816 286.734155 
L 145.886685 292.306446 
L 145.886685 292.306446 
L 146.092553 294.493003 
L 146.092553 294.493003 
L 146.710159 286.09495 
L 146.710159 286.09495 
L 147.121895 277.593283 
L 147.121895 277.593283 
L 147.327764 275.3633 
L 147.327764 275.3633 
L 147.533632 270.530781 
L 147.533632 270.530781 
L 147.739501 268.727444 
L 147.739501 268.727444 
L 147.945369 265.555032 
L 148.151238 264.359664 
L 148.151238 264.359664 
L 148.357106 264.259097 
L 148.357106 264.259097 
L 148.562975 262.240152 
L 148.562975 262.240152 
L 148.768843 262.524328 
L 148.768843 262.524328 
L 148.974711 263.576465 
L 148.974711 263.576465 
L 149.18058 261.763985 
L 149.18058 261.763985 
L 149.386448 262.526613 
L 149.592317 261.341911 
L 149.592317 261.341911 
L 149.798185 261.456953 
L 149.798185 261.456953 
L 150.004054 261.878265 
L 150.004054 261.878265 
L 150.209922 259.702375 
L 150.209922 259.702375 
L 150.621659 258.417106 
L 150.621659 258.417106 
L 151.033396 252.809008 
L 151.033396 252.809008 
L 151.239264 250.894438 
L 151.239264 250.894438 
L 151.651001 243.238442 
L 151.651001 243.238442 
L 151.85687 240.334208 
L 151.85687 240.334208 
L 152.474475 225.925791 
L 152.474475 225.925791 
L 154.739028 179.421468 
L 154.739028 179.421468 
L 155.150765 174.126496 
L 155.150765 174.126496 
L 155.562502 172.11136 
L 155.562502 172.11136 
L 155.76837 172.050411 
L 155.76837 172.050411 
L 155.974239 172.694188 
L 155.974239 172.694188 
L 156.385976 176.208677 
L 156.385976 176.208677 
L 156.797713 181.926484 
L 156.797713 181.926484 
L 157.415318 194.567371 
L 157.415318 194.567371 
L 160.297476 264.128818 
L 160.297476 264.128818 
L 161.944424 293.590191 
L 161.944424 293.590191 
L 162.150292 293.818751 
L 162.150292 293.818751 
L 163.385503 272.117749 
L 163.385503 272.117749 
L 164.208977 261.082115 
L 164.208977 261.082115 
L 165.032451 253.085565 
L 165.032451 253.085565 
L 165.238319 252.474548 
L 165.238319 252.474548 
L 165.650056 250.796157 
L 165.650056 250.796157 
L 165.855924 250.350465 
L 165.855924 250.350465 
L 166.061793 250.186664 
L 166.061793 250.186664 
L 166.679398 253.055852 
L 166.679398 253.055852 
L 167.091135 255.17765 
L 167.091135 255.17765 
L 167.502872 258.825466 
L 167.502872 258.825466 
L 169.14982 269.140375 
L 169.14982 269.140375 
L 169.561556 273.831187 
L 169.561556 273.831187 
L 170.179162 280.205722 
L 170.179162 280.205722 
L 170.590899 287.151658 
L 170.590899 287.151658 
L 170.796767 295.488 
L 170.796767 295.488 
L 171.002636 293.510195 
L 171.002636 293.510195 
L 171.208504 294.211112 
L 171.208504 294.211112 
L 171.620241 285.661448 
L 171.620241 285.661448 
L 172.649583 269.618066 
L 172.649583 269.618066 
L 173.267189 264.371092 
L 173.267189 264.371092 
L 173.473057 263.791311 
L 173.473057 263.791311 
L 173.678925 263.884259 
L 173.678925 263.884259 
L 173.884794 264.637745 
L 173.884794 264.637745 
L 174.090662 264.617937 
L 174.090662 264.617937 
L 174.502399 268.077572 
L 174.502399 268.077572 
L 175.73761 284.421129 
L 175.73761 284.421129 
L 176.355215 294.870126 
L 176.355215 294.870126 
L 176.561084 295.488 
L 176.561084 295.488 
L 176.766952 287.978283 
L 176.766952 287.978283 
L 177.178689 281.077298 
L 177.178689 281.077298 
L 178.002163 266.147764 
L 178.002163 266.147764 
L 178.4139 259.879128 
L 178.4139 259.879128 
L 178.825637 254.117132 
L 178.825637 254.117132 
L 179.443242 245.91107 
L 179.443242 245.91107 
L 179.649111 242.774466 
L 179.649111 242.774466 
L 179.854979 241.454913 
L 179.854979 241.454913 
L 180.472584 234.487645 
L 180.472584 234.487645 
L 180.884321 230.487085 
L 180.884321 230.487085 
L 181.09019 227.629324 
L 181.09019 227.629324 
L 181.296058 226.587091 
L 181.296058 226.587091 
L 181.501927 223.90456 
L 181.501927 223.90456 
L 181.707795 222.790711 
L 181.707795 222.790711 
L 181.913663 220.278837 
L 181.913663 220.278837 
L 182.119532 219.13299 
L 182.119532 219.13299 
L 182.737137 212.385902 
L 182.737137 212.385902 
L 182.943006 210.574184 
L 182.943006 210.574184 
L 183.560611 201.373123 
L 183.560611 201.373123 
L 183.76648 199.460077 
L 183.76648 199.460077 
L 183.972348 195.337618 
L 183.972348 195.337618 
L 184.178216 193.950259 
L 184.178216 193.950259 
L 184.384085 189.993125 
L 184.384085 189.993125 
L 184.589953 189.814087 
L 184.589953 189.814087 
L 184.795822 186.024564 
L 184.795822 186.024564 
L 185.00169 186.92128 
L 185.00169 186.92128 
L 185.207559 183.204896 
L 185.413427 185.352597 
L 185.413427 185.352597 
L 185.619296 185.833335 
L 185.619296 185.833335 
L 185.825164 183.820484 
L 185.825164 183.820484 
L 186.031032 184.392646 
L 186.031032 184.392646 
L 186.236901 181.449556 
L 186.236901 181.449556 
L 186.442769 182.2678 
L 186.442769 182.2678 
L 186.648638 178.582653 
L 186.648638 178.582653 
L 186.854506 180.251902 
L 186.854506 180.251902 
L 187.060375 175.986974 
L 187.060375 175.986974 
L 187.266243 178.232194 
L 187.266243 178.232194 
L 187.472112 178.424185 
L 187.472112 178.424185 
L 187.67798 175.297485 
L 187.67798 175.297485 
L 187.883849 176.322195 
L 187.883849 176.322195 
L 188.089717 172.738376 
L 188.089717 172.738376 
L 188.501454 177.909163 
L 188.501454 177.909163 
L 188.707322 178.433327 
L 188.707322 178.433327 
L 188.913191 182.867389 
L 188.913191 182.867389 
L 189.119059 183.140899 
L 189.530796 194.160535 
L 189.530796 194.160535 
L 189.736665 196.473561 
L 189.736665 196.473561 
L 189.942533 203.149796 
L 189.942533 203.149796 
L 190.148401 205.45368 
L 190.148401 205.45368 
L 190.560138 222.066176 
L 190.560138 222.066176 
L 190.766007 225.403913 
L 190.766007 225.403913 
L 190.971875 233.244279 
L 190.971875 233.244279 
L 191.177744 232.973055 
L 191.177744 232.973055 
L 191.589481 244.430001 
L 191.589481 244.430001 
L 191.795349 239.632529 
L 191.795349 239.632529 
L 192.001218 242.331821 
L 192.001218 242.331821 
L 192.207086 241.913557 
L 192.207086 241.913557 
L 192.412954 233.210757 
L 192.412954 233.210757 
L 192.618823 232.536505 
L 192.618823 232.536505 
L 192.824691 228.994589 
L 192.824691 228.994589 
L 193.03056 219.082707 
L 193.03056 219.082707 
L 193.236428 216.750634 
L 193.236428 216.750634 
L 193.442297 203.612249 
L 193.442297 203.612249 
L 193.648165 203.859855 
L 193.648165 203.859855 
L 193.854034 201.875193 
L 193.854034 201.875193 
L 194.059902 191.53819 
L 194.059902 191.53819 
L 194.26577 192.752605 
L 194.26577 192.752605 
L 194.471639 191.202207 
L 194.471639 191.202207 
L 194.677507 184.173228 
L 194.677507 184.173228 
L 194.883376 186.227982 
L 194.883376 186.227982 
L 195.089244 178.584938 
L 195.089244 178.584938 
L 195.500981 189.731805 
L 195.500981 189.731805 
L 195.70685 188.173789 
L 195.70685 188.173789 
L 195.912718 195.314 
L 195.912718 195.314 
L 196.118586 193.519043 
L 196.118586 193.519043 
L 196.530323 207.604428 
L 196.530323 207.604428 
L 196.736192 206.174405 
L 196.736192 206.174405 
L 196.94206 211.518136 
L 197.147929 213.874589 
L 197.147929 213.874589 
L 197.353797 210.967307 
L 197.353797 210.967307 
L 197.559666 213.096723 
L 197.559666 213.096723 
L 197.765534 206.133265 
L 197.765534 206.133265 
L 197.971403 208.703802 
L 197.971403 208.703802 
L 198.177271 209.034452 
L 198.177271 209.034452 
L 198.383139 202.992089 
L 198.383139 202.992089 
L 198.794876 206.479152 
L 198.794876 206.479152 
L 199.000745 204.117366 
L 199.000745 204.117366 
L 199.206613 208.104975 
L 199.206613 208.104975 
L 199.412482 204.620198 
L 199.412482 204.620198 
L 199.824219 214.825398 
L 199.824219 214.825398 
L 200.030087 213.223955 
L 200.030087 213.223955 
L 200.441824 223.10079 
L 200.441824 223.10079 
L 200.647692 223.083268 
L 200.647692 223.083268 
L 200.853561 227.828933 
L 200.853561 227.828933 
L 201.059429 225.603522 
L 201.059429 225.603522 
L 201.471166 235.078854 
L 201.471166 235.078854 
L 201.677035 234.719253 
L 201.677035 234.719253 
L 201.882903 239.723953 
L 201.882903 239.723953 
L 202.088772 239.400921 
L 202.088772 239.400921 
L 202.500508 250.745112 
L 202.500508 250.745112 
L 202.706377 253.535066 
L 202.706377 253.535066 
L 203.941588 293.676282 
L 203.941588 293.676282 
L 206.000272 193.301911 
L 206.000272 193.301911 
L 206.206141 190.748135 
L 206.206141 190.748135 
L 206.412009 182.507788 
L 206.412009 182.507788 
L 206.617877 182.853676 
L 206.617877 182.853676 
L 206.823746 176.348861 
L 206.823746 176.348861 
L 207.029614 178.654268 
L 207.029614 178.654268 
L 207.235483 173.063693 
L 207.235483 173.063693 
L 207.441351 176.72827 
L 207.441351 176.72827 
L 207.64722 171.481296 
L 207.64722 171.481296 
L 207.853088 175.851362 
L 207.853088 175.851362 
L 208.058957 177.433758 
L 208.264825 175.029308 
L 208.264825 175.029308 
L 208.470693 176.885215 
L 208.470693 176.885215 
L 208.676562 174.598092 
L 208.676562 174.598092 
L 208.88243 177.515278 
L 208.88243 177.515278 
L 209.088299 175.500141 
L 209.088299 175.500141 
L 209.294167 179.797068 
L 209.294167 179.797068 
L 209.500036 178.409709 
L 209.500036 178.409709 
L 209.705904 183.414409 
L 209.705904 183.414409 
L 209.911773 182.462076 
L 209.911773 182.462076 
L 210.117641 187.552106 
L 210.117641 187.552106 
L 210.32351 186.269123 
L 210.32351 186.269123 
L 210.529378 190.98279 
L 210.529378 190.98279 
L 210.735246 188.650717 
L 210.735246 188.650717 
L 210.941115 192.821935 
L 210.941115 192.821935 
L 211.146983 194.587942 
L 211.146983 194.587942 
L 211.352852 192.703084 
L 211.352852 192.703084 
L 211.55872 194.069111 
L 211.55872 194.069111 
L 211.764589 191.184684 
L 211.764589 191.184684 
L 211.970457 192.835649 
L 211.970457 192.835649 
L 212.176326 189.593146 
L 212.176326 189.593146 
L 212.382194 191.842937 
L 212.382194 191.842937 
L 212.588062 188.468631 
L 212.793931 191.495526 
L 212.793931 191.495526 
L 212.999799 188.016082 
L 212.999799 188.016082 
L 213.411536 193.46876 
L 213.411536 193.46876 
L 213.617405 192.034165 
L 213.617405 192.034165 
L 213.823273 194.248149 
L 213.823273 194.248149 
L 214.029142 192.675657 
L 214.029142 192.675657 
L 214.23501 195.708647 
L 214.23501 195.708647 
L 214.440879 194.335002 
L 214.440879 194.335002 
L 214.646747 198.270804 
L 214.646747 198.270804 
L 214.852615 197.195048 
L 214.852615 197.195048 
L 215.058484 201.962808 
L 215.058484 201.962808 
L 215.264352 201.159801 
L 215.264352 201.159801 
L 215.676089 210.276294 
L 215.676089 210.276294 
L 215.881958 211.522707 
L 215.881958 211.522707 
L 216.087826 215.322135 
L 216.087826 215.322135 
L 216.293695 216.347607 
L 216.293695 216.347607 
L 216.499563 220.386261 
L 216.499563 220.386261 
L 216.705431 221.391162 
L 216.705431 221.391162 
L 216.9113 225.744467 
L 216.9113 225.744467 
L 217.117168 226.952787 
L 217.117168 226.952787 
L 217.323037 231.603981 
L 217.323037 231.603981 
L 217.528905 233.262564 
L 217.528905 233.262564 
L 217.734774 238.316024 
L 217.734774 238.316024 
L 217.940642 240.514008 
L 217.940642 240.514008 
L 218.558248 254.282457 
L 218.558248 254.282457 
L 218.764116 257.691047 
L 218.764116 257.691047 
L 219.381721 273.014466 
L 219.381721 273.014466 
L 220.411064 295.155826 
L 220.411064 295.155826 
L 221.852143 271.624822 
L 221.852143 271.624822 
L 222.469748 265.034677 
L 222.469748 265.034677 
L 222.881485 262.192916 
L 222.881485 262.192916 
L 223.293222 261.727415 
L 223.293222 261.727415 
L 223.49909 261.897312 
L 223.49909 261.897312 
L 224.116696 265.065152 
L 224.116696 265.065152 
L 225.763643 279.414143 
L 225.763643 279.414143 
L 226.587117 289.522586 
L 226.587117 289.522586 
L 226.998854 294.964598 
L 226.998854 294.964598 
L 227.410591 291.088222 
L 227.410591 291.088222 
L 228.028196 285.325464 
L 228.028196 285.325464 
L 228.439933 282.810544 
L 228.439933 282.810544 
L 229.057538 280.204961 
L 229.057538 280.204961 
L 229.881012 278.835887 
L 229.881012 278.835887 
L 230.086881 278.911311 
L 230.086881 278.911311 
L 230.498618 280.161534 
L 230.498618 280.161534 
L 230.910355 282.583507 
L 230.910355 282.583507 
L 231.52796 288.382834 
L 231.52796 288.382834 
L 231.733828 295.488 
L 231.733828 295.488 
L 231.939697 292.792517 
L 231.939697 292.792517 
L 232.145565 294.960788 
L 232.145565 294.960788 
L 232.351434 294.05112 
L 232.351434 294.05112 
L 232.557302 292.19369 
L 232.557302 292.19369 
L 232.763171 295.488 
L 232.969039 288.74853 
L 232.969039 288.74853 
L 233.998381 281.788119 
L 233.998381 281.788119 
L 234.615987 278.400861 
L 234.615987 278.400861 
L 235.027724 276.900746 
L 235.027724 276.900746 
L 235.233592 276.54724 
L 235.233592 276.54724 
L 235.645329 277.146829 
L 235.645329 277.146829 
L 236.057066 278.580661 
L 236.057066 278.580661 
L 236.468803 281.031586 
L 236.468803 281.031586 
L 237.704013 288.782052 
L 237.704013 288.782052 
L 237.909882 295.488 
L 237.909882 295.488 
L 238.11575 291.080603 
L 238.11575 291.080603 
L 238.939224 295.488 
L 238.939224 295.488 
L 239.556829 289.005279 
L 239.556829 289.005279 
L 240.79204 274.127553 
L 240.79204 274.127553 
L 242.027251 257.761139 
L 242.027251 257.761139 
L 243.056593 239.348353 
L 243.056593 239.348353 
L 244.291804 214.960248 
L 244.291804 214.960248 
L 244.703541 209.476334 
L 244.703541 209.476334 
L 244.909409 206.137074 
L 244.909409 206.137074 
L 245.115278 205.123792 
L 245.115278 205.123792 
L 245.527014 200.072618 
L 245.527014 200.072618 
L 245.732883 199.901198 
L 245.732883 199.901198 
L 246.14462 196.209955 
L 246.14462 196.209955 
L 246.350488 197.258283 
L 246.350488 197.258283 
L 246.556357 196.181766 
L 246.556357 196.181766 
L 246.762225 196.911634 
L 246.762225 196.911634 
L 246.968094 196.545176 
L 247.173962 195.731503 
L 247.173962 195.731503 
L 247.379831 197.42437 
L 247.379831 197.42437 
L 247.585699 197.410656 
L 247.585699 197.410656 
L 247.791567 196.85297 
L 247.791567 196.85297 
L 247.997436 199.247516 
L 247.997436 199.247516 
L 248.203304 199.213232 
L 248.203304 199.213232 
L 248.409173 201.199418 
L 248.409173 201.199418 
L 248.615041 201.669489 
L 248.615041 201.669489 
L 248.82091 201.644348 
L 248.82091 201.644348 
L 249.026778 204.651434 
L 249.026778 204.651434 
L 249.232647 205.318829 
L 249.232647 205.318829 
L 249.438515 208.363247 
L 249.438515 208.363247 
L 249.850252 210.474379 
L 249.850252 210.474379 
L 250.05612 214.932059 
L 250.05612 214.932059 
L 250.261989 216.308752 
L 250.261989 216.308752 
L 250.467857 220.34131 
L 250.467857 220.34131 
L 250.673726 221.914565 
L 250.673726 221.914565 
L 250.879594 225.314774 
L 250.879594 225.314774 
L 251.085463 226.702133 
L 251.085463 226.702133 
L 251.291331 229.268861 
L 251.291331 229.268861 
L 251.4972 230.300428 
L 251.4972 230.300428 
L 251.703068 230.084058 
L 251.703068 230.084058 
L 251.908936 232.8443 
L 251.908936 232.8443 
L 252.114805 232.091576 
L 252.114805 232.091576 
L 252.320673 233.887295 
L 252.320673 233.887295 
L 252.526542 232.394036 
L 252.526542 232.394036 
L 252.73241 233.548264 
L 252.73241 233.548264 
L 252.938279 231.635218 
L 252.938279 231.635218 
L 253.144147 232.269852 
L 253.144147 232.269852 
L 253.350016 230.086343 
L 253.350016 230.086343 
L 253.555884 230.503084 
L 253.555884 230.503084 
L 253.761752 227.751985 
L 253.761752 227.751985 
L 253.967621 227.678084 
L 254.173489 224.482816 
L 254.379358 224.256542 
L 254.379358 224.256542 
L 254.585226 220.68796 
L 254.585226 220.68796 
L 254.791095 220.63082 
L 254.791095 220.63082 
L 254.996963 217.141472 
L 254.996963 217.141472 
L 255.202832 217.363175 
L 255.202832 217.363175 
L 255.4087 216.677495 
L 255.4087 216.677495 
L 255.614569 214.485606 
L 255.614569 214.485606 
L 255.820437 214.487129 
L 255.820437 214.487129 
L 256.026305 212.761502 
L 256.026305 212.761502 
L 256.232174 213.438039 
L 256.232174 213.438039 
L 256.438042 211.381762 
L 256.438042 211.381762 
L 256.643911 212.173341 
L 256.643911 212.173341 
L 256.849779 209.547188 
L 256.849779 209.547188 
L 257.055648 210.060686 
L 257.055648 210.060686 
L 257.261516 209.457288 
L 258.08499 194.972684 
L 258.08499 194.972684 
L 258.290858 190.156927 
L 258.290858 190.156927 
L 259.114332 162.941536 
L 259.114332 162.941536 
L 259.320201 157.581044 
L 259.320201 157.581044 
L 259.526069 147.183092 
L 259.526069 147.183092 
L 259.731938 144.043441 
L 259.731938 144.043441 
L 259.937806 132.790675 
L 259.937806 132.790675 
L 260.349543 136.957322 
L 260.349543 136.957322 
L 260.555411 135.359688 
L 260.555411 135.359688 
L 260.76128 143.580226 
L 260.76128 143.580226 
L 260.967148 145.205287 
L 260.967148 145.205287 
L 261.378885 170.249358 
L 261.378885 170.249358 
L 261.584754 177.289004 
L 261.584754 177.289004 
L 261.790622 191.375151 
L 261.790622 191.375151 
L 261.99649 195.304096 
L 261.99649 195.304096 
L 262.408227 221.066607 
L 262.408227 221.066607 
L 262.614096 223.374301 
L 262.614096 223.374301 
L 263.025833 241.340633 
L 263.025833 241.340633 
L 263.231701 240.896465 
L 263.231701 240.896465 
L 263.43757 247.407375 
L 263.643438 242.158116 
L 263.643438 242.158116 
L 263.849307 246.876354 
L 263.849307 246.876354 
L 264.055175 247.967347 
L 264.055175 247.967347 
L 264.261043 239.643957 
L 264.261043 239.643957 
L 264.466912 238.850854 
L 264.67278 234.912005 
L 264.67278 234.912005 
L 264.878649 222.658908 
L 264.878649 222.658908 
L 265.084517 218.653776 
L 265.084517 218.653776 
L 265.290386 212.2381 
L 265.290386 212.2381 
L 265.496254 200.274512 
L 265.496254 200.274512 
L 265.702123 197.205714 
L 265.702123 197.205714 
L 265.907991 185.065374 
L 265.907991 185.065374 
L 266.113859 185.587252 
L 266.319728 185.279458 
L 266.319728 185.279458 
L 266.525596 179.000917 
L 266.525596 179.000917 
L 266.937333 184.148849 
L 266.937333 184.148849 
L 267.143202 181.156999 
L 267.143202 181.156999 
L 267.34907 185.285553 
L 267.34907 185.285553 
L 267.554939 180.653406 
L 267.554939 180.653406 
L 267.966676 190.903556 
L 267.966676 190.903556 
L 268.172544 186.728528 
L 268.172544 186.728528 
L 268.378412 191.350771 
L 268.378412 191.350771 
L 268.584281 193.111445 
L 268.584281 193.111445 
L 268.790149 190.230828 
L 268.790149 190.230828 
L 268.996018 194.633654 
L 268.996018 194.633654 
L 269.201886 190.461673 
L 269.201886 190.461673 
L 269.613623 202.45345 
L 269.613623 202.45345 
L 269.819492 203.508635 
L 269.819492 203.508635 
L 270.02536 212.282288 
L 270.02536 212.282288 
L 270.231228 215.917914 
L 270.231228 215.917914 
L 271.260571 278.380291 
L 271.260571 278.380291 
L 271.466439 295.488 
L 271.466439 295.488 
L 272.084045 247.258811 
L 272.084045 247.258811 
L 272.70165 190.924888 
L 272.70165 190.924888 
L 273.113387 171.281687 
L 273.113387 171.281687 
L 273.319255 156.659186 
L 273.319255 156.659186 
L 273.525124 150.605396 
L 273.525124 150.605396 
L 273.730992 138.753041 
L 273.730992 138.753041 
L 273.936861 136.939799 
L 273.936861 136.939799 
L 274.142729 128.251475 
L 274.142729 128.251475 
L 274.348597 130.236137 
L 274.348597 130.236137 
L 274.554466 124.065781 
L 274.554466 124.065781 
L 274.760334 129.081909 
L 274.760334 129.081909 
L 274.966203 125.248198 
L 274.966203 125.248198 
L 275.172071 133.933474 
L 275.172071 133.933474 
L 275.37794 132.179658 
L 275.37794 132.179658 
L 275.789677 155.532386 
L 275.789677 155.532386 
L 275.995545 162.562127 
L 275.995545 162.562127 
L 276.61315 194.759361 
L 276.61315 194.759361 
L 276.819019 198.988482 
L 276.819019 198.988482 
L 277.230756 218.039712 
L 277.230756 218.039712 
L 277.436624 218.152468 
L 277.642493 223.871037 
L 277.642493 223.871037 
L 277.848361 226.101782 
L 277.848361 226.101782 
L 278.05423 223.391823 
L 278.05423 223.391823 
L 278.260098 225.162401 
L 278.260098 225.162401 
L 278.465966 219.623632 
L 278.465966 219.623632 
L 278.671835 221.769048 
L 278.671835 221.769048 
L 278.877703 221.285263 
L 278.877703 221.285263 
L 279.083572 216.394081 
L 279.083572 216.394081 
L 279.28944 217.127758 
L 279.28944 217.127758 
L 279.495309 211.588228 
L 279.495309 211.588228 
L 279.907046 217.417267 
L 279.907046 217.417267 
L 280.112914 216.744539 
L 280.112914 216.744539 
L 280.318782 221.649435 
L 280.318782 221.649435 
L 280.524651 221.209838 
L 280.524651 221.209838 
L 280.936388 232.854966 
L 280.936388 232.854966 
L 281.142256 234.958479 
L 281.142256 234.958479 
L 281.348125 240.456106 
L 281.348125 240.456106 
L 281.553993 242.14745 
L 281.553993 242.14745 
L 281.96573 251.877245 
L 281.96573 251.877245 
L 282.583335 260.978501 
L 282.583335 260.978501 
L 283.200941 269.53807 
L 283.200941 269.53807 
L 283.818546 276.879414 
L 283.818546 276.879414 
L 284.436151 283.448988 
L 284.436151 283.448988 
L 285.465494 295.47581 
L 285.465494 295.47581 
L 286.906573 278.578376 
L 286.906573 278.578376 
L 287.935915 266.072339 
L 287.935915 266.072339 
L 288.347652 262.192154 
L 288.347652 262.192154 
L 288.759389 258.403393 
L 288.759389 258.403393 
L 288.965257 258.172547 
L 288.965257 258.172547 
L 289.376994 256.207694 
L 289.376994 256.207694 
L 289.582863 257.518866 
L 289.582863 257.518866 
L 289.788731 257.54934 
L 289.788731 257.54934 
L 289.9946 257.424394 
L 289.9946 257.424394 
L 290.200468 259.829606 
L 290.200468 259.829606 
L 290.406337 260.567093 
L 290.406337 260.567093 
L 290.612205 260.861173 
L 290.612205 260.861173 
L 290.818073 263.680079 
L 290.818073 263.680079 
L 291.22981 264.889923 
L 291.22981 264.889923 
L 291.435679 267.767492 
L 291.435679 267.767492 
L 291.641547 268.508788 
L 291.641547 268.508788 
L 291.847416 268.684779 
L 291.847416 268.684779 
L 292.053284 271.50978 
L 292.053284 271.50978 
L 292.259153 272.199269 
L 292.259153 272.199269 
L 292.465021 272.400401 
L 292.465021 272.400401 
L 292.670889 275.57967 
L 292.670889 275.57967 
L 293.082626 277.744132 
L 293.082626 277.744132 
L 293.494363 284.0501 
L 293.494363 284.0501 
L 293.700232 286.126186 
L 293.700232 286.126186 
L 294.111969 295.032404 
L 294.111969 295.032404 
L 294.523706 287.691821 
L 294.523706 287.691821 
L 294.935442 273.759571 
L 294.935442 273.759571 
L 295.347179 259.102024 
L 295.347179 259.102024 
L 296.376522 221.399543 
L 296.376522 221.399543 
L 297.817601 166.166517 
L 297.817601 166.166517 
L 298.641075 139.20178 
L 298.641075 139.20178 
L 299.25868 125.427236 
L 299.25868 125.427236 
L 299.464548 122.026265 
L 300.082154 117.849713 
L 300.082154 117.849713 
L 300.288022 117.061943 
L 300.288022 117.061943 
L 300.493891 118.767762 
L 300.493891 118.767762 
L 300.905627 120.312827 
L 300.905627 120.312827 
L 301.317364 125.376191 
L 301.317364 125.376191 
L 301.523233 127.22905 
L 301.523233 127.22905 
L 301.93497 133.888524 
L 301.93497 133.888524 
L 302.346707 138.957983 
L 302.346707 138.957983 
L 302.758444 147.575453 
L 302.758444 147.575453 
L 302.964312 150.511686 
L 302.964312 150.511686 
L 303.376049 160.9104 
L 303.376049 160.9104 
L 303.787786 169.514157 
L 303.787786 169.514157 
L 304.199523 185.522494 
L 304.199523 185.522494 
L 304.61126 202.675915 
L 304.61126 202.675915 
L 307.081681 295.468953 
L 307.081681 295.468953 
L 307.493418 280.793121 
L 307.493418 280.793121 
L 308.316892 255.395544 
L 308.316892 255.395544 
L 309.140365 229.183532 
L 309.140365 229.183532 
L 310.993182 176.445618 
L 310.993182 176.445618 
L 311.816655 160.488327 
L 311.816655 160.488327 
L 312.640129 149.761248 
L 312.640129 149.761248 
L 313.257734 145.145862 
L 313.257734 145.145862 
L 313.463603 144.399994 
L 313.463603 144.399994 
L 313.669471 144.094486 
L 313.669471 144.094486 
L 313.87534 144.26362 
L 313.87534 144.26362 
L 314.081208 144.934063 
L 314.081208 144.934063 
L 314.492945 148.049334 
L 314.492945 148.049334 
L 314.904682 153.463919 
L 314.904682 153.463919 
L 315.522287 166.321937 
L 315.522287 166.321937 
L 316.345761 189.79885 
L 316.345761 189.79885 
L 317.992709 239.705668 
L 317.992709 239.705668 
L 319.22792 266.393085 
L 319.22792 266.393085 
L 320.668999 295.488 
L 320.668999 295.488 
L 323.345289 231.671025 
L 323.345289 231.671025 
L 324.786368 203.95585 
L 324.786368 203.95585 
L 324.992236 201.940714 
L 324.992236 201.940714 
L 325.403973 196.76307 
L 325.403973 196.76307 
L 326.021578 190.371773 
L 326.021578 190.371773 
L 326.433315 185.859239 
L 326.433315 185.859239 
L 326.639184 185.554492 
L 326.639184 185.554492 
L 326.845052 183.84334 
L 326.845052 183.84334 
L 327.050921 183.476882 
L 327.462658 180.547506 
L 327.462658 180.547506 
L 327.668526 181.098336 
L 327.668526 181.098336 
L 327.874394 179.890016 
L 327.874394 179.890016 
L 328.080263 180.505604 
L 328.080263 180.505604 
L 328.286131 179.664503 
L 328.286131 179.664503 
L 328.492 178.06306 
L 328.492 178.06306 
L 328.697868 180.066007 
L 328.697868 180.066007 
L 328.903737 178.989489 
L 328.903737 178.989489 
L 329.109605 180.926916 
L 329.109605 180.926916 
L 329.315474 180.216856 
L 329.315474 180.216856 
L 329.521342 182.080381 
L 329.521342 182.080381 
L 329.72721 181.601167 
L 329.72721 181.601167 
L 329.933079 183.304701 
L 329.933079 183.304701 
L 330.138947 183.087569 
L 330.138947 183.087569 
L 330.344816 181.54936 
L 330.344816 181.54936 
L 330.550684 184.653204 
L 330.550684 184.653204 
L 330.756553 183.306986 
L 330.756553 183.306986 
L 330.962421 185.906474 
L 330.962421 185.906474 
L 331.16829 184.232654 
L 331.16829 184.232654 
L 331.374158 186.04361 
L 331.374158 186.04361 
L 331.580027 184.077233 
L 331.580027 184.077233 
L 331.785895 185.175083 
L 331.785895 185.175083 
L 331.991763 182.804154 
L 331.991763 182.804154 
L 332.197632 183.505833 
L 332.197632 183.505833 
L 332.4035 181.172998 
L 332.4035 181.172998 
L 332.609369 181.411463 
L 332.609369 181.411463 
L 332.815237 179.023012 
L 332.815237 179.023012 
L 333.021106 179.378803 
L 333.021106 179.378803 
L 333.226974 177.349953 
L 333.226974 177.349953 
L 333.432843 177.858118 
L 333.432843 177.858118 
L 333.638711 176.441808 
L 333.638711 176.441808 
L 333.844579 177.697364 
L 334.050448 177.307289 
L 334.050448 177.307289 
L 334.256316 175.356149 
L 334.256316 175.356149 
L 334.462185 179.595173 
L 334.462185 179.595173 
L 334.668053 178.322856 
L 334.668053 178.322856 
L 334.873922 183.22699 
L 334.873922 183.22699 
L 335.07979 182.617497 
L 335.07979 182.617497 
L 335.285659 188.467869 
L 335.285659 188.467869 
L 335.491527 188.835089 
L 335.491527 188.835089 
L 335.697396 195.371902 
L 335.697396 195.371902 
L 335.903264 196.223669 
L 335.903264 196.223669 
L 336.315001 208.799797 
L 336.315001 208.799797 
L 336.520869 212.229719 
L 336.520869 212.229719 
L 337.138475 227.530282 
L 337.138475 227.530282 
L 337.344343 230.394137 
L 337.344343 230.394137 
L 337.550212 235.661681 
L 337.550212 235.661681 
L 337.75608 238.072988 
L 337.75608 238.072988 
L 337.961948 242.987027 
L 337.961948 242.987027 
L 338.167817 244.730177 
L 338.167817 244.730177 
L 338.373685 248.877777 
L 338.373685 248.877777 
L 338.579554 249.200047 
L 338.579554 249.200047 
L 338.785422 252.081425 
L 338.785422 252.081425 
L 338.991291 250.812918 
L 338.991291 250.812918 
L 339.197159 252.580448 
L 339.197159 252.580448 
L 339.403028 249.44232 
L 339.403028 249.44232 
L 339.608896 250.115048 
L 339.608896 250.115048 
L 339.814765 244.705035 
L 339.814765 244.705035 
L 340.020633 244.733224 
L 340.020633 244.733224 
L 340.226501 237.324836 
L 340.226501 237.324836 
L 340.43237 237.381976 
L 340.43237 237.381976 
L 340.638238 234.988191 
L 340.638238 234.988191 
L 340.844107 229.319144 
L 340.844107 229.319144 
L 341.049975 227.557709 
L 341.049975 227.557709 
L 341.255844 222.102746 
L 341.255844 222.102746 
L 341.461712 222.156076 
L 341.461712 222.156076 
L 341.667581 217.950574 
L 341.667581 217.950574 
L 341.873449 220.864713 
L 341.873449 220.864713 
L 342.079317 219.639632 
L 342.079317 219.639632 
L 342.285186 226.032452 
L 342.285186 226.032452 
L 342.491054 228.583943 
L 342.491054 228.583943 
L 343.520397 282.242953 
L 343.520397 282.242953 
L 343.726265 295.225918 
L 343.726265 295.225918 
L 345.579081 155.963602 
L 345.579081 155.963602 
L 345.78495 151.707055 
L 345.78495 151.707055 
L 345.990818 141.356338 
L 346.196686 141.674036 
L 346.196686 141.674036 
L 346.402555 138.118406 
L 346.402555 138.118406 
L 346.608423 141.600135 
L 346.608423 141.600135 
L 347.02016 144.189719 
L 347.02016 144.189719 
L 347.226029 153.028131 
L 347.226029 153.028131 
L 347.431897 156.28511 
L 347.431897 156.28511 
L 347.843634 169.119511 
L 347.843634 169.119511 
L 348.255371 181.864011 
L 348.255371 181.864011 
L 348.461239 185.108038 
L 348.461239 185.108038 
L 348.667108 195.106773 
L 348.667108 195.106773 
L 348.872976 199.213994 
L 348.872976 199.213994 
L 349.490582 223.99446 
L 349.490582 223.99446 
L 349.69645 229.886734 
L 349.69645 229.886734 
L 350.314055 255.426019 
L 350.314055 255.426019 
L 351.343398 292.877846 
L 351.343398 292.877846 
L 351.549266 291.64286 
L 351.549266 291.64286 
L 352.166872 277.917838 
L 352.166872 277.917838 
L 352.578608 273.253692 
L 352.578608 273.253692 
L 352.990345 271.341407 
L 352.990345 271.341407 
L 353.196214 271.259888 
L 353.196214 271.259888 
L 353.402082 271.366549 
L 353.607951 271.972233 
L 353.607951 271.972233 
L 354.843161 277.75556 
L 354.843161 277.75556 
L 355.04903 278.084686 
L 355.04903 278.084686 
L 355.254898 278.89455 
L 355.254898 278.89455 
L 355.666635 279.296054 
L 355.666635 279.296054 
L 355.872504 279.458332 
L 355.872504 279.458332 
L 356.490109 277.399007 
L 356.490109 277.399007 
L 357.313583 269.89767 
L 357.313583 269.89767 
L 358.342925 251.813248 
L 358.342925 251.813248 
L 360.40161 209.840506 
L 360.40161 209.840506 
L 360.813346 205.052938 
L 360.813346 205.052938 
L 361.225083 202.639345 
L 361.225083 202.639345 
L 361.430952 202.321647 
L 361.430952 202.321647 
L 361.63682 202.406214 
L 361.63682 202.406214 
L 361.842689 203.005803 
L 361.842689 203.005803 
L 362.254426 205.475012 
L 362.254426 205.475012 
L 363.077899 210.769221 
L 363.077899 210.769221 
L 363.283768 211.31167 
L 363.283768 211.31167 
L 363.489636 211.208818 
L 363.489636 211.208818 
L 363.695505 210.407335 
L 363.695505 210.407335 
L 364.31311 203.86976 
L 364.31311 203.86976 
L 364.518978 201.454643 
L 364.518978 201.454643 
L 365.754189 179.228716 
L 365.754189 179.228716 
L 366.165926 174.600377 
L 366.165926 174.600377 
L 366.371795 171.498057 
L 366.371795 171.498057 
L 366.577663 173.084263 
L 366.577663 173.084263 
L 366.783531 171.879752 
L 366.783531 171.879752 
L 366.9894 174.294107 
L 366.9894 174.294107 
L 367.195268 174.623233 
L 367.195268 174.623233 
L 367.607005 179.417658 
L 367.607005 179.417658 
L 367.812874 179.889254 
L 367.812874 179.889254 
L 368.018742 185.722864 
L 368.018742 185.722864 
L 368.224611 187.014228 
L 368.224611 187.014228 
L 368.430479 192.489 
L 368.430479 192.489 
L 368.636347 194.014256 
L 368.636347 194.014256 
L 368.842216 198.836108 
L 368.842216 198.836108 
L 369.048084 200.347651 
L 369.048084 200.347651 
L 369.253953 204.476205 
L 369.253953 204.476205 
L 369.459821 205.871944 
L 369.459821 205.871944 
L 369.66569 205.674621 
L 369.66569 205.674621 
L 369.871558 211.015304 
L 369.871558 211.015304 
L 370.077427 211.042731 
L 370.077427 211.042731 
L 370.283295 215.701544 
L 370.283295 215.701544 
L 370.489164 215.84249 
L 370.489164 215.84249 
L 370.695032 219.673916 
L 370.695032 219.673916 
L 370.9009 219.789719 
L 370.9009 219.789719 
L 371.106769 222.396826 
L 371.106769 222.396826 
L 371.312637 221.916088 
L 371.312637 221.916088 
L 371.518506 222.898134 
L 371.518506 222.898134 
L 371.724374 221.112319 
L 371.930243 220.617868 
L 371.930243 220.617868 
L 372.136111 217.620686 
L 372.136111 217.620686 
L 372.34198 216.429889 
L 372.34198 216.429889 
L 373.165453 202.500686 
L 373.165453 202.500686 
L 373.371322 203.046182 
L 373.371322 203.046182 
L 373.57719 198.636499 
L 373.57719 198.636499 
L 373.783059 199.794536 
L 373.783059 199.794536 
L 373.988927 196.499464 
L 373.988927 196.499464 
L 374.194796 198.295183 
L 374.194796 198.295183 
L 374.400664 195.73455 
L 374.400664 195.73455 
L 374.606533 197.619408 
L 374.606533 197.619408 
L 374.812401 195.765025 
L 374.812401 195.765025 
L 375.018269 197.63236 
L 375.018269 197.63236 
L 375.224138 196.352424 
L 375.224138 196.352424 
L 375.430006 198.094812 
L 375.430006 198.094812 
L 375.635875 197.355802 
L 375.635875 197.355802 
L 375.841743 194.949828 
L 375.841743 194.949828 
L 376.047612 198.905438 
L 376.047612 198.905438 
L 376.25348 197.259045 
L 376.25348 197.259045 
L 376.459349 201.264938 
L 376.459349 201.264938 
L 376.665217 200.244799 
L 376.665217 200.244799 
L 376.871085 204.121937 
L 376.871085 204.121937 
L 377.076954 203.872807 
L 377.076954 203.872807 
L 377.282822 207.777372 
L 377.282822 207.777372 
L 377.488691 208.257348 
L 377.488691 208.257348 
L 377.694559 212.339428 
L 377.694559 212.339428 
L 377.900428 213.664314 
L 377.900428 213.664314 
L 378.518033 224.412724 
L 378.518033 224.412724 
L 378.92977 229.489802 
L 378.92977 229.489802 
L 379.341507 238.907994 
L 379.341507 238.907994 
L 379.959112 254.672533 
L 379.959112 254.672533 
L 380.370849 264.499085 
L 380.370849 264.499085 
L 381.811928 294.835081 
L 381.811928 294.835081 
L 382.635402 283.575457 
L 382.635402 283.575457 
L 383.253007 276.929697 
L 383.253007 276.929697 
L 384.694087 264.145579 
L 384.694087 264.145579 
L 386.135166 247.581843 
L 386.135166 247.581843 
L 388.811456 208.838652 
L 388.811456 208.838652 
L 389.429061 202.451164 
L 389.429061 202.451164 
L 390.046666 198.27766 
L 390.046666 198.27766 
L 390.458403 196.957346 
L 390.458403 196.957346 
L 390.664272 196.471275 
L 390.664272 196.471275 
L 390.87014 196.384422 
L 390.87014 196.384422 
L 391.076009 196.557366 
L 391.076009 196.557366 
L 391.487745 197.6735 
L 391.487745 197.6735 
L 391.693614 198.318039 
L 391.693614 198.318039 
L 392.105351 200.736203 
L 392.105351 200.736203 
L 392.722956 206.191928 
L 392.722956 206.191928 
L 393.340561 214.786543 
L 393.340561 214.786543 
L 396.428588 267.727113 
L 396.428588 267.727113 
L 396.840325 278.601232 
L 396.840325 278.601232 
L 397.252062 293.715137 
L 397.252062 293.715137 
L 397.663799 282.959108 
L 397.663799 282.959108 
L 398.075536 255.448875 
L 398.075536 255.448875 
L 398.281404 234.804582 
L 398.281404 234.804582 
L 398.487273 283.372039 
L 398.487273 283.372039 
" clip-path="url(#p9624d36f33)" style="fill: none; stroke: #1f77b4; stroke-width: 1.5; stroke-linecap: square"/>
   </g>
   <g id="patch_3">
    <path d="M 57.6 307.584 
L 57.6 41.472 
" style="fill: none; stroke: #000000; stroke-width: 0.8; stroke-linejoin: miter; stroke-linecap: square"/>
   </g>
   <g id="patch_4">
    <path d="M 414.72 307.584 
L 414.72 41.472 
" style="fill: none; stroke: #000000; stroke-width: 0.8; stroke-linejoin: miter; stroke-linecap: square"/>
   </g>
   <g id="patch_5">
    <path d="M 57.6 307.584 
L 414.72 307.584 
" style="fill: none; stroke: #000000; stroke-width: 0.8; stroke-linejoin: miter; stroke-linecap: square"/>
   </g>
   <g id="patch_6">
    <path d="M 57.6 41.472 
L 414.72 41.472 
" style="fill: none; stroke: #000000; stroke-width: 0.8; stroke-linejoin: miter; stroke-linecap: square"/>
   </g>
   <g id="text_17">
    <!-- Tracking error vs Time -->
    <g transform="translate(169.584375 35.472) scale(0.12 -0.12)">
     <defs>
      <path id="DejaVuSans-76" d="M 191 3500 
L 800 3500 
L 1894 563 
L 2988 3500 
L 3597 3500 
L 2284 0 
L 1503 0 
L 191 3500 
z
" transform="scale(0.015625)"/>
     </defs>
     <use xlink:href="#DejaVuSans-54"/>
     <use xlink:href="#DejaVuSans-72" x="46.333984"/>
     <use xlink:href="#DejaVuSans-61" x="87.447266"/>
     <use xlink:href="#DejaVuSans-63" x="148.726562"/>
     <use xlink:href="#DejaVuSans-6b" x="203.707031"/>
     <use xlink:href="#DejaVuSans-69" x="261.617188"/>
     <use xlink:href="#DejaVuSans-6e" x="289.400391"/>
     <use xlink:href="#DejaVuSans-67" x="352.779297"/>
     <use xlink:href="#DejaVuSans-20" x="416.255859"/>
     <use xlink:href="#DejaVuSans-65" x="448.042969"/>
     <use xlink:href="#DejaVuSans-72" x="509.566406"/>
     <use xlink:href="#DejaVuSans-72" x="548.929688"/>
     <use xlink:href="#DejaVuSans-6f" x="587.792969"/>
     <use xlink:href="#DejaVuSans-72" x="648.974609"/>
     <use xlink:href="#DejaVuSans-20" x="690.087891"/>
     <use xlink:href="#DejaVuSans-76" x="721.875"/>
     <use xlink:href="#DejaVuSans-73" x="781.054688"/>
     <use xlink:href="#DejaVuSans-20" x="833.154297"/>
     <use xlink:href="#DejaVuSans-54" x="864.941406"/>
     <use xlink:href="#DejaVuSans-69" x="922.900391"/>
     <use xlink:href="#DejaVuSans-6d" x="950.683594"/>
     <use xlink:href="#DejaVuSans-65" x="1048.095703"/>
    </g>
   </g>
   <g id="legend_1">
    <g id="patch_7">
     <path d="M 311.00125 64.150125 
L 407.72 64.150125 
Q 409.72 64.150125 409.72 62.150125 
L 409.72 48.472 
Q 409.72 46.472 407.72 46.472 
L 311.00125 46.472 
Q 309.00125 46.472 309.00125 48.472 
L 309.00125 62.150125 
Q 309.00125 64.150125 311.00125 64.150125 
z
" style="fill: #ffffff; opacity: 0.8; stroke: #cccccc; stroke-linejoin: miter"/>
    </g>
    <g id="line2d_30">
     <path d="M 313.00125 54.570438 
L 323.00125 54.570438 
L 333.00125 54.570438 
" style="fill: none; stroke: #1f77b4; stroke-width: 1.5; stroke-linecap: square"/>
    </g>
    <g id="text_18">
     <!-- Actual speed -->
     <g transform="translate(341.00125 58.070438) scale(0.1 -0.1)">
      <defs>
       <path id="DejaVuSans-41" d="M 2188 4044 
L 1331 1722 
L 3047 1722 
L 2188 4044 
z
M 1831 4666 
L 2547 4666 
L 4325 0 
L 3669 0 
L 3244 1197 
L 1141 1197 
L 716 0 
L 50 0 
L 1831 4666 
z
" transform="scale(0.015625)"/>
       <path id="DejaVuSans-74" d="M 1172 4494 
L 1172 3500 
L 2356 3500 
L 2356 3053 
L 1172 3053 
L 1172 1153 
Q 1172 725 1289 603 
Q 1406 481 1766 481 
L 2356 481 
L 2356 0 
L 1766 0 
Q 1100 0 847 248 
Q 594 497 594 1153 
L 594 3053 
L 172 3053 
L 172 3500 
L 594 3500 
L 594 4494 
L 1172 4494 
z
" transform="scale(0.015625)"/>
       <path id="DejaVuSans-75" d="M 544 1381 
L 544 3500 
L 1119 3500 
L 1119 1403 
Q 1119 906 1312 657 
Q 1506 409 1894 409 
Q 2359 409 2629 706 
Q 2900 1003 2900 1516 
L 2900 3500 
L 3475 3500 
L 3475 0 
L 2900 0 
L 2900 538 
Q 2691 219 2414 64 
Q 2138 -91 1772 -91 
Q 1169 -91 856 284 
Q 544 659 544 1381 
z
M 1991 3584 
L 1991 3584 
z
" transform="scale(0.015625)"/>
       <path id="DejaVuSans-6c" d="M 603 4863 
L 1178 4863 
L 1178 0 
L 603 0 
L 603 4863 
z
" transform="scale(0.015625)"/>
       <path id="DejaVuSans-70" d="M 1159 525 
L 1159 -1331 
L 581 -1331 
L 581 3500 
L 1159 3500 
L 1159 2969 
Q 1341 3281 1617 3432 
Q 1894 3584 2278 3584 
Q 2916 3584 3314 3078 
Q 3713 2572 3713 1747 
Q 3713 922 3314 415 
Q 2916 -91 2278 -91 
Q 1894 -91 1617 61 
Q 1341 213 1159 525 
z
M 3116 1747 
Q 3116 2381 2855 2742 
Q 2594 3103 2138 3103 
Q 1681 3103 1420 2742 
Q 1159 2381 1159 1747 
Q 1159 1113 1420 752 
Q 1681 391 2138 391 
Q 2594 391 2855 752 
Q 3116 1113 3116 1747 
z
" transform="scale(0.015625)"/>
       <path id="DejaVuSans-64" d="M 2906 2969 
L 2906 4863 
L 3481 4863 
L 3481 0 
L 2906 0 
L 2906 525 
Q 2725 213 2448 61 
Q 2172 -91 1784 -91 
Q 1150 -91 751 415 
Q 353 922 353 1747 
Q 353 2572 751 3078 
Q 1150 3584 1784 3584 
Q 2172 3584 2448 3432 
Q 2725 3281 2906 2969 
z
M 947 1747 
Q 947 1113 1208 752 
Q 1469 391 1925 391 
Q 2381 391 2643 752 
Q 2906 1113 2906 1747 
Q 2906 2381 2643 2742 
Q 2381 3103 1925 3103 
Q 1469 3103 1208 2742 
Q 947 2381 947 1747 
z
" transform="scale(0.015625)"/>
      </defs>
      <use xlink:href="#DejaVuSans-41"/>
      <use xlink:href="#DejaVuSans-63" x="66.658203"/>
      <use xlink:href="#DejaVuSans-74" x="121.638672"/>
      <use xlink:href="#DejaVuSans-75" x="160.847656"/>
      <use xlink:href="#DejaVuSans-61" x="224.226562"/>
      <use xlink:href="#DejaVuSans-6c" x="285.505859"/>
      <use xlink:href="#DejaVuSans-20" x="313.289062"/>
      <use xlink:href="#DejaVuSans-73" x="345.076172"/>
      <use xlink:href="#DejaVuSans-70" x="397.175781"/>
      <use xlink:href="#DejaVuSans-65" x="460.652344"/>
      <use xlink:href="#DejaVuSans-65" x="522.175781"/>
      <use xlink:href="#DejaVuSans-64" x="583.699219"/>
     </g>
    </g>
   </g>
  </g>
 </g>
 <defs>
  <clipPath id="p9624d36f33">
   <rect x="57.6" y="41.472" width="357.12" height="266.112"/>
  </clipPath>
 </defs>
</svg>
