<?xml version="1.0" encoding="utf-8" standalone="no"?>
<!DOCTYPE svg PUBLIC "-//W3C//DTD SVG 1.1//EN"
  "http://www.w3.org/Graphics/SVG/1.1/DTD/svg11.dtd">
<svg xmlns:xlink="http://www.w3.org/1999/xlink" width="460.8pt" height="345.6pt" viewBox="0 0 460.8 345.6" xmlns="http://www.w3.org/2000/svg" version="1.1">
 <metadata>
  <rdf:RDF xmlns:dc="http://purl.org/dc/elements/1.1/" xmlns:cc="http://creativecommons.org/ns#" xmlns:rdf="http://www.w3.org/1999/02/22-rdf-syntax-ns#">
   <cc:Work>
    <dc:type rdf:resource="http://purl.org/dc/dcmitype/StillImage"/>
    <dc:date>2024-01-30T20:58:19.502430</dc:date>
    <dc:format>image/svg+xml</dc:format>
    <dc:creator>
     <cc:Agent>
      <dc:title>Matplotlib v3.7.1, https://matplotlib.org/</dc:title>
     </cc:Agent>
    </dc:creator>
   </cc:Work>
  </rdf:RDF>
 </metadata>
 <defs>
  <style type="text/css">*{stroke-linejoin: round; stroke-linecap: butt}</style>
 </defs>
 <g id="figure_1">
  <g id="patch_1">
   <path d="M 0 345.6 
L 460.8 345.6 
L 460.8 0 
L 0 0 
z
" style="fill: #ffffff"/>
  </g>
  <g id="axes_1">
   <g id="patch_2">
    <path d="M 57.6 307.584 
L 414.72 307.584 
L 414.72 41.472 
L 57.6 41.472 
z
" style="fill: #ffffff"/>
   </g>
   <g id="matplotlib.axis_1">
    <g id="xtick_1">
     <g id="line2d_1">
      <path d="M 73.832727 307.584 
L 73.832727 41.472 
" clip-path="url(#p355f4fe32a)" style="fill: none; stroke: #b0b0b0; stroke-width: 0.8; stroke-linecap: square"/>
     </g>
     <g id="line2d_2">
      <defs>
       <path id="mc68e1590f2" d="M 0 0 
L 0 3.5 
" style="stroke: #000000; stroke-width: 0.8"/>
      </defs>
      <g>
       <use xlink:href="#mc68e1590f2" x="73.832727" y="307.584" style="stroke: #000000; stroke-width: 0.8"/>
      </g>
     </g>
     <g id="text_1">
      <!-- 0 -->
      <g transform="translate(70.651477 322.182437) scale(0.1 -0.1)">
       <defs>
        <path id="DejaVuSans-30" d="M 2034 4250 
Q 1547 4250 1301 3770 
Q 1056 3291 1056 2328 
Q 1056 1369 1301 889 
Q 1547 409 2034 409 
Q 2525 409 2770 889 
Q 3016 1369 3016 2328 
Q 3016 3291 2770 3770 
Q 2525 4250 2034 4250 
z
M 2034 4750 
Q 2819 4750 3233 4129 
Q 3647 3509 3647 2328 
Q 3647 1150 3233 529 
Q 2819 -91 2034 -91 
Q 1250 -91 836 529 
Q 422 1150 422 2328 
Q 422 3509 836 4129 
Q 1250 4750 2034 4750 
z
" transform="scale(0.015625)"/>
       </defs>
       <use xlink:href="#DejaVuSans-30"/>
      </g>
     </g>
    </g>
    <g id="xtick_2">
     <g id="line2d_3">
      <path d="M 114.162484 307.584 
L 114.162484 41.472 
" clip-path="url(#p355f4fe32a)" style="fill: none; stroke: #b0b0b0; stroke-width: 0.8; stroke-linecap: square"/>
     </g>
     <g id="line2d_4">
      <g>
       <use xlink:href="#mc68e1590f2" x="114.162484" y="307.584" style="stroke: #000000; stroke-width: 0.8"/>
      </g>
     </g>
     <g id="text_2">
      <!-- 2 -->
      <g transform="translate(110.981234 322.182437) scale(0.1 -0.1)">
       <defs>
        <path id="DejaVuSans-32" d="M 1228 531 
L 3431 531 
L 3431 0 
L 469 0 
L 469 531 
Q 828 903 1448 1529 
Q 2069 2156 2228 2338 
Q 2531 2678 2651 2914 
Q 2772 3150 2772 3378 
Q 2772 3750 2511 3984 
Q 2250 4219 1831 4219 
Q 1534 4219 1204 4116 
Q 875 4013 500 3803 
L 500 4441 
Q 881 4594 1212 4672 
Q 1544 4750 1819 4750 
Q 2544 4750 2975 4387 
Q 3406 4025 3406 3419 
Q 3406 3131 3298 2873 
Q 3191 2616 2906 2266 
Q 2828 2175 2409 1742 
Q 1991 1309 1228 531 
z
" transform="scale(0.015625)"/>
       </defs>
       <use xlink:href="#DejaVuSans-32"/>
      </g>
     </g>
    </g>
    <g id="xtick_3">
     <g id="line2d_5">
      <path d="M 154.492242 307.584 
L 154.492242 41.472 
" clip-path="url(#p355f4fe32a)" style="fill: none; stroke: #b0b0b0; stroke-width: 0.8; stroke-linecap: square"/>
     </g>
     <g id="line2d_6">
      <g>
       <use xlink:href="#mc68e1590f2" x="154.492242" y="307.584" style="stroke: #000000; stroke-width: 0.8"/>
      </g>
     </g>
     <g id="text_3">
      <!-- 4 -->
      <g transform="translate(151.310992 322.182437) scale(0.1 -0.1)">
       <defs>
        <path id="DejaVuSans-34" d="M 2419 4116 
L 825 1625 
L 2419 1625 
L 2419 4116 
z
M 2253 4666 
L 3047 4666 
L 3047 1625 
L 3713 1625 
L 3713 1100 
L 3047 1100 
L 3047 0 
L 2419 0 
L 2419 1100 
L 313 1100 
L 313 1709 
L 2253 4666 
z
" transform="scale(0.015625)"/>
       </defs>
       <use xlink:href="#DejaVuSans-34"/>
      </g>
     </g>
    </g>
    <g id="xtick_4">
     <g id="line2d_7">
      <path d="M 194.821999 307.584 
L 194.821999 41.472 
" clip-path="url(#p355f4fe32a)" style="fill: none; stroke: #b0b0b0; stroke-width: 0.8; stroke-linecap: square"/>
     </g>
     <g id="line2d_8">
      <g>
       <use xlink:href="#mc68e1590f2" x="194.821999" y="307.584" style="stroke: #000000; stroke-width: 0.8"/>
      </g>
     </g>
     <g id="text_4">
      <!-- 6 -->
      <g transform="translate(191.640749 322.182437) scale(0.1 -0.1)">
       <defs>
        <path id="DejaVuSans-36" d="M 2113 2584 
Q 1688 2584 1439 2293 
Q 1191 2003 1191 1497 
Q 1191 994 1439 701 
Q 1688 409 2113 409 
Q 2538 409 2786 701 
Q 3034 994 3034 1497 
Q 3034 2003 2786 2293 
Q 2538 2584 2113 2584 
z
M 3366 4563 
L 3366 3988 
Q 3128 4100 2886 4159 
Q 2644 4219 2406 4219 
Q 1781 4219 1451 3797 
Q 1122 3375 1075 2522 
Q 1259 2794 1537 2939 
Q 1816 3084 2150 3084 
Q 2853 3084 3261 2657 
Q 3669 2231 3669 1497 
Q 3669 778 3244 343 
Q 2819 -91 2113 -91 
Q 1303 -91 875 529 
Q 447 1150 447 2328 
Q 447 3434 972 4092 
Q 1497 4750 2381 4750 
Q 2619 4750 2861 4703 
Q 3103 4656 3366 4563 
z
" transform="scale(0.015625)"/>
       </defs>
       <use xlink:href="#DejaVuSans-36"/>
      </g>
     </g>
    </g>
    <g id="xtick_5">
     <g id="line2d_9">
      <path d="M 235.151756 307.584 
L 235.151756 41.472 
" clip-path="url(#p355f4fe32a)" style="fill: none; stroke: #b0b0b0; stroke-width: 0.8; stroke-linecap: square"/>
     </g>
     <g id="line2d_10">
      <g>
       <use xlink:href="#mc68e1590f2" x="235.151756" y="307.584" style="stroke: #000000; stroke-width: 0.8"/>
      </g>
     </g>
     <g id="text_5">
      <!-- 8 -->
      <g transform="translate(231.970506 322.182437) scale(0.1 -0.1)">
       <defs>
        <path id="DejaVuSans-38" d="M 2034 2216 
Q 1584 2216 1326 1975 
Q 1069 1734 1069 1313 
Q 1069 891 1326 650 
Q 1584 409 2034 409 
Q 2484 409 2743 651 
Q 3003 894 3003 1313 
Q 3003 1734 2745 1975 
Q 2488 2216 2034 2216 
z
M 1403 2484 
Q 997 2584 770 2862 
Q 544 3141 544 3541 
Q 544 4100 942 4425 
Q 1341 4750 2034 4750 
Q 2731 4750 3128 4425 
Q 3525 4100 3525 3541 
Q 3525 3141 3298 2862 
Q 3072 2584 2669 2484 
Q 3125 2378 3379 2068 
Q 3634 1759 3634 1313 
Q 3634 634 3220 271 
Q 2806 -91 2034 -91 
Q 1263 -91 848 271 
Q 434 634 434 1313 
Q 434 1759 690 2068 
Q 947 2378 1403 2484 
z
M 1172 3481 
Q 1172 3119 1398 2916 
Q 1625 2713 2034 2713 
Q 2441 2713 2670 2916 
Q 2900 3119 2900 3481 
Q 2900 3844 2670 4047 
Q 2441 4250 2034 4250 
Q 1625 4250 1398 4047 
Q 1172 3844 1172 3481 
z
" transform="scale(0.015625)"/>
       </defs>
       <use xlink:href="#DejaVuSans-38"/>
      </g>
     </g>
    </g>
    <g id="xtick_6">
     <g id="line2d_11">
      <path d="M 275.481513 307.584 
L 275.481513 41.472 
" clip-path="url(#p355f4fe32a)" style="fill: none; stroke: #b0b0b0; stroke-width: 0.8; stroke-linecap: square"/>
     </g>
     <g id="line2d_12">
      <g>
       <use xlink:href="#mc68e1590f2" x="275.481513" y="307.584" style="stroke: #000000; stroke-width: 0.8"/>
      </g>
     </g>
     <g id="text_6">
      <!-- 10 -->
      <g transform="translate(269.119013 322.182437) scale(0.1 -0.1)">
       <defs>
        <path id="DejaVuSans-31" d="M 794 531 
L 1825 531 
L 1825 4091 
L 703 3866 
L 703 4441 
L 1819 4666 
L 2450 4666 
L 2450 531 
L 3481 531 
L 3481 0 
L 794 0 
L 794 531 
z
" transform="scale(0.015625)"/>
       </defs>
       <use xlink:href="#DejaVuSans-31"/>
       <use xlink:href="#DejaVuSans-30" x="63.623047"/>
      </g>
     </g>
    </g>
    <g id="xtick_7">
     <g id="line2d_13">
      <path d="M 315.81127 307.584 
L 315.81127 41.472 
" clip-path="url(#p355f4fe32a)" style="fill: none; stroke: #b0b0b0; stroke-width: 0.8; stroke-linecap: square"/>
     </g>
     <g id="line2d_14">
      <g>
       <use xlink:href="#mc68e1590f2" x="315.81127" y="307.584" style="stroke: #000000; stroke-width: 0.8"/>
      </g>
     </g>
     <g id="text_7">
      <!-- 12 -->
      <g transform="translate(309.44877 322.182437) scale(0.1 -0.1)">
       <use xlink:href="#DejaVuSans-31"/>
       <use xlink:href="#DejaVuSans-32" x="63.623047"/>
      </g>
     </g>
    </g>
    <g id="xtick_8">
     <g id="line2d_15">
      <path d="M 356.141028 307.584 
L 356.141028 41.472 
" clip-path="url(#p355f4fe32a)" style="fill: none; stroke: #b0b0b0; stroke-width: 0.8; stroke-linecap: square"/>
     </g>
     <g id="line2d_16">
      <g>
       <use xlink:href="#mc68e1590f2" x="356.141028" y="307.584" style="stroke: #000000; stroke-width: 0.8"/>
      </g>
     </g>
     <g id="text_8">
      <!-- 14 -->
      <g transform="translate(349.778528 322.182437) scale(0.1 -0.1)">
       <use xlink:href="#DejaVuSans-31"/>
       <use xlink:href="#DejaVuSans-34" x="63.623047"/>
      </g>
     </g>
    </g>
    <g id="xtick_9">
     <g id="line2d_17">
      <path d="M 396.470785 307.584 
L 396.470785 41.472 
" clip-path="url(#p355f4fe32a)" style="fill: none; stroke: #b0b0b0; stroke-width: 0.8; stroke-linecap: square"/>
     </g>
     <g id="line2d_18">
      <g>
       <use xlink:href="#mc68e1590f2" x="396.470785" y="307.584" style="stroke: #000000; stroke-width: 0.8"/>
      </g>
     </g>
     <g id="text_9">
      <!-- 16 -->
      <g transform="translate(390.108285 322.182437) scale(0.1 -0.1)">
       <use xlink:href="#DejaVuSans-31"/>
       <use xlink:href="#DejaVuSans-36" x="63.623047"/>
      </g>
     </g>
    </g>
    <g id="text_10">
     <!-- Time(s) -->
     <g transform="translate(217.420156 335.860562) scale(0.1 -0.1)">
      <defs>
       <path id="DejaVuSans-54" d="M -19 4666 
L 3928 4666 
L 3928 4134 
L 2272 4134 
L 2272 0 
L 1638 0 
L 1638 4134 
L -19 4134 
L -19 4666 
z
" transform="scale(0.015625)"/>
       <path id="DejaVuSans-69" d="M 603 3500 
L 1178 3500 
L 1178 0 
L 603 0 
L 603 3500 
z
M 603 4863 
L 1178 4863 
L 1178 4134 
L 603 4134 
L 603 4863 
z
" transform="scale(0.015625)"/>
       <path id="DejaVuSans-6d" d="M 3328 2828 
Q 3544 3216 3844 3400 
Q 4144 3584 4550 3584 
Q 5097 3584 5394 3201 
Q 5691 2819 5691 2113 
L 5691 0 
L 5113 0 
L 5113 2094 
Q 5113 2597 4934 2840 
Q 4756 3084 4391 3084 
Q 3944 3084 3684 2787 
Q 3425 2491 3425 1978 
L 3425 0 
L 2847 0 
L 2847 2094 
Q 2847 2600 2669 2842 
Q 2491 3084 2119 3084 
Q 1678 3084 1418 2786 
Q 1159 2488 1159 1978 
L 1159 0 
L 581 0 
L 581 3500 
L 1159 3500 
L 1159 2956 
Q 1356 3278 1631 3431 
Q 1906 3584 2284 3584 
Q 2666 3584 2933 3390 
Q 3200 3197 3328 2828 
z
" transform="scale(0.015625)"/>
       <path id="DejaVuSans-65" d="M 3597 1894 
L 3597 1613 
L 953 1613 
Q 991 1019 1311 708 
Q 1631 397 2203 397 
Q 2534 397 2845 478 
Q 3156 559 3463 722 
L 3463 178 
Q 3153 47 2828 -22 
Q 2503 -91 2169 -91 
Q 1331 -91 842 396 
Q 353 884 353 1716 
Q 353 2575 817 3079 
Q 1281 3584 2069 3584 
Q 2775 3584 3186 3129 
Q 3597 2675 3597 1894 
z
M 3022 2063 
Q 3016 2534 2758 2815 
Q 2500 3097 2075 3097 
Q 1594 3097 1305 2825 
Q 1016 2553 972 2059 
L 3022 2063 
z
" transform="scale(0.015625)"/>
       <path id="DejaVuSans-28" d="M 1984 4856 
Q 1566 4138 1362 3434 
Q 1159 2731 1159 2009 
Q 1159 1288 1364 580 
Q 1569 -128 1984 -844 
L 1484 -844 
Q 1016 -109 783 600 
Q 550 1309 550 2009 
Q 550 2706 781 3412 
Q 1013 4119 1484 4856 
L 1984 4856 
z
" transform="scale(0.015625)"/>
       <path id="DejaVuSans-73" d="M 2834 3397 
L 2834 2853 
Q 2591 2978 2328 3040 
Q 2066 3103 1784 3103 
Q 1356 3103 1142 2972 
Q 928 2841 928 2578 
Q 928 2378 1081 2264 
Q 1234 2150 1697 2047 
L 1894 2003 
Q 2506 1872 2764 1633 
Q 3022 1394 3022 966 
Q 3022 478 2636 193 
Q 2250 -91 1575 -91 
Q 1294 -91 989 -36 
Q 684 19 347 128 
L 347 722 
Q 666 556 975 473 
Q 1284 391 1588 391 
Q 1994 391 2212 530 
Q 2431 669 2431 922 
Q 2431 1156 2273 1281 
Q 2116 1406 1581 1522 
L 1381 1569 
Q 847 1681 609 1914 
Q 372 2147 372 2553 
Q 372 3047 722 3315 
Q 1072 3584 1716 3584 
Q 2034 3584 2315 3537 
Q 2597 3491 2834 3397 
z
" transform="scale(0.015625)"/>
       <path id="DejaVuSans-29" d="M 513 4856 
L 1013 4856 
Q 1481 4119 1714 3412 
Q 1947 2706 1947 2009 
Q 1947 1309 1714 600 
Q 1481 -109 1013 -844 
L 513 -844 
Q 928 -128 1133 580 
Q 1338 1288 1338 2009 
Q 1338 2731 1133 3434 
Q 928 4138 513 4856 
z
" transform="scale(0.015625)"/>
      </defs>
      <use xlink:href="#DejaVuSans-54"/>
      <use xlink:href="#DejaVuSans-69" x="57.958984"/>
      <use xlink:href="#DejaVuSans-6d" x="85.742188"/>
      <use xlink:href="#DejaVuSans-65" x="183.154297"/>
      <use xlink:href="#DejaVuSans-28" x="244.677734"/>
      <use xlink:href="#DejaVuSans-73" x="283.691406"/>
      <use xlink:href="#DejaVuSans-29" x="335.791016"/>
     </g>
    </g>
   </g>
   <g id="matplotlib.axis_2">
    <g id="ytick_1">
     <g id="line2d_19">
      <path d="M 57.6 295.488 
L 414.72 295.488 
" clip-path="url(#p355f4fe32a)" style="fill: none; stroke: #b0b0b0; stroke-width: 0.8; stroke-linecap: square"/>
     </g>
     <g id="line2d_20">
      <defs>
       <path id="m30f56f5a92" d="M 0 0 
L -3.5 0 
" style="stroke: #000000; stroke-width: 0.8"/>
      </defs>
      <g>
       <use xlink:href="#m30f56f5a92" x="57.6" y="295.488" style="stroke: #000000; stroke-width: 0.8"/>
      </g>
     </g>
     <g id="text_11">
      <!-- 0.0 -->
      <g transform="translate(34.696875 299.287219) scale(0.1 -0.1)">
       <defs>
        <path id="DejaVuSans-2e" d="M 684 794 
L 1344 794 
L 1344 0 
L 684 0 
L 684 794 
z
" transform="scale(0.015625)"/>
       </defs>
       <use xlink:href="#DejaVuSans-30"/>
       <use xlink:href="#DejaVuSans-2e" x="63.623047"/>
       <use xlink:href="#DejaVuSans-30" x="95.410156"/>
      </g>
     </g>
    </g>
    <g id="ytick_2">
     <g id="line2d_21">
      <path d="M 57.6 240.771062 
L 414.72 240.771062 
" clip-path="url(#p355f4fe32a)" style="fill: none; stroke: #b0b0b0; stroke-width: 0.8; stroke-linecap: square"/>
     </g>
     <g id="line2d_22">
      <g>
       <use xlink:href="#m30f56f5a92" x="57.6" y="240.771062" style="stroke: #000000; stroke-width: 0.8"/>
      </g>
     </g>
     <g id="text_12">
      <!-- 0.2 -->
      <g transform="translate(34.696875 244.57028) scale(0.1 -0.1)">
       <use xlink:href="#DejaVuSans-30"/>
       <use xlink:href="#DejaVuSans-2e" x="63.623047"/>
       <use xlink:href="#DejaVuSans-32" x="95.410156"/>
      </g>
     </g>
    </g>
    <g id="ytick_3">
     <g id="line2d_23">
      <path d="M 57.6 186.054123 
L 414.72 186.054123 
" clip-path="url(#p355f4fe32a)" style="fill: none; stroke: #b0b0b0; stroke-width: 0.8; stroke-linecap: square"/>
     </g>
     <g id="line2d_24">
      <g>
       <use xlink:href="#m30f56f5a92" x="57.6" y="186.054123" style="stroke: #000000; stroke-width: 0.8"/>
      </g>
     </g>
     <g id="text_13">
      <!-- 0.4 -->
      <g transform="translate(34.696875 189.853342) scale(0.1 -0.1)">
       <use xlink:href="#DejaVuSans-30"/>
       <use xlink:href="#DejaVuSans-2e" x="63.623047"/>
       <use xlink:href="#DejaVuSans-34" x="95.410156"/>
      </g>
     </g>
    </g>
    <g id="ytick_4">
     <g id="line2d_25">
      <path d="M 57.6 131.337185 
L 414.72 131.337185 
" clip-path="url(#p355f4fe32a)" style="fill: none; stroke: #b0b0b0; stroke-width: 0.8; stroke-linecap: square"/>
     </g>
     <g id="line2d_26">
      <g>
       <use xlink:href="#m30f56f5a92" x="57.6" y="131.337185" style="stroke: #000000; stroke-width: 0.8"/>
      </g>
     </g>
     <g id="text_14">
      <!-- 0.6 -->
      <g transform="translate(34.696875 135.136403) scale(0.1 -0.1)">
       <use xlink:href="#DejaVuSans-30"/>
       <use xlink:href="#DejaVuSans-2e" x="63.623047"/>
       <use xlink:href="#DejaVuSans-36" x="95.410156"/>
      </g>
     </g>
    </g>
    <g id="ytick_5">
     <g id="line2d_27">
      <path d="M 57.6 76.620246 
L 414.72 76.620246 
" clip-path="url(#p355f4fe32a)" style="fill: none; stroke: #b0b0b0; stroke-width: 0.8; stroke-linecap: square"/>
     </g>
     <g id="line2d_28">
      <g>
       <use xlink:href="#m30f56f5a92" x="57.6" y="76.620246" style="stroke: #000000; stroke-width: 0.8"/>
      </g>
     </g>
     <g id="text_15">
      <!-- 0.8 -->
      <g transform="translate(34.696875 80.419465) scale(0.1 -0.1)">
       <use xlink:href="#DejaVuSans-30"/>
       <use xlink:href="#DejaVuSans-2e" x="63.623047"/>
       <use xlink:href="#DejaVuSans-38" x="95.410156"/>
      </g>
     </g>
    </g>
    <g id="text_16">
     <!-- Tracking error(m) -->
     <g transform="translate(28.617187 217.803781) rotate(-90) scale(0.1 -0.1)">
      <defs>
       <path id="DejaVuSans-72" d="M 2631 2963 
Q 2534 3019 2420 3045 
Q 2306 3072 2169 3072 
Q 1681 3072 1420 2755 
Q 1159 2438 1159 1844 
L 1159 0 
L 581 0 
L 581 3500 
L 1159 3500 
L 1159 2956 
Q 1341 3275 1631 3429 
Q 1922 3584 2338 3584 
Q 2397 3584 2469 3576 
Q 2541 3569 2628 3553 
L 2631 2963 
z
" transform="scale(0.015625)"/>
       <path id="DejaVuSans-61" d="M 2194 1759 
Q 1497 1759 1228 1600 
Q 959 1441 959 1056 
Q 959 750 1161 570 
Q 1363 391 1709 391 
Q 2188 391 2477 730 
Q 2766 1069 2766 1631 
L 2766 1759 
L 2194 1759 
z
M 3341 1997 
L 3341 0 
L 2766 0 
L 2766 531 
Q 2569 213 2275 61 
Q 1981 -91 1556 -91 
Q 1019 -91 701 211 
Q 384 513 384 1019 
Q 384 1609 779 1909 
Q 1175 2209 1959 2209 
L 2766 2209 
L 2766 2266 
Q 2766 2663 2505 2880 
Q 2244 3097 1772 3097 
Q 1472 3097 1187 3025 
Q 903 2953 641 2809 
L 641 3341 
Q 956 3463 1253 3523 
Q 1550 3584 1831 3584 
Q 2591 3584 2966 3190 
Q 3341 2797 3341 1997 
z
" transform="scale(0.015625)"/>
       <path id="DejaVuSans-63" d="M 3122 3366 
L 3122 2828 
Q 2878 2963 2633 3030 
Q 2388 3097 2138 3097 
Q 1578 3097 1268 2742 
Q 959 2388 959 1747 
Q 959 1106 1268 751 
Q 1578 397 2138 397 
Q 2388 397 2633 464 
Q 2878 531 3122 666 
L 3122 134 
Q 2881 22 2623 -34 
Q 2366 -91 2075 -91 
Q 1284 -91 818 406 
Q 353 903 353 1747 
Q 353 2603 823 3093 
Q 1294 3584 2113 3584 
Q 2378 3584 2631 3529 
Q 2884 3475 3122 3366 
z
" transform="scale(0.015625)"/>
       <path id="DejaVuSans-6b" d="M 581 4863 
L 1159 4863 
L 1159 1991 
L 2875 3500 
L 3609 3500 
L 1753 1863 
L 3688 0 
L 2938 0 
L 1159 1709 
L 1159 0 
L 581 0 
L 581 4863 
z
" transform="scale(0.015625)"/>
       <path id="DejaVuSans-6e" d="M 3513 2113 
L 3513 0 
L 2938 0 
L 2938 2094 
Q 2938 2591 2744 2837 
Q 2550 3084 2163 3084 
Q 1697 3084 1428 2787 
Q 1159 2491 1159 1978 
L 1159 0 
L 581 0 
L 581 3500 
L 1159 3500 
L 1159 2956 
Q 1366 3272 1645 3428 
Q 1925 3584 2291 3584 
Q 2894 3584 3203 3211 
Q 3513 2838 3513 2113 
z
" transform="scale(0.015625)"/>
       <path id="DejaVuSans-67" d="M 2906 1791 
Q 2906 2416 2648 2759 
Q 2391 3103 1925 3103 
Q 1463 3103 1205 2759 
Q 947 2416 947 1791 
Q 947 1169 1205 825 
Q 1463 481 1925 481 
Q 2391 481 2648 825 
Q 2906 1169 2906 1791 
z
M 3481 434 
Q 3481 -459 3084 -895 
Q 2688 -1331 1869 -1331 
Q 1566 -1331 1297 -1286 
Q 1028 -1241 775 -1147 
L 775 -588 
Q 1028 -725 1275 -790 
Q 1522 -856 1778 -856 
Q 2344 -856 2625 -561 
Q 2906 -266 2906 331 
L 2906 616 
Q 2728 306 2450 153 
Q 2172 0 1784 0 
Q 1141 0 747 490 
Q 353 981 353 1791 
Q 353 2603 747 3093 
Q 1141 3584 1784 3584 
Q 2172 3584 2450 3431 
Q 2728 3278 2906 2969 
L 2906 3500 
L 3481 3500 
L 3481 434 
z
" transform="scale(0.015625)"/>
       <path id="DejaVuSans-20" transform="scale(0.015625)"/>
       <path id="DejaVuSans-6f" d="M 1959 3097 
Q 1497 3097 1228 2736 
Q 959 2375 959 1747 
Q 959 1119 1226 758 
Q 1494 397 1959 397 
Q 2419 397 2687 759 
Q 2956 1122 2956 1747 
Q 2956 2369 2687 2733 
Q 2419 3097 1959 3097 
z
M 1959 3584 
Q 2709 3584 3137 3096 
Q 3566 2609 3566 1747 
Q 3566 888 3137 398 
Q 2709 -91 1959 -91 
Q 1206 -91 779 398 
Q 353 888 353 1747 
Q 353 2609 779 3096 
Q 1206 3584 1959 3584 
z
" transform="scale(0.015625)"/>
      </defs>
      <use xlink:href="#DejaVuSans-54"/>
      <use xlink:href="#DejaVuSans-72" x="46.333984"/>
      <use xlink:href="#DejaVuSans-61" x="87.447266"/>
      <use xlink:href="#DejaVuSans-63" x="148.726562"/>
      <use xlink:href="#DejaVuSans-6b" x="203.707031"/>
      <use xlink:href="#DejaVuSans-69" x="261.617188"/>
      <use xlink:href="#DejaVuSans-6e" x="289.400391"/>
      <use xlink:href="#DejaVuSans-67" x="352.779297"/>
      <use xlink:href="#DejaVuSans-20" x="416.255859"/>
      <use xlink:href="#DejaVuSans-65" x="448.042969"/>
      <use xlink:href="#DejaVuSans-72" x="509.566406"/>
      <use xlink:href="#DejaVuSans-72" x="548.929688"/>
      <use xlink:href="#DejaVuSans-6f" x="587.792969"/>
      <use xlink:href="#DejaVuSans-72" x="648.974609"/>
      <use xlink:href="#DejaVuSans-28" x="690.087891"/>
      <use xlink:href="#DejaVuSans-6d" x="729.101562"/>
      <use xlink:href="#DejaVuSans-29" x="826.513672"/>
     </g>
    </g>
   </g>
   <g id="line2d_29">
    <path d="M 73.832727 295.488 
L 77.059108 295.396076 
L 77.059108 295.396076 
L 77.865703 294.055511 
L 77.865703 294.055511 
L 78.672298 292.329738 
L 78.672298 292.329738 
L 79.075596 289.677061 
L 79.075596 289.677061 
L 79.882191 288.716232 
L 79.882191 288.716232 
L 80.688786 288.134317 
L 80.688786 288.134317 
L 81.092084 288.054977 
L 81.092084 288.054977 
L 81.495381 288.160855 
L 81.495381 288.160855 
L 81.898679 288.490798 
L 81.898679 288.490798 
L 82.301976 289.088307 
L 82.301976 289.088307 
L 82.705274 289.994419 
L 82.705274 289.994419 
L 84.318464 295.488 
L 84.318464 295.488 
L 84.721762 295.025915 
L 84.721762 295.025915 
L 85.528357 293.305068 
L 85.528357 293.305068 
L 85.931654 292.57788 
L 85.931654 292.57788 
L 86.334952 292.426587 
L 86.334952 292.426587 
L 86.73825 292.649012 
L 86.73825 292.649012 
L 87.141547 293.314096 
L 87.141547 293.314096 
L 87.948142 295.315642 
L 87.948142 295.315642 
L 89.158035 290.939654 
L 89.158035 290.939654 
L 89.96463 288.510496 
L 89.96463 288.510496 
L 90.367928 287.667582 
L 90.367928 287.667582 
L 90.771225 287.162271 
L 90.771225 287.162271 
L 91.174523 287.121507 
L 91.57782 287.648978 
L 91.57782 287.648978 
L 91.981118 288.756722 
L 91.981118 288.756722 
L 92.787713 291.985022 
L 92.787713 291.985022 
L 93.191011 293.951275 
L 93.191011 293.951275 
L 93.594308 294.945482 
L 93.594308 294.945482 
L 94.804201 289.246712 
L 94.804201 289.246712 
L 95.207499 287.886723 
L 95.207499 287.886723 
L 95.610796 287.077459 
L 95.610796 287.077459 
L 96.014094 286.922063 
L 96.417391 287.395091 
L 96.417391 287.395091 
L 96.820689 288.499826 
L 96.820689 288.499826 
L 97.627284 292.00089 
L 97.627284 292.00089 
L 98.030582 294.157284 
L 98.030582 294.157284 
L 98.433879 294.492425 
L 98.433879 294.492425 
L 99.240474 290.08224 
L 99.240474 290.08224 
L 99.643772 288.257977 
L 99.643772 288.257977 
L 100.047069 286.957629 
L 100.047069 286.957629 
L 100.450367 286.393498 
L 100.450367 286.393498 
L 100.853665 286.533299 
L 100.853665 286.533299 
L 101.256962 287.435855 
L 101.256962 287.435855 
L 101.66026 288.853298 
L 101.66026 288.853298 
L 102.466855 293.200832 
L 102.466855 293.200832 
L 102.870152 295.488 
L 102.870152 295.488 
L 103.676748 289.924382 
L 103.676748 289.924382 
L 104.483343 285.896668 
L 104.483343 285.896668 
L 104.88664 284.933103 
L 104.88664 284.933103 
L 105.289938 284.779622 
L 105.289938 284.779622 
L 105.693235 285.418442 
L 105.693235 285.418442 
L 106.096533 286.902365 
L 106.096533 286.902365 
L 106.499831 289.02593 
L 106.499831 289.02593 
L 107.306426 294.984057 
L 107.306426 294.984057 
L 107.709723 292.465983 
L 108.919616 282.610095 
L 108.919616 282.610095 
L 109.322914 280.405002 
L 109.322914 280.405002 
L 109.726211 279.002881 
L 109.726211 279.002881 
L 110.129509 278.517542 
L 110.129509 278.517542 
L 110.532806 278.829428 
L 110.532806 278.829428 
L 110.936104 279.988606 
L 110.936104 279.988606 
L 111.339401 281.784143 
L 111.339401 281.784143 
L 112.145997 286.837799 
L 112.145997 286.837799 
L 113.355889 295.488 
L 113.355889 295.488 
L 114.565782 292.682663 
L 114.565782 292.682663 
L 114.96908 292.666795 
L 115.372377 293.04653 
L 115.372377 293.04653 
L 116.58227 295.421245 
L 116.58227 295.421245 
L 116.985567 294.703086 
L 116.985567 294.703086 
L 117.792163 293.947445 
L 117.792163 293.947445 
L 118.19546 294.067001 
L 118.19546 294.067001 
L 119.002055 294.996368 
L 119.002055 294.996368 
L 119.405353 295.140547 
L 119.405353 295.140547 
L 119.80865 294.44318 
L 119.80865 294.44318 
L 120.211948 295.488 
L 120.211948 295.488 
L 120.615246 292.891408 
L 120.615246 292.891408 
L 121.421841 292.470361 
L 121.421841 292.470361 
L 121.825138 292.516597 
L 122.228436 293.192351 
L 122.228436 293.192351 
L 122.631733 295.488 
L 122.631733 295.488 
L 123.035031 294.573406 
L 123.035031 294.573406 
L 123.438329 295.204566 
L 123.438329 295.204566 
L 123.841626 295.488 
L 123.841626 295.488 
L 124.244924 293.273879 
L 124.244924 293.273879 
L 125.051519 291.283277 
L 125.051519 291.283277 
L 126.261412 289.30909 
L 126.261412 289.30909 
L 127.068007 288.539222 
L 127.068007 288.539222 
L 127.471304 288.236091 
L 127.471304 288.236091 
L 127.874602 287.396186 
L 127.874602 287.396186 
L 129.084495 285.853441 
L 129.084495 285.853441 
L 129.487792 284.851574 
L 129.487792 284.851574 
L 130.294387 283.673245 
L 130.294387 283.673245 
L 130.697685 283.231132 
L 130.697685 283.231132 
L 131.100982 282.413935 
L 131.100982 282.413935 
L 131.907578 281.657199 
L 131.907578 281.657199 
L 132.310875 281.47253 
L 132.310875 281.47253 
L 132.714173 281.432586 
L 132.714173 281.432586 
L 133.11747 280.886511 
L 133.11747 280.886511 
L 133.924065 281.052304 
L 133.924065 281.052304 
L 134.327363 281.286219 
L 134.327363 281.286219 
L 134.730661 280.911681 
L 134.730661 280.911681 
L 135.537256 281.285124 
L 135.537256 281.285124 
L 135.940553 281.591813 
L 135.940553 281.591813 
L 136.343851 281.086775 
L 136.343851 281.086775 
L 137.150446 281.119332 
L 137.150446 281.119332 
L 137.553744 280.752728 
L 137.553744 280.752728 
L 138.360339 280.672568 
L 138.360339 280.672568 
L 139.166934 280.934936 
L 139.166934 280.934936 
L 139.570232 281.072002 
L 139.570232 281.072002 
L 139.973529 281.703435 
L 139.973529 281.703435 
L 140.376827 282.018331 
L 140.376827 282.018331 
L 140.780124 282.129133 
L 141.183422 283.226208 
L 141.183422 283.226208 
L 141.586719 283.478179 
L 141.990017 284.517527 
L 141.990017 284.517527 
L 142.393315 284.830235 
L 142.393315 284.830235 
L 142.796612 285.723215 
L 142.796612 285.723215 
L 143.19991 286.174903 
L 143.603207 286.356017 
L 143.603207 286.356017 
L 144.006505 288.085619 
L 144.006505 288.085619 
L 144.409802 288.786817 
L 144.409802 288.786817 
L 144.8131 290.644457 
L 144.8131 290.644457 
L 145.216398 291.530597 
L 145.216398 291.530597 
L 145.619695 293.288105 
L 145.619695 293.288105 
L 146.022993 294.068916 
L 146.022993 294.068916 
L 146.42629 295.472406 
L 146.42629 295.472406 
L 146.829588 295.488 
L 146.829588 295.488 
L 147.232885 294.428406 
L 147.232885 294.428406 
L 147.636183 295.488 
L 147.636183 295.488 
L 148.039481 295.312906 
L 148.039481 295.312906 
L 148.442778 295.356132 
L 148.442778 295.356132 
L 148.846076 294.198595 
L 148.846076 294.198595 
L 149.249373 294.009275 
L 149.249373 294.009275 
L 149.652671 292.361748 
L 149.652671 292.361748 
L 150.055968 291.989399 
L 150.055968 291.989399 
L 150.459266 290.544051 
L 150.459266 290.544051 
L 150.862564 290.439268 
L 150.862564 290.439268 
L 151.265861 289.465307 
L 151.265861 289.465307 
L 151.669159 289.964599 
L 151.669159 289.964599 
L 152.072456 289.454363 
L 152.072456 289.454363 
L 152.475754 290.43024 
L 152.475754 290.43024 
L 152.879051 290.064731 
L 152.879051 290.064731 
L 153.282349 291.22473 
L 153.282349 291.22473 
L 153.685647 290.56074 
L 153.685647 290.56074 
L 154.088944 291.383956 
L 154.088944 291.383956 
L 154.492242 290.170334 
L 154.492242 290.170334 
L 154.895539 290.606976 
L 154.895539 290.606976 
L 155.298837 289.111835 
L 155.298837 289.111835 
L 155.702134 288.929081 
L 156.105432 287.166374 
L 156.105432 287.166374 
L 156.50873 286.584733 
L 156.50873 286.584733 
L 157.315325 282.934293 
L 157.315325 282.934293 
L 157.718622 283.876245 
L 157.718622 283.876245 
L 158.12192 282.996944 
L 158.12192 282.996944 
L 158.525217 284.666905 
L 158.525217 284.666905 
L 158.928515 284.905744 
L 159.331813 287.319582 
L 159.331813 287.319582 
L 159.73511 288.432251 
L 159.73511 288.432251 
L 160.138408 291.095871 
L 160.138408 291.095871 
L 160.541705 292.521795 
L 160.541705 292.521795 
L 160.945003 294.923868 
L 160.945003 294.923868 
L 161.3483 294.776133 
L 161.3483 294.776133 
L 161.751598 292.950228 
L 161.751598 292.950228 
L 162.961491 290.406438 
L 162.961491 290.406438 
L 163.364788 289.789504 
L 163.364788 289.789504 
L 164.574681 288.59859 
L 164.574681 288.59859 
L 166.591169 285.645791 
L 166.591169 285.645791 
L 166.994466 284.805886 
L 166.994466 284.805886 
L 167.397764 285.119961 
L 167.397764 285.119961 
L 168.204359 284.888235 
L 168.204359 284.888235 
L 168.607657 286.773233 
L 168.607657 286.773233 
L 169.010954 287.697949 
L 169.010954 287.697949 
L 169.817549 292.230153 
L 169.817549 292.230153 
L 170.220847 294.291888 
L 170.220847 294.291888 
L 170.624145 292.750238 
L 170.624145 292.750238 
L 171.43074 286.79512 
L 171.43074 286.79512 
L 171.834037 282.580548 
L 171.834037 282.580548 
L 173.04393 274.483262 
L 173.04393 274.483262 
L 173.447228 272.96815 
L 173.447228 272.96815 
L 174.253823 270.984113 
L 174.253823 270.984113 
L 174.65712 270.830906 
L 174.65712 270.830906 
L 175.060418 271.081236 
L 175.060418 271.081236 
L 175.463715 270.761416 
L 175.463715 270.761416 
L 176.270311 271.53949 
L 176.270311 271.53949 
L 176.673608 271.344972 
L 176.673608 271.344972 
L 177.480203 271.917858 
L 177.480203 271.917858 
L 177.883501 271.897613 
L 179.093394 273.077584 
L 179.093394 273.077584 
L 179.496691 273.555262 
L 179.496691 273.555262 
L 180.303286 274.928931 
L 180.303286 274.928931 
L 181.513179 278.30524 
L 181.513179 278.30524 
L 181.916477 279.617078 
L 181.916477 279.617078 
L 183.932964 290.607249 
L 183.932964 290.607249 
L 184.73956 295.488 
L 184.73956 295.488 
L 185.546155 289.078458 
L 185.546155 289.078458 
L 186.35275 280.396521 
L 186.35275 280.396521 
L 187.96594 266.280645 
L 187.96594 266.280645 
L 188.772535 261.679772 
L 188.772535 261.679772 
L 189.175833 259.587122 
L 189.175833 259.587122 
L 189.57913 258.306199 
L 189.57913 258.306199 
L 189.982428 257.398992 
L 189.982428 257.398992 
L 190.789023 256.41053 
L 190.789023 256.41053 
L 191.192321 256.585625 
L 191.192321 256.585625 
L 191.595618 257.05537 
L 191.998916 257.813473 
L 191.998916 257.813473 
L 192.805511 260.182443 
L 192.805511 260.182443 
L 193.612106 263.625506 
L 193.612106 263.625506 
L 194.418701 267.90355 
L 194.418701 267.90355 
L 195.628594 276.616402 
L 195.628594 276.616402 
L 197.645082 292.127833 
L 197.645082 292.127833 
L 198.048379 294.39202 
L 198.048379 294.39202 
L 198.451677 294.79884 
L 198.451677 294.79884 
L 198.854975 293.399181 
L 198.854975 293.399181 
L 199.258272 292.410446 
L 199.258272 292.410446 
L 199.66157 291.757399 
L 199.66157 291.757399 
L 200.468165 291.067419 
L 200.468165 291.067419 
L 201.27476 290.907098 
L 201.27476 290.907098 
L 202.081355 290.755806 
L 202.081355 290.755806 
L 203.694545 288.407628 
L 203.694545 288.407628 
L 204.097843 287.65144 
L 204.097843 287.65144 
L 204.904438 285.473706 
L 204.904438 285.473706 
L 206.920926 281.310568 
L 206.920926 281.310568 
L 207.727521 280.216502 
L 207.727521 280.216502 
L 208.130819 279.795456 
L 208.130819 279.795456 
L 208.534116 279.072645 
L 208.534116 279.072645 
L 209.340711 278.477872 
L 209.340711 278.477872 
L 210.550604 278.026731 
L 210.550604 278.026731 
L 211.357199 278.259278 
L 211.357199 278.259278 
L 212.163794 278.93339 
L 212.163794 278.93339 
L 212.97039 279.879446 
L 212.97039 279.879446 
L 213.776985 281.190738 
L 213.776985 281.190738 
L 214.986877 283.735075 
L 214.986877 283.735075 
L 216.19677 286.707026 
L 216.19677 286.707026 
L 217.80996 291.33006 
L 217.80996 291.33006 
L 219.423151 295.488 
L 219.423151 295.488 
L 219.826448 294.121171 
L 219.826448 294.121171 
L 221.439639 290.664428 
L 221.439639 290.664428 
L 221.842936 290.078683 
L 221.842936 290.078683 
L 222.246234 289.292675 
L 222.246234 289.292675 
L 223.052829 288.409543 
L 223.052829 288.409543 
L 223.456126 288.172345 
L 223.456126 288.172345 
L 223.859424 288.076591 
L 223.859424 288.076591 
L 224.262722 287.537629 
L 224.262722 287.537629 
L 224.666019 287.387704 
L 225.069317 287.369101 
L 225.069317 287.369101 
L 225.472614 286.989365 
L 225.472614 286.989365 
L 226.279209 286.706752 
L 226.279209 286.706752 
L 226.682507 286.652856 
L 226.682507 286.652856 
L 227.085805 286.124564 
L 227.085805 286.124564 
L 227.489102 286.032913 
L 227.489102 286.032913 
L 227.8924 286.07997 
L 227.8924 286.07997 
L 228.295697 285.753309 
L 228.295697 285.753309 
L 228.698995 285.868762 
L 228.698995 285.868762 
L 229.102292 286.213753 
L 229.102292 286.213753 
L 229.50559 286.152743 
L 229.50559 286.152743 
L 229.908888 286.500743 
L 229.908888 286.500743 
L 230.312185 287.024658 
L 230.312185 287.024658 
L 230.715483 286.977601 
L 230.715483 286.977601 
L 231.522078 287.844044 
L 231.522078 287.844044 
L 231.925375 287.570459 
L 231.925375 287.570459 
L 232.328673 287.821063 
L 232.328673 287.821063 
L 232.731971 288.205175 
L 232.731971 288.205175 
L 233.135268 287.609582 
L 233.135268 287.609582 
L 233.538566 287.740355 
L 233.538566 287.740355 
L 233.941863 288.094374 
L 233.941863 288.094374 
L 234.345161 287.31712 
L 234.345161 287.31712 
L 234.748458 287.526959 
L 234.748458 287.526959 
L 235.151756 287.056667 
L 235.151756 287.056667 
L 235.555054 287.187167 
L 235.555054 287.187167 
L 235.958351 287.641865 
L 235.958351 287.641865 
L 236.361649 287.113846 
L 236.361649 287.113846 
L 236.764946 287.38661 
L 237.168244 287.920921 
L 237.168244 287.920921 
L 237.571542 287.137101 
L 237.974839 287.391808 
L 237.974839 287.391808 
L 238.378137 286.800592 
L 238.378137 286.800592 
L 238.781434 286.812356 
L 238.781434 286.812356 
L 239.184732 287.066516 
L 239.184732 287.066516 
L 239.588029 286.140705 
L 239.588029 286.140705 
L 239.991327 286.15329 
L 239.991327 286.15329 
L 240.394625 286.503752 
L 240.394625 286.503752 
L 240.797922 285.468781 
L 240.797922 285.468781 
L 241.20122 285.767809 
L 241.20122 285.767809 
L 241.604517 285.171668 
L 241.604517 285.171668 
L 242.007815 285.399291 
L 242.007815 285.399291 
L 242.411112 285.979017 
L 242.411112 285.979017 
L 242.81441 285.287668 
L 242.81441 285.287668 
L 243.217708 285.644149 
L 243.217708 285.644149 
L 243.621005 285.255659 
L 243.621005 285.255659 
L 244.024303 285.393819 
L 244.4276 285.81514 
L 244.4276 285.81514 
L 244.830898 285.098621 
L 244.830898 285.098621 
L 245.234195 285.220366 
L 245.234195 285.220366 
L 245.637493 285.576027 
L 245.637493 285.576027 
L 246.040791 284.42998 
L 246.040791 284.42998 
L 246.444088 284.381282 
L 246.847386 283.489123 
L 246.847386 283.489123 
L 247.250683 283.240981 
L 247.250683 283.240981 
L 247.653981 283.260953 
L 248.057278 282.543614 
L 248.057278 282.543614 
L 248.460576 282.694359 
L 248.460576 282.694359 
L 248.863874 283.170396 
L 248.863874 283.170396 
L 249.267171 282.723359 
L 249.267171 282.723359 
L 249.670469 283.2325 
L 249.670469 283.2325 
L 250.073766 283.129359 
L 250.073766 283.129359 
L 250.477064 283.570651 
L 250.477064 283.570651 
L 250.880361 284.20783 
L 250.880361 284.20783 
L 251.283659 283.927132 
L 251.283659 283.927132 
L 251.686957 284.332858 
L 251.686957 284.332858 
L 252.090254 284.940489 
L 252.090254 284.940489 
L 252.493552 284.459801 
L 252.493552 284.459801 
L 252.896849 284.850206 
L 252.896849 284.850206 
L 253.300147 284.59249 
L 253.300147 284.59249 
L 253.703444 284.810537 
L 254.106742 285.19164 
L 254.106742 285.19164 
L 254.51004 284.766216 
L 254.51004 284.766216 
L 255.316635 285.085763 
L 255.316635 285.085763 
L 255.719932 284.461169 
L 255.719932 284.461169 
L 256.526527 284.381282 
L 256.526527 284.381282 
L 256.929825 283.590075 
L 256.929825 283.590075 
L 257.73642 283.124434 
L 257.73642 283.124434 
L 258.139718 282.358671 
L 258.139718 282.358671 
L 259.34961 281.424105 
L 259.34961 281.424105 
L 259.752908 281.389086 
L 259.752908 281.389086 
L 260.559503 281.761982 
L 260.559503 281.761982 
L 261.366098 282.892708 
L 261.366098 282.892708 
L 262.172693 284.583735 
L 262.172693 284.583735 
L 263.382586 287.891921 
L 263.382586 287.891921 
L 265.399074 293.434473 
L 265.399074 293.434473 
L 265.802372 295.488 
L 265.802372 295.488 
L 266.205669 295.372547 
L 266.205669 295.372547 
L 267.012264 293.729671 
L 267.012264 293.729671 
L 268.222157 291.350032 
L 268.222157 291.350032 
L 269.028752 290.232164 
L 269.028752 290.232164 
L 269.835347 289.618514 
L 269.835347 289.618514 
L 270.238645 289.562429 
L 271.04524 290.069655 
L 271.04524 290.069655 
L 271.851835 291.075079 
L 271.851835 291.075079 
L 273.061728 293.320662 
L 273.061728 293.320662 
L 273.465025 295.488 
L 273.465025 295.488 
L 273.868323 294.741935 
L 273.868323 294.741935 
L 274.271621 295.382123 
L 274.271621 295.382123 
L 275.078216 294.445095 
L 275.078216 294.445095 
L 275.481513 295.488 
L 275.481513 295.488 
L 275.884811 293.816124 
L 275.884811 293.816124 
L 276.288108 293.59753 
L 277.094704 292.947219 
L 277.094704 292.947219 
L 278.304596 292.089805 
L 278.304596 292.089805 
L 279.111191 291.05073 
L 279.111191 291.05073 
L 280.724382 289.405118 
L 280.724382 289.405118 
L 281.530977 289.010335 
L 281.530977 289.010335 
L 283.144167 288.730185 
L 283.144167 288.730185 
L 284.35406 288.991731 
L 284.35406 288.991731 
L 284.757357 288.672185 
L 284.757357 288.672185 
L 285.563953 288.404072 
L 285.563953 288.404072 
L 286.370548 287.847053 
L 286.370548 287.847053 
L 286.773845 287.068158 
L 286.773845 287.068158 
L 287.983738 285.545659 
L 287.983738 285.545659 
L 288.790333 284.127669 
L 288.790333 284.127669 
L 289.596928 283.176689 
L 289.596928 283.176689 
L 290.000226 282.845925 
L 290.000226 282.845925 
L 290.403523 282.225708 
L 290.403523 282.225708 
L 291.210119 281.820803 
L 291.210119 281.820803 
L 292.016714 281.748303 
L 292.016714 281.748303 
L 292.420011 281.274728 
L 292.420011 281.274728 
L 294.033202 280.696917 
L 294.033202 280.696917 
L 294.436499 279.987786 
L 294.436499 279.987786 
L 296.049689 278.499759 
L 296.049689 278.499759 
L 296.452987 277.618269 
L 296.452987 277.618269 
L 297.259582 276.922269 
L 297.259582 276.922269 
L 298.066177 276.672213 
L 298.066177 276.672213 
L 298.469475 276.094676 
L 298.469475 276.094676 
L 298.872772 276.124496 
L 298.872772 276.124496 
L 299.27607 276.321477 
L 299.27607 276.321477 
L 299.679368 276.68343 
L 299.679368 276.68343 
L 300.082665 276.633911 
L 300.082665 276.633911 
L 300.88926 277.74357 
L 300.88926 277.74357 
L 301.292558 278.514532 
L 301.292558 278.514532 
L 301.695855 278.835447 
L 301.695855 278.835447 
L 304.115641 283.600472 
L 304.115641 283.600472 
L 304.518938 283.943 
L 304.518938 283.943 
L 305.325534 285.397649 
L 305.325534 285.397649 
L 305.728831 285.642234 
L 305.728831 285.642234 
L 306.535426 286.792384 
L 306.535426 286.792384 
L 306.938724 286.909752 
L 306.938724 286.909752 
L 307.745319 287.829544 
L 307.745319 287.829544 
L 308.148617 287.822431 
L 308.148617 287.822431 
L 308.955212 288.637166 
L 308.955212 288.637166 
L 309.358509 288.51843 
L 309.761807 288.876279 
L 309.761807 288.876279 
L 310.165104 288.884213 
L 310.165104 288.884213 
L 310.568402 289.165184 
L 310.568402 289.165184 
L 310.9717 289.601825 
L 310.9717 289.601825 
L 311.374997 289.506891 
L 311.374997 289.506891 
L 311.778295 289.886901 
L 311.778295 289.886901 
L 312.181592 289.901674 
L 312.58489 290.238731 
L 312.58489 290.238731 
L 312.988187 290.770579 
L 312.988187 290.770579 
L 313.391485 290.642268 
L 313.391485 290.642268 
L 313.794783 291.142928 
L 313.794783 291.142928 
L 314.19808 291.087937 
L 314.19808 291.087937 
L 314.601378 291.575192 
L 314.601378 291.575192 
L 315.004675 291.675597 
L 315.004675 291.675597 
L 315.407973 292.326729 
L 315.407973 292.326729 
L 315.81127 292.669531 
L 315.81127 292.669531 
L 316.214568 293.52886 
L 316.214568 293.52886 
L 316.617866 294.070011 
L 316.617866 294.070011 
L 317.021163 295.062029 
L 317.021163 295.062029 
L 317.424461 295.165444 
L 317.424461 295.165444 
L 317.827758 293.955105 
L 317.827758 293.955105 
L 318.231056 293.150492 
L 318.231056 293.150492 
L 318.634353 291.731409 
L 318.634353 291.731409 
L 319.037651 290.910107 
L 319.440949 289.327146 
L 319.440949 289.327146 
L 319.844246 288.684222 
L 319.844246 288.684222 
L 320.247544 286.985261 
L 320.247544 286.985261 
L 320.650841 286.557922 
L 320.650841 286.557922 
L 321.054139 284.735848 
L 321.054139 284.735848 
L 321.457436 284.740225 
L 321.457436 284.740225 
L 321.860734 283.014727 
L 321.860734 283.014727 
L 322.264032 283.599104 
L 322.264032 283.599104 
L 322.667329 283.70416 
L 322.667329 283.70416 
L 323.070627 282.770963 
L 323.070627 282.770963 
L 323.473924 283.345217 
L 323.473924 283.345217 
L 323.877222 282.454972 
L 323.877222 282.454972 
L 324.280519 283.468057 
L 324.280519 283.468057 
L 324.683817 282.19069 
L 324.683817 282.19069 
L 325.087115 283.286396 
L 325.087115 283.286396 
L 325.490412 283.534264 
L 325.490412 283.534264 
L 325.89371 282.164699 
L 325.89371 282.164699 
L 326.297007 282.418859 
L 326.297007 282.418859 
L 326.700305 280.594049 
L 326.700305 280.594049 
L 327.103602 281.264879 
L 327.103602 281.264879 
L 327.5069 281.534634 
L 327.5069 281.534634 
L 327.910198 280.673115 
L 327.910198 280.673115 
L 328.313495 281.961699 
L 328.313495 281.961699 
L 328.716793 281.620813 
L 328.716793 281.620813 
L 329.926685 289.10992 
L 329.926685 289.10992 
L 330.329983 293.45636 
L 330.329983 293.45636 
L 330.733281 293.320388 
L 330.733281 293.320388 
L 331.136578 290.229429 
L 331.136578 290.229429 
L 331.943173 281.166936 
L 331.943173 281.166936 
L 332.346471 278.417683 
L 332.346471 278.417683 
L 332.749768 274.707875 
L 332.749768 274.707875 
L 333.153066 274.055922 
L 333.153066 274.055922 
L 333.556364 271.31734 
L 333.959661 269.89935 
L 333.959661 269.89935 
L 334.362959 271.784896 
L 334.362959 271.784896 
L 334.766256 271.602962 
L 334.766256 271.602962 
L 335.169554 272.888263 
L 335.169554 272.888263 
L 335.572851 277.803212 
L 335.572851 277.803212 
L 335.976149 280.155767 
L 335.976149 280.155767 
L 336.379447 283.798 
L 336.379447 283.798 
L 336.782744 291.054013 
L 336.782744 291.054013 
L 337.186042 294.595567 
L 337.186042 294.595567 
L 337.589339 292.050408 
L 337.589339 292.050408 
L 337.992637 284.58565 
L 337.992637 284.58565 
L 338.799232 278.593051 
L 338.799232 278.593051 
L 339.20253 273.366763 
L 339.20253 273.366763 
L 339.605827 273.190027 
L 339.605827 273.190027 
L 340.009125 273.435979 
L 340.009125 273.435979 
L 340.412422 272.585131 
L 340.412422 272.585131 
L 340.81572 276.355402 
L 340.81572 276.355402 
L 341.219018 276.395071 
L 341.219018 276.395071 
L 342.025613 290.435985 
L 342.025613 290.435985 
L 342.42891 293.090577 
L 342.42891 293.090577 
L 342.832208 288.48259 
L 342.832208 288.48259 
L 343.638803 271.349075 
L 343.638803 271.349075 
L 344.042101 266.0864 
L 344.042101 266.0864 
L 344.848696 249.092687 
L 344.848696 249.092687 
L 345.251993 244.900002 
L 345.251993 244.900002 
L 346.058588 230.419164 
L 346.058588 230.419164 
L 346.461886 228.396279 
L 346.461886 228.396279 
L 347.268481 217.60774 
L 347.268481 217.60774 
L 347.671779 214.269186 
L 347.671779 214.269186 
L 348.075076 214.413912 
L 348.075076 214.413912 
L 348.478374 211.763971 
L 348.478374 211.763971 
L 348.881671 210.545425 
L 348.881671 210.545425 
L 349.284969 213.590422 
L 349.284969 213.590422 
L 349.688267 213.136545 
L 350.091564 214.130752 
L 350.091564 214.130752 
L 350.494862 216.570033 
L 350.494862 216.570033 
L 350.898159 221.854595 
L 350.898159 221.854595 
L 351.301457 225.146366 
L 351.301457 225.146366 
L 351.704754 229.86707 
L 351.704754 229.86707 
L 352.108052 237.884469 
L 352.108052 237.884469 
L 352.914647 250.495629 
L 352.914647 250.495629 
L 353.317945 261.061197 
L 353.317945 261.061197 
L 354.12454 276.770156 
L 354.12454 276.770156 
L 354.931135 294.605689 
L 354.931135 294.605689 
L 356.947623 253.922004 
L 356.947623 253.922004 
L 357.754218 247.048462 
L 357.754218 247.048462 
L 358.157516 244.139436 
L 358.157516 244.139436 
L 358.964111 245.433218 
L 358.964111 245.433218 
L 359.367408 249.927668 
L 359.367408 249.927668 
L 360.174003 262.297799 
L 360.174003 262.297799 
L 360.980599 281.522596 
L 360.980599 281.522596 
L 361.383896 292.291436 
L 361.383896 292.291436 
L 361.787194 286.520441 
L 361.787194 286.520441 
L 365.013574 186.943821 
L 365.013574 186.943821 
L 365.416872 177.728394 
L 365.416872 177.728394 
L 366.223467 166.636997 
L 366.223467 166.636997 
L 366.626765 165.604762 
L 366.626765 165.604762 
L 367.030062 165.958507 
L 367.030062 165.958507 
L 367.43336 170.567314 
L 367.43336 170.567314 
L 367.836657 176.739111 
L 367.836657 176.739111 
L 368.643252 197.900614 
L 368.643252 197.900614 
L 369.853145 244.6007 
L 369.853145 244.6007 
L 370.65974 279.947842 
L 370.65974 279.947842 
L 371.063038 291.141013 
L 371.063038 291.141013 
L 373.079526 196.624888 
L 373.079526 196.624888 
L 374.289418 147.417946 
L 374.289418 147.417946 
L 374.692716 131.987769 
L 374.692716 131.987769 
L 375.096014 121.343957 
L 375.096014 121.343957 
L 375.902609 94.820194 
L 375.902609 94.820194 
L 376.305906 84.217967 
L 376.305906 84.217967 
L 376.709204 77.634972 
L 376.709204 77.634972 
L 377.515799 62.330918 
L 377.515799 62.330918 
L 377.919097 59.937052 
L 377.919097 59.937052 
L 378.322394 55.692385 
L 378.322394 55.692385 
L 378.725692 53.568 
L 378.725692 53.568 
L 379.128989 55.604017 
L 379.128989 55.604017 
L 379.532287 56.167875 
L 379.532287 56.167875 
L 379.935584 58.876364 
L 379.935584 58.876364 
L 381.145477 78.56516 
L 381.145477 78.56516 
L 382.758667 125.687387 
L 382.758667 125.687387 
L 385.58175 242.041042 
L 385.58175 242.041042 
L 386.388346 276.1286 
L 386.388346 276.1286 
L 386.791643 291.36289 
L 386.791643 291.36289 
L 387.194941 283.809764 
L 387.194941 283.809764 
L 388.404833 250.216026 
L 388.404833 250.216026 
L 389.211429 237.607055 
L 389.211429 237.607055 
L 389.614726 235.955697 
L 389.614726 235.955697 
L 390.018024 235.105123 
L 390.018024 235.105123 
L 390.824619 242.477409 
L 390.824619 242.477409 
L 391.631214 259.749905 
L 391.631214 259.749905 
L 392.437809 282.025992 
L 392.437809 282.025992 
L 392.841107 293.923369 
L 392.841107 293.923369 
L 393.244404 282.778623 
L 393.244404 282.778623 
L 395.260892 213.795611 
L 395.260892 213.795611 
L 396.067487 190.261856 
L 396.067487 190.261856 
L 396.874082 169.668042 
L 396.874082 169.668042 
L 397.27738 166.304318 
L 397.680678 165.911177 
L 397.680678 165.911177 
L 398.083975 165.253753 
L 398.083975 165.253753 
L 398.487273 164.332593 
L 398.487273 164.332593 
" clip-path="url(#p355f4fe32a)" style="fill: none; stroke: #1f77b4; stroke-width: 1.5; stroke-linecap: square"/>
   </g>
   <g id="patch_3">
    <path d="M 57.6 307.584 
L 57.6 41.472 
" style="fill: none; stroke: #000000; stroke-width: 0.8; stroke-linejoin: miter; stroke-linecap: square"/>
   </g>
   <g id="patch_4">
    <path d="M 414.72 307.584 
L 414.72 41.472 
" style="fill: none; stroke: #000000; stroke-width: 0.8; stroke-linejoin: miter; stroke-linecap: square"/>
   </g>
   <g id="patch_5">
    <path d="M 57.6 307.584 
L 414.72 307.584 
" style="fill: none; stroke: #000000; stroke-width: 0.8; stroke-linejoin: miter; stroke-linecap: square"/>
   </g>
   <g id="patch_6">
    <path d="M 57.6 41.472 
L 414.72 41.472 
" style="fill: none; stroke: #000000; stroke-width: 0.8; stroke-linejoin: miter; stroke-linecap: square"/>
   </g>
   <g id="text_17">
    <!-- Tracking error vs Time -->
    <g transform="translate(169.584375 35.472) scale(0.12 -0.12)">
     <defs>
      <path id="DejaVuSans-76" d="M 191 3500 
L 800 3500 
L 1894 563 
L 2988 3500 
L 3597 3500 
L 2284 0 
L 1503 0 
L 191 3500 
z
" transform="scale(0.015625)"/>
     </defs>
     <use xlink:href="#DejaVuSans-54"/>
     <use xlink:href="#DejaVuSans-72" x="46.333984"/>
     <use xlink:href="#DejaVuSans-61" x="87.447266"/>
     <use xlink:href="#DejaVuSans-63" x="148.726562"/>
     <use xlink:href="#DejaVuSans-6b" x="203.707031"/>
     <use xlink:href="#DejaVuSans-69" x="261.617188"/>
     <use xlink:href="#DejaVuSans-6e" x="289.400391"/>
     <use xlink:href="#DejaVuSans-67" x="352.779297"/>
     <use xlink:href="#DejaVuSans-20" x="416.255859"/>
     <use xlink:href="#DejaVuSans-65" x="448.042969"/>
     <use xlink:href="#DejaVuSans-72" x="509.566406"/>
     <use xlink:href="#DejaVuSans-72" x="548.929688"/>
     <use xlink:href="#DejaVuSans-6f" x="587.792969"/>
     <use xlink:href="#DejaVuSans-72" x="648.974609"/>
     <use xlink:href="#DejaVuSans-20" x="690.087891"/>
     <use xlink:href="#DejaVuSans-76" x="721.875"/>
     <use xlink:href="#DejaVuSans-73" x="781.054688"/>
     <use xlink:href="#DejaVuSans-20" x="833.154297"/>
     <use xlink:href="#DejaVuSans-54" x="864.941406"/>
     <use xlink:href="#DejaVuSans-69" x="922.900391"/>
     <use xlink:href="#DejaVuSans-6d" x="950.683594"/>
     <use xlink:href="#DejaVuSans-65" x="1048.095703"/>
    </g>
   </g>
   <g id="legend_1">
    <g id="patch_7">
     <path d="M 64.6 64.150125 
L 161.31875 64.150125 
Q 163.31875 64.150125 163.31875 62.150125 
L 163.31875 48.472 
Q 163.31875 46.472 161.31875 46.472 
L 64.6 46.472 
Q 62.6 46.472 62.6 48.472 
L 62.6 62.150125 
Q 62.6 64.150125 64.6 64.150125 
z
" style="fill: #ffffff; opacity: 0.8; stroke: #cccccc; stroke-linejoin: miter"/>
    </g>
    <g id="line2d_30">
     <path d="M 66.6 54.570438 
L 76.6 54.570438 
L 86.6 54.570438 
" style="fill: none; stroke: #1f77b4; stroke-width: 1.5; stroke-linecap: square"/>
    </g>
    <g id="text_18">
     <!-- Actual speed -->
     <g transform="translate(94.6 58.070438) scale(0.1 -0.1)">
      <defs>
       <path id="DejaVuSans-41" d="M 2188 4044 
L 1331 1722 
L 3047 1722 
L 2188 4044 
z
M 1831 4666 
L 2547 4666 
L 4325 0 
L 3669 0 
L 3244 1197 
L 1141 1197 
L 716 0 
L 50 0 
L 1831 4666 
z
" transform="scale(0.015625)"/>
       <path id="DejaVuSans-74" d="M 1172 4494 
L 1172 3500 
L 2356 3500 
L 2356 3053 
L 1172 3053 
L 1172 1153 
Q 1172 725 1289 603 
Q 1406 481 1766 481 
L 2356 481 
L 2356 0 
L 1766 0 
Q 1100 0 847 248 
Q 594 497 594 1153 
L 594 3053 
L 172 3053 
L 172 3500 
L 594 3500 
L 594 4494 
L 1172 4494 
z
" transform="scale(0.015625)"/>
       <path id="DejaVuSans-75" d="M 544 1381 
L 544 3500 
L 1119 3500 
L 1119 1403 
Q 1119 906 1312 657 
Q 1506 409 1894 409 
Q 2359 409 2629 706 
Q 2900 1003 2900 1516 
L 2900 3500 
L 3475 3500 
L 3475 0 
L 2900 0 
L 2900 538 
Q 2691 219 2414 64 
Q 2138 -91 1772 -91 
Q 1169 -91 856 284 
Q 544 659 544 1381 
z
M 1991 3584 
L 1991 3584 
z
" transform="scale(0.015625)"/>
       <path id="DejaVuSans-6c" d="M 603 4863 
L 1178 4863 
L 1178 0 
L 603 0 
L 603 4863 
z
" transform="scale(0.015625)"/>
       <path id="DejaVuSans-70" d="M 1159 525 
L 1159 -1331 
L 581 -1331 
L 581 3500 
L 1159 3500 
L 1159 2969 
Q 1341 3281 1617 3432 
Q 1894 3584 2278 3584 
Q 2916 3584 3314 3078 
Q 3713 2572 3713 1747 
Q 3713 922 3314 415 
Q 2916 -91 2278 -91 
Q 1894 -91 1617 61 
Q 1341 213 1159 525 
z
M 3116 1747 
Q 3116 2381 2855 2742 
Q 2594 3103 2138 3103 
Q 1681 3103 1420 2742 
Q 1159 2381 1159 1747 
Q 1159 1113 1420 752 
Q 1681 391 2138 391 
Q 2594 391 2855 752 
Q 3116 1113 3116 1747 
z
" transform="scale(0.015625)"/>
       <path id="DejaVuSans-64" d="M 2906 2969 
L 2906 4863 
L 3481 4863 
L 3481 0 
L 2906 0 
L 2906 525 
Q 2725 213 2448 61 
Q 2172 -91 1784 -91 
Q 1150 -91 751 415 
Q 353 922 353 1747 
Q 353 2572 751 3078 
Q 1150 3584 1784 3584 
Q 2172 3584 2448 3432 
Q 2725 3281 2906 2969 
z
M 947 1747 
Q 947 1113 1208 752 
Q 1469 391 1925 391 
Q 2381 391 2643 752 
Q 2906 1113 2906 1747 
Q 2906 2381 2643 2742 
Q 2381 3103 1925 3103 
Q 1469 3103 1208 2742 
Q 947 2381 947 1747 
z
" transform="scale(0.015625)"/>
      </defs>
      <use xlink:href="#DejaVuSans-41"/>
      <use xlink:href="#DejaVuSans-63" x="66.658203"/>
      <use xlink:href="#DejaVuSans-74" x="121.638672"/>
      <use xlink:href="#DejaVuSans-75" x="160.847656"/>
      <use xlink:href="#DejaVuSans-61" x="224.226562"/>
      <use xlink:href="#DejaVuSans-6c" x="285.505859"/>
      <use xlink:href="#DejaVuSans-20" x="313.289062"/>
      <use xlink:href="#DejaVuSans-73" x="345.076172"/>
      <use xlink:href="#DejaVuSans-70" x="397.175781"/>
      <use xlink:href="#DejaVuSans-65" x="460.652344"/>
      <use xlink:href="#DejaVuSans-65" x="522.175781"/>
      <use xlink:href="#DejaVuSans-64" x="583.699219"/>
     </g>
    </g>
   </g>
  </g>
 </g>
 <defs>
  <clipPath id="p355f4fe32a">
   <rect x="57.6" y="41.472" width="357.12" height="266.112"/>
  </clipPath>
 </defs>
</svg>
