<?xml version="1.0" encoding="utf-8" standalone="no"?>
<!DOCTYPE svg PUBLIC "-//W3C//DTD SVG 1.1//EN"
  "http://www.w3.org/Graphics/SVG/1.1/DTD/svg11.dtd">
<svg xmlns:xlink="http://www.w3.org/1999/xlink" width="460.8pt" height="345.6pt" viewBox="0 0 460.8 345.6" xmlns="http://www.w3.org/2000/svg" version="1.1">
 <metadata>
  <rdf:RDF xmlns:dc="http://purl.org/dc/elements/1.1/" xmlns:cc="http://creativecommons.org/ns#" xmlns:rdf="http://www.w3.org/1999/02/22-rdf-syntax-ns#">
   <cc:Work>
    <dc:type rdf:resource="http://purl.org/dc/dcmitype/StillImage"/>
    <dc:date>2024-01-30T20:59:26.528221</dc:date>
    <dc:format>image/svg+xml</dc:format>
    <dc:creator>
     <cc:Agent>
      <dc:title>Matplotlib v3.7.1, https://matplotlib.org/</dc:title>
     </cc:Agent>
    </dc:creator>
   </cc:Work>
  </rdf:RDF>
 </metadata>
 <defs>
  <style type="text/css">*{stroke-linejoin: round; stroke-linecap: butt}</style>
 </defs>
 <g id="figure_1">
  <g id="patch_1">
   <path d="M 0 345.6 
L 460.8 345.6 
L 460.8 0 
L 0 0 
z
" style="fill: #ffffff"/>
  </g>
  <g id="axes_1">
   <g id="patch_2">
    <path d="M 57.6 307.584 
L 414.72 307.584 
L 414.72 41.472 
L 57.6 41.472 
z
" style="fill: #ffffff"/>
   </g>
   <g id="matplotlib.axis_1">
    <g id="xtick_1">
     <g id="line2d_1">
      <path d="M 73.832727 307.584 
L 73.832727 41.472 
" clip-path="url(#p282f30bddd)" style="fill: none; stroke: #b0b0b0; stroke-width: 0.8; stroke-linecap: square"/>
     </g>
     <g id="line2d_2">
      <defs>
       <path id="mf368c97fa4" d="M 0 0 
L 0 3.5 
" style="stroke: #000000; stroke-width: 0.8"/>
      </defs>
      <g>
       <use xlink:href="#mf368c97fa4" x="73.832727" y="307.584" style="stroke: #000000; stroke-width: 0.8"/>
      </g>
     </g>
     <g id="text_1">
      <!-- 0 -->
      <g transform="translate(70.651477 322.182437) scale(0.1 -0.1)">
       <defs>
        <path id="DejaVuSans-30" d="M 2034 4250 
Q 1547 4250 1301 3770 
Q 1056 3291 1056 2328 
Q 1056 1369 1301 889 
Q 1547 409 2034 409 
Q 2525 409 2770 889 
Q 3016 1369 3016 2328 
Q 3016 3291 2770 3770 
Q 2525 4250 2034 4250 
z
M 2034 4750 
Q 2819 4750 3233 4129 
Q 3647 3509 3647 2328 
Q 3647 1150 3233 529 
Q 2819 -91 2034 -91 
Q 1250 -91 836 529 
Q 422 1150 422 2328 
Q 422 3509 836 4129 
Q 1250 4750 2034 4750 
z
" transform="scale(0.015625)"/>
       </defs>
       <use xlink:href="#DejaVuSans-30"/>
      </g>
     </g>
    </g>
    <g id="xtick_2">
     <g id="line2d_3">
      <path d="M 131.93125 307.584 
L 131.93125 41.472 
" clip-path="url(#p282f30bddd)" style="fill: none; stroke: #b0b0b0; stroke-width: 0.8; stroke-linecap: square"/>
     </g>
     <g id="line2d_4">
      <g>
       <use xlink:href="#mf368c97fa4" x="131.93125" y="307.584" style="stroke: #000000; stroke-width: 0.8"/>
      </g>
     </g>
     <g id="text_2">
      <!-- 5 -->
      <g transform="translate(128.75 322.182437) scale(0.1 -0.1)">
       <defs>
        <path id="DejaVuSans-35" d="M 691 4666 
L 3169 4666 
L 3169 4134 
L 1269 4134 
L 1269 2991 
Q 1406 3038 1543 3061 
Q 1681 3084 1819 3084 
Q 2600 3084 3056 2656 
Q 3513 2228 3513 1497 
Q 3513 744 3044 326 
Q 2575 -91 1722 -91 
Q 1428 -91 1123 -41 
Q 819 9 494 109 
L 494 744 
Q 775 591 1075 516 
Q 1375 441 1709 441 
Q 2250 441 2565 725 
Q 2881 1009 2881 1497 
Q 2881 1984 2565 2268 
Q 2250 2553 1709 2553 
Q 1456 2553 1204 2497 
Q 953 2441 691 2322 
L 691 4666 
z
" transform="scale(0.015625)"/>
       </defs>
       <use xlink:href="#DejaVuSans-35"/>
      </g>
     </g>
    </g>
    <g id="xtick_3">
     <g id="line2d_5">
      <path d="M 190.029773 307.584 
L 190.029773 41.472 
" clip-path="url(#p282f30bddd)" style="fill: none; stroke: #b0b0b0; stroke-width: 0.8; stroke-linecap: square"/>
     </g>
     <g id="line2d_6">
      <g>
       <use xlink:href="#mf368c97fa4" x="190.029773" y="307.584" style="stroke: #000000; stroke-width: 0.8"/>
      </g>
     </g>
     <g id="text_3">
      <!-- 10 -->
      <g transform="translate(183.667273 322.182437) scale(0.1 -0.1)">
       <defs>
        <path id="DejaVuSans-31" d="M 794 531 
L 1825 531 
L 1825 4091 
L 703 3866 
L 703 4441 
L 1819 4666 
L 2450 4666 
L 2450 531 
L 3481 531 
L 3481 0 
L 794 0 
L 794 531 
z
" transform="scale(0.015625)"/>
       </defs>
       <use xlink:href="#DejaVuSans-31"/>
       <use xlink:href="#DejaVuSans-30" x="63.623047"/>
      </g>
     </g>
    </g>
    <g id="xtick_4">
     <g id="line2d_7">
      <path d="M 248.128296 307.584 
L 248.128296 41.472 
" clip-path="url(#p282f30bddd)" style="fill: none; stroke: #b0b0b0; stroke-width: 0.8; stroke-linecap: square"/>
     </g>
     <g id="line2d_8">
      <g>
       <use xlink:href="#mf368c97fa4" x="248.128296" y="307.584" style="stroke: #000000; stroke-width: 0.8"/>
      </g>
     </g>
     <g id="text_4">
      <!-- 15 -->
      <g transform="translate(241.765796 322.182437) scale(0.1 -0.1)">
       <use xlink:href="#DejaVuSans-31"/>
       <use xlink:href="#DejaVuSans-35" x="63.623047"/>
      </g>
     </g>
    </g>
    <g id="xtick_5">
     <g id="line2d_9">
      <path d="M 306.226819 307.584 
L 306.226819 41.472 
" clip-path="url(#p282f30bddd)" style="fill: none; stroke: #b0b0b0; stroke-width: 0.8; stroke-linecap: square"/>
     </g>
     <g id="line2d_10">
      <g>
       <use xlink:href="#mf368c97fa4" x="306.226819" y="307.584" style="stroke: #000000; stroke-width: 0.8"/>
      </g>
     </g>
     <g id="text_5">
      <!-- 20 -->
      <g transform="translate(299.864319 322.182437) scale(0.1 -0.1)">
       <defs>
        <path id="DejaVuSans-32" d="M 1228 531 
L 3431 531 
L 3431 0 
L 469 0 
L 469 531 
Q 828 903 1448 1529 
Q 2069 2156 2228 2338 
Q 2531 2678 2651 2914 
Q 2772 3150 2772 3378 
Q 2772 3750 2511 3984 
Q 2250 4219 1831 4219 
Q 1534 4219 1204 4116 
Q 875 4013 500 3803 
L 500 4441 
Q 881 4594 1212 4672 
Q 1544 4750 1819 4750 
Q 2544 4750 2975 4387 
Q 3406 4025 3406 3419 
Q 3406 3131 3298 2873 
Q 3191 2616 2906 2266 
Q 2828 2175 2409 1742 
Q 1991 1309 1228 531 
z
" transform="scale(0.015625)"/>
       </defs>
       <use xlink:href="#DejaVuSans-32"/>
       <use xlink:href="#DejaVuSans-30" x="63.623047"/>
      </g>
     </g>
    </g>
    <g id="xtick_6">
     <g id="line2d_11">
      <path d="M 364.325341 307.584 
L 364.325341 41.472 
" clip-path="url(#p282f30bddd)" style="fill: none; stroke: #b0b0b0; stroke-width: 0.8; stroke-linecap: square"/>
     </g>
     <g id="line2d_12">
      <g>
       <use xlink:href="#mf368c97fa4" x="364.325341" y="307.584" style="stroke: #000000; stroke-width: 0.8"/>
      </g>
     </g>
     <g id="text_6">
      <!-- 25 -->
      <g transform="translate(357.962841 322.182437) scale(0.1 -0.1)">
       <use xlink:href="#DejaVuSans-32"/>
       <use xlink:href="#DejaVuSans-35" x="63.623047"/>
      </g>
     </g>
    </g>
    <g id="text_7">
     <!-- Time(s) -->
     <g transform="translate(217.420156 335.860562) scale(0.1 -0.1)">
      <defs>
       <path id="DejaVuSans-54" d="M -19 4666 
L 3928 4666 
L 3928 4134 
L 2272 4134 
L 2272 0 
L 1638 0 
L 1638 4134 
L -19 4134 
L -19 4666 
z
" transform="scale(0.015625)"/>
       <path id="DejaVuSans-69" d="M 603 3500 
L 1178 3500 
L 1178 0 
L 603 0 
L 603 3500 
z
M 603 4863 
L 1178 4863 
L 1178 4134 
L 603 4134 
L 603 4863 
z
" transform="scale(0.015625)"/>
       <path id="DejaVuSans-6d" d="M 3328 2828 
Q 3544 3216 3844 3400 
Q 4144 3584 4550 3584 
Q 5097 3584 5394 3201 
Q 5691 2819 5691 2113 
L 5691 0 
L 5113 0 
L 5113 2094 
Q 5113 2597 4934 2840 
Q 4756 3084 4391 3084 
Q 3944 3084 3684 2787 
Q 3425 2491 3425 1978 
L 3425 0 
L 2847 0 
L 2847 2094 
Q 2847 2600 2669 2842 
Q 2491 3084 2119 3084 
Q 1678 3084 1418 2786 
Q 1159 2488 1159 1978 
L 1159 0 
L 581 0 
L 581 3500 
L 1159 3500 
L 1159 2956 
Q 1356 3278 1631 3431 
Q 1906 3584 2284 3584 
Q 2666 3584 2933 3390 
Q 3200 3197 3328 2828 
z
" transform="scale(0.015625)"/>
       <path id="DejaVuSans-65" d="M 3597 1894 
L 3597 1613 
L 953 1613 
Q 991 1019 1311 708 
Q 1631 397 2203 397 
Q 2534 397 2845 478 
Q 3156 559 3463 722 
L 3463 178 
Q 3153 47 2828 -22 
Q 2503 -91 2169 -91 
Q 1331 -91 842 396 
Q 353 884 353 1716 
Q 353 2575 817 3079 
Q 1281 3584 2069 3584 
Q 2775 3584 3186 3129 
Q 3597 2675 3597 1894 
z
M 3022 2063 
Q 3016 2534 2758 2815 
Q 2500 3097 2075 3097 
Q 1594 3097 1305 2825 
Q 1016 2553 972 2059 
L 3022 2063 
z
" transform="scale(0.015625)"/>
       <path id="DejaVuSans-28" d="M 1984 4856 
Q 1566 4138 1362 3434 
Q 1159 2731 1159 2009 
Q 1159 1288 1364 580 
Q 1569 -128 1984 -844 
L 1484 -844 
Q 1016 -109 783 600 
Q 550 1309 550 2009 
Q 550 2706 781 3412 
Q 1013 4119 1484 4856 
L 1984 4856 
z
" transform="scale(0.015625)"/>
       <path id="DejaVuSans-73" d="M 2834 3397 
L 2834 2853 
Q 2591 2978 2328 3040 
Q 2066 3103 1784 3103 
Q 1356 3103 1142 2972 
Q 928 2841 928 2578 
Q 928 2378 1081 2264 
Q 1234 2150 1697 2047 
L 1894 2003 
Q 2506 1872 2764 1633 
Q 3022 1394 3022 966 
Q 3022 478 2636 193 
Q 2250 -91 1575 -91 
Q 1294 -91 989 -36 
Q 684 19 347 128 
L 347 722 
Q 666 556 975 473 
Q 1284 391 1588 391 
Q 1994 391 2212 530 
Q 2431 669 2431 922 
Q 2431 1156 2273 1281 
Q 2116 1406 1581 1522 
L 1381 1569 
Q 847 1681 609 1914 
Q 372 2147 372 2553 
Q 372 3047 722 3315 
Q 1072 3584 1716 3584 
Q 2034 3584 2315 3537 
Q 2597 3491 2834 3397 
z
" transform="scale(0.015625)"/>
       <path id="DejaVuSans-29" d="M 513 4856 
L 1013 4856 
Q 1481 4119 1714 3412 
Q 1947 2706 1947 2009 
Q 1947 1309 1714 600 
Q 1481 -109 1013 -844 
L 513 -844 
Q 928 -128 1133 580 
Q 1338 1288 1338 2009 
Q 1338 2731 1133 3434 
Q 928 4138 513 4856 
z
" transform="scale(0.015625)"/>
      </defs>
      <use xlink:href="#DejaVuSans-54"/>
      <use xlink:href="#DejaVuSans-69" x="57.958984"/>
      <use xlink:href="#DejaVuSans-6d" x="85.742188"/>
      <use xlink:href="#DejaVuSans-65" x="183.154297"/>
      <use xlink:href="#DejaVuSans-28" x="244.677734"/>
      <use xlink:href="#DejaVuSans-73" x="283.691406"/>
      <use xlink:href="#DejaVuSans-29" x="335.791016"/>
     </g>
    </g>
   </g>
   <g id="matplotlib.axis_2">
    <g id="ytick_1">
     <g id="line2d_13">
      <path d="M 57.6 257.815171 
L 414.72 257.815171 
" clip-path="url(#p282f30bddd)" style="fill: none; stroke: #b0b0b0; stroke-width: 0.8; stroke-linecap: square"/>
     </g>
     <g id="line2d_14">
      <defs>
       <path id="md8bd2a92e3" d="M 0 0 
L -3.5 0 
" style="stroke: #000000; stroke-width: 0.8"/>
      </defs>
      <g>
       <use xlink:href="#md8bd2a92e3" x="57.6" y="257.815171" style="stroke: #000000; stroke-width: 0.8"/>
      </g>
     </g>
     <g id="text_8">
      <!-- 4 -->
      <g transform="translate(44.2375 261.61439) scale(0.1 -0.1)">
       <defs>
        <path id="DejaVuSans-34" d="M 2419 4116 
L 825 1625 
L 2419 1625 
L 2419 4116 
z
M 2253 4666 
L 3047 4666 
L 3047 1625 
L 3713 1625 
L 3713 1100 
L 3047 1100 
L 3047 0 
L 2419 0 
L 2419 1100 
L 313 1100 
L 313 1709 
L 2253 4666 
z
" transform="scale(0.015625)"/>
       </defs>
       <use xlink:href="#DejaVuSans-34"/>
      </g>
     </g>
    </g>
    <g id="ytick_2">
     <g id="line2d_15">
      <path d="M 57.6 206.753378 
L 414.72 206.753378 
" clip-path="url(#p282f30bddd)" style="fill: none; stroke: #b0b0b0; stroke-width: 0.8; stroke-linecap: square"/>
     </g>
     <g id="line2d_16">
      <g>
       <use xlink:href="#md8bd2a92e3" x="57.6" y="206.753378" style="stroke: #000000; stroke-width: 0.8"/>
      </g>
     </g>
     <g id="text_9">
      <!-- 5 -->
      <g transform="translate(44.2375 210.552597) scale(0.1 -0.1)">
       <use xlink:href="#DejaVuSans-35"/>
      </g>
     </g>
    </g>
    <g id="ytick_3">
     <g id="line2d_17">
      <path d="M 57.6 155.691585 
L 414.72 155.691585 
" clip-path="url(#p282f30bddd)" style="fill: none; stroke: #b0b0b0; stroke-width: 0.8; stroke-linecap: square"/>
     </g>
     <g id="line2d_18">
      <g>
       <use xlink:href="#md8bd2a92e3" x="57.6" y="155.691585" style="stroke: #000000; stroke-width: 0.8"/>
      </g>
     </g>
     <g id="text_10">
      <!-- 6 -->
      <g transform="translate(44.2375 159.490804) scale(0.1 -0.1)">
       <defs>
        <path id="DejaVuSans-36" d="M 2113 2584 
Q 1688 2584 1439 2293 
Q 1191 2003 1191 1497 
Q 1191 994 1439 701 
Q 1688 409 2113 409 
Q 2538 409 2786 701 
Q 3034 994 3034 1497 
Q 3034 2003 2786 2293 
Q 2538 2584 2113 2584 
z
M 3366 4563 
L 3366 3988 
Q 3128 4100 2886 4159 
Q 2644 4219 2406 4219 
Q 1781 4219 1451 3797 
Q 1122 3375 1075 2522 
Q 1259 2794 1537 2939 
Q 1816 3084 2150 3084 
Q 2853 3084 3261 2657 
Q 3669 2231 3669 1497 
Q 3669 778 3244 343 
Q 2819 -91 2113 -91 
Q 1303 -91 875 529 
Q 447 1150 447 2328 
Q 447 3434 972 4092 
Q 1497 4750 2381 4750 
Q 2619 4750 2861 4703 
Q 3103 4656 3366 4563 
z
" transform="scale(0.015625)"/>
       </defs>
       <use xlink:href="#DejaVuSans-36"/>
      </g>
     </g>
    </g>
    <g id="ytick_4">
     <g id="line2d_19">
      <path d="M 57.6 104.629793 
L 414.72 104.629793 
" clip-path="url(#p282f30bddd)" style="fill: none; stroke: #b0b0b0; stroke-width: 0.8; stroke-linecap: square"/>
     </g>
     <g id="line2d_20">
      <g>
       <use xlink:href="#md8bd2a92e3" x="57.6" y="104.629793" style="stroke: #000000; stroke-width: 0.8"/>
      </g>
     </g>
     <g id="text_11">
      <!-- 7 -->
      <g transform="translate(44.2375 108.429011) scale(0.1 -0.1)">
       <defs>
        <path id="DejaVuSans-37" d="M 525 4666 
L 3525 4666 
L 3525 4397 
L 1831 0 
L 1172 0 
L 2766 4134 
L 525 4134 
L 525 4666 
z
" transform="scale(0.015625)"/>
       </defs>
       <use xlink:href="#DejaVuSans-37"/>
      </g>
     </g>
    </g>
    <g id="ytick_5">
     <g id="line2d_21">
      <path d="M 57.6 53.568 
L 414.72 53.568 
" clip-path="url(#p282f30bddd)" style="fill: none; stroke: #b0b0b0; stroke-width: 0.8; stroke-linecap: square"/>
     </g>
     <g id="line2d_22">
      <g>
       <use xlink:href="#md8bd2a92e3" x="57.6" y="53.568" style="stroke: #000000; stroke-width: 0.8"/>
      </g>
     </g>
     <g id="text_12">
      <!-- 8 -->
      <g transform="translate(44.2375 57.367219) scale(0.1 -0.1)">
       <defs>
        <path id="DejaVuSans-38" d="M 2034 2216 
Q 1584 2216 1326 1975 
Q 1069 1734 1069 1313 
Q 1069 891 1326 650 
Q 1584 409 2034 409 
Q 2484 409 2743 651 
Q 3003 894 3003 1313 
Q 3003 1734 2745 1975 
Q 2488 2216 2034 2216 
z
M 1403 2484 
Q 997 2584 770 2862 
Q 544 3141 544 3541 
Q 544 4100 942 4425 
Q 1341 4750 2034 4750 
Q 2731 4750 3128 4425 
Q 3525 4100 3525 3541 
Q 3525 3141 3298 2862 
Q 3072 2584 2669 2484 
Q 3125 2378 3379 2068 
Q 3634 1759 3634 1313 
Q 3634 634 3220 271 
Q 2806 -91 2034 -91 
Q 1263 -91 848 271 
Q 434 634 434 1313 
Q 434 1759 690 2068 
Q 947 2378 1403 2484 
z
M 1172 3481 
Q 1172 3119 1398 2916 
Q 1625 2713 2034 2713 
Q 2441 2713 2670 2916 
Q 2900 3119 2900 3481 
Q 2900 3844 2670 4047 
Q 2441 4250 2034 4250 
Q 1625 4250 1398 4047 
Q 1172 3844 1172 3481 
z
" transform="scale(0.015625)"/>
       </defs>
       <use xlink:href="#DejaVuSans-38"/>
      </g>
     </g>
    </g>
    <g id="text_13">
     <!-- Velocity(m/s) -->
     <g transform="translate(38.157812 207.204563) rotate(-90) scale(0.1 -0.1)">
      <defs>
       <path id="DejaVuSans-56" d="M 1831 0 
L 50 4666 
L 709 4666 
L 2188 738 
L 3669 4666 
L 4325 4666 
L 2547 0 
L 1831 0 
z
" transform="scale(0.015625)"/>
       <path id="DejaVuSans-6c" d="M 603 4863 
L 1178 4863 
L 1178 0 
L 603 0 
L 603 4863 
z
" transform="scale(0.015625)"/>
       <path id="DejaVuSans-6f" d="M 1959 3097 
Q 1497 3097 1228 2736 
Q 959 2375 959 1747 
Q 959 1119 1226 758 
Q 1494 397 1959 397 
Q 2419 397 2687 759 
Q 2956 1122 2956 1747 
Q 2956 2369 2687 2733 
Q 2419 3097 1959 3097 
z
M 1959 3584 
Q 2709 3584 3137 3096 
Q 3566 2609 3566 1747 
Q 3566 888 3137 398 
Q 2709 -91 1959 -91 
Q 1206 -91 779 398 
Q 353 888 353 1747 
Q 353 2609 779 3096 
Q 1206 3584 1959 3584 
z
" transform="scale(0.015625)"/>
       <path id="DejaVuSans-63" d="M 3122 3366 
L 3122 2828 
Q 2878 2963 2633 3030 
Q 2388 3097 2138 3097 
Q 1578 3097 1268 2742 
Q 959 2388 959 1747 
Q 959 1106 1268 751 
Q 1578 397 2138 397 
Q 2388 397 2633 464 
Q 2878 531 3122 666 
L 3122 134 
Q 2881 22 2623 -34 
Q 2366 -91 2075 -91 
Q 1284 -91 818 406 
Q 353 903 353 1747 
Q 353 2603 823 3093 
Q 1294 3584 2113 3584 
Q 2378 3584 2631 3529 
Q 2884 3475 3122 3366 
z
" transform="scale(0.015625)"/>
       <path id="DejaVuSans-74" d="M 1172 4494 
L 1172 3500 
L 2356 3500 
L 2356 3053 
L 1172 3053 
L 1172 1153 
Q 1172 725 1289 603 
Q 1406 481 1766 481 
L 2356 481 
L 2356 0 
L 1766 0 
Q 1100 0 847 248 
Q 594 497 594 1153 
L 594 3053 
L 172 3053 
L 172 3500 
L 594 3500 
L 594 4494 
L 1172 4494 
z
" transform="scale(0.015625)"/>
       <path id="DejaVuSans-79" d="M 2059 -325 
Q 1816 -950 1584 -1140 
Q 1353 -1331 966 -1331 
L 506 -1331 
L 506 -850 
L 844 -850 
Q 1081 -850 1212 -737 
Q 1344 -625 1503 -206 
L 1606 56 
L 191 3500 
L 800 3500 
L 1894 763 
L 2988 3500 
L 3597 3500 
L 2059 -325 
z
" transform="scale(0.015625)"/>
       <path id="DejaVuSans-2f" d="M 1625 4666 
L 2156 4666 
L 531 -594 
L 0 -594 
L 1625 4666 
z
" transform="scale(0.015625)"/>
      </defs>
      <use xlink:href="#DejaVuSans-56"/>
      <use xlink:href="#DejaVuSans-65" x="60.658203"/>
      <use xlink:href="#DejaVuSans-6c" x="122.181641"/>
      <use xlink:href="#DejaVuSans-6f" x="149.964844"/>
      <use xlink:href="#DejaVuSans-63" x="211.146484"/>
      <use xlink:href="#DejaVuSans-69" x="266.126953"/>
      <use xlink:href="#DejaVuSans-74" x="293.910156"/>
      <use xlink:href="#DejaVuSans-79" x="333.119141"/>
      <use xlink:href="#DejaVuSans-28" x="392.298828"/>
      <use xlink:href="#DejaVuSans-6d" x="431.3125"/>
      <use xlink:href="#DejaVuSans-2f" x="528.724609"/>
      <use xlink:href="#DejaVuSans-73" x="562.416016"/>
      <use xlink:href="#DejaVuSans-29" x="614.515625"/>
     </g>
    </g>
   </g>
   <g id="line2d_23">
    <path d="M 73.832727 54.062738 
L 75.69188 53.794919 
L 75.69188 53.794919 
L 78.713003 53.631929 
L 78.713003 53.631929 
L 85.220038 53.572187 
L 85.220038 53.572187 
L 87.543979 53.574383 
L 87.543979 53.574383 
L 87.776373 54.513205 
L 87.776373 54.513205 
L 88.938343 64.442936 
L 88.938343 64.442936 
L 89.403131 69.502956 
L 89.403131 69.502956 
L 89.86792 74.182565 
L 89.86792 74.182565 
L 90.332708 79.194995 
L 90.332708 79.194995 
L 90.797496 84.026972 
L 90.797496 84.026972 
L 91.262284 89.263359 
L 91.262284 89.263359 
L 93.818619 113.928043 
L 93.818619 113.928043 
L 94.748195 121.212467 
L 94.748195 121.212467 
L 95.212984 124.083978 
L 95.212984 124.083978 
L 96.14256 128.381186 
L 96.14256 128.381186 
L 96.607348 129.87413 
L 96.607348 129.87413 
L 97.30453 131.295333 
L 97.30453 131.295333 
L 98.001713 132.060749 
L 98.001713 132.060749 
L 98.931289 132.341896 
L 98.931289 132.341896 
L 99.396077 132.406387 
L 99.396077 132.406387 
L 100.558048 132.236198 
L 100.558048 132.236198 
L 101.25523 131.877131 
L 101.25523 131.877131 
L 101.952412 131.011225 
L 101.952412 131.011225 
L 102.649595 129.370406 
L 102.649595 129.370406 
L 103.579171 125.379978 
L 103.579171 125.379978 
L 104.043959 122.899038 
L 104.043959 122.899038 
L 104.508747 119.984023 
L 104.508747 119.984023 
L 105.438324 111.867342 
L 105.438324 111.867342 
L 107.297476 86.893581 
L 107.297476 86.893581 
L 107.994659 78.446888 
L 107.994659 78.446888 
L 108.691841 72.141063 
L 108.691841 72.141063 
L 109.389023 67.433575 
L 109.389023 67.433575 
L 110.086206 63.919196 
L 110.086206 63.919196 
L 110.783388 61.29559 
L 110.783388 61.29559 
L 111.48057 59.336961 
L 111.48057 59.336961 
L 112.177752 57.874756 
L 112.177752 57.874756 
L 113.107329 56.48465 
L 113.107329 56.48465 
L 114.036905 55.543274 
L 114.036905 55.543274 
L 114.966481 54.905717 
L 114.966481 54.905717 
L 116.128452 54.38984 
L 116.128452 54.38984 
L 117.522816 54.026024 
L 117.522816 54.026024 
L 119.381969 53.778068 
L 119.381969 53.778068 
L 122.403092 53.627181 
L 122.403092 53.627181 
L 129.374915 53.571166 
L 129.374915 53.571166 
L 131.466462 53.573821 
L 131.466462 53.573821 
L 131.698856 55.375485 
L 131.698856 55.375485 
L 132.163644 62.254479 
L 132.163644 62.254479 
L 132.628432 71.109002 
L 132.628432 71.109002 
L 133.093221 81.692274 
L 133.093221 81.692274 
L 133.558009 91.79102 
L 133.558009 91.79102 
L 134.022797 102.471002 
L 134.022797 102.471002 
L 136.114344 139.977217 
L 136.114344 139.977217 
L 137.741102 161.853825 
L 137.741102 161.853825 
L 138.205891 165.93499 
L 138.205891 165.93499 
L 138.438285 168.877834 
L 138.438285 168.877834 
L 139.135467 174.074444 
L 139.135467 174.074444 
L 139.600255 177.270963 
L 139.600255 177.270963 
L 140.99462 185.488797 
L 140.99462 185.488797 
L 142.15659 190.585274 
L 142.15659 190.585274 
L 143.318561 195.384164 
L 143.318561 195.384164 
L 144.015743 197.476523 
L 144.015743 197.476523 
L 144.480531 198.748881 
L 144.480531 198.748881 
L 145.410107 200.682948 
L 145.410107 200.682948 
L 146.339684 201.650978 
L 146.339684 201.650978 
L 146.572078 201.752539 
L 146.572078 201.752539 
L 147.036866 202.117887 
L 147.036866 202.117887 
L 147.734048 202.41956 
L 147.734048 202.41956 
L 148.431231 202.498705 
L 148.431231 202.498705 
L 149.128413 202.478996 
L 149.128413 202.478996 
L 149.825595 202.3109 
L 149.825595 202.3109 
L 150.057989 202.281591 
L 150.057989 202.281591 
L 151.452354 201.246823 
L 151.452354 201.246823 
L 152.38193 199.514399 
L 152.38193 199.514399 
L 153.311506 196.296689 
L 153.311506 196.296689 
L 154.241083 191.025325 
L 154.241083 191.025325 
L 155.170659 183.062545 
L 155.170659 183.062545 
L 155.867841 174.917014 
L 155.867841 174.917014 
L 156.565024 165.868405 
L 156.565024 165.868405 
L 157.029812 162.229946 
L 157.029812 162.229946 
L 157.4946 160.247063 
L 157.4946 160.247063 
L 157.959388 159.761925 
L 157.959388 159.761925 
L 158.191782 159.92997 
L 158.191782 159.92997 
L 158.424176 160.334532 
L 158.424176 160.334532 
L 158.656571 161.178686 
L 158.656571 161.178686 
L 159.121359 163.259709 
L 159.121359 163.259709 
L 159.586147 164.944084 
L 159.586147 164.944084 
L 160.283329 166.804317 
L 160.283329 166.804317 
L 160.980511 167.701217 
L 160.980511 167.701217 
L 161.212906 167.769844 
L 161.212906 167.769844 
L 161.4453 167.979555 
L 161.4453 167.979555 
L 161.677694 167.976389 
L 161.677694 167.976389 
L 162.142482 168.186713 
L 162.142482 168.186713 
L 163.072058 168.104963 
L 163.072058 168.104963 
L 164.234029 167.703055 
L 164.234029 167.703055 
L 165.395999 166.111561 
L 165.395999 166.111561 
L 166.790364 161.49195 
L 166.790364 161.49195 
L 167.255152 159.048337 
L 167.255152 159.048337 
L 167.952334 154.867652 
L 167.952334 154.867652 
L 168.649516 149.37948 
L 168.649516 149.37948 
L 169.811487 137.899665 
L 169.811487 137.899665 
L 170.508669 129.114076 
L 170.508669 129.114076 
L 171.67064 113.982832 
L 171.67064 113.982832 
L 171.903034 112.14711 
L 171.903034 112.14711 
L 172.135428 111.221513 
L 172.135428 111.221513 
L 172.367822 112.253114 
L 172.367822 112.253114 
L 172.600216 112.437039 
L 172.83261 115.129731 
L 172.83261 115.129731 
L 173.297398 124.789806 
L 173.297398 124.789806 
L 173.529792 129.543301 
L 173.529792 129.543301 
L 173.994581 141.198717 
L 173.994581 141.198717 
L 175.621339 177.45259 
L 175.621339 177.45259 
L 175.853733 181.744384 
L 175.853733 181.744384 
L 176.318522 191.852066 
L 176.318522 191.852066 
L 176.78331 200.383522 
L 176.78331 200.383522 
L 177.480492 212.594184 
L 177.480492 212.594184 
L 177.712886 215.350295 
L 177.712886 215.350295 
L 178.410068 226.191786 
L 178.410068 226.191786 
L 178.642462 228.348585 
L 178.642462 228.348585 
L 178.874857 232.358518 
L 178.874857 232.358518 
L 179.339645 236.187132 
L 179.339645 236.187132 
L 180.501615 248.386458 
L 180.501615 248.386458 
L 181.431192 254.796398 
L 181.431192 254.796398 
L 182.128374 259.953026 
L 182.128374 259.953026 
L 183.05795 263.954586 
L 183.05795 263.954586 
L 183.522738 265.859344 
L 183.522738 265.859344 
L 184.684709 268.683112 
L 184.684709 268.683112 
L 185.381891 269.507402 
L 185.381891 269.507402 
L 186.079073 270.014089 
L 186.079073 270.014089 
L 187.938226 270.157368 
L 187.938226 270.157368 
L 188.867802 270.001068 
L 188.867802 270.001068 
L 189.332591 269.831594 
L 189.332591 269.831594 
L 190.029773 269.091555 
L 190.029773 269.091555 
L 190.494561 268.542386 
L 190.494561 268.542386 
L 191.191743 266.923471 
L 191.191743 266.923471 
L 191.656532 265.745578 
L 191.656532 265.745578 
L 192.353714 262.815448 
L 192.353714 262.815448 
L 192.818502 260.722476 
L 192.818502 260.722476 
L 193.515684 256.028723 
L 193.515684 256.028723 
L 193.748078 254.388618 
L 193.748078 254.388618 
L 194.910049 242.625462 
L 194.910049 242.625462 
L 195.374837 238.661944 
L 195.374837 238.661944 
L 195.607231 238.286435 
L 195.607231 238.286435 
L 195.839625 237.491556 
L 195.839625 237.491556 
L 196.072019 237.180488 
L 196.072019 237.180488 
L 196.536807 240.733674 
L 196.536807 240.733674 
L 196.769202 245.333167 
L 196.769202 245.333167 
L 197.001596 247.602047 
L 197.001596 247.602047 
L 197.23399 253.116261 
L 197.23399 253.116261 
L 197.698778 257.858012 
L 197.698778 257.858012 
L 198.39596 268.356521 
L 198.39596 268.356521 
L 198.860748 272.140659 
L 198.860748 272.140659 
L 199.325537 276.810924 
L 199.325537 276.810924 
L 200.022719 282.254928 
L 200.022719 282.254928 
L 200.487507 285.779775 
L 200.487507 285.779775 
L 200.719901 286.773846 
L 201.184689 289.09251 
L 201.184689 289.09251 
L 202.34666 292.903916 
L 202.34666 292.903916 
L 203.276236 294.424383 
L 203.276236 294.424383 
L 203.973418 295.065617 
L 203.973418 295.065617 
L 204.902995 295.281302 
L 204.902995 295.281302 
L 205.367783 295.332108 
L 205.367783 295.332108 
L 206.064965 295.240452 
L 206.064965 295.240452 
L 207.226936 294.65891 
L 207.226936 294.65891 
L 208.156512 293.462379 
L 208.156512 293.462379 
L 208.388906 293.075841 
L 208.388906 293.075841 
L 208.853694 291.896824 
L 208.853694 291.896824 
L 209.086088 291.391568 
L 209.086088 291.391568 
L 210.712847 284.651207 
L 210.712847 284.651207 
L 211.177635 282.278416 
L 211.177635 282.278416 
L 212.339606 273.275507 
L 212.339606 273.275507 
L 213.73397 255.764121 
L 213.73397 255.764121 
L 214.198758 251.370968 
L 214.198758 251.370968 
L 214.663547 249.507673 
L 214.663547 249.507673 
L 214.895941 249.971365 
L 214.895941 249.971365 
L 215.128335 249.784172 
L 215.360729 249.881292 
L 215.360729 249.881292 
L 216.755093 260.931421 
L 216.755093 260.931421 
L 216.987487 262.369832 
L 216.987487 262.369832 
L 217.452276 265.915716 
L 217.452276 265.915716 
L 219.079034 273.857101 
L 219.079034 273.857101 
L 220.008611 276.372814 
L 220.008611 276.372814 
L 220.705793 277.588135 
L 220.705793 277.588135 
L 221.402975 278.26256 
L 221.402975 278.26256 
L 222.100157 278.67279 
L 222.100157 278.67279 
L 222.79734 278.765416 
L 222.79734 278.765416 
L 225.121281 278.56076 
L 225.121281 278.56076 
L 225.818463 278.085784 
L 225.818463 278.085784 
L 226.283251 277.745661 
L 226.283251 277.745661 
L 227.445222 276.174898 
L 227.445222 276.174898 
L 229.07198 271.708983 
L 229.07198 271.708983 
L 229.769162 269.094976 
L 229.769162 269.094976 
L 232.093103 256.562421 
L 232.093103 256.562421 
L 234.417044 238.451212 
L 234.417044 238.451212 
L 235.579015 227.203473 
L 235.579015 227.203473 
L 236.276197 219.481551 
L 236.276197 219.481551 
L 239.064926 180.224683 
L 239.064926 180.224683 
L 242.783232 117.684046 
L 242.783232 117.684046 
L 243.945202 97.568355 
L 243.945202 97.568355 
L 244.874778 83.614903 
L 244.874778 83.614903 
L 245.571961 75.99919 
L 245.571961 75.99919 
L 246.269143 70.313766 
L 246.269143 70.313766 
L 246.966325 66.069408 
L 246.966325 66.069408 
L 247.663508 62.900819 
L 247.663508 62.900819 
L 248.36069 60.535331 
L 248.36069 60.535331 
L 249.057872 58.769358 
L 249.057872 58.769358 
L 249.987448 57.090549 
L 249.987448 57.090549 
L 250.917025 55.953556 
L 250.917025 55.953556 
L 251.846601 55.183595 
L 251.846601 55.183595 
L 253.008572 54.560539 
L 253.008572 54.560539 
L 254.402936 54.121152 
L 254.402936 54.121152 
L 256.262089 53.821726 
L 256.262089 53.821726 
L 259.050818 53.646788 
L 259.050818 53.646788 
L 264.86067 53.574893 
L 264.86067 53.574893 
L 282.987409 53.568 
L 282.987409 53.568 
L 283.219803 54.578666 
L 283.219803 54.578666 
L 283.452198 57.128692 
L 283.452198 57.128692 
L 284.846562 83.666323 
L 284.846562 83.666323 
L 286.008533 97.721081 
L 286.008533 97.721081 
L 286.705715 102.783654 
L 286.705715 102.783654 
L 287.170503 104.683101 
L 287.170503 104.683101 
L 287.867685 105.912925 
L 287.867685 105.912925 
L 288.564868 106.38545 
L 288.564868 106.38545 
L 289.029656 106.24018 
L 289.029656 106.24018 
L 289.494444 106.018163 
L 289.494444 106.018163 
L 290.191626 104.864881 
L 290.191626 104.864881 
L 290.888808 102.650689 
L 290.888808 102.650689 
L 291.818385 97.436871 
L 291.818385 97.436871 
L 293.212749 84.302195 
L 293.212749 84.302195 
L 293.909932 76.546317 
L 293.909932 76.546317 
L 294.607114 70.72226 
L 294.607114 70.72226 
L 295.304296 66.374349 
L 295.304296 66.374349 
L 296.001478 63.128453 
L 296.001478 63.128453 
L 296.466267 61.459651 
L 296.466267 61.459651 
L 296.931055 60.717315 
L 296.931055 60.717315 
L 297.163449 60.691631 
L 297.163449 60.691631 
L 297.395843 61.951989 
L 297.395843 61.951989 
L 298.325419 71.136627 
L 298.325419 71.136627 
L 301.578937 109.406317 
L 301.578937 109.406317 
L 302.508513 120.706292 
L 302.508513 120.706292 
L 302.973301 126.97571 
L 302.973301 126.97571 
L 303.902878 138.508577 
L 303.902878 138.508577 
L 304.367666 144.504355 
L 304.367666 144.504355 
L 305.994424 162.056285 
L 305.994424 162.056285 
L 307.853577 174.268427 
L 307.853577 174.268427 
L 308.550759 177.381665 
L 308.550759 177.381665 
L 309.71273 180.690622 
L 309.71273 180.690622 
L 310.177518 181.596765 
L 310.177518 181.596765 
L 310.642306 181.992902 
L 310.642306 181.992902 
L 310.8747 182.03079 
L 310.8747 182.03079 
L 311.107094 182.246832 
L 311.107094 182.246832 
L 311.804277 182.230288 
L 311.804277 182.230288 
L 312.269065 182.327306 
L 312.269065 182.327306 
L 313.198641 182.208434 
L 313.198641 182.208434 
L 314.593006 181.034064 
L 314.593006 181.034064 
L 315.290188 179.715393 
L 315.290188 179.715393 
L 316.684553 174.261585 
L 316.684553 174.261585 
L 317.381735 170.472545 
L 317.381735 170.472545 
L 319.008494 157.016843 
L 319.008494 157.016843 
L 320.867646 133.976792 
L 320.867646 133.976792 
L 324.121164 81.075141 
L 324.121164 81.075141 
L 324.818346 74.103164 
L 324.818346 74.103164 
L 325.515528 68.898333 
L 325.515528 68.898333 
L 326.21271 65.012684 
L 326.21271 65.012684 
L 326.909893 62.111914 
L 326.909893 62.111914 
L 327.607075 59.946384 
L 327.607075 59.946384 
L 328.304257 58.329716 
L 328.304257 58.329716 
L 329.233834 56.792808 
L 329.233834 56.792808 
L 330.16341 55.751913 
L 330.16341 55.751913 
L 331.092986 55.047005 
L 331.092986 55.047005 
L 331.32538 54.976488 
L 331.32538 54.976488 
L 332.022563 58.612292 
L 332.022563 58.612292 
L 332.254957 60.942395 
L 332.254957 60.942395 
L 333.184533 76.405897 
L 333.184533 76.405897 
L 334.114109 97.697184 
L 334.114109 97.697184 
L 334.811292 114.007291 
L 334.811292 114.007291 
L 335.973262 133.165931 
L 335.973262 133.165931 
L 337.135233 143.859241 
L 337.135233 143.859241 
L 338.064809 148.547581 
L 338.064809 148.547581 
L 338.761991 150.488082 
L 338.761991 150.488082 
L 339.226779 151.211577 
L 339.226779 151.211577 
L 339.691568 151.525199 
L 339.691568 151.525199 
L 340.38875 151.872878 
L 340.38875 151.872878 
L 341.783114 151.776525 
L 341.783114 151.776525 
L 342.480297 151.510799 
L 342.480297 151.510799 
L 343.642267 150.254883 
L 343.642267 150.254883 
L 344.804238 147.698781 
L 344.804238 147.698781 
L 345.50142 145.540654 
L 345.50142 145.540654 
L 345.966208 144.615159 
L 345.966208 144.615159 
L 346.430996 144.659787 
L 346.430996 144.659787 
L 346.66339 145.639101 
L 346.66339 145.639101 
L 346.895784 148.233602 
L 346.895784 148.233602 
L 347.128179 149.561566 
L 347.128179 149.561566 
L 347.825361 157.147306 
L 347.825361 157.147306 
L 348.057755 162.850704 
L 348.057755 162.850704 
L 348.290149 165.774502 
L 348.290149 165.774502 
L 350.61409 219.221545 
L 350.61409 219.221545 
L 350.846484 222.027186 
L 350.846484 222.027186 
L 351.078878 227.761527 
L 351.078878 227.761527 
L 351.543666 232.900693 
L 351.543666 232.900693 
L 352.705637 249.075945 
L 352.705637 249.075945 
L 353.170425 253.138013 
L 353.170425 253.138013 
L 354.100001 262.130607 
L 354.100001 262.130607 
L 356.191548 276.798771 
L 356.191548 276.798771 
L 357.353519 281.120897 
L 357.353519 281.120897 
L 358.283095 282.897183 
L 358.283095 282.897183 
L 358.980277 283.518452 
L 358.980277 283.518452 
L 359.445065 283.738784 
L 359.445065 283.738784 
L 361.769006 283.62129 
L 361.769006 283.62129 
L 362.930977 282.733683 
L 362.930977 282.733683 
L 364.092947 280.488139 
L 364.092947 280.488139 
L 365.487312 275.419388 
L 365.487312 275.419388 
L 366.416888 270.912725 
L 366.416888 270.912725 
L 368.740829 254.795734 
L 368.740829 254.795734 
L 372.22674 219.73635 
L 372.22674 219.73635 
L 373.621105 206.143343 
L 373.621105 206.143343 
L 374.085893 203.616857 
L 374.085893 203.616857 
L 374.550681 201.928345 
L 374.550681 201.928345 
L 375.01547 200.794978 
L 375.01547 200.794978 
L 375.480258 200.050139 
L 375.480258 200.050139 
L 376.17744 199.371273 
L 376.17744 199.371273 
L 376.874622 198.900892 
L 376.874622 198.900892 
L 378.036593 198.435412 
L 378.036593 198.435412 
L 378.733775 198.17035 
L 378.733775 198.17035 
L 379.198563 197.844883 
L 379.198563 197.844883 
L 380.12814 196.065583 
L 380.12814 196.065583 
L 381.057716 192.834291 
L 381.057716 192.834291 
L 382.219686 186.109861 
L 382.219686 186.109861 
L 382.916869 180.710792 
L 382.916869 180.710792 
L 383.381657 175.696779 
L 383.381657 175.696779 
L 384.078839 167.571009 
L 384.078839 167.571009 
L 385.24081 150.132386 
L 385.24081 150.132386 
L 386.867568 118.876492 
L 386.867568 118.876492 
L 388.261933 91.470607 
L 388.261933 91.470607 
L 388.959115 81.863841 
L 388.959115 81.863841 
L 389.656297 74.691957 
L 389.656297 74.691957 
L 390.35348 69.337873 
L 390.35348 69.337873 
L 391.050662 65.340858 
L 391.050662 65.340858 
L 391.747844 62.356909 
L 391.747844 62.356909 
L 392.445026 60.129287 
L 392.445026 60.129287 
L 393.142209 58.466256 
L 393.142209 58.466256 
L 394.071785 56.885229 
L 394.071785 56.885229 
L 395.001361 55.814566 
L 395.001361 55.814566 
L 395.930938 55.089437 
L 395.930938 55.089437 
L 397.092908 54.507588 
L 397.092908 54.507588 
L 398.487273 54.113493 
L 398.487273 54.113493 
" clip-path="url(#p282f30bddd)" style="fill: none; stroke: #1f77b4; stroke-width: 1.5; stroke-linecap: square"/>
   </g>
   <g id="line2d_24">
    <path d="M 73.832727 53.568 
L 87.311585 53.583267 
L 87.311585 53.583267 
L 88.938343 73.095459 
L 88.938343 73.095459 
L 89.170737 73.468619 
L 89.403131 75.701143 
L 89.403131 75.701143 
L 89.86792 82.693085 
L 89.86792 82.693085 
L 90.100314 83.163058 
L 90.100314 83.163058 
L 90.565102 88.929313 
L 90.565102 88.929313 
L 90.797496 93.019209 
L 90.797496 93.019209 
L 91.02989 93.342124 
L 91.02989 93.342124 
L 91.494678 99.309409 
L 91.494678 99.309409 
L 91.727072 102.817661 
L 91.727072 102.817661 
L 91.959466 102.743468 
L 91.959466 102.743468 
L 93.121437 114.815191 
L 93.121437 114.815191 
L 93.353831 115.467709 
L 93.353831 115.467709 
L 94.051013 122.47783 
L 94.051013 122.47783 
L 94.283407 122.404811 
L 94.283407 122.404811 
L 94.748195 126.199877 
L 94.748195 126.199877 
L 94.98059 126.283874 
L 94.98059 126.283874 
L 95.445378 129.267925 
L 95.445378 129.267925 
L 95.677772 129.122297 
L 96.14256 131.03742 
L 96.14256 131.03742 
L 96.374954 130.976503 
L 96.374954 130.976503 
L 96.839742 131.861506 
L 96.839742 131.861506 
L 97.30453 132.19208 
L 97.30453 132.19208 
L 97.536925 132.42768 
L 97.536925 132.42768 
L 98.001713 132.346134 
L 98.001713 132.346134 
L 98.234107 132.547624 
L 98.234107 132.547624 
L 98.698895 132.329386 
L 98.698895 132.329386 
L 98.931289 132.530161 
L 98.931289 132.530161 
L 99.396077 132.179826 
L 99.396077 132.179826 
L 99.628471 132.402608 
L 99.628471 132.402608 
L 99.860865 132.100322 
L 99.860865 132.100322 
L 100.09326 131.452757 
L 100.09326 131.452757 
L 100.325654 131.811415 
L 100.325654 131.811415 
L 100.558048 131.050543 
L 100.558048 131.050543 
L 100.790442 131.099103 
L 100.790442 131.099103 
L 101.022836 130.375915 
L 101.022836 130.375915 
L 101.25523 128.811483 
L 101.25523 128.811483 
L 101.487624 128.913505 
L 101.487624 128.913505 
L 101.720018 127.761398 
L 101.720018 127.761398 
L 101.952412 125.054408 
L 101.952412 125.054408 
L 102.184806 125.386871 
L 102.184806 125.386871 
L 102.4172 123.341642 
L 102.4172 123.341642 
L 102.649595 119.57175 
L 102.649595 119.57175 
L 102.881989 120.313831 
L 102.881989 120.313831 
L 103.114383 117.309406 
L 103.114383 117.309406 
L 103.346777 112.097376 
L 103.346777 112.097376 
L 103.579171 113.534867 
L 103.579171 113.534867 
L 103.811565 109.40259 
L 103.811565 109.40259 
L 104.043959 108.146163 
L 104.043959 108.146163 
L 104.276353 104.883723 
L 104.276353 104.883723 
L 104.508747 99.811142 
L 104.508747 99.811142 
L 104.741141 98.042464 
L 104.741141 98.042464 
L 104.973535 94.582874 
L 104.973535 94.582874 
L 105.20593 88.715721 
L 105.20593 88.715721 
L 105.438324 80.017192 
L 105.438324 80.017192 
L 105.670718 82.284131 
L 105.670718 82.284131 
L 105.903112 76.184545 
L 105.903112 76.184545 
L 106.135506 66.898192 
L 106.135506 66.898192 
L 106.3679 67.789884 
L 106.3679 67.789884 
L 106.600294 62.694376 
L 106.600294 62.694376 
L 106.832688 53.953363 
L 106.832688 53.953363 
L 107.297476 53.568 
L 107.297476 53.568 
L 131.234068 53.582093 
L 131.234068 53.582093 
L 131.466462 58.807859 
L 131.466462 58.807859 
L 131.698856 68.169835 
L 131.698856 68.169835 
L 131.93125 66.96927 
L 131.93125 66.96927 
L 132.396038 80.753656 
L 132.396038 80.753656 
L 132.628432 89.427267 
L 132.628432 89.427267 
L 132.860826 89.841634 
L 132.860826 89.841634 
L 133.325615 102.05444 
L 133.325615 102.05444 
L 133.558009 110.647936 
L 133.558009 110.647936 
L 133.790403 110.451399 
L 133.790403 110.451399 
L 134.022797 114.994877 
L 134.022797 114.994877 
L 134.255191 122.533998 
L 134.255191 122.533998 
L 134.487585 123.480836 
L 134.487585 123.480836 
L 135.649556 144.986174 
L 135.649556 144.986174 
L 135.88195 146.397522 
L 135.88195 146.397522 
L 136.114344 149.195147 
L 136.114344 149.195147 
L 136.346738 155.127761 
L 136.346738 155.127761 
L 136.579132 155.168815 
L 136.579132 155.168815 
L 136.811526 158.75514 
L 136.811526 158.75514 
L 137.04392 164.1778 
L 137.04392 164.1778 
L 137.276314 163.348863 
L 137.276314 163.348863 
L 137.508708 167.121155 
L 137.508708 167.121155 
L 137.741102 167.480885 
L 137.741102 167.480885 
L 137.973496 170.019933 
L 137.973496 170.019933 
L 138.205891 174.484163 
L 138.205891 174.484163 
L 138.438285 173.299734 
L 138.438285 173.299734 
L 138.670679 176.953869 
L 138.903073 176.776838 
L 138.903073 176.776838 
L 139.135467 179.479845 
L 139.135467 179.479845 
L 139.367861 179.815832 
L 139.367861 179.815832 
L 140.297437 186.392131 
L 140.297437 186.392131 
L 140.529831 186.142132 
L 140.529831 186.142132 
L 140.762226 188.097799 
L 140.762226 188.097799 
L 140.99462 188.221266 
L 140.99462 188.221266 
L 141.227014 190.034624 
L 141.227014 190.034624 
L 141.459408 190.447152 
L 141.459408 190.447152 
L 142.388984 195.33443 
L 142.388984 195.33443 
L 142.621378 195.305529 
L 142.621378 195.305529 
L 142.853772 196.65259 
L 142.853772 196.65259 
L 143.086166 196.610311 
L 143.086166 196.610311 
L 143.318561 197.717586 
L 143.318561 197.717586 
L 143.550955 197.89431 
L 143.550955 197.89431 
L 143.783349 198.813167 
L 143.783349 198.813167 
L 144.015743 198.940005 
L 144.015743 198.940005 
L 144.248137 200.213129 
L 144.248137 200.213129 
L 144.480531 200.250302 
L 144.480531 200.250302 
L 144.712925 200.773889 
L 144.712925 200.773889 
L 144.945319 200.982783 
L 144.945319 200.982783 
L 145.177713 201.608239 
L 145.177713 201.608239 
L 145.410107 201.438816 
L 145.410107 201.438816 
L 145.874896 201.91946 
L 145.874896 201.91946 
L 146.10729 202.015916 
L 146.10729 202.015916 
L 146.339684 201.946013 
L 146.339684 201.946013 
L 146.572078 202.451626 
L 146.572078 202.451626 
L 146.804472 202.355375 
L 146.804472 202.355375 
L 147.26926 202.601238 
L 147.26926 202.601238 
L 147.734048 202.314015 
L 147.734048 202.314015 
L 148.198836 202.599042 
L 148.198836 202.599042 
L 148.431231 202.511062 
L 148.431231 202.511062 
L 148.663625 202.271429 
L 148.663625 202.271429 
L 148.896019 202.455099 
L 148.896019 202.455099 
L 149.128413 201.629021 
L 149.128413 201.629021 
L 149.360807 202.300432 
L 149.360807 202.300432 
L 149.593201 201.529757 
L 149.593201 201.529757 
L 149.825595 201.99493 
L 149.825595 201.99493 
L 150.057989 200.588177 
L 150.057989 200.588177 
L 150.290383 201.474202 
L 150.290383 201.474202 
L 150.522777 199.927182 
L 150.522777 199.927182 
L 150.755171 200.65946 
L 150.755171 200.65946 
L 150.987566 198.265887 
L 150.987566 198.265887 
L 151.21996 199.458588 
L 151.21996 199.458588 
L 151.452354 196.728212 
L 151.452354 196.728212 
L 151.684748 197.779319 
L 151.684748 197.779319 
L 151.917142 193.957701 
L 151.917142 193.957701 
L 152.149536 195.425371 
L 152.149536 195.425371 
L 152.38193 191.234576 
L 152.38193 191.234576 
L 152.614324 192.424724 
L 152.614324 192.424724 
L 152.846718 187.070232 
L 152.846718 187.070232 
L 153.079112 188.160094 
L 153.079112 188.160094 
L 153.311506 182.846298 
L 153.311506 182.846298 
L 153.543901 183.741258 
L 153.543901 183.741258 
L 153.776295 176.955605 
L 153.776295 176.955605 
L 154.008689 177.436046 
L 154.008689 177.436046 
L 154.241083 170.956968 
L 154.241083 170.956968 
L 154.473477 170.694408 
L 154.473477 170.694408 
L 154.705871 163.492398 
L 154.705871 163.492398 
L 154.938265 161.945328 
L 154.938265 161.945328 
L 155.403053 151.882018 
L 155.403053 151.882018 
L 155.635447 146.285237 
L 155.635447 146.285237 
L 155.867841 137.893181 
L 155.867841 137.893181 
L 156.100236 137.275333 
L 156.100236 137.275333 
L 156.33263 142.066972 
L 156.33263 142.066972 
L 156.565024 142.587036 
L 156.565024 142.587036 
L 156.797418 147.797126 
L 156.797418 147.797126 
L 157.029812 149.352111 
L 157.029812 149.352111 
L 157.262206 152.55394 
L 157.4946 157.614113 
L 157.4946 157.614113 
L 157.726994 157.41007 
L 157.726994 157.41007 
L 157.959388 160.250076 
L 157.959388 160.250076 
L 158.191782 161.105259 
L 158.191782 161.105259 
L 158.656571 164.887865 
L 158.656571 164.887865 
L 158.888965 164.791818 
L 158.888965 164.791818 
L 159.121359 165.974409 
L 159.121359 165.974409 
L 159.586147 166.819073 
L 159.586147 166.819073 
L 160.050935 167.869261 
L 160.050935 167.869261 
L 160.283329 167.792771 
L 160.283329 167.792771 
L 160.748117 168.206984 
L 160.748117 168.206984 
L 160.980511 167.900613 
L 160.980511 167.900613 
L 161.212906 168.379011 
L 161.212906 168.379011 
L 161.4453 167.945343 
L 161.4453 167.945343 
L 161.677694 168.424303 
L 161.677694 168.424303 
L 162.374876 168.027247 
L 162.374876 168.027247 
L 162.60727 167.684162 
L 162.60727 167.684162 
L 162.839664 167.910928 
L 162.839664 167.910928 
L 163.072058 167.442283 
L 163.072058 167.442283 
L 163.304452 167.582549 
L 163.304452 167.582549 
L 163.536846 167.039303 
L 163.536846 167.039303 
L 163.769241 166.940243 
L 163.769241 166.940243 
L 164.001635 166.548242 
L 164.001635 166.548242 
L 164.234029 164.624438 
L 164.234029 164.624438 
L 164.466423 165.01889 
L 164.466423 165.01889 
L 164.698817 163.629141 
L 164.698817 163.629141 
L 164.931211 163.223762 
L 164.931211 163.223762 
L 165.163605 162.065067 
L 165.163605 162.065067 
L 165.395999 158.273576 
L 165.628393 159.683137 
L 165.628393 159.683137 
L 165.860787 155.94618 
L 165.860787 155.94618 
L 166.093181 156.229777 
L 166.093181 156.229777 
L 166.325576 153.66433 
L 166.325576 153.66433 
L 166.55797 152.533567 
L 166.55797 152.533567 
L 166.790364 150.731698 
L 166.790364 150.731698 
L 167.022758 144.932662 
L 167.022758 144.932662 
L 167.255152 145.762007 
L 167.255152 145.762007 
L 167.487546 141.735121 
L 167.487546 141.735121 
L 167.71994 140.656338 
L 167.71994 140.656338 
L 167.952334 137.755416 
L 167.952334 137.755416 
L 168.184728 130.750044 
L 168.184728 130.750044 
L 168.417122 131.71358 
L 168.417122 131.71358 
L 168.649516 126.44482 
L 168.881911 125.316304 
L 168.881911 125.316304 
L 169.114305 121.661045 
L 169.114305 121.661045 
L 169.346699 113.90818 
L 169.346699 113.90818 
L 169.579093 114.211793 
L 169.579093 114.211793 
L 169.811487 109.072577 
L 169.811487 109.072577 
L 170.043881 99.882272 
L 170.043881 99.882272 
L 170.276275 101.477697 
L 170.276275 101.477697 
L 170.741063 85.245664 
L 170.741063 85.245664 
L 170.973457 86.700619 
L 170.973457 86.700619 
L 171.205851 86.563262 
L 171.205851 86.563262 
L 171.438246 95.886482 
L 171.438246 95.886482 
L 171.67064 94.209715 
L 171.67064 94.209715 
L 171.903034 102.177091 
L 171.903034 102.177091 
L 172.135428 114.21838 
L 172.135428 114.21838 
L 172.367822 112.787476 
L 172.367822 112.787476 
L 172.600216 120.259552 
L 172.600216 120.259552 
L 172.83261 132.762798 
L 172.83261 132.762798 
L 173.065004 131.629635 
L 173.065004 131.629635 
L 173.297398 138.599059 
L 173.297398 138.599059 
L 173.529792 151.020504 
L 173.529792 151.020504 
L 173.762187 149.319023 
L 173.762187 149.319023 
L 173.994581 157.019958 
L 173.994581 157.019958 
L 174.226975 169.672713 
L 174.226975 169.672713 
L 174.459369 165.535329 
L 174.459369 165.535329 
L 174.691763 175.729356 
L 174.691763 175.729356 
L 174.924157 175.709493 
L 174.924157 175.709493 
L 175.156551 182.983195 
L 175.156551 182.983195 
L 175.388945 185.326727 
L 175.388945 185.326727 
L 175.621339 189.920603 
L 175.621339 189.920603 
L 175.853733 200.840474 
L 175.853733 200.840474 
L 176.086127 198.58533 
L 176.086127 198.58533 
L 176.318522 207.609633 
L 176.318522 207.609633 
L 176.550916 206.303217 
L 176.550916 206.303217 
L 176.78331 214.32768 
L 176.78331 214.32768 
L 177.015704 213.559149 
L 177.015704 213.559149 
L 177.248098 221.219746 
L 177.248098 221.219746 
L 177.480492 220.600877 
L 177.480492 220.600877 
L 177.712886 227.731605 
L 177.712886 227.731605 
L 177.94528 226.784511 
L 177.94528 226.784511 
L 178.177674 234.022929 
L 178.177674 234.022929 
L 178.410068 232.457476 
L 178.410068 232.457476 
L 178.642462 239.997822 
L 178.642462 239.997822 
L 178.874857 237.65526 
L 178.874857 237.65526 
L 179.107251 240.007575 
L 179.107251 240.007575 
L 179.339645 243.578479 
L 179.339645 243.578479 
L 179.572039 244.909303 
L 179.572039 244.909303 
L 179.804433 249.006705 
L 179.804433 249.006705 
L 180.036827 249.013241 
L 180.036827 249.013241 
L 180.269221 253.876417 
L 180.269221 253.876417 
L 180.501615 252.705009 
L 180.501615 252.705009 
L 181.431192 260.4952 
L 181.431192 260.4952 
L 181.663586 260.376277 
L 181.663586 260.376277 
L 181.89598 263.666955 
L 181.89598 263.666955 
L 182.128374 262.6857 
L 182.128374 262.6857 
L 182.593162 265.386563 
L 182.593162 265.386563 
L 182.825556 265.572427 
L 182.825556 265.572427 
L 183.05795 267.383385 
L 183.05795 267.383385 
L 183.290344 267.239493 
L 183.290344 267.239493 
L 183.522738 267.68516 
L 183.522738 267.68516 
L 183.755132 268.411259 
L 183.755132 268.411259 
L 183.987527 268.605447 
L 184.219921 269.368616 
L 184.219921 269.368616 
L 185.149497 269.937394 
L 185.149497 269.937394 
L 185.381891 270.000506 
L 185.381891 270.000506 
L 185.614285 270.330365 
L 185.614285 270.330365 
L 186.079073 270.096247 
L 186.079073 270.096247 
L 186.311467 270.205162 
L 186.311467 270.205162 
L 186.543862 270.05264 
L 186.776256 270.158951 
L 186.776256 270.158951 
L 187.00865 269.982532 
L 187.00865 269.982532 
L 187.473438 270.199137 
L 187.473438 270.199137 
L 187.705832 270.196839 
L 187.705832 270.196839 
L 187.938226 270.019501 
L 187.938226 270.019501 
L 188.17062 269.47988 
L 188.17062 269.47988 
L 188.403014 269.659771 
L 188.403014 269.659771 
L 188.635408 269.585374 
L 188.635408 269.585374 
L 189.100197 268.844365 
L 189.100197 268.844365 
L 189.332591 267.649723 
L 189.332591 267.649723 
L 189.564985 267.773855 
L 189.564985 267.773855 
L 189.797379 265.522795 
L 189.797379 265.522795 
L 190.029773 266.329316 
L 190.029773 266.329316 
L 190.262167 265.6817 
L 190.262167 265.6817 
L 190.494561 263.571622 
L 190.494561 263.571622 
L 190.726955 263.551095 
L 190.726955 263.551095 
L 190.959349 259.723197 
L 190.959349 259.723197 
L 191.191743 260.921209 
L 191.191743 260.921209 
L 191.424137 259.681122 
L 191.424137 259.681122 
L 191.656532 256.467446 
L 191.656532 256.467446 
L 191.888926 256.151322 
L 192.12132 250.523036 
L 192.12132 250.523036 
L 192.353714 252.144861 
L 192.586108 249.951093 
L 192.586108 249.951093 
L 192.818502 245.70122 
L 192.818502 245.70122 
L 193.050896 244.581639 
L 193.050896 244.581639 
L 193.28329 237.168335 
L 193.28329 237.168335 
L 193.515684 238.363028 
L 193.515684 238.363028 
L 193.748078 226.887656 
L 193.748078 226.887656 
L 193.980472 230.144786 
L 193.980472 230.144786 
L 194.212867 227.571016 
L 194.212867 227.571016 
L 194.445261 218.868401 
L 194.445261 218.868401 
L 194.677655 218.698825 
L 194.677655 218.698825 
L 194.910049 220.85879 
L 194.910049 220.85879 
L 195.142443 219.678905 
L 195.142443 219.678905 
L 195.374837 234.617339 
L 195.374837 234.617339 
L 195.607231 229.724445 
L 195.607231 229.724445 
L 195.839625 234.140779 
L 195.839625 234.140779 
L 196.072019 242.873878 
L 196.072019 242.873878 
L 196.304413 243.769297 
L 196.304413 243.769297 
L 196.536807 254.095575 
L 196.536807 254.095575 
L 196.769202 251.924376 
L 196.769202 251.924376 
L 197.001596 263.621305 
L 197.001596 263.621305 
L 197.23399 259.875514 
L 197.23399 259.875514 
L 197.466384 262.458935 
L 197.466384 262.458935 
L 197.698778 268.824757 
L 197.698778 268.824757 
L 197.931172 268.376843 
L 197.931172 268.376843 
L 198.163566 276.742858 
L 198.163566 276.742858 
L 198.39596 273.913014 
L 198.39596 273.913014 
L 198.628354 275.705947 
L 198.628354 275.705947 
L 198.860748 280.766528 
L 198.860748 280.766528 
L 199.093142 280.051458 
L 199.093142 280.051458 
L 199.325537 281.704482 
L 199.325537 281.704482 
L 199.557931 284.878789 
L 199.790325 285.231065 
L 199.790325 285.231065 
L 200.022719 288.888365 
L 200.022719 288.888365 
L 200.255113 288.144957 
L 200.255113 288.144957 
L 200.487507 288.667625 
L 200.487507 288.667625 
L 200.719901 291.160054 
L 200.719901 291.160054 
L 200.952295 290.633402 
L 200.952295 290.633402 
L 201.184689 291.462339 
L 201.184689 291.462339 
L 201.417083 293.116333 
L 201.417083 293.116333 
L 201.649477 293.065322 
L 201.649477 293.065322 
L 201.881872 293.368782 
L 201.881872 293.368782 
L 202.114266 294.079205 
L 202.114266 294.079205 
L 202.34666 294.159576 
L 202.34666 294.159576 
L 202.579054 294.818784 
L 202.579054 294.818784 
L 202.811448 294.789577 
L 202.811448 294.789577 
L 203.276236 295.05183 
L 203.276236 295.05183 
L 203.50863 295.33507 
L 203.50863 295.33507 
L 203.741024 295.42019 
L 203.741024 295.42019 
L 203.973418 295.145222 
L 203.973418 295.145222 
L 204.902995 295.488 
L 204.902995 295.488 
L 205.135389 295.133274 
L 205.135389 295.133274 
L 205.367783 295.157886 
L 205.367783 295.157886 
L 205.832571 294.800351 
L 205.832571 294.800351 
L 206.064965 294.108157 
L 206.064965 294.108157 
L 206.297359 294.195371 
L 206.297359 294.195371 
L 206.529753 294.028501 
L 206.529753 294.028501 
L 206.994542 293.014158 
L 206.994542 293.014158 
L 207.226936 291.640085 
L 207.226936 291.640085 
L 207.45933 291.65234 
L 207.45933 291.65234 
L 207.691724 291.145195 
L 207.691724 291.145195 
L 207.924118 289.686206 
L 207.924118 289.686206 
L 208.156512 289.2988 
L 208.156512 289.2988 
L 208.388906 285.657839 
L 208.388906 285.657839 
L 208.6213 287.105696 
L 208.6213 287.105696 
L 208.853694 286.454301 
L 208.853694 286.454301 
L 209.086088 281.537357 
L 209.086088 281.537357 
L 209.318482 283.079167 
L 209.318482 283.079167 
L 209.550877 282.093215 
L 209.550877 282.093215 
L 209.783271 276.526203 
L 209.783271 276.526203 
L 210.015665 278.739579 
L 210.015665 278.739579 
L 210.248059 276.791622 
L 210.248059 276.791622 
L 210.480453 270.438821 
L 210.480453 270.438821 
L 210.712847 272.611551 
L 210.712847 272.611551 
L 210.945241 270.014855 
L 211.177635 263.1113 
L 211.177635 263.1113 
L 211.410029 264.317073 
L 211.410029 264.317073 
L 211.642423 261.378774 
L 211.642423 261.378774 
L 211.874817 254.459543 
L 212.107212 254.129888 
L 212.107212 254.129888 
L 212.339606 240.111435 
L 212.339606 240.111435 
L 212.572 244.621672 
L 212.572 244.621672 
L 212.804394 241.164584 
L 212.804394 241.164584 
L 213.036788 227.841337 
L 213.269182 230.214485 
L 213.269182 230.214485 
L 213.501576 224.85943 
L 213.501576 224.85943 
L 213.73397 229.750537 
L 213.73397 229.750537 
L 213.966364 232.042293 
L 213.966364 232.042293 
L 214.198758 241.652786 
L 214.198758 241.652786 
L 214.431152 240.116949 
L 214.431152 240.116949 
L 214.663547 250.854632 
L 214.663547 250.854632 
L 214.895941 247.955241 
L 214.895941 247.955241 
L 215.128335 250.066289 
L 215.128335 250.066289 
L 215.360729 255.565235 
L 215.360729 255.565235 
L 215.593123 255.26203 
L 215.593123 255.26203 
L 215.825517 261.64741 
L 215.825517 261.64741 
L 216.057911 260.012819 
L 216.057911 260.012819 
L 216.290305 261.728649 
L 216.290305 261.728649 
L 216.522699 264.853988 
L 216.522699 264.853988 
L 216.755093 265.110114 
L 216.755093 265.110114 
L 216.987487 269.037532 
L 216.987487 269.037532 
L 217.219882 268.298361 
L 217.219882 268.298361 
L 217.452276 269.439286 
L 217.452276 269.439286 
L 217.68467 271.349457 
L 217.68467 271.349457 
L 217.917064 271.692388 
L 217.917064 271.692388 
L 218.149458 274.08019 
L 218.149458 274.08019 
L 218.381852 273.581725 
L 218.381852 273.581725 
L 219.311428 276.984483 
L 219.311428 276.984483 
L 219.543822 276.82951 
L 219.543822 276.82951 
L 220.008611 277.722887 
L 220.008611 277.722887 
L 220.241005 277.931883 
L 220.241005 277.931883 
L 220.473399 278.300498 
L 220.705793 278.330165 
L 220.705793 278.330165 
L 220.938187 278.576232 
L 220.938187 278.576232 
L 221.170581 278.580368 
L 221.170581 278.580368 
L 221.402975 278.716907 
L 221.402975 278.716907 
L 221.635369 278.64777 
L 221.635369 278.64777 
L 221.867763 279.006275 
L 221.867763 279.006275 
L 222.332552 278.715835 
L 222.332552 278.715835 
L 222.564946 278.819337 
L 222.564946 278.819337 
L 222.79734 278.660535 
L 222.79734 278.660535 
L 223.029734 279.02047 
L 223.029734 279.02047 
L 223.262128 278.551671 
L 223.262128 278.551671 
L 223.726916 278.75648 
L 223.726916 278.75648 
L 223.95931 278.434178 
L 223.95931 278.434178 
L 224.191704 278.529664 
L 224.191704 278.529664 
L 224.424098 277.838798 
L 224.424098 277.838798 
L 224.656492 278.148845 
L 224.888887 278.040185 
L 224.888887 278.040185 
L 225.121281 277.190875 
L 225.121281 277.190875 
L 225.353675 277.352026 
L 225.353675 277.352026 
L 225.586069 275.668518 
L 225.586069 275.668518 
L 225.818463 276.256342 
L 225.818463 276.256342 
L 226.050857 276.081812 
L 226.050857 276.081812 
L 226.283251 274.305424 
L 226.283251 274.305424 
L 226.515645 274.812518 
L 226.515645 274.812518 
L 226.748039 274.272183 
L 226.748039 274.272183 
L 226.980433 272.950346 
L 226.980433 272.950346 
L 227.212827 272.554668 
L 227.212827 272.554668 
L 227.445222 269.750405 
L 227.445222 269.750405 
L 227.677616 270.553965 
L 227.677616 270.553965 
L 227.91001 269.693012 
L 227.91001 269.693012 
L 228.142404 267.399776 
L 228.142404 267.399776 
L 228.374798 267.27784 
L 228.374798 267.27784 
L 228.607192 263.467201 
L 228.607192 263.467201 
L 228.839586 264.895246 
L 228.839586 264.895246 
L 229.07198 263.471592 
L 229.07198 263.471592 
L 229.304374 260.53125 
L 229.304374 260.53125 
L 229.536768 260.471354 
L 229.536768 260.471354 
L 229.769162 255.855113 
L 229.769162 255.855113 
L 230.001557 257.525089 
L 230.001557 257.525089 
L 230.233951 255.831114 
L 230.233951 255.831114 
L 230.466345 252.504796 
L 230.466345 252.504796 
L 230.698739 252.286098 
L 230.698739 252.286098 
L 230.931133 247.23241 
L 230.931133 247.23241 
L 231.163527 248.533005 
L 231.163527 248.533005 
L 231.395921 246.864357 
L 231.395921 246.864357 
L 231.628315 243.535945 
L 231.628315 243.535945 
L 231.860709 242.833386 
L 231.860709 242.833386 
L 232.093103 237.721028 
L 232.093103 237.721028 
L 232.325497 238.617724 
L 232.325497 238.617724 
L 232.557892 231.558329 
L 232.557892 231.558329 
L 232.790286 233.698533 
L 232.790286 233.698533 
L 233.02268 232.167598 
L 233.02268 232.167598 
L 233.255074 227.36105 
L 233.255074 227.36105 
L 233.487468 227.428809 
L 233.487468 227.428809 
L 233.719862 220.686712 
L 233.952256 222.39672 
L 233.952256 222.39672 
L 234.18465 219.964341 
L 234.18465 219.964341 
L 234.417044 216.312095 
L 234.417044 216.312095 
L 234.649438 214.44742 
L 234.649438 214.44742 
L 234.881832 209.115037 
L 234.881832 209.115037 
L 235.114227 208.527214 
L 235.114227 208.527214 
L 235.346621 201.499018 
L 235.346621 201.499018 
L 235.579015 202.101598 
L 235.579015 202.101598 
L 235.811409 193.768926 
L 235.811409 193.768926 
L 236.043803 195.0156 
L 236.043803 195.0156 
L 236.276197 185.517238 
L 236.276197 185.517238 
L 236.508591 187.996952 
L 236.508591 187.996952 
L 236.740985 176.98277 
L 236.740985 176.98277 
L 236.973379 180.946135 
L 236.973379 180.946135 
L 237.205773 169.283316 
L 237.205773 169.283316 
L 237.438168 172.897214 
L 237.670562 161.433484 
L 237.670562 161.433484 
L 237.902956 164.576797 
L 237.902956 164.576797 
L 238.13535 153.492099 
L 238.13535 153.492099 
L 238.367744 155.945312 
L 238.367744 155.945312 
L 238.600138 146.390374 
L 238.600138 146.390374 
L 238.832532 147.544779 
L 238.832532 147.544779 
L 239.064926 139.309737 
L 239.064926 139.309737 
L 239.29732 139.028999 
L 239.29732 139.028999 
L 239.529714 132.566312 
L 239.762108 130.213385 
L 239.762108 130.213385 
L 239.994503 126.141462 
L 239.994503 126.141462 
L 240.226897 115.749111 
L 240.226897 115.749111 
L 240.459291 117.31778 
L 240.459291 117.31778 
L 240.691685 109.842487 
L 240.691685 109.842487 
L 240.924079 108.953756 
L 240.924079 108.953756 
L 241.156473 104.733703 
L 241.156473 104.733703 
L 241.388867 95.71711 
L 241.388867 95.71711 
L 241.621261 96.433558 
L 241.621261 96.433558 
L 242.086049 82.702787 
L 242.086049 82.702787 
L 242.318443 83.890178 
L 242.318443 83.890178 
L 242.783232 70.696066 
L 242.783232 70.696066 
L 243.015626 72.292972 
L 243.015626 72.292972 
L 243.24802 67.339825 
L 243.24802 67.339825 
L 243.480414 59.901347 
L 243.712808 60.567755 
L 243.712808 60.567755 
L 244.177596 53.568 
L 244.177596 53.568 
L 282.755015 53.568 
L 282.755015 53.568 
L 282.987409 56.504053 
L 282.987409 56.504053 
L 283.219803 61.986762 
L 283.219803 61.986762 
L 283.684592 78.220736 
L 283.684592 78.220736 
L 283.916986 77.736772 
L 283.916986 77.736772 
L 284.614168 92.322165 
L 284.614168 92.322165 
L 284.846562 92.275749 
L 284.846562 92.275749 
L 285.543744 101.404577 
L 285.543744 101.404577 
L 285.776138 101.587123 
L 286.473321 105.499579 
L 286.473321 105.499579 
L 286.938109 106.244571 
L 286.938109 106.244571 
L 287.170503 106.114159 
L 287.635291 106.556099 
L 287.635291 106.556099 
L 287.867685 106.458469 
L 287.867685 106.458469 
L 288.100079 106.670733 
L 288.100079 106.670733 
L 288.332473 106.554056 
L 288.332473 106.554056 
L 288.564868 106.198258 
L 288.797262 104.990646 
L 288.797262 104.990646 
L 289.029656 105.608035 
L 289.029656 105.608035 
L 289.26205 104.422022 
L 289.26205 104.422022 
L 289.494444 101.538154 
L 289.494444 101.538154 
L 289.726838 102.44925 
L 289.959232 100.520186 
L 290.191626 96.88377 
L 290.191626 96.88377 
L 290.42402 97.046402 
L 290.42402 97.046402 
L 290.656414 94.675756 
L 290.656414 94.675756 
L 290.888808 89.838927 
L 290.888808 89.838927 
L 291.121203 89.142904 
L 291.121203 89.142904 
L 291.353597 86.517817 
L 291.353597 86.517817 
L 291.585991 81.80655 
L 291.585991 81.80655 
L 291.818385 74.610105 
L 291.818385 74.610105 
L 292.050779 76.025793 
L 292.050779 76.025793 
L 292.283173 72.109048 
L 292.283173 72.109048 
L 292.515567 65.105004 
L 292.747961 64.597143 
L 292.747961 64.597143 
L 293.212749 54.013106 
L 293.212749 54.013106 
L 293.445143 53.568 
L 293.445143 53.568 
L 296.001478 53.568 
L 296.001478 53.568 
L 296.233873 53.826015 
L 296.233873 53.826015 
L 296.466267 57.116488 
L 296.466267 57.116488 
L 296.698661 57.403762 
L 296.698661 57.403762 
L 297.163449 64.353068 
L 297.163449 64.353068 
L 297.628237 72.610117 
L 297.628237 72.610117 
L 297.860631 72.429001 
L 297.860631 72.429001 
L 299.48739 94.237748 
L 299.48739 94.237748 
L 299.719784 94.266751 
L 299.719784 94.266751 
L 300.184572 101.32732 
L 300.184572 101.32732 
L 300.416966 105.738855 
L 300.416966 105.738855 
L 300.64936 105.102523 
L 300.64936 105.102523 
L 301.114149 113.673602 
L 301.114149 113.673602 
L 301.346543 113.720885 
L 301.346543 113.720885 
L 301.578937 116.904282 
L 301.811331 122.391995 
L 301.811331 122.391995 
L 302.043725 122.621211 
L 302.043725 122.621211 
L 302.276119 125.868843 
L 302.276119 125.868843 
L 302.508513 131.181568 
L 302.508513 131.181568 
L 302.740907 132.050027 
L 302.740907 132.050027 
L 302.973301 134.81584 
L 302.973301 134.81584 
L 303.205695 140.280371 
L 303.205695 140.280371 
L 303.438089 140.699128 
L 303.438089 140.699128 
L 303.670484 143.547559 
L 303.670484 143.547559 
L 303.902878 149.309066 
L 303.902878 149.309066 
L 304.135272 148.844148 
L 304.135272 148.844148 
L 304.367666 152.235008 
L 304.367666 152.235008 
L 304.60006 157.840776 
L 304.60006 157.840776 
L 304.832454 156.482584 
L 304.832454 156.482584 
L 305.064848 160.367263 
L 305.064848 160.367263 
L 305.297242 160.662145 
L 305.297242 160.662145 
L 305.529636 163.102235 
L 305.529636 163.102235 
L 305.76203 167.428598 
L 305.76203 167.428598 
L 305.994424 166.699589 
L 305.994424 166.699589 
L 306.226819 169.691912 
L 306.226819 169.691912 
L 306.459213 169.748999 
L 306.459213 169.748999 
L 306.691607 171.829461 
L 306.691607 171.829461 
L 306.924001 172.671776 
L 307.156395 173.999996 
L 307.156395 173.999996 
L 307.388789 176.418282 
L 307.388789 176.418282 
L 307.621183 176.395611 
L 307.621183 176.395611 
L 307.853577 177.802312 
L 307.853577 177.802312 
L 308.085971 177.952689 
L 308.085971 177.952689 
L 308.318365 179.376904 
L 308.318365 179.376904 
L 308.550759 179.445378 
L 308.550759 179.445378 
L 308.783154 180.47555 
L 308.783154 180.47555 
L 309.015548 180.961965 
L 309.015548 180.961965 
L 309.247942 181.154621 
L 309.71273 182.074346 
L 309.71273 182.074346 
L 309.945124 182.415643 
L 309.945124 182.415643 
L 310.177518 182.223906 
L 310.177518 182.223906 
L 310.409912 182.336344 
L 310.409912 182.336344 
L 310.642306 182.102889 
L 310.642306 182.102889 
L 310.8747 182.658493 
L 310.8747 182.658493 
L 311.107094 181.860039 
L 311.107094 181.860039 
L 311.339489 182.280278 
L 311.339489 182.280278 
L 311.571883 182.186171 
L 311.571883 182.186171 
L 311.804277 182.508473 
L 311.804277 182.508473 
L 312.036671 182.329604 
L 312.036671 182.329604 
L 312.269065 182.30106 
L 312.269065 182.30106 
L 312.501459 182.15007 
L 312.733853 181.774256 
L 312.966247 181.71436 
L 313.198641 180.28657 
L 313.198641 180.28657 
L 313.431035 181.296521 
L 313.431035 181.296521 
L 313.663429 179.638545 
L 313.663429 179.638545 
L 313.895824 180.188532 
L 313.895824 180.188532 
L 314.128218 178.395241 
L 314.128218 178.395241 
L 314.360612 178.396978 
L 314.360612 178.396978 
L 314.593006 176.823815 
L 314.593006 176.823815 
L 314.8254 176.038689 
L 314.8254 176.038689 
L 315.057794 174.826788 
L 315.057794 174.826788 
L 315.290188 170.47903 
L 315.290188 170.47903 
L 315.522582 171.812355 
L 315.522582 171.812355 
L 315.754976 167.607314 
L 315.754976 167.607314 
L 315.98737 168.322486 
L 315.98737 168.322486 
L 316.219764 164.412531 
L 316.219764 164.412531 
L 316.452159 164.294476 
L 316.684553 160.917454 
L 316.684553 160.917454 
L 316.916947 159.717195 
L 316.916947 159.717195 
L 317.149341 157.623713 
L 317.149341 157.623713 
L 317.381735 150.177167 
L 317.381735 150.177167 
L 317.614129 151.959632 
L 317.614129 151.959632 
L 317.846523 146.014559 
L 317.846523 146.014559 
L 318.078917 145.69578 
L 318.078917 145.69578 
L 318.311311 141.378965 
L 318.311311 141.378965 
L 318.543705 139.195103 
L 318.543705 139.195103 
L 318.776099 135.597953 
L 318.776099 135.597953 
L 319.008494 127.649215 
L 319.008494 127.649215 
L 319.240888 128.168769 
L 319.240888 128.168769 
L 319.473282 122.44321 
L 319.473282 122.44321 
L 319.705676 120.42535 
L 319.705676 120.42535 
L 319.93807 115.902807 
L 319.93807 115.902807 
L 320.170464 107.763149 
L 320.170464 107.763149 
L 320.402858 107.547515 
L 320.402858 107.547515 
L 320.635252 101.894413 
L 320.635252 101.894413 
L 320.867646 92.368886 
L 320.867646 92.368886 
L 321.10004 93.553469 
L 321.10004 93.553469 
L 321.564829 77.339052 
L 321.564829 77.339052 
L 321.797223 78.752289 
L 321.797223 78.752289 
L 322.262011 62.069431 
L 322.262011 62.069431 
L 322.494405 63.351797 
L 322.494405 63.351797 
L 322.959193 53.568 
L 322.959193 53.568 
L 330.860592 53.568 
L 330.860592 53.568 
L 331.092986 54.287103 
L 331.092986 54.287103 
L 331.32538 58.169433 
L 331.32538 58.169433 
L 331.557774 58.686843 
L 331.557774 58.686843 
L 332.022563 65.381503 
L 332.022563 65.381503 
L 332.487351 78.604567 
L 332.487351 78.604567 
L 332.719745 78.515209 
L 332.719745 78.515209 
L 333.184533 90.772592 
L 333.184533 90.772592 
L 333.416927 101.302811 
L 333.416927 101.302811 
L 333.649321 101.245009 
L 333.649321 101.245009 
L 334.114109 114.829743 
L 334.114109 114.829743 
L 334.346504 122.861406 
L 334.346504 122.861406 
L 334.578898 121.209557 
L 334.578898 121.209557 
L 335.043686 132.353027 
L 335.043686 132.353027 
L 335.27608 131.907462 
L 335.27608 131.907462 
L 335.508474 135.364805 
L 335.740868 140.560036 
L 335.740868 140.560036 
L 335.973262 139.694436 
L 335.973262 139.694436 
L 336.43805 145.765071 
L 336.43805 145.765071 
L 336.670444 145.087277 
L 336.670444 145.087277 
L 336.902839 147.185661 
L 336.902839 147.185661 
L 337.135233 147.727886 
L 337.135233 147.727886 
L 337.600021 150.037105 
L 337.600021 150.037105 
L 337.832415 150.172623 
L 338.297203 151.355418 
L 338.297203 151.355418 
L 338.529597 151.406684 
L 338.529597 151.406684 
L 338.994385 151.846224 
L 338.994385 151.846224 
L 339.459174 151.732203 
L 339.459174 151.732203 
L 339.923962 152.105312 
L 339.923962 152.105312 
L 340.621144 151.686809 
L 340.621144 151.686809 
L 341.085932 151.939922 
L 341.085932 151.939922 
L 341.318326 151.083463 
L 341.318326 151.083463 
L 341.55072 151.410667 
L 341.55072 151.410667 
L 341.783114 150.733434 
L 341.783114 150.733434 
L 342.015509 150.892083 
L 342.015509 150.892083 
L 342.247903 150.574887 
L 342.247903 150.574887 
L 342.480297 148.892044 
L 342.480297 148.892044 
L 342.712691 149.69305 
L 342.712691 149.69305 
L 342.945085 148.044674 
L 342.945085 148.044674 
L 343.177479 148.087463 
L 343.177479 148.087463 
L 343.409873 147.071589 
L 343.409873 147.071589 
L 343.642267 144.796837 
L 343.642267 144.796837 
L 343.874661 145.368576 
L 343.874661 145.368576 
L 344.107055 143.469077 
L 344.107055 143.469077 
L 344.339449 143.285255 
L 344.339449 143.285255 
L 344.571844 141.973529 
L 344.571844 141.973529 
L 344.804238 139.004796 
L 344.804238 139.004796 
L 345.036632 139.463739 
L 345.036632 139.463739 
L 345.269026 139.077661 
L 345.269026 139.077661 
L 345.50142 139.624431 
L 345.50142 139.624431 
L 345.733814 140.938914 
L 345.733814 140.938914 
L 345.966208 144.387373 
L 345.966208 144.387373 
L 346.198602 144.785042 
L 346.198602 144.785042 
L 346.430996 147.504848 
L 346.430996 147.504848 
L 346.66339 153.176333 
L 346.66339 153.176333 
L 346.895784 152.091474 
L 346.895784 152.091474 
L 347.128179 157.543495 
L 347.128179 157.543495 
L 347.360573 158.510605 
L 347.360573 158.510605 
L 347.592967 162.297705 
L 347.592967 162.297705 
L 347.825361 173.716143 
L 347.825361 173.716143 
L 348.057755 171.344629 
L 348.057755 171.344629 
L 348.290149 181.358204 
L 348.290149 181.358204 
L 348.522543 182.094515 
L 348.522543 182.094515 
L 348.754937 190.180763 
L 348.754937 190.180763 
L 348.987331 193.95617 
L 348.987331 193.95617 
L 349.219725 200.300853 
L 349.219725 200.300853 
L 349.452119 214.943945 
L 349.452119 214.943945 
L 349.684514 210.423138 
L 349.684514 210.423138 
L 349.916908 222.769369 
L 349.916908 222.769369 
L 350.149302 219.408737 
L 350.149302 219.408737 
L 350.381696 231.066706 
L 350.381696 231.066706 
L 350.61409 227.372181 
L 350.61409 227.372181 
L 350.846484 238.685892 
L 350.846484 238.685892 
L 351.078878 234.861159 
L 351.078878 234.861159 
L 351.77606 244.196582 
L 351.77606 244.196582 
L 352.008454 249.934243 
L 352.008454 249.934243 
L 352.240849 249.626596 
L 352.240849 249.626596 
L 352.473243 256.595713 
L 352.473243 256.595713 
L 352.705637 254.516375 
L 353.170425 260.465891 
L 353.170425 260.465891 
L 353.402819 261.258217 
L 353.635213 266.202275 
L 353.635213 266.202275 
L 353.867607 265.136513 
L 353.867607 265.136513 
L 354.797184 273.860676 
L 354.797184 273.860676 
L 355.029578 273.595563 
L 355.029578 273.595563 
L 355.261972 277.429793 
L 355.261972 277.429793 
L 355.494366 276.638539 
L 355.494366 276.638539 
L 355.72676 277.420653 
L 355.72676 277.420653 
L 355.959154 279.398991 
L 355.959154 279.398991 
L 356.191548 279.394242 
L 356.191548 279.394242 
L 356.423942 281.524693 
L 356.423942 281.524693 
L 356.656336 281.036747 
L 356.656336 281.036747 
L 356.88873 281.613183 
L 356.88873 281.613183 
L 357.121124 282.562422 
L 357.121124 282.562422 
L 357.353519 282.573451 
L 357.353519 282.573451 
L 357.818307 283.519269 
L 357.818307 283.519269 
L 358.050701 283.481279 
L 358.050701 283.481279 
L 358.980277 283.99925 
L 358.980277 283.99925 
L 359.445065 283.690275 
L 359.445065 283.690275 
L 359.909854 283.89059 
L 359.909854 283.89059 
L 360.142248 283.715704 
L 360.142248 283.715704 
L 360.374642 283.809198 
L 360.374642 283.809198 
L 360.607036 283.438285 
L 360.607036 283.438285 
L 360.83943 283.634975 
L 360.83943 283.634975 
L 361.071824 283.617665 
L 361.071824 283.617665 
L 361.304218 283.031782 
L 361.304218 283.031782 
L 361.536612 283.099898 
L 361.769006 281.752633 
L 361.769006 281.752633 
L 362.0014 282.501607 
L 362.0014 282.501607 
L 362.233794 281.892849 
L 362.233794 281.892849 
L 362.466189 280.460259 
L 362.466189 280.460259 
L 362.698583 280.452191 
L 362.698583 280.452191 
L 362.930977 277.811224 
L 362.930977 277.811224 
L 363.163371 278.832001 
L 363.163371 278.832001 
L 363.395765 277.791617 
L 363.395765 277.791617 
L 363.628159 275.61761 
L 363.860553 275.314762 
L 363.860553 275.314762 
L 364.092947 271.805592 
L 364.092947 271.805592 
L 364.325341 272.732261 
L 364.325341 272.732261 
L 364.557735 271.313356 
L 364.557735 271.313356 
L 365.254918 264.00289 
L 365.254918 264.00289 
L 365.487312 264.433239 
L 365.487312 264.433239 
L 365.719706 262.955306 
L 365.719706 262.955306 
L 365.9521 260.223296 
L 365.9521 260.223296 
L 366.184494 259.120413 
L 366.184494 259.120413 
L 366.416888 254.212149 
L 366.416888 254.212149 
L 366.649282 255.172162 
L 366.649282 255.172162 
L 366.881676 253.366055 
L 366.881676 253.366055 
L 367.11407 249.58738 
L 367.11407 249.58738 
L 367.346465 249.126598 
L 367.346465 249.126598 
L 367.578859 242.736011 
L 367.578859 242.736011 
L 367.811253 244.863296 
L 367.811253 244.863296 
L 368.043647 242.516752 
L 368.043647 242.516752 
L 368.276041 237.698203 
L 368.276041 237.698203 
L 368.508435 237.648163 
L 368.508435 237.648163 
L 368.740829 230.283265 
L 368.740829 230.283265 
L 368.973223 232.280394 
L 368.973223 232.280394 
L 369.205617 230.020859 
L 369.205617 230.020859 
L 369.438011 225.225543 
L 369.438011 225.225543 
L 369.670405 224.517674 
L 369.670405 224.517674 
L 369.9028 217.607686 
L 369.9028 217.607686 
L 370.135194 218.807434 
L 370.135194 218.807434 
L 370.367588 209.808201 
L 370.367588 209.808201 
L 370.599982 212.552619 
L 370.599982 212.552619 
L 370.832376 209.922784 
L 370.832376 209.922784 
L 371.06477 205.678119 
L 371.06477 205.678119 
L 371.297164 204.300319 
L 371.297164 204.300319 
L 371.529558 198.93255 
L 371.529558 198.93255 
L 371.761952 198.546727 
L 371.761952 198.546727 
L 371.994346 192.811466 
L 371.994346 192.811466 
L 372.22674 193.298902 
L 372.459135 187.573343 
L 372.459135 187.573343 
L 372.691529 188.352291 
L 372.691529 188.352291 
L 372.923923 187.566246 
L 373.156317 187.636915 
L 373.156317 187.636915 
L 373.388711 190.367955 
L 373.388711 190.367955 
L 373.621105 190.750715 
L 373.621105 190.750715 
L 373.853499 192.893727 
L 374.085893 193.352415 
L 374.085893 193.352415 
L 374.318287 194.740428 
L 374.318287 194.740428 
L 374.550681 195.047462 
L 374.550681 195.047462 
L 374.783075 195.96249 
L 374.783075 195.96249 
L 375.01547 196.233934 
L 375.01547 196.233934 
L 375.247864 196.910094 
L 375.247864 196.910094 
L 375.945046 197.557915 
L 375.945046 197.557915 
L 376.17744 197.401411 
L 377.571805 197.765481 
L 377.571805 197.765481 
L 377.804199 197.424899 
L 378.036593 197.779983 
L 378.268987 197.280497 
L 378.268987 197.280497 
L 378.501381 197.167446 
L 378.501381 197.167446 
L 378.966169 196.094484 
L 378.966169 196.094484 
L 379.198563 192.847414 
L 379.198563 192.847414 
L 379.430957 194.260651 
L 379.430957 194.260651 
L 379.663351 190.674173 
L 379.663351 190.674173 
L 379.895745 191.865138 
L 379.895745 191.865138 
L 380.12814 187.388806 
L 380.12814 187.388806 
L 380.360534 188.430211 
L 380.360534 188.430211 
L 380.592928 184.09578 
L 380.592928 184.09578 
L 380.825322 184.879885 
L 380.825322 184.879885 
L 381.057716 179.50078 
L 381.057716 179.50078 
L 381.29011 179.99271 
L 381.29011 179.99271 
L 381.522504 175.110232 
L 381.522504 175.110232 
L 381.754898 175.121568 
L 381.754898 175.121568 
L 381.987292 169.674092 
L 381.987292 169.674092 
L 382.219686 168.704377 
L 382.219686 168.704377 
L 382.684475 162.00604 
L 382.684475 162.00604 
L 382.916869 158.066163 
L 382.916869 158.066163 
L 383.149263 147.245556 
L 383.149263 147.245556 
L 383.381657 150.45045 
L 383.381657 150.45045 
L 383.614051 140.185702 
L 383.614051 140.185702 
L 383.846445 141.161799 
L 383.846445 141.161799 
L 384.078839 133.185385 
L 384.078839 133.185385 
L 384.311233 131.282823 
L 384.311233 131.282823 
L 384.543627 125.748133 
L 384.543627 125.748133 
L 384.776021 112.473599 
L 385.008415 114.511424 
L 385.008415 114.511424 
L 385.24081 104.763166 
L 385.24081 104.763166 
L 385.473204 103.044477 
L 385.473204 103.044477 
L 385.705598 96.436928 
L 385.705598 96.436928 
L 385.937992 86.135109 
L 385.937992 86.135109 
L 386.170386 84.59095 
L 386.170386 84.59095 
L 386.635174 71.754321 
L 386.635174 71.754321 
L 387.56475 53.568 
L 387.56475 53.568 
L 397.092908 53.625751 
L 397.092908 53.625751 
L 397.325302 53.759226 
L 397.325302 53.759226 
L 397.557696 53.568 
L 397.557696 53.568 
L 398.487273 53.568 
L 398.487273 53.568 
" clip-path="url(#p282f30bddd)" style="fill: none; stroke: #ff7f0e; stroke-width: 1.5; stroke-linecap: square"/>
   </g>
   <g id="patch_3">
    <path d="M 57.6 307.584 
L 57.6 41.472 
" style="fill: none; stroke: #000000; stroke-width: 0.8; stroke-linejoin: miter; stroke-linecap: square"/>
   </g>
   <g id="patch_4">
    <path d="M 414.72 307.584 
L 414.72 41.472 
" style="fill: none; stroke: #000000; stroke-width: 0.8; stroke-linejoin: miter; stroke-linecap: square"/>
   </g>
   <g id="patch_5">
    <path d="M 57.6 307.584 
L 414.72 307.584 
" style="fill: none; stroke: #000000; stroke-width: 0.8; stroke-linejoin: miter; stroke-linecap: square"/>
   </g>
   <g id="patch_6">
    <path d="M 57.6 41.472 
L 414.72 41.472 
" style="fill: none; stroke: #000000; stroke-width: 0.8; stroke-linejoin: miter; stroke-linecap: square"/>
   </g>
   <g id="text_14">
    <!-- Actual speed vs Expected speed -->
    <g transform="translate(138.808125 35.472) scale(0.12 -0.12)">
     <defs>
      <path id="DejaVuSans-41" d="M 2188 4044 
L 1331 1722 
L 3047 1722 
L 2188 4044 
z
M 1831 4666 
L 2547 4666 
L 4325 0 
L 3669 0 
L 3244 1197 
L 1141 1197 
L 716 0 
L 50 0 
L 1831 4666 
z
" transform="scale(0.015625)"/>
      <path id="DejaVuSans-75" d="M 544 1381 
L 544 3500 
L 1119 3500 
L 1119 1403 
Q 1119 906 1312 657 
Q 1506 409 1894 409 
Q 2359 409 2629 706 
Q 2900 1003 2900 1516 
L 2900 3500 
L 3475 3500 
L 3475 0 
L 2900 0 
L 2900 538 
Q 2691 219 2414 64 
Q 2138 -91 1772 -91 
Q 1169 -91 856 284 
Q 544 659 544 1381 
z
M 1991 3584 
L 1991 3584 
z
" transform="scale(0.015625)"/>
      <path id="DejaVuSans-61" d="M 2194 1759 
Q 1497 1759 1228 1600 
Q 959 1441 959 1056 
Q 959 750 1161 570 
Q 1363 391 1709 391 
Q 2188 391 2477 730 
Q 2766 1069 2766 1631 
L 2766 1759 
L 2194 1759 
z
M 3341 1997 
L 3341 0 
L 2766 0 
L 2766 531 
Q 2569 213 2275 61 
Q 1981 -91 1556 -91 
Q 1019 -91 701 211 
Q 384 513 384 1019 
Q 384 1609 779 1909 
Q 1175 2209 1959 2209 
L 2766 2209 
L 2766 2266 
Q 2766 2663 2505 2880 
Q 2244 3097 1772 3097 
Q 1472 3097 1187 3025 
Q 903 2953 641 2809 
L 641 3341 
Q 956 3463 1253 3523 
Q 1550 3584 1831 3584 
Q 2591 3584 2966 3190 
Q 3341 2797 3341 1997 
z
" transform="scale(0.015625)"/>
      <path id="DejaVuSans-20" transform="scale(0.015625)"/>
      <path id="DejaVuSans-70" d="M 1159 525 
L 1159 -1331 
L 581 -1331 
L 581 3500 
L 1159 3500 
L 1159 2969 
Q 1341 3281 1617 3432 
Q 1894 3584 2278 3584 
Q 2916 3584 3314 3078 
Q 3713 2572 3713 1747 
Q 3713 922 3314 415 
Q 2916 -91 2278 -91 
Q 1894 -91 1617 61 
Q 1341 213 1159 525 
z
M 3116 1747 
Q 3116 2381 2855 2742 
Q 2594 3103 2138 3103 
Q 1681 3103 1420 2742 
Q 1159 2381 1159 1747 
Q 1159 1113 1420 752 
Q 1681 391 2138 391 
Q 2594 391 2855 752 
Q 3116 1113 3116 1747 
z
" transform="scale(0.015625)"/>
      <path id="DejaVuSans-64" d="M 2906 2969 
L 2906 4863 
L 3481 4863 
L 3481 0 
L 2906 0 
L 2906 525 
Q 2725 213 2448 61 
Q 2172 -91 1784 -91 
Q 1150 -91 751 415 
Q 353 922 353 1747 
Q 353 2572 751 3078 
Q 1150 3584 1784 3584 
Q 2172 3584 2448 3432 
Q 2725 3281 2906 2969 
z
M 947 1747 
Q 947 1113 1208 752 
Q 1469 391 1925 391 
Q 2381 391 2643 752 
Q 2906 1113 2906 1747 
Q 2906 2381 2643 2742 
Q 2381 3103 1925 3103 
Q 1469 3103 1208 2742 
Q 947 2381 947 1747 
z
" transform="scale(0.015625)"/>
      <path id="DejaVuSans-76" d="M 191 3500 
L 800 3500 
L 1894 563 
L 2988 3500 
L 3597 3500 
L 2284 0 
L 1503 0 
L 191 3500 
z
" transform="scale(0.015625)"/>
      <path id="DejaVuSans-45" d="M 628 4666 
L 3578 4666 
L 3578 4134 
L 1259 4134 
L 1259 2753 
L 3481 2753 
L 3481 2222 
L 1259 2222 
L 1259 531 
L 3634 531 
L 3634 0 
L 628 0 
L 628 4666 
z
" transform="scale(0.015625)"/>
      <path id="DejaVuSans-78" d="M 3513 3500 
L 2247 1797 
L 3578 0 
L 2900 0 
L 1881 1375 
L 863 0 
L 184 0 
L 1544 1831 
L 300 3500 
L 978 3500 
L 1906 2253 
L 2834 3500 
L 3513 3500 
z
" transform="scale(0.015625)"/>
     </defs>
     <use xlink:href="#DejaVuSans-41"/>
     <use xlink:href="#DejaVuSans-63" x="66.658203"/>
     <use xlink:href="#DejaVuSans-74" x="121.638672"/>
     <use xlink:href="#DejaVuSans-75" x="160.847656"/>
     <use xlink:href="#DejaVuSans-61" x="224.226562"/>
     <use xlink:href="#DejaVuSans-6c" x="285.505859"/>
     <use xlink:href="#DejaVuSans-20" x="313.289062"/>
     <use xlink:href="#DejaVuSans-73" x="345.076172"/>
     <use xlink:href="#DejaVuSans-70" x="397.175781"/>
     <use xlink:href="#DejaVuSans-65" x="460.652344"/>
     <use xlink:href="#DejaVuSans-65" x="522.175781"/>
     <use xlink:href="#DejaVuSans-64" x="583.699219"/>
     <use xlink:href="#DejaVuSans-20" x="647.175781"/>
     <use xlink:href="#DejaVuSans-76" x="678.962891"/>
     <use xlink:href="#DejaVuSans-73" x="738.142578"/>
     <use xlink:href="#DejaVuSans-20" x="790.242188"/>
     <use xlink:href="#DejaVuSans-45" x="822.029297"/>
     <use xlink:href="#DejaVuSans-78" x="885.212891"/>
     <use xlink:href="#DejaVuSans-70" x="944.392578"/>
     <use xlink:href="#DejaVuSans-65" x="1007.869141"/>
     <use xlink:href="#DejaVuSans-63" x="1069.392578"/>
     <use xlink:href="#DejaVuSans-74" x="1124.373047"/>
     <use xlink:href="#DejaVuSans-65" x="1163.582031"/>
     <use xlink:href="#DejaVuSans-64" x="1225.105469"/>
     <use xlink:href="#DejaVuSans-20" x="1288.582031"/>
     <use xlink:href="#DejaVuSans-73" x="1320.369141"/>
     <use xlink:href="#DejaVuSans-70" x="1372.46875"/>
     <use xlink:href="#DejaVuSans-65" x="1435.945312"/>
     <use xlink:href="#DejaVuSans-65" x="1497.46875"/>
     <use xlink:href="#DejaVuSans-64" x="1558.992188"/>
    </g>
   </g>
   <g id="legend_1">
    <g id="patch_7">
     <path d="M 64.6 302.584 
L 176.65 302.584 
Q 178.65 302.584 178.65 300.584 
L 178.65 272.22775 
Q 178.65 270.22775 176.65 270.22775 
L 64.6 270.22775 
Q 62.6 270.22775 62.6 272.22775 
L 62.6 300.584 
Q 62.6 302.584 64.6 302.584 
z
" style="fill: #ffffff; opacity: 0.8; stroke: #cccccc; stroke-linejoin: miter"/>
    </g>
    <g id="line2d_25">
     <path d="M 66.6 278.326187 
L 76.6 278.326187 
L 86.6 278.326187 
" style="fill: none; stroke: #1f77b4; stroke-width: 1.5; stroke-linecap: square"/>
    </g>
    <g id="text_15">
     <!-- Actual speed -->
     <g transform="translate(94.6 281.826187) scale(0.1 -0.1)">
      <use xlink:href="#DejaVuSans-41"/>
      <use xlink:href="#DejaVuSans-63" x="66.658203"/>
      <use xlink:href="#DejaVuSans-74" x="121.638672"/>
      <use xlink:href="#DejaVuSans-75" x="160.847656"/>
      <use xlink:href="#DejaVuSans-61" x="224.226562"/>
      <use xlink:href="#DejaVuSans-6c" x="285.505859"/>
      <use xlink:href="#DejaVuSans-20" x="313.289062"/>
      <use xlink:href="#DejaVuSans-73" x="345.076172"/>
      <use xlink:href="#DejaVuSans-70" x="397.175781"/>
      <use xlink:href="#DejaVuSans-65" x="460.652344"/>
      <use xlink:href="#DejaVuSans-65" x="522.175781"/>
      <use xlink:href="#DejaVuSans-64" x="583.699219"/>
     </g>
    </g>
    <g id="line2d_26">
     <path d="M 66.6 293.004312 
L 76.6 293.004312 
L 86.6 293.004312 
" style="fill: none; stroke: #ff7f0e; stroke-width: 1.5; stroke-linecap: square"/>
    </g>
    <g id="text_16">
     <!-- Expected speed -->
     <g transform="translate(94.6 296.504312) scale(0.1 -0.1)">
      <use xlink:href="#DejaVuSans-45"/>
      <use xlink:href="#DejaVuSans-78" x="63.183594"/>
      <use xlink:href="#DejaVuSans-70" x="122.363281"/>
      <use xlink:href="#DejaVuSans-65" x="185.839844"/>
      <use xlink:href="#DejaVuSans-63" x="247.363281"/>
      <use xlink:href="#DejaVuSans-74" x="302.34375"/>
      <use xlink:href="#DejaVuSans-65" x="341.552734"/>
      <use xlink:href="#DejaVuSans-64" x="403.076172"/>
      <use xlink:href="#DejaVuSans-20" x="466.552734"/>
      <use xlink:href="#DejaVuSans-73" x="498.339844"/>
      <use xlink:href="#DejaVuSans-70" x="550.439453"/>
      <use xlink:href="#DejaVuSans-65" x="613.916016"/>
      <use xlink:href="#DejaVuSans-65" x="675.439453"/>
      <use xlink:href="#DejaVuSans-64" x="736.962891"/>
     </g>
    </g>
   </g>
  </g>
 </g>
 <defs>
  <clipPath id="p282f30bddd">
   <rect x="57.6" y="41.472" width="357.12" height="266.112"/>
  </clipPath>
 </defs>
</svg>
