<?xml version="1.0" encoding="utf-8" standalone="no"?>
<!DOCTYPE svg PUBLIC "-//W3C//DTD SVG 1.1//EN"
  "http://www.w3.org/Graphics/SVG/1.1/DTD/svg11.dtd">
<svg xmlns:xlink="http://www.w3.org/1999/xlink" width="460.8pt" height="345.6pt" viewBox="0 0 460.8 345.6" xmlns="http://www.w3.org/2000/svg" version="1.1">
 <metadata>
  <rdf:RDF xmlns:dc="http://purl.org/dc/elements/1.1/" xmlns:cc="http://creativecommons.org/ns#" xmlns:rdf="http://www.w3.org/1999/02/22-rdf-syntax-ns#">
   <cc:Work>
    <dc:type rdf:resource="http://purl.org/dc/dcmitype/StillImage"/>
    <dc:date>2024-01-30T20:59:27.846588</dc:date>
    <dc:format>image/svg+xml</dc:format>
    <dc:creator>
     <cc:Agent>
      <dc:title>Matplotlib v3.7.1, https://matplotlib.org/</dc:title>
     </cc:Agent>
    </dc:creator>
   </cc:Work>
  </rdf:RDF>
 </metadata>
 <defs>
  <style type="text/css">*{stroke-linejoin: round; stroke-linecap: butt}</style>
 </defs>
 <g id="figure_1">
  <g id="patch_1">
   <path d="M 0 345.6 
L 460.8 345.6 
L 460.8 0 
L 0 0 
z
" style="fill: #ffffff"/>
  </g>
  <g id="axes_1">
   <g id="patch_2">
    <path d="M 57.6 307.584 
L 414.72 307.584 
L 414.72 41.472 
L 57.6 41.472 
z
" style="fill: #ffffff"/>
   </g>
   <g id="matplotlib.axis_1">
    <g id="xtick_1">
     <g id="line2d_1">
      <path d="M 73.832727 307.584 
L 73.832727 41.472 
" clip-path="url(#p9edd86751e)" style="fill: none; stroke: #b0b0b0; stroke-width: 0.8; stroke-linecap: square"/>
     </g>
     <g id="line2d_2">
      <defs>
       <path id="m182fd3198b" d="M 0 0 
L 0 3.5 
" style="stroke: #000000; stroke-width: 0.8"/>
      </defs>
      <g>
       <use xlink:href="#m182fd3198b" x="73.832727" y="307.584" style="stroke: #000000; stroke-width: 0.8"/>
      </g>
     </g>
     <g id="text_1">
      <!-- 0 -->
      <g transform="translate(70.651477 322.182437) scale(0.1 -0.1)">
       <defs>
        <path id="DejaVuSans-30" d="M 2034 4250 
Q 1547 4250 1301 3770 
Q 1056 3291 1056 2328 
Q 1056 1369 1301 889 
Q 1547 409 2034 409 
Q 2525 409 2770 889 
Q 3016 1369 3016 2328 
Q 3016 3291 2770 3770 
Q 2525 4250 2034 4250 
z
M 2034 4750 
Q 2819 4750 3233 4129 
Q 3647 3509 3647 2328 
Q 3647 1150 3233 529 
Q 2819 -91 2034 -91 
Q 1250 -91 836 529 
Q 422 1150 422 2328 
Q 422 3509 836 4129 
Q 1250 4750 2034 4750 
z
" transform="scale(0.015625)"/>
       </defs>
       <use xlink:href="#DejaVuSans-30"/>
      </g>
     </g>
    </g>
    <g id="xtick_2">
     <g id="line2d_3">
      <path d="M 131.972868 307.584 
L 131.972868 41.472 
" clip-path="url(#p9edd86751e)" style="fill: none; stroke: #b0b0b0; stroke-width: 0.8; stroke-linecap: square"/>
     </g>
     <g id="line2d_4">
      <g>
       <use xlink:href="#m182fd3198b" x="131.972868" y="307.584" style="stroke: #000000; stroke-width: 0.8"/>
      </g>
     </g>
     <g id="text_2">
      <!-- 5 -->
      <g transform="translate(128.791618 322.182437) scale(0.1 -0.1)">
       <defs>
        <path id="DejaVuSans-35" d="M 691 4666 
L 3169 4666 
L 3169 4134 
L 1269 4134 
L 1269 2991 
Q 1406 3038 1543 3061 
Q 1681 3084 1819 3084 
Q 2600 3084 3056 2656 
Q 3513 2228 3513 1497 
Q 3513 744 3044 326 
Q 2575 -91 1722 -91 
Q 1428 -91 1123 -41 
Q 819 9 494 109 
L 494 744 
Q 775 591 1075 516 
Q 1375 441 1709 441 
Q 2250 441 2565 725 
Q 2881 1009 2881 1497 
Q 2881 1984 2565 2268 
Q 2250 2553 1709 2553 
Q 1456 2553 1204 2497 
Q 953 2441 691 2322 
L 691 4666 
z
" transform="scale(0.015625)"/>
       </defs>
       <use xlink:href="#DejaVuSans-35"/>
      </g>
     </g>
    </g>
    <g id="xtick_3">
     <g id="line2d_5">
      <path d="M 190.113009 307.584 
L 190.113009 41.472 
" clip-path="url(#p9edd86751e)" style="fill: none; stroke: #b0b0b0; stroke-width: 0.8; stroke-linecap: square"/>
     </g>
     <g id="line2d_6">
      <g>
       <use xlink:href="#m182fd3198b" x="190.113009" y="307.584" style="stroke: #000000; stroke-width: 0.8"/>
      </g>
     </g>
     <g id="text_3">
      <!-- 10 -->
      <g transform="translate(183.750509 322.182437) scale(0.1 -0.1)">
       <defs>
        <path id="DejaVuSans-31" d="M 794 531 
L 1825 531 
L 1825 4091 
L 703 3866 
L 703 4441 
L 1819 4666 
L 2450 4666 
L 2450 531 
L 3481 531 
L 3481 0 
L 794 0 
L 794 531 
z
" transform="scale(0.015625)"/>
       </defs>
       <use xlink:href="#DejaVuSans-31"/>
       <use xlink:href="#DejaVuSans-30" x="63.623047"/>
      </g>
     </g>
    </g>
    <g id="xtick_4">
     <g id="line2d_7">
      <path d="M 248.253149 307.584 
L 248.253149 41.472 
" clip-path="url(#p9edd86751e)" style="fill: none; stroke: #b0b0b0; stroke-width: 0.8; stroke-linecap: square"/>
     </g>
     <g id="line2d_8">
      <g>
       <use xlink:href="#m182fd3198b" x="248.253149" y="307.584" style="stroke: #000000; stroke-width: 0.8"/>
      </g>
     </g>
     <g id="text_4">
      <!-- 15 -->
      <g transform="translate(241.890649 322.182437) scale(0.1 -0.1)">
       <use xlink:href="#DejaVuSans-31"/>
       <use xlink:href="#DejaVuSans-35" x="63.623047"/>
      </g>
     </g>
    </g>
    <g id="xtick_5">
     <g id="line2d_9">
      <path d="M 306.39329 307.584 
L 306.39329 41.472 
" clip-path="url(#p9edd86751e)" style="fill: none; stroke: #b0b0b0; stroke-width: 0.8; stroke-linecap: square"/>
     </g>
     <g id="line2d_10">
      <g>
       <use xlink:href="#m182fd3198b" x="306.39329" y="307.584" style="stroke: #000000; stroke-width: 0.8"/>
      </g>
     </g>
     <g id="text_5">
      <!-- 20 -->
      <g transform="translate(300.03079 322.182437) scale(0.1 -0.1)">
       <defs>
        <path id="DejaVuSans-32" d="M 1228 531 
L 3431 531 
L 3431 0 
L 469 0 
L 469 531 
Q 828 903 1448 1529 
Q 2069 2156 2228 2338 
Q 2531 2678 2651 2914 
Q 2772 3150 2772 3378 
Q 2772 3750 2511 3984 
Q 2250 4219 1831 4219 
Q 1534 4219 1204 4116 
Q 875 4013 500 3803 
L 500 4441 
Q 881 4594 1212 4672 
Q 1544 4750 1819 4750 
Q 2544 4750 2975 4387 
Q 3406 4025 3406 3419 
Q 3406 3131 3298 2873 
Q 3191 2616 2906 2266 
Q 2828 2175 2409 1742 
Q 1991 1309 1228 531 
z
" transform="scale(0.015625)"/>
       </defs>
       <use xlink:href="#DejaVuSans-32"/>
       <use xlink:href="#DejaVuSans-30" x="63.623047"/>
      </g>
     </g>
    </g>
    <g id="xtick_6">
     <g id="line2d_11">
      <path d="M 364.533431 307.584 
L 364.533431 41.472 
" clip-path="url(#p9edd86751e)" style="fill: none; stroke: #b0b0b0; stroke-width: 0.8; stroke-linecap: square"/>
     </g>
     <g id="line2d_12">
      <g>
       <use xlink:href="#m182fd3198b" x="364.533431" y="307.584" style="stroke: #000000; stroke-width: 0.8"/>
      </g>
     </g>
     <g id="text_6">
      <!-- 25 -->
      <g transform="translate(358.170931 322.182437) scale(0.1 -0.1)">
       <use xlink:href="#DejaVuSans-32"/>
       <use xlink:href="#DejaVuSans-35" x="63.623047"/>
      </g>
     </g>
    </g>
    <g id="text_7">
     <!-- Time(s) -->
     <g transform="translate(217.420156 335.860562) scale(0.1 -0.1)">
      <defs>
       <path id="DejaVuSans-54" d="M -19 4666 
L 3928 4666 
L 3928 4134 
L 2272 4134 
L 2272 0 
L 1638 0 
L 1638 4134 
L -19 4134 
L -19 4666 
z
" transform="scale(0.015625)"/>
       <path id="DejaVuSans-69" d="M 603 3500 
L 1178 3500 
L 1178 0 
L 603 0 
L 603 3500 
z
M 603 4863 
L 1178 4863 
L 1178 4134 
L 603 4134 
L 603 4863 
z
" transform="scale(0.015625)"/>
       <path id="DejaVuSans-6d" d="M 3328 2828 
Q 3544 3216 3844 3400 
Q 4144 3584 4550 3584 
Q 5097 3584 5394 3201 
Q 5691 2819 5691 2113 
L 5691 0 
L 5113 0 
L 5113 2094 
Q 5113 2597 4934 2840 
Q 4756 3084 4391 3084 
Q 3944 3084 3684 2787 
Q 3425 2491 3425 1978 
L 3425 0 
L 2847 0 
L 2847 2094 
Q 2847 2600 2669 2842 
Q 2491 3084 2119 3084 
Q 1678 3084 1418 2786 
Q 1159 2488 1159 1978 
L 1159 0 
L 581 0 
L 581 3500 
L 1159 3500 
L 1159 2956 
Q 1356 3278 1631 3431 
Q 1906 3584 2284 3584 
Q 2666 3584 2933 3390 
Q 3200 3197 3328 2828 
z
" transform="scale(0.015625)"/>
       <path id="DejaVuSans-65" d="M 3597 1894 
L 3597 1613 
L 953 1613 
Q 991 1019 1311 708 
Q 1631 397 2203 397 
Q 2534 397 2845 478 
Q 3156 559 3463 722 
L 3463 178 
Q 3153 47 2828 -22 
Q 2503 -91 2169 -91 
Q 1331 -91 842 396 
Q 353 884 353 1716 
Q 353 2575 817 3079 
Q 1281 3584 2069 3584 
Q 2775 3584 3186 3129 
Q 3597 2675 3597 1894 
z
M 3022 2063 
Q 3016 2534 2758 2815 
Q 2500 3097 2075 3097 
Q 1594 3097 1305 2825 
Q 1016 2553 972 2059 
L 3022 2063 
z
" transform="scale(0.015625)"/>
       <path id="DejaVuSans-28" d="M 1984 4856 
Q 1566 4138 1362 3434 
Q 1159 2731 1159 2009 
Q 1159 1288 1364 580 
Q 1569 -128 1984 -844 
L 1484 -844 
Q 1016 -109 783 600 
Q 550 1309 550 2009 
Q 550 2706 781 3412 
Q 1013 4119 1484 4856 
L 1984 4856 
z
" transform="scale(0.015625)"/>
       <path id="DejaVuSans-73" d="M 2834 3397 
L 2834 2853 
Q 2591 2978 2328 3040 
Q 2066 3103 1784 3103 
Q 1356 3103 1142 2972 
Q 928 2841 928 2578 
Q 928 2378 1081 2264 
Q 1234 2150 1697 2047 
L 1894 2003 
Q 2506 1872 2764 1633 
Q 3022 1394 3022 966 
Q 3022 478 2636 193 
Q 2250 -91 1575 -91 
Q 1294 -91 989 -36 
Q 684 19 347 128 
L 347 722 
Q 666 556 975 473 
Q 1284 391 1588 391 
Q 1994 391 2212 530 
Q 2431 669 2431 922 
Q 2431 1156 2273 1281 
Q 2116 1406 1581 1522 
L 1381 1569 
Q 847 1681 609 1914 
Q 372 2147 372 2553 
Q 372 3047 722 3315 
Q 1072 3584 1716 3584 
Q 2034 3584 2315 3537 
Q 2597 3491 2834 3397 
z
" transform="scale(0.015625)"/>
       <path id="DejaVuSans-29" d="M 513 4856 
L 1013 4856 
Q 1481 4119 1714 3412 
Q 1947 2706 1947 2009 
Q 1947 1309 1714 600 
Q 1481 -109 1013 -844 
L 513 -844 
Q 928 -128 1133 580 
Q 1338 1288 1338 2009 
Q 1338 2731 1133 3434 
Q 928 4138 513 4856 
z
" transform="scale(0.015625)"/>
      </defs>
      <use xlink:href="#DejaVuSans-54"/>
      <use xlink:href="#DejaVuSans-69" x="57.958984"/>
      <use xlink:href="#DejaVuSans-6d" x="85.742188"/>
      <use xlink:href="#DejaVuSans-65" x="183.154297"/>
      <use xlink:href="#DejaVuSans-28" x="244.677734"/>
      <use xlink:href="#DejaVuSans-73" x="283.691406"/>
      <use xlink:href="#DejaVuSans-29" x="335.791016"/>
     </g>
    </g>
   </g>
   <g id="matplotlib.axis_2">
    <g id="ytick_1">
     <g id="line2d_13">
      <path d="M 57.6 257.862862 
L 414.72 257.862862 
" clip-path="url(#p9edd86751e)" style="fill: none; stroke: #b0b0b0; stroke-width: 0.8; stroke-linecap: square"/>
     </g>
     <g id="line2d_14">
      <defs>
       <path id="m87caaaac8d" d="M 0 0 
L -3.5 0 
" style="stroke: #000000; stroke-width: 0.8"/>
      </defs>
      <g>
       <use xlink:href="#m87caaaac8d" x="57.6" y="257.862862" style="stroke: #000000; stroke-width: 0.8"/>
      </g>
     </g>
     <g id="text_8">
      <!-- 4 -->
      <g transform="translate(44.2375 261.662081) scale(0.1 -0.1)">
       <defs>
        <path id="DejaVuSans-34" d="M 2419 4116 
L 825 1625 
L 2419 1625 
L 2419 4116 
z
M 2253 4666 
L 3047 4666 
L 3047 1625 
L 3713 1625 
L 3713 1100 
L 3047 1100 
L 3047 0 
L 2419 0 
L 2419 1100 
L 313 1100 
L 313 1709 
L 2253 4666 
z
" transform="scale(0.015625)"/>
       </defs>
       <use xlink:href="#DejaVuSans-34"/>
      </g>
     </g>
    </g>
    <g id="ytick_2">
     <g id="line2d_15">
      <path d="M 57.6 206.789147 
L 414.72 206.789147 
" clip-path="url(#p9edd86751e)" style="fill: none; stroke: #b0b0b0; stroke-width: 0.8; stroke-linecap: square"/>
     </g>
     <g id="line2d_16">
      <g>
       <use xlink:href="#m87caaaac8d" x="57.6" y="206.789147" style="stroke: #000000; stroke-width: 0.8"/>
      </g>
     </g>
     <g id="text_9">
      <!-- 5 -->
      <g transform="translate(44.2375 210.588365) scale(0.1 -0.1)">
       <use xlink:href="#DejaVuSans-35"/>
      </g>
     </g>
    </g>
    <g id="ytick_3">
     <g id="line2d_17">
      <path d="M 57.6 155.715431 
L 414.72 155.715431 
" clip-path="url(#p9edd86751e)" style="fill: none; stroke: #b0b0b0; stroke-width: 0.8; stroke-linecap: square"/>
     </g>
     <g id="line2d_18">
      <g>
       <use xlink:href="#m87caaaac8d" x="57.6" y="155.715431" style="stroke: #000000; stroke-width: 0.8"/>
      </g>
     </g>
     <g id="text_10">
      <!-- 6 -->
      <g transform="translate(44.2375 159.51465) scale(0.1 -0.1)">
       <defs>
        <path id="DejaVuSans-36" d="M 2113 2584 
Q 1688 2584 1439 2293 
Q 1191 2003 1191 1497 
Q 1191 994 1439 701 
Q 1688 409 2113 409 
Q 2538 409 2786 701 
Q 3034 994 3034 1497 
Q 3034 2003 2786 2293 
Q 2538 2584 2113 2584 
z
M 3366 4563 
L 3366 3988 
Q 3128 4100 2886 4159 
Q 2644 4219 2406 4219 
Q 1781 4219 1451 3797 
Q 1122 3375 1075 2522 
Q 1259 2794 1537 2939 
Q 1816 3084 2150 3084 
Q 2853 3084 3261 2657 
Q 3669 2231 3669 1497 
Q 3669 778 3244 343 
Q 2819 -91 2113 -91 
Q 1303 -91 875 529 
Q 447 1150 447 2328 
Q 447 3434 972 4092 
Q 1497 4750 2381 4750 
Q 2619 4750 2861 4703 
Q 3103 4656 3366 4563 
z
" transform="scale(0.015625)"/>
       </defs>
       <use xlink:href="#DejaVuSans-36"/>
      </g>
     </g>
    </g>
    <g id="ytick_4">
     <g id="line2d_19">
      <path d="M 57.6 104.641716 
L 414.72 104.641716 
" clip-path="url(#p9edd86751e)" style="fill: none; stroke: #b0b0b0; stroke-width: 0.8; stroke-linecap: square"/>
     </g>
     <g id="line2d_20">
      <g>
       <use xlink:href="#m87caaaac8d" x="57.6" y="104.641716" style="stroke: #000000; stroke-width: 0.8"/>
      </g>
     </g>
     <g id="text_11">
      <!-- 7 -->
      <g transform="translate(44.2375 108.440934) scale(0.1 -0.1)">
       <defs>
        <path id="DejaVuSans-37" d="M 525 4666 
L 3525 4666 
L 3525 4397 
L 1831 0 
L 1172 0 
L 2766 4134 
L 525 4134 
L 525 4666 
z
" transform="scale(0.015625)"/>
       </defs>
       <use xlink:href="#DejaVuSans-37"/>
      </g>
     </g>
    </g>
    <g id="ytick_5">
     <g id="line2d_21">
      <path d="M 57.6 53.568 
L 414.72 53.568 
" clip-path="url(#p9edd86751e)" style="fill: none; stroke: #b0b0b0; stroke-width: 0.8; stroke-linecap: square"/>
     </g>
     <g id="line2d_22">
      <g>
       <use xlink:href="#m87caaaac8d" x="57.6" y="53.568" style="stroke: #000000; stroke-width: 0.8"/>
      </g>
     </g>
     <g id="text_12">
      <!-- 8 -->
      <g transform="translate(44.2375 57.367219) scale(0.1 -0.1)">
       <defs>
        <path id="DejaVuSans-38" d="M 2034 2216 
Q 1584 2216 1326 1975 
Q 1069 1734 1069 1313 
Q 1069 891 1326 650 
Q 1584 409 2034 409 
Q 2484 409 2743 651 
Q 3003 894 3003 1313 
Q 3003 1734 2745 1975 
Q 2488 2216 2034 2216 
z
M 1403 2484 
Q 997 2584 770 2862 
Q 544 3141 544 3541 
Q 544 4100 942 4425 
Q 1341 4750 2034 4750 
Q 2731 4750 3128 4425 
Q 3525 4100 3525 3541 
Q 3525 3141 3298 2862 
Q 3072 2584 2669 2484 
Q 3125 2378 3379 2068 
Q 3634 1759 3634 1313 
Q 3634 634 3220 271 
Q 2806 -91 2034 -91 
Q 1263 -91 848 271 
Q 434 634 434 1313 
Q 434 1759 690 2068 
Q 947 2378 1403 2484 
z
M 1172 3481 
Q 1172 3119 1398 2916 
Q 1625 2713 2034 2713 
Q 2441 2713 2670 2916 
Q 2900 3119 2900 3481 
Q 2900 3844 2670 4047 
Q 2441 4250 2034 4250 
Q 1625 4250 1398 4047 
Q 1172 3844 1172 3481 
z
" transform="scale(0.015625)"/>
       </defs>
       <use xlink:href="#DejaVuSans-38"/>
      </g>
     </g>
    </g>
    <g id="text_13">
     <!-- Velocity(m/s) -->
     <g transform="translate(38.157812 207.204563) rotate(-90) scale(0.1 -0.1)">
      <defs>
       <path id="DejaVuSans-56" d="M 1831 0 
L 50 4666 
L 709 4666 
L 2188 738 
L 3669 4666 
L 4325 4666 
L 2547 0 
L 1831 0 
z
" transform="scale(0.015625)"/>
       <path id="DejaVuSans-6c" d="M 603 4863 
L 1178 4863 
L 1178 0 
L 603 0 
L 603 4863 
z
" transform="scale(0.015625)"/>
       <path id="DejaVuSans-6f" d="M 1959 3097 
Q 1497 3097 1228 2736 
Q 959 2375 959 1747 
Q 959 1119 1226 758 
Q 1494 397 1959 397 
Q 2419 397 2687 759 
Q 2956 1122 2956 1747 
Q 2956 2369 2687 2733 
Q 2419 3097 1959 3097 
z
M 1959 3584 
Q 2709 3584 3137 3096 
Q 3566 2609 3566 1747 
Q 3566 888 3137 398 
Q 2709 -91 1959 -91 
Q 1206 -91 779 398 
Q 353 888 353 1747 
Q 353 2609 779 3096 
Q 1206 3584 1959 3584 
z
" transform="scale(0.015625)"/>
       <path id="DejaVuSans-63" d="M 3122 3366 
L 3122 2828 
Q 2878 2963 2633 3030 
Q 2388 3097 2138 3097 
Q 1578 3097 1268 2742 
Q 959 2388 959 1747 
Q 959 1106 1268 751 
Q 1578 397 2138 397 
Q 2388 397 2633 464 
Q 2878 531 3122 666 
L 3122 134 
Q 2881 22 2623 -34 
Q 2366 -91 2075 -91 
Q 1284 -91 818 406 
Q 353 903 353 1747 
Q 353 2603 823 3093 
Q 1294 3584 2113 3584 
Q 2378 3584 2631 3529 
Q 2884 3475 3122 3366 
z
" transform="scale(0.015625)"/>
       <path id="DejaVuSans-74" d="M 1172 4494 
L 1172 3500 
L 2356 3500 
L 2356 3053 
L 1172 3053 
L 1172 1153 
Q 1172 725 1289 603 
Q 1406 481 1766 481 
L 2356 481 
L 2356 0 
L 1766 0 
Q 1100 0 847 248 
Q 594 497 594 1153 
L 594 3053 
L 172 3053 
L 172 3500 
L 594 3500 
L 594 4494 
L 1172 4494 
z
" transform="scale(0.015625)"/>
       <path id="DejaVuSans-79" d="M 2059 -325 
Q 1816 -950 1584 -1140 
Q 1353 -1331 966 -1331 
L 506 -1331 
L 506 -850 
L 844 -850 
Q 1081 -850 1212 -737 
Q 1344 -625 1503 -206 
L 1606 56 
L 191 3500 
L 800 3500 
L 1894 763 
L 2988 3500 
L 3597 3500 
L 2059 -325 
z
" transform="scale(0.015625)"/>
       <path id="DejaVuSans-2f" d="M 1625 4666 
L 2156 4666 
L 531 -594 
L 0 -594 
L 1625 4666 
z
" transform="scale(0.015625)"/>
      </defs>
      <use xlink:href="#DejaVuSans-56"/>
      <use xlink:href="#DejaVuSans-65" x="60.658203"/>
      <use xlink:href="#DejaVuSans-6c" x="122.181641"/>
      <use xlink:href="#DejaVuSans-6f" x="149.964844"/>
      <use xlink:href="#DejaVuSans-63" x="211.146484"/>
      <use xlink:href="#DejaVuSans-69" x="266.126953"/>
      <use xlink:href="#DejaVuSans-74" x="293.910156"/>
      <use xlink:href="#DejaVuSans-79" x="333.119141"/>
      <use xlink:href="#DejaVuSans-28" x="392.298828"/>
      <use xlink:href="#DejaVuSans-6d" x="431.3125"/>
      <use xlink:href="#DejaVuSans-2f" x="528.724609"/>
      <use xlink:href="#DejaVuSans-73" x="562.416016"/>
      <use xlink:href="#DejaVuSans-29" x="614.515625"/>
     </g>
    </g>
   </g>
   <g id="line2d_23">
    <path d="M 73.832727 54.064232 
L 75.693212 53.795584 
L 75.693212 53.795584 
L 78.716499 53.632149 
L 78.716499 53.632149 
L 85.228195 53.572188 
L 85.228195 53.572188 
L 87.5538 53.6108 
L 87.5538 53.6108 
L 87.786361 54.500044 
L 87.786361 54.500044 
L 88.949164 64.705339 
L 88.949164 64.705339 
L 89.414285 69.6053 
L 89.414285 69.6053 
L 89.879406 74.200555 
L 89.879406 74.200555 
L 90.577088 81.519266 
L 90.577088 81.519266 
L 92.437572 101.303078 
L 92.437572 101.303078 
L 93.135254 107.907675 
L 93.135254 107.907675 
L 94.065496 116.37774 
L 94.065496 116.37774 
L 94.530617 119.842019 
L 94.530617 119.842019 
L 95.69342 126.720576 
L 95.69342 126.720576 
L 96.623662 129.896749 
L 96.623662 129.896749 
L 97.321344 131.312205 
L 97.321344 131.312205 
L 98.019026 132.076013 
L 98.019026 132.076013 
L 98.949268 132.357327 
L 98.949268 132.357327 
L 99.414389 132.421373 
L 99.414389 132.421373 
L 100.809753 132.197568 
L 100.809753 132.197568 
L 101.274874 131.940055 
L 101.274874 131.940055 
L 101.972555 131.05985 
L 101.972555 131.05985 
L 102.670237 129.407105 
L 102.670237 129.407105 
L 103.600479 125.387552 
L 103.600479 125.387552 
L 104.0656 122.906749 
L 104.0656 122.906749 
L 104.530722 120.001318 
L 104.530722 120.001318 
L 105.460964 111.881313 
L 105.460964 111.881313 
L 108.484251 74.045444 
L 108.484251 74.045444 
L 109.181933 68.855231 
L 109.181933 68.855231 
L 109.879614 64.980524 
L 109.879614 64.980524 
L 110.577296 62.087913 
L 110.577296 62.087913 
L 111.274978 59.928465 
L 111.274978 59.928465 
L 111.97266 58.316323 
L 111.97266 58.316323 
L 112.902902 56.783703 
L 112.902902 56.783703 
L 113.833144 55.745783 
L 113.833144 55.745783 
L 114.763386 55.042856 
L 114.763386 55.042856 
L 115.926189 54.474099 
L 115.926189 54.474099 
L 117.321552 54.072966 
L 117.321552 54.072966 
L 119.182037 53.799619 
L 119.182037 53.799619 
L 121.972764 53.639912 
L 121.972764 53.639912 
L 128.019338 53.57372 
L 128.019338 53.57372 
L 131.507747 53.576683 
L 131.507747 53.576683 
L 131.740307 55.389646 
L 131.740307 55.389646 
L 132.205428 62.256609 
L 132.205428 62.256609 
L 132.67055 71.116571 
L 132.67055 71.116571 
L 133.135671 81.695163 
L 133.135671 81.695163 
L 133.600792 91.801681 
L 133.600792 91.801681 
L 134.065913 102.478488 
L 134.065913 102.478488 
L 136.158958 139.986208 
L 136.158958 139.986208 
L 137.786882 161.884727 
L 137.786882 161.884727 
L 139.879927 178.656008 
L 139.879927 178.656008 
L 141.740412 188.661757 
L 141.740412 188.661757 
L 143.135775 194.775332 
L 143.135775 194.775332 
L 144.996259 199.900477 
L 144.996259 199.900477 
L 145.926502 201.376814 
L 145.926502 201.376814 
L 146.856744 202.098588 
L 146.856744 202.098588 
L 147.786986 202.47066 
L 147.786986 202.47066 
L 148.484668 202.54109 
L 148.484668 202.54109 
L 149.18235 202.514123 
L 149.18235 202.514123 
L 151.042834 201.799296 
L 151.042834 201.799296 
L 151.973076 200.591351 
L 151.973076 200.591351 
L 152.903319 198.180467 
L 152.903319 198.180467 
L 153.833561 194.024906 
L 153.833561 194.024906 
L 154.763803 187.475315 
L 154.763803 187.475315 
L 155.694045 177.861249 
L 155.694045 177.861249 
L 156.856848 163.684718 
L 156.856848 163.684718 
L 157.321969 161.026025 
L 157.321969 161.026025 
L 157.55453 160.265793 
L 157.55453 160.265793 
L 158.019651 159.786721 
L 158.019651 159.786721 
L 158.252212 159.908685 
L 158.484772 160.390617 
L 158.484772 160.390617 
L 160.112696 166.299539 
L 160.112696 166.299539 
L 160.577817 167.197211 
L 160.577817 167.197211 
L 161.042938 167.757694 
L 161.042938 167.757694 
L 161.275499 167.824703 
L 161.275499 167.824703 
L 161.74062 168.125578 
L 161.74062 168.125578 
L 163.135983 168.114188 
L 163.135983 168.114188 
L 163.833665 167.959639 
L 163.833665 167.959639 
L 164.996468 166.831217 
L 164.996468 166.831217 
L 165.461589 166.105306 
L 165.461589 166.105306 
L 166.624392 162.47468 
L 166.624392 162.47468 
L 168.019755 154.201759 
L 168.019755 154.201759 
L 168.717437 148.855158 
L 168.717437 148.855158 
L 169.415119 142.111692 
L 169.415119 142.111692 
L 170.577921 128.563622 
L 170.577921 128.563622 
L 171.740724 113.600913 
L 171.740724 113.600913 
L 172.205845 110.906417 
L 172.205845 110.906417 
L 172.670966 112.47719 
L 172.670966 112.47719 
L 172.903527 115.186395 
L 172.903527 115.186395 
L 174.996572 164.059548 
L 174.996572 164.059548 
L 175.461693 173.213899 
L 175.461693 173.213899 
L 175.926814 183.844688 
L 175.926814 183.844688 
L 176.391935 192.902714 
L 176.391935 192.902714 
L 177.089617 205.332524 
L 177.089617 205.332524 
L 177.787299 215.527706 
L 177.787299 215.527706 
L 178.48498 226.28521 
L 178.48498 226.28521 
L 178.717541 228.663712 
L 178.717541 228.663712 
L 179.182662 234.5044 
L 179.182662 234.5044 
L 179.415223 238.261025 
L 179.415223 238.261025 
L 179.880344 241.811619 
L 179.880344 241.811619 
L 181.043147 252.812897 
L 181.043147 252.812897 
L 181.973389 258.362772 
L 181.973389 258.362772 
L 182.43851 261.115032 
L 182.43851 261.115032 
L 183.368752 265.266048 
L 183.368752 265.266048 
L 184.531555 268.42603 
L 184.531555 268.42603 
L 185.461797 269.662116 
L 185.461797 269.662116 
L 186.159479 270.027293 
L 186.159479 270.027293 
L 187.322282 270.164937 
L 187.322282 270.164937 
L 188.717645 270.117234 
L 188.717645 270.117234 
L 189.880448 269.46252 
L 189.880448 269.46252 
L 191.043251 267.677545 
L 191.043251 267.677545 
L 191.973493 264.572722 
L 191.973493 264.572722 
L 192.438614 262.584627 
L 192.438614 262.584627 
L 192.671175 261.553857 
L 192.671175 261.553857 
L 194.299099 249.439683 
L 194.299099 249.439683 
L 195.461902 238.368944 
L 195.461902 238.368944 
L 195.694462 237.929404 
L 195.694462 237.929404 
L 195.927023 237.200531 
L 195.927023 237.200531 
L 196.159583 240.301727 
L 196.159583 240.301727 
L 196.392144 240.64913 
L 196.392144 240.64913 
L 196.624704 242.178022 
L 196.624704 242.178022 
L 197.554947 255.63615 
L 197.554947 255.63615 
L 198.252628 264.274861 
L 198.252628 264.274861 
L 198.485189 268.26525 
L 198.485189 268.26525 
L 199.415431 277.006159 
L 199.415431 277.006159 
L 199.647992 280.016086 
L 199.647992 280.016086 
L 200.810794 287.053482 
L 200.810794 287.053482 
L 201.275916 289.281165 
L 201.275916 289.281165 
L 202.438718 293.229367 
L 202.438718 293.229367 
L 203.368961 294.568469 
L 203.368961 294.568469 
L 203.834082 295.036355 
L 203.834082 295.036355 
L 204.531763 295.21593 
L 204.531763 295.21593 
L 205.229445 295.350969 
L 205.229445 295.350969 
L 206.392248 295.164039 
L 206.392248 295.164039 
L 207.08993 294.795134 
L 207.08993 294.795134 
L 207.555051 294.396453 
L 207.555051 294.396453 
L 207.787611 294.134138 
L 207.787611 294.134138 
L 209.182975 291.26451 
L 209.182975 291.26451 
L 209.880656 288.464138 
L 209.880656 288.464138 
L 210.345778 286.599437 
L 210.345778 286.599437 
L 212.206262 273.588868 
L 212.206262 273.588868 
L 212.903944 266.467455 
L 212.903944 266.467455 
L 213.601625 256.781376 
L 213.601625 256.781376 
L 214.066747 252.204405 
L 214.066747 252.204405 
L 214.764428 249.498213 
L 214.764428 249.498213 
L 215.229549 249.411133 
L 215.229549 249.411133 
L 215.46211 251.761494 
L 215.46211 251.761494 
L 215.69467 252.758606 
L 215.69467 252.758606 
L 216.392352 258.065982 
L 216.392352 258.065982 
L 217.090034 264.547135 
L 217.090034 264.547135 
L 218.485397 272.016359 
L 218.485397 272.016359 
L 219.880761 276.369321 
L 219.880761 276.369321 
L 220.578442 277.628288 
L 220.578442 277.628288 
L 221.276124 278.303789 
L 221.276124 278.303789 
L 221.973806 278.718201 
L 221.973806 278.718201 
L 222.671487 278.811104 
L 222.671487 278.811104 
L 224.997093 278.605379 
L 224.997093 278.605379 
L 226.159896 277.904086 
L 226.159896 277.904086 
L 227.322699 276.292506 
L 227.322699 276.292506 
L 228.950623 271.787753 
L 228.950623 271.787753 
L 229.648304 269.17472 
L 229.648304 269.17472 
L 230.578546 264.699283 
L 230.578546 264.699283 
L 231.276228 260.798426 
L 231.276228 260.798426 
L 231.97391 256.630913 
L 231.97391 256.630913 
L 234.532076 236.67391 
L 234.532076 236.67391 
L 235.229758 230.067933 
L 235.229758 230.067933 
L 237.090242 207.660924 
L 237.090242 207.660924 
L 241.508893 137.890909 
L 241.508893 137.890909 
L 244.997301 81.060368 
L 244.997301 81.060368 
L 245.694983 74.092126 
L 245.694983 74.092126 
L 246.392665 68.890115 
L 246.392665 68.890115 
L 247.090346 65.006571 
L 247.090346 65.006571 
L 247.788028 62.107321 
L 247.788028 62.107321 
L 248.48571 59.94297 
L 248.48571 59.94297 
L 249.183392 58.327151 
L 249.183392 58.327151 
L 250.113634 56.791058 
L 250.113634 56.791058 
L 251.043876 55.750737 
L 251.043876 55.750737 
L 251.974118 55.046227 
L 251.974118 55.046227 
L 253.136921 54.476142 
L 253.136921 54.476142 
L 254.532284 54.074141 
L 254.532284 54.074141 
L 256.392769 53.80013 
L 256.392769 53.80013 
L 259.183496 53.640116 
L 259.183496 53.640116 
L 265.23007 53.57372 
L 265.23007 53.57372 
L 282.904673 53.568 
L 282.904673 53.568 
L 283.137234 54.474661 
L 283.137234 54.474661 
L 283.369794 56.952706 
L 283.369794 56.952706 
L 284.765158 83.730349 
L 284.765158 83.730349 
L 285.92796 97.707233 
L 285.92796 97.707233 
L 286.625642 102.696573 
L 286.625642 102.696573 
L 287.090763 104.650807 
L 287.090763 104.650807 
L 287.788445 105.907884 
L 287.788445 105.907884 
L 288.486127 106.38624 
L 288.486127 106.38624 
L 289.183808 106.254419 
L 289.183808 106.254419 
L 289.416369 106.080973 
L 289.416369 106.080973 
L 290.346611 104.140989 
L 290.346611 104.140989 
L 290.811732 102.684162 
L 290.811732 102.684162 
L 291.741974 97.474796 
L 291.741974 97.474796 
L 293.369898 81.519061 
L 293.369898 81.519061 
L 294.06758 74.434575 
L 294.06758 74.434575 
L 294.765262 69.145739 
L 294.765262 69.145739 
L 295.462943 65.197434 
L 295.462943 65.197434 
L 296.160625 62.249817 
L 296.160625 62.249817 
L 296.625746 61.081761 
L 296.625746 61.081761 
L 296.858307 60.724704 
L 296.858307 60.724704 
L 297.090867 60.713264 
L 297.090867 60.713264 
L 297.323428 62.010179 
L 297.323428 62.010179 
L 298.25367 71.09655 
L 298.25367 71.09655 
L 299.881594 90.0093 
L 299.881594 90.0093 
L 300.811836 100.450351 
L 300.811836 100.450351 
L 303.835124 138.544499 
L 303.835124 138.544499 
L 304.300245 144.509602 
L 304.300245 144.509602 
L 305.463048 156.834099 
L 305.463048 156.834099 
L 306.62585 166.818857 
L 306.62585 166.818857 
L 307.556093 173.126205 
L 307.556093 173.126205 
L 308.486335 177.345201 
L 308.486335 177.345201 
L 309.416577 180.220702 
L 309.416577 180.220702 
L 310.114259 181.632379 
L 310.114259 181.632379 
L 310.57938 182.064157 
L 310.57938 182.064157 
L 310.811941 182.081573 
L 310.811941 182.081573 
L 311.044501 182.286634 
L 311.742183 182.259769 
L 311.742183 182.259769 
L 312.207304 182.349914 
L 312.207304 182.349914 
L 312.904986 182.279126 
L 312.904986 182.279126 
L 313.137546 182.22606 
L 313.137546 182.22606 
L 314.53291 181.052233 
L 314.53291 181.052233 
L 315.230591 179.723959 
L 315.230591 179.723959 
L 315.695712 178.490069 
L 315.695712 178.490069 
L 317.091076 171.973676 
L 317.091076 171.973676 
L 317.556197 168.704447 
L 317.556197 168.704447 
L 318.253879 163.405039 
L 318.253879 163.405039 
L 319.184121 154.367902 
L 319.184121 154.367902 
L 320.114363 143.755142 
L 320.114363 143.755142 
L 321.742287 118.694802 
L 321.742287 118.694802 
L 322.672529 102.437425 
L 322.672529 102.437425 
L 323.602772 86.92455 
L 323.602772 86.92455 
L 324.300453 78.470011 
L 324.300453 78.470011 
L 324.998135 72.158373 
L 324.998135 72.158373 
L 325.695817 67.446465 
L 325.695817 67.446465 
L 326.393498 63.928814 
L 326.393498 63.928814 
L 327.09118 61.302757 
L 327.09118 61.302757 
L 327.788862 59.342292 
L 327.788862 59.342292 
L 328.486543 57.878775 
L 328.486543 57.878775 
L 329.416786 56.487374 
L 329.416786 56.487374 
L 330.347028 55.545115 
L 330.347028 55.545115 
L 331.04471 55.043979 
L 331.04471 55.043979 
L 331.27727 54.989177 
L 331.27727 54.989177 
L 331.974952 58.491353 
L 331.974952 58.491353 
L 332.207512 60.854636 
L 332.207512 60.854636 
L 333.137755 76.220061 
L 333.137755 76.220061 
L 335.2308 122.545147 
L 335.2308 122.545147 
L 336.393603 137.808322 
L 336.393603 137.808322 
L 337.091284 143.581899 
L 337.091284 143.581899 
L 337.788966 147.616978 
L 337.788966 147.616978 
L 338.486648 149.943386 
L 338.486648 149.943386 
L 338.951769 150.927679 
L 338.951769 150.927679 
L 339.41689 151.443779 
L 339.41689 151.443779 
L 340.347132 151.81774 
L 340.347132 151.81774 
L 341.742495 151.828211 
L 341.742495 151.828211 
L 342.672738 151.301232 
L 342.672738 151.301232 
L 342.905298 151.156387 
L 342.905298 151.156387 
L 343.60298 150.279553 
L 343.60298 150.279553 
L 344.765783 147.718411 
L 344.765783 147.718411 
L 345.463464 145.561159 
L 345.463464 145.561159 
L 345.928586 144.621607 
L 345.928586 144.621607 
L 346.393707 144.617368 
L 346.393707 144.617368 
L 346.626267 145.662387 
L 346.626267 145.662387 
L 346.858828 148.310202 
L 346.858828 148.310202 
L 347.091388 149.561661 
L 347.091388 149.561661 
L 347.78907 157.227213 
L 347.78907 157.227213 
L 348.021631 163.012231 
L 348.021631 163.012231 
L 348.254191 165.779813 
L 348.254191 165.779813 
L 348.951873 180.278773 
L 348.951873 180.278773 
L 349.416994 190.299895 
L 349.416994 190.299895 
L 349.649555 198.776804 
L 349.649555 198.776804 
L 349.882115 202.68997 
L 349.882115 202.68997 
L 350.114676 209.698254 
L 350.114676 209.698254 
L 350.347236 212.958902 
L 350.579797 219.27907 
L 350.579797 219.27907 
L 351.277479 228.623109 
L 351.277479 228.623109 
L 353.137963 253.101362 
L 353.137963 253.101362 
L 353.835645 260.592292 
L 353.835645 260.592292 
L 354.765887 267.438673 
L 354.765887 267.438673 
L 355.463569 273.262456 
L 355.463569 273.262456 
L 356.626371 279.064379 
L 356.626371 279.064379 
L 357.556614 281.680783 
L 357.556614 281.680783 
L 358.254295 282.960588 
L 358.254295 282.960588 
L 358.951977 283.583841 
L 358.951977 283.583841 
L 359.417098 283.804019 
L 359.417098 283.804019 
L 361.742704 283.685682 
L 361.742704 283.685682 
L 362.905507 282.792607 
L 362.905507 282.792607 
L 364.068309 280.538264 
L 364.068309 280.538264 
L 365.463673 275.471189 
L 365.463673 275.471189 
L 365.928794 272.972101 
L 365.928794 272.972101 
L 366.859036 267.801347 
L 366.859036 267.801347 
L 367.556718 263.433472 
L 367.556718 263.433472 
L 370.347445 239.805852 
L 370.347445 239.805852 
L 371.277687 229.996277 
L 371.277687 229.996277 
L 373.835853 204.726381 
L 373.835853 204.726381 
L 374.533535 201.919983 
L 374.533535 201.919983 
L 374.998656 200.777566 
L 374.998656 200.777566 
L 375.463777 200.045067 
L 375.463777 200.045067 
L 376.161459 199.380444 
L 376.161459 199.380444 
L 376.85914 198.934418 
L 376.85914 198.934418 
L 378.021943 198.497176 
L 378.021943 198.497176 
L 378.719625 198.230009 
L 378.719625 198.230009 
L 380.114988 195.991193 
L 380.114988 195.991193 
L 381.045231 192.792088 
L 381.045231 192.792088 
L 382.208033 186.097805 
L 382.208033 186.097805 
L 382.905715 180.702174 
L 382.905715 180.702174 
L 383.370836 175.707726 
L 383.370836 175.707726 
L 384.068518 167.57817 
L 384.068518 167.57817 
L 385.231321 150.146404 
L 385.231321 150.146404 
L 386.859245 118.883264 
L 386.859245 118.883264 
L 388.254608 91.473124 
L 388.254608 91.473124 
L 388.95229 81.865699 
L 388.95229 81.865699 
L 389.649971 74.693366 
L 389.649971 74.693366 
L 390.347653 69.338899 
L 390.347653 69.338899 
L 391.045335 65.341615 
L 391.045335 65.341615 
L 391.743016 62.35748 
L 391.743016 62.35748 
L 392.440698 60.129696 
L 392.440698 60.129696 
L 393.13838 58.466582 
L 393.13838 58.466582 
L 394.068622 56.885442 
L 394.068622 56.885442 
L 394.998864 55.814682 
L 394.998864 55.814682 
L 395.929107 55.089537 
L 395.929107 55.089537 
L 397.091909 54.50791 
L 397.091909 54.50791 
L 398.254712 54.157646 
L 398.254712 54.157646 
L 398.487273 54.111169 
L 398.487273 54.111169 
" clip-path="url(#p9edd86751e)" style="fill: none; stroke: #1f77b4; stroke-width: 1.5; stroke-linecap: square"/>
   </g>
   <g id="line2d_24">
    <path d="M 73.832727 53.568 
L 87.088679 53.568 
L 87.088679 53.568 
L 87.32124 53.689045 
L 87.32124 53.689045 
L 87.5538 56.19421 
L 87.5538 56.19421 
L 88.018922 63.723906 
L 88.018922 63.723906 
L 88.251482 63.620788 
L 88.251482 63.620788 
L 88.716603 69.02975 
L 88.716603 69.02975 
L 88.949164 73.227499 
L 88.949164 73.227499 
L 89.181724 73.351608 
L 89.181724 73.351608 
L 89.646846 78.92993 
L 89.646846 78.92993 
L 89.879406 82.590537 
L 89.879406 82.590537 
L 90.111967 83.291421 
L 90.111967 83.291421 
L 90.577088 89.151824 
L 90.577088 89.151824 
L 90.809648 92.918868 
L 91.042209 93.474805 
L 91.042209 93.474805 
L 91.50733 99.215899 
L 91.50733 99.215899 
L 91.739891 102.980849 
L 91.972451 102.870122 
L 91.972451 102.870122 
L 93.367815 118.189376 
L 93.367815 118.189376 
L 93.600375 117.591201 
L 93.600375 117.591201 
L 94.065496 122.44826 
L 94.065496 122.44826 
L 94.298057 122.460824 
L 94.298057 122.460824 
L 94.763178 126.505811 
L 94.763178 126.505811 
L 94.995738 126.324551 
L 94.995738 126.324551 
L 95.46086 129.270585 
L 95.46086 129.270585 
L 95.69342 129.150817 
L 95.69342 129.150817 
L 96.158541 131.047133 
L 96.158541 131.047133 
L 96.391102 130.995344 
L 96.391102 130.995344 
L 96.856223 131.877898 
L 96.856223 131.877898 
L 97.321344 132.20717 
L 97.321344 132.20717 
L 97.553905 132.442007 
L 97.553905 132.442007 
L 98.019026 132.361975 
L 98.019026 132.361975 
L 98.251586 132.563103 
L 98.251586 132.563103 
L 98.716707 132.344558 
L 98.716707 132.344558 
L 98.949268 132.544665 
L 98.949268 132.544665 
L 99.414389 132.191593 
L 99.414389 132.191593 
L 99.64695 132.416726 
L 99.64695 132.416726 
L 99.87951 132.11013 
L 99.87951 132.11013 
L 100.112071 132.224382 
L 100.112071 132.224382 
L 100.344631 131.82994 
L 100.344631 131.82994 
L 100.577192 131.055203 
L 100.809753 131.120832 
L 100.809753 131.120832 
L 101.042313 130.400591 
L 101.042313 130.400591 
L 101.274874 128.80658 
L 101.274874 128.80658 
L 101.507434 128.944019 
L 101.507434 128.944019 
L 101.739995 127.755789 
L 101.739995 127.755789 
L 101.972555 125.038208 
L 101.972555 125.038208 
L 102.205116 125.429382 
L 102.205116 125.429382 
L 102.437676 123.320957 
L 102.437676 123.320957 
L 102.670237 119.544004 
L 102.670237 119.544004 
L 102.902798 120.370837 
L 103.135358 117.283635 
L 103.135358 117.283635 
L 103.367919 111.908433 
L 103.600479 113.593303 
L 103.600479 113.593303 
L 103.83304 109.365268 
L 103.83304 109.365268 
L 104.0656 108.210491 
L 104.0656 108.210491 
L 104.298161 104.943102 
L 104.298161 104.943102 
L 104.530722 99.767393 
L 104.530722 99.767393 
L 104.763282 98.106068 
L 104.763282 98.106068 
L 104.995843 94.642606 
L 104.995843 94.642606 
L 105.460964 79.956563 
L 105.460964 79.956563 
L 105.693524 82.344668 
L 105.693524 82.344668 
L 105.926085 76.129661 
L 105.926085 76.129661 
L 106.158645 66.831384 
L 106.158645 66.831384 
L 106.391206 67.857711 
L 106.623767 62.724955 
L 106.623767 62.724955 
L 106.856327 53.940583 
L 106.856327 53.940583 
L 107.321448 53.568 
L 107.321448 53.568 
L 131.275186 53.590472 
L 131.275186 53.590472 
L 131.507747 58.843404 
L 131.507747 58.843404 
L 131.740307 68.208025 
L 131.740307 68.208025 
L 131.972868 66.932868 
L 132.437989 80.79407 
L 132.437989 80.79407 
L 132.67055 89.467664 
L 132.67055 89.467664 
L 132.90311 89.814097 
L 132.90311 89.814097 
L 133.368231 102.097836 
L 133.368231 102.097836 
L 133.600792 110.690427 
L 133.600792 110.690427 
L 133.833352 110.431892 
L 133.833352 110.431892 
L 134.065913 114.977452 
L 134.065913 114.977452 
L 134.298474 122.578651 
L 134.298474 122.578651 
L 134.531034 123.467334 
L 134.531034 123.467334 
L 135.693837 145.032393 
L 135.693837 145.032393 
L 135.926397 146.391056 
L 135.926397 146.391056 
L 136.158958 149.189538 
L 136.158958 149.189538 
L 136.391519 155.176501 
L 136.391519 155.176501 
L 136.624079 155.164295 
L 136.624079 155.164295 
L 136.85664 158.804574 
L 136.85664 158.804574 
L 137.0892 164.22804 
L 137.0892 164.22804 
L 137.321761 163.345691 
L 137.554321 167.171419 
L 137.554321 167.171419 
L 137.786882 167.480108 
L 137.786882 167.480108 
L 138.252003 171.831231 
L 138.252003 171.831231 
L 138.484564 173.338059 
L 138.484564 173.338059 
L 138.717124 176.938603 
L 138.717124 176.938603 
L 138.949685 176.812195 
L 138.949685 176.812195 
L 139.182245 179.592393 
L 139.182245 179.592393 
L 139.414806 179.851745 
L 139.414806 179.851745 
L 140.345048 186.412011 
L 140.345048 186.412011 
L 140.577609 186.188002 
L 140.577609 186.188002 
L 140.810169 188.11772 
L 140.810169 188.11772 
L 141.04273 188.269664 
L 141.04273 188.269664 
L 141.27529 190.054231 
L 141.27529 190.054231 
L 141.507851 190.497857 
L 141.507851 190.497857 
L 142.438093 195.35793 
L 142.438093 195.35793 
L 142.670654 195.35701 
L 142.670654 195.35701 
L 142.903214 196.678951 
L 142.903214 196.678951 
L 143.135775 196.662914 
L 143.135775 196.662914 
L 143.368336 197.748333 
L 143.368336 197.748333 
L 143.600896 197.805331 
L 143.600896 197.805331 
L 143.833457 198.848001 
L 144.066017 199.000814 
L 144.066017 199.000814 
L 144.298578 200.246042 
L 144.298578 200.246042 
L 144.531138 200.309782 
L 144.531138 200.309782 
L 144.763699 201.035182 
L 144.763699 201.035182 
L 144.996259 201.039676 
L 144.996259 201.039676 
L 145.22882 201.643061 
L 145.22882 201.643061 
L 145.461381 201.492291 
L 145.461381 201.492291 
L 145.693941 202.074838 
L 145.693941 202.074838 
L 145.926502 201.962731 
L 145.926502 201.962731 
L 146.159062 202.349206 
L 146.159062 202.349206 
L 146.391623 201.981884 
L 146.391623 201.981884 
L 146.624183 202.493387 
L 146.624183 202.493387 
L 146.856744 202.389759 
L 146.856744 202.389759 
L 147.321865 202.635781 
L 147.321865 202.635781 
L 147.554426 202.552786 
L 147.554426 202.552786 
L 147.786986 202.344967 
L 148.252107 202.633125 
L 148.252107 202.633125 
L 148.484668 202.555953 
L 148.484668 202.555953 
L 148.717228 202.213708 
L 148.717228 202.213708 
L 148.949789 202.502427 
L 148.949789 202.502427 
L 149.18235 201.69628 
L 149.18235 201.69628 
L 149.41491 202.34512 
L 149.41491 202.34512 
L 149.647471 201.602406 
L 149.647471 201.602406 
L 149.880031 202.031936 
L 149.880031 202.031936 
L 150.112592 200.669596 
L 150.112592 200.669596 
L 150.345152 201.505213 
L 150.345152 201.505213 
L 150.577713 200.02193 
L 150.577713 200.02193 
L 150.810274 200.676951 
L 150.810274 200.676951 
L 151.042834 198.378582 
L 151.042834 198.378582 
L 151.275395 199.457668 
L 151.275395 199.457668 
L 151.507955 196.863327 
L 151.507955 196.863327 
L 151.740516 197.746494 
L 151.740516 197.746494 
L 151.973076 194.117043 
L 151.973076 194.117043 
L 152.205637 195.062826 
L 152.205637 195.062826 
L 152.438197 191.42459 
L 152.438197 191.42459 
L 152.670758 192.321495 
L 152.670758 192.321495 
L 152.903319 187.301511 
L 152.903319 187.301511 
L 153.135879 188.023591 
L 153.135879 188.023591 
L 153.36844 183.132823 
L 153.36844 183.132823 
L 153.601 183.550402 
L 153.601 183.550402 
L 153.833561 177.30761 
L 153.833561 177.30761 
L 154.066121 177.176249 
L 154.066121 177.176249 
L 154.298682 171.380404 
L 154.298682 171.380404 
L 154.531243 170.364701 
L 154.531243 170.364701 
L 154.763803 163.906582 
L 154.996364 161.546415 
L 154.996364 161.546415 
L 155.926606 137.811131 
L 155.926606 137.811131 
L 156.159166 137.433033 
L 156.159166 137.433033 
L 156.391727 142.205565 
L 156.391727 142.205565 
L 156.624288 142.53162 
L 156.624288 142.53162 
L 156.856848 147.543585 
L 156.856848 147.543585 
L 157.321969 152.836865 
L 157.321969 152.836865 
L 157.55453 157.462203 
L 157.55453 157.462203 
L 157.78709 157.648929 
L 157.78709 157.648929 
L 158.019651 160.141122 
L 158.019651 160.141122 
L 158.484772 162.954262 
L 158.484772 162.954262 
L 158.717333 164.844602 
L 158.717333 164.844602 
L 158.949893 164.931581 
L 158.949893 164.931581 
L 159.415014 166.486827 
L 159.415014 166.486827 
L 159.880135 167.514481 
L 159.880135 167.514481 
L 160.112696 167.945441 
L 160.112696 167.945441 
L 160.345257 167.828022 
L 160.345257 167.828022 
L 160.810378 168.262353 
L 160.810378 168.262353 
L 161.042938 167.952336 
L 161.042938 167.952336 
L 161.275499 168.430386 
L 161.275499 168.430386 
L 161.74062 168.17277 
L 161.74062 168.17277 
L 161.973181 168.35117 
L 161.973181 168.35117 
L 162.205741 167.856573 
L 162.205741 167.856573 
L 162.438302 168.062604 
L 162.438302 168.062604 
L 162.670862 167.756774 
L 162.670862 167.756774 
L 162.903423 167.946003 
L 162.903423 167.946003 
L 163.135983 167.534093 
L 163.135983 167.534093 
L 163.368544 167.600642 
L 163.368544 167.600642 
L 163.601104 167.392466 
L 163.601104 167.392466 
L 163.833665 165.807801 
L 164.066226 166.284064 
L 164.066226 166.284064 
L 164.298786 164.801139 
L 164.298786 164.801139 
L 164.531347 164.94961 
L 164.531347 164.94961 
L 164.996468 163.118668 
L 164.996468 163.118668 
L 165.229028 162.380244 
L 165.229028 162.380244 
L 165.461589 158.565651 
L 165.461589 158.565651 
L 165.69415 159.500453 
L 165.69415 159.500453 
L 165.92671 156.577555 
L 165.92671 156.577555 
L 166.159271 156.007522 
L 166.159271 156.007522 
L 166.391831 154.036332 
L 166.391831 154.036332 
L 166.624392 148.619147 
L 166.624392 148.619147 
L 166.856952 150.307899 
L 166.856952 150.307899 
L 167.089513 145.372799 
L 167.089513 145.372799 
L 167.322073 145.403239 
L 167.322073 145.403239 
L 167.554634 142.217312 
L 167.554634 142.217312 
L 167.787195 135.308979 
L 167.787195 135.308979 
L 168.019755 137.295849 
L 168.019755 137.295849 
L 168.252316 131.286056 
L 168.252316 131.286056 
L 168.484876 131.312512 
L 168.484876 131.312512 
L 168.717437 127.025742 
L 168.717437 127.025742 
L 168.949997 119.220248 
L 168.949997 119.220248 
L 169.182558 121.067022 
L 169.182558 121.067022 
L 169.415119 114.554307 
L 169.415119 114.554307 
L 169.647679 113.568073 
L 169.88024 109.344992 
L 169.88024 109.344992 
L 170.1128 100.629007 
L 170.1128 100.629007 
L 170.345361 100.748877 
L 170.345361 100.748877 
L 170.577921 95.192874 
L 170.577921 95.192874 
L 170.810482 85.515069 
L 170.810482 85.515069 
L 171.043042 86.154665 
L 171.043042 86.154665 
L 171.275603 86.399614 
L 171.275603 86.399614 
L 171.508164 95.282049 
L 171.508164 95.282049 
L 171.740724 95.24073 
L 171.740724 95.24073 
L 171.973285 101.233209 
L 171.973285 101.233209 
L 172.205845 113.242018 
L 172.205845 113.242018 
L 172.438406 113.938102 
L 172.438406 113.938102 
L 172.670966 120.347649 
L 172.903527 131.625441 
L 172.903527 131.625441 
L 173.136088 132.914337 
L 173.136088 132.914337 
L 173.368648 139.039761 
L 173.368648 139.039761 
L 173.601209 149.87459 
L 173.601209 149.87459 
L 173.833769 150.588192 
L 173.833769 150.588192 
L 174.06633 156.118147 
L 174.06633 156.118147 
L 174.29889 168.592392 
L 174.29889 168.592392 
L 174.531451 166.756904 
L 174.764011 174.700501 
L 174.764011 174.700501 
L 174.996572 177.117872 
L 174.996572 177.117872 
L 175.229133 182.090408 
L 175.229133 182.090408 
L 175.461693 193.294092 
L 175.461693 193.294092 
L 175.694254 190.929175 
L 175.694254 190.929175 
L 175.926814 200.197726 
L 175.926814 200.197726 
L 176.159375 199.435042 
L 176.159375 199.435042 
L 176.391935 206.808912 
L 176.391935 206.808912 
L 176.624496 206.907535 
L 176.624496 206.907535 
L 176.857057 213.848096 
L 176.857057 213.848096 
L 177.089617 214.381152 
L 177.089617 214.381152 
L 177.322178 220.55576 
L 177.322178 220.55576 
L 177.554738 221.07615 
L 177.554738 221.07615 
L 177.787299 227.434981 
L 177.787299 227.434981 
L 178.019859 227.561031 
L 178.019859 227.561031 
L 178.25242 233.767407 
L 178.25242 233.767407 
L 178.48498 233.194972 
L 178.48498 233.194972 
L 178.717541 239.789611 
L 178.717541 239.789611 
L 178.950102 238.335287 
L 178.950102 238.335287 
L 179.182662 245.417679 
L 179.182662 245.417679 
L 179.415223 243.033762 
L 179.415223 243.033762 
L 180.345465 253.51797 
L 180.345465 253.51797 
L 180.578026 253.185225 
L 180.578026 253.185225 
L 180.810586 257.850451 
L 180.810586 257.850451 
L 181.043147 256.568399 
L 181.043147 256.568399 
L 181.740828 260.72202 
L 181.740828 260.72202 
L 181.973389 263.506559 
L 181.973389 263.506559 
L 182.205949 262.985045 
L 182.205949 262.985045 
L 182.671071 265.4017 
L 182.671071 265.4017 
L 182.903631 265.823211 
L 182.903631 265.823211 
L 183.136192 267.318701 
L 183.136192 267.318701 
L 183.368752 267.1807 
L 183.368752 267.1807 
L 183.601313 268.708008 
L 183.601313 268.708008 
L 183.833873 268.645289 
L 184.066434 268.760869 
L 184.066434 268.760869 
L 184.298995 269.376257 
L 184.298995 269.376257 
L 184.531555 269.385705 
L 184.531555 269.385705 
L 184.996676 270.095783 
L 184.996676 270.095783 
L 185.461797 270.062228 
L 185.461797 270.062228 
L 185.694358 270.405545 
L 185.694358 270.405545 
L 185.926918 270.063402 
L 185.926918 270.063402 
L 186.39204 270.278014 
L 186.39204 270.278014 
L 186.6246 270.127398 
L 186.6246 270.127398 
L 186.857161 270.235265 
L 186.857161 270.235265 
L 187.089721 270.062687 
L 187.089721 270.062687 
L 187.787403 270.28685 
L 187.787403 270.28685 
L 188.019964 270.078775 
L 188.252524 269.594035 
L 188.252524 269.594035 
L 188.485085 269.692505 
L 188.485085 269.692505 
L 188.717645 268.710408 
L 188.950206 269.326051 
L 188.950206 269.326051 
L 189.182766 268.841361 
L 189.182766 268.841361 
L 189.415327 267.830357 
L 189.415327 267.830357 
L 189.647887 267.733164 
L 189.647887 267.733164 
L 189.880448 265.755794 
L 189.880448 265.755794 
L 190.113009 266.242169 
L 190.113009 266.242169 
L 190.345569 265.594197 
L 190.345569 265.594197 
L 190.57813 263.880112 
L 190.57813 263.880112 
L 190.81069 263.39767 
L 190.81069 263.39767 
L 191.043251 260.118226 
L 191.043251 260.118226 
L 191.275811 260.68111 
L 191.275811 260.68111 
L 191.508372 255.201309 
L 191.508372 255.201309 
L 191.740933 256.953648 
L 191.740933 256.953648 
L 191.973493 255.790597 
L 191.973493 255.790597 
L 192.206054 251.125064 
L 192.206054 251.125064 
L 192.438614 251.48161 
L 192.671175 243.852678 
L 192.671175 243.852678 
L 192.903735 246.398345 
L 192.903735 246.398345 
L 193.136296 243.948697 
L 193.136296 243.948697 
L 193.368856 238.015769 
L 193.368856 238.015769 
L 193.601417 237.583073 
L 193.601417 237.583073 
L 193.833978 227.897505 
L 193.833978 227.897505 
L 194.066538 229.997554 
L 194.299099 226.607536 
L 194.299099 226.607536 
L 194.531659 219.836183 
L 194.531659 219.836183 
L 194.76422 217.548489 
L 194.76422 217.548489 
L 194.99678 220.358564 
L 194.99678 220.358564 
L 195.229341 220.381803 
L 195.229341 220.381803 
L 195.461902 233.634155 
L 195.461902 233.634155 
L 195.694462 230.078557 
L 195.694462 230.078557 
L 195.927023 246.209832 
L 195.927023 246.209832 
L 196.159583 241.310841 
L 196.159583 241.310841 
L 196.392144 245.090705 
L 196.392144 245.090705 
L 196.624704 252.87439 
L 196.624704 252.87439 
L 196.857265 253.058 
L 196.857265 253.058 
L 197.089825 262.700922 
L 197.089825 262.700922 
L 197.322386 260.121342 
L 198.020068 269.112665 
L 198.020068 269.112665 
L 198.252628 275.867368 
L 198.252628 275.867368 
L 198.485189 274.05752 
L 198.485189 274.05752 
L 198.717749 276.460589 
L 198.717749 276.460589 
L 198.95031 280.42013 
L 198.95031 280.42013 
L 199.182871 280.529683 
L 199.182871 280.529683 
L 199.415431 285.750183 
L 199.415431 285.750183 
L 199.647992 284.491369 
L 199.647992 284.491369 
L 199.880552 285.316363 
L 199.880552 285.316363 
L 200.113113 288.643407 
L 200.113113 288.643407 
L 200.345673 288.215716 
L 200.345673 288.215716 
L 200.578234 289.050771 
L 200.578234 289.050771 
L 200.810794 291.02048 
L 200.810794 291.02048 
L 201.043355 290.923593 
L 201.043355 290.923593 
L 201.275916 291.760283 
L 201.275916 291.760283 
L 201.508476 293.060517 
L 201.508476 293.060517 
L 201.741037 293.248877 
L 201.741037 293.248877 
L 201.973597 294.287155 
L 201.973597 294.287155 
L 202.206158 294.237715 
L 202.206158 294.237715 
L 202.438718 294.335675 
L 202.438718 294.335675 
L 202.671279 294.875728 
L 202.671279 294.875728 
L 202.90384 294.85775 
L 202.90384 294.85775 
L 203.601521 295.423647 
L 203.601521 295.423647 
L 204.066642 295.227933 
L 204.066642 295.227933 
L 204.764324 295.488 
L 204.764324 295.488 
L 205.462006 295.195909 
L 205.462006 295.195909 
L 205.694566 295.095958 
L 205.694566 295.095958 
L 205.927127 294.840539 
L 205.927127 294.840539 
L 206.159687 294.248952 
L 206.159687 294.248952 
L 206.392248 294.236694 
L 206.392248 294.236694 
L 206.624809 293.352455 
L 206.624809 293.352455 
L 206.857369 293.59674 
L 206.857369 293.59674 
L 207.08993 293.012661 
L 207.08993 293.012661 
L 207.555051 291.570544 
L 207.555051 291.570544 
L 207.787611 289.224422 
L 207.787611 289.224422 
L 208.020172 289.789961 
L 208.020172 289.789961 
L 208.252732 289.021761 
L 208.252732 289.021761 
L 208.485293 286.628191 
L 208.485293 286.628191 
L 208.717854 286.994288 
L 208.717854 286.994288 
L 208.950414 285.653194 
L 208.950414 285.653194 
L 209.182975 282.600314 
L 209.182975 282.600314 
L 209.415535 282.679836 
L 209.415535 282.679836 
L 209.648096 276.018546 
L 209.648096 276.018546 
L 209.880656 278.216453 
L 209.880656 278.216453 
L 210.113217 277.675429 
L 210.113217 277.675429 
L 210.345778 269.892816 
L 210.345778 269.892816 
L 210.578338 272.534502 
L 210.578338 272.534502 
L 210.810899 270.660352 
L 211.043459 262.519406 
L 211.043459 262.519406 
L 211.27602 265.002865 
L 211.27602 265.002865 
L 211.50858 262.080376 
L 211.50858 262.080376 
L 211.741141 253.755514 
L 211.741141 253.755514 
L 211.973701 254.938585 
L 211.973701 254.938585 
L 212.206262 251.274557 
L 212.206262 251.274557 
L 212.438823 243.807682 
L 212.438823 243.807682 
L 212.671383 242.261783 
L 212.671383 242.261783 
L 212.903944 226.797939 
L 212.903944 226.797939 
L 213.136504 231.835952 
L 213.136504 231.835952 
L 213.369065 226.197363 
L 213.369065 226.197363 
L 213.601625 230.862793 
L 213.601625 230.862793 
L 213.834186 230.993746 
L 213.834186 230.993746 
L 214.066747 242.468682 
L 214.066747 242.468682 
L 214.299307 239.041023 
L 214.299307 239.041023 
L 215.229549 256.239178 
L 215.229549 256.239178 
L 215.46211 254.65814 
L 215.46211 254.65814 
L 215.927231 260.162507 
L 215.927231 260.162507 
L 216.159792 261.288427 
L 216.159792 261.288427 
L 216.392352 265.318858 
L 216.392352 265.318858 
L 216.624913 264.746322 
L 216.624913 264.746322 
L 216.857473 269.39449 
L 216.857473 269.39449 
L 217.090034 268.345334 
L 217.090034 268.345334 
L 217.322594 269.153575 
L 217.322594 269.153575 
L 217.555155 271.621253 
L 217.555155 271.621253 
L 217.787716 271.473496 
L 218.020276 274.292919 
L 218.020276 274.292919 
L 218.252837 273.568642 
L 218.252837 273.568642 
L 218.485397 274.303287 
L 218.485397 274.303287 
L 218.717958 275.690296 
L 218.717958 275.690296 
L 218.950518 275.934939 
L 218.950518 275.934939 
L 219.183079 277.115508 
L 219.183079 277.115508 
L 219.415639 276.809065 
L 219.415639 276.809065 
L 219.880761 277.826556 
L 219.880761 277.826556 
L 220.113321 277.921808 
L 220.113321 277.921808 
L 220.345882 278.381932 
L 220.345882 278.381932 
L 220.578442 278.357314 
L 220.578442 278.357314 
L 220.811003 278.599403 
L 220.811003 278.599403 
L 221.508685 278.699763 
L 221.508685 278.699763 
L 221.741245 279.052478 
L 221.741245 279.052478 
L 222.206366 278.762022 
L 222.206366 278.762022 
L 222.438927 278.864936 
L 222.438927 278.864936 
L 222.671487 278.703134 
L 222.904048 279.068005 
L 222.904048 279.068005 
L 223.136608 278.589955 
L 223.136608 278.589955 
L 223.60173 278.800838 
L 223.60173 278.800838 
L 223.83429 278.469983 
L 223.83429 278.469983 
L 224.066851 278.582089 
L 224.066851 278.582089 
L 224.299411 277.868641 
L 224.299411 277.868641 
L 224.531972 278.184327 
L 224.764532 278.103682 
L 224.764532 278.103682 
L 224.997093 277.215408 
L 224.997093 277.215408 
L 225.229654 277.424504 
L 225.229654 277.424504 
L 225.462214 277.184866 
L 225.462214 277.184866 
L 225.694775 276.271974 
L 225.694775 276.271974 
L 225.927335 276.160276 
L 225.927335 276.160276 
L 226.159896 274.306607 
L 226.159896 274.306607 
L 226.392456 274.898398 
L 226.392456 274.898398 
L 226.625017 274.357731 
L 226.625017 274.357731 
L 226.857577 272.93017 
L 226.857577 272.93017 
L 227.090138 272.656057 
L 227.090138 272.656057 
L 227.322699 269.700728 
L 227.322699 269.700728 
L 227.555259 270.680373 
L 227.555259 270.680373 
L 227.78782 269.820751 
L 227.78782 269.820751 
L 228.02038 267.326566 
L 228.02038 267.326566 
L 228.252941 267.431216 
L 228.252941 267.431216 
L 228.485501 263.379692 
L 228.485501 263.379692 
L 228.718062 264.974315 
L 228.718062 264.974315 
L 228.950623 263.63838 
L 228.950623 263.63838 
L 229.183183 260.442902 
L 229.415744 260.640302 
L 229.415744 260.640302 
L 229.648304 255.777063 
L 229.648304 255.777063 
L 229.880865 257.618934 
L 229.880865 257.618934 
L 230.113425 255.990755 
L 230.345986 252.439548 
L 230.345986 252.439548 
L 230.578546 252.434543 
L 230.578546 252.434543 
L 230.811107 247.173746 
L 231.043668 248.673679 
L 231.043668 248.673679 
L 231.276228 247.005561 
L 231.276228 247.005561 
L 231.508789 243.474988 
L 231.508789 243.474988 
L 231.741349 242.974516 
L 231.741349 242.974516 
L 231.97391 237.649264 
L 231.97391 237.649264 
L 232.20647 238.76405 
L 232.20647 238.76405 
L 232.439031 236.845773 
L 232.439031 236.845773 
L 232.671592 233.629559 
L 232.671592 233.629559 
L 232.904152 232.349396 
L 232.904152 232.349396 
L 233.136713 227.269042 
L 233.136713 227.269042 
L 233.369273 227.616548 
L 233.369273 227.616548 
L 233.601834 220.569192 
L 233.834394 222.605144 
L 233.834394 222.605144 
L 234.066955 220.187621 
L 234.066955 220.187621 
L 234.299515 216.172052 
L 234.299515 216.172052 
L 234.532076 214.678095 
L 234.532076 214.678095 
L 234.764637 208.950944 
L 234.764637 208.950944 
L 234.997197 208.769581 
L 234.997197 208.769581 
L 235.229758 201.312154 
L 235.229758 201.312154 
L 235.462318 202.355795 
L 235.462318 202.355795 
L 235.694879 193.160636 
L 235.694879 193.160636 
L 235.927439 195.272637 
L 235.927439 195.272637 
L 236.16 185.2794 
L 236.16 185.2794 
L 236.392561 188.495512 
L 236.625121 176.732316 
L 236.625121 176.732316 
L 236.857682 180.968217 
L 236.857682 180.968217 
L 237.090242 169.02279 
L 237.090242 169.02279 
L 237.322803 172.915271 
L 237.322803 172.915271 
L 237.555363 161.169338 
L 237.555363 161.169338 
L 237.787924 165.065343 
L 237.787924 165.065343 
L 238.020485 153.227528 
L 238.020485 153.227528 
L 238.253045 156.242818 
L 238.253045 156.242818 
L 238.485606 146.126137 
L 238.485606 146.126137 
L 238.718166 147.831948 
L 238.718166 147.831948 
L 238.950727 139.047728 
L 238.950727 139.047728 
L 239.183287 139.307642 
L 239.183287 139.307642 
L 239.415848 132.30799 
L 239.415848 132.30799 
L 239.648408 130.48333 
L 239.880969 126.147836 
L 239.880969 126.147836 
L 240.11353 115.584259 
L 240.11353 115.584259 
L 240.34609 117.805812 
L 240.34609 117.805812 
L 240.578651 109.599492 
L 240.578651 109.599492 
L 240.811211 109.190545 
L 240.811211 109.190545 
L 241.043772 104.735947 
L 241.043772 104.735947 
L 241.276332 95.498397 
L 241.276332 95.498397 
L 241.508893 96.659353 
L 241.508893 96.659353 
L 241.974014 82.488594 
L 241.974014 82.488594 
L 242.206575 84.089908 
L 242.206575 84.089908 
L 242.439135 77.930571 
L 242.439135 77.930571 
L 242.671696 76.233647 
L 242.671696 76.233647 
L 243.136817 67.237676 
L 243.136817 67.237676 
L 243.369377 59.710125 
L 243.369377 59.710125 
L 243.601938 61.272674 
L 243.601938 61.272674 
L 244.067059 53.568 
L 244.067059 53.568 
L 282.672113 53.568 
L 282.672113 53.568 
L 282.904673 56.201872 
L 282.904673 56.201872 
L 283.137234 61.673654 
L 283.137234 61.673654 
L 283.602355 78.459082 
L 283.602355 78.459082 
L 283.834915 77.804572 
L 283.834915 77.804572 
L 284.532597 92.437855 
L 284.532597 92.437855 
L 284.765158 92.146276 
L 284.765158 92.146276 
L 285.462839 101.467024 
L 285.462839 101.467024 
L 285.6954 101.502214 
L 285.6954 101.502214 
L 286.393082 105.26318 
L 286.393082 105.26318 
L 286.858203 106.274746 
L 286.858203 106.274746 
L 287.090763 106.121781 
L 287.090763 106.121781 
L 287.555884 106.561219 
L 287.555884 106.561219 
L 287.788445 106.460451 
L 287.788445 106.460451 
L 288.021005 106.672611 
L 288.021005 106.672611 
L 288.253566 106.558461 
L 288.253566 106.558461 
L 288.951248 105.633158 
L 288.951248 105.633158 
L 289.183808 104.386398 
L 289.183808 104.386398 
L 289.416369 101.458495 
L 289.416369 101.458495 
L 289.648929 102.521033 
L 289.648929 102.521033 
L 289.88149 100.444631 
L 289.88149 100.444631 
L 290.114051 96.678149 
L 290.114051 96.678149 
L 290.346611 97.152777 
L 290.346611 97.152777 
L 290.579172 94.788319 
L 290.579172 94.788319 
L 290.811732 89.946684 
L 290.811732 89.946684 
L 291.044293 89.302134 
L 291.044293 89.302134 
L 291.276853 86.667036 
L 291.741974 74.240546 
L 291.741974 74.240546 
L 291.974535 76.225832 
L 291.974535 76.225832 
L 292.207096 72.023027 
L 292.207096 72.023027 
L 292.439656 64.706922 
L 292.439656 64.706922 
L 292.672217 64.812798 
L 292.672217 64.812798 
L 292.904777 60.431746 
L 292.904777 60.431746 
L 293.137338 53.795891 
L 293.137338 53.795891 
L 293.369898 53.568 
L 293.369898 53.568 
L 295.928065 53.568 
L 295.928065 53.568 
L 296.160625 53.886853 
L 296.393186 57.254858 
L 296.393186 57.254858 
L 296.625746 57.235655 
L 296.625746 57.235655 
L 297.323428 68.254196 
L 297.323428 68.254196 
L 297.555989 72.762881 
L 297.555989 72.762881 
L 297.788549 72.274361 
L 297.788549 72.274361 
L 298.25367 79.451699 
L 298.25367 79.451699 
L 298.486231 83.017768 
L 298.486231 83.017768 
L 298.718791 82.895498 
L 298.718791 82.895498 
L 299.183912 90.092806 
L 299.183912 90.092806 
L 299.416473 94.386624 
L 299.416473 94.386624 
L 299.649034 94.11195 
L 299.649034 94.11195 
L 299.881594 96.9993 
L 299.881594 96.9993 
L 300.114155 101.488629 
L 300.114155 101.488629 
L 300.346715 102.367148 
L 300.346715 102.367148 
L 300.811836 108.815204 
L 300.811836 108.815204 
L 301.044397 113.842748 
L 301.044397 113.842748 
L 301.276958 113.58886 
L 301.276958 113.58886 
L 301.509518 116.775707 
L 301.509518 116.775707 
L 301.742079 122.549335 
L 301.742079 122.549335 
L 301.974639 122.894389 
L 301.974639 122.894389 
L 302.2072 125.729389 
L 302.2072 125.729389 
L 302.43976 131.334882 
L 302.43976 131.334882 
L 302.672321 131.910738 
L 302.672321 131.910738 
L 302.904881 134.83619 
L 302.904881 134.83619 
L 303.137442 140.43724 
L 303.137442 140.43724 
L 303.370003 140.558029 
L 303.370003 140.558029 
L 303.602563 143.680216 
L 303.602563 143.680216 
L 303.835124 149.47029 
L 303.835124 149.47029 
L 304.067684 148.708781 
L 304.067684 148.708781 
L 304.300245 152.389562 
L 304.300245 152.389562 
L 304.532805 153.870444 
L 304.532805 153.870444 
L 304.765366 156.41841 
L 304.765366 156.41841 
L 304.997927 160.529384 
L 304.997927 160.529384 
L 305.230487 160.589498 
L 305.230487 160.589498 
L 305.695608 164.670645 
L 305.695608 164.670645 
L 305.928169 166.669773 
L 305.928169 166.669773 
L 306.160729 169.797987 
L 306.160729 169.797987 
L 306.39329 169.716779 
L 306.39329 169.716779 
L 306.62585 171.909016 
L 306.62585 171.909016 
L 306.858411 172.643252 
L 306.858411 172.643252 
L 307.090972 174.027758 
L 307.090972 174.027758 
L 307.323532 176.474598 
L 307.323532 176.474598 
L 307.556093 176.382614 
L 307.556093 176.382614 
L 307.788653 177.851494 
L 307.788653 177.851494 
L 308.021214 177.941588 
L 308.021214 177.941588 
L 308.253774 179.27451 
L 308.253774 179.27451 
L 308.486335 179.584681 
L 308.486335 179.584681 
L 308.951456 181.218529 
L 308.951456 181.218529 
L 309.184017 181.16623 
L 309.184017 181.16623 
L 309.649138 182.087599 
L 309.649138 182.087599 
L 309.881698 182.436739 
L 309.881698 182.436739 
L 310.114259 182.458599 
L 310.114259 182.458599 
L 310.57938 182.114771 
L 310.57938 182.114771 
L 310.811941 182.677194 
L 310.811941 182.677194 
L 311.044501 181.870076 
L 311.044501 181.870076 
L 311.277062 182.303284 
L 311.277062 182.303284 
L 311.509622 182.189134 
L 311.509622 182.189134 
L 311.742183 182.528161 
L 311.742183 182.528161 
L 311.974743 182.327799 
L 311.974743 182.327799 
L 312.207304 182.324888 
L 312.207304 182.324888 
L 312.904986 181.707968 
L 312.904986 181.707968 
L 313.137546 180.250376 
L 313.137546 180.250376 
L 313.370107 181.370269 
L 313.370107 181.370269 
L 313.602667 179.580289 
L 313.602667 179.580289 
L 313.835228 180.279386 
L 313.835228 180.279386 
L 314.067788 178.306817 
L 314.067788 178.306817 
L 314.300349 178.507945 
L 314.300349 178.507945 
L 314.53291 176.713163 
L 314.53291 176.713163 
L 314.76547 176.464996 
L 314.76547 176.464996 
L 314.998031 174.477411 
L 314.998031 174.477411 
L 315.230591 173.590465 
L 315.230591 173.590465 
L 315.463152 171.997221 
L 315.463152 171.997221 
L 315.695712 167.447166 
L 315.695712 167.447166 
L 315.928273 168.751997 
L 315.928273 168.751997 
L 316.160834 164.231411 
L 316.160834 164.231411 
L 316.393394 164.5115 
L 316.393394 164.5115 
L 316.625955 160.71565 
L 316.625955 160.71565 
L 316.858515 159.951638 
L 316.858515 159.951638 
L 317.091076 157.448618 
L 317.091076 157.448618 
L 317.323636 149.936287 
L 317.323636 149.936287 
L 317.556197 152.225053 
L 317.788757 145.459369 
L 317.788757 145.459369 
L 318.021318 146.271441 
L 318.021318 146.271441 
L 318.253879 141.10176 
L 318.253879 141.10176 
L 318.486439 139.490844 
L 318.486439 139.490844 
L 318.719 135.905622 
L 318.719 135.905622 
L 318.95156 127.339283 
L 318.95156 127.339283 
L 319.184121 128.485326 
L 319.184121 128.485326 
L 319.416681 122.115259 
L 319.416681 122.115259 
L 319.649242 120.763696 
L 319.649242 120.763696 
L 319.881803 116.403533 
L 319.881803 116.403533 
L 320.114363 107.416959 
L 320.114363 107.416959 
L 320.346924 107.894856 
L 320.346924 107.894856 
L 320.579484 101.540724 
L 320.812045 91.971144 
L 320.812045 91.971144 
L 321.044605 93.662552 
L 321.044605 93.662552 
L 321.509726 76.466083 
L 321.509726 76.466083 
L 321.742287 79.101793 
L 322.207408 61.658894 
L 322.207408 61.658894 
L 322.439969 63.708329 
L 322.439969 63.708329 
L 322.90509 53.568 
L 322.90509 53.568 
L 330.812149 53.568 
L 330.812149 53.568 
L 331.04471 54.453465 
L 331.04471 54.453465 
L 331.27727 58.370564 
L 331.27727 58.370564 
L 331.509831 58.442833 
L 331.509831 58.442833 
L 331.974952 65.356784 
L 331.974952 65.356784 
L 332.440073 79.004191 
L 332.440073 79.004191 
L 332.672633 78.091402 
L 332.672633 78.091402 
L 332.905194 83.389074 
L 332.905194 83.389074 
L 333.370315 101.802885 
L 333.370315 101.802885 
L 333.602876 100.70669 
L 333.602876 100.70669 
L 334.300557 116.314715 
L 334.300557 116.314715 
L 334.765679 126.489008 
L 334.765679 126.489008 
L 334.998239 132.638896 
L 334.998239 132.638896 
L 335.2308 131.662929 
L 335.2308 131.662929 
L 335.695921 140.750986 
L 335.695921 140.750986 
L 335.928481 139.520518 
L 335.928481 139.520518 
L 336.161042 142.551947 
L 336.161042 142.551947 
L 336.626163 145.003792 
L 336.626163 145.003792 
L 336.858724 147.290004 
L 336.858724 147.290004 
L 337.091284 147.666265 
L 337.091284 147.666265 
L 337.556405 150.091347 
L 337.556405 150.091347 
L 337.788966 150.149826 
L 337.788966 150.149826 
L 338.486648 151.712631 
L 338.486648 151.712631 
L 338.719208 151.64266 
L 338.719208 151.64266 
L 338.951769 151.853237 
L 338.951769 151.853237 
L 339.41689 151.744705 
L 339.41689 151.744705 
L 339.64945 151.930358 
L 339.64945 151.930358 
L 339.882011 151.808956 
L 339.882011 151.808956 
L 340.114572 151.996652 
L 340.579693 151.694704 
L 340.579693 151.694704 
L 341.044814 151.944199 
L 341.044814 151.944199 
L 341.509935 151.436679 
L 341.509935 151.436679 
L 341.742495 150.725989 
L 341.742495 150.725989 
L 341.975056 150.92538 
L 341.975056 150.92538 
L 342.207617 150.559386 
L 342.207617 150.559386 
L 342.440177 148.868795 
L 342.440177 148.868795 
L 342.672738 149.741236 
L 342.672738 149.741236 
L 342.905298 148.013157 
L 342.905298 148.013157 
L 343.137859 148.142476 
L 343.370419 147.032491 
L 343.370419 147.032491 
L 343.60298 144.750211 
L 343.60298 144.750211 
L 343.835541 145.435722 
L 343.835541 145.435722 
L 344.068101 143.416165 
L 344.068101 143.416165 
L 344.300662 143.357482 
L 344.533222 141.980739 
L 344.533222 141.980739 
L 344.765783 138.938992 
L 344.765783 138.938992 
L 344.998343 139.546054 
L 344.998343 139.546054 
L 345.230904 139.120713 
L 345.230904 139.120713 
L 345.463464 139.592736 
L 345.696025 140.85538 
L 345.696025 140.85538 
L 345.928586 144.591423 
L 345.928586 144.591423 
L 346.161146 144.603374 
L 346.161146 144.603374 
L 346.393707 147.653241 
L 346.393707 147.653241 
L 346.626267 153.354549 
L 346.626267 153.354549 
L 346.858828 151.945782 
L 346.858828 151.945782 
L 347.091388 157.75506 
L 347.091388 157.75506 
L 347.323949 158.316922 
L 347.323949 158.316922 
L 347.55651 162.565795 
L 347.55651 162.565795 
L 347.78907 174.033223 
L 347.78907 174.033223 
L 348.021631 171.052255 
L 348.021631 171.052255 
L 348.254191 181.722269 
L 348.254191 181.722269 
L 348.486752 181.761085 
L 348.486752 181.761085 
L 348.719312 190.564457 
L 348.719312 190.564457 
L 348.951873 193.607736 
L 348.951873 193.607736 
L 349.184433 200.650188 
L 349.184433 200.650188 
L 349.416994 214.926058 
L 349.416994 214.926058 
L 349.649555 210.144792 
L 349.649555 210.144792 
L 349.882115 223.04969 
L 349.882115 223.04969 
L 350.114676 219.170692 
L 350.114676 219.170692 
L 350.347236 231.319597 
L 350.347236 231.319597 
L 350.579797 227.16761 
L 350.579797 227.16761 
L 351.510039 242.950308 
L 351.510039 242.950308 
L 351.7426 244.166322 
L 351.7426 244.166322 
L 351.97516 250.091894 
L 351.97516 250.091894 
L 352.207721 249.594538 
L 352.207721 249.594538 
L 352.440281 256.723714 
L 352.440281 256.723714 
L 352.672842 254.490465 
L 352.672842 254.490465 
L 353.137963 260.577532 
L 353.137963 260.577532 
L 353.370524 261.240827 
L 353.370524 261.240827 
L 353.603084 266.310404 
L 353.603084 266.310404 
L 353.835645 265.122582 
L 353.835645 265.122582 
L 354.533326 270.514485 
L 354.533326 270.514485 
L 354.765887 273.958692 
L 354.765887 273.958692 
L 354.998448 273.601789 
L 354.998448 273.601789 
L 355.231008 277.511738 
L 355.231008 277.511738 
L 355.463569 276.717133 
L 355.463569 276.717133 
L 355.696129 277.447078 
L 355.696129 277.447078 
L 355.92869 279.464081 
L 355.92869 279.464081 
L 356.16125 279.440945 
L 356.16125 279.440945 
L 356.393811 281.579861 
L 356.393811 281.579861 
L 356.626371 281.091852 
L 356.626371 281.091852 
L 356.858932 281.674807 
L 356.858932 281.674807 
L 357.091493 282.61441 
L 357.091493 282.61441 
L 357.324053 282.642807 
L 357.324053 282.642807 
L 357.789174 283.571634 
L 357.789174 283.571634 
L 358.021735 283.551971 
L 358.021735 283.551971 
L 358.951977 284.063474 
L 358.951977 284.063474 
L 359.417098 283.755959 
L 359.417098 283.755959 
L 359.882219 283.957138 
L 359.882219 283.957138 
L 360.11478 283.785377 
L 360.11478 283.785377 
L 360.34734 283.87348 
L 360.34734 283.87348 
L 360.579901 283.518875 
L 360.579901 283.518875 
L 360.812462 283.686754 
L 360.812462 283.686754 
L 361.045022 283.670308 
L 361.045022 283.670308 
L 361.277583 283.13337 
L 361.277583 283.13337 
L 361.510143 283.131123 
L 361.510143 283.131123 
L 361.742704 281.879255 
L 361.742704 281.879255 
L 361.975264 282.505828 
L 361.975264 282.505828 
L 362.207825 281.897693 
L 362.207825 281.897693 
L 362.440386 280.613087 
L 362.440386 280.613087 
L 362.672946 280.428966 
L 362.672946 280.428966 
L 362.905507 277.983505 
L 362.905507 277.983505 
L 363.138067 278.786691 
L 363.138067 278.786691 
L 363.370628 277.745706 
L 363.370628 277.745706 
L 363.603188 275.799389 
L 363.603188 275.799389 
L 363.835749 275.255301 
L 363.835749 275.255301 
L 364.068309 271.985255 
L 364.068309 271.985255 
L 364.30087 272.671839 
L 364.30087 272.671839 
L 364.998552 267.938582 
L 364.998552 267.938582 
L 365.231112 264.146666 
L 365.231112 264.146666 
L 365.463673 264.398816 
L 365.463673 264.398816 
L 365.696233 258.596842 
L 365.696233 258.596842 
L 365.928794 260.337996 
L 365.928794 260.337996 
L 366.161355 259.081941 
L 366.161355 259.081941 
L 366.393915 254.327386 
L 366.393915 254.327386 
L 366.626476 255.052531 
L 366.626476 255.052531 
L 366.859036 253.321081 
L 366.859036 253.321081 
L 367.091597 249.718698 
L 367.091597 249.718698 
L 367.324157 249.073842 
L 367.324157 249.073842 
L 367.556718 242.877834 
L 367.556718 242.877834 
L 367.789278 244.800044 
L 367.789278 244.800044 
L 368.021839 242.451011 
L 368.021839 242.451011 
L 368.2544 237.853713 
L 368.2544 237.853713 
L 368.48696 237.573318 
L 368.48696 237.573318 
L 368.719521 230.450271 
L 368.719521 230.450271 
L 368.952081 232.194387 
L 368.952081 232.194387 
L 369.184642 229.929932 
L 369.184642 229.929932 
L 369.417202 225.405056 
L 369.417202 225.405056 
L 369.649763 224.418312 
L 369.649763 224.418312 
L 369.882324 217.796043 
L 370.114884 218.701376 
L 370.114884 218.701376 
L 370.347445 210.206131 
L 370.347445 210.206131 
L 370.580005 212.566248 
L 370.580005 212.566248 
L 371.277687 204.19976 
L 371.277687 204.19976 
L 371.510247 199.110775 
L 371.742808 198.445183 
L 371.742808 198.445183 
L 371.975369 192.965688 
L 371.975369 192.965688 
L 372.207929 193.206347 
L 372.44049 187.628536 
L 372.44049 187.628536 
L 372.67305 188.273699 
L 372.67305 188.273699 
L 372.905611 187.539463 
L 372.905611 187.539463 
L 373.138171 187.690437 
L 373.138171 187.690437 
L 373.370732 190.354851 
L 373.370732 190.354851 
L 373.603293 190.845771 
L 373.835853 192.894798 
L 373.835853 192.894798 
L 374.068414 193.128868 
L 374.068414 193.128868 
L 374.300974 194.755464 
L 374.300974 194.755464 
L 374.533535 194.888715 
L 374.533535 194.888715 
L 374.766095 195.993185 
L 374.766095 195.993185 
L 374.998656 196.294877 
L 374.998656 196.294877 
L 375.231216 196.954085 
L 375.231216 196.954085 
L 375.928898 197.60548 
L 375.928898 197.60548 
L 376.161459 197.45946 
L 376.161459 197.45946 
L 376.394019 197.524426 
L 376.394019 197.524426 
L 376.62658 197.840623 
L 376.62658 197.840623 
L 376.85914 197.744349 
L 376.85914 197.744349 
L 377.556822 198.107432 
L 377.556822 198.107432 
L 377.789383 197.452361 
L 377.789383 197.452361 
L 378.021943 197.859929 
L 378.021943 197.859929 
L 378.254504 197.282643 
L 378.254504 197.282643 
L 378.487064 197.245308 
L 378.487064 197.245308 
L 378.719625 194.530944 
L 378.719625 194.530944 
L 378.952185 196.066935 
L 378.952185 196.066935 
L 379.184746 193.07376 
L 379.184746 193.07376 
L 379.417307 194.17067 
L 379.417307 194.17067 
L 379.649867 190.81288 
L 379.649867 190.81288 
L 379.882428 191.770767 
L 379.882428 191.770767 
L 380.114988 187.503712 
L 380.114988 187.503712 
L 380.347549 188.369666 
L 380.347549 188.369666 
L 380.580109 184.188568 
L 380.580109 184.188568 
L 380.81267 184.847878 
L 380.81267 184.847878 
L 381.045231 179.579982 
L 381.045231 179.579982 
L 381.277791 179.965997 
L 381.277791 179.965997 
L 381.510352 175.1856 
L 381.510352 175.1856 
L 381.742912 175.0905 
L 381.742912 175.0905 
L 381.975473 169.755902 
L 381.975473 169.755902 
L 382.208033 168.664661 
L 382.208033 168.664661 
L 382.673154 161.958324 
L 382.673154 161.958324 
L 382.905715 158.168859 
L 382.905715 158.168859 
L 383.138276 147.346645 
L 383.138276 147.346645 
L 383.370836 150.395593 
L 383.370836 150.395593 
L 383.603397 140.277992 
L 383.603397 140.277992 
L 383.835957 141.112536 
L 383.835957 141.112536 
L 384.068518 133.264856 
L 384.068518 133.264856 
L 384.301078 131.24346 
L 384.301078 131.24346 
L 384.533639 125.81652 
L 384.533639 125.81652 
L 384.7662 112.531838 
L 384.7662 112.531838 
L 384.99876 114.481271 
L 384.99876 114.481271 
L 385.231321 104.817664 
L 385.231321 104.817664 
L 385.463881 103.013281 
L 385.463881 103.013281 
L 385.696442 96.405313 
L 385.696442 96.405313 
L 385.929002 86.131886 
L 385.929002 86.131886 
L 386.161563 84.560348 
L 386.161563 84.560348 
L 386.626684 71.749885 
L 386.626684 71.749885 
L 387.556926 53.568 
L 387.556926 53.568 
L 397.091909 53.568 
L 397.091909 53.568 
L 397.32447 53.744255 
L 397.32447 53.744255 
L 397.55703 53.568 
L 397.55703 53.568 
L 398.487273 53.568 
L 398.487273 53.568 
" clip-path="url(#p9edd86751e)" style="fill: none; stroke: #ff7f0e; stroke-width: 1.5; stroke-linecap: square"/>
   </g>
   <g id="patch_3">
    <path d="M 57.6 307.584 
L 57.6 41.472 
" style="fill: none; stroke: #000000; stroke-width: 0.8; stroke-linejoin: miter; stroke-linecap: square"/>
   </g>
   <g id="patch_4">
    <path d="M 414.72 307.584 
L 414.72 41.472 
" style="fill: none; stroke: #000000; stroke-width: 0.8; stroke-linejoin: miter; stroke-linecap: square"/>
   </g>
   <g id="patch_5">
    <path d="M 57.6 307.584 
L 414.72 307.584 
" style="fill: none; stroke: #000000; stroke-width: 0.8; stroke-linejoin: miter; stroke-linecap: square"/>
   </g>
   <g id="patch_6">
    <path d="M 57.6 41.472 
L 414.72 41.472 
" style="fill: none; stroke: #000000; stroke-width: 0.8; stroke-linejoin: miter; stroke-linecap: square"/>
   </g>
   <g id="text_14">
    <!-- Actual speed vs Expected speed -->
    <g transform="translate(138.808125 35.472) scale(0.12 -0.12)">
     <defs>
      <path id="DejaVuSans-41" d="M 2188 4044 
L 1331 1722 
L 3047 1722 
L 2188 4044 
z
M 1831 4666 
L 2547 4666 
L 4325 0 
L 3669 0 
L 3244 1197 
L 1141 1197 
L 716 0 
L 50 0 
L 1831 4666 
z
" transform="scale(0.015625)"/>
      <path id="DejaVuSans-75" d="M 544 1381 
L 544 3500 
L 1119 3500 
L 1119 1403 
Q 1119 906 1312 657 
Q 1506 409 1894 409 
Q 2359 409 2629 706 
Q 2900 1003 2900 1516 
L 2900 3500 
L 3475 3500 
L 3475 0 
L 2900 0 
L 2900 538 
Q 2691 219 2414 64 
Q 2138 -91 1772 -91 
Q 1169 -91 856 284 
Q 544 659 544 1381 
z
M 1991 3584 
L 1991 3584 
z
" transform="scale(0.015625)"/>
      <path id="DejaVuSans-61" d="M 2194 1759 
Q 1497 1759 1228 1600 
Q 959 1441 959 1056 
Q 959 750 1161 570 
Q 1363 391 1709 391 
Q 2188 391 2477 730 
Q 2766 1069 2766 1631 
L 2766 1759 
L 2194 1759 
z
M 3341 1997 
L 3341 0 
L 2766 0 
L 2766 531 
Q 2569 213 2275 61 
Q 1981 -91 1556 -91 
Q 1019 -91 701 211 
Q 384 513 384 1019 
Q 384 1609 779 1909 
Q 1175 2209 1959 2209 
L 2766 2209 
L 2766 2266 
Q 2766 2663 2505 2880 
Q 2244 3097 1772 3097 
Q 1472 3097 1187 3025 
Q 903 2953 641 2809 
L 641 3341 
Q 956 3463 1253 3523 
Q 1550 3584 1831 3584 
Q 2591 3584 2966 3190 
Q 3341 2797 3341 1997 
z
" transform="scale(0.015625)"/>
      <path id="DejaVuSans-20" transform="scale(0.015625)"/>
      <path id="DejaVuSans-70" d="M 1159 525 
L 1159 -1331 
L 581 -1331 
L 581 3500 
L 1159 3500 
L 1159 2969 
Q 1341 3281 1617 3432 
Q 1894 3584 2278 3584 
Q 2916 3584 3314 3078 
Q 3713 2572 3713 1747 
Q 3713 922 3314 415 
Q 2916 -91 2278 -91 
Q 1894 -91 1617 61 
Q 1341 213 1159 525 
z
M 3116 1747 
Q 3116 2381 2855 2742 
Q 2594 3103 2138 3103 
Q 1681 3103 1420 2742 
Q 1159 2381 1159 1747 
Q 1159 1113 1420 752 
Q 1681 391 2138 391 
Q 2594 391 2855 752 
Q 3116 1113 3116 1747 
z
" transform="scale(0.015625)"/>
      <path id="DejaVuSans-64" d="M 2906 2969 
L 2906 4863 
L 3481 4863 
L 3481 0 
L 2906 0 
L 2906 525 
Q 2725 213 2448 61 
Q 2172 -91 1784 -91 
Q 1150 -91 751 415 
Q 353 922 353 1747 
Q 353 2572 751 3078 
Q 1150 3584 1784 3584 
Q 2172 3584 2448 3432 
Q 2725 3281 2906 2969 
z
M 947 1747 
Q 947 1113 1208 752 
Q 1469 391 1925 391 
Q 2381 391 2643 752 
Q 2906 1113 2906 1747 
Q 2906 2381 2643 2742 
Q 2381 3103 1925 3103 
Q 1469 3103 1208 2742 
Q 947 2381 947 1747 
z
" transform="scale(0.015625)"/>
      <path id="DejaVuSans-76" d="M 191 3500 
L 800 3500 
L 1894 563 
L 2988 3500 
L 3597 3500 
L 2284 0 
L 1503 0 
L 191 3500 
z
" transform="scale(0.015625)"/>
      <path id="DejaVuSans-45" d="M 628 4666 
L 3578 4666 
L 3578 4134 
L 1259 4134 
L 1259 2753 
L 3481 2753 
L 3481 2222 
L 1259 2222 
L 1259 531 
L 3634 531 
L 3634 0 
L 628 0 
L 628 4666 
z
" transform="scale(0.015625)"/>
      <path id="DejaVuSans-78" d="M 3513 3500 
L 2247 1797 
L 3578 0 
L 2900 0 
L 1881 1375 
L 863 0 
L 184 0 
L 1544 1831 
L 300 3500 
L 978 3500 
L 1906 2253 
L 2834 3500 
L 3513 3500 
z
" transform="scale(0.015625)"/>
     </defs>
     <use xlink:href="#DejaVuSans-41"/>
     <use xlink:href="#DejaVuSans-63" x="66.658203"/>
     <use xlink:href="#DejaVuSans-74" x="121.638672"/>
     <use xlink:href="#DejaVuSans-75" x="160.847656"/>
     <use xlink:href="#DejaVuSans-61" x="224.226562"/>
     <use xlink:href="#DejaVuSans-6c" x="285.505859"/>
     <use xlink:href="#DejaVuSans-20" x="313.289062"/>
     <use xlink:href="#DejaVuSans-73" x="345.076172"/>
     <use xlink:href="#DejaVuSans-70" x="397.175781"/>
     <use xlink:href="#DejaVuSans-65" x="460.652344"/>
     <use xlink:href="#DejaVuSans-65" x="522.175781"/>
     <use xlink:href="#DejaVuSans-64" x="583.699219"/>
     <use xlink:href="#DejaVuSans-20" x="647.175781"/>
     <use xlink:href="#DejaVuSans-76" x="678.962891"/>
     <use xlink:href="#DejaVuSans-73" x="738.142578"/>
     <use xlink:href="#DejaVuSans-20" x="790.242188"/>
     <use xlink:href="#DejaVuSans-45" x="822.029297"/>
     <use xlink:href="#DejaVuSans-78" x="885.212891"/>
     <use xlink:href="#DejaVuSans-70" x="944.392578"/>
     <use xlink:href="#DejaVuSans-65" x="1007.869141"/>
     <use xlink:href="#DejaVuSans-63" x="1069.392578"/>
     <use xlink:href="#DejaVuSans-74" x="1124.373047"/>
     <use xlink:href="#DejaVuSans-65" x="1163.582031"/>
     <use xlink:href="#DejaVuSans-64" x="1225.105469"/>
     <use xlink:href="#DejaVuSans-20" x="1288.582031"/>
     <use xlink:href="#DejaVuSans-73" x="1320.369141"/>
     <use xlink:href="#DejaVuSans-70" x="1372.46875"/>
     <use xlink:href="#DejaVuSans-65" x="1435.945312"/>
     <use xlink:href="#DejaVuSans-65" x="1497.46875"/>
     <use xlink:href="#DejaVuSans-64" x="1558.992188"/>
    </g>
   </g>
   <g id="legend_1">
    <g id="patch_7">
     <path d="M 64.6 302.584 
L 176.65 302.584 
Q 178.65 302.584 178.65 300.584 
L 178.65 272.22775 
Q 178.65 270.22775 176.65 270.22775 
L 64.6 270.22775 
Q 62.6 270.22775 62.6 272.22775 
L 62.6 300.584 
Q 62.6 302.584 64.6 302.584 
z
" style="fill: #ffffff; opacity: 0.8; stroke: #cccccc; stroke-linejoin: miter"/>
    </g>
    <g id="line2d_25">
     <path d="M 66.6 278.326187 
L 76.6 278.326187 
L 86.6 278.326187 
" style="fill: none; stroke: #1f77b4; stroke-width: 1.5; stroke-linecap: square"/>
    </g>
    <g id="text_15">
     <!-- Actual speed -->
     <g transform="translate(94.6 281.826187) scale(0.1 -0.1)">
      <use xlink:href="#DejaVuSans-41"/>
      <use xlink:href="#DejaVuSans-63" x="66.658203"/>
      <use xlink:href="#DejaVuSans-74" x="121.638672"/>
      <use xlink:href="#DejaVuSans-75" x="160.847656"/>
      <use xlink:href="#DejaVuSans-61" x="224.226562"/>
      <use xlink:href="#DejaVuSans-6c" x="285.505859"/>
      <use xlink:href="#DejaVuSans-20" x="313.289062"/>
      <use xlink:href="#DejaVuSans-73" x="345.076172"/>
      <use xlink:href="#DejaVuSans-70" x="397.175781"/>
      <use xlink:href="#DejaVuSans-65" x="460.652344"/>
      <use xlink:href="#DejaVuSans-65" x="522.175781"/>
      <use xlink:href="#DejaVuSans-64" x="583.699219"/>
     </g>
    </g>
    <g id="line2d_26">
     <path d="M 66.6 293.004312 
L 76.6 293.004312 
L 86.6 293.004312 
" style="fill: none; stroke: #ff7f0e; stroke-width: 1.5; stroke-linecap: square"/>
    </g>
    <g id="text_16">
     <!-- Expected speed -->
     <g transform="translate(94.6 296.504312) scale(0.1 -0.1)">
      <use xlink:href="#DejaVuSans-45"/>
      <use xlink:href="#DejaVuSans-78" x="63.183594"/>
      <use xlink:href="#DejaVuSans-70" x="122.363281"/>
      <use xlink:href="#DejaVuSans-65" x="185.839844"/>
      <use xlink:href="#DejaVuSans-63" x="247.363281"/>
      <use xlink:href="#DejaVuSans-74" x="302.34375"/>
      <use xlink:href="#DejaVuSans-65" x="341.552734"/>
      <use xlink:href="#DejaVuSans-64" x="403.076172"/>
      <use xlink:href="#DejaVuSans-20" x="466.552734"/>
      <use xlink:href="#DejaVuSans-73" x="498.339844"/>
      <use xlink:href="#DejaVuSans-70" x="550.439453"/>
      <use xlink:href="#DejaVuSans-65" x="613.916016"/>
      <use xlink:href="#DejaVuSans-65" x="675.439453"/>
      <use xlink:href="#DejaVuSans-64" x="736.962891"/>
     </g>
    </g>
   </g>
  </g>
 </g>
 <defs>
  <clipPath id="p9edd86751e">
   <rect x="57.6" y="41.472" width="357.12" height="266.112"/>
  </clipPath>
 </defs>
</svg>
