<?xml version="1.0" encoding="utf-8" standalone="no"?>
<!DOCTYPE svg PUBLIC "-//W3C//DTD SVG 1.1//EN"
  "http://www.w3.org/Graphics/SVG/1.1/DTD/svg11.dtd">
<svg xmlns:xlink="http://www.w3.org/1999/xlink" width="460.8pt" height="345.6pt" viewBox="0 0 460.8 345.6" xmlns="http://www.w3.org/2000/svg" version="1.1">
 <metadata>
  <rdf:RDF xmlns:dc="http://purl.org/dc/elements/1.1/" xmlns:cc="http://creativecommons.org/ns#" xmlns:rdf="http://www.w3.org/1999/02/22-rdf-syntax-ns#">
   <cc:Work>
    <dc:type rdf:resource="http://purl.org/dc/dcmitype/StillImage"/>
    <dc:date>2024-01-30T20:59:28.730964</dc:date>
    <dc:format>image/svg+xml</dc:format>
    <dc:creator>
     <cc:Agent>
      <dc:title>Matplotlib v3.7.1, https://matplotlib.org/</dc:title>
     </cc:Agent>
    </dc:creator>
   </cc:Work>
  </rdf:RDF>
 </metadata>
 <defs>
  <style type="text/css">*{stroke-linejoin: round; stroke-linecap: butt}</style>
 </defs>
 <g id="figure_1">
  <g id="patch_1">
   <path d="M 0 345.6 
L 460.8 345.6 
L 460.8 0 
L 0 0 
z
" style="fill: #ffffff"/>
  </g>
  <g id="axes_1">
   <g id="patch_2">
    <path d="M 57.6 307.584 
L 414.72 307.584 
L 414.72 41.472 
L 57.6 41.472 
z
" style="fill: #ffffff"/>
   </g>
   <g id="matplotlib.axis_1">
    <g id="xtick_1">
     <g id="line2d_1">
      <path d="M 73.832727 307.584 
L 73.832727 41.472 
" clip-path="url(#p14e551208d)" style="fill: none; stroke: #b0b0b0; stroke-width: 0.8; stroke-linecap: square"/>
     </g>
     <g id="line2d_2">
      <defs>
       <path id="m7546a3873d" d="M 0 0 
L 0 3.5 
" style="stroke: #000000; stroke-width: 0.8"/>
      </defs>
      <g>
       <use xlink:href="#m7546a3873d" x="73.832727" y="307.584" style="stroke: #000000; stroke-width: 0.8"/>
      </g>
     </g>
     <g id="text_1">
      <!-- 0 -->
      <g transform="translate(70.651477 322.182437) scale(0.1 -0.1)">
       <defs>
        <path id="DejaVuSans-30" d="M 2034 4250 
Q 1547 4250 1301 3770 
Q 1056 3291 1056 2328 
Q 1056 1369 1301 889 
Q 1547 409 2034 409 
Q 2525 409 2770 889 
Q 3016 1369 3016 2328 
Q 3016 3291 2770 3770 
Q 2525 4250 2034 4250 
z
M 2034 4750 
Q 2819 4750 3233 4129 
Q 3647 3509 3647 2328 
Q 3647 1150 3233 529 
Q 2819 -91 2034 -91 
Q 1250 -91 836 529 
Q 422 1150 422 2328 
Q 422 3509 836 4129 
Q 1250 4750 2034 4750 
z
" transform="scale(0.015625)"/>
       </defs>
       <use xlink:href="#DejaVuSans-30"/>
      </g>
     </g>
    </g>
    <g id="xtick_2">
     <g id="line2d_3">
      <path d="M 131.972868 307.584 
L 131.972868 41.472 
" clip-path="url(#p14e551208d)" style="fill: none; stroke: #b0b0b0; stroke-width: 0.8; stroke-linecap: square"/>
     </g>
     <g id="line2d_4">
      <g>
       <use xlink:href="#m7546a3873d" x="131.972868" y="307.584" style="stroke: #000000; stroke-width: 0.8"/>
      </g>
     </g>
     <g id="text_2">
      <!-- 5 -->
      <g transform="translate(128.791618 322.182437) scale(0.1 -0.1)">
       <defs>
        <path id="DejaVuSans-35" d="M 691 4666 
L 3169 4666 
L 3169 4134 
L 1269 4134 
L 1269 2991 
Q 1406 3038 1543 3061 
Q 1681 3084 1819 3084 
Q 2600 3084 3056 2656 
Q 3513 2228 3513 1497 
Q 3513 744 3044 326 
Q 2575 -91 1722 -91 
Q 1428 -91 1123 -41 
Q 819 9 494 109 
L 494 744 
Q 775 591 1075 516 
Q 1375 441 1709 441 
Q 2250 441 2565 725 
Q 2881 1009 2881 1497 
Q 2881 1984 2565 2268 
Q 2250 2553 1709 2553 
Q 1456 2553 1204 2497 
Q 953 2441 691 2322 
L 691 4666 
z
" transform="scale(0.015625)"/>
       </defs>
       <use xlink:href="#DejaVuSans-35"/>
      </g>
     </g>
    </g>
    <g id="xtick_3">
     <g id="line2d_5">
      <path d="M 190.113009 307.584 
L 190.113009 41.472 
" clip-path="url(#p14e551208d)" style="fill: none; stroke: #b0b0b0; stroke-width: 0.8; stroke-linecap: square"/>
     </g>
     <g id="line2d_6">
      <g>
       <use xlink:href="#m7546a3873d" x="190.113009" y="307.584" style="stroke: #000000; stroke-width: 0.8"/>
      </g>
     </g>
     <g id="text_3">
      <!-- 10 -->
      <g transform="translate(183.750509 322.182437) scale(0.1 -0.1)">
       <defs>
        <path id="DejaVuSans-31" d="M 794 531 
L 1825 531 
L 1825 4091 
L 703 3866 
L 703 4441 
L 1819 4666 
L 2450 4666 
L 2450 531 
L 3481 531 
L 3481 0 
L 794 0 
L 794 531 
z
" transform="scale(0.015625)"/>
       </defs>
       <use xlink:href="#DejaVuSans-31"/>
       <use xlink:href="#DejaVuSans-30" x="63.623047"/>
      </g>
     </g>
    </g>
    <g id="xtick_4">
     <g id="line2d_7">
      <path d="M 248.253149 307.584 
L 248.253149 41.472 
" clip-path="url(#p14e551208d)" style="fill: none; stroke: #b0b0b0; stroke-width: 0.8; stroke-linecap: square"/>
     </g>
     <g id="line2d_8">
      <g>
       <use xlink:href="#m7546a3873d" x="248.253149" y="307.584" style="stroke: #000000; stroke-width: 0.8"/>
      </g>
     </g>
     <g id="text_4">
      <!-- 15 -->
      <g transform="translate(241.890649 322.182437) scale(0.1 -0.1)">
       <use xlink:href="#DejaVuSans-31"/>
       <use xlink:href="#DejaVuSans-35" x="63.623047"/>
      </g>
     </g>
    </g>
    <g id="xtick_5">
     <g id="line2d_9">
      <path d="M 306.39329 307.584 
L 306.39329 41.472 
" clip-path="url(#p14e551208d)" style="fill: none; stroke: #b0b0b0; stroke-width: 0.8; stroke-linecap: square"/>
     </g>
     <g id="line2d_10">
      <g>
       <use xlink:href="#m7546a3873d" x="306.39329" y="307.584" style="stroke: #000000; stroke-width: 0.8"/>
      </g>
     </g>
     <g id="text_5">
      <!-- 20 -->
      <g transform="translate(300.03079 322.182437) scale(0.1 -0.1)">
       <defs>
        <path id="DejaVuSans-32" d="M 1228 531 
L 3431 531 
L 3431 0 
L 469 0 
L 469 531 
Q 828 903 1448 1529 
Q 2069 2156 2228 2338 
Q 2531 2678 2651 2914 
Q 2772 3150 2772 3378 
Q 2772 3750 2511 3984 
Q 2250 4219 1831 4219 
Q 1534 4219 1204 4116 
Q 875 4013 500 3803 
L 500 4441 
Q 881 4594 1212 4672 
Q 1544 4750 1819 4750 
Q 2544 4750 2975 4387 
Q 3406 4025 3406 3419 
Q 3406 3131 3298 2873 
Q 3191 2616 2906 2266 
Q 2828 2175 2409 1742 
Q 1991 1309 1228 531 
z
" transform="scale(0.015625)"/>
       </defs>
       <use xlink:href="#DejaVuSans-32"/>
       <use xlink:href="#DejaVuSans-30" x="63.623047"/>
      </g>
     </g>
    </g>
    <g id="xtick_6">
     <g id="line2d_11">
      <path d="M 364.533431 307.584 
L 364.533431 41.472 
" clip-path="url(#p14e551208d)" style="fill: none; stroke: #b0b0b0; stroke-width: 0.8; stroke-linecap: square"/>
     </g>
     <g id="line2d_12">
      <g>
       <use xlink:href="#m7546a3873d" x="364.533431" y="307.584" style="stroke: #000000; stroke-width: 0.8"/>
      </g>
     </g>
     <g id="text_6">
      <!-- 25 -->
      <g transform="translate(358.170931 322.182437) scale(0.1 -0.1)">
       <use xlink:href="#DejaVuSans-32"/>
       <use xlink:href="#DejaVuSans-35" x="63.623047"/>
      </g>
     </g>
    </g>
    <g id="text_7">
     <!-- Time(s) -->
     <g transform="translate(217.420156 335.860562) scale(0.1 -0.1)">
      <defs>
       <path id="DejaVuSans-54" d="M -19 4666 
L 3928 4666 
L 3928 4134 
L 2272 4134 
L 2272 0 
L 1638 0 
L 1638 4134 
L -19 4134 
L -19 4666 
z
" transform="scale(0.015625)"/>
       <path id="DejaVuSans-69" d="M 603 3500 
L 1178 3500 
L 1178 0 
L 603 0 
L 603 3500 
z
M 603 4863 
L 1178 4863 
L 1178 4134 
L 603 4134 
L 603 4863 
z
" transform="scale(0.015625)"/>
       <path id="DejaVuSans-6d" d="M 3328 2828 
Q 3544 3216 3844 3400 
Q 4144 3584 4550 3584 
Q 5097 3584 5394 3201 
Q 5691 2819 5691 2113 
L 5691 0 
L 5113 0 
L 5113 2094 
Q 5113 2597 4934 2840 
Q 4756 3084 4391 3084 
Q 3944 3084 3684 2787 
Q 3425 2491 3425 1978 
L 3425 0 
L 2847 0 
L 2847 2094 
Q 2847 2600 2669 2842 
Q 2491 3084 2119 3084 
Q 1678 3084 1418 2786 
Q 1159 2488 1159 1978 
L 1159 0 
L 581 0 
L 581 3500 
L 1159 3500 
L 1159 2956 
Q 1356 3278 1631 3431 
Q 1906 3584 2284 3584 
Q 2666 3584 2933 3390 
Q 3200 3197 3328 2828 
z
" transform="scale(0.015625)"/>
       <path id="DejaVuSans-65" d="M 3597 1894 
L 3597 1613 
L 953 1613 
Q 991 1019 1311 708 
Q 1631 397 2203 397 
Q 2534 397 2845 478 
Q 3156 559 3463 722 
L 3463 178 
Q 3153 47 2828 -22 
Q 2503 -91 2169 -91 
Q 1331 -91 842 396 
Q 353 884 353 1716 
Q 353 2575 817 3079 
Q 1281 3584 2069 3584 
Q 2775 3584 3186 3129 
Q 3597 2675 3597 1894 
z
M 3022 2063 
Q 3016 2534 2758 2815 
Q 2500 3097 2075 3097 
Q 1594 3097 1305 2825 
Q 1016 2553 972 2059 
L 3022 2063 
z
" transform="scale(0.015625)"/>
       <path id="DejaVuSans-28" d="M 1984 4856 
Q 1566 4138 1362 3434 
Q 1159 2731 1159 2009 
Q 1159 1288 1364 580 
Q 1569 -128 1984 -844 
L 1484 -844 
Q 1016 -109 783 600 
Q 550 1309 550 2009 
Q 550 2706 781 3412 
Q 1013 4119 1484 4856 
L 1984 4856 
z
" transform="scale(0.015625)"/>
       <path id="DejaVuSans-73" d="M 2834 3397 
L 2834 2853 
Q 2591 2978 2328 3040 
Q 2066 3103 1784 3103 
Q 1356 3103 1142 2972 
Q 928 2841 928 2578 
Q 928 2378 1081 2264 
Q 1234 2150 1697 2047 
L 1894 2003 
Q 2506 1872 2764 1633 
Q 3022 1394 3022 966 
Q 3022 478 2636 193 
Q 2250 -91 1575 -91 
Q 1294 -91 989 -36 
Q 684 19 347 128 
L 347 722 
Q 666 556 975 473 
Q 1284 391 1588 391 
Q 1994 391 2212 530 
Q 2431 669 2431 922 
Q 2431 1156 2273 1281 
Q 2116 1406 1581 1522 
L 1381 1569 
Q 847 1681 609 1914 
Q 372 2147 372 2553 
Q 372 3047 722 3315 
Q 1072 3584 1716 3584 
Q 2034 3584 2315 3537 
Q 2597 3491 2834 3397 
z
" transform="scale(0.015625)"/>
       <path id="DejaVuSans-29" d="M 513 4856 
L 1013 4856 
Q 1481 4119 1714 3412 
Q 1947 2706 1947 2009 
Q 1947 1309 1714 600 
Q 1481 -109 1013 -844 
L 513 -844 
Q 928 -128 1133 580 
Q 1338 1288 1338 2009 
Q 1338 2731 1133 3434 
Q 928 4138 513 4856 
z
" transform="scale(0.015625)"/>
      </defs>
      <use xlink:href="#DejaVuSans-54"/>
      <use xlink:href="#DejaVuSans-69" x="57.958984"/>
      <use xlink:href="#DejaVuSans-6d" x="85.742188"/>
      <use xlink:href="#DejaVuSans-65" x="183.154297"/>
      <use xlink:href="#DejaVuSans-28" x="244.677734"/>
      <use xlink:href="#DejaVuSans-73" x="283.691406"/>
      <use xlink:href="#DejaVuSans-29" x="335.791016"/>
     </g>
    </g>
   </g>
   <g id="matplotlib.axis_2">
    <g id="ytick_1">
     <g id="line2d_13">
      <path d="M 57.6 257.830519 
L 414.72 257.830519 
" clip-path="url(#p14e551208d)" style="fill: none; stroke: #b0b0b0; stroke-width: 0.8; stroke-linecap: square"/>
     </g>
     <g id="line2d_14">
      <defs>
       <path id="maf3d3289b5" d="M 0 0 
L -3.5 0 
" style="stroke: #000000; stroke-width: 0.8"/>
      </defs>
      <g>
       <use xlink:href="#maf3d3289b5" x="57.6" y="257.830519" style="stroke: #000000; stroke-width: 0.8"/>
      </g>
     </g>
     <g id="text_8">
      <!-- 4 -->
      <g transform="translate(44.2375 261.629738) scale(0.1 -0.1)">
       <defs>
        <path id="DejaVuSans-34" d="M 2419 4116 
L 825 1625 
L 2419 1625 
L 2419 4116 
z
M 2253 4666 
L 3047 4666 
L 3047 1625 
L 3713 1625 
L 3713 1100 
L 3047 1100 
L 3047 0 
L 2419 0 
L 2419 1100 
L 313 1100 
L 313 1709 
L 2253 4666 
z
" transform="scale(0.015625)"/>
       </defs>
       <use xlink:href="#DejaVuSans-34"/>
      </g>
     </g>
    </g>
    <g id="ytick_2">
     <g id="line2d_15">
      <path d="M 57.6 206.76489 
L 414.72 206.76489 
" clip-path="url(#p14e551208d)" style="fill: none; stroke: #b0b0b0; stroke-width: 0.8; stroke-linecap: square"/>
     </g>
     <g id="line2d_16">
      <g>
       <use xlink:href="#maf3d3289b5" x="57.6" y="206.76489" style="stroke: #000000; stroke-width: 0.8"/>
      </g>
     </g>
     <g id="text_9">
      <!-- 5 -->
      <g transform="translate(44.2375 210.564108) scale(0.1 -0.1)">
       <use xlink:href="#DejaVuSans-35"/>
      </g>
     </g>
    </g>
    <g id="ytick_3">
     <g id="line2d_17">
      <path d="M 57.6 155.69926 
L 414.72 155.69926 
" clip-path="url(#p14e551208d)" style="fill: none; stroke: #b0b0b0; stroke-width: 0.8; stroke-linecap: square"/>
     </g>
     <g id="line2d_18">
      <g>
       <use xlink:href="#maf3d3289b5" x="57.6" y="155.69926" style="stroke: #000000; stroke-width: 0.8"/>
      </g>
     </g>
     <g id="text_10">
      <!-- 6 -->
      <g transform="translate(44.2375 159.498478) scale(0.1 -0.1)">
       <defs>
        <path id="DejaVuSans-36" d="M 2113 2584 
Q 1688 2584 1439 2293 
Q 1191 2003 1191 1497 
Q 1191 994 1439 701 
Q 1688 409 2113 409 
Q 2538 409 2786 701 
Q 3034 994 3034 1497 
Q 3034 2003 2786 2293 
Q 2538 2584 2113 2584 
z
M 3366 4563 
L 3366 3988 
Q 3128 4100 2886 4159 
Q 2644 4219 2406 4219 
Q 1781 4219 1451 3797 
Q 1122 3375 1075 2522 
Q 1259 2794 1537 2939 
Q 1816 3084 2150 3084 
Q 2853 3084 3261 2657 
Q 3669 2231 3669 1497 
Q 3669 778 3244 343 
Q 2819 -91 2113 -91 
Q 1303 -91 875 529 
Q 447 1150 447 2328 
Q 447 3434 972 4092 
Q 1497 4750 2381 4750 
Q 2619 4750 2861 4703 
Q 3103 4656 3366 4563 
z
" transform="scale(0.015625)"/>
       </defs>
       <use xlink:href="#DejaVuSans-36"/>
      </g>
     </g>
    </g>
    <g id="ytick_4">
     <g id="line2d_19">
      <path d="M 57.6 104.63363 
L 414.72 104.63363 
" clip-path="url(#p14e551208d)" style="fill: none; stroke: #b0b0b0; stroke-width: 0.8; stroke-linecap: square"/>
     </g>
     <g id="line2d_20">
      <g>
       <use xlink:href="#maf3d3289b5" x="57.6" y="104.63363" style="stroke: #000000; stroke-width: 0.8"/>
      </g>
     </g>
     <g id="text_11">
      <!-- 7 -->
      <g transform="translate(44.2375 108.432849) scale(0.1 -0.1)">
       <defs>
        <path id="DejaVuSans-37" d="M 525 4666 
L 3525 4666 
L 3525 4397 
L 1831 0 
L 1172 0 
L 2766 4134 
L 525 4134 
L 525 4666 
z
" transform="scale(0.015625)"/>
       </defs>
       <use xlink:href="#DejaVuSans-37"/>
      </g>
     </g>
    </g>
    <g id="ytick_5">
     <g id="line2d_21">
      <path d="M 57.6 53.568 
L 414.72 53.568 
" clip-path="url(#p14e551208d)" style="fill: none; stroke: #b0b0b0; stroke-width: 0.8; stroke-linecap: square"/>
     </g>
     <g id="line2d_22">
      <g>
       <use xlink:href="#maf3d3289b5" x="57.6" y="53.568" style="stroke: #000000; stroke-width: 0.8"/>
      </g>
     </g>
     <g id="text_12">
      <!-- 8 -->
      <g transform="translate(44.2375 57.367219) scale(0.1 -0.1)">
       <defs>
        <path id="DejaVuSans-38" d="M 2034 2216 
Q 1584 2216 1326 1975 
Q 1069 1734 1069 1313 
Q 1069 891 1326 650 
Q 1584 409 2034 409 
Q 2484 409 2743 651 
Q 3003 894 3003 1313 
Q 3003 1734 2745 1975 
Q 2488 2216 2034 2216 
z
M 1403 2484 
Q 997 2584 770 2862 
Q 544 3141 544 3541 
Q 544 4100 942 4425 
Q 1341 4750 2034 4750 
Q 2731 4750 3128 4425 
Q 3525 4100 3525 3541 
Q 3525 3141 3298 2862 
Q 3072 2584 2669 2484 
Q 3125 2378 3379 2068 
Q 3634 1759 3634 1313 
Q 3634 634 3220 271 
Q 2806 -91 2034 -91 
Q 1263 -91 848 271 
Q 434 634 434 1313 
Q 434 1759 690 2068 
Q 947 2378 1403 2484 
z
M 1172 3481 
Q 1172 3119 1398 2916 
Q 1625 2713 2034 2713 
Q 2441 2713 2670 2916 
Q 2900 3119 2900 3481 
Q 2900 3844 2670 4047 
Q 2441 4250 2034 4250 
Q 1625 4250 1398 4047 
Q 1172 3844 1172 3481 
z
" transform="scale(0.015625)"/>
       </defs>
       <use xlink:href="#DejaVuSans-38"/>
      </g>
     </g>
    </g>
    <g id="text_13">
     <!-- Velocity(m/s) -->
     <g transform="translate(38.157812 207.204563) rotate(-90) scale(0.1 -0.1)">
      <defs>
       <path id="DejaVuSans-56" d="M 1831 0 
L 50 4666 
L 709 4666 
L 2188 738 
L 3669 4666 
L 4325 4666 
L 2547 0 
L 1831 0 
z
" transform="scale(0.015625)"/>
       <path id="DejaVuSans-6c" d="M 603 4863 
L 1178 4863 
L 1178 0 
L 603 0 
L 603 4863 
z
" transform="scale(0.015625)"/>
       <path id="DejaVuSans-6f" d="M 1959 3097 
Q 1497 3097 1228 2736 
Q 959 2375 959 1747 
Q 959 1119 1226 758 
Q 1494 397 1959 397 
Q 2419 397 2687 759 
Q 2956 1122 2956 1747 
Q 2956 2369 2687 2733 
Q 2419 3097 1959 3097 
z
M 1959 3584 
Q 2709 3584 3137 3096 
Q 3566 2609 3566 1747 
Q 3566 888 3137 398 
Q 2709 -91 1959 -91 
Q 1206 -91 779 398 
Q 353 888 353 1747 
Q 353 2609 779 3096 
Q 1206 3584 1959 3584 
z
" transform="scale(0.015625)"/>
       <path id="DejaVuSans-63" d="M 3122 3366 
L 3122 2828 
Q 2878 2963 2633 3030 
Q 2388 3097 2138 3097 
Q 1578 3097 1268 2742 
Q 959 2388 959 1747 
Q 959 1106 1268 751 
Q 1578 397 2138 397 
Q 2388 397 2633 464 
Q 2878 531 3122 666 
L 3122 134 
Q 2881 22 2623 -34 
Q 2366 -91 2075 -91 
Q 1284 -91 818 406 
Q 353 903 353 1747 
Q 353 2603 823 3093 
Q 1294 3584 2113 3584 
Q 2378 3584 2631 3529 
Q 2884 3475 3122 3366 
z
" transform="scale(0.015625)"/>
       <path id="DejaVuSans-74" d="M 1172 4494 
L 1172 3500 
L 2356 3500 
L 2356 3053 
L 1172 3053 
L 1172 1153 
Q 1172 725 1289 603 
Q 1406 481 1766 481 
L 2356 481 
L 2356 0 
L 1766 0 
Q 1100 0 847 248 
Q 594 497 594 1153 
L 594 3053 
L 172 3053 
L 172 3500 
L 594 3500 
L 594 4494 
L 1172 4494 
z
" transform="scale(0.015625)"/>
       <path id="DejaVuSans-79" d="M 2059 -325 
Q 1816 -950 1584 -1140 
Q 1353 -1331 966 -1331 
L 506 -1331 
L 506 -850 
L 844 -850 
Q 1081 -850 1212 -737 
Q 1344 -625 1503 -206 
L 1606 56 
L 191 3500 
L 800 3500 
L 1894 763 
L 2988 3500 
L 3597 3500 
L 2059 -325 
z
" transform="scale(0.015625)"/>
       <path id="DejaVuSans-2f" d="M 1625 4666 
L 2156 4666 
L 531 -594 
L 0 -594 
L 1625 4666 
z
" transform="scale(0.015625)"/>
      </defs>
      <use xlink:href="#DejaVuSans-56"/>
      <use xlink:href="#DejaVuSans-65" x="60.658203"/>
      <use xlink:href="#DejaVuSans-6c" x="122.181641"/>
      <use xlink:href="#DejaVuSans-6f" x="149.964844"/>
      <use xlink:href="#DejaVuSans-63" x="211.146484"/>
      <use xlink:href="#DejaVuSans-69" x="266.126953"/>
      <use xlink:href="#DejaVuSans-74" x="293.910156"/>
      <use xlink:href="#DejaVuSans-79" x="333.119141"/>
      <use xlink:href="#DejaVuSans-28" x="392.298828"/>
      <use xlink:href="#DejaVuSans-6d" x="431.3125"/>
      <use xlink:href="#DejaVuSans-2f" x="528.724609"/>
      <use xlink:href="#DejaVuSans-73" x="562.416016"/>
      <use xlink:href="#DejaVuSans-29" x="614.515625"/>
     </g>
    </g>
   </g>
   <g id="line2d_23">
    <path d="M 73.832727 54.062315 
L 75.693212 53.79468 
L 75.693212 53.79468 
L 78.716499 53.631883 
L 78.716499 53.631883 
L 85.228195 53.572187 
L 85.228195 53.572187 
L 87.5538 53.569583 
L 87.5538 53.569583 
L 87.786361 54.531711 
L 87.786361 54.531711 
L 88.949164 64.412093 
L 88.949164 64.412093 
L 89.414285 69.476067 
L 89.414285 69.476067 
L 89.879406 74.177067 
L 89.879406 74.177067 
L 90.344527 79.180988 
L 90.344527 79.180988 
L 90.809648 84.027372 
L 90.809648 84.027372 
L 91.274769 89.251947 
L 91.274769 89.251947 
L 94.298057 118.2249 
L 94.298057 118.2249 
L 95.925981 127.503372 
L 95.925981 127.503372 
L 96.623662 129.756235 
L 96.623662 129.756235 
L 97.088784 130.872121 
L 97.088784 130.872121 
L 97.786465 131.86499 
L 97.786465 131.86499 
L 98.484147 132.280919 
L 98.484147 132.280919 
L 99.414389 132.397247 
L 99.414389 132.397247 
L 100.809753 132.176184 
L 100.809753 132.176184 
L 101.274874 131.915187 
L 101.274874 131.915187 
L 101.972555 131.032569 
L 101.972555 131.032569 
L 102.670237 129.383711 
L 102.670237 129.383711 
L 103.83304 124.641961 
L 103.83304 124.641961 
L 104.763282 118.356497 
L 104.763282 118.356497 
L 105.460964 112.063781 
L 105.460964 112.063781 
L 106.158645 104.282707 
L 106.158645 104.282707 
L 107.786569 81.328502 
L 107.786569 81.328502 
L 108.484251 74.292322 
L 108.484251 74.292322 
L 109.181933 69.039558 
L 109.181933 69.039558 
L 109.879614 65.118126 
L 109.879614 65.118126 
L 110.577296 62.190636 
L 110.577296 62.190636 
L 111.274978 60.005129 
L 111.274978 60.005129 
L 111.97266 58.373582 
L 111.97266 58.373582 
L 112.902902 56.822515 
L 112.902902 56.822515 
L 113.833144 55.772044 
L 113.833144 55.772044 
L 114.763386 55.060648 
L 114.763386 55.060648 
L 115.926189 54.485037 
L 115.926189 54.485037 
L 117.321552 54.079065 
L 117.321552 54.079065 
L 119.182037 53.802391 
L 119.182037 53.802391 
L 121.972764 53.64082 
L 121.972764 53.64082 
L 128.019338 53.57377 
L 128.019338 53.57377 
L 131.507747 53.613857 
L 131.507747 53.613857 
L 131.972868 57.274905 
L 131.972868 57.274905 
L 132.437989 64.788651 
L 132.437989 64.788651 
L 134.065913 102.384291 
L 134.065913 102.384291 
L 136.624079 147.241923 
L 136.624079 147.241923 
L 138.484564 167.77577 
L 138.484564 167.77577 
L 139.879927 178.672461 
L 139.879927 178.672461 
L 141.972972 189.680832 
L 141.972972 189.680832 
L 144.066017 197.43571 
L 144.066017 197.43571 
L 145.461381 200.617354 
L 145.461381 200.617354 
L 146.391623 201.641066 
L 146.391623 201.641066 
L 146.624183 201.747742 
L 146.624183 201.747742 
L 147.089305 202.122156 
L 147.089305 202.122156 
L 147.786986 202.426098 
L 147.786986 202.426098 
L 148.484668 202.508722 
L 148.484668 202.508722 
L 149.647471 202.4717 
L 149.647471 202.4717 
L 150.577713 202.119041 
L 150.577713 202.119041 
L 151.507955 201.284015 
L 151.507955 201.284015 
L 152.438197 199.540788 
L 152.438197 199.540788 
L 153.36844 196.319619 
L 153.36844 196.319619 
L 154.298682 191.044131 
L 154.298682 191.044131 
L 155.228924 183.07871 
L 155.228924 183.07871 
L 155.926606 174.917912 
L 155.926606 174.917912 
L 156.624288 165.877763 
L 156.624288 165.877763 
L 157.089409 162.237448 
L 157.089409 162.237448 
L 157.55453 160.24216 
L 157.55453 160.24216 
L 158.019651 159.758416 
L 158.019651 159.758416 
L 158.252212 159.942507 
L 158.252212 159.942507 
L 158.484772 160.33367 
L 158.484772 160.33367 
L 158.717333 161.172985 
L 158.717333 161.172985 
L 159.182454 163.262437 
L 159.182454 163.262437 
L 159.647575 164.951075 
L 159.647575 164.951075 
L 160.345257 166.814817 
L 160.345257 166.814817 
L 161.042938 167.713368 
L 161.042938 167.713368 
L 161.275499 167.782409 
L 161.275499 167.782409 
L 161.508059 167.99234 
L 161.508059 167.99234 
L 161.74062 167.989327 
L 161.74062 167.989327 
L 162.205741 168.201045 
L 162.205741 168.201045 
L 163.135983 168.120668 
L 163.135983 168.120668 
L 163.833665 167.951538 
L 163.833665 167.951538 
L 164.996468 166.80486 
L 164.996468 166.80486 
L 165.461589 166.089941 
L 165.461589 166.089941 
L 166.856952 161.486528 
L 166.856952 161.486528 
L 167.322073 159.041301 
L 167.322073 159.041301 
L 168.019755 154.853409 
L 168.019755 154.853409 
L 168.717437 149.36416 
L 168.717437 149.36416 
L 169.88024 137.875721 
L 169.88024 137.875721 
L 170.577921 129.116433 
L 170.577921 129.116433 
L 171.740724 113.943456 
L 171.740724 113.943456 
L 172.205845 111.186576 
L 172.205845 111.186576 
L 172.438406 112.108821 
L 172.438406 112.108821 
L 172.670966 112.476085 
L 172.670966 112.476085 
L 172.903527 115.031511 
L 172.903527 115.031511 
L 173.368648 124.816912 
L 173.368648 124.816912 
L 173.601209 129.437381 
L 173.601209 129.437381 
L 174.06633 141.221183 
L 174.06633 141.221183 
L 176.624496 197.321578 
L 176.624496 197.321578 
L 176.857057 200.520686 
L 176.857057 200.520686 
L 177.554738 212.612159 
L 177.554738 212.612159 
L 177.787299 215.353107 
L 177.787299 215.353107 
L 178.48498 226.155173 
L 178.48498 226.155173 
L 178.717541 228.419832 
L 178.717541 228.419832 
L 178.950102 232.339629 
L 178.950102 232.339629 
L 179.647783 238.749591 
L 179.647783 238.749591 
L 181.508268 255.354092 
L 181.508268 255.354092 
L 182.205949 260.100029 
L 182.205949 260.100029 
L 183.833873 266.557636 
L 183.833873 266.557636 
L 184.531555 268.271347 
L 184.531555 268.271347 
L 185.229237 269.399948 
L 185.229237 269.399948 
L 186.159479 270.05844 
L 186.159479 270.05844 
L 188.252524 270.16532 
L 188.252524 270.16532 
L 189.415327 269.850347 
L 189.415327 269.850347 
L 190.113009 269.109998 
L 190.113009 269.109998 
L 190.57813 268.560174 
L 190.57813 268.560174 
L 191.275811 266.942415 
L 191.275811 266.942415 
L 191.740933 265.761727 
L 191.740933 265.761727 
L 192.438614 262.834134 
L 192.438614 262.834134 
L 192.903735 260.735847 
L 192.903735 260.735847 
L 193.601417 256.046133 
L 193.601417 256.046133 
L 193.833978 254.402126 
L 194.99678 242.64212 
L 194.99678 242.64212 
L 195.461902 238.678355 
L 195.461902 238.678355 
L 195.694462 238.297303 
L 195.694462 238.297303 
L 195.927023 237.496798 
L 195.927023 237.496798 
L 196.159583 237.19209 
L 196.159583 237.19209 
L 196.624704 240.756573 
L 196.624704 240.756573 
L 196.857265 245.309125 
L 196.857265 245.309125 
L 197.089825 247.614074 
L 197.089825 247.614074 
L 197.322386 253.110625 
L 197.322386 253.110625 
L 197.787507 257.873517 
L 197.787507 257.873517 
L 198.485189 268.337222 
L 198.485189 268.337222 
L 198.95031 272.146207 
L 198.95031 272.146207 
L 199.415431 276.826525 
L 199.415431 276.826525 
L 200.113113 282.277883 
L 200.113113 282.277883 
L 200.578234 285.78742 
L 200.578234 285.78742 
L 200.810794 286.795353 
L 200.810794 286.795353 
L 201.275916 289.14953 
L 201.275916 289.14953 
L 202.438718 292.915518 
L 202.438718 292.915518 
L 203.368961 294.430175 
L 203.368961 294.430175 
L 204.066642 295.071202 
L 204.066642 295.071202 
L 204.996885 295.279703 
L 204.996885 295.279703 
L 205.462006 295.328675 
L 205.462006 295.328675 
L 206.392248 295.19713 
L 206.392248 295.19713 
L 207.32249 294.749234 
L 207.32249 294.749234 
L 208.485293 293.145262 
L 208.485293 293.145262 
L 209.880656 289.121239 
L 209.880656 289.121239 
L 211.043459 283.574899 
L 211.043459 283.574899 
L 213.136504 264.395006 
L 213.136504 264.395006 
L 213.834186 255.724011 
L 213.834186 255.724011 
L 214.299307 251.422855 
L 214.299307 251.422855 
L 214.764428 249.560134 
L 214.764428 249.560134 
L 214.996989 249.628307 
L 214.996989 249.628307 
L 215.229549 249.481034 
L 215.229549 249.481034 
L 215.46211 252.18884 
L 215.46211 252.18884 
L 215.927231 254.097928 
L 215.927231 254.097928 
L 216.624913 260.599757 
L 216.624913 260.599757 
L 217.555155 266.280145 
L 217.555155 266.280145 
L 218.020276 269.280761 
L 218.020276 269.280761 
L 219.415639 274.876993 
L 219.415639 274.876993 
L 219.880761 276.097308 
L 219.880761 276.097308 
L 220.345882 277.058823 
L 220.345882 277.058823 
L 221.043563 277.979638 
L 221.043563 277.979638 
L 221.973806 278.671475 
L 221.973806 278.671475 
L 222.671487 278.746184 
L 222.671487 278.746184 
L 223.136608 278.824825 
L 223.136608 278.824825 
L 224.299411 278.742559 
L 224.299411 278.742559 
L 224.997093 278.608767 
L 224.997093 278.608767 
L 226.392456 277.703577 
L 226.392456 277.703577 
L 226.857577 277.159933 
L 226.857577 277.159933 
L 228.02038 274.96457 
L 228.02038 274.96457 
L 229.648304 269.493654 
L 229.648304 269.493654 
L 230.345986 266.497889 
L 230.345986 266.497889 
L 232.439031 253.77744 
L 232.439031 253.77744 
L 233.136713 248.844194 
L 233.136713 248.844194 
L 235.927439 223.078622 
L 235.927439 223.078622 
L 237.322803 206.475756 
L 237.322803 206.475756 
L 239.415848 176.126431 
L 239.415848 176.126431 
L 240.811211 152.636292 
L 240.811211 152.636292 
L 243.136817 111.866923 
L 243.136817 111.866923 
L 244.29962 92.054174 
L 244.29962 92.054174 
L 244.997301 82.301302 
L 244.997301 82.301302 
L 245.694983 75.018577 
L 245.694983 75.018577 
L 246.392665 69.581722 
L 246.392665 69.581722 
L 247.090346 65.522872 
L 247.090346 65.522872 
L 247.788028 62.492791 
L 247.788028 62.492791 
L 248.48571 60.230737 
L 248.48571 60.230737 
L 249.183392 58.541997 
L 249.183392 58.541997 
L 250.113634 56.936544 
L 250.113634 56.936544 
L 251.043876 55.849306 
L 251.043876 55.849306 
L 251.974118 55.11294 
L 251.974118 55.11294 
L 253.136921 54.517157 
L 253.136921 54.517157 
L 254.532284 54.096989 
L 254.532284 54.096989 
L 256.392769 53.810613 
L 256.392769 53.810613 
L 259.183496 53.643373 
L 259.183496 53.643373 
L 264.99751 53.574587 
L 264.99751 53.574587 
L 282.904673 53.568 
L 282.904673 53.568 
L 283.137234 54.323822 
L 283.137234 54.323822 
L 284.300036 73.240625 
L 284.300036 73.240625 
L 285.462839 91.098429 
L 285.462839 91.098429 
L 286.393082 100.441397 
L 286.393082 100.441397 
L 287.090763 104.280766 
L 287.090763 104.280766 
L 287.555884 105.535347 
L 287.555884 105.535347 
L 288.486127 106.250929 
L 288.486127 106.250929 
L 288.718687 106.370576 
L 288.718687 106.370576 
L 289.183808 106.286931 
L 289.183808 106.286931 
L 289.88149 105.591468 
L 289.88149 105.591468 
L 290.811732 102.927221 
L 290.811732 102.927221 
L 291.276853 101.044278 
L 291.276853 101.044278 
L 292.207096 94.928454 
L 292.207096 94.928454 
L 294.765262 69.995149 
L 294.765262 69.995149 
L 295.462943 65.831513 
L 295.462943 65.831513 
L 296.160625 62.723199 
L 296.160625 62.723199 
L 296.625746 61.133731 
L 296.625746 61.133731 
L 296.858307 60.66648 
L 296.858307 60.66648 
L 297.090867 60.730108 
L 297.090867 60.730108 
L 298.02111 67.216004 
L 298.02111 67.216004 
L 298.486231 72.255467 
L 298.486231 72.255467 
L 299.881594 88.10486 
L 299.881594 88.10486 
L 300.346715 93.56638 
L 300.346715 93.56638 
L 300.811836 99.242887 
L 300.811836 99.242887 
L 301.276958 105.191318 
L 301.276958 105.191318 
L 302.2072 116.248814 
L 302.2072 116.248814 
L 302.672321 122.440215 
L 302.672321 122.440215 
L 303.602563 133.98023 
L 303.602563 133.98023 
L 304.067684 140.145026 
L 304.067684 140.145026 
L 305.695608 158.556433 
L 305.695608 158.556433 
L 306.62585 165.973409 
L 306.62585 165.973409 
L 307.090972 169.512462 
L 307.090972 169.512462 
L 307.556093 172.332101 
L 307.556093 172.332101 
L 308.021214 174.708083 
L 308.021214 174.708083 
L 308.951456 178.627268 
L 308.951456 178.627268 
L 309.881698 180.892488 
L 309.881698 180.892488 
L 311.044501 182.167495 
L 311.044501 182.167495 
L 311.277062 182.320743 
L 311.277062 182.320743 
L 312.207304 182.356897 
L 312.207304 182.356897 
L 312.439865 182.39346 
L 312.439865 182.39346 
L 314.067788 181.803499 
L 314.067788 181.803499 
L 314.53291 181.332725 
L 314.53291 181.332725 
L 315.695712 178.552814 
L 315.695712 178.552814 
L 316.160834 177.016862 
L 316.160834 177.016862 
L 316.625955 175.171401 
L 316.625955 175.171401 
L 318.253879 164.582075 
L 318.253879 164.582075 
L 319.881803 147.571858 
L 319.881803 147.571858 
L 321.277166 128.456614 
L 321.277166 128.456614 
L 323.835332 85.223022 
L 323.835332 85.223022 
L 324.533014 77.199744 
L 324.533014 77.199744 
L 325.230695 71.210052 
L 325.230695 71.210052 
L 325.928377 66.73849 
L 325.928377 66.73849 
L 326.626059 63.400279 
L 326.626059 63.400279 
L 327.323741 60.908225 
L 327.323741 60.908225 
L 328.021422 59.047751 
L 328.021422 59.047751 
L 328.951664 57.279041 
L 328.951664 57.279041 
L 329.881907 56.081246 
L 329.881907 56.081246 
L 330.812149 55.270069 
L 330.812149 55.270069 
L 331.509831 54.927827 
L 331.509831 54.927827 
L 331.742391 55.668993 
L 331.742391 55.668993 
L 331.974952 57.671021 
L 331.974952 57.671021 
L 332.440073 63.047517 
L 332.440073 63.047517 
L 332.905194 69.483625 
L 332.905194 69.483625 
L 334.998239 116.697834 
L 334.998239 116.697834 
L 336.393603 137.229383 
L 336.393603 137.229383 
L 337.556405 145.831184 
L 337.556405 145.831184 
L 338.254087 148.95252 
L 338.254087 148.95252 
L 338.951769 150.701926 
L 338.951769 150.701926 
L 339.41689 151.28341 
L 339.41689 151.28341 
L 339.882011 151.723494 
L 339.882011 151.723494 
L 340.579693 151.781198 
L 340.579693 151.781198 
L 341.277374 151.893287 
L 341.277374 151.893287 
L 342.207617 151.736618 
L 342.207617 151.736618 
L 343.370419 150.835514 
L 343.370419 150.835514 
L 344.533222 148.752087 
L 344.533222 148.752087 
L 345.696025 145.435426 
L 345.696025 145.435426 
L 346.161146 144.75375 
L 346.161146 144.75375 
L 346.393707 144.646462 
L 346.393707 144.646462 
L 347.323949 150.195661 
L 347.323949 150.195661 
L 347.55651 152.506024 
L 347.55651 152.506024 
L 348.254191 163.300889 
L 348.254191 163.300889 
L 348.719312 171.383404 
L 348.719312 171.383404 
L 349.184433 183.125486 
L 349.184433 183.125486 
L 349.882115 200.428002 
L 349.882115 200.428002 
L 352.207721 242.524005 
L 352.207721 242.524005 
L 352.672842 246.859069 
L 352.672842 246.859069 
L 353.835645 260.418066 
L 353.835645 260.418066 
L 354.765887 267.15541 
L 354.765887 267.15541 
L 354.998448 269.666154 
L 354.998448 269.666154 
L 355.92869 274.863001 
L 355.92869 274.863001 
L 356.393811 277.407499 
L 356.393811 277.407499 
L 357.556614 281.473344 
L 357.556614 281.473344 
L 358.254295 282.906399 
L 358.254295 282.906399 
L 358.951977 283.503407 
L 358.951977 283.503407 
L 359.417098 283.810925 
L 359.417098 283.810925 
L 360.11478 283.855556 
L 360.11478 283.855556 
L 361.742704 283.674273 
L 361.742704 283.674273 
L 362.440386 283.383046 
L 362.440386 283.383046 
L 363.603188 281.857868 
L 363.603188 281.857868 
L 364.998552 277.782269 
L 364.998552 277.782269 
L 365.696233 275.022172 
L 365.696233 275.022172 
L 366.393915 271.452378 
L 366.393915 271.452378 
L 367.091597 267.493107 
L 367.091597 267.493107 
L 369.882324 245.423512 
L 369.882324 245.423512 
L 370.812566 236.340366 
L 370.812566 236.340366 
L 371.510247 228.922981 
L 371.510247 228.922981 
L 372.207929 221.07016 
L 372.207929 221.07016 
L 373.603293 206.937287 
L 373.603293 206.937287 
L 374.300974 203.028622 
L 374.300974 203.028622 
L 374.766095 201.445485 
L 374.766095 201.445485 
L 375.231216 200.458335 
L 375.231216 200.458335 
L 375.696338 199.833241 
L 375.696338 199.833241 
L 376.161459 199.439474 
L 376.161459 199.439474 
L 376.85914 199.007663 
L 376.85914 199.007663 
L 378.021943 198.537144 
L 378.021943 198.537144 
L 379.184746 197.76784 
L 379.184746 197.76784 
L 379.649867 197.171139 
L 379.649867 197.171139 
L 380.114988 196.354855 
L 380.114988 196.354855 
L 380.580109 195.186881 
L 380.580109 195.186881 
L 381.277791 192.673074 
L 381.277791 192.673074 
L 381.510352 191.615147 
L 381.510352 191.615147 
L 382.905715 181.351211 
L 382.905715 181.351211 
L 384.068518 169.224758 
L 384.068518 169.224758 
L 385.696442 143.464343 
L 385.696442 143.464343 
L 388.719729 85.950912 
L 388.719729 85.950912 
L 389.417411 77.743133 
L 389.417411 77.743133 
L 390.115092 71.615717 
L 390.115092 71.615717 
L 390.812774 67.04136 
L 390.812774 67.04136 
L 391.510456 63.626397 
L 391.510456 63.626397 
L 392.208138 61.076997 
L 392.208138 61.076997 
L 392.905819 59.173781 
L 392.905819 59.173781 
L 393.603501 57.75293 
L 393.603501 57.75293 
L 394.533743 56.402142 
L 394.533743 56.402142 
L 395.463985 55.487404 
L 395.463985 55.487404 
L 396.394228 54.867876 
L 396.394228 54.867876 
L 397.55703 54.366564 
L 397.55703 54.366564 
L 398.487273 54.111032 
L 398.487273 54.111032 
" clip-path="url(#p14e551208d)" style="fill: none; stroke: #1f77b4; stroke-width: 1.5; stroke-linecap: square"/>
   </g>
   <g id="line2d_24">
    <path d="M 73.832727 53.568 
L 87.32124 53.568 
L 87.32124 53.568 
L 88.251482 63.420603 
L 88.251482 63.420603 
L 88.716603 69.203785 
L 88.716603 69.203785 
L 88.949164 73.161116 
L 88.949164 73.161116 
L 89.181724 73.38606 
L 89.181724 73.38606 
L 89.414285 75.628148 
L 89.414285 75.628148 
L 89.879406 82.755531 
L 89.879406 82.755531 
L 90.111967 83.088377 
L 90.111967 83.088377 
L 90.577088 88.997283 
L 90.577088 88.997283 
L 90.809648 93.084882 
L 90.809648 93.084882 
L 91.042209 93.265553 
L 91.50733 99.053178 
L 91.50733 99.053178 
L 91.739891 102.888258 
L 91.739891 102.888258 
L 91.972451 102.664794 
L 92.437572 108.99203 
L 92.437572 108.99203 
L 92.670133 109.340451 
L 92.670133 109.340451 
L 93.367815 115.39326 
L 93.367815 115.39326 
L 94.065496 122.529682 
L 94.065496 122.529682 
L 94.298057 122.336705 
L 94.298057 122.336705 
L 94.763178 126.237098 
L 94.763178 126.237098 
L 94.995738 126.226527 
L 94.995738 126.226527 
L 95.46086 129.290771 
L 95.46086 129.290771 
L 95.69342 129.077164 
L 95.69342 129.077164 
L 95.925981 130.064773 
L 96.856223 131.837568 
L 96.856223 131.837568 
L 97.321344 132.194618 
L 97.321344 132.194618 
L 97.553905 132.414098 
L 97.553905 132.414098 
L 98.019026 132.340972 
L 98.019026 132.340972 
L 98.251586 132.539822 
L 98.251586 132.539822 
L 98.716707 132.321874 
L 98.716707 132.321874 
L 98.949268 132.52246 
L 99.414389 132.168013 
L 99.414389 132.168013 
L 99.64695 132.400004 
L 99.64695 132.400004 
L 99.87951 132.083755 
L 99.87951 132.083755 
L 100.112071 132.213921 
L 100.112071 132.213921 
L 100.344631 131.822963 
L 100.344631 131.822963 
L 100.577192 131.017096 
L 100.577192 131.017096 
L 100.809753 131.120453 
L 100.809753 131.120453 
L 101.042313 130.322706 
L 101.042313 130.322706 
L 101.274874 128.751978 
L 101.274874 128.751978 
L 101.507434 128.958845 
L 101.507434 128.958845 
L 101.739995 127.692928 
L 101.739995 127.692928 
L 101.972555 124.962908 
L 101.972555 124.962908 
L 102.205116 125.461768 
L 102.205116 125.461768 
L 102.437676 123.320842 
L 102.437676 123.320842 
L 102.670237 119.439394 
L 102.670237 119.439394 
L 102.902798 120.425727 
L 102.902798 120.425727 
L 103.135358 117.172285 
L 103.135358 117.172285 
L 103.367919 116.26015 
L 103.367919 116.26015 
L 103.600479 113.685064 
L 103.600479 113.685064 
L 103.83304 109.229996 
L 103.83304 109.229996 
L 104.0656 108.348859 
L 104.0656 108.348859 
L 104.298161 105.090718 
L 104.298161 105.090718 
L 104.530722 99.589469 
L 104.530722 99.589469 
L 104.763282 98.280146 
L 104.763282 98.280146 
L 104.995843 94.830357 
L 104.995843 94.830357 
L 105.228403 88.438829 
L 105.228403 88.438829 
L 105.460964 86.653881 
L 105.460964 86.653881 
L 105.693524 82.598555 
L 105.693524 82.598555 
L 106.158645 66.539538 
L 106.158645 66.539538 
L 106.391206 68.222763 
L 106.391206 68.222763 
L 106.856327 53.876998 
L 106.856327 53.876998 
L 107.088888 54.026365 
L 107.088888 54.026365 
L 107.321448 53.568 
L 107.321448 53.568 
L 131.042626 53.568 
L 131.042626 53.568 
L 131.275186 53.698371 
L 131.507747 59.287555 
L 131.507747 59.287555 
L 131.740307 60.528858 
L 131.740307 60.528858 
L 132.437989 81.240822 
L 132.437989 81.240822 
L 132.67055 89.847934 
L 132.67055 89.847934 
L 132.90311 89.468159 
L 132.90311 89.468159 
L 133.368231 102.425961 
L 133.368231 102.425961 
L 133.600792 110.984509 
L 133.600792 110.984509 
L 133.833352 110.090912 
L 133.833352 110.090912 
L 134.065913 114.644893 
L 134.065913 114.644893 
L 134.298474 122.858391 
L 134.298474 122.858391 
L 134.531034 123.155389 
L 134.531034 123.155389 
L 134.763595 127.535033 
L 134.763595 127.535033 
L 134.996155 134.295101 
L 134.996155 134.295101 
L 135.228716 135.443465 
L 135.228716 135.443465 
L 135.461276 138.952695 
L 135.461276 138.952695 
L 135.693837 145.250517 
L 135.693837 145.250517 
L 135.926397 145.961248 
L 135.926397 145.961248 
L 136.158958 148.948792 
L 136.158958 148.948792 
L 136.391519 155.363248 
L 136.391519 155.363248 
L 136.624079 154.938229 
L 136.624079 154.938229 
L 136.85664 158.961843 
L 136.85664 158.961843 
L 137.0892 160.411034 
L 137.0892 160.411034 
L 137.321761 163.063536 
L 137.321761 163.063536 
L 137.554321 167.308214 
L 137.554321 167.308214 
L 137.786882 167.348351 
L 137.786882 167.348351 
L 138.252003 171.70573 
L 138.252003 171.70573 
L 138.484564 173.227895 
L 138.484564 173.227895 
L 138.717124 176.993168 
L 138.717124 176.993168 
L 138.949685 176.708988 
L 138.949685 176.708988 
L 139.182245 179.63658 
L 139.182245 179.63658 
L 139.414806 179.976677 
L 139.414806 179.976677 
L 140.345048 186.447816 
L 140.345048 186.447816 
L 140.577609 186.096229 
L 140.577609 186.096229 
L 140.810169 188.137527 
L 140.810169 188.137527 
L 141.04273 188.175315 
L 141.04273 188.175315 
L 141.27529 190.074446 
L 141.27529 190.074446 
L 141.507851 190.401572 
L 141.507851 190.401572 
L 141.740412 191.71498 
L 141.740412 191.71498 
L 141.972972 192.269247 
L 141.972972 192.269247 
L 142.205533 193.420215 
L 142.205533 193.420215 
L 142.438093 193.854732 
L 142.438093 193.854732 
L 142.903214 196.697811 
L 142.903214 196.697811 
L 143.135775 196.783295 
L 143.135775 196.783295 
L 143.368336 197.759517 
L 143.368336 197.759517 
L 143.600896 197.85981 
L 143.600896 197.85981 
L 143.833457 198.778582 
L 143.833457 198.778582 
L 144.066017 199.064652 
L 144.066017 199.064652 
L 144.298578 200.096484 
L 144.298578 200.096484 
L 145.926502 201.920344 
L 145.926502 201.920344 
L 146.159062 202.020178 
L 146.159062 202.020178 
L 146.391623 201.950984 
L 146.391623 201.950984 
L 146.624183 202.459904 
L 146.624183 202.459904 
L 146.856744 202.368445 
L 146.856744 202.368445 
L 147.321865 202.611824 
L 147.321865 202.611824 
L 147.786986 202.329737 
L 147.786986 202.329737 
L 148.252107 202.613152 
L 148.252107 202.613152 
L 148.484668 202.521948 
L 148.484668 202.521948 
L 148.717228 202.290059 
L 148.717228 202.290059 
L 148.949789 202.465368 
L 148.949789 202.465368 
L 149.18235 202.473487 
L 149.18235 202.473487 
L 149.41491 202.307728 
L 149.41491 202.307728 
L 149.647471 201.526271 
L 149.647471 201.526271 
L 149.880031 202.003683 
L 149.880031 202.003683 
L 150.112592 200.576654 
L 150.112592 200.576654 
L 150.345152 201.483223 
L 150.345152 201.483223 
L 150.577713 199.910044 
L 150.577713 199.910044 
L 150.810274 200.673475 
L 150.810274 200.673475 
L 151.042834 198.239125 
L 151.042834 198.239125 
L 151.275395 199.483135 
L 151.275395 199.483135 
L 151.507955 196.689743 
L 151.507955 196.689743 
L 151.740516 197.813289 
L 151.740516 197.813289 
L 151.973076 193.909117 
L 151.973076 193.909117 
L 152.205637 195.483573 
L 152.205637 195.483573 
L 152.438197 191.173787 
L 152.438197 191.173787 
L 152.670758 192.52003 
L 152.670758 192.52003 
L 152.903319 187.000601 
L 152.903319 187.000601 
L 153.135879 188.244254 
L 153.135879 188.244254 
L 153.36844 182.769967 
L 153.36844 182.769967 
L 153.601 183.830294 
L 153.601 183.830294 
L 153.833561 176.873827 
L 153.833561 176.873827 
L 154.066121 177.529357 
L 154.066121 177.529357 
L 154.298682 170.867079 
L 154.298682 170.867079 
L 154.531243 170.795588 
L 154.531243 170.795588 
L 154.763803 163.392042 
L 154.763803 163.392042 
L 154.996364 162.057186 
L 154.996364 162.057186 
L 155.228924 155.390517 
L 155.228924 155.390517 
L 155.461485 152.010074 
L 155.461485 152.010074 
L 155.926606 137.925663 
L 155.926606 137.925663 
L 156.159166 137.247971 
L 156.159166 137.247971 
L 156.391727 142.158697 
L 156.391727 142.158697 
L 156.624288 142.50099 
L 156.624288 142.50099 
L 156.856848 147.872992 
L 156.856848 147.872992 
L 157.089409 149.281536 
L 157.089409 149.281536 
L 157.321969 152.498517 
L 157.321969 152.498517 
L 157.55453 157.665542 
L 157.55453 157.665542 
L 157.78709 157.368953 
L 157.78709 157.368953 
L 158.019651 160.293226 
L 158.019651 160.293226 
L 158.252212 161.078871 
L 158.252212 161.078871 
L 158.717333 164.916453 
L 158.717333 164.916453 
L 158.949893 164.788176 
L 158.949893 164.788176 
L 159.182454 165.995163 
L 159.182454 165.995163 
L 159.647575 166.833456 
L 159.647575 166.833456 
L 160.112696 167.879689 
L 160.112696 167.879689 
L 160.345257 167.804623 
L 160.345257 167.804623 
L 160.810378 168.220041 
L 160.810378 168.220041 
L 161.042938 167.914056 
L 161.042938 167.914056 
L 161.275499 168.392286 
L 161.508059 167.959658 
L 161.508059 167.959658 
L 161.74062 168.438807 
L 161.74062 168.438807 
L 162.438302 168.042333 
L 162.438302 168.042333 
L 162.670862 167.709436 
L 162.670862 167.709436 
L 162.903423 167.927129 
L 162.903423 167.927129 
L 163.135983 167.474739 
L 163.135983 167.474739 
L 163.368544 167.593619 
L 163.368544 167.593619 
L 163.601104 167.308367 
L 163.601104 167.308367 
L 163.833665 165.715017 
L 163.833665 165.715017 
L 164.066226 166.309932 
L 164.066226 166.309932 
L 164.298786 164.688036 
L 164.298786 164.688036 
L 164.531347 164.994072 
L 164.531347 164.994072 
L 164.763907 163.708853 
L 164.763907 163.708853 
L 165.229028 162.390236 
L 165.229028 162.390236 
L 165.461589 158.39001 
L 165.461589 158.39001 
L 165.69415 159.6067 
L 165.69415 159.6067 
L 165.92671 156.080924 
L 166.159271 156.136024 
L 166.624392 152.422787 
L 166.624392 152.422787 
L 166.856952 150.493527 
L 166.856952 150.493527 
L 167.089513 145.120657 
L 167.089513 145.120657 
L 167.322073 145.616198 
L 167.322073 145.616198 
L 167.554634 141.942588 
L 167.554634 141.942588 
L 167.787195 140.4912 
L 167.787195 140.4912 
L 168.019755 137.568101 
L 168.019755 137.568101 
L 168.252316 130.983699 
L 168.252316 130.983699 
L 168.484876 131.605474 
L 168.484876 131.605474 
L 168.717437 126.682441 
L 168.717437 126.682441 
L 168.949997 125.111509 
L 168.949997 125.111509 
L 169.182558 121.451023 
L 169.182558 121.451023 
L 169.415119 114.161608 
L 169.415119 114.161608 
L 169.647679 113.990079 
L 169.647679 113.990079 
L 169.88024 109.32457 
L 169.88024 109.32457 
L 170.1128 100.150885 
L 170.1128 100.150885 
L 170.345361 101.244659 
L 170.345361 101.244659 
L 170.810482 85.195447 
L 170.810482 85.195447 
L 171.043042 86.445738 
L 171.043042 86.445738 
L 171.275603 86.506301 
L 171.275603 86.506301 
L 171.508164 95.56131 
L 171.508164 95.56131 
L 171.740724 94.538261 
L 171.973285 101.851574 
L 171.973285 101.851574 
L 172.205845 113.865785 
L 172.205845 113.865785 
L 172.438406 113.175735 
L 172.438406 113.175735 
L 172.670966 119.899802 
L 172.670966 119.899802 
L 172.903527 132.409656 
L 172.903527 132.409656 
L 173.136088 132.062716 
L 173.136088 132.062716 
L 173.368648 138.239768 
L 173.368648 138.239768 
L 173.601209 150.668836 
L 173.601209 150.668836 
L 173.833769 149.747305 
L 173.833769 149.747305 
L 174.06633 156.666902 
L 174.06633 156.666902 
L 174.29889 169.319944 
L 174.29889 169.319944 
L 174.531451 165.952625 
L 174.531451 165.952625 
L 174.764011 175.392873 
L 174.764011 175.392873 
L 174.996572 176.097936 
L 174.996572 176.097936 
L 175.229133 182.66181 
L 175.229133 182.66181 
L 175.461693 185.721714 
L 175.461693 185.721714 
L 175.694254 190.435837 
L 175.694254 190.435837 
L 175.926814 200.85343 
L 175.926814 200.85343 
L 176.159375 198.905736 
L 176.159375 198.905736 
L 176.391935 207.331258 
L 176.391935 207.331258 
L 176.624496 206.615216 
L 176.624496 206.615216 
L 176.857057 214.303504 
L 176.857057 214.303504 
L 177.089617 213.855199 
L 177.089617 213.855199 
L 177.322178 220.975893 
L 177.322178 220.975893 
L 177.554738 220.574772 
L 177.554738 220.574772 
L 177.787299 227.512651 
L 178.019859 227.077265 
L 178.019859 227.077265 
L 178.25242 233.816498 
L 178.25242 233.816498 
L 178.48498 232.734213 
L 178.48498 232.734213 
L 178.717541 239.807212 
L 178.717541 239.807212 
L 178.950102 237.909715 
L 178.950102 237.909715 
L 179.647783 245.152302 
L 179.647783 245.152302 
L 179.880344 248.830662 
L 180.112904 249.238574 
L 180.112904 249.238574 
L 180.345465 253.723719 
L 180.345465 253.723719 
L 180.578026 252.909376 
L 180.578026 252.909376 
L 180.810586 258.016449 
L 180.810586 258.016449 
L 181.043147 256.584161 
L 181.043147 256.584161 
L 181.275707 257.835881 
L 181.508268 260.39095 
L 181.508268 260.39095 
L 181.740828 260.511159 
L 181.740828 260.511159 
L 181.973389 263.59348 
L 181.973389 263.59348 
L 182.205949 262.937082 
L 182.205949 262.937082 
L 183.136192 267.344965 
L 183.136192 267.344965 
L 183.368752 267.326326 
L 183.368752 267.326326 
L 184.066434 268.669506 
L 184.066434 268.669506 
L 184.298995 269.363334 
L 184.298995 269.363334 
L 184.996676 270.066202 
L 184.996676 270.066202 
L 185.229237 269.973569 
L 185.229237 269.973569 
L 185.461797 270.023204 
L 185.461797 270.023204 
L 185.694358 270.357327 
L 185.694358 270.357327 
L 186.159479 270.119565 
L 186.159479 270.119565 
L 186.39204 270.226956 
L 186.39204 270.226956 
L 186.6246 270.072074 
L 186.6246 270.072074 
L 186.857161 270.178138 
L 186.857161 270.178138 
L 187.089721 270.000327 
L 187.089721 270.000327 
L 187.554842 270.215722 
L 187.554842 270.215722 
L 187.787403 270.217254 
L 187.787403 270.217254 
L 188.019964 270.032703 
L 188.019964 270.032703 
L 188.252524 269.498556 
L 188.252524 269.498556 
L 188.485085 269.672179 
L 188.485085 269.672179 
L 188.717645 269.598492 
L 188.717645 269.598492 
L 189.182766 268.857887 
L 189.182766 268.857887 
L 189.415327 267.667956 
L 189.415327 267.667956 
L 189.647887 267.788981 
L 189.647887 267.788981 
L 189.880448 265.541583 
L 189.880448 265.541583 
L 190.113009 266.344743 
L 190.113009 266.344743 
L 190.345569 265.696056 
L 190.345569 265.696056 
L 190.57813 263.596289 
L 190.57813 263.596289 
L 190.81069 263.561513 
L 190.81069 263.561513 
L 191.043251 259.754366 
L 191.043251 259.754366 
L 191.275811 260.924433 
L 191.275811 260.924433 
L 191.508372 259.683946 
L 191.508372 259.683946 
L 191.740933 256.505111 
L 191.740933 256.505111 
L 191.973493 256.146835 
L 191.973493 256.146835 
L 192.206054 250.567608 
L 192.206054 250.567608 
L 192.438614 252.133382 
L 192.438614 252.133382 
L 192.671175 249.940267 
L 192.671175 249.940267 
L 192.903735 245.749055 
L 192.903735 245.749055 
L 193.136296 244.564639 
L 193.136296 244.564639 
L 193.368856 237.224721 
L 193.368856 237.224721 
L 193.601417 238.337543 
L 193.601417 238.337543 
L 193.833978 226.955576 
L 193.833978 226.955576 
L 194.066538 230.213154 
L 194.066538 230.213154 
L 194.299099 227.533588 
L 194.299099 227.533588 
L 194.531659 218.942919 
L 194.531659 218.942919 
L 194.76422 218.655266 
L 194.76422 218.655266 
L 194.99678 220.845267 
L 194.99678 220.845267 
L 195.229341 219.720699 
L 195.229341 219.720699 
L 195.461902 234.573597 
L 195.461902 234.573597 
L 195.694462 229.674769 
L 195.694462 229.674769 
L 195.927023 234.214708 
L 195.927023 234.214708 
L 196.159583 242.828918 
L 196.159583 242.828918 
L 196.392144 243.85069 
L 196.392144 243.85069 
L 196.624704 253.982214 
L 196.624704 253.982214 
L 196.857265 252.005208 
L 196.857265 252.005208 
L 197.089825 263.582041 
L 197.089825 263.582041 
L 197.322386 259.835816 
L 197.322386 259.835816 
L 197.554947 262.537034 
L 197.554947 262.537034 
L 197.787507 268.79717 
L 197.787507 268.79717 
L 198.020068 268.304233 
L 198.020068 268.304233 
L 198.252628 276.733637 
L 198.252628 276.733637 
L 198.485189 273.90649 
L 198.485189 273.90649 
L 198.717749 275.750521 
L 198.717749 275.750521 
L 198.95031 280.769507 
L 198.95031 280.769507 
L 199.182871 280.087985 
L 199.182871 280.087985 
L 199.415431 281.739549 
L 199.415431 281.739549 
L 199.647992 284.879473 
L 199.647992 284.879473 
L 199.880552 285.269359 
L 199.880552 285.269359 
L 200.113113 288.884806 
L 200.113113 288.884806 
L 200.345673 288.140728 
L 200.345673 288.140728 
L 200.578234 288.715574 
L 200.578234 288.715574 
L 200.810794 291.249859 
L 200.810794 291.249859 
L 201.043355 290.713261 
L 201.043355 290.713261 
L 201.275916 291.500438 
L 201.275916 291.500438 
L 201.508476 293.116563 
L 201.508476 293.116563 
L 201.741037 293.046654 
L 201.741037 293.046654 
L 201.973597 293.388743 
L 201.973597 293.388743 
L 202.206158 294.080631 
L 202.206158 294.080631 
L 202.438718 294.168311 
L 202.438718 294.168311 
L 202.671279 294.819806 
L 202.671279 294.819806 
L 202.90384 294.795193 
L 202.90384 294.795193 
L 203.368961 295.051951 
L 203.368961 295.051951 
L 203.601521 295.342003 
L 203.601521 295.342003 
L 203.834082 295.42713 
L 203.834082 295.42713 
L 204.066642 295.141979 
L 204.066642 295.141979 
L 204.996885 295.488 
L 204.996885 295.488 
L 205.229445 295.106233 
L 205.229445 295.106233 
L 205.462006 295.165725 
L 205.462006 295.165725 
L 205.927127 294.845952 
L 205.927127 294.845952 
L 206.159687 294.788452 
L 206.159687 294.788452 
L 206.392248 294.289183 
L 206.392248 294.289183 
L 206.624809 294.112241 
L 206.624809 294.112241 
L 207.08993 293.373015 
L 207.08993 293.373015 
L 207.32249 291.613395 
L 207.32249 291.613395 
L 207.555051 291.732123 
L 207.555051 291.732123 
L 207.787611 291.21539 
L 207.787611 291.21539 
L 208.020172 289.77105 
L 208.020172 289.77105 
L 208.252732 289.272445 
L 208.252732 289.272445 
L 208.485293 285.879797 
L 208.485293 285.879797 
L 208.717854 287.357075 
L 208.717854 287.357075 
L 208.950414 286.014968 
L 208.950414 286.014968 
L 209.182975 281.984869 
L 209.182975 281.984869 
L 209.415535 283.166834 
L 209.415535 283.166834 
L 209.648096 281.744094 
L 209.648096 281.744094 
L 209.880656 277.471076 
L 209.880656 277.471076 
L 210.113217 278.335872 
L 210.113217 278.335872 
L 210.345778 276.230028 
L 210.345778 276.230028 
L 210.578338 271.62738 
L 210.578338 271.62738 
L 210.810899 271.799931 
L 210.810899 271.799931 
L 211.043459 261.389334 
L 211.043459 261.389334 
L 211.27602 264.262338 
L 211.27602 264.262338 
L 211.50858 263.192104 
L 211.50858 263.192104 
L 211.741141 252.333458 
L 211.741141 252.333458 
L 211.973701 255.823998 
L 211.973701 255.823998 
L 212.206262 252.670695 
L 212.206262 252.670695 
L 212.438823 241.766753 
L 212.438823 241.766753 
L 212.671383 244.256509 
L 212.671383 244.256509 
L 212.903944 239.412985 
L 212.903944 239.412985 
L 213.136504 229.606393 
L 213.136504 229.606393 
L 213.369065 228.366162 
L 213.369065 228.366162 
L 213.601625 232.309705 
L 213.601625 232.309705 
L 213.834186 228.892801 
L 213.834186 228.892801 
L 214.764428 249.758218 
L 214.764428 249.758218 
L 214.996989 248.042106 
L 214.996989 248.042106 
L 215.229549 257.347387 
L 215.229549 257.347387 
L 215.46211 254.565792 
L 215.46211 254.565792 
L 215.69467 256.176095 
L 215.69467 256.176095 
L 215.927231 260.924075 
L 215.927231 260.924075 
L 216.159792 260.376805 
L 216.159792 260.376805 
L 216.392352 265.933256 
L 216.392352 265.933256 
L 216.624913 264.533547 
L 216.624913 264.533547 
L 216.857473 265.710304 
L 216.857473 265.710304 
L 217.090034 268.591477 
L 217.090034 268.591477 
L 217.322594 268.553791 
L 217.322594 268.553791 
L 217.555155 271.989231 
L 217.555155 271.989231 
L 217.787716 271.253376 
L 217.787716 271.253376 
L 218.020276 272.109848 
L 218.020276 272.109848 
L 218.252837 273.827236 
L 218.252837 273.827236 
L 218.485397 273.917776 
L 218.485397 273.917776 
L 218.717958 275.849742 
L 218.717958 275.849742 
L 218.950518 275.635215 
L 219.183079 276.054617 
L 219.183079 276.054617 
L 219.415639 277.005663 
L 219.415639 277.005663 
L 219.6482 277.026141 
L 219.6482 277.026141 
L 219.880761 277.852025 
L 219.880761 277.852025 
L 220.113321 277.739834 
L 220.113321 277.739834 
L 220.578442 278.32091 
L 220.578442 278.32091 
L 221.741245 278.976235 
L 221.741245 278.976235 
L 222.206366 278.687714 
L 222.206366 278.687714 
L 222.438927 278.790611 
L 222.438927 278.790611 
L 222.671487 278.63144 
L 222.671487 278.63144 
L 222.904048 278.994976 
L 223.369169 278.637363 
L 223.369169 278.637363 
L 223.60173 278.736686 
L 223.60173 278.736686 
L 223.83429 278.357881 
L 223.83429 278.357881 
L 224.066851 278.546058 
L 224.299411 278.547539 
L 224.531972 278.030806 
L 224.531972 278.030806 
L 224.764532 278.107506 
L 224.764532 278.107506 
L 224.997093 277.019247 
L 224.997093 277.019247 
L 225.229654 277.46602 
L 225.229654 277.46602 
L 225.462214 277.237961 
L 225.462214 277.237961 
L 225.694775 276.029901 
L 225.694775 276.029901 
L 225.927335 276.265825 
L 225.927335 276.265825 
L 226.159896 275.880483 
L 226.159896 275.880483 
L 226.392456 274.765159 
L 226.392456 274.765159 
L 226.625017 274.51315 
L 226.625017 274.51315 
L 226.857577 272.351695 
L 226.857577 272.351695 
L 227.090138 273.108539 
L 227.090138 273.108539 
L 227.322699 272.149986 
L 227.322699 272.149986 
L 227.555259 270.394554 
L 227.555259 270.394554 
L 227.78782 270.053997 
L 227.78782 270.053997 
L 228.02038 266.943487 
L 228.02038 266.943487 
L 228.252941 267.699361 
L 228.252941 267.699361 
L 228.485501 266.686832 
L 228.485501 266.686832 
L 228.718062 264.562195 
L 228.718062 264.562195 
L 228.950623 263.949305 
L 228.950623 263.949305 
L 229.183183 259.997898 
L 229.183183 259.997898 
L 229.415744 260.983005 
L 229.415744 260.983005 
L 229.648304 259.690074 
L 229.648304 259.690074 
L 229.880865 257.260984 
L 229.880865 257.260984 
L 230.113425 256.390264 
L 230.113425 256.390264 
L 230.345986 251.888625 
L 230.345986 251.888625 
L 230.578546 252.880626 
L 230.578546 252.880626 
L 230.811107 251.336656 
L 230.811107 251.336656 
L 231.043668 248.34656 
L 231.043668 248.34656 
L 231.276228 247.540642 
L 231.276228 247.540642 
L 231.508789 242.796032 
L 231.508789 242.796032 
L 231.741349 243.561097 
L 231.741349 243.561097 
L 231.97391 236.906326 
L 232.20647 238.920815 
L 232.20647 238.920815 
L 232.439031 237.489036 
L 232.439031 237.489036 
L 232.671592 232.850337 
L 232.671592 232.850337 
L 232.904152 233.028454 
L 232.904152 233.028454 
L 233.136713 226.443183 
L 233.369273 228.328884 
L 233.369273 228.328884 
L 233.601834 226.099971 
L 233.601834 226.099971 
L 233.834394 222.092187 
L 233.834394 222.092187 
L 234.066955 220.992591 
L 234.066955 220.992591 
L 234.299515 215.264355 
L 234.299515 215.264355 
L 234.532076 215.516721 
L 234.532076 215.516721 
L 234.764637 207.739732 
L 234.764637 207.739732 
L 234.997197 209.657043 
L 234.997197 209.657043 
L 235.229758 200.243451 
L 235.229758 200.243451 
L 235.462318 203.258826 
L 235.462318 203.258826 
L 235.694879 200.172521 
L 235.694879 200.172521 
L 235.927439 195.321848 
L 235.927439 195.321848 
L 236.16 193.005 
L 236.16 193.005 
L 236.392561 187.713018 
L 236.392561 187.713018 
L 236.625121 185.914486 
L 236.625121 185.914486 
L 236.857682 179.877355 
L 236.857682 179.877355 
L 237.090242 177.838968 
L 237.090242 177.838968 
L 237.322803 171.741834 
L 237.322803 171.741834 
L 237.555363 170.243364 
L 237.555363 170.243364 
L 237.787924 163.981901 
L 237.787924 163.981901 
L 238.020485 162.108864 
L 238.020485 162.108864 
L 238.253045 156.048344 
L 238.253045 156.048344 
L 238.485606 153.506144 
L 238.485606 153.506144 
L 239.183287 141.51093 
L 239.183287 141.51093 
L 239.415848 130.466915 
L 239.415848 130.466915 
L 239.648408 132.45587 
L 239.648408 132.45587 
L 239.880969 124.286748 
L 239.880969 124.286748 
L 240.11353 123.574893 
L 240.11353 123.574893 
L 240.578651 115.236336 
L 240.578651 115.236336 
L 240.811211 110.663408 
L 240.811211 110.663408 
L 241.043772 102.636096 
L 241.043772 102.636096 
L 241.276332 102.588707 
L 241.276332 102.588707 
L 241.508893 97.488935 
L 241.508893 97.488935 
L 241.741454 89.084912 
L 241.741454 89.084912 
L 241.974014 89.983718 
L 241.974014 89.983718 
L 242.439135 76.72657 
L 242.439135 76.72657 
L 242.671696 77.831885 
L 242.671696 77.831885 
L 243.136817 65.207491 
L 243.136817 65.207491 
L 243.369377 66.754678 
L 243.369377 66.754678 
L 243.834499 55.706016 
L 243.834499 55.706016 
L 244.067059 55.618642 
L 244.067059 55.618642 
L 244.29962 53.592409 
L 244.29962 53.592409 
L 245.462423 53.568 
L 245.462423 53.568 
L 282.672113 53.568 
L 282.672113 53.568 
L 282.904673 55.763669 
L 282.904673 55.763669 
L 283.137234 64.456214 
L 283.137234 64.456214 
L 283.369794 64.805094 
L 283.369794 64.805094 
L 284.067476 83.27206 
L 284.067476 83.27206 
L 284.300036 84.036308 
L 284.300036 84.036308 
L 284.997718 95.833439 
L 284.997718 95.833439 
L 285.230279 96.482177 
L 285.230279 96.482177 
L 285.92796 103.45049 
L 285.92796 103.45049 
L 286.160521 103.75239 
L 286.160521 103.75239 
L 286.625642 105.720715 
L 286.625642 105.720715 
L 286.858203 106.266555 
L 286.858203 106.266555 
L 287.090763 106.462341 
L 287.090763 106.462341 
L 287.323324 106.494768 
L 287.323324 106.494768 
L 287.555884 106.122295 
L 287.555884 106.122295 
L 288.021005 106.560132 
L 288.021005 106.560132 
L 288.253566 106.430527 
L 288.253566 106.430527 
L 288.486127 106.598533 
L 288.486127 106.598533 
L 288.718687 106.308583 
L 288.718687 106.308583 
L 288.951248 105.5259 
L 288.951248 105.5259 
L 289.183808 103.678498 
L 289.183808 103.678498 
L 289.416369 104.370131 
L 289.416369 104.370131 
L 289.648929 102.681238 
L 289.648929 102.681238 
L 289.88149 99.107001 
L 289.88149 99.107001 
L 290.114051 99.862006 
L 290.114051 99.862006 
L 290.346611 97.795176 
L 290.346611 97.795176 
L 290.579172 93.522413 
L 290.579172 93.522413 
L 290.811732 93.691031 
L 290.811732 93.691031 
L 291.044293 91.024078 
L 291.044293 91.024078 
L 291.276853 85.836474 
L 291.276853 85.836474 
L 291.509414 85.081009 
L 291.509414 85.081009 
L 291.741974 82.028254 
L 291.741974 82.028254 
L 292.207096 69.600514 
L 292.207096 69.600514 
L 292.439656 70.874346 
L 292.439656 70.874346 
L 292.672217 66.971707 
L 292.672217 66.971707 
L 292.904777 58.628553 
L 292.904777 58.628553 
L 293.137338 57.615717 
L 293.137338 57.615717 
L 293.369898 53.875364 
L 293.369898 53.875364 
L 293.602459 53.568 
L 293.602459 53.568 
L 296.160625 53.568 
L 296.160625 53.568 
L 296.393186 53.907484 
L 296.393186 53.907484 
L 296.625746 56.100804 
L 296.625746 56.100804 
L 297.090867 65.456232 
L 297.090867 65.456232 
L 297.323428 65.357062 
L 297.323428 65.357062 
L 297.555989 67.670386 
L 297.555989 67.670386 
L 298.02111 76.118837 
L 298.02111 76.118837 
L 298.25367 76.017881 
L 298.25367 76.017881 
L 298.951352 86.478675 
L 298.951352 86.478675 
L 299.183912 87.118783 
L 299.183912 87.118783 
L 299.881594 97.503949 
L 299.881594 97.503949 
L 300.114155 97.80733 
L 300.114155 97.80733 
L 300.579276 105.143418 
L 300.579276 105.143418 
L 300.811836 109.989751 
L 300.811836 109.989751 
L 301.044397 109.476081 
L 301.044397 109.476081 
L 301.276958 112.739839 
L 301.509518 117.966713 
L 301.509518 117.966713 
L 301.742079 118.238892 
L 301.742079 118.238892 
L 301.974639 121.135284 
L 301.974639 121.135284 
L 302.2072 126.915913 
L 302.2072 126.915913 
L 302.43976 127.24018 
L 302.43976 127.24018 
L 302.672321 130.146785 
L 302.672321 130.146785 
L 302.904881 135.92961 
L 302.904881 135.92961 
L 303.137442 136.167984 
L 303.137442 136.167984 
L 303.370003 138.988237 
L 303.370003 138.988237 
L 303.602563 144.997844 
L 303.602563 144.997844 
L 303.835124 144.664488 
L 303.835124 144.664488 
L 304.067684 148.048199 
L 304.067684 148.048199 
L 304.300245 153.690695 
L 304.300245 153.690695 
L 304.532805 152.438872 
L 304.532805 152.438872 
L 304.765366 156.581827 
L 304.765366 156.581827 
L 304.997927 157.280711 
L 304.997927 157.280711 
L 305.230487 159.785021 
L 305.230487 159.785021 
L 305.463048 164.202862 
L 305.463048 164.202862 
L 305.695608 163.529102 
L 305.695608 163.529102 
L 305.928169 166.99799 
L 305.928169 166.99799 
L 306.160729 167.249692 
L 306.160729 167.249692 
L 306.39329 169.370039 
L 306.39329 169.370039 
L 306.62585 172.621541 
L 306.62585 172.621541 
L 306.858411 171.894928 
L 306.858411 171.894928 
L 307.090972 174.529302 
L 307.090972 174.529302 
L 307.323532 174.413894 
L 307.323532 174.413894 
L 307.556093 176.353213 
L 307.556093 176.353213 
L 307.788653 176.597562 
L 307.788653 176.597562 
L 308.021214 177.697516 
L 308.021214 177.697516 
L 308.253774 179.352502 
L 308.253774 179.352502 
L 308.486335 179.393252 
L 308.486335 179.393252 
L 308.718896 180.180786 
L 308.718896 180.180786 
L 308.951456 180.462516 
L 308.951456 180.462516 
L 309.184017 181.124428 
L 309.184017 181.124428 
L 309.416577 181.128309 
L 309.416577 181.128309 
L 309.649138 181.976305 
L 309.881698 181.723275 
L 309.881698 181.723275 
L 310.114259 182.504528 
L 310.114259 182.504528 
L 310.346819 182.157997 
L 310.346819 182.157997 
L 310.57938 182.409546 
L 310.57938 182.409546 
L 310.811941 182.449224 
L 310.811941 182.449224 
L 311.044501 182.612685 
L 311.044501 182.612685 
L 311.277062 182.195275 
L 311.509622 182.108923 
L 311.509622 182.108923 
L 311.742183 182.553296 
L 311.742183 182.553296 
L 311.974743 182.121536 
L 311.974743 182.121536 
L 312.207304 182.463114 
L 312.207304 182.463114 
L 312.439865 181.547609 
L 312.439865 181.547609 
L 312.672425 182.188942 
L 312.672425 182.188942 
L 312.904986 181.414532 
L 312.904986 181.414532 
L 313.137546 181.598062 
L 313.137546 181.598062 
L 313.835228 180.286033 
L 313.835228 180.286033 
L 314.300349 178.895924 
L 314.300349 178.895924 
L 314.53291 175.746349 
L 314.53291 175.746349 
L 314.76547 176.947158 
L 314.76547 176.947158 
L 314.998031 173.669051 
L 314.998031 173.669051 
L 315.230591 174.180115 
L 315.230591 174.180115 
L 315.463152 171.242003 
L 315.463152 171.242003 
L 315.695712 171.167856 
L 315.695712 171.167856 
L 315.928273 168.707616 
L 315.928273 168.707616 
L 316.160834 167.600564 
L 316.160834 167.600564 
L 316.393394 165.68116 
L 316.625955 159.46198 
L 316.625955 159.46198 
L 316.858515 161.045831 
L 316.858515 161.045831 
L 317.091076 155.85118 
L 317.091076 155.85118 
L 317.323636 156.351623 
L 317.323636 156.351623 
L 317.556197 151.705315 
L 317.556197 151.705315 
L 317.788757 150.527384 
L 317.788757 150.527384 
L 318.021318 147.344565 
L 318.253879 139.137859 
L 318.253879 139.137859 
L 318.486439 141.349665 
L 318.486439 141.349665 
L 318.719 134.137921 
L 318.719 134.137921 
L 318.95156 134.149002 
L 318.95156 134.149002 
L 319.184121 129.120263 
L 319.184121 129.120263 
L 319.416681 120.186995 
L 319.416681 120.186995 
L 319.649242 122.606944 
L 319.649242 122.606944 
L 319.881803 114.766787 
L 319.881803 114.766787 
L 320.114363 114.406928 
L 320.114363 114.406928 
L 320.346924 109.549105 
L 320.346924 109.549105 
L 320.579484 99.886263 
L 320.579484 99.886263 
L 320.812045 100.992957 
L 320.812045 100.992957 
L 321.277166 84.55345 
L 321.277166 84.55345 
L 321.509726 86.275638 
L 321.509726 86.275638 
L 321.974848 69.115697 
L 321.974848 69.115697 
L 322.207408 71.088873 
L 322.207408 71.088873 
L 322.672529 55.649435 
L 322.672529 55.649435 
L 322.90509 56.148908 
L 323.13765 53.568 
L 323.13765 53.568 
L 331.04471 53.568 
L 331.04471 53.568 
L 331.27727 54.5288 
L 331.27727 54.5288 
L 331.509831 57.080958 
L 331.509831 57.080958 
L 331.974952 67.097277 
L 331.974952 67.097277 
L 332.207512 67.108716 
L 332.207512 67.108716 
L 332.672633 76.46685 
L 332.672633 76.46685 
L 332.905194 85.003031 
L 332.905194 85.003031 
L 333.137755 85.799502 
L 333.137755 85.799502 
L 333.602876 98.878584 
L 333.602876 98.878584 
L 333.835436 108.816977 
L 333.835436 108.816977 
L 334.067997 109.545224 
L 334.067997 109.545224 
L 334.533118 120.980453 
L 334.533118 120.980453 
L 334.765679 128.233866 
L 334.998239 126.757661 
L 334.998239 126.757661 
L 335.46336 136.92493 
L 335.46336 136.92493 
L 335.695921 135.989765 
L 335.695921 135.989765 
L 336.161042 143.633626 
L 336.161042 143.633626 
L 336.393603 142.570235 
L 336.393603 142.570235 
L 336.626163 145.120708 
L 336.626163 145.120708 
L 336.858724 145.876684 
L 336.858724 145.876684 
L 337.091284 147.014885 
L 337.091284 147.014885 
L 337.323845 148.869385 
L 337.323845 148.869385 
L 337.556405 149.104185 
L 337.556405 149.104185 
L 338.254087 150.916402 
L 338.254087 150.916402 
L 338.719208 151.635508 
L 338.719208 151.635508 
L 339.184329 151.742133 
L 339.184329 151.742133 
L 339.64945 152.138913 
L 339.64945 152.138913 
L 339.882011 151.710319 
L 339.882011 151.710319 
L 340.114572 151.896198 
L 340.114572 151.896198 
L 340.347132 151.772006 
L 340.347132 151.772006 
L 340.812253 152.114197 
L 340.812253 152.114197 
L 341.044814 151.477919 
L 341.044814 151.477919 
L 341.277374 151.7094 
L 341.277374 151.7094 
L 341.509935 151.2901 
L 341.509935 151.2901 
L 341.742495 151.398206 
L 341.742495 151.398206 
L 341.975056 151.288466 
L 341.975056 151.288466 
L 342.207617 149.937065 
L 342.207617 149.937065 
L 342.440177 150.240855 
L 342.440177 150.240855 
L 342.672738 149.282251 
L 342.672738 149.282251 
L 342.905298 149.194571 
L 342.905298 149.194571 
L 343.137859 148.691677 
L 343.137859 148.691677 
L 343.370419 146.536298 
L 343.370419 146.536298 
L 343.60298 146.836003 
L 343.60298 146.836003 
L 343.835541 145.379355 
L 343.835541 145.379355 
L 344.068101 144.982678 
L 344.068101 144.982678 
L 344.300662 144.091531 
L 344.300662 144.091531 
L 344.533222 141.329034 
L 344.533222 141.329034 
L 344.765783 141.474571 
L 344.765783 141.474571 
L 345.230904 139.304946 
L 345.230904 139.304946 
L 345.463464 139.197504 
L 345.463464 139.197504 
L 345.696025 141.194272 
L 345.928586 141.940392 
L 345.928586 141.940392 
L 346.161146 143.598033 
L 346.161146 143.598033 
L 346.393707 148.314046 
L 346.393707 148.314046 
L 346.626267 147.987941 
L 346.626267 147.987941 
L 346.858828 151.867244 
L 346.858828 151.867244 
L 347.091388 153.560835 
L 347.091388 153.560835 
L 347.323949 156.907472 
L 347.323949 156.907472 
L 347.55651 164.54878 
L 347.55651 164.54878 
L 347.78907 164.437712 
L 347.78907 164.437712 
L 348.021631 170.862688 
L 348.021631 170.862688 
L 348.254191 174.172915 
L 348.254191 174.172915 
L 348.486752 179.651644 
L 348.486752 179.651644 
L 348.719312 193.598536 
L 348.951873 190.926936 
L 348.951873 190.926936 
L 349.184433 202.917401 
L 349.184433 202.917401 
L 349.416994 202.674941 
L 349.416994 202.674941 
L 349.649555 212.059425 
L 349.649555 212.059425 
L 349.882115 212.986675 
L 349.882115 212.986675 
L 350.114676 220.372093 
L 350.114676 220.372093 
L 350.347236 221.562739 
L 350.347236 221.562739 
L 350.579797 228.971443 
L 350.579797 228.971443 
L 350.812357 229.727827 
L 350.812357 229.727827 
L 351.044918 236.803276 
L 351.044918 236.803276 
L 351.277479 236.66448 
L 351.277479 236.66448 
L 351.510039 244.226125 
L 351.510039 244.226125 
L 351.7426 242.819471 
L 351.7426 242.819471 
L 351.97516 251.250407 
L 351.97516 251.250407 
L 352.207721 248.358509 
L 352.207721 248.358509 
L 353.137963 261.456894 
L 353.137963 261.456894 
L 353.370524 260.29367 
L 353.370524 260.29367 
L 353.603084 267.052104 
L 353.835645 265.075558 
L 353.835645 265.075558 
L 354.068205 266.227496 
L 354.068205 266.227496 
L 354.300766 270.195245 
L 354.300766 270.195245 
L 354.533326 269.767315 
L 354.533326 269.767315 
L 354.765887 274.449267 
L 354.765887 274.449267 
L 354.998448 273.093525 
L 354.998448 273.093525 
L 355.231008 274.419087 
L 355.231008 274.419087 
L 355.463569 276.956845 
L 355.696129 276.971909 
L 355.696129 276.971909 
L 355.92869 279.707495 
L 355.92869 279.707495 
L 356.16125 279.07806 
L 356.16125 279.07806 
L 357.091493 282.665727 
L 357.091493 282.665727 
L 357.324053 282.447881 
L 357.324053 282.447881 
L 358.021735 283.658494 
L 358.021735 283.658494 
L 358.486856 283.676009 
L 358.486856 283.676009 
L 359.184538 284.081675 
L 359.184538 284.081675 
L 359.649659 283.778345 
L 359.649659 283.778345 
L 359.882219 283.874757 
L 359.882219 283.874757 
L 360.11478 283.68949 
L 360.11478 283.68949 
L 360.579901 283.877923 
L 360.579901 283.877923 
L 360.812462 283.595836 
L 360.812462 283.595836 
L 361.045022 283.633931 
L 361.045022 283.633931 
L 361.277583 282.910535 
L 361.277583 282.910535 
L 361.510143 283.172451 
L 361.510143 283.172451 
L 361.742704 283.001432 
L 361.742704 283.001432 
L 361.975264 282.361427 
L 361.975264 282.361427 
L 362.207825 282.28202 
L 362.207825 282.28202 
L 362.440386 280.155647 
L 362.440386 280.155647 
L 362.672946 280.700517 
L 362.672946 280.700517 
L 362.905507 280.116377 
L 362.905507 280.116377 
L 363.138067 278.61755 
L 363.138067 278.61755 
L 363.370628 278.154283 
L 363.370628 278.154283 
L 363.603188 275.06471 
L 363.603188 275.06471 
L 363.835749 275.801383 
L 363.835749 275.801383 
L 364.068309 274.819799 
L 364.068309 274.819799 
L 364.30087 272.692252 
L 364.30087 272.692252 
L 364.533431 271.946132 
L 364.533431 271.946132 
L 364.765991 268.021994 
L 364.765991 268.021994 
L 364.998552 269.040089 
L 364.998552 269.040089 
L 365.231112 267.448169 
L 365.231112 267.448169 
L 365.463673 264.621278 
L 365.463673 264.621278 
L 365.696233 263.885218 
L 365.696233 263.885218 
L 365.928794 259.116556 
L 365.928794 259.116556 
L 366.161355 260.164525 
L 366.161355 260.164525 
L 366.393915 258.519037 
L 366.393915 258.519037 
L 366.626476 254.833222 
L 366.626476 254.833222 
L 366.859036 254.525552 
L 366.859036 254.525552 
L 367.091597 248.370918 
L 367.091597 248.370918 
L 367.324157 250.658147 
L 367.324157 250.658147 
L 367.556718 248.401404 
L 367.556718 248.401404 
L 367.789278 243.561455 
L 367.789278 243.561455 
L 368.021839 243.88133 
L 368.021839 243.88133 
L 368.2544 236.280824 
L 368.2544 236.280824 
L 368.48696 238.63357 
L 368.48696 238.63357 
L 368.719521 236.791276 
L 368.719521 236.791276 
L 368.952081 231.21113 
L 368.952081 231.21113 
L 369.184642 231.595195 
L 369.417202 223.566401 
L 369.417202 223.566401 
L 369.649763 225.926654 
L 369.649763 225.926654 
L 369.882324 223.376233 
L 369.882324 223.376233 
L 370.114884 218.627844 
L 370.114884 218.627844 
L 370.347445 217.793993 
L 370.347445 217.793993 
L 370.580005 211.160568 
L 370.580005 211.160568 
L 370.812566 211.879317 
L 370.812566 211.879317 
L 371.045126 203.88872 
L 371.045126 203.88872 
L 371.277687 206.014276 
L 371.277687 206.014276 
L 371.510247 196.845851 
L 371.510247 196.845851 
L 371.742808 199.692096 
L 371.742808 199.692096 
L 371.975369 197.252384 
L 371.975369 197.252384 
L 372.207929 193.541598 
L 372.207929 193.541598 
L 372.44049 192.145923 
L 372.44049 192.145923 
L 372.67305 188.153306 
L 372.67305 188.153306 
L 372.905611 187.682174 
L 373.138171 187.561506 
L 373.370732 187.789004 
L 373.370732 187.789004 
L 373.603293 190.751678 
L 373.603293 190.751678 
L 373.835853 190.566055 
L 373.835853 190.566055 
L 374.068414 193.006941 
L 374.068414 193.006941 
L 374.300974 193.132613 
L 374.300974 193.132613 
L 374.533535 194.953205 
L 374.533535 194.953205 
L 374.766095 195.027097 
L 374.766095 195.027097 
L 374.998656 196.635358 
L 374.998656 196.635358 
L 375.231216 196.271005 
L 375.231216 196.271005 
L 375.463777 197.523849 
L 375.696338 197.195293 
L 375.696338 197.195293 
L 375.928898 197.984818 
L 375.928898 197.984818 
L 376.161459 197.623886 
L 376.161459 197.623886 
L 376.394019 198.156144 
L 376.394019 198.156144 
L 376.62658 197.446484 
L 376.62658 197.446484 
L 376.85914 198.180859 
L 376.85914 198.180859 
L 377.091701 197.596158 
L 377.091701 197.596158 
L 377.324262 198.192451 
L 377.324262 198.192451 
L 377.556822 197.209131 
L 377.556822 197.209131 
L 377.789383 197.855673 
L 377.789383 197.855673 
L 378.021943 197.14964 
L 378.021943 197.14964 
L 378.254504 197.430092 
L 378.254504 197.430092 
L 378.487064 196.645367 
L 378.487064 196.645367 
L 378.719625 196.862192 
L 378.719625 196.862192 
L 378.952185 195.093278 
L 378.952185 195.093278 
L 379.184746 195.152055 
L 379.184746 195.152055 
L 379.417307 193.713076 
L 379.417307 193.713076 
L 379.649867 193.495383 
L 379.649867 193.495383 
L 379.882428 191.713499 
L 379.882428 191.713499 
L 380.114988 191.017322 
L 380.114988 191.017322 
L 380.580109 187.268236 
L 380.580109 187.268236 
L 381.045231 183.348234 
L 381.045231 183.348234 
L 381.277791 181.277625 
L 381.277791 181.277625 
L 381.510352 173.78211 
L 381.510352 173.78211 
L 381.742912 176.385334 
L 381.742912 176.385334 
L 381.975473 168.232297 
L 381.975473 168.232297 
L 382.208033 170.138577 
L 382.208033 170.138577 
L 382.440594 162.784565 
L 382.440594 162.784565 
L 382.673154 163.613105 
L 382.673154 163.613105 
L 382.905715 156.335895 
L 382.905715 156.335895 
L 383.138276 155.914603 
L 383.138276 155.914603 
L 383.370836 150.096901 
L 383.370836 150.096901 
L 383.603397 147.621698 
L 383.603397 147.621698 
L 383.835957 142.982182 
L 383.835957 142.982182 
L 384.068518 131.046101 
L 384.068518 131.046101 
L 384.301078 133.526921 
L 384.301078 133.526921 
L 384.533639 123.357915 
L 384.533639 123.357915 
L 384.7662 122.582892 
L 384.7662 122.582892 
L 384.99876 115.70568 
L 385.231321 102.667144 
L 385.231321 102.667144 
L 385.463881 105.263575 
L 385.463881 105.263575 
L 385.696442 94.613021 
L 385.696442 94.613021 
L 385.929002 93.1025 
L 385.929002 93.1025 
L 387.091805 63.760087 
L 387.091805 63.760087 
L 387.556926 54.172566 
L 387.556926 54.172566 
L 387.789487 53.568 
L 387.789487 53.568 
L 398.487273 53.568 
L 398.487273 53.568 
" clip-path="url(#p14e551208d)" style="fill: none; stroke: #ff7f0e; stroke-width: 1.5; stroke-linecap: square"/>
   </g>
   <g id="patch_3">
    <path d="M 57.6 307.584 
L 57.6 41.472 
" style="fill: none; stroke: #000000; stroke-width: 0.8; stroke-linejoin: miter; stroke-linecap: square"/>
   </g>
   <g id="patch_4">
    <path d="M 414.72 307.584 
L 414.72 41.472 
" style="fill: none; stroke: #000000; stroke-width: 0.8; stroke-linejoin: miter; stroke-linecap: square"/>
   </g>
   <g id="patch_5">
    <path d="M 57.6 307.584 
L 414.72 307.584 
" style="fill: none; stroke: #000000; stroke-width: 0.8; stroke-linejoin: miter; stroke-linecap: square"/>
   </g>
   <g id="patch_6">
    <path d="M 57.6 41.472 
L 414.72 41.472 
" style="fill: none; stroke: #000000; stroke-width: 0.8; stroke-linejoin: miter; stroke-linecap: square"/>
   </g>
   <g id="text_14">
    <!-- Actual speed vs Expected speed -->
    <g transform="translate(138.808125 35.472) scale(0.12 -0.12)">
     <defs>
      <path id="DejaVuSans-41" d="M 2188 4044 
L 1331 1722 
L 3047 1722 
L 2188 4044 
z
M 1831 4666 
L 2547 4666 
L 4325 0 
L 3669 0 
L 3244 1197 
L 1141 1197 
L 716 0 
L 50 0 
L 1831 4666 
z
" transform="scale(0.015625)"/>
      <path id="DejaVuSans-75" d="M 544 1381 
L 544 3500 
L 1119 3500 
L 1119 1403 
Q 1119 906 1312 657 
Q 1506 409 1894 409 
Q 2359 409 2629 706 
Q 2900 1003 2900 1516 
L 2900 3500 
L 3475 3500 
L 3475 0 
L 2900 0 
L 2900 538 
Q 2691 219 2414 64 
Q 2138 -91 1772 -91 
Q 1169 -91 856 284 
Q 544 659 544 1381 
z
M 1991 3584 
L 1991 3584 
z
" transform="scale(0.015625)"/>
      <path id="DejaVuSans-61" d="M 2194 1759 
Q 1497 1759 1228 1600 
Q 959 1441 959 1056 
Q 959 750 1161 570 
Q 1363 391 1709 391 
Q 2188 391 2477 730 
Q 2766 1069 2766 1631 
L 2766 1759 
L 2194 1759 
z
M 3341 1997 
L 3341 0 
L 2766 0 
L 2766 531 
Q 2569 213 2275 61 
Q 1981 -91 1556 -91 
Q 1019 -91 701 211 
Q 384 513 384 1019 
Q 384 1609 779 1909 
Q 1175 2209 1959 2209 
L 2766 2209 
L 2766 2266 
Q 2766 2663 2505 2880 
Q 2244 3097 1772 3097 
Q 1472 3097 1187 3025 
Q 903 2953 641 2809 
L 641 3341 
Q 956 3463 1253 3523 
Q 1550 3584 1831 3584 
Q 2591 3584 2966 3190 
Q 3341 2797 3341 1997 
z
" transform="scale(0.015625)"/>
      <path id="DejaVuSans-20" transform="scale(0.015625)"/>
      <path id="DejaVuSans-70" d="M 1159 525 
L 1159 -1331 
L 581 -1331 
L 581 3500 
L 1159 3500 
L 1159 2969 
Q 1341 3281 1617 3432 
Q 1894 3584 2278 3584 
Q 2916 3584 3314 3078 
Q 3713 2572 3713 1747 
Q 3713 922 3314 415 
Q 2916 -91 2278 -91 
Q 1894 -91 1617 61 
Q 1341 213 1159 525 
z
M 3116 1747 
Q 3116 2381 2855 2742 
Q 2594 3103 2138 3103 
Q 1681 3103 1420 2742 
Q 1159 2381 1159 1747 
Q 1159 1113 1420 752 
Q 1681 391 2138 391 
Q 2594 391 2855 752 
Q 3116 1113 3116 1747 
z
" transform="scale(0.015625)"/>
      <path id="DejaVuSans-64" d="M 2906 2969 
L 2906 4863 
L 3481 4863 
L 3481 0 
L 2906 0 
L 2906 525 
Q 2725 213 2448 61 
Q 2172 -91 1784 -91 
Q 1150 -91 751 415 
Q 353 922 353 1747 
Q 353 2572 751 3078 
Q 1150 3584 1784 3584 
Q 2172 3584 2448 3432 
Q 2725 3281 2906 2969 
z
M 947 1747 
Q 947 1113 1208 752 
Q 1469 391 1925 391 
Q 2381 391 2643 752 
Q 2906 1113 2906 1747 
Q 2906 2381 2643 2742 
Q 2381 3103 1925 3103 
Q 1469 3103 1208 2742 
Q 947 2381 947 1747 
z
" transform="scale(0.015625)"/>
      <path id="DejaVuSans-76" d="M 191 3500 
L 800 3500 
L 1894 563 
L 2988 3500 
L 3597 3500 
L 2284 0 
L 1503 0 
L 191 3500 
z
" transform="scale(0.015625)"/>
      <path id="DejaVuSans-45" d="M 628 4666 
L 3578 4666 
L 3578 4134 
L 1259 4134 
L 1259 2753 
L 3481 2753 
L 3481 2222 
L 1259 2222 
L 1259 531 
L 3634 531 
L 3634 0 
L 628 0 
L 628 4666 
z
" transform="scale(0.015625)"/>
      <path id="DejaVuSans-78" d="M 3513 3500 
L 2247 1797 
L 3578 0 
L 2900 0 
L 1881 1375 
L 863 0 
L 184 0 
L 1544 1831 
L 300 3500 
L 978 3500 
L 1906 2253 
L 2834 3500 
L 3513 3500 
z
" transform="scale(0.015625)"/>
     </defs>
     <use xlink:href="#DejaVuSans-41"/>
     <use xlink:href="#DejaVuSans-63" x="66.658203"/>
     <use xlink:href="#DejaVuSans-74" x="121.638672"/>
     <use xlink:href="#DejaVuSans-75" x="160.847656"/>
     <use xlink:href="#DejaVuSans-61" x="224.226562"/>
     <use xlink:href="#DejaVuSans-6c" x="285.505859"/>
     <use xlink:href="#DejaVuSans-20" x="313.289062"/>
     <use xlink:href="#DejaVuSans-73" x="345.076172"/>
     <use xlink:href="#DejaVuSans-70" x="397.175781"/>
     <use xlink:href="#DejaVuSans-65" x="460.652344"/>
     <use xlink:href="#DejaVuSans-65" x="522.175781"/>
     <use xlink:href="#DejaVuSans-64" x="583.699219"/>
     <use xlink:href="#DejaVuSans-20" x="647.175781"/>
     <use xlink:href="#DejaVuSans-76" x="678.962891"/>
     <use xlink:href="#DejaVuSans-73" x="738.142578"/>
     <use xlink:href="#DejaVuSans-20" x="790.242188"/>
     <use xlink:href="#DejaVuSans-45" x="822.029297"/>
     <use xlink:href="#DejaVuSans-78" x="885.212891"/>
     <use xlink:href="#DejaVuSans-70" x="944.392578"/>
     <use xlink:href="#DejaVuSans-65" x="1007.869141"/>
     <use xlink:href="#DejaVuSans-63" x="1069.392578"/>
     <use xlink:href="#DejaVuSans-74" x="1124.373047"/>
     <use xlink:href="#DejaVuSans-65" x="1163.582031"/>
     <use xlink:href="#DejaVuSans-64" x="1225.105469"/>
     <use xlink:href="#DejaVuSans-20" x="1288.582031"/>
     <use xlink:href="#DejaVuSans-73" x="1320.369141"/>
     <use xlink:href="#DejaVuSans-70" x="1372.46875"/>
     <use xlink:href="#DejaVuSans-65" x="1435.945312"/>
     <use xlink:href="#DejaVuSans-65" x="1497.46875"/>
     <use xlink:href="#DejaVuSans-64" x="1558.992188"/>
    </g>
   </g>
   <g id="legend_1">
    <g id="patch_7">
     <path d="M 64.6 302.584 
L 176.65 302.584 
Q 178.65 302.584 178.65 300.584 
L 178.65 272.22775 
Q 178.65 270.22775 176.65 270.22775 
L 64.6 270.22775 
Q 62.6 270.22775 62.6 272.22775 
L 62.6 300.584 
Q 62.6 302.584 64.6 302.584 
z
" style="fill: #ffffff; opacity: 0.8; stroke: #cccccc; stroke-linejoin: miter"/>
    </g>
    <g id="line2d_25">
     <path d="M 66.6 278.326187 
L 76.6 278.326187 
L 86.6 278.326187 
" style="fill: none; stroke: #1f77b4; stroke-width: 1.5; stroke-linecap: square"/>
    </g>
    <g id="text_15">
     <!-- Actual speed -->
     <g transform="translate(94.6 281.826187) scale(0.1 -0.1)">
      <use xlink:href="#DejaVuSans-41"/>
      <use xlink:href="#DejaVuSans-63" x="66.658203"/>
      <use xlink:href="#DejaVuSans-74" x="121.638672"/>
      <use xlink:href="#DejaVuSans-75" x="160.847656"/>
      <use xlink:href="#DejaVuSans-61" x="224.226562"/>
      <use xlink:href="#DejaVuSans-6c" x="285.505859"/>
      <use xlink:href="#DejaVuSans-20" x="313.289062"/>
      <use xlink:href="#DejaVuSans-73" x="345.076172"/>
      <use xlink:href="#DejaVuSans-70" x="397.175781"/>
      <use xlink:href="#DejaVuSans-65" x="460.652344"/>
      <use xlink:href="#DejaVuSans-65" x="522.175781"/>
      <use xlink:href="#DejaVuSans-64" x="583.699219"/>
     </g>
    </g>
    <g id="line2d_26">
     <path d="M 66.6 293.004312 
L 76.6 293.004312 
L 86.6 293.004312 
" style="fill: none; stroke: #ff7f0e; stroke-width: 1.5; stroke-linecap: square"/>
    </g>
    <g id="text_16">
     <!-- Expected speed -->
     <g transform="translate(94.6 296.504312) scale(0.1 -0.1)">
      <use xlink:href="#DejaVuSans-45"/>
      <use xlink:href="#DejaVuSans-78" x="63.183594"/>
      <use xlink:href="#DejaVuSans-70" x="122.363281"/>
      <use xlink:href="#DejaVuSans-65" x="185.839844"/>
      <use xlink:href="#DejaVuSans-63" x="247.363281"/>
      <use xlink:href="#DejaVuSans-74" x="302.34375"/>
      <use xlink:href="#DejaVuSans-65" x="341.552734"/>
      <use xlink:href="#DejaVuSans-64" x="403.076172"/>
      <use xlink:href="#DejaVuSans-20" x="466.552734"/>
      <use xlink:href="#DejaVuSans-73" x="498.339844"/>
      <use xlink:href="#DejaVuSans-70" x="550.439453"/>
      <use xlink:href="#DejaVuSans-65" x="613.916016"/>
      <use xlink:href="#DejaVuSans-65" x="675.439453"/>
      <use xlink:href="#DejaVuSans-64" x="736.962891"/>
     </g>
    </g>
   </g>
  </g>
 </g>
 <defs>
  <clipPath id="p14e551208d">
   <rect x="57.6" y="41.472" width="357.12" height="266.112"/>
  </clipPath>
 </defs>
</svg>
