<?xml version="1.0" encoding="utf-8" standalone="no"?>
<!DOCTYPE svg PUBLIC "-//W3C//DTD SVG 1.1//EN"
  "http://www.w3.org/Graphics/SVG/1.1/DTD/svg11.dtd">
<svg xmlns:xlink="http://www.w3.org/1999/xlink" width="460.8pt" height="345.6pt" viewBox="0 0 460.8 345.6" xmlns="http://www.w3.org/2000/svg" version="1.1">
 <metadata>
  <rdf:RDF xmlns:dc="http://purl.org/dc/elements/1.1/" xmlns:cc="http://creativecommons.org/ns#" xmlns:rdf="http://www.w3.org/1999/02/22-rdf-syntax-ns#">
   <cc:Work>
    <dc:type rdf:resource="http://purl.org/dc/dcmitype/StillImage"/>
    <dc:date>2024-01-30T20:58:41.006864</dc:date>
    <dc:format>image/svg+xml</dc:format>
    <dc:creator>
     <cc:Agent>
      <dc:title>Matplotlib v3.7.1, https://matplotlib.org/</dc:title>
     </cc:Agent>
    </dc:creator>
   </cc:Work>
  </rdf:RDF>
 </metadata>
 <defs>
  <style type="text/css">*{stroke-linejoin: round; stroke-linecap: butt}</style>
 </defs>
 <g id="figure_1">
  <g id="patch_1">
   <path d="M 0 345.6 
L 460.8 345.6 
L 460.8 0 
L 0 0 
z
" style="fill: #ffffff"/>
  </g>
  <g id="axes_1">
   <g id="patch_2">
    <path d="M 57.6 307.584 
L 414.72 307.584 
L 414.72 41.472 
L 57.6 41.472 
z
" style="fill: #ffffff"/>
   </g>
   <g id="matplotlib.axis_1">
    <g id="xtick_1">
     <g id="line2d_1">
      <path d="M 73.832727 307.584 
L 73.832727 41.472 
" clip-path="url(#p0b3f617008)" style="fill: none; stroke: #b0b0b0; stroke-width: 0.8; stroke-linecap: square"/>
     </g>
     <g id="line2d_2">
      <defs>
       <path id="m95b8dc6f7d" d="M 0 0 
L 0 3.5 
" style="stroke: #000000; stroke-width: 0.8"/>
      </defs>
      <g>
       <use xlink:href="#m95b8dc6f7d" x="73.832727" y="307.584" style="stroke: #000000; stroke-width: 0.8"/>
      </g>
     </g>
     <g id="text_1">
      <!-- 0 -->
      <g transform="translate(70.651477 322.182437) scale(0.1 -0.1)">
       <defs>
        <path id="DejaVuSans-30" d="M 2034 4250 
Q 1547 4250 1301 3770 
Q 1056 3291 1056 2328 
Q 1056 1369 1301 889 
Q 1547 409 2034 409 
Q 2525 409 2770 889 
Q 3016 1369 3016 2328 
Q 3016 3291 2770 3770 
Q 2525 4250 2034 4250 
z
M 2034 4750 
Q 2819 4750 3233 4129 
Q 3647 3509 3647 2328 
Q 3647 1150 3233 529 
Q 2819 -91 2034 -91 
Q 1250 -91 836 529 
Q 422 1150 422 2328 
Q 422 3509 836 4129 
Q 1250 4750 2034 4750 
z
" transform="scale(0.015625)"/>
       </defs>
       <use xlink:href="#DejaVuSans-30"/>
      </g>
     </g>
    </g>
    <g id="xtick_2">
     <g id="line2d_3">
      <path d="M 118.015436 307.584 
L 118.015436 41.472 
" clip-path="url(#p0b3f617008)" style="fill: none; stroke: #b0b0b0; stroke-width: 0.8; stroke-linecap: square"/>
     </g>
     <g id="line2d_4">
      <g>
       <use xlink:href="#m95b8dc6f7d" x="118.015436" y="307.584" style="stroke: #000000; stroke-width: 0.8"/>
      </g>
     </g>
     <g id="text_2">
      <!-- 5 -->
      <g transform="translate(114.834186 322.182437) scale(0.1 -0.1)">
       <defs>
        <path id="DejaVuSans-35" d="M 691 4666 
L 3169 4666 
L 3169 4134 
L 1269 4134 
L 1269 2991 
Q 1406 3038 1543 3061 
Q 1681 3084 1819 3084 
Q 2600 3084 3056 2656 
Q 3513 2228 3513 1497 
Q 3513 744 3044 326 
Q 2575 -91 1722 -91 
Q 1428 -91 1123 -41 
Q 819 9 494 109 
L 494 744 
Q 775 591 1075 516 
Q 1375 441 1709 441 
Q 2250 441 2565 725 
Q 2881 1009 2881 1497 
Q 2881 1984 2565 2268 
Q 2250 2553 1709 2553 
Q 1456 2553 1204 2497 
Q 953 2441 691 2322 
L 691 4666 
z
" transform="scale(0.015625)"/>
       </defs>
       <use xlink:href="#DejaVuSans-35"/>
      </g>
     </g>
    </g>
    <g id="xtick_3">
     <g id="line2d_5">
      <path d="M 162.198145 307.584 
L 162.198145 41.472 
" clip-path="url(#p0b3f617008)" style="fill: none; stroke: #b0b0b0; stroke-width: 0.8; stroke-linecap: square"/>
     </g>
     <g id="line2d_6">
      <g>
       <use xlink:href="#m95b8dc6f7d" x="162.198145" y="307.584" style="stroke: #000000; stroke-width: 0.8"/>
      </g>
     </g>
     <g id="text_3">
      <!-- 10 -->
      <g transform="translate(155.835645 322.182437) scale(0.1 -0.1)">
       <defs>
        <path id="DejaVuSans-31" d="M 794 531 
L 1825 531 
L 1825 4091 
L 703 3866 
L 703 4441 
L 1819 4666 
L 2450 4666 
L 2450 531 
L 3481 531 
L 3481 0 
L 794 0 
L 794 531 
z
" transform="scale(0.015625)"/>
       </defs>
       <use xlink:href="#DejaVuSans-31"/>
       <use xlink:href="#DejaVuSans-30" x="63.623047"/>
      </g>
     </g>
    </g>
    <g id="xtick_4">
     <g id="line2d_7">
      <path d="M 206.380854 307.584 
L 206.380854 41.472 
" clip-path="url(#p0b3f617008)" style="fill: none; stroke: #b0b0b0; stroke-width: 0.8; stroke-linecap: square"/>
     </g>
     <g id="line2d_8">
      <g>
       <use xlink:href="#m95b8dc6f7d" x="206.380854" y="307.584" style="stroke: #000000; stroke-width: 0.8"/>
      </g>
     </g>
     <g id="text_4">
      <!-- 15 -->
      <g transform="translate(200.018354 322.182437) scale(0.1 -0.1)">
       <use xlink:href="#DejaVuSans-31"/>
       <use xlink:href="#DejaVuSans-35" x="63.623047"/>
      </g>
     </g>
    </g>
    <g id="xtick_5">
     <g id="line2d_9">
      <path d="M 250.563563 307.584 
L 250.563563 41.472 
" clip-path="url(#p0b3f617008)" style="fill: none; stroke: #b0b0b0; stroke-width: 0.8; stroke-linecap: square"/>
     </g>
     <g id="line2d_10">
      <g>
       <use xlink:href="#m95b8dc6f7d" x="250.563563" y="307.584" style="stroke: #000000; stroke-width: 0.8"/>
      </g>
     </g>
     <g id="text_5">
      <!-- 20 -->
      <g transform="translate(244.201063 322.182437) scale(0.1 -0.1)">
       <defs>
        <path id="DejaVuSans-32" d="M 1228 531 
L 3431 531 
L 3431 0 
L 469 0 
L 469 531 
Q 828 903 1448 1529 
Q 2069 2156 2228 2338 
Q 2531 2678 2651 2914 
Q 2772 3150 2772 3378 
Q 2772 3750 2511 3984 
Q 2250 4219 1831 4219 
Q 1534 4219 1204 4116 
Q 875 4013 500 3803 
L 500 4441 
Q 881 4594 1212 4672 
Q 1544 4750 1819 4750 
Q 2544 4750 2975 4387 
Q 3406 4025 3406 3419 
Q 3406 3131 3298 2873 
Q 3191 2616 2906 2266 
Q 2828 2175 2409 1742 
Q 1991 1309 1228 531 
z
" transform="scale(0.015625)"/>
       </defs>
       <use xlink:href="#DejaVuSans-32"/>
       <use xlink:href="#DejaVuSans-30" x="63.623047"/>
      </g>
     </g>
    </g>
    <g id="xtick_6">
     <g id="line2d_11">
      <path d="M 294.746272 307.584 
L 294.746272 41.472 
" clip-path="url(#p0b3f617008)" style="fill: none; stroke: #b0b0b0; stroke-width: 0.8; stroke-linecap: square"/>
     </g>
     <g id="line2d_12">
      <g>
       <use xlink:href="#m95b8dc6f7d" x="294.746272" y="307.584" style="stroke: #000000; stroke-width: 0.8"/>
      </g>
     </g>
     <g id="text_6">
      <!-- 25 -->
      <g transform="translate(288.383772 322.182437) scale(0.1 -0.1)">
       <use xlink:href="#DejaVuSans-32"/>
       <use xlink:href="#DejaVuSans-35" x="63.623047"/>
      </g>
     </g>
    </g>
    <g id="xtick_7">
     <g id="line2d_13">
      <path d="M 338.928981 307.584 
L 338.928981 41.472 
" clip-path="url(#p0b3f617008)" style="fill: none; stroke: #b0b0b0; stroke-width: 0.8; stroke-linecap: square"/>
     </g>
     <g id="line2d_14">
      <g>
       <use xlink:href="#m95b8dc6f7d" x="338.928981" y="307.584" style="stroke: #000000; stroke-width: 0.8"/>
      </g>
     </g>
     <g id="text_7">
      <!-- 30 -->
      <g transform="translate(332.566481 322.182437) scale(0.1 -0.1)">
       <defs>
        <path id="DejaVuSans-33" d="M 2597 2516 
Q 3050 2419 3304 2112 
Q 3559 1806 3559 1356 
Q 3559 666 3084 287 
Q 2609 -91 1734 -91 
Q 1441 -91 1130 -33 
Q 819 25 488 141 
L 488 750 
Q 750 597 1062 519 
Q 1375 441 1716 441 
Q 2309 441 2620 675 
Q 2931 909 2931 1356 
Q 2931 1769 2642 2001 
Q 2353 2234 1838 2234 
L 1294 2234 
L 1294 2753 
L 1863 2753 
Q 2328 2753 2575 2939 
Q 2822 3125 2822 3475 
Q 2822 3834 2567 4026 
Q 2313 4219 1838 4219 
Q 1578 4219 1281 4162 
Q 984 4106 628 3988 
L 628 4550 
Q 988 4650 1302 4700 
Q 1616 4750 1894 4750 
Q 2613 4750 3031 4423 
Q 3450 4097 3450 3541 
Q 3450 3153 3228 2886 
Q 3006 2619 2597 2516 
z
" transform="scale(0.015625)"/>
       </defs>
       <use xlink:href="#DejaVuSans-33"/>
       <use xlink:href="#DejaVuSans-30" x="63.623047"/>
      </g>
     </g>
    </g>
    <g id="xtick_8">
     <g id="line2d_15">
      <path d="M 383.11169 307.584 
L 383.11169 41.472 
" clip-path="url(#p0b3f617008)" style="fill: none; stroke: #b0b0b0; stroke-width: 0.8; stroke-linecap: square"/>
     </g>
     <g id="line2d_16">
      <g>
       <use xlink:href="#m95b8dc6f7d" x="383.11169" y="307.584" style="stroke: #000000; stroke-width: 0.8"/>
      </g>
     </g>
     <g id="text_8">
      <!-- 35 -->
      <g transform="translate(376.74919 322.182437) scale(0.1 -0.1)">
       <use xlink:href="#DejaVuSans-33"/>
       <use xlink:href="#DejaVuSans-35" x="63.623047"/>
      </g>
     </g>
    </g>
    <g id="text_9">
     <!-- Time(s) -->
     <g transform="translate(217.420156 335.860562) scale(0.1 -0.1)">
      <defs>
       <path id="DejaVuSans-54" d="M -19 4666 
L 3928 4666 
L 3928 4134 
L 2272 4134 
L 2272 0 
L 1638 0 
L 1638 4134 
L -19 4134 
L -19 4666 
z
" transform="scale(0.015625)"/>
       <path id="DejaVuSans-69" d="M 603 3500 
L 1178 3500 
L 1178 0 
L 603 0 
L 603 3500 
z
M 603 4863 
L 1178 4863 
L 1178 4134 
L 603 4134 
L 603 4863 
z
" transform="scale(0.015625)"/>
       <path id="DejaVuSans-6d" d="M 3328 2828 
Q 3544 3216 3844 3400 
Q 4144 3584 4550 3584 
Q 5097 3584 5394 3201 
Q 5691 2819 5691 2113 
L 5691 0 
L 5113 0 
L 5113 2094 
Q 5113 2597 4934 2840 
Q 4756 3084 4391 3084 
Q 3944 3084 3684 2787 
Q 3425 2491 3425 1978 
L 3425 0 
L 2847 0 
L 2847 2094 
Q 2847 2600 2669 2842 
Q 2491 3084 2119 3084 
Q 1678 3084 1418 2786 
Q 1159 2488 1159 1978 
L 1159 0 
L 581 0 
L 581 3500 
L 1159 3500 
L 1159 2956 
Q 1356 3278 1631 3431 
Q 1906 3584 2284 3584 
Q 2666 3584 2933 3390 
Q 3200 3197 3328 2828 
z
" transform="scale(0.015625)"/>
       <path id="DejaVuSans-65" d="M 3597 1894 
L 3597 1613 
L 953 1613 
Q 991 1019 1311 708 
Q 1631 397 2203 397 
Q 2534 397 2845 478 
Q 3156 559 3463 722 
L 3463 178 
Q 3153 47 2828 -22 
Q 2503 -91 2169 -91 
Q 1331 -91 842 396 
Q 353 884 353 1716 
Q 353 2575 817 3079 
Q 1281 3584 2069 3584 
Q 2775 3584 3186 3129 
Q 3597 2675 3597 1894 
z
M 3022 2063 
Q 3016 2534 2758 2815 
Q 2500 3097 2075 3097 
Q 1594 3097 1305 2825 
Q 1016 2553 972 2059 
L 3022 2063 
z
" transform="scale(0.015625)"/>
       <path id="DejaVuSans-28" d="M 1984 4856 
Q 1566 4138 1362 3434 
Q 1159 2731 1159 2009 
Q 1159 1288 1364 580 
Q 1569 -128 1984 -844 
L 1484 -844 
Q 1016 -109 783 600 
Q 550 1309 550 2009 
Q 550 2706 781 3412 
Q 1013 4119 1484 4856 
L 1984 4856 
z
" transform="scale(0.015625)"/>
       <path id="DejaVuSans-73" d="M 2834 3397 
L 2834 2853 
Q 2591 2978 2328 3040 
Q 2066 3103 1784 3103 
Q 1356 3103 1142 2972 
Q 928 2841 928 2578 
Q 928 2378 1081 2264 
Q 1234 2150 1697 2047 
L 1894 2003 
Q 2506 1872 2764 1633 
Q 3022 1394 3022 966 
Q 3022 478 2636 193 
Q 2250 -91 1575 -91 
Q 1294 -91 989 -36 
Q 684 19 347 128 
L 347 722 
Q 666 556 975 473 
Q 1284 391 1588 391 
Q 1994 391 2212 530 
Q 2431 669 2431 922 
Q 2431 1156 2273 1281 
Q 2116 1406 1581 1522 
L 1381 1569 
Q 847 1681 609 1914 
Q 372 2147 372 2553 
Q 372 3047 722 3315 
Q 1072 3584 1716 3584 
Q 2034 3584 2315 3537 
Q 2597 3491 2834 3397 
z
" transform="scale(0.015625)"/>
       <path id="DejaVuSans-29" d="M 513 4856 
L 1013 4856 
Q 1481 4119 1714 3412 
Q 1947 2706 1947 2009 
Q 1947 1309 1714 600 
Q 1481 -109 1013 -844 
L 513 -844 
Q 928 -128 1133 580 
Q 1338 1288 1338 2009 
Q 1338 2731 1133 3434 
Q 928 4138 513 4856 
z
" transform="scale(0.015625)"/>
      </defs>
      <use xlink:href="#DejaVuSans-54"/>
      <use xlink:href="#DejaVuSans-69" x="57.958984"/>
      <use xlink:href="#DejaVuSans-6d" x="85.742188"/>
      <use xlink:href="#DejaVuSans-65" x="183.154297"/>
      <use xlink:href="#DejaVuSans-28" x="244.677734"/>
      <use xlink:href="#DejaVuSans-73" x="283.691406"/>
      <use xlink:href="#DejaVuSans-29" x="335.791016"/>
     </g>
    </g>
   </g>
   <g id="matplotlib.axis_2">
    <g id="ytick_1">
     <g id="line2d_17">
      <path d="M 57.6 295.488 
L 414.72 295.488 
" clip-path="url(#p0b3f617008)" style="fill: none; stroke: #b0b0b0; stroke-width: 0.8; stroke-linecap: square"/>
     </g>
     <g id="line2d_18">
      <defs>
       <path id="m28828a5ad7" d="M 0 0 
L -3.5 0 
" style="stroke: #000000; stroke-width: 0.8"/>
      </defs>
      <g>
       <use xlink:href="#m28828a5ad7" x="57.6" y="295.488" style="stroke: #000000; stroke-width: 0.8"/>
      </g>
     </g>
     <g id="text_10">
      <!-- 0.000 -->
      <g transform="translate(21.971875 299.287219) scale(0.1 -0.1)">
       <defs>
        <path id="DejaVuSans-2e" d="M 684 794 
L 1344 794 
L 1344 0 
L 684 0 
L 684 794 
z
" transform="scale(0.015625)"/>
       </defs>
       <use xlink:href="#DejaVuSans-30"/>
       <use xlink:href="#DejaVuSans-2e" x="63.623047"/>
       <use xlink:href="#DejaVuSans-30" x="95.410156"/>
       <use xlink:href="#DejaVuSans-30" x="159.033203"/>
       <use xlink:href="#DejaVuSans-30" x="222.65625"/>
      </g>
     </g>
    </g>
    <g id="ytick_2">
     <g id="line2d_19">
      <path d="M 57.6 261.278694 
L 414.72 261.278694 
" clip-path="url(#p0b3f617008)" style="fill: none; stroke: #b0b0b0; stroke-width: 0.8; stroke-linecap: square"/>
     </g>
     <g id="line2d_20">
      <g>
       <use xlink:href="#m28828a5ad7" x="57.6" y="261.278694" style="stroke: #000000; stroke-width: 0.8"/>
      </g>
     </g>
     <g id="text_11">
      <!-- 0.025 -->
      <g transform="translate(21.971875 265.077913) scale(0.1 -0.1)">
       <use xlink:href="#DejaVuSans-30"/>
       <use xlink:href="#DejaVuSans-2e" x="63.623047"/>
       <use xlink:href="#DejaVuSans-30" x="95.410156"/>
       <use xlink:href="#DejaVuSans-32" x="159.033203"/>
       <use xlink:href="#DejaVuSans-35" x="222.65625"/>
      </g>
     </g>
    </g>
    <g id="ytick_3">
     <g id="line2d_21">
      <path d="M 57.6 227.069389 
L 414.72 227.069389 
" clip-path="url(#p0b3f617008)" style="fill: none; stroke: #b0b0b0; stroke-width: 0.8; stroke-linecap: square"/>
     </g>
     <g id="line2d_22">
      <g>
       <use xlink:href="#m28828a5ad7" x="57.6" y="227.069389" style="stroke: #000000; stroke-width: 0.8"/>
      </g>
     </g>
     <g id="text_12">
      <!-- 0.050 -->
      <g transform="translate(21.971875 230.868607) scale(0.1 -0.1)">
       <use xlink:href="#DejaVuSans-30"/>
       <use xlink:href="#DejaVuSans-2e" x="63.623047"/>
       <use xlink:href="#DejaVuSans-30" x="95.410156"/>
       <use xlink:href="#DejaVuSans-35" x="159.033203"/>
       <use xlink:href="#DejaVuSans-30" x="222.65625"/>
      </g>
     </g>
    </g>
    <g id="ytick_4">
     <g id="line2d_23">
      <path d="M 57.6 192.860083 
L 414.72 192.860083 
" clip-path="url(#p0b3f617008)" style="fill: none; stroke: #b0b0b0; stroke-width: 0.8; stroke-linecap: square"/>
     </g>
     <g id="line2d_24">
      <g>
       <use xlink:href="#m28828a5ad7" x="57.6" y="192.860083" style="stroke: #000000; stroke-width: 0.8"/>
      </g>
     </g>
     <g id="text_13">
      <!-- 0.075 -->
      <g transform="translate(21.971875 196.659302) scale(0.1 -0.1)">
       <defs>
        <path id="DejaVuSans-37" d="M 525 4666 
L 3525 4666 
L 3525 4397 
L 1831 0 
L 1172 0 
L 2766 4134 
L 525 4134 
L 525 4666 
z
" transform="scale(0.015625)"/>
       </defs>
       <use xlink:href="#DejaVuSans-30"/>
       <use xlink:href="#DejaVuSans-2e" x="63.623047"/>
       <use xlink:href="#DejaVuSans-30" x="95.410156"/>
       <use xlink:href="#DejaVuSans-37" x="159.033203"/>
       <use xlink:href="#DejaVuSans-35" x="222.65625"/>
      </g>
     </g>
    </g>
    <g id="ytick_5">
     <g id="line2d_25">
      <path d="M 57.6 158.650777 
L 414.72 158.650777 
" clip-path="url(#p0b3f617008)" style="fill: none; stroke: #b0b0b0; stroke-width: 0.8; stroke-linecap: square"/>
     </g>
     <g id="line2d_26">
      <g>
       <use xlink:href="#m28828a5ad7" x="57.6" y="158.650777" style="stroke: #000000; stroke-width: 0.8"/>
      </g>
     </g>
     <g id="text_14">
      <!-- 0.100 -->
      <g transform="translate(21.971875 162.449996) scale(0.1 -0.1)">
       <use xlink:href="#DejaVuSans-30"/>
       <use xlink:href="#DejaVuSans-2e" x="63.623047"/>
       <use xlink:href="#DejaVuSans-31" x="95.410156"/>
       <use xlink:href="#DejaVuSans-30" x="159.033203"/>
       <use xlink:href="#DejaVuSans-30" x="222.65625"/>
      </g>
     </g>
    </g>
    <g id="ytick_6">
     <g id="line2d_27">
      <path d="M 57.6 124.441471 
L 414.72 124.441471 
" clip-path="url(#p0b3f617008)" style="fill: none; stroke: #b0b0b0; stroke-width: 0.8; stroke-linecap: square"/>
     </g>
     <g id="line2d_28">
      <g>
       <use xlink:href="#m28828a5ad7" x="57.6" y="124.441471" style="stroke: #000000; stroke-width: 0.8"/>
      </g>
     </g>
     <g id="text_15">
      <!-- 0.125 -->
      <g transform="translate(21.971875 128.24069) scale(0.1 -0.1)">
       <use xlink:href="#DejaVuSans-30"/>
       <use xlink:href="#DejaVuSans-2e" x="63.623047"/>
       <use xlink:href="#DejaVuSans-31" x="95.410156"/>
       <use xlink:href="#DejaVuSans-32" x="159.033203"/>
       <use xlink:href="#DejaVuSans-35" x="222.65625"/>
      </g>
     </g>
    </g>
    <g id="ytick_7">
     <g id="line2d_29">
      <path d="M 57.6 90.232166 
L 414.72 90.232166 
" clip-path="url(#p0b3f617008)" style="fill: none; stroke: #b0b0b0; stroke-width: 0.8; stroke-linecap: square"/>
     </g>
     <g id="line2d_30">
      <g>
       <use xlink:href="#m28828a5ad7" x="57.6" y="90.232166" style="stroke: #000000; stroke-width: 0.8"/>
      </g>
     </g>
     <g id="text_16">
      <!-- 0.150 -->
      <g transform="translate(21.971875 94.031384) scale(0.1 -0.1)">
       <use xlink:href="#DejaVuSans-30"/>
       <use xlink:href="#DejaVuSans-2e" x="63.623047"/>
       <use xlink:href="#DejaVuSans-31" x="95.410156"/>
       <use xlink:href="#DejaVuSans-35" x="159.033203"/>
       <use xlink:href="#DejaVuSans-30" x="222.65625"/>
      </g>
     </g>
    </g>
    <g id="ytick_8">
     <g id="line2d_31">
      <path d="M 57.6 56.02286 
L 414.72 56.02286 
" clip-path="url(#p0b3f617008)" style="fill: none; stroke: #b0b0b0; stroke-width: 0.8; stroke-linecap: square"/>
     </g>
     <g id="line2d_32">
      <g>
       <use xlink:href="#m28828a5ad7" x="57.6" y="56.02286" style="stroke: #000000; stroke-width: 0.8"/>
      </g>
     </g>
     <g id="text_17">
      <!-- 0.175 -->
      <g transform="translate(21.971875 59.822079) scale(0.1 -0.1)">
       <use xlink:href="#DejaVuSans-30"/>
       <use xlink:href="#DejaVuSans-2e" x="63.623047"/>
       <use xlink:href="#DejaVuSans-31" x="95.410156"/>
       <use xlink:href="#DejaVuSans-37" x="159.033203"/>
       <use xlink:href="#DejaVuSans-35" x="222.65625"/>
      </g>
     </g>
    </g>
    <g id="text_18">
     <!-- Tracking error(m) -->
     <g transform="translate(15.892187 217.803781) rotate(-90) scale(0.1 -0.1)">
      <defs>
       <path id="DejaVuSans-72" d="M 2631 2963 
Q 2534 3019 2420 3045 
Q 2306 3072 2169 3072 
Q 1681 3072 1420 2755 
Q 1159 2438 1159 1844 
L 1159 0 
L 581 0 
L 581 3500 
L 1159 3500 
L 1159 2956 
Q 1341 3275 1631 3429 
Q 1922 3584 2338 3584 
Q 2397 3584 2469 3576 
Q 2541 3569 2628 3553 
L 2631 2963 
z
" transform="scale(0.015625)"/>
       <path id="DejaVuSans-61" d="M 2194 1759 
Q 1497 1759 1228 1600 
Q 959 1441 959 1056 
Q 959 750 1161 570 
Q 1363 391 1709 391 
Q 2188 391 2477 730 
Q 2766 1069 2766 1631 
L 2766 1759 
L 2194 1759 
z
M 3341 1997 
L 3341 0 
L 2766 0 
L 2766 531 
Q 2569 213 2275 61 
Q 1981 -91 1556 -91 
Q 1019 -91 701 211 
Q 384 513 384 1019 
Q 384 1609 779 1909 
Q 1175 2209 1959 2209 
L 2766 2209 
L 2766 2266 
Q 2766 2663 2505 2880 
Q 2244 3097 1772 3097 
Q 1472 3097 1187 3025 
Q 903 2953 641 2809 
L 641 3341 
Q 956 3463 1253 3523 
Q 1550 3584 1831 3584 
Q 2591 3584 2966 3190 
Q 3341 2797 3341 1997 
z
" transform="scale(0.015625)"/>
       <path id="DejaVuSans-63" d="M 3122 3366 
L 3122 2828 
Q 2878 2963 2633 3030 
Q 2388 3097 2138 3097 
Q 1578 3097 1268 2742 
Q 959 2388 959 1747 
Q 959 1106 1268 751 
Q 1578 397 2138 397 
Q 2388 397 2633 464 
Q 2878 531 3122 666 
L 3122 134 
Q 2881 22 2623 -34 
Q 2366 -91 2075 -91 
Q 1284 -91 818 406 
Q 353 903 353 1747 
Q 353 2603 823 3093 
Q 1294 3584 2113 3584 
Q 2378 3584 2631 3529 
Q 2884 3475 3122 3366 
z
" transform="scale(0.015625)"/>
       <path id="DejaVuSans-6b" d="M 581 4863 
L 1159 4863 
L 1159 1991 
L 2875 3500 
L 3609 3500 
L 1753 1863 
L 3688 0 
L 2938 0 
L 1159 1709 
L 1159 0 
L 581 0 
L 581 4863 
z
" transform="scale(0.015625)"/>
       <path id="DejaVuSans-6e" d="M 3513 2113 
L 3513 0 
L 2938 0 
L 2938 2094 
Q 2938 2591 2744 2837 
Q 2550 3084 2163 3084 
Q 1697 3084 1428 2787 
Q 1159 2491 1159 1978 
L 1159 0 
L 581 0 
L 581 3500 
L 1159 3500 
L 1159 2956 
Q 1366 3272 1645 3428 
Q 1925 3584 2291 3584 
Q 2894 3584 3203 3211 
Q 3513 2838 3513 2113 
z
" transform="scale(0.015625)"/>
       <path id="DejaVuSans-67" d="M 2906 1791 
Q 2906 2416 2648 2759 
Q 2391 3103 1925 3103 
Q 1463 3103 1205 2759 
Q 947 2416 947 1791 
Q 947 1169 1205 825 
Q 1463 481 1925 481 
Q 2391 481 2648 825 
Q 2906 1169 2906 1791 
z
M 3481 434 
Q 3481 -459 3084 -895 
Q 2688 -1331 1869 -1331 
Q 1566 -1331 1297 -1286 
Q 1028 -1241 775 -1147 
L 775 -588 
Q 1028 -725 1275 -790 
Q 1522 -856 1778 -856 
Q 2344 -856 2625 -561 
Q 2906 -266 2906 331 
L 2906 616 
Q 2728 306 2450 153 
Q 2172 0 1784 0 
Q 1141 0 747 490 
Q 353 981 353 1791 
Q 353 2603 747 3093 
Q 1141 3584 1784 3584 
Q 2172 3584 2450 3431 
Q 2728 3278 2906 2969 
L 2906 3500 
L 3481 3500 
L 3481 434 
z
" transform="scale(0.015625)"/>
       <path id="DejaVuSans-20" transform="scale(0.015625)"/>
       <path id="DejaVuSans-6f" d="M 1959 3097 
Q 1497 3097 1228 2736 
Q 959 2375 959 1747 
Q 959 1119 1226 758 
Q 1494 397 1959 397 
Q 2419 397 2687 759 
Q 2956 1122 2956 1747 
Q 2956 2369 2687 2733 
Q 2419 3097 1959 3097 
z
M 1959 3584 
Q 2709 3584 3137 3096 
Q 3566 2609 3566 1747 
Q 3566 888 3137 398 
Q 2709 -91 1959 -91 
Q 1206 -91 779 398 
Q 353 888 353 1747 
Q 353 2609 779 3096 
Q 1206 3584 1959 3584 
z
" transform="scale(0.015625)"/>
      </defs>
      <use xlink:href="#DejaVuSans-54"/>
      <use xlink:href="#DejaVuSans-72" x="46.333984"/>
      <use xlink:href="#DejaVuSans-61" x="87.447266"/>
      <use xlink:href="#DejaVuSans-63" x="148.726562"/>
      <use xlink:href="#DejaVuSans-6b" x="203.707031"/>
      <use xlink:href="#DejaVuSans-69" x="261.617188"/>
      <use xlink:href="#DejaVuSans-6e" x="289.400391"/>
      <use xlink:href="#DejaVuSans-67" x="352.779297"/>
      <use xlink:href="#DejaVuSans-20" x="416.255859"/>
      <use xlink:href="#DejaVuSans-65" x="448.042969"/>
      <use xlink:href="#DejaVuSans-72" x="509.566406"/>
      <use xlink:href="#DejaVuSans-72" x="548.929688"/>
      <use xlink:href="#DejaVuSans-6f" x="587.792969"/>
      <use xlink:href="#DejaVuSans-72" x="648.974609"/>
      <use xlink:href="#DejaVuSans-28" x="690.087891"/>
      <use xlink:href="#DejaVuSans-6d" x="729.101562"/>
      <use xlink:href="#DejaVuSans-29" x="826.513672"/>
     </g>
    </g>
   </g>
   <g id="line2d_33">
    <path d="M 73.832727 249.382066 
L 74.009458 244.747389 
L 74.009458 244.747389 
L 74.36292 257.172209 
L 74.36292 257.172209 
L 74.716381 263.42567 
L 74.716381 263.42567 
L 75.953497 294.129206 
L 75.953497 294.129206 
L 76.130228 293.728273 
L 76.130228 293.728273 
L 76.306959 295.488 
L 76.306959 295.488 
L 76.48369 289.349482 
L 76.48369 289.349482 
L 76.837151 286.655157 
L 76.837151 286.655157 
L 77.013882 285.772557 
L 77.013882 285.772557 
L 77.190613 295.488 
L 77.190613 295.488 
L 77.367344 284.386396 
L 77.367344 284.386396 
L 78.250998 280.918941 
L 78.250998 280.918941 
L 78.60446 280.299068 
L 78.60446 280.299068 
L 78.781191 280.429064 
L 78.781191 280.429064 
L 79.134652 281.867223 
L 79.134652 281.867223 
L 79.664845 285.528987 
L 79.664845 285.528987 
L 79.841576 295.488 
L 79.841576 295.488 
L 80.018307 288.210996 
L 80.371768 290.073351 
L 80.371768 290.073351 
L 80.548499 290.607016 
L 80.548499 290.607016 
L 80.72523 295.488 
L 80.72523 295.488 
L 80.901961 291.350042 
L 80.901961 291.350042 
L 81.432153 292.214854 
L 81.432153 292.214854 
L 81.608884 295.488 
L 81.608884 295.488 
L 81.785615 293.651644 
L 81.785615 293.651644 
L 82.139077 295.360741 
L 82.139077 295.360741 
L 82.315807 294.301621 
L 82.315807 294.301621 
L 82.492538 295.488 
L 82.492538 295.488 
L 82.669269 292.338007 
L 82.669269 292.338007 
L 83.022731 291.325412 
L 83.022731 291.325412 
L 83.199462 291.233731 
L 83.199462 291.233731 
L 83.376192 295.488 
L 83.376192 295.488 
L 83.552923 291.425303 
L 83.552923 291.425303 
L 84.083116 292.2518 
L 84.083116 292.2518 
L 84.259847 295.488 
L 84.436577 292.030123 
L 84.436577 292.030123 
L 84.96677 290.690487 
L 84.96677 290.690487 
L 85.143501 295.488 
L 85.143501 295.488 
L 85.320232 289.821571 
L 85.320232 289.821571 
L 85.496962 289.660103 
L 85.496962 289.660103 
L 85.850424 289.791466 
L 85.850424 289.791466 
L 86.027155 295.488 
L 86.027155 295.488 
L 86.203886 290.039142 
L 86.203886 290.039142 
L 86.557347 290.360709 
L 86.557347 290.360709 
L 86.734078 290.278607 
L 86.734078 290.278607 
L 86.910809 295.488 
L 86.910809 295.488 
L 87.08754 289.323483 
L 87.08754 289.323483 
L 87.617732 287.462497 
L 87.617732 287.462497 
L 87.794463 295.488 
L 87.794463 295.488 
L 87.971194 286.685261 
L 87.971194 286.685261 
L 88.147925 286.564845 
L 88.147925 286.564845 
L 88.501387 286.880939 
L 88.501387 286.880939 
L 88.678117 295.488 
L 88.678117 295.488 
L 88.854848 287.407762 
L 88.854848 287.407762 
L 89.031579 287.684173 
L 89.031579 287.684173 
L 89.20831 288.171314 
L 89.20831 288.171314 
L 89.385041 288.309519 
L 89.385041 288.309519 
L 89.561772 295.488 
L 89.561772 295.488 
L 89.738502 287.994794 
L 89.738502 287.994794 
L 89.915233 287.853851 
L 89.915233 287.853851 
L 90.268695 288.429936 
L 90.268695 288.429936 
L 90.445426 295.488 
L 90.445426 295.488 
L 90.622157 290.004932 
L 90.622157 290.004932 
L 90.975618 293.331445 
L 90.975618 293.331445 
L 91.152349 295.337479 
L 91.152349 295.337479 
L 91.32908 295.488 
L 91.32908 295.488 
L 91.682542 288.50246 
L 91.682542 288.50246 
L 92.566196 276.694776 
L 92.566196 276.694776 
L 95.040428 247.515606 
L 95.040428 247.515606 
L 95.217158 246.159549 
L 95.217158 246.159549 
L 95.393889 246.275861 
L 95.393889 246.275861 
L 95.747351 245.323474 
L 95.747351 245.323474 
L 95.924082 245.72167 
L 95.924082 245.72167 
L 96.100813 245.382314 
L 96.100813 245.382314 
L 96.454274 243.577431 
L 96.454274 243.577431 
L 96.984467 236.571365 
L 96.984467 236.571365 
L 97.514659 224.84852 
L 97.514659 224.84852 
L 97.69139 222.437449 
L 97.69139 222.437449 
L 98.044852 212.657692 
L 98.044852 212.657692 
L 98.221583 214.09722 
L 98.221583 214.09722 
L 98.398313 211.319424 
L 98.398313 211.319424 
L 98.575044 214.333948 
L 98.575044 214.333948 
L 98.751775 213.885122 
L 98.751775 213.885122 
L 99.105237 219.815647 
L 99.105237 219.815647 
L 99.281968 219.663758 
L 99.281968 219.663758 
L 99.458698 227.72347 
L 99.458698 227.72347 
L 99.635429 228.315976 
L 99.635429 228.315976 
L 99.81216 235.484878 
L 99.81216 235.484878 
L 99.988891 236.137591 
L 99.988891 236.137591 
L 100.165622 242.005171 
L 100.165622 242.005171 
L 100.342353 242.589466 
L 100.342353 242.589466 
L 100.519083 247.57992 
L 100.519083 247.57992 
L 100.695814 248.500834 
L 100.695814 248.500834 
L 100.872545 246.778054 
L 100.872545 246.778054 
L 101.049276 253.778646 
L 101.049276 253.778646 
L 101.226007 252.64016 
L 101.226007 252.64016 
L 101.402738 258.634999 
L 101.402738 258.634999 
L 101.579469 258.032915 
L 101.579469 258.032915 
L 101.756199 262.53486 
L 101.756199 262.53486 
L 101.93293 261.942355 
L 101.93293 261.942355 
L 102.109661 263.936073 
L 102.109661 263.936073 
L 102.463123 260.339991 
L 102.463123 260.339991 
L 102.639854 255.26333 
L 102.639854 255.26333 
L 102.816584 244.800756 
L 102.816584 244.800756 
L 102.993315 245.795562 
L 102.993315 245.795562 
L 103.170046 235.651819 
L 103.170046 235.651819 
L 103.346777 237.921949 
L 103.346777 237.921949 
L 103.523508 230.149594 
L 103.523508 230.149594 
L 103.700239 233.908513 
L 103.700239 233.908513 
L 103.876969 229.822553 
L 103.876969 229.822553 
L 104.0537 234.926582 
L 104.230431 234.160293 
L 104.230431 234.160293 
L 104.407162 240.510909 
L 104.407162 240.510909 
L 104.583893 242.701673 
L 104.583893 242.701673 
L 104.760624 242.984926 
L 104.760624 242.984926 
L 104.937354 254.729665 
L 104.937354 254.729665 
L 105.114085 257.655245 
L 105.114085 257.655245 
L 105.644278 289.049809 
L 105.644278 289.049809 
L 105.821009 293.60512 
L 105.821009 293.60512 
L 107.058124 208.768778 
L 107.058124 208.768778 
L 107.941779 157.257774 
L 107.941779 157.257774 
L 108.118509 147.937791 
L 108.118509 147.937791 
L 108.29524 146.339532 
L 108.29524 146.339532 
L 108.648702 137.126282 
L 108.648702 137.126282 
L 108.825433 143.999616 
L 108.825433 143.999616 
L 109.178894 149.069435 
L 109.178894 149.069435 
L 109.885818 201.602613 
L 109.885818 201.602613 
L 110.769472 250.916011 
L 110.769472 250.916011 
L 111.476395 270.912035 
L 111.476395 270.912035 
L 111.653126 272.773021 
L 111.653126 272.773021 
L 111.829857 281.219983 
L 111.829857 281.219983 
L 112.006588 283.871888 
L 112.006588 283.871888 
L 112.360049 293.959528 
L 112.360049 293.959528 
L 112.53678 294.803814 
L 112.53678 294.803814 
L 112.713511 287.803222 
L 112.713511 287.803222 
L 112.890242 295.488 
L 112.890242 295.488 
L 113.243704 275.500187 
L 113.243704 275.500187 
L 113.597165 271.113185 
L 113.597165 271.113185 
L 113.950627 260.293466 
L 113.950627 260.293466 
L 115.541205 195.329995 
L 115.541205 195.329995 
L 116.248128 158.498888 
L 116.248128 158.498888 
L 116.77832 136.00969 
L 116.77832 136.00969 
L 117.308513 124.429156 
L 117.308513 124.429156 
L 117.661975 121.116327 
L 117.661975 121.116327 
L 117.838705 123.060784 
L 117.838705 123.060784 
L 118.015436 123.461717 
L 118.015436 123.461717 
L 118.192167 122.815845 
L 118.192167 122.815845 
L 118.368898 127.657146 
L 118.368898 127.657146 
L 118.545629 128.694372 
L 118.545629 128.694372 
L 118.72236 128.3687 
L 118.72236 128.3687 
L 118.89909 136.013795 
L 118.89909 136.013795 
L 119.075821 137.483427 
L 119.075821 137.483427 
L 119.429283 148.216939 
L 119.429283 148.216939 
L 119.606014 150.759374 
L 119.606014 150.759374 
L 120.84313 229.450356 
L 120.84313 229.450356 
L 121.550053 291.507405 
L 121.550053 291.507405 
L 121.726784 288.884236 
L 121.726784 288.884236 
L 122.080245 266.026946 
L 122.080245 266.026946 
L 122.433707 250.246877 
L 122.433707 250.246877 
L 122.610438 248.069797 
L 122.610438 248.069797 
L 122.787169 240.66143 
L 122.787169 240.66143 
L 122.9639 240.08124 
L 122.9639 240.08124 
L 123.14063 235.805077 
L 123.14063 235.805077 
L 123.317361 236.108855 
L 123.317361 236.108855 
L 123.494092 238.970122 
L 123.494092 238.970122 
L 123.670823 234.789745 
L 123.670823 234.789745 
L 123.847554 237.259657 
L 123.847554 237.259657 
L 124.024285 234.109664 
L 124.024285 234.109664 
L 124.201015 235.505403 
L 124.201015 235.505403 
L 124.377746 233.40632 
L 124.377746 233.40632 
L 124.554477 234.346392 
L 124.554477 234.346392 
L 124.731208 236.942194 
L 124.731208 236.942194 
L 124.907939 233.547263 
L 124.907939 233.547263 
L 125.08467 235.599821 
L 125.08467 235.599821 
L 125.261401 233.86883 
L 125.438131 236.238851 
L 125.438131 236.238851 
L 125.614862 240.999418 
L 125.614862 240.999418 
L 125.791593 240.129133 
L 125.791593 240.129133 
L 125.968324 245.564308 
L 125.968324 245.564308 
L 126.145055 246.936785 
L 126.145055 246.936785 
L 126.851978 269.566925 
L 126.851978 269.566925 
L 127.028709 271.381386 
L 127.028709 271.381386 
L 127.382171 284.963849 
L 127.382171 284.963849 
L 127.558901 284.249559 
L 127.558901 284.249559 
L 127.735632 289.706627 
L 127.735632 289.706627 
L 127.912363 289.242749 
L 127.912363 289.242749 
L 128.089094 292.6801 
L 128.089094 292.6801 
L 128.442556 294.561612 
L 128.442556 294.561612 
L 128.619286 293.200082 
L 128.619286 293.200082 
L 128.796017 294.628662 
L 128.796017 294.628662 
L 129.149479 288.895183 
L 129.149479 288.895183 
L 129.32621 292.046544 
L 129.32621 292.046544 
L 129.502941 289.606736 
L 129.502941 289.606736 
L 129.679671 291.771501 
L 129.679671 291.771501 
L 129.856402 295.488 
L 129.856402 295.488 
L 130.033133 288.62014 
L 130.033133 288.62014 
L 130.209864 292.693784 
L 130.209864 292.693784 
L 130.386595 292.057491 
L 130.386595 292.057491 
L 130.563326 295.478421 
L 130.916787 295.430528 
L 130.916787 295.430528 
L 131.093518 290.383972 
L 131.093518 290.383972 
L 131.270249 289.4439 
L 131.270249 289.4439 
L 131.623711 284.036093 
L 131.623711 284.036093 
L 131.800441 283.687158 
L 131.800441 283.687158 
L 131.977172 278.964905 
L 131.977172 278.964905 
L 132.153903 277.600638 
L 132.153903 277.600638 
L 132.330634 277.472011 
L 132.507365 272.273565 
L 132.507365 272.273565 
L 132.684096 271.574327 
L 132.684096 271.574327 
L 132.860826 267.980981 
L 132.860826 267.980981 
L 133.037557 266.811023 
L 133.037557 266.811023 
L 133.214288 266.893126 
L 133.214288 266.893126 
L 133.391019 263.451669 
L 133.391019 263.451669 
L 133.56775 263.269676 
L 133.56775 263.269676 
L 133.744481 264.170065 
L 133.744481 264.170065 
L 133.921211 260.662927 
L 133.921211 260.662927 
L 134.097942 260.590403 
L 134.097942 260.590403 
L 134.274673 261.236275 
L 134.274673 261.236275 
L 134.451404 256.905377 
L 134.451404 256.905377 
L 134.628135 256.348449 
L 134.628135 256.348449 
L 134.804866 256.589283 
L 134.804866 256.589283 
L 134.981596 251.890292 
L 134.981596 251.890292 
L 135.158327 251.342943 
L 135.158327 251.342943 
L 135.511789 246.304597 
L 135.511789 246.304597 
L 135.68852 245.162006 
L 135.68852 245.162006 
L 136.041981 238.686869 
L 136.041981 238.686869 
L 136.218712 236.701361 
L 136.218712 236.701361 
L 136.572174 228.529442 
L 136.572174 228.529442 
L 136.748905 225.945955 
L 136.748905 225.945955 
L 137.102367 217.96424 
L 137.102367 217.96424 
L 137.455828 213.551239 
L 137.455828 213.551239 
L 137.80929 205.360163 
L 137.80929 205.360163 
L 137.986021 203.239186 
L 137.986021 203.239186 
L 138.339482 195.189052 
L 138.339482 195.189052 
L 138.516213 192.64388 
L 138.516213 192.64388 
L 138.869675 184.155867 
L 138.869675 184.155867 
L 139.223137 177.73957 
L 139.223137 177.73957 
L 139.576598 167.49183 
L 139.576598 167.49183 
L 139.93006 157.352192 
L 139.93006 157.352192 
L 141.697368 108.928235 
L 141.697368 108.928235 
L 142.05083 104.966798 
L 142.05083 104.966798 
L 142.227561 103.155073 
L 142.227561 103.155073 
L 142.404292 103.011394 
L 142.404292 103.011394 
L 142.581022 103.679159 
L 142.581022 103.679159 
L 142.934484 107.358712 
L 142.934484 107.358712 
L 143.111215 109.086966 
L 143.111215 109.086966 
L 143.641407 120.332249 
L 143.641407 120.332249 
L 144.1716 134.240385 
L 144.1716 134.240385 
L 145.231985 170.440672 
L 145.231985 170.440672 
L 147.352755 253.164247 
L 147.352755 253.164247 
L 148.059678 269.925438 
L 148.059678 269.925438 
L 149.296794 285.708244 
L 149.296794 285.708244 
L 149.473525 295.488 
L 149.473525 295.488 
L 149.650256 289.587579 
L 149.650256 289.587579 
L 150.180448 295.297796 
L 150.180448 295.297796 
L 150.357179 295.488 
L 150.357179 295.488 
L 150.710641 290.300501 
L 150.710641 290.300501 
L 150.887372 290.440075 
L 150.887372 290.440075 
L 151.064103 290.356604 
L 151.064103 290.356604 
L 151.240833 295.488 
L 151.240833 295.488 
L 151.417564 291.269308 
L 151.417564 291.269308 
L 151.594295 292.255905 
L 151.594295 292.255905 
L 151.947757 295.144539 
L 151.947757 295.144539 
L 152.477949 291.339095 
L 152.477949 291.339095 
L 152.65468 295.488 
L 152.65468 295.488 
L 152.831411 291.573087 
L 152.831411 291.573087 
L 153.008142 292.240853 
L 153.008142 292.240853 
L 153.361603 295.14317 
L 153.361603 295.14317 
L 153.715065 289.04844 
L 153.715065 289.04844 
L 154.421988 271.291074 
L 154.421988 271.291074 
L 155.659104 244.781599 
L 155.659104 244.781599 
L 155.835835 243.556906 
L 155.835835 243.556906 
L 156.189297 238.196991 
L 156.189297 238.196991 
L 156.366028 239.781567 
L 156.366028 239.781567 
L 156.542758 237.318497 
L 156.542758 237.318497 
L 156.719489 238.640344 
L 156.719489 238.640344 
L 156.89622 236.156748 
L 156.89622 236.156748 
L 157.072951 236.959983 
L 157.072951 236.959983 
L 157.249682 234.340919 
L 157.249682 234.340919 
L 157.426413 234.704906 
L 157.426413 234.704906 
L 157.603143 231.824482 
L 157.603143 231.824482 
L 157.779874 231.611016 
L 157.779874 231.611016 
L 157.956605 228.318712 
L 157.956605 228.318712 
L 158.133336 227.582528 
L 158.133336 227.582528 
L 158.310067 223.919396 
L 158.310067 223.919396 
L 158.486798 222.779542 
L 158.486798 222.779542 
L 159.01699 212.362124 
L 159.01699 212.362124 
L 159.193721 209.989366 
L 159.193721 209.989366 
L 159.723913 193.904151 
L 159.723913 193.904151 
L 159.900644 190.353225 
L 159.900644 190.353225 
L 160.784299 147.369916 
L 160.784299 147.369916 
L 160.961029 142.844709 
L 160.961029 142.844709 
L 161.13776 130.214634 
L 161.13776 130.214634 
L 161.314491 127.034537 
L 161.491222 113.612173 
L 161.491222 113.612173 
L 161.667953 111.227101 
L 161.667953 111.227101 
L 161.844684 97.301176 
L 161.844684 97.301176 
L 162.021414 96.081957 
L 162.021414 96.081957 
L 162.198145 82.298343 
L 162.198145 82.298343 
L 162.374876 81.95625 
L 162.374876 81.95625 
L 162.551607 68.518835 
L 162.551607 68.518835 
L 162.728338 69.679215 
L 162.728338 69.679215 
L 162.905069 57.705958 
L 162.905069 57.705958 
L 163.081799 60.851845 
L 163.081799 60.851845 
L 163.25853 60.602802 
L 163.25853 60.602802 
L 163.435261 55.814867 
L 163.435261 55.814867 
L 163.611992 57.161345 
L 163.611992 57.161345 
L 163.788723 53.568 
L 163.965454 56.889039 
L 163.965454 56.889039 
L 164.142184 54.670908 
L 164.142184 54.670908 
L 164.318915 59.881669 
L 164.318915 59.881669 
L 164.495646 58.346356 
L 164.495646 58.346356 
L 164.672377 64.22762 
L 164.672377 64.22762 
L 164.849108 62.629361 
L 164.849108 62.629361 
L 165.025839 69.512273 
L 165.025839 69.512273 
L 165.202569 68.870507 
L 165.202569 68.870507 
L 165.3793 77.82924 
L 165.3793 77.82924 
L 165.556031 78.469638 
L 165.556031 78.469638 
L 165.732762 88.520332 
L 165.732762 88.520332 
L 165.909493 89.378301 
L 165.909493 89.378301 
L 166.086224 99.667092 
L 166.086224 99.667092 
L 166.262954 100.630426 
L 166.262954 100.630426 
L 166.439685 111.001319 
L 166.439685 111.001319 
L 166.616416 111.758029 
L 166.616416 111.758029 
L 166.793147 121.186114 
L 166.793147 121.186114 
L 166.969878 120.65108 
L 166.969878 120.65108 
L 167.146609 129.463397 
L 167.146609 129.463397 
L 167.323339 128.446697 
L 167.323339 128.446697 
L 167.676801 142.282308 
L 167.676801 142.282308 
L 167.853532 143.632892 
L 167.853532 143.632892 
L 168.030263 148.98049 
L 168.030263 148.98049 
L 168.206994 149.887721 
L 168.206994 149.887721 
L 168.383724 155.435102 
L 168.383724 155.435102 
L 168.560455 156.064554 
L 168.560455 156.064554 
L 168.737186 161.989605 
L 168.737186 161.989605 
L 168.913917 162.312541 
L 168.913917 162.312541 
L 169.090648 167.980339 
L 169.090648 167.980339 
L 169.267379 167.772346 
L 169.267379 167.772346 
L 169.444109 173.498984 
L 169.444109 173.498984 
L 169.62084 173.222573 
L 169.62084 173.222573 
L 169.797571 179.195518 
L 169.797571 179.195518 
L 169.974302 178.555119 
L 169.974302 178.555119 
L 170.151033 184.407647 
L 170.151033 184.407647 
L 170.327764 183.477154 
L 170.327764 183.477154 
L 170.504494 189.13811 
L 170.504494 189.13811 
L 170.681225 187.91068 
L 170.681225 187.91068 
L 170.857956 193.293857 
L 170.857956 193.293857 
L 171.034687 192.147161 
L 171.034687 192.147161 
L 171.211418 197.466024 
L 171.211418 197.466024 
L 171.388149 196.513637 
L 171.388149 196.513637 
L 171.564879 202.062386 
L 171.564879 202.062386 
L 171.74161 201.742187 
L 171.74161 201.742187 
L 171.918341 207.568716 
L 171.918341 207.568716 
L 172.095072 208.039436 
L 172.095072 208.039436 
L 172.271803 214.188901 
L 172.271803 214.188901 
L 172.448534 215.542221 
L 172.448534 215.542221 
L 172.625265 221.999569 
L 172.625265 221.999569 
L 172.801995 224.262857 
L 172.801995 224.262857 
L 173.332188 240.874896 
L 173.332188 240.874896 
L 173.68565 251.74935 
L 173.68565 251.74935 
L 174.392573 270.912035 
L 174.392573 270.912035 
L 174.746035 280.876521 
L 174.746035 280.876521 
L 175.276227 294.865391 
L 175.276227 294.865391 
L 175.452958 295.488 
L 175.452958 295.488 
L 176.159881 281.092724 
L 176.159881 281.092724 
L 176.336612 280.366118 
L 176.336612 280.366118 
L 176.513343 281.267876 
L 176.513343 281.267876 
L 176.690074 277.118971 
L 176.690074 277.118971 
L 176.866805 278.065885 
L 176.866805 278.065885 
L 177.043535 275.372928 
L 177.043535 275.372928 
L 177.220266 276.416996 
L 177.220266 276.416996 
L 177.396997 278.926591 
L 177.396997 278.926591 
L 177.573728 275.437242 
L 177.573728 275.437242 
L 177.750459 277.303701 
L 177.750459 277.303701 
L 177.92719 274.561483 
L 177.92719 274.561483 
L 178.10392 275.047256 
L 178.10392 275.047256 
L 178.280651 276.511414 
L 178.280651 276.511414 
L 178.457382 271.993049 
L 178.457382 271.993049 
L 178.634113 271.890421 
L 178.634113 271.890421 
L 178.987575 266.263674 
L 178.987575 266.263674 
L 179.164305 265.023929 
L 179.164305 265.023929 
L 179.517767 255.695736 
L 179.517767 255.695736 
L 179.694498 252.362381 
L 179.694498 252.362381 
L 181.991999 153.686323 
L 181.991999 153.686323 
L 182.34546 144.716643 
L 182.34546 144.716643 
L 182.522191 142.014107 
L 182.522191 142.014107 
L 182.698922 141.685698 
L 182.698922 141.685698 
L 182.875653 142.300097 
L 182.875653 142.300097 
L 183.052384 144.326657 
L 183.052384 144.326657 
L 183.229115 147.747587 
L 183.936038 177.534314 
L 183.936038 177.534314 
L 185.349885 262.339183 
L 185.349885 262.339183 
L 185.880077 283.000235 
L 185.880077 283.000235 
L 186.233539 291.563508 
L 186.233539 291.563508 
L 186.587001 295.422318 
L 186.587001 295.422318 
L 186.763731 295.156854 
L 186.763731 295.156854 
L 186.940462 295.488 
L 186.940462 295.488 
L 187.117193 294.557507 
L 187.117193 294.557507 
L 187.470655 289.33443 
L 187.470655 289.33443 
L 188.000847 273.763722 
L 188.000847 273.763722 
L 188.884501 229.804765 
L 188.884501 229.804765 
L 189.768156 178.096715 
L 189.768156 178.096715 
L 189.944886 171.850096 
L 189.944886 171.850096 
L 190.121617 159.745475 
L 190.121617 159.745475 
L 190.298348 156.342333 
L 190.298348 156.342333 
L 190.475079 145.322831 
L 190.475079 145.322831 
L 190.65181 145.071051 
L 190.65181 145.071051 
L 190.828541 133.178528 
L 190.828541 133.178528 
L 191.005271 134.906782 
L 191.005271 134.906782 
L 191.182002 133.929764 
L 191.182002 133.929764 
L 191.358733 127.104324 
L 191.358733 127.104324 
L 191.535464 130.220107 
L 191.535464 130.220107 
L 191.712195 125.835843 
L 191.712195 125.835843 
L 191.888926 134.867099 
L 191.888926 134.867099 
L 192.065656 131.982571 
L 192.065656 131.982571 
L 192.419118 156.120657 
L 192.419118 156.120657 
L 192.595849 160.847014 
L 192.595849 160.847014 
L 192.77258 174.660732 
L 192.77258 174.660732 
L 192.949311 176.743395 
L 192.949311 176.743395 
L 193.126041 191.034674 
L 193.302772 189.536307 
L 193.302772 189.536307 
L 193.656234 212.672744 
L 193.656234 212.672744 
L 193.832965 210.096099 
L 193.832965 210.096099 
L 194.009696 216.167567 
L 194.009696 216.167567 
L 194.186426 206.324866 
L 194.186426 206.324866 
L 194.363157 209.39823 
L 194.363157 209.39823 
L 194.539888 206.426125 
L 194.539888 206.426125 
L 194.716619 195.992287 
L 194.716619 195.992287 
L 194.89335 193.880888 
L 194.89335 193.880888 
L 195.070081 182.236041 
L 195.070081 182.236041 
L 195.246812 183.857562 
L 195.246812 183.857562 
L 195.423542 172.290711 
L 195.423542 172.290711 
L 195.777004 182.713603 
L 195.777004 182.713603 
L 195.953735 181.999312 
L 195.953735 181.999312 
L 196.130466 191.739386 
L 196.130466 191.739386 
L 196.307197 193.813838 
L 196.307197 193.813838 
L 196.483927 208.065435 
L 196.483927 208.065435 
L 196.660658 211.510996 
L 197.01412 237.447123 
L 197.01412 237.447123 
L 197.190851 239.885563 
L 197.190851 239.885563 
L 197.367582 248.732089 
L 197.367582 248.732089 
L 197.544312 244.583185 
L 197.544312 244.583185 
L 197.721043 251.527674 
L 197.721043 251.527674 
L 197.897774 253.249086 
L 197.897774 253.249086 
L 198.074505 245.391893 
L 198.074505 245.391893 
L 198.251236 245.084009 
L 198.251236 245.084009 
L 198.427967 232.240467 
L 198.427967 232.240467 
L 198.604697 232.542877 
L 198.604697 232.542877 
L 198.781428 228.315976 
L 198.781428 228.315976 
L 198.958159 217.091218 
L 198.958159 217.091218 
L 199.13489 214.198479 
L 199.13489 214.198479 
L 199.311621 201.367253 
L 199.311621 201.367253 
L 199.488352 200.80622 
L 199.488352 200.80622 
L 199.665082 187.959942 
L 199.665082 187.959942 
L 199.841813 191.666862 
L 199.841813 191.666862 
L 200.018544 192.611039 
L 200.018544 192.611039 
L 200.195275 187.259335 
L 200.372006 191.884433 
L 200.372006 191.884433 
L 200.548737 187.47417 
L 200.548737 187.47417 
L 200.725467 194.756647 
L 200.725467 194.756647 
L 200.902198 190.387434 
L 200.902198 190.387434 
L 201.25566 204.166942 
L 201.25566 204.166942 
L 201.432391 204.064315 
L 201.432391 204.064315 
L 201.609122 210.06189 
L 201.609122 210.06189 
L 201.785852 209.451596 
L 201.785852 209.451596 
L 201.962583 215.945891 
L 201.962583 215.945891 
L 202.139314 215.783054 
L 202.139314 215.783054 
L 202.316045 222.664598 
L 202.316045 222.664598 
L 202.492776 223.83182 
L 202.492776 223.83182 
L 203.022968 242.319897 
L 203.022968 242.319897 
L 203.906622 271.746742 
L 203.906622 271.746742 
L 204.436815 282.740244 
L 204.436815 282.740244 
L 204.967007 289.999459 
L 204.967007 289.999459 
L 205.4972 295.488 
L 205.4972 295.488 
L 205.673931 294.482246 
L 205.673931 294.482246 
L 205.850662 295.488 
L 205.850662 295.488 
L 206.204123 289.627262 
L 206.204123 289.627262 
L 206.380854 288.592772 
L 206.380854 288.592772 
L 206.734316 285.868343 
L 206.734316 285.868343 
L 207.087778 283.495586 
L 207.087778 283.495586 
L 207.264508 282.8114 
L 207.264508 282.8114 
L 207.61797 279.772245 
L 207.61797 279.772245 
L 207.794701 278.65018 
L 207.794701 278.65018 
L 208.678355 266.622188 
L 208.678355 266.622188 
L 209.385278 257.834501 
L 209.385278 257.834501 
L 212.212972 216.110095 
L 212.212972 216.110095 
L 212.743164 213.303564 
L 212.743164 213.303564 
L 212.919895 213.276196 
L 212.919895 213.276196 
L 213.096626 213.622395 
L 213.096626 213.622395 
L 213.273357 214.291529 
L 213.273357 214.291529 
L 213.450088 214.318896 
L 213.450088 214.318896 
L 213.98028 216.948907 
L 213.98028 216.948907 
L 214.157011 217.971082 
L 214.157011 217.971082 
L 214.333742 217.85477 
L 214.333742 217.85477 
L 215.040665 219.858067 
L 215.040665 219.858067 
L 215.217396 219.414714 
L 215.217396 219.414714 
L 215.570858 221.539796 
L 215.570858 221.539796 
L 216.277781 228.871535 
L 216.277781 228.871535 
L 216.984704 243.287336 
L 216.984704 243.287336 
L 218.22182 275.595973 
L 218.22182 275.595973 
L 218.575282 282.385836 
L 218.575282 282.385836 
L 219.105474 290.383972 
L 219.105474 290.383972 
L 219.458936 295.155486 
L 219.458936 295.155486 
L 219.635667 295.223904 
L 219.635667 295.223904 
L 219.812398 295.488 
L 219.812398 295.488 
L 219.989129 291.183101 
L 219.989129 291.183101 
L 220.165859 290.997002 
L 220.165859 290.997002 
L 220.696052 284.261874 
L 220.696052 284.261874 
L 222.286629 247.436241 
L 222.286629 247.436241 
L 222.46336 243.651323 
L 222.46336 243.651323 
L 222.640091 242.716725 
L 222.640091 242.716725 
L 222.816822 240.494488 
L 222.816822 240.494488 
L 222.993553 236.440002 
L 222.993553 236.440002 
L 223.170284 238.964648 
L 223.170284 238.964648 
L 223.347014 235.597084 
L 223.347014 235.597084 
L 223.523745 238.123099 
L 223.523745 238.123099 
L 223.700476 235.172889 
L 223.700476 235.172889 
L 223.877207 237.27334 
L 223.877207 237.27334 
L 224.053938 234.50786 
L 224.053938 234.50786 
L 224.230669 235.933704 
L 224.230669 235.933704 
L 224.407399 233.218853 
L 224.58413 227.470322 
L 224.58413 227.470322 
L 224.760861 231.559018 
L 224.760861 231.559018 
L 224.937592 226.170368 
L 224.937592 226.170368 
L 225.114323 229.168472 
L 225.114323 229.168472 
L 225.291054 223.348784 
L 225.291054 223.348784 
L 225.467784 225.690069 
L 225.467784 225.690069 
L 225.644515 220.313735 
L 225.644515 220.313735 
L 225.821246 222.130933 
L 225.821246 222.130933 
L 225.997977 217.526361 
L 225.997977 217.526361 
L 226.174708 219.369558 
L 226.174708 219.369558 
L 226.351439 215.897998 
L 226.351439 215.897998 
L 226.528169 218.051816 
L 226.528169 218.051816 
L 226.7049 215.847368 
L 226.7049 215.847368 
L 226.881631 218.124339 
L 226.881631 218.124339 
L 227.058362 217.162374 
L 227.058362 217.162374 
L 227.235093 213.570396 
L 227.235093 213.570396 
L 227.411824 219.974378 
L 227.411824 219.974378 
L 227.588554 217.163742 
L 227.588554 217.163742 
L 227.765285 223.723718 
L 227.765285 223.723718 
L 227.942016 221.709474 
L 227.942016 221.709474 
L 228.118747 228.845536 
L 228.118747 228.845536 
L 228.295478 228.611544 
L 228.472209 236.059594 
L 228.472209 236.059594 
L 228.648939 237.412914 
L 228.648939 237.412914 
L 228.82567 244.398454 
L 228.82567 244.398454 
L 229.002401 246.567324 
L 229.002401 246.567324 
L 229.179132 252.519744 
L 229.179132 252.519744 
L 229.355863 254.677667 
L 229.355863 254.677667 
L 229.532594 254.215157 
L 229.532594 254.215157 
L 229.709324 261.932776 
L 229.709324 261.932776 
L 229.886055 261.834253 
L 229.886055 261.834253 
L 230.062786 268.968946 
L 230.239517 269.575135 
L 230.239517 269.575135 
L 230.416248 276.278791 
L 230.592979 278.230089 
L 230.592979 278.230089 
L 230.94644 289.04023 
L 230.94644 289.04023 
L 231.123171 294.385092 
L 231.123171 294.385092 
L 231.299902 295.488 
L 231.299902 295.488 
L 231.830095 266.282831 
L 231.830095 266.282831 
L 233.243941 188.6756 
L 233.243941 188.6756 
L 233.774134 173.646768 
L 233.774134 173.646768 
L 233.950865 171.767993 
L 233.950865 171.767993 
L 234.127595 171.588736 
L 234.127595 171.588736 
L 234.304326 173.545509 
L 234.304326 173.545509 
L 235.01125 221.918835 
L 235.01125 221.918835 
L 235.718173 290.203346 
L 235.718173 290.203346 
L 235.894904 284.452078 
L 235.894904 284.452078 
L 236.601827 232.964336 
L 236.601827 232.964336 
L 237.13202 209.929158 
L 237.13202 209.929158 
L 237.662212 197.323713 
L 237.662212 197.323713 
L 238.015674 191.519078 
L 238.015674 191.519078 
L 238.369135 188.969801 
L 238.369135 188.969801 
L 238.545866 188.18846 
L 238.545866 188.18846 
L 238.899328 184.437752 
L 238.899328 184.437752 
L 239.42952 179.959069 
L 239.42952 179.959069 
L 239.782982 174.69631 
L 239.782982 174.69631 
L 240.136444 172.008827 
L 240.136444 172.008827 
L 240.489905 171.098859 
L 240.489905 171.098859 
L 240.666636 172.539755 
L 240.666636 172.539755 
L 241.196829 181.155027 
L 241.196829 181.155027 
L 242.080483 198.845343 
L 242.080483 198.845343 
L 243.140868 216.814807 
L 243.140868 216.814807 
L 244.024522 240.408281 
L 244.024522 240.408281 
L 244.377984 250.063515 
L 244.377984 250.063515 
L 245.084907 268.934737 
L 245.084907 268.934737 
L 245.438369 278.417556 
L 245.438369 278.417556 
L 245.6151 279.577936 
L 245.6151 279.577936 
L 245.968561 286.781048 
L 245.968561 286.781048 
L 246.145292 287.477549 
L 246.145292 287.477549 
L 246.498754 293.224712 
L 246.498754 293.224712 
L 246.675485 293.694064 
L 246.675485 293.694064 
L 246.852216 295.488 
L 246.852216 295.488 
L 247.028946 291.31857 
L 247.028946 291.31857 
L 247.205677 290.059667 
L 247.205677 290.059667 
L 247.912601 274.316545 
L 247.912601 274.316545 
L 248.442793 256.425078 
L 248.442793 256.425078 
L 248.796255 244.443611 
L 248.796255 244.443611 
L 249.149716 233.079279 
L 249.149716 233.079279 
L 249.503178 219.570709 
L 249.503178 219.570709 
L 249.679909 219.550183 
L 249.679909 219.550183 
L 250.033371 211.922876 
L 250.033371 211.922876 
L 250.210101 216.790176 
L 250.210101 216.790176 
L 250.386832 216.732705 
L 250.386832 216.732705 
L 250.563563 216.497345 
L 250.563563 216.497345 
L 250.740294 225.129037 
L 250.740294 225.129037 
L 250.917025 227.99304 
L 250.917025 227.99304 
L 251.270486 241.290881 
L 251.270486 241.290881 
L 251.447217 245.699776 
L 251.447217 245.699776 
L 251.800679 261.191118 
L 251.800679 261.191118 
L 251.97741 265.928423 
L 251.97741 265.928423 
L 252.330871 281.23093 
L 252.330871 281.23093 
L 252.507602 285.260786 
L 252.507602 285.260786 
L 252.684333 294.441195 
L 252.684333 294.441195 
L 252.861064 292.577472 
L 253.214526 282.131319 
L 253.214526 282.131319 
L 253.391256 279.40689 
L 253.391256 279.40689 
L 253.744718 270.569942 
L 253.744718 270.569942 
L 253.921449 268.548856 
L 253.921449 268.548856 
L 254.274911 260.437145 
L 254.274911 260.437145 
L 254.451642 258.494057 
L 254.451642 258.494057 
L 254.805103 250.016991 
L 254.805103 250.016991 
L 254.981834 247.660654 
L 254.981834 247.660654 
L 255.335296 238.083417 
L 255.335296 238.083417 
L 255.512027 234.988159 
L 255.512027 234.988159 
L 255.865488 223.953605 
L 255.865488 223.953605 
L 256.042219 220.347944 
L 256.042219 220.347944 
L 256.395681 209.95242 
L 256.395681 209.95242 
L 256.572412 206.989894 
L 256.572412 206.989894 
L 256.925873 198.256943 
L 256.925873 198.256943 
L 257.102604 195.74598 
L 257.102604 195.74598 
L 257.456066 188.705705 
L 257.456066 188.705705 
L 257.809527 185.093202 
L 257.809527 185.093202 
L 258.162989 179.35288 
L 258.162989 179.35288 
L 258.33972 177.928405 
L 258.33972 177.928405 
L 258.693182 173.501721 
L 258.693182 173.501721 
L 259.046643 171.469688 
L 259.046643 171.469688 
L 259.400105 167.944761 
L 259.400105 167.944761 
L 260.990682 157.948802 
L 260.990682 157.948802 
L 261.167413 157.638182 
L 261.167413 157.638182 
L 261.344144 157.646392 
L 261.344144 157.646392 
L 261.697606 158.561833 
L 261.697606 158.561833 
L 262.051067 161.982763 
L 262.051067 161.982763 
L 262.404529 168.368957 
L 262.404529 168.368957 
L 262.757991 178.488069 
L 262.757991 178.488069 
L 263.464914 207.34704 
L 263.464914 207.34704 
L 264.525299 250.69023 
L 264.525299 250.69023 
L 265.232222 270.80667 
L 265.232222 270.80667 
L 266.292608 295.488 
L 266.292608 295.488 
L 266.646069 290.305974 
L 266.646069 290.305974 
L 266.999531 285.943604 
L 266.999531 285.943604 
L 267.176262 295.488 
L 267.176262 295.488 
L 267.352993 283.724104 
L 267.352993 283.724104 
L 267.529723 283.464113 
L 267.529723 283.464113 
L 267.883185 285.111633 
L 267.883185 285.111633 
L 268.059916 295.488 
L 268.059916 295.488 
L 268.236647 288.128894 
L 268.236647 288.128894 
L 268.94357 295.488 
L 268.94357 295.488 
L 269.297032 291.552561 
L 269.297032 291.552561 
L 269.650493 289.683365 
L 269.650493 289.683365 
L 269.827224 295.488 
L 269.827224 295.488 
L 270.003955 288.668033 
L 270.003955 288.668033 
L 270.534148 287.244926 
L 270.534148 287.244926 
L 270.710878 295.488 
L 270.710878 295.488 
L 270.887609 285.337415 
L 270.887609 285.337415 
L 271.241071 281.901432 
L 271.241071 281.901432 
L 272.478187 265.728641 
L 272.478187 265.728641 
L 272.831648 264.638048 
L 272.831648 264.638048 
L 273.18511 266.858916 
L 273.18511 266.858916 
L 273.538572 271.187078 
L 273.538572 271.187078 
L 273.892033 278.375137 
L 273.892033 278.375137 
L 274.068764 282.429624 
L 274.068764 282.429624 
L 274.245495 295.488 
L 274.422226 291.25152 
L 274.422226 291.25152 
L 274.598957 295.119908 
L 274.598957 295.119908 
L 275.482611 271.415596 
L 275.482611 271.415596 
L 276.012803 259.750222 
L 276.012803 259.750222 
L 276.542996 252.592267 
L 276.542996 252.592267 
L 276.896458 250.801068 
L 276.896458 250.801068 
L 277.073188 250.450765 
L 277.073188 250.450765 
L 277.249919 250.442555 
L 277.249919 250.442555 
L 277.42665 250.731281 
L 277.42665 250.731281 
L 277.780112 252.385643 
L 277.780112 252.385643 
L 278.487035 257.796187 
L 278.487035 257.796187 
L 279.370689 266.583873 
L 279.370689 266.583873 
L 280.077613 276.552465 
L 280.077613 276.552465 
L 280.431074 282.696456 
L 280.431074 282.696456 
L 280.607805 295.488 
L 280.607805 295.488 
L 280.784536 289.312536 
L 280.784536 289.312536 
L 281.137998 295.401793 
L 281.137998 295.401793 
L 282.728575 273.342264 
L 282.728575 273.342264 
L 283.082037 262.915267 
L 283.082037 262.915267 
L 283.78896 231.216925 
L 283.78896 231.216925 
L 284.319153 200.666646 
L 284.319153 200.666646 
L 285.026076 155.788142 
L 285.026076 155.788142 
L 285.379538 159.317174 
L 285.379538 159.317174 
L 285.556269 154.198094 
L 285.556269 154.198094 
L 285.732999 162.527376 
L 285.732999 162.527376 
L 285.90973 156.175392 
L 285.90973 156.175392 
L 286.263192 178.137766 
L 286.263192 178.137766 
L 286.439923 175.12461 
L 286.439923 175.12461 
L 286.616654 183.806932 
L 286.616654 183.806932 
L 286.793384 174.001177 
L 286.793384 174.001177 
L 286.970115 180.84988 
L 287.146846 180.536522 
L 287.146846 180.536522 
L 287.323577 167.438463 
L 287.323577 167.438463 
L 287.500308 165.394115 
L 287.500308 165.394115 
L 287.677039 145.142206 
L 287.677039 145.142206 
L 287.853769 144.044772 
L 287.853769 144.044772 
L 288.0305 138.561704 
L 288.0305 138.561704 
L 288.207231 122.557223 
L 288.207231 122.557223 
L 288.383962 122.249339 
L 288.383962 122.249339 
L 288.560693 108.079845 
L 288.560693 108.079845 
L 288.914155 119.683641 
L 288.914155 119.683641 
L 289.090885 116.573331 
L 289.090885 116.573331 
L 289.267616 125.852263 
L 289.267616 125.852263 
L 289.444347 123.09773 
L 289.444347 123.09773 
L 289.797809 141.187611 
L 289.797809 141.187611 
L 289.97454 137.601107 
L 289.97454 137.601107 
L 290.15127 143.873725 
L 290.15127 143.873725 
L 290.328001 145.284517 
L 290.328001 145.284517 
L 290.504732 137.64079 
L 290.504732 137.64079 
L 290.681463 138.367395 
L 290.681463 138.367395 
L 290.858194 123.108677 
L 290.858194 123.108677 
L 291.034925 124.155481 
L 291.034925 124.155481 
L 291.211655 120.117415 
L 291.211655 120.117415 
L 291.388386 106.596529 
L 291.388386 106.596529 
L 291.565117 105.404677 
L 291.565117 105.404677 
L 291.741848 88.720114 
L 291.741848 88.720114 
L 291.918579 91.27076 
L 292.09531 90.468894 
L 292.09531 90.468894 
L 292.27204 82.11635 
L 292.27204 82.11635 
L 292.448771 87.962036 
L 292.448771 87.962036 
L 292.625502 81.961724 
L 292.625502 81.961724 
L 292.802233 96.589623 
L 292.802233 96.589623 
L 292.978964 93.963717 
L 292.978964 93.963717 
L 293.332425 134.308803 
L 293.332425 134.308803 
L 293.509156 142.153681 
L 293.509156 142.153681 
L 293.862618 169.439024 
L 293.862618 169.439024 
L 294.21608 201.673768 
L 294.21608 201.673768 
L 295.099734 236.664415 
L 295.099734 236.664415 
L 295.629926 246.668584 
L 295.629926 246.668584 
L 296.33685 263.877233 
L 296.33685 263.877233 
L 296.51358 266.140521 
L 296.51358 266.140521 
L 296.690311 270.591836 
L 296.690311 270.591836 
L 296.867042 271.557906 
L 296.867042 271.557906 
L 297.220504 277.008133 
L 297.220504 277.008133 
L 297.397235 276.988976 
L 297.397235 276.988976 
L 297.573965 278.113778 
L 297.573965 278.113778 
L 297.750696 276.715301 
L 297.750696 276.715301 
L 297.927427 276.597621 
L 297.927427 276.597621 
L 298.104158 273.882771 
L 298.104158 273.882771 
L 298.280889 273.208163 
L 298.280889 273.208163 
L 298.45762 269.720183 
L 298.45762 269.720183 
L 298.63435 268.702114 
L 298.63435 268.702114 
L 298.811081 264.766675 
L 298.987812 263.713028 
L 298.987812 263.713028 
L 299.164543 259.713276 
L 299.341274 258.937409 
L 299.341274 258.937409 
L 299.518005 255.246909 
L 299.518005 255.246909 
L 299.694735 254.706402 
L 299.694735 254.706402 
L 299.871466 251.35389 
L 299.871466 251.35389 
L 300.048197 251.260841 
L 300.048197 251.260841 
L 300.224928 248.604831 
L 300.224928 248.604831 
L 300.401659 249.175442 
L 300.401659 249.175442 
L 300.57839 247.659285 
L 300.57839 247.659285 
L 300.755121 249.157653 
L 300.755121 249.157653 
L 300.931851 248.830612 
L 300.931851 248.830612 
L 301.108582 246.830052 
L 301.108582 246.830052 
L 301.285313 252.181756 
L 301.285313 252.181756 
L 301.462044 251.780823 
L 301.462044 251.780823 
L 301.638775 258.06302 
L 301.638775 258.06302 
L 301.815506 259.822746 
L 301.815506 259.822746 
L 302.168967 272.140833 
L 302.168967 272.140833 
L 302.345698 275.813544 
L 302.345698 275.813544 
L 302.522429 289.701154 
L 302.522429 289.701154 
L 302.69916 293.057771 
L 302.69916 293.057771 
L 304.466468 150.213394 
L 304.466468 150.213394 
L 304.81993 134.780892 
L 304.81993 134.780892 
L 305.350122 125.67027 
L 305.350122 125.67027 
L 305.526853 129.400452 
L 305.526853 129.400452 
L 305.703584 129.373085 
L 305.703584 129.373085 
L 305.880315 135.444552 
L 305.880315 135.444552 
L 306.057046 136.290206 
L 306.233776 142.14684 
L 306.233776 142.14684 
L 306.410507 142.10442 
L 306.410507 142.10442 
L 306.587238 146.646047 
L 306.587238 146.646047 
L 306.763969 144.848006 
L 306.763969 144.848006 
L 306.9407 147.816006 
L 306.9407 147.816006 
L 307.117431 144.2815 
L 307.117431 144.2815 
L 307.294161 145.808604 
L 307.294161 145.808604 
L 307.470892 141.194452 
L 307.470892 141.194452 
L 307.647623 143.319535 
L 307.647623 143.319535 
L 307.824354 139.217155 
L 307.824354 139.217155 
L 308.001085 141.670646 
L 308.001085 141.670646 
L 308.177816 137.588792 
L 308.177816 137.588792 
L 308.354546 141.220452 
L 308.354546 141.220452 
L 308.531277 137.887097 
L 308.531277 137.887097 
L 308.708008 143.106068 
L 308.708008 143.106068 
L 308.884739 140.299537 
L 308.884739 140.299537 
L 309.06147 146.115119 
L 309.06147 146.115119 
L 309.238201 143.23059 
L 309.238201 143.23059 
L 309.414931 148.546716 
L 309.414931 148.546716 
L 309.591662 144.66875 
L 309.591662 144.66875 
L 309.768393 148.530296 
L 309.768393 148.530296 
L 309.945124 149.011963 
L 309.945124 149.011963 
L 310.121855 144.837059 
L 310.121855 144.837059 
L 310.298586 144.43339 
L 310.298586 144.43339 
L 310.475316 139.078949 
L 310.652047 139.94376 
L 310.828778 135.37066 
L 310.828778 135.37066 
L 311.005509 140.91941 
L 311.005509 140.91941 
L 311.18224 137.673631 
L 311.18224 137.673631 
L 311.535701 156.81579 
L 311.535701 156.81579 
L 311.712432 161.553095 
L 311.712432 161.553095 
L 312.242625 195.808925 
L 312.242625 195.808925 
L 312.419356 199.275012 
L 312.596087 213.734601 
L 312.596087 213.734601 
L 312.772817 212.028241 
L 312.772817 212.028241 
L 313.126279 229.376464 
L 313.126279 229.376464 
L 313.30301 224.811574 
L 313.30301 224.811574 
L 313.479741 227.375904 
L 313.479741 227.375904 
L 313.656472 217.928662 
L 313.656472 217.928662 
L 313.833202 220.528569 
L 313.833202 220.528569 
L 314.009933 209.619906 
L 314.009933 209.619906 
L 314.186664 214.299739 
L 314.186664 214.299739 
L 314.363395 214.73625 
L 314.363395 214.73625 
L 314.540126 209.164238 
L 314.540126 209.164238 
L 314.716857 212.611168 
L 314.716857 212.611168 
L 314.893587 208.252902 
L 314.893587 208.252902 
L 315.070318 216.096412 
L 315.070318 216.096412 
L 315.247049 212.835581 
L 315.247049 212.835581 
L 315.42378 223.830451 
L 315.42378 223.830451 
L 315.600511 220.134478 
L 315.600511 220.134478 
L 315.953972 240.536908 
L 315.953972 240.536908 
L 316.130703 241.121203 
L 316.130703 241.121203 
L 316.307434 250.010149 
L 316.307434 250.010149 
L 316.484165 248.4201 
L 316.484165 248.4201 
L 316.660896 256.771276 
L 316.660896 256.771276 
L 316.837627 252.033971 
L 316.837627 252.033971 
L 317.014357 258.658261 
L 317.014357 258.658261 
L 317.191088 260.133367 
L 317.191088 260.133367 
L 317.367819 255.365958 
L 317.367819 255.365958 
L 317.54455 256.319713 
L 317.54455 256.319713 
L 317.721281 249.93352 
L 317.721281 249.93352 
L 317.898012 251.574198 
L 317.898012 251.574198 
L 318.074742 245.268739 
L 318.074742 245.268739 
L 318.251473 247.975379 
L 318.251473 247.975379 
L 318.428204 241.873808 
L 318.428204 241.873808 
L 318.781666 247.047623 
L 318.781666 247.047623 
L 318.958397 245.344 
L 318.958397 245.344 
L 319.135127 247.674338 
L 319.135127 247.674338 
L 319.311858 246.282703 
L 319.311858 246.282703 
L 319.488589 248.632198 
L 319.488589 248.632198 
L 319.66532 246.965521 
L 319.66532 246.965521 
L 319.842051 248.658197 
L 319.842051 248.658197 
L 320.018782 245.95703 
L 320.018782 245.95703 
L 320.195512 246.717845 
L 320.195512 246.717845 
L 320.372243 242.768723 
L 320.372243 242.768723 
L 320.548974 242.46905 
L 320.548974 242.46905 
L 320.725705 237.218605 
L 320.725705 237.218605 
L 320.902436 236.456422 
L 320.902436 236.456422 
L 321.079167 229.921076 
L 321.079167 229.921076 
L 321.255897 229.384674 
L 321.255897 229.384674 
L 321.432628 227.129597 
L 321.432628 227.129597 
L 321.609359 222.668703 
L 321.609359 222.668703 
L 321.78609 221.397486 
L 321.78609 221.397486 
L 321.962821 218.218757 
L 321.962821 218.218757 
L 322.139552 218.697687 
L 322.139552 218.697687 
L 322.316282 217.096692 
L 322.316282 217.096692 
L 322.493013 218.960415 
L 322.493013 218.960415 
L 322.669744 218.937152 
L 322.669744 218.937152 
L 322.846475 217.582464 
L 322.846475 217.582464 
L 323.023206 224.446219 
L 323.023206 224.446219 
L 323.199937 224.446219 
L 323.199937 224.446219 
L 323.376667 232.024264 
L 323.376667 232.024264 
L 323.553398 233.420004 
L 323.553398 233.420004 
L 323.730129 241.520768 
L 323.730129 241.520768 
L 323.90686 244.157621 
L 323.90686 244.157621 
L 324.437053 264.525842 
L 324.437053 264.525842 
L 324.790514 278.391557 
L 324.790514 278.391557 
L 325.143976 290.916268 
L 325.143976 290.916268 
L 325.320707 289.406954 
L 325.320707 289.406954 
L 325.850899 263.424302 
L 325.850899 263.424302 
L 326.911284 218.339174 
L 326.911284 218.339174 
L 327.264746 211.175745 
L 327.264746 211.175745 
L 327.618208 208.020279 
L 327.618208 208.020279 
L 327.794938 207.864284 
L 327.794938 207.864284 
L 327.971669 208.37195 
L 327.971669 208.37195 
L 328.325131 211.888667 
L 328.325131 211.888667 
L 328.678593 218.16539 
L 328.678593 218.16539 
L 329.208785 233.786728 
L 329.208785 233.786728 
L 329.738978 258.972987 
L 329.738978 258.972987 
L 330.445901 295.488 
L 330.445901 295.488 
L 330.622632 272.404929 
L 330.622632 272.404929 
L 331.683017 228.937217 
L 331.683017 228.937217 
L 331.859748 227.52232 
L 331.859748 227.52232 
L 332.213209 215.372543 
L 332.213209 215.372543 
L 332.38994 219.038412 
L 332.38994 219.038412 
L 332.566671 212.916315 
L 332.566671 212.916315 
L 332.743402 216.749125 
L 332.743402 216.749125 
L 332.920133 212.000874 
L 332.920133 212.000874 
L 333.096863 216.037572 
L 333.096863 216.037572 
L 333.273594 212.564643 
L 333.273594 212.564643 
L 333.450325 216.647866 
L 333.450325 216.647866 
L 333.627056 214.688357 
L 333.627056 214.688357 
L 333.803787 218.941257 
L 333.803787 218.941257 
L 333.980518 218.402119 
L 333.980518 218.402119 
L 334.157248 222.299243 
L 334.157248 222.299243 
L 334.333979 222.140512 
L 334.333979 222.140512 
L 334.51071 224.737682 
L 334.51071 224.737682 
L 334.687441 223.766138 
L 334.687441 223.766138 
L 334.864172 224.744524 
L 334.864172 224.744524 
L 335.040903 222.935536 
L 335.040903 222.935536 
L 335.217633 218.125708 
L 335.217633 218.125708 
L 335.394364 222.415555 
L 335.394364 222.415555 
L 335.571095 217.997081 
L 335.571095 217.997081 
L 335.747826 222.477131 
L 335.747826 222.477131 
L 335.924557 217.835613 
L 335.924557 217.835613 
L 336.101288 222.100829 
L 336.101288 222.100829 
L 336.278019 217.498993 
L 336.278019 217.498993 
L 336.454749 221.374223 
L 336.454749 221.374223 
L 336.63148 216.825754 
L 336.63148 216.825754 
L 336.808211 220.204265 
L 336.808211 220.204265 
L 336.984942 216.300299 
L 337.161673 219.734913 
L 337.161673 219.734913 
L 337.338404 217.100797 
L 337.338404 217.100797 
L 337.515134 220.92266 
L 337.515134 220.92266 
L 337.691865 220.061954 
L 337.691865 220.061954 
L 337.868596 225.02504 
L 337.868596 225.02504 
L 338.045327 226.798451 
L 338.222058 226.501514 
L 338.222058 226.501514 
L 338.398789 237.674273 
L 338.398789 237.674273 
L 338.575519 240.469858 
L 338.575519 240.469858 
L 339.105712 272.173674 
L 339.105712 272.173674 
L 339.459174 294.483615 
L 339.459174 294.483615 
L 339.812635 272.833229 
L 339.812635 272.833229 
L 341.049751 200.306764 
L 341.049751 200.306764 
L 341.579944 182.084151 
L 341.579944 182.084151 
L 341.756674 176.706449 
L 341.756674 176.706449 
L 341.933405 176.503929 
L 341.933405 176.503929 
L 342.110136 174.035386 
L 342.110136 174.035386 
L 342.286867 175.71301 
L 342.286867 175.71301 
L 342.463598 175.563858 
L 342.463598 175.563858 
L 342.640329 173.791816 
L 342.640329 173.791816 
L 342.817059 180.188956 
L 342.817059 180.188956 
L 342.99379 180.169799 
L 342.99379 180.169799 
L 343.170521 186.583359 
L 343.170521 186.583359 
L 343.347252 187.892892 
L 343.347252 187.892892 
L 343.700714 196.725734 
L 343.700714 196.725734 
L 343.877444 196.142808 
L 343.877444 196.142808 
L 344.054175 207.378512 
L 344.054175 207.378512 
L 344.230906 208.727727 
L 344.230906 208.727727 
L 344.407637 220.14132 
L 344.407637 220.14132 
L 344.584368 223.809926 
L 344.584368 223.809926 
L 344.937829 245.016959 
L 344.937829 245.016959 
L 345.11456 250.926958 
L 345.11456 250.926958 
L 345.468022 286.828941 
L 345.468022 286.828941 
L 345.644753 279.72572 
L 345.644753 279.72572 
L 346.174945 220.07427 
L 346.174945 220.07427 
L 347.412061 88.260341 
L 347.412061 88.260341 
L 347.588792 75.738367 
L 347.588792 75.738367 
L 347.765523 74.787348 
L 347.765523 74.787348 
L 347.942254 72.201125 
L 347.942254 72.201125 
L 348.118985 71.415679 
L 350.769947 274.097605 
L 350.769947 274.097605 
L 351.30014 295.488 
L 351.30014 295.488 
L 351.47687 290.368919 
L 351.47687 290.368919 
L 351.653601 280.147179 
L 351.653601 280.147179 
L 351.830332 277.861997 
L 351.830332 277.861997 
L 352.007063 270.067749 
L 352.007063 270.067749 
L 352.183794 268.773269 
L 352.183794 268.773269 
L 352.360525 263.494089 
L 352.360525 263.494089 
L 352.537255 263.214941 
L 352.537255 263.214941 
L 352.713986 260.036212 
L 352.890717 260.513774 
L 352.890717 260.513774 
L 353.067448 263.514614 
L 353.067448 263.514614 
L 353.244179 259.524441 
L 353.244179 259.524441 
L 353.42091 262.462336 
L 353.42091 262.462336 
L 353.59764 259.784432 
L 353.59764 259.784432 
L 353.774371 262.396654 
L 353.774371 262.396654 
L 353.951102 260.32357 
L 353.951102 260.32357 
L 354.127833 262.121612 
L 354.127833 262.121612 
L 354.304564 266.026946 
L 354.304564 266.026946 
L 354.481295 261.765835 
L 354.481295 261.765835 
L 354.658025 264.928143 
L 354.658025 264.928143 
L 354.834756 261.403216 
L 354.834756 261.403216 
L 355.011487 263.596717 
L 355.011487 263.596717 
L 355.188218 260.516511 
L 355.188218 260.516511 
L 355.364949 261.578368 
L 355.364949 261.578368 
L 355.54168 264.353427 
L 355.54168 264.353427 
L 355.71841 258.834781 
L 355.71841 258.834781 
L 355.895141 260.545247 
L 355.895141 260.545247 
L 356.071872 255.935201 
L 356.071872 255.935201 
L 356.248603 256.609808 
L 356.248603 256.609808 
L 356.425334 252.657949 
L 356.425334 252.657949 
L 356.602065 252.336382 
L 356.602065 252.336382 
L 356.778795 253.515919 
L 356.778795 253.515919 
L 356.955526 248.043798 
L 356.955526 248.043798 
L 357.132257 248.358524 
L 357.132257 248.358524 
L 357.308988 244.018047 
L 357.308988 244.018047 
L 357.485719 243.797739 
L 357.485719 243.797739 
L 357.66245 240.798267 
L 357.66245 240.798267 
L 357.83918 240.331652 
L 357.83918 240.331652 
L 358.015911 241.285408 
L 358.015911 241.285408 
L 358.192642 238.782655 
L 358.192642 238.782655 
L 358.369373 239.874616 
L 358.369373 239.874616 
L 358.546104 239.034435 
L 358.722835 240.353546 
L 358.722835 240.353546 
L 358.899565 242.823458 
L 358.899565 242.823458 
L 359.076296 243.108079 
L 359.076296 243.108079 
L 359.606489 252.511533 
L 359.606489 252.511533 
L 360.313412 272.819546 
L 360.313412 272.819546 
L 360.490143 274.605271 
L 360.490143 274.605271 
L 360.843605 284.955639 
L 360.843605 284.955639 
L 361.020336 285.193736 
L 361.020336 285.193736 
L 361.197066 289.434321 
L 361.197066 289.434321 
L 361.373797 290.207452 
L 361.373797 290.207452 
L 361.727259 295.312848 
L 361.727259 295.312848 
L 361.90399 294.411091 
L 361.90399 294.411091 
L 362.080721 295.207484 
L 362.080721 295.207484 
L 362.610913 292.896303 
L 362.610913 292.896303 
L 362.787644 293.020825 
L 362.787644 293.020825 
L 362.964375 288.450462 
L 362.964375 288.450462 
L 363.141106 295.488 
L 363.141106 295.488 
L 363.494567 279.628566 
L 363.494567 279.628566 
L 363.848029 274.365806 
L 363.848029 274.365806 
L 364.201491 262.875585 
L 364.201491 262.875585 
L 364.378221 259.064668 
L 364.378221 259.064668 
L 364.731683 245.326211 
L 364.731683 245.326211 
L 364.908414 240.469858 
L 364.908414 240.469858 
L 365.261876 226.402991 
L 365.261876 226.402991 
L 365.615337 212.977891 
L 365.615337 212.977891 
L 367.559376 149.024278 
L 367.559376 149.024278 
L 368.089569 138.360554 
L 368.089569 138.360554 
L 368.443031 135.122985 
L 368.443031 135.122985 
L 368.619761 134.867099 
L 368.619761 134.867099 
L 368.796492 135.584126 
L 368.796492 135.584126 
L 369.149954 139.905446 
L 369.149954 139.905446 
L 369.503416 148.08147 
L 369.503416 148.08147 
L 370.210339 173.382672 
L 370.210339 173.382672 
L 371.800917 235.025105 
L 371.800917 235.025105 
L 373.214763 282.406361 
L 373.214763 282.406361 
L 373.391494 295.488 
L 373.391494 295.488 
L 373.568225 292.477581 
L 373.568225 292.477581 
L 373.744956 294.159311 
L 373.744956 294.159311 
L 374.098417 287.355764 
L 374.098417 287.355764 
L 374.275148 295.488 
L 374.275148 295.488 
L 374.451879 283.506533 
L 374.451879 283.506533 
L 374.805341 281.849434 
L 374.805341 281.849434 
L 374.982072 281.609969 
L 374.982072 281.609969 
L 375.158802 281.629126 
L 375.158802 281.629126 
L 375.512264 281.879538 
L 375.512264 281.879538 
L 375.688995 281.860381 
L 375.688995 281.860381 
L 375.865726 281.527867 
L 375.865726 281.527867 
L 376.395918 279.033324 
L 376.395918 279.033324 
L 377.102842 275.404401 
L 377.102842 275.404401 
L 377.279572 275.058203 
L 377.279572 275.058203 
L 377.456303 275.309983 
L 377.456303 275.309983 
L 377.809765 277.114866 
L 377.809765 277.114866 
L 378.163227 280.178651 
L 378.163227 280.178651 
L 378.516688 284.294715 
L 378.516688 284.294715 
L 378.693419 295.488 
L 378.693419 295.488 
L 378.87015 288.332782 
L 378.87015 288.332782 
L 379.577073 295.488 
L 379.577073 295.488 
L 379.753804 293.294499 
L 379.753804 293.294499 
L 380.107266 293.416284 
L 380.107266 293.416284 
L 380.283997 293.328709 
L 380.283997 293.328709 
L 380.460727 295.488 
L 380.460727 295.488 
L 380.637458 293.524386 
L 380.637458 293.524386 
L 380.814189 294.082682 
L 380.814189 294.082682 
L 380.99092 295.229378 
L 380.99092 295.229378 
L 381.167651 294.490457 
L 381.167651 294.490457 
L 381.344382 295.488 
L 381.344382 295.488 
L 381.697843 289.456215 
L 381.697843 289.456215 
L 382.051305 285.549512 
L 382.051305 285.549512 
L 382.228036 295.488 
L 382.228036 295.488 
L 382.404767 282.446044 
L 382.404767 282.446044 
L 382.758228 280.871048 
L 382.758228 280.871048 
L 382.934959 280.928519 
L 382.934959 280.928519 
L 383.11169 281.273349 
L 383.11169 281.273349 
L 383.465152 282.737508 
L 383.465152 282.737508 
L 383.818613 284.614914 
L 383.818613 284.614914 
L 383.995344 295.488 
L 383.995344 295.488 
L 384.172075 286.043495 
L 384.172075 286.043495 
L 384.348806 286.258329 
L 384.348806 286.258329 
L 384.525537 286.241909 
L 384.525537 286.241909 
L 384.702268 286.110545 
L 384.702268 286.110545 
L 384.878998 295.488 
L 384.878998 295.488 
L 385.055729 285.481094 
L 385.055729 285.481094 
L 385.409191 284.905009 
L 385.409191 284.905009 
L 385.585922 284.932377 
L 385.585922 284.932377 
L 385.762653 295.488 
L 385.939383 285.98055 
L 385.939383 285.98055 
L 386.469576 288.765187 
L 386.469576 288.765187 
L 386.646307 295.488 
L 386.646307 295.488 
L 386.823038 290.79722 
L 386.823038 290.79722 
L 387.176499 292.031492 
L 387.176499 292.031492 
L 387.35323 292.162855 
L 387.35323 292.162855 
L 387.529961 295.488 
L 387.529961 295.488 
L 387.706692 291.897391 
L 387.706692 291.897391 
L 388.236884 291.062684 
L 388.236884 291.062684 
L 388.413615 295.488 
L 388.413615 295.488 
L 388.590346 291.298044 
L 388.590346 291.298044 
L 388.943808 292.463897 
L 388.943808 292.463897 
L 389.120538 293.220607 
L 389.120538 293.220607 
L 389.297269 295.488 
L 389.297269 295.488 
L 389.474 294.922862 
L 389.474 294.922862 
L 389.650731 295.284113 
L 389.650731 295.284113 
L 390.004193 294.354988 
L 390.004193 294.354988 
L 390.180923 295.488 
L 390.180923 295.488 
L 390.357654 294.894126 
L 390.357654 294.894126 
L 390.534385 295.459264 
L 390.534385 295.459264 
L 390.887847 294.118259 
L 390.887847 294.118259 
L 391.064578 295.488 
L 391.064578 295.488 
L 391.241308 292.770413 
L 391.241308 292.770413 
L 391.418039 292.433793 
L 391.418039 292.433793 
L 391.59477 292.573367 
L 391.59477 292.573367 
L 391.771501 292.959248 
L 391.771501 292.959248 
L 391.948232 295.488 
L 391.948232 295.488 
L 392.124963 294.276991 
L 392.124963 294.276991 
L 392.301693 295.180116 
L 392.301693 295.180116 
L 392.478424 294.746342 
L 392.478424 294.746342 
L 392.655155 293.791218 
L 392.655155 293.791218 
L 392.831886 295.488 
L 392.831886 295.488 
L 393.008617 292.461161 
L 393.008617 292.461161 
L 393.185348 292.313376 
L 393.185348 292.313376 
L 393.362078 292.355796 
L 393.362078 292.355796 
L 393.538809 292.577472 
L 393.538809 292.577472 
L 393.71554 295.488 
L 393.71554 295.488 
L 393.892271 293.349234 
L 393.892271 293.349234 
L 394.245733 293.910267 
L 394.245733 293.910267 
L 394.422464 293.859637 
L 394.422464 293.859637 
L 394.599194 295.488 
L 394.599194 295.488 
L 394.775925 293.339656 
L 394.775925 293.339656 
L 395.306118 292.020545 
L 395.306118 292.020545 
L 395.482849 295.488 
L 395.482849 295.488 
L 395.659579 291.600454 
L 395.659579 291.600454 
L 396.013041 292.223064 
L 396.013041 292.223064 
L 396.189772 292.737572 
L 396.189772 292.737572 
L 396.366503 295.488 
L 396.366503 295.488 
L 396.543234 294.246886 
L 396.543234 294.246886 
L 396.719964 295.070646 
L 396.719964 295.070646 
L 397.073426 291.295307 
L 397.073426 291.295307 
L 397.250157 295.488 
L 397.250157 295.488 
L 397.426888 287.329765 
L 397.426888 287.329765 
L 397.603619 286.45127 
L 397.603619 286.45127 
L 397.95708 282.711508 
L 397.95708 282.711508 
L 398.133811 295.488 
L 398.133811 295.488 
L 398.310542 292.763571 
L 398.310542 292.763571 
L 398.487273 240.14008 
L 398.487273 240.14008 
" clip-path="url(#p0b3f617008)" style="fill: none; stroke: #1f77b4; stroke-width: 1.5; stroke-linecap: square"/>
   </g>
   <g id="patch_3">
    <path d="M 57.6 307.584 
L 57.6 41.472 
" style="fill: none; stroke: #000000; stroke-width: 0.8; stroke-linejoin: miter; stroke-linecap: square"/>
   </g>
   <g id="patch_4">
    <path d="M 414.72 307.584 
L 414.72 41.472 
" style="fill: none; stroke: #000000; stroke-width: 0.8; stroke-linejoin: miter; stroke-linecap: square"/>
   </g>
   <g id="patch_5">
    <path d="M 57.6 307.584 
L 414.72 307.584 
" style="fill: none; stroke: #000000; stroke-width: 0.8; stroke-linejoin: miter; stroke-linecap: square"/>
   </g>
   <g id="patch_6">
    <path d="M 57.6 41.472 
L 414.72 41.472 
" style="fill: none; stroke: #000000; stroke-width: 0.8; stroke-linejoin: miter; stroke-linecap: square"/>
   </g>
   <g id="text_19">
    <!-- Tracking error vs Time -->
    <g transform="translate(169.584375 35.472) scale(0.12 -0.12)">
     <defs>
      <path id="DejaVuSans-76" d="M 191 3500 
L 800 3500 
L 1894 563 
L 2988 3500 
L 3597 3500 
L 2284 0 
L 1503 0 
L 191 3500 
z
" transform="scale(0.015625)"/>
     </defs>
     <use xlink:href="#DejaVuSans-54"/>
     <use xlink:href="#DejaVuSans-72" x="46.333984"/>
     <use xlink:href="#DejaVuSans-61" x="87.447266"/>
     <use xlink:href="#DejaVuSans-63" x="148.726562"/>
     <use xlink:href="#DejaVuSans-6b" x="203.707031"/>
     <use xlink:href="#DejaVuSans-69" x="261.617188"/>
     <use xlink:href="#DejaVuSans-6e" x="289.400391"/>
     <use xlink:href="#DejaVuSans-67" x="352.779297"/>
     <use xlink:href="#DejaVuSans-20" x="416.255859"/>
     <use xlink:href="#DejaVuSans-65" x="448.042969"/>
     <use xlink:href="#DejaVuSans-72" x="509.566406"/>
     <use xlink:href="#DejaVuSans-72" x="548.929688"/>
     <use xlink:href="#DejaVuSans-6f" x="587.792969"/>
     <use xlink:href="#DejaVuSans-72" x="648.974609"/>
     <use xlink:href="#DejaVuSans-20" x="690.087891"/>
     <use xlink:href="#DejaVuSans-76" x="721.875"/>
     <use xlink:href="#DejaVuSans-73" x="781.054688"/>
     <use xlink:href="#DejaVuSans-20" x="833.154297"/>
     <use xlink:href="#DejaVuSans-54" x="864.941406"/>
     <use xlink:href="#DejaVuSans-69" x="922.900391"/>
     <use xlink:href="#DejaVuSans-6d" x="950.683594"/>
     <use xlink:href="#DejaVuSans-65" x="1048.095703"/>
    </g>
   </g>
   <g id="legend_1">
    <g id="patch_7">
     <path d="M 311.00125 64.150125 
L 407.72 64.150125 
Q 409.72 64.150125 409.72 62.150125 
L 409.72 48.472 
Q 409.72 46.472 407.72 46.472 
L 311.00125 46.472 
Q 309.00125 46.472 309.00125 48.472 
L 309.00125 62.150125 
Q 309.00125 64.150125 311.00125 64.150125 
z
" style="fill: #ffffff; opacity: 0.8; stroke: #cccccc; stroke-linejoin: miter"/>
    </g>
    <g id="line2d_34">
     <path d="M 313.00125 54.570438 
L 323.00125 54.570438 
L 333.00125 54.570438 
" style="fill: none; stroke: #1f77b4; stroke-width: 1.5; stroke-linecap: square"/>
    </g>
    <g id="text_20">
     <!-- Actual speed -->
     <g transform="translate(341.00125 58.070438) scale(0.1 -0.1)">
      <defs>
       <path id="DejaVuSans-41" d="M 2188 4044 
L 1331 1722 
L 3047 1722 
L 2188 4044 
z
M 1831 4666 
L 2547 4666 
L 4325 0 
L 3669 0 
L 3244 1197 
L 1141 1197 
L 716 0 
L 50 0 
L 1831 4666 
z
" transform="scale(0.015625)"/>
       <path id="DejaVuSans-74" d="M 1172 4494 
L 1172 3500 
L 2356 3500 
L 2356 3053 
L 1172 3053 
L 1172 1153 
Q 1172 725 1289 603 
Q 1406 481 1766 481 
L 2356 481 
L 2356 0 
L 1766 0 
Q 1100 0 847 248 
Q 594 497 594 1153 
L 594 3053 
L 172 3053 
L 172 3500 
L 594 3500 
L 594 4494 
L 1172 4494 
z
" transform="scale(0.015625)"/>
       <path id="DejaVuSans-75" d="M 544 1381 
L 544 3500 
L 1119 3500 
L 1119 1403 
Q 1119 906 1312 657 
Q 1506 409 1894 409 
Q 2359 409 2629 706 
Q 2900 1003 2900 1516 
L 2900 3500 
L 3475 3500 
L 3475 0 
L 2900 0 
L 2900 538 
Q 2691 219 2414 64 
Q 2138 -91 1772 -91 
Q 1169 -91 856 284 
Q 544 659 544 1381 
z
M 1991 3584 
L 1991 3584 
z
" transform="scale(0.015625)"/>
       <path id="DejaVuSans-6c" d="M 603 4863 
L 1178 4863 
L 1178 0 
L 603 0 
L 603 4863 
z
" transform="scale(0.015625)"/>
       <path id="DejaVuSans-70" d="M 1159 525 
L 1159 -1331 
L 581 -1331 
L 581 3500 
L 1159 3500 
L 1159 2969 
Q 1341 3281 1617 3432 
Q 1894 3584 2278 3584 
Q 2916 3584 3314 3078 
Q 3713 2572 3713 1747 
Q 3713 922 3314 415 
Q 2916 -91 2278 -91 
Q 1894 -91 1617 61 
Q 1341 213 1159 525 
z
M 3116 1747 
Q 3116 2381 2855 2742 
Q 2594 3103 2138 3103 
Q 1681 3103 1420 2742 
Q 1159 2381 1159 1747 
Q 1159 1113 1420 752 
Q 1681 391 2138 391 
Q 2594 391 2855 752 
Q 3116 1113 3116 1747 
z
" transform="scale(0.015625)"/>
       <path id="DejaVuSans-64" d="M 2906 2969 
L 2906 4863 
L 3481 4863 
L 3481 0 
L 2906 0 
L 2906 525 
Q 2725 213 2448 61 
Q 2172 -91 1784 -91 
Q 1150 -91 751 415 
Q 353 922 353 1747 
Q 353 2572 751 3078 
Q 1150 3584 1784 3584 
Q 2172 3584 2448 3432 
Q 2725 3281 2906 2969 
z
M 947 1747 
Q 947 1113 1208 752 
Q 1469 391 1925 391 
Q 2381 391 2643 752 
Q 2906 1113 2906 1747 
Q 2906 2381 2643 2742 
Q 2381 3103 1925 3103 
Q 1469 3103 1208 2742 
Q 947 2381 947 1747 
z
" transform="scale(0.015625)"/>
      </defs>
      <use xlink:href="#DejaVuSans-41"/>
      <use xlink:href="#DejaVuSans-63" x="66.658203"/>
      <use xlink:href="#DejaVuSans-74" x="121.638672"/>
      <use xlink:href="#DejaVuSans-75" x="160.847656"/>
      <use xlink:href="#DejaVuSans-61" x="224.226562"/>
      <use xlink:href="#DejaVuSans-6c" x="285.505859"/>
      <use xlink:href="#DejaVuSans-20" x="313.289062"/>
      <use xlink:href="#DejaVuSans-73" x="345.076172"/>
      <use xlink:href="#DejaVuSans-70" x="397.175781"/>
      <use xlink:href="#DejaVuSans-65" x="460.652344"/>
      <use xlink:href="#DejaVuSans-65" x="522.175781"/>
      <use xlink:href="#DejaVuSans-64" x="583.699219"/>
     </g>
    </g>
   </g>
  </g>
 </g>
 <defs>
  <clipPath id="p0b3f617008">
   <rect x="57.6" y="41.472" width="357.12" height="266.112"/>
  </clipPath>
 </defs>
</svg>
