<?xml version="1.0" encoding="utf-8" standalone="no"?>
<!DOCTYPE svg PUBLIC "-//W3C//DTD SVG 1.1//EN"
  "http://www.w3.org/Graphics/SVG/1.1/DTD/svg11.dtd">
<svg xmlns:xlink="http://www.w3.org/1999/xlink" width="460.8pt" height="345.6pt" viewBox="0 0 460.8 345.6" xmlns="http://www.w3.org/2000/svg" version="1.1">
 <metadata>
  <rdf:RDF xmlns:dc="http://purl.org/dc/elements/1.1/" xmlns:cc="http://creativecommons.org/ns#" xmlns:rdf="http://www.w3.org/1999/02/22-rdf-syntax-ns#">
   <cc:Work>
    <dc:type rdf:resource="http://purl.org/dc/dcmitype/StillImage"/>
    <dc:date>2024-01-30T20:58:41.245430</dc:date>
    <dc:format>image/svg+xml</dc:format>
    <dc:creator>
     <cc:Agent>
      <dc:title>Matplotlib v3.7.1, https://matplotlib.org/</dc:title>
     </cc:Agent>
    </dc:creator>
   </cc:Work>
  </rdf:RDF>
 </metadata>
 <defs>
  <style type="text/css">*{stroke-linejoin: round; stroke-linecap: butt}</style>
 </defs>
 <g id="figure_1">
  <g id="patch_1">
   <path d="M 0 345.6 
L 460.8 345.6 
L 460.8 0 
L 0 0 
z
" style="fill: #ffffff"/>
  </g>
  <g id="axes_1">
   <g id="patch_2">
    <path d="M 57.6 307.584 
L 414.72 307.584 
L 414.72 41.472 
L 57.6 41.472 
z
" style="fill: #ffffff"/>
   </g>
   <g id="matplotlib.axis_1">
    <g id="xtick_1">
     <g id="line2d_1">
      <path d="M 73.832727 307.584 
L 73.832727 41.472 
" clip-path="url(#p5576e6abf6)" style="fill: none; stroke: #b0b0b0; stroke-width: 0.8; stroke-linecap: square"/>
     </g>
     <g id="line2d_2">
      <defs>
       <path id="m42a658c65f" d="M 0 0 
L 0 3.5 
" style="stroke: #000000; stroke-width: 0.8"/>
      </defs>
      <g>
       <use xlink:href="#m42a658c65f" x="73.832727" y="307.584" style="stroke: #000000; stroke-width: 0.8"/>
      </g>
     </g>
     <g id="text_1">
      <!-- 0 -->
      <g transform="translate(70.651477 322.182437) scale(0.1 -0.1)">
       <defs>
        <path id="DejaVuSans-30" d="M 2034 4250 
Q 1547 4250 1301 3770 
Q 1056 3291 1056 2328 
Q 1056 1369 1301 889 
Q 1547 409 2034 409 
Q 2525 409 2770 889 
Q 3016 1369 3016 2328 
Q 3016 3291 2770 3770 
Q 2525 4250 2034 4250 
z
M 2034 4750 
Q 2819 4750 3233 4129 
Q 3647 3509 3647 2328 
Q 3647 1150 3233 529 
Q 2819 -91 2034 -91 
Q 1250 -91 836 529 
Q 422 1150 422 2328 
Q 422 3509 836 4129 
Q 1250 4750 2034 4750 
z
" transform="scale(0.015625)"/>
       </defs>
       <use xlink:href="#DejaVuSans-30"/>
      </g>
     </g>
    </g>
    <g id="xtick_2">
     <g id="line2d_3">
      <path d="M 117.991398 307.584 
L 117.991398 41.472 
" clip-path="url(#p5576e6abf6)" style="fill: none; stroke: #b0b0b0; stroke-width: 0.8; stroke-linecap: square"/>
     </g>
     <g id="line2d_4">
      <g>
       <use xlink:href="#m42a658c65f" x="117.991398" y="307.584" style="stroke: #000000; stroke-width: 0.8"/>
      </g>
     </g>
     <g id="text_2">
      <!-- 5 -->
      <g transform="translate(114.810148 322.182437) scale(0.1 -0.1)">
       <defs>
        <path id="DejaVuSans-35" d="M 691 4666 
L 3169 4666 
L 3169 4134 
L 1269 4134 
L 1269 2991 
Q 1406 3038 1543 3061 
Q 1681 3084 1819 3084 
Q 2600 3084 3056 2656 
Q 3513 2228 3513 1497 
Q 3513 744 3044 326 
Q 2575 -91 1722 -91 
Q 1428 -91 1123 -41 
Q 819 9 494 109 
L 494 744 
Q 775 591 1075 516 
Q 1375 441 1709 441 
Q 2250 441 2565 725 
Q 2881 1009 2881 1497 
Q 2881 1984 2565 2268 
Q 2250 2553 1709 2553 
Q 1456 2553 1204 2497 
Q 953 2441 691 2322 
L 691 4666 
z
" transform="scale(0.015625)"/>
       </defs>
       <use xlink:href="#DejaVuSans-35"/>
      </g>
     </g>
    </g>
    <g id="xtick_3">
     <g id="line2d_5">
      <path d="M 162.150068 307.584 
L 162.150068 41.472 
" clip-path="url(#p5576e6abf6)" style="fill: none; stroke: #b0b0b0; stroke-width: 0.8; stroke-linecap: square"/>
     </g>
     <g id="line2d_6">
      <g>
       <use xlink:href="#m42a658c65f" x="162.150068" y="307.584" style="stroke: #000000; stroke-width: 0.8"/>
      </g>
     </g>
     <g id="text_3">
      <!-- 10 -->
      <g transform="translate(155.787568 322.182437) scale(0.1 -0.1)">
       <defs>
        <path id="DejaVuSans-31" d="M 794 531 
L 1825 531 
L 1825 4091 
L 703 3866 
L 703 4441 
L 1819 4666 
L 2450 4666 
L 2450 531 
L 3481 531 
L 3481 0 
L 794 0 
L 794 531 
z
" transform="scale(0.015625)"/>
       </defs>
       <use xlink:href="#DejaVuSans-31"/>
       <use xlink:href="#DejaVuSans-30" x="63.623047"/>
      </g>
     </g>
    </g>
    <g id="xtick_4">
     <g id="line2d_7">
      <path d="M 206.308739 307.584 
L 206.308739 41.472 
" clip-path="url(#p5576e6abf6)" style="fill: none; stroke: #b0b0b0; stroke-width: 0.8; stroke-linecap: square"/>
     </g>
     <g id="line2d_8">
      <g>
       <use xlink:href="#m42a658c65f" x="206.308739" y="307.584" style="stroke: #000000; stroke-width: 0.8"/>
      </g>
     </g>
     <g id="text_4">
      <!-- 15 -->
      <g transform="translate(199.946239 322.182437) scale(0.1 -0.1)">
       <use xlink:href="#DejaVuSans-31"/>
       <use xlink:href="#DejaVuSans-35" x="63.623047"/>
      </g>
     </g>
    </g>
    <g id="xtick_5">
     <g id="line2d_9">
      <path d="M 250.467409 307.584 
L 250.467409 41.472 
" clip-path="url(#p5576e6abf6)" style="fill: none; stroke: #b0b0b0; stroke-width: 0.8; stroke-linecap: square"/>
     </g>
     <g id="line2d_10">
      <g>
       <use xlink:href="#m42a658c65f" x="250.467409" y="307.584" style="stroke: #000000; stroke-width: 0.8"/>
      </g>
     </g>
     <g id="text_5">
      <!-- 20 -->
      <g transform="translate(244.104909 322.182437) scale(0.1 -0.1)">
       <defs>
        <path id="DejaVuSans-32" d="M 1228 531 
L 3431 531 
L 3431 0 
L 469 0 
L 469 531 
Q 828 903 1448 1529 
Q 2069 2156 2228 2338 
Q 2531 2678 2651 2914 
Q 2772 3150 2772 3378 
Q 2772 3750 2511 3984 
Q 2250 4219 1831 4219 
Q 1534 4219 1204 4116 
Q 875 4013 500 3803 
L 500 4441 
Q 881 4594 1212 4672 
Q 1544 4750 1819 4750 
Q 2544 4750 2975 4387 
Q 3406 4025 3406 3419 
Q 3406 3131 3298 2873 
Q 3191 2616 2906 2266 
Q 2828 2175 2409 1742 
Q 1991 1309 1228 531 
z
" transform="scale(0.015625)"/>
       </defs>
       <use xlink:href="#DejaVuSans-32"/>
       <use xlink:href="#DejaVuSans-30" x="63.623047"/>
      </g>
     </g>
    </g>
    <g id="xtick_6">
     <g id="line2d_11">
      <path d="M 294.62608 307.584 
L 294.62608 41.472 
" clip-path="url(#p5576e6abf6)" style="fill: none; stroke: #b0b0b0; stroke-width: 0.8; stroke-linecap: square"/>
     </g>
     <g id="line2d_12">
      <g>
       <use xlink:href="#m42a658c65f" x="294.62608" y="307.584" style="stroke: #000000; stroke-width: 0.8"/>
      </g>
     </g>
     <g id="text_6">
      <!-- 25 -->
      <g transform="translate(288.26358 322.182437) scale(0.1 -0.1)">
       <use xlink:href="#DejaVuSans-32"/>
       <use xlink:href="#DejaVuSans-35" x="63.623047"/>
      </g>
     </g>
    </g>
    <g id="xtick_7">
     <g id="line2d_13">
      <path d="M 338.78475 307.584 
L 338.78475 41.472 
" clip-path="url(#p5576e6abf6)" style="fill: none; stroke: #b0b0b0; stroke-width: 0.8; stroke-linecap: square"/>
     </g>
     <g id="line2d_14">
      <g>
       <use xlink:href="#m42a658c65f" x="338.78475" y="307.584" style="stroke: #000000; stroke-width: 0.8"/>
      </g>
     </g>
     <g id="text_7">
      <!-- 30 -->
      <g transform="translate(332.42225 322.182437) scale(0.1 -0.1)">
       <defs>
        <path id="DejaVuSans-33" d="M 2597 2516 
Q 3050 2419 3304 2112 
Q 3559 1806 3559 1356 
Q 3559 666 3084 287 
Q 2609 -91 1734 -91 
Q 1441 -91 1130 -33 
Q 819 25 488 141 
L 488 750 
Q 750 597 1062 519 
Q 1375 441 1716 441 
Q 2309 441 2620 675 
Q 2931 909 2931 1356 
Q 2931 1769 2642 2001 
Q 2353 2234 1838 2234 
L 1294 2234 
L 1294 2753 
L 1863 2753 
Q 2328 2753 2575 2939 
Q 2822 3125 2822 3475 
Q 2822 3834 2567 4026 
Q 2313 4219 1838 4219 
Q 1578 4219 1281 4162 
Q 984 4106 628 3988 
L 628 4550 
Q 988 4650 1302 4700 
Q 1616 4750 1894 4750 
Q 2613 4750 3031 4423 
Q 3450 4097 3450 3541 
Q 3450 3153 3228 2886 
Q 3006 2619 2597 2516 
z
" transform="scale(0.015625)"/>
       </defs>
       <use xlink:href="#DejaVuSans-33"/>
       <use xlink:href="#DejaVuSans-30" x="63.623047"/>
      </g>
     </g>
    </g>
    <g id="xtick_8">
     <g id="line2d_15">
      <path d="M 382.943421 307.584 
L 382.943421 41.472 
" clip-path="url(#p5576e6abf6)" style="fill: none; stroke: #b0b0b0; stroke-width: 0.8; stroke-linecap: square"/>
     </g>
     <g id="line2d_16">
      <g>
       <use xlink:href="#m42a658c65f" x="382.943421" y="307.584" style="stroke: #000000; stroke-width: 0.8"/>
      </g>
     </g>
     <g id="text_8">
      <!-- 35 -->
      <g transform="translate(376.580921 322.182437) scale(0.1 -0.1)">
       <use xlink:href="#DejaVuSans-33"/>
       <use xlink:href="#DejaVuSans-35" x="63.623047"/>
      </g>
     </g>
    </g>
    <g id="text_9">
     <!-- Time(s) -->
     <g transform="translate(217.420156 335.860562) scale(0.1 -0.1)">
      <defs>
       <path id="DejaVuSans-54" d="M -19 4666 
L 3928 4666 
L 3928 4134 
L 2272 4134 
L 2272 0 
L 1638 0 
L 1638 4134 
L -19 4134 
L -19 4666 
z
" transform="scale(0.015625)"/>
       <path id="DejaVuSans-69" d="M 603 3500 
L 1178 3500 
L 1178 0 
L 603 0 
L 603 3500 
z
M 603 4863 
L 1178 4863 
L 1178 4134 
L 603 4134 
L 603 4863 
z
" transform="scale(0.015625)"/>
       <path id="DejaVuSans-6d" d="M 3328 2828 
Q 3544 3216 3844 3400 
Q 4144 3584 4550 3584 
Q 5097 3584 5394 3201 
Q 5691 2819 5691 2113 
L 5691 0 
L 5113 0 
L 5113 2094 
Q 5113 2597 4934 2840 
Q 4756 3084 4391 3084 
Q 3944 3084 3684 2787 
Q 3425 2491 3425 1978 
L 3425 0 
L 2847 0 
L 2847 2094 
Q 2847 2600 2669 2842 
Q 2491 3084 2119 3084 
Q 1678 3084 1418 2786 
Q 1159 2488 1159 1978 
L 1159 0 
L 581 0 
L 581 3500 
L 1159 3500 
L 1159 2956 
Q 1356 3278 1631 3431 
Q 1906 3584 2284 3584 
Q 2666 3584 2933 3390 
Q 3200 3197 3328 2828 
z
" transform="scale(0.015625)"/>
       <path id="DejaVuSans-65" d="M 3597 1894 
L 3597 1613 
L 953 1613 
Q 991 1019 1311 708 
Q 1631 397 2203 397 
Q 2534 397 2845 478 
Q 3156 559 3463 722 
L 3463 178 
Q 3153 47 2828 -22 
Q 2503 -91 2169 -91 
Q 1331 -91 842 396 
Q 353 884 353 1716 
Q 353 2575 817 3079 
Q 1281 3584 2069 3584 
Q 2775 3584 3186 3129 
Q 3597 2675 3597 1894 
z
M 3022 2063 
Q 3016 2534 2758 2815 
Q 2500 3097 2075 3097 
Q 1594 3097 1305 2825 
Q 1016 2553 972 2059 
L 3022 2063 
z
" transform="scale(0.015625)"/>
       <path id="DejaVuSans-28" d="M 1984 4856 
Q 1566 4138 1362 3434 
Q 1159 2731 1159 2009 
Q 1159 1288 1364 580 
Q 1569 -128 1984 -844 
L 1484 -844 
Q 1016 -109 783 600 
Q 550 1309 550 2009 
Q 550 2706 781 3412 
Q 1013 4119 1484 4856 
L 1984 4856 
z
" transform="scale(0.015625)"/>
       <path id="DejaVuSans-73" d="M 2834 3397 
L 2834 2853 
Q 2591 2978 2328 3040 
Q 2066 3103 1784 3103 
Q 1356 3103 1142 2972 
Q 928 2841 928 2578 
Q 928 2378 1081 2264 
Q 1234 2150 1697 2047 
L 1894 2003 
Q 2506 1872 2764 1633 
Q 3022 1394 3022 966 
Q 3022 478 2636 193 
Q 2250 -91 1575 -91 
Q 1294 -91 989 -36 
Q 684 19 347 128 
L 347 722 
Q 666 556 975 473 
Q 1284 391 1588 391 
Q 1994 391 2212 530 
Q 2431 669 2431 922 
Q 2431 1156 2273 1281 
Q 2116 1406 1581 1522 
L 1381 1569 
Q 847 1681 609 1914 
Q 372 2147 372 2553 
Q 372 3047 722 3315 
Q 1072 3584 1716 3584 
Q 2034 3584 2315 3537 
Q 2597 3491 2834 3397 
z
" transform="scale(0.015625)"/>
       <path id="DejaVuSans-29" d="M 513 4856 
L 1013 4856 
Q 1481 4119 1714 3412 
Q 1947 2706 1947 2009 
Q 1947 1309 1714 600 
Q 1481 -109 1013 -844 
L 513 -844 
Q 928 -128 1133 580 
Q 1338 1288 1338 2009 
Q 1338 2731 1133 3434 
Q 928 4138 513 4856 
z
" transform="scale(0.015625)"/>
      </defs>
      <use xlink:href="#DejaVuSans-54"/>
      <use xlink:href="#DejaVuSans-69" x="57.958984"/>
      <use xlink:href="#DejaVuSans-6d" x="85.742188"/>
      <use xlink:href="#DejaVuSans-65" x="183.154297"/>
      <use xlink:href="#DejaVuSans-28" x="244.677734"/>
      <use xlink:href="#DejaVuSans-73" x="283.691406"/>
      <use xlink:href="#DejaVuSans-29" x="335.791016"/>
     </g>
    </g>
   </g>
   <g id="matplotlib.axis_2">
    <g id="ytick_1">
     <g id="line2d_17">
      <path d="M 57.6 295.488 
L 414.72 295.488 
" clip-path="url(#p5576e6abf6)" style="fill: none; stroke: #b0b0b0; stroke-width: 0.8; stroke-linecap: square"/>
     </g>
     <g id="line2d_18">
      <defs>
       <path id="m57cff7395d" d="M 0 0 
L -3.5 0 
" style="stroke: #000000; stroke-width: 0.8"/>
      </defs>
      <g>
       <use xlink:href="#m57cff7395d" x="57.6" y="295.488" style="stroke: #000000; stroke-width: 0.8"/>
      </g>
     </g>
     <g id="text_10">
      <!-- 0.000 -->
      <g transform="translate(21.971875 299.287219) scale(0.1 -0.1)">
       <defs>
        <path id="DejaVuSans-2e" d="M 684 794 
L 1344 794 
L 1344 0 
L 684 0 
L 684 794 
z
" transform="scale(0.015625)"/>
       </defs>
       <use xlink:href="#DejaVuSans-30"/>
       <use xlink:href="#DejaVuSans-2e" x="63.623047"/>
       <use xlink:href="#DejaVuSans-30" x="95.410156"/>
       <use xlink:href="#DejaVuSans-30" x="159.033203"/>
       <use xlink:href="#DejaVuSans-30" x="222.65625"/>
      </g>
     </g>
    </g>
    <g id="ytick_2">
     <g id="line2d_19">
      <path d="M 57.6 261.1842 
L 414.72 261.1842 
" clip-path="url(#p5576e6abf6)" style="fill: none; stroke: #b0b0b0; stroke-width: 0.8; stroke-linecap: square"/>
     </g>
     <g id="line2d_20">
      <g>
       <use xlink:href="#m57cff7395d" x="57.6" y="261.1842" style="stroke: #000000; stroke-width: 0.8"/>
      </g>
     </g>
     <g id="text_11">
      <!-- 0.025 -->
      <g transform="translate(21.971875 264.983419) scale(0.1 -0.1)">
       <use xlink:href="#DejaVuSans-30"/>
       <use xlink:href="#DejaVuSans-2e" x="63.623047"/>
       <use xlink:href="#DejaVuSans-30" x="95.410156"/>
       <use xlink:href="#DejaVuSans-32" x="159.033203"/>
       <use xlink:href="#DejaVuSans-35" x="222.65625"/>
      </g>
     </g>
    </g>
    <g id="ytick_3">
     <g id="line2d_21">
      <path d="M 57.6 226.880401 
L 414.72 226.880401 
" clip-path="url(#p5576e6abf6)" style="fill: none; stroke: #b0b0b0; stroke-width: 0.8; stroke-linecap: square"/>
     </g>
     <g id="line2d_22">
      <g>
       <use xlink:href="#m57cff7395d" x="57.6" y="226.880401" style="stroke: #000000; stroke-width: 0.8"/>
      </g>
     </g>
     <g id="text_12">
      <!-- 0.050 -->
      <g transform="translate(21.971875 230.67962) scale(0.1 -0.1)">
       <use xlink:href="#DejaVuSans-30"/>
       <use xlink:href="#DejaVuSans-2e" x="63.623047"/>
       <use xlink:href="#DejaVuSans-30" x="95.410156"/>
       <use xlink:href="#DejaVuSans-35" x="159.033203"/>
       <use xlink:href="#DejaVuSans-30" x="222.65625"/>
      </g>
     </g>
    </g>
    <g id="ytick_4">
     <g id="line2d_23">
      <path d="M 57.6 192.576601 
L 414.72 192.576601 
" clip-path="url(#p5576e6abf6)" style="fill: none; stroke: #b0b0b0; stroke-width: 0.8; stroke-linecap: square"/>
     </g>
     <g id="line2d_24">
      <g>
       <use xlink:href="#m57cff7395d" x="57.6" y="192.576601" style="stroke: #000000; stroke-width: 0.8"/>
      </g>
     </g>
     <g id="text_13">
      <!-- 0.075 -->
      <g transform="translate(21.971875 196.37582) scale(0.1 -0.1)">
       <defs>
        <path id="DejaVuSans-37" d="M 525 4666 
L 3525 4666 
L 3525 4397 
L 1831 0 
L 1172 0 
L 2766 4134 
L 525 4134 
L 525 4666 
z
" transform="scale(0.015625)"/>
       </defs>
       <use xlink:href="#DejaVuSans-30"/>
       <use xlink:href="#DejaVuSans-2e" x="63.623047"/>
       <use xlink:href="#DejaVuSans-30" x="95.410156"/>
       <use xlink:href="#DejaVuSans-37" x="159.033203"/>
       <use xlink:href="#DejaVuSans-35" x="222.65625"/>
      </g>
     </g>
    </g>
    <g id="ytick_5">
     <g id="line2d_25">
      <path d="M 57.6 158.272802 
L 414.72 158.272802 
" clip-path="url(#p5576e6abf6)" style="fill: none; stroke: #b0b0b0; stroke-width: 0.8; stroke-linecap: square"/>
     </g>
     <g id="line2d_26">
      <g>
       <use xlink:href="#m57cff7395d" x="57.6" y="158.272802" style="stroke: #000000; stroke-width: 0.8"/>
      </g>
     </g>
     <g id="text_14">
      <!-- 0.100 -->
      <g transform="translate(21.971875 162.07202) scale(0.1 -0.1)">
       <use xlink:href="#DejaVuSans-30"/>
       <use xlink:href="#DejaVuSans-2e" x="63.623047"/>
       <use xlink:href="#DejaVuSans-31" x="95.410156"/>
       <use xlink:href="#DejaVuSans-30" x="159.033203"/>
       <use xlink:href="#DejaVuSans-30" x="222.65625"/>
      </g>
     </g>
    </g>
    <g id="ytick_6">
     <g id="line2d_27">
      <path d="M 57.6 123.969002 
L 414.72 123.969002 
" clip-path="url(#p5576e6abf6)" style="fill: none; stroke: #b0b0b0; stroke-width: 0.8; stroke-linecap: square"/>
     </g>
     <g id="line2d_28">
      <g>
       <use xlink:href="#m57cff7395d" x="57.6" y="123.969002" style="stroke: #000000; stroke-width: 0.8"/>
      </g>
     </g>
     <g id="text_15">
      <!-- 0.125 -->
      <g transform="translate(21.971875 127.768221) scale(0.1 -0.1)">
       <use xlink:href="#DejaVuSans-30"/>
       <use xlink:href="#DejaVuSans-2e" x="63.623047"/>
       <use xlink:href="#DejaVuSans-31" x="95.410156"/>
       <use xlink:href="#DejaVuSans-32" x="159.033203"/>
       <use xlink:href="#DejaVuSans-35" x="222.65625"/>
      </g>
     </g>
    </g>
    <g id="ytick_7">
     <g id="line2d_29">
      <path d="M 57.6 89.665202 
L 414.72 89.665202 
" clip-path="url(#p5576e6abf6)" style="fill: none; stroke: #b0b0b0; stroke-width: 0.8; stroke-linecap: square"/>
     </g>
     <g id="line2d_30">
      <g>
       <use xlink:href="#m57cff7395d" x="57.6" y="89.665202" style="stroke: #000000; stroke-width: 0.8"/>
      </g>
     </g>
     <g id="text_16">
      <!-- 0.150 -->
      <g transform="translate(21.971875 93.464421) scale(0.1 -0.1)">
       <use xlink:href="#DejaVuSans-30"/>
       <use xlink:href="#DejaVuSans-2e" x="63.623047"/>
       <use xlink:href="#DejaVuSans-31" x="95.410156"/>
       <use xlink:href="#DejaVuSans-35" x="159.033203"/>
       <use xlink:href="#DejaVuSans-30" x="222.65625"/>
      </g>
     </g>
    </g>
    <g id="ytick_8">
     <g id="line2d_31">
      <path d="M 57.6 55.361403 
L 414.72 55.361403 
" clip-path="url(#p5576e6abf6)" style="fill: none; stroke: #b0b0b0; stroke-width: 0.8; stroke-linecap: square"/>
     </g>
     <g id="line2d_32">
      <g>
       <use xlink:href="#m57cff7395d" x="57.6" y="55.361403" style="stroke: #000000; stroke-width: 0.8"/>
      </g>
     </g>
     <g id="text_17">
      <!-- 0.175 -->
      <g transform="translate(21.971875 59.160621) scale(0.1 -0.1)">
       <use xlink:href="#DejaVuSans-30"/>
       <use xlink:href="#DejaVuSans-2e" x="63.623047"/>
       <use xlink:href="#DejaVuSans-31" x="95.410156"/>
       <use xlink:href="#DejaVuSans-37" x="159.033203"/>
       <use xlink:href="#DejaVuSans-35" x="222.65625"/>
      </g>
     </g>
    </g>
    <g id="text_18">
     <!-- Tracking error(m) -->
     <g transform="translate(15.892187 217.803781) rotate(-90) scale(0.1 -0.1)">
      <defs>
       <path id="DejaVuSans-72" d="M 2631 2963 
Q 2534 3019 2420 3045 
Q 2306 3072 2169 3072 
Q 1681 3072 1420 2755 
Q 1159 2438 1159 1844 
L 1159 0 
L 581 0 
L 581 3500 
L 1159 3500 
L 1159 2956 
Q 1341 3275 1631 3429 
Q 1922 3584 2338 3584 
Q 2397 3584 2469 3576 
Q 2541 3569 2628 3553 
L 2631 2963 
z
" transform="scale(0.015625)"/>
       <path id="DejaVuSans-61" d="M 2194 1759 
Q 1497 1759 1228 1600 
Q 959 1441 959 1056 
Q 959 750 1161 570 
Q 1363 391 1709 391 
Q 2188 391 2477 730 
Q 2766 1069 2766 1631 
L 2766 1759 
L 2194 1759 
z
M 3341 1997 
L 3341 0 
L 2766 0 
L 2766 531 
Q 2569 213 2275 61 
Q 1981 -91 1556 -91 
Q 1019 -91 701 211 
Q 384 513 384 1019 
Q 384 1609 779 1909 
Q 1175 2209 1959 2209 
L 2766 2209 
L 2766 2266 
Q 2766 2663 2505 2880 
Q 2244 3097 1772 3097 
Q 1472 3097 1187 3025 
Q 903 2953 641 2809 
L 641 3341 
Q 956 3463 1253 3523 
Q 1550 3584 1831 3584 
Q 2591 3584 2966 3190 
Q 3341 2797 3341 1997 
z
" transform="scale(0.015625)"/>
       <path id="DejaVuSans-63" d="M 3122 3366 
L 3122 2828 
Q 2878 2963 2633 3030 
Q 2388 3097 2138 3097 
Q 1578 3097 1268 2742 
Q 959 2388 959 1747 
Q 959 1106 1268 751 
Q 1578 397 2138 397 
Q 2388 397 2633 464 
Q 2878 531 3122 666 
L 3122 134 
Q 2881 22 2623 -34 
Q 2366 -91 2075 -91 
Q 1284 -91 818 406 
Q 353 903 353 1747 
Q 353 2603 823 3093 
Q 1294 3584 2113 3584 
Q 2378 3584 2631 3529 
Q 2884 3475 3122 3366 
z
" transform="scale(0.015625)"/>
       <path id="DejaVuSans-6b" d="M 581 4863 
L 1159 4863 
L 1159 1991 
L 2875 3500 
L 3609 3500 
L 1753 1863 
L 3688 0 
L 2938 0 
L 1159 1709 
L 1159 0 
L 581 0 
L 581 4863 
z
" transform="scale(0.015625)"/>
       <path id="DejaVuSans-6e" d="M 3513 2113 
L 3513 0 
L 2938 0 
L 2938 2094 
Q 2938 2591 2744 2837 
Q 2550 3084 2163 3084 
Q 1697 3084 1428 2787 
Q 1159 2491 1159 1978 
L 1159 0 
L 581 0 
L 581 3500 
L 1159 3500 
L 1159 2956 
Q 1366 3272 1645 3428 
Q 1925 3584 2291 3584 
Q 2894 3584 3203 3211 
Q 3513 2838 3513 2113 
z
" transform="scale(0.015625)"/>
       <path id="DejaVuSans-67" d="M 2906 1791 
Q 2906 2416 2648 2759 
Q 2391 3103 1925 3103 
Q 1463 3103 1205 2759 
Q 947 2416 947 1791 
Q 947 1169 1205 825 
Q 1463 481 1925 481 
Q 2391 481 2648 825 
Q 2906 1169 2906 1791 
z
M 3481 434 
Q 3481 -459 3084 -895 
Q 2688 -1331 1869 -1331 
Q 1566 -1331 1297 -1286 
Q 1028 -1241 775 -1147 
L 775 -588 
Q 1028 -725 1275 -790 
Q 1522 -856 1778 -856 
Q 2344 -856 2625 -561 
Q 2906 -266 2906 331 
L 2906 616 
Q 2728 306 2450 153 
Q 2172 0 1784 0 
Q 1141 0 747 490 
Q 353 981 353 1791 
Q 353 2603 747 3093 
Q 1141 3584 1784 3584 
Q 2172 3584 2450 3431 
Q 2728 3278 2906 2969 
L 2906 3500 
L 3481 3500 
L 3481 434 
z
" transform="scale(0.015625)"/>
       <path id="DejaVuSans-20" transform="scale(0.015625)"/>
       <path id="DejaVuSans-6f" d="M 1959 3097 
Q 1497 3097 1228 2736 
Q 959 2375 959 1747 
Q 959 1119 1226 758 
Q 1494 397 1959 397 
Q 2419 397 2687 759 
Q 2956 1122 2956 1747 
Q 2956 2369 2687 2733 
Q 2419 3097 1959 3097 
z
M 1959 3584 
Q 2709 3584 3137 3096 
Q 3566 2609 3566 1747 
Q 3566 888 3137 398 
Q 2709 -91 1959 -91 
Q 1206 -91 779 398 
Q 353 888 353 1747 
Q 353 2609 779 3096 
Q 1206 3584 1959 3584 
z
" transform="scale(0.015625)"/>
      </defs>
      <use xlink:href="#DejaVuSans-54"/>
      <use xlink:href="#DejaVuSans-72" x="46.333984"/>
      <use xlink:href="#DejaVuSans-61" x="87.447266"/>
      <use xlink:href="#DejaVuSans-63" x="148.726562"/>
      <use xlink:href="#DejaVuSans-6b" x="203.707031"/>
      <use xlink:href="#DejaVuSans-69" x="261.617188"/>
      <use xlink:href="#DejaVuSans-6e" x="289.400391"/>
      <use xlink:href="#DejaVuSans-67" x="352.779297"/>
      <use xlink:href="#DejaVuSans-20" x="416.255859"/>
      <use xlink:href="#DejaVuSans-65" x="448.042969"/>
      <use xlink:href="#DejaVuSans-72" x="509.566406"/>
      <use xlink:href="#DejaVuSans-72" x="548.929688"/>
      <use xlink:href="#DejaVuSans-6f" x="587.792969"/>
      <use xlink:href="#DejaVuSans-72" x="648.974609"/>
      <use xlink:href="#DejaVuSans-28" x="690.087891"/>
      <use xlink:href="#DejaVuSans-6d" x="729.101562"/>
      <use xlink:href="#DejaVuSans-29" x="826.513672"/>
     </g>
    </g>
   </g>
   <g id="line2d_33">
    <path d="M 73.832727 241.017683 
L 74.185997 243.68789 
L 74.185997 243.68789 
L 74.362631 253.581106 
L 74.362631 253.581106 
L 75.775709 281.729432 
L 75.775709 281.729432 
L 76.835517 295.488 
L 76.835517 295.488 
L 77.188786 292.323818 
L 77.188786 292.323818 
L 77.542056 289.102005 
L 77.542056 289.102005 
L 77.71869 295.488 
L 77.71869 295.488 
L 77.895325 287.399164 
L 77.895325 287.399164 
L 78.07196 287.159037 
L 78.248594 287.170015 
L 78.248594 287.170015 
L 78.425229 287.38407 
L 78.425229 287.38407 
L 78.601864 295.488 
L 78.601864 295.488 
L 78.778498 288.197757 
L 78.778498 288.197757 
L 79.131768 288.808364 
L 79.131768 288.808364 
L 79.308402 288.715058 
L 79.308402 288.715058 
L 79.485037 295.488 
L 79.485037 295.488 
L 79.661672 288.035843 
L 79.661672 288.035843 
L 80.191576 286.555291 
L 80.191576 286.555291 
L 80.368211 295.488 
L 80.368211 295.488 
L 80.544845 286.098364 
L 80.544845 286.098364 
L 80.72148 286.361817 
L 80.72148 286.361817 
L 81.074749 287.537751 
L 81.074749 287.537751 
L 81.251384 295.488 
L 81.251384 295.488 
L 81.428019 289.182962 
L 81.428019 289.182962 
L 81.957923 291.257655 
L 81.957923 291.257655 
L 82.134557 295.488 
L 82.134557 295.488 
L 82.311192 291.586972 
L 82.311192 291.586972 
L 82.664461 291.4772 
L 82.664461 291.4772 
L 82.841096 291.35645 
L 83.017731 295.488 
L 83.017731 295.488 
L 83.194365 291.405848 
L 83.194365 291.405848 
L 83.371 291.79005 
L 83.371 291.79005 
L 83.724269 293.516218 
L 83.724269 293.516218 
L 83.900904 295.488 
L 83.900904 295.488 
L 84.077539 295.081843 
L 84.077539 295.081843 
L 84.607443 291.518364 
L 84.607443 291.518364 
L 84.784078 295.488 
L 84.784078 295.488 
L 84.960712 290.387711 
L 85.137347 290.357524 
L 85.137347 290.357524 
L 85.490616 291.086136 
L 85.490616 291.086136 
L 85.667251 295.488 
L 85.667251 295.488 
L 85.843886 292.462405 
L 85.843886 292.462405 
L 86.550424 295.488 
L 86.550424 295.488 
L 86.903694 293.952562 
L 86.903694 293.952562 
L 87.256963 292.865818 
L 87.256963 292.865818 
L 87.433598 295.488 
L 87.433598 295.488 
L 87.610232 291.647347 
L 87.786867 291.323519 
L 87.786867 291.323519 
L 88.140137 291.382521 
L 88.140137 291.382521 
L 88.316771 295.488 
L 88.316771 295.488 
L 88.493406 291.747514 
L 88.493406 291.747514 
L 88.670041 292.056248 
L 88.670041 292.056248 
L 89.02331 292.976962 
L 89.02331 292.976962 
L 89.199945 295.488 
L 89.199945 295.488 
L 89.376579 293.092223 
L 89.376579 293.092223 
L 89.906483 292.056248 
L 89.906483 292.056248 
L 90.083118 295.488 
L 90.083118 295.488 
L 90.259753 291.427802 
L 90.259753 291.427802 
L 90.436387 291.436035 
L 90.436387 291.436035 
L 90.789657 293.09085 
L 90.789657 293.09085 
L 90.966291 295.488 
L 90.966291 295.488 
L 91.142926 295.409787 
L 91.142926 295.409787 
L 91.849465 287.921954 
L 91.849465 287.921954 
L 93.792446 266.141785 
L 93.792446 266.141785 
L 94.145716 261.079917 
L 94.145716 261.079917 
L 95.028889 247.223926 
L 95.028889 247.223926 
L 95.735428 241.831369 
L 95.735428 241.831369 
L 96.088697 240.335723 
L 96.088697 240.335723 
L 96.265332 240.405703 
L 96.265332 240.405703 
L 96.441967 239.431475 
L 96.441967 239.431475 
L 97.148505 231.54709 
L 97.148505 231.54709 
L 97.855044 215.728922 
L 97.855044 215.728922 
L 98.031679 215.37079 
L 98.031679 215.37079 
L 98.208313 212.489271 
L 98.208313 212.489271 
L 98.384948 213.327656 
L 98.561583 212.883078 
L 98.561583 212.883078 
L 98.738217 211.285893 
L 98.914852 217.180658 
L 98.914852 217.180658 
L 99.091487 217.75559 
L 99.091487 217.75559 
L 99.268121 224.383084 
L 99.268121 224.383084 
L 99.444756 226.284887 
L 99.444756 226.284887 
L 99.798026 235.406953 
L 99.798026 235.406953 
L 99.97466 235.273854 
L 99.97466 235.273854 
L 100.151295 243.733171 
L 100.151295 243.733171 
L 100.32793 243.283106 
L 100.32793 243.283106 
L 100.504564 250.058792 
L 100.504564 250.058792 
L 100.681199 249.172382 
L 100.681199 249.172382 
L 100.857834 254.665106 
L 100.857834 254.665106 
L 101.034468 253.730671 
L 101.211103 258.099603 
L 101.211103 258.099603 
L 101.387738 257.659142 
L 101.387738 257.659142 
L 101.564372 261.175967 
L 101.564372 261.175967 
L 101.741007 261.09501 
L 101.741007 261.09501 
L 101.917642 259.754418 
L 101.917642 259.754418 
L 102.094276 263.309664 
L 102.094276 263.309664 
L 102.270911 261.082661 
L 102.270911 261.082661 
L 102.447546 261.479213 
L 102.447546 261.479213 
L 102.62418 256.005699 
L 102.62418 256.005699 
L 102.800815 254.687061 
L 102.97745 246.591364 
L 102.97745 246.591364 
L 103.154084 245.470316 
L 103.154084 245.470316 
L 103.330719 238.19791 
L 103.330719 238.19791 
L 103.507354 238.757748 
L 103.507354 238.757748 
L 103.860623 228.762993 
L 103.860623 228.762993 
L 104.037258 236.932786 
L 104.037258 236.932786 
L 104.213893 234.316092 
L 104.213893 234.316092 
L 104.390527 243.605561 
L 104.390527 243.605561 
L 104.567162 243.962321 
L 104.567162 243.962321 
L 104.743797 253.915911 
L 104.743797 253.915911 
L 104.920431 256.955228 
L 104.920431 256.955228 
L 105.62697 295.488 
L 105.62697 295.488 
L 105.803605 295.2712 
L 105.803605 295.2712 
L 106.333509 260.548894 
L 106.333509 260.548894 
L 106.863413 226.964102 
L 106.863413 226.964102 
L 108.27649 139.112071 
L 108.27649 139.112071 
L 108.453125 130.474374 
L 108.453125 130.474374 
L 108.62976 132.533975 
L 108.62976 132.533975 
L 108.983029 130.204061 
L 108.983029 130.204061 
L 110.042837 211.043023 
L 110.042837 211.043023 
L 110.749376 260.129016 
L 110.749376 260.129016 
L 110.92601 266.34212 
L 110.92601 266.34212 
L 111.27928 281.435792 
L 111.27928 281.435792 
L 111.455915 284.191073 
L 111.455915 284.191073 
L 111.632549 292.454172 
L 111.632549 292.454172 
L 111.809184 294.624916 
L 111.809184 294.624916 
L 112.162453 288.292435 
L 112.162453 288.292435 
L 112.339088 287.484237 
L 112.339088 287.484237 
L 112.515723 282.125984 
L 112.515723 282.125984 
L 112.692357 280.528799 
L 112.692357 280.528799 
L 112.868992 280.231042 
L 112.868992 280.231042 
L 113.045627 274.576404 
L 113.045627 274.576404 
L 113.222261 273.384004 
L 113.222261 273.384004 
L 113.398896 273.29893 
L 113.398896 273.29893 
L 113.575531 266.984287 
L 113.575531 266.984287 
L 113.752165 265.238909 
L 114.105435 255.889066 
L 114.105435 255.889066 
L 114.282069 252.417521 
L 114.282069 252.417521 
L 115.518512 194.588176 
L 115.518512 194.588176 
L 116.93159 118.093447 
L 116.93159 118.093447 
L 117.461494 106.855522 
L 117.461494 106.855522 
L 117.638128 107.055857 
L 117.638128 107.055857 
L 117.991398 106.494646 
L 117.991398 106.494646 
L 118.344667 112.172611 
L 118.344667 112.172611 
L 118.521302 112.383923 
L 118.697936 119.309174 
L 118.874571 120.97085 
L 118.874571 120.97085 
L 119.227841 130.833878 
L 119.227841 130.833878 
L 119.404475 133.693443 
L 119.404475 133.693443 
L 120.287649 188.567173 
L 120.287649 188.567173 
L 120.994187 257.719517 
L 120.994187 257.719517 
L 121.347457 289.869038 
L 121.524091 289.295478 
L 121.877361 264.407385 
L 121.877361 264.407385 
L 122.053995 258.213491 
L 122.053995 258.213491 
L 122.23063 246.406124 
L 122.23063 246.406124 
L 122.407265 242.586052 
L 122.407265 242.586052 
L 122.583899 234.96512 
L 122.583899 234.96512 
L 122.760534 233.33912 
L 122.760534 233.33912 
L 122.937169 229.170522 
L 122.937169 229.170522 
L 123.113804 228.688897 
L 123.113804 228.688897 
L 123.290438 230.467206 
L 123.290438 230.467206 
L 123.467073 226.131206 
L 123.467073 226.131206 
L 123.643708 227.596664 
L 123.643708 227.596664 
L 123.820342 225.025251 
L 123.820342 225.025251 
L 123.996977 226.29998 
L 123.996977 226.29998 
L 124.173612 229.416138 
L 124.173612 229.416138 
L 124.350246 225.110325 
L 124.350246 225.110325 
L 124.526881 227.233044 
L 124.526881 227.233044 
L 124.703516 224.075722 
L 124.703516 224.075722 
L 124.88015 225.524715 
L 124.88015 225.524715 
L 125.056785 223.758755 
L 125.056785 223.758755 
L 125.23342 225.203631 
L 125.23342 225.203631 
L 125.410054 228.591474 
L 125.410054 228.591474 
L 125.586689 226.806305 
L 125.763324 230.550907 
L 125.763324 230.550907 
L 125.939958 231.086047 
L 125.939958 231.086047 
L 126.999767 256.68217 
L 126.999767 256.68217 
L 127.176401 264.463644 
L 127.176401 264.463644 
L 127.353036 264.771006 
L 127.353036 264.771006 
L 127.529671 270.424272 
L 127.529671 270.424272 
L 127.706305 270.523067 
L 127.706305 270.523067 
L 128.059575 279.484591 
L 128.059575 279.484591 
L 128.236209 277.412642 
L 128.236209 277.412642 
L 128.412844 280.977493 
L 128.412844 280.977493 
L 128.589479 279.98131 
L 128.589479 279.98131 
L 128.942748 286.968308 
L 128.942748 286.968308 
L 129.119383 284.726212 
L 129.119383 284.726212 
L 129.296017 287.344278 
L 129.296017 287.344278 
L 129.472652 285.475407 
L 129.472652 285.475407 
L 129.649287 295.488 
L 129.649287 295.488 
L 130.002556 286.814627 
L 130.002556 286.814627 
L 130.179191 288.345949 
L 130.179191 288.345949 
L 130.355826 285.652415 
L 130.355826 285.652415 
L 130.53246 295.488 
L 130.53246 295.488 
L 130.88573 282.673473 
L 130.88573 282.673473 
L 131.062364 282.759918 
L 131.062364 282.759918 
L 131.238999 279.461265 
L 131.238999 279.461265 
L 131.415634 278.561133 
L 131.415634 278.561133 
L 131.592268 278.852029 
L 131.592268 278.852029 
L 131.768903 274.710875 
L 131.768903 274.710875 
L 131.945538 274.28688 
L 131.945538 274.28688 
L 132.122172 275.133497 
L 132.122172 275.133497 
L 132.298807 270.628722 
L 132.298807 270.628722 
L 132.475442 270.970388 
L 132.475442 270.970388 
L 132.652076 268.16571 
L 132.652076 268.16571 
L 132.828711 268.138267 
L 132.828711 268.138267 
L 133.005346 269.4473 
L 133.005346 269.4473 
L 133.18198 266.87177 
L 133.18198 266.87177 
L 133.358615 267.957143 
L 133.358615 267.957143 
L 133.53525 270.167679 
L 133.53525 270.167679 
L 133.711884 267.516682 
L 133.711884 267.516682 
L 134.065154 270.669887 
L 134.065154 270.669887 
L 134.241789 267.098175 
L 134.418423 267.66213 
L 134.418423 267.66213 
L 134.595058 264.85059 
L 134.595058 264.85059 
L 134.948327 263.54293 
L 134.948327 263.54293 
L 135.301597 257.954155 
L 135.301597 257.954155 
L 135.478231 257.070489 
L 135.478231 257.070489 
L 135.831501 251.255309 
L 135.831501 251.255309 
L 136.008135 250.145238 
L 136.008135 250.145238 
L 136.361405 243.547931 
L 136.361405 243.547931 
L 136.538039 241.920559 
L 136.891309 234.228275 
L 136.891309 234.228275 
L 137.067943 231.707631 
L 137.067943 231.707631 
L 137.421213 222.234294 
L 137.421213 222.234294 
L 137.597847 218.683165 
L 137.597847 218.683165 
L 137.951117 208.505914 
L 137.951117 208.505914 
L 138.83429 188.585011 
L 138.83429 188.585011 
L 139.18756 179.347684 
L 139.18756 179.347684 
L 139.540829 172.949339 
L 139.540829 172.949339 
L 139.894098 163.374463 
L 139.894098 163.374463 
L 140.247368 156.258482 
L 140.247368 156.258482 
L 140.600637 145.938527 
L 140.600637 145.938527 
L 141.83708 120.113255 
L 141.83708 120.113255 
L 142.190349 118.035817 
L 142.190349 118.035817 
L 142.366984 117.975442 
L 142.366984 117.975442 
L 142.543619 117.497933 
L 142.543619 117.497933 
L 142.720253 118.328085 
L 142.720253 118.328085 
L 143.073523 121.704951 
L 143.073523 121.704951 
L 143.780061 132.00158 
L 143.780061 132.00158 
L 144.663235 150.590123 
L 144.663235 150.590123 
L 145.723043 180.254676 
L 145.723043 180.254676 
L 146.782851 219.746583 
L 146.782851 219.746583 
L 148.019294 262.228408 
L 148.019294 262.228408 
L 148.549198 273.047826 
L 148.549198 273.047826 
L 149.079102 279.513407 
L 149.079102 279.513407 
L 149.255736 280.963771 
L 149.255736 280.963771 
L 149.432371 281.393255 
L 149.432371 281.393255 
L 150.13891 284.501179 
L 150.13891 284.501179 
L 150.315545 284.631533 
L 150.315545 284.631533 
L 150.845449 286.924399 
L 150.845449 286.924399 
L 151.022083 287.845113 
L 151.022083 287.845113 
L 151.198718 288.061913 
L 151.198718 288.061913 
L 152.611795 295.345296 
L 152.611795 295.345296 
L 152.78843 294.773109 
L 152.78843 294.773109 
L 152.965065 295.488 
L 152.965065 295.488 
L 153.141699 293.156714 
L 153.141699 293.156714 
L 153.318334 292.694299 
L 153.318334 292.694299 
L 153.494969 295.488 
L 153.494969 295.488 
L 153.671604 291.717326 
L 153.671604 291.717326 
L 153.848238 290.918734 
L 153.848238 290.918734 
L 154.024873 295.488 
L 154.024873 295.488 
L 154.201508 287.695549 
L 154.201508 287.695549 
L 154.554777 282.750313 
L 154.554777 282.750313 
L 156.321124 242.275946 
L 156.321124 242.275946 
L 156.497758 241.014938 
L 156.497758 241.014938 
L 156.674393 237.448715 
L 156.674393 237.448715 
L 156.851028 236.787338 
L 156.851028 236.787338 
L 157.204297 230.480928 
L 157.204297 230.480928 
L 157.380932 232.725768 
L 157.380932 232.725768 
L 157.557567 229.468279 
L 157.557567 229.468279 
L 157.734201 231.700771 
L 157.734201 231.700771 
L 157.910836 228.392512 
L 157.910836 228.392512 
L 158.087471 230.313525 
L 158.087471 230.313525 
L 158.264105 225.996735 
L 158.264105 225.996735 
L 158.44074 226.471499 
L 158.44074 226.471499 
L 158.617375 220.473823 
L 158.617375 220.473823 
L 158.794009 219.137347 
L 158.794009 219.137347 
L 158.970644 211.44918 
L 158.970644 211.44918 
L 159.147279 208.791321 
L 159.147279 208.791321 
L 159.677183 183.173244 
L 159.677183 183.173244 
L 159.853817 178.346013 
L 159.853817 178.346013 
L 160.030452 165.218635 
L 160.030452 165.218635 
L 160.207087 160.472361 
L 160.207087 160.472361 
L 160.736991 134.02962 
L 160.736991 134.02962 
L 161.09026 117.518515 
L 161.09026 117.518515 
L 161.266895 107.10251 
L 161.266895 107.10251 
L 161.44353 103.663897 
L 161.44353 103.663897 
L 161.620164 93.479785 
L 161.620164 93.479785 
L 161.796799 92.206428 
L 161.796799 92.206428 
L 161.973434 82.879911 
L 161.973434 82.879911 
L 162.150068 83.017126 
L 162.150068 83.017126 
L 162.326703 73.996599 
L 162.326703 73.996599 
L 162.503338 74.981804 
L 162.503338 74.981804 
L 162.679972 66.178077 
L 162.679972 66.178077 
L 162.856607 68.606786 
L 162.856607 68.606786 
L 163.033242 61.212259 
L 163.033242 61.212259 
L 163.209876 64.937651 
L 163.209876 64.937651 
L 163.386511 57.657013 
L 163.386511 57.657013 
L 163.563146 61.898335 
L 163.563146 61.898335 
L 163.73978 54.816658 
L 163.916415 59.997904 
L 163.916415 59.997904 
L 164.09305 53.568 
L 164.09305 53.568 
L 164.269684 60.002021 
L 164.269684 60.002021 
L 164.446319 54.273286 
L 164.446319 54.273286 
L 164.622954 61.826983 
L 164.622954 61.826983 
L 164.799588 56.102365 
L 164.799588 56.102365 
L 165.152858 69.275024 
L 165.152858 69.275024 
L 165.329493 69.535733 
L 165.329493 69.535733 
L 165.506127 75.665136 
L 165.506127 75.665136 
L 165.682762 76.721693 
L 165.682762 76.721693 
L 165.859397 83.834928 
L 165.859397 83.834928 
L 166.036031 85.292154 
L 166.036031 85.292154 
L 166.212666 93.264357 
L 166.212666 93.264357 
L 166.389301 94.978175 
L 166.389301 94.978175 
L 166.565935 103.246763 
L 166.565935 103.246763 
L 166.74257 104.720454 
L 166.74257 104.720454 
L 166.919205 112.801057 
L 166.919205 112.801057 
L 167.095839 113.585928 
L 167.095839 113.585928 
L 167.272474 121.337214 
L 167.272474 121.337214 
L 167.449109 121.835306 
L 167.449109 121.835306 
L 167.625743 129.581104 
L 167.625743 129.581104 
L 167.802378 129.694992 
L 167.802378 129.694992 
L 167.979013 137.497048 
L 167.979013 137.497048 
L 168.155647 137.252805 
L 168.155647 137.252805 
L 168.332282 144.704963 
L 168.332282 144.704963 
L 168.508917 143.428861 
L 168.508917 143.428861 
L 168.685551 150.377439 
L 168.685551 150.377439 
L 168.862186 148.043408 
L 168.862186 148.043408 
L 169.215456 157.350715 
L 169.215456 157.350715 
L 169.39209 156.401186 
L 169.39209 156.401186 
L 169.568725 158.729728 
L 169.568725 158.729728 
L 169.74536 157.44265 
L 169.74536 157.44265 
L 169.921994 159.97427 
L 169.921994 159.97427 
L 170.098629 158.74345 
L 170.098629 158.74345 
L 170.275264 161.714159 
L 170.275264 161.714159 
L 170.451898 160.980057 
L 170.451898 160.980057 
L 170.628533 164.710939 
L 170.628533 164.710939 
L 170.805168 164.839921 
L 170.805168 164.839921 
L 170.981802 169.560124 
L 170.981802 169.560124 
L 171.158437 170.834853 
L 171.158437 170.834853 
L 171.688341 185.402991 
L 171.688341 185.402991 
L 171.864976 188.613826 
L 171.864976 188.613826 
L 172.39488 206.803073 
L 172.39488 206.803073 
L 172.748149 214.134481 
L 172.748149 214.134481 
L 172.924784 223.916552 
L 172.924784 223.916552 
L 173.101419 227.320862 
L 173.101419 227.320862 
L 173.454688 240.942214 
L 173.454688 240.942214 
L 173.984592 262.612611 
L 173.984592 262.612611 
L 174.161227 266.959588 
L 174.161227 266.959588 
L 174.867765 295.488 
L 174.867765 295.488 
L 175.0444 291.044972 
L 175.0444 291.044972 
L 175.221035 293.840045 
L 175.221035 293.840045 
L 175.397669 292.176997 
L 175.397669 292.176997 
L 175.574304 287.88765 
L 175.574304 287.88765 
L 175.750939 286.74602 
L 175.750939 286.74602 
L 175.927573 283.680632 
L 175.927573 283.680632 
L 176.104208 295.488 
L 176.104208 295.488 
L 176.280843 283.994855 
L 176.280843 283.994855 
L 176.457477 280.683852 
L 176.457477 280.683852 
L 176.634112 281.652592 
L 176.634112 281.652592 
L 176.810747 279.351493 
L 176.810747 279.351493 
L 176.987382 280.022475 
L 176.987382 280.022475 
L 177.164016 282.054632 
L 177.164016 282.054632 
L 177.340651 278.588576 
L 177.340651 278.588576 
L 177.517286 279.454404 
L 177.517286 279.454404 
L 177.69392 276.246313 
L 177.69392 276.246313 
L 177.870555 275.889553 
L 177.870555 275.889553 
L 178.04719 276.471346 
L 178.04719 276.471346 
L 178.223824 271.275006 
L 178.223824 271.275006 
L 178.400459 270.229426 
L 178.400459 270.229426 
L 178.753728 262.738849 
L 178.753728 262.738849 
L 178.930363 260.746484 
L 178.930363 260.746484 
L 179.283632 250.775055 
L 179.283632 250.775055 
L 179.460267 247.949794 
L 179.460267 247.949794 
L 179.813536 236.37432 
L 179.813536 236.37432 
L 179.990171 232.426639 
L 179.990171 232.426639 
L 180.34344 218.8588 
L 180.34344 218.8588 
L 180.520075 213.692648 
L 180.520075 213.692648 
L 181.226614 184.021234 
L 181.226614 184.021234 
L 182.286422 144.23157 
L 182.286422 144.23157 
L 182.639691 137.675428 
L 182.639691 137.675428 
L 182.992961 135.134203 
L 182.992961 135.134203 
L 183.522865 146.260983 
L 183.522865 146.260983 
L 184.229404 181.511568 
L 184.229404 181.511568 
L 185.112577 238.208888 
L 185.112577 238.208888 
L 185.642481 264.163142 
L 185.642481 264.163142 
L 185.99575 275.187011 
L 185.99575 275.187011 
L 186.34902 281.202526 
L 186.34902 281.202526 
L 186.525654 283.046698 
L 186.525654 283.046698 
L 186.878924 284.05523 
L 186.878924 284.05523 
L 187.232193 281.946232 
L 187.232193 281.946232 
L 187.585462 276.560536 
L 187.585462 276.560536 
L 188.115367 261.536843 
L 188.115367 261.536843 
L 188.821905 229.827783 
L 188.821905 229.827783 
L 189.705079 175.412352 
L 189.705079 175.412352 
L 190.058348 160.289865 
L 190.058348 160.289865 
L 190.588252 131.44723 
L 190.588252 131.44723 
L 190.764887 129.210622 
L 190.764887 129.210622 
L 190.941521 119.781194 
L 190.941521 119.781194 
L 191.118156 121.201371 
L 191.118156 121.201371 
L 191.294791 112.9369 
L 191.294791 112.9369 
L 191.64806 125.321944 
L 191.64806 125.321944 
L 191.824695 128.0292 
L 191.824695 128.0292 
L 192.354599 162.471587 
L 192.354599 162.471587 
L 192.531234 168.351258 
L 192.531234 168.351258 
L 192.884503 205.039858 
L 192.884503 205.039858 
L 193.061138 212.91601 
L 193.061138 212.91601 
L 193.237772 227.24951 
L 193.414407 227.817581 
L 193.414407 227.817581 
L 193.591042 238.547809 
L 193.591042 238.547809 
L 193.767676 230.402715 
L 193.767676 230.402715 
L 193.944311 236.625424 
L 193.944311 236.625424 
L 194.120946 235.589449 
L 194.120946 235.589449 
L 194.29758 222.404441 
L 194.29758 222.404441 
L 194.474215 218.410107 
L 194.474215 218.410107 
L 194.65085 199.516946 
L 194.65085 199.516946 
L 194.827484 195.661199 
L 194.827484 195.661199 
L 195.004119 187.796024 
L 195.004119 187.796024 
L 195.180754 173.579157 
L 195.180754 173.579157 
L 195.357388 169.094964 
L 195.357388 169.094964 
L 195.534023 155.178599 
L 195.534023 155.178599 
L 195.710658 155.490077 
L 195.710658 155.490077 
L 195.887293 145.214031 
L 195.887293 145.214031 
L 196.240562 157.58947 
L 196.240562 157.58947 
L 196.417197 159.207237 
L 196.417197 159.207237 
L 196.593831 169.951187 
L 196.593831 169.951187 
L 196.770466 173.113997 
L 196.770466 173.113997 
L 196.947101 185.79131 
L 196.947101 185.79131 
L 197.123735 187.826211 
L 197.123735 187.826211 
L 197.477005 210.474952 
L 197.477005 210.474952 
L 197.653639 210.775453 
L 197.653639 210.775453 
L 197.830274 218.985038 
L 197.830274 218.985038 
L 198.006909 213.677554 
L 198.006909 213.677554 
L 198.183543 220.830583 
L 198.183543 220.830583 
L 198.360178 223.473347 
L 198.360178 223.473347 
L 198.536813 218.04237 
L 198.536813 218.04237 
L 198.713447 220.466962 
L 198.713447 220.466962 
L 198.890082 211.438202 
L 198.890082 211.438202 
L 199.066717 215.118314 
L 199.066717 215.118314 
L 199.243351 204.238521 
L 199.243351 204.238521 
L 199.419986 209.437605 
L 199.419986 209.437605 
L 199.596621 211.203564 
L 199.596621 211.203564 
L 199.773256 204.842268 
L 199.773256 204.842268 
L 199.94989 209.322344 
L 199.94989 209.322344 
L 200.126525 202.801878 
L 200.126525 202.801878 
L 200.30316 210.0784 
L 200.30316 210.0784 
L 200.479794 202.734642 
L 200.479794 202.734642 
L 200.833064 215.702851 
L 200.833064 215.702851 
L 201.009698 212.165443 
L 201.009698 212.165443 
L 201.186333 217.527813 
L 201.186333 217.527813 
L 201.362968 213.392147 
L 201.362968 213.392147 
L 201.539602 219.498223 
L 201.539602 219.498223 
L 201.716237 215.432537 
L 201.716237 215.432537 
L 202.069506 226.224512 
L 202.069506 226.224512 
L 202.246141 226.535991 
L 202.246141 226.535991 
L 202.422776 231.599231 
L 202.422776 231.599231 
L 202.59941 233.241697 
L 203.482584 260.509102 
L 203.482584 260.509102 
L 204.189123 278.743629 
L 204.189123 278.743629 
L 204.895661 288.984 
L 204.895661 288.984 
L 205.425565 293.521706 
L 205.425565 293.521706 
L 205.6022 295.431742 
L 205.6022 295.431742 
L 205.778835 294.287367 
L 205.778835 294.287367 
L 206.308739 289.070445 
L 206.308739 289.070445 
L 206.485373 295.488 
L 206.662008 287.625569 
L 206.662008 287.625569 
L 206.838643 286.005058 
L 207.015277 285.491873 
L 207.015277 285.491873 
L 207.368547 283.189402 
L 207.368547 283.189402 
L 207.545182 282.478627 
L 207.545182 282.478627 
L 208.60499 269.842479 
L 208.60499 269.842479 
L 209.311528 258.592205 
L 209.311528 258.592205 
L 210.194702 243.642609 
L 210.194702 243.642609 
L 211.607779 218.99876 
L 211.607779 218.99876 
L 211.961049 216.417742 
L 211.961049 216.417742 
L 212.137683 215.853787 
L 212.137683 215.853787 
L 212.314318 214.813696 
L 212.314318 214.813696 
L 212.490953 214.765671 
L 212.490953 214.765671 
L 212.667587 215.066172 
L 212.667587 215.066172 
L 213.020857 216.508304 
L 213.020857 216.508304 
L 213.197491 216.436952 
L 213.197491 216.436952 
L 213.90403 219.19635 
L 213.90403 219.19635 
L 214.433934 220.638481 
L 214.433934 220.638481 
L 214.610569 220.897818 
L 214.610569 220.897818 
L 214.787203 220.029246 
L 214.787203 220.029246 
L 214.963838 220.081388 
L 214.963838 220.081388 
L 215.140473 220.399727 
L 215.140473 220.399727 
L 215.493742 221.703271 
L 215.493742 221.703271 
L 215.670377 221.095408 
L 215.670377 221.095408 
L 216.023646 222.453838 
L 216.023646 222.453838 
L 216.376916 225.259889 
L 216.376916 225.259889 
L 216.55355 225.13914 
L 216.90682 229.431231 
L 216.90682 229.431231 
L 217.789993 245.379754 
L 217.789993 245.379754 
L 219.026436 285.487756 
L 219.026436 285.487756 
L 219.379705 295.219058 
L 219.379705 295.219058 
L 220.262879 276.460368 
L 220.262879 276.460368 
L 220.439513 275.031958 
L 220.439513 275.031958 
L 221.852591 246.495313 
L 221.852591 246.495313 
L 222.029225 241.021799 
L 222.029225 241.021799 
L 222.20586 241.189202 
L 222.20586 241.189202 
L 222.382495 237.452832 
L 222.382495 237.452832 
L 222.559129 238.831845 
L 222.559129 238.831845 
L 222.735764 236.843596 
L 222.735764 236.843596 
L 222.912399 239.42187 
L 222.912399 239.42187 
L 223.089034 238.760493 
L 223.089034 238.760493 
L 223.265668 241.603592 
L 223.265668 241.603592 
L 223.442303 241.595359 
L 223.442303 241.595359 
L 223.618938 239.030807 
L 223.618938 239.030807 
L 223.795572 244.298498 
L 223.795572 244.298498 
L 223.972207 241.507541 
L 223.972207 241.507541 
L 224.148842 245.316635 
L 224.148842 245.316635 
L 224.325476 241.452655 
L 224.325476 241.452655 
L 224.502111 243.901946 
L 224.502111 243.901946 
L 224.678746 239.500083 
L 224.678746 239.500083 
L 224.85538 240.581338 
L 224.85538 240.581338 
L 225.032015 235.954442 
L 225.032015 235.954442 
L 225.20865 236.300224 
L 225.20865 236.300224 
L 225.385284 231.975201 
L 225.385284 231.975201 
L 225.561919 232.047925 
L 225.561919 232.047925 
L 225.738554 228.643616 
L 225.738554 228.643616 
L 225.915188 222.674755 
L 225.915188 222.674755 
L 226.091823 226.973707 
L 226.091823 226.973707 
L 226.268458 222.382487 
L 226.268458 222.382487 
L 226.445092 226.824143 
L 226.445092 226.824143 
L 226.621727 223.28399 
L 226.621727 223.28399 
L 226.798362 227.635084 
L 226.798362 227.635084 
L 226.974997 224.918223 
L 226.974997 224.918223 
L 227.151631 228.5311 
L 227.151631 228.5311 
L 227.328266 225.907545 
L 227.328266 225.907545 
L 227.504901 228.990771 
L 227.504901 228.990771 
L 227.681535 226.616948 
L 227.681535 226.616948 
L 227.85817 229.716639 
L 227.85817 229.716639 
L 228.034805 228.584614 
L 228.034805 228.584614 
L 228.211439 225.019763 
L 228.211439 225.019763 
L 228.388074 233.522989 
L 228.388074 233.522989 
L 228.564709 232.264725 
L 228.564709 232.264725 
L 228.741343 240.393354 
L 228.741343 240.393354 
L 228.917978 240.224579 
L 228.917978 240.224579 
L 229.094613 247.680853 
L 229.094613 247.680853 
L 229.271247 248.36144 
L 229.271247 248.36144 
L 229.447882 255.481537 
L 229.447882 255.481537 
L 229.624517 257.056767 
L 229.624517 257.056767 
L 229.801151 263.916155 
L 229.801151 263.916155 
L 229.977786 266.442287 
L 229.977786 266.442287 
L 230.331055 276.815756 
L 230.331055 276.815756 
L 230.50769 278.775189 
L 230.684325 288.303412 
L 230.684325 288.303412 
L 230.86096 291.540319 
L 230.86096 291.540319 
L 231.037594 290.336941 
L 231.037594 290.336941 
L 231.214229 286.09562 
L 231.214229 286.09562 
L 231.920768 256.296595 
L 231.920768 256.296595 
L 232.450672 231.088791 
L 232.450672 231.088791 
L 233.333845 189.11329 
L 233.333845 189.11329 
L 233.863749 175.022661 
L 233.863749 175.022661 
L 234.217018 178.304848 
L 234.217018 178.304848 
L 234.393653 182.262135 
L 234.393653 182.262135 
L 234.570288 188.842976 
L 235.453461 263.059932 
L 235.453461 263.059932 
L 235.806731 295.241013 
L 235.806731 295.241013 
L 236.513269 245.238422 
L 236.513269 245.238422 
L 237.043173 223.281246 
L 237.043173 223.281246 
L 237.573077 211.321569 
L 237.573077 211.321569 
L 237.926347 207.856886 
L 237.926347 207.856886 
L 238.102982 206.885402 
L 238.102982 206.885402 
L 238.456251 203.31369 
L 238.456251 203.31369 
L 238.986155 199.243888 
L 238.986155 199.243888 
L 239.339424 193.248956 
L 239.339424 193.248956 
L 240.222598 182.907046 
L 240.222598 182.907046 
L 240.399232 182.773947 
L 240.399232 182.773947 
L 240.575867 183.54098 
L 240.575867 183.54098 
L 241.105771 189.615497 
L 241.105771 189.615497 
L 241.81231 201.440703 
L 241.81231 201.440703 
L 243.225387 225.907545 
L 243.225387 225.907545 
L 244.108561 251.532483 
L 244.108561 251.532483 
L 244.638465 265.56411 
L 244.638465 265.56411 
L 244.991734 273.102713 
L 244.991734 273.102713 
L 245.168369 274.082429 
L 245.168369 274.082429 
L 245.698273 278.148115 
L 245.698273 278.148115 
L 245.874908 275.888181 
L 245.874908 275.888181 
L 246.051542 275.807224 
L 246.051542 275.807224 
L 246.228177 276.122819 
L 246.228177 276.122819 
L 246.404812 274.177108 
L 246.404812 274.177108 
L 246.581446 274.601102 
L 246.581446 274.601102 
L 246.758081 276.039118 
L 246.758081 276.039118 
L 246.934716 275.831923 
L 246.934716 275.831923 
L 247.11135 278.204374 
L 247.11135 278.204374 
L 247.817889 294.091149 
L 247.817889 294.091149 
L 247.994524 289.582258 
L 247.994524 289.582258 
L 249.230966 236.766756 
L 249.230966 236.766756 
L 249.407601 233.940123 
L 249.407601 233.940123 
L 249.760871 221.029545 
L 249.760871 221.029545 
L 249.937505 222.40993 
L 249.937505 222.40993 
L 250.290775 216.085681 
L 250.290775 216.085681 
L 250.467409 221.482355 
L 250.467409 221.482355 
L 250.644044 221.478238 
L 250.644044 221.478238 
L 250.820679 221.017195 
L 250.820679 221.017195 
L 250.997313 229.085449 
L 250.997313 229.085449 
L 251.173948 231.342639 
L 251.173948 231.342639 
L 251.527217 243.277617 
L 251.527217 243.277617 
L 251.703852 247.348792 
L 251.703852 247.348792 
L 252.057121 262.755314 
L 252.057121 262.755314 
L 252.233756 267.889907 
L 252.587025 284.704258 
L 252.587025 284.704258 
L 252.76366 289.896481 
L 252.76366 289.896481 
L 252.940295 290.557858 
L 252.940295 290.557858 
L 254.353372 248.859531 
L 254.353372 248.859531 
L 254.706642 244.343779 
L 254.706642 244.343779 
L 255.059911 236.673449 
L 255.059911 236.673449 
L 255.236546 234.870442 
L 255.236546 234.870442 
L 255.589815 226.799444 
L 255.589815 226.799444 
L 255.76645 224.483251 
L 255.76645 224.483251 
L 256.119719 215.293949 
L 256.119719 215.293949 
L 256.296354 212.173676 
L 256.296354 212.173676 
L 256.649623 201.660247 
L 256.649623 201.660247 
L 257.002892 191.341664 
L 257.002892 191.341664 
L 258.592605 153.076462 
L 258.592605 153.076462 
L 259.475778 141.28556 
L 259.475778 141.28556 
L 259.652413 139.5196 
L 259.652413 139.5196 
L 259.829047 139.22596 
L 260.005682 139.504507 
L 260.005682 139.504507 
L 260.358951 141.031712 
L 260.358951 141.031712 
L 260.712221 145.120725 
L 260.712221 145.120725 
L 261.242125 154.540548 
L 261.242125 154.540548 
L 261.772029 169.007146 
L 261.772029 169.007146 
L 262.655202 199.648672 
L 262.655202 199.648672 
L 263.891645 241.572032 
L 263.891645 241.572032 
L 265.481357 288.393974 
L 265.481357 288.393974 
L 265.834627 295.488 
L 265.834627 295.488 
L 266.364531 290.238147 
L 266.364531 290.238147 
L 266.541165 289.174729 
L 266.541165 289.174729 
L 266.7178 295.488 
L 266.7178 295.488 
L 266.894435 287.890394 
L 266.894435 287.890394 
L 267.071069 287.471888 
L 267.071069 287.471888 
L 267.247704 287.583032 
L 267.247704 287.583032 
L 267.424339 287.267437 
L 267.424339 287.267437 
L 267.600973 295.488 
L 267.600973 295.488 
L 267.777608 286.247929 
L 267.777608 286.247929 
L 267.954243 285.844516 
L 267.954243 285.844516 
L 268.307512 286.09562 
L 268.307512 286.09562 
L 268.484147 295.488 
L 268.484147 295.488 
L 268.660781 287.267437 
L 268.660781 287.267437 
L 269.014051 290.062511 
L 269.014051 290.062511 
L 269.190686 291.71321 
L 269.190686 291.71321 
L 269.36732 295.488 
L 269.36732 295.488 
L 269.543955 295.483884 
L 269.543955 295.483884 
L 270.073859 289.989787 
L 270.073859 289.989787 
L 270.250494 295.488 
L 270.250494 295.488 
L 270.427128 287.234506 
L 270.427128 287.234506 
L 270.957032 283.728657 
L 270.957032 283.728657 
L 271.133667 295.488 
L 271.133667 295.488 
L 271.310302 281.33288 
L 271.310302 281.33288 
L 272.01684 274.621685 
L 272.01684 274.621685 
L 272.546744 270.127887 
L 272.546744 270.127887 
L 272.900014 268.377021 
L 272.900014 268.377021 
L 273.253283 267.677224 
L 273.253283 267.677224 
L 273.959822 271.401244 
L 273.959822 271.401244 
L 274.136457 272.722626 
L 274.136457 272.722626 
L 274.666361 278.337472 
L 274.666361 278.337472 
L 275.372899 284.864799 
L 275.372899 284.864799 
L 275.549534 295.488 
L 275.549534 295.488 
L 275.726169 288.252643 
L 275.726169 288.252643 
L 276.432707 295.488 
L 276.432707 295.488 
L 276.785977 286.055827 
L 276.785977 286.055827 
L 277.315881 277.639047 
L 277.315881 277.639047 
L 277.66915 274.596986 
L 277.66915 274.596986 
L 277.845785 274.098895 
L 277.845785 274.098895 
L 278.02242 274.155153 
L 278.02242 274.155153 
L 278.199054 274.868672 
L 278.199054 274.868672 
L 278.552324 278.117928 
L 278.552324 278.117928 
L 278.905593 283.109817 
L 278.905593 283.109817 
L 279.082228 295.488 
L 279.082228 295.488 
L 279.258862 288.977139 
L 279.258862 288.977139 
L 279.612132 294.486329 
L 279.612132 294.486329 
L 279.788766 294.16799 
L 279.788766 294.16799 
L 280.142036 290.54002 
L 280.142036 290.54002 
L 280.495305 289.250197 
L 280.495305 289.250197 
L 280.848575 289.274896 
L 280.848575 289.274896 
L 281.378479 290.79524 
L 281.378479 290.79524 
L 281.555113 291.029878 
L 281.555113 291.029878 
L 281.731748 290.906385 
L 281.731748 290.906385 
L 282.085017 289.576769 
L 282.085017 289.576769 
L 282.438287 286.302815 
L 282.438287 286.302815 
L 282.791556 279.839979 
L 282.791556 279.839979 
L 283.144825 269.430834 
L 283.144825 269.430834 
L 283.851364 237.724518 
L 283.851364 237.724518 
L 284.381268 208.02566 
L 284.381268 208.02566 
L 284.557903 192.958059 
L 284.557903 192.958059 
L 284.911172 182.193527 
L 284.911172 182.193527 
L 285.087807 171.608747 
L 285.087807 171.608747 
L 285.264442 171.256104 
L 285.264442 171.256104 
L 285.441076 159.37464 
L 285.441076 159.37464 
L 285.617711 164.708194 
L 285.617711 164.708194 
L 285.794346 166.677232 
L 285.794346 166.677232 
L 285.97098 160.348867 
L 285.97098 160.348867 
L 286.147615 165.851197 
L 286.147615 165.851197 
L 286.32425 156.049915 
L 286.32425 156.049915 
L 286.500884 164.20187 
L 286.500884 164.20187 
L 286.677519 166.867962 
L 286.677519 166.867962 
L 286.854154 159.956432 
L 286.854154 159.956432 
L 287.030788 163.692802 
L 287.030788 163.692802 
L 287.207423 152.375292 
L 287.207423 152.375292 
L 287.384058 157.667682 
L 287.384058 157.667682 
L 287.560692 157.832341 
L 287.560692 157.832341 
L 287.737327 148.253348 
L 287.737327 148.253348 
L 287.913962 150.137312 
L 287.913962 150.137312 
L 288.090596 136.109803 
L 288.090596 136.109803 
L 288.267231 140.23998 
L 288.267231 140.23998 
L 288.443866 140.463641 
L 288.620501 131.764197 
L 288.620501 131.764197 
L 288.797135 135.410005 
L 288.797135 135.410005 
L 288.97377 125.944901 
L 288.97377 125.944901 
L 289.327039 133.347661 
L 289.327039 133.347661 
L 289.503674 127.345868 
L 289.503674 127.345868 
L 289.680309 130.681569 
L 289.680309 130.681569 
L 289.856943 122.237346 
L 289.856943 122.237346 
L 290.210213 131.503488 
L 290.210213 131.503488 
L 290.386847 123.886673 
L 290.386847 123.886673 
L 290.563482 129.807509 
L 290.563482 129.807509 
L 290.740117 117.786085 
L 290.740117 117.786085 
L 291.093386 132.282871 
L 291.093386 132.282871 
L 291.270021 123.092197 
L 291.270021 123.092197 
L 291.446655 129.837696 
L 291.446655 129.837696 
L 291.62329 131.500744 
L 291.62329 131.500744 
L 291.799925 124.332622 
L 291.97656 127.816516 
L 292.153194 116.977888 
L 292.153194 116.977888 
L 292.329829 123.84002 
L 292.329829 123.84002 
L 292.506464 109.938748 
L 292.506464 109.938748 
L 292.859733 129.118688 
L 292.859733 129.118688 
L 293.036368 124.543934 
L 293.036368 124.543934 
L 293.213002 137.37081 
L 293.213002 137.37081 
L 293.389637 135.285139 
L 293.389637 135.285139 
L 293.742906 163.288017 
L 293.742906 163.288017 
L 293.919541 168.354002 
L 293.919541 168.354002 
L 294.449445 200.953589 
L 294.449445 200.953589 
L 294.979349 227.67076 
L 294.979349 227.67076 
L 296.215792 259.127345 
L 296.215792 259.127345 
L 296.392427 260.159203 
L 296.392427 260.159203 
L 296.745696 268.05731 
L 296.745696 268.05731 
L 296.922331 269.576282 
L 296.922331 269.576282 
L 297.098965 272.670485 
L 297.098965 272.670485 
L 297.2756 272.969614 
L 297.2756 272.969614 
L 297.452235 275.33932 
L 297.452235 275.33932 
L 297.628869 274.322556 
L 297.628869 274.322556 
L 297.805504 275.750966 
L 297.805504 275.750966 
L 297.982139 273.250905 
L 297.982139 273.250905 
L 298.158773 273.740763 
L 298.335408 270.073001 
L 298.512043 269.790338 
L 298.512043 269.790338 
L 298.688677 265.592925 
L 298.688677 265.592925 
L 298.865312 265.433755 
L 298.865312 265.433755 
L 299.041947 261.295345 
L 299.041947 261.295345 
L 299.218581 261.708362 
L 299.395216 258.21898 
L 299.395216 258.21898 
L 299.571851 259.740696 
L 299.571851 259.740696 
L 299.748486 257.497228 
L 299.748486 257.497228 
L 299.92512 260.435005 
L 299.92512 260.435005 
L 300.101755 259.098529 
L 300.101755 259.098529 
L 300.27839 262.548119 
L 300.27839 262.548119 
L 300.455024 261.547821 
L 300.455024 261.547821 
L 300.631659 265.078368 
L 300.631659 265.078368 
L 300.808294 264.392292 
L 300.808294 264.392292 
L 300.984928 267.754064 
L 300.984928 267.754064 
L 301.161563 267.494727 
L 301.161563 267.494727 
L 301.338198 270.634211 
L 301.338198 270.634211 
L 301.514832 271.600206 
L 301.514832 271.600206 
L 301.691467 270.448971 
L 301.691467 270.448971 
L 301.868102 277.86408 
L 301.868102 277.86408 
L 302.044736 279.05648 
L 302.044736 279.05648 
L 302.398006 295.488 
L 302.398006 295.488 
L 302.57464 294.320299 
L 302.57464 294.320299 
L 303.281179 244.187354 
L 303.281179 244.187354 
L 304.694257 154.256513 
L 304.694257 154.256513 
L 305.047526 148.821419 
L 305.047526 148.821419 
L 305.224161 149.797019 
L 305.224161 149.797019 
L 305.400795 149.993236 
L 305.400795 149.993236 
L 305.754065 155.816649 
L 305.754065 155.816649 
L 305.930699 155.492822 
L 305.930699 155.492822 
L 306.107334 163.635171 
L 306.107334 163.635171 
L 306.283969 163.336042 
L 306.283969 163.336042 
L 306.460603 170.740174 
L 306.460603 170.740174 
L 306.637238 169.381744 
L 306.637238 169.381744 
L 306.813873 175.937886 
L 306.813873 175.937886 
L 306.990507 172.943851 
L 306.990507 172.943851 
L 307.167142 178.223891 
L 307.167142 178.223891 
L 307.343777 173.360985 
L 307.343777 173.360985 
L 307.520412 177.348458 
L 307.520412 177.348458 
L 307.697046 170.661962 
L 307.697046 170.661962 
L 307.873681 173.586018 
L 307.873681 173.586018 
L 308.050316 172.72019 
L 308.050316 172.72019 
L 308.22695 167.294701 
L 308.22695 167.294701 
L 308.403585 166.122883 
L 308.403585 166.122883 
L 308.58022 161.12825 
L 308.58022 161.12825 
L 308.756854 162.781693 
L 308.756854 162.781693 
L 308.933489 160.129323 
L 308.933489 160.129323 
L 309.110124 163.87667 
L 309.110124 163.87667 
L 309.286758 162.418073 
L 309.286758 162.418073 
L 309.463393 167.986265 
L 309.463393 167.986265 
L 309.640028 167.047713 
L 309.640028 167.047713 
L 309.816662 171.888666 
L 309.816662 171.888666 
L 309.993297 169.210225 
L 309.993297 169.210225 
L 310.169932 172.812124 
L 310.169932 172.812124 
L 310.346566 173.398033 
L 310.346566 173.398033 
L 310.523201 170.797805 
L 310.523201 170.797805 
L 310.699836 171.770661 
L 310.699836 171.770661 
L 310.87647 167.883354 
L 310.87647 167.883354 
L 311.053105 169.985491 
L 311.053105 169.985491 
L 311.22974 164.661541 
L 311.406375 168.738205 
L 311.406375 168.738205 
L 311.583009 163.318204 
L 311.583009 163.318204 
L 311.759644 170.41223 
L 311.936279 163.828645 
L 311.936279 163.828645 
L 312.289548 175.32179 
L 312.289548 175.32179 
L 312.466183 170.804666 
L 312.466183 170.804666 
L 312.642817 174.523197 
L 312.642817 174.523197 
L 312.819452 167.795536 
L 312.996087 171.487997 
L 312.996087 171.487997 
L 313.172721 161.899399 
L 313.172721 161.899399 
L 313.349356 166.605881 
L 313.349356 166.605881 
L 313.525991 156.379232 
L 313.525991 156.379232 
L 313.87926 169.977258 
L 313.87926 169.977258 
L 314.055895 169.491516 
L 314.232529 180.769233 
L 314.232529 180.769233 
L 314.409164 183.54098 
L 314.409164 183.54098 
L 314.585799 200.144019 
L 314.585799 200.144019 
L 314.762433 204.056025 
L 314.762433 204.056025 
L 315.115703 237.230543 
L 315.115703 237.230543 
L 315.292338 243.316037 
L 315.292338 243.316037 
L 315.468972 255.220828 
L 315.468972 255.220828 
L 315.645607 255.849273 
L 315.645607 255.849273 
L 315.822242 265.236165 
L 315.822242 265.236165 
L 315.998876 260.451471 
L 315.998876 260.451471 
L 316.175511 266.454636 
L 316.175511 266.454636 
L 316.352146 256.328155 
L 316.352146 256.328155 
L 316.52878 259.917704 
L 316.52878 259.917704 
L 316.705415 258.164094 
L 316.705415 258.164094 
L 316.88205 247.652038 
L 316.88205 247.652038 
L 317.058684 244.58665 
L 317.058684 244.58665 
L 317.235319 232.246887 
L 317.235319 232.246887 
L 317.411954 230.46309 
L 317.411954 230.46309 
L 317.588588 219.079717 
L 317.588588 219.079717 
L 317.765223 220.506755 
L 317.765223 220.506755 
L 317.941858 220.760603 
L 317.941858 220.760603 
L 318.118492 218.569276 
L 318.118492 218.569276 
L 318.295127 222.750223 
L 318.295127 222.750223 
L 318.471762 222.385231 
L 318.471762 222.385231 
L 318.648396 229.117008 
L 318.648396 229.117008 
L 318.825031 230.404087 
L 318.825031 230.404087 
L 319.001666 237.694331 
L 319.001666 237.694331 
L 319.178301 238.912802 
L 319.178301 238.912802 
L 319.354935 245.169815 
L 319.354935 245.169815 
L 319.53157 245.157465 
L 319.53157 245.157465 
L 319.708205 249.166893 
L 319.708205 249.166893 
L 319.884839 250.622747 
L 319.884839 250.622747 
L 320.061474 248.72506 
L 320.061474 248.72506 
L 320.238109 248.128174 
L 320.238109 248.128174 
L 321.474551 222.794132 
L 321.474551 222.794132 
L 321.651186 222.514213 
L 321.651186 222.514213 
L 321.827821 217.891433 
L 321.827821 217.891433 
L 322.004455 218.90957 
L 322.004455 218.90957 
L 322.18109 215.558775 
L 322.18109 215.558775 
L 322.357725 217.966901 
L 322.357725 217.966901 
L 322.534359 216.004724 
L 322.534359 216.004724 
L 322.710994 219.344542 
L 322.710994 219.344542 
L 322.887629 218.528112 
L 322.887629 218.528112 
L 323.064264 222.527935 
L 323.064264 222.527935 
L 323.240898 222.810598 
L 323.240898 222.810598 
L 323.770802 235.482422 
L 323.770802 235.482422 
L 324.124072 241.260554 
L 324.124072 241.260554 
L 324.653976 263.795406 
L 324.653976 263.795406 
L 324.83061 269.189335 
L 324.83061 269.189335 
L 325.360514 292.172881 
L 325.360514 292.172881 
L 325.537149 287.738086 
L 325.537149 287.738086 
L 326.950227 228.288229 
L 326.950227 228.288229 
L 327.303496 222.634963 
L 327.303496 222.634963 
L 327.480131 221.368466 
L 327.480131 221.368466 
L 327.656765 221.065221 
L 327.656765 221.065221 
L 327.8334 221.358861 
L 327.8334 221.358861 
L 328.186669 224.536765 
L 328.186669 224.536765 
L 328.539939 230.75673 
L 328.539939 230.75673 
L 328.893208 239.962498 
L 328.893208 239.962498 
L 329.246477 253.225719 
L 329.246477 253.225719 
L 329.776381 281.777457 
L 329.776381 281.777457 
L 329.953016 294.270901 
L 329.953016 294.270901 
L 330.306285 271.557669 
L 330.306285 271.557669 
L 331.189459 213.766744 
L 331.189459 213.766744 
L 331.366094 211.657747 
L 331.366094 211.657747 
L 331.542728 203.426207 
L 331.542728 203.426207 
L 331.719363 204.025837 
L 331.719363 204.025837 
L 331.895998 199.087462 
L 331.895998 199.087462 
L 332.072632 202.12129 
L 332.072632 202.12129 
L 332.249267 199.740607 
L 332.249267 199.740607 
L 332.425902 203.82962 
L 332.425902 203.82962 
L 332.602536 203.298597 
L 332.602536 203.298597 
L 332.779171 207.952936 
L 332.779171 207.952936 
L 332.955806 208.645873 
L 332.955806 208.645873 
L 333.13244 206.429848 
L 333.13244 206.429848 
L 333.309075 214.679225 
L 333.309075 214.679225 
L 333.48571 213.571899 
L 333.48571 213.571899 
L 333.662344 220.79079 
L 333.662344 220.79079 
L 333.838979 220.093737 
L 333.838979 220.093737 
L 334.015614 225.430036 
L 334.015614 225.430036 
L 334.192248 224.228031 
L 334.192248 224.228031 
L 334.368883 227.239905 
L 334.368883 227.239905 
L 334.545518 224.477763 
L 334.545518 224.477763 
L 334.722153 225.333985 
L 334.722153 225.333985 
L 334.898787 220.781185 
L 334.898787 220.781185 
L 335.075422 220.28035 
L 335.075422 220.28035 
L 335.252057 214.885048 
L 335.252057 214.885048 
L 335.428691 213.828491 
L 335.428691 213.828491 
L 335.605326 208.438678 
L 335.605326 208.438678 
L 335.781961 207.708693 
L 335.781961 207.708693 
L 335.958595 203.549701 
L 335.958595 203.549701 
L 336.13523 196.190849 
L 336.13523 196.190849 
L 336.311865 201.433842 
L 336.311865 201.433842 
L 336.488499 196.285528 
L 336.488499 196.285528 
L 336.665134 203.105123 
L 336.665134 203.105123 
L 336.841769 199.843518 
L 336.841769 199.843518 
L 337.018403 207.225696 
L 337.018403 207.225696 
L 337.195038 205.422688 
L 337.195038 205.422688 
L 337.371673 213.231605 
L 337.371673 213.231605 
L 337.548307 213.080668 
L 337.548307 213.080668 
L 337.724942 221.439818 
L 337.724942 221.439818 
L 337.901577 223.09875 
L 338.431481 244.666235 
L 338.431481 244.666235 
L 338.78475 254.5718 
L 338.78475 254.5718 
L 339.314654 289.156891 
L 339.314654 289.156891 
L 339.491289 292.784861 
L 339.491289 292.784861 
L 340.197828 243.034746 
L 340.197828 243.034746 
L 340.904366 202.364161 
L 340.904366 202.364161 
L 341.257636 188.790834 
L 341.257636 188.790834 
L 341.610905 178.149795 
L 341.610905 178.149795 
L 341.78754 179.605648 
L 341.78754 179.605648 
L 341.964174 176.973861 
L 341.964174 176.973861 
L 342.140809 180.487942 
L 342.140809 180.487942 
L 342.317444 180.509897 
L 342.317444 180.509897 
L 342.494079 185.238332 
L 342.494079 185.238332 
L 342.670713 186.769654 
L 342.670713 186.769654 
L 342.847348 186.230398 
L 342.847348 186.230398 
L 343.023983 195.268763 
L 343.023983 195.268763 
L 343.200617 196.271806 
L 343.200617 196.271806 
L 343.377252 204.820313 
L 343.377252 204.820313 
L 343.553887 206.484734 
L 343.730521 214.06999 
L 343.730521 214.06999 
L 343.907156 216.495955 
L 343.907156 216.495955 
L 344.083791 214.430866 
L 344.083791 214.430866 
L 344.260425 226.396031 
L 344.260425 226.396031 
L 344.43706 225.537064 
L 344.43706 225.537064 
L 344.613695 238.43392 
L 344.613695 238.43392 
L 344.790329 241.399141 
L 344.790329 241.399141 
L 345.143599 266.296839 
L 345.143599 266.296839 
L 345.320233 274.686176 
L 345.320233 274.686176 
L 345.496868 291.238445 
L 345.496868 291.238445 
L 345.673503 276.893968 
L 345.673503 276.893968 
L 346.556676 167.036736 
L 346.556676 167.036736 
L 347.263215 98.157451 
L 347.263215 98.157451 
L 347.43985 84.043496 
L 347.43985 84.043496 
L 347.616484 85.143961 
L 347.616484 85.143961 
L 347.793119 82.073085 
L 347.793119 82.073085 
L 348.323023 105.284408 
L 348.323023 105.284408 
L 349.029562 174.132134 
L 349.029562 174.132134 
L 349.206196 186.790236 
L 349.206196 186.790236 
L 349.736101 237.727262 
L 349.736101 237.727262 
L 350.619274 286.37005 
L 350.619274 286.37005 
L 350.972543 291.366055 
L 350.972543 291.366055 
L 351.149178 288.816597 
L 351.149178 288.816597 
L 351.325813 281.341113 
L 351.325813 281.341113 
L 351.502447 279.575153 
L 351.502447 279.575153 
L 351.679082 273.913654 
L 351.679082 273.913654 
L 351.855717 272.422125 
L 351.855717 272.422125 
L 352.032351 273.198763 
L 352.032351 273.198763 
L 352.208986 267.201087 
L 352.208986 267.201087 
L 352.385621 268.29332 
L 352.385621 268.29332 
L 352.562255 264.237239 
L 352.562255 264.237239 
L 352.73889 265.960661 
L 352.73889 265.960661 
L 352.915525 263.278104 
L 352.915525 263.278104 
L 353.092159 265.108555 
L 353.092159 265.108555 
L 353.268794 263.541557 
L 353.268794 263.541557 
L 353.445429 265.125021 
L 353.445429 265.125021 
L 353.622064 268.825715 
L 353.622064 268.825715 
L 353.798698 265.300656 
L 353.798698 265.300656 
L 353.975333 268.243922 
L 353.975333 268.243922 
L 354.151968 265.480408 
L 354.151968 265.480408 
L 354.328602 267.717016 
L 354.328602 267.717016 
L 354.505237 265.726023 
L 354.505237 265.726023 
L 354.681872 267.593522 
L 354.681872 267.593522 
L 354.858506 271.375173 
L 354.858506 271.375173 
L 355.035141 267.345163 
L 355.035141 267.345163 
L 355.211776 270.160819 
L 355.211776 270.160819 
L 355.38841 267.168155 
L 355.38841 267.168155 
L 355.565045 269.319689 
L 355.565045 269.319689 
L 355.74168 266.841583 
L 355.74168 266.841583 
L 355.918314 267.614105 
L 355.918314 267.614105 
L 356.094949 269.987928 
L 356.094949 269.987928 
L 356.271584 265.289679 
L 356.271584 265.289679 
L 356.448218 266.477963 
L 356.448218 266.477963 
L 356.624853 262.413649 
L 356.624853 262.413649 
L 356.801488 262.456185 
L 356.801488 262.456185 
L 356.978122 259.138322 
L 356.978122 259.138322 
L 357.154757 258.203886 
L 357.331392 258.689628 
L 357.331392 258.689628 
L 357.508027 254.135456 
L 357.508027 254.135456 
L 357.684661 253.690878 
L 357.684661 253.690878 
L 357.861296 250.24266 
L 357.861296 250.24266 
L 358.037931 249.059865 
L 358.037931 249.059865 
L 358.214565 248.99263 
L 358.214565 248.99263 
L 358.3912 245.446989 
L 358.3912 245.446989 
L 358.567835 245.382498 
L 358.567835 245.382498 
L 358.744469 243.86627 
L 358.744469 243.86627 
L 358.921104 244.766402 
L 358.921104 244.766402 
L 359.097739 247.314488 
L 359.097739 247.314488 
L 359.274373 247.969005 
L 359.274373 247.969005 
L 360.334181 272.050272 
L 360.334181 272.050272 
L 360.510816 277.44969 
L 360.510816 277.44969 
L 360.687451 278.53369 
L 360.687451 278.53369 
L 361.04072 287.578916 
L 361.04072 287.578916 
L 361.217355 286.998496 
L 361.217355 286.998496 
L 361.570624 294.130942 
L 361.570624 294.130942 
L 361.747259 291.634997 
L 361.747259 291.634997 
L 361.923894 293.476425 
L 361.923894 293.476425 
L 362.100528 291.62402 
L 362.100528 291.62402 
L 362.277163 291.807888 
L 362.277163 291.807888 
L 362.453798 292.622947 
L 362.453798 292.622947 
L 362.630432 289.523255 
L 362.630432 289.523255 
L 362.807067 288.845412 
L 362.807067 288.845412 
L 362.983702 288.699964 
L 362.983702 288.699964 
L 363.336971 282.138333 
L 363.336971 282.138333 
L 363.513606 280.538404 
L 363.513606 280.538404 
L 363.866875 270.87571 
L 363.866875 270.87571 
L 364.04351 267.526287 
L 364.04351 267.526287 
L 364.396779 255.058914 
L 364.396779 255.058914 
L 364.573414 250.526696 
L 364.573414 250.526696 
L 364.926683 237.120771 
L 364.926683 237.120771 
L 365.279953 224.352897 
L 365.279953 224.352897 
L 367.399569 155.439308 
L 367.399569 155.439308 
L 368.106107 140.893124 
L 368.106107 140.893124 
L 368.459377 136.717666 
L 368.459377 136.717666 
L 368.636011 135.673458 
L 368.636011 135.673458 
L 368.812646 135.31121 
L 368.812646 135.31121 
L 368.989281 135.639155 
L 368.989281 135.639155 
L 369.165916 136.66278 
L 369.165916 136.66278 
L 369.519185 141.060527 
L 369.519185 141.060527 
L 369.872454 148.718507 
L 369.872454 148.718507 
L 370.402358 166.393197 
L 370.402358 166.393197 
L 372.34534 239.06511 
L 372.34534 239.06511 
L 373.935052 281.796667 
L 373.935052 281.796667 
L 374.464956 291.55404 
L 374.464956 291.55404 
L 374.818225 295.096937 
L 374.818225 295.096937 
L 376.054668 283.735518 
L 376.054668 283.735518 
L 376.761207 278.130277 
L 376.761207 278.130277 
L 376.937842 277.489482 
L 376.937842 277.489482 
L 377.114476 277.293265 
L 377.114476 277.293265 
L 377.291111 277.48125 
L 377.291111 277.48125 
L 377.64438 278.624252 
L 377.64438 278.624252 
L 378.704188 284.283007 
L 378.704188 284.283007 
L 379.234092 285.084344 
L 379.234092 285.084344 
L 379.410727 285.288794 
L 379.410727 285.288794 
L 379.763996 286.297326 
L 379.763996 286.297326 
L 380.117266 288.388486 
L 380.117266 288.388486 
L 380.64717 292.95638 
L 380.64717 292.95638 
L 380.823805 294.667453 
L 380.823805 294.667453 
L 381.000439 294.638638 
L 381.000439 294.638638 
L 381.530343 290.789752 
L 381.530343 290.789752 
L 381.706978 290.310871 
L 381.706978 290.310871 
L 381.883613 290.169539 
L 381.883613 290.169539 
L 382.236882 290.339686 
L 382.236882 290.339686 
L 382.766786 291.102602 
L 382.766786 291.102602 
L 382.943421 291.025762 
L 382.943421 291.025762 
L 383.649959 289.630283 
L 383.649959 289.630283 
L 384.003229 288.970278 
L 384.003229 288.970278 
L 384.179863 288.959301 
L 384.179863 288.959301 
L 384.356498 289.302339 
L 384.356498 289.302339 
L 384.886402 291.383893 
L 384.886402 291.383893 
L 385.592941 294.377929 
L 385.592941 294.377929 
L 385.769576 294.523377 
L 385.769576 294.523377 
L 386.122845 294.214643 
L 386.122845 294.214643 
L 386.829384 292.875423 
L 386.829384 292.875423 
L 387.006018 292.893261 
L 387.006018 292.893261 
L 387.359288 293.284324 
L 387.359288 293.284324 
L 388.065826 294.369696 
L 388.065826 294.369696 
L 388.242461 294.281878 
L 388.242461 294.281878 
L 388.595731 293.248648 
L 388.595731 293.248648 
L 389.655539 289.119843 
L 389.655539 289.119843 
L 389.832173 289.209033 
L 389.832173 289.209033 
L 390.185443 290.254612 
L 390.185443 290.254612 
L 390.715347 293.057919 
L 390.715347 293.057919 
L 391.245251 295.442719 
L 391.245251 295.442719 
L 391.421885 295.238268 
L 391.421885 295.238268 
L 391.775155 295.475651 
L 391.775155 295.475651 
L 392.481694 294.343625 
L 392.481694 294.343625 
L 392.658328 294.435559 
L 392.658328 294.435559 
L 393.188232 295.352157 
L 393.188232 295.352157 
L 393.718136 293.88121 
L 393.718136 293.88121 
L 393.894771 293.583453 
L 393.894771 293.583453 
L 394.071406 293.669899 
L 394.071406 293.669899 
L 394.60131 294.753899 
L 394.60131 294.753899 
L 394.954579 295.486628 
L 394.954579 295.486628 
L 395.131214 295.306876 
L 395.131214 295.306876 
L 395.307848 295.423509 
L 395.307848 295.423509 
L 395.661118 295.208081 
L 395.661118 295.208081 
L 396.014387 295.205337 
L 396.014387 295.205337 
L 396.191022 295.390577 
L 396.191022 295.390577 
L 396.367657 295.062633 
L 396.367657 295.062633 
L 396.720926 292.244233 
L 396.720926 292.244233 
L 397.25083 285.601645 
L 397.25083 285.601645 
L 397.957369 275.819573 
L 397.957369 275.819573 
L 398.134003 291.217863 
L 398.134003 291.217863 
L 398.310638 274.952373 
L 398.310638 274.952373 
L 398.487273 230.66754 
L 398.487273 230.66754 
" clip-path="url(#p5576e6abf6)" style="fill: none; stroke: #1f77b4; stroke-width: 1.5; stroke-linecap: square"/>
   </g>
   <g id="patch_3">
    <path d="M 57.6 307.584 
L 57.6 41.472 
" style="fill: none; stroke: #000000; stroke-width: 0.8; stroke-linejoin: miter; stroke-linecap: square"/>
   </g>
   <g id="patch_4">
    <path d="M 414.72 307.584 
L 414.72 41.472 
" style="fill: none; stroke: #000000; stroke-width: 0.8; stroke-linejoin: miter; stroke-linecap: square"/>
   </g>
   <g id="patch_5">
    <path d="M 57.6 307.584 
L 414.72 307.584 
" style="fill: none; stroke: #000000; stroke-width: 0.8; stroke-linejoin: miter; stroke-linecap: square"/>
   </g>
   <g id="patch_6">
    <path d="M 57.6 41.472 
L 414.72 41.472 
" style="fill: none; stroke: #000000; stroke-width: 0.8; stroke-linejoin: miter; stroke-linecap: square"/>
   </g>
   <g id="text_19">
    <!-- Tracking error vs Time -->
    <g transform="translate(169.584375 35.472) scale(0.12 -0.12)">
     <defs>
      <path id="DejaVuSans-76" d="M 191 3500 
L 800 3500 
L 1894 563 
L 2988 3500 
L 3597 3500 
L 2284 0 
L 1503 0 
L 191 3500 
z
" transform="scale(0.015625)"/>
     </defs>
     <use xlink:href="#DejaVuSans-54"/>
     <use xlink:href="#DejaVuSans-72" x="46.333984"/>
     <use xlink:href="#DejaVuSans-61" x="87.447266"/>
     <use xlink:href="#DejaVuSans-63" x="148.726562"/>
     <use xlink:href="#DejaVuSans-6b" x="203.707031"/>
     <use xlink:href="#DejaVuSans-69" x="261.617188"/>
     <use xlink:href="#DejaVuSans-6e" x="289.400391"/>
     <use xlink:href="#DejaVuSans-67" x="352.779297"/>
     <use xlink:href="#DejaVuSans-20" x="416.255859"/>
     <use xlink:href="#DejaVuSans-65" x="448.042969"/>
     <use xlink:href="#DejaVuSans-72" x="509.566406"/>
     <use xlink:href="#DejaVuSans-72" x="548.929688"/>
     <use xlink:href="#DejaVuSans-6f" x="587.792969"/>
     <use xlink:href="#DejaVuSans-72" x="648.974609"/>
     <use xlink:href="#DejaVuSans-20" x="690.087891"/>
     <use xlink:href="#DejaVuSans-76" x="721.875"/>
     <use xlink:href="#DejaVuSans-73" x="781.054688"/>
     <use xlink:href="#DejaVuSans-20" x="833.154297"/>
     <use xlink:href="#DejaVuSans-54" x="864.941406"/>
     <use xlink:href="#DejaVuSans-69" x="922.900391"/>
     <use xlink:href="#DejaVuSans-6d" x="950.683594"/>
     <use xlink:href="#DejaVuSans-65" x="1048.095703"/>
    </g>
   </g>
   <g id="legend_1">
    <g id="patch_7">
     <path d="M 311.00125 64.150125 
L 407.72 64.150125 
Q 409.72 64.150125 409.72 62.150125 
L 409.72 48.472 
Q 409.72 46.472 407.72 46.472 
L 311.00125 46.472 
Q 309.00125 46.472 309.00125 48.472 
L 309.00125 62.150125 
Q 309.00125 64.150125 311.00125 64.150125 
z
" style="fill: #ffffff; opacity: 0.8; stroke: #cccccc; stroke-linejoin: miter"/>
    </g>
    <g id="line2d_34">
     <path d="M 313.00125 54.570438 
L 323.00125 54.570438 
L 333.00125 54.570438 
" style="fill: none; stroke: #1f77b4; stroke-width: 1.5; stroke-linecap: square"/>
    </g>
    <g id="text_20">
     <!-- Actual speed -->
     <g transform="translate(341.00125 58.070438) scale(0.1 -0.1)">
      <defs>
       <path id="DejaVuSans-41" d="M 2188 4044 
L 1331 1722 
L 3047 1722 
L 2188 4044 
z
M 1831 4666 
L 2547 4666 
L 4325 0 
L 3669 0 
L 3244 1197 
L 1141 1197 
L 716 0 
L 50 0 
L 1831 4666 
z
" transform="scale(0.015625)"/>
       <path id="DejaVuSans-74" d="M 1172 4494 
L 1172 3500 
L 2356 3500 
L 2356 3053 
L 1172 3053 
L 1172 1153 
Q 1172 725 1289 603 
Q 1406 481 1766 481 
L 2356 481 
L 2356 0 
L 1766 0 
Q 1100 0 847 248 
Q 594 497 594 1153 
L 594 3053 
L 172 3053 
L 172 3500 
L 594 3500 
L 594 4494 
L 1172 4494 
z
" transform="scale(0.015625)"/>
       <path id="DejaVuSans-75" d="M 544 1381 
L 544 3500 
L 1119 3500 
L 1119 1403 
Q 1119 906 1312 657 
Q 1506 409 1894 409 
Q 2359 409 2629 706 
Q 2900 1003 2900 1516 
L 2900 3500 
L 3475 3500 
L 3475 0 
L 2900 0 
L 2900 538 
Q 2691 219 2414 64 
Q 2138 -91 1772 -91 
Q 1169 -91 856 284 
Q 544 659 544 1381 
z
M 1991 3584 
L 1991 3584 
z
" transform="scale(0.015625)"/>
       <path id="DejaVuSans-6c" d="M 603 4863 
L 1178 4863 
L 1178 0 
L 603 0 
L 603 4863 
z
" transform="scale(0.015625)"/>
       <path id="DejaVuSans-70" d="M 1159 525 
L 1159 -1331 
L 581 -1331 
L 581 3500 
L 1159 3500 
L 1159 2969 
Q 1341 3281 1617 3432 
Q 1894 3584 2278 3584 
Q 2916 3584 3314 3078 
Q 3713 2572 3713 1747 
Q 3713 922 3314 415 
Q 2916 -91 2278 -91 
Q 1894 -91 1617 61 
Q 1341 213 1159 525 
z
M 3116 1747 
Q 3116 2381 2855 2742 
Q 2594 3103 2138 3103 
Q 1681 3103 1420 2742 
Q 1159 2381 1159 1747 
Q 1159 1113 1420 752 
Q 1681 391 2138 391 
Q 2594 391 2855 752 
Q 3116 1113 3116 1747 
z
" transform="scale(0.015625)"/>
       <path id="DejaVuSans-64" d="M 2906 2969 
L 2906 4863 
L 3481 4863 
L 3481 0 
L 2906 0 
L 2906 525 
Q 2725 213 2448 61 
Q 2172 -91 1784 -91 
Q 1150 -91 751 415 
Q 353 922 353 1747 
Q 353 2572 751 3078 
Q 1150 3584 1784 3584 
Q 2172 3584 2448 3432 
Q 2725 3281 2906 2969 
z
M 947 1747 
Q 947 1113 1208 752 
Q 1469 391 1925 391 
Q 2381 391 2643 752 
Q 2906 1113 2906 1747 
Q 2906 2381 2643 2742 
Q 2381 3103 1925 3103 
Q 1469 3103 1208 2742 
Q 947 2381 947 1747 
z
" transform="scale(0.015625)"/>
      </defs>
      <use xlink:href="#DejaVuSans-41"/>
      <use xlink:href="#DejaVuSans-63" x="66.658203"/>
      <use xlink:href="#DejaVuSans-74" x="121.638672"/>
      <use xlink:href="#DejaVuSans-75" x="160.847656"/>
      <use xlink:href="#DejaVuSans-61" x="224.226562"/>
      <use xlink:href="#DejaVuSans-6c" x="285.505859"/>
      <use xlink:href="#DejaVuSans-20" x="313.289062"/>
      <use xlink:href="#DejaVuSans-73" x="345.076172"/>
      <use xlink:href="#DejaVuSans-70" x="397.175781"/>
      <use xlink:href="#DejaVuSans-65" x="460.652344"/>
      <use xlink:href="#DejaVuSans-65" x="522.175781"/>
      <use xlink:href="#DejaVuSans-64" x="583.699219"/>
     </g>
    </g>
   </g>
  </g>
 </g>
 <defs>
  <clipPath id="p5576e6abf6">
   <rect x="57.6" y="41.472" width="357.12" height="266.112"/>
  </clipPath>
 </defs>
</svg>
