<?xml version="1.0" encoding="utf-8" standalone="no"?>
<!DOCTYPE svg PUBLIC "-//W3C//DTD SVG 1.1//EN"
  "http://www.w3.org/Graphics/SVG/1.1/DTD/svg11.dtd">
<svg xmlns:xlink="http://www.w3.org/1999/xlink" width="460.8pt" height="345.6pt" viewBox="0 0 460.8 345.6" xmlns="http://www.w3.org/2000/svg" version="1.1">
 <metadata>
  <rdf:RDF xmlns:dc="http://purl.org/dc/elements/1.1/" xmlns:cc="http://creativecommons.org/ns#" xmlns:rdf="http://www.w3.org/1999/02/22-rdf-syntax-ns#">
   <cc:Work>
    <dc:type rdf:resource="http://purl.org/dc/dcmitype/StillImage"/>
    <dc:date>2024-01-30T20:58:33.529778</dc:date>
    <dc:format>image/svg+xml</dc:format>
    <dc:creator>
     <cc:Agent>
      <dc:title>Matplotlib v3.7.1, https://matplotlib.org/</dc:title>
     </cc:Agent>
    </dc:creator>
   </cc:Work>
  </rdf:RDF>
 </metadata>
 <defs>
  <style type="text/css">*{stroke-linejoin: round; stroke-linecap: butt}</style>
 </defs>
 <g id="figure_1">
  <g id="patch_1">
   <path d="M 0 345.6 
L 460.8 345.6 
L 460.8 0 
L 0 0 
z
" style="fill: #ffffff"/>
  </g>
  <g id="axes_1">
   <g id="patch_2">
    <path d="M 57.6 307.584 
L 414.72 307.584 
L 414.72 41.472 
L 57.6 41.472 
z
" style="fill: #ffffff"/>
   </g>
   <g id="matplotlib.axis_1">
    <g id="xtick_1">
     <g id="line2d_1">
      <path d="M 73.832727 307.584 
L 73.832727 41.472 
" clip-path="url(#pb759ebfe49)" style="fill: none; stroke: #b0b0b0; stroke-width: 0.8; stroke-linecap: square"/>
     </g>
     <g id="line2d_2">
      <defs>
       <path id="m735867db72" d="M 0 0 
L 0 3.5 
" style="stroke: #000000; stroke-width: 0.8"/>
      </defs>
      <g>
       <use xlink:href="#m735867db72" x="73.832727" y="307.584" style="stroke: #000000; stroke-width: 0.8"/>
      </g>
     </g>
     <g id="text_1">
      <!-- 0 -->
      <g transform="translate(70.651477 322.182437) scale(0.1 -0.1)">
       <defs>
        <path id="DejaVuSans-30" d="M 2034 4250 
Q 1547 4250 1301 3770 
Q 1056 3291 1056 2328 
Q 1056 1369 1301 889 
Q 1547 409 2034 409 
Q 2525 409 2770 889 
Q 3016 1369 3016 2328 
Q 3016 3291 2770 3770 
Q 2525 4250 2034 4250 
z
M 2034 4750 
Q 2819 4750 3233 4129 
Q 3647 3509 3647 2328 
Q 3647 1150 3233 529 
Q 2819 -91 2034 -91 
Q 1250 -91 836 529 
Q 422 1150 422 2328 
Q 422 3509 836 4129 
Q 1250 4750 2034 4750 
z
" transform="scale(0.015625)"/>
       </defs>
       <use xlink:href="#DejaVuSans-30"/>
      </g>
     </g>
    </g>
    <g id="xtick_2">
     <g id="line2d_3">
      <path d="M 125.332497 307.584 
L 125.332497 41.472 
" clip-path="url(#pb759ebfe49)" style="fill: none; stroke: #b0b0b0; stroke-width: 0.8; stroke-linecap: square"/>
     </g>
     <g id="line2d_4">
      <g>
       <use xlink:href="#m735867db72" x="125.332497" y="307.584" style="stroke: #000000; stroke-width: 0.8"/>
      </g>
     </g>
     <g id="text_2">
      <!-- 5 -->
      <g transform="translate(122.151247 322.182437) scale(0.1 -0.1)">
       <defs>
        <path id="DejaVuSans-35" d="M 691 4666 
L 3169 4666 
L 3169 4134 
L 1269 4134 
L 1269 2991 
Q 1406 3038 1543 3061 
Q 1681 3084 1819 3084 
Q 2600 3084 3056 2656 
Q 3513 2228 3513 1497 
Q 3513 744 3044 326 
Q 2575 -91 1722 -91 
Q 1428 -91 1123 -41 
Q 819 9 494 109 
L 494 744 
Q 775 591 1075 516 
Q 1375 441 1709 441 
Q 2250 441 2565 725 
Q 2881 1009 2881 1497 
Q 2881 1984 2565 2268 
Q 2250 2553 1709 2553 
Q 1456 2553 1204 2497 
Q 953 2441 691 2322 
L 691 4666 
z
" transform="scale(0.015625)"/>
       </defs>
       <use xlink:href="#DejaVuSans-35"/>
      </g>
     </g>
    </g>
    <g id="xtick_3">
     <g id="line2d_5">
      <path d="M 176.832266 307.584 
L 176.832266 41.472 
" clip-path="url(#pb759ebfe49)" style="fill: none; stroke: #b0b0b0; stroke-width: 0.8; stroke-linecap: square"/>
     </g>
     <g id="line2d_6">
      <g>
       <use xlink:href="#m735867db72" x="176.832266" y="307.584" style="stroke: #000000; stroke-width: 0.8"/>
      </g>
     </g>
     <g id="text_3">
      <!-- 10 -->
      <g transform="translate(170.469766 322.182437) scale(0.1 -0.1)">
       <defs>
        <path id="DejaVuSans-31" d="M 794 531 
L 1825 531 
L 1825 4091 
L 703 3866 
L 703 4441 
L 1819 4666 
L 2450 4666 
L 2450 531 
L 3481 531 
L 3481 0 
L 794 0 
L 794 531 
z
" transform="scale(0.015625)"/>
       </defs>
       <use xlink:href="#DejaVuSans-31"/>
       <use xlink:href="#DejaVuSans-30" x="63.623047"/>
      </g>
     </g>
    </g>
    <g id="xtick_4">
     <g id="line2d_7">
      <path d="M 228.332035 307.584 
L 228.332035 41.472 
" clip-path="url(#pb759ebfe49)" style="fill: none; stroke: #b0b0b0; stroke-width: 0.8; stroke-linecap: square"/>
     </g>
     <g id="line2d_8">
      <g>
       <use xlink:href="#m735867db72" x="228.332035" y="307.584" style="stroke: #000000; stroke-width: 0.8"/>
      </g>
     </g>
     <g id="text_4">
      <!-- 15 -->
      <g transform="translate(221.969535 322.182437) scale(0.1 -0.1)">
       <use xlink:href="#DejaVuSans-31"/>
       <use xlink:href="#DejaVuSans-35" x="63.623047"/>
      </g>
     </g>
    </g>
    <g id="xtick_5">
     <g id="line2d_9">
      <path d="M 279.831804 307.584 
L 279.831804 41.472 
" clip-path="url(#pb759ebfe49)" style="fill: none; stroke: #b0b0b0; stroke-width: 0.8; stroke-linecap: square"/>
     </g>
     <g id="line2d_10">
      <g>
       <use xlink:href="#m735867db72" x="279.831804" y="307.584" style="stroke: #000000; stroke-width: 0.8"/>
      </g>
     </g>
     <g id="text_5">
      <!-- 20 -->
      <g transform="translate(273.469304 322.182437) scale(0.1 -0.1)">
       <defs>
        <path id="DejaVuSans-32" d="M 1228 531 
L 3431 531 
L 3431 0 
L 469 0 
L 469 531 
Q 828 903 1448 1529 
Q 2069 2156 2228 2338 
Q 2531 2678 2651 2914 
Q 2772 3150 2772 3378 
Q 2772 3750 2511 3984 
Q 2250 4219 1831 4219 
Q 1534 4219 1204 4116 
Q 875 4013 500 3803 
L 500 4441 
Q 881 4594 1212 4672 
Q 1544 4750 1819 4750 
Q 2544 4750 2975 4387 
Q 3406 4025 3406 3419 
Q 3406 3131 3298 2873 
Q 3191 2616 2906 2266 
Q 2828 2175 2409 1742 
Q 1991 1309 1228 531 
z
" transform="scale(0.015625)"/>
       </defs>
       <use xlink:href="#DejaVuSans-32"/>
       <use xlink:href="#DejaVuSans-30" x="63.623047"/>
      </g>
     </g>
    </g>
    <g id="xtick_6">
     <g id="line2d_11">
      <path d="M 331.331574 307.584 
L 331.331574 41.472 
" clip-path="url(#pb759ebfe49)" style="fill: none; stroke: #b0b0b0; stroke-width: 0.8; stroke-linecap: square"/>
     </g>
     <g id="line2d_12">
      <g>
       <use xlink:href="#m735867db72" x="331.331574" y="307.584" style="stroke: #000000; stroke-width: 0.8"/>
      </g>
     </g>
     <g id="text_6">
      <!-- 25 -->
      <g transform="translate(324.969074 322.182437) scale(0.1 -0.1)">
       <use xlink:href="#DejaVuSans-32"/>
       <use xlink:href="#DejaVuSans-35" x="63.623047"/>
      </g>
     </g>
    </g>
    <g id="xtick_7">
     <g id="line2d_13">
      <path d="M 382.831343 307.584 
L 382.831343 41.472 
" clip-path="url(#pb759ebfe49)" style="fill: none; stroke: #b0b0b0; stroke-width: 0.8; stroke-linecap: square"/>
     </g>
     <g id="line2d_14">
      <g>
       <use xlink:href="#m735867db72" x="382.831343" y="307.584" style="stroke: #000000; stroke-width: 0.8"/>
      </g>
     </g>
     <g id="text_7">
      <!-- 30 -->
      <g transform="translate(376.468843 322.182437) scale(0.1 -0.1)">
       <defs>
        <path id="DejaVuSans-33" d="M 2597 2516 
Q 3050 2419 3304 2112 
Q 3559 1806 3559 1356 
Q 3559 666 3084 287 
Q 2609 -91 1734 -91 
Q 1441 -91 1130 -33 
Q 819 25 488 141 
L 488 750 
Q 750 597 1062 519 
Q 1375 441 1716 441 
Q 2309 441 2620 675 
Q 2931 909 2931 1356 
Q 2931 1769 2642 2001 
Q 2353 2234 1838 2234 
L 1294 2234 
L 1294 2753 
L 1863 2753 
Q 2328 2753 2575 2939 
Q 2822 3125 2822 3475 
Q 2822 3834 2567 4026 
Q 2313 4219 1838 4219 
Q 1578 4219 1281 4162 
Q 984 4106 628 3988 
L 628 4550 
Q 988 4650 1302 4700 
Q 1616 4750 1894 4750 
Q 2613 4750 3031 4423 
Q 3450 4097 3450 3541 
Q 3450 3153 3228 2886 
Q 3006 2619 2597 2516 
z
" transform="scale(0.015625)"/>
       </defs>
       <use xlink:href="#DejaVuSans-33"/>
       <use xlink:href="#DejaVuSans-30" x="63.623047"/>
      </g>
     </g>
    </g>
    <g id="text_8">
     <!-- Time(s) -->
     <g transform="translate(217.420156 335.860562) scale(0.1 -0.1)">
      <defs>
       <path id="DejaVuSans-54" d="M -19 4666 
L 3928 4666 
L 3928 4134 
L 2272 4134 
L 2272 0 
L 1638 0 
L 1638 4134 
L -19 4134 
L -19 4666 
z
" transform="scale(0.015625)"/>
       <path id="DejaVuSans-69" d="M 603 3500 
L 1178 3500 
L 1178 0 
L 603 0 
L 603 3500 
z
M 603 4863 
L 1178 4863 
L 1178 4134 
L 603 4134 
L 603 4863 
z
" transform="scale(0.015625)"/>
       <path id="DejaVuSans-6d" d="M 3328 2828 
Q 3544 3216 3844 3400 
Q 4144 3584 4550 3584 
Q 5097 3584 5394 3201 
Q 5691 2819 5691 2113 
L 5691 0 
L 5113 0 
L 5113 2094 
Q 5113 2597 4934 2840 
Q 4756 3084 4391 3084 
Q 3944 3084 3684 2787 
Q 3425 2491 3425 1978 
L 3425 0 
L 2847 0 
L 2847 2094 
Q 2847 2600 2669 2842 
Q 2491 3084 2119 3084 
Q 1678 3084 1418 2786 
Q 1159 2488 1159 1978 
L 1159 0 
L 581 0 
L 581 3500 
L 1159 3500 
L 1159 2956 
Q 1356 3278 1631 3431 
Q 1906 3584 2284 3584 
Q 2666 3584 2933 3390 
Q 3200 3197 3328 2828 
z
" transform="scale(0.015625)"/>
       <path id="DejaVuSans-65" d="M 3597 1894 
L 3597 1613 
L 953 1613 
Q 991 1019 1311 708 
Q 1631 397 2203 397 
Q 2534 397 2845 478 
Q 3156 559 3463 722 
L 3463 178 
Q 3153 47 2828 -22 
Q 2503 -91 2169 -91 
Q 1331 -91 842 396 
Q 353 884 353 1716 
Q 353 2575 817 3079 
Q 1281 3584 2069 3584 
Q 2775 3584 3186 3129 
Q 3597 2675 3597 1894 
z
M 3022 2063 
Q 3016 2534 2758 2815 
Q 2500 3097 2075 3097 
Q 1594 3097 1305 2825 
Q 1016 2553 972 2059 
L 3022 2063 
z
" transform="scale(0.015625)"/>
       <path id="DejaVuSans-28" d="M 1984 4856 
Q 1566 4138 1362 3434 
Q 1159 2731 1159 2009 
Q 1159 1288 1364 580 
Q 1569 -128 1984 -844 
L 1484 -844 
Q 1016 -109 783 600 
Q 550 1309 550 2009 
Q 550 2706 781 3412 
Q 1013 4119 1484 4856 
L 1984 4856 
z
" transform="scale(0.015625)"/>
       <path id="DejaVuSans-73" d="M 2834 3397 
L 2834 2853 
Q 2591 2978 2328 3040 
Q 2066 3103 1784 3103 
Q 1356 3103 1142 2972 
Q 928 2841 928 2578 
Q 928 2378 1081 2264 
Q 1234 2150 1697 2047 
L 1894 2003 
Q 2506 1872 2764 1633 
Q 3022 1394 3022 966 
Q 3022 478 2636 193 
Q 2250 -91 1575 -91 
Q 1294 -91 989 -36 
Q 684 19 347 128 
L 347 722 
Q 666 556 975 473 
Q 1284 391 1588 391 
Q 1994 391 2212 530 
Q 2431 669 2431 922 
Q 2431 1156 2273 1281 
Q 2116 1406 1581 1522 
L 1381 1569 
Q 847 1681 609 1914 
Q 372 2147 372 2553 
Q 372 3047 722 3315 
Q 1072 3584 1716 3584 
Q 2034 3584 2315 3537 
Q 2597 3491 2834 3397 
z
" transform="scale(0.015625)"/>
       <path id="DejaVuSans-29" d="M 513 4856 
L 1013 4856 
Q 1481 4119 1714 3412 
Q 1947 2706 1947 2009 
Q 1947 1309 1714 600 
Q 1481 -109 1013 -844 
L 513 -844 
Q 928 -128 1133 580 
Q 1338 1288 1338 2009 
Q 1338 2731 1133 3434 
Q 928 4138 513 4856 
z
" transform="scale(0.015625)"/>
      </defs>
      <use xlink:href="#DejaVuSans-54"/>
      <use xlink:href="#DejaVuSans-69" x="57.958984"/>
      <use xlink:href="#DejaVuSans-6d" x="85.742188"/>
      <use xlink:href="#DejaVuSans-65" x="183.154297"/>
      <use xlink:href="#DejaVuSans-28" x="244.677734"/>
      <use xlink:href="#DejaVuSans-73" x="283.691406"/>
      <use xlink:href="#DejaVuSans-29" x="335.791016"/>
     </g>
    </g>
   </g>
   <g id="matplotlib.axis_2">
    <g id="ytick_1">
     <g id="line2d_15">
      <path d="M 57.6 266.020517 
L 414.72 266.020517 
" clip-path="url(#pb759ebfe49)" style="fill: none; stroke: #b0b0b0; stroke-width: 0.8; stroke-linecap: square"/>
     </g>
     <g id="line2d_16">
      <defs>
       <path id="m2ec22a7ceb" d="M 0 0 
L -3.5 0 
" style="stroke: #000000; stroke-width: 0.8"/>
      </defs>
      <g>
       <use xlink:href="#m2ec22a7ceb" x="57.6" y="266.020517" style="stroke: #000000; stroke-width: 0.8"/>
      </g>
     </g>
     <g id="text_9">
      <!-- 4 -->
      <g transform="translate(44.2375 269.819736) scale(0.1 -0.1)">
       <defs>
        <path id="DejaVuSans-34" d="M 2419 4116 
L 825 1625 
L 2419 1625 
L 2419 4116 
z
M 2253 4666 
L 3047 4666 
L 3047 1625 
L 3713 1625 
L 3713 1100 
L 3047 1100 
L 3047 0 
L 2419 0 
L 2419 1100 
L 313 1100 
L 313 1709 
L 2253 4666 
z
" transform="scale(0.015625)"/>
       </defs>
       <use xlink:href="#DejaVuSans-34"/>
      </g>
     </g>
    </g>
    <g id="ytick_2">
     <g id="line2d_17">
      <path d="M 57.6 212.907388 
L 414.72 212.907388 
" clip-path="url(#pb759ebfe49)" style="fill: none; stroke: #b0b0b0; stroke-width: 0.8; stroke-linecap: square"/>
     </g>
     <g id="line2d_18">
      <g>
       <use xlink:href="#m2ec22a7ceb" x="57.6" y="212.907388" style="stroke: #000000; stroke-width: 0.8"/>
      </g>
     </g>
     <g id="text_10">
      <!-- 5 -->
      <g transform="translate(44.2375 216.706607) scale(0.1 -0.1)">
       <use xlink:href="#DejaVuSans-35"/>
      </g>
     </g>
    </g>
    <g id="ytick_3">
     <g id="line2d_19">
      <path d="M 57.6 159.794259 
L 414.72 159.794259 
" clip-path="url(#pb759ebfe49)" style="fill: none; stroke: #b0b0b0; stroke-width: 0.8; stroke-linecap: square"/>
     </g>
     <g id="line2d_20">
      <g>
       <use xlink:href="#m2ec22a7ceb" x="57.6" y="159.794259" style="stroke: #000000; stroke-width: 0.8"/>
      </g>
     </g>
     <g id="text_11">
      <!-- 6 -->
      <g transform="translate(44.2375 163.593477) scale(0.1 -0.1)">
       <defs>
        <path id="DejaVuSans-36" d="M 2113 2584 
Q 1688 2584 1439 2293 
Q 1191 2003 1191 1497 
Q 1191 994 1439 701 
Q 1688 409 2113 409 
Q 2538 409 2786 701 
Q 3034 994 3034 1497 
Q 3034 2003 2786 2293 
Q 2538 2584 2113 2584 
z
M 3366 4563 
L 3366 3988 
Q 3128 4100 2886 4159 
Q 2644 4219 2406 4219 
Q 1781 4219 1451 3797 
Q 1122 3375 1075 2522 
Q 1259 2794 1537 2939 
Q 1816 3084 2150 3084 
Q 2853 3084 3261 2657 
Q 3669 2231 3669 1497 
Q 3669 778 3244 343 
Q 2819 -91 2113 -91 
Q 1303 -91 875 529 
Q 447 1150 447 2328 
Q 447 3434 972 4092 
Q 1497 4750 2381 4750 
Q 2619 4750 2861 4703 
Q 3103 4656 3366 4563 
z
" transform="scale(0.015625)"/>
       </defs>
       <use xlink:href="#DejaVuSans-36"/>
      </g>
     </g>
    </g>
    <g id="ytick_4">
     <g id="line2d_21">
      <path d="M 57.6 106.681129 
L 414.72 106.681129 
" clip-path="url(#pb759ebfe49)" style="fill: none; stroke: #b0b0b0; stroke-width: 0.8; stroke-linecap: square"/>
     </g>
     <g id="line2d_22">
      <g>
       <use xlink:href="#m2ec22a7ceb" x="57.6" y="106.681129" style="stroke: #000000; stroke-width: 0.8"/>
      </g>
     </g>
     <g id="text_12">
      <!-- 7 -->
      <g transform="translate(44.2375 110.480348) scale(0.1 -0.1)">
       <defs>
        <path id="DejaVuSans-37" d="M 525 4666 
L 3525 4666 
L 3525 4397 
L 1831 0 
L 1172 0 
L 2766 4134 
L 525 4134 
L 525 4666 
z
" transform="scale(0.015625)"/>
       </defs>
       <use xlink:href="#DejaVuSans-37"/>
      </g>
     </g>
    </g>
    <g id="ytick_5">
     <g id="line2d_23">
      <path d="M 57.6 53.568 
L 414.72 53.568 
" clip-path="url(#pb759ebfe49)" style="fill: none; stroke: #b0b0b0; stroke-width: 0.8; stroke-linecap: square"/>
     </g>
     <g id="line2d_24">
      <g>
       <use xlink:href="#m2ec22a7ceb" x="57.6" y="53.568" style="stroke: #000000; stroke-width: 0.8"/>
      </g>
     </g>
     <g id="text_13">
      <!-- 8 -->
      <g transform="translate(44.2375 57.367219) scale(0.1 -0.1)">
       <defs>
        <path id="DejaVuSans-38" d="M 2034 2216 
Q 1584 2216 1326 1975 
Q 1069 1734 1069 1313 
Q 1069 891 1326 650 
Q 1584 409 2034 409 
Q 2484 409 2743 651 
Q 3003 894 3003 1313 
Q 3003 1734 2745 1975 
Q 2488 2216 2034 2216 
z
M 1403 2484 
Q 997 2584 770 2862 
Q 544 3141 544 3541 
Q 544 4100 942 4425 
Q 1341 4750 2034 4750 
Q 2731 4750 3128 4425 
Q 3525 4100 3525 3541 
Q 3525 3141 3298 2862 
Q 3072 2584 2669 2484 
Q 3125 2378 3379 2068 
Q 3634 1759 3634 1313 
Q 3634 634 3220 271 
Q 2806 -91 2034 -91 
Q 1263 -91 848 271 
Q 434 634 434 1313 
Q 434 1759 690 2068 
Q 947 2378 1403 2484 
z
M 1172 3481 
Q 1172 3119 1398 2916 
Q 1625 2713 2034 2713 
Q 2441 2713 2670 2916 
Q 2900 3119 2900 3481 
Q 2900 3844 2670 4047 
Q 2441 4250 2034 4250 
Q 1625 4250 1398 4047 
Q 1172 3844 1172 3481 
z
" transform="scale(0.015625)"/>
       </defs>
       <use xlink:href="#DejaVuSans-38"/>
      </g>
     </g>
    </g>
    <g id="text_14">
     <!-- Velocity(m/s) -->
     <g transform="translate(38.157812 207.204563) rotate(-90) scale(0.1 -0.1)">
      <defs>
       <path id="DejaVuSans-56" d="M 1831 0 
L 50 4666 
L 709 4666 
L 2188 738 
L 3669 4666 
L 4325 4666 
L 2547 0 
L 1831 0 
z
" transform="scale(0.015625)"/>
       <path id="DejaVuSans-6c" d="M 603 4863 
L 1178 4863 
L 1178 0 
L 603 0 
L 603 4863 
z
" transform="scale(0.015625)"/>
       <path id="DejaVuSans-6f" d="M 1959 3097 
Q 1497 3097 1228 2736 
Q 959 2375 959 1747 
Q 959 1119 1226 758 
Q 1494 397 1959 397 
Q 2419 397 2687 759 
Q 2956 1122 2956 1747 
Q 2956 2369 2687 2733 
Q 2419 3097 1959 3097 
z
M 1959 3584 
Q 2709 3584 3137 3096 
Q 3566 2609 3566 1747 
Q 3566 888 3137 398 
Q 2709 -91 1959 -91 
Q 1206 -91 779 398 
Q 353 888 353 1747 
Q 353 2609 779 3096 
Q 1206 3584 1959 3584 
z
" transform="scale(0.015625)"/>
       <path id="DejaVuSans-63" d="M 3122 3366 
L 3122 2828 
Q 2878 2963 2633 3030 
Q 2388 3097 2138 3097 
Q 1578 3097 1268 2742 
Q 959 2388 959 1747 
Q 959 1106 1268 751 
Q 1578 397 2138 397 
Q 2388 397 2633 464 
Q 2878 531 3122 666 
L 3122 134 
Q 2881 22 2623 -34 
Q 2366 -91 2075 -91 
Q 1284 -91 818 406 
Q 353 903 353 1747 
Q 353 2603 823 3093 
Q 1294 3584 2113 3584 
Q 2378 3584 2631 3529 
Q 2884 3475 3122 3366 
z
" transform="scale(0.015625)"/>
       <path id="DejaVuSans-74" d="M 1172 4494 
L 1172 3500 
L 2356 3500 
L 2356 3053 
L 1172 3053 
L 1172 1153 
Q 1172 725 1289 603 
Q 1406 481 1766 481 
L 2356 481 
L 2356 0 
L 1766 0 
Q 1100 0 847 248 
Q 594 497 594 1153 
L 594 3053 
L 172 3053 
L 172 3500 
L 594 3500 
L 594 4494 
L 1172 4494 
z
" transform="scale(0.015625)"/>
       <path id="DejaVuSans-79" d="M 2059 -325 
Q 1816 -950 1584 -1140 
Q 1353 -1331 966 -1331 
L 506 -1331 
L 506 -850 
L 844 -850 
Q 1081 -850 1212 -737 
Q 1344 -625 1503 -206 
L 1606 56 
L 191 3500 
L 800 3500 
L 1894 763 
L 2988 3500 
L 3597 3500 
L 2059 -325 
z
" transform="scale(0.015625)"/>
       <path id="DejaVuSans-2f" d="M 1625 4666 
L 2156 4666 
L 531 -594 
L 0 -594 
L 1625 4666 
z
" transform="scale(0.015625)"/>
      </defs>
      <use xlink:href="#DejaVuSans-56"/>
      <use xlink:href="#DejaVuSans-65" x="60.658203"/>
      <use xlink:href="#DejaVuSans-6c" x="122.181641"/>
      <use xlink:href="#DejaVuSans-6f" x="149.964844"/>
      <use xlink:href="#DejaVuSans-63" x="211.146484"/>
      <use xlink:href="#DejaVuSans-69" x="266.126953"/>
      <use xlink:href="#DejaVuSans-74" x="293.910156"/>
      <use xlink:href="#DejaVuSans-79" x="333.119141"/>
      <use xlink:href="#DejaVuSans-28" x="392.298828"/>
      <use xlink:href="#DejaVuSans-6d" x="431.3125"/>
      <use xlink:href="#DejaVuSans-2f" x="528.724609"/>
      <use xlink:href="#DejaVuSans-73" x="562.416016"/>
      <use xlink:href="#DejaVuSans-29" x="614.515625"/>
     </g>
    </g>
   </g>
   <g id="line2d_25">
    <path d="M 73.832727 54.336759 
L 75.068722 54.000182 
L 75.068722 54.000182 
L 76.716714 53.769033 
L 76.716714 53.769033 
L 80.836696 53.611553 
L 80.836696 53.611553 
L 82.278689 53.599815 
L 82.278689 53.599815 
L 86.810669 53.571718 
L 86.810669 53.571718 
L 87.016668 54.378081 
L 87.016668 54.378081 
L 87.428666 57.391349 
L 87.428666 57.391349 
L 89.076659 77.037789 
L 89.076659 77.037789 
L 89.900655 93.225449 
L 89.900655 93.225449 
L 91.13665 124.720951 
L 91.13665 124.720951 
L 92.578643 156.072409 
L 92.578643 156.072409 
L 92.990641 162.103193 
L 92.990641 162.103193 
L 93.40264 169.384047 
L 93.40264 169.384047 
L 93.814638 175.472458 
L 93.814638 175.472458 
L 94.638634 185.686484 
L 94.638634 185.686484 
L 95.874629 196.015341 
L 95.874629 196.015341 
L 96.492626 199.733367 
L 96.492626 199.733367 
L 97.110623 201.982548 
L 97.110623 201.982548 
L 97.522621 202.931892 
L 97.522621 202.931892 
L 98.140618 203.680681 
L 98.140618 203.680681 
L 98.552617 203.926223 
L 98.552617 203.926223 
L 99.170614 204.265669 
L 99.170614 204.265669 
L 100.406608 204.055713 
L 100.406608 204.055713 
L 100.818606 203.808047 
L 100.818606 203.808047 
L 101.230605 203.352123 
L 101.230605 203.352123 
L 101.642603 202.654058 
L 101.642603 202.654058 
L 102.466599 199.67781 
L 102.466599 199.67781 
L 103.290595 194.613314 
L 103.290595 194.613314 
L 103.908593 188.887613 
L 103.908593 188.887613 
L 105.144587 168.492861 
L 105.144587 168.492861 
L 106.586581 141.320131 
L 106.586581 141.320131 
L 107.204578 134.118947 
L 107.204578 134.118947 
L 108.028574 127.452931 
L 108.028574 127.452931 
L 108.85257 122.729208 
L 108.85257 122.729208 
L 110.294564 113.881782 
L 110.294564 113.881782 
L 110.706562 110.223775 
L 110.706562 110.223775 
L 111.530558 99.000387 
L 111.530558 99.000387 
L 112.148556 87.653085 
L 112.148556 87.653085 
L 112.766553 80.323526 
L 112.766553 80.323526 
L 113.38455 76.160997 
L 113.38455 76.160997 
L 114.002547 73.521275 
L 114.002547 73.521275 
L 114.826544 71.175799 
L 114.826544 71.175799 
L 116.268537 67.544136 
L 116.268537 67.544136 
L 116.680535 65.989727 
L 116.680535 65.989727 
L 117.504532 62.008685 
L 117.504532 62.008685 
L 118.328528 59.284301 
L 118.328528 59.284301 
L 119.152524 57.439257 
L 119.152524 57.439257 
L 119.976521 56.189717 
L 119.976521 56.189717 
L 120.800517 55.343519 
L 120.800517 55.343519 
L 121.830512 54.658784 
L 121.830512 54.658784 
L 122.860508 54.240943 
L 122.860508 54.240943 
L 124.302501 53.91366 
L 124.302501 53.91366 
L 126.362492 53.698446 
L 126.362492 53.698446 
L 130.070475 53.590679 
L 130.070475 53.590679 
L 131.924467 53.577454 
L 131.924467 53.577454 
L 132.130466 53.969057 
L 132.954462 62.553414 
L 132.954462 62.553414 
L 134.190457 82.454319 
L 134.190457 82.454319 
L 136.662446 115.181355 
L 136.662446 115.181355 
L 137.692441 125.950944 
L 137.692441 125.950944 
L 139.340434 138.604988 
L 139.340434 138.604988 
L 139.752432 140.840785 
L 139.752432 140.840785 
L 140.576428 144.318155 
L 140.576428 144.318155 
L 140.988426 145.524779 
L 140.988426 145.524779 
L 141.606424 146.556873 
L 141.606424 146.556873 
L 142.224421 147.218026 
L 142.224421 147.218026 
L 144.490411 147.479873 
L 144.490411 147.479873 
L 145.932404 146.779205 
L 145.932404 146.779205 
L 146.344402 146.261299 
L 146.344402 146.261299 
L 146.756401 145.737338 
L 146.756401 145.737338 
L 147.374398 144.625361 
L 147.374398 144.625361 
L 147.786396 143.752447 
L 147.786396 143.752447 
L 149.434389 137.805211 
L 149.434389 137.805211 
L 150.670383 129.790333 
L 150.670383 129.790333 
L 152.112377 115.600842 
L 152.112377 115.600842 
L 152.730374 106.689096 
L 152.730374 106.689096 
L 153.348371 96.30787 
L 153.348371 96.30787 
L 154.378366 80.092856 
L 154.378366 80.092856 
L 155.202363 71.531498 
L 155.202363 71.531498 
L 156.026359 65.733456 
L 156.026359 65.733456 
L 156.850355 61.806856 
L 156.850355 61.806856 
L 157.674352 59.147587 
L 157.674352 59.147587 
L 158.498348 57.34668 
L 158.498348 57.34668 
L 159.322344 56.127044 
L 159.322344 56.127044 
L 160.146341 55.301081 
L 160.146341 55.301081 
L 161.176336 54.632706 
L 161.176336 54.632706 
L 162.41233 54.161699 
L 162.41233 54.161699 
L 163.854324 53.868142 
L 163.854324 53.868142 
L 166.326313 53.661745 
L 166.326313 53.661745 
L 169.622298 53.587705 
L 169.622298 53.587705 
L 169.828297 53.765422 
L 169.828297 53.765422 
L 170.034296 54.169188 
L 170.034296 54.169188 
L 170.240295 54.957439 
L 170.240295 54.957439 
L 171.270291 61.921314 
L 171.270291 61.921314 
L 171.682289 65.533273 
L 171.682289 65.533273 
L 172.094287 69.440752 
L 172.094287 69.440752 
L 172.506285 72.996676 
L 172.506285 72.996676 
L 173.536281 84.409785 
L 173.536281 84.409785 
L 174.154278 91.60364 
L 174.154278 91.60364 
L 174.772275 99.55664 
L 174.772275 99.55664 
L 177.450263 138.402255 
L 177.450263 138.402255 
L 177.862261 145.160689 
L 177.862261 145.160689 
L 181.570245 204.186265 
L 181.570245 204.186265 
L 181.776244 206.284818 
L 181.776244 206.284818 
L 182.394241 214.842246 
L 182.394241 214.842246 
L 183.012238 221.905602 
L 183.012238 221.905602 
L 183.630235 230.267202 
L 183.630235 230.267202 
L 183.836234 232.181983 
L 183.836234 232.181983 
L 184.454232 240.186875 
L 184.454232 240.186875 
L 184.660231 241.710001 
L 184.660231 241.710001 
L 184.86623 245.123688 
L 184.86623 245.123688 
L 185.278228 248.167282 
L 185.278228 248.167282 
L 186.514222 260.194219 
L 186.514222 260.194219 
L 187.544218 268.822394 
L 187.544218 268.822394 
L 187.956216 272.475303 
L 187.956216 272.475303 
L 188.574213 276.704542 
L 188.574213 276.704542 
L 188.986211 279.356905 
L 188.986211 279.356905 
L 189.604209 282.602064 
L 189.604209 282.602064 
L 190.016207 284.810136 
L 190.016207 284.810136 
L 191.252201 289.241418 
L 191.252201 289.241418 
L 191.664199 290.210414 
L 191.664199 290.210414 
L 191.870198 290.5403 
L 191.870198 290.5403 
L 192.282197 291.44641 
L 192.282197 291.44641 
L 193.106193 292.74322 
L 193.106193 292.74322 
L 193.930189 293.442295 
L 193.930189 293.442295 
L 194.342187 293.5746 
L 194.342187 293.5746 
L 194.754186 293.6821 
L 194.754186 293.6821 
L 195.784181 293.782803 
L 195.784181 293.782803 
L 196.814176 293.671584 
L 196.814176 293.671584 
L 197.432174 293.440967 
L 197.432174 293.440967 
L 197.844172 293.200311 
L 197.844172 293.200311 
L 198.25617 292.796652 
L 198.25617 292.796652 
L 199.492164 290.105569 
L 199.492164 290.105569 
L 200.110162 287.522943 
L 200.110162 287.522943 
L 200.52216 285.710138 
L 200.52216 285.710138 
L 201.552155 278.616827 
L 201.552155 278.616827 
L 202.994149 261.264024 
L 202.994149 261.264024 
L 203.612146 251.093232 
L 203.612146 251.093232 
L 204.230143 241.150401 
L 204.230143 241.150401 
L 204.642141 236.616505 
L 204.642141 236.616505 
L 205.054139 234.417037 
L 205.054139 234.417037 
L 205.466138 233.74983 
L 205.466138 233.74983 
L 205.878136 234.850015 
L 205.878136 234.850015 
L 206.496133 239.301957 
L 206.496133 239.301957 
L 206.702132 240.233084 
L 206.702132 240.233084 
L 207.11413 242.66115 
L 207.11413 242.66115 
L 207.732127 245.184502 
L 207.732127 245.184502 
L 208.350125 246.910998 
L 208.350125 246.910998 
L 208.762123 247.581604 
L 208.762123 247.581604 
L 209.174121 247.941074 
L 209.174121 247.941074 
L 209.586119 248.098395 
L 209.586119 248.098395 
L 209.998117 248.169513 
L 209.998117 248.169513 
L 211.028113 248.293798 
L 211.028113 248.293798 
L 211.64611 248.14301 
L 211.64611 248.14301 
L 212.676105 247.300476 
L 212.676105 247.300476 
L 213.294102 246.336898 
L 213.294102 246.336898 
L 213.706101 245.405878 
L 213.706101 245.405878 
L 214.118099 244.204512 
L 214.118099 244.204512 
L 214.530097 242.720743 
L 214.530097 242.720743 
L 214.942095 240.892855 
L 214.942095 240.892855 
L 215.766091 237.033283 
L 215.766091 237.033283 
L 216.590088 231.881204 
L 216.590088 231.881204 
L 217.620083 222.87481 
L 217.620083 222.87481 
L 218.23808 216.613038 
L 218.23808 216.613038 
L 219.680074 197.178625 
L 219.680074 197.178625 
L 220.50407 183.524727 
L 220.50407 183.524727 
L 221.328066 166.743262 
L 221.328066 166.743262 
L 222.976059 125.051845 
L 222.976059 125.051845 
L 223.800055 102.361651 
L 223.800055 102.361651 
L 224.624052 86.612599 
L 224.624052 86.612599 
L 225.448048 75.946845 
L 225.448048 75.946845 
L 226.272044 68.723672 
L 226.272044 68.723672 
L 227.096041 63.8319 
L 227.096041 63.8319 
L 227.920037 60.519075 
L 227.920037 60.519075 
L 228.744033 58.275682 
L 228.744033 58.275682 
L 229.56803 56.756169 
L 229.56803 56.756169 
L 230.392026 55.727155 
L 230.392026 55.727155 
L 231.216022 55.030258 
L 231.216022 55.030258 
L 232.246018 54.466355 
L 232.246018 54.466355 
L 233.482012 54.068644 
L 233.482012 54.068644 
L 235.130005 53.797608 
L 235.130005 53.797608 
L 237.601994 53.639331 
L 237.601994 53.639331 
L 239.455985 53.678316 
L 239.455985 53.678316 
L 239.661984 53.909411 
L 239.661984 53.909411 
L 239.867983 55.358178 
L 239.867983 55.358178 
L 240.279982 62.849785 
L 240.279982 62.849785 
L 240.897979 73.863642 
L 240.897979 73.863642 
L 241.721975 90.403442 
L 241.721975 90.403442 
L 242.75197 109.181855 
L 242.75197 109.181855 
L 243.781966 122.717417 
L 243.781966 122.717417 
L 244.193964 128.208518 
L 244.193964 128.208518 
L 246.047956 148.274605 
L 246.047956 148.274605 
L 250.785934 191.755775 
L 250.785934 191.755775 
L 250.991934 195.226983 
L 250.991934 195.226983 
L 251.197933 196.731678 
L 251.197933 196.731678 
L 251.81593 204.250691 
L 251.81593 204.250691 
L 252.433927 210.918673 
L 252.433927 210.918673 
L 253.051924 219.133628 
L 253.051924 219.133628 
L 253.257923 221.128185 
L 253.875921 229.537162 
L 253.875921 229.537162 
L 254.08192 231.597898 
L 254.08192 231.597898 
L 254.699917 240.330175 
L 254.699917 240.330175 
L 255.111915 243.812431 
L 255.111915 243.812431 
L 257.583904 268.212549 
L 257.583904 268.212549 
L 257.995902 270.562699 
L 257.995902 270.562699 
L 258.819898 276.907593 
L 258.819898 276.907593 
L 259.437896 280.391071 
L 259.437896 280.391071 
L 259.849894 283.201977 
L 259.849894 283.201977 
L 260.467891 286.379842 
L 260.467891 286.379842 
L 260.879889 288.466763 
L 260.879889 288.466763 
L 261.497886 290.887659 
L 261.497886 290.887659 
L 261.909885 292.361921 
L 261.909885 292.361921 
L 262.527882 293.836872 
L 262.527882 293.836872 
L 263.557877 294.927072 
L 263.557877 294.927072 
L 264.999871 295.314957 
L 264.999871 295.314957 
L 265.823867 295.183343 
L 265.823867 295.183343 
L 266.441864 294.844322 
L 266.441864 294.844322 
L 267.47186 293.011335 
L 267.47186 293.011335 
L 268.707854 287.463881 
L 268.707854 287.463881 
L 269.325851 282.3425 
L 269.325851 282.3425 
L 269.943849 276.135488 
L 269.943849 276.135488 
L 270.355847 270.19266 
L 270.355847 270.19266 
L 271.385842 256.235592 
L 271.385842 256.235592 
L 271.591841 254.741147 
L 271.591841 254.741147 
L 271.79784 254.405419 
L 271.79784 254.405419 
L 272.003839 253.842951 
L 272.003839 253.842951 
L 272.209838 253.659764 
L 272.209838 253.659764 
L 272.621837 256.019209 
L 272.621837 256.019209 
L 273.033835 260.31298 
L 273.033835 260.31298 
L 273.651832 265.699501 
L 273.651832 265.699501 
L 274.269829 271.259437 
L 274.269829 271.259437 
L 275.093826 275.89207 
L 275.093826 275.89207 
L 275.711823 277.399474 
L 275.711823 277.399474 
L 275.917822 277.67391 
L 275.917822 277.67391 
L 276.32982 277.770682 
L 276.32982 277.770682 
L 276.535819 277.791024 
L 276.535819 277.791024 
L 276.947817 277.981328 
L 276.947817 277.981328 
L 278.389811 277.563806 
L 278.389811 277.563806 
L 278.801809 276.994168 
L 278.801809 276.994168 
L 279.213807 276.226895 
L 279.213807 276.226895 
L 279.419806 275.847349 
L 279.419806 275.847349 
L 279.831804 274.461787 
L 279.831804 274.461787 
L 280.037803 273.854916 
L 280.037803 273.854916 
L 281.067799 268.58142 
L 281.067799 268.58142 
L 282.097794 260.637926 
L 282.097794 260.637926 
L 282.92179 252.23527 
L 282.92179 252.23527 
L 284.775782 225.31828 
L 284.775782 225.31828 
L 286.423775 188.001048 
L 286.423775 188.001048 
L 287.865768 151.974094 
L 287.865768 151.974094 
L 288.483766 139.01943 
L 288.483766 139.01943 
L 289.101763 130.797411 
L 289.101763 130.797411 
L 289.71976 125.358361 
L 289.71976 125.358361 
L 290.337757 121.846787 
L 290.337757 121.846787 
L 290.955754 119.430086 
L 290.955754 119.430086 
L 291.573752 117.629604 
L 291.573752 117.629604 
L 292.191749 116.363653 
L 292.191749 116.363653 
L 293.839742 112.970308 
L 293.839742 112.970308 
L 294.25174 111.878939 
L 294.25174 111.878939 
L 295.075736 107.786148 
L 295.075736 107.786148 
L 295.487734 104.974764 
L 295.487734 104.974764 
L 296.105731 98.418798 
L 296.105731 98.418798 
L 297.135727 85.666335 
L 297.135727 85.666335 
L 297.547725 84.534335 
L 297.547725 84.534335 
L 297.753724 84.472405 
L 297.753724 84.472405 
L 298.783719 97.03775 
L 298.783719 97.03775 
L 299.813715 107.949418 
L 299.813715 107.949418 
L 300.637711 113.202678 
L 300.637711 113.202678 
L 301.255708 115.505716 
L 301.255708 115.505716 
L 301.461707 116.151891 
L 301.461707 116.151891 
L 302.285704 117.069314 
L 302.285704 117.069314 
L 302.903701 117.384859 
L 302.903701 117.384859 
L 303.1097 117.426659 
L 303.1097 117.426659 
L 303.315699 117.588654 
L 303.315699 117.588654 
L 304.139695 117.358515 
L 304.139695 117.358515 
L 304.963692 116.737516 
L 304.963692 116.737516 
L 305.37569 116.289454 
L 305.37569 116.289454 
L 305.581689 115.921964 
L 305.581689 115.921964 
L 306.611684 112.497814 
L 306.611684 112.497814 
L 307.023683 110.451418 
L 307.023683 110.451418 
L 307.435681 108.110191 
L 307.435681 108.110191 
L 308.465676 99.729046 
L 308.465676 99.729046 
L 309.083673 92.905283 
L 309.083673 92.905283 
L 309.90767 82.19125 
L 309.90767 82.19125 
L 310.731666 72.952539 
L 310.731666 72.952539 
L 311.555662 66.695866 
L 311.555662 66.695866 
L 312.379659 62.458607 
L 312.379659 62.458607 
L 313.203655 59.589011 
L 313.203655 59.589011 
L 314.027651 57.645601 
L 314.027651 57.645601 
L 314.851647 56.32967 
L 314.851647 56.32967 
L 315.675644 55.438273 
L 315.675644 55.438273 
L 316.705639 54.719068 
L 316.705639 54.719068 
L 317.735635 54.275148 
L 317.735635 54.275148 
L 319.383627 53.895018 
L 319.383627 53.895018 
L 319.795625 53.837124 
L 319.795625 53.837124 
L 320.001624 55.319246 
L 320.001624 55.319246 
L 321.855616 91.870586 
L 321.855616 91.870586 
L 322.267614 100.481234 
L 322.267614 100.481234 
L 322.679612 108.546516 
L 322.679612 108.546516 
L 323.091611 116.424786 
L 323.091611 116.424786 
L 325.3576 151.915935 
L 325.3576 151.915935 
L 326.593595 167.232859 
L 326.593595 167.232859 
L 327.005593 172.610775 
L 327.005593 172.610775 
L 327.829589 181.651692 
L 327.829589 181.651692 
L 328.447587 187.10163 
L 328.447587 187.10163 
L 329.065584 192.114979 
L 329.065584 192.114979 
L 330.507577 202.54969 
L 330.507577 202.54969 
L 332.979566 214.53419 
L 332.979566 214.53419 
L 336.069552 228.685546 
L 336.069552 228.685546 
L 337.099548 231.005687 
L 337.099548 231.005687 
L 338.129543 231.907654 
L 338.129543 231.907654 
L 339.365538 231.979038 
L 339.365538 231.979038 
L 340.395533 231.244749 
L 340.395533 231.244749 
L 340.807531 230.62221 
L 340.807531 230.62221 
L 341.219529 229.606103 
L 341.219529 229.606103 
L 341.631527 227.937607 
L 341.631527 227.937607 
L 342.249525 224.127058 
L 342.249525 224.127058 
L 342.661523 220.571347 
L 342.661523 220.571347 
L 343.27952 213.346793 
L 343.27952 213.346793 
L 344.309515 199.405765 
L 344.309515 199.405765 
L 344.721514 197.055828 
L 344.721514 197.055828 
L 344.927513 196.489907 
L 344.927513 196.489907 
L 345.133512 196.275914 
L 345.133512 196.275914 
L 345.339511 196.292592 
L 345.339511 196.292592 
L 345.54551 196.986409 
L 345.54551 196.986409 
L 345.957508 199.403906 
L 345.957508 199.403906 
L 346.369506 201.357885 
L 346.369506 201.357885 
L 346.987503 203.211639 
L 346.987503 203.211639 
L 348.017499 203.815217 
L 348.017499 203.815217 
L 348.429497 203.804594 
L 348.429497 203.804594 
L 349.253493 202.90916 
L 349.253493 202.90916 
L 349.871491 201.202423 
L 349.871491 201.202423 
L 350.283489 199.546249 
L 350.283489 199.546249 
L 350.695487 197.328085 
L 350.695487 197.328085 
L 351.313484 192.871735 
L 351.313484 192.871735 
L 351.725482 188.458405 
L 351.725482 188.458405 
L 352.343479 180.98815 
L 352.343479 180.98815 
L 353.373475 165.171963 
L 353.373475 165.171963 
L 355.639465 116.369283 
L 355.639465 116.369283 
L 356.463461 97.001049 
L 356.463461 97.001049 
L 357.287457 82.982263 
L 357.287457 82.982263 
L 358.111454 73.488292 
L 358.111454 73.488292 
L 358.729451 68.439304 
L 358.729451 68.439304 
L 359.141449 67.214516 
L 359.141449 67.214516 
L 359.347448 67.714045 
L 359.347448 67.714045 
L 359.553447 70.72779 
L 359.553447 70.72779 
L 359.965445 80.286188 
L 359.965445 80.286188 
L 360.377443 89.434765 
L 360.377443 89.434765 
L 360.789442 100.389879 
L 360.789442 100.389879 
L 362.849432 145.345628 
L 362.849432 145.345628 
L 363.673429 158.581473 
L 363.673429 158.581473 
L 364.497425 168.911127 
L 364.497425 168.911127 
L 364.909423 174.388578 
L 364.909423 174.388578 
L 365.733419 182.913554 
L 365.733419 182.913554 
L 367.587411 194.309295 
L 367.587411 194.309295 
L 369.029405 199.378199 
L 369.029405 199.378199 
L 370.265399 202.20249 
L 370.265399 202.20249 
L 371.295395 203.314626 
L 371.295395 203.314626 
L 371.707393 203.615618 
L 371.707393 203.615618 
L 372.119391 203.954533 
L 372.119391 203.954533 
L 372.737388 204.379438 
L 372.737388 204.379438 
L 372.943387 204.332273 
L 372.943387 204.332273 
L 373.149386 204.425805 
L 373.149386 204.425805 
L 373.355385 204.376835 
L 373.355385 204.376835 
L 373.561384 204.465906 
L 373.561384 204.465906 
L 374.59138 204.302211 
L 374.59138 204.302211 
L 375.621375 204.175271 
L 375.621375 204.175271 
L 376.239372 203.819997 
L 376.239372 203.819997 
L 377.063369 202.792736 
L 377.063369 202.792736 
L 377.887365 200.950082 
L 377.887365 200.950082 
L 378.505362 198.816315 
L 378.505362 198.816315 
L 379.741357 191.197927 
L 379.741357 191.197927 
L 380.771352 181.849008 
L 380.771352 181.849008 
L 382.419345 158.544772 
L 382.419345 158.544772 
L 383.243341 144.038196 
L 383.243341 144.038196 
L 386.127328 83.564755 
L 386.127328 83.564755 
L 386.951324 73.882763 
L 386.951324 73.882763 
L 387.775321 67.325788 
L 387.775321 67.325788 
L 388.599317 62.885211 
L 388.599317 62.885211 
L 389.423313 59.877946 
L 389.423313 59.877946 
L 390.24731 57.858638 
L 390.24731 57.858638 
L 391.071306 56.473766 
L 391.071306 56.473766 
L 391.895302 55.541365 
L 391.895302 55.541365 
L 393.337296 54.583151 
L 393.337296 54.583151 
L 394.161292 54.32226 
L 394.161292 54.32226 
L 395.603286 54.008149 
L 395.603286 54.008149 
L 397.045279 54.46439 
L 397.045279 54.46439 
L 397.869275 54.245246 
L 397.869275 54.245246 
L 398.281274 54.21752 
L 398.281274 54.21752 
L 398.487273 54.363953 
L 398.487273 54.363953 
" clip-path="url(#pb759ebfe49)" style="fill: none; stroke: #1f77b4; stroke-width: 1.5; stroke-linecap: square"/>
   </g>
   <g id="line2d_26">
    <path d="M 73.832727 53.568 
L 86.60467 53.568 
L 86.60467 53.568 
L 88.046664 69.697554 
L 88.046664 69.697554 
L 88.458662 79.480621 
L 88.458662 79.480621 
L 88.664661 78.66321 
L 88.664661 78.66321 
L 88.87066 81.95888 
L 88.87066 81.95888 
L 89.282658 96.771175 
L 89.282658 96.771175 
L 89.488657 95.353055 
L 89.488657 95.353055 
L 89.694656 100.360454 
L 89.694656 100.360454 
L 89.900655 109.803225 
L 89.900655 109.803225 
L 90.106654 111.141039 
L 90.106654 111.141039 
L 90.518653 124.614724 
L 90.518653 124.614724 
L 90.724652 134.629417 
L 90.724652 134.629417 
L 90.930651 131.970362 
L 90.930651 131.970362 
L 91.342649 147.650632 
L 91.342649 147.650632 
L 91.548648 145.495248 
L 91.548648 145.495248 
L 91.960646 160.212046 
L 91.960646 160.212046 
L 92.166645 157.222415 
L 92.166645 157.222415 
L 92.372644 163.867717 
L 92.372644 163.867717 
L 92.578643 164.332032 
L 92.578643 164.332032 
L 92.784642 168.175829 
L 92.784642 168.175829 
L 92.990641 175.935445 
L 92.990641 175.935445 
L 93.196641 174.183827 
L 93.196641 174.183827 
L 93.40264 179.917071 
L 93.40264 179.917071 
L 93.608639 180.164047 
L 93.608639 180.164047 
L 93.814638 183.416482 
L 93.814638 183.416482 
L 94.020637 184.725774 
L 94.020637 184.725774 
L 94.226636 187.161117 
L 94.226636 187.161117 
L 94.432635 191.260282 
L 94.432635 191.260282 
L 94.638634 191.104501 
L 94.638634 191.104501 
L 94.844633 194.29506 
L 94.844633 194.29506 
L 95.050632 194.52982 
L 95.050632 194.52982 
L 95.256631 196.554811 
L 95.256631 196.554811 
L 95.668629 198.576297 
L 95.668629 198.576297 
L 95.874629 200.140107 
L 95.874629 200.140107 
L 96.080628 200.456608 
L 96.080628 200.456608 
L 96.286627 202.130203 
L 96.286627 202.130203 
L 96.492626 202.224001 
L 96.492626 202.224001 
L 96.698625 202.953563 
L 96.698625 202.953563 
L 96.904624 203.084646 
L 96.904624 203.084646 
L 97.316622 203.750631 
L 97.316622 203.750631 
L 97.522621 203.813145 
L 97.522621 203.813145 
L 97.72862 204.095867 
L 97.72862 204.095867 
L 97.934619 203.964837 
L 97.934619 203.964837 
L 98.140618 204.235395 
L 98.140618 204.235395 
L 98.346617 204.030272 
L 98.552617 204.289889 
L 98.552617 204.289889 
L 98.758616 204.0717 
L 98.758616 204.0717 
L 98.964615 204.660459 
L 98.964615 204.660459 
L 99.376613 203.66172 
L 99.376613 203.66172 
L 99.582612 204.459107 
L 99.788611 203.32238 
L 99.788611 203.32238 
L 99.99461 204.128797 
L 100.200609 202.744509 
L 100.200609 202.744509 
L 100.406608 202.992441 
L 100.406608 202.992441 
L 100.818606 201.87287 
L 100.818606 201.87287 
L 101.024605 200.652596 
L 101.024605 200.652596 
L 101.230605 200.183129 
L 101.230605 200.183129 
L 101.436604 198.707646 
L 101.436604 198.707646 
L 101.642603 194.92153 
L 101.642603 194.92153 
L 101.848602 195.815848 
L 101.848602 195.815848 
L 102.054601 191.575137 
L 102.054601 191.575137 
L 102.2606 192.046197 
L 102.2606 192.046197 
L 102.466599 187.304947 
L 102.466599 187.304947 
L 102.672598 186.753739 
L 102.672598 186.753739 
L 102.878597 182.19488 
L 102.878597 182.19488 
L 103.084596 180.859032 
L 103.084596 180.859032 
L 103.702593 167.662384 
L 103.702593 167.662384 
L 103.908593 154.889155 
L 104.114592 157.225495 
L 104.114592 157.225495 
L 104.320591 144.16009 
L 104.320591 144.16009 
L 104.52659 145.022541 
L 104.52659 145.022541 
L 104.732589 133.109957 
L 104.732589 133.109957 
L 104.938588 131.627198 
L 104.938588 131.627198 
L 105.350586 114.567314 
L 105.350586 114.567314 
L 105.556585 116.289507 
L 105.556585 116.289507 
L 105.762584 110.609429 
L 105.762584 110.609429 
L 105.968583 110.74508 
L 105.968583 110.74508 
L 106.174582 110.626744 
L 106.174582 110.626744 
L 106.380581 112.281325 
L 106.380581 112.281325 
L 106.586581 112.649292 
L 106.586581 112.649292 
L 106.79258 113.439722 
L 106.79258 113.439722 
L 106.998579 112.640157 
L 106.998579 112.640157 
L 107.204578 113.61234 
L 107.204578 113.61234 
L 107.410577 113.469571 
L 107.410577 113.469571 
L 107.616576 113.546957 
L 107.616576 113.546957 
L 108.234573 112.677761 
L 108.234573 112.677761 
L 108.440572 113.213407 
L 108.440572 113.213407 
L 108.646571 112.339271 
L 108.646571 112.339271 
L 108.85257 110.026725 
L 108.85257 110.026725 
L 109.058569 110.459863 
L 109.058569 110.459863 
L 109.264569 108.755197 
L 109.264569 108.755197 
L 109.470568 105.327594 
L 109.470568 105.327594 
L 109.676567 105.460377 
L 109.676567 105.460377 
L 109.882566 103.291237 
L 109.882566 103.291237 
L 110.088565 96.34712 
L 110.088565 96.34712 
L 110.294564 95.800905 
L 110.294564 95.800905 
L 110.500563 90.882257 
L 110.500563 90.882257 
L 110.706562 83.187015 
L 110.706562 83.187015 
L 110.912561 81.551077 
L 110.912561 81.551077 
L 111.324559 65.39077 
L 111.324559 65.39077 
L 111.530558 54.180554 
L 111.530558 54.180554 
L 111.736557 55.006994 
L 111.736557 55.006994 
L 111.942557 53.568 
L 111.942557 53.568 
L 112.148556 56.872221 
L 112.148556 56.872221 
L 112.354555 58.070506 
L 112.354555 58.070506 
L 112.766553 62.402785 
L 112.766553 62.402785 
L 112.972552 64.221697 
L 112.972552 64.221697 
L 113.590549 65.78317 
L 113.590549 65.78317 
L 113.796548 66.024197 
L 113.796548 66.024197 
L 114.002547 66.570413 
L 114.002547 66.570413 
L 114.208546 66.472791 
L 114.208546 66.472791 
L 114.414545 65.81217 
L 114.414545 65.81217 
L 114.620545 66.239996 
L 114.826544 66.006511 
L 114.826544 66.006511 
L 115.032543 66.538492 
L 115.032543 66.538492 
L 115.444541 65.428799 
L 115.444541 65.428799 
L 115.65054 64.249103 
L 115.65054 64.249103 
L 116.062538 59.327216 
L 116.062538 59.327216 
L 116.268537 60.117486 
L 116.886534 53.568 
L 116.886534 53.568 
L 131.718468 53.568 
L 131.718468 53.568 
L 131.924467 54.71519 
L 131.924467 54.71519 
L 132.130466 59.737834 
L 132.130466 59.737834 
L 132.336465 60.424746 
L 132.336465 60.424746 
L 132.954462 72.910793 
L 132.954462 72.910793 
L 133.160461 78.388934 
L 133.366461 78.526603 
L 133.366461 78.526603 
L 133.778459 84.44484 
L 133.778459 84.44484 
L 133.984458 89.396683 
L 133.984458 89.396683 
L 134.190457 90.740073 
L 134.190457 90.740073 
L 134.602455 97.161451 
L 134.602455 97.161451 
L 134.808454 101.173882 
L 134.808454 101.173882 
L 135.014453 101.625503 
L 135.014453 101.625503 
L 135.63245 112.088896 
L 135.63245 112.088896 
L 135.838449 112.301083 
L 135.838449 112.301083 
L 136.868445 124.342732 
L 136.868445 124.342732 
L 137.074444 125.1995 
L 137.074444 125.1995 
L 137.486442 130.228198 
L 137.486442 130.228198 
L 137.692441 130.825242 
L 137.692441 130.825242 
L 138.310438 136.32686 
L 138.310438 136.32686 
L 139.340434 142.601804 
L 139.340434 142.601804 
L 139.546433 142.479166 
L 139.546433 142.479166 
L 139.958431 144.879083 
L 139.958431 144.879083 
L 140.370429 145.572953 
L 140.370429 145.572953 
L 140.576428 146.301187 
L 140.576428 146.301187 
L 140.988426 146.750099 
L 140.988426 146.750099 
L 141.194425 146.688328 
L 141.194425 146.688328 
L 141.400425 147.233163 
L 141.400425 147.233163 
L 141.606424 147.24761 
L 141.606424 147.24761 
L 141.812423 147.632945 
L 141.812423 147.632945 
L 142.224421 147.314904 
L 142.224421 147.314904 
L 142.43042 147.67039 
L 142.43042 147.67039 
L 142.842418 147.248619 
L 142.842418 147.248619 
L 143.048417 147.603733 
L 143.048417 147.603733 
L 143.254416 147.380339 
L 143.254416 147.380339 
L 143.460415 147.738641 
L 143.460415 147.738641 
L 143.872413 147.15429 
L 143.872413 147.15429 
L 144.078413 147.508661 
L 144.490411 146.549756 
L 144.490411 146.549756 
L 144.69641 146.968978 
L 144.69641 146.968978 
L 144.902409 146.39047 
L 144.902409 146.39047 
L 145.108408 146.612802 
L 145.108408 146.612802 
L 145.314407 146.059681 
L 145.314407 146.059681 
L 145.520406 145.130042 
L 145.520406 145.130042 
L 145.726405 145.450633 
L 145.726405 145.450633 
L 145.932404 144.711883 
L 145.932404 144.711883 
L 146.138403 143.075839 
L 146.138403 143.075839 
L 146.344402 143.895481 
L 146.344402 143.895481 
L 146.756401 142.231712 
L 146.756401 142.231712 
L 146.9624 141.844995 
L 146.9624 141.844995 
L 147.168399 140.17565 
L 147.168399 140.17565 
L 147.374398 140.267004 
L 147.374398 140.267004 
L 147.580397 139.176432 
L 147.580397 139.176432 
L 147.786396 136.249527 
L 147.786396 136.249527 
L 147.992395 137.420778 
L 147.992395 137.420778 
L 148.198394 135.348197 
L 148.198394 135.348197 
L 148.610392 133.669504 
L 148.610392 133.669504 
L 148.816391 130.361884 
L 148.816391 130.361884 
L 149.02239 130.581559 
L 149.02239 130.581559 
L 149.228389 128.881461 
L 149.228389 128.881461 
L 149.434389 123.923669 
L 149.434389 123.923669 
L 149.640388 124.443912 
L 149.640388 124.443912 
L 149.846387 122.337021 
L 149.846387 122.337021 
L 150.052386 117.599808 
L 150.052386 117.599808 
L 150.258385 118.699993 
L 150.258385 118.699993 
L 150.670383 108.699906 
L 150.670383 108.699906 
L 150.876382 110.554404 
L 150.876382 110.554404 
L 151.082381 104.596917 
L 151.082381 104.596917 
L 151.28838 103.537788 
L 151.28838 103.537788 
L 151.494379 100.605837 
L 151.494379 100.605837 
L 151.700378 95.105919 
L 151.700378 95.105919 
L 151.906377 92.664415 
L 151.906377 92.664415 
L 152.318376 81.717162 
L 152.318376 81.717162 
L 152.524375 72.882111 
L 152.524375 72.882111 
L 152.730374 74.28297 
L 152.730374 74.28297 
L 153.142372 57.105175 
L 153.142372 57.105175 
L 153.348371 57.819016 
L 153.348371 57.819016 
L 153.55437 53.568 
L 153.55437 53.568 
L 169.416299 53.568 
L 169.416299 53.568 
L 169.828297 54.938372 
L 169.828297 54.938372 
L 170.240295 58.632709 
L 170.240295 58.632709 
L 170.652293 62.422277 
L 170.652293 62.422277 
L 171.064292 64.346619 
L 171.064292 64.346619 
L 171.888288 72.523651 
L 171.888288 72.523651 
L 172.300286 76.577776 
L 172.300286 76.577776 
L 172.506285 80.296173 
L 172.506285 80.296173 
L 172.712284 81.192723 
L 172.712284 81.192723 
L 172.918283 83.020824 
L 172.918283 83.020824 
L 173.330281 89.592989 
L 173.330281 89.592989 
L 173.536281 90.348417 
L 173.536281 90.348417 
L 174.154278 100.788706 
L 174.154278 100.788706 
L 174.360277 101.795731 
L 174.360277 101.795731 
L 174.566276 104.074124 
L 174.566276 104.074124 
L 174.978274 113.396275 
L 174.978274 113.396275 
L 175.184273 112.046458 
L 175.184273 112.046458 
L 175.596271 121.542555 
L 175.596271 121.542555 
L 175.80227 120.97196 
L 175.80227 120.97196 
L 176.008269 124.400307 
L 176.008269 124.400307 
L 176.214269 130.738403 
L 176.214269 130.738403 
L 176.420268 130.494879 
L 176.420268 130.494879 
L 176.626267 133.46608 
L 176.626267 133.46608 
L 176.832266 140.844875 
L 176.832266 140.844875 
L 177.038265 140.467506 
L 177.038265 140.467506 
L 177.244264 144.175546 
L 177.450263 150.699273 
L 177.656262 149.971941 
L 177.656262 149.971941 
L 177.862261 154.798225 
L 177.862261 154.798225 
L 178.06826 163.013392 
L 178.06826 163.013392 
L 178.274259 159.729885 
L 178.480258 166.272095 
L 178.480258 166.272095 
L 178.686257 166.536386 
L 178.686257 166.536386 
L 178.892257 171.045266 
L 178.892257 171.045266 
L 179.098256 179.010748 
L 179.098256 179.010748 
L 179.304255 176.426954 
L 179.304255 176.426954 
L 179.510254 183.722414 
L 179.510254 183.722414 
L 179.716253 183.891898 
L 179.716253 183.891898 
L 179.922252 188.687642 
L 179.922252 188.687642 
L 180.128251 190.143207 
L 180.128251 190.143207 
L 180.33425 193.248997 
L 180.33425 193.248997 
L 180.540249 201.335524 
L 180.540249 201.335524 
L 180.746248 199.106897 
L 180.746248 199.106897 
L 180.952247 205.950683 
L 180.952247 205.950683 
L 181.158246 204.541539 
L 181.158246 204.541539 
L 181.364246 210.930411 
L 181.364246 210.930411 
L 181.570245 210.282749 
L 181.570245 210.282749 
L 181.776244 215.732847 
L 181.776244 215.732847 
L 181.982243 215.564266 
L 181.982243 215.564266 
L 182.188242 220.996571 
L 182.188242 220.996571 
L 182.394241 221.044797 
L 182.394241 221.044797 
L 182.60024 225.588201 
L 182.60024 225.588201 
L 182.806239 225.647634 
L 182.806239 225.647634 
L 183.012238 231.470745 
L 183.012238 231.470745 
L 183.218237 231.241084 
L 183.218237 231.241084 
L 183.424236 235.961354 
L 183.424236 235.961354 
L 183.630235 235.82974 
L 183.630235 235.82974 
L 183.836234 241.476887 
L 183.836234 241.476887 
L 184.042234 240.27021 
L 184.042234 240.27021 
L 184.248233 246.135705 
L 184.248233 246.135705 
L 184.454232 244.611624 
L 184.454232 244.611624 
L 184.660231 251.627125 
L 184.660231 251.627125 
L 184.86623 249.268902 
L 184.86623 249.268902 
L 185.072229 251.247153 
L 185.072229 251.247153 
L 185.278228 254.468305 
L 185.278228 254.468305 
L 185.484227 255.207321 
L 185.484227 255.207321 
L 185.690226 259.220762 
L 185.690226 259.220762 
L 185.896225 259.090847 
L 185.896225 259.090847 
L 186.102224 264.105842 
L 186.102224 264.105842 
L 186.308223 262.773446 
L 186.308223 262.773446 
L 187.13222 271.342984 
L 187.13222 271.342984 
L 187.338219 271.431205 
L 187.338219 271.431205 
L 187.544218 275.782445 
L 187.544218 275.782445 
L 187.750217 274.870174 
L 187.750217 274.870174 
L 187.956216 276.194178 
L 187.956216 276.194178 
L 188.162215 278.624157 
L 188.162215 278.624157 
L 188.368214 279.130006 
L 188.368214 279.130006 
L 188.574213 281.466718 
L 188.574213 281.466718 
L 188.780212 281.286983 
L 188.780212 281.286983 
L 188.986211 282.062701 
L 188.986211 282.062701 
L 189.19221 284.255317 
L 189.19221 284.255317 
L 189.39821 284.408495 
L 189.39821 284.408495 
L 189.604209 286.733682 
L 189.604209 286.733682 
L 189.810208 286.307342 
L 189.810208 286.307342 
L 190.016207 287.119124 
L 190.016207 287.119124 
L 190.222206 288.38311 
L 190.222206 288.38311 
L 190.428205 288.478979 
L 190.428205 288.478979 
L 190.634204 290.118953 
L 190.634204 290.118953 
L 190.840203 289.759961 
L 191.4582 291.002968 
L 191.4582 291.002968 
L 191.664199 291.168734 
L 191.664199 291.168734 
L 191.870198 292.11282 
L 191.870198 292.11282 
L 192.076198 292.141448 
L 192.488196 292.788631 
L 192.488196 292.788631 
L 193.312192 293.549105 
L 193.312192 293.549105 
L 193.72419 293.699893 
L 193.72419 293.699893 
L 193.930189 293.559144 
L 193.930189 293.559144 
L 194.342187 293.888976 
L 194.342187 293.888976 
L 194.548186 293.675249 
L 194.548186 293.675249 
L 194.960185 293.922384 
L 194.960185 293.922384 
L 195.166184 293.704249 
L 195.166184 293.704249 
L 195.372183 293.840006 
L 195.372183 293.840006 
L 195.578182 293.587825 
L 195.578182 293.587825 
L 195.99018 293.857002 
L 195.99018 293.857002 
L 196.196179 293.485635 
L 196.196179 293.485635 
L 196.402178 293.633821 
L 196.402178 293.633821 
L 196.608177 292.781514 
L 196.608177 292.781514 
L 196.814176 293.153731 
L 196.814176 293.153731 
L 197.020175 293.193088 
L 197.020175 293.193088 
L 197.226174 292.047863 
L 197.226174 292.047863 
L 197.432174 292.343756 
L 197.432174 292.343756 
L 197.638173 291.84428 
L 197.638173 291.84428 
L 197.844172 290.837786 
L 197.844172 290.837786 
L 198.050171 290.995426 
L 198.050171 290.995426 
L 198.25617 288.077072 
L 198.25617 288.077072 
L 198.462169 289.063436 
L 198.668168 288.513981 
L 198.668168 288.513981 
L 198.874167 284.95795 
L 198.874167 284.95795 
L 199.080166 286.30235 
L 199.080166 286.30235 
L 199.286165 284.777366 
L 199.286165 284.777366 
L 199.492164 282.136528 
L 199.492164 282.136528 
L 199.698163 282.077572 
L 199.698163 282.077572 
L 199.904162 276.127893 
L 199.904162 276.127893 
L 200.110162 278.068912 
L 200.110162 278.068912 
L 200.316161 276.573193 
L 200.316161 276.573193 
L 200.52216 270.300904 
L 200.52216 270.300904 
L 200.728159 271.587039 
L 200.728159 271.587039 
L 201.346156 263.302612 
L 201.346156 263.302612 
L 201.552155 253.610741 
L 201.552155 253.610741 
L 201.758154 256.242284 
L 201.758154 256.242284 
L 201.964153 252.644772 
L 201.964153 252.644772 
L 202.170152 244.864018 
L 202.170152 244.864018 
L 202.376151 244.253323 
L 202.376151 244.253323 
L 202.58215 230.55534 
L 202.58215 230.55534 
L 202.78815 234.052096 
L 202.78815 234.052096 
L 202.994149 228.937461 
L 202.994149 228.937461 
L 203.200148 219.217706 
L 203.200148 219.217706 
L 203.406147 216.456354 
L 203.406147 216.456354 
L 203.612146 208.697482 
L 203.818145 209.281886 
L 203.818145 209.281886 
L 204.024144 216.814868 
L 204.024144 216.814868 
L 204.230143 213.186391 
L 204.230143 213.186391 
L 205.054139 230.250418 
L 205.054139 230.250418 
L 205.260138 231.010201 
L 205.260138 231.010201 
L 205.466138 235.8103 
L 205.466138 235.8103 
L 205.672137 235.594714 
L 205.672137 235.594714 
L 205.878136 239.849819 
L 205.878136 239.849819 
L 206.084135 239.193394 
L 206.084135 239.193394 
L 206.290134 242.784904 
L 206.290134 242.784904 
L 206.496133 242.006956 
L 206.496133 242.006956 
L 206.702132 244.955691 
L 206.702132 244.955691 
L 206.908131 244.189799 
L 206.908131 244.189799 
L 207.11413 245.408852 
L 207.11413 245.408852 
L 208.144126 247.807282 
L 208.144126 247.807282 
L 208.350125 248.069873 
L 208.350125 248.069873 
L 208.556124 248.099244 
L 208.556124 248.099244 
L 208.762123 248.297675 
L 208.762123 248.297675 
L 208.968122 248.156288 
L 208.968122 248.156288 
L 209.174121 248.349035 
L 209.174121 248.349035 
L 209.38012 248.130634 
L 209.38012 248.130634 
L 209.586119 248.326622 
L 209.792118 248.096695 
L 209.792118 248.096695 
L 210.204116 248.492122 
L 210.204116 248.492122 
L 210.410115 248.217421 
L 210.410115 248.217421 
L 210.616114 248.38016 
L 210.616114 248.38016 
L 210.822114 247.963912 
L 210.822114 247.963912 
L 211.028113 248.106946 
L 211.028113 248.106946 
L 211.234112 247.425504 
L 211.234112 247.425504 
L 211.440111 247.611453 
L 211.440111 247.611453 
L 211.64611 246.518598 
L 211.64611 246.518598 
L 211.852109 246.856344 
L 211.852109 246.856344 
L 212.058108 245.20426 
L 212.264107 245.700496 
L 212.264107 245.700496 
L 212.470106 245.76232 
L 212.676105 244.261662 
L 212.676105 244.261662 
L 212.882104 243.991209 
L 212.882104 243.991209 
L 213.088103 242.42416 
L 213.088103 242.42416 
L 213.294102 242.212398 
L 213.294102 242.212398 
L 213.500102 240.050481 
L 213.500102 240.050481 
L 213.706101 240.125901 
L 213.706101 240.125901 
L 213.9121 237.255296 
L 213.9121 237.255296 
L 214.118099 237.724285 
L 214.118099 237.724285 
L 214.324098 234.100854 
L 214.324098 234.100854 
L 214.530097 234.876465 
L 214.530097 234.876465 
L 214.736096 230.148281 
L 214.736096 230.148281 
L 214.942095 231.486095 
L 214.942095 231.486095 
L 215.560092 227.012164 
L 215.560092 227.012164 
L 215.766091 224.093438 
L 215.766091 224.093438 
L 215.97209 223.014232 
L 215.97209 223.014232 
L 216.17809 219.489592 
L 216.17809 219.489592 
L 216.384089 218.650404 
L 216.590088 214.054047 
L 216.590088 214.054047 
L 216.796087 214.016443 
L 216.796087 214.016443 
L 217.002086 207.73964 
L 217.002086 207.73964 
L 217.208085 208.054441 
L 217.208085 208.054441 
L 217.414084 201.762076 
L 217.414084 201.762076 
L 217.620083 202.449625 
L 217.620083 202.449625 
L 217.826082 195.793966 
L 217.826082 195.793966 
L 218.032081 196.802637 
L 218.032081 196.802637 
L 218.23808 188.44433 
L 218.23808 188.44433 
L 218.444079 189.125294 
L 218.444079 189.125294 
L 218.650078 180.924095 
L 218.650078 180.924095 
L 218.856078 181.996025 
L 218.856078 181.996025 
L 219.062077 173.14435 
L 219.062077 173.14435 
L 219.268076 173.897866 
L 219.268076 173.897866 
L 219.474075 164.399326 
L 219.474075 164.399326 
L 219.680074 164.475278 
L 219.680074 164.475278 
L 219.886073 155.69759 
L 219.886073 155.69759 
L 220.092072 154.572441 
L 220.092072 154.572441 
L 220.50407 143.666722 
L 220.50407 143.666722 
L 220.710069 137.749282 
L 220.710069 137.749282 
L 220.916068 122.620433 
L 220.916068 122.620433 
L 221.122067 125.442227 
L 221.122067 125.442227 
L 221.328066 112.939715 
L 221.328066 112.939715 
L 221.534066 112.59586 
L 221.534066 112.59586 
L 221.946064 98.733918 
L 221.946064 98.733918 
L 222.152063 91.353105 
L 222.152063 91.353105 
L 222.358062 78.813733 
L 222.358062 78.813733 
L 222.564061 77.083519 
L 222.564061 77.083519 
L 222.77006 69.696758 
L 222.77006 69.696758 
L 222.976059 57.27535 
L 222.976059 57.27535 
L 223.388057 53.568 
L 223.388057 53.568 
L 239.043987 53.568 
L 239.043987 53.568 
L 239.249986 53.82613 
L 239.249986 53.82613 
L 239.455985 54.349772 
L 239.455985 54.349772 
L 239.661984 58.118149 
L 239.661984 58.118149 
L 240.073982 71.335457 
L 240.073982 71.335457 
L 240.279982 72.596257 
L 240.279982 72.596257 
L 240.897979 87.391928 
L 240.897979 87.391928 
L 241.103978 94.206927 
L 241.103978 94.206927 
L 241.309977 93.077795 
L 241.309977 93.077795 
L 241.515976 96.749399 
L 241.927974 108.441298 
L 241.927974 108.441298 
L 242.133973 107.053771 
L 242.133973 107.053771 
L 242.545971 116.920066 
L 242.545971 116.920066 
L 242.75197 116.631609 
L 242.75197 116.631609 
L 242.95797 119.379363 
L 242.95797 119.379363 
L 243.163969 124.090498 
L 243.163969 124.090498 
L 243.369968 124.654134 
L 243.369968 124.654134 
L 243.987965 132.410988 
L 243.987965 132.410988 
L 245.01796 145.581663 
L 245.01796 145.581663 
L 245.223959 145.330013 
L 245.223959 145.330013 
L 245.635958 151.389106 
L 245.635958 151.389106 
L 245.841957 151.453851 
L 245.841957 151.453851 
L 246.047956 153.661232 
L 246.047956 153.661232 
L 246.253955 157.364174 
L 246.253955 157.364174 
L 246.459954 157.075185 
L 246.459954 157.075185 
L 246.665953 159.725743 
L 246.665953 159.725743 
L 246.871952 160.850094 
L 246.871952 160.850094 
L 247.28395 165.571639 
L 247.28395 165.571639 
L 247.489949 165.603613 
L 247.489949 165.603613 
L 247.901947 169.682224 
L 247.901947 169.682224 
L 248.107946 171.575122 
L 248.107946 171.575122 
L 248.313946 175.764049 
L 248.313946 175.764049 
L 248.519945 175.744769 
L 248.519945 175.744769 
L 248.725944 178.347046 
L 248.725944 178.347046 
L 249.137942 181.203417 
L 249.137942 181.203417 
L 249.343941 185.806573 
L 249.343941 185.806573 
L 249.54994 185.021614 
L 249.54994 185.021614 
L 249.755939 188.897173 
L 249.755939 188.897173 
L 249.961938 189.173999 
L 249.961938 189.173999 
L 250.373936 193.229239 
L 250.373936 193.229239 
L 250.579935 195.364812 
L 250.579935 195.364812 
L 250.785934 201.839886 
L 250.785934 201.839886 
L 250.991934 199.598194 
L 250.991934 199.598194 
L 251.197933 205.498266 
L 251.197933 205.498266 
L 251.403932 204.472226 
L 251.403932 204.472226 
L 251.609931 209.728939 
L 251.609931 209.728939 
L 251.81593 209.81461 
L 251.81593 209.81461 
L 252.021929 214.462753 
L 252.021929 214.462753 
L 252.227928 214.532172 
L 252.227928 214.532172 
L 252.433927 219.893783 
L 252.433927 219.893783 
L 252.639926 219.651693 
L 252.639926 219.651693 
L 252.845925 225.197235 
L 252.845925 225.197235 
L 253.051924 224.928004 
L 253.051924 224.928004 
L 253.257923 230.090388 
L 253.257923 230.090388 
L 253.463922 230.065319 
L 253.463922 230.065319 
L 253.669922 235.842062 
L 253.669922 235.842062 
L 253.875921 235.523808 
L 253.875921 235.523808 
L 254.08192 241.270277 
L 254.08192 241.270277 
L 254.287919 240.307973 
L 254.287919 240.307973 
L 254.493918 247.094556 
L 254.699917 244.890999 
L 254.699917 244.890999 
L 255.523913 255.474746 
L 255.523913 255.474746 
L 255.729912 255.854292 
L 255.729912 255.854292 
L 255.935911 260.327905 
L 255.935911 260.327905 
L 256.14191 259.642427 
L 256.14191 259.642427 
L 256.34791 265.146594 
L 256.34791 265.146594 
L 256.553909 263.644873 
L 256.553909 263.644873 
L 256.759908 265.067296 
L 256.759908 265.067296 
L 256.965907 268.418575 
L 256.965907 268.418575 
L 257.171906 268.861485 
L 257.171906 268.861485 
L 257.377905 272.466751 
L 257.377905 272.466751 
L 257.583904 271.417236 
L 257.583904 271.417236 
L 257.789903 272.938396 
L 257.789903 272.938396 
L 257.995902 275.616891 
L 257.995902 275.616891 
L 258.201901 275.994154 
L 258.201901 275.994154 
L 258.4079 279.889258 
L 258.4079 279.889258 
L 258.613899 279.117896 
L 258.613899 279.117896 
L 258.819898 280.179734 
L 258.819898 280.179734 
L 259.025898 282.101101 
L 259.025898 282.101101 
L 259.231897 282.214498 
L 259.231897 282.214498 
L 259.437896 285.774458 
L 259.437896 285.774458 
L 259.643895 285.026679 
L 259.643895 285.026679 
L 259.849894 285.842284 
L 260.055893 288.071973 
L 260.055893 288.071973 
L 260.261892 288.104903 
L 260.261892 288.104903 
L 260.467891 290.230225 
L 260.467891 290.230225 
L 260.67389 289.917442 
L 260.67389 289.917442 
L 260.879889 290.440978 
L 260.879889 290.440978 
L 261.085888 292.12886 
L 261.085888 292.12886 
L 261.291887 292.249108 
L 261.291887 292.249108 
L 261.497886 293.680613 
L 261.497886 293.680613 
L 261.703886 293.339043 
L 261.703886 293.339043 
L 262.115884 294.551881 
L 262.115884 294.551881 
L 262.527882 294.568081 
L 262.527882 294.568081 
L 262.733881 295.049392 
L 262.733881 295.049392 
L 262.93988 295.224824 
L 262.93988 295.224824 
L 263.145879 294.828016 
L 263.145879 294.828016 
L 263.351878 295.279956 
L 263.351878 295.279956 
L 263.557877 295.109994 
L 263.557877 295.109994 
L 264.175874 295.488 
L 264.175874 295.488 
L 264.381874 295.304547 
L 264.381874 295.304547 
L 264.587873 295.427717 
L 264.587873 295.427717 
L 264.793872 295.080304 
L 264.793872 295.080304 
L 264.999871 295.255843 
L 264.999871 295.255843 
L 265.411869 294.658798 
L 265.411869 294.658798 
L 265.617868 294.809055 
L 265.617868 294.809055 
L 266.029866 293.731974 
L 266.029866 293.731974 
L 266.235865 293.591808 
L 266.235865 293.591808 
L 266.441864 291.209578 
L 266.441864 291.209578 
L 266.647863 291.810341 
L 266.647863 291.810341 
L 266.853862 290.86822 
L 266.853862 290.86822 
L 267.059862 288.661954 
L 267.059862 288.661954 
L 267.265861 288.707525 
L 267.265861 288.707525 
L 267.47186 283.067388 
L 267.47186 283.067388 
L 267.677859 284.836109 
L 267.677859 284.836109 
L 267.883858 283.623058 
L 267.883858 283.623058 
L 268.089857 277.948186 
L 268.089857 277.948186 
L 268.295856 279.220298 
L 268.295856 279.220298 
L 268.501855 276.819213 
L 268.501855 276.819213 
L 268.707854 271.879798 
L 268.707854 271.879798 
L 268.913853 270.169024 
L 268.913853 270.169024 
L 269.119852 260.813837 
L 269.119852 260.813837 
L 269.325851 263.040871 
L 269.325851 263.040871 
L 269.53185 259.040655 
L 269.53185 259.040655 
L 270.149848 236.830975 
L 270.149848 236.830975 
L 270.355847 237.502697 
L 270.355847 237.502697 
L 270.561846 231.016469 
L 270.561846 231.016469 
L 270.767845 229.082195 
L 270.767845 229.082195 
L 270.973844 232.062426 
L 270.973844 232.062426 
L 271.179843 239.663552 
L 271.179843 239.663552 
L 271.385842 240.138277 
L 271.591841 251.12494 
L 271.591841 251.12494 
L 271.79784 248.346911 
L 271.79784 248.346911 
L 272.003839 251.869852 
L 272.003839 251.869852 
L 272.209838 257.505792 
L 272.209838 257.505792 
L 272.415838 257.992043 
L 272.415838 257.992043 
L 272.621837 264.228374 
L 272.621837 264.228374 
L 272.827836 263.109546 
L 272.827836 263.109546 
L 274.06383 274.815998 
L 274.06383 274.815998 
L 274.269829 274.970823 
L 274.269829 274.970823 
L 274.475828 276.887092 
L 274.475828 276.887092 
L 274.681827 276.897077 
L 274.681827 276.897077 
L 274.887826 277.553768 
L 274.887826 277.553768 
L 275.299825 277.843553 
L 275.299825 277.843553 
L 275.505824 278.226233 
L 275.505824 278.226233 
L 275.711823 278.196755 
L 275.711823 278.196755 
L 276.123821 277.79437 
L 276.123821 277.79437 
L 276.32982 277.829797 
L 276.32982 277.829797 
L 276.535819 278.239086 
L 276.535819 278.239086 
L 276.741818 278.050004 
L 276.741818 278.050004 
L 276.947817 277.28799 
L 276.947817 277.28799 
L 277.153816 277.355603 
L 277.153816 277.355603 
L 277.359815 276.941904 
L 277.359815 276.941904 
L 277.565814 277.919292 
L 277.565814 277.919292 
L 277.977813 276.503509 
L 277.977813 276.503509 
L 278.183812 276.695247 
L 278.183812 276.695247 
L 278.389811 273.336532 
L 278.389811 273.336532 
L 278.59581 275.263051 
L 278.59581 275.263051 
L 278.801809 273.877596 
L 278.801809 273.877596 
L 279.007808 271.556924 
L 279.007808 271.556924 
L 279.213807 272.138406 
L 279.213807 272.138406 
L 279.419806 266.84478 
L 279.419806 266.84478 
L 279.625805 269.090084 
L 279.625805 269.090084 
L 279.831804 267.925048 
L 279.831804 267.925048 
L 280.037803 263.400181 
L 280.037803 263.400181 
L 280.243802 264.034936 
L 280.243802 264.034936 
L 280.449802 257.30529 
L 280.449802 257.30529 
L 280.655801 259.806122 
L 280.655801 259.806122 
L 280.8618 257.827498 
L 280.8618 257.827498 
L 281.067799 252.477147 
L 281.067799 252.477147 
L 281.273798 252.488991 
L 281.273798 252.488991 
L 281.479797 244.954416 
L 281.479797 244.954416 
L 281.685796 247.494233 
L 281.685796 247.494233 
L 281.891795 244.512462 
L 281.891795 244.512462 
L 282.097794 239.342111 
L 282.097794 239.342111 
L 282.303793 238.245484 
L 282.303793 238.245484 
L 282.509792 230.587474 
L 282.509792 230.587474 
L 282.715791 231.716712 
L 282.715791 231.716712 
L 282.92179 220.748532 
L 282.92179 220.748532 
L 283.12779 223.412421 
L 283.12779 223.412421 
L 283.333789 220.752728 
L 283.333789 220.752728 
L 283.539788 213.74307 
L 283.745787 212.289629 
L 283.745787 212.289629 
L 283.951786 202.91649 
L 283.951786 202.91649 
L 284.157785 203.117523 
L 284.363784 190.381791 
L 284.363784 190.381791 
L 284.569783 192.913322 
L 284.569783 192.913322 
L 284.775782 178.052162 
L 284.981781 180.92707 
L 284.981781 180.92707 
L 285.18778 165.090328 
L 285.18778 165.090328 
L 285.393779 168.610241 
L 285.393779 168.610241 
L 285.599778 150.646956 
L 285.599778 150.646956 
L 285.805778 154.244415 
L 285.805778 154.244415 
L 286.011777 138.691403 
L 286.011777 138.691403 
L 286.217776 140.224195 
L 286.217776 140.224195 
L 286.423775 128.783468 
L 286.423775 128.783468 
L 286.629774 128.955023 
L 286.629774 128.955023 
L 286.835773 119.501736 
L 286.835773 119.501736 
L 287.041772 118.370585 
L 287.041772 118.370585 
L 287.247771 112.995962 
L 287.247771 112.995962 
L 287.45377 104.094839 
L 287.45377 104.094839 
L 287.659769 105.434405 
L 287.659769 105.434405 
L 287.865768 100.444904 
L 287.865768 100.444904 
L 288.071767 100.337085 
L 288.071767 100.337085 
L 288.277766 101.683927 
L 288.277766 101.683927 
L 288.483766 105.465848 
L 288.483766 105.465848 
L 288.689765 105.893568 
L 288.689765 105.893568 
L 288.895764 108.120336 
L 288.895764 108.120336 
L 289.71976 110.936128 
L 289.71976 110.936128 
L 289.925759 111.898963 
L 289.925759 111.898963 
L 290.131758 111.612471 
L 290.131758 111.612471 
L 290.337757 111.836237 
L 290.337757 111.836237 
L 290.543756 112.859727 
L 290.543756 112.859727 
L 290.749755 112.206223 
L 290.749755 112.206223 
L 290.955754 112.080238 
L 290.955754 112.080238 
L 291.161754 112.519006 
L 291.161754 112.519006 
L 291.573752 112.176107 
L 291.573752 112.176107 
L 291.98575 113.018907 
L 291.98575 113.018907 
L 292.191749 111.999347 
L 292.191749 111.999347 
L 292.397748 112.453836 
L 292.397748 112.453836 
L 292.603747 112.552148 
L 292.603747 112.552148 
L 293.015745 109.459052 
L 293.015745 109.459052 
L 293.221744 110.316511 
L 293.221744 110.316511 
L 293.427743 109.152855 
L 293.427743 109.152855 
L 293.633743 106.755594 
L 293.633743 106.755594 
L 293.839742 107.446011 
L 293.839742 107.446011 
L 294.045741 106.226056 
L 294.045741 106.226056 
L 294.25174 101.872585 
L 294.25174 101.872585 
L 294.457739 102.197 
L 294.457739 102.197 
L 294.663738 99.629087 
L 294.663738 99.629087 
L 294.869737 94.344808 
L 294.869737 94.344808 
L 295.075736 93.924737 
L 295.075736 93.924737 
L 295.487734 84.628983 
L 295.487734 84.628983 
L 295.693733 75.409128 
L 295.693733 75.409128 
L 295.899732 77.922229 
L 295.899732 77.922229 
L 296.311731 61.556958 
L 296.311731 61.556958 
L 296.51773 62.024832 
L 296.51773 62.024832 
L 296.723729 61.340628 
L 296.723729 61.340628 
L 297.135727 79.248304 
L 297.135727 79.248304 
L 297.341726 79.295522 
L 297.341726 79.295522 
L 297.547725 83.866969 
L 297.547725 83.866969 
L 297.753724 91.076333 
L 297.753724 91.076333 
L 297.959723 91.202795 
L 297.959723 91.202795 
L 298.57772 103.749231 
L 298.57772 103.749231 
L 298.783719 103.85243 
L 299.607716 111.04586 
L 299.607716 111.04586 
L 300.225713 114.47564 
L 300.225713 114.47564 
L 301.255708 117.382787 
L 301.255708 117.382787 
L 301.461707 116.882515 
L 301.461707 116.882515 
L 301.873706 117.77131 
L 301.873706 117.77131 
L 302.079705 117.036171 
L 302.079705 117.036171 
L 302.285704 117.458952 
L 302.285704 117.458952 
L 302.491703 117.271781 
L 302.491703 117.271781 
L 302.697702 117.685692 
L 302.697702 117.685692 
L 302.903701 117.506329 
L 302.903701 117.506329 
L 303.1097 117.897188 
L 303.1097 117.897188 
L 303.521698 116.662149 
L 303.521698 116.662149 
L 303.727697 117.098738 
L 303.727697 117.098738 
L 303.933696 116.713721 
L 303.933696 116.713721 
L 304.139695 115.930675 
L 304.345695 116.297049 
L 304.551694 115.621184 
L 304.551694 115.621184 
L 304.757693 114.184634 
L 304.757693 114.184634 
L 304.963692 114.550317 
L 304.963692 114.550317 
L 305.169691 113.895379 
L 305.169691 113.895379 
L 305.37569 112.331516 
L 305.37569 112.331516 
L 305.581689 108.972217 
L 305.581689 108.972217 
L 305.787688 109.88656 
L 305.787688 109.88656 
L 305.993687 108.35483 
L 305.993687 108.35483 
L 306.199686 103.974378 
L 306.199686 103.974378 
L 306.405685 105.317343 
L 306.405685 105.317343 
L 306.611684 103.502999 
L 306.817683 98.615051 
L 306.817683 98.615051 
L 307.023683 99.118882 
L 307.023683 99.118882 
L 307.435681 91.229192 
L 307.435681 91.229192 
L 307.64168 91.177301 
L 307.64168 91.177301 
L 307.847679 88.161325 
L 307.847679 88.161325 
L 308.053678 82.854314 
L 308.053678 82.854314 
L 308.259677 81.235426 
L 308.671675 74.502859 
L 308.671675 74.502859 
L 308.877674 66.564517 
L 308.877674 66.564517 
L 309.083673 67.04535 
L 309.083673 67.04535 
L 309.289672 63.683289 
L 309.289672 63.683289 
L 309.701671 53.568 
L 309.701671 53.568 
L 319.589626 53.568 
L 319.589626 53.568 
L 319.795625 58.142793 
L 319.795625 58.142793 
L 320.207623 73.101628 
L 320.207623 73.101628 
L 320.413623 72.161738 
L 320.413623 72.161738 
L 321.03162 90.151527 
L 321.03162 90.151527 
L 321.237619 90.382038 
L 321.237619 90.382038 
L 321.649617 100.263257 
L 321.649617 100.263257 
L 321.855616 107.060835 
L 321.855616 107.060835 
L 322.061615 106.923909 
L 322.061615 106.923909 
L 322.473613 116.872583 
L 322.473613 116.872583 
L 322.679612 123.692468 
L 322.885611 121.501233 
L 322.885611 121.501233 
L 323.29761 133.059712 
L 323.29761 133.059712 
L 323.503609 131.71186 
L 323.503609 131.71186 
L 323.915607 142.568768 
L 323.915607 142.568768 
L 324.121606 141.335747 
L 324.121606 141.335747 
L 324.533604 151.724887 
L 324.533604 151.724887 
L 324.739603 150.911619 
L 324.739603 150.911619 
L 324.945602 155.216491 
L 324.945602 155.216491 
L 325.151601 156.58681 
L 325.151601 156.58681 
L 325.3576 159.051525 
L 325.3576 159.051525 
L 325.563599 164.869218 
L 325.563599 164.869218 
L 325.769599 164.102158 
L 325.769599 164.102158 
L 325.975598 167.549041 
L 325.975598 167.549041 
L 326.181597 169.044547 
L 326.181597 169.044547 
L 326.387596 171.759956 
L 326.387596 171.759956 
L 326.593595 176.919047 
L 326.593595 176.919047 
L 326.799594 176.50418 
L 326.799594 176.50418 
L 327.005593 179.829912 
L 327.005593 179.829912 
L 327.211592 180.335283 
L 327.211592 180.335283 
L 327.417591 182.713477 
L 327.417591 182.713477 
L 327.62359 186.892577 
L 327.62359 186.892577 
L 327.829589 186.350823 
L 328.035588 190.07501 
L 328.035588 190.07501 
L 328.241587 189.939624 
L 328.241587 189.939624 
L 328.447587 192.661088 
L 328.447587 192.661088 
L 328.653586 193.335996 
L 328.653586 193.335996 
L 329.065584 196.617379 
L 329.065584 196.617379 
L 329.271583 197.691326 
L 329.271583 197.691326 
L 329.477582 201.611766 
L 329.477582 201.611766 
L 329.683581 200.666405 
L 329.683581 200.666405 
L 329.88958 203.293593 
L 329.88958 203.293593 
L 330.095579 202.989786 
L 330.095579 202.989786 
L 330.301578 205.287672 
L 330.301578 205.287672 
L 330.507577 205.578201 
L 330.507577 205.578201 
L 330.713576 207.177703 
L 330.713576 207.177703 
L 330.919575 207.509447 
L 330.919575 207.509447 
L 331.125575 209.481591 
L 331.125575 209.481591 
L 331.331574 209.735153 
L 331.331574 209.735153 
L 331.949571 212.885558 
L 331.949571 212.885558 
L 332.15557 213.212948 
L 332.15557 213.212948 
L 332.979566 217.363101 
L 332.979566 217.363101 
L 333.185565 217.976292 
L 333.185565 217.976292 
L 333.391564 220.51425 
L 333.391564 220.51425 
L 333.597563 220.222659 
L 333.597563 220.222659 
L 333.803563 221.959459 
L 333.803563 221.959459 
L 334.009562 221.914631 
L 334.215561 224.35587 
L 334.215561 224.35587 
L 334.42156 224.168752 
L 334.627559 225.817756 
L 334.833558 225.938004 
L 334.833558 225.938004 
L 335.039557 227.871587 
L 335.039557 227.871587 
L 335.245556 227.563584 
L 335.245556 227.563584 
L 335.451555 228.904797 
L 335.451555 228.904797 
L 335.657554 228.984838 
L 335.657554 228.984838 
L 335.863553 230.339542 
L 335.863553 230.339542 
L 336.069552 230.141961 
L 336.069552 230.141961 
L 336.275551 231.105752 
L 336.275551 231.105752 
L 336.481551 231.001331 
L 336.481551 231.001331 
L 336.68755 231.527417 
L 336.68755 231.527417 
L 336.893549 231.614363 
L 336.893549 231.614363 
L 337.099548 231.525239 
L 337.099548 231.525239 
L 337.511546 232.145866 
L 337.511546 232.145866 
L 337.717545 231.955881 
L 337.717545 231.955881 
L 337.923544 232.163181 
L 337.923544 232.163181 
L 338.129543 231.955349 
L 338.129543 231.955349 
L 338.335542 232.154417 
L 338.335542 232.154417 
L 338.541541 231.944674 
L 338.541541 231.944674 
L 338.74754 232.146769 
L 338.74754 232.146769 
L 338.953539 231.297012 
L 338.953539 231.297012 
L 339.159539 231.976488 
L 339.159539 231.976488 
L 339.365538 230.545993 
L 339.365538 230.545993 
L 339.571537 231.43755 
L 339.571537 231.43755 
L 339.777536 229.028444 
L 339.777536 229.028444 
L 339.983535 230.34889 
L 339.983535 230.34889 
L 340.601532 227.079192 
L 340.601532 227.079192 
L 341.219529 221.33198 
L 341.219529 221.33198 
L 341.837527 214.026269 
L 341.837527 214.026269 
L 342.043526 209.296067 
L 342.043526 209.296067 
L 342.249525 207.557143 
L 342.455524 200.858621 
L 342.661523 198.250873 
L 342.661523 198.250873 
L 342.867522 190.958653 
L 342.867522 190.958653 
L 343.073521 187.985167 
L 343.073521 187.985167 
L 343.485519 175.853863 
L 343.485519 175.853863 
L 343.691518 173.328493 
L 343.691518 173.328493 
L 343.897517 175.664462 
L 343.897517 175.664462 
L 344.309515 183.842396 
L 344.309515 183.842396 
L 344.721514 190.960352 
L 344.721514 190.960352 
L 345.133512 196.324354 
L 345.133512 196.324354 
L 345.339511 198.308182 
L 345.339511 198.308182 
L 345.54551 201.400482 
L 345.54551 201.400482 
L 345.751509 201.114733 
L 345.751509 201.114733 
L 345.957508 202.629466 
L 345.957508 202.629466 
L 346.575505 203.847828 
L 346.575505 203.847828 
L 346.781504 204.247558 
L 346.781504 204.247558 
L 346.987503 203.582103 
L 346.987503 203.582103 
L 347.193503 203.854892 
L 347.193503 203.854892 
L 347.399502 203.63203 
L 347.399502 203.63203 
L 347.8115 204.082004 
L 347.8115 204.082004 
L 348.017499 203.769911 
L 348.017499 203.769911 
L 348.223498 203.741921 
L 348.223498 203.741921 
L 348.429497 201.534592 
L 348.429497 201.534592 
L 348.635496 202.733356 
L 348.635496 202.733356 
L 348.841495 199.78972 
L 348.841495 199.78972 
L 349.047494 200.377576 
L 349.047494 200.377576 
L 349.253493 197.300467 
L 349.253493 197.300467 
L 349.459492 197.643206 
L 349.459492 197.643206 
L 349.665491 193.91801 
L 349.665491 193.91801 
L 349.871491 193.835154 
L 349.871491 193.835154 
L 350.07749 190.046488 
L 350.07749 190.046488 
L 350.283489 189.327814 
L 350.283489 189.327814 
L 350.489488 184.92362 
L 350.489488 184.92362 
L 350.695487 183.603069 
L 350.695487 183.603069 
L 350.901486 179.042244 
L 350.901486 179.042244 
L 351.107485 177.210532 
L 351.107485 177.210532 
L 351.313484 172.925949 
L 351.313484 172.925949 
L 351.519483 163.428153 
L 351.519483 163.428153 
L 351.725482 165.191774 
L 351.725482 165.191774 
L 351.931481 155.793459 
L 351.931481 155.793459 
L 352.13748 156.773078 
L 352.13748 156.773078 
L 352.343479 148.562053 
L 352.343479 148.562053 
L 352.549479 146.634259 
L 352.549479 146.634259 
L 352.961477 136.623709 
L 352.961477 136.623709 
L 353.167476 131.86456 
L 353.167476 131.86456 
L 353.373475 119.33188 
L 353.373475 119.33188 
L 353.579474 121.173843 
L 353.579474 121.173843 
L 353.785473 112.517094 
L 353.785473 112.517094 
L 353.991472 109.965008 
L 353.991472 109.965008 
L 354.197471 103.956532 
L 354.197471 103.956532 
L 354.40347 93.279359 
L 354.40347 93.279359 
L 354.609469 93.082309 
L 354.609469 93.082309 
L 354.815468 86.068349 
L 354.815468 86.068349 
L 355.021467 74.694863 
L 355.021467 74.694863 
L 355.227467 75.377685 
L 355.227467 75.377685 
L 355.433466 69.246252 
L 355.433466 69.246252 
L 355.639465 59.025852 
L 355.639465 59.025852 
L 355.845464 59.557727 
L 355.845464 59.557727 
L 356.051463 54.353171 
L 356.051463 54.353171 
L 356.257462 53.568 
L 356.257462 53.568 
L 358.523452 53.568 
L 358.523452 53.568 
L 358.729451 61.088447 
L 358.729451 61.088447 
L 358.93545 61.915047 
L 358.93545 61.915047 
L 359.347448 76.469213 
L 359.347448 76.469213 
L 359.553447 87.210015 
L 359.553447 87.210015 
L 359.759446 87.687078 
L 359.759446 87.687078 
L 360.171444 98.900587 
L 360.171444 98.900587 
L 360.377443 108.709467 
L 360.377443 108.709467 
L 360.583443 108.620396 
L 360.583443 108.620396 
L 360.995441 120.434031 
L 360.995441 120.434031 
L 361.20144 129.470964 
L 361.20144 129.470964 
L 361.407439 126.767824 
L 361.407439 126.767824 
L 361.819437 140.565766 
L 361.819437 140.565766 
L 362.025436 139.855059 
L 362.025436 139.855059 
L 362.437434 152.1559 
L 362.437434 152.1559 
L 362.643433 150.742772 
L 362.643433 150.742772 
L 362.849432 155.968254 
L 362.849432 155.968254 
L 363.055431 157.451226 
L 363.055431 157.451226 
L 363.261431 159.886304 
L 363.261431 159.886304 
L 363.46743 166.059855 
L 363.46743 166.059855 
L 363.673429 165.498662 
L 363.673429 165.498662 
L 363.879428 169.588532 
L 363.879428 169.588532 
L 364.291426 173.636231 
L 364.291426 173.636231 
L 364.497425 178.819328 
L 364.497425 178.819328 
L 364.703424 178.326067 
L 364.703424 178.326067 
L 364.909423 181.480721 
L 364.909423 181.480721 
L 365.115422 181.776189 
L 365.115422 181.776189 
L 365.321421 183.973373 
L 365.321421 183.973373 
L 365.52742 187.691877 
L 365.52742 187.691877 
L 365.733419 186.794849 
L 365.733419 186.794849 
L 365.939419 189.675546 
L 365.939419 189.675546 
L 366.145418 189.574896 
L 366.145418 189.574896 
L 366.351417 191.493077 
L 366.351417 191.493077 
L 366.557416 192.017463 
L 366.557416 192.017463 
L 366.969414 194.146025 
L 366.969414 194.146025 
L 367.175413 194.84016 
L 367.175413 194.84016 
L 367.381412 196.734121 
L 367.381412 196.734121 
L 367.587411 196.550881 
L 367.587411 196.550881 
L 367.79341 197.905797 
L 367.79341 197.905797 
L 367.999409 198.055257 
L 367.999409 198.055257 
L 368.205408 198.985215 
L 368.617407 199.968074 
L 368.617407 199.968074 
L 369.029405 200.833977 
L 369.029405 200.833977 
L 369.235404 201.952486 
L 369.235404 201.952486 
L 369.441403 201.65739 
L 369.441403 201.65739 
L 369.853401 202.86258 
L 369.853401 202.86258 
L 370.0594 202.748493 
L 370.0594 202.748493 
L 371.089395 203.718976 
L 371.089395 203.718976 
L 371.295395 203.660445 
L 371.707393 204.320323 
L 371.707393 204.320323 
L 371.913392 204.138145 
L 371.913392 204.138145 
L 372.32539 204.607612 
L 372.32539 204.607612 
L 372.531389 204.546956 
L 372.531389 204.546956 
L 372.737388 203.871464 
L 372.737388 203.871464 
L 372.943387 204.603947 
L 372.943387 204.603947 
L 373.149386 203.89818 
L 373.149386 203.89818 
L 373.355385 204.635602 
L 373.355385 204.635602 
L 373.561384 203.927445 
L 373.561384 203.927445 
L 373.767383 204.189133 
L 373.767383 204.189133 
L 373.973383 203.948106 
L 373.973383 203.948106 
L 374.179382 204.211228 
L 374.179382 204.211228 
L 374.385381 203.930844 
L 374.385381 203.930844 
L 374.797379 204.3259 
L 374.797379 204.3259 
L 375.209377 203.647804 
L 375.209377 203.647804 
L 375.415376 203.73884 
L 375.415376 203.73884 
L 375.621375 203.236178 
L 375.621375 203.236178 
L 375.827374 202.064396 
L 375.827374 202.064396 
L 376.033373 203.036313 
L 376.033373 203.036313 
L 376.239372 201.148619 
L 376.239372 201.148619 
L 376.445371 201.544418 
L 376.445371 201.544418 
L 376.651371 199.927867 
L 376.651371 199.927867 
L 376.85737 200.152801 
L 376.85737 200.152801 
L 377.063369 198.223732 
L 377.063369 198.223732 
L 377.269368 198.300534 
L 377.269368 198.300534 
L 377.475367 196.292539 
L 377.475367 196.292539 
L 377.681366 195.949269 
L 377.681366 195.949269 
L 377.887365 193.95981 
L 377.887365 193.95981 
L 378.093364 193.056037 
L 378.093364 193.056037 
L 378.299363 190.880311 
L 378.299363 190.880311 
L 378.505362 185.840406 
L 378.505362 185.840406 
L 378.711361 187.065354 
L 378.711361 187.065354 
L 378.91736 182.08722 
L 378.91736 182.08722 
L 379.123359 182.841214 
L 379.123359 182.841214 
L 379.329359 177.789412 
L 379.329359 177.789412 
L 379.535358 177.396109 
L 379.535358 177.396109 
L 379.741357 172.289228 
L 379.741357 172.289228 
L 379.947356 171.807014 
L 379.947356 171.807014 
L 380.359354 164.867147 
L 380.359354 164.867147 
L 380.565353 161.306071 
L 380.565353 161.306071 
L 380.771352 152.070654 
L 380.771352 152.070654 
L 380.977351 154.127035 
L 380.977351 154.127035 
L 381.18335 145.540607 
L 381.18335 145.540607 
L 381.389349 145.382383 
L 381.389349 145.382383 
L 381.595348 139.353989 
L 381.595348 139.353989 
L 381.801347 137.407075 
L 381.801347 137.407075 
L 382.007347 132.288137 
L 382.007347 132.288137 
L 382.213346 121.596571 
L 382.213346 121.596571 
L 382.419345 122.216295 
L 382.419345 122.216295 
L 382.625344 114.929598 
L 382.831343 112.822388 
L 382.831343 112.822388 
L 383.037342 106.780292 
L 383.037342 106.780292 
L 383.243341 96.813029 
L 383.243341 96.813029 
L 383.44934 96.532804 
L 383.44934 96.532804 
L 383.655339 89.377297 
L 383.655339 89.377297 
L 383.861338 78.259763 
L 383.861338 78.259763 
L 384.067337 78.741074 
L 384.067337 78.741074 
L 384.273336 72.096728 
L 384.273336 72.096728 
L 384.479335 59.977799 
L 384.479335 59.977799 
L 384.685335 60.593805 
L 384.685335 60.593805 
L 384.891334 54.831614 
L 384.891334 54.831614 
L 385.097333 53.568 
L 385.097333 53.568 
L 389.835311 53.568 
L 389.835311 53.568 
L 390.041311 53.754746 
L 390.041311 53.754746 
L 390.24731 53.568 
L 390.24731 53.568 
L 391.689303 53.568 
L 391.689303 53.568 
L 391.895302 53.905109 
L 391.895302 53.905109 
L 392.101301 53.568 
L 392.101301 53.568 
L 393.543295 53.568 
L 393.543295 53.568 
L 393.749294 54.045381 
L 394.161292 53.773017 
L 394.161292 53.773017 
L 394.57329 53.841214 
L 394.57329 53.841214 
L 394.779289 53.568 
L 394.779289 53.568 
L 395.191287 53.568 
L 395.191287 53.568 
L 395.397287 53.758198 
L 395.397287 53.758198 
L 395.603286 54.228249 
L 395.603286 54.228249 
L 396.221283 54.535403 
L 396.221283 54.535403 
L 396.633281 54.747749 
L 396.633281 54.747749 
L 396.83928 53.568 
L 396.83928 53.568 
L 397.251278 53.568 
L 397.251278 53.568 
L 397.457277 53.906915 
L 397.457277 53.906915 
L 397.869275 54.065192 
L 397.869275 54.065192 
L 398.075275 54.110073 
L 398.281274 54.64285 
L 398.281274 54.64285 
L 398.487273 53.568 
L 398.487273 53.568 
" clip-path="url(#pb759ebfe49)" style="fill: none; stroke: #ff7f0e; stroke-width: 1.5; stroke-linecap: square"/>
   </g>
   <g id="patch_3">
    <path d="M 57.6 307.584 
L 57.6 41.472 
" style="fill: none; stroke: #000000; stroke-width: 0.8; stroke-linejoin: miter; stroke-linecap: square"/>
   </g>
   <g id="patch_4">
    <path d="M 414.72 307.584 
L 414.72 41.472 
" style="fill: none; stroke: #000000; stroke-width: 0.8; stroke-linejoin: miter; stroke-linecap: square"/>
   </g>
   <g id="patch_5">
    <path d="M 57.6 307.584 
L 414.72 307.584 
" style="fill: none; stroke: #000000; stroke-width: 0.8; stroke-linejoin: miter; stroke-linecap: square"/>
   </g>
   <g id="patch_6">
    <path d="M 57.6 41.472 
L 414.72 41.472 
" style="fill: none; stroke: #000000; stroke-width: 0.8; stroke-linejoin: miter; stroke-linecap: square"/>
   </g>
   <g id="text_15">
    <!-- Actual speed vs Expected speed -->
    <g transform="translate(138.808125 35.472) scale(0.12 -0.12)">
     <defs>
      <path id="DejaVuSans-41" d="M 2188 4044 
L 1331 1722 
L 3047 1722 
L 2188 4044 
z
M 1831 4666 
L 2547 4666 
L 4325 0 
L 3669 0 
L 3244 1197 
L 1141 1197 
L 716 0 
L 50 0 
L 1831 4666 
z
" transform="scale(0.015625)"/>
      <path id="DejaVuSans-75" d="M 544 1381 
L 544 3500 
L 1119 3500 
L 1119 1403 
Q 1119 906 1312 657 
Q 1506 409 1894 409 
Q 2359 409 2629 706 
Q 2900 1003 2900 1516 
L 2900 3500 
L 3475 3500 
L 3475 0 
L 2900 0 
L 2900 538 
Q 2691 219 2414 64 
Q 2138 -91 1772 -91 
Q 1169 -91 856 284 
Q 544 659 544 1381 
z
M 1991 3584 
L 1991 3584 
z
" transform="scale(0.015625)"/>
      <path id="DejaVuSans-61" d="M 2194 1759 
Q 1497 1759 1228 1600 
Q 959 1441 959 1056 
Q 959 750 1161 570 
Q 1363 391 1709 391 
Q 2188 391 2477 730 
Q 2766 1069 2766 1631 
L 2766 1759 
L 2194 1759 
z
M 3341 1997 
L 3341 0 
L 2766 0 
L 2766 531 
Q 2569 213 2275 61 
Q 1981 -91 1556 -91 
Q 1019 -91 701 211 
Q 384 513 384 1019 
Q 384 1609 779 1909 
Q 1175 2209 1959 2209 
L 2766 2209 
L 2766 2266 
Q 2766 2663 2505 2880 
Q 2244 3097 1772 3097 
Q 1472 3097 1187 3025 
Q 903 2953 641 2809 
L 641 3341 
Q 956 3463 1253 3523 
Q 1550 3584 1831 3584 
Q 2591 3584 2966 3190 
Q 3341 2797 3341 1997 
z
" transform="scale(0.015625)"/>
      <path id="DejaVuSans-20" transform="scale(0.015625)"/>
      <path id="DejaVuSans-70" d="M 1159 525 
L 1159 -1331 
L 581 -1331 
L 581 3500 
L 1159 3500 
L 1159 2969 
Q 1341 3281 1617 3432 
Q 1894 3584 2278 3584 
Q 2916 3584 3314 3078 
Q 3713 2572 3713 1747 
Q 3713 922 3314 415 
Q 2916 -91 2278 -91 
Q 1894 -91 1617 61 
Q 1341 213 1159 525 
z
M 3116 1747 
Q 3116 2381 2855 2742 
Q 2594 3103 2138 3103 
Q 1681 3103 1420 2742 
Q 1159 2381 1159 1747 
Q 1159 1113 1420 752 
Q 1681 391 2138 391 
Q 2594 391 2855 752 
Q 3116 1113 3116 1747 
z
" transform="scale(0.015625)"/>
      <path id="DejaVuSans-64" d="M 2906 2969 
L 2906 4863 
L 3481 4863 
L 3481 0 
L 2906 0 
L 2906 525 
Q 2725 213 2448 61 
Q 2172 -91 1784 -91 
Q 1150 -91 751 415 
Q 353 922 353 1747 
Q 353 2572 751 3078 
Q 1150 3584 1784 3584 
Q 2172 3584 2448 3432 
Q 2725 3281 2906 2969 
z
M 947 1747 
Q 947 1113 1208 752 
Q 1469 391 1925 391 
Q 2381 391 2643 752 
Q 2906 1113 2906 1747 
Q 2906 2381 2643 2742 
Q 2381 3103 1925 3103 
Q 1469 3103 1208 2742 
Q 947 2381 947 1747 
z
" transform="scale(0.015625)"/>
      <path id="DejaVuSans-76" d="M 191 3500 
L 800 3500 
L 1894 563 
L 2988 3500 
L 3597 3500 
L 2284 0 
L 1503 0 
L 191 3500 
z
" transform="scale(0.015625)"/>
      <path id="DejaVuSans-45" d="M 628 4666 
L 3578 4666 
L 3578 4134 
L 1259 4134 
L 1259 2753 
L 3481 2753 
L 3481 2222 
L 1259 2222 
L 1259 531 
L 3634 531 
L 3634 0 
L 628 0 
L 628 4666 
z
" transform="scale(0.015625)"/>
      <path id="DejaVuSans-78" d="M 3513 3500 
L 2247 1797 
L 3578 0 
L 2900 0 
L 1881 1375 
L 863 0 
L 184 0 
L 1544 1831 
L 300 3500 
L 978 3500 
L 1906 2253 
L 2834 3500 
L 3513 3500 
z
" transform="scale(0.015625)"/>
     </defs>
     <use xlink:href="#DejaVuSans-41"/>
     <use xlink:href="#DejaVuSans-63" x="66.658203"/>
     <use xlink:href="#DejaVuSans-74" x="121.638672"/>
     <use xlink:href="#DejaVuSans-75" x="160.847656"/>
     <use xlink:href="#DejaVuSans-61" x="224.226562"/>
     <use xlink:href="#DejaVuSans-6c" x="285.505859"/>
     <use xlink:href="#DejaVuSans-20" x="313.289062"/>
     <use xlink:href="#DejaVuSans-73" x="345.076172"/>
     <use xlink:href="#DejaVuSans-70" x="397.175781"/>
     <use xlink:href="#DejaVuSans-65" x="460.652344"/>
     <use xlink:href="#DejaVuSans-65" x="522.175781"/>
     <use xlink:href="#DejaVuSans-64" x="583.699219"/>
     <use xlink:href="#DejaVuSans-20" x="647.175781"/>
     <use xlink:href="#DejaVuSans-76" x="678.962891"/>
     <use xlink:href="#DejaVuSans-73" x="738.142578"/>
     <use xlink:href="#DejaVuSans-20" x="790.242188"/>
     <use xlink:href="#DejaVuSans-45" x="822.029297"/>
     <use xlink:href="#DejaVuSans-78" x="885.212891"/>
     <use xlink:href="#DejaVuSans-70" x="944.392578"/>
     <use xlink:href="#DejaVuSans-65" x="1007.869141"/>
     <use xlink:href="#DejaVuSans-63" x="1069.392578"/>
     <use xlink:href="#DejaVuSans-74" x="1124.373047"/>
     <use xlink:href="#DejaVuSans-65" x="1163.582031"/>
     <use xlink:href="#DejaVuSans-64" x="1225.105469"/>
     <use xlink:href="#DejaVuSans-20" x="1288.582031"/>
     <use xlink:href="#DejaVuSans-73" x="1320.369141"/>
     <use xlink:href="#DejaVuSans-70" x="1372.46875"/>
     <use xlink:href="#DejaVuSans-65" x="1435.945312"/>
     <use xlink:href="#DejaVuSans-65" x="1497.46875"/>
     <use xlink:href="#DejaVuSans-64" x="1558.992188"/>
    </g>
   </g>
   <g id="legend_1">
    <g id="patch_7">
     <path d="M 64.6 302.584 
L 176.65 302.584 
Q 178.65 302.584 178.65 300.584 
L 178.65 272.22775 
Q 178.65 270.22775 176.65 270.22775 
L 64.6 270.22775 
Q 62.6 270.22775 62.6 272.22775 
L 62.6 300.584 
Q 62.6 302.584 64.6 302.584 
z
" style="fill: #ffffff; opacity: 0.8; stroke: #cccccc; stroke-linejoin: miter"/>
    </g>
    <g id="line2d_27">
     <path d="M 66.6 278.326187 
L 76.6 278.326187 
L 86.6 278.326187 
" style="fill: none; stroke: #1f77b4; stroke-width: 1.5; stroke-linecap: square"/>
    </g>
    <g id="text_16">
     <!-- Actual speed -->
     <g transform="translate(94.6 281.826187) scale(0.1 -0.1)">
      <use xlink:href="#DejaVuSans-41"/>
      <use xlink:href="#DejaVuSans-63" x="66.658203"/>
      <use xlink:href="#DejaVuSans-74" x="121.638672"/>
      <use xlink:href="#DejaVuSans-75" x="160.847656"/>
      <use xlink:href="#DejaVuSans-61" x="224.226562"/>
      <use xlink:href="#DejaVuSans-6c" x="285.505859"/>
      <use xlink:href="#DejaVuSans-20" x="313.289062"/>
      <use xlink:href="#DejaVuSans-73" x="345.076172"/>
      <use xlink:href="#DejaVuSans-70" x="397.175781"/>
      <use xlink:href="#DejaVuSans-65" x="460.652344"/>
      <use xlink:href="#DejaVuSans-65" x="522.175781"/>
      <use xlink:href="#DejaVuSans-64" x="583.699219"/>
     </g>
    </g>
    <g id="line2d_28">
     <path d="M 66.6 293.004312 
L 76.6 293.004312 
L 86.6 293.004312 
" style="fill: none; stroke: #ff7f0e; stroke-width: 1.5; stroke-linecap: square"/>
    </g>
    <g id="text_17">
     <!-- Expected speed -->
     <g transform="translate(94.6 296.504312) scale(0.1 -0.1)">
      <use xlink:href="#DejaVuSans-45"/>
      <use xlink:href="#DejaVuSans-78" x="63.183594"/>
      <use xlink:href="#DejaVuSans-70" x="122.363281"/>
      <use xlink:href="#DejaVuSans-65" x="185.839844"/>
      <use xlink:href="#DejaVuSans-63" x="247.363281"/>
      <use xlink:href="#DejaVuSans-74" x="302.34375"/>
      <use xlink:href="#DejaVuSans-65" x="341.552734"/>
      <use xlink:href="#DejaVuSans-64" x="403.076172"/>
      <use xlink:href="#DejaVuSans-20" x="466.552734"/>
      <use xlink:href="#DejaVuSans-73" x="498.339844"/>
      <use xlink:href="#DejaVuSans-70" x="550.439453"/>
      <use xlink:href="#DejaVuSans-65" x="613.916016"/>
      <use xlink:href="#DejaVuSans-65" x="675.439453"/>
      <use xlink:href="#DejaVuSans-64" x="736.962891"/>
     </g>
    </g>
   </g>
  </g>
 </g>
 <defs>
  <clipPath id="pb759ebfe49">
   <rect x="57.6" y="41.472" width="357.12" height="266.112"/>
  </clipPath>
 </defs>
</svg>
