<?xml version="1.0" encoding="utf-8" standalone="no"?>
<!DOCTYPE svg PUBLIC "-//W3C//DTD SVG 1.1//EN"
  "http://www.w3.org/Graphics/SVG/1.1/DTD/svg11.dtd">
<svg xmlns:xlink="http://www.w3.org/1999/xlink" width="460.8pt" height="345.6pt" viewBox="0 0 460.8 345.6" xmlns="http://www.w3.org/2000/svg" version="1.1">
 <metadata>
  <rdf:RDF xmlns:dc="http://purl.org/dc/elements/1.1/" xmlns:cc="http://creativecommons.org/ns#" xmlns:rdf="http://www.w3.org/1999/02/22-rdf-syntax-ns#">
   <cc:Work>
    <dc:type rdf:resource="http://purl.org/dc/dcmitype/StillImage"/>
    <dc:date>2024-01-30T20:58:33.759703</dc:date>
    <dc:format>image/svg+xml</dc:format>
    <dc:creator>
     <cc:Agent>
      <dc:title>Matplotlib v3.7.1, https://matplotlib.org/</dc:title>
     </cc:Agent>
    </dc:creator>
   </cc:Work>
  </rdf:RDF>
 </metadata>
 <defs>
  <style type="text/css">*{stroke-linejoin: round; stroke-linecap: butt}</style>
 </defs>
 <g id="figure_1">
  <g id="patch_1">
   <path d="M 0 345.6 
L 460.8 345.6 
L 460.8 0 
L 0 0 
z
" style="fill: #ffffff"/>
  </g>
  <g id="axes_1">
   <g id="patch_2">
    <path d="M 57.6 307.584 
L 414.72 307.584 
L 414.72 41.472 
L 57.6 41.472 
z
" style="fill: #ffffff"/>
   </g>
   <g id="matplotlib.axis_1">
    <g id="xtick_1">
     <g id="line2d_1">
      <path d="M 73.832727 307.584 
L 73.832727 41.472 
" clip-path="url(#pfddb9e57b4)" style="fill: none; stroke: #b0b0b0; stroke-width: 0.8; stroke-linecap: square"/>
     </g>
     <g id="line2d_2">
      <defs>
       <path id="m5c5eec4a69" d="M 0 0 
L 0 3.5 
" style="stroke: #000000; stroke-width: 0.8"/>
      </defs>
      <g>
       <use xlink:href="#m5c5eec4a69" x="73.832727" y="307.584" style="stroke: #000000; stroke-width: 0.8"/>
      </g>
     </g>
     <g id="text_1">
      <!-- 0 -->
      <g transform="translate(70.651477 322.182437) scale(0.1 -0.1)">
       <defs>
        <path id="DejaVuSans-30" d="M 2034 4250 
Q 1547 4250 1301 3770 
Q 1056 3291 1056 2328 
Q 1056 1369 1301 889 
Q 1547 409 2034 409 
Q 2525 409 2770 889 
Q 3016 1369 3016 2328 
Q 3016 3291 2770 3770 
Q 2525 4250 2034 4250 
z
M 2034 4750 
Q 2819 4750 3233 4129 
Q 3647 3509 3647 2328 
Q 3647 1150 3233 529 
Q 2819 -91 2034 -91 
Q 1250 -91 836 529 
Q 422 1150 422 2328 
Q 422 3509 836 4129 
Q 1250 4750 2034 4750 
z
" transform="scale(0.015625)"/>
       </defs>
       <use xlink:href="#DejaVuSans-30"/>
      </g>
     </g>
    </g>
    <g id="xtick_2">
     <g id="line2d_3">
      <path d="M 125.169626 307.584 
L 125.169626 41.472 
" clip-path="url(#pfddb9e57b4)" style="fill: none; stroke: #b0b0b0; stroke-width: 0.8; stroke-linecap: square"/>
     </g>
     <g id="line2d_4">
      <g>
       <use xlink:href="#m5c5eec4a69" x="125.169626" y="307.584" style="stroke: #000000; stroke-width: 0.8"/>
      </g>
     </g>
     <g id="text_2">
      <!-- 5 -->
      <g transform="translate(121.988376 322.182437) scale(0.1 -0.1)">
       <defs>
        <path id="DejaVuSans-35" d="M 691 4666 
L 3169 4666 
L 3169 4134 
L 1269 4134 
L 1269 2991 
Q 1406 3038 1543 3061 
Q 1681 3084 1819 3084 
Q 2600 3084 3056 2656 
Q 3513 2228 3513 1497 
Q 3513 744 3044 326 
Q 2575 -91 1722 -91 
Q 1428 -91 1123 -41 
Q 819 9 494 109 
L 494 744 
Q 775 591 1075 516 
Q 1375 441 1709 441 
Q 2250 441 2565 725 
Q 2881 1009 2881 1497 
Q 2881 1984 2565 2268 
Q 2250 2553 1709 2553 
Q 1456 2553 1204 2497 
Q 953 2441 691 2322 
L 691 4666 
z
" transform="scale(0.015625)"/>
       </defs>
       <use xlink:href="#DejaVuSans-35"/>
      </g>
     </g>
    </g>
    <g id="xtick_3">
     <g id="line2d_5">
      <path d="M 176.506524 307.584 
L 176.506524 41.472 
" clip-path="url(#pfddb9e57b4)" style="fill: none; stroke: #b0b0b0; stroke-width: 0.8; stroke-linecap: square"/>
     </g>
     <g id="line2d_6">
      <g>
       <use xlink:href="#m5c5eec4a69" x="176.506524" y="307.584" style="stroke: #000000; stroke-width: 0.8"/>
      </g>
     </g>
     <g id="text_3">
      <!-- 10 -->
      <g transform="translate(170.144024 322.182437) scale(0.1 -0.1)">
       <defs>
        <path id="DejaVuSans-31" d="M 794 531 
L 1825 531 
L 1825 4091 
L 703 3866 
L 703 4441 
L 1819 4666 
L 2450 4666 
L 2450 531 
L 3481 531 
L 3481 0 
L 794 0 
L 794 531 
z
" transform="scale(0.015625)"/>
       </defs>
       <use xlink:href="#DejaVuSans-31"/>
       <use xlink:href="#DejaVuSans-30" x="63.623047"/>
      </g>
     </g>
    </g>
    <g id="xtick_4">
     <g id="line2d_7">
      <path d="M 227.843422 307.584 
L 227.843422 41.472 
" clip-path="url(#pfddb9e57b4)" style="fill: none; stroke: #b0b0b0; stroke-width: 0.8; stroke-linecap: square"/>
     </g>
     <g id="line2d_8">
      <g>
       <use xlink:href="#m5c5eec4a69" x="227.843422" y="307.584" style="stroke: #000000; stroke-width: 0.8"/>
      </g>
     </g>
     <g id="text_4">
      <!-- 15 -->
      <g transform="translate(221.480922 322.182437) scale(0.1 -0.1)">
       <use xlink:href="#DejaVuSans-31"/>
       <use xlink:href="#DejaVuSans-35" x="63.623047"/>
      </g>
     </g>
    </g>
    <g id="xtick_5">
     <g id="line2d_9">
      <path d="M 279.180321 307.584 
L 279.180321 41.472 
" clip-path="url(#pfddb9e57b4)" style="fill: none; stroke: #b0b0b0; stroke-width: 0.8; stroke-linecap: square"/>
     </g>
     <g id="line2d_10">
      <g>
       <use xlink:href="#m5c5eec4a69" x="279.180321" y="307.584" style="stroke: #000000; stroke-width: 0.8"/>
      </g>
     </g>
     <g id="text_5">
      <!-- 20 -->
      <g transform="translate(272.817821 322.182437) scale(0.1 -0.1)">
       <defs>
        <path id="DejaVuSans-32" d="M 1228 531 
L 3431 531 
L 3431 0 
L 469 0 
L 469 531 
Q 828 903 1448 1529 
Q 2069 2156 2228 2338 
Q 2531 2678 2651 2914 
Q 2772 3150 2772 3378 
Q 2772 3750 2511 3984 
Q 2250 4219 1831 4219 
Q 1534 4219 1204 4116 
Q 875 4013 500 3803 
L 500 4441 
Q 881 4594 1212 4672 
Q 1544 4750 1819 4750 
Q 2544 4750 2975 4387 
Q 3406 4025 3406 3419 
Q 3406 3131 3298 2873 
Q 3191 2616 2906 2266 
Q 2828 2175 2409 1742 
Q 1991 1309 1228 531 
z
" transform="scale(0.015625)"/>
       </defs>
       <use xlink:href="#DejaVuSans-32"/>
       <use xlink:href="#DejaVuSans-30" x="63.623047"/>
      </g>
     </g>
    </g>
    <g id="xtick_6">
     <g id="line2d_11">
      <path d="M 330.517219 307.584 
L 330.517219 41.472 
" clip-path="url(#pfddb9e57b4)" style="fill: none; stroke: #b0b0b0; stroke-width: 0.8; stroke-linecap: square"/>
     </g>
     <g id="line2d_12">
      <g>
       <use xlink:href="#m5c5eec4a69" x="330.517219" y="307.584" style="stroke: #000000; stroke-width: 0.8"/>
      </g>
     </g>
     <g id="text_6">
      <!-- 25 -->
      <g transform="translate(324.154719 322.182437) scale(0.1 -0.1)">
       <use xlink:href="#DejaVuSans-32"/>
       <use xlink:href="#DejaVuSans-35" x="63.623047"/>
      </g>
     </g>
    </g>
    <g id="xtick_7">
     <g id="line2d_13">
      <path d="M 381.854118 307.584 
L 381.854118 41.472 
" clip-path="url(#pfddb9e57b4)" style="fill: none; stroke: #b0b0b0; stroke-width: 0.8; stroke-linecap: square"/>
     </g>
     <g id="line2d_14">
      <g>
       <use xlink:href="#m5c5eec4a69" x="381.854118" y="307.584" style="stroke: #000000; stroke-width: 0.8"/>
      </g>
     </g>
     <g id="text_7">
      <!-- 30 -->
      <g transform="translate(375.491618 322.182437) scale(0.1 -0.1)">
       <defs>
        <path id="DejaVuSans-33" d="M 2597 2516 
Q 3050 2419 3304 2112 
Q 3559 1806 3559 1356 
Q 3559 666 3084 287 
Q 2609 -91 1734 -91 
Q 1441 -91 1130 -33 
Q 819 25 488 141 
L 488 750 
Q 750 597 1062 519 
Q 1375 441 1716 441 
Q 2309 441 2620 675 
Q 2931 909 2931 1356 
Q 2931 1769 2642 2001 
Q 2353 2234 1838 2234 
L 1294 2234 
L 1294 2753 
L 1863 2753 
Q 2328 2753 2575 2939 
Q 2822 3125 2822 3475 
Q 2822 3834 2567 4026 
Q 2313 4219 1838 4219 
Q 1578 4219 1281 4162 
Q 984 4106 628 3988 
L 628 4550 
Q 988 4650 1302 4700 
Q 1616 4750 1894 4750 
Q 2613 4750 3031 4423 
Q 3450 4097 3450 3541 
Q 3450 3153 3228 2886 
Q 3006 2619 2597 2516 
z
" transform="scale(0.015625)"/>
       </defs>
       <use xlink:href="#DejaVuSans-33"/>
       <use xlink:href="#DejaVuSans-30" x="63.623047"/>
      </g>
     </g>
    </g>
    <g id="text_8">
     <!-- Time(s) -->
     <g transform="translate(217.420156 335.860562) scale(0.1 -0.1)">
      <defs>
       <path id="DejaVuSans-54" d="M -19 4666 
L 3928 4666 
L 3928 4134 
L 2272 4134 
L 2272 0 
L 1638 0 
L 1638 4134 
L -19 4134 
L -19 4666 
z
" transform="scale(0.015625)"/>
       <path id="DejaVuSans-69" d="M 603 3500 
L 1178 3500 
L 1178 0 
L 603 0 
L 603 3500 
z
M 603 4863 
L 1178 4863 
L 1178 4134 
L 603 4134 
L 603 4863 
z
" transform="scale(0.015625)"/>
       <path id="DejaVuSans-6d" d="M 3328 2828 
Q 3544 3216 3844 3400 
Q 4144 3584 4550 3584 
Q 5097 3584 5394 3201 
Q 5691 2819 5691 2113 
L 5691 0 
L 5113 0 
L 5113 2094 
Q 5113 2597 4934 2840 
Q 4756 3084 4391 3084 
Q 3944 3084 3684 2787 
Q 3425 2491 3425 1978 
L 3425 0 
L 2847 0 
L 2847 2094 
Q 2847 2600 2669 2842 
Q 2491 3084 2119 3084 
Q 1678 3084 1418 2786 
Q 1159 2488 1159 1978 
L 1159 0 
L 581 0 
L 581 3500 
L 1159 3500 
L 1159 2956 
Q 1356 3278 1631 3431 
Q 1906 3584 2284 3584 
Q 2666 3584 2933 3390 
Q 3200 3197 3328 2828 
z
" transform="scale(0.015625)"/>
       <path id="DejaVuSans-65" d="M 3597 1894 
L 3597 1613 
L 953 1613 
Q 991 1019 1311 708 
Q 1631 397 2203 397 
Q 2534 397 2845 478 
Q 3156 559 3463 722 
L 3463 178 
Q 3153 47 2828 -22 
Q 2503 -91 2169 -91 
Q 1331 -91 842 396 
Q 353 884 353 1716 
Q 353 2575 817 3079 
Q 1281 3584 2069 3584 
Q 2775 3584 3186 3129 
Q 3597 2675 3597 1894 
z
M 3022 2063 
Q 3016 2534 2758 2815 
Q 2500 3097 2075 3097 
Q 1594 3097 1305 2825 
Q 1016 2553 972 2059 
L 3022 2063 
z
" transform="scale(0.015625)"/>
       <path id="DejaVuSans-28" d="M 1984 4856 
Q 1566 4138 1362 3434 
Q 1159 2731 1159 2009 
Q 1159 1288 1364 580 
Q 1569 -128 1984 -844 
L 1484 -844 
Q 1016 -109 783 600 
Q 550 1309 550 2009 
Q 550 2706 781 3412 
Q 1013 4119 1484 4856 
L 1984 4856 
z
" transform="scale(0.015625)"/>
       <path id="DejaVuSans-73" d="M 2834 3397 
L 2834 2853 
Q 2591 2978 2328 3040 
Q 2066 3103 1784 3103 
Q 1356 3103 1142 2972 
Q 928 2841 928 2578 
Q 928 2378 1081 2264 
Q 1234 2150 1697 2047 
L 1894 2003 
Q 2506 1872 2764 1633 
Q 3022 1394 3022 966 
Q 3022 478 2636 193 
Q 2250 -91 1575 -91 
Q 1294 -91 989 -36 
Q 684 19 347 128 
L 347 722 
Q 666 556 975 473 
Q 1284 391 1588 391 
Q 1994 391 2212 530 
Q 2431 669 2431 922 
Q 2431 1156 2273 1281 
Q 2116 1406 1581 1522 
L 1381 1569 
Q 847 1681 609 1914 
Q 372 2147 372 2553 
Q 372 3047 722 3315 
Q 1072 3584 1716 3584 
Q 2034 3584 2315 3537 
Q 2597 3491 2834 3397 
z
" transform="scale(0.015625)"/>
       <path id="DejaVuSans-29" d="M 513 4856 
L 1013 4856 
Q 1481 4119 1714 3412 
Q 1947 2706 1947 2009 
Q 1947 1309 1714 600 
Q 1481 -109 1013 -844 
L 513 -844 
Q 928 -128 1133 580 
Q 1338 1288 1338 2009 
Q 1338 2731 1133 3434 
Q 928 4138 513 4856 
z
" transform="scale(0.015625)"/>
      </defs>
      <use xlink:href="#DejaVuSans-54"/>
      <use xlink:href="#DejaVuSans-69" x="57.958984"/>
      <use xlink:href="#DejaVuSans-6d" x="85.742188"/>
      <use xlink:href="#DejaVuSans-65" x="183.154297"/>
      <use xlink:href="#DejaVuSans-28" x="244.677734"/>
      <use xlink:href="#DejaVuSans-73" x="283.691406"/>
      <use xlink:href="#DejaVuSans-29" x="335.791016"/>
     </g>
    </g>
   </g>
   <g id="matplotlib.axis_2">
    <g id="ytick_1">
     <g id="line2d_15">
      <path d="M 57.6 266.060452 
L 414.72 266.060452 
" clip-path="url(#pfddb9e57b4)" style="fill: none; stroke: #b0b0b0; stroke-width: 0.8; stroke-linecap: square"/>
     </g>
     <g id="line2d_16">
      <defs>
       <path id="me16c956bb4" d="M 0 0 
L -3.5 0 
" style="stroke: #000000; stroke-width: 0.8"/>
      </defs>
      <g>
       <use xlink:href="#me16c956bb4" x="57.6" y="266.060452" style="stroke: #000000; stroke-width: 0.8"/>
      </g>
     </g>
     <g id="text_9">
      <!-- 4 -->
      <g transform="translate(44.2375 269.85967) scale(0.1 -0.1)">
       <defs>
        <path id="DejaVuSans-34" d="M 2419 4116 
L 825 1625 
L 2419 1625 
L 2419 4116 
z
M 2253 4666 
L 3047 4666 
L 3047 1625 
L 3713 1625 
L 3713 1100 
L 3047 1100 
L 3047 0 
L 2419 0 
L 2419 1100 
L 313 1100 
L 313 1709 
L 2253 4666 
z
" transform="scale(0.015625)"/>
       </defs>
       <use xlink:href="#DejaVuSans-34"/>
      </g>
     </g>
    </g>
    <g id="ytick_2">
     <g id="line2d_17">
      <path d="M 57.6 212.937339 
L 414.72 212.937339 
" clip-path="url(#pfddb9e57b4)" style="fill: none; stroke: #b0b0b0; stroke-width: 0.8; stroke-linecap: square"/>
     </g>
     <g id="line2d_18">
      <g>
       <use xlink:href="#me16c956bb4" x="57.6" y="212.937339" style="stroke: #000000; stroke-width: 0.8"/>
      </g>
     </g>
     <g id="text_10">
      <!-- 5 -->
      <g transform="translate(44.2375 216.736557) scale(0.1 -0.1)">
       <use xlink:href="#DejaVuSans-35"/>
      </g>
     </g>
    </g>
    <g id="ytick_3">
     <g id="line2d_19">
      <path d="M 57.6 159.814226 
L 414.72 159.814226 
" clip-path="url(#pfddb9e57b4)" style="fill: none; stroke: #b0b0b0; stroke-width: 0.8; stroke-linecap: square"/>
     </g>
     <g id="line2d_20">
      <g>
       <use xlink:href="#me16c956bb4" x="57.6" y="159.814226" style="stroke: #000000; stroke-width: 0.8"/>
      </g>
     </g>
     <g id="text_11">
      <!-- 6 -->
      <g transform="translate(44.2375 163.613445) scale(0.1 -0.1)">
       <defs>
        <path id="DejaVuSans-36" d="M 2113 2584 
Q 1688 2584 1439 2293 
Q 1191 2003 1191 1497 
Q 1191 994 1439 701 
Q 1688 409 2113 409 
Q 2538 409 2786 701 
Q 3034 994 3034 1497 
Q 3034 2003 2786 2293 
Q 2538 2584 2113 2584 
z
M 3366 4563 
L 3366 3988 
Q 3128 4100 2886 4159 
Q 2644 4219 2406 4219 
Q 1781 4219 1451 3797 
Q 1122 3375 1075 2522 
Q 1259 2794 1537 2939 
Q 1816 3084 2150 3084 
Q 2853 3084 3261 2657 
Q 3669 2231 3669 1497 
Q 3669 778 3244 343 
Q 2819 -91 2113 -91 
Q 1303 -91 875 529 
Q 447 1150 447 2328 
Q 447 3434 972 4092 
Q 1497 4750 2381 4750 
Q 2619 4750 2861 4703 
Q 3103 4656 3366 4563 
z
" transform="scale(0.015625)"/>
       </defs>
       <use xlink:href="#DejaVuSans-36"/>
      </g>
     </g>
    </g>
    <g id="ytick_4">
     <g id="line2d_21">
      <path d="M 57.6 106.691113 
L 414.72 106.691113 
" clip-path="url(#pfddb9e57b4)" style="fill: none; stroke: #b0b0b0; stroke-width: 0.8; stroke-linecap: square"/>
     </g>
     <g id="line2d_22">
      <g>
       <use xlink:href="#me16c956bb4" x="57.6" y="106.691113" style="stroke: #000000; stroke-width: 0.8"/>
      </g>
     </g>
     <g id="text_12">
      <!-- 7 -->
      <g transform="translate(44.2375 110.490332) scale(0.1 -0.1)">
       <defs>
        <path id="DejaVuSans-37" d="M 525 4666 
L 3525 4666 
L 3525 4397 
L 1831 0 
L 1172 0 
L 2766 4134 
L 525 4134 
L 525 4666 
z
" transform="scale(0.015625)"/>
       </defs>
       <use xlink:href="#DejaVuSans-37"/>
      </g>
     </g>
    </g>
    <g id="ytick_5">
     <g id="line2d_23">
      <path d="M 57.6 53.568 
L 414.72 53.568 
" clip-path="url(#pfddb9e57b4)" style="fill: none; stroke: #b0b0b0; stroke-width: 0.8; stroke-linecap: square"/>
     </g>
     <g id="line2d_24">
      <g>
       <use xlink:href="#me16c956bb4" x="57.6" y="53.568" style="stroke: #000000; stroke-width: 0.8"/>
      </g>
     </g>
     <g id="text_13">
      <!-- 8 -->
      <g transform="translate(44.2375 57.367219) scale(0.1 -0.1)">
       <defs>
        <path id="DejaVuSans-38" d="M 2034 2216 
Q 1584 2216 1326 1975 
Q 1069 1734 1069 1313 
Q 1069 891 1326 650 
Q 1584 409 2034 409 
Q 2484 409 2743 651 
Q 3003 894 3003 1313 
Q 3003 1734 2745 1975 
Q 2488 2216 2034 2216 
z
M 1403 2484 
Q 997 2584 770 2862 
Q 544 3141 544 3541 
Q 544 4100 942 4425 
Q 1341 4750 2034 4750 
Q 2731 4750 3128 4425 
Q 3525 4100 3525 3541 
Q 3525 3141 3298 2862 
Q 3072 2584 2669 2484 
Q 3125 2378 3379 2068 
Q 3634 1759 3634 1313 
Q 3634 634 3220 271 
Q 2806 -91 2034 -91 
Q 1263 -91 848 271 
Q 434 634 434 1313 
Q 434 1759 690 2068 
Q 947 2378 1403 2484 
z
M 1172 3481 
Q 1172 3119 1398 2916 
Q 1625 2713 2034 2713 
Q 2441 2713 2670 2916 
Q 2900 3119 2900 3481 
Q 2900 3844 2670 4047 
Q 2441 4250 2034 4250 
Q 1625 4250 1398 4047 
Q 1172 3844 1172 3481 
z
" transform="scale(0.015625)"/>
       </defs>
       <use xlink:href="#DejaVuSans-38"/>
      </g>
     </g>
    </g>
    <g id="text_14">
     <!-- Velocity(m/s) -->
     <g transform="translate(38.157812 207.204563) rotate(-90) scale(0.1 -0.1)">
      <defs>
       <path id="DejaVuSans-56" d="M 1831 0 
L 50 4666 
L 709 4666 
L 2188 738 
L 3669 4666 
L 4325 4666 
L 2547 0 
L 1831 0 
z
" transform="scale(0.015625)"/>
       <path id="DejaVuSans-6c" d="M 603 4863 
L 1178 4863 
L 1178 0 
L 603 0 
L 603 4863 
z
" transform="scale(0.015625)"/>
       <path id="DejaVuSans-6f" d="M 1959 3097 
Q 1497 3097 1228 2736 
Q 959 2375 959 1747 
Q 959 1119 1226 758 
Q 1494 397 1959 397 
Q 2419 397 2687 759 
Q 2956 1122 2956 1747 
Q 2956 2369 2687 2733 
Q 2419 3097 1959 3097 
z
M 1959 3584 
Q 2709 3584 3137 3096 
Q 3566 2609 3566 1747 
Q 3566 888 3137 398 
Q 2709 -91 1959 -91 
Q 1206 -91 779 398 
Q 353 888 353 1747 
Q 353 2609 779 3096 
Q 1206 3584 1959 3584 
z
" transform="scale(0.015625)"/>
       <path id="DejaVuSans-63" d="M 3122 3366 
L 3122 2828 
Q 2878 2963 2633 3030 
Q 2388 3097 2138 3097 
Q 1578 3097 1268 2742 
Q 959 2388 959 1747 
Q 959 1106 1268 751 
Q 1578 397 2138 397 
Q 2388 397 2633 464 
Q 2878 531 3122 666 
L 3122 134 
Q 2881 22 2623 -34 
Q 2366 -91 2075 -91 
Q 1284 -91 818 406 
Q 353 903 353 1747 
Q 353 2603 823 3093 
Q 1294 3584 2113 3584 
Q 2378 3584 2631 3529 
Q 2884 3475 3122 3366 
z
" transform="scale(0.015625)"/>
       <path id="DejaVuSans-74" d="M 1172 4494 
L 1172 3500 
L 2356 3500 
L 2356 3053 
L 1172 3053 
L 1172 1153 
Q 1172 725 1289 603 
Q 1406 481 1766 481 
L 2356 481 
L 2356 0 
L 1766 0 
Q 1100 0 847 248 
Q 594 497 594 1153 
L 594 3053 
L 172 3053 
L 172 3500 
L 594 3500 
L 594 4494 
L 1172 4494 
z
" transform="scale(0.015625)"/>
       <path id="DejaVuSans-79" d="M 2059 -325 
Q 1816 -950 1584 -1140 
Q 1353 -1331 966 -1331 
L 506 -1331 
L 506 -850 
L 844 -850 
Q 1081 -850 1212 -737 
Q 1344 -625 1503 -206 
L 1606 56 
L 191 3500 
L 800 3500 
L 1894 763 
L 2988 3500 
L 3597 3500 
L 2059 -325 
z
" transform="scale(0.015625)"/>
       <path id="DejaVuSans-2f" d="M 1625 4666 
L 2156 4666 
L 531 -594 
L 0 -594 
L 1625 4666 
z
" transform="scale(0.015625)"/>
      </defs>
      <use xlink:href="#DejaVuSans-56"/>
      <use xlink:href="#DejaVuSans-65" x="60.658203"/>
      <use xlink:href="#DejaVuSans-6c" x="122.181641"/>
      <use xlink:href="#DejaVuSans-6f" x="149.964844"/>
      <use xlink:href="#DejaVuSans-63" x="211.146484"/>
      <use xlink:href="#DejaVuSans-69" x="266.126953"/>
      <use xlink:href="#DejaVuSans-74" x="293.910156"/>
      <use xlink:href="#DejaVuSans-79" x="333.119141"/>
      <use xlink:href="#DejaVuSans-28" x="392.298828"/>
      <use xlink:href="#DejaVuSans-6d" x="431.3125"/>
      <use xlink:href="#DejaVuSans-2f" x="528.724609"/>
      <use xlink:href="#DejaVuSans-73" x="562.416016"/>
      <use xlink:href="#DejaVuSans-29" x="614.515625"/>
     </g>
    </g>
   </g>
   <g id="line2d_25">
    <path d="M 73.832727 54.290209 
L 75.27016 53.933115 
L 75.27016 53.933115 
L 77.528984 53.698523 
L 77.528984 53.698523 
L 80.814545 53.614801 
L 80.814545 53.614801 
L 86.769626 53.577403 
L 86.769626 53.577403 
L 86.974973 54.258707 
L 86.974973 54.258707 
L 87.385668 57.138404 
L 87.385668 57.138404 
L 87.796364 60.074784 
L 87.796364 60.074784 
L 88.823102 72.40365 
L 88.823102 72.40365 
L 89.233797 79.291858 
L 89.233797 79.291858 
L 89.644492 86.586777 
L 89.644492 86.586777 
L 90.055187 95.916524 
L 90.055187 95.916524 
L 90.67123 110.870202 
L 90.67123 110.870202 
L 91.081925 121.257152 
L 91.081925 121.257152 
L 91.49262 132.060162 
L 91.49262 132.060162 
L 92.519358 152.793953 
L 92.519358 152.793953 
L 94.162139 179.363372 
L 94.162139 179.363372 
L 94.572834 184.324699 
L 94.572834 184.324699 
L 95.394225 192.785617 
L 95.394225 192.785617 
L 96.831658 200.903254 
L 96.831658 200.903254 
L 97.242353 202.362705 
L 97.242353 202.362705 
L 97.653048 203.288375 
L 97.653048 203.288375 
L 97.858396 203.662203 
L 97.858396 203.662203 
L 99.501176 204.065619 
L 99.501176 204.065619 
L 100.733262 203.867736 
L 100.733262 203.867736 
L 100.93861 203.750653 
L 100.93861 203.750653 
L 101.76 202.252528 
L 101.76 202.252528 
L 102.58139 199.429034 
L 102.58139 199.429034 
L 103.197433 195.950639 
L 103.197433 195.950639 
L 104.224171 184.620754 
L 104.224171 184.620754 
L 104.840214 175.234219 
L 104.840214 175.234219 
L 105.661604 158.419425 
L 105.661604 158.419425 
L 106.482995 143.508671 
L 106.482995 143.508671 
L 107.099037 135.746056 
L 107.099037 135.746056 
L 107.920428 128.517859 
L 107.920428 128.517859 
L 108.741818 123.503888 
L 108.741818 123.503888 
L 109.768556 117.777269 
L 109.768556 117.777269 
L 110.795294 109.109065 
L 110.795294 109.109065 
L 111.205989 103.706178 
L 111.205989 103.706178 
L 111.616684 97.663424 
L 111.616684 97.663424 
L 112.438075 83.863314 
L 112.438075 83.863314 
L 113.054118 78.205862 
L 113.054118 78.205862 
L 113.67016 74.876796 
L 113.67016 74.876796 
L 114.286203 72.622411 
L 114.286203 72.622411 
L 115.312941 70.153355 
L 115.312941 70.153355 
L 115.928984 68.909158 
L 115.928984 68.909158 
L 116.339679 67.555953 
L 116.339679 67.555953 
L 117.366417 62.553562 
L 117.366417 62.553562 
L 118.187807 59.653306 
L 118.187807 59.653306 
L 119.009198 57.689185 
L 119.009198 57.689185 
L 119.830588 56.358982 
L 119.830588 56.358982 
L 120.651979 55.45812 
L 120.651979 55.45812 
L 121.473369 54.848055 
L 121.473369 54.848055 
L 122.500107 54.354435 
L 122.500107 54.354435 
L 123.732193 54.006266 
L 123.732193 54.006266 
L 126.196364 53.708617 
L 126.196364 53.708617 
L 129.687273 53.59504 
L 129.687273 53.59504 
L 131.946096 53.577243 
L 131.946096 53.577243 
L 132.151444 53.826922 
L 132.151444 53.826922 
L 132.767487 60.634861 
L 132.767487 60.634861 
L 133.178182 66.473145 
L 133.178182 66.473145 
L 133.999572 79.699578 
L 133.999572 79.699578 
L 135.437005 100.99249 
L 135.437005 100.99249 
L 136.463743 113.586174 
L 136.463743 113.586174 
L 136.874439 118.354664 
L 136.874439 118.354664 
L 138.927914 136.710665 
L 138.927914 136.710665 
L 139.543957 140.320275 
L 139.543957 140.320275 
L 140.98139 145.616171 
L 140.98139 145.616171 
L 141.597433 146.685592 
L 141.597433 146.685592 
L 142.213476 147.291143 
L 142.213476 147.291143 
L 142.418824 147.314357 
L 142.418824 147.314357 
L 142.829519 147.470592 
L 142.829519 147.470592 
L 144.061604 147.468946 
L 144.061604 147.468946 
L 144.472299 147.46613 
L 144.472299 147.46613 
L 145.499037 147.013362 
L 145.499037 147.013362 
L 146.320428 146.251523 
L 146.320428 146.251523 
L 146.731123 145.737345 
L 146.731123 145.737345 
L 147.963209 143.021054 
L 147.963209 143.021054 
L 148.373904 141.809156 
L 148.373904 141.809156 
L 149.605989 136.408979 
L 149.605989 136.408979 
L 150.42738 131.290248 
L 150.42738 131.290248 
L 151.043422 126.207057 
L 151.043422 126.207057 
L 151.864813 117.600635 
L 151.864813 117.600635 
L 153.096898 99.850875 
L 153.096898 99.850875 
L 153.918289 85.481232 
L 153.918289 85.481232 
L 154.739679 75.18066 
L 154.739679 75.18066 
L 155.56107 68.204799 
L 155.56107 68.204799 
L 156.38246 63.480507 
L 156.38246 63.480507 
L 157.20385 60.281062 
L 157.20385 60.281062 
L 158.025241 58.114276 
L 158.025241 58.114276 
L 158.846631 56.646909 
L 158.846631 56.646909 
L 159.668021 55.653135 
L 159.668021 55.653135 
L 160.489412 54.980119 
L 160.489412 54.980119 
L 161.51615 54.43635 
L 161.51615 54.43635 
L 162.748235 54.053864 
L 162.748235 54.053864 
L 164.391016 53.792073 
L 164.391016 53.792073 
L 167.060535 53.631163 
L 167.060535 53.631163 
L 169.524706 53.587602 
L 169.524706 53.587602 
L 169.730053 53.742138 
L 169.730053 53.742138 
L 170.346096 56.498855 
L 170.346096 56.498855 
L 170.756791 59.481187 
L 170.756791 59.481187 
L 171.372834 64.071555 
L 171.372834 64.071555 
L 172.399572 73.049999 
L 172.399572 73.049999 
L 174.863743 102.617686 
L 174.863743 102.617686 
L 175.274439 108.345845 
L 175.274439 108.345845 
L 176.095829 119.435666 
L 176.095829 119.435666 
L 176.917219 132.680162 
L 176.917219 132.680162 
L 177.73861 145.261468 
L 177.73861 145.261468 
L 177.943957 148.440089 
L 177.943957 148.440089 
L 178.354652 155.697875 
L 178.354652 155.697875 
L 179.997433 182.160941 
L 179.997433 182.160941 
L 182.666952 219.944596 
L 182.666952 219.944596 
L 182.872299 222.001735 
L 182.872299 222.001735 
L 183.488342 230.272367 
L 183.488342 230.272367 
L 183.69369 232.274736 
L 183.69369 232.274736 
L 184.309733 240.346103 
L 184.309733 240.346103 
L 184.51508 241.885929 
L 184.51508 241.885929 
L 184.720428 245.196083 
L 184.720428 245.196083 
L 185.131123 248.255231 
L 185.131123 248.255231 
L 186.773904 264.730993 
L 186.773904 264.730993 
L 187.389947 269.083582 
L 187.389947 269.083582 
L 187.800642 272.60166 
L 187.800642 272.60166 
L 188.416684 276.761093 
L 188.416684 276.761093 
L 188.82738 279.519086 
L 188.82738 279.519086 
L 189.238075 281.747547 
L 189.238075 281.747547 
L 190.264813 286.479489 
L 190.264813 286.479489 
L 191.496898 290.178079 
L 191.496898 290.178079 
L 191.702246 290.46335 
L 191.702246 290.46335 
L 192.112941 291.353269 
L 192.112941 291.353269 
L 192.934332 292.62647 
L 192.934332 292.62647 
L 193.550374 293.268835 
L 193.550374 293.268835 
L 193.96107 293.540507 
L 193.96107 293.540507 
L 194.166417 293.52611 
L 194.577112 293.635278 
L 194.577112 293.635278 
L 195.809198 293.850427 
L 195.809198 293.850427 
L 196.835936 293.739665 
L 196.835936 293.739665 
L 197.451979 293.507836 
L 197.451979 293.507836 
L 197.862674 293.257839 
L 197.862674 293.257839 
L 198.273369 292.852509 
L 198.273369 292.852509 
L 199.505455 290.207775 
L 199.505455 290.207775 
L 200.121497 287.642885 
L 200.121497 287.642885 
L 200.532193 285.801903 
L 200.532193 285.801903 
L 201.55893 278.160516 
L 201.55893 278.160516 
L 202.791016 263.764789 
L 202.791016 263.764789 
L 203.407059 254.409969 
L 203.407059 254.409969 
L 204.433797 238.436167 
L 204.433797 238.436167 
L 204.844492 235.236403 
L 204.844492 235.236403 
L 205.04984 234.276681 
L 205.04984 234.276681 
L 205.460535 233.645525 
L 205.460535 233.645525 
L 205.87123 234.84717 
L 205.87123 234.84717 
L 206.487273 239.340588 
L 206.487273 239.340588 
L 206.69262 240.295954 
L 206.69262 240.295954 
L 207.103316 242.729949 
L 207.103316 242.729949 
L 207.719358 245.29383 
L 207.719358 245.29383 
L 208.335401 246.969014 
L 208.335401 246.969014 
L 208.746096 247.629494 
L 208.746096 247.629494 
L 209.156791 247.984462 
L 209.156791 247.984462 
L 209.567487 248.140432 
L 209.567487 248.140432 
L 209.978182 248.212201 
L 209.978182 248.212201 
L 211.00492 248.344478 
L 211.00492 248.344478 
L 211.620963 248.194352 
L 211.620963 248.194352 
L 212.442353 247.520485 
L 212.442353 247.520485 
L 213.879786 244.844037 
L 213.879786 244.844037 
L 214.701176 241.957061 
L 214.701176 241.957061 
L 216.549305 231.799603 
L 216.549305 231.799603 
L 217.576043 222.838318 
L 217.576043 222.838318 
L 218.192086 216.579353 
L 218.192086 216.579353 
L 219.629519 197.207372 
L 219.629519 197.207372 
L 220.450909 183.565304 
L 220.450909 183.565304 
L 221.272299 166.742542 
L 221.272299 166.742542 
L 222.709733 129.958346 
L 222.709733 129.958346 
L 224.147166 93.299307 
L 224.147166 93.299307 
L 224.968556 80.475282 
L 224.968556 80.475282 
L 225.789947 71.790503 
L 225.789947 71.790503 
L 226.611337 65.908871 
L 226.611337 65.908871 
L 227.432727 61.925594 
L 227.432727 61.925594 
L 228.254118 59.228055 
L 228.254118 59.228055 
L 229.075508 57.401151 
L 229.075508 57.401151 
L 229.896898 56.163914 
L 229.896898 56.163914 
L 230.718289 55.326534 
L 230.718289 55.326534 
L 231.745027 54.650596 
L 231.745027 54.650596 
L 232.771765 54.236076 
L 232.771765 54.236076 
L 234.209198 53.905757 
L 234.209198 53.905757 
L 236.262674 53.695495 
L 236.262674 53.695495 
L 239.13754 53.601361 
L 239.13754 53.601361 
L 239.548235 54.125474 
L 239.548235 54.125474 
L 239.753583 55.636614 
L 239.753583 55.636614 
L 240.164278 62.897056 
L 240.164278 62.897056 
L 240.574973 71.231276 
L 240.574973 71.231276 
L 240.985668 78.963663 
L 240.985668 78.963663 
L 241.396364 87.227654 
L 241.396364 87.227654 
L 241.807059 94.564222 
L 241.807059 94.564222 
L 242.217754 102.062762 
L 242.217754 102.062762 
L 244.27123 130.682892 
L 244.27123 130.682892 
L 245.09262 140.424343 
L 245.09262 140.424343 
L 246.119358 150.132804 
L 246.119358 150.132804 
L 246.530053 154.191888 
L 246.530053 154.191888 
L 250.637005 191.810064 
L 250.637005 191.810064 
L 251.047701 196.797475 
L 251.047701 196.797475 
L 251.663743 204.240235 
L 251.663743 204.240235 
L 251.869091 205.97598 
L 251.869091 205.97598 
L 252.895829 219.108863 
L 252.895829 219.108863 
L 253.511872 226.399957 
L 253.511872 226.399957 
L 254.127914 234.953735 
L 254.127914 234.953735 
L 254.333262 236.891188 
L 254.949305 245.646196 
L 254.949305 245.646196 
L 255.36 248.757191 
L 255.36 248.757191 
L 256.592086 261.088872 
L 256.592086 261.088872 
L 257.208128 266.08101 
L 257.208128 266.08101 
L 257.618824 269.393608 
L 257.618824 269.393608 
L 258.234866 273.65865 
L 258.234866 273.65865 
L 258.645561 276.983892 
L 258.645561 276.983892 
L 259.261604 280.524282 
L 259.261604 280.524282 
L 259.672299 283.275103 
L 259.672299 283.275103 
L 260.288342 286.451918 
L 260.288342 286.451918 
L 260.699037 288.52696 
L 260.699037 288.52696 
L 261.31508 290.912241 
L 261.31508 290.912241 
L 261.725775 292.374029 
L 261.725775 292.374029 
L 262.341818 293.800172 
L 262.341818 293.800172 
L 263.573904 295.081343 
L 263.573904 295.081343 
L 265.422032 295.316147 
L 265.422032 295.316147 
L 266.038075 295.053347 
L 266.038075 295.053347 
L 266.44877 294.783481 
L 266.44877 294.783481 
L 267.27016 293.43596 
L 267.27016 293.43596 
L 267.475508 292.969114 
L 267.475508 292.969114 
L 268.707594 287.433208 
L 268.707594 287.433208 
L 269.323636 282.287385 
L 269.323636 282.287385 
L 269.939679 275.997714 
L 269.939679 275.997714 
L 270.350374 270.047022 
L 270.350374 270.047022 
L 271.377112 256.216367 
L 271.377112 256.216367 
L 271.58246 254.711283 
L 271.58246 254.711283 
L 271.787807 254.391269 
L 271.787807 254.391269 
L 271.993155 253.838045 
L 271.993155 253.838045 
L 272.198503 253.653974 
L 272.198503 253.653974 
L 272.609198 256.035111 
L 272.609198 256.035111 
L 273.019893 260.336224 
L 273.019893 260.336224 
L 273.635936 265.72312 
L 273.635936 265.72312 
L 274.251979 271.303384 
L 274.251979 271.303384 
L 275.073369 275.930354 
L 275.073369 275.930354 
L 275.484064 277.022512 
L 275.484064 277.022512 
L 275.894759 277.724269 
L 275.894759 277.724269 
L 276.100107 277.902762 
L 276.100107 277.902762 
L 276.510802 277.894316 
L 276.510802 277.894316 
L 276.921497 278.035039 
L 276.921497 278.035039 
L 278.564278 277.441335 
L 278.564278 277.441335 
L 278.974973 276.85884 
L 278.974973 276.85884 
L 280.001711 274.312862 
L 280.001711 274.312862 
L 281.439144 266.341367 
L 281.439144 266.341367 
L 282.055187 261.683851 
L 282.055187 261.683851 
L 283.697968 243.028926 
L 283.697968 243.028926 
L 284.519358 231.418923 
L 284.519358 231.418923 
L 285.546096 211.818778 
L 285.546096 211.818778 
L 286.162139 197.809842 
L 286.162139 197.809842 
L 288.215615 146.639641 
L 288.215615 146.639641 
L 288.831658 135.799073 
L 288.831658 135.799073 
L 289.447701 128.81673 
L 289.447701 128.81673 
L 290.063743 124.166598 
L 290.063743 124.166598 
L 290.679786 121.078711 
L 290.679786 121.078711 
L 291.501176 118.275776 
L 291.501176 118.275776 
L 292.322567 116.405683 
L 292.322567 116.405683 
L 293.76 113.624688 
L 293.76 113.624688 
L 294.58139 110.974217 
L 294.58139 110.974217 
L 295.608128 104.300945 
L 295.608128 104.300945 
L 296.018824 100.231767 
L 296.018824 100.231767 
L 296.634866 92.369069 
L 296.634866 92.369069 
L 297.250909 85.595765 
L 297.250909 85.595765 
L 297.661604 84.510141 
L 297.661604 84.510141 
L 297.866952 84.684651 
L 297.866952 84.684651 
L 298.072299 86.568875 
L 298.072299 86.568875 
L 298.482995 92.013887 
L 298.482995 92.013887 
L 298.89369 97.396109 
L 298.89369 97.396109 
L 299.304385 102.656466 
L 299.304385 102.656466 
L 300.331123 111.298587 
L 300.331123 111.298587 
L 300.741818 113.560569 
L 300.741818 113.560569 
L 301.152513 115.157715 
L 301.152513 115.157715 
L 301.768556 116.527388 
L 301.768556 116.527388 
L 302.179251 117.180059 
L 302.179251 117.180059 
L 302.795294 117.216873 
L 302.795294 117.216873 
L 303.000642 117.404504 
L 303.000642 117.404504 
L 304.438075 117.114399 
L 304.438075 117.114399 
L 305.259465 116.195741 
L 305.259465 116.195741 
L 305.67016 115.621214 
L 305.67016 115.621214 
L 306.696898 112.351274 
L 306.696898 112.351274 
L 307.107594 110.372226 
L 307.107594 110.372226 
L 307.518289 107.991832 
L 307.518289 107.991832 
L 308.339679 101.511875 
L 308.339679 101.511875 
L 309.777112 84.857407 
L 309.777112 84.857407 
L 310.598503 74.758225 
L 310.598503 74.758225 
L 311.419893 67.918678 
L 311.419893 67.918678 
L 312.241283 63.286714 
L 312.241283 63.286714 
L 313.062674 60.149847 
L 313.062674 60.149847 
L 313.884064 58.025454 
L 313.884064 58.025454 
L 314.705455 56.586721 
L 314.705455 56.586721 
L 315.526845 55.61239 
L 315.526845 55.61239 
L 316.348235 54.952495 
L 316.348235 54.952495 
L 317.374973 54.418607 
L 317.374973 54.418607 
L 318.607059 54.042071 
L 318.607059 54.042071 
L 319.839144 53.85683 
L 319.839144 53.85683 
L 320.044492 55.466036 
L 320.044492 55.466036 
L 321.07123 74.827923 
L 321.07123 74.827923 
L 321.89262 92.635428 
L 321.89262 92.635428 
L 322.508663 104.554289 
L 322.508663 104.554289 
L 323.740749 126.945893 
L 323.740749 126.945893 
L 325.383529 151.962364 
L 325.383529 151.962364 
L 326.20492 162.622207 
L 326.20492 162.622207 
L 326.615615 168.223455 
L 326.615615 168.223455 
L 327.02631 173.051337 
L 327.02631 173.051337 
L 328.258396 185.646402 
L 328.258396 185.646402 
L 329.079786 192.125562 
L 329.079786 192.125562 
L 329.490481 195.622019 
L 329.490481 195.622019 
L 329.901176 198.678564 
L 329.901176 198.678564 
L 330.517219 202.686543 
L 330.517219 202.686543 
L 332.98139 214.672871 
L 332.98139 214.672871 
L 333.597433 218.039867 
L 333.597433 218.039867 
L 334.213476 220.628503 
L 334.213476 220.628503 
L 334.829519 223.791772 
L 334.829519 223.791772 
L 336.677647 230.326712 
L 336.677647 230.326712 
L 337.704385 231.706531 
L 337.704385 231.706531 
L 338.320428 231.969331 
L 338.320428 231.969331 
L 338.731123 231.971934 
L 338.731123 231.971934 
L 339.141818 232.026651 
L 339.141818 232.026651 
L 339.347166 232.026332 
L 340.168556 231.498501 
L 340.168556 231.498501 
L 340.579251 230.816507 
L 340.579251 230.816507 
L 340.989947 230.004095 
L 340.989947 230.004095 
L 341.400642 228.73185 
L 341.400642 228.73185 
L 342.016684 225.490596 
L 342.016684 225.490596 
L 342.632727 220.54239 
L 342.632727 220.54239 
L 343.24877 213.320675 
L 343.24877 213.320675 
L 344.275508 199.424625 
L 344.275508 199.424625 
L 344.686203 197.07908 
L 344.686203 197.07908 
L 344.891551 196.53664 
L 344.891551 196.53664 
L 345.096898 196.318251 
L 345.096898 196.318251 
L 345.302246 197.293963 
L 345.302246 197.293963 
L 345.507594 197.671244 
L 345.507594 197.671244 
L 345.918289 199.694544 
L 345.918289 199.694544 
L 346.534332 202.122801 
L 346.534332 202.122801 
L 346.945027 203.323596 
L 346.945027 203.323596 
L 348.38246 203.802766 
L 348.38246 203.802766 
L 348.793155 203.6579 
L 348.793155 203.6579 
L 349.614545 202.049066 
L 349.614545 202.049066 
L 350.435936 198.671764 
L 350.435936 198.671764 
L 351.257326 192.945465 
L 351.257326 192.945465 
L 351.668021 188.386492 
L 351.668021 188.386492 
L 352.284064 180.92976 
L 352.284064 180.92976 
L 353.721497 157.184313 
L 353.721497 157.184313 
L 355.15893 125.798381 
L 355.15893 125.798381 
L 357.007059 85.905579 
L 357.007059 85.905579 
L 357.828449 75.468056 
L 357.828449 75.468056 
L 358.64984 68.399389 
L 358.64984 68.399389 
L 359.060535 67.157317 
L 359.060535 67.157317 
L 359.265882 67.509842 
L 359.265882 67.509842 
L 359.47123 70.773354 
L 359.47123 70.773354 
L 359.881925 80.209719 
L 359.881925 80.209719 
L 360.29262 89.488415 
L 360.29262 89.488415 
L 360.703316 100.231342 
L 360.703316 100.231342 
L 362.962139 148.417353 
L 362.962139 148.417353 
L 364.810267 174.332773 
L 364.810267 174.332773 
L 365.42631 180.505253 
L 365.42631 180.505253 
L 367.069091 192.04354 
L 367.069091 192.04354 
L 368.095829 196.729371 
L 368.095829 196.729371 
L 368.711872 198.767014 
L 368.711872 198.767014 
L 369.73861 201.357563 
L 369.73861 201.357563 
L 370.354652 202.587575 
L 370.354652 202.587575 
L 371.792086 203.868905 
L 371.792086 203.868905 
L 373.434866 204.449221 
L 373.434866 204.449221 
L 373.640214 204.399445 
L 373.640214 204.399445 
L 373.845561 204.487258 
L 373.845561 204.487258 
L 374.872299 204.337504 
L 374.872299 204.337504 
L 375.488342 204.193806 
L 375.488342 204.193806 
L 376.104385 203.934884 
L 376.104385 203.934884 
L 377.131123 202.424912 
L 377.131123 202.424912 
L 377.541818 201.496108 
L 377.541818 201.496108 
L 377.952513 200.314437 
L 377.952513 200.314437 
L 378.363209 198.841811 
L 378.363209 198.841811 
L 378.773904 196.998705 
L 378.773904 196.998705 
L 380.211337 186.068199 
L 380.211337 186.068199 
L 380.82738 179.90119 
L 380.82738 179.90119 
L 381.443422 171.907968 
L 381.443422 171.907968 
L 382.880856 148.821194 
L 382.880856 148.821194 
L 384.112941 123.219891 
L 384.112941 123.219891 
L 385.550374 91.077858 
L 385.550374 91.077858 
L 386.371765 78.970888 
L 386.371765 78.970888 
L 387.193155 70.771654 
L 387.193155 70.771654 
L 388.014545 65.218855 
L 388.014545 65.218855 
L 388.835936 61.458323 
L 388.835936 61.458323 
L 389.657326 58.911601 
L 389.657326 58.911601 
L 390.478717 57.19259 
L 390.478717 57.19259 
L 391.300107 56.035356 
L 391.300107 56.035356 
L 392.121497 55.265443 
L 392.121497 55.265443 
L 393.148235 54.61086 
L 393.148235 54.61086 
L 393.969626 54.338232 
L 393.969626 54.338232 
L 395.407059 53.99171 
L 395.407059 53.99171 
L 396.844492 54.477786 
L 396.844492 54.477786 
L 397.665882 54.251376 
L 397.665882 54.251376 
L 397.87123 54.235226 
L 397.87123 54.235226 
L 398.487273 54.510192 
L 398.487273 54.510192 
" clip-path="url(#pfddb9e57b4)" style="fill: none; stroke: #1f77b4; stroke-width: 1.5; stroke-linecap: square"/>
   </g>
   <g id="line2d_26">
    <path d="M 73.832727 53.568 
L 86.564278 53.568 
L 86.564278 53.568 
L 86.769626 55.556611 
L 86.769626 55.556611 
L 86.974973 59.109006 
L 86.974973 59.109006 
L 87.180321 59.443735 
L 87.180321 59.443735 
L 87.385668 60.540196 
L 87.385668 60.540196 
L 88.617754 78.076826 
L 88.617754 78.076826 
L 88.823102 84.664092 
L 88.823102 84.664092 
L 89.028449 84.374412 
L 89.028449 84.374412 
L 89.439144 94.414415 
L 89.439144 94.414415 
L 89.644492 103.733802 
L 89.644492 103.733802 
L 89.84984 102.445886 
L 89.84984 102.445886 
L 90.055187 108.357532 
L 90.055187 108.357532 
L 90.260535 118.726526 
L 90.260535 118.726526 
L 90.465882 119.04978 
L 90.465882 119.04978 
L 90.876578 131.937394 
L 90.876578 131.937394 
L 91.081925 141.875401 
L 91.081925 141.875401 
L 91.287273 139.119852 
L 91.287273 139.119852 
L 91.49262 145.394754 
L 91.49262 145.394754 
L 91.697968 147.445518 
L 91.697968 147.445518 
L 91.903316 151.81431 
L 91.903316 151.81431 
L 92.108663 158.585966 
L 92.108663 158.585966 
L 92.314011 159.598599 
L 92.314011 159.598599 
L 92.519358 163.048361 
L 92.519358 163.048361 
L 92.724706 170.571391 
L 92.724706 170.571391 
L 92.930053 169.053663 
L 92.930053 169.053663 
L 93.135401 174.515197 
L 93.135401 174.515197 
L 93.340749 175.451545 
L 93.340749 175.451545 
L 93.546096 178.826085 
L 93.546096 178.826085 
L 93.751444 184.538785 
L 93.751444 184.538785 
L 93.956791 183.640686 
L 93.956791 183.640686 
L 94.162139 188.04592 
L 94.162139 188.04592 
L 94.367487 188.082681 
L 94.572834 190.93502 
L 94.572834 190.93502 
L 94.778182 191.47167 
L 94.778182 191.47167 
L 94.983529 193.634631 
L 94.983529 193.634631 
L 95.188877 197.86153 
L 95.188877 197.86153 
L 95.394225 196.43475 
L 95.394225 196.43475 
L 95.599572 199.222332 
L 95.599572 199.222332 
L 95.80492 198.937592 
L 95.80492 198.937592 
L 96.010267 200.752703 
L 96.010267 200.752703 
L 96.215615 200.907663 
L 96.215615 200.907663 
L 96.420963 201.997909 
L 96.420963 201.997909 
L 96.62631 202.378642 
L 96.62631 202.378642 
L 96.831658 203.598349 
L 96.831658 203.598349 
L 97.037005 203.375656 
L 97.037005 203.375656 
L 97.242353 204.006918 
L 97.242353 204.006918 
L 97.447701 203.97361 
L 97.447701 203.97361 
L 97.653048 204.374477 
L 97.653048 204.374477 
L 97.858396 203.847124 
L 97.858396 203.847124 
L 98.063743 204.079378 
L 98.063743 204.079378 
L 98.269091 203.879954 
L 98.269091 203.879954 
L 98.474439 204.131173 
L 98.474439 204.131173 
L 98.679786 203.904975 
L 98.679786 203.904975 
L 98.885134 204.163313 
L 98.885134 204.163313 
L 99.090481 203.901894 
L 99.090481 203.901894 
L 99.295829 204.169741 
L 99.295829 204.169741 
L 99.501176 203.80027 
L 99.501176 203.80027 
L 99.706524 204.050745 
L 99.706524 204.050745 
L 99.911872 204.007715 
L 100.733262 202.606699 
L 100.733262 202.606699 
L 100.93861 199.92446 
L 100.93861 199.92446 
L 101.143957 200.451017 
L 101.143957 200.451017 
L 101.349305 198.011444 
L 101.349305 198.011444 
L 101.554652 198.392018 
L 101.554652 198.392018 
L 101.76 195.506955 
L 101.76 195.506955 
L 101.965348 195.426101 
L 101.965348 195.426101 
L 102.992086 182.862963 
L 102.992086 182.862963 
L 103.197433 173.528382 
L 103.197433 173.528382 
L 103.402781 175.670784 
L 103.402781 175.670784 
L 103.608128 165.775064 
L 103.608128 165.775064 
L 103.813476 166.197393 
L 103.813476 166.197393 
L 104.018824 156.061078 
L 104.224171 155.519753 
L 104.224171 155.519753 
L 104.429519 145.960462 
L 104.429519 145.960462 
L 104.634866 142.535136 
L 104.634866 142.535136 
L 104.840214 135.149218 
L 104.840214 135.149218 
L 105.045561 121.157599 
L 105.250909 123.754894 
L 105.250909 123.754894 
L 105.456257 115.243297 
L 105.456257 115.243297 
L 105.661604 115.203826 
L 105.661604 115.203826 
L 105.866952 111.761023 
L 105.866952 111.761023 
L 106.072299 111.599901 
L 106.072299 111.599901 
L 106.277647 110.942821 
L 106.277647 110.942821 
L 106.482995 112.352124 
L 106.482995 112.352124 
L 106.688342 112.68085 
L 106.688342 112.68085 
L 106.89369 113.500858 
L 106.89369 113.500858 
L 107.099037 113.276573 
L 107.099037 113.276573 
L 107.304385 113.381172 
L 107.304385 113.381172 
L 107.509733 113.636588 
L 107.509733 113.636588 
L 107.71508 113.124747 
L 107.71508 113.124747 
L 107.920428 113.378728 
L 107.920428 113.378728 
L 108.125775 113.265576 
L 108.125775 113.265576 
L 108.536471 112.479354 
L 108.536471 112.479354 
L 108.741818 111.855476 
L 108.741818 111.855476 
L 108.947166 110.459029 
L 108.947166 110.459029 
L 109.152513 107.438874 
L 109.152513 107.438874 
L 109.357861 108.457988 
L 109.357861 108.457988 
L 109.563209 106.317498 
L 109.563209 106.317498 
L 109.768556 100.644959 
L 109.768556 100.644959 
L 109.973904 101.853244 
L 109.973904 101.853244 
L 110.179251 97.304843 
L 110.179251 97.304843 
L 110.384599 89.476834 
L 110.384599 89.476834 
L 110.589947 90.4203 
L 110.589947 90.4203 
L 110.795294 84.375846 
L 110.795294 84.375846 
L 111.000642 73.349666 
L 111.000642 73.349666 
L 111.205989 73.309027 
L 111.205989 73.309027 
L 111.411337 66.192655 
L 111.411337 66.192655 
L 111.616684 54.788238 
L 111.616684 54.788238 
L 111.822032 54.513804 
L 111.822032 54.513804 
L 112.02738 53.568 
L 112.02738 53.568 
L 112.643422 61.219269 
L 112.643422 61.219269 
L 113.259465 65.233623 
L 113.259465 65.233623 
L 113.67016 65.940426 
L 113.67016 65.940426 
L 113.875508 65.911846 
L 113.875508 65.911846 
L 114.080856 66.080937 
L 114.080856 66.080937 
L 114.286203 66.612009 
L 114.286203 66.612009 
L 114.902246 66.172893 
L 114.902246 66.172893 
L 115.107594 65.680867 
L 115.312941 66.164606 
L 115.723636 64.328405 
L 115.723636 64.328405 
L 115.928984 62.71086 
L 115.928984 62.71086 
L 116.134332 59.956107 
L 116.339679 55.484841 
L 116.339679 55.484841 
L 116.545027 57.063023 
L 116.545027 57.063023 
L 116.750374 53.950221 
L 116.750374 53.950221 
L 116.955722 53.568 
L 116.955722 53.568 
L 131.740749 53.568 
L 131.740749 53.568 
L 131.946096 54.302533 
L 131.946096 54.302533 
L 132.356791 63.972746 
L 132.356791 63.972746 
L 132.562139 64.54212 
L 132.562139 64.54212 
L 133.178182 77.260483 
L 133.178182 77.260483 
L 133.383529 82.726108 
L 133.383529 82.726108 
L 133.588877 81.74333 
L 133.588877 81.74333 
L 133.999572 89.274169 
L 133.999572 89.274169 
L 134.20492 94.139131 
L 134.20492 94.139131 
L 134.410267 94.117563 
L 134.410267 94.117563 
L 134.820963 100.516879 
L 134.820963 100.516879 
L 135.02631 105.796998 
L 135.02631 105.796998 
L 135.231658 105.321812 
L 135.231658 105.321812 
L 135.437005 107.702152 
L 135.437005 107.702152 
L 135.642353 112.180059 
L 135.642353 112.180059 
L 135.847701 113.263186 
L 135.847701 113.263186 
L 136.258396 118.492837 
L 136.258396 118.492837 
L 136.463743 122.889094 
L 136.463743 122.889094 
L 136.669091 121.33843 
L 136.669091 121.33843 
L 137.695829 133.260797 
L 137.695829 133.260797 
L 137.901176 133.222814 
L 137.901176 133.222814 
L 138.311872 137.894461 
L 138.311872 137.894461 
L 138.517219 137.85499 
L 138.517219 137.85499 
L 138.927914 140.781702 
L 138.927914 140.781702 
L 139.133262 141.262094 
L 139.133262 141.262094 
L 139.33861 142.461455 
L 139.33861 142.461455 
L 139.543957 142.676125 
L 139.543957 142.676125 
L 139.954652 144.809656 
L 139.954652 144.809656 
L 140.776043 146.645219 
L 140.776043 146.645219 
L 140.98139 146.761718 
L 140.98139 146.761718 
L 141.392086 147.312976 
L 141.392086 147.312976 
L 141.597433 147.279402 
L 141.597433 147.279402 
L 141.802781 147.693391 
L 141.802781 147.693391 
L 142.213476 147.358609 
L 142.213476 147.358609 
L 142.418824 147.720749 
L 142.418824 147.720749 
L 142.829519 147.291036 
L 142.829519 147.291036 
L 143.034866 147.648608 
L 143.034866 147.648608 
L 143.445561 147.154404 
L 143.445561 147.154404 
L 143.650909 147.529506 
L 143.650909 147.529506 
L 143.856257 147.203436 
L 143.856257 147.203436 
L 144.061604 147.545071 
L 144.061604 147.545071 
L 144.472299 146.612601 
L 144.472299 146.612601 
L 144.677647 146.997053 
L 144.677647 146.997053 
L 144.882995 146.453285 
L 145.088342 145.551786 
L 145.29369 146.087585 
L 145.29369 146.087585 
L 145.499037 145.21371 
L 145.499037 145.21371 
L 145.704385 145.466523 
L 145.704385 145.466523 
L 145.909733 144.762907 
L 145.909733 144.762907 
L 146.11508 143.465322 
L 146.11508 143.465322 
L 146.320428 143.897213 
L 146.320428 143.897213 
L 146.525775 142.848935 
L 146.525775 142.848935 
L 146.731123 141.128277 
L 146.936471 141.854629 
L 146.936471 141.854629 
L 147.141818 140.302319 
L 147.141818 140.302319 
L 147.347166 140.250365 
L 147.347166 140.250365 
L 147.552513 139.232632 
L 147.552513 139.232632 
L 147.757861 136.413866 
L 147.757861 136.413866 
L 147.963209 136.907911 
L 147.963209 136.907911 
L 148.168556 135.512898 
L 148.168556 135.512898 
L 148.373904 132.617583 
L 148.373904 132.617583 
L 148.579251 133.576561 
L 148.579251 133.576561 
L 148.784599 130.568358 
L 148.784599 130.568358 
L 148.989947 130.471303 
L 148.989947 130.471303 
L 149.195294 128.795534 
L 149.195294 128.795534 
L 149.400642 124.391893 
L 149.400642 124.391893 
L 149.605989 124.24793 
L 149.605989 124.24793 
L 149.811337 122.576677 
L 149.811337 122.576677 
L 150.016684 117.932017 
L 150.016684 117.932017 
L 150.222032 118.497034 
L 150.222032 118.497034 
L 150.42738 114.927692 
L 150.42738 114.927692 
L 150.632727 109.134617 
L 150.632727 109.134617 
L 150.838075 110.101776 
L 150.838075 110.101776 
L 151.24877 98.625962 
L 151.24877 98.625962 
L 151.454118 100.237292 
L 151.454118 100.237292 
L 151.659465 95.575739 
L 151.659465 95.575739 
L 151.864813 87.091978 
L 151.864813 87.091978 
L 152.07016 87.678404 
L 152.07016 87.678404 
L 152.275508 82.244706 
L 152.275508 82.244706 
L 152.480856 73.292877 
L 152.480856 73.292877 
L 152.686203 73.670477 
L 152.686203 73.670477 
L 152.891551 68.128355 
L 152.891551 68.128355 
L 153.096898 57.811049 
L 153.302246 57.166028 
L 153.302246 57.166028 
L 153.507594 53.568 
L 153.507594 53.568 
L 169.319358 53.568 
L 169.319358 53.568 
L 169.524706 54.036546 
L 169.524706 54.036546 
L 169.730053 56.195894 
L 169.730053 56.195894 
L 169.935401 56.642447 
L 169.935401 56.642447 
L 170.756791 64.900276 
L 170.756791 64.900276 
L 170.962139 65.035474 
L 170.962139 65.035474 
L 171.372834 69.108742 
L 171.372834 69.108742 
L 171.578182 72.033647 
L 171.578182 72.033647 
L 171.783529 72.718776 
L 171.783529 72.718776 
L 172.194225 76.398508 
L 172.194225 76.398508 
L 172.60492 84.262428 
L 172.60492 84.262428 
L 172.810267 83.15088 
L 172.810267 83.15088 
L 173.42631 93.384995 
L 173.42631 93.384995 
L 173.631658 93.93535 
L 173.631658 93.93535 
L 173.837005 96.450783 
L 173.837005 96.450783 
L 174.042353 100.72815 
L 174.042353 100.72815 
L 174.247701 101.352453 
L 174.247701 101.352453 
L 174.658396 108.275882 
L 174.658396 108.275882 
L 174.863743 113.164908 
L 174.863743 113.164908 
L 175.069091 112.341818 
L 175.274439 115.658454 
L 175.479786 121.302466 
L 175.479786 121.302466 
L 175.685134 121.28366 
L 175.685134 121.28366 
L 175.890481 124.44422 
L 175.890481 124.44422 
L 176.095829 130.174929 
L 176.095829 130.174929 
L 176.301176 130.861545 
L 176.301176 130.861545 
L 176.506524 133.767964 
L 176.506524 133.767964 
L 176.711872 140.571069 
L 176.711872 140.571069 
L 176.917219 140.801251 
L 176.917219 140.801251 
L 177.122567 144.146148 
L 177.122567 144.146148 
L 177.327914 150.389229 
L 177.327914 150.389229 
L 177.533262 150.39571 
L 177.533262 150.39571 
L 177.73861 154.49554 
L 177.73861 154.49554 
L 177.943957 162.719051 
L 177.943957 162.719051 
L 178.149305 160.160748 
L 178.149305 160.160748 
L 178.354652 165.950317 
L 178.354652 165.950317 
L 178.56 166.972884 
L 178.56 166.972884 
L 178.765348 171.222786 
L 178.765348 171.222786 
L 178.970695 178.668309 
L 178.970695 178.668309 
L 179.176043 176.834393 
L 179.176043 176.834393 
L 179.38139 183.837454 
L 179.38139 183.837454 
L 179.586738 184.2856 
L 179.586738 184.2856 
L 179.997433 190.805772 
L 179.997433 190.805772 
L 180.202781 193.474889 
L 180.202781 193.474889 
L 180.408128 201.055292 
L 180.408128 201.055292 
L 180.613476 199.464733 
L 180.818824 205.664413 
L 180.818824 205.664413 
L 181.024171 204.884353 
L 181.024171 204.884353 
L 181.229519 210.696446 
L 181.229519 210.696446 
L 181.434866 210.620958 
L 181.640214 215.505841 
L 181.640214 215.505841 
L 181.845561 215.882962 
L 181.845561 215.882962 
L 182.050909 220.800197 
L 182.050909 220.800197 
L 182.256257 221.33419 
L 182.256257 221.33419 
L 182.461604 225.403846 
L 182.461604 225.403846 
L 182.666952 225.920734 
L 182.666952 225.920734 
L 182.872299 231.295996 
L 182.872299 231.295996 
L 183.077647 231.516722 
L 183.077647 231.516722 
L 183.282995 235.791964 
L 183.282995 235.791964 
L 183.488342 236.089454 
L 183.488342 236.089454 
L 183.69369 241.434064 
L 183.69369 241.434064 
L 183.899037 240.510997 
L 183.899037 240.510997 
L 184.104385 246.382747 
L 184.104385 246.382747 
L 184.309733 244.819441 
L 184.309733 244.819441 
L 184.51508 251.502169 
L 184.720428 249.208844 
L 184.720428 249.208844 
L 185.747166 259.231582 
L 185.747166 259.231582 
L 185.952513 263.966179 
L 185.952513 263.966179 
L 186.157861 263.088107 
L 186.157861 263.088107 
L 186.363209 269.017815 
L 186.363209 269.017815 
L 186.568556 267.449834 
L 186.568556 267.449834 
L 186.773904 268.437552 
L 186.979251 271.334355 
L 186.979251 271.334355 
L 187.184599 271.451385 
L 187.184599 271.451385 
L 187.389947 275.817521 
L 187.389947 275.817521 
L 187.595294 274.887972 
L 187.595294 274.887972 
L 187.800642 276.21196 
L 187.800642 276.21196 
L 188.005989 278.681335 
L 188.005989 278.681335 
L 188.211337 279.145684 
L 188.211337 279.145684 
L 188.416684 281.528521 
L 188.416684 281.528521 
L 188.622032 281.646932 
L 188.622032 281.646932 
L 188.82738 282.073139 
L 188.82738 282.073139 
L 189.032727 284.318016 
L 189.032727 284.318016 
L 189.238075 284.677181 
L 189.238075 284.677181 
L 189.443422 286.788081 
L 189.443422 286.788081 
L 189.64877 286.310292 
L 190.264813 288.438722 
L 190.264813 288.438722 
L 190.47016 290.132393 
L 190.47016 290.132393 
L 190.675508 289.794955 
L 190.675508 289.794955 
L 190.880856 290.070346 
L 190.880856 290.070346 
L 191.086203 290.862464 
L 191.086203 290.862464 
L 191.496898 291.006853 
L 191.496898 291.006853 
L 191.702246 292.108679 
L 191.702246 292.108679 
L 191.907594 291.969603 
L 191.907594 291.969603 
L 192.318289 292.816651 
L 192.318289 292.816651 
L 192.523636 292.823717 
L 192.523636 292.823717 
L 192.934332 293.32812 
L 192.934332 293.32812 
L 193.139679 293.431657 
L 193.139679 293.431657 
L 193.345027 293.662743 
L 193.345027 293.662743 
L 193.550374 293.652756 
L 193.550374 293.652756 
L 193.755722 293.806282 
L 193.755722 293.806282 
L 193.96107 293.385281 
L 193.96107 293.385281 
L 194.166417 293.824981 
L 194.166417 293.824981 
L 194.371765 293.647231 
L 194.371765 293.647231 
L 194.987807 293.999543 
L 194.987807 293.999543 
L 195.193155 293.80251 
L 195.398503 293.926871 
L 195.398503 293.926871 
L 195.60385 293.688295 
L 195.60385 293.688295 
L 196.014545 293.914068 
L 196.014545 293.914068 
L 196.219893 293.556072 
L 196.219893 293.556072 
L 196.425241 293.675971 
L 196.425241 293.675971 
L 196.630588 292.897398 
L 196.630588 292.897398 
L 196.835936 293.233561 
L 196.835936 293.233561 
L 197.041283 293.177145 
L 197.041283 293.177145 
L 197.246631 292.169718 
L 197.246631 292.169718 
L 197.451979 292.431721 
L 197.451979 292.431721 
L 197.862674 290.961592 
L 197.862674 290.961592 
L 198.068021 290.975032 
L 198.068021 290.975032 
L 198.273369 288.237173 
L 198.273369 288.237173 
L 198.478717 289.186589 
L 198.478717 289.186589 
L 198.684064 288.626884 
L 198.684064 288.626884 
L 198.889412 285.607526 
L 198.889412 285.607526 
L 199.094759 286.286333 
L 199.094759 286.286333 
L 199.300107 284.756387 
L 199.300107 284.756387 
L 199.505455 282.33392 
L 199.505455 282.33392 
L 199.710802 282.017944 
L 199.710802 282.017944 
L 199.91615 276.489634 
L 199.91615 276.489634 
L 200.121497 278.210186 
L 200.121497 278.210186 
L 200.326845 276.370001 
L 200.326845 276.370001 
L 200.532193 270.729708 
L 200.532193 270.729708 
L 200.73754 271.341739 
L 200.73754 271.341739 
L 200.942888 262.018633 
L 200.942888 262.018633 
L 201.148235 265.04001 
L 201.148235 265.04001 
L 201.353583 262.903186 
L 201.353583 262.903186 
L 201.55893 253.934729 
L 201.55893 253.934729 
L 201.764278 255.881904 
L 201.764278 255.881904 
L 201.969626 252.334342 
L 201.969626 252.334342 
L 202.174973 245.011746 
L 202.174973 245.011746 
L 202.380321 244.069077 
L 202.380321 244.069077 
L 202.585668 230.556628 
L 202.585668 230.556628 
L 202.791016 234.014252 
L 202.791016 234.014252 
L 202.996364 228.900994 
L 202.996364 228.900994 
L 203.201711 219.110616 
L 203.201711 219.110616 
L 203.407059 216.500147 
L 203.407059 216.500147 
L 203.612406 208.693546 
L 203.612406 208.693546 
L 203.817754 209.319548 
L 204.023102 216.914454 
L 204.023102 216.914454 
L 204.228449 213.274883 
L 204.228449 213.274883 
L 205.04984 230.235234 
L 205.04984 230.235234 
L 205.255187 231.14417 
L 205.255187 231.14417 
L 205.460535 235.794249 
L 205.460535 235.794249 
L 205.665882 235.727367 
L 205.665882 235.727367 
L 205.87123 239.862629 
L 205.87123 239.862629 
L 206.076578 239.310999 
L 206.076578 239.310999 
L 206.281925 242.816805 
L 206.281925 242.816805 
L 206.487273 242.115952 
L 206.487273 242.115952 
L 206.69262 244.995756 
L 206.69262 244.995756 
L 206.897968 244.284969 
L 206.897968 244.284969 
L 207.308663 246.127013 
L 207.308663 246.127013 
L 207.719358 247.140177 
L 207.719358 247.140177 
L 207.924706 247.633531 
L 208.746096 248.343415 
L 208.746096 248.343415 
L 208.951444 248.192546 
L 208.951444 248.192546 
L 209.156791 248.391067 
L 209.156791 248.391067 
L 209.362139 248.170871 
L 209.362139 248.170871 
L 209.567487 248.370083 
L 209.567487 248.370083 
L 209.772834 248.141335 
L 210.183529 248.550383 
L 210.183529 248.550383 
L 210.388877 248.265324 
L 210.388877 248.265324 
L 210.594225 248.429103 
L 210.594225 248.429103 
L 210.799572 248.028555 
L 210.799572 248.028555 
L 211.00492 248.154138 
L 211.00492 248.154138 
L 211.210267 247.496102 
L 211.210267 247.496102 
L 211.415615 247.653824 
L 211.415615 247.653824 
L 211.620963 246.599755 
L 211.620963 246.599755 
L 211.82631 246.888426 
L 211.82631 246.888426 
L 212.031658 245.293192 
L 212.237005 245.83287 
L 212.237005 245.83287 
L 212.442353 243.598565 
L 212.442353 243.598565 
L 212.647701 244.355835 
L 212.647701 244.355835 
L 212.853048 243.987054 
L 213.058396 242.406164 
L 213.058396 242.406164 
L 213.263743 242.192024 
L 213.469091 240.162987 
L 213.469091 240.162987 
L 213.674439 240.091962 
L 213.674439 240.091962 
L 213.879786 237.384383 
L 213.879786 237.384383 
L 214.085134 237.684688 
L 214.085134 237.684688 
L 214.290481 234.23636 
L 214.290481 234.23636 
L 214.495829 234.830861 
L 214.495829 234.830861 
L 214.701176 230.292925 
L 214.701176 230.292925 
L 214.906524 231.779363 
L 214.906524 231.779363 
L 215.933262 222.94823 
L 215.933262 222.94823 
L 216.13861 219.276414 
L 216.343957 218.097824 
L 216.343957 218.097824 
L 216.549305 214.226105 
L 216.549305 214.226105 
L 216.754652 213.694396 
L 216.754652 213.694396 
L 216.96 207.953169 
L 216.96 207.953169 
L 217.165348 207.913486 
L 217.370695 201.984681 
L 217.370695 201.984681 
L 217.576043 202.306554 
L 217.576043 202.306554 
L 217.78139 196.044189 
L 217.78139 196.044189 
L 217.986738 196.623815 
L 217.986738 196.623815 
L 218.192086 188.723611 
L 218.192086 188.723611 
L 218.397433 188.936582 
L 218.397433 188.936582 
L 218.602781 181.252324 
L 218.602781 181.252324 
L 218.808128 181.781802 
L 218.808128 181.781802 
L 219.013476 173.47664 
L 219.013476 173.47664 
L 219.218824 173.648281 
L 219.218824 173.648281 
L 219.424171 164.743307 
L 219.424171 164.743307 
L 219.629519 164.213723 
L 219.834866 156.085196 
L 219.834866 156.085196 
L 220.040214 154.277629 
L 220.040214 154.277629 
L 220.656257 137.652591 
L 220.656257 137.652591 
L 220.861604 123.053404 
L 220.861604 123.053404 
L 221.066952 125.083769 
L 221.066952 125.083769 
L 221.272299 113.39355 
L 221.272299 113.39355 
L 221.477647 112.234085 
L 221.477647 112.234085 
L 221.682995 104.356193 
L 221.682995 104.356193 
L 221.888342 88.531614 
L 221.888342 88.531614 
L 222.09369 90.594703 
L 222.09369 90.594703 
L 222.299037 79.092753 
L 222.299037 79.092753 
L 222.504385 76.563349 
L 222.504385 76.563349 
L 222.709733 69.162024 
L 222.709733 69.162024 
L 222.91508 57.56647 
L 222.91508 57.56647 
L 223.120428 54.758967 
L 223.120428 54.758967 
L 223.325775 53.568 
L 223.325775 53.568 
L 238.932193 53.568 
L 238.932193 53.568 
L 239.13754 54.344394 
L 239.13754 54.344394 
L 239.342888 54.636731 
L 239.342888 54.636731 
L 239.548235 58.515356 
L 239.548235 58.515356 
L 240.164278 78.376175 
L 240.164278 78.376175 
L 240.369626 76.957894 
L 240.369626 76.957894 
L 240.780321 86.944083 
L 240.780321 86.944083 
L 240.985668 93.848972 
L 240.985668 93.848972 
L 241.191016 93.209742 
L 241.191016 93.209742 
L 241.396364 96.734992 
L 241.396364 96.734992 
L 241.807059 108.231099 
L 241.807059 108.231099 
L 242.012406 107.385751 
L 242.012406 107.385751 
L 242.217754 110.838753 
L 242.217754 110.838753 
L 242.423102 116.406905 
L 242.423102 116.406905 
L 242.628449 116.67948 
L 242.628449 116.67948 
L 243.655187 132.107866 
L 243.655187 132.107866 
L 243.860535 132.679524 
L 243.860535 132.679524 
L 244.887273 145.443893 
L 244.887273 145.443893 
L 245.09262 145.537389 
L 245.09262 145.537389 
L 245.708663 151.678155 
L 245.708663 151.678155 
L 245.914011 153.551861 
L 245.914011 153.551861 
L 246.119358 157.237967 
L 246.119358 157.237967 
L 246.324706 157.265326 
L 246.324706 157.265326 
L 246.735401 161.053535 
L 246.735401 161.053535 
L 247.146096 165.457547 
L 247.146096 165.457547 
L 247.351444 165.797907 
L 247.351444 165.797907 
L 247.556791 168.217293 
L 247.556791 168.217293 
L 247.762139 172.56712 
L 247.762139 172.56712 
L 247.967487 171.669764 
L 247.967487 171.669764 
L 248.172834 175.623027 
L 248.172834 175.623027 
L 248.378182 175.883064 
L 248.378182 175.883064 
L 248.788877 179.639718 
L 248.788877 179.639718 
L 248.994225 181.375197 
L 249.199572 185.706537 
L 249.199572 185.706537 
L 249.40492 185.210899 
L 249.40492 185.210899 
L 249.610267 188.790759 
L 249.815615 189.362257 
L 249.815615 189.362257 
L 250.431658 195.362991 
L 250.431658 195.362991 
L 250.637005 201.687032 
L 250.637005 201.687032 
L 250.842353 199.821826 
L 250.842353 199.821826 
L 251.047701 205.326443 
L 251.047701 205.326443 
L 251.253048 204.708303 
L 251.253048 204.708303 
L 251.458396 209.563755 
L 251.458396 209.563755 
L 251.663743 209.282681 
L 251.663743 209.282681 
L 251.869091 214.309349 
L 251.869091 214.309349 
L 252.074439 214.838084 
L 252.074439 214.838084 
L 252.279786 219.722595 
L 252.279786 219.722595 
L 252.485134 219.938009 
L 252.485134 219.938009 
L 252.690481 225.020191 
L 252.690481 225.020191 
L 252.895829 225.212125 
L 252.895829 225.212125 
L 253.101176 230.29165 
L 253.101176 230.29165 
L 253.306524 230.33213 
L 253.306524 230.33213 
L 253.511872 235.659422 
L 253.511872 235.659422 
L 253.717219 235.796533 
L 253.717219 235.796533 
L 253.922567 241.105497 
L 253.922567 241.105497 
L 254.127914 240.582182 
L 254.127914 240.582182 
L 254.333262 246.957115 
L 254.333262 246.957115 
L 254.53861 245.160172 
L 254.53861 245.160172 
L 254.743957 252.573874 
L 254.743957 252.573874 
L 254.949305 249.635794 
L 254.949305 249.635794 
L 255.770695 260.196829 
L 255.770695 260.196829 
L 255.976043 259.831342 
L 255.976043 259.831342 
L 256.18139 265.036875 
L 256.18139 265.036875 
L 256.386738 263.779983 
L 256.386738 263.779983 
L 256.592086 265.257549 
L 256.592086 265.257549 
L 256.797433 268.33428 
L 256.797433 268.33428 
L 257.002781 269.047458 
L 257.002781 269.047458 
L 257.208128 272.384014 
L 257.413476 271.570965 
L 257.413476 271.570965 
L 257.618824 273.108932 
L 257.618824 273.108932 
L 257.824171 275.563539 
L 257.824171 275.563539 
L 258.029519 276.140031 
L 258.029519 276.140031 
L 258.234866 279.852327 
L 258.234866 279.852327 
L 258.440214 279.257083 
L 258.440214 279.257083 
L 258.645561 280.312852 
L 258.645561 280.312852 
L 258.850909 282.322711 
L 258.850909 282.322711 
L 259.056257 282.336311 
L 259.056257 282.336311 
L 259.261604 285.770083 
L 259.261604 285.770083 
L 259.466952 285.075604 
L 259.466952 285.075604 
L 259.672299 285.953623 
L 259.672299 285.953623 
L 259.877647 288.070845 
L 259.877647 288.070845 
L 260.082995 288.207159 
L 260.082995 288.207159 
L 260.288342 290.230406 
L 260.288342 290.230406 
L 260.49369 290.002242 
L 260.49369 290.002242 
L 260.699037 290.491187 
L 260.699037 290.491187 
L 260.904385 292.116223 
L 261.109733 292.257955 
L 261.109733 292.257955 
L 261.31508 293.679689 
L 261.31508 293.679689 
L 261.520428 293.344057 
L 261.520428 293.344057 
L 261.931123 294.546287 
L 261.931123 294.546287 
L 262.136471 294.454968 
L 262.136471 294.454968 
L 262.341818 294.485673 
L 262.341818 294.485673 
L 262.547166 295.036985 
L 262.547166 295.036985 
L 262.752513 295.126391 
L 262.752513 295.126391 
L 262.957861 294.989068 
L 262.957861 294.989068 
L 263.368556 295.384941 
L 263.368556 295.384941 
L 263.573904 295.17298 
L 263.573904 295.17298 
L 263.984599 295.45347 
L 263.984599 295.45347 
L 264.189947 295.236568 
L 264.189947 295.236568 
L 264.600642 295.488 
L 264.600642 295.488 
L 264.805989 295.176911 
L 264.805989 295.176911 
L 265.011337 295.316997 
L 265.011337 295.316997 
L 265.422032 294.778435 
L 265.422032 294.778435 
L 265.62738 294.853816 
L 265.62738 294.853816 
L 265.832727 293.347245 
L 265.832727 293.347245 
L 266.038075 293.874704 
L 266.038075 293.874704 
L 266.243422 293.216031 
L 266.243422 293.216031 
L 266.44877 291.636043 
L 266.44877 291.636043 
L 266.654118 291.81544 
L 266.654118 291.81544 
L 267.27016 288.407008 
L 267.27016 288.407008 
L 267.475508 283.55793 
L 267.475508 283.55793 
L 267.680856 285.064023 
L 267.680856 285.064023 
L 267.886203 283.495776 
L 267.886203 283.495776 
L 268.091551 278.364136 
L 268.091551 278.364136 
L 268.296898 278.917201 
L 268.296898 278.917201 
L 268.502246 276.313903 
L 268.502246 276.313903 
L 268.707594 271.651712 
L 268.707594 271.651712 
L 268.912941 269.838142 
L 268.912941 269.838142 
L 269.118289 260.954524 
L 269.118289 260.954524 
L 269.323636 262.949403 
L 269.528984 258.924477 
L 269.528984 258.924477 
L 269.734332 251.647407 
L 269.734332 251.647407 
L 269.939679 249.032475 
L 269.939679 249.032475 
L 270.145027 236.362613 
L 270.145027 236.362613 
L 270.350374 237.839967 
L 270.350374 237.839967 
L 270.555722 231.277615 
L 270.555722 231.277615 
L 270.76107 229.315513 
L 270.76107 229.315513 
L 270.966417 231.945426 
L 270.966417 231.945426 
L 271.171765 239.910918 
L 271.171765 239.910918 
L 271.377112 240.004521 
L 271.377112 240.004521 
L 271.58246 251.264071 
L 271.58246 251.264071 
L 271.787807 248.43245 
L 271.787807 248.43245 
L 271.993155 251.855491 
L 271.993155 251.855491 
L 272.198503 257.563675 
L 272.198503 257.563675 
L 272.40385 258.007466 
L 272.40385 258.007466 
L 272.609198 264.291133 
L 272.609198 264.291133 
L 272.814545 263.116156 
L 272.814545 263.116156 
L 273.430588 269.017815 
L 273.430588 269.017815 
L 273.635936 271.977676 
L 273.635936 271.977676 
L 273.841283 272.361278 
L 273.841283 272.361278 
L 274.046631 274.891479 
L 274.251979 274.981894 
L 274.251979 274.981894 
L 274.457326 276.939693 
L 274.457326 276.939693 
L 274.662674 276.922375 
L 274.662674 276.922375 
L 274.868021 277.59911 
L 274.868021 277.59911 
L 275.689412 278.242803 
L 275.689412 278.242803 
L 275.894759 278.24275 
L 275.894759 278.24275 
L 276.100107 277.837899 
L 276.100107 277.837899 
L 276.305455 277.870941 
L 276.305455 277.870941 
L 276.510802 278.26878 
L 276.510802 278.26878 
L 276.71615 278.05751 
L 276.921497 277.29599 
L 276.921497 277.29599 
L 277.126845 277.35995 
L 277.126845 277.35995 
L 277.332193 276.883383 
L 277.332193 276.883383 
L 277.53754 277.899097 
L 277.53754 277.899097 
L 277.948235 276.337383 
L 277.948235 276.337383 
L 278.153583 276.784733 
L 278.153583 276.784733 
L 278.35893 276.178811 
L 278.35893 276.178811 
L 278.564278 274.253098 
L 278.564278 274.253098 
L 278.769626 274.059411 
L 278.769626 274.059411 
L 278.974973 271.116709 
L 278.974973 271.116709 
L 279.180321 272.537168 
L 279.180321 272.537168 
L 279.385668 271.310025 
L 279.385668 271.310025 
L 279.591016 268.478881 
L 279.591016 268.478881 
L 279.796364 268.718785 
L 280.001711 262.548908 
L 280.001711 262.548908 
L 280.207059 264.526044 
L 280.207059 264.526044 
L 280.412406 263.077429 
L 280.412406 263.077429 
L 280.617754 258.743062 
L 280.617754 258.743062 
L 280.823102 259.186427 
L 280.823102 259.186427 
L 281.028449 251.239687 
L 281.028449 251.239687 
L 281.233797 253.629537 
L 281.233797 253.629537 
L 281.439144 251.42259 
L 281.439144 251.42259 
L 281.644492 246.598374 
L 281.644492 246.598374 
L 281.84984 246.361073 
L 282.055187 237.773881 
L 282.055187 237.773881 
L 282.260535 239.889775 
L 282.260535 239.889775 
L 282.465882 237.009759 
L 282.465882 237.009759 
L 282.67123 231.927736 
L 282.67123 231.927736 
L 282.876578 230.381163 
L 282.876578 230.381163 
L 283.081925 222.352667 
L 283.081925 222.352667 
L 283.287273 222.291044 
L 283.287273 222.291044 
L 283.49262 211.762415 
L 283.49262 211.762415 
L 283.697968 214.370707 
L 283.697968 214.370707 
L 284.314011 201.23352 
L 284.314011 201.23352 
L 284.519358 193.098937 
L 284.519358 193.098937 
L 284.724706 189.706867 
L 284.724706 189.706867 
L 284.930053 180.152197 
L 284.930053 180.152197 
L 285.135401 178.678562 
L 285.135401 178.678562 
L 285.340749 167.423793 
L 285.340749 167.423793 
L 285.546096 166.210514 
L 285.546096 166.210514 
L 285.751444 153.464473 
L 285.956791 151.393362 
L 285.956791 151.393362 
L 286.162139 140.501849 
L 286.162139 140.501849 
L 286.367487 138.463569 
L 286.367487 138.463569 
L 286.572834 130.256313 
L 286.572834 130.256313 
L 286.983529 121.878852 
L 286.983529 121.878852 
L 287.188877 110.723317 
L 287.188877 110.723317 
L 287.394225 111.960501 
L 287.394225 111.960501 
L 287.599572 105.12499 
L 287.599572 105.12499 
L 287.80492 104.486291 
L 288.010267 102.000926 
L 288.010267 102.000926 
L 288.215615 103.0185 
L 288.215615 103.0185 
L 288.420963 103.106259 
L 288.420963 103.106259 
L 289.037005 108.41108 
L 289.037005 108.41108 
L 290.063743 111.560377 
L 290.063743 111.560377 
L 290.269091 111.762298 
L 290.474439 112.532743 
L 290.474439 112.532743 
L 290.885134 112.337462 
L 290.885134 112.337462 
L 291.090481 112.811533 
L 291.295829 112.040451 
L 291.295829 112.040451 
L 291.706524 112.916186 
L 291.706524 112.916186 
L 291.911872 112.077106 
L 292.117219 112.495929 
L 292.117219 112.495929 
L 292.322567 112.202317 
L 292.322567 112.202317 
L 292.527914 111.565902 
L 292.733262 112.014527 
L 292.733262 112.014527 
L 292.93861 111.414395 
L 292.93861 111.414395 
L 293.143957 109.945063 
L 293.143957 109.945063 
L 293.349305 110.307469 
L 293.554652 109.315713 
L 293.76 107.279398 
L 293.76 107.279398 
L 293.965348 107.172621 
L 293.965348 107.172621 
L 294.170695 105.407446 
L 294.170695 105.407446 
L 294.376043 102.576356 
L 294.376043 102.576356 
L 294.58139 97.814347 
L 294.58139 97.814347 
L 294.786738 99.087336 
L 294.786738 99.087336 
L 295.197433 89.233955 
L 295.197433 89.233955 
L 295.402781 89.7263 
L 295.402781 89.7263 
L 295.608128 85.470235 
L 295.608128 85.470235 
L 295.813476 77.553245 
L 295.813476 77.553245 
L 296.018824 75.619351 
L 296.018824 75.619351 
L 296.224171 70.836571 
L 296.224171 70.836571 
L 296.429519 62.460597 
L 296.429519 62.460597 
L 296.634866 63.401141 
L 296.634866 63.401141 
L 296.840214 63.149444 
L 296.840214 63.149444 
L 297.456257 79.904899 
L 297.456257 79.904899 
L 298.072299 95.956579 
L 298.072299 95.956579 
L 298.277647 96.230853 
L 298.277647 96.230853 
L 298.688342 103.089578 
L 298.688342 103.089578 
L 298.89369 106.768088 
L 298.89369 106.768088 
L 299.099037 106.532062 
L 299.099037 106.532062 
L 299.304385 108.208097 
L 299.304385 108.208097 
L 299.509733 110.92869 
L 299.509733 110.92869 
L 300.331123 115.150225 
L 300.331123 115.150225 
L 300.536471 115.344018 
L 300.741818 116.372003 
L 300.741818 116.372003 
L 300.947166 116.356704 
L 300.947166 116.356704 
L 301.357861 117.458477 
L 301.357861 117.458477 
L 301.563209 116.924059 
L 301.563209 116.924059 
L 301.973904 117.858335 
L 301.973904 117.858335 
L 302.179251 117.104571 
L 302.179251 117.104571 
L 302.384599 116.924856 
L 302.384599 116.924856 
L 302.795294 117.761917 
L 302.795294 117.761917 
L 303.000642 116.943661 
L 303.000642 116.943661 
L 303.205989 117.365193 
L 303.205989 117.365193 
L 303.616684 116.757996 
L 303.616684 116.757996 
L 303.822032 117.137136 
L 304.02738 116.733081 
L 304.02738 116.733081 
L 304.232727 116.053158 
L 304.232727 116.053158 
L 304.438075 114.937839 
L 304.438075 114.937839 
L 304.643422 115.399957 
L 304.643422 115.399957 
L 304.84877 114.373246 
L 304.84877 114.373246 
L 305.054118 112.741623 
L 305.054118 112.741623 
L 305.259465 113.367466 
L 305.259465 113.367466 
L 305.464813 112.572798 
L 305.464813 112.572798 
L 305.67016 109.224979 
L 305.67016 109.224979 
L 305.875508 109.776344 
L 305.875508 109.776344 
L 306.080856 108.691145 
L 306.080856 108.691145 
L 306.286203 104.785693 
L 306.286203 104.785693 
L 306.491551 104.627386 
L 306.491551 104.627386 
L 306.696898 103.591326 
L 306.696898 103.591326 
L 306.902246 98.981249 
L 306.902246 98.981249 
L 307.107594 98.721265 
L 307.107594 98.721265 
L 307.723636 90.265075 
L 307.723636 90.265075 
L 307.928984 87.89759 
L 307.928984 87.89759 
L 308.339679 77.079812 
L 308.339679 77.079812 
L 308.545027 78.146789 
L 308.545027 78.146789 
L 308.750374 74.893955 
L 308.750374 74.893955 
L 308.955722 67.049052 
L 308.955722 67.049052 
L 309.16107 66.600959 
L 309.16107 66.600959 
L 309.366417 63.177387 
L 309.366417 63.177387 
L 309.777112 53.568 
L 309.777112 53.568 
L 319.428449 53.568 
L 319.428449 53.568 
L 319.633797 53.833456 
L 319.633797 53.833456 
L 320.044492 65.751308 
L 320.044492 65.751308 
L 320.24984 72.669 
L 320.24984 72.669 
L 320.455187 73.205915 
L 320.455187 73.205915 
L 321.07123 89.631369 
L 321.07123 89.631369 
L 321.276578 96.878424 
L 321.481925 94.938634 
L 321.481925 94.938634 
L 322.714011 123.251287 
L 322.714011 123.251287 
L 322.919358 121.992801 
L 323.124706 125.80789 
L 323.124706 125.80789 
L 323.330053 132.688396 
L 323.330053 132.688396 
L 323.535401 132.202585 
L 323.535401 132.202585 
L 323.946096 142.291036 
L 323.946096 142.291036 
L 324.151444 141.788916 
L 324.151444 141.788916 
L 324.562139 151.470338 
L 324.562139 151.470338 
L 324.767487 150.936716 
L 324.767487 150.936716 
L 325.178182 156.994982 
L 325.178182 156.994982 
L 325.383529 159.275398 
L 325.383529 159.275398 
L 325.588877 164.368523 
L 325.588877 164.368523 
L 325.794225 164.447464 
L 325.794225 164.447464 
L 325.999572 167.345118 
L 325.999572 167.345118 
L 326.20492 173.279129 
L 326.20492 173.279129 
L 326.410267 171.90579 
L 326.410267 171.90579 
L 326.615615 176.657068 
L 326.615615 176.657068 
L 326.820963 176.718319 
L 326.820963 176.718319 
L 327.02631 179.625428 
L 327.02631 179.625428 
L 327.231658 180.576385 
L 327.231658 180.576385 
L 327.437005 182.83008 
L 327.437005 182.83008 
L 327.642353 186.726448 
L 327.642353 186.726448 
L 327.847701 186.616908 
L 327.847701 186.616908 
L 328.053048 189.917553 
L 328.053048 189.917553 
L 328.258396 190.199637 
L 328.258396 190.199637 
L 328.669091 193.577151 
L 328.669091 193.577151 
L 328.874439 195.036071 
L 328.874439 195.036071 
L 329.079786 198.89196 
L 329.079786 198.89196 
L 329.285134 197.845912 
L 329.285134 197.845912 
L 329.490481 201.194368 
L 329.695829 200.847262 
L 329.695829 200.847262 
L 329.901176 203.183085 
L 329.901176 203.183085 
L 330.106524 203.163908 
L 330.106524 203.163908 
L 330.311872 205.443527 
L 330.311872 205.443527 
L 330.517219 205.506106 
L 330.517219 205.506106 
L 330.722567 207.235688 
L 330.722567 207.235688 
L 330.927914 207.661417 
L 330.927914 207.661417 
L 331.133262 209.437004 
L 331.133262 209.437004 
L 331.33861 209.652843 
L 331.33861 209.652843 
L 332.16 213.802661 
L 332.16 213.802661 
L 332.365348 214.356788 
L 332.365348 214.356788 
L 332.776043 216.628014 
L 332.776043 216.628014 
L 332.98139 218.413535 
L 333.186738 218.055538 
L 333.186738 218.055538 
L 333.392086 220.627387 
L 333.392086 220.627387 
L 333.597433 220.310614 
L 333.597433 220.310614 
L 333.802781 221.959184 
L 333.802781 221.959184 
L 334.008128 222.013369 
L 334.008128 222.013369 
L 334.213476 224.358967 
L 334.213476 224.358967 
L 334.418824 224.270464 
L 334.418824 224.270464 
L 334.624171 225.825431 
L 334.624171 225.825431 
L 334.829519 226.03888 
L 335.034866 227.884217 
L 335.034866 227.884217 
L 335.240214 227.673159 
L 335.240214 227.673159 
L 335.445561 228.934142 
L 335.445561 228.934142 
L 335.650909 229.101268 
L 335.650909 229.101268 
L 335.856257 230.382756 
L 335.856257 230.382756 
L 336.061604 230.251967 
L 336.061604 230.251967 
L 336.266952 231.160798 
L 336.266952 231.160798 
L 336.677647 231.158779 
L 336.677647 231.158779 
L 336.882995 231.650274 
L 336.882995 231.650274 
L 337.088342 231.586792 
L 337.088342 231.586792 
L 337.499037 232.203711 
L 337.499037 232.203711 
L 337.704385 232.00588 
L 337.909733 232.215823 
L 338.320428 231.79955 
L 338.320428 231.79955 
L 338.731123 232.198929 
L 338.731123 232.198929 
L 338.936471 231.797531 
L 338.936471 231.797531 
L 339.141818 232.023623 
L 339.141818 232.023623 
L 339.347166 230.671534 
L 339.347166 230.671534 
L 339.552513 231.47603 
L 339.757861 229.211179 
L 339.757861 229.211179 
L 339.963209 230.358585 
L 339.963209 230.358585 
L 340.168556 226.701537 
L 340.168556 226.701537 
L 340.373904 228.504164 
L 340.373904 228.504164 
L 341.195294 221.572607 
L 341.195294 221.572607 
L 342.222032 207.332213 
L 342.222032 207.332213 
L 343.454118 175.521615 
L 343.454118 175.521615 
L 343.659465 173.181542 
L 343.659465 173.181542 
L 343.864813 175.917488 
L 343.864813 175.917488 
L 344.275508 184.149924 
L 344.275508 184.149924 
L 345.096898 199.152847 
L 345.096898 199.152847 
L 345.302246 198.390052 
L 345.302246 198.390052 
L 345.507594 201.273097 
L 345.507594 201.273097 
L 345.712941 201.18709 
L 345.712941 201.18709 
L 345.918289 202.576101 
L 345.918289 202.576101 
L 346.328984 203.343092 
L 346.328984 203.343092 
L 346.534332 204.211124 
L 346.534332 204.211124 
L 346.739679 204.241776 
L 346.739679 204.241776 
L 346.945027 203.565943 
L 346.945027 203.565943 
L 347.150374 203.840324 
L 347.150374 203.840324 
L 347.355722 203.614657 
L 347.355722 203.614657 
L 347.766417 204.062804 
L 347.766417 204.062804 
L 347.971765 203.76898 
L 347.971765 203.76898 
L 348.177112 203.73275 
L 348.177112 203.73275 
L 348.587807 202.809364 
L 348.587807 202.809364 
L 348.793155 199.660067 
L 348.793155 199.660067 
L 348.998503 200.527408 
L 348.998503 200.527408 
L 349.20385 197.118976 
L 349.20385 197.118976 
L 349.409198 197.820944 
L 349.409198 197.820944 
L 349.614545 193.68122 
L 349.614545 193.68122 
L 349.819893 194.065618 
L 349.819893 194.065618 
L 350.025241 189.766259 
L 350.025241 189.766259 
L 350.230588 189.630742 
L 350.230588 189.630742 
L 350.435936 184.849396 
L 350.435936 184.849396 
L 350.641283 183.940141 
L 350.641283 183.940141 
L 350.846631 178.685309 
L 350.846631 178.685309 
L 351.051979 177.564783 
L 351.051979 177.564783 
L 351.257326 172.876615 
L 351.257326 172.876615 
L 351.462674 162.045237 
L 351.462674 162.045237 
L 351.668021 165.583236 
L 351.873369 154.93779 
L 351.873369 154.93779 
L 352.078717 157.176238 
L 352.078717 157.176238 
L 352.284064 147.000825 
L 352.284064 147.000825 
L 352.489412 147.074028 
L 352.489412 147.074028 
L 352.694759 139.780384 
L 352.694759 139.780384 
L 352.900107 137.035141 
L 352.900107 137.035141 
L 353.105455 132.062924 
L 353.105455 132.062924 
L 353.310802 119.300946 
L 353.310802 119.300946 
L 353.51615 121.62742 
L 353.51615 121.62742 
L 353.721497 111.92528 
L 353.721497 111.92528 
L 353.926845 110.533348 
L 353.926845 110.533348 
L 354.132193 104.243837 
L 354.132193 104.243837 
L 354.33754 92.861573 
L 354.33754 92.861573 
L 354.542888 93.473551 
L 354.953583 74.230872 
L 354.953583 74.230872 
L 355.15893 75.758693 
L 355.15893 75.758693 
L 355.569626 58.622611 
L 355.569626 58.622611 
L 355.774973 59.369044 
L 355.774973 59.369044 
L 355.980321 54.080585 
L 355.980321 54.080585 
L 356.185668 53.568 
L 356.185668 53.568 
L 358.444492 53.568 
L 358.444492 53.568 
L 358.64984 61.305541 
L 358.64984 61.305541 
L 358.855187 61.455773 
L 358.855187 61.455773 
L 359.265882 76.990618 
L 359.265882 76.990618 
L 359.47123 87.638508 
L 359.47123 87.638508 
L 359.676578 87.126986 
L 359.676578 87.126986 
L 360.087273 99.347799 
L 360.087273 99.347799 
L 360.29262 108.598976 
L 360.29262 108.598976 
L 360.497968 108.165279 
L 360.497968 108.165279 
L 361.730053 141.002694 
L 361.730053 141.002694 
L 361.935401 139.620324 
L 361.935401 139.620324 
L 362.140749 145.350715 
L 362.140749 145.350715 
L 362.346096 147.390642 
L 362.346096 147.390642 
L 362.551444 150.768953 
L 362.756791 156.372857 
L 362.756791 156.372857 
L 362.962139 157.314358 
L 362.962139 157.314358 
L 363.167487 159.727316 
L 363.167487 159.727316 
L 363.372834 166.294767 
L 363.372834 166.294767 
L 363.578182 165.458716 
L 363.783529 169.596103 
L 363.783529 169.596103 
L 363.988877 171.018475 
L 363.988877 171.018475 
L 364.194225 173.509311 
L 364.194225 173.509311 
L 364.399572 178.952783 
L 364.399572 178.952783 
L 364.60492 178.2157 
L 364.60492 178.2157 
L 364.810267 181.603839 
L 364.810267 181.603839 
L 365.015615 182.017828 
L 365.015615 182.017828 
L 365.220963 184.09781 
L 365.220963 184.09781 
L 365.42631 184.926159 
L 365.42631 184.926159 
L 365.631658 186.767937 
L 365.631658 186.767937 
L 365.837005 189.819276 
L 365.837005 189.819276 
L 366.042353 189.517483 
L 366.042353 189.517483 
L 366.247701 191.610959 
L 366.247701 191.610959 
L 366.453048 191.949406 
L 366.453048 191.949406 
L 366.863743 194.080865 
L 366.863743 194.080865 
L 367.069091 195.034584 
L 367.069091 195.034584 
L 367.274439 196.902393 
L 367.274439 196.902393 
L 367.479786 196.465774 
L 367.479786 196.465774 
L 367.685134 197.932928 
L 367.685134 197.932928 
L 367.890481 197.969052 
L 367.890481 197.969052 
L 368.095829 199.006865 
L 368.095829 199.006865 
L 368.301176 199.290861 
L 368.301176 199.290861 
L 368.917219 201.091469 
L 368.917219 201.091469 
L 369.327914 201.620044 
L 369.327914 201.620044 
L 369.73861 202.809577 
L 369.73861 202.809577 
L 369.943957 202.769469 
L 369.943957 202.769469 
L 370.149305 203.380597 
L 370.149305 203.380597 
L 370.354652 203.147971 
L 370.354652 203.147971 
L 370.56 203.571415 
L 370.56 203.571415 
L 370.765348 203.448541 
L 370.765348 203.448541 
L 370.970695 203.689561 
L 370.970695 203.689561 
L 371.176043 203.672933 
L 371.586738 204.322682 
L 371.586738 204.322682 
L 371.792086 204.117893 
L 371.792086 204.117893 
L 371.997433 204.447628 
L 371.997433 204.447628 
L 372.202781 204.249107 
L 372.202781 204.249107 
L 372.408128 204.5373 
L 372.408128 204.5373 
L 372.613476 204.328579 
L 372.613476 204.328579 
L 372.818824 204.591804 
L 372.818824 204.591804 
L 373.024171 203.886807 
L 373.024171 203.886807 
L 373.229519 204.62575 
L 373.229519 204.62575 
L 373.434866 203.913316 
L 373.434866 203.913316 
L 373.640214 204.654489 
L 373.640214 204.654489 
L 373.845561 203.920912 
L 373.845561 203.920912 
L 374.050909 204.184987 
L 374.050909 204.184987 
L 374.256257 203.891057 
L 374.256257 203.891057 
L 374.666952 204.277846 
L 374.666952 204.277846 
L 374.872299 204.022855 
L 374.872299 204.022855 
L 375.077647 203.579596 
L 375.077647 203.579596 
L 375.282995 203.735937 
L 375.282995 203.735937 
L 375.488342 203.213365 
L 375.488342 203.213365 
L 375.69369 203.227284 
L 375.69369 203.227284 
L 375.899037 203.088792 
L 375.899037 203.088792 
L 376.104385 201.008862 
L 376.104385 201.008862 
L 376.309733 201.628172 
L 376.309733 201.628172 
L 376.51508 199.74671 
L 376.720428 200.268432 
L 376.720428 200.268432 
L 376.925775 198.14643 
L 376.925775 198.14643 
L 377.131123 198.470799 
L 377.131123 198.470799 
L 377.336471 196.007906 
L 377.541818 196.173437 
L 377.541818 196.173437 
L 377.747166 193.596488 
L 377.747166 193.596488 
L 377.952513 193.334273 
L 378.363209 189.497881 
L 378.363209 189.497881 
L 378.568556 187.465709 
L 378.568556 187.465709 
L 378.773904 181.300931 
L 378.773904 181.300931 
L 378.979251 183.274242 
L 378.979251 183.274242 
L 379.184599 176.806822 
L 379.184599 176.806822 
L 379.389947 178.324337 
L 379.389947 178.324337 
L 379.595294 172.109783 
L 379.595294 172.109783 
L 379.800642 172.351493 
L 379.800642 172.351493 
L 380.005989 166.899787 
L 380.005989 166.899787 
L 380.211337 166.203714 
L 380.211337 166.203714 
L 380.416684 160.981341 
L 380.416684 160.981341 
L 380.622032 158.746664 
L 380.622032 158.746664 
L 380.82738 154.870589 
L 380.82738 154.870589 
L 381.032727 144.661336 
L 381.032727 144.661336 
L 381.238075 146.370253 
L 381.238075 146.370253 
L 381.443422 138.579005 
L 381.443422 138.579005 
L 381.64877 138.090326 
L 381.64877 138.090326 
L 382.059465 128.854288 
L 382.059465 128.854288 
L 382.264813 123.697149 
L 382.264813 123.697149 
L 382.47016 114.13908 
L 382.47016 114.13908 
L 382.675508 113.992779 
L 382.675508 113.992779 
L 383.086203 95.870625 
L 383.086203 95.870625 
L 383.291551 97.499752 
L 383.291551 97.499752 
L 383.496898 88.418196 
L 383.496898 88.418196 
L 383.702246 86.073767 
L 383.702246 86.073767 
L 384.728984 54.086216 
L 384.728984 54.086216 
L 384.934332 53.568 
L 384.934332 53.568 
L 390.478717 53.568 
L 390.478717 53.568 
L 390.684064 53.73401 
L 390.684064 53.73401 
L 390.889412 53.568 
L 390.889412 53.568 
L 391.505455 53.568 
L 391.505455 53.568 
L 391.710802 53.882276 
L 391.710802 53.882276 
L 391.91615 53.568 
L 391.91615 53.568 
L 393.353583 53.568 
L 393.353583 53.568 
L 393.55893 54.029905 
L 393.55893 54.029905 
L 394.174973 53.568 
L 394.174973 53.568 
L 394.380321 53.84509 
L 394.380321 53.84509 
L 394.585668 53.568 
L 394.585668 53.568 
L 395.201711 53.657831 
L 395.201711 53.657831 
L 395.407059 54.223699 
L 395.407059 54.223699 
L 395.817754 54.477946 
L 395.817754 54.477946 
L 396.433797 54.756523 
L 396.433797 54.756523 
L 396.639144 53.568 
L 396.639144 53.568 
L 397.04984 53.568 
L 397.04984 53.568 
L 397.460535 54.019971 
L 397.460535 54.019971 
L 397.665882 54.077291 
L 397.665882 54.077291 
L 397.87123 54.573196 
L 397.87123 54.573196 
L 398.281925 54.650065 
L 398.281925 54.650065 
L 398.487273 53.568 
L 398.487273 53.568 
" clip-path="url(#pfddb9e57b4)" style="fill: none; stroke: #ff7f0e; stroke-width: 1.5; stroke-linecap: square"/>
   </g>
   <g id="patch_3">
    <path d="M 57.6 307.584 
L 57.6 41.472 
" style="fill: none; stroke: #000000; stroke-width: 0.8; stroke-linejoin: miter; stroke-linecap: square"/>
   </g>
   <g id="patch_4">
    <path d="M 414.72 307.584 
L 414.72 41.472 
" style="fill: none; stroke: #000000; stroke-width: 0.8; stroke-linejoin: miter; stroke-linecap: square"/>
   </g>
   <g id="patch_5">
    <path d="M 57.6 307.584 
L 414.72 307.584 
" style="fill: none; stroke: #000000; stroke-width: 0.8; stroke-linejoin: miter; stroke-linecap: square"/>
   </g>
   <g id="patch_6">
    <path d="M 57.6 41.472 
L 414.72 41.472 
" style="fill: none; stroke: #000000; stroke-width: 0.8; stroke-linejoin: miter; stroke-linecap: square"/>
   </g>
   <g id="text_15">
    <!-- Actual speed vs Expected speed -->
    <g transform="translate(138.808125 35.472) scale(0.12 -0.12)">
     <defs>
      <path id="DejaVuSans-41" d="M 2188 4044 
L 1331 1722 
L 3047 1722 
L 2188 4044 
z
M 1831 4666 
L 2547 4666 
L 4325 0 
L 3669 0 
L 3244 1197 
L 1141 1197 
L 716 0 
L 50 0 
L 1831 4666 
z
" transform="scale(0.015625)"/>
      <path id="DejaVuSans-75" d="M 544 1381 
L 544 3500 
L 1119 3500 
L 1119 1403 
Q 1119 906 1312 657 
Q 1506 409 1894 409 
Q 2359 409 2629 706 
Q 2900 1003 2900 1516 
L 2900 3500 
L 3475 3500 
L 3475 0 
L 2900 0 
L 2900 538 
Q 2691 219 2414 64 
Q 2138 -91 1772 -91 
Q 1169 -91 856 284 
Q 544 659 544 1381 
z
M 1991 3584 
L 1991 3584 
z
" transform="scale(0.015625)"/>
      <path id="DejaVuSans-61" d="M 2194 1759 
Q 1497 1759 1228 1600 
Q 959 1441 959 1056 
Q 959 750 1161 570 
Q 1363 391 1709 391 
Q 2188 391 2477 730 
Q 2766 1069 2766 1631 
L 2766 1759 
L 2194 1759 
z
M 3341 1997 
L 3341 0 
L 2766 0 
L 2766 531 
Q 2569 213 2275 61 
Q 1981 -91 1556 -91 
Q 1019 -91 701 211 
Q 384 513 384 1019 
Q 384 1609 779 1909 
Q 1175 2209 1959 2209 
L 2766 2209 
L 2766 2266 
Q 2766 2663 2505 2880 
Q 2244 3097 1772 3097 
Q 1472 3097 1187 3025 
Q 903 2953 641 2809 
L 641 3341 
Q 956 3463 1253 3523 
Q 1550 3584 1831 3584 
Q 2591 3584 2966 3190 
Q 3341 2797 3341 1997 
z
" transform="scale(0.015625)"/>
      <path id="DejaVuSans-20" transform="scale(0.015625)"/>
      <path id="DejaVuSans-70" d="M 1159 525 
L 1159 -1331 
L 581 -1331 
L 581 3500 
L 1159 3500 
L 1159 2969 
Q 1341 3281 1617 3432 
Q 1894 3584 2278 3584 
Q 2916 3584 3314 3078 
Q 3713 2572 3713 1747 
Q 3713 922 3314 415 
Q 2916 -91 2278 -91 
Q 1894 -91 1617 61 
Q 1341 213 1159 525 
z
M 3116 1747 
Q 3116 2381 2855 2742 
Q 2594 3103 2138 3103 
Q 1681 3103 1420 2742 
Q 1159 2381 1159 1747 
Q 1159 1113 1420 752 
Q 1681 391 2138 391 
Q 2594 391 2855 752 
Q 3116 1113 3116 1747 
z
" transform="scale(0.015625)"/>
      <path id="DejaVuSans-64" d="M 2906 2969 
L 2906 4863 
L 3481 4863 
L 3481 0 
L 2906 0 
L 2906 525 
Q 2725 213 2448 61 
Q 2172 -91 1784 -91 
Q 1150 -91 751 415 
Q 353 922 353 1747 
Q 353 2572 751 3078 
Q 1150 3584 1784 3584 
Q 2172 3584 2448 3432 
Q 2725 3281 2906 2969 
z
M 947 1747 
Q 947 1113 1208 752 
Q 1469 391 1925 391 
Q 2381 391 2643 752 
Q 2906 1113 2906 1747 
Q 2906 2381 2643 2742 
Q 2381 3103 1925 3103 
Q 1469 3103 1208 2742 
Q 947 2381 947 1747 
z
" transform="scale(0.015625)"/>
      <path id="DejaVuSans-76" d="M 191 3500 
L 800 3500 
L 1894 563 
L 2988 3500 
L 3597 3500 
L 2284 0 
L 1503 0 
L 191 3500 
z
" transform="scale(0.015625)"/>
      <path id="DejaVuSans-45" d="M 628 4666 
L 3578 4666 
L 3578 4134 
L 1259 4134 
L 1259 2753 
L 3481 2753 
L 3481 2222 
L 1259 2222 
L 1259 531 
L 3634 531 
L 3634 0 
L 628 0 
L 628 4666 
z
" transform="scale(0.015625)"/>
      <path id="DejaVuSans-78" d="M 3513 3500 
L 2247 1797 
L 3578 0 
L 2900 0 
L 1881 1375 
L 863 0 
L 184 0 
L 1544 1831 
L 300 3500 
L 978 3500 
L 1906 2253 
L 2834 3500 
L 3513 3500 
z
" transform="scale(0.015625)"/>
     </defs>
     <use xlink:href="#DejaVuSans-41"/>
     <use xlink:href="#DejaVuSans-63" x="66.658203"/>
     <use xlink:href="#DejaVuSans-74" x="121.638672"/>
     <use xlink:href="#DejaVuSans-75" x="160.847656"/>
     <use xlink:href="#DejaVuSans-61" x="224.226562"/>
     <use xlink:href="#DejaVuSans-6c" x="285.505859"/>
     <use xlink:href="#DejaVuSans-20" x="313.289062"/>
     <use xlink:href="#DejaVuSans-73" x="345.076172"/>
     <use xlink:href="#DejaVuSans-70" x="397.175781"/>
     <use xlink:href="#DejaVuSans-65" x="460.652344"/>
     <use xlink:href="#DejaVuSans-65" x="522.175781"/>
     <use xlink:href="#DejaVuSans-64" x="583.699219"/>
     <use xlink:href="#DejaVuSans-20" x="647.175781"/>
     <use xlink:href="#DejaVuSans-76" x="678.962891"/>
     <use xlink:href="#DejaVuSans-73" x="738.142578"/>
     <use xlink:href="#DejaVuSans-20" x="790.242188"/>
     <use xlink:href="#DejaVuSans-45" x="822.029297"/>
     <use xlink:href="#DejaVuSans-78" x="885.212891"/>
     <use xlink:href="#DejaVuSans-70" x="944.392578"/>
     <use xlink:href="#DejaVuSans-65" x="1007.869141"/>
     <use xlink:href="#DejaVuSans-63" x="1069.392578"/>
     <use xlink:href="#DejaVuSans-74" x="1124.373047"/>
     <use xlink:href="#DejaVuSans-65" x="1163.582031"/>
     <use xlink:href="#DejaVuSans-64" x="1225.105469"/>
     <use xlink:href="#DejaVuSans-20" x="1288.582031"/>
     <use xlink:href="#DejaVuSans-73" x="1320.369141"/>
     <use xlink:href="#DejaVuSans-70" x="1372.46875"/>
     <use xlink:href="#DejaVuSans-65" x="1435.945312"/>
     <use xlink:href="#DejaVuSans-65" x="1497.46875"/>
     <use xlink:href="#DejaVuSans-64" x="1558.992188"/>
    </g>
   </g>
   <g id="legend_1">
    <g id="patch_7">
     <path d="M 64.6 302.584 
L 176.65 302.584 
Q 178.65 302.584 178.65 300.584 
L 178.65 272.22775 
Q 178.65 270.22775 176.65 270.22775 
L 64.6 270.22775 
Q 62.6 270.22775 62.6 272.22775 
L 62.6 300.584 
Q 62.6 302.584 64.6 302.584 
z
" style="fill: #ffffff; opacity: 0.8; stroke: #cccccc; stroke-linejoin: miter"/>
    </g>
    <g id="line2d_27">
     <path d="M 66.6 278.326187 
L 76.6 278.326187 
L 86.6 278.326187 
" style="fill: none; stroke: #1f77b4; stroke-width: 1.5; stroke-linecap: square"/>
    </g>
    <g id="text_16">
     <!-- Actual speed -->
     <g transform="translate(94.6 281.826187) scale(0.1 -0.1)">
      <use xlink:href="#DejaVuSans-41"/>
      <use xlink:href="#DejaVuSans-63" x="66.658203"/>
      <use xlink:href="#DejaVuSans-74" x="121.638672"/>
      <use xlink:href="#DejaVuSans-75" x="160.847656"/>
      <use xlink:href="#DejaVuSans-61" x="224.226562"/>
      <use xlink:href="#DejaVuSans-6c" x="285.505859"/>
      <use xlink:href="#DejaVuSans-20" x="313.289062"/>
      <use xlink:href="#DejaVuSans-73" x="345.076172"/>
      <use xlink:href="#DejaVuSans-70" x="397.175781"/>
      <use xlink:href="#DejaVuSans-65" x="460.652344"/>
      <use xlink:href="#DejaVuSans-65" x="522.175781"/>
      <use xlink:href="#DejaVuSans-64" x="583.699219"/>
     </g>
    </g>
    <g id="line2d_28">
     <path d="M 66.6 293.004312 
L 76.6 293.004312 
L 86.6 293.004312 
" style="fill: none; stroke: #ff7f0e; stroke-width: 1.5; stroke-linecap: square"/>
    </g>
    <g id="text_17">
     <!-- Expected speed -->
     <g transform="translate(94.6 296.504312) scale(0.1 -0.1)">
      <use xlink:href="#DejaVuSans-45"/>
      <use xlink:href="#DejaVuSans-78" x="63.183594"/>
      <use xlink:href="#DejaVuSans-70" x="122.363281"/>
      <use xlink:href="#DejaVuSans-65" x="185.839844"/>
      <use xlink:href="#DejaVuSans-63" x="247.363281"/>
      <use xlink:href="#DejaVuSans-74" x="302.34375"/>
      <use xlink:href="#DejaVuSans-65" x="341.552734"/>
      <use xlink:href="#DejaVuSans-64" x="403.076172"/>
      <use xlink:href="#DejaVuSans-20" x="466.552734"/>
      <use xlink:href="#DejaVuSans-73" x="498.339844"/>
      <use xlink:href="#DejaVuSans-70" x="550.439453"/>
      <use xlink:href="#DejaVuSans-65" x="613.916016"/>
      <use xlink:href="#DejaVuSans-65" x="675.439453"/>
      <use xlink:href="#DejaVuSans-64" x="736.962891"/>
     </g>
    </g>
   </g>
  </g>
 </g>
 <defs>
  <clipPath id="pfddb9e57b4">
   <rect x="57.6" y="41.472" width="357.12" height="266.112"/>
  </clipPath>
 </defs>
</svg>
