<?xml version="1.0" encoding="utf-8" standalone="no"?>
<!DOCTYPE svg PUBLIC "-//W3C//DTD SVG 1.1//EN"
  "http://www.w3.org/Graphics/SVG/1.1/DTD/svg11.dtd">
<svg xmlns:xlink="http://www.w3.org/1999/xlink" width="460.8pt" height="345.6pt" viewBox="0 0 460.8 345.6" xmlns="http://www.w3.org/2000/svg" version="1.1">
 <metadata>
  <rdf:RDF xmlns:dc="http://purl.org/dc/elements/1.1/" xmlns:cc="http://creativecommons.org/ns#" xmlns:rdf="http://www.w3.org/1999/02/22-rdf-syntax-ns#">
   <cc:Work>
    <dc:type rdf:resource="http://purl.org/dc/dcmitype/StillImage"/>
    <dc:date>2024-01-30T20:58:33.984762</dc:date>
    <dc:format>image/svg+xml</dc:format>
    <dc:creator>
     <cc:Agent>
      <dc:title>Matplotlib v3.7.1, https://matplotlib.org/</dc:title>
     </cc:Agent>
    </dc:creator>
   </cc:Work>
  </rdf:RDF>
 </metadata>
 <defs>
  <style type="text/css">*{stroke-linejoin: round; stroke-linecap: butt}</style>
 </defs>
 <g id="figure_1">
  <g id="patch_1">
   <path d="M 0 345.6 
L 460.8 345.6 
L 460.8 0 
L 0 0 
z
" style="fill: #ffffff"/>
  </g>
  <g id="axes_1">
   <g id="patch_2">
    <path d="M 57.6 307.584 
L 414.72 307.584 
L 414.72 41.472 
L 57.6 41.472 
z
" style="fill: #ffffff"/>
   </g>
   <g id="matplotlib.axis_1">
    <g id="xtick_1">
     <g id="line2d_1">
      <path d="M 73.832727 307.584 
L 73.832727 41.472 
" clip-path="url(#p9315b8031a)" style="fill: none; stroke: #b0b0b0; stroke-width: 0.8; stroke-linecap: square"/>
     </g>
     <g id="line2d_2">
      <defs>
       <path id="me29708ccad" d="M 0 0 
L 0 3.5 
" style="stroke: #000000; stroke-width: 0.8"/>
      </defs>
      <g>
       <use xlink:href="#me29708ccad" x="73.832727" y="307.584" style="stroke: #000000; stroke-width: 0.8"/>
      </g>
     </g>
     <g id="text_1">
      <!-- 0 -->
      <g transform="translate(70.651477 322.182437) scale(0.1 -0.1)">
       <defs>
        <path id="DejaVuSans-30" d="M 2034 4250 
Q 1547 4250 1301 3770 
Q 1056 3291 1056 2328 
Q 1056 1369 1301 889 
Q 1547 409 2034 409 
Q 2525 409 2770 889 
Q 3016 1369 3016 2328 
Q 3016 3291 2770 3770 
Q 2525 4250 2034 4250 
z
M 2034 4750 
Q 2819 4750 3233 4129 
Q 3647 3509 3647 2328 
Q 3647 1150 3233 529 
Q 2819 -91 2034 -91 
Q 1250 -91 836 529 
Q 422 1150 422 2328 
Q 422 3509 836 4129 
Q 1250 4750 2034 4750 
z
" transform="scale(0.015625)"/>
       </defs>
       <use xlink:href="#DejaVuSans-30"/>
      </g>
     </g>
    </g>
    <g id="xtick_2">
     <g id="line2d_3">
      <path d="M 124.94333 307.584 
L 124.94333 41.472 
" clip-path="url(#p9315b8031a)" style="fill: none; stroke: #b0b0b0; stroke-width: 0.8; stroke-linecap: square"/>
     </g>
     <g id="line2d_4">
      <g>
       <use xlink:href="#me29708ccad" x="124.94333" y="307.584" style="stroke: #000000; stroke-width: 0.8"/>
      </g>
     </g>
     <g id="text_2">
      <!-- 5 -->
      <g transform="translate(121.76208 322.182437) scale(0.1 -0.1)">
       <defs>
        <path id="DejaVuSans-35" d="M 691 4666 
L 3169 4666 
L 3169 4134 
L 1269 4134 
L 1269 2991 
Q 1406 3038 1543 3061 
Q 1681 3084 1819 3084 
Q 2600 3084 3056 2656 
Q 3513 2228 3513 1497 
Q 3513 744 3044 326 
Q 2575 -91 1722 -91 
Q 1428 -91 1123 -41 
Q 819 9 494 109 
L 494 744 
Q 775 591 1075 516 
Q 1375 441 1709 441 
Q 2250 441 2565 725 
Q 2881 1009 2881 1497 
Q 2881 1984 2565 2268 
Q 2250 2553 1709 2553 
Q 1456 2553 1204 2497 
Q 953 2441 691 2322 
L 691 4666 
z
" transform="scale(0.015625)"/>
       </defs>
       <use xlink:href="#DejaVuSans-35"/>
      </g>
     </g>
    </g>
    <g id="xtick_3">
     <g id="line2d_5">
      <path d="M 176.053932 307.584 
L 176.053932 41.472 
" clip-path="url(#p9315b8031a)" style="fill: none; stroke: #b0b0b0; stroke-width: 0.8; stroke-linecap: square"/>
     </g>
     <g id="line2d_6">
      <g>
       <use xlink:href="#me29708ccad" x="176.053932" y="307.584" style="stroke: #000000; stroke-width: 0.8"/>
      </g>
     </g>
     <g id="text_3">
      <!-- 10 -->
      <g transform="translate(169.691432 322.182437) scale(0.1 -0.1)">
       <defs>
        <path id="DejaVuSans-31" d="M 794 531 
L 1825 531 
L 1825 4091 
L 703 3866 
L 703 4441 
L 1819 4666 
L 2450 4666 
L 2450 531 
L 3481 531 
L 3481 0 
L 794 0 
L 794 531 
z
" transform="scale(0.015625)"/>
       </defs>
       <use xlink:href="#DejaVuSans-31"/>
       <use xlink:href="#DejaVuSans-30" x="63.623047"/>
      </g>
     </g>
    </g>
    <g id="xtick_4">
     <g id="line2d_7">
      <path d="M 227.164534 307.584 
L 227.164534 41.472 
" clip-path="url(#p9315b8031a)" style="fill: none; stroke: #b0b0b0; stroke-width: 0.8; stroke-linecap: square"/>
     </g>
     <g id="line2d_8">
      <g>
       <use xlink:href="#me29708ccad" x="227.164534" y="307.584" style="stroke: #000000; stroke-width: 0.8"/>
      </g>
     </g>
     <g id="text_4">
      <!-- 15 -->
      <g transform="translate(220.802034 322.182437) scale(0.1 -0.1)">
       <use xlink:href="#DejaVuSans-31"/>
       <use xlink:href="#DejaVuSans-35" x="63.623047"/>
      </g>
     </g>
    </g>
    <g id="xtick_5">
     <g id="line2d_9">
      <path d="M 278.275136 307.584 
L 278.275136 41.472 
" clip-path="url(#p9315b8031a)" style="fill: none; stroke: #b0b0b0; stroke-width: 0.8; stroke-linecap: square"/>
     </g>
     <g id="line2d_10">
      <g>
       <use xlink:href="#me29708ccad" x="278.275136" y="307.584" style="stroke: #000000; stroke-width: 0.8"/>
      </g>
     </g>
     <g id="text_5">
      <!-- 20 -->
      <g transform="translate(271.912636 322.182437) scale(0.1 -0.1)">
       <defs>
        <path id="DejaVuSans-32" d="M 1228 531 
L 3431 531 
L 3431 0 
L 469 0 
L 469 531 
Q 828 903 1448 1529 
Q 2069 2156 2228 2338 
Q 2531 2678 2651 2914 
Q 2772 3150 2772 3378 
Q 2772 3750 2511 3984 
Q 2250 4219 1831 4219 
Q 1534 4219 1204 4116 
Q 875 4013 500 3803 
L 500 4441 
Q 881 4594 1212 4672 
Q 1544 4750 1819 4750 
Q 2544 4750 2975 4387 
Q 3406 4025 3406 3419 
Q 3406 3131 3298 2873 
Q 3191 2616 2906 2266 
Q 2828 2175 2409 1742 
Q 1991 1309 1228 531 
z
" transform="scale(0.015625)"/>
       </defs>
       <use xlink:href="#DejaVuSans-32"/>
       <use xlink:href="#DejaVuSans-30" x="63.623047"/>
      </g>
     </g>
    </g>
    <g id="xtick_6">
     <g id="line2d_11">
      <path d="M 329.385738 307.584 
L 329.385738 41.472 
" clip-path="url(#p9315b8031a)" style="fill: none; stroke: #b0b0b0; stroke-width: 0.8; stroke-linecap: square"/>
     </g>
     <g id="line2d_12">
      <g>
       <use xlink:href="#me29708ccad" x="329.385738" y="307.584" style="stroke: #000000; stroke-width: 0.8"/>
      </g>
     </g>
     <g id="text_6">
      <!-- 25 -->
      <g transform="translate(323.023238 322.182437) scale(0.1 -0.1)">
       <use xlink:href="#DejaVuSans-32"/>
       <use xlink:href="#DejaVuSans-35" x="63.623047"/>
      </g>
     </g>
    </g>
    <g id="xtick_7">
     <g id="line2d_13">
      <path d="M 380.496341 307.584 
L 380.496341 41.472 
" clip-path="url(#p9315b8031a)" style="fill: none; stroke: #b0b0b0; stroke-width: 0.8; stroke-linecap: square"/>
     </g>
     <g id="line2d_14">
      <g>
       <use xlink:href="#me29708ccad" x="380.496341" y="307.584" style="stroke: #000000; stroke-width: 0.8"/>
      </g>
     </g>
     <g id="text_7">
      <!-- 30 -->
      <g transform="translate(374.133841 322.182437) scale(0.1 -0.1)">
       <defs>
        <path id="DejaVuSans-33" d="M 2597 2516 
Q 3050 2419 3304 2112 
Q 3559 1806 3559 1356 
Q 3559 666 3084 287 
Q 2609 -91 1734 -91 
Q 1441 -91 1130 -33 
Q 819 25 488 141 
L 488 750 
Q 750 597 1062 519 
Q 1375 441 1716 441 
Q 2309 441 2620 675 
Q 2931 909 2931 1356 
Q 2931 1769 2642 2001 
Q 2353 2234 1838 2234 
L 1294 2234 
L 1294 2753 
L 1863 2753 
Q 2328 2753 2575 2939 
Q 2822 3125 2822 3475 
Q 2822 3834 2567 4026 
Q 2313 4219 1838 4219 
Q 1578 4219 1281 4162 
Q 984 4106 628 3988 
L 628 4550 
Q 988 4650 1302 4700 
Q 1616 4750 1894 4750 
Q 2613 4750 3031 4423 
Q 3450 4097 3450 3541 
Q 3450 3153 3228 2886 
Q 3006 2619 2597 2516 
z
" transform="scale(0.015625)"/>
       </defs>
       <use xlink:href="#DejaVuSans-33"/>
       <use xlink:href="#DejaVuSans-30" x="63.623047"/>
      </g>
     </g>
    </g>
    <g id="text_8">
     <!-- Time(s) -->
     <g transform="translate(217.420156 335.860562) scale(0.1 -0.1)">
      <defs>
       <path id="DejaVuSans-54" d="M -19 4666 
L 3928 4666 
L 3928 4134 
L 2272 4134 
L 2272 0 
L 1638 0 
L 1638 4134 
L -19 4134 
L -19 4666 
z
" transform="scale(0.015625)"/>
       <path id="DejaVuSans-69" d="M 603 3500 
L 1178 3500 
L 1178 0 
L 603 0 
L 603 3500 
z
M 603 4863 
L 1178 4863 
L 1178 4134 
L 603 4134 
L 603 4863 
z
" transform="scale(0.015625)"/>
       <path id="DejaVuSans-6d" d="M 3328 2828 
Q 3544 3216 3844 3400 
Q 4144 3584 4550 3584 
Q 5097 3584 5394 3201 
Q 5691 2819 5691 2113 
L 5691 0 
L 5113 0 
L 5113 2094 
Q 5113 2597 4934 2840 
Q 4756 3084 4391 3084 
Q 3944 3084 3684 2787 
Q 3425 2491 3425 1978 
L 3425 0 
L 2847 0 
L 2847 2094 
Q 2847 2600 2669 2842 
Q 2491 3084 2119 3084 
Q 1678 3084 1418 2786 
Q 1159 2488 1159 1978 
L 1159 0 
L 581 0 
L 581 3500 
L 1159 3500 
L 1159 2956 
Q 1356 3278 1631 3431 
Q 1906 3584 2284 3584 
Q 2666 3584 2933 3390 
Q 3200 3197 3328 2828 
z
" transform="scale(0.015625)"/>
       <path id="DejaVuSans-65" d="M 3597 1894 
L 3597 1613 
L 953 1613 
Q 991 1019 1311 708 
Q 1631 397 2203 397 
Q 2534 397 2845 478 
Q 3156 559 3463 722 
L 3463 178 
Q 3153 47 2828 -22 
Q 2503 -91 2169 -91 
Q 1331 -91 842 396 
Q 353 884 353 1716 
Q 353 2575 817 3079 
Q 1281 3584 2069 3584 
Q 2775 3584 3186 3129 
Q 3597 2675 3597 1894 
z
M 3022 2063 
Q 3016 2534 2758 2815 
Q 2500 3097 2075 3097 
Q 1594 3097 1305 2825 
Q 1016 2553 972 2059 
L 3022 2063 
z
" transform="scale(0.015625)"/>
       <path id="DejaVuSans-28" d="M 1984 4856 
Q 1566 4138 1362 3434 
Q 1159 2731 1159 2009 
Q 1159 1288 1364 580 
Q 1569 -128 1984 -844 
L 1484 -844 
Q 1016 -109 783 600 
Q 550 1309 550 2009 
Q 550 2706 781 3412 
Q 1013 4119 1484 4856 
L 1984 4856 
z
" transform="scale(0.015625)"/>
       <path id="DejaVuSans-73" d="M 2834 3397 
L 2834 2853 
Q 2591 2978 2328 3040 
Q 2066 3103 1784 3103 
Q 1356 3103 1142 2972 
Q 928 2841 928 2578 
Q 928 2378 1081 2264 
Q 1234 2150 1697 2047 
L 1894 2003 
Q 2506 1872 2764 1633 
Q 3022 1394 3022 966 
Q 3022 478 2636 193 
Q 2250 -91 1575 -91 
Q 1294 -91 989 -36 
Q 684 19 347 128 
L 347 722 
Q 666 556 975 473 
Q 1284 391 1588 391 
Q 1994 391 2212 530 
Q 2431 669 2431 922 
Q 2431 1156 2273 1281 
Q 2116 1406 1581 1522 
L 1381 1569 
Q 847 1681 609 1914 
Q 372 2147 372 2553 
Q 372 3047 722 3315 
Q 1072 3584 1716 3584 
Q 2034 3584 2315 3537 
Q 2597 3491 2834 3397 
z
" transform="scale(0.015625)"/>
       <path id="DejaVuSans-29" d="M 513 4856 
L 1013 4856 
Q 1481 4119 1714 3412 
Q 1947 2706 1947 2009 
Q 1947 1309 1714 600 
Q 1481 -109 1013 -844 
L 513 -844 
Q 928 -128 1133 580 
Q 1338 1288 1338 2009 
Q 1338 2731 1133 3434 
Q 928 4138 513 4856 
z
" transform="scale(0.015625)"/>
      </defs>
      <use xlink:href="#DejaVuSans-54"/>
      <use xlink:href="#DejaVuSans-69" x="57.958984"/>
      <use xlink:href="#DejaVuSans-6d" x="85.742188"/>
      <use xlink:href="#DejaVuSans-65" x="183.154297"/>
      <use xlink:href="#DejaVuSans-28" x="244.677734"/>
      <use xlink:href="#DejaVuSans-73" x="283.691406"/>
      <use xlink:href="#DejaVuSans-29" x="335.791016"/>
     </g>
    </g>
   </g>
   <g id="matplotlib.axis_2">
    <g id="ytick_1">
     <g id="line2d_15">
      <path d="M 57.6 266.241558 
L 414.72 266.241558 
" clip-path="url(#p9315b8031a)" style="fill: none; stroke: #b0b0b0; stroke-width: 0.8; stroke-linecap: square"/>
     </g>
     <g id="line2d_16">
      <defs>
       <path id="m7ea280b386" d="M 0 0 
L -3.5 0 
" style="stroke: #000000; stroke-width: 0.8"/>
      </defs>
      <g>
       <use xlink:href="#m7ea280b386" x="57.6" y="266.241558" style="stroke: #000000; stroke-width: 0.8"/>
      </g>
     </g>
     <g id="text_9">
      <!-- 4 -->
      <g transform="translate(44.2375 270.040776) scale(0.1 -0.1)">
       <defs>
        <path id="DejaVuSans-34" d="M 2419 4116 
L 825 1625 
L 2419 1625 
L 2419 4116 
z
M 2253 4666 
L 3047 4666 
L 3047 1625 
L 3713 1625 
L 3713 1100 
L 3047 1100 
L 3047 0 
L 2419 0 
L 2419 1100 
L 313 1100 
L 313 1709 
L 2253 4666 
z
" transform="scale(0.015625)"/>
       </defs>
       <use xlink:href="#DejaVuSans-34"/>
      </g>
     </g>
    </g>
    <g id="ytick_2">
     <g id="line2d_17">
      <path d="M 57.6 213.073168 
L 414.72 213.073168 
" clip-path="url(#p9315b8031a)" style="fill: none; stroke: #b0b0b0; stroke-width: 0.8; stroke-linecap: square"/>
     </g>
     <g id="line2d_18">
      <g>
       <use xlink:href="#m7ea280b386" x="57.6" y="213.073168" style="stroke: #000000; stroke-width: 0.8"/>
      </g>
     </g>
     <g id="text_10">
      <!-- 5 -->
      <g transform="translate(44.2375 216.872387) scale(0.1 -0.1)">
       <use xlink:href="#DejaVuSans-35"/>
      </g>
     </g>
    </g>
    <g id="ytick_3">
     <g id="line2d_19">
      <path d="M 57.6 159.904779 
L 414.72 159.904779 
" clip-path="url(#p9315b8031a)" style="fill: none; stroke: #b0b0b0; stroke-width: 0.8; stroke-linecap: square"/>
     </g>
     <g id="line2d_20">
      <g>
       <use xlink:href="#m7ea280b386" x="57.6" y="159.904779" style="stroke: #000000; stroke-width: 0.8"/>
      </g>
     </g>
     <g id="text_11">
      <!-- 6 -->
      <g transform="translate(44.2375 163.703998) scale(0.1 -0.1)">
       <defs>
        <path id="DejaVuSans-36" d="M 2113 2584 
Q 1688 2584 1439 2293 
Q 1191 2003 1191 1497 
Q 1191 994 1439 701 
Q 1688 409 2113 409 
Q 2538 409 2786 701 
Q 3034 994 3034 1497 
Q 3034 2003 2786 2293 
Q 2538 2584 2113 2584 
z
M 3366 4563 
L 3366 3988 
Q 3128 4100 2886 4159 
Q 2644 4219 2406 4219 
Q 1781 4219 1451 3797 
Q 1122 3375 1075 2522 
Q 1259 2794 1537 2939 
Q 1816 3084 2150 3084 
Q 2853 3084 3261 2657 
Q 3669 2231 3669 1497 
Q 3669 778 3244 343 
Q 2819 -91 2113 -91 
Q 1303 -91 875 529 
Q 447 1150 447 2328 
Q 447 3434 972 4092 
Q 1497 4750 2381 4750 
Q 2619 4750 2861 4703 
Q 3103 4656 3366 4563 
z
" transform="scale(0.015625)"/>
       </defs>
       <use xlink:href="#DejaVuSans-36"/>
      </g>
     </g>
    </g>
    <g id="ytick_4">
     <g id="line2d_21">
      <path d="M 57.6 106.736389 
L 414.72 106.736389 
" clip-path="url(#p9315b8031a)" style="fill: none; stroke: #b0b0b0; stroke-width: 0.8; stroke-linecap: square"/>
     </g>
     <g id="line2d_22">
      <g>
       <use xlink:href="#m7ea280b386" x="57.6" y="106.736389" style="stroke: #000000; stroke-width: 0.8"/>
      </g>
     </g>
     <g id="text_12">
      <!-- 7 -->
      <g transform="translate(44.2375 110.535608) scale(0.1 -0.1)">
       <defs>
        <path id="DejaVuSans-37" d="M 525 4666 
L 3525 4666 
L 3525 4397 
L 1831 0 
L 1172 0 
L 2766 4134 
L 525 4134 
L 525 4666 
z
" transform="scale(0.015625)"/>
       </defs>
       <use xlink:href="#DejaVuSans-37"/>
      </g>
     </g>
    </g>
    <g id="ytick_5">
     <g id="line2d_23">
      <path d="M 57.6 53.568 
L 414.72 53.568 
" clip-path="url(#p9315b8031a)" style="fill: none; stroke: #b0b0b0; stroke-width: 0.8; stroke-linecap: square"/>
     </g>
     <g id="line2d_24">
      <g>
       <use xlink:href="#m7ea280b386" x="57.6" y="53.568" style="stroke: #000000; stroke-width: 0.8"/>
      </g>
     </g>
     <g id="text_13">
      <!-- 8 -->
      <g transform="translate(44.2375 57.367219) scale(0.1 -0.1)">
       <defs>
        <path id="DejaVuSans-38" d="M 2034 2216 
Q 1584 2216 1326 1975 
Q 1069 1734 1069 1313 
Q 1069 891 1326 650 
Q 1584 409 2034 409 
Q 2484 409 2743 651 
Q 3003 894 3003 1313 
Q 3003 1734 2745 1975 
Q 2488 2216 2034 2216 
z
M 1403 2484 
Q 997 2584 770 2862 
Q 544 3141 544 3541 
Q 544 4100 942 4425 
Q 1341 4750 2034 4750 
Q 2731 4750 3128 4425 
Q 3525 4100 3525 3541 
Q 3525 3141 3298 2862 
Q 3072 2584 2669 2484 
Q 3125 2378 3379 2068 
Q 3634 1759 3634 1313 
Q 3634 634 3220 271 
Q 2806 -91 2034 -91 
Q 1263 -91 848 271 
Q 434 634 434 1313 
Q 434 1759 690 2068 
Q 947 2378 1403 2484 
z
M 1172 3481 
Q 1172 3119 1398 2916 
Q 1625 2713 2034 2713 
Q 2441 2713 2670 2916 
Q 2900 3119 2900 3481 
Q 2900 3844 2670 4047 
Q 2441 4250 2034 4250 
Q 1625 4250 1398 4047 
Q 1172 3844 1172 3481 
z
" transform="scale(0.015625)"/>
       </defs>
       <use xlink:href="#DejaVuSans-38"/>
      </g>
     </g>
    </g>
    <g id="text_14">
     <!-- Velocity(m/s) -->
     <g transform="translate(38.157812 207.204563) rotate(-90) scale(0.1 -0.1)">
      <defs>
       <path id="DejaVuSans-56" d="M 1831 0 
L 50 4666 
L 709 4666 
L 2188 738 
L 3669 4666 
L 4325 4666 
L 2547 0 
L 1831 0 
z
" transform="scale(0.015625)"/>
       <path id="DejaVuSans-6c" d="M 603 4863 
L 1178 4863 
L 1178 0 
L 603 0 
L 603 4863 
z
" transform="scale(0.015625)"/>
       <path id="DejaVuSans-6f" d="M 1959 3097 
Q 1497 3097 1228 2736 
Q 959 2375 959 1747 
Q 959 1119 1226 758 
Q 1494 397 1959 397 
Q 2419 397 2687 759 
Q 2956 1122 2956 1747 
Q 2956 2369 2687 2733 
Q 2419 3097 1959 3097 
z
M 1959 3584 
Q 2709 3584 3137 3096 
Q 3566 2609 3566 1747 
Q 3566 888 3137 398 
Q 2709 -91 1959 -91 
Q 1206 -91 779 398 
Q 353 888 353 1747 
Q 353 2609 779 3096 
Q 1206 3584 1959 3584 
z
" transform="scale(0.015625)"/>
       <path id="DejaVuSans-63" d="M 3122 3366 
L 3122 2828 
Q 2878 2963 2633 3030 
Q 2388 3097 2138 3097 
Q 1578 3097 1268 2742 
Q 959 2388 959 1747 
Q 959 1106 1268 751 
Q 1578 397 2138 397 
Q 2388 397 2633 464 
Q 2878 531 3122 666 
L 3122 134 
Q 2881 22 2623 -34 
Q 2366 -91 2075 -91 
Q 1284 -91 818 406 
Q 353 903 353 1747 
Q 353 2603 823 3093 
Q 1294 3584 2113 3584 
Q 2378 3584 2631 3529 
Q 2884 3475 3122 3366 
z
" transform="scale(0.015625)"/>
       <path id="DejaVuSans-74" d="M 1172 4494 
L 1172 3500 
L 2356 3500 
L 2356 3053 
L 1172 3053 
L 1172 1153 
Q 1172 725 1289 603 
Q 1406 481 1766 481 
L 2356 481 
L 2356 0 
L 1766 0 
Q 1100 0 847 248 
Q 594 497 594 1153 
L 594 3053 
L 172 3053 
L 172 3500 
L 594 3500 
L 594 4494 
L 1172 4494 
z
" transform="scale(0.015625)"/>
       <path id="DejaVuSans-79" d="M 2059 -325 
Q 1816 -950 1584 -1140 
Q 1353 -1331 966 -1331 
L 506 -1331 
L 506 -850 
L 844 -850 
Q 1081 -850 1212 -737 
Q 1344 -625 1503 -206 
L 1606 56 
L 191 3500 
L 800 3500 
L 1894 763 
L 2988 3500 
L 3597 3500 
L 2059 -325 
z
" transform="scale(0.015625)"/>
       <path id="DejaVuSans-2f" d="M 1625 4666 
L 2156 4666 
L 531 -594 
L 0 -594 
L 1625 4666 
z
" transform="scale(0.015625)"/>
      </defs>
      <use xlink:href="#DejaVuSans-56"/>
      <use xlink:href="#DejaVuSans-65" x="60.658203"/>
      <use xlink:href="#DejaVuSans-6c" x="122.181641"/>
      <use xlink:href="#DejaVuSans-6f" x="149.964844"/>
      <use xlink:href="#DejaVuSans-63" x="211.146484"/>
      <use xlink:href="#DejaVuSans-69" x="266.126953"/>
      <use xlink:href="#DejaVuSans-74" x="293.910156"/>
      <use xlink:href="#DejaVuSans-79" x="333.119141"/>
      <use xlink:href="#DejaVuSans-28" x="392.298828"/>
      <use xlink:href="#DejaVuSans-6d" x="431.3125"/>
      <use xlink:href="#DejaVuSans-2f" x="528.724609"/>
      <use xlink:href="#DejaVuSans-73" x="562.416016"/>
      <use xlink:href="#DejaVuSans-29" x="614.515625"/>
     </g>
    </g>
   </g>
   <g id="line2d_25">
    <path d="M 73.832727 54.423479 
L 75.059382 54.044761 
L 75.059382 54.044761 
L 76.694921 53.786682 
L 76.694921 53.786682 
L 79.352672 53.629622 
L 79.352672 53.629622 
L 85.281502 53.571669 
L 85.281502 53.571669 
L 86.508157 53.57002 
L 86.508157 53.57002 
L 86.917041 55.018593 
L 86.917041 55.018593 
L 87.325926 57.902659 
L 87.325926 57.902659 
L 88.348138 68.931538 
L 88.348138 68.931538 
L 89.779235 93.809506 
L 89.779235 93.809506 
L 92.028102 149.211287 
L 92.028102 149.211287 
L 92.436986 156.099677 
L 92.436986 156.099677 
L 92.845871 163.793462 
L 92.845871 163.793462 
L 93.254756 170.19047 
L 93.254756 170.19047 
L 94.072526 181.985451 
L 94.072526 181.985451 
L 95.503623 195.126285 
L 95.503623 195.126285 
L 96.525835 200.829126 
L 96.525835 200.829126 
L 96.934719 202.188004 
L 96.934719 202.188004 
L 97.548047 203.569106 
L 97.548047 203.569106 
L 97.956932 203.912627 
L 97.956932 203.912627 
L 98.365816 204.113869 
L 98.365816 204.113869 
L 99.388028 204.134871 
L 99.388028 204.134871 
L 99.592471 204.300331 
L 99.592471 204.300331 
L 100.614683 203.855418 
L 100.614683 203.855418 
L 101.023568 203.42385 
L 101.023568 203.42385 
L 101.432452 202.735532 
L 101.432452 202.735532 
L 102.250222 199.783623 
L 102.250222 199.783623 
L 103.067992 194.728266 
L 103.067992 194.728266 
L 103.476877 190.414715 
L 103.476877 190.414715 
L 103.885761 185.217452 
L 103.885761 185.217452 
L 104.294646 179.06438 
L 104.294646 179.06438 
L 104.907973 168.174165 
L 104.907973 168.174165 
L 106.33907 141.16994 
L 106.33907 141.16994 
L 106.952398 134.043462 
L 106.952398 134.043462 
L 107.770167 127.371041 
L 107.770167 127.371041 
L 108.587937 122.690096 
L 108.587937 122.690096 
L 110.019034 113.885039 
L 110.019034 113.885039 
L 110.427918 110.309465 
L 110.427918 110.309465 
L 111.245688 99.057811 
L 111.245688 99.057811 
L 111.859015 87.694237 
L 111.859015 87.694237 
L 112.472343 80.345674 
L 112.472343 80.345674 
L 113.08567 76.178655 
L 113.08567 76.178655 
L 113.698997 73.532783 
L 113.698997 73.532783 
L 114.516767 71.179072 
L 114.516767 71.179072 
L 116.152306 67.091327 
L 116.152306 67.091327 
L 116.765633 63.989908 
L 116.765633 63.989908 
L 117.583403 60.626051 
L 117.583403 60.626051 
L 118.401172 58.347945 
L 118.401172 58.347945 
L 119.218942 56.805104 
L 119.218942 56.805104 
L 120.036712 55.760292 
L 120.036712 55.760292 
L 120.854481 55.052674 
L 120.854481 55.052674 
L 121.876693 54.480104 
L 121.876693 54.480104 
L 123.103348 54.076343 
L 123.103348 54.076343 
L 124.738887 53.801143 
L 124.738887 53.801143 
L 127.192196 53.643659 
L 127.192196 53.643659 
L 131.485487 53.579484 
L 131.485487 53.579484 
L 131.689929 54.029502 
L 131.689929 54.029502 
L 132.507699 62.351577 
L 132.507699 62.351577 
L 133.734353 82.637657 
L 133.734353 82.637657 
L 134.34768 91.239558 
L 134.34768 91.239558 
L 134.756565 97.013167 
L 134.756565 97.013167 
L 136.800989 121.666658 
L 136.800989 121.666658 
L 138.232086 134.677495 
L 138.232086 134.677495 
L 138.845413 138.553789 
L 138.845413 138.553789 
L 139.663183 142.928537 
L 139.663183 142.928537 
L 140.27651 144.825001 
L 140.27651 144.825001 
L 140.889837 146.350402 
L 140.889837 146.350402 
L 141.503165 147.127298 
L 141.503165 147.127298 
L 142.116492 147.420097 
L 142.116492 147.420097 
L 142.320934 147.440088 
L 142.320934 147.440088 
L 142.729819 147.593638 
L 142.729819 147.593638 
L 144.774243 147.32014 
L 144.774243 147.32014 
L 145.38757 146.877726 
L 145.38757 146.877726 
L 146.20534 145.928298 
L 146.20534 145.928298 
L 146.614225 145.314469 
L 146.614225 145.314469 
L 148.045322 141.526274 
L 148.045322 141.526274 
L 148.454207 139.834616 
L 148.454207 139.834616 
L 148.863091 138.040767 
L 148.863091 138.040767 
L 150.498631 126.879553 
L 150.498631 126.879553 
L 151.725285 113.525355 
L 151.725285 113.525355 
L 152.747497 97.126044 
L 152.747497 97.126044 
L 153.769709 80.6188 
L 153.769709 80.6188 
L 154.587479 71.887647 
L 154.587479 71.887647 
L 155.405248 65.974684 
L 155.405248 65.974684 
L 156.223018 61.970201 
L 156.223018 61.970201 
L 157.040788 59.258241 
L 157.040788 59.258241 
L 157.858557 57.421592 
L 157.858557 57.421592 
L 158.676327 56.17777 
L 158.676327 56.17777 
L 159.494097 55.33755 
L 159.494097 55.33755 
L 160.516309 54.65843 
L 160.516309 54.65843 
L 161.538521 54.242228 
L 161.538521 54.242228 
L 162.969618 53.913063 
L 162.969618 53.913063 
L 165.014042 53.70544 
L 165.014042 53.70544 
L 168.489563 53.594212 
L 168.489563 53.594212 
L 168.898447 53.589586 
L 168.898447 53.589586 
L 169.307332 54.056298 
L 169.307332 54.056298 
L 169.511775 54.750412 
L 169.511775 54.750412 
L 169.920659 57.602471 
L 169.920659 57.602471 
L 172.373968 79.077449 
L 172.373968 79.077449 
L 174.009508 99.375385 
L 174.009508 99.375385 
L 174.418392 104.878686 
L 174.418392 104.878686 
L 175.03172 113.070765 
L 175.03172 113.070765 
L 175.440605 118.837515 
L 175.440605 118.837515 
L 175.849489 125.512753 
L 175.849489 125.512753 
L 176.667259 138.545335 
L 176.667259 138.545335 
L 177.076144 145.169957 
L 177.076144 145.169957 
L 178.302798 164.909466 
L 178.302798 164.909466 
L 178.711683 170.708755 
L 178.711683 170.708755 
L 179.120568 178.280997 
L 179.120568 178.280997 
L 179.733895 187.879912 
L 179.733895 187.879912 
L 180.14278 193.375237 
L 180.14278 193.375237 
L 180.551665 200.158779 
L 180.551665 200.158779 
L 180.96055 206.141074 
L 180.96055 206.141074 
L 181.573877 214.826183 
L 181.573877 214.826183 
L 181.778319 216.851793 
L 181.778319 216.851793 
L 182.391646 225.289084 
L 182.391646 225.289084 
L 182.596089 227.217555 
L 182.596089 227.217555 
L 183.209416 235.609228 
L 183.209416 235.609228 
L 183.618301 238.90955 
L 183.618301 238.90955 
L 184.844955 251.691549 
L 184.844955 251.691549 
L 185.458283 259.236091 
L 185.458283 259.236091 
L 185.867167 261.859632 
L 185.867167 261.859632 
L 186.480495 267.72267 
L 186.480495 267.72267 
L 186.684937 268.937886 
L 186.684937 268.937886 
L 187.093822 272.701092 
L 187.093822 272.701092 
L 187.298264 273.853676 
L 187.298264 273.853676 
L 187.911591 278.582845 
L 187.911591 278.582845 
L 189.547131 286.670714 
L 189.547131 286.670714 
L 190.978228 290.681152 
L 190.978228 290.681152 
L 191.387112 291.553061 
L 191.387112 291.553061 
L 192.409324 292.993818 
L 192.409324 292.993818 
L 193.227094 293.654913 
L 193.227094 293.654913 
L 193.635979 293.788632 
L 193.635979 293.788632 
L 194.044864 293.900286 
L 194.044864 293.900286 
L 195.067076 294.026773 
L 195.067076 294.026773 
L 196.29373 293.911717 
L 196.29373 293.911717 
L 196.498173 293.865567 
L 196.498173 293.865567 
L 197.92927 292.449586 
L 197.92927 292.449586 
L 198.133712 292.142007 
L 198.133712 292.142007 
L 198.542597 290.965869 
L 198.542597 290.965869 
L 198.747039 290.502825 
L 198.747039 290.502825 
L 199.973694 285.43726 
L 199.973694 285.43726 
L 200.587021 281.120625 
L 200.587021 281.120625 
L 201.200348 275.909485 
L 201.200348 275.909485 
L 201.813675 268.809166 
L 201.813675 268.809166 
L 202.427003 260.255754 
L 202.427003 260.255754 
L 203.449215 241.751028 
L 203.449215 241.751028 
L 203.858099 237.145688 
L 203.858099 237.145688 
L 204.266984 234.84993 
L 204.266984 234.84993 
L 204.675869 234.05501 
L 204.675869 234.05501 
L 204.880311 234.79538 
L 204.880311 234.79538 
L 205.084754 234.784959 
L 205.084754 234.784959 
L 205.289196 235.383369 
L 205.289196 235.383369 
L 206.924736 244.981486 
L 206.924736 244.981486 
L 207.33362 246.396882 
L 207.33362 246.396882 
L 207.742505 247.349287 
L 207.742505 247.349287 
L 208.355832 248.326735 
L 208.355832 248.326735 
L 209.582487 248.545257 
L 209.582487 248.545257 
L 210.809141 248.300948 
L 210.809141 248.300948 
L 211.218026 248.136179 
L 211.218026 248.136179 
L 211.626911 247.816478 
L 211.626911 247.816478 
L 212.035796 247.308773 
L 212.035796 247.308773 
L 212.240238 247.042399 
L 212.240238 247.042399 
L 213.466893 244.033547 
L 213.466893 244.033547 
L 214.08022 241.890382 
L 214.08022 241.890382 
L 215.102432 236.493578 
L 215.102432 236.493578 
L 215.511317 233.722069 
L 215.511317 233.722069 
L 216.124644 229.09525 
L 216.124644 229.09525 
L 216.942414 222.209943 
L 216.942414 222.209943 
L 217.760183 213.604214 
L 217.760183 213.604214 
L 218.577953 203.133657 
L 218.577953 203.133657 
L 219.395722 190.660512 
L 219.395722 190.660512 
L 221.031262 155.269984 
L 221.031262 155.269984 
L 221.849031 134.083232 
L 221.849031 134.083232 
L 222.871243 105.182969 
L 222.871243 105.182969 
L 223.689013 88.523345 
L 223.689013 88.523345 
L 224.506783 77.240853 
L 224.506783 77.240853 
L 225.324552 69.600024 
L 225.324552 69.600024 
L 226.142322 64.42541 
L 226.142322 64.42541 
L 226.960092 60.920976 
L 226.960092 60.920976 
L 227.777861 58.547645 
L 227.777861 58.547645 
L 228.595631 56.940365 
L 228.595631 56.940365 
L 229.413401 55.851901 
L 229.413401 55.851901 
L 230.23117 55.114722 
L 230.23117 55.114722 
L 231.253382 54.518225 
L 231.253382 54.518225 
L 232.480037 54.09761 
L 232.480037 54.09761 
L 234.115576 53.810873 
L 234.115576 53.810873 
L 236.568885 53.643446 
L 236.568885 53.643446 
L 238.613309 53.596498 
L 238.613309 53.596498 
L 239.226636 60.045133 
L 239.226636 60.045133 
L 239.635521 68.072124 
L 239.635521 68.072124 
L 240.044406 76.508299 
L 240.044406 76.508299 
L 240.453291 84.517638 
L 240.453291 84.517638 
L 240.862175 92.322652 
L 240.862175 92.322652 
L 241.27106 99.591355 
L 241.27106 99.591355 
L 241.679945 106.852297 
L 241.679945 106.852297 
L 243.519927 132.008016 
L 243.519927 132.008016 
L 245.155466 149.789759 
L 245.155466 149.789759 
L 245.973236 156.693461 
L 245.973236 156.693461 
L 247.19989 167.970424 
L 247.19989 167.970424 
L 247.608775 171.459865 
L 247.608775 171.459865 
L 248.01766 175.63587 
L 248.01766 175.63587 
L 248.630987 181.339668 
L 248.630987 181.339668 
L 249.039872 184.729897 
L 249.039872 184.729897 
L 249.448757 189.142767 
L 249.448757 189.142767 
L 250.062084 195.835551 
L 250.062084 195.835551 
L 250.470969 200.076262 
L 250.470969 200.076262 
L 251.084296 206.584498 
L 251.084296 206.584498 
L 254.968702 253.984489 
L 254.968702 253.984489 
L 256.604241 268.679328 
L 256.604241 268.679328 
L 256.808683 269.930646 
L 257.217568 273.328851 
L 257.217568 273.328851 
L 257.830895 277.507408 
L 257.830895 277.507408 
L 258.23978 280.373343 
L 258.23978 280.373343 
L 258.444223 281.245784 
L 258.444223 281.245784 
L 258.853107 283.808925 
L 258.853107 283.808925 
L 259.466435 286.837769 
L 259.466435 286.837769 
L 260.079762 290.066632 
L 260.079762 290.066632 
L 260.897531 292.688472 
L 260.897531 292.688472 
L 261.510859 294.021563 
L 261.510859 294.021563 
L 262.533071 294.953126 
L 262.533071 294.953126 
L 262.941956 295.138258 
L 262.941956 295.138258 
L 263.964168 295.36449 
L 263.964168 295.36449 
L 264.373052 295.294892 
L 264.373052 295.294892 
L 264.577495 295.340245 
L 264.577495 295.340245 
L 264.98638 295.185738 
L 264.98638 295.185738 
L 265.190822 295.167979 
L 265.190822 295.167979 
L 265.599707 294.849022 
L 265.599707 294.849022 
L 265.804149 294.759699 
L 265.804149 294.759699 
L 266.213034 294.180483 
L 266.213034 294.180483 
L 266.417477 293.948243 
L 266.417477 293.948243 
L 267.439689 291.168387 
L 267.439689 291.168387 
L 267.848573 289.381345 
L 267.848573 289.381345 
L 268.257458 286.77503 
L 268.257458 286.77503 
L 268.870785 281.886409 
L 268.870785 281.886409 
L 269.27967 277.101148 
L 269.27967 277.101148 
L 269.688555 272.321044 
L 269.688555 272.321044 
L 270.506325 260.104756 
L 270.506325 260.104756 
L 270.91521 255.13383 
L 270.91521 255.13383 
L 271.324094 252.589989 
L 271.324094 252.589989 
L 271.528537 252.512469 
L 271.528537 252.512469 
L 271.732979 252.222702 
L 271.732979 252.222702 
L 271.937422 252.487214 
L 271.937422 252.487214 
L 272.550749 258.627951 
L 272.550749 258.627951 
L 273.981846 271.657396 
L 273.981846 271.657396 
L 274.799615 275.62966 
L 274.799615 275.62966 
L 275.2085 276.700418 
L 275.2085 276.700418 
L 276.02627 277.720666 
L 276.02627 277.720666 
L 276.230712 277.689509 
L 276.230712 277.689509 
L 276.435155 277.852683 
L 276.435155 277.852683 
L 276.844039 277.824025 
L 276.844039 277.824025 
L 277.252924 277.995068 
L 277.252924 277.995068 
L 277.457367 277.903193 
L 277.457367 277.903193 
L 277.661809 278.041112 
L 277.661809 278.041112 
L 279.092906 277.577005 
L 279.092906 277.577005 
L 280.115118 275.891248 
L 280.115118 275.891248 
L 281.341772 270.855617 
L 281.341772 270.855617 
L 281.750657 268.749617 
L 281.750657 268.749617 
L 282.772869 260.816521 
L 282.772869 260.816521 
L 283.999524 247.725879 
L 283.999524 247.725879 
L 284.612851 239.611425 
L 284.612851 239.611425 
L 286.043948 213.812581 
L 286.043948 213.812581 
L 286.657275 200.743047 
L 286.657275 200.743047 
L 287.883929 168.594461 
L 287.883929 168.594461 
L 288.906142 144.172412 
L 288.906142 144.172412 
L 289.519469 134.12784 
L 289.519469 134.12784 
L 290.132796 127.557503 
L 290.132796 127.557503 
L 290.746123 123.363261 
L 290.746123 123.363261 
L 291.35945 120.541455 
L 291.35945 120.541455 
L 291.972778 118.544398 
L 291.972778 118.544398 
L 292.586105 116.959767 
L 292.586105 116.959767 
L 294.426087 113.445443 
L 294.426087 113.445443 
L 294.834971 112.196836 
L 294.834971 112.196836 
L 295.857183 106.668547 
L 295.857183 106.668547 
L 296.470511 101.380259 
L 296.470511 101.380259 
L 297.083838 93.867938 
L 297.083838 93.867938 
L 297.697165 86.673298 
L 297.697165 86.673298 
L 298.10605 84.713405 
L 298.10605 84.713405 
L 298.310492 84.705801 
L 299.537147 98.540163 
L 299.537147 98.540163 
L 300.354916 107.41636 
L 300.354916 107.41636 
L 300.968244 112.140584 
L 300.968244 112.140584 
L 301.786013 115.576857 
L 301.786013 115.576857 
L 302.603783 117.006289 
L 302.603783 117.006289 
L 303.012668 117.235392 
L 303.012668 117.235392 
L 303.625995 117.268303 
L 303.625995 117.268303 
L 303.830437 117.451149 
L 303.830437 117.451149 
L 305.057092 117.158032 
L 305.057092 117.158032 
L 305.874861 116.372097 
L 305.874861 116.372097 
L 306.692631 114.253177 
L 306.692631 114.253177 
L 307.101516 112.96177 
L 307.101516 112.96177 
L 308.123728 107.261161 
L 308.123728 107.261161 
L 308.532613 104.170164 
L 308.532613 104.170164 
L 310.168152 86.090838 
L 310.168152 86.090838 
L 311.190364 73.766033 
L 311.190364 73.766033 
L 312.008134 67.246738 
L 312.008134 67.246738 
L 312.825903 62.831688 
L 312.825903 62.831688 
L 313.643673 59.841657 
L 313.643673 59.841657 
L 314.461443 57.816739 
L 314.461443 57.816739 
L 315.279212 56.445367 
L 315.279212 56.445367 
L 316.096982 55.516621 
L 316.096982 55.516621 
L 316.914752 54.887693 
L 316.914752 54.887693 
L 317.936964 54.378765 
L 317.936964 54.378765 
L 319.163618 54.019878 
L 319.163618 54.019878 
L 320.18583 53.845592 
L 320.18583 53.845592 
L 320.799157 60.809588 
L 320.799157 60.809588 
L 321.208042 68.951848 
L 321.208042 68.951848 
L 321.616927 78.037475 
L 321.616927 78.037475 
L 322.025812 86.051174 
L 322.025812 86.051174 
L 322.434697 95.069756 
L 322.434697 95.069756 
L 322.843581 103.068196 
L 322.843581 103.068196 
L 323.252466 111.137988 
L 323.252466 111.137988 
L 325.910218 154.073323 
L 325.910218 154.073323 
L 326.319102 158.622464 
L 326.319102 158.622464 
L 326.727987 164.148095 
L 326.727987 164.148095 
L 327.545757 174.522577 
L 327.545757 174.522577 
L 330.203508 197.871475 
L 330.203508 197.871475 
L 332.04349 209.050873 
L 332.04349 209.050873 
L 332.247932 209.775346 
L 332.247932 209.775346 
L 332.861259 212.79983 
L 332.861259 212.79983 
L 333.065702 213.519038 
L 333.065702 213.519038 
L 333.679029 216.494129 
L 333.679029 216.494129 
L 333.883471 217.221951 
L 333.883471 217.221951 
L 334.496799 220.250688 
L 334.496799 220.250688 
L 334.701241 220.987815 
L 334.701241 220.987815 
L 335.314568 223.957907 
L 335.314568 223.957907 
L 335.927896 226.626057 
L 335.927896 226.626057 
L 336.541223 229.001248 
L 336.541223 229.001248 
L 337.15455 230.635485 
L 337.15455 230.635485 
L 338.381204 231.986653 
L 338.381204 231.986653 
L 338.585647 231.940078 
L 338.585647 231.940078 
L 338.994532 232.026636 
L 338.994532 232.026636 
L 339.607859 232.053273 
L 339.607859 232.053273 
L 340.221186 231.901743 
L 340.221186 231.901743 
L 340.630071 231.579862 
L 340.630071 231.579862 
L 341.243398 230.353639 
L 341.243398 230.353639 
L 341.447841 229.889107 
L 341.447841 229.889107 
L 342.26561 225.950978 
L 342.26561 225.950978 
L 343.08338 218.805093 
L 343.08338 218.805093 
L 344.718919 198.067028 
L 344.718919 198.067028 
L 345.127804 196.575389 
L 345.127804 196.575389 
L 345.536689 196.312791 
L 345.536689 196.312791 
L 346.150016 198.930802 
L 346.150016 198.930802 
L 346.558901 201.157866 
L 346.558901 201.157866 
L 347.172228 203.183688 
L 347.172228 203.183688 
L 347.581113 203.638916 
L 347.581113 203.638916 
L 348.807767 203.694956 
L 348.807767 203.694956 
L 349.216652 203.47319 
L 349.216652 203.47319 
L 349.829979 202.550931 
L 349.829979 202.550931 
L 350.647749 199.094242 
L 350.647749 199.094242 
L 351.465519 193.339455 
L 351.465519 193.339455 
L 352.283288 184.941082 
L 352.283288 184.941082 
L 352.896616 176.340989 
L 352.896616 176.340989 
L 354.327712 150.457979 
L 354.327712 150.457979 
L 355.963252 113.360692 
L 355.963252 113.360692 
L 356.985464 90.79624 
L 356.985464 90.79624 
L 357.803233 78.780131 
L 357.803233 78.780131 
L 358.621003 70.642497 
L 358.621003 70.642497 
L 359.029888 67.622266 
L 359.029888 67.622266 
L 359.23433 66.862277 
L 359.23433 66.862277 
L 359.438773 67.273907 
L 359.438773 67.273907 
L 360.869869 98.086105 
L 360.869869 98.086105 
L 361.892082 123.695564 
L 361.892082 123.695564 
L 362.914294 143.506584 
L 362.914294 143.506584 
L 363.323178 150.923947 
L 363.323178 150.923947 
L 364.140948 163.482533 
L 364.140948 163.482533 
L 364.958718 173.265623 
L 364.958718 173.265623 
L 365.367602 178.063857 
L 365.367602 178.063857 
L 365.98093 183.494158 
L 365.98093 183.494158 
L 367.003142 190.881321 
L 367.003142 190.881321 
L 368.434239 197.479305 
L 368.434239 197.479305 
L 369.865335 201.402494 
L 369.865335 201.402494 
L 370.478663 202.654291 
L 370.478663 202.654291 
L 371.705317 203.79252 
L 371.705317 203.79252 
L 372.318644 203.996314 
L 372.318644 203.996314 
L 373.340856 204.458454 
L 373.340856 204.458454 
L 373.954184 204.616523 
L 373.954184 204.616523 
L 376.407493 203.882002 
L 376.407493 203.882002 
L 376.611935 203.689001 
L 377.634147 201.653874 
L 377.634147 201.653874 
L 378.043032 200.445463 
L 378.043032 200.445463 
L 378.451917 198.959672 
L 378.451917 198.959672 
L 379.065244 196.105859 
L 379.065244 196.105859 
L 379.474129 193.24657 
L 379.474129 193.24657 
L 380.087456 188.368157 
L 380.087456 188.368157 
L 381.109668 177.864423 
L 381.109668 177.864423 
L 382.94965 149.068583 
L 382.94965 149.068583 
L 384.176304 123.901804 
L 384.176304 123.901804 
L 385.607401 91.437239 
L 385.607401 91.437239 
L 386.425171 79.214251 
L 386.425171 79.214251 
L 387.24294 70.936465 
L 387.24294 70.936465 
L 388.06071 65.330496 
L 388.06071 65.330496 
L 388.87848 61.533954 
L 388.87848 61.533954 
L 389.696249 58.962784 
L 389.696249 58.962784 
L 390.514019 57.221519 
L 390.514019 57.221519 
L 391.536231 55.838343 
L 391.536231 55.838343 
L 392.354 55.126365 
L 392.354 55.126365 
L 393.376213 54.525456 
L 393.376213 54.525456 
L 394.193982 54.286199 
L 394.193982 54.286199 
L 395.420637 54.015837 
L 395.420637 54.015837 
L 396.033964 54.293749 
L 396.033964 54.293749 
L 396.647291 54.552732 
L 396.647291 54.552732 
L 397.465061 54.267164 
L 397.465061 54.267164 
L 397.873946 54.298959 
L 397.873946 54.298959 
L 398.487273 54.49297 
L 398.487273 54.49297 
" clip-path="url(#p9315b8031a)" style="fill: none; stroke: #1f77b4; stroke-width: 1.5; stroke-linecap: square"/>
   </g>
   <g id="line2d_26">
    <path d="M 73.832727 53.568 
L 86.303714 53.568 
L 86.303714 53.568 
L 86.508157 55.772521 
L 86.508157 55.772521 
L 86.712599 56.333873 
L 86.712599 56.333873 
L 87.530369 68.02725 
L 87.530369 68.02725 
L 87.734811 67.92187 
L 87.734811 67.92187 
L 87.939253 69.99783 
L 87.939253 69.99783 
L 88.961466 88.14569 
L 88.961466 88.14569 
L 89.165908 95.292691 
L 89.165908 95.292691 
L 89.37035 96.325859 
L 89.37035 96.325859 
L 89.779235 108.995408 
L 89.779235 108.995408 
L 89.983678 119.395251 
L 89.983678 119.395251 
L 90.18812 118.659348 
L 90.18812 118.659348 
L 90.392562 123.462474 
L 90.392562 123.462474 
L 90.597005 133.287886 
L 90.597005 133.287886 
L 90.801447 133.262684 
L 91.210332 146.73465 
L 91.210332 146.73465 
L 91.414774 146.746453 
L 91.414774 146.746453 
L 91.619217 151.038737 
L 91.619217 151.038737 
L 91.823659 160.073163 
L 91.823659 160.073163 
L 92.028102 158.360716 
L 92.232544 163.222646 
L 92.232544 163.222646 
L 92.436986 171.283612 
L 92.436986 171.283612 
L 92.641429 168.493547 
L 92.641429 168.493547 
L 92.845871 175.127048 
L 92.845871 175.127048 
L 93.050314 174.945106 
L 93.050314 174.945106 
L 93.254756 179.428956 
L 93.254756 179.428956 
L 93.459199 180.914162 
L 93.459199 180.914162 
L 93.663641 183.284834 
L 93.663641 183.284834 
L 93.868083 188.651864 
L 93.868083 188.651864 
L 94.072526 187.684996 
L 94.072526 187.684996 
L 94.276968 191.513067 
L 94.276968 191.513067 
L 94.481411 191.614353 
L 94.481411 191.614353 
L 94.685853 194.117255 
L 94.685853 194.117255 
L 95.094738 196.484365 
L 95.094738 196.484365 
L 95.29918 198.195377 
L 95.29918 198.195377 
L 95.503623 198.767894 
L 95.503623 198.767894 
L 95.708065 201.05456 
L 95.708065 201.05456 
L 95.912507 200.769631 
L 95.912507 200.769631 
L 96.11695 202.209962 
L 96.11695 202.209962 
L 96.321392 202.275998 
L 96.321392 202.275998 
L 96.525835 203.060497 
L 96.525835 203.060497 
L 97.139162 203.9449 
L 97.139162 203.9449 
L 97.343604 204.433571 
L 97.343604 204.433571 
L 97.752489 204.1127 
L 97.752489 204.1127 
L 97.956932 204.393588 
L 97.956932 204.393588 
L 98.365816 203.962871 
L 98.365816 203.962871 
L 98.570259 204.225682 
L 98.570259 204.225682 
L 98.774701 203.957501 
L 98.774701 203.957501 
L 98.979144 204.242377 
L 98.979144 204.242377 
L 99.183586 203.830588 
L 99.388028 204.615566 
L 99.388028 204.615566 
L 99.592471 203.512216 
L 99.592471 203.512216 
L 99.796913 203.820486 
L 99.796913 203.820486 
L 100.001356 202.945653 
L 100.001356 202.945653 
L 100.205798 203.144503 
L 100.205798 203.144503 
L 100.614683 202.017706 
L 100.614683 202.017706 
L 101.22801 198.823136 
L 101.22801 198.823136 
L 101.432452 195.168235 
L 101.432452 195.168235 
L 101.636895 195.902596 
L 101.636895 195.902596 
L 101.841337 191.848135 
L 101.841337 191.848135 
L 102.04578 192.088456 
L 102.04578 192.088456 
L 102.250222 187.626033 
L 102.250222 187.626033 
L 102.454665 186.722489 
L 102.454665 186.722489 
L 102.659107 182.574291 
L 102.659107 182.574291 
L 102.863549 180.766832 
L 102.863549 180.766832 
L 103.067992 176.407077 
L 103.067992 176.407077 
L 103.272434 164.886178 
L 103.272434 164.886178 
L 103.476877 167.32246 
L 103.476877 167.32246 
L 103.681319 155.381425 
L 103.681319 155.381425 
L 103.885761 156.791344 
L 103.885761 156.791344 
L 104.090204 144.727968 
L 104.090204 144.727968 
L 104.294646 144.427886 
L 104.294646 144.427886 
L 104.499089 133.980351 
L 104.499089 133.980351 
L 104.703531 131.164446 
L 104.703531 131.164446 
L 105.112416 114.910338 
L 105.112416 114.910338 
L 105.316858 116.001726 
L 105.316858 116.001726 
L 105.521301 110.829824 
L 105.521301 110.829824 
L 105.725743 110.633792 
L 105.930185 110.153415 
L 105.930185 110.153415 
L 106.134628 112.495005 
L 106.134628 112.495005 
L 106.33907 112.851924 
L 106.33907 112.851924 
L 106.543513 113.456395 
L 106.543513 113.456395 
L 106.747955 112.852987 
L 106.747955 112.852987 
L 106.952398 113.642113 
L 106.952398 113.642113 
L 107.15684 113.55481 
L 107.361282 112.848946 
L 107.361282 112.848946 
L 107.565725 113.490689 
L 107.565725 113.490689 
L 107.97461 112.739792 
L 107.97461 112.739792 
L 108.179052 113.244041 
L 108.179052 113.244041 
L 108.383494 112.396537 
L 108.383494 112.396537 
L 108.587937 110.069144 
L 108.587937 110.069144 
L 108.792379 110.501084 
L 108.792379 110.501084 
L 108.996822 108.808149 
L 109.201264 105.314135 
L 109.201264 105.314135 
L 109.405706 105.529839 
L 109.405706 105.529839 
L 109.610149 103.502688 
L 109.610149 103.502688 
L 109.814591 96.271362 
L 109.814591 96.271362 
L 110.019034 95.919015 
L 110.019034 95.919015 
L 110.223476 91.669638 
L 110.223476 91.669638 
L 110.427918 83.036474 
L 110.427918 83.036474 
L 110.632361 81.739962 
L 110.632361 81.739962 
L 111.041246 65.135208 
L 111.041246 65.135208 
L 111.245688 54.074429 
L 111.245688 54.074429 
L 111.450131 55.082767 
L 111.450131 55.082767 
L 111.654573 53.568 
L 111.654573 53.568 
L 111.859015 56.951955 
L 112.063458 57.966408 
L 112.063458 57.966408 
L 112.472343 62.425694 
L 112.472343 62.425694 
L 112.676785 64.248785 
L 112.676785 64.248785 
L 113.290112 65.787319 
L 113.290112 65.787319 
L 113.494555 66.020303 
L 113.494555 66.020303 
L 113.698997 66.561451 
L 113.698997 66.561451 
L 113.903439 66.458038 
L 113.903439 66.458038 
L 114.107882 65.798378 
L 114.107882 65.798378 
L 114.312324 66.2233 
L 114.312324 66.2233 
L 114.516767 65.980692 
L 114.516767 65.980692 
L 114.721209 66.519235 
L 114.721209 66.519235 
L 115.130094 65.410727 
L 115.130094 65.410727 
L 115.334536 64.179081 
L 115.334536 64.179081 
L 115.538979 62.117318 
L 115.538979 62.117318 
L 115.743421 62.264966 
L 115.743421 62.264966 
L 116.152306 57.629108 
L 116.152306 57.629108 
L 116.356748 53.757386 
L 116.356748 53.757386 
L 116.561191 53.568 
L 116.561191 53.568 
L 131.281044 53.568 
L 131.281044 53.568 
L 131.485487 54.886789 
L 131.689929 59.891476 
L 131.689929 59.891476 
L 131.894371 60.1117 
L 131.894371 60.1117 
L 132.303256 67.682719 
L 132.303256 67.682719 
L 132.712141 77.612607 
L 132.712141 77.612607 
L 132.916583 77.747867 
L 132.916583 77.747867 
L 133.325468 84.785182 
L 133.325468 84.785182 
L 133.529911 90.236909 
L 133.529911 90.236909 
L 133.734353 90.180072 
L 133.734353 90.180072 
L 134.143238 97.485143 
L 134.143238 97.485143 
L 134.34768 101.485958 
L 134.34768 101.485958 
L 134.552123 101.293116 
L 134.552123 101.293116 
L 135.16545 109.667829 
L 135.16545 109.667829 
L 135.574335 115.222064 
L 135.574335 115.222064 
L 135.778777 119.502492 
L 135.778777 119.502492 
L 135.98322 119.060078 
L 135.98322 119.060078 
L 136.392104 124.639622 
L 136.392104 124.639622 
L 136.596547 124.91514 
L 136.596547 124.91514 
L 137.209874 130.911259 
L 137.209874 130.911259 
L 137.618759 135.794935 
L 137.618759 135.794935 
L 137.823201 136.175461 
L 137.823201 136.175461 
L 139.049856 142.959588 
L 139.049856 142.959588 
L 139.254298 143.711176 
L 139.254298 143.711176 
L 139.458741 144.965525 
L 139.458741 144.965525 
L 139.663183 145.085047 
L 139.663183 145.085047 
L 139.867625 145.666816 
L 139.867625 145.666816 
L 140.072068 145.71488 
L 140.072068 145.71488 
L 140.27651 146.480718 
L 140.27651 146.480718 
L 140.685395 147.24076 
L 140.685395 147.24076 
L 141.09428 147.279307 
L 141.09428 147.279307 
L 141.298722 147.628464 
L 141.298722 147.628464 
L 141.707607 147.334921 
L 141.707607 147.334921 
L 141.912049 147.685141 
L 141.912049 147.685141 
L 142.116492 147.478263 
L 142.116492 147.478263 
L 142.320934 147.839436 
L 142.320934 147.839436 
L 142.729819 147.400159 
L 142.729819 147.400159 
L 142.934262 147.75947 
L 142.934262 147.75947 
L 143.343146 147.162815 
L 143.343146 147.162815 
L 143.547589 147.549349 
L 143.547589 147.549349 
L 143.752031 147.151437 
L 143.752031 147.151437 
L 143.956474 147.455507 
L 143.956474 147.455507 
L 144.160916 147.042335 
L 144.160916 147.042335 
L 144.365358 146.358962 
L 144.365358 146.358962 
L 144.569801 146.707906 
L 144.569801 146.707906 
L 144.774243 146.107741 
L 144.774243 146.107741 
L 144.978686 145.08526 
L 144.978686 145.08526 
L 145.183128 145.579779 
L 145.183128 145.579779 
L 145.38757 144.68033 
L 145.38757 144.68033 
L 145.592013 144.814367 
L 145.592013 144.814367 
L 146.000898 142.704645 
L 146.000898 142.704645 
L 146.20534 142.997656 
L 146.20534 142.997656 
L 146.409782 141.974697 
L 146.409782 141.974697 
L 146.614225 139.910008 
L 146.614225 139.910008 
L 146.818667 140.659842 
L 146.818667 140.659842 
L 147.02311 139.108867 
L 147.02311 139.108867 
L 147.227552 138.930062 
L 147.227552 138.930062 
L 147.431995 137.638549 
L 147.431995 137.638549 
L 147.636437 135.229701 
L 147.636437 135.229701 
L 147.840879 134.816636 
L 147.840879 134.816636 
L 148.045322 133.912508 
L 148.045322 133.912508 
L 148.249764 130.211775 
L 148.249764 130.211775 
L 148.454207 130.681305 
L 148.454207 130.681305 
L 148.658649 128.815733 
L 148.658649 128.815733 
L 148.863091 123.699658 
L 148.863091 123.699658 
L 149.067534 125.798586 
L 149.067534 125.798586 
L 149.476419 117.41877 
L 149.476419 117.41877 
L 149.680861 118.986121 
L 149.680861 118.986121 
L 149.885303 114.368712 
L 149.885303 114.368712 
L 150.089746 113.6763 
L 150.089746 113.6763 
L 150.294188 111.279894 
L 150.294188 111.279894 
L 150.498631 104.445364 
L 150.498631 104.445364 
L 150.703073 103.915541 
L 150.703073 103.915541 
L 150.907515 100.947841 
L 150.907515 100.947841 
L 151.111958 94.916897 
L 151.111958 94.916897 
L 151.3164 93.190041 
L 151.3164 93.190041 
L 152.13417 74.694247 
L 152.13417 74.694247 
L 152.543055 56.970192 
L 152.543055 56.970192 
L 152.747497 58.18945 
L 152.747497 58.18945 
L 152.95194 53.568 
L 152.95194 53.568 
L 168.694005 53.568 
L 168.694005 53.568 
L 169.10289 54.595001 
L 169.10289 54.595001 
L 169.307332 56.072656 
L 169.307332 56.072656 
L 169.920659 62.626086 
L 169.920659 62.626086 
L 170.125102 63.492465 
L 170.125102 63.492465 
L 170.533987 66.657047 
L 170.533987 66.657047 
L 170.738429 69.610977 
L 170.738429 69.610977 
L 170.942872 70.321572 
L 170.942872 70.321572 
L 171.351756 73.878591 
L 171.351756 73.878591 
L 171.760641 80.984227 
L 171.760641 80.984227 
L 171.965084 80.422077 
L 171.965084 80.422077 
L 172.169526 82.48416 
L 172.169526 82.48416 
L 172.578411 90.180072 
L 172.578411 90.180072 
L 172.782853 90.044546 
L 172.782853 90.044546 
L 173.191738 96.668902 
L 173.191738 96.668902 
L 173.39618 101.385416 
L 173.39618 101.385416 
L 173.600623 101.129676 
L 173.600623 101.129676 
L 173.805065 103.919209 
L 173.805065 103.919209 
L 174.009508 109.112644 
L 174.009508 109.112644 
L 174.21395 108.97749 
L 174.21395 108.97749 
L 174.418392 111.623256 
L 174.418392 111.623256 
L 174.622835 116.634961 
L 174.622835 116.634961 
L 174.827277 118.06753 
L 174.827277 118.06753 
L 175.03172 120.618656 
L 175.03172 120.618656 
L 175.236162 124.873935 
L 175.236162 124.873935 
L 175.440605 131.485158 
L 175.440605 131.485158 
L 175.645047 129.935619 
L 175.645047 129.935619 
L 175.849489 134.110879 
L 175.849489 134.110879 
L 176.053932 141.490014 
L 176.053932 141.490014 
L 176.258374 139.818984 
L 176.258374 139.818984 
L 176.667259 151.360619 
L 176.667259 151.360619 
L 176.871701 149.386423 
L 176.871701 149.386423 
L 177.076144 155.471545 
L 177.076144 155.471545 
L 177.280586 156.622694 
L 177.280586 156.622694 
L 177.485029 160.139889 
L 177.485029 160.139889 
L 177.689471 167.165082 
L 177.689471 167.165082 
L 177.893913 166.094217 
L 177.893913 166.094217 
L 178.098356 171.745486 
L 178.098356 171.745486 
L 178.302798 173.28806 
L 178.302798 173.28806 
L 178.507241 176.262406 
L 178.507241 176.262406 
L 178.711683 184.701293 
L 178.711683 184.701293 
L 178.916125 183.530738 
L 178.916125 183.530738 
L 179.120568 189.402442 
L 179.120568 189.402442 
L 179.32501 189.847514 
L 179.32501 189.847514 
L 179.529453 193.798989 
L 179.529453 193.798989 
L 179.733895 195.2868 
L 179.733895 195.2868 
L 179.938338 198.987001 
L 179.938338 198.987001 
L 180.14278 206.83625 
L 180.14278 206.83625 
L 180.347222 204.254553 
L 180.347222 204.254553 
L 180.551665 211.781602 
L 180.551665 211.781602 
L 180.756107 209.915923 
L 180.756107 209.915923 
L 180.96055 216.403211 
L 180.96055 216.403211 
L 181.164992 215.187622 
L 181.164992 215.187622 
L 181.369434 221.026468 
L 181.369434 221.026468 
L 181.573877 220.710701 
L 181.573877 220.710701 
L 181.778319 226.341287 
L 181.778319 226.341287 
L 181.982762 225.291583 
L 181.982762 225.291583 
L 182.187204 231.747449 
L 182.187204 231.747449 
L 182.391646 230.891437 
L 182.391646 230.891437 
L 182.596089 236.627562 
L 182.596089 236.627562 
L 182.800531 235.459878 
L 182.800531 235.459878 
L 183.004974 242.144314 
L 183.004974 242.144314 
L 183.209416 239.899545 
L 183.209416 239.899545 
L 184.436071 254.973528 
L 184.436071 254.973528 
L 184.640513 254.986501 
L 184.640513 254.986501 
L 184.844955 259.861829 
L 184.844955 259.861829 
L 185.049398 259.577006 
L 185.049398 259.577006 
L 185.25384 264.924417 
L 185.25384 264.924417 
L 185.458283 262.722076 
L 185.458283 262.722076 
L 185.662725 264.571645 
L 185.867167 267.942042 
L 185.867167 267.942042 
L 186.07161 268.522322 
L 186.07161 268.522322 
L 186.276052 271.907288 
L 186.480495 271.252997 
L 186.480495 271.252997 
L 186.684937 276.235779 
L 186.684937 276.235779 
L 186.889379 275.084524 
L 186.889379 275.084524 
L 187.093822 276.049477 
L 187.093822 276.049477 
L 187.298264 279.132127 
L 187.298264 279.132127 
L 187.502707 279.009681 
L 187.502707 279.009681 
L 187.707149 281.941226 
L 187.707149 281.941226 
L 187.911591 281.668313 
L 187.911591 281.668313 
L 188.116034 281.993012 
L 188.116034 281.993012 
L 188.320476 284.705344 
L 188.320476 284.705344 
L 188.524919 284.628782 
L 188.524919 284.628782 
L 188.729361 287.121954 
L 188.729361 287.121954 
L 188.933804 286.487389 
L 189.138246 287.149282 
L 189.138246 287.149282 
L 189.342688 288.360884 
L 189.342688 288.360884 
L 189.547131 288.462382 
L 189.547131 288.462382 
L 189.751573 288.75635 
L 189.751573 288.75635 
L 189.956016 290.096725 
L 189.956016 290.096725 
L 190.160458 290.135538 
L 190.160458 290.135538 
L 190.3649 291.085019 
L 190.3649 291.085019 
L 190.773785 291.438802 
L 190.773785 291.438802 
L 190.978228 292.309222 
L 190.978228 292.309222 
L 191.18267 292.146473 
L 191.18267 292.146473 
L 191.591555 292.979781 
L 191.591555 292.979781 
L 191.795997 292.883706 
L 191.795997 292.883706 
L 192.204882 293.486529 
L 192.204882 293.486529 
L 192.409324 293.498386 
L 192.409324 293.498386 
L 192.613767 293.775818 
L 193.022652 293.898159 
L 193.022652 293.898159 
L 193.227094 293.758645 
L 193.227094 293.758645 
L 193.635979 294.096902 
L 193.635979 294.096902 
L 193.840421 293.910866 
L 193.840421 293.910866 
L 194.249306 294.155122 
L 194.249306 294.155122 
L 194.453749 293.97201 
L 194.453749 293.97201 
L 194.658191 294.091213 
L 194.862633 293.887312 
L 194.862633 293.887312 
L 195.271518 294.125347 
L 195.271518 294.125347 
L 195.475961 293.733922 
L 195.475961 293.733922 
L 195.680403 293.880401 
L 195.680403 293.880401 
L 196.089288 293.341486 
L 196.089288 293.341486 
L 196.29373 293.414486 
L 196.29373 293.414486 
L 196.498173 291.786948 
L 196.702615 292.521417 
L 196.702615 292.521417 
L 196.907057 292.061085 
L 196.907057 292.061085 
L 197.1115 290.869103 
L 197.1115 290.869103 
L 197.315942 291.259677 
L 197.315942 291.259677 
L 197.520385 290.800994 
L 197.520385 290.800994 
L 197.724827 288.981518 
L 197.92927 289.136664 
L 197.92927 289.136664 
L 198.133712 284.546477 
L 198.133712 284.546477 
L 198.338154 286.363879 
L 198.542597 285.978355 
L 198.542597 285.978355 
L 198.747039 281.571174 
L 198.747039 281.571174 
L 198.951482 282.718548 
L 198.951482 282.718548 
L 199.155924 281.529809 
L 199.155924 281.529809 
L 199.360366 277.398891 
L 199.360366 277.398891 
L 199.564809 277.808553 
L 199.564809 277.808553 
L 199.769251 275.696971 
L 199.769251 275.696971 
L 199.973694 271.924674 
L 199.973694 271.924674 
L 200.178136 270.483917 
L 200.178136 270.483917 
L 200.382578 263.62647 
L 200.382578 263.62647 
L 200.587021 265.08153 
L 200.587021 265.08153 
L 200.791463 261.56359 
L 200.995906 255.930452 
L 200.995906 255.930452 
L 201.200348 254.324927 
L 201.40479 243.958633 
L 201.40479 243.958633 
L 201.609233 246.176818 
L 201.609233 246.176818 
L 201.813675 241.403679 
L 201.813675 241.403679 
L 202.018118 233.447508 
L 202.018118 233.447508 
L 202.22256 231.309288 
L 202.22256 231.309288 
L 202.427003 216.913893 
L 202.427003 216.913893 
L 202.631445 219.764623 
L 202.631445 219.764623 
L 202.835887 208.52743 
L 202.835887 208.52743 
L 203.04033 209.600847 
L 203.04033 209.600847 
L 203.244772 209.037528 
L 203.244772 209.037528 
L 203.449215 215.124458 
L 203.449215 215.124458 
L 203.653657 216.299692 
L 203.653657 216.299692 
L 203.858099 224.694343 
L 203.858099 224.694343 
L 204.062542 223.713067 
L 204.062542 223.713067 
L 204.266984 231.003357 
L 204.266984 231.003357 
L 204.471427 229.776656 
L 204.471427 229.776656 
L 204.675869 236.205831 
L 204.675869 236.205831 
L 204.880311 234.683407 
L 204.880311 234.683407 
L 205.902523 243.064393 
L 205.902523 243.064393 
L 206.106966 244.707669 
L 206.311408 245.02099 
L 206.311408 245.02099 
L 206.515851 246.37689 
L 206.515851 246.37689 
L 206.720293 246.466426 
L 206.720293 246.466426 
L 206.924736 247.471309 
L 206.924736 247.471309 
L 207.129178 247.460622 
L 207.129178 247.460622 
L 207.33362 248.065678 
L 207.33362 248.065678 
L 207.538063 248.0694 
L 207.538063 248.0694 
L 207.946948 248.925517 
L 207.946948 248.925517 
L 208.355832 248.470289 
L 208.355832 248.470289 
L 208.560275 248.67839 
L 208.560275 248.67839 
L 208.764717 248.446842 
L 208.764717 248.446842 
L 208.96916 248.638993 
L 208.96916 248.638993 
L 209.173602 248.399629 
L 209.378044 248.592523 
L 209.378044 248.592523 
L 209.582487 248.288985 
L 209.582487 248.288985 
L 209.786929 248.487463 
L 209.786929 248.487463 
L 209.991372 247.99103 
L 210.195814 248.249322 
L 210.195814 248.249322 
L 210.400256 247.392779 
L 210.604699 247.813234 
L 210.809141 247.770487 
L 210.809141 247.770487 
L 211.013584 247.007095 
L 211.013584 247.007095 
L 211.218026 246.94861 
L 211.422469 245.76992 
L 211.422469 245.76992 
L 211.626911 245.841804 
L 211.626911 245.841804 
L 211.831353 244.138927 
L 211.831353 244.138927 
L 212.035796 244.440072 
L 212.035796 244.440072 
L 212.240238 242.098005 
L 212.240238 242.098005 
L 212.444681 242.738152 
L 212.444681 242.738152 
L 212.649123 239.635617 
L 212.649123 239.635617 
L 212.853565 240.599081 
L 213.058008 239.709415 
L 213.058008 239.709415 
L 213.26245 238.069595 
L 213.26245 238.069595 
L 213.466893 237.450822 
L 213.671335 234.887308 
L 213.671335 234.887308 
L 213.875777 234.663362 
L 213.875777 234.663362 
L 214.08022 231.409244 
L 214.08022 231.409244 
L 214.284662 231.545462 
L 214.284662 231.545462 
L 214.489105 227.499826 
L 214.489105 227.499826 
L 214.693547 227.957659 
L 214.693547 227.957659 
L 214.897989 223.062286 
L 214.897989 223.062286 
L 215.102432 224.258468 
L 215.102432 224.258468 
L 215.306874 217.739811 
L 215.306874 217.739811 
L 215.511317 219.298389 
L 215.511317 219.298389 
L 215.715759 212.406596 
L 215.715759 212.406596 
L 215.920202 215.091334 
L 215.920202 215.091334 
L 216.737971 203.769604 
L 216.737971 203.769604 
L 217.351298 195.452845 
L 217.351298 195.452845 
L 217.555741 189.790093 
L 217.555741 189.790093 
L 217.760183 188.113959 
L 217.760183 188.113959 
L 217.964626 182.834444 
L 217.964626 182.834444 
L 218.169068 180.480733 
L 218.169068 180.480733 
L 218.577953 172.278233 
L 218.577953 172.278233 
L 219.19128 157.509756 
L 219.19128 157.509756 
L 219.395722 145.292351 
L 219.395722 145.292351 
L 219.600165 147.591033 
L 219.600165 147.591033 
L 219.804607 135.500541 
L 219.804607 135.500541 
L 220.00905 135.945029 
L 220.00905 135.945029 
L 220.213492 125.077676 
L 220.213492 125.077676 
L 220.417935 122.906013 
L 220.417935 122.906013 
L 220.622377 115.426071 
L 220.622377 115.426071 
L 220.826819 100.309235 
L 220.826819 100.309235 
L 221.031262 102.305017 
L 221.031262 102.305017 
L 221.235704 90.607546 
L 221.235704 90.607546 
L 221.440147 88.080824 
L 221.440147 88.080824 
L 221.644589 80.765598 
L 221.644589 80.765598 
L 221.849031 67.217442 
L 221.849031 67.217442 
L 222.053474 65.799069 
L 222.053474 65.799069 
L 222.462359 53.568 
L 222.462359 53.568 
L 238.408866 53.568 
L 238.408866 53.568 
L 238.613309 59.281794 
L 238.613309 59.281794 
L 238.817751 60.315281 
L 238.817751 60.315281 
L 239.635521 83.257122 
L 239.635521 83.257122 
L 239.839963 82.621973 
L 239.839963 82.621973 
L 240.248848 93.034364 
L 240.248848 93.034364 
L 240.453291 98.383316 
L 240.453291 98.383316 
L 240.657733 98.099078 
L 240.657733 98.099078 
L 241.066618 107.192627 
L 241.066618 107.192627 
L 241.27106 113.196987 
L 241.27106 113.196987 
L 241.475503 111.762716 
L 241.475503 111.762716 
L 241.884387 120.907254 
L 242.08883 120.804958 
L 243.111042 135.479433 
L 243.111042 135.479433 
L 243.315484 136.054875 
L 243.315484 136.054875 
L 243.724369 141.930195 
L 243.724369 141.930195 
L 243.928812 142.380371 
L 243.928812 142.380371 
L 244.133254 144.787304 
L 244.133254 144.787304 
L 244.337696 148.648233 
L 244.337696 148.648233 
L 244.542139 148.728783 
L 244.542139 148.728783 
L 244.746581 150.879764 
L 244.746581 150.879764 
L 244.951024 154.643767 
L 244.951024 154.643767 
L 245.155466 154.256595 
L 245.155466 154.256595 
L 245.359908 156.949148 
L 245.359908 156.949148 
L 245.564351 157.831158 
L 245.564351 157.831158 
L 245.973236 162.565431 
L 245.973236 162.565431 
L 246.177678 162.828987 
L 246.177678 162.828987 
L 246.38212 164.820941 
L 246.38212 164.820941 
L 246.586563 169.477056 
L 246.586563 169.477056 
L 246.791005 168.534008 
L 246.791005 168.534008 
L 246.995448 172.052852 
L 246.995448 172.052852 
L 247.19989 172.415992 
L 247.19989 172.415992 
L 247.404332 175.192286 
L 247.404332 175.192286 
L 247.608775 179.527424 
L 247.608775 179.527424 
L 247.813217 178.301042 
L 247.813217 178.301042 
L 248.01766 182.278516 
L 248.01766 182.278516 
L 248.222102 182.094606 
L 248.222102 182.094606 
L 248.426545 185.11372 
L 248.426545 185.11372 
L 248.630987 186.033799 
L 248.630987 186.033799 
L 248.835429 188.11029 
L 248.835429 188.11029 
L 249.039872 193.463124 
L 249.039872 193.463124 
L 249.244314 191.822561 
L 249.244314 191.822561 
L 249.448757 196.91992 
L 249.653199 196.083263 
L 249.653199 196.083263 
L 249.857641 200.690038 
L 249.857641 200.690038 
L 250.062084 200.70216 
L 250.062084 200.70216 
L 250.266526 204.963819 
L 250.266526 204.963819 
L 250.470969 205.672873 
L 250.470969 205.672873 
L 250.675411 209.811394 
L 250.675411 209.811394 
L 250.879853 210.192345 
L 250.879853 210.192345 
L 251.084296 213.96124 
L 251.084296 213.96124 
L 251.288738 215.432675 
L 251.288738 215.432675 
L 251.902065 224.274578 
L 251.902065 224.274578 
L 252.106508 226.429653 
L 252.106508 226.429653 
L 252.31095 230.007353 
L 252.31095 230.007353 
L 252.515393 231.174293 
L 252.515393 231.174293 
L 252.719835 235.359443 
L 252.719835 235.359443 
L 252.924278 236.546162 
L 252.924278 236.546162 
L 253.12872 240.809416 
L 253.12872 240.809416 
L 253.333162 241.953918 
L 253.333162 241.953918 
L 253.537605 246.150818 
L 253.537605 246.150818 
L 253.742047 246.40491 
L 253.742047 246.40491 
L 253.94649 251.591859 
L 253.94649 251.591859 
L 254.150932 250.72649 
L 254.150932 250.72649 
L 254.355374 256.750681 
L 254.355374 256.750681 
L 254.559817 255.105013 
L 254.559817 255.105013 
L 254.968702 259.560737 
L 254.968702 259.560737 
L 255.173144 260.809875 
L 255.173144 260.809875 
L 255.377586 264.693028 
L 255.377586 264.693028 
L 255.582029 264.717167 
L 255.582029 264.717167 
L 255.786471 269.187246 
L 255.786471 269.187246 
L 255.990914 268.167264 
L 255.990914 268.167264 
L 256.195356 269.464519 
L 256.399798 272.019101 
L 256.399798 272.019101 
L 256.604241 272.314557 
L 256.604241 272.314557 
L 256.808683 276.470039 
L 256.808683 276.470039 
L 257.013126 275.514231 
L 257.013126 275.514231 
L 257.217568 276.790857 
L 257.217568 276.790857 
L 257.422011 279.704485 
L 257.422011 279.704485 
L 257.626453 279.798221 
L 257.626453 279.798221 
L 257.830895 282.734924 
L 257.830895 282.734924 
L 258.035338 282.405067 
L 258.035338 282.405067 
L 258.23978 282.907934 
L 258.23978 282.907934 
L 258.444223 285.894562 
L 258.444223 285.894562 
L 258.648665 285.643394 
L 258.648665 285.643394 
L 258.853107 286.481434 
L 258.853107 286.481434 
L 259.466435 290.291375 
L 259.466435 290.291375 
L 259.670877 290.554399 
L 259.875319 292.295345 
L 259.875319 292.295345 
L 260.079762 292.122494 
L 260.079762 292.122494 
L 260.284204 292.380042 
L 260.284204 292.380042 
L 260.488647 293.776403 
L 260.488647 293.776403 
L 260.693089 293.675809 
L 260.693089 293.675809 
L 261.101974 294.588019 
L 261.101974 294.588019 
L 261.306416 294.68202 
L 261.306416 294.68202 
L 261.510859 294.642676 
L 261.510859 294.642676 
L 261.715301 295.089716 
L 261.715301 295.089716 
L 261.919744 295.220776 
L 261.919744 295.220776 
L 262.124186 294.812655 
L 262.124186 294.812655 
L 262.328628 295.277241 
L 262.328628 295.277241 
L 262.533071 295.413192 
L 262.533071 295.413192 
L 262.737513 295.1893 
L 262.737513 295.1893 
L 263.146398 295.45041 
L 263.146398 295.45041 
L 263.35084 295.174838 
L 263.35084 295.174838 
L 263.759725 295.488 
L 263.759725 295.488 
L 263.964168 294.628958 
L 263.964168 294.628958 
L 264.16861 295.282132 
L 264.16861 295.282132 
L 264.373052 295.426591 
L 264.373052 295.426591 
L 264.577495 294.027145 
L 264.577495 294.027145 
L 264.781937 294.867578 
L 264.781937 294.867578 
L 264.98638 294.994544 
L 264.98638 294.994544 
L 265.190822 292.816926 
L 265.190822 292.816926 
L 265.395264 293.865194 
L 265.395264 293.865194 
L 265.599707 293.88694 
L 265.599707 293.88694 
L 265.804149 290.882235 
L 265.804149 290.882235 
L 266.008592 292.038169 
L 266.008592 292.038169 
L 266.213034 291.678538 
L 266.213034 291.678538 
L 266.417477 288.215521 
L 266.417477 288.215521 
L 266.621919 289.342425 
L 266.621919 289.342425 
L 266.826361 288.343445 
L 266.826361 288.343445 
L 267.030804 284.134475 
L 267.030804 284.134475 
L 267.235246 284.841296 
L 267.235246 284.841296 
L 267.848573 278.075831 
L 267.848573 278.075831 
L 268.053016 271.563607 
L 268.053016 271.563607 
L 268.257458 271.905001 
L 268.257458 271.905001 
L 268.870785 260.696945 
L 268.870785 260.696945 
L 269.075228 249.564814 
L 269.075228 249.564814 
L 269.27967 252.680535 
L 269.27967 252.680535 
L 269.484113 247.766393 
L 269.484113 247.766393 
L 269.688555 236.051057 
L 269.688555 236.051057 
L 269.892997 238.446931 
L 269.892997 238.446931 
L 270.09744 233.235632 
L 270.09744 233.235632 
L 270.301882 231.145689 
L 270.301882 231.145689 
L 270.506325 230.468058 
L 270.506325 230.468058 
L 270.710767 233.446604 
L 270.710767 233.446604 
L 270.91521 240.30203 
L 270.91521 240.30203 
L 271.119652 241.187868 
L 271.119652 241.187868 
L 271.324094 251.755298 
L 271.324094 251.755298 
L 271.528537 249.391006 
L 271.528537 249.391006 
L 272.346306 263.778798 
L 272.346306 263.778798 
L 272.550749 264.339246 
L 272.550749 264.339246 
L 272.755191 267.998454 
L 272.755191 267.998454 
L 272.959634 268.407372 
L 273.164076 271.917921 
L 273.164076 271.917921 
L 273.368518 271.751079 
L 273.368518 271.751079 
L 274.186288 276.699939 
L 274.186288 276.699939 
L 274.39073 276.563881 
L 274.39073 276.563881 
L 275.004058 277.65293 
L 275.004058 277.65293 
L 275.2085 277.529685 
L 275.2085 277.529685 
L 275.617385 278.105233 
L 275.617385 278.105233 
L 275.821827 278.052969 
L 275.821827 278.052969 
L 276.02627 277.38528 
L 276.02627 277.38528 
L 276.230712 278.163559 
L 276.230712 278.163559 
L 276.435155 277.698654 
L 276.435155 277.698654 
L 276.639597 277.683501 
L 276.639597 277.683501 
L 276.844039 278.214973 
L 276.844039 278.214973 
L 277.048482 278.064506 
L 277.048482 278.064506 
L 277.252924 277.005551 
L 277.252924 277.005551 
L 277.457367 278.303817 
L 277.457367 278.303817 
L 277.661809 277.377677 
L 277.661809 277.377677 
L 277.866251 277.067865 
L 277.866251 277.067865 
L 278.070694 278.064187 
L 278.070694 278.064187 
L 278.479579 276.385661 
L 278.479579 276.385661 
L 278.684021 277.063186 
L 278.684021 277.063186 
L 278.888463 276.462224 
L 278.888463 276.462224 
L 279.092906 273.992073 
L 279.092906 273.992073 
L 279.297348 274.649873 
L 279.297348 274.649873 
L 279.501791 273.815767 
L 279.501791 273.815767 
L 279.706233 272.021759 
L 279.706233 272.021759 
L 279.910676 272.166749 
L 279.910676 272.166749 
L 280.115118 267.533231 
L 280.115118 267.533231 
L 280.31956 269.461967 
L 280.31956 269.461967 
L 280.524003 268.027431 
L 280.524003 268.027431 
L 280.728445 263.77598 
L 280.728445 263.77598 
L 280.932888 264.098446 
L 280.932888 264.098446 
L 281.13733 257.678629 
L 281.13733 257.678629 
L 281.341772 260.176799 
L 281.341772 260.176799 
L 281.546215 257.858604 
L 281.546215 257.858604 
L 281.750657 252.734235 
L 281.9551 252.575952 
L 281.9551 252.575952 
L 282.159542 245.032474 
L 282.159542 245.032474 
L 282.363984 247.741457 
L 282.363984 247.741457 
L 282.568427 244.795769 
L 282.568427 244.795769 
L 282.772869 239.175657 
L 282.772869 239.175657 
L 282.977312 238.69778 
L 282.977312 238.69778 
L 283.181754 230.313178 
L 283.181754 230.313178 
L 283.386196 232.298698 
L 283.386196 232.298698 
L 283.590639 229.067071 
L 283.795081 223.129969 
L 283.795081 223.129969 
L 283.999524 221.490362 
L 283.999524 221.490362 
L 284.203966 213.385958 
L 284.203966 213.385958 
L 284.408409 213.064608 
L 284.408409 213.064608 
L 284.612851 202.594636 
L 284.612851 202.594636 
L 284.817293 203.955534 
L 284.817293 203.955534 
L 285.021736 189.508566 
L 285.021736 189.508566 
L 285.226178 193.926487 
L 285.226178 193.926487 
L 285.430621 177.401007 
L 285.430621 177.401007 
L 285.635063 181.875712 
L 285.635063 181.875712 
L 286.452833 155.984354 
L 286.452833 155.984354 
L 286.657275 138.299272 
L 286.657275 138.299272 
L 286.861717 141.769148 
L 286.861717 141.769148 
L 287.06616 128.582164 
L 287.06616 128.582164 
L 287.270602 129.66882 
L 287.270602 129.66882 
L 287.475045 119.042692 
L 287.475045 119.042692 
L 287.679487 119.238086 
L 287.679487 119.238086 
L 287.883929 112.522386 
L 287.883929 112.522386 
L 288.292814 106.221135 
L 288.292814 106.221135 
L 288.497257 100.215499 
L 288.497257 100.215499 
L 288.701699 100.63654 
L 288.701699 100.63654 
L 288.906142 102.336493 
L 288.906142 102.336493 
L 289.110584 105.297493 
L 289.110584 105.297493 
L 289.315026 105.673606 
L 289.315026 105.673606 
L 289.519469 107.233939 
L 289.519469 107.233939 
L 289.723911 107.85367 
L 289.723911 107.85367 
L 290.132796 110.06707 
L 290.132796 110.06707 
L 290.541681 111.766332 
L 290.541681 111.766332 
L 290.746123 111.619853 
L 290.746123 111.619853 
L 291.155008 112.798277 
L 291.155008 112.798277 
L 291.35945 112.174931 
L 291.35945 112.174931 
L 291.768335 113.086556 
L 291.768335 113.086556 
L 291.972778 112.323483 
L 291.972778 112.323483 
L 292.17722 112.147124 
L 292.17722 112.147124 
L 292.381662 112.398451 
L 292.381662 112.398451 
L 292.586105 112.976338 
L 292.586105 112.976338 
L 292.790547 111.97523 
L 292.790547 111.97523 
L 293.199432 112.594376 
L 293.199432 112.594376 
L 293.403875 111.027929 
L 293.403875 111.027929 
L 293.608317 111.462368 
L 293.608317 111.462368 
L 293.812759 111.224386 
L 293.812759 111.224386 
L 294.017202 108.933945 
L 294.017202 108.933945 
L 294.221644 108.794006 
L 294.221644 108.794006 
L 294.426087 107.688263 
L 294.426087 107.688263 
L 294.630529 105.21891 
L 294.630529 105.21891 
L 294.834971 101.21565 
L 294.834971 101.21565 
L 295.039414 102.607651 
L 295.039414 102.607651 
L 295.243856 99.43201 
L 295.448299 93.692854 
L 295.448299 93.692854 
L 295.652741 94.53568 
L 295.652741 94.53568 
L 295.857183 90.527049 
L 295.857183 90.527049 
L 296.061626 83.835488 
L 296.061626 83.835488 
L 296.266068 83.703365 
L 296.266068 83.703365 
L 296.470511 78.504453 
L 296.470511 78.504453 
L 296.674953 70.221456 
L 296.674953 70.221456 
L 296.879395 67.553892 
L 296.879395 67.553892 
L 297.083838 62.591101 
L 297.083838 62.591101 
L 297.28828 61.555647 
L 297.28828 61.555647 
L 297.492723 71.423753 
L 297.492723 71.423753 
L 297.697165 72.312941 
L 297.697165 72.312941 
L 298.310492 90.877641 
L 298.310492 90.877641 
L 298.514935 91.228606 
L 298.514935 91.228606 
L 298.92382 99.341198 
L 298.92382 99.341198 
L 299.128262 100.392071 
L 299.128262 100.392071 
L 299.741589 109.052458 
L 299.741589 109.052458 
L 299.946032 109.351051 
L 299.946032 109.351051 
L 300.354916 112.551097 
L 300.354916 112.551097 
L 300.559359 114.694368 
L 300.559359 114.694368 
L 300.763801 114.159707 
L 300.763801 114.159707 
L 301.581571 117.046272 
L 301.581571 117.046272 
L 301.786013 116.734227 
L 301.786013 116.734227 
L 301.990456 117.192325 
L 301.990456 117.192325 
L 302.194898 117.144474 
L 302.194898 117.144474 
L 302.399341 117.680358 
L 302.399341 117.680358 
L 303.21711 116.970028 
L 303.21711 116.970028 
L 303.625995 117.799508 
L 303.625995 117.799508 
L 303.830437 116.911224 
L 303.830437 116.911224 
L 304.03488 117.3337 
L 304.03488 117.3337 
L 304.239322 117.03516 
L 304.239322 117.03516 
L 304.443765 116.499222 
L 304.443765 116.499222 
L 304.648207 116.862362 
L 304.648207 116.862362 
L 304.852649 116.333231 
L 304.852649 116.333231 
L 305.057092 115.227594 
L 305.057092 115.227594 
L 305.261534 115.603548 
L 305.261534 115.603548 
L 305.670419 113.794015 
L 305.670419 113.794015 
L 305.874861 111.18015 
L 305.874861 111.18015 
L 306.079304 111.757187 
L 306.079304 111.757187 
L 306.283746 110.00784 
L 306.283746 110.00784 
L 306.488189 106.995373 
L 306.488189 106.995373 
L 306.692631 107.67412 
L 306.692631 107.67412 
L 306.897074 106.311308 
L 306.897074 106.311308 
L 307.101516 101.598887 
L 307.101516 101.598887 
L 307.305958 101.985687 
L 307.305958 101.985687 
L 307.714843 95.205389 
L 307.714843 95.205389 
L 307.919286 94.95034 
L 307.919286 94.95034 
L 308.123728 92.133851 
L 308.123728 92.133851 
L 308.532613 81.157449 
L 308.532613 81.157449 
L 308.737055 83.071192 
L 308.737055 83.071192 
L 308.941498 78.822772 
L 308.941498 78.822772 
L 309.14594 71.754407 
L 309.14594 71.754407 
L 309.350382 72.296406 
L 309.350382 72.296406 
L 309.554825 69.164309 
L 309.554825 69.164309 
L 309.759267 62.510391 
L 309.759267 62.510391 
L 309.96371 60.74536 
L 309.96371 60.74536 
L 310.372594 53.568 
L 310.372594 53.568 
L 319.981388 53.568 
L 319.981388 53.568 
L 320.18583 59.724102 
L 320.18583 59.724102 
L 320.390272 60.969837 
L 320.390272 60.969837 
L 321.208042 85.339515 
L 321.208042 85.339515 
L 321.412485 84.599677 
L 321.412485 84.599677 
L 321.821369 94.463424 
L 321.821369 94.463424 
L 322.025812 102.221755 
L 322.025812 102.221755 
L 322.230254 101.64658 
L 322.230254 101.64658 
L 322.639139 111.403192 
L 322.639139 111.403192 
L 322.843581 118.044296 
L 322.843581 118.044296 
L 323.048024 116.690575 
L 323.048024 116.690575 
L 323.252466 121.080849 
L 323.252466 121.080849 
L 323.456909 128.126086 
L 323.456909 128.126086 
L 323.661351 127.163259 
L 323.661351 127.163259 
L 323.865793 130.809122 
L 323.865793 130.809122 
L 324.070236 138.135939 
L 324.070236 138.135939 
L 324.274678 137.352875 
L 324.274678 137.352875 
L 324.683563 147.659301 
L 324.683563 147.659301 
L 324.888005 146.873685 
L 324.888005 146.873685 
L 325.29689 156.213457 
L 325.29689 156.213457 
L 325.501333 154.924708 
L 325.705775 159.907171 
L 325.705775 159.907171 
L 325.910218 160.438749 
L 325.910218 160.438749 
L 326.11466 163.114608 
L 326.319102 168.857219 
L 326.319102 168.857219 
L 326.523545 167.963246 
L 326.523545 167.963246 
L 326.727987 172.349053 
L 326.727987 172.349053 
L 326.93243 173.178214 
L 326.93243 173.178214 
L 327.136872 175.793833 
L 327.341314 180.453723 
L 327.341314 180.453723 
L 327.545757 179.895934 
L 327.545757 179.895934 
L 327.750199 183.699069 
L 327.750199 183.699069 
L 327.954642 183.903926 
L 327.954642 183.903926 
L 328.159084 186.468982 
L 328.159084 186.468982 
L 328.363526 187.175484 
L 328.363526 187.175484 
L 328.567969 189.293447 
L 328.567969 189.293447 
L 328.772411 192.977697 
L 328.772411 192.977697 
L 328.976854 192.662089 
L 328.976854 192.662089 
L 329.181296 195.945929 
L 329.181296 195.945929 
L 329.385738 195.827097 
L 329.385738 195.827097 
L 329.590181 198.310221 
L 329.590181 198.310221 
L 329.794623 198.781505 
L 329.794623 198.781505 
L 329.999066 200.845768 
L 329.999066 200.845768 
L 330.203508 201.638243 
L 330.203508 201.638243 
L 330.407951 203.541033 
L 330.407951 203.541033 
L 330.612393 204.030182 
L 330.612393 204.030182 
L 330.816835 204.941169 
L 330.816835 204.941169 
L 331.021278 207.858625 
L 331.021278 207.858625 
L 331.22572 207.114108 
L 331.22572 207.114108 
L 331.430163 209.604463 
L 331.430163 209.604463 
L 331.634605 209.743711 
L 331.634605 209.743711 
L 331.839047 211.292187 
L 331.839047 211.292187 
L 332.04349 211.155438 
L 332.04349 211.155438 
L 332.247932 213.221136 
L 332.247932 213.221136 
L 332.452375 213.328323 
L 332.656817 214.749887 
L 332.656817 214.749887 
L 332.861259 214.889294 
L 332.861259 214.889294 
L 333.065702 216.938085 
L 333.065702 216.938085 
L 333.270144 217.15783 
L 333.270144 217.15783 
L 333.474587 218.305363 
L 333.474587 218.305363 
L 333.679029 218.608582 
L 333.679029 218.608582 
L 333.883471 220.549973 
L 333.883471 220.549973 
L 334.087914 220.897163 
L 334.087914 220.897163 
L 334.292356 222.179425 
L 334.292356 222.179425 
L 334.496799 222.392151 
L 334.496799 222.392151 
L 334.701241 224.440357 
L 334.701241 224.440357 
L 334.905684 224.675415 
L 334.905684 224.675415 
L 335.110126 225.713208 
L 335.110126 225.713208 
L 335.314568 226.176092 
L 335.314568 226.176092 
L 335.519011 227.814902 
L 335.723453 228.22584 
L 335.927896 229.256935 
L 335.927896 229.256935 
L 336.132338 229.608378 
L 336.132338 229.608378 
L 336.33678 230.439028 
L 336.33678 230.439028 
L 336.541223 230.708219 
L 336.541223 230.708219 
L 336.745665 231.297644 
L 336.745665 231.297644 
L 336.950108 231.508935 
L 336.950108 231.508935 
L 337.15455 231.363679 
L 337.15455 231.363679 
L 337.358992 231.99835 
L 337.358992 231.99835 
L 337.563435 232.019086 
L 337.563435 232.019086 
L 337.767877 232.20374 
L 337.767877 232.20374 
L 337.97232 232.034186 
L 337.97232 232.034186 
L 338.176762 232.238512 
L 338.176762 232.238512 
L 338.381204 231.485063 
L 338.381204 231.485063 
L 338.585647 232.227187 
L 338.585647 232.227187 
L 338.790089 231.906954 
L 338.790089 231.906954 
L 338.994532 232.123083 
L 338.994532 232.123083 
L 339.198974 231.870002 
L 339.198974 231.870002 
L 339.403417 232.074381 
L 339.403417 232.074381 
L 340.016744 231.15276 
L 340.016744 231.15276 
L 340.221186 230.020965 
L 340.221186 230.020965 
L 340.425629 230.140859 
L 340.425629 230.140859 
L 340.630071 227.720103 
L 340.630071 227.720103 
L 340.834513 228.046556 
L 340.834513 228.046556 
L 341.038956 224.753625 
L 341.243398 225.349696 
L 341.243398 225.349696 
L 341.447841 219.963579 
L 341.447841 219.963579 
L 341.652283 221.384717 
L 341.652283 221.384717 
L 341.856725 214.180932 
L 341.856725 214.180932 
L 342.061168 216.12849 
L 342.061168 216.12849 
L 342.26561 207.916632 
L 342.26561 207.916632 
L 342.470053 209.112921 
L 342.470053 209.112921 
L 342.674495 199.471471 
L 342.674495 199.471471 
L 342.878937 200.321634 
L 342.878937 200.321634 
L 343.08338 189.322104 
L 343.08338 189.322104 
L 343.287822 189.74777 
L 343.287822 189.74777 
L 343.492265 178.395256 
L 343.492265 178.395256 
L 343.696707 178.397117 
L 343.696707 178.397117 
L 343.90115 173.549595 
L 343.90115 173.549595 
L 344.105592 174.124027 
L 344.105592 174.124027 
L 344.310034 181.995872 
L 344.310034 181.995872 
L 344.514477 182.667496 
L 344.514477 182.667496 
L 344.718919 189.194075 
L 344.718919 189.194075 
L 344.923362 190.049076 
L 344.923362 190.049076 
L 345.127804 194.495016 
L 345.127804 194.495016 
L 345.332246 195.634043 
L 345.332246 195.634043 
L 345.536689 198.490515 
L 345.536689 198.490515 
L 345.945574 200.811581 
L 345.945574 200.811581 
L 346.150016 202.912689 
L 346.150016 202.912689 
L 346.354458 202.789498 
L 346.354458 202.789498 
L 346.558901 203.518649 
L 346.558901 203.518649 
L 346.763343 203.790127 
L 346.763343 203.790127 
L 346.967786 204.301554 
L 346.967786 204.301554 
L 347.581113 203.678473 
L 347.581113 203.678473 
L 347.785555 203.950855 
L 347.785555 203.950855 
L 347.989998 203.585003 
L 347.989998 203.585003 
L 348.19444 203.876632 
L 348.19444 203.876632 
L 348.398883 203.164495 
L 348.398883 203.164495 
L 348.603325 203.36377 
L 348.603325 203.36377 
L 349.01221 202.156316 
L 349.01221 202.156316 
L 349.421095 200.089182 
L 349.421095 200.089182 
L 349.625537 198.833876 
L 349.625537 198.833876 
L 349.829979 193.301865 
L 349.829979 193.301865 
L 350.034422 195.246764 
L 350.034422 195.246764 
L 350.238864 189.321945 
L 350.238864 189.321945 
L 350.443307 190.234421 
L 350.443307 190.234421 
L 350.647749 184.33677 
L 350.647749 184.33677 
L 350.852191 184.66014 
L 350.852191 184.66014 
L 351.056634 178.917582 
L 351.056634 178.917582 
L 351.261076 178.306146 
L 351.261076 178.306146 
L 351.465519 172.269832 
L 351.465519 172.269832 
L 351.669961 170.922013 
L 351.669961 170.922013 
L 352.078846 162.254503 
L 352.078846 162.254503 
L 352.283288 158.28208 
L 352.283288 158.28208 
L 352.487731 146.191641 
L 352.487731 146.191641 
L 352.692173 149.397642 
L 352.692173 149.397642 
L 352.896616 138.219573 
L 352.896616 138.219573 
L 353.101058 138.252271 
L 353.101058 138.252271 
L 353.3055 131.107609 
L 353.3055 131.107609 
L 353.509943 128.098119 
L 353.509943 128.098119 
L 353.714385 123.193016 
L 353.714385 123.193016 
L 353.918828 111.011713 
L 353.918828 111.011713 
L 354.12327 111.842841 
L 354.12327 111.842841 
L 354.327712 103.383857 
L 354.327712 103.383857 
L 354.532155 101.094479 
L 354.532155 101.094479 
L 354.736597 94.8322 
L 354.736597 94.8322 
L 354.94104 84.633386 
L 354.94104 84.633386 
L 355.145482 83.627653 
L 355.145482 83.627653 
L 355.349924 77.306197 
L 355.349924 77.306197 
L 355.554367 67.489186 
L 355.554367 67.489186 
L 355.758809 66.291568 
L 355.758809 66.291568 
L 355.963252 61.426447 
L 355.963252 61.426447 
L 356.167694 53.568 
L 356.167694 53.568 
L 358.825445 53.599848 
L 358.825445 53.599848 
L 359.23433 68.058141 
L 359.23433 68.058141 
L 359.438773 79.54028 
L 359.438773 79.54028 
L 359.643215 79.765607 
L 359.643215 79.765607 
L 360.0521 91.876569 
L 360.0521 91.876569 
L 360.256542 101.213789 
L 360.256542 101.213789 
L 360.460985 101.491487 
L 360.460985 101.491487 
L 360.869869 114.156942 
L 360.869869 114.156942 
L 361.074312 122.747571 
L 361.074312 122.747571 
L 361.278754 120.821334 
L 361.278754 120.821334 
L 361.483197 125.929221 
L 361.483197 125.929221 
L 361.687639 134.520914 
L 361.687639 134.520914 
L 361.892082 134.408569 
L 361.892082 134.408569 
L 362.096524 138.746525 
L 362.096524 138.746525 
L 362.300966 147.005862 
L 362.300966 147.005862 
L 362.505409 146.010815 
L 362.709851 150.364296 
L 362.709851 150.364296 
L 362.914294 157.387202 
L 362.914294 157.387202 
L 363.118736 155.951975 
L 363.118736 155.951975 
L 363.323178 160.664077 
L 363.323178 160.664077 
L 363.732063 164.585405 
L 363.732063 164.585405 
L 363.936506 170.702162 
L 363.936506 170.702162 
L 364.140948 170.129113 
L 364.140948 170.129113 
L 364.34539 174.122804 
L 364.34539 174.122804 
L 364.549833 175.192711 
L 364.549833 175.192711 
L 364.754275 177.773877 
L 364.754275 177.773877 
L 364.958718 181.865769 
L 364.958718 181.865769 
L 365.16316 181.565155 
L 365.16316 181.565155 
L 365.367602 184.184709 
L 365.367602 184.184709 
L 365.572045 184.503772 
L 365.572045 184.503772 
L 365.776487 186.983971 
L 365.776487 186.983971 
L 366.185372 189.19147 
L 366.185372 189.19147 
L 366.389815 191.549169 
L 366.389815 191.549169 
L 366.594257 191.670286 
L 366.594257 191.670286 
L 366.798699 193.682125 
L 366.798699 193.682125 
L 367.003142 193.839982 
L 367.003142 193.839982 
L 367.412027 195.742347 
L 367.412027 195.742347 
L 368.025354 198.119506 
L 368.025354 198.119506 
L 368.229796 199.258426 
L 368.229796 199.258426 
L 368.434239 199.217805 
L 368.434239 199.217805 
L 368.638681 200.198177 
L 368.638681 200.198177 
L 368.843123 200.384426 
L 368.843123 200.384426 
L 369.456451 202.006647 
L 369.456451 202.006647 
L 369.660893 202.220383 
L 369.660893 202.220383 
L 369.865335 202.896313 
L 369.865335 202.896313 
L 370.069778 202.89408 
L 370.069778 202.89408 
L 370.27422 203.418586 
L 370.27422 203.418586 
L 370.478663 203.263973 
L 370.478663 203.263973 
L 370.683105 203.876685 
L 370.683105 203.876685 
L 370.887548 203.554325 
L 370.887548 203.554325 
L 371.09199 204.221163 
L 371.09199 204.221163 
L 371.296432 203.769125 
L 371.296432 203.769125 
L 371.500875 204.002269 
L 371.705317 203.93634 
L 371.705317 203.93634 
L 371.90976 204.190113 
L 371.90976 204.190113 
L 372.114202 204.061977 
L 372.114202 204.061977 
L 372.523087 204.629603 
L 372.523087 204.629603 
L 372.727529 204.415972 
L 372.727529 204.415972 
L 372.931972 204.685004 
L 372.931972 204.685004 
L 373.136414 204.466588 
L 373.136414 204.466588 
L 373.340856 204.72185 
L 373.340856 204.72185 
L 373.545299 204.500882 
L 373.545299 204.500882 
L 373.749741 204.753538 
L 373.749741 204.753538 
L 373.954184 204.022367 
L 373.954184 204.022367 
L 374.158626 204.28975 
L 374.158626 204.28975 
L 374.363068 203.984298 
L 374.363068 203.984298 
L 374.567511 204.25652 
L 374.567511 204.25652 
L 374.771953 203.862436 
L 374.771953 203.862436 
L 374.976396 204.128331 
L 374.976396 204.128331 
L 375.180838 203.638491 
L 375.180838 203.638491 
L 375.385281 203.851643 
L 375.385281 203.851643 
L 375.589723 203.258071 
L 375.589723 203.258071 
L 375.794165 203.358878 
L 375.794165 203.358878 
L 375.998608 203.171991 
L 375.998608 203.171991 
L 376.407493 201.803118 
L 376.407493 201.803118 
L 376.611935 199.738908 
L 376.611935 199.738908 
L 376.816377 200.47747 
L 376.816377 200.47747 
L 377.02082 198.112275 
L 377.02082 198.112275 
L 377.225262 198.544959 
L 377.225262 198.544959 
L 377.429705 196.096129 
L 377.429705 196.096129 
L 377.634147 196.273552 
L 377.634147 196.273552 
L 377.838589 193.518579 
L 377.838589 193.518579 
L 378.043032 193.597428 
L 378.043032 193.597428 
L 378.247474 190.653919 
L 378.247474 190.653919 
L 378.451917 190.214802 
L 378.451917 190.214802 
L 378.860801 185.914064 
L 378.860801 185.914064 
L 379.065244 183.628514 
L 379.065244 183.628514 
L 379.269686 176.626716 
L 379.269686 176.626716 
L 379.474129 177.857617 
L 379.474129 177.857617 
L 379.678571 171.885691 
L 379.678571 171.885691 
L 379.883014 172.741276 
L 379.883014 172.741276 
L 380.087456 166.770519 
L 380.087456 166.770519 
L 380.291898 166.634568 
L 380.291898 166.634568 
L 380.496341 161.115051 
L 380.496341 161.115051 
L 380.700783 159.20386 
L 380.700783 159.20386 
L 380.905226 154.965116 
L 380.905226 154.965116 
L 381.109668 144.459787 
L 381.109668 144.459787 
L 381.31411 147.738575 
L 381.31411 147.738575 
L 381.518553 138.209258 
L 381.518553 138.209258 
L 381.722995 138.593719 
L 381.722995 138.593719 
L 381.927438 131.367762 
L 381.927438 131.367762 
L 382.13188 129.361772 
L 382.13188 129.361772 
L 382.336322 124.411636 
L 382.336322 124.411636 
L 382.540765 113.552683 
L 382.540765 113.552683 
L 382.745207 114.50142 
L 382.745207 114.50142 
L 382.94965 106.127399 
L 382.94965 106.127399 
L 383.154092 103.790648 
L 383.154092 103.790648 
L 383.358534 98.086158 
L 383.358534 98.086158 
L 383.562977 87.711198 
L 383.562977 87.711198 
L 383.767419 86.449884 
L 383.767419 86.449884 
L 383.971862 80.392622 
L 383.971862 80.392622 
L 384.176304 70.522442 
L 384.176304 70.522442 
L 384.380747 68.865875 
L 384.380747 68.865875 
L 384.789631 53.672104 
L 384.789631 53.672104 
L 385.198516 53.568 
L 385.198516 53.568 
L 390.309576 53.568 
L 390.309576 53.568 
L 390.514019 53.820975 
L 390.514019 53.820975 
L 391.127346 53.568 
L 391.127346 53.568 
L 391.536231 53.618882 
L 391.536231 53.618882 
L 391.740673 53.794444 
L 391.740673 53.794444 
L 391.945116 53.568 
L 391.945116 53.568 
L 393.376213 53.568 
L 393.376213 53.568 
L 393.580655 54.015997 
L 393.580655 54.015997 
L 393.98954 53.720859 
L 393.98954 53.720859 
L 394.602867 53.794976 
L 394.602867 53.794976 
L 394.807309 53.568 
L 394.807309 53.568 
L 395.216194 53.594318 
L 395.216194 53.594318 
L 395.420637 54.184487 
L 395.420637 54.184487 
L 395.625079 54.423798 
L 395.625079 54.423798 
L 396.442849 54.716597 
L 396.442849 54.716597 
L 396.647291 53.568 
L 396.647291 53.568 
L 397.056176 53.568 
L 397.056176 53.568 
L 397.669503 54.392323 
L 397.669503 54.392323 
L 398.28283 54.623552 
L 398.28283 54.623552 
L 398.487273 53.568 
L 398.487273 53.568 
" clip-path="url(#p9315b8031a)" style="fill: none; stroke: #ff7f0e; stroke-width: 1.5; stroke-linecap: square"/>
   </g>
   <g id="patch_3">
    <path d="M 57.6 307.584 
L 57.6 41.472 
" style="fill: none; stroke: #000000; stroke-width: 0.8; stroke-linejoin: miter; stroke-linecap: square"/>
   </g>
   <g id="patch_4">
    <path d="M 414.72 307.584 
L 414.72 41.472 
" style="fill: none; stroke: #000000; stroke-width: 0.8; stroke-linejoin: miter; stroke-linecap: square"/>
   </g>
   <g id="patch_5">
    <path d="M 57.6 307.584 
L 414.72 307.584 
" style="fill: none; stroke: #000000; stroke-width: 0.8; stroke-linejoin: miter; stroke-linecap: square"/>
   </g>
   <g id="patch_6">
    <path d="M 57.6 41.472 
L 414.72 41.472 
" style="fill: none; stroke: #000000; stroke-width: 0.8; stroke-linejoin: miter; stroke-linecap: square"/>
   </g>
   <g id="text_15">
    <!-- Actual speed vs Expected speed -->
    <g transform="translate(138.808125 35.472) scale(0.12 -0.12)">
     <defs>
      <path id="DejaVuSans-41" d="M 2188 4044 
L 1331 1722 
L 3047 1722 
L 2188 4044 
z
M 1831 4666 
L 2547 4666 
L 4325 0 
L 3669 0 
L 3244 1197 
L 1141 1197 
L 716 0 
L 50 0 
L 1831 4666 
z
" transform="scale(0.015625)"/>
      <path id="DejaVuSans-75" d="M 544 1381 
L 544 3500 
L 1119 3500 
L 1119 1403 
Q 1119 906 1312 657 
Q 1506 409 1894 409 
Q 2359 409 2629 706 
Q 2900 1003 2900 1516 
L 2900 3500 
L 3475 3500 
L 3475 0 
L 2900 0 
L 2900 538 
Q 2691 219 2414 64 
Q 2138 -91 1772 -91 
Q 1169 -91 856 284 
Q 544 659 544 1381 
z
M 1991 3584 
L 1991 3584 
z
" transform="scale(0.015625)"/>
      <path id="DejaVuSans-61" d="M 2194 1759 
Q 1497 1759 1228 1600 
Q 959 1441 959 1056 
Q 959 750 1161 570 
Q 1363 391 1709 391 
Q 2188 391 2477 730 
Q 2766 1069 2766 1631 
L 2766 1759 
L 2194 1759 
z
M 3341 1997 
L 3341 0 
L 2766 0 
L 2766 531 
Q 2569 213 2275 61 
Q 1981 -91 1556 -91 
Q 1019 -91 701 211 
Q 384 513 384 1019 
Q 384 1609 779 1909 
Q 1175 2209 1959 2209 
L 2766 2209 
L 2766 2266 
Q 2766 2663 2505 2880 
Q 2244 3097 1772 3097 
Q 1472 3097 1187 3025 
Q 903 2953 641 2809 
L 641 3341 
Q 956 3463 1253 3523 
Q 1550 3584 1831 3584 
Q 2591 3584 2966 3190 
Q 3341 2797 3341 1997 
z
" transform="scale(0.015625)"/>
      <path id="DejaVuSans-20" transform="scale(0.015625)"/>
      <path id="DejaVuSans-70" d="M 1159 525 
L 1159 -1331 
L 581 -1331 
L 581 3500 
L 1159 3500 
L 1159 2969 
Q 1341 3281 1617 3432 
Q 1894 3584 2278 3584 
Q 2916 3584 3314 3078 
Q 3713 2572 3713 1747 
Q 3713 922 3314 415 
Q 2916 -91 2278 -91 
Q 1894 -91 1617 61 
Q 1341 213 1159 525 
z
M 3116 1747 
Q 3116 2381 2855 2742 
Q 2594 3103 2138 3103 
Q 1681 3103 1420 2742 
Q 1159 2381 1159 1747 
Q 1159 1113 1420 752 
Q 1681 391 2138 391 
Q 2594 391 2855 752 
Q 3116 1113 3116 1747 
z
" transform="scale(0.015625)"/>
      <path id="DejaVuSans-64" d="M 2906 2969 
L 2906 4863 
L 3481 4863 
L 3481 0 
L 2906 0 
L 2906 525 
Q 2725 213 2448 61 
Q 2172 -91 1784 -91 
Q 1150 -91 751 415 
Q 353 922 353 1747 
Q 353 2572 751 3078 
Q 1150 3584 1784 3584 
Q 2172 3584 2448 3432 
Q 2725 3281 2906 2969 
z
M 947 1747 
Q 947 1113 1208 752 
Q 1469 391 1925 391 
Q 2381 391 2643 752 
Q 2906 1113 2906 1747 
Q 2906 2381 2643 2742 
Q 2381 3103 1925 3103 
Q 1469 3103 1208 2742 
Q 947 2381 947 1747 
z
" transform="scale(0.015625)"/>
      <path id="DejaVuSans-76" d="M 191 3500 
L 800 3500 
L 1894 563 
L 2988 3500 
L 3597 3500 
L 2284 0 
L 1503 0 
L 191 3500 
z
" transform="scale(0.015625)"/>
      <path id="DejaVuSans-45" d="M 628 4666 
L 3578 4666 
L 3578 4134 
L 1259 4134 
L 1259 2753 
L 3481 2753 
L 3481 2222 
L 1259 2222 
L 1259 531 
L 3634 531 
L 3634 0 
L 628 0 
L 628 4666 
z
" transform="scale(0.015625)"/>
      <path id="DejaVuSans-78" d="M 3513 3500 
L 2247 1797 
L 3578 0 
L 2900 0 
L 1881 1375 
L 863 0 
L 184 0 
L 1544 1831 
L 300 3500 
L 978 3500 
L 1906 2253 
L 2834 3500 
L 3513 3500 
z
" transform="scale(0.015625)"/>
     </defs>
     <use xlink:href="#DejaVuSans-41"/>
     <use xlink:href="#DejaVuSans-63" x="66.658203"/>
     <use xlink:href="#DejaVuSans-74" x="121.638672"/>
     <use xlink:href="#DejaVuSans-75" x="160.847656"/>
     <use xlink:href="#DejaVuSans-61" x="224.226562"/>
     <use xlink:href="#DejaVuSans-6c" x="285.505859"/>
     <use xlink:href="#DejaVuSans-20" x="313.289062"/>
     <use xlink:href="#DejaVuSans-73" x="345.076172"/>
     <use xlink:href="#DejaVuSans-70" x="397.175781"/>
     <use xlink:href="#DejaVuSans-65" x="460.652344"/>
     <use xlink:href="#DejaVuSans-65" x="522.175781"/>
     <use xlink:href="#DejaVuSans-64" x="583.699219"/>
     <use xlink:href="#DejaVuSans-20" x="647.175781"/>
     <use xlink:href="#DejaVuSans-76" x="678.962891"/>
     <use xlink:href="#DejaVuSans-73" x="738.142578"/>
     <use xlink:href="#DejaVuSans-20" x="790.242188"/>
     <use xlink:href="#DejaVuSans-45" x="822.029297"/>
     <use xlink:href="#DejaVuSans-78" x="885.212891"/>
     <use xlink:href="#DejaVuSans-70" x="944.392578"/>
     <use xlink:href="#DejaVuSans-65" x="1007.869141"/>
     <use xlink:href="#DejaVuSans-63" x="1069.392578"/>
     <use xlink:href="#DejaVuSans-74" x="1124.373047"/>
     <use xlink:href="#DejaVuSans-65" x="1163.582031"/>
     <use xlink:href="#DejaVuSans-64" x="1225.105469"/>
     <use xlink:href="#DejaVuSans-20" x="1288.582031"/>
     <use xlink:href="#DejaVuSans-73" x="1320.369141"/>
     <use xlink:href="#DejaVuSans-70" x="1372.46875"/>
     <use xlink:href="#DejaVuSans-65" x="1435.945312"/>
     <use xlink:href="#DejaVuSans-65" x="1497.46875"/>
     <use xlink:href="#DejaVuSans-64" x="1558.992188"/>
    </g>
   </g>
   <g id="legend_1">
    <g id="patch_7">
     <path d="M 64.6 302.584 
L 176.65 302.584 
Q 178.65 302.584 178.65 300.584 
L 178.65 272.22775 
Q 178.65 270.22775 176.65 270.22775 
L 64.6 270.22775 
Q 62.6 270.22775 62.6 272.22775 
L 62.6 300.584 
Q 62.6 302.584 64.6 302.584 
z
" style="fill: #ffffff; opacity: 0.8; stroke: #cccccc; stroke-linejoin: miter"/>
    </g>
    <g id="line2d_27">
     <path d="M 66.6 278.326187 
L 76.6 278.326187 
L 86.6 278.326187 
" style="fill: none; stroke: #1f77b4; stroke-width: 1.5; stroke-linecap: square"/>
    </g>
    <g id="text_16">
     <!-- Actual speed -->
     <g transform="translate(94.6 281.826187) scale(0.1 -0.1)">
      <use xlink:href="#DejaVuSans-41"/>
      <use xlink:href="#DejaVuSans-63" x="66.658203"/>
      <use xlink:href="#DejaVuSans-74" x="121.638672"/>
      <use xlink:href="#DejaVuSans-75" x="160.847656"/>
      <use xlink:href="#DejaVuSans-61" x="224.226562"/>
      <use xlink:href="#DejaVuSans-6c" x="285.505859"/>
      <use xlink:href="#DejaVuSans-20" x="313.289062"/>
      <use xlink:href="#DejaVuSans-73" x="345.076172"/>
      <use xlink:href="#DejaVuSans-70" x="397.175781"/>
      <use xlink:href="#DejaVuSans-65" x="460.652344"/>
      <use xlink:href="#DejaVuSans-65" x="522.175781"/>
      <use xlink:href="#DejaVuSans-64" x="583.699219"/>
     </g>
    </g>
    <g id="line2d_28">
     <path d="M 66.6 293.004312 
L 76.6 293.004312 
L 86.6 293.004312 
" style="fill: none; stroke: #ff7f0e; stroke-width: 1.5; stroke-linecap: square"/>
    </g>
    <g id="text_17">
     <!-- Expected speed -->
     <g transform="translate(94.6 296.504312) scale(0.1 -0.1)">
      <use xlink:href="#DejaVuSans-45"/>
      <use xlink:href="#DejaVuSans-78" x="63.183594"/>
      <use xlink:href="#DejaVuSans-70" x="122.363281"/>
      <use xlink:href="#DejaVuSans-65" x="185.839844"/>
      <use xlink:href="#DejaVuSans-63" x="247.363281"/>
      <use xlink:href="#DejaVuSans-74" x="302.34375"/>
      <use xlink:href="#DejaVuSans-65" x="341.552734"/>
      <use xlink:href="#DejaVuSans-64" x="403.076172"/>
      <use xlink:href="#DejaVuSans-20" x="466.552734"/>
      <use xlink:href="#DejaVuSans-73" x="498.339844"/>
      <use xlink:href="#DejaVuSans-70" x="550.439453"/>
      <use xlink:href="#DejaVuSans-65" x="613.916016"/>
      <use xlink:href="#DejaVuSans-65" x="675.439453"/>
      <use xlink:href="#DejaVuSans-64" x="736.962891"/>
     </g>
    </g>
   </g>
  </g>
 </g>
 <defs>
  <clipPath id="p9315b8031a">
   <rect x="57.6" y="41.472" width="357.12" height="266.112"/>
  </clipPath>
 </defs>
</svg>
