<?xml version="1.0" encoding="utf-8" standalone="no"?>
<!DOCTYPE svg PUBLIC "-//W3C//DTD SVG 1.1//EN"
  "http://www.w3.org/Graphics/SVG/1.1/DTD/svg11.dtd">
<svg xmlns:xlink="http://www.w3.org/1999/xlink" width="460.8pt" height="345.6pt" viewBox="0 0 460.8 345.6" xmlns="http://www.w3.org/2000/svg" version="1.1">
 <metadata>
  <rdf:RDF xmlns:dc="http://purl.org/dc/elements/1.1/" xmlns:cc="http://creativecommons.org/ns#" xmlns:rdf="http://www.w3.org/1999/02/22-rdf-syntax-ns#">
   <cc:Work>
    <dc:type rdf:resource="http://purl.org/dc/dcmitype/StillImage"/>
    <dc:date>2024-01-30T20:58:34.692240</dc:date>
    <dc:format>image/svg+xml</dc:format>
    <dc:creator>
     <cc:Agent>
      <dc:title>Matplotlib v3.7.1, https://matplotlib.org/</dc:title>
     </cc:Agent>
    </dc:creator>
   </cc:Work>
  </rdf:RDF>
 </metadata>
 <defs>
  <style type="text/css">*{stroke-linejoin: round; stroke-linecap: butt}</style>
 </defs>
 <g id="figure_1">
  <g id="patch_1">
   <path d="M 0 345.6 
L 460.8 345.6 
L 460.8 0 
L 0 0 
z
" style="fill: #ffffff"/>
  </g>
  <g id="axes_1">
   <g id="patch_2">
    <path d="M 57.6 307.584 
L 414.72 307.584 
L 414.72 41.472 
L 57.6 41.472 
z
" style="fill: #ffffff"/>
   </g>
   <g id="matplotlib.axis_1">
    <g id="xtick_1">
     <g id="line2d_1">
      <path d="M 73.832727 307.584 
L 73.832727 41.472 
" clip-path="url(#p88700d874b)" style="fill: none; stroke: #b0b0b0; stroke-width: 0.8; stroke-linecap: square"/>
     </g>
     <g id="line2d_2">
      <defs>
       <path id="m988744c383" d="M 0 0 
L 0 3.5 
" style="stroke: #000000; stroke-width: 0.8"/>
      </defs>
      <g>
       <use xlink:href="#m988744c383" x="73.832727" y="307.584" style="stroke: #000000; stroke-width: 0.8"/>
      </g>
     </g>
     <g id="text_1">
      <!-- 0 -->
      <g transform="translate(70.651477 322.182437) scale(0.1 -0.1)">
       <defs>
        <path id="DejaVuSans-30" d="M 2034 4250 
Q 1547 4250 1301 3770 
Q 1056 3291 1056 2328 
Q 1056 1369 1301 889 
Q 1547 409 2034 409 
Q 2525 409 2770 889 
Q 3016 1369 3016 2328 
Q 3016 3291 2770 3770 
Q 2525 4250 2034 4250 
z
M 2034 4750 
Q 2819 4750 3233 4129 
Q 3647 3509 3647 2328 
Q 3647 1150 3233 529 
Q 2819 -91 2034 -91 
Q 1250 -91 836 529 
Q 422 1150 422 2328 
Q 422 3509 836 4129 
Q 1250 4750 2034 4750 
z
" transform="scale(0.015625)"/>
       </defs>
       <use xlink:href="#DejaVuSans-30"/>
      </g>
     </g>
    </g>
    <g id="xtick_2">
     <g id="line2d_3">
      <path d="M 122.433707 307.584 
L 122.433707 41.472 
" clip-path="url(#p88700d874b)" style="fill: none; stroke: #b0b0b0; stroke-width: 0.8; stroke-linecap: square"/>
     </g>
     <g id="line2d_4">
      <g>
       <use xlink:href="#m988744c383" x="122.433707" y="307.584" style="stroke: #000000; stroke-width: 0.8"/>
      </g>
     </g>
     <g id="text_2">
      <!-- 5 -->
      <g transform="translate(119.252457 322.182437) scale(0.1 -0.1)">
       <defs>
        <path id="DejaVuSans-35" d="M 691 4666 
L 3169 4666 
L 3169 4134 
L 1269 4134 
L 1269 2991 
Q 1406 3038 1543 3061 
Q 1681 3084 1819 3084 
Q 2600 3084 3056 2656 
Q 3513 2228 3513 1497 
Q 3513 744 3044 326 
Q 2575 -91 1722 -91 
Q 1428 -91 1123 -41 
Q 819 9 494 109 
L 494 744 
Q 775 591 1075 516 
Q 1375 441 1709 441 
Q 2250 441 2565 725 
Q 2881 1009 2881 1497 
Q 2881 1984 2565 2268 
Q 2250 2553 1709 2553 
Q 1456 2553 1204 2497 
Q 953 2441 691 2322 
L 691 4666 
z
" transform="scale(0.015625)"/>
       </defs>
       <use xlink:href="#DejaVuSans-35"/>
      </g>
     </g>
    </g>
    <g id="xtick_3">
     <g id="line2d_5">
      <path d="M 171.034687 307.584 
L 171.034687 41.472 
" clip-path="url(#p88700d874b)" style="fill: none; stroke: #b0b0b0; stroke-width: 0.8; stroke-linecap: square"/>
     </g>
     <g id="line2d_6">
      <g>
       <use xlink:href="#m988744c383" x="171.034687" y="307.584" style="stroke: #000000; stroke-width: 0.8"/>
      </g>
     </g>
     <g id="text_3">
      <!-- 10 -->
      <g transform="translate(164.672187 322.182437) scale(0.1 -0.1)">
       <defs>
        <path id="DejaVuSans-31" d="M 794 531 
L 1825 531 
L 1825 4091 
L 703 3866 
L 703 4441 
L 1819 4666 
L 2450 4666 
L 2450 531 
L 3481 531 
L 3481 0 
L 794 0 
L 794 531 
z
" transform="scale(0.015625)"/>
       </defs>
       <use xlink:href="#DejaVuSans-31"/>
       <use xlink:href="#DejaVuSans-30" x="63.623047"/>
      </g>
     </g>
    </g>
    <g id="xtick_4">
     <g id="line2d_7">
      <path d="M 219.635667 307.584 
L 219.635667 41.472 
" clip-path="url(#p88700d874b)" style="fill: none; stroke: #b0b0b0; stroke-width: 0.8; stroke-linecap: square"/>
     </g>
     <g id="line2d_8">
      <g>
       <use xlink:href="#m988744c383" x="219.635667" y="307.584" style="stroke: #000000; stroke-width: 0.8"/>
      </g>
     </g>
     <g id="text_4">
      <!-- 15 -->
      <g transform="translate(213.273167 322.182437) scale(0.1 -0.1)">
       <use xlink:href="#DejaVuSans-31"/>
       <use xlink:href="#DejaVuSans-35" x="63.623047"/>
      </g>
     </g>
    </g>
    <g id="xtick_5">
     <g id="line2d_9">
      <path d="M 268.236647 307.584 
L 268.236647 41.472 
" clip-path="url(#p88700d874b)" style="fill: none; stroke: #b0b0b0; stroke-width: 0.8; stroke-linecap: square"/>
     </g>
     <g id="line2d_10">
      <g>
       <use xlink:href="#m988744c383" x="268.236647" y="307.584" style="stroke: #000000; stroke-width: 0.8"/>
      </g>
     </g>
     <g id="text_5">
      <!-- 20 -->
      <g transform="translate(261.874147 322.182437) scale(0.1 -0.1)">
       <defs>
        <path id="DejaVuSans-32" d="M 1228 531 
L 3431 531 
L 3431 0 
L 469 0 
L 469 531 
Q 828 903 1448 1529 
Q 2069 2156 2228 2338 
Q 2531 2678 2651 2914 
Q 2772 3150 2772 3378 
Q 2772 3750 2511 3984 
Q 2250 4219 1831 4219 
Q 1534 4219 1204 4116 
Q 875 4013 500 3803 
L 500 4441 
Q 881 4594 1212 4672 
Q 1544 4750 1819 4750 
Q 2544 4750 2975 4387 
Q 3406 4025 3406 3419 
Q 3406 3131 3298 2873 
Q 3191 2616 2906 2266 
Q 2828 2175 2409 1742 
Q 1991 1309 1228 531 
z
" transform="scale(0.015625)"/>
       </defs>
       <use xlink:href="#DejaVuSans-32"/>
       <use xlink:href="#DejaVuSans-30" x="63.623047"/>
      </g>
     </g>
    </g>
    <g id="xtick_6">
     <g id="line2d_11">
      <path d="M 316.837627 307.584 
L 316.837627 41.472 
" clip-path="url(#p88700d874b)" style="fill: none; stroke: #b0b0b0; stroke-width: 0.8; stroke-linecap: square"/>
     </g>
     <g id="line2d_12">
      <g>
       <use xlink:href="#m988744c383" x="316.837627" y="307.584" style="stroke: #000000; stroke-width: 0.8"/>
      </g>
     </g>
     <g id="text_6">
      <!-- 25 -->
      <g transform="translate(310.475127 322.182437) scale(0.1 -0.1)">
       <use xlink:href="#DejaVuSans-32"/>
       <use xlink:href="#DejaVuSans-35" x="63.623047"/>
      </g>
     </g>
    </g>
    <g id="xtick_7">
     <g id="line2d_13">
      <path d="M 365.438606 307.584 
L 365.438606 41.472 
" clip-path="url(#p88700d874b)" style="fill: none; stroke: #b0b0b0; stroke-width: 0.8; stroke-linecap: square"/>
     </g>
     <g id="line2d_14">
      <g>
       <use xlink:href="#m988744c383" x="365.438606" y="307.584" style="stroke: #000000; stroke-width: 0.8"/>
      </g>
     </g>
     <g id="text_7">
      <!-- 30 -->
      <g transform="translate(359.076106 322.182437) scale(0.1 -0.1)">
       <defs>
        <path id="DejaVuSans-33" d="M 2597 2516 
Q 3050 2419 3304 2112 
Q 3559 1806 3559 1356 
Q 3559 666 3084 287 
Q 2609 -91 1734 -91 
Q 1441 -91 1130 -33 
Q 819 25 488 141 
L 488 750 
Q 750 597 1062 519 
Q 1375 441 1716 441 
Q 2309 441 2620 675 
Q 2931 909 2931 1356 
Q 2931 1769 2642 2001 
Q 2353 2234 1838 2234 
L 1294 2234 
L 1294 2753 
L 1863 2753 
Q 2328 2753 2575 2939 
Q 2822 3125 2822 3475 
Q 2822 3834 2567 4026 
Q 2313 4219 1838 4219 
Q 1578 4219 1281 4162 
Q 984 4106 628 3988 
L 628 4550 
Q 988 4650 1302 4700 
Q 1616 4750 1894 4750 
Q 2613 4750 3031 4423 
Q 3450 4097 3450 3541 
Q 3450 3153 3228 2886 
Q 3006 2619 2597 2516 
z
" transform="scale(0.015625)"/>
       </defs>
       <use xlink:href="#DejaVuSans-33"/>
       <use xlink:href="#DejaVuSans-30" x="63.623047"/>
      </g>
     </g>
    </g>
    <g id="xtick_8">
     <g id="line2d_15">
      <path d="M 414.039586 307.584 
L 414.039586 41.472 
" clip-path="url(#p88700d874b)" style="fill: none; stroke: #b0b0b0; stroke-width: 0.8; stroke-linecap: square"/>
     </g>
     <g id="line2d_16">
      <g>
       <use xlink:href="#m988744c383" x="414.039586" y="307.584" style="stroke: #000000; stroke-width: 0.8"/>
      </g>
     </g>
     <g id="text_8">
      <!-- 35 -->
      <g transform="translate(407.677086 322.182437) scale(0.1 -0.1)">
       <use xlink:href="#DejaVuSans-33"/>
       <use xlink:href="#DejaVuSans-35" x="63.623047"/>
      </g>
     </g>
    </g>
    <g id="text_9">
     <!-- Time(s) -->
     <g transform="translate(217.420156 335.860562) scale(0.1 -0.1)">
      <defs>
       <path id="DejaVuSans-54" d="M -19 4666 
L 3928 4666 
L 3928 4134 
L 2272 4134 
L 2272 0 
L 1638 0 
L 1638 4134 
L -19 4134 
L -19 4666 
z
" transform="scale(0.015625)"/>
       <path id="DejaVuSans-69" d="M 603 3500 
L 1178 3500 
L 1178 0 
L 603 0 
L 603 3500 
z
M 603 4863 
L 1178 4863 
L 1178 4134 
L 603 4134 
L 603 4863 
z
" transform="scale(0.015625)"/>
       <path id="DejaVuSans-6d" d="M 3328 2828 
Q 3544 3216 3844 3400 
Q 4144 3584 4550 3584 
Q 5097 3584 5394 3201 
Q 5691 2819 5691 2113 
L 5691 0 
L 5113 0 
L 5113 2094 
Q 5113 2597 4934 2840 
Q 4756 3084 4391 3084 
Q 3944 3084 3684 2787 
Q 3425 2491 3425 1978 
L 3425 0 
L 2847 0 
L 2847 2094 
Q 2847 2600 2669 2842 
Q 2491 3084 2119 3084 
Q 1678 3084 1418 2786 
Q 1159 2488 1159 1978 
L 1159 0 
L 581 0 
L 581 3500 
L 1159 3500 
L 1159 2956 
Q 1356 3278 1631 3431 
Q 1906 3584 2284 3584 
Q 2666 3584 2933 3390 
Q 3200 3197 3328 2828 
z
" transform="scale(0.015625)"/>
       <path id="DejaVuSans-65" d="M 3597 1894 
L 3597 1613 
L 953 1613 
Q 991 1019 1311 708 
Q 1631 397 2203 397 
Q 2534 397 2845 478 
Q 3156 559 3463 722 
L 3463 178 
Q 3153 47 2828 -22 
Q 2503 -91 2169 -91 
Q 1331 -91 842 396 
Q 353 884 353 1716 
Q 353 2575 817 3079 
Q 1281 3584 2069 3584 
Q 2775 3584 3186 3129 
Q 3597 2675 3597 1894 
z
M 3022 2063 
Q 3016 2534 2758 2815 
Q 2500 3097 2075 3097 
Q 1594 3097 1305 2825 
Q 1016 2553 972 2059 
L 3022 2063 
z
" transform="scale(0.015625)"/>
       <path id="DejaVuSans-28" d="M 1984 4856 
Q 1566 4138 1362 3434 
Q 1159 2731 1159 2009 
Q 1159 1288 1364 580 
Q 1569 -128 1984 -844 
L 1484 -844 
Q 1016 -109 783 600 
Q 550 1309 550 2009 
Q 550 2706 781 3412 
Q 1013 4119 1484 4856 
L 1984 4856 
z
" transform="scale(0.015625)"/>
       <path id="DejaVuSans-73" d="M 2834 3397 
L 2834 2853 
Q 2591 2978 2328 3040 
Q 2066 3103 1784 3103 
Q 1356 3103 1142 2972 
Q 928 2841 928 2578 
Q 928 2378 1081 2264 
Q 1234 2150 1697 2047 
L 1894 2003 
Q 2506 1872 2764 1633 
Q 3022 1394 3022 966 
Q 3022 478 2636 193 
Q 2250 -91 1575 -91 
Q 1294 -91 989 -36 
Q 684 19 347 128 
L 347 722 
Q 666 556 975 473 
Q 1284 391 1588 391 
Q 1994 391 2212 530 
Q 2431 669 2431 922 
Q 2431 1156 2273 1281 
Q 2116 1406 1581 1522 
L 1381 1569 
Q 847 1681 609 1914 
Q 372 2147 372 2553 
Q 372 3047 722 3315 
Q 1072 3584 1716 3584 
Q 2034 3584 2315 3537 
Q 2597 3491 2834 3397 
z
" transform="scale(0.015625)"/>
       <path id="DejaVuSans-29" d="M 513 4856 
L 1013 4856 
Q 1481 4119 1714 3412 
Q 1947 2706 1947 2009 
Q 1947 1309 1714 600 
Q 1481 -109 1013 -844 
L 513 -844 
Q 928 -128 1133 580 
Q 1338 1288 1338 2009 
Q 1338 2731 1133 3434 
Q 928 4138 513 4856 
z
" transform="scale(0.015625)"/>
      </defs>
      <use xlink:href="#DejaVuSans-54"/>
      <use xlink:href="#DejaVuSans-69" x="57.958984"/>
      <use xlink:href="#DejaVuSans-6d" x="85.742188"/>
      <use xlink:href="#DejaVuSans-65" x="183.154297"/>
      <use xlink:href="#DejaVuSans-28" x="244.677734"/>
      <use xlink:href="#DejaVuSans-73" x="283.691406"/>
      <use xlink:href="#DejaVuSans-29" x="335.791016"/>
     </g>
    </g>
   </g>
   <g id="matplotlib.axis_2">
    <g id="ytick_1">
     <g id="line2d_17">
      <path d="M 57.6 295.488 
L 414.72 295.488 
" clip-path="url(#p88700d874b)" style="fill: none; stroke: #b0b0b0; stroke-width: 0.8; stroke-linecap: square"/>
     </g>
     <g id="line2d_18">
      <defs>
       <path id="mf25779f40e" d="M 0 0 
L -3.5 0 
" style="stroke: #000000; stroke-width: 0.8"/>
      </defs>
      <g>
       <use xlink:href="#mf25779f40e" x="57.6" y="295.488" style="stroke: #000000; stroke-width: 0.8"/>
      </g>
     </g>
     <g id="text_10">
      <!-- 0 -->
      <g transform="translate(44.2375 299.287219) scale(0.1 -0.1)">
       <use xlink:href="#DejaVuSans-30"/>
      </g>
     </g>
    </g>
    <g id="ytick_2">
     <g id="line2d_19">
      <path d="M 57.6 265.248 
L 414.72 265.248 
" clip-path="url(#p88700d874b)" style="fill: none; stroke: #b0b0b0; stroke-width: 0.8; stroke-linecap: square"/>
     </g>
     <g id="line2d_20">
      <g>
       <use xlink:href="#mf25779f40e" x="57.6" y="265.248" style="stroke: #000000; stroke-width: 0.8"/>
      </g>
     </g>
     <g id="text_11">
      <!-- 1 -->
      <g transform="translate(44.2375 269.047219) scale(0.1 -0.1)">
       <use xlink:href="#DejaVuSans-31"/>
      </g>
     </g>
    </g>
    <g id="ytick_3">
     <g id="line2d_21">
      <path d="M 57.6 235.008 
L 414.72 235.008 
" clip-path="url(#p88700d874b)" style="fill: none; stroke: #b0b0b0; stroke-width: 0.8; stroke-linecap: square"/>
     </g>
     <g id="line2d_22">
      <g>
       <use xlink:href="#mf25779f40e" x="57.6" y="235.008" style="stroke: #000000; stroke-width: 0.8"/>
      </g>
     </g>
     <g id="text_12">
      <!-- 2 -->
      <g transform="translate(44.2375 238.807219) scale(0.1 -0.1)">
       <use xlink:href="#DejaVuSans-32"/>
      </g>
     </g>
    </g>
    <g id="ytick_4">
     <g id="line2d_23">
      <path d="M 57.6 204.768 
L 414.72 204.768 
" clip-path="url(#p88700d874b)" style="fill: none; stroke: #b0b0b0; stroke-width: 0.8; stroke-linecap: square"/>
     </g>
     <g id="line2d_24">
      <g>
       <use xlink:href="#mf25779f40e" x="57.6" y="204.768" style="stroke: #000000; stroke-width: 0.8"/>
      </g>
     </g>
     <g id="text_13">
      <!-- 3 -->
      <g transform="translate(44.2375 208.567219) scale(0.1 -0.1)">
       <use xlink:href="#DejaVuSans-33"/>
      </g>
     </g>
    </g>
    <g id="ytick_5">
     <g id="line2d_25">
      <path d="M 57.6 174.528 
L 414.72 174.528 
" clip-path="url(#p88700d874b)" style="fill: none; stroke: #b0b0b0; stroke-width: 0.8; stroke-linecap: square"/>
     </g>
     <g id="line2d_26">
      <g>
       <use xlink:href="#mf25779f40e" x="57.6" y="174.528" style="stroke: #000000; stroke-width: 0.8"/>
      </g>
     </g>
     <g id="text_14">
      <!-- 4 -->
      <g transform="translate(44.2375 178.327219) scale(0.1 -0.1)">
       <defs>
        <path id="DejaVuSans-34" d="M 2419 4116 
L 825 1625 
L 2419 1625 
L 2419 4116 
z
M 2253 4666 
L 3047 4666 
L 3047 1625 
L 3713 1625 
L 3713 1100 
L 3047 1100 
L 3047 0 
L 2419 0 
L 2419 1100 
L 313 1100 
L 313 1709 
L 2253 4666 
z
" transform="scale(0.015625)"/>
       </defs>
       <use xlink:href="#DejaVuSans-34"/>
      </g>
     </g>
    </g>
    <g id="ytick_6">
     <g id="line2d_27">
      <path d="M 57.6 144.288 
L 414.72 144.288 
" clip-path="url(#p88700d874b)" style="fill: none; stroke: #b0b0b0; stroke-width: 0.8; stroke-linecap: square"/>
     </g>
     <g id="line2d_28">
      <g>
       <use xlink:href="#mf25779f40e" x="57.6" y="144.288" style="stroke: #000000; stroke-width: 0.8"/>
      </g>
     </g>
     <g id="text_15">
      <!-- 5 -->
      <g transform="translate(44.2375 148.087219) scale(0.1 -0.1)">
       <use xlink:href="#DejaVuSans-35"/>
      </g>
     </g>
    </g>
    <g id="ytick_7">
     <g id="line2d_29">
      <path d="M 57.6 114.048 
L 414.72 114.048 
" clip-path="url(#p88700d874b)" style="fill: none; stroke: #b0b0b0; stroke-width: 0.8; stroke-linecap: square"/>
     </g>
     <g id="line2d_30">
      <g>
       <use xlink:href="#mf25779f40e" x="57.6" y="114.048" style="stroke: #000000; stroke-width: 0.8"/>
      </g>
     </g>
     <g id="text_16">
      <!-- 6 -->
      <g transform="translate(44.2375 117.847219) scale(0.1 -0.1)">
       <defs>
        <path id="DejaVuSans-36" d="M 2113 2584 
Q 1688 2584 1439 2293 
Q 1191 2003 1191 1497 
Q 1191 994 1439 701 
Q 1688 409 2113 409 
Q 2538 409 2786 701 
Q 3034 994 3034 1497 
Q 3034 2003 2786 2293 
Q 2538 2584 2113 2584 
z
M 3366 4563 
L 3366 3988 
Q 3128 4100 2886 4159 
Q 2644 4219 2406 4219 
Q 1781 4219 1451 3797 
Q 1122 3375 1075 2522 
Q 1259 2794 1537 2939 
Q 1816 3084 2150 3084 
Q 2853 3084 3261 2657 
Q 3669 2231 3669 1497 
Q 3669 778 3244 343 
Q 2819 -91 2113 -91 
Q 1303 -91 875 529 
Q 447 1150 447 2328 
Q 447 3434 972 4092 
Q 1497 4750 2381 4750 
Q 2619 4750 2861 4703 
Q 3103 4656 3366 4563 
z
" transform="scale(0.015625)"/>
       </defs>
       <use xlink:href="#DejaVuSans-36"/>
      </g>
     </g>
    </g>
    <g id="ytick_8">
     <g id="line2d_31">
      <path d="M 57.6 83.808 
L 414.72 83.808 
" clip-path="url(#p88700d874b)" style="fill: none; stroke: #b0b0b0; stroke-width: 0.8; stroke-linecap: square"/>
     </g>
     <g id="line2d_32">
      <g>
       <use xlink:href="#mf25779f40e" x="57.6" y="83.808" style="stroke: #000000; stroke-width: 0.8"/>
      </g>
     </g>
     <g id="text_17">
      <!-- 7 -->
      <g transform="translate(44.2375 87.607219) scale(0.1 -0.1)">
       <defs>
        <path id="DejaVuSans-37" d="M 525 4666 
L 3525 4666 
L 3525 4397 
L 1831 0 
L 1172 0 
L 2766 4134 
L 525 4134 
L 525 4666 
z
" transform="scale(0.015625)"/>
       </defs>
       <use xlink:href="#DejaVuSans-37"/>
      </g>
     </g>
    </g>
    <g id="ytick_9">
     <g id="line2d_33">
      <path d="M 57.6 53.568 
L 414.72 53.568 
" clip-path="url(#p88700d874b)" style="fill: none; stroke: #b0b0b0; stroke-width: 0.8; stroke-linecap: square"/>
     </g>
     <g id="line2d_34">
      <g>
       <use xlink:href="#mf25779f40e" x="57.6" y="53.568" style="stroke: #000000; stroke-width: 0.8"/>
      </g>
     </g>
     <g id="text_18">
      <!-- 8 -->
      <g transform="translate(44.2375 57.367219) scale(0.1 -0.1)">
       <defs>
        <path id="DejaVuSans-38" d="M 2034 2216 
Q 1584 2216 1326 1975 
Q 1069 1734 1069 1313 
Q 1069 891 1326 650 
Q 1584 409 2034 409 
Q 2484 409 2743 651 
Q 3003 894 3003 1313 
Q 3003 1734 2745 1975 
Q 2488 2216 2034 2216 
z
M 1403 2484 
Q 997 2584 770 2862 
Q 544 3141 544 3541 
Q 544 4100 942 4425 
Q 1341 4750 2034 4750 
Q 2731 4750 3128 4425 
Q 3525 4100 3525 3541 
Q 3525 3141 3298 2862 
Q 3072 2584 2669 2484 
Q 3125 2378 3379 2068 
Q 3634 1759 3634 1313 
Q 3634 634 3220 271 
Q 2806 -91 2034 -91 
Q 1263 -91 848 271 
Q 434 634 434 1313 
Q 434 1759 690 2068 
Q 947 2378 1403 2484 
z
M 1172 3481 
Q 1172 3119 1398 2916 
Q 1625 2713 2034 2713 
Q 2441 2713 2670 2916 
Q 2900 3119 2900 3481 
Q 2900 3844 2670 4047 
Q 2441 4250 2034 4250 
Q 1625 4250 1398 4047 
Q 1172 3844 1172 3481 
z
" transform="scale(0.015625)"/>
       </defs>
       <use xlink:href="#DejaVuSans-38"/>
      </g>
     </g>
    </g>
    <g id="text_19">
     <!-- Velocity(m/s) -->
     <g transform="translate(38.157812 207.204563) rotate(-90) scale(0.1 -0.1)">
      <defs>
       <path id="DejaVuSans-56" d="M 1831 0 
L 50 4666 
L 709 4666 
L 2188 738 
L 3669 4666 
L 4325 4666 
L 2547 0 
L 1831 0 
z
" transform="scale(0.015625)"/>
       <path id="DejaVuSans-6c" d="M 603 4863 
L 1178 4863 
L 1178 0 
L 603 0 
L 603 4863 
z
" transform="scale(0.015625)"/>
       <path id="DejaVuSans-6f" d="M 1959 3097 
Q 1497 3097 1228 2736 
Q 959 2375 959 1747 
Q 959 1119 1226 758 
Q 1494 397 1959 397 
Q 2419 397 2687 759 
Q 2956 1122 2956 1747 
Q 2956 2369 2687 2733 
Q 2419 3097 1959 3097 
z
M 1959 3584 
Q 2709 3584 3137 3096 
Q 3566 2609 3566 1747 
Q 3566 888 3137 398 
Q 2709 -91 1959 -91 
Q 1206 -91 779 398 
Q 353 888 353 1747 
Q 353 2609 779 3096 
Q 1206 3584 1959 3584 
z
" transform="scale(0.015625)"/>
       <path id="DejaVuSans-63" d="M 3122 3366 
L 3122 2828 
Q 2878 2963 2633 3030 
Q 2388 3097 2138 3097 
Q 1578 3097 1268 2742 
Q 959 2388 959 1747 
Q 959 1106 1268 751 
Q 1578 397 2138 397 
Q 2388 397 2633 464 
Q 2878 531 3122 666 
L 3122 134 
Q 2881 22 2623 -34 
Q 2366 -91 2075 -91 
Q 1284 -91 818 406 
Q 353 903 353 1747 
Q 353 2603 823 3093 
Q 1294 3584 2113 3584 
Q 2378 3584 2631 3529 
Q 2884 3475 3122 3366 
z
" transform="scale(0.015625)"/>
       <path id="DejaVuSans-74" d="M 1172 4494 
L 1172 3500 
L 2356 3500 
L 2356 3053 
L 1172 3053 
L 1172 1153 
Q 1172 725 1289 603 
Q 1406 481 1766 481 
L 2356 481 
L 2356 0 
L 1766 0 
Q 1100 0 847 248 
Q 594 497 594 1153 
L 594 3053 
L 172 3053 
L 172 3500 
L 594 3500 
L 594 4494 
L 1172 4494 
z
" transform="scale(0.015625)"/>
       <path id="DejaVuSans-79" d="M 2059 -325 
Q 1816 -950 1584 -1140 
Q 1353 -1331 966 -1331 
L 506 -1331 
L 506 -850 
L 844 -850 
Q 1081 -850 1212 -737 
Q 1344 -625 1503 -206 
L 1606 56 
L 191 3500 
L 800 3500 
L 1894 763 
L 2988 3500 
L 3597 3500 
L 2059 -325 
z
" transform="scale(0.015625)"/>
       <path id="DejaVuSans-2f" d="M 1625 4666 
L 2156 4666 
L 531 -594 
L 0 -594 
L 1625 4666 
z
" transform="scale(0.015625)"/>
      </defs>
      <use xlink:href="#DejaVuSans-56"/>
      <use xlink:href="#DejaVuSans-65" x="60.658203"/>
      <use xlink:href="#DejaVuSans-6c" x="122.181641"/>
      <use xlink:href="#DejaVuSans-6f" x="149.964844"/>
      <use xlink:href="#DejaVuSans-63" x="211.146484"/>
      <use xlink:href="#DejaVuSans-69" x="266.126953"/>
      <use xlink:href="#DejaVuSans-74" x="293.910156"/>
      <use xlink:href="#DejaVuSans-79" x="333.119141"/>
      <use xlink:href="#DejaVuSans-28" x="392.298828"/>
      <use xlink:href="#DejaVuSans-6d" x="431.3125"/>
      <use xlink:href="#DejaVuSans-2f" x="528.724609"/>
      <use xlink:href="#DejaVuSans-73" x="562.416016"/>
      <use xlink:href="#DejaVuSans-29" x="614.515625"/>
     </g>
    </g>
   </g>
   <g id="line2d_35">
    <path d="M 73.832727 53.568 
L 73.832727 295.488 
L 73.832727 295.488 
L 74.027131 294.606746 
L 74.027131 294.606746 
L 75.387959 283.602047 
L 75.387959 283.602047 
L 76.748786 270.916125 
L 76.748786 270.916125 
L 78.109614 256.292182 
L 78.109614 256.292182 
L 79.470441 239.434108 
L 79.470441 239.434108 
L 80.831268 220.000614 
L 80.831268 220.000614 
L 82.192096 197.598247 
L 82.192096 197.598247 
L 83.552923 171.773469 
L 83.552923 171.773469 
L 84.913751 142.003428 
L 84.913751 142.003428 
L 87.441002 83.728801 
L 87.441002 83.728801 
L 88.218617 73.99388 
L 88.218617 73.99388 
L 88.996233 67.401046 
L 88.996233 67.401046 
L 89.773849 62.936171 
L 89.773849 62.936171 
L 90.551464 59.912443 
L 90.551464 59.912443 
L 91.32908 57.86465 
L 91.32908 57.86465 
L 92.106696 56.477844 
L 92.106696 56.477844 
L 92.884311 55.53862 
L 92.884311 55.53862 
L 93.661927 54.902582 
L 93.661927 54.902582 
L 94.633947 54.387897 
L 94.633947 54.387897 
L 94.828351 54.311783 
L 94.828351 54.311783 
L 95.022754 54.42612 
L 95.022754 54.42612 
L 95.994774 58.772002 
L 95.994774 58.772002 
L 96.577986 62.390611 
L 96.577986 62.390611 
L 97.550005 72.36346 
L 97.550005 72.36346 
L 97.938813 77.636137 
L 97.938813 77.636137 
L 98.327621 83.751391 
L 98.327621 83.751391 
L 98.910833 92.123244 
L 98.910833 92.123244 
L 99.299641 98.262629 
L 99.299641 98.262629 
L 100.27166 110.024175 
L 100.27166 110.024175 
L 101.826892 125.141242 
L 101.826892 125.141242 
L 102.2157 127.960517 
L 102.2157 127.960517 
L 102.798911 131.370712 
L 102.798911 131.370712 
L 103.770931 135.85984 
L 103.770931 135.85984 
L 104.74295 138.142688 
L 104.74295 138.142688 
L 105.131758 138.717641 
L 105.131758 138.717641 
L 105.520566 139.064947 
L 105.520566 139.064947 
L 106.492586 139.174386 
L 106.492586 139.174386 
L 108.242221 138.992341 
L 108.242221 138.992341 
L 108.631029 138.755199 
L 108.631029 138.755199 
L 109.408645 137.553129 
L 109.408645 137.553129 
L 110.18626 135.367381 
L 110.18626 135.367381 
L 110.769472 132.820901 
L 110.769472 132.820901 
L 111.741492 124.915016 
L 111.741492 124.915016 
L 112.324703 118.717237 
L 112.324703 118.717237 
L 113.685531 103.36829 
L 113.685531 103.36829 
L 114.463146 98.240403 
L 114.463146 98.240403 
L 115.240762 94.773145 
L 115.240762 94.773145 
L 116.212782 91.612672 
L 116.212782 91.612672 
L 116.990397 88.881728 
L 116.990397 88.881728 
L 117.768013 84.38513 
L 117.768013 84.38513 
L 118.156821 81.421338 
L 118.156821 81.421338 
L 119.323244 69.928747 
L 119.323244 69.928747 
L 119.906456 67.081833 
L 119.906456 67.081833 
L 120.489668 65.350623 
L 120.489668 65.350623 
L 121.267284 63.85973 
L 121.267284 63.85973 
L 122.239303 62.610728 
L 122.239303 62.610728 
L 122.822515 61.638965 
L 122.822515 61.638965 
L 123.211323 60.751966 
L 123.211323 60.751966 
L 123.988938 58.433223 
L 123.988938 58.433223 
L 124.766554 56.86289 
L 124.766554 56.86289 
L 125.54417 55.79941 
L 125.54417 55.79941 
L 126.321786 55.079577 
L 126.321786 55.079577 
L 127.293805 54.49664 
L 127.293805 54.49664 
L 128.460229 54.085558 
L 128.460229 54.085558 
L 130.01546 53.805384 
L 130.01546 53.805384 
L 132.348307 53.641725 
L 132.348307 53.641725 
L 137.402809 53.573867 
L 137.402809 53.573867 
L 137.597213 53.573322 
L 137.597213 53.573322 
L 137.986021 54.139899 
L 137.986021 54.139899 
L 138.374829 56.500373 
L 138.374829 56.500373 
L 141.096483 81.501232 
L 141.096483 81.501232 
L 141.679695 85.730206 
L 141.679695 85.730206 
L 142.068503 88.704007 
L 142.068503 88.704007 
L 143.234927 95.682371 
L 143.234927 95.682371 
L 144.206946 100.558662 
L 144.206946 100.558662 
L 145.762177 105.202498 
L 145.762177 105.202498 
L 146.928601 106.605966 
L 146.928601 106.605966 
L 147.317409 106.823301 
L 147.317409 106.823301 
L 147.900621 106.927599 
L 147.900621 106.927599 
L 148.289428 107.014872 
L 148.289428 107.014872 
L 150.427872 106.798686 
L 150.427872 106.798686 
L 151.788699 105.922875 
L 151.788699 105.922875 
L 152.371911 105.188617 
L 152.371911 105.188617 
L 153.149526 103.933899 
L 153.149526 103.933899 
L 153.538334 103.169493 
L 153.538334 103.169493 
L 154.704758 99.527357 
L 154.704758 99.527357 
L 155.28797 97.175471 
L 155.28797 97.175471 
L 155.871181 94.193142 
L 155.871181 94.193142 
L 156.648797 89.175207 
L 156.648797 89.175207 
L 157.232009 84.502008 
L 157.232009 84.502008 
L 158.009624 76.840099 
L 158.009624 76.840099 
L 158.78724 69.328634 
L 158.78724 69.328634 
L 159.564856 64.241601 
L 159.564856 64.241601 
L 160.342471 60.796509 
L 160.342471 60.796509 
L 161.120087 58.463372 
L 161.120087 58.463372 
L 161.897703 56.883302 
L 161.897703 56.883302 
L 162.675318 55.813229 
L 162.675318 55.813229 
L 163.452934 55.088528 
L 163.452934 55.088528 
L 164.424954 54.502144 
L 164.424954 54.502144 
L 165.591377 54.088612 
L 165.591377 54.088612 
L 167.146609 53.806775 
L 167.146609 53.806775 
L 169.479456 53.642209 
L 169.479456 53.642209 
L 173.367534 53.578584 
L 173.367534 53.578584 
L 173.561938 53.737344 
L 173.561938 53.737344 
L 173.756342 54.119366 
L 173.756342 54.119366 
L 174.922765 59.222517 
L 174.922765 59.222517 
L 175.311573 61.293141 
L 175.311573 61.293141 
L 175.700381 63.219792 
L 175.700381 63.219792 
L 178.033228 79.235228 
L 178.033228 79.235228 
L 178.422036 82.596797 
L 178.422036 82.596797 
L 179.199652 88.644192 
L 179.199652 88.644192 
L 180.171671 97.347325 
L 180.171671 97.347325 
L 180.949287 104.729786 
L 180.949287 104.729786 
L 181.338095 108.78745 
L 181.338095 108.78745 
L 185.226173 145.250963 
L 185.226173 145.250963 
L 185.420577 146.274224 
L 185.420577 146.274224 
L 186.003789 151.366609 
L 186.003789 151.366609 
L 186.587001 154.531951 
L 186.587001 154.531951 
L 187.170212 158.328069 
L 187.170212 158.328069 
L 188.142232 165.255569 
L 188.142232 165.255569 
L 188.336636 166.176256 
L 188.336636 166.176256 
L 188.725444 168.698756 
L 188.725444 168.698756 
L 189.308655 171.603913 
L 189.308655 171.603913 
L 189.891867 175.309523 
L 189.891867 175.309523 
L 190.280675 176.631041 
L 190.280675 176.631041 
L 190.863887 179.705904 
L 190.863887 179.705904 
L 192.807926 186.013848 
L 192.807926 186.013848 
L 193.974349 188.145223 
L 193.974349 188.145223 
L 195.140773 189.318444 
L 195.140773 189.318444 
L 196.307197 189.921642 
L 196.307197 189.921642 
L 197.084812 190.063891 
L 197.084812 190.063891 
L 198.251236 190.153704 
L 198.251236 190.153704 
L 199.028851 190.23393 
L 199.028851 190.23393 
L 199.806467 190.16087 
L 199.806467 190.16087 
L 200.584083 189.978402 
L 200.584083 189.978402 
L 200.972891 189.799351 
L 200.972891 189.799351 
L 201.556102 189.406957 
L 201.556102 189.406957 
L 202.139314 188.766958 
L 202.139314 188.766958 
L 202.528122 188.007359 
L 202.528122 188.007359 
L 203.111334 186.610241 
L 203.111334 186.610241 
L 203.305738 186.068038 
L 203.305738 186.068038 
L 203.888949 183.766864 
L 203.888949 183.766864 
L 204.666565 180.479323 
L 204.666565 180.479323 
L 205.249777 177.497084 
L 205.249777 177.497084 
L 205.444181 176.560642 
L 205.444181 176.560642 
L 206.027392 172.618677 
L 206.027392 172.618677 
L 206.4162 169.749747 
L 206.4162 169.749747 
L 206.999412 164.951778 
L 206.999412 164.951778 
L 208.165836 155.973159 
L 208.165836 155.973159 
L 208.554643 155.043763 
L 208.554643 155.043763 
L 209.137855 154.978294 
L 209.137855 154.978294 
L 209.526663 156.245531 
L 209.526663 156.245531 
L 210.304279 159.508729 
L 210.304279 159.508729 
L 211.665106 162.805978 
L 211.665106 162.805978 
L 212.637126 163.738247 
L 212.637126 163.738247 
L 213.803549 164.10651 
L 213.803549 164.10651 
L 215.747588 164.292637 
L 215.747588 164.292637 
L 216.719608 164.036383 
L 216.719608 164.036383 
L 217.497224 163.521759 
L 217.497224 163.521759 
L 218.663647 161.815679 
L 218.663647 161.815679 
L 219.246859 160.596553 
L 219.246859 160.596553 
L 220.607686 156.395068 
L 220.607686 156.395068 
L 221.77411 151.038838 
L 221.77411 151.038838 
L 223.329341 140.492759 
L 223.329341 140.492759 
L 224.884573 125.47373 
L 224.884573 125.47373 
L 225.856592 113.045998 
L 225.856592 113.045998 
L 227.21742 90.728333 
L 227.21742 90.728333 
L 227.995035 78.868659 
L 227.995035 78.868659 
L 228.772651 70.702407 
L 228.772651 70.702407 
L 229.550267 65.171965 
L 229.550267 65.171965 
L 230.327882 61.42659 
L 230.327882 61.42659 
L 231.105498 58.890089 
L 231.105498 58.890089 
L 231.883114 57.172275 
L 231.883114 57.172275 
L 232.660729 56.008943 
L 232.660729 56.008943 
L 233.438345 55.22107 
L 233.438345 55.22107 
L 234.410365 54.58358 
L 234.410365 54.58358 
L 235.576788 54.134002 
L 235.576788 54.134002 
L 237.13202 53.82758 
L 237.13202 53.82758 
L 239.464867 53.64862 
L 239.464867 53.64862 
L 242.769733 53.583392 
L 242.769733 53.583392 
L 242.964137 54.405739 
L 242.964137 54.405739 
L 243.936157 64.916014 
L 243.936157 64.916014 
L 244.324965 69.885141 
L 244.324965 69.885141 
L 246.269004 89.914 
L 246.269004 89.914 
L 246.657812 92.717309 
L 246.657812 92.717309 
L 247.046619 95.938716 
L 247.046619 95.938716 
L 248.990659 108.362275 
L 248.990659 108.362275 
L 249.379467 110.370211 
L 249.379467 110.370211 
L 249.768274 112.577882 
L 249.768274 112.577882 
L 250.157082 114.481823 
L 250.157082 114.481823 
L 250.740294 117.543411 
L 250.740294 117.543411 
L 254.628372 140.678856 
L 254.628372 140.678856 
L 254.822776 142.066297 
L 254.822776 142.066297 
L 255.211584 145.522729 
L 255.211584 145.522729 
L 255.600392 148.770959 
L 255.600392 148.770959 
L 256.183604 153.825031 
L 256.183604 153.825031 
L 256.766815 157.168123 
L 256.766815 157.168123 
L 257.350027 161.1266 
L 257.350027 161.1266 
L 257.933239 165.61473 
L 257.933239 165.61473 
L 258.127643 166.57869 
L 258.127643 166.57869 
L 258.322047 168.340987 
L 258.322047 168.340987 
L 258.710855 169.950662 
L 258.710855 169.950662 
L 259.48847 174.254116 
L 259.48847 174.254116 
L 261.821317 183.96282 
L 261.821317 183.96282 
L 263.570953 188.907483 
L 263.570953 188.907483 
L 264.154164 190.057722 
L 264.154164 190.057722 
L 264.737376 190.589855 
L 264.737376 190.589855 
L 265.320588 190.838246 
L 265.320588 190.838246 
L 265.9038 190.924914 
L 265.9038 190.924914 
L 266.875819 191.036591 
L 266.875819 191.036591 
L 268.819858 190.553658 
L 268.819858 190.553658 
L 269.791878 189.622205 
L 269.791878 189.622205 
L 269.986282 189.383854 
L 271.152705 186.478152 
L 271.152705 186.478152 
L 271.735917 183.636893 
L 271.735917 183.636893 
L 272.319129 180.170088 
L 272.319129 180.170088 
L 272.902341 175.075556 
L 272.902341 175.075556 
L 273.485553 169.835054 
L 273.485553 169.835054 
L 274.068764 167.342099 
L 274.068764 167.342099 
L 274.263168 167.231935 
L 274.263168 167.231935 
L 274.457572 166.988745 
L 274.457572 166.988745 
L 274.651976 166.93401 
L 275.429592 171.328275 
L 275.429592 171.328275 
L 275.8184 173.849777 
L 275.8184 173.849777 
L 276.207207 176.05391 
L 276.207207 176.05391 
L 276.984823 178.895835 
L 276.984823 178.895835 
L 277.373631 179.643036 
L 277.373631 179.643036 
L 277.956843 180.247412 
L 277.956843 180.247412 
L 278.540054 180.542222 
L 278.540054 180.542222 
L 279.900882 180.748882 
L 279.900882 180.748882 
L 281.650517 180.582683 
L 281.650517 180.582683 
L 282.039325 180.628315 
L 282.039325 180.628315 
L 282.622537 180.506418 
L 282.622537 180.506418 
L 283.400152 180.294012 
L 283.400152 180.294012 
L 283.78896 179.841501 
L 283.78896 179.841501 
L 284.372172 179.543516 
L 284.372172 179.543516 
L 284.76098 179.074856 
L 284.76098 179.074856 
L 285.149788 178.826072 
L 285.149788 178.826072 
L 285.538596 178.105876 
L 285.538596 178.105876 
L 285.927403 177.701658 
L 285.927403 177.701658 
L 286.316211 176.816835 
L 286.316211 176.816835 
L 286.510615 176.460638 
L 286.510615 176.460638 
L 287.677039 172.373551 
L 287.677039 172.373551 
L 288.26025 169.629664 
L 288.26025 169.629664 
L 288.843462 166.125453 
L 288.843462 166.125453 
L 289.426674 162.195281 
L 289.426674 162.195281 
L 290.981905 147.553618 
L 290.981905 147.553618 
L 291.565117 140.524874 
L 291.565117 140.524874 
L 294.286772 101.861129 
L 294.286772 101.861129 
L 294.869984 97.244902 
L 294.869984 97.244902 
L 295.453195 94.207082 
L 295.453195 94.207082 
L 296.036407 92.250071 
L 296.036407 92.250071 
L 296.619619 90.90176 
L 296.619619 90.90176 
L 297.202831 89.9241 
L 297.202831 89.9241 
L 297.980446 88.97021 
L 297.980446 88.97021 
L 299.14687 87.757011 
L 299.14687 87.757011 
L 299.535678 87.233376 
L 299.535678 87.233376 
L 300.313293 85.382022 
L 300.313293 85.382022 
L 300.702101 84.073386 
L 300.702101 84.073386 
L 301.285313 80.963716 
L 301.285313 80.963716 
L 301.868525 76.672932 
L 301.868525 76.672932 
L 302.451737 72.600421 
L 302.451737 72.600421 
L 302.840544 71.368383 
L 302.840544 71.368383 
L 303.034948 71.433369 
L 303.034948 71.433369 
L 303.229352 71.690348 
L 303.61816 74.241788 
L 303.61816 74.241788 
L 304.201372 78.923182 
L 304.201372 78.923182 
L 304.784584 83.058985 
L 304.784584 83.058985 
L 305.562199 86.616026 
L 305.562199 86.616026 
L 306.145411 88.303388 
L 306.145411 88.303388 
L 306.534219 89.010066 
L 306.534219 89.010066 
L 306.923027 89.391604 
L 306.923027 89.391604 
L 308.283854 89.952133 
L 308.283854 89.952133 
L 309.839085 89.569869 
L 309.839085 89.569869 
L 310.227893 89.270342 
L 310.227893 89.270342 
L 310.616701 88.934345 
L 310.616701 88.934345 
L 311.394317 87.502088 
L 311.394317 87.502088 
L 312.56074 83.386848 
L 312.56074 83.386848 
L 313.727164 76.955314 
L 313.727164 76.955314 
L 314.699183 69.388419 
L 314.699183 69.388419 
L 315.476799 64.282092 
L 315.476799 64.282092 
L 316.254415 60.823937 
L 316.254415 60.823937 
L 317.03203 58.48194 
L 317.03203 58.48194 
L 317.809646 56.895882 
L 317.809646 56.895882 
L 318.587262 55.821757 
L 318.587262 55.821757 
L 319.364878 55.094304 
L 319.364878 55.094304 
L 320.336897 54.505712 
L 320.336897 54.505712 
L 321.503321 54.090608 
L 321.503321 54.090608 
L 323.058552 53.807682 
L 323.058552 53.807682 
L 323.836168 53.730328 
L 323.836168 53.730328 
L 324.613783 59.522196 
L 324.613783 59.522196 
L 325.780207 75.197523 
L 325.780207 75.197523 
L 326.557823 83.498584 
L 326.557823 83.498584 
L 326.94663 87.886227 
L 326.94663 87.886227 
L 327.335438 92.288022 
L 327.335438 92.288022 
L 329.279477 110.396762 
L 329.279477 110.396762 
L 329.668285 113.217761 
L 329.668285 113.217761 
L 330.057093 116.389211 
L 330.057093 116.389211 
L 330.834709 122.387587 
L 330.834709 122.387587 
L 331.417921 125.785958 
L 331.417921 125.785958 
L 332.001132 128.857556 
L 332.001132 128.857556 
L 333.556364 136.283563 
L 333.556364 136.283563 
L 334.917191 141.26149 
L 334.917191 141.26149 
L 335.500403 143.060558 
L 335.500403 143.060558 
L 336.083615 144.501615 
L 336.083615 144.501615 
L 336.666826 146.217645 
L 336.666826 146.217645 
L 336.86123 146.606652 
L 336.86123 146.606652 
L 337.444442 148.323347 
L 337.444442 148.323347 
L 337.83325 149.474372 
L 337.83325 149.474372 
L 339.582885 153.653056 
L 339.582885 153.653056 
L 339.971693 154.239379 
L 339.971693 154.239379 
L 341.138116 154.979443 
L 341.138116 154.979443 
L 341.526924 155.089668 
L 341.526924 155.089668 
L 342.887752 155.021507 
L 342.887752 155.021507 
L 343.859771 154.248723 
L 343.859771 154.248723 
L 344.248579 153.694001 
L 344.248579 153.694001 
L 344.637387 152.767719 
L 344.637387 152.767719 
L 345.220599 150.636555 
L 345.220599 150.636555 
L 345.609407 148.644495 
L 345.609407 148.644495 
L 346.970234 137.331258 
L 346.970234 137.331258 
L 347.359042 135.827029 
L 347.359042 135.827029 
L 347.553446 135.317002 
L 347.553446 135.317002 
L 347.942254 135.08497 
L 347.942254 135.08497 
L 348.719869 136.79347 
L 348.719869 136.79347 
L 349.108677 137.832697 
L 349.108677 137.832697 
L 349.691889 138.596227 
L 349.691889 138.596227 
L 350.663909 139.02621 
L 350.663909 139.02621 
L 351.441524 138.95448 
L 351.441524 138.95448 
L 352.21914 138.073408 
L 352.21914 138.073408 
L 352.996756 136.14842 
L 352.996756 136.14842 
L 353.774371 132.93164 
L 353.774371 132.93164 
L 354.357583 129.530094 
L 354.357583 129.530094 
L 355.71841 117.247241 
L 355.71841 117.247241 
L 358.245661 84.173723 
L 358.245661 84.173723 
L 359.023277 74.300967 
L 359.023277 74.300967 
L 359.800893 67.609037 
L 359.800893 67.609037 
L 360.578508 63.077028 
L 360.578508 63.077028 
L 360.967316 61.426257 
L 360.967316 61.426257 
L 361.16172 61.061472 
L 361.16172 61.061472 
L 361.356124 61.153281 
L 361.356124 61.153281 
L 361.550528 63.366062 
L 361.550528 63.366062 
L 361.939336 68.521347 
L 361.939336 68.521347 
L 362.328144 74.033525 
L 362.328144 74.033525 
L 362.716952 79.997155 
L 362.716952 79.997155 
L 365.049799 109.076211 
L 365.049799 109.076211 
L 366.410626 121.009581 
L 366.410626 121.009581 
L 367.965857 129.485369 
L 367.965857 129.485369 
L 368.354665 131.039735 
L 368.354665 131.039735 
L 368.937877 132.939805 
L 368.937877 132.939805 
L 370.1043 135.81445 
L 370.1043 135.81445 
L 370.687512 136.819325 
L 370.687512 136.819325 
L 371.853936 138.359085 
L 371.853936 138.359085 
L 373.020359 139.005374 
L 373.020359 139.005374 
L 373.797975 139.189929 
L 373.797975 139.189929 
L 374.381187 139.386852 
L 374.381187 139.386852 
L 376.325226 139.346119 
L 376.325226 139.346119 
L 377.491649 139.054272 
L 377.491649 139.054272 
L 377.880457 138.732912 
L 377.880457 138.732912 
L 378.269265 138.319531 
L 378.269265 138.319531 
L 378.658073 137.780685 
L 378.658073 137.780685 
L 379.046881 137.092543 
L 379.046881 137.092543 
L 379.630093 135.785903 
L 379.630093 135.785903 
L 380.213304 133.97359 
L 380.213304 133.97359 
L 381.574132 126.814632 
L 381.574132 126.814632 
L 382.157343 122.497782 
L 382.157343 122.497782 
L 382.740555 117.662678 
L 382.740555 117.662678 
L 383.906979 105.616907 
L 383.906979 105.616907 
L 384.878998 93.569321 
L 384.878998 93.569321 
L 386.239826 75.105714 
L 386.239826 75.105714 
L 387.017441 68.154022 
L 387.017441 68.154022 
L 387.795057 63.446138 
L 387.795057 63.446138 
L 388.572673 60.257784 
L 388.572673 60.257784 
L 389.350289 58.098527 
L 389.350289 58.098527 
L 390.127904 56.636211 
L 390.127904 56.636211 
L 390.90552 55.645911 
L 390.90552 55.645911 
L 391.877539 54.859339 
L 391.877539 54.859339 
L 392.849559 54.372293 
L 392.849559 54.372293 
L 394.015983 54.038655 
L 394.015983 54.038655 
L 395.765618 53.850442 
L 395.765618 53.850442 
L 396.932041 54.102129 
L 396.932041 54.102129 
L 397.709657 53.978871 
L 397.709657 53.978871 
L 398.487273 54.023112 
L 398.487273 54.023112 
" clip-path="url(#p88700d874b)" style="fill: none; stroke: #1f77b4; stroke-width: 1.5; stroke-linecap: square"/>
   </g>
   <g id="line2d_36">
    <path d="M 73.832727 53.597424 
L 73.832727 279.920448 
L 74.221535 276.882628 
L 74.221535 276.882628 
L 75.582363 263.170179 
L 75.582363 263.170179 
L 76.94319 247.362854 
L 76.94319 247.362854 
L 78.304017 229.140654 
L 78.304017 229.140654 
L 79.664845 208.134619 
L 79.664845 208.134619 
L 81.025672 183.919516 
L 81.025672 183.919516 
L 82.3865 156.005002 
L 82.3865 156.005002 
L 83.747327 123.826013 
L 83.747327 123.826013 
L 85.108155 86.730968 
L 85.108155 86.730968 
L 86.274578 53.568 
L 86.274578 53.568 
L 94.633947 53.568 
L 94.633947 53.568 
L 94.828351 54.643939 
L 94.828351 54.643939 
L 95.022754 56.695844 
L 95.022754 56.695844 
L 95.217158 56.810726 
L 95.217158 56.810726 
L 95.411562 57.424749 
L 95.411562 57.424749 
L 95.994774 62.099279 
L 95.994774 62.099279 
L 96.189178 63.192092 
L 96.189178 63.192092 
L 96.577986 67.665465 
L 96.577986 67.665465 
L 96.77239 71.423631 
L 96.77239 71.423631 
L 96.966794 70.650576 
L 96.966794 70.650576 
L 97.355602 77.10987 
L 97.355602 77.10987 
L 97.550005 82.313418 
L 97.550005 82.313418 
L 97.744409 81.156073 
L 97.744409 81.156073 
L 97.938813 84.552116 
L 97.938813 84.552116 
L 98.133217 90.866167 
L 98.133217 90.866167 
L 98.327621 91.17649 
L 98.327621 91.17649 
L 98.522025 93.847801 
L 98.522025 93.847801 
L 98.910833 103.87218 
L 98.910833 103.87218 
L 99.105237 102.254007 
L 99.105237 102.254007 
L 99.299641 105.83409 
L 99.299641 105.83409 
L 99.494045 106.922791 
L 99.494045 106.922791 
L 100.466064 120.148224 
L 100.466064 120.148224 
L 100.660468 119.284842 
L 100.660468 119.284842 
L 100.854872 122.415317 
L 100.854872 122.415317 
L 101.049276 122.911798 
L 101.24368 124.829135 
L 101.24368 124.829135 
L 101.438084 128.163699 
L 101.438084 128.163699 
L 101.632488 127.519497 
L 101.632488 127.519497 
L 101.826892 130.182733 
L 101.826892 130.182733 
L 102.021296 130.025395 
L 102.021296 130.025395 
L 102.2157 131.857485 
L 102.2157 131.857485 
L 102.410103 132.22599 
L 102.410103 132.22599 
L 102.798911 134.178163 
L 102.798911 134.178163 
L 102.993315 134.788437 
L 102.993315 134.788437 
L 103.187719 136.794861 
L 103.187719 136.794861 
L 103.382123 136.204455 
L 103.382123 136.204455 
L 103.576527 137.426484 
L 103.576527 137.426484 
L 103.770931 137.343777 
L 103.770931 137.343777 
L 103.965335 138.105644 
L 103.965335 138.105644 
L 104.159739 138.198027 
L 104.74295 139.192318 
L 104.74295 139.192318 
L 104.937354 139.12458 
L 105.131758 139.381772 
L 105.131758 139.381772 
L 105.71497 139.077013 
L 105.71497 139.077013 
L 105.909374 139.222346 
L 105.909374 139.222346 
L 106.103778 139.090651 
L 106.103778 139.090651 
L 106.298182 139.238192 
L 106.298182 139.238192 
L 106.492586 139.083363 
L 106.492586 139.083363 
L 106.68699 139.244512 
L 106.68699 139.244512 
L 106.881394 139.018045 
L 106.881394 139.018045 
L 107.075797 139.188659 
L 107.075797 139.188659 
L 107.270201 138.848187 
L 107.270201 138.848187 
L 107.464605 139.001564 
L 107.464605 139.001564 
L 108.047817 138.322132 
L 108.047817 138.322132 
L 108.242221 137.9829 
L 108.242221 137.9829 
L 108.436625 137.353877 
L 108.436625 137.353877 
L 108.631029 135.577368 
L 108.631029 135.577368 
L 108.825433 136.183408 
L 108.825433 136.183408 
L 109.019837 134.083663 
L 109.019837 134.083663 
L 109.214241 134.534028 
L 109.214241 134.534028 
L 109.408645 132.189913 
L 109.408645 132.189913 
L 109.603048 132.369781 
L 109.603048 132.369781 
L 109.797452 129.801256 
L 109.797452 129.801256 
L 109.991856 129.311126 
L 110.575068 123.460109 
L 110.575068 123.460109 
L 110.769472 116.939579 
L 110.769472 116.939579 
L 110.963876 118.192543 
L 110.963876 118.192543 
L 111.15828 111.584196 
L 111.15828 111.584196 
L 111.352684 112.167253 
L 111.352684 112.167253 
L 111.547088 105.552647 
L 111.741492 105.097262 
L 111.741492 105.097262 
L 111.935895 99.430256 
L 111.935895 99.430256 
L 112.130299 97.584437 
L 112.519107 88.368313 
L 112.519107 88.368313 
L 112.713511 89.006891 
L 112.713511 89.006891 
L 112.907915 86.167416 
L 112.907915 86.167416 
L 113.296723 85.746263 
L 113.296723 85.746263 
L 113.491127 87.067267 
L 113.491127 87.067267 
L 113.879935 87.610499 
L 113.879935 87.610499 
L 114.074339 87.26794 
L 114.074339 87.26794 
L 114.268743 87.712891 
L 114.268743 87.712891 
L 114.463146 87.663509 
L 114.463146 87.663509 
L 114.65755 87.262013 
L 114.65755 87.262013 
L 114.851954 87.62586 
L 114.851954 87.62586 
L 115.240762 87.196634 
L 115.240762 87.196634 
L 115.435166 87.492804 
L 115.435166 87.492804 
L 115.62957 86.995326 
L 115.823974 85.667851 
L 115.823974 85.667851 
L 116.018378 85.957368 
L 116.018378 85.957368 
L 116.212782 84.958057 
L 116.212782 84.958057 
L 116.407186 82.92602 
L 116.407186 82.92602 
L 116.60159 83.178161 
L 116.60159 83.178161 
L 116.795993 81.964781 
L 116.795993 81.964781 
L 116.990397 77.744094 
L 116.990397 77.744094 
L 117.184801 77.742582 
L 117.184801 77.742582 
L 117.379205 75.342826 
L 117.379205 75.342826 
L 117.573609 70.211068 
L 117.573609 70.211068 
L 117.768013 69.694569 
L 117.768013 69.694569 
L 118.156821 60.026115 
L 118.156821 60.026115 
L 118.351225 53.808499 
L 118.351225 53.808499 
L 118.545629 54.450282 
L 118.545629 54.450282 
L 118.740033 53.568 
L 118.740033 53.568 
L 118.934437 55.509257 
L 118.934437 55.509257 
L 119.128841 56.038638 
L 119.128841 56.038638 
L 119.517648 58.59912 
L 119.517648 58.59912 
L 119.712052 59.633842 
L 119.712052 59.633842 
L 120.295264 60.50424 
L 120.295264 60.50424 
L 120.489668 60.633939 
L 120.489668 60.633939 
L 120.684072 60.94151 
L 120.684072 60.94151 
L 120.878476 60.878701 
L 120.878476 60.878701 
L 121.07288 60.498222 
L 121.07288 60.498222 
L 121.267284 60.73996 
L 121.267284 60.73996 
L 121.461688 60.595776 
L 121.461688 60.595776 
L 121.656091 60.908367 
L 121.656091 60.908367 
L 122.044899 60.282248 
L 122.044899 60.282248 
L 122.433707 58.336999 
L 122.433707 58.336999 
L 122.628111 58.556269 
L 122.628111 58.556269 
L 123.016919 55.949733 
L 123.016919 55.949733 
L 123.211323 53.568 
L 123.211323 53.568 
L 137.402809 53.568 
L 137.402809 53.568 
L 137.597213 54.583883 
L 137.597213 54.583883 
L 137.791617 54.556576 
L 137.791617 54.556576 
L 138.569232 64.703184 
L 138.569232 64.703184 
L 138.763636 65.03909 
L 138.763636 65.03909 
L 139.541252 74.77129 
L 139.541252 74.77129 
L 139.735656 73.978669 
L 139.735656 73.978669 
L 139.93006 75.805438 
L 139.93006 75.805438 
L 140.318868 80.976901 
L 140.318868 80.976901 
L 140.513272 80.515862 
L 140.513272 80.515862 
L 141.096483 85.319698 
L 141.096483 85.319698 
L 141.485291 88.746343 
L 141.485291 88.746343 
L 141.679695 91.340482 
L 141.679695 91.340482 
L 141.874099 90.690291 
L 141.874099 90.690291 
L 142.262907 94.060116 
L 142.262907 94.060116 
L 142.457311 94.050742 
L 142.457311 94.050742 
L 142.846119 97.277168 
L 142.846119 97.277168 
L 143.040523 97.491025 
L 143.040523 97.491025 
L 143.42933 100.373351 
L 143.42933 100.373351 
L 143.623734 100.50054 
L 143.623734 100.50054 
L 144.790158 104.385836 
L 144.790158 104.385836 
L 145.37337 105.596132 
L 145.37337 105.596132 
L 145.567774 105.950544 
L 145.567774 105.950544 
L 145.762177 105.953448 
L 145.762177 105.953448 
L 146.150985 106.585675 
L 146.150985 106.585675 
L 146.345389 106.816376 
L 146.345389 106.816376 
L 146.734197 106.838965 
L 146.734197 106.838965 
L 146.928601 107.032895 
L 146.928601 107.032895 
L 147.317409 106.865607 
L 147.317409 106.865607 
L 147.511813 107.066552 
L 147.706217 106.948646 
L 147.900621 107.156727 
L 147.900621 107.156727 
L 148.289428 106.907882 
L 148.289428 106.907882 
L 148.483832 107.115268 
L 148.87264 106.774615 
L 148.87264 106.774615 
L 149.067044 107.005437 
L 149.067044 107.005437 
L 149.261448 106.769534 
L 149.261448 106.769534 
L 149.455852 106.957385 
L 149.455852 106.957385 
L 149.84466 106.313666 
L 149.84466 106.313666 
L 150.039064 106.543914 
L 150.039064 106.543914 
L 150.233468 106.179915 
L 150.427872 105.576657 
L 150.427872 105.576657 
L 150.622275 105.911505 
L 150.622275 105.911505 
L 150.816679 105.342751 
L 150.816679 105.342751 
L 151.011083 105.479587 
L 151.011083 105.479587 
L 151.399891 104.204668 
L 151.399891 104.204668 
L 151.594295 104.444804 
L 151.594295 104.444804 
L 151.788699 103.789261 
L 151.788699 103.789261 
L 151.983103 102.341068 
L 151.983103 102.341068 
L 152.177507 103.019018 
L 152.177507 103.019018 
L 152.371911 102.14735 
L 152.371911 102.14735 
L 152.566315 102.134982 
L 152.566315 102.134982 
L 152.760719 101.400543 
L 152.760719 101.400543 
L 152.955122 99.893472 
L 152.955122 99.893472 
L 153.149526 100.071072 
L 153.149526 100.071072 
L 153.34393 99.204182 
L 153.34393 99.204182 
L 153.538334 97.134859 
L 153.538334 97.134859 
L 153.732738 97.489786 
L 153.732738 97.489786 
L 153.927142 96.251518 
L 153.927142 96.251518 
L 154.121546 93.28576 
L 154.121546 93.28576 
L 154.31595 94.737643 
L 154.31595 94.737643 
L 154.510354 92.439978 
L 154.510354 92.439978 
L 154.704758 92.189409 
L 154.704758 92.189409 
L 154.899162 90.999647 
L 154.899162 90.999647 
L 155.093566 87.969236 
L 155.093566 87.969236 
L 155.28797 87.918977 
L 155.28797 87.918977 
L 155.482373 86.561775 
L 155.482373 86.561775 
L 155.676777 82.297663 
L 155.676777 82.297663 
L 155.871181 82.383303 
L 155.871181 82.383303 
L 156.065585 80.70713 
L 156.065585 80.70713 
L 156.259989 76.255197 
L 156.259989 76.255197 
L 156.454393 76.330676 
L 156.454393 76.330676 
L 156.648797 74.125092 
L 156.648797 74.125092 
L 156.843201 69.374055 
L 156.843201 69.374055 
L 157.037605 69.186718 
L 157.037605 69.186718 
L 158.009624 53.568 
L 158.009624 53.568 
L 173.17313 53.568 
L 173.17313 53.568 
L 173.367534 54.039865 
L 173.367534 54.039865 
L 173.561938 54.847092 
L 173.950746 57.694702 
L 173.950746 57.694702 
L 174.14515 58.00823 
L 174.14515 58.00823 
L 174.533958 59.785525 
L 174.533958 59.785525 
L 174.922765 62.789567 
L 174.922765 62.789567 
L 175.117169 62.898703 
L 175.117169 62.898703 
L 175.505977 65.202931 
L 175.505977 65.202931 
L 175.700381 67.025314 
L 175.700381 67.025314 
L 176.089189 68.632842 
L 176.089189 68.632842 
L 177.061208 75.923797 
L 177.061208 75.923797 
L 177.255612 78.31439 
L 177.255612 78.31439 
L 177.450016 78.447809 
L 177.450016 78.447809 
L 177.838824 82.451706 
L 177.838824 82.451706 
L 178.033228 85.500503 
L 178.033228 85.500503 
L 178.227632 84.892285 
L 178.227632 84.892285 
L 178.422036 86.462376 
L 178.422036 86.462376 
L 178.61644 89.864225 
L 178.61644 89.864225 
L 178.810844 89.696544 
L 178.810844 89.696544 
L 179.005248 91.293731 
L 179.005248 91.293731 
L 179.199652 94.314555 
L 179.199652 94.314555 
L 179.394056 95.033148 
L 179.394056 95.033148 
L 179.588459 96.679263 
L 179.588459 96.679263 
L 179.782863 99.902182 
L 179.977267 100.238995 
L 179.977267 100.238995 
L 180.171671 102.335111 
L 180.171671 102.335111 
L 180.366075 106.082088 
L 180.366075 106.082088 
L 180.560479 106.15158 
L 180.560479 106.15158 
L 180.754883 107.857449 
L 180.754883 107.857449 
L 180.949287 112.284433 
L 180.949287 112.284433 
L 181.143691 111.563451 
L 181.143691 111.563451 
L 181.338095 114.148004 
L 181.338095 114.148004 
L 181.532499 118.691745 
L 181.532499 118.691745 
L 181.726903 117.391365 
L 181.726903 117.391365 
L 181.921306 121.03728 
L 181.921306 121.03728 
L 182.11571 121.18715 
L 182.11571 121.18715 
L 182.893326 131.436333 
L 182.893326 131.436333 
L 183.08773 130.650818 
L 183.08773 130.650818 
L 183.282134 133.875521 
L 183.282134 133.875521 
L 183.476538 134.092433 
L 183.476538 134.092433 
L 183.670942 136.661109 
L 183.670942 136.661109 
L 183.865346 137.359653 
L 183.865346 137.359653 
L 184.448557 142.220884 
L 184.448557 142.220884 
L 184.642961 146.710043 
L 184.642961 146.710043 
L 184.837365 145.134811 
L 184.837365 145.134811 
L 185.031769 149.585715 
L 185.031769 149.585715 
L 185.226173 148.223706 
L 185.226173 148.223706 
L 185.420577 152.131016 
L 185.420577 152.131016 
L 185.614981 151.299628 
L 185.614981 151.299628 
L 185.809385 155.25381 
L 185.809385 155.25381 
L 186.003789 153.966252 
L 186.003789 153.966252 
L 186.975808 160.657366 
L 186.975808 160.657366 
L 187.170212 162.729048 
L 187.170212 162.729048 
L 187.364616 163.110616 
L 187.364616 163.110616 
L 187.55902 165.587846 
L 187.55902 165.587846 
L 187.753424 165.475263 
L 187.947828 168.481452 
L 187.947828 168.481452 
L 188.142232 167.930267 
L 188.142232 167.930267 
L 188.336636 171.188264 
L 188.336636 171.188264 
L 188.53104 170.21756 
L 188.53104 170.21756 
L 188.725444 171.126816 
L 188.725444 171.126816 
L 188.919848 172.946992 
L 188.919848 172.946992 
L 189.114251 173.308421 
L 189.114251 173.308421 
L 189.308655 175.678632 
L 189.308655 175.678632 
L 189.503059 175.538621 
L 189.503059 175.538621 
L 189.697463 178.036415 
L 189.697463 178.036415 
L 189.891867 177.193293 
L 189.891867 177.193293 
L 190.086271 177.913308 
L 190.086271 177.913308 
L 190.280675 179.843678 
L 190.280675 179.843678 
L 190.475079 179.807088 
L 190.475079 179.807088 
L 190.669483 182.099431 
L 190.669483 182.099431 
L 190.863887 181.578789 
L 190.863887 181.578789 
L 191.058291 182.146817 
L 191.058291 182.146817 
L 191.252695 183.201618 
L 191.252695 183.201618 
L 191.447099 183.213261 
L 191.447099 183.213261 
L 191.641502 185.074502 
L 191.641502 185.074502 
L 191.835906 184.766689 
L 191.835906 184.766689 
L 192.03031 185.120286 
L 192.224714 186.237926 
L 192.224714 186.237926 
L 192.419118 186.231636 
L 192.419118 186.231636 
L 192.613522 187.241894 
L 192.613522 187.241894 
L 192.807926 187.152021 
L 192.807926 187.152021 
L 193.00233 187.271257 
L 193.00233 187.271257 
L 193.196734 188.186803 
L 193.196734 188.186803 
L 193.391138 188.078816 
L 193.391138 188.078816 
L 193.779946 188.770859 
L 193.779946 188.770859 
L 194.168753 188.818396 
L 194.168753 188.818396 
L 194.363157 189.220225 
L 194.363157 189.220225 
L 194.557561 189.286148 
L 194.557561 189.286148 
L 194.751965 189.629796 
L 194.751965 189.629796 
L 195.140773 189.649331 
L 195.140773 189.649331 
L 195.335177 189.860769 
L 195.335177 189.860769 
L 195.723985 189.918497 
L 195.723985 189.918497 
L 195.918389 190.053881 
L 195.918389 190.053881 
L 196.5016 189.971508 
L 196.5016 189.971508 
L 196.890408 190.155336 
L 196.890408 190.155336 
L 197.084812 190.028782 
L 197.668024 190.252377 
L 197.668024 190.252377 
L 197.862428 189.891855 
L 197.862428 189.891855 
L 198.056832 190.191836 
L 198.056832 190.191836 
L 198.251236 190.277627 
L 198.251236 190.277627 
L 198.44564 190.108404 
L 198.44564 190.108404 
L 198.834447 190.302061 
L 198.834447 190.302061 
L 199.028851 189.784957 
L 199.028851 189.784957 
L 199.223255 190.15957 
L 199.223255 190.15957 
L 199.417659 190.235533 
L 199.417659 190.235533 
L 199.612063 189.728106 
L 199.612063 189.728106 
L 199.806467 189.94405 
L 199.806467 189.94405 
L 200.000871 189.993341 
L 200.195275 189.034642 
L 200.195275 189.034642 
L 200.389679 189.516819 
L 200.389679 189.516819 
L 200.584083 189.495379 
L 200.584083 189.495379 
L 200.778487 188.487903 
L 200.778487 188.487903 
L 200.972891 188.829101 
L 200.972891 188.829101 
L 201.167295 188.595588 
L 201.167295 188.595588 
L 201.361698 187.463372 
L 201.361698 187.463372 
L 201.556102 187.587295 
L 201.556102 187.587295 
L 201.750506 187.101369 
L 201.750506 187.101369 
L 202.333718 183.615211 
L 202.333718 183.615211 
L 202.528122 183.774515 
L 202.528122 183.774515 
L 202.722526 182.798247 
L 202.722526 182.798247 
L 202.91693 181.167494 
L 202.91693 181.167494 
L 203.111334 180.769959 
L 203.111334 180.769959 
L 203.305738 176.197974 
L 203.305738 176.197974 
L 203.500142 177.357466 
L 203.500142 177.357466 
L 203.694545 177.305756 
L 203.694545 177.305756 
L 203.888949 175.982544 
L 203.888949 175.982544 
L 204.083353 172.373309 
L 204.083353 172.373309 
L 204.277757 173.577496 
L 204.277757 173.577496 
L 204.472161 172.78663 
L 204.472161 172.78663 
L 204.666565 171.349534 
L 204.666565 171.349534 
L 204.860969 166.870204 
L 204.860969 166.870204 
L 205.055373 168.215491 
L 205.055373 168.215491 
L 205.249777 167.410169 
L 205.444181 159.207025 
L 205.444181 159.207025 
L 205.832989 162.457885 
L 205.832989 162.457885 
L 206.027392 160.168415 
L 206.027392 160.168415 
L 206.221796 153.010819 
L 206.221796 153.010819 
L 206.4162 155.254566 
L 206.4162 155.254566 
L 206.610604 153.27941 
L 206.610604 153.27941 
L 206.805008 144.939188 
L 206.805008 144.939188 
L 206.999412 147.718002 
L 206.999412 147.718002 
L 207.38822 141.845576 
L 207.38822 141.845576 
L 207.582624 141.875816 
L 207.582624 141.875816 
L 207.777028 146.727945 
L 207.777028 146.727945 
L 207.971432 145.656662 
L 207.971432 145.656662 
L 208.165836 151.257806 
L 208.165836 151.257806 
L 208.36024 150.239807 
L 208.36024 150.239807 
L 208.554643 154.699662 
L 208.554643 154.699662 
L 208.749047 153.90804 
L 208.749047 153.90804 
L 209.915471 160.758458 
L 209.915471 160.758458 
L 210.109875 160.634625 
L 210.109875 160.634625 
L 210.304279 160.980601 
L 210.304279 160.980601 
L 210.498683 161.874616 
L 210.498683 161.874616 
L 210.693087 161.990466 
L 210.693087 161.990466 
L 210.88749 163.0104 
L 210.88749 163.0104 
L 211.081894 162.773893 
L 211.081894 162.773893 
L 211.276298 162.960444 
L 211.276298 162.960444 
L 211.470702 163.569387 
L 211.665106 163.436028 
L 211.665106 163.436028 
L 212.248318 163.916149 
L 212.248318 163.916149 
L 212.83153 164.039468 
L 212.83153 164.039468 
L 213.025934 163.695578 
L 213.025934 163.695578 
L 213.220338 164.069556 
L 213.220338 164.069556 
L 213.609145 164.257256 
L 213.609145 164.257256 
L 213.803549 164.174882 
L 213.803549 164.174882 
L 213.997953 164.298624 
L 213.997953 164.298624 
L 214.192357 164.157041 
L 214.192357 164.157041 
L 214.386761 164.275733 
L 214.581165 164.080443 
L 214.581165 164.080443 
L 214.969973 164.320821 
L 214.969973 164.320821 
L 215.164377 164.020114 
L 215.164377 164.020114 
L 215.358781 164.437577 
L 215.358781 164.437577 
L 215.553185 164.235211 
L 215.553185 164.235211 
L 215.747588 163.848835 
L 215.747588 163.848835 
L 215.941992 163.984189 
L 215.941992 163.984189 
L 216.136396 163.273458 
L 216.136396 163.273458 
L 216.3308 163.587047 
L 216.3308 163.587047 
L 216.525204 163.541838 
L 216.525204 163.541838 
L 216.719608 162.869754 
L 216.719608 162.869754 
L 216.914012 162.953489 
L 216.914012 162.953489 
L 217.108416 161.931468 
L 217.108416 161.931468 
L 217.30282 162.16492 
L 217.497224 160.763387 
L 217.497224 160.763387 
L 217.691628 161.092247 
L 217.691628 161.092247 
L 217.886032 159.340958 
L 217.886032 159.340958 
L 218.080435 159.889693 
L 218.080435 159.889693 
L 218.274839 159.370896 
L 218.274839 159.370896 
L 218.469243 158.360486 
L 218.469243 158.360486 
L 218.663647 158.086693 
L 218.663647 158.086693 
L 218.858051 156.521108 
L 218.858051 156.521108 
L 219.052455 156.555854 
L 219.052455 156.555854 
L 219.246859 154.407695 
L 219.246859 154.407695 
L 219.441263 154.814423 
L 219.441263 154.814423 
L 219.635667 151.941381 
L 219.635667 151.941381 
L 219.830071 152.837664 
L 219.830071 152.837664 
L 220.024475 152.193855 
L 220.024475 152.193855 
L 220.218879 150.561288 
L 220.218879 150.561288 
L 220.413283 150.014881 
L 220.413283 150.014881 
L 220.607686 147.627161 
L 220.607686 147.627161 
L 220.80209 147.63076 
L 220.80209 147.63076 
L 220.996494 144.521332 
L 220.996494 144.521332 
L 221.190898 145.086215 
L 221.190898 145.086215 
L 221.385302 140.926733 
L 221.385302 140.926733 
L 221.579706 142.226358 
L 221.579706 142.226358 
L 221.77411 137.443206 
L 221.77411 137.443206 
L 221.968514 138.963643 
L 221.968514 138.963643 
L 222.162918 133.952361 
L 222.162918 133.952361 
L 222.357322 135.557803 
L 222.357322 135.557803 
L 222.551726 129.732157 
L 222.551726 129.732157 
L 222.74613 131.521186 
L 222.74613 131.521186 
L 222.940533 125.473942 
L 222.940533 125.473942 
L 223.134937 127.187976 
L 223.134937 127.187976 
L 223.329341 121.077621 
L 223.329341 121.077621 
L 223.523745 122.568271 
L 223.523745 122.568271 
L 223.718149 116.322199 
L 223.718149 116.322199 
L 223.912553 116.993799 
L 223.912553 116.993799 
L 224.106957 111.183788 
L 224.106957 111.183788 
L 224.301361 111.576182 
L 224.301361 111.576182 
L 224.495765 106.397522 
L 224.495765 106.397522 
L 224.690169 105.893844 
L 224.690169 105.893844 
L 224.884573 100.924838 
L 224.884573 100.924838 
L 225.078977 98.963078 
L 225.078977 98.963078 
L 225.273381 95.363218 
L 225.273381 95.363218 
L 225.467784 86.745151 
L 225.467784 86.745151 
L 225.662188 87.939238 
L 225.662188 87.939238 
L 225.856592 80.923255 
L 225.856592 80.923255 
L 226.050996 80.050226 
L 226.050996 80.050226 
L 226.2454 75.488825 
L 226.2454 75.488825 
L 226.439804 67.172129 
L 226.439804 67.172129 
L 226.634208 67.705472 
L 227.023016 54.32146 
L 227.023016 54.32146 
L 227.21742 55.508531 
L 227.21742 55.508531 
L 227.411824 53.568 
L 227.411824 53.568 
L 242.575329 53.568 
L 242.575329 53.568 
L 242.769733 55.972382 
L 242.769733 55.972382 
L 243.158541 64.408798 
L 243.158541 64.408798 
L 243.352945 63.348826 
L 243.352945 63.348826 
L 243.741753 69.449443 
L 243.741753 69.449443 
L 243.936157 73.779297 
L 243.936157 73.779297 
L 244.130561 73.539373 
L 244.130561 73.539373 
L 244.713772 81.583062 
L 244.713772 81.583062 
L 244.908176 81.669306 
L 246.0746 94.067797 
L 246.0746 94.067797 
L 246.269004 93.595267 
L 246.269004 93.595267 
L 246.657812 98.2779 
L 246.657812 98.2779 
L 246.852216 98.429252 
L 246.852216 98.429252 
L 247.046619 99.734682 
L 247.046619 99.734682 
L 247.241023 102.229301 
L 247.241023 102.229301 
L 247.435427 102.023578 
L 247.435427 102.023578 
L 247.824235 105.79248 
L 247.824235 105.79248 
L 248.018639 105.727494 
L 248.018639 105.727494 
L 248.213043 107.318935 
L 248.213043 107.318935 
L 248.407447 107.962533 
L 248.407447 107.962533 
L 248.601851 109.01679 
L 248.601851 109.01679 
L 248.796255 110.824356 
L 248.796255 110.824356 
L 248.990659 111.040753 
L 248.990659 111.040753 
L 249.379467 114.463467 
L 249.379467 114.463467 
L 249.57387 114.099378 
L 249.57387 114.099378 
L 249.768274 115.950308 
L 249.768274 115.950308 
L 249.962678 115.897448 
L 249.962678 115.897448 
L 250.157082 117.052556 
L 250.157082 117.052556 
L 250.351486 119.215744 
L 250.351486 119.215744 
L 250.54589 119.16612 
L 250.54589 119.16612 
L 250.740294 120.810813 
L 250.740294 120.810813 
L 250.934698 121.383408 
L 250.934698 121.383408 
L 251.129102 122.692769 
L 251.129102 122.692769 
L 251.323506 125.03897 
L 251.323506 125.03897 
L 251.51791 124.770348 
L 251.51791 124.770348 
L 251.712314 126.559437 
L 251.712314 126.559437 
L 251.906717 126.944967 
L 251.906717 126.944967 
L 252.101121 128.154748 
L 252.101121 128.154748 
L 252.295525 131.030391 
L 252.295525 131.030391 
L 252.489929 130.137222 
L 252.489929 130.137222 
L 252.684333 132.844609 
L 252.684333 132.844609 
L 252.878737 132.48058 
L 252.878737 132.48058 
L 253.073141 134.788497 
L 253.073141 134.788497 
L 253.267545 134.943689 
L 253.267545 134.943689 
L 253.461949 136.961997 
L 253.461949 136.961997 
L 253.656353 137.590596 
L 253.656353 137.590596 
L 254.239565 142.121576 
L 254.239565 142.121576 
L 254.433968 143.024422 
L 254.433968 143.024422 
L 254.628372 144.709485 
L 254.628372 144.709485 
L 254.822776 148.8442 
L 254.822776 148.8442 
L 255.01718 147.662754 
L 255.01718 147.662754 
L 255.211584 151.920878 
L 255.211584 151.920878 
L 255.405988 150.763352 
L 255.405988 150.763352 
L 255.600392 154.662467 
L 255.600392 154.662467 
L 255.794796 153.633097 
L 255.794796 153.633097 
L 255.9892 157.731404 
L 255.9892 157.731404 
L 256.183604 156.541036 
L 256.183604 156.541036 
L 256.378008 157.738843 
L 256.378008 157.738843 
L 256.572412 159.802451 
L 256.572412 159.802451 
L 256.766815 160.5345 
L 256.766815 160.5345 
L 256.961219 162.912876 
L 256.961219 162.912876 
L 257.155623 163.452902 
L 257.155623 163.452902 
L 257.350027 165.960252 
L 257.350027 165.960252 
L 257.544431 165.922361 
L 257.544431 165.922361 
L 257.738835 168.941372 
L 257.738835 168.941372 
L 257.933239 168.415105 
L 257.933239 168.415105 
L 258.127643 171.698322 
L 258.322047 170.474177 
L 258.322047 170.474177 
L 258.516451 171.618307 
L 258.516451 171.618307 
L 258.710855 173.576377 
L 258.710855 173.576377 
L 258.905259 173.715179 
L 258.905259 173.715179 
L 259.099662 176.083213 
L 259.099662 176.083213 
L 259.294066 175.789583 
L 259.294066 175.789583 
L 259.877278 178.127558 
L 259.877278 178.127558 
L 260.071682 180.218533 
L 260.071682 180.218533 
L 260.266086 179.948187 
L 260.266086 179.948187 
L 260.46049 180.678756 
L 260.46049 180.678756 
L 260.654894 182.146303 
L 260.654894 182.146303 
L 260.849298 182.374101 
L 260.849298 182.374101 
L 261.043702 183.802608 
L 261.043702 183.802608 
L 261.238106 183.778779 
L 261.238106 183.778779 
L 261.43251 184.043651 
L 261.43251 184.043651 
L 261.626913 185.618853 
L 261.626913 185.618853 
L 261.821317 185.66385 
L 261.821317 185.66385 
L 262.015721 187.174943 
L 262.015721 187.174943 
L 262.210125 186.818292 
L 262.404529 187.372682 
L 262.404529 187.372682 
L 262.598933 188.347408 
L 262.598933 188.347408 
L 262.793337 188.442301 
L 262.793337 188.442301 
L 262.987741 189.335772 
L 262.987741 189.335772 
L 263.182145 189.336074 
L 263.182145 189.336074 
L 263.376549 189.552744 
L 263.376549 189.552744 
L 263.570953 190.161475 
L 263.570953 190.161475 
L 263.765357 190.358096 
L 263.765357 190.358096 
L 263.95976 190.758473 
L 263.95976 190.758473 
L 264.348568 190.657532 
L 264.348568 190.657532 
L 264.542972 190.948199 
L 264.542972 190.948199 
L 265.9038 191.031057 
L 265.9038 191.031057 
L 266.098204 191.096436 
L 266.292608 190.944752 
L 266.292608 190.944752 
L 266.681415 191.090902 
L 266.681415 191.090902 
L 266.875819 190.614017 
L 266.875819 190.614017 
L 267.070223 190.960386 
L 267.070223 190.960386 
L 267.264627 191.027942 
L 267.264627 191.027942 
L 267.459031 190.196765 
L 267.459031 190.196765 
L 267.653435 190.681089 
L 267.847839 190.769208 
L 267.847839 190.769208 
L 268.042243 189.284213 
L 268.042243 189.284213 
L 268.236647 190.026 
L 268.236647 190.026 
L 268.431051 190.208408 
L 268.431051 190.208408 
L 268.625455 189.761914 
L 268.625455 189.761914 
L 268.819858 188.773671 
L 268.819858 188.773671 
L 269.014262 189.145018 
L 269.014262 189.145018 
L 269.208666 188.620021 
L 269.208666 188.620021 
L 269.40307 187.011465 
L 269.40307 187.011465 
L 269.597474 187.582487 
L 269.791878 187.05486 
L 269.791878 187.05486 
L 269.986282 184.480831 
L 270.180686 185.347388 
L 270.180686 185.347388 
L 270.37509 184.509922 
L 270.37509 184.509922 
L 270.569494 181.290057 
L 270.763898 182.058939 
L 270.763898 182.058939 
L 270.958302 180.775644 
L 270.958302 180.775644 
L 271.152705 177.72594 
L 271.152705 177.72594 
L 271.347109 177.119477 
L 271.347109 177.119477 
L 271.541513 171.566355 
L 271.541513 171.566355 
L 271.735917 172.799119 
L 271.735917 172.799119 
L 272.124725 167.125067 
L 272.124725 167.125067 
L 272.319129 164.482332 
L 272.319129 164.482332 
L 272.513533 158.236775 
L 272.513533 158.236775 
L 272.707937 158.102237 
L 272.707937 158.102237 
L 272.902341 154.669876 
L 272.902341 154.669876 
L 273.096745 153.760075 
L 273.096745 153.760075 
L 273.291149 154.757753 
L 273.291149 154.757753 
L 273.485553 160.671457 
L 273.485553 160.671457 
L 273.679956 158.963532 
L 273.87436 160.385962 
L 273.87436 160.385962 
L 274.068764 166.1553 
L 274.068764 166.1553 
L 274.263168 164.612425 
L 274.263168 164.612425 
L 274.457572 166.399125 
L 274.457572 166.399125 
L 274.651976 169.955561 
L 274.651976 169.955561 
L 274.84638 169.94159 
L 274.84638 169.94159 
L 275.040784 173.533225 
L 275.040784 173.533225 
L 275.235188 173.226652 
L 275.235188 173.226652 
L 275.429592 175.995426 
L 275.429592 175.995426 
L 275.623996 175.592841 
L 275.623996 175.592841 
L 275.8184 177.790866 
L 275.8184 177.790866 
L 276.012803 177.668515 
L 276.012803 177.668515 
L 276.596015 179.244049 
L 276.596015 179.244049 
L 276.790419 180.329242 
L 276.790419 180.329242 
L 277.179227 180.186025 
L 277.179227 180.186025 
L 278.151247 180.737421 
L 278.151247 180.737421 
L 278.345651 180.63276 
L 278.345651 180.63276 
L 278.540054 180.674099 
L 278.540054 180.674099 
L 278.734458 180.37823 
L 278.734458 180.37823 
L 278.928862 180.76379 
L 278.928862 180.76379 
L 279.123266 180.878581 
L 279.512074 180.81414 
L 279.512074 180.81414 
L 279.706478 180.446331 
L 279.706478 180.446331 
L 279.900882 180.506811 
L 279.900882 180.506811 
L 280.095286 180.707181 
L 280.095286 180.707181 
L 280.678498 180.439829 
L 280.678498 180.439829 
L 280.872901 180.668837 
L 280.872901 180.668837 
L 281.067305 180.715679 
L 281.067305 180.715679 
L 281.261709 180.078915 
L 281.261709 180.078915 
L 281.456113 180.138488 
L 281.456113 180.138488 
L 281.650517 180.822335 
L 281.650517 180.822335 
L 282.039325 179.820151 
L 282.039325 179.820151 
L 282.428133 180.378744 
L 282.428133 180.378744 
L 282.622537 180.199058 
L 282.622537 180.199058 
L 282.816941 179.118704 
L 282.816941 179.118704 
L 283.011345 179.979153 
L 283.011345 179.979153 
L 283.205749 180.068301 
L 283.205749 180.068301 
L 283.400152 177.551758 
L 283.400152 177.551758 
L 283.594556 177.907532 
L 283.594556 177.907532 
L 283.78896 178.671152 
L 283.78896 178.671152 
L 283.983364 178.854981 
L 283.983364 178.854981 
L 284.177768 178.489803 
L 284.177768 178.489803 
L 284.372172 176.439622 
L 284.372172 176.439622 
L 284.76098 177.926553 
L 284.76098 177.926553 
L 284.955384 177.436634 
L 284.955384 177.436634 
L 285.149788 174.152903 
L 285.149788 174.152903 
L 285.538596 176.215967 
L 285.538596 176.215967 
L 285.732999 175.466287 
L 285.732999 175.466287 
L 285.927403 172.064377 
L 286.121807 173.284894 
L 286.121807 173.284894 
L 286.316211 172.979954 
L 286.316211 172.979954 
L 286.510615 169.555123 
L 286.510615 169.555123 
L 286.705019 170.955507 
L 286.705019 170.955507 
L 286.899423 169.483 
L 286.899423 169.483 
L 287.093827 166.752147 
L 287.093827 166.752147 
L 287.288231 166.683623 
L 287.288231 166.683623 
L 287.482635 162.475878 
L 287.482635 162.475878 
L 287.677039 163.817022 
L 287.677039 163.817022 
L 287.871443 162.12204 
L 287.871443 162.12204 
L 288.065846 159.159548 
L 288.065846 159.159548 
L 288.26025 158.645317 
L 288.26025 158.645317 
L 288.454654 153.964528 
L 288.454654 153.964528 
L 288.649058 155.134937 
L 288.649058 155.134937 
L 288.843462 153.398042 
L 288.843462 153.398042 
L 289.037866 149.512262 
L 289.037866 149.512262 
L 289.23227 149.337143 
L 289.23227 149.337143 
L 289.426674 143.715859 
L 289.426674 143.715859 
L 289.621078 144.70129 
L 289.621078 144.70129 
L 289.815482 137.264004 
L 289.815482 137.264004 
L 290.009886 139.465113 
L 290.009886 139.465113 
L 290.20429 137.239358 
L 290.20429 137.239358 
L 290.787501 125.577272 
L 290.787501 125.577272 
L 290.981905 124.453735 
L 290.981905 124.453735 
L 291.176309 118.289674 
L 291.176309 118.289674 
L 291.370713 117.401465 
L 291.370713 117.401465 
L 291.565117 110.214596 
L 291.565117 110.214596 
L 291.759521 109.102248 
L 291.759521 109.102248 
L 291.953925 102.833859 
L 291.953925 102.833859 
L 292.148329 101.908696 
L 292.148329 101.908696 
L 292.342733 96.708928 
L 292.342733 96.708928 
L 292.537137 95.457023 
L 292.537137 95.457023 
L 292.925944 89.621398 
L 292.925944 89.621398 
L 293.120348 87.300629 
L 293.120348 87.300629 
L 293.314752 82.438824 
L 293.314752 82.438824 
L 293.509156 82.755376 
L 293.509156 82.755376 
L 293.70356 80.266503 
L 293.70356 80.266503 
L 293.897964 80.063834 
L 294.67558 84.55644 
L 294.67558 84.55644 
L 295.453195 86.169018 
L 295.453195 86.169018 
L 295.647599 86.70605 
L 295.647599 86.70605 
L 295.842003 86.547018 
L 295.842003 86.547018 
L 296.036407 86.666648 
L 296.036407 86.666648 
L 296.230811 87.24154 
L 296.230811 87.24154 
L 296.425215 86.865173 
L 296.425215 86.865173 
L 296.619619 86.78918 
L 296.619619 86.78918 
L 296.814023 87.387297 
L 296.814023 87.387297 
L 297.008427 86.943737 
L 297.008427 86.943737 
L 297.202831 86.8408 
L 297.202831 86.8408 
L 297.397235 86.985287 
L 297.397235 86.985287 
L 297.591639 87.311939 
L 297.591639 87.311939 
L 297.786042 86.739254 
L 297.786042 86.739254 
L 298.17485 87.070745 
L 298.17485 87.070745 
L 298.369254 86.182898 
L 298.369254 86.182898 
L 298.563658 86.460471 
L 298.563658 86.460471 
L 298.758062 86.325752 
L 298.758062 86.325752 
L 298.952466 84.952644 
L 298.952466 84.952644 
L 299.14687 85.195109 
L 299.14687 85.195109 
L 299.341274 84.440802 
L 299.341274 84.440802 
L 299.535678 82.750265 
L 299.535678 82.750265 
L 299.730082 82.807298 
L 299.924486 81.597033 
L 299.924486 81.597033 
L 300.118889 79.39417 
L 300.118889 79.39417 
L 300.313293 78.951516 
L 300.313293 78.951516 
L 300.702101 74.266857 
L 300.702101 74.266857 
L 300.896505 70.366108 
L 300.896505 70.366108 
L 301.090909 71.082917 
L 301.090909 71.082917 
L 301.285313 67.842913 
L 301.479717 62.475646 
L 301.479717 62.475646 
L 301.674121 62.315676 
L 301.674121 62.315676 
L 301.868525 58.853136 
L 301.868525 58.853136 
L 302.062929 58.307697 
L 302.062929 58.307697 
L 302.257333 64.131467 
L 302.257333 64.131467 
L 302.451737 63.6505 
L 302.451737 63.6505 
L 302.840544 71.557201 
L 302.840544 71.557201 
L 303.034948 72.179873 
L 303.034948 72.179873 
L 303.61816 79.835432 
L 303.61816 79.835432 
L 303.812564 79.952309 
L 304.395776 84.870724 
L 304.395776 84.870724 
L 304.59018 85.092988 
L 304.59018 85.092988 
L 304.784584 85.902574 
L 304.784584 85.902574 
L 304.978987 87.199537 
L 304.978987 87.199537 
L 305.367795 87.918039 
L 305.367795 87.918039 
L 305.756603 89.025912 
L 305.756603 89.025912 
L 305.951007 89.115483 
L 305.951007 89.115483 
L 306.145411 89.650096 
L 306.145411 89.650096 
L 306.339815 89.473192 
L 306.339815 89.473192 
L 306.534219 89.688924 
L 306.534219 89.688924 
L 306.923027 89.647646 
L 306.923027 89.647646 
L 307.117431 89.889294 
L 307.117431 89.889294 
L 307.506238 89.686565 
L 307.506238 89.686565 
L 307.895046 90.162513 
L 307.895046 90.162513 
L 308.08945 90.045575 
L 308.08945 90.045575 
L 308.283854 89.538026 
L 308.283854 89.538026 
L 308.478258 89.795701 
L 308.478258 89.795701 
L 308.867066 89.284101 
L 308.867066 89.284101 
L 309.06147 89.550092 
L 309.06147 89.550092 
L 309.255874 89.25114 
L 309.255874 89.25114 
L 309.450278 88.632248 
L 309.450278 88.632248 
L 309.644682 88.866577 
L 309.839085 88.389965 
L 309.839085 88.389965 
L 310.033489 87.414029 
L 310.033489 87.414029 
L 310.227893 87.576055 
L 310.227893 87.576055 
L 310.422297 87.188318 
L 310.422297 87.188318 
L 310.616701 85.469174 
L 310.616701 85.469174 
L 310.811105 85.456896 
L 310.811105 85.456896 
L 311.199913 83.015289 
L 311.199913 83.015289 
L 311.394317 80.606582 
L 311.394317 80.606582 
L 311.588721 81.408577 
L 311.977529 76.855431 
L 311.977529 76.855431 
L 312.171932 77.331681 
L 312.171932 77.331681 
L 312.366336 75.6331 
L 312.56074 72.663925 
L 312.56074 72.663925 
L 312.755144 72.757669 
L 312.755144 72.757669 
L 313.727164 62.340715 
L 313.727164 62.340715 
L 313.921568 58.307183 
L 313.921568 58.307183 
L 314.115972 58.434372 
L 314.115972 58.434372 
L 314.50478 53.568 
L 314.50478 53.568 
L 323.641764 53.568 
L 323.641764 53.568 
L 323.836168 57.459344 
L 323.836168 57.459344 
L 324.030572 57.264538 
L 324.030572 57.264538 
L 324.808187 71.584992 
L 324.808187 71.584992 
L 325.002591 70.742052 
L 325.002591 70.742052 
L 325.196995 73.132494 
L 325.196995 73.132494 
L 325.585803 81.20104 
L 325.585803 81.20104 
L 325.780207 80.535004 
L 325.780207 80.535004 
L 325.974611 82.896052 
L 325.974611 82.896052 
L 326.169015 86.753467 
L 326.169015 86.753467 
L 326.363419 86.918759 
L 326.363419 86.918759 
L 326.752226 92.447205 
L 326.752226 92.447205 
L 326.94663 96.406649 
L 326.94663 96.406649 
L 327.141034 95.086371 
L 327.141034 95.086371 
L 327.529842 101.591963 
L 327.529842 101.591963 
L 327.724246 100.918457 
L 327.724246 100.918457 
L 327.91865 103.382261 
L 327.91865 103.382261 
L 328.113054 107.435933 
L 328.113054 107.435933 
L 328.307458 106.315813 
L 328.307458 106.315813 
L 328.501862 108.956098 
L 328.501862 108.956098 
L 328.696266 109.62912 
L 328.696266 109.62912 
L 328.89067 111.089137 
L 328.89067 111.089137 
L 329.085073 114.201649 
L 329.085073 114.201649 
L 329.279477 114.264246 
L 329.279477 114.264246 
L 329.473881 116.055845 
L 329.473881 116.055845 
L 329.668285 119.285235 
L 329.668285 119.285235 
L 329.862689 118.452214 
L 330.057093 121.232208 
L 330.057093 121.232208 
L 330.251497 121.442134 
L 330.251497 121.442134 
L 330.640305 125.815231 
L 330.640305 125.815231 
L 330.834709 125.269338 
L 330.834709 125.269338 
L 331.029113 127.679557 
L 331.029113 127.679557 
L 331.223517 127.550523 
L 331.417921 129.268155 
L 331.612324 129.413609 
L 331.612324 129.413609 
L 332.001132 131.755304 
L 332.001132 131.755304 
L 332.195536 132.575806 
L 332.195536 132.575806 
L 332.38994 134.77495 
L 332.38994 134.77495 
L 332.584344 134.362506 
L 332.584344 134.362506 
L 332.778748 136.020112 
L 332.778748 136.020112 
L 332.973152 136.043397 
L 332.973152 136.043397 
L 333.167556 137.305856 
L 333.167556 137.305856 
L 333.36196 137.597823 
L 333.36196 137.597823 
L 333.750768 139.032772 
L 333.750768 139.032772 
L 334.139575 140.411262 
L 334.139575 140.411262 
L 334.333979 140.878954 
L 334.333979 140.878954 
L 334.528383 142.577081 
L 334.528383 142.577081 
L 334.722787 142.308943 
L 334.722787 142.308943 
L 334.917191 143.314786 
L 334.917191 143.314786 
L 335.111595 143.103771 
L 335.111595 143.103771 
L 335.305999 144.396804 
L 335.305999 144.396804 
L 335.500403 144.34464 
L 335.500403 144.34464 
L 335.694807 145.284045 
L 335.694807 145.284045 
L 335.889211 145.236659 
L 335.889211 145.236659 
L 336.083615 146.509824 
L 336.083615 146.509824 
L 336.278019 146.528542 
L 336.278019 146.528542 
L 336.472422 147.293977 
L 336.472422 147.293977 
L 336.666826 147.347744 
L 336.666826 147.347744 
L 336.86123 148.581596 
L 336.86123 148.581596 
L 337.055634 148.647036 
L 337.055634 148.647036 
L 337.250038 149.406422 
L 337.250038 149.406422 
L 337.444442 149.611782 
L 337.444442 149.611782 
L 337.638846 150.822289 
L 337.638846 150.822289 
L 337.83325 150.886126 
L 337.83325 150.886126 
L 338.027654 151.54941 
L 338.027654 151.54941 
L 338.222058 151.650442 
L 338.222058 151.650442 
L 338.416462 152.738054 
L 338.416462 152.738054 
L 338.610866 152.819641 
L 338.610866 152.819641 
L 338.805269 153.539988 
L 338.805269 153.539988 
L 338.999673 153.614863 
L 338.999673 153.614863 
L 339.194077 154.18401 
L 339.194077 154.18401 
L 339.388481 154.254136 
L 339.388481 154.254136 
L 339.582885 154.644504 
L 339.777289 154.706255 
L 339.777289 154.706255 
L 339.971693 154.650673 
L 339.971693 154.650673 
L 340.166097 154.976147 
L 340.166097 154.976147 
L 340.943713 155.119545 
L 340.943713 155.119545 
L 341.138116 155.247672 
L 341.138116 155.247672 
L 341.526924 155.00176 
L 341.526924 155.00176 
L 341.721328 155.128677 
L 341.721328 155.128677 
L 341.915732 155.006417 
L 341.915732 155.006417 
L 342.30454 155.148756 
L 342.30454 155.148756 
L 342.498944 154.399621 
L 342.498944 154.399621 
L 342.693348 154.835833 
L 342.693348 154.835833 
L 342.887752 153.578847 
L 342.887752 153.578847 
L 343.082156 154.206992 
L 343.082156 154.206992 
L 343.27656 152.154452 
L 343.27656 152.154452 
L 343.470964 153.172905 
L 343.470964 153.172905 
L 344.054175 150.757515 
L 344.054175 150.757515 
L 345.220599 140.822617 
L 345.220599 140.822617 
L 345.415003 138.082147 
L 345.415003 138.082147 
L 345.609407 130.273907 
L 345.609407 130.273907 
L 345.803811 131.878079 
L 345.998214 123.954231 
L 345.998214 123.954231 
L 346.192618 125.447452 
L 346.192618 125.447452 
L 346.387022 122.469931 
L 346.387022 122.469931 
L 346.581426 121.847682 
L 346.581426 121.847682 
L 346.77583 127.212349 
L 346.77583 127.212349 
L 346.970234 126.092048 
L 346.970234 126.092048 
L 347.164638 131.324505 
L 347.164638 131.324505 
L 347.359042 130.33348 
L 347.359042 130.33348 
L 347.553446 134.243935 
L 347.553446 134.243935 
L 347.74785 133.791273 
L 347.74785 133.791273 
L 347.942254 136.206179 
L 347.942254 136.206179 
L 348.136658 136.106689 
L 348.136658 136.106689 
L 348.331062 137.458719 
L 348.331062 137.458719 
L 348.525465 137.736081 
L 348.525465 137.736081 
L 348.719869 138.534296 
L 348.719869 138.534296 
L 349.497485 138.9872 
L 349.497485 138.9872 
L 349.691889 138.881753 
L 349.691889 138.881753 
L 349.886293 139.046954 
L 349.886293 139.046954 
L 350.080697 138.924482 
L 350.080697 138.924482 
L 350.469505 139.199697 
L 350.469505 139.199697 
L 351.24712 138.516152 
L 351.24712 138.516152 
L 351.441524 136.602716 
L 351.441524 136.602716 
L 351.635928 137.292036 
L 351.635928 137.292036 
L 351.830332 135.115422 
L 351.830332 135.115422 
L 352.024736 136.070522 
L 352.024736 136.070522 
L 352.21914 133.115862 
L 352.21914 133.115862 
L 352.413544 133.686612 
L 352.413544 133.686612 
L 352.607948 130.86274 
L 352.607948 130.86274 
L 352.802352 131.190905 
L 352.802352 131.190905 
L 352.996756 128.070228 
L 352.996756 128.070228 
L 353.191159 127.977693 
L 353.191159 127.977693 
L 353.385563 125.049735 
L 353.385563 125.049735 
L 353.579967 124.322403 
L 353.579967 124.322403 
L 353.968775 120.054208 
L 353.968775 120.054208 
L 354.163179 117.520187 
L 354.357583 111.154818 
L 354.357583 111.154818 
L 354.551987 112.738971 
L 354.551987 112.738971 
L 354.746391 106.590695 
L 354.746391 106.590695 
L 354.940795 107.046714 
L 354.940795 107.046714 
L 355.135199 102.427191 
L 355.135199 102.427191 
L 355.329603 101.32827 
L 355.329603 101.32827 
L 355.524007 97.99183 
L 355.524007 97.99183 
L 355.71841 90.723465 
L 355.71841 90.723465 
L 355.912814 92.705939 
L 355.912814 92.705939 
L 356.107218 86.485782 
L 356.107218 86.485782 
L 356.301622 86.295784 
L 356.301622 86.295784 
L 356.496026 82.082022 
L 356.496026 82.082022 
L 356.69043 74.95775 
L 356.69043 74.95775 
L 356.884834 76.548434 
L 356.884834 76.548434 
L 357.079238 71.444557 
L 357.079238 71.444557 
L 357.273642 70.227095 
L 357.273642 70.227095 
L 358.245661 53.651583 
L 358.245661 53.651583 
L 358.634469 53.568 
L 358.634469 53.568 
L 360.578508 53.568 
L 360.578508 53.568 
L 360.772912 53.92208 
L 360.772912 53.92208 
L 361.16172 61.328128 
L 361.16172 61.328128 
L 361.550528 73.511552 
L 361.550528 73.511552 
L 361.744932 71.689471 
L 362.13374 80.184371 
L 362.13374 80.184371 
L 362.328144 85.1877 
L 362.328144 85.1877 
L 362.522548 84.043691 
L 362.522548 84.043691 
L 362.911355 92.430361 
L 363.105759 92.216837 
L 363.688971 99.612694 
L 363.688971 99.612694 
L 364.272183 106.625229 
L 364.272183 106.625229 
L 364.466587 108.567998 
L 364.466587 108.567998 
L 364.660991 112.629744 
L 364.660991 112.629744 
L 364.855395 112.073661 
L 364.855395 112.073661 
L 365.049799 114.237696 
L 365.049799 114.237696 
L 365.244203 118.022806 
L 365.244203 118.022806 
L 365.438606 116.836037 
L 365.438606 116.836037 
L 365.63301 119.931918 
L 365.63301 119.931918 
L 365.827414 120.031014 
L 365.827414 120.031014 
L 366.216222 124.590904 
L 366.216222 124.590904 
L 366.410626 124.302263 
L 366.410626 124.302263 
L 366.60503 126.393631 
L 366.60503 126.393631 
L 366.799434 126.476398 
L 366.799434 126.476398 
L 366.993838 128.041983 
L 366.993838 128.041983 
L 367.188242 128.13234 
L 367.57705 131.247998 
L 367.57705 131.247998 
L 367.771453 130.757808 
L 367.771453 130.757808 
L 367.965857 132.283627 
L 367.965857 132.283627 
L 368.160261 132.165903 
L 368.160261 132.165903 
L 368.354665 133.219464 
L 368.354665 133.219464 
L 368.549069 133.403384 
L 368.549069 133.403384 
L 368.937877 134.482378 
L 368.937877 134.482378 
L 369.132281 134.98542 
L 369.132281 134.98542 
L 369.326685 135.901752 
L 369.326685 135.901752 
L 369.521089 135.6784 
L 369.521089 135.6784 
L 369.715493 136.411145 
L 369.715493 136.411145 
L 369.909897 136.436063 
L 369.909897 136.436063 
L 370.1043 136.942402 
L 370.1043 136.942402 
L 370.298704 137.090154 
L 370.298704 137.090154 
L 370.881916 137.969806 
L 370.881916 137.969806 
L 371.07632 138.11783 
L 371.07632 138.11783 
L 371.270724 138.481134 
L 371.270724 138.481134 
L 371.465128 138.498764 
L 371.465128 138.498764 
L 371.659532 138.796567 
L 371.659532 138.796567 
L 371.853936 138.694356 
L 371.853936 138.694356 
L 372.04834 139.056299 
L 372.04834 139.056299 
L 372.242744 138.864637 
L 372.242744 138.864637 
L 372.437148 139.251951 
L 372.437148 139.251951 
L 372.631551 138.991313 
L 372.631551 138.991313 
L 372.825955 139.125851 
L 372.825955 139.125851 
L 373.020359 139.088383 
L 373.020359 139.088383 
L 373.214763 139.234442 
L 373.214763 139.234442 
L 373.409167 139.163651 
L 373.409167 139.163651 
L 373.797975 139.486402 
L 373.797975 139.486402 
L 373.992379 139.36647 
L 373.992379 139.36647 
L 374.186783 139.518759 
L 374.186783 139.518759 
L 374.381187 139.396589 
L 374.381187 139.396589 
L 374.575591 139.540864 
L 374.575591 139.540864 
L 374.769995 139.416759 
L 374.769995 139.416759 
L 374.964398 139.559008 
L 374.964398 139.559008 
L 375.158802 139.145174 
L 375.158802 139.145174 
L 375.353206 139.29583 
L 375.353206 139.29583 
L 375.54761 139.120226 
L 375.54761 139.120226 
L 375.742014 139.273633 
L 375.742014 139.273633 
L 375.936418 139.046592 
L 375.936418 139.046592 
L 376.130822 139.19507 
L 376.130822 139.19507 
L 376.325226 138.911237 
L 376.325226 138.911237 
L 376.51963 139.030413 
L 376.51963 139.030413 
L 376.714034 138.68855 
L 376.714034 138.68855 
L 376.908438 138.746127 
L 376.908438 138.746127 
L 377.102842 138.639077 
L 377.102842 138.639077 
L 377.491649 137.863089 
L 377.491649 137.863089 
L 377.686053 136.673538 
L 377.686053 136.673538 
L 377.880457 137.120183 
L 377.880457 137.120183 
L 378.074861 135.743265 
L 378.074861 135.743265 
L 378.269265 136.033841 
L 378.269265 136.033841 
L 378.463669 134.588943 
L 378.463669 134.588943 
L 378.658073 134.753903 
L 378.658073 134.753903 
L 378.852477 133.11429 
L 379.046881 133.16975 
L 379.046881 133.16975 
L 379.241285 131.477308 
L 379.241285 131.477308 
L 379.435689 131.34023 
L 379.435689 131.34023 
L 379.630093 129.605754 
L 379.630093 129.605754 
L 379.824496 128.90972 
L 379.824496 128.90972 
L 380.0189 127.588686 
L 380.0189 127.588686 
L 380.213304 123.488293 
L 380.213304 123.488293 
L 380.407708 124.325366 
L 380.407708 124.325366 
L 380.602112 120.804493 
L 380.602112 120.804493 
L 380.796516 121.405997 
L 380.796516 121.405997 
L 380.99092 117.9137 
L 380.99092 117.9137 
L 381.185324 117.917299 
L 381.185324 117.917299 
L 381.379728 114.71579 
L 381.574132 113.674476 
L 381.574132 113.674476 
L 381.768536 111.2306 
L 381.768536 111.2306 
L 381.96294 105.267393 
L 381.96294 105.267393 
L 382.157343 107.124643 
L 382.157343 107.124643 
L 382.351747 101.720089 
L 382.351747 101.720089 
L 382.546151 101.917224 
L 382.546151 101.917224 
L 382.740555 97.831225 
L 382.740555 97.831225 
L 382.934959 96.665443 
L 382.934959 96.665443 
L 383.129363 93.84771 
L 383.129363 93.84771 
L 383.323767 87.69765 
L 383.323767 87.69765 
L 383.518171 88.214361 
L 383.518171 88.214361 
L 383.712575 83.469887 
L 383.712575 83.469887 
L 383.906979 82.124872 
L 383.906979 82.124872 
L 384.101383 78.88136 
L 384.101383 78.88136 
L 384.295787 72.990184 
L 384.295787 72.990184 
L 384.490191 72.265725 
L 384.490191 72.265725 
L 384.684594 68.821631 
L 384.684594 68.821631 
L 384.878998 63.211687 
L 384.878998 63.211687 
L 385.073402 62.26829 
L 385.073402 62.26829 
L 385.46221 53.627845 
L 385.46221 53.627845 
L 385.851018 53.568 
L 385.851018 53.568 
L 390.711116 53.568 
L 390.711116 53.568 
L 390.90552 53.71288 
L 390.90552 53.71288 
L 391.683136 53.568 
L 391.683136 53.568 
L 392.266347 53.568 
L 392.266347 53.568 
L 393.627175 53.568 
L 393.627175 53.568 
L 393.821579 53.809164 
L 393.821579 53.809164 
L 394.210386 53.637945 
L 394.210386 53.637945 
L 394.793598 53.703505 
L 394.793598 53.703505 
L 394.988002 53.568 
L 394.988002 53.568 
L 395.37681 53.584692 
L 395.37681 53.584692 
L 395.765618 54.022205 
L 395.765618 54.022205 
L 396.154426 54.123418 
L 396.154426 54.123418 
L 396.543234 54.27102 
L 396.543234 54.27102 
L 396.737637 53.568 
L 396.737637 53.568 
L 397.126445 53.568 
L 397.126445 53.568 
L 397.515253 53.904722 
L 397.515253 53.904722 
L 398.292869 54.07446 
L 398.292869 54.07446 
L 398.487273 53.568 
L 398.487273 53.568 
" clip-path="url(#p88700d874b)" style="fill: none; stroke: #ff7f0e; stroke-width: 1.5; stroke-linecap: square"/>
   </g>
   <g id="patch_3">
    <path d="M 57.6 307.584 
L 57.6 41.472 
" style="fill: none; stroke: #000000; stroke-width: 0.8; stroke-linejoin: miter; stroke-linecap: square"/>
   </g>
   <g id="patch_4">
    <path d="M 414.72 307.584 
L 414.72 41.472 
" style="fill: none; stroke: #000000; stroke-width: 0.8; stroke-linejoin: miter; stroke-linecap: square"/>
   </g>
   <g id="patch_5">
    <path d="M 57.6 307.584 
L 414.72 307.584 
" style="fill: none; stroke: #000000; stroke-width: 0.8; stroke-linejoin: miter; stroke-linecap: square"/>
   </g>
   <g id="patch_6">
    <path d="M 57.6 41.472 
L 414.72 41.472 
" style="fill: none; stroke: #000000; stroke-width: 0.8; stroke-linejoin: miter; stroke-linecap: square"/>
   </g>
   <g id="text_20">
    <!-- Actual speed vs Expected speed -->
    <g transform="translate(138.808125 35.472) scale(0.12 -0.12)">
     <defs>
      <path id="DejaVuSans-41" d="M 2188 4044 
L 1331 1722 
L 3047 1722 
L 2188 4044 
z
M 1831 4666 
L 2547 4666 
L 4325 0 
L 3669 0 
L 3244 1197 
L 1141 1197 
L 716 0 
L 50 0 
L 1831 4666 
z
" transform="scale(0.015625)"/>
      <path id="DejaVuSans-75" d="M 544 1381 
L 544 3500 
L 1119 3500 
L 1119 1403 
Q 1119 906 1312 657 
Q 1506 409 1894 409 
Q 2359 409 2629 706 
Q 2900 1003 2900 1516 
L 2900 3500 
L 3475 3500 
L 3475 0 
L 2900 0 
L 2900 538 
Q 2691 219 2414 64 
Q 2138 -91 1772 -91 
Q 1169 -91 856 284 
Q 544 659 544 1381 
z
M 1991 3584 
L 1991 3584 
z
" transform="scale(0.015625)"/>
      <path id="DejaVuSans-61" d="M 2194 1759 
Q 1497 1759 1228 1600 
Q 959 1441 959 1056 
Q 959 750 1161 570 
Q 1363 391 1709 391 
Q 2188 391 2477 730 
Q 2766 1069 2766 1631 
L 2766 1759 
L 2194 1759 
z
M 3341 1997 
L 3341 0 
L 2766 0 
L 2766 531 
Q 2569 213 2275 61 
Q 1981 -91 1556 -91 
Q 1019 -91 701 211 
Q 384 513 384 1019 
Q 384 1609 779 1909 
Q 1175 2209 1959 2209 
L 2766 2209 
L 2766 2266 
Q 2766 2663 2505 2880 
Q 2244 3097 1772 3097 
Q 1472 3097 1187 3025 
Q 903 2953 641 2809 
L 641 3341 
Q 956 3463 1253 3523 
Q 1550 3584 1831 3584 
Q 2591 3584 2966 3190 
Q 3341 2797 3341 1997 
z
" transform="scale(0.015625)"/>
      <path id="DejaVuSans-20" transform="scale(0.015625)"/>
      <path id="DejaVuSans-70" d="M 1159 525 
L 1159 -1331 
L 581 -1331 
L 581 3500 
L 1159 3500 
L 1159 2969 
Q 1341 3281 1617 3432 
Q 1894 3584 2278 3584 
Q 2916 3584 3314 3078 
Q 3713 2572 3713 1747 
Q 3713 922 3314 415 
Q 2916 -91 2278 -91 
Q 1894 -91 1617 61 
Q 1341 213 1159 525 
z
M 3116 1747 
Q 3116 2381 2855 2742 
Q 2594 3103 2138 3103 
Q 1681 3103 1420 2742 
Q 1159 2381 1159 1747 
Q 1159 1113 1420 752 
Q 1681 391 2138 391 
Q 2594 391 2855 752 
Q 3116 1113 3116 1747 
z
" transform="scale(0.015625)"/>
      <path id="DejaVuSans-64" d="M 2906 2969 
L 2906 4863 
L 3481 4863 
L 3481 0 
L 2906 0 
L 2906 525 
Q 2725 213 2448 61 
Q 2172 -91 1784 -91 
Q 1150 -91 751 415 
Q 353 922 353 1747 
Q 353 2572 751 3078 
Q 1150 3584 1784 3584 
Q 2172 3584 2448 3432 
Q 2725 3281 2906 2969 
z
M 947 1747 
Q 947 1113 1208 752 
Q 1469 391 1925 391 
Q 2381 391 2643 752 
Q 2906 1113 2906 1747 
Q 2906 2381 2643 2742 
Q 2381 3103 1925 3103 
Q 1469 3103 1208 2742 
Q 947 2381 947 1747 
z
" transform="scale(0.015625)"/>
      <path id="DejaVuSans-76" d="M 191 3500 
L 800 3500 
L 1894 563 
L 2988 3500 
L 3597 3500 
L 2284 0 
L 1503 0 
L 191 3500 
z
" transform="scale(0.015625)"/>
      <path id="DejaVuSans-45" d="M 628 4666 
L 3578 4666 
L 3578 4134 
L 1259 4134 
L 1259 2753 
L 3481 2753 
L 3481 2222 
L 1259 2222 
L 1259 531 
L 3634 531 
L 3634 0 
L 628 0 
L 628 4666 
z
" transform="scale(0.015625)"/>
      <path id="DejaVuSans-78" d="M 3513 3500 
L 2247 1797 
L 3578 0 
L 2900 0 
L 1881 1375 
L 863 0 
L 184 0 
L 1544 1831 
L 300 3500 
L 978 3500 
L 1906 2253 
L 2834 3500 
L 3513 3500 
z
" transform="scale(0.015625)"/>
     </defs>
     <use xlink:href="#DejaVuSans-41"/>
     <use xlink:href="#DejaVuSans-63" x="66.658203"/>
     <use xlink:href="#DejaVuSans-74" x="121.638672"/>
     <use xlink:href="#DejaVuSans-75" x="160.847656"/>
     <use xlink:href="#DejaVuSans-61" x="224.226562"/>
     <use xlink:href="#DejaVuSans-6c" x="285.505859"/>
     <use xlink:href="#DejaVuSans-20" x="313.289062"/>
     <use xlink:href="#DejaVuSans-73" x="345.076172"/>
     <use xlink:href="#DejaVuSans-70" x="397.175781"/>
     <use xlink:href="#DejaVuSans-65" x="460.652344"/>
     <use xlink:href="#DejaVuSans-65" x="522.175781"/>
     <use xlink:href="#DejaVuSans-64" x="583.699219"/>
     <use xlink:href="#DejaVuSans-20" x="647.175781"/>
     <use xlink:href="#DejaVuSans-76" x="678.962891"/>
     <use xlink:href="#DejaVuSans-73" x="738.142578"/>
     <use xlink:href="#DejaVuSans-20" x="790.242188"/>
     <use xlink:href="#DejaVuSans-45" x="822.029297"/>
     <use xlink:href="#DejaVuSans-78" x="885.212891"/>
     <use xlink:href="#DejaVuSans-70" x="944.392578"/>
     <use xlink:href="#DejaVuSans-65" x="1007.869141"/>
     <use xlink:href="#DejaVuSans-63" x="1069.392578"/>
     <use xlink:href="#DejaVuSans-74" x="1124.373047"/>
     <use xlink:href="#DejaVuSans-65" x="1163.582031"/>
     <use xlink:href="#DejaVuSans-64" x="1225.105469"/>
     <use xlink:href="#DejaVuSans-20" x="1288.582031"/>
     <use xlink:href="#DejaVuSans-73" x="1320.369141"/>
     <use xlink:href="#DejaVuSans-70" x="1372.46875"/>
     <use xlink:href="#DejaVuSans-65" x="1435.945312"/>
     <use xlink:href="#DejaVuSans-65" x="1497.46875"/>
     <use xlink:href="#DejaVuSans-64" x="1558.992188"/>
    </g>
   </g>
   <g id="legend_1">
    <g id="patch_7">
     <path d="M 295.67 302.584 
L 407.72 302.584 
Q 409.72 302.584 409.72 300.584 
L 409.72 272.22775 
Q 409.72 270.22775 407.72 270.22775 
L 295.67 270.22775 
Q 293.67 270.22775 293.67 272.22775 
L 293.67 300.584 
Q 293.67 302.584 295.67 302.584 
z
" style="fill: #ffffff; opacity: 0.8; stroke: #cccccc; stroke-linejoin: miter"/>
    </g>
    <g id="line2d_37">
     <path d="M 297.67 278.326187 
L 307.67 278.326187 
L 317.67 278.326187 
" style="fill: none; stroke: #1f77b4; stroke-width: 1.5; stroke-linecap: square"/>
    </g>
    <g id="text_21">
     <!-- Actual speed -->
     <g transform="translate(325.67 281.826187) scale(0.1 -0.1)">
      <use xlink:href="#DejaVuSans-41"/>
      <use xlink:href="#DejaVuSans-63" x="66.658203"/>
      <use xlink:href="#DejaVuSans-74" x="121.638672"/>
      <use xlink:href="#DejaVuSans-75" x="160.847656"/>
      <use xlink:href="#DejaVuSans-61" x="224.226562"/>
      <use xlink:href="#DejaVuSans-6c" x="285.505859"/>
      <use xlink:href="#DejaVuSans-20" x="313.289062"/>
      <use xlink:href="#DejaVuSans-73" x="345.076172"/>
      <use xlink:href="#DejaVuSans-70" x="397.175781"/>
      <use xlink:href="#DejaVuSans-65" x="460.652344"/>
      <use xlink:href="#DejaVuSans-65" x="522.175781"/>
      <use xlink:href="#DejaVuSans-64" x="583.699219"/>
     </g>
    </g>
    <g id="line2d_38">
     <path d="M 297.67 293.004312 
L 307.67 293.004312 
L 317.67 293.004312 
" style="fill: none; stroke: #ff7f0e; stroke-width: 1.5; stroke-linecap: square"/>
    </g>
    <g id="text_22">
     <!-- Expected speed -->
     <g transform="translate(325.67 296.504312) scale(0.1 -0.1)">
      <use xlink:href="#DejaVuSans-45"/>
      <use xlink:href="#DejaVuSans-78" x="63.183594"/>
      <use xlink:href="#DejaVuSans-70" x="122.363281"/>
      <use xlink:href="#DejaVuSans-65" x="185.839844"/>
      <use xlink:href="#DejaVuSans-63" x="247.363281"/>
      <use xlink:href="#DejaVuSans-74" x="302.34375"/>
      <use xlink:href="#DejaVuSans-65" x="341.552734"/>
      <use xlink:href="#DejaVuSans-64" x="403.076172"/>
      <use xlink:href="#DejaVuSans-20" x="466.552734"/>
      <use xlink:href="#DejaVuSans-73" x="498.339844"/>
      <use xlink:href="#DejaVuSans-70" x="550.439453"/>
      <use xlink:href="#DejaVuSans-65" x="613.916016"/>
      <use xlink:href="#DejaVuSans-65" x="675.439453"/>
      <use xlink:href="#DejaVuSans-64" x="736.962891"/>
     </g>
    </g>
   </g>
  </g>
 </g>
 <defs>
  <clipPath id="p88700d874b">
   <rect x="57.6" y="41.472" width="357.12" height="266.112"/>
  </clipPath>
 </defs>
</svg>
