<?xml version="1.0" encoding="utf-8" standalone="no"?>
<!DOCTYPE svg PUBLIC "-//W3C//DTD SVG 1.1//EN"
  "http://www.w3.org/Graphics/SVG/1.1/DTD/svg11.dtd">
<svg xmlns:xlink="http://www.w3.org/1999/xlink" width="460.8pt" height="345.6pt" viewBox="0 0 460.8 345.6" xmlns="http://www.w3.org/2000/svg" version="1.1">
 <metadata>
  <rdf:RDF xmlns:dc="http://purl.org/dc/elements/1.1/" xmlns:cc="http://creativecommons.org/ns#" xmlns:rdf="http://www.w3.org/1999/02/22-rdf-syntax-ns#">
   <cc:Work>
    <dc:type rdf:resource="http://purl.org/dc/dcmitype/StillImage"/>
    <dc:date>2024-01-30T20:58:34.924349</dc:date>
    <dc:format>image/svg+xml</dc:format>
    <dc:creator>
     <cc:Agent>
      <dc:title>Matplotlib v3.7.1, https://matplotlib.org/</dc:title>
     </cc:Agent>
    </dc:creator>
   </cc:Work>
  </rdf:RDF>
 </metadata>
 <defs>
  <style type="text/css">*{stroke-linejoin: round; stroke-linecap: butt}</style>
 </defs>
 <g id="figure_1">
  <g id="patch_1">
   <path d="M 0 345.6 
L 460.8 345.6 
L 460.8 0 
L 0 0 
z
" style="fill: #ffffff"/>
  </g>
  <g id="axes_1">
   <g id="patch_2">
    <path d="M 57.6 307.584 
L 414.72 307.584 
L 414.72 41.472 
L 57.6 41.472 
z
" style="fill: #ffffff"/>
   </g>
   <g id="matplotlib.axis_1">
    <g id="xtick_1">
     <g id="line2d_1">
      <path d="M 73.832727 307.584 
L 73.832727 41.472 
" clip-path="url(#pe0f73128dd)" style="fill: none; stroke: #b0b0b0; stroke-width: 0.8; stroke-linecap: square"/>
     </g>
     <g id="line2d_2">
      <defs>
       <path id="m9c86368c34" d="M 0 0 
L 0 3.5 
" style="stroke: #000000; stroke-width: 0.8"/>
      </defs>
      <g>
       <use xlink:href="#m9c86368c34" x="73.832727" y="307.584" style="stroke: #000000; stroke-width: 0.8"/>
      </g>
     </g>
     <g id="text_1">
      <!-- 0 -->
      <g transform="translate(70.651477 322.182437) scale(0.1 -0.1)">
       <defs>
        <path id="DejaVuSans-30" d="M 2034 4250 
Q 1547 4250 1301 3770 
Q 1056 3291 1056 2328 
Q 1056 1369 1301 889 
Q 1547 409 2034 409 
Q 2525 409 2770 889 
Q 3016 1369 3016 2328 
Q 3016 3291 2770 3770 
Q 2525 4250 2034 4250 
z
M 2034 4750 
Q 2819 4750 3233 4129 
Q 3647 3509 3647 2328 
Q 3647 1150 3233 529 
Q 2819 -91 2034 -91 
Q 1250 -91 836 529 
Q 422 1150 422 2328 
Q 422 3509 836 4129 
Q 1250 4750 2034 4750 
z
" transform="scale(0.015625)"/>
       </defs>
       <use xlink:href="#DejaVuSans-30"/>
      </g>
     </g>
    </g>
    <g id="xtick_2">
     <g id="line2d_3">
      <path d="M 151.278945 307.584 
L 151.278945 41.472 
" clip-path="url(#pe0f73128dd)" style="fill: none; stroke: #b0b0b0; stroke-width: 0.8; stroke-linecap: square"/>
     </g>
     <g id="line2d_4">
      <g>
       <use xlink:href="#m9c86368c34" x="151.278945" y="307.584" style="stroke: #000000; stroke-width: 0.8"/>
      </g>
     </g>
     <g id="text_2">
      <!-- 5 -->
      <g transform="translate(148.097695 322.182437) scale(0.1 -0.1)">
       <defs>
        <path id="DejaVuSans-35" d="M 691 4666 
L 3169 4666 
L 3169 4134 
L 1269 4134 
L 1269 2991 
Q 1406 3038 1543 3061 
Q 1681 3084 1819 3084 
Q 2600 3084 3056 2656 
Q 3513 2228 3513 1497 
Q 3513 744 3044 326 
Q 2575 -91 1722 -91 
Q 1428 -91 1123 -41 
Q 819 9 494 109 
L 494 744 
Q 775 591 1075 516 
Q 1375 441 1709 441 
Q 2250 441 2565 725 
Q 2881 1009 2881 1497 
Q 2881 1984 2565 2268 
Q 2250 2553 1709 2553 
Q 1456 2553 1204 2497 
Q 953 2441 691 2322 
L 691 4666 
z
" transform="scale(0.015625)"/>
       </defs>
       <use xlink:href="#DejaVuSans-35"/>
      </g>
     </g>
    </g>
    <g id="xtick_3">
     <g id="line2d_5">
      <path d="M 228.725163 307.584 
L 228.725163 41.472 
" clip-path="url(#pe0f73128dd)" style="fill: none; stroke: #b0b0b0; stroke-width: 0.8; stroke-linecap: square"/>
     </g>
     <g id="line2d_6">
      <g>
       <use xlink:href="#m9c86368c34" x="228.725163" y="307.584" style="stroke: #000000; stroke-width: 0.8"/>
      </g>
     </g>
     <g id="text_3">
      <!-- 10 -->
      <g transform="translate(222.362663 322.182437) scale(0.1 -0.1)">
       <defs>
        <path id="DejaVuSans-31" d="M 794 531 
L 1825 531 
L 1825 4091 
L 703 3866 
L 703 4441 
L 1819 4666 
L 2450 4666 
L 2450 531 
L 3481 531 
L 3481 0 
L 794 0 
L 794 531 
z
" transform="scale(0.015625)"/>
       </defs>
       <use xlink:href="#DejaVuSans-31"/>
       <use xlink:href="#DejaVuSans-30" x="63.623047"/>
      </g>
     </g>
    </g>
    <g id="xtick_4">
     <g id="line2d_7">
      <path d="M 306.171381 307.584 
L 306.171381 41.472 
" clip-path="url(#pe0f73128dd)" style="fill: none; stroke: #b0b0b0; stroke-width: 0.8; stroke-linecap: square"/>
     </g>
     <g id="line2d_8">
      <g>
       <use xlink:href="#m9c86368c34" x="306.171381" y="307.584" style="stroke: #000000; stroke-width: 0.8"/>
      </g>
     </g>
     <g id="text_4">
      <!-- 15 -->
      <g transform="translate(299.808881 322.182437) scale(0.1 -0.1)">
       <use xlink:href="#DejaVuSans-31"/>
       <use xlink:href="#DejaVuSans-35" x="63.623047"/>
      </g>
     </g>
    </g>
    <g id="xtick_5">
     <g id="line2d_9">
      <path d="M 383.617599 307.584 
L 383.617599 41.472 
" clip-path="url(#pe0f73128dd)" style="fill: none; stroke: #b0b0b0; stroke-width: 0.8; stroke-linecap: square"/>
     </g>
     <g id="line2d_10">
      <g>
       <use xlink:href="#m9c86368c34" x="383.617599" y="307.584" style="stroke: #000000; stroke-width: 0.8"/>
      </g>
     </g>
     <g id="text_5">
      <!-- 20 -->
      <g transform="translate(377.255099 322.182437) scale(0.1 -0.1)">
       <defs>
        <path id="DejaVuSans-32" d="M 1228 531 
L 3431 531 
L 3431 0 
L 469 0 
L 469 531 
Q 828 903 1448 1529 
Q 2069 2156 2228 2338 
Q 2531 2678 2651 2914 
Q 2772 3150 2772 3378 
Q 2772 3750 2511 3984 
Q 2250 4219 1831 4219 
Q 1534 4219 1204 4116 
Q 875 4013 500 3803 
L 500 4441 
Q 881 4594 1212 4672 
Q 1544 4750 1819 4750 
Q 2544 4750 2975 4387 
Q 3406 4025 3406 3419 
Q 3406 3131 3298 2873 
Q 3191 2616 2906 2266 
Q 2828 2175 2409 1742 
Q 1991 1309 1228 531 
z
" transform="scale(0.015625)"/>
       </defs>
       <use xlink:href="#DejaVuSans-32"/>
       <use xlink:href="#DejaVuSans-30" x="63.623047"/>
      </g>
     </g>
    </g>
    <g id="text_6">
     <!-- Time(s) -->
     <g transform="translate(217.420156 335.860562) scale(0.1 -0.1)">
      <defs>
       <path id="DejaVuSans-54" d="M -19 4666 
L 3928 4666 
L 3928 4134 
L 2272 4134 
L 2272 0 
L 1638 0 
L 1638 4134 
L -19 4134 
L -19 4666 
z
" transform="scale(0.015625)"/>
       <path id="DejaVuSans-69" d="M 603 3500 
L 1178 3500 
L 1178 0 
L 603 0 
L 603 3500 
z
M 603 4863 
L 1178 4863 
L 1178 4134 
L 603 4134 
L 603 4863 
z
" transform="scale(0.015625)"/>
       <path id="DejaVuSans-6d" d="M 3328 2828 
Q 3544 3216 3844 3400 
Q 4144 3584 4550 3584 
Q 5097 3584 5394 3201 
Q 5691 2819 5691 2113 
L 5691 0 
L 5113 0 
L 5113 2094 
Q 5113 2597 4934 2840 
Q 4756 3084 4391 3084 
Q 3944 3084 3684 2787 
Q 3425 2491 3425 1978 
L 3425 0 
L 2847 0 
L 2847 2094 
Q 2847 2600 2669 2842 
Q 2491 3084 2119 3084 
Q 1678 3084 1418 2786 
Q 1159 2488 1159 1978 
L 1159 0 
L 581 0 
L 581 3500 
L 1159 3500 
L 1159 2956 
Q 1356 3278 1631 3431 
Q 1906 3584 2284 3584 
Q 2666 3584 2933 3390 
Q 3200 3197 3328 2828 
z
" transform="scale(0.015625)"/>
       <path id="DejaVuSans-65" d="M 3597 1894 
L 3597 1613 
L 953 1613 
Q 991 1019 1311 708 
Q 1631 397 2203 397 
Q 2534 397 2845 478 
Q 3156 559 3463 722 
L 3463 178 
Q 3153 47 2828 -22 
Q 2503 -91 2169 -91 
Q 1331 -91 842 396 
Q 353 884 353 1716 
Q 353 2575 817 3079 
Q 1281 3584 2069 3584 
Q 2775 3584 3186 3129 
Q 3597 2675 3597 1894 
z
M 3022 2063 
Q 3016 2534 2758 2815 
Q 2500 3097 2075 3097 
Q 1594 3097 1305 2825 
Q 1016 2553 972 2059 
L 3022 2063 
z
" transform="scale(0.015625)"/>
       <path id="DejaVuSans-28" d="M 1984 4856 
Q 1566 4138 1362 3434 
Q 1159 2731 1159 2009 
Q 1159 1288 1364 580 
Q 1569 -128 1984 -844 
L 1484 -844 
Q 1016 -109 783 600 
Q 550 1309 550 2009 
Q 550 2706 781 3412 
Q 1013 4119 1484 4856 
L 1984 4856 
z
" transform="scale(0.015625)"/>
       <path id="DejaVuSans-73" d="M 2834 3397 
L 2834 2853 
Q 2591 2978 2328 3040 
Q 2066 3103 1784 3103 
Q 1356 3103 1142 2972 
Q 928 2841 928 2578 
Q 928 2378 1081 2264 
Q 1234 2150 1697 2047 
L 1894 2003 
Q 2506 1872 2764 1633 
Q 3022 1394 3022 966 
Q 3022 478 2636 193 
Q 2250 -91 1575 -91 
Q 1294 -91 989 -36 
Q 684 19 347 128 
L 347 722 
Q 666 556 975 473 
Q 1284 391 1588 391 
Q 1994 391 2212 530 
Q 2431 669 2431 922 
Q 2431 1156 2273 1281 
Q 2116 1406 1581 1522 
L 1381 1569 
Q 847 1681 609 1914 
Q 372 2147 372 2553 
Q 372 3047 722 3315 
Q 1072 3584 1716 3584 
Q 2034 3584 2315 3537 
Q 2597 3491 2834 3397 
z
" transform="scale(0.015625)"/>
       <path id="DejaVuSans-29" d="M 513 4856 
L 1013 4856 
Q 1481 4119 1714 3412 
Q 1947 2706 1947 2009 
Q 1947 1309 1714 600 
Q 1481 -109 1013 -844 
L 513 -844 
Q 928 -128 1133 580 
Q 1338 1288 1338 2009 
Q 1338 2731 1133 3434 
Q 928 4138 513 4856 
z
" transform="scale(0.015625)"/>
      </defs>
      <use xlink:href="#DejaVuSans-54"/>
      <use xlink:href="#DejaVuSans-69" x="57.958984"/>
      <use xlink:href="#DejaVuSans-6d" x="85.742188"/>
      <use xlink:href="#DejaVuSans-65" x="183.154297"/>
      <use xlink:href="#DejaVuSans-28" x="244.677734"/>
      <use xlink:href="#DejaVuSans-73" x="283.691406"/>
      <use xlink:href="#DejaVuSans-29" x="335.791016"/>
     </g>
    </g>
   </g>
   <g id="matplotlib.axis_2">
    <g id="ytick_1">
     <g id="line2d_11">
      <path d="M 57.6 266.168901 
L 414.72 266.168901 
" clip-path="url(#pe0f73128dd)" style="fill: none; stroke: #b0b0b0; stroke-width: 0.8; stroke-linecap: square"/>
     </g>
     <g id="line2d_12">
      <defs>
       <path id="m4ef0ef820f" d="M 0 0 
L -3.5 0 
" style="stroke: #000000; stroke-width: 0.8"/>
      </defs>
      <g>
       <use xlink:href="#m4ef0ef820f" x="57.6" y="266.168901" style="stroke: #000000; stroke-width: 0.8"/>
      </g>
     </g>
     <g id="text_7">
      <!-- 4 -->
      <g transform="translate(44.2375 269.968119) scale(0.1 -0.1)">
       <defs>
        <path id="DejaVuSans-34" d="M 2419 4116 
L 825 1625 
L 2419 1625 
L 2419 4116 
z
M 2253 4666 
L 3047 4666 
L 3047 1625 
L 3713 1625 
L 3713 1100 
L 3047 1100 
L 3047 0 
L 2419 0 
L 2419 1100 
L 313 1100 
L 313 1709 
L 2253 4666 
z
" transform="scale(0.015625)"/>
       </defs>
       <use xlink:href="#DejaVuSans-34"/>
      </g>
     </g>
    </g>
    <g id="ytick_2">
     <g id="line2d_13">
      <path d="M 57.6 213.018676 
L 414.72 213.018676 
" clip-path="url(#pe0f73128dd)" style="fill: none; stroke: #b0b0b0; stroke-width: 0.8; stroke-linecap: square"/>
     </g>
     <g id="line2d_14">
      <g>
       <use xlink:href="#m4ef0ef820f" x="57.6" y="213.018676" style="stroke: #000000; stroke-width: 0.8"/>
      </g>
     </g>
     <g id="text_8">
      <!-- 5 -->
      <g transform="translate(44.2375 216.817894) scale(0.1 -0.1)">
       <use xlink:href="#DejaVuSans-35"/>
      </g>
     </g>
    </g>
    <g id="ytick_3">
     <g id="line2d_15">
      <path d="M 57.6 159.86845 
L 414.72 159.86845 
" clip-path="url(#pe0f73128dd)" style="fill: none; stroke: #b0b0b0; stroke-width: 0.8; stroke-linecap: square"/>
     </g>
     <g id="line2d_16">
      <g>
       <use xlink:href="#m4ef0ef820f" x="57.6" y="159.86845" style="stroke: #000000; stroke-width: 0.8"/>
      </g>
     </g>
     <g id="text_9">
      <!-- 6 -->
      <g transform="translate(44.2375 163.667669) scale(0.1 -0.1)">
       <defs>
        <path id="DejaVuSans-36" d="M 2113 2584 
Q 1688 2584 1439 2293 
Q 1191 2003 1191 1497 
Q 1191 994 1439 701 
Q 1688 409 2113 409 
Q 2538 409 2786 701 
Q 3034 994 3034 1497 
Q 3034 2003 2786 2293 
Q 2538 2584 2113 2584 
z
M 3366 4563 
L 3366 3988 
Q 3128 4100 2886 4159 
Q 2644 4219 2406 4219 
Q 1781 4219 1451 3797 
Q 1122 3375 1075 2522 
Q 1259 2794 1537 2939 
Q 1816 3084 2150 3084 
Q 2853 3084 3261 2657 
Q 3669 2231 3669 1497 
Q 3669 778 3244 343 
Q 2819 -91 2113 -91 
Q 1303 -91 875 529 
Q 447 1150 447 2328 
Q 447 3434 972 4092 
Q 1497 4750 2381 4750 
Q 2619 4750 2861 4703 
Q 3103 4656 3366 4563 
z
" transform="scale(0.015625)"/>
       </defs>
       <use xlink:href="#DejaVuSans-36"/>
      </g>
     </g>
    </g>
    <g id="ytick_4">
     <g id="line2d_17">
      <path d="M 57.6 106.718225 
L 414.72 106.718225 
" clip-path="url(#pe0f73128dd)" style="fill: none; stroke: #b0b0b0; stroke-width: 0.8; stroke-linecap: square"/>
     </g>
     <g id="line2d_18">
      <g>
       <use xlink:href="#m4ef0ef820f" x="57.6" y="106.718225" style="stroke: #000000; stroke-width: 0.8"/>
      </g>
     </g>
     <g id="text_10">
      <!-- 7 -->
      <g transform="translate(44.2375 110.517444) scale(0.1 -0.1)">
       <defs>
        <path id="DejaVuSans-37" d="M 525 4666 
L 3525 4666 
L 3525 4397 
L 1831 0 
L 1172 0 
L 2766 4134 
L 525 4134 
L 525 4666 
z
" transform="scale(0.015625)"/>
       </defs>
       <use xlink:href="#DejaVuSans-37"/>
      </g>
     </g>
    </g>
    <g id="ytick_5">
     <g id="line2d_19">
      <path d="M 57.6 53.568 
L 414.72 53.568 
" clip-path="url(#pe0f73128dd)" style="fill: none; stroke: #b0b0b0; stroke-width: 0.8; stroke-linecap: square"/>
     </g>
     <g id="line2d_20">
      <g>
       <use xlink:href="#m4ef0ef820f" x="57.6" y="53.568" style="stroke: #000000; stroke-width: 0.8"/>
      </g>
     </g>
     <g id="text_11">
      <!-- 8 -->
      <g transform="translate(44.2375 57.367219) scale(0.1 -0.1)">
       <defs>
        <path id="DejaVuSans-38" d="M 2034 2216 
Q 1584 2216 1326 1975 
Q 1069 1734 1069 1313 
Q 1069 891 1326 650 
Q 1584 409 2034 409 
Q 2484 409 2743 651 
Q 3003 894 3003 1313 
Q 3003 1734 2745 1975 
Q 2488 2216 2034 2216 
z
M 1403 2484 
Q 997 2584 770 2862 
Q 544 3141 544 3541 
Q 544 4100 942 4425 
Q 1341 4750 2034 4750 
Q 2731 4750 3128 4425 
Q 3525 4100 3525 3541 
Q 3525 3141 3298 2862 
Q 3072 2584 2669 2484 
Q 3125 2378 3379 2068 
Q 3634 1759 3634 1313 
Q 3634 634 3220 271 
Q 2806 -91 2034 -91 
Q 1263 -91 848 271 
Q 434 634 434 1313 
Q 434 1759 690 2068 
Q 947 2378 1403 2484 
z
M 1172 3481 
Q 1172 3119 1398 2916 
Q 1625 2713 2034 2713 
Q 2441 2713 2670 2916 
Q 2900 3119 2900 3481 
Q 2900 3844 2670 4047 
Q 2441 4250 2034 4250 
Q 1625 4250 1398 4047 
Q 1172 3844 1172 3481 
z
" transform="scale(0.015625)"/>
       </defs>
       <use xlink:href="#DejaVuSans-38"/>
      </g>
     </g>
    </g>
    <g id="text_12">
     <!-- Velocity(m/s) -->
     <g transform="translate(38.157812 207.204563) rotate(-90) scale(0.1 -0.1)">
      <defs>
       <path id="DejaVuSans-56" d="M 1831 0 
L 50 4666 
L 709 4666 
L 2188 738 
L 3669 4666 
L 4325 4666 
L 2547 0 
L 1831 0 
z
" transform="scale(0.015625)"/>
       <path id="DejaVuSans-6c" d="M 603 4863 
L 1178 4863 
L 1178 0 
L 603 0 
L 603 4863 
z
" transform="scale(0.015625)"/>
       <path id="DejaVuSans-6f" d="M 1959 3097 
Q 1497 3097 1228 2736 
Q 959 2375 959 1747 
Q 959 1119 1226 758 
Q 1494 397 1959 397 
Q 2419 397 2687 759 
Q 2956 1122 2956 1747 
Q 2956 2369 2687 2733 
Q 2419 3097 1959 3097 
z
M 1959 3584 
Q 2709 3584 3137 3096 
Q 3566 2609 3566 1747 
Q 3566 888 3137 398 
Q 2709 -91 1959 -91 
Q 1206 -91 779 398 
Q 353 888 353 1747 
Q 353 2609 779 3096 
Q 1206 3584 1959 3584 
z
" transform="scale(0.015625)"/>
       <path id="DejaVuSans-63" d="M 3122 3366 
L 3122 2828 
Q 2878 2963 2633 3030 
Q 2388 3097 2138 3097 
Q 1578 3097 1268 2742 
Q 959 2388 959 1747 
Q 959 1106 1268 751 
Q 1578 397 2138 397 
Q 2388 397 2633 464 
Q 2878 531 3122 666 
L 3122 134 
Q 2881 22 2623 -34 
Q 2366 -91 2075 -91 
Q 1284 -91 818 406 
Q 353 903 353 1747 
Q 353 2603 823 3093 
Q 1294 3584 2113 3584 
Q 2378 3584 2631 3529 
Q 2884 3475 3122 3366 
z
" transform="scale(0.015625)"/>
       <path id="DejaVuSans-74" d="M 1172 4494 
L 1172 3500 
L 2356 3500 
L 2356 3053 
L 1172 3053 
L 1172 1153 
Q 1172 725 1289 603 
Q 1406 481 1766 481 
L 2356 481 
L 2356 0 
L 1766 0 
Q 1100 0 847 248 
Q 594 497 594 1153 
L 594 3053 
L 172 3053 
L 172 3500 
L 594 3500 
L 594 4494 
L 1172 4494 
z
" transform="scale(0.015625)"/>
       <path id="DejaVuSans-79" d="M 2059 -325 
Q 1816 -950 1584 -1140 
Q 1353 -1331 966 -1331 
L 506 -1331 
L 506 -850 
L 844 -850 
Q 1081 -850 1212 -737 
Q 1344 -625 1503 -206 
L 1606 56 
L 191 3500 
L 800 3500 
L 1894 763 
L 2988 3500 
L 3597 3500 
L 2059 -325 
z
" transform="scale(0.015625)"/>
       <path id="DejaVuSans-2f" d="M 1625 4666 
L 2156 4666 
L 531 -594 
L 0 -594 
L 1625 4666 
z
" transform="scale(0.015625)"/>
      </defs>
      <use xlink:href="#DejaVuSans-56"/>
      <use xlink:href="#DejaVuSans-65" x="60.658203"/>
      <use xlink:href="#DejaVuSans-6c" x="122.181641"/>
      <use xlink:href="#DejaVuSans-6f" x="149.964844"/>
      <use xlink:href="#DejaVuSans-63" x="211.146484"/>
      <use xlink:href="#DejaVuSans-69" x="266.126953"/>
      <use xlink:href="#DejaVuSans-74" x="293.910156"/>
      <use xlink:href="#DejaVuSans-79" x="333.119141"/>
      <use xlink:href="#DejaVuSans-28" x="392.298828"/>
      <use xlink:href="#DejaVuSans-6d" x="431.3125"/>
      <use xlink:href="#DejaVuSans-2f" x="528.724609"/>
      <use xlink:href="#DejaVuSans-73" x="562.416016"/>
      <use xlink:href="#DejaVuSans-29" x="614.515625"/>
     </g>
    </g>
   </g>
   <g id="line2d_21">
    <path d="M 73.832727 54.29366 
L 75.691437 53.978001 
L 75.691437 53.978001 
L 78.4795 53.738559 
L 78.4795 53.738559 
L 83.126273 53.607544 
L 83.126273 53.607544 
L 93.039389 53.577673 
L 93.039389 53.577673 
L 93.658959 55.02623 
L 93.658959 55.02623 
L 94.278529 57.906759 
L 94.278529 57.906759 
L 95.517668 66.424189 
L 95.517668 66.424189 
L 95.827453 68.899395 
L 95.827453 68.899395 
L 96.447023 74.856951 
L 96.447023 74.856951 
L 97.066593 81.274893 
L 97.066593 81.274893 
L 97.686162 89.643343 
L 97.686162 89.643343 
L 98.305732 99.01123 
L 98.305732 99.01123 
L 98.615517 105.971092 
L 98.615517 105.971092 
L 99.235087 114.895281 
L 99.235087 114.895281 
L 99.854656 125.320538 
L 99.854656 125.320538 
L 102.332935 161.152294 
L 102.332935 161.152294 
L 102.64272 163.614212 
L 102.64272 163.614212 
L 102.952505 167.536912 
L 102.952505 167.536912 
L 104.191645 178.315884 
L 104.191645 178.315884 
L 104.50143 181.887473 
L 104.50143 181.887473 
L 104.811214 183.782437 
L 104.811214 183.782437 
L 105.120999 186.466418 
L 105.120999 186.466418 
L 106.979709 196.153843 
L 106.979709 196.153843 
L 107.909063 199.6245 
L 107.909063 199.6245 
L 109.148203 202.660122 
L 109.148203 202.660122 
L 109.767772 203.345441 
L 109.767772 203.345441 
L 110.077557 203.610235 
L 110.077557 203.610235 
L 111.316697 203.971444 
L 111.316697 203.971444 
L 112.555836 204.027518 
L 112.555836 204.027518 
L 113.175406 204.097198 
L 113.175406 204.097198 
L 113.485191 204.091617 
L 113.485191 204.091617 
L 115.034115 203.220378 
L 115.034115 203.220378 
L 115.3439 202.964088 
L 115.3439 202.964088 
L 116.58304 200.94725 
L 116.58304 200.94725 
L 117.512394 198.259815 
L 117.512394 198.259815 
L 118.131964 195.822558 
L 118.131964 195.822558 
L 118.751534 192.725707 
L 118.751534 192.725707 
L 119.990673 182.313525 
L 119.990673 182.313525 
L 120.920028 171.835011 
L 120.920028 171.835011 
L 122.159167 154.631718 
L 122.159167 154.631718 
L 123.088522 143.503868 
L 123.088522 143.503868 
L 124.017876 135.770085 
L 124.017876 135.770085 
L 124.947231 130.09481 
L 124.947231 130.09481 
L 125.876586 125.812975 
L 125.876586 125.812975 
L 127.115725 121.345646 
L 127.115725 121.345646 
L 128.04508 117.963431 
L 128.04508 117.963431 
L 128.66465 115.536592 
L 128.66465 115.536592 
L 129.594004 110.121275 
L 129.594004 110.121275 
L 130.523359 102.370537 
L 130.523359 102.370537 
L 132.382068 82.264551 
L 132.382068 82.264551 
L 133.001638 78.617914 
L 133.001638 78.617914 
L 133.621207 76.12655 
L 133.621207 76.12655 
L 134.550562 73.493807 
L 134.550562 73.493807 
L 135.479917 71.701315 
L 135.479917 71.701315 
L 136.409271 70.310427 
L 136.409271 70.310427 
L 137.338626 68.990813 
L 137.338626 68.990813 
L 138.577765 66.19947 
L 138.577765 66.19947 
L 139.50712 62.99786 
L 139.50712 62.99786 
L 140.436475 60.6078 
L 140.436475 60.6078 
L 141.365829 58.823494 
L 141.365829 58.823494 
L 142.295184 57.491443 
L 142.295184 57.491443 
L 143.224539 56.49764 
L 143.224539 56.49764 
L 144.463678 55.552045 
L 144.463678 55.552045 
L 145.702817 54.911691 
L 145.702817 54.911691 
L 147.251742 54.393476 
L 147.251742 54.393476 
L 149.110451 54.028068 
L 149.110451 54.028068 
L 151.58873 53.779006 
L 151.58873 53.779006 
L 155.615933 53.627475 
L 155.615933 53.627475 
L 161.501846 53.577354 
L 161.501846 53.577354 
L 162.121416 55.019639 
L 162.121416 55.019639 
L 162.431201 56.574017 
L 162.431201 56.574017 
L 163.05077 62.305791 
L 163.05077 62.305791 
L 163.67034 68.612862 
L 163.67034 68.612862 
L 164.599695 78.338025 
L 164.599695 78.338025 
L 164.90948 82.696024 
L 164.90948 82.696024 
L 165.529049 87.606946 
L 165.529049 87.606946 
L 166.148619 93.845294 
L 166.148619 93.845294 
L 166.768189 99.067888 
L 166.768189 99.067888 
L 167.387759 104.782016 
L 167.387759 104.782016 
L 168.936683 117.128441 
L 168.936683 117.128441 
L 169.246468 119.821935 
L 169.246468 119.821935 
L 169.866037 123.44694 
L 169.866037 123.44694 
L 170.485607 127.390421 
L 170.485607 127.390421 
L 172.034532 135.980401 
L 172.034532 135.980401 
L 173.273671 140.547971 
L 173.273671 140.547971 
L 173.893241 142.580755 
L 173.893241 142.580755 
L 175.13238 145.304757 
L 175.13238 145.304757 
L 175.75195 146.219473 
L 175.75195 146.219473 
L 176.681305 147.07163 
L 176.681305 147.07163 
L 178.230229 147.508419 
L 178.230229 147.508419 
L 178.540014 147.505549 
L 178.540014 147.505549 
L 179.159584 147.619556 
L 179.159584 147.619556 
L 181.328078 147.353486 
L 181.328078 147.353486 
L 182.257432 147.068122 
L 182.257432 147.068122 
L 182.877002 146.6915 
L 182.877002 146.6915 
L 183.496572 146.261621 
L 183.496572 146.261621 
L 185.355281 143.998644 
L 185.355281 143.998644 
L 185.974851 142.990809 
L 185.974851 142.990809 
L 186.904205 140.821004 
L 186.904205 140.821004 
L 187.523775 139.276778 
L 187.523775 139.276778 
L 188.762915 134.839212 
L 188.762915 134.839212 
L 189.382484 132.296133 
L 189.382484 132.296133 
L 190.931409 123.276487 
L 190.931409 123.276487 
L 191.860763 116.292919 
L 191.860763 116.292919 
L 192.790118 107.943232 
L 192.790118 107.943232 
L 193.719473 98.00887 
L 193.719473 98.00887 
L 195.268397 81.287968 
L 195.268397 81.287968 
L 196.197752 74.26204 
L 196.197752 74.26204 
L 197.127106 69.016963 
L 197.127106 69.016963 
L 198.056461 65.10128 
L 198.056461 65.10128 
L 198.985815 62.178018 
L 198.985815 62.178018 
L 199.91517 59.995722 
L 199.91517 59.995722 
L 200.844525 58.366562 
L 200.844525 58.366562 
L 201.773879 57.150325 
L 201.773879 57.150325 
L 202.703234 56.24236 
L 202.703234 56.24236 
L 203.942373 55.379679 
L 203.942373 55.379679 
L 205.181513 54.79694 
L 205.181513 54.79694 
L 206.730437 54.326454 
L 206.730437 54.326454 
L 208.589146 53.994637 
L 208.589146 53.994637 
L 211.37721 53.745522 
L 211.37721 53.745522 
L 215.714198 53.615144 
L 215.714198 53.615144 
L 218.502262 53.587612 
L 218.502262 53.587612 
L 218.812047 53.74786 
L 218.812047 53.74786 
L 219.121832 54.431053 
L 219.121832 54.431053 
L 221.909896 68.125847 
L 221.909896 68.125847 
L 224.69796 88.180436 
L 224.69796 88.180436 
L 225.007745 91.205216 
L 225.007745 91.205216 
L 225.627314 95.425769 
L 225.627314 95.425769 
L 226.246884 101.081697 
L 226.246884 101.081697 
L 226.866454 106.463848 
L 226.866454 106.463848 
L 227.176239 110.409987 
L 227.176239 110.409987 
L 227.795808 115.102407 
L 227.795808 115.102407 
L 228.105593 119.006291 
L 228.105593 119.006291 
L 228.725163 123.910994 
L 228.725163 123.910994 
L 229.034948 127.883123 
L 229.034948 127.883123 
L 229.654518 133.352281 
L 229.654518 133.352281 
L 229.964303 137.820727 
L 229.964303 137.820727 
L 230.583872 143.444127 
L 230.583872 143.444127 
L 230.893657 148.069685 
L 230.893657 148.069685 
L 231.203442 150.461711 
L 231.203442 150.461711 
L 233.062151 170.466127 
L 233.062151 170.466127 
L 233.681721 176.46312 
L 233.681721 176.46312 
L 233.991506 181.398597 
L 233.991506 181.398597 
L 234.301291 183.910157 
L 234.301291 183.910157 
L 234.611076 187.747179 
L 234.611076 187.747179 
L 234.920861 190.162006 
L 234.920861 190.162006 
L 235.54043 195.931994 
L 235.54043 195.931994 
L 238.638279 225.365473 
L 238.638279 225.365473 
L 239.257849 228.768629 
L 239.257849 228.768629 
L 241.116558 242.309393 
L 241.116558 242.309393 
L 241.426343 245.144479 
L 241.426343 245.144479 
L 241.736128 246.87978 
L 241.736128 246.87978 
L 242.045913 249.905251 
L 242.045913 249.905251 
L 242.355697 251.488277 
L 242.355697 251.488277 
L 242.665482 254.568279 
L 242.665482 254.568279 
L 243.285052 257.424147 
L 243.285052 257.424147 
L 244.833976 267.552933 
L 244.833976 267.552933 
L 245.453546 269.900578 
L 245.453546 269.900578 
L 246.382901 275.258493 
L 246.382901 275.258493 
L 248.86118 284.446679 
L 248.86118 284.446679 
L 250.410104 288.46659 
L 250.410104 288.46659 
L 251.959028 291.155885 
L 251.959028 291.155885 
L 253.507953 292.637341 
L 253.507953 292.637341 
L 254.437307 293.256594 
L 254.437307 293.256594 
L 255.366662 293.540151 
L 255.366662 293.540151 
L 256.296017 293.741058 
L 256.296017 293.741058 
L 257.535156 293.864739 
L 257.535156 293.864739 
L 258.464511 293.899393 
L 258.464511 293.899393 
L 259.08408 293.937076 
L 259.08408 293.937076 
L 260.013435 293.817807 
L 260.013435 293.817807 
L 260.633005 293.651607 
L 260.633005 293.651607 
L 260.94279 293.546794 
L 260.94279 293.546794 
L 262.491714 292.195981 
L 262.491714 292.195981 
L 263.111284 291.05272 
L 263.111284 291.05272 
L 263.421069 290.501127 
L 263.421069 290.501127 
L 265.279778 285.389989 
L 265.279778 285.389989 
L 265.899348 282.47624 
L 265.899348 282.47624 
L 266.518917 280.29437 
L 266.518917 280.29437 
L 267.138487 277.246311 
L 267.138487 277.246311 
L 267.448272 275.89013 
L 267.448272 275.89013 
L 268.067842 271.795012 
L 268.067842 271.795012 
L 268.377627 270.13816 
L 268.377627 270.13816 
L 268.997196 265.179775 
L 268.997196 265.179775 
L 269.306981 263.153263 
L 269.306981 263.153263 
L 269.926551 257.359889 
L 269.926551 257.359889 
L 270.236336 254.774874 
L 270.236336 254.774874 
L 271.16569 244.800756 
L 271.16569 244.800756 
L 271.78526 238.470192 
L 271.78526 238.470192 
L 272.40483 234.483553 
L 272.40483 234.483553 
L 273.334185 231.896519 
L 273.334185 231.896519 
L 273.953754 231.615195 
L 273.953754 231.615195 
L 274.263539 233.030958 
L 274.263539 233.030958 
L 274.573324 233.709048 
L 274.573324 233.709048 
L 274.883109 235.69591 
L 274.883109 235.69591 
L 275.502679 237.732892 
L 275.502679 237.732892 
L 276.432033 241.729205 
L 276.432033 241.729205 
L 277.051603 243.366976 
L 277.051603 243.366976 
L 277.980958 245.670772 
L 277.980958 245.670772 
L 279.220097 247.343622 
L 279.220097 247.343622 
L 280.149452 248.008851 
L 280.149452 248.008851 
L 282.317946 248.448244 
L 282.317946 248.448244 
L 284.176655 248.282096 
L 284.176655 248.282096 
L 285.725579 247.384867 
L 285.725579 247.384867 
L 286.654934 246.295872 
L 286.654934 246.295872 
L 287.584289 244.995073 
L 287.584289 244.995073 
L 287.894074 244.517944 
L 287.894074 244.517944 
L 288.513643 243.221397 
L 288.513643 243.221397 
L 289.442998 241.160604 
L 289.442998 241.160604 
L 291.611492 233.933555 
L 291.611492 233.933555 
L 294.089771 221.298737 
L 294.089771 221.298737 
L 295.019126 215.408257 
L 295.019126 215.408257 
L 296.877835 199.849697 
L 296.877835 199.849697 
L 298.736544 179.45686 
L 298.736544 179.45686 
L 299.665899 166.462958 
L 299.665899 166.462958 
L 301.524608 135.259099 
L 301.524608 135.259099 
L 304.002887 93.172784 
L 304.002887 93.172784 
L 304.932241 83.134567 
L 304.932241 83.134567 
L 305.861596 75.640598 
L 305.861596 75.640598 
L 306.790951 70.046111 
L 306.790951 70.046111 
L 307.720305 65.869566 
L 307.720305 65.869566 
L 308.64966 62.751615 
L 308.64966 62.751615 
L 309.579015 60.423954 
L 309.579015 60.423954 
L 310.508369 58.686207 
L 310.508369 58.686207 
L 311.437724 57.38897 
L 311.437724 57.38897 
L 312.367078 56.420519 
L 312.367078 56.420519 
L 313.606218 55.499798 
L 313.606218 55.499798 
L 314.845357 54.877196 
L 314.845357 54.877196 
L 316.394282 54.374448 
L 316.394282 54.374448 
L 318.252991 54.019671 
L 318.252991 54.019671 
L 321.35084 53.740207 
L 321.35084 53.740207 
L 325.997613 53.607916 
L 325.997613 53.607916 
L 326.617183 53.600847 
L 326.617183 53.600847 
L 327.236752 54.133625 
L 327.236752 54.133625 
L 327.546537 55.659833 
L 327.546537 55.659833 
L 327.856322 58.687589 
L 327.856322 58.687589 
L 330.024816 87.245418 
L 330.024816 87.245418 
L 330.644386 94.581212 
L 330.644386 94.581212 
L 330.954171 99.278469 
L 330.954171 99.278469 
L 331.57374 105.102033 
L 331.57374 105.102033 
L 332.19331 111.662791 
L 332.19331 111.662791 
L 334.671589 133.416806 
L 334.671589 133.416806 
L 337.769438 154.232613 
L 337.769438 154.232613 
L 343.965135 191.877323 
L 343.965135 191.877323 
L 344.27492 195.294883 
L 344.27492 195.294883 
L 344.584705 196.876793 
L 344.584705 196.876793 
L 344.89449 199.816851 
L 344.89449 199.816851 
L 345.204275 201.527172 
L 345.204275 201.527172 
L 345.51406 204.314529 
L 345.51406 204.314529 
L 345.823845 206.054508 
L 345.823845 206.054508 
L 346.753199 214.001689 
L 346.753199 214.001689 
L 347.062984 216.079863 
L 347.062984 216.079863 
L 347.992339 224.40356 
L 347.992339 224.40356 
L 348.302124 226.477907 
L 348.302124 226.477907 
L 349.231478 235.044288 
L 349.231478 235.044288 
L 349.541263 236.972153 
L 349.541263 236.972153 
L 349.851048 240.457532 
L 349.851048 240.457532 
L 350.160833 242.088925 
L 350.160833 242.088925 
L 350.470618 245.75475 
L 350.470618 245.75475 
L 351.090187 248.843097 
L 351.090187 248.843097 
L 352.019542 255.43027 
L 352.019542 255.43027 
L 352.329327 256.954831 
L 352.329327 256.954831 
L 352.639112 259.806978 
L 352.639112 259.806978 
L 353.258681 262.608208 
L 353.258681 262.608208 
L 354.188036 268.356458 
L 354.188036 268.356458 
L 354.807606 270.760389 
L 354.807606 270.760389 
L 356.046745 277.080855 
L 356.046745 277.080855 
L 356.9761 280.532218 
L 356.9761 280.532218 
L 357.285885 282.370152 
L 357.905455 284.249916 
L 357.905455 284.249916 
L 358.525024 286.521451 
L 358.525024 286.521451 
L 358.834809 287.889006 
L 358.834809 287.889006 
L 360.693518 292.314613 
L 360.693518 292.314613 
L 361.622873 293.989642 
L 361.622873 293.989642 
L 362.862012 295.036489 
L 362.862012 295.036489 
L 363.171797 295.159957 
L 363.171797 295.159957 
L 364.101152 295.260039 
L 364.101152 295.260039 
L 364.720722 295.329665 
L 364.720722 295.329665 
L 365.959861 295.360386 
L 365.959861 295.360386 
L 366.579431 295.180048 
L 366.579431 295.180048 
L 366.889216 295.147148 
L 366.889216 295.147148 
L 367.508786 294.803478 
L 367.508786 294.803478 
L 367.81857 294.702493 
L 367.81857 294.702493 
L 368.43814 294.094029 
L 368.43814 294.094029 
L 368.747925 293.853896 
L 368.747925 293.853896 
L 369.367495 292.91149 
L 369.367495 292.91149 
L 369.67728 292.488733 
L 369.67728 292.488733 
L 370.296849 291.03433 
L 370.296849 291.03433 
L 370.606634 290.352253 
L 370.606634 290.352253 
L 372.155559 284.391934 
L 372.155559 284.391934 
L 373.704483 273.462387 
L 373.704483 273.462387 
L 375.253407 257.950972 
L 375.253407 257.950972 
L 375.872977 254.758557 
L 375.872977 254.758557 
L 376.182762 254.460278 
L 376.182762 254.460278 
L 376.492547 253.935792 
L 376.492547 253.935792 
L 376.802332 253.705651 
L 376.802332 253.705651 
L 377.112117 255.264813 
L 377.112117 255.264813 
L 377.421901 256.093957 
L 377.421901 256.093957 
L 377.731686 259.058623 
L 377.731686 259.058623 
L 378.351256 261.99326 
L 378.351256 261.99326 
L 379.280611 267.725937 
L 379.280611 267.725937 
L 380.51975 273.205991 
L 380.51975 273.205991 
L 381.13932 275.072414 
L 381.13932 275.072414 
L 381.75889 276.175015 
L 381.75889 276.175015 
L 382.688244 277.058904 
L 382.688244 277.058904 
L 383.307814 277.473422 
L 383.307814 277.473422 
L 384.546954 277.395716 
L 384.546954 277.395716 
L 384.856738 277.433134 
L 384.856738 277.433134 
L 385.166523 277.607414 
L 385.166523 277.607414 
L 385.476308 277.647277 
L 385.476308 277.647277 
L 385.786093 277.559472 
L 385.786093 277.559472 
L 386.095878 277.695218 
L 386.095878 277.695218 
L 388.264372 277.217238 
L 388.264372 277.217238 
L 388.883942 276.57311 
L 388.883942 276.57311 
L 389.193727 276.343183 
L 389.193727 276.343183 
L 389.813296 275.365218 
L 389.813296 275.365218 
L 390.432866 274.671927 
L 390.432866 274.671927 
L 391.98179 271.379377 
L 391.98179 271.379377 
L 392.60136 269.133301 
L 392.60136 269.133301 
L 393.22093 266.67117 
L 393.22093 266.67117 
L 393.8405 263.542589 
L 393.8405 263.542589 
L 394.769854 258.457335 
L 394.769854 258.457335 
L 395.699209 252.073036 
L 395.699209 252.073036 
L 396.628563 244.965416 
L 396.628563 244.965416 
L 397.248133 239.171829 
L 397.248133 239.171829 
L 398.177488 230.617087 
L 398.177488 230.617087 
L 398.487273 226.655695 
L 398.487273 226.655695 
" clip-path="url(#pe0f73128dd)" style="fill: none; stroke: #1f77b4; stroke-width: 1.5; stroke-linecap: square"/>
   </g>
   <g id="line2d_22">
    <path d="M 73.832727 53.568 
L 92.729604 53.568 
L 92.729604 53.568 
L 93.039389 55.760287 
L 93.039389 55.760287 
L 93.349174 56.35456 
L 93.349174 56.35456 
L 94.588314 67.944976 
L 94.588314 67.944976 
L 94.898099 67.989091 
L 94.898099 67.989091 
L 95.207883 70.052808 
L 95.207883 70.052808 
L 95.517668 73.614883 
L 95.517668 73.614883 
L 95.827453 78.811008 
L 95.827453 78.811008 
L 96.137238 79.706856 
L 96.137238 79.706856 
L 96.756808 87.996802 
L 96.756808 87.996802 
L 97.066593 95.142425 
L 97.066593 95.142425 
L 97.376378 96.491962 
L 97.376378 96.491962 
L 97.995947 108.816065 
L 97.995947 108.816065 
L 98.305732 119.230213 
L 98.305732 119.230213 
L 98.615517 118.773653 
L 98.615517 118.773653 
L 98.925302 123.501047 
L 98.925302 123.501047 
L 99.235087 133.114328 
L 99.235087 133.114328 
L 99.544872 133.233916 
L 99.544872 133.233916 
L 99.854656 138.535863 
L 99.854656 138.535863 
L 100.164441 146.57324 
L 100.164441 146.57324 
L 100.474226 146.630643 
L 100.474226 146.630643 
L 100.784011 150.877665 
L 100.784011 150.877665 
L 101.093796 159.883864 
L 101.093796 159.883864 
L 101.403581 158.184439 
L 101.403581 158.184439 
L 101.713366 163.032908 
L 101.713366 163.032908 
L 102.023151 171.113497 
L 102.023151 171.113497 
L 102.332935 168.304348 
L 102.332935 168.304348 
L 102.64272 175.00994 
L 102.64272 175.00994 
L 102.952505 174.762472 
L 102.952505 174.762472 
L 103.26229 179.381174 
L 103.26229 179.381174 
L 103.572075 180.753672 
L 103.572075 180.753672 
L 103.88186 183.05226 
L 103.88186 183.05226 
L 104.191645 188.691764 
L 104.191645 188.691764 
L 104.50143 187.392454 
L 104.50143 187.392454 
L 104.811214 191.579576 
L 104.811214 191.579576 
L 105.120999 191.245898 
L 105.120999 191.245898 
L 105.430784 194.247132 
L 105.430784 194.247132 
L 105.740569 194.572358 
L 105.740569 194.572358 
L 106.050354 196.649629 
L 106.050354 196.649629 
L 106.360139 197.386822 
L 106.360139 197.386822 
L 106.979709 199.707255 
L 106.979709 199.707255 
L 107.289493 200.516095 
L 107.289493 200.516095 
L 107.599278 201.847561 
L 107.599278 201.847561 
L 107.909063 202.021097 
L 107.909063 202.021097 
L 108.218848 203.167388 
L 108.218848 203.167388 
L 108.528633 203.583182 
L 108.528633 203.583182 
L 109.148203 203.810558 
L 109.148203 203.810558 
L 109.457988 203.896609 
L 109.457988 203.896609 
L 109.767772 204.114684 
L 109.767772 204.114684 
L 110.077557 203.947846 
L 110.077557 203.947846 
L 110.387342 204.170439 
L 110.387342 204.170439 
L 110.697127 203.904209 
L 110.697127 203.904209 
L 111.006912 204.130735 
L 111.006912 204.130735 
L 111.316697 203.861795 
L 111.316697 203.861795 
L 111.626482 204.112824 
L 111.626482 204.112824 
L 111.936266 203.838569 
L 111.936266 203.838569 
L 112.555836 204.273975 
L 112.555836 204.273975 
L 112.865621 203.948749 
L 112.865621 203.948749 
L 113.175406 204.037085 
L 113.175406 204.037085 
L 113.485191 202.379382 
L 113.485191 202.379382 
L 113.794976 203.498354 
L 113.794976 203.498354 
L 114.104761 201.37867 
L 114.104761 201.37867 
L 114.414545 202.559243 
L 114.414545 202.559243 
L 114.72433 199.932665 
L 114.72433 199.932665 
L 115.034115 200.459809 
L 115.034115 200.459809 
L 115.3439 197.926988 
L 115.653685 198.494101 
L 115.653685 198.494101 
L 115.96347 195.284465 
L 115.96347 195.284465 
L 116.273255 195.645355 
L 116.273255 195.645355 
L 116.58304 191.91118 
L 116.58304 191.91118 
L 116.892824 191.876526 
L 116.892824 191.876526 
L 117.202609 187.664796 
L 117.202609 187.664796 
L 117.512394 186.526052 
L 117.512394 186.526052 
L 117.822179 182.651507 
L 117.822179 182.651507 
L 118.131964 180.54341 
L 118.131964 180.54341 
L 118.441749 176.326099 
L 118.441749 176.326099 
L 118.751534 165.288445 
L 118.751534 165.288445 
L 119.061319 166.790789 
L 119.061319 166.790789 
L 119.371103 155.684996 
L 119.371103 155.684996 
L 119.680888 156.000336 
L 119.680888 156.000336 
L 119.990673 145.699026 
L 119.990673 145.699026 
L 120.300458 143.307744 
L 120.300458 143.307744 
L 120.610243 134.961883 
L 120.610243 134.961883 
L 120.920028 120.990708 
L 120.920028 120.990708 
L 121.229813 123.958936 
L 121.229813 123.958936 
L 121.539598 115.057868 
L 121.539598 115.057868 
L 121.849382 115.395478 
L 121.849382 115.395478 
L 122.159167 111.044175 
L 122.159167 111.044175 
L 122.468952 110.401057 
L 122.468952 110.401057 
L 122.778737 110.763861 
L 122.778737 110.763861 
L 123.088522 112.483855 
L 123.088522 112.483855 
L 123.708092 113.447735 
L 123.708092 113.447735 
L 124.017876 112.886787 
L 124.017876 112.886787 
L 124.327661 113.640936 
L 124.327661 113.640936 
L 124.637446 113.546222 
L 124.637446 113.546222 
L 124.947231 112.99904 
L 124.947231 112.99904 
L 125.257016 113.44614 
L 125.876586 112.726699 
L 125.876586 112.726699 
L 126.186371 113.14244 
L 126.186371 113.14244 
L 126.496155 112.34306 
L 126.496155 112.34306 
L 126.80594 110.109528 
L 126.80594 110.109528 
L 127.115725 110.402386 
L 127.115725 110.402386 
L 127.42551 108.685847 
L 127.42551 108.685847 
L 127.735295 105.405202 
L 127.735295 105.405202 
L 128.04508 105.381869 
L 128.04508 105.381869 
L 128.354865 103.23662 
L 128.354865 103.23662 
L 128.66465 96.370142 
L 128.66465 96.370142 
L 128.974434 95.781025 
L 128.974434 95.781025 
L 129.284219 90.900824 
L 129.284219 90.900824 
L 129.594004 83.117133 
L 129.594004 83.117133 
L 129.903789 81.599269 
L 129.903789 81.599269 
L 130.213574 74.732101 
L 130.213574 74.732101 
L 130.833144 54.107262 
L 130.833144 54.107262 
L 131.142929 55.041005 
L 131.142929 55.041005 
L 131.452713 53.568 
L 131.452713 53.568 
L 131.762498 56.918537 
L 131.762498 56.918537 
L 132.072283 58.03719 
L 132.072283 58.03719 
L 132.382068 60.865632 
L 132.382068 60.865632 
L 133.001638 64.21702 
L 133.001638 64.21702 
L 133.621207 65.36836 
L 133.621207 65.36836 
L 133.930992 65.780859 
L 133.930992 65.780859 
L 134.240777 66.00696 
L 134.240777 66.00696 
L 134.550562 66.560838 
L 134.550562 66.560838 
L 135.479917 66.190062 
L 135.479917 66.190062 
L 135.789702 65.944668 
L 135.789702 65.944668 
L 136.099486 66.477499 
L 136.099486 66.477499 
L 136.409271 66.038903 
L 136.719056 65.353903 
L 136.719056 65.353903 
L 137.028841 64.108115 
L 137.028841 64.108115 
L 137.338626 62.016866 
L 137.338626 62.016866 
L 137.648411 62.246262 
L 137.648411 62.246262 
L 138.267981 57.670878 
L 138.267981 57.670878 
L 138.577765 53.568 
L 138.577765 53.568 
L 161.192061 53.568 
L 161.192061 53.568 
L 161.501846 55.482471 
L 161.501846 55.482471 
L 161.811631 56.517944 
L 161.811631 56.517944 
L 162.121416 59.535229 
L 162.121416 59.535229 
L 163.05077 73.222209 
L 163.05077 73.222209 
L 163.360555 73.469677 
L 163.360555 73.469677 
L 164.28991 85.41806 
L 164.28991 85.41806 
L 164.599695 90.998461 
L 164.599695 90.998461 
L 164.90948 89.673373 
L 164.90948 89.673373 
L 165.219264 92.387117 
L 165.219264 92.387117 
L 165.529049 97.933928 
L 165.529049 97.933928 
L 165.838834 98.957655 
L 165.838834 98.957655 
L 166.148619 100.780123 
L 166.148619 100.780123 
L 166.768189 109.014155 
L 166.768189 109.014155 
L 167.077974 109.145383 
L 167.077974 109.145383 
L 167.387759 111.51211 
L 167.387759 111.51211 
L 167.697543 115.562476 
L 167.697543 115.562476 
L 168.007328 116.806669 
L 168.317113 118.646146 
L 168.317113 118.646146 
L 168.936683 124.953323 
L 168.936683 124.953323 
L 169.246468 124.40864 
L 169.246468 124.40864 
L 169.866037 130.204884 
L 169.866037 130.204884 
L 170.175822 130.47138 
L 170.175822 130.47138 
L 170.485607 132.706719 
L 170.485607 132.706719 
L 170.795392 135.930599 
L 170.795392 135.930599 
L 171.105177 135.801603 
L 171.105177 135.801603 
L 171.724747 138.738525 
L 171.724747 138.738525 
L 172.034532 139.60227 
L 172.034532 139.60227 
L 172.344316 141.041897 
L 172.344316 141.041897 
L 172.654101 141.273259 
L 173.273671 143.80608 
L 173.273671 143.80608 
L 173.893241 144.760021 
L 173.893241 144.760021 
L 174.203026 145.698813 
L 174.203026 145.698813 
L 175.442165 147.005139 
L 175.442165 147.005139 
L 175.75195 147.11027 
L 175.75195 147.11027 
L 176.061735 147.54876 
L 176.061735 147.54876 
L 176.681305 147.364382 
L 176.681305 147.364382 
L 176.99109 147.726494 
L 176.99109 147.726494 
L 177.610659 147.334086 
L 177.610659 147.334086 
L 177.920444 147.689927 
L 178.230229 147.477113 
L 178.230229 147.477113 
L 178.540014 147.838588 
L 178.540014 147.838588 
L 179.159584 147.36082 
L 179.159584 147.36082 
L 179.469368 147.716927 
L 179.469368 147.716927 
L 180.088938 146.970538 
L 180.088938 146.970538 
L 180.398723 147.357313 
L 180.398723 147.357313 
L 180.708508 146.89549 
L 180.708508 146.89549 
L 181.018293 146.133316 
L 181.018293 146.133316 
L 181.328078 146.655836 
L 181.328078 146.655836 
L 181.637863 145.894512 
L 181.637863 145.894512 
L 181.947647 146.177006 
L 181.947647 146.177006 
L 182.257432 145.534419 
L 182.257432 145.534419 
L 182.567217 144.403064 
L 182.567217 144.403064 
L 182.877002 144.826777 
L 182.877002 144.826777 
L 183.496572 142.379688 
L 183.496572 142.379688 
L 183.806357 143.044172 
L 183.806357 143.044172 
L 184.116142 141.685599 
L 184.116142 141.685599 
L 184.425926 141.781694 
L 184.425926 141.781694 
L 184.735711 140.564554 
L 184.735711 140.564554 
L 185.045496 138.721305 
L 185.045496 138.721305 
L 185.355281 139.059871 
L 185.355281 139.059871 
L 185.665066 137.623115 
L 185.665066 137.623115 
L 185.974851 134.298674 
L 186.284636 135.51236 
L 186.284636 135.51236 
L 186.594421 133.556538 
L 186.594421 133.556538 
L 186.904205 133.15435 
L 186.904205 133.15435 
L 187.21399 131.142508 
L 187.21399 131.142508 
L 187.523775 128.290307 
L 187.523775 128.290307 
L 187.83356 128.160886 
L 187.83356 128.160886 
L 188.143345 125.33154 
L 188.143345 125.33154 
L 188.45313 121.478468 
L 188.45313 121.478468 
L 188.762915 121.741402 
L 188.762915 121.741402 
L 189.0727 119.328807 
L 189.0727 119.328807 
L 189.382484 113.614467 
L 189.382484 113.614467 
L 189.692269 114.285701 
L 189.692269 114.285701 
L 190.002054 111.287975 
L 190.002054 111.287975 
L 190.311839 103.578748 
L 190.311839 103.578748 
L 190.621624 104.57946 
L 190.621624 104.57946 
L 190.931409 100.751687 
L 191.241194 92.869668 
L 191.241194 92.869668 
L 191.550978 94.174613 
L 191.550978 94.174613 
L 191.860763 88.493226 
L 191.860763 88.493226 
L 192.170548 80.647242 
L 192.170548 80.647242 
L 192.480333 81.569505 
L 192.480333 81.569505 
L 192.790118 75.219223 
L 192.790118 75.219223 
L 193.099903 66.019556 
L 193.099903 66.019556 
L 193.409688 65.898586 
L 193.409688 65.898586 
L 194.029257 53.568 
L 194.029257 53.568 
L 218.192477 53.568 
L 218.192477 53.568 
L 218.502262 54.053208 
L 218.502262 54.053208 
L 218.812047 55.732596 
L 218.812047 55.732596 
L 219.431617 60.973633 
L 219.431617 60.973633 
L 219.741402 61.000368 
L 219.741402 61.000368 
L 221.600111 71.410531 
L 221.600111 71.410531 
L 222.219681 78.204033 
L 222.219681 78.204033 
L 222.529466 77.285066 
L 222.529466 77.285066 
L 223.149035 82.868337 
L 223.149035 82.868337 
L 223.45882 87.226656 
L 223.45882 87.226656 
L 223.768605 86.175557 
L 223.768605 86.175557 
L 224.69796 96.967604 
L 224.69796 96.967604 
L 225.007745 96.719817 
L 225.007745 96.719817 
L 225.317529 99.850047 
L 225.317529 99.850047 
L 225.627314 105.020129 
L 225.627314 105.020129 
L 225.937099 105.564972 
L 225.937099 105.564972 
L 226.246884 108.285838 
L 226.246884 108.285838 
L 226.556669 111.993066 
L 226.556669 111.993066 
L 226.866454 117.927608 
L 226.866454 117.927608 
L 227.176239 116.549582 
L 227.176239 116.549582 
L 227.486024 120.015774 
L 227.486024 120.015774 
L 227.795808 126.443443 
L 227.795808 126.443443 
L 228.105593 125.439116 
L 228.105593 125.439116 
L 228.415378 129.036377 
L 228.415378 129.036377 
L 228.725163 135.450387 
L 229.034948 135.09242 
L 229.344733 139.04382 
L 229.344733 139.04382 
L 229.654518 146.33348 
L 229.654518 146.33348 
L 229.964303 145.336116 
L 229.964303 145.336116 
L 230.274087 149.228732 
L 230.583872 156.88178 
L 230.583872 156.88178 
L 230.893657 155.018705 
L 230.893657 155.018705 
L 231.203442 160.489776 
L 231.203442 160.489776 
L 231.513227 162.323831 
L 231.513227 162.323831 
L 231.823012 165.610907 
L 231.823012 165.610907 
L 232.132797 172.924272 
L 232.442582 172.117611 
L 232.442582 172.117611 
L 232.752366 177.032837 
L 232.752366 177.032837 
L 233.062151 178.593115 
L 233.062151 178.593115 
L 233.371936 182.558335 
L 233.371936 182.558335 
L 233.681721 190.80119 
L 233.681721 190.80119 
L 233.991506 188.694953 
L 233.991506 188.694953 
L 234.301291 195.057035 
L 234.611076 194.762477 
L 234.611076 194.762477 
L 234.920861 199.876007 
L 234.920861 199.876007 
L 235.230645 200.554097 
L 235.230645 200.554097 
L 235.54043 204.42641 
L 235.54043 204.42641 
L 235.850215 206.386165 
L 235.850215 206.386165 
L 236.469785 212.278133 
L 236.469785 212.278133 
L 236.77957 214.557853 
L 236.77957 214.557853 
L 237.089355 222.59337 
L 237.089355 222.59337 
L 237.399139 219.900567 
L 237.399139 219.900567 
L 237.708924 226.929099 
L 237.708924 226.929099 
L 238.018709 225.293454 
L 238.018709 225.293454 
L 238.328494 232.348775 
L 238.328494 232.348775 
L 238.638279 229.974395 
L 238.638279 229.974395 
L 239.567634 236.777358 
L 239.567634 236.777358 
L 239.877418 240.37786 
L 239.877418 240.37786 
L 240.187203 241.734413 
L 240.187203 241.734413 
L 240.496988 245.48076 
L 240.496988 245.48076 
L 240.806773 246.033735 
L 240.806773 246.033735 
L 241.116558 250.545498 
L 241.116558 250.545498 
L 241.426343 250.185671 
L 241.426343 250.185671 
L 241.736128 255.669074 
L 241.736128 255.669074 
L 242.045913 254.504074 
L 242.045913 254.504074 
L 242.355697 260.435958 
L 242.355697 260.435958 
L 242.665482 258.70645 
L 242.665482 258.70645 
L 242.975267 260.151126 
L 242.975267 260.151126 
L 243.285052 263.482688 
L 243.285052 263.482688 
L 243.594837 264.025884 
L 243.594837 264.025884 
L 243.904622 268.22406 
L 243.904622 268.22406 
L 244.214407 267.978347 
L 244.214407 267.978347 
L 244.524192 272.301214 
L 244.524192 272.301214 
L 244.833976 270.824382 
L 244.833976 270.824382 
L 245.143761 272.227708 
L 245.143761 272.227708 
L 245.453546 275.426075 
L 245.453546 275.426075 
L 245.763331 275.587599 
L 245.763331 275.587599 
L 246.073116 279.360255 
L 246.073116 279.360255 
L 246.382901 278.714639 
L 246.382901 278.714639 
L 246.692686 279.74501 
L 246.692686 279.74501 
L 247.002471 281.266382 
L 247.002471 281.266382 
L 247.312255 281.619565 
L 247.312255 281.619565 
L 247.62204 284.578119 
L 247.62204 284.578119 
L 247.931825 284.262407 
L 247.931825 284.262407 
L 248.24161 284.955007 
L 248.24161 284.955007 
L 248.551395 286.649862 
L 248.551395 286.649862 
L 248.86118 286.876919 
L 248.86118 286.876919 
L 249.170965 288.443841 
L 249.170965 288.443841 
L 249.480749 288.279182 
L 249.480749 288.279182 
L 249.790534 288.644271 
L 249.790534 288.644271 
L 250.100319 290.147412 
L 250.100319 290.147412 
L 250.410104 290.072524 
L 250.410104 290.072524 
L 251.029674 291.216795 
L 251.029674 291.216795 
L 251.339459 291.420148 
L 251.339459 291.420148 
L 251.649244 292.25333 
L 251.649244 292.25333 
L 251.959028 292.072301 
L 251.959028 292.072301 
L 252.578598 292.875029 
L 252.578598 292.875029 
L 252.888383 292.782494 
L 252.888383 292.782494 
L 253.507953 293.346896 
L 253.507953 293.346896 
L 253.817738 293.371877 
L 253.817738 293.371877 
L 254.127523 293.649534 
L 254.127523 293.649534 
L 255.056877 293.584478 
L 255.056877 293.584478 
L 255.676447 293.951214 
L 255.676447 293.951214 
L 255.986232 293.731066 
L 255.986232 293.731066 
L 256.605802 294.016642 
L 256.605802 294.016642 
L 256.915586 293.434222 
L 256.915586 293.434222 
L 257.225371 293.938352 
L 257.225371 293.938352 
L 257.535156 293.727186 
L 257.535156 293.727186 
L 258.464511 294.060013 
L 258.464511 294.060013 
L 258.774296 293.765082 
L 258.774296 293.765082 
L 259.08408 293.850707 
L 259.08408 293.850707 
L 259.393865 293.178729 
L 259.393865 293.178729 
L 259.70365 293.411314 
L 259.70365 293.411314 
L 260.013435 293.291673 
L 260.013435 293.291673 
L 260.32322 292.504731 
L 260.32322 292.504731 
L 260.633005 292.522696 
L 260.633005 292.522696 
L 260.94279 290.845647 
L 261.252575 291.280256 
L 261.252575 291.280256 
L 261.562359 290.798502 
L 261.562359 290.798502 
L 261.872144 289.109388 
L 262.181929 288.80505 
L 262.181929 288.80505 
L 262.491714 284.933003 
L 262.491714 284.933003 
L 262.801499 286.47048 
L 262.801499 286.47048 
L 263.111284 285.111003 
L 263.111284 285.111003 
L 263.421069 281.486849 
L 263.421069 281.486849 
L 263.730854 282.398853 
L 263.730854 282.398853 
L 264.040638 281.407495 
L 264.040638 281.407495 
L 264.350423 275.98968 
L 264.350423 275.98968 
L 264.660208 277.558835 
L 264.660208 277.558835 
L 264.969993 276.944365 
L 264.969993 276.944365 
L 265.279778 267.819003 
L 265.279778 267.819003 
L 265.899348 271.443476 
L 265.899348 271.443476 
L 266.209133 268.983046 
L 266.209133 268.983046 
L 266.518917 261.649378 
L 266.828702 264.376888 
L 266.828702 264.376888 
L 267.138487 262.638503 
L 267.138487 262.638503 
L 267.448272 250.946464 
L 267.448272 250.946464 
L 267.758057 254.408191 
L 267.758057 254.408191 
L 268.067842 253.948123 
L 268.067842 253.948123 
L 268.377627 239.985558 
L 268.377627 239.985558 
L 268.687412 244.083016 
L 268.687412 244.083016 
L 268.997196 243.351403 
L 268.997196 243.351403 
L 269.306981 228.13731 
L 269.306981 228.13731 
L 269.616766 232.516357 
L 269.616766 232.516357 
L 269.926551 229.515442 
L 269.926551 229.515442 
L 270.236336 215.330285 
L 270.236336 215.330285 
L 270.546121 218.730837 
L 270.546121 218.730837 
L 270.855906 212.49876 
L 270.855906 212.49876 
L 271.16569 209.216415 
L 271.16569 209.216415 
L 271.475475 208.892836 
L 271.475475 208.892836 
L 271.78526 216.417314 
L 271.78526 216.417314 
L 272.095045 215.534116 
L 272.095045 215.534116 
L 272.40483 224.836416 
L 272.40483 224.836416 
L 272.714615 222.431262 
L 272.714615 222.431262 
L 273.0244 225.49011 
L 273.0244 225.49011 
L 273.334185 229.944631 
L 273.334185 229.944631 
L 273.643969 230.637231 
L 273.643969 230.637231 
L 273.953754 235.728119 
L 273.953754 235.728119 
L 274.263539 235.000811 
L 274.263539 235.000811 
L 274.573324 239.481057 
L 274.573324 239.481057 
L 274.883109 238.466897 
L 274.883109 238.466897 
L 275.192894 239.79629 
L 275.192894 239.79629 
L 275.502679 242.080475 
L 275.502679 242.080475 
L 275.812464 242.029822 
L 275.812464 242.029822 
L 276.122248 244.655071 
L 276.122248 244.655071 
L 276.432033 243.873232 
L 276.432033 243.873232 
L 277.051603 245.899425 
L 277.051603 245.899425 
L 277.361388 246.114417 
L 277.361388 246.114417 
L 277.671173 247.168918 
L 277.671173 247.168918 
L 277.980958 246.971252 
L 277.980958 246.971252 
L 278.290743 247.604112 
L 278.290743 247.604112 
L 279.839667 248.431501 
L 279.839667 248.431501 
L 280.149452 248.23729 
L 280.149452 248.23729 
L 280.459237 248.418533 
L 280.459237 248.418533 
L 280.769022 248.211353 
L 280.769022 248.211353 
L 281.388591 248.579525 
L 281.388591 248.579525 
L 281.698376 248.385207 
L 281.698376 248.385207 
L 282.008161 248.579525 
L 282.008161 248.579525 
L 282.317946 248.33716 
L 282.317946 248.33716 
L 282.627731 248.52005 
L 282.627731 248.52005 
L 282.937516 248.099844 
L 282.937516 248.099844 
L 283.2473 248.280289 
L 283.2473 248.280289 
L 283.557085 247.541554 
L 283.557085 247.541554 
L 283.86687 247.748415 
L 283.86687 247.748415 
L 284.176655 246.564865 
L 284.176655 246.564865 
L 284.48644 246.886158 
L 284.796225 245.104191 
L 284.796225 245.104191 
L 285.10601 246.154971 
L 285.10601 246.154971 
L 285.415795 245.367922 
L 285.415795 245.367922 
L 285.725579 243.94727 
L 285.725579 243.94727 
L 286.035364 243.924415 
L 286.035364 243.924415 
L 286.345149 241.623064 
L 286.345149 241.623064 
L 286.654934 242.207876 
L 286.654934 242.207876 
L 286.964719 241.732022 
L 286.964719 241.732022 
L 287.274504 239.788849 
L 287.274504 239.788849 
L 287.584289 239.855659 
L 287.584289 239.855659 
L 287.894074 236.579054 
L 287.894074 236.579054 
L 288.203858 237.754312 
L 288.203858 237.754312 
L 288.513643 236.639167 
L 288.513643 236.639167 
L 288.823428 234.416053 
L 288.823428 234.416053 
L 289.133213 234.42833 
L 289.133213 234.42833 
L 289.442998 230.156806 
L 289.442998 230.156806 
L 289.752783 231.546738 
L 289.752783 231.546738 
L 290.062568 226.033518 
L 290.062568 226.033518 
L 290.372353 227.859281 
L 290.372353 227.859281 
L 290.682137 227.054906 
L 290.682137 227.054906 
L 290.991922 223.166117 
L 290.991922 223.166117 
L 291.301707 223.461207 
L 291.301707 223.461207 
L 291.611492 217.458899 
L 291.611492 217.458899 
L 291.921277 219.10512 
L 291.921277 219.10512 
L 292.231062 211.327542 
L 292.231062 211.327542 
L 292.540847 214.583684 
L 292.540847 214.583684 
L 292.850632 212.533148 
L 292.850632 212.533148 
L 293.160416 208.823847 
L 293.470201 207.590603 
L 293.470201 207.590603 
L 293.779986 201.963429 
L 293.779986 201.963429 
L 294.089771 202.180547 
L 294.089771 202.180547 
L 294.399556 195.992214 
L 294.399556 195.992214 
L 294.709341 196.540511 
L 294.709341 196.540511 
L 295.019126 188.752887 
L 295.019126 188.752887 
L 295.32891 188.804549 
L 295.32891 188.804549 
L 295.638695 181.427192 
L 295.638695 181.427192 
L 295.94848 181.501602 
L 295.94848 181.501602 
L 296.258265 173.78403 
L 296.258265 173.78403 
L 296.56805 173.245831 
L 296.56805 173.245831 
L 296.877835 164.835286 
L 296.877835 164.835286 
L 297.18762 163.757931 
L 297.18762 163.757931 
L 297.497405 156.451369 
L 297.497405 156.451369 
L 297.807189 154.495972 
L 297.807189 154.495972 
L 298.426759 142.949352 
L 298.426759 142.949352 
L 298.736544 137.695399 
L 298.736544 137.695399 
L 299.046329 123.188895 
L 299.046329 123.188895 
L 299.356114 124.906232 
L 299.356114 124.906232 
L 299.665899 113.444705 
L 299.665899 113.444705 
L 299.975684 112.145979 
L 299.975684 112.145979 
L 300.285468 104.358727 
L 300.285468 104.358727 
L 300.595253 88.525647 
L 300.595253 88.525647 
L 300.905038 90.541742 
L 300.905038 90.541742 
L 301.214823 79.087177 
L 301.214823 79.087177 
L 301.524608 76.510242 
L 301.524608 76.510242 
L 302.453963 54.673737 
L 302.453963 54.673737 
L 302.763747 53.568 
L 302.763747 53.568 
L 326.307398 53.568 
L 326.307398 53.568 
L 326.617183 54.32571 
L 326.926967 54.673206 
L 326.926967 54.673206 
L 327.236752 58.567363 
L 327.236752 58.567363 
L 327.856322 70.8794 
L 327.856322 70.8794 
L 328.166107 78.348708 
L 328.166107 78.348708 
L 328.475892 77.025958 
L 328.475892 77.025958 
L 329.095461 86.914664 
L 329.095461 86.914664 
L 329.405246 93.829296 
L 329.405246 93.829296 
L 329.715031 93.26298 
L 329.715031 93.26298 
L 330.024816 96.795929 
L 330.024816 96.795929 
L 330.644386 108.227054 
L 330.644386 108.227054 
L 330.954171 107.449997 
L 330.954171 107.449997 
L 331.263956 110.83774 
L 331.57374 116.416228 
L 331.57374 116.416228 
L 331.883525 116.742092 
L 331.883525 116.742092 
L 332.19331 119.743166 
L 332.19331 119.743166 
L 332.503095 123.937623 
L 332.503095 123.937623 
L 332.81288 125.017529 
L 332.81288 125.017529 
L 333.122665 127.98565 
L 333.122665 127.98565 
L 333.43245 132.148907 
L 333.43245 132.148907 
L 333.742235 132.732443 
L 333.742235 132.732443 
L 335.291159 145.474838 
L 335.291159 145.474838 
L 335.600944 145.594904 
L 335.600944 145.594904 
L 335.910729 147.918526 
L 335.910729 147.918526 
L 336.220514 151.257051 
L 336.530298 151.738592 
L 336.530298 151.738592 
L 336.840083 153.607248 
L 336.840083 153.607248 
L 337.149868 157.241819 
L 337.149868 157.241819 
L 337.459653 157.320003 
L 337.459653 157.320003 
L 337.769438 159.640223 
L 337.769438 159.640223 
L 338.389008 163.097114 
L 338.389008 163.097114 
L 338.698793 165.492382 
L 338.698793 165.492382 
L 339.008577 165.84413 
L 339.008577 165.84413 
L 339.318362 168.27081 
L 339.318362 168.27081 
L 339.628147 172.635719 
L 339.628147 172.635719 
L 339.937932 171.709045 
L 339.937932 171.709045 
L 340.247717 175.701158 
L 340.557502 175.915673 
L 340.557502 175.915673 
L 340.867287 178.325876 
L 340.867287 178.325876 
L 341.486856 181.394876 
L 341.486856 181.394876 
L 341.796641 185.826967 
L 341.796641 185.826967 
L 342.106426 185.229718 
L 342.106426 185.229718 
L 342.416211 188.920151 
L 342.416211 188.920151 
L 342.725996 189.40116 
L 342.725996 189.40116 
L 343.035781 191.926274 
L 343.65535 195.420955 
L 343.65535 195.420955 
L 343.965135 201.805573 
L 343.965135 201.805573 
L 344.27492 199.890464 
L 344.27492 199.890464 
L 344.584705 205.417981 
L 344.584705 205.417981 
L 344.89449 204.785493 
L 344.89449 204.785493 
L 345.204275 209.624662 
L 345.204275 209.624662 
L 345.51406 209.369381 
L 345.51406 209.369381 
L 345.823845 214.344402 
L 345.823845 214.344402 
L 346.133629 214.936973 
L 346.133629 214.936973 
L 346.443414 219.751852 
L 346.443414 219.751852 
L 346.753199 220.038917 
L 346.753199 220.038917 
L 347.062984 225.056032 
L 347.062984 225.056032 
L 347.372769 225.315831 
L 347.372769 225.315831 
L 347.682554 230.344108 
L 347.682554 230.344108 
L 347.992339 230.429733 
L 347.992339 230.429733 
L 348.302124 235.736995 
L 348.302124 235.736995 
L 348.611908 235.8847 
L 348.611908 235.8847 
L 348.921693 241.213435 
L 348.921693 241.213435 
L 349.231478 240.644887 
L 349.231478 240.644887 
L 349.541263 247.097537 
L 349.851048 245.196779 
L 349.851048 245.196779 
L 350.160833 252.738477 
L 350.160833 252.738477 
L 350.470618 249.80671 
L 350.470618 249.80671 
L 350.780402 252.069581 
L 350.780402 252.069581 
L 351.090187 255.480231 
L 351.399972 256.03884 
L 351.399972 256.03884 
L 351.709757 260.406406 
L 351.709757 260.406406 
L 352.019542 259.859172 
L 352.019542 259.859172 
L 352.329327 265.240632 
L 352.329327 265.240632 
L 352.639112 263.828005 
L 352.639112 263.828005 
L 352.948897 265.30792 
L 352.948897 265.30792 
L 353.258681 268.492841 
L 353.258681 268.492841 
L 353.568466 269.114646 
L 353.568466 269.114646 
L 353.878251 272.509988 
L 354.188036 271.652463 
L 354.188036 271.652463 
L 354.497821 273.178671 
L 354.497821 273.178671 
L 354.807606 275.656269 
L 354.807606 275.656269 
L 355.117391 276.212805 
L 355.117391 276.212805 
L 355.427176 279.935659 
L 355.427176 279.935659 
L 355.73696 279.379442 
L 356.046745 280.400299 
L 356.046745 280.400299 
L 356.35653 282.124386 
L 356.35653 282.124386 
L 356.666315 282.372438 
L 356.9761 285.871636 
L 356.9761 285.871636 
L 357.285885 285.165748 
L 357.285885 285.165748 
L 357.59567 285.997708 
L 357.59567 285.997708 
L 357.905455 288.272166 
L 357.905455 288.272166 
L 358.215239 288.211256 
L 358.215239 288.211256 
L 358.525024 290.494217 
L 358.525024 290.494217 
L 358.834809 290.159849 
L 358.834809 290.159849 
L 359.144594 290.556031 
L 359.144594 290.556031 
L 359.454379 292.426069 
L 359.454379 292.426069 
L 359.764164 292.365371 
L 359.764164 292.365371 
L 360.073949 292.719033 
L 360.073949 292.719033 
L 360.383734 293.605206 
L 360.383734 293.605206 
L 361.003303 294.770153 
L 361.003303 294.770153 
L 361.622873 294.806827 
L 361.622873 294.806827 
L 361.932658 295.216137 
L 361.932658 295.216137 
L 362.242443 295.436072 
L 362.242443 295.436072 
L 362.552228 295.32435 
L 362.552228 295.32435 
L 362.862012 295.395147 
L 362.862012 295.395147 
L 363.171797 295.169471 
L 363.171797 295.169471 
L 364.101152 295.488 
L 364.101152 295.488 
L 364.410937 295.243243 
L 364.410937 295.243243 
L 365.030507 295.476785 
L 365.030507 295.476785 
L 365.340291 295.156502 
L 365.340291 295.156502 
L 365.650076 295.287145 
L 365.650076 295.287145 
L 365.959861 293.92735 
L 365.959861 293.92735 
L 366.269646 294.717694 
L 366.269646 294.717694 
L 366.579431 294.825589 
L 366.579431 294.825589 
L 366.889216 292.649884 
L 366.889216 292.649884 
L 367.199001 293.711029 
L 367.199001 293.711029 
L 367.508786 293.715599 
L 367.508786 293.715599 
L 367.81857 290.624117 
L 367.81857 290.624117 
L 368.128355 291.848485 
L 368.128355 291.848485 
L 368.43814 291.507154 
L 368.43814 291.507154 
L 368.747925 287.900061 
L 368.747925 287.900061 
L 369.05771 289.104445 
L 369.05771 289.104445 
L 369.367495 288.357578 
L 369.367495 288.357578 
L 369.67728 283.600633 
L 369.67728 283.600633 
L 369.987065 284.885912 
L 369.987065 284.885912 
L 370.296849 283.687587 
L 370.296849 283.687587 
L 370.606634 278.28593 
L 370.606634 278.28593 
L 370.916419 279.243006 
L 370.916419 279.243006 
L 371.226204 276.88675 
L 371.226204 276.88675 
L 371.535989 272.138043 
L 371.535989 272.138043 
L 371.845774 270.221021 
L 371.845774 270.221021 
L 372.155559 261.685626 
L 372.155559 261.685626 
L 372.465344 262.717431 
L 372.465344 262.717431 
L 373.084913 253.151985 
L 373.084913 253.151985 
L 373.394698 247.745013 
L 373.394698 247.745013 
L 373.704483 239.141692 
L 373.704483 239.141692 
L 374.014268 235.750814 
L 374.014268 235.750814 
L 374.324053 230.493566 
L 374.324053 230.493566 
L 374.633838 229.834025 
L 374.633838 229.834025 
L 374.943622 232.718807 
L 374.943622 232.718807 
L 375.253407 239.363807 
L 375.253407 239.363807 
L 375.563192 240.425908 
L 375.563192 240.425908 
L 375.872977 251.545732 
L 375.872977 251.545732 
L 376.182762 248.810622 
L 376.182762 248.810622 
L 376.492547 251.457025 
L 376.492547 251.457025 
L 376.802332 258.235113 
L 376.802332 258.235113 
L 377.112117 257.673581 
L 377.112117 257.673581 
L 377.421901 264.706525 
L 377.421901 264.706525 
L 377.731686 263.038565 
L 377.731686 263.038565 
L 378.041471 264.974031 
L 378.041471 264.974031 
L 378.351256 267.758624 
L 378.351256 267.758624 
L 378.661041 268.906881 
L 378.661041 268.906881 
L 378.970826 271.634019 
L 378.970826 271.634019 
L 379.280611 271.962275 
L 379.280611 271.962275 
L 379.590396 274.550904 
L 379.590396 274.550904 
L 379.90018 274.438969 
L 379.90018 274.438969 
L 380.209965 275.113977 
L 380.209965 275.113977 
L 380.51975 276.411002 
L 380.51975 276.411002 
L 380.829535 276.526391 
L 380.829535 276.526391 
L 381.449105 277.096587 
L 381.449105 277.096587 
L 382.068675 277.329226 
L 382.068675 277.329226 
L 382.688244 277.830379 
L 382.688244 277.830379 
L 382.998029 277.757191 
L 382.998029 277.757191 
L 383.307814 276.976042 
L 383.307814 276.976042 
L 383.617599 277.282453 
L 383.617599 277.282453 
L 383.927384 277.426809 
L 383.927384 277.426809 
L 384.237169 277.175037 
L 384.237169 277.175037 
L 384.856738 277.939496 
L 384.856738 277.939496 
L 385.166523 277.723122 
L 385.166523 277.723122 
L 385.476308 276.701734 
L 385.476308 276.701734 
L 385.786093 277.953741 
L 385.786093 277.953741 
L 386.095878 276.983802 
L 386.095878 276.983802 
L 386.405663 276.599898 
L 386.405663 276.599898 
L 386.715448 277.693411 
L 386.715448 277.693411 
L 387.025232 276.99507 
L 387.025232 276.99507 
L 387.335017 275.735622 
L 387.335017 275.735622 
L 387.644802 276.697057 
L 387.644802 276.697057 
L 387.954587 276.365453 
L 387.954587 276.365453 
L 388.264372 272.990254 
L 388.264372 272.990254 
L 388.574157 274.113318 
L 388.574157 274.113318 
L 388.883942 274.096788 
L 388.883942 274.096788 
L 389.193727 269.926675 
L 389.193727 269.926675 
L 389.503511 271.629608 
L 389.503511 271.629608 
L 389.813296 272.132197 
L 389.813296 272.132197 
L 390.123081 270.830813 
L 390.123081 270.830813 
L 390.432866 268.012788 
L 390.432866 268.012788 
L 390.742651 269.047092 
L 390.742651 269.047092 
L 391.052436 267.26252 
L 391.052436 267.26252 
L 391.362221 263.662868 
L 391.362221 263.662868 
L 391.672006 264.000212 
L 391.98179 257.423084 
L 391.98179 257.423084 
L 392.291575 259.846735 
L 392.291575 259.846735 
L 392.60136 257.953364 
L 392.60136 257.953364 
L 392.911145 252.754634 
L 392.911145 252.754634 
L 393.22093 252.432438 
L 393.22093 252.432438 
L 393.530715 245.889326 
L 393.530715 245.889326 
L 393.8405 247.19039 
L 394.150285 244.23274 
L 394.150285 244.23274 
L 394.460069 239.741599 
L 394.460069 239.741599 
L 394.769854 238.010443 
L 394.769854 238.010443 
L 395.079639 230.446741 
L 395.079639 230.446741 
L 395.389424 231.92639 
L 395.389424 231.92639 
L 395.699209 229.052185 
L 395.699209 229.052185 
L 396.008994 221.886472 
L 396.008994 221.886472 
L 396.318779 221.843739 
L 396.318779 221.843739 
L 396.628563 210.796465 
L 396.628563 210.796465 
L 396.938348 213.557513 
L 396.938348 213.557513 
L 397.248133 211.676792 
L 397.248133 211.676792 
L 397.557918 201.922397 
L 397.557918 201.922397 
L 397.867703 203.443875 
L 397.867703 203.443875 
L 398.177488 187.947449 
L 398.177488 187.947449 
L 398.487273 193.058906 
L 398.487273 193.058906 
" clip-path="url(#pe0f73128dd)" style="fill: none; stroke: #ff7f0e; stroke-width: 1.5; stroke-linecap: square"/>
   </g>
   <g id="patch_3">
    <path d="M 57.6 307.584 
L 57.6 41.472 
" style="fill: none; stroke: #000000; stroke-width: 0.8; stroke-linejoin: miter; stroke-linecap: square"/>
   </g>
   <g id="patch_4">
    <path d="M 414.72 307.584 
L 414.72 41.472 
" style="fill: none; stroke: #000000; stroke-width: 0.8; stroke-linejoin: miter; stroke-linecap: square"/>
   </g>
   <g id="patch_5">
    <path d="M 57.6 307.584 
L 414.72 307.584 
" style="fill: none; stroke: #000000; stroke-width: 0.8; stroke-linejoin: miter; stroke-linecap: square"/>
   </g>
   <g id="patch_6">
    <path d="M 57.6 41.472 
L 414.72 41.472 
" style="fill: none; stroke: #000000; stroke-width: 0.8; stroke-linejoin: miter; stroke-linecap: square"/>
   </g>
   <g id="text_13">
    <!-- Actual speed vs Expected speed -->
    <g transform="translate(138.808125 35.472) scale(0.12 -0.12)">
     <defs>
      <path id="DejaVuSans-41" d="M 2188 4044 
L 1331 1722 
L 3047 1722 
L 2188 4044 
z
M 1831 4666 
L 2547 4666 
L 4325 0 
L 3669 0 
L 3244 1197 
L 1141 1197 
L 716 0 
L 50 0 
L 1831 4666 
z
" transform="scale(0.015625)"/>
      <path id="DejaVuSans-75" d="M 544 1381 
L 544 3500 
L 1119 3500 
L 1119 1403 
Q 1119 906 1312 657 
Q 1506 409 1894 409 
Q 2359 409 2629 706 
Q 2900 1003 2900 1516 
L 2900 3500 
L 3475 3500 
L 3475 0 
L 2900 0 
L 2900 538 
Q 2691 219 2414 64 
Q 2138 -91 1772 -91 
Q 1169 -91 856 284 
Q 544 659 544 1381 
z
M 1991 3584 
L 1991 3584 
z
" transform="scale(0.015625)"/>
      <path id="DejaVuSans-61" d="M 2194 1759 
Q 1497 1759 1228 1600 
Q 959 1441 959 1056 
Q 959 750 1161 570 
Q 1363 391 1709 391 
Q 2188 391 2477 730 
Q 2766 1069 2766 1631 
L 2766 1759 
L 2194 1759 
z
M 3341 1997 
L 3341 0 
L 2766 0 
L 2766 531 
Q 2569 213 2275 61 
Q 1981 -91 1556 -91 
Q 1019 -91 701 211 
Q 384 513 384 1019 
Q 384 1609 779 1909 
Q 1175 2209 1959 2209 
L 2766 2209 
L 2766 2266 
Q 2766 2663 2505 2880 
Q 2244 3097 1772 3097 
Q 1472 3097 1187 3025 
Q 903 2953 641 2809 
L 641 3341 
Q 956 3463 1253 3523 
Q 1550 3584 1831 3584 
Q 2591 3584 2966 3190 
Q 3341 2797 3341 1997 
z
" transform="scale(0.015625)"/>
      <path id="DejaVuSans-20" transform="scale(0.015625)"/>
      <path id="DejaVuSans-70" d="M 1159 525 
L 1159 -1331 
L 581 -1331 
L 581 3500 
L 1159 3500 
L 1159 2969 
Q 1341 3281 1617 3432 
Q 1894 3584 2278 3584 
Q 2916 3584 3314 3078 
Q 3713 2572 3713 1747 
Q 3713 922 3314 415 
Q 2916 -91 2278 -91 
Q 1894 -91 1617 61 
Q 1341 213 1159 525 
z
M 3116 1747 
Q 3116 2381 2855 2742 
Q 2594 3103 2138 3103 
Q 1681 3103 1420 2742 
Q 1159 2381 1159 1747 
Q 1159 1113 1420 752 
Q 1681 391 2138 391 
Q 2594 391 2855 752 
Q 3116 1113 3116 1747 
z
" transform="scale(0.015625)"/>
      <path id="DejaVuSans-64" d="M 2906 2969 
L 2906 4863 
L 3481 4863 
L 3481 0 
L 2906 0 
L 2906 525 
Q 2725 213 2448 61 
Q 2172 -91 1784 -91 
Q 1150 -91 751 415 
Q 353 922 353 1747 
Q 353 2572 751 3078 
Q 1150 3584 1784 3584 
Q 2172 3584 2448 3432 
Q 2725 3281 2906 2969 
z
M 947 1747 
Q 947 1113 1208 752 
Q 1469 391 1925 391 
Q 2381 391 2643 752 
Q 2906 1113 2906 1747 
Q 2906 2381 2643 2742 
Q 2381 3103 1925 3103 
Q 1469 3103 1208 2742 
Q 947 2381 947 1747 
z
" transform="scale(0.015625)"/>
      <path id="DejaVuSans-76" d="M 191 3500 
L 800 3500 
L 1894 563 
L 2988 3500 
L 3597 3500 
L 2284 0 
L 1503 0 
L 191 3500 
z
" transform="scale(0.015625)"/>
      <path id="DejaVuSans-45" d="M 628 4666 
L 3578 4666 
L 3578 4134 
L 1259 4134 
L 1259 2753 
L 3481 2753 
L 3481 2222 
L 1259 2222 
L 1259 531 
L 3634 531 
L 3634 0 
L 628 0 
L 628 4666 
z
" transform="scale(0.015625)"/>
      <path id="DejaVuSans-78" d="M 3513 3500 
L 2247 1797 
L 3578 0 
L 2900 0 
L 1881 1375 
L 863 0 
L 184 0 
L 1544 1831 
L 300 3500 
L 978 3500 
L 1906 2253 
L 2834 3500 
L 3513 3500 
z
" transform="scale(0.015625)"/>
     </defs>
     <use xlink:href="#DejaVuSans-41"/>
     <use xlink:href="#DejaVuSans-63" x="66.658203"/>
     <use xlink:href="#DejaVuSans-74" x="121.638672"/>
     <use xlink:href="#DejaVuSans-75" x="160.847656"/>
     <use xlink:href="#DejaVuSans-61" x="224.226562"/>
     <use xlink:href="#DejaVuSans-6c" x="285.505859"/>
     <use xlink:href="#DejaVuSans-20" x="313.289062"/>
     <use xlink:href="#DejaVuSans-73" x="345.076172"/>
     <use xlink:href="#DejaVuSans-70" x="397.175781"/>
     <use xlink:href="#DejaVuSans-65" x="460.652344"/>
     <use xlink:href="#DejaVuSans-65" x="522.175781"/>
     <use xlink:href="#DejaVuSans-64" x="583.699219"/>
     <use xlink:href="#DejaVuSans-20" x="647.175781"/>
     <use xlink:href="#DejaVuSans-76" x="678.962891"/>
     <use xlink:href="#DejaVuSans-73" x="738.142578"/>
     <use xlink:href="#DejaVuSans-20" x="790.242188"/>
     <use xlink:href="#DejaVuSans-45" x="822.029297"/>
     <use xlink:href="#DejaVuSans-78" x="885.212891"/>
     <use xlink:href="#DejaVuSans-70" x="944.392578"/>
     <use xlink:href="#DejaVuSans-65" x="1007.869141"/>
     <use xlink:href="#DejaVuSans-63" x="1069.392578"/>
     <use xlink:href="#DejaVuSans-74" x="1124.373047"/>
     <use xlink:href="#DejaVuSans-65" x="1163.582031"/>
     <use xlink:href="#DejaVuSans-64" x="1225.105469"/>
     <use xlink:href="#DejaVuSans-20" x="1288.582031"/>
     <use xlink:href="#DejaVuSans-73" x="1320.369141"/>
     <use xlink:href="#DejaVuSans-70" x="1372.46875"/>
     <use xlink:href="#DejaVuSans-65" x="1435.945312"/>
     <use xlink:href="#DejaVuSans-65" x="1497.46875"/>
     <use xlink:href="#DejaVuSans-64" x="1558.992188"/>
    </g>
   </g>
   <g id="legend_1">
    <g id="patch_7">
     <path d="M 64.6 302.584 
L 176.65 302.584 
Q 178.65 302.584 178.65 300.584 
L 178.65 272.22775 
Q 178.65 270.22775 176.65 270.22775 
L 64.6 270.22775 
Q 62.6 270.22775 62.6 272.22775 
L 62.6 300.584 
Q 62.6 302.584 64.6 302.584 
z
" style="fill: #ffffff; opacity: 0.8; stroke: #cccccc; stroke-linejoin: miter"/>
    </g>
    <g id="line2d_23">
     <path d="M 66.6 278.326187 
L 76.6 278.326187 
L 86.6 278.326187 
" style="fill: none; stroke: #1f77b4; stroke-width: 1.5; stroke-linecap: square"/>
    </g>
    <g id="text_14">
     <!-- Actual speed -->
     <g transform="translate(94.6 281.826187) scale(0.1 -0.1)">
      <use xlink:href="#DejaVuSans-41"/>
      <use xlink:href="#DejaVuSans-63" x="66.658203"/>
      <use xlink:href="#DejaVuSans-74" x="121.638672"/>
      <use xlink:href="#DejaVuSans-75" x="160.847656"/>
      <use xlink:href="#DejaVuSans-61" x="224.226562"/>
      <use xlink:href="#DejaVuSans-6c" x="285.505859"/>
      <use xlink:href="#DejaVuSans-20" x="313.289062"/>
      <use xlink:href="#DejaVuSans-73" x="345.076172"/>
      <use xlink:href="#DejaVuSans-70" x="397.175781"/>
      <use xlink:href="#DejaVuSans-65" x="460.652344"/>
      <use xlink:href="#DejaVuSans-65" x="522.175781"/>
      <use xlink:href="#DejaVuSans-64" x="583.699219"/>
     </g>
    </g>
    <g id="line2d_24">
     <path d="M 66.6 293.004312 
L 76.6 293.004312 
L 86.6 293.004312 
" style="fill: none; stroke: #ff7f0e; stroke-width: 1.5; stroke-linecap: square"/>
    </g>
    <g id="text_15">
     <!-- Expected speed -->
     <g transform="translate(94.6 296.504312) scale(0.1 -0.1)">
      <use xlink:href="#DejaVuSans-45"/>
      <use xlink:href="#DejaVuSans-78" x="63.183594"/>
      <use xlink:href="#DejaVuSans-70" x="122.363281"/>
      <use xlink:href="#DejaVuSans-65" x="185.839844"/>
      <use xlink:href="#DejaVuSans-63" x="247.363281"/>
      <use xlink:href="#DejaVuSans-74" x="302.34375"/>
      <use xlink:href="#DejaVuSans-65" x="341.552734"/>
      <use xlink:href="#DejaVuSans-64" x="403.076172"/>
      <use xlink:href="#DejaVuSans-20" x="466.552734"/>
      <use xlink:href="#DejaVuSans-73" x="498.339844"/>
      <use xlink:href="#DejaVuSans-70" x="550.439453"/>
      <use xlink:href="#DejaVuSans-65" x="613.916016"/>
      <use xlink:href="#DejaVuSans-65" x="675.439453"/>
      <use xlink:href="#DejaVuSans-64" x="736.962891"/>
     </g>
    </g>
   </g>
  </g>
 </g>
 <defs>
  <clipPath id="pe0f73128dd">
   <rect x="57.6" y="41.472" width="357.12" height="266.112"/>
  </clipPath>
 </defs>
</svg>
