<?xml version="1.0" encoding="utf-8" standalone="no"?>
<!DOCTYPE svg PUBLIC "-//W3C//DTD SVG 1.1//EN"
  "http://www.w3.org/Graphics/SVG/1.1/DTD/svg11.dtd">
<svg xmlns:xlink="http://www.w3.org/1999/xlink" width="460.8pt" height="345.6pt" viewBox="0 0 460.8 345.6" xmlns="http://www.w3.org/2000/svg" version="1.1">
 <metadata>
  <rdf:RDF xmlns:dc="http://purl.org/dc/elements/1.1/" xmlns:cc="http://creativecommons.org/ns#" xmlns:rdf="http://www.w3.org/1999/02/22-rdf-syntax-ns#">
   <cc:Work>
    <dc:type rdf:resource="http://purl.org/dc/dcmitype/StillImage"/>
    <dc:date>2024-01-30T20:58:36.078718</dc:date>
    <dc:format>image/svg+xml</dc:format>
    <dc:creator>
     <cc:Agent>
      <dc:title>Matplotlib v3.7.1, https://matplotlib.org/</dc:title>
     </cc:Agent>
    </dc:creator>
   </cc:Work>
  </rdf:RDF>
 </metadata>
 <defs>
  <style type="text/css">*{stroke-linejoin: round; stroke-linecap: butt}</style>
 </defs>
 <g id="figure_1">
  <g id="patch_1">
   <path d="M 0 345.6 
L 460.8 345.6 
L 460.8 0 
L 0 0 
z
" style="fill: #ffffff"/>
  </g>
  <g id="axes_1">
   <g id="patch_2">
    <path d="M 57.6 307.584 
L 414.72 307.584 
L 414.72 41.472 
L 57.6 41.472 
z
" style="fill: #ffffff"/>
   </g>
   <g id="matplotlib.axis_1">
    <g id="xtick_1">
     <g id="line2d_1">
      <path d="M 73.832727 307.584 
L 73.832727 41.472 
" clip-path="url(#p6ad55c97d0)" style="fill: none; stroke: #b0b0b0; stroke-width: 0.8; stroke-linecap: square"/>
     </g>
     <g id="line2d_2">
      <defs>
       <path id="m627add0bb1" d="M 0 0 
L 0 3.5 
" style="stroke: #000000; stroke-width: 0.8"/>
      </defs>
      <g>
       <use xlink:href="#m627add0bb1" x="73.832727" y="307.584" style="stroke: #000000; stroke-width: 0.8"/>
      </g>
     </g>
     <g id="text_1">
      <!-- 0 -->
      <g transform="translate(70.651477 322.182437) scale(0.1 -0.1)">
       <defs>
        <path id="DejaVuSans-30" d="M 2034 4250 
Q 1547 4250 1301 3770 
Q 1056 3291 1056 2328 
Q 1056 1369 1301 889 
Q 1547 409 2034 409 
Q 2525 409 2770 889 
Q 3016 1369 3016 2328 
Q 3016 3291 2770 3770 
Q 2525 4250 2034 4250 
z
M 2034 4750 
Q 2819 4750 3233 4129 
Q 3647 3509 3647 2328 
Q 3647 1150 3233 529 
Q 2819 -91 2034 -91 
Q 1250 -91 836 529 
Q 422 1150 422 2328 
Q 422 3509 836 4129 
Q 1250 4750 2034 4750 
z
" transform="scale(0.015625)"/>
       </defs>
       <use xlink:href="#DejaVuSans-30"/>
      </g>
     </g>
    </g>
    <g id="xtick_2">
     <g id="line2d_3">
      <path d="M 125.202117 307.584 
L 125.202117 41.472 
" clip-path="url(#p6ad55c97d0)" style="fill: none; stroke: #b0b0b0; stroke-width: 0.8; stroke-linecap: square"/>
     </g>
     <g id="line2d_4">
      <g>
       <use xlink:href="#m627add0bb1" x="125.202117" y="307.584" style="stroke: #000000; stroke-width: 0.8"/>
      </g>
     </g>
     <g id="text_2">
      <!-- 5 -->
      <g transform="translate(122.020867 322.182437) scale(0.1 -0.1)">
       <defs>
        <path id="DejaVuSans-35" d="M 691 4666 
L 3169 4666 
L 3169 4134 
L 1269 4134 
L 1269 2991 
Q 1406 3038 1543 3061 
Q 1681 3084 1819 3084 
Q 2600 3084 3056 2656 
Q 3513 2228 3513 1497 
Q 3513 744 3044 326 
Q 2575 -91 1722 -91 
Q 1428 -91 1123 -41 
Q 819 9 494 109 
L 494 744 
Q 775 591 1075 516 
Q 1375 441 1709 441 
Q 2250 441 2565 725 
Q 2881 1009 2881 1497 
Q 2881 1984 2565 2268 
Q 2250 2553 1709 2553 
Q 1456 2553 1204 2497 
Q 953 2441 691 2322 
L 691 4666 
z
" transform="scale(0.015625)"/>
       </defs>
       <use xlink:href="#DejaVuSans-35"/>
      </g>
     </g>
    </g>
    <g id="xtick_3">
     <g id="line2d_5">
      <path d="M 176.571507 307.584 
L 176.571507 41.472 
" clip-path="url(#p6ad55c97d0)" style="fill: none; stroke: #b0b0b0; stroke-width: 0.8; stroke-linecap: square"/>
     </g>
     <g id="line2d_6">
      <g>
       <use xlink:href="#m627add0bb1" x="176.571507" y="307.584" style="stroke: #000000; stroke-width: 0.8"/>
      </g>
     </g>
     <g id="text_3">
      <!-- 10 -->
      <g transform="translate(170.209007 322.182437) scale(0.1 -0.1)">
       <defs>
        <path id="DejaVuSans-31" d="M 794 531 
L 1825 531 
L 1825 4091 
L 703 3866 
L 703 4441 
L 1819 4666 
L 2450 4666 
L 2450 531 
L 3481 531 
L 3481 0 
L 794 0 
L 794 531 
z
" transform="scale(0.015625)"/>
       </defs>
       <use xlink:href="#DejaVuSans-31"/>
       <use xlink:href="#DejaVuSans-30" x="63.623047"/>
      </g>
     </g>
    </g>
    <g id="xtick_4">
     <g id="line2d_7">
      <path d="M 227.940898 307.584 
L 227.940898 41.472 
" clip-path="url(#p6ad55c97d0)" style="fill: none; stroke: #b0b0b0; stroke-width: 0.8; stroke-linecap: square"/>
     </g>
     <g id="line2d_8">
      <g>
       <use xlink:href="#m627add0bb1" x="227.940898" y="307.584" style="stroke: #000000; stroke-width: 0.8"/>
      </g>
     </g>
     <g id="text_4">
      <!-- 15 -->
      <g transform="translate(221.578398 322.182437) scale(0.1 -0.1)">
       <use xlink:href="#DejaVuSans-31"/>
       <use xlink:href="#DejaVuSans-35" x="63.623047"/>
      </g>
     </g>
    </g>
    <g id="xtick_5">
     <g id="line2d_9">
      <path d="M 279.310288 307.584 
L 279.310288 41.472 
" clip-path="url(#p6ad55c97d0)" style="fill: none; stroke: #b0b0b0; stroke-width: 0.8; stroke-linecap: square"/>
     </g>
     <g id="line2d_10">
      <g>
       <use xlink:href="#m627add0bb1" x="279.310288" y="307.584" style="stroke: #000000; stroke-width: 0.8"/>
      </g>
     </g>
     <g id="text_5">
      <!-- 20 -->
      <g transform="translate(272.947788 322.182437) scale(0.1 -0.1)">
       <defs>
        <path id="DejaVuSans-32" d="M 1228 531 
L 3431 531 
L 3431 0 
L 469 0 
L 469 531 
Q 828 903 1448 1529 
Q 2069 2156 2228 2338 
Q 2531 2678 2651 2914 
Q 2772 3150 2772 3378 
Q 2772 3750 2511 3984 
Q 2250 4219 1831 4219 
Q 1534 4219 1204 4116 
Q 875 4013 500 3803 
L 500 4441 
Q 881 4594 1212 4672 
Q 1544 4750 1819 4750 
Q 2544 4750 2975 4387 
Q 3406 4025 3406 3419 
Q 3406 3131 3298 2873 
Q 3191 2616 2906 2266 
Q 2828 2175 2409 1742 
Q 1991 1309 1228 531 
z
" transform="scale(0.015625)"/>
       </defs>
       <use xlink:href="#DejaVuSans-32"/>
       <use xlink:href="#DejaVuSans-30" x="63.623047"/>
      </g>
     </g>
    </g>
    <g id="xtick_6">
     <g id="line2d_11">
      <path d="M 330.679678 307.584 
L 330.679678 41.472 
" clip-path="url(#p6ad55c97d0)" style="fill: none; stroke: #b0b0b0; stroke-width: 0.8; stroke-linecap: square"/>
     </g>
     <g id="line2d_12">
      <g>
       <use xlink:href="#m627add0bb1" x="330.679678" y="307.584" style="stroke: #000000; stroke-width: 0.8"/>
      </g>
     </g>
     <g id="text_6">
      <!-- 25 -->
      <g transform="translate(324.317178 322.182437) scale(0.1 -0.1)">
       <use xlink:href="#DejaVuSans-32"/>
       <use xlink:href="#DejaVuSans-35" x="63.623047"/>
      </g>
     </g>
    </g>
    <g id="xtick_7">
     <g id="line2d_13">
      <path d="M 382.049068 307.584 
L 382.049068 41.472 
" clip-path="url(#p6ad55c97d0)" style="fill: none; stroke: #b0b0b0; stroke-width: 0.8; stroke-linecap: square"/>
     </g>
     <g id="line2d_14">
      <g>
       <use xlink:href="#m627add0bb1" x="382.049068" y="307.584" style="stroke: #000000; stroke-width: 0.8"/>
      </g>
     </g>
     <g id="text_7">
      <!-- 30 -->
      <g transform="translate(375.686568 322.182437) scale(0.1 -0.1)">
       <defs>
        <path id="DejaVuSans-33" d="M 2597 2516 
Q 3050 2419 3304 2112 
Q 3559 1806 3559 1356 
Q 3559 666 3084 287 
Q 2609 -91 1734 -91 
Q 1441 -91 1130 -33 
Q 819 25 488 141 
L 488 750 
Q 750 597 1062 519 
Q 1375 441 1716 441 
Q 2309 441 2620 675 
Q 2931 909 2931 1356 
Q 2931 1769 2642 2001 
Q 2353 2234 1838 2234 
L 1294 2234 
L 1294 2753 
L 1863 2753 
Q 2328 2753 2575 2939 
Q 2822 3125 2822 3475 
Q 2822 3834 2567 4026 
Q 2313 4219 1838 4219 
Q 1578 4219 1281 4162 
Q 984 4106 628 3988 
L 628 4550 
Q 988 4650 1302 4700 
Q 1616 4750 1894 4750 
Q 2613 4750 3031 4423 
Q 3450 4097 3450 3541 
Q 3450 3153 3228 2886 
Q 3006 2619 2597 2516 
z
" transform="scale(0.015625)"/>
       </defs>
       <use xlink:href="#DejaVuSans-33"/>
       <use xlink:href="#DejaVuSans-30" x="63.623047"/>
      </g>
     </g>
    </g>
    <g id="text_8">
     <!-- Time(s) -->
     <g transform="translate(217.420156 335.860562) scale(0.1 -0.1)">
      <defs>
       <path id="DejaVuSans-54" d="M -19 4666 
L 3928 4666 
L 3928 4134 
L 2272 4134 
L 2272 0 
L 1638 0 
L 1638 4134 
L -19 4134 
L -19 4666 
z
" transform="scale(0.015625)"/>
       <path id="DejaVuSans-69" d="M 603 3500 
L 1178 3500 
L 1178 0 
L 603 0 
L 603 3500 
z
M 603 4863 
L 1178 4863 
L 1178 4134 
L 603 4134 
L 603 4863 
z
" transform="scale(0.015625)"/>
       <path id="DejaVuSans-6d" d="M 3328 2828 
Q 3544 3216 3844 3400 
Q 4144 3584 4550 3584 
Q 5097 3584 5394 3201 
Q 5691 2819 5691 2113 
L 5691 0 
L 5113 0 
L 5113 2094 
Q 5113 2597 4934 2840 
Q 4756 3084 4391 3084 
Q 3944 3084 3684 2787 
Q 3425 2491 3425 1978 
L 3425 0 
L 2847 0 
L 2847 2094 
Q 2847 2600 2669 2842 
Q 2491 3084 2119 3084 
Q 1678 3084 1418 2786 
Q 1159 2488 1159 1978 
L 1159 0 
L 581 0 
L 581 3500 
L 1159 3500 
L 1159 2956 
Q 1356 3278 1631 3431 
Q 1906 3584 2284 3584 
Q 2666 3584 2933 3390 
Q 3200 3197 3328 2828 
z
" transform="scale(0.015625)"/>
       <path id="DejaVuSans-65" d="M 3597 1894 
L 3597 1613 
L 953 1613 
Q 991 1019 1311 708 
Q 1631 397 2203 397 
Q 2534 397 2845 478 
Q 3156 559 3463 722 
L 3463 178 
Q 3153 47 2828 -22 
Q 2503 -91 2169 -91 
Q 1331 -91 842 396 
Q 353 884 353 1716 
Q 353 2575 817 3079 
Q 1281 3584 2069 3584 
Q 2775 3584 3186 3129 
Q 3597 2675 3597 1894 
z
M 3022 2063 
Q 3016 2534 2758 2815 
Q 2500 3097 2075 3097 
Q 1594 3097 1305 2825 
Q 1016 2553 972 2059 
L 3022 2063 
z
" transform="scale(0.015625)"/>
       <path id="DejaVuSans-28" d="M 1984 4856 
Q 1566 4138 1362 3434 
Q 1159 2731 1159 2009 
Q 1159 1288 1364 580 
Q 1569 -128 1984 -844 
L 1484 -844 
Q 1016 -109 783 600 
Q 550 1309 550 2009 
Q 550 2706 781 3412 
Q 1013 4119 1484 4856 
L 1984 4856 
z
" transform="scale(0.015625)"/>
       <path id="DejaVuSans-73" d="M 2834 3397 
L 2834 2853 
Q 2591 2978 2328 3040 
Q 2066 3103 1784 3103 
Q 1356 3103 1142 2972 
Q 928 2841 928 2578 
Q 928 2378 1081 2264 
Q 1234 2150 1697 2047 
L 1894 2003 
Q 2506 1872 2764 1633 
Q 3022 1394 3022 966 
Q 3022 478 2636 193 
Q 2250 -91 1575 -91 
Q 1294 -91 989 -36 
Q 684 19 347 128 
L 347 722 
Q 666 556 975 473 
Q 1284 391 1588 391 
Q 1994 391 2212 530 
Q 2431 669 2431 922 
Q 2431 1156 2273 1281 
Q 2116 1406 1581 1522 
L 1381 1569 
Q 847 1681 609 1914 
Q 372 2147 372 2553 
Q 372 3047 722 3315 
Q 1072 3584 1716 3584 
Q 2034 3584 2315 3537 
Q 2597 3491 2834 3397 
z
" transform="scale(0.015625)"/>
       <path id="DejaVuSans-29" d="M 513 4856 
L 1013 4856 
Q 1481 4119 1714 3412 
Q 1947 2706 1947 2009 
Q 1947 1309 1714 600 
Q 1481 -109 1013 -844 
L 513 -844 
Q 928 -128 1133 580 
Q 1338 1288 1338 2009 
Q 1338 2731 1133 3434 
Q 928 4138 513 4856 
z
" transform="scale(0.015625)"/>
      </defs>
      <use xlink:href="#DejaVuSans-54"/>
      <use xlink:href="#DejaVuSans-69" x="57.958984"/>
      <use xlink:href="#DejaVuSans-6d" x="85.742188"/>
      <use xlink:href="#DejaVuSans-65" x="183.154297"/>
      <use xlink:href="#DejaVuSans-28" x="244.677734"/>
      <use xlink:href="#DejaVuSans-73" x="283.691406"/>
      <use xlink:href="#DejaVuSans-29" x="335.791016"/>
     </g>
    </g>
   </g>
   <g id="matplotlib.axis_2">
    <g id="ytick_1">
     <g id="line2d_15">
      <path d="M 57.6 295.488 
L 414.72 295.488 
" clip-path="url(#p6ad55c97d0)" style="fill: none; stroke: #b0b0b0; stroke-width: 0.8; stroke-linecap: square"/>
     </g>
     <g id="line2d_16">
      <defs>
       <path id="md102527cf7" d="M 0 0 
L -3.5 0 
" style="stroke: #000000; stroke-width: 0.8"/>
      </defs>
      <g>
       <use xlink:href="#md102527cf7" x="57.6" y="295.488" style="stroke: #000000; stroke-width: 0.8"/>
      </g>
     </g>
     <g id="text_9">
      <!-- 0 -->
      <g transform="translate(44.2375 299.287219) scale(0.1 -0.1)">
       <use xlink:href="#DejaVuSans-30"/>
      </g>
     </g>
    </g>
    <g id="ytick_2">
     <g id="line2d_17">
      <path d="M 57.6 265.248 
L 414.72 265.248 
" clip-path="url(#p6ad55c97d0)" style="fill: none; stroke: #b0b0b0; stroke-width: 0.8; stroke-linecap: square"/>
     </g>
     <g id="line2d_18">
      <g>
       <use xlink:href="#md102527cf7" x="57.6" y="265.248" style="stroke: #000000; stroke-width: 0.8"/>
      </g>
     </g>
     <g id="text_10">
      <!-- 1 -->
      <g transform="translate(44.2375 269.047219) scale(0.1 -0.1)">
       <use xlink:href="#DejaVuSans-31"/>
      </g>
     </g>
    </g>
    <g id="ytick_3">
     <g id="line2d_19">
      <path d="M 57.6 235.008 
L 414.72 235.008 
" clip-path="url(#p6ad55c97d0)" style="fill: none; stroke: #b0b0b0; stroke-width: 0.8; stroke-linecap: square"/>
     </g>
     <g id="line2d_20">
      <g>
       <use xlink:href="#md102527cf7" x="57.6" y="235.008" style="stroke: #000000; stroke-width: 0.8"/>
      </g>
     </g>
     <g id="text_11">
      <!-- 2 -->
      <g transform="translate(44.2375 238.807219) scale(0.1 -0.1)">
       <use xlink:href="#DejaVuSans-32"/>
      </g>
     </g>
    </g>
    <g id="ytick_4">
     <g id="line2d_21">
      <path d="M 57.6 204.768 
L 414.72 204.768 
" clip-path="url(#p6ad55c97d0)" style="fill: none; stroke: #b0b0b0; stroke-width: 0.8; stroke-linecap: square"/>
     </g>
     <g id="line2d_22">
      <g>
       <use xlink:href="#md102527cf7" x="57.6" y="204.768" style="stroke: #000000; stroke-width: 0.8"/>
      </g>
     </g>
     <g id="text_12">
      <!-- 3 -->
      <g transform="translate(44.2375 208.567219) scale(0.1 -0.1)">
       <use xlink:href="#DejaVuSans-33"/>
      </g>
     </g>
    </g>
    <g id="ytick_5">
     <g id="line2d_23">
      <path d="M 57.6 174.528 
L 414.72 174.528 
" clip-path="url(#p6ad55c97d0)" style="fill: none; stroke: #b0b0b0; stroke-width: 0.8; stroke-linecap: square"/>
     </g>
     <g id="line2d_24">
      <g>
       <use xlink:href="#md102527cf7" x="57.6" y="174.528" style="stroke: #000000; stroke-width: 0.8"/>
      </g>
     </g>
     <g id="text_13">
      <!-- 4 -->
      <g transform="translate(44.2375 178.327219) scale(0.1 -0.1)">
       <defs>
        <path id="DejaVuSans-34" d="M 2419 4116 
L 825 1625 
L 2419 1625 
L 2419 4116 
z
M 2253 4666 
L 3047 4666 
L 3047 1625 
L 3713 1625 
L 3713 1100 
L 3047 1100 
L 3047 0 
L 2419 0 
L 2419 1100 
L 313 1100 
L 313 1709 
L 2253 4666 
z
" transform="scale(0.015625)"/>
       </defs>
       <use xlink:href="#DejaVuSans-34"/>
      </g>
     </g>
    </g>
    <g id="ytick_6">
     <g id="line2d_25">
      <path d="M 57.6 144.288 
L 414.72 144.288 
" clip-path="url(#p6ad55c97d0)" style="fill: none; stroke: #b0b0b0; stroke-width: 0.8; stroke-linecap: square"/>
     </g>
     <g id="line2d_26">
      <g>
       <use xlink:href="#md102527cf7" x="57.6" y="144.288" style="stroke: #000000; stroke-width: 0.8"/>
      </g>
     </g>
     <g id="text_14">
      <!-- 5 -->
      <g transform="translate(44.2375 148.087219) scale(0.1 -0.1)">
       <use xlink:href="#DejaVuSans-35"/>
      </g>
     </g>
    </g>
    <g id="ytick_7">
     <g id="line2d_27">
      <path d="M 57.6 114.048 
L 414.72 114.048 
" clip-path="url(#p6ad55c97d0)" style="fill: none; stroke: #b0b0b0; stroke-width: 0.8; stroke-linecap: square"/>
     </g>
     <g id="line2d_28">
      <g>
       <use xlink:href="#md102527cf7" x="57.6" y="114.048" style="stroke: #000000; stroke-width: 0.8"/>
      </g>
     </g>
     <g id="text_15">
      <!-- 6 -->
      <g transform="translate(44.2375 117.847219) scale(0.1 -0.1)">
       <defs>
        <path id="DejaVuSans-36" d="M 2113 2584 
Q 1688 2584 1439 2293 
Q 1191 2003 1191 1497 
Q 1191 994 1439 701 
Q 1688 409 2113 409 
Q 2538 409 2786 701 
Q 3034 994 3034 1497 
Q 3034 2003 2786 2293 
Q 2538 2584 2113 2584 
z
M 3366 4563 
L 3366 3988 
Q 3128 4100 2886 4159 
Q 2644 4219 2406 4219 
Q 1781 4219 1451 3797 
Q 1122 3375 1075 2522 
Q 1259 2794 1537 2939 
Q 1816 3084 2150 3084 
Q 2853 3084 3261 2657 
Q 3669 2231 3669 1497 
Q 3669 778 3244 343 
Q 2819 -91 2113 -91 
Q 1303 -91 875 529 
Q 447 1150 447 2328 
Q 447 3434 972 4092 
Q 1497 4750 2381 4750 
Q 2619 4750 2861 4703 
Q 3103 4656 3366 4563 
z
" transform="scale(0.015625)"/>
       </defs>
       <use xlink:href="#DejaVuSans-36"/>
      </g>
     </g>
    </g>
    <g id="ytick_8">
     <g id="line2d_29">
      <path d="M 57.6 83.808 
L 414.72 83.808 
" clip-path="url(#p6ad55c97d0)" style="fill: none; stroke: #b0b0b0; stroke-width: 0.8; stroke-linecap: square"/>
     </g>
     <g id="line2d_30">
      <g>
       <use xlink:href="#md102527cf7" x="57.6" y="83.808" style="stroke: #000000; stroke-width: 0.8"/>
      </g>
     </g>
     <g id="text_16">
      <!-- 7 -->
      <g transform="translate(44.2375 87.607219) scale(0.1 -0.1)">
       <defs>
        <path id="DejaVuSans-37" d="M 525 4666 
L 3525 4666 
L 3525 4397 
L 1831 0 
L 1172 0 
L 2766 4134 
L 525 4134 
L 525 4666 
z
" transform="scale(0.015625)"/>
       </defs>
       <use xlink:href="#DejaVuSans-37"/>
      </g>
     </g>
    </g>
    <g id="ytick_9">
     <g id="line2d_31">
      <path d="M 57.6 53.568 
L 414.72 53.568 
" clip-path="url(#p6ad55c97d0)" style="fill: none; stroke: #b0b0b0; stroke-width: 0.8; stroke-linecap: square"/>
     </g>
     <g id="line2d_32">
      <g>
       <use xlink:href="#md102527cf7" x="57.6" y="53.568" style="stroke: #000000; stroke-width: 0.8"/>
      </g>
     </g>
     <g id="text_17">
      <!-- 8 -->
      <g transform="translate(44.2375 57.367219) scale(0.1 -0.1)">
       <defs>
        <path id="DejaVuSans-38" d="M 2034 2216 
Q 1584 2216 1326 1975 
Q 1069 1734 1069 1313 
Q 1069 891 1326 650 
Q 1584 409 2034 409 
Q 2484 409 2743 651 
Q 3003 894 3003 1313 
Q 3003 1734 2745 1975 
Q 2488 2216 2034 2216 
z
M 1403 2484 
Q 997 2584 770 2862 
Q 544 3141 544 3541 
Q 544 4100 942 4425 
Q 1341 4750 2034 4750 
Q 2731 4750 3128 4425 
Q 3525 4100 3525 3541 
Q 3525 3141 3298 2862 
Q 3072 2584 2669 2484 
Q 3125 2378 3379 2068 
Q 3634 1759 3634 1313 
Q 3634 634 3220 271 
Q 2806 -91 2034 -91 
Q 1263 -91 848 271 
Q 434 634 434 1313 
Q 434 1759 690 2068 
Q 947 2378 1403 2484 
z
M 1172 3481 
Q 1172 3119 1398 2916 
Q 1625 2713 2034 2713 
Q 2441 2713 2670 2916 
Q 2900 3119 2900 3481 
Q 2900 3844 2670 4047 
Q 2441 4250 2034 4250 
Q 1625 4250 1398 4047 
Q 1172 3844 1172 3481 
z
" transform="scale(0.015625)"/>
       </defs>
       <use xlink:href="#DejaVuSans-38"/>
      </g>
     </g>
    </g>
    <g id="text_18">
     <!-- Velocity(m/s) -->
     <g transform="translate(38.157812 207.204563) rotate(-90) scale(0.1 -0.1)">
      <defs>
       <path id="DejaVuSans-56" d="M 1831 0 
L 50 4666 
L 709 4666 
L 2188 738 
L 3669 4666 
L 4325 4666 
L 2547 0 
L 1831 0 
z
" transform="scale(0.015625)"/>
       <path id="DejaVuSans-6c" d="M 603 4863 
L 1178 4863 
L 1178 0 
L 603 0 
L 603 4863 
z
" transform="scale(0.015625)"/>
       <path id="DejaVuSans-6f" d="M 1959 3097 
Q 1497 3097 1228 2736 
Q 959 2375 959 1747 
Q 959 1119 1226 758 
Q 1494 397 1959 397 
Q 2419 397 2687 759 
Q 2956 1122 2956 1747 
Q 2956 2369 2687 2733 
Q 2419 3097 1959 3097 
z
M 1959 3584 
Q 2709 3584 3137 3096 
Q 3566 2609 3566 1747 
Q 3566 888 3137 398 
Q 2709 -91 1959 -91 
Q 1206 -91 779 398 
Q 353 888 353 1747 
Q 353 2609 779 3096 
Q 1206 3584 1959 3584 
z
" transform="scale(0.015625)"/>
       <path id="DejaVuSans-63" d="M 3122 3366 
L 3122 2828 
Q 2878 2963 2633 3030 
Q 2388 3097 2138 3097 
Q 1578 3097 1268 2742 
Q 959 2388 959 1747 
Q 959 1106 1268 751 
Q 1578 397 2138 397 
Q 2388 397 2633 464 
Q 2878 531 3122 666 
L 3122 134 
Q 2881 22 2623 -34 
Q 2366 -91 2075 -91 
Q 1284 -91 818 406 
Q 353 903 353 1747 
Q 353 2603 823 3093 
Q 1294 3584 2113 3584 
Q 2378 3584 2631 3529 
Q 2884 3475 3122 3366 
z
" transform="scale(0.015625)"/>
       <path id="DejaVuSans-74" d="M 1172 4494 
L 1172 3500 
L 2356 3500 
L 2356 3053 
L 1172 3053 
L 1172 1153 
Q 1172 725 1289 603 
Q 1406 481 1766 481 
L 2356 481 
L 2356 0 
L 1766 0 
Q 1100 0 847 248 
Q 594 497 594 1153 
L 594 3053 
L 172 3053 
L 172 3500 
L 594 3500 
L 594 4494 
L 1172 4494 
z
" transform="scale(0.015625)"/>
       <path id="DejaVuSans-79" d="M 2059 -325 
Q 1816 -950 1584 -1140 
Q 1353 -1331 966 -1331 
L 506 -1331 
L 506 -850 
L 844 -850 
Q 1081 -850 1212 -737 
Q 1344 -625 1503 -206 
L 1606 56 
L 191 3500 
L 800 3500 
L 1894 763 
L 2988 3500 
L 3597 3500 
L 2059 -325 
z
" transform="scale(0.015625)"/>
       <path id="DejaVuSans-2f" d="M 1625 4666 
L 2156 4666 
L 531 -594 
L 0 -594 
L 1625 4666 
z
" transform="scale(0.015625)"/>
      </defs>
      <use xlink:href="#DejaVuSans-56"/>
      <use xlink:href="#DejaVuSans-65" x="60.658203"/>
      <use xlink:href="#DejaVuSans-6c" x="122.181641"/>
      <use xlink:href="#DejaVuSans-6f" x="149.964844"/>
      <use xlink:href="#DejaVuSans-63" x="211.146484"/>
      <use xlink:href="#DejaVuSans-69" x="266.126953"/>
      <use xlink:href="#DejaVuSans-74" x="293.910156"/>
      <use xlink:href="#DejaVuSans-79" x="333.119141"/>
      <use xlink:href="#DejaVuSans-28" x="392.298828"/>
      <use xlink:href="#DejaVuSans-6d" x="431.3125"/>
      <use xlink:href="#DejaVuSans-2f" x="528.724609"/>
      <use xlink:href="#DejaVuSans-73" x="562.416016"/>
      <use xlink:href="#DejaVuSans-29" x="614.515625"/>
     </g>
    </g>
   </g>
   <g id="line2d_33">
    <path d="M 73.832727 295.488 
L 74.038205 295.488 
L 74.243682 59.785495 
L 74.44916 65.537143 
L 75.27107 61.673892 
L 76.09298 59.057558 
L 76.914891 57.285706 
L 77.736801 56.085752 
L 78.558711 55.273113 
L 79.586099 54.615544 
L 80.818964 54.151813 
L 82.257307 53.863173 
L 84.51756 53.669062 
L 87.394246 53.593825 
L 87.599724 53.979899 
L 88.010679 55.777002 
L 88.421634 58.098466 
L 88.832589 60.482769 
L 89.859977 69.209882 
L 90.270932 74.276957 
L 90.47641 76.427626 
L 91.709275 94.845116 
L 92.531185 105.139629 
L 92.94214 110.084715 
L 94.175006 121.791224 
L 95.407871 130.351533 
L 96.229781 134.468679 
L 97.257169 137.416172 
L 97.873602 138.523258 
L 98.490035 139.091891 
L 99.311945 139.178166 
L 100.133855 139.220199 
L 100.955765 139.148742 
L 101.572198 138.93558 
L 101.983153 138.494288 
L 102.394108 137.899377 
L 102.805063 137.09838 
L 103.216018 136.068859 
L 103.626974 134.671166 
L 104.654361 128.235489 
L 105.270794 123.018605 
L 107.32557 102.009849 
L 108.14748 97.357667 
L 108.96939 94.133327 
L 110.613211 88.920435 
L 111.435121 84.463906 
L 111.846076 81.561954 
L 113.078941 70.357611 
L 113.695374 67.327291 
L 114.311807 65.533938 
L 114.928239 64.322947 
L 115.75015 63.198412 
L 116.366582 62.406063 
L 117.188493 60.80794 
L 118.010403 58.471114 
L 118.832313 56.888533 
L 119.654223 55.816767 
L 120.476133 55.090947 
L 121.503521 54.503626 
L 122.736387 54.089459 
L 124.380207 53.807168 
L 126.845938 53.642269 
L 131.982877 53.575137 
L 132.393832 53.573867 
L 132.804787 54.396062 
L 133.010265 55.265764 
L 133.42122 58.592769 
L 133.832175 62.33636 
L 134.448608 67.883797 
L 134.859563 71.671267 
L 135.270518 75.167495 
L 135.681473 78.450349 
L 136.708861 85.857062 
L 137.119816 88.862314 
L 138.352681 95.697914 
L 139.585547 101.229839 
L 140.612934 104.433071 
L 141.229367 105.49888 
L 141.8458 106.358543 
L 142.462232 106.796267 
L 143.48962 107.047742 
L 145.133441 107.022432 
L 145.955351 106.837544 
L 147.188216 106.083812 
L 147.599171 105.737927 
L 148.832037 103.8873 
L 149.44847 102.559733 
L 149.859425 101.555402 
L 151.503245 95.275824 
L 152.73611 87.781657 
L 153.968976 76.949296 
L 154.790886 69.402571 
L 155.612796 64.291679 
L 156.434707 60.830408 
L 157.256617 58.486324 
L 158.078527 56.898845 
L 158.900437 55.823753 
L 159.722348 55.095664 
L 160.749735 54.507073 
L 161.982601 54.092664 
L 163.626421 53.812823 
L 166.092152 53.64859 
L 170.201703 53.580731 
L 170.407181 53.710521 
L 170.818136 55.006093 
L 171.434568 57.414407 
L 171.845524 59.19134 
L 172.256479 61.345547 
L 172.667434 63.309332 
L 173.078389 65.79128 
L 173.489344 67.958127 
L 176.36603 88.949133 
L 179.859148 120.55722 
L 180.270104 124.775096 
L 181.502969 136.369747 
L 181.708446 137.523705 
L 182.324879 142.551105 
L 182.735834 145.553846 
L 183.352267 149.576401 
L 183.9687 154.282441 
L 184.174177 155.324995 
L 184.79061 159.916062 
L 184.996087 160.845005 
L 185.201565 162.734581 
L 185.61252 164.511968 
L 187.461818 174.597401 
L 188.694684 180.358242 
L 189.311116 182.254048 
L 189.722071 183.790542 
L 191.776847 188.156049 
L 193.009712 189.472033 
L 193.831623 189.993915 
L 194.653533 190.206472 
L 195.269965 190.312584 
L 195.886398 190.3675 
L 197.530219 190.23892 
L 198.557606 189.772226 
L 199.790472 188.240872 
L 200.81786 185.953156 
L 202.256203 179.47608 
L 202.872635 175.583588 
L 204.516456 160.206306 
L 204.927411 157.618336 
L 205.338366 156.363195 
L 205.749321 155.968623 
L 205.954799 156.474418 
L 206.160276 156.550713 
L 206.365754 156.948309 
L 208.009574 162.492964 
L 208.420529 163.285101 
L 208.831484 163.814361 
L 209.447917 164.196353 
L 210.269827 164.439573 
L 211.913648 164.337604 
L 213.351991 163.588075 
L 214.173901 162.524776 
L 215.817722 158.899575 
L 216.434154 156.927624 
L 217.66702 151.377254 
L 218.48893 146.846092 
L 219.31084 141.583637 
L 220.13275 135.231967 
L 220.954661 127.188096 
L 222.598481 106.276411 
L 223.625869 90.032178 
L 224.447779 78.322524 
L 225.269689 70.332542 
L 226.0916 64.921487 
L 226.91351 61.256943 
L 227.73542 58.775207 
L 228.55733 57.094468 
L 229.379241 55.956446 
L 230.201151 55.185538 
L 231.228539 54.561747 
L 232.461404 54.121846 
L 234.105224 53.822016 
L 236.570955 53.646896 
L 239.858596 53.607372 
L 240.064074 53.778319 
L 240.269551 54.648899 
L 240.680506 59.052084 
L 241.091461 64.072529 
L 241.502417 68.315957 
L 241.913372 73.133129 
L 242.324327 77.211084 
L 242.735282 81.418375 
L 244.790058 98.243185 
L 246.844833 110.114865 
L 247.255788 112.111793 
L 247.666743 114.237937 
L 249.310564 122.566245 
L 249.926997 126.185429 
L 250.337952 128.20537 
L 250.748907 130.777645 
L 251.365339 134.588157 
L 251.776295 137.007085 
L 252.392727 140.743056 
L 254.858458 158.285431 
L 255.885846 165.716427 
L 256.091323 166.714347 
L 256.296801 168.432916 
L 256.707756 170.093576 
L 257.735144 175.764393 
L 258.146099 177.056578 
L 258.968009 180.784626 
L 260.200875 184.619602 
L 260.61183 186.03556 
L 262.25565 189.702553 
L 262.666605 190.288634 
L 263.899471 191.059724 
L 265.748769 191.145727 
L 266.570679 190.95213 
L 267.187112 190.55526 
L 268.419977 188.439731 
L 268.830932 187.25027 
L 270.474753 178.610279 
L 271.50214 169.852533 
L 271.913096 168.003962 
L 272.529528 167.406873 
L 272.940483 168.810402 
L 273.351438 171.323921 
L 273.967871 174.364008 
L 274.584304 177.54828 
L 275.406214 180.16519 
L 276.022647 181.01956 
L 276.433602 181.276328 
L 278.2829 181.183128 
L 279.10481 180.80661 
L 279.310288 180.649241 
L 280.748631 178.29282 
L 280.954108 177.822043 
L 282.597929 171.443097 
L 283.830794 164.062692 
L 284.447227 159.49113 
L 286.091047 143.065125 
L 287.118435 129.551776 
L 289.173211 101.992522 
L 289.789643 97.400184 
L 290.406076 94.3819 
L 291.022509 92.40877 
L 291.844419 90.702901 
L 292.460852 89.7918 
L 293.282762 88.84417 
L 294.104672 87.979608 
L 294.721105 87.092034 
L 295.13206 86.233883 
L 296.159448 82.468701 
L 296.570403 80.167134 
L 297.186835 75.751368 
L 297.803268 71.815088 
L 298.214223 71.167257 
L 298.419701 71.218211 
L 298.830656 74.073593 
L 299.447089 78.583224 
L 299.858044 81.638915 
L 300.679954 85.624093 
L 301.296387 87.743978 
L 301.707342 88.655018 
L 302.323774 89.429858 
L 302.940207 89.790198 
L 303.351162 89.811245 
L 303.55664 89.916087 
L 305.20046 89.636669 
L 305.611415 89.440744 
L 306.638803 88.298852 
L 307.049758 87.507471 
L 307.666191 85.934447 
L 308.077146 84.575733 
L 308.899056 80.739729 
L 310.131922 73.016402 
L 311.15931 65.667115 
L 311.98122 61.761921 
L 312.80313 59.117191 
L 313.62504 57.326076 
L 314.446951 56.113089 
L 315.268861 55.29162 
L 316.296249 54.626914 
L 317.529114 54.158164 
L 318.967457 53.866378 
L 320.4058 53.727093 
L 320.611277 54.61379 
L 321.638665 66.021618 
L 322.460575 76.301374 
L 323.487963 88.245418 
L 324.515351 97.491025 
L 325.131784 103.053432 
L 325.542739 106.602972 
L 327.597514 121.593061 
L 328.83038 128.862757 
L 330.268723 135.649128 
L 332.118021 142.004487 
L 332.323498 142.424672 
L 332.939931 144.094857 
L 333.145409 144.507331 
L 333.761841 146.241746 
L 334.172796 147.317383 
L 336.844005 153.695906 
L 337.460437 154.522577 
L 338.693303 155.04712 
L 339.309735 155.119182 
L 340.748078 154.811611 
L 341.364511 154.132148 
L 341.775466 153.388002 
L 342.186421 152.278557 
L 342.597376 150.739764 
L 343.008331 148.727474 
L 343.419287 146.134303 
L 344.035719 141.195325 
L 344.652152 136.722678 
L 345.063107 135.324168 
L 345.268585 134.959474 
L 345.67954 134.810754 
L 345.885017 135.178442 
L 346.912405 138.043168 
L 347.528838 138.94937 
L 348.350748 139.016926 
L 348.967181 138.996454 
L 349.378136 138.863337 
L 349.583613 138.721088 
L 350.405524 137.371961 
L 351.227434 134.810935 
L 352.049344 130.862438 
L 352.665777 126.958635 
L 354.515075 108.93865 
L 356.364373 85.230883 
L 357.186283 75.025306 
L 358.008193 68.09956 
L 358.830104 63.409245 
L 359.241059 61.666756 
L 359.446536 61.212339 
L 359.857491 62.252293 
L 360.062969 63.915795 
L 361.090357 78.515546 
L 361.501312 84.604643 
L 362.5287 97.649937 
L 362.939655 102.735518 
L 363.761565 110.809145 
L 365.405386 123.477255 
L 366.843728 130.213034 
L 368.282071 134.432451 
L 369.309459 136.495303 
L 370.131369 137.626975 
L 370.747802 138.355698 
L 371.980667 139.005616 
L 372.802578 139.186875 
L 373.41901 139.384433 
L 375.473786 139.345998 
L 376.706651 139.061712 
L 377.117606 138.743405 
L 377.528562 138.332262 
L 377.939517 137.79523 
L 378.350472 137.108903 
L 378.966904 135.806466 
L 379.583337 133.996602 
L 381.02168 126.845991 
L 381.84359 121.520183 
L 383.487411 105.959042 
L 384.309321 96.541489 
L 386.569574 69.908426 
L 387.391484 64.634237 
L 388.213395 61.062409 
L 389.035305 58.643451 
L 389.857215 57.00526 
L 390.679125 55.912719 
L 391.501036 55.157293 
L 392.322946 54.644332 
L 393.966766 54.079812 
L 395.816064 53.815121 
L 396.22702 53.878474 
L 397.04893 54.120182 
L 398.076318 53.936535 
L 398.487273 53.96617 
L 398.487273 53.96617 
" clip-path="url(#p6ad55c97d0)" style="fill: none; stroke: #1f77b4; stroke-width: 1.5; stroke-linecap: square"/>
   </g>
   <g id="line2d_34">
    <path d="M 73.832727 279.920448 
L 74.038205 279.920448 
L 74.243682 53.568 
L 86.983291 53.568 
L 87.599724 57.555235 
L 87.805201 59.810111 
L 88.010679 59.876245 
L 88.421634 62.98277 
L 88.627112 65.38552 
L 88.832589 65.832981 
L 89.243544 69.931076 
L 89.654499 78.936578 
L 89.859977 77.551646 
L 90.065455 80.524843 
L 90.270932 86.163091 
L 90.47641 87.222852 
L 90.887365 94.524542 
L 91.092842 100.224026 
L 91.29832 99.296293 
L 91.503797 101.855141 
L 91.709275 107.295015 
L 91.914753 106.889315 
L 92.12023 109.522372 
L 92.325708 114.357053 
L 92.531185 113.460951 
L 92.94214 117.68309 
L 93.147618 119.217498 
L 93.353096 123.097743 
L 93.558573 122.901849 
L 93.764051 125.36033 
L 93.969528 126.212887 
L 94.175006 127.550493 
L 94.380483 130.506574 
L 94.585961 130.112849 
L 94.791438 132.064992 
L 94.996916 132.284534 
L 95.407871 134.169605 
L 95.613349 134.846981 
L 95.818826 136.830967 
L 96.024304 136.277787 
L 96.229781 137.42724 
L 96.435259 137.38451 
L 96.640736 138.103618 
L 96.846214 138.22488 
L 97.462647 139.209283 
L 97.668124 139.15355 
L 97.873602 139.405631 
L 98.490035 139.121859 
L 98.695512 139.265711 
L 98.90099 139.139368 
L 99.106467 139.284852 
L 99.311945 139.134862 
L 99.517422 139.2896 
L 99.7229 139.068243 
L 99.928377 139.226913 
L 100.133855 138.90156 
L 100.339333 139.026905 
L 100.750288 138.624895 
L 100.955765 138.404112 
L 101.161243 137.959312 
L 101.36672 137.234248 
L 101.572198 135.725484 
L 101.777675 136.067861 
L 101.983153 134.287451 
L 102.188631 134.402998 
L 102.394108 132.443597 
L 102.599586 132.21087 
L 103.216018 127.298049 
L 103.421496 121.736913 
L 103.626974 123.415898 
L 103.832451 117.30642 
L 104.037929 118.161063 
L 104.243406 111.779728 
L 104.448884 112.249325 
L 104.654361 106.024028 
L 104.859839 105.347922 
L 105.065316 99.893745 
L 105.270794 97.891736 
L 105.476272 94.427472 
L 105.681749 88.749881 
L 105.887227 89.469109 
L 106.092704 86.58754 
L 106.298182 86.155501 
L 106.503659 86.263095 
L 106.709137 86.99581 
L 106.914614 87.155175 
L 107.120092 87.570793 
L 107.32557 87.429028 
L 107.531047 87.712226 
L 107.736525 87.64851 
L 107.942002 87.346776 
L 108.14748 87.523377 
L 108.352957 87.441699 
L 108.558435 87.188983 
L 108.763913 87.510979 
L 108.96939 86.990095 
L 109.174868 85.663345 
L 109.380345 85.999372 
L 109.585823 84.95331 
L 109.7913 82.935757 
L 109.996778 83.249407 
L 110.202255 81.966596 
L 110.407733 77.760212 
L 110.613211 77.919304 
L 110.818688 75.744444 
L 111.024166 70.2554 
L 111.229643 70.095702 
L 111.435121 66.240132 
L 111.640598 60.094669 
L 111.846076 59.06285 
L 112.257031 53.568 
L 112.462509 55.342211 
L 112.667986 55.551502 
L 113.078941 58.573264 
L 113.695374 60.485188 
L 114.106329 60.578993 
L 114.311807 60.869176 
L 114.928239 60.692846 
L 115.133717 61.000024 
L 115.544672 60.659885 
L 115.75015 60.232745 
L 116.161105 58.229103 
L 116.366582 58.651132 
L 116.777537 55.862974 
L 116.983015 53.568 
L 131.982877 53.568 
L 132.188354 54.756795 
L 132.393832 55.186687 
L 132.59931 56.922584 
L 133.215742 65.097907 
L 133.42122 65.202326 
L 134.037652 71.91866 
L 134.24313 75.133837 
L 134.448608 74.132319 
L 134.654085 75.971002 
L 135.06504 81.227288 
L 135.270518 80.730626 
L 135.886951 85.507246 
L 136.092428 86.728821 
L 136.503383 91.508132 
L 136.708861 90.881711 
L 137.119816 94.15513 
L 137.325293 94.17028 
L 137.941726 97.498404 
L 138.147204 98.623876 
L 138.352681 100.434829 
L 138.558159 100.595494 
L 139.791024 104.424513 
L 140.407457 105.638044 
L 140.612934 105.985986 
L 140.818412 105.99279 
L 141.229367 106.627013 
L 141.434845 106.859075 
L 141.8458 106.882723 
L 142.051277 107.076622 
L 142.462232 106.910604 
L 142.66771 107.107497 
L 142.873188 106.991587 
L 143.078665 107.19486 
L 143.48962 106.94662 
L 143.695098 107.150437 
L 144.106053 106.813715 
L 144.31153 107.030264 
L 144.517008 106.808998 
L 144.722486 106.973927 
L 145.133441 106.361627 
L 145.338918 106.545154 
L 145.544396 106.217654 
L 145.749873 105.640191 
L 145.955351 105.897141 
L 146.366306 105.130708 
L 146.571784 104.931759 
L 146.777261 104.29188 
L 146.982739 104.420007 
L 147.188216 103.867462 
L 147.393694 102.703706 
L 147.599171 103.088873 
L 147.804649 102.239492 
L 148.010127 100.84316 
L 148.215604 101.380857 
L 148.421082 100.054591 
L 148.626559 99.768551 
L 148.832037 99.235934 
L 149.037514 97.196851 
L 149.242992 97.428338 
L 149.44847 96.396791 
L 149.653947 93.515373 
L 149.859425 94.670994 
L 150.27038 89.925219 
L 150.475857 90.932514 
L 150.681335 88.185815 
L 150.886812 87.844677 
L 151.09229 86.473777 
L 151.297768 82.537648 
L 151.503245 82.339788 
L 151.708723 80.660167 
L 151.9142 77.124506 
L 152.119678 76.349364 
L 152.325155 74.158204 
L 152.530633 69.673733 
L 152.73611 69.292981 
L 153.763498 53.568 
L 169.790748 53.568 
L 169.996226 53.957763 
L 170.612658 57.795492 
L 170.818136 58.012161 
L 171.229091 59.886829 
L 171.434568 60.955178 
L 171.640046 62.982468 
L 171.845524 62.963356 
L 172.051001 63.904848 
L 172.667434 67.755156 
L 173.078389 70.175112 
L 173.283867 72.220304 
L 173.489344 73.004276 
L 173.900299 76.10064 
L 174.105777 78.59922 
L 174.311254 78.722146 
L 174.722209 82.559269 
L 174.927687 85.645171 
L 175.133165 85.026853 
L 175.338642 86.514359 
L 175.54412 89.804925 
L 175.749597 90.31335 
L 175.955075 91.691508 
L 176.36603 95.608495 
L 176.571507 97.184392 
L 176.982463 103.412078 
L 177.18794 102.929568 
L 177.393418 105.727162 
L 177.804373 108.360703 
L 178.00985 111.899992 
L 178.215328 112.553932 
L 178.420806 114.093602 
L 178.626283 118.466004 
L 178.831761 118.017333 
L 179.037238 120.949887 
L 179.448193 123.744516 
L 179.653671 128.26458 
L 179.859148 127.756215 
L 180.064626 130.815384 
L 180.270104 131.631108 
L 180.475581 133.353972 
L 180.681059 137.993242 
L 180.886536 136.681824 
L 181.092014 140.546254 
L 181.297491 139.722093 
L 181.502969 143.322739 
L 181.708446 142.993516 
L 181.913924 146.047908 
L 182.119402 145.99532 
L 182.324879 149.015691 
L 182.530357 149.11881 
L 182.735834 151.61234 
L 182.941312 151.733602 
L 183.146789 154.734317 
L 183.352267 154.969675 
L 183.557745 157.492931 
L 183.763222 157.311158 
L 183.9687 160.604476 
L 184.174177 160.146552 
L 184.379655 163.230155 
L 184.585132 162.614771 
L 184.79061 166.334351 
L 184.996087 165.143681 
L 185.61252 168.67154 
L 185.817998 170.634207 
L 186.023475 170.836785 
L 186.228953 173.344195 
L 186.43443 173.068708 
L 186.639908 176.125398 
L 186.845386 175.362533 
L 187.050863 176.066853 
L 187.256341 177.476884 
L 187.461818 177.793466 
L 187.667296 180.022306 
L 187.872773 179.755982 
L 188.078251 182.093262 
L 188.283728 181.72893 
L 188.489206 182.121899 
L 188.694684 183.258016 
L 188.900161 183.205701 
L 189.105639 185.107192 
L 189.311116 184.846644 
L 189.516594 185.116324 
L 189.722071 186.27497 
L 189.927549 186.229882 
L 190.543982 187.25021 
L 190.749459 188.226478 
L 190.954937 188.069412 
L 191.776847 189.405657 
L 191.982325 189.317084 
L 192.187802 189.466772 
L 192.39328 189.763668 
L 192.598757 189.716554 
L 193.009712 190.048438 
L 193.21519 190.074051 
L 193.420667 190.220957 
L 193.831623 190.303603 
L 194.0371 190.06383 
L 194.448055 190.407326 
L 194.653533 190.298674 
L 195.064488 190.431216 
L 195.269965 190.329428 
L 195.475443 190.398587 
L 195.680921 190.278655 
L 196.091876 190.395986 
L 196.297353 190.205656 
L 196.502831 190.259937 
L 196.708308 189.8282 
L 196.913786 189.983785 
L 197.119264 189.939 
L 197.324741 189.374661 
L 197.530219 189.502697 
L 197.941174 188.663386 
L 198.146651 188.689664 
L 198.352129 187.061603 
L 198.557606 187.622071 
L 198.763084 187.313865 
L 198.968562 185.209343 
L 199.174039 186.134354 
L 199.379517 185.289358 
L 199.584994 183.542544 
L 199.790472 183.835267 
L 199.995949 182.875147 
L 200.201427 181.194287 
L 200.406904 180.877916 
L 200.612382 176.659194 
L 200.81786 178.054165 
L 201.023337 176.655959 
L 201.228815 173.463764 
L 201.434292 173.622342 
L 201.63977 167.161022 
L 201.845247 169.034088 
L 202.050725 167.524174 
L 202.256203 162.240792 
L 202.46168 163.019866 
L 202.667158 153.875441 
L 202.872635 156.350585 
L 203.078113 154.550095 
L 203.28359 146.950027 
L 203.489068 148.143993 
L 203.694545 141.842703 
L 203.900023 142.733331 
L 204.105501 142.009688 
L 204.310978 145.043456 
L 204.516456 146.085466 
L 204.721933 150.680282 
L 204.927411 150.392791 
L 205.132888 154.417614 
L 205.338366 153.877981 
L 205.543843 157.438015 
L 205.749321 156.696016 
L 206.982186 162.285366 
L 207.187664 162.571618 
L 207.393142 163.220296 
L 207.598619 163.369803 
L 207.804097 163.840791 
L 208.009574 163.910313 
L 208.215052 164.184529 
L 209.858872 164.53362 
L 210.06435 164.400654 
L 210.269827 164.512905 
L 210.475305 164.347734 
L 210.680783 164.455449 
L 210.88626 164.189942 
L 211.091738 164.314894 
L 211.297215 163.861747 
L 211.502693 164.056221 
L 211.70817 163.321389 
L 211.913648 163.648827 
L 212.119125 163.541112 
L 212.324603 162.964043 
L 212.530081 162.892253 
L 212.735558 162.058294 
L 212.941036 162.07544 
L 213.146513 160.913892 
L 213.351991 161.094364 
L 213.557468 159.531319 
L 213.762946 159.863687 
L 213.968423 157.913872 
L 214.173901 158.589645 
L 214.379379 157.934102 
L 214.995811 154.879923 
L 215.201289 154.695126 
L 215.406766 152.674187 
L 215.612244 152.661849 
L 215.817722 150.327926 
L 216.023199 150.568455 
L 216.228677 147.437224 
L 216.434154 148.20157 
L 216.639632 144.171818 
L 216.845109 145.384079 
L 217.050587 140.82682 
L 217.256064 142.511098 
L 217.461542 137.374229 
L 217.66702 139.218869 
L 218.694407 130.112849 
L 219.31084 122.979928 
L 219.721795 118.670426 
L 220.13275 113.292968 
L 220.338228 105.935999 
L 220.543705 107.555381 
L 220.749183 100.364158 
L 220.954661 101.090583 
L 221.160138 94.376971 
L 221.365616 93.822188 
L 221.776571 86.629029 
L 221.982048 83.04822 
L 222.187526 74.770685 
L 222.393003 74.697504 
L 222.598481 69.481377 
L 222.803959 61.329187 
L 223.009436 62.572172 
L 223.214914 56.795213 
L 223.420391 54.430868 
L 223.625869 53.568 
L 239.447641 53.647501 
L 239.653119 54.103974 
L 240.064074 59.693233 
L 240.475029 68.479707 
L 240.680506 67.45445 
L 240.885984 69.454221 
L 241.296939 76.893412 
L 241.502417 76.685361 
L 241.707894 78.459209 
L 242.118849 84.706975 
L 242.324327 84.518035 
L 242.529804 86.453153 
L 242.735282 89.45027 
L 242.940759 90.134692 
L 243.351715 93.635728 
L 243.557192 96.768592 
L 243.76267 96.235914 
L 244.173625 100.699066 
L 244.379102 100.287379 
L 244.58458 101.800649 
L 244.790058 104.196806 
L 244.995535 103.905171 
L 245.40649 107.958995 
L 245.611968 107.514406 
L 245.817445 109.054318 
L 246.022923 109.696706 
L 246.2284 110.722447 
L 246.433878 112.509691 
L 246.639356 112.769211 
L 247.050311 116.138491 
L 247.255788 115.647817 
L 247.666743 117.939404 
L 247.872221 118.928343 
L 248.077699 120.92503 
L 248.283176 121.169732 
L 248.488654 122.919509 
L 248.694131 123.262672 
L 248.899609 124.574484 
L 249.105086 126.71481 
L 249.310564 126.774292 
L 249.516041 128.53668 
L 249.721519 128.993394 
L 249.926997 130.212157 
L 250.132474 133.262405 
L 250.337952 132.361737 
L 250.543429 135.183038 
L 250.748907 134.789374 
L 250.954384 137.322246 
L 251.159862 137.437098 
L 251.365339 139.747071 
L 251.570817 140.137893 
L 251.776295 142.506955 
L 251.981772 142.907332 
L 252.598205 147.698165 
L 253.214638 152.239517 
L 254.242025 159.98513 
L 254.447503 160.806116 
L 254.65298 162.996309 
L 254.858458 163.738973 
L 255.063936 166.00794 
L 255.269413 166.186659 
L 255.474891 168.961481 
L 255.680368 168.615505 
L 255.885846 171.70688 
L 256.091323 170.674728 
L 256.296801 171.787198 
L 256.502278 173.573263 
L 256.707756 173.90684 
L 256.913234 176.085058 
L 257.118711 175.900473 
L 257.324189 178.46425 
L 257.529666 177.653304 
L 257.735144 178.279635 
L 257.940621 180.175411 
L 258.146099 180.075226 
L 258.351577 182.587897 
L 258.557054 182.081861 
L 258.762532 182.494819 
L 258.968009 183.828312 
L 259.173487 183.770191 
L 259.378964 184.193581 
L 259.584442 185.530582 
L 259.789919 185.735004 
L 259.995397 187.216341 
L 260.200875 187.030214 
L 260.406352 187.429594 
L 260.61183 188.233857 
L 260.817307 188.398876 
L 261.022785 189.4577 
L 261.228262 189.433719 
L 261.43374 189.583317 
L 261.844695 190.36623 
L 262.050173 190.758836 
L 262.461128 190.726661 
L 262.666605 191.029031 
L 262.872083 191.096012 
L 263.07756 191.011915 
L 263.488516 191.238594 
L 263.693993 191.1147 
L 264.104948 191.272311 
L 264.310426 191.153559 
L 264.721381 191.286645 
L 264.926858 191.121474 
L 265.132336 191.19151 
L 265.337814 190.502461 
L 265.543291 190.912092 
L 265.748769 190.90795 
L 265.954246 190.148623 
L 266.159724 190.335023 
L 266.365201 189.922277 
L 266.570679 189.19183 
L 266.776157 189.121643 
L 266.981634 186.981921 
L 267.187112 187.674477 
L 267.392589 187.143977 
L 267.598067 184.575119 
L 267.803544 185.194918 
L 268.009022 184.244989 
L 268.214499 181.856331 
L 268.419977 181.599896 
L 268.625455 176.271427 
L 268.830932 177.963869 
L 269.03641 176.472251 
L 269.241887 171.993283 
L 269.447365 172.709427 
L 270.063797 165.005212 
L 270.269275 157.825632 
L 270.474753 158.970548 
L 270.885708 153.490848 
L 271.091185 154.705136 
L 271.296663 159.564946 
L 271.50214 159.273402 
L 271.707618 166.139333 
L 271.913096 164.580764 
L 272.118573 166.212393 
L 272.324051 169.808927 
L 272.529528 169.909021 
L 272.735006 173.682036 
L 272.940483 172.91772 
L 273.145961 173.939076 
L 273.351438 175.600008 
L 273.556916 176.226823 
L 273.762394 177.915152 
L 273.967871 178.133304 
L 274.173349 179.615608 
L 274.378826 179.617634 
L 274.584304 180.741504 
L 274.789781 180.718793 
L 274.995259 181.114726 
L 275.406214 181.27406 
L 275.611692 181.486043 
L 276.022647 181.473342 
L 276.228124 181.228005 
L 276.844557 181.338713 
L 277.46099 180.686678 
L 277.666467 181.231875 
L 278.077422 180.316692 
L 278.2829 180.627045 
L 278.488377 180.271634 
L 278.693855 179.058799 
L 278.899333 179.111598 
L 279.10481 177.205329 
L 279.310288 178.069497 
L 279.515765 177.632892 
L 279.721243 175.488271 
L 279.92672 176.285004 
L 280.132198 175.142537 
L 280.337675 173.254412 
L 280.543153 173.221904 
L 280.748631 169.661537 
L 280.954108 171.104348 
L 281.159586 169.839348 
L 281.365063 166.818282 
L 281.570541 166.9289 
L 281.776018 162.4874 
L 281.981496 164.183168 
L 282.186974 162.462482 
L 282.392451 159.26935 
L 282.597929 158.976052 
L 282.803406 154.270405 
L 283.008884 155.347736 
L 283.214361 153.504003 
L 283.419839 150.207722 
L 283.625316 149.321992 
L 283.830794 144.660436 
L 284.036272 144.55266 
L 284.241749 138.521776 
L 284.447227 139.502641 
L 284.652704 131.239742 
L 284.858182 133.954841 
L 286.912957 98.381714 
L 287.118435 90.751376 
L 287.323913 92.495196 
L 287.52939 86.913164 
L 287.734868 87.135882 
L 287.940345 83.415666 
L 288.145823 82.676601 
L 288.3513 81.298927 
L 288.762255 81.635498 
L 289.378688 84.724605 
L 289.584166 85.29611 
L 289.789643 85.358798 
L 289.995121 85.77357 
L 290.200598 86.540154 
L 290.611554 86.678351 
L 290.817031 87.119038 
L 291.227986 87.011112 
L 291.433464 87.281608 
L 291.638941 86.843007 
L 292.049896 87.341725 
L 292.255374 86.863873 
L 292.460852 87.10044 
L 292.666329 86.93784 
L 292.871807 86.574416 
L 293.077284 86.829883 
L 293.282762 86.493675 
L 293.488239 85.652398 
L 293.693717 85.864985 
L 293.899194 85.307964 
L 294.104672 84.137586 
L 294.31015 84.103203 
L 294.515627 83.103287 
L 294.721105 81.467152 
L 294.926582 78.860464 
L 295.13206 79.550268 
L 295.543015 73.903735 
L 295.748493 74.295675 
L 295.95397 71.878441 
L 296.159448 67.284834 
L 296.364925 66.607125 
L 296.570403 63.680558 
L 296.77588 58.718477 
L 296.981358 58.81848 
L 297.186835 58.492796 
L 297.597791 67.940135 
L 297.803268 68.352427 
L 298.419701 77.376285 
L 298.625178 77.90116 
L 299.036133 81.932455 
L 299.241611 84.024639 
L 299.447089 83.891946 
L 299.652566 84.777313 
L 299.858044 86.297417 
L 300.063521 86.338665 
L 300.679954 88.66914 
L 300.885432 88.785383 
L 301.090909 89.347333 
L 301.296387 89.339168 
L 301.707342 89.956971 
L 301.912819 89.652787 
L 302.323774 90.175183 
L 302.529252 89.747378 
L 302.73473 89.639542 
L 303.145685 90.115852 
L 303.351162 89.652666 
L 303.55664 89.889324 
L 303.967595 89.546947 
L 304.173072 89.761742 
L 304.584028 89.155853 
L 304.789505 88.524049 
L 304.994983 88.773529 
L 305.20046 88.309194 
L 305.405938 87.286054 
L 305.611415 87.612464 
L 305.816893 87.205645 
L 306.022371 85.295203 
L 306.227848 85.565156 
L 306.433326 84.962049 
L 306.638803 82.801583 
L 306.844281 82.633236 
L 307.049758 82.036632 
L 307.255236 79.538112 
L 307.460713 79.276596 
L 307.871669 75.349509 
L 308.077146 72.334581 
L 308.282624 73.136002 
L 308.693579 67.544686 
L 308.899056 67.918573 
L 309.104534 65.794969 
L 309.310012 61.477091 
L 309.515489 61.103687 
L 309.720967 59.160737 
L 310.131922 53.568 
L 319.994845 53.656785 
L 320.200322 56.303057 
L 320.611277 64.938966 
L 320.816755 65.284155 
L 321.22771 70.435358 
L 321.638665 78.715675 
L 321.844143 77.862574 
L 322.255098 83.8937 
L 322.460575 87.853205 
L 322.666053 86.853017 
L 322.87153 89.28147 
L 323.077008 93.288331 
L 323.282486 93.173661 
L 323.487963 94.95528 
L 323.693441 98.414616 
L 323.898918 98.96955 
L 324.104396 100.895233 
L 324.309873 104.054496 
L 324.515351 104.414715 
L 324.720829 106.287297 
L 324.926306 109.224085 
L 325.131784 109.318585 
L 325.337261 111.174837 
L 325.542739 114.859097 
L 325.748216 114.299567 
L 326.159171 117.403975 
L 326.364649 118.39627 
L 326.570127 121.113727 
L 326.775604 121.496142 
L 326.981082 123.460351 
L 327.186559 123.541092 
L 327.597514 127.924834 
L 327.802992 127.66105 
L 328.00847 129.132649 
L 328.213947 129.485822 
L 328.624902 131.823102 
L 328.83038 132.64935 
L 329.035857 134.842717 
L 329.241335 134.480563 
L 329.446812 136.054011 
L 329.65229 136.146969 
L 329.857768 137.323516 
L 330.063245 137.768831 
L 330.679678 139.707668 
L 330.885155 141.385353 
L 331.090633 140.928215 
L 331.29611 142.294398 
L 331.501588 142.360563 
L 331.707066 143.309736 
L 331.912543 143.225155 
L 332.118021 144.391844 
L 332.323498 144.206624 
L 332.528976 145.262182 
L 332.734453 145.293117 
L 332.939931 146.49927 
L 333.145409 146.655066 
L 333.350886 147.280913 
L 333.556364 147.486394 
L 333.761841 148.550358 
L 333.967319 148.795635 
L 334.172796 149.480027 
L 334.378274 149.599747 
L 334.583751 150.750802 
L 334.789229 150.976272 
L 334.994707 151.734207 
L 335.200184 151.83285 
L 335.405662 152.654743 
L 336.844005 154.822346 
L 337.049482 154.95268 
L 337.25496 154.833867 
L 337.665915 155.205366 
L 337.871392 155.098225 
L 338.07687 155.215526 
L 338.282348 154.857243 
L 338.487825 155.211746 
L 338.693303 154.772722 
L 338.89878 155.207029 
L 339.104258 154.66156 
L 339.309735 155.064568 
L 339.926168 154.534854 
L 340.337123 153.81992 
L 340.542601 152.795087 
L 340.748078 152.577812 
L 340.953556 151.17894 
L 341.159033 151.122361 
L 341.364511 148.846892 
L 341.569988 148.548937 
L 341.775466 145.827791 
L 341.980944 145.336391 
L 342.186421 142.001372 
L 342.391899 141.686302 
L 342.597376 137.277521 
L 342.802854 136.67638 
L 343.008331 131.727937 
L 343.213809 130.691068 
L 343.419287 125.545974 
L 343.624764 124.320649 
L 343.830242 121.658924 
L 344.035719 122.225561 
L 344.241197 126.305058 
L 344.446674 127.175819 
L 344.652152 130.319328 
L 344.857629 131.396023 
L 345.063107 133.632573 
L 345.474062 135.878982 
L 345.885017 137.594043 
L 346.090495 138.494772 
L 346.295972 138.537894 
L 346.912405 139.308561 
L 347.117883 139.412223 
L 347.528838 138.946316 
L 347.734315 139.103473 
L 347.939793 138.902921 
L 348.14527 139.049857 
L 348.350748 138.961284 
L 348.761703 138.460147 
L 348.967181 138.049034 
L 349.172658 137.331379 
L 349.378136 135.066463 
L 349.583613 136.166836 
L 349.789091 133.058104 
L 349.994568 134.156753 
L 350.200046 130.778522 
L 350.405524 131.344101 
L 350.611001 127.928886 
L 350.816479 128.235338 
L 351.021956 124.834789 
L 351.227434 124.683257 
L 351.432911 121.042089 
L 351.638389 120.553199 
L 351.843867 117.224107 
L 352.049344 116.284429 
L 352.254822 113.261185 
L 352.460299 106.245747 
L 352.665777 108.579671 
L 352.871254 101.660396 
L 353.076732 102.740266 
L 353.282209 97.59871 
L 353.487687 96.955475 
L 353.693165 93.286577 
L 353.898642 86.136813 
L 354.10412 87.653288 
L 354.309597 81.916609 
L 354.515075 81.50226 
L 354.720552 77.654946 
L 354.92603 71.033505 
L 355.131507 71.644656 
L 355.542463 61.383105 
L 355.74794 62.425145 
L 356.158895 53.568 
L 356.364373 53.753674 
L 356.56985 53.568 
L 358.830104 53.568 
L 359.035581 56.771958 
L 359.241059 62.860933 
L 359.446536 63.152387 
L 359.857491 71.629112 
L 360.062969 77.64031 
L 360.268446 77.837082 
L 360.679402 84.224223 
L 360.884879 89.431098 
L 361.090357 89.046747 
L 361.295834 91.649172 
L 361.501312 96.015041 
L 361.706789 97.060287 
L 362.117745 102.883362 
L 362.323222 107.183369 
L 362.5287 106.172204 
L 362.734177 109.154775 
L 362.939655 109.759696 
L 363.145132 111.771442 
L 363.35061 115.433567 
L 363.556087 115.559728 
L 363.761565 116.90574 
L 363.967043 120.689158 
L 364.17252 119.803579 
L 364.377998 122.393454 
L 364.583475 122.716629 
L 364.99443 126.731926 
L 365.199908 126.378541 
L 365.405386 128.005453 
L 365.610863 128.019696 
L 365.816341 129.576119 
L 366.227296 130.747012 
L 366.432773 132.118789 
L 366.638251 132.104123 
L 366.843728 133.327028 
L 367.049206 133.336282 
L 367.254684 134.150342 
L 367.460161 134.415759 
L 368.282071 136.475436 
L 368.487549 136.406549 
L 368.693026 136.999041 
L 368.898504 137.069137 
L 369.309459 137.638164 
L 370.336847 138.794057 
L 370.542325 138.71123 
L 370.747802 139.053789 
L 370.95328 138.873105 
L 371.158757 139.249169 
L 371.364235 138.994428 
L 371.569712 139.122494 
L 371.77519 139.086901 
L 371.980667 139.230602 
L 372.186145 139.159931 
L 372.5971 139.484316 
L 372.802578 139.364112 
L 373.008055 139.516642 
L 373.213533 139.394654 
L 373.41901 139.538989 
L 373.624488 139.415399 
L 373.829965 139.557587 
L 374.035443 139.144116 
L 374.240921 139.294529 
L 374.446398 139.120286 
L 374.651876 139.274813 
L 374.857353 139.05019 
L 375.062831 139.202086 
L 375.268308 138.922335 
L 375.473786 139.04514 
L 375.679264 138.706392 
L 375.884741 138.76542 
L 376.090219 138.657463 
L 376.501174 137.878662 
L 376.706651 136.706318 
L 376.912129 137.125898 
L 377.117606 135.782002 
L 377.323084 136.028851 
L 377.528562 134.637297 
L 377.734039 134.742048 
L 377.939517 133.172441 
L 378.144994 133.229807 
L 378.350472 131.544138 
L 378.555949 131.320423 
L 378.966904 128.898138 
L 379.172382 127.614027 
L 379.37786 123.570576 
L 379.583337 124.369759 
L 379.788815 120.872654 
L 379.994292 121.272185 
L 380.19977 117.95658 
L 380.405247 118.063842 
L 380.610725 114.740556 
L 380.816203 114.152268 
L 381.227158 109.536162 
L 381.432635 107.511382 
L 381.638113 101.723476 
L 381.84359 102.441737 
L 382.049068 97.796449 
L 382.254545 97.265435 
L 382.460023 94.009222 
L 382.665501 87.61065 
L 382.870978 88.980219 
L 383.076456 83.511225 
L 383.281933 82.981238 
L 383.487411 79.574975 
L 383.692888 72.821566 
L 383.898366 73.446748 
L 384.103843 69.409164 
L 384.309321 63.059096 
L 384.514799 63.93025 
L 384.925754 53.607554 
L 385.131231 53.884613 
L 385.336709 53.568 
L 390.062693 53.568 
L 390.26817 53.749954 
L 390.473648 53.587868 
L 391.706513 53.568 
L 391.911991 53.568 
L 392.117468 53.771152 
L 392.322946 53.568 
L 392.528423 53.719381 
L 392.733901 53.568 
L 393.966766 53.668064 
L 394.583199 53.72924 
L 394.788677 53.568 
L 395.405109 53.568 
L 396.021542 54.062122 
L 396.637975 54.243683 
L 396.843452 53.568 
L 397.459885 53.622039 
L 397.87084 53.889209 
L 398.076318 54.031035 
L 398.487273 54.025017 
L 398.487273 54.025017 
" clip-path="url(#p6ad55c97d0)" style="fill: none; stroke: #ff7f0e; stroke-width: 1.5; stroke-linecap: square"/>
   </g>
   <g id="patch_3">
    <path d="M 57.6 307.584 
L 57.6 41.472 
" style="fill: none; stroke: #000000; stroke-width: 0.8; stroke-linejoin: miter; stroke-linecap: square"/>
   </g>
   <g id="patch_4">
    <path d="M 414.72 307.584 
L 414.72 41.472 
" style="fill: none; stroke: #000000; stroke-width: 0.8; stroke-linejoin: miter; stroke-linecap: square"/>
   </g>
   <g id="patch_5">
    <path d="M 57.6 307.584 
L 414.72 307.584 
" style="fill: none; stroke: #000000; stroke-width: 0.8; stroke-linejoin: miter; stroke-linecap: square"/>
   </g>
   <g id="patch_6">
    <path d="M 57.6 41.472 
L 414.72 41.472 
" style="fill: none; stroke: #000000; stroke-width: 0.8; stroke-linejoin: miter; stroke-linecap: square"/>
   </g>
   <g id="text_19">
    <!-- Actual speed vs Expected speed -->
    <g transform="translate(138.808125 35.472) scale(0.12 -0.12)">
     <defs>
      <path id="DejaVuSans-41" d="M 2188 4044 
L 1331 1722 
L 3047 1722 
L 2188 4044 
z
M 1831 4666 
L 2547 4666 
L 4325 0 
L 3669 0 
L 3244 1197 
L 1141 1197 
L 716 0 
L 50 0 
L 1831 4666 
z
" transform="scale(0.015625)"/>
      <path id="DejaVuSans-75" d="M 544 1381 
L 544 3500 
L 1119 3500 
L 1119 1403 
Q 1119 906 1312 657 
Q 1506 409 1894 409 
Q 2359 409 2629 706 
Q 2900 1003 2900 1516 
L 2900 3500 
L 3475 3500 
L 3475 0 
L 2900 0 
L 2900 538 
Q 2691 219 2414 64 
Q 2138 -91 1772 -91 
Q 1169 -91 856 284 
Q 544 659 544 1381 
z
M 1991 3584 
L 1991 3584 
z
" transform="scale(0.015625)"/>
      <path id="DejaVuSans-61" d="M 2194 1759 
Q 1497 1759 1228 1600 
Q 959 1441 959 1056 
Q 959 750 1161 570 
Q 1363 391 1709 391 
Q 2188 391 2477 730 
Q 2766 1069 2766 1631 
L 2766 1759 
L 2194 1759 
z
M 3341 1997 
L 3341 0 
L 2766 0 
L 2766 531 
Q 2569 213 2275 61 
Q 1981 -91 1556 -91 
Q 1019 -91 701 211 
Q 384 513 384 1019 
Q 384 1609 779 1909 
Q 1175 2209 1959 2209 
L 2766 2209 
L 2766 2266 
Q 2766 2663 2505 2880 
Q 2244 3097 1772 3097 
Q 1472 3097 1187 3025 
Q 903 2953 641 2809 
L 641 3341 
Q 956 3463 1253 3523 
Q 1550 3584 1831 3584 
Q 2591 3584 2966 3190 
Q 3341 2797 3341 1997 
z
" transform="scale(0.015625)"/>
      <path id="DejaVuSans-20" transform="scale(0.015625)"/>
      <path id="DejaVuSans-70" d="M 1159 525 
L 1159 -1331 
L 581 -1331 
L 581 3500 
L 1159 3500 
L 1159 2969 
Q 1341 3281 1617 3432 
Q 1894 3584 2278 3584 
Q 2916 3584 3314 3078 
Q 3713 2572 3713 1747 
Q 3713 922 3314 415 
Q 2916 -91 2278 -91 
Q 1894 -91 1617 61 
Q 1341 213 1159 525 
z
M 3116 1747 
Q 3116 2381 2855 2742 
Q 2594 3103 2138 3103 
Q 1681 3103 1420 2742 
Q 1159 2381 1159 1747 
Q 1159 1113 1420 752 
Q 1681 391 2138 391 
Q 2594 391 2855 752 
Q 3116 1113 3116 1747 
z
" transform="scale(0.015625)"/>
      <path id="DejaVuSans-64" d="M 2906 2969 
L 2906 4863 
L 3481 4863 
L 3481 0 
L 2906 0 
L 2906 525 
Q 2725 213 2448 61 
Q 2172 -91 1784 -91 
Q 1150 -91 751 415 
Q 353 922 353 1747 
Q 353 2572 751 3078 
Q 1150 3584 1784 3584 
Q 2172 3584 2448 3432 
Q 2725 3281 2906 2969 
z
M 947 1747 
Q 947 1113 1208 752 
Q 1469 391 1925 391 
Q 2381 391 2643 752 
Q 2906 1113 2906 1747 
Q 2906 2381 2643 2742 
Q 2381 3103 1925 3103 
Q 1469 3103 1208 2742 
Q 947 2381 947 1747 
z
" transform="scale(0.015625)"/>
      <path id="DejaVuSans-76" d="M 191 3500 
L 800 3500 
L 1894 563 
L 2988 3500 
L 3597 3500 
L 2284 0 
L 1503 0 
L 191 3500 
z
" transform="scale(0.015625)"/>
      <path id="DejaVuSans-45" d="M 628 4666 
L 3578 4666 
L 3578 4134 
L 1259 4134 
L 1259 2753 
L 3481 2753 
L 3481 2222 
L 1259 2222 
L 1259 531 
L 3634 531 
L 3634 0 
L 628 0 
L 628 4666 
z
" transform="scale(0.015625)"/>
      <path id="DejaVuSans-78" d="M 3513 3500 
L 2247 1797 
L 3578 0 
L 2900 0 
L 1881 1375 
L 863 0 
L 184 0 
L 1544 1831 
L 300 3500 
L 978 3500 
L 1906 2253 
L 2834 3500 
L 3513 3500 
z
" transform="scale(0.015625)"/>
     </defs>
     <use xlink:href="#DejaVuSans-41"/>
     <use xlink:href="#DejaVuSans-63" x="66.658203"/>
     <use xlink:href="#DejaVuSans-74" x="121.638672"/>
     <use xlink:href="#DejaVuSans-75" x="160.847656"/>
     <use xlink:href="#DejaVuSans-61" x="224.226562"/>
     <use xlink:href="#DejaVuSans-6c" x="285.505859"/>
     <use xlink:href="#DejaVuSans-20" x="313.289062"/>
     <use xlink:href="#DejaVuSans-73" x="345.076172"/>
     <use xlink:href="#DejaVuSans-70" x="397.175781"/>
     <use xlink:href="#DejaVuSans-65" x="460.652344"/>
     <use xlink:href="#DejaVuSans-65" x="522.175781"/>
     <use xlink:href="#DejaVuSans-64" x="583.699219"/>
     <use xlink:href="#DejaVuSans-20" x="647.175781"/>
     <use xlink:href="#DejaVuSans-76" x="678.962891"/>
     <use xlink:href="#DejaVuSans-73" x="738.142578"/>
     <use xlink:href="#DejaVuSans-20" x="790.242188"/>
     <use xlink:href="#DejaVuSans-45" x="822.029297"/>
     <use xlink:href="#DejaVuSans-78" x="885.212891"/>
     <use xlink:href="#DejaVuSans-70" x="944.392578"/>
     <use xlink:href="#DejaVuSans-65" x="1007.869141"/>
     <use xlink:href="#DejaVuSans-63" x="1069.392578"/>
     <use xlink:href="#DejaVuSans-74" x="1124.373047"/>
     <use xlink:href="#DejaVuSans-65" x="1163.582031"/>
     <use xlink:href="#DejaVuSans-64" x="1225.105469"/>
     <use xlink:href="#DejaVuSans-20" x="1288.582031"/>
     <use xlink:href="#DejaVuSans-73" x="1320.369141"/>
     <use xlink:href="#DejaVuSans-70" x="1372.46875"/>
     <use xlink:href="#DejaVuSans-65" x="1435.945312"/>
     <use xlink:href="#DejaVuSans-65" x="1497.46875"/>
     <use xlink:href="#DejaVuSans-64" x="1558.992188"/>
    </g>
   </g>
   <g id="legend_1">
    <g id="patch_7">
     <path d="M 295.67 302.584 
L 407.72 302.584 
Q 409.72 302.584 409.72 300.584 
L 409.72 272.22775 
Q 409.72 270.22775 407.72 270.22775 
L 295.67 270.22775 
Q 293.67 270.22775 293.67 272.22775 
L 293.67 300.584 
Q 293.67 302.584 295.67 302.584 
z
" style="fill: #ffffff; opacity: 0.8; stroke: #cccccc; stroke-linejoin: miter"/>
    </g>
    <g id="line2d_35">
     <path d="M 297.67 278.326187 
L 307.67 278.326187 
L 317.67 278.326187 
" style="fill: none; stroke: #1f77b4; stroke-width: 1.5; stroke-linecap: square"/>
    </g>
    <g id="text_20">
     <!-- Actual speed -->
     <g transform="translate(325.67 281.826187) scale(0.1 -0.1)">
      <use xlink:href="#DejaVuSans-41"/>
      <use xlink:href="#DejaVuSans-63" x="66.658203"/>
      <use xlink:href="#DejaVuSans-74" x="121.638672"/>
      <use xlink:href="#DejaVuSans-75" x="160.847656"/>
      <use xlink:href="#DejaVuSans-61" x="224.226562"/>
      <use xlink:href="#DejaVuSans-6c" x="285.505859"/>
      <use xlink:href="#DejaVuSans-20" x="313.289062"/>
      <use xlink:href="#DejaVuSans-73" x="345.076172"/>
      <use xlink:href="#DejaVuSans-70" x="397.175781"/>
      <use xlink:href="#DejaVuSans-65" x="460.652344"/>
      <use xlink:href="#DejaVuSans-65" x="522.175781"/>
      <use xlink:href="#DejaVuSans-64" x="583.699219"/>
     </g>
    </g>
    <g id="line2d_36">
     <path d="M 297.67 293.004312 
L 307.67 293.004312 
L 317.67 293.004312 
" style="fill: none; stroke: #ff7f0e; stroke-width: 1.5; stroke-linecap: square"/>
    </g>
    <g id="text_21">
     <!-- Expected speed -->
     <g transform="translate(325.67 296.504312) scale(0.1 -0.1)">
      <use xlink:href="#DejaVuSans-45"/>
      <use xlink:href="#DejaVuSans-78" x="63.183594"/>
      <use xlink:href="#DejaVuSans-70" x="122.363281"/>
      <use xlink:href="#DejaVuSans-65" x="185.839844"/>
      <use xlink:href="#DejaVuSans-63" x="247.363281"/>
      <use xlink:href="#DejaVuSans-74" x="302.34375"/>
      <use xlink:href="#DejaVuSans-65" x="341.552734"/>
      <use xlink:href="#DejaVuSans-64" x="403.076172"/>
      <use xlink:href="#DejaVuSans-20" x="466.552734"/>
      <use xlink:href="#DejaVuSans-73" x="498.339844"/>
      <use xlink:href="#DejaVuSans-70" x="550.439453"/>
      <use xlink:href="#DejaVuSans-65" x="613.916016"/>
      <use xlink:href="#DejaVuSans-65" x="675.439453"/>
      <use xlink:href="#DejaVuSans-64" x="736.962891"/>
     </g>
    </g>
   </g>
  </g>
 </g>
 <defs>
  <clipPath id="p6ad55c97d0">
   <rect x="57.6" y="41.472" width="357.12" height="266.112"/>
  </clipPath>
 </defs>
</svg>
