<?xml version="1.0" encoding="utf-8" standalone="no"?>
<!DOCTYPE svg PUBLIC "-//W3C//DTD SVG 1.1//EN"
  "http://www.w3.org/Graphics/SVG/1.1/DTD/svg11.dtd">
<svg xmlns:xlink="http://www.w3.org/1999/xlink" width="460.8pt" height="345.6pt" viewBox="0 0 460.8 345.6" xmlns="http://www.w3.org/2000/svg" version="1.1">
 <metadata>
  <rdf:RDF xmlns:dc="http://purl.org/dc/elements/1.1/" xmlns:cc="http://creativecommons.org/ns#" xmlns:rdf="http://www.w3.org/1999/02/22-rdf-syntax-ns#">
   <cc:Work>
    <dc:type rdf:resource="http://purl.org/dc/dcmitype/StillImage"/>
    <dc:date>2024-01-30T20:58:36.766382</dc:date>
    <dc:format>image/svg+xml</dc:format>
    <dc:creator>
     <cc:Agent>
      <dc:title>Matplotlib v3.7.1, https://matplotlib.org/</dc:title>
     </cc:Agent>
    </dc:creator>
   </cc:Work>
  </rdf:RDF>
 </metadata>
 <defs>
  <style type="text/css">*{stroke-linejoin: round; stroke-linecap: butt}</style>
 </defs>
 <g id="figure_1">
  <g id="patch_1">
   <path d="M 0 345.6 
L 460.8 345.6 
L 460.8 0 
L 0 0 
z
" style="fill: #ffffff"/>
  </g>
  <g id="axes_1">
   <g id="patch_2">
    <path d="M 57.6 307.584 
L 414.72 307.584 
L 414.72 41.472 
L 57.6 41.472 
z
" style="fill: #ffffff"/>
   </g>
   <g id="matplotlib.axis_1">
    <g id="xtick_1">
     <g id="line2d_1">
      <path d="M 73.832727 307.584 
L 73.832727 41.472 
" clip-path="url(#pb134e49ec1)" style="fill: none; stroke: #b0b0b0; stroke-width: 0.8; stroke-linecap: square"/>
     </g>
     <g id="line2d_2">
      <defs>
       <path id="m815cad4e9f" d="M 0 0 
L 0 3.5 
" style="stroke: #000000; stroke-width: 0.8"/>
      </defs>
      <g>
       <use xlink:href="#m815cad4e9f" x="73.832727" y="307.584" style="stroke: #000000; stroke-width: 0.8"/>
      </g>
     </g>
     <g id="text_1">
      <!-- 0 -->
      <g transform="translate(70.651477 322.182437) scale(0.1 -0.1)">
       <defs>
        <path id="DejaVuSans-30" d="M 2034 4250 
Q 1547 4250 1301 3770 
Q 1056 3291 1056 2328 
Q 1056 1369 1301 889 
Q 1547 409 2034 409 
Q 2525 409 2770 889 
Q 3016 1369 3016 2328 
Q 3016 3291 2770 3770 
Q 2525 4250 2034 4250 
z
M 2034 4750 
Q 2819 4750 3233 4129 
Q 3647 3509 3647 2328 
Q 3647 1150 3233 529 
Q 2819 -91 2034 -91 
Q 1250 -91 836 529 
Q 422 1150 422 2328 
Q 422 3509 836 4129 
Q 1250 4750 2034 4750 
z
" transform="scale(0.015625)"/>
       </defs>
       <use xlink:href="#DejaVuSans-30"/>
      </g>
     </g>
    </g>
    <g id="xtick_2">
     <g id="line2d_3">
      <path d="M 124.370483 307.584 
L 124.370483 41.472 
" clip-path="url(#pb134e49ec1)" style="fill: none; stroke: #b0b0b0; stroke-width: 0.8; stroke-linecap: square"/>
     </g>
     <g id="line2d_4">
      <g>
       <use xlink:href="#m815cad4e9f" x="124.370483" y="307.584" style="stroke: #000000; stroke-width: 0.8"/>
      </g>
     </g>
     <g id="text_2">
      <!-- 5 -->
      <g transform="translate(121.189233 322.182437) scale(0.1 -0.1)">
       <defs>
        <path id="DejaVuSans-35" d="M 691 4666 
L 3169 4666 
L 3169 4134 
L 1269 4134 
L 1269 2991 
Q 1406 3038 1543 3061 
Q 1681 3084 1819 3084 
Q 2600 3084 3056 2656 
Q 3513 2228 3513 1497 
Q 3513 744 3044 326 
Q 2575 -91 1722 -91 
Q 1428 -91 1123 -41 
Q 819 9 494 109 
L 494 744 
Q 775 591 1075 516 
Q 1375 441 1709 441 
Q 2250 441 2565 725 
Q 2881 1009 2881 1497 
Q 2881 1984 2565 2268 
Q 2250 2553 1709 2553 
Q 1456 2553 1204 2497 
Q 953 2441 691 2322 
L 691 4666 
z
" transform="scale(0.015625)"/>
       </defs>
       <use xlink:href="#DejaVuSans-35"/>
      </g>
     </g>
    </g>
    <g id="xtick_3">
     <g id="line2d_5">
      <path d="M 174.90824 307.584 
L 174.90824 41.472 
" clip-path="url(#pb134e49ec1)" style="fill: none; stroke: #b0b0b0; stroke-width: 0.8; stroke-linecap: square"/>
     </g>
     <g id="line2d_6">
      <g>
       <use xlink:href="#m815cad4e9f" x="174.90824" y="307.584" style="stroke: #000000; stroke-width: 0.8"/>
      </g>
     </g>
     <g id="text_3">
      <!-- 10 -->
      <g transform="translate(168.54574 322.182437) scale(0.1 -0.1)">
       <defs>
        <path id="DejaVuSans-31" d="M 794 531 
L 1825 531 
L 1825 4091 
L 703 3866 
L 703 4441 
L 1819 4666 
L 2450 4666 
L 2450 531 
L 3481 531 
L 3481 0 
L 794 0 
L 794 531 
z
" transform="scale(0.015625)"/>
       </defs>
       <use xlink:href="#DejaVuSans-31"/>
       <use xlink:href="#DejaVuSans-30" x="63.623047"/>
      </g>
     </g>
    </g>
    <g id="xtick_4">
     <g id="line2d_7">
      <path d="M 225.445996 307.584 
L 225.445996 41.472 
" clip-path="url(#pb134e49ec1)" style="fill: none; stroke: #b0b0b0; stroke-width: 0.8; stroke-linecap: square"/>
     </g>
     <g id="line2d_8">
      <g>
       <use xlink:href="#m815cad4e9f" x="225.445996" y="307.584" style="stroke: #000000; stroke-width: 0.8"/>
      </g>
     </g>
     <g id="text_4">
      <!-- 15 -->
      <g transform="translate(219.083496 322.182437) scale(0.1 -0.1)">
       <use xlink:href="#DejaVuSans-31"/>
       <use xlink:href="#DejaVuSans-35" x="63.623047"/>
      </g>
     </g>
    </g>
    <g id="xtick_5">
     <g id="line2d_9">
      <path d="M 275.983752 307.584 
L 275.983752 41.472 
" clip-path="url(#pb134e49ec1)" style="fill: none; stroke: #b0b0b0; stroke-width: 0.8; stroke-linecap: square"/>
     </g>
     <g id="line2d_10">
      <g>
       <use xlink:href="#m815cad4e9f" x="275.983752" y="307.584" style="stroke: #000000; stroke-width: 0.8"/>
      </g>
     </g>
     <g id="text_5">
      <!-- 20 -->
      <g transform="translate(269.621252 322.182437) scale(0.1 -0.1)">
       <defs>
        <path id="DejaVuSans-32" d="M 1228 531 
L 3431 531 
L 3431 0 
L 469 0 
L 469 531 
Q 828 903 1448 1529 
Q 2069 2156 2228 2338 
Q 2531 2678 2651 2914 
Q 2772 3150 2772 3378 
Q 2772 3750 2511 3984 
Q 2250 4219 1831 4219 
Q 1534 4219 1204 4116 
Q 875 4013 500 3803 
L 500 4441 
Q 881 4594 1212 4672 
Q 1544 4750 1819 4750 
Q 2544 4750 2975 4387 
Q 3406 4025 3406 3419 
Q 3406 3131 3298 2873 
Q 3191 2616 2906 2266 
Q 2828 2175 2409 1742 
Q 1991 1309 1228 531 
z
" transform="scale(0.015625)"/>
       </defs>
       <use xlink:href="#DejaVuSans-32"/>
       <use xlink:href="#DejaVuSans-30" x="63.623047"/>
      </g>
     </g>
    </g>
    <g id="xtick_6">
     <g id="line2d_11">
      <path d="M 326.521508 307.584 
L 326.521508 41.472 
" clip-path="url(#pb134e49ec1)" style="fill: none; stroke: #b0b0b0; stroke-width: 0.8; stroke-linecap: square"/>
     </g>
     <g id="line2d_12">
      <g>
       <use xlink:href="#m815cad4e9f" x="326.521508" y="307.584" style="stroke: #000000; stroke-width: 0.8"/>
      </g>
     </g>
     <g id="text_6">
      <!-- 25 -->
      <g transform="translate(320.159008 322.182437) scale(0.1 -0.1)">
       <use xlink:href="#DejaVuSans-32"/>
       <use xlink:href="#DejaVuSans-35" x="63.623047"/>
      </g>
     </g>
    </g>
    <g id="xtick_7">
     <g id="line2d_13">
      <path d="M 377.059264 307.584 
L 377.059264 41.472 
" clip-path="url(#pb134e49ec1)" style="fill: none; stroke: #b0b0b0; stroke-width: 0.8; stroke-linecap: square"/>
     </g>
     <g id="line2d_14">
      <g>
       <use xlink:href="#m815cad4e9f" x="377.059264" y="307.584" style="stroke: #000000; stroke-width: 0.8"/>
      </g>
     </g>
     <g id="text_7">
      <!-- 30 -->
      <g transform="translate(370.696764 322.182437) scale(0.1 -0.1)">
       <defs>
        <path id="DejaVuSans-33" d="M 2597 2516 
Q 3050 2419 3304 2112 
Q 3559 1806 3559 1356 
Q 3559 666 3084 287 
Q 2609 -91 1734 -91 
Q 1441 -91 1130 -33 
Q 819 25 488 141 
L 488 750 
Q 750 597 1062 519 
Q 1375 441 1716 441 
Q 2309 441 2620 675 
Q 2931 909 2931 1356 
Q 2931 1769 2642 2001 
Q 2353 2234 1838 2234 
L 1294 2234 
L 1294 2753 
L 1863 2753 
Q 2328 2753 2575 2939 
Q 2822 3125 2822 3475 
Q 2822 3834 2567 4026 
Q 2313 4219 1838 4219 
Q 1578 4219 1281 4162 
Q 984 4106 628 3988 
L 628 4550 
Q 988 4650 1302 4700 
Q 1616 4750 1894 4750 
Q 2613 4750 3031 4423 
Q 3450 4097 3450 3541 
Q 3450 3153 3228 2886 
Q 3006 2619 2597 2516 
z
" transform="scale(0.015625)"/>
       </defs>
       <use xlink:href="#DejaVuSans-33"/>
       <use xlink:href="#DejaVuSans-30" x="63.623047"/>
      </g>
     </g>
    </g>
    <g id="text_8">
     <!-- Time(s) -->
     <g transform="translate(217.420156 335.860562) scale(0.1 -0.1)">
      <defs>
       <path id="DejaVuSans-54" d="M -19 4666 
L 3928 4666 
L 3928 4134 
L 2272 4134 
L 2272 0 
L 1638 0 
L 1638 4134 
L -19 4134 
L -19 4666 
z
" transform="scale(0.015625)"/>
       <path id="DejaVuSans-69" d="M 603 3500 
L 1178 3500 
L 1178 0 
L 603 0 
L 603 3500 
z
M 603 4863 
L 1178 4863 
L 1178 4134 
L 603 4134 
L 603 4863 
z
" transform="scale(0.015625)"/>
       <path id="DejaVuSans-6d" d="M 3328 2828 
Q 3544 3216 3844 3400 
Q 4144 3584 4550 3584 
Q 5097 3584 5394 3201 
Q 5691 2819 5691 2113 
L 5691 0 
L 5113 0 
L 5113 2094 
Q 5113 2597 4934 2840 
Q 4756 3084 4391 3084 
Q 3944 3084 3684 2787 
Q 3425 2491 3425 1978 
L 3425 0 
L 2847 0 
L 2847 2094 
Q 2847 2600 2669 2842 
Q 2491 3084 2119 3084 
Q 1678 3084 1418 2786 
Q 1159 2488 1159 1978 
L 1159 0 
L 581 0 
L 581 3500 
L 1159 3500 
L 1159 2956 
Q 1356 3278 1631 3431 
Q 1906 3584 2284 3584 
Q 2666 3584 2933 3390 
Q 3200 3197 3328 2828 
z
" transform="scale(0.015625)"/>
       <path id="DejaVuSans-65" d="M 3597 1894 
L 3597 1613 
L 953 1613 
Q 991 1019 1311 708 
Q 1631 397 2203 397 
Q 2534 397 2845 478 
Q 3156 559 3463 722 
L 3463 178 
Q 3153 47 2828 -22 
Q 2503 -91 2169 -91 
Q 1331 -91 842 396 
Q 353 884 353 1716 
Q 353 2575 817 3079 
Q 1281 3584 2069 3584 
Q 2775 3584 3186 3129 
Q 3597 2675 3597 1894 
z
M 3022 2063 
Q 3016 2534 2758 2815 
Q 2500 3097 2075 3097 
Q 1594 3097 1305 2825 
Q 1016 2553 972 2059 
L 3022 2063 
z
" transform="scale(0.015625)"/>
       <path id="DejaVuSans-28" d="M 1984 4856 
Q 1566 4138 1362 3434 
Q 1159 2731 1159 2009 
Q 1159 1288 1364 580 
Q 1569 -128 1984 -844 
L 1484 -844 
Q 1016 -109 783 600 
Q 550 1309 550 2009 
Q 550 2706 781 3412 
Q 1013 4119 1484 4856 
L 1984 4856 
z
" transform="scale(0.015625)"/>
       <path id="DejaVuSans-73" d="M 2834 3397 
L 2834 2853 
Q 2591 2978 2328 3040 
Q 2066 3103 1784 3103 
Q 1356 3103 1142 2972 
Q 928 2841 928 2578 
Q 928 2378 1081 2264 
Q 1234 2150 1697 2047 
L 1894 2003 
Q 2506 1872 2764 1633 
Q 3022 1394 3022 966 
Q 3022 478 2636 193 
Q 2250 -91 1575 -91 
Q 1294 -91 989 -36 
Q 684 19 347 128 
L 347 722 
Q 666 556 975 473 
Q 1284 391 1588 391 
Q 1994 391 2212 530 
Q 2431 669 2431 922 
Q 2431 1156 2273 1281 
Q 2116 1406 1581 1522 
L 1381 1569 
Q 847 1681 609 1914 
Q 372 2147 372 2553 
Q 372 3047 722 3315 
Q 1072 3584 1716 3584 
Q 2034 3584 2315 3537 
Q 2597 3491 2834 3397 
z
" transform="scale(0.015625)"/>
       <path id="DejaVuSans-29" d="M 513 4856 
L 1013 4856 
Q 1481 4119 1714 3412 
Q 1947 2706 1947 2009 
Q 1947 1309 1714 600 
Q 1481 -109 1013 -844 
L 513 -844 
Q 928 -128 1133 580 
Q 1338 1288 1338 2009 
Q 1338 2731 1133 3434 
Q 928 4138 513 4856 
z
" transform="scale(0.015625)"/>
      </defs>
      <use xlink:href="#DejaVuSans-54"/>
      <use xlink:href="#DejaVuSans-69" x="57.958984"/>
      <use xlink:href="#DejaVuSans-6d" x="85.742188"/>
      <use xlink:href="#DejaVuSans-65" x="183.154297"/>
      <use xlink:href="#DejaVuSans-28" x="244.677734"/>
      <use xlink:href="#DejaVuSans-73" x="283.691406"/>
      <use xlink:href="#DejaVuSans-29" x="335.791016"/>
     </g>
    </g>
   </g>
   <g id="matplotlib.axis_2">
    <g id="ytick_1">
     <g id="line2d_15">
      <path d="M 57.6 295.488 
L 414.72 295.488 
" clip-path="url(#pb134e49ec1)" style="fill: none; stroke: #b0b0b0; stroke-width: 0.8; stroke-linecap: square"/>
     </g>
     <g id="line2d_16">
      <defs>
       <path id="mfe79691ba2" d="M 0 0 
L -3.5 0 
" style="stroke: #000000; stroke-width: 0.8"/>
      </defs>
      <g>
       <use xlink:href="#mfe79691ba2" x="57.6" y="295.488" style="stroke: #000000; stroke-width: 0.8"/>
      </g>
     </g>
     <g id="text_9">
      <!-- 0 -->
      <g transform="translate(44.2375 299.287219) scale(0.1 -0.1)">
       <use xlink:href="#DejaVuSans-30"/>
      </g>
     </g>
    </g>
    <g id="ytick_2">
     <g id="line2d_17">
      <path d="M 57.6 265.248 
L 414.72 265.248 
" clip-path="url(#pb134e49ec1)" style="fill: none; stroke: #b0b0b0; stroke-width: 0.8; stroke-linecap: square"/>
     </g>
     <g id="line2d_18">
      <g>
       <use xlink:href="#mfe79691ba2" x="57.6" y="265.248" style="stroke: #000000; stroke-width: 0.8"/>
      </g>
     </g>
     <g id="text_10">
      <!-- 1 -->
      <g transform="translate(44.2375 269.047219) scale(0.1 -0.1)">
       <use xlink:href="#DejaVuSans-31"/>
      </g>
     </g>
    </g>
    <g id="ytick_3">
     <g id="line2d_19">
      <path d="M 57.6 235.008 
L 414.72 235.008 
" clip-path="url(#pb134e49ec1)" style="fill: none; stroke: #b0b0b0; stroke-width: 0.8; stroke-linecap: square"/>
     </g>
     <g id="line2d_20">
      <g>
       <use xlink:href="#mfe79691ba2" x="57.6" y="235.008" style="stroke: #000000; stroke-width: 0.8"/>
      </g>
     </g>
     <g id="text_11">
      <!-- 2 -->
      <g transform="translate(44.2375 238.807219) scale(0.1 -0.1)">
       <use xlink:href="#DejaVuSans-32"/>
      </g>
     </g>
    </g>
    <g id="ytick_4">
     <g id="line2d_21">
      <path d="M 57.6 204.768 
L 414.72 204.768 
" clip-path="url(#pb134e49ec1)" style="fill: none; stroke: #b0b0b0; stroke-width: 0.8; stroke-linecap: square"/>
     </g>
     <g id="line2d_22">
      <g>
       <use xlink:href="#mfe79691ba2" x="57.6" y="204.768" style="stroke: #000000; stroke-width: 0.8"/>
      </g>
     </g>
     <g id="text_12">
      <!-- 3 -->
      <g transform="translate(44.2375 208.567219) scale(0.1 -0.1)">
       <use xlink:href="#DejaVuSans-33"/>
      </g>
     </g>
    </g>
    <g id="ytick_5">
     <g id="line2d_23">
      <path d="M 57.6 174.528 
L 414.72 174.528 
" clip-path="url(#pb134e49ec1)" style="fill: none; stroke: #b0b0b0; stroke-width: 0.8; stroke-linecap: square"/>
     </g>
     <g id="line2d_24">
      <g>
       <use xlink:href="#mfe79691ba2" x="57.6" y="174.528" style="stroke: #000000; stroke-width: 0.8"/>
      </g>
     </g>
     <g id="text_13">
      <!-- 4 -->
      <g transform="translate(44.2375 178.327219) scale(0.1 -0.1)">
       <defs>
        <path id="DejaVuSans-34" d="M 2419 4116 
L 825 1625 
L 2419 1625 
L 2419 4116 
z
M 2253 4666 
L 3047 4666 
L 3047 1625 
L 3713 1625 
L 3713 1100 
L 3047 1100 
L 3047 0 
L 2419 0 
L 2419 1100 
L 313 1100 
L 313 1709 
L 2253 4666 
z
" transform="scale(0.015625)"/>
       </defs>
       <use xlink:href="#DejaVuSans-34"/>
      </g>
     </g>
    </g>
    <g id="ytick_6">
     <g id="line2d_25">
      <path d="M 57.6 144.288 
L 414.72 144.288 
" clip-path="url(#pb134e49ec1)" style="fill: none; stroke: #b0b0b0; stroke-width: 0.8; stroke-linecap: square"/>
     </g>
     <g id="line2d_26">
      <g>
       <use xlink:href="#mfe79691ba2" x="57.6" y="144.288" style="stroke: #000000; stroke-width: 0.8"/>
      </g>
     </g>
     <g id="text_14">
      <!-- 5 -->
      <g transform="translate(44.2375 148.087219) scale(0.1 -0.1)">
       <use xlink:href="#DejaVuSans-35"/>
      </g>
     </g>
    </g>
    <g id="ytick_7">
     <g id="line2d_27">
      <path d="M 57.6 114.048 
L 414.72 114.048 
" clip-path="url(#pb134e49ec1)" style="fill: none; stroke: #b0b0b0; stroke-width: 0.8; stroke-linecap: square"/>
     </g>
     <g id="line2d_28">
      <g>
       <use xlink:href="#mfe79691ba2" x="57.6" y="114.048" style="stroke: #000000; stroke-width: 0.8"/>
      </g>
     </g>
     <g id="text_15">
      <!-- 6 -->
      <g transform="translate(44.2375 117.847219) scale(0.1 -0.1)">
       <defs>
        <path id="DejaVuSans-36" d="M 2113 2584 
Q 1688 2584 1439 2293 
Q 1191 2003 1191 1497 
Q 1191 994 1439 701 
Q 1688 409 2113 409 
Q 2538 409 2786 701 
Q 3034 994 3034 1497 
Q 3034 2003 2786 2293 
Q 2538 2584 2113 2584 
z
M 3366 4563 
L 3366 3988 
Q 3128 4100 2886 4159 
Q 2644 4219 2406 4219 
Q 1781 4219 1451 3797 
Q 1122 3375 1075 2522 
Q 1259 2794 1537 2939 
Q 1816 3084 2150 3084 
Q 2853 3084 3261 2657 
Q 3669 2231 3669 1497 
Q 3669 778 3244 343 
Q 2819 -91 2113 -91 
Q 1303 -91 875 529 
Q 447 1150 447 2328 
Q 447 3434 972 4092 
Q 1497 4750 2381 4750 
Q 2619 4750 2861 4703 
Q 3103 4656 3366 4563 
z
" transform="scale(0.015625)"/>
       </defs>
       <use xlink:href="#DejaVuSans-36"/>
      </g>
     </g>
    </g>
    <g id="ytick_8">
     <g id="line2d_29">
      <path d="M 57.6 83.808 
L 414.72 83.808 
" clip-path="url(#pb134e49ec1)" style="fill: none; stroke: #b0b0b0; stroke-width: 0.8; stroke-linecap: square"/>
     </g>
     <g id="line2d_30">
      <g>
       <use xlink:href="#mfe79691ba2" x="57.6" y="83.808" style="stroke: #000000; stroke-width: 0.8"/>
      </g>
     </g>
     <g id="text_16">
      <!-- 7 -->
      <g transform="translate(44.2375 87.607219) scale(0.1 -0.1)">
       <defs>
        <path id="DejaVuSans-37" d="M 525 4666 
L 3525 4666 
L 3525 4397 
L 1831 0 
L 1172 0 
L 2766 4134 
L 525 4134 
L 525 4666 
z
" transform="scale(0.015625)"/>
       </defs>
       <use xlink:href="#DejaVuSans-37"/>
      </g>
     </g>
    </g>
    <g id="ytick_9">
     <g id="line2d_31">
      <path d="M 57.6 53.568 
L 414.72 53.568 
" clip-path="url(#pb134e49ec1)" style="fill: none; stroke: #b0b0b0; stroke-width: 0.8; stroke-linecap: square"/>
     </g>
     <g id="line2d_32">
      <g>
       <use xlink:href="#mfe79691ba2" x="57.6" y="53.568" style="stroke: #000000; stroke-width: 0.8"/>
      </g>
     </g>
     <g id="text_17">
      <!-- 8 -->
      <g transform="translate(44.2375 57.367219) scale(0.1 -0.1)">
       <defs>
        <path id="DejaVuSans-38" d="M 2034 2216 
Q 1584 2216 1326 1975 
Q 1069 1734 1069 1313 
Q 1069 891 1326 650 
Q 1584 409 2034 409 
Q 2484 409 2743 651 
Q 3003 894 3003 1313 
Q 3003 1734 2745 1975 
Q 2488 2216 2034 2216 
z
M 1403 2484 
Q 997 2584 770 2862 
Q 544 3141 544 3541 
Q 544 4100 942 4425 
Q 1341 4750 2034 4750 
Q 2731 4750 3128 4425 
Q 3525 4100 3525 3541 
Q 3525 3141 3298 2862 
Q 3072 2584 2669 2484 
Q 3125 2378 3379 2068 
Q 3634 1759 3634 1313 
Q 3634 634 3220 271 
Q 2806 -91 2034 -91 
Q 1263 -91 848 271 
Q 434 634 434 1313 
Q 434 1759 690 2068 
Q 947 2378 1403 2484 
z
M 1172 3481 
Q 1172 3119 1398 2916 
Q 1625 2713 2034 2713 
Q 2441 2713 2670 2916 
Q 2900 3119 2900 3481 
Q 2900 3844 2670 4047 
Q 2441 4250 2034 4250 
Q 1625 4250 1398 4047 
Q 1172 3844 1172 3481 
z
" transform="scale(0.015625)"/>
       </defs>
       <use xlink:href="#DejaVuSans-38"/>
      </g>
     </g>
    </g>
    <g id="text_18">
     <!-- Velocity(m/s) -->
     <g transform="translate(38.157812 207.204563) rotate(-90) scale(0.1 -0.1)">
      <defs>
       <path id="DejaVuSans-56" d="M 1831 0 
L 50 4666 
L 709 4666 
L 2188 738 
L 3669 4666 
L 4325 4666 
L 2547 0 
L 1831 0 
z
" transform="scale(0.015625)"/>
       <path id="DejaVuSans-6c" d="M 603 4863 
L 1178 4863 
L 1178 0 
L 603 0 
L 603 4863 
z
" transform="scale(0.015625)"/>
       <path id="DejaVuSans-6f" d="M 1959 3097 
Q 1497 3097 1228 2736 
Q 959 2375 959 1747 
Q 959 1119 1226 758 
Q 1494 397 1959 397 
Q 2419 397 2687 759 
Q 2956 1122 2956 1747 
Q 2956 2369 2687 2733 
Q 2419 3097 1959 3097 
z
M 1959 3584 
Q 2709 3584 3137 3096 
Q 3566 2609 3566 1747 
Q 3566 888 3137 398 
Q 2709 -91 1959 -91 
Q 1206 -91 779 398 
Q 353 888 353 1747 
Q 353 2609 779 3096 
Q 1206 3584 1959 3584 
z
" transform="scale(0.015625)"/>
       <path id="DejaVuSans-63" d="M 3122 3366 
L 3122 2828 
Q 2878 2963 2633 3030 
Q 2388 3097 2138 3097 
Q 1578 3097 1268 2742 
Q 959 2388 959 1747 
Q 959 1106 1268 751 
Q 1578 397 2138 397 
Q 2388 397 2633 464 
Q 2878 531 3122 666 
L 3122 134 
Q 2881 22 2623 -34 
Q 2366 -91 2075 -91 
Q 1284 -91 818 406 
Q 353 903 353 1747 
Q 353 2603 823 3093 
Q 1294 3584 2113 3584 
Q 2378 3584 2631 3529 
Q 2884 3475 3122 3366 
z
" transform="scale(0.015625)"/>
       <path id="DejaVuSans-74" d="M 1172 4494 
L 1172 3500 
L 2356 3500 
L 2356 3053 
L 1172 3053 
L 1172 1153 
Q 1172 725 1289 603 
Q 1406 481 1766 481 
L 2356 481 
L 2356 0 
L 1766 0 
Q 1100 0 847 248 
Q 594 497 594 1153 
L 594 3053 
L 172 3053 
L 172 3500 
L 594 3500 
L 594 4494 
L 1172 4494 
z
" transform="scale(0.015625)"/>
       <path id="DejaVuSans-79" d="M 2059 -325 
Q 1816 -950 1584 -1140 
Q 1353 -1331 966 -1331 
L 506 -1331 
L 506 -850 
L 844 -850 
Q 1081 -850 1212 -737 
Q 1344 -625 1503 -206 
L 1606 56 
L 191 3500 
L 800 3500 
L 1894 763 
L 2988 3500 
L 3597 3500 
L 2059 -325 
z
" transform="scale(0.015625)"/>
       <path id="DejaVuSans-2f" d="M 1625 4666 
L 2156 4666 
L 531 -594 
L 0 -594 
L 1625 4666 
z
" transform="scale(0.015625)"/>
      </defs>
      <use xlink:href="#DejaVuSans-56"/>
      <use xlink:href="#DejaVuSans-65" x="60.658203"/>
      <use xlink:href="#DejaVuSans-6c" x="122.181641"/>
      <use xlink:href="#DejaVuSans-6f" x="149.964844"/>
      <use xlink:href="#DejaVuSans-63" x="211.146484"/>
      <use xlink:href="#DejaVuSans-69" x="266.126953"/>
      <use xlink:href="#DejaVuSans-74" x="293.910156"/>
      <use xlink:href="#DejaVuSans-79" x="333.119141"/>
      <use xlink:href="#DejaVuSans-28" x="392.298828"/>
      <use xlink:href="#DejaVuSans-6d" x="431.3125"/>
      <use xlink:href="#DejaVuSans-2f" x="528.724609"/>
      <use xlink:href="#DejaVuSans-73" x="562.416016"/>
      <use xlink:href="#DejaVuSans-29" x="614.515625"/>
     </g>
    </g>
   </g>
   <g id="line2d_33">
    <path d="M 73.832727 295.488 
L 74.237029 295.488 
L 74.43918 56.829928 
L 74.843482 68.333224 
L 75.045633 70.370191 
L 75.854238 64.946979 
L 76.662842 61.27421 
L 77.471446 58.78691 
L 78.28005 57.102391 
L 79.088654 55.961617 
L 79.897258 55.189015 
L 80.908013 54.563894 
L 82.120919 54.123176 
L 83.738127 53.826975 
L 86.16394 53.64995 
L 87.578997 53.609429 
L 87.983299 54.242896 
L 88.387601 55.704033 
L 88.994054 59.406981 
L 89.398356 61.924582 
L 90.409111 71.397081 
L 91.217715 83.201174 
L 92.834924 106.296702 
L 94.654283 123.96421 
L 95.665038 130.844506 
L 96.271491 133.794297 
L 97.080095 136.59827 
L 97.686548 137.977245 
L 98.293001 138.72511 
L 98.899454 139.073414 
L 100.11236 139.289993 
L 100.718814 139.277141 
L 101.325267 139.081942 
L 101.93172 138.679811 
L 102.538173 137.984563 
L 103.144626 136.49999 
L 103.751079 134.353313 
L 104.357532 131.343072 
L 104.963985 127.210141 
L 105.368287 123.478737 
L 107.389797 102.322682 
L 107.99625 98.554264 
L 108.804855 94.987002 
L 109.81561 91.827557 
L 110.624214 89.210436 
L 111.230667 86.419436 
L 111.83712 82.387536 
L 113.454328 68.655825 
L 114.060781 66.325198 
L 114.667234 64.86769 
L 115.475838 63.521436 
L 116.688744 61.890864 
L 117.093047 61.067732 
L 118.508104 57.485229 
L 119.316708 56.220864 
L 120.125312 55.364619 
L 121.136067 54.67176 
L 122.146822 54.246102 
L 123.561879 53.910831 
L 125.58339 53.698879 
L 129.019957 53.594611 
L 132.254373 53.573594 
L 132.456524 53.724462 
L 132.658675 54.439063 
L 133.062977 57.679944 
L 136.095243 83.797235 
L 137.105998 90.737829 
L 138.116753 96.370633 
L 138.723206 99.449217 
L 139.53181 102.391538 
L 140.542565 105.084592 
L 141.351169 106.266371 
L 141.957623 106.747066 
L 142.564076 106.934887 
L 143.776982 107.08403 
L 145.39419 106.870869 
L 146.202794 106.445422 
L 147.213549 105.565922 
L 147.820002 104.731449 
L 148.830757 102.829867 
L 149.639361 100.537826 
L 150.447966 97.679088 
L 151.25657 93.712598 
L 152.065174 88.708906 
L 153.075929 80.201366 
L 154.490986 67.467846 
L 155.29959 62.98144 
L 156.108194 59.943076 
L 156.916798 57.885395 
L 157.725402 56.491875 
L 158.534007 55.548145 
L 159.342611 54.909023 
L 160.353366 54.391859 
L 161.566272 54.027648 
L 163.18348 53.778864 
L 165.811443 53.627422 
L 169.450162 53.605074 
L 169.652313 53.886125 
L 170.460917 56.7546 
L 171.673823 62.705016 
L 173.08888 71.012488 
L 174.706089 83.279889 
L 175.918995 93.565571 
L 178.344807 116.590216 
L 178.95126 122.990664 
L 180.97277 140.545014 
L 183.398583 158.008704 
L 185.015791 168.579187 
L 185.622244 171.449024 
L 186.632999 176.571256 
L 188.048056 182.473167 
L 189.260962 185.971905 
L 190.069566 187.439633 
L 190.87817 188.563503 
L 191.484624 189.134646 
L 192.293228 189.664874 
L 193.101832 189.942386 
L 194.921191 190.248445 
L 196.74055 190.234142 
L 197.751305 189.818493 
L 198.559909 188.963124 
L 199.570665 187.194508 
L 200.379269 184.938936 
L 201.592175 179.895298 
L 202.805081 172.454534 
L 203.815836 163.904718 
L 204.422289 158.535636 
L 204.826591 156.417899 
L 205.230893 155.320731 
L 205.635195 154.990117 
L 205.837346 155.371414 
L 206.241648 156.907243 
L 207.252403 161.120703 
L 207.858857 162.653568 
L 208.46531 163.628294 
L 209.071763 164.179388 
L 209.678216 164.355869 
L 211.093273 164.351938 
L 211.901877 164.216644 
L 212.710481 163.841607 
L 213.316934 163.361759 
L 213.923387 162.58063 
L 214.52984 161.666142 
L 215.136293 160.368574 
L 215.742747 158.673924 
L 216.753502 154.915425 
L 217.562106 151.332771 
L 218.572861 145.519947 
L 219.583616 138.097721 
L 220.594371 128.936664 
L 221.605126 117.949414 
L 222.41373 107.169942 
L 224.839543 72.928223 
L 225.648147 66.679368 
L 226.456751 62.447432 
L 227.265355 59.581436 
L 228.073959 57.640481 
L 228.882563 56.326009 
L 229.691167 55.435804 
L 230.499771 54.832939 
L 231.510526 54.345138 
L 232.723433 54.00146 
L 234.542792 53.748503 
L 237.372906 53.614146 
L 239.596567 53.583785 
L 239.798718 54.125474 
L 240.20302 58.054104 
L 242.830984 86.386565 
L 245.256796 104.392096 
L 246.267551 109.970076 
L 248.08691 119.210331 
L 249.097666 124.800497 
L 249.90627 129.288416 
L 251.725629 141.370052 
L 254.960045 164.5286 
L 256.172951 171.631371 
L 256.779405 174.765656 
L 258.598764 182.391096 
L 259.205217 184.3661 
L 259.81167 186.270827 
L 260.822425 188.795081 
L 261.631029 190.214395 
L 262.439633 190.798662 
L 263.85469 191.112463 
L 264.663294 191.134387 
L 265.67405 190.924037 
L 266.280503 190.573253 
L 266.886956 189.817314 
L 267.493409 188.634416 
L 267.897711 187.537006 
L 268.706315 184.117406 
L 269.110617 181.691251 
L 271.334278 166.201507 
L 271.536429 166.000713 
L 271.940731 166.101866 
L 272.345033 168.029787 
L 273.55794 175.733215 
L 274.164393 178.077964 
L 274.770846 179.566377 
L 275.57945 180.404146 
L 276.185903 180.691124 
L 276.590205 180.835429 
L 277.60096 180.833312 
L 278.207413 180.921704 
L 278.813866 180.898842 
L 280.026772 180.602158 
L 280.835376 180.005704 
L 281.239678 179.549685 
L 281.643981 179.097143 
L 282.250434 178.12281 
L 283.059038 176.141637 
L 284.069793 172.168191 
L 285.080548 166.652929 
L 286.293454 157.96788 
L 287.304209 148.512588 
L 288.112813 139.347238 
L 289.52787 119.823961 
L 290.942928 101.599311 
L 291.549381 96.991249 
L 292.155834 94.028304 
L 292.762287 92.100624 
L 293.570891 90.463552 
L 294.379495 89.372583 
L 296.603156 86.801276 
L 297.007458 85.802993 
L 297.613911 83.725052 
L 298.220365 80.800451 
L 298.826818 76.693465 
L 299.433271 72.240898 
L 299.837573 71.27231 
L 300.039724 71.121322 
L 300.241875 71.769637 
L 301.859083 83.587006 
L 302.465536 86.179965 
L 303.071989 88.106737 
L 303.678442 89.174935 
L 304.284895 89.692039 
L 304.689197 89.765401 
L 306.508557 89.753456 
L 307.11501 89.53597 
L 307.923614 88.763036 
L 308.530067 87.741014 
L 309.13652 86.278396 
L 309.742973 84.18222 
L 310.551577 80.455412 
L 311.15803 76.844424 
L 313.17954 63.305703 
L 313.988144 60.162679 
L 314.796749 58.034146 
L 315.605353 56.592605 
L 316.413957 55.616367 
L 317.222561 54.95523 
L 318.233316 54.420768 
L 319.446222 54.043252 
L 321.06343 53.78597 
L 321.669883 53.736074 
L 321.872034 54.284628 
L 322.478487 59.7281 
L 322.88279 64.718184 
L 323.489243 72.773666 
L 325.308602 93.42048 
L 326.723659 106.301661 
L 329.553773 126.708974 
L 331.575284 136.273009 
L 332.586039 140.031024 
L 334.405398 144.964741 
L 338.044116 153.913815 
L 338.448418 154.44864 
L 339.257023 154.949838 
L 339.863476 155.053712 
L 341.076382 155.025408 
L 341.682835 154.830148 
L 342.289288 154.256223 
L 342.69359 153.582022 
L 343.097892 152.570555 
L 343.704345 150.331101 
L 344.310798 146.927438 
L 345.119402 140.426594 
L 345.523704 137.340118 
L 345.928006 135.596873 
L 346.332308 134.862948 
L 346.534459 134.775101 
L 346.73661 134.988746 
L 347.140912 135.943453 
L 347.747366 137.585818 
L 348.151668 138.263043 
L 348.55597 138.613162 
L 349.364574 138.950035 
L 349.971027 138.984509 
L 350.57748 138.766116 
L 351.183933 137.905425 
L 351.790386 136.490223 
L 352.396839 134.346872 
L 353.003292 131.42339 
L 353.811896 126.313284 
L 354.418349 121.156789 
L 355.631256 108.65022 
L 357.248464 88.058897 
L 358.259219 75.256219 
L 359.067823 68.255961 
L 359.876427 63.515146 
L 360.48288 61.122496 
L 360.685031 61.011274 
L 361.089333 64.617877 
L 361.493635 69.667655 
L 362.50439 85.203032 
L 363.515145 99.071882 
L 364.728052 110.998054 
L 365.738807 119.688002 
L 366.547411 124.928806 
L 367.356015 128.915224 
L 368.36677 132.55736 
L 369.175374 134.63261 
L 370.186129 136.652944 
L 370.994733 137.690963 
L 372.005489 138.655044 
L 372.611942 138.984751 
L 373.218395 139.165193 
L 374.026999 139.37273 
L 377.059264 139.123159 
L 377.867868 138.703579 
L 378.474321 138.14547 
L 378.878623 137.531598 
L 379.485076 136.189788 
L 380.293681 133.747818 
L 381.102285 130.370887 
L 381.708738 126.931329 
L 382.719493 119.779811 
L 383.528097 112.669237 
L 384.538852 101.95832 
L 385.751758 87.080905 
L 386.762513 74.462509 
L 387.571117 67.718415 
L 388.379721 63.151116 
L 389.188326 60.057988 
L 389.99693 57.963233 
L 390.805534 56.544584 
L 391.614138 55.598465 
L 392.422742 54.943104 
L 393.433497 54.429265 
L 394.646403 54.051477 
L 396.667914 53.841037 
L 397.678669 54.132006 
L 398.487273 53.965263 
L 398.487273 53.965263 
" clip-path="url(#pb134e49ec1)" style="fill: none; stroke: #1f77b4; stroke-width: 1.5; stroke-linecap: square"/>
   </g>
   <g id="line2d_34">
    <path d="M 73.832727 279.920448 
L 74.237029 279.920448 
L 74.43918 53.568 
L 86.972544 53.568 
L 87.174695 54.839411 
L 87.376846 55.142748 
L 88.387601 62.169859 
L 88.589752 63.32675 
L 89.600507 73.475627 
L 90.004809 83.989017 
L 90.20696 82.835209 
L 90.409111 85.964808 
L 90.611262 91.672487 
L 90.813413 92.435593 
L 91.217715 99.438149 
L 91.419866 104.952806 
L 91.622017 103.992142 
L 91.824168 106.717401 
L 92.026319 111.380651 
L 92.228471 110.548325 
L 92.632773 117.784122 
L 92.834924 116.815232 
L 93.037075 120.011388 
L 93.239226 120.727351 
L 93.441377 122.454992 
L 93.643528 125.782874 
L 93.845679 125.920254 
L 94.04783 127.952927 
L 94.249981 128.467914 
L 94.452132 129.891311 
L 94.654283 132.323393 
L 94.856434 132.077632 
L 95.058585 134.01898 
L 95.260736 133.986321 
L 95.665038 135.815236 
L 96.271491 137.264427 
L 96.473642 138.253759 
L 96.675793 138.136307 
L 96.877944 138.687915 
L 97.080095 138.731128 
L 97.484397 139.078888 
L 97.686548 139.096094 
L 97.888699 139.245178 
L 98.09085 139.152643 
L 98.293001 139.300819 
L 98.495152 139.170969 
L 98.697303 139.319689 
L 98.899454 139.188266 
L 99.101605 139.54534 
L 99.505907 138.955055 
L 99.708058 139.43699 
L 99.910209 138.765571 
L 100.11236 139.265348 
L 100.314511 138.424736 
L 100.516663 138.632999 
L 100.718814 137.817305 
L 100.920965 138.034943 
L 101.123116 137.066295 
L 101.325267 137.130888 
L 101.527418 136.144277 
L 101.729569 135.842573 
L 101.93172 134.825723 
L 102.133871 131.5986 
L 102.336022 133.035394 
L 102.538173 129.215598 
L 102.740324 130.031987 
L 102.942475 126.441592 
L 103.144626 126.680095 
L 103.346777 122.895559 
L 103.548928 122.549069 
L 103.751079 118.340689 
L 103.95323 117.548945 
L 104.357532 111.180492 
L 104.559683 107.70646 
L 104.761834 98.856059 
L 104.963985 100.497789 
L 105.166136 93.487884 
L 105.368287 93.807612 
L 105.570438 89.710334 
L 105.772589 89.163081 
L 106.176891 86.012042 
L 106.581193 86.742822 
L 106.985495 87.457635 
L 107.187646 87.436528 
L 107.389797 87.679022 
L 107.591948 87.597979 
L 107.794099 87.238002 
L 108.198401 87.686613 
L 108.400552 87.224818 
L 108.602703 87.477715 
L 108.804855 87.028439 
L 109.007006 85.833566 
L 109.209157 85.966743 
L 109.411308 85.043062 
L 109.613459 83.061314 
L 109.81561 83.255424 
L 110.017761 82.067204 
L 110.219912 77.938567 
L 110.422063 77.985318 
L 110.624214 76.003298 
L 110.826365 70.50996 
L 111.028516 70.306021 
L 111.230667 66.594394 
L 111.432818 60.499976 
L 111.634969 59.680411 
L 112.039271 53.568 
L 112.241422 55.00564 
L 112.443573 55.083447 
L 112.847875 58.389072 
L 113.050026 58.91035 
L 113.454328 60.414306 
L 113.656479 60.398732 
L 113.85863 60.75508 
L 114.060781 60.662274 
L 114.465083 60.673644 
L 114.667234 60.599163 
L 114.869385 60.912721 
L 115.273687 60.569558 
L 115.475838 60.082906 
L 115.677989 59.042619 
L 115.88014 59.407888 
L 116.082291 58.743969 
L 116.284442 57.499533 
L 116.486593 55.464925 
L 116.688744 54.938356 
L 116.890896 53.621313 
L 117.497349 53.568 
L 131.64792 53.568 
L 131.850071 54.367908 
L 132.456524 62.856337 
L 132.658675 62.976057 
L 133.062977 67.218396 
L 133.46728 72.862632 
L 133.669431 72.528813 
L 134.073733 76.088847 
L 134.275884 78.985567 
L 134.478035 78.960951 
L 134.882337 83.236071 
L 135.084488 85.752644 
L 135.286639 85.552667 
L 135.48879 86.814249 
L 135.690941 89.432096 
L 135.893092 89.61659 
L 136.297394 92.304896 
L 136.499545 94.529925 
L 136.701696 94.254922 
L 137.105998 97.39964 
L 137.308149 97.558884 
L 137.914602 100.653252 
L 138.318904 102.135557 
L 138.521055 102.499888 
L 138.925357 104.069465 
L 139.127508 104.168078 
L 139.53181 105.620868 
L 139.733961 105.698796 
L 139.936112 106.011266 
L 140.138263 106.053058 
L 140.542565 106.633092 
L 140.744716 106.883116 
L 141.149018 106.889738 
L 141.351169 107.091107 
L 141.755472 106.917045 
L 141.957623 107.114543 
L 142.159774 106.995669 
L 142.361925 107.200999 
L 142.766227 106.951549 
L 142.968378 107.15455 
L 143.37268 106.817283 
L 143.574831 107.030778 
L 143.776982 106.811659 
L 143.979133 106.971719 
L 144.383435 106.364832 
L 144.585586 106.542704 
L 144.787737 106.217987 
L 144.989888 105.643064 
L 145.192039 105.894873 
L 145.39419 105.410125 
L 145.596341 104.629692 
L 145.798492 104.931366 
L 146.000643 104.29433 
L 146.202794 104.421429 
L 146.404945 103.870244 
L 146.607096 102.717405 
L 146.809247 103.094618 
L 147.011398 102.246719 
L 147.213549 100.590898 
L 147.4157 101.384214 
L 147.617851 100.06956 
L 147.820002 100.041346 
L 148.022153 99.293057 
L 148.224304 97.217626 
L 148.426455 97.462207 
L 148.628606 96.416538 
L 148.830757 93.652874 
L 149.032908 94.716354 
L 149.235059 92.769352 
L 149.43721 92.185871 
L 149.639361 91.022417 
L 149.841513 88.229723 
L 150.043664 87.979245 
L 150.245815 86.625521 
L 150.447966 82.589177 
L 150.650117 82.533021 
L 150.852268 80.964351 
L 151.054419 77.177457 
L 151.25657 77.248944 
L 151.458721 74.450958 
L 151.660872 69.732611 
L 151.863023 69.760764 
L 152.065174 67.250753 
L 152.267325 61.476516 
L 152.469476 61.170669 
L 152.873778 53.568 
L 168.641558 53.568 
L 168.843709 53.717023 
L 169.450162 56.852699 
L 169.854464 58.753888 
L 170.258766 61.322383 
L 170.460917 61.305509 
L 171.269521 66.131964 
L 171.673823 68.646027 
L 172.078125 71.616321 
L 172.280276 72.416562 
L 172.684578 76.24924 
L 172.886729 78.792152 
L 173.08888 78.741288 
L 173.695333 83.504542 
L 174.099635 87.179216 
L 174.301786 90.028338 
L 174.503938 90.359284 
L 174.706089 91.830067 
L 174.90824 95.324904 
L 175.110391 95.677623 
L 175.312542 97.085053 
L 175.514693 100.455241 
L 175.716844 101.049669 
L 176.92975 112.817534 
L 177.131901 114.667255 
L 177.334052 118.786064 
L 177.536203 118.536795 
L 177.738354 121.29432 
L 177.940505 125.750457 
L 178.142656 124.363287 
L 178.344807 128.407373 
L 178.546958 128.34399 
L 178.749109 130.890803 
L 178.95126 131.844663 
L 179.153411 133.7594 
L 179.355562 137.989976 
L 179.557713 137.142621 
L 179.759864 140.653122 
L 179.962015 140.456985 
L 180.164166 143.300059 
L 180.366317 143.77011 
L 180.568468 145.940556 
L 180.770619 146.747328 
L 181.174921 149.873963 
L 182.185676 157.478325 
L 182.387827 158.140067 
L 182.589978 160.262008 
L 182.79213 160.990338 
L 182.994281 163.059117 
L 183.196432 163.498293 
L 183.398583 165.907695 
L 183.600734 165.946069 
L 183.802885 168.687809 
L 184.005036 168.193446 
L 184.207187 171.344575 
L 184.409338 170.408798 
L 185.622244 178.02069 
L 185.824395 177.486591 
L 186.430848 180.213301 
L 186.632999 181.988571 
L 186.83515 181.90907 
L 187.037301 183.553037 
L 187.239452 183.399993 
L 187.441603 183.610886 
L 187.643754 184.921518 
L 187.845905 185.095912 
L 188.048056 186.428377 
L 188.250207 186.079861 
L 188.85666 187.287647 
L 189.058811 187.413445 
L 189.260962 188.059765 
L 189.463113 188.156442 
L 189.665264 188.61104 
L 190.069566 188.80125 
L 190.271717 189.271996 
L 190.473868 189.182697 
L 190.676019 189.308163 
L 190.87817 189.633122 
L 191.080322 189.592631 
L 191.888926 189.965369 
L 192.091077 189.81432 
L 192.293228 190.076833 
L 192.495379 190.135378 
L 192.69753 190.027452 
L 193.101832 190.225342 
L 193.303983 190.096127 
L 193.910436 190.348933 
L 194.112587 190.21748 
L 194.314738 190.298916 
L 194.516889 190.169126 
L 195.123342 190.376028 
L 195.325493 190.176595 
L 195.527644 190.256882 
L 195.931946 189.972929 
L 196.134097 190.012936 
L 196.336248 189.151127 
L 196.538399 189.539438 
L 196.74055 189.263982 
L 196.942701 188.674816 
L 197.144852 188.738441 
L 197.347003 187.112497 
L 197.549154 187.615539 
L 197.751305 187.292062 
L 197.953456 185.153399 
L 198.155607 186.010703 
L 198.357758 185.313187 
L 198.559909 183.087765 
L 198.76206 183.837354 
L 198.964211 183.353363 
L 199.166363 180.007821 
L 199.368514 181.046383 
L 199.570665 180.798778 
L 199.772816 175.753748 
L 199.974967 177.296986 
L 200.177118 177.428832 
L 200.379269 171.356096 
L 200.58142 173.253172 
L 200.783571 173.541148 
L 200.985722 165.98904 
L 201.187873 168.118118 
L 201.390024 168.297169 
L 201.592175 160.378281 
L 201.794326 162.86295 
L 201.996477 162.138944 
L 202.198628 154.103934 
L 202.400779 156.582616 
L 202.60293 154.311562 
L 202.805081 147.00207 
L 203.007232 148.495654 
L 203.209383 141.7756 
L 203.411534 142.631695 
L 203.613685 141.950599 
L 203.815836 145.048385 
L 204.017987 144.995041 
L 204.220138 150.832359 
L 204.422289 149.260817 
L 205.230893 157.039936 
L 205.433044 157.421807 
L 205.635195 159.555239 
L 205.837346 159.713333 
L 206.039497 161.326879 
L 206.241648 161.176738 
L 206.443799 162.589762 
L 206.64595 162.286606 
L 206.848101 163.432369 
L 207.050252 163.135896 
L 207.454555 163.825248 
L 207.858857 164.219124 
L 208.061008 164.382117 
L 208.263159 164.379002 
L 208.46531 164.495336 
L 208.667461 164.387167 
L 208.869612 164.484207 
L 209.071763 164.332009 
L 209.273914 164.425905 
L 209.476065 164.265905 
L 209.678216 164.364003 
L 209.880367 164.169379 
L 210.284669 164.392822 
L 210.48682 164.160518 
L 210.688971 164.245402 
L 210.891122 163.852252 
L 211.093273 163.988423 
L 211.295424 163.324745 
L 211.497575 163.596603 
L 211.699726 162.732223 
L 211.901877 162.90199 
L 212.104028 162.861499 
L 212.306179 162.035856 
L 212.50833 162.071963 
L 212.710481 160.85577 
L 212.912632 161.130077 
L 213.114783 159.443562 
L 213.316934 159.949508 
L 213.519085 159.455386 
L 213.721236 158.547974 
L 213.923387 158.181798 
L 214.125538 156.759944 
L 214.327689 156.600276 
L 214.52984 154.806016 
L 214.731991 154.818112 
L 214.934142 152.67334 
L 215.136293 152.762579 
L 215.338444 150.070644 
L 215.540595 150.692197 
L 215.742747 147.23888 
L 215.944898 147.938845 
L 216.551351 144.256762 
L 216.753502 142.2468 
L 216.955653 141.350335 
L 217.157804 138.680415 
L 217.359955 138.326547 
L 217.562106 134.956722 
L 217.764257 135.271279 
L 217.966408 130.488006 
L 218.168559 131.37298 
L 218.37071 126.407602 
L 218.572861 127.202733 
L 218.775012 121.907436 
L 218.977163 122.822015 
L 219.179314 116.906648 
L 219.381465 118.288374 
L 219.583616 111.882665 
L 219.785767 112.391362 
L 219.987918 107.051583 
L 220.190069 106.982999 
L 220.39222 101.540796 
L 220.594371 100.617267 
L 220.998673 93.477724 
L 221.200824 90.199284 
L 221.402975 82.177943 
L 221.605126 83.015772 
L 221.807277 76.42814 
L 222.009428 74.832314 
L 222.211579 70.704494 
L 222.41373 62.592432 
L 222.615881 63.091181 
L 223.020183 53.568 
L 238.990114 53.56803 
L 239.394416 60.345389 
L 239.596567 64.438554 
L 239.798718 64.788008 
L 240.20302 70.196855 
L 240.405172 74.490179 
L 240.607323 75.057723 
L 241.213776 81.864536 
L 241.415927 85.362276 
L 241.618078 84.821131 
L 242.02238 89.553842 
L 242.224531 89.779553 
L 242.830984 97.110092 
L 243.033135 96.1673 
L 243.437437 100.93902 
L 243.639588 100.61013 
L 243.841739 102.036763 
L 244.04389 104.331162 
L 244.246041 104.134149 
L 244.650343 108.048293 
L 244.852494 107.782756 
L 245.054645 109.168534 
L 245.256796 111.384219 
L 245.458947 110.888343 
L 245.661098 112.518824 
L 245.863249 113.003843 
L 246.0654 114.049966 
L 246.267551 115.792122 
L 246.469702 115.886622 
L 246.671853 117.161783 
L 246.874004 119.699614 
L 247.076155 119.122302 
L 247.278306 120.903771 
L 247.480457 121.210677 
L 247.884759 124.712469 
L 248.08691 124.92058 
L 248.289061 126.675408 
L 248.491212 126.886936 
L 248.693364 128.479103 
L 248.895515 129.15793 
L 249.097666 130.434844 
L 249.299817 133.15596 
L 249.501968 132.884133 
L 249.704119 135.108315 
L 249.90627 135.396261 
L 250.310572 138.235343 
L 250.512723 139.541046 
L 250.714874 143.317205 
L 250.917025 142.201591 
L 251.119176 145.960635 
L 251.321327 145.411235 
L 251.523478 148.733582 
L 251.725629 148.376085 
L 251.92778 151.796078 
L 252.129931 151.459446 
L 252.332082 154.500623 
L 252.534233 154.244822 
L 252.736384 157.702464 
L 252.938535 157.379077 
L 253.140686 160.73103 
L 253.342837 160.48657 
L 253.544988 163.956761 
L 253.747139 163.160209 
L 253.94929 166.661215 
L 254.151441 165.678083 
L 254.757894 169.556907 
L 254.960045 171.209069 
L 255.162196 171.531791 
L 255.364347 173.919118 
L 255.566498 173.800728 
L 255.768649 176.616163 
L 255.9708 175.706876 
L 256.577253 178.107751 
L 256.779405 180.29882 
L 256.981556 179.932553 
L 257.183707 180.717251 
L 257.385858 182.232033 
L 257.588009 182.386469 
L 257.79016 183.92889 
L 257.992311 183.87095 
L 258.194462 184.127325 
L 258.396613 185.689221 
L 258.598764 185.757291 
L 258.800915 187.22248 
L 259.003066 186.943032 
L 259.205217 187.374043 
L 259.407368 188.371721 
L 259.609519 188.359595 
L 259.81167 189.350832 
L 260.013821 189.422047 
L 260.215972 189.613859 
L 260.418123 190.173178 
L 261.024576 190.744865 
L 261.226727 190.731197 
L 261.428878 191.001421 
L 261.631029 191.067345 
L 261.83318 190.832924 
L 262.237482 191.183224 
L 262.439633 191.054432 
L 262.843935 191.206086 
L 263.046086 191.066407 
L 263.450388 191.231276 
L 263.652539 191.021198 
L 263.85469 191.126887 
L 264.258992 190.771386 
L 264.461143 190.902627 
L 264.865445 190.193651 
L 265.067597 190.290056 
L 265.67405 189.112843 
L 265.876201 187.012433 
L 266.078352 187.710221 
L 266.280503 187.150932 
L 266.482654 184.713528 
L 266.684805 185.196612 
L 266.886956 184.233316 
L 267.089107 182.139862 
L 267.291258 181.435209 
L 267.493409 177.54187 
L 267.69556 177.855005 
L 267.897711 176.113453 
L 268.099862 172.832655 
L 268.302013 172.352534 
L 268.504164 164.722529 
L 268.706315 167.03852 
L 268.908466 165.721961 
L 269.110617 156.5642 
L 269.312768 158.686111 
L 269.514919 158.685022 
L 269.919221 154.098793 
L 270.121372 153.824275 
L 270.323523 155.454241 
L 270.525674 159.574108 
L 270.727825 159.597968 
L 270.929976 166.482648 
L 271.132127 164.829427 
L 271.334278 166.641559 
L 271.536429 169.788243 
L 271.73858 170.548809 
L 271.940731 173.28695 
L 272.142882 173.752979 
L 272.345033 175.77035 
L 272.547184 176.082276 
L 272.749335 177.699843 
L 272.951486 177.703865 
L 273.153637 179.089734 
L 273.355789 179.063335 
L 273.55794 179.268271 
L 273.760091 180.093491 
L 274.164393 180.332266 
L 274.366544 180.210429 
L 274.568695 180.650118 
L 274.972997 180.724478 
L 275.175148 180.467832 
L 275.377299 180.881908 
L 275.57945 181.040033 
L 275.781601 181.018532 
L 275.983752 180.596775 
L 276.185903 180.659432 
L 276.388054 180.899961 
L 276.792356 180.681961 
L 277.196658 181.111974 
L 277.398809 180.974503 
L 277.60096 180.384883 
L 277.803111 181.106047 
L 278.207413 180.26731 
L 278.409564 180.64652 
L 278.611715 180.623447 
L 278.813866 179.440669 
L 279.016017 180.172447 
L 279.218168 180.407775 
L 279.420319 180.098994 
L 279.62247 178.519408 
L 279.824621 179.592746 
L 280.026772 178.90524 
L 280.228923 176.462423 
L 280.431074 177.598176 
L 280.633225 177.953617 
L 280.835376 177.392756 
L 281.037527 175.422408 
L 281.239678 176.326554 
L 281.44183 175.470883 
L 281.643981 172.904142 
L 281.846132 173.552609 
L 282.048283 172.606399 
L 282.250434 170.722961 
L 282.452585 170.229444 
L 282.654736 166.49293 
L 282.856887 167.323743 
L 283.059038 166.041719 
L 283.261189 163.806529 
L 283.46334 163.257673 
L 283.665491 158.638997 
L 283.867642 159.896588 
L 284.069793 158.290813 
L 284.271944 154.992869 
L 284.474095 154.839462 
L 284.676246 149.329885 
L 284.878397 151.042709 
L 285.080548 149.027848 
L 285.282699 145.128067 
L 285.48485 144.443373 
L 285.687001 138.987472 
L 285.889152 139.54286 
L 286.091303 132.20204 
L 286.293454 134.18149 
L 287.708511 110.835937 
L 287.910662 104.122536 
L 288.112813 103.455533 
L 288.314964 98.000418 
L 288.517115 97.14257 
L 288.719266 92.849155 
L 289.123568 88.602945 
L 289.325719 82.923178 
L 289.52787 84.199487 
L 289.730022 80.918901 
L 289.932173 80.55593 
L 290.134324 80.719982 
L 290.336475 81.936809 
L 290.538626 82.465737 
L 290.740777 84.460005 
L 290.942928 84.251076 
L 291.145079 85.192538 
L 291.953683 86.459262 
L 292.155834 86.691868 
L 292.357985 87.354547 
L 292.560136 86.754374 
L 292.964438 87.276437 
L 293.166589 86.832242 
L 293.570891 87.338187 
L 293.773042 86.85341 
L 293.975193 87.102194 
L 294.177344 86.947638 
L 294.379495 86.572873 
L 294.581646 86.819723 
L 294.783797 86.465794 
L 294.985948 85.662408 
L 295.188099 85.841307 
L 295.39025 85.282744 
L 295.592401 84.155427 
L 295.794552 84.08391 
L 295.996703 83.095908 
L 296.198854 81.488955 
L 296.401005 78.887468 
L 296.603156 79.585135 
L 297.007458 73.953873 
L 297.209609 74.414942 
L 297.41176 72.004572 
L 297.613911 67.379666 
L 297.816062 67.300317 
L 298.018214 64.037118 
L 298.220365 58.895109 
L 298.624667 58.073216 
L 299.028969 67.910046 
L 299.23112 68.281453 
L 300.039724 77.894598 
L 300.646177 84.254312 
L 300.848328 84.060625 
L 301.656932 87.331172 
L 302.061234 88.720972 
L 302.263385 88.81145 
L 302.465536 89.372644 
L 302.667687 89.337565 
L 303.071989 89.944059 
L 303.27414 89.627204 
L 303.678442 90.149842 
L 303.880593 89.715233 
L 304.082744 89.609635 
L 304.487046 90.086368 
L 304.689197 89.623031 
L 304.891348 89.864921 
L 305.29565 89.509692 
L 305.497801 89.74006 
L 305.699952 89.515135 
L 305.902103 89.095676 
L 306.104255 89.274727 
L 306.306406 88.881335 
L 306.710708 87.195152 
L 306.912859 87.893666 
L 307.11501 87.089977 
L 307.317161 85.185402 
L 307.519312 85.62119 
L 307.721463 84.848831 
L 307.923614 82.652348 
L 308.125765 83.042172 
L 308.327916 82.118945 
L 308.530067 79.351985 
L 308.732218 79.565751 
L 309.13652 75.184399 
L 309.338671 75.104081 
L 309.540822 73.406075 
L 309.742973 70.422929 
L 309.945124 69.862461 
L 310.349426 65.695873 
L 310.551577 61.257276 
L 310.753728 61.718496 
L 310.955879 59.798408 
L 311.15803 55.711502 
L 311.360181 55.275229 
L 311.562332 53.568 
L 320.861279 53.568 
L 321.06343 53.680674 
L 322.478487 75.906107 
L 322.680639 75.562217 
L 323.084941 81.326445 
L 323.287092 85.079048 
L 323.489243 84.872448 
L 323.691394 86.930401 
L 324.095696 93.836038 
L 324.297847 93.382286 
L 324.499998 95.549829 
L 324.702149 99.339506 
L 324.9043 99.091629 
L 325.106451 101.211967 
L 325.308602 104.612152 
L 325.510753 104.582638 
L 325.915055 109.586511 
L 326.117206 109.545234 
L 326.319357 111.511166 
L 326.521508 115.0862 
L 326.723659 114.511307 
L 327.127961 117.788507 
L 327.330112 118.826253 
L 327.532263 121.20478 
L 327.734414 121.745229 
L 328.138716 126.06465 
L 328.340867 125.475756 
L 328.543018 127.926376 
L 328.745169 127.956797 
L 328.94732 129.432086 
L 329.149471 129.801135 
L 329.351622 130.990897 
L 329.553773 133.040444 
L 329.755924 132.953867 
L 329.958075 134.811056 
L 330.160226 134.76237 
L 330.362377 136.025525 
L 330.564528 136.431194 
L 331.373133 140.29889 
L 331.575284 140.018475 
L 331.777435 141.317555 
L 331.979586 141.108385 
L 332.181737 142.218314 
L 332.383888 142.446112 
L 332.586039 143.246504 
L 332.78819 143.391626 
L 332.990341 144.317877 
L 333.192492 144.559071 
L 333.798945 146.45394 
L 334.001096 146.459262 
L 334.607549 148.51661 
L 335.214002 149.709276 
L 335.416153 150.727366 
L 335.618304 151.021541 
L 335.820455 151.722867 
L 336.022606 151.948699 
L 336.426908 153.08282 
L 337.235512 154.460524 
L 337.841965 154.934506 
L 338.044116 154.839764 
L 338.448418 155.183381 
L 338.650569 155.064326 
L 338.85272 155.186859 
L 339.054872 154.8052 
L 339.257023 155.182928 
L 339.459174 154.794404 
L 339.661325 155.185317 
L 339.863476 154.626996 
L 340.065627 155.040588 
L 340.67208 154.517315 
L 341.076382 153.637815 
L 341.278533 152.72366 
L 341.480684 152.786226 
L 341.682835 151.048757 
L 341.884986 151.280667 
L 342.087137 148.382526 
L 342.289288 149.063229 
L 342.491439 145.205663 
L 342.69359 146.093419 
L 342.895741 141.865806 
L 343.097892 142.079875 
L 343.300043 137.308003 
L 343.502194 137.03297 
L 343.704345 131.916453 
L 343.906496 131.150141 
L 344.108647 125.773046 
L 344.310798 124.990163 
L 344.512949 121.511292 
L 344.7151 121.884817 
L 344.917251 126.340227 
L 345.119402 126.332788 
L 345.321553 130.65227 
L 345.523704 130.488611 
L 345.725855 133.933794 
L 345.928006 133.900741 
L 346.130157 136.07533 
L 346.332308 136.370987 
L 346.73661 137.957044 
L 347.343064 138.791336 
L 347.545215 138.786074 
L 347.747366 138.943776 
L 347.949517 138.82838 
L 348.151668 139.000566 
L 348.353819 138.882086 
L 348.758121 139.17865 
L 349.566725 138.484248 
L 349.971027 137.318557 
L 350.173178 135.010761 
L 350.375329 136.168137 
L 350.57748 132.966477 
L 350.779631 134.22694 
L 350.981782 130.664215 
L 351.183933 131.685329 
L 351.386084 127.826796 
L 351.588235 128.433894 
L 351.790386 124.777152 
L 351.992537 125.027297 
L 352.194688 121.031777 
L 352.396839 120.84822 
L 352.59899 117.485109 
L 352.801141 116.671532 
L 353.205443 111.455616 
L 353.407594 109.123416 
L 353.609745 102.070087 
L 353.811896 103.596844 
L 354.014047 97.590273 
L 354.216198 97.936188 
L 354.418349 93.174386 
L 354.6205 92.212271 
L 354.822651 89.018624 
L 355.024802 81.744453 
L 355.226953 82.88438 
L 355.429104 77.423126 
L 355.631256 76.717083 
L 355.833407 73.336009 
L 356.035558 66.693612 
L 356.237709 67.553819 
L 356.642011 57.561888 
L 356.844162 58.281327 
L 357.046313 54.458598 
L 357.248464 53.568 
L 359.674276 53.568 
L 359.876427 56.271275 
L 360.280729 68.372718 
L 360.48288 68.914588 
L 361.291484 83.273206 
L 361.695786 88.527345 
L 361.897937 93.737818 
L 362.100088 93.983639 
L 362.50439 100.028434 
L 362.706541 104.450247 
L 362.908692 103.632588 
L 363.312994 110.444813 
L 363.515145 109.31541 
L 363.717297 112.482505 
L 363.919448 112.954189 
L 364.121599 114.846517 
L 364.32375 117.83683 
L 364.525901 118.119574 
L 364.728052 119.726709 
L 364.930203 123.165662 
L 365.132354 122.573624 
L 365.334505 124.933553 
L 365.536656 125.2104 
L 366.34526 129.902046 
L 366.547411 129.908789 
L 366.749562 131.02395 
L 367.153864 132.044489 
L 367.356015 133.199748 
L 367.558166 133.23156 
L 367.760317 134.295192 
L 367.962468 134.314939 
L 368.164619 135.006769 
L 368.36677 135.248538 
L 368.973223 136.287403 
L 369.175374 137.301653 
L 369.377525 136.951504 
L 369.579676 137.470271 
L 369.781827 137.522828 
L 370.186129 138.003463 
L 370.792582 138.5059 
L 371.196884 139.017319 
L 371.399035 138.951154 
L 371.601186 139.197671 
L 372.20764 139.061923 
L 372.409791 139.444338 
L 372.611942 139.130387 
L 372.814093 139.525684 
L 373.016244 139.173932 
L 373.218395 139.579451 
L 373.420546 139.197308 
L 373.622697 139.338589 
L 373.824848 139.206259 
L 374.22915 139.491664 
L 374.633452 139.216419 
L 374.835603 139.358003 
L 375.239905 138.946527 
L 375.442056 139.426648 
L 375.644207 138.801829 
L 375.846358 139.007249 
L 376.048509 138.559969 
L 376.25066 138.755713 
L 376.452811 138.200174 
L 376.654962 138.356878 
L 376.857113 137.703452 
L 377.059264 137.773457 
L 377.261415 137.032789 
L 377.463566 136.967833 
L 377.665717 136.175908 
L 377.867868 135.904716 
L 378.070019 135.101572 
L 378.27217 132.832181 
L 378.474321 133.4961 
L 378.676472 131.165624 
L 378.878623 131.642086 
L 379.080774 129.163041 
L 379.282925 129.486155 
L 379.485076 127.07509 
L 379.687227 127.079444 
L 379.889378 124.380312 
L 380.091529 123.995539 
L 380.293681 121.599865 
L 380.495832 120.848492 
L 380.697983 118.76045 
L 380.900134 114.308639 
L 381.102285 114.954958 
L 381.304436 110.468007 
L 381.506587 110.985958 
L 381.708738 107.055333 
L 381.910889 106.276804 
L 382.315191 101.665567 
L 382.517342 99.463248 
L 382.719493 92.905492 
L 382.921644 93.820071 
L 383.123795 89.00931 
L 383.325946 88.397434 
L 383.528097 84.922737 
L 383.730248 78.785862 
L 383.932399 79.379533 
L 384.13455 74.381859 
L 384.336701 72.953806 
L 384.538852 70.105742 
L 384.741003 64.410008 
L 384.943154 63.84954 
L 385.145305 60.242603 
L 385.347456 54.645602 
L 385.751758 53.568 
L 390.401232 53.568 
L 390.603383 53.750075 
L 390.805534 53.568272 
L 392.220591 53.568 
L 392.422742 53.77333 
L 392.624893 53.568 
L 394.03995 53.640939 
L 394.242101 53.824526 
L 394.646403 53.686087 
L 394.848554 53.72927 
L 395.050705 53.568 
L 395.657158 53.568 
L 396.465762 54.179604 
L 396.870065 54.272834 
L 397.072216 53.568 
L 397.678669 53.606314 
L 398.082971 53.875994 
L 398.487273 54.091999 
L 398.487273 54.091999 
" clip-path="url(#pb134e49ec1)" style="fill: none; stroke: #ff7f0e; stroke-width: 1.5; stroke-linecap: square"/>
   </g>
   <g id="patch_3">
    <path d="M 57.6 307.584 
L 57.6 41.472 
" style="fill: none; stroke: #000000; stroke-width: 0.8; stroke-linejoin: miter; stroke-linecap: square"/>
   </g>
   <g id="patch_4">
    <path d="M 414.72 307.584 
L 414.72 41.472 
" style="fill: none; stroke: #000000; stroke-width: 0.8; stroke-linejoin: miter; stroke-linecap: square"/>
   </g>
   <g id="patch_5">
    <path d="M 57.6 307.584 
L 414.72 307.584 
" style="fill: none; stroke: #000000; stroke-width: 0.8; stroke-linejoin: miter; stroke-linecap: square"/>
   </g>
   <g id="patch_6">
    <path d="M 57.6 41.472 
L 414.72 41.472 
" style="fill: none; stroke: #000000; stroke-width: 0.8; stroke-linejoin: miter; stroke-linecap: square"/>
   </g>
   <g id="text_19">
    <!-- Actual speed vs Expected speed -->
    <g transform="translate(138.808125 35.472) scale(0.12 -0.12)">
     <defs>
      <path id="DejaVuSans-41" d="M 2188 4044 
L 1331 1722 
L 3047 1722 
L 2188 4044 
z
M 1831 4666 
L 2547 4666 
L 4325 0 
L 3669 0 
L 3244 1197 
L 1141 1197 
L 716 0 
L 50 0 
L 1831 4666 
z
" transform="scale(0.015625)"/>
      <path id="DejaVuSans-75" d="M 544 1381 
L 544 3500 
L 1119 3500 
L 1119 1403 
Q 1119 906 1312 657 
Q 1506 409 1894 409 
Q 2359 409 2629 706 
Q 2900 1003 2900 1516 
L 2900 3500 
L 3475 3500 
L 3475 0 
L 2900 0 
L 2900 538 
Q 2691 219 2414 64 
Q 2138 -91 1772 -91 
Q 1169 -91 856 284 
Q 544 659 544 1381 
z
M 1991 3584 
L 1991 3584 
z
" transform="scale(0.015625)"/>
      <path id="DejaVuSans-61" d="M 2194 1759 
Q 1497 1759 1228 1600 
Q 959 1441 959 1056 
Q 959 750 1161 570 
Q 1363 391 1709 391 
Q 2188 391 2477 730 
Q 2766 1069 2766 1631 
L 2766 1759 
L 2194 1759 
z
M 3341 1997 
L 3341 0 
L 2766 0 
L 2766 531 
Q 2569 213 2275 61 
Q 1981 -91 1556 -91 
Q 1019 -91 701 211 
Q 384 513 384 1019 
Q 384 1609 779 1909 
Q 1175 2209 1959 2209 
L 2766 2209 
L 2766 2266 
Q 2766 2663 2505 2880 
Q 2244 3097 1772 3097 
Q 1472 3097 1187 3025 
Q 903 2953 641 2809 
L 641 3341 
Q 956 3463 1253 3523 
Q 1550 3584 1831 3584 
Q 2591 3584 2966 3190 
Q 3341 2797 3341 1997 
z
" transform="scale(0.015625)"/>
      <path id="DejaVuSans-20" transform="scale(0.015625)"/>
      <path id="DejaVuSans-70" d="M 1159 525 
L 1159 -1331 
L 581 -1331 
L 581 3500 
L 1159 3500 
L 1159 2969 
Q 1341 3281 1617 3432 
Q 1894 3584 2278 3584 
Q 2916 3584 3314 3078 
Q 3713 2572 3713 1747 
Q 3713 922 3314 415 
Q 2916 -91 2278 -91 
Q 1894 -91 1617 61 
Q 1341 213 1159 525 
z
M 3116 1747 
Q 3116 2381 2855 2742 
Q 2594 3103 2138 3103 
Q 1681 3103 1420 2742 
Q 1159 2381 1159 1747 
Q 1159 1113 1420 752 
Q 1681 391 2138 391 
Q 2594 391 2855 752 
Q 3116 1113 3116 1747 
z
" transform="scale(0.015625)"/>
      <path id="DejaVuSans-64" d="M 2906 2969 
L 2906 4863 
L 3481 4863 
L 3481 0 
L 2906 0 
L 2906 525 
Q 2725 213 2448 61 
Q 2172 -91 1784 -91 
Q 1150 -91 751 415 
Q 353 922 353 1747 
Q 353 2572 751 3078 
Q 1150 3584 1784 3584 
Q 2172 3584 2448 3432 
Q 2725 3281 2906 2969 
z
M 947 1747 
Q 947 1113 1208 752 
Q 1469 391 1925 391 
Q 2381 391 2643 752 
Q 2906 1113 2906 1747 
Q 2906 2381 2643 2742 
Q 2381 3103 1925 3103 
Q 1469 3103 1208 2742 
Q 947 2381 947 1747 
z
" transform="scale(0.015625)"/>
      <path id="DejaVuSans-76" d="M 191 3500 
L 800 3500 
L 1894 563 
L 2988 3500 
L 3597 3500 
L 2284 0 
L 1503 0 
L 191 3500 
z
" transform="scale(0.015625)"/>
      <path id="DejaVuSans-45" d="M 628 4666 
L 3578 4666 
L 3578 4134 
L 1259 4134 
L 1259 2753 
L 3481 2753 
L 3481 2222 
L 1259 2222 
L 1259 531 
L 3634 531 
L 3634 0 
L 628 0 
L 628 4666 
z
" transform="scale(0.015625)"/>
      <path id="DejaVuSans-78" d="M 3513 3500 
L 2247 1797 
L 3578 0 
L 2900 0 
L 1881 1375 
L 863 0 
L 184 0 
L 1544 1831 
L 300 3500 
L 978 3500 
L 1906 2253 
L 2834 3500 
L 3513 3500 
z
" transform="scale(0.015625)"/>
     </defs>
     <use xlink:href="#DejaVuSans-41"/>
     <use xlink:href="#DejaVuSans-63" x="66.658203"/>
     <use xlink:href="#DejaVuSans-74" x="121.638672"/>
     <use xlink:href="#DejaVuSans-75" x="160.847656"/>
     <use xlink:href="#DejaVuSans-61" x="224.226562"/>
     <use xlink:href="#DejaVuSans-6c" x="285.505859"/>
     <use xlink:href="#DejaVuSans-20" x="313.289062"/>
     <use xlink:href="#DejaVuSans-73" x="345.076172"/>
     <use xlink:href="#DejaVuSans-70" x="397.175781"/>
     <use xlink:href="#DejaVuSans-65" x="460.652344"/>
     <use xlink:href="#DejaVuSans-65" x="522.175781"/>
     <use xlink:href="#DejaVuSans-64" x="583.699219"/>
     <use xlink:href="#DejaVuSans-20" x="647.175781"/>
     <use xlink:href="#DejaVuSans-76" x="678.962891"/>
     <use xlink:href="#DejaVuSans-73" x="738.142578"/>
     <use xlink:href="#DejaVuSans-20" x="790.242188"/>
     <use xlink:href="#DejaVuSans-45" x="822.029297"/>
     <use xlink:href="#DejaVuSans-78" x="885.212891"/>
     <use xlink:href="#DejaVuSans-70" x="944.392578"/>
     <use xlink:href="#DejaVuSans-65" x="1007.869141"/>
     <use xlink:href="#DejaVuSans-63" x="1069.392578"/>
     <use xlink:href="#DejaVuSans-74" x="1124.373047"/>
     <use xlink:href="#DejaVuSans-65" x="1163.582031"/>
     <use xlink:href="#DejaVuSans-64" x="1225.105469"/>
     <use xlink:href="#DejaVuSans-20" x="1288.582031"/>
     <use xlink:href="#DejaVuSans-73" x="1320.369141"/>
     <use xlink:href="#DejaVuSans-70" x="1372.46875"/>
     <use xlink:href="#DejaVuSans-65" x="1435.945312"/>
     <use xlink:href="#DejaVuSans-65" x="1497.46875"/>
     <use xlink:href="#DejaVuSans-64" x="1558.992188"/>
    </g>
   </g>
   <g id="legend_1">
    <g id="patch_7">
     <path d="M 295.67 302.584 
L 407.72 302.584 
Q 409.72 302.584 409.72 300.584 
L 409.72 272.22775 
Q 409.72 270.22775 407.72 270.22775 
L 295.67 270.22775 
Q 293.67 270.22775 293.67 272.22775 
L 293.67 300.584 
Q 293.67 302.584 295.67 302.584 
z
" style="fill: #ffffff; opacity: 0.8; stroke: #cccccc; stroke-linejoin: miter"/>
    </g>
    <g id="line2d_35">
     <path d="M 297.67 278.326187 
L 307.67 278.326187 
L 317.67 278.326187 
" style="fill: none; stroke: #1f77b4; stroke-width: 1.5; stroke-linecap: square"/>
    </g>
    <g id="text_20">
     <!-- Actual speed -->
     <g transform="translate(325.67 281.826187) scale(0.1 -0.1)">
      <use xlink:href="#DejaVuSans-41"/>
      <use xlink:href="#DejaVuSans-63" x="66.658203"/>
      <use xlink:href="#DejaVuSans-74" x="121.638672"/>
      <use xlink:href="#DejaVuSans-75" x="160.847656"/>
      <use xlink:href="#DejaVuSans-61" x="224.226562"/>
      <use xlink:href="#DejaVuSans-6c" x="285.505859"/>
      <use xlink:href="#DejaVuSans-20" x="313.289062"/>
      <use xlink:href="#DejaVuSans-73" x="345.076172"/>
      <use xlink:href="#DejaVuSans-70" x="397.175781"/>
      <use xlink:href="#DejaVuSans-65" x="460.652344"/>
      <use xlink:href="#DejaVuSans-65" x="522.175781"/>
      <use xlink:href="#DejaVuSans-64" x="583.699219"/>
     </g>
    </g>
    <g id="line2d_36">
     <path d="M 297.67 293.004312 
L 307.67 293.004312 
L 317.67 293.004312 
" style="fill: none; stroke: #ff7f0e; stroke-width: 1.5; stroke-linecap: square"/>
    </g>
    <g id="text_21">
     <!-- Expected speed -->
     <g transform="translate(325.67 296.504312) scale(0.1 -0.1)">
      <use xlink:href="#DejaVuSans-45"/>
      <use xlink:href="#DejaVuSans-78" x="63.183594"/>
      <use xlink:href="#DejaVuSans-70" x="122.363281"/>
      <use xlink:href="#DejaVuSans-65" x="185.839844"/>
      <use xlink:href="#DejaVuSans-63" x="247.363281"/>
      <use xlink:href="#DejaVuSans-74" x="302.34375"/>
      <use xlink:href="#DejaVuSans-65" x="341.552734"/>
      <use xlink:href="#DejaVuSans-64" x="403.076172"/>
      <use xlink:href="#DejaVuSans-20" x="466.552734"/>
      <use xlink:href="#DejaVuSans-73" x="498.339844"/>
      <use xlink:href="#DejaVuSans-70" x="550.439453"/>
      <use xlink:href="#DejaVuSans-65" x="613.916016"/>
      <use xlink:href="#DejaVuSans-65" x="675.439453"/>
      <use xlink:href="#DejaVuSans-64" x="736.962891"/>
     </g>
    </g>
   </g>
  </g>
 </g>
 <defs>
  <clipPath id="pb134e49ec1">
   <rect x="57.6" y="41.472" width="357.12" height="266.112"/>
  </clipPath>
 </defs>
</svg>
