<?xml version="1.0" encoding="utf-8" standalone="no"?>
<!DOCTYPE svg PUBLIC "-//W3C//DTD SVG 1.1//EN"
  "http://www.w3.org/Graphics/SVG/1.1/DTD/svg11.dtd">
<svg xmlns:xlink="http://www.w3.org/1999/xlink" width="460.8pt" height="345.6pt" viewBox="0 0 460.8 345.6" xmlns="http://www.w3.org/2000/svg" version="1.1">
 <metadata>
  <rdf:RDF xmlns:dc="http://purl.org/dc/elements/1.1/" xmlns:cc="http://creativecommons.org/ns#" xmlns:rdf="http://www.w3.org/1999/02/22-rdf-syntax-ns#">
   <cc:Work>
    <dc:type rdf:resource="http://purl.org/dc/dcmitype/StillImage"/>
    <dc:date>2024-01-30T20:59:35.857810</dc:date>
    <dc:format>image/svg+xml</dc:format>
    <dc:creator>
     <cc:Agent>
      <dc:title>Matplotlib v3.7.1, https://matplotlib.org/</dc:title>
     </cc:Agent>
    </dc:creator>
   </cc:Work>
  </rdf:RDF>
 </metadata>
 <defs>
  <style type="text/css">*{stroke-linejoin: round; stroke-linecap: butt}</style>
 </defs>
 <g id="figure_1">
  <g id="patch_1">
   <path d="M 0 345.6 
L 460.8 345.6 
L 460.8 0 
L 0 0 
z
" style="fill: #ffffff"/>
  </g>
  <g id="axes_1">
   <g id="patch_2">
    <path d="M 57.6 307.584 
L 414.72 307.584 
L 414.72 41.472 
L 57.6 41.472 
z
" style="fill: #ffffff"/>
   </g>
   <g id="matplotlib.axis_1">
    <g id="xtick_1">
     <g id="line2d_1">
      <path d="M 73.832727 307.584 
L 73.832727 41.472 
" clip-path="url(#p367eef18ad)" style="fill: none; stroke: #b0b0b0; stroke-width: 0.8; stroke-linecap: square"/>
     </g>
     <g id="line2d_2">
      <defs>
       <path id="mb45c11cf72" d="M 0 0 
L 0 3.5 
" style="stroke: #000000; stroke-width: 0.8"/>
      </defs>
      <g>
       <use xlink:href="#mb45c11cf72" x="73.832727" y="307.584" style="stroke: #000000; stroke-width: 0.8"/>
      </g>
     </g>
     <g id="text_1">
      <!-- 0 -->
      <g transform="translate(70.651477 322.182437) scale(0.1 -0.1)">
       <defs>
        <path id="DejaVuSans-30" d="M 2034 4250 
Q 1547 4250 1301 3770 
Q 1056 3291 1056 2328 
Q 1056 1369 1301 889 
Q 1547 409 2034 409 
Q 2525 409 2770 889 
Q 3016 1369 3016 2328 
Q 3016 3291 2770 3770 
Q 2525 4250 2034 4250 
z
M 2034 4750 
Q 2819 4750 3233 4129 
Q 3647 3509 3647 2328 
Q 3647 1150 3233 529 
Q 2819 -91 2034 -91 
Q 1250 -91 836 529 
Q 422 1150 422 2328 
Q 422 3509 836 4129 
Q 1250 4750 2034 4750 
z
" transform="scale(0.015625)"/>
       </defs>
       <use xlink:href="#DejaVuSans-30"/>
      </g>
     </g>
    </g>
    <g id="xtick_2">
     <g id="line2d_3">
      <path d="M 124.56 307.584 
L 124.56 41.472 
" clip-path="url(#p367eef18ad)" style="fill: none; stroke: #b0b0b0; stroke-width: 0.8; stroke-linecap: square"/>
     </g>
     <g id="line2d_4">
      <g>
       <use xlink:href="#mb45c11cf72" x="124.56" y="307.584" style="stroke: #000000; stroke-width: 0.8"/>
      </g>
     </g>
     <g id="text_2">
      <!-- 2 -->
      <g transform="translate(121.37875 322.182437) scale(0.1 -0.1)">
       <defs>
        <path id="DejaVuSans-32" d="M 1228 531 
L 3431 531 
L 3431 0 
L 469 0 
L 469 531 
Q 828 903 1448 1529 
Q 2069 2156 2228 2338 
Q 2531 2678 2651 2914 
Q 2772 3150 2772 3378 
Q 2772 3750 2511 3984 
Q 2250 4219 1831 4219 
Q 1534 4219 1204 4116 
Q 875 4013 500 3803 
L 500 4441 
Q 881 4594 1212 4672 
Q 1544 4750 1819 4750 
Q 2544 4750 2975 4387 
Q 3406 4025 3406 3419 
Q 3406 3131 3298 2873 
Q 3191 2616 2906 2266 
Q 2828 2175 2409 1742 
Q 1991 1309 1228 531 
z
" transform="scale(0.015625)"/>
       </defs>
       <use xlink:href="#DejaVuSans-32"/>
      </g>
     </g>
    </g>
    <g id="xtick_3">
     <g id="line2d_5">
      <path d="M 175.287273 307.584 
L 175.287273 41.472 
" clip-path="url(#p367eef18ad)" style="fill: none; stroke: #b0b0b0; stroke-width: 0.8; stroke-linecap: square"/>
     </g>
     <g id="line2d_6">
      <g>
       <use xlink:href="#mb45c11cf72" x="175.287273" y="307.584" style="stroke: #000000; stroke-width: 0.8"/>
      </g>
     </g>
     <g id="text_3">
      <!-- 4 -->
      <g transform="translate(172.106023 322.182437) scale(0.1 -0.1)">
       <defs>
        <path id="DejaVuSans-34" d="M 2419 4116 
L 825 1625 
L 2419 1625 
L 2419 4116 
z
M 2253 4666 
L 3047 4666 
L 3047 1625 
L 3713 1625 
L 3713 1100 
L 3047 1100 
L 3047 0 
L 2419 0 
L 2419 1100 
L 313 1100 
L 313 1709 
L 2253 4666 
z
" transform="scale(0.015625)"/>
       </defs>
       <use xlink:href="#DejaVuSans-34"/>
      </g>
     </g>
    </g>
    <g id="xtick_4">
     <g id="line2d_7">
      <path d="M 226.014545 307.584 
L 226.014545 41.472 
" clip-path="url(#p367eef18ad)" style="fill: none; stroke: #b0b0b0; stroke-width: 0.8; stroke-linecap: square"/>
     </g>
     <g id="line2d_8">
      <g>
       <use xlink:href="#mb45c11cf72" x="226.014545" y="307.584" style="stroke: #000000; stroke-width: 0.8"/>
      </g>
     </g>
     <g id="text_4">
      <!-- 6 -->
      <g transform="translate(222.833295 322.182437) scale(0.1 -0.1)">
       <defs>
        <path id="DejaVuSans-36" d="M 2113 2584 
Q 1688 2584 1439 2293 
Q 1191 2003 1191 1497 
Q 1191 994 1439 701 
Q 1688 409 2113 409 
Q 2538 409 2786 701 
Q 3034 994 3034 1497 
Q 3034 2003 2786 2293 
Q 2538 2584 2113 2584 
z
M 3366 4563 
L 3366 3988 
Q 3128 4100 2886 4159 
Q 2644 4219 2406 4219 
Q 1781 4219 1451 3797 
Q 1122 3375 1075 2522 
Q 1259 2794 1537 2939 
Q 1816 3084 2150 3084 
Q 2853 3084 3261 2657 
Q 3669 2231 3669 1497 
Q 3669 778 3244 343 
Q 2819 -91 2113 -91 
Q 1303 -91 875 529 
Q 447 1150 447 2328 
Q 447 3434 972 4092 
Q 1497 4750 2381 4750 
Q 2619 4750 2861 4703 
Q 3103 4656 3366 4563 
z
" transform="scale(0.015625)"/>
       </defs>
       <use xlink:href="#DejaVuSans-36"/>
      </g>
     </g>
    </g>
    <g id="xtick_5">
     <g id="line2d_9">
      <path d="M 276.741818 307.584 
L 276.741818 41.472 
" clip-path="url(#p367eef18ad)" style="fill: none; stroke: #b0b0b0; stroke-width: 0.8; stroke-linecap: square"/>
     </g>
     <g id="line2d_10">
      <g>
       <use xlink:href="#mb45c11cf72" x="276.741818" y="307.584" style="stroke: #000000; stroke-width: 0.8"/>
      </g>
     </g>
     <g id="text_5">
      <!-- 8 -->
      <g transform="translate(273.560568 322.182437) scale(0.1 -0.1)">
       <defs>
        <path id="DejaVuSans-38" d="M 2034 2216 
Q 1584 2216 1326 1975 
Q 1069 1734 1069 1313 
Q 1069 891 1326 650 
Q 1584 409 2034 409 
Q 2484 409 2743 651 
Q 3003 894 3003 1313 
Q 3003 1734 2745 1975 
Q 2488 2216 2034 2216 
z
M 1403 2484 
Q 997 2584 770 2862 
Q 544 3141 544 3541 
Q 544 4100 942 4425 
Q 1341 4750 2034 4750 
Q 2731 4750 3128 4425 
Q 3525 4100 3525 3541 
Q 3525 3141 3298 2862 
Q 3072 2584 2669 2484 
Q 3125 2378 3379 2068 
Q 3634 1759 3634 1313 
Q 3634 634 3220 271 
Q 2806 -91 2034 -91 
Q 1263 -91 848 271 
Q 434 634 434 1313 
Q 434 1759 690 2068 
Q 947 2378 1403 2484 
z
M 1172 3481 
Q 1172 3119 1398 2916 
Q 1625 2713 2034 2713 
Q 2441 2713 2670 2916 
Q 2900 3119 2900 3481 
Q 2900 3844 2670 4047 
Q 2441 4250 2034 4250 
Q 1625 4250 1398 4047 
Q 1172 3844 1172 3481 
z
" transform="scale(0.015625)"/>
       </defs>
       <use xlink:href="#DejaVuSans-38"/>
      </g>
     </g>
    </g>
    <g id="xtick_6">
     <g id="line2d_11">
      <path d="M 327.469091 307.584 
L 327.469091 41.472 
" clip-path="url(#p367eef18ad)" style="fill: none; stroke: #b0b0b0; stroke-width: 0.8; stroke-linecap: square"/>
     </g>
     <g id="line2d_12">
      <g>
       <use xlink:href="#mb45c11cf72" x="327.469091" y="307.584" style="stroke: #000000; stroke-width: 0.8"/>
      </g>
     </g>
     <g id="text_6">
      <!-- 10 -->
      <g transform="translate(321.106591 322.182437) scale(0.1 -0.1)">
       <defs>
        <path id="DejaVuSans-31" d="M 794 531 
L 1825 531 
L 1825 4091 
L 703 3866 
L 703 4441 
L 1819 4666 
L 2450 4666 
L 2450 531 
L 3481 531 
L 3481 0 
L 794 0 
L 794 531 
z
" transform="scale(0.015625)"/>
       </defs>
       <use xlink:href="#DejaVuSans-31"/>
       <use xlink:href="#DejaVuSans-30" x="63.623047"/>
      </g>
     </g>
    </g>
    <g id="xtick_7">
     <g id="line2d_13">
      <path d="M 378.196364 307.584 
L 378.196364 41.472 
" clip-path="url(#p367eef18ad)" style="fill: none; stroke: #b0b0b0; stroke-width: 0.8; stroke-linecap: square"/>
     </g>
     <g id="line2d_14">
      <g>
       <use xlink:href="#mb45c11cf72" x="378.196364" y="307.584" style="stroke: #000000; stroke-width: 0.8"/>
      </g>
     </g>
     <g id="text_7">
      <!-- 12 -->
      <g transform="translate(371.833864 322.182437) scale(0.1 -0.1)">
       <use xlink:href="#DejaVuSans-31"/>
       <use xlink:href="#DejaVuSans-32" x="63.623047"/>
      </g>
     </g>
    </g>
    <g id="text_8">
     <!-- Time(s) -->
     <g transform="translate(217.420156 335.860562) scale(0.1 -0.1)">
      <defs>
       <path id="DejaVuSans-54" d="M -19 4666 
L 3928 4666 
L 3928 4134 
L 2272 4134 
L 2272 0 
L 1638 0 
L 1638 4134 
L -19 4134 
L -19 4666 
z
" transform="scale(0.015625)"/>
       <path id="DejaVuSans-69" d="M 603 3500 
L 1178 3500 
L 1178 0 
L 603 0 
L 603 3500 
z
M 603 4863 
L 1178 4863 
L 1178 4134 
L 603 4134 
L 603 4863 
z
" transform="scale(0.015625)"/>
       <path id="DejaVuSans-6d" d="M 3328 2828 
Q 3544 3216 3844 3400 
Q 4144 3584 4550 3584 
Q 5097 3584 5394 3201 
Q 5691 2819 5691 2113 
L 5691 0 
L 5113 0 
L 5113 2094 
Q 5113 2597 4934 2840 
Q 4756 3084 4391 3084 
Q 3944 3084 3684 2787 
Q 3425 2491 3425 1978 
L 3425 0 
L 2847 0 
L 2847 2094 
Q 2847 2600 2669 2842 
Q 2491 3084 2119 3084 
Q 1678 3084 1418 2786 
Q 1159 2488 1159 1978 
L 1159 0 
L 581 0 
L 581 3500 
L 1159 3500 
L 1159 2956 
Q 1356 3278 1631 3431 
Q 1906 3584 2284 3584 
Q 2666 3584 2933 3390 
Q 3200 3197 3328 2828 
z
" transform="scale(0.015625)"/>
       <path id="DejaVuSans-65" d="M 3597 1894 
L 3597 1613 
L 953 1613 
Q 991 1019 1311 708 
Q 1631 397 2203 397 
Q 2534 397 2845 478 
Q 3156 559 3463 722 
L 3463 178 
Q 3153 47 2828 -22 
Q 2503 -91 2169 -91 
Q 1331 -91 842 396 
Q 353 884 353 1716 
Q 353 2575 817 3079 
Q 1281 3584 2069 3584 
Q 2775 3584 3186 3129 
Q 3597 2675 3597 1894 
z
M 3022 2063 
Q 3016 2534 2758 2815 
Q 2500 3097 2075 3097 
Q 1594 3097 1305 2825 
Q 1016 2553 972 2059 
L 3022 2063 
z
" transform="scale(0.015625)"/>
       <path id="DejaVuSans-28" d="M 1984 4856 
Q 1566 4138 1362 3434 
Q 1159 2731 1159 2009 
Q 1159 1288 1364 580 
Q 1569 -128 1984 -844 
L 1484 -844 
Q 1016 -109 783 600 
Q 550 1309 550 2009 
Q 550 2706 781 3412 
Q 1013 4119 1484 4856 
L 1984 4856 
z
" transform="scale(0.015625)"/>
       <path id="DejaVuSans-73" d="M 2834 3397 
L 2834 2853 
Q 2591 2978 2328 3040 
Q 2066 3103 1784 3103 
Q 1356 3103 1142 2972 
Q 928 2841 928 2578 
Q 928 2378 1081 2264 
Q 1234 2150 1697 2047 
L 1894 2003 
Q 2506 1872 2764 1633 
Q 3022 1394 3022 966 
Q 3022 478 2636 193 
Q 2250 -91 1575 -91 
Q 1294 -91 989 -36 
Q 684 19 347 128 
L 347 722 
Q 666 556 975 473 
Q 1284 391 1588 391 
Q 1994 391 2212 530 
Q 2431 669 2431 922 
Q 2431 1156 2273 1281 
Q 2116 1406 1581 1522 
L 1381 1569 
Q 847 1681 609 1914 
Q 372 2147 372 2553 
Q 372 3047 722 3315 
Q 1072 3584 1716 3584 
Q 2034 3584 2315 3537 
Q 2597 3491 2834 3397 
z
" transform="scale(0.015625)"/>
       <path id="DejaVuSans-29" d="M 513 4856 
L 1013 4856 
Q 1481 4119 1714 3412 
Q 1947 2706 1947 2009 
Q 1947 1309 1714 600 
Q 1481 -109 1013 -844 
L 513 -844 
Q 928 -128 1133 580 
Q 1338 1288 1338 2009 
Q 1338 2731 1133 3434 
Q 928 4138 513 4856 
z
" transform="scale(0.015625)"/>
      </defs>
      <use xlink:href="#DejaVuSans-54"/>
      <use xlink:href="#DejaVuSans-69" x="57.958984"/>
      <use xlink:href="#DejaVuSans-6d" x="85.742188"/>
      <use xlink:href="#DejaVuSans-65" x="183.154297"/>
      <use xlink:href="#DejaVuSans-28" x="244.677734"/>
      <use xlink:href="#DejaVuSans-73" x="283.691406"/>
      <use xlink:href="#DejaVuSans-29" x="335.791016"/>
     </g>
    </g>
   </g>
   <g id="matplotlib.axis_2">
    <g id="ytick_1">
     <g id="line2d_15">
      <path d="M 57.6 295.488 
L 414.72 295.488 
" clip-path="url(#p367eef18ad)" style="fill: none; stroke: #b0b0b0; stroke-width: 0.8; stroke-linecap: square"/>
     </g>
     <g id="line2d_16">
      <defs>
       <path id="m68a5ae35f4" d="M 0 0 
L -3.5 0 
" style="stroke: #000000; stroke-width: 0.8"/>
      </defs>
      <g>
       <use xlink:href="#m68a5ae35f4" x="57.6" y="295.488" style="stroke: #000000; stroke-width: 0.8"/>
      </g>
     </g>
     <g id="text_9">
      <!-- 0 -->
      <g transform="translate(44.2375 299.287219) scale(0.1 -0.1)">
       <use xlink:href="#DejaVuSans-30"/>
      </g>
     </g>
    </g>
    <g id="ytick_2">
     <g id="line2d_17">
      <path d="M 57.6 265.248 
L 414.72 265.248 
" clip-path="url(#p367eef18ad)" style="fill: none; stroke: #b0b0b0; stroke-width: 0.8; stroke-linecap: square"/>
     </g>
     <g id="line2d_18">
      <g>
       <use xlink:href="#m68a5ae35f4" x="57.6" y="265.248" style="stroke: #000000; stroke-width: 0.8"/>
      </g>
     </g>
     <g id="text_10">
      <!-- 1 -->
      <g transform="translate(44.2375 269.047219) scale(0.1 -0.1)">
       <use xlink:href="#DejaVuSans-31"/>
      </g>
     </g>
    </g>
    <g id="ytick_3">
     <g id="line2d_19">
      <path d="M 57.6 235.008 
L 414.72 235.008 
" clip-path="url(#p367eef18ad)" style="fill: none; stroke: #b0b0b0; stroke-width: 0.8; stroke-linecap: square"/>
     </g>
     <g id="line2d_20">
      <g>
       <use xlink:href="#m68a5ae35f4" x="57.6" y="235.008" style="stroke: #000000; stroke-width: 0.8"/>
      </g>
     </g>
     <g id="text_11">
      <!-- 2 -->
      <g transform="translate(44.2375 238.807219) scale(0.1 -0.1)">
       <use xlink:href="#DejaVuSans-32"/>
      </g>
     </g>
    </g>
    <g id="ytick_4">
     <g id="line2d_21">
      <path d="M 57.6 204.768 
L 414.72 204.768 
" clip-path="url(#p367eef18ad)" style="fill: none; stroke: #b0b0b0; stroke-width: 0.8; stroke-linecap: square"/>
     </g>
     <g id="line2d_22">
      <g>
       <use xlink:href="#m68a5ae35f4" x="57.6" y="204.768" style="stroke: #000000; stroke-width: 0.8"/>
      </g>
     </g>
     <g id="text_12">
      <!-- 3 -->
      <g transform="translate(44.2375 208.567219) scale(0.1 -0.1)">
       <defs>
        <path id="DejaVuSans-33" d="M 2597 2516 
Q 3050 2419 3304 2112 
Q 3559 1806 3559 1356 
Q 3559 666 3084 287 
Q 2609 -91 1734 -91 
Q 1441 -91 1130 -33 
Q 819 25 488 141 
L 488 750 
Q 750 597 1062 519 
Q 1375 441 1716 441 
Q 2309 441 2620 675 
Q 2931 909 2931 1356 
Q 2931 1769 2642 2001 
Q 2353 2234 1838 2234 
L 1294 2234 
L 1294 2753 
L 1863 2753 
Q 2328 2753 2575 2939 
Q 2822 3125 2822 3475 
Q 2822 3834 2567 4026 
Q 2313 4219 1838 4219 
Q 1578 4219 1281 4162 
Q 984 4106 628 3988 
L 628 4550 
Q 988 4650 1302 4700 
Q 1616 4750 1894 4750 
Q 2613 4750 3031 4423 
Q 3450 4097 3450 3541 
Q 3450 3153 3228 2886 
Q 3006 2619 2597 2516 
z
" transform="scale(0.015625)"/>
       </defs>
       <use xlink:href="#DejaVuSans-33"/>
      </g>
     </g>
    </g>
    <g id="ytick_5">
     <g id="line2d_23">
      <path d="M 57.6 174.528 
L 414.72 174.528 
" clip-path="url(#p367eef18ad)" style="fill: none; stroke: #b0b0b0; stroke-width: 0.8; stroke-linecap: square"/>
     </g>
     <g id="line2d_24">
      <g>
       <use xlink:href="#m68a5ae35f4" x="57.6" y="174.528" style="stroke: #000000; stroke-width: 0.8"/>
      </g>
     </g>
     <g id="text_13">
      <!-- 4 -->
      <g transform="translate(44.2375 178.327219) scale(0.1 -0.1)">
       <use xlink:href="#DejaVuSans-34"/>
      </g>
     </g>
    </g>
    <g id="ytick_6">
     <g id="line2d_25">
      <path d="M 57.6 144.288 
L 414.72 144.288 
" clip-path="url(#p367eef18ad)" style="fill: none; stroke: #b0b0b0; stroke-width: 0.8; stroke-linecap: square"/>
     </g>
     <g id="line2d_26">
      <g>
       <use xlink:href="#m68a5ae35f4" x="57.6" y="144.288" style="stroke: #000000; stroke-width: 0.8"/>
      </g>
     </g>
     <g id="text_14">
      <!-- 5 -->
      <g transform="translate(44.2375 148.087219) scale(0.1 -0.1)">
       <defs>
        <path id="DejaVuSans-35" d="M 691 4666 
L 3169 4666 
L 3169 4134 
L 1269 4134 
L 1269 2991 
Q 1406 3038 1543 3061 
Q 1681 3084 1819 3084 
Q 2600 3084 3056 2656 
Q 3513 2228 3513 1497 
Q 3513 744 3044 326 
Q 2575 -91 1722 -91 
Q 1428 -91 1123 -41 
Q 819 9 494 109 
L 494 744 
Q 775 591 1075 516 
Q 1375 441 1709 441 
Q 2250 441 2565 725 
Q 2881 1009 2881 1497 
Q 2881 1984 2565 2268 
Q 2250 2553 1709 2553 
Q 1456 2553 1204 2497 
Q 953 2441 691 2322 
L 691 4666 
z
" transform="scale(0.015625)"/>
       </defs>
       <use xlink:href="#DejaVuSans-35"/>
      </g>
     </g>
    </g>
    <g id="ytick_7">
     <g id="line2d_27">
      <path d="M 57.6 114.048 
L 414.72 114.048 
" clip-path="url(#p367eef18ad)" style="fill: none; stroke: #b0b0b0; stroke-width: 0.8; stroke-linecap: square"/>
     </g>
     <g id="line2d_28">
      <g>
       <use xlink:href="#m68a5ae35f4" x="57.6" y="114.048" style="stroke: #000000; stroke-width: 0.8"/>
      </g>
     </g>
     <g id="text_15">
      <!-- 6 -->
      <g transform="translate(44.2375 117.847219) scale(0.1 -0.1)">
       <use xlink:href="#DejaVuSans-36"/>
      </g>
     </g>
    </g>
    <g id="ytick_8">
     <g id="line2d_29">
      <path d="M 57.6 83.808 
L 414.72 83.808 
" clip-path="url(#p367eef18ad)" style="fill: none; stroke: #b0b0b0; stroke-width: 0.8; stroke-linecap: square"/>
     </g>
     <g id="line2d_30">
      <g>
       <use xlink:href="#m68a5ae35f4" x="57.6" y="83.808" style="stroke: #000000; stroke-width: 0.8"/>
      </g>
     </g>
     <g id="text_16">
      <!-- 7 -->
      <g transform="translate(44.2375 87.607219) scale(0.1 -0.1)">
       <defs>
        <path id="DejaVuSans-37" d="M 525 4666 
L 3525 4666 
L 3525 4397 
L 1831 0 
L 1172 0 
L 2766 4134 
L 525 4134 
L 525 4666 
z
" transform="scale(0.015625)"/>
       </defs>
       <use xlink:href="#DejaVuSans-37"/>
      </g>
     </g>
    </g>
    <g id="ytick_9">
     <g id="line2d_31">
      <path d="M 57.6 53.568 
L 414.72 53.568 
" clip-path="url(#p367eef18ad)" style="fill: none; stroke: #b0b0b0; stroke-width: 0.8; stroke-linecap: square"/>
     </g>
     <g id="line2d_32">
      <g>
       <use xlink:href="#m68a5ae35f4" x="57.6" y="53.568" style="stroke: #000000; stroke-width: 0.8"/>
      </g>
     </g>
     <g id="text_17">
      <!-- 8 -->
      <g transform="translate(44.2375 57.367219) scale(0.1 -0.1)">
       <use xlink:href="#DejaVuSans-38"/>
      </g>
     </g>
    </g>
    <g id="text_18">
     <!-- Velocity(m/s) -->
     <g transform="translate(38.157812 207.204563) rotate(-90) scale(0.1 -0.1)">
      <defs>
       <path id="DejaVuSans-56" d="M 1831 0 
L 50 4666 
L 709 4666 
L 2188 738 
L 3669 4666 
L 4325 4666 
L 2547 0 
L 1831 0 
z
" transform="scale(0.015625)"/>
       <path id="DejaVuSans-6c" d="M 603 4863 
L 1178 4863 
L 1178 0 
L 603 0 
L 603 4863 
z
" transform="scale(0.015625)"/>
       <path id="DejaVuSans-6f" d="M 1959 3097 
Q 1497 3097 1228 2736 
Q 959 2375 959 1747 
Q 959 1119 1226 758 
Q 1494 397 1959 397 
Q 2419 397 2687 759 
Q 2956 1122 2956 1747 
Q 2956 2369 2687 2733 
Q 2419 3097 1959 3097 
z
M 1959 3584 
Q 2709 3584 3137 3096 
Q 3566 2609 3566 1747 
Q 3566 888 3137 398 
Q 2709 -91 1959 -91 
Q 1206 -91 779 398 
Q 353 888 353 1747 
Q 353 2609 779 3096 
Q 1206 3584 1959 3584 
z
" transform="scale(0.015625)"/>
       <path id="DejaVuSans-63" d="M 3122 3366 
L 3122 2828 
Q 2878 2963 2633 3030 
Q 2388 3097 2138 3097 
Q 1578 3097 1268 2742 
Q 959 2388 959 1747 
Q 959 1106 1268 751 
Q 1578 397 2138 397 
Q 2388 397 2633 464 
Q 2878 531 3122 666 
L 3122 134 
Q 2881 22 2623 -34 
Q 2366 -91 2075 -91 
Q 1284 -91 818 406 
Q 353 903 353 1747 
Q 353 2603 823 3093 
Q 1294 3584 2113 3584 
Q 2378 3584 2631 3529 
Q 2884 3475 3122 3366 
z
" transform="scale(0.015625)"/>
       <path id="DejaVuSans-74" d="M 1172 4494 
L 1172 3500 
L 2356 3500 
L 2356 3053 
L 1172 3053 
L 1172 1153 
Q 1172 725 1289 603 
Q 1406 481 1766 481 
L 2356 481 
L 2356 0 
L 1766 0 
Q 1100 0 847 248 
Q 594 497 594 1153 
L 594 3053 
L 172 3053 
L 172 3500 
L 594 3500 
L 594 4494 
L 1172 4494 
z
" transform="scale(0.015625)"/>
       <path id="DejaVuSans-79" d="M 2059 -325 
Q 1816 -950 1584 -1140 
Q 1353 -1331 966 -1331 
L 506 -1331 
L 506 -850 
L 844 -850 
Q 1081 -850 1212 -737 
Q 1344 -625 1503 -206 
L 1606 56 
L 191 3500 
L 800 3500 
L 1894 763 
L 2988 3500 
L 3597 3500 
L 2059 -325 
z
" transform="scale(0.015625)"/>
       <path id="DejaVuSans-2f" d="M 1625 4666 
L 2156 4666 
L 531 -594 
L 0 -594 
L 1625 4666 
z
" transform="scale(0.015625)"/>
      </defs>
      <use xlink:href="#DejaVuSans-56"/>
      <use xlink:href="#DejaVuSans-65" x="60.658203"/>
      <use xlink:href="#DejaVuSans-6c" x="122.181641"/>
      <use xlink:href="#DejaVuSans-6f" x="149.964844"/>
      <use xlink:href="#DejaVuSans-63" x="211.146484"/>
      <use xlink:href="#DejaVuSans-69" x="266.126953"/>
      <use xlink:href="#DejaVuSans-74" x="293.910156"/>
      <use xlink:href="#DejaVuSans-79" x="333.119141"/>
      <use xlink:href="#DejaVuSans-28" x="392.298828"/>
      <use xlink:href="#DejaVuSans-6d" x="431.3125"/>
      <use xlink:href="#DejaVuSans-2f" x="528.724609"/>
      <use xlink:href="#DejaVuSans-73" x="562.416016"/>
      <use xlink:href="#DejaVuSans-29" x="614.515625"/>
     </g>
    </g>
   </g>
   <g id="line2d_33">
    <path d="M 73.832727 53.568 
L 73.832727 295.488 
L 74.847273 295.488 
L 75.354545 294.055985 
L 76.876364 287.846957 
L 84.485455 257.275194 
L 92.094545 225.762695 
L 99.703636 193.277556 
L 107.312727 159.78984 
L 114.921818 125.268552 
L 122.530909 89.681787 
L 126.081818 73.32609 
L 127.096364 69.827746 
L 128.110909 66.948807 
L 129.125455 64.579624 
L 130.14 62.6299 
L 131.154545 61.025426 
L 132.676364 59.135244 
L 133.690909 58.150267 
L 134.705455 57.692555 
L 135.212727 57.664371 
L 135.72 58.129764 
L 136.227273 59.163247 
L 136.734545 60.574064 
L 137.241818 61.500043 
L 138.256364 64.024992 
L 138.763636 65.760738 
L 139.778182 68.290828 
L 142.314545 75.707974 
L 142.821818 77.479222 
L 143.836364 80.111795 
L 145.358182 84.44307 
L 148.909091 92.499006 
L 149.923636 94.594638 
L 151.952727 97.353675 
L 152.967273 98.254283 
L 154.489091 99.330767 
L 156.010909 99.928732 
L 157.532727 100.177245 
L 160.069091 100.236273 
L 162.098182 100.189371 
L 163.62 99.962178 
L 165.141818 99.437695 
L 166.663636 98.46049 
L 169.2 95.66332 
L 170.721818 93.0954 
L 172.750909 88.252101 
L 173.765455 85.444256 
L 175.794545 78.246622 
L 176.809091 73.918885 
L 177.823636 70.315577 
L 178.838182 67.350273 
L 179.852727 64.909996 
L 180.867273 62.901788 
L 181.881818 61.249172 
L 182.896364 59.889158 
L 184.418182 58.286982 
L 185.94 57.0909 
L 187.461818 56.198003 
L 188.983636 55.531392 
L 191.012727 54.897683 
L 193.549091 54.384903 
L 196.592727 54.023263 
L 200.650909 53.776807 
L 207.245455 53.626847 
L 222.463636 53.571175 
L 229.565455 53.568816 
L 230.072727 53.695401 
L 230.58 54.467942 
L 231.087273 56.598199 
L 231.594545 59.940052 
L 232.609091 65.380379 
L 233.623636 71.875024 
L 234.130909 75.998883 
L 235.145455 81.442234 
L 236.667273 90.487865 
L 237.174545 92.851 
L 237.681818 95.987825 
L 238.696364 100.173555 
L 239.203636 102.964012 
L 240.218182 106.693874 
L 240.725455 109.275221 
L 241.74 112.616408 
L 242.247273 114.909144 
L 242.754545 116.200272 
L 243.261818 117.842334 
L 244.276364 120.223462 
L 244.783636 121.95449 
L 245.290909 122.856156 
L 245.798182 124.162645 
L 246.305455 125.000988 
L 246.812727 126.084095 
L 247.827273 127.706229 
L 248.334545 128.840924 
L 248.841818 129.523501 
L 249.349091 130.42804 
L 252.392727 134.187205 
L 252.9 134.978435 
L 253.407273 135.427408 
L 253.914545 136.144731 
L 256.958182 138.780812 
L 257.465455 139.090228 
L 258.48 139.855844 
L 259.494545 140.44758 
L 260.509091 140.877593 
L 261.523636 141.202704 
L 262.030909 141.345164 
L 263.552727 141.496515 
L 265.074545 141.565009 
L 271.669091 141.388952 
L 273.698182 141.08008 
L 274.205455 141.022382 
L 275.22 140.730687 
L 276.741818 140.251686 
L 277.756364 139.672076 
L 278.770909 139.03752 
L 279.278182 138.721451 
L 281.307273 136.451244 
L 283.336364 132.699518 
L 285.365455 127.121387 
L 287.394545 119.943167 
L 288.409091 117.439658 
L 289.423636 116.060018 
L 290.438182 115.481195 
L 290.945455 115.407651 
L 292.467273 117.003023 
L 292.974545 117.849561 
L 294.496364 119.450618 
L 296.018182 120.487578 
L 297.032727 120.84828 
L 299.061818 121.133202 
L 301.598182 121.230635 
L 307.178182 120.912087 
L 309.207273 120.464868 
L 310.221818 120.11484 
L 311.743636 119.48116 
L 313.772727 118.087913 
L 315.801818 115.91408 
L 316.309091 115.232864 
L 318.845455 110.527187 
L 320.367273 106.649663 
L 321.381818 104.006173 
L 322.903636 99.012914 
L 323.918182 95.598636 
L 324.932727 91.576444 
L 325.44 89.840064 
L 326.454545 87.728676 
L 326.961818 87.187139 
L 327.469091 87.87023 
L 327.976364 88.190109 
L 328.483636 89.879406 
L 328.990909 93.565813 
L 330.005455 98.787626 
L 330.512727 103.120897 
L 331.527273 109.003182 
L 332.034545 113.514899 
L 332.541818 116.124883 
L 333.556364 122.059967 
L 334.063636 124.791395 
L 334.570909 128.902795 
L 335.078182 131.021893 
L 335.585455 134.385852 
L 336.092727 136.281234 
L 336.6 139.248625 
L 337.107273 140.974331 
L 337.614545 143.692907 
L 338.121818 145.429046 
L 338.629091 147.989406 
L 339.136364 149.626388 
L 339.643636 152.047947 
L 340.150909 153.57546 
L 340.658182 155.969137 
L 341.672727 158.401371 
L 342.18 160.099861 
L 343.194545 162.174869 
L 343.701818 163.638697 
L 344.716364 165.436737 
L 345.223636 166.743468 
L 345.730909 167.584896 
L 346.238182 169.21205 
L 347.252727 170.788975 
L 349.789091 175.72378 
L 350.803636 177.425567 
L 351.818182 178.733568 
L 353.34 179.973105 
L 354.354545 180.446784 
L 356.890909 181.259091 
L 358.412727 181.375032 
L 362.978182 181.51852 
L 370.587273 181.278596 
L 372.109091 181.222713 
L 373.123636 181.286035 
L 375.152727 181.209165 
L 377.689091 181.083669 
L 378.703636 180.956691 
L 381.24 180.497799 
L 382.254545 180.269336 
L 383.269091 179.857225 
L 385.805455 177.918962 
L 386.82 176.654265 
L 387.327273 176.041391 
L 388.341818 174.461532 
L 388.849091 173.700482 
L 389.863636 171.762219 
L 390.370909 170.857892 
L 391.385455 168.458469 
L 391.892727 167.386794 
L 392.907273 164.545292 
L 393.414545 294.108512 
L 394.429091 282.605216 
L 394.936364 281.297517 
L 395.950909 277.442401 
L 396.458182 275.393762 
L 396.965455 295.089618 
L 397.472727 291.035402 
L 397.98 295.048915 
L 398.487273 292.67946 
L 398.487273 292.67946 
" clip-path="url(#p367eef18ad)" style="fill: none; stroke: #1f77b4; stroke-width: 1.5; stroke-linecap: square"/>
   </g>
   <g id="line2d_34">
    <path d="M 73.832727 53.568 
L 73.832727 270.190728 
L 74.847273 270.190728 
L 75.354545 268.465959 
L 76.876364 262.09551 
L 84.485455 230.728859 
L 92.094545 198.397037 
L 99.703636 165.067295 
L 107.312727 130.708879 
L 114.921818 95.290037 
L 122.530909 58.778019 
L 123.545455 53.825342 
L 124.052727 53.568 
L 132.169091 53.576044 
L 132.676364 55.37862 
L 133.183636 55.734454 
L 134.198182 59.016371 
L 135.212727 63.261734 
L 135.72 63.264154 
L 136.734545 66.587802 
L 137.241818 69.067452 
L 137.749091 69.345962 
L 138.256364 70.759773 
L 138.763636 72.547773 
L 139.270909 74.806096 
L 139.778182 75.201333 
L 140.792727 78.615762 
L 141.3 80.853643 
L 141.807273 81.169076 
L 142.821818 84.507935 
L 143.329091 86.648322 
L 143.836364 86.517504 
L 144.343636 87.898353 
L 144.850909 89.865677 
L 145.358182 90.143099 
L 145.865455 91.377405 
L 146.372727 92.985749 
L 146.88 93.462543 
L 147.387273 94.315584 
L 148.401818 96.63475 
L 148.909091 96.630879 
L 149.923636 98.407207 
L 150.430909 98.307929 
L 150.938182 98.860565 
L 151.445455 98.981857 
L 152.46 99.725126 
L 152.967273 99.924287 
L 156.010909 100.330713 
L 157.025455 100.205065 
L 157.532727 100.323606 
L 158.547273 100.115948 
L 159.054545 100.254357 
L 159.561818 100.065024 
L 160.069091 100.142196 
L 160.576364 99.907232 
L 161.083636 99.429319 
L 161.590909 99.484023 
L 162.098182 99.007592 
L 162.605455 98.085302 
L 163.112727 98.201363 
L 163.62 97.454707 
L 164.127273 95.834357 
L 164.634545 96.154538 
L 165.141818 94.855488 
L 165.649091 92.542461 
L 166.156364 93.216239 
L 166.663636 91.191429 
L 167.170909 90.697337 
L 167.678182 89.278688 
L 168.185455 86.449857 
L 168.692727 86.177092 
L 169.2 84.191171 
L 169.707273 80.698874 
L 170.214545 80.521517 
L 170.721818 78.307707 
L 171.229091 73.943531 
L 171.736364 73.698526 
L 172.243636 71.210288 
L 172.750909 66.564033 
L 173.258182 65.908037 
L 173.765455 62.913944 
L 174.78 53.653488 
L 175.287273 53.941192 
L 175.794545 53.568 
L 228.043636 53.568 
L 228.550909 53.936595 
L 229.058182 55.939693 
L 230.072727 66.30657 
L 230.58 67.364456 
L 232.101818 78.5841 
L 232.609091 83.855235 
L 233.116364 83.724205 
L 233.623636 86.746179 
L 234.638182 95.287225 
L 235.145455 94.669089 
L 235.652727 97.35301 
L 236.16 101.963763 
L 236.667273 102.050401 
L 237.174545 104.171979 
L 237.681818 108.280083 
L 238.189091 108.394118 
L 238.696364 110.238667 
L 239.203636 114.19294 
L 239.710909 113.774812 
L 240.218182 116.030958 
L 240.725455 119.27698 
L 241.232727 118.660023 
L 241.74 120.970571 
L 242.247273 121.095825 
L 242.754545 122.626151 
L 243.261818 125.252222 
L 243.769091 124.573909 
L 244.276364 126.651639 
L 244.783636 126.598114 
L 245.290909 128.147521 
L 245.798182 128.457844 
L 246.305455 129.23988 
L 246.812727 131.002631 
L 247.32 130.823912 
L 247.827273 132.151267 
L 248.334545 132.188099 
L 248.841818 133.156323 
L 249.349091 133.400693 
L 249.856364 134.316935 
L 250.363636 134.576999 
L 250.870909 135.399254 
L 251.378182 136.485778 
L 251.885455 136.282716 
L 252.392727 137.511307 
L 252.9 137.428328 
L 253.407273 138.298031 
L 253.914545 138.306437 
L 254.421818 138.932042 
L 254.929091 138.971838 
L 255.436364 139.586678 
L 255.943636 139.679636 
L 256.450909 140.40213 
L 256.958182 140.454112 
L 257.465455 140.87587 
L 257.972727 140.905958 
L 258.48 141.24005 
L 258.987273 141.17712 
L 259.494545 141.48702 
L 260.001818 141.422397 
L 260.509091 141.616568 
L 261.016364 141.391462 
L 261.523636 141.649953 
L 262.030909 141.565039 
L 263.045455 141.659388 
L 263.552727 141.409454 
L 265.581818 141.596338 
L 266.089091 141.338632 
L 266.596364 141.403527 
L 267.103636 141.347069 
L 267.610909 141.493733 
L 268.118182 141.489802 
L 268.625455 141.133726 
L 269.132727 141.213288 
L 269.64 140.950683 
L 270.147273 141.215374 
L 270.654545 140.275212 
L 271.161818 140.659775 
L 271.669091 140.662224 
L 272.176364 140.152861 
L 272.683636 140.458588 
L 273.190909 138.950126 
L 273.698182 139.760407 
L 274.205455 139.352197 
L 274.712727 138.443334 
L 275.22 138.78048 
L 275.727273 136.42179 
L 276.234545 137.482821 
L 276.741818 136.891508 
L 277.249091 135.359549 
L 277.756364 135.633161 
L 278.263636 132.564617 
L 278.770909 133.636323 
L 279.278182 129.832917 
L 279.785455 131.112553 
L 280.292727 126.269042 
L 280.8 127.506493 
L 281.307273 122.775778 
L 281.814545 123.408459 
L 282.321818 118.420764 
L 282.829091 118.316225 
L 283.336364 113.381843 
L 283.843636 112.636246 
L 284.350909 107.436689 
L 284.858182 106.403056 
L 285.365455 103.026941 
L 285.872727 103.405365 
L 286.38 105.565892 
L 286.887273 106.019461 
L 287.394545 109.35702 
L 287.901818 109.911259 
L 288.409091 112.273789 
L 288.916364 113.260127 
L 289.423636 114.689118 
L 289.930909 116.943329 
L 290.438182 117.129516 
L 291.452727 119.46223 
L 291.96 119.490686 
L 292.467273 120.035943 
L 293.989091 120.900082 
L 295.003636 121.062622 
L 295.510909 121.158361 
L 296.525455 121.125853 
L 297.032727 121.262931 
L 298.047273 121.252468 
L 298.554545 121.291387 
L 299.061818 121.030325 
L 299.569091 121.224678 
L 300.076364 121.275935 
L 300.583636 120.977919 
L 301.090909 121.199337 
L 301.598182 120.866334 
L 302.612727 121.002565 
L 303.12 120.837303 
L 303.627273 120.921552 
L 304.134545 120.656801 
L 304.641818 120.7461 
L 305.149091 120.3505 
L 305.656364 120.425525 
L 306.163636 119.854594 
L 306.670909 119.945223 
L 307.178182 119.100711 
L 307.685455 119.323338 
L 308.192727 118.041464 
L 308.7 118.893083 
L 309.714545 117.545014 
L 310.221818 117.20551 
L 310.729091 116.010032 
L 311.236364 116.175656 
L 311.743636 114.129073 
L 312.250909 114.640885 
L 312.758182 112.332666 
L 313.265455 112.697603 
L 313.772727 110.660908 
L 314.28 110.142625 
L 314.787273 108.576586 
L 315.294545 104.946425 
L 315.801818 105.933005 
L 316.309091 102.700349 
L 316.816364 102.51023 
L 317.323636 100.310482 
L 317.830909 95.838561 
L 318.338182 97.031861 
L 318.845455 93.091347 
L 319.352727 93.130327 
L 319.86 90.439783 
L 320.367273 84.919229 
L 320.874545 86.326115 
L 321.381818 81.968289 
L 321.889091 81.286982 
L 322.396364 78.31693 
L 322.903636 72.929432 
L 323.410909 72.838894 
L 323.918182 72.873125 
L 324.425455 77.984018 
L 324.932727 77.852988 
L 325.44 81.895592 
L 325.947273 89.171639 
L 326.454545 88.799475 
L 326.961818 93.097698 
L 327.469091 100.58872 
L 327.976364 100.433136 
L 328.483636 104.232217 
L 328.990909 111.376145 
L 329.498182 111.347538 
L 330.005455 114.814584 
L 330.512727 122.110105 
L 331.02 121.097125 
L 331.527273 125.714743 
L 332.034545 127.078053 
L 332.541818 129.995034 
L 333.049091 136.735318 
L 333.556364 135.058933 
L 334.063636 140.794464 
L 334.570909 139.892102 
L 335.078182 144.901812 
L 335.585455 144.261933 
L 336.092727 148.872021 
L 336.6 148.736516 
L 337.107273 152.867148 
L 337.614545 152.745009 
L 338.121818 156.66121 
L 338.629091 156.485516 
L 339.136364 160.529269 
L 339.643636 159.477643 
L 340.150909 160.734175 
L 340.658182 163.335601 
L 341.165455 163.16405 
L 341.672727 164.118515 
L 342.18 166.4274 
L 342.687273 166.194552 
L 343.194545 167.186121 
L 343.701818 169.232855 
L 344.209091 169.187888 
L 344.716364 172.311983 
L 345.223636 171.363324 
L 345.730909 172.382412 
L 346.238182 173.76574 
L 346.745455 174.555488 
L 347.252727 175.793574 
L 349.281818 178.966476 
L 349.789091 179.339275 
L 350.296364 179.970474 
L 350.803636 180.016137 
L 351.310909 180.275989 
L 351.818182 180.771532 
L 353.34 180.944112 
L 353.847273 181.069124 
L 354.354545 181.494812 
L 356.890909 181.392661 
L 358.412727 181.54114 
L 358.92 181.475277 
L 359.427273 181.585139 
L 360.441818 181.329823 
L 361.456364 181.556865 
L 361.963636 181.409868 
L 362.470909 181.140581 
L 362.978182 181.302183 
L 364.5 181.32571 
L 365.007273 181.019107 
L 365.514545 181.323533 
L 366.021818 181.231724 
L 366.529091 181.263779 
L 367.036364 180.878612 
L 367.543636 181.120925 
L 369.065455 181.276268 
L 369.572727 180.753116 
L 370.08 181.210677 
L 370.587273 181.170458 
L 371.094545 181.410836 
L 371.601818 181.271943 
L 372.109091 180.801288 
L 373.123636 181.149169 
L 374.138182 181.169974 
L 374.645455 180.52689 
L 375.152727 180.719942 
L 375.66 181.083972 
L 376.674545 180.846315 
L 377.181818 179.931162 
L 378.196364 180.427189 
L 378.703636 180.26858 
L 379.210909 178.911953 
L 379.718182 179.33873 
L 380.225455 179.379161 
L 380.732727 179.051571 
L 381.24 178.027343 
L 381.747273 177.864137 
L 382.254545 175.743043 
L 382.761818 176.303088 
L 383.269091 175.564809 
L 383.776364 173.792231 
L 384.283636 173.453603 
L 384.790909 170.226239 
L 385.298182 171.274992 
L 385.805455 170.052903 
L 386.312727 166.707845 
L 386.82 167.490971 
L 387.327273 166.264013 
L 387.834545 162.078011 
L 388.341818 163.366204 
L 388.849091 162.021401 
L 389.356364 156.447564 
L 389.863636 158.085363 
L 390.370909 156.915075 
L 390.878182 150.237357 
L 391.385455 152.337434 
L 391.892727 150.429956 
L 392.4 152.407289 
L 392.907273 151.977246 
L 393.414545 268.519817 
L 394.429091 256.717447 
L 394.936364 255.375789 
L 395.950909 251.420427 
L 396.458182 249.318505 
L 396.965455 269.526446 
L 397.472727 265.366843 
L 397.98 269.484715 
L 398.487273 267.05363 
L 398.487273 267.05363 
" clip-path="url(#p367eef18ad)" style="fill: none; stroke: #ff7f0e; stroke-width: 1.5; stroke-linecap: square"/>
   </g>
   <g id="patch_3">
    <path d="M 57.6 307.584 
L 57.6 41.472 
" style="fill: none; stroke: #000000; stroke-width: 0.8; stroke-linejoin: miter; stroke-linecap: square"/>
   </g>
   <g id="patch_4">
    <path d="M 414.72 307.584 
L 414.72 41.472 
" style="fill: none; stroke: #000000; stroke-width: 0.8; stroke-linejoin: miter; stroke-linecap: square"/>
   </g>
   <g id="patch_5">
    <path d="M 57.6 307.584 
L 414.72 307.584 
" style="fill: none; stroke: #000000; stroke-width: 0.8; stroke-linejoin: miter; stroke-linecap: square"/>
   </g>
   <g id="patch_6">
    <path d="M 57.6 41.472 
L 414.72 41.472 
" style="fill: none; stroke: #000000; stroke-width: 0.8; stroke-linejoin: miter; stroke-linecap: square"/>
   </g>
   <g id="text_19">
    <!-- Actual speed vs Expected speed -->
    <g transform="translate(138.808125 35.472) scale(0.12 -0.12)">
     <defs>
      <path id="DejaVuSans-41" d="M 2188 4044 
L 1331 1722 
L 3047 1722 
L 2188 4044 
z
M 1831 4666 
L 2547 4666 
L 4325 0 
L 3669 0 
L 3244 1197 
L 1141 1197 
L 716 0 
L 50 0 
L 1831 4666 
z
" transform="scale(0.015625)"/>
      <path id="DejaVuSans-75" d="M 544 1381 
L 544 3500 
L 1119 3500 
L 1119 1403 
Q 1119 906 1312 657 
Q 1506 409 1894 409 
Q 2359 409 2629 706 
Q 2900 1003 2900 1516 
L 2900 3500 
L 3475 3500 
L 3475 0 
L 2900 0 
L 2900 538 
Q 2691 219 2414 64 
Q 2138 -91 1772 -91 
Q 1169 -91 856 284 
Q 544 659 544 1381 
z
M 1991 3584 
L 1991 3584 
z
" transform="scale(0.015625)"/>
      <path id="DejaVuSans-61" d="M 2194 1759 
Q 1497 1759 1228 1600 
Q 959 1441 959 1056 
Q 959 750 1161 570 
Q 1363 391 1709 391 
Q 2188 391 2477 730 
Q 2766 1069 2766 1631 
L 2766 1759 
L 2194 1759 
z
M 3341 1997 
L 3341 0 
L 2766 0 
L 2766 531 
Q 2569 213 2275 61 
Q 1981 -91 1556 -91 
Q 1019 -91 701 211 
Q 384 513 384 1019 
Q 384 1609 779 1909 
Q 1175 2209 1959 2209 
L 2766 2209 
L 2766 2266 
Q 2766 2663 2505 2880 
Q 2244 3097 1772 3097 
Q 1472 3097 1187 3025 
Q 903 2953 641 2809 
L 641 3341 
Q 956 3463 1253 3523 
Q 1550 3584 1831 3584 
Q 2591 3584 2966 3190 
Q 3341 2797 3341 1997 
z
" transform="scale(0.015625)"/>
      <path id="DejaVuSans-20" transform="scale(0.015625)"/>
      <path id="DejaVuSans-70" d="M 1159 525 
L 1159 -1331 
L 581 -1331 
L 581 3500 
L 1159 3500 
L 1159 2969 
Q 1341 3281 1617 3432 
Q 1894 3584 2278 3584 
Q 2916 3584 3314 3078 
Q 3713 2572 3713 1747 
Q 3713 922 3314 415 
Q 2916 -91 2278 -91 
Q 1894 -91 1617 61 
Q 1341 213 1159 525 
z
M 3116 1747 
Q 3116 2381 2855 2742 
Q 2594 3103 2138 3103 
Q 1681 3103 1420 2742 
Q 1159 2381 1159 1747 
Q 1159 1113 1420 752 
Q 1681 391 2138 391 
Q 2594 391 2855 752 
Q 3116 1113 3116 1747 
z
" transform="scale(0.015625)"/>
      <path id="DejaVuSans-64" d="M 2906 2969 
L 2906 4863 
L 3481 4863 
L 3481 0 
L 2906 0 
L 2906 525 
Q 2725 213 2448 61 
Q 2172 -91 1784 -91 
Q 1150 -91 751 415 
Q 353 922 353 1747 
Q 353 2572 751 3078 
Q 1150 3584 1784 3584 
Q 2172 3584 2448 3432 
Q 2725 3281 2906 2969 
z
M 947 1747 
Q 947 1113 1208 752 
Q 1469 391 1925 391 
Q 2381 391 2643 752 
Q 2906 1113 2906 1747 
Q 2906 2381 2643 2742 
Q 2381 3103 1925 3103 
Q 1469 3103 1208 2742 
Q 947 2381 947 1747 
z
" transform="scale(0.015625)"/>
      <path id="DejaVuSans-76" d="M 191 3500 
L 800 3500 
L 1894 563 
L 2988 3500 
L 3597 3500 
L 2284 0 
L 1503 0 
L 191 3500 
z
" transform="scale(0.015625)"/>
      <path id="DejaVuSans-45" d="M 628 4666 
L 3578 4666 
L 3578 4134 
L 1259 4134 
L 1259 2753 
L 3481 2753 
L 3481 2222 
L 1259 2222 
L 1259 531 
L 3634 531 
L 3634 0 
L 628 0 
L 628 4666 
z
" transform="scale(0.015625)"/>
      <path id="DejaVuSans-78" d="M 3513 3500 
L 2247 1797 
L 3578 0 
L 2900 0 
L 1881 1375 
L 863 0 
L 184 0 
L 1544 1831 
L 300 3500 
L 978 3500 
L 1906 2253 
L 2834 3500 
L 3513 3500 
z
" transform="scale(0.015625)"/>
     </defs>
     <use xlink:href="#DejaVuSans-41"/>
     <use xlink:href="#DejaVuSans-63" x="66.658203"/>
     <use xlink:href="#DejaVuSans-74" x="121.638672"/>
     <use xlink:href="#DejaVuSans-75" x="160.847656"/>
     <use xlink:href="#DejaVuSans-61" x="224.226562"/>
     <use xlink:href="#DejaVuSans-6c" x="285.505859"/>
     <use xlink:href="#DejaVuSans-20" x="313.289062"/>
     <use xlink:href="#DejaVuSans-73" x="345.076172"/>
     <use xlink:href="#DejaVuSans-70" x="397.175781"/>
     <use xlink:href="#DejaVuSans-65" x="460.652344"/>
     <use xlink:href="#DejaVuSans-65" x="522.175781"/>
     <use xlink:href="#DejaVuSans-64" x="583.699219"/>
     <use xlink:href="#DejaVuSans-20" x="647.175781"/>
     <use xlink:href="#DejaVuSans-76" x="678.962891"/>
     <use xlink:href="#DejaVuSans-73" x="738.142578"/>
     <use xlink:href="#DejaVuSans-20" x="790.242188"/>
     <use xlink:href="#DejaVuSans-45" x="822.029297"/>
     <use xlink:href="#DejaVuSans-78" x="885.212891"/>
     <use xlink:href="#DejaVuSans-70" x="944.392578"/>
     <use xlink:href="#DejaVuSans-65" x="1007.869141"/>
     <use xlink:href="#DejaVuSans-63" x="1069.392578"/>
     <use xlink:href="#DejaVuSans-74" x="1124.373047"/>
     <use xlink:href="#DejaVuSans-65" x="1163.582031"/>
     <use xlink:href="#DejaVuSans-64" x="1225.105469"/>
     <use xlink:href="#DejaVuSans-20" x="1288.582031"/>
     <use xlink:href="#DejaVuSans-73" x="1320.369141"/>
     <use xlink:href="#DejaVuSans-70" x="1372.46875"/>
     <use xlink:href="#DejaVuSans-65" x="1435.945312"/>
     <use xlink:href="#DejaVuSans-65" x="1497.46875"/>
     <use xlink:href="#DejaVuSans-64" x="1558.992188"/>
    </g>
   </g>
   <g id="legend_1">
    <g id="patch_7">
     <path d="M 180.135 302.584 
L 292.185 302.584 
Q 294.185 302.584 294.185 300.584 
L 294.185 272.22775 
Q 294.185 270.22775 292.185 270.22775 
L 180.135 270.22775 
Q 178.135 270.22775 178.135 272.22775 
L 178.135 300.584 
Q 178.135 302.584 180.135 302.584 
z
" style="fill: #ffffff; opacity: 0.8; stroke: #cccccc; stroke-linejoin: miter"/>
    </g>
    <g id="line2d_35">
     <path d="M 182.135 278.326187 
L 192.135 278.326187 
L 202.135 278.326187 
" style="fill: none; stroke: #1f77b4; stroke-width: 1.5; stroke-linecap: square"/>
    </g>
    <g id="text_20">
     <!-- Actual speed -->
     <g transform="translate(210.135 281.826187) scale(0.1 -0.1)">
      <use xlink:href="#DejaVuSans-41"/>
      <use xlink:href="#DejaVuSans-63" x="66.658203"/>
      <use xlink:href="#DejaVuSans-74" x="121.638672"/>
      <use xlink:href="#DejaVuSans-75" x="160.847656"/>
      <use xlink:href="#DejaVuSans-61" x="224.226562"/>
      <use xlink:href="#DejaVuSans-6c" x="285.505859"/>
      <use xlink:href="#DejaVuSans-20" x="313.289062"/>
      <use xlink:href="#DejaVuSans-73" x="345.076172"/>
      <use xlink:href="#DejaVuSans-70" x="397.175781"/>
      <use xlink:href="#DejaVuSans-65" x="460.652344"/>
      <use xlink:href="#DejaVuSans-65" x="522.175781"/>
      <use xlink:href="#DejaVuSans-64" x="583.699219"/>
     </g>
    </g>
    <g id="line2d_36">
     <path d="M 182.135 293.004312 
L 192.135 293.004312 
L 202.135 293.004312 
" style="fill: none; stroke: #ff7f0e; stroke-width: 1.5; stroke-linecap: square"/>
    </g>
    <g id="text_21">
     <!-- Expected speed -->
     <g transform="translate(210.135 296.504312) scale(0.1 -0.1)">
      <use xlink:href="#DejaVuSans-45"/>
      <use xlink:href="#DejaVuSans-78" x="63.183594"/>
      <use xlink:href="#DejaVuSans-70" x="122.363281"/>
      <use xlink:href="#DejaVuSans-65" x="185.839844"/>
      <use xlink:href="#DejaVuSans-63" x="247.363281"/>
      <use xlink:href="#DejaVuSans-74" x="302.34375"/>
      <use xlink:href="#DejaVuSans-65" x="341.552734"/>
      <use xlink:href="#DejaVuSans-64" x="403.076172"/>
      <use xlink:href="#DejaVuSans-20" x="466.552734"/>
      <use xlink:href="#DejaVuSans-73" x="498.339844"/>
      <use xlink:href="#DejaVuSans-70" x="550.439453"/>
      <use xlink:href="#DejaVuSans-65" x="613.916016"/>
      <use xlink:href="#DejaVuSans-65" x="675.439453"/>
      <use xlink:href="#DejaVuSans-64" x="736.962891"/>
     </g>
    </g>
   </g>
  </g>
 </g>
 <defs>
  <clipPath id="p367eef18ad">
   <rect x="57.6" y="41.472" width="357.12" height="266.112"/>
  </clipPath>
 </defs>
</svg>
