<?xml version="1.0" encoding="utf-8" standalone="no"?>
<!DOCTYPE svg PUBLIC "-//W3C//DTD SVG 1.1//EN"
  "http://www.w3.org/Graphics/SVG/1.1/DTD/svg11.dtd">
<svg xmlns:xlink="http://www.w3.org/1999/xlink" width="460.8pt" height="345.6pt" viewBox="0 0 460.8 345.6" xmlns="http://www.w3.org/2000/svg" version="1.1">
 <metadata>
  <rdf:RDF xmlns:dc="http://purl.org/dc/elements/1.1/" xmlns:cc="http://creativecommons.org/ns#" xmlns:rdf="http://www.w3.org/1999/02/22-rdf-syntax-ns#">
   <cc:Work>
    <dc:type rdf:resource="http://purl.org/dc/dcmitype/StillImage"/>
    <dc:date>2024-01-30T20:59:06.513438</dc:date>
    <dc:format>image/svg+xml</dc:format>
    <dc:creator>
     <cc:Agent>
      <dc:title>Matplotlib v3.7.1, https://matplotlib.org/</dc:title>
     </cc:Agent>
    </dc:creator>
   </cc:Work>
  </rdf:RDF>
 </metadata>
 <defs>
  <style type="text/css">*{stroke-linejoin: round; stroke-linecap: butt}</style>
 </defs>
 <g id="figure_1">
  <g id="patch_1">
   <path d="M 0 345.6 
L 460.8 345.6 
L 460.8 0 
L 0 0 
z
" style="fill: #ffffff"/>
  </g>
  <g id="axes_1">
   <g id="patch_2">
    <path d="M 57.6 307.584 
L 414.72 307.584 
L 414.72 41.472 
L 57.6 41.472 
z
" style="fill: #ffffff"/>
   </g>
   <g id="matplotlib.axis_1">
    <g id="xtick_1">
     <g id="line2d_1">
      <path d="M 73.832727 307.584 
L 73.832727 41.472 
" clip-path="url(#paecb5e947d)" style="fill: none; stroke: #b0b0b0; stroke-width: 0.8; stroke-linecap: square"/>
     </g>
     <g id="line2d_2">
      <defs>
       <path id="mb8f7ae6115" d="M 0 0 
L 0 3.5 
" style="stroke: #000000; stroke-width: 0.8"/>
      </defs>
      <g>
       <use xlink:href="#mb8f7ae6115" x="73.832727" y="307.584" style="stroke: #000000; stroke-width: 0.8"/>
      </g>
     </g>
     <g id="text_1">
      <!-- 0 -->
      <g transform="translate(70.651477 322.182437) scale(0.1 -0.1)">
       <defs>
        <path id="DejaVuSans-30" d="M 2034 4250 
Q 1547 4250 1301 3770 
Q 1056 3291 1056 2328 
Q 1056 1369 1301 889 
Q 1547 409 2034 409 
Q 2525 409 2770 889 
Q 3016 1369 3016 2328 
Q 3016 3291 2770 3770 
Q 2525 4250 2034 4250 
z
M 2034 4750 
Q 2819 4750 3233 4129 
Q 3647 3509 3647 2328 
Q 3647 1150 3233 529 
Q 2819 -91 2034 -91 
Q 1250 -91 836 529 
Q 422 1150 422 2328 
Q 422 3509 836 4129 
Q 1250 4750 2034 4750 
z
" transform="scale(0.015625)"/>
       </defs>
       <use xlink:href="#DejaVuSans-30"/>
      </g>
     </g>
    </g>
    <g id="xtick_2">
     <g id="line2d_3">
      <path d="M 142.61547 307.584 
L 142.61547 41.472 
" clip-path="url(#paecb5e947d)" style="fill: none; stroke: #b0b0b0; stroke-width: 0.8; stroke-linecap: square"/>
     </g>
     <g id="line2d_4">
      <g>
       <use xlink:href="#mb8f7ae6115" x="142.61547" y="307.584" style="stroke: #000000; stroke-width: 0.8"/>
      </g>
     </g>
     <g id="text_2">
      <!-- 1 -->
      <g transform="translate(139.43422 322.182437) scale(0.1 -0.1)">
       <defs>
        <path id="DejaVuSans-31" d="M 794 531 
L 1825 531 
L 1825 4091 
L 703 3866 
L 703 4441 
L 1819 4666 
L 2450 4666 
L 2450 531 
L 3481 531 
L 3481 0 
L 794 0 
L 794 531 
z
" transform="scale(0.015625)"/>
       </defs>
       <use xlink:href="#DejaVuSans-31"/>
      </g>
     </g>
    </g>
    <g id="xtick_3">
     <g id="line2d_5">
      <path d="M 211.398213 307.584 
L 211.398213 41.472 
" clip-path="url(#paecb5e947d)" style="fill: none; stroke: #b0b0b0; stroke-width: 0.8; stroke-linecap: square"/>
     </g>
     <g id="line2d_6">
      <g>
       <use xlink:href="#mb8f7ae6115" x="211.398213" y="307.584" style="stroke: #000000; stroke-width: 0.8"/>
      </g>
     </g>
     <g id="text_3">
      <!-- 2 -->
      <g transform="translate(208.216963 322.182437) scale(0.1 -0.1)">
       <defs>
        <path id="DejaVuSans-32" d="M 1228 531 
L 3431 531 
L 3431 0 
L 469 0 
L 469 531 
Q 828 903 1448 1529 
Q 2069 2156 2228 2338 
Q 2531 2678 2651 2914 
Q 2772 3150 2772 3378 
Q 2772 3750 2511 3984 
Q 2250 4219 1831 4219 
Q 1534 4219 1204 4116 
Q 875 4013 500 3803 
L 500 4441 
Q 881 4594 1212 4672 
Q 1544 4750 1819 4750 
Q 2544 4750 2975 4387 
Q 3406 4025 3406 3419 
Q 3406 3131 3298 2873 
Q 3191 2616 2906 2266 
Q 2828 2175 2409 1742 
Q 1991 1309 1228 531 
z
" transform="scale(0.015625)"/>
       </defs>
       <use xlink:href="#DejaVuSans-32"/>
      </g>
     </g>
    </g>
    <g id="xtick_4">
     <g id="line2d_7">
      <path d="M 280.180955 307.584 
L 280.180955 41.472 
" clip-path="url(#paecb5e947d)" style="fill: none; stroke: #b0b0b0; stroke-width: 0.8; stroke-linecap: square"/>
     </g>
     <g id="line2d_8">
      <g>
       <use xlink:href="#mb8f7ae6115" x="280.180955" y="307.584" style="stroke: #000000; stroke-width: 0.8"/>
      </g>
     </g>
     <g id="text_4">
      <!-- 3 -->
      <g transform="translate(276.999705 322.182437) scale(0.1 -0.1)">
       <defs>
        <path id="DejaVuSans-33" d="M 2597 2516 
Q 3050 2419 3304 2112 
Q 3559 1806 3559 1356 
Q 3559 666 3084 287 
Q 2609 -91 1734 -91 
Q 1441 -91 1130 -33 
Q 819 25 488 141 
L 488 750 
Q 750 597 1062 519 
Q 1375 441 1716 441 
Q 2309 441 2620 675 
Q 2931 909 2931 1356 
Q 2931 1769 2642 2001 
Q 2353 2234 1838 2234 
L 1294 2234 
L 1294 2753 
L 1863 2753 
Q 2328 2753 2575 2939 
Q 2822 3125 2822 3475 
Q 2822 3834 2567 4026 
Q 2313 4219 1838 4219 
Q 1578 4219 1281 4162 
Q 984 4106 628 3988 
L 628 4550 
Q 988 4650 1302 4700 
Q 1616 4750 1894 4750 
Q 2613 4750 3031 4423 
Q 3450 4097 3450 3541 
Q 3450 3153 3228 2886 
Q 3006 2619 2597 2516 
z
" transform="scale(0.015625)"/>
       </defs>
       <use xlink:href="#DejaVuSans-33"/>
      </g>
     </g>
    </g>
    <g id="xtick_5">
     <g id="line2d_9">
      <path d="M 348.963698 307.584 
L 348.963698 41.472 
" clip-path="url(#paecb5e947d)" style="fill: none; stroke: #b0b0b0; stroke-width: 0.8; stroke-linecap: square"/>
     </g>
     <g id="line2d_10">
      <g>
       <use xlink:href="#mb8f7ae6115" x="348.963698" y="307.584" style="stroke: #000000; stroke-width: 0.8"/>
      </g>
     </g>
     <g id="text_5">
      <!-- 4 -->
      <g transform="translate(345.782448 322.182437) scale(0.1 -0.1)">
       <defs>
        <path id="DejaVuSans-34" d="M 2419 4116 
L 825 1625 
L 2419 1625 
L 2419 4116 
z
M 2253 4666 
L 3047 4666 
L 3047 1625 
L 3713 1625 
L 3713 1100 
L 3047 1100 
L 3047 0 
L 2419 0 
L 2419 1100 
L 313 1100 
L 313 1709 
L 2253 4666 
z
" transform="scale(0.015625)"/>
       </defs>
       <use xlink:href="#DejaVuSans-34"/>
      </g>
     </g>
    </g>
    <g id="text_6">
     <!-- Time(s) -->
     <g transform="translate(217.420156 335.860562) scale(0.1 -0.1)">
      <defs>
       <path id="DejaVuSans-54" d="M -19 4666 
L 3928 4666 
L 3928 4134 
L 2272 4134 
L 2272 0 
L 1638 0 
L 1638 4134 
L -19 4134 
L -19 4666 
z
" transform="scale(0.015625)"/>
       <path id="DejaVuSans-69" d="M 603 3500 
L 1178 3500 
L 1178 0 
L 603 0 
L 603 3500 
z
M 603 4863 
L 1178 4863 
L 1178 4134 
L 603 4134 
L 603 4863 
z
" transform="scale(0.015625)"/>
       <path id="DejaVuSans-6d" d="M 3328 2828 
Q 3544 3216 3844 3400 
Q 4144 3584 4550 3584 
Q 5097 3584 5394 3201 
Q 5691 2819 5691 2113 
L 5691 0 
L 5113 0 
L 5113 2094 
Q 5113 2597 4934 2840 
Q 4756 3084 4391 3084 
Q 3944 3084 3684 2787 
Q 3425 2491 3425 1978 
L 3425 0 
L 2847 0 
L 2847 2094 
Q 2847 2600 2669 2842 
Q 2491 3084 2119 3084 
Q 1678 3084 1418 2786 
Q 1159 2488 1159 1978 
L 1159 0 
L 581 0 
L 581 3500 
L 1159 3500 
L 1159 2956 
Q 1356 3278 1631 3431 
Q 1906 3584 2284 3584 
Q 2666 3584 2933 3390 
Q 3200 3197 3328 2828 
z
" transform="scale(0.015625)"/>
       <path id="DejaVuSans-65" d="M 3597 1894 
L 3597 1613 
L 953 1613 
Q 991 1019 1311 708 
Q 1631 397 2203 397 
Q 2534 397 2845 478 
Q 3156 559 3463 722 
L 3463 178 
Q 3153 47 2828 -22 
Q 2503 -91 2169 -91 
Q 1331 -91 842 396 
Q 353 884 353 1716 
Q 353 2575 817 3079 
Q 1281 3584 2069 3584 
Q 2775 3584 3186 3129 
Q 3597 2675 3597 1894 
z
M 3022 2063 
Q 3016 2534 2758 2815 
Q 2500 3097 2075 3097 
Q 1594 3097 1305 2825 
Q 1016 2553 972 2059 
L 3022 2063 
z
" transform="scale(0.015625)"/>
       <path id="DejaVuSans-28" d="M 1984 4856 
Q 1566 4138 1362 3434 
Q 1159 2731 1159 2009 
Q 1159 1288 1364 580 
Q 1569 -128 1984 -844 
L 1484 -844 
Q 1016 -109 783 600 
Q 550 1309 550 2009 
Q 550 2706 781 3412 
Q 1013 4119 1484 4856 
L 1984 4856 
z
" transform="scale(0.015625)"/>
       <path id="DejaVuSans-73" d="M 2834 3397 
L 2834 2853 
Q 2591 2978 2328 3040 
Q 2066 3103 1784 3103 
Q 1356 3103 1142 2972 
Q 928 2841 928 2578 
Q 928 2378 1081 2264 
Q 1234 2150 1697 2047 
L 1894 2003 
Q 2506 1872 2764 1633 
Q 3022 1394 3022 966 
Q 3022 478 2636 193 
Q 2250 -91 1575 -91 
Q 1294 -91 989 -36 
Q 684 19 347 128 
L 347 722 
Q 666 556 975 473 
Q 1284 391 1588 391 
Q 1994 391 2212 530 
Q 2431 669 2431 922 
Q 2431 1156 2273 1281 
Q 2116 1406 1581 1522 
L 1381 1569 
Q 847 1681 609 1914 
Q 372 2147 372 2553 
Q 372 3047 722 3315 
Q 1072 3584 1716 3584 
Q 2034 3584 2315 3537 
Q 2597 3491 2834 3397 
z
" transform="scale(0.015625)"/>
       <path id="DejaVuSans-29" d="M 513 4856 
L 1013 4856 
Q 1481 4119 1714 3412 
Q 1947 2706 1947 2009 
Q 1947 1309 1714 600 
Q 1481 -109 1013 -844 
L 513 -844 
Q 928 -128 1133 580 
Q 1338 1288 1338 2009 
Q 1338 2731 1133 3434 
Q 928 4138 513 4856 
z
" transform="scale(0.015625)"/>
      </defs>
      <use xlink:href="#DejaVuSans-54"/>
      <use xlink:href="#DejaVuSans-69" x="57.958984"/>
      <use xlink:href="#DejaVuSans-6d" x="85.742188"/>
      <use xlink:href="#DejaVuSans-65" x="183.154297"/>
      <use xlink:href="#DejaVuSans-28" x="244.677734"/>
      <use xlink:href="#DejaVuSans-73" x="283.691406"/>
      <use xlink:href="#DejaVuSans-29" x="335.791016"/>
     </g>
    </g>
   </g>
   <g id="matplotlib.axis_2">
    <g id="ytick_1">
     <g id="line2d_11">
      <path d="M 57.6 295.488 
L 414.72 295.488 
" clip-path="url(#paecb5e947d)" style="fill: none; stroke: #b0b0b0; stroke-width: 0.8; stroke-linecap: square"/>
     </g>
     <g id="line2d_12">
      <defs>
       <path id="m5aba343758" d="M 0 0 
L -3.5 0 
" style="stroke: #000000; stroke-width: 0.8"/>
      </defs>
      <g>
       <use xlink:href="#m5aba343758" x="57.6" y="295.488" style="stroke: #000000; stroke-width: 0.8"/>
      </g>
     </g>
     <g id="text_7">
      <!-- 0 -->
      <g transform="translate(44.2375 299.287219) scale(0.1 -0.1)">
       <use xlink:href="#DejaVuSans-30"/>
      </g>
     </g>
    </g>
    <g id="ytick_2">
     <g id="line2d_13">
      <path d="M 57.6 265.248 
L 414.72 265.248 
" clip-path="url(#paecb5e947d)" style="fill: none; stroke: #b0b0b0; stroke-width: 0.8; stroke-linecap: square"/>
     </g>
     <g id="line2d_14">
      <g>
       <use xlink:href="#m5aba343758" x="57.6" y="265.248" style="stroke: #000000; stroke-width: 0.8"/>
      </g>
     </g>
     <g id="text_8">
      <!-- 1 -->
      <g transform="translate(44.2375 269.047219) scale(0.1 -0.1)">
       <use xlink:href="#DejaVuSans-31"/>
      </g>
     </g>
    </g>
    <g id="ytick_3">
     <g id="line2d_15">
      <path d="M 57.6 235.008 
L 414.72 235.008 
" clip-path="url(#paecb5e947d)" style="fill: none; stroke: #b0b0b0; stroke-width: 0.8; stroke-linecap: square"/>
     </g>
     <g id="line2d_16">
      <g>
       <use xlink:href="#m5aba343758" x="57.6" y="235.008" style="stroke: #000000; stroke-width: 0.8"/>
      </g>
     </g>
     <g id="text_9">
      <!-- 2 -->
      <g transform="translate(44.2375 238.807219) scale(0.1 -0.1)">
       <use xlink:href="#DejaVuSans-32"/>
      </g>
     </g>
    </g>
    <g id="ytick_4">
     <g id="line2d_17">
      <path d="M 57.6 204.768 
L 414.72 204.768 
" clip-path="url(#paecb5e947d)" style="fill: none; stroke: #b0b0b0; stroke-width: 0.8; stroke-linecap: square"/>
     </g>
     <g id="line2d_18">
      <g>
       <use xlink:href="#m5aba343758" x="57.6" y="204.768" style="stroke: #000000; stroke-width: 0.8"/>
      </g>
     </g>
     <g id="text_10">
      <!-- 3 -->
      <g transform="translate(44.2375 208.567219) scale(0.1 -0.1)">
       <use xlink:href="#DejaVuSans-33"/>
      </g>
     </g>
    </g>
    <g id="ytick_5">
     <g id="line2d_19">
      <path d="M 57.6 174.528 
L 414.72 174.528 
" clip-path="url(#paecb5e947d)" style="fill: none; stroke: #b0b0b0; stroke-width: 0.8; stroke-linecap: square"/>
     </g>
     <g id="line2d_20">
      <g>
       <use xlink:href="#m5aba343758" x="57.6" y="174.528" style="stroke: #000000; stroke-width: 0.8"/>
      </g>
     </g>
     <g id="text_11">
      <!-- 4 -->
      <g transform="translate(44.2375 178.327219) scale(0.1 -0.1)">
       <use xlink:href="#DejaVuSans-34"/>
      </g>
     </g>
    </g>
    <g id="ytick_6">
     <g id="line2d_21">
      <path d="M 57.6 144.288 
L 414.72 144.288 
" clip-path="url(#paecb5e947d)" style="fill: none; stroke: #b0b0b0; stroke-width: 0.8; stroke-linecap: square"/>
     </g>
     <g id="line2d_22">
      <g>
       <use xlink:href="#m5aba343758" x="57.6" y="144.288" style="stroke: #000000; stroke-width: 0.8"/>
      </g>
     </g>
     <g id="text_12">
      <!-- 5 -->
      <g transform="translate(44.2375 148.087219) scale(0.1 -0.1)">
       <defs>
        <path id="DejaVuSans-35" d="M 691 4666 
L 3169 4666 
L 3169 4134 
L 1269 4134 
L 1269 2991 
Q 1406 3038 1543 3061 
Q 1681 3084 1819 3084 
Q 2600 3084 3056 2656 
Q 3513 2228 3513 1497 
Q 3513 744 3044 326 
Q 2575 -91 1722 -91 
Q 1428 -91 1123 -41 
Q 819 9 494 109 
L 494 744 
Q 775 591 1075 516 
Q 1375 441 1709 441 
Q 2250 441 2565 725 
Q 2881 1009 2881 1497 
Q 2881 1984 2565 2268 
Q 2250 2553 1709 2553 
Q 1456 2553 1204 2497 
Q 953 2441 691 2322 
L 691 4666 
z
" transform="scale(0.015625)"/>
       </defs>
       <use xlink:href="#DejaVuSans-35"/>
      </g>
     </g>
    </g>
    <g id="ytick_7">
     <g id="line2d_23">
      <path d="M 57.6 114.048 
L 414.72 114.048 
" clip-path="url(#paecb5e947d)" style="fill: none; stroke: #b0b0b0; stroke-width: 0.8; stroke-linecap: square"/>
     </g>
     <g id="line2d_24">
      <g>
       <use xlink:href="#m5aba343758" x="57.6" y="114.048" style="stroke: #000000; stroke-width: 0.8"/>
      </g>
     </g>
     <g id="text_13">
      <!-- 6 -->
      <g transform="translate(44.2375 117.847219) scale(0.1 -0.1)">
       <defs>
        <path id="DejaVuSans-36" d="M 2113 2584 
Q 1688 2584 1439 2293 
Q 1191 2003 1191 1497 
Q 1191 994 1439 701 
Q 1688 409 2113 409 
Q 2538 409 2786 701 
Q 3034 994 3034 1497 
Q 3034 2003 2786 2293 
Q 2538 2584 2113 2584 
z
M 3366 4563 
L 3366 3988 
Q 3128 4100 2886 4159 
Q 2644 4219 2406 4219 
Q 1781 4219 1451 3797 
Q 1122 3375 1075 2522 
Q 1259 2794 1537 2939 
Q 1816 3084 2150 3084 
Q 2853 3084 3261 2657 
Q 3669 2231 3669 1497 
Q 3669 778 3244 343 
Q 2819 -91 2113 -91 
Q 1303 -91 875 529 
Q 447 1150 447 2328 
Q 447 3434 972 4092 
Q 1497 4750 2381 4750 
Q 2619 4750 2861 4703 
Q 3103 4656 3366 4563 
z
" transform="scale(0.015625)"/>
       </defs>
       <use xlink:href="#DejaVuSans-36"/>
      </g>
     </g>
    </g>
    <g id="ytick_8">
     <g id="line2d_25">
      <path d="M 57.6 83.808 
L 414.72 83.808 
" clip-path="url(#paecb5e947d)" style="fill: none; stroke: #b0b0b0; stroke-width: 0.8; stroke-linecap: square"/>
     </g>
     <g id="line2d_26">
      <g>
       <use xlink:href="#m5aba343758" x="57.6" y="83.808" style="stroke: #000000; stroke-width: 0.8"/>
      </g>
     </g>
     <g id="text_14">
      <!-- 7 -->
      <g transform="translate(44.2375 87.607219) scale(0.1 -0.1)">
       <defs>
        <path id="DejaVuSans-37" d="M 525 4666 
L 3525 4666 
L 3525 4397 
L 1831 0 
L 1172 0 
L 2766 4134 
L 525 4134 
L 525 4666 
z
" transform="scale(0.015625)"/>
       </defs>
       <use xlink:href="#DejaVuSans-37"/>
      </g>
     </g>
    </g>
    <g id="ytick_9">
     <g id="line2d_27">
      <path d="M 57.6 53.568 
L 414.72 53.568 
" clip-path="url(#paecb5e947d)" style="fill: none; stroke: #b0b0b0; stroke-width: 0.8; stroke-linecap: square"/>
     </g>
     <g id="line2d_28">
      <g>
       <use xlink:href="#m5aba343758" x="57.6" y="53.568" style="stroke: #000000; stroke-width: 0.8"/>
      </g>
     </g>
     <g id="text_15">
      <!-- 8 -->
      <g transform="translate(44.2375 57.367219) scale(0.1 -0.1)">
       <defs>
        <path id="DejaVuSans-38" d="M 2034 2216 
Q 1584 2216 1326 1975 
Q 1069 1734 1069 1313 
Q 1069 891 1326 650 
Q 1584 409 2034 409 
Q 2484 409 2743 651 
Q 3003 894 3003 1313 
Q 3003 1734 2745 1975 
Q 2488 2216 2034 2216 
z
M 1403 2484 
Q 997 2584 770 2862 
Q 544 3141 544 3541 
Q 544 4100 942 4425 
Q 1341 4750 2034 4750 
Q 2731 4750 3128 4425 
Q 3525 4100 3525 3541 
Q 3525 3141 3298 2862 
Q 3072 2584 2669 2484 
Q 3125 2378 3379 2068 
Q 3634 1759 3634 1313 
Q 3634 634 3220 271 
Q 2806 -91 2034 -91 
Q 1263 -91 848 271 
Q 434 634 434 1313 
Q 434 1759 690 2068 
Q 947 2378 1403 2484 
z
M 1172 3481 
Q 1172 3119 1398 2916 
Q 1625 2713 2034 2713 
Q 2441 2713 2670 2916 
Q 2900 3119 2900 3481 
Q 2900 3844 2670 4047 
Q 2441 4250 2034 4250 
Q 1625 4250 1398 4047 
Q 1172 3844 1172 3481 
z
" transform="scale(0.015625)"/>
       </defs>
       <use xlink:href="#DejaVuSans-38"/>
      </g>
     </g>
    </g>
    <g id="text_16">
     <!-- Velocity(m/s) -->
     <g transform="translate(38.157812 207.204563) rotate(-90) scale(0.1 -0.1)">
      <defs>
       <path id="DejaVuSans-56" d="M 1831 0 
L 50 4666 
L 709 4666 
L 2188 738 
L 3669 4666 
L 4325 4666 
L 2547 0 
L 1831 0 
z
" transform="scale(0.015625)"/>
       <path id="DejaVuSans-6c" d="M 603 4863 
L 1178 4863 
L 1178 0 
L 603 0 
L 603 4863 
z
" transform="scale(0.015625)"/>
       <path id="DejaVuSans-6f" d="M 1959 3097 
Q 1497 3097 1228 2736 
Q 959 2375 959 1747 
Q 959 1119 1226 758 
Q 1494 397 1959 397 
Q 2419 397 2687 759 
Q 2956 1122 2956 1747 
Q 2956 2369 2687 2733 
Q 2419 3097 1959 3097 
z
M 1959 3584 
Q 2709 3584 3137 3096 
Q 3566 2609 3566 1747 
Q 3566 888 3137 398 
Q 2709 -91 1959 -91 
Q 1206 -91 779 398 
Q 353 888 353 1747 
Q 353 2609 779 3096 
Q 1206 3584 1959 3584 
z
" transform="scale(0.015625)"/>
       <path id="DejaVuSans-63" d="M 3122 3366 
L 3122 2828 
Q 2878 2963 2633 3030 
Q 2388 3097 2138 3097 
Q 1578 3097 1268 2742 
Q 959 2388 959 1747 
Q 959 1106 1268 751 
Q 1578 397 2138 397 
Q 2388 397 2633 464 
Q 2878 531 3122 666 
L 3122 134 
Q 2881 22 2623 -34 
Q 2366 -91 2075 -91 
Q 1284 -91 818 406 
Q 353 903 353 1747 
Q 353 2603 823 3093 
Q 1294 3584 2113 3584 
Q 2378 3584 2631 3529 
Q 2884 3475 3122 3366 
z
" transform="scale(0.015625)"/>
       <path id="DejaVuSans-74" d="M 1172 4494 
L 1172 3500 
L 2356 3500 
L 2356 3053 
L 1172 3053 
L 1172 1153 
Q 1172 725 1289 603 
Q 1406 481 1766 481 
L 2356 481 
L 2356 0 
L 1766 0 
Q 1100 0 847 248 
Q 594 497 594 1153 
L 594 3053 
L 172 3053 
L 172 3500 
L 594 3500 
L 594 4494 
L 1172 4494 
z
" transform="scale(0.015625)"/>
       <path id="DejaVuSans-79" d="M 2059 -325 
Q 1816 -950 1584 -1140 
Q 1353 -1331 966 -1331 
L 506 -1331 
L 506 -850 
L 844 -850 
Q 1081 -850 1212 -737 
Q 1344 -625 1503 -206 
L 1606 56 
L 191 3500 
L 800 3500 
L 1894 763 
L 2988 3500 
L 3597 3500 
L 2059 -325 
z
" transform="scale(0.015625)"/>
       <path id="DejaVuSans-2f" d="M 1625 4666 
L 2156 4666 
L 531 -594 
L 0 -594 
L 1625 4666 
z
" transform="scale(0.015625)"/>
      </defs>
      <use xlink:href="#DejaVuSans-56"/>
      <use xlink:href="#DejaVuSans-65" x="60.658203"/>
      <use xlink:href="#DejaVuSans-6c" x="122.181641"/>
      <use xlink:href="#DejaVuSans-6f" x="149.964844"/>
      <use xlink:href="#DejaVuSans-63" x="211.146484"/>
      <use xlink:href="#DejaVuSans-69" x="266.126953"/>
      <use xlink:href="#DejaVuSans-74" x="293.910156"/>
      <use xlink:href="#DejaVuSans-79" x="333.119141"/>
      <use xlink:href="#DejaVuSans-28" x="392.298828"/>
      <use xlink:href="#DejaVuSans-6d" x="431.3125"/>
      <use xlink:href="#DejaVuSans-2f" x="528.724609"/>
      <use xlink:href="#DejaVuSans-73" x="562.416016"/>
      <use xlink:href="#DejaVuSans-29" x="614.515625"/>
     </g>
    </g>
   </g>
   <g id="line2d_29">
    <path d="M 73.832727 53.568 
L 73.832727 295.488 
L 73.832727 295.488 
L 75.208382 293.94582 
L 75.208382 293.94582 
L 83.462311 278.327314 
L 83.462311 278.327314 
L 90.340586 264.874264 
L 90.340586 264.874264 
L 97.21886 251.010343 
L 97.21886 251.010343 
L 104.097134 236.723031 
L 104.097134 236.723031 
L 110.975408 221.999387 
L 110.975408 221.999387 
L 117.853683 206.826104 
L 117.853683 206.826104 
L 124.731957 191.189454 
L 124.731957 191.189454 
L 131.610231 175.075284 
L 131.610231 175.075284 
L 138.488505 158.468988 
L 138.488505 158.468988 
L 145.36678 141.355536 
L 145.36678 141.355536 
L 152.245054 123.719478 
L 152.245054 123.719478 
L 159.123328 105.544845 
L 159.123328 105.544845 
L 166.001602 87.167694 
L 166.001602 87.167694 
L 167.377257 84.048348 
L 167.377257 84.048348 
L 168.752912 81.218579 
L 168.752912 81.218579 
L 170.128567 78.651505 
L 170.128567 78.651505 
L 172.879877 74.210247 
L 172.879877 74.210247 
L 175.631186 70.55535 
L 175.631186 70.55535 
L 178.382496 67.547589 
L 178.382496 67.547589 
L 181.133806 65.072385 
L 181.133806 65.072385 
L 183.885116 63.035418 
L 183.885116 63.035418 
L 186.636425 61.359124 
L 186.636425 61.359124 
L 189.387735 59.979636 
L 189.387735 59.979636 
L 192.139045 58.844396 
L 192.139045 58.844396 
L 194.890354 57.910162 
L 194.890354 57.910162 
L 199.017319 56.809607 
L 199.017319 56.809607 
L 203.144284 55.987986 
L 203.144284 55.987986 
L 207.271248 55.374628 
L 207.271248 55.374628 
L 212.773867 54.79151 
L 212.773867 54.79151 
L 219.652142 54.319676 
L 219.652142 54.319676 
L 227.906071 53.986915 
L 227.906071 53.986915 
L 240.286965 53.742303 
L 240.286965 53.742303 
L 260.921787 53.608401 
L 260.921787 53.608401 
L 273.302681 53.584813 
L 273.302681 53.584813 
L 276.053991 55.184903 
L 276.053991 55.184903 
L 277.429646 56.804043 
L 277.429646 56.804043 
L 278.8053 59.080419 
L 278.8053 59.080419 
L 280.180955 62.122049 
L 280.180955 62.122049 
L 281.55661 65.741626 
L 281.55661 65.741626 
L 282.932265 68.097655 
L 282.932265 68.097655 
L 284.30792 70.734038 
L 284.30792 70.734038 
L 285.683575 73.776243 
L 285.683575 73.776243 
L 287.05923 77.338394 
L 287.05923 77.338394 
L 289.810539 82.124721 
L 289.810539 82.124721 
L 291.186194 85.162268 
L 291.186194 85.162268 
L 293.937504 89.737973 
L 293.937504 89.737973 
L 295.313159 92.381161 
L 295.313159 92.381161 
L 296.688814 95.537884 
L 296.688814 95.537884 
L 298.064468 97.351196 
L 298.064468 97.351196 
L 299.440123 99.490464 
L 300.815778 102.301695 
L 300.815778 102.301695 
L 302.191433 103.804291 
L 302.191433 103.804291 
L 303.567088 105.740316 
L 303.567088 105.740316 
L 306.318398 108.756363 
L 306.318398 108.756363 
L 307.694052 110.820969 
L 307.694052 110.820969 
L 309.069707 112.140612 
L 310.445362 113.788178 
L 310.445362 113.788178 
L 313.196672 116.476423 
L 313.196672 116.476423 
L 314.572327 118.23999 
L 314.572327 118.23999 
L 315.947982 119.351461 
L 315.947982 119.351461 
L 317.323636 120.679602 
L 317.323636 120.679602 
L 320.074946 122.715086 
L 320.074946 122.715086 
L 321.450601 124.170659 
L 321.450601 124.170659 
L 322.826256 124.989195 
L 322.826256 124.989195 
L 324.201911 126.073571 
L 324.201911 126.073571 
L 328.328875 128.237969 
L 328.328875 128.237969 
L 332.45584 130.099241 
L 332.45584 130.099241 
L 333.831495 130.648067 
L 333.831495 130.648067 
L 336.582804 131.357588 
L 336.582804 131.357588 
L 339.334114 131.818748 
L 339.334114 131.818748 
L 342.085424 132.085071 
L 342.085424 132.085071 
L 346.212388 132.277761 
L 346.212388 132.277761 
L 359.968937 132.245918 
L 359.968937 132.245918 
L 366.847211 131.565336 
L 366.847211 131.565336 
L 369.598521 131.157399 
L 369.598521 131.157399 
L 373.725485 130.100571 
L 373.725485 130.100571 
L 376.476795 129.112782 
L 376.476795 129.112782 
L 377.85245 128.209271 
L 377.85245 128.209271 
L 379.228105 127.486323 
L 379.228105 127.486323 
L 383.355069 124.360838 
L 383.355069 124.360838 
L 384.730724 122.655 
L 384.730724 122.655 
L 386.106379 121.236774 
L 386.106379 121.236774 
L 387.482034 119.329779 
L 387.482034 119.329779 
L 388.857689 117.621582 
L 392.984653 111.39952 
L 392.984653 111.39952 
L 394.360308 109.429505 
L 394.360308 109.429505 
L 397.111618 106.414487 
L 397.111618 106.414487 
L 398.487273 105.410519 
L 398.487273 105.410519 
" clip-path="url(#paecb5e947d)" style="fill: none; stroke: #1f77b4; stroke-width: 1.5; stroke-linecap: square"/>
   </g>
   <g id="line2d_30">
    <path d="M 73.832727 53.568 
L 73.832727 268.244784 
L 73.832727 268.244784 
L 75.208382 266.327175 
L 75.208382 266.327175 
L 82.086656 252.507616 
L 82.086656 252.507616 
L 88.964931 238.266058 
L 88.964931 238.266058 
L 95.843205 223.589527 
L 95.843205 223.589527 
L 102.721479 208.46481 
L 102.721479 208.46481 
L 109.599753 192.878207 
L 109.599753 192.878207 
L 116.478028 176.815596 
L 116.478028 176.815596 
L 123.356302 160.262461 
L 123.356302 160.262461 
L 130.234576 143.203805 
L 130.234576 143.203805 
L 137.112851 125.624174 
L 137.112851 125.624174 
L 143.991125 107.507693 
L 143.991125 107.507693 
L 150.869399 88.83794 
L 150.869399 88.83794 
L 157.747673 69.598043 
L 157.747673 69.598043 
L 163.250293 53.783944 
L 163.250293 53.783944 
L 164.625948 53.568 
L 164.625948 53.568 
L 271.927026 53.568 
L 271.927026 53.568 
L 273.302681 55.792606 
L 273.302681 55.792606 
L 274.678336 56.785415 
L 274.678336 56.785415 
L 276.053991 59.888674 
L 276.053991 59.888674 
L 277.429646 63.417108 
L 277.429646 63.417108 
L 280.180955 72.637223 
L 280.180955 72.637223 
L 281.55661 72.586148 
L 281.55661 72.586148 
L 282.932265 75.75654 
L 282.932265 75.75654 
L 284.30792 79.571951 
L 284.30792 79.571951 
L 285.683575 84.124613 
L 285.683575 84.124613 
L 287.05923 84.014237 
L 287.05923 84.014237 
L 288.434884 86.865173 
L 288.434884 86.865173 
L 289.810539 90.949116 
L 289.810539 90.949116 
L 291.186194 91.650956 
L 291.186194 91.650956 
L 292.561849 94.199885 
L 292.561849 94.199885 
L 293.937504 97.416665 
L 293.937504 97.416665 
L 295.313159 101.551713 
L 295.313159 101.551713 
L 296.688814 100.805723 
L 296.688814 100.805723 
L 298.064468 103.565969 
L 298.064468 103.565969 
L 299.440123 107.65729 
L 299.440123 107.65729 
L 300.815778 106.6669 
L 300.815778 106.6669 
L 302.191433 109.428598 
L 302.191433 109.428598 
L 303.567088 109.927588 
L 303.567088 109.927588 
L 304.942743 111.756231 
L 304.942743 111.756231 
L 306.318398 114.754255 
L 306.318398 114.754255 
L 307.694052 114.654614 
L 307.694052 114.654614 
L 309.069707 116.926969 
L 309.069707 116.926969 
L 310.445362 117.675469 
L 310.445362 117.675469 
L 311.821017 119.048577 
L 311.821017 119.048577 
L 313.196672 121.599714 
L 313.196672 121.599714 
L 314.572327 121.468956 
L 314.572327 121.468956 
L 315.947982 123.209843 
L 315.947982 123.209843 
L 317.323636 123.535195 
L 317.323636 123.535195 
L 318.699291 124.72021 
L 320.074946 126.943697 
L 320.074946 126.943697 
L 321.450601 126.548551 
L 321.450601 126.548551 
L 322.826256 128.139356 
L 322.826256 128.139356 
L 324.201911 128.221579 
L 324.201911 128.221579 
L 325.577565 129.190075 
L 325.577565 129.190075 
L 326.95322 129.393832 
L 326.95322 129.393832 
L 328.328875 130.107194 
L 328.328875 130.107194 
L 329.70453 130.969215 
L 329.70453 130.969215 
L 331.080185 131.050168 
L 331.080185 131.050168 
L 332.45584 131.693584 
L 332.45584 131.693584 
L 333.831495 131.69679 
L 333.831495 131.69679 
L 335.207149 132.021567 
L 335.207149 132.021567 
L 342.085424 132.372351 
L 342.085424 132.372351 
L 343.461079 132.278849 
L 343.461079 132.278849 
L 344.836733 132.394185 
L 344.836733 132.394185 
L 346.212388 132.289887 
L 346.212388 132.289887 
L 347.588043 132.415746 
L 347.588043 132.415746 
L 348.963698 132.086009 
L 348.963698 132.086009 
L 350.339353 132.444232 
L 350.339353 132.444232 
L 351.715008 132.271289 
L 351.715008 132.271289 
L 353.090663 132.418256 
L 353.090663 132.418256 
L 354.466317 132.095776 
L 354.466317 132.095776 
L 355.841972 132.259677 
L 355.841972 132.259677 
L 357.217627 131.705045 
L 357.217627 131.705045 
L 358.593282 131.927551 
L 358.593282 131.927551 
L 359.968937 131.004868 
L 359.968937 131.004868 
L 361.344592 131.324838 
L 361.344592 131.324838 
L 362.720247 129.759011 
L 362.720247 129.759011 
L 364.095901 130.486736 
L 364.095901 130.486736 
L 365.471556 130.085693 
L 365.471556 130.085693 
L 366.847211 129.372876 
L 366.847211 129.372876 
L 368.222866 129.160198 
L 368.222866 129.160198 
L 369.598521 127.758423 
L 369.598521 127.758423 
L 370.974176 127.477191 
L 370.974176 127.477191 
L 372.349831 125.90961 
L 372.349831 125.90961 
L 373.725485 125.319174 
L 373.725485 125.319174 
L 375.10114 123.798162 
L 375.10114 123.798162 
L 376.476795 119.380915 
L 376.476795 119.380915 
L 377.85245 120.422048 
L 377.85245 120.422048 
L 379.228105 116.650696 
L 379.228105 116.650696 
L 380.60376 116.050221 
L 380.60376 116.050221 
L 381.979414 113.112193 
L 381.979414 113.112193 
L 383.355069 105.986742 
L 383.355069 105.986742 
L 384.730724 107.378689 
L 384.730724 107.378689 
L 386.106379 100.696072 
L 386.106379 100.696072 
L 387.482034 100.930039 
L 387.482034 100.930039 
L 388.857689 94.768276 
L 388.857689 94.768276 
L 390.233344 94.765313 
L 390.233344 94.765313 
L 391.608998 90.143038 
L 391.608998 90.143038 
L 392.984653 90.179749 
L 392.984653 90.179749 
L 394.360308 92.648815 
L 394.360308 92.648815 
L 395.735963 92.176648 
L 395.735963 92.176648 
L 397.111618 95.600451 
L 398.487273 95.225989 
L 398.487273 95.225989 
" clip-path="url(#paecb5e947d)" style="fill: none; stroke: #ff7f0e; stroke-width: 1.5; stroke-linecap: square"/>
   </g>
   <g id="patch_3">
    <path d="M 57.6 307.584 
L 57.6 41.472 
" style="fill: none; stroke: #000000; stroke-width: 0.8; stroke-linejoin: miter; stroke-linecap: square"/>
   </g>
   <g id="patch_4">
    <path d="M 414.72 307.584 
L 414.72 41.472 
" style="fill: none; stroke: #000000; stroke-width: 0.8; stroke-linejoin: miter; stroke-linecap: square"/>
   </g>
   <g id="patch_5">
    <path d="M 57.6 307.584 
L 414.72 307.584 
" style="fill: none; stroke: #000000; stroke-width: 0.8; stroke-linejoin: miter; stroke-linecap: square"/>
   </g>
   <g id="patch_6">
    <path d="M 57.6 41.472 
L 414.72 41.472 
" style="fill: none; stroke: #000000; stroke-width: 0.8; stroke-linejoin: miter; stroke-linecap: square"/>
   </g>
   <g id="text_17">
    <!-- Actual speed vs Expected speed -->
    <g transform="translate(138.808125 35.472) scale(0.12 -0.12)">
     <defs>
      <path id="DejaVuSans-41" d="M 2188 4044 
L 1331 1722 
L 3047 1722 
L 2188 4044 
z
M 1831 4666 
L 2547 4666 
L 4325 0 
L 3669 0 
L 3244 1197 
L 1141 1197 
L 716 0 
L 50 0 
L 1831 4666 
z
" transform="scale(0.015625)"/>
      <path id="DejaVuSans-75" d="M 544 1381 
L 544 3500 
L 1119 3500 
L 1119 1403 
Q 1119 906 1312 657 
Q 1506 409 1894 409 
Q 2359 409 2629 706 
Q 2900 1003 2900 1516 
L 2900 3500 
L 3475 3500 
L 3475 0 
L 2900 0 
L 2900 538 
Q 2691 219 2414 64 
Q 2138 -91 1772 -91 
Q 1169 -91 856 284 
Q 544 659 544 1381 
z
M 1991 3584 
L 1991 3584 
z
" transform="scale(0.015625)"/>
      <path id="DejaVuSans-61" d="M 2194 1759 
Q 1497 1759 1228 1600 
Q 959 1441 959 1056 
Q 959 750 1161 570 
Q 1363 391 1709 391 
Q 2188 391 2477 730 
Q 2766 1069 2766 1631 
L 2766 1759 
L 2194 1759 
z
M 3341 1997 
L 3341 0 
L 2766 0 
L 2766 531 
Q 2569 213 2275 61 
Q 1981 -91 1556 -91 
Q 1019 -91 701 211 
Q 384 513 384 1019 
Q 384 1609 779 1909 
Q 1175 2209 1959 2209 
L 2766 2209 
L 2766 2266 
Q 2766 2663 2505 2880 
Q 2244 3097 1772 3097 
Q 1472 3097 1187 3025 
Q 903 2953 641 2809 
L 641 3341 
Q 956 3463 1253 3523 
Q 1550 3584 1831 3584 
Q 2591 3584 2966 3190 
Q 3341 2797 3341 1997 
z
" transform="scale(0.015625)"/>
      <path id="DejaVuSans-20" transform="scale(0.015625)"/>
      <path id="DejaVuSans-70" d="M 1159 525 
L 1159 -1331 
L 581 -1331 
L 581 3500 
L 1159 3500 
L 1159 2969 
Q 1341 3281 1617 3432 
Q 1894 3584 2278 3584 
Q 2916 3584 3314 3078 
Q 3713 2572 3713 1747 
Q 3713 922 3314 415 
Q 2916 -91 2278 -91 
Q 1894 -91 1617 61 
Q 1341 213 1159 525 
z
M 3116 1747 
Q 3116 2381 2855 2742 
Q 2594 3103 2138 3103 
Q 1681 3103 1420 2742 
Q 1159 2381 1159 1747 
Q 1159 1113 1420 752 
Q 1681 391 2138 391 
Q 2594 391 2855 752 
Q 3116 1113 3116 1747 
z
" transform="scale(0.015625)"/>
      <path id="DejaVuSans-64" d="M 2906 2969 
L 2906 4863 
L 3481 4863 
L 3481 0 
L 2906 0 
L 2906 525 
Q 2725 213 2448 61 
Q 2172 -91 1784 -91 
Q 1150 -91 751 415 
Q 353 922 353 1747 
Q 353 2572 751 3078 
Q 1150 3584 1784 3584 
Q 2172 3584 2448 3432 
Q 2725 3281 2906 2969 
z
M 947 1747 
Q 947 1113 1208 752 
Q 1469 391 1925 391 
Q 2381 391 2643 752 
Q 2906 1113 2906 1747 
Q 2906 2381 2643 2742 
Q 2381 3103 1925 3103 
Q 1469 3103 1208 2742 
Q 947 2381 947 1747 
z
" transform="scale(0.015625)"/>
      <path id="DejaVuSans-76" d="M 191 3500 
L 800 3500 
L 1894 563 
L 2988 3500 
L 3597 3500 
L 2284 0 
L 1503 0 
L 191 3500 
z
" transform="scale(0.015625)"/>
      <path id="DejaVuSans-45" d="M 628 4666 
L 3578 4666 
L 3578 4134 
L 1259 4134 
L 1259 2753 
L 3481 2753 
L 3481 2222 
L 1259 2222 
L 1259 531 
L 3634 531 
L 3634 0 
L 628 0 
L 628 4666 
z
" transform="scale(0.015625)"/>
      <path id="DejaVuSans-78" d="M 3513 3500 
L 2247 1797 
L 3578 0 
L 2900 0 
L 1881 1375 
L 863 0 
L 184 0 
L 1544 1831 
L 300 3500 
L 978 3500 
L 1906 2253 
L 2834 3500 
L 3513 3500 
z
" transform="scale(0.015625)"/>
     </defs>
     <use xlink:href="#DejaVuSans-41"/>
     <use xlink:href="#DejaVuSans-63" x="66.658203"/>
     <use xlink:href="#DejaVuSans-74" x="121.638672"/>
     <use xlink:href="#DejaVuSans-75" x="160.847656"/>
     <use xlink:href="#DejaVuSans-61" x="224.226562"/>
     <use xlink:href="#DejaVuSans-6c" x="285.505859"/>
     <use xlink:href="#DejaVuSans-20" x="313.289062"/>
     <use xlink:href="#DejaVuSans-73" x="345.076172"/>
     <use xlink:href="#DejaVuSans-70" x="397.175781"/>
     <use xlink:href="#DejaVuSans-65" x="460.652344"/>
     <use xlink:href="#DejaVuSans-65" x="522.175781"/>
     <use xlink:href="#DejaVuSans-64" x="583.699219"/>
     <use xlink:href="#DejaVuSans-20" x="647.175781"/>
     <use xlink:href="#DejaVuSans-76" x="678.962891"/>
     <use xlink:href="#DejaVuSans-73" x="738.142578"/>
     <use xlink:href="#DejaVuSans-20" x="790.242188"/>
     <use xlink:href="#DejaVuSans-45" x="822.029297"/>
     <use xlink:href="#DejaVuSans-78" x="885.212891"/>
     <use xlink:href="#DejaVuSans-70" x="944.392578"/>
     <use xlink:href="#DejaVuSans-65" x="1007.869141"/>
     <use xlink:href="#DejaVuSans-63" x="1069.392578"/>
     <use xlink:href="#DejaVuSans-74" x="1124.373047"/>
     <use xlink:href="#DejaVuSans-65" x="1163.582031"/>
     <use xlink:href="#DejaVuSans-64" x="1225.105469"/>
     <use xlink:href="#DejaVuSans-20" x="1288.582031"/>
     <use xlink:href="#DejaVuSans-73" x="1320.369141"/>
     <use xlink:href="#DejaVuSans-70" x="1372.46875"/>
     <use xlink:href="#DejaVuSans-65" x="1435.945312"/>
     <use xlink:href="#DejaVuSans-65" x="1497.46875"/>
     <use xlink:href="#DejaVuSans-64" x="1558.992188"/>
    </g>
   </g>
   <g id="legend_1">
    <g id="patch_7">
     <path d="M 295.67 78.82825 
L 407.72 78.82825 
Q 409.72 78.82825 409.72 76.82825 
L 409.72 48.472 
Q 409.72 46.472 407.72 46.472 
L 295.67 46.472 
Q 293.67 46.472 293.67 48.472 
L 293.67 76.82825 
Q 293.67 78.82825 295.67 78.82825 
z
" style="fill: #ffffff; opacity: 0.8; stroke: #cccccc; stroke-linejoin: miter"/>
    </g>
    <g id="line2d_31">
     <path d="M 297.67 54.570437 
L 307.67 54.570437 
L 317.67 54.570437 
" style="fill: none; stroke: #1f77b4; stroke-width: 1.5; stroke-linecap: square"/>
    </g>
    <g id="text_18">
     <!-- Actual speed -->
     <g transform="translate(325.67 58.070437) scale(0.1 -0.1)">
      <use xlink:href="#DejaVuSans-41"/>
      <use xlink:href="#DejaVuSans-63" x="66.658203"/>
      <use xlink:href="#DejaVuSans-74" x="121.638672"/>
      <use xlink:href="#DejaVuSans-75" x="160.847656"/>
      <use xlink:href="#DejaVuSans-61" x="224.226562"/>
      <use xlink:href="#DejaVuSans-6c" x="285.505859"/>
      <use xlink:href="#DejaVuSans-20" x="313.289062"/>
      <use xlink:href="#DejaVuSans-73" x="345.076172"/>
      <use xlink:href="#DejaVuSans-70" x="397.175781"/>
      <use xlink:href="#DejaVuSans-65" x="460.652344"/>
      <use xlink:href="#DejaVuSans-65" x="522.175781"/>
      <use xlink:href="#DejaVuSans-64" x="583.699219"/>
     </g>
    </g>
    <g id="line2d_32">
     <path d="M 297.67 69.248562 
L 307.67 69.248562 
L 317.67 69.248562 
" style="fill: none; stroke: #ff7f0e; stroke-width: 1.5; stroke-linecap: square"/>
    </g>
    <g id="text_19">
     <!-- Expected speed -->
     <g transform="translate(325.67 72.748562) scale(0.1 -0.1)">
      <use xlink:href="#DejaVuSans-45"/>
      <use xlink:href="#DejaVuSans-78" x="63.183594"/>
      <use xlink:href="#DejaVuSans-70" x="122.363281"/>
      <use xlink:href="#DejaVuSans-65" x="185.839844"/>
      <use xlink:href="#DejaVuSans-63" x="247.363281"/>
      <use xlink:href="#DejaVuSans-74" x="302.34375"/>
      <use xlink:href="#DejaVuSans-65" x="341.552734"/>
      <use xlink:href="#DejaVuSans-64" x="403.076172"/>
      <use xlink:href="#DejaVuSans-20" x="466.552734"/>
      <use xlink:href="#DejaVuSans-73" x="498.339844"/>
      <use xlink:href="#DejaVuSans-70" x="550.439453"/>
      <use xlink:href="#DejaVuSans-65" x="613.916016"/>
      <use xlink:href="#DejaVuSans-65" x="675.439453"/>
      <use xlink:href="#DejaVuSans-64" x="736.962891"/>
     </g>
    </g>
   </g>
  </g>
 </g>
 <defs>
  <clipPath id="paecb5e947d">
   <rect x="57.6" y="41.472" width="357.12" height="266.112"/>
  </clipPath>
 </defs>
</svg>
