<?xml version="1.0" encoding="utf-8" standalone="no"?>
<!DOCTYPE svg PUBLIC "-//W3C//DTD SVG 1.1//EN"
  "http://www.w3.org/Graphics/SVG/1.1/DTD/svg11.dtd">
<svg xmlns:xlink="http://www.w3.org/1999/xlink" width="460.8pt" height="345.6pt" viewBox="0 0 460.8 345.6" xmlns="http://www.w3.org/2000/svg" version="1.1">
 <metadata>
  <rdf:RDF xmlns:dc="http://purl.org/dc/elements/1.1/" xmlns:cc="http://creativecommons.org/ns#" xmlns:rdf="http://www.w3.org/1999/02/22-rdf-syntax-ns#">
   <cc:Work>
    <dc:type rdf:resource="http://purl.org/dc/dcmitype/StillImage"/>
    <dc:date>2024-01-30T20:59:04.918323</dc:date>
    <dc:format>image/svg+xml</dc:format>
    <dc:creator>
     <cc:Agent>
      <dc:title>Matplotlib v3.7.1, https://matplotlib.org/</dc:title>
     </cc:Agent>
    </dc:creator>
   </cc:Work>
  </rdf:RDF>
 </metadata>
 <defs>
  <style type="text/css">*{stroke-linejoin: round; stroke-linecap: butt}</style>
 </defs>
 <g id="figure_1">
  <g id="patch_1">
   <path d="M 0 345.6 
L 460.8 345.6 
L 460.8 0 
L 0 0 
z
" style="fill: #ffffff"/>
  </g>
  <g id="axes_1">
   <g id="patch_2">
    <path d="M 57.6 307.584 
L 414.72 307.584 
L 414.72 41.472 
L 57.6 41.472 
z
" style="fill: #ffffff"/>
   </g>
   <g id="matplotlib.axis_1">
    <g id="xtick_1">
     <g id="line2d_1">
      <path d="M 73.832727 307.584 
L 73.832727 41.472 
" clip-path="url(#pa33e088eec)" style="fill: none; stroke: #b0b0b0; stroke-width: 0.8; stroke-linecap: square"/>
     </g>
     <g id="line2d_2">
      <defs>
       <path id="m3a6c4059e1" d="M 0 0 
L 0 3.5 
" style="stroke: #000000; stroke-width: 0.8"/>
      </defs>
      <g>
       <use xlink:href="#m3a6c4059e1" x="73.832727" y="307.584" style="stroke: #000000; stroke-width: 0.8"/>
      </g>
     </g>
     <g id="text_1">
      <!-- 0 -->
      <g transform="translate(70.651477 322.182437) scale(0.1 -0.1)">
       <defs>
        <path id="DejaVuSans-30" d="M 2034 4250 
Q 1547 4250 1301 3770 
Q 1056 3291 1056 2328 
Q 1056 1369 1301 889 
Q 1547 409 2034 409 
Q 2525 409 2770 889 
Q 3016 1369 3016 2328 
Q 3016 3291 2770 3770 
Q 2525 4250 2034 4250 
z
M 2034 4750 
Q 2819 4750 3233 4129 
Q 3647 3509 3647 2328 
Q 3647 1150 3233 529 
Q 2819 -91 2034 -91 
Q 1250 -91 836 529 
Q 422 1150 422 2328 
Q 422 3509 836 4129 
Q 1250 4750 2034 4750 
z
" transform="scale(0.015625)"/>
       </defs>
       <use xlink:href="#DejaVuSans-30"/>
      </g>
     </g>
    </g>
    <g id="xtick_2">
     <g id="line2d_3">
      <path d="M 117.943399 307.584 
L 117.943399 41.472 
" clip-path="url(#pa33e088eec)" style="fill: none; stroke: #b0b0b0; stroke-width: 0.8; stroke-linecap: square"/>
     </g>
     <g id="line2d_4">
      <g>
       <use xlink:href="#m3a6c4059e1" x="117.943399" y="307.584" style="stroke: #000000; stroke-width: 0.8"/>
      </g>
     </g>
     <g id="text_2">
      <!-- 5 -->
      <g transform="translate(114.762149 322.182437) scale(0.1 -0.1)">
       <defs>
        <path id="DejaVuSans-35" d="M 691 4666 
L 3169 4666 
L 3169 4134 
L 1269 4134 
L 1269 2991 
Q 1406 3038 1543 3061 
Q 1681 3084 1819 3084 
Q 2600 3084 3056 2656 
Q 3513 2228 3513 1497 
Q 3513 744 3044 326 
Q 2575 -91 1722 -91 
Q 1428 -91 1123 -41 
Q 819 9 494 109 
L 494 744 
Q 775 591 1075 516 
Q 1375 441 1709 441 
Q 2250 441 2565 725 
Q 2881 1009 2881 1497 
Q 2881 1984 2565 2268 
Q 2250 2553 1709 2553 
Q 1456 2553 1204 2497 
Q 953 2441 691 2322 
L 691 4666 
z
" transform="scale(0.015625)"/>
       </defs>
       <use xlink:href="#DejaVuSans-35"/>
      </g>
     </g>
    </g>
    <g id="xtick_3">
     <g id="line2d_5">
      <path d="M 162.054071 307.584 
L 162.054071 41.472 
" clip-path="url(#pa33e088eec)" style="fill: none; stroke: #b0b0b0; stroke-width: 0.8; stroke-linecap: square"/>
     </g>
     <g id="line2d_6">
      <g>
       <use xlink:href="#m3a6c4059e1" x="162.054071" y="307.584" style="stroke: #000000; stroke-width: 0.8"/>
      </g>
     </g>
     <g id="text_3">
      <!-- 10 -->
      <g transform="translate(155.691571 322.182437) scale(0.1 -0.1)">
       <defs>
        <path id="DejaVuSans-31" d="M 794 531 
L 1825 531 
L 1825 4091 
L 703 3866 
L 703 4441 
L 1819 4666 
L 2450 4666 
L 2450 531 
L 3481 531 
L 3481 0 
L 794 0 
L 794 531 
z
" transform="scale(0.015625)"/>
       </defs>
       <use xlink:href="#DejaVuSans-31"/>
       <use xlink:href="#DejaVuSans-30" x="63.623047"/>
      </g>
     </g>
    </g>
    <g id="xtick_4">
     <g id="line2d_7">
      <path d="M 206.164743 307.584 
L 206.164743 41.472 
" clip-path="url(#pa33e088eec)" style="fill: none; stroke: #b0b0b0; stroke-width: 0.8; stroke-linecap: square"/>
     </g>
     <g id="line2d_8">
      <g>
       <use xlink:href="#m3a6c4059e1" x="206.164743" y="307.584" style="stroke: #000000; stroke-width: 0.8"/>
      </g>
     </g>
     <g id="text_4">
      <!-- 15 -->
      <g transform="translate(199.802243 322.182437) scale(0.1 -0.1)">
       <use xlink:href="#DejaVuSans-31"/>
       <use xlink:href="#DejaVuSans-35" x="63.623047"/>
      </g>
     </g>
    </g>
    <g id="xtick_5">
     <g id="line2d_9">
      <path d="M 250.275415 307.584 
L 250.275415 41.472 
" clip-path="url(#pa33e088eec)" style="fill: none; stroke: #b0b0b0; stroke-width: 0.8; stroke-linecap: square"/>
     </g>
     <g id="line2d_10">
      <g>
       <use xlink:href="#m3a6c4059e1" x="250.275415" y="307.584" style="stroke: #000000; stroke-width: 0.8"/>
      </g>
     </g>
     <g id="text_5">
      <!-- 20 -->
      <g transform="translate(243.912915 322.182437) scale(0.1 -0.1)">
       <defs>
        <path id="DejaVuSans-32" d="M 1228 531 
L 3431 531 
L 3431 0 
L 469 0 
L 469 531 
Q 828 903 1448 1529 
Q 2069 2156 2228 2338 
Q 2531 2678 2651 2914 
Q 2772 3150 2772 3378 
Q 2772 3750 2511 3984 
Q 2250 4219 1831 4219 
Q 1534 4219 1204 4116 
Q 875 4013 500 3803 
L 500 4441 
Q 881 4594 1212 4672 
Q 1544 4750 1819 4750 
Q 2544 4750 2975 4387 
Q 3406 4025 3406 3419 
Q 3406 3131 3298 2873 
Q 3191 2616 2906 2266 
Q 2828 2175 2409 1742 
Q 1991 1309 1228 531 
z
" transform="scale(0.015625)"/>
       </defs>
       <use xlink:href="#DejaVuSans-32"/>
       <use xlink:href="#DejaVuSans-30" x="63.623047"/>
      </g>
     </g>
    </g>
    <g id="xtick_6">
     <g id="line2d_11">
      <path d="M 294.386087 307.584 
L 294.386087 41.472 
" clip-path="url(#pa33e088eec)" style="fill: none; stroke: #b0b0b0; stroke-width: 0.8; stroke-linecap: square"/>
     </g>
     <g id="line2d_12">
      <g>
       <use xlink:href="#m3a6c4059e1" x="294.386087" y="307.584" style="stroke: #000000; stroke-width: 0.8"/>
      </g>
     </g>
     <g id="text_6">
      <!-- 25 -->
      <g transform="translate(288.023587 322.182437) scale(0.1 -0.1)">
       <use xlink:href="#DejaVuSans-32"/>
       <use xlink:href="#DejaVuSans-35" x="63.623047"/>
      </g>
     </g>
    </g>
    <g id="xtick_7">
     <g id="line2d_13">
      <path d="M 338.496759 307.584 
L 338.496759 41.472 
" clip-path="url(#pa33e088eec)" style="fill: none; stroke: #b0b0b0; stroke-width: 0.8; stroke-linecap: square"/>
     </g>
     <g id="line2d_14">
      <g>
       <use xlink:href="#m3a6c4059e1" x="338.496759" y="307.584" style="stroke: #000000; stroke-width: 0.8"/>
      </g>
     </g>
     <g id="text_7">
      <!-- 30 -->
      <g transform="translate(332.134259 322.182437) scale(0.1 -0.1)">
       <defs>
        <path id="DejaVuSans-33" d="M 2597 2516 
Q 3050 2419 3304 2112 
Q 3559 1806 3559 1356 
Q 3559 666 3084 287 
Q 2609 -91 1734 -91 
Q 1441 -91 1130 -33 
Q 819 25 488 141 
L 488 750 
Q 750 597 1062 519 
Q 1375 441 1716 441 
Q 2309 441 2620 675 
Q 2931 909 2931 1356 
Q 2931 1769 2642 2001 
Q 2353 2234 1838 2234 
L 1294 2234 
L 1294 2753 
L 1863 2753 
Q 2328 2753 2575 2939 
Q 2822 3125 2822 3475 
Q 2822 3834 2567 4026 
Q 2313 4219 1838 4219 
Q 1578 4219 1281 4162 
Q 984 4106 628 3988 
L 628 4550 
Q 988 4650 1302 4700 
Q 1616 4750 1894 4750 
Q 2613 4750 3031 4423 
Q 3450 4097 3450 3541 
Q 3450 3153 3228 2886 
Q 3006 2619 2597 2516 
z
" transform="scale(0.015625)"/>
       </defs>
       <use xlink:href="#DejaVuSans-33"/>
       <use xlink:href="#DejaVuSans-30" x="63.623047"/>
      </g>
     </g>
    </g>
    <g id="xtick_8">
     <g id="line2d_15">
      <path d="M 382.607431 307.584 
L 382.607431 41.472 
" clip-path="url(#pa33e088eec)" style="fill: none; stroke: #b0b0b0; stroke-width: 0.8; stroke-linecap: square"/>
     </g>
     <g id="line2d_16">
      <g>
       <use xlink:href="#m3a6c4059e1" x="382.607431" y="307.584" style="stroke: #000000; stroke-width: 0.8"/>
      </g>
     </g>
     <g id="text_8">
      <!-- 35 -->
      <g transform="translate(376.244931 322.182437) scale(0.1 -0.1)">
       <use xlink:href="#DejaVuSans-33"/>
       <use xlink:href="#DejaVuSans-35" x="63.623047"/>
      </g>
     </g>
    </g>
    <g id="text_9">
     <!-- Time(s) -->
     <g transform="translate(217.420156 335.860562) scale(0.1 -0.1)">
      <defs>
       <path id="DejaVuSans-54" d="M -19 4666 
L 3928 4666 
L 3928 4134 
L 2272 4134 
L 2272 0 
L 1638 0 
L 1638 4134 
L -19 4134 
L -19 4666 
z
" transform="scale(0.015625)"/>
       <path id="DejaVuSans-69" d="M 603 3500 
L 1178 3500 
L 1178 0 
L 603 0 
L 603 3500 
z
M 603 4863 
L 1178 4863 
L 1178 4134 
L 603 4134 
L 603 4863 
z
" transform="scale(0.015625)"/>
       <path id="DejaVuSans-6d" d="M 3328 2828 
Q 3544 3216 3844 3400 
Q 4144 3584 4550 3584 
Q 5097 3584 5394 3201 
Q 5691 2819 5691 2113 
L 5691 0 
L 5113 0 
L 5113 2094 
Q 5113 2597 4934 2840 
Q 4756 3084 4391 3084 
Q 3944 3084 3684 2787 
Q 3425 2491 3425 1978 
L 3425 0 
L 2847 0 
L 2847 2094 
Q 2847 2600 2669 2842 
Q 2491 3084 2119 3084 
Q 1678 3084 1418 2786 
Q 1159 2488 1159 1978 
L 1159 0 
L 581 0 
L 581 3500 
L 1159 3500 
L 1159 2956 
Q 1356 3278 1631 3431 
Q 1906 3584 2284 3584 
Q 2666 3584 2933 3390 
Q 3200 3197 3328 2828 
z
" transform="scale(0.015625)"/>
       <path id="DejaVuSans-65" d="M 3597 1894 
L 3597 1613 
L 953 1613 
Q 991 1019 1311 708 
Q 1631 397 2203 397 
Q 2534 397 2845 478 
Q 3156 559 3463 722 
L 3463 178 
Q 3153 47 2828 -22 
Q 2503 -91 2169 -91 
Q 1331 -91 842 396 
Q 353 884 353 1716 
Q 353 2575 817 3079 
Q 1281 3584 2069 3584 
Q 2775 3584 3186 3129 
Q 3597 2675 3597 1894 
z
M 3022 2063 
Q 3016 2534 2758 2815 
Q 2500 3097 2075 3097 
Q 1594 3097 1305 2825 
Q 1016 2553 972 2059 
L 3022 2063 
z
" transform="scale(0.015625)"/>
       <path id="DejaVuSans-28" d="M 1984 4856 
Q 1566 4138 1362 3434 
Q 1159 2731 1159 2009 
Q 1159 1288 1364 580 
Q 1569 -128 1984 -844 
L 1484 -844 
Q 1016 -109 783 600 
Q 550 1309 550 2009 
Q 550 2706 781 3412 
Q 1013 4119 1484 4856 
L 1984 4856 
z
" transform="scale(0.015625)"/>
       <path id="DejaVuSans-73" d="M 2834 3397 
L 2834 2853 
Q 2591 2978 2328 3040 
Q 2066 3103 1784 3103 
Q 1356 3103 1142 2972 
Q 928 2841 928 2578 
Q 928 2378 1081 2264 
Q 1234 2150 1697 2047 
L 1894 2003 
Q 2506 1872 2764 1633 
Q 3022 1394 3022 966 
Q 3022 478 2636 193 
Q 2250 -91 1575 -91 
Q 1294 -91 989 -36 
Q 684 19 347 128 
L 347 722 
Q 666 556 975 473 
Q 1284 391 1588 391 
Q 1994 391 2212 530 
Q 2431 669 2431 922 
Q 2431 1156 2273 1281 
Q 2116 1406 1581 1522 
L 1381 1569 
Q 847 1681 609 1914 
Q 372 2147 372 2553 
Q 372 3047 722 3315 
Q 1072 3584 1716 3584 
Q 2034 3584 2315 3537 
Q 2597 3491 2834 3397 
z
" transform="scale(0.015625)"/>
       <path id="DejaVuSans-29" d="M 513 4856 
L 1013 4856 
Q 1481 4119 1714 3412 
Q 1947 2706 1947 2009 
Q 1947 1309 1714 600 
Q 1481 -109 1013 -844 
L 513 -844 
Q 928 -128 1133 580 
Q 1338 1288 1338 2009 
Q 1338 2731 1133 3434 
Q 928 4138 513 4856 
z
" transform="scale(0.015625)"/>
      </defs>
      <use xlink:href="#DejaVuSans-54"/>
      <use xlink:href="#DejaVuSans-69" x="57.958984"/>
      <use xlink:href="#DejaVuSans-6d" x="85.742188"/>
      <use xlink:href="#DejaVuSans-65" x="183.154297"/>
      <use xlink:href="#DejaVuSans-28" x="244.677734"/>
      <use xlink:href="#DejaVuSans-73" x="283.691406"/>
      <use xlink:href="#DejaVuSans-29" x="335.791016"/>
     </g>
    </g>
   </g>
   <g id="matplotlib.axis_2">
    <g id="ytick_1">
     <g id="line2d_17">
      <path d="M 57.6 276.930589 
L 414.72 276.930589 
" clip-path="url(#pa33e088eec)" style="fill: none; stroke: #b0b0b0; stroke-width: 0.8; stroke-linecap: square"/>
     </g>
     <g id="line2d_18">
      <defs>
       <path id="mbfd0c0058b" d="M 0 0 
L -3.5 0 
" style="stroke: #000000; stroke-width: 0.8"/>
      </defs>
      <g>
       <use xlink:href="#mbfd0c0058b" x="57.6" y="276.930589" style="stroke: #000000; stroke-width: 0.8"/>
      </g>
     </g>
     <g id="text_10">
      <!-- 4 -->
      <g transform="translate(44.2375 280.729808) scale(0.1 -0.1)">
       <defs>
        <path id="DejaVuSans-34" d="M 2419 4116 
L 825 1625 
L 2419 1625 
L 2419 4116 
z
M 2253 4666 
L 3047 4666 
L 3047 1625 
L 3713 1625 
L 3713 1100 
L 3047 1100 
L 3047 0 
L 2419 0 
L 2419 1100 
L 313 1100 
L 313 1709 
L 2253 4666 
z
" transform="scale(0.015625)"/>
       </defs>
       <use xlink:href="#DejaVuSans-34"/>
      </g>
     </g>
    </g>
    <g id="ytick_2">
     <g id="line2d_19">
      <path d="M 57.6 221.089942 
L 414.72 221.089942 
" clip-path="url(#pa33e088eec)" style="fill: none; stroke: #b0b0b0; stroke-width: 0.8; stroke-linecap: square"/>
     </g>
     <g id="line2d_20">
      <g>
       <use xlink:href="#mbfd0c0058b" x="57.6" y="221.089942" style="stroke: #000000; stroke-width: 0.8"/>
      </g>
     </g>
     <g id="text_11">
      <!-- 5 -->
      <g transform="translate(44.2375 224.889161) scale(0.1 -0.1)">
       <use xlink:href="#DejaVuSans-35"/>
      </g>
     </g>
    </g>
    <g id="ytick_3">
     <g id="line2d_21">
      <path d="M 57.6 165.249295 
L 414.72 165.249295 
" clip-path="url(#pa33e088eec)" style="fill: none; stroke: #b0b0b0; stroke-width: 0.8; stroke-linecap: square"/>
     </g>
     <g id="line2d_22">
      <g>
       <use xlink:href="#mbfd0c0058b" x="57.6" y="165.249295" style="stroke: #000000; stroke-width: 0.8"/>
      </g>
     </g>
     <g id="text_12">
      <!-- 6 -->
      <g transform="translate(44.2375 169.048513) scale(0.1 -0.1)">
       <defs>
        <path id="DejaVuSans-36" d="M 2113 2584 
Q 1688 2584 1439 2293 
Q 1191 2003 1191 1497 
Q 1191 994 1439 701 
Q 1688 409 2113 409 
Q 2538 409 2786 701 
Q 3034 994 3034 1497 
Q 3034 2003 2786 2293 
Q 2538 2584 2113 2584 
z
M 3366 4563 
L 3366 3988 
Q 3128 4100 2886 4159 
Q 2644 4219 2406 4219 
Q 1781 4219 1451 3797 
Q 1122 3375 1075 2522 
Q 1259 2794 1537 2939 
Q 1816 3084 2150 3084 
Q 2853 3084 3261 2657 
Q 3669 2231 3669 1497 
Q 3669 778 3244 343 
Q 2819 -91 2113 -91 
Q 1303 -91 875 529 
Q 447 1150 447 2328 
Q 447 3434 972 4092 
Q 1497 4750 2381 4750 
Q 2619 4750 2861 4703 
Q 3103 4656 3366 4563 
z
" transform="scale(0.015625)"/>
       </defs>
       <use xlink:href="#DejaVuSans-36"/>
      </g>
     </g>
    </g>
    <g id="ytick_4">
     <g id="line2d_23">
      <path d="M 57.6 109.408647 
L 414.72 109.408647 
" clip-path="url(#pa33e088eec)" style="fill: none; stroke: #b0b0b0; stroke-width: 0.8; stroke-linecap: square"/>
     </g>
     <g id="line2d_24">
      <g>
       <use xlink:href="#mbfd0c0058b" x="57.6" y="109.408647" style="stroke: #000000; stroke-width: 0.8"/>
      </g>
     </g>
     <g id="text_13">
      <!-- 7 -->
      <g transform="translate(44.2375 113.207866) scale(0.1 -0.1)">
       <defs>
        <path id="DejaVuSans-37" d="M 525 4666 
L 3525 4666 
L 3525 4397 
L 1831 0 
L 1172 0 
L 2766 4134 
L 525 4134 
L 525 4666 
z
" transform="scale(0.015625)"/>
       </defs>
       <use xlink:href="#DejaVuSans-37"/>
      </g>
     </g>
    </g>
    <g id="ytick_5">
     <g id="line2d_25">
      <path d="M 57.6 53.568 
L 414.72 53.568 
" clip-path="url(#pa33e088eec)" style="fill: none; stroke: #b0b0b0; stroke-width: 0.8; stroke-linecap: square"/>
     </g>
     <g id="line2d_26">
      <g>
       <use xlink:href="#mbfd0c0058b" x="57.6" y="53.568" style="stroke: #000000; stroke-width: 0.8"/>
      </g>
     </g>
     <g id="text_14">
      <!-- 8 -->
      <g transform="translate(44.2375 57.367219) scale(0.1 -0.1)">
       <defs>
        <path id="DejaVuSans-38" d="M 2034 2216 
Q 1584 2216 1326 1975 
Q 1069 1734 1069 1313 
Q 1069 891 1326 650 
Q 1584 409 2034 409 
Q 2484 409 2743 651 
Q 3003 894 3003 1313 
Q 3003 1734 2745 1975 
Q 2488 2216 2034 2216 
z
M 1403 2484 
Q 997 2584 770 2862 
Q 544 3141 544 3541 
Q 544 4100 942 4425 
Q 1341 4750 2034 4750 
Q 2731 4750 3128 4425 
Q 3525 4100 3525 3541 
Q 3525 3141 3298 2862 
Q 3072 2584 2669 2484 
Q 3125 2378 3379 2068 
Q 3634 1759 3634 1313 
Q 3634 634 3220 271 
Q 2806 -91 2034 -91 
Q 1263 -91 848 271 
Q 434 634 434 1313 
Q 434 1759 690 2068 
Q 947 2378 1403 2484 
z
M 1172 3481 
Q 1172 3119 1398 2916 
Q 1625 2713 2034 2713 
Q 2441 2713 2670 2916 
Q 2900 3119 2900 3481 
Q 2900 3844 2670 4047 
Q 2441 4250 2034 4250 
Q 1625 4250 1398 4047 
Q 1172 3844 1172 3481 
z
" transform="scale(0.015625)"/>
       </defs>
       <use xlink:href="#DejaVuSans-38"/>
      </g>
     </g>
    </g>
    <g id="text_15">
     <!-- Velocity(m/s) -->
     <g transform="translate(38.157812 207.204563) rotate(-90) scale(0.1 -0.1)">
      <defs>
       <path id="DejaVuSans-56" d="M 1831 0 
L 50 4666 
L 709 4666 
L 2188 738 
L 3669 4666 
L 4325 4666 
L 2547 0 
L 1831 0 
z
" transform="scale(0.015625)"/>
       <path id="DejaVuSans-6c" d="M 603 4863 
L 1178 4863 
L 1178 0 
L 603 0 
L 603 4863 
z
" transform="scale(0.015625)"/>
       <path id="DejaVuSans-6f" d="M 1959 3097 
Q 1497 3097 1228 2736 
Q 959 2375 959 1747 
Q 959 1119 1226 758 
Q 1494 397 1959 397 
Q 2419 397 2687 759 
Q 2956 1122 2956 1747 
Q 2956 2369 2687 2733 
Q 2419 3097 1959 3097 
z
M 1959 3584 
Q 2709 3584 3137 3096 
Q 3566 2609 3566 1747 
Q 3566 888 3137 398 
Q 2709 -91 1959 -91 
Q 1206 -91 779 398 
Q 353 888 353 1747 
Q 353 2609 779 3096 
Q 1206 3584 1959 3584 
z
" transform="scale(0.015625)"/>
       <path id="DejaVuSans-63" d="M 3122 3366 
L 3122 2828 
Q 2878 2963 2633 3030 
Q 2388 3097 2138 3097 
Q 1578 3097 1268 2742 
Q 959 2388 959 1747 
Q 959 1106 1268 751 
Q 1578 397 2138 397 
Q 2388 397 2633 464 
Q 2878 531 3122 666 
L 3122 134 
Q 2881 22 2623 -34 
Q 2366 -91 2075 -91 
Q 1284 -91 818 406 
Q 353 903 353 1747 
Q 353 2603 823 3093 
Q 1294 3584 2113 3584 
Q 2378 3584 2631 3529 
Q 2884 3475 3122 3366 
z
" transform="scale(0.015625)"/>
       <path id="DejaVuSans-74" d="M 1172 4494 
L 1172 3500 
L 2356 3500 
L 2356 3053 
L 1172 3053 
L 1172 1153 
Q 1172 725 1289 603 
Q 1406 481 1766 481 
L 2356 481 
L 2356 0 
L 1766 0 
Q 1100 0 847 248 
Q 594 497 594 1153 
L 594 3053 
L 172 3053 
L 172 3500 
L 594 3500 
L 594 4494 
L 1172 4494 
z
" transform="scale(0.015625)"/>
       <path id="DejaVuSans-79" d="M 2059 -325 
Q 1816 -950 1584 -1140 
Q 1353 -1331 966 -1331 
L 506 -1331 
L 506 -850 
L 844 -850 
Q 1081 -850 1212 -737 
Q 1344 -625 1503 -206 
L 1606 56 
L 191 3500 
L 800 3500 
L 1894 763 
L 2988 3500 
L 3597 3500 
L 2059 -325 
z
" transform="scale(0.015625)"/>
       <path id="DejaVuSans-2f" d="M 1625 4666 
L 2156 4666 
L 531 -594 
L 0 -594 
L 1625 4666 
z
" transform="scale(0.015625)"/>
      </defs>
      <use xlink:href="#DejaVuSans-56"/>
      <use xlink:href="#DejaVuSans-65" x="60.658203"/>
      <use xlink:href="#DejaVuSans-6c" x="122.181641"/>
      <use xlink:href="#DejaVuSans-6f" x="149.964844"/>
      <use xlink:href="#DejaVuSans-63" x="211.146484"/>
      <use xlink:href="#DejaVuSans-69" x="266.126953"/>
      <use xlink:href="#DejaVuSans-74" x="293.910156"/>
      <use xlink:href="#DejaVuSans-79" x="333.119141"/>
      <use xlink:href="#DejaVuSans-28" x="392.298828"/>
      <use xlink:href="#DejaVuSans-6d" x="431.3125"/>
      <use xlink:href="#DejaVuSans-2f" x="528.724609"/>
      <use xlink:href="#DejaVuSans-73" x="562.416016"/>
      <use xlink:href="#DejaVuSans-29" x="614.515625"/>
     </g>
    </g>
   </g>
   <g id="line2d_27">
    <path d="M 73.832727 53.664325 
L 77.538024 53.580452 
L 77.538024 53.580452 
L 92.535652 53.568 
L 92.535652 53.568 
L 92.712095 55.033203 
L 92.712095 55.033203 
L 93.06498 63.016014 
L 93.06498 63.016014 
L 93.594308 78.334053 
L 93.594308 78.334053 
L 95.358735 128.985206 
L 95.358735 128.985206 
L 96.946719 161.445877 
L 96.946719 161.445877 
L 97.65249 172.954466 
L 97.65249 172.954466 
L 99.240474 190.072864 
L 99.240474 190.072864 
L 100.122688 195.802282 
L 100.122688 195.802282 
L 100.828458 198.294617 
L 100.828458 198.294617 
L 101.181344 198.905625 
L 101.181344 198.905625 
L 101.534229 199.241898 
L 101.534229 199.241898 
L 101.887115 199.411039 
L 101.887115 199.411039 
L 102.24 199.411988 
L 102.24 199.411988 
L 103.122213 199.246979 
L 103.122213 199.246979 
L 103.475099 199.003682 
L 103.475099 199.003682 
L 103.827984 198.560307 
L 103.827984 198.560307 
L 104.533755 196.338854 
L 104.533755 196.338854 
L 105.239526 192.380199 
L 105.239526 192.380199 
L 105.768854 187.743527 
L 105.768854 187.743527 
L 106.82751 171.040305 
L 106.82751 171.040305 
L 107.886166 151.238094 
L 107.886166 151.238094 
L 108.415494 147.534687 
L 108.415494 147.534687 
L 108.944822 145.988292 
L 108.944822 145.988292 
L 109.47415 145.314686 
L 109.47415 145.314686 
L 110.003478 145.04693 
L 110.003478 145.04693 
L 111.767905 144.126844 
L 111.767905 144.126844 
L 112.473676 143.096137 
L 112.473676 143.096137 
L 112.826561 142.302195 
L 112.826561 142.302195 
L 113.708775 138.490959 
L 113.708775 138.490959 
L 114.414545 133.501095 
L 114.414545 133.501095 
L 114.767431 130.129381 
L 114.767431 130.129381 
L 115.649644 119.266644 
L 115.649644 119.266644 
L 115.826087 118.28865 
L 115.826087 118.28865 
L 116.00253 118.531836 
L 116.178972 119.537303 
L 116.178972 119.537303 
L 116.355415 121.908967 
L 116.355415 121.908967 
L 117.237628 140.40808 
L 117.237628 140.40808 
L 118.119842 155.265322 
L 118.119842 155.265322 
L 119.002055 164.439494 
L 119.002055 164.439494 
L 119.531383 167.687856 
L 119.531383 167.687856 
L 120.237154 170.16746 
L 120.237154 170.16746 
L 120.59004 170.546506 
L 120.59004 170.546506 
L 120.942925 171.029304 
L 120.942925 171.029304 
L 121.119368 171.204421 
L 121.119368 171.204421 
L 121.29581 171.202969 
L 121.29581 171.202969 
L 121.472253 171.342905 
L 121.472253 171.342905 
L 122.178024 171.340672 
L 122.178024 171.340672 
L 122.354466 171.42192 
L 122.354466 171.42192 
L 122.883794 171.343575 
L 122.883794 171.343575 
L 123.23668 171.35681 
L 123.23668 171.35681 
L 123.766008 171.143163 
L 123.766008 171.143163 
L 124.118893 171.04427 
L 124.118893 171.04427 
L 124.648221 170.647633 
L 124.648221 170.647633 
L 125.353992 170.072196 
L 125.353992 170.072196 
L 127.118419 167.380118 
L 127.118419 167.380118 
L 129.412174 161.334028 
L 129.412174 161.334028 
L 130.294387 158.436847 
L 130.294387 158.436847 
L 131.000158 155.833445 
L 131.000158 155.833445 
L 132.941028 146.991357 
L 132.941028 146.991357 
L 134.881897 135.551507 
L 134.881897 135.551507 
L 136.469881 123.656109 
L 136.469881 123.656109 
L 138.057866 108.290438 
L 138.057866 108.290438 
L 139.292964 93.58553 
L 139.292964 93.58553 
L 141.233834 68.908822 
L 141.233834 68.908822 
L 141.939605 63.95732 
L 141.939605 63.95732 
L 142.645375 60.603977 
L 142.645375 60.603977 
L 143.351146 58.332994 
L 143.351146 58.332994 
L 144.056917 56.794975 
L 144.056917 56.794975 
L 144.762688 55.753435 
L 144.762688 55.753435 
L 145.468458 55.048056 
L 145.468458 55.048056 
L 146.350672 54.477253 
L 146.350672 54.477253 
L 147.409328 54.074754 
L 147.409328 54.074754 
L 148.82087 53.800409 
L 148.82087 53.800409 
L 150.761739 53.647573 
L 150.761739 53.647573 
L 150.938182 54.678391 
L 150.938182 54.678391 
L 151.643953 70.829517 
L 151.643953 70.829517 
L 153.231937 119.595712 
L 153.231937 119.595712 
L 154.11415 142.040637 
L 154.11415 142.040637 
L 154.819921 161.591844 
L 154.819921 161.591844 
L 155.525692 176.262746 
L 155.525692 176.262746 
L 155.878577 184.151186 
L 155.878577 184.151186 
L 156.407905 194.390965 
L 156.407905 194.390965 
L 158.525217 224.772018 
L 158.525217 224.772018 
L 159.054545 230.411142 
L 159.054545 230.411142 
L 159.583874 234.659331 
L 159.583874 234.659331 
L 160.113202 238.579177 
L 160.113202 238.579177 
L 161.524743 244.547593 
L 161.524743 244.547593 
L 162.054071 245.848177 
L 162.054071 245.848177 
L 162.759842 246.903007 
L 162.759842 246.903007 
L 162.936285 247.066955 
L 162.936285 247.066955 
L 163.465613 247.111181 
L 163.465613 247.111181 
L 163.642055 247.244305 
L 163.642055 247.244305 
L 163.818498 247.219009 
L 163.818498 247.219009 
L 163.994941 247.34158 
L 163.994941 247.34158 
L 164.524269 247.286074 
L 164.524269 247.286074 
L 164.877154 247.315502 
L 164.877154 247.315502 
L 165.23004 247.247209 
L 165.23004 247.247209 
L 165.93581 246.767091 
L 165.93581 246.767091 
L 166.641581 245.754365 
L 166.641581 245.754365 
L 167.347352 244.193061 
L 167.347352 244.193061 
L 168.935336 238.079794 
L 168.935336 238.079794 
L 169.817549 233.243045 
L 169.817549 233.243045 
L 170.52332 228.545953 
L 170.52332 228.545953 
L 171.405534 221.861883 
L 171.405534 221.861883 
L 173.346403 204.277552 
L 173.346403 204.277552 
L 174.581502 190.877416 
L 174.581502 190.877416 
L 176.522372 169.911654 
L 176.522372 169.911654 
L 177.75747 156.980635 
L 177.75747 156.980635 
L 179.69834 135.948534 
L 179.69834 135.948534 
L 180.756996 120.234976 
L 180.756996 120.234976 
L 181.639209 101.322084 
L 181.639209 101.322084 
L 182.168538 90.867598 
L 182.168538 90.867598 
L 182.521423 87.375156 
L 182.521423 87.375156 
L 182.697866 86.828867 
L 182.697866 86.828867 
L 183.227194 92.910081 
L 183.227194 92.910081 
L 184.462292 129.056123 
L 184.462292 129.056123 
L 185.168063 152.066546 
L 185.168063 152.066546 
L 185.520949 161.795662 
L 185.520949 161.795662 
L 185.873834 172.877239 
L 185.873834 172.877239 
L 186.403162 187.263465 
L 186.403162 187.263465 
L 186.756047 195.193507 
L 186.756047 195.193507 
L 187.285375 210.062866 
L 187.285375 210.062866 
L 187.461818 212.858975 
L 187.461818 212.858975 
L 187.991146 224.317196 
L 187.991146 224.317196 
L 188.520474 233.02951 
L 188.520474 233.02951 
L 189.049802 242.23713 
L 189.049802 242.23713 
L 189.226245 243.94323 
L 189.57913 248.775177 
L 189.57913 248.775177 
L 191.52 266.167751 
L 191.52 266.167751 
L 192.755099 271.612773 
L 192.755099 271.612773 
L 193.284427 272.773309 
L 193.284427 272.773309 
L 193.46087 272.93642 
L 193.46087 272.93642 
L 193.813755 273.446468 
L 193.813755 273.446468 
L 194.16664 273.855668 
L 194.16664 273.855668 
L 194.695968 274.340086 
L 194.695968 274.340086 
L 194.872411 274.3168 
L 194.872411 274.3168 
L 195.048854 274.42541 
L 195.401739 274.456402 
L 195.401739 274.456402 
L 195.754625 274.542397 
L 195.754625 274.542397 
L 196.460395 274.605217 
L 196.460395 274.605217 
L 197.342609 274.38286 
L 197.342609 274.38286 
L 198.224822 273.514203 
L 198.224822 273.514203 
L 198.75415 272.443179 
L 198.75415 272.443179 
L 199.107036 271.655714 
L 199.107036 271.655714 
L 199.812806 269.327327 
L 199.812806 269.327327 
L 200.342134 267.052155 
L 200.342134 267.052155 
L 201.577233 258.944149 
L 201.577233 258.944149 
L 202.812332 246.656471 
L 202.812332 246.656471 
L 203.694545 235.48728 
L 203.694545 235.48728 
L 204.223874 227.630948 
L 204.223874 227.630948 
L 205.635415 200.665332 
L 205.635415 200.665332 
L 207.223399 161.265511 
L 207.223399 161.265511 
L 210.222925 82.734575 
L 210.222925 82.734575 
L 210.928696 73.320512 
L 210.928696 73.320512 
L 211.634466 66.945018 
L 211.634466 66.945018 
L 212.340237 62.627363 
L 212.340237 62.627363 
L 213.046008 59.703268 
L 213.046008 59.703268 
L 213.751779 57.722991 
L 213.751779 57.722991 
L 214.457549 56.381922 
L 214.457549 56.381922 
L 215.16332 55.473674 
L 215.16332 55.473674 
L 215.339763 55.311066 
L 215.339763 55.311066 
L 215.516206 55.887956 
L 215.516206 55.887956 
L 215.869091 61.031382 
L 215.869091 61.031382 
L 216.221976 67.734158 
L 216.221976 67.734158 
L 216.574862 74.753997 
L 216.574862 74.753997 
L 216.927747 82.618259 
L 216.927747 82.618259 
L 217.280632 89.571537 
L 217.280632 89.571537 
L 217.633518 97.812555 
L 217.633518 97.812555 
L 218.515731 116.577525 
L 218.515731 116.577525 
L 218.868617 124.89767 
L 218.868617 124.89767 
L 221.162372 169.258877 
L 221.162372 169.258877 
L 222.926798 190.994513 
L 222.926798 190.994513 
L 223.632569 197.176576 
L 223.632569 197.176576 
L 224.514783 201.992776 
L 224.514783 201.992776 
L 225.044111 203.694408 
L 225.044111 203.694408 
L 225.396996 204.427316 
L 225.396996 204.427316 
L 225.926324 204.932618 
L 225.926324 204.932618 
L 226.279209 205.088469 
L 226.279209 205.088469 
L 226.808538 205.247895 
L 226.808538 205.247895 
L 227.867194 205.157879 
L 227.867194 205.157879 
L 228.220079 204.835344 
L 228.220079 204.835344 
L 228.396522 204.687366 
L 228.396522 204.687366 
L 229.102292 203.381365 
L 229.102292 203.381365 
L 229.808063 200.937108 
L 229.808063 200.937108 
L 230.337391 198.068798 
L 230.337391 198.068798 
L 231.57249 184.994938 
L 231.57249 184.994938 
L 232.101818 176.194173 
L 232.101818 176.194173 
L 232.631146 165.815631 
L 232.631146 165.815631 
L 233.51336 143.581057 
L 233.51336 143.581057 
L 235.630672 87.308315 
L 235.630672 87.308315 
L 236.336443 76.418049 
L 236.336443 76.418049 
L 237.042213 69.042784 
L 237.042213 69.042784 
L 237.747984 64.048005 
L 237.747984 64.048005 
L 238.453755 60.665402 
L 238.453755 60.665402 
L 239.159526 58.374595 
L 239.159526 58.374595 
L 239.865296 56.823175 
L 239.865296 56.823175 
L 240.571067 55.772477 
L 240.571067 55.772477 
L 241.276838 55.060956 
L 241.276838 55.060956 
L 241.629723 54.919064 
L 241.629723 54.919064 
L 241.982609 58.456179 
L 241.982609 58.456179 
L 242.511937 64.224015 
L 242.511937 64.224015 
L 244.452806 93.982724 
L 244.452806 93.982724 
L 244.805692 99.393906 
L 244.805692 99.393906 
L 245.158577 105.102998 
L 245.158577 105.102998 
L 247.099447 130.621392 
L 247.099447 130.621392 
L 248.158103 139.587558 
L 248.158103 139.587558 
L 248.863874 143.085416 
L 248.863874 143.085416 
L 249.569644 145.160733 
L 249.569644 145.160733 
L 250.275415 145.784585 
L 250.275415 145.784585 
L 250.804743 145.904196 
L 250.804743 145.904196 
L 250.981186 146.158271 
L 252.039842 145.729303 
L 252.039842 145.729303 
L 252.392727 145.416037 
L 252.392727 145.416037 
L 252.922055 144.370644 
L 252.922055 144.370644 
L 253.627826 141.707101 
L 253.627826 141.707101 
L 253.980711 140.067173 
L 253.980711 140.067173 
L 255.392253 129.711134 
L 255.392253 129.711134 
L 256.627352 115.906712 
L 256.627352 115.906712 
L 257.333123 105.977854 
L 257.333123 105.977854 
L 258.215336 92.269589 
L 258.215336 92.269589 
L 259.097549 77.596733 
L 259.097549 77.596733 
L 259.80332 69.841026 
L 259.80332 69.841026 
L 260.509091 64.588598 
L 260.509091 64.588598 
L 261.214862 61.031493 
L 261.214862 61.031493 
L 261.920632 58.622528 
L 261.920632 58.622528 
L 262.626403 56.991088 
L 262.626403 56.991088 
L 263.332174 55.886224 
L 263.332174 55.886224 
L 264.037945 55.13796 
L 264.037945 55.13796 
L 264.920158 54.532536 
L 264.920158 54.532536 
L 265.978814 54.105522 
L 265.978814 54.105522 
L 267.390356 53.814536 
L 267.390356 53.814536 
L 269.507668 53.644558 
L 269.507668 53.644558 
L 273.918735 53.574701 
L 273.918735 53.574701 
L 276.565375 53.569564 
L 276.565375 53.569564 
L 276.741818 55.214741 
L 276.741818 55.214741 
L 277.094704 64.547723 
L 277.094704 64.547723 
L 277.447589 76.581271 
L 277.447589 76.581271 
L 277.800474 88.857335 
L 277.800474 88.857335 
L 278.15336 102.345866 
L 278.15336 102.345866 
L 278.85913 127.912451 
L 278.85913 127.912451 
L 279.564901 155.580487 
L 279.564901 155.580487 
L 280.270672 180.134569 
L 280.270672 180.134569 
L 280.8 196.640059 
L 280.8 196.640059 
L 281.152885 205.936186 
L 281.152885 205.936186 
L 281.505771 216.954998 
L 281.505771 216.954998 
L 281.858656 225.850525 
L 281.858656 225.850525 
L 282.211542 233.878065 
L 282.211542 233.878065 
L 282.564427 241.330836 
L 282.564427 241.330836 
L 283.093755 249.264452 
L 283.093755 249.264452 
L 283.623083 258.606202 
L 283.623083 258.606202 
L 283.799526 260.657899 
L 283.799526 260.657899 
L 284.152411 266.044511 
L 284.152411 266.044511 
L 284.681739 272.019404 
L 284.681739 272.019404 
L 285.034625 276.093147 
L 285.034625 276.093147 
L 285.563953 280.847532 
L 285.563953 280.847532 
L 286.093281 286.008101 
L 286.093281 286.008101 
L 287.151937 291.974116 
L 287.151937 291.974116 
L 287.857708 293.967068 
L 287.857708 293.967068 
L 288.387036 294.844492 
L 288.387036 294.844492 
L 288.739921 295.064616 
L 288.739921 295.064616 
L 289.622134 295.354485 
L 289.622134 295.354485 
L 290.504348 295.236996 
L 290.504348 295.236996 
L 291.033676 294.805851 
L 291.033676 294.805851 
L 291.386561 294.473599 
L 291.386561 294.473599 
L 291.915889 293.270959 
L 291.915889 293.270959 
L 292.445217 291.739641 
L 292.445217 291.739641 
L 292.62166 291.16666 
L 292.62166 291.16666 
L 294.209644 282.074686 
L 294.209644 282.074686 
L 294.915415 276.383854 
L 294.915415 276.383854 
L 296.150514 264.010348 
L 296.150514 264.010348 
L 297.914941 239.36586 
L 297.914941 239.36586 
L 298.797154 224.985832 
L 298.797154 224.985832 
L 299.85581 207.580861 
L 299.85581 207.580861 
L 300.738024 194.489524 
L 300.738024 194.489524 
L 302.678893 167.563499 
L 302.678893 167.563499 
L 303.208221 160.393448 
L 303.208221 160.393448 
L 303.561107 158.361574 
L 303.561107 158.361574 
L 304.44332 174.920727 
L 304.44332 174.920727 
L 304.796206 185.040449 
L 304.796206 185.040449 
L 305.325534 197.739226 
L 305.325534 197.739226 
L 306.913518 226.582205 
L 306.913518 226.582205 
L 307.442846 232.684136 
L 307.442846 232.684136 
L 307.972174 238.763172 
L 307.972174 238.763172 
L 309.560158 250.660022 
L 309.560158 250.660022 
L 310.9717 257.529929 
L 310.9717 257.529929 
L 311.324585 258.669525 
L 311.324585 258.669525 
L 312.383241 260.703632 
L 312.383241 260.703632 
L 312.912569 260.980993 
L 312.912569 260.980993 
L 313.971225 261.570726 
L 313.971225 261.570726 
L 315.382767 261.334687 
L 315.382767 261.334687 
L 316.088538 260.788287 
L 316.088538 260.788287 
L 317.147194 258.670642 
L 317.147194 258.670642 
L 317.500079 257.512451 
L 317.500079 257.512451 
L 317.852964 256.402171 
L 317.852964 256.402171 
L 318.558735 253.209538 
L 318.558735 253.209538 
L 320.323162 240.66745 
L 320.323162 240.66745 
L 320.85249 235.966393 
L 320.85249 235.966393 
L 322.969802 212.044371 
L 322.969802 212.044371 
L 325.44 176.920213 
L 325.44 176.920213 
L 326.322213 161.153048 
L 326.322213 161.153048 
L 327.557312 140.064884 
L 327.557312 140.064884 
L 327.910198 138.738166 
L 327.910198 138.738166 
L 328.08664 138.6797 
L 328.08664 138.6797 
L 331.086166 189.841237 
L 331.086166 189.841237 
L 331.615494 195.769671 
L 331.615494 195.769671 
L 332.67415 204.709032 
L 332.67415 204.709032 
L 333.203478 207.426238 
L 333.203478 207.426238 
L 333.732806 209.057902 
L 333.732806 209.057902 
L 334.262134 209.870607 
L 334.262134 209.870607 
L 334.61502 210.151038 
L 334.61502 210.151038 
L 334.967905 210.239937 
L 334.967905 210.239937 
L 336.203004 210.021879 
L 336.203004 210.021879 
L 336.555889 209.783216 
L 336.555889 209.783216 
L 336.908775 209.382169 
L 336.908775 209.382169 
L 337.26166 208.768368 
L 337.26166 208.768368 
L 337.614545 207.881786 
L 337.614545 207.881786 
L 338.673202 201.820842 
L 338.673202 201.820842 
L 339.555415 192.610877 
L 339.555415 192.610877 
L 340.614071 178.534622 
L 340.614071 178.534622 
L 340.966957 177.252018 
L 340.966957 177.252018 
L 341.143399 177.157983 
L 341.143399 177.157983 
L 341.672727 181.384338 
L 341.672727 181.384338 
L 342.554941 186.648994 
L 342.554941 186.648994 
L 342.907826 187.542221 
L 342.907826 187.542221 
L 343.260711 187.968509 
L 343.260711 187.968509 
L 343.613597 188.180257 
L 343.613597 188.180257 
L 344.49581 187.633186 
L 344.49581 187.633186 
L 344.848696 186.986328 
L 344.848696 186.986328 
L 345.554466 183.229592 
L 345.554466 183.229592 
L 346.083794 178.391335 
L 346.083794 178.391335 
L 346.789565 168.819857 
L 346.789565 168.819857 
L 347.142451 166.852089 
L 347.142451 166.852089 
L 347.318893 166.585729 
L 347.318893 166.585729 
L 348.906877 182.460443 
L 348.906877 182.460443 
L 349.436206 185.024311 
L 349.436206 185.024311 
L 349.789091 185.85924 
L 349.789091 185.85924 
L 350.141976 186.131631 
L 350.141976 186.131631 
L 350.318419 186.259729 
L 350.318419 186.259729 
L 350.494862 186.225052 
L 350.494862 186.225052 
L 350.847747 186.334835 
L 350.847747 186.334835 
L 351.200632 186.387493 
L 351.200632 186.387493 
L 351.906403 186.133697 
L 351.906403 186.133697 
L 352.965059 185.099807 
L 352.965059 185.099807 
L 353.317945 184.450492 
L 353.317945 184.450492 
L 353.847273 183.468143 
L 353.847273 183.468143 
L 354.729486 181.228431 
L 354.729486 181.228431 
L 355.964585 176.830924 
L 355.964585 176.830924 
L 357.376126 169.591519 
L 357.376126 169.591519 
L 358.081897 165.006053 
L 358.081897 165.006053 
L 361.963636 136.560883 
L 361.963636 136.560883 
L 363.198735 130.135132 
L 363.198735 130.135132 
L 364.080949 125.711659 
L 364.080949 125.711659 
L 364.786719 121.634734 
L 364.786719 121.634734 
L 365.49249 116.345508 
L 365.49249 116.345508 
L 366.198261 109.213763 
L 366.198261 109.213763 
L 367.43336 90.512116 
L 367.43336 90.512116 
L 368.13913 78.587737 
L 368.13913 78.587737 
L 368.844901 70.512174 
L 368.844901 70.512174 
L 369.550672 65.043141 
L 369.550672 65.043141 
L 370.256443 61.339343 
L 370.256443 61.339343 
L 370.962213 58.830981 
L 370.962213 58.830981 
L 371.667984 57.132253 
L 371.667984 57.132253 
L 372.373755 55.981824 
L 372.373755 55.981824 
L 373.079526 55.202735 
L 373.079526 55.202735 
L 373.961739 54.572294 
L 373.961739 54.572294 
L 375.020395 54.127747 
L 375.020395 54.127747 
L 376.431937 53.824699 
L 376.431937 53.824699 
L 378.549249 53.64774 
L 378.549249 53.64774 
L 382.783874 53.575706 
L 382.783874 53.575706 
L 397.252174 53.595474 
L 397.252174 53.595474 
L 397.428617 53.717206 
L 397.428617 53.717206 
L 398.487273 53.729659 
L 398.487273 53.729659 
" clip-path="url(#pa33e088eec)" style="fill: none; stroke: #1f77b4; stroke-width: 1.5; stroke-linecap: square"/>
   </g>
   <g id="line2d_28">
    <path d="M 73.832727 53.568 
L 92.359209 53.568 
L 92.359209 53.568 
L 92.712095 64.301075 
L 92.712095 64.301075 
L 93.06498 81.043441 
L 93.06498 81.043441 
L 93.241423 81.747815 
L 93.241423 81.747815 
L 93.594308 93.987806 
L 93.594308 93.987806 
L 93.770751 102.640035 
L 93.770751 102.640035 
L 93.947194 103.841 
L 93.947194 103.841 
L 94.300079 115.089316 
L 94.300079 115.089316 
L 94.476522 123.221892 
L 94.476522 123.221892 
L 94.652964 123.433026 
L 94.652964 123.433026 
L 94.829407 127.875652 
L 94.829407 127.875652 
L 95.00585 135.463391 
L 95.00585 135.463391 
L 95.182292 136.304407 
L 95.182292 136.304407 
L 95.358735 140.053771 
L 95.358735 140.053771 
L 95.535178 146.7647 
L 95.535178 146.7647 
L 95.711621 147.100582 
L 95.711621 147.100582 
L 95.888063 150.844753 
L 95.888063 150.844753 
L 96.064506 157.23337 
L 96.064506 157.23337 
L 96.240949 157.310095 
L 96.240949 157.310095 
L 96.593834 167.080365 
L 96.593834 167.080365 
L 96.770277 165.858069 
L 96.770277 165.858069 
L 96.946719 170.797677 
L 96.946719 170.797677 
L 97.123162 171.515676 
L 97.123162 171.515676 
L 97.299605 174.268229 
L 97.299605 174.268229 
L 97.476047 179.502899 
L 97.476047 179.502899 
L 97.65249 178.668137 
L 97.828933 182.412085 
L 97.828933 182.412085 
L 98.005375 182.854231 
L 98.005375 182.854231 
L 98.181818 185.141576 
L 98.181818 185.141576 
L 98.358261 185.857621 
L 98.358261 185.857621 
L 98.711146 190.954867 
L 98.711146 190.954867 
L 98.887589 191.200175 
L 98.887589 191.200175 
L 99.064032 193.353278 
L 99.064032 193.353278 
L 99.240474 193.781073 
L 99.416917 195.049438 
L 99.59336 195.458694 
L 99.59336 195.458694 
L 99.946245 198.071813 
L 99.946245 198.071813 
L 100.122688 197.933161 
L 100.122688 197.933161 
L 100.29913 198.760496 
L 100.29913 198.760496 
L 100.475573 198.866481 
L 100.475573 198.866481 
L 100.828458 199.385632 
L 100.828458 199.385632 
L 101.004901 199.354138 
L 101.004901 199.354138 
L 101.181344 199.602405 
L 101.181344 199.602405 
L 101.357787 199.425558 
L 101.357787 199.425558 
L 101.534229 199.648474 
L 101.710672 199.466712 
L 101.710672 199.466712 
L 101.887115 198.877035 
L 101.887115 198.877035 
L 102.063557 199.508258 
L 102.063557 199.508258 
L 102.24 199.204764 
L 102.24 199.204764 
L 102.416443 199.447112 
L 102.416443 199.447112 
L 102.592885 198.898757 
L 102.592885 198.898757 
L 102.769328 199.128206 
L 102.769328 199.128206 
L 102.945771 198.318684 
L 102.945771 198.318684 
L 103.122213 198.42199 
L 103.122213 198.42199 
L 103.298656 197.374698 
L 103.298656 197.374698 
L 103.475099 197.162616 
L 103.475099 197.162616 
L 103.651542 195.898327 
L 103.651542 195.898327 
L 103.827984 192.808776 
L 103.827984 192.808776 
L 104.004427 193.822284 
L 104.004427 193.822284 
L 104.18087 189.880939 
L 104.18087 189.880939 
L 104.357312 190.69839 
L 104.357312 190.69839 
L 104.533755 186.426748 
L 104.533755 186.426748 
L 104.710198 186.588351 
L 104.710198 186.588351 
L 104.88664 182.54292 
L 104.88664 182.54292 
L 105.063083 181.63791 
L 105.063083 181.63791 
L 105.592411 170.96693 
L 105.592411 170.96693 
L 105.768854 160.295224 
L 105.768854 160.295224 
L 105.945296 162.594295 
L 105.945296 162.594295 
L 106.121739 151.725863 
L 106.121739 151.725863 
L 106.298182 151.690404 
L 106.298182 151.690404 
L 106.651067 138.854314 
L 106.651067 138.854314 
L 106.82751 132.453803 
L 106.82751 132.453803 
L 107.003953 121.549018 
L 107.003953 121.549018 
L 107.180395 121.478101 
L 107.180395 121.478101 
L 107.886166 135.678489 
L 107.886166 135.678489 
L 108.062609 135.927427 
L 108.062609 135.927427 
L 108.591937 141.074203 
L 108.591937 141.074203 
L 108.944822 143.120428 
L 108.944822 143.120428 
L 109.121265 143.212062 
L 109.121265 143.212062 
L 109.650593 144.417774 
L 109.650593 144.417774 
L 110.179921 144.013767 
L 110.179921 144.013767 
L 110.356364 143.84563 
L 110.356364 143.84563 
L 110.532806 144.125392 
L 110.532806 144.125392 
L 110.709249 143.925259 
L 110.709249 143.925259 
L 110.885692 143.48758 
L 110.885692 143.48758 
L 111.062134 143.817152 
L 111.062134 143.817152 
L 111.238577 143.763154 
L 111.238577 143.763154 
L 111.41502 142.328608 
L 111.41502 142.328608 
L 111.591462 143.282701 
L 111.591462 143.282701 
L 111.767905 141.79706 
L 111.767905 141.79706 
L 111.944348 141.864013 
L 111.944348 141.864013 
L 112.120791 141.414719 
L 112.297233 139.086444 
L 112.297233 139.086444 
L 112.473676 139.283617 
L 112.473676 139.283617 
L 112.650119 138.002688 
L 112.650119 138.002688 
L 112.826561 134.987573 
L 112.826561 134.987573 
L 113.003004 135.510074 
L 113.003004 135.510074 
L 113.179447 133.768348 
L 113.179447 133.768348 
L 113.355889 129.159261 
L 113.355889 129.159261 
L 113.532332 130.220233 
L 113.532332 130.220233 
L 113.708775 126.751301 
L 113.885217 125.898167 
L 113.885217 125.898167 
L 114.06166 123.35323 
L 114.06166 123.35323 
L 114.238103 117.603039 
L 114.238103 117.603039 
L 114.414545 116.802284 
L 115.120316 98.387546 
L 115.120316 98.387546 
L 115.473202 102.179015 
L 115.473202 102.179015 
L 116.355415 133.707705 
L 116.355415 133.707705 
L 116.7083 139.789254 
L 116.7083 139.789254 
L 116.884743 145.173521 
L 116.884743 145.173521 
L 117.061186 146.521793 
L 117.061186 146.521793 
L 117.943399 160.595033 
L 117.943399 160.595033 
L 118.119842 161.083415 
L 118.119842 161.083415 
L 118.825613 167.589465 
L 118.825613 167.589465 
L 119.002055 168.01927 
L 119.002055 168.01927 
L 119.354941 169.448846 
L 119.354941 169.448846 
L 119.531383 169.761387 
L 119.531383 169.761387 
L 119.707826 170.555831 
L 119.707826 170.555831 
L 120.060711 171.073586 
L 120.060711 171.073586 
L 120.237154 170.545054 
L 120.237154 170.545054 
L 120.59004 171.420245 
L 120.59004 171.420245 
L 120.766482 171.376075 
L 120.766482 171.376075 
L 120.942925 171.538013 
L 120.942925 171.538013 
L 121.119368 171.188897 
L 121.119368 171.188897 
L 121.29581 171.609433 
L 121.29581 171.609433 
L 121.472253 171.105973 
L 121.472253 171.105973 
L 121.825138 171.519753 
L 121.825138 171.519753 
L 122.001581 170.8739 
L 122.001581 170.8739 
L 122.178024 171.576598 
L 122.178024 171.576598 
L 122.354466 170.859046 
L 122.354466 170.859046 
L 122.707352 171.317107 
L 122.707352 171.317107 
L 122.883794 171.410975 
L 122.883794 171.410975 
L 123.060237 171.259368 
L 123.23668 170.1841 
L 123.23668 170.1841 
L 123.413123 170.663883 
L 123.413123 170.663883 
L 123.766008 170.68326 
L 123.766008 170.68326 
L 123.942451 170.495133 
L 123.942451 170.495133 
L 124.118893 169.045844 
L 124.118893 169.045844 
L 124.295336 170.201355 
L 124.295336 170.201355 
L 124.471779 169.181426 
L 124.471779 169.181426 
L 124.648221 169.429861 
L 124.648221 169.429861 
L 125.001107 168.357664 
L 125.001107 168.357664 
L 125.177549 168.917523 
L 125.177549 168.917523 
L 125.353992 167.380285 
L 125.353992 167.380285 
L 125.530435 167.771449 
L 125.530435 167.771449 
L 125.706877 166.934398 
L 125.706877 166.934398 
L 125.88332 166.949252 
L 125.88332 166.949252 
L 126.059763 167.169319 
L 126.059763 167.169319 
L 126.236206 165.063289 
L 126.236206 165.063289 
L 126.412648 165.616279 
L 126.412648 165.616279 
L 126.589091 164.370028 
L 126.589091 164.370028 
L 126.765534 164.479866 
L 126.941976 164.844785 
L 126.941976 164.844785 
L 127.118419 162.612443 
L 127.118419 162.612443 
L 127.294862 163.40136 
L 127.294862 163.40136 
L 127.471304 162.222508 
L 127.471304 162.222508 
L 127.647747 162.403544 
L 127.647747 162.403544 
L 128.000632 159.26865 
L 128.000632 159.26865 
L 128.177075 160.314936 
L 128.177075 160.314936 
L 128.353518 159.09532 
L 128.353518 159.09532 
L 128.52996 159.298357 
L 128.52996 159.298357 
L 128.706403 158.935002 
L 128.706403 158.935002 
L 128.882846 156.038547 
L 128.882846 156.038547 
L 129.059289 157.06166 
L 129.059289 157.06166 
L 129.235731 155.556866 
L 129.235731 155.556866 
L 129.412174 155.701605 
L 129.588617 155.480197 
L 129.765059 152.912476 
L 129.765059 152.912476 
L 129.941502 153.864503 
L 129.941502 153.864503 
L 130.117945 152.018747 
L 130.117945 152.018747 
L 130.294387 152.034829 
L 130.294387 152.034829 
L 130.47083 151.448111 
L 130.47083 151.448111 
L 130.647273 149.013515 
L 130.647273 149.013515 
L 130.823715 149.474088 
L 130.823715 149.474088 
L 131.000158 147.604376 
L 131.000158 147.604376 
L 131.176601 147.390004 
L 131.176601 147.390004 
L 131.353043 146.77827 
L 131.353043 146.77827 
L 131.529486 144.806704 
L 131.529486 144.806704 
L 131.705929 145.009014 
L 131.705929 145.009014 
L 131.882372 143.851438 
L 131.882372 143.851438 
L 132.058814 140.988711 
L 132.058814 140.988711 
L 132.235257 141.604578 
L 132.235257 141.604578 
L 132.941028 136.219864 
L 132.941028 136.219864 
L 133.11747 136.357232 
L 133.11747 136.357232 
L 133.293913 135.036377 
L 133.293913 135.036377 
L 133.470356 132.306607 
L 133.470356 132.306607 
L 133.646798 132.786446 
L 133.823241 131.005185 
L 133.823241 131.005185 
L 133.999684 128.093598 
L 133.999684 128.093598 
L 134.176126 128.910212 
L 134.176126 128.910212 
L 134.352569 126.691384 
L 134.352569 126.691384 
L 134.529012 126.284975 
L 134.529012 126.284975 
L 134.705455 124.690669 
L 134.705455 124.690669 
L 134.881897 122.057503 
L 134.881897 122.057503 
L 135.05834 121.828947 
L 135.234783 120.094202 
L 135.234783 120.094202 
L 135.411225 117.103042 
L 135.411225 117.103042 
L 135.587668 116.997615 
L 135.587668 116.997615 
L 135.764111 115.232492 
L 135.940553 111.836319 
L 135.940553 111.836319 
L 136.116996 111.775956 
L 136.116996 111.775956 
L 136.469881 106.265321 
L 136.469881 106.265321 
L 136.646324 106.139848 
L 136.646324 106.139848 
L 137.528538 94.121042 
L 137.528538 94.121042 
L 137.70498 89.666633 
L 137.70498 89.666633 
L 137.881423 90.919753 
L 137.881423 90.919753 
L 138.234308 82.355194 
L 138.234308 82.355194 
L 138.410751 83.593572 
L 138.410751 83.593572 
L 138.940079 75.020357 
L 138.940079 75.020357 
L 139.292964 68.455284 
L 139.292964 68.455284 
L 139.469407 62.192253 
L 139.469407 62.192253 
L 139.64585 62.797007 
L 139.64585 62.797007 
L 139.822292 60.096944 
L 139.822292 60.096944 
L 139.998735 55.206588 
L 139.998735 55.206588 
L 140.175178 53.568 
L 140.175178 53.568 
L 150.585296 53.568 
L 150.585296 53.568 
L 150.761739 56.642251 
L 150.761739 56.642251 
L 151.114625 74.235294 
L 151.114625 74.235294 
L 151.291067 72.400314 
L 151.291067 72.400314 
L 151.643953 87.231199 
L 151.643953 87.231199 
L 151.820395 96.052905 
L 151.820395 96.052905 
L 151.996838 95.43715 
L 151.996838 95.43715 
L 152.349723 108.362026 
L 152.349723 108.362026 
L 152.526166 118.446624 
L 152.526166 118.446624 
L 152.702609 116.718691 
L 152.702609 116.718691 
L 152.879051 122.102176 
L 152.879051 122.102176 
L 153.055494 131.330122 
L 153.055494 131.330122 
L 153.231937 131.393892 
L 153.231937 131.393892 
L 153.408379 136.269004 
L 153.408379 136.269004 
L 153.584822 145.026046 
L 153.584822 145.026046 
L 153.761265 145.453227 
L 153.937708 150.023281 
L 153.937708 150.023281 
L 154.11415 158.661606 
L 154.11415 158.661606 
L 154.290593 158.297022 
L 154.290593 158.297022 
L 154.643478 172.707818 
L 154.643478 172.707818 
L 154.819921 171.304264 
L 154.819921 171.304264 
L 154.996364 178.11001 
L 154.996364 178.11001 
L 155.172806 178.926624 
L 155.172806 178.926624 
L 155.349249 183.001762 
L 155.349249 183.001762 
L 155.525692 191.221282 
L 155.525692 191.221282 
L 155.702134 189.369886 
L 155.702134 189.369886 
L 155.878577 196.266596 
L 155.878577 196.266596 
L 156.05502 195.921948 
L 156.05502 195.921948 
L 156.231462 200.969552 
L 156.231462 200.969552 
L 156.407905 202.147733 
L 156.407905 202.147733 
L 157.113676 217.130952 
L 157.113676 217.130952 
L 157.290119 215.238903 
L 157.290119 215.238903 
L 157.466561 220.915719 
L 157.466561 220.915719 
L 157.643004 219.549634 
L 157.643004 219.549634 
L 157.819447 224.684851 
L 157.995889 223.659338 
L 157.995889 223.659338 
L 158.172332 228.196223 
L 158.172332 228.196223 
L 158.348775 227.563604 
L 158.348775 227.563604 
L 158.525217 231.422305 
L 158.525217 231.422305 
L 158.70166 230.714636 
L 158.70166 230.714636 
L 158.878103 234.397215 
L 158.878103 234.397215 
L 159.054545 234.090594 
L 159.054545 234.090594 
L 159.230988 237.052829 
L 159.230988 237.052829 
L 159.407431 236.814724 
L 159.407431 236.814724 
L 159.583874 239.381439 
L 159.583874 239.381439 
L 159.760316 238.669136 
L 159.760316 238.669136 
L 159.936759 241.38651 
L 160.113202 240.872887 
L 160.113202 240.872887 
L 160.818972 244.017498 
L 160.818972 244.017498 
L 160.995415 244.54212 
L 160.995415 244.54212 
L 161.171858 245.45115 
L 161.171858 245.45115 
L 161.3483 245.530556 
L 161.3483 245.530556 
L 161.701186 246.263073 
L 161.701186 246.263073 
L 162.406957 247.436955 
L 162.406957 247.436955 
L 162.583399 247.006871 
L 162.759842 247.379272 
L 162.759842 247.379272 
L 162.936285 247.022897 
L 162.936285 247.022897 
L 163.112727 247.234589 
L 163.112727 247.234589 
L 163.28917 247.005754 
L 163.28917 247.005754 
L 163.465613 247.497989 
L 163.465613 247.497989 
L 163.642055 246.971635 
L 163.642055 246.971635 
L 163.818498 247.575105 
L 163.818498 247.575105 
L 163.994941 246.869559 
L 163.994941 246.869559 
L 164.171383 247.246483 
L 164.171383 247.246483 
L 164.347826 247.21806 
L 164.347826 247.21806 
L 164.524269 247.470795 
L 164.524269 247.470795 
L 164.700711 246.981854 
L 164.700711 246.981854 
L 164.877154 247.312989 
L 164.877154 247.312989 
L 165.23004 246.281054 
L 165.23004 246.281054 
L 165.759368 245.181775 
L 165.759368 245.181775 
L 166.288696 243.163638 
L 166.288696 243.163638 
L 166.465138 242.953175 
L 166.641581 241.658342 
L 166.641581 241.658342 
L 166.818024 242.206976 
L 166.818024 242.206976 
L 166.994466 239.811803 
L 166.994466 239.811803 
L 167.170909 240.30482 
L 167.170909 240.30482 
L 167.347352 237.334656 
L 167.347352 237.334656 
L 167.523794 238.767751 
L 167.523794 238.767751 
L 167.700237 235.020899 
L 167.700237 235.020899 
L 167.87668 236.373304 
L 167.87668 236.373304 
L 168.053123 232.498019 
L 168.053123 232.498019 
L 168.229565 234.488794 
L 168.229565 234.488794 
L 168.935336 228.759264 
L 168.935336 228.759264 
L 169.111779 227.777362 
L 169.111779 227.777362 
L 169.288221 225.41547 
L 169.288221 225.41547 
L 169.464664 224.964836 
L 169.464664 224.964836 
L 169.641107 222.304364 
L 169.641107 222.304364 
L 169.817549 221.992327 
L 169.817549 221.992327 
L 169.993992 219.069739 
L 169.993992 219.069739 
L 170.170435 218.870891 
L 170.170435 218.870891 
L 170.346877 215.750013 
L 170.346877 215.750013 
L 170.52332 215.611528 
L 170.52332 215.611528 
L 170.699763 212.326199 
L 170.876206 212.225463 
L 170.876206 212.225463 
L 171.052648 208.842692 
L 171.229091 208.722411 
L 171.229091 208.722411 
L 171.405534 205.315685 
L 171.405534 205.315685 
L 171.581976 205.112034 
L 171.581976 205.112034 
L 171.758419 201.742442 
L 171.758419 201.742442 
L 171.934862 201.404159 
L 171.934862 201.404159 
L 172.111304 198.061036 
L 172.287747 197.607554 
L 172.287747 197.607554 
L 172.46419 194.46769 
L 172.46419 194.46769 
L 172.640632 193.733832 
L 172.640632 193.733832 
L 172.993518 189.797848 
L 172.993518 189.797848 
L 173.16996 187.442267 
L 173.16996 187.442267 
L 173.346403 181.63724 
L 173.346403 181.63724 
L 173.522846 183.567093 
L 173.522846 183.567093 
L 173.699289 178.053778 
L 173.699289 178.053778 
L 173.875731 179.552988 
L 173.875731 179.552988 
L 174.052174 174.881025 
L 174.052174 174.881025 
L 174.228617 175.570936 
L 174.228617 175.570936 
L 174.405059 171.73245 
L 174.581502 171.370993 
L 174.581502 171.370993 
L 174.757945 168.247323 
L 174.757945 168.247323 
L 174.934387 167.126155 
L 174.934387 167.126155 
L 175.11083 165.268113 
L 175.11083 165.268113 
L 175.287273 160.098498 
L 175.287273 160.098498 
L 175.463715 161.55806 
L 175.463715 161.55806 
L 175.640158 156.959695 
L 175.640158 156.959695 
L 175.816601 157.191378 
L 175.816601 157.191378 
L 176.169486 153.825248 
L 176.169486 153.825248 
L 176.345929 152.239317 
L 176.345929 152.239317 
L 176.522372 148.162168 
L 176.522372 148.162168 
L 176.698814 148.868943 
L 176.698814 148.868943 
L 176.875257 145.524814 
L 176.875257 145.524814 
L 177.228142 143.790125 
L 177.228142 143.790125 
L 177.404585 139.433437 
L 177.404585 139.433437 
L 177.581028 140.083199 
L 177.581028 140.083199 
L 177.933913 136.24879 
L 177.933913 136.24879 
L 178.110356 134.687485 
L 178.110356 134.687485 
L 178.286798 130.720175 
L 178.286798 130.720175 
L 178.463241 130.446555 
L 178.463241 130.446555 
L 178.639684 128.288203 
L 178.639684 128.288203 
L 178.816126 122.69163 
L 178.816126 122.69163 
L 178.992569 123.632656 
L 178.992569 123.632656 
L 179.345455 118.498165 
L 179.345455 118.498165 
L 179.521897 115.739804 
L 179.521897 115.739804 
L 179.69834 109.732635 
L 179.69834 109.732635 
L 179.874783 108.736717 
L 179.874783 108.736717 
L 180.051225 104.934136 
L 180.051225 104.934136 
L 180.227668 97.830648 
L 180.227668 97.830648 
L 180.404111 96.688315 
L 180.404111 96.688315 
L 181.109881 75.9797 
L 181.109881 75.9797 
L 181.462767 55.490649 
L 181.462767 55.490649 
L 181.639209 56.168722 
L 181.639209 56.168722 
L 181.815652 56.274429 
L 181.815652 56.274429 
L 181.992095 66.737179 
L 181.992095 66.737179 
L 182.168538 68.024306 
L 182.168538 68.024306 
L 182.521423 81.491004 
L 182.521423 81.491004 
L 182.697866 92.11089 
L 182.697866 92.11089 
L 182.874308 92.234745 
L 183.227194 107.127054 
L 183.227194 107.127054 
L 183.403636 117.259731 
L 183.403636 117.259731 
L 183.580079 115.70334 
L 183.580079 115.70334 
L 183.756522 121.568842 
L 183.756522 121.568842 
L 183.932964 132.152543 
L 183.932964 132.152543 
L 184.109407 132.924763 
L 184.109407 132.924763 
L 184.28585 138.419651 
L 184.28585 138.419651 
L 184.462292 148.261788 
L 184.462292 148.261788 
L 184.638735 149.137816 
L 184.638735 149.137816 
L 184.815178 154.386614 
L 184.815178 154.386614 
L 184.991621 165.240081 
L 184.991621 165.240081 
L 185.168063 165.293465 
L 185.168063 165.293465 
L 185.344506 171.656506 
L 185.344506 171.656506 
L 185.520949 182.921687 
L 185.520949 182.921687 
L 185.697391 180.134624 
L 185.697391 180.134624 
L 185.873834 189.821357 
L 185.873834 189.821357 
L 186.050277 189.978046 
L 186.050277 189.978046 
L 186.226719 196.16949 
L 186.226719 196.16949 
L 186.403162 198.45622 
L 186.403162 198.45622 
L 186.579605 202.960997 
L 186.579605 202.960997 
L 186.756047 213.374663 
L 186.756047 213.374663 
L 186.93249 210.816715 
L 186.93249 210.816715 
L 187.108933 220.326209 
L 187.108933 220.326209 
L 187.285375 218.185893 
L 187.285375 218.185893 
L 187.461818 226.306408 
L 187.461818 226.306408 
L 187.638261 225.232592 
L 187.638261 225.232592 
L 187.814704 232.248746 
L 187.814704 232.248746 
L 187.991146 231.363784 
L 187.991146 231.363784 
L 188.167589 238.162606 
L 188.167589 238.162606 
L 188.344032 237.517479 
L 188.344032 237.517479 
L 188.520474 243.830431 
L 188.520474 243.830431 
L 188.696917 242.82301 
L 188.696917 242.82301 
L 188.87336 248.711183 
L 188.87336 248.711183 
L 189.049802 247.193434 
L 189.049802 247.193434 
L 189.226245 253.538328 
L 189.226245 253.538328 
L 189.402688 251.688271 
L 189.402688 251.688271 
L 190.461344 263.572557 
L 190.461344 263.572557 
L 190.637787 263.344448 
L 190.637787 263.344448 
L 190.814229 266.682993 
L 190.814229 266.682993 
L 190.990672 266.043394 
L 190.990672 266.043394 
L 191.696443 270.259475 
L 191.696443 270.259475 
L 191.872885 270.485518 
L 191.872885 270.485518 
L 192.049328 271.352667 
L 192.049328 271.352667 
L 192.225771 271.640135 
L 192.225771 271.640135 
L 192.402213 272.472272 
L 192.402213 272.472272 
L 192.578656 272.545926 
L 192.578656 272.545926 
L 192.755099 272.938151 
L 192.755099 272.938151 
L 192.931542 273.036095 
L 192.931542 273.036095 
L 193.107984 273.480922 
L 193.107984 273.480922 
L 193.284427 273.247061 
L 193.284427 273.247061 
L 193.46087 273.905087 
L 193.46087 273.905087 
L 193.637312 273.78302 
L 193.637312 273.78302 
L 193.813755 273.853155 
L 193.813755 273.853155 
L 193.990198 274.368453 
L 193.990198 274.368453 
L 194.16664 274.305074 
L 194.16664 274.305074 
L 194.519526 274.659271 
L 194.519526 274.659271 
L 194.695968 274.089696 
L 194.695968 274.089696 
L 194.872411 274.6323 
L 194.872411 274.6323 
L 195.048854 274.105834 
L 195.048854 274.105834 
L 195.225296 274.571992 
L 195.225296 274.571992 
L 195.401739 274.720137 
L 195.401739 274.720137 
L 195.578182 274.495714 
L 195.931067 274.755094 
L 195.931067 274.755094 
L 196.460395 274.248172 
L 196.460395 274.248172 
L 196.636838 274.464164 
L 196.636838 274.464164 
L 196.813281 273.573841 
L 196.813281 273.573841 
L 196.989723 274.00655 
L 196.989723 274.00655 
L 197.166166 273.94881 
L 197.166166 273.94881 
L 197.342609 272.684969 
L 197.342609 272.684969 
L 197.519051 273.238797 
L 197.519051 273.238797 
L 197.695494 271.271084 
L 197.695494 271.271084 
L 197.871937 272.229924 
L 197.871937 272.229924 
L 198.224822 270.418788 
L 198.401265 270.531865 
L 198.577708 267.230678 
L 198.577708 267.230678 
L 198.75415 268.804658 
L 198.75415 268.804658 
L 199.107036 266.058192 
L 199.107036 266.058192 
L 199.283478 266.057913 
L 199.283478 266.057913 
L 199.459921 262.342779 
L 199.459921 262.342779 
L 199.636364 263.80921 
L 199.636364 263.80921 
L 199.812806 262.40761 
L 199.812806 262.40761 
L 199.989249 259.888806 
L 199.989249 259.888806 
L 200.165692 259.077776 
L 200.165692 259.077776 
L 200.342134 255.258052 
L 200.342134 255.258052 
L 200.518577 256.438859 
L 200.518577 256.438859 
L 200.69502 250.196154 
L 200.69502 250.196154 
L 200.871462 252.729085 
L 200.871462 252.729085 
L 201.047905 250.747357 
L 201.047905 250.747357 
L 201.224348 247.030603 
L 201.224348 247.030603 
L 201.400791 246.500229 
L 201.400791 246.500229 
L 201.577233 241.19721 
L 201.577233 241.19721 
L 201.753676 241.646392 
L 201.753676 241.646392 
L 201.930119 235.225443 
L 201.930119 235.225443 
L 202.106561 236.719516 
L 202.106561 236.719516 
L 202.283004 229.135686 
L 202.283004 229.135686 
L 202.459447 231.84284 
L 202.459447 231.84284 
L 202.988775 223.047659 
L 202.988775 223.047659 
L 203.165217 217.490789 
L 203.34166 216.741854 
L 203.34166 216.741854 
L 203.518103 209.759986 
L 203.518103 209.759986 
L 203.694545 209.880323 
L 203.870988 201.467818 
L 203.870988 201.467818 
L 204.047431 202.798054 
L 204.047431 202.798054 
L 204.223874 193.041129 
L 204.223874 193.041129 
L 204.400316 194.337135 
L 204.400316 194.337135 
L 204.576759 184.08066 
L 204.576759 184.08066 
L 204.753202 185.503312 
L 204.753202 185.503312 
L 204.929644 175.15939 
L 204.929644 175.15939 
L 205.106087 175.851926 
L 205.106087 175.851926 
L 205.28253 165.864491 
L 205.28253 165.864491 
L 205.458972 166.319648 
L 205.458972 166.319648 
L 205.635415 156.572998 
L 205.635415 156.572998 
L 205.811858 155.831379 
L 205.811858 155.831379 
L 205.9883 147.339524 
L 205.9883 147.339524 
L 206.164743 144.752092 
L 206.164743 144.752092 
L 206.341186 138.955665 
L 206.341186 138.955665 
L 206.517628 125.433629 
L 206.694071 128.232418 
L 206.694071 128.232418 
L 206.870514 116.87175 
L 206.870514 116.87175 
L 207.046957 116.814402 
L 207.046957 116.814402 
L 207.223399 109.773566 
L 207.223399 109.773566 
L 207.399842 97.553734 
L 207.399842 97.553734 
L 207.576285 100.174391 
L 207.576285 100.174391 
L 207.752727 90.86475 
L 207.752727 90.86475 
L 207.92917 88.949248 
L 207.92917 88.949248 
L 208.105613 83.873278 
L 208.105613 83.873278 
L 208.282055 73.825703 
L 208.282055 73.825703 
L 208.458498 73.185154 
L 208.458498 73.185154 
L 209.164269 53.594245 
L 209.164269 53.594245 
L 210.046482 53.568 
L 210.046482 53.568 
L 214.986877 53.568 
L 214.986877 53.568 
L 215.16332 53.722455 
L 215.16332 53.722455 
L 215.516206 61.758762 
L 215.516206 61.758762 
L 215.869091 73.201739 
L 215.869091 73.201739 
L 216.045534 72.522382 
L 216.045534 72.522382 
L 216.398419 82.278301 
L 216.398419 82.278301 
L 216.574862 88.487558 
L 216.574862 88.487558 
L 216.751304 88.594269 
L 216.751304 88.594269 
L 216.927747 91.524507 
L 216.927747 91.524507 
L 217.280632 104.181069 
L 217.280632 104.181069 
L 217.457075 103.931852 
L 217.633518 107.678425 
L 217.633518 107.678425 
L 217.80996 114.058889 
L 217.986403 115.569155 
L 217.986403 115.569155 
L 218.339289 124.202343 
L 218.339289 124.202343 
L 218.515731 131.997027 
L 218.515731 131.997027 
L 218.692174 130.636525 
L 218.692174 130.636525 
L 219.574387 152.933305 
L 219.574387 152.933305 
L 219.75083 152.257298 
L 219.75083 152.257298 
L 220.103715 158.679698 
L 220.103715 158.679698 
L 220.280158 161.209615 
L 220.280158 161.209615 
L 220.456601 167.078355 
L 220.456601 167.078355 
L 220.633043 167.494815 
L 220.633043 167.494815 
L 220.809486 170.705596 
L 220.985929 176.828355 
L 220.985929 176.828355 
L 221.162372 175.902182 
L 221.162372 175.902182 
L 221.338814 179.860223 
L 221.338814 179.860223 
L 221.515257 179.961183 
L 221.868142 184.802177 
L 221.868142 184.802177 
L 222.044585 187.010786 
L 222.044585 187.010786 
L 222.221028 191.083691 
L 222.221028 191.083691 
L 222.39747 190.767689 
L 222.39747 190.767689 
L 222.573913 193.597972 
L 222.573913 193.597972 
L 222.750356 193.669951 
L 222.750356 193.669951 
L 222.926798 195.886768 
L 222.926798 195.886768 
L 223.103241 196.539211 
L 223.103241 196.539211 
L 223.279684 198.008936 
L 223.279684 198.008936 
L 223.456126 200.589947 
L 223.456126 200.589947 
L 223.632569 200.193869 
L 223.632569 200.193869 
L 223.809012 201.968094 
L 223.809012 201.968094 
L 223.985455 201.964129 
L 223.985455 201.964129 
L 224.161897 203.070277 
L 224.161897 203.070277 
L 224.33834 203.335017 
L 224.33834 203.335017 
L 224.691225 204.327529 
L 224.691225 204.327529 
L 225.220553 204.97891 
L 225.220553 204.97891 
L 225.926324 205.31401 
L 225.926324 205.31401 
L 226.102767 205.135208 
L 226.102767 205.135208 
L 226.279209 205.351256 
L 226.279209 205.351256 
L 226.455652 205.164859 
L 226.455652 205.164859 
L 226.632095 205.381745 
L 226.632095 205.381745 
L 226.808538 205.145204 
L 226.808538 205.145204 
L 226.98498 205.354885 
L 226.98498 205.354885 
L 227.161423 205.016714 
L 227.161423 205.016714 
L 227.337866 205.180216 
L 227.337866 205.180216 
L 227.514308 204.724109 
L 227.514308 204.724109 
L 227.690751 204.758563 
L 227.690751 204.758563 
L 227.867194 204.073454 
L 227.867194 204.073454 
L 228.043636 202.667498 
L 228.043636 202.667498 
L 228.220079 203.241317 
L 228.220079 203.241317 
L 228.396522 201.367751 
L 228.396522 201.367751 
L 228.572964 201.864007 
L 228.572964 201.864007 
L 228.749407 199.673769 
L 228.749407 199.673769 
L 228.92585 199.970172 
L 228.92585 199.970172 
L 229.102292 197.514467 
L 229.102292 197.514467 
L 229.278735 197.478171 
L 229.278735 197.478171 
L 229.455178 194.802064 
L 229.455178 194.802064 
L 229.631621 194.073958 
L 229.631621 194.073958 
L 230.160949 187.513519 
L 230.160949 187.513519 
L 230.337391 179.591518 
L 230.337391 179.591518 
L 230.513834 182.217257 
L 230.513834 182.217257 
L 230.690277 174.517669 
L 230.690277 174.517669 
L 230.866719 175.814233 
L 230.866719 175.814233 
L 231.043162 168.284066 
L 231.043162 168.284066 
L 231.219605 167.97711 
L 231.219605 167.97711 
L 231.57249 158.41278 
L 231.57249 158.41278 
L 231.748933 153.650522 
L 231.748933 153.650522 
L 231.925375 140.508873 
L 231.925375 140.508873 
L 232.101818 143.466528 
L 232.101818 143.466528 
L 232.278261 132.104967 
L 232.278261 132.104967 
L 232.454704 131.332579 
L 232.454704 131.332579 
L 232.807589 117.957404 
L 232.807589 117.957404 
L 232.984032 110.860057 
L 232.984032 110.860057 
L 233.160474 98.94115 
L 233.160474 98.94115 
L 233.336917 97.358627 
L 233.336917 97.358627 
L 233.51336 91.538523 
L 233.51336 91.538523 
L 233.689802 79.451536 
L 233.689802 79.451536 
L 233.866245 79.88324 
L 233.866245 79.88324 
L 234.21913 65.449382 
L 234.395573 65.664536 
L 234.924901 54.19537 
L 234.924901 54.19537 
L 235.101344 53.568 
L 235.101344 53.568 
L 241.276838 53.568 
L 241.276838 53.568 
L 241.453281 54.887124 
L 241.453281 54.887124 
L 241.806166 62.600783 
L 241.806166 62.600783 
L 241.982609 63.262774 
L 241.982609 63.262774 
L 242.511937 72.479775 
L 242.511937 72.479775 
L 242.688379 76.869241 
L 242.688379 76.869241 
L 242.864822 76.521075 
L 242.864822 76.521075 
L 244.805692 109.962698 
L 244.805692 109.962698 
L 244.982134 109.048475 
L 244.982134 109.048475 
L 245.511462 117.01956 
L 245.511462 117.01956 
L 245.687905 119.223032 
L 245.687905 119.223032 
L 245.864348 123.414319 
L 245.864348 123.414319 
L 246.040791 124.079326 
L 246.040791 124.079326 
L 246.217233 126.078812 
L 246.217233 126.078812 
L 246.570119 130.729053 
L 246.570119 130.729053 
L 246.746561 131.94247 
L 246.746561 131.94247 
L 246.923004 134.618913 
L 246.923004 134.618913 
L 247.099447 135.434577 
L 247.099447 135.434577 
L 247.98166 142.064872 
L 247.98166 142.064872 
L 248.334545 143.071567 
L 248.334545 143.071567 
L 248.510988 144.190111 
L 248.510988 144.190111 
L 248.863874 144.813181 
L 248.863874 144.813181 
L 249.393202 146.072109 
L 249.393202 146.072109 
L 249.569644 145.662238 
L 249.569644 145.662238 
L 249.746087 145.91542 
L 249.746087 145.91542 
L 249.92253 145.804744 
L 249.92253 145.804744 
L 250.098972 146.084785 
L 250.098972 146.084785 
L 250.451858 145.76962 
L 250.451858 145.76962 
L 250.6283 146.049437 
L 250.6283 146.049437 
L 250.804743 146.642298 
L 250.804743 146.642298 
L 250.981186 145.551953 
L 250.981186 145.551953 
L 251.157628 145.842213 
L 251.157628 145.842213 
L 251.334071 145.908719 
L 251.334071 145.908719 
L 251.510514 144.625668 
L 251.510514 144.625668 
L 251.686957 145.478299 
L 251.686957 145.478299 
L 251.863399 144.188771 
L 251.863399 144.188771 
L 252.039842 144.170567 
L 252.039842 144.170567 
L 252.216285 143.768961 
L 252.216285 143.768961 
L 252.392727 141.693867 
L 252.392727 141.693867 
L 252.56917 141.743733 
L 252.56917 141.743733 
L 252.745613 140.550083 
L 252.745613 140.550083 
L 252.922055 137.882687 
L 252.922055 137.882687 
L 253.098498 138.207847 
L 253.098498 138.207847 
L 253.274941 136.392356 
L 253.274941 136.392356 
L 253.451383 132.833576 
L 253.451383 132.833576 
L 253.627826 133.60842 
L 253.627826 133.60842 
L 253.804269 131.389871 
L 253.804269 131.389871 
L 253.980711 126.758281 
L 253.980711 126.758281 
L 254.157154 128.485376 
L 254.157154 128.485376 
L 254.333597 124.457255 
L 254.333597 124.457255 
L 254.51004 124.037892 
L 254.51004 124.037892 
L 254.686482 121.991165 
L 254.686482 121.991165 
L 254.862925 117.476616 
L 254.862925 117.476616 
L 255.039368 117.179041 
L 255.039368 117.179041 
L 255.21581 114.996565 
L 255.21581 114.996565 
L 255.392253 109.822315 
L 255.392253 109.822315 
L 255.568696 109.651275 
L 255.568696 109.651275 
L 256.980237 84.346974 
L 256.980237 84.346974 
L 257.15668 77.201381 
L 257.15668 77.201381 
L 257.333123 79.592422 
L 257.333123 79.592422 
L 257.686008 67.953835 
L 257.686008 67.953835 
L 257.862451 68.328638 
L 257.862451 68.328638 
L 258.038893 64.935871 
L 258.038893 64.935871 
L 258.391779 53.568 
L 258.391779 53.568 
L 276.388933 53.568 
L 276.388933 53.568 
L 276.741818 65.672186 
L 276.741818 65.672186 
L 277.094704 86.294528 
L 277.094704 86.294528 
L 277.271146 85.245171 
L 277.271146 85.245171 
L 277.624032 101.83526 
L 277.624032 101.83526 
L 277.800474 113.184648 
L 277.800474 113.184648 
L 277.976917 112.089445 
L 277.976917 112.089445 
L 279.388458 170.555441 
L 279.388458 170.555441 
L 279.564901 171.548678 
L 279.741344 178.174283 
L 279.741344 178.174283 
L 279.917787 191.839382 
L 279.917787 191.839382 
L 280.094229 188.915008 
L 280.094229 188.915008 
L 280.270672 199.068289 
L 280.270672 199.068289 
L 280.447115 199.665673 
L 280.447115 199.665673 
L 280.623557 207.134192 
L 280.623557 207.134192 
L 280.8 209.826772 
L 280.8 209.826772 
L 280.976443 214.998509 
L 280.976443 214.998509 
L 281.152885 228.063825 
L 281.152885 228.063825 
L 281.329328 223.435975 
L 281.329328 223.435975 
L 281.505771 234.899557 
L 281.505771 234.899557 
L 281.682213 231.029577 
L 281.682213 231.029577 
L 281.858656 242.249918 
L 281.858656 242.249918 
L 282.035099 238.41696 
L 282.035099 238.41696 
L 282.211542 248.704594 
L 282.211542 248.704594 
L 282.387984 245.806129 
L 282.387984 245.806129 
L 282.564427 248.13636 
L 282.564427 248.13636 
L 282.74087 252.541293 
L 282.74087 252.541293 
L 282.917312 254.100476 
L 282.917312 254.100476 
L 283.093755 259.485971 
L 283.093755 259.485971 
L 283.270198 259.860271 
L 283.44664 265.058812 
L 283.44664 265.058812 
L 283.623083 264.566632 
L 283.623083 264.566632 
L 283.799526 271.19313 
L 283.975968 269.397686 
L 283.975968 269.397686 
L 284.152411 271.093176 
L 284.152411 271.093176 
L 284.328854 274.988452 
L 284.328854 274.988452 
L 284.505296 275.365767 
L 284.505296 275.365767 
L 284.681739 279.57336 
L 284.681739 279.57336 
L 284.858182 278.900312 
L 284.858182 278.900312 
L 285.034625 280.032426 
L 285.034625 280.032426 
L 285.211067 282.869912 
L 285.211067 282.869912 
L 285.38751 283.766936 
L 285.38751 283.766936 
L 285.563953 286.804723 
L 285.563953 286.804723 
L 285.740395 286.449186 
L 285.740395 286.449186 
L 285.916838 289.604183 
L 285.916838 289.604183 
L 286.093281 289.043319 
L 286.093281 289.043319 
L 286.269723 289.943024 
L 286.269723 289.943024 
L 286.446166 291.803355 
L 286.446166 291.803355 
L 286.622609 291.645382 
L 286.622609 291.645382 
L 286.799051 293.614714 
L 286.799051 293.614714 
L 286.975494 293.197249 
L 286.975494 293.197249 
L 287.328379 294.510342 
L 287.504822 294.448247 
L 287.681265 294.563335 
L 287.681265 294.563335 
L 288.03415 295.23359 
L 288.03415 295.23359 
L 288.739921 295.30099 
L 288.739921 295.30099 
L 288.916364 295.433555 
L 288.916364 295.433555 
L 289.092806 295.232529 
L 289.092806 295.232529 
L 289.445692 295.488 
L 289.445692 295.488 
L 289.622134 295.217396 
L 289.622134 295.217396 
L 289.798577 295.343987 
L 289.798577 295.343987 
L 289.97502 294.733314 
L 289.97502 294.733314 
L 290.151462 295.008776 
L 290.151462 295.008776 
L 290.327905 295.010283 
L 290.327905 295.010283 
L 290.504348 294.088857 
L 290.504348 294.088857 
L 290.680791 294.269948 
L 290.680791 294.269948 
L 290.857233 292.415089 
L 290.857233 292.415089 
L 291.033676 293.080598 
L 291.033676 293.080598 
L 291.210119 292.791958 
L 291.210119 292.791958 
L 291.386561 290.780243 
L 291.386561 290.780243 
L 291.563004 291.1049 
L 291.563004 291.1049 
L 291.739447 287.614748 
L 291.739447 287.614748 
L 291.915889 288.639591 
L 291.915889 288.639591 
L 292.092332 288.20074 
L 292.092332 288.20074 
L 292.268775 285.18769 
L 292.268775 285.18769 
L 292.445217 285.567741 
L 292.445217 285.567741 
L 292.62166 280.874335 
L 292.62166 280.874335 
L 292.798103 282.489414 
L 292.974545 281.19486 
L 292.974545 281.19486 
L 293.150988 278.006192 
L 293.150988 278.006192 
L 293.327431 277.994745 
L 293.327431 277.994745 
L 293.503874 272.94273 
L 293.503874 272.94273 
L 293.680316 274.115104 
L 293.680316 274.115104 
L 293.856759 272.850872 
L 294.033202 269.157627 
L 294.033202 269.157627 
L 294.209644 268.821522 
L 294.209644 268.821522 
L 294.386087 262.525043 
L 294.386087 262.525043 
L 294.56253 264.916362 
L 294.56253 264.916362 
L 294.915415 258.452807 
L 295.091858 258.51909 
L 295.2683 251.504277 
L 295.2683 251.504277 
L 295.444743 253.738852 
L 295.444743 253.738852 
L 295.621186 251.256512 
L 295.621186 251.256512 
L 295.797628 246.517428 
L 295.797628 246.517428 
L 295.974071 245.599686 
L 295.974071 245.599686 
L 296.150514 238.8949 
L 296.150514 238.8949 
L 296.326957 240.310069 
L 296.326957 240.310069 
L 296.503399 230.286171 
L 296.503399 230.286171 
L 296.679842 233.867287 
L 296.679842 233.867287 
L 297.20917 224.411902 
L 297.20917 224.411902 
L 297.385613 217.428303 
L 297.385613 217.428303 
L 297.562055 217.488332 
L 297.562055 217.488332 
L 297.738498 210.220169 
L 297.738498 210.220169 
L 297.914941 211.309788 
L 297.914941 211.309788 
L 298.091383 202.635781 
L 298.091383 202.635781 
L 298.267826 204.837075 
L 298.267826 204.837075 
L 298.444269 196.063337 
L 298.444269 196.063337 
L 298.620711 198.592136 
L 298.620711 198.592136 
L 298.797154 190.159472 
L 298.797154 190.159472 
L 298.973597 192.697932 
L 298.973597 192.697932 
L 299.15004 184.985557 
L 299.15004 184.985557 
L 299.326482 187.285578 
L 299.326482 187.285578 
L 299.502925 180.501944 
L 299.502925 180.501944 
L 299.679368 182.0145 
L 299.679368 182.0145 
L 299.85581 176.547645 
L 299.85581 176.547645 
L 300.032253 177.596444 
L 300.032253 177.596444 
L 300.208696 172.968259 
L 300.208696 172.968259 
L 300.385138 173.378297 
L 300.385138 173.378297 
L 300.561581 169.481904 
L 300.561581 169.481904 
L 300.738024 169.382396 
L 300.738024 169.382396 
L 300.914466 166.00426 
L 301.090909 165.167935 
L 301.090909 165.167935 
L 301.267352 162.540632 
L 301.267352 162.540632 
L 301.443794 156.223212 
L 301.443794 156.223212 
L 301.620237 157.956841 
L 301.620237 157.956841 
L 301.79668 152.069338 
L 301.79668 152.069338 
L 301.973123 152.483843 
L 301.973123 152.483843 
L 302.149565 147.539601 
L 302.149565 147.539601 
L 302.326008 145.758173 
L 302.326008 145.758173 
L 302.855336 136.502697 
L 302.855336 136.502697 
L 303.031779 143.726913 
L 303.031779 143.726913 
L 303.208221 145.782017 
L 303.208221 145.782017 
L 303.384664 151.762326 
L 303.384664 151.762326 
L 303.561107 167.417364 
L 303.561107 167.417364 
L 303.737549 165.536595 
L 303.737549 165.536595 
L 303.913992 175.624599 
L 303.913992 175.624599 
L 304.090435 177.595327 
L 304.090435 177.595327 
L 304.266877 182.732331 
L 304.266877 182.732331 
L 304.44332 193.901019 
L 304.44332 193.901019 
L 304.619763 191.872608 
L 304.619763 191.872608 
L 304.796206 200.048125 
L 304.796206 200.048125 
L 304.972648 200.166116 
L 304.972648 200.166116 
L 305.149091 205.558424 
L 305.149091 205.558424 
L 305.325534 207.496653 
L 305.325534 207.496653 
L 305.854862 216.850743 
L 305.854862 216.850743 
L 306.031304 224.316917 
L 306.031304 224.316917 
L 306.207747 222.225182 
L 306.207747 222.225182 
L 306.38419 228.225427 
L 306.38419 228.225427 
L 306.560632 227.515525 
L 306.560632 227.515525 
L 306.737075 232.410907 
L 306.737075 232.410907 
L 306.913518 231.914372 
L 306.913518 231.914372 
L 307.08996 236.20299 
L 307.08996 236.20299 
L 307.266403 235.706678 
L 307.266403 235.706678 
L 307.442846 239.829337 
L 307.442846 239.829337 
L 307.619289 239.009708 
L 307.619289 239.009708 
L 307.795731 243.123433 
L 307.795731 243.123433 
L 307.972174 242.871257 
L 307.972174 242.871257 
L 308.148617 246.253022 
L 308.325059 245.900835 
L 308.325059 245.900835 
L 308.501502 246.667974 
L 308.501502 246.667974 
L 308.677945 248.406963 
L 308.677945 248.406963 
L 308.854387 249.036064 
L 308.854387 249.036064 
L 309.03083 251.054703 
L 309.03083 251.054703 
L 309.207273 251.581281 
L 309.207273 251.581281 
L 309.383715 252.894876 
L 309.383715 252.894876 
L 309.560158 253.302513 
L 309.560158 253.302513 
L 309.736601 255.100414 
L 309.736601 255.100414 
L 309.913043 255.257326 
L 309.913043 255.257326 
L 310.089486 257.110454 
L 310.089486 257.110454 
L 310.265929 257.06204 
L 310.265929 257.06204 
L 310.618814 258.367539 
L 310.618814 258.367539 
L 310.795257 258.363183 
L 310.795257 258.363183 
L 310.9717 259.483235 
L 310.9717 259.483235 
L 311.501028 259.815208 
L 311.501028 259.815208 
L 311.67747 260.562244 
L 311.67747 260.562244 
L 311.853913 260.794764 
L 311.853913 260.794764 
L 312.030356 260.81576 
L 312.030356 260.81576 
L 312.206798 261.384609 
L 312.206798 261.384609 
L 312.383241 261.105964 
L 312.383241 261.105964 
L 312.912569 261.304813 
L 312.912569 261.304813 
L 313.089012 261.695362 
L 313.089012 261.695362 
L 313.265455 261.39896 
L 313.265455 261.39896 
L 313.441897 261.672691 
L 313.441897 261.672691 
L 313.61834 261.715688 
L 313.61834 261.715688 
L 313.794783 261.625673 
L 313.794783 261.625673 
L 313.971225 261.363669 
L 313.971225 261.363669 
L 314.147668 261.385726 
L 314.147668 261.385726 
L 314.324111 261.661188 
L 314.324111 261.661188 
L 314.500553 260.487194 
L 314.500553 260.487194 
L 314.676996 261.506342 
L 314.676996 261.506342 
L 314.853439 260.782088 
L 314.853439 260.782088 
L 315.029881 261.095969 
L 315.029881 261.095969 
L 315.206324 260.776002 
L 315.206324 260.776002 
L 315.382767 260.20464 
L 315.382767 260.20464 
L 315.559209 260.346085 
L 315.735652 258.60838 
L 315.735652 258.60838 
L 315.912095 259.579951 
L 315.912095 259.579951 
L 316.088538 257.213927 
L 316.088538 257.213927 
L 316.26498 258.311419 
L 316.26498 258.311419 
L 316.441423 257.534452 
L 316.441423 257.534452 
L 316.617866 255.617108 
L 316.617866 255.617108 
L 316.794308 255.336453 
L 316.794308 255.336453 
L 316.970751 253.482264 
L 316.970751 253.482264 
L 317.147194 253.873539 
L 317.323636 250.546944 
L 317.500079 252.151079 
L 317.500079 252.151079 
L 318.20585 245.119122 
L 318.20585 245.119122 
L 318.382292 245.358455 
L 318.382292 245.358455 
L 318.558735 240.435934 
L 318.558735 240.435934 
L 318.735178 241.613055 
L 318.735178 241.613055 
L 318.911621 236.242972 
L 318.911621 236.242972 
L 319.088063 238.506975 
L 319.088063 238.506975 
L 319.617391 233.053745 
L 319.617391 233.053745 
L 319.793834 229.339448 
L 319.793834 229.339448 
L 319.970277 229.204649 
L 319.970277 229.204649 
L 320.146719 225.063283 
L 320.146719 225.063283 
L 320.323162 225.530837 
L 320.323162 225.530837 
L 320.499605 219.944985 
L 320.499605 219.944985 
L 320.676047 221.286445 
L 320.676047 221.286445 
L 320.85249 215.151401 
L 320.85249 215.151401 
L 321.028933 216.872242 
L 321.028933 216.872242 
L 321.205375 210.291254 
L 321.205375 210.291254 
L 321.381818 212.308274 
L 321.381818 212.308274 
L 321.558261 205.352596 
L 321.734704 207.613863 
L 321.734704 207.613863 
L 321.911146 200.491053 
L 321.911146 200.491053 
L 322.087589 202.392483 
L 322.087589 202.392483 
L 322.264032 195.659329 
L 322.264032 195.659329 
L 322.440474 197.85007 
L 322.440474 197.85007 
L 322.616917 190.775116 
L 322.79336 192.426659 
L 322.79336 192.426659 
L 322.969802 185.937975 
L 322.969802 185.937975 
L 323.146245 187.256652 
L 323.146245 187.256652 
L 323.322688 181.117196 
L 323.322688 181.117196 
L 323.49913 181.930906 
L 323.49913 181.930906 
L 323.675573 176.212154 
L 323.675573 176.212154 
L 323.852016 176.430156 
L 323.852016 176.430156 
L 324.028458 171.315264 
L 324.028458 171.315264 
L 324.204901 170.629206 
L 324.204901 170.629206 
L 324.381344 165.842769 
L 324.381344 165.842769 
L 324.557787 164.075915 
L 324.557787 164.075915 
L 324.734229 160.653442 
L 324.734229 160.653442 
L 324.910672 152.474518 
L 324.910672 152.474518 
L 325.087115 154.306035 
L 325.087115 154.306035 
L 325.263557 146.273023 
L 325.263557 146.273023 
L 325.44 146.379176 
L 325.44 146.379176 
L 325.792885 138.202319 
L 325.792885 138.202319 
L 325.969328 134.70742 
L 325.969328 134.70742 
L 326.145771 124.710437 
L 326.145771 124.710437 
L 326.322213 125.618238 
L 326.322213 125.618238 
L 326.498656 118.696511 
L 326.498656 118.696511 
L 326.851542 113.295994 
L 326.851542 113.295994 
L 327.027984 116.31245 
L 327.027984 116.31245 
L 327.204427 117.317637 
L 327.204427 117.317637 
L 327.38087 122.736581 
L 327.38087 122.736581 
L 327.557312 132.726138 
L 327.557312 132.726138 
L 327.733755 132.431746 
L 327.733755 132.431746 
L 327.910198 138.108618 
L 327.910198 138.108618 
L 328.08664 147.711646 
L 328.08664 147.711646 
L 328.263083 146.277826 
L 328.263083 146.277826 
L 328.439526 152.763828 
L 328.615968 154.581162 
L 328.615968 154.581162 
L 329.498182 176.388666 
L 329.498182 176.388666 
L 329.674625 175.414694 
L 329.674625 175.414694 
L 329.851067 180.853517 
L 329.851067 180.853517 
L 330.02751 181.524163 
L 330.02751 181.524163 
L 330.203953 184.567422 
L 330.203953 184.567422 
L 330.380395 190.415446 
L 330.380395 190.415446 
L 330.556838 188.859558 
L 330.556838 188.859558 
L 330.733281 193.630862 
L 330.733281 193.630862 
L 330.909723 193.263319 
L 330.909723 193.263319 
L 331.086166 196.62487 
L 331.086166 196.62487 
L 331.262609 197.16658 
L 331.262609 197.16658 
L 331.615494 200.549407 
L 331.615494 200.549407 
L 331.791937 201.836254 
L 331.791937 201.836254 
L 331.968379 205.056138 
L 331.968379 205.056138 
L 332.144822 204.434966 
L 332.144822 204.434966 
L 332.321265 206.68406 
L 332.321265 206.68406 
L 332.497708 206.535021 
L 332.497708 206.535021 
L 332.67415 207.985538 
L 332.67415 207.985538 
L 332.850593 208.127932 
L 332.850593 208.127932 
L 333.203478 209.249044 
L 333.203478 209.249044 
L 333.556364 209.951017 
L 333.556364 209.951017 
L 333.732806 210.006076 
L 333.732806 210.006076 
L 333.909249 210.310854 
L 333.909249 210.310854 
L 334.085692 210.189513 
L 334.085692 210.189513 
L 334.262134 210.533268 
L 334.262134 210.533268 
L 334.438577 210.250658 
L 334.438577 210.250658 
L 334.61502 210.357425 
L 334.61502 210.357425 
L 334.791462 210.274 
L 334.791462 210.274 
L 334.967905 210.054099 
L 334.967905 210.054099 
L 335.144348 210.272045 
L 335.144348 210.272045 
L 335.320791 209.923823 
L 335.320791 209.923823 
L 335.497233 210.167288 
L 335.497233 210.167288 
L 335.673676 209.598886 
L 335.673676 209.598886 
L 335.850119 209.84922 
L 335.850119 209.84922 
L 336.026561 209.042881 
L 336.026561 209.042881 
L 336.203004 209.235475 
L 336.203004 209.235475 
L 336.379447 208.164954 
L 336.379447 208.164954 
L 336.555889 208.224201 
L 336.555889 208.224201 
L 336.732332 206.877771 
L 336.732332 206.877771 
L 336.908775 206.729794 
L 336.908775 206.729794 
L 337.085217 205.176363 
L 337.085217 205.176363 
L 337.26166 204.660283 
L 337.26166 204.660283 
L 337.438103 202.945473 
L 337.438103 202.945473 
L 337.614545 197.972193 
L 337.614545 197.972193 
L 337.790988 199.741002 
L 337.790988 199.741002 
L 337.967431 194.37237 
L 337.967431 194.37237 
L 338.143874 195.781676 
L 338.143874 195.781676 
L 338.320316 189.715539 
L 338.320316 189.715539 
L 338.496759 190.721062 
L 338.496759 190.721062 
L 338.673202 184.031017 
L 338.673202 184.031017 
L 338.849644 184.240922 
L 338.849644 184.240922 
L 339.026087 177.790546 
L 339.20253 176.822771 
L 339.20253 176.822771 
L 339.731858 161.039412 
L 339.731858 161.039412 
L 339.9083 155.165032 
L 339.9083 155.165032 
L 340.084743 154.252708 
L 340.084743 154.252708 
L 340.261186 163.943014 
L 340.261186 163.943014 
L 340.437628 163.668223 
L 340.437628 163.668223 
L 340.614071 170.871052 
L 340.614071 170.871052 
L 340.790514 171.671472 
L 341.143399 182.07827 
L 341.143399 182.07827 
L 341.319842 181.436437 
L 341.319842 181.436437 
L 341.496285 184.514206 
L 341.496285 184.514206 
L 341.672727 184.696638 
L 341.672727 184.696638 
L 341.84917 186.666807 
L 341.84917 186.666807 
L 342.025613 186.842482 
L 342.025613 186.842482 
L 342.378498 188.104369 
L 342.378498 188.104369 
L 342.554941 188.292608 
L 342.554941 188.292608 
L 342.731383 188.166073 
L 342.731383 188.166073 
L 342.907826 188.386923 
L 342.907826 188.386923 
L 343.084269 188.22666 
L 343.084269 188.22666 
L 343.260711 188.4455 
L 343.260711 188.4455 
L 343.437154 188.270886 
L 343.437154 188.270886 
L 343.613597 187.105994 
L 343.613597 187.105994 
L 343.79004 188.060199 
L 343.79004 188.060199 
L 343.966482 186.72142 
L 343.966482 186.72142 
L 344.142925 187.01408 
L 344.142925 187.01408 
L 344.319368 185.363152 
L 344.319368 185.363152 
L 344.49581 185.032352 
L 344.49581 185.032352 
L 344.672253 183.024825 
L 344.672253 183.024825 
L 344.848696 177.098568 
L 344.848696 177.098568 
L 345.025138 179.204263 
L 345.025138 179.204263 
L 345.201581 172.412198 
L 345.201581 172.412198 
L 345.378024 173.528173 
L 345.378024 173.528173 
L 345.554466 167.253751 
L 345.554466 167.253751 
L 345.730909 165.531793 
L 345.730909 165.531793 
L 345.907352 160.316779 
L 345.907352 160.316779 
L 346.083794 148.927185 
L 346.083794 148.927185 
L 346.260237 151.15908 
L 346.260237 151.15908 
L 346.43668 147.897484 
L 346.43668 147.897484 
L 346.613123 147.363368 
L 346.613123 147.363368 
L 346.789565 156.683451 
L 346.789565 156.683451 
L 346.966008 158.634077 
L 346.966008 158.634077 
L 347.318893 171.896007 
L 347.318893 171.896007 
L 347.495336 171.258363 
L 347.495336 171.258363 
L 347.671779 175.769393 
L 347.671779 175.769393 
L 347.848221 177.002467 
L 347.848221 177.002467 
L 348.201107 182.376961 
L 348.201107 182.376961 
L 348.377549 182.511035 
L 348.553992 184.313348 
L 348.553992 184.313348 
L 349.08332 186.080592 
L 349.08332 186.080592 
L 349.612648 186.583717 
L 349.612648 186.583717 
L 349.965534 186.267212 
L 349.965534 186.267212 
L 350.141976 186.503809 
L 350.141976 186.503809 
L 350.318419 185.886379 
L 350.318419 185.886379 
L 350.494862 186.552446 
L 350.494862 186.552446 
L 350.671304 186.306635 
L 350.671304 186.306635 
L 350.847747 186.543288 
L 350.847747 186.543288 
L 351.200632 185.949367 
L 351.200632 185.949367 
L 351.377075 185.972541 
L 351.377075 185.972541 
L 351.553518 185.056363 
L 351.553518 185.056363 
L 351.72996 185.529668 
L 351.72996 185.529668 
L 351.906403 184.530288 
L 352.082846 184.878343 
L 352.082846 184.878343 
L 352.259289 183.920955 
L 352.259289 183.920955 
L 352.788617 183.158005 
L 352.788617 183.158005 
L 352.965059 182.465134 
L 352.965059 182.465134 
L 353.141502 180.495746 
L 353.141502 180.495746 
L 353.317945 181.440123 
L 353.317945 181.440123 
L 353.494387 180.063204 
L 353.494387 180.063204 
L 353.67083 180.326381 
L 353.67083 180.326381 
L 354.023715 178.683773 
L 354.023715 178.683773 
L 354.200158 178.171937 
L 354.200158 178.171937 
L 354.376601 176.107341 
L 354.376601 176.107341 
L 354.553043 176.870962 
L 354.553043 176.870962 
L 354.729486 174.942114 
L 354.729486 174.942114 
L 354.905929 175.331435 
L 355.082372 173.697035 
L 355.435257 172.332737 
L 355.435257 172.332737 
L 355.6117 169.043499 
L 355.788142 170.490554 
L 355.788142 170.490554 
L 355.964585 167.793841 
L 355.964585 167.793841 
L 356.141028 168.189193 
L 356.141028 168.189193 
L 356.31747 166.177031 
L 356.31747 166.177031 
L 356.493913 165.737454 
L 356.493913 165.737454 
L 356.670356 164.356403 
L 356.670356 164.356403 
L 356.846798 160.603074 
L 356.846798 160.603074 
L 357.023241 161.644893 
L 357.023241 161.644893 
L 357.199684 158.739783 
L 357.199684 158.739783 
L 357.376126 158.713705 
L 357.376126 158.713705 
L 357.552569 156.816854 
L 357.552569 156.816854 
L 357.729012 152.71642 
L 357.729012 152.71642 
L 357.905455 154.141864 
L 357.905455 154.141864 
L 358.081897 150.788521 
L 358.081897 150.788521 
L 358.25834 150.939459 
L 358.25834 150.939459 
L 358.434783 148.847445 
L 358.434783 148.847445 
L 358.611225 144.74969 
L 358.611225 144.74969 
L 358.787668 146.221092 
L 358.787668 146.221092 
L 358.964111 142.928336 
L 358.964111 142.928336 
L 359.140553 142.975298 
L 359.140553 142.975298 
L 359.316996 141.18326 
L 359.316996 141.18326 
L 359.493439 137.878108 
L 359.493439 137.878108 
L 359.669881 139.047634 
L 359.669881 139.047634 
L 359.846324 136.787093 
L 359.846324 136.787093 
L 360.199209 135.094228 
L 360.199209 135.094228 
L 360.375652 132.266179 
L 360.375652 132.266179 
L 360.552095 132.473627 
L 360.552095 132.473627 
L 360.728538 131.212968 
L 360.728538 131.212968 
L 360.90498 129.028985 
L 360.90498 129.028985 
L 361.081423 129.493802 
L 361.081423 129.493802 
L 361.257866 128.650776 
L 361.257866 128.650776 
L 361.434308 126.50845 
L 361.434308 126.50845 
L 361.610751 127.539212 
L 361.610751 127.539212 
L 361.787194 125.922905 
L 361.963636 125.899005 
L 361.963636 125.899005 
L 362.316522 123.963345 
L 362.492964 124.044816 
L 362.669407 123.693467 
L 362.669407 123.693467 
L 362.84585 121.938116 
L 362.84585 121.938116 
L 363.022292 122.043878 
L 363.022292 122.043878 
L 363.198735 121.535784 
L 363.198735 121.535784 
L 363.375178 119.395133 
L 363.375178 119.395133 
L 363.551621 119.483249 
L 363.551621 119.483249 
L 364.257391 114.391978 
L 364.257391 114.391978 
L 364.433834 111.415839 
L 364.433834 111.415839 
L 364.610277 111.32521 
L 364.610277 111.32521 
L 364.786719 109.118667 
L 364.786719 109.118667 
L 364.963162 105.396776 
L 364.963162 105.396776 
L 365.139605 104.9075 
L 365.139605 104.9075 
L 365.316047 102.543877 
L 365.316047 102.543877 
L 365.49249 98.180601 
L 365.49249 98.180601 
L 365.668933 97.287318 
L 365.668933 97.287318 
L 366.021818 89.02078 
L 366.021818 89.02078 
L 366.198261 81.926003 
L 366.198261 81.926003 
L 366.374704 83.76718 
L 366.374704 83.76718 
L 366.551146 79.019609 
L 366.551146 79.019609 
L 366.727589 70.471522 
L 366.727589 70.471522 
L 366.904032 70.419256 
L 366.904032 70.419256 
L 367.080474 66.215572 
L 367.080474 66.215572 
L 367.43336 53.568 
L 367.43336 53.568 
L 396.017075 53.568 
L 396.017075 53.568 
L 396.193518 53.681915 
L 396.546403 53.568 
L 396.546403 53.568 
L 397.075731 53.568056 
L 397.075731 53.568056 
L 397.252174 53.949112 
L 397.428617 53.568 
L 397.428617 53.568 
L 398.134387 53.607591 
L 398.134387 53.607591 
L 398.31083 53.856082 
L 398.487273 53.568 
L 398.487273 53.568 
" clip-path="url(#pa33e088eec)" style="fill: none; stroke: #ff7f0e; stroke-width: 1.5; stroke-linecap: square"/>
   </g>
   <g id="patch_3">
    <path d="M 57.6 307.584 
L 57.6 41.472 
" style="fill: none; stroke: #000000; stroke-width: 0.8; stroke-linejoin: miter; stroke-linecap: square"/>
   </g>
   <g id="patch_4">
    <path d="M 414.72 307.584 
L 414.72 41.472 
" style="fill: none; stroke: #000000; stroke-width: 0.8; stroke-linejoin: miter; stroke-linecap: square"/>
   </g>
   <g id="patch_5">
    <path d="M 57.6 307.584 
L 414.72 307.584 
" style="fill: none; stroke: #000000; stroke-width: 0.8; stroke-linejoin: miter; stroke-linecap: square"/>
   </g>
   <g id="patch_6">
    <path d="M 57.6 41.472 
L 414.72 41.472 
" style="fill: none; stroke: #000000; stroke-width: 0.8; stroke-linejoin: miter; stroke-linecap: square"/>
   </g>
   <g id="text_16">
    <!-- Actual speed vs Expected speed -->
    <g transform="translate(138.808125 35.472) scale(0.12 -0.12)">
     <defs>
      <path id="DejaVuSans-41" d="M 2188 4044 
L 1331 1722 
L 3047 1722 
L 2188 4044 
z
M 1831 4666 
L 2547 4666 
L 4325 0 
L 3669 0 
L 3244 1197 
L 1141 1197 
L 716 0 
L 50 0 
L 1831 4666 
z
" transform="scale(0.015625)"/>
      <path id="DejaVuSans-75" d="M 544 1381 
L 544 3500 
L 1119 3500 
L 1119 1403 
Q 1119 906 1312 657 
Q 1506 409 1894 409 
Q 2359 409 2629 706 
Q 2900 1003 2900 1516 
L 2900 3500 
L 3475 3500 
L 3475 0 
L 2900 0 
L 2900 538 
Q 2691 219 2414 64 
Q 2138 -91 1772 -91 
Q 1169 -91 856 284 
Q 544 659 544 1381 
z
M 1991 3584 
L 1991 3584 
z
" transform="scale(0.015625)"/>
      <path id="DejaVuSans-61" d="M 2194 1759 
Q 1497 1759 1228 1600 
Q 959 1441 959 1056 
Q 959 750 1161 570 
Q 1363 391 1709 391 
Q 2188 391 2477 730 
Q 2766 1069 2766 1631 
L 2766 1759 
L 2194 1759 
z
M 3341 1997 
L 3341 0 
L 2766 0 
L 2766 531 
Q 2569 213 2275 61 
Q 1981 -91 1556 -91 
Q 1019 -91 701 211 
Q 384 513 384 1019 
Q 384 1609 779 1909 
Q 1175 2209 1959 2209 
L 2766 2209 
L 2766 2266 
Q 2766 2663 2505 2880 
Q 2244 3097 1772 3097 
Q 1472 3097 1187 3025 
Q 903 2953 641 2809 
L 641 3341 
Q 956 3463 1253 3523 
Q 1550 3584 1831 3584 
Q 2591 3584 2966 3190 
Q 3341 2797 3341 1997 
z
" transform="scale(0.015625)"/>
      <path id="DejaVuSans-20" transform="scale(0.015625)"/>
      <path id="DejaVuSans-70" d="M 1159 525 
L 1159 -1331 
L 581 -1331 
L 581 3500 
L 1159 3500 
L 1159 2969 
Q 1341 3281 1617 3432 
Q 1894 3584 2278 3584 
Q 2916 3584 3314 3078 
Q 3713 2572 3713 1747 
Q 3713 922 3314 415 
Q 2916 -91 2278 -91 
Q 1894 -91 1617 61 
Q 1341 213 1159 525 
z
M 3116 1747 
Q 3116 2381 2855 2742 
Q 2594 3103 2138 3103 
Q 1681 3103 1420 2742 
Q 1159 2381 1159 1747 
Q 1159 1113 1420 752 
Q 1681 391 2138 391 
Q 2594 391 2855 752 
Q 3116 1113 3116 1747 
z
" transform="scale(0.015625)"/>
      <path id="DejaVuSans-64" d="M 2906 2969 
L 2906 4863 
L 3481 4863 
L 3481 0 
L 2906 0 
L 2906 525 
Q 2725 213 2448 61 
Q 2172 -91 1784 -91 
Q 1150 -91 751 415 
Q 353 922 353 1747 
Q 353 2572 751 3078 
Q 1150 3584 1784 3584 
Q 2172 3584 2448 3432 
Q 2725 3281 2906 2969 
z
M 947 1747 
Q 947 1113 1208 752 
Q 1469 391 1925 391 
Q 2381 391 2643 752 
Q 2906 1113 2906 1747 
Q 2906 2381 2643 2742 
Q 2381 3103 1925 3103 
Q 1469 3103 1208 2742 
Q 947 2381 947 1747 
z
" transform="scale(0.015625)"/>
      <path id="DejaVuSans-76" d="M 191 3500 
L 800 3500 
L 1894 563 
L 2988 3500 
L 3597 3500 
L 2284 0 
L 1503 0 
L 191 3500 
z
" transform="scale(0.015625)"/>
      <path id="DejaVuSans-45" d="M 628 4666 
L 3578 4666 
L 3578 4134 
L 1259 4134 
L 1259 2753 
L 3481 2753 
L 3481 2222 
L 1259 2222 
L 1259 531 
L 3634 531 
L 3634 0 
L 628 0 
L 628 4666 
z
" transform="scale(0.015625)"/>
      <path id="DejaVuSans-78" d="M 3513 3500 
L 2247 1797 
L 3578 0 
L 2900 0 
L 1881 1375 
L 863 0 
L 184 0 
L 1544 1831 
L 300 3500 
L 978 3500 
L 1906 2253 
L 2834 3500 
L 3513 3500 
z
" transform="scale(0.015625)"/>
     </defs>
     <use xlink:href="#DejaVuSans-41"/>
     <use xlink:href="#DejaVuSans-63" x="66.658203"/>
     <use xlink:href="#DejaVuSans-74" x="121.638672"/>
     <use xlink:href="#DejaVuSans-75" x="160.847656"/>
     <use xlink:href="#DejaVuSans-61" x="224.226562"/>
     <use xlink:href="#DejaVuSans-6c" x="285.505859"/>
     <use xlink:href="#DejaVuSans-20" x="313.289062"/>
     <use xlink:href="#DejaVuSans-73" x="345.076172"/>
     <use xlink:href="#DejaVuSans-70" x="397.175781"/>
     <use xlink:href="#DejaVuSans-65" x="460.652344"/>
     <use xlink:href="#DejaVuSans-65" x="522.175781"/>
     <use xlink:href="#DejaVuSans-64" x="583.699219"/>
     <use xlink:href="#DejaVuSans-20" x="647.175781"/>
     <use xlink:href="#DejaVuSans-76" x="678.962891"/>
     <use xlink:href="#DejaVuSans-73" x="738.142578"/>
     <use xlink:href="#DejaVuSans-20" x="790.242188"/>
     <use xlink:href="#DejaVuSans-45" x="822.029297"/>
     <use xlink:href="#DejaVuSans-78" x="885.212891"/>
     <use xlink:href="#DejaVuSans-70" x="944.392578"/>
     <use xlink:href="#DejaVuSans-65" x="1007.869141"/>
     <use xlink:href="#DejaVuSans-63" x="1069.392578"/>
     <use xlink:href="#DejaVuSans-74" x="1124.373047"/>
     <use xlink:href="#DejaVuSans-65" x="1163.582031"/>
     <use xlink:href="#DejaVuSans-64" x="1225.105469"/>
     <use xlink:href="#DejaVuSans-20" x="1288.582031"/>
     <use xlink:href="#DejaVuSans-73" x="1320.369141"/>
     <use xlink:href="#DejaVuSans-70" x="1372.46875"/>
     <use xlink:href="#DejaVuSans-65" x="1435.945312"/>
     <use xlink:href="#DejaVuSans-65" x="1497.46875"/>
     <use xlink:href="#DejaVuSans-64" x="1558.992188"/>
    </g>
   </g>
   <g id="legend_1">
    <g id="patch_7">
     <path d="M 64.6 302.584 
L 176.65 302.584 
Q 178.65 302.584 178.65 300.584 
L 178.65 272.22775 
Q 178.65 270.22775 176.65 270.22775 
L 64.6 270.22775 
Q 62.6 270.22775 62.6 272.22775 
L 62.6 300.584 
Q 62.6 302.584 64.6 302.584 
z
" style="fill: #ffffff; opacity: 0.8; stroke: #cccccc; stroke-linejoin: miter"/>
    </g>
    <g id="line2d_29">
     <path d="M 66.6 278.326187 
L 76.6 278.326187 
L 86.6 278.326187 
" style="fill: none; stroke: #1f77b4; stroke-width: 1.5; stroke-linecap: square"/>
    </g>
    <g id="text_17">
     <!-- Actual speed -->
     <g transform="translate(94.6 281.826187) scale(0.1 -0.1)">
      <use xlink:href="#DejaVuSans-41"/>
      <use xlink:href="#DejaVuSans-63" x="66.658203"/>
      <use xlink:href="#DejaVuSans-74" x="121.638672"/>
      <use xlink:href="#DejaVuSans-75" x="160.847656"/>
      <use xlink:href="#DejaVuSans-61" x="224.226562"/>
      <use xlink:href="#DejaVuSans-6c" x="285.505859"/>
      <use xlink:href="#DejaVuSans-20" x="313.289062"/>
      <use xlink:href="#DejaVuSans-73" x="345.076172"/>
      <use xlink:href="#DejaVuSans-70" x="397.175781"/>
      <use xlink:href="#DejaVuSans-65" x="460.652344"/>
      <use xlink:href="#DejaVuSans-65" x="522.175781"/>
      <use xlink:href="#DejaVuSans-64" x="583.699219"/>
     </g>
    </g>
    <g id="line2d_30">
     <path d="M 66.6 293.004312 
L 76.6 293.004312 
L 86.6 293.004312 
" style="fill: none; stroke: #ff7f0e; stroke-width: 1.5; stroke-linecap: square"/>
    </g>
    <g id="text_18">
     <!-- Expected speed -->
     <g transform="translate(94.6 296.504312) scale(0.1 -0.1)">
      <use xlink:href="#DejaVuSans-45"/>
      <use xlink:href="#DejaVuSans-78" x="63.183594"/>
      <use xlink:href="#DejaVuSans-70" x="122.363281"/>
      <use xlink:href="#DejaVuSans-65" x="185.839844"/>
      <use xlink:href="#DejaVuSans-63" x="247.363281"/>
      <use xlink:href="#DejaVuSans-74" x="302.34375"/>
      <use xlink:href="#DejaVuSans-65" x="341.552734"/>
      <use xlink:href="#DejaVuSans-64" x="403.076172"/>
      <use xlink:href="#DejaVuSans-20" x="466.552734"/>
      <use xlink:href="#DejaVuSans-73" x="498.339844"/>
      <use xlink:href="#DejaVuSans-70" x="550.439453"/>
      <use xlink:href="#DejaVuSans-65" x="613.916016"/>
      <use xlink:href="#DejaVuSans-65" x="675.439453"/>
      <use xlink:href="#DejaVuSans-64" x="736.962891"/>
     </g>
    </g>
   </g>
  </g>
 </g>
 <defs>
  <clipPath id="pa33e088eec">
   <rect x="57.6" y="41.472" width="357.12" height="266.112"/>
  </clipPath>
 </defs>
</svg>
