<?xml version="1.0" encoding="utf-8" standalone="no"?>
<!DOCTYPE svg PUBLIC "-//W3C//DTD SVG 1.1//EN"
  "http://www.w3.org/Graphics/SVG/1.1/DTD/svg11.dtd">
<svg xmlns:xlink="http://www.w3.org/1999/xlink" width="460.8pt" height="345.6pt" viewBox="0 0 460.8 345.6" xmlns="http://www.w3.org/2000/svg" version="1.1">
 <metadata>
  <rdf:RDF xmlns:dc="http://purl.org/dc/elements/1.1/" xmlns:cc="http://creativecommons.org/ns#" xmlns:rdf="http://www.w3.org/1999/02/22-rdf-syntax-ns#">
   <cc:Work>
    <dc:type rdf:resource="http://purl.org/dc/dcmitype/StillImage"/>
    <dc:date>2024-01-30T20:59:30.468696</dc:date>
    <dc:format>image/svg+xml</dc:format>
    <dc:creator>
     <cc:Agent>
      <dc:title>Matplotlib v3.7.1, https://matplotlib.org/</dc:title>
     </cc:Agent>
    </dc:creator>
   </cc:Work>
  </rdf:RDF>
 </metadata>
 <defs>
  <style type="text/css">*{stroke-linejoin: round; stroke-linecap: butt}</style>
 </defs>
 <g id="figure_1">
  <g id="patch_1">
   <path d="M 0 345.6 
L 460.8 345.6 
L 460.8 0 
L 0 0 
z
" style="fill: #ffffff"/>
  </g>
  <g id="axes_1">
   <g id="patch_2">
    <path d="M 57.6 307.584 
L 414.72 307.584 
L 414.72 41.472 
L 57.6 41.472 
z
" style="fill: #ffffff"/>
   </g>
   <g id="matplotlib.axis_1">
    <g id="xtick_1">
     <g id="line2d_1">
      <path d="M 73.832727 307.584 
L 73.832727 41.472 
" clip-path="url(#p9e0ba1f834)" style="fill: none; stroke: #b0b0b0; stroke-width: 0.8; stroke-linecap: square"/>
     </g>
     <g id="line2d_2">
      <defs>
       <path id="mb19bc6e2c1" d="M 0 0 
L 0 3.5 
" style="stroke: #000000; stroke-width: 0.8"/>
      </defs>
      <g>
       <use xlink:href="#mb19bc6e2c1" x="73.832727" y="307.584" style="stroke: #000000; stroke-width: 0.8"/>
      </g>
     </g>
     <g id="text_1">
      <!-- 0 -->
      <g transform="translate(70.651477 322.182437) scale(0.1 -0.1)">
       <defs>
        <path id="DejaVuSans-30" d="M 2034 4250 
Q 1547 4250 1301 3770 
Q 1056 3291 1056 2328 
Q 1056 1369 1301 889 
Q 1547 409 2034 409 
Q 2525 409 2770 889 
Q 3016 1369 3016 2328 
Q 3016 3291 2770 3770 
Q 2525 4250 2034 4250 
z
M 2034 4750 
Q 2819 4750 3233 4129 
Q 3647 3509 3647 2328 
Q 3647 1150 3233 529 
Q 2819 -91 2034 -91 
Q 1250 -91 836 529 
Q 422 1150 422 2328 
Q 422 3509 836 4129 
Q 1250 4750 2034 4750 
z
" transform="scale(0.015625)"/>
       </defs>
       <use xlink:href="#DejaVuSans-30"/>
      </g>
     </g>
    </g>
    <g id="xtick_2">
     <g id="line2d_3">
      <path d="M 130.001334 307.584 
L 130.001334 41.472 
" clip-path="url(#p9e0ba1f834)" style="fill: none; stroke: #b0b0b0; stroke-width: 0.8; stroke-linecap: square"/>
     </g>
     <g id="line2d_4">
      <g>
       <use xlink:href="#mb19bc6e2c1" x="130.001334" y="307.584" style="stroke: #000000; stroke-width: 0.8"/>
      </g>
     </g>
     <g id="text_2">
      <!-- 5 -->
      <g transform="translate(126.820084 322.182437) scale(0.1 -0.1)">
       <defs>
        <path id="DejaVuSans-35" d="M 691 4666 
L 3169 4666 
L 3169 4134 
L 1269 4134 
L 1269 2991 
Q 1406 3038 1543 3061 
Q 1681 3084 1819 3084 
Q 2600 3084 3056 2656 
Q 3513 2228 3513 1497 
Q 3513 744 3044 326 
Q 2575 -91 1722 -91 
Q 1428 -91 1123 -41 
Q 819 9 494 109 
L 494 744 
Q 775 591 1075 516 
Q 1375 441 1709 441 
Q 2250 441 2565 725 
Q 2881 1009 2881 1497 
Q 2881 1984 2565 2268 
Q 2250 2553 1709 2553 
Q 1456 2553 1204 2497 
Q 953 2441 691 2322 
L 691 4666 
z
" transform="scale(0.015625)"/>
       </defs>
       <use xlink:href="#DejaVuSans-35"/>
      </g>
     </g>
    </g>
    <g id="xtick_3">
     <g id="line2d_5">
      <path d="M 186.16994 307.584 
L 186.16994 41.472 
" clip-path="url(#p9e0ba1f834)" style="fill: none; stroke: #b0b0b0; stroke-width: 0.8; stroke-linecap: square"/>
     </g>
     <g id="line2d_6">
      <g>
       <use xlink:href="#mb19bc6e2c1" x="186.16994" y="307.584" style="stroke: #000000; stroke-width: 0.8"/>
      </g>
     </g>
     <g id="text_3">
      <!-- 10 -->
      <g transform="translate(179.80744 322.182437) scale(0.1 -0.1)">
       <defs>
        <path id="DejaVuSans-31" d="M 794 531 
L 1825 531 
L 1825 4091 
L 703 3866 
L 703 4441 
L 1819 4666 
L 2450 4666 
L 2450 531 
L 3481 531 
L 3481 0 
L 794 0 
L 794 531 
z
" transform="scale(0.015625)"/>
       </defs>
       <use xlink:href="#DejaVuSans-31"/>
       <use xlink:href="#DejaVuSans-30" x="63.623047"/>
      </g>
     </g>
    </g>
    <g id="xtick_4">
     <g id="line2d_7">
      <path d="M 242.338547 307.584 
L 242.338547 41.472 
" clip-path="url(#p9e0ba1f834)" style="fill: none; stroke: #b0b0b0; stroke-width: 0.8; stroke-linecap: square"/>
     </g>
     <g id="line2d_8">
      <g>
       <use xlink:href="#mb19bc6e2c1" x="242.338547" y="307.584" style="stroke: #000000; stroke-width: 0.8"/>
      </g>
     </g>
     <g id="text_4">
      <!-- 15 -->
      <g transform="translate(235.976047 322.182437) scale(0.1 -0.1)">
       <use xlink:href="#DejaVuSans-31"/>
       <use xlink:href="#DejaVuSans-35" x="63.623047"/>
      </g>
     </g>
    </g>
    <g id="xtick_5">
     <g id="line2d_9">
      <path d="M 298.507153 307.584 
L 298.507153 41.472 
" clip-path="url(#p9e0ba1f834)" style="fill: none; stroke: #b0b0b0; stroke-width: 0.8; stroke-linecap: square"/>
     </g>
     <g id="line2d_10">
      <g>
       <use xlink:href="#mb19bc6e2c1" x="298.507153" y="307.584" style="stroke: #000000; stroke-width: 0.8"/>
      </g>
     </g>
     <g id="text_5">
      <!-- 20 -->
      <g transform="translate(292.144653 322.182437) scale(0.1 -0.1)">
       <defs>
        <path id="DejaVuSans-32" d="M 1228 531 
L 3431 531 
L 3431 0 
L 469 0 
L 469 531 
Q 828 903 1448 1529 
Q 2069 2156 2228 2338 
Q 2531 2678 2651 2914 
Q 2772 3150 2772 3378 
Q 2772 3750 2511 3984 
Q 2250 4219 1831 4219 
Q 1534 4219 1204 4116 
Q 875 4013 500 3803 
L 500 4441 
Q 881 4594 1212 4672 
Q 1544 4750 1819 4750 
Q 2544 4750 2975 4387 
Q 3406 4025 3406 3419 
Q 3406 3131 3298 2873 
Q 3191 2616 2906 2266 
Q 2828 2175 2409 1742 
Q 1991 1309 1228 531 
z
" transform="scale(0.015625)"/>
       </defs>
       <use xlink:href="#DejaVuSans-32"/>
       <use xlink:href="#DejaVuSans-30" x="63.623047"/>
      </g>
     </g>
    </g>
    <g id="xtick_6">
     <g id="line2d_11">
      <path d="M 354.67576 307.584 
L 354.67576 41.472 
" clip-path="url(#p9e0ba1f834)" style="fill: none; stroke: #b0b0b0; stroke-width: 0.8; stroke-linecap: square"/>
     </g>
     <g id="line2d_12">
      <g>
       <use xlink:href="#mb19bc6e2c1" x="354.67576" y="307.584" style="stroke: #000000; stroke-width: 0.8"/>
      </g>
     </g>
     <g id="text_6">
      <!-- 25 -->
      <g transform="translate(348.31326 322.182437) scale(0.1 -0.1)">
       <use xlink:href="#DejaVuSans-32"/>
       <use xlink:href="#DejaVuSans-35" x="63.623047"/>
      </g>
     </g>
    </g>
    <g id="xtick_7">
     <g id="line2d_13">
      <path d="M 410.844366 307.584 
L 410.844366 41.472 
" clip-path="url(#p9e0ba1f834)" style="fill: none; stroke: #b0b0b0; stroke-width: 0.8; stroke-linecap: square"/>
     </g>
     <g id="line2d_14">
      <g>
       <use xlink:href="#mb19bc6e2c1" x="410.844366" y="307.584" style="stroke: #000000; stroke-width: 0.8"/>
      </g>
     </g>
     <g id="text_7">
      <!-- 30 -->
      <g transform="translate(404.481866 322.182437) scale(0.1 -0.1)">
       <defs>
        <path id="DejaVuSans-33" d="M 2597 2516 
Q 3050 2419 3304 2112 
Q 3559 1806 3559 1356 
Q 3559 666 3084 287 
Q 2609 -91 1734 -91 
Q 1441 -91 1130 -33 
Q 819 25 488 141 
L 488 750 
Q 750 597 1062 519 
Q 1375 441 1716 441 
Q 2309 441 2620 675 
Q 2931 909 2931 1356 
Q 2931 1769 2642 2001 
Q 2353 2234 1838 2234 
L 1294 2234 
L 1294 2753 
L 1863 2753 
Q 2328 2753 2575 2939 
Q 2822 3125 2822 3475 
Q 2822 3834 2567 4026 
Q 2313 4219 1838 4219 
Q 1578 4219 1281 4162 
Q 984 4106 628 3988 
L 628 4550 
Q 988 4650 1302 4700 
Q 1616 4750 1894 4750 
Q 2613 4750 3031 4423 
Q 3450 4097 3450 3541 
Q 3450 3153 3228 2886 
Q 3006 2619 2597 2516 
z
" transform="scale(0.015625)"/>
       </defs>
       <use xlink:href="#DejaVuSans-33"/>
       <use xlink:href="#DejaVuSans-30" x="63.623047"/>
      </g>
     </g>
    </g>
    <g id="text_8">
     <!-- Time(s) -->
     <g transform="translate(217.420156 335.860562) scale(0.1 -0.1)">
      <defs>
       <path id="DejaVuSans-54" d="M -19 4666 
L 3928 4666 
L 3928 4134 
L 2272 4134 
L 2272 0 
L 1638 0 
L 1638 4134 
L -19 4134 
L -19 4666 
z
" transform="scale(0.015625)"/>
       <path id="DejaVuSans-69" d="M 603 3500 
L 1178 3500 
L 1178 0 
L 603 0 
L 603 3500 
z
M 603 4863 
L 1178 4863 
L 1178 4134 
L 603 4134 
L 603 4863 
z
" transform="scale(0.015625)"/>
       <path id="DejaVuSans-6d" d="M 3328 2828 
Q 3544 3216 3844 3400 
Q 4144 3584 4550 3584 
Q 5097 3584 5394 3201 
Q 5691 2819 5691 2113 
L 5691 0 
L 5113 0 
L 5113 2094 
Q 5113 2597 4934 2840 
Q 4756 3084 4391 3084 
Q 3944 3084 3684 2787 
Q 3425 2491 3425 1978 
L 3425 0 
L 2847 0 
L 2847 2094 
Q 2847 2600 2669 2842 
Q 2491 3084 2119 3084 
Q 1678 3084 1418 2786 
Q 1159 2488 1159 1978 
L 1159 0 
L 581 0 
L 581 3500 
L 1159 3500 
L 1159 2956 
Q 1356 3278 1631 3431 
Q 1906 3584 2284 3584 
Q 2666 3584 2933 3390 
Q 3200 3197 3328 2828 
z
" transform="scale(0.015625)"/>
       <path id="DejaVuSans-65" d="M 3597 1894 
L 3597 1613 
L 953 1613 
Q 991 1019 1311 708 
Q 1631 397 2203 397 
Q 2534 397 2845 478 
Q 3156 559 3463 722 
L 3463 178 
Q 3153 47 2828 -22 
Q 2503 -91 2169 -91 
Q 1331 -91 842 396 
Q 353 884 353 1716 
Q 353 2575 817 3079 
Q 1281 3584 2069 3584 
Q 2775 3584 3186 3129 
Q 3597 2675 3597 1894 
z
M 3022 2063 
Q 3016 2534 2758 2815 
Q 2500 3097 2075 3097 
Q 1594 3097 1305 2825 
Q 1016 2553 972 2059 
L 3022 2063 
z
" transform="scale(0.015625)"/>
       <path id="DejaVuSans-28" d="M 1984 4856 
Q 1566 4138 1362 3434 
Q 1159 2731 1159 2009 
Q 1159 1288 1364 580 
Q 1569 -128 1984 -844 
L 1484 -844 
Q 1016 -109 783 600 
Q 550 1309 550 2009 
Q 550 2706 781 3412 
Q 1013 4119 1484 4856 
L 1984 4856 
z
" transform="scale(0.015625)"/>
       <path id="DejaVuSans-73" d="M 2834 3397 
L 2834 2853 
Q 2591 2978 2328 3040 
Q 2066 3103 1784 3103 
Q 1356 3103 1142 2972 
Q 928 2841 928 2578 
Q 928 2378 1081 2264 
Q 1234 2150 1697 2047 
L 1894 2003 
Q 2506 1872 2764 1633 
Q 3022 1394 3022 966 
Q 3022 478 2636 193 
Q 2250 -91 1575 -91 
Q 1294 -91 989 -36 
Q 684 19 347 128 
L 347 722 
Q 666 556 975 473 
Q 1284 391 1588 391 
Q 1994 391 2212 530 
Q 2431 669 2431 922 
Q 2431 1156 2273 1281 
Q 2116 1406 1581 1522 
L 1381 1569 
Q 847 1681 609 1914 
Q 372 2147 372 2553 
Q 372 3047 722 3315 
Q 1072 3584 1716 3584 
Q 2034 3584 2315 3537 
Q 2597 3491 2834 3397 
z
" transform="scale(0.015625)"/>
       <path id="DejaVuSans-29" d="M 513 4856 
L 1013 4856 
Q 1481 4119 1714 3412 
Q 1947 2706 1947 2009 
Q 1947 1309 1714 600 
Q 1481 -109 1013 -844 
L 513 -844 
Q 928 -128 1133 580 
Q 1338 1288 1338 2009 
Q 1338 2731 1133 3434 
Q 928 4138 513 4856 
z
" transform="scale(0.015625)"/>
      </defs>
      <use xlink:href="#DejaVuSans-54"/>
      <use xlink:href="#DejaVuSans-69" x="57.958984"/>
      <use xlink:href="#DejaVuSans-6d" x="85.742188"/>
      <use xlink:href="#DejaVuSans-65" x="183.154297"/>
      <use xlink:href="#DejaVuSans-28" x="244.677734"/>
      <use xlink:href="#DejaVuSans-73" x="283.691406"/>
      <use xlink:href="#DejaVuSans-29" x="335.791016"/>
     </g>
    </g>
   </g>
   <g id="matplotlib.axis_2">
    <g id="ytick_1">
     <g id="line2d_15">
      <path d="M 57.6 295.488 
L 414.72 295.488 
" clip-path="url(#p9e0ba1f834)" style="fill: none; stroke: #b0b0b0; stroke-width: 0.8; stroke-linecap: square"/>
     </g>
     <g id="line2d_16">
      <defs>
       <path id="mf9091f48ff" d="M 0 0 
L -3.5 0 
" style="stroke: #000000; stroke-width: 0.8"/>
      </defs>
      <g>
       <use xlink:href="#mf9091f48ff" x="57.6" y="295.488" style="stroke: #000000; stroke-width: 0.8"/>
      </g>
     </g>
     <g id="text_9">
      <!-- 0 -->
      <g transform="translate(44.2375 299.287219) scale(0.1 -0.1)">
       <use xlink:href="#DejaVuSans-30"/>
      </g>
     </g>
    </g>
    <g id="ytick_2">
     <g id="line2d_17">
      <path d="M 57.6 265.248 
L 414.72 265.248 
" clip-path="url(#p9e0ba1f834)" style="fill: none; stroke: #b0b0b0; stroke-width: 0.8; stroke-linecap: square"/>
     </g>
     <g id="line2d_18">
      <g>
       <use xlink:href="#mf9091f48ff" x="57.6" y="265.248" style="stroke: #000000; stroke-width: 0.8"/>
      </g>
     </g>
     <g id="text_10">
      <!-- 1 -->
      <g transform="translate(44.2375 269.047219) scale(0.1 -0.1)">
       <use xlink:href="#DejaVuSans-31"/>
      </g>
     </g>
    </g>
    <g id="ytick_3">
     <g id="line2d_19">
      <path d="M 57.6 235.008 
L 414.72 235.008 
" clip-path="url(#p9e0ba1f834)" style="fill: none; stroke: #b0b0b0; stroke-width: 0.8; stroke-linecap: square"/>
     </g>
     <g id="line2d_20">
      <g>
       <use xlink:href="#mf9091f48ff" x="57.6" y="235.008" style="stroke: #000000; stroke-width: 0.8"/>
      </g>
     </g>
     <g id="text_11">
      <!-- 2 -->
      <g transform="translate(44.2375 238.807219) scale(0.1 -0.1)">
       <use xlink:href="#DejaVuSans-32"/>
      </g>
     </g>
    </g>
    <g id="ytick_4">
     <g id="line2d_21">
      <path d="M 57.6 204.768 
L 414.72 204.768 
" clip-path="url(#p9e0ba1f834)" style="fill: none; stroke: #b0b0b0; stroke-width: 0.8; stroke-linecap: square"/>
     </g>
     <g id="line2d_22">
      <g>
       <use xlink:href="#mf9091f48ff" x="57.6" y="204.768" style="stroke: #000000; stroke-width: 0.8"/>
      </g>
     </g>
     <g id="text_12">
      <!-- 3 -->
      <g transform="translate(44.2375 208.567219) scale(0.1 -0.1)">
       <use xlink:href="#DejaVuSans-33"/>
      </g>
     </g>
    </g>
    <g id="ytick_5">
     <g id="line2d_23">
      <path d="M 57.6 174.528 
L 414.72 174.528 
" clip-path="url(#p9e0ba1f834)" style="fill: none; stroke: #b0b0b0; stroke-width: 0.8; stroke-linecap: square"/>
     </g>
     <g id="line2d_24">
      <g>
       <use xlink:href="#mf9091f48ff" x="57.6" y="174.528" style="stroke: #000000; stroke-width: 0.8"/>
      </g>
     </g>
     <g id="text_13">
      <!-- 4 -->
      <g transform="translate(44.2375 178.327219) scale(0.1 -0.1)">
       <defs>
        <path id="DejaVuSans-34" d="M 2419 4116 
L 825 1625 
L 2419 1625 
L 2419 4116 
z
M 2253 4666 
L 3047 4666 
L 3047 1625 
L 3713 1625 
L 3713 1100 
L 3047 1100 
L 3047 0 
L 2419 0 
L 2419 1100 
L 313 1100 
L 313 1709 
L 2253 4666 
z
" transform="scale(0.015625)"/>
       </defs>
       <use xlink:href="#DejaVuSans-34"/>
      </g>
     </g>
    </g>
    <g id="ytick_6">
     <g id="line2d_25">
      <path d="M 57.6 144.288 
L 414.72 144.288 
" clip-path="url(#p9e0ba1f834)" style="fill: none; stroke: #b0b0b0; stroke-width: 0.8; stroke-linecap: square"/>
     </g>
     <g id="line2d_26">
      <g>
       <use xlink:href="#mf9091f48ff" x="57.6" y="144.288" style="stroke: #000000; stroke-width: 0.8"/>
      </g>
     </g>
     <g id="text_14">
      <!-- 5 -->
      <g transform="translate(44.2375 148.087219) scale(0.1 -0.1)">
       <use xlink:href="#DejaVuSans-35"/>
      </g>
     </g>
    </g>
    <g id="ytick_7">
     <g id="line2d_27">
      <path d="M 57.6 114.048 
L 414.72 114.048 
" clip-path="url(#p9e0ba1f834)" style="fill: none; stroke: #b0b0b0; stroke-width: 0.8; stroke-linecap: square"/>
     </g>
     <g id="line2d_28">
      <g>
       <use xlink:href="#mf9091f48ff" x="57.6" y="114.048" style="stroke: #000000; stroke-width: 0.8"/>
      </g>
     </g>
     <g id="text_15">
      <!-- 6 -->
      <g transform="translate(44.2375 117.847219) scale(0.1 -0.1)">
       <defs>
        <path id="DejaVuSans-36" d="M 2113 2584 
Q 1688 2584 1439 2293 
Q 1191 2003 1191 1497 
Q 1191 994 1439 701 
Q 1688 409 2113 409 
Q 2538 409 2786 701 
Q 3034 994 3034 1497 
Q 3034 2003 2786 2293 
Q 2538 2584 2113 2584 
z
M 3366 4563 
L 3366 3988 
Q 3128 4100 2886 4159 
Q 2644 4219 2406 4219 
Q 1781 4219 1451 3797 
Q 1122 3375 1075 2522 
Q 1259 2794 1537 2939 
Q 1816 3084 2150 3084 
Q 2853 3084 3261 2657 
Q 3669 2231 3669 1497 
Q 3669 778 3244 343 
Q 2819 -91 2113 -91 
Q 1303 -91 875 529 
Q 447 1150 447 2328 
Q 447 3434 972 4092 
Q 1497 4750 2381 4750 
Q 2619 4750 2861 4703 
Q 3103 4656 3366 4563 
z
" transform="scale(0.015625)"/>
       </defs>
       <use xlink:href="#DejaVuSans-36"/>
      </g>
     </g>
    </g>
    <g id="ytick_8">
     <g id="line2d_29">
      <path d="M 57.6 83.808 
L 414.72 83.808 
" clip-path="url(#p9e0ba1f834)" style="fill: none; stroke: #b0b0b0; stroke-width: 0.8; stroke-linecap: square"/>
     </g>
     <g id="line2d_30">
      <g>
       <use xlink:href="#mf9091f48ff" x="57.6" y="83.808" style="stroke: #000000; stroke-width: 0.8"/>
      </g>
     </g>
     <g id="text_16">
      <!-- 7 -->
      <g transform="translate(44.2375 87.607219) scale(0.1 -0.1)">
       <defs>
        <path id="DejaVuSans-37" d="M 525 4666 
L 3525 4666 
L 3525 4397 
L 1831 0 
L 1172 0 
L 2766 4134 
L 525 4134 
L 525 4666 
z
" transform="scale(0.015625)"/>
       </defs>
       <use xlink:href="#DejaVuSans-37"/>
      </g>
     </g>
    </g>
    <g id="ytick_9">
     <g id="line2d_31">
      <path d="M 57.6 53.568 
L 414.72 53.568 
" clip-path="url(#p9e0ba1f834)" style="fill: none; stroke: #b0b0b0; stroke-width: 0.8; stroke-linecap: square"/>
     </g>
     <g id="line2d_32">
      <g>
       <use xlink:href="#mf9091f48ff" x="57.6" y="53.568" style="stroke: #000000; stroke-width: 0.8"/>
      </g>
     </g>
     <g id="text_17">
      <!-- 8 -->
      <g transform="translate(44.2375 57.367219) scale(0.1 -0.1)">
       <defs>
        <path id="DejaVuSans-38" d="M 2034 2216 
Q 1584 2216 1326 1975 
Q 1069 1734 1069 1313 
Q 1069 891 1326 650 
Q 1584 409 2034 409 
Q 2484 409 2743 651 
Q 3003 894 3003 1313 
Q 3003 1734 2745 1975 
Q 2488 2216 2034 2216 
z
M 1403 2484 
Q 997 2584 770 2862 
Q 544 3141 544 3541 
Q 544 4100 942 4425 
Q 1341 4750 2034 4750 
Q 2731 4750 3128 4425 
Q 3525 4100 3525 3541 
Q 3525 3141 3298 2862 
Q 3072 2584 2669 2484 
Q 3125 2378 3379 2068 
Q 3634 1759 3634 1313 
Q 3634 634 3220 271 
Q 2806 -91 2034 -91 
Q 1263 -91 848 271 
Q 434 634 434 1313 
Q 434 1759 690 2068 
Q 947 2378 1403 2484 
z
M 1172 3481 
Q 1172 3119 1398 2916 
Q 1625 2713 2034 2713 
Q 2441 2713 2670 2916 
Q 2900 3119 2900 3481 
Q 2900 3844 2670 4047 
Q 2441 4250 2034 4250 
Q 1625 4250 1398 4047 
Q 1172 3844 1172 3481 
z
" transform="scale(0.015625)"/>
       </defs>
       <use xlink:href="#DejaVuSans-38"/>
      </g>
     </g>
    </g>
    <g id="text_18">
     <!-- Velocity(m/s) -->
     <g transform="translate(38.157812 207.204563) rotate(-90) scale(0.1 -0.1)">
      <defs>
       <path id="DejaVuSans-56" d="M 1831 0 
L 50 4666 
L 709 4666 
L 2188 738 
L 3669 4666 
L 4325 4666 
L 2547 0 
L 1831 0 
z
" transform="scale(0.015625)"/>
       <path id="DejaVuSans-6c" d="M 603 4863 
L 1178 4863 
L 1178 0 
L 603 0 
L 603 4863 
z
" transform="scale(0.015625)"/>
       <path id="DejaVuSans-6f" d="M 1959 3097 
Q 1497 3097 1228 2736 
Q 959 2375 959 1747 
Q 959 1119 1226 758 
Q 1494 397 1959 397 
Q 2419 397 2687 759 
Q 2956 1122 2956 1747 
Q 2956 2369 2687 2733 
Q 2419 3097 1959 3097 
z
M 1959 3584 
Q 2709 3584 3137 3096 
Q 3566 2609 3566 1747 
Q 3566 888 3137 398 
Q 2709 -91 1959 -91 
Q 1206 -91 779 398 
Q 353 888 353 1747 
Q 353 2609 779 3096 
Q 1206 3584 1959 3584 
z
" transform="scale(0.015625)"/>
       <path id="DejaVuSans-63" d="M 3122 3366 
L 3122 2828 
Q 2878 2963 2633 3030 
Q 2388 3097 2138 3097 
Q 1578 3097 1268 2742 
Q 959 2388 959 1747 
Q 959 1106 1268 751 
Q 1578 397 2138 397 
Q 2388 397 2633 464 
Q 2878 531 3122 666 
L 3122 134 
Q 2881 22 2623 -34 
Q 2366 -91 2075 -91 
Q 1284 -91 818 406 
Q 353 903 353 1747 
Q 353 2603 823 3093 
Q 1294 3584 2113 3584 
Q 2378 3584 2631 3529 
Q 2884 3475 3122 3366 
z
" transform="scale(0.015625)"/>
       <path id="DejaVuSans-74" d="M 1172 4494 
L 1172 3500 
L 2356 3500 
L 2356 3053 
L 1172 3053 
L 1172 1153 
Q 1172 725 1289 603 
Q 1406 481 1766 481 
L 2356 481 
L 2356 0 
L 1766 0 
Q 1100 0 847 248 
Q 594 497 594 1153 
L 594 3053 
L 172 3053 
L 172 3500 
L 594 3500 
L 594 4494 
L 1172 4494 
z
" transform="scale(0.015625)"/>
       <path id="DejaVuSans-79" d="M 2059 -325 
Q 1816 -950 1584 -1140 
Q 1353 -1331 966 -1331 
L 506 -1331 
L 506 -850 
L 844 -850 
Q 1081 -850 1212 -737 
Q 1344 -625 1503 -206 
L 1606 56 
L 191 3500 
L 800 3500 
L 1894 763 
L 2988 3500 
L 3597 3500 
L 2059 -325 
z
" transform="scale(0.015625)"/>
       <path id="DejaVuSans-2f" d="M 1625 4666 
L 2156 4666 
L 531 -594 
L 0 -594 
L 1625 4666 
z
" transform="scale(0.015625)"/>
      </defs>
      <use xlink:href="#DejaVuSans-56"/>
      <use xlink:href="#DejaVuSans-65" x="60.658203"/>
      <use xlink:href="#DejaVuSans-6c" x="122.181641"/>
      <use xlink:href="#DejaVuSans-6f" x="149.964844"/>
      <use xlink:href="#DejaVuSans-63" x="211.146484"/>
      <use xlink:href="#DejaVuSans-69" x="266.126953"/>
      <use xlink:href="#DejaVuSans-74" x="293.910156"/>
      <use xlink:href="#DejaVuSans-79" x="333.119141"/>
      <use xlink:href="#DejaVuSans-28" x="392.298828"/>
      <use xlink:href="#DejaVuSans-6d" x="431.3125"/>
      <use xlink:href="#DejaVuSans-2f" x="528.724609"/>
      <use xlink:href="#DejaVuSans-73" x="562.416016"/>
      <use xlink:href="#DejaVuSans-29" x="614.515625"/>
     </g>
    </g>
   </g>
   <g id="line2d_33">
    <path d="M 73.832727 53.568 
L 73.832727 295.488 
L 74.057402 294.055985 
L 74.057402 294.055985 
L 78.55089 245.435387 
L 78.55089 245.435387 
L 83.044379 194.412977 
L 83.044379 194.412977 
L 87.537867 140.870094 
L 87.537867 140.870094 
L 92.031356 84.682208 
L 92.031356 84.682208 
L 92.705379 76.802148 
L 92.705379 76.802148 
L 93.379402 70.91321 
L 93.379402 70.91321 
L 94.053426 66.516889 
L 94.053426 66.516889 
L 94.727449 63.234881 
L 94.727449 63.234881 
L 95.401472 60.784716 
L 95.401472 60.784716 
L 96.075495 58.955558 
L 96.075495 58.955558 
L 96.974193 57.216637 
L 96.974193 57.216637 
L 97.648216 56.363839 
L 97.648216 56.363839 
L 97.872891 56.265015 
L 97.872891 56.265015 
L 98.097565 56.522508 
L 98.097565 56.522508 
L 98.996263 60.773194 
L 98.996263 60.773194 
L 101.018333 73.647814 
L 101.018333 73.647814 
L 101.467682 76.609398 
L 101.467682 76.609398 
L 103.714426 89.921591 
L 103.714426 89.921591 
L 105.062472 95.424787 
L 105.062472 95.424787 
L 105.96117 97.925272 
L 105.96117 97.925272 
L 106.410519 98.816535 
L 106.410519 98.816535 
L 107.084542 99.655726 
L 107.084542 99.655726 
L 107.758566 100.070437 
L 107.758566 100.070437 
L 108.657263 100.225871 
L 108.657263 100.225871 
L 109.331287 100.272168 
L 109.331287 100.272168 
L 110.229984 100.187194 
L 110.229984 100.187194 
L 110.904008 99.911828 
L 110.904008 99.911828 
L 111.353356 99.509757 
L 111.353356 99.509757 
L 111.802705 99.020444 
L 111.802705 99.020444 
L 112.926077 96.7356 
L 112.926077 96.7356 
L 113.824775 93.519395 
L 113.824775 93.519395 
L 114.274124 91.525369 
L 114.274124 91.525369 
L 115.397496 84.520454 
L 115.397496 84.520454 
L 115.846845 81.008623 
L 115.846845 81.008623 
L 116.745543 72.782798 
L 116.745543 72.782798 
L 117.419566 67.912616 
L 117.419566 67.912616 
L 118.093589 64.276831 
L 118.093589 64.276831 
L 118.767612 61.562579 
L 118.767612 61.562579 
L 119.441636 59.536257 
L 119.441636 59.536257 
L 120.340333 57.609909 
L 120.340333 57.609909 
L 121.239031 56.305295 
L 121.239031 56.305295 
L 122.137729 55.421803 
L 122.137729 55.421803 
L 123.036427 54.823444 
L 123.036427 54.823444 
L 124.159799 54.339301 
L 124.159799 54.339301 
L 125.507845 53.997862 
L 125.507845 53.997862 
L 127.529915 53.746839 
L 127.529915 53.746839 
L 130.675357 53.613723 
L 130.675357 53.613723 
L 138.763636 53.569361 
L 138.763636 53.569361 
L 140.111683 53.649104 
L 140.111683 53.649104 
L 140.336357 54.271655 
L 140.336357 54.271655 
L 141.010381 62.193869 
L 141.010381 62.193869 
L 141.459729 67.865049 
L 141.459729 67.865049 
L 141.909078 74.261262 
L 141.909078 74.261262 
L 143.931148 99.33376 
L 143.931148 99.33376 
L 145.953218 116.423806 
L 145.953218 116.423806 
L 147.07659 123.08217 
L 147.07659 123.08217 
L 147.975288 127.33978 
L 147.975288 127.33978 
L 148.649311 129.66699 
L 148.649311 129.66699 
L 149.323334 131.794949 
L 149.323334 131.794949 
L 149.772683 133.121336 
L 149.772683 133.121336 
L 150.222032 134.458095 
L 150.222032 134.458095 
L 150.896055 136.207025 
L 150.896055 136.207025 
L 152.693451 139.567445 
L 152.693451 139.567445 
L 153.592148 140.730385 
L 153.592148 140.730385 
L 154.490846 141.353087 
L 154.490846 141.353087 
L 156.288242 141.739161 
L 156.288242 141.739161 
L 158.534986 141.491133 
L 158.534986 141.491133 
L 159.433684 141.010196 
L 159.433684 141.010196 
L 160.107707 140.277964 
L 160.107707 140.277964 
L 160.557056 139.570772 
L 160.557056 139.570772 
L 161.006405 138.62562 
L 161.006405 138.62562 
L 161.680428 136.726186 
L 161.680428 136.726186 
L 162.354451 133.964518 
L 162.354451 133.964518 
L 162.8038 131.607733 
L 162.8038 131.607733 
L 164.376521 119.316655 
L 164.376521 119.316655 
L 164.82587 117.336237 
L 164.82587 117.336237 
L 165.275219 116.515161 
L 165.275219 116.515161 
L 165.724567 116.273785 
L 165.724567 116.273785 
L 165.949242 116.38026 
L 165.949242 116.38026 
L 166.623265 118.15178 
L 166.623265 118.15178 
L 167.521963 120.071112 
L 167.521963 120.071112 
L 167.971312 120.710326 
L 167.971312 120.710326 
L 168.420661 121.05615 
L 168.420661 121.05615 
L 169.319358 121.401672 
L 169.319358 121.401672 
L 171.341428 121.250987 
L 171.341428 121.250987 
L 172.4648 120.634998 
L 172.4648 120.634998 
L 173.588172 118.937385 
L 173.588172 118.937385 
L 175.160893 114.137631 
L 175.160893 114.137631 
L 176.50894 107.230694 
L 176.50894 107.230694 
L 177.182963 102.677095 
L 177.182963 102.677095 
L 178.081661 95.791175 
L 178.081661 95.791175 
L 178.755684 89.993622 
L 178.755684 89.993622 
L 179.205033 87.918009 
L 179.205033 87.918009 
L 179.429707 87.43807 
L 179.429707 87.43807 
L 179.654382 87.607626 
L 179.654382 87.607626 
L 180.103731 91.504322 
L 180.103731 91.504322 
L 180.328405 93.982913 
L 180.328405 93.982913 
L 180.777754 100.460019 
L 180.777754 100.460019 
L 183.249173 134.337861 
L 183.249173 134.337861 
L 186.394615 162.880459 
L 186.394615 162.880459 
L 186.619289 163.991507 
L 186.619289 163.991507 
L 186.843964 166.059953 
L 186.843964 166.059953 
L 187.293312 167.988842 
L 187.293312 167.988842 
L 187.967336 171.62245 
L 187.967336 171.62245 
L 188.19201 172.413075 
L 188.416684 173.838074 
L 188.416684 173.838074 
L 190.21408 179.004851 
L 190.21408 179.004851 
L 191.337452 180.804826 
L 191.337452 180.804826 
L 192.23615 181.53866 
L 192.23615 181.53866 
L 193.134847 181.75536 
L 193.134847 181.75536 
L 193.808871 181.825184 
L 193.808871 181.825184 
L 195.830941 181.664217 
L 195.830941 181.664217 
L 196.504964 181.392359 
L 196.504964 181.392359 
L 197.403662 180.481984 
L 197.403662 180.481984 
L 197.85301 179.836813 
L 197.85301 179.836813 
L 198.077685 179.481554 
L 198.077685 179.481554 
L 199.425731 175.721028 
L 199.425731 175.721028 
L 200.099755 173.079323 
L 200.099755 173.079323 
L 200.549103 170.691723 
L 200.549103 170.691723 
L 200.998452 167.704828 
L 200.998452 167.704828 
L 201.89715 162.585861 
L 201.89715 162.585861 
L 202.346499 161.98472 
L 202.346499 161.98472 
L 202.571173 163.717805 
L 202.571173 163.717805 
L 202.795848 164.106994 
L 202.795848 164.106994 
L 203.020522 165.341874 
L 203.020522 165.341874 
L 203.91922 173.335365 
L 203.91922 173.335365 
L 204.143894 176.313944 
L 204.143894 176.313944 
L 204.593243 179.003611 
L 204.593243 179.003611 
L 205.267266 184.45422 
L 205.267266 184.45422 
L 206.615313 190.63455 
L 206.615313 190.63455 
L 207.96336 194.440375 
L 207.96336 194.440375 
L 208.637383 195.532281 
L 208.637383 195.532281 
L 209.536081 196.262063 
L 209.536081 196.262063 
L 210.210104 196.572355 
L 210.210104 196.572355 
L 212.681522 196.548708 
L 212.681522 196.548708 
L 213.58022 196.252114 
L 213.58022 196.252114 
L 214.254243 195.667847 
L 214.254243 195.667847 
L 214.703592 195.244577 
L 214.703592 195.244577 
L 216.051639 192.940803 
L 216.051639 192.940803 
L 217.175011 189.694781 
L 217.175011 189.694781 
L 219.197081 178.387531 
L 219.197081 178.387531 
L 219.871104 173.253233 
L 219.871104 173.253233 
L 220.320453 170.725441 
L 220.320453 170.725441 
L 220.769802 169.62528 
L 220.769802 169.62528 
L 221.219151 169.567007 
L 221.219151 169.567007 
L 221.443825 171.16005 
L 221.443825 171.16005 
L 221.893174 172.333574 
L 221.893174 172.333574 
L 222.567197 176.163228 
L 222.567197 176.163228 
L 223.465895 179.540734 
L 223.465895 179.540734 
L 223.915244 181.315428 
L 223.915244 181.315428 
L 225.26329 184.638623 
L 225.26329 184.638623 
L 225.937314 185.698414 
L 225.937314 185.698414 
L 226.836011 186.466631 
L 226.836011 186.466631 
L 227.734709 186.874962 
L 227.734709 186.874962 
L 229.082756 186.966498 
L 229.082756 186.966498 
L 230.655477 186.835559 
L 230.655477 186.835559 
L 232.003523 186.197646 
L 232.003523 186.197646 
L 232.677546 185.637995 
L 232.677546 185.637995 
L 233.35157 184.918343 
L 233.35157 184.918343 
L 233.800919 184.190769 
L 233.800919 184.190769 
L 234.474942 182.998678 
L 234.474942 182.998678 
L 235.148965 181.407086 
L 235.148965 181.407086 
L 235.822988 179.630909 
L 235.822988 179.630909 
L 237.845058 172.12011 
L 237.845058 172.12011 
L 238.519081 169.198109 
L 238.519081 169.198109 
L 241.215175 153.942816 
L 241.215175 153.942816 
L 242.563221 144.112487 
L 242.563221 144.112487 
L 244.135942 130.357823 
L 244.135942 130.357823 
L 245.259314 118.751409 
L 245.259314 118.751409 
L 246.832035 102.317178 
L 246.832035 102.317178 
L 248.404756 85.337448 
L 248.404756 85.337448 
L 249.977477 70.486978 
L 249.977477 70.486978 
L 250.6515 66.198704 
L 250.6515 66.198704 
L 251.325524 62.997316 
L 251.325524 62.997316 
L 251.999547 60.607358 
L 251.999547 60.607358 
L 252.67357 58.823168 
L 252.67357 58.823168 
L 253.572268 57.126976 
L 253.572268 57.126976 
L 254.470966 55.978249 
L 254.470966 55.978249 
L 255.369663 55.200295 
L 255.369663 55.200295 
L 256.493036 54.570819 
L 256.493036 54.570819 
L 257.841082 54.126896 
L 257.841082 54.126896 
L 259.638478 53.824344 
L 259.638478 53.824344 
L 262.334571 53.647622 
L 262.334571 53.647622 
L 267.726757 53.575681 
L 267.726757 53.575681 
L 286.599409 53.568 
L 286.599409 53.568 
L 286.824083 53.92084 
L 286.824083 53.92084 
L 287.722781 62.196258 
L 287.722781 62.196258 
L 288.396804 70.190172 
L 288.396804 70.190172 
L 289.520176 79.121949 
L 289.520176 79.121949 
L 289.969525 81.468543 
L 289.969525 81.468543 
L 290.643548 83.648151 
L 290.643548 83.648151 
L 291.092897 84.376572 
L 291.092897 84.376572 
L 291.542246 84.651061 
L 291.542246 84.651061 
L 291.991595 84.804952 
L 291.991595 84.804952 
L 293.114967 84.516886 
L 293.114967 84.516886 
L 293.339641 84.353288 
L 293.339641 84.353288 
L 294.013665 83.352676 
L 294.013665 83.352676 
L 294.687688 81.655849 
L 294.687688 81.655849 
L 295.361711 78.87513 
L 295.361711 78.87513 
L 296.035735 75.278536 
L 296.035735 75.278536 
L 296.485083 72.409062 
L 296.485083 72.409062 
L 297.159107 67.64478 
L 297.159107 67.64478 
L 297.83313 64.076884 
L 297.83313 64.076884 
L 298.507153 61.413314 
L 298.507153 61.413314 
L 299.181176 59.424823 
L 299.181176 59.424823 
L 299.8552 57.981195 
L 299.8552 57.981195 
L 300.079874 57.712846 
L 300.079874 57.712846 
L 300.304549 57.694944 
L 300.304549 57.694944 
L 301.203246 61.595631 
L 301.203246 61.595631 
L 302.551293 71.765434 
L 302.551293 71.765434 
L 303.449991 77.487477 
L 303.449991 77.487477 
L 304.573363 85.663012 
L 304.573363 85.663012 
L 305.022712 89.172636 
L 305.022712 89.172636 
L 305.921409 96.044102 
L 305.921409 96.044102 
L 306.820107 103.449424 
L 306.820107 103.449424 
L 307.269456 106.44264 
L 307.269456 106.44264 
L 307.718805 109.871493 
L 307.718805 109.871493 
L 308.617502 115.756076 
L 308.617502 115.756076 
L 310.414898 123.922842 
L 310.414898 123.922842 
L 311.088921 125.936251 
L 311.088921 125.936251 
L 311.53827 127.153018 
L 311.53827 127.153018 
L 311.987619 128.042135 
L 311.987619 128.042135 
L 312.661642 129.006579 
L 312.661642 129.006579 
L 314.009689 129.814803 
L 314.009689 129.814803 
L 316.256433 129.671436 
L 316.256433 129.671436 
L 316.705782 129.516909 
L 316.705782 129.516909 
L 318.053828 127.977723 
L 318.053828 127.977723 
L 318.952526 126.124253 
L 318.952526 126.124253 
L 319.401875 124.696774 
L 319.401875 124.696774 
L 320.075898 122.273764 
L 320.075898 122.273764 
L 320.974596 117.917087 
L 320.974596 117.917087 
L 321.648619 114.014282 
L 321.648619 114.014282 
L 322.322642 109.250001 
L 322.322642 109.250001 
L 323.670689 97.947589 
L 323.670689 97.947589 
L 326.142108 72.355326 
L 326.142108 72.355326 
L 326.816131 67.593493 
L 326.816131 67.593493 
L 327.490154 64.0386 
L 327.490154 64.0386 
L 328.164177 61.384707 
L 328.164177 61.384707 
L 328.838201 59.403504 
L 328.838201 59.403504 
L 329.736898 57.519975 
L 329.736898 57.519975 
L 330.635596 56.244421 
L 330.635596 56.244421 
L 331.534294 55.380555 
L 331.534294 55.380555 
L 332.432992 54.795502 
L 332.432992 54.795502 
L 333.331689 54.399298 
L 333.331689 54.399298 
L 333.556364 54.383059 
L 333.556364 54.383059 
L 333.781038 54.853291 
L 333.781038 54.853291 
L 334.005712 55.989861 
L 334.005712 55.989861 
L 335.129085 66.082401 
L 335.129085 66.082401 
L 335.578433 72.19968 
L 335.578433 72.19968 
L 336.477131 84.365988 
L 336.477131 84.365988 
L 337.375829 95.260886 
L 337.375829 95.260886 
L 337.825178 99.452543 
L 337.825178 99.452543 
L 338.723875 105.426001 
L 338.723875 105.426001 
L 339.397899 108.233302 
L 339.397899 108.233302 
L 340.071922 110.059616 
L 340.071922 110.059616 
L 340.745945 111.092917 
L 340.745945 111.092917 
L 341.419969 111.567201 
L 341.419969 111.567201 
L 341.644643 111.695993 
L 341.644643 111.695993 
L 342.543341 111.76609 
L 342.543341 111.76609 
L 342.99269 111.796662 
L 342.99269 111.796662 
L 343.891387 111.704249 
L 343.891387 111.704249 
L 345.014759 111.169696 
L 345.014759 111.169696 
L 346.138131 109.934846 
L 346.138131 109.934846 
L 347.261504 107.973328 
L 347.261504 107.973328 
L 347.710852 107.570108 
L 347.710852 107.570108 
L 347.935527 107.50981 
L 347.935527 107.50981 
L 348.60955 109.732812 
L 348.60955 109.732812 
L 348.834225 111.909336 
L 348.834225 111.909336 
L 349.058899 112.891078 
L 349.058899 112.891078 
L 350.182271 123.427904 
L 350.182271 123.427904 
L 350.63162 130.329367 
L 350.63162 130.329367 
L 351.305643 140.539147 
L 351.305643 140.539147 
L 353.552388 165.461746 
L 353.552388 165.461746 
L 354.001736 168.039615 
L 354.001736 168.039615 
L 355.125109 176.057932 
L 355.125109 176.057932 
L 356.023806 180.048433 
L 356.023806 180.048433 
L 356.248481 181.538569 
L 356.248481 181.538569 
L 357.147178 184.616306 
L 357.147178 184.616306 
L 357.596527 186.116089 
L 357.596527 186.116089 
L 358.719899 188.51273 
L 358.719899 188.51273 
L 359.618597 189.52069 
L 359.618597 189.52069 
L 360.517295 189.912691 
L 360.517295 189.912691 
L 361.640667 189.927508 
L 361.640667 189.927508 
L 362.539365 189.85847 
L 362.539365 189.85847 
L 363.438062 189.655832 
L 363.438062 189.655832 
L 364.561434 188.768832 
L 364.561434 188.768832 
L 365.909481 186.344038 
L 365.909481 186.344038 
L 366.583504 184.71011 
L 366.583504 184.71011 
L 367.257528 182.605739 
L 367.257528 182.605739 
L 367.931551 180.275687 
L 367.931551 180.275687 
L 368.830249 176.411529 
L 368.830249 176.411529 
L 369.728946 172.418216 
L 369.728946 172.418216 
L 371.751016 160.546717 
L 371.751016 160.546717 
L 372.649714 154.584085 
L 372.649714 154.584085 
L 374.447109 143.663272 
L 374.447109 143.663272 
L 374.896458 142.188437 
L 374.896458 142.188437 
L 375.345807 141.214527 
L 375.345807 141.214527 
L 375.795156 140.584205 
L 375.795156 140.584205 
L 376.244505 140.18924 
L 376.244505 140.18924 
L 376.918528 139.838244 
L 376.918528 139.838244 
L 379.389947 139.142362 
L 379.389947 139.142362 
L 380.288644 138.409858 
L 380.288644 138.409858 
L 380.962668 137.401263 
L 380.962668 137.401263 
L 381.412016 136.467966 
L 381.412016 136.467966 
L 381.861365 135.283798 
L 381.861365 135.283798 
L 382.535388 133.002765 
L 382.535388 133.002765 
L 383.209412 129.992826 
L 383.209412 129.992826 
L 384.782133 119.035725 
L 384.782133 119.035725 
L 386.804203 97.061466 
L 386.804203 97.061466 
L 388.826272 73.385965 
L 388.826272 73.385965 
L 389.500296 68.36289 
L 389.500296 68.36289 
L 390.174319 64.612979 
L 390.174319 64.612979 
L 390.848342 61.813511 
L 390.848342 61.813511 
L 391.522366 59.723624 
L 391.522366 59.723624 
L 392.421063 57.736765 
L 392.421063 57.736765 
L 393.319761 56.391237 
L 393.319761 56.391237 
L 394.218459 55.479984 
L 394.218459 55.479984 
L 395.117156 54.862847 
L 395.117156 54.862847 
L 396.240528 54.363493 
L 396.240528 54.363493 
L 397.813249 53.989818 
L 397.813249 53.989818 
L 398.487273 53.882919 
L 398.487273 53.882919 
" clip-path="url(#p9e0ba1f834)" style="fill: none; stroke: #1f77b4; stroke-width: 1.5; stroke-linecap: square"/>
   </g>
   <g id="line2d_34">
    <path d="M 73.832727 53.568 
L 73.832727 270.190728 
L 74.282076 266.028434 
L 74.282076 266.028434 
L 78.775565 216.023298 
L 78.775565 216.023298 
L 83.269053 163.547947 
L 83.269053 163.547947 
L 87.762542 108.480332 
L 87.762542 108.480332 
L 92.031356 53.648438 
L 92.031356 53.648438 
L 92.480705 53.568 
L 92.480705 53.568 
L 96.974193 53.568 
L 96.974193 53.568 
L 97.198868 53.916667 
L 97.198868 53.916667 
L 97.423542 54.027194 
L 97.423542 54.027194 
L 97.872891 57.013032 
L 97.872891 57.013032 
L 98.32224 61.491092 
L 98.32224 61.491092 
L 98.546914 61.460973 
L 98.546914 61.460973 
L 98.771589 62.721013 
L 98.771589 62.721013 
L 99.220937 66.890625 
L 99.220937 66.890625 
L 99.445612 67.169287 
L 99.445612 67.169287 
L 100.34431 73.181966 
L 100.34431 73.181966 
L 100.793658 76.638126 
L 100.793658 76.638126 
L 101.018333 78.733909 
L 101.018333 78.733909 
L 101.243007 78.916166 
L 101.243007 78.916166 
L 101.692356 82.607109 
L 101.692356 82.607109 
L 101.917031 84.990686 
L 101.917031 84.990686 
L 102.141705 84.69633 
L 102.141705 84.69633 
L 102.366379 86.083106 
L 102.366379 86.083106 
L 102.591054 88.372002 
L 102.591054 88.372002 
L 102.815728 88.494535 
L 102.815728 88.494535 
L 103.040403 89.606943 
L 103.040403 89.606943 
L 103.265077 91.520228 
L 103.265077 91.520228 
L 103.489751 91.863422 
L 103.489751 91.863422 
L 103.714426 92.803432 
L 103.714426 92.803432 
L 103.9391 94.28492 
L 103.9391 94.28492 
L 104.163775 94.504946 
L 104.163775 94.504946 
L 104.613124 96.56048 
L 104.613124 96.56048 
L 104.837798 96.735419 
L 104.837798 96.735419 
L 105.511821 98.533338 
L 105.511821 98.533338 
L 105.736496 98.857269 
L 105.736496 98.857269 
L 105.96117 99.383959 
L 105.96117 99.383959 
L 107.084542 100.141168 
L 107.084542 100.141168 
L 107.758566 100.257985 
L 107.758566 100.257985 
L 107.98324 100.199229 
L 107.98324 100.199229 
L 108.207914 100.317528 
L 108.207914 100.317528 
L 108.432589 100.251665 
L 108.432589 100.251665 
L 108.657263 100.370508 
L 108.657263 100.370508 
L 109.106612 100.175944 
L 109.106612 100.175944 
L 109.331287 100.281028 
L 109.331287 100.281028 
L 109.555961 100.127197 
L 109.555961 100.127197 
L 109.780635 99.78984 
L 109.780635 99.78984 
L 110.00531 99.88936 
L 110.00531 99.88936 
L 110.229984 99.578281 
L 110.229984 99.578281 
L 110.454659 98.81088 
L 110.454659 98.81088 
L 110.679333 98.970638 
L 110.904008 98.3346 
L 110.904008 98.3346 
L 111.128682 97.011842 
L 111.128682 97.011842 
L 111.353356 97.340491 
L 111.353356 97.340491 
L 111.578031 96.207186 
L 111.802705 94.135444 
L 111.802705 94.135444 
L 112.02738 94.85688 
L 112.02738 94.85688 
L 112.252054 93.068274 
L 112.252054 93.068274 
L 112.476729 92.757619 
L 112.476729 92.757619 
L 112.701403 91.405921 
L 112.701403 91.405921 
L 112.926077 88.864007 
L 112.926077 88.864007 
L 113.150752 88.535631 
L 113.150752 88.535631 
L 113.375426 86.926288 
L 113.600101 83.615825 
L 113.600101 83.615825 
L 113.824775 83.381525 
L 113.824775 83.381525 
L 114.04945 81.237842 
L 114.04945 81.237842 
L 114.274124 77.40338 
L 114.274124 77.40338 
L 114.498798 77.138417 
L 114.498798 77.138417 
L 114.723473 74.619122 
L 114.723473 74.619122 
L 114.948147 70.371098 
L 114.948147 70.371098 
L 115.172822 69.48059 
L 115.172822 69.48059 
L 115.397496 66.904777 
L 115.397496 66.904777 
L 115.846845 56.904893 
L 115.846845 56.904893 
L 116.071519 57.995106 
L 116.071519 57.995106 
L 116.296194 54.299717 
L 116.296194 54.299717 
L 116.520868 53.568 
L 116.520868 53.568 
L 139.662334 53.568 
L 139.662334 53.568 
L 139.887008 53.801997 
L 139.887008 53.801997 
L 140.111683 55.457698 
L 140.111683 55.457698 
L 140.561032 66.59896 
L 140.561032 66.59896 
L 140.785706 66.290361 
L 140.785706 66.290361 
L 141.235055 73.664385 
L 141.235055 73.664385 
L 141.459729 78.899292 
L 141.459729 78.899292 
L 141.684404 79.210643 
L 141.684404 79.210643 
L 142.133753 86.343352 
L 142.133753 86.343352 
L 142.358427 91.131312 
L 142.358427 91.131312 
L 142.583102 90.675716 
L 142.583102 90.675716 
L 142.807776 93.42562 
L 142.807776 93.42562 
L 143.03245 98.234567 
L 143.03245 98.234567 
L 143.257125 98.398225 
L 143.257125 98.398225 
L 143.481799 100.635774 
L 143.481799 100.635774 
L 143.706474 104.872519 
L 143.706474 104.872519 
L 143.931148 105.03267 
L 143.931148 105.03267 
L 144.155823 106.993764 
L 144.155823 106.993764 
L 144.380497 111.106404 
L 144.380497 111.106404 
L 144.605171 110.822723 
L 144.605171 110.822723 
L 144.829846 113.11561 
L 144.829846 113.11561 
L 145.05452 116.753996 
L 145.05452 116.753996 
L 145.279195 116.000748 
L 145.279195 116.000748 
L 145.503869 118.58524 
L 145.728544 118.804117 
L 145.728544 118.804117 
L 145.953218 120.589789 
L 146.177892 123.438397 
L 146.177892 123.438397 
L 146.402567 122.604862 
L 146.402567 122.604862 
L 146.627241 124.838963 
L 146.627241 124.838963 
L 146.851916 124.841745 
L 146.851916 124.841745 
L 147.07659 126.358039 
L 147.07659 126.358039 
L 147.301265 126.87608 
L 147.301265 126.87608 
L 147.525939 127.955316 
L 147.525939 127.955316 
L 147.750613 129.69977 
L 147.750613 129.69977 
L 147.975288 129.355518 
L 147.975288 129.355518 
L 148.199962 130.850191 
L 148.199962 130.850191 
L 148.424637 130.931657 
L 148.424637 130.931657 
L 148.649311 132.062361 
L 148.649311 132.062361 
L 148.873986 132.295058 
L 148.873986 132.295058 
L 149.772683 135.592821 
L 149.772683 135.592821 
L 149.997358 135.383983 
L 150.222032 136.405097 
L 150.222032 136.405097 
L 150.446707 136.39031 
L 150.446707 136.39031 
L 150.671381 137.434527 
L 150.671381 137.434527 
L 150.896055 137.490985 
L 150.896055 137.490985 
L 151.12073 138.277558 
L 151.345404 138.375626 
L 151.345404 138.375626 
L 151.570079 138.962857 
L 151.570079 138.962857 
L 151.794753 139.080944 
L 151.794753 139.080944 
L 152.019427 139.624296 
L 152.019427 139.624296 
L 152.244102 139.731467 
L 152.244102 139.731467 
L 152.468776 140.373704 
L 152.468776 140.373704 
L 152.693451 140.488556 
L 152.693451 140.488556 
L 152.918125 140.846869 
L 153.1428 140.944635 
L 153.367474 141.232762 
L 153.367474 141.232762 
L 153.592148 141.278545 
L 153.592148 141.278545 
L 153.816823 141.51094 
L 154.041497 141.287345 
L 154.041497 141.287345 
L 154.266172 141.683943 
L 154.266172 141.683943 
L 154.490846 141.531745 
L 154.490846 141.531745 
L 154.715521 141.770762 
L 154.715521 141.770762 
L 154.940195 141.689356 
L 154.940195 141.689356 
L 155.164869 141.801093 
L 155.164869 141.801093 
L 155.389544 141.519407 
L 155.389544 141.519407 
L 155.614218 141.804631 
L 155.614218 141.804631 
L 155.838893 141.700514 
L 155.838893 141.700514 
L 156.063567 141.809136 
L 156.063567 141.809136 
L 156.288242 141.520163 
L 156.288242 141.520163 
L 156.962265 141.767617 
L 156.962265 141.767617 
L 157.186939 141.362159 
L 157.186939 141.362159 
L 157.411614 141.487716 
L 157.411614 141.487716 
L 157.636288 141.32702 
L 157.636288 141.32702 
L 157.860963 141.454058 
L 157.860963 141.454058 
L 158.085637 140.804654 
L 158.085637 140.804654 
L 158.310311 140.934233 
L 158.310311 140.934233 
L 158.534986 140.460191 
L 158.75966 140.573712 
L 158.75966 140.573712 
L 158.984335 139.530855 
L 158.984335 139.530855 
L 159.209009 139.613773 
L 159.209009 139.613773 
L 159.433684 138.686524 
L 159.658358 138.715766 
L 159.658358 138.715766 
L 159.883032 137.116675 
L 159.883032 137.116675 
L 160.107707 137.0568 
L 160.107707 137.0568 
L 160.332381 135.58272 
L 160.332381 135.58272 
L 160.557056 135.383469 
L 160.557056 135.383469 
L 160.78173 133.188801 
L 160.78173 133.188801 
L 161.006405 132.792173 
L 161.006405 132.792173 
L 161.231079 130.790799 
L 161.231079 130.790799 
L 161.455753 130.074202 
L 161.455753 130.074202 
L 161.680428 127.51112 
L 161.680428 127.51112 
L 161.905102 126.224559 
L 161.905102 126.224559 
L 162.579126 119.487208 
L 162.579126 119.487208 
L 162.8038 111.854148 
L 162.8038 111.854148 
L 163.028474 113.962209 
L 163.028474 113.962209 
L 163.253149 106.136369 
L 163.253149 106.136369 
L 163.477823 107.020103 
L 163.477823 107.020103 
L 163.702498 103.293265 
L 163.702498 103.293265 
L 163.927172 103.565153 
L 163.927172 103.565153 
L 164.601195 109.202917 
L 164.601195 109.202917 
L 164.82587 112.747196 
L 164.82587 112.747196 
L 165.050544 112.655176 
L 165.050544 112.655176 
L 165.275219 114.756493 
L 165.275219 114.756493 
L 165.724567 116.58308 
L 165.724567 116.58308 
L 165.949242 118.428234 
L 165.949242 118.428234 
L 166.173916 118.399264 
L 166.398591 119.321916 
L 166.84794 120.091555 
L 166.84794 120.091555 
L 167.072614 120.72345 
L 167.072614 120.72345 
L 167.297288 120.772106 
L 167.297288 120.772106 
L 167.521963 121.202633 
L 167.746637 121.186031 
L 167.971312 121.37237 
L 167.971312 121.37237 
L 168.195986 121.280833 
L 168.195986 121.280833 
L 168.645335 121.503884 
L 168.645335 121.503884 
L 168.870009 121.427286 
L 168.870009 121.427286 
L 169.094684 121.534154 
L 169.094684 121.534154 
L 169.319358 121.272911 
L 169.319358 121.272911 
L 169.544033 121.557106 
L 169.544033 121.557106 
L 169.768707 121.274332 
L 169.768707 121.274332 
L 169.993382 121.379658 
L 169.993382 121.379658 
L 170.218056 121.231119 
L 170.218056 121.231119 
L 170.44273 121.296286 
L 170.44273 121.296286 
L 170.667405 121.123888 
L 170.667405 121.123888 
L 170.892079 120.57485 
L 170.892079 120.57485 
L 171.116754 120.787105 
L 171.341428 120.155452 
L 171.341428 120.155452 
L 171.566103 120.231082 
L 171.566103 120.231082 
L 171.790777 119.595347 
L 171.790777 119.595347 
L 172.240126 119.155717 
L 172.240126 119.155717 
L 172.4648 117.171792 
L 172.4648 117.171792 
L 172.689475 117.676346 
L 172.689475 117.676346 
L 172.914149 116.186784 
L 172.914149 116.186784 
L 173.138824 115.890221 
L 173.138824 115.890221 
L 173.363498 114.868683 
L 173.363498 114.868683 
L 173.588172 111.973506 
L 173.588172 111.973506 
L 173.812847 112.950681 
L 173.812847 112.950681 
L 174.037521 110.222489 
L 174.037521 110.222489 
L 174.262196 110.335738 
L 174.262196 110.335738 
L 174.48687 108.336662 
L 174.48687 108.336662 
L 174.711545 107.57416 
L 174.711545 107.57416 
L 174.936219 106.152155 
L 174.936219 106.152155 
L 175.160893 102.443793 
L 175.160893 102.443793 
L 175.385568 102.712052 
L 175.385568 102.712052 
L 175.610242 100.037354 
L 175.610242 100.037354 
L 175.834917 99.138138 
L 175.834917 99.138138 
L 176.059591 97.070417 
L 176.059591 97.070417 
L 176.284265 93.015596 
L 176.284265 93.015596 
L 176.50894 93.021886 
L 176.50894 93.021886 
L 176.733614 90.462856 
L 176.733614 90.462856 
L 176.958289 85.086275 
L 176.958289 85.086275 
L 177.182963 86.000612 
L 177.182963 86.000612 
L 177.407638 81.945246 
L 177.407638 81.945246 
L 177.632312 80.849863 
L 177.632312 80.849863 
L 177.856986 77.818212 
L 177.856986 77.818212 
L 178.081661 73.073042 
L 178.081661 73.073042 
L 178.306335 72.527301 
L 178.306335 72.527301 
L 178.53101 73.143531 
L 178.53101 73.143531 
L 178.755684 77.472599 
L 178.755684 77.472599 
L 178.980359 78.995092 
L 178.980359 78.995092 
L 179.429707 87.930649 
L 179.429707 87.930649 
L 179.654382 95.099041 
L 179.654382 95.099041 
L 179.879056 94.015179 
L 179.879056 94.015179 
L 180.103731 98.704829 
L 180.103731 98.704829 
L 180.328405 106.136369 
L 180.328405 106.136369 
L 180.55308 104.829517 
L 180.55308 104.829517 
L 180.777754 109.672907 
L 180.777754 109.672907 
L 181.002428 117.224319 
L 181.002428 117.224319 
L 181.227103 114.892845 
L 181.227103 114.892845 
L 181.451777 120.643465 
L 181.451777 120.643465 
L 181.676452 121.24769 
L 181.901126 124.686976 
L 181.901126 124.686976 
L 182.125801 131.763378 
L 182.125801 131.763378 
L 182.350475 130.199789 
L 182.350475 130.199789 
L 182.575149 135.80689 
L 182.575149 135.80689 
L 182.799824 135.415675 
L 182.799824 135.415675 
L 183.024498 139.929025 
L 183.024498 139.929025 
L 183.249173 140.353927 
L 183.249173 140.353927 
L 183.473847 143.95288 
L 183.473847 143.95288 
L 183.698522 144.850041 
L 183.698522 144.850041 
L 183.923196 148.193587 
L 183.923196 148.193587 
L 184.14787 149.114395 
L 184.14787 149.114395 
L 184.372545 152.187444 
L 184.372545 152.187444 
L 184.597219 153.199153 
L 184.597219 153.199153 
L 184.821894 156.095087 
L 184.821894 156.095087 
L 185.046568 156.830494 
L 185.046568 156.830494 
L 185.271243 159.877385 
L 185.271243 159.877385 
L 185.495917 160.346438 
L 185.720591 163.478425 
L 185.720591 163.478425 
L 185.945266 163.362424 
L 185.945266 163.362424 
L 186.16994 166.858622 
L 186.394615 166.108186 
L 186.394615 166.108186 
L 186.619289 170.000467 
L 186.619289 170.000467 
L 186.843964 168.69174 
L 186.843964 168.69174 
L 187.517987 172.026033 
L 187.517987 172.026033 
L 187.742661 174.304012 
L 187.742661 174.304012 
L 187.967336 173.919299 
L 187.967336 173.919299 
L 188.19201 176.55278 
L 188.19201 176.55278 
L 188.416684 175.836817 
L 188.416684 175.836817 
L 188.641359 176.411438 
L 188.641359 176.411438 
L 188.866033 177.724822 
L 188.866033 177.724822 
L 189.090708 177.723037 
L 189.090708 177.723037 
L 189.315382 179.249492 
L 189.315382 179.249492 
L 189.540057 178.821233 
L 189.540057 178.821233 
L 189.989405 180.05442 
L 189.989405 180.05442 
L 190.21408 180.14378 
L 190.21408 180.14378 
L 190.438754 180.906795 
L 190.663429 180.900445 
L 190.663429 180.900445 
L 192.011475 181.770782 
L 192.011475 181.770782 
L 192.910173 181.830113 
L 192.910173 181.830113 
L 193.134847 181.894404 
L 193.134847 181.894404 
L 193.359522 181.802837 
L 193.359522 181.802837 
L 193.584196 181.867067 
L 193.808871 181.763736 
L 193.808871 181.763736 
L 194.033545 181.827785 
L 194.033545 181.827785 
L 194.25822 181.643291 
L 194.25822 181.643291 
L 194.482894 181.896278 
L 194.482894 181.896278 
L 195.156917 181.523147 
L 195.156917 181.523147 
L 195.381592 181.001809 
L 195.381592 181.001809 
L 195.606266 181.290087 
L 195.606266 181.290087 
L 195.830941 181.005227 
L 195.830941 181.005227 
L 196.055615 180.508686 
L 196.055615 180.508686 
L 196.280289 180.326308 
L 196.280289 180.326308 
L 196.504964 179.315657 
L 196.504964 179.315657 
L 196.729638 179.408948 
L 196.729638 179.408948 
L 196.954313 177.584357 
L 196.954313 177.584357 
L 197.178987 178.223328 
L 197.178987 178.223328 
L 197.403662 177.674321 
L 197.403662 177.674321 
L 197.628336 176.079614 
L 197.628336 176.079614 
L 197.85301 176.010395 
L 198.077685 173.229071 
L 198.077685 173.229071 
L 198.302359 173.999586 
L 198.302359 173.999586 
L 198.527034 173.054344 
L 198.527034 173.054344 
L 198.751708 170.830797 
L 198.751708 170.830797 
L 198.976383 170.438554 
L 198.976383 170.438554 
L 199.201057 166.650057 
L 199.201057 166.650057 
L 199.425731 167.371976 
L 199.425731 167.371976 
L 199.650406 165.816007 
L 199.650406 165.816007 
L 199.87508 163.122591 
L 199.87508 163.122591 
L 200.099755 162.055693 
L 200.099755 162.055693 
L 200.324429 157.361901 
L 200.324429 157.361901 
L 200.549103 157.629797 
L 200.549103 157.629797 
L 200.773778 150.368085 
L 200.773778 150.368085 
L 200.998452 152.378772 
L 200.998452 152.378772 
L 201.223127 150.102033 
L 201.223127 150.102033 
L 201.447801 152.02823 
L 201.447801 152.02823 
L 201.672476 152.715434 
L 201.672476 152.715434 
L 201.89715 159.365785 
L 201.89715 159.365785 
L 202.121824 159.032117 
L 202.121824 159.032117 
L 202.346499 167.019499 
L 202.346499 167.019499 
L 202.571173 164.848418 
L 202.571173 164.848418 
L 203.469871 176.769147 
L 203.469871 176.769147 
L 203.694545 176.441678 
L 203.694545 176.441678 
L 203.91922 181.988389 
L 203.91922 181.988389 
L 204.143894 180.052183 
L 204.143894 180.052183 
L 204.368569 181.676222 
L 204.368569 181.676222 
L 204.593243 184.745824 
L 204.593243 184.745824 
L 204.817918 184.535535 
L 204.817918 184.535535 
L 205.042592 188.741012 
L 205.042592 188.741012 
L 205.267266 187.61188 
L 205.267266 187.61188 
L 205.491941 188.167268 
L 205.491941 188.167268 
L 205.716615 190.772747 
L 205.94129 190.28307 
L 205.94129 190.28307 
L 206.165964 191.016753 
L 206.165964 191.016753 
L 206.390639 192.746874 
L 206.390639 192.746874 
L 206.615313 192.641427 
L 206.615313 192.641427 
L 207.064662 194.060591 
L 207.064662 194.060591 
L 207.289336 194.23438 
L 207.289336 194.23438 
L 207.514011 195.416552 
L 207.514011 195.416552 
L 207.738685 195.303938 
L 207.738685 195.303938 
L 208.188034 196.052892 
L 208.188034 196.052892 
L 208.412708 196.045998 
L 208.412708 196.045998 
L 209.760755 196.745993 
L 209.760755 196.745993 
L 210.210104 196.591225 
L 210.210104 196.591225 
L 210.884127 196.766194 
L 210.884127 196.766194 
L 211.333476 196.549978 
L 211.333476 196.549978 
L 211.55815 196.585449 
L 211.55815 196.585449 
L 211.782825 196.322875 
L 211.782825 196.322875 
L 212.007499 196.541813 
L 212.007499 196.541813 
L 212.232174 196.392669 
L 212.456848 196.059757 
L 212.456848 196.059757 
L 212.681522 196.046935 
L 212.681522 196.046935 
L 212.906197 195.480691 
L 212.906197 195.480691 
L 213.130871 195.717259 
L 213.130871 195.717259 
L 213.355546 195.361848 
L 213.355546 195.361848 
L 213.58022 194.555982 
L 213.58022 194.555982 
L 213.804895 194.569288 
L 213.804895 194.569288 
L 214.029569 192.881291 
L 214.029569 192.881291 
L 214.254243 193.438614 
L 214.254243 193.438614 
L 214.478918 193.13068 
L 214.478918 193.13068 
L 214.703592 191.134356 
L 214.928267 191.998616 
L 214.928267 191.998616 
L 215.152941 191.19408 
L 215.152941 191.19408 
L 215.377616 188.860823 
L 215.377616 188.860823 
L 215.60229 189.493957 
L 215.60229 189.493957 
L 215.826964 188.647328 
L 215.826964 188.647328 
L 216.051639 186.216697 
L 216.051639 186.216697 
L 216.276313 186.606854 
L 216.276313 186.606854 
L 216.500988 185.359847 
L 216.500988 185.359847 
L 216.725662 182.790536 
L 216.725662 182.790536 
L 216.950337 182.705924 
L 216.950337 182.705924 
L 217.175011 176.761345 
L 217.175011 176.761345 
L 217.399685 178.459381 
L 217.399685 178.459381 
L 217.62436 177.585748 
L 217.849034 171.40829 
L 217.849034 171.40829 
L 218.073709 173.462826 
L 218.073709 173.462826 
L 218.298383 171.362507 
L 218.298383 171.362507 
L 218.523058 165.124479 
L 218.523058 165.124479 
L 218.747732 166.392321 
L 218.747732 166.392321 
L 218.972406 163.533401 
L 218.972406 163.533401 
L 219.197081 157.904074 
L 219.197081 157.904074 
L 219.421755 156.991582 
L 219.421755 156.991582 
L 219.64643 159.350574 
L 219.64643 159.350574 
L 219.871104 157.471824 
L 219.871104 157.471824 
L 220.769802 169.68204 
L 220.769802 169.68204 
L 220.994476 168.806562 
L 220.994476 168.806562 
L 221.219151 174.194906 
L 221.219151 174.194906 
L 221.443825 172.614231 
L 221.443825 172.614231 
L 221.6685 173.615629 
L 221.6685 173.615629 
L 221.893174 176.309952 
L 221.893174 176.309952 
L 222.117848 176.092799 
L 222.342523 179.283875 
L 222.342523 179.283875 
L 222.567197 178.456841 
L 222.567197 178.456841 
L 222.791872 179.242416 
L 222.791872 179.242416 
L 223.016546 180.86709 
L 223.016546 180.86709 
L 223.241221 180.919436 
L 223.241221 180.919436 
L 223.465895 182.884945 
L 223.465895 182.884945 
L 223.690569 182.503346 
L 223.690569 182.503346 
L 223.915244 183.019301 
L 223.915244 183.019301 
L 224.139918 183.978877 
L 224.139918 183.978877 
L 224.364593 184.085533 
L 224.364593 184.085533 
L 224.589267 185.182066 
L 224.589267 185.182066 
L 224.813941 185.097213 
L 224.813941 185.097213 
L 225.038616 185.34633 
L 225.038616 185.34633 
L 225.26329 185.804042 
L 225.26329 185.804042 
L 225.487965 185.917412 
L 225.487965 185.917412 
L 225.712639 186.377635 
L 225.712639 186.377635 
L 225.937314 186.334301 
L 225.937314 186.334301 
L 226.386662 186.659986 
L 226.386662 186.659986 
L 227.510035 187.053862 
L 227.510035 187.053862 
L 227.959383 186.88231 
L 227.959383 186.88231 
L 228.184058 186.943032 
L 228.184058 186.943032 
L 228.408732 186.848472 
L 228.408732 186.848472 
L 228.633407 187.064597 
L 228.633407 187.064597 
L 229.082756 186.854096 
L 229.082756 186.854096 
L 229.30743 186.910887 
L 229.30743 186.910887 
L 229.532104 186.690528 
L 229.532104 186.690528 
L 229.981453 186.796156 
L 229.981453 186.796156 
L 230.206128 186.499018 
L 230.206128 186.499018 
L 230.430802 186.531738 
L 230.430802 186.531738 
L 230.655477 185.901476 
L 230.655477 185.901476 
L 230.880151 186.156066 
L 230.880151 186.156066 
L 231.104825 186.013817 
L 231.104825 186.013817 
L 231.3295 185.316906 
L 231.3295 185.316906 
L 231.554174 185.435901 
L 231.554174 185.435901 
L 231.778849 184.131438 
L 231.778849 184.131438 
L 232.003523 184.569404 
L 232.228198 184.395645 
L 232.452872 183.144132 
L 232.452872 183.144132 
L 232.677546 183.560597 
L 232.677546 183.560597 
L 232.902221 182.993688 
L 232.902221 182.993688 
L 233.126895 181.99471 
L 233.126895 181.99471 
L 233.35157 181.745804 
L 233.35157 181.745804 
L 233.576244 179.959376 
L 233.576244 179.959376 
L 233.800919 180.342487 
L 233.800919 180.342487 
L 234.025593 179.742525 
L 234.025593 179.742525 
L 234.250267 178.55249 
L 234.250267 178.55249 
L 234.474942 178.116218 
L 234.474942 178.116218 
L 234.699616 175.848611 
L 234.699616 175.848611 
L 234.924291 176.359334 
L 234.924291 176.359334 
L 235.148965 175.594474 
L 235.148965 175.594474 
L 235.37364 174.150363 
L 235.37364 174.150363 
L 235.598314 173.641726 
L 235.598314 173.641726 
L 235.822988 171.043536 
L 235.822988 171.043536 
L 236.047663 171.56445 
L 236.047663 171.56445 
L 236.272337 170.650174 
L 236.272337 170.650174 
L 236.497012 168.945605 
L 236.497012 168.945605 
L 236.721686 168.402616 
L 236.721686 168.402616 
L 236.94636 165.660392 
L 236.94636 165.660392 
L 237.171035 166.04565 
L 237.171035 166.04565 
L 237.395709 162.173357 
L 237.395709 162.173357 
L 237.620384 163.366507 
L 237.620384 163.366507 
L 237.845058 162.448451 
L 237.845058 162.448451 
L 238.069733 159.772664 
L 238.069733 159.772664 
L 238.294407 159.806593 
L 238.294407 159.806593 
L 238.519081 155.980084 
L 238.519081 155.980084 
L 238.743756 157.022548 
L 238.743756 157.022548 
L 238.96843 155.700183 
L 238.96843 155.700183 
L 239.193105 153.452051 
L 239.193105 153.452051 
L 239.417779 152.676697 
L 239.417779 152.676697 
L 239.642454 149.362242 
L 239.642454 149.362242 
L 239.867128 149.437691 
L 239.867128 149.437691 
L 240.091802 144.908464 
L 240.091802 144.908464 
L 240.316477 145.961814 
L 240.316477 145.961814 
L 240.541151 140.47398 
L 240.541151 140.47398 
L 240.765826 142.171714 
L 240.765826 142.171714 
L 240.9905 140.337356 
L 240.9905 140.337356 
L 241.664523 133.057106 
L 241.664523 133.057106 
L 241.889198 131.889388 
L 241.889198 131.889388 
L 242.113872 128.4221 
L 242.113872 128.4221 
L 242.338547 127.104876 
L 242.338547 127.104876 
L 242.563221 123.607106 
L 242.563221 123.607106 
L 242.787896 122.605285 
L 242.787896 122.605285 
L 243.01257 119.01362 
L 243.01257 119.01362 
L 243.237244 117.788567 
L 243.237244 117.788567 
L 243.461919 114.31508 
L 243.461919 114.31508 
L 243.911268 110.270117 
L 243.911268 110.270117 
L 244.135942 103.235869 
L 244.135942 103.235869 
L 244.360617 105.247706 
L 244.360617 105.247706 
L 244.585291 99.144337 
L 244.585291 99.144337 
L 244.809965 100.201709 
L 244.809965 100.201709 
L 245.03464 95.497968 
L 245.03464 95.497968 
L 245.259314 94.939677 
L 245.259314 94.939677 
L 245.483989 91.900768 
L 245.483989 91.900768 
L 245.708663 86.038805 
L 245.708663 86.038805 
L 245.933338 87.27302 
L 245.933338 87.27302 
L 246.158012 82.683858 
L 246.158012 82.683858 
L 246.382686 82.486089 
L 246.382686 82.486089 
L 246.607361 79.733523 
L 246.607361 79.733523 
L 246.832035 74.682808 
L 246.832035 74.682808 
L 247.05671 75.029116 
L 247.05671 75.029116 
L 247.506059 67.368901 
L 247.506059 67.368901 
L 247.730733 67.831392 
L 247.730733 67.831392 
L 247.955407 64.962372 
L 247.955407 64.962372 
L 248.180082 60.565536 
L 248.180082 60.565536 
L 248.404756 61.27043 
L 248.404756 61.27043 
L 248.629431 58.735986 
L 248.629431 58.735986 
L 248.854105 54.908569 
L 248.854105 54.908569 
L 249.078779 54.713189 
L 249.303454 53.568 
L 249.303454 53.568 
L 286.374734 53.568 
L 286.374734 53.568 
L 286.599409 54.593076 
L 286.599409 54.593076 
L 286.824083 59.715096 
L 286.824083 59.715096 
L 287.048757 60.5887 
L 287.947455 74.173445 
L 287.947455 74.173445 
L 288.17213 73.796836 
L 288.17213 73.796836 
L 288.846153 80.668937 
L 288.846153 80.668937 
L 289.070827 80.405667 
L 289.070827 80.405667 
L 289.744851 83.353584 
L 289.744851 83.353584 
L 290.194199 84.428283 
L 290.194199 84.428283 
L 290.418874 84.783028 
L 290.418874 84.783028 
L 290.868223 84.933261 
L 290.868223 84.933261 
L 291.317572 84.835434 
L 291.317572 84.835434 
L 291.542246 84.964287 
L 291.542246 84.964287 
L 291.76692 84.892709 
L 291.76692 84.892709 
L 291.991595 84.339287 
L 291.991595 84.339287 
L 292.216269 84.80335 
L 292.216269 84.80335 
L 292.440944 84.390392 
L 292.440944 84.390392 
L 292.665618 83.360962 
L 292.665618 83.360962 
L 292.890293 83.585585 
L 292.890293 83.585585 
L 293.114967 82.754862 
L 293.114967 82.754862 
L 293.339641 80.755302 
L 293.339641 80.755302 
L 293.564316 80.816417 
L 293.564316 80.816417 
L 293.78899 79.744621 
L 293.78899 79.744621 
L 294.013665 77.434799 
L 294.013665 77.434799 
L 294.238339 77.147973 
L 294.238339 77.147973 
L 294.463014 75.574253 
L 294.463014 75.574253 
L 294.912362 69.268275 
L 294.912362 69.268275 
L 295.137037 70.177169 
L 295.137037 70.177169 
L 295.586386 63.459716 
L 295.586386 63.459716 
L 295.81106 63.525095 
L 295.81106 63.525095 
L 296.035735 61.3372 
L 296.035735 61.3372 
L 296.485083 53.568 
L 296.485083 53.568 
L 296.709758 53.700784 
L 296.709758 53.700784 
L 296.934432 53.568 
L 296.934432 53.568 
L 299.405851 53.568 
L 299.405851 53.568 
L 299.630525 54.00775 
L 299.630525 54.00775 
L 299.8552 55.090917 
L 299.8552 55.090917 
L 300.304549 60.357303 
L 300.304549 60.357303 
L 300.529223 60.56726 
L 300.978572 64.115107 
L 300.978572 64.115107 
L 301.427921 69.126057 
L 301.427921 69.126057 
L 301.652595 69.107882 
L 301.652595 69.107882 
L 301.87727 70.636696 
L 301.87727 70.636696 
L 302.326618 75.678732 
L 302.326618 75.678732 
L 302.551293 75.4933 
L 302.551293 75.4933 
L 302.775967 77.044673 
L 302.775967 77.044673 
L 303.000642 79.52405 
L 303.000642 79.52405 
L 303.225316 79.97889 
L 303.225316 79.97889 
L 303.674665 83.903679 
L 303.674665 83.903679 
L 303.899339 86.770764 
L 303.899339 86.770764 
L 304.124014 86.713731 
L 304.124014 86.713731 
L 304.348688 88.567595 
L 304.348688 88.567595 
L 304.573363 91.687969 
L 304.573363 91.687969 
L 304.798037 91.907784 
L 304.798037 91.907784 
L 305.022712 93.812088 
L 305.022712 93.812088 
L 305.247386 96.790153 
L 305.247386 96.790153 
L 305.47206 97.424376 
L 305.47206 97.424376 
L 305.696735 99.139257 
L 305.696735 99.139257 
L 305.921409 102.142482 
L 305.921409 102.142482 
L 306.146084 102.708302 
L 306.146084 102.708302 
L 306.370758 104.344256 
L 306.370758 104.344256 
L 306.595433 107.528437 
L 306.820107 107.711238 
L 306.820107 107.711238 
L 307.044781 109.350156 
L 307.044781 109.350156 
L 307.269456 112.703076 
L 307.269456 112.703076 
L 307.49413 112.298283 
L 307.49413 112.298283 
L 307.718805 114.425849 
L 307.718805 114.425849 
L 308.168154 116.569562 
L 308.168154 116.569562 
L 308.392828 118.956889 
L 308.392828 118.956889 
L 308.617502 118.829277 
L 308.617502 118.829277 
L 308.842177 120.628073 
L 308.842177 120.628073 
L 309.066851 121.065283 
L 309.066851 121.065283 
L 309.291526 122.037227 
L 309.291526 122.037227 
L 309.5162 123.939988 
L 309.5162 123.939988 
L 309.740874 123.702816 
L 309.740874 123.702816 
L 309.965549 125.041661 
L 309.965549 125.041661 
L 310.190223 125.313337 
L 310.190223 125.313337 
L 310.414898 126.226374 
L 310.414898 126.226374 
L 310.639572 126.507636 
L 310.639572 126.507636 
L 310.864247 127.086278 
L 310.864247 127.086278 
L 311.088921 127.978933 
L 311.088921 127.978933 
L 311.313595 128.131554 
L 311.313595 128.131554 
L 311.53827 128.653043 
L 311.53827 128.653043 
L 311.762944 128.752291 
L 311.762944 128.752291 
L 311.987619 129.096089 
L 312.212293 129.225577 
L 312.212293 129.225577 
L 312.436968 129.614645 
L 312.661642 129.458727 
L 312.661642 129.458727 
L 312.886316 129.92899 
L 313.110991 129.721483 
L 313.110991 129.721483 
L 313.785014 129.988653 
L 313.785014 129.988653 
L 314.009689 129.755503 
L 314.009689 129.755503 
L 314.234363 129.695174 
L 314.234363 129.695174 
L 314.459037 129.967969 
L 314.459037 129.967969 
L 314.683712 129.477658 
L 314.683712 129.477658 
L 314.908386 129.894153 
L 314.908386 129.894153 
L 315.133061 129.506688 
L 315.133061 129.506688 
L 315.357735 129.730615 
L 315.357735 129.730615 
L 315.58241 129.306318 
L 315.58241 129.306318 
L 315.807084 129.373239 
L 315.807084 129.373239 
L 316.481107 128.659272 
L 316.481107 128.659272 
L 316.705782 127.001848 
L 316.930456 127.730481 
L 316.930456 127.730481 
L 317.155131 126.170097 
L 317.155131 126.170097 
L 317.379805 126.568993 
L 317.604479 124.779329 
L 317.604479 124.779329 
L 317.829154 124.914956 
L 317.829154 124.914956 
L 318.053828 123.361013 
L 318.053828 123.361013 
L 318.278503 123.119909 
L 318.952526 119.872678 
L 318.952526 119.872678 
L 319.1772 116.419663 
L 319.401875 117.087846 
L 319.401875 117.087846 
L 319.626549 114.29243 
L 319.626549 114.29243 
L 319.851224 114.297692 
L 319.851224 114.297692 
L 320.075898 111.847949 
L 320.075898 111.847949 
L 320.300573 110.83872 
L 320.300573 110.83872 
L 320.525247 109.170802 
L 320.525247 109.170802 
L 320.749921 104.42663 
L 320.749921 104.42663 
L 320.974596 105.384815 
L 320.974596 105.384815 
L 321.19927 101.470186 
L 321.19927 101.470186 
L 321.423945 101.112205 
L 321.423945 101.112205 
L 321.648619 98.566178 
L 321.648619 98.566178 
L 321.873293 93.235441 
L 321.873293 93.235441 
L 322.097968 94.259095 
L 322.097968 94.259095 
L 322.322642 90.029094 
L 322.322642 90.029094 
L 322.547317 89.400072 
L 322.547317 89.400072 
L 322.771991 86.75132 
L 322.771991 86.75132 
L 322.996666 81.229617 
L 322.996666 81.229617 
L 323.22134 81.444653 
L 323.22134 81.444653 
L 323.446014 77.838654 
L 323.446014 77.838654 
L 323.670689 72.155712 
L 323.670689 72.155712 
L 323.895363 72.733235 
L 323.895363 72.733235 
L 324.120038 69.045769 
L 324.120038 69.045769 
L 324.344712 63.022566 
L 324.344712 63.022566 
L 324.569387 63.848118 
L 324.569387 63.848118 
L 325.018735 54.913892 
L 325.018735 54.913892 
L 325.24341 55.006033 
L 325.24341 55.006033 
L 325.468084 53.568 
L 325.468084 53.568 
L 333.107015 53.568 
L 333.107015 53.568 
L 333.331689 54.224238 
L 333.331689 54.224238 
L 333.556364 55.749151 
L 333.556364 55.749151 
L 334.005712 61.47706 
L 334.005712 61.47706 
L 334.230387 61.70885 
L 334.230387 61.70885 
L 334.679736 66.935532 
L 334.679736 66.935532 
L 335.129085 77.622438 
L 335.129085 77.622438 
L 335.353759 76.285951 
L 335.353759 76.285951 
L 335.578433 80.186518 
L 335.578433 80.186518 
L 335.803108 86.118578 
L 335.803108 86.118578 
L 336.027782 86.809169 
L 336.027782 86.809169 
L 336.477131 93.382226 
L 336.477131 93.382226 
L 336.701806 97.710235 
L 336.701806 97.710235 
L 336.92648 96.994152 
L 336.92648 96.994152 
L 337.375829 102.882273 
L 337.375829 102.882273 
L 337.600503 102.440074 
L 337.600503 102.440074 
L 338.049852 106.866181 
L 338.049852 106.866181 
L 338.274527 106.316509 
L 338.274527 106.316509 
L 338.499201 107.755056 
L 338.499201 107.755056 
L 339.397899 110.159771 
L 339.397899 110.159771 
L 339.622573 110.558244 
L 339.622573 110.558244 
L 339.847248 111.185844 
L 339.847248 111.185844 
L 340.071922 111.223009 
L 340.071922 111.223009 
L 340.521271 111.646248 
L 340.521271 111.646248 
L 341.195294 111.817286 
L 341.195294 111.817286 
L 341.419969 111.941391 
L 341.644643 111.687708 
L 341.644643 111.687708 
L 341.869317 111.797781 
L 341.869317 111.797781 
L 342.093992 111.724449 
L 342.093992 111.724449 
L 342.543341 111.927753 
L 342.543341 111.927753 
L 342.768015 111.551869 
L 342.99269 111.686437 
L 342.99269 111.686437 
L 343.217364 111.441887 
L 343.217364 111.441887 
L 343.442038 111.501157 
L 343.442038 111.501157 
L 343.666713 111.44361 
L 343.666713 111.44361 
L 343.891387 110.644216 
L 343.891387 110.644216 
L 344.116062 110.812864 
L 344.116062 110.812864 
L 344.340736 110.258777 
L 344.340736 110.258777 
L 344.565411 110.191432 
L 344.565411 110.191432 
L 344.790085 109.891421 
L 345.014759 108.637973 
L 345.014759 108.637973 
L 345.239434 108.790443 
L 345.239434 108.790443 
L 345.464108 107.955336 
L 345.688783 107.691219 
L 345.688783 107.691219 
L 345.913457 107.160235 
L 345.913457 107.160235 
L 346.138131 105.56187 
L 346.362806 105.608076 
L 346.362806 105.608076 
L 346.812155 104.330467 
L 346.812155 104.330467 
L 347.036829 104.290127 
L 347.036829 104.290127 
L 347.261504 105.433017 
L 347.261504 105.433017 
L 347.486178 105.93482 
L 347.486178 105.93482 
L 347.710852 106.920432 
L 347.710852 106.920432 
L 347.935527 109.633504 
L 348.160201 109.527997 
L 348.160201 109.527997 
L 348.384876 111.731072 
L 348.384876 111.731072 
L 348.60955 116.055785 
L 348.60955 116.055785 
L 348.834225 114.761392 
L 348.834225 114.761392 
L 349.058899 119.187802 
L 349.058899 119.187802 
L 349.283573 119.24045 
L 349.283573 119.24045 
L 349.732922 125.019223 
L 349.732922 125.019223 
L 349.957597 128.264822 
L 349.957597 128.264822 
L 350.182271 136.44072 
L 350.182271 136.44072 
L 350.406946 134.94378 
L 350.406946 134.94378 
L 350.63162 141.975275 
L 350.63162 141.975275 
L 350.856294 141.894988 
L 350.856294 141.894988 
L 351.080969 147.396974 
L 351.305643 147.996331 
L 351.305643 147.996331 
L 351.530318 152.32428 
L 351.530318 152.32428 
L 351.754992 153.071904 
L 351.754992 153.071904 
L 351.979667 157.417573 
L 351.979667 157.417573 
L 352.204341 157.905586 
L 352.204341 157.905586 
L 352.429015 162.056994 
L 352.429015 162.056994 
L 352.65369 162.014386 
L 352.65369 162.014386 
L 352.878364 166.454011 
L 352.878364 166.454011 
L 353.103039 165.658185 
L 353.103039 165.658185 
L 353.327713 170.616305 
L 353.327713 170.616305 
L 353.552388 168.936836 
L 353.552388 168.936836 
L 354.451085 176.658106 
L 354.451085 176.658106 
L 354.67576 176.002291 
L 354.67576 176.002291 
L 354.900434 179.974496 
L 354.900434 179.974496 
L 355.125109 178.803724 
L 355.125109 178.803724 
L 355.349783 179.512096 
L 355.349783 179.512096 
L 355.574457 181.845989 
L 355.574457 181.845989 
L 355.799132 181.595269 
L 355.799132 181.595269 
L 356.023806 184.377349 
L 356.023806 184.377349 
L 356.248481 183.574598 
L 356.248481 183.574598 
L 356.473155 184.335467 
L 356.473155 184.335467 
L 356.69783 185.80247 
L 356.69783 185.80247 
L 356.922504 185.906556 
L 356.922504 185.906556 
L 357.147178 187.503651 
L 357.147178 187.503651 
L 357.371853 187.079838 
L 357.371853 187.079838 
L 358.27055 189.247501 
L 358.27055 189.247501 
L 358.495225 189.093761 
L 358.495225 189.093761 
L 359.169248 189.813594 
L 359.169248 189.813594 
L 359.618597 189.836425 
L 359.618597 189.836425 
L 360.29262 190.073658 
L 360.29262 190.073658 
L 360.741969 189.894396 
L 360.741969 189.894396 
L 360.966644 189.9504 
L 360.966644 189.9504 
L 361.191318 189.83948 
L 361.191318 189.83948 
L 361.640667 189.947648 
L 361.640667 189.947648 
L 361.865341 189.777488 
L 361.865341 189.777488 
L 362.090016 189.802012 
L 362.090016 189.802012 
L 362.31469 189.365468 
L 362.31469 189.365468 
L 362.539365 189.532362 
L 362.539365 189.532362 
L 362.764039 189.432207 
L 362.764039 189.432207 
L 362.988713 189.031376 
L 362.988713 189.031376 
L 363.213388 189.020429 
L 363.213388 189.020429 
L 363.438062 187.703901 
L 363.438062 187.703901 
L 363.662737 188.100528 
L 363.662737 188.100528 
L 363.887411 187.755188 
L 363.887411 187.755188 
L 364.112086 186.773658 
L 364.112086 186.773658 
L 364.33676 186.763285 
L 364.33676 186.763285 
L 364.561434 184.657584 
L 364.561434 184.657584 
L 364.786109 185.236861 
L 364.786109 185.236861 
L 365.010783 184.653713 
L 365.010783 184.653713 
L 365.235458 183.245406 
L 365.235458 183.245406 
L 365.460132 182.958942 
L 365.460132 182.958942 
L 365.684807 180.456492 
L 365.684807 180.456492 
L 365.909481 181.258124 
L 365.909481 181.258124 
L 366.134155 180.319625 
L 366.134155 180.319625 
L 366.35883 178.39494 
L 366.35883 178.39494 
L 366.583504 178.248095 
L 366.583504 178.248095 
L 366.808179 175.092883 
L 366.808179 175.092883 
L 367.032853 176.085511 
L 367.032853 176.085511 
L 367.257528 175.113265 
L 367.257528 175.113265 
L 367.482202 172.574587 
L 367.482202 172.574587 
L 367.706876 172.773626 
L 367.706876 172.773626 
L 367.931551 168.683545 
L 367.931551 168.683545 
L 368.156225 170.02354 
L 368.156225 170.02354 
L 368.3809 169.154927 
L 368.605574 165.832851 
L 368.605574 165.832851 
L 368.830249 166.480894 
L 368.830249 166.480894 
L 369.054923 165.207488 
L 369.054923 165.207488 
L 369.279597 162.88557 
L 369.279597 162.88557 
L 369.504272 162.30224 
L 369.504272 162.30224 
L 369.728946 158.523813 
L 369.728946 158.523813 
L 369.953621 159.233213 
L 369.953621 159.233213 
L 370.178295 153.893796 
L 370.402969 155.406885 
L 370.402969 155.406885 
L 370.627644 154.465907 
L 370.627644 154.465907 
L 370.852318 151.043767 
L 370.852318 151.043767 
L 371.076993 151.07558 
L 371.076993 151.07558 
L 371.301667 146.565858 
L 371.301667 146.565858 
L 371.526342 147.490688 
L 371.526342 147.490688 
L 371.751016 142.371449 
L 371.751016 142.371449 
L 371.97569 143.936309 
L 371.97569 143.936309 
L 372.200365 142.525945 
L 372.200365 142.525945 
L 372.425039 139.906889 
L 372.425039 139.906889 
L 372.649714 138.998601 
L 372.649714 138.998601 
L 372.874388 136.357227 
L 372.874388 136.357227 
L 373.099063 135.998551 
L 373.323737 133.214293 
L 373.323737 133.214293 
L 373.773086 132.814369 
L 373.773086 132.814369 
L 373.99776 132.937688 
L 373.99776 132.937688 
L 374.222435 134.503878 
L 374.222435 134.503878 
L 374.447109 134.605152 
L 374.447109 134.605152 
L 374.671784 135.99468 
L 374.671784 135.99468 
L 374.896458 136.112041 
L 374.896458 136.112041 
L 375.121132 137.210388 
L 375.121132 137.210388 
L 375.345807 137.261282 
L 375.345807 137.261282 
L 375.570481 138.011265 
L 375.570481 138.011265 
L 375.795156 138.025901 
L 375.795156 138.025901 
L 376.01983 138.65078 
L 376.01983 138.65078 
L 376.244505 138.597709 
L 376.244505 138.597709 
L 376.469179 138.919069 
L 376.469179 138.919069 
L 376.693853 138.870413 
L 376.693853 138.870413 
L 376.918528 139.181916 
L 376.918528 139.181916 
L 377.143202 138.811052 
L 377.143202 138.811052 
L 377.367877 139.191441 
L 377.592551 138.936941 
L 377.592551 138.936941 
L 377.817226 139.201148 
L 377.817226 139.201148 
L 378.0419 138.596378 
L 378.0419 138.596378 
L 378.266574 139.179708 
L 378.266574 139.179708 
L 378.491249 138.544728 
L 378.491249 138.544728 
L 378.715923 138.99479 
L 378.715923 138.99479 
L 378.940598 138.222098 
L 378.940598 138.222098 
L 379.165272 138.460147 
L 379.165272 138.460147 
L 379.389947 137.260768 
L 379.389947 137.260768 
L 379.614621 137.466582 
L 379.614621 137.466582 
L 379.839295 136.388677 
L 379.839295 136.388677 
L 380.06397 136.53392 
L 380.06397 136.53392 
L 380.288644 135.134624 
L 380.288644 135.134624 
L 380.513319 135.185125 
L 380.513319 135.185125 
L 380.737993 133.166605 
L 380.737993 133.166605 
L 380.962668 133.089674 
L 380.962668 133.089674 
L 381.187342 131.259852 
L 381.187342 131.259852 
L 381.412016 130.988357 
L 381.412016 130.988357 
L 381.636691 128.683797 
L 381.636691 128.683797 
L 381.861365 128.034514 
L 381.861365 128.034514 
L 382.760063 121.24506 
L 382.760063 121.24506 
L 382.984737 119.558091 
L 383.209412 113.697549 
L 383.209412 113.697549 
L 383.434086 115.052815 
L 383.434086 115.052815 
L 383.658761 109.92904 
L 383.658761 109.92904 
L 383.883435 110.246741 
L 383.883435 110.246741 
L 384.108109 105.644727 
L 384.108109 105.644727 
L 384.332784 104.693891 
L 384.332784 104.693891 
L 384.557458 101.546844 
L 384.557458 101.546844 
L 384.782133 93.929056 
L 384.782133 93.929056 
L 385.006807 95.686423 
L 385.006807 95.686423 
L 385.231482 89.226615 
L 385.231482 89.226615 
L 385.456156 88.840087 
L 385.456156 88.840087 
L 385.68083 84.846048 
L 385.68083 84.846048 
L 385.905505 77.412694 
L 386.130179 77.994027 
L 386.130179 77.994027 
L 386.354854 72.586813 
L 386.354854 72.586813 
L 386.579528 70.967038 
L 386.579528 70.967038 
L 387.7029 54.702816 
L 387.7029 54.702816 
L 387.927575 53.568 
L 387.927575 53.568 
L 397.139226 53.634014 
L 397.139226 53.634014 
L 397.363901 53.709372 
L 397.363901 53.709372 
L 397.588575 53.568 
L 397.588575 53.568 
L 398.487273 53.568 
L 398.487273 53.568 
" clip-path="url(#p9e0ba1f834)" style="fill: none; stroke: #ff7f0e; stroke-width: 1.5; stroke-linecap: square"/>
   </g>
   <g id="patch_3">
    <path d="M 57.6 307.584 
L 57.6 41.472 
" style="fill: none; stroke: #000000; stroke-width: 0.8; stroke-linejoin: miter; stroke-linecap: square"/>
   </g>
   <g id="patch_4">
    <path d="M 414.72 307.584 
L 414.72 41.472 
" style="fill: none; stroke: #000000; stroke-width: 0.8; stroke-linejoin: miter; stroke-linecap: square"/>
   </g>
   <g id="patch_5">
    <path d="M 57.6 307.584 
L 414.72 307.584 
" style="fill: none; stroke: #000000; stroke-width: 0.8; stroke-linejoin: miter; stroke-linecap: square"/>
   </g>
   <g id="patch_6">
    <path d="M 57.6 41.472 
L 414.72 41.472 
" style="fill: none; stroke: #000000; stroke-width: 0.8; stroke-linejoin: miter; stroke-linecap: square"/>
   </g>
   <g id="text_19">
    <!-- Actual speed vs Expected speed -->
    <g transform="translate(138.808125 35.472) scale(0.12 -0.12)">
     <defs>
      <path id="DejaVuSans-41" d="M 2188 4044 
L 1331 1722 
L 3047 1722 
L 2188 4044 
z
M 1831 4666 
L 2547 4666 
L 4325 0 
L 3669 0 
L 3244 1197 
L 1141 1197 
L 716 0 
L 50 0 
L 1831 4666 
z
" transform="scale(0.015625)"/>
      <path id="DejaVuSans-75" d="M 544 1381 
L 544 3500 
L 1119 3500 
L 1119 1403 
Q 1119 906 1312 657 
Q 1506 409 1894 409 
Q 2359 409 2629 706 
Q 2900 1003 2900 1516 
L 2900 3500 
L 3475 3500 
L 3475 0 
L 2900 0 
L 2900 538 
Q 2691 219 2414 64 
Q 2138 -91 1772 -91 
Q 1169 -91 856 284 
Q 544 659 544 1381 
z
M 1991 3584 
L 1991 3584 
z
" transform="scale(0.015625)"/>
      <path id="DejaVuSans-61" d="M 2194 1759 
Q 1497 1759 1228 1600 
Q 959 1441 959 1056 
Q 959 750 1161 570 
Q 1363 391 1709 391 
Q 2188 391 2477 730 
Q 2766 1069 2766 1631 
L 2766 1759 
L 2194 1759 
z
M 3341 1997 
L 3341 0 
L 2766 0 
L 2766 531 
Q 2569 213 2275 61 
Q 1981 -91 1556 -91 
Q 1019 -91 701 211 
Q 384 513 384 1019 
Q 384 1609 779 1909 
Q 1175 2209 1959 2209 
L 2766 2209 
L 2766 2266 
Q 2766 2663 2505 2880 
Q 2244 3097 1772 3097 
Q 1472 3097 1187 3025 
Q 903 2953 641 2809 
L 641 3341 
Q 956 3463 1253 3523 
Q 1550 3584 1831 3584 
Q 2591 3584 2966 3190 
Q 3341 2797 3341 1997 
z
" transform="scale(0.015625)"/>
      <path id="DejaVuSans-20" transform="scale(0.015625)"/>
      <path id="DejaVuSans-70" d="M 1159 525 
L 1159 -1331 
L 581 -1331 
L 581 3500 
L 1159 3500 
L 1159 2969 
Q 1341 3281 1617 3432 
Q 1894 3584 2278 3584 
Q 2916 3584 3314 3078 
Q 3713 2572 3713 1747 
Q 3713 922 3314 415 
Q 2916 -91 2278 -91 
Q 1894 -91 1617 61 
Q 1341 213 1159 525 
z
M 3116 1747 
Q 3116 2381 2855 2742 
Q 2594 3103 2138 3103 
Q 1681 3103 1420 2742 
Q 1159 2381 1159 1747 
Q 1159 1113 1420 752 
Q 1681 391 2138 391 
Q 2594 391 2855 752 
Q 3116 1113 3116 1747 
z
" transform="scale(0.015625)"/>
      <path id="DejaVuSans-64" d="M 2906 2969 
L 2906 4863 
L 3481 4863 
L 3481 0 
L 2906 0 
L 2906 525 
Q 2725 213 2448 61 
Q 2172 -91 1784 -91 
Q 1150 -91 751 415 
Q 353 922 353 1747 
Q 353 2572 751 3078 
Q 1150 3584 1784 3584 
Q 2172 3584 2448 3432 
Q 2725 3281 2906 2969 
z
M 947 1747 
Q 947 1113 1208 752 
Q 1469 391 1925 391 
Q 2381 391 2643 752 
Q 2906 1113 2906 1747 
Q 2906 2381 2643 2742 
Q 2381 3103 1925 3103 
Q 1469 3103 1208 2742 
Q 947 2381 947 1747 
z
" transform="scale(0.015625)"/>
      <path id="DejaVuSans-76" d="M 191 3500 
L 800 3500 
L 1894 563 
L 2988 3500 
L 3597 3500 
L 2284 0 
L 1503 0 
L 191 3500 
z
" transform="scale(0.015625)"/>
      <path id="DejaVuSans-45" d="M 628 4666 
L 3578 4666 
L 3578 4134 
L 1259 4134 
L 1259 2753 
L 3481 2753 
L 3481 2222 
L 1259 2222 
L 1259 531 
L 3634 531 
L 3634 0 
L 628 0 
L 628 4666 
z
" transform="scale(0.015625)"/>
      <path id="DejaVuSans-78" d="M 3513 3500 
L 2247 1797 
L 3578 0 
L 2900 0 
L 1881 1375 
L 863 0 
L 184 0 
L 1544 1831 
L 300 3500 
L 978 3500 
L 1906 2253 
L 2834 3500 
L 3513 3500 
z
" transform="scale(0.015625)"/>
     </defs>
     <use xlink:href="#DejaVuSans-41"/>
     <use xlink:href="#DejaVuSans-63" x="66.658203"/>
     <use xlink:href="#DejaVuSans-74" x="121.638672"/>
     <use xlink:href="#DejaVuSans-75" x="160.847656"/>
     <use xlink:href="#DejaVuSans-61" x="224.226562"/>
     <use xlink:href="#DejaVuSans-6c" x="285.505859"/>
     <use xlink:href="#DejaVuSans-20" x="313.289062"/>
     <use xlink:href="#DejaVuSans-73" x="345.076172"/>
     <use xlink:href="#DejaVuSans-70" x="397.175781"/>
     <use xlink:href="#DejaVuSans-65" x="460.652344"/>
     <use xlink:href="#DejaVuSans-65" x="522.175781"/>
     <use xlink:href="#DejaVuSans-64" x="583.699219"/>
     <use xlink:href="#DejaVuSans-20" x="647.175781"/>
     <use xlink:href="#DejaVuSans-76" x="678.962891"/>
     <use xlink:href="#DejaVuSans-73" x="738.142578"/>
     <use xlink:href="#DejaVuSans-20" x="790.242188"/>
     <use xlink:href="#DejaVuSans-45" x="822.029297"/>
     <use xlink:href="#DejaVuSans-78" x="885.212891"/>
     <use xlink:href="#DejaVuSans-70" x="944.392578"/>
     <use xlink:href="#DejaVuSans-65" x="1007.869141"/>
     <use xlink:href="#DejaVuSans-63" x="1069.392578"/>
     <use xlink:href="#DejaVuSans-74" x="1124.373047"/>
     <use xlink:href="#DejaVuSans-65" x="1163.582031"/>
     <use xlink:href="#DejaVuSans-64" x="1225.105469"/>
     <use xlink:href="#DejaVuSans-20" x="1288.582031"/>
     <use xlink:href="#DejaVuSans-73" x="1320.369141"/>
     <use xlink:href="#DejaVuSans-70" x="1372.46875"/>
     <use xlink:href="#DejaVuSans-65" x="1435.945312"/>
     <use xlink:href="#DejaVuSans-65" x="1497.46875"/>
     <use xlink:href="#DejaVuSans-64" x="1558.992188"/>
    </g>
   </g>
   <g id="legend_1">
    <g id="patch_7">
     <path d="M 295.67 302.584 
L 407.72 302.584 
Q 409.72 302.584 409.72 300.584 
L 409.72 272.22775 
Q 409.72 270.22775 407.72 270.22775 
L 295.67 270.22775 
Q 293.67 270.22775 293.67 272.22775 
L 293.67 300.584 
Q 293.67 302.584 295.67 302.584 
z
" style="fill: #ffffff; opacity: 0.8; stroke: #cccccc; stroke-linejoin: miter"/>
    </g>
    <g id="line2d_35">
     <path d="M 297.67 278.326187 
L 307.67 278.326187 
L 317.67 278.326187 
" style="fill: none; stroke: #1f77b4; stroke-width: 1.5; stroke-linecap: square"/>
    </g>
    <g id="text_20">
     <!-- Actual speed -->
     <g transform="translate(325.67 281.826187) scale(0.1 -0.1)">
      <use xlink:href="#DejaVuSans-41"/>
      <use xlink:href="#DejaVuSans-63" x="66.658203"/>
      <use xlink:href="#DejaVuSans-74" x="121.638672"/>
      <use xlink:href="#DejaVuSans-75" x="160.847656"/>
      <use xlink:href="#DejaVuSans-61" x="224.226562"/>
      <use xlink:href="#DejaVuSans-6c" x="285.505859"/>
      <use xlink:href="#DejaVuSans-20" x="313.289062"/>
      <use xlink:href="#DejaVuSans-73" x="345.076172"/>
      <use xlink:href="#DejaVuSans-70" x="397.175781"/>
      <use xlink:href="#DejaVuSans-65" x="460.652344"/>
      <use xlink:href="#DejaVuSans-65" x="522.175781"/>
      <use xlink:href="#DejaVuSans-64" x="583.699219"/>
     </g>
    </g>
    <g id="line2d_36">
     <path d="M 297.67 293.004312 
L 307.67 293.004312 
L 317.67 293.004312 
" style="fill: none; stroke: #ff7f0e; stroke-width: 1.5; stroke-linecap: square"/>
    </g>
    <g id="text_21">
     <!-- Expected speed -->
     <g transform="translate(325.67 296.504312) scale(0.1 -0.1)">
      <use xlink:href="#DejaVuSans-45"/>
      <use xlink:href="#DejaVuSans-78" x="63.183594"/>
      <use xlink:href="#DejaVuSans-70" x="122.363281"/>
      <use xlink:href="#DejaVuSans-65" x="185.839844"/>
      <use xlink:href="#DejaVuSans-63" x="247.363281"/>
      <use xlink:href="#DejaVuSans-74" x="302.34375"/>
      <use xlink:href="#DejaVuSans-65" x="341.552734"/>
      <use xlink:href="#DejaVuSans-64" x="403.076172"/>
      <use xlink:href="#DejaVuSans-20" x="466.552734"/>
      <use xlink:href="#DejaVuSans-73" x="498.339844"/>
      <use xlink:href="#DejaVuSans-70" x="550.439453"/>
      <use xlink:href="#DejaVuSans-65" x="613.916016"/>
      <use xlink:href="#DejaVuSans-65" x="675.439453"/>
      <use xlink:href="#DejaVuSans-64" x="736.962891"/>
     </g>
    </g>
   </g>
  </g>
 </g>
 <defs>
  <clipPath id="p9e0ba1f834">
   <rect x="57.6" y="41.472" width="357.12" height="266.112"/>
  </clipPath>
 </defs>
</svg>
