<?xml version="1.0" encoding="utf-8" standalone="no"?>
<!DOCTYPE svg PUBLIC "-//W3C//DTD SVG 1.1//EN"
  "http://www.w3.org/Graphics/SVG/1.1/DTD/svg11.dtd">
<svg xmlns:xlink="http://www.w3.org/1999/xlink" width="460.8pt" height="345.6pt" viewBox="0 0 460.8 345.6" xmlns="http://www.w3.org/2000/svg" version="1.1">
 <metadata>
  <rdf:RDF xmlns:dc="http://purl.org/dc/elements/1.1/" xmlns:cc="http://creativecommons.org/ns#" xmlns:rdf="http://www.w3.org/1999/02/22-rdf-syntax-ns#">
   <cc:Work>
    <dc:type rdf:resource="http://purl.org/dc/dcmitype/StillImage"/>
    <dc:date>2024-01-30T20:59:32.010238</dc:date>
    <dc:format>image/svg+xml</dc:format>
    <dc:creator>
     <cc:Agent>
      <dc:title>Matplotlib v3.7.1, https://matplotlib.org/</dc:title>
     </cc:Agent>
    </dc:creator>
   </cc:Work>
  </rdf:RDF>
 </metadata>
 <defs>
  <style type="text/css">*{stroke-linejoin: round; stroke-linecap: butt}</style>
 </defs>
 <g id="figure_1">
  <g id="patch_1">
   <path d="M 0 345.6 
L 460.8 345.6 
L 460.8 0 
L 0 0 
z
" style="fill: #ffffff"/>
  </g>
  <g id="axes_1">
   <g id="patch_2">
    <path d="M 57.6 307.584 
L 414.72 307.584 
L 414.72 41.472 
L 57.6 41.472 
z
" style="fill: #ffffff"/>
   </g>
   <g id="matplotlib.axis_1">
    <g id="xtick_1">
     <g id="line2d_1">
      <path d="M 73.832727 307.584 
L 73.832727 41.472 
" clip-path="url(#p9f21b7d500)" style="fill: none; stroke: #b0b0b0; stroke-width: 0.8; stroke-linecap: square"/>
     </g>
     <g id="line2d_2">
      <defs>
       <path id="m20b8cb1195" d="M 0 0 
L 0 3.5 
" style="stroke: #000000; stroke-width: 0.8"/>
      </defs>
      <g>
       <use xlink:href="#m20b8cb1195" x="73.832727" y="307.584" style="stroke: #000000; stroke-width: 0.8"/>
      </g>
     </g>
     <g id="text_1">
      <!-- 0 -->
      <g transform="translate(70.651477 322.182437) scale(0.1 -0.1)">
       <defs>
        <path id="DejaVuSans-30" d="M 2034 4250 
Q 1547 4250 1301 3770 
Q 1056 3291 1056 2328 
Q 1056 1369 1301 889 
Q 1547 409 2034 409 
Q 2525 409 2770 889 
Q 3016 1369 3016 2328 
Q 3016 3291 2770 3770 
Q 2525 4250 2034 4250 
z
M 2034 4750 
Q 2819 4750 3233 4129 
Q 3647 3509 3647 2328 
Q 3647 1150 3233 529 
Q 2819 -91 2034 -91 
Q 1250 -91 836 529 
Q 422 1150 422 2328 
Q 422 3509 836 4129 
Q 1250 4750 2034 4750 
z
" transform="scale(0.015625)"/>
       </defs>
       <use xlink:href="#DejaVuSans-30"/>
      </g>
     </g>
    </g>
    <g id="xtick_2">
     <g id="line2d_3">
      <path d="M 131.93125 307.584 
L 131.93125 41.472 
" clip-path="url(#p9f21b7d500)" style="fill: none; stroke: #b0b0b0; stroke-width: 0.8; stroke-linecap: square"/>
     </g>
     <g id="line2d_4">
      <g>
       <use xlink:href="#m20b8cb1195" x="131.93125" y="307.584" style="stroke: #000000; stroke-width: 0.8"/>
      </g>
     </g>
     <g id="text_2">
      <!-- 5 -->
      <g transform="translate(128.75 322.182437) scale(0.1 -0.1)">
       <defs>
        <path id="DejaVuSans-35" d="M 691 4666 
L 3169 4666 
L 3169 4134 
L 1269 4134 
L 1269 2991 
Q 1406 3038 1543 3061 
Q 1681 3084 1819 3084 
Q 2600 3084 3056 2656 
Q 3513 2228 3513 1497 
Q 3513 744 3044 326 
Q 2575 -91 1722 -91 
Q 1428 -91 1123 -41 
Q 819 9 494 109 
L 494 744 
Q 775 591 1075 516 
Q 1375 441 1709 441 
Q 2250 441 2565 725 
Q 2881 1009 2881 1497 
Q 2881 1984 2565 2268 
Q 2250 2553 1709 2553 
Q 1456 2553 1204 2497 
Q 953 2441 691 2322 
L 691 4666 
z
" transform="scale(0.015625)"/>
       </defs>
       <use xlink:href="#DejaVuSans-35"/>
      </g>
     </g>
    </g>
    <g id="xtick_3">
     <g id="line2d_5">
      <path d="M 190.029773 307.584 
L 190.029773 41.472 
" clip-path="url(#p9f21b7d500)" style="fill: none; stroke: #b0b0b0; stroke-width: 0.8; stroke-linecap: square"/>
     </g>
     <g id="line2d_6">
      <g>
       <use xlink:href="#m20b8cb1195" x="190.029773" y="307.584" style="stroke: #000000; stroke-width: 0.8"/>
      </g>
     </g>
     <g id="text_3">
      <!-- 10 -->
      <g transform="translate(183.667273 322.182437) scale(0.1 -0.1)">
       <defs>
        <path id="DejaVuSans-31" d="M 794 531 
L 1825 531 
L 1825 4091 
L 703 3866 
L 703 4441 
L 1819 4666 
L 2450 4666 
L 2450 531 
L 3481 531 
L 3481 0 
L 794 0 
L 794 531 
z
" transform="scale(0.015625)"/>
       </defs>
       <use xlink:href="#DejaVuSans-31"/>
       <use xlink:href="#DejaVuSans-30" x="63.623047"/>
      </g>
     </g>
    </g>
    <g id="xtick_4">
     <g id="line2d_7">
      <path d="M 248.128296 307.584 
L 248.128296 41.472 
" clip-path="url(#p9f21b7d500)" style="fill: none; stroke: #b0b0b0; stroke-width: 0.8; stroke-linecap: square"/>
     </g>
     <g id="line2d_8">
      <g>
       <use xlink:href="#m20b8cb1195" x="248.128296" y="307.584" style="stroke: #000000; stroke-width: 0.8"/>
      </g>
     </g>
     <g id="text_4">
      <!-- 15 -->
      <g transform="translate(241.765796 322.182437) scale(0.1 -0.1)">
       <use xlink:href="#DejaVuSans-31"/>
       <use xlink:href="#DejaVuSans-35" x="63.623047"/>
      </g>
     </g>
    </g>
    <g id="xtick_5">
     <g id="line2d_9">
      <path d="M 306.226819 307.584 
L 306.226819 41.472 
" clip-path="url(#p9f21b7d500)" style="fill: none; stroke: #b0b0b0; stroke-width: 0.8; stroke-linecap: square"/>
     </g>
     <g id="line2d_10">
      <g>
       <use xlink:href="#m20b8cb1195" x="306.226819" y="307.584" style="stroke: #000000; stroke-width: 0.8"/>
      </g>
     </g>
     <g id="text_5">
      <!-- 20 -->
      <g transform="translate(299.864319 322.182437) scale(0.1 -0.1)">
       <defs>
        <path id="DejaVuSans-32" d="M 1228 531 
L 3431 531 
L 3431 0 
L 469 0 
L 469 531 
Q 828 903 1448 1529 
Q 2069 2156 2228 2338 
Q 2531 2678 2651 2914 
Q 2772 3150 2772 3378 
Q 2772 3750 2511 3984 
Q 2250 4219 1831 4219 
Q 1534 4219 1204 4116 
Q 875 4013 500 3803 
L 500 4441 
Q 881 4594 1212 4672 
Q 1544 4750 1819 4750 
Q 2544 4750 2975 4387 
Q 3406 4025 3406 3419 
Q 3406 3131 3298 2873 
Q 3191 2616 2906 2266 
Q 2828 2175 2409 1742 
Q 1991 1309 1228 531 
z
" transform="scale(0.015625)"/>
       </defs>
       <use xlink:href="#DejaVuSans-32"/>
       <use xlink:href="#DejaVuSans-30" x="63.623047"/>
      </g>
     </g>
    </g>
    <g id="xtick_6">
     <g id="line2d_11">
      <path d="M 364.325341 307.584 
L 364.325341 41.472 
" clip-path="url(#p9f21b7d500)" style="fill: none; stroke: #b0b0b0; stroke-width: 0.8; stroke-linecap: square"/>
     </g>
     <g id="line2d_12">
      <g>
       <use xlink:href="#m20b8cb1195" x="364.325341" y="307.584" style="stroke: #000000; stroke-width: 0.8"/>
      </g>
     </g>
     <g id="text_6">
      <!-- 25 -->
      <g transform="translate(357.962841 322.182437) scale(0.1 -0.1)">
       <use xlink:href="#DejaVuSans-32"/>
       <use xlink:href="#DejaVuSans-35" x="63.623047"/>
      </g>
     </g>
    </g>
    <g id="text_7">
     <!-- Time(s) -->
     <g transform="translate(217.420156 335.860562) scale(0.1 -0.1)">
      <defs>
       <path id="DejaVuSans-54" d="M -19 4666 
L 3928 4666 
L 3928 4134 
L 2272 4134 
L 2272 0 
L 1638 0 
L 1638 4134 
L -19 4134 
L -19 4666 
z
" transform="scale(0.015625)"/>
       <path id="DejaVuSans-69" d="M 603 3500 
L 1178 3500 
L 1178 0 
L 603 0 
L 603 3500 
z
M 603 4863 
L 1178 4863 
L 1178 4134 
L 603 4134 
L 603 4863 
z
" transform="scale(0.015625)"/>
       <path id="DejaVuSans-6d" d="M 3328 2828 
Q 3544 3216 3844 3400 
Q 4144 3584 4550 3584 
Q 5097 3584 5394 3201 
Q 5691 2819 5691 2113 
L 5691 0 
L 5113 0 
L 5113 2094 
Q 5113 2597 4934 2840 
Q 4756 3084 4391 3084 
Q 3944 3084 3684 2787 
Q 3425 2491 3425 1978 
L 3425 0 
L 2847 0 
L 2847 2094 
Q 2847 2600 2669 2842 
Q 2491 3084 2119 3084 
Q 1678 3084 1418 2786 
Q 1159 2488 1159 1978 
L 1159 0 
L 581 0 
L 581 3500 
L 1159 3500 
L 1159 2956 
Q 1356 3278 1631 3431 
Q 1906 3584 2284 3584 
Q 2666 3584 2933 3390 
Q 3200 3197 3328 2828 
z
" transform="scale(0.015625)"/>
       <path id="DejaVuSans-65" d="M 3597 1894 
L 3597 1613 
L 953 1613 
Q 991 1019 1311 708 
Q 1631 397 2203 397 
Q 2534 397 2845 478 
Q 3156 559 3463 722 
L 3463 178 
Q 3153 47 2828 -22 
Q 2503 -91 2169 -91 
Q 1331 -91 842 396 
Q 353 884 353 1716 
Q 353 2575 817 3079 
Q 1281 3584 2069 3584 
Q 2775 3584 3186 3129 
Q 3597 2675 3597 1894 
z
M 3022 2063 
Q 3016 2534 2758 2815 
Q 2500 3097 2075 3097 
Q 1594 3097 1305 2825 
Q 1016 2553 972 2059 
L 3022 2063 
z
" transform="scale(0.015625)"/>
       <path id="DejaVuSans-28" d="M 1984 4856 
Q 1566 4138 1362 3434 
Q 1159 2731 1159 2009 
Q 1159 1288 1364 580 
Q 1569 -128 1984 -844 
L 1484 -844 
Q 1016 -109 783 600 
Q 550 1309 550 2009 
Q 550 2706 781 3412 
Q 1013 4119 1484 4856 
L 1984 4856 
z
" transform="scale(0.015625)"/>
       <path id="DejaVuSans-73" d="M 2834 3397 
L 2834 2853 
Q 2591 2978 2328 3040 
Q 2066 3103 1784 3103 
Q 1356 3103 1142 2972 
Q 928 2841 928 2578 
Q 928 2378 1081 2264 
Q 1234 2150 1697 2047 
L 1894 2003 
Q 2506 1872 2764 1633 
Q 3022 1394 3022 966 
Q 3022 478 2636 193 
Q 2250 -91 1575 -91 
Q 1294 -91 989 -36 
Q 684 19 347 128 
L 347 722 
Q 666 556 975 473 
Q 1284 391 1588 391 
Q 1994 391 2212 530 
Q 2431 669 2431 922 
Q 2431 1156 2273 1281 
Q 2116 1406 1581 1522 
L 1381 1569 
Q 847 1681 609 1914 
Q 372 2147 372 2553 
Q 372 3047 722 3315 
Q 1072 3584 1716 3584 
Q 2034 3584 2315 3537 
Q 2597 3491 2834 3397 
z
" transform="scale(0.015625)"/>
       <path id="DejaVuSans-29" d="M 513 4856 
L 1013 4856 
Q 1481 4119 1714 3412 
Q 1947 2706 1947 2009 
Q 1947 1309 1714 600 
Q 1481 -109 1013 -844 
L 513 -844 
Q 928 -128 1133 580 
Q 1338 1288 1338 2009 
Q 1338 2731 1133 3434 
Q 928 4138 513 4856 
z
" transform="scale(0.015625)"/>
      </defs>
      <use xlink:href="#DejaVuSans-54"/>
      <use xlink:href="#DejaVuSans-69" x="57.958984"/>
      <use xlink:href="#DejaVuSans-6d" x="85.742188"/>
      <use xlink:href="#DejaVuSans-65" x="183.154297"/>
      <use xlink:href="#DejaVuSans-28" x="244.677734"/>
      <use xlink:href="#DejaVuSans-73" x="283.691406"/>
      <use xlink:href="#DejaVuSans-29" x="335.791016"/>
     </g>
    </g>
   </g>
   <g id="matplotlib.axis_2">
    <g id="ytick_1">
     <g id="line2d_13">
      <path d="M 57.6 257.850614 
L 414.72 257.850614 
" clip-path="url(#p9f21b7d500)" style="fill: none; stroke: #b0b0b0; stroke-width: 0.8; stroke-linecap: square"/>
     </g>
     <g id="line2d_14">
      <defs>
       <path id="m413440b0f1" d="M 0 0 
L -3.5 0 
" style="stroke: #000000; stroke-width: 0.8"/>
      </defs>
      <g>
       <use xlink:href="#m413440b0f1" x="57.6" y="257.850614" style="stroke: #000000; stroke-width: 0.8"/>
      </g>
     </g>
     <g id="text_8">
      <!-- 4 -->
      <g transform="translate(44.2375 261.649832) scale(0.1 -0.1)">
       <defs>
        <path id="DejaVuSans-34" d="M 2419 4116 
L 825 1625 
L 2419 1625 
L 2419 4116 
z
M 2253 4666 
L 3047 4666 
L 3047 1625 
L 3713 1625 
L 3713 1100 
L 3047 1100 
L 3047 0 
L 2419 0 
L 2419 1100 
L 313 1100 
L 313 1709 
L 2253 4666 
z
" transform="scale(0.015625)"/>
       </defs>
       <use xlink:href="#DejaVuSans-34"/>
      </g>
     </g>
    </g>
    <g id="ytick_2">
     <g id="line2d_15">
      <path d="M 57.6 206.77996 
L 414.72 206.77996 
" clip-path="url(#p9f21b7d500)" style="fill: none; stroke: #b0b0b0; stroke-width: 0.8; stroke-linecap: square"/>
     </g>
     <g id="line2d_16">
      <g>
       <use xlink:href="#m413440b0f1" x="57.6" y="206.77996" style="stroke: #000000; stroke-width: 0.8"/>
      </g>
     </g>
     <g id="text_9">
      <!-- 5 -->
      <g transform="translate(44.2375 210.579179) scale(0.1 -0.1)">
       <use xlink:href="#DejaVuSans-35"/>
      </g>
     </g>
    </g>
    <g id="ytick_3">
     <g id="line2d_17">
      <path d="M 57.6 155.709307 
L 414.72 155.709307 
" clip-path="url(#p9f21b7d500)" style="fill: none; stroke: #b0b0b0; stroke-width: 0.8; stroke-linecap: square"/>
     </g>
     <g id="line2d_18">
      <g>
       <use xlink:href="#m413440b0f1" x="57.6" y="155.709307" style="stroke: #000000; stroke-width: 0.8"/>
      </g>
     </g>
     <g id="text_10">
      <!-- 6 -->
      <g transform="translate(44.2375 159.508526) scale(0.1 -0.1)">
       <defs>
        <path id="DejaVuSans-36" d="M 2113 2584 
Q 1688 2584 1439 2293 
Q 1191 2003 1191 1497 
Q 1191 994 1439 701 
Q 1688 409 2113 409 
Q 2538 409 2786 701 
Q 3034 994 3034 1497 
Q 3034 2003 2786 2293 
Q 2538 2584 2113 2584 
z
M 3366 4563 
L 3366 3988 
Q 3128 4100 2886 4159 
Q 2644 4219 2406 4219 
Q 1781 4219 1451 3797 
Q 1122 3375 1075 2522 
Q 1259 2794 1537 2939 
Q 1816 3084 2150 3084 
Q 2853 3084 3261 2657 
Q 3669 2231 3669 1497 
Q 3669 778 3244 343 
Q 2819 -91 2113 -91 
Q 1303 -91 875 529 
Q 447 1150 447 2328 
Q 447 3434 972 4092 
Q 1497 4750 2381 4750 
Q 2619 4750 2861 4703 
Q 3103 4656 3366 4563 
z
" transform="scale(0.015625)"/>
       </defs>
       <use xlink:href="#DejaVuSans-36"/>
      </g>
     </g>
    </g>
    <g id="ytick_4">
     <g id="line2d_19">
      <path d="M 57.6 104.638653 
L 414.72 104.638653 
" clip-path="url(#p9f21b7d500)" style="fill: none; stroke: #b0b0b0; stroke-width: 0.8; stroke-linecap: square"/>
     </g>
     <g id="line2d_20">
      <g>
       <use xlink:href="#m413440b0f1" x="57.6" y="104.638653" style="stroke: #000000; stroke-width: 0.8"/>
      </g>
     </g>
     <g id="text_11">
      <!-- 7 -->
      <g transform="translate(44.2375 108.437872) scale(0.1 -0.1)">
       <defs>
        <path id="DejaVuSans-37" d="M 525 4666 
L 3525 4666 
L 3525 4397 
L 1831 0 
L 1172 0 
L 2766 4134 
L 525 4134 
L 525 4666 
z
" transform="scale(0.015625)"/>
       </defs>
       <use xlink:href="#DejaVuSans-37"/>
      </g>
     </g>
    </g>
    <g id="ytick_5">
     <g id="line2d_21">
      <path d="M 57.6 53.568 
L 414.72 53.568 
" clip-path="url(#p9f21b7d500)" style="fill: none; stroke: #b0b0b0; stroke-width: 0.8; stroke-linecap: square"/>
     </g>
     <g id="line2d_22">
      <g>
       <use xlink:href="#m413440b0f1" x="57.6" y="53.568" style="stroke: #000000; stroke-width: 0.8"/>
      </g>
     </g>
     <g id="text_12">
      <!-- 8 -->
      <g transform="translate(44.2375 57.367219) scale(0.1 -0.1)">
       <defs>
        <path id="DejaVuSans-38" d="M 2034 2216 
Q 1584 2216 1326 1975 
Q 1069 1734 1069 1313 
Q 1069 891 1326 650 
Q 1584 409 2034 409 
Q 2484 409 2743 651 
Q 3003 894 3003 1313 
Q 3003 1734 2745 1975 
Q 2488 2216 2034 2216 
z
M 1403 2484 
Q 997 2584 770 2862 
Q 544 3141 544 3541 
Q 544 4100 942 4425 
Q 1341 4750 2034 4750 
Q 2731 4750 3128 4425 
Q 3525 4100 3525 3541 
Q 3525 3141 3298 2862 
Q 3072 2584 2669 2484 
Q 3125 2378 3379 2068 
Q 3634 1759 3634 1313 
Q 3634 634 3220 271 
Q 2806 -91 2034 -91 
Q 1263 -91 848 271 
Q 434 634 434 1313 
Q 434 1759 690 2068 
Q 947 2378 1403 2484 
z
M 1172 3481 
Q 1172 3119 1398 2916 
Q 1625 2713 2034 2713 
Q 2441 2713 2670 2916 
Q 2900 3119 2900 3481 
Q 2900 3844 2670 4047 
Q 2441 4250 2034 4250 
Q 1625 4250 1398 4047 
Q 1172 3844 1172 3481 
z
" transform="scale(0.015625)"/>
       </defs>
       <use xlink:href="#DejaVuSans-38"/>
      </g>
     </g>
    </g>
    <g id="text_13">
     <!-- Velocity(m/s) -->
     <g transform="translate(38.157812 207.204563) rotate(-90) scale(0.1 -0.1)">
      <defs>
       <path id="DejaVuSans-56" d="M 1831 0 
L 50 4666 
L 709 4666 
L 2188 738 
L 3669 4666 
L 4325 4666 
L 2547 0 
L 1831 0 
z
" transform="scale(0.015625)"/>
       <path id="DejaVuSans-6c" d="M 603 4863 
L 1178 4863 
L 1178 0 
L 603 0 
L 603 4863 
z
" transform="scale(0.015625)"/>
       <path id="DejaVuSans-6f" d="M 1959 3097 
Q 1497 3097 1228 2736 
Q 959 2375 959 1747 
Q 959 1119 1226 758 
Q 1494 397 1959 397 
Q 2419 397 2687 759 
Q 2956 1122 2956 1747 
Q 2956 2369 2687 2733 
Q 2419 3097 1959 3097 
z
M 1959 3584 
Q 2709 3584 3137 3096 
Q 3566 2609 3566 1747 
Q 3566 888 3137 398 
Q 2709 -91 1959 -91 
Q 1206 -91 779 398 
Q 353 888 353 1747 
Q 353 2609 779 3096 
Q 1206 3584 1959 3584 
z
" transform="scale(0.015625)"/>
       <path id="DejaVuSans-63" d="M 3122 3366 
L 3122 2828 
Q 2878 2963 2633 3030 
Q 2388 3097 2138 3097 
Q 1578 3097 1268 2742 
Q 959 2388 959 1747 
Q 959 1106 1268 751 
Q 1578 397 2138 397 
Q 2388 397 2633 464 
Q 2878 531 3122 666 
L 3122 134 
Q 2881 22 2623 -34 
Q 2366 -91 2075 -91 
Q 1284 -91 818 406 
Q 353 903 353 1747 
Q 353 2603 823 3093 
Q 1294 3584 2113 3584 
Q 2378 3584 2631 3529 
Q 2884 3475 3122 3366 
z
" transform="scale(0.015625)"/>
       <path id="DejaVuSans-74" d="M 1172 4494 
L 1172 3500 
L 2356 3500 
L 2356 3053 
L 1172 3053 
L 1172 1153 
Q 1172 725 1289 603 
Q 1406 481 1766 481 
L 2356 481 
L 2356 0 
L 1766 0 
Q 1100 0 847 248 
Q 594 497 594 1153 
L 594 3053 
L 172 3053 
L 172 3500 
L 594 3500 
L 594 4494 
L 1172 4494 
z
" transform="scale(0.015625)"/>
       <path id="DejaVuSans-79" d="M 2059 -325 
Q 1816 -950 1584 -1140 
Q 1353 -1331 966 -1331 
L 506 -1331 
L 506 -850 
L 844 -850 
Q 1081 -850 1212 -737 
Q 1344 -625 1503 -206 
L 1606 56 
L 191 3500 
L 800 3500 
L 1894 763 
L 2988 3500 
L 3597 3500 
L 2059 -325 
z
" transform="scale(0.015625)"/>
       <path id="DejaVuSans-2f" d="M 1625 4666 
L 2156 4666 
L 531 -594 
L 0 -594 
L 1625 4666 
z
" transform="scale(0.015625)"/>
      </defs>
      <use xlink:href="#DejaVuSans-56"/>
      <use xlink:href="#DejaVuSans-65" x="60.658203"/>
      <use xlink:href="#DejaVuSans-6c" x="122.181641"/>
      <use xlink:href="#DejaVuSans-6f" x="149.964844"/>
      <use xlink:href="#DejaVuSans-63" x="211.146484"/>
      <use xlink:href="#DejaVuSans-69" x="266.126953"/>
      <use xlink:href="#DejaVuSans-74" x="293.910156"/>
      <use xlink:href="#DejaVuSans-79" x="333.119141"/>
      <use xlink:href="#DejaVuSans-28" x="392.298828"/>
      <use xlink:href="#DejaVuSans-6d" x="431.3125"/>
      <use xlink:href="#DejaVuSans-2f" x="528.724609"/>
      <use xlink:href="#DejaVuSans-73" x="562.416016"/>
      <use xlink:href="#DejaVuSans-29" x="614.515625"/>
     </g>
    </g>
   </g>
   <g id="line2d_23">
    <path d="M 73.832727 54.331608 
L 75.227092 53.993572 
L 75.227092 53.993572 
L 77.318639 53.745062 
L 77.318639 53.745062 
L 80.80455 53.609061 
L 80.80455 53.609061 
L 88.241161 53.569839 
L 88.241161 53.569839 
L 88.473555 54.184985 
L 88.473555 54.184985 
L 89.403131 60.981876 
L 89.403131 60.981876 
L 94.515801 114.31547 
L 94.515801 114.31547 
L 95.910166 123.860166 
L 95.910166 123.860166 
L 96.839742 128.224 
L 96.839742 128.224 
L 97.536925 130.36575 
L 97.536925 130.36575 
L 98.234107 131.625 
L 98.234107 131.625 
L 98.931289 132.210729 
L 98.931289 132.210729 
L 99.860865 132.399231 
L 99.860865 132.399231 
L 100.790442 132.370631 
L 100.790442 132.370631 
L 101.487624 132.205162 
L 101.487624 132.205162 
L 102.184806 131.6775 
L 102.184806 131.6775 
L 102.881989 130.55655 
L 102.881989 130.55655 
L 103.579171 128.602945 
L 103.579171 128.602945 
L 104.508747 124.410044 
L 104.508747 124.410044 
L 104.973535 121.687519 
L 104.973535 121.687519 
L 105.670718 116.431174 
L 105.670718 116.431174 
L 106.600294 107.148623 
L 106.600294 107.148623 
L 107.297476 98.451239 
L 107.297476 98.451239 
L 108.924235 77.147321 
L 108.924235 77.147321 
L 109.621417 71.170931 
L 109.621417 71.170931 
L 110.3186 66.709296 
L 110.3186 66.709296 
L 111.015782 63.378468 
L 111.015782 63.378468 
L 111.712964 60.89194 
L 111.712964 60.89194 
L 112.410146 59.035624 
L 112.410146 59.035624 
L 113.339723 57.270827 
L 113.339723 57.270827 
L 114.269299 56.075671 
L 114.269299 56.075671 
L 115.198876 55.266252 
L 115.198876 55.266252 
L 116.360846 54.611373 
L 116.360846 54.611373 
L 117.755211 54.14949 
L 117.755211 54.14949 
L 119.381969 53.861963 
L 119.381969 53.861963 
L 121.938304 53.66866 
L 121.938304 53.66866 
L 126.81858 53.581023 
L 126.81858 53.581023 
L 132.163644 53.638784 
L 132.163644 53.638784 
L 132.628432 56.655681 
L 132.628432 56.655681 
L 132.860826 58.88992 
L 132.860826 58.88992 
L 133.325615 68.171858 
L 133.325615 68.171858 
L 133.790403 80.360737 
L 133.790403 80.360737 
L 134.255191 90.165945 
L 134.255191 90.165945 
L 134.952373 106.086762 
L 134.952373 106.086762 
L 136.346738 133.553325 
L 136.346738 133.553325 
L 138.438285 162.626418 
L 138.438285 162.626418 
L 139.600255 173.244109 
L 139.600255 173.244109 
L 140.297437 178.094034 
L 140.297437 178.094034 
L 141.924196 187.222147 
L 141.924196 187.222147 
L 143.783349 195.153879 
L 143.783349 195.153879 
L 144.945319 198.484605 
L 144.945319 198.484605 
L 145.642501 200.145576 
L 145.642501 200.145576 
L 146.339684 201.283328 
L 146.339684 201.283328 
L 147.501654 202.18733 
L 147.501654 202.18733 
L 147.966442 202.340286 
L 147.966442 202.340286 
L 148.663625 202.405861 
L 148.663625 202.405861 
L 149.825595 202.412909 
L 149.825595 202.412909 
L 150.987566 202.098977 
L 150.987566 202.098977 
L 151.684748 201.622488 
L 151.684748 201.622488 
L 152.38193 200.718436 
L 152.38193 200.718436 
L 152.846718 199.75989 
L 152.846718 199.75989 
L 153.543901 197.698781 
L 153.543901 197.698781 
L 154.241083 194.616156 
L 154.241083 194.616156 
L 154.938265 190.259012 
L 154.938265 190.259012 
L 155.635447 184.40463 
L 155.635447 184.40463 
L 156.100236 179.014889 
L 156.100236 179.014889 
L 157.262206 164.273498 
L 157.262206 164.273498 
L 157.726994 161.138424 
L 157.726994 161.138424 
L 157.959388 160.158276 
L 157.959388 160.158276 
L 158.191782 159.677446 
L 158.191782 159.677446 
L 158.424176 159.457893 
L 158.424176 159.457893 
L 158.656571 159.536133 
L 158.656571 159.536133 
L 158.888965 159.93188 
L 158.888965 159.93188 
L 159.121359 160.64023 
L 159.121359 160.64023 
L 159.818541 163.795528 
L 159.818541 163.795528 
L 160.515723 165.998869 
L 160.515723 165.998869 
L 160.980511 167.029526 
L 160.980511 167.029526 
L 161.4453 167.612855 
L 161.4453 167.612855 
L 162.142482 168.003392 
L 162.142482 168.003392 
L 162.839664 168.209871 
L 162.839664 168.209871 
L 163.769241 168.097771 
L 163.769241 168.097771 
L 164.698817 167.802633 
L 164.698817 167.802633 
L 165.395999 167.06359 
L 165.395999 167.06359 
L 165.860787 166.351359 
L 165.860787 166.351359 
L 166.55797 164.472265 
L 166.55797 164.472265 
L 167.255152 162.013366 
L 167.255152 162.013366 
L 167.71994 159.828921 
L 167.71994 159.828921 
L 168.649516 154.152673 
L 168.649516 154.152673 
L 169.811487 144.254006 
L 169.811487 144.254006 
L 171.205851 128.291924 
L 171.205851 128.291924 
L 172.367822 113.332258 
L 172.367822 113.332258 
L 172.83261 111.134943 
L 172.83261 111.134943 
L 173.065004 110.784292 
L 173.065004 110.784292 
L 173.529792 116.523152 
L 173.529792 116.523152 
L 173.762187 120.01521 
L 173.762187 120.01521 
L 176.086127 176.574324 
L 176.086127 176.574324 
L 178.177674 215.08604 
L 178.177674 215.08604 
L 179.572039 234.161849 
L 179.572039 234.161849 
L 180.734009 247.354675 
L 180.734009 247.354675 
L 181.663586 255.092696 
L 181.663586 255.092696 
L 182.825556 262.197595 
L 182.825556 262.197595 
L 183.290344 264.165091 
L 183.290344 264.165091 
L 184.219921 267.31896 
L 184.219921 267.31896 
L 184.917103 268.693271 
L 184.917103 268.693271 
L 185.614285 269.63818 
L 185.614285 269.63818 
L 186.079073 269.990721 
L 186.079073 269.990721 
L 187.00865 270.10374 
L 187.00865 270.10374 
L 188.17062 270.163135 
L 188.17062 270.163135 
L 188.635408 270.151593 
L 188.635408 270.151593 
L 189.332591 269.931836 
L 189.332591 269.931836 
L 190.029773 269.417555 
L 190.029773 269.417555 
L 190.494561 268.881415 
L 190.494561 268.881415 
L 191.424137 267.076885 
L 191.424137 267.076885 
L 191.888926 265.675864 
L 191.888926 265.675864 
L 192.818502 261.962159 
L 192.818502 261.962159 
L 193.748078 256.346992 
L 193.748078 256.346992 
L 194.445261 250.482497 
L 194.445261 250.482497 
L 195.839625 238.225694 
L 195.839625 238.225694 
L 196.304413 236.990754 
L 196.304413 236.990754 
L 196.536807 237.900323 
L 196.536807 237.900323 
L 196.769202 239.793971 
L 196.769202 239.793971 
L 199.325537 275.898166 
L 199.325537 275.898166 
L 200.952295 287.410921 
L 200.952295 287.410921 
L 201.649477 290.543595 
L 201.649477 290.543595 
L 202.114266 292.088278 
L 202.114266 292.088278 
L 202.811448 293.695573 
L 202.811448 293.695573 
L 203.276236 294.38707 
L 203.276236 294.38707 
L 203.973418 295.054308 
L 203.973418 295.054308 
L 204.670601 295.247968 
L 204.670601 295.247968 
L 205.367783 295.341887 
L 205.367783 295.341887 
L 206.297359 295.20941 
L 206.297359 295.20941 
L 206.994542 294.85595 
L 206.994542 294.85595 
L 207.45933 294.504737 
L 207.45933 294.504737 
L 207.924118 293.897047 
L 207.924118 293.897047 
L 208.853694 292.076736 
L 208.853694 292.076736 
L 209.318482 290.847057 
L 209.318482 290.847057 
L 209.783271 289.090532 
L 209.783271 289.090532 
L 210.945241 283.314493 
L 210.945241 283.314493 
L 211.874817 276.710853 
L 211.874817 276.710853 
L 213.036788 265.59604 
L 213.036788 265.59604 
L 214.198758 252.260522 
L 214.198758 252.260522 
L 214.663547 249.815208 
L 214.663547 249.815208 
L 214.895941 249.551326 
L 214.895941 249.551326 
L 215.360729 249.646522 
L 215.360729 249.646522 
L 215.825517 252.45362 
L 215.825517 252.45362 
L 216.522699 258.38374 
L 216.522699 258.38374 
L 217.917064 268.920791 
L 217.917064 268.920791 
L 219.311428 274.689425 
L 219.311428 274.689425 
L 220.008611 276.493394 
L 220.008611 276.493394 
L 220.705793 277.634312 
L 220.705793 277.634312 
L 221.402975 278.30916 
L 221.402975 278.30916 
L 222.100157 278.726305 
L 222.100157 278.726305 
L 223.95931 278.801379 
L 223.95931 278.801379 
L 225.121281 278.552256 
L 225.121281 278.552256 
L 226.050857 277.98859 
L 226.050857 277.98859 
L 226.515645 277.582527 
L 226.515645 277.582527 
L 226.980433 276.949046 
L 226.980433 276.949046 
L 227.91001 275.236954 
L 227.91001 275.236954 
L 229.07198 271.846935 
L 229.07198 271.846935 
L 230.233951 267.046906 
L 230.233951 267.046906 
L 231.628315 259.459799 
L 231.628315 259.459799 
L 233.255074 248.581597 
L 233.255074 248.581597 
L 234.18465 241.166189 
L 234.18465 241.166189 
L 236.043803 223.235078 
L 236.043803 223.235078 
L 237.902956 201.358708 
L 237.902956 201.358708 
L 239.529714 178.100571 
L 239.529714 178.100571 
L 244.40999 102.724117 
L 244.40999 102.724117 
L 245.804355 82.063178 
L 245.804355 82.063178 
L 246.501537 74.840766 
L 246.501537 74.840766 
L 247.198719 69.448981 
L 247.198719 69.448981 
L 247.895902 65.423797 
L 247.895902 65.423797 
L 248.593084 62.4188 
L 248.593084 62.4188 
L 249.290266 60.17547 
L 249.290266 60.17547 
L 249.987448 58.500761 
L 249.987448 58.500761 
L 250.917025 56.908634 
L 250.917025 56.908634 
L 251.846601 55.830379 
L 251.846601 55.830379 
L 252.776178 55.100171 
L 252.776178 55.100171 
L 253.938148 54.509283 
L 253.938148 54.509283 
L 255.332513 54.092598 
L 255.332513 54.092598 
L 257.191665 53.808594 
L 257.191665 53.808594 
L 259.980394 53.642716 
L 259.980394 53.642716 
L 265.790247 53.574537 
L 265.790247 53.574537 
L 283.452198 53.568 
L 283.452198 53.568 
L 283.684592 53.840411 
L 283.684592 53.840411 
L 283.916986 55.83232 
L 283.916986 55.83232 
L 285.543744 84.501291 
L 285.543744 84.501291 
L 286.473321 96.879744 
L 286.473321 96.879744 
L 287.170503 102.249875 
L 287.170503 102.249875 
L 287.635291 104.319155 
L 287.635291 104.319155 
L 288.100079 105.513749 
L 288.100079 105.513749 
L 288.564868 106.092941 
L 288.564868 106.092941 
L 289.26205 106.344413 
L 289.26205 106.344413 
L 289.959232 106.097793 
L 289.959232 106.097793 
L 290.42402 105.468092 
L 290.42402 105.468092 
L 290.888808 104.489425 
L 290.888808 104.489425 
L 291.585991 102.044009 
L 291.585991 102.044009 
L 292.515567 96.102755 
L 292.515567 96.102755 
L 293.445143 87.856786 
L 293.445143 87.856786 
L 295.304296 69.930425 
L 295.304296 69.930425 
L 296.001478 65.783181 
L 296.001478 65.783181 
L 296.698661 62.687125 
L 296.698661 62.687125 
L 297.395843 60.619376 
L 297.395843 60.619376 
L 297.628237 60.411314 
L 297.628237 60.411314 
L 297.860631 61.204237 
L 298.790208 69.365992 
L 298.790208 69.365992 
L 300.416966 89.13345 
L 300.416966 89.13345 
L 300.881754 94.387445 
L 300.881754 94.387445 
L 301.578937 102.911086 
L 301.578937 102.911086 
L 305.529636 152.950726 
L 305.529636 152.950726 
L 307.156395 167.921883 
L 307.156395 167.921883 
L 308.085971 173.383532 
L 308.085971 173.383532 
L 308.783154 176.791681 
L 308.783154 176.791681 
L 309.480336 179.23628 
L 309.480336 179.23628 
L 310.177518 180.851441 
L 310.177518 180.851441 
L 310.642306 181.679602 
L 310.642306 181.679602 
L 311.107094 182.021827 
L 311.107094 182.021827 
L 311.571883 182.237702 
L 311.571883 182.237702 
L 313.663429 182.126981 
L 313.663429 182.126981 
L 314.360612 181.683075 
L 314.360612 181.683075 
L 314.8254 181.176863 
L 314.8254 181.176863 
L 315.522582 179.987683 
L 315.522582 179.987683 
L 315.98737 178.819493 
L 315.98737 178.819493 
L 316.684553 176.082667 
L 316.684553 176.082667 
L 317.614129 171.327377 
L 317.614129 171.327377 
L 318.311311 166.667997 
L 318.311311 166.667997 
L 319.473282 156.402182 
L 319.473282 156.402182 
L 320.170464 148.713802 
L 320.170464 148.713802 
L 321.332434 133.633966 
L 321.332434 133.633966 
L 322.726799 112.252471 
L 322.726799 112.252471 
L 324.818346 81.014697 
L 324.818346 81.014697 
L 325.515528 74.058057 
L 325.515528 74.058057 
L 326.21271 68.864631 
L 326.21271 68.864631 
L 326.909893 64.987551 
L 326.909893 64.987551 
L 327.607075 62.093173 
L 327.607075 62.093173 
L 328.304257 59.932374 
L 328.304257 59.932374 
L 329.001439 58.319256 
L 329.001439 58.319256 
L 329.931016 56.785707 
L 329.931016 56.785707 
L 330.860592 55.747134 
L 330.860592 55.747134 
L 331.557774 55.194805 
L 331.557774 55.194805 
L 332.022563 55.063859 
L 332.022563 55.063859 
L 332.254957 55.526202 
L 332.254957 55.526202 
L 332.487351 56.96139 
L 332.487351 56.96139 
L 332.952139 63.171632 
L 332.952139 63.171632 
L 333.649321 73.571609 
L 333.649321 73.571609 
L 335.740868 121.604478 
L 335.740868 121.604478 
L 336.43805 131.952158 
L 336.43805 131.952158 
L 337.135233 139.744212 
L 337.135233 139.744212 
L 337.832415 145.098204 
L 337.832415 145.098204 
L 338.297203 147.552557 
L 338.297203 147.552557 
L 338.761991 149.379457 
L 338.761991 149.379457 
L 339.459174 151.017701 
L 339.459174 151.017701 
L 340.156356 151.688872 
L 340.156356 151.688872 
L 340.621144 151.806028 
L 340.621144 151.806028 
L 342.015509 151.884575 
L 342.015509 151.884575 
L 342.712691 151.683867 
L 342.712691 151.683867 
L 343.409873 151.138075 
L 343.409873 151.138075 
L 344.107055 150.206904 
L 344.107055 150.206904 
L 344.571844 149.306783 
L 344.571844 149.306783 
L 345.733814 146.259908 
L 345.733814 146.259908 
L 346.198602 145.103617 
L 346.198602 145.103617 
L 346.66339 144.593013 
L 346.66339 144.593013 
L 346.895784 145.243245 
L 346.895784 145.243245 
L 347.360573 147.60133 
L 347.360573 147.60133 
L 348.522543 162.356612 
L 348.522543 162.356612 
L 351.078878 222.230978 
L 351.078878 222.230978 
L 352.008454 237.718 
L 352.008454 237.718 
L 352.938031 250.546591 
L 352.938031 250.546591 
L 353.635213 257.149567 
L 353.635213 257.149567 
L 354.564789 266.376604 
L 354.564789 266.376604 
L 355.261972 270.99717 
L 355.261972 270.99717 
L 355.959154 275.371423 
L 355.959154 275.371423 
L 356.88873 279.590523 
L 356.88873 279.590523 
L 357.585913 281.610673 
L 357.585913 281.610673 
L 358.283095 282.968642 
L 358.283095 282.968642 
L 358.747883 283.407901 
L 358.747883 283.407901 
L 359.677459 283.824025 
L 359.677459 283.824025 
L 361.071824 283.831328 
L 361.071824 283.831328 
L 362.0014 283.573472 
L 362.0014 283.573472 
L 362.466189 283.234976 
L 362.466189 283.234976 
L 363.395765 282.059278 
L 363.395765 282.059278 
L 364.325341 279.845365 
L 364.325341 279.845365 
L 365.022524 277.436567 
L 365.022524 277.436567 
L 365.719706 274.561544 
L 365.719706 274.561544 
L 366.881676 268.24293 
L 366.881676 268.24293 
L 368.740829 255.321442 
L 368.740829 255.321442 
L 370.599982 238.765102 
L 370.599982 238.765102 
L 371.761952 226.820391 
L 371.761952 226.820391 
L 373.621105 207.442091 
L 373.621105 207.442091 
L 374.085893 204.335259 
L 374.085893 204.335259 
L 374.550681 202.248717 
L 374.550681 202.248717 
L 375.01547 200.877827 
L 375.01547 200.877827 
L 375.480258 200.013712 
L 375.480258 200.013712 
L 375.945046 199.504282 
L 375.945046 199.504282 
L 376.642228 199.067015 
L 376.642228 199.067015 
L 378.036593 198.497373 
L 378.036593 198.497373 
L 378.966169 198.085641 
L 378.966169 198.085641 
L 379.430957 197.629121 
L 379.430957 197.629121 
L 380.12814 196.557914 
L 380.12814 196.557914 
L 380.592928 195.484357 
L 380.592928 195.484357 
L 381.29011 193.130256 
L 381.29011 193.130256 
L 381.987292 189.778131 
L 381.987292 189.778131 
L 382.684475 185.34622 
L 382.684475 185.34622 
L 383.381657 179.756282 
L 383.381657 179.756282 
L 384.311233 169.193951 
L 384.311233 169.193951 
L 385.473204 153.227171 
L 385.473204 153.227171 
L 390.35348 79.304954 
L 390.35348 79.304954 
L 391.050662 72.781699 
L 391.050662 72.781699 
L 391.747844 67.911755 
L 391.747844 67.911755 
L 392.445026 64.276188 
L 392.445026 64.276188 
L 393.142209 61.562089 
L 393.142209 61.562089 
L 393.839391 59.535912 
L 393.839391 59.535912 
L 394.536573 58.023302 
L 394.536573 58.023302 
L 395.46615 56.585254 
L 395.46615 56.585254 
L 396.395726 55.611388 
L 396.395726 55.611388 
L 397.325302 54.959216 
L 397.325302 54.959216 
L 398.254879 54.527618 
L 398.254879 54.527618 
L 398.487273 54.449684 
L 398.487273 54.449684 
" clip-path="url(#p9f21b7d500)" style="fill: none; stroke: #1f77b4; stroke-width: 1.5; stroke-linecap: square"/>
   </g>
   <g id="line2d_24">
    <path d="M 73.832727 53.568 
L 87.311585 53.568 
L 87.311585 53.568 
L 87.776373 60.843117 
L 87.776373 60.843117 
L 88.008767 60.25085 
L 88.008767 60.25085 
L 89.170737 73.374834 
L 89.170737 73.374834 
L 89.403131 75.588032 
L 89.403131 75.588032 
L 89.86792 83.12366 
L 89.86792 83.12366 
L 90.100314 83.321507 
L 90.100314 83.321507 
L 90.565102 88.992597 
L 90.565102 88.992597 
L 90.797496 93.264504 
L 90.797496 93.264504 
L 91.02989 93.585738 
L 91.494678 99.095394 
L 91.494678 99.095394 
L 91.727072 102.872273 
L 91.727072 102.872273 
L 91.959466 103.133091 
L 91.959466 103.133091 
L 92.656649 112.908524 
L 92.656649 112.908524 
L 92.889043 112.514974 
L 92.889043 112.514974 
L 93.121437 114.596767 
L 93.121437 114.596767 
L 93.353831 118.022382 
L 93.353831 118.022382 
L 93.586225 118.307663 
L 93.586225 118.307663 
L 93.818619 119.917103 
L 93.818619 119.917103 
L 94.051013 122.535036 
L 94.051013 122.535036 
L 94.283407 122.828488 
L 94.283407 122.828488 
L 94.748195 126.259772 
L 94.748195 126.259772 
L 94.98059 126.6141 
L 94.98059 126.6141 
L 95.445378 129.076472 
L 95.445378 129.076472 
L 96.607348 131.602784 
L 96.607348 131.602784 
L 97.072136 132.239533 
L 97.072136 132.239533 
L 97.536925 132.331 
L 97.536925 132.331 
L 97.769319 132.541667 
L 97.769319 132.541667 
L 98.234107 132.355208 
L 98.234107 132.355208 
L 98.466501 132.555047 
L 98.466501 132.555047 
L 98.931289 132.307814 
L 98.931289 132.307814 
L 99.163683 132.511586 
L 99.163683 132.511586 
L 99.396077 132.32574 
L 99.396077 132.32574 
L 99.628471 131.930811 
L 99.628471 131.930811 
L 99.860865 132.201587 
L 99.860865 132.201587 
L 100.09326 131.708143 
L 100.09326 131.708143 
L 100.325654 131.782399 
L 100.325654 131.782399 
L 100.558048 131.235433 
L 100.558048 131.235433 
L 100.790442 130.11004 
L 100.790442 130.11004 
L 101.022836 130.1773 
L 101.022836 130.1773 
L 101.25523 129.1732 
L 101.25523 129.1732 
L 101.487624 127.142477 
L 101.487624 127.142477 
L 101.720018 127.368567 
L 101.720018 127.368567 
L 101.952412 125.729301 
L 102.184806 122.536211 
L 102.184806 122.536211 
L 102.4172 123.136802 
L 102.4172 123.136802 
L 102.649595 120.583575 
L 102.649595 120.583575 
L 102.881989 115.973989 
L 102.881989 115.973989 
L 103.114383 117.319088 
L 103.114383 117.319088 
L 103.346777 113.545988 
L 103.346777 113.545988 
L 103.579171 112.488417 
L 103.579171 112.488417 
L 103.811565 109.797351 
L 103.811565 109.797351 
L 104.043959 104.628848 
L 104.043959 104.628848 
L 104.276353 103.897159 
L 104.276353 103.897159 
L 104.508747 100.336002 
L 104.508747 100.336002 
L 104.741141 94.231425 
L 104.741141 94.231425 
L 104.973535 93.587883 
L 104.973535 93.587883 
L 105.20593 89.418373 
L 105.20593 89.418373 
L 105.438324 82.256735 
L 105.438324 82.256735 
L 105.670718 81.07874 
L 105.670718 81.07874 
L 105.903112 76.785485 
L 105.903112 76.785485 
L 106.135506 68.785369 
L 106.135506 68.785369 
L 106.3679 67.234456 
L 106.3679 67.234456 
L 106.600294 62.389689 
L 106.600294 62.389689 
L 106.832688 54.620719 
L 106.832688 54.620719 
L 107.065082 53.568 
L 107.065082 53.568 
L 131.001674 53.568 
L 131.001674 53.568 
L 131.234068 53.933921 
L 131.234068 53.933921 
L 131.466462 60.246152 
L 131.466462 60.246152 
L 131.698856 59.660116 
L 131.698856 59.660116 
L 132.163644 73.419214 
L 132.163644 73.419214 
L 132.628432 91.39782 
L 132.628432 91.39782 
L 132.860826 90.534982 
L 132.860826 90.534982 
L 133.325615 103.432671 
L 133.325615 103.432671 
L 133.558009 111.636508 
L 133.558009 111.636508 
L 133.790403 112.073877 
L 133.790403 112.073877 
L 134.255191 122.732271 
L 134.255191 122.732271 
L 134.487585 130.414676 
L 134.487585 130.414676 
L 134.719979 130.008409 
L 134.719979 130.008409 
L 134.952373 133.964138 
L 134.952373 133.964138 
L 135.184767 141.178685 
L 135.184767 141.178685 
L 135.417161 141.606095 
L 135.417161 141.606095 
L 135.649556 144.952602 
L 135.649556 144.952602 
L 135.88195 150.843193 
L 135.88195 150.843193 
L 136.114344 151.858069 
L 136.114344 151.858069 
L 136.346738 154.468545 
L 136.346738 154.468545 
L 136.579132 160.007413 
L 136.579132 160.007413 
L 136.811526 160.147551 
L 136.811526 160.147551 
L 137.276314 168.139495 
L 137.276314 168.139495 
L 137.508708 167.317564 
L 137.508708 167.317564 
L 137.741102 170.733629 
L 138.205891 173.297427 
L 138.205891 173.297427 
L 138.438285 177.372661 
L 138.438285 177.372661 
L 138.670679 176.768546 
L 138.670679 176.768546 
L 138.903073 179.762768 
L 138.903073 179.762768 
L 139.135467 179.860466 
L 139.135467 179.860466 
L 139.600255 182.617821 
L 139.600255 182.617821 
L 139.832649 183.952502 
L 139.832649 183.952502 
L 140.065043 186.480959 
L 140.065043 186.480959 
L 140.297437 186.307165 
L 140.529831 188.145505 
L 140.529831 188.145505 
L 140.762226 188.408927 
L 140.762226 188.408927 
L 140.99462 190.051053 
L 140.99462 190.051053 
L 141.227014 190.42586 
L 141.227014 190.42586 
L 141.459408 191.670912 
L 141.459408 191.670912 
L 141.691802 193.619104 
L 141.691802 193.619104 
L 141.924196 193.352822 
L 141.924196 193.352822 
L 142.15659 195.321187 
L 142.15659 195.321187 
L 142.388984 195.243406 
L 142.388984 195.243406 
L 142.621378 196.640035 
L 142.621378 196.640035 
L 142.853772 196.756579 
L 142.853772 196.756579 
L 143.086166 197.711038 
L 143.086166 197.711038 
L 143.318561 197.962408 
L 143.318561 197.962408 
L 143.550955 198.951544 
L 143.550955 198.951544 
L 143.783349 199.071867 
L 143.783349 199.071867 
L 144.015743 200.206657 
L 144.015743 200.206657 
L 144.248137 200.358898 
L 144.248137 200.358898 
L 144.480531 200.997639 
L 144.480531 200.997639 
L 144.712925 201.13318 
L 144.945319 201.621722 
L 144.945319 201.621722 
L 145.177713 201.695315 
L 145.177713 201.695315 
L 145.410107 202.093411 
L 145.410107 202.093411 
L 145.642501 201.709768 
L 145.642501 201.709768 
L 145.874896 202.386454 
L 145.874896 202.386454 
L 146.10729 202.128752 
L 146.10729 202.128752 
L 146.339684 202.535121 
L 146.339684 202.535121 
L 146.572078 202.396362 
L 146.804472 202.588081 
L 146.804472 202.588081 
L 147.036866 202.118486 
L 147.036866 202.118486 
L 147.734048 202.599827 
L 147.734048 202.599827 
L 147.966442 202.11961 
L 148.198836 202.303362 
L 148.198836 202.303362 
L 148.431231 202.339673 
L 148.431231 202.339673 
L 148.663625 202.524549 
L 148.663625 202.524549 
L 148.896019 201.855575 
L 148.896019 201.855575 
L 149.128413 202.044894 
L 149.128413 202.044894 
L 149.360807 201.801082 
L 149.360807 201.801082 
L 149.593201 201.981004 
L 149.593201 201.981004 
L 149.825595 200.933137 
L 149.825595 200.933137 
L 150.057989 201.097993 
L 150.057989 201.097993 
L 150.290383 200.356294 
L 150.290383 200.356294 
L 150.522777 200.488464 
L 150.522777 200.488464 
L 150.755171 198.797209 
L 150.755171 198.797209 
L 150.987566 198.867584 
L 150.987566 198.867584 
L 151.21996 197.383267 
L 151.21996 197.383267 
L 151.452354 197.355382 
L 151.452354 197.355382 
L 151.684748 194.746744 
L 151.684748 194.746744 
L 151.917142 194.569937 
L 151.917142 194.569937 
L 152.149536 192.171098 
L 152.149536 192.171098 
L 152.38193 191.77433 
L 152.38193 191.77433 
L 152.614324 188.134422 
L 152.614324 188.134422 
L 152.846718 187.45268 
L 152.846718 187.45268 
L 153.079112 184.086767 
L 153.079112 184.086767 
L 153.311506 182.964387 
L 153.311506 182.964387 
L 153.543901 178.52982 
L 153.543901 178.52982 
L 153.776295 176.624578 
L 153.776295 176.624578 
L 154.938265 156.943123 
L 154.938265 156.943123 
L 155.170659 142.07426 
L 155.170659 142.07426 
L 155.403053 146.172271 
L 155.403053 146.172271 
L 155.635447 137.554711 
L 155.635447 137.554711 
L 155.867841 137.198953 
L 156.100236 141.532298 
L 156.100236 141.532298 
L 156.33263 142.112205 
L 156.33263 142.112205 
L 156.565024 147.386731 
L 156.565024 147.386731 
L 156.797418 148.89209 
L 156.797418 148.89209 
L 157.029812 152.189058 
L 157.029812 152.189058 
L 157.262206 157.636407 
L 157.262206 157.636407 
L 157.4946 157.004561 
L 157.4946 157.004561 
L 157.726994 160.36598 
L 157.726994 160.36598 
L 157.959388 160.944764 
L 157.959388 160.944764 
L 158.424176 165.003247 
L 158.424176 165.003247 
L 158.656571 164.771794 
L 158.656571 164.771794 
L 158.888965 166.216532 
L 158.888965 166.216532 
L 159.121359 166.390581 
L 159.121359 166.390581 
L 159.818541 167.895327 
L 159.818541 167.895327 
L 160.050935 167.822193 
L 160.050935 167.822193 
L 160.515723 168.229278 
L 160.515723 168.229278 
L 160.748117 167.923926 
L 160.748117 167.923926 
L 160.980511 168.401999 
L 160.980511 168.401999 
L 161.212906 167.968715 
L 161.212906 167.968715 
L 161.4453 168.4474 
L 162.142482 168.049407 
L 162.142482 168.049407 
L 162.374876 167.710298 
L 162.60727 167.933272 
L 162.60727 167.933272 
L 162.839664 167.470623 
L 162.839664 167.470623 
L 163.072058 167.6031 
L 163.072058 167.6031 
L 163.769241 166.562791 
L 163.769241 166.562791 
L 164.001635 164.663831 
L 164.001635 164.663831 
L 164.234029 165.034655 
L 164.234029 165.034655 
L 164.466423 163.67449 
L 164.466423 163.67449 
L 164.698817 163.245037 
L 164.698817 163.245037 
L 164.931211 162.11418 
L 164.931211 162.11418 
L 165.163605 158.326627 
L 165.163605 158.326627 
L 165.395999 159.731836 
L 165.395999 159.731836 
L 165.628393 156.001329 
L 165.628393 156.001329 
L 165.860787 156.615249 
L 165.860787 156.615249 
L 166.093181 153.710657 
L 166.093181 153.710657 
L 166.325576 152.667437 
L 166.325576 152.667437 
L 166.55797 150.829557 
L 166.55797 150.829557 
L 166.790364 144.945707 
L 166.790364 144.945707 
L 167.022758 146.019876 
L 167.022758 146.019876 
L 167.255152 141.716765 
L 167.255152 141.716765 
L 167.487546 141.030478 
L 167.487546 141.030478 
L 167.71994 137.682439 
L 167.71994 137.682439 
L 167.952334 130.627845 
L 167.952334 130.627845 
L 168.184728 132.331409 
L 168.184728 132.331409 
L 168.417122 126.241029 
L 168.417122 126.241029 
L 168.649516 126.1323 
L 168.649516 126.1323 
L 168.881911 121.8488 
L 168.881911 121.8488 
L 169.114305 113.468105 
L 169.114305 113.468105 
L 169.346699 115.423448 
L 169.346699 115.423448 
L 169.579093 108.481209 
L 169.579093 108.481209 
L 169.811487 107.631496 
L 169.811487 107.631496 
L 170.043881 103.000205 
L 170.043881 103.000205 
L 170.276275 93.711321 
L 170.276275 93.711321 
L 170.508669 94.386067 
L 170.508669 94.386067 
L 170.741063 87.956986 
L 170.741063 87.956986 
L 170.973457 86.737113 
L 170.973457 86.737113 
L 171.205851 86.597077 
L 171.438246 92.423013 
L 171.438246 92.423013 
L 171.67064 104.025908 
L 171.67064 104.025908 
L 171.903034 102.494758 
L 171.903034 102.494758 
L 172.367822 123.43056 
L 172.367822 123.43056 
L 172.600216 122.286986 
L 172.600216 122.286986 
L 172.83261 130.215603 
L 172.83261 130.215603 
L 173.065004 142.657691 
L 173.065004 142.657691 
L 173.297398 142.252649 
L 173.297398 142.252649 
L 173.529792 148.881416 
L 173.762187 161.485398 
L 173.762187 161.485398 
L 173.994581 160.81244 
L 173.994581 160.81244 
L 174.226975 166.551658 
L 174.226975 166.551658 
L 174.459369 178.739516 
L 174.459369 178.739516 
L 174.691763 177.129922 
L 174.924157 184.420309 
L 174.924157 184.420309 
L 175.156551 187.040285 
L 175.156551 187.040285 
L 175.388945 191.785923 
L 175.388945 191.785923 
L 175.621339 201.303041 
L 175.621339 201.303041 
L 175.853733 200.563334 
L 175.853733 200.563334 
L 176.086127 207.59801 
L 176.086127 207.59801 
L 176.318522 208.55584 
L 176.318522 208.55584 
L 176.550916 214.034087 
L 176.550916 214.034087 
L 176.78331 215.971299 
L 176.78331 215.971299 
L 177.015704 220.581243 
L 177.015704 220.581243 
L 177.248098 222.860015 
L 177.248098 222.860015 
L 177.94528 232.833756 
L 177.94528 232.833756 
L 178.642462 240.452272 
L 178.642462 240.452272 
L 178.874857 244.161993 
L 178.874857 244.161993 
L 179.107251 245.502751 
L 179.107251 245.502751 
L 179.339645 249.278864 
L 179.339645 249.278864 
L 179.572039 249.746774 
L 179.572039 249.746774 
L 179.804433 253.932116 
L 179.804433 253.932116 
L 180.036827 253.497096 
L 180.036827 253.497096 
L 180.269221 258.117407 
L 180.269221 258.117407 
L 180.501615 256.803716 
L 180.501615 256.803716 
L 181.431192 263.420737 
L 181.431192 263.420737 
L 181.663586 263.347144 
L 181.663586 263.347144 
L 181.89598 265.916508 
L 181.89598 265.916508 
L 182.128374 265.214849 
L 182.128374 265.214849 
L 182.593162 267.205685 
L 182.593162 267.205685 
L 182.825556 267.438669 
L 182.825556 267.438669 
L 183.05795 268.624275 
L 183.05795 268.624275 
L 183.290344 268.696846 
L 183.290344 268.696846 
L 184.452315 270.13857 
L 184.452315 270.13857 
L 184.684709 270.128612 
L 184.684709 270.128612 
L 184.917103 270.335397 
L 184.917103 270.335397 
L 185.381891 270.09179 
L 185.381891 270.09179 
L 185.614285 270.193931 
L 185.614285 270.193931 
L 185.846679 270.036429 
L 185.846679 270.036429 
L 186.311467 270.246789 
L 186.311467 270.246789 
L 186.543862 270.069012 
L 186.543862 270.069012 
L 186.776256 270.177997 
L 186.776256 270.177997 
L 187.00865 269.872799 
L 187.241044 270.293366 
L 187.241044 270.293366 
L 187.473438 270.065897 
L 187.473438 270.065897 
L 187.705832 269.650897 
L 187.705832 269.650897 
L 187.938226 269.65963 
L 187.938226 269.65963 
L 188.17062 268.802051 
L 188.17062 268.802051 
L 188.403014 269.262607 
L 188.403014 269.262607 
L 188.635408 267.348121 
L 188.635408 267.348121 
L 188.867802 267.976341 
L 188.867802 267.976341 
L 189.100197 267.635955 
L 189.100197 267.635955 
L 189.332591 265.97381 
L 189.332591 265.97381 
L 189.564985 266.084991 
L 189.564985 266.084991 
L 189.797379 263.069013 
L 189.797379 263.069013 
L 190.029773 264.084655 
L 190.029773 264.084655 
L 190.262167 263.165486 
L 190.262167 263.165486 
L 190.494561 260.536368 
L 190.494561 260.536368 
L 190.726955 260.377794 
L 190.959349 255.721529 
L 190.959349 255.721529 
L 191.191743 257.045127 
L 191.191743 257.045127 
L 191.424137 255.477258 
L 191.424137 255.477258 
L 191.656532 251.635315 
L 191.656532 251.635315 
L 191.888926 251.175015 
L 191.888926 251.175015 
L 192.12132 244.523369 
L 192.12132 244.523369 
L 192.353714 246.175301 
L 192.353714 246.175301 
L 192.586108 243.76451 
L 192.586108 243.76451 
L 192.818502 238.702898 
L 192.818502 238.702898 
L 193.050896 237.531286 
L 193.050896 237.531286 
L 193.28329 228.595045 
L 193.28329 228.595045 
L 193.515684 230.192127 
L 193.515684 230.192127 
L 193.748078 226.948119 
L 193.748078 226.948119 
L 193.980472 220.411739 
L 193.980472 220.411739 
L 194.212867 218.281991 
L 194.212867 218.281991 
L 194.445261 220.127276 
L 194.445261 220.127276 
L 194.677655 219.78689 
L 194.677655 219.78689 
L 194.910049 233.542106 
L 195.142443 228.557764 
L 195.142443 228.557764 
L 196.072019 253.973636 
L 196.072019 253.973636 
L 196.304413 253.137252 
L 196.536807 263.804941 
L 196.536807 263.804941 
L 196.769202 260.761028 
L 196.769202 260.761028 
L 197.698778 275.933047 
L 197.698778 275.933047 
L 197.931172 275.200438 
L 197.931172 275.200438 
L 198.163566 282.301149 
L 198.163566 282.301149 
L 198.39596 280.311742 
L 198.39596 280.311742 
L 198.628354 281.527428 
L 198.628354 281.527428 
L 198.860748 285.325961 
L 198.860748 285.325961 
L 199.093142 285.048648 
L 199.093142 285.048648 
L 199.325537 286.307284 
L 199.325537 286.307284 
L 199.557931 288.477123 
L 199.557931 288.477123 
L 199.790325 288.710771 
L 199.790325 288.710771 
L 200.022719 291.37814 
L 200.022719 291.37814 
L 200.255113 290.744762 
L 200.255113 290.744762 
L 200.487507 291.548818 
L 200.487507 291.548818 
L 200.719901 293.231086 
L 200.719901 293.231086 
L 200.952295 293.113623 
L 200.952295 293.113623 
L 201.184689 293.471271 
L 201.184689 293.471271 
L 201.417083 294.15475 
L 201.417083 294.15475 
L 201.649477 294.259444 
L 201.649477 294.259444 
L 201.881872 294.889197 
L 202.114266 294.85881 
L 202.114266 294.85881 
L 202.579054 295.123356 
L 202.579054 295.123356 
L 202.811448 295.402814 
L 202.811448 295.402814 
L 203.043842 295.488 
L 203.043842 295.488 
L 203.276236 295.219777 
L 203.276236 295.219777 
L 203.973418 295.481974 
L 203.973418 295.481974 
L 205.135389 294.824082 
L 205.135389 294.824082 
L 205.367783 294.291721 
L 205.367783 294.291721 
L 205.600177 294.195504 
L 205.600177 294.195504 
L 205.832571 293.429393 
L 205.832571 293.429393 
L 206.064965 293.516571 
L 206.064965 293.516571 
L 206.529753 292.184239 
L 206.529753 292.184239 
L 206.762147 291.470782 
L 206.762147 291.470782 
L 206.994542 289.371932 
L 206.994542 289.371932 
L 207.226936 289.680092 
L 207.45933 288.928587 
L 207.45933 288.928587 
L 207.691724 286.76738 
L 207.691724 286.76738 
L 207.924118 286.925545 
L 207.924118 286.925545 
L 208.156512 285.601079 
L 208.156512 285.601079 
L 208.388906 282.709152 
L 208.388906 282.709152 
L 208.6213 282.69281 
L 208.6213 282.69281 
L 208.853694 276.101478 
L 208.853694 276.101478 
L 209.086088 278.298691 
L 209.086088 278.298691 
L 209.318482 277.856112 
L 209.318482 277.856112 
L 209.550877 269.904258 
L 209.550877 269.904258 
L 209.783271 272.520353 
L 209.783271 272.520353 
L 210.015665 271.351294 
L 210.015665 271.351294 
L 210.248059 262.387271 
L 210.248059 262.387271 
L 210.480453 265.247943 
L 210.480453 265.247943 
L 210.712847 262.894607 
L 210.712847 262.894607 
L 210.945241 253.419724 
L 210.945241 253.419724 
L 211.177635 256.19664 
L 211.177635 256.19664 
L 211.410029 252.673837 
L 211.410029 252.673837 
L 211.642423 242.822972 
L 211.642423 242.822972 
L 211.874817 244.6608 
L 211.874817 244.6608 
L 212.107212 240.017405 
L 212.107212 240.017405 
L 212.339606 230.705591 
L 212.339606 230.705591 
L 212.572 229.468711 
L 212.572 229.468711 
L 212.804394 231.938947 
L 212.804394 231.938947 
L 213.036788 228.025607 
L 213.036788 228.025607 
L 213.269182 232.011723 
L 213.269182 232.011723 
L 213.501576 240.611357 
L 213.501576 240.611357 
L 213.73397 239.992738 
L 213.73397 239.992738 
L 213.966364 250.416463 
L 213.966364 250.416463 
L 214.198758 247.734845 
L 214.198758 247.734845 
L 214.431152 250.134349 
L 214.431152 250.134349 
L 214.663547 255.544416 
L 214.663547 255.544416 
L 214.895941 255.502385 
L 214.895941 255.502385 
L 215.128335 261.747662 
L 215.128335 261.747662 
L 215.360729 260.068459 
L 215.360729 260.068459 
L 215.825517 264.912 
L 215.825517 264.912 
L 216.057911 265.670297 
L 216.057911 265.670297 
L 216.290305 268.994843 
L 216.290305 268.994843 
L 216.522699 268.587912 
L 216.755093 272.44533 
L 216.755093 272.44533 
L 216.987487 271.497305 
L 216.987487 271.497305 
L 217.219882 272.202438 
L 217.219882 272.202438 
L 217.452276 273.965499 
L 217.452276 273.965499 
L 217.68467 274.000738 
L 217.68467 274.000738 
L 217.917064 275.927787 
L 217.917064 275.927787 
L 218.149458 275.710379 
L 218.149458 275.710379 
L 218.381852 276.136002 
L 218.381852 276.136002 
L 218.614246 277.049911 
L 218.614246 277.049911 
L 218.84664 277.091329 
L 219.079034 277.881494 
L 219.079034 277.881494 
L 219.311428 277.788852 
L 219.311428 277.788852 
L 219.776217 278.343224 
L 219.776217 278.343224 
L 220.938187 278.997797 
L 220.938187 278.997797 
L 221.402975 278.703528 
L 221.402975 278.703528 
L 221.635369 278.80669 
L 221.635369 278.80669 
L 221.867763 278.646328 
L 221.867763 278.646328 
L 222.100157 279.012709 
L 222.100157 279.012709 
L 222.564946 278.654193 
L 222.564946 278.654193 
L 222.79734 278.757662 
L 222.79734 278.757662 
L 223.029734 278.3731 
L 223.029734 278.3731 
L 223.262128 278.572123 
L 223.262128 278.572123 
L 223.494522 278.572378 
L 223.726916 278.041907 
L 223.726916 278.041907 
L 223.95931 278.136184 
L 223.95931 278.136184 
L 224.191704 277.02504 
L 224.191704 277.02504 
L 224.424098 277.469967 
L 224.424098 277.469967 
L 224.656492 277.270332 
L 224.656492 277.270332 
L 224.888887 276.022165 
L 224.888887 276.022165 
L 225.121281 276.307956 
L 225.121281 276.307956 
L 225.353675 275.924416 
L 225.353675 275.924416 
L 225.586069 274.73927 
L 225.586069 274.73927 
L 225.818463 274.577478 
L 225.818463 274.577478 
L 226.050857 272.304885 
L 226.050857 272.304885 
L 226.283251 273.209449 
L 226.283251 273.209449 
L 226.515645 272.255858 
L 226.515645 272.255858 
L 226.748039 270.326255 
L 226.748039 270.326255 
L 226.980433 270.201847 
L 226.980433 270.201847 
L 227.212827 266.857077 
L 227.212827 266.857077 
L 227.445222 267.893658 
L 227.445222 267.893658 
L 227.677616 266.892315 
L 227.677616 266.892315 
L 227.91001 264.448023 
L 227.91001 264.448023 
L 228.142404 264.202016 
L 228.142404 264.202016 
L 228.374798 259.854677 
L 228.374798 259.854677 
L 228.607192 261.294512 
L 228.607192 261.294512 
L 228.839586 260.027705 
L 228.839586 260.027705 
L 229.07198 256.664549 
L 229.07198 256.664549 
L 229.304374 256.800908 
L 229.304374 256.800908 
L 229.536768 251.63746 
L 229.536768 251.63746 
L 229.769162 253.304917 
L 229.769162 253.304917 
L 230.001557 251.869423 
L 230.001557 251.869423 
L 230.233951 248.024518 
L 230.233951 248.024518 
L 230.466345 248.16583 
L 230.466345 248.16583 
L 230.698739 242.394132 
L 230.698739 242.394132 
L 230.931133 244.551101 
L 230.931133 244.551101 
L 231.163527 242.549131 
L 231.163527 242.549131 
L 231.395921 238.415166 
L 231.395921 238.415166 
L 231.628315 238.411387 
L 231.628315 238.411387 
L 231.860709 232.2205 
L 231.860709 232.2205 
L 232.093103 234.376754 
L 232.093103 234.376754 
L 232.325497 232.098135 
L 232.325497 232.098135 
L 232.557892 227.914835 
L 232.557892 227.914835 
L 232.790286 227.469346 
L 232.790286 227.469346 
L 233.02268 221.161763 
L 233.02268 221.161763 
L 233.255074 222.585153 
L 233.255074 222.585153 
L 233.487468 214.013352 
L 233.487468 214.013352 
L 233.719862 216.605903 
L 233.719862 216.605903 
L 233.952256 214.901165 
L 234.18465 209.263833 
L 234.18465 209.263833 
L 234.417044 209.154133 
L 234.417044 209.154133 
L 234.649438 201.480052 
L 234.649438 201.480052 
L 234.881832 202.949968 
L 234.881832 202.949968 
L 235.114227 193.587849 
L 235.114227 193.587849 
L 235.346621 196.074326 
L 235.346621 196.074326 
L 236.043803 186.197568 
L 236.043803 186.197568 
L 236.276197 180.534598 
L 236.276197 180.534598 
L 236.508591 178.476553 
L 236.508591 178.476553 
L 236.740985 172.224841 
L 236.740985 172.224841 
L 236.973379 171.056651 
L 236.973379 171.056651 
L 237.205773 164.389326 
L 237.438168 163.481699 
L 237.438168 163.481699 
L 237.670562 156.018438 
L 237.670562 156.018438 
L 237.902956 155.206057 
L 237.902956 155.206057 
L 238.13535 148.605021 
L 238.13535 148.605021 
L 238.367744 147.178516 
L 238.367744 147.178516 
L 238.600138 141.574227 
L 238.600138 141.574227 
L 238.832532 139.020592 
L 238.832532 139.020592 
L 239.529714 127.561052 
L 239.529714 127.561052 
L 244.40999 53.568 
L 244.40999 53.568 
L 282.522621 53.568 
L 282.522621 53.568 
L 282.755015 55.000379 
L 282.755015 55.000379 
L 283.219803 72.312973 
L 283.219803 72.312973 
L 283.452198 72.139077 
L 283.452198 72.139077 
L 284.14938 88.28869 
L 284.14938 88.28869 
L 284.381774 89.308316 
L 284.381774 89.308316 
L 285.31135 101.709854 
L 285.31135 101.709854 
L 285.543744 101.609091 
L 285.543744 101.609091 
L 286.008533 104.873732 
L 286.008533 104.873732 
L 286.240927 105.543523 
L 286.240927 105.543523 
L 286.473321 105.706541 
L 286.473321 105.706541 
L 286.705715 106.314333 
L 286.938109 106.475767 
L 287.170503 106.37955 
L 287.170503 106.37955 
L 287.402897 106.602218 
L 287.402897 106.602218 
L 287.867685 106.311932 
L 287.867685 106.311932 
L 288.100079 106.593383 
L 288.100079 106.593383 
L 288.332473 106.266939 
L 288.332473 106.266939 
L 288.564868 105.252063 
L 288.564868 105.252063 
L 288.797262 105.536833 
L 288.797262 105.536833 
L 289.029656 104.563069 
L 289.029656 104.563069 
L 289.26205 101.917354 
L 289.26205 101.917354 
L 289.494444 101.955657 
L 289.494444 101.955657 
L 289.726838 100.486405 
L 289.726838 100.486405 
L 289.959232 97.184279 
L 289.959232 97.184279 
L 290.191626 96.711007 
L 290.42402 94.464256 
L 290.42402 94.464256 
L 290.656414 90.552039 
L 290.656414 90.552039 
L 290.888808 84.744131 
L 290.888808 84.744131 
L 291.121203 86.244485 
L 291.121203 86.244485 
L 291.353597 82.27364 
L 291.353597 82.27364 
L 291.585991 75.161336 
L 291.818385 76.019681 
L 291.818385 76.019681 
L 292.050779 72.479412 
L 292.050779 72.479412 
L 292.283173 65.607753 
L 292.283173 65.607753 
L 292.515567 64.87111 
L 292.515567 64.87111 
L 292.747961 60.599612 
L 292.747961 60.599612 
L 292.980355 54.134374 
L 292.980355 54.134374 
L 293.212749 53.568 
L 293.212749 53.568 
L 295.769084 53.568 
L 295.769084 53.568 
L 296.001478 54.236106 
L 296.001478 54.236106 
L 296.233873 54.049545 
L 296.233873 54.049545 
L 296.698661 60.007856 
L 296.698661 60.007856 
L 297.163449 68.849565 
L 297.163449 68.849565 
L 297.395843 68.741857 
L 297.395843 68.741857 
L 297.860631 75.527257 
L 297.860631 75.527257 
L 298.093025 80.008503 
L 298.093025 80.008503 
L 298.325419 80.371411 
L 298.325419 80.371411 
L 298.790208 85.962167 
L 298.790208 85.962167 
L 299.254996 94.688303 
L 299.254996 94.688303 
L 299.48739 94.444798 
L 299.48739 94.444798 
L 299.952178 101.790903 
L 299.952178 101.790903 
L 300.184572 106.105811 
L 300.184572 106.105811 
L 300.416966 105.62447 
L 300.416966 105.62447 
L 300.64936 108.892328 
L 300.64936 108.892328 
L 300.881754 113.848122 
L 300.881754 113.848122 
L 301.114149 114.516024 
L 301.114149 114.516024 
L 301.578937 122.250981 
L 301.578937 122.250981 
L 301.811331 128.098265 
L 301.811331 128.098265 
L 302.043725 127.055197 
L 302.043725 127.055197 
L 302.508513 136.536107 
L 302.508513 136.536107 
L 302.740907 136.263645 
L 302.740907 136.263645 
L 302.973301 139.707084 
L 302.973301 139.707084 
L 303.205695 145.869218 
L 303.205695 145.869218 
L 303.438089 145.014806 
L 303.438089 145.014806 
L 303.670484 148.478366 
L 303.670484 148.478366 
L 303.902878 154.049102 
L 303.902878 154.049102 
L 304.135272 153.002511 
L 304.135272 153.002511 
L 304.367666 156.743334 
L 304.367666 156.743334 
L 304.60006 158.182659 
L 304.60006 158.182659 
L 304.832454 160.333448 
L 304.832454 160.333448 
L 305.064848 164.141736 
L 305.064848 164.141736 
L 305.297242 164.227381 
L 305.297242 164.227381 
L 305.76203 170.632663 
L 305.76203 170.632663 
L 305.994424 169.471316 
L 305.994424 169.471316 
L 306.226819 172.343121 
L 306.226819 172.343121 
L 306.459213 172.473555 
L 306.459213 172.473555 
L 306.691607 174.233041 
L 306.691607 174.233041 
L 306.924001 175.015597 
L 307.388789 178.008235 
L 307.388789 178.008235 
L 307.621183 177.958492 
L 307.621183 177.958492 
L 307.853577 179.137969 
L 307.853577 179.137969 
L 308.085971 179.55159 
L 308.085971 179.55159 
L 308.318365 180.469892 
L 308.318365 180.469892 
L 309.015548 181.467761 
L 309.015548 181.467761 
L 309.247942 182.077953 
L 309.247942 182.077953 
L 309.71273 182.451178 
L 309.71273 182.451178 
L 310.177518 182.112324 
L 310.177518 182.112324 
L 310.409912 182.669045 
L 310.409912 182.669045 
L 310.642306 181.872905 
L 310.642306 181.872905 
L 310.8747 182.304809 
L 310.8747 182.304809 
L 311.107094 182.191586 
L 311.107094 182.191586 
L 311.339489 182.527733 
L 311.339489 182.527733 
L 311.571883 182.328966 
L 311.571883 182.328966 
L 311.804277 182.321918 
L 311.804277 182.321918 
L 312.036671 182.136072 
L 312.036671 182.136072 
L 312.269065 181.798444 
L 312.269065 181.798444 
L 312.501459 181.717037 
L 312.501459 181.717037 
L 312.733853 180.261881 
L 312.733853 180.261881 
L 312.966247 181.351576 
L 312.966247 181.351576 
L 313.198641 179.600465 
L 313.431035 180.25994 
L 313.431035 180.25994 
L 313.663429 178.337437 
L 313.663429 178.337437 
L 313.895824 178.48881 
L 313.895824 178.48881 
L 314.128218 176.751233 
L 314.128218 176.751233 
L 314.360612 176.45487 
L 314.360612 176.45487 
L 314.593006 174.520876 
L 314.593006 174.520876 
L 314.8254 173.59905 
L 315.057794 172.024542 
L 315.057794 172.024542 
L 315.290188 167.491971 
L 315.290188 167.491971 
L 315.522582 168.832269 
L 315.522582 168.832269 
L 315.754976 164.270127 
L 315.754976 164.270127 
L 315.98737 164.660052 
L 315.98737 164.660052 
L 316.219764 160.72945 
L 316.219764 160.72945 
L 316.452159 160.186467 
L 316.452159 160.186467 
L 317.149341 153.109198 
L 317.149341 153.109198 
L 317.381735 145.334661 
L 317.381735 145.334661 
L 317.614129 146.891959 
L 317.614129 146.891959 
L 317.846523 140.884109 
L 317.846523 140.884109 
L 318.078917 140.328614 
L 318.078917 140.328614 
L 318.311311 135.653197 
L 318.311311 135.653197 
L 318.543705 133.556185 
L 318.543705 133.556185 
L 318.776099 129.841612 
L 318.776099 129.841612 
L 319.008494 121.513674 
L 319.008494 121.513674 
L 319.240888 122.304503 
L 319.240888 122.304503 
L 319.473282 115.839214 
L 319.473282 115.839214 
L 319.705676 114.371392 
L 319.705676 114.371392 
L 319.93807 110.038813 
L 319.93807 110.038813 
L 320.170464 100.824748 
L 320.170464 100.824748 
L 320.402858 101.104973 
L 320.402858 101.104973 
L 320.867646 88.69225 
L 320.867646 88.69225 
L 321.10004 87.249505 
L 321.10004 87.249505 
L 321.564829 78.536034 
L 321.564829 78.536034 
L 323.191587 53.568 
L 323.191587 53.568 
L 330.628198 53.568 
L 330.628198 53.568 
L 330.860592 54.781541 
L 330.860592 54.781541 
L 331.092986 54.614642 
L 331.092986 54.614642 
L 331.557774 61.403924 
L 331.557774 61.403924 
L 332.022563 73.08225 
L 332.022563 73.08225 
L 332.254957 72.479259 
L 332.254957 72.479259 
L 332.719745 84.317334 
L 332.719745 84.317334 
L 332.952139 93.609742 
L 332.952139 93.609742 
L 333.184533 95.182258 
L 333.184533 95.182258 
L 333.881715 116.166117 
L 333.881715 116.166117 
L 334.114109 124.147286 
L 334.114109 124.147286 
L 334.346504 122.549949 
L 334.346504 122.549949 
L 334.811292 132.77271 
L 334.811292 132.77271 
L 335.043686 132.937209 
L 335.043686 132.937209 
L 335.740868 141.127052 
L 335.740868 141.127052 
L 335.973262 142.700794 
L 335.973262 142.700794 
L 336.205656 145.480264 
L 336.205656 145.480264 
L 336.43805 146.042296 
L 336.43805 146.042296 
L 336.670444 147.156453 
L 336.670444 147.156453 
L 336.902839 148.979574 
L 337.135233 149.238859 
L 337.135233 149.238859 
L 337.367627 149.872544 
L 337.367627 149.872544 
L 337.600021 150.910453 
L 337.600021 150.910453 
L 337.832415 151.004423 
L 337.832415 151.004423 
L 338.297203 151.867211 
L 338.297203 151.867211 
L 338.529597 151.743262 
L 338.529597 151.743262 
L 338.761991 151.774517 
L 338.761991 151.774517 
L 339.226779 152.172511 
L 339.226779 152.172511 
L 339.459174 151.74316 
L 339.459174 151.74316 
L 339.691568 151.928036 
L 339.691568 151.928036 
L 339.923962 151.803474 
L 339.923962 151.803474 
L 340.38875 152.142584 
L 340.38875 152.142584 
L 340.621144 151.522739 
L 340.621144 151.522739 
L 340.853538 151.726102 
L 341.085932 151.346647 
L 341.085932 151.346647 
L 341.318326 151.403336 
L 341.318326 151.403336 
L 341.55072 151.280204 
L 341.783114 150.021415 
L 341.783114 150.021415 
L 342.015509 150.219161 
L 342.015509 150.219161 
L 342.247903 149.688026 
L 342.247903 149.688026 
L 342.480297 147.690346 
L 342.480297 147.690346 
L 342.712691 148.645572 
L 342.712691 148.645572 
L 342.945085 146.663417 
L 342.945085 146.663417 
L 343.177479 146.783229 
L 343.177479 146.783229 
L 343.409873 145.516115 
L 343.409873 145.516115 
L 343.642267 142.958497 
L 343.642267 142.958497 
L 343.874661 143.716079 
L 343.874661 143.716079 
L 344.107055 141.478163 
L 344.107055 141.478163 
L 344.339449 141.424998 
L 344.339449 141.424998 
L 344.804238 139.25424 
L 344.804238 139.25424 
L 345.036632 139.229062 
L 345.036632 139.229062 
L 345.269026 141.069547 
L 345.269026 141.069547 
L 345.50142 141.986724 
L 345.50142 141.986724 
L 345.733814 143.647695 
L 345.733814 143.647695 
L 345.966208 148.203095 
L 345.966208 148.203095 
L 346.198602 148.121995 
L 346.198602 148.121995 
L 346.430996 151.850204 
L 346.430996 151.850204 
L 346.66339 159.244775 
L 346.66339 159.244775 
L 346.895784 157.431307 
L 346.895784 157.431307 
L 347.128179 164.632576 
L 347.128179 164.632576 
L 347.360573 165.533309 
L 347.360573 165.533309 
L 347.592967 170.885718 
L 347.592967 170.885718 
L 347.825361 184.862581 
L 347.825361 184.862581 
L 348.057755 181.830414 
L 348.057755 181.830414 
L 348.290149 193.26687 
L 348.290149 193.26687 
L 348.522543 194.723967 
L 348.522543 194.723967 
L 348.754937 202.277827 
L 348.754937 202.277827 
L 348.987331 216.382469 
L 348.987331 216.382469 
L 349.219725 212.340891 
L 349.219725 212.340891 
L 349.452119 223.815956 
L 349.452119 223.815956 
L 349.684514 221.642899 
L 349.684514 221.642899 
L 349.916908 231.274161 
L 349.916908 231.274161 
L 350.149302 230.084266 
L 350.149302 230.084266 
L 350.381696 238.259349 
L 350.381696 238.259349 
L 350.61409 237.345338 
L 350.61409 237.345338 
L 350.846484 245.070183 
L 350.846484 245.070183 
L 351.078878 243.761753 
L 351.078878 243.761753 
L 351.311272 251.287524 
L 351.311272 251.287524 
L 351.543666 249.494485 
L 351.77606 257.416207 
L 351.77606 257.416207 
L 352.008454 255.045762 
L 352.008454 255.045762 
L 352.240849 257.473253 
L 352.240849 257.473253 
L 352.473243 261.124804 
L 352.473243 261.124804 
L 352.705637 261.535464 
L 352.938031 266.578895 
L 352.938031 266.578895 
L 353.170425 265.544306 
L 353.170425 265.544306 
L 353.402819 271.506702 
L 353.402819 271.506702 
L 353.635213 269.607844 
L 353.635213 269.607844 
L 353.867607 271.034145 
L 353.867607 271.034145 
L 354.100001 273.83915 
L 354.100001 273.83915 
L 354.332395 274.131172 
L 354.564789 277.326918 
L 354.564789 277.326918 
L 354.797184 277.035407 
L 354.797184 277.035407 
L 355.494366 279.856192 
L 355.494366 279.856192 
L 355.72676 281.427687 
L 355.72676 281.427687 
L 355.959154 281.314515 
L 355.959154 281.314515 
L 356.191548 282.166169 
L 356.191548 282.166169 
L 357.121124 283.635778 
L 357.121124 283.635778 
L 358.050701 283.754313 
L 358.050701 283.754313 
L 358.283095 284.098172 
L 358.283095 284.098172 
L 358.747883 283.803749 
L 358.747883 283.803749 
L 358.980277 283.899967 
L 358.980277 283.899967 
L 359.212671 283.719023 
L 359.212671 283.719023 
L 359.677459 283.907883 
L 359.677459 283.907883 
L 359.909854 283.627913 
L 359.909854 283.627913 
L 360.142248 283.666216 
L 360.142248 283.666216 
L 360.374642 282.956692 
L 360.374642 282.956692 
L 360.607036 283.1956 
L 360.607036 283.1956 
L 360.83943 283.025075 
L 360.83943 283.025075 
L 361.304218 282.043395 
L 361.304218 282.043395 
L 361.536612 280.282479 
L 361.536612 280.282479 
L 361.769006 280.66745 
L 361.769006 280.66745 
L 362.0014 280.087644 
L 362.0014 280.087644 
L 362.466189 278.088024 
L 362.466189 278.088024 
L 362.698583 275.322752 
L 362.698583 275.322752 
L 362.930977 275.697764 
L 363.163371 274.728954 
L 363.163371 274.728954 
L 363.628159 271.835291 
L 363.628159 271.835291 
L 363.860553 268.616256 
L 363.860553 268.616256 
L 364.092947 268.950258 
L 364.092947 268.950258 
L 364.325341 267.39102 
L 364.325341 267.39102 
L 364.557735 264.891316 
L 364.557735 264.891316 
L 364.790129 263.900648 
L 364.790129 263.900648 
L 365.022524 259.317976 
L 365.022524 259.317976 
L 365.254918 260.296183 
L 365.254918 260.296183 
L 365.487312 258.69665 
L 365.487312 258.69665 
L 365.719706 254.9259 
L 365.719706 254.9259 
L 365.9521 254.826261 
L 365.9521 254.826261 
L 366.184494 248.379612 
L 366.184494 248.379612 
L 366.416888 250.695922 
L 366.416888 250.695922 
L 366.649282 248.886335 
L 366.649282 248.886335 
L 366.881676 243.444757 
L 366.881676 243.444757 
L 367.11407 244.714118 
L 367.11407 244.714118 
L 367.346465 242.414304 
L 367.346465 242.414304 
L 367.578859 238.291983 
L 367.578859 238.291983 
L 367.811253 237.672241 
L 367.811253 237.672241 
L 368.043647 230.790062 
L 368.043647 230.790062 
L 368.276041 232.470286 
L 368.276041 232.470286 
L 368.508435 230.291 
L 368.508435 230.291 
L 368.740829 225.3278 
L 368.740829 225.3278 
L 368.973223 224.96479 
L 368.973223 224.96479 
L 369.205617 217.770722 
L 369.205617 217.770722 
L 369.438011 219.457229 
L 369.438011 219.457229 
L 369.670405 216.822289 
L 369.9028 212.575713 
L 369.9028 212.575713 
L 370.135194 211.17791 
L 370.135194 211.17791 
L 370.367588 205.415965 
L 370.367588 205.415965 
L 370.599982 205.540118 
L 370.832376 198.336602 
L 370.832376 198.336602 
L 371.06477 199.774752 
L 371.06477 199.774752 
L 371.297164 192.098271 
L 371.297164 192.098271 
L 371.529558 194.421986 
L 371.529558 194.421986 
L 371.761952 192.100927 
L 371.761952 192.100927 
L 371.994346 188.563671 
L 371.994346 188.563671 
L 372.459135 187.223986 
L 372.459135 187.223986 
L 372.691529 187.738369 
L 372.691529 187.738369 
L 372.923923 190.572791 
L 372.923923 190.572791 
L 373.156317 190.499096 
L 373.156317 190.499096 
L 373.388711 193.249199 
L 373.388711 193.249199 
L 373.621105 193.024182 
L 373.621105 193.024182 
L 373.853499 194.955265 
L 373.853499 194.955265 
L 374.085893 194.951997 
L 374.085893 194.951997 
L 374.318287 196.358176 
L 374.318287 196.358176 
L 374.550681 196.229478 
L 374.550681 196.229478 
L 374.783075 197.534538 
L 374.783075 197.534538 
L 375.01547 197.18021 
L 375.01547 197.18021 
L 375.247864 197.998974 
L 375.247864 197.998974 
L 375.480258 197.626363 
L 375.480258 197.626363 
L 375.712652 198.161788 
L 375.712652 198.161788 
L 375.945046 197.512322 
L 375.945046 197.512322 
L 376.17744 198.173891 
L 376.17744 198.173891 
L 376.409834 197.565129 
L 376.409834 197.565129 
L 376.642228 198.190336 
L 376.642228 198.190336 
L 376.874622 197.154572 
L 376.874622 197.154572 
L 377.107016 198.148509 
L 377.107016 198.148509 
L 377.33941 197.058764 
L 377.33941 197.058764 
L 377.571805 197.840604 
L 377.571805 197.840604 
L 377.804199 196.499182 
L 377.804199 196.499182 
L 378.036593 197.112183 
L 378.036593 197.112183 
L 378.268987 194.862777 
L 378.268987 194.862777 
L 378.501381 195.319195 
L 378.501381 195.319195 
L 378.733775 193.376927 
L 378.733775 193.376927 
L 378.966169 193.779262 
L 379.198563 191.243399 
L 379.198563 191.243399 
L 379.430957 191.536545 
L 379.663351 187.911039 
L 379.663351 187.911039 
L 379.895745 188.037082 
L 379.895745 188.037082 
L 380.12814 184.684089 
L 380.12814 184.684089 
L 380.360534 184.559272 
L 380.360534 184.559272 
L 380.592928 180.316527 
L 380.592928 180.316527 
L 380.825322 179.671249 
L 380.825322 179.671249 
L 381.057716 175.996409 
L 381.057716 175.996409 
L 381.29011 174.839608 
L 381.29011 174.839608 
L 381.522504 170.451617 
L 381.522504 170.451617 
L 381.754898 168.515529 
L 381.754898 168.515529 
L 382.45208 158.549039 
L 382.45208 158.549039 
L 382.684475 148.224392 
L 382.684475 148.224392 
L 382.916869 151.021838 
L 382.916869 151.021838 
L 383.149263 140.78493 
L 383.149263 140.78493 
L 383.381657 141.905165 
L 383.381657 141.905165 
L 383.614051 133.575847 
L 383.614051 133.575847 
L 383.846445 132.731701 
L 383.846445 132.731701 
L 384.311233 122.191841 
L 384.311233 122.191841 
L 384.776021 112.262276 
L 384.776021 112.262276 
L 385.937992 94.631972 
L 385.937992 94.631972 
L 388.494327 53.814161 
L 388.494327 53.814161 
L 388.726721 53.568 
L 397.092908 53.632502 
L 397.092908 53.632502 
L 397.325302 53.814212 
L 397.325302 53.814212 
L 397.557696 53.568 
L 397.557696 53.568 
L 398.487273 53.568 
L 398.487273 53.568 
" clip-path="url(#p9f21b7d500)" style="fill: none; stroke: #ff7f0e; stroke-width: 1.5; stroke-linecap: square"/>
   </g>
   <g id="patch_3">
    <path d="M 57.6 307.584 
L 57.6 41.472 
" style="fill: none; stroke: #000000; stroke-width: 0.8; stroke-linejoin: miter; stroke-linecap: square"/>
   </g>
   <g id="patch_4">
    <path d="M 414.72 307.584 
L 414.72 41.472 
" style="fill: none; stroke: #000000; stroke-width: 0.8; stroke-linejoin: miter; stroke-linecap: square"/>
   </g>
   <g id="patch_5">
    <path d="M 57.6 307.584 
L 414.72 307.584 
" style="fill: none; stroke: #000000; stroke-width: 0.8; stroke-linejoin: miter; stroke-linecap: square"/>
   </g>
   <g id="patch_6">
    <path d="M 57.6 41.472 
L 414.72 41.472 
" style="fill: none; stroke: #000000; stroke-width: 0.8; stroke-linejoin: miter; stroke-linecap: square"/>
   </g>
   <g id="text_14">
    <!-- Actual speed vs Expected speed -->
    <g transform="translate(138.808125 35.472) scale(0.12 -0.12)">
     <defs>
      <path id="DejaVuSans-41" d="M 2188 4044 
L 1331 1722 
L 3047 1722 
L 2188 4044 
z
M 1831 4666 
L 2547 4666 
L 4325 0 
L 3669 0 
L 3244 1197 
L 1141 1197 
L 716 0 
L 50 0 
L 1831 4666 
z
" transform="scale(0.015625)"/>
      <path id="DejaVuSans-75" d="M 544 1381 
L 544 3500 
L 1119 3500 
L 1119 1403 
Q 1119 906 1312 657 
Q 1506 409 1894 409 
Q 2359 409 2629 706 
Q 2900 1003 2900 1516 
L 2900 3500 
L 3475 3500 
L 3475 0 
L 2900 0 
L 2900 538 
Q 2691 219 2414 64 
Q 2138 -91 1772 -91 
Q 1169 -91 856 284 
Q 544 659 544 1381 
z
M 1991 3584 
L 1991 3584 
z
" transform="scale(0.015625)"/>
      <path id="DejaVuSans-61" d="M 2194 1759 
Q 1497 1759 1228 1600 
Q 959 1441 959 1056 
Q 959 750 1161 570 
Q 1363 391 1709 391 
Q 2188 391 2477 730 
Q 2766 1069 2766 1631 
L 2766 1759 
L 2194 1759 
z
M 3341 1997 
L 3341 0 
L 2766 0 
L 2766 531 
Q 2569 213 2275 61 
Q 1981 -91 1556 -91 
Q 1019 -91 701 211 
Q 384 513 384 1019 
Q 384 1609 779 1909 
Q 1175 2209 1959 2209 
L 2766 2209 
L 2766 2266 
Q 2766 2663 2505 2880 
Q 2244 3097 1772 3097 
Q 1472 3097 1187 3025 
Q 903 2953 641 2809 
L 641 3341 
Q 956 3463 1253 3523 
Q 1550 3584 1831 3584 
Q 2591 3584 2966 3190 
Q 3341 2797 3341 1997 
z
" transform="scale(0.015625)"/>
      <path id="DejaVuSans-20" transform="scale(0.015625)"/>
      <path id="DejaVuSans-70" d="M 1159 525 
L 1159 -1331 
L 581 -1331 
L 581 3500 
L 1159 3500 
L 1159 2969 
Q 1341 3281 1617 3432 
Q 1894 3584 2278 3584 
Q 2916 3584 3314 3078 
Q 3713 2572 3713 1747 
Q 3713 922 3314 415 
Q 2916 -91 2278 -91 
Q 1894 -91 1617 61 
Q 1341 213 1159 525 
z
M 3116 1747 
Q 3116 2381 2855 2742 
Q 2594 3103 2138 3103 
Q 1681 3103 1420 2742 
Q 1159 2381 1159 1747 
Q 1159 1113 1420 752 
Q 1681 391 2138 391 
Q 2594 391 2855 752 
Q 3116 1113 3116 1747 
z
" transform="scale(0.015625)"/>
      <path id="DejaVuSans-64" d="M 2906 2969 
L 2906 4863 
L 3481 4863 
L 3481 0 
L 2906 0 
L 2906 525 
Q 2725 213 2448 61 
Q 2172 -91 1784 -91 
Q 1150 -91 751 415 
Q 353 922 353 1747 
Q 353 2572 751 3078 
Q 1150 3584 1784 3584 
Q 2172 3584 2448 3432 
Q 2725 3281 2906 2969 
z
M 947 1747 
Q 947 1113 1208 752 
Q 1469 391 1925 391 
Q 2381 391 2643 752 
Q 2906 1113 2906 1747 
Q 2906 2381 2643 2742 
Q 2381 3103 1925 3103 
Q 1469 3103 1208 2742 
Q 947 2381 947 1747 
z
" transform="scale(0.015625)"/>
      <path id="DejaVuSans-76" d="M 191 3500 
L 800 3500 
L 1894 563 
L 2988 3500 
L 3597 3500 
L 2284 0 
L 1503 0 
L 191 3500 
z
" transform="scale(0.015625)"/>
      <path id="DejaVuSans-45" d="M 628 4666 
L 3578 4666 
L 3578 4134 
L 1259 4134 
L 1259 2753 
L 3481 2753 
L 3481 2222 
L 1259 2222 
L 1259 531 
L 3634 531 
L 3634 0 
L 628 0 
L 628 4666 
z
" transform="scale(0.015625)"/>
      <path id="DejaVuSans-78" d="M 3513 3500 
L 2247 1797 
L 3578 0 
L 2900 0 
L 1881 1375 
L 863 0 
L 184 0 
L 1544 1831 
L 300 3500 
L 978 3500 
L 1906 2253 
L 2834 3500 
L 3513 3500 
z
" transform="scale(0.015625)"/>
     </defs>
     <use xlink:href="#DejaVuSans-41"/>
     <use xlink:href="#DejaVuSans-63" x="66.658203"/>
     <use xlink:href="#DejaVuSans-74" x="121.638672"/>
     <use xlink:href="#DejaVuSans-75" x="160.847656"/>
     <use xlink:href="#DejaVuSans-61" x="224.226562"/>
     <use xlink:href="#DejaVuSans-6c" x="285.505859"/>
     <use xlink:href="#DejaVuSans-20" x="313.289062"/>
     <use xlink:href="#DejaVuSans-73" x="345.076172"/>
     <use xlink:href="#DejaVuSans-70" x="397.175781"/>
     <use xlink:href="#DejaVuSans-65" x="460.652344"/>
     <use xlink:href="#DejaVuSans-65" x="522.175781"/>
     <use xlink:href="#DejaVuSans-64" x="583.699219"/>
     <use xlink:href="#DejaVuSans-20" x="647.175781"/>
     <use xlink:href="#DejaVuSans-76" x="678.962891"/>
     <use xlink:href="#DejaVuSans-73" x="738.142578"/>
     <use xlink:href="#DejaVuSans-20" x="790.242188"/>
     <use xlink:href="#DejaVuSans-45" x="822.029297"/>
     <use xlink:href="#DejaVuSans-78" x="885.212891"/>
     <use xlink:href="#DejaVuSans-70" x="944.392578"/>
     <use xlink:href="#DejaVuSans-65" x="1007.869141"/>
     <use xlink:href="#DejaVuSans-63" x="1069.392578"/>
     <use xlink:href="#DejaVuSans-74" x="1124.373047"/>
     <use xlink:href="#DejaVuSans-65" x="1163.582031"/>
     <use xlink:href="#DejaVuSans-64" x="1225.105469"/>
     <use xlink:href="#DejaVuSans-20" x="1288.582031"/>
     <use xlink:href="#DejaVuSans-73" x="1320.369141"/>
     <use xlink:href="#DejaVuSans-70" x="1372.46875"/>
     <use xlink:href="#DejaVuSans-65" x="1435.945312"/>
     <use xlink:href="#DejaVuSans-65" x="1497.46875"/>
     <use xlink:href="#DejaVuSans-64" x="1558.992188"/>
    </g>
   </g>
   <g id="legend_1">
    <g id="patch_7">
     <path d="M 64.6 302.584 
L 176.65 302.584 
Q 178.65 302.584 178.65 300.584 
L 178.65 272.22775 
Q 178.65 270.22775 176.65 270.22775 
L 64.6 270.22775 
Q 62.6 270.22775 62.6 272.22775 
L 62.6 300.584 
Q 62.6 302.584 64.6 302.584 
z
" style="fill: #ffffff; opacity: 0.8; stroke: #cccccc; stroke-linejoin: miter"/>
    </g>
    <g id="line2d_25">
     <path d="M 66.6 278.326187 
L 76.6 278.326187 
L 86.6 278.326187 
" style="fill: none; stroke: #1f77b4; stroke-width: 1.5; stroke-linecap: square"/>
    </g>
    <g id="text_15">
     <!-- Actual speed -->
     <g transform="translate(94.6 281.826187) scale(0.1 -0.1)">
      <use xlink:href="#DejaVuSans-41"/>
      <use xlink:href="#DejaVuSans-63" x="66.658203"/>
      <use xlink:href="#DejaVuSans-74" x="121.638672"/>
      <use xlink:href="#DejaVuSans-75" x="160.847656"/>
      <use xlink:href="#DejaVuSans-61" x="224.226562"/>
      <use xlink:href="#DejaVuSans-6c" x="285.505859"/>
      <use xlink:href="#DejaVuSans-20" x="313.289062"/>
      <use xlink:href="#DejaVuSans-73" x="345.076172"/>
      <use xlink:href="#DejaVuSans-70" x="397.175781"/>
      <use xlink:href="#DejaVuSans-65" x="460.652344"/>
      <use xlink:href="#DejaVuSans-65" x="522.175781"/>
      <use xlink:href="#DejaVuSans-64" x="583.699219"/>
     </g>
    </g>
    <g id="line2d_26">
     <path d="M 66.6 293.004312 
L 76.6 293.004312 
L 86.6 293.004312 
" style="fill: none; stroke: #ff7f0e; stroke-width: 1.5; stroke-linecap: square"/>
    </g>
    <g id="text_16">
     <!-- Expected speed -->
     <g transform="translate(94.6 296.504312) scale(0.1 -0.1)">
      <use xlink:href="#DejaVuSans-45"/>
      <use xlink:href="#DejaVuSans-78" x="63.183594"/>
      <use xlink:href="#DejaVuSans-70" x="122.363281"/>
      <use xlink:href="#DejaVuSans-65" x="185.839844"/>
      <use xlink:href="#DejaVuSans-63" x="247.363281"/>
      <use xlink:href="#DejaVuSans-74" x="302.34375"/>
      <use xlink:href="#DejaVuSans-65" x="341.552734"/>
      <use xlink:href="#DejaVuSans-64" x="403.076172"/>
      <use xlink:href="#DejaVuSans-20" x="466.552734"/>
      <use xlink:href="#DejaVuSans-73" x="498.339844"/>
      <use xlink:href="#DejaVuSans-70" x="550.439453"/>
      <use xlink:href="#DejaVuSans-65" x="613.916016"/>
      <use xlink:href="#DejaVuSans-65" x="675.439453"/>
      <use xlink:href="#DejaVuSans-64" x="736.962891"/>
     </g>
    </g>
   </g>
  </g>
 </g>
 <defs>
  <clipPath id="p9f21b7d500">
   <rect x="57.6" y="41.472" width="357.12" height="266.112"/>
  </clipPath>
 </defs>
</svg>
